0, 0, Header, 1, 5, 960
1, 0, Start_track
1, 0, Title_t, "A Sleepin' Bee"
1, 0, Text_t, "Harold Arlen /  Truman Capote\012"
1, 0, Text_t, "dougmck@pipeline.com.au. Recorded in real time\012"
1, 0, Time_signature, 4, 2, 24, 8
1, 0, Key_signature, -4, "major"
1, 0, Tempo, 631579
1, 0, Marker_t, "First melodic phrase with 'so-what' type voicings under melody notes"
1, 257280, Marker_t, "Whole tone scale played as a chord"
1, 259228, Marker_t, "And again - the other whole tone scale"
1, 259228, End_track
2, 0, Start_track
2, 0, End_track
3, 0, Start_track
3, 0, Title_t, "MIDI 1"
3, 0, Control_c, 0, 64, 127
3, 0, Control_c, 0, 64, 0
3, 0, Control_c, 0, 64, 127
3, 0, Control_c, 0, 64, 0
3, 0, Control_c, 0, 64, 127
3, 0, Control_c, 0, 64, 0
3, 12, Note_on_c, 0, 39, 44
3, 131, Control_c, 0, 64, 127
3, 617, Note_on_c, 0, 51, 57
3, 625, Note_on_c, 0, 60, 31
3, 630, Note_on_c, 0, 46, 37
3, 643, Note_on_c, 0, 56, 59
3, 691, Note_on_c, 0, 60, 0
3, 703, Note_on_c, 0, 51, 0
3, 742, Note_on_c, 0, 56, 0
3, 945, Note_on_c, 0, 46, 0
3, 977, Note_on_c, 0, 54, 80
3, 981, Control_c, 0, 64, 0
3, 982, Note_on_c, 0, 49, 75
3, 988, Note_on_c, 0, 63, 72
3, 1011, Note_on_c, 0, 59, 46
3, 1013, Note_on_c, 0, 60, 49
3, 1069, Note_on_c, 0, 60, 0
3, 1182, Control_c, 0, 64, 127
3, 1493, Note_on_c, 0, 59, 0
3, 1510, Note_on_c, 0, 54, 0
3, 1550, Note_on_c, 0, 63, 0
3, 1665, Note_on_c, 0, 49, 0
3, 1881, Control_c, 0, 64, 0
3, 1881, Note_on_c, 0, 65, 92
3, 1885, Note_on_c, 0, 61, 92
3, 1886, Note_on_c, 0, 56, 98
3, 1907, Note_on_c, 0, 51, 83
3, 2108, Control_c, 0, 64, 127
3, 2329, Note_on_c, 0, 65, 0
3, 2331, Note_on_c, 0, 56, 0
3, 2371, Note_on_c, 0, 61, 0
3, 2484, Note_on_c, 0, 51, 0
3, 2530, Note_on_c, 0, 39, 0
3, 2827, Note_on_c, 0, 64, 84
3, 2830, Note_on_c, 0, 68, 83
3, 2838, Note_on_c, 0, 59, 90
3, 2840, Note_on_c, 0, 54, 73
3, 2843, Control_c, 0, 64, 0
3, 3122, Control_c, 0, 64, 127
3, 3378, Note_on_c, 0, 59, 0
3, 3399, Note_on_c, 0, 64, 0
3, 3415, Note_on_c, 0, 54, 0
3, 3460, Note_on_c, 0, 68, 0
3, 3648, Note_on_c, 0, 54, 57
3, 3668, Note_on_c, 0, 53, 53
3, 3711, Note_on_c, 0, 53, 0
3, 3724, Note_on_c, 0, 55, 27
3, 3781, Control_c, 0, 64, 0
3, 3794, Note_on_c, 0, 55, 0
3, 3800, Note_on_c, 0, 58, 87
3, 3813, Note_on_c, 0, 63, 82
3, 3816, Note_on_c, 0, 68, 68
3, 3819, Note_on_c, 0, 72, 84
3, 3860, Note_on_c, 0, 54, 0
3, 4073, Control_c, 0, 64, 127
3, 4392, Note_on_c, 0, 63, 0
3, 4406, Note_on_c, 0, 72, 0
3, 4433, Note_on_c, 0, 68, 0
3, 4706, Note_on_c, 0, 58, 0
3, 4727, Note_on_c, 0, 75, 68
3, 4732, Control_c, 0, 64, 0
3, 4734, Note_on_c, 0, 61, 60
3, 4735, Note_on_c, 0, 71, 69
3, 4739, Note_on_c, 0, 66, 63
3, 5048, Control_c, 0, 64, 127
3, 5246, Note_on_c, 0, 75, 0
3, 5267, Note_on_c, 0, 71, 0
3, 5325, Note_on_c, 0, 66, 0
3, 5378, Note_on_c, 0, 61, 0
3, 5681, Control_c, 0, 64, 0
3, 5693, Note_on_c, 0, 63, 49
3, 5697, Note_on_c, 0, 68, 50
3, 5708, Note_on_c, 0, 58, 45
3, 5709, Note_on_c, 0, 72, 55
3, 6037, Control_c, 0, 64, 127
3, 6317, Note_on_c, 0, 63, 0
3, 6418, Note_on_c, 0, 68, 0
3, 6489, Note_on_c, 0, 72, 0
3, 6606, Control_c, 0, 64, 0
3, 6624, Note_on_c, 0, 71, 36
3, 6642, Note_on_c, 0, 58, 0
3, 6647, Note_on_c, 0, 62, 44
3, 6654, Note_on_c, 0, 57, 44
3, 6662, Note_on_c, 0, 67, 42
3, 6911, Control_c, 0, 64, 127
3, 6960, Note_on_c, 0, 62, 0
3, 7144, Note_on_c, 0, 57, 0
3, 7209, Note_on_c, 0, 67, 0
3, 7222, Note_on_c, 0, 71, 0
3, 7326, Note_on_c, 0, 63, 65
3, 7334, Note_on_c, 0, 72, 60
3, 7339, Note_on_c, 0, 68, 56
3, 7389, Note_on_c, 0, 72, 0
3, 7403, Note_on_c, 0, 63, 0
3, 7436, Note_on_c, 0, 68, 0
3, 7456, Control_c, 0, 64, 0
3, 7574, Note_on_c, 0, 55, 34
3, 7583, Note_on_c, 0, 44, 29
3, 7954, Note_on_c, 0, 55, 0
3, 7996, Note_on_c, 0, 63, 53
3, 8085, Note_on_c, 0, 63, 0
3, 8102, Note_on_c, 0, 65, 45
3, 8215, Note_on_c, 0, 63, 40
3, 8254, Note_on_c, 0, 65, 0
3, 8364, Note_on_c, 0, 63, 0
3, 8375, Note_on_c, 0, 62, 45
3, 8473, Note_on_c, 0, 62, 0
3, 8546, Note_on_c, 0, 55, 27
3, 8567, Note_on_c, 0, 63, 67
3, 8613, Note_on_c, 0, 55, 0
3, 8659, Control_c, 0, 64, 127
3, 8736, Note_on_c, 0, 44, 0
3, 9231, Note_on_c, 0, 39, 39
3, 9367, Note_on_c, 0, 63, 0
3, 9395, Control_c, 0, 64, 0
3, 9429, Note_on_c, 0, 39, 0
3, 9534, Note_on_c, 0, 59, 48
3, 9539, Note_on_c, 0, 68, 44
3, 9540, Note_on_c, 0, 64, 45
3, 9543, Note_on_c, 0, 38, 45
3, 9623, Control_c, 0, 64, 127
3, 9683, Note_on_c, 0, 38, 0
3, 9688, Note_on_c, 0, 59, 0
3, 9829, Note_on_c, 0, 64, 0
3, 9854, Note_on_c, 0, 68, 0
3, 10482, Note_on_c, 0, 64, 37
3, 10486, Control_c, 0, 64, 0
3, 10490, Note_on_c, 0, 60, 26
3, 10495, Note_on_c, 0, 80, 38
3, 10500, Note_on_c, 0, 54, 33
3, 10501, Note_on_c, 0, 76, 58
3, 10505, Note_on_c, 0, 71, 42
3, 10674, Control_c, 0, 64, 127
3, 10889, Note_on_c, 0, 64, 0
3, 10901, Note_on_c, 0, 80, 0
3, 10912, Note_on_c, 0, 76, 0
3, 10916, Note_on_c, 0, 60, 0
3, 10932, Note_on_c, 0, 71, 0
3, 11014, Note_on_c, 0, 54, 0
3, 11410, Control_c, 0, 64, 0
3, 11440, Note_on_c, 0, 77, 54
3, 11453, Note_on_c, 0, 72, 56
3, 11454, Note_on_c, 0, 65, 34
3, 11459, Note_on_c, 0, 53, 45
3, 11467, Note_on_c, 0, 63, 43
3, 11560, Note_on_c, 0, 63, 0
3, 11587, Control_c, 0, 64, 127
3, 11617, Note_on_c, 0, 53, 0
3, 11983, Note_on_c, 0, 65, 0
3, 11986, Note_on_c, 0, 72, 0
3, 12405, Note_on_c, 0, 72, 57
3, 12409, Note_on_c, 0, 65, 48
3, 12513, Note_on_c, 0, 65, 0
3, 12730, Note_on_c, 0, 77, 0
3, 12773, Note_on_c, 0, 72, 0
3, 13383, Note_on_c, 0, 75, 61
3, 13387, Note_on_c, 0, 72, 69
3, 13395, Note_on_c, 0, 68, 73
3, 13400, Control_c, 0, 64, 0
3, 13401, Note_on_c, 0, 64, 71
3, 13401, Note_on_c, 0, 63, 80
3, 13691, Note_on_c, 0, 63, 0
3, 13706, Note_on_c, 0, 62, 68
3, 13875, Note_on_c, 0, 62, 0
3, 13986, Note_on_c, 0, 61, 58
3, 14158, Note_on_c, 0, 72, 0
3, 14190, Note_on_c, 0, 64, 0
3, 14195, Note_on_c, 0, 68, 0
3, 14303, Note_on_c, 0, 61, 0
3, 14321, Note_on_c, 0, 72, 46
3, 14328, Note_on_c, 0, 64, 42
3, 14331, Note_on_c, 0, 60, 34
3, 14346, Note_on_c, 0, 68, 40
3, 14401, Control_c, 0, 64, 127
3, 14468, Note_on_c, 0, 75, 0
3, 14586, Note_on_c, 0, 72, 0
3, 14638, Note_on_c, 0, 68, 0
3, 14710, Note_on_c, 0, 64, 0
3, 14795, Note_on_c, 0, 60, 0
3, 14962, Note_on_c, 0, 45, 50
3, 15012, Note_on_c, 0, 45, 0
3, 15330, Note_on_c, 0, 44, 38
3, 15339, Control_c, 0, 64, 0
3, 15347, Note_on_c, 0, 60, 29
3, 15351, Note_on_c, 0, 55, 41
3, 15356, Note_on_c, 0, 63, 37
3, 15730, Control_c, 0, 64, 127
3, 15848, Note_on_c, 0, 55, 0
3, 16086, Note_on_c, 0, 60, 0
3, 16247, Note_on_c, 0, 63, 0
3, 16322, Note_on_c, 0, 55, 40
3, 16324, Note_on_c, 0, 63, 76
3, 16340, Control_c, 0, 64, 0
3, 16533, Note_on_c, 0, 63, 0
3, 16609, Note_on_c, 0, 65, 34
3, 16652, Note_on_c, 0, 63, 45
3, 16705, Note_on_c, 0, 65, 0
3, 16786, Note_on_c, 0, 62, 51
3, 16840, Note_on_c, 0, 44, 0
3, 16858, Note_on_c, 0, 63, 0
3, 16908, Note_on_c, 0, 55, 0
3, 16986, Note_on_c, 0, 62, 0
3, 17079, Note_on_c, 0, 63, 60
3, 17087, Control_c, 0, 64, 127
3, 17189, Control_c, 0, 64, 0
3, 17211, Note_on_c, 0, 63, 0
3, 17285, Note_on_c, 0, 63, 28
3, 17291, Note_on_c, 0, 59, 34
3, 17297, Note_on_c, 0, 65, 54
3, 17328, Note_on_c, 0, 56, 19
3, 17329, Note_on_c, 0, 49, 42
3, 17580, Control_c, 0, 64, 127
3, 17863, Note_on_c, 0, 59, 0
3, 17903, Note_on_c, 0, 63, 0
3, 17990, Note_on_c, 0, 65, 0
3, 18220, Note_on_c, 0, 59, 42
3, 18224, Note_on_c, 0, 68, 48
3, 18226, Note_on_c, 0, 63, 46
3, 18241, Control_c, 0, 64, 0
3, 18243, Note_on_c, 0, 58, 39
3, 18253, Note_on_c, 0, 65, 29
3, 18456, Control_c, 0, 64, 127
3, 18497, Note_on_c, 0, 56, 0
3, 18545, Note_on_c, 0, 59, 0
3, 18592, Note_on_c, 0, 65, 0
3, 18641, Note_on_c, 0, 63, 0
3, 18667, Note_on_c, 0, 68, 0
3, 18874, Note_on_c, 0, 58, 0
3, 19001, Note_on_c, 0, 55, 34
3, 19033, Note_on_c, 0, 49, 0
3, 19109, Note_on_c, 0, 55, 0
3, 19113, Control_c, 0, 64, 0
3, 19177, Note_on_c, 0, 60, 32
3, 19188, Note_on_c, 0, 48, 43
3, 19195, Note_on_c, 0, 58, 37
3, 19201, Note_on_c, 0, 67, 42
3, 19204, Note_on_c, 0, 72, 41
3, 19274, Note_on_c, 0, 60, 0
3, 19331, Note_on_c, 0, 48, 0
3, 19345, Control_c, 0, 64, 127
3, 19346, Note_on_c, 0, 67, 0
3, 19404, Note_on_c, 0, 72, 0
3, 19405, Note_on_c, 0, 58, 0
3, 19906, Note_on_c, 0, 89, 92
3, 20185, Note_on_c, 0, 89, 0
3, 20185, Note_on_c, 0, 86, 51
3, 20194, Control_c, 0, 64, 0
3, 20224, Note_on_c, 0, 67, 24
3, 20268, Note_on_c, 0, 67, 0
3, 20473, Note_on_c, 0, 87, 56
3, 20540, Note_on_c, 0, 86, 0
3, 20647, Note_on_c, 0, 87, 0
3, 20789, Control_c, 0, 64, 127
3, 20802, Note_on_c, 0, 88, 74
3, 21044, Control_c, 0, 64, 0
3, 21057, Note_on_c, 0, 88, 0
3, 21135, Note_on_c, 0, 89, 67
3, 21144, Note_on_c, 0, 67, 35
3, 21155, Note_on_c, 0, 63, 37
3, 21159, Note_on_c, 0, 62, 22
3, 21173, Note_on_c, 0, 57, 19
3, 21258, Control_c, 0, 64, 127
3, 21390, Note_on_c, 0, 62, 0
3, 21402, Note_on_c, 0, 67, 0
3, 21434, Note_on_c, 0, 57, 0
3, 21452, Note_on_c, 0, 63, 0
3, 21557, Note_on_c, 0, 89, 0
3, 21794, Note_on_c, 0, 87, 71
3, 22045, Control_c, 0, 64, 0
3, 22115, Note_on_c, 0, 87, 0
3, 22122, Note_on_c, 0, 53, 30
3, 22124, Note_on_c, 0, 58, 39
3, 22136, Note_on_c, 0, 60, 24
3, 22139, Note_on_c, 0, 63, 20
3, 22162, Note_on_c, 0, 84, 51
3, 22297, Control_c, 0, 64, 127
3, 22454, Note_on_c, 0, 53, 0
3, 22490, Note_on_c, 0, 60, 0
3, 22548, Note_on_c, 0, 63, 0
3, 22562, Note_on_c, 0, 58, 0
3, 22724, Note_on_c, 0, 85, 42
3, 22756, Note_on_c, 0, 84, 0
3, 22838, Note_on_c, 0, 85, 0
3, 22861, Note_on_c, 0, 86, 62
3, 22981, Note_on_c, 0, 86, 0
3, 23039, Note_on_c, 0, 87, 83
3, 23084, Control_c, 0, 64, 0
3, 23128, Note_on_c, 0, 65, 46
3, 23144, Note_on_c, 0, 60, 27
3, 23153, Note_on_c, 0, 61, 37
3, 23161, Note_on_c, 0, 56, 31
3, 23362, Control_c, 0, 64, 127
3, 23747, Note_on_c, 0, 87, 0
3, 23763, Note_on_c, 0, 65, 0
3, 23796, Note_on_c, 0, 60, 0
3, 23971, Note_on_c, 0, 61, 0
3, 24106, Note_on_c, 0, 65, 39
3, 24123, Control_c, 0, 64, 0
3, 24131, Note_on_c, 0, 61, 14
3, 24136, Note_on_c, 0, 60, 17
3, 24413, Control_c, 0, 64, 127
3, 24455, Note_on_c, 0, 84, 64
3, 24458, Note_on_c, 0, 72, 58
3, 24516, Note_on_c, 0, 72, 0
3, 24527, Note_on_c, 0, 84, 0
3, 24744, Note_on_c, 0, 85, 84
3, 24753, Note_on_c, 0, 73, 76
3, 24827, Note_on_c, 0, 65, 0
3, 24838, Note_on_c, 0, 85, 0
3, 24853, Note_on_c, 0, 73, 0
3, 24906, Note_on_c, 0, 60, 0
3, 24950, Note_on_c, 0, 56, 0
3, 25004, Note_on_c, 0, 61, 0
3, 25061, Control_c, 0, 64, 0
3, 25070, Note_on_c, 0, 82, 59
3, 25092, Note_on_c, 0, 70, 62
3, 25093, Note_on_c, 0, 78, 56
3, 25102, Note_on_c, 0, 62, 61
3, 25107, Note_on_c, 0, 56, 69
3, 25114, Note_on_c, 0, 66, 53
3, 25326, Control_c, 0, 64, 127
3, 25696, Note_on_c, 0, 78, 0
3, 25708, Note_on_c, 0, 82, 0
3, 25710, Note_on_c, 0, 62, 0
3, 25765, Note_on_c, 0, 70, 0
3, 25778, Note_on_c, 0, 66, 0
3, 25986, Control_c, 0, 64, 0
3, 26036, Note_on_c, 0, 66, 45
3, 26038, Note_on_c, 0, 73, 39
3, 26048, Note_on_c, 0, 70, 36
3, 26053, Note_on_c, 0, 62, 37
3, 26113, Control_c, 0, 64, 127
3, 26308, Note_on_c, 0, 73, 0
3, 26311, Note_on_c, 0, 66, 0
3, 26323, Note_on_c, 0, 62, 0
3, 26324, Note_on_c, 0, 70, 0
3, 26460, Note_on_c, 0, 56, 0
3, 26874, Control_c, 0, 64, 0
3, 26914, Note_on_c, 0, 61, 50
3, 26915, Note_on_c, 0, 70, 39
3, 26921, Note_on_c, 0, 65, 53
3, 26927, Note_on_c, 0, 55, 43
3, 27229, Control_c, 0, 64, 127
3, 27510, Note_on_c, 0, 61, 0
3, 27513, Note_on_c, 0, 65, 0
3, 27556, Note_on_c, 0, 45, 50
3, 27679, Note_on_c, 0, 45, 0
3, 27759, Control_c, 0, 64, 0
3, 27895, Note_on_c, 0, 61, 49
3, 27910, Note_on_c, 0, 65, 49
3, 27980, Note_on_c, 0, 55, 0
3, 28369, Control_c, 0, 64, 127
3, 28453, Note_on_c, 0, 65, 0
3, 28464, Note_on_c, 0, 61, 0
3, 28721, Note_on_c, 0, 70, 0
3, 28737, Control_c, 0, 64, 0
3, 28803, Note_on_c, 0, 67, 36
3, 28826, Note_on_c, 0, 59, 39
3, 28835, Note_on_c, 0, 63, 40
3, 29390, Note_on_c, 0, 37, 52
3, 29458, Note_on_c, 0, 63, 0
3, 29540, Note_on_c, 0, 37, 0
3, 29541, Note_on_c, 0, 59, 0
3, 29726, Note_on_c, 0, 44, 47
3, 29736, Note_on_c, 0, 67, 0
3, 29744, Note_on_c, 0, 59, 50
3, 29770, Note_on_c, 0, 63, 50
3, 29814, Control_c, 0, 64, 127
3, 29903, Note_on_c, 0, 44, 0
3, 30201, Note_on_c, 0, 59, 0
3, 30423, Note_on_c, 0, 46, 40
3, 30577, Note_on_c, 0, 63, 0
3, 30661, Control_c, 0, 64, 0
3, 30670, Note_on_c, 0, 46, 0
3, 30747, Note_on_c, 0, 58, 45
3, 30752, Note_on_c, 0, 64, 37
3, 30784, Note_on_c, 0, 48, 20
3, 30853, Control_c, 0, 64, 127
3, 30890, Note_on_c, 0, 58, 0
3, 30893, Note_on_c, 0, 48, 0
3, 31029, Note_on_c, 0, 64, 0
3, 31675, Control_c, 0, 64, 0
3, 31678, Note_on_c, 0, 64, 38
3, 31685, Note_on_c, 0, 72, 61
3, 31688, Note_on_c, 0, 60, 27
3, 31690, Note_on_c, 0, 58, 35
3, 31723, Note_on_c, 0, 64, 0
3, 31744, Note_on_c, 0, 60, 0
3, 31795, Note_on_c, 0, 72, 0
3, 31801, Note_on_c, 0, 58, 0
3, 31812, Note_on_c, 0, 73, 44
3, 31956, Note_on_c, 0, 72, 38
3, 32002, Note_on_c, 0, 73, 0
3, 32103, Note_on_c, 0, 72, 0
3, 32116, Note_on_c, 0, 71, 48
3, 32280, Note_on_c, 0, 71, 0
3, 32342, Note_on_c, 0, 72, 69
3, 32489, Control_c, 0, 64, 127
3, 32502, Note_on_c, 0, 72, 0
3, 32559, Note_on_c, 0, 73, 56
3, 32565, Control_c, 0, 64, 0
3, 32640, Note_on_c, 0, 63, 42
3, 32655, Note_on_c, 0, 58, 37
3, 32657, Note_on_c, 0, 52, 44
3, 32908, Control_c, 0, 64, 127
3, 33071, Note_on_c, 0, 63, 0
3, 33075, Note_on_c, 0, 52, 0
3, 33118, Note_on_c, 0, 58, 0
3, 33465, Control_c, 0, 64, 0
3, 33587, Note_on_c, 0, 48, 43
3, 33611, Note_on_c, 0, 58, 33
3, 33694, Control_c, 0, 64, 127
3, 33849, Note_on_c, 0, 48, 0
3, 33971, Note_on_c, 0, 58, 0
3, 34129, Note_on_c, 0, 73, 0
3, 34266, Note_on_c, 0, 71, 115
3, 34556, Control_c, 0, 64, 0
3, 34578, Note_on_c, 0, 71, 0
3, 34610, Note_on_c, 0, 57, 44
3, 34610, Note_on_c, 0, 62, 54
3, 34613, Note_on_c, 0, 51, 40
3, 34637, Note_on_c, 0, 72, 85
3, 34784, Control_c, 0, 64, 127
3, 34808, Control_c, 0, 64, 0
3, 34886, Note_on_c, 0, 62, 0
3, 34917, Note_on_c, 0, 72, 0
3, 34944, Note_on_c, 0, 57, 0
3, 34957, Note_on_c, 0, 75, 68
3, 35089, Control_c, 0, 64, 127
3, 35314, Note_on_c, 0, 63, 46
3, 35324, Note_on_c, 0, 51, 0
3, 35583, Control_c, 0, 64, 0
3, 35645, Note_on_c, 0, 62, 45
3, 35686, Note_on_c, 0, 62, 0
3, 35785, Control_c, 0, 64, 127
3, 36069, Note_on_c, 0, 75, 0
3, 36167, Note_on_c, 0, 63, 0
3, 36216, Note_on_c, 0, 41, 44
3, 36269, Note_on_c, 0, 41, 0
3, 36508, Control_c, 0, 64, 0
3, 36552, Note_on_c, 0, 57, 56
3, 36556, Note_on_c, 0, 66, 48
3, 36564, Note_on_c, 0, 51, 47
3, 36578, Note_on_c, 0, 62, 50
3, 36761, Control_c, 0, 64, 127
3, 37057, Note_on_c, 0, 62, 0
3, 37093, Note_on_c, 0, 57, 0
3, 37431, Control_c, 0, 64, 0
3, 37474, Note_on_c, 0, 57, 45
3, 37477, Note_on_c, 0, 53, 28
3, 37483, Note_on_c, 0, 61, 51
3, 37623, Control_c, 0, 64, 127
3, 37629, Note_on_c, 0, 53, 0
3, 37735, Note_on_c, 0, 51, 0
3, 37850, Note_on_c, 0, 57, 0
3, 38073, Note_on_c, 0, 47, 34
3, 38179, Note_on_c, 0, 47, 0
3, 38228, Note_on_c, 0, 61, 0
3, 38331, Control_c, 0, 64, 0
3, 38415, Note_on_c, 0, 60, 33
3, 38420, Note_on_c, 0, 46, 46
3, 38427, Note_on_c, 0, 56, 26
3, 38535, Control_c, 0, 64, 127
3, 38560, Note_on_c, 0, 56, 0
3, 38602, Note_on_c, 0, 60, 0
3, 38651, Note_on_c, 0, 46, 0
3, 38692, Note_on_c, 0, 66, 0
3, 39047, Note_on_c, 0, 83, 60
3, 39049, Note_on_c, 0, 78, 71
3, 39054, Note_on_c, 0, 71, 76
3, 39055, Note_on_c, 0, 81, 78
3, 39247, Note_on_c, 0, 79, 45
3, 39260, Note_on_c, 0, 71, 0
3, 39276, Note_on_c, 0, 78, 0
3, 39334, Note_on_c, 0, 79, 0
3, 39435, Control_c, 0, 64, 0
3, 39443, Note_on_c, 0, 56, 44
3, 39448, Note_on_c, 0, 62, 39
3, 39451, Note_on_c, 0, 77, 49
3, 39458, Note_on_c, 0, 67, 40
3, 39607, Note_on_c, 0, 81, 0
3, 39659, Note_on_c, 0, 83, 0
3, 39810, Note_on_c, 0, 77, 0
3, 39928, Control_c, 0, 64, 127
3, 39969, Note_on_c, 0, 67, 0
3, 40087, Note_on_c, 0, 82, 55
3, 40104, Note_on_c, 0, 70, 48
3, 40114, Note_on_c, 0, 77, 49
3, 40147, Note_on_c, 0, 79, 35
3, 40151, Note_on_c, 0, 56, 0
3, 40232, Note_on_c, 0, 62, 0
3, 40277, Note_on_c, 0, 70, 0
3, 40286, Note_on_c, 0, 82, 0
3, 40327, Note_on_c, 0, 77, 0
3, 40346, Control_c, 0, 64, 0
3, 40391, Note_on_c, 0, 62, 13
3, 40392, Note_on_c, 0, 79, 0
3, 40397, Note_on_c, 0, 56, 38
3, 40405, Note_on_c, 0, 65, 33
3, 40455, Note_on_c, 0, 82, 49
3, 40473, Note_on_c, 0, 70, 35
3, 40491, Note_on_c, 0, 77, 33
3, 40582, Note_on_c, 0, 77, 0
3, 40608, Note_on_c, 0, 70, 0
3, 40672, Note_on_c, 0, 82, 0
3, 40777, Note_on_c, 0, 84, 63
3, 40790, Control_c, 0, 64, 127
3, 40803, Note_on_c, 0, 72, 22
3, 40847, Note_on_c, 0, 65, 0
3, 40907, Note_on_c, 0, 84, 0
3, 40920, Note_on_c, 0, 72, 0
3, 40929, Note_on_c, 0, 56, 0
3, 41046, Note_on_c, 0, 62, 0
3, 41060, Note_on_c, 0, 82, 45
3, 41075, Note_on_c, 0, 70, 53
3, 41196, Control_c, 0, 64, 0
3, 41250, Note_on_c, 0, 70, 0
3, 41253, Note_on_c, 0, 82, 0
3, 41294, Note_on_c, 0, 62, 24
3, 41301, Note_on_c, 0, 66, 45
3, 41319, Note_on_c, 0, 56, 44
3, 41381, Note_on_c, 0, 84, 57
3, 41391, Note_on_c, 0, 72, 45
3, 41513, Control_c, 0, 64, 127
3, 41526, Note_on_c, 0, 84, 0
3, 41599, Note_on_c, 0, 72, 0
3, 41666, Note_on_c, 0, 62, 0
3, 41692, Note_on_c, 0, 84, 61
3, 41699, Note_on_c, 0, 66, 0
3, 41712, Note_on_c, 0, 72, 46
3, 41793, Note_on_c, 0, 84, 0
3, 41814, Note_on_c, 0, 72, 0
3, 41926, Note_on_c, 0, 56, 0
3, 41980, Note_on_c, 0, 82, 50
3, 41991, Note_on_c, 0, 70, 51
3, 42071, Control_c, 0, 64, 0
3, 42140, Note_on_c, 0, 70, 0
3, 42148, Note_on_c, 0, 82, 0
3, 42227, Note_on_c, 0, 61, 35
3, 42238, Note_on_c, 0, 55, 30
3, 42279, Note_on_c, 0, 84, 57
3, 42293, Note_on_c, 0, 72, 51
3, 42310, Control_c, 0, 64, 127
3, 42314, Note_on_c, 0, 77, 36
3, 42342, Note_on_c, 0, 61, 0
3, 42404, Note_on_c, 0, 55, 0
3, 42434, Note_on_c, 0, 72, 0
3, 42449, Note_on_c, 0, 84, 0
3, 42459, Note_on_c, 0, 77, 0
3, 42896, Note_on_c, 0, 27, 38
3, 42939, Note_on_c, 0, 27, 0
3, 43223, Control_c, 0, 64, 0
3, 43262, Note_on_c, 0, 64, 46
3, 43263, Note_on_c, 0, 70, 47
3, 43267, Note_on_c, 0, 61, 40
3, 43275, Note_on_c, 0, 67, 46
3, 43286, Note_on_c, 0, 51, 38
3, 43389, Control_c, 0, 64, 127
3, 43554, Note_on_c, 0, 51, 0
3, 43620, Note_on_c, 0, 67, 0
3, 43647, Note_on_c, 0, 64, 0
3, 43654, Note_on_c, 0, 70, 0
3, 43720, Note_on_c, 0, 61, 0
3, 44165, Note_on_c, 0, 61, 35
3, 44166, Note_on_c, 0, 64, 34
3, 44172, Note_on_c, 0, 55, 27
3, 44174, Control_c, 0, 64, 0
3, 44180, Note_on_c, 0, 59, 37
3, 44210, Note_on_c, 0, 52, 32
3, 44464, Control_c, 0, 64, 127
3, 44706, Note_on_c, 0, 59, 0
3, 44711, Note_on_c, 0, 55, 0
3, 44750, Note_on_c, 0, 61, 0
3, 45036, Control_c, 0, 64, 0
3, 45040, Note_on_c, 0, 64, 0
3, 45117, Note_on_c, 0, 61, 35
3, 45137, Note_on_c, 0, 45, 35
3, 45139, Note_on_c, 0, 55, 38
3, 45159, Note_on_c, 0, 59, 39
3, 45250, Control_c, 0, 64, 127
3, 45398, Note_on_c, 0, 52, 0
3, 45551, Note_on_c, 0, 45, 0
3, 45553, Note_on_c, 0, 59, 0
3, 45678, Note_on_c, 0, 55, 0
3, 45797, Note_on_c, 0, 61, 0
3, 46012, Control_c, 0, 64, 0
3, 46121, Note_on_c, 0, 63, 32
3, 46124, Note_on_c, 0, 55, 32
3, 46135, Note_on_c, 0, 51, 26
3, 46135, Note_on_c, 0, 44, 29
3, 46136, Note_on_c, 0, 58, 37
3, 46142, Note_on_c, 0, 60, 20
3, 46243, Control_c, 0, 64, 127
3, 46259, Note_on_c, 0, 55, 0
3, 46347, Note_on_c, 0, 60, 0
3, 46361, Note_on_c, 0, 44, 0
3, 46384, Note_on_c, 0, 58, 0
3, 46385, Note_on_c, 0, 63, 0
3, 46387, Note_on_c, 0, 51, 0
3, 47067, Control_c, 0, 64, 0
3, 47101, Note_on_c, 0, 65, 64
3, 47112, Note_on_c, 0, 60, 31
3, 47116, Note_on_c, 0, 80, 74
3, 47116, Note_on_c, 0, 54, 38
3, 47128, Note_on_c, 0, 58, 49
3, 47129, Note_on_c, 0, 68, 75
3, 47162, Note_on_c, 0, 75, 38
3, 47205, Note_on_c, 0, 75, 0
3, 47222, Note_on_c, 0, 68, 0
3, 47266, Note_on_c, 0, 80, 0
3, 47428, Note_on_c, 0, 80, 59
3, 47578, Note_on_c, 0, 80, 0
3, 47593, Note_on_c, 0, 65, 0
3, 47641, Note_on_c, 0, 60, 0
3, 47744, Note_on_c, 0, 58, 0
3, 47759, Note_on_c, 0, 77, 44
3, 47810, Note_on_c, 0, 77, 0
3, 48041, Note_on_c, 0, 65, 55
3, 48044, Note_on_c, 0, 60, 33
3, 48048, Note_on_c, 0, 80, 72
3, 48053, Note_on_c, 0, 68, 76
3, 48132, Control_c, 0, 64, 127
3, 48251, Note_on_c, 0, 68, 0
3, 48255, Note_on_c, 0, 80, 0
3, 48364, Note_on_c, 0, 82, 62
3, 48382, Note_on_c, 0, 70, 33
3, 48423, Note_on_c, 0, 65, 0
3, 48527, Note_on_c, 0, 82, 0
3, 48531, Note_on_c, 0, 70, 0
3, 48553, Note_on_c, 0, 60, 0
3, 48661, Note_on_c, 0, 80, 52
3, 48669, Note_on_c, 0, 68, 45
3, 48891, Control_c, 0, 64, 0
3, 49002, Note_on_c, 0, 65, 45
3, 49013, Note_on_c, 0, 60, 32
3, 49093, Control_c, 0, 64, 127
3, 49293, Note_on_c, 0, 54, 0
3, 49628, Note_on_c, 0, 65, 0
3, 49631, Note_on_c, 0, 39, 46
3, 49729, Note_on_c, 0, 60, 0
3, 49800, Note_on_c, 0, 39, 0
3, 49918, Control_c, 0, 64, 0
3, 49962, Note_on_c, 0, 53, 41
3, 49966, Note_on_c, 0, 63, 39
3, 49988, Note_on_c, 0, 59, 34
3, 50002, Note_on_c, 0, 56, 34
3, 50343, Note_on_c, 0, 68, 0
3, 50444, Note_on_c, 0, 80, 0
3, 50451, Note_on_c, 0, 63, 0
3, 50575, Note_on_c, 0, 77, 42
3, 50603, Control_c, 0, 64, 127
3, 50655, Note_on_c, 0, 59, 0
3, 50659, Note_on_c, 0, 77, 0
3, 50842, Control_c, 0, 64, 0
3, 50899, Note_on_c, 0, 80, 83
3, 50904, Note_on_c, 0, 68, 86
3, 50909, Note_on_c, 0, 63, 62
3, 50920, Note_on_c, 0, 59, 44
3, 51058, Note_on_c, 0, 68, 0
3, 51090, Note_on_c, 0, 80, 0
3, 51197, Note_on_c, 0, 80, 40
3, 51210, Note_on_c, 0, 68, 60
3, 51299, Note_on_c, 0, 68, 0
3, 51326, Note_on_c, 0, 80, 0
3, 51335, Note_on_c, 0, 63, 0
3, 51354, Note_on_c, 0, 59, 0
3, 51440, Control_c, 0, 64, 127
3, 51510, Note_on_c, 0, 78, 33
3, 51511, Note_on_c, 0, 65, 50
3, 51557, Note_on_c, 0, 78, 0
3, 51569, Note_on_c, 0, 65, 0
3, 51805, Control_c, 0, 64, 0
3, 51834, Note_on_c, 0, 68, 76
3, 51835, Note_on_c, 0, 80, 69
3, 51857, Note_on_c, 0, 63, 48
3, 51878, Note_on_c, 0, 59, 40
3, 52002, Note_on_c, 0, 68, 0
3, 52010, Note_on_c, 0, 80, 0
3, 52098, Control_c, 0, 64, 127
3, 52139, Note_on_c, 0, 82, 60
3, 52167, Note_on_c, 0, 70, 32
3, 52193, Note_on_c, 0, 63, 0
3, 52259, Note_on_c, 0, 70, 0
3, 52264, Note_on_c, 0, 82, 0
3, 52338, Note_on_c, 0, 59, 0
3, 52390, Note_on_c, 0, 53, 0
3, 52447, Note_on_c, 0, 80, 62
3, 52465, Note_on_c, 0, 56, 0
3, 52468, Note_on_c, 0, 68, 52
3, 52731, Control_c, 0, 64, 0
3, 52789, Note_on_c, 0, 48, 50
3, 52829, Note_on_c, 0, 52, 48
3, 52830, Note_on_c, 0, 63, 50
3, 52841, Note_on_c, 0, 58, 48
3, 52908, Control_c, 0, 64, 127
3, 52962, Note_on_c, 0, 63, 0
3, 53021, Note_on_c, 0, 80, 0
3, 53030, Note_on_c, 0, 52, 0
3, 53035, Note_on_c, 0, 58, 0
3, 53090, Note_on_c, 0, 68, 0
3, 53502, Note_on_c, 0, 45, 39
3, 53509, Note_on_c, 0, 48, 0
3, 53707, Note_on_c, 0, 45, 0
3, 53830, Note_on_c, 0, 58, 63
3, 53841, Note_on_c, 0, 46, 51
3, 53844, Note_on_c, 0, 53, 57
3, 53848, Control_c, 0, 64, 0
3, 54113, Control_c, 0, 64, 127
3, 54473, Note_on_c, 0, 34, 64
3, 54511, Note_on_c, 0, 53, 0
3, 54653, Note_on_c, 0, 58, 0
3, 54698, Note_on_c, 0, 46, 0
3, 54716, Note_on_c, 0, 34, 0
3, 54771, Control_c, 0, 64, 0
3, 54819, Note_on_c, 0, 60, 54
3, 54823, Note_on_c, 0, 63, 72
3, 54826, Note_on_c, 0, 48, 71
3, 54830, Note_on_c, 0, 55, 74
3, 54831, Note_on_c, 0, 58, 71
3, 55038, Control_c, 0, 64, 127
3, 55465, Note_on_c, 0, 55, 0
3, 55477, Note_on_c, 0, 60, 0
3, 55532, Note_on_c, 0, 63, 0
3, 55575, Note_on_c, 0, 58, 0
3, 55735, Control_c, 0, 64, 0
3, 55800, Note_on_c, 0, 61, 58
3, 55812, Note_on_c, 0, 65, 49
3, 55813, Note_on_c, 0, 56, 55
3, 55832, Note_on_c, 0, 48, 0
3, 55835, Note_on_c, 0, 49, 47
3, 55976, Control_c, 0, 64, 127
3, 56308, Note_on_c, 0, 56, 0
3, 56379, Note_on_c, 0, 61, 0
3, 56438, Note_on_c, 0, 65, 0
3, 56673, Control_c, 0, 64, 0
3, 56726, Note_on_c, 0, 65, 45
3, 56727, Note_on_c, 0, 50, 48
3, 56729, Note_on_c, 0, 62, 48
3, 56743, Note_on_c, 0, 59, 43
3, 56754, Note_on_c, 0, 56, 28
3, 56769, Note_on_c, 0, 49, 0
3, 56925, Control_c, 0, 64, 127
3, 57116, Note_on_c, 0, 56, 0
3, 57117, Note_on_c, 0, 59, 0
3, 57136, Note_on_c, 0, 62, 0
3, 57154, Note_on_c, 0, 65, 0
3, 57610, Control_c, 0, 64, 0
3, 57656, Note_on_c, 0, 68, 36
3, 57660, Note_on_c, 0, 61, 46
3, 57672, Note_on_c, 0, 65, 46
3, 57683, Note_on_c, 0, 50, 0
3, 57687, Note_on_c, 0, 56, 23
3, 57690, Note_on_c, 0, 51, 42
3, 57926, Control_c, 0, 64, 127
3, 58044, Note_on_c, 0, 51, 0
3, 58154, Note_on_c, 0, 51, 23
3, 58313, Note_on_c, 0, 65, 0
3, 58349, Note_on_c, 0, 61, 0
3, 58378, Note_on_c, 0, 56, 0
3, 58534, Note_on_c, 0, 68, 0
3, 58561, Control_c, 0, 64, 0
3, 58567, Note_on_c, 0, 39, 38
3, 58575, Note_on_c, 0, 56, 38
3, 58586, Note_on_c, 0, 65, 39
3, 58591, Note_on_c, 0, 61, 38
3, 58725, Control_c, 0, 64, 127
3, 58824, Note_on_c, 0, 65, 0
3, 58918, Note_on_c, 0, 56, 0
3, 58959, Note_on_c, 0, 51, 0
3, 58960, Note_on_c, 0, 61, 0
3, 59249, Note_on_c, 0, 55, 80
3, 59250, Note_on_c, 0, 51, 68
3, 59254, Note_on_c, 0, 64, 72
3, 59257, Note_on_c, 0, 61, 77
3, 59263, Note_on_c, 0, 59, 78
3, 59345, Control_c, 0, 64, 0
3, 59839, Control_c, 0, 64, 127
3, 60097, Note_on_c, 0, 39, 0
3, 60216, Note_on_c, 0, 39, 81
3, 60259, Control_c, 0, 64, 0
3, 60391, Note_on_c, 0, 55, 0
3, 60473, Control_c, 0, 64, 127
3, 60588, Note_on_c, 0, 55, 26
3, 60980, Note_on_c, 0, 39, 0
3, 61117, Note_on_c, 0, 51, 0
3, 61162, Note_on_c, 0, 39, 83
3, 61212, Note_on_c, 0, 64, 0
3, 61267, Note_on_c, 0, 59, 0
3, 61398, Control_c, 0, 64, 0
3, 61499, Note_on_c, 0, 61, 0
3, 61526, Control_c, 0, 64, 127
3, 61568, Note_on_c, 0, 55, 0
3, 62016, Note_on_c, 0, 39, 0
3, 62046, Control_c, 0, 64, 0
3, 62099, Note_on_c, 0, 46, 70
3, 62109, Note_on_c, 0, 60, 54
3, 62110, Note_on_c, 0, 39, 53
3, 62115, Note_on_c, 0, 51, 74
3, 62117, Note_on_c, 0, 56, 77
3, 62185, Control_c, 0, 64, 127
3, 62275, Note_on_c, 0, 60, 0
3, 62297, Note_on_c, 0, 51, 0
3, 62346, Note_on_c, 0, 56, 0
3, 62387, Control_c, 0, 64, 0
3, 62515, Note_on_c, 0, 46, 0
3, 62603, Control_c, 0, 64, 127
3, 62742, Control_c, 0, 64, 0
3, 62754, Note_on_c, 0, 63, 77
3, 62758, Note_on_c, 0, 54, 77
3, 62758, Note_on_c, 0, 59, 76
3, 62785, Note_on_c, 0, 49, 73
3, 63009, Control_c, 0, 64, 127
3, 63072, Note_on_c, 0, 54, 0
3, 63092, Note_on_c, 0, 59, 0
3, 63149, Note_on_c, 0, 63, 0
3, 63180, Note_on_c, 0, 49, 0
3, 63312, Control_c, 0, 64, 0
3, 63347, Note_on_c, 0, 51, 72
3, 63348, Note_on_c, 0, 65, 72
3, 63359, Note_on_c, 0, 61, 75
3, 63360, Note_on_c, 0, 56, 73
3, 63541, Control_c, 0, 64, 127
3, 63706, Note_on_c, 0, 65, 0
3, 63716, Note_on_c, 0, 56, 0
3, 63746, Note_on_c, 0, 61, 0
3, 63772, Note_on_c, 0, 39, 0
3, 63848, Note_on_c, 0, 51, 0
3, 64935, Control_c, 0, 64, 0
3, 65023, Note_on_c, 0, 68, 56
3, 65024, Note_on_c, 0, 54, 40
3, 65024, Note_on_c, 0, 64, 45
3, 65028, Note_on_c, 0, 59, 51
3, 65125, Control_c, 0, 64, 127
3, 65152, Note_on_c, 0, 59, 0
3, 65181, Note_on_c, 0, 64, 0
3, 65222, Note_on_c, 0, 68, 0
3, 65728, Note_on_c, 0, 54, 0
3, 65783, Control_c, 0, 64, 0
3, 65811, Note_on_c, 0, 58, 72
3, 65813, Note_on_c, 0, 63, 55
3, 65813, Note_on_c, 0, 72, 62
3, 65816, Note_on_c, 0, 68, 64
3, 66038, Control_c, 0, 64, 127
3, 66076, Note_on_c, 0, 63, 0
3, 66108, Note_on_c, 0, 72, 0
3, 66125, Note_on_c, 0, 68, 0
3, 66340, Control_c, 0, 64, 0
3, 66373, Note_on_c, 0, 58, 0
3, 66376, Note_on_c, 0, 75, 72
3, 66390, Note_on_c, 0, 66, 68
3, 66391, Note_on_c, 0, 60, 49
3, 66400, Note_on_c, 0, 71, 71
3, 66597, Control_c, 0, 64, 127
3, 66622, Note_on_c, 0, 71, 0
3, 66632, Note_on_c, 0, 75, 0
3, 66663, Note_on_c, 0, 66, 0
3, 66752, Note_on_c, 0, 60, 0
3, 66927, Control_c, 0, 64, 0
3, 66960, Note_on_c, 0, 68, 60
3, 66963, Note_on_c, 0, 72, 58
3, 66973, Note_on_c, 0, 63, 50
3, 66975, Note_on_c, 0, 58, 49
3, 67232, Control_c, 0, 64, 127
3, 67834, Note_on_c, 0, 63, 0
3, 67905, Note_on_c, 0, 68, 0
3, 67912, Note_on_c, 0, 58, 0
3, 68082, Note_on_c, 0, 72, 0
3, 68132, Control_c, 0, 64, 0
3, 68149, Note_on_c, 0, 56, 50
3, 68190, Note_on_c, 0, 71, 24
3, 68205, Note_on_c, 0, 62, 58
3, 68222, Note_on_c, 0, 67, 62
3, 68525, Control_c, 0, 64, 127
3, 68688, Note_on_c, 0, 62, 0
3, 68744, Note_on_c, 0, 67, 0
3, 68831, Note_on_c, 0, 51, 37
3, 68919, Note_on_c, 0, 71, 0
3, 68930, Note_on_c, 0, 51, 0
3, 69070, Control_c, 0, 64, 0
3, 69109, Note_on_c, 0, 56, 0
3, 69132, Note_on_c, 0, 44, 48
3, 69147, Note_on_c, 0, 72, 43
3, 69151, Note_on_c, 0, 60, 28
3, 69153, Note_on_c, 0, 67, 43
3, 69312, Note_on_c, 0, 67, 0
3, 69323, Note_on_c, 0, 72, 0
3, 69448, Note_on_c, 0, 60, 0
3, 69584, Note_on_c, 0, 63, 62
3, 69780, Note_on_c, 0, 63, 0
3, 69851, Note_on_c, 0, 65, 50
3, 69919, Note_on_c, 0, 63, 37
3, 69979, Note_on_c, 0, 65, 0
3, 70027, Note_on_c, 0, 62, 54
3, 70099, Note_on_c, 0, 63, 0
3, 70283, Note_on_c, 0, 44, 0
3, 70300, Note_on_c, 0, 62, 0
3, 70344, Note_on_c, 0, 63, 56
3, 70374, Control_c, 0, 64, 127
3, 70501, Note_on_c, 0, 63, 0
3, 70591, Note_on_c, 0, 64, 57
3, 70731, Note_on_c, 0, 64, 0
3, 70831, Control_c, 0, 64, 0
3, 70898, Note_on_c, 0, 64, 24
3, 70912, Note_on_c, 0, 50, 33
3, 70915, Note_on_c, 0, 54, 44
3, 70917, Note_on_c, 0, 68, 42
3, 71135, Control_c, 0, 64, 127
3, 71494, Note_on_c, 0, 64, 0
3, 71597, Note_on_c, 0, 59, 39
3, 71949, Note_on_c, 0, 57, 34
3, 72010, Note_on_c, 0, 50, 0
3, 72028, Note_on_c, 0, 57, 0
3, 72383, Note_on_c, 0, 59, 0
3, 72581, Note_on_c, 0, 50, 27
3, 72682, Note_on_c, 0, 54, 0
3, 72704, Note_on_c, 0, 50, 0
3, 72832, Control_c, 0, 64, 0
3, 72896, Note_on_c, 0, 60, 32
3, 72897, Note_on_c, 0, 65, 35
3, 72939, Note_on_c, 0, 49, 25
3, 73049, Control_c, 0, 64, 127
3, 73224, Note_on_c, 0, 49, 0
3, 73783, Control_c, 0, 64, 0
3, 73864, Note_on_c, 0, 37, 39
3, 73955, Note_on_c, 0, 65, 0
3, 74063, Control_c, 0, 64, 127
3, 74422, Note_on_c, 0, 60, 0
3, 74500, Note_on_c, 0, 31, 36
3, 74514, Note_on_c, 0, 37, 0
3, 74610, Note_on_c, 0, 68, 0
3, 74626, Note_on_c, 0, 31, 0
3, 74784, Control_c, 0, 64, 0
3, 74852, Note_on_c, 0, 68, 35
3, 74865, Note_on_c, 0, 64, 35
3, 74883, Note_on_c, 0, 42, 34
3, 74889, Note_on_c, 0, 58, 23
3, 74893, Note_on_c, 0, 30, 34
3, 75064, Control_c, 0, 64, 127
3, 75114, Note_on_c, 0, 30, 0
3, 75191, Note_on_c, 0, 42, 0
3, 75266, Note_on_c, 0, 64, 0
3, 75326, Note_on_c, 0, 58, 0
3, 75785, Control_c, 0, 64, 0
3, 75825, Note_on_c, 0, 58, 40
3, 75834, Note_on_c, 0, 64, 29
3, 75913, Control_c, 0, 64, 127
3, 76560, Note_on_c, 0, 64, 0
3, 76591, Note_on_c, 0, 58, 0
3, 76736, Control_c, 0, 64, 0
3, 76779, Note_on_c, 0, 44, 33
3, 76811, Note_on_c, 0, 51, 25
3, 76894, Note_on_c, 0, 68, 0
3, 77723, Note_on_c, 0, 60, 35
3, 77743, Note_on_c, 0, 56, 36
3, 77843, Note_on_c, 0, 60, 0
3, 78054, Note_on_c, 0, 56, 0
3, 78061, Note_on_c, 0, 63, 33
3, 78123, Note_on_c, 0, 63, 0
3, 78343, Note_on_c, 0, 68, 68
3, 78533, Note_on_c, 0, 68, 0
3, 78560, Note_on_c, 0, 51, 0
3, 78680, Note_on_c, 0, 55, 54
3, 78686, Note_on_c, 0, 69, 74
3, 78733, Note_on_c, 0, 55, 0
3, 78769, Note_on_c, 0, 44, 0
3, 78991, Note_on_c, 0, 69, 0
3, 79000, Note_on_c, 0, 64, 40
3, 79212, Note_on_c, 0, 64, 0
3, 79220, Control_c, 0, 64, 127
3, 79301, Note_on_c, 0, 61, 48
3, 79461, Note_on_c, 0, 61, 0
3, 79537, Control_c, 0, 64, 0
3, 79606, Note_on_c, 0, 37, 38
3, 79634, Note_on_c, 0, 62, 36
3, 79790, Note_on_c, 0, 62, 0
3, 79873, Note_on_c, 0, 37, 0
3, 79979, Note_on_c, 0, 65, 27
3, 80082, Control_c, 0, 64, 127
3, 80129, Note_on_c, 0, 65, 0
3, 80223, Note_on_c, 0, 71, 55
3, 80393, Note_on_c, 0, 71, 0
3, 80475, Control_c, 0, 64, 0
3, 80541, Note_on_c, 0, 72, 55
3, 80550, Note_on_c, 0, 48, 32
3, 80577, Note_on_c, 0, 58, 35
3, 80679, Note_on_c, 0, 72, 0
3, 80775, Note_on_c, 0, 48, 0
3, 80839, Note_on_c, 0, 58, 0
3, 80967, Note_on_c, 0, 61, 47
3, 81117, Note_on_c, 0, 61, 0
3, 81118, Note_on_c, 0, 63, 55
3, 81187, Note_on_c, 0, 63, 0
3, 81217, Note_on_c, 0, 64, 55
3, 81336, Note_on_c, 0, 64, 0
3, 81371, Note_on_c, 0, 65, 37
3, 81443, Note_on_c, 0, 66, 52
3, 81444, Note_on_c, 0, 65, 0
3, 81503, Note_on_c, 0, 58, 34
3, 81533, Note_on_c, 0, 60, 20
3, 81549, Note_on_c, 0, 66, 0
3, 81581, Note_on_c, 0, 67, 53
3, 81666, Note_on_c, 0, 60, 0
3, 81671, Note_on_c, 0, 67, 0
3, 81758, Note_on_c, 0, 58, 0
3, 81835, Note_on_c, 0, 69, 52
3, 81892, Note_on_c, 0, 69, 0
3, 81921, Note_on_c, 0, 70, 32
3, 82056, Note_on_c, 0, 70, 0
3, 82137, Note_on_c, 0, 72, 58
3, 82275, Note_on_c, 0, 72, 0
3, 82279, Note_on_c, 0, 74, 69
3, 82424, Note_on_c, 0, 74, 0
3, 82500, Note_on_c, 0, 72, 72
3, 82504, Note_on_c, 0, 62, 43
3, 82514, Note_on_c, 0, 67, 46
3, 82520, Note_on_c, 0, 63, 46
3, 82589, Note_on_c, 0, 67, 0
3, 82637, Note_on_c, 0, 72, 0
3, 82643, Note_on_c, 0, 63, 0
3, 82652, Note_on_c, 0, 62, 0
3, 82744, Note_on_c, 0, 69, 67
3, 82873, Note_on_c, 0, 69, 0
3, 82954, Note_on_c, 0, 66, 62
3, 83160, Note_on_c, 0, 66, 0
3, 83212, Note_on_c, 0, 65, 54
3, 83353, Note_on_c, 0, 65, 0
3, 83440, Note_on_c, 0, 41, 32
3, 83457, Note_on_c, 0, 53, 34
3, 83461, Note_on_c, 0, 63, 56
3, 83490, Note_on_c, 0, 48, 28
3, 83586, Note_on_c, 0, 53, 0
3, 83674, Note_on_c, 0, 63, 0
3, 83735, Note_on_c, 0, 60, 25
3, 83883, Note_on_c, 0, 48, 0
3, 83892, Note_on_c, 0, 60, 0
3, 83924, Note_on_c, 0, 41, 0
3, 83972, Control_c, 0, 64, 127
3, 83973, Note_on_c, 0, 61, 56
3, 84100, Note_on_c, 0, 61, 0
3, 84231, Note_on_c, 0, 62, 53
3, 84338, Control_c, 0, 64, 0
3, 84400, Note_on_c, 0, 62, 0
3, 84479, Note_on_c, 0, 63, 58
3, 84491, Note_on_c, 0, 56, 39
3, 84496, Note_on_c, 0, 46, 33
3, 84501, Note_on_c, 0, 53, 36
3, 84618, Control_c, 0, 64, 127
3, 84660, Note_on_c, 0, 53, 0
3, 84746, Note_on_c, 0, 46, 0
3, 84769, Note_on_c, 0, 56, 0
3, 84807, Note_on_c, 0, 63, 0
3, 85430, Control_c, 0, 64, 0
3, 85462, Note_on_c, 0, 56, 67
3, 85473, Note_on_c, 0, 65, 66
3, 85484, Note_on_c, 0, 87, 76
3, 85490, Note_on_c, 0, 60, 32
3, 85495, Note_on_c, 0, 61, 26
3, 85498, Note_on_c, 0, 75, 73
3, 85576, Note_on_c, 0, 65, 0
3, 85748, Note_on_c, 0, 87, 0
3, 85750, Note_on_c, 0, 75, 0
3, 86100, Control_c, 0, 64, 127
3, 86117, Note_on_c, 0, 85, 59
3, 86136, Note_on_c, 0, 73, 39
3, 86145, Note_on_c, 0, 56, 0
3, 86153, Note_on_c, 0, 60, 0
3, 86183, Note_on_c, 0, 61, 0
3, 86278, Note_on_c, 0, 85, 0
3, 86303, Control_c, 0, 64, 0
3, 86308, Note_on_c, 0, 73, 0
3, 86437, Note_on_c, 0, 62, 53
3, 86449, Note_on_c, 0, 82, 35
3, 86450, Note_on_c, 0, 66, 47
3, 86459, Note_on_c, 0, 70, 32
3, 86462, Note_on_c, 0, 56, 47
3, 86482, Control_c, 0, 64, 127
3, 87009, Note_on_c, 0, 62, 0
3, 87069, Note_on_c, 0, 66, 0
3, 87105, Note_on_c, 0, 70, 0
3, 87308, Note_on_c, 0, 82, 0
3, 87394, Control_c, 0, 64, 0
3, 87399, Note_on_c, 0, 70, 45
3, 87400, Note_on_c, 0, 62, 36
3, 87412, Note_on_c, 0, 66, 46
3, 87417, Note_on_c, 0, 78, 39
3, 87608, Control_c, 0, 64, 127
3, 87794, Note_on_c, 0, 62, 0
3, 87885, Note_on_c, 0, 66, 0
3, 88055, Note_on_c, 0, 56, 0
3, 88056, Note_on_c, 0, 78, 0
3, 88098, Note_on_c, 0, 70, 0
3, 88244, Control_c, 0, 64, 0
3, 88379, Note_on_c, 0, 61, 47
3, 88383, Note_on_c, 0, 55, 43
3, 88389, Note_on_c, 0, 65, 30
3, 88470, Note_on_c, 0, 65, 0
3, 88496, Control_c, 0, 64, 127
3, 88516, Note_on_c, 0, 61, 0
3, 88556, Note_on_c, 0, 55, 0
3, 89361, Note_on_c, 0, 27, 51
3, 89371, Control_c, 0, 64, 0
3, 89497, Control_c, 0, 64, 127
3, 89498, Note_on_c, 0, 27, 0
3, 90352, Note_on_c, 0, 70, 55
3, 90359, Control_c, 0, 64, 0
3, 90361, Note_on_c, 0, 63, 58
3, 90361, Note_on_c, 0, 58, 71
3, 90363, Note_on_c, 0, 59, 74
3, 90366, Note_on_c, 0, 67, 54
3, 90565, Note_on_c, 0, 58, 0
3, 90610, Note_on_c, 0, 57, 50
3, 90620, Note_on_c, 0, 67, 0
3, 90673, Note_on_c, 0, 63, 0
3, 90682, Note_on_c, 0, 57, 0
3, 90697, Note_on_c, 0, 59, 0
3, 90702, Note_on_c, 0, 56, 52
3, 90768, Note_on_c, 0, 70, 0
3, 90888, Note_on_c, 0, 67, 46
3, 90894, Note_on_c, 0, 59, 43
3, 90896, Note_on_c, 0, 56, 0
3, 90898, Note_on_c, 0, 63, 39
3, 90920, Note_on_c, 0, 55, 61
3, 91235, Note_on_c, 0, 63, 0
3, 91268, Note_on_c, 0, 59, 0
3, 91316, Note_on_c, 0, 49, 44
3, 91375, Note_on_c, 0, 55, 0
3, 91388, Control_c, 0, 64, 127
3, 91500, Note_on_c, 0, 49, 0
3, 91582, Note_on_c, 0, 67, 0
3, 91611, Note_on_c, 0, 63, 56
3, 91730, Note_on_c, 0, 63, 0
3, 91887, Note_on_c, 0, 37, 60
3, 92124, Control_c, 0, 64, 0
3, 92167, Note_on_c, 0, 37, 0
3, 92212, Note_on_c, 0, 52, 57
3, 92252, Note_on_c, 0, 36, 61
3, 92357, Note_on_c, 0, 52, 0
3, 92364, Control_c, 0, 64, 127
3, 92384, Note_on_c, 0, 36, 0
3, 93150, Control_c, 0, 64, 0
3, 93182, Note_on_c, 0, 64, 54
3, 93198, Note_on_c, 0, 60, 36
3, 93203, Note_on_c, 0, 58, 46
3, 93227, Note_on_c, 0, 64, 0
3, 93249, Note_on_c, 0, 71, 77
3, 93281, Note_on_c, 0, 60, 0
3, 93340, Note_on_c, 0, 58, 0
3, 93774, Note_on_c, 0, 71, 0
3, 93832, Note_on_c, 0, 72, 87
3, 94095, Note_on_c, 0, 72, 0
3, 94101, Note_on_c, 0, 48, 48
3, 94186, Note_on_c, 0, 72, 70
3, 94290, Control_c, 0, 64, 127
3, 94318, Note_on_c, 0, 48, 0
3, 94341, Control_c, 0, 64, 0
3, 94662, Note_on_c, 0, 72, 0
3, 94759, Control_c, 0, 64, 127
3, 94780, Note_on_c, 0, 73, 60
3, 95014, Control_c, 0, 64, 0
3, 95065, Note_on_c, 0, 52, 44
3, 95068, Note_on_c, 0, 73, 0
3, 95103, Note_on_c, 0, 58, 40
3, 95105, Note_on_c, 0, 63, 27
3, 95113, Note_on_c, 0, 71, 44
3, 95279, Control_c, 0, 64, 127
3, 95366, Note_on_c, 0, 52, 0
3, 95400, Note_on_c, 0, 58, 0
3, 95419, Note_on_c, 0, 63, 0
3, 95677, Note_on_c, 0, 71, 0
3, 95726, Note_on_c, 0, 72, 76
3, 96036, Note_on_c, 0, 62, 32
3, 96040, Control_c, 0, 64, 0
3, 96043, Note_on_c, 0, 67, 42
3, 96058, Note_on_c, 0, 63, 39
3, 96106, Note_on_c, 0, 57, 17
3, 96743, Note_on_c, 0, 63, 0
3, 96744, Note_on_c, 0, 67, 0
3, 97007, Note_on_c, 0, 63, 51
3, 97009, Note_on_c, 0, 74, 77
3, 97012, Note_on_c, 0, 67, 34
3, 97071, Note_on_c, 0, 72, 0
3, 97103, Note_on_c, 0, 67, 0
3, 97194, Note_on_c, 0, 63, 0
3, 97496, Note_on_c, 0, 62, 0
3, 97569, Note_on_c, 0, 57, 0
3, 97595, Note_on_c, 0, 74, 0
3, 97669, Note_on_c, 0, 73, 77
3, 98003, Note_on_c, 0, 60, 35
3, 98019, Note_on_c, 0, 63, 32
3, 98038, Note_on_c, 0, 53, 35
3, 98058, Note_on_c, 0, 72, 71
3, 98065, Note_on_c, 0, 63, 0
3, 98070, Note_on_c, 0, 73, 0
3, 98114, Note_on_c, 0, 60, 0
3, 98189, Note_on_c, 0, 53, 0
3, 98661, Note_on_c, 0, 65, 42
3, 98982, Note_on_c, 0, 41, 50
3, 99018, Control_c, 0, 64, 127
3, 99034, Note_on_c, 0, 65, 0
3, 99116, Note_on_c, 0, 41, 0
3, 99314, Note_on_c, 0, 72, 0
3, 99891, Control_c, 0, 64, 0
3, 100004, Note_on_c, 0, 67, 85
3, 100005, Note_on_c, 0, 56, 80
3, 100006, Note_on_c, 0, 62, 72
3, 100009, Note_on_c, 0, 85, 83
3, 100010, Note_on_c, 0, 73, 85
3, 100200, Note_on_c, 0, 67, 0
3, 100236, Note_on_c, 0, 56, 0
3, 100255, Note_on_c, 0, 62, 0
3, 100287, Note_on_c, 0, 85, 0
3, 100305, Note_on_c, 0, 73, 0
3, 100320, Note_on_c, 0, 86, 51
3, 100323, Note_on_c, 0, 74, 55
3, 100333, Note_on_c, 0, 82, 34
3, 100351, Note_on_c, 0, 79, 36
3, 100399, Note_on_c, 0, 79, 0
3, 100425, Note_on_c, 0, 74, 0
3, 100435, Note_on_c, 0, 86, 0
3, 100446, Note_on_c, 0, 82, 0
3, 100553, Note_on_c, 0, 86, 58
3, 100559, Note_on_c, 0, 74, 50
3, 100568, Note_on_c, 0, 82, 29
3, 100670, Note_on_c, 0, 86, 0
3, 100683, Note_on_c, 0, 82, 0
3, 100699, Note_on_c, 0, 74, 0
3, 100789, Note_on_c, 0, 86, 42
3, 100824, Note_on_c, 0, 82, 25
3, 100830, Note_on_c, 0, 79, 48
3, 100837, Note_on_c, 0, 86, 0
3, 100883, Note_on_c, 0, 79, 0
3, 100912, Note_on_c, 0, 82, 0
3, 100969, Note_on_c, 0, 73, 46
3, 100975, Note_on_c, 0, 85, 40
3, 100981, Note_on_c, 0, 56, 56
3, 100982, Note_on_c, 0, 67, 57
3, 100985, Note_on_c, 0, 62, 53
3, 101060, Note_on_c, 0, 67, 0
3, 101141, Note_on_c, 0, 85, 0
3, 101142, Note_on_c, 0, 73, 0
3, 101145, Note_on_c, 0, 56, 0
3, 101155, Note_on_c, 0, 62, 0
3, 101227, Note_on_c, 0, 86, 31
3, 101231, Note_on_c, 0, 82, 27
3, 101239, Note_on_c, 0, 74, 31
3, 101252, Note_on_c, 0, 79, 22
3, 101306, Note_on_c, 0, 86, 0
3, 101312, Note_on_c, 0, 79, 0
3, 101328, Note_on_c, 0, 74, 0
3, 101341, Note_on_c, 0, 82, 0
3, 101431, Note_on_c, 0, 86, 44
3, 101447, Note_on_c, 0, 74, 38
3, 101452, Note_on_c, 0, 82, 30
3, 101488, Note_on_c, 0, 79, 31
3, 101532, Note_on_c, 0, 86, 0
3, 101534, Note_on_c, 0, 79, 0
3, 101566, Note_on_c, 0, 82, 0
3, 101567, Note_on_c, 0, 74, 0
3, 101663, Note_on_c, 0, 86, 53
3, 101676, Note_on_c, 0, 74, 41
3, 101701, Note_on_c, 0, 82, 26
3, 101708, Note_on_c, 0, 79, 49
3, 101716, Note_on_c, 0, 86, 0
3, 101728, Note_on_c, 0, 74, 0
3, 101803, Note_on_c, 0, 79, 0
3, 101811, Note_on_c, 0, 82, 0
3, 101864, Note_on_c, 0, 73, 52
3, 101881, Note_on_c, 0, 62, 52
3, 101882, Note_on_c, 0, 66, 53
3, 101905, Note_on_c, 0, 56, 45
3, 102029, Note_on_c, 0, 73, 0
3, 102049, Note_on_c, 0, 66, 0
3, 102091, Note_on_c, 0, 56, 0
3, 102110, Note_on_c, 0, 86, 40
3, 102127, Note_on_c, 0, 82, 15
3, 102128, Note_on_c, 0, 79, 37
3, 102148, Note_on_c, 0, 74, 29
3, 102209, Note_on_c, 0, 74, 0
3, 102224, Note_on_c, 0, 79, 0
3, 102230, Note_on_c, 0, 86, 0
3, 102254, Note_on_c, 0, 82, 0
3, 102323, Note_on_c, 0, 86, 33
3, 102329, Note_on_c, 0, 74, 46
3, 102335, Note_on_c, 0, 62, 0
3, 102354, Note_on_c, 0, 82, 34
3, 102357, Note_on_c, 0, 79, 44
3, 102417, Note_on_c, 0, 79, 0
3, 102445, Note_on_c, 0, 74, 0
3, 102451, Note_on_c, 0, 86, 0
3, 102456, Note_on_c, 0, 82, 0
3, 102549, Note_on_c, 0, 86, 59
3, 102567, Note_on_c, 0, 74, 55
3, 102581, Note_on_c, 0, 82, 36
3, 102594, Note_on_c, 0, 79, 57
3, 102616, Note_on_c, 0, 84, 26
3, 102639, Note_on_c, 0, 74, 0
3, 102654, Note_on_c, 0, 86, 0
3, 102668, Note_on_c, 0, 84, 0
3, 102712, Note_on_c, 0, 79, 0
3, 102729, Note_on_c, 0, 82, 0
3, 102776, Note_on_c, 0, 73, 59
3, 102781, Note_on_c, 0, 66, 55
3, 102792, Note_on_c, 0, 62, 46
3, 102800, Note_on_c, 0, 56, 47
3, 102807, Note_on_c, 0, 79, 38
3, 102864, Note_on_c, 0, 79, 0
3, 102886, Note_on_c, 0, 73, 0
3, 102887, Control_c, 0, 64, 127
3, 103013, Note_on_c, 0, 86, 31
3, 103016, Note_on_c, 0, 74, 45
3, 103027, Note_on_c, 0, 82, 25
3, 103031, Note_on_c, 0, 79, 37
3, 103088, Note_on_c, 0, 86, 0
3, 103092, Note_on_c, 0, 79, 0
3, 103094, Note_on_c, 0, 62, 0
3, 103106, Note_on_c, 0, 74, 0
3, 103126, Note_on_c, 0, 82, 0
3, 103145, Note_on_c, 0, 66, 0
3, 103217, Note_on_c, 0, 86, 54
3, 103238, Note_on_c, 0, 82, 33
3, 103254, Note_on_c, 0, 74, 44
3, 103271, Note_on_c, 0, 79, 31
3, 103322, Note_on_c, 0, 74, 0
3, 103329, Note_on_c, 0, 79, 0
3, 103339, Note_on_c, 0, 86, 0
3, 103340, Note_on_c, 0, 56, 0
3, 103376, Note_on_c, 0, 82, 0
3, 103436, Note_on_c, 0, 86, 36
3, 103458, Note_on_c, 0, 82, 35
3, 103463, Note_on_c, 0, 74, 33
3, 103500, Control_c, 0, 64, 0
3, 103511, Note_on_c, 0, 74, 0
3, 103516, Note_on_c, 0, 86, 0
3, 103559, Note_on_c, 0, 82, 0
3, 103678, Note_on_c, 0, 75, 59
3, 103682, Note_on_c, 0, 87, 56
3, 103685, Note_on_c, 0, 66, 52
3, 103692, Note_on_c, 0, 80, 42
3, 103696, Note_on_c, 0, 61, 48
3, 103696, Note_on_c, 0, 55, 54
3, 103729, Control_c, 0, 64, 127
3, 103738, Note_on_c, 0, 84, 24
3, 103782, Note_on_c, 0, 66, 0
3, 103810, Note_on_c, 0, 84, 0
3, 103813, Note_on_c, 0, 80, 0
3, 103815, Note_on_c, 0, 75, 0
3, 103823, Note_on_c, 0, 61, 0
3, 103843, Note_on_c, 0, 55, 0
3, 103863, Note_on_c, 0, 87, 0
3, 104334, Note_on_c, 0, 39, 51
3, 104418, Note_on_c, 0, 39, 0
3, 104654, Control_c, 0, 64, 0
3, 104664, Note_on_c, 0, 75, 68
3, 104673, Note_on_c, 0, 68, 72
3, 104674, Note_on_c, 0, 64, 73
3, 104681, Note_on_c, 0, 70, 69
3, 104698, Note_on_c, 0, 63, 78
3, 104856, Control_c, 0, 64, 127
3, 105180, Note_on_c, 0, 63, 0
3, 105316, Note_on_c, 0, 70, 0
3, 105318, Note_on_c, 0, 64, 0
3, 105330, Note_on_c, 0, 68, 0
3, 105500, Note_on_c, 0, 75, 0
3, 105514, Control_c, 0, 64, 0
3, 105602, Note_on_c, 0, 61, 56
3, 105603, Note_on_c, 0, 73, 40
3, 105625, Note_on_c, 0, 68, 36
3, 105629, Note_on_c, 0, 70, 42
3, 105636, Note_on_c, 0, 64, 18
3, 105668, Control_c, 0, 64, 127
3, 105771, Note_on_c, 0, 61, 0
3, 105919, Note_on_c, 0, 73, 0
3, 105928, Note_on_c, 0, 70, 0
3, 105932, Note_on_c, 0, 68, 0
3, 105945, Note_on_c, 0, 64, 0
3, 106401, Control_c, 0, 64, 0
3, 106498, Note_on_c, 0, 61, 36
3, 106511, Note_on_c, 0, 64, 36
3, 106515, Note_on_c, 0, 45, 37
3, 106543, Note_on_c, 0, 55, 27
3, 106553, Control_c, 0, 64, 127
3, 106972, Note_on_c, 0, 64, 0
3, 107128, Note_on_c, 0, 61, 0
3, 107153, Note_on_c, 0, 55, 0
3, 107162, Note_on_c, 0, 45, 0
3, 107187, Note_on_c, 0, 51, 35
3, 107368, Note_on_c, 0, 51, 0
3, 107428, Control_c, 0, 64, 0
3, 107513, Note_on_c, 0, 44, 38
3, 107533, Note_on_c, 0, 63, 39
3, 107555, Note_on_c, 0, 60, 24
3, 107645, Control_c, 0, 64, 127
3, 107720, Note_on_c, 0, 60, 0
3, 107774, Note_on_c, 0, 63, 0
3, 108456, Control_c, 0, 64, 0
3, 108500, Note_on_c, 0, 60, 40
3, 108517, Note_on_c, 0, 53, 37
3, 108526, Note_on_c, 0, 51, 30
3, 108552, Note_on_c, 0, 56, 30
3, 108684, Control_c, 0, 64, 127
3, 108881, Note_on_c, 0, 53, 0
3, 108902, Note_on_c, 0, 51, 0
3, 108978, Note_on_c, 0, 44, 0
3, 109046, Note_on_c, 0, 60, 0
3, 109110, Note_on_c, 0, 56, 0
3, 109151, Note_on_c, 0, 63, 64
3, 109354, Note_on_c, 0, 63, 0
3, 109380, Control_c, 0, 64, 0
3, 109483, Note_on_c, 0, 65, 61
3, 109488, Note_on_c, 0, 61, 59
3, 109491, Note_on_c, 0, 56, 56
3, 109523, Note_on_c, 0, 49, 36
3, 109584, Control_c, 0, 64, 127
3, 109709, Note_on_c, 0, 56, 0
3, 109762, Note_on_c, 0, 65, 0
3, 109817, Note_on_c, 0, 61, 0
3, 110293, Control_c, 0, 64, 0
3, 110360, Note_on_c, 0, 56, 32
3, 110391, Note_on_c, 0, 68, 49
3, 110399, Note_on_c, 0, 58, 46
3, 110411, Note_on_c, 0, 64, 42
3, 110417, Note_on_c, 0, 56, 0
3, 110422, Note_on_c, 0, 49, 0
3, 110520, Control_c, 0, 64, 127
3, 110731, Note_on_c, 0, 58, 0
3, 110752, Note_on_c, 0, 64, 0
3, 110832, Note_on_c, 0, 68, 0
3, 111331, Control_c, 0, 64, 0
3, 111362, Note_on_c, 0, 36, 45
3, 111385, Note_on_c, 0, 84, 67
3, 111408, Note_on_c, 0, 52, 24
3, 111425, Note_on_c, 0, 72, 29
3, 111483, Note_on_c, 0, 36, 0
3, 111609, Note_on_c, 0, 52, 0
3, 111657, Note_on_c, 0, 72, 0
3, 111665, Note_on_c, 0, 84, 0
3, 111713, Note_on_c, 0, 83, 54
3, 111846, Note_on_c, 0, 83, 0
3, 111864, Control_c, 0, 64, 127
3, 112026, Note_on_c, 0, 84, 68
3, 112044, Note_on_c, 0, 72, 48
3, 112137, Note_on_c, 0, 72, 0
3, 112174, Note_on_c, 0, 84, 0
3, 112257, Control_c, 0, 64, 0
3, 112357, Note_on_c, 0, 64, 34
3, 112369, Note_on_c, 0, 58, 38
3, 112375, Note_on_c, 0, 55, 29
3, 112381, Note_on_c, 0, 60, 26
3, 112574, Control_c, 0, 64, 127
3, 112860, Note_on_c, 0, 60, 0
3, 112884, Note_on_c, 0, 55, 0
3, 112902, Note_on_c, 0, 58, 0
3, 112969, Note_on_c, 0, 64, 0
3, 113029, Note_on_c, 0, 90, 90
3, 113032, Note_on_c, 0, 78, 91
3, 113296, Control_c, 0, 64, 0
3, 113347, Note_on_c, 0, 78, 0
3, 113359, Note_on_c, 0, 90, 0
3, 113380, Note_on_c, 0, 67, 43
3, 113384, Note_on_c, 0, 62, 28
3, 113400, Note_on_c, 0, 63, 29
3, 113411, Note_on_c, 0, 57, 25
3, 113422, Note_on_c, 0, 89, 59
3, 113429, Note_on_c, 0, 77, 62
3, 113463, Note_on_c, 0, 88, 34
3, 113507, Note_on_c, 0, 88, 0
3, 113525, Note_on_c, 0, 67, 0
3, 113525, Control_c, 0, 64, 127
3, 113583, Note_on_c, 0, 62, 0
3, 113591, Note_on_c, 0, 63, 0
3, 113633, Note_on_c, 0, 57, 0
3, 113963, Note_on_c, 0, 77, 0
3, 114025, Note_on_c, 0, 89, 0
3, 114322, Control_c, 0, 64, 0
3, 114389, Note_on_c, 0, 41, 53
3, 114526, Control_c, 0, 64, 127
3, 114646, Note_on_c, 0, 41, 0
3, 115178, Note_on_c, 0, 54, 15
3, 115269, Note_on_c, 0, 56, 18
3, 115289, Note_on_c, 0, 54, 0
3, 115340, Note_on_c, 0, 57, 75
3, 115342, Note_on_c, 0, 56, 0
3, 115344, Note_on_c, 0, 72, 88
3, 115351, Note_on_c, 0, 62, 94
3, 115356, Note_on_c, 0, 67, 87
3, 115361, Control_c, 0, 64, 0
3, 115717, Control_c, 0, 64, 127
3, 115844, Note_on_c, 0, 62, 0
3, 115857, Note_on_c, 0, 67, 0
3, 115876, Note_on_c, 0, 72, 0
3, 115933, Note_on_c, 0, 57, 0
3, 115943, Note_on_c, 0, 71, 44
3, 115976, Note_on_c, 0, 56, 40
3, 116044, Control_c, 0, 64, 0
3, 116189, Note_on_c, 0, 71, 0
3, 116261, Control_c, 0, 64, 127
3, 116275, Note_on_c, 0, 72, 58
3, 116276, Note_on_c, 0, 62, 60
3, 116281, Note_on_c, 0, 57, 44
3, 116284, Note_on_c, 0, 67, 57
3, 116288, Note_on_c, 0, 56, 0
3, 116757, Note_on_c, 0, 67, 0
3, 116834, Note_on_c, 0, 62, 0
3, 116972, Note_on_c, 0, 57, 0
3, 117050, Note_on_c, 0, 72, 0
3, 117149, Control_c, 0, 64, 0
3, 117205, Note_on_c, 0, 72, 64
3, 117212, Note_on_c, 0, 61, 57
3, 117227, Note_on_c, 0, 55, 44
3, 117228, Note_on_c, 0, 65, 55
3, 117375, Control_c, 0, 64, 127
3, 117602, Note_on_c, 0, 55, 0
3, 118099, Control_c, 0, 64, 0
3, 118150, Note_on_c, 0, 39, 57
3, 118157, Note_on_c, 0, 65, 0
3, 118186, Note_on_c, 0, 72, 0
3, 118246, Note_on_c, 0, 39, 0
3, 118355, Note_on_c, 0, 61, 0
3, 118452, Control_c, 0, 64, 127
3, 118519, Note_on_c, 0, 63, 50
3, 118637, Note_on_c, 0, 63, 0
3, 118999, Control_c, 0, 64, 0
3, 119048, Note_on_c, 0, 36, 39
3, 119067, Note_on_c, 0, 72, 61
3, 119188, Control_c, 0, 64, 127
3, 119191, Note_on_c, 0, 36, 0
3, 119208, Note_on_c, 0, 72, 0
3, 119428, Note_on_c, 0, 84, 76
3, 119573, Note_on_c, 0, 84, 0
3, 119756, Note_on_c, 0, 72, 53
3, 119983, Note_on_c, 0, 72, 0
3, 120000, Control_c, 0, 64, 0
3, 120038, Note_on_c, 0, 64, 29
3, 120039, Note_on_c, 0, 73, 39
3, 120054, Note_on_c, 0, 58, 31
3, 120063, Note_on_c, 0, 60, 24
3, 120089, Note_on_c, 0, 55, 22
3, 120234, Note_on_c, 0, 73, 0
3, 120269, Note_on_c, 0, 60, 0
3, 120295, Note_on_c, 0, 55, 0
3, 120295, Note_on_c, 0, 58, 0
3, 120350, Note_on_c, 0, 74, 38
3, 120451, Note_on_c, 0, 64, 0
3, 120535, Note_on_c, 0, 74, 0
3, 120621, Control_c, 0, 64, 127
3, 120634, Control_c, 0, 64, 0
3, 120646, Control_c, 0, 64, 127
3, 120689, Note_on_c, 0, 77, 33
3, 120870, Note_on_c, 0, 77, 0
3, 120873, Control_c, 0, 64, 0
3, 120929, Note_on_c, 0, 62, 33
3, 120965, Note_on_c, 0, 67, 28
3, 120966, Note_on_c, 0, 78, 62
3, 120969, Note_on_c, 0, 63, 34
3, 121265, Note_on_c, 0, 78, 0
3, 121297, Note_on_c, 0, 75, 39
3, 121311, Note_on_c, 0, 67, 0
3, 121334, Note_on_c, 0, 62, 0
3, 121383, Note_on_c, 0, 63, 0
3, 121446, Note_on_c, 0, 75, 0
3, 121550, Note_on_c, 0, 77, 60
3, 121647, Control_c, 0, 64, 127
3, 121760, Control_c, 0, 64, 0
3, 121876, Note_on_c, 0, 63, 32
3, 121879, Note_on_c, 0, 58, 38
3, 121881, Note_on_c, 0, 53, 34
3, 122053, Control_c, 0, 64, 127
3, 122363, Note_on_c, 0, 53, 0
3, 122455, Note_on_c, 0, 63, 0
3, 122469, Note_on_c, 0, 58, 0
3, 122470, Note_on_c, 0, 77, 0
3, 122514, Note_on_c, 0, 76, 78
3, 122688, Note_on_c, 0, 76, 0
3, 122700, Note_on_c, 0, 75, 76
3, 122804, Note_on_c, 0, 75, 0
3, 122847, Note_on_c, 0, 74, 61
3, 122888, Control_c, 0, 64, 0
3, 122946, Note_on_c, 0, 62, 32
3, 122968, Note_on_c, 0, 56, 47
3, 122991, Note_on_c, 0, 67, 24
3, 123006, Note_on_c, 0, 73, 56
3, 123074, Note_on_c, 0, 74, 0
3, 123210, Note_on_c, 0, 73, 0
3, 123222, Note_on_c, 0, 72, 68
3, 123268, Control_c, 0, 64, 127
3, 123569, Note_on_c, 0, 67, 0
3, 123582, Note_on_c, 0, 84, 75
3, 123609, Note_on_c, 0, 62, 0
3, 123701, Note_on_c, 0, 72, 0
3, 123797, Note_on_c, 0, 84, 0
3, 123916, Control_c, 0, 64, 0
3, 123952, Note_on_c, 0, 84, 76
3, 123963, Note_on_c, 0, 67, 55
3, 123979, Note_on_c, 0, 62, 48
3, 123991, Note_on_c, 0, 72, 35
3, 124131, Control_c, 0, 64, 127
3, 124305, Note_on_c, 0, 84, 0
3, 124388, Note_on_c, 0, 72, 0
3, 124508, Note_on_c, 0, 84, 66
3, 124510, Note_on_c, 0, 67, 0
3, 124551, Note_on_c, 0, 62, 0
3, 124580, Note_on_c, 0, 56, 0
3, 124686, Note_on_c, 0, 84, 0
3, 124801, Control_c, 0, 64, 0
3, 124858, Note_on_c, 0, 62, 45
3, 124862, Note_on_c, 0, 84, 53
3, 124867, Note_on_c, 0, 66, 46
3, 124872, Note_on_c, 0, 78, 53
3, 124874, Note_on_c, 0, 72, 36
3, 124888, Note_on_c, 0, 56, 45
3, 125031, Control_c, 0, 64, 127
3, 125383, Note_on_c, 0, 66, 0
3, 125521, Note_on_c, 0, 72, 0
3, 125535, Note_on_c, 0, 78, 0
3, 125576, Note_on_c, 0, 84, 0
3, 125829, Note_on_c, 0, 66, 51
3, 125835, Note_on_c, 0, 84, 49
3, 125854, Note_on_c, 0, 78, 49
3, 125863, Note_on_c, 0, 72, 46
3, 125952, Note_on_c, 0, 84, 0
3, 125992, Note_on_c, 0, 66, 0
3, 126017, Note_on_c, 0, 78, 0
3, 126047, Note_on_c, 0, 72, 0
3, 126170, Note_on_c, 0, 56, 0
3, 126177, Note_on_c, 0, 62, 0
3, 126491, Note_on_c, 0, 56, 44
3, 126565, Note_on_c, 0, 56, 0
3, 126753, Control_c, 0, 64, 0
3, 126786, Note_on_c, 0, 72, 64
3, 126797, Note_on_c, 0, 51, 44
3, 126805, Note_on_c, 0, 61, 56
3, 126816, Note_on_c, 0, 68, 52
3, 126830, Note_on_c, 0, 65, 50
3, 126831, Note_on_c, 0, 60, 31
3, 126907, Note_on_c, 0, 60, 0
3, 127014, Note_on_c, 0, 65, 0
3, 127045, Note_on_c, 0, 61, 0
3, 127063, Note_on_c, 0, 68, 0
3, 127069, Note_on_c, 0, 72, 0
3, 127111, Note_on_c, 0, 51, 0
3, 127419, Note_on_c, 0, 72, 47
3, 127438, Note_on_c, 0, 51, 46
3, 127442, Note_on_c, 0, 68, 46
3, 127446, Note_on_c, 0, 61, 35
3, 127450, Note_on_c, 0, 65, 44
3, 127467, Note_on_c, 0, 60, 22
3, 127566, Note_on_c, 0, 61, 0
3, 127603, Note_on_c, 0, 65, 0
3, 127607, Note_on_c, 0, 60, 0
3, 127644, Note_on_c, 0, 68, 0
3, 127645, Note_on_c, 0, 51, 0
3, 127646, Note_on_c, 0, 72, 0
3, 128110, Control_c, 0, 64, 127
3, 128553, Control_c, 0, 64, 0
3, 128729, Note_on_c, 0, 72, 44
3, 128760, Note_on_c, 0, 64, 36
3, 128764, Note_on_c, 0, 39, 44
3, 128796, Note_on_c, 0, 51, 20
3, 128862, Note_on_c, 0, 61, 4
3, 129052, Note_on_c, 0, 64, 0
3, 129102, Note_on_c, 0, 61, 0
3, 129112, Note_on_c, 0, 39, 0
3, 129117, Note_on_c, 0, 51, 0
3, 129162, Note_on_c, 0, 72, 0
3, 129343, Note_on_c, 0, 72, 42
3, 129346, Note_on_c, 0, 61, 36
3, 129361, Note_on_c, 0, 64, 44
3, 129371, Note_on_c, 0, 39, 46
3, 129418, Note_on_c, 0, 51, 18
3, 129446, Note_on_c, 0, 64, 0
3, 129461, Note_on_c, 0, 61, 0
3, 129507, Note_on_c, 0, 72, 0
3, 129518, Note_on_c, 0, 51, 0
3, 129545, Note_on_c, 0, 39, 0
3, 130635, Note_on_c, 0, 60, 19
3, 130642, Note_on_c, 0, 44, 31
3, 130647, Note_on_c, 0, 63, 33
3, 130664, Note_on_c, 0, 51, 29
3, 130667, Note_on_c, 0, 58, 33
3, 130668, Note_on_c, 0, 55, 25
3, 130869, Note_on_c, 0, 55, 0
3, 130885, Note_on_c, 0, 51, 0
3, 130886, Note_on_c, 0, 58, 0
3, 130922, Note_on_c, 0, 63, 0
3, 130929, Note_on_c, 0, 60, 0
3, 130958, Note_on_c, 0, 44, 0
3, 131256, Note_on_c, 0, 63, 32
3, 131270, Note_on_c, 0, 58, 37
3, 131275, Note_on_c, 0, 60, 30
3, 131279, Note_on_c, 0, 44, 31
3, 131284, Note_on_c, 0, 55, 30
3, 131297, Note_on_c, 0, 51, 29
3, 131421, Note_on_c, 0, 55, 0
3, 131443, Note_on_c, 0, 51, 0
3, 131461, Note_on_c, 0, 58, 0
3, 131479, Note_on_c, 0, 63, 0
3, 131486, Note_on_c, 0, 60, 0
3, 131501, Note_on_c, 0, 44, 0
3, 131675, Note_on_c, 0, 44, 28
3, 131680, Note_on_c, 0, 58, 39
3, 131688, Note_on_c, 0, 63, 25
3, 131690, Note_on_c, 0, 55, 33
3, 131693, Note_on_c, 0, 60, 25
3, 131700, Note_on_c, 0, 51, 31
3, 131770, Note_on_c, 0, 55, 0
3, 131791, Note_on_c, 0, 58, 0
3, 131816, Note_on_c, 0, 51, 0
3, 131824, Note_on_c, 0, 60, 0
3, 131825, Note_on_c, 0, 63, 0
3, 131854, Note_on_c, 0, 44, 0
3, 132211, Note_on_c, 0, 44, 44
3, 132227, Note_on_c, 0, 58, 55
3, 132229, Note_on_c, 0, 63, 57
3, 132327, Note_on_c, 0, 58, 0
3, 132351, Note_on_c, 0, 63, 0
3, 132465, Note_on_c, 0, 44, 0
3, 132614, Note_on_c, 0, 66, 38
3, 132623, Note_on_c, 0, 58, 42
3, 132636, Note_on_c, 0, 61, 50
3, 132643, Note_on_c, 0, 47, 47
3, 132666, Note_on_c, 0, 63, 38
3, 132782, Note_on_c, 0, 61, 0
3, 132787, Note_on_c, 0, 58, 0
3, 132810, Note_on_c, 0, 47, 0
3, 132824, Note_on_c, 0, 63, 0
3, 132834, Note_on_c, 0, 66, 0
3, 133509, Note_on_c, 0, 66, 37
3, 133510, Note_on_c, 0, 58, 42
3, 133525, Note_on_c, 0, 61, 45
3, 133532, Note_on_c, 0, 47, 39
3, 133559, Control_c, 0, 64, 127
3, 133571, Note_on_c, 0, 63, 32
3, 133691, Note_on_c, 0, 47, 0
3, 133965, Control_c, 0, 64, 0
3, 134000, Note_on_c, 0, 66, 0
3, 134022, Note_on_c, 0, 61, 0
3, 134024, Note_on_c, 0, 63, 0
3, 134045, Note_on_c, 0, 58, 0
3, 134166, Control_c, 0, 64, 127
3, 134396, Control_c, 0, 64, 0
3, 134506, Note_on_c, 0, 40, 35
3, 134516, Note_on_c, 0, 63, 46
3, 134530, Note_on_c, 0, 47, 30
3, 134534, Note_on_c, 0, 52, 29
3, 134540, Note_on_c, 0, 56, 37
3, 134545, Note_on_c, 0, 58, 44
3, 134790, Note_on_c, 0, 47, 0
3, 134803, Note_on_c, 0, 52, 0
3, 134804, Note_on_c, 0, 56, 0
3, 134829, Note_on_c, 0, 40, 0
3, 134831, Note_on_c, 0, 58, 0
3, 134840, Note_on_c, 0, 63, 0
3, 135405, Note_on_c, 0, 40, 37
3, 135407, Note_on_c, 0, 63, 37
3, 135422, Control_c, 0, 64, 127
3, 135423, Note_on_c, 0, 56, 36
3, 135425, Note_on_c, 0, 52, 25
3, 135427, Note_on_c, 0, 58, 46
3, 135434, Note_on_c, 0, 47, 34
3, 136231, Note_on_c, 0, 56, 0
3, 136255, Note_on_c, 0, 58, 0
3, 136492, Note_on_c, 0, 52, 0
3, 136506, Note_on_c, 0, 63, 0
3, 136756, Note_on_c, 0, 47, 0
3, 136771, Note_on_c, 0, 40, 0
3, 136867, Control_c, 0, 64, 0
3, 136906, Note_on_c, 0, 59, 52
3, 136908, Note_on_c, 0, 63, 46
3, 136916, Note_on_c, 0, 61, 40
3, 136918, Note_on_c, 0, 45, 44
3, 137210, Control_c, 0, 64, 127
3, 137449, Control_c, 0, 64, 0
3, 137460, Note_on_c, 0, 59, 0
3, 137496, Note_on_c, 0, 61, 0
3, 137502, Note_on_c, 0, 63, 0
3, 137585, Note_on_c, 0, 45, 0
3, 137634, Note_on_c, 0, 57, 51
3, 137800, Note_on_c, 0, 57, 0
3, 137923, Note_on_c, 0, 58, 64
3, 138129, Note_on_c, 0, 58, 0
3, 138269, Note_on_c, 0, 44, 46
3, 138270, Note_on_c, 0, 59, 51
3, 138452, Control_c, 0, 64, 127
3, 138466, Note_on_c, 0, 44, 0
3, 138500, Note_on_c, 0, 59, 0
3, 138576, Note_on_c, 0, 60, 35
3, 138705, Note_on_c, 0, 60, 0
3, 138869, Note_on_c, 0, 63, 67
3, 139170, Control_c, 0, 64, 0
3, 139222, Note_on_c, 0, 60, 36
3, 139256, Note_on_c, 0, 63, 0
3, 139658, Control_c, 0, 64, 127
3, 139880, Note_on_c, 0, 60, 0
3, 139885, Note_on_c, 0, 63, 59
3, 140248, Control_c, 0, 64, 0
3, 140276, Note_on_c, 0, 39, 34
3, 140286, Note_on_c, 0, 46, 25
3, 140295, Note_on_c, 0, 56, 25
3, 140556, Control_c, 0, 64, 127
3, 140845, Note_on_c, 0, 56, 0
3, 141082, Note_on_c, 0, 63, 0
3, 141160, Control_c, 0, 64, 0
3, 141195, Note_on_c, 0, 53, 34
3, 141196, Note_on_c, 0, 56, 38
3, 141205, Note_on_c, 0, 51, 30
3, 141421, Note_on_c, 0, 39, 0
3, 141443, Control_c, 0, 64, 127
3, 141477, Note_on_c, 0, 46, 0
3, 141607, Note_on_c, 0, 53, 0
3, 141618, Note_on_c, 0, 51, 0
3, 141623, Note_on_c, 0, 56, 0
3, 141856, Note_on_c, 0, 58, 52
3, 141858, Note_on_c, 0, 60, 36
3, 141859, Note_on_c, 0, 55, 43
3, 141878, Control_c, 0, 64, 0
3, 141932, Note_on_c, 0, 55, 0
3, 141987, Note_on_c, 0, 58, 0
3, 142035, Note_on_c, 0, 60, 0
3, 142100, Note_on_c, 0, 44, 34
3, 142134, Note_on_c, 0, 51, 25
3, 142137, Control_c, 0, 64, 127
3, 142284, Note_on_c, 0, 44, 0
3, 142307, Note_on_c, 0, 51, 0
3, 142761, Note_on_c, 0, 84, 92
3, 142764, Note_on_c, 0, 72, 96
3, 142898, Note_on_c, 0, 72, 0
3, 142930, Note_on_c, 0, 84, 0
3, 142996, Control_c, 0, 64, 0
3, 143065, Note_on_c, 0, 63, 58
3, 143069, Note_on_c, 0, 60, 37
3, 143089, Note_on_c, 0, 56, 55
3, 143102, Note_on_c, 0, 75, 81
3, 143110, Note_on_c, 0, 87, 79
3, 143281, Note_on_c, 0, 87, 0
3, 143304, Control_c, 0, 64, 127
3, 143322, Note_on_c, 0, 75, 0
3, 143407, Note_on_c, 0, 87, 48
3, 143409, Note_on_c, 0, 60, 0
3, 143421, Note_on_c, 0, 75, 53
3, 143485, Note_on_c, 0, 63, 0
3, 143532, Note_on_c, 0, 75, 0
3, 143550, Note_on_c, 0, 87, 0
3, 143569, Note_on_c, 0, 56, 0
3, 143706, Note_on_c, 0, 84, 57
3, 143739, Note_on_c, 0, 72, 30
3, 143825, Note_on_c, 0, 84, 0
3, 143826, Note_on_c, 0, 72, 0
3, 143971, Control_c, 0, 64, 0
3, 144029, Note_on_c, 0, 61, 44
3, 144030, Note_on_c, 0, 75, 61
3, 144031, Note_on_c, 0, 55, 36
3, 144035, Note_on_c, 0, 66, 42
3, 144037, Note_on_c, 0, 87, 60
3, 144278, Control_c, 0, 64, 127
3, 144423, Note_on_c, 0, 75, 0
3, 144477, Note_on_c, 0, 87, 0
3, 144629, Note_on_c, 0, 55, 0
3, 144637, Note_on_c, 0, 89, 57
3, 144684, Note_on_c, 0, 77, 46
3, 144687, Note_on_c, 0, 66, 0
3, 144714, Note_on_c, 0, 61, 0
3, 144785, Note_on_c, 0, 89, 0
3, 144807, Note_on_c, 0, 77, 0
3, 144921, Control_c, 0, 64, 0
3, 144975, Note_on_c, 0, 66, 43
3, 144977, Note_on_c, 0, 61, 49
3, 144978, Note_on_c, 0, 55, 41
3, 145013, Note_on_c, 0, 75, 47
3, 145151, Control_c, 0, 64, 127
3, 145175, Note_on_c, 0, 66, 0
3, 145199, Note_on_c, 0, 55, 0
3, 145208, Note_on_c, 0, 75, 0
3, 145264, Note_on_c, 0, 61, 0
3, 145605, Note_on_c, 0, 85, 51
3, 145621, Note_on_c, 0, 73, 33
3, 145782, Note_on_c, 0, 73, 0
3, 145790, Note_on_c, 0, 85, 0
3, 145818, Control_c, 0, 64, 0
3, 145895, Note_on_c, 0, 44, 30
3, 145927, Note_on_c, 0, 51, 34
3, 145928, Note_on_c, 0, 84, 48
3, 145950, Note_on_c, 0, 72, 39
3, 145954, Note_on_c, 0, 55, 24
3, 145997, Note_on_c, 0, 84, 0
3, 146050, Control_c, 0, 64, 127
3, 146073, Note_on_c, 0, 72, 0
3, 146311, Note_on_c, 0, 55, 0
3, 146569, Note_on_c, 0, 70, 71
3, 146597, Note_on_c, 0, 63, 64
3, 146761, Note_on_c, 0, 63, 0
3, 146816, Note_on_c, 0, 70, 0
3, 146897, Control_c, 0, 64, 0
3, 146906, Note_on_c, 0, 60, 36
3, 146910, Note_on_c, 0, 67, 47
3, 146925, Note_on_c, 0, 55, 35
3, 147093, Note_on_c, 0, 60, 0
3, 147145, Note_on_c, 0, 67, 0
3, 147203, Note_on_c, 0, 70, 63
3, 147218, Note_on_c, 0, 63, 44
3, 147256, Note_on_c, 0, 55, 0
3, 147379, Note_on_c, 0, 63, 0
3, 147416, Note_on_c, 0, 70, 0
3, 147449, Note_on_c, 0, 44, 0
3, 147464, Note_on_c, 0, 51, 0
3, 147500, Control_c, 0, 64, 127
3, 147510, Note_on_c, 0, 60, 34
3, 147511, Note_on_c, 0, 63, 31
3, 147518, Note_on_c, 0, 67, 45
3, 147614, Note_on_c, 0, 60, 0
3, 147620, Note_on_c, 0, 63, 0
3, 147674, Note_on_c, 0, 67, 0
3, 147847, Control_c, 0, 64, 0
3, 147856, Note_on_c, 0, 59, 41
3, 147857, Note_on_c, 0, 68, 46
3, 147867, Note_on_c, 0, 64, 36
3, 147892, Note_on_c, 0, 54, 36
3, 147897, Note_on_c, 0, 50, 32
3, 147984, Note_on_c, 0, 64, 0
3, 147999, Note_on_c, 0, 54, 0
3, 148002, Note_on_c, 0, 59, 0
3, 148008, Note_on_c, 0, 50, 0
3, 148040, Note_on_c, 0, 68, 0
3, 148478, Note_on_c, 0, 68, 44
3, 148486, Note_on_c, 0, 50, 38
3, 148496, Note_on_c, 0, 64, 38
3, 148498, Note_on_c, 0, 54, 36
3, 148500, Note_on_c, 0, 59, 30
3, 148602, Note_on_c, 0, 64, 0
3, 148611, Note_on_c, 0, 59, 0
3, 148630, Note_on_c, 0, 50, 0
3, 148649, Note_on_c, 0, 54, 0
3, 148659, Note_on_c, 0, 68, 0
3, 148848, Note_on_c, 0, 68, 37
3, 148852, Note_on_c, 0, 59, 32
3, 148862, Note_on_c, 0, 64, 41
3, 148878, Note_on_c, 0, 50, 34
3, 148896, Note_on_c, 0, 54, 23
3, 148923, Note_on_c, 0, 64, 0
3, 148951, Note_on_c, 0, 59, 0
3, 148964, Note_on_c, 0, 50, 0
3, 148980, Note_on_c, 0, 54, 0
3, 148987, Note_on_c, 0, 68, 0
3, 149429, Note_on_c, 0, 64, 32
3, 149433, Note_on_c, 0, 50, 26
3, 149438, Note_on_c, 0, 59, 39
3, 149460, Note_on_c, 0, 68, 33
3, 149466, Note_on_c, 0, 54, 25
3, 149503, Note_on_c, 0, 50, 0
3, 149525, Note_on_c, 0, 64, 0
3, 149548, Note_on_c, 0, 59, 0
3, 149579, Control_c, 0, 64, 127
3, 149615, Note_on_c, 0, 54, 0
3, 149618, Note_on_c, 0, 68, 0
3, 149643, Control_c, 0, 64, 0
3, 149791, Note_on_c, 0, 60, 27
3, 149798, Note_on_c, 0, 68, 35
3, 149806, Note_on_c, 0, 65, 36
3, 149832, Note_on_c, 0, 49, 25
3, 149837, Note_on_c, 0, 56, 31
3, 149964, Control_c, 0, 64, 127
3, 150033, Note_on_c, 0, 60, 0
3, 150038, Note_on_c, 0, 49, 0
3, 150070, Note_on_c, 0, 65, 0
3, 150103, Note_on_c, 0, 56, 0
3, 150115, Note_on_c, 0, 68, 0
3, 150772, Note_on_c, 0, 63, 80
3, 150782, Note_on_c, 0, 75, 71
3, 150786, Control_c, 0, 64, 0
3, 150788, Note_on_c, 0, 68, 77
3, 150790, Note_on_c, 0, 64, 85
3, 150796, Note_on_c, 0, 72, 68
3, 151007, Note_on_c, 0, 63, 0
3, 151026, Note_on_c, 0, 62, 62
3, 151042, Note_on_c, 0, 72, 0
3, 151070, Note_on_c, 0, 64, 0
3, 151080, Note_on_c, 0, 68, 0
3, 151087, Note_on_c, 0, 75, 0
3, 151149, Note_on_c, 0, 62, 0
3, 151170, Note_on_c, 0, 61, 67
3, 151321, Note_on_c, 0, 72, 68
3, 151326, Note_on_c, 0, 64, 67
3, 151330, Note_on_c, 0, 61, 0
3, 151331, Note_on_c, 0, 68, 56
3, 151353, Note_on_c, 0, 60, 58
3, 151449, Note_on_c, 0, 68, 0
3, 151458, Note_on_c, 0, 64, 0
3, 151481, Note_on_c, 0, 60, 0
3, 151482, Note_on_c, 0, 72, 0
3, 152098, Note_on_c, 0, 64, 53
3, 152099, Note_on_c, 0, 70, 54
3, 152108, Note_on_c, 0, 61, 46
3, 152118, Note_on_c, 0, 55, 51
3, 152144, Note_on_c, 0, 67, 34
3, 152203, Note_on_c, 0, 67, 0
3, 152235, Note_on_c, 0, 64, 0
3, 152271, Note_on_c, 0, 70, 0
3, 152310, Note_on_c, 0, 55, 0
3, 152342, Note_on_c, 0, 61, 0
3, 152377, Note_on_c, 0, 52, 32
3, 152466, Control_c, 0, 64, 127
3, 152589, Note_on_c, 0, 52, 0
3, 152594, Control_c, 0, 64, 0
3, 152693, Note_on_c, 0, 58, 57
3, 152704, Note_on_c, 0, 61, 55
3, 152714, Note_on_c, 0, 64, 34
3, 152716, Note_on_c, 0, 67, 40
3, 152738, Note_on_c, 0, 48, 30
3, 152846, Note_on_c, 0, 67, 0
3, 152847, Note_on_c, 0, 64, 0
3, 152902, Note_on_c, 0, 58, 0
3, 152905, Note_on_c, 0, 48, 0
3, 152916, Note_on_c, 0, 61, 0
3, 153066, Note_on_c, 0, 45, 35
3, 153116, Note_on_c, 0, 45, 0
3, 153351, Note_on_c, 0, 63, 74
3, 153362, Note_on_c, 0, 45, 66
3, 153367, Note_on_c, 0, 55, 72
3, 153369, Note_on_c, 0, 58, 70
3, 153371, Note_on_c, 0, 60, 50
3, 153405, Note_on_c, 0, 45, 0
3, 153694, Note_on_c, 0, 32, 52
3, 153710, Note_on_c, 0, 44, 32
3, 153873, Note_on_c, 0, 32, 0
3, 153904, Control_c, 0, 64, 127
3, 153995, Note_on_c, 0, 44, 0
3, 154139, Note_on_c, 0, 60, 0
3, 154170, Note_on_c, 0, 55, 0
3, 154263, Note_on_c, 0, 58, 0
3, 154583, Note_on_c, 0, 63, 0
3, 154635, Control_c, 0, 64, 0
3, 154646, Note_on_c, 0, 51, 48
3, 154654, Note_on_c, 0, 60, 24
3, 154655, Note_on_c, 0, 58, 42
3, 154667, Note_on_c, 0, 55, 31
3, 154823, Note_on_c, 0, 51, 0
3, 154879, Control_c, 0, 64, 127
3, 154957, Note_on_c, 0, 55, 0
3, 154985, Note_on_c, 0, 60, 0
3, 155025, Note_on_c, 0, 58, 0
3, 155135, Control_c, 0, 64, 0
3, 155199, Control_c, 0, 64, 127
3, 155299, Note_on_c, 0, 39, 48
3, 155336, Note_on_c, 0, 46, 32
3, 155409, Note_on_c, 0, 39, 0
3, 155499, Note_on_c, 0, 46, 0
3, 155584, Control_c, 0, 64, 0
3, 155596, Note_on_c, 0, 53, 62
3, 155606, Note_on_c, 0, 70, 53
3, 155619, Note_on_c, 0, 67, 54
3, 155628, Note_on_c, 0, 63, 54
3, 155629, Note_on_c, 0, 59, 60
3, 155957, Control_c, 0, 64, 127
3, 156180, Note_on_c, 0, 67, 0
3, 156272, Note_on_c, 0, 59, 0
3, 156285, Note_on_c, 0, 63, 0
3, 156355, Note_on_c, 0, 70, 0
3, 156457, Control_c, 0, 64, 0
3, 156499, Note_on_c, 0, 53, 0
3, 156523, Note_on_c, 0, 68, 55
3, 156534, Note_on_c, 0, 59, 40
3, 156550, Note_on_c, 0, 51, 39
3, 156553, Note_on_c, 0, 63, 46
3, 156649, Control_c, 0, 64, 127
3, 156873, Note_on_c, 0, 51, 0
3, 156975, Note_on_c, 0, 59, 0
3, 157070, Note_on_c, 0, 63, 0
3, 157166, Note_on_c, 0, 68, 0
3, 157433, Control_c, 0, 64, 0
3, 157449, Note_on_c, 0, 36, 41
3, 157487, Note_on_c, 0, 58, 37
3, 157495, Note_on_c, 0, 67, 44
3, 157497, Note_on_c, 0, 64, 36
3, 157641, Control_c, 0, 64, 127
3, 157642, Note_on_c, 0, 36, 0
3, 157671, Note_on_c, 0, 58, 0
3, 157725, Note_on_c, 0, 67, 0
3, 157764, Note_on_c, 0, 64, 0
3, 158154, Note_on_c, 0, 79, 87
3, 158360, Control_c, 0, 64, 0
3, 158436, Note_on_c, 0, 64, 44
3, 158467, Note_on_c, 0, 60, 26
3, 158471, Note_on_c, 0, 74, 48
3, 158472, Note_on_c, 0, 58, 25
3, 158572, Note_on_c, 0, 60, 0
3, 158604, Note_on_c, 0, 79, 0
3, 158606, Note_on_c, 0, 58, 0
3, 158662, Note_on_c, 0, 64, 0
3, 158694, Control_c, 0, 64, 127
3, 158799, Note_on_c, 0, 75, 52
3, 158923, Note_on_c, 0, 74, 0
3, 158986, Note_on_c, 0, 75, 0
3, 159080, Note_on_c, 0, 76, 85
3, 159326, Note_on_c, 0, 76, 0
3, 159335, Control_c, 0, 64, 0
3, 159374, Note_on_c, 0, 62, 39
3, 159387, Note_on_c, 0, 63, 53
3, 159389, Note_on_c, 0, 67, 52
3, 159401, Note_on_c, 0, 57, 40
3, 159413, Note_on_c, 0, 77, 83
3, 159618, Control_c, 0, 64, 127
3, 159735, Note_on_c, 0, 67, 0
3, 159746, Note_on_c, 0, 62, 0
3, 159791, Note_on_c, 0, 57, 0
3, 159796, Note_on_c, 0, 63, 0
3, 160030, Note_on_c, 0, 77, 0
3, 160199, Note_on_c, 0, 77, 15
3, 160336, Control_c, 0, 64, 0
3, 160352, Note_on_c, 0, 63, 49
3, 160369, Note_on_c, 0, 58, 36
3, 160375, Note_on_c, 0, 60, 27
3, 160414, Note_on_c, 0, 63, 0
3, 160428, Note_on_c, 0, 60, 0
3, 160525, Note_on_c, 0, 58, 0
3, 160580, Control_c, 0, 64, 127
3, 160716, Note_on_c, 0, 75, 71
3, 160895, Note_on_c, 0, 77, 0
3, 160928, Note_on_c, 0, 75, 0
3, 160999, Note_on_c, 0, 72, 58
3, 161279, Note_on_c, 0, 72, 0
3, 161330, Note_on_c, 0, 75, 85
3, 161333, Note_on_c, 0, 65, 80
3, 161350, Note_on_c, 0, 60, 58
3, 161353, Note_on_c, 0, 56, 70
3, 161360, Note_on_c, 0, 61, 42
3, 161364, Control_c, 0, 64, 0
3, 161775, Note_on_c, 0, 74, 66
3, 161862, Note_on_c, 0, 73, 52
3, 161917, Note_on_c, 0, 74, 0
3, 161947, Note_on_c, 0, 75, 0
3, 162002, Note_on_c, 0, 72, 60
3, 162059, Note_on_c, 0, 65, 0
3, 162088, Note_on_c, 0, 73, 0
3, 162194, Note_on_c, 0, 61, 0
3, 162361, Note_on_c, 0, 73, 67
3, 162382, Note_on_c, 0, 65, 56
3, 162395, Note_on_c, 0, 61, 32
3, 162416, Note_on_c, 0, 72, 0
3, 162633, Control_c, 0, 64, 127
3, 162773, Note_on_c, 0, 65, 0
3, 162781, Note_on_c, 0, 60, 0
3, 162814, Note_on_c, 0, 61, 0
3, 162869, Note_on_c, 0, 56, 0
3, 162962, Note_on_c, 0, 73, 0
3, 163279, Note_on_c, 0, 70, 51
3, 163287, Control_c, 0, 64, 0
3, 163302, Note_on_c, 0, 61, 36
3, 163306, Note_on_c, 0, 66, 40
3, 163318, Note_on_c, 0, 52, 47
3, 163334, Note_on_c, 0, 56, 46
3, 163351, Note_on_c, 0, 62, 30
3, 163570, Control_c, 0, 64, 127
3, 163782, Note_on_c, 0, 62, 0
3, 163883, Note_on_c, 0, 61, 0
3, 163926, Note_on_c, 0, 56, 0
3, 163960, Note_on_c, 0, 66, 0
3, 164212, Control_c, 0, 64, 0
3, 164249, Note_on_c, 0, 61, 32
3, 164251, Note_on_c, 0, 66, 38
3, 164278, Note_on_c, 0, 62, 35
3, 164286, Note_on_c, 0, 56, 35
3, 164442, Control_c, 0, 64, 127
3, 164547, Note_on_c, 0, 62, 0
3, 164564, Note_on_c, 0, 52, 0
3, 164954, Note_on_c, 0, 61, 0
3, 164981, Note_on_c, 0, 66, 0
3, 165013, Note_on_c, 0, 56, 0
3, 165114, Note_on_c, 0, 70, 0
3, 165136, Control_c, 0, 64, 0
3, 165168, Note_on_c, 0, 61, 40
3, 165185, Note_on_c, 0, 65, 47
3, 165203, Note_on_c, 0, 51, 33
3, 165329, Note_on_c, 0, 51, 0
3, 165430, Control_c, 0, 64, 127
3, 165810, Note_on_c, 0, 27, 47
3, 165840, Note_on_c, 0, 65, 0
3, 165858, Note_on_c, 0, 27, 0
3, 165873, Note_on_c, 0, 61, 0
3, 166120, Note_on_c, 0, 61, 48
3, 166137, Control_c, 0, 64, 0
3, 166143, Note_on_c, 0, 65, 50
3, 166278, Control_c, 0, 64, 127
3, 166559, Note_on_c, 0, 65, 0
3, 166640, Note_on_c, 0, 61, 0
3, 166738, Note_on_c, 0, 55, 33
3, 166854, Note_on_c, 0, 55, 0
3, 167031, Note_on_c, 0, 63, 58
3, 167048, Control_c, 0, 64, 0
3, 167049, Note_on_c, 0, 56, 42
3, 167052, Note_on_c, 0, 59, 43
3, 167356, Control_c, 0, 64, 127
3, 167494, Note_on_c, 0, 56, 0
3, 167722, Note_on_c, 0, 59, 0
3, 167844, Note_on_c, 0, 63, 0
3, 168002, Note_on_c, 0, 59, 38
3, 168011, Control_c, 0, 64, 0
3, 168062, Control_c, 0, 64, 127
3, 168475, Note_on_c, 0, 59, 0
3, 168623, Note_on_c, 0, 37, 30
3, 168895, Control_c, 0, 64, 0
3, 168907, Note_on_c, 0, 36, 36
3, 168959, Note_on_c, 0, 58, 34
3, 168976, Note_on_c, 0, 52, 31
3, 168985, Note_on_c, 0, 37, 0
3, 169036, Note_on_c, 0, 36, 0
3, 169063, Note_on_c, 0, 52, 0
3, 169078, Note_on_c, 0, 58, 0
3, 169114, Control_c, 0, 64, 127
3, 169936, Note_on_c, 0, 64, 47
3, 169941, Note_on_c, 0, 58, 51
3, 169949, Note_on_c, 0, 60, 30
3, 169979, Note_on_c, 0, 64, 0
3, 169986, Control_c, 0, 64, 0
3, 169996, Note_on_c, 0, 60, 0
3, 170038, Note_on_c, 0, 58, 0
3, 170138, Note_on_c, 0, 94, 49
3, 170187, Note_on_c, 0, 94, 0
3, 170296, Note_on_c, 0, 98, 68
3, 170366, Note_on_c, 0, 94, 60
3, 170423, Note_on_c, 0, 98, 0
3, 170512, Note_on_c, 0, 94, 0
3, 170747, Note_on_c, 0, 87, 59
3, 170791, Note_on_c, 0, 87, 0
3, 170813, Note_on_c, 0, 86, 58
3, 170859, Note_on_c, 0, 58, 27
3, 170863, Note_on_c, 0, 48, 32
3, 170957, Note_on_c, 0, 86, 0
3, 170996, Note_on_c, 0, 85, 62
3, 171011, Note_on_c, 0, 48, 0
3, 171085, Note_on_c, 0, 85, 0
3, 171131, Note_on_c, 0, 84, 42
3, 171158, Note_on_c, 0, 58, 0
3, 171219, Note_on_c, 0, 84, 0
3, 171270, Note_on_c, 0, 83, 43
3, 171360, Note_on_c, 0, 83, 0
3, 171442, Note_on_c, 0, 82, 37
3, 171503, Note_on_c, 0, 82, 0
3, 171604, Note_on_c, 0, 86, 41
3, 171674, Note_on_c, 0, 82, 39
3, 171700, Note_on_c, 0, 86, 0
3, 171807, Note_on_c, 0, 58, 33
3, 171815, Note_on_c, 0, 62, 24
3, 171817, Note_on_c, 0, 52, 28
3, 171829, Note_on_c, 0, 82, 0
3, 171939, Note_on_c, 0, 76, 42
3, 172020, Note_on_c, 0, 76, 0
3, 172111, Note_on_c, 0, 52, 0
3, 172113, Note_on_c, 0, 75, 38
3, 172168, Note_on_c, 0, 58, 0
3, 172214, Note_on_c, 0, 62, 0
3, 172246, Note_on_c, 0, 75, 0
3, 172300, Note_on_c, 0, 74, 27
3, 172367, Note_on_c, 0, 74, 0
3, 172401, Note_on_c, 0, 73, 37
3, 172476, Control_c, 0, 64, 127
3, 172510, Note_on_c, 0, 73, 0
3, 172550, Note_on_c, 0, 72, 48
3, 172638, Note_on_c, 0, 72, 0
3, 172656, Control_c, 0, 64, 0
3, 172762, Note_on_c, 0, 62, 20
3, 172766, Note_on_c, 0, 63, 35
3, 172772, Note_on_c, 0, 70, 57
3, 172885, Note_on_c, 0, 70, 0
3, 172934, Note_on_c, 0, 57, 1
3, 172937, Note_on_c, 0, 69, 36
3, 173158, Note_on_c, 0, 69, 0
3, 173207, Note_on_c, 0, 63, 0
3, 173223, Note_on_c, 0, 72, 60
3, 173362, Note_on_c, 0, 62, 0
3, 173393, Note_on_c, 0, 72, 0
3, 173473, Note_on_c, 0, 69, 69
3, 173525, Note_on_c, 0, 57, 0
3, 173581, Note_on_c, 0, 69, 0
3, 173663, Note_on_c, 0, 57, 25
3, 173711, Note_on_c, 0, 65, 48
3, 173826, Note_on_c, 0, 57, 0
3, 173836, Note_on_c, 0, 65, 0
3, 173967, Note_on_c, 0, 63, 25
3, 174074, Note_on_c, 0, 63, 0
3, 174170, Note_on_c, 0, 60, 22
3, 174229, Note_on_c, 0, 60, 0
3, 174339, Note_on_c, 0, 62, 67
3, 174473, Note_on_c, 0, 62, 0
3, 174571, Note_on_c, 0, 63, 64
3, 174585, Note_on_c, 0, 62, 34
3, 174628, Note_on_c, 0, 62, 0
3, 174681, Note_on_c, 0, 63, 0
3, 174767, Note_on_c, 0, 51, 34
3, 174788, Note_on_c, 0, 41, 38
3, 174792, Note_on_c, 0, 64, 64
3, 174927, Note_on_c, 0, 64, 0
3, 175027, Note_on_c, 0, 65, 64
3, 175159, Note_on_c, 0, 65, 0
3, 175262, Note_on_c, 0, 63, 35
3, 175372, Note_on_c, 0, 63, 0
3, 175376, Note_on_c, 0, 51, 0
3, 175545, Note_on_c, 0, 60, 27
3, 175639, Note_on_c, 0, 60, 0
3, 175733, Note_on_c, 0, 51, 34
3, 175752, Note_on_c, 0, 61, 59
3, 175908, Note_on_c, 0, 41, 0
3, 175916, Note_on_c, 0, 61, 0
3, 175974, Note_on_c, 0, 62, 49
3, 176059, Note_on_c, 0, 51, 0
3, 176080, Note_on_c, 0, 62, 0
3, 176184, Note_on_c, 0, 63, 64
3, 176360, Note_on_c, 0, 63, 0
3, 176390, Control_c, 0, 64, 127
3, 176414, Note_on_c, 0, 64, 47
3, 176583, Control_c, 0, 64, 0
3, 176591, Note_on_c, 0, 64, 0
3, 176657, Note_on_c, 0, 46, 39
3, 176665, Note_on_c, 0, 56, 37
3, 176676, Note_on_c, 0, 65, 75
3, 176993, Note_on_c, 0, 46, 0
3, 177030, Note_on_c, 0, 56, 0
3, 177122, Control_c, 0, 64, 127
3, 177239, Note_on_c, 0, 65, 0
3, 177584, Control_c, 0, 64, 0
3, 177611, Note_on_c, 0, 67, 40
3, 177614, Note_on_c, 0, 56, 33
3, 177617, Note_on_c, 0, 62, 37
3, 177881, Note_on_c, 0, 70, 49
3, 177891, Note_on_c, 0, 67, 0
3, 177917, Note_on_c, 0, 72, 64
3, 177959, Note_on_c, 0, 70, 0
3, 178049, Note_on_c, 0, 70, 34
3, 178061, Note_on_c, 0, 62, 0
3, 178078, Note_on_c, 0, 72, 0
3, 178111, Note_on_c, 0, 56, 0
3, 178229, Note_on_c, 0, 70, 0
3, 178262, Note_on_c, 0, 69, 36
3, 178302, Control_c, 0, 64, 127
3, 178388, Note_on_c, 0, 69, 0
3, 178516, Note_on_c, 0, 70, 57
3, 178533, Control_c, 0, 64, 0
3, 178586, Note_on_c, 0, 62, 35
3, 178592, Note_on_c, 0, 66, 43
3, 178626, Note_on_c, 0, 70, 0
3, 178636, Note_on_c, 0, 56, 33
3, 178810, Note_on_c, 0, 72, 63
3, 179113, Note_on_c, 0, 72, 0
3, 179213, Control_c, 0, 64, 127
3, 179288, Note_on_c, 0, 62, 0
3, 179302, Note_on_c, 0, 72, 80
3, 179332, Note_on_c, 0, 66, 0
3, 179496, Note_on_c, 0, 72, 0
3, 179509, Control_c, 0, 64, 0
3, 179554, Note_on_c, 0, 62, 35
3, 179564, Note_on_c, 0, 66, 38
3, 179630, Note_on_c, 0, 72, 60
3, 179801, Note_on_c, 0, 72, 0
3, 179839, Note_on_c, 0, 62, 0
3, 179875, Note_on_c, 0, 66, 0
3, 179889, Note_on_c, 0, 70, 35
3, 179984, Control_c, 0, 64, 127
3, 180076, Note_on_c, 0, 70, 0
3, 180199, Note_on_c, 0, 72, 69
3, 180232, Note_on_c, 0, 56, 0
3, 180368, Control_c, 0, 64, 0
3, 180506, Note_on_c, 0, 65, 35
3, 180515, Note_on_c, 0, 61, 49
3, 180527, Note_on_c, 0, 55, 25
3, 180586, Control_c, 0, 64, 127
3, 180587, Note_on_c, 0, 65, 0
3, 180658, Note_on_c, 0, 61, 0
3, 180722, Note_on_c, 0, 55, 0
3, 181484, Control_c, 0, 64, 0
3, 181517, Note_on_c, 0, 27, 46
3, 181522, Note_on_c, 0, 61, 47
3, 181554, Note_on_c, 0, 65, 43
3, 181625, Note_on_c, 0, 27, 0
3, 181639, Control_c, 0, 64, 127
3, 181890, Note_on_c, 0, 72, 0
3, 182033, Note_on_c, 0, 65, 0
3, 182105, Note_on_c, 0, 61, 0
3, 182512, Control_c, 0, 64, 0
3, 182530, Note_on_c, 0, 57, 28
3, 182554, Note_on_c, 0, 55, 20
3, 182597, Note_on_c, 0, 55, 0
3, 182650, Note_on_c, 0, 57, 0
3, 182717, Control_c, 0, 64, 127
3, 182920, Note_on_c, 0, 78, 69
3, 183025, Control_c, 0, 64, 0
3, 183065, Note_on_c, 0, 77, 66
3, 183104, Note_on_c, 0, 78, 0
3, 183161, Note_on_c, 0, 77, 0
3, 183294, Control_c, 0, 64, 127
3, 183335, Note_on_c, 0, 75, 58
3, 183435, Control_c, 0, 64, 0
3, 183465, Note_on_c, 0, 64, 25
3, 183468, Note_on_c, 0, 61, 33
3, 183481, Note_on_c, 0, 58, 34
3, 183490, Note_on_c, 0, 55, 30
3, 183491, Note_on_c, 0, 75, 0
3, 183788, Note_on_c, 0, 64, 0
3, 183807, Note_on_c, 0, 70, 71
3, 183858, Note_on_c, 0, 61, 0
3, 183915, Note_on_c, 0, 58, 0
3, 183916, Note_on_c, 0, 55, 0
3, 183923, Note_on_c, 0, 70, 0
3, 184049, Note_on_c, 0, 69, 65
3, 184159, Note_on_c, 0, 69, 0
3, 184218, Note_on_c, 0, 68, 45
3, 184282, Control_c, 0, 64, 127
3, 184326, Note_on_c, 0, 68, 0
3, 184386, Control_c, 0, 64, 0
3, 184392, Note_on_c, 0, 67, 30
3, 184518, Note_on_c, 0, 67, 0
3, 184523, Note_on_c, 0, 66, 47
3, 184528, Note_on_c, 0, 44, 35
3, 184534, Note_on_c, 0, 51, 35
3, 184551, Note_on_c, 0, 55, 30
3, 184690, Note_on_c, 0, 66, 0
3, 184729, Note_on_c, 0, 65, 48
3, 184919, Note_on_c, 0, 65, 0
3, 184991, Note_on_c, 0, 72, 66
3, 185063, Note_on_c, 0, 55, 0
3, 185152, Note_on_c, 0, 72, 0
3, 185246, Note_on_c, 0, 68, 60
3, 185312, Note_on_c, 0, 51, 0
3, 185334, Control_c, 0, 64, 127
3, 185396, Note_on_c, 0, 68, 0
3, 185412, Control_c, 0, 64, 0
3, 185480, Note_on_c, 0, 60, 31
3, 185511, Note_on_c, 0, 55, 28
3, 185621, Note_on_c, 0, 55, 0
3, 185711, Note_on_c, 0, 60, 0
3, 185789, Note_on_c, 0, 63, 51
3, 185861, Control_c, 0, 64, 127
3, 185938, Note_on_c, 0, 63, 0
3, 185989, Control_c, 0, 64, 0
3, 186052, Note_on_c, 0, 65, 71
3, 186092, Control_c, 0, 64, 127
3, 186275, Note_on_c, 0, 65, 0
3, 186278, Note_on_c, 0, 44, 0
3, 186348, Control_c, 0, 64, 0
3, 186362, Note_on_c, 0, 54, 57
3, 186369, Note_on_c, 0, 60, 53
3, 186371, Note_on_c, 0, 70, 67
3, 186372, Note_on_c, 0, 65, 80
3, 186926, Control_c, 0, 64, 127
3, 186996, Note_on_c, 0, 65, 0
3, 187023, Note_on_c, 0, 60, 0
3, 187247, Control_c, 0, 64, 0
3, 187248, Note_on_c, 0, 70, 0
3, 187302, Note_on_c, 0, 44, 42
3, 187312, Note_on_c, 0, 60, 40
3, 187317, Note_on_c, 0, 68, 46
3, 187361, Note_on_c, 0, 65, 35
3, 187504, Control_c, 0, 64, 127
3, 187752, Note_on_c, 0, 65, 0
3, 187842, Note_on_c, 0, 68, 0
3, 187855, Note_on_c, 0, 60, 0
3, 187992, Note_on_c, 0, 44, 0
3, 188013, Note_on_c, 0, 54, 0
3, 188209, Control_c, 0, 64, 0
3, 188211, Note_on_c, 0, 67, 49
3, 188214, Note_on_c, 0, 59, 37
3, 188223, Note_on_c, 0, 63, 36
3, 188250, Note_on_c, 0, 49, 37
3, 188649, Note_on_c, 0, 59, 0
3, 188657, Note_on_c, 0, 63, 0
3, 188684, Note_on_c, 0, 67, 0
3, 188849, Note_on_c, 0, 68, 59
3, 188861, Note_on_c, 0, 59, 58
3, 188871, Note_on_c, 0, 63, 57
3, 188910, Note_on_c, 0, 56, 29
3, 188992, Control_c, 0, 64, 127
3, 189045, Note_on_c, 0, 59, 0
3, 189068, Note_on_c, 0, 63, 0
3, 189076, Note_on_c, 0, 56, 0
3, 189155, Note_on_c, 0, 68, 0
3, 189159, Control_c, 0, 64, 0
3, 189214, Note_on_c, 0, 63, 45
3, 189219, Note_on_c, 0, 58, 36
3, 189221, Note_on_c, 0, 59, 50
3, 189231, Note_on_c, 0, 67, 50
3, 189254, Note_on_c, 0, 70, 40
3, 189372, Note_on_c, 0, 70, 0
3, 189541, Note_on_c, 0, 67, 0
3, 189560, Note_on_c, 0, 59, 0
3, 189594, Note_on_c, 0, 63, 0
3, 189664, Note_on_c, 0, 58, 0
3, 189834, Note_on_c, 0, 70, 52
3, 189840, Note_on_c, 0, 59, 46
3, 189843, Note_on_c, 0, 63, 48
3, 189854, Note_on_c, 0, 58, 47
3, 189859, Note_on_c, 0, 67, 44
3, 190224, Control_c, 0, 64, 127
3, 190277, Note_on_c, 0, 67, 0
3, 190306, Note_on_c, 0, 59, 0
3, 190351, Note_on_c, 0, 63, 0
3, 190355, Note_on_c, 0, 58, 0
3, 190366, Control_c, 0, 64, 0
3, 190386, Note_on_c, 0, 70, 0
3, 190434, Note_on_c, 0, 63, 21
3, 190446, Note_on_c, 0, 69, 41
3, 190448, Note_on_c, 0, 57, 40
3, 190452, Note_on_c, 0, 59, 42
3, 190583, Control_c, 0, 64, 127
3, 190818, Note_on_c, 0, 59, 0
3, 190832, Note_on_c, 0, 63, 0
3, 190865, Control_c, 0, 64, 0
3, 190871, Note_on_c, 0, 57, 0
3, 190903, Note_on_c, 0, 69, 0
3, 191007, Note_on_c, 0, 63, 45
3, 191013, Note_on_c, 0, 68, 43
3, 191019, Note_on_c, 0, 56, 40
3, 191034, Note_on_c, 0, 59, 27
3, 191084, Control_c, 0, 64, 127
3, 191149, Note_on_c, 0, 59, 0
3, 191184, Note_on_c, 0, 56, 0
3, 191190, Note_on_c, 0, 49, 0
3, 191249, Note_on_c, 0, 63, 0
3, 191317, Note_on_c, 0, 68, 0
3, 191953, Note_on_c, 0, 56, 35
3, 191962, Note_on_c, 0, 61, 53
3, 191983, Control_c, 0, 64, 0
3, 191984, Note_on_c, 0, 46, 32
3, 192240, Note_on_c, 0, 61, 0
3, 192278, Note_on_c, 0, 56, 0
3, 192288, Note_on_c, 0, 63, 68
3, 192483, Control_c, 0, 64, 127
3, 192663, Note_on_c, 0, 46, 0
3, 192916, Note_on_c, 0, 48, 52
3, 192958, Control_c, 0, 64, 0
3, 193552, Note_on_c, 0, 56, 51
3, 193553, Note_on_c, 0, 61, 60
3, 193844, Note_on_c, 0, 56, 0
3, 193857, Note_on_c, 0, 61, 0
3, 193862, Note_on_c, 0, 63, 0
3, 193881, Note_on_c, 0, 49, 62
3, 193905, Note_on_c, 0, 48, 0
3, 194199, Note_on_c, 0, 65, 71
3, 194533, Note_on_c, 0, 56, 52
3, 194639, Control_c, 0, 64, 127
3, 194765, Note_on_c, 0, 65, 0
3, 194791, Note_on_c, 0, 56, 0
3, 194818, Control_c, 0, 64, 0
3, 194878, Note_on_c, 0, 50, 48
3, 194896, Note_on_c, 0, 49, 0
3, 195183, Note_on_c, 0, 67, 50
3, 195215, Note_on_c, 0, 56, 25
3, 195223, Note_on_c, 0, 59, 29
3, 195358, Note_on_c, 0, 56, 0
3, 195381, Note_on_c, 0, 67, 0
3, 195397, Note_on_c, 0, 50, 0
3, 195455, Note_on_c, 0, 59, 0
3, 195510, Note_on_c, 0, 50, 53
3, 195563, Control_c, 0, 64, 127
3, 195793, Control_c, 0, 64, 0
3, 195839, Note_on_c, 0, 50, 0
3, 195846, Note_on_c, 0, 68, 40
3, 195858, Note_on_c, 0, 51, 60
3, 195874, Note_on_c, 0, 56, 43
3, 195875, Note_on_c, 0, 61, 43
3, 195880, Note_on_c, 0, 65, 45
3, 196153, Control_c, 0, 64, 127
3, 196166, Control_c, 0, 64, 0
3, 196203, Note_on_c, 0, 51, 0
3, 196268, Control_c, 0, 64, 127
3, 196451, Note_on_c, 0, 65, 0
3, 196522, Note_on_c, 0, 61, 0
3, 196532, Note_on_c, 0, 56, 0
3, 196738, Note_on_c, 0, 68, 0
3, 196820, Control_c, 0, 64, 0
3, 196832, Note_on_c, 0, 56, 35
3, 196838, Note_on_c, 0, 39, 40
3, 196843, Note_on_c, 0, 61, 39
3, 196848, Note_on_c, 0, 65, 37
3, 196962, Control_c, 0, 64, 127
3, 197143, Note_on_c, 0, 56, 0
3, 197238, Note_on_c, 0, 61, 0
3, 197239, Note_on_c, 0, 65, 0
3, 197294, Note_on_c, 0, 39, 0
3, 197760, Note_on_c, 0, 72, 60
3, 197770, Control_c, 0, 64, 0
3, 197781, Note_on_c, 0, 64, 49
3, 197794, Note_on_c, 0, 61, 47
3, 197807, Note_on_c, 0, 60, 35
3, 198052, Control_c, 0, 64, 127
3, 198069, Note_on_c, 0, 60, 0
3, 198188, Note_on_c, 0, 72, 0
3, 198224, Note_on_c, 0, 64, 0
3, 198312, Note_on_c, 0, 61, 0
3, 198642, Control_c, 0, 64, 0
3, 198692, Note_on_c, 0, 70, 40
3, 198696, Note_on_c, 0, 61, 36
3, 198713, Note_on_c, 0, 45, 29
3, 198721, Note_on_c, 0, 55, 24
3, 198722, Note_on_c, 0, 64, 38
3, 198740, Note_on_c, 0, 67, 34
3, 198887, Control_c, 0, 64, 127
3, 198964, Note_on_c, 0, 64, 0
3, 199034, Note_on_c, 0, 45, 0
3, 199043, Note_on_c, 0, 67, 0
3, 199110, Note_on_c, 0, 55, 0
3, 199153, Note_on_c, 0, 61, 0
3, 199304, Note_on_c, 0, 70, 0
3, 199554, Control_c, 0, 64, 0
3, 199673, Note_on_c, 0, 44, 32
3, 199684, Note_on_c, 0, 60, 22
3, 199701, Note_on_c, 0, 63, 27
3, 199718, Note_on_c, 0, 51, 23
3, 199759, Control_c, 0, 64, 127
3, 199892, Note_on_c, 0, 44, 0
3, 199906, Note_on_c, 0, 51, 0
3, 199915, Note_on_c, 0, 60, 0
3, 200003, Note_on_c, 0, 63, 0
3, 200619, Control_c, 0, 64, 0
3, 200644, Note_on_c, 0, 63, 32
3, 200670, Note_on_c, 0, 60, 24
3, 200675, Note_on_c, 0, 56, 33
3, 200734, Control_c, 0, 64, 127
3, 201093, Note_on_c, 0, 60, 0
3, 201173, Note_on_c, 0, 63, 0
3, 201178, Note_on_c, 0, 56, 0
3, 201288, Note_on_c, 0, 87, 84
3, 201535, Note_on_c, 0, 87, 0
3, 201632, Control_c, 0, 64, 0
3, 201649, Note_on_c, 0, 85, 68
3, 201893, Note_on_c, 0, 85, 0
3, 201922, Note_on_c, 0, 80, 53
3, 202065, Note_on_c, 0, 80, 0
3, 202230, Note_on_c, 0, 61, 50
3, 202231, Note_on_c, 0, 77, 47
3, 202250, Note_on_c, 0, 51, 37
3, 202263, Note_on_c, 0, 56, 42
3, 202646, Control_c, 0, 64, 127
3, 202952, Note_on_c, 0, 61, 0
3, 202996, Note_on_c, 0, 56, 0
3, 203005, Note_on_c, 0, 51, 0
3, 203391, Control_c, 0, 64, 0
3, 203497, Note_on_c, 0, 44, 40
3, 203513, Note_on_c, 0, 51, 42
3, 203686, Control_c, 0, 64, 127
3, 203765, Note_on_c, 0, 77, 0
3, 204018, Note_on_c, 0, 44, 0
3, 204040, Note_on_c, 0, 51, 0
3, 204109, Control_c, 0, 64, 0
3, 204156, Note_on_c, 0, 79, 108
3, 204199, Control_c, 0, 64, 127
3, 204360, Note_on_c, 0, 79, 0
3, 204430, Control_c, 0, 64, 0
3, 204431, Note_on_c, 0, 63, 62
3, 204435, Note_on_c, 0, 60, 41
3, 204456, Note_on_c, 0, 56, 52
3, 204474, Note_on_c, 0, 75, 74
3, 204519, Note_on_c, 0, 63, 0
3, 204570, Note_on_c, 0, 60, 0
3, 204605, Note_on_c, 0, 75, 0
3, 204661, Note_on_c, 0, 56, 0
3, 204757, Note_on_c, 0, 72, 54
3, 204907, Note_on_c, 0, 72, 0
3, 205146, Note_on_c, 0, 69, 30
3, 205161, Control_c, 0, 64, 127
3, 205237, Note_on_c, 0, 69, 0
3, 205328, Control_c, 0, 64, 0
3, 205417, Note_on_c, 0, 68, 56
3, 205423, Note_on_c, 0, 61, 35
3, 205429, Note_on_c, 0, 65, 57
3, 205430, Note_on_c, 0, 53, 44
3, 205459, Note_on_c, 0, 56, 37
3, 206020, Note_on_c, 0, 65, 0
3, 206031, Note_on_c, 0, 73, 65
3, 206034, Control_c, 0, 64, 127
3, 206045, Note_on_c, 0, 68, 0
3, 206215, Note_on_c, 0, 61, 0
3, 206283, Note_on_c, 0, 53, 0
3, 206342, Control_c, 0, 64, 0
3, 206353, Note_on_c, 0, 73, 0
3, 206383, Note_on_c, 0, 51, 34
3, 206394, Note_on_c, 0, 61, 53
3, 206403, Note_on_c, 0, 65, 53
3, 206534, Note_on_c, 0, 56, 0
3, 206552, Note_on_c, 0, 51, 0
3, 206637, Control_c, 0, 64, 127
3, 206663, Control_c, 0, 64, 0
3, 206855, Control_c, 0, 64, 127
3, 206892, Note_on_c, 0, 65, 0
3, 206943, Note_on_c, 0, 61, 0
3, 206999, Note_on_c, 0, 51, 49
3, 207227, Control_c, 0, 64, 0
3, 207242, Note_on_c, 0, 51, 0
3, 207307, Note_on_c, 0, 44, 40
3, 207335, Note_on_c, 0, 63, 43
3, 207349, Note_on_c, 0, 60, 24
3, 207376, Note_on_c, 0, 55, 17
3, 207471, Control_c, 0, 64, 127
3, 207546, Note_on_c, 0, 55, 0
3, 207650, Note_on_c, 0, 63, 0
3, 207713, Note_on_c, 0, 60, 0
3, 208215, Control_c, 0, 64, 0
3, 208296, Note_on_c, 0, 51, 29
3, 208308, Note_on_c, 0, 58, 38
3, 208308, Note_on_c, 0, 55, 33
3, 208421, Control_c, 0, 64, 127
3, 208527, Note_on_c, 0, 55, 0
3, 208538, Note_on_c, 0, 44, 0
3, 208588, Note_on_c, 0, 51, 0
3, 208595, Note_on_c, 0, 58, 0
3, 209332, Control_c, 0, 64, 0
3, 209339, Note_on_c, 0, 68, 51
3, 209341, Note_on_c, 0, 64, 58
3, 209347, Note_on_c, 0, 50, 26
3, 209361, Note_on_c, 0, 54, 27
3, 209534, Note_on_c, 0, 68, 0
3, 209552, Note_on_c, 0, 59, 38
3, 209562, Note_on_c, 0, 64, 0
3, 209683, Note_on_c, 0, 59, 0
3, 209824, Note_on_c, 0, 68, 39
3, 209826, Note_on_c, 0, 64, 42
3, 209977, Note_on_c, 0, 64, 0
3, 210006, Note_on_c, 0, 68, 0
3, 210069, Note_on_c, 0, 59, 31
3, 210180, Note_on_c, 0, 59, 0
3, 210288, Note_on_c, 0, 57, 30
3, 210297, Note_on_c, 0, 64, 55
3, 210298, Note_on_c, 0, 68, 46
3, 210441, Note_on_c, 0, 64, 0
3, 210475, Note_on_c, 0, 68, 0
3, 210501, Note_on_c, 0, 57, 0
3, 210517, Note_on_c, 0, 59, 38
3, 210577, Note_on_c, 0, 50, 0
3, 210627, Note_on_c, 0, 59, 0
3, 210726, Note_on_c, 0, 64, 48
3, 210736, Note_on_c, 0, 68, 36
3, 210878, Note_on_c, 0, 64, 0
3, 210904, Note_on_c, 0, 68, 0
3, 210961, Note_on_c, 0, 59, 38
3, 210988, Control_c, 0, 64, 127
3, 211045, Note_on_c, 0, 54, 0
3, 211078, Control_c, 0, 64, 0
3, 211093, Note_on_c, 0, 59, 0
3, 211195, Note_on_c, 0, 65, 53
3, 211208, Note_on_c, 0, 68, 36
3, 211230, Note_on_c, 0, 56, 27
3, 211248, Note_on_c, 0, 49, 17
3, 211402, Note_on_c, 0, 65, 0
3, 211455, Note_on_c, 0, 68, 0
3, 211693, Note_on_c, 0, 65, 52
3, 211700, Note_on_c, 0, 68, 36
3, 211833, Note_on_c, 0, 65, 0
3, 211874, Note_on_c, 0, 68, 0
3, 211886, Control_c, 0, 64, 127
3, 211943, Note_on_c, 0, 60, 28
3, 212070, Note_on_c, 0, 60, 0
3, 212100, Note_on_c, 0, 49, 0
3, 212104, Control_c, 0, 64, 0
3, 212135, Note_on_c, 0, 56, 0
3, 212158, Note_on_c, 0, 58, 82
3, 212166, Note_on_c, 0, 65, 63
3, 212167, Note_on_c, 0, 68, 49
3, 212314, Note_on_c, 0, 65, 0
3, 212358, Note_on_c, 0, 68, 0
3, 212401, Note_on_c, 0, 60, 30
3, 212514, Note_on_c, 0, 60, 0
3, 212606, Note_on_c, 0, 68, 55
3, 212608, Note_on_c, 0, 56, 69
3, 212612, Note_on_c, 0, 65, 60
3, 212625, Note_on_c, 0, 58, 0
3, 212778, Note_on_c, 0, 65, 0
3, 212822, Note_on_c, 0, 68, 0
3, 212849, Note_on_c, 0, 60, 40
3, 212932, Note_on_c, 0, 60, 0
3, 212998, Note_on_c, 0, 56, 0
3, 213079, Note_on_c, 0, 68, 62
3, 213096, Note_on_c, 0, 54, 59
3, 213106, Note_on_c, 0, 59, 50
3, 213108, Note_on_c, 0, 64, 55
3, 213246, Control_c, 0, 64, 127
3, 213377, Note_on_c, 0, 54, 0
3, 213460, Note_on_c, 0, 68, 0
3, 213468, Note_on_c, 0, 59, 0
3, 213530, Note_on_c, 0, 64, 0
3, 214015, Control_c, 0, 64, 0
3, 214056, Note_on_c, 0, 42, 38
3, 214059, Note_on_c, 0, 52, 39
3, 214061, Note_on_c, 0, 64, 43
3, 214076, Note_on_c, 0, 58, 38
3, 214324, Control_c, 0, 64, 127
3, 214443, Note_on_c, 0, 64, 0
3, 214472, Note_on_c, 0, 52, 0
3, 214583, Note_on_c, 0, 58, 0
3, 214701, Note_on_c, 0, 48, 37
3, 214842, Note_on_c, 0, 42, 0
3, 214938, Note_on_c, 0, 48, 0
3, 214953, Control_c, 0, 64, 0
3, 215055, Note_on_c, 0, 63, 38
3, 215060, Note_on_c, 0, 55, 40
3, 215065, Note_on_c, 0, 58, 42
3, 215070, Note_on_c, 0, 51, 39
3, 215071, Note_on_c, 0, 60, 24
3, 215079, Note_on_c, 0, 44, 35
3, 215165, Note_on_c, 0, 55, 0
3, 215197, Control_c, 0, 64, 127
3, 215250, Note_on_c, 0, 60, 0
3, 215284, Note_on_c, 0, 58, 0
3, 215288, Note_on_c, 0, 51, 0
3, 215301, Note_on_c, 0, 44, 0
3, 215326, Note_on_c, 0, 63, 0
3, 216057, Control_c, 0, 64, 0
3, 216058, Note_on_c, 0, 63, 48
3, 216100, Note_on_c, 0, 60, 22
3, 216114, Note_on_c, 0, 56, 31
3, 216300, Control_c, 0, 64, 127
3, 216364, Note_on_c, 0, 72, 63
3, 216375, Note_on_c, 0, 60, 0
3, 216502, Note_on_c, 0, 63, 0
3, 216529, Note_on_c, 0, 72, 0
3, 216667, Note_on_c, 0, 75, 84
3, 216801, Note_on_c, 0, 56, 0
3, 216929, Note_on_c, 0, 75, 0
3, 216994, Control_c, 0, 64, 0
3, 216995, Note_on_c, 0, 77, 72
3, 216998, Note_on_c, 0, 59, 54
3, 217001, Note_on_c, 0, 63, 67
3, 217015, Note_on_c, 0, 53, 61
3, 217166, Note_on_c, 0, 63, 0
3, 217211, Control_c, 0, 64, 127
3, 217215, Note_on_c, 0, 53, 0
3, 217222, Note_on_c, 0, 59, 0
3, 217917, Control_c, 0, 64, 0
3, 217934, Note_on_c, 0, 37, 42
3, 217954, Note_on_c, 0, 44, 38
3, 218045, Note_on_c, 0, 37, 0
3, 218101, Note_on_c, 0, 44, 0
3, 218123, Control_c, 0, 64, 127
3, 218515, Note_on_c, 0, 77, 0
3, 218566, Note_on_c, 0, 80, 57
3, 218576, Note_on_c, 0, 68, 38
3, 218622, Note_on_c, 0, 68, 0
3, 218656, Note_on_c, 0, 80, 0
3, 218854, Control_c, 0, 64, 0
3, 218890, Note_on_c, 0, 36, 36
3, 218901, Note_on_c, 0, 43, 9
3, 218920, Note_on_c, 0, 72, 57
3, 218933, Note_on_c, 0, 84, 38
3, 218945, Note_on_c, 0, 52, 26
3, 219008, Note_on_c, 0, 72, 0
3, 219034, Control_c, 0, 64, 127
3, 219065, Note_on_c, 0, 84, 0
3, 219070, Note_on_c, 0, 36, 0
3, 219143, Note_on_c, 0, 43, 0
3, 219148, Note_on_c, 0, 52, 0
3, 219472, Note_on_c, 0, 89, 90
3, 219743, Note_on_c, 0, 86, 60
3, 219754, Note_on_c, 0, 89, 0
3, 219853, Note_on_c, 0, 87, 59
3, 219919, Control_c, 0, 64, 0
3, 219923, Note_on_c, 0, 86, 0
3, 219936, Note_on_c, 0, 62, 32
3, 219945, Note_on_c, 0, 87, 0
3, 219947, Note_on_c, 0, 88, 62
3, 219956, Note_on_c, 0, 63, 28
3, 219967, Note_on_c, 0, 57, 27
3, 219975, Note_on_c, 0, 67, 27
3, 220144, Note_on_c, 0, 88, 0
3, 220222, Note_on_c, 0, 89, 77
3, 220372, Note_on_c, 0, 89, 0
3, 220438, Note_on_c, 0, 67, 0
3, 220456, Note_on_c, 0, 63, 0
3, 220460, Note_on_c, 0, 87, 70
3, 220484, Control_c, 0, 64, 127
3, 220720, Note_on_c, 0, 83, 51
3, 220783, Note_on_c, 0, 87, 0
3, 220831, Note_on_c, 0, 83, 0
3, 220856, Control_c, 0, 64, 0
3, 220917, Note_on_c, 0, 86, 80
3, 220933, Note_on_c, 0, 63, 53
3, 220936, Note_on_c, 0, 67, 46
3, 221065, Note_on_c, 0, 67, 0
3, 221138, Note_on_c, 0, 62, 0
3, 221151, Note_on_c, 0, 86, 0
3, 221152, Note_on_c, 0, 63, 0
3, 221164, Control_c, 0, 64, 127
3, 221198, Note_on_c, 0, 85, 62
3, 221206, Note_on_c, 0, 57, 0
3, 221309, Note_on_c, 0, 85, 0
3, 221407, Note_on_c, 0, 84, 60
3, 221447, Note_on_c, 0, 86, 42
3, 221511, Note_on_c, 0, 86, 0
3, 221563, Note_on_c, 0, 84, 0
3, 221653, Note_on_c, 0, 81, 68
3, 221772, Note_on_c, 0, 81, 0
3, 221806, Control_c, 0, 64, 0
3, 221853, Note_on_c, 0, 53, 37
3, 221858, Note_on_c, 0, 78, 45
3, 221873, Note_on_c, 0, 63, 27
3, 221879, Note_on_c, 0, 60, 22
3, 221942, Note_on_c, 0, 78, 0
3, 222024, Control_c, 0, 64, 127
3, 222123, Note_on_c, 0, 77, 58
3, 222217, Note_on_c, 0, 53, 0
3, 222234, Note_on_c, 0, 77, 0
3, 222245, Note_on_c, 0, 60, 0
3, 222357, Note_on_c, 0, 63, 0
3, 222395, Note_on_c, 0, 75, 18
3, 222542, Note_on_c, 0, 75, 0
3, 222749, Note_on_c, 0, 65, 56
3, 222755, Note_on_c, 0, 56, 45
3, 222766, Note_on_c, 0, 60, 18
3, 222832, Control_c, 0, 64, 0
3, 223057, Note_on_c, 0, 65, 0
3, 223067, Note_on_c, 0, 75, 61
3, 223103, Note_on_c, 0, 63, 55
3, 223138, Note_on_c, 0, 60, 0
3, 223186, Note_on_c, 0, 63, 0
3, 223262, Note_on_c, 0, 75, 0
3, 223373, Note_on_c, 0, 72, 51
3, 223531, Note_on_c, 0, 72, 0
3, 223639, Note_on_c, 0, 65, 45
3, 223644, Note_on_c, 0, 75, 62
3, 223680, Note_on_c, 0, 63, 40
3, 223682, Note_on_c, 0, 68, 40
3, 223768, Note_on_c, 0, 65, 0
3, 223780, Note_on_c, 0, 63, 0
3, 223783, Note_on_c, 0, 68, 0
3, 223860, Note_on_c, 0, 75, 0
3, 223933, Note_on_c, 0, 56, 0
3, 223963, Note_on_c, 0, 72, 48
3, 224128, Control_c, 0, 64, 127
3, 224134, Note_on_c, 0, 72, 0
3, 224238, Note_on_c, 0, 75, 60
3, 224271, Note_on_c, 0, 63, 50
3, 224404, Note_on_c, 0, 75, 0
3, 224411, Note_on_c, 0, 63, 0
3, 224555, Note_on_c, 0, 73, 42
3, 224574, Note_on_c, 0, 61, 44
3, 224591, Control_c, 0, 64, 0
3, 224592, Note_on_c, 0, 62, 50
3, 224597, Note_on_c, 0, 56, 44
3, 224611, Note_on_c, 0, 70, 35
3, 224666, Note_on_c, 0, 70, 0
3, 224738, Note_on_c, 0, 61, 0
3, 224802, Note_on_c, 0, 62, 0
3, 224812, Note_on_c, 0, 73, 0
3, 224894, Note_on_c, 0, 70, 45
3, 224904, Note_on_c, 0, 56, 0
3, 225055, Note_on_c, 0, 70, 0
3, 225182, Note_on_c, 0, 73, 49
3, 225195, Note_on_c, 0, 61, 53
3, 225204, Note_on_c, 0, 62, 53
3, 225206, Note_on_c, 0, 66, 53
3, 225210, Note_on_c, 0, 56, 48
3, 225394, Note_on_c, 0, 61, 0
3, 225405, Note_on_c, 0, 66, 0
3, 225452, Note_on_c, 0, 73, 0
3, 225489, Note_on_c, 0, 62, 0
3, 225495, Note_on_c, 0, 70, 47
3, 225574, Note_on_c, 0, 56, 0
3, 225689, Note_on_c, 0, 70, 0
3, 225782, Note_on_c, 0, 73, 58
3, 225798, Note_on_c, 0, 61, 56
3, 225804, Note_on_c, 0, 66, 58
3, 225818, Note_on_c, 0, 62, 64
3, 225831, Note_on_c, 0, 56, 52
3, 225976, Note_on_c, 0, 66, 0
3, 225981, Note_on_c, 0, 62, 0
3, 225991, Note_on_c, 0, 61, 0
3, 226044, Note_on_c, 0, 73, 0
3, 226059, Note_on_c, 0, 56, 0
3, 226115, Note_on_c, 0, 70, 58
3, 226136, Note_on_c, 0, 61, 23
3, 226137, Note_on_c, 0, 66, 37
3, 226156, Control_c, 0, 64, 127
3, 226225, Note_on_c, 0, 61, 0
3, 226276, Note_on_c, 0, 66, 0
3, 226304, Note_on_c, 0, 70, 0
3, 226399, Control_c, 0, 64, 0
3, 226425, Note_on_c, 0, 61, 50
3, 226431, Note_on_c, 0, 72, 57
3, 226432, Note_on_c, 0, 69, 54
3, 226447, Note_on_c, 0, 65, 52
3, 226452, Note_on_c, 0, 60, 32
3, 226900, Control_c, 0, 64, 127
3, 227094, Note_on_c, 0, 69, 0
3, 227110, Note_on_c, 0, 61, 0
3, 227158, Note_on_c, 0, 65, 0
3, 227223, Note_on_c, 0, 72, 0
3, 227249, Note_on_c, 0, 60, 0
3, 227461, Note_on_c, 0, 61, 54
3, 227468, Note_on_c, 0, 70, 56
3, 227477, Control_c, 0, 64, 0
3, 227486, Note_on_c, 0, 65, 55
3, 227489, Note_on_c, 0, 58, 40
3, 227657, Control_c, 0, 64, 127
3, 227670, Note_on_c, 0, 58, 0
3, 227900, Note_on_c, 0, 61, 0
3, 227903, Note_on_c, 0, 65, 0
3, 228231, Note_on_c, 0, 70, 0
3, 228466, Control_c, 0, 64, 0
3, 228470, Note_on_c, 0, 67, 48
3, 228477, Note_on_c, 0, 59, 36
3, 228488, Note_on_c, 0, 63, 38
3, 228496, Note_on_c, 0, 56, 28
3, 228550, Note_on_c, 0, 49, 23
3, 228786, Control_c, 0, 64, 127
3, 229049, Note_on_c, 0, 56, 0
3, 229085, Note_on_c, 0, 67, 0
3, 229110, Note_on_c, 0, 59, 0
3, 229252, Note_on_c, 0, 49, 0
3, 229267, Note_on_c, 0, 63, 0
3, 229485, Note_on_c, 0, 61, 55
3, 229505, Control_c, 0, 64, 0
3, 229659, Control_c, 0, 64, 127
3, 230123, Note_on_c, 0, 43, 24
3, 230420, Note_on_c, 0, 61, 0
3, 230442, Control_c, 0, 64, 0
3, 230453, Note_on_c, 0, 36, 38
3, 230512, Note_on_c, 0, 58, 36
3, 230526, Note_on_c, 0, 52, 24
3, 230555, Note_on_c, 0, 43, 0
3, 230606, Note_on_c, 0, 36, 0
3, 230635, Control_c, 0, 64, 127
3, 230728, Note_on_c, 0, 52, 0
3, 230781, Note_on_c, 0, 58, 0
3, 231428, Note_on_c, 0, 64, 44
3, 231441, Note_on_c, 0, 58, 42
3, 231456, Note_on_c, 0, 60, 28
3, 231468, Control_c, 0, 64, 0
3, 231478, Note_on_c, 0, 55, 19
3, 231479, Note_on_c, 0, 64, 0
3, 231509, Note_on_c, 0, 60, 0
3, 231559, Note_on_c, 0, 55, 0
3, 231568, Note_on_c, 0, 58, 0
3, 231785, Note_on_c, 0, 83, 58
3, 231857, Note_on_c, 0, 84, 74
3, 231907, Note_on_c, 0, 83, 0
3, 231997, Note_on_c, 0, 84, 0
3, 232139, Note_on_c, 0, 84, 79
3, 232149, Control_c, 0, 64, 127
3, 232291, Note_on_c, 0, 84, 0
3, 232354, Control_c, 0, 64, 0
3, 232415, Note_on_c, 0, 48, 43
3, 232427, Note_on_c, 0, 58, 43
3, 232454, Note_on_c, 0, 84, 70
3, 232702, Note_on_c, 0, 48, 0
3, 232725, Note_on_c, 0, 84, 0
3, 232751, Note_on_c, 0, 85, 62
3, 232825, Note_on_c, 0, 58, 0
3, 232933, Note_on_c, 0, 85, 0
3, 233035, Control_c, 0, 64, 127
3, 233040, Note_on_c, 0, 84, 62
3, 233316, Control_c, 0, 64, 0
3, 233332, Note_on_c, 0, 63, 44
3, 233338, Note_on_c, 0, 52, 40
3, 233362, Note_on_c, 0, 58, 45
3, 233438, Note_on_c, 0, 63, 0
3, 233461, Note_on_c, 0, 52, 0
3, 233487, Note_on_c, 0, 58, 0
3, 233574, Control_c, 0, 64, 127
3, 233894, Note_on_c, 0, 84, 0
3, 233985, Note_on_c, 0, 83, 57
3, 234228, Control_c, 0, 64, 0
3, 234253, Note_on_c, 0, 83, 0
3, 234325, Note_on_c, 0, 84, 57
3, 234326, Note_on_c, 0, 63, 37
3, 234329, Note_on_c, 0, 67, 40
3, 234347, Note_on_c, 0, 62, 19
3, 234407, Note_on_c, 0, 67, 0
3, 234463, Note_on_c, 0, 62, 0
3, 234471, Control_c, 0, 64, 127
3, 234479, Note_on_c, 0, 63, 0
3, 234847, Note_on_c, 0, 84, 0
3, 234967, Note_on_c, 0, 85, 49
3, 234996, Note_on_c, 0, 73, 25
3, 235089, Note_on_c, 0, 73, 0
3, 235099, Note_on_c, 0, 85, 0
3, 235177, Control_c, 0, 64, 0
3, 235254, Note_on_c, 0, 41, 54
3, 235417, Note_on_c, 0, 41, 0
3, 235473, Control_c, 0, 64, 127
3, 235946, Note_on_c, 0, 86, 80
3, 235958, Note_on_c, 0, 74, 84
3, 235968, Note_on_c, 0, 85, 69
3, 236011, Note_on_c, 0, 85, 0
3, 236139, Note_on_c, 0, 74, 0
3, 236219, Note_on_c, 0, 86, 0
3, 236255, Control_c, 0, 64, 0
3, 236264, Note_on_c, 0, 62, 35
3, 236269, Note_on_c, 0, 67, 49
3, 236276, Note_on_c, 0, 63, 47
3, 236289, Note_on_c, 0, 57, 36
3, 236512, Control_c, 0, 64, 127
3, 236670, Note_on_c, 0, 67, 0
3, 236699, Note_on_c, 0, 62, 0
3, 236735, Note_on_c, 0, 57, 0
3, 236738, Note_on_c, 0, 63, 0
3, 236913, Note_on_c, 0, 89, 94
3, 236925, Note_on_c, 0, 77, 80
3, 236952, Note_on_c, 0, 79, 43
3, 236995, Note_on_c, 0, 79, 0
3, 237155, Note_on_c, 0, 77, 0
3, 237177, Note_on_c, 0, 89, 0
3, 237231, Control_c, 0, 64, 0
3, 237235, Note_on_c, 0, 53, 46
3, 237250, Note_on_c, 0, 60, 32
3, 237270, Note_on_c, 0, 63, 37
3, 237321, Note_on_c, 0, 76, 49
3, 237474, Control_c, 0, 64, 127
3, 237544, Note_on_c, 0, 76, 0
3, 237628, Note_on_c, 0, 53, 0
3, 237649, Note_on_c, 0, 60, 0
3, 237698, Note_on_c, 0, 63, 0
3, 237891, Note_on_c, 0, 87, 62
3, 237899, Note_on_c, 0, 75, 65
3, 238025, Note_on_c, 0, 87, 0
3, 238036, Note_on_c, 0, 75, 0
3, 238193, Note_on_c, 0, 85, 43
3, 238219, Control_c, 0, 64, 0
3, 238220, Note_on_c, 0, 73, 36
3, 238236, Note_on_c, 0, 62, 34
3, 238239, Note_on_c, 0, 67, 29
3, 238260, Note_on_c, 0, 56, 33
3, 238527, Note_on_c, 0, 73, 0
3, 238553, Note_on_c, 0, 85, 0
3, 238567, Note_on_c, 0, 74, 31
3, 238589, Note_on_c, 0, 86, 33
3, 238619, Note_on_c, 0, 67, 0
3, 238646, Note_on_c, 0, 74, 0
3, 238654, Note_on_c, 0, 86, 0
3, 238680, Note_on_c, 0, 62, 0
3, 238809, Control_c, 0, 64, 127
3, 238842, Note_on_c, 0, 86, 58
3, 238846, Note_on_c, 0, 74, 52
3, 238960, Note_on_c, 0, 86, 0
3, 238982, Note_on_c, 0, 74, 0
3, 239079, Control_c, 0, 64, 0
3, 239141, Note_on_c, 0, 85, 53
3, 239152, Note_on_c, 0, 62, 48
3, 239153, Note_on_c, 0, 67, 41
3, 239164, Note_on_c, 0, 73, 35
3, 239348, Control_c, 0, 64, 127
3, 239583, Note_on_c, 0, 73, 0
3, 239602, Note_on_c, 0, 85, 0
3, 239624, Note_on_c, 0, 67, 0
3, 239746, Note_on_c, 0, 56, 0
3, 239759, Note_on_c, 0, 86, 65
3, 239801, Note_on_c, 0, 74, 34
3, 239892, Note_on_c, 0, 62, 0
3, 239953, Note_on_c, 0, 74, 0
3, 239994, Note_on_c, 0, 86, 0
3, 240067, Control_c, 0, 64, 0
3, 240070, Note_on_c, 0, 62, 20
3, 240084, Note_on_c, 0, 66, 36
3, 240096, Note_on_c, 0, 82, 39
3, 240103, Note_on_c, 0, 74, 31
3, 240107, Note_on_c, 0, 56, 34
3, 240438, Control_c, 0, 64, 127
3, 240496, Note_on_c, 0, 74, 0
3, 240600, Note_on_c, 0, 62, 0
3, 240612, Note_on_c, 0, 82, 0
3, 240648, Note_on_c, 0, 66, 0
3, 240685, Note_on_c, 0, 78, 43
3, 240696, Note_on_c, 0, 74, 43
3, 240995, Note_on_c, 0, 78, 0
3, 241007, Note_on_c, 0, 66, 46
3, 241035, Note_on_c, 0, 62, 40
3, 241054, Note_on_c, 0, 74, 0
3, 241194, Note_on_c, 0, 66, 0
3, 241200, Note_on_c, 0, 62, 0
3, 241455, Note_on_c, 0, 56, 0
3, 241946, Note_on_c, 0, 75, 64
3, 241966, Control_c, 0, 64, 0
3, 241977, Note_on_c, 0, 70, 58
3, 241980, Note_on_c, 0, 68, 56
3, 241987, Note_on_c, 0, 64, 35
3, 241992, Note_on_c, 0, 63, 67
3, 242274, Control_c, 0, 64, 127
3, 242636, Note_on_c, 0, 68, 0
3, 242665, Note_on_c, 0, 64, 0
3, 242690, Note_on_c, 0, 70, 0
3, 242864, Note_on_c, 0, 75, 0
3, 242920, Note_on_c, 0, 63, 0
3, 242941, Control_c, 0, 64, 0
3, 242953, Note_on_c, 0, 73, 37
3, 242969, Note_on_c, 0, 64, 38
3, 242981, Note_on_c, 0, 51, 42
3, 242988, Note_on_c, 0, 68, 40
3, 242990, Note_on_c, 0, 70, 40
3, 243083, Control_c, 0, 64, 127
3, 243418, Note_on_c, 0, 64, 0
3, 243504, Note_on_c, 0, 68, 0
3, 243510, Note_on_c, 0, 73, 0
3, 243536, Note_on_c, 0, 70, 0
3, 243917, Control_c, 0, 64, 0
3, 243948, Note_on_c, 0, 70, 42
3, 243953, Note_on_c, 0, 67, 40
3, 243962, Note_on_c, 0, 63, 47
3, 243963, Note_on_c, 0, 64, 38
3, 244237, Control_c, 0, 64, 127
3, 244450, Note_on_c, 0, 67, 0
3, 244457, Note_on_c, 0, 63, 0
3, 244459, Note_on_c, 0, 64, 0
3, 244561, Note_on_c, 0, 51, 0
3, 244828, Control_c, 0, 64, 0
3, 244876, Note_on_c, 0, 67, 41
3, 244885, Note_on_c, 0, 64, 41
3, 244890, Note_on_c, 0, 51, 46
3, 244968, Control_c, 0, 64, 127
3, 245079, Note_on_c, 0, 67, 0
3, 245114, Note_on_c, 0, 70, 0
3, 245117, Note_on_c, 0, 51, 0
3, 245213, Note_on_c, 0, 64, 0
3, 245899, Note_on_c, 0, 60, 35
3, 245915, Note_on_c, 0, 44, 43
3, 245931, Control_c, 0, 64, 0
3, 245933, Note_on_c, 0, 58, 43
3, 245941, Note_on_c, 0, 51, 32
3, 245946, Note_on_c, 0, 55, 25
3, 246354, Control_c, 0, 64, 127
3, 246359, Note_on_c, 0, 51, 0
3, 246387, Note_on_c, 0, 55, 0
3, 246576, Note_on_c, 0, 58, 0
3, 246630, Note_on_c, 0, 60, 0
3, 246906, Control_c, 0, 64, 0
3, 246915, Note_on_c, 0, 60, 29
3, 246919, Note_on_c, 0, 55, 40
3, 246920, Note_on_c, 0, 58, 38
3, 246921, Note_on_c, 0, 51, 39
3, 246924, Note_on_c, 0, 63, 46
3, 247044, Note_on_c, 0, 51, 0
3, 247078, Note_on_c, 0, 44, 0
3, 247151, Control_c, 0, 64, 127
3, 247343, Note_on_c, 0, 60, 0
3, 247373, Note_on_c, 0, 55, 0
3, 247407, Note_on_c, 0, 58, 0
3, 247582, Note_on_c, 0, 63, 0
3, 247818, Control_c, 0, 64, 0
3, 247894, Note_on_c, 0, 53, 40
3, 247896, Note_on_c, 0, 37, 47
3, 247901, Note_on_c, 0, 65, 37
3, 247913, Note_on_c, 0, 60, 32
3, 247925, Note_on_c, 0, 44, 34
3, 248087, Control_c, 0, 64, 127
3, 248103, Note_on_c, 0, 37, 0
3, 248112, Note_on_c, 0, 53, 0
3, 248166, Note_on_c, 0, 44, 0
3, 248296, Note_on_c, 0, 60, 0
3, 248299, Note_on_c, 0, 65, 0
3, 248780, Control_c, 0, 64, 0
3, 248794, Note_on_c, 0, 68, 61
3, 248797, Note_on_c, 0, 60, 43
3, 248807, Note_on_c, 0, 63, 53
3, 248811, Note_on_c, 0, 65, 50
3, 248817, Note_on_c, 0, 56, 52
3, 249024, Control_c, 0, 64, 127
3, 249104, Note_on_c, 0, 60, 0
3, 249116, Note_on_c, 0, 65, 0
3, 249149, Note_on_c, 0, 63, 0
3, 249179, Note_on_c, 0, 56, 0
3, 249186, Note_on_c, 0, 68, 0
3, 249640, Control_c, 0, 64, 0
3, 249704, Note_on_c, 0, 72, 60
3, 249713, Note_on_c, 0, 67, 57
3, 249716, Note_on_c, 0, 60, 42
3, 249718, Note_on_c, 0, 48, 43
3, 249728, Note_on_c, 0, 58, 38
3, 249879, Note_on_c, 0, 60, 0
3, 249883, Control_c, 0, 64, 127
3, 249885, Note_on_c, 0, 48, 0
3, 250008, Note_on_c, 0, 67, 0
3, 250009, Note_on_c, 0, 58, 0
3, 250094, Note_on_c, 0, 72, 0
3, 250615, Control_c, 0, 64, 0
3, 250627, Note_on_c, 0, 64, 42
3, 250641, Note_on_c, 0, 87, 64
3, 250642, Note_on_c, 0, 58, 44
3, 250646, Note_on_c, 0, 75, 53
3, 250647, Note_on_c, 0, 60, 31
3, 250649, Note_on_c, 0, 82, 53
3, 250796, Note_on_c, 0, 64, 0
3, 250818, Note_on_c, 0, 60, 0
3, 250872, Control_c, 0, 64, 127
3, 250881, Note_on_c, 0, 58, 0
3, 250955, Note_on_c, 0, 82, 0
3, 250969, Note_on_c, 0, 75, 0
3, 251010, Note_on_c, 0, 87, 0
3, 251281, Note_on_c, 0, 86, 64
3, 251288, Note_on_c, 0, 74, 55
3, 251289, Note_on_c, 0, 78, 46
3, 251305, Note_on_c, 0, 81, 43
3, 251359, Note_on_c, 0, 81, 0
3, 251368, Note_on_c, 0, 78, 0
3, 251372, Control_c, 0, 64, 0
3, 251373, Note_on_c, 0, 74, 0
3, 251394, Note_on_c, 0, 86, 0
3, 251546, Note_on_c, 0, 41, 47
3, 251616, Control_c, 0, 64, 127
3, 251716, Note_on_c, 0, 41, 0
3, 252185, Note_on_c, 0, 85, 74
3, 252195, Note_on_c, 0, 73, 69
3, 252207, Note_on_c, 0, 78, 59
3, 252236, Note_on_c, 0, 81, 40
3, 252390, Note_on_c, 0, 78, 0
3, 252402, Note_on_c, 0, 73, 0
3, 252404, Note_on_c, 0, 85, 0
3, 252424, Control_c, 0, 64, 0
3, 252442, Note_on_c, 0, 81, 0
3, 252492, Note_on_c, 0, 51, 42
3, 252500, Note_on_c, 0, 62, 38
3, 252522, Note_on_c, 0, 57, 36
3, 252540, Note_on_c, 0, 78, 40
3, 252543, Note_on_c, 0, 84, 57
3, 252554, Note_on_c, 0, 72, 49
3, 252584, Note_on_c, 0, 81, 25
3, 252630, Control_c, 0, 64, 127
3, 252845, Note_on_c, 0, 57, 0
3, 252881, Note_on_c, 0, 51, 0
3, 252953, Note_on_c, 0, 62, 0
3, 252954, Note_on_c, 0, 72, 0
3, 253067, Note_on_c, 0, 84, 0
3, 253089, Note_on_c, 0, 78, 0
3, 253100, Note_on_c, 0, 81, 0
3, 253442, Note_on_c, 0, 84, 92
3, 253447, Note_on_c, 0, 79, 90
3, 253452, Note_on_c, 0, 74, 92
3, 253453, Note_on_c, 0, 62, 80
3, 253456, Note_on_c, 0, 67, 90
3, 253457, Note_on_c, 0, 56, 90
3, 253467, Control_c, 0, 64, 0
3, 253698, Control_c, 0, 64, 127
3, 253908, Note_on_c, 0, 74, 0
3, 253928, Note_on_c, 0, 79, 0
3, 253998, Note_on_c, 0, 84, 0
3, 254042, Note_on_c, 0, 67, 0
3, 254124, Note_on_c, 0, 62, 0
3, 254224, Note_on_c, 0, 56, 0
3, 254379, Control_c, 0, 64, 0
3, 254407, Note_on_c, 0, 83, 69
3, 254411, Note_on_c, 0, 78, 65
3, 254412, Note_on_c, 0, 73, 57
3, 254422, Note_on_c, 0, 55, 58
3, 254424, Note_on_c, 0, 61, 55
3, 254426, Note_on_c, 0, 66, 60
3, 254436, Note_on_c, 0, 82, 45
3, 254614, Note_on_c, 0, 55, 0
3, 254622, Control_c, 0, 64, 127
3, 254668, Note_on_c, 0, 82, 0
3, 254698, Note_on_c, 0, 83, 0
3, 254747, Note_on_c, 0, 66, 0
3, 254750, Note_on_c, 0, 61, 0
3, 254767, Note_on_c, 0, 73, 0
3, 254810, Note_on_c, 0, 78, 0
3, 254943, Control_c, 0, 64, 0
3, 255007, Note_on_c, 0, 62, 63
3, 255011, Note_on_c, 0, 56, 67
3, 255012, Note_on_c, 0, 67, 51
3, 255024, Note_on_c, 0, 84, 78
3, 255035, Note_on_c, 0, 79, 68
3, 255037, Note_on_c, 0, 74, 71
3, 255135, Control_c, 0, 64, 127
3, 255165, Note_on_c, 0, 67, 0
3, 255198, Note_on_c, 0, 79, 0
3, 255218, Note_on_c, 0, 62, 0
3, 255236, Note_on_c, 0, 74, 0
3, 255272, Note_on_c, 0, 84, 0
3, 255288, Note_on_c, 0, 56, 0
3, 255341, Control_c, 0, 64, 0
3, 255445, Note_on_c, 0, 84, 65
3, 255447, Note_on_c, 0, 66, 70
3, 255449, Note_on_c, 0, 81, 57
3, 255454, Note_on_c, 0, 55, 68
3, 255455, Note_on_c, 0, 61, 59
3, 255462, Note_on_c, 0, 72, 49
3, 255467, Note_on_c, 0, 77, 56
3, 255714, Note_on_c, 0, 55, 0
3, 255723, Note_on_c, 0, 72, 0
3, 255724, Note_on_c, 0, 77, 0
3, 255746, Note_on_c, 0, 84, 0
3, 255747, Note_on_c, 0, 61, 0
3, 255765, Note_on_c, 0, 66, 0
3, 255767, Note_on_c, 0, 81, 0
3, 256069, Note_on_c, 0, 66, 60
3, 256070, Note_on_c, 0, 84, 50
3, 256080, Note_on_c, 0, 61, 54
3, 256082, Note_on_c, 0, 81, 43
3, 256084, Note_on_c, 0, 72, 41
3, 256092, Note_on_c, 0, 77, 47
3, 256094, Note_on_c, 0, 55, 51
3, 256393, Control_c, 0, 64, 127
3, 256624, Note_on_c, 0, 84, 0
3, 256673, Note_on_c, 0, 81, 0
3, 256702, Note_on_c, 0, 77, 0
3, 256710, Note_on_c, 0, 66, 0
3, 256742, Note_on_c, 0, 72, 0
3, 256794, Note_on_c, 0, 61, 0
3, 257131, Note_on_c, 0, 57, 44
3, 257158, Note_on_c, 0, 58, 53
3, 257183, Note_on_c, 0, 55, 0
3, 257256, Note_on_c, 0, 59, 74
3, 257264, Note_on_c, 0, 57, 0
3, 257318, Control_c, 0, 64, 0
3, 257319, Note_on_c, 0, 58, 0
3, 257344, Note_on_c, 0, 70, 70
3, 257350, Note_on_c, 0, 72, 69
3, 257363, Note_on_c, 0, 66, 75
3, 257365, Note_on_c, 0, 68, 67
3, 257375, Note_on_c, 0, 64, 74
3, 257391, Note_on_c, 0, 60, 33
3, 257437, Note_on_c, 0, 59, 0
3, 257805, Control_c, 0, 64, 127
3, 258230, Note_on_c, 0, 60, 0
3, 258321, Note_on_c, 0, 48, 46
3, 258480, Note_on_c, 0, 48, 0
3, 258528, Note_on_c, 0, 64, 0
3, 258649, Note_on_c, 0, 66, 0
3, 258660, Note_on_c, 0, 68, 0
3, 258675, Note_on_c, 0, 72, 0
3, 258703, Note_on_c, 0, 70, 0
3, 259266, Note_on_c, 0, 75, 64
3, 259269, Control_c, 0, 64, 0
3, 259271, Note_on_c, 0, 73, 49
3, 259272, Note_on_c, 0, 77, 66
3, 259274, Note_on_c, 0, 69, 66
3, 259276, Note_on_c, 0, 71, 72
3, 259295, Note_on_c, 0, 65, 66
3, 259373, Note_on_c, 0, 69, 0
3, 259413, Note_on_c, 0, 65, 0
3, 259414, Note_on_c, 0, 71, 0
3, 259419, Note_on_c, 0, 73, 0
3, 259427, Note_on_c, 0, 77, 0
3, 259460, Note_on_c, 0, 75, 0
3, 259755, Note_on_c, 0, 77, 61
3, 259757, Note_on_c, 0, 73, 39
3, 259759, Note_on_c, 0, 75, 52
3, 259760, Note_on_c, 0, 65, 67
3, 259764, Note_on_c, 0, 69, 58
3, 259765, Note_on_c, 0, 71, 63
3, 259908, Note_on_c, 0, 69, 0
3, 259924, Note_on_c, 0, 71, 0
3, 259933, Note_on_c, 0, 65, 0
3, 259940, Note_on_c, 0, 77, 0
3, 259947, Note_on_c, 0, 73, 0
3, 259966, Note_on_c, 0, 75, 0
3, 260212, Note_on_c, 0, 77, 48
3, 260217, Note_on_c, 0, 73, 36
3, 260219, Note_on_c, 0, 69, 43
3, 260225, Note_on_c, 0, 71, 62
3, 260229, Note_on_c, 0, 65, 58
3, 260249, Note_on_c, 0, 75, 37
3, 260365, Control_c, 0, 64, 127
3, 260422, Note_on_c, 0, 65, 0
3, 260436, Note_on_c, 0, 77, 0
3, 260458, Note_on_c, 0, 75, 0
3, 260460, Note_on_c, 0, 71, 0
3, 260474, Note_on_c, 0, 73, 0
3, 260482, Note_on_c, 0, 69, 0
3, 261084, Control_c, 0, 64, 0
3, 261166, Note_on_c, 0, 46, 42
3, 261168, Note_on_c, 0, 72, 53
3, 261169, Note_on_c, 0, 62, 54
3, 261171, Note_on_c, 0, 67, 46
3, 261172, Note_on_c, 0, 56, 35
3, 261247, Note_on_c, 0, 62, 0
3, 261273, Note_on_c, 0, 72, 0
3, 261277, Note_on_c, 0, 67, 0
3, 261286, Note_on_c, 0, 56, 0
3, 261314, Note_on_c, 0, 46, 0
3, 261670, Note_on_c, 0, 72, 44
3, 261681, Note_on_c, 0, 62, 51
3, 261690, Note_on_c, 0, 56, 39
3, 261692, Note_on_c, 0, 67, 44
3, 261695, Note_on_c, 0, 46, 33
3, 261780, Note_on_c, 0, 62, 0
3, 261807, Note_on_c, 0, 67, 0
3, 261808, Note_on_c, 0, 56, 0
3, 261810, Note_on_c, 0, 72, 0
3, 261823, Note_on_c, 0, 46, 0
3, 262171, Note_on_c, 0, 72, 46
3, 262184, Note_on_c, 0, 67, 49
3, 262188, Note_on_c, 0, 46, 32
3, 262189, Note_on_c, 0, 56, 33
3, 262191, Note_on_c, 0, 62, 33
3, 262278, Control_c, 0, 64, 127
3, 262723, Note_on_c, 0, 56, 0
3, 262740, Note_on_c, 0, 46, 0
3, 262768, Note_on_c, 0, 67, 0
3, 262777, Note_on_c, 0, 62, 0
3, 262817, Note_on_c, 0, 72, 0
3, 262932, Control_c, 0, 64, 0
3, 263074, Note_on_c, 0, 72, 48
3, 263079, Note_on_c, 0, 66, 51
3, 263087, Note_on_c, 0, 62, 40
3, 263090, Note_on_c, 0, 46, 35
3, 263103, Note_on_c, 0, 56, 33
3, 263166, Note_on_c, 0, 62, 0
3, 263189, Note_on_c, 0, 66, 0
3, 263199, Note_on_c, 0, 56, 0
3, 263201, Note_on_c, 0, 72, 0
3, 263215, Note_on_c, 0, 46, 0
3, 263546, Note_on_c, 0, 72, 41
3, 263550, Note_on_c, 0, 66, 45
3, 263558, Note_on_c, 0, 62, 33
3, 263562, Note_on_c, 0, 46, 39
3, 263567, Note_on_c, 0, 56, 37
3, 263644, Note_on_c, 0, 62, 0
3, 263669, Note_on_c, 0, 56, 0
3, 263678, Note_on_c, 0, 72, 0
3, 263682, Note_on_c, 0, 66, 0
3, 263688, Note_on_c, 0, 46, 0
3, 264018, Note_on_c, 0, 72, 40
3, 264025, Note_on_c, 0, 66, 48
3, 264033, Note_on_c, 0, 62, 36
3, 264043, Note_on_c, 0, 46, 39
3, 264047, Note_on_c, 0, 56, 39
3, 264176, Control_c, 0, 64, 127
3, 264466, Note_on_c, 0, 62, 0
3, 264471, Note_on_c, 0, 56, 0
3, 264501, Note_on_c, 0, 46, 0
3, 264699, Note_on_c, 0, 66, 0
3, 264725, Note_on_c, 0, 72, 0
3, 264857, Control_c, 0, 64, 0
3, 264938, Note_on_c, 0, 72, 46
3, 264962, Note_on_c, 0, 61, 36
3, 264968, Note_on_c, 0, 65, 49
3, 264975, Note_on_c, 0, 58, 33
3, 264980, Note_on_c, 0, 51, 42
3, 265072, Note_on_c, 0, 58, 0
3, 265096, Note_on_c, 0, 61, 0
3, 265100, Note_on_c, 0, 65, 0
3, 265115, Note_on_c, 0, 51, 0
3, 265117, Note_on_c, 0, 72, 0
3, 265420, Note_on_c, 0, 72, 42
3, 265433, Note_on_c, 0, 61, 37
3, 265434, Note_on_c, 0, 58, 49
3, 265442, Note_on_c, 0, 65, 46
3, 265467, Note_on_c, 0, 51, 38
3, 265528, Note_on_c, 0, 61, 0
3, 265552, Note_on_c, 0, 58, 0
3, 265563, Note_on_c, 0, 51, 0
3, 265565, Note_on_c, 0, 72, 0
3, 265573, Note_on_c, 0, 65, 0
3, 265897, Note_on_c, 0, 72, 47
3, 265908, Note_on_c, 0, 61, 37
3, 265914, Note_on_c, 0, 65, 48
3, 265919, Note_on_c, 0, 58, 39
3, 265929, Note_on_c, 0, 51, 40
3, 265948, Control_c, 0, 64, 127
3, 266068, Note_on_c, 0, 58, 0
3, 266124, Note_on_c, 0, 51, 0
3, 266336, Note_on_c, 0, 65, 0
3, 266368, Note_on_c, 0, 61, 0
3, 266569, Note_on_c, 0, 72, 0
3, 266820, Control_c, 0, 64, 0
3, 266870, Note_on_c, 0, 72, 58
3, 266896, Note_on_c, 0, 61, 31
3, 266898, Note_on_c, 0, 64, 44
3, 266905, Note_on_c, 0, 39, 31
3, 266910, Note_on_c, 0, 27, 38
3, 266920, Note_on_c, 0, 67, 42
3, 266998, Note_on_c, 0, 61, 0
3, 267020, Note_on_c, 0, 64, 0
3, 267037, Note_on_c, 0, 39, 0
3, 267050, Note_on_c, 0, 67, 0
3, 267056, Note_on_c, 0, 27, 0
3, 267144, Note_on_c, 0, 72, 0
3, 267342, Note_on_c, 0, 72, 54
3, 267356, Note_on_c, 0, 61, 32
3, 267358, Note_on_c, 0, 27, 39
3, 267369, Note_on_c, 0, 39, 31
3, 267373, Note_on_c, 0, 64, 44
3, 267414, Note_on_c, 0, 67, 29
3, 267501, Note_on_c, 0, 64, 0
3, 267508, Note_on_c, 0, 61, 0
3, 267512, Note_on_c, 0, 67, 0
3, 267529, Note_on_c, 0, 39, 0
3, 267541, Note_on_c, 0, 27, 0
3, 267558, Note_on_c, 0, 72, 0
3, 267819, Note_on_c, 0, 61, 35
3, 267825, Note_on_c, 0, 72, 43
3, 267837, Note_on_c, 0, 64, 45
3, 267838, Note_on_c, 0, 27, 48
3, 267848, Note_on_c, 0, 39, 35
3, 267872, Control_c, 0, 64, 127
3, 267885, Note_on_c, 0, 67, 27
3, 267960, Note_on_c, 0, 27, 0
3, 268013, Note_on_c, 0, 39, 0
3, 268026, Note_on_c, 0, 72, 0
3, 268061, Note_on_c, 0, 67, 0
3, 268107, Note_on_c, 0, 64, 0
3, 268217, Note_on_c, 0, 61, 0
3, 268835, Control_c, 0, 64, 0
3, 268836, Note_on_c, 0, 60, 30
3, 268843, Note_on_c, 0, 63, 46
3, 268857, Note_on_c, 0, 44, 34
3, 268862, Note_on_c, 0, 55, 29
3, 268871, Note_on_c, 0, 58, 37
3, 268890, Note_on_c, 0, 51, 31
3, 269132, Note_on_c, 0, 63, 0
3, 269166, Note_on_c, 0, 55, 0
3, 269186, Note_on_c, 0, 58, 0
3, 269187, Note_on_c, 0, 60, 0
3, 269414, Note_on_c, 0, 58, 42
3, 269419, Note_on_c, 0, 55, 36
3, 269431, Note_on_c, 0, 63, 27
3, 269433, Note_on_c, 0, 60, 28
3, 269530, Note_on_c, 0, 55, 0
3, 269571, Note_on_c, 0, 58, 0
3, 269581, Note_on_c, 0, 60, 0
3, 269649, Note_on_c, 0, 63, 0
3, 269876, Note_on_c, 0, 58, 43
3, 269885, Note_on_c, 0, 55, 35
3, 269891, Note_on_c, 0, 60, 29
3, 269892, Note_on_c, 0, 63, 21
3, 269956, Note_on_c, 0, 55, 0
3, 269981, Note_on_c, 0, 58, 0
3, 270006, Note_on_c, 0, 60, 0
3, 270041, Note_on_c, 0, 63, 0
3, 270042, Note_on_c, 0, 51, 0
3, 270143, Control_c, 0, 64, 127
3, 270375, Control_c, 0, 64, 0
3, 270451, Note_on_c, 0, 63, 43
3, 270453, Note_on_c, 0, 58, 53
3, 270472, Note_on_c, 0, 51, 35
3, 270482, Note_on_c, 0, 55, 31
3, 270526, Note_on_c, 0, 55, 0
3, 270580, Control_c, 0, 64, 127
3, 270641, Note_on_c, 0, 58, 0
3, 270653, Note_on_c, 0, 63, 0
3, 270664, Note_on_c, 0, 51, 0
3, 270675, Note_on_c, 0, 44, 0
3, 270773, Control_c, 0, 64, 0
3, 270834, Note_on_c, 0, 56, 37
3, 270836, Note_on_c, 0, 63, 39
3, 270850, Note_on_c, 0, 47, 44
3, 270858, Note_on_c, 0, 61, 50
3, 271070, Note_on_c, 0, 47, 0
3, 271089, Note_on_c, 0, 63, 0
3, 271098, Note_on_c, 0, 56, 0
3, 271108, Note_on_c, 0, 61, 0
3, 271752, Note_on_c, 0, 61, 46
3, 271766, Note_on_c, 0, 56, 25
3, 271767, Note_on_c, 0, 47, 42
3, 271773, Note_on_c, 0, 63, 31
3, 272018, Control_c, 0, 64, 127
3, 272116, Note_on_c, 0, 47, 0
3, 272180, Note_on_c, 0, 56, 0
3, 272323, Note_on_c, 0, 61, 0
3, 272348, Note_on_c, 0, 63, 0
3, 272620, Control_c, 0, 64, 0
3, 272706, Note_on_c, 0, 40, 32
3, 272707, Note_on_c, 0, 63, 32
3, 272708, Note_on_c, 0, 61, 56
3, 272724, Note_on_c, 0, 56, 37
3, 272747, Note_on_c, 0, 52, 17
3, 272985, Note_on_c, 0, 56, 0
3, 272996, Note_on_c, 0, 40, 0
3, 273013, Note_on_c, 0, 52, 0
3, 273022, Note_on_c, 0, 61, 0
3, 273034, Note_on_c, 0, 63, 0
3, 273311, Note_on_c, 0, 40, 35
3, 273326, Note_on_c, 0, 61, 43
3, 273327, Note_on_c, 0, 56, 38
3, 273328, Note_on_c, 0, 63, 29
3, 273342, Note_on_c, 0, 52, 19
3, 273600, Note_on_c, 0, 63, 0
3, 273615, Note_on_c, 0, 56, 0
3, 273637, Note_on_c, 0, 61, 0
3, 273639, Note_on_c, 0, 40, 0
3, 273641, Note_on_c, 0, 52, 0
3, 274250, Note_on_c, 0, 40, 35
3, 274253, Note_on_c, 0, 61, 39
3, 274258, Note_on_c, 0, 56, 39
3, 274266, Note_on_c, 0, 63, 27
3, 274467, Note_on_c, 0, 63, 0
3, 274489, Note_on_c, 0, 56, 0
3, 274518, Note_on_c, 0, 61, 0
3, 274598, Note_on_c, 0, 40, 0
3, 274800, Note_on_c, 0, 56, 44
3, 274804, Note_on_c, 0, 61, 53
3, 274827, Note_on_c, 0, 63, 38
3, 274828, Note_on_c, 0, 45, 44
3, 274971, Note_on_c, 0, 45, 0
3, 275007, Note_on_c, 0, 63, 0
3, 275023, Note_on_c, 0, 56, 0
3, 275033, Note_on_c, 0, 61, 0
3, 275408, Note_on_c, 0, 61, 38
3, 275412, Note_on_c, 0, 45, 38
3, 275418, Note_on_c, 0, 63, 30
3, 275421, Note_on_c, 0, 56, 26
3, 275611, Note_on_c, 0, 63, 0
3, 275613, Note_on_c, 0, 45, 0
3, 275650, Note_on_c, 0, 56, 0
3, 275691, Note_on_c, 0, 61, 0
3, 276191, Note_on_c, 0, 63, 39
3, 276212, Note_on_c, 0, 55, 33
3, 276213, Note_on_c, 0, 60, 30
3, 276216, Note_on_c, 0, 44, 38
3, 276230, Note_on_c, 0, 58, 39
3, 276305, Control_c, 0, 64, 127
3, 277083, Note_on_c, 0, 55, 0
3, 277089, Note_on_c, 0, 60, 0
3, 277094, Note_on_c, 0, 58, 0
3, 277127, Note_on_c, 0, 63, 0
3, 277154, Note_on_c, 0, 44, 0
3, 278529, Note_on_c, 0, 32, 40
3, 279318, Note_on_c, 0, 32, 0
3, 280482, Note_on_c, 0, 75, 26
3, 280485, Note_on_c, 0, 72, 34
3, 280522, Note_on_c, 0, 82, 27
3, 280523, Note_on_c, 0, 87, 33
3, 280533, Note_on_c, 0, 79, 24
3, 280537, Note_on_c, 0, 84, 30
3, 282230, Note_on_c, 0, 79, 0
3, 282233, Note_on_c, 0, 82, 0
3, 282251, Note_on_c, 0, 84, 0
3, 282272, Note_on_c, 0, 72, 0
3, 282278, Note_on_c, 0, 75, 0
3, 282293, Note_on_c, 0, 87, 0
3, 283955, Control_c, 0, 64, 0
3, 283955, End_track
4, 0, Start_track
4, 0, Title_t, "MIDI 1"
4, 0, End_track
5, 0, Start_track
5, 0, Title_t, "MIDI 2"
5, 0, End_track
0, 0, End_of_file
