0, 0, Header, 1, 4, 120
1, 0, Start_track
1, 0, Title_t, "I've Grown Accustomed to Her Face"
1, 0, Text_t, "Doug McKenzie    dougmck@pipeline.com.au\012"
1, 0, Time_signature, 4, 2, 24, 8
1, 0, Key_signature, -3, "major"
1, 0, Tempo, 451128
1, 0, Marker_t, "I've Grown Accustomed to Her Face  dougmck@pipeline.com.au"
1, 0, End_track
2, 0, Start_track
2, 0, MIDI_port, 0
2, 0, Title_t, "Accoustic Piano"
2, 0, Program_c, 0, 0
2, 107, Note_on_c, 0, 63, 91
2, 112, Note_on_c, 0, 51, 74
2, 208, Note_on_c, 0, 65, 84
2, 208, Note_on_c, 0, 53, 84
2, 209, Note_on_c, 0, 63, 0
2, 212, Control_c, 0, 64, 127
2, 224, Note_on_c, 0, 51, 0
2, 369, Note_on_c, 0, 67, 85
2, 377, Note_on_c, 0, 55, 79
2, 379, Note_on_c, 0, 65, 0
2, 381, Control_c, 0, 64, 0
2, 383, Note_on_c, 0, 53, 0
2, 415, Control_c, 0, 64, 127
2, 495, Note_on_c, 0, 55, 0
2, 538, Note_on_c, 0, 67, 0
2, 588, Note_on_c, 0, 70, 86
2, 590, Note_on_c, 0, 67, 81
2, 592, Note_on_c, 0, 62, 80
2, 594, Note_on_c, 0, 39, 67
2, 594, Control_c, 0, 64, 0
2, 655, Control_c, 0, 64, 127
2, 681, Note_on_c, 0, 46, 67
2, 686, Note_on_c, 0, 39, 0
2, 721, Note_on_c, 0, 62, 0
2, 725, Note_on_c, 0, 67, 0
2, 743, Note_on_c, 0, 70, 0
2, 767, Note_on_c, 0, 46, 0
2, 773, Note_on_c, 0, 70, 78
2, 773, Note_on_c, 0, 55, 68
2, 774, Note_on_c, 0, 67, 75
2, 775, Note_on_c, 0, 62, 70
2, 856, Note_on_c, 0, 62, 0
2, 864, Note_on_c, 0, 70, 0
2, 865, Note_on_c, 0, 67, 0
2, 879, Note_on_c, 0, 58, 60
2, 880, Note_on_c, 0, 62, 66
2, 881, Note_on_c, 0, 70, 75
2, 883, Note_on_c, 0, 67, 74
2, 884, Note_on_c, 0, 55, 0
2, 926, Note_on_c, 0, 62, 0
2, 948, Note_on_c, 0, 67, 0
2, 967, Note_on_c, 0, 70, 0
2, 999, Note_on_c, 0, 62, 52
2, 999, Note_on_c, 0, 70, 60
2, 1000, Note_on_c, 0, 67, 71
2, 1019, Note_on_c, 0, 58, 0
2, 1074, Note_on_c, 0, 67, 0
2, 1078, Note_on_c, 0, 70, 0
2, 1109, Note_on_c, 0, 62, 0
2, 1117, Note_on_c, 0, 58, 35
2, 1122, Note_on_c, 0, 67, 45
2, 1124, Note_on_c, 0, 70, 48
2, 1125, Note_on_c, 0, 62, 39
2, 1147, Note_on_c, 0, 58, 0
2, 1150, Note_on_c, 0, 67, 0
2, 1163, Note_on_c, 0, 70, 0
2, 1167, Note_on_c, 0, 62, 0
2, 1287, Note_on_c, 0, 65, 38
2, 1288, Note_on_c, 0, 62, 43
2, 1288, Note_on_c, 0, 58, 52
2, 1288, Control_c, 0, 64, 0
2, 1289, Note_on_c, 0, 54, 28
2, 1293, Note_on_c, 0, 44, 30
2, 1326, Note_on_c, 0, 58, 0
2, 1329, Note_on_c, 0, 62, 0
2, 1331, Control_c, 0, 64, 127
2, 1337, Note_on_c, 0, 65, 0
2, 1389, Note_on_c, 0, 54, 0
2, 1392, Note_on_c, 0, 51, 34
2, 1395, Note_on_c, 0, 77, 64
2, 1406, Note_on_c, 0, 44, 0
2, 1408, Note_on_c, 0, 51, 0
2, 1458, Note_on_c, 0, 77, 0
2, 1490, Note_on_c, 0, 77, 40
2, 1491, Note_on_c, 0, 70, 43
2, 1497, Note_on_c, 0, 65, 24
2, 1498, Note_on_c, 0, 74, 44
2, 1499, Note_on_c, 0, 54, 36
2, 1506, Note_on_c, 0, 65, 0
2, 1508, Note_on_c, 0, 74, 0
2, 1509, Note_on_c, 0, 70, 0
2, 1524, Note_on_c, 0, 77, 0
2, 1584, Note_on_c, 0, 89, 57
2, 1584, Note_on_c, 0, 91, 44
2, 1589, Note_on_c, 0, 60, 26
2, 1603, Note_on_c, 0, 91, 0
2, 1612, Note_on_c, 0, 89, 0
2, 1691, Note_on_c, 0, 89, 38
2, 1699, Note_on_c, 0, 82, 30
2, 1699, Note_on_c, 0, 77, 31
2, 1702, Note_on_c, 0, 65, 34
2, 1702, Note_on_c, 0, 86, 45
2, 1794, Note_on_c, 0, 77, 0
2, 1796, Note_on_c, 0, 89, 0
2, 1798, Note_on_c, 0, 60, 0
2, 1801, Note_on_c, 0, 86, 0
2, 1803, Note_on_c, 0, 82, 0
2, 1826, Note_on_c, 0, 89, 39
2, 1831, Note_on_c, 0, 60, 28
2, 1874, Note_on_c, 0, 89, 0
2, 1929, Note_on_c, 0, 54, 0
2, 1952, Note_on_c, 0, 89, 39
2, 1959, Note_on_c, 0, 54, 27
2, 1977, Note_on_c, 0, 89, 0
2, 1986, Note_on_c, 0, 60, 0
2, 1989, Note_on_c, 0, 65, 0
2, 2016, Note_on_c, 0, 54, 0
2, 2157, Note_on_c, 0, 65, 53
2, 2179, Note_on_c, 0, 65, 0
2, 2244, Note_on_c, 0, 58, 29
2, 2244, Note_on_c, 0, 65, 44
2, 2246, Note_on_c, 0, 43, 37
2, 2247, Control_c, 0, 64, 0
2, 2249, Note_on_c, 0, 57, 34
2, 2249, Note_on_c, 0, 62, 30
2, 2276, Note_on_c, 0, 57, 0
2, 2282, Control_c, 0, 64, 127
2, 2290, Note_on_c, 0, 62, 0
2, 2292, Note_on_c, 0, 58, 0
2, 2303, Note_on_c, 0, 65, 0
2, 2339, Note_on_c, 0, 43, 0
2, 2455, Note_on_c, 0, 57, 37
2, 2571, Note_on_c, 0, 58, 27
2, 2586, Note_on_c, 0, 57, 0
2, 2651, Note_on_c, 0, 62, 50
2, 2692, Note_on_c, 0, 62, 0
2, 2711, Note_on_c, 0, 65, 66
2, 2751, Note_on_c, 0, 65, 0
2, 2771, Note_on_c, 0, 58, 0
2, 2777, Note_on_c, 0, 69, 83
2, 2821, Note_on_c, 0, 69, 0
2, 2838, Note_on_c, 0, 72, 79
2, 2866, Note_on_c, 0, 72, 0
2, 2915, Note_on_c, 0, 74, 63
2, 2919, Control_c, 0, 64, 0
2, 2920, Note_on_c, 0, 67, 46
2, 2921, Note_on_c, 0, 63, 43
2, 2923, Note_on_c, 0, 59, 27
2, 2926, Note_on_c, 0, 48, 26
2, 2959, Control_c, 0, 64, 127
2, 2964, Note_on_c, 0, 74, 0
2, 2997, Note_on_c, 0, 59, 0
2, 3000, Note_on_c, 0, 75, 67
2, 3022, Note_on_c, 0, 67, 0
2, 3038, Note_on_c, 0, 75, 0
2, 3038, Note_on_c, 0, 63, 0
2, 3090, Note_on_c, 0, 63, 26
2, 3092, Note_on_c, 0, 58, 33
2, 3093, Note_on_c, 0, 67, 48
2, 3140, Note_on_c, 0, 48, 0
2, 3189, Note_on_c, 0, 48, 39
2, 3213, Note_on_c, 0, 63, 0
2, 3227, Note_on_c, 0, 67, 0
2, 3253, Note_on_c, 0, 58, 0
2, 3283, Note_on_c, 0, 63, 42
2, 3285, Note_on_c, 0, 59, 40
2, 3289, Note_on_c, 0, 71, 43
2, 3291, Note_on_c, 0, 67, 41
2, 3332, Note_on_c, 0, 59, 0
2, 3348, Note_on_c, 0, 71, 0
2, 3350, Note_on_c, 0, 63, 0
2, 3370, Note_on_c, 0, 74, 61
2, 3377, Note_on_c, 0, 58, 31
2, 3419, Note_on_c, 0, 67, 0
2, 3420, Note_on_c, 0, 58, 0
2, 3423, Note_on_c, 0, 74, 0
2, 3456, Control_c, 0, 64, 0
2, 3456, Note_on_c, 0, 72, 67
2, 3456, Note_on_c, 0, 67, 60
2, 3457, Note_on_c, 0, 63, 47
2, 3479, Control_c, 0, 64, 127
2, 3480, Note_on_c, 0, 55, 22
2, 3487, Note_on_c, 0, 48, 0
2, 3507, Note_on_c, 0, 72, 0
2, 3510, Note_on_c, 0, 67, 0
2, 3529, Note_on_c, 0, 63, 0
2, 3542, Note_on_c, 0, 48, 53
2, 3558, Note_on_c, 0, 48, 0
2, 3563, Note_on_c, 0, 55, 0
2, 3645, Note_on_c, 0, 63, 52
2, 3648, Note_on_c, 0, 56, 38
2, 3649, Note_on_c, 0, 70, 44
2, 3651, Note_on_c, 0, 41, 38
2, 3659, Control_c, 0, 64, 0
2, 3709, Control_c, 0, 64, 127
2, 3729, Note_on_c, 0, 48, 54
2, 3732, Note_on_c, 0, 56, 0
2, 3795, Note_on_c, 0, 63, 0
2, 3801, Note_on_c, 0, 41, 0
2, 3819, Note_on_c, 0, 48, 0
2, 3822, Note_on_c, 0, 63, 58
2, 3824, Note_on_c, 0, 55, 79
2, 3824, Note_on_c, 0, 56, 65
2, 3898, Note_on_c, 0, 56, 0
2, 3911, Note_on_c, 0, 55, 0
2, 3916, Note_on_c, 0, 56, 87
2, 3938, Control_c, 0, 64, 0
2, 3947, Note_on_c, 0, 63, 0
2, 3967, Control_c, 0, 64, 127
2, 3969, Note_on_c, 0, 70, 0
2, 4007, Note_on_c, 0, 70, 50
2, 4011, Note_on_c, 0, 63, 61
2, 4098, Note_on_c, 0, 58, 83
2, 4128, Note_on_c, 0, 63, 0
2, 4169, Note_on_c, 0, 70, 0
2, 4184, Note_on_c, 0, 56, 0
2, 4195, Note_on_c, 0, 70, 43
2, 4204, Note_on_c, 0, 63, 49
2, 4302, Note_on_c, 0, 56, 37
2, 4313, Note_on_c, 0, 58, 0
2, 4320, Note_on_c, 0, 56, 0
2, 4326, Note_on_c, 0, 63, 0
2, 4382, Note_on_c, 0, 70, 0
2, 4415, Control_c, 0, 64, 0
2, 4416, Note_on_c, 0, 68, 46
2, 4416, Note_on_c, 0, 61, 36
2, 4418, Note_on_c, 0, 57, 49
2, 4419, Note_on_c, 0, 65, 50
2, 4422, Note_on_c, 0, 47, 39
2, 4461, Control_c, 0, 64, 127
2, 4540, Note_on_c, 0, 51, 46
2, 4555, Note_on_c, 0, 57, 0
2, 4597, Note_on_c, 0, 65, 0
2, 4605, Note_on_c, 0, 61, 0
2, 4631, Note_on_c, 0, 68, 0
2, 4684, Note_on_c, 0, 68, 26
2, 4686, Note_on_c, 0, 61, 29
2, 4689, Note_on_c, 0, 65, 48
2, 4691, Note_on_c, 0, 57, 32
2, 4851, Note_on_c, 0, 68, 0
2, 4944, Note_on_c, 0, 65, 0
2, 4988, Note_on_c, 0, 57, 0
2, 4988, Note_on_c, 0, 68, 40
2, 5004, Note_on_c, 0, 47, 0
2, 5027, Note_on_c, 0, 68, 0
2, 5040, Note_on_c, 0, 61, 0
2, 5100, Note_on_c, 0, 51, 0
2, 5309, Note_on_c, 0, 68, 40
2, 5310, Note_on_c, 0, 63, 40
2, 5315, Note_on_c, 0, 60, 35
2, 5321, Note_on_c, 0, 46, 30
2, 5323, Control_c, 0, 64, 0
2, 5323, Note_on_c, 0, 56, 21
2, 5373, Control_c, 0, 64, 127
2, 5386, Note_on_c, 0, 46, 0
2, 5423, Note_on_c, 0, 46, 50
2, 5453, Note_on_c, 0, 60, 0
2, 5453, Note_on_c, 0, 63, 0
2, 5527, Note_on_c, 0, 63, 42
2, 5529, Note_on_c, 0, 60, 42
2, 5585, Note_on_c, 0, 46, 0
2, 5637, Note_on_c, 0, 46, 47
2, 5691, Note_on_c, 0, 68, 0
2, 5694, Note_on_c, 0, 46, 0
2, 5698, Note_on_c, 0, 60, 0
2, 5715, Note_on_c, 0, 63, 0
2, 5734, Note_on_c, 0, 56, 0
2, 5773, Control_c, 0, 64, 0
2, 5773, Note_on_c, 0, 64, 59
2, 5774, Note_on_c, 0, 67, 57
2, 5774, Note_on_c, 0, 62, 62
2, 5777, Note_on_c, 0, 59, 67
2, 5779, Note_on_c, 0, 56, 48
2, 5813, Control_c, 0, 64, 127
2, 5817, Note_on_c, 0, 56, 0
2, 5819, Note_on_c, 0, 59, 0
2, 5831, Note_on_c, 0, 62, 0
2, 5834, Note_on_c, 0, 64, 0
2, 5839, Note_on_c, 0, 67, 0
2, 5928, Note_on_c, 0, 79, 60
2, 5928, Note_on_c, 0, 68, 42
2, 5931, Note_on_c, 0, 71, 52
2, 5931, Note_on_c, 0, 76, 55
2, 5932, Note_on_c, 0, 74, 58
2, 5967, Note_on_c, 0, 71, 0
2, 5971, Note_on_c, 0, 68, 0
2, 5978, Note_on_c, 0, 74, 0
2, 5982, Note_on_c, 0, 76, 0
2, 5992, Note_on_c, 0, 79, 0
2, 6086, Note_on_c, 0, 91, 44
2, 6089, Note_on_c, 0, 80, 44
2, 6094, Note_on_c, 0, 88, 35
2, 6095, Note_on_c, 0, 86, 42
2, 6096, Note_on_c, 0, 83, 31
2, 6114, Note_on_c, 0, 80, 0
2, 6118, Note_on_c, 0, 83, 0
2, 6124, Note_on_c, 0, 86, 0
2, 6129, Note_on_c, 0, 88, 0
2, 6139, Note_on_c, 0, 91, 0
2, 6296, Note_on_c, 0, 95, 41
2, 6299, Note_on_c, 0, 103, 31
2, 6304, Note_on_c, 0, 92, 29
2, 6304, Note_on_c, 0, 98, 40
2, 6306, Note_on_c, 0, 100, 34
2, 6321, Note_on_c, 0, 98, 0
2, 6322, Note_on_c, 0, 95, 0
2, 6342, Note_on_c, 0, 100, 0
2, 6342, Note_on_c, 0, 92, 0
2, 6347, Note_on_c, 0, 103, 0
2, 7017, Note_on_c, 0, 67, 45
2, 7018, Note_on_c, 0, 74, 55
2, 7020, Note_on_c, 0, 60, 45
2, 7024, Note_on_c, 0, 55, 35
2, 7025, Note_on_c, 0, 45, 33
2, 7027, Control_c, 0, 64, 0
2, 7067, Note_on_c, 0, 45, 0
2, 7067, Control_c, 0, 64, 127
2, 7085, Note_on_c, 0, 55, 0
2, 7091, Note_on_c, 0, 60, 0
2, 7103, Note_on_c, 0, 74, 0
2, 7120, Note_on_c, 0, 67, 0
2, 7155, Note_on_c, 0, 74, 57
2, 7158, Note_on_c, 0, 60, 53
2, 7194, Note_on_c, 0, 74, 0
2, 7256, Note_on_c, 0, 74, 85
2, 7263, Note_on_c, 0, 64, 49
2, 7311, Note_on_c, 0, 74, 0
2, 7331, Note_on_c, 0, 64, 0
2, 7349, Note_on_c, 0, 60, 0
2, 7358, Note_on_c, 0, 74, 76
2, 7392, Note_on_c, 0, 74, 0
2, 7465, Note_on_c, 0, 72, 53
2, 7468, Note_on_c, 0, 60, 26
2, 7468, Note_on_c, 0, 63, 33
2, 7469, Note_on_c, 0, 66, 43
2, 7472, Note_on_c, 0, 50, 24
2, 7477, Control_c, 0, 64, 0
2, 7530, Control_c, 0, 64, 127
2, 7576, Note_on_c, 0, 66, 0
2, 7583, Note_on_c, 0, 54, 33
2, 7594, Note_on_c, 0, 63, 0
2, 7610, Note_on_c, 0, 60, 0
2, 7621, Note_on_c, 0, 72, 0
2, 7715, Note_on_c, 0, 68, 43
2, 7718, Note_on_c, 0, 60, 31
2, 7718, Note_on_c, 0, 63, 36
2, 7721, Note_on_c, 0, 66, 34
2, 7795, Note_on_c, 0, 60, 0
2, 7797, Note_on_c, 0, 66, 0
2, 7802, Note_on_c, 0, 68, 0
2, 7802, Note_on_c, 0, 63, 0
2, 7959, Note_on_c, 0, 69, 71
2, 7975, Note_on_c, 0, 54, 0
2, 7976, Note_on_c, 0, 50, 0
2, 7995, Note_on_c, 0, 69, 0
2, 8009, Note_on_c, 0, 70, 69
2, 8040, Note_on_c, 0, 70, 0
2, 8058, Note_on_c, 0, 71, 72
2, 8096, Note_on_c, 0, 71, 0
2, 8112, Note_on_c, 0, 74, 79
2, 8140, Note_on_c, 0, 74, 0
2, 8174, Note_on_c, 0, 72, 64
2, 8179, Note_on_c, 0, 43, 46
2, 8183, Control_c, 0, 64, 0
2, 8223, Control_c, 0, 64, 127
2, 8245, Note_on_c, 0, 43, 0
2, 8254, Note_on_c, 0, 55, 49
2, 8337, Note_on_c, 0, 58, 40
2, 8338, Note_on_c, 0, 62, 43
2, 8345, Note_on_c, 0, 65, 43
2, 8346, Note_on_c, 0, 55, 0
2, 8371, Note_on_c, 0, 62, 0
2, 8381, Note_on_c, 0, 65, 0
2, 8398, Note_on_c, 0, 72, 0
2, 8420, Note_on_c, 0, 62, 38
2, 8431, Note_on_c, 0, 72, 49
2, 8437, Note_on_c, 0, 62, 0
2, 8445, Note_on_c, 0, 58, 0
2, 8471, Note_on_c, 0, 72, 0
2, 8571, Note_on_c, 0, 58, 46
2, 8575, Note_on_c, 0, 48, 51
2, 8578, Control_c, 0, 64, 0
2, 8579, Note_on_c, 0, 70, 37
2, 8618, Control_c, 0, 64, 127
2, 8695, Note_on_c, 0, 64, 44
2, 8695, Note_on_c, 0, 61, 20
2, 8696, Note_on_c, 0, 58, 0
2, 8731, Note_on_c, 0, 64, 0
2, 8753, Note_on_c, 0, 61, 0
2, 8835, Note_on_c, 0, 61, 29
2, 8836, Note_on_c, 0, 64, 48
2, 8837, Note_on_c, 0, 58, 33
2, 8887, Note_on_c, 0, 64, 0
2, 8890, Note_on_c, 0, 61, 0
2, 8902, Note_on_c, 0, 70, 0
2, 8953, Note_on_c, 0, 58, 0
2, 8977, Note_on_c, 0, 71, 74
2, 8977, Note_on_c, 0, 68, 71
2, 8977, Note_on_c, 0, 62, 72
2, 8985, Note_on_c, 0, 56, 39
2, 9015, Note_on_c, 0, 62, 0
2, 9021, Note_on_c, 0, 71, 0
2, 9026, Note_on_c, 0, 48, 0
2, 9029, Note_on_c, 0, 56, 0
2, 9033, Note_on_c, 0, 68, 0
2, 9102, Note_on_c, 0, 72, 72
2, 9102, Note_on_c, 0, 68, 71
2, 9104, Note_on_c, 0, 63, 74
2, 9104, Control_c, 0, 64, 0
2, 9107, Note_on_c, 0, 41, 50
2, 9144, Control_c, 0, 64, 127
2, 9168, Note_on_c, 0, 72, 0
2, 9178, Note_on_c, 0, 68, 0
2, 9178, Note_on_c, 0, 48, 63
2, 9179, Note_on_c, 0, 63, 0
2, 9258, Note_on_c, 0, 63, 69
2, 9260, Note_on_c, 0, 53, 74
2, 9262, Note_on_c, 0, 60, 59
2, 9266, Note_on_c, 0, 41, 0
2, 9268, Note_on_c, 0, 48, 0
2, 9280, Note_on_c, 0, 53, 0
2, 9301, Note_on_c, 0, 60, 0
2, 9322, Note_on_c, 0, 63, 0
2, 9352, Note_on_c, 0, 69, 75
2, 9380, Note_on_c, 0, 69, 0
2, 9446, Note_on_c, 0, 70, 69
2, 9447, Note_on_c, 0, 43, 50
2, 9449, Note_on_c, 0, 62, 65
2, 9451, Note_on_c, 0, 58, 52
2, 9453, Control_c, 0, 64, 0
2, 9507, Control_c, 0, 64, 127
2, 9522, Note_on_c, 0, 43, 0
2, 9527, Note_on_c, 0, 50, 58
2, 9537, Note_on_c, 0, 50, 0
2, 9561, Note_on_c, 0, 62, 0
2, 9579, Note_on_c, 0, 58, 0
2, 9607, Note_on_c, 0, 70, 0
2, 9613, Note_on_c, 0, 62, 53
2, 9618, Note_on_c, 0, 58, 33
2, 9619, Note_on_c, 0, 55, 46
2, 9637, Note_on_c, 0, 55, 0
2, 9666, Note_on_c, 0, 58, 0
2, 9671, Note_on_c, 0, 62, 0
2, 9712, Note_on_c, 0, 69, 62
2, 9724, Note_on_c, 0, 69, 0
2, 9819, Note_on_c, 0, 68, 54
2, 9824, Control_c, 0, 64, 0
2, 9825, Note_on_c, 0, 56, 31
2, 9825, Note_on_c, 0, 63, 38
2, 9825, Note_on_c, 0, 60, 46
2, 9826, Note_on_c, 0, 51, 30
2, 9827, Note_on_c, 0, 41, 33
2, 9894, Control_c, 0, 64, 127
2, 9905, Note_on_c, 0, 41, 0
2, 9911, Note_on_c, 0, 51, 0
2, 9919, Note_on_c, 0, 48, 43
2, 9926, Note_on_c, 0, 60, 0
2, 9944, Note_on_c, 0, 48, 0
2, 9955, Note_on_c, 0, 63, 0
2, 9957, Note_on_c, 0, 56, 0
2, 9997, Note_on_c, 0, 68, 0
2, 10019, Note_on_c, 0, 63, 34
2, 10020, Note_on_c, 0, 56, 35
2, 10024, Note_on_c, 0, 60, 42
2, 10025, Note_on_c, 0, 51, 29
2, 10053, Note_on_c, 0, 60, 0
2, 10060, Note_on_c, 0, 51, 0
2, 10062, Note_on_c, 0, 63, 0
2, 10073, Note_on_c, 0, 56, 0
2, 10126, Note_on_c, 0, 64, 50
2, 10182, Note_on_c, 0, 64, 0
2, 10355, Note_on_c, 0, 65, 33
2, 10355, Note_on_c, 0, 60, 36
2, 10357, Note_on_c, 0, 62, 34
2, 10358, Note_on_c, 0, 56, 31
2, 10360, Control_c, 0, 64, 0
2, 10361, Note_on_c, 0, 22, 33
2, 10362, Note_on_c, 0, 34, 27
2, 10410, Control_c, 0, 64, 127
2, 10559, Note_on_c, 0, 56, 0
2, 10561, Note_on_c, 0, 22, 0
2, 10570, Note_on_c, 0, 65, 0
2, 10572, Note_on_c, 0, 34, 0
2, 10578, Note_on_c, 0, 60, 0
2, 10582, Note_on_c, 0, 62, 0
2, 10759, Note_on_c, 0, 65, 68
2, 10760, Note_on_c, 0, 60, 70
2, 10761, Note_on_c, 0, 56, 63
2, 10762, Note_on_c, 0, 62, 64
2, 10763, Note_on_c, 0, 58, 50
2, 10823, Note_on_c, 0, 58, 0
2, 10900, Note_on_c, 0, 46, 59
2, 10909, Note_on_c, 0, 56, 0
2, 10946, Note_on_c, 0, 62, 0
2, 10948, Note_on_c, 0, 65, 0
2, 10953, Note_on_c, 0, 60, 0
2, 11042, Note_on_c, 0, 63, 58
2, 11044, Note_on_c, 0, 67, 61
2, 11044, Note_on_c, 0, 58, 48
2, 11050, Note_on_c, 0, 60, 62
2, 11138, Note_on_c, 0, 46, 0
2, 11165, Note_on_c, 0, 46, 44
2, 11179, Note_on_c, 0, 60, 0
2, 11184, Note_on_c, 0, 67, 0
2, 11193, Note_on_c, 0, 58, 0
2, 11210, Note_on_c, 0, 63, 0
2, 11303, Note_on_c, 0, 68, 52
2, 11309, Note_on_c, 0, 65, 44
2, 11310, Note_on_c, 0, 62, 40
2, 11312, Note_on_c, 0, 59, 38
2, 11313, Note_on_c, 0, 56, 27
2, 11317, Control_c, 0, 64, 0
2, 11362, Control_c, 0, 64, 127
2, 11412, Note_on_c, 0, 46, 0
2, 11444, Note_on_c, 0, 46, 49
2, 11489, Note_on_c, 0, 59, 0
2, 11495, Note_on_c, 0, 62, 0
2, 11507, Note_on_c, 0, 65, 0
2, 11509, Note_on_c, 0, 56, 0
2, 11542, Note_on_c, 0, 68, 0
2, 11543, Note_on_c, 0, 46, 0
2, 11635, Note_on_c, 0, 70, 52
2, 11638, Note_on_c, 0, 67, 46
2, 11640, Note_on_c, 0, 62, 42
2, 11643, Control_c, 0, 64, 0
2, 11646, Note_on_c, 0, 39, 49
2, 11665, Note_on_c, 0, 62, 0
2, 11677, Control_c, 0, 64, 127
2, 11679, Note_on_c, 0, 67, 0
2, 11688, Note_on_c, 0, 70, 0
2, 11714, Note_on_c, 0, 39, 0
2, 11714, Note_on_c, 0, 46, 52
2, 11818, Note_on_c, 0, 55, 66
2, 11839, Note_on_c, 0, 46, 0
2, 11866, Note_on_c, 0, 55, 0
2, 11904, Note_on_c, 0, 89, 84
2, 11904, Note_on_c, 0, 58, 52
2, 11905, Note_on_c, 0, 82, 84
2, 11964, Note_on_c, 0, 82, 0
2, 11972, Note_on_c, 0, 89, 0
2, 11997, Note_on_c, 0, 86, 62
2, 12000, Note_on_c, 0, 77, 58
2, 12008, Note_on_c, 0, 67, 22
2, 12032, Note_on_c, 0, 86, 0
2, 12072, Note_on_c, 0, 67, 0
2, 12091, Note_on_c, 0, 62, 39
2, 12093, Note_on_c, 0, 77, 0
2, 12113, Note_on_c, 0, 62, 0
2, 12120, Note_on_c, 0, 58, 0
2, 12179, Note_on_c, 0, 86, 62
2, 12180, Note_on_c, 0, 44, 54
2, 12181, Note_on_c, 0, 77, 64
2, 12186, Control_c, 0, 64, 0
2, 12221, Control_c, 0, 64, 127
2, 12238, Note_on_c, 0, 86, 0
2, 12247, Note_on_c, 0, 77, 0
2, 12262, Note_on_c, 0, 82, 25
2, 12264, Note_on_c, 0, 54, 40
2, 12271, Note_on_c, 0, 44, 0
2, 12274, Note_on_c, 0, 74, 54
2, 12284, Note_on_c, 0, 82, 0
2, 12287, Note_on_c, 0, 54, 0
2, 12299, Note_on_c, 0, 74, 0
2, 12362, Note_on_c, 0, 70, 34
2, 12364, Note_on_c, 0, 77, 53
2, 12367, Note_on_c, 0, 60, 34
2, 12426, Note_on_c, 0, 70, 0
2, 12440, Note_on_c, 0, 77, 0
2, 12444, Note_on_c, 0, 60, 0
2, 12471, Note_on_c, 0, 74, 41
2, 12471, Note_on_c, 0, 65, 36
2, 12471, Note_on_c, 0, 70, 37
2, 12508, Note_on_c, 0, 74, 0
2, 12519, Note_on_c, 0, 70, 0
2, 12540, Note_on_c, 0, 65, 0
2, 12730, Note_on_c, 0, 65, 51
2, 12736, Note_on_c, 0, 58, 28
2, 12737, Note_on_c, 0, 43, 47
2, 12745, Note_on_c, 0, 50, 28
2, 12746, Control_c, 0, 64, 0
2, 12794, Control_c, 0, 64, 127
2, 12804, Note_on_c, 0, 58, 0
2, 12817, Note_on_c, 0, 65, 0
2, 12820, Note_on_c, 0, 72, 55
2, 12826, Note_on_c, 0, 43, 0
2, 12828, Note_on_c, 0, 55, 44
2, 12829, Note_on_c, 0, 50, 0
2, 12840, Note_on_c, 0, 72, 0
2, 12842, Note_on_c, 0, 55, 0
2, 12922, Note_on_c, 0, 84, 70
2, 12926, Note_on_c, 0, 77, 53
2, 12935, Note_on_c, 0, 58, 38
2, 12979, Note_on_c, 0, 84, 0
2, 12995, Note_on_c, 0, 77, 0
2, 13012, Note_on_c, 0, 82, 61
2, 13012, Note_on_c, 0, 62, 48
2, 13022, Note_on_c, 0, 70, 30
2, 13024, Note_on_c, 0, 62, 0
2, 13026, Note_on_c, 0, 77, 27
2, 13040, Note_on_c, 0, 58, 0
2, 13045, Note_on_c, 0, 77, 0
2, 13061, Note_on_c, 0, 82, 0
2, 13087, Note_on_c, 0, 70, 0
2, 13141, Note_on_c, 0, 70, 48
2, 13143, Note_on_c, 0, 80, 40
2, 13145, Note_on_c, 0, 58, 30
2, 13150, Note_on_c, 0, 48, 34
2, 13163, Control_c, 0, 64, 0
2, 13200, Control_c, 0, 64, 127
2, 13223, Note_on_c, 0, 80, 0
2, 13233, Note_on_c, 0, 48, 0
2, 13236, Note_on_c, 0, 70, 0
2, 13248, Note_on_c, 0, 58, 0
2, 13250, Note_on_c, 0, 79, 66
2, 13316, Note_on_c, 0, 79, 0
2, 13356, Note_on_c, 0, 77, 63
2, 13358, Note_on_c, 0, 74, 60
2, 13363, Note_on_c, 0, 67, 38
2, 13376, Note_on_c, 0, 63, 21
2, 13437, Note_on_c, 0, 74, 0
2, 13437, Note_on_c, 0, 77, 0
2, 13461, Note_on_c, 0, 75, 61
2, 13462, Note_on_c, 0, 72, 32
2, 13464, Note_on_c, 0, 67, 0
2, 13466, Note_on_c, 0, 63, 0
2, 13475, Note_on_c, 0, 72, 0
2, 13483, Note_on_c, 0, 75, 0
2, 13560, Note_on_c, 0, 82, 56
2, 13565, Note_on_c, 0, 75, 54
2, 13566, Note_on_c, 0, 63, 25
2, 13570, Note_on_c, 0, 68, 29
2, 13570, Control_c, 0, 64, 0
2, 13581, Note_on_c, 0, 56, 33
2, 13586, Note_on_c, 0, 53, 10
2, 13618, Control_c, 0, 64, 127
2, 13628, Note_on_c, 0, 53, 0
2, 13644, Note_on_c, 0, 63, 0
2, 13648, Note_on_c, 0, 60, 47
2, 13691, Note_on_c, 0, 75, 0
2, 13694, Note_on_c, 0, 68, 0
2, 13721, Note_on_c, 0, 82, 0
2, 13728, Note_on_c, 0, 75, 56
2, 13728, Note_on_c, 0, 68, 50
2, 13731, Note_on_c, 0, 63, 39
2, 13751, Note_on_c, 0, 56, 0
2, 13754, Note_on_c, 0, 68, 0
2, 13760, Note_on_c, 0, 75, 0
2, 13768, Note_on_c, 0, 63, 0
2, 13797, Note_on_c, 0, 56, 45
2, 13810, Note_on_c, 0, 60, 0
2, 13827, Note_on_c, 0, 56, 0
2, 13875, Note_on_c, 0, 61, 45
2, 13875, Note_on_c, 0, 68, 47
2, 13878, Note_on_c, 0, 65, 50
2, 13879, Note_on_c, 0, 57, 38
2, 13894, Note_on_c, 0, 47, 17
2, 13895, Control_c, 0, 64, 0
2, 13948, Note_on_c, 0, 57, 0
2, 13950, Note_on_c, 0, 54, 46
2, 13952, Control_c, 0, 64, 127
2, 13980, Note_on_c, 0, 65, 0
2, 13992, Note_on_c, 0, 61, 0
2, 14021, Note_on_c, 0, 61, 52
2, 14063, Note_on_c, 0, 68, 0
2, 14071, Note_on_c, 0, 61, 0
2, 14086, Note_on_c, 0, 57, 51
2, 14123, Note_on_c, 0, 47, 0
2, 14128, Note_on_c, 0, 57, 0
2, 14160, Note_on_c, 0, 54, 0
2, 14160, Note_on_c, 0, 56, 43
2, 14163, Note_on_c, 0, 63, 42
2, 14164, Note_on_c, 0, 60, 58
2, 14173, Note_on_c, 0, 46, 36
2, 14179, Control_c, 0, 64, 0
2, 14215, Note_on_c, 0, 56, 0
2, 14231, Note_on_c, 0, 60, 0
2, 14234, Control_c, 0, 64, 127
2, 14237, Note_on_c, 0, 58, 69
2, 14248, Note_on_c, 0, 63, 0
2, 14316, Note_on_c, 0, 60, 63
2, 14346, Note_on_c, 0, 46, 0
2, 14376, Note_on_c, 0, 60, 0
2, 14380, Note_on_c, 0, 58, 0
2, 14385, Note_on_c, 0, 46, 56
2, 14451, Note_on_c, 0, 46, 0
2, 14476, Note_on_c, 0, 59, 32
2, 14479, Note_on_c, 0, 63, 32
2, 14479, Note_on_c, 0, 55, 29
2, 14480, Control_c, 0, 64, 0
2, 14481, Note_on_c, 0, 61, 45
2, 14484, Note_on_c, 0, 45, 36
2, 14510, Note_on_c, 0, 55, 0
2, 14529, Control_c, 0, 64, 127
2, 14541, Note_on_c, 0, 59, 0
2, 14552, Note_on_c, 0, 61, 0
2, 14556, Note_on_c, 0, 63, 0
2, 14578, Note_on_c, 0, 67, 47
2, 14583, Note_on_c, 0, 55, 54
2, 14592, Note_on_c, 0, 55, 0
2, 14622, Note_on_c, 0, 67, 0
2, 14675, Note_on_c, 0, 68, 57
2, 14677, Note_on_c, 0, 56, 43
2, 14681, Note_on_c, 0, 55, 42
2, 14706, Note_on_c, 0, 68, 0
2, 14710, Note_on_c, 0, 56, 0
2, 14725, Note_on_c, 0, 45, 0
2, 14751, Note_on_c, 0, 55, 0
2, 14763, Note_on_c, 0, 70, 56
2, 14765, Note_on_c, 0, 58, 36
2, 14770, Note_on_c, 0, 45, 36
2, 14777, Note_on_c, 0, 58, 0
2, 14785, Note_on_c, 0, 70, 0
2, 14789, Note_on_c, 0, 45, 0
2, 14853, Note_on_c, 0, 72, 47
2, 14855, Note_on_c, 0, 60, 44
2, 14856, Note_on_c, 0, 44, 42
2, 14857, Note_on_c, 0, 67, 44
2, 14858, Control_c, 0, 64, 0
2, 14906, Control_c, 0, 64, 127
2, 14920, Note_on_c, 0, 51, 46
2, 14921, Note_on_c, 0, 60, 0
2, 14929, Note_on_c, 0, 44, 0
2, 14932, Note_on_c, 0, 72, 0
2, 14936, Note_on_c, 0, 67, 0
2, 14938, Note_on_c, 0, 51, 0
2, 14995, Note_on_c, 0, 60, 39
2, 14996, Note_on_c, 0, 74, 70
2, 15000, Note_on_c, 0, 67, 60
2, 15012, Note_on_c, 0, 70, 27
2, 15020, Note_on_c, 0, 70, 0
2, 15048, Note_on_c, 0, 74, 0
2, 15052, Note_on_c, 0, 63, 35
2, 15055, Note_on_c, 0, 67, 0
2, 15063, Note_on_c, 0, 63, 0
2, 15068, Note_on_c, 0, 72, 61
2, 15071, Note_on_c, 0, 60, 0
2, 15110, Note_on_c, 0, 72, 0
2, 15144, Note_on_c, 0, 74, 74
2, 15144, Note_on_c, 0, 67, 54
2, 15147, Note_on_c, 0, 64, 61
2, 15147, Note_on_c, 0, 69, 61
2, 15150, Note_on_c, 0, 62, 50
2, 15152, Note_on_c, 0, 70, 34
2, 15157, Control_c, 0, 64, 0
2, 15161, Note_on_c, 0, 70, 0
2, 15200, Control_c, 0, 64, 127
2, 15212, Note_on_c, 0, 69, 0
2, 15216, Note_on_c, 0, 74, 0
2, 15236, Note_on_c, 0, 72, 55
2, 15244, Note_on_c, 0, 67, 0
2, 15274, Note_on_c, 0, 72, 0
2, 15299, Note_on_c, 0, 62, 0
2, 15301, Note_on_c, 0, 64, 0
2, 15342, Note_on_c, 0, 64, 45
2, 15346, Note_on_c, 0, 70, 43
2, 15346, Note_on_c, 0, 66, 46
2, 15347, Note_on_c, 0, 60, 31
2, 15351, Note_on_c, 0, 50, 37
2, 15354, Note_on_c, 0, 54, 26
2, 15362, Control_c, 0, 64, 0
2, 15419, Control_c, 0, 64, 127
2, 15435, Note_on_c, 0, 70, 0
2, 15456, Note_on_c, 0, 60, 0
2, 15456, Note_on_c, 0, 69, 53
2, 15471, Note_on_c, 0, 54, 0
2, 15472, Note_on_c, 0, 50, 0
2, 15477, Note_on_c, 0, 64, 0
2, 15505, Note_on_c, 0, 66, 0
2, 15531, Note_on_c, 0, 69, 0
2, 15559, Note_on_c, 0, 70, 45
2, 15564, Note_on_c, 0, 43, 47
2, 15576, Control_c, 0, 64, 0
2, 15622, Control_c, 0, 64, 127
2, 15656, Note_on_c, 0, 62, 50
2, 15657, Note_on_c, 0, 58, 39
2, 15684, Note_on_c, 0, 62, 0
2, 15687, Note_on_c, 0, 58, 0
2, 15697, Note_on_c, 0, 70, 0
2, 15735, Note_on_c, 0, 55, 1
2, 15753, Note_on_c, 0, 72, 55
2, 15770, Note_on_c, 0, 43, 0
2, 15814, Note_on_c, 0, 72, 0
2, 15825, Note_on_c, 0, 55, 0
2, 15851, Note_on_c, 0, 70, 52
2, 15900, Note_on_c, 0, 70, 0
2, 15952, Control_c, 0, 64, 0
2, 15962, Note_on_c, 0, 68, 43
2, 15963, Note_on_c, 0, 64, 36
2, 15964, Note_on_c, 0, 72, 39
2, 15968, Note_on_c, 0, 58, 35
2, 15973, Control_c, 0, 64, 127
2, 15978, Note_on_c, 0, 64, 0
2, 15987, Note_on_c, 0, 68, 0
2, 15993, Note_on_c, 0, 72, 0
2, 16083, Note_on_c, 0, 84, 47
2, 16083, Note_on_c, 0, 72, 37
2, 16097, Note_on_c, 0, 72, 0
2, 16107, Note_on_c, 0, 84, 0
2, 16196, Note_on_c, 0, 84, 54
2, 16198, Note_on_c, 0, 96, 54
2, 16216, Note_on_c, 0, 84, 0
2, 16223, Note_on_c, 0, 96, 0
2, 16345, Note_on_c, 0, 108, 54
2, 16349, Note_on_c, 0, 96, 43
2, 16374, Note_on_c, 0, 96, 0
2, 16379, Note_on_c, 0, 108, 0
2, 16509, Note_on_c, 0, 58, 0
2, 16845, Note_on_c, 0, 68, 53
2, 16862, Note_on_c, 0, 63, 44
2, 16869, Note_on_c, 0, 60, 54
2, 16896, Control_c, 0, 64, 0
2, 16902, Note_on_c, 0, 56, 23
2, 16923, Note_on_c, 0, 55, 53
2, 17000, Control_c, 0, 64, 127
2, 17014, Note_on_c, 0, 55, 0
2, 17019, Note_on_c, 0, 41, 31
2, 17060, Note_on_c, 0, 60, 0
2, 17067, Note_on_c, 0, 56, 0
2, 17073, Note_on_c, 0, 63, 0
2, 17074, Note_on_c, 0, 68, 0
2, 17118, Note_on_c, 0, 70, 67
2, 17125, Note_on_c, 0, 53, 53
2, 17169, Note_on_c, 0, 70, 0
2, 17178, Note_on_c, 0, 41, 0
2, 17187, Note_on_c, 0, 68, 57
2, 17196, Note_on_c, 0, 53, 0
2, 17224, Note_on_c, 0, 68, 0
2, 17261, Note_on_c, 0, 46, 39
2, 17261, Note_on_c, 0, 70, 67
2, 17262, Note_on_c, 0, 62, 56
2, 17266, Note_on_c, 0, 56, 38
2, 17267, Note_on_c, 0, 59, 50
2, 17274, Control_c, 0, 64, 0
2, 17315, Note_on_c, 0, 70, 0
2, 17327, Note_on_c, 0, 68, 64
2, 17334, Control_c, 0, 64, 127
2, 17363, Note_on_c, 0, 59, 0
2, 17372, Note_on_c, 0, 68, 0
2, 17382, Note_on_c, 0, 62, 0
2, 17384, Note_on_c, 0, 67, 68
2, 17411, Note_on_c, 0, 56, 0
2, 17431, Note_on_c, 0, 46, 0
2, 17436, Note_on_c, 0, 67, 0
2, 17443, Note_on_c, 0, 65, 54
2, 17506, Note_on_c, 0, 65, 0
2, 17539, Note_on_c, 0, 67, 61
2, 17542, Note_on_c, 0, 58, 43
2, 17543, Note_on_c, 0, 63, 53
2, 17544, Note_on_c, 0, 59, 36
2, 17545, Note_on_c, 0, 53, 54
2, 17552, Note_on_c, 0, 49, 35
2, 17558, Control_c, 0, 64, 0
2, 17637, Control_c, 0, 64, 127
2, 17638, Note_on_c, 0, 67, 0
2, 17640, Note_on_c, 0, 68, 69
2, 17691, Note_on_c, 0, 68, 0
2, 17715, Note_on_c, 0, 63, 0
2, 17715, Note_on_c, 0, 67, 26
2, 17717, Note_on_c, 0, 65, 47
2, 17718, Note_on_c, 0, 59, 0
2, 17718, Note_on_c, 0, 58, 0
2, 17732, Note_on_c, 0, 67, 0
2, 17739, Note_on_c, 0, 53, 0
2, 17754, Note_on_c, 0, 65, 0
2, 17757, Note_on_c, 0, 49, 0
2, 17794, Note_on_c, 0, 68, 56
2, 17800, Note_on_c, 0, 60, 41
2, 17801, Note_on_c, 0, 64, 51
2, 17803, Note_on_c, 0, 58, 31
2, 17808, Control_c, 0, 64, 0
2, 17812, Note_on_c, 0, 48, 34
2, 17870, Note_on_c, 0, 68, 0
2, 17872, Control_c, 0, 64, 127
2, 17881, Note_on_c, 0, 67, 57
2, 17893, Note_on_c, 0, 64, 0
2, 17911, Note_on_c, 0, 60, 0
2, 17931, Note_on_c, 0, 67, 0
2, 17951, Note_on_c, 0, 65, 51
2, 17993, Note_on_c, 0, 58, 0
2, 17998, Note_on_c, 0, 48, 0
2, 18008, Note_on_c, 0, 65, 0
2, 18016, Note_on_c, 0, 63, 46
2, 18058, Note_on_c, 0, 63, 0
2, 18099, Note_on_c, 0, 67, 62
2, 18114, Note_on_c, 0, 45, 31
2, 18122, Control_c, 0, 64, 0
2, 18163, Control_c, 0, 64, 127
2, 18182, Note_on_c, 0, 55, 59
2, 18198, Note_on_c, 0, 67, 0
2, 18223, Note_on_c, 0, 55, 0
2, 18248, Note_on_c, 0, 60, 72
2, 18280, Note_on_c, 0, 45, 0
2, 18291, Note_on_c, 0, 60, 0
2, 18300, Note_on_c, 0, 67, 71
2, 18306, Note_on_c, 0, 60, 29
2, 18326, Note_on_c, 0, 67, 0
2, 18329, Note_on_c, 0, 60, 0
2, 18367, Note_on_c, 0, 63, 67
2, 18369, Note_on_c, 0, 54, 67
2, 18370, Note_on_c, 0, 59, 67
2, 18371, Note_on_c, 0, 44, 52
2, 18384, Control_c, 0, 64, 0
2, 18434, Note_on_c, 0, 54, 0
2, 18446, Control_c, 0, 64, 127
2, 18451, Note_on_c, 0, 54, 68
2, 18469, Note_on_c, 0, 59, 0
2, 18511, Note_on_c, 0, 63, 0
2, 18513, Note_on_c, 0, 59, 66
2, 18531, Note_on_c, 0, 54, 0
2, 18577, Note_on_c, 0, 63, 68
2, 18587, Note_on_c, 0, 59, 0
2, 18616, Note_on_c, 0, 63, 0
2, 18621, Note_on_c, 0, 44, 0
2, 18651, Note_on_c, 0, 58, 69
2, 18652, Note_on_c, 0, 67, 74
2, 18661, Control_c, 0, 64, 0
2, 18663, Note_on_c, 0, 53, 61
2, 18666, Note_on_c, 0, 43, 32
2, 18714, Control_c, 0, 64, 127
2, 18737, Note_on_c, 0, 57, 67
2, 18752, Note_on_c, 0, 58, 0
2, 18770, Note_on_c, 0, 57, 0
2, 18790, Note_on_c, 0, 67, 0
2, 18799, Note_on_c, 0, 43, 0
2, 18809, Note_on_c, 0, 58, 57
2, 18822, Note_on_c, 0, 53, 0
2, 18864, Note_on_c, 0, 58, 0
2, 18877, Note_on_c, 0, 67, 57
2, 18895, Note_on_c, 0, 67, 0
2, 18970, Note_on_c, 0, 70, 63
2, 18973, Note_on_c, 0, 61, 35
2, 18978, Note_on_c, 0, 58, 35
2, 18979, Note_on_c, 0, 64, 49
2, 18983, Note_on_c, 0, 48, 37
2, 18984, Control_c, 0, 64, 0
2, 19048, Control_c, 0, 64, 127
2, 19050, Note_on_c, 0, 70, 0
2, 19070, Note_on_c, 0, 70, 58
2, 19123, Note_on_c, 0, 70, 0
2, 19162, Note_on_c, 0, 70, 59
2, 19184, Note_on_c, 0, 58, 0
2, 19194, Note_on_c, 0, 48, 0
2, 19203, Note_on_c, 0, 70, 0
2, 19234, Note_on_c, 0, 64, 0
2, 19247, Note_on_c, 0, 70, 46
2, 19271, Note_on_c, 0, 70, 0
2, 19287, Note_on_c, 0, 61, 0
2, 19357, Control_c, 0, 64, 0
2, 19358, Note_on_c, 0, 51, 25
2, 19359, Note_on_c, 0, 67, 39
2, 19359, Note_on_c, 0, 57, 50
2, 19361, Note_on_c, 0, 63, 42
2, 19367, Note_on_c, 0, 41, 20
2, 19401, Control_c, 0, 64, 127
2, 19416, Note_on_c, 0, 41, 0
2, 19424, Note_on_c, 0, 67, 0
2, 19444, Note_on_c, 0, 51, 0
2, 19460, Note_on_c, 0, 57, 0
2, 19472, Note_on_c, 0, 67, 43
2, 19503, Note_on_c, 0, 67, 0
2, 19522, Note_on_c, 0, 63, 0
2, 19817, Note_on_c, 0, 56, 30
2, 19817, Note_on_c, 0, 65, 45
2, 19822, Control_c, 0, 64, 0
2, 19822, Note_on_c, 0, 47, 26
2, 19824, Note_on_c, 0, 51, 27
2, 19826, Note_on_c, 0, 61, 31
2, 19862, Note_on_c, 0, 65, 0
2, 19870, Control_c, 0, 64, 127
2, 19904, Note_on_c, 0, 47, 0
2, 19909, Note_on_c, 0, 65, 42
2, 19949, Note_on_c, 0, 56, 0
2, 19956, Note_on_c, 0, 61, 0
2, 19960, Note_on_c, 0, 65, 0
2, 19999, Note_on_c, 0, 51, 0
2, 20002, Note_on_c, 0, 56, 35
2, 20004, Note_on_c, 0, 63, 45
2, 20008, Note_on_c, 0, 60, 49
2, 20008, Note_on_c, 0, 46, 33
2, 20017, Control_c, 0, 64, 0
2, 20067, Control_c, 0, 64, 127
2, 20087, Note_on_c, 0, 63, 0
2, 20112, Note_on_c, 0, 63, 34
2, 20126, Note_on_c, 0, 46, 0
2, 20153, Note_on_c, 0, 60, 0
2, 20164, Note_on_c, 0, 56, 0
2, 20190, Note_on_c, 0, 63, 0
2, 20244, Note_on_c, 0, 63, 40
2, 20246, Note_on_c, 0, 56, 25
2, 20247, Note_on_c, 0, 34, 25
2, 20247, Note_on_c, 0, 46, 23
2, 20248, Note_on_c, 0, 59, 45
2, 20251, Control_c, 0, 64, 0
2, 20288, Control_c, 0, 64, 127
2, 20335, Note_on_c, 0, 46, 0
2, 20335, Note_on_c, 0, 63, 0
2, 20363, Note_on_c, 0, 63, 37
2, 20364, Note_on_c, 0, 34, 0
2, 20394, Note_on_c, 0, 59, 0
2, 20402, Note_on_c, 0, 56, 0
2, 20484, Note_on_c, 0, 63, 0
2, 20558, Note_on_c, 0, 63, 30
2, 20560, Control_c, 0, 64, 0
2, 20563, Note_on_c, 0, 58, 37
2, 20565, Note_on_c, 0, 55, 37
2, 20567, Note_on_c, 0, 27, 30
2, 20567, Note_on_c, 0, 53, 55
2, 20567, Note_on_c, 0, 39, 23
2, 20591, Note_on_c, 0, 53, 0
2, 20598, Note_on_c, 0, 55, 0
2, 20605, Control_c, 0, 64, 127
2, 20610, Note_on_c, 0, 58, 0
2, 20613, Note_on_c, 0, 27, 0
2, 20619, Note_on_c, 0, 63, 0
2, 20627, Note_on_c, 0, 39, 0
2, 20718, Note_on_c, 0, 70, 50
2, 20720, Note_on_c, 0, 65, 45
2, 20721, Note_on_c, 0, 60, 26
2, 20723, Note_on_c, 0, 55, 43
2, 20734, Note_on_c, 0, 60, 0
2, 20739, Note_on_c, 0, 65, 0
2, 20754, Note_on_c, 0, 70, 0
2, 20843, Note_on_c, 0, 82, 57
2, 20848, Note_on_c, 0, 55, 0
2, 20848, Note_on_c, 0, 72, 36
2, 20850, Note_on_c, 0, 77, 45
2, 20852, Note_on_c, 0, 58, 29
2, 20884, Note_on_c, 0, 77, 0
2, 20884, Note_on_c, 0, 72, 0
2, 20911, Note_on_c, 0, 82, 0
2, 20958, Note_on_c, 0, 84, 67
2, 20959, Note_on_c, 0, 63, 32
2, 20959, Note_on_c, 0, 77, 50
2, 21005, Note_on_c, 0, 77, 0
2, 21014, Note_on_c, 0, 84, 0
2, 21112, Note_on_c, 0, 82, 46
2, 21118, Note_on_c, 0, 67, 30
2, 21118, Note_on_c, 0, 77, 45
2, 21119, Note_on_c, 0, 72, 31
2, 21188, Note_on_c, 0, 67, 0
2, 21209, Note_on_c, 0, 63, 0
2, 21221, Note_on_c, 0, 58, 0
2, 21471, Note_on_c, 0, 77, 0
2, 21479, Note_on_c, 0, 72, 0
2, 21480, Note_on_c, 0, 82, 0
2, 21932, Note_on_c, 0, 22, 37
2, 21934, Note_on_c, 0, 34, 38
2, 21974, Control_c, 0, 64, 0
2, 22418, Note_on_c, 0, 22, 0
2, 22421, Note_on_c, 0, 34, 0
2, 22449, Control_c, 0, 64, 127
2, 22481, Note_on_c, 0, 75, 74
2, 22483, Control_c, 0, 64, 0
2, 22484, Note_on_c, 0, 51, 59
2, 22646, Note_on_c, 0, 75, 0
2, 22648, Note_on_c, 0, 77, 63
2, 22650, Note_on_c, 0, 53, 58
2, 22656, Note_on_c, 0, 51, 0
2, 22737, Control_c, 0, 64, 127
2, 22856, Control_c, 0, 64, 0
2, 22876, Note_on_c, 0, 77, 0
2, 22885, Note_on_c, 0, 53, 0
2, 22887, Note_on_c, 0, 79, 64
2, 22889, Note_on_c, 0, 55, 39
2, 22899, Control_c, 0, 64, 127
2, 22936, Note_on_c, 0, 55, 0
2, 22974, Control_c, 0, 64, 0
2, 23010, Note_on_c, 0, 79, 0
2, 23172, Control_c, 0, 64, 0
2, 23192, Control_c, 0, 64, 127
2, 23240, Note_on_c, 0, 63, 56
2, 23242, Note_on_c, 0, 82, 69
2, 23244, Note_on_c, 0, 70, 65
2, 23256, Note_on_c, 0, 70, 0
2, 23257, Note_on_c, 0, 82, 0
2, 23258, Note_on_c, 0, 63, 0
2, 23279, Control_c, 0, 64, 0
2, 23293, Note_on_c, 0, 77, 66
2, 23296, Note_on_c, 0, 60, 38
2, 23297, Note_on_c, 0, 65, 33
2, 23299, Note_on_c, 0, 54, 38
2, 23305, Note_on_c, 0, 65, 0
2, 23305, Note_on_c, 0, 60, 0
2, 23307, Note_on_c, 0, 77, 0
2, 23308, Note_on_c, 0, 54, 0
2, 23376, Note_on_c, 0, 65, 34
2, 23376, Note_on_c, 0, 77, 43
2, 23377, Note_on_c, 0, 70, 39
2, 23378, Note_on_c, 0, 54, 34
2, 23380, Note_on_c, 0, 60, 31
2, 23415, Control_c, 0, 64, 127
2, 23463, Note_on_c, 0, 60, 0
2, 23480, Note_on_c, 0, 70, 0
2, 23488, Note_on_c, 0, 54, 0
2, 23489, Note_on_c, 0, 65, 0
2, 23510, Note_on_c, 0, 77, 0
2, 23539, Control_c, 0, 64, 0
2, 23540, Note_on_c, 0, 65, 25
2, 23540, Note_on_c, 0, 70, 30
2, 23540, Note_on_c, 0, 74, 45
2, 23544, Note_on_c, 0, 58, 25
2, 23545, Note_on_c, 0, 62, 25
2, 23546, Note_on_c, 0, 53, 40
2, 23549, Note_on_c, 0, 55, 31
2, 23590, Control_c, 0, 64, 127
2, 23624, Note_on_c, 0, 74, 0
2, 23645, Note_on_c, 0, 65, 0
2, 23648, Note_on_c, 0, 70, 0
2, 23648, Note_on_c, 0, 53, 0
2, 23650, Note_on_c, 0, 62, 0
2, 23660, Note_on_c, 0, 55, 0
2, 23663, Note_on_c, 0, 58, 0
2, 23738, Note_on_c, 0, 67, 80
2, 23769, Note_on_c, 0, 67, 0
2, 23780, Note_on_c, 0, 74, 89
2, 23781, Note_on_c, 0, 67, 89
2, 23782, Note_on_c, 0, 63, 81
2, 23784, Note_on_c, 0, 62, 80
2, 23784, Control_c, 0, 64, 0
2, 23785, Note_on_c, 0, 70, 52
2, 23792, Note_on_c, 0, 70, 0
2, 23861, Control_c, 0, 64, 127
2, 23875, Note_on_c, 0, 67, 0
2, 23879, Note_on_c, 0, 62, 0
2, 23879, Note_on_c, 0, 63, 0
2, 23884, Control_c, 0, 64, 0
2, 23886, Note_on_c, 0, 74, 0
2, 23900, Note_on_c, 0, 63, 47
2, 23902, Note_on_c, 0, 72, 53
2, 23904, Note_on_c, 0, 60, 43
2, 23904, Note_on_c, 0, 67, 47
2, 23914, Control_c, 0, 64, 127
2, 23948, Note_on_c, 0, 72, 0
2, 23964, Note_on_c, 0, 67, 0
2, 23972, Note_on_c, 0, 63, 0
2, 23980, Note_on_c, 0, 60, 0
2, 24026, Note_on_c, 0, 63, 34
2, 24027, Control_c, 0, 64, 0
2, 24027, Note_on_c, 0, 70, 42
2, 24030, Note_on_c, 0, 60, 24
2, 24030, Note_on_c, 0, 67, 39
2, 24031, Note_on_c, 0, 56, 23
2, 24033, Note_on_c, 0, 58, 26
2, 24075, Control_c, 0, 64, 127
2, 24080, Note_on_c, 0, 63, 0
2, 24083, Note_on_c, 0, 67, 0
2, 24083, Note_on_c, 0, 60, 0
2, 24085, Note_on_c, 0, 70, 0
2, 24087, Note_on_c, 0, 58, 0
2, 24088, Note_on_c, 0, 56, 0
2, 24091, Control_c, 0, 64, 0
2, 24109, Note_on_c, 0, 70, 48
2, 24109, Note_on_c, 0, 63, 49
2, 24110, Note_on_c, 0, 67, 47
2, 24112, Note_on_c, 0, 56, 34
2, 24112, Note_on_c, 0, 60, 38
2, 24112, Note_on_c, 0, 58, 33
2, 24124, Note_on_c, 0, 63, 0
2, 24125, Note_on_c, 0, 60, 0
2, 24126, Note_on_c, 0, 67, 0
2, 24131, Note_on_c, 0, 70, 0
2, 24131, Note_on_c, 0, 56, 0
2, 24131, Note_on_c, 0, 58, 0
2, 24223, Control_c, 0, 64, 127
2, 24229, Note_on_c, 0, 70, 60
2, 24229, Note_on_c, 0, 63, 59
2, 24242, Note_on_c, 0, 63, 0
2, 24246, Note_on_c, 0, 70, 0
2, 24265, Control_c, 0, 64, 0
2, 24268, Note_on_c, 0, 59, 57
2, 24268, Note_on_c, 0, 61, 56
2, 24272, Note_on_c, 0, 68, 30
2, 24273, Note_on_c, 0, 53, 55
2, 24275, Note_on_c, 0, 61, 0
2, 24275, Note_on_c, 0, 59, 0
2, 24280, Note_on_c, 0, 53, 0
2, 24281, Note_on_c, 0, 68, 0
2, 24378, Note_on_c, 0, 61, 36
2, 24378, Note_on_c, 0, 68, 42
2, 24380, Note_on_c, 0, 65, 34
2, 24380, Note_on_c, 0, 59, 38
2, 24382, Control_c, 0, 64, 127
2, 24384, Note_on_c, 0, 53, 39
2, 24385, Note_on_c, 0, 49, 29
2, 24397, Note_on_c, 0, 53, 0
2, 24402, Note_on_c, 0, 59, 0
2, 24406, Note_on_c, 0, 65, 0
2, 24417, Note_on_c, 0, 68, 0
2, 24425, Note_on_c, 0, 61, 0
2, 24426, Note_on_c, 0, 49, 0
2, 24491, Control_c, 0, 64, 0
2, 24499, Note_on_c, 0, 67, 39
2, 24499, Note_on_c, 0, 63, 36
2, 24500, Note_on_c, 0, 46, 31
2, 24504, Note_on_c, 0, 60, 40
2, 24504, Note_on_c, 0, 56, 26
2, 24506, Note_on_c, 0, 53, 32
2, 24521, Note_on_c, 0, 56, 0
2, 24524, Control_c, 0, 64, 127
2, 24525, Note_on_c, 0, 60, 0
2, 24532, Note_on_c, 0, 63, 0
2, 24540, Note_on_c, 0, 67, 0
2, 24581, Note_on_c, 0, 53, 0
2, 24583, Note_on_c, 0, 79, 90
2, 24588, Note_on_c, 0, 46, 0
2, 24616, Note_on_c, 0, 79, 0
2, 24625, Note_on_c, 0, 72, 60
2, 24639, Note_on_c, 0, 72, 0
2, 24666, Note_on_c, 0, 75, 46
2, 24680, Note_on_c, 0, 75, 0
2, 24704, Note_on_c, 0, 79, 89
2, 24710, Note_on_c, 0, 62, 60
2, 24711, Note_on_c, 0, 56, 50
2, 24712, Note_on_c, 0, 66, 55
2, 24720, Control_c, 0, 64, 0
2, 24737, Note_on_c, 0, 79, 0
2, 24752, Note_on_c, 0, 77, 68
2, 24752, Note_on_c, 0, 74, 66
2, 24783, Control_c, 0, 64, 127
2, 24833, Note_on_c, 0, 74, 0
2, 24880, Note_on_c, 0, 66, 0
2, 24891, Note_on_c, 0, 62, 0
2, 24917, Note_on_c, 0, 77, 0
2, 24925, Note_on_c, 0, 56, 0
2, 24934, Note_on_c, 0, 74, 64
2, 24969, Note_on_c, 0, 74, 0
2, 24978, Note_on_c, 0, 64, 28
2, 24982, Control_c, 0, 64, 0
2, 24982, Note_on_c, 0, 71, 48
2, 24982, Note_on_c, 0, 67, 24
2, 24983, Note_on_c, 0, 60, 32
2, 24993, Note_on_c, 0, 60, 0
2, 24994, Note_on_c, 0, 64, 0
2, 24997, Note_on_c, 0, 67, 0
2, 25006, Note_on_c, 0, 71, 0
2, 25055, Note_on_c, 0, 60, 37
2, 25056, Note_on_c, 0, 67, 38
2, 25056, Note_on_c, 0, 71, 57
2, 25057, Note_on_c, 0, 59, 38
2, 25058, Note_on_c, 0, 64, 22
2, 25085, Note_on_c, 0, 67, 0
2, 25091, Note_on_c, 0, 71, 0
2, 25104, Control_c, 0, 64, 127
2, 25107, Note_on_c, 0, 72, 44
2, 25121, Note_on_c, 0, 59, 0
2, 25123, Note_on_c, 0, 72, 0
2, 25126, Note_on_c, 0, 60, 0
2, 25130, Note_on_c, 0, 64, 0
2, 25175, Note_on_c, 0, 64, 37
2, 25176, Note_on_c, 0, 74, 79
2, 25194, Note_on_c, 0, 64, 0
2, 25195, Note_on_c, 0, 74, 0
2, 25219, Control_c, 0, 64, 0
2, 25224, Note_on_c, 0, 75, 35
2, 25226, Note_on_c, 0, 60, 24
2, 25226, Note_on_c, 0, 54, 32
2, 25228, Note_on_c, 0, 63, 29
2, 25229, Note_on_c, 0, 68, 39
2, 25234, Note_on_c, 0, 72, 28
2, 25257, Control_c, 0, 64, 127
2, 25260, Note_on_c, 0, 68, 0
2, 25274, Note_on_c, 0, 63, 0
2, 25274, Note_on_c, 0, 72, 0
2, 25276, Note_on_c, 0, 75, 0
2, 25281, Note_on_c, 0, 54, 0
2, 25291, Note_on_c, 0, 54, 25
2, 25296, Note_on_c, 0, 76, 47
2, 25298, Note_on_c, 0, 64, 52
2, 25300, Note_on_c, 0, 62, 29
2, 25300, Note_on_c, 0, 69, 55
2, 25301, Note_on_c, 0, 72, 34
2, 25303, Control_c, 0, 64, 0
2, 25328, Control_c, 0, 64, 127
2, 25366, Note_on_c, 0, 60, 0
2, 25385, Note_on_c, 0, 76, 0
2, 25392, Note_on_c, 0, 54, 0
2, 25397, Note_on_c, 0, 72, 0
2, 25399, Note_on_c, 0, 62, 0
2, 25403, Note_on_c, 0, 64, 0
2, 25419, Note_on_c, 0, 69, 0
2, 25437, Control_c, 0, 64, 0
2, 25441, Note_on_c, 0, 72, 53
2, 25443, Note_on_c, 0, 69, 36
2, 25444, Note_on_c, 0, 65, 35
2, 25444, Note_on_c, 0, 58, 29
2, 25445, Note_on_c, 0, 62, 31
2, 25447, Note_on_c, 0, 60, 34
2, 25469, Control_c, 0, 64, 127
2, 25494, Note_on_c, 0, 65, 0
2, 25507, Note_on_c, 0, 69, 0
2, 25513, Note_on_c, 0, 72, 0
2, 25551, Note_on_c, 0, 60, 0
2, 25552, Note_on_c, 0, 62, 0
2, 25562, Note_on_c, 0, 58, 0
2, 25569, Note_on_c, 0, 84, 99
2, 25598, Note_on_c, 0, 84, 0
2, 25612, Note_on_c, 0, 80, 62
2, 25681, Control_c, 0, 64, 0
2, 25689, Note_on_c, 0, 69, 24
2, 25690, Note_on_c, 0, 80, 0
2, 25690, Note_on_c, 0, 64, 35
2, 25692, Note_on_c, 0, 76, 49
2, 25695, Note_on_c, 0, 58, 15
2, 25696, Note_on_c, 0, 69, 0
2, 25698, Note_on_c, 0, 64, 0
2, 25706, Note_on_c, 0, 58, 0
2, 25708, Control_c, 0, 64, 127
2, 25740, Note_on_c, 0, 73, 54
2, 25744, Control_c, 0, 64, 0
2, 25746, Note_on_c, 0, 73, 0
2, 25748, Note_on_c, 0, 76, 0
2, 25754, Control_c, 0, 64, 127
2, 25756, Note_on_c, 0, 74, 24
2, 25791, Note_on_c, 0, 74, 0
2, 25812, Control_c, 0, 64, 0
2, 25818, Note_on_c, 0, 63, 23
2, 25819, Note_on_c, 0, 72, 51
2, 25823, Note_on_c, 0, 58, 23
2, 25824, Note_on_c, 0, 52, 33
2, 25842, Control_c, 0, 64, 127
2, 25850, Note_on_c, 0, 72, 0
2, 25857, Note_on_c, 0, 70, 55
2, 25866, Note_on_c, 0, 52, 0
2, 25880, Note_on_c, 0, 58, 0
2, 25900, Note_on_c, 0, 63, 0
2, 25926, Note_on_c, 0, 70, 0
2, 25927, Note_on_c, 0, 63, 29
2, 25933, Note_on_c, 0, 68, 50
2, 25934, Control_c, 0, 64, 0
2, 25935, Note_on_c, 0, 60, 34
2, 25938, Note_on_c, 0, 53, 36
2, 25942, Note_on_c, 0, 56, 23
2, 25980, Control_c, 0, 64, 127
2, 26047, Note_on_c, 0, 60, 0
2, 26047, Note_on_c, 0, 63, 0
2, 26065, Note_on_c, 0, 53, 0
2, 26068, Note_on_c, 0, 56, 0
2, 26077, Note_on_c, 0, 68, 0
2, 26151, Note_on_c, 0, 53, 58
2, 26158, Note_on_c, 0, 53, 0
2, 26162, Note_on_c, 0, 54, 46
2, 26164, Control_c, 0, 64, 0
2, 26168, Note_on_c, 0, 60, 69
2, 26168, Note_on_c, 0, 65, 74
2, 26168, Note_on_c, 0, 70, 75
2, 26171, Note_on_c, 0, 55, 47
2, 26174, Note_on_c, 0, 54, 0
2, 26211, Control_c, 0, 64, 127
2, 26240, Note_on_c, 0, 60, 0
2, 26248, Note_on_c, 0, 65, 0
2, 26249, Note_on_c, 0, 55, 0
2, 26251, Note_on_c, 0, 70, 0
2, 26260, Note_on_c, 0, 54, 28
2, 26269, Control_c, 0, 64, 0
2, 26287, Note_on_c, 0, 70, 62
2, 26289, Note_on_c, 0, 60, 55
2, 26290, Note_on_c, 0, 55, 59
2, 26290, Note_on_c, 0, 65, 60
2, 26294, Note_on_c, 0, 54, 0
2, 26305, Control_c, 0, 64, 127
2, 26361, Note_on_c, 0, 65, 0
2, 26365, Note_on_c, 0, 60, 0
2, 26367, Note_on_c, 0, 70, 0
2, 26375, Note_on_c, 0, 55, 0
2, 26387, Note_on_c, 0, 51, 23
2, 26395, Note_on_c, 0, 51, 0
2, 26398, Control_c, 0, 64, 0
2, 26402, Note_on_c, 0, 68, 51
2, 26403, Note_on_c, 0, 60, 41
2, 26405, Note_on_c, 0, 63, 48
2, 26408, Note_on_c, 0, 53, 45
2, 26472, Control_c, 0, 64, 127
2, 26479, Note_on_c, 0, 53, 0
2, 26482, Note_on_c, 0, 63, 0
2, 26485, Note_on_c, 0, 60, 0
2, 26487, Note_on_c, 0, 68, 0
2, 26491, Note_on_c, 0, 52, 34
2, 26496, Control_c, 0, 64, 0
2, 26506, Note_on_c, 0, 52, 0
2, 26521, Note_on_c, 0, 53, 54
2, 26521, Note_on_c, 0, 68, 35
2, 26523, Note_on_c, 0, 63, 44
2, 26524, Note_on_c, 0, 60, 47
2, 26530, Control_c, 0, 64, 127
2, 26540, Note_on_c, 0, 68, 0
2, 26542, Note_on_c, 0, 53, 0
2, 26544, Note_on_c, 0, 63, 0
2, 26549, Note_on_c, 0, 60, 0
2, 26607, Note_on_c, 0, 46, 55
2, 26608, Note_on_c, 0, 67, 76
2, 26608, Note_on_c, 0, 60, 75
2, 26608, Note_on_c, 0, 63, 60
2, 26609, Note_on_c, 0, 56, 67
2, 26610, Note_on_c, 0, 53, 55
2, 26616, Note_on_c, 0, 53, 0
2, 26619, Control_c, 0, 64, 0
2, 26629, Note_on_c, 0, 46, 0
2, 26663, Control_c, 0, 64, 127
2, 26664, Note_on_c, 0, 67, 0
2, 26667, Note_on_c, 0, 34, 76
2, 26669, Note_on_c, 0, 60, 0
2, 26670, Note_on_c, 0, 56, 0
2, 26677, Note_on_c, 0, 63, 0
2, 26683, Note_on_c, 0, 34, 0
2, 26773, Note_on_c, 0, 74, 94
2, 26774, Note_on_c, 0, 62, 95
2, 26775, Note_on_c, 0, 67, 89
2, 26776, Note_on_c, 0, 56, 91
2, 26777, Control_c, 0, 64, 0
2, 26778, Note_on_c, 0, 71, 60
2, 26780, Note_on_c, 0, 64, 44
2, 26785, Note_on_c, 0, 71, 0
2, 26788, Note_on_c, 0, 64, 0
2, 26827, Control_c, 0, 64, 127
2, 26885, Control_c, 0, 64, 0
2, 26899, Control_c, 0, 64, 127
2, 26944, Note_on_c, 0, 67, 0
2, 26953, Note_on_c, 0, 62, 0
2, 26958, Note_on_c, 0, 74, 0
2, 26989, Note_on_c, 0, 56, 0
2, 27008, Control_c, 0, 64, 0
2, 27009, Note_on_c, 0, 70, 57
2, 27011, Note_on_c, 0, 62, 47
2, 27012, Note_on_c, 0, 60, 36
2, 27012, Note_on_c, 0, 67, 44
2, 27016, Note_on_c, 0, 55, 45
2, 27044, Control_c, 0, 64, 127
2, 27068, Note_on_c, 0, 60, 0
2, 27070, Note_on_c, 0, 62, 0
2, 27074, Note_on_c, 0, 67, 0
2, 27078, Note_on_c, 0, 70, 0
2, 27118, Control_c, 0, 64, 0
2, 27127, Note_on_c, 0, 70, 65
2, 27129, Note_on_c, 0, 55, 0
2, 27130, Note_on_c, 0, 77, 75
2, 27130, Note_on_c, 0, 44, 54
2, 27146, Control_c, 0, 64, 127
2, 27150, Note_on_c, 0, 44, 0
2, 27214, Note_on_c, 0, 70, 0
2, 27234, Note_on_c, 0, 77, 0
2, 27242, Note_on_c, 0, 70, 36
2, 27244, Note_on_c, 0, 74, 57
2, 27246, Note_on_c, 0, 65, 48
2, 27251, Note_on_c, 0, 54, 32
2, 27252, Note_on_c, 0, 58, 25
2, 27253, Note_on_c, 0, 60, 22
2, 27280, Note_on_c, 0, 60, 0
2, 27296, Note_on_c, 0, 58, 0
2, 27307, Note_on_c, 0, 65, 0
2, 27310, Note_on_c, 0, 74, 0
2, 27313, Note_on_c, 0, 70, 0
2, 27316, Note_on_c, 0, 54, 0
2, 27362, Note_on_c, 0, 70, 46
2, 27363, Note_on_c, 0, 62, 27
2, 27363, Note_on_c, 0, 53, 33
2, 27365, Note_on_c, 0, 65, 38
2, 27365, Control_c, 0, 64, 0
2, 27366, Note_on_c, 0, 58, 28
2, 27367, Note_on_c, 0, 55, 35
2, 27423, Control_c, 0, 64, 127
2, 27455, Note_on_c, 0, 65, 0
2, 27468, Note_on_c, 0, 53, 0
2, 27468, Note_on_c, 0, 70, 0
2, 27472, Note_on_c, 0, 55, 0
2, 27476, Note_on_c, 0, 62, 0
2, 27480, Note_on_c, 0, 58, 0
2, 27599, Note_on_c, 0, 58, 64
2, 27599, Note_on_c, 0, 74, 96
2, 27599, Note_on_c, 0, 78, 84
2, 27600, Note_on_c, 0, 86, 89
2, 27600, Control_c, 0, 64, 0
2, 27601, Note_on_c, 0, 62, 51
2, 27602, Note_on_c, 0, 67, 71
2, 27602, Note_on_c, 0, 63, 50
2, 27603, Note_on_c, 0, 84, 60
2, 27610, Note_on_c, 0, 84, 0
2, 27625, Note_on_c, 0, 79, 11
2, 27628, Note_on_c, 0, 78, 0
2, 27638, Note_on_c, 0, 74, 0
2, 27640, Note_on_c, 0, 67, 0
2, 27642, Note_on_c, 0, 58, 0
2, 27648, Note_on_c, 0, 62, 0
2, 27648, Note_on_c, 0, 79, 0
2, 27648, Note_on_c, 0, 63, 0
2, 27650, Note_on_c, 0, 86, 0
2, 27685, Note_on_c, 0, 78, 82
2, 27688, Note_on_c, 0, 74, 80
2, 27688, Note_on_c, 0, 62, 51
2, 27688, Note_on_c, 0, 58, 60
2, 27688, Note_on_c, 0, 67, 66
2, 27689, Note_on_c, 0, 63, 59
2, 27689, Note_on_c, 0, 86, 68
2, 27691, Note_on_c, 0, 84, 69
2, 27698, Note_on_c, 0, 84, 0
2, 27709, Note_on_c, 0, 67, 0
2, 27714, Note_on_c, 0, 79, 47
2, 27715, Note_on_c, 0, 78, 0
2, 27718, Note_on_c, 0, 86, 0
2, 27718, Note_on_c, 0, 82, 18
2, 27721, Note_on_c, 0, 74, 0
2, 27722, Note_on_c, 0, 79, 0
2, 27724, Note_on_c, 0, 82, 0
2, 27726, Note_on_c, 0, 62, 0
2, 27739, Note_on_c, 0, 67, 40
2, 27744, Note_on_c, 0, 84, 37
2, 27744, Note_on_c, 0, 79, 34
2, 27746, Note_on_c, 0, 72, 33
2, 27760, Note_on_c, 0, 72, 0
2, 27760, Note_on_c, 0, 84, 0
2, 27760, Note_on_c, 0, 79, 0
2, 27761, Note_on_c, 0, 67, 0
2, 27770, Note_on_c, 0, 63, 0
2, 27775, Note_on_c, 0, 58, 0
2, 27797, Control_c, 0, 64, 127
2, 27808, Note_on_c, 0, 58, 34
2, 27813, Note_on_c, 0, 63, 30
2, 27813, Note_on_c, 0, 79, 68
2, 27813, Note_on_c, 0, 84, 70
2, 27814, Note_on_c, 0, 72, 65
2, 27819, Note_on_c, 0, 58, 0
2, 27821, Note_on_c, 0, 84, 0
2, 27822, Note_on_c, 0, 63, 0
2, 27825, Note_on_c, 0, 72, 0
2, 27829, Note_on_c, 0, 79, 0
2, 27849, Control_c, 0, 64, 0
2, 27856, Note_on_c, 0, 63, 28
2, 27856, Note_on_c, 0, 67, 32
2, 27857, Note_on_c, 0, 56, 37
2, 27858, Note_on_c, 0, 78, 42
2, 27859, Note_on_c, 0, 60, 43
2, 27859, Note_on_c, 0, 82, 40
2, 27861, Note_on_c, 0, 70, 36
2, 27884, Note_on_c, 0, 70, 0
2, 27886, Note_on_c, 0, 60, 0
2, 27887, Note_on_c, 0, 67, 0
2, 27888, Note_on_c, 0, 78, 0
2, 27889, Note_on_c, 0, 63, 0
2, 27889, Note_on_c, 0, 82, 0
2, 27893, Note_on_c, 0, 56, 0
2, 27965, Note_on_c, 0, 82, 51
2, 27967, Note_on_c, 0, 70, 43
2, 27968, Note_on_c, 0, 63, 37
2, 27969, Note_on_c, 0, 67, 33
2, 27970, Note_on_c, 0, 56, 29
2, 27970, Note_on_c, 0, 77, 53
2, 27973, Note_on_c, 0, 60, 36
2, 27998, Control_c, 0, 64, 127
2, 28008, Note_on_c, 0, 67, 0
2, 28014, Note_on_c, 0, 77, 0
2, 28014, Note_on_c, 0, 60, 0
2, 28015, Note_on_c, 0, 63, 0
2, 28019, Note_on_c, 0, 82, 0
2, 28022, Note_on_c, 0, 70, 0
2, 28026, Note_on_c, 0, 56, 0
2, 28049, Control_c, 0, 64, 0
2, 28083, Note_on_c, 0, 80, 48
2, 28085, Note_on_c, 0, 68, 36
2, 28087, Note_on_c, 0, 63, 27
2, 28092, Note_on_c, 0, 60, 35
2, 28092, Note_on_c, 0, 53, 33
2, 28096, Note_on_c, 0, 56, 27
2, 28112, Control_c, 0, 64, 127
2, 28182, Note_on_c, 0, 53, 0
2, 28186, Note_on_c, 0, 60, 0
2, 28188, Note_on_c, 0, 68, 0
2, 28200, Note_on_c, 0, 63, 0
2, 28200, Note_on_c, 0, 56, 0
2, 28210, Note_on_c, 0, 80, 0
2, 28324, Control_c, 0, 64, 0
2, 28328, Note_on_c, 0, 63, 56
2, 28329, Note_on_c, 0, 67, 67
2, 28329, Note_on_c, 0, 60, 57
2, 28330, Note_on_c, 0, 56, 49
2, 28330, Note_on_c, 0, 94, 71
2, 28331, Note_on_c, 0, 82, 71
2, 28331, Note_on_c, 0, 87, 73
2, 28337, Note_on_c, 0, 60, 0
2, 28337, Note_on_c, 0, 67, 0
2, 28338, Note_on_c, 0, 82, 0
2, 28338, Note_on_c, 0, 87, 0
2, 28339, Note_on_c, 0, 56, 0
2, 28344, Note_on_c, 0, 94, 0
2, 28344, Note_on_c, 0, 63, 0
2, 28364, Note_on_c, 0, 94, 69
2, 28364, Note_on_c, 0, 63, 33
2, 28365, Note_on_c, 0, 82, 62
2, 28366, Note_on_c, 0, 56, 33
2, 28366, Note_on_c, 0, 87, 63
2, 28366, Note_on_c, 0, 67, 42
2, 28368, Note_on_c, 0, 60, 46
2, 28387, Note_on_c, 0, 67, 0
2, 28390, Note_on_c, 0, 82, 0
2, 28390, Note_on_c, 0, 87, 0
2, 28391, Note_on_c, 0, 94, 0
2, 28393, Note_on_c, 0, 60, 0
2, 28395, Note_on_c, 0, 63, 0
2, 28395, Control_c, 0, 64, 127
2, 28396, Note_on_c, 0, 56, 0
2, 28425, Control_c, 0, 64, 0
2, 28443, Note_on_c, 0, 63, 39
2, 28448, Note_on_c, 0, 92, 36
2, 28454, Note_on_c, 0, 92, 0
2, 28456, Note_on_c, 0, 63, 0
2, 28481, Note_on_c, 0, 63, 32
2, 28484, Note_on_c, 0, 80, 57
2, 28484, Note_on_c, 0, 92, 64
2, 28485, Note_on_c, 0, 87, 62
2, 28485, Note_on_c, 0, 67, 36
2, 28486, Note_on_c, 0, 60, 36
2, 28489, Note_on_c, 0, 56, 29
2, 28509, Control_c, 0, 64, 127
2, 28527, Note_on_c, 0, 67, 0
2, 28531, Note_on_c, 0, 60, 0
2, 28535, Note_on_c, 0, 87, 0
2, 28536, Note_on_c, 0, 63, 0
2, 28538, Note_on_c, 0, 80, 0
2, 28541, Note_on_c, 0, 56, 0
2, 28541, Note_on_c, 0, 92, 0
2, 28561, Control_c, 0, 64, 0
2, 28567, Note_on_c, 0, 66, 59
2, 28568, Note_on_c, 0, 55, 44
2, 28568, Note_on_c, 0, 93, 64
2, 28569, Note_on_c, 0, 81, 57
2, 28571, Note_on_c, 0, 61, 43
2, 28573, Note_on_c, 0, 88, 45
2, 28577, Note_on_c, 0, 81, 0
2, 28577, Note_on_c, 0, 55, 0
2, 28578, Note_on_c, 0, 93, 0
2, 28580, Note_on_c, 0, 88, 0
2, 28582, Note_on_c, 0, 66, 0
2, 28598, Note_on_c, 0, 61, 0
2, 28601, Control_c, 0, 64, 127
2, 28607, Note_on_c, 0, 93, 60
2, 28610, Note_on_c, 0, 88, 63
2, 28610, Note_on_c, 0, 81, 50
2, 28610, Note_on_c, 0, 66, 49
2, 28613, Note_on_c, 0, 61, 35
2, 28616, Note_on_c, 0, 55, 44
2, 28638, Note_on_c, 0, 81, 0
2, 28646, Note_on_c, 0, 88, 0
2, 28646, Note_on_c, 0, 55, 0
2, 28648, Note_on_c, 0, 93, 0
2, 28658, Note_on_c, 0, 61, 0
2, 28658, Note_on_c, 0, 66, 0
2, 28675, Control_c, 0, 64, 0
2, 28681, Note_on_c, 0, 66, 57
2, 28683, Note_on_c, 0, 55, 57
2, 28684, Note_on_c, 0, 85, 74
2, 28684, Note_on_c, 0, 61, 48
2, 28684, Note_on_c, 0, 97, 70
2, 28691, Control_c, 0, 64, 127
2, 28698, Note_on_c, 0, 97, 0
2, 28698, Note_on_c, 0, 85, 0
2, 28698, Note_on_c, 0, 66, 0
2, 28702, Note_on_c, 0, 55, 0
2, 28708, Note_on_c, 0, 61, 0
2, 28722, Note_on_c, 0, 66, 42
2, 28724, Note_on_c, 0, 97, 69
2, 28725, Note_on_c, 0, 85, 63
2, 28726, Note_on_c, 0, 61, 50
2, 28743, Note_on_c, 0, 66, 0
2, 28746, Note_on_c, 0, 85, 0
2, 28751, Note_on_c, 0, 61, 0
2, 28754, Note_on_c, 0, 97, 0
2, 28800, Note_on_c, 0, 54, 49
2, 28800, Note_on_c, 0, 65, 57
2, 28800, Note_on_c, 0, 60, 55
2, 28802, Control_c, 0, 64, 0
2, 28802, Note_on_c, 0, 96, 43
2, 28803, Note_on_c, 0, 91, 43
2, 28810, Note_on_c, 0, 91, 0
2, 28810, Note_on_c, 0, 60, 0
2, 28810, Note_on_c, 0, 96, 0
2, 28810, Note_on_c, 0, 65, 0
2, 28811, Note_on_c, 0, 54, 0
2, 28912, Note_on_c, 0, 60, 56
2, 28913, Note_on_c, 0, 54, 54
2, 28914, Note_on_c, 0, 65, 51
2, 28914, Note_on_c, 0, 96, 72
2, 28915, Note_on_c, 0, 84, 63
2, 28915, Note_on_c, 0, 91, 58
2, 28924, Control_c, 0, 64, 127
2, 28954, Note_on_c, 0, 65, 0
2, 28955, Note_on_c, 0, 84, 0
2, 28957, Note_on_c, 0, 91, 0
2, 28959, Note_on_c, 0, 60, 0
2, 28962, Note_on_c, 0, 96, 0
2, 28968, Note_on_c, 0, 54, 0
2, 29026, Control_c, 0, 64, 0
2, 29034, Note_on_c, 0, 55, 74
2, 29035, Note_on_c, 0, 57, 69
2, 29037, Note_on_c, 0, 60, 68
2, 29038, Note_on_c, 0, 64, 70
2, 29038, Note_on_c, 0, 98, 92
2, 29040, Note_on_c, 0, 86, 75
2, 29042, Note_on_c, 0, 95, 61
2, 29042, Note_on_c, 0, 91, 57
2, 29043, Note_on_c, 0, 88, 71
2, 29043, Note_on_c, 0, 93, 63
2, 29049, Note_on_c, 0, 88, 0
2, 29050, Note_on_c, 0, 93, 0
2, 29053, Note_on_c, 0, 91, 0
2, 29060, Control_c, 0, 64, 127
2, 29103, Note_on_c, 0, 55, 0
2, 29107, Note_on_c, 0, 57, 0
2, 29107, Note_on_c, 0, 95, 0
2, 29109, Note_on_c, 0, 98, 0
2, 29115, Note_on_c, 0, 86, 0
2, 29116, Note_on_c, 0, 64, 0
2, 29120, Note_on_c, 0, 60, 0
2, 29156, Control_c, 0, 64, 0
2, 29159, Note_on_c, 0, 92, 81
2, 29160, Note_on_c, 0, 65, 79
2, 29160, Note_on_c, 0, 58, 64
2, 29160, Note_on_c, 0, 60, 66
2, 29161, Note_on_c, 0, 84, 83
2, 29161, Note_on_c, 0, 54, 71
2, 29161, Note_on_c, 0, 90, 63
2, 29162, Note_on_c, 0, 96, 82
2, 29174, Note_on_c, 0, 90, 0
2, 29187, Control_c, 0, 64, 127
2, 29195, Note_on_c, 0, 92, 0
2, 29195, Note_on_c, 0, 93, 51
2, 29224, Note_on_c, 0, 93, 0
2, 29224, Note_on_c, 0, 60, 0
2, 29226, Note_on_c, 0, 96, 0
2, 29229, Note_on_c, 0, 65, 0
2, 29242, Note_on_c, 0, 84, 0
2, 29243, Note_on_c, 0, 58, 0
2, 29258, Note_on_c, 0, 54, 0
2, 29282, Control_c, 0, 64, 0
2, 29283, Note_on_c, 0, 94, 69
2, 29284, Note_on_c, 0, 82, 62
2, 29285, Note_on_c, 0, 62, 45
2, 29286, Note_on_c, 0, 58, 38
2, 29286, Note_on_c, 0, 53, 57
2, 29288, Note_on_c, 0, 55, 56
2, 29291, Note_on_c, 0, 89, 53
2, 29324, Control_c, 0, 64, 127
2, 29347, Note_on_c, 0, 94, 0
2, 29349, Note_on_c, 0, 89, 0
2, 29367, Note_on_c, 0, 82, 0
2, 29416, Note_on_c, 0, 62, 0
2, 29419, Note_on_c, 0, 53, 0
2, 29421, Note_on_c, 0, 55, 0
2, 29429, Note_on_c, 0, 58, 0
2, 29503, Note_on_c, 0, 58, 44
2, 29532, Control_c, 0, 64, 0
2, 29533, Note_on_c, 0, 68, 60
2, 29534, Note_on_c, 0, 58, 0
2, 29534, Note_on_c, 0, 66, 64
2, 29534, Note_on_c, 0, 72, 71
2, 29534, Note_on_c, 0, 64, 77
2, 29536, Note_on_c, 0, 60, 48
2, 29547, Note_on_c, 0, 72, 0
2, 29550, Note_on_c, 0, 66, 0
2, 29551, Note_on_c, 0, 64, 0
2, 29553, Note_on_c, 0, 68, 0
2, 29560, Note_on_c, 0, 60, 0
2, 29568, Note_on_c, 0, 61, 64
2, 29569, Note_on_c, 0, 64, 64
2, 29569, Note_on_c, 0, 68, 37
2, 29570, Note_on_c, 0, 73, 73
2, 29571, Note_on_c, 0, 66, 46
2, 29630, Note_on_c, 0, 66, 0
2, 29637, Note_on_c, 0, 73, 0
2, 29638, Note_on_c, 0, 68, 0
2, 29638, Note_on_c, 0, 64, 0
2, 29653, Note_on_c, 0, 61, 0
2, 29656, Note_on_c, 0, 68, 35
2, 29656, Note_on_c, 0, 64, 57
2, 29658, Note_on_c, 0, 66, 52
2, 29659, Note_on_c, 0, 60, 43
2, 29660, Note_on_c, 0, 72, 47
2, 29676, Control_c, 0, 64, 127
2, 29705, Note_on_c, 0, 66, 0
2, 29708, Note_on_c, 0, 64, 0
2, 29718, Note_on_c, 0, 68, 0
2, 29719, Note_on_c, 0, 72, 0
2, 29729, Note_on_c, 0, 60, 0
2, 29746, Note_on_c, 0, 56, 25
2, 29752, Note_on_c, 0, 54, 28
2, 29766, Note_on_c, 0, 54, 0
2, 29766, Note_on_c, 0, 56, 0
2, 29779, Note_on_c, 0, 68, 34
2, 29781, Note_on_c, 0, 56, 56
2, 29781, Note_on_c, 0, 60, 46
2, 29783, Control_c, 0, 64, 0
2, 29784, Note_on_c, 0, 63, 43
2, 29785, Note_on_c, 0, 65, 24
2, 29859, Control_c, 0, 64, 127
2, 29863, Control_c, 0, 64, 0
2, 29901, Control_c, 0, 64, 127
2, 29954, Note_on_c, 0, 60, 0
2, 29956, Note_on_c, 0, 68, 0
2, 29964, Note_on_c, 0, 65, 0
2, 29975, Note_on_c, 0, 56, 0
2, 29979, Note_on_c, 0, 63, 0
2, 29984, Note_on_c, 0, 53, 53
2, 29993, Note_on_c, 0, 53, 0
2, 30011, Note_on_c, 0, 70, 47
2, 30012, Note_on_c, 0, 59, 54
2, 30012, Note_on_c, 0, 62, 48
2, 30015, Control_c, 0, 64, 0
2, 30016, Note_on_c, 0, 56, 42
2, 30016, Note_on_c, 0, 65, 15
2, 30106, Control_c, 0, 64, 127
2, 30140, Note_on_c, 0, 56, 0
2, 30148, Note_on_c, 0, 62, 0
2, 30162, Note_on_c, 0, 59, 0
2, 30187, Note_on_c, 0, 70, 0
2, 30202, Note_on_c, 0, 65, 0
2, 30242, Note_on_c, 0, 59, 44
2, 30246, Note_on_c, 0, 67, 51
2, 30246, Note_on_c, 0, 63, 52
2, 30247, Note_on_c, 0, 53, 43
2, 30247, Note_on_c, 0, 58, 44
2, 30248, Note_on_c, 0, 49, 29
2, 30248, Control_c, 0, 64, 0
2, 30280, Control_c, 0, 64, 127
2, 30303, Note_on_c, 0, 59, 0
2, 30309, Note_on_c, 0, 49, 0
2, 30310, Note_on_c, 0, 58, 0
2, 30311, Note_on_c, 0, 67, 0
2, 30314, Note_on_c, 0, 63, 0
2, 30314, Note_on_c, 0, 53, 0
2, 30328, Note_on_c, 0, 68, 67
2, 30331, Note_on_c, 0, 49, 37
2, 30331, Note_on_c, 0, 58, 47
2, 30332, Note_on_c, 0, 63, 44
2, 30332, Note_on_c, 0, 59, 48
2, 30334, Note_on_c, 0, 53, 58
2, 30346, Note_on_c, 0, 59, 0
2, 30351, Note_on_c, 0, 58, 0
2, 30354, Note_on_c, 0, 53, 0
2, 30357, Note_on_c, 0, 68, 0
2, 30359, Control_c, 0, 64, 0
2, 30372, Note_on_c, 0, 59, 28
2, 30377, Note_on_c, 0, 67, 35
2, 30377, Note_on_c, 0, 53, 30
2, 30378, Note_on_c, 0, 58, 20
2, 30384, Control_c, 0, 64, 127
2, 30392, Note_on_c, 0, 63, 0
2, 30397, Note_on_c, 0, 53, 0
2, 30397, Note_on_c, 0, 58, 0
2, 30401, Note_on_c, 0, 59, 0
2, 30411, Note_on_c, 0, 67, 0
2, 30429, Note_on_c, 0, 49, 0
2, 30453, Note_on_c, 0, 56, 55
2, 30453, Note_on_c, 0, 68, 62
2, 30455, Note_on_c, 0, 58, 59
2, 30458, Note_on_c, 0, 64, 55
2, 30458, Note_on_c, 0, 61, 53
2, 30462, Note_on_c, 0, 48, 35
2, 30462, Control_c, 0, 64, 0
2, 30470, Note_on_c, 0, 61, 0
2, 30471, Note_on_c, 0, 58, 0
2, 30472, Note_on_c, 0, 48, 0
2, 30474, Note_on_c, 0, 64, 0
2, 30475, Note_on_c, 0, 68, 0
2, 30478, Note_on_c, 0, 56, 0
2, 30507, Note_on_c, 0, 48, 36
2, 30526, Note_on_c, 0, 48, 0
2, 30565, Note_on_c, 0, 54, 58
2, 30570, Note_on_c, 0, 58, 63
2, 30570, Note_on_c, 0, 64, 57
2, 30572, Note_on_c, 0, 67, 60
2, 30572, Note_on_c, 0, 55, 66
2, 30573, Note_on_c, 0, 61, 59
2, 30580, Note_on_c, 0, 54, 0
2, 30602, Note_on_c, 0, 67, 0
2, 30604, Note_on_c, 0, 64, 0
2, 30605, Note_on_c, 0, 58, 0
2, 30618, Note_on_c, 0, 55, 0
2, 30625, Note_on_c, 0, 65, 50
2, 30628, Note_on_c, 0, 58, 27
2, 30629, Note_on_c, 0, 53, 36
2, 30651, Note_on_c, 0, 53, 0
2, 30652, Note_on_c, 0, 58, 0
2, 30656, Note_on_c, 0, 61, 0
2, 30665, Note_on_c, 0, 65, 0
2, 30684, Control_c, 0, 64, 127
2, 30700, Note_on_c, 0, 58, 49
2, 30701, Note_on_c, 0, 63, 55
2, 30719, Note_on_c, 0, 58, 0
2, 30730, Note_on_c, 0, 63, 0
2, 30736, Control_c, 0, 64, 0
2, 30748, Note_on_c, 0, 67, 46
2, 30748, Note_on_c, 0, 60, 48
2, 30751, Note_on_c, 0, 55, 33
2, 30752, Note_on_c, 0, 45, 36
2, 30784, Control_c, 0, 64, 127
2, 30791, Note_on_c, 0, 55, 0
2, 30799, Note_on_c, 0, 60, 0
2, 30807, Note_on_c, 0, 45, 0
2, 30811, Note_on_c, 0, 67, 0
2, 30833, Control_c, 0, 64, 0
2, 30850, Note_on_c, 0, 63, 40
2, 30850, Note_on_c, 0, 60, 47
2, 30851, Note_on_c, 0, 67, 44
2, 30851, Note_on_c, 0, 55, 47
2, 30854, Note_on_c, 0, 45, 38
2, 30870, Control_c, 0, 64, 127
2, 30890, Note_on_c, 0, 67, 0
2, 30897, Note_on_c, 0, 60, 0
2, 30899, Note_on_c, 0, 63, 0
2, 30906, Note_on_c, 0, 55, 0
2, 30927, Note_on_c, 0, 45, 0
2, 30934, Note_on_c, 0, 51, 33
2, 30955, Note_on_c, 0, 51, 0
2, 30968, Note_on_c, 0, 63, 46
2, 30970, Note_on_c, 0, 54, 42
2, 30970, Control_c, 0, 64, 0
2, 30970, Note_on_c, 0, 59, 59
2, 30971, Note_on_c, 0, 44, 38
2, 31026, Control_c, 0, 64, 127
2, 31108, Note_on_c, 0, 59, 0
2, 31113, Note_on_c, 0, 54, 0
2, 31158, Note_on_c, 0, 63, 0
2, 31161, Note_on_c, 0, 51, 32
2, 31181, Note_on_c, 0, 44, 0
2, 31186, Note_on_c, 0, 51, 0
2, 31189, Control_c, 0, 64, 0
2, 31195, Note_on_c, 0, 62, 35
2, 31201, Note_on_c, 0, 53, 43
2, 31203, Note_on_c, 0, 43, 45
2, 31206, Note_on_c, 0, 58, 35
2, 31219, Control_c, 0, 64, 127
2, 31220, Note_on_c, 0, 53, 0
2, 31223, Note_on_c, 0, 62, 0
2, 31235, Note_on_c, 0, 58, 0
2, 31287, Note_on_c, 0, 43, 0
2, 31288, Note_on_c, 0, 58, 73
2, 31288, Note_on_c, 0, 62, 58
2, 31289, Note_on_c, 0, 65, 62
2, 31289, Note_on_c, 0, 55, 79
2, 31292, Note_on_c, 0, 53, 79
2, 31308, Note_on_c, 0, 55, 0
2, 31320, Note_on_c, 0, 58, 0
2, 31321, Note_on_c, 0, 62, 0
2, 31331, Note_on_c, 0, 65, 0
2, 31346, Note_on_c, 0, 53, 0
2, 31405, Note_on_c, 0, 66, 59
2, 31406, Note_on_c, 0, 70, 86
2, 31407, Note_on_c, 0, 61, 83
2, 31411, Note_on_c, 0, 65, 73
2, 31412, Note_on_c, 0, 58, 77
2, 31413, Note_on_c, 0, 66, 0
2, 31415, Control_c, 0, 64, 0
2, 31449, Control_c, 0, 64, 127
2, 31471, Note_on_c, 0, 65, 0
2, 31476, Note_on_c, 0, 70, 0
2, 31481, Note_on_c, 0, 58, 0
2, 31488, Note_on_c, 0, 61, 0
2, 31528, Note_on_c, 0, 72, 80
2, 31528, Note_on_c, 0, 68, 68
2, 31528, Note_on_c, 0, 60, 80
2, 31529, Note_on_c, 0, 65, 79
2, 31529, Note_on_c, 0, 61, 77
2, 31538, Control_c, 0, 64, 0
2, 31572, Control_c, 0, 64, 127
2, 31593, Note_on_c, 0, 60, 0
2, 31598, Note_on_c, 0, 72, 0
2, 31606, Note_on_c, 0, 65, 0
2, 31611, Note_on_c, 0, 61, 0
2, 31611, Note_on_c, 0, 68, 0
2, 31670, Note_on_c, 0, 48, 51
2, 31689, Note_on_c, 0, 48, 0
2, 31694, Note_on_c, 0, 61, 46
2, 31695, Note_on_c, 0, 67, 44
2, 31696, Note_on_c, 0, 57, 44
2, 31703, Note_on_c, 0, 51, 47
2, 31704, Control_c, 0, 64, 0
2, 31712, Note_on_c, 0, 61, 0
2, 31718, Note_on_c, 0, 62, 32
2, 31761, Note_on_c, 0, 62, 0
2, 31761, Note_on_c, 0, 57, 0
2, 31778, Note_on_c, 0, 67, 0
2, 31783, Note_on_c, 0, 51, 0
2, 31784, Control_c, 0, 64, 127
2, 31788, Control_c, 0, 64, 0
2, 31795, Note_on_c, 0, 41, 22
2, 31818, Note_on_c, 0, 67, 51
2, 31818, Note_on_c, 0, 51, 48
2, 31820, Note_on_c, 0, 56, 52
2, 31822, Note_on_c, 0, 63, 42
2, 31824, Note_on_c, 0, 60, 53
2, 31841, Note_on_c, 0, 41, 0
2, 31874, Control_c, 0, 64, 127
2, 31876, Note_on_c, 0, 60, 0
2, 31877, Note_on_c, 0, 51, 0
2, 31883, Note_on_c, 0, 67, 0
2, 31888, Note_on_c, 0, 63, 0
2, 31891, Note_on_c, 0, 56, 0
2, 31926, Control_c, 0, 64, 0
2, 31935, Note_on_c, 0, 56, 31
2, 31937, Note_on_c, 0, 63, 39
2, 31938, Note_on_c, 0, 60, 44
2, 31939, Note_on_c, 0, 46, 36
2, 31963, Control_c, 0, 64, 127
2, 31982, Note_on_c, 0, 60, 0
2, 31985, Note_on_c, 0, 56, 0
2, 31999, Note_on_c, 0, 63, 0
2, 32045, Control_c, 0, 64, 0
2, 32054, Note_on_c, 0, 56, 40
2, 32059, Note_on_c, 0, 59, 46
2, 32060, Note_on_c, 0, 62, 36
2, 32060, Note_on_c, 0, 65, 35
2, 32068, Control_c, 0, 64, 127
2, 32069, Note_on_c, 0, 56, 0
2, 32080, Note_on_c, 0, 65, 0
2, 32080, Note_on_c, 0, 59, 0
2, 32084, Note_on_c, 0, 62, 0
2, 32088, Note_on_c, 0, 46, 0
2, 32134, Note_on_c, 0, 67, 50
2, 32135, Note_on_c, 0, 62, 58
2, 32136, Note_on_c, 0, 55, 59
2, 32140, Note_on_c, 0, 39, 36
2, 32143, Control_c, 0, 64, 0
2, 32176, Note_on_c, 0, 39, 0
2, 32251, Note_on_c, 0, 46, 76
2, 32283, Note_on_c, 0, 46, 0
2, 32288, Control_c, 0, 64, 127
2, 32294, Note_on_c, 0, 55, 0
2, 32301, Note_on_c, 0, 46, 40
2, 32305, Note_on_c, 0, 62, 0
2, 32311, Note_on_c, 0, 67, 0
2, 32370, Note_on_c, 0, 55, 51
2, 32372, Note_on_c, 0, 70, 73
2, 32374, Note_on_c, 0, 65, 69
2, 32374, Note_on_c, 0, 60, 64
2, 32382, Control_c, 0, 64, 0
2, 32421, Control_c, 0, 64, 127
2, 32453, Note_on_c, 0, 65, 44
2, 32483, Note_on_c, 0, 65, 0
2, 32490, Note_on_c, 0, 67, 49
2, 32520, Control_c, 0, 64, 0
2, 32522, Note_on_c, 0, 67, 0
2, 32534, Note_on_c, 0, 70, 44
2, 32552, Note_on_c, 0, 70, 0
2, 32554, Note_on_c, 0, 60, 0
2, 32556, Note_on_c, 0, 65, 0
2, 32559, Note_on_c, 0, 70, 0
2, 32569, Note_on_c, 0, 72, 60
2, 32571, Note_on_c, 0, 46, 0
2, 32586, Note_on_c, 0, 55, 0
2, 32587, Note_on_c, 0, 72, 0
2, 32605, Note_on_c, 0, 74, 81
2, 32631, Note_on_c, 0, 55, 28
2, 32633, Note_on_c, 0, 74, 0
2, 32636, Note_on_c, 0, 62, 31
2, 32637, Note_on_c, 0, 65, 25
2, 32637, Note_on_c, 0, 60, 31
2, 32645, Note_on_c, 0, 77, 68
2, 32710, Note_on_c, 0, 77, 0
2, 32727, Note_on_c, 0, 74, 22
2, 32743, Note_on_c, 0, 74, 0
2, 32761, Note_on_c, 0, 77, 88
2, 32789, Control_c, 0, 64, 127
2, 32793, Note_on_c, 0, 62, 0
2, 32799, Note_on_c, 0, 60, 0
2, 32818, Note_on_c, 0, 65, 0
2, 32819, Note_on_c, 0, 55, 0
2, 32837, Note_on_c, 0, 77, 0
2, 32842, Note_on_c, 0, 74, 55
2, 32873, Note_on_c, 0, 74, 0
2, 32874, Control_c, 0, 64, 0
2, 32890, Note_on_c, 0, 54, 26
2, 32891, Note_on_c, 0, 58, 14
2, 32894, Note_on_c, 0, 65, 14
2, 32900, Note_on_c, 0, 60, 6
2, 32902, Control_c, 0, 64, 127
2, 32948, Note_on_c, 0, 65, 0
2, 32962, Note_on_c, 0, 65, 57
2, 33033, Note_on_c, 0, 60, 0
2, 33042, Note_on_c, 0, 58, 0
2, 33060, Note_on_c, 0, 54, 0
2, 33110, Note_on_c, 0, 65, 0
2, 33112, Control_c, 0, 64, 0
2, 33122, Note_on_c, 0, 58, 28
2, 33122, Note_on_c, 0, 62, 20
2, 33123, Note_on_c, 0, 53, 37
2, 33125, Note_on_c, 0, 55, 28
2, 33137, Note_on_c, 0, 55, 0
2, 33137, Note_on_c, 0, 53, 0
2, 33138, Note_on_c, 0, 62, 0
2, 33139, Note_on_c, 0, 58, 0
2, 33325, Note_on_c, 0, 83, 89
2, 33325, Note_on_c, 0, 63, 56
2, 33325, Note_on_c, 0, 84, 94
2, 33326, Note_on_c, 0, 58, 52
2, 33326, Note_on_c, 0, 67, 67
2, 33327, Note_on_c, 0, 62, 53
2, 33339, Note_on_c, 0, 67, 0
2, 33344, Note_on_c, 0, 58, 0
2, 33346, Note_on_c, 0, 62, 0
2, 33348, Note_on_c, 0, 63, 0
2, 33348, Note_on_c, 0, 84, 0
2, 33364, Note_on_c, 0, 83, 0
2, 33380, Note_on_c, 0, 86, 81
2, 33424, Control_c, 0, 64, 127
2, 33431, Note_on_c, 0, 86, 0
2, 33445, Note_on_c, 0, 84, 70
2, 33451, Note_on_c, 0, 67, 36
2, 33451, Note_on_c, 0, 63, 29
2, 33452, Note_on_c, 0, 62, 31
2, 33454, Note_on_c, 0, 58, 23
2, 33458, Control_c, 0, 64, 0
2, 33475, Note_on_c, 0, 84, 0
2, 33482, Note_on_c, 0, 62, 0
2, 33483, Note_on_c, 0, 67, 0
2, 33485, Control_c, 0, 64, 127
2, 33491, Note_on_c, 0, 79, 35
2, 33497, Note_on_c, 0, 63, 0
2, 33498, Note_on_c, 0, 58, 0
2, 33551, Note_on_c, 0, 79, 0
2, 33560, Note_on_c, 0, 77, 58
2, 33579, Note_on_c, 0, 77, 0
2, 33593, Note_on_c, 0, 63, 28
2, 33597, Note_on_c, 0, 67, 19
2, 33597, Note_on_c, 0, 56, 25
2, 33598, Control_c, 0, 64, 0
2, 33602, Note_on_c, 0, 60, 28
2, 33603, Note_on_c, 0, 75, 40
2, 33631, Note_on_c, 0, 75, 0
2, 33635, Note_on_c, 0, 77, 46
2, 33656, Note_on_c, 0, 63, 0
2, 33661, Note_on_c, 0, 75, 32
2, 33664, Note_on_c, 0, 77, 0
2, 33679, Note_on_c, 0, 75, 0
2, 33682, Note_on_c, 0, 74, 55
2, 33683, Note_on_c, 0, 63, 23
2, 33696, Note_on_c, 0, 67, 0
2, 33701, Note_on_c, 0, 74, 0
2, 33718, Note_on_c, 0, 72, 60
2, 33722, Control_c, 0, 64, 127
2, 33736, Note_on_c, 0, 63, 0
2, 33753, Note_on_c, 0, 72, 0
2, 33767, Note_on_c, 0, 60, 0
2, 33792, Note_on_c, 0, 68, 53
2, 33796, Note_on_c, 0, 63, 27
2, 33802, Note_on_c, 0, 60, 18
2, 33818, Control_c, 0, 64, 0
2, 33827, Note_on_c, 0, 68, 0
2, 33845, Note_on_c, 0, 67, 28
2, 33877, Note_on_c, 0, 63, 0
2, 33880, Control_c, 0, 64, 127
2, 33900, Note_on_c, 0, 60, 0
2, 33903, Note_on_c, 0, 67, 0
2, 33922, Note_on_c, 0, 65, 42
2, 33930, Note_on_c, 0, 65, 0
2, 33943, Control_c, 0, 64, 0
2, 33946, Note_on_c, 0, 63, 33
2, 33958, Note_on_c, 0, 67, 69
2, 33964, Note_on_c, 0, 63, 0
2, 33973, Control_c, 0, 64, 127
2, 33978, Note_on_c, 0, 56, 0
2, 34024, Note_on_c, 0, 67, 0
2, 34040, Note_on_c, 0, 68, 65
2, 34070, Note_on_c, 0, 68, 0
2, 34073, Control_c, 0, 64, 0
2, 34084, Note_on_c, 0, 70, 73
2, 34106, Control_c, 0, 64, 127
2, 34143, Note_on_c, 0, 70, 0
2, 34165, Note_on_c, 0, 72, 71
2, 34167, Note_on_c, 0, 63, 46
2, 34167, Note_on_c, 0, 56, 38
2, 34169, Note_on_c, 0, 67, 40
2, 34169, Note_on_c, 0, 60, 48
2, 34181, Note_on_c, 0, 67, 0
2, 34181, Control_c, 0, 64, 0
2, 34194, Note_on_c, 0, 63, 0
2, 34194, Note_on_c, 0, 60, 0
2, 34197, Note_on_c, 0, 72, 0
2, 34206, Note_on_c, 0, 63, 29
2, 34206, Control_c, 0, 64, 127
2, 34208, Note_on_c, 0, 67, 26
2, 34211, Note_on_c, 0, 74, 57
2, 34211, Note_on_c, 0, 60, 17
2, 34239, Note_on_c, 0, 67, 0
2, 34252, Note_on_c, 0, 56, 0
2, 34258, Note_on_c, 0, 60, 0
2, 34258, Note_on_c, 0, 63, 0
2, 34265, Note_on_c, 0, 74, 0
2, 34285, Note_on_c, 0, 66, 43
2, 34285, Note_on_c, 0, 62, 50
2, 34285, Note_on_c, 0, 56, 39
2, 34287, Note_on_c, 0, 75, 77
2, 34294, Control_c, 0, 64, 0
2, 34322, Control_c, 0, 64, 127
2, 34332, Note_on_c, 0, 56, 0
2, 34332, Note_on_c, 0, 66, 0
2, 34346, Note_on_c, 0, 62, 0
2, 34347, Note_on_c, 0, 75, 0
2, 34360, Note_on_c, 0, 77, 61
2, 34361, Note_on_c, 0, 65, 61
2, 34365, Note_on_c, 0, 56, 56
2, 34366, Note_on_c, 0, 66, 55
2, 34366, Note_on_c, 0, 62, 38
2, 34411, Note_on_c, 0, 77, 0
2, 34414, Note_on_c, 0, 65, 0
2, 34417, Note_on_c, 0, 66, 0
2, 34418, Note_on_c, 0, 56, 0
2, 34437, Control_c, 0, 64, 0
2, 34442, Note_on_c, 0, 56, 60
2, 34443, Note_on_c, 0, 66, 46
2, 34443, Note_on_c, 0, 79, 71
2, 34445, Note_on_c, 0, 67, 67
2, 34451, Note_on_c, 0, 78, 27
2, 34454, Control_c, 0, 64, 127
2, 34456, Note_on_c, 0, 62, 0
2, 34458, Note_on_c, 0, 78, 0
2, 34459, Note_on_c, 0, 66, 0
2, 34474, Note_on_c, 0, 79, 0
2, 34475, Note_on_c, 0, 67, 0
2, 34479, Note_on_c, 0, 56, 0
2, 34522, Note_on_c, 0, 55, 45
2, 34525, Note_on_c, 0, 64, 44
2, 34525, Note_on_c, 0, 60, 39
2, 34525, Control_c, 0, 64, 0
2, 34526, Note_on_c, 0, 81, 68
2, 34526, Note_on_c, 0, 69, 68
2, 34528, Note_on_c, 0, 57, 41
2, 34555, Control_c, 0, 64, 127
2, 34562, Note_on_c, 0, 69, 0
2, 34564, Note_on_c, 0, 64, 0
2, 34564, Note_on_c, 0, 55, 0
2, 34566, Note_on_c, 0, 57, 0
2, 34567, Note_on_c, 0, 81, 0
2, 34569, Note_on_c, 0, 60, 0
2, 34602, Note_on_c, 0, 55, 45
2, 34602, Note_on_c, 0, 71, 71
2, 34602, Note_on_c, 0, 83, 74
2, 34604, Note_on_c, 0, 64, 34
2, 34606, Note_on_c, 0, 60, 30
2, 34607, Note_on_c, 0, 57, 36
2, 34644, Note_on_c, 0, 57, 0
2, 34644, Note_on_c, 0, 55, 0
2, 34645, Note_on_c, 0, 64, 0
2, 34646, Note_on_c, 0, 71, 0
2, 34648, Note_on_c, 0, 60, 0
2, 34649, Note_on_c, 0, 83, 0
2, 34669, Control_c, 0, 64, 0
2, 34678, Note_on_c, 0, 55, 47
2, 34682, Note_on_c, 0, 84, 74
2, 34683, Note_on_c, 0, 72, 53
2, 34684, Note_on_c, 0, 64, 30
2, 34686, Note_on_c, 0, 60, 31
2, 34687, Control_c, 0, 64, 127
2, 34712, Note_on_c, 0, 55, 0
2, 34716, Note_on_c, 0, 64, 0
2, 34719, Note_on_c, 0, 72, 0
2, 34722, Note_on_c, 0, 60, 0
2, 34723, Note_on_c, 0, 84, 0
2, 34759, Note_on_c, 0, 86, 68
2, 34759, Control_c, 0, 64, 0
2, 34760, Note_on_c, 0, 60, 33
2, 34760, Note_on_c, 0, 64, 46
2, 34761, Note_on_c, 0, 74, 55
2, 34761, Note_on_c, 0, 54, 40
2, 34799, Control_c, 0, 64, 127
2, 34901, Note_on_c, 0, 74, 0
2, 34901, Note_on_c, 0, 60, 0
2, 34905, Note_on_c, 0, 64, 0
2, 34911, Note_on_c, 0, 86, 0
2, 34926, Note_on_c, 0, 54, 0
2, 35002, Note_on_c, 0, 84, 87
2, 35011, Control_c, 0, 64, 0
2, 35024, Note_on_c, 0, 57, 20
2, 35027, Note_on_c, 0, 55, 15
2, 35028, Note_on_c, 0, 84, 0
2, 35028, Note_on_c, 0, 62, 19
2, 35029, Note_on_c, 0, 58, 18
2, 35054, Note_on_c, 0, 82, 43
2, 35119, Note_on_c, 0, 82, 0
2, 35130, Note_on_c, 0, 78, 34
2, 35151, Note_on_c, 0, 78, 0
2, 35160, Note_on_c, 0, 57, 0
2, 35163, Note_on_c, 0, 81, 77
2, 35172, Note_on_c, 0, 62, 0
2, 35175, Note_on_c, 0, 55, 0
2, 35215, Note_on_c, 0, 81, 0
2, 35220, Note_on_c, 0, 58, 0
2, 35244, Note_on_c, 0, 63, 33
2, 35247, Note_on_c, 0, 58, 25
2, 35250, Note_on_c, 0, 52, 30
2, 35251, Note_on_c, 0, 79, 43
2, 35279, Note_on_c, 0, 79, 0
2, 35313, Note_on_c, 0, 79, 17
2, 35334, Note_on_c, 0, 79, 0
2, 35336, Note_on_c, 0, 78, 65
2, 35350, Note_on_c, 0, 63, 0
2, 35363, Note_on_c, 0, 58, 0
2, 35366, Note_on_c, 0, 78, 0
2, 35372, Note_on_c, 0, 76, 65
2, 35392, Note_on_c, 0, 76, 0
2, 35398, Note_on_c, 0, 63, 32
2, 35401, Note_on_c, 0, 58, 31
2, 35405, Note_on_c, 0, 75, 60
2, 35436, Note_on_c, 0, 75, 0
2, 35445, Note_on_c, 0, 74, 51
2, 35447, Note_on_c, 0, 52, 0
2, 35459, Note_on_c, 0, 58, 0
2, 35464, Note_on_c, 0, 74, 0
2, 35472, Note_on_c, 0, 63, 0
2, 35474, Note_on_c, 0, 73, 60
2, 35502, Note_on_c, 0, 73, 0
2, 35504, Note_on_c, 0, 63, 21
2, 35507, Note_on_c, 0, 72, 55
2, 35512, Note_on_c, 0, 53, 34
2, 35512, Note_on_c, 0, 60, 27
2, 35522, Note_on_c, 0, 72, 0
2, 35541, Note_on_c, 0, 70, 51
2, 35564, Note_on_c, 0, 70, 0
2, 35574, Note_on_c, 0, 68, 44
2, 35586, Note_on_c, 0, 63, 0
2, 35588, Note_on_c, 0, 56, 1
2, 35603, Note_on_c, 0, 60, 0
2, 35603, Note_on_c, 0, 68, 0
2, 35611, Note_on_c, 0, 65, 44
2, 35618, Note_on_c, 0, 65, 0
2, 35622, Note_on_c, 0, 60, 24
2, 35638, Note_on_c, 0, 67, 64
2, 35663, Note_on_c, 0, 67, 0
2, 35676, Note_on_c, 0, 60, 0
2, 35678, Note_on_c, 0, 64, 26
2, 35688, Note_on_c, 0, 64, 0
2, 35705, Note_on_c, 0, 53, 0
2, 35707, Note_on_c, 0, 65, 47
2, 35730, Note_on_c, 0, 56, 0
2, 35733, Note_on_c, 0, 65, 0
2, 35742, Note_on_c, 0, 67, 54
2, 35759, Note_on_c, 0, 67, 0
2, 35766, Note_on_c, 0, 55, 47
2, 35767, Note_on_c, 0, 58, 34
2, 35771, Note_on_c, 0, 62, 25
2, 35777, Note_on_c, 0, 68, 29
2, 35801, Note_on_c, 0, 68, 0
2, 35899, Control_c, 0, 64, 127
2, 35921, Note_on_c, 0, 55, 0
2, 35934, Note_on_c, 0, 62, 0
2, 35938, Note_on_c, 0, 58, 0
2, 36001, Control_c, 0, 64, 0
2, 36004, Note_on_c, 0, 63, 25
2, 36007, Note_on_c, 0, 60, 31
2, 36008, Note_on_c, 0, 53, 47
2, 36009, Note_on_c, 0, 56, 28
2, 36052, Note_on_c, 0, 68, 68
2, 36076, Note_on_c, 0, 68, 0
2, 36091, Note_on_c, 0, 64, 35
2, 36097, Note_on_c, 0, 64, 0
2, 36115, Note_on_c, 0, 67, 73
2, 36133, Note_on_c, 0, 53, 0
2, 36136, Note_on_c, 0, 67, 0
2, 36140, Note_on_c, 0, 60, 0
2, 36141, Note_on_c, 0, 63, 0
2, 36144, Control_c, 0, 64, 127
2, 36149, Note_on_c, 0, 56, 0
2, 36150, Note_on_c, 0, 64, 39
2, 36171, Note_on_c, 0, 64, 0
2, 36183, Note_on_c, 0, 65, 54
2, 36196, Note_on_c, 0, 65, 0
2, 36211, Note_on_c, 0, 67, 64
2, 36231, Control_c, 0, 64, 0
2, 36234, Note_on_c, 0, 67, 0
2, 36242, Note_on_c, 0, 66, 25
2, 36243, Note_on_c, 0, 56, 25
2, 36248, Note_on_c, 0, 68, 51
2, 36250, Note_on_c, 0, 62, 11
2, 36262, Note_on_c, 0, 66, 0
2, 36264, Note_on_c, 0, 68, 0
2, 36269, Control_c, 0, 64, 127
2, 36283, Note_on_c, 0, 70, 60
2, 36289, Note_on_c, 0, 70, 0
2, 36308, Note_on_c, 0, 72, 69
2, 36320, Note_on_c, 0, 72, 0
2, 36337, Note_on_c, 0, 74, 80
2, 36349, Note_on_c, 0, 66, 36
2, 36349, Control_c, 0, 64, 0
2, 36364, Note_on_c, 0, 74, 0
2, 36368, Note_on_c, 0, 75, 54
2, 36373, Control_c, 0, 64, 127
2, 36377, Note_on_c, 0, 66, 0
2, 36381, Note_on_c, 0, 75, 0
2, 36397, Note_on_c, 0, 76, 55
2, 36405, Note_on_c, 0, 76, 0
2, 36420, Note_on_c, 0, 62, 0
2, 36432, Note_on_c, 0, 79, 33
2, 36433, Note_on_c, 0, 77, 36
2, 36445, Note_on_c, 0, 56, 0
2, 36451, Note_on_c, 0, 77, 0
2, 36459, Note_on_c, 0, 79, 0
2, 36462, Control_c, 0, 64, 0
2, 36475, Note_on_c, 0, 62, 19
2, 36476, Note_on_c, 0, 65, 22
2, 36480, Note_on_c, 0, 60, 30
2, 36482, Note_on_c, 0, 55, 22
2, 36494, Note_on_c, 0, 84, 63
2, 36517, Note_on_c, 0, 84, 0
2, 36523, Note_on_c, 0, 89, 62
2, 36553, Note_on_c, 0, 94, 62
2, 36558, Note_on_c, 0, 65, 0
2, 36561, Note_on_c, 0, 89, 0
2, 36563, Note_on_c, 0, 60, 0
2, 36574, Note_on_c, 0, 94, 0
2, 36576, Note_on_c, 0, 62, 0
2, 36583, Note_on_c, 0, 96, 90
2, 36593, Note_on_c, 0, 62, 22
2, 36596, Note_on_c, 0, 65, 36
2, 36600, Note_on_c, 0, 60, 24
2, 36613, Note_on_c, 0, 94, 71
2, 36621, Note_on_c, 0, 96, 0
2, 36630, Note_on_c, 0, 60, 0
2, 36630, Note_on_c, 0, 62, 0
2, 36632, Note_on_c, 0, 65, 0
2, 36642, Note_on_c, 0, 89, 72
2, 36652, Note_on_c, 0, 55, 0
2, 36654, Note_on_c, 0, 94, 0
2, 36667, Note_on_c, 0, 89, 0
2, 36722, Note_on_c, 0, 65, 35
2, 36726, Note_on_c, 0, 60, 37
2, 36727, Note_on_c, 0, 54, 32
2, 36727, Note_on_c, 0, 58, 30
2, 36869, Note_on_c, 0, 60, 0
2, 36906, Note_on_c, 0, 65, 0
2, 36925, Note_on_c, 0, 58, 0
2, 36942, Note_on_c, 0, 54, 0
2, 36958, Note_on_c, 0, 62, 36
2, 36958, Note_on_c, 0, 58, 27
2, 36958, Note_on_c, 0, 53, 32
2, 36962, Note_on_c, 0, 55, 39
2, 37006, Note_on_c, 0, 84, 73
2, 37009, Note_on_c, 0, 72, 62
2, 37023, Note_on_c, 0, 84, 0
2, 37024, Note_on_c, 0, 72, 0
2, 37041, Note_on_c, 0, 82, 46
2, 37059, Note_on_c, 0, 82, 0
2, 37078, Note_on_c, 0, 84, 79
2, 37080, Note_on_c, 0, 72, 66
2, 37105, Control_c, 0, 64, 127
2, 37115, Note_on_c, 0, 55, 0
2, 37116, Note_on_c, 0, 53, 0
2, 37127, Note_on_c, 0, 62, 0
2, 37129, Note_on_c, 0, 58, 0
2, 37135, Note_on_c, 0, 72, 0
2, 37141, Note_on_c, 0, 84, 0
2, 37163, Note_on_c, 0, 82, 51
2, 37185, Note_on_c, 0, 82, 0
2, 37198, Control_c, 0, 64, 0
2, 37200, Note_on_c, 0, 73, 63
2, 37202, Note_on_c, 0, 85, 63
2, 37204, Note_on_c, 0, 62, 33
2, 37210, Note_on_c, 0, 51, 26
2, 37213, Note_on_c, 0, 86, 40
2, 37215, Note_on_c, 0, 73, 0
2, 37216, Note_on_c, 0, 85, 0
2, 37217, Note_on_c, 0, 74, 64
2, 37219, Note_on_c, 0, 79, 14
2, 37250, Note_on_c, 0, 86, 0
2, 37251, Note_on_c, 0, 79, 0
2, 37263, Note_on_c, 0, 62, 0
2, 37265, Note_on_c, 0, 51, 0
2, 37266, Note_on_c, 0, 74, 0
2, 37319, Note_on_c, 0, 70, 51
2, 37320, Note_on_c, 0, 82, 32
2, 37322, Note_on_c, 0, 51, 31
2, 37324, Note_on_c, 0, 59, 30
2, 37325, Note_on_c, 0, 62, 33
2, 37333, Note_on_c, 0, 70, 0
2, 37333, Note_on_c, 0, 83, 38
2, 37335, Note_on_c, 0, 82, 0
2, 37336, Note_on_c, 0, 76, 16
2, 37338, Note_on_c, 0, 79, 19
2, 37339, Note_on_c, 0, 71, 35
2, 37349, Control_c, 0, 64, 127
2, 37364, Note_on_c, 0, 76, 0
2, 37368, Note_on_c, 0, 79, 0
2, 37373, Note_on_c, 0, 51, 0
2, 37376, Note_on_c, 0, 59, 0
2, 37377, Note_on_c, 0, 83, 0
2, 37385, Note_on_c, 0, 62, 0
2, 37387, Note_on_c, 0, 71, 0
2, 37434, Control_c, 0, 64, 0
2, 37440, Note_on_c, 0, 82, 52
2, 37441, Note_on_c, 0, 63, 25
2, 37445, Note_on_c, 0, 70, 42
2, 37448, Note_on_c, 0, 60, 24
2, 37449, Note_on_c, 0, 75, 37
2, 37451, Note_on_c, 0, 53, 31
2, 37451, Note_on_c, 0, 56, 21
2, 37483, Control_c, 0, 64, 127
2, 37537, Note_on_c, 0, 82, 0
2, 37539, Note_on_c, 0, 53, 0
2, 37543, Note_on_c, 0, 63, 0
2, 37545, Note_on_c, 0, 60, 0
2, 37546, Note_on_c, 0, 75, 0
2, 37551, Note_on_c, 0, 70, 0
2, 37577, Note_on_c, 0, 56, 0
2, 37674, Note_on_c, 0, 68, 67
2, 37677, Note_on_c, 0, 57, 50
2, 37677, Note_on_c, 0, 65, 55
2, 37677, Note_on_c, 0, 61, 55
2, 37679, Control_c, 0, 64, 0
2, 37679, Note_on_c, 0, 58, 46
2, 37683, Note_on_c, 0, 59, 40
2, 37689, Note_on_c, 0, 59, 0
2, 37752, Control_c, 0, 64, 127
2, 37760, Control_c, 0, 64, 0
2, 37794, Control_c, 0, 64, 127
2, 37813, Note_on_c, 0, 58, 0
2, 37839, Note_on_c, 0, 65, 0
2, 37842, Note_on_c, 0, 57, 0
2, 37848, Note_on_c, 0, 68, 0
2, 37863, Note_on_c, 0, 61, 0
2, 37914, Note_on_c, 0, 63, 46
2, 37916, Control_c, 0, 64, 0
2, 37919, Note_on_c, 0, 56, 33
2, 37922, Note_on_c, 0, 60, 40
2, 37971, Control_c, 0, 64, 127
2, 37994, Control_c, 0, 64, 0
2, 37995, Note_on_c, 0, 67, 67
2, 37997, Note_on_c, 0, 46, 42
2, 38012, Note_on_c, 0, 60, 0
2, 38013, Note_on_c, 0, 63, 0
2, 38017, Note_on_c, 0, 56, 0
2, 38023, Note_on_c, 0, 67, 0
2, 38033, Control_c, 0, 64, 127
2, 38088, Note_on_c, 0, 46, 0
2, 38115, Note_on_c, 0, 70, 61
2, 38115, Note_on_c, 0, 45, 38
2, 38116, Note_on_c, 0, 66, 56
2, 38117, Note_on_c, 0, 61, 58
2, 38119, Note_on_c, 0, 55, 35
2, 38120, Control_c, 0, 64, 0
2, 38145, Note_on_c, 0, 55, 0
2, 38150, Control_c, 0, 64, 127
2, 38161, Note_on_c, 0, 45, 0
2, 38223, Note_on_c, 0, 70, 0
2, 38231, Note_on_c, 0, 73, 74
2, 38253, Note_on_c, 0, 73, 0
2, 38257, Control_c, 0, 64, 0
2, 38257, Note_on_c, 0, 72, 50
2, 38268, Control_c, 0, 64, 127
2, 38374, Note_on_c, 0, 72, 0
2, 38375, Note_on_c, 0, 66, 0
2, 38377, Note_on_c, 0, 61, 0
2, 38399, Note_on_c, 0, 67, 30
2, 38399, Note_on_c, 0, 44, 45
2, 38400, Note_on_c, 0, 60, 32
2, 38404, Control_c, 0, 64, 0
2, 38405, Note_on_c, 0, 55, 34
2, 38419, Note_on_c, 0, 60, 0
2, 38423, Note_on_c, 0, 55, 0
2, 38425, Note_on_c, 0, 44, 0
2, 38426, Control_c, 0, 64, 127
2, 38462, Note_on_c, 0, 67, 0
2, 38528, Note_on_c, 0, 60, 25
2, 38532, Note_on_c, 0, 58, 20
2, 38538, Note_on_c, 0, 60, 0
2, 38547, Note_on_c, 0, 58, 0
2, 38562, Note_on_c, 0, 65, 42
2, 38575, Note_on_c, 0, 65, 0
2, 38599, Note_on_c, 0, 67, 75
2, 38623, Note_on_c, 0, 67, 0
2, 38632, Control_c, 0, 64, 0
2, 38633, Note_on_c, 0, 74, 78
2, 38638, Note_on_c, 0, 64, 34
2, 38644, Note_on_c, 0, 55, 40
2, 38644, Note_on_c, 0, 60, 24
2, 38657, Note_on_c, 0, 74, 0
2, 38669, Note_on_c, 0, 71, 65
2, 38689, Note_on_c, 0, 71, 0
2, 38695, Note_on_c, 0, 55, 0
2, 38699, Note_on_c, 0, 72, 64
2, 38704, Note_on_c, 0, 64, 0
2, 38723, Note_on_c, 0, 60, 0
2, 38728, Note_on_c, 0, 74, 81
2, 38736, Note_on_c, 0, 72, 0
2, 38749, Note_on_c, 0, 74, 0
2, 38752, Note_on_c, 0, 60, 26
2, 38754, Note_on_c, 0, 65, 26
2, 38755, Note_on_c, 0, 54, 33
2, 38758, Note_on_c, 0, 75, 61
2, 38762, Note_on_c, 0, 58, 25
2, 38776, Note_on_c, 0, 75, 0
2, 38788, Note_on_c, 0, 65, 0
2, 38793, Note_on_c, 0, 77, 51
2, 38802, Note_on_c, 0, 60, 0
2, 38806, Note_on_c, 0, 77, 0
2, 38810, Note_on_c, 0, 58, 0
2, 38823, Note_on_c, 0, 79, 65
2, 38828, Note_on_c, 0, 54, 0
2, 38839, Note_on_c, 0, 79, 0
2, 38852, Note_on_c, 0, 81, 71
2, 38862, Note_on_c, 0, 55, 41
2, 38865, Note_on_c, 0, 62, 22
2, 38868, Note_on_c, 0, 58, 28
2, 38872, Note_on_c, 0, 81, 0
2, 38887, Note_on_c, 0, 82, 71
2, 38905, Note_on_c, 0, 82, 0
2, 38921, Note_on_c, 0, 84, 89
2, 38937, Note_on_c, 0, 62, 0
2, 38944, Note_on_c, 0, 84, 0
2, 39009, Note_on_c, 0, 55, 0
2, 39049, Note_on_c, 0, 58, 0
2, 39079, Note_on_c, 0, 63, 46
2, 39085, Note_on_c, 0, 58, 30
2, 39089, Note_on_c, 0, 56, 25
2, 39091, Note_on_c, 0, 52, 25
2, 39208, Note_on_c, 0, 85, 71
2, 39210, Note_on_c, 0, 73, 65
2, 39233, Note_on_c, 0, 85, 0
2, 39235, Note_on_c, 0, 73, 0
2, 39254, Note_on_c, 0, 84, 50
2, 39257, Note_on_c, 0, 72, 38
2, 39261, Note_on_c, 0, 84, 0
2, 39269, Note_on_c, 0, 72, 0
2, 39276, Note_on_c, 0, 52, 0
2, 39279, Control_c, 0, 64, 127
2, 39282, Note_on_c, 0, 56, 0
2, 39282, Note_on_c, 0, 58, 0
2, 39288, Note_on_c, 0, 63, 0
2, 39326, Note_on_c, 0, 82, 64
2, 39326, Note_on_c, 0, 63, 40
2, 39326, Note_on_c, 0, 70, 65
2, 39329, Note_on_c, 0, 60, 44
2, 39329, Note_on_c, 0, 56, 33
2, 39343, Note_on_c, 0, 63, 0
2, 39346, Note_on_c, 0, 82, 0
2, 39348, Note_on_c, 0, 60, 0
2, 39348, Note_on_c, 0, 70, 0
2, 39358, Control_c, 0, 64, 0
2, 39363, Note_on_c, 0, 63, 35
2, 39368, Note_on_c, 0, 80, 44
2, 39372, Note_on_c, 0, 60, 33
2, 39372, Note_on_c, 0, 68, 37
2, 39394, Control_c, 0, 64, 127
2, 39410, Note_on_c, 0, 63, 0
2, 39411, Note_on_c, 0, 68, 0
2, 39412, Note_on_c, 0, 60, 0
2, 39415, Note_on_c, 0, 80, 0
2, 39428, Note_on_c, 0, 56, 0
2, 39448, Note_on_c, 0, 70, 68
2, 39448, Note_on_c, 0, 82, 68
2, 39453, Note_on_c, 0, 63, 26
2, 39454, Note_on_c, 0, 60, 36
2, 39461, Note_on_c, 0, 63, 0
2, 39464, Note_on_c, 0, 60, 0
2, 39465, Note_on_c, 0, 82, 0
2, 39467, Note_on_c, 0, 70, 0
2, 39473, Control_c, 0, 64, 0
2, 39487, Note_on_c, 0, 80, 42
2, 39488, Note_on_c, 0, 63, 29
2, 39488, Note_on_c, 0, 60, 24
2, 39491, Note_on_c, 0, 68, 30
2, 39505, Control_c, 0, 64, 127
2, 39506, Note_on_c, 0, 60, 0
2, 39519, Note_on_c, 0, 63, 0
2, 39534, Note_on_c, 0, 68, 0
2, 39541, Note_on_c, 0, 80, 0
2, 39591, Control_c, 0, 64, 0
2, 39596, Note_on_c, 0, 67, 25
2, 39600, Note_on_c, 0, 82, 65
2, 39602, Note_on_c, 0, 62, 26
2, 39603, Note_on_c, 0, 70, 47
2, 39603, Note_on_c, 0, 60, 27
2, 39606, Note_on_c, 0, 75, 42
2, 39614, Note_on_c, 0, 75, 0
2, 39618, Note_on_c, 0, 62, 0
2, 39627, Note_on_c, 0, 60, 0
2, 39627, Note_on_c, 0, 67, 0
2, 39632, Note_on_c, 0, 82, 0
2, 39636, Note_on_c, 0, 70, 0
2, 39719, Note_on_c, 0, 80, 50
2, 39719, Note_on_c, 0, 68, 45
2, 39720, Note_on_c, 0, 56, 31
2, 39721, Note_on_c, 0, 75, 43
2, 39721, Note_on_c, 0, 62, 22
2, 39722, Control_c, 0, 64, 127
2, 39723, Note_on_c, 0, 60, 24
2, 39733, Note_on_c, 0, 60, 0
2, 39734, Note_on_c, 0, 62, 0
2, 39745, Note_on_c, 0, 68, 0
2, 39753, Note_on_c, 0, 56, 0
2, 39755, Note_on_c, 0, 75, 0
2, 39762, Note_on_c, 0, 80, 0
2, 39833, Control_c, 0, 64, 0
2, 39839, Note_on_c, 0, 63, 57
2, 39839, Note_on_c, 0, 82, 81
2, 39840, Note_on_c, 0, 94, 79
2, 39842, Note_on_c, 0, 53, 60
2, 39843, Note_on_c, 0, 59, 55
2, 39843, Note_on_c, 0, 56, 35
2, 39844, Note_on_c, 0, 87, 53
2, 39851, Note_on_c, 0, 87, 0
2, 39861, Control_c, 0, 64, 127
2, 39887, Note_on_c, 0, 53, 0
2, 39898, Note_on_c, 0, 59, 0
2, 39898, Note_on_c, 0, 56, 0
2, 39899, Note_on_c, 0, 63, 0
2, 39900, Note_on_c, 0, 94, 0
2, 39901, Note_on_c, 0, 82, 0
2, 39924, Note_on_c, 0, 80, 51
2, 39927, Note_on_c, 0, 92, 34
2, 39927, Note_on_c, 0, 63, 25
2, 39933, Note_on_c, 0, 87, 31
2, 39934, Note_on_c, 0, 63, 0
2, 39934, Note_on_c, 0, 59, 19
2, 39937, Note_on_c, 0, 92, 0
2, 39938, Note_on_c, 0, 80, 0
2, 39940, Note_on_c, 0, 87, 0
2, 39942, Note_on_c, 0, 59, 0
2, 39950, Control_c, 0, 64, 0
2, 39957, Note_on_c, 0, 63, 56
2, 39960, Note_on_c, 0, 94, 69
2, 39961, Note_on_c, 0, 82, 51
2, 39962, Note_on_c, 0, 87, 49
2, 39963, Note_on_c, 0, 59, 48
2, 39965, Note_on_c, 0, 56, 33
2, 39965, Control_c, 0, 64, 127
2, 39967, Note_on_c, 0, 53, 41
2, 39974, Note_on_c, 0, 59, 0
2, 39977, Note_on_c, 0, 53, 0
2, 39986, Note_on_c, 0, 87, 0
2, 39991, Note_on_c, 0, 63, 0
2, 39997, Note_on_c, 0, 82, 0
2, 39998, Note_on_c, 0, 56, 0
2, 40001, Note_on_c, 0, 94, 0
2, 40071, Control_c, 0, 64, 0
2, 40081, Note_on_c, 0, 97, 79
2, 40081, Note_on_c, 0, 85, 82
2, 40083, Note_on_c, 0, 92, 69
2, 40084, Note_on_c, 0, 63, 68
2, 40084, Note_on_c, 0, 58, 56
2, 40086, Note_on_c, 0, 52, 63
2, 40106, Control_c, 0, 64, 127
2, 40144, Note_on_c, 0, 52, 0
2, 40144, Note_on_c, 0, 63, 0
2, 40147, Note_on_c, 0, 92, 0
2, 40149, Note_on_c, 0, 85, 0
2, 40151, Note_on_c, 0, 97, 0
2, 40154, Note_on_c, 0, 58, 0
2, 40166, Note_on_c, 0, 58, 32
2, 40168, Note_on_c, 0, 62, 54
2, 40168, Note_on_c, 0, 52, 40
2, 40169, Note_on_c, 0, 96, 75
2, 40170, Note_on_c, 0, 84, 64
2, 40171, Note_on_c, 0, 91, 60
2, 40181, Control_c, 0, 64, 0
2, 40210, Control_c, 0, 64, 127
2, 40232, Note_on_c, 0, 52, 0
2, 40242, Note_on_c, 0, 96, 0
2, 40242, Note_on_c, 0, 91, 0
2, 40246, Note_on_c, 0, 58, 0
2, 40252, Note_on_c, 0, 62, 0
2, 40258, Note_on_c, 0, 84, 0
2, 40332, Note_on_c, 0, 63, 77
2, 40334, Control_c, 0, 64, 0
2, 40335, Note_on_c, 0, 55, 67
2, 40335, Note_on_c, 0, 99, 83
2, 40336, Note_on_c, 0, 60, 62
2, 40338, Note_on_c, 0, 57, 57
2, 40397, Note_on_c, 0, 99, 0
2, 40454, Note_on_c, 0, 98, 84
2, 40462, Note_on_c, 0, 63, 0
2, 40463, Note_on_c, 0, 57, 0
2, 40465, Note_on_c, 0, 55, 0
2, 40483, Note_on_c, 0, 60, 0
2, 40494, Note_on_c, 0, 98, 0
2, 40497, Note_on_c, 0, 99, 43
2, 40522, Note_on_c, 0, 98, 56
2, 40530, Note_on_c, 0, 99, 0
2, 40544, Note_on_c, 0, 98, 0
2, 40544, Note_on_c, 0, 96, 67
2, 40562, Note_on_c, 0, 96, 0
2, 40562, Note_on_c, 0, 63, 28
2, 40564, Note_on_c, 0, 58, 30
2, 40564, Note_on_c, 0, 54, 33
2, 40564, Note_on_c, 0, 59, 43
2, 40580, Note_on_c, 0, 95, 75
2, 40627, Note_on_c, 0, 95, 0
2, 40653, Note_on_c, 0, 94, 74
2, 40692, Note_on_c, 0, 94, 0
2, 40708, Note_on_c, 0, 92, 55
2, 40720, Note_on_c, 0, 63, 0
2, 40730, Note_on_c, 0, 59, 0
2, 40743, Note_on_c, 0, 92, 0
2, 40744, Note_on_c, 0, 58, 0
2, 40763, Note_on_c, 0, 54, 0
2, 40765, Note_on_c, 0, 90, 67
2, 40770, Note_on_c, 0, 58, 29
2, 40771, Note_on_c, 0, 62, 37
2, 40774, Note_on_c, 0, 53, 50
2, 40783, Note_on_c, 0, 55, 24
2, 40788, Note_on_c, 0, 90, 0
2, 40826, Note_on_c, 0, 93, 81
2, 40878, Note_on_c, 0, 93, 0
2, 40895, Note_on_c, 0, 90, 40
2, 40914, Note_on_c, 0, 90, 0
2, 40934, Note_on_c, 0, 91, 81
2, 40936, Note_on_c, 0, 55, 0
2, 40937, Note_on_c, 0, 53, 0
2, 40947, Note_on_c, 0, 62, 0
2, 40987, Note_on_c, 0, 58, 0
2, 40992, Note_on_c, 0, 91, 0
2, 41005, Note_on_c, 0, 90, 76
2, 41005, Note_on_c, 0, 63, 36
2, 41006, Note_on_c, 0, 58, 25
2, 41008, Note_on_c, 0, 52, 34
2, 41016, Note_on_c, 0, 56, 23
2, 41083, Note_on_c, 0, 90, 0
2, 41088, Note_on_c, 0, 91, 54
2, 41100, Note_on_c, 0, 63, 0
2, 41105, Note_on_c, 0, 58, 0
2, 41109, Note_on_c, 0, 91, 0
2, 41114, Note_on_c, 0, 90, 42
2, 41120, Note_on_c, 0, 90, 0
2, 41120, Note_on_c, 0, 56, 0
2, 41144, Note_on_c, 0, 88, 58
2, 41156, Note_on_c, 0, 88, 0
2, 41166, Note_on_c, 0, 63, 31
2, 41169, Note_on_c, 0, 58, 30
2, 41172, Note_on_c, 0, 87, 65
2, 41197, Note_on_c, 0, 87, 0
2, 41207, Note_on_c, 0, 85, 54
2, 41222, Note_on_c, 0, 52, 0
2, 41227, Note_on_c, 0, 85, 0
2, 41232, Note_on_c, 0, 58, 0
2, 41235, Note_on_c, 0, 84, 52
2, 41247, Note_on_c, 0, 84, 0
2, 41248, Note_on_c, 0, 63, 0
2, 41263, Note_on_c, 0, 82, 58
2, 41266, Note_on_c, 0, 63, 29
2, 41278, Note_on_c, 0, 56, 18
2, 41283, Note_on_c, 0, 53, 27
2, 41285, Note_on_c, 0, 60, 19
2, 41290, Note_on_c, 0, 82, 0
2, 41295, Note_on_c, 0, 80, 37
2, 41319, Note_on_c, 0, 80, 0
2, 41325, Note_on_c, 0, 79, 50
2, 41338, Note_on_c, 0, 79, 0
2, 41349, Note_on_c, 0, 63, 0
2, 41360, Note_on_c, 0, 60, 0
2, 41386, Note_on_c, 0, 72, 28
2, 41390, Note_on_c, 0, 60, 30
2, 41391, Note_on_c, 0, 63, 32
2, 41393, Note_on_c, 0, 72, 0
2, 41403, Note_on_c, 0, 79, 68
2, 41422, Note_on_c, 0, 60, 0
2, 41423, Note_on_c, 0, 53, 0
2, 41427, Note_on_c, 0, 79, 0
2, 41433, Note_on_c, 0, 63, 0
2, 41435, Note_on_c, 0, 78, 64
2, 41437, Note_on_c, 0, 56, 0
2, 41461, Note_on_c, 0, 78, 0
2, 41465, Note_on_c, 0, 77, 56
2, 41486, Note_on_c, 0, 77, 0
2, 41496, Note_on_c, 0, 75, 59
2, 41514, Note_on_c, 0, 68, 25
2, 41521, Note_on_c, 0, 63, 29
2, 41526, Note_on_c, 0, 72, 62
2, 41528, Note_on_c, 0, 60, 27
2, 41535, Note_on_c, 0, 75, 0
2, 41539, Note_on_c, 0, 68, 0
2, 41549, Control_c, 0, 64, 127
2, 41558, Note_on_c, 0, 72, 0
2, 41560, Note_on_c, 0, 60, 0
2, 41563, Note_on_c, 0, 68, 60
2, 41572, Note_on_c, 0, 60, 20
2, 41614, Note_on_c, 0, 60, 0
2, 41625, Note_on_c, 0, 68, 0
2, 41627, Note_on_c, 0, 63, 0
2, 41644, Note_on_c, 0, 70, 64
2, 41644, Control_c, 0, 64, 0
2, 41644, Note_on_c, 0, 66, 31
2, 41647, Note_on_c, 0, 56, 29
2, 41647, Note_on_c, 0, 62, 29
2, 41675, Note_on_c, 0, 70, 0
2, 41677, Control_c, 0, 64, 127
2, 41687, Note_on_c, 0, 72, 58
2, 41710, Note_on_c, 0, 66, 0
2, 41721, Note_on_c, 0, 62, 0
2, 41729, Note_on_c, 0, 56, 0
2, 41748, Note_on_c, 0, 72, 0
2, 41750, Control_c, 0, 64, 0
2, 41754, Note_on_c, 0, 65, 24
2, 41756, Note_on_c, 0, 55, 27
2, 41756, Note_on_c, 0, 62, 31
2, 41759, Note_on_c, 0, 74, 63
2, 41760, Note_on_c, 0, 60, 22
2, 41776, Note_on_c, 0, 65, 0
2, 41778, Note_on_c, 0, 60, 0
2, 41780, Control_c, 0, 64, 127
2, 41781, Note_on_c, 0, 55, 0
2, 41782, Note_on_c, 0, 62, 0
2, 41790, Note_on_c, 0, 74, 0
2, 41801, Note_on_c, 0, 75, 65
2, 41802, Note_on_c, 0, 62, 37
2, 41803, Note_on_c, 0, 55, 32
2, 41804, Note_on_c, 0, 65, 31
2, 41805, Note_on_c, 0, 60, 28
2, 41817, Note_on_c, 0, 65, 0
2, 41839, Note_on_c, 0, 60, 0
2, 41851, Note_on_c, 0, 75, 0
2, 41852, Note_on_c, 0, 55, 0
2, 41852, Note_on_c, 0, 62, 0
2, 41871, Control_c, 0, 64, 0
2, 41878, Note_on_c, 0, 77, 55
2, 41879, Note_on_c, 0, 55, 33
2, 41880, Note_on_c, 0, 62, 31
2, 41880, Note_on_c, 0, 65, 45
2, 41890, Control_c, 0, 64, 127
2, 41897, Note_on_c, 0, 62, 0
2, 41898, Note_on_c, 0, 65, 0
2, 41900, Note_on_c, 0, 77, 0
2, 41903, Note_on_c, 0, 55, 0
2, 41919, Note_on_c, 0, 55, 34
2, 41920, Note_on_c, 0, 79, 66
2, 41921, Note_on_c, 0, 67, 59
2, 41923, Note_on_c, 0, 62, 24
2, 41925, Control_c, 0, 64, 0
2, 41933, Control_c, 0, 64, 127
2, 41954, Note_on_c, 0, 62, 0
2, 41965, Note_on_c, 0, 79, 0
2, 41967, Note_on_c, 0, 67, 0
2, 41967, Note_on_c, 0, 55, 0
2, 41993, Control_c, 0, 64, 0
2, 42000, Note_on_c, 0, 63, 33
2, 42001, Note_on_c, 0, 67, 29
2, 42004, Note_on_c, 0, 80, 45
2, 42011, Note_on_c, 0, 67, 0
2, 42012, Control_c, 0, 64, 127
2, 42018, Note_on_c, 0, 80, 0
2, 42023, Note_on_c, 0, 63, 0
2, 42042, Note_on_c, 0, 63, 34
2, 42043, Note_on_c, 0, 70, 64
2, 42044, Note_on_c, 0, 82, 69
2, 42044, Note_on_c, 0, 67, 45
2, 42047, Note_on_c, 0, 56, 28
2, 42049, Note_on_c, 0, 60, 36
2, 42074, Note_on_c, 0, 67, 0
2, 42084, Note_on_c, 0, 70, 0
2, 42087, Note_on_c, 0, 82, 0
2, 42089, Note_on_c, 0, 60, 0
2, 42094, Note_on_c, 0, 56, 0
2, 42096, Note_on_c, 0, 63, 0
2, 42116, Note_on_c, 0, 56, 37
2, 42116, Note_on_c, 0, 63, 37
2, 42119, Note_on_c, 0, 66, 43
2, 42121, Note_on_c, 0, 84, 65
2, 42123, Note_on_c, 0, 72, 60
2, 42132, Note_on_c, 0, 72, 0
2, 42132, Note_on_c, 0, 66, 0
2, 42137, Note_on_c, 0, 84, 0
2, 42139, Control_c, 0, 64, 0
2, 42141, Note_on_c, 0, 56, 0
2, 42144, Note_on_c, 0, 63, 0
2, 42155, Control_c, 0, 64, 127
2, 42160, Note_on_c, 0, 56, 42
2, 42161, Note_on_c, 0, 86, 73
2, 42161, Note_on_c, 0, 74, 72
2, 42162, Note_on_c, 0, 66, 33
2, 42164, Note_on_c, 0, 63, 31
2, 42196, Note_on_c, 0, 74, 0
2, 42197, Note_on_c, 0, 86, 0
2, 42207, Note_on_c, 0, 63, 0
2, 42207, Note_on_c, 0, 66, 0
2, 42222, Note_on_c, 0, 56, 0
2, 42238, Control_c, 0, 64, 0
2, 42240, Note_on_c, 0, 65, 40
2, 42241, Note_on_c, 0, 62, 31
2, 42242, Note_on_c, 0, 87, 50
2, 42244, Note_on_c, 0, 75, 34
2, 42253, Control_c, 0, 64, 127
2, 42254, Note_on_c, 0, 65, 0
2, 42259, Note_on_c, 0, 62, 0
2, 42260, Note_on_c, 0, 87, 0
2, 42260, Note_on_c, 0, 75, 0
2, 42280, Note_on_c, 0, 89, 59
2, 42282, Control_c, 0, 64, 0
2, 42283, Note_on_c, 0, 62, 24
2, 42283, Note_on_c, 0, 65, 43
2, 42287, Note_on_c, 0, 77, 20
2, 42287, Note_on_c, 0, 60, 30
2, 42290, Note_on_c, 0, 55, 29
2, 42295, Control_c, 0, 64, 127
2, 42331, Note_on_c, 0, 89, 0
2, 42334, Note_on_c, 0, 65, 0
2, 42334, Note_on_c, 0, 60, 0
2, 42334, Note_on_c, 0, 55, 0
2, 42337, Note_on_c, 0, 77, 0
2, 42338, Note_on_c, 0, 62, 0
2, 42362, Note_on_c, 0, 65, 40
2, 42364, Note_on_c, 0, 79, 62
2, 42365, Note_on_c, 0, 55, 30
2, 42366, Note_on_c, 0, 62, 22
2, 42366, Note_on_c, 0, 91, 40
2, 42372, Note_on_c, 0, 84, 39
2, 42379, Note_on_c, 0, 65, 0
2, 42380, Note_on_c, 0, 84, 0
2, 42381, Note_on_c, 0, 79, 0
2, 42382, Note_on_c, 0, 55, 0
2, 42383, Note_on_c, 0, 91, 0
2, 42386, Note_on_c, 0, 62, 0
2, 42407, Note_on_c, 0, 92, 56
2, 42407, Note_on_c, 0, 80, 38
2, 42408, Note_on_c, 0, 55, 37
2, 42411, Note_on_c, 0, 65, 24
2, 42412, Note_on_c, 0, 62, 20
2, 42421, Note_on_c, 0, 62, 0
2, 42423, Note_on_c, 0, 65, 0
2, 42432, Note_on_c, 0, 80, 0
2, 42434, Note_on_c, 0, 55, 0
2, 42438, Note_on_c, 0, 92, 0
2, 42474, Control_c, 0, 64, 0
2, 42477, Note_on_c, 0, 54, 33
2, 42478, Note_on_c, 0, 65, 35
2, 42478, Note_on_c, 0, 82, 48
2, 42480, Note_on_c, 0, 94, 50
2, 42480, Note_on_c, 0, 58, 29
2, 42483, Note_on_c, 0, 60, 43
2, 42499, Control_c, 0, 64, 127
2, 42565, Note_on_c, 0, 94, 0
2, 42571, Note_on_c, 0, 82, 0
2, 42578, Note_on_c, 0, 54, 0
2, 42580, Note_on_c, 0, 65, 0
2, 42584, Note_on_c, 0, 60, 0
2, 42600, Note_on_c, 0, 54, 30
2, 42600, Note_on_c, 0, 65, 40
2, 42604, Note_on_c, 0, 60, 36
2, 42646, Note_on_c, 0, 60, 0
2, 42651, Note_on_c, 0, 65, 0
2, 42668, Note_on_c, 0, 58, 0
2, 42685, Note_on_c, 0, 54, 0
2, 42710, Note_on_c, 0, 53, 7
2, 42715, Note_on_c, 0, 55, 36
2, 42715, Note_on_c, 0, 62, 22
2, 42716, Note_on_c, 0, 58, 25
2, 42721, Control_c, 0, 64, 0
2, 42788, Note_on_c, 0, 62, 0
2, 42793, Note_on_c, 0, 58, 0
2, 42794, Note_on_c, 0, 70, 84
2, 42796, Note_on_c, 0, 77, 80
2, 42827, Note_on_c, 0, 77, 0
2, 42827, Note_on_c, 0, 70, 0
2, 42839, Note_on_c, 0, 58, 26
2, 42841, Note_on_c, 0, 74, 40
2, 42843, Note_on_c, 0, 65, 39
2, 42844, Note_on_c, 0, 70, 31
2, 42851, Note_on_c, 0, 53, 0
2, 42860, Note_on_c, 0, 55, 0
2, 42862, Note_on_c, 0, 58, 0
2, 42895, Note_on_c, 0, 74, 0
2, 42906, Note_on_c, 0, 70, 0
2, 42920, Note_on_c, 0, 65, 0
2, 42926, Note_on_c, 0, 55, 47
2, 42950, Note_on_c, 0, 55, 0
2, 42958, Note_on_c, 0, 74, 52
2, 42960, Note_on_c, 0, 58, 48
2, 42961, Note_on_c, 0, 67, 46
2, 42961, Note_on_c, 0, 63, 36
2, 42963, Note_on_c, 0, 70, 35
2, 42964, Note_on_c, 0, 48, 46
2, 43036, Note_on_c, 0, 67, 0
2, 43038, Note_on_c, 0, 58, 0
2, 43043, Note_on_c, 0, 70, 0
2, 43050, Note_on_c, 0, 63, 0
2, 43051, Note_on_c, 0, 55, 33
2, 43054, Note_on_c, 0, 74, 0
2, 43057, Note_on_c, 0, 48, 0
2, 43076, Note_on_c, 0, 63, 43
2, 43080, Note_on_c, 0, 72, 55
2, 43082, Note_on_c, 0, 58, 36
2, 43083, Note_on_c, 0, 70, 29
2, 43083, Note_on_c, 0, 67, 31
2, 43091, Control_c, 0, 64, 127
2, 43092, Note_on_c, 0, 55, 0
2, 43116, Note_on_c, 0, 63, 0
2, 43118, Note_on_c, 0, 67, 0
2, 43127, Note_on_c, 0, 58, 0
2, 43130, Note_on_c, 0, 72, 0
2, 43131, Note_on_c, 0, 70, 0
2, 43163, Note_on_c, 0, 60, 24
2, 43181, Note_on_c, 0, 60, 0
2, 43198, Control_c, 0, 64, 0
2, 43200, Note_on_c, 0, 60, 28
2, 43203, Note_on_c, 0, 82, 31
2, 43204, Note_on_c, 0, 63, 20
2, 43204, Note_on_c, 0, 75, 37
2, 43205, Note_on_c, 0, 70, 28
2, 43205, Note_on_c, 0, 79, 34
2, 43209, Note_on_c, 0, 56, 25
2, 43210, Note_on_c, 0, 53, 32
2, 43252, Note_on_c, 0, 56, 0
2, 43252, Note_on_c, 0, 70, 0
2, 43253, Note_on_c, 0, 75, 0
2, 43254, Note_on_c, 0, 82, 0
2, 43255, Note_on_c, 0, 79, 0
2, 43263, Note_on_c, 0, 60, 0
2, 43273, Note_on_c, 0, 63, 0
2, 43276, Note_on_c, 0, 53, 0
2, 43282, Note_on_c, 0, 82, 64
2, 43285, Note_on_c, 0, 70, 67
2, 43287, Note_on_c, 0, 75, 57
2, 43288, Note_on_c, 0, 79, 51
2, 43315, Note_on_c, 0, 63, 33
2, 43318, Note_on_c, 0, 82, 0
2, 43319, Note_on_c, 0, 70, 0
2, 43320, Note_on_c, 0, 60, 36
2, 43322, Note_on_c, 0, 75, 0
2, 43322, Note_on_c, 0, 56, 30
2, 43326, Note_on_c, 0, 79, 0
2, 43345, Note_on_c, 0, 82, 42
2, 43349, Note_on_c, 0, 70, 29
2, 43351, Note_on_c, 0, 79, 31
2, 43352, Note_on_c, 0, 75, 39
2, 43357, Note_on_c, 0, 60, 0
2, 43369, Note_on_c, 0, 63, 0
2, 43380, Note_on_c, 0, 82, 0
2, 43380, Note_on_c, 0, 75, 0
2, 43382, Note_on_c, 0, 70, 0
2, 43385, Note_on_c, 0, 79, 0
2, 43390, Control_c, 0, 64, 127
2, 43404, Note_on_c, 0, 56, 0
2, 43413, Note_on_c, 0, 82, 60
2, 43414, Note_on_c, 0, 70, 63
2, 43416, Note_on_c, 0, 75, 59
2, 43417, Note_on_c, 0, 79, 55
2, 43442, Note_on_c, 0, 56, 30
2, 43446, Note_on_c, 0, 70, 0
2, 43446, Note_on_c, 0, 63, 18
2, 43447, Note_on_c, 0, 82, 0
2, 43447, Note_on_c, 0, 75, 0
2, 43452, Note_on_c, 0, 79, 0
2, 43453, Control_c, 0, 64, 0
2, 43467, Note_on_c, 0, 59, 17
2, 43470, Note_on_c, 0, 82, 51
2, 43473, Note_on_c, 0, 70, 39
2, 43474, Note_on_c, 0, 79, 26
2, 43475, Note_on_c, 0, 75, 46
2, 43476, Note_on_c, 0, 59, 0
2, 43481, Note_on_c, 0, 63, 0
2, 43494, Control_c, 0, 64, 127
2, 43504, Note_on_c, 0, 79, 0
2, 43507, Note_on_c, 0, 56, 0
2, 43511, Note_on_c, 0, 70, 0
2, 43512, Note_on_c, 0, 82, 0
2, 43518, Note_on_c, 0, 75, 0
2, 43530, Note_on_c, 0, 80, 34
2, 43532, Note_on_c, 0, 68, 46
2, 43534, Note_on_c, 0, 75, 53
2, 43552, Control_c, 0, 64, 0
2, 43559, Note_on_c, 0, 68, 0
2, 43562, Note_on_c, 0, 75, 0
2, 43562, Note_on_c, 0, 80, 0
2, 43568, Note_on_c, 0, 63, 25
2, 43570, Note_on_c, 0, 56, 27
2, 43576, Note_on_c, 0, 80, 42
2, 43578, Note_on_c, 0, 68, 30
2, 43579, Note_on_c, 0, 75, 37
2, 43587, Control_c, 0, 64, 127
2, 43597, Note_on_c, 0, 56, 0
2, 43611, Note_on_c, 0, 63, 0
2, 43622, Note_on_c, 0, 80, 0
2, 43623, Note_on_c, 0, 75, 0
2, 43625, Note_on_c, 0, 68, 0
2, 43642, Note_on_c, 0, 56, 60
2, 43643, Note_on_c, 0, 63, 57
2, 43644, Note_on_c, 0, 67, 64
2, 43646, Note_on_c, 0, 60, 58
2, 43650, Note_on_c, 0, 65, 37
2, 43657, Note_on_c, 0, 65, 0
2, 43669, Control_c, 0, 64, 0
2, 43694, Note_on_c, 0, 68, 56
2, 43700, Note_on_c, 0, 80, 31
2, 43700, Note_on_c, 0, 75, 37
2, 43712, Control_c, 0, 64, 127
2, 43746, Note_on_c, 0, 68, 0
2, 43748, Note_on_c, 0, 67, 0
2, 43758, Note_on_c, 0, 75, 0
2, 43760, Note_on_c, 0, 63, 0
2, 43764, Note_on_c, 0, 60, 0
2, 43769, Note_on_c, 0, 80, 0
2, 43801, Control_c, 0, 64, 0
2, 43804, Note_on_c, 0, 63, 39
2, 43805, Note_on_c, 0, 80, 42
2, 43807, Note_on_c, 0, 68, 36
2, 43807, Note_on_c, 0, 60, 33
2, 43807, Note_on_c, 0, 67, 31
2, 43808, Note_on_c, 0, 75, 42
2, 43823, Note_on_c, 0, 56, 0
2, 43842, Note_on_c, 0, 67, 0
2, 43848, Control_c, 0, 64, 127
2, 43856, Note_on_c, 0, 60, 0
2, 43868, Note_on_c, 0, 63, 0
2, 43879, Note_on_c, 0, 68, 0
2, 43881, Note_on_c, 0, 56, 68
2, 43891, Note_on_c, 0, 75, 0
2, 43896, Note_on_c, 0, 80, 0
2, 43916, Control_c, 0, 64, 0
2, 43923, Note_on_c, 0, 66, 35
2, 43931, Note_on_c, 0, 62, 24
2, 43936, Note_on_c, 0, 60, 17
2, 43956, Control_c, 0, 64, 127
2, 43971, Note_on_c, 0, 60, 0
2, 43980, Note_on_c, 0, 62, 0
2, 43983, Note_on_c, 0, 66, 0
2, 44004, Note_on_c, 0, 74, 48
2, 44012, Note_on_c, 0, 74, 0
2, 44041, Control_c, 0, 64, 0
2, 44084, Note_on_c, 0, 82, 71
2, 44090, Control_c, 0, 64, 127
2, 44100, Note_on_c, 0, 82, 0
2, 44108, Note_on_c, 0, 56, 0
2, 44117, Note_on_c, 0, 83, 82
2, 44136, Note_on_c, 0, 83, 0
2, 44154, Note_on_c, 0, 64, 34
2, 44156, Note_on_c, 0, 60, 38
2, 44157, Note_on_c, 0, 55, 35
2, 44158, Note_on_c, 0, 59, 37
2, 44159, Control_c, 0, 64, 0
2, 44163, Note_on_c, 0, 73, 50
2, 44168, Note_on_c, 0, 85, 25
2, 44192, Note_on_c, 0, 85, 0
2, 44198, Note_on_c, 0, 73, 0
2, 44204, Note_on_c, 0, 74, 45
2, 44213, Note_on_c, 0, 60, 0
2, 44216, Note_on_c, 0, 64, 0
2, 44216, Note_on_c, 0, 74, 0
2, 44217, Note_on_c, 0, 59, 0
2, 44235, Note_on_c, 0, 74, 42
2, 44239, Note_on_c, 0, 86, 30
2, 44246, Note_on_c, 0, 55, 0
2, 44250, Note_on_c, 0, 84, 22
2, 44257, Note_on_c, 0, 84, 0
2, 44269, Note_on_c, 0, 84, 30
2, 44280, Note_on_c, 0, 64, 35
2, 44281, Note_on_c, 0, 60, 34
2, 44282, Note_on_c, 0, 59, 35
2, 44284, Note_on_c, 0, 74, 0
2, 44284, Note_on_c, 0, 55, 32
2, 44289, Note_on_c, 0, 84, 0
2, 44290, Note_on_c, 0, 86, 0
2, 44305, Note_on_c, 0, 85, 51
2, 44307, Note_on_c, 0, 73, 53
2, 44313, Note_on_c, 0, 64, 0
2, 44323, Note_on_c, 0, 85, 0
2, 44324, Note_on_c, 0, 86, 42
2, 44325, Note_on_c, 0, 59, 0
2, 44325, Note_on_c, 0, 73, 0
2, 44331, Note_on_c, 0, 74, 55
2, 44333, Note_on_c, 0, 60, 0
2, 44336, Note_on_c, 0, 55, 0
2, 44345, Note_on_c, 0, 86, 0
2, 44346, Note_on_c, 0, 74, 0
2, 44361, Note_on_c, 0, 74, 68
2, 44361, Note_on_c, 0, 86, 48
2, 44366, Note_on_c, 0, 81, 45
2, 44371, Note_on_c, 0, 86, 0
2, 44372, Note_on_c, 0, 84, 24
2, 44375, Note_on_c, 0, 81, 0
2, 44375, Note_on_c, 0, 74, 0
2, 44378, Note_on_c, 0, 84, 0
2, 44389, Note_on_c, 0, 86, 67
2, 44390, Note_on_c, 0, 74, 69
2, 44393, Note_on_c, 0, 81, 44
2, 44397, Note_on_c, 0, 84, 31
2, 44399, Note_on_c, 0, 60, 29
2, 44402, Note_on_c, 0, 64, 32
2, 44402, Note_on_c, 0, 54, 35
2, 44408, Note_on_c, 0, 84, 0
2, 44409, Note_on_c, 0, 74, 0
2, 44409, Note_on_c, 0, 86, 0
2, 44412, Note_on_c, 0, 81, 0
2, 44419, Note_on_c, 0, 64, 0
2, 44433, Note_on_c, 0, 86, 57
2, 44434, Note_on_c, 0, 74, 55
2, 44435, Note_on_c, 0, 81, 36
2, 44440, Control_c, 0, 64, 127
2, 44462, Note_on_c, 0, 81, 0
2, 44463, Note_on_c, 0, 86, 0
2, 44465, Note_on_c, 0, 74, 0
2, 44474, Note_on_c, 0, 60, 0
2, 44478, Note_on_c, 0, 54, 0
2, 44481, Note_on_c, 0, 84, 69
2, 44484, Note_on_c, 0, 72, 52
2, 44490, Note_on_c, 0, 72, 0
2, 44493, Note_on_c, 0, 84, 0
2, 44504, Control_c, 0, 64, 0
2, 44517, Note_on_c, 0, 54, 38
2, 44518, Note_on_c, 0, 60, 41
2, 44518, Note_on_c, 0, 64, 36
2, 44555, Note_on_c, 0, 54, 0
2, 44566, Control_c, 0, 64, 127
2, 44584, Note_on_c, 0, 64, 0
2, 44587, Note_on_c, 0, 60, 0
2, 44595, Note_on_c, 0, 54, 62
2, 44601, Note_on_c, 0, 54, 0
2, 44604, Note_on_c, 0, 53, 74
2, 44631, Control_c, 0, 64, 0
2, 44718, Note_on_c, 0, 84, 62
2, 44721, Note_on_c, 0, 72, 56
2, 44721, Note_on_c, 0, 78, 46
2, 44721, Note_on_c, 0, 81, 60
2, 44727, Note_on_c, 0, 62, 36
2, 44731, Note_on_c, 0, 58, 35
2, 44737, Note_on_c, 0, 72, 0
2, 44740, Note_on_c, 0, 84, 0
2, 44743, Note_on_c, 0, 81, 0
2, 44743, Note_on_c, 0, 78, 0
2, 44764, Note_on_c, 0, 84, 41
2, 44766, Note_on_c, 0, 72, 27
2, 44768, Note_on_c, 0, 78, 23
2, 44775, Note_on_c, 0, 81, 20
2, 44777, Note_on_c, 0, 58, 0
2, 44780, Note_on_c, 0, 72, 0
2, 44785, Note_on_c, 0, 84, 0
2, 44788, Note_on_c, 0, 78, 0
2, 44789, Note_on_c, 0, 81, 0
2, 44840, Note_on_c, 0, 53, 0
2, 44844, Note_on_c, 0, 58, 46
2, 44850, Note_on_c, 0, 84, 64
2, 44850, Note_on_c, 0, 78, 57
2, 44851, Note_on_c, 0, 62, 0
2, 44853, Note_on_c, 0, 72, 47
2, 44857, Note_on_c, 0, 84, 0
2, 44860, Note_on_c, 0, 72, 0
2, 44869, Note_on_c, 0, 58, 0
2, 44876, Note_on_c, 0, 78, 0
2, 44884, Note_on_c, 0, 58, 21
2, 44886, Note_on_c, 0, 62, 34
2, 44889, Note_on_c, 0, 52, 27
2, 44890, Note_on_c, 0, 78, 47
2, 44894, Note_on_c, 0, 70, 32
2, 44895, Note_on_c, 0, 82, 21
2, 44901, Note_on_c, 0, 70, 0
2, 44905, Note_on_c, 0, 78, 0
2, 44909, Note_on_c, 0, 82, 0
2, 44931, Note_on_c, 0, 62, 0
2, 44933, Note_on_c, 0, 58, 0
2, 44955, Control_c, 0, 64, 127
2, 44966, Note_on_c, 0, 82, 68
2, 44967, Note_on_c, 0, 70, 61
2, 44983, Control_c, 0, 64, 0
2, 44986, Note_on_c, 0, 70, 0
2, 44987, Note_on_c, 0, 82, 0
2, 45003, Note_on_c, 0, 58, 32
2, 45004, Note_on_c, 0, 81, 44
2, 45005, Note_on_c, 0, 62, 18
2, 45007, Note_on_c, 0, 75, 32
2, 45009, Note_on_c, 0, 69, 33
2, 45021, Note_on_c, 0, 69, 0
2, 45021, Control_c, 0, 64, 127
2, 45022, Note_on_c, 0, 81, 0
2, 45024, Note_on_c, 0, 75, 0
2, 45030, Control_c, 0, 64, 0
2, 45041, Note_on_c, 0, 52, 0
2, 45051, Control_c, 0, 64, 127
2, 45057, Note_on_c, 0, 58, 0
2, 45063, Note_on_c, 0, 62, 0
2, 45084, Note_on_c, 0, 69, 62
2, 45084, Note_on_c, 0, 75, 55
2, 45086, Note_on_c, 0, 81, 32
2, 45091, Note_on_c, 0, 69, 0
2, 45094, Note_on_c, 0, 81, 0
2, 45103, Note_on_c, 0, 75, 0
2, 45111, Control_c, 0, 64, 0
2, 45119, Note_on_c, 0, 53, 37
2, 45120, Note_on_c, 0, 63, 25
2, 45122, Note_on_c, 0, 80, 44
2, 45124, Note_on_c, 0, 68, 35
2, 45126, Note_on_c, 0, 56, 33
2, 45126, Note_on_c, 0, 60, 29
2, 45127, Note_on_c, 0, 75, 30
2, 45141, Control_c, 0, 64, 127
2, 45159, Note_on_c, 0, 80, 0
2, 45160, Note_on_c, 0, 75, 0
2, 45173, Note_on_c, 0, 68, 0
2, 45196, Note_on_c, 0, 53, 0
2, 45196, Note_on_c, 0, 63, 0
2, 45198, Note_on_c, 0, 56, 0
2, 45201, Note_on_c, 0, 60, 0
2, 45228, Control_c, 0, 64, 0
2, 45239, Note_on_c, 0, 63, 31
2, 45240, Note_on_c, 0, 77, 51
2, 45241, Note_on_c, 0, 60, 32
2, 45241, Note_on_c, 0, 65, 40
2, 45242, Note_on_c, 0, 72, 47
2, 45248, Note_on_c, 0, 56, 20
2, 45251, Control_c, 0, 64, 127
2, 45274, Note_on_c, 0, 60, 0
2, 45279, Note_on_c, 0, 65, 0
2, 45281, Note_on_c, 0, 72, 0
2, 45289, Note_on_c, 0, 53, 1
2, 45291, Note_on_c, 0, 63, 0
2, 45295, Note_on_c, 0, 77, 0
2, 45303, Note_on_c, 0, 56, 0
2, 45324, Note_on_c, 0, 53, 0
2, 45341, Control_c, 0, 64, 0
2, 45354, Note_on_c, 0, 53, 32
2, 45358, Note_on_c, 0, 62, 24
2, 45358, Note_on_c, 0, 58, 33
2, 45358, Note_on_c, 0, 79, 49
2, 45358, Note_on_c, 0, 67, 49
2, 45359, Note_on_c, 0, 55, 31
2, 45362, Control_c, 0, 64, 127
2, 45363, Note_on_c, 0, 74, 42
2, 45379, Note_on_c, 0, 62, 0
2, 45383, Note_on_c, 0, 67, 0
2, 45383, Note_on_c, 0, 79, 0
2, 45385, Note_on_c, 0, 53, 0
2, 45391, Note_on_c, 0, 74, 0
2, 45392, Note_on_c, 0, 55, 0
2, 45395, Note_on_c, 0, 58, 0
2, 45441, Note_on_c, 0, 80, 57
2, 45442, Note_on_c, 0, 68, 46
2, 45443, Note_on_c, 0, 74, 52
2, 45444, Note_on_c, 0, 55, 31
2, 45445, Note_on_c, 0, 58, 28
2, 45446, Note_on_c, 0, 53, 24
2, 45450, Note_on_c, 0, 74, 0
2, 45453, Note_on_c, 0, 68, 0
2, 45453, Note_on_c, 0, 55, 0
2, 45453, Note_on_c, 0, 53, 0
2, 45457, Note_on_c, 0, 80, 0
2, 45457, Note_on_c, 0, 58, 0
2, 45466, Control_c, 0, 64, 0
2, 45477, Note_on_c, 0, 53, 53
2, 45478, Note_on_c, 0, 58, 36
2, 45479, Note_on_c, 0, 82, 70
2, 45479, Note_on_c, 0, 62, 37
2, 45480, Note_on_c, 0, 70, 68
2, 45483, Control_c, 0, 64, 127
2, 45501, Note_on_c, 0, 53, 0
2, 45513, Note_on_c, 0, 62, 0
2, 45515, Note_on_c, 0, 82, 0
2, 45522, Note_on_c, 0, 70, 0
2, 45524, Note_on_c, 0, 58, 0
2, 45563, Note_on_c, 0, 53, 72
2, 45563, Note_on_c, 0, 63, 62
2, 45565, Note_on_c, 0, 80, 59
2, 45565, Note_on_c, 0, 77, 76
2, 45565, Note_on_c, 0, 84, 77
2, 45565, Note_on_c, 0, 60, 57
2, 45566, Note_on_c, 0, 72, 76
2, 45568, Note_on_c, 0, 56, 47
2, 45571, Control_c, 0, 64, 0
2, 45597, Control_c, 0, 64, 127
2, 45607, Note_on_c, 0, 77, 0
2, 45609, Note_on_c, 0, 72, 0
2, 45614, Note_on_c, 0, 80, 0
2, 45614, Note_on_c, 0, 53, 0
2, 45620, Note_on_c, 0, 84, 0
2, 45621, Note_on_c, 0, 56, 0
2, 45621, Note_on_c, 0, 63, 0
2, 45623, Note_on_c, 0, 60, 0
2, 45645, Note_on_c, 0, 86, 75
2, 45646, Note_on_c, 0, 63, 57
2, 45648, Note_on_c, 0, 74, 77
2, 45649, Note_on_c, 0, 60, 39
2, 45650, Note_on_c, 0, 53, 58
2, 45650, Note_on_c, 0, 56, 42
2, 45685, Note_on_c, 0, 86, 0
2, 45686, Note_on_c, 0, 53, 0
2, 45687, Note_on_c, 0, 74, 0
2, 45690, Note_on_c, 0, 56, 0
2, 45692, Note_on_c, 0, 60, 0
2, 45693, Note_on_c, 0, 63, 0
2, 45715, Control_c, 0, 64, 0
2, 45723, Note_on_c, 0, 87, 70
2, 45724, Note_on_c, 0, 63, 55
2, 45726, Note_on_c, 0, 56, 40
2, 45727, Note_on_c, 0, 75, 60
2, 45727, Note_on_c, 0, 60, 44
2, 45730, Note_on_c, 0, 82, 51
2, 45730, Control_c, 0, 64, 127
2, 45734, Note_on_c, 0, 60, 0
2, 45744, Note_on_c, 0, 56, 0
2, 45746, Note_on_c, 0, 82, 0
2, 45747, Note_on_c, 0, 63, 0
2, 45753, Note_on_c, 0, 87, 0
2, 45755, Note_on_c, 0, 75, 0
2, 45802, Note_on_c, 0, 56, 57
2, 45802, Note_on_c, 0, 67, 60
2, 45802, Note_on_c, 0, 89, 72
2, 45804, Note_on_c, 0, 62, 49
2, 45805, Note_on_c, 0, 77, 62
2, 45806, Note_on_c, 0, 84, 69
2, 45809, Control_c, 0, 64, 0
2, 45830, Note_on_c, 0, 77, 0
2, 45834, Note_on_c, 0, 67, 0
2, 45834, Control_c, 0, 64, 127
2, 45837, Note_on_c, 0, 84, 0
2, 45840, Note_on_c, 0, 89, 0
2, 45846, Note_on_c, 0, 56, 0
2, 45847, Note_on_c, 0, 62, 0
2, 45879, Note_on_c, 0, 80, 74
2, 45879, Note_on_c, 0, 92, 74
2, 45881, Note_on_c, 0, 66, 60
2, 45882, Note_on_c, 0, 56, 55
2, 45882, Note_on_c, 0, 62, 52
2, 45909, Note_on_c, 0, 80, 0
2, 45913, Note_on_c, 0, 92, 0
2, 45920, Note_on_c, 0, 56, 0
2, 45921, Note_on_c, 0, 66, 0
2, 45925, Note_on_c, 0, 62, 0
2, 45956, Control_c, 0, 64, 0
2, 45961, Note_on_c, 0, 95, 75
2, 45962, Note_on_c, 0, 56, 67
2, 45963, Note_on_c, 0, 66, 69
2, 45963, Note_on_c, 0, 62, 55
2, 45964, Note_on_c, 0, 83, 69
2, 45964, Note_on_c, 0, 88, 64
2, 45971, Note_on_c, 0, 88, 0
2, 45975, Control_c, 0, 64, 127
2, 45978, Note_on_c, 0, 83, 0
2, 45986, Note_on_c, 0, 95, 0
2, 45997, Note_on_c, 0, 62, 0
2, 45999, Note_on_c, 0, 66, 0
2, 46019, Note_on_c, 0, 56, 0
2, 46043, Note_on_c, 0, 62, 52
2, 46044, Note_on_c, 0, 98, 78
2, 46046, Note_on_c, 0, 65, 57
2, 46046, Note_on_c, 0, 86, 71
2, 46047, Note_on_c, 0, 60, 44
2, 46048, Control_c, 0, 64, 0
2, 46049, Note_on_c, 0, 55, 48
2, 46051, Note_on_c, 0, 91, 43
2, 46052, Note_on_c, 0, 93, 44
2, 46060, Note_on_c, 0, 93, 0
2, 46068, Note_on_c, 0, 91, 0
2, 46069, Note_on_c, 0, 86, 0
2, 46075, Note_on_c, 0, 98, 0
2, 46075, Control_c, 0, 64, 127
2, 46079, Note_on_c, 0, 65, 0
2, 46082, Note_on_c, 0, 60, 0
2, 46083, Note_on_c, 0, 55, 0
2, 46090, Note_on_c, 0, 62, 0
2, 46119, Note_on_c, 0, 101, 68
2, 46121, Note_on_c, 0, 62, 41
2, 46122, Note_on_c, 0, 65, 50
2, 46122, Note_on_c, 0, 89, 63
2, 46125, Note_on_c, 0, 60, 40
2, 46125, Note_on_c, 0, 55, 38
2, 46147, Note_on_c, 0, 89, 0
2, 46154, Note_on_c, 0, 101, 0
2, 46155, Note_on_c, 0, 60, 0
2, 46155, Note_on_c, 0, 65, 0
2, 46157, Note_on_c, 0, 55, 0
2, 46160, Note_on_c, 0, 62, 0
2, 46195, Control_c, 0, 64, 0
2, 46198, Note_on_c, 0, 62, 38
2, 46198, Note_on_c, 0, 65, 47
2, 46200, Note_on_c, 0, 103, 55
2, 46201, Note_on_c, 0, 55, 36
2, 46202, Note_on_c, 0, 91, 41
2, 46202, Control_c, 0, 64, 127
2, 46205, Note_on_c, 0, 98, 44
2, 46209, Note_on_c, 0, 62, 0
2, 46210, Note_on_c, 0, 65, 0
2, 46221, Note_on_c, 0, 55, 0
2, 46234, Note_on_c, 0, 91, 0
2, 46237, Note_on_c, 0, 98, 0
2, 46248, Note_on_c, 0, 103, 0
2, 46280, Note_on_c, 0, 54, 40
2, 46281, Note_on_c, 0, 65, 42
2, 46282, Note_on_c, 0, 58, 35
2, 46284, Control_c, 0, 64, 0
2, 46284, Note_on_c, 0, 60, 42
2, 46380, Note_on_c, 0, 101, 82
2, 46424, Note_on_c, 0, 100, 62
2, 46429, Note_on_c, 0, 101, 0
2, 46441, Note_on_c, 0, 99, 57
2, 46444, Note_on_c, 0, 100, 0
2, 46461, Note_on_c, 0, 99, 0
2, 46465, Note_on_c, 0, 98, 49
2, 46479, Note_on_c, 0, 54, 0
2, 46487, Note_on_c, 0, 98, 0
2, 46511, Note_on_c, 0, 96, 71
2, 46511, Note_on_c, 0, 54, 34
2, 46526, Note_on_c, 0, 65, 0
2, 46532, Note_on_c, 0, 60, 0
2, 46537, Note_on_c, 0, 96, 0
2, 46540, Note_on_c, 0, 58, 0
2, 46550, Note_on_c, 0, 54, 0
2, 46556, Note_on_c, 0, 94, 62
2, 46571, Note_on_c, 0, 58, 18
2, 46573, Note_on_c, 0, 53, 29
2, 46575, Note_on_c, 0, 55, 25
2, 46576, Note_on_c, 0, 94, 0
2, 46601, Note_on_c, 0, 62, 1
2, 46604, Note_on_c, 0, 93, 55
2, 46628, Note_on_c, 0, 93, 0
2, 46639, Note_on_c, 0, 94, 59
2, 46659, Note_on_c, 0, 94, 0
2, 46675, Note_on_c, 0, 90, 52
2, 46698, Note_on_c, 0, 90, 0
2, 46706, Note_on_c, 0, 93, 70
2, 46715, Note_on_c, 0, 62, 0
2, 46716, Note_on_c, 0, 55, 0
2, 46720, Note_on_c, 0, 53, 0
2, 46734, Note_on_c, 0, 93, 0
2, 46740, Note_on_c, 0, 91, 64
2, 46759, Note_on_c, 0, 58, 0
2, 46768, Note_on_c, 0, 91, 0
2, 46777, Note_on_c, 0, 86, 46
2, 46789, Note_on_c, 0, 60, 30
2, 46790, Note_on_c, 0, 51, 27
2, 46795, Note_on_c, 0, 86, 0
2, 46803, Note_on_c, 0, 55, 26
2, 46813, Note_on_c, 0, 89, 71
2, 46840, Note_on_c, 0, 89, 0
2, 46848, Note_on_c, 0, 86, 46
2, 46857, Note_on_c, 0, 86, 0
2, 46870, Note_on_c, 0, 60, 0
2, 46874, Note_on_c, 0, 87, 64
2, 46894, Note_on_c, 0, 87, 0
2, 46900, Note_on_c, 0, 60, 29
2, 46931, Note_on_c, 0, 86, 77
2, 46951, Note_on_c, 0, 55, 0
2, 46959, Note_on_c, 0, 86, 0
2, 46968, Note_on_c, 0, 51, 0
2, 46976, Note_on_c, 0, 82, 58
2, 46989, Note_on_c, 0, 60, 0
2, 47007, Note_on_c, 0, 82, 0
2, 47043, Note_on_c, 0, 63, 19
2, 47044, Note_on_c, 0, 60, 25
2, 47046, Note_on_c, 0, 56, 26
2, 47047, Note_on_c, 0, 53, 35
2, 47068, Note_on_c, 0, 82, 74
2, 47101, Note_on_c, 0, 82, 0
2, 47116, Note_on_c, 0, 80, 73
2, 47140, Note_on_c, 0, 80, 0
2, 47147, Note_on_c, 0, 63, 0
2, 47164, Note_on_c, 0, 79, 67
2, 47165, Note_on_c, 0, 63, 31
2, 47181, Note_on_c, 0, 63, 0
2, 47187, Note_on_c, 0, 79, 0
2, 47188, Note_on_c, 0, 60, 0
2, 47192, Control_c, 0, 64, 127
2, 47204, Note_on_c, 0, 75, 56
2, 47210, Note_on_c, 0, 63, 18
2, 47217, Note_on_c, 0, 60, 27
2, 47228, Note_on_c, 0, 60, 0
2, 47248, Note_on_c, 0, 63, 0
2, 47249, Note_on_c, 0, 53, 0
2, 47262, Note_on_c, 0, 75, 0
2, 47267, Note_on_c, 0, 56, 0
2, 47291, Note_on_c, 0, 77, 54
2, 47291, Note_on_c, 0, 63, 36
2, 47292, Control_c, 0, 64, 0
2, 47296, Note_on_c, 0, 56, 19
2, 47330, Control_c, 0, 64, 127
2, 47334, Note_on_c, 0, 60, 1
2, 47363, Note_on_c, 0, 63, 0
2, 47398, Control_c, 0, 64, 0
2, 47401, Control_c, 0, 64, 127
2, 47403, Note_on_c, 0, 77, 0
2, 47405, Note_on_c, 0, 73, 44
2, 47406, Note_on_c, 0, 53, 38
2, 47407, Note_on_c, 0, 68, 27
2, 47414, Note_on_c, 0, 60, 0
2, 47422, Note_on_c, 0, 53, 0
2, 47423, Note_on_c, 0, 73, 0
2, 47427, Note_on_c, 0, 68, 0
2, 47431, Note_on_c, 0, 56, 0
2, 47483, Note_on_c, 0, 46, 46
2, 47495, Note_on_c, 0, 46, 0
2, 47518, Control_c, 0, 64, 0
2, 47523, Note_on_c, 0, 56, 39
2, 47524, Note_on_c, 0, 67, 38
2, 47524, Note_on_c, 0, 63, 40
2, 47525, Note_on_c, 0, 60, 54
2, 47601, Note_on_c, 0, 46, 69
2, 47623, Note_on_c, 0, 60, 0
2, 47626, Note_on_c, 0, 63, 0
2, 47626, Note_on_c, 0, 56, 0
2, 47641, Note_on_c, 0, 67, 0
2, 47669, Control_c, 0, 64, 127
2, 47760, Note_on_c, 0, 66, 51
2, 47762, Note_on_c, 0, 71, 64
2, 47763, Note_on_c, 0, 62, 47
2, 47765, Control_c, 0, 64, 0
2, 47767, Note_on_c, 0, 58, 39
2, 47787, Note_on_c, 0, 66, 0
2, 47792, Note_on_c, 0, 67, 35
2, 47838, Note_on_c, 0, 67, 0
2, 47838, Note_on_c, 0, 62, 0
2, 47845, Note_on_c, 0, 71, 0
2, 47846, Note_on_c, 0, 58, 0
2, 47853, Note_on_c, 0, 53, 56
2, 47860, Note_on_c, 0, 53, 0
2, 47878, Note_on_c, 0, 66, 46
2, 47880, Note_on_c, 0, 58, 23
2, 47881, Note_on_c, 0, 71, 47
2, 47881, Note_on_c, 0, 62, 33
2, 47898, Note_on_c, 0, 58, 0
2, 47899, Note_on_c, 0, 66, 0
2, 47899, Control_c, 0, 64, 127
2, 47906, Note_on_c, 0, 67, 32
2, 47964, Note_on_c, 0, 67, 0
2, 47964, Note_on_c, 0, 62, 0
2, 47967, Note_on_c, 0, 46, 0
2, 47975, Note_on_c, 0, 71, 0
2, 48007, Control_c, 0, 64, 0
2, 48020, Control_c, 0, 64, 127
2, 48114, Note_on_c, 0, 44, 46
2, 48115, Control_c, 0, 64, 0
2, 48117, Note_on_c, 0, 72, 53
2, 48118, Note_on_c, 0, 60, 50
2, 48118, Note_on_c, 0, 67, 47
2, 48123, Note_on_c, 0, 44, 0
2, 48128, Note_on_c, 0, 60, 0
2, 48136, Note_on_c, 0, 67, 0
2, 48138, Note_on_c, 0, 72, 0
2, 48161, Control_c, 0, 64, 127
2, 48198, Note_on_c, 0, 72, 60
2, 48200, Note_on_c, 0, 67, 63
2, 48219, Note_on_c, 0, 67, 0
2, 48225, Note_on_c, 0, 72, 0
2, 48244, Note_on_c, 0, 63, 64
2, 48244, Note_on_c, 0, 74, 74
2, 48246, Note_on_c, 0, 55, 42
2, 48247, Note_on_c, 0, 67, 58
2, 48248, Control_c, 0, 64, 0
2, 48288, Control_c, 0, 64, 127
2, 48302, Note_on_c, 0, 55, 0
2, 48315, Note_on_c, 0, 63, 0
2, 48324, Note_on_c, 0, 67, 0
2, 48349, Note_on_c, 0, 74, 0
2, 48365, Note_on_c, 0, 72, 55
2, 48367, Note_on_c, 0, 54, 31
2, 48369, Control_c, 0, 64, 0
2, 48370, Note_on_c, 0, 58, 29
2, 48370, Note_on_c, 0, 60, 30
2, 48372, Note_on_c, 0, 65, 15
2, 48396, Control_c, 0, 64, 127
2, 48410, Note_on_c, 0, 60, 0
2, 48413, Note_on_c, 0, 65, 0
2, 48433, Note_on_c, 0, 58, 0
2, 48437, Note_on_c, 0, 54, 0
2, 48478, Note_on_c, 0, 72, 0
2, 48478, Control_c, 0, 64, 0
2, 48482, Note_on_c, 0, 55, 33
2, 48486, Note_on_c, 0, 62, 32
2, 48486, Note_on_c, 0, 58, 25
2, 48492, Note_on_c, 0, 70, 47
2, 48506, Note_on_c, 0, 70, 0
2, 48513, Note_on_c, 0, 72, 59
2, 48514, Note_on_c, 0, 58, 0
2, 48529, Note_on_c, 0, 62, 0
2, 48529, Note_on_c, 0, 70, 34
2, 48537, Note_on_c, 0, 72, 0
2, 48558, Note_on_c, 0, 69, 58
2, 48561, Note_on_c, 0, 70, 0
2, 48573, Note_on_c, 0, 69, 0
2, 48594, Note_on_c, 0, 70, 57
2, 48602, Note_on_c, 0, 58, 19
2, 48610, Note_on_c, 0, 70, 0
2, 48626, Note_on_c, 0, 55, 0
2, 48636, Note_on_c, 0, 71, 54
2, 48661, Note_on_c, 0, 71, 0
2, 48672, Note_on_c, 0, 74, 67
2, 48682, Control_c, 0, 64, 127
2, 48689, Note_on_c, 0, 58, 0
2, 48697, Note_on_c, 0, 74, 0
2, 48706, Note_on_c, 0, 71, 49
2, 48719, Note_on_c, 0, 63, 25
2, 48720, Control_c, 0, 64, 0
2, 48721, Note_on_c, 0, 71, 0
2, 48727, Note_on_c, 0, 56, 18
2, 48728, Note_on_c, 0, 52, 25
2, 48729, Note_on_c, 0, 58, 14
2, 48739, Note_on_c, 0, 72, 58
2, 48758, Note_on_c, 0, 63, 0
2, 48763, Control_c, 0, 64, 127
2, 48781, Note_on_c, 0, 72, 0
2, 48790, Note_on_c, 0, 60, 62
2, 48813, Control_c, 0, 64, 0
2, 48828, Control_c, 0, 64, 127
2, 48867, Note_on_c, 0, 52, 0
2, 48880, Note_on_c, 0, 56, 0
2, 48893, Note_on_c, 0, 58, 0
2, 48901, Note_on_c, 0, 60, 0
2, 48955, Control_c, 0, 64, 0
2, 48965, Note_on_c, 0, 68, 35
2, 48965, Note_on_c, 0, 56, 28
2, 48966, Note_on_c, 0, 63, 23
2, 48966, Note_on_c, 0, 60, 28
2, 48981, Control_c, 0, 64, 127
2, 48993, Note_on_c, 0, 60, 0
2, 49002, Note_on_c, 0, 63, 0
2, 49011, Note_on_c, 0, 56, 0
2, 49023, Note_on_c, 0, 68, 0
2, 49042, Note_on_c, 0, 70, 82
2, 49045, Note_on_c, 0, 60, 42
2, 49046, Note_on_c, 0, 63, 25
2, 49046, Note_on_c, 0, 53, 38
2, 49055, Note_on_c, 0, 53, 0
2, 49055, Note_on_c, 0, 63, 0
2, 49057, Note_on_c, 0, 60, 0
2, 49076, Control_c, 0, 64, 0
2, 49087, Note_on_c, 0, 60, 24
2, 49088, Note_on_c, 0, 68, 36
2, 49089, Control_c, 0, 64, 127
2, 49092, Note_on_c, 0, 56, 25
2, 49095, Note_on_c, 0, 60, 0
2, 49097, Note_on_c, 0, 68, 0
2, 49098, Note_on_c, 0, 70, 0
2, 49102, Note_on_c, 0, 56, 0
2, 49163, Note_on_c, 0, 70, 65
2, 49164, Note_on_c, 0, 63, 48
2, 49165, Note_on_c, 0, 58, 48
2, 49165, Note_on_c, 0, 57, 57
2, 49165, Note_on_c, 0, 60, 53
2, 49167, Note_on_c, 0, 65, 42
2, 49172, Note_on_c, 0, 57, 0
2, 49174, Control_c, 0, 64, 0
2, 49210, Control_c, 0, 64, 127
2, 49249, Note_on_c, 0, 63, 0
2, 49257, Note_on_c, 0, 60, 0
2, 49259, Note_on_c, 0, 70, 0
2, 49260, Note_on_c, 0, 65, 0
2, 49282, Note_on_c, 0, 56, 39
2, 49283, Note_on_c, 0, 58, 0
2, 49285, Note_on_c, 0, 68, 47
2, 49286, Note_on_c, 0, 65, 47
2, 49286, Note_on_c, 0, 60, 51
2, 49288, Note_on_c, 0, 63, 48
2, 49303, Note_on_c, 0, 60, 0
2, 49303, Note_on_c, 0, 68, 0
2, 49315, Note_on_c, 0, 65, 0
2, 49319, Control_c, 0, 64, 0
2, 49320, Note_on_c, 0, 56, 0
2, 49333, Note_on_c, 0, 67, 24
2, 49333, Note_on_c, 0, 60, 19
2, 49339, Note_on_c, 0, 55, 25
2, 49343, Control_c, 0, 64, 127
2, 49344, Note_on_c, 0, 67, 0
2, 49350, Note_on_c, 0, 55, 0
2, 49377, Note_on_c, 0, 60, 0
2, 49381, Note_on_c, 0, 63, 0
2, 49441, Note_on_c, 0, 58, 50
2, 49442, Note_on_c, 0, 67, 46
2, 49444, Note_on_c, 0, 63, 46
2, 49444, Control_c, 0, 64, 0
2, 49447, Note_on_c, 0, 53, 18
2, 49452, Note_on_c, 0, 49, 32
2, 49465, Note_on_c, 0, 59, 1
2, 49472, Control_c, 0, 64, 127
2, 49500, Note_on_c, 0, 67, 0
2, 49512, Note_on_c, 0, 53, 0
2, 49522, Note_on_c, 0, 59, 0
2, 49532, Note_on_c, 0, 63, 0
2, 49536, Note_on_c, 0, 58, 0
2, 49540, Note_on_c, 0, 49, 0
2, 49562, Control_c, 0, 64, 0
2, 49566, Note_on_c, 0, 49, 25
2, 49567, Note_on_c, 0, 63, 48
2, 49567, Note_on_c, 0, 59, 33
2, 49568, Note_on_c, 0, 68, 49
2, 49569, Note_on_c, 0, 58, 38
2, 49570, Note_on_c, 0, 53, 37
2, 49576, Control_c, 0, 64, 127
2, 49588, Note_on_c, 0, 53, 0
2, 49591, Note_on_c, 0, 59, 0
2, 49618, Note_on_c, 0, 63, 0
2, 49636, Note_on_c, 0, 49, 0
2, 49638, Note_on_c, 0, 58, 0
2, 49638, Note_on_c, 0, 68, 0
2, 49673, Control_c, 0, 64, 0
2, 49680, Note_on_c, 0, 48, 38
2, 49681, Note_on_c, 0, 68, 40
2, 49682, Note_on_c, 0, 58, 29
2, 49684, Note_on_c, 0, 61, 33
2, 49686, Note_on_c, 0, 64, 37
2, 49698, Control_c, 0, 64, 127
2, 49708, Note_on_c, 0, 48, 0
2, 49735, Note_on_c, 0, 64, 0
2, 49751, Note_on_c, 0, 58, 0
2, 49760, Note_on_c, 0, 61, 0
2, 49764, Note_on_c, 0, 68, 0
2, 49798, Control_c, 0, 64, 0
2, 49801, Note_on_c, 0, 67, 45
2, 49801, Note_on_c, 0, 63, 45
2, 49801, Note_on_c, 0, 56, 37
2, 49803, Note_on_c, 0, 60, 45
2, 49803, Note_on_c, 0, 46, 28
2, 49828, Control_c, 0, 64, 127
2, 49835, Note_on_c, 0, 46, 0
2, 49848, Note_on_c, 0, 60, 0
2, 49851, Note_on_c, 0, 56, 0
2, 49856, Note_on_c, 0, 63, 0
2, 49890, Note_on_c, 0, 67, 0
2, 49892, Note_on_c, 0, 51, 32
2, 49904, Note_on_c, 0, 51, 0
2, 49917, Control_c, 0, 64, 0
2, 49918, Note_on_c, 0, 63, 38
2, 49923, Note_on_c, 0, 60, 46
2, 49924, Note_on_c, 0, 55, 30
2, 49934, Note_on_c, 0, 45, 32
2, 49948, Control_c, 0, 64, 127
2, 49991, Note_on_c, 0, 55, 0
2, 49994, Note_on_c, 0, 60, 0
2, 49999, Note_on_c, 0, 63, 0
2, 50031, Control_c, 0, 64, 0
2, 50038, Note_on_c, 0, 63, 35
2, 50039, Note_on_c, 0, 60, 41
2, 50039, Note_on_c, 0, 51, 25
2, 50040, Note_on_c, 0, 55, 40
2, 50043, Control_c, 0, 64, 127
2, 50061, Note_on_c, 0, 51, 0
2, 50078, Note_on_c, 0, 60, 0
2, 50092, Note_on_c, 0, 45, 0
2, 50100, Note_on_c, 0, 55, 0
2, 50122, Note_on_c, 0, 63, 0
2, 50144, Control_c, 0, 64, 0
2, 50151, Note_on_c, 0, 44, 33
2, 50155, Note_on_c, 0, 54, 35
2, 50156, Note_on_c, 0, 63, 30
2, 50157, Note_on_c, 0, 59, 45
2, 50172, Control_c, 0, 64, 127
2, 50209, Note_on_c, 0, 59, 0
2, 50216, Note_on_c, 0, 63, 0
2, 50221, Note_on_c, 0, 54, 0
2, 50225, Note_on_c, 0, 44, 0
2, 50276, Note_on_c, 0, 44, 39
2, 50340, Note_on_c, 0, 44, 0
2, 50361, Note_on_c, 0, 43, 60
2, 50362, Note_on_c, 0, 67, 76
2, 50362, Note_on_c, 0, 62, 74
2, 50362, Note_on_c, 0, 58, 71
2, 50364, Note_on_c, 0, 53, 67
2, 50365, Control_c, 0, 64, 0
2, 50401, Control_c, 0, 64, 127
2, 50402, Note_on_c, 0, 43, 0
2, 50442, Note_on_c, 0, 62, 0
2, 50446, Note_on_c, 0, 67, 0
2, 50448, Note_on_c, 0, 58, 0
2, 50459, Note_on_c, 0, 53, 0
2, 50481, Note_on_c, 0, 51, 42
2, 50482, Note_on_c, 0, 66, 34
2, 50505, Control_c, 0, 64, 0
2, 50506, Note_on_c, 0, 66, 0
2, 50516, Note_on_c, 0, 51, 0
2, 50525, Note_on_c, 0, 53, 54
2, 50531, Control_c, 0, 64, 127
2, 50532, Note_on_c, 0, 53, 0
2, 50599, Note_on_c, 0, 70, 69
2, 50600, Note_on_c, 0, 58, 52
2, 50600, Note_on_c, 0, 61, 57
2, 50602, Note_on_c, 0, 48, 53
2, 50602, Note_on_c, 0, 64, 60
2, 50608, Control_c, 0, 64, 0
2, 50622, Note_on_c, 0, 61, 0
2, 50623, Note_on_c, 0, 48, 0
2, 50625, Note_on_c, 0, 64, 0
2, 50625, Note_on_c, 0, 58, 0
2, 50629, Note_on_c, 0, 70, 0
2, 50687, Control_c, 0, 64, 127
2, 50714, Note_on_c, 0, 70, 49
2, 50714, Note_on_c, 0, 48, 56
2, 50714, Note_on_c, 0, 58, 43
2, 50714, Note_on_c, 0, 61, 57
2, 50717, Note_on_c, 0, 64, 47
2, 50729, Control_c, 0, 64, 0
2, 50737, Note_on_c, 0, 58, 0
2, 50742, Note_on_c, 0, 48, 0
2, 50751, Control_c, 0, 64, 127
2, 50758, Note_on_c, 0, 70, 0
2, 50773, Note_on_c, 0, 64, 0
2, 50811, Note_on_c, 0, 61, 0
2, 50883, Note_on_c, 0, 67, 55
2, 50885, Control_c, 0, 64, 0
2, 50886, Note_on_c, 0, 63, 39
2, 50886, Note_on_c, 0, 57, 37
2, 50887, Note_on_c, 0, 60, 45
2, 50887, Note_on_c, 0, 51, 33
2, 50892, Note_on_c, 0, 41, 33
2, 50918, Control_c, 0, 64, 127
2, 50924, Note_on_c, 0, 60, 0
2, 50925, Note_on_c, 0, 57, 0
2, 50946, Note_on_c, 0, 51, 0
2, 50950, Note_on_c, 0, 63, 0
2, 50960, Note_on_c, 0, 67, 0
2, 51003, Note_on_c, 0, 63, 48
2, 51004, Control_c, 0, 64, 0
2, 51004, Note_on_c, 0, 67, 44
2, 51006, Note_on_c, 0, 51, 32
2, 51007, Note_on_c, 0, 57, 40
2, 51007, Note_on_c, 0, 60, 38
2, 51022, Note_on_c, 0, 41, 0
2, 51023, Control_c, 0, 64, 127
2, 51030, Note_on_c, 0, 57, 0
2, 51032, Note_on_c, 0, 60, 0
2, 51038, Note_on_c, 0, 51, 0
2, 51041, Note_on_c, 0, 67, 0
2, 51051, Note_on_c, 0, 63, 0
2, 51115, Control_c, 0, 64, 0
2, 51120, Note_on_c, 0, 46, 33
2, 51120, Note_on_c, 0, 63, 35
2, 51122, Note_on_c, 0, 60, 45
2, 51123, Note_on_c, 0, 56, 34
2, 51147, Control_c, 0, 64, 127
2, 51159, Note_on_c, 0, 60, 0
2, 51179, Note_on_c, 0, 46, 0
2, 51187, Note_on_c, 0, 56, 0
2, 51239, Note_on_c, 0, 56, 25
2, 51242, Note_on_c, 0, 60, 37
2, 51242, Note_on_c, 0, 46, 28
2, 51260, Note_on_c, 0, 56, 0
2, 51266, Note_on_c, 0, 46, 0
2, 51266, Note_on_c, 0, 60, 0
2, 51291, Note_on_c, 0, 63, 0
2, 51352, Control_c, 0, 64, 0
2, 51360, Note_on_c, 0, 60, 39
2, 51360, Note_on_c, 0, 65, 34
2, 51363, Note_on_c, 0, 39, 39
2, 51382, Control_c, 0, 64, 127
2, 51392, Note_on_c, 0, 60, 0
2, 51397, Note_on_c, 0, 65, 0
2, 51414, Note_on_c, 0, 39, 0
2, 51424, Note_on_c, 0, 46, 33
2, 51457, Note_on_c, 0, 46, 0
2, 51474, Note_on_c, 0, 65, 45
2, 51479, Note_on_c, 0, 55, 34
2, 51491, Note_on_c, 0, 65, 0
2, 51536, Note_on_c, 0, 58, 35
2, 51539, Note_on_c, 0, 55, 0
2, 51593, Note_on_c, 0, 62, 51
2, 51595, Note_on_c, 0, 84, 91
2, 51595, Note_on_c, 0, 77, 91
2, 51634, Note_on_c, 0, 62, 0
2, 51652, Note_on_c, 0, 67, 44
2, 51674, Note_on_c, 0, 77, 0
2, 51680, Note_on_c, 0, 84, 0
2, 51702, Note_on_c, 0, 67, 0
2, 51715, Note_on_c, 0, 82, 51
2, 51715, Note_on_c, 0, 72, 51
2, 51718, Note_on_c, 0, 77, 50
2, 51721, Note_on_c, 0, 58, 0
2, 51721, Note_on_c, 0, 62, 46
2, 51725, Note_on_c, 0, 77, 0
2, 51726, Note_on_c, 0, 82, 0
2, 51730, Note_on_c, 0, 72, 0
2, 51762, Note_on_c, 0, 62, 0
2, 51773, Note_on_c, 0, 58, 49
2, 51785, Note_on_c, 0, 58, 0
2, 51837, Note_on_c, 0, 66, 63
2, 51840, Note_on_c, 0, 56, 49
2, 51841, Note_on_c, 0, 61, 62
2, 51843, Note_on_c, 0, 40, 55
2, 51845, Control_c, 0, 64, 0
2, 51890, Note_on_c, 0, 56, 0
2, 51894, Control_c, 0, 64, 127
2, 51898, Note_on_c, 0, 61, 0
2, 51903, Note_on_c, 0, 66, 0
2, 51906, Note_on_c, 0, 47, 35
2, 51952, Note_on_c, 0, 40, 0
2, 51955, Note_on_c, 0, 47, 0
2, 51962, Note_on_c, 0, 52, 53
2, 51963, Note_on_c, 0, 78, 51
2, 51965, Note_on_c, 0, 68, 46
2, 51968, Note_on_c, 0, 73, 51
2, 51971, Note_on_c, 0, 52, 0
2, 52025, Note_on_c, 0, 59, 56
2, 52045, Note_on_c, 0, 68, 0
2, 52046, Note_on_c, 0, 73, 0
2, 52083, Note_on_c, 0, 78, 0
2, 52088, Note_on_c, 0, 59, 0
2, 52091, Note_on_c, 0, 73, 55
2, 52091, Note_on_c, 0, 68, 48
2, 52094, Note_on_c, 0, 64, 27
2, 52107, Note_on_c, 0, 78, 5
2, 52137, Note_on_c, 0, 68, 0
2, 52150, Note_on_c, 0, 64, 0
2, 52153, Note_on_c, 0, 66, 48
2, 52162, Note_on_c, 0, 73, 0
2, 52179, Note_on_c, 0, 66, 0
2, 52203, Note_on_c, 0, 78, 0
2, 52215, Note_on_c, 0, 68, 48
2, 52249, Note_on_c, 0, 68, 0
2, 52265, Note_on_c, 0, 78, 56
2, 52299, Note_on_c, 0, 78, 0
2, 52331, Control_c, 0, 64, 0
2, 52331, Note_on_c, 0, 39, 37
2, 52332, Note_on_c, 0, 77, 42
2, 52333, Note_on_c, 0, 67, 27
2, 52333, Note_on_c, 0, 70, 36
2, 52335, Note_on_c, 0, 74, 40
2, 52365, Note_on_c, 0, 74, 0
2, 52368, Note_on_c, 0, 77, 0
2, 52372, Control_c, 0, 64, 127
2, 52381, Note_on_c, 0, 70, 0
2, 52386, Note_on_c, 0, 46, 35
2, 52389, Note_on_c, 0, 39, 0
2, 52390, Note_on_c, 0, 67, 0
2, 52418, Note_on_c, 0, 46, 0
2, 52451, Note_on_c, 0, 55, 44
2, 52451, Note_on_c, 0, 60, 34
2, 52469, Note_on_c, 0, 60, 0
2, 52508, Note_on_c, 0, 55, 0
2, 52509, Note_on_c, 0, 65, 30
2, 52515, Note_on_c, 0, 58, 27
2, 52549, Note_on_c, 0, 65, 0
2, 52564, Note_on_c, 0, 62, 32
2, 52568, Note_on_c, 0, 70, 37
2, 52578, Note_on_c, 0, 70, 0
2, 52598, Note_on_c, 0, 62, 0
2, 52626, Note_on_c, 0, 67, 32
2, 52629, Note_on_c, 0, 77, 46
2, 52682, Note_on_c, 0, 77, 0
2, 52694, Note_on_c, 0, 82, 33
2, 52700, Note_on_c, 0, 82, 0
2, 52746, Note_on_c, 0, 84, 53
2, 52747, Note_on_c, 0, 67, 0
2, 52758, Note_on_c, 0, 58, 0
2, 52793, Note_on_c, 0, 84, 0
2, 52813, Note_on_c, 0, 89, 44
2, 52862, Note_on_c, 0, 89, 0
2, 52871, Note_on_c, 0, 94, 45
2, 52886, Note_on_c, 0, 94, 0
2, 52943, Note_on_c, 0, 96, 28
2, 52945, Note_on_c, 0, 98, 27
2, 52955, Note_on_c, 0, 98, 0
2, 52986, Note_on_c, 0, 96, 0
2, 52999, Note_on_c, 0, 101, 44
2, 53067, Note_on_c, 0, 101, 0
2, 53069, Note_on_c, 0, 106, 33
2, 53112, Note_on_c, 0, 106, 0
2, 53123, Note_on_c, 0, 108, 44
2, 53163, Note_on_c, 0, 108, 0
2, 53196, Note_on_c, 0, 108, 49
2, 53238, Note_on_c, 0, 108, 0
2, 53346, Note_on_c, 0, 27, 27
2, 53375, Note_on_c, 0, 27, 0
2, 53720, Control_c, 0, 64, 0
2, 53720, End_track
3, 0, Start_track
3, 0, MIDI_port, 0
3, 0, Title_t, "Fretless Bass"
3, 0, Program_c, 1, 35
3, 22440, Note_on_c, 1, 43, 10
3, 22440, Note_on_c, 1, 43, 0
3, 22560, Note_on_c, 1, 43, 10
3, 22560, Note_on_c, 1, 43, 0
3, 23042, Note_on_c, 1, 39, 54
3, 23254, Note_on_c, 1, 42, 43
3, 23278, Note_on_c, 1, 39, 0
3, 23284, Note_on_c, 1, 42, 0
3, 23296, Note_on_c, 1, 44, 60
3, 23501, Note_on_c, 1, 42, 46
3, 23518, Note_on_c, 1, 44, 0
3, 23527, Note_on_c, 1, 42, 0
3, 23540, Note_on_c, 1, 43, 51
3, 23708, Note_on_c, 1, 43, 0
3, 23738, Note_on_c, 1, 43, 68
3, 23753, Note_on_c, 1, 43, 0
3, 23778, Note_on_c, 1, 36, 74
3, 23857, Note_on_c, 1, 36, 0
3, 23866, Note_on_c, 1, 39, 58
3, 23884, Note_on_c, 1, 39, 0
3, 23902, Note_on_c, 1, 40, 51
3, 23988, Note_on_c, 1, 39, 44
3, 24007, Note_on_c, 1, 40, 0
3, 24015, Note_on_c, 1, 39, 0
3, 24018, Note_on_c, 1, 41, 54
3, 24107, Note_on_c, 1, 39, 53
3, 24127, Note_on_c, 1, 41, 0
3, 24141, Note_on_c, 1, 53, 98
3, 24145, Note_on_c, 1, 39, 0
3, 24355, Note_on_c, 1, 53, 0
3, 24377, Note_on_c, 1, 33, 81
3, 24466, Note_on_c, 1, 33, 0
3, 24499, Note_on_c, 1, 34, 83
3, 24709, Note_on_c, 1, 36, 40
3, 24722, Note_on_c, 1, 36, 0
3, 24738, Note_on_c, 1, 46, 80
3, 24748, Note_on_c, 1, 34, 0
3, 24933, Note_on_c, 1, 39, 47
3, 24945, Note_on_c, 1, 39, 0
3, 24953, Note_on_c, 1, 46, 0
3, 24971, Note_on_c, 1, 45, 79
3, 25160, Note_on_c, 1, 37, 56
3, 25187, Note_on_c, 1, 37, 0
3, 25188, Note_on_c, 1, 45, 0
3, 25202, Note_on_c, 1, 38, 65
3, 25442, Note_on_c, 1, 38, 0
3, 25451, Note_on_c, 1, 43, 75
3, 25579, Note_on_c, 1, 37, 47
3, 25594, Note_on_c, 1, 43, 0
3, 25686, Note_on_c, 1, 37, 0
3, 25688, Note_on_c, 1, 36, 69
3, 25777, Note_on_c, 1, 37, 56
3, 25778, Note_on_c, 1, 39, 40
3, 25788, Note_on_c, 1, 39, 0
3, 25791, Note_on_c, 1, 36, 0
3, 25792, Note_on_c, 1, 37, 0
3, 25815, Note_on_c, 1, 48, 77
3, 25891, Note_on_c, 1, 39, 40
3, 25911, Note_on_c, 1, 48, 0
3, 25924, Note_on_c, 1, 39, 0
3, 25936, Note_on_c, 1, 41, 59
3, 26134, Note_on_c, 1, 38, 46
3, 26145, Note_on_c, 1, 38, 0
3, 26166, Note_on_c, 1, 41, 0
3, 26172, Note_on_c, 1, 31, 64
3, 26401, Note_on_c, 1, 31, 0
3, 26410, Note_on_c, 1, 32, 69
3, 26532, Note_on_c, 1, 32, 0
3, 26545, Note_on_c, 1, 33, 41
3, 26768, Note_on_c, 1, 33, 0
3, 26778, Note_on_c, 1, 34, 65
3, 27129, Note_on_c, 1, 46, 77
3, 27140, Note_on_c, 1, 34, 0
3, 27249, Note_on_c, 1, 32, 28
3, 27250, Note_on_c, 1, 46, 0
3, 27342, Note_on_c, 1, 32, 0
3, 27362, Note_on_c, 1, 31, 60
3, 27482, Note_on_c, 1, 50, 84
3, 27513, Note_on_c, 1, 50, 0
3, 27566, Note_on_c, 1, 31, 0
3, 27573, Note_on_c, 1, 35, 42
3, 27584, Note_on_c, 1, 35, 0
3, 27606, Note_on_c, 1, 48, 74
3, 27685, Note_on_c, 1, 48, 0
3, 27690, Note_on_c, 1, 36, 60
3, 27702, Note_on_c, 1, 36, 0
3, 27729, Note_on_c, 1, 30, 64
3, 27822, Note_on_c, 1, 30, 0
3, 27854, Note_on_c, 1, 29, 50
3, 27934, Note_on_c, 1, 36, 67
3, 27940, Note_on_c, 1, 29, 0
3, 27947, Note_on_c, 1, 36, 0
3, 27974, Note_on_c, 1, 41, 67
3, 28164, Note_on_c, 1, 34, 57
3, 28168, Note_on_c, 1, 41, 0
3, 28175, Note_on_c, 1, 34, 0
3, 28209, Note_on_c, 1, 47, 80
3, 28286, Note_on_c, 1, 34, 44
3, 28305, Note_on_c, 1, 34, 0
3, 28305, Note_on_c, 1, 47, 0
3, 28327, Note_on_c, 1, 46, 72
3, 28521, Note_on_c, 1, 46, 0
3, 28527, Note_on_c, 1, 45, 87
3, 28646, Note_on_c, 1, 39, 68
3, 28663, Note_on_c, 1, 39, 0
3, 28675, Note_on_c, 1, 45, 0
3, 28689, Note_on_c, 1, 44, 90
3, 28915, Note_on_c, 1, 44, 0
3, 28924, Note_on_c, 1, 39, 53
3, 29044, Note_on_c, 1, 45, 75
3, 29047, Note_on_c, 1, 39, 0
3, 29121, Note_on_c, 1, 45, 0
3, 29135, Note_on_c, 1, 39, 59
3, 29155, Note_on_c, 1, 39, 0
3, 29177, Note_on_c, 1, 38, 75
3, 29288, Note_on_c, 1, 38, 0
3, 29288, Note_on_c, 1, 43, 83
3, 29515, Note_on_c, 1, 43, 0
3, 29529, Note_on_c, 1, 36, 62
3, 29649, Note_on_c, 1, 36, 0
3, 29653, Note_on_c, 1, 41, 63
3, 29870, Note_on_c, 1, 41, 0
3, 29891, Note_on_c, 1, 29, 58
3, 29989, Note_on_c, 1, 29, 0
3, 30005, Note_on_c, 1, 46, 77
3, 30068, Note_on_c, 1, 46, 0
3, 30118, Note_on_c, 1, 34, 65
3, 30229, Note_on_c, 1, 34, 0
3, 30241, Note_on_c, 1, 49, 81
3, 30438, Note_on_c, 1, 49, 0
3, 30443, Note_on_c, 1, 48, 75
3, 30573, Note_on_c, 1, 37, 39
3, 30582, Note_on_c, 1, 37, 0
3, 30586, Note_on_c, 1, 48, 0
3, 30603, Note_on_c, 1, 46, 60
3, 30697, Note_on_c, 1, 46, 0
3, 30721, Note_on_c, 1, 45, 64
3, 30919, Note_on_c, 1, 39, 53
3, 30928, Note_on_c, 1, 39, 0
3, 30945, Note_on_c, 1, 45, 0
3, 30964, Note_on_c, 1, 44, 58
3, 31175, Note_on_c, 1, 39, 54
3, 31187, Note_on_c, 1, 39, 0
3, 31197, Note_on_c, 1, 44, 0
3, 31212, Note_on_c, 1, 43, 68
3, 31393, Note_on_c, 1, 43, 0
3, 31409, Note_on_c, 1, 36, 78
3, 31539, Note_on_c, 1, 41, 45
3, 31550, Note_on_c, 1, 41, 0
3, 31566, Note_on_c, 1, 36, 0
3, 31579, Note_on_c, 1, 46, 49
3, 31672, Note_on_c, 1, 46, 0
3, 31694, Note_on_c, 1, 48, 76
3, 31733, Note_on_c, 1, 48, 0
3, 31804, Note_on_c, 1, 34, 66
3, 31933, Note_on_c, 1, 34, 0
3, 31935, Note_on_c, 1, 46, 63
3, 31967, Note_on_c, 1, 46, 0
3, 32009, Note_on_c, 1, 34, 70
3, 32280, Note_on_c, 1, 46, 55
3, 32304, Note_on_c, 1, 46, 0
3, 32362, Note_on_c, 1, 46, 63
3, 32388, Note_on_c, 1, 46, 0
3, 32474, Note_on_c, 1, 46, 59
3, 32501, Note_on_c, 1, 46, 0
3, 32518, Note_on_c, 1, 46, 59
3, 32571, Note_on_c, 1, 46, 0
3, 32600, Note_on_c, 1, 38, 64
3, 32616, Note_on_c, 1, 34, 0
3, 32640, Note_on_c, 1, 38, 0
3, 32640, Note_on_c, 1, 39, 60
3, 32760, Note_on_c, 1, 39, 0
3, 32760, Note_on_c, 1, 46, 81
3, 32840, Note_on_c, 1, 46, 0
3, 32840, Note_on_c, 1, 39, 50
3, 32880, Note_on_c, 1, 39, 0
3, 32880, Note_on_c, 1, 44, 66
3, 33000, Note_on_c, 1, 44, 0
3, 33000, Note_on_c, 1, 51, 74
3, 33080, Note_on_c, 1, 51, 0
3, 33120, Note_on_c, 1, 50, 68
3, 33240, Note_on_c, 1, 50, 0
3, 33240, Note_on_c, 1, 43, 68
3, 33360, Note_on_c, 1, 43, 0
3, 33360, Note_on_c, 1, 48, 92
3, 33400, Note_on_c, 1, 48, 0
3, 33400, Note_on_c, 1, 43, 70
3, 33480, Note_on_c, 1, 43, 0
3, 33480, Note_on_c, 1, 36, 73
3, 33600, Note_on_c, 1, 36, 0
3, 33600, Note_on_c, 1, 41, 63
3, 33680, Note_on_c, 1, 39, 29
3, 33720, Note_on_c, 1, 39, 0
3, 33720, Note_on_c, 1, 53, 118
3, 33760, Note_on_c, 1, 41, 0
3, 33800, Note_on_c, 1, 39, 43
3, 33840, Note_on_c, 1, 39, 0
3, 33840, Note_on_c, 1, 53, 0
3, 33840, Note_on_c, 1, 47, 64
3, 33920, Note_on_c, 1, 47, 0
3, 33960, Note_on_c, 1, 47, 90
3, 34040, Note_on_c, 1, 47, 0
3, 34080, Note_on_c, 1, 46, 43
3, 34200, Note_on_c, 1, 46, 0
3, 34200, Note_on_c, 1, 46, 87
3, 34320, Note_on_c, 1, 46, 0
3, 34320, Note_on_c, 1, 40, 67
3, 34440, Note_on_c, 1, 40, 0
3, 34440, Note_on_c, 1, 46, 84
3, 34520, Note_on_c, 1, 46, 0
3, 34520, Note_on_c, 1, 40, 52
3, 34560, Note_on_c, 1, 40, 0
3, 34560, Note_on_c, 1, 45, 60
3, 34680, Note_on_c, 1, 45, 0
3, 34680, Note_on_c, 1, 33, 61
3, 34800, Note_on_c, 1, 33, 0
3, 34800, Note_on_c, 1, 38, 71
3, 34920, Note_on_c, 1, 38, 0
3, 34920, Note_on_c, 1, 44, 96
3, 35000, Note_on_c, 1, 38, 62
3, 35040, Note_on_c, 1, 38, 0
3, 35040, Note_on_c, 1, 44, 0
3, 35040, Note_on_c, 1, 43, 67
3, 35080, Note_on_c, 1, 43, 0
3, 35080, Note_on_c, 1, 38, 67
3, 35120, Note_on_c, 1, 38, 0
3, 35120, Note_on_c, 1, 37, 72
3, 35160, Note_on_c, 1, 37, 0
3, 35160, Note_on_c, 1, 36, 83
3, 35280, Note_on_c, 1, 36, 0
3, 35280, Note_on_c, 1, 48, 111
3, 35400, Note_on_c, 1, 48, 0
3, 35400, Note_on_c, 1, 40, 72
3, 35520, Note_on_c, 1, 40, 0
3, 35520, Note_on_c, 1, 41, 67
3, 35640, Note_on_c, 1, 41, 0
3, 35640, Note_on_c, 1, 41, 76
3, 35760, Note_on_c, 1, 41, 0
3, 35760, Note_on_c, 1, 43, 75
3, 35880, Note_on_c, 1, 43, 0
3, 35880, Note_on_c, 1, 43, 91
3, 36000, Note_on_c, 1, 44, 92
3, 36040, Note_on_c, 1, 43, 0
3, 36080, Note_on_c, 1, 44, 0
3, 36080, Note_on_c, 1, 33, 88
3, 36120, Note_on_c, 1, 33, 0
3, 36120, Note_on_c, 1, 33, 87
3, 36240, Note_on_c, 1, 33, 0
3, 36240, Note_on_c, 1, 34, 79
3, 36320, Note_on_c, 1, 34, 0
3, 36320, Note_on_c, 1, 34, 70
3, 36360, Note_on_c, 1, 34, 0
3, 36360, Note_on_c, 1, 46, 97
3, 36440, Note_on_c, 1, 46, 0
3, 36440, Note_on_c, 1, 38, 57
3, 36480, Note_on_c, 1, 38, 0
3, 36480, Note_on_c, 1, 39, 77
3, 36600, Note_on_c, 1, 39, 0
3, 36600, Note_on_c, 1, 51, 93
3, 36720, Note_on_c, 1, 51, 0
3, 36720, Note_on_c, 1, 44, 69
3, 36840, Note_on_c, 1, 44, 0
3, 36840, Note_on_c, 1, 44, 80
3, 36960, Note_on_c, 1, 44, 0
3, 36960, Note_on_c, 1, 43, 63
3, 37080, Note_on_c, 1, 43, 0
3, 37080, Note_on_c, 1, 36, 90
3, 37080, Note_on_c, 1, 35, 84
3, 37120, Note_on_c, 1, 35, 0
3, 37200, Note_on_c, 1, 36, 0
3, 37200, Note_on_c, 1, 48, 111
3, 37320, Note_on_c, 1, 48, 0
3, 37320, Note_on_c, 1, 40, 78
3, 37400, Note_on_c, 1, 39, 47
3, 37440, Note_on_c, 1, 39, 0
3, 37440, Note_on_c, 1, 40, 0
3, 37440, Note_on_c, 1, 41, 72
3, 37520, Note_on_c, 1, 36, 65
3, 37560, Note_on_c, 1, 36, 0
3, 37560, Note_on_c, 1, 41, 0
3, 37560, Note_on_c, 1, 29, 65
3, 37640, Note_on_c, 1, 35, 44
3, 37680, Note_on_c, 1, 35, 0
3, 37680, Note_on_c, 1, 29, 0
3, 37680, Note_on_c, 1, 47, 97
3, 37800, Note_on_c, 1, 47, 0
3, 37800, Note_on_c, 1, 35, 76
3, 37880, Note_on_c, 1, 35, 0
3, 37920, Note_on_c, 1, 34, 67
3, 38000, Note_on_c, 1, 41, 28
3, 38040, Note_on_c, 1, 41, 0
3, 38040, Note_on_c, 1, 46, 77
3, 38080, Note_on_c, 1, 34, 0
3, 38160, Note_on_c, 1, 46, 0
3, 38160, Note_on_c, 1, 45, 72
3, 38280, Note_on_c, 1, 45, 0
3, 38280, Note_on_c, 1, 33, 79
3, 38400, Note_on_c, 1, 33, 0
3, 38400, Note_on_c, 1, 32, 63
3, 38520, Note_on_c, 1, 32, 0
3, 38520, Note_on_c, 1, 32, 74
3, 38640, Note_on_c, 1, 32, 0
3, 38640, Note_on_c, 1, 33, 77
3, 38760, Note_on_c, 1, 33, 0
3, 38760, Note_on_c, 1, 38, 81
3, 38880, Note_on_c, 1, 38, 0
3, 38880, Note_on_c, 1, 43, 75
3, 39000, Note_on_c, 1, 43, 0
3, 39000, Note_on_c, 1, 43, 73
3, 39160, Note_on_c, 1, 43, 0
3, 39160, Note_on_c, 1, 48, 81
3, 39200, Note_on_c, 1, 48, 0
3, 39200, Note_on_c, 1, 43, 81
3, 39240, Note_on_c, 1, 43, 0
3, 39240, Note_on_c, 1, 36, 84
3, 39320, Note_on_c, 1, 36, 0
3, 39320, Note_on_c, 1, 40, 75
3, 39360, Note_on_c, 1, 40, 0
3, 39360, Note_on_c, 1, 41, 77
3, 39440, Note_on_c, 1, 41, 0
3, 39440, Note_on_c, 1, 36, 68
3, 39480, Note_on_c, 1, 36, 0
3, 39480, Note_on_c, 1, 29, 76
3, 39600, Note_on_c, 1, 29, 0
3, 39600, Note_on_c, 1, 34, 80
3, 39720, Note_on_c, 1, 34, 0
3, 39720, Note_on_c, 1, 46, 81
3, 39840, Note_on_c, 1, 46, 0
3, 39840, Note_on_c, 1, 37, 65
3, 39960, Note_on_c, 1, 37, 0
3, 39960, Note_on_c, 1, 37, 78
3, 40080, Note_on_c, 1, 37, 0
3, 40080, Note_on_c, 1, 36, 78
3, 40160, Note_on_c, 1, 43, 41
3, 40200, Note_on_c, 1, 43, 0
3, 40200, Note_on_c, 1, 36, 0
3, 40200, Note_on_c, 1, 46, 101
3, 40320, Note_on_c, 1, 46, 0
3, 40320, Note_on_c, 1, 45, 72
3, 40440, Note_on_c, 1, 45, 0
3, 40440, Note_on_c, 1, 39, 66
3, 40560, Note_on_c, 1, 39, 0
3, 40560, Note_on_c, 1, 44, 70
3, 40680, Note_on_c, 1, 39, 60
3, 40760, Note_on_c, 1, 44, 0
3, 40760, Note_on_c, 1, 37, 31
3, 40800, Note_on_c, 1, 37, 0
3, 40800, Note_on_c, 1, 39, 0
3, 40800, Note_on_c, 1, 43, 80
3, 40880, Note_on_c, 1, 43, 0
3, 40880, Note_on_c, 1, 38, 46
3, 40920, Note_on_c, 1, 38, 0
3, 40920, Note_on_c, 1, 35, 76
3, 41040, Note_on_c, 1, 35, 0
3, 41040, Note_on_c, 1, 36, 72
3, 41120, Note_on_c, 1, 34, 39
3, 41160, Note_on_c, 1, 34, 0
3, 41160, Note_on_c, 1, 36, 0
3, 41160, Note_on_c, 1, 42, 87
3, 41280, Note_on_c, 1, 42, 0
3, 41280, Note_on_c, 1, 41, 70
3, 41400, Note_on_c, 1, 41, 0
3, 41400, Note_on_c, 1, 29, 81
3, 41480, Note_on_c, 1, 34, 44
3, 41520, Note_on_c, 1, 34, 0
3, 41520, Note_on_c, 1, 29, 0
3, 41520, Note_on_c, 1, 46, 84
3, 41640, Note_on_c, 1, 46, 0
3, 41640, Note_on_c, 1, 34, 91
3, 41760, Note_on_c, 1, 34, 0
3, 41760, Note_on_c, 1, 46, 92
3, 41840, Note_on_c, 1, 46, 0
3, 41840, Note_on_c, 1, 48, 77
3, 41880, Note_on_c, 1, 48, 0
3, 41880, Note_on_c, 1, 46, 70
3, 41960, Note_on_c, 1, 34, 80
3, 42000, Note_on_c, 1, 34, 0
3, 42000, Note_on_c, 1, 46, 0
3, 42000, Note_on_c, 1, 34, 78
3, 42120, Note_on_c, 1, 34, 0
3, 42120, Note_on_c, 1, 46, 79
3, 42160, Note_on_c, 1, 46, 0
3, 42160, Note_on_c, 1, 37, 75
3, 42200, Note_on_c, 1, 37, 0
3, 42200, Note_on_c, 1, 38, 78
3, 42240, Note_on_c, 1, 38, 0
3, 42240, Note_on_c, 1, 39, 81
3, 42360, Note_on_c, 1, 39, 0
3, 42360, Note_on_c, 1, 46, 87
3, 42440, Note_on_c, 1, 38, 64
3, 42480, Note_on_c, 1, 38, 0
3, 42480, Note_on_c, 1, 46, 0
3, 42480, Note_on_c, 1, 44, 81
3, 42600, Note_on_c, 1, 44, 0
3, 42600, Note_on_c, 1, 44, 78
3, 42720, Note_on_c, 1, 44, 0
3, 42720, Note_on_c, 1, 43, 67
3, 42760, Note_on_c, 1, 43, 0
3, 42800, Note_on_c, 1, 38, 72
3, 42840, Note_on_c, 1, 38, 0
3, 42840, Note_on_c, 1, 35, 65
3, 42960, Note_on_c, 1, 35, 0
3, 42960, Note_on_c, 1, 36, 73
3, 43040, Note_on_c, 1, 48, 85
3, 43080, Note_on_c, 1, 48, 0
3, 43080, Note_on_c, 1, 36, 0
3, 43080, Note_on_c, 1, 43, 75
3, 43160, Note_on_c, 1, 43, 0
3, 43160, Note_on_c, 1, 36, 72
3, 43200, Note_on_c, 1, 36, 0
3, 43200, Note_on_c, 1, 41, 69
3, 43280, Note_on_c, 1, 41, 0
3, 43320, Note_on_c, 1, 41, 76
3, 43440, Note_on_c, 1, 41, 0
3, 43440, Note_on_c, 1, 35, 70
3, 43560, Note_on_c, 1, 35, 0
3, 43560, Note_on_c, 1, 47, 95
3, 43640, Note_on_c, 1, 35, 35
3, 43680, Note_on_c, 1, 35, 0
3, 43680, Note_on_c, 1, 47, 0
3, 43680, Note_on_c, 1, 46, 74
3, 43800, Note_on_c, 1, 46, 0
3, 43800, Note_on_c, 1, 34, 72
3, 43920, Note_on_c, 1, 34, 0
3, 43920, Note_on_c, 1, 46, 87
3, 44000, Note_on_c, 1, 46, 0
3, 44000, Note_on_c, 1, 34, 58
3, 44040, Note_on_c, 1, 34, 0
3, 44040, Note_on_c, 1, 44, 80
3, 44120, Note_on_c, 1, 44, 0
3, 44120, Note_on_c, 1, 34, 40
3, 44160, Note_on_c, 1, 34, 0
3, 44160, Note_on_c, 1, 45, 81
3, 44240, Note_on_c, 1, 45, 0
3, 44280, Note_on_c, 1, 39, 77
3, 44280, Note_on_c, 1, 44, 52
3, 44320, Note_on_c, 1, 44, 0
3, 44400, Note_on_c, 1, 39, 0
3, 44400, Note_on_c, 1, 38, 51
3, 44520, Note_on_c, 1, 38, 0
3, 44520, Note_on_c, 1, 45, 93
3, 44600, Note_on_c, 1, 45, 0
3, 44600, Note_on_c, 1, 42, 61
3, 44640, Note_on_c, 1, 42, 0
3, 44640, Note_on_c, 1, 43, 64
3, 44680, Note_on_c, 1, 43, 0
3, 44720, Note_on_c, 1, 38, 67
3, 44760, Note_on_c, 1, 38, 0
3, 44760, Note_on_c, 1, 34, 63
3, 44880, Note_on_c, 1, 34, 0
3, 44880, Note_on_c, 1, 36, 64
3, 45000, Note_on_c, 1, 36, 0
3, 45000, Note_on_c, 1, 48, 106
3, 45080, Note_on_c, 1, 36, 43
3, 45120, Note_on_c, 1, 36, 0
3, 45120, Note_on_c, 1, 48, 0
3, 45120, Note_on_c, 1, 41, 77
3, 45200, Note_on_c, 1, 41, 0
3, 45240, Note_on_c, 1, 41, 86
3, 45360, Note_on_c, 1, 41, 0
3, 45360, Note_on_c, 1, 43, 72
3, 45480, Note_on_c, 1, 43, 0
3, 45480, Note_on_c, 1, 43, 89
3, 45560, Note_on_c, 1, 43, 0
3, 45600, Note_on_c, 1, 44, 74
3, 45720, Note_on_c, 1, 44, 0
3, 45720, Note_on_c, 1, 44, 84
3, 45760, Note_on_c, 1, 44, 0
3, 45800, Note_on_c, 1, 45, 92
3, 45840, Note_on_c, 1, 45, 0
3, 45840, Note_on_c, 1, 46, 78
3, 45880, Note_on_c, 1, 46, 0
3, 45920, Note_on_c, 1, 41, 88
3, 45960, Note_on_c, 1, 41, 0
3, 45960, Note_on_c, 1, 34, 70
3, 46080, Note_on_c, 1, 34, 0
3, 46080, Note_on_c, 1, 39, 80
3, 46200, Note_on_c, 1, 39, 0
3, 46200, Note_on_c, 1, 39, 72
3, 46320, Note_on_c, 1, 39, 0
3, 46320, Note_on_c, 1, 32, 67
3, 46440, Note_on_c, 1, 32, 0
3, 46440, Note_on_c, 1, 48, 100
3, 46520, Note_on_c, 1, 48, 0
3, 46520, Note_on_c, 1, 32, 66
3, 46560, Note_on_c, 1, 32, 0
3, 46560, Note_on_c, 1, 43, 78
3, 46680, Note_on_c, 1, 43, 0
3, 46680, Note_on_c, 1, 46, 84
3, 46800, Note_on_c, 1, 46, 0
3, 46800, Note_on_c, 1, 48, 82
3, 46880, Note_on_c, 1, 48, 0
3, 46880, Note_on_c, 1, 43, 65
3, 46920, Note_on_c, 1, 43, 0
3, 46920, Note_on_c, 1, 36, 57
3, 46920, Note_on_c, 1, 35, 51
3, 46960, Note_on_c, 1, 35, 0
3, 47040, Note_on_c, 1, 36, 0
3, 47040, Note_on_c, 1, 41, 72
3, 47120, Note_on_c, 1, 41, 0
3, 47120, Note_on_c, 1, 36, 65
3, 47160, Note_on_c, 1, 36, 0
3, 47160, Note_on_c, 1, 29, 61
3, 47280, Note_on_c, 1, 29, 0
3, 47280, Note_on_c, 1, 35, 76
3, 47400, Note_on_c, 1, 47, 95
3, 47440, Note_on_c, 1, 35, 0
3, 47480, Note_on_c, 1, 35, 46
3, 47520, Note_on_c, 1, 35, 0
3, 47520, Note_on_c, 1, 47, 0
3, 47520, Note_on_c, 1, 46, 75
3, 47640, Note_on_c, 1, 46, 0
3, 47640, Note_on_c, 1, 34, 75
3, 47760, Note_on_c, 1, 34, 0
3, 47760, Note_on_c, 1, 33, 78
3, 47880, Note_on_c, 1, 45, 97
3, 47920, Note_on_c, 1, 33, 0
3, 48000, Note_on_c, 1, 45, 0
3, 48000, Note_on_c, 1, 44, 79
3, 48080, Note_on_c, 1, 39, 59
3, 48120, Note_on_c, 1, 39, 0
3, 48120, Note_on_c, 1, 44, 0
3, 48120, Note_on_c, 1, 32, 74
3, 48240, Note_on_c, 1, 32, 0
3, 48240, Note_on_c, 1, 45, 99
3, 48360, Note_on_c, 1, 38, 90
3, 48400, Note_on_c, 1, 45, 0
3, 48480, Note_on_c, 1, 38, 0
3, 48480, Note_on_c, 1, 43, 85
3, 48600, Note_on_c, 1, 43, 0
3, 48600, Note_on_c, 1, 37, 79
3, 48720, Note_on_c, 1, 37, 0
3, 48720, Note_on_c, 1, 36, 84
3, 48840, Note_on_c, 1, 36, 0
3, 48840, Note_on_c, 1, 48, 90
3, 48920, Note_on_c, 1, 48, 0
3, 48920, Note_on_c, 1, 36, 64
3, 48960, Note_on_c, 1, 36, 0
3, 48960, Note_on_c, 1, 41, 79
3, 49080, Note_on_c, 1, 41, 0
3, 49080, Note_on_c, 1, 33, 81
3, 49200, Note_on_c, 1, 33, 0
3, 49200, Note_on_c, 1, 34, 81
3, 49320, Note_on_c, 1, 46, 83
3, 49360, Note_on_c, 1, 34, 0
3, 49400, Note_on_c, 1, 34, 45
3, 49440, Note_on_c, 1, 34, 0
3, 49440, Note_on_c, 1, 46, 0
3, 49440, Note_on_c, 1, 49, 84
3, 49560, Note_on_c, 1, 49, 0
3, 49560, Note_on_c, 1, 43, 68
3, 49640, Note_on_c, 1, 36, 37
3, 49680, Note_on_c, 1, 36, 0
3, 49680, Note_on_c, 1, 43, 0
3, 49680, Note_on_c, 1, 48, 81
3, 49800, Note_on_c, 1, 48, 0
3, 49800, Note_on_c, 1, 46, 80
3, 49920, Note_on_c, 1, 46, 0
3, 49920, Note_on_c, 1, 45, 70
3, 50040, Note_on_c, 1, 45, 0
3, 50040, Note_on_c, 1, 33, 72
3, 50160, Note_on_c, 1, 33, 0
3, 50160, Note_on_c, 1, 32, 83
3, 50280, Note_on_c, 1, 32, 0
3, 50280, Note_on_c, 1, 44, 93
3, 50360, Note_on_c, 1, 32, 68
3, 50400, Note_on_c, 1, 32, 0
3, 50400, Note_on_c, 1, 44, 0
3, 50400, Note_on_c, 1, 43, 85
3, 50520, Note_on_c, 1, 43, 0
3, 50520, Note_on_c, 1, 37, 66
3, 50640, Note_on_c, 1, 37, 0
3, 50640, Note_on_c, 1, 36, 75
3, 50760, Note_on_c, 1, 36, 0
3, 50760, Note_on_c, 1, 48, 89
3, 50840, Note_on_c, 1, 48, 0
3, 50840, Note_on_c, 1, 36, 63
3, 50880, Note_on_c, 1, 36, 0
3, 50880, Note_on_c, 1, 41, 72
3, 51000, Note_on_c, 1, 41, 0
3, 51000, Note_on_c, 1, 47, 78
3, 51120, Note_on_c, 1, 47, 0
3, 51120, Note_on_c, 1, 46, 75
3, 51240, Note_on_c, 1, 46, 0
3, 51240, Note_on_c, 1, 34, 69
3, 51360, Note_on_c, 1, 34, 0
3, 51360, Note_on_c, 1, 39, 86
3, 51600, Note_on_c, 1, 39, 0
3, 51600, Note_on_c, 1, 34, 69
3, 51840, Note_on_c, 1, 34, 0
3, 51840, Note_on_c, 1, 40, 74
3, 52320, Note_on_c, 1, 39, 69
3, 52360, Note_on_c, 1, 40, 0
3, 53280, Note_on_c, 1, 39, 0
3, 53280, End_track
4, 0, Start_track
4, 0, MIDI_port, 0
4, 0, Title_t, "Standard Kit"
4, 22440, Note_on_c, 9, 36, 1
4, 22440, Note_on_c, 9, 36, 0
4, 22560, Note_on_c, 9, 36, 1
4, 22560, Note_on_c, 9, 36, 0
4, 23040, Note_on_c, 9, 53, 25
4, 23160, Note_on_c, 9, 53, 0
4, 23243, Note_on_c, 9, 59, 43
4, 23255, Note_on_c, 9, 59, 0
4, 23280, Note_on_c, 9, 59, 40
4, 23298, Note_on_c, 9, 59, 0
4, 23400, Note_on_c, 9, 44, 71
4, 23487, Note_on_c, 9, 59, 32
4, 23503, Note_on_c, 9, 59, 0
4, 23520, Note_on_c, 9, 44, 0
4, 23529, Note_on_c, 9, 59, 31
4, 23555, Note_on_c, 9, 59, 0
4, 23614, Note_on_c, 9, 35, 42
4, 23624, Note_on_c, 9, 35, 0
4, 23640, Note_on_c, 9, 44, 69
4, 23726, Note_on_c, 9, 59, 68
4, 23734, Note_on_c, 9, 59, 0
4, 23760, Note_on_c, 9, 44, 0
4, 23779, Note_on_c, 9, 35, 33
4, 23791, Note_on_c, 9, 35, 0
4, 23880, Note_on_c, 9, 46, 54
4, 23977, Note_on_c, 9, 59, 36
4, 23977, Note_on_c, 9, 35, 49
4, 23985, Note_on_c, 9, 35, 0
4, 23995, Note_on_c, 9, 59, 0
4, 24000, Note_on_c, 9, 46, 0
4, 24017, Note_on_c, 9, 59, 33
4, 24030, Note_on_c, 9, 35, 9
4, 24049, Note_on_c, 9, 35, 0
4, 24056, Note_on_c, 9, 59, 0
4, 24120, Note_on_c, 9, 44, 61
4, 24220, Note_on_c, 9, 59, 34
4, 24238, Note_on_c, 9, 59, 0
4, 24240, Note_on_c, 9, 44, 0
4, 24257, Note_on_c, 9, 59, 28
4, 24292, Note_on_c, 9, 59, 0
4, 24360, Note_on_c, 9, 44, 57
4, 24372, Note_on_c, 9, 37, 28
4, 24411, Note_on_c, 9, 37, 0
4, 24458, Note_on_c, 9, 59, 43
4, 24475, Note_on_c, 9, 59, 0
4, 24480, Note_on_c, 9, 44, 0
4, 24496, Note_on_c, 9, 59, 42
4, 24527, Note_on_c, 9, 59, 0
4, 24600, Note_on_c, 9, 44, 56
4, 24617, Note_on_c, 9, 59, 66
4, 24640, Note_on_c, 9, 59, 0
4, 24720, Note_on_c, 9, 44, 0
4, 24817, Note_on_c, 9, 59, 33
4, 24832, Note_on_c, 9, 59, 0
4, 24840, Note_on_c, 9, 46, 48
4, 24861, Note_on_c, 9, 59, 43
4, 24929, Note_on_c, 9, 59, 0
4, 24960, Note_on_c, 9, 46, 0
4, 24977, Note_on_c, 9, 59, 62
4, 25022, Note_on_c, 9, 59, 0
4, 25080, Note_on_c, 9, 44, 57
4, 25095, Note_on_c, 9, 59, 60
4, 25132, Note_on_c, 9, 59, 0
4, 25179, Note_on_c, 9, 59, 41
4, 25188, Note_on_c, 9, 59, 0
4, 25200, Note_on_c, 9, 44, 0
4, 25213, Note_on_c, 9, 59, 29
4, 25247, Note_on_c, 9, 59, 0
4, 25320, Note_on_c, 9, 44, 56
4, 25326, Note_on_c, 9, 59, 67
4, 25393, Note_on_c, 9, 59, 0
4, 25440, Note_on_c, 9, 44, 0
4, 25526, Note_on_c, 9, 59, 36
4, 25540, Note_on_c, 9, 59, 0
4, 25560, Note_on_c, 9, 44, 56
4, 25563, Note_on_c, 9, 59, 50
4, 25630, Note_on_c, 9, 59, 0
4, 25680, Note_on_c, 9, 44, 0
4, 25687, Note_on_c, 9, 59, 53
4, 25743, Note_on_c, 9, 59, 0
4, 25800, Note_on_c, 9, 44, 60
4, 25804, Note_on_c, 9, 59, 57
4, 25854, Note_on_c, 9, 59, 0
4, 25889, Note_on_c, 9, 35, 31
4, 25897, Note_on_c, 9, 59, 25
4, 25902, Note_on_c, 9, 35, 0
4, 25908, Note_on_c, 9, 59, 0
4, 25920, Note_on_c, 9, 44, 0
4, 25927, Note_on_c, 9, 59, 52
4, 25990, Note_on_c, 9, 59, 0
4, 26040, Note_on_c, 9, 44, 57
4, 26047, Note_on_c, 9, 59, 61
4, 26095, Note_on_c, 9, 59, 0
4, 26132, Note_on_c, 9, 59, 29
4, 26144, Note_on_c, 9, 59, 0
4, 26160, Note_on_c, 9, 44, 0
4, 26163, Note_on_c, 9, 59, 53
4, 26230, Note_on_c, 9, 59, 0
4, 26254, Note_on_c, 9, 35, 16
4, 26265, Note_on_c, 9, 35, 0
4, 26284, Note_on_c, 9, 35, 18
4, 26288, Note_on_c, 9, 59, 65
4, 26354, Note_on_c, 9, 35, 0
4, 26356, Note_on_c, 9, 59, 0
4, 26375, Note_on_c, 9, 35, 38
4, 26395, Note_on_c, 9, 35, 0
4, 26395, Note_on_c, 9, 59, 46
4, 26407, Note_on_c, 9, 59, 0
4, 26422, Note_on_c, 9, 59, 56
4, 26490, Note_on_c, 9, 59, 0
4, 26527, Note_on_c, 9, 59, 61
4, 26612, Note_on_c, 9, 59, 0
4, 26643, Note_on_c, 9, 59, 46
4, 26673, Note_on_c, 9, 59, 0
4, 26732, Note_on_c, 9, 37, 17
4, 26753, Note_on_c, 9, 37, 0
4, 26769, Note_on_c, 9, 59, 59
4, 26830, Note_on_c, 9, 37, 27
4, 26834, Note_on_c, 9, 59, 0
4, 26846, Note_on_c, 9, 37, 0
4, 26862, Note_on_c, 9, 37, 50
4, 26888, Note_on_c, 9, 37, 0
4, 26894, Note_on_c, 9, 59, 47
4, 26899, Note_on_c, 9, 35, 25
4, 26900, Note_on_c, 9, 57, 27
4, 26903, Note_on_c, 9, 59, 0
4, 26914, Note_on_c, 9, 57, 0
4, 26925, Note_on_c, 9, 59, 63
4, 26927, Note_on_c, 9, 35, 0
4, 26987, Note_on_c, 9, 59, 0
4, 27000, Note_on_c, 9, 44, 78
4, 27021, Note_on_c, 9, 59, 61
4, 27084, Note_on_c, 9, 59, 0
4, 27120, Note_on_c, 9, 44, 0
4, 27136, Note_on_c, 9, 59, 56
4, 27194, Note_on_c, 9, 59, 0
4, 27240, Note_on_c, 9, 44, 71
4, 27255, Note_on_c, 9, 59, 68
4, 27302, Note_on_c, 9, 59, 0
4, 27327, Note_on_c, 9, 35, 29
4, 27334, Note_on_c, 9, 59, 27
4, 27339, Note_on_c, 9, 35, 0
4, 27348, Note_on_c, 9, 59, 0
4, 27360, Note_on_c, 9, 44, 0
4, 27369, Note_on_c, 9, 35, 21
4, 27370, Note_on_c, 9, 59, 49
4, 27427, Note_on_c, 9, 35, 0
4, 27430, Note_on_c, 9, 59, 0
4, 27480, Note_on_c, 9, 44, 69
4, 27484, Note_on_c, 9, 59, 65
4, 27538, Note_on_c, 9, 59, 0
4, 27563, Note_on_c, 9, 35, 31
4, 27573, Note_on_c, 9, 59, 35
4, 27574, Note_on_c, 9, 35, 0
4, 27587, Note_on_c, 9, 59, 0
4, 27600, Note_on_c, 9, 44, 0
4, 27606, Note_on_c, 9, 59, 47
4, 27664, Note_on_c, 9, 59, 0
4, 27720, Note_on_c, 9, 46, 54
4, 27721, Note_on_c, 9, 59, 64
4, 27756, Note_on_c, 9, 59, 0
4, 27810, Note_on_c, 9, 59, 38
4, 27821, Note_on_c, 9, 59, 0
4, 27840, Note_on_c, 9, 46, 0
4, 27845, Note_on_c, 9, 59, 48
4, 27899, Note_on_c, 9, 59, 0
4, 27936, Note_on_c, 9, 35, 9
4, 27946, Note_on_c, 9, 35, 0
4, 27960, Note_on_c, 9, 44, 61
4, 27968, Note_on_c, 9, 59, 61
4, 28005, Note_on_c, 9, 59, 0
4, 28055, Note_on_c, 9, 59, 35
4, 28065, Note_on_c, 9, 59, 0
4, 28080, Note_on_c, 9, 44, 0
4, 28087, Note_on_c, 9, 59, 52
4, 28147, Note_on_c, 9, 59, 0
4, 28200, Note_on_c, 9, 44, 57
4, 28206, Note_on_c, 9, 59, 64
4, 28234, Note_on_c, 9, 59, 0
4, 28320, Note_on_c, 9, 44, 0
4, 28403, Note_on_c, 9, 59, 41
4, 28413, Note_on_c, 9, 59, 0
4, 28440, Note_on_c, 9, 44, 56
4, 28442, Note_on_c, 9, 59, 49
4, 28498, Note_on_c, 9, 59, 0
4, 28559, Note_on_c, 9, 59, 62
4, 28560, Note_on_c, 9, 44, 0
4, 28602, Note_on_c, 9, 59, 0
4, 28678, Note_on_c, 9, 59, 65
4, 28680, Note_on_c, 9, 46, 48
4, 28705, Note_on_c, 9, 40, 22
4, 28710, Note_on_c, 9, 59, 0
4, 28730, Note_on_c, 9, 40, 0
4, 28749, Note_on_c, 9, 40, 9
4, 28764, Note_on_c, 9, 40, 0
4, 28769, Note_on_c, 9, 59, 28
4, 28779, Note_on_c, 9, 59, 0
4, 28797, Note_on_c, 9, 59, 51
4, 28800, Note_on_c, 9, 46, 0
4, 28851, Note_on_c, 9, 59, 0
4, 28918, Note_on_c, 9, 59, 54
4, 28920, Note_on_c, 9, 44, 57
4, 28937, Note_on_c, 9, 59, 0
4, 28954, Note_on_c, 9, 59, 43
4, 28970, Note_on_c, 9, 59, 0
4, 28992, Note_on_c, 9, 35, 29
4, 29004, Note_on_c, 9, 35, 0
4, 29038, Note_on_c, 9, 59, 53
4, 29040, Note_on_c, 9, 44, 0
4, 29052, Note_on_c, 9, 59, 0
4, 29072, Note_on_c, 9, 59, 50
4, 29085, Note_on_c, 9, 59, 0
4, 29160, Note_on_c, 9, 44, 56
4, 29161, Note_on_c, 9, 59, 66
4, 29218, Note_on_c, 9, 59, 0
4, 29280, Note_on_c, 9, 44, 0
4, 29280, Note_on_c, 9, 59, 65
4, 29306, Note_on_c, 9, 59, 0
4, 29400, Note_on_c, 9, 44, 56
4, 29400, Note_on_c, 9, 59, 63
4, 29422, Note_on_c, 9, 59, 0
4, 29491, Note_on_c, 9, 59, 37
4, 29501, Note_on_c, 9, 59, 0
4, 29520, Note_on_c, 9, 44, 0
4, 29530, Note_on_c, 9, 59, 29
4, 29536, Note_on_c, 9, 57, 19
4, 29546, Note_on_c, 9, 57, 0
4, 29555, Note_on_c, 9, 59, 0
4, 29557, Note_on_c, 9, 40, 20
4, 29571, Note_on_c, 9, 40, 0
4, 29640, Note_on_c, 9, 44, 60
4, 29642, Note_on_c, 9, 40, 42
4, 29646, Note_on_c, 9, 59, 66
4, 29652, Note_on_c, 9, 40, 0
4, 29678, Note_on_c, 9, 59, 0
4, 29729, Note_on_c, 9, 40, 43
4, 29735, Note_on_c, 9, 59, 37
4, 29747, Note_on_c, 9, 40, 0
4, 29748, Note_on_c, 9, 59, 0
4, 29760, Note_on_c, 9, 44, 0
4, 29773, Note_on_c, 9, 59, 51
4, 29808, Note_on_c, 9, 59, 0
4, 29808, Note_on_c, 9, 40, 34
4, 29825, Note_on_c, 9, 40, 0
4, 29859, Note_on_c, 9, 35, 38
4, 29880, Note_on_c, 9, 44, 57
4, 29882, Note_on_c, 9, 35, 0
4, 29895, Note_on_c, 9, 59, 47
4, 29902, Note_on_c, 9, 57, 16
4, 29903, Note_on_c, 9, 40, 42
4, 29911, Note_on_c, 9, 57, 0
4, 29913, Note_on_c, 9, 40, 0
4, 29918, Note_on_c, 9, 59, 0
4, 29976, Note_on_c, 9, 35, 43
4, 29977, Note_on_c, 9, 59, 32
4, 29990, Note_on_c, 9, 59, 0
4, 30000, Note_on_c, 9, 44, 0
4, 30003, Note_on_c, 9, 35, 0
4, 30011, Note_on_c, 9, 59, 51
4, 30065, Note_on_c, 9, 59, 0
4, 30120, Note_on_c, 9, 44, 60
4, 30126, Note_on_c, 9, 59, 55
4, 30168, Note_on_c, 9, 59, 0
4, 30204, Note_on_c, 9, 35, 30
4, 30207, Note_on_c, 9, 59, 41
4, 30218, Note_on_c, 9, 59, 0
4, 30220, Note_on_c, 9, 35, 0
4, 30240, Note_on_c, 9, 44, 0
4, 30242, Note_on_c, 9, 59, 49
4, 30246, Note_on_c, 9, 35, 29
4, 30300, Note_on_c, 9, 35, 0
4, 30302, Note_on_c, 9, 59, 0
4, 30360, Note_on_c, 9, 44, 59
4, 30363, Note_on_c, 9, 59, 65
4, 30410, Note_on_c, 9, 59, 0
4, 30444, Note_on_c, 9, 35, 45
4, 30453, Note_on_c, 9, 35, 0
4, 30480, Note_on_c, 9, 44, 0
4, 30481, Note_on_c, 9, 59, 62
4, 30523, Note_on_c, 9, 59, 0
4, 30571, Note_on_c, 9, 59, 40
4, 30580, Note_on_c, 9, 59, 0
4, 30600, Note_on_c, 9, 44, 59
4, 30608, Note_on_c, 9, 59, 50
4, 30676, Note_on_c, 9, 59, 0
4, 30720, Note_on_c, 9, 44, 0
4, 30725, Note_on_c, 9, 59, 60
4, 30769, Note_on_c, 9, 59, 0
4, 30813, Note_on_c, 9, 40, 30
4, 30825, Note_on_c, 9, 40, 0
4, 30840, Note_on_c, 9, 44, 59
4, 30848, Note_on_c, 9, 59, 53
4, 30866, Note_on_c, 9, 35, 9
4, 30893, Note_on_c, 9, 35, 0
4, 30910, Note_on_c, 9, 59, 0
4, 30960, Note_on_c, 9, 44, 0
4, 30972, Note_on_c, 9, 59, 52
4, 31036, Note_on_c, 9, 59, 0
4, 31055, Note_on_c, 9, 53, 63
4, 31064, Note_on_c, 9, 53, 0
4, 31080, Note_on_c, 9, 44, 59
4, 31094, Note_on_c, 9, 59, 22
4, 31153, Note_on_c, 9, 59, 0
4, 31170, Note_on_c, 9, 59, 36
4, 31183, Note_on_c, 9, 59, 0
4, 31200, Note_on_c, 9, 44, 0
4, 31206, Note_on_c, 9, 59, 47
4, 31267, Note_on_c, 9, 59, 0
4, 31320, Note_on_c, 9, 44, 58
4, 31323, Note_on_c, 9, 59, 57
4, 31365, Note_on_c, 9, 59, 0
4, 31414, Note_on_c, 9, 59, 25
4, 31425, Note_on_c, 9, 59, 0
4, 31440, Note_on_c, 9, 44, 0
4, 31442, Note_on_c, 9, 59, 50
4, 31507, Note_on_c, 9, 59, 0
4, 31560, Note_on_c, 9, 44, 57
4, 31561, Note_on_c, 9, 59, 58
4, 31617, Note_on_c, 9, 59, 0
4, 31617, Note_on_c, 9, 35, 26
4, 31629, Note_on_c, 9, 35, 0
4, 31650, Note_on_c, 9, 35, 31
4, 31651, Note_on_c, 9, 59, 33
4, 31662, Note_on_c, 9, 35, 0
4, 31664, Note_on_c, 9, 59, 0
4, 31680, Note_on_c, 9, 44, 0
4, 31685, Note_on_c, 9, 59, 54
4, 31690, Note_on_c, 9, 35, 33
4, 31733, Note_on_c, 9, 35, 0
4, 31754, Note_on_c, 9, 59, 0
4, 31800, Note_on_c, 9, 44, 47
4, 31808, Note_on_c, 9, 59, 66
4, 31869, Note_on_c, 9, 59, 0
4, 31899, Note_on_c, 9, 35, 33
4, 31900, Note_on_c, 9, 59, 21
4, 31911, Note_on_c, 9, 59, 0
4, 31915, Note_on_c, 9, 35, 0
4, 31920, Note_on_c, 9, 44, 0
4, 31930, Note_on_c, 9, 59, 47
4, 31999, Note_on_c, 9, 59, 0
4, 32040, Note_on_c, 9, 44, 71
4, 32056, Note_on_c, 9, 59, 65
4, 32110, Note_on_c, 9, 59, 0
4, 32139, Note_on_c, 9, 59, 26
4, 32151, Note_on_c, 9, 59, 0
4, 32160, Note_on_c, 9, 44, 0
4, 32170, Note_on_c, 9, 59, 56
4, 32237, Note_on_c, 9, 59, 0
4, 32254, Note_on_c, 9, 35, 45
4, 32266, Note_on_c, 9, 35, 0
4, 32280, Note_on_c, 9, 44, 69
4, 32287, Note_on_c, 9, 59, 68
4, 32340, Note_on_c, 9, 59, 0
4, 32373, Note_on_c, 9, 59, 37
4, 32378, Note_on_c, 9, 35, 42
4, 32385, Note_on_c, 9, 59, 0
4, 32398, Note_on_c, 9, 35, 0
4, 32400, Note_on_c, 9, 44, 0
4, 32407, Note_on_c, 9, 59, 45
4, 32468, Note_on_c, 9, 59, 0
4, 32490, Note_on_c, 9, 35, 54
4, 32511, Note_on_c, 9, 35, 0
4, 32519, Note_on_c, 9, 59, 68
4, 32520, Note_on_c, 9, 46, 54
4, 32536, Note_on_c, 9, 59, 0
4, 32603, Note_on_c, 9, 51, 62
4, 32615, Note_on_c, 9, 34, 53
4, 32618, Note_on_c, 9, 51, 0
4, 32638, Note_on_c, 9, 34, 0
4, 32638, Note_on_c, 9, 51, 62
4, 32640, Note_on_c, 9, 46, 0
4, 32656, Note_on_c, 9, 57, 40
4, 32657, Note_on_c, 9, 35, 42
4, 32664, Note_on_c, 9, 57, 0
4, 32680, Note_on_c, 9, 35, 0
4, 32712, Note_on_c, 9, 51, 0
4, 32757, Note_on_c, 9, 51, 68
4, 32760, Note_on_c, 9, 44, 61
4, 32823, Note_on_c, 9, 51, 0
4, 32880, Note_on_c, 9, 44, 0
4, 32882, Note_on_c, 9, 51, 68
4, 32931, Note_on_c, 9, 35, 47
4, 32934, Note_on_c, 9, 51, 0
4, 32942, Note_on_c, 9, 35, 0
4, 32971, Note_on_c, 9, 34, 48
4, 32993, Note_on_c, 9, 34, 0
4, 33000, Note_on_c, 9, 44, 57
4, 33003, Note_on_c, 9, 51, 66
4, 33007, Note_on_c, 9, 35, 65
4, 33008, Note_on_c, 9, 57, 55
4, 33026, Note_on_c, 9, 57, 0
4, 33052, Note_on_c, 9, 51, 0
4, 33076, Note_on_c, 9, 35, 0
4, 33092, Note_on_c, 9, 51, 46
4, 33105, Note_on_c, 9, 51, 0
4, 33120, Note_on_c, 9, 44, 0
4, 33124, Note_on_c, 9, 51, 57
4, 33192, Note_on_c, 9, 51, 0
4, 33240, Note_on_c, 9, 44, 56
4, 33243, Note_on_c, 9, 51, 67
4, 33292, Note_on_c, 9, 51, 0
4, 33321, Note_on_c, 9, 35, 36
4, 33331, Note_on_c, 9, 35, 0
4, 33332, Note_on_c, 9, 51, 27
4, 33342, Note_on_c, 9, 51, 0
4, 33360, Note_on_c, 9, 44, 0
4, 33361, Note_on_c, 9, 51, 52
4, 33367, Note_on_c, 9, 35, 19
4, 33418, Note_on_c, 9, 35, 0
4, 33429, Note_on_c, 9, 51, 0
4, 33449, Note_on_c, 9, 35, 21
4, 33464, Note_on_c, 9, 35, 0
4, 33479, Note_on_c, 9, 51, 66
4, 33480, Note_on_c, 9, 46, 48
4, 33525, Note_on_c, 9, 51, 0
4, 33566, Note_on_c, 9, 51, 39
4, 33581, Note_on_c, 9, 51, 0
4, 33599, Note_on_c, 9, 51, 52
4, 33600, Note_on_c, 9, 46, 0
4, 33657, Note_on_c, 9, 51, 0
4, 33715, Note_on_c, 9, 51, 68
4, 33720, Note_on_c, 9, 44, 57
4, 33756, Note_on_c, 9, 51, 0
4, 33806, Note_on_c, 9, 51, 38
4, 33819, Note_on_c, 9, 51, 0
4, 33839, Note_on_c, 9, 51, 49
4, 33840, Note_on_c, 9, 44, 0
4, 33912, Note_on_c, 9, 51, 0
4, 33957, Note_on_c, 9, 51, 64
4, 33960, Note_on_c, 9, 44, 56
4, 34018, Note_on_c, 9, 51, 0
4, 34078, Note_on_c, 9, 51, 59
4, 34080, Note_on_c, 9, 44, 0
4, 34140, Note_on_c, 9, 51, 0
4, 34163, Note_on_c, 9, 53, 70
4, 34182, Note_on_c, 9, 53, 0
4, 34200, Note_on_c, 9, 44, 56
4, 34205, Note_on_c, 9, 51, 14
4, 34290, Note_on_c, 9, 51, 0
4, 34320, Note_on_c, 9, 44, 0
4, 34323, Note_on_c, 9, 51, 47
4, 34392, Note_on_c, 9, 51, 0
4, 34440, Note_on_c, 9, 44, 60
4, 34443, Note_on_c, 9, 51, 60
4, 34492, Note_on_c, 9, 51, 0
4, 34531, Note_on_c, 9, 35, 21
4, 34533, Note_on_c, 9, 51, 56
4, 34542, Note_on_c, 9, 35, 0
4, 34550, Note_on_c, 9, 51, 0
4, 34560, Note_on_c, 9, 44, 0
4, 34568, Note_on_c, 9, 51, 42
4, 34590, Note_on_c, 9, 51, 0
4, 34642, Note_on_c, 9, 51, 62
4, 34674, Note_on_c, 9, 51, 0
4, 34680, Note_on_c, 9, 44, 57
4, 34688, Note_on_c, 9, 47, 17
4, 34700, Note_on_c, 9, 47, 0
4, 34724, Note_on_c, 9, 51, 69
4, 34756, Note_on_c, 9, 51, 0
4, 34758, Note_on_c, 9, 47, 42
4, 34770, Note_on_c, 9, 47, 0
4, 34800, Note_on_c, 9, 44, 0
4, 34810, Note_on_c, 9, 51, 73
4, 34850, Note_on_c, 9, 51, 0
4, 34894, Note_on_c, 9, 51, 64
4, 34920, Note_on_c, 9, 46, 54
4, 34921, Note_on_c, 9, 37, 67
4, 34939, Note_on_c, 9, 51, 0
4, 34955, Note_on_c, 9, 37, 0
4, 34980, Note_on_c, 9, 51, 48
4, 34995, Note_on_c, 9, 51, 0
4, 35013, Note_on_c, 9, 51, 44
4, 35029, Note_on_c, 9, 51, 0
4, 35040, Note_on_c, 9, 46, 0
4, 35047, Note_on_c, 9, 51, 52
4, 35109, Note_on_c, 9, 51, 0
4, 35120, Note_on_c, 9, 37, 23
4, 35129, Note_on_c, 9, 37, 0
4, 35158, Note_on_c, 9, 51, 66
4, 35160, Note_on_c, 9, 44, 61
4, 35168, Note_on_c, 9, 47, 19
4, 35204, Note_on_c, 9, 51, 0
4, 35219, Note_on_c, 9, 47, 0
4, 35246, Note_on_c, 9, 47, 47
4, 35248, Note_on_c, 9, 51, 28
4, 35261, Note_on_c, 9, 51, 0
4, 35268, Note_on_c, 9, 47, 0
4, 35279, Note_on_c, 9, 51, 50
4, 35280, Note_on_c, 9, 44, 0
4, 35351, Note_on_c, 9, 51, 0
4, 35371, Note_on_c, 9, 34, 18
4, 35385, Note_on_c, 9, 34, 0
4, 35397, Note_on_c, 9, 51, 66
4, 35400, Note_on_c, 9, 44, 57
4, 35408, Note_on_c, 9, 37, 62
4, 35441, Note_on_c, 9, 51, 0
4, 35467, Note_on_c, 9, 37, 0
4, 35484, Note_on_c, 9, 51, 33
4, 35497, Note_on_c, 9, 51, 0
4, 35515, Note_on_c, 9, 51, 49
4, 35520, Note_on_c, 9, 44, 0
4, 35578, Note_on_c, 9, 51, 0
4, 35633, Note_on_c, 9, 51, 61
4, 35638, Note_on_c, 9, 47, 15
4, 35640, Note_on_c, 9, 44, 56
4, 35651, Note_on_c, 9, 47, 0
4, 35692, Note_on_c, 9, 51, 0
4, 35720, Note_on_c, 9, 53, 75
4, 35721, Note_on_c, 9, 47, 47
4, 35731, Note_on_c, 9, 47, 0
4, 35745, Note_on_c, 9, 53, 0
4, 35760, Note_on_c, 9, 44, 0
4, 35761, Note_on_c, 9, 51, 48
4, 35830, Note_on_c, 9, 51, 0
4, 35876, Note_on_c, 9, 51, 55
4, 35880, Note_on_c, 9, 46, 48
4, 35887, Note_on_c, 9, 37, 66
4, 35920, Note_on_c, 9, 37, 0
4, 35941, Note_on_c, 9, 51, 0
4, 36000, Note_on_c, 9, 46, 0
4, 36000, Note_on_c, 9, 51, 59
4, 36038, Note_on_c, 9, 51, 0
4, 36089, Note_on_c, 9, 51, 37
4, 36103, Note_on_c, 9, 51, 0
4, 36120, Note_on_c, 9, 44, 57
4, 36121, Note_on_c, 9, 51, 49
4, 36184, Note_on_c, 9, 51, 0
4, 36204, Note_on_c, 9, 47, 31
4, 36214, Note_on_c, 9, 47, 0
4, 36236, Note_on_c, 9, 51, 54
4, 36240, Note_on_c, 9, 44, 0
4, 36253, Note_on_c, 9, 51, 0
4, 36267, Note_on_c, 9, 51, 59
4, 36288, Note_on_c, 9, 51, 0
4, 36323, Note_on_c, 9, 34, 10
4, 36332, Note_on_c, 9, 34, 0
4, 36357, Note_on_c, 9, 48, 61
4, 36357, Note_on_c, 9, 37, 44
4, 36360, Note_on_c, 9, 44, 56
4, 36366, Note_on_c, 9, 51, 62
4, 36368, Note_on_c, 9, 48, 0
4, 36376, Note_on_c, 9, 37, 0
4, 36385, Note_on_c, 9, 51, 0
4, 36398, Note_on_c, 9, 51, 52
4, 36415, Note_on_c, 9, 51, 0
4, 36480, Note_on_c, 9, 44, 0
4, 36483, Note_on_c, 9, 51, 62
4, 36529, Note_on_c, 9, 51, 0
4, 36598, Note_on_c, 9, 51, 59
4, 36600, Note_on_c, 9, 44, 56
4, 36604, Note_on_c, 9, 47, 21
4, 36614, Note_on_c, 9, 47, 0
4, 36630, Note_on_c, 9, 51, 0
4, 36684, Note_on_c, 9, 47, 57
4, 36685, Note_on_c, 9, 51, 35
4, 36693, Note_on_c, 9, 47, 0
4, 36696, Note_on_c, 9, 51, 0
4, 36719, Note_on_c, 9, 51, 50
4, 36720, Note_on_c, 9, 44, 0
4, 36782, Note_on_c, 9, 51, 0
4, 36840, Note_on_c, 9, 44, 71
4, 36846, Note_on_c, 9, 51, 53
4, 36848, Note_on_c, 9, 37, 67
4, 36864, Note_on_c, 9, 51, 0
4, 36874, Note_on_c, 9, 37, 0
4, 36877, Note_on_c, 9, 51, 52
4, 36893, Note_on_c, 9, 51, 0
4, 36908, Note_on_c, 9, 51, 47
4, 36929, Note_on_c, 9, 51, 0
4, 36942, Note_on_c, 9, 51, 46
4, 36958, Note_on_c, 9, 51, 0
4, 36960, Note_on_c, 9, 44, 0
4, 36973, Note_on_c, 9, 51, 63
4, 37002, Note_on_c, 9, 51, 0
4, 37080, Note_on_c, 9, 44, 69
4, 37081, Note_on_c, 9, 51, 68
4, 37084, Note_on_c, 9, 47, 31
4, 37095, Note_on_c, 9, 47, 0
4, 37140, Note_on_c, 9, 51, 0
4, 37169, Note_on_c, 9, 47, 63
4, 37187, Note_on_c, 9, 47, 0
4, 37200, Note_on_c, 9, 44, 0
4, 37203, Note_on_c, 9, 51, 56
4, 37217, Note_on_c, 9, 51, 0
4, 37233, Note_on_c, 9, 51, 56
4, 37253, Note_on_c, 9, 51, 0
4, 37320, Note_on_c, 9, 46, 54
4, 37323, Note_on_c, 9, 51, 67
4, 37326, Note_on_c, 9, 37, 58
4, 37351, Note_on_c, 9, 37, 0
4, 37387, Note_on_c, 9, 51, 0
4, 37419, Note_on_c, 9, 51, 31
4, 37427, Note_on_c, 9, 51, 0
4, 37440, Note_on_c, 9, 46, 0
4, 37447, Note_on_c, 9, 51, 42
4, 37515, Note_on_c, 9, 51, 0
4, 37560, Note_on_c, 9, 44, 61
4, 37565, Note_on_c, 9, 51, 67
4, 37565, Note_on_c, 9, 47, 43
4, 37574, Note_on_c, 9, 47, 0
4, 37607, Note_on_c, 9, 51, 0
4, 37645, Note_on_c, 9, 47, 80
4, 37649, Note_on_c, 9, 51, 21
4, 37660, Note_on_c, 9, 51, 0
4, 37671, Note_on_c, 9, 47, 0
4, 37678, Note_on_c, 9, 51, 52
4, 37680, Note_on_c, 9, 44, 0
4, 37751, Note_on_c, 9, 51, 0
4, 37768, Note_on_c, 9, 34, 19
4, 37778, Note_on_c, 9, 34, 0
4, 37800, Note_on_c, 9, 44, 57
4, 37800, Note_on_c, 9, 51, 65
4, 37804, Note_on_c, 9, 37, 61
4, 37847, Note_on_c, 9, 37, 0
4, 37860, Note_on_c, 9, 51, 0
4, 37920, Note_on_c, 9, 44, 0
4, 37922, Note_on_c, 9, 51, 64
4, 37973, Note_on_c, 9, 51, 0
4, 38032, Note_on_c, 9, 51, 63
4, 38040, Note_on_c, 9, 44, 56
4, 38040, Note_on_c, 9, 47, 44
4, 38051, Note_on_c, 9, 47, 0
4, 38074, Note_on_c, 9, 51, 0
4, 38119, Note_on_c, 9, 47, 56
4, 38126, Note_on_c, 9, 51, 36
4, 38135, Note_on_c, 9, 47, 0
4, 38141, Note_on_c, 9, 51, 0
4, 38157, Note_on_c, 9, 51, 60
4, 38160, Note_on_c, 9, 44, 0
4, 38225, Note_on_c, 9, 51, 0
4, 38242, Note_on_c, 9, 35, 50
4, 38257, Note_on_c, 9, 35, 0
4, 38277, Note_on_c, 9, 51, 67
4, 38279, Note_on_c, 9, 47, 69
4, 38279, Note_on_c, 9, 37, 59
4, 38280, Note_on_c, 9, 46, 48
4, 38297, Note_on_c, 9, 47, 0
4, 38307, Note_on_c, 9, 37, 0
4, 38321, Note_on_c, 9, 51, 0
4, 38366, Note_on_c, 9, 51, 31
4, 38377, Note_on_c, 9, 51, 0
4, 38393, Note_on_c, 9, 51, 62
4, 38400, Note_on_c, 9, 46, 0
4, 38457, Note_on_c, 9, 51, 0
4, 38514, Note_on_c, 9, 51, 67
4, 38516, Note_on_c, 9, 47, 41
4, 38520, Note_on_c, 9, 44, 57
4, 38524, Note_on_c, 9, 47, 0
4, 38569, Note_on_c, 9, 51, 0
4, 38597, Note_on_c, 9, 47, 60
4, 38614, Note_on_c, 9, 47, 0
4, 38629, Note_on_c, 9, 51, 64
4, 38640, Note_on_c, 9, 44, 0
4, 38685, Note_on_c, 9, 51, 0
4, 38751, Note_on_c, 9, 51, 63
4, 38756, Note_on_c, 9, 37, 68
4, 38760, Note_on_c, 9, 44, 56
4, 38789, Note_on_c, 9, 37, 0
4, 38805, Note_on_c, 9, 51, 0
4, 38840, Note_on_c, 9, 51, 56
4, 38856, Note_on_c, 9, 51, 0
4, 38874, Note_on_c, 9, 51, 49
4, 38880, Note_on_c, 9, 44, 0
4, 38916, Note_on_c, 9, 51, 0
4, 38993, Note_on_c, 9, 51, 64
4, 38994, Note_on_c, 9, 47, 29
4, 39000, Note_on_c, 9, 44, 56
4, 39004, Note_on_c, 9, 47, 0
4, 39049, Note_on_c, 9, 51, 0
4, 39078, Note_on_c, 9, 47, 48
4, 39090, Note_on_c, 9, 47, 0
4, 39119, Note_on_c, 9, 51, 52
4, 39120, Note_on_c, 9, 44, 0
4, 39180, Note_on_c, 9, 51, 0
4, 39235, Note_on_c, 9, 37, 64
4, 39240, Note_on_c, 9, 44, 60
4, 39241, Note_on_c, 9, 51, 59
4, 39274, Note_on_c, 9, 37, 0
4, 39294, Note_on_c, 9, 51, 0
4, 39333, Note_on_c, 9, 51, 32
4, 39342, Note_on_c, 9, 51, 0
4, 39360, Note_on_c, 9, 44, 0
4, 39363, Note_on_c, 9, 51, 46
4, 39416, Note_on_c, 9, 51, 0
4, 39480, Note_on_c, 9, 44, 57
4, 39482, Note_on_c, 9, 47, 45
4, 39484, Note_on_c, 9, 51, 50
4, 39530, Note_on_c, 9, 51, 0
4, 39539, Note_on_c, 9, 47, 0
4, 39565, Note_on_c, 9, 47, 47
4, 39586, Note_on_c, 9, 47, 0
4, 39600, Note_on_c, 9, 44, 0
4, 39600, Note_on_c, 9, 46, 31
4, 39602, Note_on_c, 9, 51, 54
4, 39623, Note_on_c, 9, 46, 0
4, 39633, Note_on_c, 9, 51, 0
4, 39720, Note_on_c, 9, 44, 60
4, 39721, Note_on_c, 9, 46, 27
4, 39721, Note_on_c, 9, 51, 54
4, 39729, Note_on_c, 9, 37, 53
4, 39732, Note_on_c, 9, 46, 0
4, 39750, Note_on_c, 9, 51, 0
4, 39757, Note_on_c, 9, 37, 0
4, 39840, Note_on_c, 9, 44, 0
4, 39842, Note_on_c, 9, 51, 54
4, 39877, Note_on_c, 9, 51, 0
4, 39952, Note_on_c, 9, 51, 54
4, 39960, Note_on_c, 9, 44, 59
4, 39977, Note_on_c, 9, 51, 0
4, 40044, Note_on_c, 9, 51, 52
4, 40051, Note_on_c, 9, 47, 26
4, 40062, Note_on_c, 9, 47, 0
4, 40065, Note_on_c, 9, 51, 0
4, 40080, Note_on_c, 9, 44, 0
4, 40083, Note_on_c, 9, 51, 35
4, 40108, Note_on_c, 9, 51, 0
4, 40200, Note_on_c, 9, 44, 59
4, 40204, Note_on_c, 9, 51, 70
4, 40205, Note_on_c, 9, 37, 66
4, 40234, Note_on_c, 9, 51, 0
4, 40239, Note_on_c, 9, 37, 0
4, 40291, Note_on_c, 9, 51, 29
4, 40301, Note_on_c, 9, 51, 0
4, 40320, Note_on_c, 9, 44, 0
4, 40323, Note_on_c, 9, 51, 47
4, 40382, Note_on_c, 9, 51, 0
4, 40440, Note_on_c, 9, 44, 59
4, 40445, Note_on_c, 9, 47, 43
4, 40446, Note_on_c, 9, 51, 70
4, 40456, Note_on_c, 9, 50, 30
4, 40468, Note_on_c, 9, 50, 0
4, 40471, Note_on_c, 9, 51, 0
4, 40472, Note_on_c, 9, 47, 0
4, 40534, Note_on_c, 9, 51, 54
4, 40534, Note_on_c, 9, 47, 42
4, 40550, Note_on_c, 9, 47, 0
4, 40553, Note_on_c, 9, 51, 0
4, 40560, Note_on_c, 9, 44, 0
4, 40568, Note_on_c, 9, 51, 54
4, 40635, Note_on_c, 9, 51, 0
4, 40680, Note_on_c, 9, 44, 59
4, 40683, Note_on_c, 9, 51, 68
4, 40690, Note_on_c, 9, 37, 62
4, 40719, Note_on_c, 9, 37, 0
4, 40732, Note_on_c, 9, 51, 0
4, 40771, Note_on_c, 9, 51, 52
4, 40788, Note_on_c, 9, 51, 0
4, 40800, Note_on_c, 9, 44, 0
4, 40806, Note_on_c, 9, 51, 54
4, 40874, Note_on_c, 9, 51, 0
4, 40891, Note_on_c, 9, 37, 10
4, 40899, Note_on_c, 9, 37, 0
4, 40920, Note_on_c, 9, 44, 58
4, 40921, Note_on_c, 9, 51, 68
4, 40928, Note_on_c, 9, 47, 48
4, 40965, Note_on_c, 9, 51, 0
4, 40981, Note_on_c, 9, 47, 0
4, 41009, Note_on_c, 9, 47, 38
4, 41024, Note_on_c, 9, 47, 0
4, 41040, Note_on_c, 9, 44, 0
4, 41041, Note_on_c, 9, 51, 62
4, 41085, Note_on_c, 9, 51, 0
4, 41160, Note_on_c, 9, 44, 57
4, 41161, Note_on_c, 9, 51, 64
4, 41162, Note_on_c, 9, 37, 65
4, 41191, Note_on_c, 9, 37, 0
4, 41198, Note_on_c, 9, 51, 0
4, 41259, Note_on_c, 9, 51, 22
4, 41268, Note_on_c, 9, 51, 0
4, 41280, Note_on_c, 9, 44, 0
4, 41285, Note_on_c, 9, 51, 52
4, 41344, Note_on_c, 9, 51, 0
4, 41398, Note_on_c, 9, 51, 69
4, 41400, Note_on_c, 9, 44, 47
4, 41403, Note_on_c, 9, 47, 56
4, 41441, Note_on_c, 9, 51, 0
4, 41461, Note_on_c, 9, 47, 0
4, 41490, Note_on_c, 9, 51, 38
4, 41492, Note_on_c, 9, 47, 47
4, 41505, Note_on_c, 9, 51, 0
4, 41510, Note_on_c, 9, 47, 0
4, 41520, Note_on_c, 9, 44, 0
4, 41520, Note_on_c, 9, 51, 59
4, 41584, Note_on_c, 9, 51, 0
4, 41637, Note_on_c, 9, 51, 70
4, 41640, Note_on_c, 9, 44, 71
4, 41640, Note_on_c, 9, 37, 62
4, 41676, Note_on_c, 9, 37, 0
4, 41689, Note_on_c, 9, 51, 0
4, 41731, Note_on_c, 9, 51, 29
4, 41739, Note_on_c, 9, 51, 0
4, 41759, Note_on_c, 9, 51, 54
4, 41760, Note_on_c, 9, 44, 0
4, 41818, Note_on_c, 9, 51, 0
4, 41846, Note_on_c, 9, 37, 18
4, 41854, Note_on_c, 9, 37, 0
4, 41876, Note_on_c, 9, 51, 72
4, 41880, Note_on_c, 9, 44, 69
4, 41921, Note_on_c, 9, 51, 0
4, 41959, Note_on_c, 9, 40, 51
4, 41968, Note_on_c, 9, 40, 0
4, 41978, Note_on_c, 9, 51, 25
4, 41978, Note_on_c, 9, 51, 0
4, 41997, Note_on_c, 9, 51, 49
4, 42000, Note_on_c, 9, 44, 0
4, 42062, Note_on_c, 9, 51, 0
4, 42088, Note_on_c, 9, 37, 8
4, 42097, Note_on_c, 9, 37, 0
4, 42112, Note_on_c, 9, 51, 68
4, 42120, Note_on_c, 9, 46, 54
4, 42161, Note_on_c, 9, 51, 0
4, 42199, Note_on_c, 9, 37, 67
4, 42201, Note_on_c, 9, 51, 43
4, 42209, Note_on_c, 9, 35, 44
4, 42213, Note_on_c, 9, 51, 0
4, 42219, Note_on_c, 9, 35, 0
4, 42221, Note_on_c, 9, 37, 0
4, 42240, Note_on_c, 9, 46, 0
4, 42241, Note_on_c, 9, 57, 62
4, 42249, Note_on_c, 9, 51, 62
4, 42259, Note_on_c, 9, 57, 0
4, 42302, Note_on_c, 9, 51, 0
4, 42360, Note_on_c, 9, 44, 61
4, 42361, Note_on_c, 9, 51, 64
4, 42390, Note_on_c, 9, 51, 0
4, 42403, Note_on_c, 9, 51, 49
4, 42420, Note_on_c, 9, 51, 0
4, 42480, Note_on_c, 9, 44, 0
4, 42485, Note_on_c, 9, 51, 63
4, 42506, Note_on_c, 9, 51, 0
4, 42520, Note_on_c, 9, 51, 55
4, 42542, Note_on_c, 9, 51, 0
4, 42565, Note_on_c, 9, 34, 57
4, 42583, Note_on_c, 9, 34, 0
4, 42600, Note_on_c, 9, 35, 85
4, 42600, Note_on_c, 9, 44, 57
4, 42605, Note_on_c, 9, 51, 63
4, 42605, Note_on_c, 9, 57, 54
4, 42615, Note_on_c, 9, 35, 0
4, 42617, Note_on_c, 9, 28, 16
4, 42627, Note_on_c, 9, 28, 0
4, 42630, Note_on_c, 9, 51, 0
4, 42643, Note_on_c, 9, 51, 65
4, 42652, Note_on_c, 9, 57, 0
4, 42662, Note_on_c, 9, 51, 0
4, 42720, Note_on_c, 9, 44, 0
4, 42726, Note_on_c, 9, 51, 66
4, 42784, Note_on_c, 9, 51, 0
4, 42840, Note_on_c, 9, 44, 56
4, 42841, Note_on_c, 9, 51, 67
4, 42884, Note_on_c, 9, 51, 0
4, 42930, Note_on_c, 9, 51, 37
4, 42943, Note_on_c, 9, 51, 0
4, 42960, Note_on_c, 9, 44, 0
4, 42964, Note_on_c, 9, 51, 52
4, 43029, Note_on_c, 9, 51, 0
4, 43079, Note_on_c, 9, 51, 62
4, 43080, Note_on_c, 9, 46, 48
4, 43126, Note_on_c, 9, 51, 0
4, 43162, Note_on_c, 9, 51, 42
4, 43167, Note_on_c, 9, 35, 32
4, 43178, Note_on_c, 9, 35, 0
4, 43182, Note_on_c, 9, 51, 0
4, 43199, Note_on_c, 9, 51, 53
4, 43200, Note_on_c, 9, 46, 0
4, 43261, Note_on_c, 9, 51, 0
4, 43314, Note_on_c, 9, 51, 68
4, 43320, Note_on_c, 9, 44, 57
4, 43368, Note_on_c, 9, 51, 0
4, 43403, Note_on_c, 9, 51, 47
4, 43411, Note_on_c, 9, 51, 0
4, 43434, Note_on_c, 9, 51, 54
4, 43440, Note_on_c, 9, 44, 0
4, 43503, Note_on_c, 9, 51, 0
4, 43560, Note_on_c, 9, 44, 56
4, 43562, Note_on_c, 9, 51, 59
4, 43600, Note_on_c, 9, 51, 0
4, 43651, Note_on_c, 9, 51, 33
4, 43659, Note_on_c, 9, 51, 0
4, 43680, Note_on_c, 9, 44, 0
4, 43684, Note_on_c, 9, 51, 52
4, 43752, Note_on_c, 9, 51, 0
4, 43765, Note_on_c, 9, 35, 22
4, 43779, Note_on_c, 9, 35, 0
4, 43800, Note_on_c, 9, 44, 56
4, 43803, Note_on_c, 9, 51, 66
4, 43851, Note_on_c, 9, 51, 0
4, 43920, Note_on_c, 9, 44, 0
4, 43922, Note_on_c, 9, 51, 62
4, 43961, Note_on_c, 9, 51, 0
4, 44010, Note_on_c, 9, 51, 30
4, 44019, Note_on_c, 9, 51, 0
4, 44040, Note_on_c, 9, 44, 60
4, 44043, Note_on_c, 9, 51, 53
4, 44082, Note_on_c, 9, 35, 40
4, 44086, Note_on_c, 9, 51, 0
4, 44092, Note_on_c, 9, 35, 0
4, 44123, Note_on_c, 9, 35, 32
4, 44127, Note_on_c, 9, 51, 37
4, 44133, Note_on_c, 9, 35, 0
4, 44138, Note_on_c, 9, 51, 0
4, 44155, Note_on_c, 9, 35, 35
4, 44160, Note_on_c, 9, 44, 0
4, 44163, Note_on_c, 9, 51, 61
4, 44165, Note_on_c, 9, 35, 0
4, 44231, Note_on_c, 9, 51, 0
4, 44277, Note_on_c, 9, 51, 67
4, 44280, Note_on_c, 9, 44, 57
4, 44328, Note_on_c, 9, 51, 0
4, 44359, Note_on_c, 9, 35, 39
4, 44364, Note_on_c, 9, 51, 40
4, 44369, Note_on_c, 9, 35, 0
4, 44379, Note_on_c, 9, 51, 0
4, 44400, Note_on_c, 9, 44, 0
4, 44401, Note_on_c, 9, 51, 56
4, 44471, Note_on_c, 9, 51, 0
4, 44519, Note_on_c, 9, 51, 65
4, 44520, Note_on_c, 9, 44, 60
4, 44574, Note_on_c, 9, 51, 0
4, 44608, Note_on_c, 9, 51, 44
4, 44623, Note_on_c, 9, 51, 0
4, 44639, Note_on_c, 9, 51, 55
4, 44640, Note_on_c, 9, 44, 0
4, 44714, Note_on_c, 9, 51, 0
4, 44714, Note_on_c, 9, 37, 43
4, 44732, Note_on_c, 9, 37, 0
4, 44757, Note_on_c, 9, 51, 63
4, 44758, Note_on_c, 9, 35, 30
4, 44760, Note_on_c, 9, 44, 59
4, 44779, Note_on_c, 9, 35, 0
4, 44808, Note_on_c, 9, 51, 0
4, 44847, Note_on_c, 9, 51, 46
4, 44862, Note_on_c, 9, 51, 0
4, 44879, Note_on_c, 9, 51, 53
4, 44880, Note_on_c, 9, 44, 0
4, 44939, Note_on_c, 9, 51, 0
4, 44966, Note_on_c, 9, 51, 44
4, 44979, Note_on_c, 9, 51, 0
4, 45000, Note_on_c, 9, 44, 59
4, 45003, Note_on_c, 9, 51, 63
4, 45083, Note_on_c, 9, 51, 0
4, 45120, Note_on_c, 9, 44, 0
4, 45122, Note_on_c, 9, 51, 60
4, 45172, Note_on_c, 9, 51, 0
4, 45207, Note_on_c, 9, 51, 24
4, 45216, Note_on_c, 9, 51, 0
4, 45239, Note_on_c, 9, 40, 39
4, 45240, Note_on_c, 9, 44, 59
4, 45243, Note_on_c, 9, 51, 64
4, 45249, Note_on_c, 9, 40, 0
4, 45276, Note_on_c, 9, 40, 25
4, 45286, Note_on_c, 9, 40, 0
4, 45327, Note_on_c, 9, 51, 0
4, 45360, Note_on_c, 9, 44, 0
4, 45363, Note_on_c, 9, 51, 59
4, 45422, Note_on_c, 9, 40, 27
4, 45424, Note_on_c, 9, 51, 0
4, 45444, Note_on_c, 9, 40, 0
4, 45450, Note_on_c, 9, 51, 22
4, 45460, Note_on_c, 9, 51, 0
4, 45480, Note_on_c, 9, 44, 59
4, 45481, Note_on_c, 9, 51, 58
4, 45492, Note_on_c, 9, 40, 43
4, 45533, Note_on_c, 9, 40, 0
4, 45566, Note_on_c, 9, 51, 0
4, 45598, Note_on_c, 9, 40, 44
4, 45599, Note_on_c, 9, 51, 62
4, 45600, Note_on_c, 9, 44, 0
4, 45616, Note_on_c, 9, 40, 0
4, 45625, Note_on_c, 9, 40, 20
4, 45639, Note_on_c, 9, 40, 0
4, 45666, Note_on_c, 9, 51, 0
4, 45717, Note_on_c, 9, 51, 60
4, 45720, Note_on_c, 9, 44, 58
4, 45770, Note_on_c, 9, 51, 0
4, 45777, Note_on_c, 9, 40, 35
4, 45787, Note_on_c, 9, 40, 0
4, 45809, Note_on_c, 9, 51, 42
4, 45813, Note_on_c, 9, 40, 23
4, 45819, Note_on_c, 9, 51, 0
4, 45823, Note_on_c, 9, 40, 0
4, 45840, Note_on_c, 9, 44, 0
4, 45842, Note_on_c, 9, 51, 52
4, 45858, Note_on_c, 9, 51, 0
4, 45874, Note_on_c, 9, 51, 59
4, 45896, Note_on_c, 9, 51, 0
4, 45896, Note_on_c, 9, 40, 51
4, 45906, Note_on_c, 9, 40, 0
4, 45928, Note_on_c, 9, 40, 38
4, 45938, Note_on_c, 9, 40, 0
4, 45960, Note_on_c, 9, 44, 57
4, 45960, Note_on_c, 9, 51, 60
4, 45985, Note_on_c, 9, 51, 0
4, 45999, Note_on_c, 9, 51, 56
4, 46013, Note_on_c, 9, 35, 46
4, 46014, Note_on_c, 9, 51, 0
4, 46036, Note_on_c, 9, 35, 0
4, 46047, Note_on_c, 9, 34, 56
4, 46067, Note_on_c, 9, 34, 0
4, 46080, Note_on_c, 9, 44, 0
4, 46082, Note_on_c, 9, 35, 65
4, 46083, Note_on_c, 9, 51, 65
4, 46088, Note_on_c, 9, 57, 59
4, 46107, Note_on_c, 9, 57, 0
4, 46140, Note_on_c, 9, 51, 0
4, 46150, Note_on_c, 9, 35, 0
4, 46199, Note_on_c, 9, 51, 62
4, 46200, Note_on_c, 9, 44, 47
4, 46258, Note_on_c, 9, 51, 0
4, 46318, Note_on_c, 9, 51, 62
4, 46320, Note_on_c, 9, 44, 0
4, 46371, Note_on_c, 9, 51, 0
4, 46439, Note_on_c, 9, 51, 62
4, 46440, Note_on_c, 9, 44, 71
4, 46476, Note_on_c, 9, 51, 0
4, 46518, Note_on_c, 9, 35, 18
4, 46529, Note_on_c, 9, 35, 0
4, 46531, Note_on_c, 9, 51, 38
4, 46539, Note_on_c, 9, 51, 0
4, 46546, Note_on_c, 9, 35, 51
4, 46559, Note_on_c, 9, 51, 54
4, 46560, Note_on_c, 9, 44, 0
4, 46573, Note_on_c, 9, 35, 0
4, 46581, Note_on_c, 9, 51, 0
4, 46672, Note_on_c, 9, 51, 62
4, 46680, Note_on_c, 9, 44, 69
4, 46688, Note_on_c, 9, 51, 0
4, 46758, Note_on_c, 9, 35, 32
4, 46770, Note_on_c, 9, 35, 0
4, 46789, Note_on_c, 9, 51, 60
4, 46800, Note_on_c, 9, 44, 0
4, 46806, Note_on_c, 9, 51, 0
4, 46911, Note_on_c, 9, 51, 62
4, 46920, Note_on_c, 9, 46, 54
4, 46927, Note_on_c, 9, 51, 0
4, 47003, Note_on_c, 9, 51, 52
4, 47010, Note_on_c, 9, 51, 0
4, 47035, Note_on_c, 9, 51, 53
4, 47040, Note_on_c, 9, 46, 0
4, 47055, Note_on_c, 9, 51, 0
4, 47153, Note_on_c, 9, 51, 56
4, 47160, Note_on_c, 9, 44, 61
4, 47172, Note_on_c, 9, 51, 0
4, 47275, Note_on_c, 9, 51, 62
4, 47280, Note_on_c, 9, 44, 0
4, 47295, Note_on_c, 9, 51, 0
4, 47393, Note_on_c, 9, 51, 56
4, 47400, Note_on_c, 9, 44, 57
4, 47420, Note_on_c, 9, 51, 0
4, 47519, Note_on_c, 9, 51, 52
4, 47520, Note_on_c, 9, 44, 0
4, 47558, Note_on_c, 9, 51, 0
4, 47593, Note_on_c, 9, 40, 42
4, 47603, Note_on_c, 9, 40, 0
4, 47640, Note_on_c, 9, 44, 56
4, 47646, Note_on_c, 9, 51, 53
4, 47657, Note_on_c, 9, 40, 46
4, 47667, Note_on_c, 9, 40, 0
4, 47682, Note_on_c, 9, 51, 0
4, 47697, Note_on_c, 9, 40, 16
4, 47709, Note_on_c, 9, 40, 0
4, 47733, Note_on_c, 9, 51, 39
4, 47749, Note_on_c, 9, 51, 0
4, 47760, Note_on_c, 9, 44, 0
4, 47765, Note_on_c, 9, 51, 52
4, 47830, Note_on_c, 9, 40, 39
4, 47833, Note_on_c, 9, 51, 0
4, 47840, Note_on_c, 9, 40, 0
4, 47880, Note_on_c, 9, 46, 48
4, 47881, Note_on_c, 9, 51, 61
4, 47895, Note_on_c, 9, 40, 50
4, 47904, Note_on_c, 9, 40, 0
4, 47917, Note_on_c, 9, 51, 0
4, 47939, Note_on_c, 9, 34, 59
4, 47972, Note_on_c, 9, 34, 0
4, 47978, Note_on_c, 9, 51, 41
4, 47988, Note_on_c, 9, 51, 0
4, 48000, Note_on_c, 9, 46, 0
4, 48009, Note_on_c, 9, 40, 40
4, 48010, Note_on_c, 9, 51, 48
4, 48011, Note_on_c, 9, 35, 44
4, 48021, Note_on_c, 9, 40, 0
4, 48046, Note_on_c, 9, 35, 0
4, 48068, Note_on_c, 9, 51, 0
4, 48120, Note_on_c, 9, 44, 57
4, 48120, Note_on_c, 9, 51, 65
4, 48155, Note_on_c, 9, 51, 0
4, 48208, Note_on_c, 9, 51, 34
4, 48218, Note_on_c, 9, 51, 0
4, 48240, Note_on_c, 9, 44, 0
4, 48240, Note_on_c, 9, 51, 46
4, 48295, Note_on_c, 9, 51, 0
4, 48319, Note_on_c, 9, 35, 46
4, 48338, Note_on_c, 9, 35, 0
4, 48357, Note_on_c, 9, 51, 60
4, 48360, Note_on_c, 9, 44, 56
4, 48390, Note_on_c, 9, 51, 0
4, 48449, Note_on_c, 9, 51, 24
4, 48460, Note_on_c, 9, 51, 0
4, 48478, Note_on_c, 9, 51, 49
4, 48480, Note_on_c, 9, 44, 0
4, 48482, Note_on_c, 9, 35, 43
4, 48507, Note_on_c, 9, 35, 0
4, 48519, Note_on_c, 9, 51, 0
4, 48598, Note_on_c, 9, 51, 61
4, 48600, Note_on_c, 9, 44, 56
4, 48635, Note_on_c, 9, 51, 0
4, 48675, Note_on_c, 9, 35, 27
4, 48692, Note_on_c, 9, 35, 0
4, 48712, Note_on_c, 9, 35, 32
4, 48717, Note_on_c, 9, 51, 62
4, 48720, Note_on_c, 9, 44, 0
4, 48749, Note_on_c, 9, 51, 0
4, 48779, Note_on_c, 9, 35, 0
4, 48801, Note_on_c, 9, 35, 35
4, 48810, Note_on_c, 9, 35, 0
4, 48840, Note_on_c, 9, 44, 60
4, 48840, Note_on_c, 9, 51, 61
4, 48867, Note_on_c, 9, 51, 0
4, 48927, Note_on_c, 9, 51, 36
4, 48945, Note_on_c, 9, 51, 0
4, 48960, Note_on_c, 9, 44, 0
4, 48962, Note_on_c, 9, 51, 54
4, 49007, Note_on_c, 9, 51, 0
4, 49049, Note_on_c, 9, 35, 27
4, 49059, Note_on_c, 9, 35, 0
4, 49079, Note_on_c, 9, 51, 65
4, 49080, Note_on_c, 9, 44, 57
4, 49106, Note_on_c, 9, 51, 0
4, 49166, Note_on_c, 9, 51, 47
4, 49183, Note_on_c, 9, 51, 0
4, 49200, Note_on_c, 9, 44, 0
4, 49201, Note_on_c, 9, 51, 44
4, 49213, Note_on_c, 9, 35, 20
4, 49226, Note_on_c, 9, 51, 0
4, 49227, Note_on_c, 9, 35, 0
4, 49286, Note_on_c, 9, 53, 80
4, 49304, Note_on_c, 9, 53, 0
4, 49320, Note_on_c, 9, 44, 60
4, 49329, Note_on_c, 9, 51, 29
4, 49357, Note_on_c, 9, 51, 0
4, 49402, Note_on_c, 9, 51, 41
4, 49406, Note_on_c, 9, 35, 42
4, 49413, Note_on_c, 9, 51, 0
4, 49418, Note_on_c, 9, 35, 0
4, 49438, Note_on_c, 9, 51, 44
4, 49440, Note_on_c, 9, 44, 0
4, 49457, Note_on_c, 9, 51, 0
4, 49560, Note_on_c, 9, 44, 59
4, 49560, Note_on_c, 9, 51, 57
4, 49568, Note_on_c, 9, 35, 39
4, 49589, Note_on_c, 9, 35, 0
4, 49602, Note_on_c, 9, 51, 0
4, 49654, Note_on_c, 9, 51, 44
4, 49662, Note_on_c, 9, 51, 0
4, 49680, Note_on_c, 9, 44, 0
4, 49687, Note_on_c, 9, 51, 49
4, 49723, Note_on_c, 9, 51, 0
4, 49767, Note_on_c, 9, 34, 36
4, 49770, Note_on_c, 9, 53, 75
4, 49788, Note_on_c, 9, 34, 0
4, 49795, Note_on_c, 9, 53, 0
4, 49800, Note_on_c, 9, 44, 59
4, 49881, Note_on_c, 9, 34, 52
4, 49883, Note_on_c, 9, 51, 53
4, 49906, Note_on_c, 9, 51, 0
4, 49906, Note_on_c, 9, 34, 0
4, 49920, Note_on_c, 9, 44, 0
4, 49922, Note_on_c, 9, 51, 45
4, 49931, Note_on_c, 9, 35, 30
4, 49974, Note_on_c, 9, 51, 0
4, 49981, Note_on_c, 9, 35, 0
4, 50002, Note_on_c, 9, 35, 41
4, 50024, Note_on_c, 9, 35, 0
4, 50040, Note_on_c, 9, 44, 59
4, 50042, Note_on_c, 9, 51, 67
4, 50107, Note_on_c, 9, 51, 0
4, 50160, Note_on_c, 9, 44, 0
4, 50164, Note_on_c, 9, 51, 12
4, 50181, Note_on_c, 9, 35, 37
4, 50181, Note_on_c, 9, 35, 0
4, 50188, Note_on_c, 9, 51, 0
4, 50246, Note_on_c, 9, 51, 22
4, 50258, Note_on_c, 9, 51, 0
4, 50279, Note_on_c, 9, 51, 60
4, 50280, Note_on_c, 9, 44, 59
4, 50363, Note_on_c, 9, 35, 33
4, 50368, Note_on_c, 9, 51, 0
4, 50378, Note_on_c, 9, 35, 0
4, 50400, Note_on_c, 9, 44, 0
4, 50404, Note_on_c, 9, 51, 24
4, 50448, Note_on_c, 9, 51, 0
4, 50497, Note_on_c, 9, 51, 35
4, 50509, Note_on_c, 9, 51, 0
4, 50520, Note_on_c, 9, 44, 58
4, 50527, Note_on_c, 9, 51, 59
4, 50595, Note_on_c, 9, 51, 0
4, 50607, Note_on_c, 9, 35, 29
4, 50618, Note_on_c, 9, 35, 0
4, 50640, Note_on_c, 9, 44, 0
4, 50642, Note_on_c, 9, 51, 63
4, 50647, Note_on_c, 9, 35, 30
4, 50662, Note_on_c, 9, 35, 0
4, 50699, Note_on_c, 9, 51, 0
4, 50729, Note_on_c, 9, 35, 28
4, 50739, Note_on_c, 9, 51, 28
4, 50741, Note_on_c, 9, 35, 0
4, 50747, Note_on_c, 9, 51, 0
4, 50760, Note_on_c, 9, 44, 57
4, 50763, Note_on_c, 9, 51, 44
4, 50827, Note_on_c, 9, 51, 0
4, 50843, Note_on_c, 9, 35, 31
4, 50854, Note_on_c, 9, 35, 0
4, 50877, Note_on_c, 9, 51, 68
4, 50880, Note_on_c, 9, 44, 0
4, 50939, Note_on_c, 9, 51, 0
4, 51000, Note_on_c, 9, 44, 47
4, 51000, Note_on_c, 9, 51, 64
4, 51057, Note_on_c, 9, 51, 0
4, 51088, Note_on_c, 9, 35, 32
4, 51098, Note_on_c, 9, 35, 0
4, 51120, Note_on_c, 9, 44, 0
4, 51127, Note_on_c, 9, 51, 62
4, 51128, Note_on_c, 9, 35, 15
4, 51129, Note_on_c, 9, 57, 16
4, 51140, Note_on_c, 9, 57, 0
4, 51140, Note_on_c, 9, 35, 0
4, 51154, Note_on_c, 9, 51, 0
4, 51240, Note_on_c, 9, 44, 71
4, 51324, Note_on_c, 9, 35, 21
4, 51331, Note_on_c, 9, 51, 34
4, 51336, Note_on_c, 9, 35, 0
4, 51341, Note_on_c, 9, 51, 0
4, 51360, Note_on_c, 9, 44, 0
4, 51367, Note_on_c, 9, 51, 60
4, 51369, Note_on_c, 9, 35, 33
4, 51369, Note_on_c, 9, 57, 34
4, 51381, Note_on_c, 9, 57, 0
4, 51398, Note_on_c, 9, 35, 0
4, 51425, Note_on_c, 9, 51, 0
4, 51480, Note_on_c, 9, 44, 69
4, 51555, Note_on_c, 9, 35, 21
4, 51561, Note_on_c, 9, 51, 46
4, 51567, Note_on_c, 9, 35, 0
4, 51579, Note_on_c, 9, 51, 0
4, 51600, Note_on_c, 9, 44, 0
4, 51603, Note_on_c, 9, 51, 52
4, 51606, Note_on_c, 9, 35, 39
4, 51657, Note_on_c, 9, 51, 0
4, 51661, Note_on_c, 9, 35, 0
4, 51720, Note_on_c, 9, 46, 54
4, 51792, Note_on_c, 9, 35, 18
4, 51795, Note_on_c, 9, 51, 13
4, 51804, Note_on_c, 9, 51, 0
4, 51805, Note_on_c, 9, 35, 0
4, 51835, Note_on_c, 9, 51, 61
4, 51840, Note_on_c, 9, 46, 0
4, 51849, Note_on_c, 9, 35, 34
4, 51871, Note_on_c, 9, 35, 0
4, 51887, Note_on_c, 9, 51, 0
4, 51960, Note_on_c, 9, 44, 61
4, 52030, Note_on_c, 9, 35, 29
4, 52031, Note_on_c, 9, 51, 38
4, 52044, Note_on_c, 9, 35, 0
4, 52050, Note_on_c, 9, 51, 0
4, 52073, Note_on_c, 9, 51, 47
4, 52080, Note_on_c, 9, 44, 0
4, 52091, Note_on_c, 9, 57, 21
4, 52097, Note_on_c, 9, 35, 29
4, 52102, Note_on_c, 9, 57, 0
4, 52120, Note_on_c, 9, 51, 0
4, 52124, Note_on_c, 9, 35, 0
4, 52200, Note_on_c, 9, 44, 57
4, 52270, Note_on_c, 9, 51, 49
4, 52278, Note_on_c, 9, 35, 33
4, 52285, Note_on_c, 9, 51, 0
4, 52290, Note_on_c, 9, 35, 0
4, 52320, Note_on_c, 9, 44, 0
4, 52328, Note_on_c, 9, 51, 65
4, 52339, Note_on_c, 9, 57, 28
4, 52343, Note_on_c, 9, 35, 42
4, 52349, Note_on_c, 9, 57, 0
4, 52363, Note_on_c, 9, 35, 0
4, 52400, Note_on_c, 9, 51, 0
4, 52440, Note_on_c, 9, 44, 56
4, 52515, Note_on_c, 9, 51, 45
4, 52517, Note_on_c, 9, 35, 33
4, 52530, Note_on_c, 9, 35, 0
4, 52533, Note_on_c, 9, 51, 0
4, 52560, Note_on_c, 9, 44, 0
4, 52575, Note_on_c, 9, 51, 55
4, 52582, Note_on_c, 9, 35, 35
4, 52603, Note_on_c, 9, 51, 0
4, 52625, Note_on_c, 9, 35, 0
4, 52680, Note_on_c, 9, 46, 48
4, 52756, Note_on_c, 9, 51, 21
4, 52762, Note_on_c, 9, 35, 19
4, 52774, Note_on_c, 9, 35, 0
4, 52779, Note_on_c, 9, 51, 0
4, 52800, Note_on_c, 9, 46, 0
4, 52810, Note_on_c, 9, 51, 55
4, 52825, Note_on_c, 9, 35, 23
4, 52920, Note_on_c, 9, 44, 57
4, 52930, Note_on_c, 9, 51, 0
4, 52939, Note_on_c, 9, 35, 0
4, 52998, Note_on_c, 9, 34, 22
4, 52999, Note_on_c, 9, 51, 28
4, 53019, Note_on_c, 9, 34, 0
4, 53026, Note_on_c, 9, 51, 0
4, 53040, Note_on_c, 9, 44, 0
4, 53059, Note_on_c, 9, 51, 47
4, 53074, Note_on_c, 9, 57, 17
4, 53076, Note_on_c, 9, 35, 21
4, 53135, Note_on_c, 9, 51, 0
4, 53647, Note_on_c, 9, 57, 0
4, 53718, Note_on_c, 9, 35, 0
4, 53718, End_track
0, 0, End_of_file
