0, 0, Header, 0, 1, 120
1, 0, Start_track
1, 0, Title_t, "A House Is Not A Home"
1, 0, Text_t, "Dougmck\012"
1, 0, Time_signature, 4, 2, 24, 8
1, 0, Key_signature, 0, "major"
1, 0, Tempo, 681818
1, 0, Program_c, 0, 0
1, 0, Program_c, 1, 0
1, 15, Note_on_c, 0, 74, 37
1, 16, Control_c, 0, 64, 127
1, 195, Note_on_c, 0, 74, 0
1, 263, Note_on_c, 0, 77, 43
1, 265, Note_on_c, 0, 65, 31
1, 265, Note_on_c, 0, 62, 33
1, 266, Note_on_c, 0, 58, 40
1, 267, Note_on_c, 0, 60, 43
1, 270, Control_c, 0, 64, 0
1, 302, Control_c, 0, 64, 127
1, 328, Note_on_c, 0, 60, 0
1, 329, Note_on_c, 0, 65, 0
1, 330, Note_on_c, 0, 58, 0
1, 336, Note_on_c, 0, 62, 0
1, 367, Note_on_c, 0, 77, 0
1, 367, Note_on_c, 0, 74, 39
1, 435, Note_on_c, 0, 74, 0
1, 447, Note_on_c, 0, 77, 53
1, 475, Note_on_c, 0, 77, 0
1, 609, Note_on_c, 0, 81, 59
1, 633, Note_on_c, 0, 81, 0
1, 861, Note_on_c, 0, 63, 33
1, 862, Note_on_c, 0, 70, 34
1, 863, Note_on_c, 0, 72, 39
1, 865, Note_on_c, 0, 67, 35
1, 870, Note_on_c, 0, 58, 21
1, 881, Control_c, 0, 64, 0
1, 908, Control_c, 0, 64, 127
1, 937, Note_on_c, 0, 58, 0
1, 968, Note_on_c, 0, 58, 33
1, 985, Note_on_c, 0, 67, 0
1, 1007, Note_on_c, 0, 63, 0
1, 1060, Note_on_c, 0, 67, 38
1, 1061, Note_on_c, 0, 63, 23
1, 1111, Note_on_c, 0, 58, 0
1, 1154, Note_on_c, 0, 58, 34
1, 1196, Note_on_c, 0, 58, 0
1, 1210, Note_on_c, 0, 67, 0
1, 1220, Note_on_c, 0, 63, 0
1, 1247, Note_on_c, 0, 70, 0
1, 1257, Note_on_c, 0, 63, 32
1, 1258, Note_on_c, 0, 67, 44
1, 1265, Note_on_c, 0, 58, 19
1, 1385, Note_on_c, 0, 46, 32
1, 1407, Note_on_c, 0, 67, 0
1, 1429, Note_on_c, 0, 63, 0
1, 1465, Note_on_c, 0, 72, 0
1, 1491, Note_on_c, 0, 60, 70
1, 1527, Note_on_c, 0, 58, 0
1, 1531, Note_on_c, 0, 60, 0
1, 1552, Note_on_c, 0, 63, 93
1, 1604, Note_on_c, 0, 63, 0
1, 1620, Note_on_c, 0, 63, 81
1, 1625, Note_on_c, 0, 58, 42
1, 1664, Note_on_c, 0, 63, 0
1, 1682, Note_on_c, 0, 67, 96
1, 1717, Note_on_c, 0, 58, 0
1, 1723, Note_on_c, 0, 67, 0
1, 1752, Note_on_c, 0, 67, 95
1, 1759, Note_on_c, 0, 58, 39
1, 1797, Note_on_c, 0, 67, 0
1, 1820, Note_on_c, 0, 70, 83
1, 1850, Note_on_c, 0, 46, 0
1, 1851, Note_on_c, 0, 70, 0
1, 1857, Note_on_c, 0, 58, 0
1, 1902, Note_on_c, 0, 74, 58
1, 1902, Note_on_c, 0, 46, 43
1, 1903, Note_on_c, 0, 65, 71
1, 1908, Control_c, 0, 64, 0
1, 1909, Note_on_c, 0, 57, 48
1, 1958, Control_c, 0, 64, 127
1, 2004, Note_on_c, 0, 53, 33
1, 2006, Note_on_c, 0, 57, 0
1, 2029, Note_on_c, 0, 74, 0
1, 2061, Note_on_c, 0, 65, 0
1, 2115, Note_on_c, 0, 62, 34
1, 2118, Note_on_c, 0, 69, 39
1, 2118, Note_on_c, 0, 57, 35
1, 2120, Note_on_c, 0, 65, 26
1, 2233, Note_on_c, 0, 65, 0
1, 2266, Note_on_c, 0, 62, 0
1, 2285, Note_on_c, 0, 69, 0
1, 2288, Note_on_c, 0, 65, 51
1, 2296, Note_on_c, 0, 57, 0
1, 2333, Note_on_c, 0, 46, 0
1, 2365, Note_on_c, 0, 65, 0
1, 2439, Note_on_c, 0, 63, 39
1, 2440, Note_on_c, 0, 53, 0
1, 2441, Note_on_c, 0, 46, 31
1, 2446, Note_on_c, 0, 56, 18
1, 2448, Note_on_c, 0, 60, 20
1, 2456, Control_c, 0, 64, 0
1, 2480, Control_c, 0, 64, 127
1, 2517, Note_on_c, 0, 67, 52
1, 2524, Note_on_c, 0, 60, 0
1, 2541, Note_on_c, 0, 63, 0
1, 2542, Note_on_c, 0, 67, 0
1, 2596, Note_on_c, 0, 70, 56
1, 2619, Note_on_c, 0, 70, 0
1, 2631, Note_on_c, 0, 56, 0
1, 2632, Note_on_c, 0, 46, 0
1, 2674, Note_on_c, 0, 75, 67
1, 2700, Note_on_c, 0, 75, 0
1, 2767, Note_on_c, 0, 79, 55
1, 2769, Note_on_c, 0, 75, 39
1, 2772, Note_on_c, 0, 63, 30
1, 2773, Note_on_c, 0, 68, 19
1, 2775, Note_on_c, 0, 72, 26
1, 2775, Note_on_c, 0, 60, 31
1, 2778, Control_c, 0, 64, 0
1, 2800, Control_c, 0, 64, 127
1, 2852, Note_on_c, 0, 79, 0
1, 2877, Note_on_c, 0, 72, 0
1, 2884, Note_on_c, 0, 75, 0
1, 2918, Note_on_c, 0, 68, 0
1, 2940, Note_on_c, 0, 86, 56
1, 2975, Note_on_c, 0, 60, 0
1, 3005, Note_on_c, 0, 63, 0
1, 3007, Note_on_c, 0, 86, 0
1, 3066, Note_on_c, 0, 86, 44
1, 3070, Note_on_c, 0, 79, 40
1, 3070, Note_on_c, 0, 56, 31
1, 3073, Note_on_c, 0, 62, 30
1, 3075, Note_on_c, 0, 67, 24
1, 3075, Note_on_c, 0, 74, 30
1, 3078, Control_c, 0, 64, 0
1, 3100, Control_c, 0, 64, 127
1, 3125, Note_on_c, 0, 79, 0
1, 3128, Note_on_c, 0, 86, 0
1, 3130, Note_on_c, 0, 74, 0
1, 3200, Note_on_c, 0, 89, 52
1, 3202, Note_on_c, 0, 67, 0
1, 3213, Note_on_c, 0, 62, 0
1, 3230, Note_on_c, 0, 56, 0
1, 3270, Note_on_c, 0, 89, 0
1, 3311, Note_on_c, 0, 89, 54
1, 3317, Note_on_c, 0, 39, 42
1, 3317, Note_on_c, 0, 77, 45
1, 3324, Control_c, 0, 64, 0
1, 3333, Control_c, 0, 64, 127
1, 3353, Note_on_c, 0, 89, 0
1, 3370, Note_on_c, 0, 77, 0
1, 3379, Note_on_c, 0, 39, 0
1, 3383, Note_on_c, 0, 46, 43
1, 3443, Note_on_c, 0, 77, 47
1, 3444, Note_on_c, 0, 46, 0
1, 3447, Note_on_c, 0, 70, 47
1, 3449, Note_on_c, 0, 67, 40
1, 3450, Note_on_c, 0, 55, 46
1, 3518, Note_on_c, 0, 55, 0
1, 3520, Note_on_c, 0, 58, 48
1, 3548, Note_on_c, 0, 67, 0
1, 3556, Note_on_c, 0, 70, 0
1, 3572, Note_on_c, 0, 77, 0
1, 3590, Note_on_c, 0, 70, 69
1, 3591, Note_on_c, 0, 67, 68
1, 3592, Note_on_c, 0, 74, 62
1, 3593, Note_on_c, 0, 62, 37
1, 3609, Note_on_c, 0, 67, 0
1, 3651, Note_on_c, 0, 62, 0
1, 3656, Note_on_c, 0, 67, 68
1, 3697, Note_on_c, 0, 74, 0
1, 3697, Note_on_c, 0, 70, 0
1, 3711, Note_on_c, 0, 75, 80
1, 3711, Note_on_c, 0, 70, 73
1, 3711, Note_on_c, 0, 62, 67
1, 3715, Note_on_c, 0, 67, 0
1, 3723, Note_on_c, 0, 58, 0
1, 3750, Note_on_c, 0, 75, 0
1, 3756, Note_on_c, 0, 70, 0
1, 3763, Note_on_c, 0, 58, 57
1, 3764, Note_on_c, 0, 77, 78
1, 3765, Note_on_c, 0, 62, 0
1, 3768, Note_on_c, 0, 75, 33
1, 3768, Note_on_c, 0, 70, 33
1, 3774, Note_on_c, 0, 70, 0
1, 3774, Note_on_c, 0, 75, 0
1, 3778, Note_on_c, 0, 58, 0
1, 3787, Note_on_c, 0, 77, 0
1, 3821, Note_on_c, 0, 75, 71
1, 3822, Note_on_c, 0, 66, 68
1, 3823, Note_on_c, 0, 50, 58
1, 3827, Note_on_c, 0, 60, 44
1, 3834, Control_c, 0, 64, 0
1, 3867, Control_c, 0, 64, 127
1, 3896, Note_on_c, 0, 57, 57
1, 3899, Note_on_c, 0, 60, 0
1, 3932, Note_on_c, 0, 66, 0
1, 3976, Note_on_c, 0, 69, 46
1, 3977, Note_on_c, 0, 67, 33
1, 3983, Note_on_c, 0, 60, 29
1, 4008, Note_on_c, 0, 57, 0
1, 4077, Note_on_c, 0, 57, 26
1, 4095, Note_on_c, 0, 67, 0
1, 4101, Note_on_c, 0, 69, 0
1, 4123, Note_on_c, 0, 60, 0
1, 4162, Note_on_c, 0, 57, 0
1, 4175, Note_on_c, 0, 66, 28
1, 4175, Note_on_c, 0, 68, 37
1, 4180, Note_on_c, 0, 60, 27
1, 4383, Note_on_c, 0, 68, 0
1, 4405, Note_on_c, 0, 75, 0
1, 4407, Note_on_c, 0, 69, 40
1, 4469, Note_on_c, 0, 66, 0
1, 4473, Note_on_c, 0, 69, 0
1, 4528, Note_on_c, 0, 74, 65
1, 4546, Note_on_c, 0, 60, 0
1, 4552, Note_on_c, 0, 50, 0
1, 4555, Note_on_c, 0, 74, 0
1, 4596, Note_on_c, 0, 74, 58
1, 4615, Note_on_c, 0, 74, 0
1, 4712, Note_on_c, 0, 77, 55
1, 4713, Note_on_c, 0, 43, 38
1, 4718, Control_c, 0, 64, 0
1, 4730, Control_c, 0, 64, 127
1, 4732, Note_on_c, 0, 43, 0
1, 4801, Note_on_c, 0, 77, 0
1, 4806, Note_on_c, 0, 62, 33
1, 4808, Note_on_c, 0, 57, 30
1, 4808, Note_on_c, 0, 74, 46
1, 4812, Note_on_c, 0, 58, 33
1, 4861, Note_on_c, 0, 74, 0
1, 4872, Note_on_c, 0, 75, 79
1, 4911, Note_on_c, 0, 62, 0
1, 4912, Note_on_c, 0, 75, 0
1, 4913, Note_on_c, 0, 57, 0
1, 4926, Note_on_c, 0, 77, 71
1, 4927, Note_on_c, 0, 58, 0
1, 4948, Note_on_c, 0, 77, 0
1, 4988, Note_on_c, 0, 75, 59
1, 4992, Note_on_c, 0, 63, 46
1, 4993, Note_on_c, 0, 72, 58
1, 4994, Note_on_c, 0, 68, 42
1, 4996, Note_on_c, 0, 65, 53
1, 4999, Control_c, 0, 64, 0
1, 5031, Control_c, 0, 64, 127
1, 5061, Note_on_c, 0, 63, 0
1, 5102, Note_on_c, 0, 72, 0
1, 5105, Note_on_c, 0, 65, 0
1, 5109, Note_on_c, 0, 75, 0
1, 5142, Note_on_c, 0, 68, 0
1, 5183, Note_on_c, 0, 74, 33
1, 5186, Note_on_c, 0, 67, 34
1, 5187, Note_on_c, 0, 62, 35
1, 5189, Note_on_c, 0, 56, 21
1, 5191, Note_on_c, 0, 46, 25
1, 5193, Control_c, 0, 64, 0
1, 5211, Control_c, 0, 64, 127
1, 5231, Note_on_c, 0, 62, 0
1, 5237, Note_on_c, 0, 67, 0
1, 5242, Note_on_c, 0, 74, 0
1, 5308, Note_on_c, 0, 77, 44
1, 5359, Note_on_c, 0, 46, 0
1, 5363, Note_on_c, 0, 77, 0
1, 5368, Note_on_c, 0, 56, 0
1, 5495, Note_on_c, 0, 74, 37
1, 5498, Note_on_c, 0, 51, 35
1, 5499, Note_on_c, 0, 63, 31
1, 5501, Note_on_c, 0, 67, 34
1, 5504, Note_on_c, 0, 59, 22
1, 5511, Control_c, 0, 64, 0
1, 5537, Control_c, 0, 64, 127
1, 5564, Note_on_c, 0, 67, 0
1, 5567, Note_on_c, 0, 63, 0
1, 5580, Note_on_c, 0, 74, 0
1, 5588, Note_on_c, 0, 59, 0
1, 5591, Note_on_c, 0, 70, 44
1, 5592, Note_on_c, 0, 63, 34
1, 5596, Note_on_c, 0, 67, 30
1, 5599, Note_on_c, 0, 60, 30
1, 5608, Control_c, 0, 64, 0
1, 5648, Control_c, 0, 64, 127
1, 5659, Note_on_c, 0, 70, 0
1, 5675, Note_on_c, 0, 70, 59
1, 5739, Note_on_c, 0, 60, 0
1, 5772, Note_on_c, 0, 63, 0
1, 5788, Note_on_c, 0, 67, 0
1, 5837, Note_on_c, 0, 70, 0
1, 5869, Note_on_c, 0, 63, 44
1, 5893, Note_on_c, 0, 63, 0
1, 5963, Note_on_c, 0, 70, 62
1, 5985, Note_on_c, 0, 70, 0
1, 6018, Note_on_c, 0, 74, 84
1, 6038, Note_on_c, 0, 51, 0
1, 6048, Note_on_c, 0, 74, 0
1, 6059, Note_on_c, 0, 75, 85
1, 6083, Note_on_c, 0, 75, 0
1, 6105, Note_on_c, 0, 74, 68
1, 6106, Note_on_c, 0, 48, 41
1, 6109, Note_on_c, 0, 58, 25
1, 6116, Control_c, 0, 64, 0
1, 6157, Control_c, 0, 64, 127
1, 6174, Note_on_c, 0, 58, 0
1, 6175, Note_on_c, 0, 55, 35
1, 6257, Note_on_c, 0, 63, 34
1, 6260, Note_on_c, 0, 67, 34
1, 6274, Note_on_c, 0, 58, 11
1, 6316, Note_on_c, 0, 74, 0
1, 6325, Note_on_c, 0, 72, 64
1, 6327, Note_on_c, 0, 63, 0
1, 6392, Note_on_c, 0, 72, 0
1, 6400, Note_on_c, 0, 74, 49
1, 6413, Note_on_c, 0, 58, 0
1, 6430, Note_on_c, 0, 67, 0
1, 6470, Note_on_c, 0, 74, 0
1, 6479, Note_on_c, 0, 70, 38
1, 6483, Note_on_c, 0, 63, 33
1, 6483, Note_on_c, 0, 67, 43
1, 6507, Note_on_c, 0, 58, 2
1, 6543, Note_on_c, 0, 70, 0
1, 6566, Note_on_c, 0, 67, 0
1, 6572, Note_on_c, 0, 70, 61
1, 6585, Note_on_c, 0, 63, 0
1, 6606, Note_on_c, 0, 70, 0
1, 6610, Note_on_c, 0, 48, 0
1, 6622, Note_on_c, 0, 55, 0
1, 6640, Note_on_c, 0, 58, 0
1, 6655, Note_on_c, 0, 70, 65
1, 6684, Note_on_c, 0, 70, 0
1, 6748, Note_on_c, 0, 75, 76
1, 6750, Note_on_c, 0, 58, 56
1, 6750, Note_on_c, 0, 70, 77
1, 6752, Note_on_c, 0, 67, 70
1, 6754, Note_on_c, 0, 53, 37
1, 6755, Note_on_c, 0, 63, 37
1, 6758, Control_c, 0, 64, 0
1, 6794, Control_c, 0, 64, 127
1, 6810, Note_on_c, 0, 75, 0
1, 6842, Note_on_c, 0, 70, 0
1, 6844, Note_on_c, 0, 67, 0
1, 6845, Note_on_c, 0, 63, 0
1, 6849, Note_on_c, 0, 74, 70
1, 6852, Note_on_c, 0, 60, 40
1, 6934, Note_on_c, 0, 60, 0
1, 6946, Note_on_c, 0, 74, 0
1, 6955, Note_on_c, 0, 70, 49
1, 6957, Note_on_c, 0, 67, 50
1, 6960, Note_on_c, 0, 63, 26
1, 6964, Note_on_c, 0, 60, 31
1, 6987, Note_on_c, 0, 60, 0
1, 6987, Note_on_c, 0, 63, 0
1, 6997, Note_on_c, 0, 58, 0
1, 6999, Note_on_c, 0, 53, 0
1, 7179, Note_on_c, 0, 29, 34
1, 7180, Note_on_c, 0, 41, 33
1, 7186, Control_c, 0, 64, 0
1, 7237, Control_c, 0, 64, 127
1, 7283, Note_on_c, 0, 67, 0
1, 7291, Note_on_c, 0, 70, 0
1, 7306, Note_on_c, 0, 41, 0
1, 7314, Note_on_c, 0, 29, 0
1, 7599, Note_on_c, 0, 67, 43
1, 7599, Note_on_c, 0, 41, 41
1, 7601, Note_on_c, 0, 63, 35
1, 7604, Note_on_c, 0, 58, 23
1, 7609, Note_on_c, 0, 53, 17
1, 7630, Note_on_c, 0, 41, 0
1, 7642, Note_on_c, 0, 53, 0
1, 7658, Note_on_c, 0, 58, 0
1, 7667, Note_on_c, 0, 67, 0
1, 7676, Note_on_c, 0, 63, 0
1, 7711, Note_on_c, 0, 65, 57
1, 7711, Note_on_c, 0, 62, 35
1, 7713, Note_on_c, 0, 57, 44
1, 7715, Control_c, 0, 64, 0
1, 7716, Note_on_c, 0, 46, 37
1, 7743, Note_on_c, 0, 57, 0
1, 7743, Control_c, 0, 64, 127
1, 7756, Note_on_c, 0, 65, 0
1, 7761, Note_on_c, 0, 62, 0
1, 7782, Note_on_c, 0, 53, 49
1, 7795, Note_on_c, 0, 46, 0
1, 7796, Note_on_c, 0, 53, 0
1, 7849, Note_on_c, 0, 81, 66
1, 7850, Note_on_c, 0, 74, 52
1, 7850, Note_on_c, 0, 60, 40
1, 7908, Note_on_c, 0, 81, 0
1, 7925, Note_on_c, 0, 62, 36
1, 7925, Note_on_c, 0, 77, 36
1, 7926, Note_on_c, 0, 69, 44
1, 7936, Note_on_c, 0, 69, 0
1, 7942, Note_on_c, 0, 74, 0
1, 7958, Note_on_c, 0, 77, 0
1, 8037, Note_on_c, 0, 62, 0
1, 8038, Note_on_c, 0, 60, 0
1, 8077, Note_on_c, 0, 60, 27
1, 8148, Note_on_c, 0, 93, 53
1, 8148, Note_on_c, 0, 86, 40
1, 8150, Note_on_c, 0, 60, 0
1, 8151, Note_on_c, 0, 62, 27
1, 8153, Note_on_c, 0, 65, 24
1, 8360, Note_on_c, 0, 93, 0
1, 8382, Note_on_c, 0, 86, 0
1, 8426, Note_on_c, 0, 65, 0
1, 8440, Note_on_c, 0, 62, 0
1, 8636, Note_on_c, 0, 74, 52
1, 8747, Note_on_c, 0, 65, 43
1, 8748, Note_on_c, 0, 77, 56
1, 8750, Note_on_c, 0, 74, 0
1, 8750, Note_on_c, 0, 62, 28
1, 8756, Note_on_c, 0, 60, 37
1, 8798, Note_on_c, 0, 65, 0
1, 8807, Control_c, 0, 64, 127
1, 8826, Note_on_c, 0, 77, 0
1, 8826, Note_on_c, 0, 74, 39
1, 8889, Note_on_c, 0, 77, 46
1, 8891, Note_on_c, 0, 53, 32
1, 8898, Note_on_c, 0, 74, 0
1, 8903, Note_on_c, 0, 77, 0
1, 8976, Note_on_c, 0, 60, 0
1, 8982, Note_on_c, 0, 62, 0
1, 8984, Note_on_c, 0, 81, 64
1, 9019, Note_on_c, 0, 81, 0
1, 9113, Note_on_c, 0, 72, 45
1, 9113, Note_on_c, 0, 58, 31
1, 9115, Note_on_c, 0, 63, 27
1, 9115, Note_on_c, 0, 65, 34
1, 9118, Note_on_c, 0, 67, 32
1, 9131, Note_on_c, 0, 70, 4
1, 9133, Control_c, 0, 64, 0
1, 9177, Control_c, 0, 64, 127
1, 9194, Note_on_c, 0, 65, 0
1, 9201, Note_on_c, 0, 63, 0
1, 9207, Note_on_c, 0, 53, 0
1, 9208, Note_on_c, 0, 58, 0
1, 9236, Note_on_c, 0, 72, 0
1, 9241, Note_on_c, 0, 70, 0
1, 9245, Note_on_c, 0, 67, 0
1, 9502, Note_on_c, 0, 63, 29
1, 9504, Note_on_c, 0, 46, 30
1, 9506, Note_on_c, 0, 58, 33
1, 9510, Note_on_c, 0, 60, 27
1, 9524, Note_on_c, 0, 55, 1
1, 9534, Note_on_c, 0, 46, 0
1, 9559, Note_on_c, 0, 55, 0
1, 9570, Note_on_c, 0, 60, 0
1, 9605, Note_on_c, 0, 63, 0
1, 9607, Note_on_c, 0, 58, 0
1, 9719, Control_c, 0, 64, 0
1, 9721, Note_on_c, 0, 58, 37
1, 9722, Note_on_c, 0, 60, 34
1, 9722, Note_on_c, 0, 55, 22
1, 9724, Note_on_c, 0, 46, 32
1, 9770, Control_c, 0, 64, 127
1, 9784, Note_on_c, 0, 55, 0
1, 9792, Note_on_c, 0, 53, 39
1, 9793, Note_on_c, 0, 60, 0
1, 9798, Note_on_c, 0, 58, 0
1, 9856, Note_on_c, 0, 63, 79
1, 9857, Note_on_c, 0, 60, 96
1, 9870, Note_on_c, 0, 53, 0
1, 9924, Note_on_c, 0, 53, 57
1, 9933, Note_on_c, 0, 60, 0
1, 9940, Note_on_c, 0, 63, 0
1, 9981, Note_on_c, 0, 53, 0
1, 10003, Note_on_c, 0, 67, 66
1, 10005, Note_on_c, 0, 63, 60
1, 10007, Note_on_c, 0, 58, 68
1, 10009, Note_on_c, 0, 53, 46
1, 10012, Control_c, 0, 64, 0
1, 10069, Control_c, 0, 64, 127
1, 10070, Note_on_c, 0, 46, 0
1, 10091, Note_on_c, 0, 46, 39
1, 10098, Note_on_c, 0, 58, 0
1, 10100, Note_on_c, 0, 67, 0
1, 10108, Note_on_c, 0, 63, 0
1, 10134, Note_on_c, 0, 53, 0
1, 10174, Note_on_c, 0, 70, 49
1, 10178, Note_on_c, 0, 67, 38
1, 10179, Note_on_c, 0, 63, 38
1, 10181, Note_on_c, 0, 53, 24
1, 10182, Note_on_c, 0, 60, 37
1, 10227, Note_on_c, 0, 46, 0
1, 10244, Note_on_c, 0, 60, 0
1, 10249, Note_on_c, 0, 67, 0
1, 10253, Note_on_c, 0, 63, 0
1, 10261, Note_on_c, 0, 70, 0
1, 10261, Note_on_c, 0, 46, 37
1, 10312, Note_on_c, 0, 46, 0
1, 10346, Note_on_c, 0, 46, 33
1, 10347, Note_on_c, 0, 74, 38
1, 10347, Control_c, 0, 64, 0
1, 10348, Note_on_c, 0, 65, 55
1, 10355, Note_on_c, 0, 57, 58
1, 10358, Note_on_c, 0, 53, 0
1, 10447, Note_on_c, 0, 53, 36
1, 10463, Note_on_c, 0, 57, 0
1, 10489, Control_c, 0, 64, 127
1, 10511, Note_on_c, 0, 65, 0
1, 10519, Note_on_c, 0, 74, 0
1, 10536, Note_on_c, 0, 69, 34
1, 10537, Note_on_c, 0, 65, 36
1, 10538, Note_on_c, 0, 62, 35
1, 10542, Note_on_c, 0, 57, 28
1, 10586, Note_on_c, 0, 62, 0
1, 10602, Note_on_c, 0, 65, 0
1, 10611, Note_on_c, 0, 69, 0
1, 10693, Note_on_c, 0, 57, 0
1, 10698, Note_on_c, 0, 81, 84
1, 10751, Note_on_c, 0, 81, 0
1, 10763, Note_on_c, 0, 77, 58
1, 10764, Note_on_c, 0, 69, 63
1, 10765, Note_on_c, 0, 74, 37
1, 10767, Note_on_c, 0, 57, 34
1, 10785, Note_on_c, 0, 69, 0
1, 10792, Note_on_c, 0, 74, 0
1, 10798, Note_on_c, 0, 77, 0
1, 10835, Note_on_c, 0, 84, 83
1, 10838, Note_on_c, 0, 77, 73
1, 10839, Note_on_c, 0, 46, 0
1, 10839, Note_on_c, 0, 53, 0
1, 10845, Note_on_c, 0, 57, 0
1, 10890, Note_on_c, 0, 84, 0
1, 10891, Note_on_c, 0, 77, 0
1, 10905, Note_on_c, 0, 81, 58
1, 10905, Note_on_c, 0, 72, 47
1, 10910, Note_on_c, 0, 77, 34
1, 10917, Note_on_c, 0, 77, 0
1, 10922, Note_on_c, 0, 72, 0
1, 10932, Note_on_c, 0, 81, 0
1, 10985, Note_on_c, 0, 87, 72
1, 10985, Note_on_c, 0, 80, 64
1, 11037, Note_on_c, 0, 80, 0
1, 11045, Note_on_c, 0, 87, 0
1, 11060, Control_c, 0, 64, 0
1, 11062, Note_on_c, 0, 80, 43
1, 11063, Note_on_c, 0, 84, 55
1, 11064, Note_on_c, 0, 68, 28
1, 11067, Note_on_c, 0, 63, 32
1, 11069, Note_on_c, 0, 77, 24
1, 11069, Note_on_c, 0, 60, 37
1, 11071, Control_c, 0, 64, 127
1, 11089, Note_on_c, 0, 80, 0
1, 11092, Note_on_c, 0, 84, 0
1, 11100, Note_on_c, 0, 77, 0
1, 11138, Note_on_c, 0, 84, 53
1, 11139, Note_on_c, 0, 91, 67
1, 11166, Note_on_c, 0, 68, 0
1, 11168, Note_on_c, 0, 91, 0
1, 11170, Note_on_c, 0, 84, 0
1, 11177, Note_on_c, 0, 63, 0
1, 11225, Note_on_c, 0, 87, 52
1, 11226, Note_on_c, 0, 63, 35
1, 11227, Note_on_c, 0, 68, 29
1, 11227, Note_on_c, 0, 80, 37
1, 11231, Note_on_c, 0, 77, 24
1, 11245, Note_on_c, 0, 80, 0
1, 11247, Note_on_c, 0, 87, 0
1, 11258, Note_on_c, 0, 77, 0
1, 11305, Note_on_c, 0, 63, 0
1, 11327, Note_on_c, 0, 68, 0
1, 11333, Note_on_c, 0, 84, 37
1, 11335, Note_on_c, 0, 63, 19
1, 11336, Note_on_c, 0, 80, 26
1, 11337, Note_on_c, 0, 77, 26
1, 11339, Note_on_c, 0, 72, 22
1, 11350, Note_on_c, 0, 84, 0
1, 11358, Note_on_c, 0, 63, 0
1, 11360, Note_on_c, 0, 60, 0
1, 11362, Note_on_c, 0, 77, 0
1, 11363, Note_on_c, 0, 80, 0
1, 11372, Note_on_c, 0, 72, 0
1, 11475, Note_on_c, 0, 67, 36
1, 11475, Control_c, 0, 64, 0
1, 11477, Note_on_c, 0, 46, 34
1, 11477, Note_on_c, 0, 59, 33
1, 11478, Note_on_c, 0, 56, 27
1, 11478, Note_on_c, 0, 62, 35
1, 11480, Note_on_c, 0, 64, 36
1, 11521, Control_c, 0, 64, 127
1, 11559, Note_on_c, 0, 56, 0
1, 11567, Note_on_c, 0, 46, 0
1, 11727, Note_on_c, 0, 22, 42
1, 11954, Note_on_c, 0, 22, 0
1, 12284, Note_on_c, 0, 67, 0
1, 12640, Note_on_c, 0, 67, 40
1, 12911, Note_on_c, 0, 67, 0
1, 13083, Note_on_c, 0, 67, 38
1, 13086, Note_on_c, 0, 59, 0
1, 13088, Note_on_c, 0, 62, 0
1, 13091, Note_on_c, 0, 64, 0
1, 13124, Note_on_c, 0, 67, 0
1, 13219, Note_on_c, 0, 77, 55
1, 13221, Note_on_c, 0, 51, 37
1, 13221, Control_c, 0, 64, 0
1, 13292, Note_on_c, 0, 77, 0
1, 13292, Note_on_c, 0, 74, 37
1, 13293, Control_c, 0, 64, 127
1, 13297, Note_on_c, 0, 67, 35
1, 13302, Note_on_c, 0, 58, 27
1, 13329, Note_on_c, 0, 70, 1
1, 13346, Note_on_c, 0, 74, 0
1, 13356, Note_on_c, 0, 75, 63
1, 13358, Note_on_c, 0, 62, 36
1, 13398, Note_on_c, 0, 67, 0
1, 13401, Note_on_c, 0, 77, 70
1, 13409, Note_on_c, 0, 62, 0
1, 13411, Note_on_c, 0, 75, 0
1, 13429, Note_on_c, 0, 77, 0
1, 13442, Note_on_c, 0, 70, 0
1, 13447, Note_on_c, 0, 58, 0
1, 13451, Note_on_c, 0, 51, 0
1, 13453, Note_on_c, 0, 75, 60
1, 13455, Note_on_c, 0, 66, 46
1, 13457, Note_on_c, 0, 60, 41
1, 13457, Control_c, 0, 64, 0
1, 13460, Note_on_c, 0, 50, 24
1, 13526, Control_c, 0, 64, 127
1, 13530, Note_on_c, 0, 54, 46
1, 13537, Note_on_c, 0, 60, 0
1, 13575, Note_on_c, 0, 66, 0
1, 13594, Note_on_c, 0, 75, 0
1, 13600, Note_on_c, 0, 66, 34
1, 13600, Note_on_c, 0, 69, 55
1, 13607, Note_on_c, 0, 60, 19
1, 13659, Note_on_c, 0, 66, 0
1, 13665, Note_on_c, 0, 74, 62
1, 13672, Note_on_c, 0, 50, 0
1, 13685, Note_on_c, 0, 69, 0
1, 13686, Note_on_c, 0, 54, 0
1, 13688, Note_on_c, 0, 60, 0
1, 13702, Note_on_c, 0, 74, 0
1, 13821, Control_c, 0, 64, 0
1, 13829, Note_on_c, 0, 43, 47
1, 13831, Note_on_c, 0, 77, 66
1, 13833, Control_c, 0, 64, 127
1, 13845, Note_on_c, 0, 43, 0
1, 13917, Note_on_c, 0, 77, 0
1, 13923, Note_on_c, 0, 74, 42
1, 13923, Note_on_c, 0, 57, 42
1, 13924, Note_on_c, 0, 62, 37
1, 13927, Note_on_c, 0, 58, 45
1, 13981, Note_on_c, 0, 74, 0
1, 13991, Note_on_c, 0, 75, 83
1, 14029, Note_on_c, 0, 75, 0
1, 14033, Note_on_c, 0, 62, 0
1, 14034, Note_on_c, 0, 57, 0
1, 14046, Note_on_c, 0, 58, 0
1, 14051, Note_on_c, 0, 77, 82
1, 14103, Note_on_c, 0, 77, 0
1, 14119, Note_on_c, 0, 63, 51
1, 14120, Note_on_c, 0, 75, 74
1, 14121, Note_on_c, 0, 68, 45
1, 14121, Note_on_c, 0, 72, 75
1, 14122, Note_on_c, 0, 60, 38
1, 14128, Control_c, 0, 64, 0
1, 14167, Control_c, 0, 64, 127
1, 14185, Note_on_c, 0, 60, 0
1, 14195, Note_on_c, 0, 58, 54
1, 14196, Note_on_c, 0, 68, 0
1, 14202, Note_on_c, 0, 63, 0
1, 14204, Note_on_c, 0, 75, 0
1, 14205, Note_on_c, 0, 72, 0
1, 14217, Note_on_c, 0, 58, 0
1, 14282, Note_on_c, 0, 74, 45
1, 14285, Note_on_c, 0, 67, 48
1, 14286, Note_on_c, 0, 71, 29
1, 14286, Note_on_c, 0, 56, 33
1, 14287, Note_on_c, 0, 62, 41
1, 14290, Control_c, 0, 64, 0
1, 14338, Control_c, 0, 64, 127
1, 14341, Note_on_c, 0, 62, 0
1, 14349, Note_on_c, 0, 74, 0
1, 14349, Note_on_c, 0, 67, 0
1, 14356, Note_on_c, 0, 71, 0
1, 14376, Note_on_c, 0, 77, 41
1, 14378, Note_on_c, 0, 46, 34
1, 14388, Note_on_c, 0, 56, 0
1, 14394, Note_on_c, 0, 77, 0
1, 14401, Note_on_c, 0, 46, 0
1, 14474, Note_on_c, 0, 74, 33
1, 14479, Control_c, 0, 64, 0
1, 14480, Note_on_c, 0, 62, 35
1, 14483, Note_on_c, 0, 67, 18
1, 14483, Note_on_c, 0, 39, 36
1, 14520, Control_c, 0, 64, 127
1, 14600, Note_on_c, 0, 67, 0
1, 14605, Note_on_c, 0, 46, 37
1, 14615, Note_on_c, 0, 39, 0
1, 14624, Note_on_c, 0, 62, 0
1, 14699, Note_on_c, 0, 70, 23
1, 14700, Note_on_c, 0, 46, 0
1, 14701, Note_on_c, 0, 62, 35
1, 14702, Note_on_c, 0, 67, 36
1, 14715, Note_on_c, 0, 55, 16
1, 14777, Note_on_c, 0, 55, 0
1, 14778, Note_on_c, 0, 58, 55
1, 14780, Note_on_c, 0, 62, 0
1, 14788, Note_on_c, 0, 67, 0
1, 14851, Note_on_c, 0, 70, 0
1, 14878, Note_on_c, 0, 59, 57
1, 14941, Note_on_c, 0, 59, 0
1, 14966, Note_on_c, 0, 70, 48
1, 14967, Note_on_c, 0, 67, 69
1, 14969, Note_on_c, 0, 62, 74
1, 14972, Control_c, 0, 64, 0
1, 14998, Control_c, 0, 64, 127
1, 15053, Note_on_c, 0, 62, 0
1, 15059, Note_on_c, 0, 74, 0
1, 15061, Note_on_c, 0, 67, 0
1, 15067, Note_on_c, 0, 70, 0
1, 15080, Note_on_c, 0, 70, 63
1, 15081, Control_c, 0, 64, 0
1, 15082, Note_on_c, 0, 63, 70
1, 15082, Note_on_c, 0, 67, 57
1, 15084, Note_on_c, 0, 60, 68
1, 15116, Control_c, 0, 64, 127
1, 15158, Note_on_c, 0, 63, 0
1, 15172, Note_on_c, 0, 70, 0
1, 15176, Note_on_c, 0, 67, 0
1, 15210, Note_on_c, 0, 74, 63
1, 15232, Note_on_c, 0, 60, 0
1, 15240, Note_on_c, 0, 74, 0
1, 15255, Note_on_c, 0, 58, 0
1, 15269, Note_on_c, 0, 75, 77
1, 15296, Note_on_c, 0, 75, 0
1, 15323, Note_on_c, 0, 74, 69
1, 15325, Note_on_c, 0, 63, 56
1, 15325, Note_on_c, 0, 58, 47
1, 15325, Note_on_c, 0, 48, 51
1, 15326, Note_on_c, 0, 67, 60
1, 15330, Control_c, 0, 64, 0
1, 15372, Control_c, 0, 64, 127
1, 15382, Note_on_c, 0, 74, 0
1, 15398, Note_on_c, 0, 58, 0
1, 15398, Note_on_c, 0, 72, 69
1, 15398, Note_on_c, 0, 55, 43
1, 15401, Note_on_c, 0, 70, 18
1, 15417, Note_on_c, 0, 70, 0
1, 15450, Note_on_c, 0, 63, 0
1, 15455, Note_on_c, 0, 67, 0
1, 15459, Note_on_c, 0, 72, 0
1, 15473, Control_c, 0, 64, 0
1, 15473, Note_on_c, 0, 74, 63
1, 15473, Note_on_c, 0, 67, 71
1, 15474, Note_on_c, 0, 63, 64
1, 15475, Note_on_c, 0, 58, 53
1, 15479, Note_on_c, 0, 70, 33
1, 15486, Note_on_c, 0, 70, 0
1, 15487, Note_on_c, 0, 55, 0
1, 15489, Control_c, 0, 64, 127
1, 15525, Note_on_c, 0, 74, 0
1, 15545, Note_on_c, 0, 67, 0
1, 15552, Note_on_c, 0, 70, 59
1, 15577, Note_on_c, 0, 58, 0
1, 15588, Note_on_c, 0, 70, 0
1, 15598, Note_on_c, 0, 63, 0
1, 15661, Note_on_c, 0, 70, 44
1, 15665, Note_on_c, 0, 63, 47
1, 15667, Note_on_c, 0, 67, 46
1, 15669, Note_on_c, 0, 62, 55
1, 15673, Note_on_c, 0, 58, 25
1, 15685, Control_c, 0, 64, 0
1, 15715, Control_c, 0, 64, 127
1, 15762, Note_on_c, 0, 58, 0
1, 15784, Note_on_c, 0, 58, 31
1, 15791, Note_on_c, 0, 62, 0
1, 15814, Note_on_c, 0, 63, 0
1, 15824, Note_on_c, 0, 67, 0
1, 15874, Note_on_c, 0, 70, 0
1, 15881, Note_on_c, 0, 63, 29
1, 15882, Note_on_c, 0, 67, 34
1, 15887, Note_on_c, 0, 60, 26
1, 15898, Note_on_c, 0, 60, 0
1, 15910, Note_on_c, 0, 63, 0
1, 15912, Note_on_c, 0, 67, 0
1, 15952, Note_on_c, 0, 48, 0
1, 15975, Note_on_c, 0, 70, 59
1, 15977, Note_on_c, 0, 58, 0
1, 16012, Note_on_c, 0, 70, 0
1, 16066, Note_on_c, 0, 75, 62
1, 16067, Note_on_c, 0, 58, 45
1, 16070, Control_c, 0, 64, 0
1, 16070, Note_on_c, 0, 70, 57
1, 16071, Note_on_c, 0, 53, 39
1, 16071, Note_on_c, 0, 63, 35
1, 16071, Note_on_c, 0, 67, 55
1, 16109, Note_on_c, 0, 75, 0
1, 16112, Control_c, 0, 64, 127
1, 16121, Note_on_c, 0, 67, 0
1, 16125, Note_on_c, 0, 74, 61
1, 16129, Note_on_c, 0, 63, 0
1, 16131, Note_on_c, 0, 70, 0
1, 16133, Note_on_c, 0, 60, 47
1, 16183, Note_on_c, 0, 74, 0
1, 16191, Note_on_c, 0, 70, 72
1, 16194, Note_on_c, 0, 67, 63
1, 16194, Note_on_c, 0, 63, 42
1, 16205, Note_on_c, 0, 53, 0
1, 16213, Note_on_c, 0, 63, 0
1, 16227, Note_on_c, 0, 60, 0
1, 16234, Note_on_c, 0, 58, 0
1, 16329, Control_c, 0, 64, 0
1, 16332, Note_on_c, 0, 29, 45
1, 16340, Control_c, 0, 64, 127
1, 16348, Note_on_c, 0, 29, 0
1, 16363, Note_on_c, 0, 70, 0
1, 16363, Note_on_c, 0, 67, 0
1, 16515, Note_on_c, 0, 41, 36
1, 16518, Control_c, 0, 64, 0
1, 16518, Note_on_c, 0, 58, 49
1, 16519, Note_on_c, 0, 63, 46
1, 16519, Note_on_c, 0, 67, 45
1, 16521, Note_on_c, 0, 53, 28
1, 16532, Control_c, 0, 64, 127
1, 16570, Note_on_c, 0, 41, 0
1, 16600, Note_on_c, 0, 58, 0
1, 16600, Note_on_c, 0, 53, 0
1, 16631, Note_on_c, 0, 67, 0
1, 16639, Note_on_c, 0, 63, 0
1, 16705, Note_on_c, 0, 62, 30
1, 16707, Note_on_c, 0, 65, 51
1, 16709, Note_on_c, 0, 46, 35
1, 16709, Note_on_c, 0, 57, 36
1, 16710, Control_c, 0, 64, 0
1, 16755, Note_on_c, 0, 57, 0
1, 16758, Control_c, 0, 64, 127
1, 16769, Note_on_c, 0, 62, 0
1, 16770, Note_on_c, 0, 65, 0
1, 16772, Note_on_c, 0, 53, 42
1, 16836, Note_on_c, 0, 53, 0
1, 16840, Note_on_c, 0, 46, 0
1, 16842, Note_on_c, 0, 81, 66
1, 16843, Note_on_c, 0, 57, 58
1, 16843, Note_on_c, 0, 74, 50
1, 16895, Note_on_c, 0, 57, 0
1, 16926, Note_on_c, 0, 62, 45
1, 16951, Note_on_c, 0, 74, 0
1, 17014, Note_on_c, 0, 74, 36
1, 17017, Note_on_c, 0, 81, 0
1, 17018, Note_on_c, 0, 65, 38
1, 17018, Note_on_c, 0, 69, 41
1, 17081, Note_on_c, 0, 62, 0
1, 17143, Note_on_c, 0, 65, 0
1, 17147, Note_on_c, 0, 69, 0
1, 17179, Note_on_c, 0, 74, 0
1, 17220, Note_on_c, 0, 69, 32
1, 17283, Note_on_c, 0, 69, 0
1, 17287, Note_on_c, 0, 81, 64
1, 17324, Note_on_c, 0, 81, 0
1, 17359, Note_on_c, 0, 81, 65
1, 17362, Note_on_c, 0, 74, 29
1, 17366, Note_on_c, 0, 69, 26
1, 17367, Note_on_c, 0, 39, 36
1, 17368, Control_c, 0, 64, 0
1, 17402, Control_c, 0, 64, 127
1, 17412, Note_on_c, 0, 69, 0
1, 17416, Note_on_c, 0, 81, 0
1, 17423, Note_on_c, 0, 46, 48
1, 17425, Note_on_c, 0, 39, 0
1, 17426, Note_on_c, 0, 79, 50
1, 17427, Note_on_c, 0, 74, 0
1, 17440, Note_on_c, 0, 79, 0
1, 17482, Note_on_c, 0, 46, 0
1, 17490, Note_on_c, 0, 84, 61
1, 17490, Note_on_c, 0, 55, 33
1, 17491, Note_on_c, 0, 79, 54
1, 17493, Note_on_c, 0, 72, 50
1, 17542, Note_on_c, 0, 84, 0
1, 17546, Note_on_c, 0, 79, 0
1, 17554, Note_on_c, 0, 72, 0
1, 17556, Note_on_c, 0, 55, 0
1, 17560, Note_on_c, 0, 58, 39
1, 17634, Note_on_c, 0, 62, 33
1, 17635, Note_on_c, 0, 74, 26
1, 17637, Note_on_c, 0, 69, 29
1, 17638, Note_on_c, 0, 67, 34
1, 17663, Note_on_c, 0, 67, 0
1, 17672, Note_on_c, 0, 69, 0
1, 17705, Note_on_c, 0, 74, 0
1, 17729, Note_on_c, 0, 67, 34
1, 17780, Note_on_c, 0, 62, 0
1, 17815, Note_on_c, 0, 67, 0
1, 17820, Note_on_c, 0, 62, 24
1, 17891, Note_on_c, 0, 62, 0
1, 17892, Note_on_c, 0, 82, 76
1, 17894, Note_on_c, 0, 70, 77
1, 17904, Note_on_c, 0, 58, 0
1, 17925, Note_on_c, 0, 82, 0
1, 17932, Note_on_c, 0, 70, 0
1, 17978, Control_c, 0, 64, 0
1, 17978, Note_on_c, 0, 79, 47
1, 17981, Note_on_c, 0, 74, 35
1, 17981, Note_on_c, 0, 67, 55
1, 17984, Note_on_c, 0, 39, 44
1, 17992, Control_c, 0, 64, 127
1, 17996, Note_on_c, 0, 67, 0
1, 18003, Note_on_c, 0, 74, 0
1, 18006, Note_on_c, 0, 79, 0
1, 18052, Note_on_c, 0, 39, 0
1, 18062, Note_on_c, 0, 46, 49
1, 18064, Note_on_c, 0, 86, 71
1, 18065, Note_on_c, 0, 79, 67
1, 18066, Note_on_c, 0, 74, 60
1, 18102, Note_on_c, 0, 86, 0
1, 18107, Note_on_c, 0, 74, 0
1, 18109, Note_on_c, 0, 79, 0
1, 18138, Note_on_c, 0, 46, 0
1, 18138, Note_on_c, 0, 84, 71
1, 18140, Note_on_c, 0, 55, 61
1, 18141, Note_on_c, 0, 79, 55
1, 18142, Note_on_c, 0, 72, 62
1, 18201, Note_on_c, 0, 55, 0
1, 18207, Note_on_c, 0, 79, 0
1, 18209, Note_on_c, 0, 58, 57
1, 18214, Note_on_c, 0, 84, 0
1, 18224, Note_on_c, 0, 72, 0
1, 18276, Note_on_c, 0, 62, 47
1, 18277, Note_on_c, 0, 69, 56
1, 18278, Note_on_c, 0, 74, 49
1, 18312, Note_on_c, 0, 69, 0
1, 18351, Note_on_c, 0, 67, 34
1, 18365, Note_on_c, 0, 62, 0
1, 18370, Note_on_c, 0, 74, 0
1, 18423, Note_on_c, 0, 67, 0
1, 18425, Note_on_c, 0, 82, 67
1, 18427, Note_on_c, 0, 74, 71
1, 18428, Note_on_c, 0, 70, 75
1, 18429, Note_on_c, 0, 62, 53
1, 18431, Note_on_c, 0, 78, 44
1, 18437, Note_on_c, 0, 78, 0
1, 18444, Note_on_c, 0, 58, 0
1, 18514, Note_on_c, 0, 58, 46
1, 18519, Note_on_c, 0, 82, 0
1, 18523, Note_on_c, 0, 74, 0
1, 18534, Note_on_c, 0, 70, 0
1, 18537, Note_on_c, 0, 62, 0
1, 18547, Note_on_c, 0, 58, 0
1, 18604, Note_on_c, 0, 76, 34
1, 18605, Note_on_c, 0, 62, 35
1, 18607, Note_on_c, 0, 72, 39
1, 18608, Control_c, 0, 64, 0
1, 18609, Note_on_c, 0, 60, 40
1, 18611, Note_on_c, 0, 67, 24
1, 18679, Note_on_c, 0, 76, 0
1, 18680, Note_on_c, 0, 67, 0
1, 18685, Note_on_c, 0, 77, 56
1, 18687, Control_c, 0, 64, 127
1, 18688, Note_on_c, 0, 53, 33
1, 18716, Note_on_c, 0, 77, 0
1, 18735, Note_on_c, 0, 72, 0
1, 18759, Note_on_c, 0, 79, 50
1, 18768, Note_on_c, 0, 62, 0
1, 18770, Note_on_c, 0, 67, 24
1, 18781, Note_on_c, 0, 67, 0
1, 18783, Note_on_c, 0, 60, 0
1, 18787, Note_on_c, 0, 79, 0
1, 18830, Note_on_c, 0, 81, 64
1, 18832, Note_on_c, 0, 65, 37
1, 18834, Note_on_c, 0, 62, 26
1, 18835, Note_on_c, 0, 69, 62
1, 18840, Note_on_c, 0, 65, 0
1, 18844, Note_on_c, 0, 62, 0
1, 18851, Note_on_c, 0, 69, 0
1, 18853, Note_on_c, 0, 81, 0
1, 18862, Note_on_c, 0, 53, 0
1, 18998, Note_on_c, 0, 44, 60
1, 18998, Note_on_c, 0, 82, 75
1, 18999, Note_on_c, 0, 70, 67
1, 19000, Control_c, 0, 64, 0
1, 19007, Control_c, 0, 64, 127
1, 19015, Note_on_c, 0, 44, 0
1, 19039, Note_on_c, 0, 70, 0
1, 19042, Note_on_c, 0, 82, 0
1, 19093, Note_on_c, 0, 86, 66
1, 19095, Note_on_c, 0, 58, 53
1, 19095, Note_on_c, 0, 65, 59
1, 19096, Note_on_c, 0, 74, 55
1, 19097, Note_on_c, 0, 79, 50
1, 19097, Note_on_c, 0, 82, 49
1, 19098, Note_on_c, 0, 60, 50
1, 19099, Note_on_c, 0, 54, 31
1, 19109, Note_on_c, 0, 65, 0
1, 19115, Note_on_c, 0, 60, 0
1, 19119, Note_on_c, 0, 79, 0
1, 19119, Note_on_c, 0, 74, 0
1, 19122, Note_on_c, 0, 58, 0
1, 19125, Note_on_c, 0, 54, 0
1, 19126, Note_on_c, 0, 82, 0
1, 19127, Note_on_c, 0, 86, 0
1, 19222, Note_on_c, 0, 43, 56
1, 19223, Note_on_c, 0, 88, 74
1, 19223, Note_on_c, 0, 31, 62
1, 19224, Note_on_c, 0, 76, 53
1, 19225, Note_on_c, 0, 81, 66
1, 19226, Note_on_c, 0, 84, 57
1, 19226, Control_c, 0, 64, 0
1, 19245, Control_c, 0, 64, 127
1, 19270, Note_on_c, 0, 31, 0
1, 19277, Note_on_c, 0, 88, 0
1, 19280, Note_on_c, 0, 84, 0
1, 19281, Note_on_c, 0, 81, 0
1, 19283, Note_on_c, 0, 43, 0
1, 19290, Note_on_c, 0, 76, 0
1, 19422, Note_on_c, 0, 76, 28
1, 19425, Note_on_c, 0, 65, 36
1, 19427, Note_on_c, 0, 69, 42
1, 19427, Note_on_c, 0, 72, 36
1, 19429, Note_on_c, 0, 64, 44
1, 19517, Note_on_c, 0, 64, 0
1, 19556, Note_on_c, 0, 72, 0
1, 19558, Note_on_c, 0, 65, 0
1, 19560, Note_on_c, 0, 69, 0
1, 19577, Note_on_c, 0, 76, 0
1, 19624, Note_on_c, 0, 76, 30
1, 19626, Note_on_c, 0, 68, 27
1, 19627, Control_c, 0, 64, 0
1, 19627, Note_on_c, 0, 71, 35
1, 19628, Note_on_c, 0, 65, 37
1, 19629, Note_on_c, 0, 62, 38
1, 19662, Control_c, 0, 64, 127
1, 19689, Note_on_c, 0, 62, 0
1, 19835, Note_on_c, 0, 31, 39
1, 19861, Note_on_c, 0, 31, 0
1, 19937, Note_on_c, 0, 65, 0
1, 19964, Note_on_c, 0, 68, 0
1, 19971, Note_on_c, 0, 71, 0
1, 19994, Note_on_c, 0, 76, 0
1, 20126, Note_on_c, 0, 67, 27
1, 20126, Note_on_c, 0, 86, 63
1, 20127, Note_on_c, 0, 62, 30
1, 20131, Note_on_c, 0, 64, 29
1, 20135, Control_c, 0, 64, 0
1, 20146, Control_c, 0, 64, 127
1, 20174, Note_on_c, 0, 86, 0
1, 20175, Note_on_c, 0, 67, 0
1, 20187, Note_on_c, 0, 84, 60
1, 20229, Note_on_c, 0, 84, 0
1, 20237, Control_c, 0, 64, 0
1, 20243, Note_on_c, 0, 79, 42
1, 20247, Note_on_c, 0, 55, 32
1, 20257, Control_c, 0, 64, 127
1, 20263, Note_on_c, 0, 64, 0
1, 20271, Note_on_c, 0, 62, 0
1, 20297, Note_on_c, 0, 79, 0
1, 20355, Note_on_c, 0, 62, 22
1, 20357, Note_on_c, 0, 76, 25
1, 20360, Note_on_c, 0, 67, 24
1, 20362, Note_on_c, 0, 64, 28
1, 20384, Note_on_c, 0, 67, 0
1, 20419, Note_on_c, 0, 55, 0
1, 20422, Note_on_c, 0, 76, 0
1, 20486, Note_on_c, 0, 55, 35
1, 20523, Note_on_c, 0, 64, 0
1, 20524, Note_on_c, 0, 62, 0
1, 20560, Note_on_c, 0, 88, 81
1, 20576, Note_on_c, 0, 88, 0
1, 20584, Note_on_c, 0, 55, 0
1, 20593, Note_on_c, 0, 88, 73
1, 20615, Note_on_c, 0, 88, 0
1, 20624, Note_on_c, 0, 86, 58
1, 20640, Note_on_c, 0, 86, 0
1, 20642, Control_c, 0, 64, 0
1, 20658, Note_on_c, 0, 43, 44
1, 20658, Note_on_c, 0, 88, 74
1, 20659, Control_c, 0, 64, 127
1, 20678, Note_on_c, 0, 88, 0
1, 20681, Note_on_c, 0, 43, 0
1, 20810, Note_on_c, 0, 76, 35
1, 20813, Note_on_c, 0, 68, 32
1, 20813, Note_on_c, 0, 71, 42
1, 20814, Note_on_c, 0, 65, 42
1, 20818, Note_on_c, 0, 64, 35
1, 20921, Note_on_c, 0, 71, 0
1, 20930, Note_on_c, 0, 68, 0
1, 20934, Note_on_c, 0, 64, 0
1, 20939, Note_on_c, 0, 65, 0
1, 20988, Note_on_c, 0, 76, 0
1, 21016, Note_on_c, 0, 73, 37
1, 21018, Note_on_c, 0, 76, 26
1, 21020, Note_on_c, 0, 65, 30
1, 21021, Note_on_c, 0, 71, 31
1, 21022, Note_on_c, 0, 68, 31
1, 21024, Note_on_c, 0, 64, 33
1, 21077, Note_on_c, 0, 64, 0
1, 21234, Note_on_c, 0, 31, 32
1, 21248, Note_on_c, 0, 31, 0
1, 21335, Note_on_c, 0, 65, 0
1, 21353, Note_on_c, 0, 71, 0
1, 21353, Note_on_c, 0, 68, 0
1, 21364, Note_on_c, 0, 76, 0
1, 21372, Note_on_c, 0, 73, 0
1, 21536, Note_on_c, 0, 86, 74
1, 21539, Note_on_c, 0, 79, 61
1, 21539, Note_on_c, 0, 76, 52
1, 21539, Note_on_c, 0, 71, 53
1, 21543, Note_on_c, 0, 83, 36
1, 21544, Note_on_c, 0, 84, 29
1, 21551, Note_on_c, 0, 84, 0
1, 21584, Note_on_c, 0, 83, 0
1, 21588, Note_on_c, 0, 86, 0
1, 21594, Note_on_c, 0, 79, 0
1, 21594, Note_on_c, 0, 71, 0
1, 21595, Note_on_c, 0, 76, 0
1, 21616, Note_on_c, 0, 84, 58
1, 21619, Note_on_c, 0, 79, 65
1, 21619, Note_on_c, 0, 74, 54
1, 21620, Note_on_c, 0, 69, 50
1, 21643, Note_on_c, 0, 84, 0
1, 21652, Note_on_c, 0, 79, 0
1, 21654, Note_on_c, 0, 69, 0
1, 21659, Note_on_c, 0, 74, 0
1, 21708, Note_on_c, 0, 79, 49
1, 21710, Note_on_c, 0, 74, 46
1, 21710, Note_on_c, 0, 69, 52
1, 21711, Note_on_c, 0, 64, 40
1, 21720, Control_c, 0, 64, 0
1, 21725, Control_c, 0, 64, 127
1, 21768, Note_on_c, 0, 79, 0
1, 21771, Note_on_c, 0, 74, 0
1, 21772, Note_on_c, 0, 64, 0
1, 21784, Note_on_c, 0, 69, 0
1, 21910, Note_on_c, 0, 67, 37
1, 21914, Note_on_c, 0, 64, 34
1, 21915, Note_on_c, 0, 62, 31
1, 21915, Note_on_c, 0, 59, 28
1, 21917, Note_on_c, 0, 48, 29
1, 21919, Note_on_c, 0, 55, 35
1, 21923, Control_c, 0, 64, 0
1, 21944, Control_c, 0, 64, 127
1, 21997, Note_on_c, 0, 59, 0
1, 22007, Note_on_c, 0, 62, 0
1, 22011, Note_on_c, 0, 64, 0
1, 22013, Note_on_c, 0, 67, 0
1, 22108, Note_on_c, 0, 69, 99
1, 22117, Note_on_c, 0, 48, 0
1, 22138, Note_on_c, 0, 69, 0
1, 22190, Control_c, 0, 64, 0
1, 22190, Note_on_c, 0, 74, 71
1, 22191, Note_on_c, 0, 55, 0
1, 22191, Note_on_c, 0, 67, 82
1, 22192, Note_on_c, 0, 48, 47
1, 22193, Note_on_c, 0, 63, 69
1, 22193, Note_on_c, 0, 70, 56
1, 22194, Note_on_c, 0, 58, 64
1, 22228, Control_c, 0, 64, 127
1, 22310, Note_on_c, 0, 58, 0
1, 22313, Note_on_c, 0, 55, 28
1, 22397, Note_on_c, 0, 63, 0
1, 22406, Note_on_c, 0, 67, 0
1, 22428, Note_on_c, 0, 70, 0
1, 22428, Note_on_c, 0, 67, 26
1, 22431, Note_on_c, 0, 74, 0
1, 22431, Note_on_c, 0, 63, 30
1, 22433, Note_on_c, 0, 58, 19
1, 22476, Note_on_c, 0, 48, 0
1, 22483, Note_on_c, 0, 55, 0
1, 22508, Note_on_c, 0, 58, 0
1, 22521, Note_on_c, 0, 63, 0
1, 22532, Note_on_c, 0, 72, 44
1, 22540, Note_on_c, 0, 67, 0
1, 22590, Note_on_c, 0, 72, 0
1, 22650, Control_c, 0, 64, 0
1, 22654, Note_on_c, 0, 74, 29
1, 22654, Note_on_c, 0, 66, 34
1, 22659, Note_on_c, 0, 53, 30
1, 22659, Note_on_c, 0, 63, 23
1, 22660, Note_on_c, 0, 58, 46
1, 22662, Note_on_c, 0, 69, 22
1, 22671, Control_c, 0, 64, 127
1, 22687, Note_on_c, 0, 69, 0
1, 22690, Note_on_c, 0, 66, 0
1, 22700, Note_on_c, 0, 74, 0
1, 22761, Note_on_c, 0, 63, 0
1, 22764, Note_on_c, 0, 81, 55
1, 22765, Note_on_c, 0, 74, 41
1, 22767, Note_on_c, 0, 60, 43
1, 22773, Note_on_c, 0, 58, 0
1, 22837, Note_on_c, 0, 74, 0
1, 22880, Note_on_c, 0, 81, 0
1, 22885, Note_on_c, 0, 78, 31
1, 22887, Note_on_c, 0, 74, 24
1, 22889, Note_on_c, 0, 63, 31
1, 22890, Note_on_c, 0, 69, 34
1, 22923, Note_on_c, 0, 63, 0
1, 22928, Note_on_c, 0, 60, 0
1, 22930, Note_on_c, 0, 53, 0
1, 23267, Note_on_c, 0, 78, 0
1, 23310, Note_on_c, 0, 74, 0
1, 23332, Note_on_c, 0, 69, 0
1, 23478, Control_c, 0, 64, 0
1, 23479, Note_on_c, 0, 65, 40
1, 23479, Note_on_c, 0, 62, 34
1, 23480, Note_on_c, 0, 77, 52
1, 23484, Note_on_c, 0, 60, 41
1, 23513, Control_c, 0, 64, 127
1, 23555, Note_on_c, 0, 77, 0
1, 23560, Note_on_c, 0, 74, 38
1, 23583, Note_on_c, 0, 74, 0
1, 23630, Note_on_c, 0, 77, 54
1, 23630, Note_on_c, 0, 58, 43
1, 23650, Note_on_c, 0, 77, 0
1, 23701, Note_on_c, 0, 60, 0
1, 23707, Note_on_c, 0, 62, 0
1, 23731, Note_on_c, 0, 81, 63
1, 23745, Note_on_c, 0, 65, 0
1, 23872, Note_on_c, 0, 81, 0
1, 24064, Note_on_c, 0, 67, 26
1, 24064, Note_on_c, 0, 72, 40
1, 24068, Note_on_c, 0, 70, 36
1, 24070, Note_on_c, 0, 63, 30
1, 24071, Control_c, 0, 64, 0
1, 24112, Control_c, 0, 64, 127
1, 24141, Note_on_c, 0, 58, 0
1, 24154, Note_on_c, 0, 70, 0
1, 24174, Note_on_c, 0, 58, 32
1, 24233, Note_on_c, 0, 58, 0
1, 24256, Note_on_c, 0, 72, 0
1, 24259, Note_on_c, 0, 58, 51
1, 24279, Note_on_c, 0, 63, 0
1, 24280, Note_on_c, 0, 67, 0
1, 24329, Note_on_c, 0, 72, 77
1, 24385, Note_on_c, 0, 72, 0
1, 24402, Note_on_c, 0, 70, 49
1, 24403, Note_on_c, 0, 63, 51
1, 24404, Note_on_c, 0, 75, 84
1, 24405, Note_on_c, 0, 67, 36
1, 24456, Note_on_c, 0, 58, 0
1, 24474, Note_on_c, 0, 70, 0
1, 24497, Note_on_c, 0, 58, 25
1, 24515, Note_on_c, 0, 58, 0
1, 24574, Note_on_c, 0, 58, 46
1, 24595, Note_on_c, 0, 75, 0
1, 24603, Note_on_c, 0, 67, 0
1, 24606, Note_on_c, 0, 63, 0
1, 24657, Note_on_c, 0, 79, 71
1, 24699, Note_on_c, 0, 79, 0
1, 24731, Note_on_c, 0, 63, 34
1, 24732, Note_on_c, 0, 79, 53
1, 24732, Note_on_c, 0, 70, 27
1, 24736, Note_on_c, 0, 67, 27
1, 24782, Note_on_c, 0, 58, 0
1, 24795, Note_on_c, 0, 70, 0
1, 24808, Note_on_c, 0, 58, 44
1, 24836, Note_on_c, 0, 67, 0
1, 24845, Note_on_c, 0, 63, 0
1, 24869, Note_on_c, 0, 70, 49
1, 24880, Note_on_c, 0, 79, 0
1, 24904, Note_on_c, 0, 70, 0
1, 24919, Note_on_c, 0, 58, 0
1, 24930, Note_on_c, 0, 82, 71
1, 24932, Note_on_c, 0, 63, 30
1, 24934, Note_on_c, 0, 67, 15
1, 24945, Note_on_c, 0, 67, 0
1, 24948, Note_on_c, 0, 82, 0
1, 24995, Note_on_c, 0, 63, 0
1, 25007, Note_on_c, 0, 86, 60
1, 25007, Note_on_c, 0, 58, 46
1, 25008, Control_c, 0, 64, 0
1, 25008, Note_on_c, 0, 77, 44
1, 25012, Note_on_c, 0, 69, 36
1, 25030, Note_on_c, 0, 65, 8
1, 25054, Control_c, 0, 64, 127
1, 25066, Note_on_c, 0, 65, 0
1, 25085, Note_on_c, 0, 69, 0
1, 25087, Note_on_c, 0, 86, 0
1, 25089, Note_on_c, 0, 65, 32
1, 25098, Note_on_c, 0, 77, 0
1, 25134, Note_on_c, 0, 65, 0
1, 25166, Note_on_c, 0, 81, 43
1, 25169, Note_on_c, 0, 74, 35
1, 25176, Note_on_c, 0, 69, 32
1, 25182, Note_on_c, 0, 65, 10
1, 25205, Note_on_c, 0, 58, 0
1, 25212, Note_on_c, 0, 81, 0
1, 25235, Note_on_c, 0, 74, 0
1, 25241, Note_on_c, 0, 65, 0
1, 25247, Note_on_c, 0, 69, 0
1, 25247, Note_on_c, 0, 58, 35
1, 25267, Note_on_c, 0, 58, 0
1, 25402, Note_on_c, 0, 46, 37
1, 25488, Note_on_c, 0, 62, 40
1, 25493, Note_on_c, 0, 57, 43
1, 25514, Note_on_c, 0, 53, 1
1, 25528, Note_on_c, 0, 62, 0
1, 25547, Note_on_c, 0, 57, 0
1, 25558, Note_on_c, 0, 46, 0
1, 25575, Note_on_c, 0, 46, 48
1, 25666, Note_on_c, 0, 53, 0
1, 25671, Note_on_c, 0, 67, 62
1, 25671, Note_on_c, 0, 63, 52
1, 25672, Note_on_c, 0, 60, 74
1, 25695, Control_c, 0, 64, 0
1, 25700, Control_c, 0, 64, 127
1, 25732, Control_c, 0, 64, 0
1, 25753, Note_on_c, 0, 58, 74
1, 25772, Control_c, 0, 64, 127
1, 25805, Note_on_c, 0, 60, 0
1, 25805, Note_on_c, 0, 46, 0
1, 25810, Note_on_c, 0, 63, 0
1, 25839, Note_on_c, 0, 67, 0
1, 25841, Note_on_c, 0, 63, 51
1, 25842, Note_on_c, 0, 58, 0
1, 25843, Note_on_c, 0, 46, 53
1, 25846, Note_on_c, 0, 60, 46
1, 25866, Note_on_c, 0, 46, 0
1, 25936, Note_on_c, 0, 34, 48
1, 25957, Note_on_c, 0, 34, 0
1, 25971, Note_on_c, 0, 60, 0
1, 25998, Note_on_c, 0, 63, 0
1, 26084, Note_on_c, 0, 62, 39
1, 26087, Note_on_c, 0, 56, 29
1, 26089, Note_on_c, 0, 34, 29
1, 26090, Note_on_c, 0, 22, 30
1, 26092, Note_on_c, 0, 59, 44
1, 26092, Control_c, 0, 64, 0
1, 26155, Control_c, 0, 64, 127
1, 26215, Note_on_c, 0, 56, 0
1, 26220, Note_on_c, 0, 59, 0
1, 26225, Note_on_c, 0, 62, 0
1, 26314, Note_on_c, 0, 22, 0
1, 26343, Note_on_c, 0, 34, 0
1, 26419, Note_on_c, 0, 74, 17
1, 26446, Note_on_c, 0, 75, 44
1, 26456, Note_on_c, 0, 74, 0
1, 26464, Note_on_c, 0, 76, 51
1, 26469, Note_on_c, 0, 75, 0
1, 26483, Note_on_c, 0, 76, 0
1, 26492, Control_c, 0, 64, 0
1, 26493, Note_on_c, 0, 77, 79
1, 26503, Note_on_c, 0, 51, 56
1, 26554, Control_c, 0, 64, 127
1, 26583, Note_on_c, 0, 58, 43
1, 26593, Note_on_c, 0, 51, 0
1, 26647, Note_on_c, 0, 77, 0
1, 26653, Note_on_c, 0, 74, 55
1, 26655, Note_on_c, 0, 65, 32
1, 26687, Note_on_c, 0, 70, 5
1, 26695, Note_on_c, 0, 74, 0
1, 26698, Note_on_c, 0, 65, 0
1, 26703, Note_on_c, 0, 75, 67
1, 26712, Note_on_c, 0, 58, 0
1, 26729, Note_on_c, 0, 70, 0
1, 26734, Note_on_c, 0, 75, 0
1, 26735, Note_on_c, 0, 77, 66
1, 26757, Note_on_c, 0, 77, 0
1, 26769, Note_on_c, 0, 75, 58
1, 26774, Note_on_c, 0, 50, 50
1, 26782, Control_c, 0, 64, 0
1, 26823, Control_c, 0, 64, 127
1, 26831, Note_on_c, 0, 57, 46
1, 26887, Note_on_c, 0, 75, 0
1, 26887, Note_on_c, 0, 66, 39
1, 26890, Note_on_c, 0, 69, 58
1, 26895, Note_on_c, 0, 60, 33
1, 26929, Note_on_c, 0, 66, 0
1, 26932, Note_on_c, 0, 57, 0
1, 26933, Note_on_c, 0, 50, 0
1, 26936, Note_on_c, 0, 74, 61
1, 26940, Note_on_c, 0, 60, 0
1, 26940, Note_on_c, 0, 69, 0
1, 26974, Note_on_c, 0, 74, 0
1, 26989, Control_c, 0, 64, 0
1, 26993, Note_on_c, 0, 43, 51
1, 26995, Note_on_c, 0, 77, 70
1, 27005, Note_on_c, 0, 43, 0
1, 27008, Control_c, 0, 64, 127
1, 27058, Note_on_c, 0, 77, 0
1, 27061, Note_on_c, 0, 55, 41
1, 27061, Note_on_c, 0, 62, 43
1, 27063, Note_on_c, 0, 74, 54
1, 27064, Note_on_c, 0, 58, 53
1, 27111, Note_on_c, 0, 74, 0
1, 27121, Note_on_c, 0, 75, 77
1, 27171, Note_on_c, 0, 75, 0
1, 27176, Note_on_c, 0, 62, 0
1, 27177, Note_on_c, 0, 55, 0
1, 27182, Note_on_c, 0, 77, 64
1, 27186, Note_on_c, 0, 75, 36
1, 27193, Note_on_c, 0, 58, 0
1, 27203, Note_on_c, 0, 77, 0
1, 27205, Note_on_c, 0, 75, 0
1, 27243, Control_c, 0, 64, 0
1, 27247, Note_on_c, 0, 75, 49
1, 27248, Note_on_c, 0, 72, 50
1, 27248, Note_on_c, 0, 65, 46
1, 27250, Note_on_c, 0, 68, 34
1, 27250, Note_on_c, 0, 63, 42
1, 27274, Control_c, 0, 64, 127
1, 27307, Note_on_c, 0, 63, 0
1, 27351, Note_on_c, 0, 72, 0
1, 27356, Note_on_c, 0, 65, 0
1, 27358, Note_on_c, 0, 75, 0
1, 27375, Note_on_c, 0, 68, 0
1, 27410, Control_c, 0, 64, 0
1, 27413, Note_on_c, 0, 67, 40
1, 27414, Note_on_c, 0, 74, 33
1, 27414, Note_on_c, 0, 56, 27
1, 27415, Note_on_c, 0, 62, 44
1, 27415, Note_on_c, 0, 46, 30
1, 27428, Control_c, 0, 64, 127
1, 27441, Note_on_c, 0, 62, 0
1, 27446, Note_on_c, 0, 67, 0
1, 27449, Note_on_c, 0, 74, 0
1, 27484, Note_on_c, 0, 77, 58
1, 27492, Note_on_c, 0, 56, 0
1, 27494, Note_on_c, 0, 46, 0
1, 27504, Note_on_c, 0, 77, 0
1, 27648, Note_on_c, 0, 74, 39
1, 27649, Note_on_c, 0, 70, 34
1, 27651, Note_on_c, 0, 62, 37
1, 27653, Note_on_c, 0, 67, 33
1, 27653, Note_on_c, 0, 51, 36
1, 27654, Control_c, 0, 64, 0
1, 27709, Control_c, 0, 64, 127
1, 27720, Note_on_c, 0, 62, 0
1, 27722, Note_on_c, 0, 58, 39
1, 27724, Note_on_c, 0, 67, 0
1, 27742, Note_on_c, 0, 70, 0
1, 27767, Note_on_c, 0, 74, 0
1, 27785, Note_on_c, 0, 62, 40
1, 27786, Note_on_c, 0, 70, 55
1, 27789, Note_on_c, 0, 67, 58
1, 27941, Note_on_c, 0, 74, 53
1, 27970, Note_on_c, 0, 74, 0
1, 27970, Note_on_c, 0, 62, 0
1, 27981, Note_on_c, 0, 74, 55
1, 27989, Note_on_c, 0, 58, 0
1, 27995, Note_on_c, 0, 51, 0
1, 27998, Note_on_c, 0, 74, 0
1, 27999, Note_on_c, 0, 67, 0
1, 28004, Note_on_c, 0, 70, 0
1, 28019, Note_on_c, 0, 75, 74
1, 28037, Note_on_c, 0, 75, 0
1, 28062, Note_on_c, 0, 74, 44
1, 28064, Note_on_c, 0, 63, 37
1, 28064, Note_on_c, 0, 48, 40
1, 28065, Note_on_c, 0, 58, 29
1, 28066, Note_on_c, 0, 67, 38
1, 28070, Control_c, 0, 64, 0
1, 28127, Control_c, 0, 64, 127
1, 28138, Note_on_c, 0, 55, 32
1, 28153, Note_on_c, 0, 58, 0
1, 28166, Note_on_c, 0, 67, 0
1, 28192, Note_on_c, 0, 63, 0
1, 28224, Note_on_c, 0, 74, 0
1, 28252, Note_on_c, 0, 72, 47
1, 28277, Note_on_c, 0, 55, 0
1, 28296, Note_on_c, 0, 72, 0
1, 28315, Note_on_c, 0, 74, 49
1, 28319, Note_on_c, 0, 63, 31
1, 28321, Note_on_c, 0, 67, 35
1, 28323, Note_on_c, 0, 58, 33
1, 28365, Note_on_c, 0, 67, 0
1, 28372, Note_on_c, 0, 74, 0
1, 28374, Note_on_c, 0, 70, 49
1, 28409, Note_on_c, 0, 63, 0
1, 28417, Note_on_c, 0, 70, 0
1, 28420, Note_on_c, 0, 58, 0
1, 28448, Note_on_c, 0, 70, 46
1, 28448, Note_on_c, 0, 63, 42
1, 28449, Note_on_c, 0, 48, 0
1, 28450, Note_on_c, 0, 67, 32
1, 28453, Note_on_c, 0, 58, 25
1, 28478, Note_on_c, 0, 58, 0
1, 28497, Note_on_c, 0, 70, 0
1, 28498, Note_on_c, 0, 63, 0
1, 28505, Note_on_c, 0, 67, 0
1, 28524, Note_on_c, 0, 70, 57
1, 28553, Note_on_c, 0, 70, 0
1, 28607, Note_on_c, 0, 75, 59
1, 28610, Note_on_c, 0, 70, 48
1, 28611, Note_on_c, 0, 67, 34
1, 28611, Note_on_c, 0, 63, 34
1, 28613, Note_on_c, 0, 58, 40
1, 28613, Note_on_c, 0, 53, 29
1, 28614, Control_c, 0, 64, 0
1, 28644, Control_c, 0, 64, 127
1, 28665, Note_on_c, 0, 75, 0
1, 28684, Note_on_c, 0, 70, 0
1, 28685, Note_on_c, 0, 63, 0
1, 28686, Note_on_c, 0, 74, 54
1, 28688, Note_on_c, 0, 67, 0
1, 28691, Note_on_c, 0, 60, 38
1, 28705, Note_on_c, 0, 74, 0
1, 28721, Note_on_c, 0, 60, 0
1, 28725, Note_on_c, 0, 58, 0
1, 28770, Note_on_c, 0, 70, 46
1, 28773, Note_on_c, 0, 67, 46
1, 28773, Note_on_c, 0, 63, 35
1, 28781, Note_on_c, 0, 60, 20
1, 28782, Note_on_c, 0, 53, 0
1, 28968, Note_on_c, 0, 29, 34
1, 29063, Note_on_c, 0, 67, 0
1, 29084, Note_on_c, 0, 70, 0
1, 29103, Note_on_c, 0, 60, 0
1, 29109, Note_on_c, 0, 63, 0
1, 29355, Control_c, 0, 64, 0
1, 29356, Note_on_c, 0, 67, 40
1, 29357, Note_on_c, 0, 63, 40
1, 29359, Note_on_c, 0, 41, 30
1, 29360, Note_on_c, 0, 58, 23
1, 29364, Control_c, 0, 64, 127
1, 29384, Note_on_c, 0, 41, 0
1, 29391, Note_on_c, 0, 29, 0
1, 29557, Note_on_c, 0, 58, 0
1, 29588, Note_on_c, 0, 67, 0
1, 29610, Note_on_c, 0, 63, 0
1, 29673, Control_c, 0, 64, 0
1, 29677, Note_on_c, 0, 62, 36
1, 29679, Note_on_c, 0, 46, 30
1, 29680, Note_on_c, 0, 57, 36
1, 29680, Note_on_c, 0, 65, 47
1, 29684, Note_on_c, 0, 53, 22
1, 29708, Control_c, 0, 64, 127
1, 29719, Note_on_c, 0, 57, 0
1, 29732, Note_on_c, 0, 62, 0
1, 29775, Note_on_c, 0, 65, 0
1, 29783, Note_on_c, 0, 62, 57
1, 29811, Note_on_c, 0, 62, 0
1, 29844, Note_on_c, 0, 65, 58
1, 29847, Note_on_c, 0, 57, 35
1, 29876, Note_on_c, 0, 57, 0
1, 29880, Note_on_c, 0, 65, 0
1, 29891, Note_on_c, 0, 69, 59
1, 29931, Note_on_c, 0, 69, 0
1, 29976, Note_on_c, 0, 53, 0
1, 30011, Note_on_c, 0, 70, 39
1, 30012, Note_on_c, 0, 72, 37
1, 30015, Note_on_c, 0, 67, 35
1, 30015, Note_on_c, 0, 63, 30
1, 30017, Control_c, 0, 64, 0
1, 30018, Note_on_c, 0, 58, 18
1, 30058, Control_c, 0, 64, 127
1, 30083, Note_on_c, 0, 67, 0
1, 30105, Note_on_c, 0, 63, 0
1, 30120, Note_on_c, 0, 58, 0
1, 30140, Note_on_c, 0, 72, 0
1, 30176, Note_on_c, 0, 63, 27
1, 30176, Note_on_c, 0, 67, 36
1, 30178, Note_on_c, 0, 60, 31
1, 30181, Note_on_c, 0, 58, 27
1, 30233, Note_on_c, 0, 67, 0
1, 30236, Note_on_c, 0, 70, 0
1, 30243, Note_on_c, 0, 58, 0
1, 30245, Note_on_c, 0, 63, 0
1, 30253, Note_on_c, 0, 60, 0
1, 30273, Note_on_c, 0, 46, 0
1, 30337, Control_c, 0, 64, 0
1, 30337, Note_on_c, 0, 63, 23
1, 30337, Note_on_c, 0, 46, 42
1, 30338, Note_on_c, 0, 58, 33
1, 30339, Note_on_c, 0, 60, 18
1, 30340, Note_on_c, 0, 55, 22
1, 30342, Control_c, 0, 64, 127
1, 30389, Note_on_c, 0, 55, 0
1, 30418, Note_on_c, 0, 60, 0
1, 30429, Note_on_c, 0, 58, 0
1, 30442, Note_on_c, 0, 63, 0
1, 30502, Note_on_c, 0, 60, 52
1, 30505, Note_on_c, 0, 58, 28
1, 30526, Note_on_c, 0, 60, 0
1, 30548, Note_on_c, 0, 63, 85
1, 30578, Note_on_c, 0, 63, 0
1, 30599, Note_on_c, 0, 63, 86
1, 30606, Note_on_c, 0, 58, 0
1, 30661, Note_on_c, 0, 58, 45
1, 30663, Note_on_c, 0, 63, 0
1, 30711, Note_on_c, 0, 67, 57
1, 30712, Note_on_c, 0, 63, 56
1, 30739, Note_on_c, 0, 67, 0
1, 30742, Note_on_c, 0, 63, 0
1, 30763, Note_on_c, 0, 67, 58
1, 30764, Note_on_c, 0, 63, 71
1, 30768, Note_on_c, 0, 46, 0
1, 30801, Note_on_c, 0, 67, 0
1, 30820, Note_on_c, 0, 46, 34
1, 30836, Note_on_c, 0, 63, 0
1, 30869, Note_on_c, 0, 63, 53
1, 30873, Note_on_c, 0, 70, 43
1, 30884, Note_on_c, 0, 63, 0
1, 30889, Note_on_c, 0, 70, 0
1, 30899, Note_on_c, 0, 46, 0
1, 30903, Note_on_c, 0, 58, 0
1, 30922, Note_on_c, 0, 77, 62
1, 30972, Note_on_c, 0, 77, 0
1, 30977, Note_on_c, 0, 74, 38
1, 30980, Note_on_c, 0, 69, 36
1, 30982, Note_on_c, 0, 65, 32
1, 30982, Note_on_c, 0, 62, 33
1, 30983, Control_c, 0, 64, 0
1, 30984, Note_on_c, 0, 60, 37
1, 31009, Control_c, 0, 64, 127
1, 31024, Note_on_c, 0, 65, 0
1, 31084, Note_on_c, 0, 69, 0
1, 31142, Note_on_c, 0, 53, 31
1, 31178, Note_on_c, 0, 74, 0
1, 31202, Note_on_c, 0, 62, 0
1, 31204, Note_on_c, 0, 60, 0
1, 31241, Note_on_c, 0, 65, 30
1, 31242, Note_on_c, 0, 69, 40
1, 31249, Note_on_c, 0, 65, 0
1, 31254, Note_on_c, 0, 69, 0
1, 31312, Note_on_c, 0, 62, 28
1, 31313, Note_on_c, 0, 65, 29
1, 31315, Note_on_c, 0, 81, 77
1, 31315, Note_on_c, 0, 74, 74
1, 31347, Note_on_c, 0, 81, 0
1, 31352, Note_on_c, 0, 74, 0
1, 31353, Note_on_c, 0, 65, 0
1, 31356, Note_on_c, 0, 77, 48
1, 31361, Note_on_c, 0, 69, 44
1, 31376, Note_on_c, 0, 62, 0
1, 31378, Note_on_c, 0, 77, 0
1, 31389, Note_on_c, 0, 69, 0
1, 31483, Note_on_c, 0, 62, 28
1, 31530, Note_on_c, 0, 67, 36
1, 31539, Note_on_c, 0, 67, 0
1, 31545, Note_on_c, 0, 53, 0
1, 31554, Note_on_c, 0, 62, 0
1, 31558, Note_on_c, 0, 68, 37
1, 31578, Note_on_c, 0, 68, 0
1, 31586, Note_on_c, 0, 70, 60
1, 31598, Note_on_c, 0, 70, 0
1, 31613, Note_on_c, 0, 72, 68
1, 31631, Note_on_c, 0, 72, 0
1, 31643, Note_on_c, 0, 75, 65
1, 31652, Control_c, 0, 64, 0
1, 31654, Note_on_c, 0, 68, 18
1, 31659, Note_on_c, 0, 60, 32
1, 31659, Note_on_c, 0, 58, 25
1, 31659, Note_on_c, 0, 63, 23
1, 31665, Note_on_c, 0, 75, 0
1, 31677, Note_on_c, 0, 72, 32
1, 31695, Note_on_c, 0, 72, 0
1, 31705, Note_on_c, 0, 74, 46
1, 31725, Note_on_c, 0, 74, 0
1, 31735, Note_on_c, 0, 75, 60
1, 31747, Note_on_c, 0, 75, 0
1, 31763, Note_on_c, 0, 77, 49
1, 31777, Note_on_c, 0, 77, 0
1, 31788, Note_on_c, 0, 79, 58
1, 31791, Note_on_c, 0, 68, 0
1, 31801, Note_on_c, 0, 79, 0
1, 31815, Note_on_c, 0, 80, 72
1, 31820, Note_on_c, 0, 63, 0
1, 31830, Note_on_c, 0, 80, 0
1, 31845, Note_on_c, 0, 82, 64
1, 31857, Note_on_c, 0, 82, 0
1, 31869, Note_on_c, 0, 84, 71
1, 31882, Note_on_c, 0, 84, 0
1, 31898, Note_on_c, 0, 86, 68
1, 31910, Note_on_c, 0, 58, 0
1, 31912, Note_on_c, 0, 86, 0
1, 31914, Note_on_c, 0, 60, 0
1, 31929, Note_on_c, 0, 87, 69
1, 31941, Note_on_c, 0, 87, 0
1, 31967, Note_on_c, 0, 89, 54
1, 31968, Note_on_c, 0, 56, 33
1, 31969, Note_on_c, 0, 62, 32
1, 31970, Note_on_c, 0, 67, 24
1, 31978, Control_c, 0, 64, 127
1, 31998, Note_on_c, 0, 67, 0
1, 32002, Note_on_c, 0, 62, 0
1, 32006, Note_on_c, 0, 89, 0
1, 32014, Note_on_c, 0, 56, 0
1, 32075, Note_on_c, 0, 46, 34
1, 32137, Note_on_c, 0, 71, 24
1, 32137, Note_on_c, 0, 56, 34
1, 32139, Note_on_c, 0, 62, 25
1, 32139, Note_on_c, 0, 67, 32
1, 32186, Note_on_c, 0, 62, 0
1, 32189, Note_on_c, 0, 46, 0
1, 32195, Note_on_c, 0, 67, 0
1, 32199, Note_on_c, 0, 71, 0
1, 32201, Note_on_c, 0, 56, 0
1, 32250, Note_on_c, 0, 77, 63
1, 32278, Note_on_c, 0, 77, 0
1, 32307, Note_on_c, 0, 77, 54
1, 32307, Note_on_c, 0, 51, 40
1, 32309, Note_on_c, 0, 70, 46
1, 32310, Control_c, 0, 64, 0
1, 32312, Note_on_c, 0, 65, 55
1, 32314, Note_on_c, 0, 62, 39
1, 32352, Control_c, 0, 64, 127
1, 32397, Note_on_c, 0, 62, 0
1, 32420, Note_on_c, 0, 65, 0
1, 32450, Note_on_c, 0, 70, 0
1, 32453, Note_on_c, 0, 77, 0
1, 32483, Note_on_c, 0, 62, 36
1, 32484, Note_on_c, 0, 74, 41
1, 32485, Note_on_c, 0, 70, 35
1, 32488, Note_on_c, 0, 65, 36
1, 32532, Note_on_c, 0, 74, 0
1, 32543, Note_on_c, 0, 75, 59
1, 32569, Note_on_c, 0, 51, 0
1, 32570, Note_on_c, 0, 62, 0
1, 32572, Note_on_c, 0, 65, 0
1, 32579, Note_on_c, 0, 75, 0
1, 32586, Note_on_c, 0, 70, 0
1, 32592, Note_on_c, 0, 77, 67
1, 32612, Note_on_c, 0, 77, 0
1, 32650, Note_on_c, 0, 75, 60
1, 32651, Note_on_c, 0, 66, 52
1, 32651, Note_on_c, 0, 50, 40
1, 32652, Note_on_c, 0, 60, 42
1, 32654, Control_c, 0, 64, 0
1, 32675, Control_c, 0, 64, 127
1, 32692, Note_on_c, 0, 66, 0
1, 32706, Note_on_c, 0, 75, 0
1, 32769, Note_on_c, 0, 50, 0
1, 32770, Note_on_c, 0, 60, 0
1, 32777, Note_on_c, 0, 92, 71
1, 32798, Note_on_c, 0, 92, 0
1, 32839, Note_on_c, 0, 94, 83
1, 32842, Note_on_c, 0, 54, 49
1, 32843, Note_on_c, 0, 62, 46
1, 32845, Control_c, 0, 64, 0
1, 32846, Note_on_c, 0, 60, 37
1, 32869, Note_on_c, 0, 90, 69
1, 32880, Note_on_c, 0, 94, 0
1, 32887, Note_on_c, 0, 90, 0
1, 32894, Note_on_c, 0, 89, 61
1, 32902, Note_on_c, 0, 89, 0
1, 32921, Note_on_c, 0, 87, 64
1, 32940, Note_on_c, 0, 87, 0
1, 32940, Note_on_c, 0, 60, 0
1, 32949, Note_on_c, 0, 62, 0
1, 32951, Note_on_c, 0, 86, 53
1, 32960, Note_on_c, 0, 54, 0
1, 32967, Note_on_c, 0, 86, 0
1, 32980, Note_on_c, 0, 84, 41
1, 32981, Control_c, 0, 64, 127
1, 32990, Note_on_c, 0, 84, 0
1, 33004, Note_on_c, 0, 82, 57
1, 33021, Control_c, 0, 64, 0
1, 33022, Note_on_c, 0, 82, 0
1, 33030, Note_on_c, 0, 62, 28
1, 33031, Note_on_c, 0, 55, 28
1, 33034, Note_on_c, 0, 58, 40
1, 33034, Note_on_c, 0, 81, 51
1, 33052, Note_on_c, 0, 81, 0
1, 33067, Note_on_c, 0, 84, 35
1, 33083, Note_on_c, 0, 84, 0
1, 33092, Note_on_c, 0, 81, 53
1, 33103, Note_on_c, 0, 81, 0
1, 33123, Note_on_c, 0, 82, 56
1, 33140, Note_on_c, 0, 62, 0
1, 33154, Control_c, 0, 64, 127
1, 33168, Note_on_c, 0, 58, 0
1, 33217, Note_on_c, 0, 82, 0
1, 33217, Note_on_c, 0, 62, 33
1, 33222, Note_on_c, 0, 58, 25
1, 33280, Note_on_c, 0, 74, 60
1, 33306, Note_on_c, 0, 74, 0
1, 33317, Note_on_c, 0, 55, 0
1, 33320, Note_on_c, 0, 75, 67
1, 33325, Note_on_c, 0, 62, 0
1, 33330, Note_on_c, 0, 58, 0
1, 33340, Note_on_c, 0, 75, 0
1, 33352, Note_on_c, 0, 77, 55
1, 33378, Note_on_c, 0, 77, 0
1, 33385, Control_c, 0, 64, 0
1, 33392, Note_on_c, 0, 75, 46
1, 33392, Note_on_c, 0, 63, 32
1, 33393, Note_on_c, 0, 60, 40
1, 33396, Note_on_c, 0, 72, 33
1, 33396, Note_on_c, 0, 56, 32
1, 33396, Note_on_c, 0, 53, 24
1, 33402, Note_on_c, 0, 72, 0
1, 33413, Control_c, 0, 64, 127
1, 33447, Note_on_c, 0, 68, 37
1, 33451, Note_on_c, 0, 63, 0
1, 33468, Note_on_c, 0, 60, 0
1, 33470, Note_on_c, 0, 75, 0
1, 33472, Note_on_c, 0, 68, 0
1, 33488, Note_on_c, 0, 56, 0
1, 33489, Note_on_c, 0, 53, 0
1, 33571, Note_on_c, 0, 67, 44
1, 33574, Note_on_c, 0, 56, 31
1, 33576, Note_on_c, 0, 62, 36
1, 33577, Control_c, 0, 64, 0
1, 33579, Note_on_c, 0, 46, 27
1, 33598, Control_c, 0, 64, 127
1, 33637, Note_on_c, 0, 74, 64
1, 33646, Note_on_c, 0, 62, 0
1, 33654, Note_on_c, 0, 56, 0
1, 33658, Note_on_c, 0, 67, 0
1, 33670, Note_on_c, 0, 74, 0
1, 33670, Note_on_c, 0, 46, 0
1, 33694, Note_on_c, 0, 77, 77
1, 33721, Note_on_c, 0, 77, 0
1, 33750, Control_c, 0, 64, 0
1, 33753, Note_on_c, 0, 74, 62
1, 33758, Note_on_c, 0, 39, 44
1, 33761, Note_on_c, 0, 46, 36
1, 33783, Note_on_c, 0, 39, 0
1, 33784, Control_c, 0, 64, 127
1, 33815, Note_on_c, 0, 46, 0
1, 33817, Note_on_c, 0, 55, 49
1, 33879, Note_on_c, 0, 70, 40
1, 33880, Note_on_c, 0, 62, 50
1, 33880, Note_on_c, 0, 67, 51
1, 33881, Note_on_c, 0, 55, 0
1, 33884, Note_on_c, 0, 58, 35
1, 33910, Note_on_c, 0, 62, 0
1, 33925, Note_on_c, 0, 67, 0
1, 33939, Note_on_c, 0, 70, 0
1, 33949, Note_on_c, 0, 62, 53
1, 33951, Note_on_c, 0, 70, 64
1, 33952, Note_on_c, 0, 67, 62
1, 34016, Note_on_c, 0, 62, 0
1, 34037, Note_on_c, 0, 58, 0
1, 34069, Note_on_c, 0, 67, 0
1, 34086, Note_on_c, 0, 62, 47
1, 34103, Note_on_c, 0, 62, 0
1, 34110, Note_on_c, 0, 70, 0
1, 34126, Note_on_c, 0, 74, 0
1, 34147, Note_on_c, 0, 62, 40
1, 34148, Note_on_c, 0, 70, 31
1, 34148, Note_on_c, 0, 67, 37
1, 34150, Note_on_c, 0, 58, 33
1, 34151, Control_c, 0, 64, 0
1, 34160, Control_c, 0, 64, 127
1, 34229, Note_on_c, 0, 62, 0
1, 34240, Note_on_c, 0, 67, 0
1, 34241, Note_on_c, 0, 70, 0
1, 34249, Note_on_c, 0, 58, 0
1, 34277, Note_on_c, 0, 62, 36
1, 34287, Note_on_c, 0, 62, 0
1, 34339, Note_on_c, 0, 74, 53
1, 34341, Note_on_c, 0, 62, 71
1, 34342, Note_on_c, 0, 70, 48
1, 34343, Note_on_c, 0, 58, 43
1, 34343, Note_on_c, 0, 67, 55
1, 34399, Note_on_c, 0, 62, 0
1, 34403, Note_on_c, 0, 74, 0
1, 34415, Note_on_c, 0, 67, 0
1, 34424, Note_on_c, 0, 70, 0
1, 34460, Note_on_c, 0, 75, 65
1, 34462, Note_on_c, 0, 58, 0
1, 34462, Note_on_c, 0, 63, 62
1, 34482, Note_on_c, 0, 63, 0
1, 34485, Note_on_c, 0, 75, 0
1, 34506, Note_on_c, 0, 77, 53
1, 34511, Note_on_c, 0, 65, 50
1, 34518, Note_on_c, 0, 65, 0
1, 34521, Note_on_c, 0, 77, 0
1, 34546, Control_c, 0, 64, 0
1, 34549, Note_on_c, 0, 74, 49
1, 34551, Note_on_c, 0, 62, 47
1, 34553, Note_on_c, 0, 58, 33
1, 34555, Note_on_c, 0, 48, 37
1, 34580, Control_c, 0, 64, 127
1, 34615, Note_on_c, 0, 58, 0
1, 34623, Note_on_c, 0, 55, 30
1, 34624, Note_on_c, 0, 62, 0
1, 34667, Note_on_c, 0, 48, 0
1, 34724, Note_on_c, 0, 63, 37
1, 34725, Note_on_c, 0, 67, 38
1, 34725, Note_on_c, 0, 62, 33
1, 34776, Note_on_c, 0, 74, 0
1, 34785, Note_on_c, 0, 72, 58
1, 34796, Note_on_c, 0, 62, 0
1, 34824, Note_on_c, 0, 72, 0
1, 34828, Note_on_c, 0, 63, 0
1, 34837, Note_on_c, 0, 74, 60
1, 34861, Note_on_c, 0, 67, 0
1, 34885, Note_on_c, 0, 74, 0
1, 34899, Note_on_c, 0, 70, 37
1, 34899, Note_on_c, 0, 67, 46
1, 34900, Note_on_c, 0, 63, 35
1, 34903, Control_c, 0, 64, 0
1, 34904, Note_on_c, 0, 60, 30
1, 34911, Control_c, 0, 64, 127
1, 34963, Note_on_c, 0, 48, 50
1, 34970, Note_on_c, 0, 67, 0
1, 34979, Note_on_c, 0, 60, 0
1, 35008, Note_on_c, 0, 63, 0
1, 35032, Note_on_c, 0, 70, 0
1, 35083, Note_on_c, 0, 63, 36
1, 35083, Note_on_c, 0, 67, 39
1, 35085, Note_on_c, 0, 60, 38
1, 35087, Note_on_c, 0, 58, 27
1, 35143, Note_on_c, 0, 55, 0
1, 35150, Note_on_c, 0, 48, 0
1, 35156, Note_on_c, 0, 60, 0
1, 35158, Note_on_c, 0, 58, 0
1, 35175, Note_on_c, 0, 63, 0
1, 35179, Note_on_c, 0, 67, 0
1, 35268, Control_c, 0, 64, 0
1, 35268, Note_on_c, 0, 75, 60
1, 35271, Note_on_c, 0, 70, 55
1, 35272, Note_on_c, 0, 58, 39
1, 35274, Note_on_c, 0, 67, 43
1, 35276, Note_on_c, 0, 63, 26
1, 35276, Note_on_c, 0, 53, 28
1, 35307, Control_c, 0, 64, 127
1, 35339, Note_on_c, 0, 75, 0
1, 35361, Note_on_c, 0, 67, 0
1, 35362, Note_on_c, 0, 70, 0
1, 35369, Note_on_c, 0, 74, 56
1, 35377, Note_on_c, 0, 63, 0
1, 35408, Note_on_c, 0, 58, 0
1, 35452, Note_on_c, 0, 74, 0
1, 35458, Note_on_c, 0, 70, 43
1, 35462, Note_on_c, 0, 67, 36
1, 35462, Note_on_c, 0, 63, 23
1, 35464, Note_on_c, 0, 58, 26
1, 35484, Note_on_c, 0, 67, 0
1, 35500, Note_on_c, 0, 70, 0
1, 35575, Note_on_c, 0, 86, 58
1, 35585, Note_on_c, 0, 86, 0
1, 35606, Note_on_c, 0, 87, 70
1, 35607, Note_on_c, 0, 63, 0
1, 35609, Control_c, 0, 64, 0
1, 35618, Note_on_c, 0, 87, 0
1, 35680, Note_on_c, 0, 63, 36
1, 35682, Note_on_c, 0, 60, 1
1, 35704, Control_c, 0, 64, 127
1, 35728, Note_on_c, 0, 53, 0
1, 35733, Note_on_c, 0, 81, 71
1, 35748, Control_c, 0, 64, 0
1, 35751, Note_on_c, 0, 81, 0
1, 35772, Note_on_c, 0, 79, 56
1, 35781, Note_on_c, 0, 79, 0
1, 35813, Control_c, 0, 64, 127
1, 35860, Note_on_c, 0, 53, 35
1, 35901, Note_on_c, 0, 63, 0
1, 35917, Note_on_c, 0, 74, 55
1, 35935, Note_on_c, 0, 60, 0
1, 35941, Note_on_c, 0, 58, 0
1, 35945, Note_on_c, 0, 74, 0
1, 35977, Note_on_c, 0, 70, 49
1, 36023, Note_on_c, 0, 70, 0
1, 36037, Control_c, 0, 64, 0
1, 36040, Note_on_c, 0, 65, 32
1, 36040, Note_on_c, 0, 62, 33
1, 36042, Note_on_c, 0, 69, 44
1, 36045, Note_on_c, 0, 60, 24
1, 36076, Control_c, 0, 64, 127
1, 36082, Note_on_c, 0, 65, 0
1, 36094, Note_on_c, 0, 69, 0
1, 36094, Note_on_c, 0, 72, 53
1, 36104, Note_on_c, 0, 53, 0
1, 36140, Note_on_c, 0, 65, 43
1, 36221, Note_on_c, 0, 53, 27
1, 36245, Note_on_c, 0, 65, 0
1, 36287, Note_on_c, 0, 72, 0
1, 36317, Note_on_c, 0, 69, 71
1, 36327, Note_on_c, 0, 60, 0
1, 36336, Note_on_c, 0, 62, 0
1, 36337, Note_on_c, 0, 69, 0
1, 36358, Note_on_c, 0, 81, 81
1, 36400, Note_on_c, 0, 81, 0
1, 36404, Note_on_c, 0, 77, 47
1, 36405, Note_on_c, 0, 62, 32
1, 36408, Note_on_c, 0, 65, 28
1, 36411, Note_on_c, 0, 69, 24
1, 36413, Note_on_c, 0, 60, 24
1, 36451, Note_on_c, 0, 74, 1
1, 36452, Note_on_c, 0, 65, 0
1, 36487, Note_on_c, 0, 53, 0
1, 36533, Note_on_c, 0, 69, 0
1, 36597, Note_on_c, 0, 74, 0
1, 36599, Note_on_c, 0, 69, 34
1, 36601, Note_on_c, 0, 77, 0
1, 36601, Note_on_c, 0, 53, 22
1, 36618, Note_on_c, 0, 60, 0
1, 36624, Note_on_c, 0, 62, 0
1, 36662, Note_on_c, 0, 69, 0
1, 36666, Note_on_c, 0, 53, 0
1, 36722, Note_on_c, 0, 74, 34
1, 36772, Note_on_c, 0, 74, 0
1, 36774, Control_c, 0, 64, 0
1, 36781, Note_on_c, 0, 34, 36
1, 36784, Note_on_c, 0, 77, 34
1, 36788, Control_c, 0, 64, 127
1, 36799, Note_on_c, 0, 34, 0
1, 36969, Note_on_c, 0, 62, 25
1, 36969, Note_on_c, 0, 65, 28
1, 36974, Note_on_c, 0, 60, 27
1, 36990, Note_on_c, 0, 65, 0
1, 36990, Note_on_c, 0, 62, 0
1, 36991, Note_on_c, 0, 60, 0
1, 37028, Note_on_c, 0, 77, 0
1, 37047, Note_on_c, 0, 74, 43
1, 37083, Note_on_c, 0, 74, 0
1, 37094, Note_on_c, 0, 77, 41
1, 37119, Note_on_c, 0, 77, 0
1, 37127, Note_on_c, 0, 81, 68
1, 37156, Control_c, 0, 64, 0
1, 37164, Note_on_c, 0, 34, 37
1, 37164, Note_on_c, 0, 72, 61
1, 37166, Note_on_c, 0, 46, 31
1, 37172, Note_on_c, 0, 81, 0
1, 37176, Control_c, 0, 64, 127
1, 37186, Note_on_c, 0, 34, 0
1, 37192, Note_on_c, 0, 46, 0
1, 37448, Note_on_c, 0, 67, 38
1, 37450, Note_on_c, 0, 63, 39
1, 37458, Note_on_c, 0, 67, 0
1, 37466, Note_on_c, 0, 63, 0
1, 37537, Note_on_c, 0, 34, 54
1, 37550, Note_on_c, 0, 34, 0
1, 37727, Note_on_c, 0, 63, 28
1, 37734, Note_on_c, 0, 67, 17
1, 37753, Note_on_c, 0, 67, 0
1, 37768, Note_on_c, 0, 63, 0
1, 37805, Note_on_c, 0, 72, 0
1, 37821, Note_on_c, 0, 72, 64
1, 37861, Note_on_c, 0, 72, 0
1, 37902, Note_on_c, 0, 67, 56
1, 37902, Note_on_c, 0, 63, 42
1, 37903, Note_on_c, 0, 75, 83
1, 37905, Note_on_c, 0, 60, 41
1, 37906, Note_on_c, 0, 58, 36
1, 37960, Note_on_c, 0, 75, 0
1, 37977, Note_on_c, 0, 67, 0
1, 37980, Note_on_c, 0, 58, 0
1, 37997, Note_on_c, 0, 60, 0
1, 38003, Note_on_c, 0, 79, 88
1, 38023, Note_on_c, 0, 63, 0
1, 38052, Note_on_c, 0, 79, 0
1, 38087, Note_on_c, 0, 67, 40
1, 38088, Note_on_c, 0, 63, 32
1, 38089, Note_on_c, 0, 79, 68
1, 38093, Note_on_c, 0, 60, 29
1, 38106, Note_on_c, 0, 67, 0
1, 38115, Note_on_c, 0, 79, 0
1, 38118, Note_on_c, 0, 63, 0
1, 38142, Note_on_c, 0, 60, 0
1, 38186, Note_on_c, 0, 80, 53
1, 38188, Note_on_c, 0, 70, 47
1, 38202, Note_on_c, 0, 70, 0
1, 38204, Note_on_c, 0, 80, 0
1, 38260, Control_c, 0, 64, 0
1, 38269, Note_on_c, 0, 46, 47
1, 38272, Note_on_c, 0, 86, 54
1, 38279, Control_c, 0, 64, 127
1, 38279, Note_on_c, 0, 74, 38
1, 38294, Note_on_c, 0, 46, 0
1, 38355, Note_on_c, 0, 86, 0
1, 38366, Note_on_c, 0, 74, 0
1, 38370, Note_on_c, 0, 62, 35
1, 38371, Note_on_c, 0, 65, 41
1, 38376, Note_on_c, 0, 60, 31
1, 38447, Note_on_c, 0, 65, 0
1, 38449, Note_on_c, 0, 81, 76
1, 38451, Note_on_c, 0, 74, 66
1, 38479, Note_on_c, 0, 62, 0
1, 38483, Note_on_c, 0, 81, 0
1, 38488, Note_on_c, 0, 77, 48
1, 38493, Note_on_c, 0, 74, 0
1, 38495, Note_on_c, 0, 69, 26
1, 38516, Note_on_c, 0, 69, 0
1, 38521, Note_on_c, 0, 77, 0
1, 38528, Note_on_c, 0, 74, 47
1, 38530, Note_on_c, 0, 81, 57
1, 38615, Note_on_c, 0, 65, 34
1, 38615, Note_on_c, 0, 62, 26
1, 38620, Note_on_c, 0, 74, 0
1, 38628, Note_on_c, 0, 81, 0
1, 38655, Note_on_c, 0, 65, 0
1, 38719, Note_on_c, 0, 53, 36
1, 38766, Note_on_c, 0, 62, 0
1, 38796, Note_on_c, 0, 62, 29
1, 38799, Note_on_c, 0, 65, 51
1, 38858, Note_on_c, 0, 93, 84
1, 38876, Note_on_c, 0, 65, 0
1, 38877, Note_on_c, 0, 53, 0
1, 38886, Note_on_c, 0, 60, 0
1, 38889, Note_on_c, 0, 93, 0
1, 38892, Note_on_c, 0, 62, 0
1, 38897, Note_on_c, 0, 89, 71
1, 38937, Note_on_c, 0, 89, 0
1, 38940, Note_on_c, 0, 81, 68
1, 38976, Note_on_c, 0, 68, 33
1, 38978, Note_on_c, 0, 63, 34
1, 38982, Note_on_c, 0, 58, 34
1, 38983, Note_on_c, 0, 60, 35
1, 38988, Control_c, 0, 64, 0
1, 39012, Control_c, 0, 64, 127
1, 39042, Note_on_c, 0, 82, 75
1, 39048, Note_on_c, 0, 81, 0
1, 39085, Note_on_c, 0, 79, 60
1, 39092, Note_on_c, 0, 82, 0
1, 39126, Note_on_c, 0, 79, 0
1, 39134, Note_on_c, 0, 91, 82
1, 39170, Note_on_c, 0, 91, 0
1, 39184, Note_on_c, 0, 80, 63
1, 39213, Note_on_c, 0, 68, 0
1, 39219, Note_on_c, 0, 80, 0
1, 39230, Note_on_c, 0, 58, 0
1, 39230, Note_on_c, 0, 60, 0
1, 39231, Note_on_c, 0, 79, 36
1, 39236, Note_on_c, 0, 63, 0
1, 39290, Control_c, 0, 64, 0
1, 39292, Note_on_c, 0, 67, 38
1, 39293, Note_on_c, 0, 62, 36
1, 39294, Note_on_c, 0, 56, 36
1, 39310, Control_c, 0, 64, 127
1, 39349, Note_on_c, 0, 79, 0
1, 39353, Note_on_c, 0, 82, 30
1, 39357, Note_on_c, 0, 83, 66
1, 39358, Note_on_c, 0, 67, 0
1, 39368, Note_on_c, 0, 62, 0
1, 39373, Note_on_c, 0, 83, 0
1, 39382, Note_on_c, 0, 82, 0
1, 39388, Note_on_c, 0, 56, 0
1, 39399, Note_on_c, 0, 80, 57
1, 39467, Note_on_c, 0, 56, 33
1, 39468, Note_on_c, 0, 71, 27
1, 39470, Note_on_c, 0, 46, 29
1, 39479, Note_on_c, 0, 80, 0
1, 39541, Note_on_c, 0, 71, 0
1, 39551, Note_on_c, 0, 67, 51
1, 39553, Note_on_c, 0, 56, 0
1, 39570, Note_on_c, 0, 46, 0
1, 39643, Control_c, 0, 64, 0
1, 39644, Note_on_c, 0, 62, 58
1, 39651, Note_on_c, 0, 39, 29
1, 39653, Note_on_c, 0, 46, 27
1, 39673, Control_c, 0, 64, 127
1, 39712, Note_on_c, 0, 39, 0
1, 39719, Note_on_c, 0, 46, 0
1, 39727, Note_on_c, 0, 67, 0
1, 39742, Note_on_c, 0, 62, 0
1, 39836, Note_on_c, 0, 62, 30
1, 39838, Note_on_c, 0, 58, 37
1, 39840, Note_on_c, 0, 51, 21
1, 39843, Note_on_c, 0, 55, 26
1, 39888, Note_on_c, 0, 77, 91
1, 39927, Note_on_c, 0, 77, 0
1, 39930, Note_on_c, 0, 74, 57
1, 39936, Note_on_c, 0, 55, 0
1, 39947, Note_on_c, 0, 51, 0
1, 39948, Note_on_c, 0, 62, 0
1, 39949, Note_on_c, 0, 74, 0
1, 39959, Note_on_c, 0, 58, 0
1, 39964, Note_on_c, 0, 75, 69
1, 39986, Note_on_c, 0, 75, 0
1, 39995, Note_on_c, 0, 77, 54
1, 40014, Note_on_c, 0, 77, 0
1, 40016, Control_c, 0, 64, 0
1, 40028, Note_on_c, 0, 54, 35
1, 40029, Note_on_c, 0, 75, 53
1, 40030, Note_on_c, 0, 60, 26
1, 40030, Note_on_c, 0, 50, 29
1, 40051, Control_c, 0, 64, 127
1, 40119, Note_on_c, 0, 60, 0
1, 40135, Note_on_c, 0, 75, 0
1, 40139, Note_on_c, 0, 77, 63
1, 40163, Note_on_c, 0, 77, 0
1, 40172, Note_on_c, 0, 75, 62
1, 40196, Control_c, 0, 64, 0
1, 40198, Note_on_c, 0, 66, 53
1, 40202, Note_on_c, 0, 75, 0
1, 40210, Note_on_c, 0, 60, 29
1, 40220, Note_on_c, 0, 60, 0
1, 40223, Note_on_c, 0, 66, 0
1, 40234, Note_on_c, 0, 65, 43
1, 40249, Note_on_c, 0, 65, 0
1, 40251, Note_on_c, 0, 54, 0
1, 40251, Note_on_c, 0, 50, 0
1, 40270, Note_on_c, 0, 63, 53
1, 40289, Note_on_c, 0, 63, 0
1, 40306, Note_on_c, 0, 62, 58
1, 40309, Note_on_c, 0, 44, 31
1, 40310, Note_on_c, 0, 54, 18
1, 40330, Note_on_c, 0, 62, 0
1, 40340, Note_on_c, 0, 61, 40
1, 40341, Note_on_c, 0, 54, 0
1, 40349, Control_c, 0, 64, 127
1, 40356, Note_on_c, 0, 61, 0
1, 40365, Note_on_c, 0, 60, 35
1, 40385, Note_on_c, 0, 44, 0
1, 40386, Note_on_c, 0, 60, 0
1, 40392, Note_on_c, 0, 59, 46
1, 40397, Control_c, 0, 64, 0
1, 40408, Note_on_c, 0, 53, 32
1, 40409, Note_on_c, 0, 43, 26
1, 40409, Note_on_c, 0, 50, 27
1, 40418, Note_on_c, 0, 59, 0
1, 40424, Note_on_c, 0, 58, 32
1, 40446, Control_c, 0, 64, 127
1, 40465, Note_on_c, 0, 43, 0
1, 40467, Note_on_c, 0, 50, 0
1, 40478, Note_on_c, 0, 53, 0
1, 40483, Note_on_c, 0, 58, 0
1, 40588, Control_c, 0, 64, 0
1, 40589, Note_on_c, 0, 55, 41
1, 40590, Note_on_c, 0, 62, 36
1, 40591, Note_on_c, 0, 77, 80
1, 40594, Note_on_c, 0, 58, 46
1, 40609, Control_c, 0, 64, 127
1, 40631, Note_on_c, 0, 77, 0
1, 40639, Note_on_c, 0, 74, 51
1, 40659, Note_on_c, 0, 74, 0
1, 40662, Note_on_c, 0, 55, 0
1, 40664, Note_on_c, 0, 62, 0
1, 40676, Note_on_c, 0, 58, 0
1, 40684, Note_on_c, 0, 75, 72
1, 40710, Note_on_c, 0, 75, 0
1, 40727, Note_on_c, 0, 77, 70
1, 40757, Note_on_c, 0, 77, 0
1, 40766, Control_c, 0, 64, 0
1, 40772, Note_on_c, 0, 75, 61
1, 40772, Note_on_c, 0, 68, 33
1, 40774, Note_on_c, 0, 72, 58
1, 40776, Note_on_c, 0, 63, 31
1, 40778, Note_on_c, 0, 58, 32
1, 40779, Note_on_c, 0, 60, 33
1, 40794, Control_c, 0, 64, 127
1, 40807, Note_on_c, 0, 68, 0
1, 40819, Note_on_c, 0, 72, 0
1, 40823, Note_on_c, 0, 75, 0
1, 40828, Note_on_c, 0, 74, 50
1, 40830, Note_on_c, 0, 70, 52
1, 40859, Note_on_c, 0, 63, 0
1, 40863, Note_on_c, 0, 58, 0
1, 40863, Note_on_c, 0, 60, 0
1, 40879, Note_on_c, 0, 70, 0
1, 40882, Note_on_c, 0, 74, 0
1, 40955, Note_on_c, 0, 56, 32
1, 40956, Note_on_c, 0, 74, 45
1, 40957, Note_on_c, 0, 67, 65
1, 40957, Note_on_c, 0, 46, 30
1, 40958, Control_c, 0, 64, 0
1, 40995, Control_c, 0, 64, 127
1, 41003, Note_on_c, 0, 67, 0
1, 41005, Note_on_c, 0, 74, 0
1, 41017, Note_on_c, 0, 71, 28
1, 41022, Note_on_c, 0, 67, 33
1, 41023, Note_on_c, 0, 62, 39
1, 41049, Note_on_c, 0, 56, 0
1, 41061, Note_on_c, 0, 71, 0
1, 41063, Note_on_c, 0, 67, 0
1, 41070, Note_on_c, 0, 46, 0
1, 41076, Note_on_c, 0, 62, 0
1, 41144, Control_c, 0, 64, 0
1, 41151, Note_on_c, 0, 58, 37
1, 41152, Note_on_c, 0, 62, 38
1, 41153, Note_on_c, 0, 39, 28
1, 41156, Note_on_c, 0, 46, 27
1, 41156, Note_on_c, 0, 55, 25
1, 41163, Control_c, 0, 64, 127
1, 41170, Note_on_c, 0, 55, 0
1, 41180, Note_on_c, 0, 62, 0
1, 41181, Note_on_c, 0, 58, 0
1, 41185, Note_on_c, 0, 39, 0
1, 41191, Note_on_c, 0, 46, 0
1, 41283, Note_on_c, 0, 74, 74
1, 41284, Note_on_c, 0, 67, 83
1, 41284, Note_on_c, 0, 70, 64
1, 41285, Note_on_c, 0, 63, 81
1, 41286, Note_on_c, 0, 62, 80
1, 41348, Note_on_c, 0, 63, 0
1, 41349, Note_on_c, 0, 70, 0
1, 41349, Note_on_c, 0, 67, 0
1, 41356, Note_on_c, 0, 62, 0
1, 41361, Note_on_c, 0, 74, 0
1, 41365, Note_on_c, 0, 67, 66
1, 41365, Note_on_c, 0, 63, 57
1, 41365, Note_on_c, 0, 70, 57
1, 41367, Note_on_c, 0, 58, 55
1, 41368, Control_c, 0, 64, 0
1, 41387, Control_c, 0, 64, 127
1, 41435, Note_on_c, 0, 67, 0
1, 41448, Note_on_c, 0, 63, 0
1, 41471, Note_on_c, 0, 70, 0
1, 41490, Note_on_c, 0, 58, 0
1, 41558, Note_on_c, 0, 70, 42
1, 41558, Control_c, 0, 64, 0
1, 41559, Note_on_c, 0, 63, 39
1, 41559, Note_on_c, 0, 62, 45
1, 41561, Note_on_c, 0, 67, 38
1, 41562, Note_on_c, 0, 51, 29
1, 41564, Note_on_c, 0, 58, 39
1, 41576, Control_c, 0, 64, 127
1, 41638, Note_on_c, 0, 62, 0
1, 41656, Note_on_c, 0, 51, 0
1, 41672, Note_on_c, 0, 63, 0
1, 41673, Note_on_c, 0, 67, 0
1, 41684, Note_on_c, 0, 70, 0
1, 41684, Note_on_c, 0, 51, 33
1, 41747, Note_on_c, 0, 74, 68
1, 41749, Note_on_c, 0, 62, 61
1, 41750, Note_on_c, 0, 63, 80
1, 41750, Note_on_c, 0, 70, 67
1, 41750, Note_on_c, 0, 67, 80
1, 41768, Note_on_c, 0, 62, 0
1, 41788, Note_on_c, 0, 74, 0
1, 41798, Note_on_c, 0, 63, 0
1, 41799, Note_on_c, 0, 70, 0
1, 41800, Note_on_c, 0, 67, 0
1, 41807, Note_on_c, 0, 74, 38
1, 41813, Note_on_c, 0, 51, 0
1, 41818, Note_on_c, 0, 58, 0
1, 41819, Note_on_c, 0, 67, 22
1, 41819, Note_on_c, 0, 70, 23
1, 41827, Note_on_c, 0, 67, 0
1, 41829, Note_on_c, 0, 70, 0
1, 41832, Note_on_c, 0, 74, 0
1, 41869, Note_on_c, 0, 75, 72
1, 41897, Note_on_c, 0, 75, 0
1, 41922, Control_c, 0, 64, 0
1, 41929, Note_on_c, 0, 74, 47
1, 41932, Note_on_c, 0, 63, 38
1, 41933, Note_on_c, 0, 67, 42
1, 41934, Note_on_c, 0, 58, 25
1, 41935, Note_on_c, 0, 55, 19
1, 41936, Note_on_c, 0, 48, 30
1, 41952, Control_c, 0, 64, 127
1, 41964, Note_on_c, 0, 55, 0
1, 41995, Note_on_c, 0, 58, 0
1, 42030, Note_on_c, 0, 63, 0
1, 42034, Note_on_c, 0, 67, 0
1, 42095, Note_on_c, 0, 59, 28
1, 42130, Note_on_c, 0, 74, 0
1, 42134, Note_on_c, 0, 59, 0
1, 42150, Note_on_c, 0, 63, 55
1, 42150, Note_on_c, 0, 72, 58
1, 42152, Note_on_c, 0, 60, 62
1, 42153, Control_c, 0, 64, 0
1, 42153, Note_on_c, 0, 67, 53
1, 42169, Control_c, 0, 64, 127
1, 42203, Note_on_c, 0, 74, 50
1, 42220, Note_on_c, 0, 72, 0
1, 42238, Note_on_c, 0, 60, 0
1, 42241, Note_on_c, 0, 67, 0
1, 42246, Note_on_c, 0, 63, 0
1, 42249, Note_on_c, 0, 74, 0
1, 42266, Note_on_c, 0, 63, 50
1, 42268, Note_on_c, 0, 72, 58
1, 42311, Note_on_c, 0, 72, 0
1, 42312, Note_on_c, 0, 63, 0
1, 42340, Note_on_c, 0, 63, 30
1, 42340, Note_on_c, 0, 70, 31
1, 42341, Note_on_c, 0, 67, 39
1, 42346, Note_on_c, 0, 58, 19
1, 42378, Note_on_c, 0, 67, 0
1, 42423, Note_on_c, 0, 63, 0
1, 42439, Note_on_c, 0, 58, 0
1, 42506, Note_on_c, 0, 70, 0
1, 42527, Note_on_c, 0, 63, 31
1, 42528, Note_on_c, 0, 67, 34
1, 42530, Note_on_c, 0, 60, 34
1, 42570, Note_on_c, 0, 60, 0
1, 42580, Note_on_c, 0, 63, 0
1, 42581, Note_on_c, 0, 67, 0
1, 42585, Note_on_c, 0, 48, 0
1, 42719, Note_on_c, 0, 75, 38
1, 42721, Note_on_c, 0, 70, 34
1, 42723, Note_on_c, 0, 41, 31
1, 42723, Note_on_c, 0, 65, 34
1, 42728, Note_on_c, 0, 29, 32
1, 42751, Note_on_c, 0, 29, 0
1, 42759, Note_on_c, 0, 41, 0
1, 42803, Note_on_c, 0, 65, 0
1, 42825, Note_on_c, 0, 70, 0
1, 42834, Note_on_c, 0, 75, 0
1, 42927, Note_on_c, 0, 87, 79
1, 42931, Note_on_c, 0, 63, 42
1, 42931, Note_on_c, 0, 58, 53
1, 42931, Note_on_c, 0, 79, 71
1, 42931, Note_on_c, 0, 53, 43
1, 42934, Note_on_c, 0, 75, 60
1, 43006, Note_on_c, 0, 79, 0
1, 43012, Note_on_c, 0, 75, 0
1, 43014, Note_on_c, 0, 87, 0
1, 43027, Note_on_c, 0, 63, 0
1, 43032, Note_on_c, 0, 86, 70
1, 43033, Note_on_c, 0, 60, 43
1, 43035, Note_on_c, 0, 79, 53
1, 43036, Note_on_c, 0, 74, 43
1, 43054, Note_on_c, 0, 86, 0
1, 43057, Note_on_c, 0, 79, 0
1, 43067, Note_on_c, 0, 74, 0
1, 43078, Note_on_c, 0, 58, 0
1, 43120, Note_on_c, 0, 82, 39
1, 43126, Note_on_c, 0, 79, 52
1, 43129, Note_on_c, 0, 75, 54
1, 43131, Note_on_c, 0, 70, 47
1, 43133, Note_on_c, 0, 63, 26
1, 43179, Note_on_c, 0, 53, 0
1, 43228, Note_on_c, 0, 53, 38
1, 43293, Note_on_c, 0, 70, 0
1, 43319, Note_on_c, 0, 79, 0
1, 43323, Note_on_c, 0, 75, 0
1, 43325, Note_on_c, 0, 63, 0
1, 43329, Note_on_c, 0, 82, 0
1, 43351, Note_on_c, 0, 53, 0
1, 43419, Note_on_c, 0, 53, 50
1, 43434, Note_on_c, 0, 60, 0
1, 43470, Note_on_c, 0, 79, 63
1, 43503, Note_on_c, 0, 79, 0
1, 43511, Note_on_c, 0, 77, 47
1, 43513, Note_on_c, 0, 69, 49
1, 43513, Note_on_c, 0, 62, 34
1, 43514, Note_on_c, 0, 74, 32
1, 43514, Control_c, 0, 64, 0
1, 43515, Note_on_c, 0, 65, 36
1, 43517, Note_on_c, 0, 60, 30
1, 43544, Control_c, 0, 64, 127
1, 43565, Note_on_c, 0, 65, 0
1, 43569, Note_on_c, 0, 53, 0
1, 43592, Note_on_c, 0, 53, 27
1, 43628, Note_on_c, 0, 74, 0
1, 43636, Note_on_c, 0, 77, 0
1, 43641, Note_on_c, 0, 69, 0
1, 43655, Note_on_c, 0, 62, 0
1, 43661, Note_on_c, 0, 60, 0
1, 43696, Note_on_c, 0, 62, 28
1, 43696, Note_on_c, 0, 65, 44
1, 43697, Note_on_c, 0, 69, 45
1, 43699, Note_on_c, 0, 60, 26
1, 43734, Note_on_c, 0, 65, 0
1, 43742, Note_on_c, 0, 69, 0
1, 43758, Note_on_c, 0, 53, 0
1, 43803, Note_on_c, 0, 53, 36
1, 43827, Note_on_c, 0, 60, 0
1, 43834, Note_on_c, 0, 62, 0
1, 43885, Note_on_c, 0, 65, 40
1, 43885, Note_on_c, 0, 81, 79
1, 43886, Note_on_c, 0, 62, 39
1, 43887, Note_on_c, 0, 74, 74
1, 43891, Note_on_c, 0, 60, 32
1, 43918, Note_on_c, 0, 65, 0
1, 43958, Note_on_c, 0, 53, 0
1, 43990, Note_on_c, 0, 53, 32
1, 44011, Note_on_c, 0, 74, 0
1, 44022, Note_on_c, 0, 62, 0
1, 44040, Note_on_c, 0, 60, 0
1, 44076, Note_on_c, 0, 65, 35
1, 44077, Note_on_c, 0, 62, 29
1, 44079, Note_on_c, 0, 81, 0
1, 44080, Note_on_c, 0, 60, 12
1, 44080, Note_on_c, 0, 69, 49
1, 44082, Note_on_c, 0, 74, 22
1, 44094, Note_on_c, 0, 65, 0
1, 44113, Note_on_c, 0, 53, 0
1, 44148, Note_on_c, 0, 69, 0
1, 44154, Note_on_c, 0, 74, 0
1, 44164, Note_on_c, 0, 60, 0
1, 44165, Note_on_c, 0, 62, 0
1, 44179, Note_on_c, 0, 81, 71
1, 44232, Note_on_c, 0, 81, 0
1, 44268, Note_on_c, 0, 81, 74
1, 44268, Note_on_c, 0, 74, 66
1, 44271, Note_on_c, 0, 39, 63
1, 44271, Note_on_c, 0, 69, 62
1, 44272, Note_on_c, 0, 67, 73
1, 44276, Control_c, 0, 64, 0
1, 44310, Control_c, 0, 64, 127
1, 44362, Note_on_c, 0, 39, 0
1, 44365, Note_on_c, 0, 46, 53
1, 44392, Note_on_c, 0, 67, 0
1, 44400, Note_on_c, 0, 69, 0
1, 44404, Note_on_c, 0, 74, 0
1, 44452, Note_on_c, 0, 46, 0
1, 44453, Note_on_c, 0, 74, 34
1, 44459, Note_on_c, 0, 69, 29
1, 44459, Note_on_c, 0, 55, 43
1, 44460, Note_on_c, 0, 67, 35
1, 44494, Note_on_c, 0, 67, 0
1, 44504, Note_on_c, 0, 69, 0
1, 44530, Note_on_c, 0, 81, 0
1, 44535, Note_on_c, 0, 55, 0
1, 44548, Note_on_c, 0, 79, 47
1, 44549, Note_on_c, 0, 58, 44
1, 44550, Note_on_c, 0, 74, 0
1, 44568, Note_on_c, 0, 79, 0
1, 44636, Note_on_c, 0, 84, 45
1, 44639, Note_on_c, 0, 62, 29
1, 44641, Note_on_c, 0, 67, 30
1, 44642, Note_on_c, 0, 79, 37
1, 44644, Note_on_c, 0, 72, 35
1, 44665, Note_on_c, 0, 62, 0
1, 44688, Note_on_c, 0, 67, 0
1, 44729, Note_on_c, 0, 72, 0
1, 44732, Note_on_c, 0, 79, 0
1, 44823, Note_on_c, 0, 84, 0
1, 44825, Note_on_c, 0, 79, 25
1, 44827, Note_on_c, 0, 62, 31
1, 44828, Note_on_c, 0, 67, 24
1, 44829, Note_on_c, 0, 72, 40
1, 44839, Note_on_c, 0, 79, 0
1, 44852, Note_on_c, 0, 72, 0
1, 44864, Note_on_c, 0, 67, 0
1, 44882, Note_on_c, 0, 62, 0
1, 44889, Note_on_c, 0, 82, 71
1, 44892, Note_on_c, 0, 70, 74
1, 44898, Note_on_c, 0, 58, 0
1, 44935, Note_on_c, 0, 82, 0
1, 44937, Note_on_c, 0, 70, 0
1, 44958, Note_on_c, 0, 58, 35
1, 44969, Note_on_c, 0, 58, 0
1, 45007, Control_c, 0, 64, 0
1, 45008, Note_on_c, 0, 79, 49
1, 45009, Note_on_c, 0, 74, 42
1, 45010, Note_on_c, 0, 51, 47
1, 45010, Note_on_c, 0, 67, 48
1, 45014, Control_c, 0, 64, 127
1, 45015, Note_on_c, 0, 58, 32
1, 45020, Note_on_c, 0, 67, 0
1, 45028, Note_on_c, 0, 51, 0
1, 45029, Note_on_c, 0, 58, 0
1, 45030, Note_on_c, 0, 74, 0
1, 45034, Note_on_c, 0, 79, 0
1, 45151, Note_on_c, 0, 86, 83
1, 45178, Note_on_c, 0, 86, 0
1, 45201, Note_on_c, 0, 84, 63
1, 45202, Note_on_c, 0, 65, 37
1, 45203, Control_c, 0, 64, 0
1, 45203, Note_on_c, 0, 79, 48
1, 45204, Note_on_c, 0, 62, 27
1, 45204, Note_on_c, 0, 72, 44
1, 45206, Note_on_c, 0, 60, 35
1, 45206, Note_on_c, 0, 55, 30
1, 45217, Control_c, 0, 64, 127
1, 45246, Note_on_c, 0, 65, 0
1, 45251, Note_on_c, 0, 62, 0
1, 45253, Note_on_c, 0, 84, 0
1, 45253, Note_on_c, 0, 60, 0
1, 45261, Note_on_c, 0, 79, 0
1, 45263, Note_on_c, 0, 55, 0
1, 45274, Note_on_c, 0, 72, 0
1, 45390, Note_on_c, 0, 62, 29
1, 45392, Note_on_c, 0, 65, 49
1, 45393, Note_on_c, 0, 58, 38
1, 45394, Note_on_c, 0, 51, 34
1, 45395, Control_c, 0, 64, 0
1, 45422, Control_c, 0, 64, 127
1, 45492, Note_on_c, 0, 65, 0
1, 45494, Note_on_c, 0, 62, 0
1, 45520, Note_on_c, 0, 58, 0
1, 45588, Note_on_c, 0, 67, 40
1, 45589, Note_on_c, 0, 62, 32
1, 45590, Note_on_c, 0, 63, 33
1, 45591, Note_on_c, 0, 58, 27
1, 45593, Control_c, 0, 64, 0
1, 45609, Control_c, 0, 64, 127
1, 45682, Note_on_c, 0, 67, 0
1, 45683, Note_on_c, 0, 62, 0
1, 45689, Note_on_c, 0, 70, 80
1, 45696, Note_on_c, 0, 67, 26
1, 45707, Note_on_c, 0, 67, 0
1, 45714, Note_on_c, 0, 58, 0
1, 45719, Note_on_c, 0, 63, 0
1, 45722, Note_on_c, 0, 51, 0
1, 45722, Note_on_c, 0, 70, 0
1, 45781, Note_on_c, 0, 46, 42
1, 45782, Note_on_c, 0, 64, 71
1, 45784, Note_on_c, 0, 60, 68
1, 45787, Control_c, 0, 64, 0
1, 45788, Note_on_c, 0, 53, 42
1, 45824, Control_c, 0, 64, 127
1, 45869, Note_on_c, 0, 60, 0
1, 45873, Note_on_c, 0, 64, 0
1, 45880, Note_on_c, 0, 65, 84
1, 45952, Note_on_c, 0, 46, 0
1, 45961, Note_on_c, 0, 65, 0
1, 45976, Note_on_c, 0, 46, 46
1, 45976, Control_c, 0, 64, 0
1, 45977, Note_on_c, 0, 67, 60
1, 45978, Note_on_c, 0, 64, 57
1, 45981, Note_on_c, 0, 53, 0
1, 45983, Note_on_c, 0, 60, 46
1, 46008, Control_c, 0, 64, 127
1, 46052, Note_on_c, 0, 67, 0
1, 46054, Note_on_c, 0, 60, 0
1, 46064, Note_on_c, 0, 69, 74
1, 46094, Note_on_c, 0, 64, 0
1, 46104, Note_on_c, 0, 69, 0
1, 46120, Note_on_c, 0, 46, 0
1, 46164, Note_on_c, 0, 70, 61
1, 46166, Note_on_c, 0, 65, 62
1, 46167, Note_on_c, 0, 44, 51
1, 46168, Note_on_c, 0, 60, 50
1, 46168, Control_c, 0, 64, 0
1, 46169, Note_on_c, 0, 54, 35
1, 46206, Control_c, 0, 64, 127
1, 46276, Note_on_c, 0, 44, 0
1, 46280, Note_on_c, 0, 60, 0
1, 46283, Note_on_c, 0, 54, 0
1, 46360, Note_on_c, 0, 54, 32
1, 46364, Note_on_c, 0, 65, 0
1, 46364, Note_on_c, 0, 60, 28
1, 46379, Note_on_c, 0, 60, 0
1, 46388, Note_on_c, 0, 70, 0
1, 46389, Note_on_c, 0, 54, 0
1, 46467, Note_on_c, 0, 74, 39
1, 46491, Note_on_c, 0, 74, 0
1, 46555, Note_on_c, 0, 76, 28
1, 46555, Control_c, 0, 64, 0
1, 46555, Note_on_c, 0, 69, 37
1, 46556, Note_on_c, 0, 43, 39
1, 46556, Note_on_c, 0, 65, 40
1, 46567, Note_on_c, 0, 43, 0
1, 46571, Control_c, 0, 64, 127
1, 46629, Note_on_c, 0, 65, 0
1, 46639, Note_on_c, 0, 69, 0
1, 46644, Note_on_c, 0, 64, 33
1, 46648, Note_on_c, 0, 76, 0
1, 46693, Note_on_c, 0, 88, 72
1, 46719, Note_on_c, 0, 64, 0
1, 46742, Note_on_c, 0, 77, 32
1, 46744, Note_on_c, 0, 81, 40
1, 46756, Note_on_c, 0, 88, 0
1, 46759, Note_on_c, 0, 77, 0
1, 46764, Note_on_c, 0, 81, 0
1, 46803, Note_on_c, 0, 64, 42
1, 46812, Note_on_c, 0, 64, 0
1, 46861, Note_on_c, 0, 69, 46
1, 46879, Note_on_c, 0, 69, 0
1, 46922, Note_on_c, 0, 65, 41
1, 46924, Note_on_c, 0, 71, 22
1, 46924, Note_on_c, 0, 43, 33
1, 46926, Note_on_c, 0, 73, 35
1, 46928, Note_on_c, 0, 53, 26
1, 46931, Control_c, 0, 64, 0
1, 46950, Control_c, 0, 64, 127
1, 46966, Note_on_c, 0, 43, 0
1, 46983, Note_on_c, 0, 53, 0
1, 47063, Note_on_c, 0, 65, 0
1, 47080, Note_on_c, 0, 73, 0
1, 47082, Note_on_c, 0, 71, 0
1, 47111, Note_on_c, 0, 74, 29
1, 47112, Note_on_c, 0, 59, 28
1, 47112, Note_on_c, 0, 65, 43
1, 47113, Note_on_c, 0, 71, 28
1, 47114, Note_on_c, 0, 62, 25
1, 47183, Note_on_c, 0, 65, 0
1, 47199, Note_on_c, 0, 62, 0
1, 47200, Note_on_c, 0, 59, 0
1, 47202, Note_on_c, 0, 71, 0
1, 47206, Note_on_c, 0, 74, 0
1, 47297, Note_on_c, 0, 74, 62
1, 47298, Control_c, 0, 64, 0
1, 47298, Note_on_c, 0, 71, 57
1, 47300, Note_on_c, 0, 64, 68
1, 47301, Note_on_c, 0, 67, 62
1, 47303, Note_on_c, 0, 59, 36
1, 47319, Control_c, 0, 64, 127
1, 47356, Note_on_c, 0, 64, 0
1, 47356, Note_on_c, 0, 71, 0
1, 47359, Note_on_c, 0, 59, 0
1, 47361, Note_on_c, 0, 74, 0
1, 47362, Note_on_c, 0, 67, 0
1, 47396, Note_on_c, 0, 67, 61
1, 47397, Note_on_c, 0, 72, 53
1, 47397, Note_on_c, 0, 62, 50
1, 47400, Note_on_c, 0, 57, 56
1, 47425, Note_on_c, 0, 67, 0
1, 47427, Note_on_c, 0, 72, 0
1, 47435, Note_on_c, 0, 62, 0
1, 47444, Note_on_c, 0, 57, 0
1, 47492, Control_c, 0, 64, 0
1, 47492, Note_on_c, 0, 67, 53
1, 47493, Note_on_c, 0, 64, 43
1, 47495, Note_on_c, 0, 48, 32
1, 47497, Note_on_c, 0, 55, 30
1, 47498, Note_on_c, 0, 59, 34
1, 47542, Control_c, 0, 64, 127
1, 47567, Note_on_c, 0, 59, 0
1, 47577, Note_on_c, 0, 55, 0
1, 47589, Note_on_c, 0, 48, 0
1, 47589, Note_on_c, 0, 59, 31
1, 47590, Note_on_c, 0, 64, 0
1, 47597, Note_on_c, 0, 67, 0
1, 47610, Note_on_c, 0, 59, 0
1, 47683, Note_on_c, 0, 57, 51
1, 47683, Note_on_c, 0, 59, 45
1, 47685, Control_c, 0, 64, 0
1, 47692, Note_on_c, 0, 52, 36
1, 47697, Note_on_c, 0, 36, 16
1, 47702, Control_c, 0, 64, 127
1, 47771, Note_on_c, 0, 57, 0
1, 47788, Note_on_c, 0, 59, 0
1, 47795, Note_on_c, 0, 43, 50
1, 47815, Note_on_c, 0, 52, 0
1, 47874, Note_on_c, 0, 67, 68
1, 47876, Note_on_c, 0, 52, 38
1, 47901, Note_on_c, 0, 67, 0
1, 47929, Note_on_c, 0, 36, 0
1, 47937, Note_on_c, 0, 43, 0
1, 47947, Note_on_c, 0, 76, 88
1, 47953, Note_on_c, 0, 52, 0
1, 47977, Note_on_c, 0, 76, 0
1, 48001, Note_on_c, 0, 76, 65
1, 48032, Note_on_c, 0, 74, 43
1, 48036, Note_on_c, 0, 76, 0
1, 48055, Note_on_c, 0, 74, 0
1, 48057, Control_c, 0, 64, 0
1, 48066, Note_on_c, 0, 76, 54
1, 48069, Note_on_c, 0, 43, 41
1, 48080, Control_c, 0, 64, 127
1, 48081, Note_on_c, 0, 43, 0
1, 48165, Note_on_c, 0, 69, 47
1, 48167, Note_on_c, 0, 65, 36
1, 48191, Note_on_c, 0, 69, 0
1, 48202, Note_on_c, 0, 65, 0
1, 48256, Note_on_c, 0, 65, 34
1, 48257, Note_on_c, 0, 69, 50
1, 48261, Note_on_c, 0, 64, 39
1, 48326, Note_on_c, 0, 76, 0
1, 48353, Note_on_c, 0, 76, 54
1, 48387, Note_on_c, 0, 64, 0
1, 48387, Note_on_c, 0, 69, 0
1, 48397, Note_on_c, 0, 65, 0
1, 48424, Note_on_c, 0, 76, 0
1, 48447, Note_on_c, 0, 76, 33
1, 48450, Note_on_c, 0, 65, 53
1, 48451, Note_on_c, 0, 73, 37
1, 48451, Note_on_c, 0, 68, 46
1, 48457, Note_on_c, 0, 64, 24
1, 48519, Note_on_c, 0, 64, 0
1, 48550, Note_on_c, 0, 64, 35
1, 48584, Note_on_c, 0, 65, 0
1, 48595, Note_on_c, 0, 68, 0
1, 48609, Note_on_c, 0, 64, 0
1, 48646, Note_on_c, 0, 68, 25
1, 48647, Note_on_c, 0, 65, 39
1, 48649, Note_on_c, 0, 64, 33
1, 48717, Note_on_c, 0, 65, 0
1, 48720, Note_on_c, 0, 68, 0
1, 48721, Note_on_c, 0, 64, 0
1, 48746, Note_on_c, 0, 65, 34
1, 48749, Note_on_c, 0, 68, 18
1, 48763, Note_on_c, 0, 76, 0
1, 48769, Note_on_c, 0, 65, 0
1, 48814, Note_on_c, 0, 73, 0
1, 48816, Note_on_c, 0, 68, 0
1, 48830, Control_c, 0, 64, 0
1, 48833, Note_on_c, 0, 74, 25
1, 48837, Note_on_c, 0, 59, 30
1, 48837, Note_on_c, 0, 67, 34
1, 48837, Note_on_c, 0, 64, 33
1, 48838, Note_on_c, 0, 71, 19
1, 48838, Note_on_c, 0, 48, 27
1, 48853, Control_c, 0, 64, 127
1, 48860, Note_on_c, 0, 64, 0
1, 48868, Note_on_c, 0, 67, 0
1, 48880, Note_on_c, 0, 71, 0
1, 48882, Note_on_c, 0, 74, 0
1, 48907, Note_on_c, 0, 59, 0
1, 48913, Note_on_c, 0, 55, 35
1, 48959, Note_on_c, 0, 55, 0
1, 48981, Note_on_c, 0, 74, 62
1, 49012, Note_on_c, 0, 74, 0
1, 49030, Note_on_c, 0, 74, 44
1, 49031, Control_c, 0, 64, 0
1, 49034, Note_on_c, 0, 71, 55
1, 49035, Note_on_c, 0, 67, 64
1, 49035, Note_on_c, 0, 64, 71
1, 49038, Note_on_c, 0, 59, 46
1, 49053, Control_c, 0, 64, 127
1, 49074, Note_on_c, 0, 71, 0
1, 49075, Note_on_c, 0, 74, 0
1, 49078, Note_on_c, 0, 64, 0
1, 49080, Note_on_c, 0, 59, 0
1, 49082, Note_on_c, 0, 67, 0
1, 49104, Note_on_c, 0, 67, 54
1, 49104, Note_on_c, 0, 72, 53
1, 49106, Note_on_c, 0, 62, 57
1, 49107, Control_c, 0, 64, 0
1, 49108, Note_on_c, 0, 57, 57
1, 49125, Control_c, 0, 64, 127
1, 49163, Note_on_c, 0, 67, 0
1, 49164, Note_on_c, 0, 72, 0
1, 49171, Note_on_c, 0, 62, 0
1, 49181, Note_on_c, 0, 57, 0
1, 49187, Note_on_c, 0, 48, 0
1, 49234, Note_on_c, 0, 67, 51
1, 49236, Note_on_c, 0, 59, 49
1, 49240, Note_on_c, 0, 48, 31
1, 49241, Note_on_c, 0, 55, 47
1, 49241, Note_on_c, 0, 64, 45
1, 49246, Control_c, 0, 64, 0
1, 49298, Control_c, 0, 64, 127
1, 49321, Note_on_c, 0, 59, 0
1, 49350, Note_on_c, 0, 55, 0
1, 49360, Note_on_c, 0, 64, 0
1, 49417, Note_on_c, 0, 67, 0
1, 49421, Note_on_c, 0, 64, 39
1, 49422, Note_on_c, 0, 59, 36
1, 49428, Note_on_c, 0, 55, 22
1, 49437, Note_on_c, 0, 59, 0
1, 49450, Note_on_c, 0, 64, 0
1, 49475, Note_on_c, 0, 48, 0
1, 49482, Note_on_c, 0, 55, 0
1, 49501, Note_on_c, 0, 69, 85
1, 49522, Note_on_c, 0, 69, 0
1, 49558, Note_on_c, 0, 69, 74
1, 49571, Note_on_c, 0, 69, 0
1, 49613, Note_on_c, 0, 53, 45
1, 49615, Note_on_c, 0, 74, 66
1, 49616, Control_c, 0, 64, 0
1, 49619, Note_on_c, 0, 63, 61
1, 49619, Note_on_c, 0, 70, 48
1, 49619, Note_on_c, 0, 67, 64
1, 49619, Note_on_c, 0, 62, 49
1, 49660, Control_c, 0, 64, 127
1, 49717, Note_on_c, 0, 62, 0
1, 49729, Note_on_c, 0, 60, 17
1, 49777, Note_on_c, 0, 67, 0
1, 49785, Note_on_c, 0, 63, 0
1, 49812, Note_on_c, 0, 60, 0
1, 49816, Note_on_c, 0, 74, 0
1, 49823, Note_on_c, 0, 67, 35
1, 49824, Note_on_c, 0, 63, 34
1, 49833, Note_on_c, 0, 60, 9
1, 49861, Note_on_c, 0, 63, 0
1, 49867, Note_on_c, 0, 53, 0
1, 49900, Note_on_c, 0, 70, 0
1, 49903, Note_on_c, 0, 67, 0
1, 49923, Note_on_c, 0, 72, 51
1, 49973, Note_on_c, 0, 72, 0
1, 50002, Note_on_c, 0, 60, 0
1, 50007, Control_c, 0, 64, 0
1, 50011, Note_on_c, 0, 63, 36
1, 50013, Note_on_c, 0, 66, 40
1, 50014, Note_on_c, 0, 53, 33
1, 50014, Note_on_c, 0, 74, 35
1, 50014, Note_on_c, 0, 69, 44
1, 50015, Control_c, 0, 64, 127
1, 50022, Note_on_c, 0, 58, 34
1, 50033, Note_on_c, 0, 66, 0
1, 50034, Note_on_c, 0, 69, 0
1, 50044, Note_on_c, 0, 74, 0
1, 50087, Note_on_c, 0, 86, 66
1, 50097, Note_on_c, 0, 60, 35
1, 50099, Note_on_c, 0, 63, 0
1, 50121, Note_on_c, 0, 58, 0
1, 50139, Note_on_c, 0, 86, 0
1, 50149, Note_on_c, 0, 81, 50
1, 50151, Note_on_c, 0, 74, 34
1, 50151, Note_on_c, 0, 78, 26
1, 50153, Note_on_c, 0, 63, 31
1, 50176, Note_on_c, 0, 81, 0
1, 50179, Note_on_c, 0, 78, 0
1, 50190, Note_on_c, 0, 74, 0
1, 50219, Note_on_c, 0, 63, 0
1, 50267, Note_on_c, 0, 78, 47
1, 50267, Note_on_c, 0, 74, 36
1, 50270, Note_on_c, 0, 69, 36
1, 50273, Note_on_c, 0, 63, 29
1, 50297, Note_on_c, 0, 53, 0
1, 50300, Note_on_c, 0, 69, 0
1, 50302, Note_on_c, 0, 63, 0
1, 50319, Note_on_c, 0, 53, 37
1, 50320, Note_on_c, 0, 74, 0
1, 50325, Note_on_c, 0, 78, 0
1, 50334, Note_on_c, 0, 60, 0
1, 50376, Note_on_c, 0, 77, 50
1, 50377, Control_c, 0, 64, 0
1, 50377, Note_on_c, 0, 74, 39
1, 50378, Note_on_c, 0, 60, 34
1, 50379, Note_on_c, 0, 69, 51
1, 50380, Note_on_c, 0, 65, 48
1, 50380, Note_on_c, 0, 62, 30
1, 50407, Control_c, 0, 64, 127
1, 50447, Note_on_c, 0, 69, 0
1, 50447, Note_on_c, 0, 74, 0
1, 50454, Note_on_c, 0, 65, 0
1, 50461, Note_on_c, 0, 53, 0
1, 50466, Note_on_c, 0, 74, 66
1, 50467, Note_on_c, 0, 77, 0
1, 50492, Note_on_c, 0, 74, 0
1, 50509, Note_on_c, 0, 74, 63
1, 50537, Note_on_c, 0, 74, 0
1, 50556, Note_on_c, 0, 53, 52
1, 50558, Note_on_c, 0, 77, 89
1, 50593, Note_on_c, 0, 77, 0
1, 50612, Note_on_c, 0, 77, 79
1, 50652, Note_on_c, 0, 77, 0
1, 50667, Note_on_c, 0, 81, 83
1, 50689, Note_on_c, 0, 81, 0
1, 50692, Note_on_c, 0, 60, 0
1, 50697, Note_on_c, 0, 62, 0
1, 50701, Note_on_c, 0, 53, 0
1, 50736, Note_on_c, 0, 72, 74
1, 50736, Note_on_c, 0, 70, 35
1, 50739, Note_on_c, 0, 67, 35
1, 50742, Control_c, 0, 64, 0
1, 50744, Note_on_c, 0, 53, 20
1, 50761, Control_c, 0, 64, 127
1, 50791, Note_on_c, 0, 70, 0
1, 50801, Note_on_c, 0, 67, 0
1, 50914, Note_on_c, 0, 53, 0
1, 50920, Note_on_c, 0, 67, 37
1, 50921, Note_on_c, 0, 63, 29
1, 51017, Note_on_c, 0, 46, 46
1, 51028, Note_on_c, 0, 67, 0
1, 51036, Note_on_c, 0, 72, 0
1, 51056, Note_on_c, 0, 63, 0
1, 51087, Note_on_c, 0, 46, 0
1, 51100, Note_on_c, 0, 46, 74
1, 51168, Note_on_c, 0, 46, 0
1, 51184, Note_on_c, 0, 60, 82
1, 51186, Note_on_c, 0, 58, 79
1, 51187, Note_on_c, 0, 46, 67
1, 51188, Note_on_c, 0, 55, 68
1, 51252, Note_on_c, 0, 55, 0
1, 51257, Note_on_c, 0, 58, 0
1, 51259, Note_on_c, 0, 46, 0
1, 51265, Note_on_c, 0, 60, 0
1, 51275, Note_on_c, 0, 63, 67
1, 51275, Note_on_c, 0, 58, 81
1, 51275, Note_on_c, 0, 46, 69
1, 51276, Note_on_c, 0, 60, 79
1, 51277, Note_on_c, 0, 55, 75
1, 51282, Control_c, 0, 64, 0
1, 51295, Control_c, 0, 64, 127
1, 51345, Note_on_c, 0, 46, 0
1, 51367, Note_on_c, 0, 46, 78
1, 51385, Note_on_c, 0, 55, 0
1, 51388, Note_on_c, 0, 60, 0
1, 51397, Note_on_c, 0, 58, 0
1, 51400, Note_on_c, 0, 63, 0
1, 51402, Note_on_c, 0, 46, 0
1, 51454, Note_on_c, 0, 34, 59
1, 51454, Note_on_c, 0, 46, 60
1, 51456, Note_on_c, 0, 67, 80
1, 51456, Note_on_c, 0, 63, 75
1, 51457, Note_on_c, 0, 58, 85
1, 51468, Control_c, 0, 64, 0
1, 51482, Control_c, 0, 64, 127
1, 51532, Note_on_c, 0, 34, 0
1, 51551, Note_on_c, 0, 34, 71
1, 51555, Note_on_c, 0, 67, 0
1, 51565, Note_on_c, 0, 63, 0
1, 51586, Note_on_c, 0, 58, 0
1, 51598, Note_on_c, 0, 46, 0
1, 51638, Note_on_c, 0, 70, 71
1, 51639, Note_on_c, 0, 63, 78
1, 51640, Note_on_c, 0, 46, 77
1, 51640, Note_on_c, 0, 67, 71
1, 51640, Note_on_c, 0, 58, 87
1, 51691, Note_on_c, 0, 34, 0
1, 51704, Note_on_c, 0, 46, 0
1, 51704, Note_on_c, 0, 58, 0
1, 51710, Note_on_c, 0, 67, 0
1, 51714, Note_on_c, 0, 63, 0
1, 51721, Note_on_c, 0, 70, 0
1, 51736, Note_on_c, 0, 34, 38
1, 51741, Note_on_c, 0, 46, 42
1, 51744, Note_on_c, 0, 34, 0
1, 51748, Note_on_c, 0, 46, 0
1, 51825, Note_on_c, 0, 74, 58
1, 51827, Note_on_c, 0, 69, 71
1, 51827, Note_on_c, 0, 46, 68
1, 51827, Note_on_c, 0, 65, 85
1, 51828, Note_on_c, 0, 62, 83
1, 51830, Control_c, 0, 64, 0
1, 51830, Note_on_c, 0, 53, 72
1, 51830, Note_on_c, 0, 57, 90
1, 51876, Control_c, 0, 64, 127
1, 51964, Note_on_c, 0, 74, 0
1, 51965, Note_on_c, 0, 57, 0
1, 51966, Note_on_c, 0, 69, 0
1, 51971, Note_on_c, 0, 65, 0
1, 51975, Note_on_c, 0, 62, 0
1, 52008, Note_on_c, 0, 53, 0
1, 52080, Note_on_c, 0, 53, 1
1, 52082, Note_on_c, 0, 69, 71
1, 52085, Note_on_c, 0, 57, 55
1, 52086, Note_on_c, 0, 62, 44
1, 52097, Note_on_c, 0, 57, 0
1, 52102, Note_on_c, 0, 69, 0
1, 52102, Note_on_c, 0, 62, 0
1, 52111, Note_on_c, 0, 67, 35
1, 52131, Note_on_c, 0, 67, 0
1, 52140, Note_on_c, 0, 62, 63
1, 52140, Note_on_c, 0, 69, 70
1, 52142, Note_on_c, 0, 57, 64
1, 52147, Control_c, 0, 64, 0
1, 52174, Control_c, 0, 64, 127
1, 52195, Note_on_c, 0, 53, 0
1, 52201, Note_on_c, 0, 57, 0
1, 52207, Note_on_c, 0, 62, 0
1, 52220, Note_on_c, 0, 62, 57
1, 52221, Note_on_c, 0, 53, 32
1, 52222, Note_on_c, 0, 57, 35
1, 52327, Note_on_c, 0, 57, 0
1, 52334, Note_on_c, 0, 53, 0
1, 52339, Note_on_c, 0, 62, 0
1, 52400, Note_on_c, 0, 62, 44
1, 52401, Note_on_c, 0, 57, 58
1, 52405, Note_on_c, 0, 53, 24
1, 52455, Note_on_c, 0, 46, 0
1, 52500, Note_on_c, 0, 46, 69
1, 52503, Note_on_c, 0, 69, 0
1, 52503, Note_on_c, 0, 62, 0
1, 52520, Note_on_c, 0, 57, 0
1, 52548, Note_on_c, 0, 46, 0
1, 52556, Note_on_c, 0, 53, 0
1, 52587, Note_on_c, 0, 46, 67
1, 52587, Note_on_c, 0, 63, 73
1, 52589, Note_on_c, 0, 56, 75
1, 52589, Note_on_c, 0, 60, 79
1, 52590, Control_c, 0, 64, 0
1, 52590, Note_on_c, 0, 53, 73
1, 52608, Control_c, 0, 64, 127
1, 52641, Note_on_c, 0, 53, 0
1, 52673, Note_on_c, 0, 55, 72
1, 52675, Note_on_c, 0, 60, 0
1, 52683, Note_on_c, 0, 56, 0
1, 52696, Note_on_c, 0, 63, 0
1, 52711, Note_on_c, 0, 55, 0
1, 52717, Note_on_c, 0, 56, 76
1, 52745, Note_on_c, 0, 56, 0
1, 52755, Note_on_c, 0, 58, 80
1, 52782, Note_on_c, 0, 58, 0
1, 52791, Note_on_c, 0, 60, 83
1, 52796, Note_on_c, 0, 56, 37
1, 52804, Control_c, 0, 64, 0
1, 52820, Note_on_c, 0, 60, 0
1, 52825, Note_on_c, 0, 62, 77
1, 52829, Control_c, 0, 64, 127
1, 52849, Note_on_c, 0, 62, 0
1, 52857, Note_on_c, 0, 63, 76
1, 52870, Note_on_c, 0, 46, 0
1, 52872, Note_on_c, 0, 63, 0
1, 52872, Note_on_c, 0, 56, 0
1, 52883, Note_on_c, 0, 65, 79
1, 52900, Note_on_c, 0, 65, 0
1, 52909, Note_on_c, 0, 67, 68
1, 52930, Note_on_c, 0, 68, 64
1, 52933, Note_on_c, 0, 67, 0
1, 52949, Note_on_c, 0, 68, 0
1, 52953, Note_on_c, 0, 70, 64
1, 52967, Note_on_c, 0, 70, 0
1, 52971, Note_on_c, 0, 56, 44
1, 52972, Control_c, 0, 64, 0
1, 52972, Note_on_c, 0, 62, 45
1, 52972, Note_on_c, 0, 67, 40
1, 52977, Note_on_c, 0, 72, 60
1, 53019, Control_c, 0, 64, 127
1, 53033, Note_on_c, 0, 72, 0
1, 53033, Note_on_c, 0, 67, 0
1, 53036, Note_on_c, 0, 74, 48
1, 53039, Note_on_c, 0, 62, 0
1, 53056, Note_on_c, 0, 56, 0
1, 53058, Note_on_c, 0, 74, 0
1, 53067, Note_on_c, 0, 76, 51
1, 53081, Note_on_c, 0, 76, 0
1, 53095, Note_on_c, 0, 77, 34
1, 53107, Note_on_c, 0, 77, 0
1, 53127, Note_on_c, 0, 79, 66
1, 53140, Note_on_c, 0, 79, 0
1, 53154, Note_on_c, 0, 80, 62
1, 53160, Control_c, 0, 64, 0
1, 53172, Note_on_c, 0, 56, 31
1, 53175, Note_on_c, 0, 46, 31
1, 53181, Note_on_c, 0, 80, 0
1, 53186, Note_on_c, 0, 82, 55
1, 53199, Note_on_c, 0, 82, 0
1, 53212, Note_on_c, 0, 83, 57
1, 53220, Control_c, 0, 64, 127
1, 53229, Note_on_c, 0, 83, 0
1, 53238, Note_on_c, 0, 84, 54
1, 53240, Note_on_c, 0, 56, 0
1, 53254, Note_on_c, 0, 84, 0
1, 53256, Note_on_c, 0, 46, 0
1, 53261, Note_on_c, 0, 85, 67
1, 53275, Note_on_c, 0, 85, 0
1, 53284, Note_on_c, 0, 86, 66
1, 53299, Note_on_c, 0, 86, 0
1, 53304, Note_on_c, 0, 87, 46
1, 53329, Note_on_c, 0, 87, 0
1, 53334, Note_on_c, 0, 88, 44
1, 53347, Note_on_c, 0, 88, 0
1, 53355, Note_on_c, 0, 89, 63
1, 53365, Control_c, 0, 64, 0
1, 53377, Note_on_c, 0, 89, 0
1, 53381, Note_on_c, 0, 46, 36
1, 53381, Note_on_c, 0, 39, 36
1, 53385, Note_on_c, 0, 86, 46
1, 53393, Control_c, 0, 64, 127
1, 53418, Note_on_c, 0, 39, 0
1, 53426, Note_on_c, 0, 46, 0
1, 53470, Note_on_c, 0, 86, 0
1, 53573, Note_on_c, 0, 62, 35
1, 53580, Note_on_c, 0, 55, 28
1, 53584, Note_on_c, 0, 58, 23
1, 53684, Note_on_c, 0, 89, 66
1, 53693, Note_on_c, 0, 55, 0
1, 53697, Note_on_c, 0, 62, 0
1, 53712, Note_on_c, 0, 89, 0
1, 53713, Note_on_c, 0, 58, 0
1, 53717, Note_on_c, 0, 86, 64
1, 53734, Note_on_c, 0, 86, 0
1, 53745, Note_on_c, 0, 87, 67
1, 53762, Control_c, 0, 64, 0
1, 53766, Note_on_c, 0, 87, 0
1, 53771, Note_on_c, 0, 50, 38
1, 53772, Note_on_c, 0, 54, 46
1, 53773, Note_on_c, 0, 89, 69
1, 53775, Note_on_c, 0, 60, 37
1, 53793, Note_on_c, 0, 89, 0
1, 53809, Note_on_c, 0, 87, 63
1, 53817, Control_c, 0, 64, 127
1, 53868, Note_on_c, 0, 50, 0
1, 53875, Note_on_c, 0, 54, 0
1, 53879, Note_on_c, 0, 60, 0
1, 53975, Note_on_c, 0, 62, 36
1, 53977, Note_on_c, 0, 54, 35
1, 53977, Note_on_c, 0, 60, 29
1, 54048, Note_on_c, 0, 87, 0
1, 54058, Note_on_c, 0, 60, 0
1, 54059, Note_on_c, 0, 86, 79
1, 54068, Note_on_c, 0, 62, 0
1, 54082, Note_on_c, 0, 54, 0
1, 54085, Note_on_c, 0, 86, 0
1, 54106, Note_on_c, 0, 86, 87
1, 54130, Note_on_c, 0, 86, 0
1, 54162, Note_on_c, 0, 89, 88
1, 54164, Note_on_c, 0, 55, 44
1, 54165, Note_on_c, 0, 62, 49
1, 54166, Note_on_c, 0, 57, 54
1, 54166, Control_c, 0, 64, 0
1, 54169, Note_on_c, 0, 58, 42
1, 54206, Note_on_c, 0, 88, 48
1, 54212, Note_on_c, 0, 89, 0
1, 54218, Note_on_c, 0, 87, 62
1, 54220, Note_on_c, 0, 88, 0
1, 54242, Note_on_c, 0, 86, 49
1, 54245, Note_on_c, 0, 87, 0
1, 54267, Control_c, 0, 64, 127
1, 54287, Note_on_c, 0, 62, 0
1, 54291, Note_on_c, 0, 57, 0
1, 54302, Note_on_c, 0, 87, 77
1, 54304, Note_on_c, 0, 58, 0
1, 54313, Note_on_c, 0, 86, 0
1, 54343, Note_on_c, 0, 87, 0
1, 54357, Control_c, 0, 64, 0
1, 54359, Note_on_c, 0, 62, 41
1, 54360, Note_on_c, 0, 89, 74
1, 54362, Note_on_c, 0, 58, 37
1, 54378, Control_c, 0, 64, 127
1, 54415, Note_on_c, 0, 89, 0
1, 54421, Note_on_c, 0, 84, 66
1, 54434, Note_on_c, 0, 55, 0
1, 54447, Note_on_c, 0, 58, 0
1, 54447, Note_on_c, 0, 62, 0
1, 54468, Note_on_c, 0, 84, 0
1, 54477, Note_on_c, 0, 80, 67
1, 54531, Note_on_c, 0, 80, 0
1, 54542, Note_on_c, 0, 63, 37
1, 54542, Control_c, 0, 64, 0
1, 54543, Note_on_c, 0, 68, 34
1, 54543, Note_on_c, 0, 60, 37
1, 54544, Note_on_c, 0, 79, 47
1, 54546, Note_on_c, 0, 58, 35
1, 54569, Control_c, 0, 64, 127
1, 54594, Note_on_c, 0, 79, 0
1, 54608, Note_on_c, 0, 75, 61
1, 54626, Note_on_c, 0, 68, 0
1, 54663, Note_on_c, 0, 58, 0
1, 54666, Note_on_c, 0, 60, 0
1, 54670, Note_on_c, 0, 72, 34
1, 54676, Note_on_c, 0, 63, 0
1, 54716, Note_on_c, 0, 75, 0
1, 54718, Note_on_c, 0, 72, 0
1, 54732, Note_on_c, 0, 74, 37
1, 54732, Note_on_c, 0, 67, 37
1, 54732, Note_on_c, 0, 62, 33
1, 54733, Control_c, 0, 64, 0
1, 54733, Note_on_c, 0, 56, 32
1, 54761, Control_c, 0, 64, 127
1, 54790, Note_on_c, 0, 67, 0
1, 54795, Note_on_c, 0, 74, 0
1, 54795, Note_on_c, 0, 77, 62
1, 54799, Note_on_c, 0, 62, 0
1, 54827, Note_on_c, 0, 56, 0
1, 54855, Note_on_c, 0, 77, 0
1, 54856, Note_on_c, 0, 74, 41
1, 54874, Note_on_c, 0, 74, 0
1, 54927, Note_on_c, 0, 74, 32
1, 54930, Note_on_c, 0, 46, 32
1, 54931, Control_c, 0, 64, 0
1, 54932, Note_on_c, 0, 67, 28
1, 54932, Note_on_c, 0, 39, 37
1, 54938, Note_on_c, 0, 62, 19
1, 54957, Control_c, 0, 64, 127
1, 54991, Note_on_c, 0, 74, 0
1, 54993, Note_on_c, 0, 67, 0
1, 55001, Note_on_c, 0, 62, 0
1, 55005, Note_on_c, 0, 39, 0
1, 55010, Note_on_c, 0, 46, 0
1, 55047, Note_on_c, 0, 70, 48
1, 55076, Note_on_c, 0, 70, 0
1, 55120, Note_on_c, 0, 70, 45
1, 55122, Note_on_c, 0, 51, 29
1, 55122, Note_on_c, 0, 67, 40
1, 55123, Note_on_c, 0, 62, 39
1, 55128, Note_on_c, 0, 58, 27
1, 55204, Note_on_c, 0, 62, 0
1, 55226, Note_on_c, 0, 58, 0
1, 55231, Note_on_c, 0, 67, 0
1, 55306, Note_on_c, 0, 70, 0
1, 55318, Note_on_c, 0, 63, 35
1, 55320, Note_on_c, 0, 67, 32
1, 55321, Note_on_c, 0, 62, 34
1, 55326, Note_on_c, 0, 58, 23
1, 55395, Note_on_c, 0, 62, 0
1, 55426, Note_on_c, 0, 62, 37
1, 55429, Note_on_c, 0, 58, 0
1, 55442, Note_on_c, 0, 67, 0
1, 55444, Note_on_c, 0, 63, 0
1, 55455, Note_on_c, 0, 62, 0
1, 55511, Note_on_c, 0, 70, 62
1, 55512, Note_on_c, 0, 63, 57
1, 55516, Note_on_c, 0, 62, 47
1, 55519, Note_on_c, 0, 58, 23
1, 55534, Note_on_c, 0, 63, 0
1, 55543, Note_on_c, 0, 70, 0
1, 55565, Note_on_c, 0, 62, 0
1, 55593, Note_on_c, 0, 58, 0
1, 55606, Note_on_c, 0, 72, 84
1, 55611, Note_on_c, 0, 51, 0
1, 55640, Note_on_c, 0, 72, 0
1, 55689, Note_on_c, 0, 74, 68
1, 55693, Note_on_c, 0, 48, 49
1, 55695, Note_on_c, 0, 67, 73
1, 55695, Control_c, 0, 64, 0
1, 55697, Note_on_c, 0, 63, 64
1, 55701, Note_on_c, 0, 58, 37
1, 55732, Control_c, 0, 64, 127
1, 55799, Note_on_c, 0, 55, 41
1, 55806, Note_on_c, 0, 58, 0
1, 55848, Note_on_c, 0, 63, 0
1, 55848, Note_on_c, 0, 67, 0
1, 55879, Note_on_c, 0, 74, 0
1, 55895, Note_on_c, 0, 63, 59
1, 55897, Note_on_c, 0, 72, 58
1, 55898, Note_on_c, 0, 67, 52
1, 55902, Note_on_c, 0, 58, 27
1, 55904, Note_on_c, 0, 55, 0
1, 55977, Note_on_c, 0, 72, 0
1, 55991, Note_on_c, 0, 74, 58
1, 56021, Note_on_c, 0, 58, 0
1, 56028, Note_on_c, 0, 67, 0
1, 56045, Note_on_c, 0, 63, 0
1, 56063, Note_on_c, 0, 74, 0
1, 56090, Note_on_c, 0, 63, 37
1, 56091, Note_on_c, 0, 67, 45
1, 56093, Note_on_c, 0, 70, 35
1, 56098, Note_on_c, 0, 58, 29
1, 56140, Note_on_c, 0, 48, 0
1, 56180, Note_on_c, 0, 67, 0
1, 56187, Note_on_c, 0, 48, 44
1, 56205, Note_on_c, 0, 58, 0
1, 56216, Note_on_c, 0, 63, 0
1, 56277, Note_on_c, 0, 70, 0
1, 56296, Note_on_c, 0, 62, 43
1, 56298, Note_on_c, 0, 58, 45
1, 56299, Note_on_c, 0, 63, 34
1, 56300, Note_on_c, 0, 67, 29
1, 56344, Note_on_c, 0, 48, 0
1, 56388, Note_on_c, 0, 58, 0
1, 56408, Note_on_c, 0, 48, 37
1, 56430, Note_on_c, 0, 62, 0
1, 56433, Note_on_c, 0, 67, 0
1, 56434, Note_on_c, 0, 63, 0
1, 56436, Note_on_c, 0, 48, 0
1, 56650, Note_on_c, 0, 75, 59
1, 56650, Note_on_c, 0, 63, 55
1, 56651, Control_c, 0, 64, 0
1, 56652, Note_on_c, 0, 67, 51
1, 56652, Note_on_c, 0, 70, 55
1, 56654, Note_on_c, 0, 29, 45
1, 56656, Note_on_c, 0, 41, 44
1, 56701, Control_c, 0, 64, 127
1, 56746, Note_on_c, 0, 29, 0
1, 56750, Note_on_c, 0, 41, 0
1, 56837, Note_on_c, 0, 67, 0
1, 56861, Note_on_c, 0, 63, 0
1, 56865, Note_on_c, 0, 75, 0
1, 56874, Note_on_c, 0, 70, 0
1, 57016, Note_on_c, 0, 63, 38
1, 57017, Note_on_c, 0, 74, 40
1, 57018, Note_on_c, 0, 67, 55
1, 57018, Note_on_c, 0, 70, 46
1, 57026, Note_on_c, 0, 58, 32
1, 57029, Note_on_c, 0, 53, 19
1, 57050, Note_on_c, 0, 63, 0
1, 57056, Note_on_c, 0, 53, 0
1, 57062, Note_on_c, 0, 74, 0
1, 57065, Note_on_c, 0, 58, 0
1, 57065, Note_on_c, 0, 67, 0
1, 57069, Note_on_c, 0, 70, 0
1, 57144, Note_on_c, 0, 41, 34
1, 57146, Note_on_c, 0, 70, 35
1, 57146, Note_on_c, 0, 63, 44
1, 57147, Note_on_c, 0, 58, 40
1, 57147, Note_on_c, 0, 67, 42
1, 57151, Note_on_c, 0, 53, 31
1, 57163, Control_c, 0, 64, 0
1, 57206, Control_c, 0, 64, 127
1, 57297, Note_on_c, 0, 53, 0
1, 57334, Note_on_c, 0, 67, 0
1, 57341, Note_on_c, 0, 58, 0
1, 57343, Note_on_c, 0, 63, 0
1, 57466, Note_on_c, 0, 63, 35
1, 57467, Note_on_c, 0, 58, 30
1, 57472, Note_on_c, 0, 53, 24
1, 57539, Note_on_c, 0, 70, 0
1, 57671, Note_on_c, 0, 67, 50
1, 57713, Note_on_c, 0, 53, 0
1, 57768, Note_on_c, 0, 41, 0
1, 57800, Note_on_c, 0, 67, 0
1, 57801, Note_on_c, 0, 58, 0
1, 57859, Note_on_c, 0, 63, 0
1, 58097, Control_c, 0, 64, 0
1, 58103, Note_on_c, 0, 34, 27
1, 58104, Note_on_c, 0, 65, 31
1, 58105, Note_on_c, 0, 57, 29
1, 58106, Note_on_c, 0, 22, 23
1, 58106, Note_on_c, 0, 62, 24
1, 58107, Note_on_c, 0, 60, 32
1, 58109, Control_c, 0, 64, 127
1, 58122, Note_on_c, 0, 57, 0
1, 58130, Note_on_c, 0, 60, 0
1, 58132, Note_on_c, 0, 62, 0
1, 58134, Note_on_c, 0, 22, 0
1, 58138, Note_on_c, 0, 65, 0
1, 58143, Note_on_c, 0, 34, 0
1, 58201, Note_on_c, 0, 77, 53
1, 58236, Note_on_c, 0, 77, 0
1, 58292, Note_on_c, 0, 77, 35
1, 58294, Note_on_c, 0, 74, 29
1, 58295, Note_on_c, 0, 65, 26
1, 58296, Note_on_c, 0, 62, 20
1, 58297, Note_on_c, 0, 69, 34
1, 58299, Note_on_c, 0, 72, 27
1, 58301, Note_on_c, 0, 60, 28
1, 58350, Note_on_c, 0, 77, 0
1, 58382, Note_on_c, 0, 77, 48
1, 58414, Note_on_c, 0, 65, 0
1, 58422, Note_on_c, 0, 72, 0
1, 58425, Note_on_c, 0, 69, 0
1, 58429, Note_on_c, 0, 74, 0
1, 58435, Note_on_c, 0, 77, 0
1, 58443, Note_on_c, 0, 62, 0
1, 58454, Note_on_c, 0, 60, 0
1, 58477, Note_on_c, 0, 77, 38
1, 58481, Note_on_c, 0, 74, 29
1, 58482, Note_on_c, 0, 69, 34
1, 58482, Note_on_c, 0, 72, 31
1, 58483, Note_on_c, 0, 65, 30
1, 58486, Note_on_c, 0, 62, 27
1, 58488, Note_on_c, 0, 60, 22
1, 58507, Note_on_c, 0, 65, 0
1, 58581, Note_on_c, 0, 58, 42
1, 58586, Note_on_c, 0, 60, 0
1, 58640, Note_on_c, 0, 58, 0
1, 58672, Note_on_c, 0, 58, 55
1, 58704, Note_on_c, 0, 62, 0
1, 58730, Note_on_c, 0, 77, 0
1, 58732, Note_on_c, 0, 69, 0
1, 58736, Note_on_c, 0, 72, 0
1, 58754, Note_on_c, 0, 74, 0
1, 58762, Note_on_c, 0, 77, 40
1, 58763, Note_on_c, 0, 65, 40
1, 58767, Note_on_c, 0, 72, 31
1, 58768, Note_on_c, 0, 69, 28
1, 58786, Note_on_c, 0, 69, 0
1, 58806, Note_on_c, 0, 72, 0
1, 58812, Note_on_c, 0, 77, 0
1, 58813, Note_on_c, 0, 65, 0
1, 58855, Note_on_c, 0, 75, 56
1, 58856, Note_on_c, 0, 77, 50
1, 58858, Control_c, 0, 64, 0
1, 58859, Note_on_c, 0, 70, 52
1, 58859, Note_on_c, 0, 72, 54
1, 58860, Note_on_c, 0, 65, 40
1, 58888, Control_c, 0, 64, 127
1, 58936, Note_on_c, 0, 77, 0
1, 58955, Note_on_c, 0, 77, 43
1, 58959, Note_on_c, 0, 63, 23
1, 58977, Note_on_c, 0, 65, 0
1, 59004, Note_on_c, 0, 72, 0
1, 59010, Note_on_c, 0, 70, 0
1, 59018, Note_on_c, 0, 75, 0
1, 59020, Note_on_c, 0, 77, 0
1, 59052, Note_on_c, 0, 77, 29
1, 59054, Note_on_c, 0, 65, 28
1, 59059, Note_on_c, 0, 75, 23
1, 59117, Note_on_c, 0, 58, 0
1, 59147, Note_on_c, 0, 58, 37
1, 59149, Note_on_c, 0, 65, 0
1, 59154, Note_on_c, 0, 77, 0
1, 59163, Note_on_c, 0, 75, 0
1, 59170, Note_on_c, 0, 63, 0
1, 59232, Note_on_c, 0, 75, 42
1, 59238, Note_on_c, 0, 63, 25
1, 59239, Note_on_c, 0, 72, 37
1, 59239, Note_on_c, 0, 70, 30
1, 59243, Note_on_c, 0, 67, 30
1, 59283, Note_on_c, 0, 63, 0
1, 59334, Note_on_c, 0, 72, 0
1, 59335, Note_on_c, 0, 63, 30
1, 59338, Note_on_c, 0, 67, 0
1, 59358, Note_on_c, 0, 70, 0
1, 59420, Note_on_c, 0, 70, 37
1, 59426, Note_on_c, 0, 72, 30
1, 59427, Note_on_c, 0, 67, 25
1, 59443, Note_on_c, 0, 58, 0
1, 59465, Note_on_c, 0, 72, 0
1, 59494, Note_on_c, 0, 67, 0
1, 59514, Note_on_c, 0, 58, 35
1, 59527, Note_on_c, 0, 63, 0
1, 59540, Note_on_c, 0, 75, 0
1, 59546, Note_on_c, 0, 70, 0
1, 59606, Note_on_c, 0, 77, 35
1, 59609, Note_on_c, 0, 74, 31
1, 59612, Note_on_c, 0, 72, 31
1, 59613, Note_on_c, 0, 69, 43
1, 59616, Note_on_c, 0, 65, 28
1, 59651, Note_on_c, 0, 69, 0
1, 59656, Note_on_c, 0, 58, 0
1, 59681, Note_on_c, 0, 72, 0
1, 59690, Note_on_c, 0, 74, 0
1, 59692, Note_on_c, 0, 77, 0
1, 59706, Note_on_c, 0, 58, 46
1, 59734, Note_on_c, 0, 65, 0
1, 59791, Note_on_c, 0, 89, 64
1, 59800, Note_on_c, 0, 77, 47
1, 59801, Note_on_c, 0, 65, 28
1, 59859, Note_on_c, 0, 58, 0
1, 59888, Note_on_c, 0, 89, 0
1, 59895, Note_on_c, 0, 58, 37
1, 59905, Note_on_c, 0, 77, 0
1, 59921, Note_on_c, 0, 65, 0
1, 59977, Note_on_c, 0, 58, 0
1, 60073, Note_on_c, 0, 58, 52
1, 60165, Note_on_c, 0, 74, 25
1, 60165, Note_on_c, 0, 77, 33
1, 60167, Note_on_c, 0, 69, 40
1, 60167, Note_on_c, 0, 72, 34
1, 60168, Note_on_c, 0, 65, 30
1, 60181, Note_on_c, 0, 65, 0
1, 60182, Note_on_c, 0, 69, 0
1, 60197, Note_on_c, 0, 58, 0
1, 60238, Note_on_c, 0, 77, 0
1, 60241, Note_on_c, 0, 72, 0
1, 60246, Note_on_c, 0, 74, 0
1, 60266, Note_on_c, 0, 46, 33
1, 60313, Note_on_c, 0, 46, 0
1, 60357, Note_on_c, 0, 46, 35
1, 60393, Note_on_c, 0, 46, 0
1, 60453, Note_on_c, 0, 34, 33
1, 60512, Note_on_c, 0, 34, 0
1, 60551, Note_on_c, 0, 34, 34
1, 60588, Note_on_c, 0, 34, 0
1, 60644, Note_on_c, 0, 34, 29
1, 60692, Note_on_c, 0, 34, 0
1, 60740, Note_on_c, 0, 51, 37
1, 60743, Note_on_c, 0, 34, 31
1, 60744, Note_on_c, 0, 60, 44
1, 60744, Note_on_c, 0, 55, 35
1, 60747, Note_on_c, 0, 58, 34
1, 60748, Note_on_c, 0, 46, 20
1, 60748, Control_c, 0, 64, 0
1, 60799, Control_c, 0, 64, 127
1, 60815, Note_on_c, 0, 46, 0
1, 60858, Note_on_c, 0, 46, 32
1, 60872, Note_on_c, 0, 55, 0
1, 60877, Note_on_c, 0, 51, 0
1, 60883, Note_on_c, 0, 60, 0
1, 60902, Note_on_c, 0, 58, 0
1, 60908, Note_on_c, 0, 34, 0
1, 60912, Note_on_c, 0, 46, 0
1, 60964, Note_on_c, 0, 51, 37
1, 60966, Note_on_c, 0, 46, 29
1, 60966, Note_on_c, 0, 60, 36
1, 60968, Note_on_c, 0, 55, 35
1, 60972, Note_on_c, 0, 58, 31
1, 60994, Note_on_c, 0, 46, 0
1, 61012, Note_on_c, 0, 55, 0
1, 61013, Note_on_c, 0, 51, 0
1, 61023, Note_on_c, 0, 60, 0
1, 61033, Note_on_c, 0, 58, 0
1, 61093, Note_on_c, 0, 34, 26
1, 61120, Note_on_c, 0, 34, 0
1, 61504, Note_on_c, 0, 65, 24
1, 61509, Note_on_c, 0, 53, 31
1, 61509, Note_on_c, 0, 34, 27
1, 61511, Note_on_c, 0, 22, 29
1, 61521, Control_c, 0, 64, 0
1, 61597, Control_c, 0, 64, 127
1, 61678, Note_on_c, 0, 62, 28
1, 61698, Note_on_c, 0, 65, 0
1, 61926, Note_on_c, 0, 53, 0
1, 61932, Note_on_c, 0, 62, 0
1, 61948, Note_on_c, 0, 34, 0
1, 61948, Note_on_c, 0, 22, 0
1, 62296, Control_c, 0, 64, 0
1, 62296, End_track
0, 0, End_of_file
