0, 0, Header, 1, 3, 960
1, 0, Start_track
1, 0, Title_t, "Stars Fell on Alabama (piano duet)"
1, 0, Text_t, "Doug McKenzie (dougmck@tpg.com.au)\012"
1, 0, Time_signature, 4, 2, 24, 8
1, 0, Key_signature, 0, "major"
1, 0, Tempo, 769231
1, 0, End_track
2, 0, Start_track
2, 0, Title_t, "accompaniment"
2, 0, Control_c, 1, 7, 91
2, 0, Control_c, 1, 91, 2
2, 0, Note_on_c, 1, 43, 28
2, 0, Note_on_c, 1, 36, 24
2, 0, Note_on_c, 1, 64, 46
2, 0, Note_on_c, 1, 52, 29
2, 0, Note_on_c, 1, 59, 35
2, 102, Control_c, 1, 64, 127
2, 484, Note_on_c, 1, 59, 0
2, 504, Note_on_c, 1, 36, 0
2, 542, Note_on_c, 1, 52, 0
2, 839, Note_on_c, 1, 64, 0
2, 968, Note_on_c, 1, 59, 29
2, 978, Note_on_c, 1, 52, 32
2, 982, Note_on_c, 1, 55, 25
2, 1004, Note_on_c, 1, 43, 0
2, 1211, Note_on_c, 1, 55, 0
2, 1360, Note_on_c, 1, 59, 0
2, 1854, Control_c, 1, 64, 0
2, 1894, Note_on_c, 1, 61, 48
2, 1905, Note_on_c, 1, 52, 0
2, 1905, Note_on_c, 1, 58, 47
2, 1941, Note_on_c, 1, 49, 36
2, 2154, Control_c, 1, 64, 127
2, 2221, Note_on_c, 1, 58, 0
2, 2343, Note_on_c, 1, 61, 0
2, 2764, Note_on_c, 1, 52, 24
2, 2860, Note_on_c, 1, 70, 79
2, 2861, Note_on_c, 1, 61, 85
2, 2862, Note_on_c, 1, 55, 71
2, 2867, Note_on_c, 1, 64, 85
2, 2880, Control_c, 1, 64, 0
2, 2899, Note_on_c, 1, 52, 0
2, 2963, Note_on_c, 1, 49, 0
2, 3204, Control_c, 1, 64, 127
2, 3445, Note_on_c, 1, 64, 0
2, 3465, Note_on_c, 1, 61, 0
2, 3539, Note_on_c, 1, 70, 0
2, 3821, Note_on_c, 1, 55, 0
2, 3856, Control_c, 1, 64, 0
2, 3871, Note_on_c, 1, 69, 54
2, 3877, Note_on_c, 1, 60, 48
2, 3882, Note_on_c, 1, 66, 51
2, 3938, Note_on_c, 1, 54, 35
2, 4255, Control_c, 1, 64, 127
2, 4446, Note_on_c, 1, 60, 0
2, 4633, Note_on_c, 1, 69, 0
2, 4827, Note_on_c, 1, 50, 35
2, 4833, Note_on_c, 1, 60, 42
2, 5006, Note_on_c, 1, 54, 0
2, 5038, Note_on_c, 1, 66, 0
2, 5114, Note_on_c, 1, 50, 0
2, 5437, Note_on_c, 1, 60, 0
2, 5732, Control_c, 1, 64, 0
2, 5768, Note_on_c, 1, 59, 39
2, 5769, Note_on_c, 1, 43, 35
2, 5771, Note_on_c, 1, 50, 28
2, 5785, Note_on_c, 1, 53, 37
2, 6207, Control_c, 1, 64, 127
2, 6258, Note_on_c, 1, 50, 0
2, 6273, Note_on_c, 1, 53, 0
2, 6440, Note_on_c, 1, 59, 0
2, 6720, Control_c, 1, 64, 0
2, 6721, Note_on_c, 1, 59, 57
2, 6725, Note_on_c, 1, 67, 59
2, 6735, Note_on_c, 1, 63, 37
2, 6739, Note_on_c, 1, 53, 34
2, 6804, Note_on_c, 1, 43, 0
2, 6962, Note_on_c, 1, 53, 0
2, 6996, Control_c, 1, 64, 127
2, 7245, Note_on_c, 1, 59, 0
2, 7307, Note_on_c, 1, 67, 0
2, 7398, Note_on_c, 1, 63, 0
2, 7667, Note_on_c, 1, 43, 22
2, 7671, Control_c, 1, 64, 0
2, 7707, Note_on_c, 1, 57, 39
2, 7712, Note_on_c, 1, 36, 24
2, 7727, Note_on_c, 1, 52, 32
2, 7728, Note_on_c, 1, 64, 42
2, 7737, Note_on_c, 1, 59, 30
2, 7750, Note_on_c, 1, 62, 47
2, 7893, Note_on_c, 1, 57, 0
2, 7899, Note_on_c, 1, 59, 0
2, 7907, Note_on_c, 1, 62, 0
2, 7943, Note_on_c, 1, 64, 0
2, 8010, Note_on_c, 1, 52, 0
2, 8034, Note_on_c, 1, 43, 0
2, 8321, Note_on_c, 1, 36, 0
2, 8618, Note_on_c, 1, 43, 26
2, 8637, Note_on_c, 1, 57, 34
2, 8638, Note_on_c, 1, 36, 28
2, 8652, Note_on_c, 1, 64, 40
2, 8657, Note_on_c, 1, 52, 22
2, 8658, Note_on_c, 1, 62, 40
2, 8666, Note_on_c, 1, 59, 20
2, 8837, Control_c, 1, 64, 127
2, 8857, Note_on_c, 1, 36, 0
2, 8874, Note_on_c, 1, 43, 0
2, 9023, Note_on_c, 1, 52, 0
2, 9184, Note_on_c, 1, 59, 0
2, 9292, Note_on_c, 1, 57, 0
2, 9448, Note_on_c, 1, 64, 0
2, 9481, Note_on_c, 1, 62, 0
2, 10407, Note_on_c, 1, 41, 43
2, 10460, Note_on_c, 1, 48, 46
2, 10500, Control_c, 1, 64, 0
2, 10535, Note_on_c, 1, 74, 78
2, 10541, Note_on_c, 1, 63, 56
2, 10545, Note_on_c, 1, 57, 36
2, 10551, Note_on_c, 1, 71, 61
2, 10555, Note_on_c, 1, 67, 60
2, 10790, Control_c, 1, 64, 127
2, 10938, Note_on_c, 1, 48, 0
2, 10958, Note_on_c, 1, 71, 0
2, 10962, Note_on_c, 1, 74, 0
2, 10977, Note_on_c, 1, 57, 0
2, 10993, Note_on_c, 1, 41, 0
2, 11019, Note_on_c, 1, 63, 0
2, 11043, Note_on_c, 1, 72, 64
2, 11159, Note_on_c, 1, 67, 0
2, 11313, Note_on_c, 1, 72, 0
2, 11461, Note_on_c, 1, 40, 42
2, 11466, Note_on_c, 1, 55, 34
2, 11469, Note_on_c, 1, 47, 24
2, 11470, Note_on_c, 1, 67, 52
2, 11479, Note_on_c, 1, 62, 51
2, 11515, Control_c, 1, 64, 0
2, 11839, Control_c, 1, 64, 127
2, 12134, Note_on_c, 1, 62, 0
2, 12257, Note_on_c, 1, 67, 0
2, 12460, Note_on_c, 1, 71, 84
2, 12607, Note_on_c, 1, 40, 0
2, 12753, Note_on_c, 1, 47, 0
2, 12898, Note_on_c, 1, 55, 0
2, 12951, Note_on_c, 1, 67, 72
2, 12964, Note_on_c, 1, 71, 0
2, 13272, Note_on_c, 1, 67, 0
2, 13417, Note_on_c, 1, 66, 59
2, 13424, Note_on_c, 1, 61, 53
2, 13424, Note_on_c, 1, 55, 44
2, 13429, Control_c, 1, 64, 0
2, 13740, Control_c, 1, 64, 127
2, 14101, Note_on_c, 1, 61, 0
2, 14169, Note_on_c, 1, 66, 0
2, 14393, Note_on_c, 1, 61, 55
2, 14400, Note_on_c, 1, 66, 55
2, 14401, Note_on_c, 1, 70, 54
2, 14416, Control_c, 1, 64, 0
2, 14818, Note_on_c, 1, 55, 0
2, 14887, Note_on_c, 1, 52, 53
2, 15154, Control_c, 1, 64, 127
2, 15191, Control_c, 1, 64, 0
2, 15205, Note_on_c, 1, 61, 0
2, 15251, Note_on_c, 1, 70, 0
2, 15270, Note_on_c, 1, 66, 0
2, 15369, Note_on_c, 1, 69, 52
2, 15374, Note_on_c, 1, 60, 40
2, 15374, Note_on_c, 1, 65, 53
2, 15800, Note_on_c, 1, 52, 0
2, 15803, Note_on_c, 1, 60, 0
2, 15843, Note_on_c, 1, 50, 54
2, 15936, Note_on_c, 1, 65, 0
2, 15948, Note_on_c, 1, 69, 0
2, 16092, Control_c, 1, 64, 127
2, 16316, Note_on_c, 1, 76, 58
2, 16330, Note_on_c, 1, 65, 53
2, 16330, Note_on_c, 1, 69, 41
2, 16360, Note_on_c, 1, 50, 0
2, 16371, Note_on_c, 1, 72, 30
2, 16784, Note_on_c, 1, 64, 67
2, 17063, Note_on_c, 1, 72, 0
2, 17164, Note_on_c, 1, 65, 0
2, 17171, Note_on_c, 1, 69, 0
2, 17284, Note_on_c, 1, 72, 47
2, 17292, Note_on_c, 1, 65, 48
2, 17298, Note_on_c, 1, 69, 32
2, 17579, Note_on_c, 1, 72, 0
2, 17579, Note_on_c, 1, 76, 0
2, 17625, Note_on_c, 1, 69, 0
2, 17656, Note_on_c, 1, 65, 0
2, 17772, Note_on_c, 1, 64, 0
2, 18219, Note_on_c, 1, 69, 41
2, 18239, Note_on_c, 1, 60, 26
2, 18251, Note_on_c, 1, 65, 34
2, 18484, Note_on_c, 1, 69, 0
2, 18509, Note_on_c, 1, 65, 0
2, 18598, Note_on_c, 1, 60, 0
2, 19148, Note_on_c, 1, 64, 39
2, 19156, Control_c, 1, 64, 0
2, 19161, Note_on_c, 1, 43, 28
2, 19166, Note_on_c, 1, 61, 26
2, 19170, Note_on_c, 1, 57, 28
2, 19190, Note_on_c, 1, 53, 17
2, 19191, Note_on_c, 1, 50, 29
2, 19440, Note_on_c, 1, 50, 0
2, 19441, Note_on_c, 1, 43, 0
2, 19446, Note_on_c, 1, 53, 0
2, 19452, Note_on_c, 1, 57, 0
2, 19465, Note_on_c, 1, 64, 0
2, 19501, Note_on_c, 1, 61, 0
2, 20126, Note_on_c, 1, 64, 49
2, 20127, Note_on_c, 1, 57, 44
2, 20142, Note_on_c, 1, 50, 31
2, 20150, Note_on_c, 1, 43, 32
2, 20163, Note_on_c, 1, 53, 27
2, 20170, Note_on_c, 1, 59, 37
2, 20450, Note_on_c, 1, 43, 0
2, 20488, Note_on_c, 1, 50, 0
2, 20490, Note_on_c, 1, 53, 0
2, 20497, Note_on_c, 1, 64, 0
2, 20510, Note_on_c, 1, 57, 0
2, 20542, Note_on_c, 1, 59, 0
2, 21071, Note_on_c, 1, 64, 44
2, 21082, Note_on_c, 1, 50, 31
2, 21086, Note_on_c, 1, 43, 29
2, 21097, Note_on_c, 1, 56, 25
2, 21111, Note_on_c, 1, 59, 31
2, 21119, Note_on_c, 1, 53, 18
2, 21371, Control_c, 1, 64, 127
2, 21816, Note_on_c, 1, 50, 0
2, 21831, Note_on_c, 1, 53, 0
2, 21838, Note_on_c, 1, 59, 0
2, 21847, Note_on_c, 1, 43, 0
2, 21862, Note_on_c, 1, 56, 0
2, 21868, Note_on_c, 1, 64, 0
2, 22078, Note_on_c, 1, 64, 48
2, 22104, Note_on_c, 1, 43, 25
2, 22108, Note_on_c, 1, 50, 26
2, 22115, Note_on_c, 1, 56, 25
2, 22128, Note_on_c, 1, 59, 28
2, 22137, Note_on_c, 1, 53, 15
2, 22385, Note_on_c, 1, 53, 0
2, 22420, Note_on_c, 1, 50, 0
2, 22465, Note_on_c, 1, 43, 0
2, 22478, Note_on_c, 1, 59, 0
2, 22485, Note_on_c, 1, 56, 0
2, 22568, Note_on_c, 1, 64, 0
2, 23024, Note_on_c, 1, 67, 56
2, 23031, Note_on_c, 1, 62, 54
2, 23036, Control_c, 1, 64, 0
2, 23049, Note_on_c, 1, 55, 31
2, 23648, Control_c, 1, 64, 127
2, 23936, Control_c, 1, 64, 0
2, 23946, Note_on_c, 1, 40, 55
2, 24148, Control_c, 1, 64, 127
2, 24485, Note_on_c, 1, 55, 0
2, 24561, Note_on_c, 1, 62, 0
2, 24579, Note_on_c, 1, 40, 0
2, 24599, Note_on_c, 1, 67, 0
2, 24898, Control_c, 1, 64, 0
2, 24955, Note_on_c, 1, 70, 63
2, 24963, Note_on_c, 1, 65, 66
2, 24977, Note_on_c, 1, 60, 43
2, 24977, Note_on_c, 1, 39, 60
2, 25324, Control_c, 1, 64, 127
2, 25365, Note_on_c, 1, 46, 64
2, 25366, Note_on_c, 1, 39, 0
2, 25814, Note_on_c, 1, 55, 77
2, 26019, Note_on_c, 1, 60, 0
2, 26295, Note_on_c, 1, 60, 39
2, 26569, Note_on_c, 1, 65, 0
2, 26644, Note_on_c, 1, 55, 0
2, 26659, Note_on_c, 1, 60, 0
2, 26673, Note_on_c, 1, 70, 0
2, 26825, Control_c, 1, 64, 0
2, 26826, Note_on_c, 1, 46, 0
2, 26829, Note_on_c, 1, 63, 44
2, 26830, Note_on_c, 1, 60, 43
2, 26831, Note_on_c, 1, 44, 42
2, 26846, Note_on_c, 1, 54, 35
2, 27276, Control_c, 1, 64, 127
2, 27547, Note_on_c, 1, 54, 0
2, 27582, Note_on_c, 1, 60, 0
2, 27655, Note_on_c, 1, 63, 0
2, 27821, Note_on_c, 1, 63, 39
2, 27834, Note_on_c, 1, 60, 37
2, 27854, Note_on_c, 1, 56, 46
2, 28237, Note_on_c, 1, 56, 0
2, 28473, Note_on_c, 1, 60, 0
2, 28485, Note_on_c, 1, 63, 0
2, 28868, Note_on_c, 1, 44, 0
2, 28896, Note_on_c, 1, 49, 53
2, 29052, Control_c, 1, 64, 0
2, 29385, Note_on_c, 1, 65, 62
2, 29394, Note_on_c, 1, 60, 39
2, 29414, Note_on_c, 1, 56, 43
2, 29490, Control_c, 1, 64, 127
2, 29638, Note_on_c, 1, 49, 0
2, 29663, Note_on_c, 1, 60, 0
2, 29711, Note_on_c, 1, 65, 0
2, 29729, Note_on_c, 1, 56, 0
2, 30179, Control_c, 1, 64, 0
2, 30194, Note_on_c, 1, 70, 55
2, 30204, Note_on_c, 1, 58, 47
2, 30206, Note_on_c, 1, 65, 62
2, 30220, Note_on_c, 1, 60, 45
2, 30341, Control_c, 1, 64, 127
2, 30385, Note_on_c, 1, 70, 0
2, 30391, Note_on_c, 1, 65, 0
2, 30431, Note_on_c, 1, 60, 0
2, 30451, Note_on_c, 1, 58, 0
2, 30746, Note_on_c, 1, 67, 53
2, 30751, Note_on_c, 1, 64, 51
2, 30755, Control_c, 1, 64, 0
2, 30765, Note_on_c, 1, 55, 36
2, 30765, Note_on_c, 1, 57, 39
2, 30768, Note_on_c, 1, 59, 30
2, 31117, Control_c, 1, 64, 127
2, 31233, Note_on_c, 1, 57, 0
2, 31338, Note_on_c, 1, 64, 0
2, 31368, Note_on_c, 1, 59, 0
2, 31659, Note_on_c, 1, 55, 0
2, 31704, Note_on_c, 1, 64, 43
2, 31729, Control_c, 1, 64, 0
2, 31729, Note_on_c, 1, 59, 24
2, 31750, Note_on_c, 1, 52, 27
2, 31755, Note_on_c, 1, 57, 24
2, 31991, Control_c, 1, 64, 127
2, 32172, Note_on_c, 1, 57, 0
2, 32188, Note_on_c, 1, 64, 0
2, 32253, Note_on_c, 1, 67, 0
2, 32265, Note_on_c, 1, 59, 0
2, 32603, Control_c, 1, 64, 0
2, 32610, Note_on_c, 1, 52, 0
2, 32636, Note_on_c, 1, 61, 34
2, 32648, Note_on_c, 1, 58, 32
2, 32650, Note_on_c, 1, 64, 39
2, 32731, Note_on_c, 1, 49, 18
2, 33042, Control_c, 1, 64, 127
2, 33053, Note_on_c, 1, 58, 0
2, 33179, Note_on_c, 1, 61, 0
2, 33241, Note_on_c, 1, 64, 0
2, 33543, Note_on_c, 1, 61, 36
2, 33626, Note_on_c, 1, 55, 22
2, 33729, Note_on_c, 1, 55, 0
2, 33787, Note_on_c, 1, 49, 0
2, 34232, Note_on_c, 1, 45, 29
2, 34387, Note_on_c, 1, 61, 0
2, 34530, Note_on_c, 1, 54, 40
2, 34544, Control_c, 1, 64, 0
2, 34590, Note_on_c, 1, 38, 35
2, 34604, Note_on_c, 1, 45, 0
2, 34761, Note_on_c, 1, 38, 0
2, 34806, Control_c, 1, 64, 127
2, 34816, Note_on_c, 1, 54, 0
2, 35521, Note_on_c, 1, 60, 38
2, 35524, Note_on_c, 1, 54, 33
2, 35541, Note_on_c, 1, 66, 37
2, 35575, Note_on_c, 1, 69, 24
2, 35735, Note_on_c, 1, 54, 0
2, 36002, Note_on_c, 1, 60, 0
2, 36107, Note_on_c, 1, 69, 0
2, 36144, Note_on_c, 1, 50, 32
2, 36200, Note_on_c, 1, 66, 0
2, 36360, Note_on_c, 1, 50, 0
2, 36482, Control_c, 1, 64, 0
2, 36494, Note_on_c, 1, 53, 54
2, 36521, Note_on_c, 1, 43, 34
2, 36702, Note_on_c, 1, 53, 0
2, 36703, Note_on_c, 1, 43, 0
2, 36733, Control_c, 1, 64, 127
2, 37415, Note_on_c, 1, 53, 20
2, 37461, Note_on_c, 1, 59, 36
2, 37478, Note_on_c, 1, 65, 44
2, 37483, Note_on_c, 1, 62, 47
2, 37541, Note_on_c, 1, 53, 0
2, 37870, Note_on_c, 1, 65, 0
2, 38063, Note_on_c, 1, 43, 36
2, 38072, Note_on_c, 1, 62, 0
2, 38257, Note_on_c, 1, 59, 0
2, 38384, Control_c, 1, 64, 0
2, 38413, Note_on_c, 1, 52, 47
2, 38437, Note_on_c, 1, 43, 0
2, 38437, Note_on_c, 1, 36, 42
2, 38589, Note_on_c, 1, 36, 0
2, 38593, Note_on_c, 1, 52, 0
2, 38621, Control_c, 1, 64, 127
2, 39404, Note_on_c, 1, 72, 55
2, 39409, Note_on_c, 1, 64, 41
2, 39418, Note_on_c, 1, 67, 66
2, 39421, Note_on_c, 1, 60, 37
2, 39423, Note_on_c, 1, 76, 54
2, 39474, Note_on_c, 1, 64, 0
2, 39541, Note_on_c, 1, 60, 0
2, 39631, Note_on_c, 1, 76, 0
2, 39688, Note_on_c, 1, 72, 0
2, 39712, Note_on_c, 1, 67, 0
2, 40285, Control_c, 1, 64, 0
2, 40374, Note_on_c, 1, 67, 57
2, 40380, Note_on_c, 1, 63, 60
2, 40382, Note_on_c, 1, 41, 54
2, 40401, Note_on_c, 1, 65, 40
2, 40458, Note_on_c, 1, 65, 0
2, 40623, Control_c, 1, 64, 127
2, 40974, Note_on_c, 1, 63, 0
2, 41075, Note_on_c, 1, 67, 0
2, 41303, Note_on_c, 1, 48, 32
2, 41303, Note_on_c, 1, 65, 74
2, 41308, Note_on_c, 1, 57, 34
2, 41313, Note_on_c, 1, 62, 76
2, 41543, Note_on_c, 1, 48, 0
2, 41560, Note_on_c, 1, 57, 0
2, 41643, Note_on_c, 1, 41, 0
2, 41788, Note_on_c, 1, 62, 0
2, 41822, Note_on_c, 1, 65, 0
2, 42249, Control_c, 1, 64, 0
2, 42252, Note_on_c, 1, 47, 33
2, 42258, Note_on_c, 1, 64, 56
2, 42266, Note_on_c, 1, 59, 44
2, 42282, Note_on_c, 1, 40, 28
2, 42314, Note_on_c, 1, 55, 22
2, 42538, Control_c, 1, 64, 127
2, 42569, Note_on_c, 1, 40, 0
2, 42610, Note_on_c, 1, 59, 0
2, 42626, Note_on_c, 1, 47, 0
2, 42654, Note_on_c, 1, 64, 0
2, 42709, Note_on_c, 1, 55, 0
2, 43180, Note_on_c, 1, 71, 60
2, 43187, Note_on_c, 1, 67, 71
2, 43188, Note_on_c, 1, 59, 50
2, 43189, Note_on_c, 1, 62, 72
2, 43205, Note_on_c, 1, 55, 45
2, 43215, Note_on_c, 1, 52, 33
2, 43451, Note_on_c, 1, 59, 0
2, 43541, Note_on_c, 1, 55, 0
2, 43581, Note_on_c, 1, 52, 0
2, 43597, Note_on_c, 1, 71, 0
2, 43706, Note_on_c, 1, 62, 0
2, 43734, Note_on_c, 1, 67, 0
2, 44126, Control_c, 1, 64, 0
2, 44128, Note_on_c, 1, 70, 56
2, 44130, Note_on_c, 1, 66, 59
2, 44133, Note_on_c, 1, 55, 53
2, 44136, Note_on_c, 1, 61, 58
2, 44412, Control_c, 1, 64, 127
2, 44638, Note_on_c, 1, 61, 0
2, 44670, Note_on_c, 1, 66, 0
2, 44704, Note_on_c, 1, 70, 0
2, 45014, Note_on_c, 1, 55, 0
2, 45065, Control_c, 1, 64, 0
2, 45071, Note_on_c, 1, 69, 53
2, 45081, Note_on_c, 1, 61, 46
2, 45085, Note_on_c, 1, 58, 52
2, 45087, Note_on_c, 1, 64, 53
2, 45123, Note_on_c, 1, 49, 30
2, 45352, Control_c, 1, 64, 127
2, 45397, Note_on_c, 1, 69, 0
2, 45489, Note_on_c, 1, 58, 0
2, 45629, Note_on_c, 1, 64, 0
2, 45759, Note_on_c, 1, 61, 0
2, 46002, Control_c, 1, 64, 0
2, 46023, Note_on_c, 1, 67, 50
2, 46027, Note_on_c, 1, 49, 0
2, 46041, Note_on_c, 1, 60, 38
2, 46049, Note_on_c, 1, 57, 47
2, 46054, Note_on_c, 1, 64, 35
2, 46058, Note_on_c, 1, 50, 36
2, 46326, Control_c, 1, 64, 127
2, 46562, Note_on_c, 1, 64, 0
2, 46591, Note_on_c, 1, 57, 0
2, 46647, Note_on_c, 1, 60, 0
2, 46683, Note_on_c, 1, 67, 0
2, 47024, Note_on_c, 1, 65, 54
2, 47032, Note_on_c, 1, 57, 44
2, 47042, Note_on_c, 1, 60, 36
2, 47135, Note_on_c, 1, 50, 0
2, 47551, Note_on_c, 1, 60, 0
2, 47657, Note_on_c, 1, 57, 0
2, 47844, Note_on_c, 1, 65, 0
2, 47985, Note_on_c, 1, 65, 40
2, 47996, Note_on_c, 1, 54, 60
2, 48000, Note_on_c, 1, 60, 49
2, 48004, Control_c, 1, 64, 0
2, 48021, Note_on_c, 1, 44, 23
2, 48378, Control_c, 1, 64, 127
2, 48980, Control_c, 1, 64, 0
2, 48980, Note_on_c, 1, 32, 47
2, 49092, Control_c, 1, 64, 127
2, 49254, Note_on_c, 1, 54, 0
2, 49261, Note_on_c, 1, 32, 0
2, 49286, Note_on_c, 1, 44, 0
2, 49330, Note_on_c, 1, 60, 0
2, 49338, Note_on_c, 1, 65, 0
2, 49880, Control_c, 1, 64, 0
2, 49917, Note_on_c, 1, 64, 50
2, 49939, Note_on_c, 1, 61, 31
2, 49941, Note_on_c, 1, 31, 35
2, 49983, Note_on_c, 1, 57, 20
2, 49997, Note_on_c, 1, 43, 14
2, 50178, Note_on_c, 1, 31, 0
2, 50194, Note_on_c, 1, 57, 0
2, 50195, Note_on_c, 1, 64, 0
2, 50210, Note_on_c, 1, 61, 0
2, 50214, Note_on_c, 1, 43, 0
2, 50889, Note_on_c, 1, 64, 40
2, 50902, Note_on_c, 1, 57, 36
2, 50903, Note_on_c, 1, 31, 30
2, 50914, Note_on_c, 1, 43, 25
2, 50922, Note_on_c, 1, 59, 39
2, 50952, Note_on_c, 1, 53, 17
2, 51210, Note_on_c, 1, 31, 0
2, 51242, Note_on_c, 1, 53, 0
2, 51245, Note_on_c, 1, 43, 0
2, 51249, Note_on_c, 1, 64, 0
2, 51257, Note_on_c, 1, 57, 0
2, 51287, Note_on_c, 1, 59, 0
2, 51839, Note_on_c, 1, 64, 33
2, 51846, Note_on_c, 1, 31, 28
2, 51850, Note_on_c, 1, 43, 30
2, 51865, Note_on_c, 1, 56, 27
2, 51875, Note_on_c, 1, 59, 34
2, 51891, Note_on_c, 1, 53, 20
2, 52168, Control_c, 1, 64, 127
2, 52576, Note_on_c, 1, 43, 0
2, 52809, Note_on_c, 1, 31, 0
2, 52995, Note_on_c, 1, 64, 0
2, 53257, Note_on_c, 1, 53, 0
2, 53335, Note_on_c, 1, 56, 0
2, 53339, Note_on_c, 1, 64, 49
2, 53349, Note_on_c, 1, 59, 0
2, 53757, Control_c, 1, 64, 0
2, 53758, Note_on_c, 1, 64, 0
2, 53798, Note_on_c, 1, 36, 33
2, 54117, Note_on_c, 1, 43, 45
2, 54183, Note_on_c, 1, 36, 0
2, 54332, Note_on_c, 1, 43, 0
2, 54332, Control_c, 1, 64, 127
2, 54421, Note_on_c, 1, 50, 44
2, 54571, Note_on_c, 1, 50, 0
2, 54727, Note_on_c, 1, 52, 46
2, 54732, Note_on_c, 1, 57, 44
2, 54733, Note_on_c, 1, 67, 48
2, 54739, Note_on_c, 1, 62, 54
2, 54758, Control_c, 1, 64, 0
2, 54909, Control_c, 1, 64, 127
2, 55237, Note_on_c, 1, 67, 0
2, 55248, Note_on_c, 1, 62, 0
2, 55343, Note_on_c, 1, 57, 0
2, 55634, Control_c, 1, 64, 0
2, 55658, Note_on_c, 1, 52, 0
2, 55669, Note_on_c, 1, 65, 57
2, 55677, Note_on_c, 1, 60, 48
2, 55691, Note_on_c, 1, 55, 35
2, 55714, Note_on_c, 1, 46, 45
2, 55960, Control_c, 1, 64, 127
2, 56202, Note_on_c, 1, 65, 0
2, 56233, Note_on_c, 1, 55, 0
2, 56272, Note_on_c, 1, 60, 0
2, 56647, Control_c, 1, 64, 0
2, 56664, Note_on_c, 1, 66, 43
2, 56666, Note_on_c, 1, 61, 37
2, 56701, Note_on_c, 1, 56, 25
2, 56880, Note_on_c, 1, 46, 0
2, 56922, Control_c, 1, 64, 127
2, 57203, Note_on_c, 1, 56, 0
2, 57353, Note_on_c, 1, 61, 0
2, 57381, Note_on_c, 1, 66, 0
2, 57542, Note_on_c, 1, 43, 19
2, 57560, Control_c, 1, 64, 0
2, 57572, Note_on_c, 1, 36, 24
2, 57581, Note_on_c, 1, 57, 34
2, 57582, Note_on_c, 1, 67, 45
2, 57597, Note_on_c, 1, 62, 40
2, 57612, Note_on_c, 1, 52, 30
2, 57809, Note_on_c, 1, 36, 0
2, 57848, Control_c, 1, 64, 127
2, 57945, Note_on_c, 1, 43, 0
2, 58018, Note_on_c, 1, 52, 0
2, 58519, Note_on_c, 1, 57, 0
2, 58986, Control_c, 1, 64, 0
2, 58999, Note_on_c, 1, 46, 53
2, 59014, Note_on_c, 1, 62, 0
2, 59136, Control_c, 1, 64, 127
2, 59361, Note_on_c, 1, 46, 0
2, 59413, Control_c, 1, 64, 0
2, 59483, Note_on_c, 1, 67, 0
2, 59495, Note_on_c, 1, 45, 55
2, 59636, Control_c, 1, 64, 127
2, 60013, Note_on_c, 1, 72, 66
2, 60031, Note_on_c, 1, 61, 74
2, 60033, Note_on_c, 1, 65, 75
2, 60042, Note_on_c, 1, 55, 64
2, 60047, Note_on_c, 1, 69, 51
2, 60395, Note_on_c, 1, 72, 0
2, 60444, Note_on_c, 1, 69, 0
2, 60508, Note_on_c, 1, 45, 0
2, 60530, Note_on_c, 1, 70, 68
2, 60733, Note_on_c, 1, 55, 0
2, 60816, Note_on_c, 1, 61, 0
2, 60833, Note_on_c, 1, 70, 0
2, 60896, Note_on_c, 1, 65, 0
2, 60978, Note_on_c, 1, 69, 52
2, 61306, Note_on_c, 1, 69, 0
2, 61364, Control_c, 1, 64, 0
2, 61426, Note_on_c, 1, 67, 56
2, 61432, Note_on_c, 1, 60, 30
2, 61434, Note_on_c, 1, 64, 51
2, 61939, Note_on_c, 1, 43, 33
2, 61951, Note_on_c, 1, 55, 33
2, 62101, Control_c, 1, 64, 127
2, 62352, Note_on_c, 1, 43, 0
2, 62378, Note_on_c, 1, 55, 0
2, 62587, Note_on_c, 1, 67, 0
2, 62638, Note_on_c, 1, 64, 0
2, 62769, Note_on_c, 1, 60, 0
2, 62874, Note_on_c, 1, 43, 40
2, 63171, Note_on_c, 1, 43, 0
2, 63365, Control_c, 1, 64, 0
2, 63378, Note_on_c, 1, 63, 37
2, 63383, Note_on_c, 1, 59, 37
2, 63395, Note_on_c, 1, 67, 42
2, 63399, Note_on_c, 1, 53, 33
2, 63403, Note_on_c, 1, 43, 30
2, 63665, Control_c, 1, 64, 127
2, 63769, Note_on_c, 1, 43, 0
2, 63901, Note_on_c, 1, 43, 47
2, 64459, Note_on_c, 1, 43, 0
2, 64601, Note_on_c, 1, 59, 0
2, 64796, Note_on_c, 1, 67, 0
2, 64798, Note_on_c, 1, 43, 44
2, 64808, Note_on_c, 1, 63, 0
2, 64930, Note_on_c, 1, 53, 0
2, 65241, Control_c, 1, 64, 0
2, 65279, Note_on_c, 1, 71, 63
2, 65279, Note_on_c, 1, 52, 46
2, 65294, Note_on_c, 1, 67, 70
2, 65294, Note_on_c, 1, 64, 77
2, 65301, Note_on_c, 1, 62, 74
2, 65302, Note_on_c, 1, 55, 54
2, 65381, Note_on_c, 1, 52, 0
2, 65516, Control_c, 1, 64, 127
2, 65631, Note_on_c, 1, 43, 0
2, 65835, Note_on_c, 1, 43, 70
2, 66381, Note_on_c, 1, 43, 0
2, 66750, Note_on_c, 1, 43, 71
2, 66841, Note_on_c, 1, 62, 0
2, 66870, Note_on_c, 1, 55, 0
2, 66879, Note_on_c, 1, 67, 0
2, 66932, Note_on_c, 1, 64, 0
2, 66935, Note_on_c, 1, 71, 0
2, 67204, Control_c, 1, 64, 0
2, 67227, Note_on_c, 1, 71, 80
2, 67229, Note_on_c, 1, 66, 77
2, 67230, Note_on_c, 1, 63, 83
2, 67234, Note_on_c, 1, 60, 84
2, 67247, Note_on_c, 1, 55, 76
2, 67555, Control_c, 1, 64, 127
2, 67577, Note_on_c, 1, 43, 0
2, 67778, Note_on_c, 1, 43, 74
2, 67818, Control_c, 1, 64, 0
2, 68005, Control_c, 1, 64, 127
2, 68174, Note_on_c, 1, 55, 0
2, 68239, Note_on_c, 1, 71, 0
2, 68356, Note_on_c, 1, 60, 0
2, 68367, Note_on_c, 1, 66, 0
2, 68384, Note_on_c, 1, 63, 0
2, 68658, Note_on_c, 1, 55, 66
2, 68662, Note_on_c, 1, 63, 79
2, 68668, Note_on_c, 1, 69, 63
2, 68678, Note_on_c, 1, 66, 56
2, 68679, Note_on_c, 1, 60, 68
2, 68818, Note_on_c, 1, 69, 0
2, 68843, Note_on_c, 1, 66, 0
2, 68857, Note_on_c, 1, 63, 0
2, 68864, Note_on_c, 1, 60, 0
2, 68875, Note_on_c, 1, 55, 0
2, 69085, Control_c, 1, 64, 0
2, 69130, Note_on_c, 1, 65, 66
2, 69130, Note_on_c, 1, 67, 57
2, 69135, Note_on_c, 1, 57, 65
2, 69140, Note_on_c, 1, 60, 62
2, 69155, Note_on_c, 1, 55, 57
2, 69293, Note_on_c, 1, 43, 0
2, 69423, Control_c, 1, 64, 127
2, 69649, Note_on_c, 1, 43, 56
2, 69749, Note_on_c, 1, 55, 0
2, 69871, Note_on_c, 1, 43, 0
2, 70482, Note_on_c, 1, 31, 49
2, 70484, Note_on_c, 1, 60, 0
2, 70488, Note_on_c, 1, 57, 0
2, 70576, Note_on_c, 1, 31, 0
2, 70651, Note_on_c, 1, 67, 0
2, 70655, Note_on_c, 1, 65, 0
2, 70961, Control_c, 1, 64, 0
2, 70982, Note_on_c, 1, 67, 60
2, 70984, Note_on_c, 1, 63, 45
2, 70986, Note_on_c, 1, 59, 46
2, 70998, Note_on_c, 1, 43, 34
2, 71009, Note_on_c, 1, 53, 40
2, 71335, Control_c, 1, 64, 127
2, 71465, Note_on_c, 1, 43, 0
2, 71534, Note_on_c, 1, 43, 72
2, 71635, Note_on_c, 1, 53, 0
2, 72105, Note_on_c, 1, 43, 0
2, 72241, Note_on_c, 1, 59, 0
2, 72245, Note_on_c, 1, 67, 0
2, 72265, Note_on_c, 1, 63, 0
2, 72473, Note_on_c, 1, 43, 47
2, 72886, Control_c, 1, 64, 0
2, 72959, Note_on_c, 1, 67, 47
2, 72961, Note_on_c, 1, 57, 41
2, 72969, Note_on_c, 1, 59, 33
2, 72970, Note_on_c, 1, 62, 48
2, 72973, Note_on_c, 1, 64, 45
2, 72981, Note_on_c, 1, 52, 35
2, 73225, Note_on_c, 1, 43, 0
2, 73458, Note_on_c, 1, 43, 54
2, 73812, Control_c, 1, 64, 127
2, 74023, Note_on_c, 1, 43, 0
2, 74364, Note_on_c, 1, 43, 36
2, 74383, Note_on_c, 1, 52, 0
2, 74401, Note_on_c, 1, 62, 0
2, 74436, Note_on_c, 1, 59, 0
2, 74445, Note_on_c, 1, 57, 0
2, 74466, Note_on_c, 1, 67, 0
2, 74607, Note_on_c, 1, 64, 0
2, 74738, Control_c, 1, 64, 0
2, 74830, Note_on_c, 1, 61, 39
2, 74836, Note_on_c, 1, 64, 54
2, 74841, Note_on_c, 1, 55, 44
2, 74841, Note_on_c, 1, 58, 50
2, 74850, Note_on_c, 1, 49, 33
2, 74956, Note_on_c, 1, 43, 0
2, 75356, Note_on_c, 1, 43, 71
2, 75452, Note_on_c, 1, 49, 0
2, 75789, Control_c, 1, 64, 127
2, 75954, Note_on_c, 1, 43, 0
2, 76011, Note_on_c, 1, 55, 0
2, 76196, Note_on_c, 1, 58, 0
2, 76300, Note_on_c, 1, 43, 58
2, 76308, Note_on_c, 1, 61, 0
2, 76323, Note_on_c, 1, 64, 0
2, 76463, Note_on_c, 1, 43, 0
2, 76744, Note_on_c, 1, 43, 74
2, 76750, Note_on_c, 1, 31, 73
2, 76760, Note_on_c, 1, 69, 74
2, 76760, Note_on_c, 1, 65, 81
2, 76768, Note_on_c, 1, 60, 77
2, 76778, Control_c, 1, 64, 0
2, 77166, Note_on_c, 1, 31, 0
2, 77178, Control_c, 1, 64, 127
2, 77309, Note_on_c, 1, 31, 61
2, 77838, Note_on_c, 1, 31, 0
2, 78210, Note_on_c, 1, 31, 67
2, 78272, Note_on_c, 1, 69, 0
2, 78274, Note_on_c, 1, 65, 0
2, 78319, Note_on_c, 1, 60, 0
2, 78571, Note_on_c, 1, 31, 0
2, 78848, Note_on_c, 1, 43, 0
2, 82036, Note_on_c, 1, 56, 74
2, 82406, Note_on_c, 1, 56, 0
2, 82523, Control_c, 1, 64, 0
2, 82547, Note_on_c, 1, 55, 55
2, 82555, Note_on_c, 1, 60, 51
2, 82556, Note_on_c, 1, 64, 61
2, 82811, Control_c, 1, 64, 127
2, 83297, Note_on_c, 1, 55, 0
2, 83307, Note_on_c, 1, 60, 0
2, 83395, Note_on_c, 1, 64, 0
2, 83496, Note_on_c, 1, 55, 44
2, 83856, Note_on_c, 1, 55, 0
2, 84435, Control_c, 1, 64, 0
2, 84439, Note_on_c, 1, 71, 39
2, 84440, Note_on_c, 1, 64, 36
2, 84445, Note_on_c, 1, 61, 37
2, 84455, Note_on_c, 1, 68, 37
2, 84459, Note_on_c, 1, 59, 36
2, 84468, Note_on_c, 1, 57, 38
2, 84811, Control_c, 1, 64, 127
2, 84897, Note_on_c, 1, 61, 0
2, 84930, Note_on_c, 1, 57, 0
2, 85187, Note_on_c, 1, 71, 0
2, 85189, Note_on_c, 1, 64, 0
2, 85199, Note_on_c, 1, 59, 0
2, 85265, Note_on_c, 1, 68, 0
2, 85370, Note_on_c, 1, 61, 39
2, 85400, Note_on_c, 1, 71, 37
2, 85405, Note_on_c, 1, 68, 34
2, 85410, Note_on_c, 1, 64, 51
2, 85425, Note_on_c, 1, 59, 26
2, 85487, Note_on_c, 1, 57, 13
2, 85586, Note_on_c, 1, 61, 0
2, 85637, Note_on_c, 1, 57, 0
2, 85677, Note_on_c, 1, 59, 0
2, 85856, Note_on_c, 1, 64, 0
2, 85974, Note_on_c, 1, 71, 0
2, 86059, Note_on_c, 1, 68, 0
2, 86325, Control_c, 1, 64, 0
2, 86365, Note_on_c, 1, 71, 39
2, 86371, Note_on_c, 1, 63, 31
2, 86390, Note_on_c, 1, 61, 30
2, 86401, Note_on_c, 1, 68, 37
2, 86417, Note_on_c, 1, 59, 30
2, 86423, Note_on_c, 1, 57, 28
2, 86701, Control_c, 1, 64, 127
2, 86900, Note_on_c, 1, 63, 0
2, 86929, Note_on_c, 1, 61, 0
2, 87036, Note_on_c, 1, 71, 0
2, 87062, Note_on_c, 1, 57, 0
2, 87071, Note_on_c, 1, 68, 0
2, 87095, Note_on_c, 1, 59, 0
2, 87338, Control_c, 1, 64, 0
2, 87349, Note_on_c, 1, 63, 40
2, 87351, Note_on_c, 1, 61, 34
2, 87356, Note_on_c, 1, 71, 40
2, 87376, Note_on_c, 1, 68, 31
2, 87377, Note_on_c, 1, 59, 27
2, 87386, Note_on_c, 1, 57, 36
2, 87539, Control_c, 1, 64, 127
2, 87589, Note_on_c, 1, 61, 0
2, 87628, Note_on_c, 1, 57, 0
2, 87630, Note_on_c, 1, 63, 0
2, 87634, Note_on_c, 1, 59, 0
2, 87758, Note_on_c, 1, 71, 0
2, 87812, Note_on_c, 1, 68, 0
2, 88277, Control_c, 1, 64, 0
2, 88283, Note_on_c, 1, 68, 38
2, 88289, Note_on_c, 1, 63, 34
2, 88313, Note_on_c, 1, 59, 29
2, 88325, Note_on_c, 1, 52, 32
2, 88344, Note_on_c, 1, 40, 31
2, 88651, Control_c, 1, 64, 127
2, 88827, Note_on_c, 1, 47, 49
2, 88883, Note_on_c, 1, 52, 0
2, 89148, Note_on_c, 1, 59, 0
2, 89203, Note_on_c, 1, 47, 0
2, 89204, Note_on_c, 1, 40, 0
2, 89224, Note_on_c, 1, 63, 0
2, 89568, Note_on_c, 1, 68, 0
2, 89689, Control_c, 1, 64, 0
2, 89712, Note_on_c, 1, 68, 49
2, 89717, Note_on_c, 1, 49, 46
2, 89719, Note_on_c, 1, 64, 64
2, 89732, Note_on_c, 1, 59, 49
2, 89888, Note_on_c, 1, 64, 0
2, 89902, Control_c, 1, 64, 127
2, 89925, Note_on_c, 1, 68, 0
2, 89999, Note_on_c, 1, 59, 0
2, 90260, Note_on_c, 1, 67, 71
2, 90265, Control_c, 1, 64, 0
2, 90271, Note_on_c, 1, 60, 66
2, 90275, Note_on_c, 1, 49, 0
2, 90284, Note_on_c, 1, 57, 70
2, 90285, Note_on_c, 1, 50, 58
2, 90617, Control_c, 1, 64, 127
2, 90976, Note_on_c, 1, 57, 0
2, 91046, Note_on_c, 1, 60, 0
2, 91050, Note_on_c, 1, 67, 0
2, 91130, Control_c, 1, 64, 0
2, 91180, Note_on_c, 1, 67, 62
2, 91185, Note_on_c, 1, 50, 0
2, 91190, Note_on_c, 1, 43, 40
2, 91191, Note_on_c, 1, 63, 50
2, 91192, Note_on_c, 1, 59, 53
2, 91195, Note_on_c, 1, 53, 45
2, 91359, Note_on_c, 1, 43, 0
2, 91415, Control_c, 1, 64, 127
2, 91533, Note_on_c, 1, 53, 0
2, 91646, Note_on_c, 1, 59, 0
2, 91835, Note_on_c, 1, 67, 0
2, 91866, Note_on_c, 1, 63, 0
2, 92092, Control_c, 1, 64, 0
2, 92096, Note_on_c, 1, 43, 24
2, 92103, Note_on_c, 1, 36, 31
2, 92112, Note_on_c, 1, 64, 66
2, 92121, Note_on_c, 1, 57, 51
2, 92132, Note_on_c, 1, 59, 39
2, 92149, Note_on_c, 1, 52, 47
2, 92430, Control_c, 1, 64, 127
2, 92617, Note_on_c, 1, 57, 0
2, 92745, Note_on_c, 1, 43, 0
2, 92992, Note_on_c, 1, 43, 17
2, 93034, Note_on_c, 1, 59, 0
2, 93043, Note_on_c, 1, 52, 0
2, 93085, Note_on_c, 1, 55, 46
2, 93223, Note_on_c, 1, 43, 0
2, 93510, Note_on_c, 1, 64, 0
2, 93573, Note_on_c, 1, 36, 0
2, 93648, Note_on_c, 1, 55, 0
2, 93707, Note_on_c, 1, 43, 32
2, 93968, Control_c, 1, 64, 0
2, 94054, Note_on_c, 1, 52, 48
2, 94061, Note_on_c, 1, 43, 0
2, 94074, Note_on_c, 1, 37, 37
2, 94255, Note_on_c, 1, 52, 0
2, 94268, Control_c, 1, 64, 127
2, 94297, Note_on_c, 1, 37, 0
2, 95037, Note_on_c, 1, 64, 51
2, 95040, Note_on_c, 1, 76, 41
2, 95042, Note_on_c, 1, 61, 25
2, 95060, Note_on_c, 1, 67, 36
2, 95065, Note_on_c, 1, 70, 36
2, 95075, Note_on_c, 1, 73, 20
2, 95083, Note_on_c, 1, 58, 36
2, 95090, Note_on_c, 1, 55, 26
2, 95168, Note_on_c, 1, 64, 0
2, 95198, Note_on_c, 1, 58, 0
2, 95201, Note_on_c, 1, 61, 0
2, 95262, Note_on_c, 1, 76, 0
2, 95263, Note_on_c, 1, 55, 0
2, 95314, Note_on_c, 1, 70, 0
2, 95319, Note_on_c, 1, 67, 0
2, 95319, Note_on_c, 1, 73, 0
2, 95957, Control_c, 1, 64, 0
2, 95976, Note_on_c, 1, 54, 60
2, 95996, Note_on_c, 1, 38, 55
2, 96160, Note_on_c, 1, 38, 0
2, 96194, Control_c, 1, 64, 127
2, 96218, Note_on_c, 1, 54, 0
2, 96955, Note_on_c, 1, 72, 35
2, 96957, Note_on_c, 1, 54, 36
2, 96963, Note_on_c, 1, 64, 46
2, 96974, Note_on_c, 1, 66, 34
2, 97029, Note_on_c, 1, 69, 18
2, 97148, Note_on_c, 1, 54, 0
2, 97154, Note_on_c, 1, 72, 0
2, 97171, Note_on_c, 1, 69, 0
2, 97254, Note_on_c, 1, 66, 0
2, 97274, Note_on_c, 1, 64, 0
2, 97642, Note_on_c, 1, 50, 24
2, 97845, Note_on_c, 1, 50, 0
2, 97896, Control_c, 1, 64, 0
2, 97913, Note_on_c, 1, 59, 47
2, 97921, Note_on_c, 1, 43, 38
2, 97948, Note_on_c, 1, 53, 33
2, 98147, Control_c, 1, 64, 127
2, 98255, Note_on_c, 1, 43, 0
2, 98323, Note_on_c, 1, 53, 0
2, 98554, Note_on_c, 1, 59, 0
2, 98840, Note_on_c, 1, 53, 37
2, 98841, Note_on_c, 1, 63, 50
2, 98842, Note_on_c, 1, 59, 59
2, 98860, Note_on_c, 1, 69, 41
2, 98862, Note_on_c, 1, 65, 56
2, 99013, Note_on_c, 1, 53, 0
2, 99379, Note_on_c, 1, 59, 0
2, 99418, Note_on_c, 1, 43, 38
2, 99436, Note_on_c, 1, 65, 0
2, 99499, Note_on_c, 1, 69, 0
2, 99720, Note_on_c, 1, 63, 0
2, 99796, Control_c, 1, 64, 0
2, 99822, Note_on_c, 1, 36, 33
2, 99852, Note_on_c, 1, 67, 49
2, 99856, Note_on_c, 1, 57, 45
2, 99857, Note_on_c, 1, 62, 55
2, 99859, Note_on_c, 1, 52, 31
2, 99868, Note_on_c, 1, 64, 48
2, 99972, Note_on_c, 1, 36, 0
2, 99974, Note_on_c, 1, 43, 0
2, 100048, Control_c, 1, 64, 127
2, 100089, Note_on_c, 1, 57, 0
2, 100163, Note_on_c, 1, 52, 0
2, 100249, Note_on_c, 1, 62, 0
2, 100274, Note_on_c, 1, 64, 0
2, 100309, Note_on_c, 1, 67, 0
2, 100797, Note_on_c, 1, 76, 82
2, 100799, Note_on_c, 1, 71, 87
2, 100803, Note_on_c, 1, 67, 92
2, 100812, Note_on_c, 1, 60, 53
2, 100815, Note_on_c, 1, 64, 70
2, 100828, Note_on_c, 1, 55, 51
2, 100834, Note_on_c, 1, 59, 50
2, 101112, Note_on_c, 1, 64, 0
2, 101151, Note_on_c, 1, 60, 0
2, 101165, Note_on_c, 1, 59, 0
2, 101195, Note_on_c, 1, 55, 0
2, 101236, Note_on_c, 1, 76, 0
2, 101247, Note_on_c, 1, 67, 0
2, 101280, Note_on_c, 1, 71, 0
2, 101761, Control_c, 1, 64, 0
2, 101766, Note_on_c, 1, 69, 80
2, 101769, Note_on_c, 1, 77, 73
2, 101779, Note_on_c, 1, 57, 54
2, 101780, Note_on_c, 1, 72, 60
2, 101783, Note_on_c, 1, 65, 81
2, 101784, Note_on_c, 1, 60, 60
2, 101791, Note_on_c, 1, 50, 55
2, 102050, Control_c, 1, 64, 127
2, 102206, Note_on_c, 1, 60, 0
2, 102232, Note_on_c, 1, 77, 0
2, 102272, Note_on_c, 1, 72, 0
2, 102292, Note_on_c, 1, 69, 0
2, 102311, Note_on_c, 1, 65, 0
2, 102313, Note_on_c, 1, 57, 0
2, 102734, Note_on_c, 1, 69, 51
2, 102746, Note_on_c, 1, 65, 58
2, 102747, Note_on_c, 1, 62, 48
2, 102756, Note_on_c, 1, 60, 32
2, 102757, Note_on_c, 1, 57, 38
2, 103103, Note_on_c, 1, 57, 0
2, 103105, Note_on_c, 1, 69, 0
2, 103109, Note_on_c, 1, 50, 0
2, 103133, Note_on_c, 1, 62, 0
2, 103164, Note_on_c, 1, 60, 0
2, 103204, Note_on_c, 1, 65, 0
2, 103575, Control_c, 1, 64, 0
2, 103633, Note_on_c, 1, 64, 48
2, 103635, Note_on_c, 1, 62, 43
2, 103642, Note_on_c, 1, 67, 54
2, 103648, Note_on_c, 1, 59, 35
2, 103651, Note_on_c, 1, 55, 37
2, 103670, Note_on_c, 1, 52, 28
2, 103851, Control_c, 1, 64, 127
2, 103914, Note_on_c, 1, 52, 0
2, 103932, Note_on_c, 1, 55, 0
2, 103979, Note_on_c, 1, 62, 0
2, 104054, Note_on_c, 1, 59, 0
2, 104200, Note_on_c, 1, 64, 0
2, 104232, Note_on_c, 1, 67, 0
2, 104574, Note_on_c, 1, 71, 44
2, 104577, Note_on_c, 1, 64, 58
2, 104579, Note_on_c, 1, 67, 53
2, 104587, Note_on_c, 1, 62, 53
2, 104588, Note_on_c, 1, 59, 38
2, 104788, Note_on_c, 1, 59, 0
2, 104958, Note_on_c, 1, 62, 0
2, 104977, Note_on_c, 1, 67, 0
2, 104987, Note_on_c, 1, 64, 0
2, 105147, Note_on_c, 1, 71, 0
2, 105532, Note_on_c, 1, 71, 52
2, 105532, Note_on_c, 1, 63, 57
2, 105534, Note_on_c, 1, 66, 56
2, 105537, Note_on_c, 1, 59, 56
2, 105550, Note_on_c, 1, 60, 47
2, 105567, Control_c, 1, 64, 0
2, 105614, Note_on_c, 1, 60, 0
2, 105656, Note_on_c, 1, 63, 0
2, 105699, Note_on_c, 1, 66, 0
2, 105711, Note_on_c, 1, 71, 0
2, 105796, Note_on_c, 1, 59, 0
2, 105829, Note_on_c, 1, 58, 53
2, 106038, Note_on_c, 1, 58, 0
2, 106114, Note_on_c, 1, 60, 41
2, 106114, Note_on_c, 1, 63, 42
2, 106116, Note_on_c, 1, 69, 49
2, 106119, Note_on_c, 1, 66, 44
2, 106131, Note_on_c, 1, 57, 48
2, 106283, Control_c, 1, 64, 127
2, 106416, Note_on_c, 1, 57, 0
2, 106473, Note_on_c, 1, 54, 57
2, 106753, Note_on_c, 1, 54, 0
2, 106785, Note_on_c, 1, 60, 0
2, 106918, Note_on_c, 1, 69, 0
2, 106944, Note_on_c, 1, 66, 0
2, 106969, Note_on_c, 1, 63, 0
2, 107105, Note_on_c, 1, 51, 45
2, 107215, Note_on_c, 1, 51, 0
2, 107422, Control_c, 1, 64, 0
2, 107459, Note_on_c, 1, 65, 59
2, 107462, Note_on_c, 1, 50, 50
2, 107466, Note_on_c, 1, 69, 40
2, 107475, Note_on_c, 1, 60, 39
2, 107684, Control_c, 1, 64, 127
2, 107767, Note_on_c, 1, 69, 0
2, 107809, Note_on_c, 1, 65, 0
2, 107843, Note_on_c, 1, 60, 0
2, 108058, Note_on_c, 1, 50, 0
2, 108091, Note_on_c, 1, 38, 48
2, 108310, Note_on_c, 1, 38, 0
2, 108436, Control_c, 1, 64, 0
2, 108449, Note_on_c, 1, 57, 45
2, 108452, Note_on_c, 1, 53, 39
2, 108464, Note_on_c, 1, 60, 38
2, 108481, Note_on_c, 1, 45, 49
2, 108749, Control_c, 1, 64, 127
2, 108996, Note_on_c, 1, 53, 0
2, 109118, Note_on_c, 1, 60, 0
2, 109136, Note_on_c, 1, 57, 0
2, 109362, Note_on_c, 1, 45, 0
2, 109414, Note_on_c, 1, 57, 52
2, 109432, Note_on_c, 1, 53, 32
2, 109448, Control_c, 1, 64, 0
2, 109457, Note_on_c, 1, 41, 36
2, 109724, Control_c, 1, 64, 127
2, 109741, Note_on_c, 1, 41, 0
2, 109901, Note_on_c, 1, 57, 0
2, 109916, Note_on_c, 1, 53, 0
2, 110349, Control_c, 1, 64, 0
2, 110368, Note_on_c, 1, 53, 30
2, 110378, Note_on_c, 1, 38, 35
2, 110379, Note_on_c, 1, 60, 33
2, 110381, Note_on_c, 1, 57, 30
2, 110481, Note_on_c, 1, 38, 0
2, 110700, Control_c, 1, 64, 127
2, 110863, Note_on_c, 1, 53, 0
2, 110868, Note_on_c, 1, 57, 0
2, 110892, Note_on_c, 1, 60, 0
2, 111007, Note_on_c, 1, 38, 30
2, 111180, Note_on_c, 1, 38, 0
2, 111212, Control_c, 1, 64, 0
2, 111325, Note_on_c, 1, 64, 41
2, 111347, Note_on_c, 1, 31, 26
2, 111356, Note_on_c, 1, 56, 35
2, 111357, Note_on_c, 1, 59, 34
2, 111375, Note_on_c, 1, 53, 18
2, 111547, Note_on_c, 1, 31, 0
2, 111548, Note_on_c, 1, 64, 0
2, 111553, Note_on_c, 1, 56, 0
2, 111568, Note_on_c, 1, 53, 0
2, 111582, Note_on_c, 1, 59, 0
2, 112286, Note_on_c, 1, 64, 34
2, 112287, Note_on_c, 1, 31, 28
2, 112308, Note_on_c, 1, 56, 34
2, 112312, Note_on_c, 1, 59, 30
2, 112324, Note_on_c, 1, 53, 15
2, 112493, Note_on_c, 1, 31, 0
2, 112545, Note_on_c, 1, 53, 0
2, 112547, Note_on_c, 1, 64, 0
2, 112550, Note_on_c, 1, 56, 0
2, 112593, Note_on_c, 1, 59, 0
2, 113269, Note_on_c, 1, 64, 46
2, 113273, Note_on_c, 1, 31, 32
2, 113285, Note_on_c, 1, 56, 29
2, 113293, Note_on_c, 1, 59, 32
2, 113293, Note_on_c, 1, 53, 19
2, 113354, Control_c, 1, 64, 127
2, 113612, Note_on_c, 1, 31, 0
2, 113680, Note_on_c, 1, 64, 0
2, 113682, Note_on_c, 1, 53, 0
2, 113697, Note_on_c, 1, 56, 0
2, 113732, Note_on_c, 1, 59, 0
2, 113883, Note_on_c, 1, 64, 44
2, 113898, Note_on_c, 1, 56, 34
2, 113904, Note_on_c, 1, 59, 36
2, 113906, Note_on_c, 1, 31, 28
2, 113909, Note_on_c, 1, 53, 24
2, 114057, Note_on_c, 1, 31, 0
2, 114059, Note_on_c, 1, 53, 0
2, 114072, Note_on_c, 1, 64, 0
2, 114088, Note_on_c, 1, 56, 0
2, 114125, Note_on_c, 1, 59, 0
2, 114213, Note_on_c, 1, 31, 24
2, 114228, Note_on_c, 1, 56, 34
2, 114246, Note_on_c, 1, 64, 38
2, 114258, Note_on_c, 1, 59, 22
2, 114299, Note_on_c, 1, 31, 0
2, 114409, Note_on_c, 1, 59, 0
2, 114486, Note_on_c, 1, 56, 0
2, 114682, Note_on_c, 1, 64, 0
2, 114768, Control_c, 1, 64, 0
2, 114873, Note_on_c, 1, 43, 60
2, 115124, Note_on_c, 1, 43, 0
2, 115221, Note_on_c, 1, 36, 48
2, 115497, Note_on_c, 1, 43, 34
2, 115516, Note_on_c, 1, 36, 0
2, 115800, Note_on_c, 1, 50, 38
2, 116046, Note_on_c, 1, 50, 0
2, 116170, Note_on_c, 1, 57, 51
2, 116178, Note_on_c, 1, 67, 47
2, 116190, Note_on_c, 1, 62, 42
2, 116198, Note_on_c, 1, 52, 27
2, 116630, Note_on_c, 1, 57, 0
2, 116648, Note_on_c, 1, 52, 0
2, 116651, Note_on_c, 1, 67, 0
2, 116665, Note_on_c, 1, 62, 0
2, 116770, Note_on_c, 1, 57, 44
2, 116774, Note_on_c, 1, 62, 38
2, 116777, Note_on_c, 1, 67, 31
2, 116781, Note_on_c, 1, 52, 34
2, 117529, Note_on_c, 1, 43, 0
2, 117720, Note_on_c, 1, 43, 35
2, 117959, Note_on_c, 1, 43, 0
2, 118081, Note_on_c, 1, 43, 36
2, 118221, Control_c, 1, 64, 127
2, 118326, Note_on_c, 1, 43, 0
2, 118435, Note_on_c, 1, 52, 0
2, 118682, Note_on_c, 1, 43, 48
2, 118708, Control_c, 1, 64, 0
2, 118911, Note_on_c, 1, 43, 0
2, 119257, Note_on_c, 1, 43, 40
2, 119301, Note_on_c, 1, 62, 0
2, 119334, Note_on_c, 1, 67, 0
2, 119356, Note_on_c, 1, 57, 0
2, 119493, Note_on_c, 1, 43, 0
2, 119527, Note_on_c, 1, 31, 40
2, 119871, Note_on_c, 1, 64, 48
2, 119885, Note_on_c, 1, 57, 43
2, 119891, Note_on_c, 1, 53, 34
2, 119894, Note_on_c, 1, 43, 34
2, 119907, Note_on_c, 1, 60, 36
2, 120886, Control_c, 1, 64, 127
2, 121074, Note_on_c, 1, 31, 0
2, 121507, Note_on_c, 1, 57, 0
2, 121508, Note_on_c, 1, 60, 0
2, 121511, Note_on_c, 1, 31, 32
2, 121513, Note_on_c, 1, 64, 0
2, 121535, Note_on_c, 1, 43, 0
2, 121546, Note_on_c, 1, 53, 0
2, 121548, Control_c, 1, 64, 0
2, 121860, Note_on_c, 1, 64, 38
2, 121887, Note_on_c, 1, 56, 34
2, 121888, Note_on_c, 1, 59, 34
2, 121889, Note_on_c, 1, 53, 20
2, 121900, Note_on_c, 1, 43, 31
2, 122051, Note_on_c, 1, 53, 0
2, 122053, Note_on_c, 1, 56, 0
2, 122079, Note_on_c, 1, 59, 0
2, 122093, Note_on_c, 1, 31, 0
2, 122108, Note_on_c, 1, 64, 0
2, 122119, Note_on_c, 1, 43, 0
2, 122467, Note_on_c, 1, 43, 30
2, 122795, Control_c, 1, 64, 127
2, 122814, Note_on_c, 1, 36, 46
2, 122816, Note_on_c, 1, 43, 0
2, 123829, Note_on_c, 1, 36, 0
2, 123862, Note_on_c, 1, 43, 12
2, 123884, Note_on_c, 1, 67, 60
2, 123891, Note_on_c, 1, 57, 53
2, 123892, Note_on_c, 1, 62, 58
2, 123921, Note_on_c, 1, 52, 30
2, 123998, Note_on_c, 1, 43, 0
2, 124233, Note_on_c, 1, 57, 0
2, 124240, Note_on_c, 1, 52, 0
2, 124349, Note_on_c, 1, 62, 0
2, 124356, Note_on_c, 1, 67, 0
2, 124835, Control_c, 1, 64, 0
2, 124855, Note_on_c, 1, 70, 67
2, 124869, Note_on_c, 1, 61, 64
2, 124871, Note_on_c, 1, 66, 70
2, 124880, Note_on_c, 1, 55, 49
2, 125211, Control_c, 1, 64, 127
2, 125635, Note_on_c, 1, 70, 0
2, 125793, Note_on_c, 1, 45, 47
2, 125800, Control_c, 1, 64, 0
2, 125810, Note_on_c, 1, 70, 55
2, 125909, Note_on_c, 1, 55, 0
2, 125963, Control_c, 1, 64, 127
2, 126012, Note_on_c, 1, 61, 0
2, 126201, Note_on_c, 1, 70, 0
2, 126408, Note_on_c, 1, 66, 0
2, 126766, Note_on_c, 1, 66, 49
2, 126775, Note_on_c, 1, 69, 45
2, 126776, Note_on_c, 1, 60, 47
2, 126777, Note_on_c, 1, 45, 0
2, 126792, Control_c, 1, 64, 0
2, 126805, Note_on_c, 1, 54, 35
2, 127205, Control_c, 1, 64, 127
2, 127367, Note_on_c, 1, 60, 0
2, 127439, Note_on_c, 1, 54, 0
2, 127440, Note_on_c, 1, 66, 0
2, 127449, Note_on_c, 1, 69, 0
2, 127718, Note_on_c, 1, 66, 37
2, 127721, Note_on_c, 1, 60, 36
2, 127724, Note_on_c, 1, 69, 36
2, 127728, Note_on_c, 1, 54, 35
2, 127741, Control_c, 1, 64, 0
2, 127918, Control_c, 1, 64, 127
2, 128114, Note_on_c, 1, 54, 0
2, 128135, Note_on_c, 1, 69, 0
2, 128186, Note_on_c, 1, 60, 0
2, 128287, Note_on_c, 1, 66, 0
2, 128593, Control_c, 1, 64, 0
2, 128645, Note_on_c, 1, 59, 34
2, 128648, Note_on_c, 1, 68, 36
2, 128664, Note_on_c, 1, 64, 43
2, 128705, Note_on_c, 1, 53, 24
2, 129041, Control_c, 1, 64, 127
2, 129246, Note_on_c, 1, 59, 0
2, 129274, Note_on_c, 1, 53, 0
2, 129302, Note_on_c, 1, 64, 0
2, 129353, Note_on_c, 1, 68, 0
2, 129603, Note_on_c, 1, 68, 44
2, 129618, Note_on_c, 1, 59, 37
2, 129623, Note_on_c, 1, 53, 32
2, 129635, Note_on_c, 1, 64, 31
2, 129926, Note_on_c, 1, 64, 0
2, 129928, Note_on_c, 1, 68, 0
2, 129951, Note_on_c, 1, 53, 0
2, 130028, Note_on_c, 1, 59, 0
2, 130521, Control_c, 1, 64, 0
2, 130556, Note_on_c, 1, 67, 55
2, 130571, Note_on_c, 1, 57, 35
2, 130572, Note_on_c, 1, 52, 40
2, 130577, Note_on_c, 1, 62, 47
2, 130807, Control_c, 1, 64, 127
2, 131292, Note_on_c, 1, 52, 0
2, 131411, Note_on_c, 1, 57, 0
2, 131702, Note_on_c, 1, 62, 0
2, 131763, Note_on_c, 1, 67, 0
2, 132131, Note_on_c, 1, 74, 80
2, 132419, Note_on_c, 1, 74, 0
2, 132497, Control_c, 1, 64, 0
2, 132537, Note_on_c, 1, 48, 33
2, 132540, Note_on_c, 1, 71, 51
2, 132542, Note_on_c, 1, 57, 36
2, 132554, Note_on_c, 1, 41, 24
2, 132558, Note_on_c, 1, 67, 42
2, 132619, Note_on_c, 1, 67, 0
2, 132684, Note_on_c, 1, 71, 0
2, 132696, Note_on_c, 1, 57, 0
2, 132711, Note_on_c, 1, 41, 0
2, 132738, Note_on_c, 1, 48, 0
2, 133012, Note_on_c, 1, 57, 46
2, 133016, Note_on_c, 1, 71, 50
2, 133018, Note_on_c, 1, 41, 29
2, 133022, Note_on_c, 1, 48, 37
2, 133026, Note_on_c, 1, 67, 51
2, 133028, Note_on_c, 1, 63, 36
2, 133110, Note_on_c, 1, 63, 0
2, 133156, Note_on_c, 1, 67, 0
2, 133179, Note_on_c, 1, 71, 0
2, 133193, Note_on_c, 1, 41, 0
2, 133238, Note_on_c, 1, 48, 0
2, 133253, Note_on_c, 1, 57, 0
2, 133495, Note_on_c, 1, 41, 43
2, 133500, Note_on_c, 1, 71, 45
2, 133506, Note_on_c, 1, 63, 38
2, 133508, Note_on_c, 1, 57, 31
2, 133516, Note_on_c, 1, 48, 35
2, 133521, Control_c, 1, 64, 127
2, 133529, Note_on_c, 1, 67, 47
2, 133747, Note_on_c, 1, 48, 0
2, 133797, Note_on_c, 1, 57, 0
2, 133831, Note_on_c, 1, 41, 0
2, 133848, Note_on_c, 1, 63, 0
2, 133890, Note_on_c, 1, 67, 0
2, 133911, Note_on_c, 1, 71, 0
2, 134410, Control_c, 1, 64, 0
2, 134446, Note_on_c, 1, 67, 50
2, 134449, Note_on_c, 1, 62, 48
2, 134511, Note_on_c, 1, 40, 24
2, 134517, Note_on_c, 1, 47, 19
2, 134698, Control_c, 1, 64, 127
2, 134774, Note_on_c, 1, 67, 0
2, 134853, Note_on_c, 1, 62, 0
2, 135412, Note_on_c, 1, 64, 32
2, 135413, Note_on_c, 1, 59, 33
2, 135415, Note_on_c, 1, 62, 45
2, 135425, Note_on_c, 1, 67, 37
2, 135675, Note_on_c, 1, 64, 0
2, 135739, Note_on_c, 1, 62, 0
2, 135789, Note_on_c, 1, 47, 0
2, 135806, Note_on_c, 1, 67, 0
2, 135853, Note_on_c, 1, 59, 0
2, 136186, Note_on_c, 1, 40, 0
2, 136347, Note_on_c, 1, 61, 33
2, 136351, Note_on_c, 1, 64, 24
2, 136373, Note_on_c, 1, 55, 30
2, 136383, Note_on_c, 1, 58, 32
2, 136930, Note_on_c, 1, 52, 88
2, 136933, Note_on_c, 1, 55, 0
2, 137058, Note_on_c, 1, 58, 0
2, 137126, Note_on_c, 1, 61, 0
2, 137182, Note_on_c, 1, 64, 0
2, 137317, Note_on_c, 1, 61, 72
2, 137318, Note_on_c, 1, 64, 77
2, 137329, Note_on_c, 1, 58, 77
2, 137334, Note_on_c, 1, 57, 81
2, 137337, Control_c, 1, 64, 0
2, 137351, Note_on_c, 1, 52, 0
2, 137673, Control_c, 1, 64, 127
2, 137896, Note_on_c, 1, 57, 0
2, 137906, Note_on_c, 1, 55, 72
2, 138018, Note_on_c, 1, 58, 0
2, 138255, Note_on_c, 1, 64, 0
2, 138256, Note_on_c, 1, 61, 0
2, 138263, Control_c, 1, 64, 0
2, 138302, Note_on_c, 1, 57, 55
2, 138306, Note_on_c, 1, 60, 47
2, 138314, Note_on_c, 1, 55, 0
2, 138332, Note_on_c, 1, 65, 46
2, 138341, Note_on_c, 1, 53, 57
2, 138688, Control_c, 1, 64, 127
2, 138722, Note_on_c, 1, 60, 0
2, 138822, Note_on_c, 1, 57, 0
2, 139085, Note_on_c, 1, 53, 0
2, 139139, Note_on_c, 1, 65, 0
2, 139220, Note_on_c, 1, 60, 44
2, 139236, Note_on_c, 1, 57, 41
2, 139263, Note_on_c, 1, 53, 28
2, 139759, Note_on_c, 1, 48, 83
2, 139816, Note_on_c, 1, 60, 0
2, 139823, Note_on_c, 1, 53, 0
2, 139829, Note_on_c, 1, 57, 0
2, 140052, Control_c, 1, 64, 0
2, 140178, Note_on_c, 1, 57, 45
2, 140186, Note_on_c, 1, 60, 34
2, 140206, Note_on_c, 1, 53, 24
2, 140377, Control_c, 1, 64, 127
2, 140644, Note_on_c, 1, 48, 0
2, 140842, Note_on_c, 1, 53, 0
2, 140885, Note_on_c, 1, 60, 0
2, 140887, Note_on_c, 1, 57, 0
2, 141064, Note_on_c, 1, 43, 44
2, 141086, Note_on_c, 1, 57, 48
2, 141091, Control_c, 1, 64, 0
2, 141094, Note_on_c, 1, 53, 30
2, 141104, Note_on_c, 1, 60, 40
2, 141441, Control_c, 1, 64, 127
2, 141710, Note_on_c, 1, 53, 0
2, 141747, Note_on_c, 1, 60, 0
2, 141758, Note_on_c, 1, 57, 0
2, 141894, Note_on_c, 1, 43, 0
2, 142054, Control_c, 1, 64, 0
2, 142075, Note_on_c, 1, 31, 36
2, 142078, Note_on_c, 1, 59, 34
2, 142079, Note_on_c, 1, 64, 48
2, 142081, Note_on_c, 1, 43, 30
2, 142084, Note_on_c, 1, 53, 31
2, 142487, Note_on_c, 1, 31, 0
2, 142492, Note_on_c, 1, 53, 0
2, 142501, Note_on_c, 1, 64, 0
2, 142529, Note_on_c, 1, 43, 0
2, 142533, Note_on_c, 1, 59, 0
2, 143029, Note_on_c, 1, 31, 36
2, 143032, Note_on_c, 1, 43, 36
2, 143034, Note_on_c, 1, 64, 39
2, 143044, Note_on_c, 1, 59, 36
2, 143052, Note_on_c, 1, 56, 25
2, 143065, Note_on_c, 1, 53, 18
2, 143404, Control_c, 1, 64, 127
2, 143643, Note_on_c, 1, 53, 0
2, 143644, Note_on_c, 1, 64, 0
2, 143649, Note_on_c, 1, 31, 0
2, 143650, Note_on_c, 1, 59, 0
2, 143668, Note_on_c, 1, 56, 0
2, 143675, Note_on_c, 1, 43, 0
2, 143905, Control_c, 1, 64, 0
2, 144003, Note_on_c, 1, 43, 36
2, 144005, Note_on_c, 1, 31, 34
2, 144007, Note_on_c, 1, 56, 44
2, 144017, Note_on_c, 1, 64, 51
2, 144030, Note_on_c, 1, 59, 45
2, 144051, Note_on_c, 1, 53, 27
2, 144079, Control_c, 1, 64, 127
2, 144290, Note_on_c, 1, 53, 0
2, 144388, Note_on_c, 1, 56, 0
2, 144405, Note_on_c, 1, 43, 0
2, 144411, Note_on_c, 1, 31, 0
2, 144448, Note_on_c, 1, 59, 0
2, 144505, Note_on_c, 1, 64, 0
2, 144580, Control_c, 1, 64, 0
2, 144622, Note_on_c, 1, 29, 55
2, 144712, Note_on_c, 1, 29, 0
2, 144742, Control_c, 1, 64, 127
2, 145028, Note_on_c, 1, 74, 81
2, 145032, Control_c, 1, 64, 0
2, 145034, Note_on_c, 1, 63, 81
2, 145035, Note_on_c, 1, 71, 61
2, 145040, Note_on_c, 1, 67, 75
2, 145045, Note_on_c, 1, 62, 80
2, 145097, Note_on_c, 1, 72, 26
2, 145150, Note_on_c, 1, 72, 0
2, 145230, Control_c, 1, 64, 127
2, 145548, Note_on_c, 1, 71, 0
2, 145576, Note_on_c, 1, 67, 0
2, 145576, Note_on_c, 1, 62, 0
2, 145577, Note_on_c, 1, 63, 0
2, 145632, Note_on_c, 1, 74, 0
2, 145894, Control_c, 1, 64, 0
2, 145941, Note_on_c, 1, 71, 41
2, 145959, Note_on_c, 1, 62, 49
2, 145960, Note_on_c, 1, 59, 41
2, 145963, Note_on_c, 1, 67, 51
2, 145971, Note_on_c, 1, 52, 33
2, 146256, Control_c, 1, 64, 127
2, 146531, Note_on_c, 1, 62, 0
2, 146904, Note_on_c, 1, 67, 0
2, 146979, Note_on_c, 1, 71, 0
2, 147207, Note_on_c, 1, 52, 0
2, 147267, Note_on_c, 1, 59, 0
2, 147462, Note_on_c, 1, 84, 83
2, 147654, Note_on_c, 1, 84, 0
2, 147845, Control_c, 1, 64, 0
2, 147860, Note_on_c, 1, 84, 60
2, 147896, Note_on_c, 1, 65, 51
2, 147897, Note_on_c, 1, 77, 62
2, 147901, Note_on_c, 1, 61, 34
2, 147912, Note_on_c, 1, 73, 43
2, 147915, Note_on_c, 1, 55, 36
2, 148158, Control_c, 1, 64, 127
2, 148526, Note_on_c, 1, 65, 0
2, 148562, Note_on_c, 1, 77, 0
2, 148597, Note_on_c, 1, 73, 0
2, 148697, Note_on_c, 1, 84, 0
2, 148786, Note_on_c, 1, 73, 37
2, 148793, Note_on_c, 1, 81, 53
2, 148802, Note_on_c, 1, 64, 47
2, 148807, Note_on_c, 1, 77, 48
2, 149053, Note_on_c, 1, 81, 0
2, 149136, Note_on_c, 1, 73, 0
2, 149163, Note_on_c, 1, 61, 0
2, 149170, Note_on_c, 1, 77, 0
2, 149683, Control_c, 1, 64, 0
2, 149718, Note_on_c, 1, 79, 50
2, 149723, Note_on_c, 1, 64, 0
2, 149727, Note_on_c, 1, 72, 33
2, 149732, Note_on_c, 1, 63, 42
2, 149748, Note_on_c, 1, 69, 34
2, 149973, Control_c, 1, 64, 127
2, 150223, Note_on_c, 1, 55, 0
2, 150246, Note_on_c, 1, 79, 0
2, 150246, Note_on_c, 1, 69, 0
2, 150338, Note_on_c, 1, 72, 0
2, 150634, Control_c, 1, 64, 0
2, 150670, Note_on_c, 1, 77, 49
2, 150684, Note_on_c, 1, 69, 30
2, 150685, Note_on_c, 1, 72, 35
2, 150694, Note_on_c, 1, 63, 0
2, 150710, Note_on_c, 1, 62, 42
2, 150822, Control_c, 1, 64, 127
2, 151103, Note_on_c, 1, 77, 0
2, 151114, Note_on_c, 1, 72, 0
2, 151148, Note_on_c, 1, 69, 0
2, 151589, Note_on_c, 1, 62, 0
2, 151610, Control_c, 1, 64, 0
2, 151634, Note_on_c, 1, 76, 36
2, 151660, Note_on_c, 1, 68, 23
2, 151665, Note_on_c, 1, 65, 27
2, 151703, Note_on_c, 1, 59, 22
2, 151810, Control_c, 1, 64, 127
2, 151961, Note_on_c, 1, 59, 0
2, 151966, Note_on_c, 1, 76, 0
2, 152029, Note_on_c, 1, 68, 0
2, 152055, Note_on_c, 1, 65, 0
2, 152621, Note_on_c, 1, 71, 38
2, 152631, Note_on_c, 1, 62, 35
2, 152633, Note_on_c, 1, 68, 31
2, 152639, Note_on_c, 1, 65, 36
2, 152652, Note_on_c, 1, 55, 25
2, 152914, Note_on_c, 1, 55, 0
2, 152991, Note_on_c, 1, 71, 0
2, 153040, Note_on_c, 1, 68, 0
2, 153041, Note_on_c, 1, 65, 0
2, 153055, Note_on_c, 1, 62, 0
2, 153585, Note_on_c, 1, 64, 54
2, 153593, Note_on_c, 1, 57, 51
2, 153599, Control_c, 1, 64, 0
2, 153600, Note_on_c, 1, 60, 40
2, 153614, Note_on_c, 1, 42, 38
2, 153875, Control_c, 1, 64, 127
2, 154246, Note_on_c, 1, 60, 0
2, 154267, Note_on_c, 1, 57, 0
2, 154429, Note_on_c, 1, 42, 0
2, 154442, Note_on_c, 1, 64, 0
2, 154550, Control_c, 1, 64, 0
2, 154561, Note_on_c, 1, 60, 40
2, 154563, Note_on_c, 1, 55, 33
2, 154566, Note_on_c, 1, 57, 47
2, 154568, Note_on_c, 1, 41, 39
2, 154825, Control_c, 1, 64, 127
2, 155092, Note_on_c, 1, 57, 0
2, 155123, Note_on_c, 1, 55, 0
2, 155130, Note_on_c, 1, 60, 0
2, 155489, Control_c, 1, 64, 0
2, 155499, Note_on_c, 1, 41, 0
2, 155540, Note_on_c, 1, 64, 65
2, 155541, Note_on_c, 1, 61, 47
2, 155542, Note_on_c, 1, 58, 62
2, 155554, Note_on_c, 1, 55, 54
2, 155559, Note_on_c, 1, 40, 47
2, 155752, Control_c, 1, 64, 127
2, 155812, Note_on_c, 1, 40, 0
2, 155869, Note_on_c, 1, 55, 0
2, 155977, Note_on_c, 1, 58, 0
2, 156023, Note_on_c, 1, 64, 0
2, 156029, Note_on_c, 1, 61, 0
2, 156527, Control_c, 1, 64, 0
2, 156528, Note_on_c, 1, 70, 67
2, 156530, Note_on_c, 1, 64, 78
2, 156531, Note_on_c, 1, 61, 77
2, 156539, Note_on_c, 1, 67, 62
2, 156539, Note_on_c, 1, 55, 70
2, 156739, Control_c, 1, 64, 127
2, 157072, Note_on_c, 1, 64, 0
2, 157181, Note_on_c, 1, 61, 0
2, 157277, Note_on_c, 1, 67, 0
2, 157322, Note_on_c, 1, 70, 0
2, 157431, Note_on_c, 1, 55, 0
2, 157466, Control_c, 1, 64, 0
2, 157510, Note_on_c, 1, 69, 66
2, 157514, Note_on_c, 1, 66, 62
2, 157525, Note_on_c, 1, 54, 56
2, 157527, Note_on_c, 1, 60, 57
2, 157765, Control_c, 1, 64, 127
2, 157891, Note_on_c, 1, 54, 0
2, 157937, Note_on_c, 1, 69, 0
2, 157943, Note_on_c, 1, 66, 0
2, 157975, Note_on_c, 1, 60, 0
2, 158390, Control_c, 1, 64, 0
2, 158421, Note_on_c, 1, 54, 38
2, 158431, Note_on_c, 1, 60, 40
2, 158435, Note_on_c, 1, 50, 44
2, 158436, Note_on_c, 1, 65, 52
2, 158616, Control_c, 1, 64, 127
2, 158846, Note_on_c, 1, 65, 0
2, 158901, Note_on_c, 1, 60, 0
2, 158903, Note_on_c, 1, 54, 0
2, 159329, Control_c, 1, 64, 0
2, 159338, Note_on_c, 1, 50, 0
2, 159351, Note_on_c, 1, 64, 52
2, 159357, Note_on_c, 1, 43, 39
2, 159357, Note_on_c, 1, 59, 44
2, 159360, Note_on_c, 1, 53, 34
2, 159679, Control_c, 1, 64, 127
2, 159772, Note_on_c, 1, 43, 0
2, 159864, Note_on_c, 1, 53, 0
2, 159870, Note_on_c, 1, 64, 0
2, 160021, Note_on_c, 1, 59, 0
2, 160313, Note_on_c, 1, 63, 46
2, 160331, Control_c, 1, 64, 0
2, 160335, Note_on_c, 1, 53, 36
2, 160336, Note_on_c, 1, 59, 38
2, 160360, Note_on_c, 1, 43, 26
2, 160553, Control_c, 1, 64, 127
2, 160557, Note_on_c, 1, 43, 0
2, 160708, Note_on_c, 1, 53, 0
2, 160804, Note_on_c, 1, 63, 0
2, 161009, Note_on_c, 1, 59, 0
2, 161243, Control_c, 1, 64, 0
2, 161268, Note_on_c, 1, 36, 32
2, 161271, Note_on_c, 1, 64, 38
2, 161271, Note_on_c, 1, 55, 31
2, 161272, Note_on_c, 1, 43, 18
2, 161273, Note_on_c, 1, 59, 30
2, 161292, Note_on_c, 1, 52, 28
2, 161555, Control_c, 1, 64, 127
2, 161762, Note_on_c, 1, 55, 0
2, 161774, Note_on_c, 1, 52, 0
2, 161842, Note_on_c, 1, 59, 0
2, 161852, Note_on_c, 1, 64, 0
2, 162269, Note_on_c, 1, 57, 60
2, 162272, Note_on_c, 1, 67, 64
2, 162274, Note_on_c, 1, 62, 64
2, 162290, Note_on_c, 1, 52, 39
2, 162388, Note_on_c, 1, 36, 0
2, 162529, Note_on_c, 1, 43, 0
2, 162700, Note_on_c, 1, 52, 0
2, 162748, Note_on_c, 1, 62, 0
2, 162777, Note_on_c, 1, 67, 0
2, 162797, Note_on_c, 1, 57, 0
2, 163245, Control_c, 1, 64, 0
2, 163246, Note_on_c, 1, 57, 48
2, 163247, Note_on_c, 1, 63, 32
2, 163269, Note_on_c, 1, 62, 65
2, 163271, Note_on_c, 1, 41, 45
2, 163631, Control_c, 1, 64, 127
2, 163884, Note_on_c, 1, 62, 0
2, 163920, Note_on_c, 1, 57, 0
2, 164203, Note_on_c, 1, 63, 0
2, 164278, Note_on_c, 1, 51, 35
2, 164278, Note_on_c, 1, 57, 46
2, 164280, Note_on_c, 1, 60, 61
2, 164486, Note_on_c, 1, 41, 0
2, 164749, Note_on_c, 1, 51, 0
2, 164852, Note_on_c, 1, 60, 0
2, 164854, Note_on_c, 1, 57, 0
2, 165133, Control_c, 1, 64, 0
2, 165168, Note_on_c, 1, 59, 38
2, 165168, Note_on_c, 1, 50, 25
2, 165178, Note_on_c, 1, 55, 40
2, 165211, Note_on_c, 1, 40, 36
2, 165395, Control_c, 1, 64, 127
2, 165496, Note_on_c, 1, 50, 0
2, 165500, Note_on_c, 1, 55, 0
2, 165747, Note_on_c, 1, 59, 0
2, 166047, Note_on_c, 1, 50, 39
2, 166052, Note_on_c, 1, 67, 60
2, 166053, Note_on_c, 1, 59, 64
2, 166058, Note_on_c, 1, 62, 62
2, 166160, Note_on_c, 1, 40, 0
2, 166459, Note_on_c, 1, 62, 0
2, 166481, Note_on_c, 1, 50, 0
2, 166487, Note_on_c, 1, 59, 0
2, 166556, Note_on_c, 1, 67, 0
2, 166959, Control_c, 1, 64, 0
2, 166996, Note_on_c, 1, 61, 56
2, 167004, Note_on_c, 1, 58, 69
2, 167005, Note_on_c, 1, 55, 63
2, 167014, Note_on_c, 1, 45, 43
2, 167322, Control_c, 1, 64, 127
2, 167614, Note_on_c, 1, 55, 0
2, 167848, Note_on_c, 1, 58, 0
2, 167889, Note_on_c, 1, 61, 0
2, 167984, Note_on_c, 1, 63, 59
2, 167997, Note_on_c, 1, 54, 69
2, 167999, Note_on_c, 1, 57, 71
2, 168006, Note_on_c, 1, 60, 55
2, 168007, Note_on_c, 1, 51, 52
2, 168011, Control_c, 1, 64, 0
2, 168015, Note_on_c, 1, 45, 0
2, 168347, Control_c, 1, 64, 127
2, 168544, Note_on_c, 1, 57, 0
2, 168593, Note_on_c, 1, 60, 0
2, 168650, Note_on_c, 1, 54, 0
2, 168676, Note_on_c, 1, 63, 0
2, 168948, Control_c, 1, 64, 0
2, 168951, Note_on_c, 1, 51, 0
2, 169003, Note_on_c, 1, 65, 73
2, 169008, Note_on_c, 1, 60, 68
2, 169013, Note_on_c, 1, 57, 72
2, 169014, Note_on_c, 1, 50, 61
2, 169312, Control_c, 1, 64, 127
2, 169522, Note_on_c, 1, 65, 0
2, 169650, Note_on_c, 1, 60, 0
2, 169678, Note_on_c, 1, 57, 0
2, 169911, Control_c, 1, 64, 0
2, 169922, Note_on_c, 1, 67, 69
2, 169922, Note_on_c, 1, 60, 69
2, 169942, Note_on_c, 1, 57, 65
2, 169944, Note_on_c, 1, 52, 53
2, 169970, Note_on_c, 1, 50, 0
2, 170253, Control_c, 1, 64, 127
2, 170342, Note_on_c, 1, 57, 0
2, 170441, Note_on_c, 1, 67, 0
2, 170453, Note_on_c, 1, 60, 0
2, 170778, Control_c, 1, 64, 0
2, 170874, Note_on_c, 1, 69, 50
2, 170879, Note_on_c, 1, 60, 45
2, 170883, Note_on_c, 1, 65, 62
2, 170890, Note_on_c, 1, 52, 0
2, 170893, Note_on_c, 1, 53, 49
2, 171152, Control_c, 1, 64, 127
2, 171242, Note_on_c, 1, 60, 0
2, 171257, Note_on_c, 1, 65, 0
2, 171262, Note_on_c, 1, 69, 0
2, 171815, Control_c, 1, 64, 0
2, 171824, Note_on_c, 1, 72, 44
2, 171835, Note_on_c, 1, 57, 45
2, 171844, Note_on_c, 1, 69, 40
2, 171845, Note_on_c, 1, 62, 48
2, 171846, Note_on_c, 1, 65, 56
2, 171922, Note_on_c, 1, 53, 0
2, 172053, Control_c, 1, 64, 127
2, 172131, Note_on_c, 1, 57, 0
2, 172144, Note_on_c, 1, 72, 0
2, 172161, Note_on_c, 1, 69, 0
2, 172212, Note_on_c, 1, 62, 0
2, 172224, Note_on_c, 1, 65, 0
2, 172753, Control_c, 1, 64, 0
2, 172795, Note_on_c, 1, 61, 27
2, 172795, Note_on_c, 1, 57, 45
2, 172798, Note_on_c, 1, 64, 42
2, 172813, Note_on_c, 1, 53, 32
2, 172821, Note_on_c, 1, 43, 27
2, 172858, Note_on_c, 1, 50, 27
2, 173799, Note_on_c, 1, 62, 67
2, 173808, Note_on_c, 1, 64, 0
2, 173831, Control_c, 1, 64, 127
2, 174212, Note_on_c, 1, 53, 0
2, 174309, Note_on_c, 1, 57, 0
2, 174353, Note_on_c, 1, 62, 0
2, 174377, Note_on_c, 1, 61, 0
2, 174577, Note_on_c, 1, 43, 0
2, 174757, Control_c, 1, 64, 0
2, 174779, Note_on_c, 1, 50, 0
2, 174781, Note_on_c, 1, 61, 42
2, 174783, Note_on_c, 1, 64, 47
2, 174785, Note_on_c, 1, 67, 51
2, 174796, Note_on_c, 1, 59, 46
2, 174805, Note_on_c, 1, 43, 31
2, 174806, Note_on_c, 1, 53, 33
2, 175206, Control_c, 1, 64, 127
2, 175388, Note_on_c, 1, 53, 0
2, 175430, Note_on_c, 1, 61, 0
2, 175434, Note_on_c, 1, 59, 0
2, 175475, Note_on_c, 1, 64, 0
2, 175549, Note_on_c, 1, 67, 0
2, 175719, Note_on_c, 1, 61, 38
2, 175721, Note_on_c, 1, 67, 48
2, 175726, Note_on_c, 1, 59, 37
2, 175731, Note_on_c, 1, 64, 45
2, 175732, Note_on_c, 1, 53, 34
2, 175886, Note_on_c, 1, 43, 0
2, 176028, Note_on_c, 1, 53, 0
2, 176072, Note_on_c, 1, 64, 0
2, 176126, Note_on_c, 1, 61, 0
2, 176138, Note_on_c, 1, 67, 0
2, 176143, Note_on_c, 1, 59, 0
2, 176645, Control_c, 1, 64, 0
2, 176663, Note_on_c, 1, 36, 43
2, 177140, Note_on_c, 1, 43, 41
2, 177284, Control_c, 1, 64, 127
2, 177546, Control_c, 1, 64, 0
2, 177588, Note_on_c, 1, 52, 45
2, 177589, Note_on_c, 1, 67, 52
2, 177592, Note_on_c, 1, 57, 46
2, 177599, Note_on_c, 1, 62, 47
2, 177783, Control_c, 1, 64, 127
2, 178004, Note_on_c, 1, 36, 0
2, 178018, Note_on_c, 1, 52, 0
2, 178054, Note_on_c, 1, 43, 0
2, 178459, Note_on_c, 1, 57, 0
2, 178471, Control_c, 1, 64, 0
2, 178473, Note_on_c, 1, 62, 0
2, 178533, Note_on_c, 1, 34, 62
2, 178565, Note_on_c, 1, 67, 0
2, 179013, Note_on_c, 1, 41, 46
2, 179476, Note_on_c, 1, 67, 57
2, 179480, Note_on_c, 1, 56, 56
2, 179488, Note_on_c, 1, 62, 60
2, 179494, Note_on_c, 1, 46, 45
2, 179596, Control_c, 1, 64, 127
2, 179757, Note_on_c, 1, 41, 0
2, 179793, Note_on_c, 1, 34, 0
2, 179868, Note_on_c, 1, 46, 0
2, 180422, Control_c, 1, 64, 0
2, 180442, Note_on_c, 1, 56, 0
2, 180475, Note_on_c, 1, 36, 68
2, 180477, Note_on_c, 1, 67, 0
2, 180501, Note_on_c, 1, 62, 0
2, 180934, Control_c, 1, 64, 127
2, 180957, Note_on_c, 1, 43, 57
2, 181286, Note_on_c, 1, 36, 0
2, 181397, Control_c, 1, 64, 0
2, 181417, Note_on_c, 1, 52, 57
2, 181425, Note_on_c, 1, 67, 73
2, 181431, Note_on_c, 1, 62, 74
2, 181443, Note_on_c, 1, 57, 74
2, 181586, Control_c, 1, 64, 127
2, 181774, Note_on_c, 1, 43, 0
2, 181866, Note_on_c, 1, 57, 0
2, 181891, Note_on_c, 1, 52, 0
2, 181954, Note_on_c, 1, 67, 0
2, 181961, Note_on_c, 1, 62, 0
2, 182362, Control_c, 1, 64, 0
2, 182433, Note_on_c, 1, 70, 76
2, 182437, Note_on_c, 1, 61, 81
2, 182439, Note_on_c, 1, 66, 79
2, 182445, Note_on_c, 1, 45, 67
2, 182459, Note_on_c, 1, 55, 72
2, 182775, Control_c, 1, 64, 127
2, 183156, Note_on_c, 1, 66, 0
2, 183157, Note_on_c, 1, 45, 0
2, 183161, Note_on_c, 1, 61, 0
2, 183298, Note_on_c, 1, 70, 0
2, 183408, Note_on_c, 1, 55, 0
2, 183411, Control_c, 1, 64, 0
2, 183434, Note_on_c, 1, 66, 58
2, 183443, Note_on_c, 1, 61, 60
2, 183446, Note_on_c, 1, 69, 52
2, 183458, Note_on_c, 1, 54, 44
2, 183662, Control_c, 1, 64, 127
2, 183832, Note_on_c, 1, 61, 0
2, 183907, Note_on_c, 1, 54, 0
2, 184109, Note_on_c, 1, 69, 0
2, 184191, Note_on_c, 1, 66, 0
2, 184301, Control_c, 1, 64, 0
2, 184350, Note_on_c, 1, 50, 44
2, 184361, Note_on_c, 1, 69, 40
2, 184369, Note_on_c, 1, 65, 48
2, 184380, Note_on_c, 1, 60, 29
2, 184600, Control_c, 1, 64, 127
2, 184768, Note_on_c, 1, 65, 0
2, 184768, Note_on_c, 1, 69, 0
2, 184875, Note_on_c, 1, 60, 0
2, 185311, Note_on_c, 1, 65, 51
2, 185321, Note_on_c, 1, 57, 44
2, 185327, Note_on_c, 1, 60, 36
2, 185357, Note_on_c, 1, 50, 0
2, 185664, Note_on_c, 1, 65, 0
2, 185684, Note_on_c, 1, 60, 0
2, 185755, Note_on_c, 1, 57, 0
2, 186213, Control_c, 1, 64, 0
2, 186238, Note_on_c, 1, 64, 60
2, 186242, Note_on_c, 1, 56, 37
2, 186253, Note_on_c, 1, 59, 47
2, 186262, Note_on_c, 1, 53, 35
2, 186286, Note_on_c, 1, 43, 31
2, 186491, Note_on_c, 1, 43, 0
2, 186539, Control_c, 1, 64, 127
2, 186730, Note_on_c, 1, 43, 1
2, 186941, Note_on_c, 1, 53, 0
2, 186963, Note_on_c, 1, 56, 0
2, 186991, Note_on_c, 1, 59, 0
2, 187063, Note_on_c, 1, 64, 0
2, 187202, Control_c, 1, 64, 0
2, 187234, Note_on_c, 1, 62, 48
2, 187235, Note_on_c, 1, 56, 34
2, 187237, Note_on_c, 1, 53, 24
2, 187245, Note_on_c, 1, 59, 29
2, 187686, Note_on_c, 1, 43, 0
2, 187716, Note_on_c, 1, 41, 79
2, 187727, Control_c, 1, 64, 127
2, 187742, Note_on_c, 1, 53, 0
2, 187809, Note_on_c, 1, 56, 0
2, 187903, Note_on_c, 1, 59, 0
2, 188048, Note_on_c, 1, 62, 0
2, 188078, Control_c, 1, 64, 0
2, 188136, Note_on_c, 1, 41, 0
2, 188183, Note_on_c, 1, 40, 71
2, 188265, Control_c, 1, 64, 127
2, 188349, Note_on_c, 1, 40, 0
2, 188710, Note_on_c, 1, 55, 71
2, 188718, Note_on_c, 1, 71, 63
2, 188722, Note_on_c, 1, 64, 78
2, 188727, Note_on_c, 1, 67, 66
2, 188732, Note_on_c, 1, 62, 68
2, 188900, Note_on_c, 1, 62, 0
2, 188924, Note_on_c, 1, 64, 0
2, 188950, Note_on_c, 1, 67, 0
2, 188964, Note_on_c, 1, 71, 0
2, 189201, Note_on_c, 1, 74, 63
2, 189206, Note_on_c, 1, 59, 83
2, 189215, Note_on_c, 1, 64, 69
2, 189218, Note_on_c, 1, 67, 64
2, 189220, Note_on_c, 1, 69, 50
2, 189235, Note_on_c, 1, 72, 29
2, 189246, Note_on_c, 1, 71, 46
2, 189276, Note_on_c, 1, 72, 0
2, 189301, Note_on_c, 1, 55, 0
2, 189393, Note_on_c, 1, 69, 0
2, 189569, Note_on_c, 1, 71, 0
2, 189569, Note_on_c, 1, 74, 0
2, 189609, Note_on_c, 1, 67, 0
2, 189636, Note_on_c, 1, 64, 0
2, 189636, Note_on_c, 1, 59, 0
2, 190093, Note_on_c, 1, 71, 74
2, 190099, Note_on_c, 1, 66, 76
2, 190101, Note_on_c, 1, 63, 79
2, 190106, Note_on_c, 1, 59, 77
2, 190107, Note_on_c, 1, 60, 81
2, 190129, Control_c, 1, 64, 0
2, 190601, Note_on_c, 1, 58, 81
2, 190622, Note_on_c, 1, 59, 0
2, 190755, Control_c, 1, 64, 127
2, 190847, Note_on_c, 1, 60, 0
2, 190847, Note_on_c, 1, 63, 0
2, 190894, Note_on_c, 1, 66, 0
2, 190956, Note_on_c, 1, 71, 0
2, 190979, Control_c, 1, 64, 0
2, 191042, Note_on_c, 1, 69, 61
2, 191043, Note_on_c, 1, 66, 65
2, 191050, Note_on_c, 1, 63, 63
2, 191052, Note_on_c, 1, 60, 64
2, 191053, Note_on_c, 1, 58, 0
2, 191058, Note_on_c, 1, 57, 67
2, 191345, Control_c, 1, 64, 127
2, 191436, Note_on_c, 1, 69, 0
2, 191515, Note_on_c, 1, 66, 0
2, 191516, Note_on_c, 1, 60, 0
2, 191550, Note_on_c, 1, 63, 0
2, 191591, Note_on_c, 1, 57, 0
2, 191946, Control_c, 1, 64, 0
2, 191964, Note_on_c, 1, 57, 41
2, 191968, Note_on_c, 1, 67, 49
2, 191974, Note_on_c, 1, 60, 41
2, 191978, Note_on_c, 1, 65, 55
2, 192001, Note_on_c, 1, 50, 36
2, 192358, Control_c, 1, 64, 127
2, 192508, Note_on_c, 1, 60, 0
2, 192539, Note_on_c, 1, 65, 0
2, 192541, Note_on_c, 1, 57, 0
2, 192573, Note_on_c, 1, 67, 0
2, 192819, Note_on_c, 1, 50, 0
2, 192941, Note_on_c, 1, 57, 50
2, 193120, Note_on_c, 1, 57, 0
2, 193246, Note_on_c, 1, 57, 38
2, 193349, Note_on_c, 1, 57, 0
2, 193473, Control_c, 1, 64, 0
2, 193586, Note_on_c, 1, 57, 35
2, 193589, Note_on_c, 1, 43, 32
2, 193590, Note_on_c, 1, 31, 31
2, 193600, Note_on_c, 1, 53, 30
2, 193603, Note_on_c, 1, 60, 34
2, 193872, Control_c, 1, 64, 127
2, 194160, Note_on_c, 1, 57, 0
2, 194162, Note_on_c, 1, 53, 0
2, 194182, Note_on_c, 1, 60, 0
2, 194185, Note_on_c, 1, 31, 0
2, 194229, Note_on_c, 1, 43, 0
2, 194315, Note_on_c, 1, 57, 40
2, 194457, Note_on_c, 1, 57, 0
2, 194574, Note_on_c, 1, 57, 47
2, 194698, Note_on_c, 1, 57, 0
2, 194872, Control_c, 1, 64, 0
2, 194897, Note_on_c, 1, 64, 60
2, 194915, Note_on_c, 1, 56, 55
2, 194928, Note_on_c, 1, 31, 30
2, 194929, Note_on_c, 1, 43, 34
2, 194939, Note_on_c, 1, 59, 45
2, 194967, Note_on_c, 1, 53, 19
2, 195235, Control_c, 1, 64, 127
2, 195473, Note_on_c, 1, 59, 0
2, 195534, Note_on_c, 1, 31, 0
2, 195537, Note_on_c, 1, 53, 0
2, 195587, Note_on_c, 1, 56, 0
2, 195643, Note_on_c, 1, 64, 0
2, 195644, Note_on_c, 1, 43, 0
2, 195737, Note_on_c, 1, 56, 46
2, 195885, Note_on_c, 1, 56, 0
2, 196002, Note_on_c, 1, 56, 45
2, 196135, Note_on_c, 1, 56, 0
2, 196354, Note_on_c, 1, 64, 59
2, 196363, Note_on_c, 1, 59, 55
2, 196364, Note_on_c, 1, 55, 45
2, 196373, Control_c, 1, 64, 0
2, 196384, Note_on_c, 1, 43, 47
2, 196686, Control_c, 1, 64, 127
2, 196801, Note_on_c, 1, 55, 0
2, 196825, Note_on_c, 1, 43, 0
2, 196850, Note_on_c, 1, 59, 0
2, 196857, Note_on_c, 1, 64, 0
2, 196966, Note_on_c, 1, 43, 8
2, 197138, Note_on_c, 1, 67, 41
2, 197151, Note_on_c, 1, 62, 46
2, 197255, Note_on_c, 1, 67, 0
2, 197268, Note_on_c, 1, 62, 0
2, 197436, Note_on_c, 1, 67, 66
2, 197441, Note_on_c, 1, 59, 50
2, 197444, Note_on_c, 1, 62, 66
2, 197510, Note_on_c, 1, 59, 0
2, 197549, Note_on_c, 1, 62, 0
2, 197567, Note_on_c, 1, 67, 0
2, 197763, Control_c, 1, 64, 0
2, 197765, Note_on_c, 1, 70, 75
2, 197773, Note_on_c, 1, 61, 84
2, 197778, Note_on_c, 1, 55, 82
2, 197788, Note_on_c, 1, 66, 73
2, 198088, Control_c, 1, 64, 127
2, 198503, Note_on_c, 1, 55, 0
2, 198543, Note_on_c, 1, 61, 0
2, 198578, Note_on_c, 1, 66, 0
2, 198669, Note_on_c, 1, 70, 0
2, 198769, Note_on_c, 1, 61, 62
2, 198781, Note_on_c, 1, 66, 59
2, 198786, Note_on_c, 1, 69, 58
2, 198800, Note_on_c, 1, 55, 45
2, 199109, Note_on_c, 1, 69, 0
2, 199116, Note_on_c, 1, 61, 0
2, 199159, Note_on_c, 1, 66, 0
2, 199210, Note_on_c, 1, 55, 0
2, 199362, Note_on_c, 1, 49, 28
2, 199583, Note_on_c, 1, 43, 0
2, 199689, Control_c, 1, 64, 0
2, 199720, Note_on_c, 1, 49, 0
2, 199724, Note_on_c, 1, 57, 46
2, 199725, Note_on_c, 1, 65, 52
2, 199735, Note_on_c, 1, 60, 41
2, 199746, Note_on_c, 1, 50, 41
2, 200027, Control_c, 1, 64, 127
2, 200229, Note_on_c, 1, 57, 0
2, 200252, Note_on_c, 1, 60, 0
2, 200675, Note_on_c, 1, 60, 39
2, 200679, Note_on_c, 1, 57, 47
2, 200714, Note_on_c, 1, 50, 0
2, 201107, Note_on_c, 1, 57, 0
2, 201287, Note_on_c, 1, 60, 0
2, 201311, Note_on_c, 1, 44, 33
2, 201334, Note_on_c, 1, 65, 0
2, 201450, Note_on_c, 1, 46, 52
2, 201530, Note_on_c, 1, 44, 0
2, 201537, Note_on_c, 1, 57, 49
2, 201541, Control_c, 1, 64, 0
2, 201542, Note_on_c, 1, 61, 39
2, 201575, Note_on_c, 1, 47, 38
2, 201587, Note_on_c, 1, 65, 25
2, 201622, Note_on_c, 1, 46, 0
2, 201663, Note_on_c, 1, 61, 0
2, 201691, Note_on_c, 1, 62, 40
2, 201954, Control_c, 1, 64, 127
2, 202257, Note_on_c, 1, 57, 0
2, 202403, Note_on_c, 1, 65, 0
2, 202410, Note_on_c, 1, 62, 0
2, 202528, Control_c, 1, 64, 0
2, 202551, Note_on_c, 1, 40, 36
2, 202562, Note_on_c, 1, 65, 36
2, 202563, Note_on_c, 1, 56, 37
2, 202577, Note_on_c, 1, 62, 44
2, 202658, Note_on_c, 1, 47, 0
2, 202790, Control_c, 1, 64, 127
2, 203027, Note_on_c, 1, 56, 0
2, 203373, Note_on_c, 1, 65, 0
2, 203387, Note_on_c, 1, 62, 0
2, 203467, Control_c, 1, 64, 0
2, 203514, Note_on_c, 1, 64, 40
2, 203520, Note_on_c, 1, 57, 39
2, 203547, Note_on_c, 1, 45, 33
2, 203549, Note_on_c, 1, 60, 38
2, 203587, Note_on_c, 1, 40, 0
2, 203716, Note_on_c, 1, 45, 0
2, 203765, Control_c, 1, 64, 127
2, 203909, Note_on_c, 1, 57, 0
2, 204022, Note_on_c, 1, 57, 74
2, 204233, Note_on_c, 1, 60, 0
2, 204359, Note_on_c, 1, 64, 0
2, 204398, Note_on_c, 1, 57, 0
2, 204488, Note_on_c, 1, 57, 54
2, 204489, Note_on_c, 1, 64, 59
2, 204493, Control_c, 1, 64, 0
2, 204494, Note_on_c, 1, 56, 74
2, 204496, Note_on_c, 1, 60, 59
2, 204795, Control_c, 1, 64, 127
2, 204927, Note_on_c, 1, 57, 0
2, 205123, Note_on_c, 1, 64, 0
2, 205157, Note_on_c, 1, 60, 0
2, 205369, Control_c, 1, 64, 0
2, 205414, Note_on_c, 1, 64, 84
2, 205417, Note_on_c, 1, 55, 64
2, 205419, Note_on_c, 1, 60, 78
2, 205426, Note_on_c, 1, 56, 0
2, 205757, Control_c, 1, 64, 127
2, 206246, Note_on_c, 1, 60, 0
2, 206274, Note_on_c, 1, 55, 0
2, 206295, Note_on_c, 1, 64, 0
2, 206403, Note_on_c, 1, 60, 60
2, 206407, Note_on_c, 1, 64, 54
2, 206417, Note_on_c, 1, 55, 42
2, 206578, Note_on_c, 1, 55, 0
2, 206924, Note_on_c, 1, 60, 0
2, 207142, Note_on_c, 1, 64, 0
2, 207258, Control_c, 1, 64, 0
2, 207357, Note_on_c, 1, 42, 34
2, 207366, Note_on_c, 1, 52, 33
2, 207369, Note_on_c, 1, 64, 44
2, 207383, Note_on_c, 1, 59, 36
2, 207520, Control_c, 1, 64, 127
2, 207675, Note_on_c, 1, 59, 0
2, 207706, Note_on_c, 1, 64, 0
2, 207776, Note_on_c, 1, 52, 0
2, 207806, Note_on_c, 1, 42, 0
2, 208333, Control_c, 1, 64, 0
2, 208459, Control_c, 1, 64, 127
2, 208783, Control_c, 1, 64, 0
2, 208808, Note_on_c, 1, 71, 39
2, 208812, Note_on_c, 1, 64, 54
2, 208818, Note_on_c, 1, 42, 42
2, 208818, Note_on_c, 1, 57, 38
2, 208970, Control_c, 1, 64, 127
2, 208972, Note_on_c, 1, 42, 0
2, 208993, Note_on_c, 1, 64, 0
2, 209032, Note_on_c, 1, 57, 0
2, 209053, Note_on_c, 1, 71, 0
2, 209284, Control_c, 1, 64, 0
2, 209317, Note_on_c, 1, 42, 43
2, 209322, Note_on_c, 1, 71, 41
2, 209324, Note_on_c, 1, 64, 59
2, 209335, Note_on_c, 1, 57, 46
2, 209433, Note_on_c, 1, 42, 0
2, 209460, Note_on_c, 1, 57, 0
2, 209460, Control_c, 1, 64, 127
2, 209626, Note_on_c, 1, 64, 0
2, 209707, Note_on_c, 1, 71, 0
2, 209795, Control_c, 1, 64, 0
2, 209822, Note_on_c, 1, 71, 44
2, 209844, Note_on_c, 1, 47, 28
2, 209848, Note_on_c, 1, 62, 44
2, 209858, Note_on_c, 1, 57, 33
2, 209862, Note_on_c, 1, 67, 53
2, 210035, Control_c, 1, 64, 127
2, 210069, Note_on_c, 1, 67, 0
2, 210097, Note_on_c, 1, 62, 0
2, 210126, Note_on_c, 1, 57, 0
2, 210137, Note_on_c, 1, 47, 0
2, 210181, Note_on_c, 1, 71, 0
2, 210197, Control_c, 1, 64, 0
2, 210301, Note_on_c, 1, 71, 49
2, 210317, Note_on_c, 1, 62, 54
2, 210320, Note_on_c, 1, 47, 31
2, 210325, Note_on_c, 1, 57, 43
2, 210354, Note_on_c, 1, 67, 35
2, 210411, Note_on_c, 1, 67, 0
2, 210422, Control_c, 1, 64, 127
2, 210427, Note_on_c, 1, 62, 0
2, 210627, Note_on_c, 1, 47, 0
2, 210783, Note_on_c, 1, 66, 48
2, 210785, Note_on_c, 1, 59, 40
2, 210791, Note_on_c, 1, 63, 44
2, 210795, Note_on_c, 1, 47, 33
2, 210875, Note_on_c, 1, 71, 0
2, 210896, Note_on_c, 1, 59, 0
2, 210917, Note_on_c, 1, 57, 0
2, 211012, Note_on_c, 1, 66, 0
2, 211134, Note_on_c, 1, 63, 0
2, 211186, Control_c, 1, 64, 0
2, 211231, Note_on_c, 1, 47, 0
2, 211232, Note_on_c, 1, 68, 53
2, 211243, Note_on_c, 1, 63, 52
2, 211248, Note_on_c, 1, 52, 46
2, 211258, Note_on_c, 1, 58, 33
2, 211473, Control_c, 1, 64, 127
2, 211870, Note_on_c, 1, 58, 0
2, 212042, Note_on_c, 1, 63, 0
2, 212095, Note_on_c, 1, 68, 0
2, 212148, Control_c, 1, 64, 0
2, 212155, Note_on_c, 1, 68, 25
2, 212159, Note_on_c, 1, 59, 51
2, 212173, Note_on_c, 1, 64, 54
2, 212178, Note_on_c, 1, 52, 0
2, 212179, Note_on_c, 1, 49, 40
2, 212411, Control_c, 1, 64, 127
2, 212603, Note_on_c, 1, 68, 0
2, 212678, Note_on_c, 1, 64, 0
2, 212738, Note_on_c, 1, 59, 0
2, 213024, Control_c, 1, 64, 0
2, 213079, Note_on_c, 1, 57, 47
2, 213080, Note_on_c, 1, 67, 47
2, 213081, Note_on_c, 1, 49, 0
2, 213089, Note_on_c, 1, 60, 35
2, 213090, Note_on_c, 1, 50, 51
2, 213300, Control_c, 1, 64, 127
2, 213473, Note_on_c, 1, 57, 0
2, 213653, Note_on_c, 1, 60, 0
2, 213769, Note_on_c, 1, 67, 0
2, 214012, Control_c, 1, 64, 0
2, 214012, Note_on_c, 1, 43, 26
2, 214014, Note_on_c, 1, 59, 36
2, 214029, Note_on_c, 1, 67, 44
2, 214030, Note_on_c, 1, 63, 34
2, 214041, Note_on_c, 1, 53, 27
2, 214054, Note_on_c, 1, 50, 0
2, 214249, Control_c, 1, 64, 127
2, 214253, Note_on_c, 1, 43, 0
2, 214419, Note_on_c, 1, 53, 0
2, 214517, Note_on_c, 1, 59, 0
2, 214588, Note_on_c, 1, 67, 0
2, 214590, Note_on_c, 1, 63, 0
2, 214966, Note_on_c, 1, 43, 24
2, 214976, Control_c, 1, 64, 0
2, 214995, Note_on_c, 1, 36, 26
2, 215018, Note_on_c, 1, 64, 45
2, 215022, Note_on_c, 1, 57, 26
2, 215023, Note_on_c, 1, 52, 40
2, 215033, Note_on_c, 1, 59, 28
2, 215046, Note_on_c, 1, 62, 46
2, 215300, Control_c, 1, 64, 127
2, 215670, Note_on_c, 1, 57, 0
2, 215715, Note_on_c, 1, 59, 0
2, 215848, Note_on_c, 1, 62, 0
2, 215958, Note_on_c, 1, 36, 0
2, 216028, Note_on_c, 1, 57, 44
2, 216029, Note_on_c, 1, 59, 42
2, 216053, Note_on_c, 1, 43, 0
2, 216170, Note_on_c, 1, 57, 0
2, 216194, Note_on_c, 1, 52, 0
2, 216279, Note_on_c, 1, 59, 0
2, 216339, Note_on_c, 1, 64, 0
2, 216939, Control_c, 1, 64, 0
2, 216950, Note_on_c, 1, 70, 62
2, 216954, Note_on_c, 1, 67, 71
2, 216955, Note_on_c, 1, 61, 74
2, 216973, Note_on_c, 1, 55, 60
2, 217240, Control_c, 1, 64, 127
2, 217399, Note_on_c, 1, 67, 0
2, 217483, Note_on_c, 1, 70, 0
2, 217528, Note_on_c, 1, 61, 0
2, 217891, Control_c, 1, 64, 0
2, 217910, Note_on_c, 1, 55, 0
2, 217917, Note_on_c, 1, 61, 45
2, 217919, Note_on_c, 1, 58, 51
2, 217926, Note_on_c, 1, 69, 42
2, 217931, Note_on_c, 1, 64, 56
2, 217945, Note_on_c, 1, 49, 42
2, 218164, Control_c, 1, 64, 127
2, 218278, Note_on_c, 1, 61, 0
2, 218284, Note_on_c, 1, 58, 0
2, 218299, Note_on_c, 1, 64, 0
2, 218619, Note_on_c, 1, 69, 0
2, 218803, Control_c, 1, 64, 0
2, 218837, Note_on_c, 1, 49, 0
2, 218858, Note_on_c, 1, 64, 54
2, 218878, Note_on_c, 1, 60, 40
2, 218886, Note_on_c, 1, 50, 37
2, 219165, Control_c, 1, 64, 127
2, 219321, Note_on_c, 1, 64, 0
2, 219373, Note_on_c, 1, 60, 0
2, 219792, Control_c, 1, 64, 0
2, 219808, Note_on_c, 1, 66, 47
2, 219813, Note_on_c, 1, 60, 49
2, 219817, Note_on_c, 1, 69, 49
2, 219829, Note_on_c, 1, 54, 43
2, 219858, Note_on_c, 1, 50, 0
2, 220066, Control_c, 1, 64, 127
2, 220239, Note_on_c, 1, 54, 0
2, 220367, Note_on_c, 1, 60, 0
2, 220536, Note_on_c, 1, 66, 0
2, 220643, Note_on_c, 1, 69, 0
2, 220730, Control_c, 1, 64, 0
2, 220782, Note_on_c, 1, 64, 54
2, 220785, Note_on_c, 1, 67, 52
2, 220788, Note_on_c, 1, 59, 44
2, 220805, Note_on_c, 1, 53, 42
2, 221142, Control_c, 1, 64, 127
2, 221512, Note_on_c, 1, 64, 0
2, 221563, Note_on_c, 1, 59, 0
2, 221689, Note_on_c, 1, 67, 0
2, 221705, Control_c, 1, 64, 0
2, 221767, Note_on_c, 1, 43, 35
2, 221795, Note_on_c, 1, 63, 33
2, 221796, Note_on_c, 1, 67, 35
2, 221804, Note_on_c, 1, 59, 30
2, 221966, Note_on_c, 1, 43, 0
2, 222043, Control_c, 1, 64, 127
2, 222122, Note_on_c, 1, 53, 0
2, 222219, Note_on_c, 1, 59, 0
2, 222375, Note_on_c, 1, 63, 0
2, 222511, Note_on_c, 1, 67, 0
2, 222641, Control_c, 1, 64, 0
2, 222701, Note_on_c, 1, 36, 27
2, 222711, Note_on_c, 1, 57, 40
2, 222725, Note_on_c, 1, 64, 42
2, 222728, Note_on_c, 1, 52, 36
2, 222733, Note_on_c, 1, 62, 44
2, 223249, Note_on_c, 1, 43, 60
2, 223256, Control_c, 1, 64, 127
2, 223305, Note_on_c, 1, 57, 0
2, 223561, Note_on_c, 1, 62, 0
2, 223736, Note_on_c, 1, 64, 0
2, 223780, Note_on_c, 1, 57, 54
2, 223830, Note_on_c, 1, 57, 0
2, 224043, Note_on_c, 1, 36, 0
2, 224184, Note_on_c, 1, 43, 0
2, 224261, Note_on_c, 1, 74, 74
2, 224271, Note_on_c, 1, 52, 0
2, 224472, Note_on_c, 1, 74, 0
2, 224720, Control_c, 1, 64, 0
2, 224721, Note_on_c, 1, 77, 76
2, 225183, Note_on_c, 1, 53, 43
2, 225246, Note_on_c, 1, 77, 0
2, 225283, Control_c, 1, 64, 127
2, 225645, Note_on_c, 1, 63, 55
2, 225665, Note_on_c, 1, 67, 54
2, 225670, Note_on_c, 1, 62, 50
2, 226137, Note_on_c, 1, 74, 68
2, 226276, Note_on_c, 1, 62, 0
2, 226363, Note_on_c, 1, 63, 0
2, 226416, Note_on_c, 1, 74, 0
2, 226485, Note_on_c, 1, 67, 0
2, 226560, Control_c, 1, 64, 0
2, 226593, Note_on_c, 1, 71, 42
2, 226633, Note_on_c, 1, 67, 52
2, 226635, Note_on_c, 1, 62, 55
2, 226794, Note_on_c, 1, 53, 0
2, 227101, Note_on_c, 1, 52, 47
2, 227387, Note_on_c, 1, 62, 0
2, 227497, Control_c, 1, 64, 127
2, 227509, Control_c, 1, 64, 0
2, 227522, Control_c, 1, 64, 127
2, 227579, Note_on_c, 1, 67, 0
2, 227597, Note_on_c, 1, 59, 34
2, 227916, Note_on_c, 1, 59, 0
2, 227997, Note_on_c, 1, 52, 0
2, 228057, Note_on_c, 1, 62, 49
2, 228106, Note_on_c, 1, 71, 0
2, 228201, Note_on_c, 1, 62, 0
2, 228422, Control_c, 1, 64, 0
2, 228540, Note_on_c, 1, 61, 36
2, 228544, Note_on_c, 1, 70, 35
2, 228548, Note_on_c, 1, 66, 42
2, 228559, Note_on_c, 1, 55, 39
2, 228872, Control_c, 1, 64, 127
2, 229479, Note_on_c, 1, 45, 45
2, 229581, Note_on_c, 1, 55, 0
2, 229756, Note_on_c, 1, 61, 0
2, 229951, Note_on_c, 1, 66, 0
2, 229969, Note_on_c, 1, 70, 0
2, 230023, Note_on_c, 1, 45, 0
2, 230424, Note_on_c, 1, 69, 43
2, 230439, Note_on_c, 1, 65, 45
2, 230440, Note_on_c, 1, 60, 28
2, 230455, Note_on_c, 1, 50, 31
2, 230548, Control_c, 1, 64, 0
2, 230742, Note_on_c, 1, 65, 0
2, 230743, Note_on_c, 1, 69, 0
2, 230749, Control_c, 1, 64, 127
2, 230766, Note_on_c, 1, 50, 0
2, 230830, Note_on_c, 1, 60, 0
2, 231380, Note_on_c, 1, 57, 48
2, 231386, Note_on_c, 1, 65, 55
2, 231391, Note_on_c, 1, 45, 37
2, 231401, Note_on_c, 1, 60, 35
2, 231688, Note_on_c, 1, 60, 0
2, 231783, Note_on_c, 1, 57, 0
2, 231858, Note_on_c, 1, 65, 0
2, 232348, Note_on_c, 1, 50, 27
2, 232364, Note_on_c, 1, 57, 32
2, 232365, Note_on_c, 1, 60, 35
2, 232383, Note_on_c, 1, 53, 22
2, 232445, Note_on_c, 1, 45, 0
2, 232449, Note_on_c, 1, 50, 0
2, 232762, Note_on_c, 1, 57, 0
2, 232888, Note_on_c, 1, 53, 0
2, 232922, Note_on_c, 1, 60, 0
2, 233084, Note_on_c, 1, 42, 45
2, 233207, Note_on_c, 1, 43, 58
2, 233275, Note_on_c, 1, 42, 0
2, 233301, Control_c, 1, 64, 0
2, 233333, Note_on_c, 1, 43, 0
2, 233349, Note_on_c, 1, 44, 69
2, 233365, Note_on_c, 1, 54, 49
2, 233368, Note_on_c, 1, 65, 59
2, 233376, Note_on_c, 1, 60, 44
2, 233702, Control_c, 1, 64, 127
2, 233836, Note_on_c, 1, 65, 0
2, 233899, Note_on_c, 1, 60, 0
2, 233905, Note_on_c, 1, 54, 0
2, 234071, Note_on_c, 1, 44, 0
2, 234126, Control_c, 1, 64, 0
2, 234128, Note_on_c, 1, 42, 37
2, 234251, Note_on_c, 1, 64, 57
2, 234256, Note_on_c, 1, 53, 41
2, 234257, Note_on_c, 1, 59, 43
2, 234272, Note_on_c, 1, 43, 37
2, 234329, Note_on_c, 1, 42, 0
2, 234814, Control_c, 1, 64, 127
2, 235127, Control_c, 1, 64, 0
2, 235150, Note_on_c, 1, 31, 79
2, 235467, Control_c, 1, 64, 127
2, 235619, Note_on_c, 1, 53, 0
2, 235719, Note_on_c, 1, 43, 0
2, 235759, Note_on_c, 1, 64, 0
2, 235779, Note_on_c, 1, 59, 0
2, 235953, Control_c, 1, 64, 0
2, 236108, Note_on_c, 1, 64, 71
2, 236116, Note_on_c, 1, 59, 68
2, 236119, Note_on_c, 1, 43, 51
2, 236128, Note_on_c, 1, 53, 58
2, 236153, Control_c, 1, 64, 127
2, 236307, Note_on_c, 1, 53, 0
2, 236414, Note_on_c, 1, 59, 0
2, 236444, Note_on_c, 1, 31, 0
2, 236444, Note_on_c, 1, 64, 0
2, 236646, Note_on_c, 1, 43, 0
2, 237017, Control_c, 1, 64, 0
2, 237059, Note_on_c, 1, 41, 68
2, 237060, Note_on_c, 1, 29, 59
2, 237072, Note_on_c, 1, 74, 72
2, 237075, Note_on_c, 1, 67, 80
2, 237077, Note_on_c, 1, 62, 87
2, 237095, Note_on_c, 1, 72, 52
2, 237139, Note_on_c, 1, 72, 0
2, 237316, Control_c, 1, 64, 127
2, 237377, Note_on_c, 1, 74, 0
2, 237409, Note_on_c, 1, 67, 0
2, 237467, Note_on_c, 1, 62, 0
2, 237543, Note_on_c, 1, 41, 0
2, 237566, Note_on_c, 1, 29, 0
2, 237955, Control_c, 1, 64, 0
2, 238051, Note_on_c, 1, 28, 53
2, 238056, Note_on_c, 1, 62, 76
2, 238058, Note_on_c, 1, 67, 72
2, 238068, Note_on_c, 1, 55, 64
2, 238079, Note_on_c, 1, 40, 39
2, 238180, Control_c, 1, 64, 127
2, 238225, Note_on_c, 1, 55, 0
2, 238259, Note_on_c, 1, 28, 0
2, 238316, Note_on_c, 1, 62, 0
2, 238342, Note_on_c, 1, 40, 0
2, 238352, Note_on_c, 1, 67, 0
2, 239063, Note_on_c, 1, 79, 81
2, 239065, Note_on_c, 1, 74, 83
2, 239066, Note_on_c, 1, 59, 74
2, 239067, Note_on_c, 1, 67, 91
2, 239072, Note_on_c, 1, 52, 73
2, 239080, Note_on_c, 1, 62, 88
2, 239081, Note_on_c, 1, 55, 52
2, 239347, Note_on_c, 1, 67, 0
2, 239357, Note_on_c, 1, 52, 0
2, 239360, Note_on_c, 1, 62, 0
2, 239448, Note_on_c, 1, 74, 0
2, 239479, Note_on_c, 1, 55, 0
2, 239487, Note_on_c, 1, 79, 0
2, 239514, Note_on_c, 1, 59, 0
2, 239997, Control_c, 1, 64, 0
2, 240041, Note_on_c, 1, 91, 92
2, 240043, Note_on_c, 1, 52, 83
2, 240044, Note_on_c, 1, 59, 85
2, 240047, Note_on_c, 1, 86, 88
2, 240048, Note_on_c, 1, 79, 88
2, 240049, Note_on_c, 1, 62, 94
2, 240051, Note_on_c, 1, 55, 65
2, 240253, Control_c, 1, 64, 127
2, 240431, Note_on_c, 1, 52, 0
2, 240447, Note_on_c, 1, 62, 0
2, 240474, Note_on_c, 1, 55, 0
2, 240477, Note_on_c, 1, 91, 0
2, 240484, Note_on_c, 1, 59, 0
2, 240489, Note_on_c, 1, 79, 0
2, 240504, Note_on_c, 1, 86, 0
2, 240541, Control_c, 1, 64, 0
2, 240559, Note_on_c, 1, 62, 79
2, 240564, Note_on_c, 1, 59, 73
2, 240571, Note_on_c, 1, 55, 55
2, 240571, Note_on_c, 1, 52, 53
2, 240584, Note_on_c, 1, 91, 68
2, 240591, Note_on_c, 1, 86, 72
2, 240594, Note_on_c, 1, 79, 64
2, 240625, Note_on_c, 1, 52, 0
2, 240631, Note_on_c, 1, 62, 0
2, 240668, Note_on_c, 1, 59, 0
2, 240681, Note_on_c, 1, 86, 0
2, 240683, Note_on_c, 1, 55, 0
2, 240686, Note_on_c, 1, 91, 0
2, 240686, Note_on_c, 1, 79, 0
2, 241101, Control_c, 1, 64, 127
2, 241472, Note_on_c, 1, 86, 68
2, 241473, Note_on_c, 1, 62, 57
2, 241476, Note_on_c, 1, 59, 36
2, 241485, Note_on_c, 1, 55, 36
2, 241485, Note_on_c, 1, 81, 62
2, 241490, Note_on_c, 1, 74, 55
2, 241586, Note_on_c, 1, 81, 0
2, 241586, Note_on_c, 1, 62, 0
2, 241587, Note_on_c, 1, 55, 0
2, 241607, Note_on_c, 1, 59, 0
2, 241609, Note_on_c, 1, 86, 0
2, 241627, Note_on_c, 1, 74, 0
2, 241891, Control_c, 1, 64, 0
2, 241975, Note_on_c, 1, 72, 36
2, 241980, Note_on_c, 1, 77, 51
2, 241984, Note_on_c, 1, 61, 45
2, 241985, Note_on_c, 1, 84, 33
2, 241989, Note_on_c, 1, 55, 37
2, 241991, Note_on_c, 1, 65, 54
2, 241996, Note_on_c, 1, 81, 30
2, 242082, Control_c, 1, 64, 127
2, 242300, Note_on_c, 1, 84, 0
2, 242337, Note_on_c, 1, 81, 0
2, 242368, Note_on_c, 1, 77, 0
2, 242406, Note_on_c, 1, 72, 0
2, 242515, Note_on_c, 1, 65, 0
2, 242778, Note_on_c, 1, 61, 0
2, 243268, Note_on_c, 1, 57, 35
2, 243304, Note_on_c, 1, 58, 48
2, 243308, Control_c, 1, 64, 0
2, 243322, Note_on_c, 1, 55, 0
2, 243345, Note_on_c, 1, 57, 0
2, 243354, Note_on_c, 1, 58, 0
2, 243359, Note_on_c, 1, 59, 48
2, 243369, Note_on_c, 1, 75, 54
2, 243388, Note_on_c, 1, 72, 44
2, 243407, Note_on_c, 1, 66, 47
2, 243416, Note_on_c, 1, 69, 28
2, 243421, Note_on_c, 1, 60, 32
2, 243483, Control_c, 1, 64, 127
2, 243504, Note_on_c, 1, 59, 0
2, 243601, Note_on_c, 1, 69, 0
2, 243609, Note_on_c, 1, 72, 0
2, 243616, Note_on_c, 1, 75, 0
2, 243690, Note_on_c, 1, 60, 0
2, 243699, Note_on_c, 1, 66, 0
2, 243835, Control_c, 1, 64, 0
2, 244008, Control_c, 1, 64, 127
2, 244430, Note_on_c, 1, 76, 75
2, 244441, Note_on_c, 1, 64, 83
2, 244444, Note_on_c, 1, 70, 71
2, 244445, Note_on_c, 1, 67, 77
2, 244456, Note_on_c, 1, 73, 50
2, 244506, Note_on_c, 1, 74, 25
2, 244547, Control_c, 1, 64, 0
2, 244684, Control_c, 1, 64, 127
2, 244693, Note_on_c, 1, 74, 0
2, 244746, Note_on_c, 1, 76, 0
2, 244758, Note_on_c, 1, 70, 0
2, 244781, Note_on_c, 1, 67, 0
2, 244798, Note_on_c, 1, 73, 0
2, 244900, Note_on_c, 1, 73, 33
2, 244910, Note_on_c, 1, 70, 49
2, 244915, Note_on_c, 1, 67, 47
2, 244922, Note_on_c, 1, 61, 57
2, 244974, Note_on_c, 1, 64, 0
2, 245316, Note_on_c, 1, 61, 0
2, 245330, Note_on_c, 1, 67, 0
2, 245411, Note_on_c, 1, 58, 59
2, 245597, Note_on_c, 1, 70, 0
2, 245737, Note_on_c, 1, 73, 0
2, 245819, Note_on_c, 1, 58, 0
2, 245823, Control_c, 1, 64, 0
2, 245855, Note_on_c, 1, 76, 66
2, 245866, Note_on_c, 1, 69, 60
2, 245869, Note_on_c, 1, 60, 59
2, 245871, Note_on_c, 1, 65, 68
2, 245875, Note_on_c, 1, 72, 51
2, 246098, Control_c, 1, 64, 127
2, 246353, Note_on_c, 1, 50, 51
2, 246610, Note_on_c, 1, 60, 0
2, 246629, Note_on_c, 1, 76, 0
2, 246641, Note_on_c, 1, 65, 0
2, 246659, Note_on_c, 1, 69, 0
2, 246697, Note_on_c, 1, 72, 0
2, 246834, Note_on_c, 1, 74, 50
2, 246836, Note_on_c, 1, 60, 42
2, 246848, Note_on_c, 1, 69, 46
2, 246856, Note_on_c, 1, 65, 42
2, 247172, Note_on_c, 1, 50, 0
2, 247319, Note_on_c, 1, 69, 0
2, 247325, Note_on_c, 1, 50, 34
2, 247326, Note_on_c, 1, 74, 0
2, 247341, Note_on_c, 1, 65, 0
2, 247396, Note_on_c, 1, 60, 0
2, 247751, Note_on_c, 1, 72, 36
2, 247755, Note_on_c, 1, 60, 39
2, 247775, Note_on_c, 1, 65, 44
2, 247778, Note_on_c, 1, 69, 35
2, 247793, Note_on_c, 1, 62, 34
2, 247999, Note_on_c, 1, 60, 0
2, 248028, Note_on_c, 1, 69, 0
2, 248035, Note_on_c, 1, 72, 0
2, 248075, Note_on_c, 1, 62, 0
2, 248118, Note_on_c, 1, 65, 0
2, 248292, Note_on_c, 1, 50, 0
2, 248676, Note_on_c, 1, 69, 31
2, 248688, Note_on_c, 1, 60, 25
2, 248704, Note_on_c, 1, 62, 45
2, 248708, Note_on_c, 1, 65, 40
2, 248883, Note_on_c, 1, 69, 0
2, 248919, Note_on_c, 1, 65, 0
2, 248949, Note_on_c, 1, 62, 0
2, 248961, Note_on_c, 1, 60, 0
2, 249612, Note_on_c, 1, 31, 31
2, 249620, Note_on_c, 1, 64, 26
2, 249622, Note_on_c, 1, 57, 27
2, 249623, Note_on_c, 1, 43, 26
2, 249643, Note_on_c, 1, 60, 32
2, 249649, Note_on_c, 1, 53, 27
2, 249714, Control_c, 1, 64, 0
2, 249956, Note_on_c, 1, 64, 0
2, 249958, Note_on_c, 1, 57, 0
2, 249961, Note_on_c, 1, 60, 0
2, 249962, Note_on_c, 1, 53, 0
2, 249968, Note_on_c, 1, 31, 0
2, 250011, Note_on_c, 1, 43, 0
2, 250167, Note_on_c, 1, 64, 31
2, 250182, Note_on_c, 1, 57, 36
2, 250182, Note_on_c, 1, 43, 22
2, 250187, Note_on_c, 1, 31, 20
2, 250206, Note_on_c, 1, 60, 28
2, 250214, Note_on_c, 1, 53, 17
2, 250295, Note_on_c, 1, 53, 0
2, 250309, Note_on_c, 1, 60, 0
2, 250317, Note_on_c, 1, 57, 0
2, 250327, Note_on_c, 1, 31, 0
2, 250333, Note_on_c, 1, 43, 0
2, 250340, Note_on_c, 1, 64, 0
2, 251189, Control_c, 1, 64, 127
2, 251501, Control_c, 1, 64, 0
2, 251575, Note_on_c, 1, 31, 24
2, 251577, Note_on_c, 1, 64, 31
2, 251583, Note_on_c, 1, 61, 21
2, 251587, Note_on_c, 1, 57, 32
2, 251606, Note_on_c, 1, 43, 18
2, 251628, Note_on_c, 1, 53, 29
2, 251702, Control_c, 1, 64, 127
2, 252289, Note_on_c, 1, 53, 0
2, 252333, Note_on_c, 1, 57, 0
2, 252395, Note_on_c, 1, 61, 0
2, 252396, Note_on_c, 1, 43, 0
2, 252432, Note_on_c, 1, 64, 0
2, 252584, Note_on_c, 1, 31, 0
2, 253007, Note_on_c, 1, 64, 49
2, 253263, Note_on_c, 1, 64, 0
2, 253492, Control_c, 1, 64, 0
2, 253508, Note_on_c, 1, 57, 28
2, 253542, Note_on_c, 1, 59, 28
2, 253545, Note_on_c, 1, 62, 36
2, 253568, Note_on_c, 1, 36, 22
2, 253867, Control_c, 1, 64, 127
2, 253958, Note_on_c, 1, 57, 0
2, 253972, Note_on_c, 1, 59, 0
2, 253985, Note_on_c, 1, 43, 35
2, 254000, Note_on_c, 1, 62, 0
2, 254468, Note_on_c, 1, 52, 37
2, 254480, Note_on_c, 1, 57, 38
2, 254487, Note_on_c, 1, 67, 40
2, 254490, Note_on_c, 1, 62, 45
2, 256598, Note_on_c, 1, 57, 0
2, 256605, Note_on_c, 1, 62, 0
2, 256704, Note_on_c, 1, 67, 0
2, 256774, Note_on_c, 1, 52, 0
2, 256780, Note_on_c, 1, 43, 0
2, 256801, Note_on_c, 1, 36, 0
2, 256931, Control_c, 1, 64, 0
2, 256931, End_track
3, 0, Start_track
3, 0, Title_t, "Piano"
3, 0, Control_c, 0, 64, 127
3, 0, Control_c, 0, 64, 0
3, 17, Note_on_c, 0, 88, 64
3, 47, Note_on_c, 0, 64, 53
3, 646, Note_on_c, 0, 88, 0
3, 658, Note_on_c, 0, 63, 37
3, 685, Note_on_c, 0, 64, 0
3, 738, Note_on_c, 0, 87, 20
3, 1005, Note_on_c, 0, 87, 0
3, 1035, Note_on_c, 0, 64, 47
3, 1035, Note_on_c, 0, 88, 49
3, 1039, Note_on_c, 0, 63, 0
3, 2544, Note_on_c, 0, 88, 0
3, 2563, Note_on_c, 0, 63, 80
3, 2583, Note_on_c, 0, 87, 83
3, 2628, Note_on_c, 0, 64, 0
3, 3317, Note_on_c, 0, 64, 74
3, 3318, Note_on_c, 0, 87, 0
3, 3324, Note_on_c, 0, 88, 73
3, 3329, Note_on_c, 0, 63, 0
3, 3536, Note_on_c, 0, 88, 0
3, 3578, Note_on_c, 0, 63, 60
3, 3579, Note_on_c, 0, 87, 58
3, 3601, Note_on_c, 0, 64, 0
3, 3773, Note_on_c, 0, 87, 0
3, 3792, Note_on_c, 0, 64, 58
3, 3797, Note_on_c, 0, 88, 67
3, 3968, Note_on_c, 0, 63, 0
3, 3987, Note_on_c, 0, 88, 0
3, 4017, Note_on_c, 0, 64, 0
3, 4077, Note_on_c, 0, 93, 73
3, 4079, Note_on_c, 0, 69, 53
3, 4422, Note_on_c, 0, 93, 0
3, 4469, Note_on_c, 0, 69, 0
3, 4552, Note_on_c, 0, 93, 59
3, 4571, Note_on_c, 0, 69, 46
3, 4794, Note_on_c, 0, 93, 0
3, 4814, Note_on_c, 0, 69, 0
3, 4960, Note_on_c, 0, 69, 35
3, 4962, Note_on_c, 0, 93, 58
3, 5121, Note_on_c, 0, 93, 0
3, 5185, Note_on_c, 0, 92, 33
3, 5217, Note_on_c, 0, 69, 0
3, 5236, Note_on_c, 0, 68, 34
3, 5400, Note_on_c, 0, 92, 0
3, 5455, Note_on_c, 0, 93, 52
3, 5457, Note_on_c, 0, 68, 0
3, 5479, Note_on_c, 0, 69, 41
3, 6414, Note_on_c, 0, 69, 0
3, 6736, Note_on_c, 0, 93, 0
3, 8386, Note_on_c, 0, 75, 76
3, 8619, Note_on_c, 0, 75, 0
3, 8711, Note_on_c, 0, 76, 36
3, 8870, Note_on_c, 0, 76, 0
3, 9015, Note_on_c, 0, 79, 24
3, 9086, Note_on_c, 0, 79, 0
3, 9265, Note_on_c, 0, 84, 65
3, 9457, Note_on_c, 0, 84, 0
3, 9620, Note_on_c, 0, 89, 78
3, 9850, Note_on_c, 0, 89, 0
3, 10212, Note_on_c, 0, 88, 71
3, 10424, Note_on_c, 0, 88, 0
3, 10630, Note_on_c, 0, 86, 60
3, 10705, Note_on_c, 0, 86, 0
3, 11187, Note_on_c, 0, 81, 52
3, 11339, Note_on_c, 0, 81, 0
3, 11551, Note_on_c, 0, 62, 17
3, 11552, Note_on_c, 0, 79, 30
3, 11567, Note_on_c, 0, 55, 22
3, 11571, Note_on_c, 0, 59, 22
3, 11618, Note_on_c, 0, 52, 7
3, 12722, Note_on_c, 0, 79, 0
3, 13001, Note_on_c, 0, 62, 0
3, 13110, Note_on_c, 0, 59, 0
3, 13215, Note_on_c, 0, 55, 0
3, 13216, Note_on_c, 0, 52, 0
3, 13309, Note_on_c, 0, 60, 52
3, 13438, Note_on_c, 0, 60, 0
3, 13439, Note_on_c, 0, 61, 67
3, 13548, Note_on_c, 0, 63, 64
3, 13568, Note_on_c, 0, 61, 0
3, 13651, Note_on_c, 0, 63, 0
3, 13679, Note_on_c, 0, 64, 67
3, 13779, Note_on_c, 0, 64, 0
3, 13794, Note_on_c, 0, 66, 71
3, 13883, Note_on_c, 0, 66, 0
3, 13923, Note_on_c, 0, 67, 66
3, 14041, Note_on_c, 0, 69, 42
3, 14056, Note_on_c, 0, 67, 0
3, 14144, Note_on_c, 0, 70, 62
3, 14149, Note_on_c, 0, 69, 0
3, 14220, Note_on_c, 0, 70, 0
3, 14277, Note_on_c, 0, 72, 48
3, 14373, Note_on_c, 0, 73, 42
3, 14374, Note_on_c, 0, 72, 0
3, 14454, Note_on_c, 0, 75, 36
3, 14461, Note_on_c, 0, 73, 0
3, 14485, Note_on_c, 0, 61, 25
3, 14532, Note_on_c, 0, 64, 24
3, 14546, Note_on_c, 0, 55, 25
3, 14560, Note_on_c, 0, 76, 59
3, 14579, Note_on_c, 0, 75, 0
3, 14718, Note_on_c, 0, 76, 0
3, 14775, Note_on_c, 0, 79, 73
3, 14967, Note_on_c, 0, 79, 0
3, 15028, Note_on_c, 0, 77, 71
3, 15174, Note_on_c, 0, 64, 0
3, 15213, Note_on_c, 0, 61, 0
3, 15236, Note_on_c, 0, 77, 0
3, 15238, Note_on_c, 0, 55, 0
3, 15268, Note_on_c, 0, 76, 67
3, 15299, Note_on_c, 0, 77, 17
3, 15409, Note_on_c, 0, 77, 0
3, 15461, Note_on_c, 0, 76, 0
3, 15531, Note_on_c, 0, 72, 41
3, 15772, Note_on_c, 0, 72, 0
3, 15810, Note_on_c, 0, 69, 37
3, 15976, Note_on_c, 0, 69, 0
3, 16065, Note_on_c, 0, 67, 56
3, 16366, Note_on_c, 0, 67, 0
3, 16378, Note_on_c, 0, 65, 44
3, 16766, Note_on_c, 0, 65, 0
3, 17012, Note_on_c, 0, 64, 38
3, 17130, Note_on_c, 0, 64, 0
3, 17932, Note_on_c, 0, 80, 71
3, 17938, Note_on_c, 0, 56, 77
3, 17939, Note_on_c, 0, 68, 69
3, 18222, Note_on_c, 0, 68, 0
3, 18243, Note_on_c, 0, 80, 0
3, 18288, Note_on_c, 0, 57, 70
3, 18298, Note_on_c, 0, 81, 58
3, 18309, Note_on_c, 0, 69, 40
3, 18313, Note_on_c, 0, 56, 0
3, 18459, Note_on_c, 0, 69, 0
3, 18464, Note_on_c, 0, 81, 0
3, 18592, Note_on_c, 0, 80, 44
3, 18602, Note_on_c, 0, 57, 0
3, 18605, Note_on_c, 0, 68, 44
3, 18607, Note_on_c, 0, 56, 47
3, 18807, Note_on_c, 0, 68, 0
3, 18814, Note_on_c, 0, 80, 0
3, 18902, Note_on_c, 0, 57, 64
3, 18904, Note_on_c, 0, 81, 54
3, 18922, Note_on_c, 0, 69, 36
3, 18975, Note_on_c, 0, 56, 0
3, 19020, Note_on_c, 0, 81, 0
3, 19039, Note_on_c, 0, 57, 0
3, 19069, Note_on_c, 0, 69, 0
3, 19269, Note_on_c, 0, 59, 54
3, 19272, Note_on_c, 0, 64, 51
3, 19291, Note_on_c, 0, 53, 41
3, 19884, Note_on_c, 0, 76, 64
3, 20161, Note_on_c, 0, 76, 0
3, 20246, Note_on_c, 0, 75, 56
3, 20514, Note_on_c, 0, 53, 0
3, 20867, Note_on_c, 0, 53, 26
3, 20886, Note_on_c, 0, 64, 0
3, 20956, Note_on_c, 0, 75, 0
3, 21027, Note_on_c, 0, 53, 0
3, 21202, Note_on_c, 0, 74, 48
3, 21215, Note_on_c, 0, 62, 32
3, 21219, Note_on_c, 0, 65, 22
3, 21232, Note_on_c, 0, 68, 25
3, 21233, Note_on_c, 0, 53, 24
3, 21519, Note_on_c, 0, 65, 0
3, 21545, Note_on_c, 0, 68, 0
3, 21555, Note_on_c, 0, 53, 0
3, 21770, Note_on_c, 0, 62, 0
3, 21887, Note_on_c, 0, 74, 0
3, 21901, Note_on_c, 0, 59, 0
3, 22148, Note_on_c, 0, 59, 16
3, 22170, Note_on_c, 0, 62, 20
3, 22184, Note_on_c, 0, 53, 18
3, 22381, Note_on_c, 0, 62, 0
3, 22429, Note_on_c, 0, 53, 0
3, 22437, Note_on_c, 0, 59, 0
3, 22797, Note_on_c, 0, 74, 53
3, 22910, Note_on_c, 0, 74, 0
3, 23166, Note_on_c, 0, 79, 58
3, 23171, Note_on_c, 0, 59, 28
3, 23172, Note_on_c, 0, 55, 32
3, 23186, Note_on_c, 0, 62, 27
3, 23241, Note_on_c, 0, 62, 0
3, 23275, Note_on_c, 0, 79, 0
3, 23277, Note_on_c, 0, 59, 0
3, 23282, Note_on_c, 0, 55, 0
3, 23457, Note_on_c, 0, 67, 47
3, 23605, Note_on_c, 0, 67, 0
3, 24143, Note_on_c, 0, 55, 27
3, 24281, Note_on_c, 0, 55, 0
3, 25364, Note_on_c, 0, 65, 32
3, 25450, Note_on_c, 0, 65, 0
3, 25540, Note_on_c, 0, 70, 69
3, 25764, Note_on_c, 0, 63, 53
3, 25766, Note_on_c, 0, 75, 64
3, 25797, Note_on_c, 0, 58, 50
3, 25821, Note_on_c, 0, 70, 0
3, 25852, Note_on_c, 0, 53, 13
3, 25903, Note_on_c, 0, 75, 0
3, 26003, Note_on_c, 0, 77, 68
3, 26149, Note_on_c, 0, 77, 0
3, 26226, Note_on_c, 0, 82, 79
3, 26227, Note_on_c, 0, 53, 0
3, 26322, Note_on_c, 0, 63, 0
3, 26349, Note_on_c, 0, 58, 0
3, 26407, Note_on_c, 0, 82, 0
3, 26438, Note_on_c, 0, 87, 79
3, 26463, Note_on_c, 0, 82, 30
3, 26596, Note_on_c, 0, 82, 0
3, 26652, Note_on_c, 0, 87, 0
3, 26684, Note_on_c, 0, 89, 72
3, 26874, Note_on_c, 0, 89, 0
3, 26920, Note_on_c, 0, 56, 35
3, 27000, Note_on_c, 0, 91, 84
3, 27152, Note_on_c, 0, 56, 0
3, 27216, Note_on_c, 0, 91, 0
3, 27313, Note_on_c, 0, 89, 64
3, 27483, Note_on_c, 0, 89, 0
3, 27563, Note_on_c, 0, 84, 66
3, 27769, Note_on_c, 0, 84, 0
3, 27797, Note_on_c, 0, 79, 38
3, 27805, Note_on_c, 0, 63, 29
3, 27816, Note_on_c, 0, 67, 26
3, 27832, Note_on_c, 0, 56, 21
3, 27965, Note_on_c, 0, 67, 0
3, 27966, Note_on_c, 0, 79, 0
3, 28070, Note_on_c, 0, 91, 73
3, 28265, Note_on_c, 0, 63, 0
3, 28307, Note_on_c, 0, 89, 58
3, 28359, Note_on_c, 0, 91, 0
3, 28360, Note_on_c, 0, 56, 0
3, 28480, Note_on_c, 0, 89, 0
3, 28564, Note_on_c, 0, 87, 58
3, 28816, Note_on_c, 0, 87, 0
3, 28816, Note_on_c, 0, 79, 38
3, 28862, Note_on_c, 0, 59, 35
3, 28867, Note_on_c, 0, 63, 36
3, 28921, Note_on_c, 0, 53, 20
3, 28953, Note_on_c, 0, 79, 0
3, 29110, Note_on_c, 0, 94, 71
3, 29117, Note_on_c, 0, 63, 0
3, 29295, Note_on_c, 0, 94, 0
3, 29354, Note_on_c, 0, 92, 47
3, 29456, Note_on_c, 0, 53, 0
3, 29535, Note_on_c, 0, 92, 0
3, 29606, Note_on_c, 0, 87, 38
3, 29829, Note_on_c, 0, 83, 44
3, 29854, Note_on_c, 0, 63, 34
3, 29899, Note_on_c, 0, 53, 29
3, 29938, Note_on_c, 0, 87, 0
3, 29993, Note_on_c, 0, 83, 0
3, 30088, Note_on_c, 0, 94, 69
3, 30251, Note_on_c, 0, 63, 0
3, 30258, Note_on_c, 0, 94, 0
3, 30308, Note_on_c, 0, 92, 57
3, 30331, Note_on_c, 0, 59, 0
3, 30385, Note_on_c, 0, 53, 0
3, 30527, Note_on_c, 0, 87, 37
3, 30536, Note_on_c, 0, 92, 0
3, 30756, Note_on_c, 0, 83, 35
3, 30914, Note_on_c, 0, 59, 22
3, 30916, Note_on_c, 0, 62, 29
3, 30932, Note_on_c, 0, 52, 22
3, 30934, Note_on_c, 0, 83, 0
3, 30935, Note_on_c, 0, 55, 24
3, 30955, Note_on_c, 0, 87, 0
3, 30994, Note_on_c, 0, 88, 61
3, 31991, Note_on_c, 0, 55, 0
3, 32006, Note_on_c, 0, 52, 0
3, 32023, Note_on_c, 0, 59, 0
3, 32138, Note_on_c, 0, 62, 0
3, 32369, Note_on_c, 0, 88, 0
3, 33282, Note_on_c, 0, 75, 86
3, 33285, Note_on_c, 0, 63, 77
3, 33539, Note_on_c, 0, 75, 0
3, 33623, Note_on_c, 0, 64, 66
3, 33624, Note_on_c, 0, 76, 74
3, 33649, Note_on_c, 0, 63, 0
3, 33878, Note_on_c, 0, 76, 0
3, 33911, Note_on_c, 0, 63, 52
3, 33926, Note_on_c, 0, 75, 38
3, 33940, Note_on_c, 0, 64, 0
3, 34144, Note_on_c, 0, 75, 0
3, 34225, Note_on_c, 0, 76, 53
3, 34230, Note_on_c, 0, 63, 0
3, 34231, Note_on_c, 0, 64, 55
3, 34357, Note_on_c, 0, 76, 0
3, 34363, Note_on_c, 0, 64, 0
3, 34567, Note_on_c, 0, 72, 52
3, 34584, Note_on_c, 0, 75, 38
3, 34585, Note_on_c, 0, 69, 42
3, 34590, Note_on_c, 0, 81, 38
3, 34597, Note_on_c, 0, 78, 34
3, 34810, Note_on_c, 0, 72, 0
3, 34812, Note_on_c, 0, 69, 0
3, 34837, Note_on_c, 0, 81, 0
3, 34839, Note_on_c, 0, 75, 0
3, 34844, Note_on_c, 0, 78, 0
3, 34880, Note_on_c, 0, 68, 25
3, 35171, Note_on_c, 0, 68, 0
3, 35189, Note_on_c, 0, 81, 51
3, 35194, Note_on_c, 0, 69, 44
3, 35198, Note_on_c, 0, 72, 45
3, 35199, Note_on_c, 0, 78, 38
3, 35207, Note_on_c, 0, 75, 43
3, 35364, Note_on_c, 0, 72, 0
3, 35393, Note_on_c, 0, 75, 0
3, 35395, Note_on_c, 0, 78, 0
3, 35402, Note_on_c, 0, 81, 0
3, 35436, Note_on_c, 0, 69, 0
3, 36266, Note_on_c, 0, 80, 75
3, 36271, Note_on_c, 0, 75, 71
3, 36274, Note_on_c, 0, 71, 48
3, 36286, Note_on_c, 0, 66, 68
3, 36315, Note_on_c, 0, 78, 27
3, 36496, Note_on_c, 0, 80, 0
3, 36538, Note_on_c, 0, 71, 0
3, 36588, Note_on_c, 0, 75, 0
3, 36630, Note_on_c, 0, 78, 0
3, 36630, Note_on_c, 0, 66, 0
3, 36651, Note_on_c, 0, 71, 48
3, 36653, Note_on_c, 0, 74, 53
3, 36659, Note_on_c, 0, 79, 42
3, 36661, Note_on_c, 0, 67, 41
3, 36905, Note_on_c, 0, 74, 0
3, 36907, Note_on_c, 0, 79, 0
3, 36912, Note_on_c, 0, 71, 0
3, 36959, Note_on_c, 0, 67, 0
3, 37259, Note_on_c, 0, 62, 48
3, 37336, Note_on_c, 0, 62, 0
3, 37590, Note_on_c, 0, 65, 54
3, 37593, Note_on_c, 0, 74, 66
3, 37595, Note_on_c, 0, 79, 55
3, 37602, Note_on_c, 0, 71, 57
3, 37871, Note_on_c, 0, 79, 0
3, 37898, Note_on_c, 0, 74, 0
3, 37914, Note_on_c, 0, 71, 0
3, 37942, Note_on_c, 0, 65, 0
3, 38171, Note_on_c, 0, 62, 48
3, 38417, Note_on_c, 0, 62, 0
3, 38487, Note_on_c, 0, 74, 48
3, 38488, Note_on_c, 0, 71, 44
3, 38490, Note_on_c, 0, 76, 47
3, 38492, Note_on_c, 0, 67, 48
3, 38503, Note_on_c, 0, 64, 56
3, 39061, Note_on_c, 0, 67, 0
3, 39074, Note_on_c, 0, 71, 0
3, 39099, Note_on_c, 0, 76, 0
3, 39305, Note_on_c, 0, 74, 0
3, 39361, Note_on_c, 0, 64, 0
3, 39418, Note_on_c, 0, 75, 55
3, 39423, Note_on_c, 0, 63, 46
3, 39434, Note_on_c, 0, 70, 60
3, 39439, Note_on_c, 0, 66, 50
3, 39715, Note_on_c, 0, 66, 0
3, 39804, Note_on_c, 0, 75, 0
3, 39849, Note_on_c, 0, 70, 0
3, 40033, Note_on_c, 0, 63, 0
3, 40062, Note_on_c, 0, 64, 67
3, 40063, Note_on_c, 0, 70, 71
3, 40065, Note_on_c, 0, 76, 64
3, 40083, Note_on_c, 0, 67, 70
3, 40110, Note_on_c, 0, 74, 39
3, 40204, Note_on_c, 0, 76, 0
3, 40272, Note_on_c, 0, 67, 0
3, 40309, Note_on_c, 0, 74, 0
3, 40380, Note_on_c, 0, 70, 0
3, 40438, Note_on_c, 0, 64, 0
3, 40458, Note_on_c, 0, 63, 67
3, 40458, Note_on_c, 0, 75, 67
3, 40477, Note_on_c, 0, 66, 65
3, 40486, Note_on_c, 0, 69, 59
3, 40491, Note_on_c, 0, 72, 42
3, 40905, Note_on_c, 0, 66, 0
3, 40983, Note_on_c, 0, 69, 0
3, 40986, Note_on_c, 0, 75, 0
3, 41001, Note_on_c, 0, 72, 0
3, 41075, Note_on_c, 0, 76, 70
3, 41082, Note_on_c, 0, 64, 74
3, 41084, Note_on_c, 0, 69, 51
3, 41092, Note_on_c, 0, 63, 0
3, 41104, Note_on_c, 0, 72, 58
3, 41120, Note_on_c, 0, 65, 44
3, 41137, Note_on_c, 0, 67, 26
3, 41170, Note_on_c, 0, 65, 0
3, 41182, Note_on_c, 0, 67, 0
3, 41238, Note_on_c, 0, 76, 0
3, 41401, Note_on_c, 0, 69, 0
3, 41478, Note_on_c, 0, 75, 47
3, 41479, Note_on_c, 0, 64, 0
3, 41487, Note_on_c, 0, 63, 58
3, 41512, Note_on_c, 0, 66, 30
3, 41517, Note_on_c, 0, 69, 31
3, 41780, Note_on_c, 0, 66, 0
3, 41827, Note_on_c, 0, 69, 0
3, 41887, Note_on_c, 0, 75, 0
3, 41917, Note_on_c, 0, 72, 0
3, 42031, Note_on_c, 0, 76, 58
3, 42038, Note_on_c, 0, 63, 0
3, 42051, Note_on_c, 0, 64, 65
3, 42060, Note_on_c, 0, 69, 43
3, 42083, Note_on_c, 0, 65, 32
3, 42153, Note_on_c, 0, 69, 0
3, 42184, Note_on_c, 0, 76, 0
3, 42228, Note_on_c, 0, 65, 0
3, 42232, Note_on_c, 0, 64, 0
3, 42418, Note_on_c, 0, 67, 54
3, 42429, Note_on_c, 0, 71, 43
3, 42431, Note_on_c, 0, 59, 41
3, 42433, Note_on_c, 0, 62, 53
3, 42721, Note_on_c, 0, 67, 0
3, 42766, Note_on_c, 0, 62, 0
3, 42872, Note_on_c, 0, 71, 0
3, 42959, Note_on_c, 0, 59, 0
3, 42984, Note_on_c, 0, 62, 36
3, 42986, Note_on_c, 0, 58, 50
3, 42994, Note_on_c, 0, 70, 32
3, 43112, Note_on_c, 0, 62, 0
3, 43210, Note_on_c, 0, 70, 0
3, 43278, Note_on_c, 0, 58, 0
3, 43315, Note_on_c, 0, 59, 38
3, 43321, Note_on_c, 0, 71, 36
3, 43326, Note_on_c, 0, 67, 45
3, 43334, Note_on_c, 0, 62, 46
3, 43823, Note_on_c, 0, 71, 0
3, 43840, Note_on_c, 0, 62, 0
3, 43955, Note_on_c, 0, 67, 0
3, 44024, Note_on_c, 0, 59, 0
3, 44035, Note_on_c, 0, 56, 29
3, 44185, Note_on_c, 0, 56, 0
3, 44230, Note_on_c, 0, 61, 45
3, 44234, Note_on_c, 0, 70, 50
3, 44254, Note_on_c, 0, 67, 48
3, 44260, Note_on_c, 0, 58, 48
3, 44810, Note_on_c, 0, 67, 0
3, 44921, Note_on_c, 0, 61, 0
3, 45071, Note_on_c, 0, 58, 0
3, 45078, Note_on_c, 0, 70, 0
3, 45118, Note_on_c, 0, 55, 35
3, 45120, Note_on_c, 0, 61, 46
3, 45123, Note_on_c, 0, 67, 47
3, 45172, Note_on_c, 0, 64, 31
3, 45390, Note_on_c, 0, 64, 0
3, 45613, Note_on_c, 0, 61, 0
3, 45820, Note_on_c, 0, 54, 23
3, 46018, Note_on_c, 0, 67, 0
3, 46041, Note_on_c, 0, 55, 0
3, 46078, Note_on_c, 0, 69, 33
3, 46083, Note_on_c, 0, 57, 38
3, 46086, Note_on_c, 0, 60, 35
3, 46117, Note_on_c, 0, 65, 34
3, 46207, Note_on_c, 0, 54, 0
3, 46395, Note_on_c, 0, 60, 0
3, 46751, Note_on_c, 0, 65, 0
3, 46765, Note_on_c, 0, 69, 0
3, 46912, Note_on_c, 0, 57, 0
3, 48082, Note_on_c, 0, 93, 91
3, 48084, Note_on_c, 0, 89, 82
3, 48085, Note_on_c, 0, 81, 90
3, 48519, Note_on_c, 0, 93, 0
3, 48562, Note_on_c, 0, 81, 0
3, 48686, Note_on_c, 0, 89, 0
3, 48726, Note_on_c, 0, 80, 67
3, 48731, Note_on_c, 0, 92, 61
3, 48735, Note_on_c, 0, 89, 38
3, 48970, Note_on_c, 0, 92, 0
3, 48972, Note_on_c, 0, 80, 0
3, 49012, Note_on_c, 0, 89, 0
3, 49103, Note_on_c, 0, 93, 74
3, 49110, Note_on_c, 0, 89, 60
3, 49115, Note_on_c, 0, 81, 55
3, 49137, Note_on_c, 0, 91, 43
3, 49232, Note_on_c, 0, 91, 0
3, 49238, Note_on_c, 0, 81, 0
3, 49242, Note_on_c, 0, 93, 0
3, 49267, Note_on_c, 0, 89, 0
3, 50531, Note_on_c, 0, 76, 60
3, 50542, Note_on_c, 0, 69, 53
3, 50545, Note_on_c, 0, 64, 74
3, 50548, Note_on_c, 0, 65, 57
3, 50555, Note_on_c, 0, 72, 42
3, 50593, Note_on_c, 0, 65, 0
3, 50607, Note_on_c, 0, 72, 0
3, 50616, Note_on_c, 0, 69, 0
3, 50660, Note_on_c, 0, 64, 0
3, 50663, Note_on_c, 0, 76, 0
3, 50792, Note_on_c, 0, 63, 54
3, 51004, Note_on_c, 0, 63, 0
3, 51044, Note_on_c, 0, 76, 55
3, 51051, Note_on_c, 0, 69, 55
3, 51060, Note_on_c, 0, 65, 55
3, 51061, Note_on_c, 0, 72, 38
3, 51071, Note_on_c, 0, 64, 58
3, 51617, Note_on_c, 0, 69, 0
3, 51618, Note_on_c, 0, 72, 0
3, 51683, Note_on_c, 0, 65, 0
3, 51733, Note_on_c, 0, 76, 0
3, 51753, Note_on_c, 0, 64, 0
3, 51876, Note_on_c, 0, 76, 45
3, 51878, Note_on_c, 0, 71, 45
3, 51884, Note_on_c, 0, 64, 44
3, 51891, Note_on_c, 0, 65, 49
3, 51898, Note_on_c, 0, 68, 44
3, 52603, Note_on_c, 0, 71, 0
3, 52650, Note_on_c, 0, 65, 0
3, 52684, Note_on_c, 0, 68, 0
3, 52774, Note_on_c, 0, 76, 0
3, 52861, Note_on_c, 0, 65, 43
3, 52866, Note_on_c, 0, 74, 37
3, 52882, Note_on_c, 0, 71, 34
3, 52886, Note_on_c, 0, 64, 0
3, 52891, Note_on_c, 0, 68, 27
3, 52903, Note_on_c, 0, 62, 33
3, 52998, Note_on_c, 0, 62, 0
3, 53328, Note_on_c, 0, 74, 0
3, 53376, Note_on_c, 0, 71, 0
3, 53400, Note_on_c, 0, 65, 0
3, 53514, Note_on_c, 0, 56, 32
3, 53610, Note_on_c, 0, 68, 0
3, 53716, Note_on_c, 0, 56, 0
3, 53761, Note_on_c, 0, 72, 42
3, 53778, Note_on_c, 0, 67, 42
3, 53781, Note_on_c, 0, 57, 38
3, 53797, Note_on_c, 0, 62, 36
3, 54286, Note_on_c, 0, 62, 0
3, 54359, Note_on_c, 0, 72, 0
3, 54664, Note_on_c, 0, 67, 0
3, 54832, Note_on_c, 0, 57, 0
3, 56157, Note_on_c, 0, 89, 83
3, 56166, Note_on_c, 0, 65, 80
3, 56453, Note_on_c, 0, 64, 49
3, 56464, Note_on_c, 0, 88, 58
3, 56504, Note_on_c, 0, 65, 0
3, 56525, Note_on_c, 0, 89, 0
3, 56601, Note_on_c, 0, 87, 43
3, 56625, Note_on_c, 0, 64, 0
3, 56625, Note_on_c, 0, 88, 0
3, 56705, Note_on_c, 0, 62, 47
3, 56740, Note_on_c, 0, 86, 65
3, 56858, Note_on_c, 0, 87, 0
3, 56917, Note_on_c, 0, 86, 0
3, 57014, Note_on_c, 0, 62, 0
3, 57044, Note_on_c, 0, 65, 60
3, 57049, Note_on_c, 0, 89, 70
3, 57271, Note_on_c, 0, 89, 0
3, 57276, Note_on_c, 0, 62, 42
3, 57285, Note_on_c, 0, 65, 0
3, 57291, Note_on_c, 0, 86, 57
3, 57390, Note_on_c, 0, 86, 0
3, 57553, Note_on_c, 0, 63, 56
3, 57558, Note_on_c, 0, 87, 60
3, 57616, Note_on_c, 0, 62, 0
3, 57743, Note_on_c, 0, 63, 0
3, 57771, Note_on_c, 0, 87, 0
3, 57846, Note_on_c, 0, 64, 55
3, 57847, Note_on_c, 0, 88, 54
3, 58009, Note_on_c, 0, 88, 0
3, 58135, Note_on_c, 0, 64, 0
3, 58155, Note_on_c, 0, 91, 68
3, 58165, Note_on_c, 0, 67, 62
3, 58643, Note_on_c, 0, 91, 0
3, 58722, Note_on_c, 0, 67, 0
3, 59613, Note_on_c, 0, 57, 52
3, 59614, Note_on_c, 0, 61, 55
3, 59829, Note_on_c, 0, 61, 0
3, 59836, Note_on_c, 0, 57, 0
3, 59886, Note_on_c, 0, 58, 59
3, 59912, Note_on_c, 0, 62, 60
3, 60084, Note_on_c, 0, 58, 0
3, 60091, Note_on_c, 0, 62, 0
3, 60161, Note_on_c, 0, 63, 56
3, 60176, Note_on_c, 0, 59, 27
3, 60565, Note_on_c, 0, 63, 0
3, 60569, Note_on_c, 0, 59, 0
3, 60589, Note_on_c, 0, 64, 74
3, 60600, Note_on_c, 0, 60, 41
3, 60791, Note_on_c, 0, 64, 0
3, 60857, Note_on_c, 0, 65, 66
3, 60868, Note_on_c, 0, 61, 46
3, 60903, Note_on_c, 0, 60, 0
3, 61014, Note_on_c, 0, 65, 0
3, 61105, Note_on_c, 0, 66, 60
3, 61120, Note_on_c, 0, 61, 0
3, 61125, Note_on_c, 0, 62, 53
3, 61294, Note_on_c, 0, 66, 0
3, 61347, Note_on_c, 0, 67, 66
3, 61349, Note_on_c, 0, 63, 67
3, 61394, Note_on_c, 0, 62, 0
3, 61465, Note_on_c, 0, 67, 0
3, 61532, Note_on_c, 0, 63, 0
3, 61578, Note_on_c, 0, 68, 68
3, 61581, Note_on_c, 0, 64, 69
3, 61784, Note_on_c, 0, 68, 0
3, 61849, Note_on_c, 0, 69, 66
3, 61867, Note_on_c, 0, 64, 0
3, 61869, Note_on_c, 0, 65, 66
3, 62024, Note_on_c, 0, 69, 0
3, 62050, Note_on_c, 0, 65, 0
3, 62096, Note_on_c, 0, 69, 63
3, 62136, Note_on_c, 0, 65, 57
3, 62250, Note_on_c, 0, 69, 0
3, 62282, Note_on_c, 0, 65, 0
3, 62352, Note_on_c, 0, 69, 57
3, 62371, Note_on_c, 0, 65, 53
3, 62527, Note_on_c, 0, 65, 0
3, 62532, Note_on_c, 0, 69, 0
3, 62577, Note_on_c, 0, 64, 49
3, 62595, Note_on_c, 0, 68, 39
3, 62770, Note_on_c, 0, 68, 0
3, 62833, Note_on_c, 0, 64, 0
3, 62833, Note_on_c, 0, 69, 59
3, 62851, Note_on_c, 0, 65, 54
3, 62971, Note_on_c, 0, 69, 0
3, 62972, Note_on_c, 0, 65, 0
3, 63051, Note_on_c, 0, 69, 62
3, 63072, Note_on_c, 0, 65, 27
3, 63194, Note_on_c, 0, 69, 0
3, 63292, Note_on_c, 0, 69, 51
3, 63490, Note_on_c, 0, 69, 0
3, 63540, Note_on_c, 0, 67, 59
3, 63604, Note_on_c, 0, 65, 0
3, 64087, Note_on_c, 0, 55, 34
3, 64383, Note_on_c, 0, 65, 66
3, 64456, Note_on_c, 0, 67, 0
3, 64566, Note_on_c, 0, 55, 0
3, 64685, Note_on_c, 0, 64, 55
3, 64794, Note_on_c, 0, 65, 0
3, 64993, Note_on_c, 0, 62, 46
3, 65225, Note_on_c, 0, 64, 0
3, 65229, Note_on_c, 0, 62, 0
3, 65285, Note_on_c, 0, 71, 59
3, 65762, Note_on_c, 0, 71, 0
3, 65926, Note_on_c, 0, 71, 47
3, 66193, Note_on_c, 0, 71, 0
3, 66316, Note_on_c, 0, 62, 51
3, 66659, Note_on_c, 0, 62, 0
3, 68492, Note_on_c, 0, 84, 64
3, 68508, Note_on_c, 0, 75, 74
3, 68511, Note_on_c, 0, 72, 71
3, 68516, Note_on_c, 0, 78, 59
3, 68537, Note_on_c, 0, 81, 48
3, 68631, Note_on_c, 0, 84, 0
3, 68703, Note_on_c, 0, 75, 0
3, 68706, Note_on_c, 0, 72, 0
3, 68736, Note_on_c, 0, 78, 0
3, 68746, Note_on_c, 0, 81, 0
3, 68800, Note_on_c, 0, 74, 74
3, 68807, Note_on_c, 0, 78, 59
3, 68812, Note_on_c, 0, 86, 80
3, 68815, Note_on_c, 0, 75, 72
3, 68837, Note_on_c, 0, 81, 55
3, 68948, Note_on_c, 0, 74, 0
3, 68963, Note_on_c, 0, 86, 0
3, 68971, Note_on_c, 0, 81, 0
3, 69000, Note_on_c, 0, 78, 0
3, 69035, Note_on_c, 0, 75, 0
3, 69298, Note_on_c, 0, 73, 18
3, 69363, Note_on_c, 0, 73, 0
3, 69476, Note_on_c, 0, 72, 62
3, 69477, Note_on_c, 0, 76, 54
3, 69479, Note_on_c, 0, 79, 60
3, 69483, Note_on_c, 0, 69, 60
3, 69508, Note_on_c, 0, 67, 64
3, 69629, Note_on_c, 0, 79, 0
3, 69640, Note_on_c, 0, 76, 0
3, 69652, Note_on_c, 0, 72, 0
3, 69657, Note_on_c, 0, 69, 0
3, 69744, Note_on_c, 0, 67, 0
3, 69790, Note_on_c, 0, 66, 54
3, 69816, Note_on_c, 0, 78, 31
3, 69848, Note_on_c, 0, 69, 20
3, 69945, Note_on_c, 0, 78, 0
3, 69972, Note_on_c, 0, 69, 0
3, 70077, Note_on_c, 0, 66, 0
3, 70091, Note_on_c, 0, 77, 57
3, 70098, Note_on_c, 0, 65, 63
3, 70101, Note_on_c, 0, 72, 40
3, 70108, Note_on_c, 0, 69, 35
3, 70271, Note_on_c, 0, 77, 0
3, 70281, Note_on_c, 0, 72, 0
3, 70292, Note_on_c, 0, 65, 0
3, 70312, Note_on_c, 0, 69, 0
3, 70700, Note_on_c, 0, 60, 41
3, 70701, Note_on_c, 0, 72, 45
3, 70704, Note_on_c, 0, 65, 51
3, 70734, Note_on_c, 0, 69, 36
3, 70845, Note_on_c, 0, 69, 0
3, 70861, Note_on_c, 0, 65, 0
3, 70945, Note_on_c, 0, 72, 0
3, 70978, Note_on_c, 0, 60, 0
3, 71036, Note_on_c, 0, 76, 60
3, 71052, Note_on_c, 0, 64, 55
3, 71059, Note_on_c, 0, 69, 47
3, 71064, Note_on_c, 0, 65, 40
3, 71445, Note_on_c, 0, 69, 0
3, 71447, Note_on_c, 0, 65, 0
3, 71605, Note_on_c, 0, 64, 0
3, 71703, Note_on_c, 0, 60, 30
3, 71802, Note_on_c, 0, 76, 0
3, 71816, Note_on_c, 0, 60, 0
3, 71980, Note_on_c, 0, 74, 53
3, 71985, Note_on_c, 0, 65, 48
3, 71997, Note_on_c, 0, 69, 39
3, 72005, Note_on_c, 0, 62, 45
3, 72417, Note_on_c, 0, 62, 0
3, 72445, Note_on_c, 0, 74, 0
3, 72448, Note_on_c, 0, 69, 0
3, 72493, Note_on_c, 0, 65, 0
3, 72611, Note_on_c, 0, 57, 52
3, 72804, Note_on_c, 0, 57, 0
3, 72916, Note_on_c, 0, 71, 44
3, 72924, Note_on_c, 0, 67, 46
3, 72925, Note_on_c, 0, 59, 54
3, 72930, Note_on_c, 0, 62, 40
3, 72951, Note_on_c, 0, 64, 35
3, 73388, Note_on_c, 0, 62, 0
3, 73483, Note_on_c, 0, 64, 0
3, 73510, Note_on_c, 0, 59, 0
3, 73539, Note_on_c, 0, 67, 0
3, 73587, Note_on_c, 0, 57, 44
3, 73653, Note_on_c, 0, 71, 0
3, 73885, Note_on_c, 0, 57, 0
3, 73911, Note_on_c, 0, 62, 55
3, 73915, Note_on_c, 0, 71, 43
3, 73920, Note_on_c, 0, 64, 45
3, 73925, Note_on_c, 0, 67, 51
3, 73926, Note_on_c, 0, 59, 39
3, 74362, Note_on_c, 0, 64, 0
3, 74387, Note_on_c, 0, 71, 0
3, 74399, Note_on_c, 0, 67, 0
3, 74478, Note_on_c, 0, 62, 0
3, 74567, Note_on_c, 0, 55, 33
3, 74576, Note_on_c, 0, 59, 0
3, 74860, Note_on_c, 0, 55, 0
3, 74883, Note_on_c, 0, 61, 35
3, 74893, Note_on_c, 0, 64, 47
3, 74894, Note_on_c, 0, 58, 33
3, 74897, Note_on_c, 0, 57, 49
3, 74911, Note_on_c, 0, 69, 27
3, 75283, Note_on_c, 0, 64, 0
3, 75316, Note_on_c, 0, 58, 0
3, 75319, Note_on_c, 0, 69, 0
3, 75394, Note_on_c, 0, 61, 0
3, 75462, Note_on_c, 0, 52, 62
3, 75470, Note_on_c, 0, 58, 67
3, 75472, Note_on_c, 0, 57, 0
3, 75475, Note_on_c, 0, 64, 58
3, 75480, Note_on_c, 0, 61, 62
3, 75703, Note_on_c, 0, 58, 0
3, 75764, Note_on_c, 0, 64, 0
3, 75828, Note_on_c, 0, 52, 0
3, 75834, Note_on_c, 0, 65, 68
3, 75848, Note_on_c, 0, 53, 51
3, 75852, Note_on_c, 0, 58, 49
3, 76004, Note_on_c, 0, 58, 0
3, 76230, Note_on_c, 0, 61, 0
3, 76261, Note_on_c, 0, 65, 0
3, 76410, Note_on_c, 0, 61, 62
3, 76425, Note_on_c, 0, 67, 63
3, 76426, Note_on_c, 0, 58, 63
3, 76427, Note_on_c, 0, 53, 0
3, 76431, Note_on_c, 0, 64, 55
3, 76437, Note_on_c, 0, 55, 69
3, 76557, Note_on_c, 0, 67, 0
3, 76604, Note_on_c, 0, 58, 0
3, 76638, Note_on_c, 0, 64, 0
3, 76704, Note_on_c, 0, 55, 0
3, 76724, Note_on_c, 0, 61, 0
3, 76734, Note_on_c, 0, 54, 34
3, 76791, Note_on_c, 0, 65, 64
3, 76793, Note_on_c, 0, 60, 62
3, 76794, Note_on_c, 0, 54, 0
3, 76795, Note_on_c, 0, 62, 66
3, 76798, Note_on_c, 0, 57, 73
3, 76805, Note_on_c, 0, 69, 57
3, 77309, Note_on_c, 0, 57, 0
3, 77318, Note_on_c, 0, 60, 0
3, 77349, Note_on_c, 0, 62, 0
3, 77359, Note_on_c, 0, 65, 0
3, 77390, Note_on_c, 0, 55, 49
3, 77428, Note_on_c, 0, 69, 0
3, 77715, Note_on_c, 0, 55, 0
3, 77744, Note_on_c, 0, 57, 68
3, 77747, Note_on_c, 0, 69, 50
3, 77752, Note_on_c, 0, 65, 64
3, 77754, Note_on_c, 0, 62, 64
3, 77756, Note_on_c, 0, 60, 58
3, 77921, Note_on_c, 0, 60, 0
3, 78007, Note_on_c, 0, 62, 0
3, 78008, Note_on_c, 0, 57, 0
3, 78049, Note_on_c, 0, 65, 0
3, 78077, Note_on_c, 0, 69, 0
3, 78389, Note_on_c, 0, 81, 79
3, 78390, Note_on_c, 0, 74, 83
3, 78399, Note_on_c, 0, 77, 62
3, 78409, Note_on_c, 0, 71, 60
3, 78416, Note_on_c, 0, 69, 53
3, 78571, Note_on_c, 0, 71, 0
3, 78580, Note_on_c, 0, 69, 0
3, 78582, Note_on_c, 0, 77, 0
3, 78602, Note_on_c, 0, 81, 0
3, 78617, Note_on_c, 0, 74, 0
3, 78818, Note_on_c, 0, 65, 65
3, 78823, Note_on_c, 0, 77, 66
3, 78824, Note_on_c, 0, 72, 60
3, 78833, Note_on_c, 0, 69, 56
3, 78841, Note_on_c, 0, 74, 39
3, 79505, Note_on_c, 0, 69, 0
3, 79584, Note_on_c, 0, 72, 0
3, 79621, Note_on_c, 0, 77, 0
3, 79641, Note_on_c, 0, 65, 0
3, 79696, Note_on_c, 0, 62, 30
3, 79748, Note_on_c, 0, 68, 57
3, 79749, Note_on_c, 0, 76, 48
3, 79750, Note_on_c, 0, 71, 55
3, 79759, Note_on_c, 0, 62, 0
3, 79764, Note_on_c, 0, 64, 51
3, 79869, Note_on_c, 0, 74, 0
3, 80320, Note_on_c, 0, 62, 54
3, 80329, Note_on_c, 0, 71, 0
3, 80337, Note_on_c, 0, 68, 0
3, 80389, Note_on_c, 0, 64, 0
3, 80520, Note_on_c, 0, 62, 0
3, 80641, Note_on_c, 0, 72, 60
3, 80645, Note_on_c, 0, 67, 64
3, 80649, Note_on_c, 0, 57, 57
3, 81309, Note_on_c, 0, 72, 0
3, 81364, Note_on_c, 0, 76, 0
3, 81451, Note_on_c, 0, 67, 0
3, 81646, Note_on_c, 0, 72, 49
3, 81647, Note_on_c, 0, 67, 53
3, 81656, Note_on_c, 0, 64, 47
3, 83415, Note_on_c, 0, 64, 0
3, 83754, Note_on_c, 0, 57, 0
3, 83995, Note_on_c, 0, 67, 0
3, 84216, Note_on_c, 0, 72, 0
3, 85002, Note_on_c, 0, 83, 65
3, 85012, Note_on_c, 0, 59, 43
3, 85152, Note_on_c, 0, 83, 0
3, 85180, Note_on_c, 0, 59, 0
3, 85228, Note_on_c, 0, 82, 48
3, 85245, Note_on_c, 0, 58, 46
3, 85359, Note_on_c, 0, 82, 0
3, 85380, Note_on_c, 0, 58, 0
3, 85429, Note_on_c, 0, 83, 60
3, 85456, Note_on_c, 0, 59, 37
3, 85572, Note_on_c, 0, 83, 0
3, 85594, Note_on_c, 0, 59, 0
3, 85723, Note_on_c, 0, 88, 69
3, 85745, Note_on_c, 0, 64, 54
3, 86213, Note_on_c, 0, 64, 0
3, 86266, Note_on_c, 0, 88, 0
3, 86369, Note_on_c, 0, 63, 54
3, 86379, Note_on_c, 0, 87, 55
3, 86830, Note_on_c, 0, 83, 33
3, 86848, Note_on_c, 0, 59, 41
3, 86850, Note_on_c, 0, 87, 0
3, 86878, Note_on_c, 0, 63, 0
3, 86949, Note_on_c, 0, 83, 0
3, 86970, Note_on_c, 0, 59, 0
3, 87335, Note_on_c, 0, 83, 54
3, 87344, Note_on_c, 0, 59, 47
3, 89952, Note_on_c, 0, 56, 25
3, 90113, Note_on_c, 0, 56, 0
3, 90129, Note_on_c, 0, 59, 0
3, 90184, Note_on_c, 0, 83, 0
3, 90780, Note_on_c, 0, 78, 74
3, 90786, Note_on_c, 0, 79, 73
3, 90788, Note_on_c, 0, 55, 77
3, 90804, Note_on_c, 0, 54, 57
3, 90874, Note_on_c, 0, 78, 0
3, 90924, Note_on_c, 0, 54, 0
3, 91266, Note_on_c, 0, 79, 0
3, 91296, Note_on_c, 0, 54, 53
3, 91296, Note_on_c, 0, 78, 42
3, 91306, Note_on_c, 0, 55, 0
3, 91720, Note_on_c, 0, 78, 0
3, 91726, Note_on_c, 0, 54, 0
3, 91746, Note_on_c, 0, 55, 56
3, 91774, Note_on_c, 0, 79, 46
3, 92147, Note_on_c, 0, 79, 0
3, 92149, Note_on_c, 0, 55, 0
3, 92202, Note_on_c, 0, 59, 44
3, 92218, Note_on_c, 0, 83, 53
3, 92584, Note_on_c, 0, 83, 0
3, 92658, Note_on_c, 0, 86, 79
3, 92680, Note_on_c, 0, 62, 72
3, 92710, Note_on_c, 0, 59, 0
3, 93014, Note_on_c, 0, 61, 33
3, 93069, Note_on_c, 0, 86, 0
3, 93079, Note_on_c, 0, 62, 0
3, 93135, Note_on_c, 0, 64, 80
3, 93140, Note_on_c, 0, 88, 81
3, 93154, Note_on_c, 0, 61, 0
3, 94424, Note_on_c, 0, 63, 59
3, 94437, Note_on_c, 0, 87, 56
3, 94477, Note_on_c, 0, 88, 0
3, 94524, Note_on_c, 0, 64, 0
3, 94680, Note_on_c, 0, 87, 0
3, 94704, Note_on_c, 0, 63, 0
3, 94729, Note_on_c, 0, 88, 76
3, 94731, Note_on_c, 0, 64, 78
3, 95048, Note_on_c, 0, 88, 0
3, 95067, Note_on_c, 0, 64, 0
3, 95071, Note_on_c, 0, 63, 45
3, 95156, Note_on_c, 0, 87, 20
3, 95370, Note_on_c, 0, 88, 65
3, 95393, Note_on_c, 0, 64, 71
3, 95422, Note_on_c, 0, 87, 0
3, 95439, Note_on_c, 0, 63, 0
3, 95576, Note_on_c, 0, 88, 0
3, 95586, Note_on_c, 0, 64, 0
3, 95696, Note_on_c, 0, 69, 68
3, 95715, Note_on_c, 0, 93, 91
3, 95964, Note_on_c, 0, 93, 0
3, 95996, Note_on_c, 0, 92, 55
3, 96024, Note_on_c, 0, 69, 0
3, 96042, Note_on_c, 0, 68, 32
3, 96295, Note_on_c, 0, 92, 0
3, 96329, Note_on_c, 0, 93, 76
3, 96355, Note_on_c, 0, 69, 63
3, 96356, Note_on_c, 0, 68, 0
3, 97361, Note_on_c, 0, 93, 0
3, 97370, Note_on_c, 0, 88, 41
3, 97383, Note_on_c, 0, 64, 48
3, 97418, Note_on_c, 0, 69, 0
3, 97514, Note_on_c, 0, 88, 0
3, 97642, Note_on_c, 0, 64, 0
3, 97669, Note_on_c, 0, 69, 66
3, 97677, Note_on_c, 0, 93, 88
3, 97945, Note_on_c, 0, 69, 0
3, 97965, Note_on_c, 0, 93, 0
3, 98024, Note_on_c, 0, 91, 67
3, 98060, Note_on_c, 0, 67, 29
3, 98062, Note_on_c, 0, 69, 29
3, 98253, Note_on_c, 0, 69, 0
3, 98578, Note_on_c, 0, 67, 0
3, 98598, Note_on_c, 0, 59, 38
3, 98603, Note_on_c, 0, 91, 0
3, 98629, Note_on_c, 0, 83, 43
3, 98928, Note_on_c, 0, 83, 0
3, 98945, Note_on_c, 0, 59, 0
3, 98981, Note_on_c, 0, 89, 65
3, 98986, Note_on_c, 0, 65, 60
3, 99494, Note_on_c, 0, 89, 0
3, 99562, Note_on_c, 0, 65, 0
3, 99574, Note_on_c, 0, 63, 45
3, 99601, Note_on_c, 0, 87, 38
3, 99889, Note_on_c, 0, 87, 0
3, 99901, Note_on_c, 0, 63, 0
3, 99932, Note_on_c, 0, 64, 49
3, 99937, Note_on_c, 0, 88, 57
3, 100466, Note_on_c, 0, 64, 0
3, 100540, Note_on_c, 0, 55, 45
3, 100547, Note_on_c, 0, 79, 36
3, 100770, Note_on_c, 0, 55, 0
3, 100782, Note_on_c, 0, 79, 0
3, 100864, Note_on_c, 0, 88, 0
3, 100939, Note_on_c, 0, 79, 34
3, 100954, Note_on_c, 0, 55, 38
3, 101041, Note_on_c, 0, 55, 0
3, 101125, Note_on_c, 0, 79, 0
3, 101529, Note_on_c, 0, 61, 46
3, 101603, Note_on_c, 0, 79, 31
3, 101660, Note_on_c, 0, 61, 0
3, 101662, Note_on_c, 0, 79, 0
3, 101907, Note_on_c, 0, 63, 81
3, 101909, Note_on_c, 0, 87, 88
3, 102387, Note_on_c, 0, 87, 0
3, 102489, Note_on_c, 0, 64, 90
3, 102498, Note_on_c, 0, 63, 0
3, 102499, Note_on_c, 0, 88, 90
3, 102835, Note_on_c, 0, 88, 0
3, 102883, Note_on_c, 0, 64, 0
3, 102910, Note_on_c, 0, 63, 70
3, 102941, Note_on_c, 0, 87, 50
3, 103212, Note_on_c, 0, 87, 0
3, 103420, Note_on_c, 0, 63, 0
3, 103454, Note_on_c, 0, 88, 82
3, 103457, Note_on_c, 0, 64, 71
3, 103618, Note_on_c, 0, 88, 0
3, 103752, Note_on_c, 0, 64, 0
3, 103817, Note_on_c, 0, 83, 68
3, 103821, Note_on_c, 0, 59, 52
3, 104030, Note_on_c, 0, 83, 0
3, 104091, Note_on_c, 0, 84, 36
3, 104125, Note_on_c, 0, 59, 0
3, 104189, Note_on_c, 0, 84, 0
3, 104189, Note_on_c, 0, 83, 64
3, 104210, Note_on_c, 0, 60, 19
3, 104276, Note_on_c, 0, 60, 0
3, 104347, Note_on_c, 0, 58, 23
3, 104362, Note_on_c, 0, 82, 64
3, 104393, Note_on_c, 0, 58, 0
3, 104396, Note_on_c, 0, 83, 0
3, 104432, Note_on_c, 0, 59, 50
3, 104465, Note_on_c, 0, 82, 0
3, 104639, Note_on_c, 0, 59, 0
3, 104689, Note_on_c, 0, 83, 83
3, 104710, Note_on_c, 0, 60, 63
3, 105089, Note_on_c, 0, 83, 0
3, 105226, Note_on_c, 0, 60, 0
3, 105266, Note_on_c, 0, 59, 62
3, 105286, Note_on_c, 0, 83, 66
3, 105475, Note_on_c, 0, 83, 0
3, 105620, Note_on_c, 0, 82, 64
3, 105639, Note_on_c, 0, 58, 62
3, 105653, Note_on_c, 0, 59, 0
3, 106128, Note_on_c, 0, 58, 0
3, 106204, Note_on_c, 0, 55, 60
3, 106207, Note_on_c, 0, 79, 49
3, 106275, Note_on_c, 0, 82, 0
3, 106607, Note_on_c, 0, 55, 0
3, 106760, Note_on_c, 0, 79, 0
3, 106857, Note_on_c, 0, 76, 54
3, 106859, Note_on_c, 0, 52, 38
3, 107048, Note_on_c, 0, 52, 0
3, 107090, Note_on_c, 0, 76, 0
3, 107128, Note_on_c, 0, 51, 46
3, 107154, Note_on_c, 0, 73, 27
3, 107342, Note_on_c, 0, 73, 0
3, 107389, Note_on_c, 0, 51, 0
3, 107466, Note_on_c, 0, 57, 64
3, 107471, Note_on_c, 0, 81, 61
3, 109176, Note_on_c, 0, 76, 35
3, 109189, Note_on_c, 0, 52, 25
3, 109193, Note_on_c, 0, 57, 0
3, 109197, Note_on_c, 0, 53, 24
3, 109258, Note_on_c, 0, 81, 0
3, 109271, Note_on_c, 0, 76, 0
3, 109284, Note_on_c, 0, 52, 0
3, 109337, Note_on_c, 0, 53, 0
3, 109484, Note_on_c, 0, 56, 69
3, 109493, Note_on_c, 0, 80, 63
3, 109792, Note_on_c, 0, 80, 0
3, 109823, Note_on_c, 0, 56, 0
3, 110173, Note_on_c, 0, 81, 67
3, 110187, Note_on_c, 0, 57, 44
3, 110269, Note_on_c, 0, 57, 0
3, 110439, Note_on_c, 0, 81, 0
3, 110515, Note_on_c, 0, 56, 33
3, 110524, Note_on_c, 0, 80, 40
3, 110758, Note_on_c, 0, 80, 0
3, 110913, Note_on_c, 0, 56, 0
3, 111114, Note_on_c, 0, 57, 35
3, 111130, Note_on_c, 0, 81, 56
3, 111304, Note_on_c, 0, 81, 0
3, 111351, Note_on_c, 0, 57, 0
3, 111470, Note_on_c, 0, 76, 47
3, 111487, Note_on_c, 0, 55, 29
3, 111724, Note_on_c, 0, 76, 0
3, 111760, Note_on_c, 0, 77, 44
3, 111810, Note_on_c, 0, 55, 0
3, 111879, Note_on_c, 0, 77, 0
3, 111898, Note_on_c, 0, 76, 35
3, 111996, Note_on_c, 0, 54, 25
3, 112077, Note_on_c, 0, 75, 43
3, 112087, Note_on_c, 0, 76, 0
3, 112185, Note_on_c, 0, 75, 0
3, 112276, Note_on_c, 0, 54, 0
3, 112351, Note_on_c, 0, 76, 36
3, 112352, Note_on_c, 0, 55, 37
3, 112424, Note_on_c, 0, 55, 0
3, 112635, Note_on_c, 0, 76, 0
3, 113758, Note_on_c, 0, 61, 33
3, 113845, Note_on_c, 0, 63, 35
3, 113896, Note_on_c, 0, 61, 0
3, 113907, Note_on_c, 0, 75, 59
3, 113932, Note_on_c, 0, 76, 66
3, 113953, Note_on_c, 0, 64, 54
3, 113999, Note_on_c, 0, 75, 0
3, 114009, Note_on_c, 0, 63, 0
3, 114171, Note_on_c, 0, 76, 0
3, 114225, Note_on_c, 0, 64, 0
3, 114280, Note_on_c, 0, 71, 33
3, 114332, Note_on_c, 0, 59, 29
3, 114863, Note_on_c, 0, 71, 0
3, 114865, Note_on_c, 0, 59, 0
3, 114893, Note_on_c, 0, 62, 39
3, 114908, Note_on_c, 0, 74, 54
3, 115195, Note_on_c, 0, 74, 0
3, 115195, Note_on_c, 0, 62, 0
3, 115245, Note_on_c, 0, 60, 40
3, 115272, Note_on_c, 0, 72, 38
3, 115527, Note_on_c, 0, 72, 0
3, 115563, Note_on_c, 0, 74, 44
3, 115637, Note_on_c, 0, 60, 0
3, 115668, Note_on_c, 0, 72, 28
3, 115727, Note_on_c, 0, 74, 0
3, 115791, Note_on_c, 0, 59, 14
3, 115825, Note_on_c, 0, 71, 44
3, 115864, Note_on_c, 0, 72, 0
3, 115909, Note_on_c, 0, 59, 0
3, 116007, Note_on_c, 0, 71, 0
3, 116066, Note_on_c, 0, 72, 55
3, 116068, Note_on_c, 0, 60, 30
3, 116207, Note_on_c, 0, 60, 0
3, 116262, Note_on_c, 0, 72, 0
3, 116370, Note_on_c, 0, 74, 60
3, 116448, Note_on_c, 0, 64, 37
3, 116548, Note_on_c, 0, 64, 0
3, 116549, Note_on_c, 0, 74, 0
3, 116680, Note_on_c, 0, 76, 51
3, 116856, Note_on_c, 0, 76, 0
3, 116981, Note_on_c, 0, 79, 60
3, 117164, Note_on_c, 0, 79, 0
3, 117264, Note_on_c, 0, 84, 67
3, 117439, Note_on_c, 0, 84, 0
3, 117620, Note_on_c, 0, 84, 64
3, 117767, Note_on_c, 0, 84, 0
3, 118020, Note_on_c, 0, 84, 58
3, 118539, Note_on_c, 0, 84, 0
3, 118715, Note_on_c, 0, 84, 36
3, 118888, Note_on_c, 0, 84, 0
3, 119071, Note_on_c, 0, 77, 59
3, 119072, Note_on_c, 0, 84, 43
3, 119227, Note_on_c, 0, 77, 0
3, 119326, Note_on_c, 0, 84, 0
3, 119378, Note_on_c, 0, 67, 38
3, 119585, Note_on_c, 0, 67, 0
3, 119689, Note_on_c, 0, 55, 34
3, 119860, Note_on_c, 0, 55, 0
3, 119983, Note_on_c, 0, 71, 35
3, 119985, Note_on_c, 0, 81, 43
3, 119987, Note_on_c, 0, 76, 47
3, 120011, Note_on_c, 0, 67, 38
3, 120364, Note_on_c, 0, 67, 0
3, 120377, Note_on_c, 0, 71, 0
3, 120399, Note_on_c, 0, 76, 0
3, 120476, Note_on_c, 0, 81, 0
3, 120500, Note_on_c, 0, 55, 24
3, 120778, Note_on_c, 0, 55, 0
3, 120873, Note_on_c, 0, 80, 46
3, 120897, Note_on_c, 0, 65, 40
3, 120898, Note_on_c, 0, 75, 36
3, 120904, Note_on_c, 0, 71, 25
3, 121308, Note_on_c, 0, 71, 0
3, 121451, Note_on_c, 0, 65, 0
3, 121460, Note_on_c, 0, 75, 0
3, 121503, Note_on_c, 0, 55, 19
3, 121541, Note_on_c, 0, 80, 0
3, 121823, Note_on_c, 0, 80, 42
3, 121839, Note_on_c, 0, 71, 32
3, 121842, Note_on_c, 0, 75, 34
3, 121863, Note_on_c, 0, 55, 0
3, 121870, Note_on_c, 0, 65, 31
3, 122046, Note_on_c, 0, 71, 0
3, 122084, Note_on_c, 0, 75, 0
3, 122123, Note_on_c, 0, 80, 0
3, 122130, Note_on_c, 0, 65, 0
3, 122449, Note_on_c, 0, 76, 64
3, 122489, Note_on_c, 0, 77, 59
3, 122541, Note_on_c, 0, 76, 0
3, 122803, Note_on_c, 0, 77, 0
3, 122847, Note_on_c, 0, 76, 60
3, 123490, Note_on_c, 0, 67, 48
3, 123813, Note_on_c, 0, 67, 0
3, 123933, Note_on_c, 0, 67, 49
3, 123966, Note_on_c, 0, 76, 0
3, 125521, Note_on_c, 0, 67, 0
3, 125539, Note_on_c, 0, 69, 80
3, 125836, Note_on_c, 0, 69, 0
3, 125902, Note_on_c, 0, 70, 84
3, 126200, Note_on_c, 0, 70, 0
3, 126223, Note_on_c, 0, 72, 72
3, 126535, Note_on_c, 0, 69, 71
3, 126914, Note_on_c, 0, 66, 68
3, 127406, Note_on_c, 0, 72, 0
3, 127524, Note_on_c, 0, 62, 37
3, 127568, Note_on_c, 0, 69, 0
3, 127664, Note_on_c, 0, 66, 0
3, 127913, Note_on_c, 0, 65, 83
3, 127915, Note_on_c, 0, 62, 0
3, 128462, Note_on_c, 0, 65, 0
3, 128468, Note_on_c, 0, 62, 44
3, 128826, Note_on_c, 0, 62, 0
3, 128846, Note_on_c, 0, 64, 77
3, 129371, Note_on_c, 0, 63, 74
3, 129373, Note_on_c, 0, 64, 0
3, 129688, Note_on_c, 0, 63, 0
3, 129763, Note_on_c, 0, 62, 50
3, 130148, Note_on_c, 0, 62, 0
3, 130260, Note_on_c, 0, 55, 34
3, 130538, Note_on_c, 0, 55, 0
3, 130595, Note_on_c, 0, 64, 65
3, 131044, Control_c, 0, 64, 127
3, 131140, Note_on_c, 0, 64, 0
3, 132369, Control_c, 0, 64, 0
3, 133993, Note_on_c, 0, 91, 88
3, 134352, Note_on_c, 0, 91, 0
3, 134455, Note_on_c, 0, 62, 35
3, 134461, Note_on_c, 0, 83, 60
3, 134505, Note_on_c, 0, 59, 25
3, 134507, Note_on_c, 0, 52, 20
3, 134628, Note_on_c, 0, 83, 0
3, 134747, Note_on_c, 0, 83, 46
3, 134889, Note_on_c, 0, 83, 0
3, 134976, Note_on_c, 0, 86, 77
3, 135112, Note_on_c, 0, 86, 0
3, 135210, Note_on_c, 0, 86, 67
3, 135394, Note_on_c, 0, 86, 0
3, 135448, Note_on_c, 0, 79, 33
3, 135670, Note_on_c, 0, 79, 0
3, 135830, Note_on_c, 0, 52, 0
3, 135841, Note_on_c, 0, 59, 0
3, 135874, Note_on_c, 0, 62, 0
3, 137912, Note_on_c, 0, 80, 68
3, 138101, Note_on_c, 0, 80, 0
3, 138156, Note_on_c, 0, 81, 68
3, 138346, Note_on_c, 0, 82, 57
3, 138373, Note_on_c, 0, 81, 0
3, 138464, Note_on_c, 0, 83, 75
3, 138477, Note_on_c, 0, 82, 0
3, 138575, Note_on_c, 0, 83, 0
3, 138630, Note_on_c, 0, 84, 83
3, 138804, Note_on_c, 0, 84, 0
3, 138930, Note_on_c, 0, 84, 79
3, 139131, Note_on_c, 0, 84, 0
3, 139203, Note_on_c, 0, 81, 68
3, 139395, Note_on_c, 0, 81, 0
3, 139493, Note_on_c, 0, 76, 42
3, 139695, Note_on_c, 0, 76, 0
3, 139780, Note_on_c, 0, 79, 60
3, 139998, Note_on_c, 0, 79, 0
3, 140029, Note_on_c, 0, 77, 65
3, 140202, Note_on_c, 0, 77, 0
3, 140305, Note_on_c, 0, 75, 54
3, 140348, Note_on_c, 0, 75, 0
3, 140354, Note_on_c, 0, 76, 55
3, 140557, Note_on_c, 0, 76, 0
3, 140622, Note_on_c, 0, 72, 49
3, 140802, Note_on_c, 0, 72, 0
3, 140898, Note_on_c, 0, 69, 30
3, 141149, Note_on_c, 0, 69, 0
3, 143173, Note_on_c, 0, 75, 91
3, 143383, Note_on_c, 0, 75, 0
3, 143446, Note_on_c, 0, 76, 64
3, 143635, Note_on_c, 0, 76, 0
3, 143722, Note_on_c, 0, 71, 56
3, 144013, Note_on_c, 0, 71, 0
3, 144659, Note_on_c, 0, 59, 24
3, 144809, Note_on_c, 0, 59, 0
3, 145003, Note_on_c, 0, 74, 101
3, 145278, Note_on_c, 0, 72, 68
3, 145342, Note_on_c, 0, 74, 0
3, 145489, Note_on_c, 0, 72, 0
3, 145543, Note_on_c, 0, 71, 71
3, 145748, Note_on_c, 0, 71, 0
3, 145819, Note_on_c, 0, 69, 67
3, 145873, Note_on_c, 0, 72, 24
3, 145924, Note_on_c, 0, 72, 0
3, 146015, Note_on_c, 0, 69, 0
3, 146088, Note_on_c, 0, 55, 34
3, 146092, Note_on_c, 0, 67, 71
3, 146108, Note_on_c, 0, 59, 22
3, 146200, Note_on_c, 0, 59, 0
3, 146203, Note_on_c, 0, 55, 0
3, 146318, Note_on_c, 0, 67, 0
3, 146414, Note_on_c, 0, 67, 69
3, 146619, Note_on_c, 0, 67, 0
3, 146742, Note_on_c, 0, 65, 51
3, 146799, Note_on_c, 0, 65, 0
3, 147029, Note_on_c, 0, 67, 71
3, 147614, Note_on_c, 0, 69, 61
3, 147648, Note_on_c, 0, 67, 0
3, 147945, Note_on_c, 0, 69, 0
3, 147989, Note_on_c, 0, 68, 49
3, 148453, Note_on_c, 0, 68, 0
3, 148527, Note_on_c, 0, 69, 34
3, 148838, Note_on_c, 0, 69, 0
3, 148903, Note_on_c, 0, 72, 43
3, 148906, Note_on_c, 0, 61, 27
3, 148914, Note_on_c, 0, 65, 36
3, 149025, Note_on_c, 0, 65, 0
3, 149060, Note_on_c, 0, 61, 0
3, 149116, Note_on_c, 0, 73, 59
3, 149154, Note_on_c, 0, 72, 0
3, 149275, Note_on_c, 0, 75, 57
3, 149313, Note_on_c, 0, 73, 0
3, 149377, Note_on_c, 0, 75, 0
3, 149393, Note_on_c, 0, 76, 64
3, 149528, Note_on_c, 0, 76, 0
3, 149552, Note_on_c, 0, 77, 58
3, 149679, Note_on_c, 0, 78, 54
3, 149686, Note_on_c, 0, 77, 0
3, 149781, Note_on_c, 0, 78, 0
3, 149802, Note_on_c, 0, 79, 53
3, 149911, Note_on_c, 0, 80, 53
3, 149935, Note_on_c, 0, 79, 0
3, 149977, Note_on_c, 0, 64, 8
3, 149986, Note_on_c, 0, 57, 18
3, 150077, Note_on_c, 0, 80, 0
3, 150085, Note_on_c, 0, 81, 53
3, 150191, Note_on_c, 0, 57, 0
3, 150192, Note_on_c, 0, 64, 0
3, 150243, Note_on_c, 0, 81, 0
3, 150279, Note_on_c, 0, 84, 74
3, 150298, Note_on_c, 0, 72, 66
3, 150716, Note_on_c, 0, 64, 42
3, 150732, Note_on_c, 0, 81, 67
3, 150736, Note_on_c, 0, 57, 35
3, 150738, Note_on_c, 0, 60, 32
3, 150786, Note_on_c, 0, 64, 0
3, 150908, Note_on_c, 0, 60, 0
3, 150922, Note_on_c, 0, 84, 0
3, 150956, Note_on_c, 0, 72, 0
3, 151033, Note_on_c, 0, 77, 58
3, 151187, Note_on_c, 0, 81, 0
3, 151338, Control_c, 0, 64, 127
3, 151349, Control_c, 0, 64, 0
3, 151361, Control_c, 0, 64, 127
3, 151366, Note_on_c, 0, 72, 55
3, 151375, Note_on_c, 0, 77, 0
3, 151435, Note_on_c, 0, 57, 0
3, 151628, Note_on_c, 0, 72, 0
3, 151637, Control_c, 0, 64, 0
3, 151751, Note_on_c, 0, 64, 37
3, 151754, Note_on_c, 0, 59, 27
3, 151761, Note_on_c, 0, 71, 55
3, 151771, Note_on_c, 0, 83, 57
3, 151791, Note_on_c, 0, 53, 29
3, 152216, Note_on_c, 0, 71, 0
3, 152387, Control_c, 0, 64, 127
3, 152483, Note_on_c, 0, 83, 0
3, 152639, Control_c, 0, 64, 0
3, 152672, Note_on_c, 0, 64, 0
3, 152748, Note_on_c, 0, 83, 85
3, 152795, Note_on_c, 0, 53, 0
3, 152796, Note_on_c, 0, 59, 0
3, 152984, Note_on_c, 0, 84, 59
3, 153041, Note_on_c, 0, 83, 0
3, 153092, Note_on_c, 0, 85, 64
3, 153158, Note_on_c, 0, 84, 0
3, 153210, Note_on_c, 0, 86, 82
3, 153269, Note_on_c, 0, 85, 0
3, 153424, Note_on_c, 0, 86, 0
3, 153450, Note_on_c, 0, 79, 58
3, 153690, Note_on_c, 0, 81, 34
3, 153784, Note_on_c, 0, 82, 51
3, 153792, Note_on_c, 0, 79, 0
3, 153877, Note_on_c, 0, 81, 0
3, 153932, Note_on_c, 0, 83, 77
3, 153998, Note_on_c, 0, 82, 0
3, 154103, Note_on_c, 0, 83, 0
3, 154168, Note_on_c, 0, 74, 54
3, 154369, Note_on_c, 0, 75, 35
3, 154484, Note_on_c, 0, 74, 0
3, 154506, Note_on_c, 0, 76, 55
3, 154544, Note_on_c, 0, 75, 0
3, 154616, Note_on_c, 0, 76, 0
3, 154637, Note_on_c, 0, 77, 71
3, 155020, Note_on_c, 0, 76, 74
3, 155354, Note_on_c, 0, 77, 0
3, 155475, Note_on_c, 0, 76, 0
3, 155537, Note_on_c, 0, 73, 57
3, 156084, Note_on_c, 0, 69, 52
3, 156436, Note_on_c, 0, 69, 0
3, 156577, Note_on_c, 0, 61, 34
3, 156582, Note_on_c, 0, 64, 44
3, 156583, Note_on_c, 0, 69, 35
3, 156669, Note_on_c, 0, 73, 0
3, 156685, Note_on_c, 0, 64, 0
3, 156713, Note_on_c, 0, 61, 0
3, 158368, Note_on_c, 0, 69, 0
3, 158578, Note_on_c, 0, 69, 68
3, 158798, Note_on_c, 0, 70, 58
3, 158858, Note_on_c, 0, 69, 0
3, 158879, Note_on_c, 0, 71, 67
3, 158920, Note_on_c, 0, 70, 0
3, 159011, Note_on_c, 0, 72, 71
3, 159054, Note_on_c, 0, 71, 0
3, 159167, Note_on_c, 0, 72, 0
3, 159290, Note_on_c, 0, 66, 70
3, 159473, Note_on_c, 0, 66, 0
3, 159635, Note_on_c, 0, 65, 68
3, 160927, Note_on_c, 0, 62, 48
3, 160928, Note_on_c, 0, 65, 0
3, 161187, Note_on_c, 0, 63, 63
3, 161197, Note_on_c, 0, 62, 0
3, 161361, Note_on_c, 0, 63, 0
3, 161426, Note_on_c, 0, 64, 62
3, 161602, Note_on_c, 0, 64, 0
3, 161676, Note_on_c, 0, 67, 59
3, 161828, Note_on_c, 0, 67, 0
3, 161908, Note_on_c, 0, 71, 50
3, 162113, Note_on_c, 0, 71, 0
3, 162166, Note_on_c, 0, 74, 66
3, 162331, Note_on_c, 0, 74, 0
3, 162430, Note_on_c, 0, 71, 46
3, 162667, Note_on_c, 0, 71, 0
3, 162830, Note_on_c, 0, 71, 45
3, 163051, Note_on_c, 0, 71, 0
3, 163110, Note_on_c, 0, 67, 44
3, 163220, Note_on_c, 0, 67, 0
3, 163312, Note_on_c, 0, 69, 32
3, 163643, Note_on_c, 0, 69, 0
3, 163759, Note_on_c, 0, 69, 58
3, 163956, Note_on_c, 0, 69, 0
3, 164258, Note_on_c, 0, 77, 71
3, 164661, Note_on_c, 0, 77, 0
3, 164704, Note_on_c, 0, 69, 50
3, 164865, Note_on_c, 0, 69, 0
3, 165018, Note_on_c, 0, 69, 45
3, 165122, Note_on_c, 0, 69, 0
3, 165220, Note_on_c, 0, 67, 66
3, 165517, Note_on_c, 0, 67, 0
3, 165660, Note_on_c, 0, 67, 51
3, 165829, Note_on_c, 0, 67, 0
3, 165927, Note_on_c, 0, 67, 58
3, 166050, Note_on_c, 0, 67, 0
3, 166150, Note_on_c, 0, 74, 79
3, 166583, Note_on_c, 0, 67, 51
3, 166733, Note_on_c, 0, 67, 0
3, 166854, Note_on_c, 0, 67, 44
3, 166868, Note_on_c, 0, 74, 0
3, 167037, Note_on_c, 0, 67, 0
3, 168546, Note_on_c, 0, 73, 71
3, 168576, Note_on_c, 0, 61, 40
3, 168586, Note_on_c, 0, 64, 46
3, 168637, Note_on_c, 0, 64, 0
3, 168705, Note_on_c, 0, 61, 0
3, 168708, Note_on_c, 0, 73, 0
3, 168801, Note_on_c, 0, 74, 80
3, 168943, Note_on_c, 0, 74, 0
3, 169010, Note_on_c, 0, 76, 83
3, 169290, Note_on_c, 0, 76, 0
3, 169334, Note_on_c, 0, 72, 33
3, 169463, Note_on_c, 0, 72, 0
3, 169500, Note_on_c, 0, 74, 84
3, 169747, Note_on_c, 0, 74, 0
3, 169800, Note_on_c, 0, 72, 69
3, 169853, Note_on_c, 0, 74, 34
3, 169910, Note_on_c, 0, 74, 0
3, 169976, Note_on_c, 0, 72, 0
3, 170033, Note_on_c, 0, 74, 38
3, 170056, Note_on_c, 0, 69, 61
3, 170316, Note_on_c, 0, 74, 0
3, 170337, Note_on_c, 0, 69, 0
3, 170357, Note_on_c, 0, 65, 60
3, 170588, Note_on_c, 0, 65, 0
3, 170608, Note_on_c, 0, 64, 64
3, 170874, Note_on_c, 0, 64, 0
3, 170917, Note_on_c, 0, 62, 51
3, 171581, Note_on_c, 0, 62, 0
3, 173674, Note_on_c, 0, 59, 17
3, 173870, Note_on_c, 0, 59, 0
3, 173893, Note_on_c, 0, 88, 91
3, 173935, Note_on_c, 0, 86, 30
3, 173982, Note_on_c, 0, 86, 0
3, 174145, Note_on_c, 0, 87, 67
3, 174200, Note_on_c, 0, 88, 0
3, 174256, Note_on_c, 0, 87, 0
3, 174262, Note_on_c, 0, 86, 62
3, 174450, Note_on_c, 0, 85, 68
3, 174464, Note_on_c, 0, 86, 0
3, 174789, Note_on_c, 0, 88, 80
3, 174790, Note_on_c, 0, 85, 0
3, 174991, Note_on_c, 0, 88, 0
3, 175083, Note_on_c, 0, 86, 75
3, 175309, Note_on_c, 0, 86, 0
3, 175692, Note_on_c, 0, 83, 78
3, 175951, Note_on_c, 0, 83, 0
3, 176030, Note_on_c, 0, 79, 57
3, 176215, Note_on_c, 0, 79, 0
3, 176276, Note_on_c, 0, 76, 50
3, 176435, Note_on_c, 0, 76, 0
3, 176511, Note_on_c, 0, 74, 55
3, 176716, Note_on_c, 0, 74, 0
3, 176830, Note_on_c, 0, 72, 57
3, 177156, Note_on_c, 0, 72, 0
3, 177157, Note_on_c, 0, 71, 58
3, 177368, Note_on_c, 0, 71, 0
3, 177413, Note_on_c, 0, 74, 66
3, 177672, Note_on_c, 0, 71, 42
3, 177677, Note_on_c, 0, 74, 0
3, 177879, Note_on_c, 0, 71, 0
3, 177932, Note_on_c, 0, 72, 58
3, 178133, Note_on_c, 0, 72, 0
3, 178171, Note_on_c, 0, 67, 50
3, 178387, Note_on_c, 0, 67, 0
3, 178500, Note_on_c, 0, 67, 47
3, 178709, Note_on_c, 0, 67, 0
3, 178812, Note_on_c, 0, 67, 51
3, 179968, Note_on_c, 0, 67, 0
3, 183442, Note_on_c, 0, 81, 90
3, 183662, Note_on_c, 0, 81, 0
3, 183719, Note_on_c, 0, 79, 59
3, 183986, Note_on_c, 0, 72, 54
3, 184019, Note_on_c, 0, 79, 0
3, 184262, Note_on_c, 0, 73, 53
3, 184432, Note_on_c, 0, 72, 0
3, 184518, Note_on_c, 0, 73, 0
3, 184562, Note_on_c, 0, 79, 68
3, 184849, Note_on_c, 0, 79, 0
3, 184914, Note_on_c, 0, 77, 74
3, 185186, Note_on_c, 0, 77, 0
3, 185670, Note_on_c, 0, 73, 53
3, 185876, Note_on_c, 0, 73, 0
3, 185905, Note_on_c, 0, 76, 75
3, 186133, Note_on_c, 0, 76, 0
3, 186185, Note_on_c, 0, 74, 75
3, 186408, Note_on_c, 0, 74, 0
3, 186435, Note_on_c, 0, 69, 57
3, 186620, Note_on_c, 0, 69, 0
3, 186707, Note_on_c, 0, 65, 48
3, 186989, Note_on_c, 0, 65, 0
3, 187008, Note_on_c, 0, 62, 37
3, 187165, Note_on_c, 0, 62, 0
3, 187261, Note_on_c, 0, 69, 63
3, 188102, Note_on_c, 0, 67, 54
3, 188154, Note_on_c, 0, 69, 0
3, 188313, Note_on_c, 0, 67, 0
3, 188357, Note_on_c, 0, 66, 49
3, 188639, Note_on_c, 0, 66, 0
3, 188639, Note_on_c, 0, 67, 61
3, 189143, Note_on_c, 0, 67, 0
3, 189334, Note_on_c, 0, 67, 64
3, 190595, Note_on_c, 0, 67, 0
3, 191413, Note_on_c, 0, 89, 82
3, 191581, Note_on_c, 0, 89, 0
3, 191612, Note_on_c, 0, 86, 68
3, 191771, Note_on_c, 0, 86, 0
3, 191839, Note_on_c, 0, 87, 69
3, 192041, Note_on_c, 0, 84, 64
3, 192200, Note_on_c, 0, 87, 0
3, 192244, Note_on_c, 0, 84, 0
3, 192274, Note_on_c, 0, 81, 46
3, 192302, Note_on_c, 0, 83, 24
3, 192344, Note_on_c, 0, 83, 0
3, 192500, Note_on_c, 0, 79, 44
3, 192523, Note_on_c, 0, 81, 0
3, 192676, Note_on_c, 0, 79, 0
3, 192739, Note_on_c, 0, 86, 76
3, 192990, Note_on_c, 0, 86, 0
3, 193076, Note_on_c, 0, 81, 22
3, 193132, Note_on_c, 0, 81, 0
3, 193183, Note_on_c, 0, 84, 78
3, 193419, Note_on_c, 0, 81, 65
3, 193480, Note_on_c, 0, 84, 0
3, 193642, Note_on_c, 0, 77, 63
3, 193703, Note_on_c, 0, 81, 0
3, 193849, Note_on_c, 0, 74, 50
3, 193877, Note_on_c, 0, 77, 0
3, 194072, Note_on_c, 0, 74, 0
3, 194114, Note_on_c, 0, 82, 69
3, 194355, Note_on_c, 0, 82, 0
3, 194355, Note_on_c, 0, 80, 34
3, 194478, Note_on_c, 0, 80, 0
3, 194536, Note_on_c, 0, 82, 69
3, 194577, Note_on_c, 0, 64, 36
3, 194583, Note_on_c, 0, 59, 31
3, 194603, Note_on_c, 0, 53, 34
3, 194780, Note_on_c, 0, 80, 47
3, 194996, Note_on_c, 0, 75, 43
3, 195061, Note_on_c, 0, 82, 0
3, 195110, Note_on_c, 0, 80, 0
3, 195240, Note_on_c, 0, 71, 54
3, 195252, Note_on_c, 0, 75, 0
3, 195427, Note_on_c, 0, 71, 0
3, 195451, Note_on_c, 0, 70, 55
3, 195515, Note_on_c, 0, 64, 0
3, 195617, Note_on_c, 0, 53, 0
3, 195660, Note_on_c, 0, 70, 0
3, 195686, Note_on_c, 0, 59, 0
3, 195690, Note_on_c, 0, 68, 60
3, 195864, Note_on_c, 0, 68, 0
3, 195906, Note_on_c, 0, 55, 26
3, 195917, Note_on_c, 0, 59, 24
3, 195922, Note_on_c, 0, 67, 62
3, 195927, Note_on_c, 0, 52, 26
3, 195937, Note_on_c, 0, 62, 24
3, 196085, Note_on_c, 0, 62, 0
3, 196147, Note_on_c, 0, 52, 0
3, 196152, Note_on_c, 0, 59, 0
3, 196158, Note_on_c, 0, 55, 0
3, 196207, Note_on_c, 0, 67, 0
3, 196237, Note_on_c, 0, 64, 58
3, 196420, Note_on_c, 0, 64, 0
3, 196544, Note_on_c, 0, 64, 68
3, 196801, Note_on_c, 0, 64, 0
3, 196913, Note_on_c, 0, 64, 60
3, 198386, Note_on_c, 0, 64, 0
3, 198789, Note_on_c, 0, 69, 72
3, 198808, Note_on_c, 0, 71, 41
3, 198920, Note_on_c, 0, 71, 0
3, 198975, Note_on_c, 0, 69, 0
3, 199036, Note_on_c, 0, 70, 62
3, 199231, Note_on_c, 0, 70, 0
3, 199277, Note_on_c, 0, 72, 65
3, 199484, Note_on_c, 0, 72, 0
3, 199533, Note_on_c, 0, 75, 71
3, 199675, Note_on_c, 0, 75, 0
3, 199785, Note_on_c, 0, 76, 64
3, 199804, Note_on_c, 0, 74, 40
3, 199862, Note_on_c, 0, 74, 0
3, 200008, Note_on_c, 0, 76, 0
3, 200056, Note_on_c, 0, 79, 70
3, 200223, Note_on_c, 0, 79, 0
3, 200285, Note_on_c, 0, 77, 68
3, 200464, Note_on_c, 0, 77, 0
3, 200544, Note_on_c, 0, 76, 64
3, 200766, Note_on_c, 0, 76, 0
3, 200806, Note_on_c, 0, 72, 59
3, 201124, Note_on_c, 0, 69, 40
3, 201176, Note_on_c, 0, 72, 0
3, 201599, Note_on_c, 0, 69, 0
3, 201661, Note_on_c, 0, 71, 74
3, 202077, Note_on_c, 0, 71, 0
3, 202141, Note_on_c, 0, 72, 43
3, 202192, Note_on_c, 0, 72, 0
3, 202218, Note_on_c, 0, 74, 38
3, 202288, Note_on_c, 0, 74, 0
3, 202298, Note_on_c, 0, 76, 45
3, 202360, Note_on_c, 0, 76, 0
3, 202384, Note_on_c, 0, 77, 54
3, 202427, Note_on_c, 0, 77, 0
3, 202468, Note_on_c, 0, 79, 53
3, 202511, Note_on_c, 0, 79, 0
3, 202555, Note_on_c, 0, 81, 58
3, 202598, Note_on_c, 0, 81, 0
3, 202607, Note_on_c, 0, 83, 58
3, 202668, Note_on_c, 0, 83, 0
3, 202685, Note_on_c, 0, 84, 62
3, 202726, Note_on_c, 0, 84, 0
3, 202751, Note_on_c, 0, 86, 58
3, 202825, Note_on_c, 0, 88, 50
3, 202840, Note_on_c, 0, 86, 0
3, 203262, Note_on_c, 0, 88, 0
3, 203393, Note_on_c, 0, 88, 42
3, 203395, Note_on_c, 0, 86, 52
3, 203575, Note_on_c, 0, 88, 0
3, 203711, Note_on_c, 0, 64, 39
3, 203751, Note_on_c, 0, 60, 32
3, 203770, Note_on_c, 0, 59, 13
3, 203793, Note_on_c, 0, 86, 0
3, 203946, Note_on_c, 0, 84, 64
3, 204218, Note_on_c, 0, 84, 0
3, 204227, Note_on_c, 0, 86, 64
3, 204346, Note_on_c, 0, 84, 40
3, 204389, Note_on_c, 0, 86, 0
3, 204474, Note_on_c, 0, 83, 65
3, 204519, Note_on_c, 0, 84, 0
3, 204616, Note_on_c, 0, 83, 0
3, 204658, Note_on_c, 0, 84, 79
3, 204977, Note_on_c, 0, 60, 0
3, 205000, Note_on_c, 0, 59, 0
3, 205007, Note_on_c, 0, 64, 0
3, 206407, Note_on_c, 0, 83, 78
3, 206416, Note_on_c, 0, 84, 0
3, 206601, Note_on_c, 0, 83, 0
3, 206681, Note_on_c, 0, 84, 64
3, 206847, Note_on_c, 0, 84, 0
3, 206952, Note_on_c, 0, 86, 84
3, 207393, Note_on_c, 0, 54, 42
3, 207403, Note_on_c, 0, 64, 35
3, 207404, Note_on_c, 0, 60, 35
3, 207415, Note_on_c, 0, 83, 77
3, 207434, Note_on_c, 0, 86, 0
3, 207463, Note_on_c, 0, 64, 0
3, 207465, Note_on_c, 0, 60, 0
3, 207493, Note_on_c, 0, 54, 0
3, 207673, Note_on_c, 0, 83, 0
3, 207756, Note_on_c, 0, 84, 42
3, 207856, Note_on_c, 0, 84, 0
3, 208042, Note_on_c, 0, 86, 74
3, 208304, Note_on_c, 0, 86, 0
3, 208374, Note_on_c, 0, 83, 57
3, 208480, Note_on_c, 0, 83, 0
3, 208692, Note_on_c, 0, 84, 42
3, 208751, Note_on_c, 0, 84, 0
3, 208973, Note_on_c, 0, 86, 66
3, 209120, Note_on_c, 0, 86, 0
3, 209272, Note_on_c, 0, 62, 32
3, 209273, Note_on_c, 0, 51, 33
3, 209300, Note_on_c, 0, 57, 36
3, 209301, Note_on_c, 0, 87, 51
3, 209338, Note_on_c, 0, 62, 0
3, 209361, Note_on_c, 0, 51, 0
3, 209371, Note_on_c, 0, 57, 0
3, 209545, Note_on_c, 0, 87, 0
3, 209607, Note_on_c, 0, 89, 38
3, 209739, Note_on_c, 0, 89, 0
3, 209934, Note_on_c, 0, 90, 51
3, 210101, Note_on_c, 0, 90, 0
3, 210927, Note_on_c, 0, 91, 59
3, 211073, Note_on_c, 0, 91, 0
3, 211309, Note_on_c, 0, 92, 51
3, 211325, Note_on_c, 0, 52, 32
3, 211331, Note_on_c, 0, 59, 31
3, 211496, Note_on_c, 0, 52, 0
3, 211512, Note_on_c, 0, 59, 0
3, 211645, Note_on_c, 0, 92, 0
3, 211925, Note_on_c, 0, 92, 64
3, 212078, Note_on_c, 0, 92, 0
3, 212309, Note_on_c, 0, 92, 59
3, 212873, Note_on_c, 0, 92, 0
3, 213243, Note_on_c, 0, 91, 84
3, 213428, Note_on_c, 0, 91, 0
3, 213428, Note_on_c, 0, 90, 55
3, 213547, Note_on_c, 0, 89, 37
3, 213631, Note_on_c, 0, 90, 0
3, 213683, Note_on_c, 0, 88, 58
3, 213706, Note_on_c, 0, 89, 0
3, 213835, Note_on_c, 0, 88, 0
3, 213932, Note_on_c, 0, 89, 74
3, 214172, Note_on_c, 0, 88, 56
3, 214216, Note_on_c, 0, 89, 0
3, 214270, Note_on_c, 0, 87, 48
3, 214325, Note_on_c, 0, 88, 0
3, 214424, Note_on_c, 0, 86, 40
3, 214489, Note_on_c, 0, 87, 0
3, 214567, Note_on_c, 0, 86, 0
3, 214657, Note_on_c, 0, 88, 79
3, 214851, Note_on_c, 0, 87, 36
3, 214887, Note_on_c, 0, 88, 0
3, 214973, Note_on_c, 0, 87, 0
3, 214987, Note_on_c, 0, 86, 49
3, 215044, Note_on_c, 0, 86, 0
3, 215280, Note_on_c, 0, 88, 77
3, 215704, Note_on_c, 0, 83, 62
3, 216001, Note_on_c, 0, 83, 0
3, 216041, Note_on_c, 0, 88, 0
3, 216092, Note_on_c, 0, 79, 34
3, 216680, Note_on_c, 0, 79, 0
3, 219470, Note_on_c, 0, 88, 81
3, 219688, Note_on_c, 0, 88, 0
3, 219883, Note_on_c, 0, 93, 108
3, 220119, Note_on_c, 0, 93, 0
3, 220222, Note_on_c, 0, 93, 90
3, 220451, Note_on_c, 0, 93, 0
3, 220574, Note_on_c, 0, 83, 33
3, 220661, Note_on_c, 0, 83, 0
3, 220905, Note_on_c, 0, 79, 63
3, 220907, Note_on_c, 0, 91, 82
3, 220925, Note_on_c, 0, 64, 31
3, 220960, Note_on_c, 0, 59, 27
3, 220988, Note_on_c, 0, 53, 19
3, 221249, Note_on_c, 0, 53, 0
3, 221309, Note_on_c, 0, 64, 0
3, 221372, Note_on_c, 0, 79, 0
3, 221373, Note_on_c, 0, 91, 0
3, 221375, Note_on_c, 0, 59, 0
3, 221544, Note_on_c, 0, 91, 73
3, 221557, Note_on_c, 0, 79, 46
3, 221687, Note_on_c, 0, 79, 0
3, 221743, Note_on_c, 0, 91, 0
3, 223140, Note_on_c, 0, 55, 40
3, 223157, Note_on_c, 0, 77, 31
3, 223176, Note_on_c, 0, 79, 22
3, 223257, Note_on_c, 0, 77, 0
3, 223281, Note_on_c, 0, 79, 0
3, 223336, Note_on_c, 0, 80, 36
3, 223381, Note_on_c, 0, 55, 0
3, 223419, Note_on_c, 0, 56, 25
3, 223454, Note_on_c, 0, 80, 0
3, 223471, Note_on_c, 0, 81, 62
3, 223472, Note_on_c, 0, 56, 0
3, 223477, Note_on_c, 0, 57, 55
3, 223593, Note_on_c, 0, 81, 0
3, 223638, Note_on_c, 0, 82, 56
3, 223640, Note_on_c, 0, 58, 56
3, 223655, Note_on_c, 0, 57, 0
3, 223712, Note_on_c, 0, 82, 0
3, 223760, Note_on_c, 0, 83, 62
3, 223788, Note_on_c, 0, 59, 51
3, 223811, Note_on_c, 0, 58, 0
3, 223841, Note_on_c, 0, 59, 0
3, 223845, Note_on_c, 0, 84, 44
3, 223853, Note_on_c, 0, 83, 0
3, 223868, Note_on_c, 0, 60, 32
3, 223991, Note_on_c, 0, 84, 0
3, 224002, Note_on_c, 0, 85, 33
3, 224041, Note_on_c, 0, 61, 30
3, 224060, Note_on_c, 0, 86, 51
3, 224061, Note_on_c, 0, 85, 0
3, 224085, Note_on_c, 0, 60, 0
3, 224191, Note_on_c, 0, 62, 18
3, 224224, Note_on_c, 0, 87, 57
3, 224238, Note_on_c, 0, 61, 0
3, 224276, Note_on_c, 0, 86, 0
3, 224302, Note_on_c, 0, 62, 0
3, 224303, Note_on_c, 0, 87, 0
3, 224342, Note_on_c, 0, 64, 80
3, 224355, Note_on_c, 0, 88, 87
3, 225384, Note_on_c, 0, 63, 75
3, 225384, Note_on_c, 0, 87, 87
3, 225420, Note_on_c, 0, 88, 0
3, 225431, Note_on_c, 0, 64, 0
3, 225682, Note_on_c, 0, 87, 0
3, 225717, Note_on_c, 0, 88, 73
3, 225721, Note_on_c, 0, 64, 68
3, 225737, Note_on_c, 0, 63, 0
3, 225915, Note_on_c, 0, 88, 0
3, 225980, Note_on_c, 0, 64, 0
3, 226148, Note_on_c, 0, 83, 58
3, 226324, Note_on_c, 0, 83, 0
3, 226416, Note_on_c, 0, 86, 68
3, 226456, Note_on_c, 0, 62, 45
3, 226624, Note_on_c, 0, 86, 0
3, 226692, Note_on_c, 0, 62, 0
3, 226739, Note_on_c, 0, 84, 58
3, 226764, Note_on_c, 0, 60, 47
3, 226999, Note_on_c, 0, 83, 55
3, 227009, Note_on_c, 0, 59, 58
3, 227020, Note_on_c, 0, 60, 0
3, 227020, Note_on_c, 0, 84, 0
3, 227283, Note_on_c, 0, 83, 0
3, 227317, Note_on_c, 0, 59, 0
3, 227562, Note_on_c, 0, 59, 56
3, 227563, Note_on_c, 0, 83, 66
3, 228439, Note_on_c, 0, 83, 0
3, 228515, Note_on_c, 0, 59, 0
3, 228564, Note_on_c, 0, 58, 53
3, 228574, Note_on_c, 0, 82, 56
3, 231170, Note_on_c, 0, 82, 0
3, 231399, Note_on_c, 0, 58, 0
3, 231429, Note_on_c, 0, 61, 19
3, 231472, Note_on_c, 0, 86, 91
3, 231475, Note_on_c, 0, 62, 74
3, 231492, Note_on_c, 0, 61, 0
3, 231670, Note_on_c, 0, 61, 56
3, 231712, Note_on_c, 0, 85, 50
3, 231742, Note_on_c, 0, 62, 0
3, 231744, Note_on_c, 0, 86, 0
3, 231811, Note_on_c, 0, 61, 0
3, 231870, Note_on_c, 0, 84, 28
3, 231873, Note_on_c, 0, 85, 0
3, 231943, Note_on_c, 0, 60, 31
3, 231972, Note_on_c, 0, 83, 43
3, 232009, Note_on_c, 0, 60, 0
3, 232018, Note_on_c, 0, 84, 0
3, 232047, Note_on_c, 0, 58, 32
3, 232103, Note_on_c, 0, 82, 56
3, 232106, Note_on_c, 0, 83, 0
3, 232192, Note_on_c, 0, 58, 0
3, 232248, Note_on_c, 0, 81, 68
3, 232248, Note_on_c, 0, 57, 59
3, 232292, Note_on_c, 0, 82, 0
3, 232652, Note_on_c, 0, 81, 0
3, 232692, Note_on_c, 0, 80, 60
3, 232698, Note_on_c, 0, 56, 70
3, 232736, Note_on_c, 0, 57, 0
3, 233053, Note_on_c, 0, 80, 0
3, 233090, Note_on_c, 0, 81, 65
3, 233115, Note_on_c, 0, 57, 63
3, 233138, Note_on_c, 0, 56, 0
3, 233359, Note_on_c, 0, 81, 0
3, 233421, Note_on_c, 0, 80, 45
3, 233430, Note_on_c, 0, 56, 60
3, 233433, Note_on_c, 0, 57, 0
3, 233699, Note_on_c, 0, 80, 0
3, 233745, Note_on_c, 0, 81, 55
3, 233759, Note_on_c, 0, 56, 0
3, 233759, Note_on_c, 0, 57, 62
3, 234094, Note_on_c, 0, 56, 52
3, 234156, Note_on_c, 0, 57, 0
3, 234167, Note_on_c, 0, 80, 44
3, 234191, Note_on_c, 0, 81, 0
3, 234227, Note_on_c, 0, 56, 0
3, 234243, Note_on_c, 0, 55, 44
3, 234256, Note_on_c, 0, 80, 0
3, 234320, Note_on_c, 0, 79, 27
3, 234353, Note_on_c, 0, 54, 39
3, 234379, Note_on_c, 0, 78, 47
3, 234383, Note_on_c, 0, 55, 0
3, 234388, Note_on_c, 0, 79, 0
3, 234491, Note_on_c, 0, 54, 0
3, 234528, Note_on_c, 0, 78, 0
3, 234558, Note_on_c, 0, 77, 44
3, 234670, Note_on_c, 0, 52, 33
3, 234689, Note_on_c, 0, 76, 46
3, 234696, Note_on_c, 0, 77, 0
3, 234947, Note_on_c, 0, 76, 0
3, 234977, Note_on_c, 0, 52, 0
3, 235053, Note_on_c, 0, 76, 54
3, 235092, Note_on_c, 0, 52, 38
3, 235298, Note_on_c, 0, 52, 0
3, 235315, Note_on_c, 0, 76, 0
3, 235409, Note_on_c, 0, 76, 58
3, 235423, Note_on_c, 0, 52, 36
3, 235667, Note_on_c, 0, 76, 0
3, 235670, Note_on_c, 0, 52, 0
3, 235793, Note_on_c, 0, 76, 53
3, 235820, Note_on_c, 0, 52, 45
3, 236021, Note_on_c, 0, 52, 0
3, 236049, Note_on_c, 0, 76, 0
3, 236220, Note_on_c, 0, 76, 58
3, 236231, Note_on_c, 0, 52, 44
3, 237061, Note_on_c, 0, 52, 0
3, 238137, Note_on_c, 0, 76, 0
3, 240183, Note_on_c, 0, 88, 92
3, 240451, Note_on_c, 0, 88, 0
3, 240575, Note_on_c, 0, 86, 83
3, 240998, Note_on_c, 0, 86, 0
3, 241129, Note_on_c, 0, 77, 67
3, 241424, Note_on_c, 0, 77, 0
3, 241585, Note_on_c, 0, 80, 71
3, 242007, Note_on_c, 0, 80, 0
3, 242115, Note_on_c, 0, 88, 82
3, 242448, Note_on_c, 0, 88, 0
3, 242578, Note_on_c, 0, 61, 39
3, 242581, Note_on_c, 0, 65, 45
3, 242584, Note_on_c, 0, 55, 36
3, 242594, Note_on_c, 0, 86, 70
3, 242978, Note_on_c, 0, 86, 0
3, 243071, Note_on_c, 0, 85, 70
3, 243509, Note_on_c, 0, 85, 0
3, 243583, Note_on_c, 0, 84, 77
3, 243914, Note_on_c, 0, 65, 0
3, 243915, Note_on_c, 0, 55, 0
3, 243918, Note_on_c, 0, 84, 0
3, 243997, Note_on_c, 0, 61, 0
3, 244069, Note_on_c, 0, 83, 72
3, 244388, Note_on_c, 0, 83, 0
3, 244522, Note_on_c, 0, 82, 71
3, 244899, Note_on_c, 0, 82, 0
3, 244984, Note_on_c, 0, 61, 31
3, 245001, Note_on_c, 0, 65, 49
3, 245002, Note_on_c, 0, 81, 71
3, 245011, Note_on_c, 0, 55, 33
3, 245253, Note_on_c, 0, 81, 0
3, 245266, Note_on_c, 0, 65, 0
3, 245386, Note_on_c, 0, 61, 0
3, 245414, Note_on_c, 0, 55, 0
3, 245475, Note_on_c, 0, 80, 68
3, 245618, Note_on_c, 0, 80, 0
3, 245962, Note_on_c, 0, 79, 60
3, 245966, Note_on_c, 0, 69, 63
3, 245968, Note_on_c, 0, 72, 60
3, 245981, Note_on_c, 0, 64, 68
3, 246198, Note_on_c, 0, 79, 0
3, 246224, Note_on_c, 0, 72, 0
3, 246228, Note_on_c, 0, 69, 0
3, 246333, Note_on_c, 0, 64, 0
3, 246400, Note_on_c, 0, 77, 64
3, 246405, Note_on_c, 0, 63, 56
3, 246406, Note_on_c, 0, 72, 64
3, 246415, Note_on_c, 0, 69, 53
3, 246606, Note_on_c, 0, 77, 0
3, 246634, Note_on_c, 0, 72, 0
3, 246678, Note_on_c, 0, 69, 0
3, 246836, Note_on_c, 0, 63, 0
3, 246863, Note_on_c, 0, 69, 54
3, 246869, Note_on_c, 0, 76, 58
3, 246893, Note_on_c, 0, 62, 49
3, 247256, Note_on_c, 0, 69, 0
3, 247275, Note_on_c, 0, 76, 0
3, 247301, Note_on_c, 0, 62, 0
3, 247329, Note_on_c, 0, 72, 53
3, 247331, Note_on_c, 0, 61, 53
3, 247354, Note_on_c, 0, 69, 22
3, 247365, Note_on_c, 0, 65, 38
3, 247466, Note_on_c, 0, 72, 0
3, 247496, Note_on_c, 0, 69, 0
3, 247548, Note_on_c, 0, 65, 0
3, 247744, Note_on_c, 0, 61, 0
3, 247809, Note_on_c, 0, 60, 36
3, 247813, Note_on_c, 0, 65, 55
3, 247817, Note_on_c, 0, 69, 44
3, 248225, Note_on_c, 0, 60, 0
3, 248323, Note_on_c, 0, 57, 58
3, 248488, Note_on_c, 0, 65, 0
3, 248721, Note_on_c, 0, 69, 0
3, 248753, Note_on_c, 0, 65, 56
3, 248770, Note_on_c, 0, 60, 38
3, 248774, Note_on_c, 0, 57, 0
3, 248994, Note_on_c, 0, 65, 0
3, 249046, Note_on_c, 0, 60, 0
3, 249213, Note_on_c, 0, 38, 46
3, 249284, Note_on_c, 0, 38, 0
3, 249692, Note_on_c, 0, 43, 33
3, 249695, Note_on_c, 0, 31, 35
3, 249706, Note_on_c, 0, 57, 49
3, 249719, Note_on_c, 0, 60, 34
3, 249724, Note_on_c, 0, 53, 32
3, 249779, Note_on_c, 0, 53, 0
3, 249801, Note_on_c, 0, 60, 0
3, 249813, Note_on_c, 0, 57, 0
3, 249813, Note_on_c, 0, 43, 0
3, 249822, Note_on_c, 0, 31, 0
3, 250169, Note_on_c, 0, 43, 39
3, 250170, Note_on_c, 0, 57, 45
3, 250177, Note_on_c, 0, 60, 35
3, 250182, Note_on_c, 0, 31, 38
3, 250192, Note_on_c, 0, 53, 26
3, 250240, Note_on_c, 0, 53, 0
3, 250251, Note_on_c, 0, 60, 0
3, 250255, Note_on_c, 0, 31, 0
3, 250258, Note_on_c, 0, 57, 0
3, 250259, Note_on_c, 0, 43, 0
3, 250632, Note_on_c, 0, 57, 52
3, 250633, Note_on_c, 0, 31, 41
3, 250637, Note_on_c, 0, 43, 46
3, 250648, Note_on_c, 0, 60, 35
3, 250668, Note_on_c, 0, 53, 24
3, 250717, Note_on_c, 0, 53, 0
3, 250758, Note_on_c, 0, 31, 0
3, 250766, Note_on_c, 0, 43, 0
3, 250769, Note_on_c, 0, 57, 0
3, 250794, Note_on_c, 0, 60, 0
3, 251120, Note_on_c, 0, 60, 58
3, 251222, Note_on_c, 0, 60, 0
3, 251593, Note_on_c, 0, 60, 69
3, 251970, Note_on_c, 0, 60, 0
3, 252021, Note_on_c, 0, 59, 30
3, 252045, Note_on_c, 0, 62, 60
3, 252046, Note_on_c, 0, 43, 32
3, 252056, Note_on_c, 0, 53, 34
3, 252256, Note_on_c, 0, 43, 0
3, 252265, Note_on_c, 0, 53, 0
3, 252274, Note_on_c, 0, 62, 0
3, 252282, Note_on_c, 0, 59, 0
3, 252530, Note_on_c, 0, 43, 31
3, 252534, Note_on_c, 0, 59, 34
3, 252548, Note_on_c, 0, 53, 28
3, 252550, Note_on_c, 0, 62, 54
3, 253003, Note_on_c, 0, 64, 54
3, 253053, Note_on_c, 0, 53, 0
3, 253068, Note_on_c, 0, 62, 0
3, 253104, Note_on_c, 0, 59, 0
3, 253131, Note_on_c, 0, 43, 0
3, 253423, Note_on_c, 0, 64, 0
3, 253463, Note_on_c, 0, 59, 37
3, 253508, Note_on_c, 0, 48, 34
3, 254023, Note_on_c, 0, 55, 39
3, 254384, Note_on_c, 0, 55, 0
3, 254501, Note_on_c, 0, 59, 0
3, 254516, Note_on_c, 0, 55, 37
3, 256454, Note_on_c, 0, 55, 0
3, 257093, Note_on_c, 0, 48, 0
3, 257093, End_track
0, 0, End_of_file
