0, 0, Header, 1, 6, 384
1, 0, Start_track
1, 0, Title_t, "All The Things You are "
1, 0, Text_t, "dougmck@pipeline.com.au\012"
1, 0, Text_t, "A more 'traditional' straight ahead treatment. Chords are as in the Real Book (Sher Music) Vol 1\012"
1, 0, SMPTE_offset, 96, 0, 3, 0, 0
1, 0, System_exclusive, 8, 67, 115, 1, 17, 15, 89, 0, 247
1, 0, Time_signature, 4, 2, 24, 8
1, 0, Key_signature, -4, "major"
1, 0, Tempo, 413793
1, 1418, Marker_t, "The 'usual' intro Db7(#9) to C7(#9)"
1, 13210, Marker_t, "White note ascending glissando to melody on Ab"
1, 23636, Marker_t, "On C Maj 7th chord, arpeggiated Maj7th chords a Major 3rd apart - (C Maj7 - E Maj7 - Ab Maj7)"
1, 51134, Marker_t, "'Red Garland' type voicings."
1, 52237, Marker_t, "RH plays octaves with perfect 5th between while LH plays standard rootless voicing"
1, 102912, Marker_t, "This time On EMaj 7th chord, arpeggiated Maj7th chords a Major 3rd apart - (E Maj7 - Ab Maj7 - C Maj7)"
1, 136704, Marker_t, "4th intervals in ascending line"
1, 146939, Marker_t, "Lh plays 5th with grace note  - 'Oscar Peterson' style"
1, 156965, Marker_t, "On B7 a run LH plays black note (Eb) RH plays white notes (F,G,A,B)"
1, 160133, Marker_t, "On C7+ Descending Augmented triads 1 tone aprart"
1, 187392, Marker_t, "4 note scale fragments move up in scale steps"
1, 198144, Marker_t, "Repeated 6 note figure played in 16th notes"
1, 198144, End_track
2, 0, Start_track
2, 0, Title_t, ""
2, 0, Program_c, 0, 0
2, 0, Control_c, 0, 7, 108
2, 0, End_track
3, 0, Start_track
3, 0, Title_t, ""
3, 0, Program_c, 1, 32
3, 0, Control_c, 1, 7, 90
3, 0, Control_c, 1, 11, 127
3, 0, Control_c, 1, 64, 0
3, 0, Control_c, 1, 67, 0
3, 0, Pitch_bend_c, 1, 8192
3, 1408, Note_on_c, 1, 45, 63
3, 1472, Note_on_c, 1, 45, 0
3, 1536, Note_on_c, 1, 44, 43
3, 1792, Note_on_c, 1, 37, 60
3, 1800, Note_on_c, 1, 44, 0
3, 2944, Note_on_c, 1, 45, 54
3, 2976, Note_on_c, 1, 37, 0
3, 2992, Note_on_c, 1, 45, 0
3, 3072, Note_on_c, 1, 44, 48
3, 3312, Note_on_c, 1, 44, 0
3, 3328, Note_on_c, 1, 37, 62
3, 3712, Note_on_c, 1, 45, 50
3, 3768, Note_on_c, 1, 45, 0
3, 3768, Note_on_c, 1, 37, 0
3, 3840, Note_on_c, 1, 44, 44
3, 4080, Note_on_c, 1, 44, 0
3, 4096, Note_on_c, 1, 37, 56
3, 4480, Note_on_c, 1, 44, 62
3, 4496, Note_on_c, 1, 37, 0
3, 4544, Note_on_c, 1, 44, 0
3, 4608, Note_on_c, 1, 43, 49
3, 4840, Note_on_c, 1, 43, 0
3, 4864, Note_on_c, 1, 36, 85
3, 6016, Note_on_c, 1, 44, 52
3, 6024, Note_on_c, 1, 36, 0
3, 6064, Note_on_c, 1, 44, 0
3, 6144, Note_on_c, 1, 43, 35
3, 6400, Note_on_c, 1, 36, 79
3, 6408, Note_on_c, 1, 43, 0
3, 6784, Note_on_c, 1, 44, 49
3, 6832, Note_on_c, 1, 44, 0
3, 6840, Note_on_c, 1, 36, 0
3, 6912, Note_on_c, 1, 43, 42
3, 7160, Note_on_c, 1, 43, 0
3, 7168, Note_on_c, 1, 36, 66
3, 7528, Note_on_c, 1, 36, 0
3, 7552, Note_on_c, 1, 45, 79
3, 7632, Note_on_c, 1, 45, 0
3, 7680, Note_on_c, 1, 44, 52
3, 7912, Note_on_c, 1, 44, 0
3, 7936, Note_on_c, 1, 37, 79
3, 9088, Note_on_c, 1, 45, 51
3, 9128, Note_on_c, 1, 45, 0
3, 9136, Note_on_c, 1, 37, 0
3, 9216, Note_on_c, 1, 44, 31
3, 9472, Note_on_c, 1, 37, 83
3, 9480, Note_on_c, 1, 44, 0
3, 9856, Note_on_c, 1, 45, 36
3, 9872, Note_on_c, 1, 37, 0
3, 9888, Note_on_c, 1, 45, 0
3, 9984, Note_on_c, 1, 44, 27
3, 10032, Note_on_c, 1, 44, 0
3, 10240, Note_on_c, 1, 37, 71
3, 10624, Note_on_c, 1, 44, 56
3, 10656, Note_on_c, 1, 37, 0
3, 10664, Note_on_c, 1, 44, 0
3, 10752, Note_on_c, 1, 43, 48
3, 10952, Note_on_c, 1, 43, 0
3, 11008, Note_on_c, 1, 36, 83
3, 12160, Note_on_c, 1, 44, 64
3, 12216, Note_on_c, 1, 44, 0
3, 12248, Note_on_c, 1, 36, 0
3, 12288, Note_on_c, 1, 43, 40
3, 12544, Note_on_c, 1, 36, 68
3, 12576, Note_on_c, 1, 43, 0
3, 12928, Note_on_c, 1, 44, 76
3, 12976, Note_on_c, 1, 44, 0
3, 12984, Note_on_c, 1, 36, 0
3, 13056, Note_on_c, 1, 43, 28
3, 13216, Note_on_c, 1, 43, 0
3, 13312, Note_on_c, 1, 36, 57
3, 13376, Note_on_c, 1, 36, 0
3, 13568, Note_on_c, 1, 39, 46
3, 13608, Note_on_c, 1, 39, 0
3, 13696, Note_on_c, 1, 40, 59
3, 13744, Note_on_c, 1, 40, 0
3, 13824, Note_on_c, 1, 41, 73
3, 13864, Note_on_c, 1, 41, 0
3, 14080, Note_on_c, 1, 36, 61
3, 14088, Note_on_c, 1, 36, 0
3, 14208, Note_on_c, 1, 32, 45
3, 14568, Note_on_c, 1, 32, 0
3, 14592, Note_on_c, 1, 31, 47
3, 14952, Note_on_c, 1, 31, 0
3, 14976, Note_on_c, 1, 29, 36
3, 15216, Note_on_c, 1, 29, 0
3, 15232, Note_on_c, 1, 33, 51
3, 15320, Note_on_c, 1, 33, 0
3, 15360, Note_on_c, 1, 34, 42
3, 15744, Note_on_c, 1, 34, 0
3, 15744, Note_on_c, 1, 36, 55
3, 16112, Note_on_c, 1, 36, 0
3, 16128, Note_on_c, 1, 37, 48
3, 16376, Note_on_c, 1, 37, 0
3, 16384, Note_on_c, 1, 41, 65
3, 16440, Note_on_c, 1, 41, 0
3, 16512, Note_on_c, 1, 40, 48
3, 16512, Note_on_c, 1, 41, 37
3, 16544, Note_on_c, 1, 41, 0
3, 16888, Note_on_c, 1, 40, 0
3, 16896, Note_on_c, 1, 39, 50
3, 17280, Note_on_c, 1, 47, 66
3, 17304, Note_on_c, 1, 39, 0
3, 17536, Note_on_c, 1, 39, 33
3, 17576, Note_on_c, 1, 39, 0
3, 17632, Note_on_c, 1, 47, 0
3, 17664, Note_on_c, 1, 45, 51
3, 18048, Note_on_c, 1, 40, 49
3, 18256, Note_on_c, 1, 40, 0
3, 18304, Note_on_c, 1, 39, 34
3, 18328, Note_on_c, 1, 39, 0
3, 18376, Note_on_c, 1, 45, 0
3, 18432, Note_on_c, 1, 32, 55
3, 18688, Note_on_c, 1, 39, 45
3, 18712, Note_on_c, 1, 39, 0
3, 18744, Note_on_c, 1, 32, 0
3, 18816, Note_on_c, 1, 48, 66
3, 19200, Note_on_c, 1, 48, 0
3, 19200, Note_on_c, 1, 46, 43
3, 19256, Note_on_c, 1, 46, 0
3, 19456, Note_on_c, 1, 43, 66
3, 19480, Note_on_c, 1, 43, 0
3, 19712, Note_on_c, 1, 39, 46
3, 19752, Note_on_c, 1, 39, 0
3, 19840, Note_on_c, 1, 38, 38
3, 19888, Note_on_c, 1, 38, 0
3, 19968, Note_on_c, 1, 37, 33
3, 20328, Note_on_c, 1, 37, 0
3, 20352, Note_on_c, 1, 41, 47
3, 20648, Note_on_c, 1, 41, 0
3, 20736, Note_on_c, 1, 49, 57
3, 20992, Note_on_c, 1, 37, 52
3, 21000, Note_on_c, 1, 37, 0
3, 21080, Note_on_c, 1, 49, 0
3, 21120, Note_on_c, 1, 41, 24
3, 21144, Note_on_c, 1, 41, 0
3, 21248, Note_on_c, 1, 42, 58
3, 21288, Note_on_c, 1, 42, 0
3, 21376, Note_on_c, 1, 43, 84
3, 21600, Note_on_c, 1, 43, 0
3, 21632, Note_on_c, 1, 38, 40
3, 21640, Note_on_c, 1, 38, 0
3, 21760, Note_on_c, 1, 32, 52
3, 21768, Note_on_c, 1, 32, 0
3, 21888, Note_on_c, 1, 32, 63
3, 22232, Note_on_c, 1, 32, 0
3, 22272, Note_on_c, 1, 31, 36
3, 22624, Note_on_c, 1, 31, 0
3, 22656, Note_on_c, 1, 35, 44
3, 23024, Note_on_c, 1, 35, 0
3, 23040, Note_on_c, 1, 36, 45
3, 23296, Note_on_c, 1, 34, 34
3, 23408, Note_on_c, 1, 36, 0
3, 23424, Note_on_c, 1, 50, 83
3, 23432, Note_on_c, 1, 34, 0
3, 23752, Note_on_c, 1, 50, 0
3, 23808, Note_on_c, 1, 48, 61
3, 23808, Note_on_c, 1, 50, 32
3, 23848, Note_on_c, 1, 50, 0
3, 24064, Note_on_c, 1, 36, 37
3, 24112, Note_on_c, 1, 36, 0
3, 24136, Note_on_c, 1, 48, 0
3, 24192, Note_on_c, 1, 45, 51
3, 24552, Note_on_c, 1, 45, 0
3, 24576, Note_on_c, 1, 43, 45
3, 24936, Note_on_c, 1, 43, 0
3, 24960, Note_on_c, 1, 40, 48
3, 25320, Note_on_c, 1, 40, 0
3, 25344, Note_on_c, 1, 38, 46
3, 25592, Note_on_c, 1, 38, 0
3, 25600, Note_on_c, 1, 34, 44
3, 25688, Note_on_c, 1, 34, 0
3, 25728, Note_on_c, 1, 35, 49
3, 26072, Note_on_c, 1, 35, 0
3, 26112, Note_on_c, 1, 36, 45
3, 26368, Note_on_c, 1, 50, 110
3, 26456, Note_on_c, 1, 36, 0
3, 26464, Note_on_c, 1, 50, 0
3, 26496, Note_on_c, 1, 48, 66
3, 26752, Note_on_c, 1, 34, 25
3, 26808, Note_on_c, 1, 34, 0
3, 26816, Note_on_c, 1, 48, 0
3, 26880, Note_on_c, 1, 43, 55
3, 27128, Note_on_c, 1, 43, 0
3, 27136, Note_on_c, 1, 39, 51
3, 27224, Note_on_c, 1, 39, 0
3, 27392, Note_on_c, 1, 36, 49
3, 27400, Note_on_c, 1, 36, 0
3, 27520, Note_on_c, 1, 31, 36
3, 27520, Note_on_c, 1, 31, 0
3, 27520, Note_on_c, 1, 30, 40
3, 27592, Note_on_c, 1, 30, 0
3, 27648, Note_on_c, 1, 29, 64
3, 27992, Note_on_c, 1, 29, 0
3, 28032, Note_on_c, 1, 31, 54
3, 28376, Note_on_c, 1, 31, 0
3, 28416, Note_on_c, 1, 32, 48
3, 28672, Note_on_c, 1, 32, 0
3, 28672, Note_on_c, 1, 31, 33
3, 28736, Note_on_c, 1, 31, 0
3, 28800, Note_on_c, 1, 33, 44
3, 29032, Note_on_c, 1, 33, 0
3, 29056, Note_on_c, 1, 34, 52
3, 29144, Note_on_c, 1, 34, 0
3, 29184, Note_on_c, 1, 35, 42
3, 29440, Note_on_c, 1, 34, 31
3, 29520, Note_on_c, 1, 35, 0
3, 29528, Note_on_c, 1, 34, 0
3, 29568, Note_on_c, 1, 40, 39
3, 29568, Note_on_c, 1, 41, 40
3, 29760, Note_on_c, 1, 41, 0
3, 29760, Note_on_c, 1, 40, 0
3, 29824, Note_on_c, 1, 39, 37
3, 29896, Note_on_c, 1, 39, 0
3, 29952, Note_on_c, 1, 40, 32
3, 30240, Note_on_c, 1, 40, 0
3, 30336, Note_on_c, 1, 52, 55
3, 30592, Note_on_c, 1, 35, 31
3, 30600, Note_on_c, 1, 35, 0
3, 30632, Note_on_c, 1, 52, 0
3, 30720, Note_on_c, 1, 51, 49
3, 31096, Note_on_c, 1, 51, 0
3, 31104, Note_on_c, 1, 43, 35
3, 31448, Note_on_c, 1, 43, 0
3, 31488, Note_on_c, 1, 46, 53
3, 31872, Note_on_c, 1, 39, 48
3, 31912, Note_on_c, 1, 39, 0
3, 31920, Note_on_c, 1, 46, 0
3, 32128, Note_on_c, 1, 34, 63
3, 32160, Note_on_c, 1, 34, 0
3, 32256, Note_on_c, 1, 32, 48
3, 32640, Note_on_c, 1, 39, 46
3, 33024, Note_on_c, 1, 48, 60
3, 33056, Note_on_c, 1, 39, 0
3, 33280, Note_on_c, 1, 39, 40
3, 33352, Note_on_c, 1, 39, 0
3, 33392, Note_on_c, 1, 48, 0
3, 33408, Note_on_c, 1, 46, 53
3, 33432, Note_on_c, 1, 32, 0
3, 33760, Note_on_c, 1, 46, 0
3, 33792, Note_on_c, 1, 45, 54
3, 34152, Note_on_c, 1, 45, 0
3, 34176, Note_on_c, 1, 33, 58
3, 34536, Note_on_c, 1, 33, 0
3, 34560, Note_on_c, 1, 38, 47
3, 34944, Note_on_c, 1, 50, 84
3, 34976, Note_on_c, 1, 38, 0
3, 35200, Note_on_c, 1, 38, 34
3, 35232, Note_on_c, 1, 38, 0
3, 35288, Note_on_c, 1, 50, 0
3, 35328, Note_on_c, 1, 47, 33
3, 35576, Note_on_c, 1, 47, 0
3, 35584, Note_on_c, 1, 38, 81
3, 35968, Note_on_c, 1, 50, 74
3, 36248, Note_on_c, 1, 38, 0
3, 36352, Note_on_c, 1, 38, 19
3, 36384, Note_on_c, 1, 38, 0
3, 36472, Note_on_c, 1, 50, 0
3, 36480, Note_on_c, 1, 47, 51
3, 36856, Note_on_c, 1, 47, 0
3, 36864, Note_on_c, 1, 38, 49
3, 37248, Note_on_c, 1, 38, 0
3, 37248, Note_on_c, 1, 37, 43
3, 37632, Note_on_c, 1, 37, 0
3, 37632, Note_on_c, 1, 38, 49
3, 37888, Note_on_c, 1, 37, 21
3, 37984, Note_on_c, 1, 37, 0
3, 37984, Note_on_c, 1, 38, 0
3, 38016, Note_on_c, 1, 50, 63
3, 38720, Note_on_c, 1, 50, 0
3, 38784, Note_on_c, 1, 50, 59
3, 39552, Note_on_c, 1, 38, 71
3, 39568, Note_on_c, 1, 50, 0
3, 40320, Note_on_c, 1, 50, 82
3, 40376, Note_on_c, 1, 38, 0
3, 40976, Note_on_c, 1, 50, 0
3, 41088, Note_on_c, 1, 50, 73
3, 41768, Note_on_c, 1, 50, 0
3, 41856, Note_on_c, 1, 50, 75
3, 42624, Note_on_c, 1, 38, 67
3, 42632, Note_on_c, 1, 50, 0
3, 43392, Note_on_c, 1, 50, 80
3, 43440, Note_on_c, 1, 38, 0
3, 44072, Note_on_c, 1, 50, 0
3, 44160, Note_on_c, 1, 50, 63
3, 44224, Note_on_c, 1, 50, 0
3, 44288, Note_on_c, 1, 45, 54
3, 44328, Note_on_c, 1, 45, 0
3, 44416, Note_on_c, 1, 43, 68
3, 44448, Note_on_c, 1, 43, 0
3, 44544, Note_on_c, 1, 42, 43
3, 44912, Note_on_c, 1, 42, 0
3, 44928, Note_on_c, 1, 40, 40
3, 45312, Note_on_c, 1, 36, 49
3, 45320, Note_on_c, 1, 40, 0
3, 45672, Note_on_c, 1, 36, 0
3, 45696, Note_on_c, 1, 34, 44
3, 46064, Note_on_c, 1, 34, 0
3, 46080, Note_on_c, 1, 35, 53
3, 46464, Note_on_c, 1, 35, 0
3, 46464, Note_on_c, 1, 41, 58
3, 46720, Note_on_c, 1, 39, 48
3, 46752, Note_on_c, 1, 41, 0
3, 46768, Note_on_c, 1, 39, 0
3, 46848, Note_on_c, 1, 40, 68
3, 47184, Note_on_c, 1, 40, 0
3, 47232, Note_on_c, 1, 35, 56
3, 47560, Note_on_c, 1, 35, 0
3, 47616, Note_on_c, 1, 28, 68
3, 48000, Note_on_c, 1, 28, 0
3, 48000, Note_on_c, 1, 40, 64
3, 48384, Note_on_c, 1, 32, 52
3, 48400, Note_on_c, 1, 40, 0
3, 48704, Note_on_c, 1, 32, 0
3, 48768, Note_on_c, 1, 35, 57
3, 49112, Note_on_c, 1, 35, 0
3, 49152, Note_on_c, 1, 36, 51
3, 49536, Note_on_c, 1, 38, 52
3, 49544, Note_on_c, 1, 36, 0
3, 49792, Note_on_c, 1, 36, 46
3, 49816, Note_on_c, 1, 36, 0
3, 49904, Note_on_c, 1, 38, 0
3, 49920, Note_on_c, 1, 39, 47
3, 50264, Note_on_c, 1, 39, 0
3, 50304, Note_on_c, 1, 40, 61
3, 50656, Note_on_c, 1, 40, 0
3, 50688, Note_on_c, 1, 41, 46
3, 50824, Note_on_c, 1, 41, 0
3, 50944, Note_on_c, 1, 41, 50
3, 51008, Note_on_c, 1, 41, 0
3, 51072, Note_on_c, 1, 43, 56
3, 51392, Note_on_c, 1, 43, 0
3, 51456, Note_on_c, 1, 44, 49
3, 51456, Note_on_c, 1, 44, 0
3, 51584, Note_on_c, 1, 41, 36
3, 51584, Note_on_c, 1, 41, 0
3, 51712, Note_on_c, 1, 36, 68
3, 51720, Note_on_c, 1, 36, 0
3, 51840, Note_on_c, 1, 35, 44
3, 51840, Note_on_c, 1, 36, 49
3, 51856, Note_on_c, 1, 36, 0
3, 52192, Note_on_c, 1, 35, 0
3, 52224, Note_on_c, 1, 34, 45
3, 52608, Note_on_c, 1, 41, 43
3, 52656, Note_on_c, 1, 34, 0
3, 52992, Note_on_c, 1, 41, 0
3, 52992, Note_on_c, 1, 49, 64
3, 53248, Note_on_c, 1, 41, 53
3, 53312, Note_on_c, 1, 41, 0
3, 53352, Note_on_c, 1, 49, 0
3, 53376, Note_on_c, 1, 40, 49
3, 53744, Note_on_c, 1, 40, 0
3, 53760, Note_on_c, 1, 39, 46
3, 54144, Note_on_c, 1, 40, 41
3, 54152, Note_on_c, 1, 39, 0
3, 54528, Note_on_c, 1, 45, 64
3, 54536, Note_on_c, 1, 40, 0
3, 54888, Note_on_c, 1, 45, 0
3, 54912, Note_on_c, 1, 33, 48
3, 55208, Note_on_c, 1, 33, 0
3, 55296, Note_on_c, 1, 32, 48
3, 55664, Note_on_c, 1, 32, 0
3, 55680, Note_on_c, 1, 39, 40
3, 56064, Note_on_c, 1, 48, 79
3, 56112, Note_on_c, 1, 39, 0
3, 56320, Note_on_c, 1, 39, 54
3, 56328, Note_on_c, 1, 48, 0
3, 56440, Note_on_c, 1, 39, 0
3, 56448, Note_on_c, 1, 48, 74
3, 56640, Note_on_c, 1, 48, 0
3, 56704, Note_on_c, 1, 49, 83
3, 56904, Note_on_c, 1, 49, 0
3, 56960, Note_on_c, 1, 48, 31
3, 56976, Note_on_c, 1, 48, 0
3, 57088, Note_on_c, 1, 44, 59
3, 57120, Note_on_c, 1, 44, 0
3, 57216, Note_on_c, 1, 41, 46
3, 57856, Note_on_c, 1, 37, 39
3, 57864, Note_on_c, 1, 37, 0
3, 58240, Note_on_c, 1, 31, 60
3, 58248, Note_on_c, 1, 31, 0
3, 58288, Note_on_c, 1, 41, 0
3, 58368, Note_on_c, 1, 30, 54
3, 58752, Note_on_c, 1, 39, 46
3, 58976, Note_on_c, 1, 39, 0
3, 59120, Note_on_c, 1, 30, 0
3, 59136, Note_on_c, 1, 42, 47
3, 59392, Note_on_c, 1, 34, 42
3, 59408, Note_on_c, 1, 34, 0
3, 59424, Note_on_c, 1, 42, 0
3, 59520, Note_on_c, 1, 35, 36
3, 59856, Note_on_c, 1, 35, 0
3, 59904, Note_on_c, 1, 36, 49
3, 60288, Note_on_c, 1, 50, 57
3, 60352, Note_on_c, 1, 36, 0
3, 60632, Note_on_c, 1, 50, 0
3, 60672, Note_on_c, 1, 48, 60
3, 61008, Note_on_c, 1, 48, 0
3, 61056, Note_on_c, 1, 47, 54
3, 61392, Note_on_c, 1, 47, 0
3, 61440, Note_on_c, 1, 44, 43
3, 61792, Note_on_c, 1, 44, 0
3, 61824, Note_on_c, 1, 41, 40
3, 62208, Note_on_c, 1, 38, 50
3, 62224, Note_on_c, 1, 38, 0
3, 62464, Note_on_c, 1, 38, 40
3, 62488, Note_on_c, 1, 38, 0
3, 62504, Note_on_c, 1, 41, 0
3, 62592, Note_on_c, 1, 35, 30
3, 62920, Note_on_c, 1, 35, 0
3, 62976, Note_on_c, 1, 34, 48
3, 63360, Note_on_c, 1, 41, 48
3, 63400, Note_on_c, 1, 34, 0
3, 63688, Note_on_c, 1, 41, 0
3, 63744, Note_on_c, 1, 41, 50
3, 64128, Note_on_c, 1, 40, 49
3, 64136, Note_on_c, 1, 41, 0
3, 64464, Note_on_c, 1, 40, 0
3, 64512, Note_on_c, 1, 39, 39
3, 64592, Note_on_c, 1, 39, 0
3, 64768, Note_on_c, 1, 33, 80
3, 65536, Note_on_c, 1, 49, 69
3, 66032, Note_on_c, 1, 49, 0
3, 66032, Note_on_c, 1, 33, 0
3, 66048, Note_on_c, 1, 32, 62
3, 66304, Note_on_c, 1, 48, 66
3, 67200, Note_on_c, 1, 32, 0
3, 67328, Note_on_c, 1, 45, 44
3, 67344, Note_on_c, 1, 45, 0
3, 67456, Note_on_c, 1, 44, 48
3, 67488, Note_on_c, 1, 44, 0
3, 67504, Note_on_c, 1, 48, 0
3, 67584, Note_on_c, 1, 43, 14
3, 67840, Note_on_c, 1, 43, 0
3, 67840, Note_on_c, 1, 38, 54
3, 67888, Note_on_c, 1, 38, 0
3, 67968, Note_on_c, 1, 37, 38
3, 68304, Note_on_c, 1, 37, 0
3, 68352, Note_on_c, 1, 36, 41
3, 68584, Note_on_c, 1, 36, 0
3, 68608, Note_on_c, 1, 31, 54
3, 68616, Note_on_c, 1, 31, 0
3, 68736, Note_on_c, 1, 30, 57
3, 69096, Note_on_c, 1, 30, 0
3, 69120, Note_on_c, 1, 29, 53
3, 69504, Note_on_c, 1, 41, 49
3, 69544, Note_on_c, 1, 29, 0
3, 69888, Note_on_c, 1, 32, 49
3, 69904, Note_on_c, 1, 41, 0
3, 70248, Note_on_c, 1, 32, 0
3, 70272, Note_on_c, 1, 35, 46
3, 70624, Note_on_c, 1, 35, 0
3, 70656, Note_on_c, 1, 34, 52
3, 71040, Note_on_c, 1, 41, 75
3, 71048, Note_on_c, 1, 34, 0
3, 71392, Note_on_c, 1, 41, 0
3, 71424, Note_on_c, 1, 37, 53
3, 71464, Note_on_c, 1, 37, 0
3, 71680, Note_on_c, 1, 37, 47
3, 71720, Note_on_c, 1, 37, 0
3, 71808, Note_on_c, 1, 34, 37
3, 72168, Note_on_c, 1, 34, 0
3, 72192, Note_on_c, 1, 40, 45
3, 72560, Note_on_c, 1, 40, 0
3, 72576, Note_on_c, 1, 35, 47
3, 72928, Note_on_c, 1, 35, 0
3, 72960, Note_on_c, 1, 33, 51
3, 73328, Note_on_c, 1, 33, 0
3, 73344, Note_on_c, 1, 40, 49
3, 73680, Note_on_c, 1, 40, 0
3, 73728, Note_on_c, 1, 32, 56
3, 74112, Note_on_c, 1, 39, 47
3, 74128, Note_on_c, 1, 32, 0
3, 74496, Note_on_c, 1, 48, 70
3, 74504, Note_on_c, 1, 39, 0
3, 74880, Note_on_c, 1, 48, 0
3, 74880, Note_on_c, 1, 46, 47
3, 75136, Note_on_c, 1, 39, 32
3, 75160, Note_on_c, 1, 39, 0
3, 75248, Note_on_c, 1, 46, 0
3, 75264, Note_on_c, 1, 37, 52
3, 75648, Note_on_c, 1, 51, 69
3, 76024, Note_on_c, 1, 51, 0
3, 76032, Note_on_c, 1, 49, 51
3, 76080, Note_on_c, 1, 37, 0
3, 76360, Note_on_c, 1, 49, 0
3, 76416, Note_on_c, 1, 37, 34
3, 76416, Note_on_c, 1, 37, 0
3, 76416, Note_on_c, 1, 49, 61
3, 76760, Note_on_c, 1, 49, 0
3, 76800, Note_on_c, 1, 50, 64
3, 77056, Note_on_c, 1, 45, 51
3, 77096, Note_on_c, 1, 45, 0
3, 77184, Note_on_c, 1, 38, 43
3, 77192, Note_on_c, 1, 50, 0
3, 77400, Note_on_c, 1, 38, 0
3, 77440, Note_on_c, 1, 42, 56
3, 77496, Note_on_c, 1, 42, 0
3, 77568, Note_on_c, 1, 43, 66
3, 77608, Note_on_c, 1, 43, 0
3, 77696, Note_on_c, 1, 38, 65
3, 77712, Note_on_c, 1, 38, 0
3, 77824, Note_on_c, 1, 34, 59
3, 77880, Note_on_c, 1, 34, 0
3, 77952, Note_on_c, 1, 35, 63
3, 78160, Note_on_c, 1, 35, 0
3, 78208, Note_on_c, 1, 31, 53
3, 78224, Note_on_c, 1, 31, 0
3, 78336, Note_on_c, 1, 36, 49
3, 78688, Note_on_c, 1, 36, 0
3, 78720, Note_on_c, 1, 38, 55
3, 79056, Note_on_c, 1, 38, 0
3, 79104, Note_on_c, 1, 40, 37
3, 79344, Note_on_c, 1, 40, 0
3, 79360, Note_on_c, 1, 31, 54
3, 79392, Note_on_c, 1, 31, 0
3, 79488, Note_on_c, 1, 28, 59
3, 79848, Note_on_c, 1, 28, 0
3, 79872, Note_on_c, 1, 29, 44
3, 80256, Note_on_c, 1, 30, 57
3, 80264, Note_on_c, 1, 29, 0
3, 80616, Note_on_c, 1, 30, 0
3, 80640, Note_on_c, 1, 31, 52
3, 80896, Note_on_c, 1, 31, 0
3, 80896, Note_on_c, 1, 34, 46
3, 80968, Note_on_c, 1, 34, 0
3, 81024, Note_on_c, 1, 35, 56
3, 81384, Note_on_c, 1, 35, 0
3, 81408, Note_on_c, 1, 36, 46
3, 81664, Note_on_c, 1, 50, 96
3, 81760, Note_on_c, 1, 50, 0
3, 81768, Note_on_c, 1, 36, 0
3, 81792, Note_on_c, 1, 48, 52
3, 82144, Note_on_c, 1, 48, 0
3, 82176, Note_on_c, 1, 43, 53
3, 82432, Note_on_c, 1, 36, 42
3, 82472, Note_on_c, 1, 36, 0
3, 82488, Note_on_c, 1, 43, 0
3, 82560, Note_on_c, 1, 42, 46
3, 82816, Note_on_c, 1, 41, 62
3, 82856, Note_on_c, 1, 42, 0
3, 83072, Note_on_c, 1, 36, 45
3, 83096, Note_on_c, 1, 36, 0
3, 83200, Note_on_c, 1, 33, 62
3, 83208, Note_on_c, 1, 33, 0
3, 83208, Note_on_c, 1, 41, 0
3, 83328, Note_on_c, 1, 32, 63
3, 83680, Note_on_c, 1, 32, 0
3, 83712, Note_on_c, 1, 31, 50
3, 84072, Note_on_c, 1, 31, 0
3, 84096, Note_on_c, 1, 29, 56
3, 84456, Note_on_c, 1, 29, 0
3, 84480, Note_on_c, 1, 35, 43
3, 84864, Note_on_c, 1, 41, 54
3, 84880, Note_on_c, 1, 35, 0
3, 85120, Note_on_c, 1, 35, 32
3, 85144, Note_on_c, 1, 41, 0
3, 85216, Note_on_c, 1, 35, 0
3, 85248, Note_on_c, 1, 40, 44
3, 85632, Note_on_c, 1, 40, 0
3, 85632, Note_on_c, 1, 34, 50
3, 86008, Note_on_c, 1, 34, 0
3, 86016, Note_on_c, 1, 33, 50
3, 86392, Note_on_c, 1, 33, 0
3, 86400, Note_on_c, 1, 39, 48
3, 86784, Note_on_c, 1, 46, 71
3, 86800, Note_on_c, 1, 39, 0
3, 87040, Note_on_c, 1, 39, 39
3, 87064, Note_on_c, 1, 39, 0
3, 87168, Note_on_c, 1, 39, 54
3, 87208, Note_on_c, 1, 39, 0
3, 87424, Note_on_c, 1, 45, 58
3, 87504, Note_on_c, 1, 46, 0
3, 87512, Note_on_c, 1, 45, 0
3, 87552, Note_on_c, 1, 44, 51
3, 87808, Note_on_c, 1, 44, 0
3, 87808, Note_on_c, 1, 39, 46
3, 87848, Note_on_c, 1, 39, 0
3, 87936, Note_on_c, 1, 32, 51
3, 88320, Note_on_c, 1, 48, 58
3, 88576, Note_on_c, 1, 39, 39
3, 88584, Note_on_c, 1, 39, 0
3, 88616, Note_on_c, 1, 32, 0
3, 88672, Note_on_c, 1, 48, 0
3, 88704, Note_on_c, 1, 44, 36
3, 88944, Note_on_c, 1, 44, 0
3, 88960, Note_on_c, 1, 45, 64
3, 89200, Note_on_c, 1, 45, 0
3, 89216, Note_on_c, 1, 51, 55
3, 89288, Note_on_c, 1, 51, 0
3, 89344, Note_on_c, 1, 45, 57
3, 89368, Note_on_c, 1, 45, 0
3, 89472, Note_on_c, 1, 45, 66
3, 89496, Note_on_c, 1, 45, 0
3, 89728, Note_on_c, 1, 39, 58
3, 89792, Note_on_c, 1, 39, 0
3, 89856, Note_on_c, 1, 38, 55
3, 90112, Note_on_c, 1, 26, 62
3, 90184, Note_on_c, 1, 38, 0
3, 90192, Note_on_c, 1, 26, 0
3, 90240, Note_on_c, 1, 50, 70
3, 90496, Note_on_c, 1, 38, 43
3, 90528, Note_on_c, 1, 38, 0
3, 90872, Note_on_c, 1, 50, 0
3, 90880, Note_on_c, 1, 38, 83
3, 91392, Note_on_c, 1, 50, 84
3, 91592, Note_on_c, 1, 50, 0
3, 91648, Note_on_c, 1, 49, 46
3, 91688, Note_on_c, 1, 49, 0
3, 91776, Note_on_c, 1, 50, 60
3, 91800, Note_on_c, 1, 38, 0
3, 92016, Note_on_c, 1, 50, 0
3, 92032, Note_on_c, 1, 38, 84
3, 92032, Note_on_c, 1, 37, 32
3, 92112, Note_on_c, 1, 37, 0
3, 92544, Note_on_c, 1, 50, 75
3, 92776, Note_on_c, 1, 50, 0
3, 92800, Note_on_c, 1, 49, 42
3, 92856, Note_on_c, 1, 49, 0
3, 92888, Note_on_c, 1, 38, 0
3, 92928, Note_on_c, 1, 50, 62
3, 93152, Note_on_c, 1, 50, 0
3, 93184, Note_on_c, 1, 47, 74
3, 93232, Note_on_c, 1, 47, 0
3, 93312, Note_on_c, 1, 46, 54
3, 93408, Note_on_c, 1, 46, 0
3, 93568, Note_on_c, 1, 44, 46
3, 93608, Note_on_c, 1, 44, 0
3, 93696, Note_on_c, 1, 45, 53
3, 93864, Note_on_c, 1, 45, 0
3, 93952, Note_on_c, 1, 40, 36
3, 93976, Note_on_c, 1, 40, 0
3, 94080, Note_on_c, 1, 36, 55
3, 94432, Note_on_c, 1, 36, 0
3, 94464, Note_on_c, 1, 40, 48
3, 94832, Note_on_c, 1, 40, 0
3, 94848, Note_on_c, 1, 39, 46
3, 95208, Note_on_c, 1, 39, 0
3, 95232, Note_on_c, 1, 38, 36
3, 95488, Note_on_c, 1, 37, 25
3, 95544, Note_on_c, 1, 38, 0
3, 95592, Note_on_c, 1, 37, 0
3, 95616, Note_on_c, 1, 50, 73
3, 95968, Note_on_c, 1, 50, 0
3, 96000, Note_on_c, 1, 45, 46
3, 96224, Note_on_c, 1, 45, 0
3, 96256, Note_on_c, 1, 42, 30
3, 96296, Note_on_c, 1, 42, 0
3, 96384, Note_on_c, 1, 50, 72
3, 96784, Note_on_c, 1, 50, 0
3, 96896, Note_on_c, 1, 42, 51
3, 96928, Note_on_c, 1, 42, 0
3, 97024, Note_on_c, 1, 43, 70
3, 97064, Note_on_c, 1, 43, 0
3, 97408, Note_on_c, 1, 37, 61
3, 97408, Note_on_c, 1, 37, 0
3, 97536, Note_on_c, 1, 34, 60
3, 97792, Note_on_c, 1, 35, 54
3, 97800, Note_on_c, 1, 34, 0
3, 97872, Note_on_c, 1, 35, 0
3, 97920, Note_on_c, 1, 30, 47
3, 98256, Note_on_c, 1, 30, 0
3, 98304, Note_on_c, 1, 31, 49
3, 98640, Note_on_c, 1, 31, 0
3, 98688, Note_on_c, 1, 35, 46
3, 99072, Note_on_c, 1, 45, 68
3, 99080, Note_on_c, 1, 35, 0
3, 99328, Note_on_c, 1, 35, 45
3, 99344, Note_on_c, 1, 35, 0
3, 99376, Note_on_c, 1, 45, 0
3, 99456, Note_on_c, 1, 43, 46
3, 99760, Note_on_c, 1, 43, 0
3, 99840, Note_on_c, 1, 42, 39
3, 100200, Note_on_c, 1, 42, 0
3, 100224, Note_on_c, 1, 40, 44
3, 100584, Note_on_c, 1, 40, 0
3, 100608, Note_on_c, 1, 38, 40
3, 100968, Note_on_c, 1, 38, 0
3, 100992, Note_on_c, 1, 36, 54
3, 101352, Note_on_c, 1, 36, 0
3, 101376, Note_on_c, 1, 35, 54
3, 101760, Note_on_c, 1, 42, 47
3, 102144, Note_on_c, 1, 48, 80
3, 102160, Note_on_c, 1, 42, 0
3, 102480, Note_on_c, 1, 48, 0
3, 102528, Note_on_c, 1, 47, 50
3, 102624, Note_on_c, 1, 35, 0
3, 102880, Note_on_c, 1, 47, 0
3, 102912, Note_on_c, 1, 35, 54
3, 103296, Note_on_c, 1, 47, 82
3, 103632, Note_on_c, 1, 47, 0
3, 103680, Note_on_c, 1, 44, 59
3, 103864, Note_on_c, 1, 35, 0
3, 104064, Note_on_c, 1, 37, 38
3, 104400, Note_on_c, 1, 37, 0
3, 104440, Note_on_c, 1, 44, 0
3, 104448, Note_on_c, 1, 36, 53
3, 104832, Note_on_c, 1, 52, 87
3, 105168, Note_on_c, 1, 52, 0
3, 105168, Note_on_c, 1, 36, 0
3, 105216, Note_on_c, 1, 48, 58
3, 105472, Note_on_c, 1, 43, 48
3, 105528, Note_on_c, 1, 43, 0
3, 105536, Note_on_c, 1, 48, 0
3, 105600, Note_on_c, 1, 42, 50
3, 105968, Note_on_c, 1, 42, 0
3, 105984, Note_on_c, 1, 41, 46
3, 106240, Note_on_c, 1, 53, 87
3, 106336, Note_on_c, 1, 53, 0
3, 106368, Note_on_c, 1, 48, 55
3, 106496, Note_on_c, 1, 50, 31
3, 106536, Note_on_c, 1, 50, 0
3, 106624, Note_on_c, 1, 39, 18
3, 106712, Note_on_c, 1, 41, 0
3, 106728, Note_on_c, 1, 39, 0
3, 106728, Note_on_c, 1, 48, 0
3, 106752, Note_on_c, 1, 44, 48
3, 107032, Note_on_c, 1, 44, 0
3, 107136, Note_on_c, 1, 45, 54
3, 107504, Note_on_c, 1, 45, 0
3, 107520, Note_on_c, 1, 46, 56
3, 107776, Note_on_c, 1, 41, 40
3, 107816, Note_on_c, 1, 41, 0
3, 107904, Note_on_c, 1, 37, 36
3, 108232, Note_on_c, 1, 37, 0
3, 108288, Note_on_c, 1, 34, 38
3, 108624, Note_on_c, 1, 34, 0
3, 108672, Note_on_c, 1, 33, 58
3, 108880, Note_on_c, 1, 33, 0
3, 108928, Note_on_c, 1, 34, 40
3, 109008, Note_on_c, 1, 34, 0
3, 109056, Note_on_c, 1, 40, 51
3, 109408, Note_on_c, 1, 40, 0
3, 109440, Note_on_c, 1, 34, 51
3, 109672, Note_on_c, 1, 46, 0
3, 109824, Note_on_c, 1, 33, 57
3, 109832, Note_on_c, 1, 34, 0
3, 110208, Note_on_c, 1, 39, 60
3, 110248, Note_on_c, 1, 39, 0
3, 110248, Note_on_c, 1, 33, 0
3, 110336, Note_on_c, 1, 39, 25
3, 110376, Note_on_c, 1, 39, 0
3, 110464, Note_on_c, 1, 33, 44
3, 110512, Note_on_c, 1, 33, 0
3, 110592, Note_on_c, 1, 32, 57
3, 110976, Note_on_c, 1, 39, 46
3, 111360, Note_on_c, 1, 48, 87
3, 111408, Note_on_c, 1, 39, 0
3, 111616, Note_on_c, 1, 39, 34
3, 111648, Note_on_c, 1, 48, 0
3, 111720, Note_on_c, 1, 39, 0
3, 111744, Note_on_c, 1, 48, 69
3, 111960, Note_on_c, 1, 32, 0
3, 112072, Note_on_c, 1, 48, 0
3, 112128, Note_on_c, 1, 49, 59
3, 112512, Note_on_c, 1, 36, 43
3, 112880, Note_on_c, 1, 36, 0
3, 112880, Note_on_c, 1, 49, 0
3, 112896, Note_on_c, 1, 37, 42
3, 113280, Note_on_c, 1, 49, 57
3, 113312, Note_on_c, 1, 37, 0
3, 113536, Note_on_c, 1, 37, 27
3, 113576, Note_on_c, 1, 37, 0
3, 113664, Note_on_c, 1, 42, 44
3, 113720, Note_on_c, 1, 49, 0
3, 114032, Note_on_c, 1, 42, 0
3, 114048, Note_on_c, 1, 46, 47
3, 114304, Note_on_c, 1, 37, 18
3, 114432, Note_on_c, 1, 37, 0
3, 114432, Note_on_c, 1, 48, 40
3, 114440, Note_on_c, 1, 46, 0
3, 114784, Note_on_c, 1, 48, 0
3, 114816, Note_on_c, 1, 47, 44
3, 115184, Note_on_c, 1, 47, 0
3, 115200, Note_on_c, 1, 48, 57
3, 115456, Note_on_c, 1, 43, 39
3, 115488, Note_on_c, 1, 43, 0
3, 115584, Note_on_c, 1, 39, 45
3, 115952, Note_on_c, 1, 39, 0
3, 115952, Note_on_c, 1, 48, 0
3, 115968, Note_on_c, 1, 36, 55
3, 116352, Note_on_c, 1, 48, 70
3, 116392, Note_on_c, 1, 36, 0
3, 116712, Note_on_c, 1, 48, 0
3, 116736, Note_on_c, 1, 47, 53
3, 116992, Note_on_c, 1, 41, 55
3, 117024, Note_on_c, 1, 41, 0
3, 117056, Note_on_c, 1, 47, 0
3, 117120, Note_on_c, 1, 38, 43
3, 117480, Note_on_c, 1, 38, 0
3, 117504, Note_on_c, 1, 41, 60
3, 117760, Note_on_c, 1, 38, 25
3, 117856, Note_on_c, 1, 38, 0
3, 117864, Note_on_c, 1, 41, 0
3, 117888, Note_on_c, 1, 44, 55
3, 118144, Note_on_c, 1, 38, 27
3, 118208, Note_on_c, 1, 38, 0
3, 118224, Note_on_c, 1, 44, 0
3, 118272, Note_on_c, 1, 46, 50
3, 118528, Note_on_c, 1, 41, 77
3, 118600, Note_on_c, 1, 41, 0
3, 118912, Note_on_c, 1, 37, 29
3, 118944, Note_on_c, 1, 37, 0
3, 119040, Note_on_c, 1, 41, 62
3, 119224, Note_on_c, 1, 41, 0
3, 119296, Note_on_c, 1, 37, 40
3, 119304, Note_on_c, 1, 37, 0
3, 119424, Note_on_c, 1, 38, 58
3, 119480, Note_on_c, 1, 38, 0
3, 119680, Note_on_c, 1, 38, 60
3, 119720, Note_on_c, 1, 38, 0
3, 119728, Note_on_c, 1, 46, 0
3, 119808, Note_on_c, 1, 39, 55
3, 120144, Note_on_c, 1, 39, 0
3, 120192, Note_on_c, 1, 37, 46
3, 120560, Note_on_c, 1, 37, 0
3, 120576, Note_on_c, 1, 36, 64
3, 120776, Note_on_c, 1, 36, 0
3, 120832, Note_on_c, 1, 36, 62
3, 120904, Note_on_c, 1, 36, 0
3, 120960, Note_on_c, 1, 34, 51
3, 121336, Note_on_c, 1, 34, 0
3, 121344, Note_on_c, 1, 32, 59
3, 121728, Note_on_c, 1, 31, 63
3, 121768, Note_on_c, 1, 32, 0
3, 122088, Note_on_c, 1, 31, 0
3, 122112, Note_on_c, 1, 30, 49
3, 122496, Note_on_c, 1, 34, 69
3, 122512, Note_on_c, 1, 30, 0
3, 122752, Note_on_c, 1, 42, 69
3, 122800, Note_on_c, 1, 34, 0
3, 122840, Note_on_c, 1, 42, 0
3, 122880, Note_on_c, 1, 43, 62
3, 123208, Note_on_c, 1, 43, 0
3, 123264, Note_on_c, 1, 37, 49
3, 123584, Note_on_c, 1, 37, 0
3, 123648, Note_on_c, 1, 36, 53
3, 123904, Note_on_c, 1, 43, 91
3, 123928, Note_on_c, 1, 36, 0
3, 123992, Note_on_c, 1, 43, 0
3, 124032, Note_on_c, 1, 42, 51
3, 124288, Note_on_c, 1, 36, 53
3, 124312, Note_on_c, 1, 36, 0
3, 124320, Note_on_c, 1, 42, 0
3, 124416, Note_on_c, 1, 41, 58
3, 124456, Note_on_c, 1, 41, 0
3, 124672, Note_on_c, 1, 36, 54
3, 124720, Note_on_c, 1, 36, 0
3, 124800, Note_on_c, 1, 34, 50
3, 125160, Note_on_c, 1, 34, 0
3, 125184, Note_on_c, 1, 35, 50
3, 125552, Note_on_c, 1, 35, 0
3, 125568, Note_on_c, 1, 36, 50
3, 125824, Note_on_c, 1, 34, 29
3, 125872, Note_on_c, 1, 36, 0
3, 125928, Note_on_c, 1, 34, 0
3, 125952, Note_on_c, 1, 46, 47
3, 126208, Note_on_c, 1, 36, 26
3, 126256, Note_on_c, 1, 36, 0
3, 126336, Note_on_c, 1, 41, 33
3, 126616, Note_on_c, 1, 46, 0
3, 126680, Note_on_c, 1, 41, 0
3, 126720, Note_on_c, 1, 44, 45
3, 127104, Note_on_c, 1, 39, 48
3, 127120, Note_on_c, 1, 44, 0
3, 127360, Note_on_c, 1, 37, 18
3, 127440, Note_on_c, 1, 37, 0
3, 127440, Note_on_c, 1, 39, 0
3, 127488, Note_on_c, 1, 40, 40
3, 127744, Note_on_c, 1, 38, 32
3, 127840, Note_on_c, 1, 38, 0
3, 127848, Note_on_c, 1, 40, 0
3, 127872, Note_on_c, 1, 46, 50
3, 128256, Note_on_c, 1, 45, 48
3, 128640, Note_on_c, 1, 33, 60
3, 128968, Note_on_c, 1, 45, 0
3, 129008, Note_on_c, 1, 33, 0
3, 129024, Note_on_c, 1, 32, 49
3, 129032, Note_on_c, 1, 46, 0
3, 129408, Note_on_c, 1, 48, 71
3, 129784, Note_on_c, 1, 32, 0
3, 129792, Note_on_c, 1, 46, 49
3, 129800, Note_on_c, 1, 48, 0
3, 130048, Note_on_c, 1, 39, 38
3, 130064, Note_on_c, 1, 39, 0
3, 130176, Note_on_c, 1, 38, 53
3, 130488, Note_on_c, 1, 46, 0
3, 130504, Note_on_c, 1, 38, 0
3, 130560, Note_on_c, 1, 37, 47
3, 130944, Note_on_c, 1, 44, 51
3, 131024, Note_on_c, 1, 37, 0
3, 131288, Note_on_c, 1, 44, 0
3, 131328, Note_on_c, 1, 51, 47
3, 131696, Note_on_c, 1, 51, 0
3, 131712, Note_on_c, 1, 49, 55
3, 132056, Note_on_c, 1, 49, 0
3, 132096, Note_on_c, 1, 50, 51
3, 132352, Note_on_c, 1, 45, 50
3, 132432, Note_on_c, 1, 45, 0
3, 132440, Note_on_c, 1, 50, 0
3, 132480, Note_on_c, 1, 44, 36
3, 132840, Note_on_c, 1, 44, 0
3, 132864, Note_on_c, 1, 43, 38
3, 132928, Note_on_c, 1, 43, 0
3, 132992, Note_on_c, 1, 50, 60
3, 133048, Note_on_c, 1, 50, 0
3, 133120, Note_on_c, 1, 46, 67
3, 133152, Note_on_c, 1, 46, 0
3, 133248, Note_on_c, 1, 47, 72
3, 133304, Note_on_c, 1, 47, 0
3, 133376, Note_on_c, 1, 43, 66
3, 133376, Note_on_c, 1, 43, 0
3, 133504, Note_on_c, 1, 38, 66
3, 133520, Note_on_c, 1, 38, 0
3, 133632, Note_on_c, 1, 36, 76
3, 133976, Note_on_c, 1, 36, 0
3, 134016, Note_on_c, 1, 38, 55
3, 134384, Note_on_c, 1, 38, 0
3, 134400, Note_on_c, 1, 40, 44
3, 134656, Note_on_c, 1, 48, 77
3, 134776, Note_on_c, 1, 48, 0
3, 134784, Note_on_c, 1, 47, 44
3, 134792, Note_on_c, 1, 40, 0
3, 135040, Note_on_c, 1, 38, 22
3, 135096, Note_on_c, 1, 38, 0
3, 135104, Note_on_c, 1, 47, 0
3, 135168, Note_on_c, 1, 43, 56
3, 135512, Note_on_c, 1, 43, 0
3, 135552, Note_on_c, 1, 40, 36
3, 135936, Note_on_c, 1, 38, 34
3, 135968, Note_on_c, 1, 38, 0
3, 136192, Note_on_c, 1, 34, 59
3, 136224, Note_on_c, 1, 40, 0
3, 136264, Note_on_c, 1, 34, 0
3, 136320, Note_on_c, 1, 35, 29
3, 136640, Note_on_c, 1, 35, 0
3, 136704, Note_on_c, 1, 36, 36
3, 136944, Note_on_c, 1, 36, 0
3, 136960, Note_on_c, 1, 50, 79
3, 136992, Note_on_c, 1, 50, 0
3, 137088, Note_on_c, 1, 48, 53
3, 137176, Note_on_c, 1, 48, 0
3, 137344, Note_on_c, 1, 35, 48
3, 137344, Note_on_c, 1, 36, 34
3, 137368, Note_on_c, 1, 36, 0
3, 137416, Note_on_c, 1, 35, 0
3, 137472, Note_on_c, 1, 36, 38
3, 137728, Note_on_c, 1, 48, 91
3, 137752, Note_on_c, 1, 36, 0
3, 137816, Note_on_c, 1, 48, 0
3, 137856, Note_on_c, 1, 42, 37
3, 138072, Note_on_c, 1, 42, 0
3, 138112, Note_on_c, 1, 34, 46
3, 138128, Note_on_c, 1, 34, 0
3, 138240, Note_on_c, 1, 41, 56
3, 138248, Note_on_c, 1, 41, 0
3, 138368, Note_on_c, 1, 36, 57
3, 138368, Note_on_c, 1, 36, 0
3, 138496, Note_on_c, 1, 32, 61
3, 138520, Note_on_c, 1, 32, 0
3, 138624, Note_on_c, 1, 32, 55
3, 138912, Note_on_c, 1, 32, 0
3, 139008, Note_on_c, 1, 31, 40
3, 139008, Note_on_c, 1, 29, 33
3, 139016, Note_on_c, 1, 29, 0
3, 139368, Note_on_c, 1, 31, 0
3, 139392, Note_on_c, 1, 29, 41
3, 139760, Note_on_c, 1, 29, 0
3, 139776, Note_on_c, 1, 34, 68
3, 139776, Note_on_c, 1, 34, 0
3, 139776, Note_on_c, 1, 35, 64
3, 140144, Note_on_c, 1, 35, 0
3, 140160, Note_on_c, 1, 39, 74
3, 140496, Note_on_c, 1, 39, 0
3, 140544, Note_on_c, 1, 40, 46
3, 140880, Note_on_c, 1, 40, 0
3, 140928, Note_on_c, 1, 33, 44
3, 141280, Note_on_c, 1, 33, 0
3, 141312, Note_on_c, 1, 39, 48
3, 141696, Note_on_c, 1, 39, 0
3, 141696, Note_on_c, 1, 34, 45
3, 142080, Note_on_c, 1, 43, 39
3, 142136, Note_on_c, 1, 34, 0
3, 142448, Note_on_c, 1, 43, 0
3, 142464, Note_on_c, 1, 39, 44
3, 142824, Note_on_c, 1, 39, 0
3, 142848, Note_on_c, 1, 32, 55
3, 143232, Note_on_c, 1, 39, 47
3, 143256, Note_on_c, 1, 32, 0
3, 143616, Note_on_c, 1, 48, 74
3, 143648, Note_on_c, 1, 39, 0
3, 143872, Note_on_c, 1, 44, 48
3, 143872, Note_on_c, 1, 44, 0
3, 144000, Note_on_c, 1, 44, 64
3, 144328, Note_on_c, 1, 44, 0
3, 144384, Note_on_c, 1, 45, 55
3, 144400, Note_on_c, 1, 48, 0
3, 144640, Note_on_c, 1, 45, 0
3, 144640, Note_on_c, 1, 40, 32
3, 144672, Note_on_c, 1, 40, 0
3, 144768, Note_on_c, 1, 39, 54
3, 145144, Note_on_c, 1, 39, 0
3, 145152, Note_on_c, 1, 38, 52
3, 145536, Note_on_c, 1, 50, 67
3, 145584, Note_on_c, 1, 38, 0
3, 145792, Note_on_c, 1, 38, 24
3, 145864, Note_on_c, 1, 38, 0
3, 145920, Note_on_c, 1, 47, 55
3, 145928, Note_on_c, 1, 50, 0
3, 146296, Note_on_c, 1, 47, 0
3, 146304, Note_on_c, 1, 43, 53
3, 146656, Note_on_c, 1, 43, 0
3, 146688, Note_on_c, 1, 38, 52
3, 147024, Note_on_c, 1, 38, 0
3, 147072, Note_on_c, 1, 36, 57
3, 147440, Note_on_c, 1, 36, 0
3, 147456, Note_on_c, 1, 35, 56
3, 147824, Note_on_c, 1, 35, 0
3, 147840, Note_on_c, 1, 33, 56
3, 148176, Note_on_c, 1, 33, 0
3, 148224, Note_on_c, 1, 31, 38
3, 148352, Note_on_c, 1, 31, 0
3, 148480, Note_on_c, 1, 31, 53
3, 148552, Note_on_c, 1, 31, 0
3, 148608, Note_on_c, 1, 32, 58
3, 148944, Note_on_c, 1, 32, 0
3, 148992, Note_on_c, 1, 33, 55
3, 149248, Note_on_c, 1, 50, 94
3, 149336, Note_on_c, 1, 50, 0
3, 149376, Note_on_c, 1, 49, 48
3, 149720, Note_on_c, 1, 49, 0
3, 149760, Note_on_c, 1, 50, 54
3, 149768, Note_on_c, 1, 33, 0
3, 150144, Note_on_c, 1, 33, 59
3, 150176, Note_on_c, 1, 50, 0
3, 150512, Note_on_c, 1, 33, 0
3, 150528, Note_on_c, 1, 50, 80
3, 150880, Note_on_c, 1, 50, 0
3, 150912, Note_on_c, 1, 38, 63
3, 151296, Note_on_c, 1, 50, 80
3, 151360, Note_on_c, 1, 38, 0
3, 151528, Note_on_c, 1, 50, 0
3, 151552, Note_on_c, 1, 49, 36
3, 151624, Note_on_c, 1, 49, 0
3, 151680, Note_on_c, 1, 50, 68
3, 151912, Note_on_c, 1, 50, 0
3, 151936, Note_on_c, 1, 49, 34
3, 152008, Note_on_c, 1, 49, 0
3, 152064, Note_on_c, 1, 50, 60
3, 152392, Note_on_c, 1, 50, 0
3, 152448, Note_on_c, 1, 38, 61
3, 153088, Note_on_c, 1, 50, 94
3, 153152, Note_on_c, 1, 50, 0
3, 153344, Note_on_c, 1, 50, 67
3, 153432, Note_on_c, 1, 50, 0
3, 153472, Note_on_c, 1, 49, 54
3, 153528, Note_on_c, 1, 49, 0
3, 153600, Note_on_c, 1, 50, 76
3, 153696, Note_on_c, 1, 50, 0
3, 153856, Note_on_c, 1, 46, 71
3, 153896, Note_on_c, 1, 46, 0
3, 153984, Note_on_c, 1, 47, 58
3, 153992, Note_on_c, 1, 47, 0
3, 154240, Note_on_c, 1, 42, 69
3, 154288, Note_on_c, 1, 42, 0
3, 154368, Note_on_c, 1, 43, 49
3, 154392, Note_on_c, 1, 38, 0
3, 154624, Note_on_c, 1, 39, 40
3, 154648, Note_on_c, 1, 39, 0
3, 154752, Note_on_c, 1, 40, 47
3, 154784, Note_on_c, 1, 40, 0
3, 155008, Note_on_c, 1, 35, 51
3, 155024, Note_on_c, 1, 35, 0
3, 155136, Note_on_c, 1, 42, 69
3, 155144, Note_on_c, 1, 43, 0
3, 155512, Note_on_c, 1, 42, 0
3, 155520, Note_on_c, 1, 40, 46
3, 155888, Note_on_c, 1, 40, 0
3, 155904, Note_on_c, 1, 36, 57
3, 156176, Note_on_c, 1, 36, 0
3, 156288, Note_on_c, 1, 34, 46
3, 156648, Note_on_c, 1, 34, 0
3, 156672, Note_on_c, 1, 35, 44
3, 157056, Note_on_c, 1, 48, 46
3, 157056, Note_on_c, 1, 47, 45
3, 157152, Note_on_c, 1, 47, 0
3, 157392, Note_on_c, 1, 48, 0
3, 157440, Note_on_c, 1, 47, 57
3, 157448, Note_on_c, 1, 35, 0
3, 157824, Note_on_c, 1, 35, 54
3, 157848, Note_on_c, 1, 47, 0
3, 158208, Note_on_c, 1, 40, 52
3, 158216, Note_on_c, 1, 35, 0
3, 158592, Note_on_c, 1, 47, 77
3, 158920, Note_on_c, 1, 47, 0
3, 158968, Note_on_c, 1, 40, 0
3, 158976, Note_on_c, 1, 44, 46
3, 159232, Note_on_c, 1, 40, 45
3, 159248, Note_on_c, 1, 40, 0
3, 159336, Note_on_c, 1, 44, 0
3, 159360, Note_on_c, 1, 40, 36
3, 159600, Note_on_c, 1, 40, 0
3, 159616, Note_on_c, 1, 37, 61
3, 159688, Note_on_c, 1, 37, 0
3, 159744, Note_on_c, 1, 36, 51
3, 160128, Note_on_c, 1, 48, 60
3, 160192, Note_on_c, 1, 36, 0
3, 160464, Note_on_c, 1, 48, 0
3, 160512, Note_on_c, 1, 46, 49
3, 160856, Note_on_c, 1, 46, 0
3, 160896, Note_on_c, 1, 44, 30
3, 161096, Note_on_c, 1, 44, 0
3, 161152, Note_on_c, 1, 43, 49
3, 161216, Note_on_c, 1, 43, 0
3, 161280, Note_on_c, 1, 44, 34
3, 161536, Note_on_c, 1, 41, 68
3, 161544, Note_on_c, 1, 44, 0
3, 161576, Note_on_c, 1, 41, 0
3, 161664, Note_on_c, 1, 41, 62
3, 162040, Note_on_c, 1, 41, 0
3, 162048, Note_on_c, 1, 36, 47
3, 162384, Note_on_c, 1, 36, 0
3, 162432, Note_on_c, 1, 33, 51
3, 162816, Note_on_c, 1, 33, 0
3, 162816, Note_on_c, 1, 34, 53
3, 163200, Note_on_c, 1, 36, 57
3, 163208, Note_on_c, 1, 34, 0
3, 163584, Note_on_c, 1, 37, 37
3, 163632, Note_on_c, 1, 36, 0
3, 163968, Note_on_c, 1, 39, 42
3, 163976, Note_on_c, 1, 37, 0
3, 164312, Note_on_c, 1, 39, 0
3, 164352, Note_on_c, 1, 40, 45
3, 164720, Note_on_c, 1, 40, 0
3, 164736, Note_on_c, 1, 46, 67
3, 165096, Note_on_c, 1, 46, 0
3, 165120, Note_on_c, 1, 45, 40
3, 165344, Note_on_c, 1, 45, 0
3, 165376, Note_on_c, 1, 52, 65
3, 165424, Note_on_c, 1, 52, 0
3, 165504, Note_on_c, 1, 46, 50
3, 165584, Note_on_c, 1, 46, 0
3, 165760, Note_on_c, 1, 45, 67
3, 165776, Note_on_c, 1, 45, 0
3, 165888, Note_on_c, 1, 44, 63
3, 165896, Note_on_c, 1, 44, 0
3, 166144, Note_on_c, 1, 39, 57
3, 166200, Note_on_c, 1, 39, 0
3, 166272, Note_on_c, 1, 36, 55
3, 166608, Note_on_c, 1, 36, 0
3, 166656, Note_on_c, 1, 34, 36
3, 166952, Note_on_c, 1, 34, 0
3, 167040, Note_on_c, 1, 33, 44
3, 167104, Note_on_c, 1, 33, 0
3, 167296, Note_on_c, 1, 36, 65
3, 167336, Note_on_c, 1, 36, 0
3, 167424, Note_on_c, 1, 37, 57
3, 167624, Note_on_c, 1, 37, 0
3, 167680, Note_on_c, 1, 37, 60
3, 167696, Note_on_c, 1, 37, 0
3, 167808, Note_on_c, 1, 44, 47
3, 168120, Note_on_c, 1, 44, 0
3, 168192, Note_on_c, 1, 51, 56
3, 168448, Note_on_c, 1, 51, 0
3, 168448, Note_on_c, 1, 48, 64
3, 168520, Note_on_c, 1, 48, 0
3, 168576, Note_on_c, 1, 44, 51
3, 168600, Note_on_c, 1, 44, 0
3, 168832, Note_on_c, 1, 43, 66
3, 168904, Note_on_c, 1, 43, 0
3, 168960, Note_on_c, 1, 42, 46
3, 168976, Note_on_c, 1, 42, 0
3, 169088, Note_on_c, 1, 37, 26
3, 169112, Note_on_c, 1, 37, 0
3, 169344, Note_on_c, 1, 30, 69
3, 169600, Note_on_c, 1, 37, 26
3, 169680, Note_on_c, 1, 37, 0
3, 169696, Note_on_c, 1, 30, 0
3, 169728, Note_on_c, 1, 42, 61
3, 169984, Note_on_c, 1, 34, 38
3, 170048, Note_on_c, 1, 34, 0
3, 170072, Note_on_c, 1, 42, 0
3, 170112, Note_on_c, 1, 35, 46
3, 170472, Note_on_c, 1, 35, 0
3, 170496, Note_on_c, 1, 36, 41
3, 170752, Note_on_c, 1, 50, 89
3, 170824, Note_on_c, 1, 50, 0
3, 170880, Note_on_c, 1, 46, 43
3, 170944, Note_on_c, 1, 36, 0
3, 171136, Note_on_c, 1, 34, 36
3, 171184, Note_on_c, 1, 46, 0
3, 171208, Note_on_c, 1, 34, 0
3, 171264, Note_on_c, 1, 43, 44
3, 171632, Note_on_c, 1, 43, 0
3, 171648, Note_on_c, 1, 39, 33
3, 171688, Note_on_c, 1, 39, 0
3, 171776, Note_on_c, 1, 38, 37
3, 171808, Note_on_c, 1, 38, 0
3, 171904, Note_on_c, 1, 36, 71
3, 171952, Note_on_c, 1, 36, 0
3, 172032, Note_on_c, 1, 35, 60
3, 172392, Note_on_c, 1, 35, 0
3, 172416, Note_on_c, 1, 38, 42
3, 172768, Note_on_c, 1, 38, 0
3, 172800, Note_on_c, 1, 41, 47
3, 173008, Note_on_c, 1, 41, 0
3, 173056, Note_on_c, 1, 44, 46
3, 173080, Note_on_c, 1, 44, 0
3, 173184, Note_on_c, 1, 33, 74
3, 173536, Note_on_c, 1, 33, 0
3, 173568, Note_on_c, 1, 34, 44
3, 173952, Note_on_c, 1, 34, 0
3, 173952, Note_on_c, 1, 41, 49
3, 174208, Note_on_c, 1, 34, 31
3, 174272, Note_on_c, 1, 34, 0
3, 174336, Note_on_c, 1, 49, 60
3, 174352, Note_on_c, 1, 41, 0
3, 174632, Note_on_c, 1, 49, 0
3, 174720, Note_on_c, 1, 50, 65
3, 175056, Note_on_c, 1, 50, 0
3, 175104, Note_on_c, 1, 51, 56
3, 175360, Note_on_c, 1, 39, 68
3, 175416, Note_on_c, 1, 39, 0
3, 175488, Note_on_c, 1, 38, 32
3, 175720, Note_on_c, 1, 38, 0
3, 175744, Note_on_c, 1, 39, 75
3, 175808, Note_on_c, 1, 51, 0
3, 176128, Note_on_c, 1, 51, 68
3, 176200, Note_on_c, 1, 51, 0
3, 176256, Note_on_c, 1, 50, 34
3, 176472, Note_on_c, 1, 50, 0
3, 176512, Note_on_c, 1, 51, 74
3, 176632, Note_on_c, 1, 39, 0
3, 176896, Note_on_c, 1, 39, 62
3, 176928, Note_on_c, 1, 39, 0
3, 177024, Note_on_c, 1, 38, 53
3, 177216, Note_on_c, 1, 38, 0
3, 177224, Note_on_c, 1, 51, 0
3, 177280, Note_on_c, 1, 39, 79
3, 177664, Note_on_c, 1, 51, 82
3, 177736, Note_on_c, 1, 51, 0
3, 177752, Note_on_c, 1, 39, 0
3, 177792, Note_on_c, 1, 50, 54
3, 177792, Note_on_c, 1, 50, 0
3, 177920, Note_on_c, 1, 45, 38
3, 177936, Note_on_c, 1, 45, 0
3, 178048, Note_on_c, 1, 44, 60
3, 178096, Note_on_c, 1, 44, 0
3, 178176, Note_on_c, 1, 43, 36
3, 178376, Note_on_c, 1, 43, 0
3, 178432, Note_on_c, 1, 38, 55
3, 178432, Note_on_c, 1, 38, 0
3, 178560, Note_on_c, 1, 35, 56
3, 178888, Note_on_c, 1, 35, 0
3, 178944, Note_on_c, 1, 36, 50
3, 179200, Note_on_c, 1, 34, 31
3, 179240, Note_on_c, 1, 36, 0
3, 179256, Note_on_c, 1, 34, 0
3, 179328, Note_on_c, 1, 44, 57
3, 179512, Note_on_c, 1, 44, 0
3, 179584, Note_on_c, 1, 43, 48
3, 179616, Note_on_c, 1, 43, 0
3, 179968, Note_on_c, 1, 36, 53
3, 179968, Note_on_c, 1, 38, 37
3, 179992, Note_on_c, 1, 38, 0
3, 180032, Note_on_c, 1, 36, 0
3, 180096, Note_on_c, 1, 36, 45
3, 180096, Note_on_c, 1, 34, 59
3, 180120, Note_on_c, 1, 36, 0
3, 180440, Note_on_c, 1, 34, 0
3, 180480, Note_on_c, 1, 32, 57
3, 180800, Note_on_c, 1, 32, 0
3, 180864, Note_on_c, 1, 33, 51
3, 181208, Note_on_c, 1, 33, 0
3, 181248, Note_on_c, 1, 34, 45
3, 181632, Note_on_c, 1, 41, 49
3, 181656, Note_on_c, 1, 34, 0
3, 182016, Note_on_c, 1, 49, 50
3, 182072, Note_on_c, 1, 41, 0
3, 182272, Note_on_c, 1, 41, 51
3, 182296, Note_on_c, 1, 41, 0
3, 182400, Note_on_c, 1, 39, 59
3, 182712, Note_on_c, 1, 49, 0
3, 182768, Note_on_c, 1, 39, 0
3, 182784, Note_on_c, 1, 40, 53
3, 183040, Note_on_c, 1, 47, 68
3, 183128, Note_on_c, 1, 47, 0
3, 183144, Note_on_c, 1, 40, 0
3, 183168, Note_on_c, 1, 46, 49
3, 183424, Note_on_c, 1, 39, 39
3, 183456, Note_on_c, 1, 39, 0
3, 183512, Note_on_c, 1, 46, 0
3, 183552, Note_on_c, 1, 45, 53
3, 183808, Note_on_c, 1, 40, 55
3, 183856, Note_on_c, 1, 40, 0
3, 183936, Note_on_c, 1, 33, 57
3, 184232, Note_on_c, 1, 33, 0
3, 184312, Note_on_c, 1, 45, 0
3, 184320, Note_on_c, 1, 32, 59
3, 184704, Note_on_c, 1, 39, 46
3, 185088, Note_on_c, 1, 48, 60
3, 185128, Note_on_c, 1, 39, 0
3, 185344, Note_on_c, 1, 39, 37
3, 185392, Note_on_c, 1, 39, 0
3, 185392, Note_on_c, 1, 48, 0
3, 185472, Note_on_c, 1, 48, 69
3, 185624, Note_on_c, 1, 32, 0
3, 185728, Note_on_c, 1, 39, 20
3, 185768, Note_on_c, 1, 39, 0
3, 185824, Note_on_c, 1, 48, 0
3, 185856, Note_on_c, 1, 49, 52
3, 186240, Note_on_c, 1, 44, 52
3, 186600, Note_on_c, 1, 44, 0
3, 186624, Note_on_c, 1, 41, 39
3, 186840, Note_on_c, 1, 41, 0
3, 186880, Note_on_c, 1, 40, 52
3, 186968, Note_on_c, 1, 40, 0
3, 187008, Note_on_c, 1, 39, 37
3, 187232, Note_on_c, 1, 39, 0
3, 187264, Note_on_c, 1, 37, 47
3, 187336, Note_on_c, 1, 37, 0
3, 187392, Note_on_c, 1, 38, 48
3, 187624, Note_on_c, 1, 38, 0
3, 187648, Note_on_c, 1, 33, 40
3, 187672, Note_on_c, 1, 33, 0
3, 187776, Note_on_c, 1, 29, 52
3, 188000, Note_on_c, 1, 29, 0
3, 188032, Note_on_c, 1, 30, 49
3, 188088, Note_on_c, 1, 30, 0
3, 188160, Note_on_c, 1, 31, 49
3, 188512, Note_on_c, 1, 31, 0
3, 188544, Note_on_c, 1, 33, 51
3, 188600, Note_on_c, 1, 33, 0
3, 188672, Note_on_c, 1, 34, 42
3, 188696, Note_on_c, 1, 34, 0
3, 188800, Note_on_c, 1, 35, 64
3, 188856, Note_on_c, 1, 35, 0
3, 188928, Note_on_c, 1, 36, 62
3, 188952, Note_on_c, 1, 36, 0
3, 189056, Note_on_c, 1, 31, 69
3, 189064, Note_on_c, 1, 31, 0
3, 189184, Note_on_c, 1, 27, 71
3, 189232, Note_on_c, 1, 27, 0
3, 189312, Note_on_c, 1, 28, 71
3, 189672, Note_on_c, 1, 28, 0
3, 189688, Note_on_c, 1, 49, 0
3, 189696, Note_on_c, 1, 29, 59
3, 190080, Note_on_c, 1, 30, 61
3, 190112, Note_on_c, 1, 29, 0
3, 190456, Note_on_c, 1, 30, 0
3, 190464, Note_on_c, 1, 31, 45
3, 190840, Note_on_c, 1, 31, 0
3, 190848, Note_on_c, 1, 35, 55
3, 191200, Note_on_c, 1, 35, 0
3, 191232, Note_on_c, 1, 36, 54
3, 191488, Note_on_c, 1, 40, 40
3, 191512, Note_on_c, 1, 36, 0
3, 191544, Note_on_c, 1, 40, 0
3, 191616, Note_on_c, 1, 47, 53
3, 191992, Note_on_c, 1, 47, 0
3, 192000, Note_on_c, 1, 48, 63
3, 192384, Note_on_c, 1, 35, 48
3, 192392, Note_on_c, 1, 48, 0
3, 192760, Note_on_c, 1, 35, 0
3, 192768, Note_on_c, 1, 36, 56
3, 193024, Note_on_c, 1, 34, 26
3, 193128, Note_on_c, 1, 34, 0
3, 193144, Note_on_c, 1, 36, 0
3, 193152, Note_on_c, 1, 43, 68
3, 193376, Note_on_c, 1, 43, 0
3, 193408, Note_on_c, 1, 42, 49
3, 193520, Note_on_c, 1, 42, 0
3, 193536, Note_on_c, 1, 41, 55
3, 193792, Note_on_c, 1, 30, 65
3, 193800, Note_on_c, 1, 41, 0
3, 193912, Note_on_c, 1, 30, 0
3, 193920, Note_on_c, 1, 29, 50
3, 194304, Note_on_c, 1, 43, 58
3, 194328, Note_on_c, 1, 29, 0
3, 194688, Note_on_c, 1, 41, 55
3, 194712, Note_on_c, 1, 43, 0
3, 194944, Note_on_c, 1, 34, 48
3, 194976, Note_on_c, 1, 41, 0
3, 195016, Note_on_c, 1, 34, 0
3, 195072, Note_on_c, 1, 35, 49
3, 195328, Note_on_c, 1, 34, 28
3, 195376, Note_on_c, 1, 35, 0
3, 195400, Note_on_c, 1, 34, 0
3, 195456, Note_on_c, 1, 47, 59
3, 195712, Note_on_c, 1, 47, 0
3, 195712, Note_on_c, 1, 39, 42
3, 195768, Note_on_c, 1, 39, 0
3, 195840, Note_on_c, 1, 40, 44
3, 196096, Note_on_c, 1, 39, 25
3, 196192, Note_on_c, 1, 39, 0
3, 196224, Note_on_c, 1, 52, 77
3, 196320, Note_on_c, 1, 40, 0
3, 196480, Note_on_c, 1, 39, 18
3, 196496, Note_on_c, 1, 39, 0
3, 196536, Note_on_c, 1, 52, 0
3, 196608, Note_on_c, 1, 51, 59
3, 196864, Note_on_c, 1, 39, 21
3, 196864, Note_on_c, 1, 39, 0
3, 196952, Note_on_c, 1, 51, 0
3, 196992, Note_on_c, 1, 46, 55
3, 197376, Note_on_c, 1, 43, 44
3, 197760, Note_on_c, 1, 39, 37
3, 197760, Note_on_c, 1, 39, 0
3, 198016, Note_on_c, 1, 33, 50
3, 198040, Note_on_c, 1, 33, 0
3, 198096, Note_on_c, 1, 46, 0
3, 198104, Note_on_c, 1, 43, 0
3, 198144, Note_on_c, 1, 32, 44
3, 198528, Note_on_c, 1, 39, 45
3, 198912, Note_on_c, 1, 48, 73
3, 198968, Note_on_c, 1, 39, 0
3, 198968, Note_on_c, 1, 32, 0
3, 199168, Note_on_c, 1, 39, 47
3, 199184, Note_on_c, 1, 39, 0
3, 199296, Note_on_c, 1, 36, 41
3, 199624, Note_on_c, 1, 36, 0
3, 199648, Note_on_c, 1, 48, 0
3, 199680, Note_on_c, 1, 33, 51
3, 200064, Note_on_c, 1, 39, 55
3, 200080, Note_on_c, 1, 33, 0
3, 200312, Note_on_c, 1, 39, 0
3, 200320, Note_on_c, 1, 37, 37
3, 200400, Note_on_c, 1, 37, 0
3, 200448, Note_on_c, 1, 38, 40
3, 200704, Note_on_c, 1, 50, 77
3, 201064, Note_on_c, 1, 50, 0
3, 201088, Note_on_c, 1, 49, 37
3, 201144, Note_on_c, 1, 49, 0
3, 201216, Note_on_c, 1, 50, 58
3, 201224, Note_on_c, 1, 38, 0
3, 201272, Note_on_c, 1, 50, 0
3, 201344, Note_on_c, 1, 46, 56
3, 201392, Note_on_c, 1, 46, 0
3, 201472, Note_on_c, 1, 47, 64
3, 201496, Note_on_c, 1, 47, 0
3, 201600, Note_on_c, 1, 42, 57
3, 201648, Note_on_c, 1, 42, 0
3, 201728, Note_on_c, 1, 43, 49
3, 201760, Note_on_c, 1, 43, 0
3, 201856, Note_on_c, 1, 37, 65
3, 201944, Note_on_c, 1, 37, 0
3, 201984, Note_on_c, 1, 38, 54
3, 202056, Note_on_c, 1, 38, 0
3, 202112, Note_on_c, 1, 34, 44
3, 202192, Note_on_c, 1, 34, 0
3, 202240, Note_on_c, 1, 35, 60
3, 202336, Note_on_c, 1, 35, 0
3, 202368, Note_on_c, 1, 30, 45
3, 202728, Note_on_c, 1, 30, 0
3, 202752, Note_on_c, 1, 31, 57
3, 203120, Note_on_c, 1, 31, 0
3, 203136, Note_on_c, 1, 33, 54
3, 203488, Note_on_c, 1, 33, 0
3, 203520, Note_on_c, 1, 35, 30
3, 203600, Note_on_c, 1, 36, 7
3, 203744, Note_on_c, 1, 36, 0
3, 203760, Note_on_c, 1, 35, 0
3, 203776, Note_on_c, 1, 47, 78
3, 203888, Note_on_c, 1, 47, 0
3, 203904, Note_on_c, 1, 46, 57
3, 204160, Note_on_c, 1, 35, 32
3, 204200, Note_on_c, 1, 35, 0
3, 204248, Note_on_c, 1, 46, 0
3, 204288, Note_on_c, 1, 45, 46
3, 204320, Note_on_c, 1, 45, 0
3, 204416, Note_on_c, 1, 40, 53
3, 204456, Note_on_c, 1, 40, 0
3, 204544, Note_on_c, 1, 36, 64
3, 204600, Note_on_c, 1, 36, 0
3, 204672, Note_on_c, 1, 37, 57
3, 205024, Note_on_c, 1, 37, 0
3, 205056, Note_on_c, 1, 40, 60
3, 205408, Note_on_c, 1, 40, 0
3, 205440, Note_on_c, 1, 39, 46
3, 205688, Note_on_c, 1, 39, 0
3, 205696, Note_on_c, 1, 37, 50
3, 205776, Note_on_c, 1, 37, 0
3, 205824, Note_on_c, 1, 38, 48
3, 206080, Note_on_c, 1, 37, 27
3, 206160, Note_on_c, 1, 38, 0
3, 206184, Note_on_c, 1, 37, 0
3, 206208, Note_on_c, 1, 50, 74
3, 206464, Note_on_c, 1, 37, 26
3, 206480, Note_on_c, 1, 37, 0
3, 206544, Note_on_c, 1, 50, 0
3, 206592, Note_on_c, 1, 44, 57
3, 206960, Note_on_c, 1, 44, 0
3, 206976, Note_on_c, 1, 32, 52
3, 207320, Note_on_c, 1, 32, 0
3, 207360, Note_on_c, 1, 31, 53
3, 207616, Note_on_c, 1, 38, 26
3, 207664, Note_on_c, 1, 38, 0
3, 207744, Note_on_c, 1, 50, 64
3, 208056, Note_on_c, 1, 50, 0
3, 208128, Note_on_c, 1, 47, 51
3, 208472, Note_on_c, 1, 31, 0
3, 208496, Note_on_c, 1, 47, 0
3, 208512, Note_on_c, 1, 43, 38
3, 208768, Note_on_c, 1, 37, 31
3, 208840, Note_on_c, 1, 37, 0
3, 208896, Note_on_c, 1, 38, 49
3, 209240, Note_on_c, 1, 38, 0
3, 209248, Note_on_c, 1, 43, 0
3, 209280, Note_on_c, 1, 36, 58
3, 209640, Note_on_c, 1, 36, 0
3, 209664, Note_on_c, 1, 35, 54
3, 209872, Note_on_c, 1, 35, 0
3, 209920, Note_on_c, 1, 33, 50
3, 209944, Note_on_c, 1, 33, 0
3, 210048, Note_on_c, 1, 31, 64
3, 210336, Note_on_c, 1, 31, 0
3, 210432, Note_on_c, 1, 30, 58
3, 210816, Note_on_c, 1, 40, 50
3, 210896, Note_on_c, 1, 30, 0
3, 211200, Note_on_c, 1, 45, 71
3, 211240, Note_on_c, 1, 40, 0
3, 211584, Note_on_c, 1, 40, 48
3, 211840, Note_on_c, 1, 34, 25
3, 211928, Note_on_c, 1, 45, 0
3, 211936, Note_on_c, 1, 40, 0
3, 211944, Note_on_c, 1, 34, 0
3, 211968, Note_on_c, 1, 47, 56
3, 212352, Note_on_c, 1, 39, 56
3, 212656, Note_on_c, 1, 47, 0
3, 212728, Note_on_c, 1, 39, 0
3, 212736, Note_on_c, 1, 45, 58
3, 213096, Note_on_c, 1, 45, 0
3, 213120, Note_on_c, 1, 39, 48
3, 213376, Note_on_c, 1, 37, 32
3, 213400, Note_on_c, 1, 39, 0
3, 213440, Note_on_c, 1, 37, 0
3, 213504, Note_on_c, 1, 40, 46
3, 213888, Note_on_c, 1, 52, 70
3, 214200, Note_on_c, 1, 52, 0
3, 214272, Note_on_c, 1, 51, 46
3, 214344, Note_on_c, 1, 40, 0
3, 214528, Note_on_c, 1, 40, 46
3, 214592, Note_on_c, 1, 51, 0
3, 214600, Note_on_c, 1, 40, 0
3, 214656, Note_on_c, 1, 47, 25
3, 214912, Note_on_c, 1, 48, 77
3, 214920, Note_on_c, 1, 47, 0
3, 215392, Note_on_c, 1, 48, 0
3, 215424, Note_on_c, 1, 44, 49
3, 215680, Note_on_c, 1, 36, 37
3, 215680, Note_on_c, 1, 36, 0
3, 215808, Note_on_c, 1, 40, 39
3, 216064, Note_on_c, 1, 36, 55
3, 216104, Note_on_c, 1, 36, 0
3, 216144, Note_on_c, 1, 44, 0
3, 216152, Note_on_c, 1, 40, 0
3, 216192, Note_on_c, 1, 30, 56
3, 216528, Note_on_c, 1, 30, 0
3, 216576, Note_on_c, 1, 29, 49
3, 216832, Note_on_c, 1, 36, 24
3, 216872, Note_on_c, 1, 36, 0
3, 216960, Note_on_c, 1, 44, 38
3, 217304, Note_on_c, 1, 44, 0
3, 217344, Note_on_c, 1, 43, 49
3, 217600, Note_on_c, 1, 36, 25
3, 217608, Note_on_c, 1, 36, 0
3, 217648, Note_on_c, 1, 43, 0
3, 217728, Note_on_c, 1, 44, 21
3, 217728, Note_on_c, 1, 45, 65
3, 217736, Note_on_c, 1, 44, 0
3, 217920, Note_on_c, 1, 29, 0
3, 218072, Note_on_c, 1, 45, 0
3, 218112, Note_on_c, 1, 46, 44
3, 218432, Note_on_c, 1, 46, 0
3, 218496, Note_on_c, 1, 47, 50
3, 218752, Note_on_c, 1, 36, 45
3, 218768, Note_on_c, 1, 36, 0
3, 218832, Note_on_c, 1, 47, 0
3, 218880, Note_on_c, 1, 46, 43
3, 219136, Note_on_c, 1, 46, 0
3, 219136, Note_on_c, 1, 43, 50
3, 219136, Note_on_c, 1, 43, 0
3, 219264, Note_on_c, 1, 38, 71
3, 219592, Note_on_c, 1, 38, 0
3, 219648, Note_on_c, 1, 40, 50
3, 220032, Note_on_c, 1, 40, 0
3, 220032, Note_on_c, 1, 34, 58
3, 220384, Note_on_c, 1, 34, 0
3, 220416, Note_on_c, 1, 33, 54
3, 220728, Note_on_c, 1, 33, 0
3, 220800, Note_on_c, 1, 33, 65
3, 221120, Note_on_c, 1, 33, 0
3, 221184, Note_on_c, 1, 32, 42
3, 221568, Note_on_c, 1, 39, 42
3, 221952, Note_on_c, 1, 48, 69
3, 221984, Note_on_c, 1, 39, 0
3, 222208, Note_on_c, 1, 39, 30
3, 222232, Note_on_c, 1, 39, 0
3, 222240, Note_on_c, 1, 32, 0
3, 222328, Note_on_c, 1, 48, 0
3, 222336, Note_on_c, 1, 44, 45
3, 222592, Note_on_c, 1, 39, 37
3, 222632, Note_on_c, 1, 39, 0
3, 222664, Note_on_c, 1, 44, 0
3, 222720, Note_on_c, 1, 37, 58
3, 223104, Note_on_c, 1, 44, 52
3, 223168, Note_on_c, 1, 37, 0
3, 223456, Note_on_c, 1, 44, 0
3, 223488, Note_on_c, 1, 51, 62
3, 223744, Note_on_c, 1, 37, 32
3, 223808, Note_on_c, 1, 37, 0
3, 223824, Note_on_c, 1, 51, 0
3, 223872, Note_on_c, 1, 50, 56
3, 224128, Note_on_c, 1, 37, 27
3, 224160, Note_on_c, 1, 37, 0
3, 224200, Note_on_c, 1, 50, 0
3, 224256, Note_on_c, 1, 49, 54
3, 224640, Note_on_c, 1, 42, 42
3, 225024, Note_on_c, 1, 30, 42
3, 225040, Note_on_c, 1, 42, 0
3, 225248, Note_on_c, 1, 30, 0
3, 225280, Note_on_c, 1, 34, 46
3, 225344, Note_on_c, 1, 34, 0
3, 225408, Note_on_c, 1, 35, 58
3, 225648, Note_on_c, 1, 49, 0
3, 225768, Note_on_c, 1, 35, 0
3, 225792, Note_on_c, 1, 36, 43
3, 226176, Note_on_c, 1, 48, 83
3, 226496, Note_on_c, 1, 48, 0
3, 226560, Note_on_c, 1, 43, 38
3, 226600, Note_on_c, 1, 36, 0
3, 226792, Note_on_c, 1, 43, 0
3, 226816, Note_on_c, 1, 39, 57
3, 226856, Note_on_c, 1, 39, 0
3, 226944, Note_on_c, 1, 36, 76
3, 227272, Note_on_c, 1, 36, 0
3, 227328, Note_on_c, 1, 35, 48
3, 227712, Note_on_c, 1, 47, 83
3, 227752, Note_on_c, 1, 35, 0
3, 228056, Note_on_c, 1, 47, 0
3, 228096, Note_on_c, 1, 44, 52
3, 228352, Note_on_c, 1, 44, 0
3, 228352, Note_on_c, 1, 41, 34
3, 228400, Note_on_c, 1, 41, 0
3, 228480, Note_on_c, 1, 38, 38
3, 228480, Note_on_c, 1, 38, 0
3, 228608, Note_on_c, 1, 35, 36
3, 228624, Note_on_c, 1, 35, 0
3, 228736, Note_on_c, 1, 35, 54
3, 228768, Note_on_c, 1, 35, 0
3, 228864, Note_on_c, 1, 34, 62
3, 229248, Note_on_c, 1, 41, 53
3, 229288, Note_on_c, 1, 34, 0
3, 229504, Note_on_c, 1, 34, 15
3, 229600, Note_on_c, 1, 34, 0
3, 229632, Note_on_c, 1, 51, 48
3, 229656, Note_on_c, 1, 41, 0
3, 229888, Note_on_c, 1, 41, 68
3, 229904, Note_on_c, 1, 51, 0
3, 229936, Note_on_c, 1, 41, 0
3, 230016, Note_on_c, 1, 38, 58
3, 230344, Note_on_c, 1, 38, 0
3, 230400, Note_on_c, 1, 39, 71
3, 231040, Note_on_c, 1, 39, 0
3, 231040, Note_on_c, 1, 31, 79
3, 231488, Note_on_c, 1, 31, 0
3, 231552, Note_on_c, 1, 30, 62
3, 231552, Note_on_c, 1, 31, 33
3, 231568, Note_on_c, 1, 30, 0
3, 231864, Note_on_c, 1, 31, 0
3, 232072, Note_on_c, 1, 44, 31
3, 232104, Note_on_c, 1, 44, 0
3, 232216, Note_on_c, 1, 37, 77
3, 233320, Note_on_c, 1, 45, 60
3, 233384, Note_on_c, 1, 45, 0
3, 233384, Note_on_c, 1, 37, 0
3, 233456, Note_on_c, 1, 44, 40
3, 233704, Note_on_c, 1, 37, 75
3, 233712, Note_on_c, 1, 44, 0
3, 234112, Note_on_c, 1, 45, 49
3, 234168, Note_on_c, 1, 37, 0
3, 234184, Note_on_c, 1, 45, 0
3, 234256, Note_on_c, 1, 44, 48
3, 234488, Note_on_c, 1, 37, 70
3, 234496, Note_on_c, 1, 44, 0
3, 234864, Note_on_c, 1, 44, 64
3, 234936, Note_on_c, 1, 44, 0
3, 234960, Note_on_c, 1, 37, 0
3, 235016, Note_on_c, 1, 43, 44
3, 235240, Note_on_c, 1, 43, 0
3, 235248, Note_on_c, 1, 36, 82
3, 236392, Note_on_c, 1, 44, 62
3, 236448, Note_on_c, 1, 44, 0
3, 236456, Note_on_c, 1, 36, 0
3, 236544, Note_on_c, 1, 43, 40
3, 236568, Note_on_c, 1, 43, 0
3, 236760, Note_on_c, 1, 36, 76
3, 237160, Note_on_c, 1, 44, 55
3, 237184, Note_on_c, 1, 36, 0
3, 237224, Note_on_c, 1, 44, 0
3, 237320, Note_on_c, 1, 43, 44
3, 237400, Note_on_c, 1, 43, 0
3, 237544, Note_on_c, 1, 36, 71
3, 237896, Note_on_c, 1, 36, 0
3, 237928, Note_on_c, 1, 45, 57
3, 237992, Note_on_c, 1, 45, 0
3, 238064, Note_on_c, 1, 44, 44
3, 238096, Note_on_c, 1, 44, 0
3, 238296, Note_on_c, 1, 37, 76
3, 239488, Note_on_c, 1, 45, 35
3, 239520, Note_on_c, 1, 37, 0
3, 239552, Note_on_c, 1, 45, 0
3, 239624, Note_on_c, 1, 44, 39
3, 239664, Note_on_c, 1, 44, 0
3, 239856, Note_on_c, 1, 37, 75
3, 240232, Note_on_c, 1, 45, 42
3, 240248, Note_on_c, 1, 37, 0
3, 240272, Note_on_c, 1, 45, 0
3, 240384, Note_on_c, 1, 44, 31
3, 240440, Note_on_c, 1, 44, 0
3, 240608, Note_on_c, 1, 37, 65
3, 240960, Note_on_c, 1, 37, 0
3, 240992, Note_on_c, 1, 44, 52
3, 241040, Note_on_c, 1, 44, 0
3, 241144, Note_on_c, 1, 43, 34
3, 241184, Note_on_c, 1, 43, 0
3, 241360, Note_on_c, 1, 36, 62
3, 242544, Note_on_c, 1, 44, 49
3, 242608, Note_on_c, 1, 44, 0
3, 242664, Note_on_c, 1, 36, 0
3, 242696, Note_on_c, 1, 43, 33
3, 242912, Note_on_c, 1, 36, 74
3, 242928, Note_on_c, 1, 43, 0
3, 243312, Note_on_c, 1, 44, 46
3, 243384, Note_on_c, 1, 44, 0
3, 243480, Note_on_c, 1, 36, 0
3, 243480, Note_on_c, 1, 43, 26
3, 243688, Note_on_c, 1, 36, 58
3, 243736, Note_on_c, 1, 43, 0
3, 243744, Note_on_c, 1, 36, 0
3, 244080, Note_on_c, 1, 45, 38
3, 244192, Note_on_c, 1, 45, 0
3, 244216, Note_on_c, 1, 44, 42
3, 244464, Note_on_c, 1, 44, 0
3, 244472, Note_on_c, 1, 37, 53
3, 245624, Note_on_c, 1, 45, 24
3, 245672, Note_on_c, 1, 37, 0
3, 245744, Note_on_c, 1, 45, 0
3, 245776, Note_on_c, 1, 44, 27
3, 245992, Note_on_c, 1, 44, 0
3, 245992, Note_on_c, 1, 37, 34
3, 246392, Note_on_c, 1, 45, 29
3, 246456, Note_on_c, 1, 37, 0
3, 246472, Note_on_c, 1, 45, 0
3, 246536, Note_on_c, 1, 44, 25
3, 246744, Note_on_c, 1, 44, 0
3, 246760, Note_on_c, 1, 37, 33
3, 247136, Note_on_c, 1, 44, 28
3, 247144, Note_on_c, 1, 37, 0
3, 247248, Note_on_c, 1, 44, 0
3, 247288, Note_on_c, 1, 43, 34
3, 247512, Note_on_c, 1, 43, 0
3, 247536, Note_on_c, 1, 36, 37
3, 248688, Note_on_c, 1, 44, 28
3, 248760, Note_on_c, 1, 44, 0
3, 248792, Note_on_c, 1, 36, 0
3, 248832, Note_on_c, 1, 43, 32
3, 249088, Note_on_c, 1, 36, 24
3, 249096, Note_on_c, 1, 43, 0
3, 249456, Note_on_c, 1, 44, 35
3, 249584, Note_on_c, 1, 44, 0
3, 249592, Note_on_c, 1, 36, 0
3, 249608, Note_on_c, 1, 43, 36
3, 249856, Note_on_c, 1, 36, 36
3, 249952, Note_on_c, 1, 43, 0
3, 250168, Note_on_c, 1, 36, 0
3, 250208, Note_on_c, 1, 45, 32
3, 250304, Note_on_c, 1, 45, 0
3, 250328, Note_on_c, 1, 44, 35
3, 250568, Note_on_c, 1, 44, 0
3, 250576, Note_on_c, 1, 37, 37
3, 251752, Note_on_c, 1, 45, 27
3, 251840, Note_on_c, 1, 45, 0
3, 251864, Note_on_c, 1, 37, 0
3, 251880, Note_on_c, 1, 44, 31
3, 252120, Note_on_c, 1, 44, 0
3, 252136, Note_on_c, 1, 37, 34
3, 252512, Note_on_c, 1, 45, 38
3, 252568, Note_on_c, 1, 37, 0
3, 252632, Note_on_c, 1, 45, 0
3, 252640, Note_on_c, 1, 44, 36
3, 252888, Note_on_c, 1, 44, 0
3, 252888, Note_on_c, 1, 37, 36
3, 253296, Note_on_c, 1, 44, 50
3, 253336, Note_on_c, 1, 37, 0
3, 253424, Note_on_c, 1, 44, 0
3, 253448, Note_on_c, 1, 43, 35
3, 253696, Note_on_c, 1, 43, 0
3, 253696, End_track
4, 0, Start_track
4, 0, Title_t, ""
4, 0, Note_on_c, 9, 35, 1
4, 24, Note_on_c, 9, 35, 0
4, 384, Note_on_c, 9, 44, 98
4, 626, Note_on_c, 9, 35, 36
4, 706, Note_on_c, 9, 35, 0
4, 768, Note_on_c, 9, 44, 0
4, 770, Note_on_c, 9, 35, 30
4, 854, Note_on_c, 9, 35, 0
4, 1152, Note_on_c, 9, 44, 103
4, 1408, Note_on_c, 9, 35, 35
4, 1452, Note_on_c, 9, 35, 0
4, 1536, Note_on_c, 9, 44, 0
4, 1536, Note_on_c, 9, 51, 47
4, 1664, Note_on_c, 9, 51, 0
4, 1920, Note_on_c, 9, 44, 100
4, 2174, Note_on_c, 9, 35, 50
4, 2176, Note_on_c, 9, 51, 48
4, 2272, Note_on_c, 9, 35, 0
4, 2304, Note_on_c, 9, 51, 0
4, 2304, Note_on_c, 9, 44, 0
4, 2304, Note_on_c, 9, 51, 35
4, 2323, Note_on_c, 9, 35, 42
4, 2411, Note_on_c, 9, 35, 0
4, 2432, Note_on_c, 9, 51, 0
4, 2688, Note_on_c, 9, 44, 101
4, 2926, Note_on_c, 9, 35, 58
4, 2944, Note_on_c, 9, 51, 55
4, 3031, Note_on_c, 9, 35, 0
4, 3072, Note_on_c, 9, 51, 0
4, 3072, Note_on_c, 9, 44, 0
4, 3072, Note_on_c, 9, 51, 53
4, 3200, Note_on_c, 9, 51, 0
4, 3456, Note_on_c, 9, 44, 95
4, 3703, Note_on_c, 9, 35, 59
4, 3712, Note_on_c, 9, 51, 53
4, 3800, Note_on_c, 9, 35, 0
4, 3840, Note_on_c, 9, 51, 0
4, 3840, Note_on_c, 9, 44, 0
4, 3840, Note_on_c, 9, 51, 42
4, 3968, Note_on_c, 9, 51, 0
4, 4224, Note_on_c, 9, 44, 98
4, 4475, Note_on_c, 9, 35, 48
4, 4480, Note_on_c, 9, 51, 48
4, 4546, Note_on_c, 9, 35, 0
4, 4608, Note_on_c, 9, 51, 0
4, 4608, Note_on_c, 9, 44, 0
4, 4608, Note_on_c, 9, 51, 39
4, 4622, Note_on_c, 9, 35, 31
4, 4720, Note_on_c, 9, 35, 0
4, 4736, Note_on_c, 9, 51, 0
4, 4992, Note_on_c, 9, 44, 97
4, 5216, Note_on_c, 9, 35, 44
4, 5248, Note_on_c, 9, 51, 59
4, 5264, Note_on_c, 9, 35, 0
4, 5376, Note_on_c, 9, 51, 0
4, 5376, Note_on_c, 9, 44, 0
4, 5376, Note_on_c, 9, 51, 44
4, 5504, Note_on_c, 9, 51, 0
4, 5760, Note_on_c, 9, 44, 100
4, 6016, Note_on_c, 9, 51, 34
4, 6023, Note_on_c, 9, 35, 30
4, 6071, Note_on_c, 9, 35, 0
4, 6144, Note_on_c, 9, 51, 0
4, 6144, Note_on_c, 9, 44, 0
4, 6144, Note_on_c, 9, 51, 47
4, 6154, Note_on_c, 9, 35, 30
4, 6228, Note_on_c, 9, 35, 0
4, 6272, Note_on_c, 9, 51, 0
4, 6528, Note_on_c, 9, 44, 94
4, 6774, Note_on_c, 9, 35, 46
4, 6784, Note_on_c, 9, 51, 50
4, 6828, Note_on_c, 9, 35, 0
4, 6912, Note_on_c, 9, 51, 0
4, 6912, Note_on_c, 9, 44, 0
4, 6912, Note_on_c, 9, 51, 38
4, 7040, Note_on_c, 9, 51, 0
4, 7168, Note_on_c, 9, 51, 75
4, 7296, Note_on_c, 9, 51, 0
4, 7296, Note_on_c, 9, 51, 42
4, 7296, Note_on_c, 9, 44, 102
4, 7424, Note_on_c, 9, 51, 0
4, 7549, Note_on_c, 9, 35, 48
4, 7552, Note_on_c, 9, 51, 56
4, 7603, Note_on_c, 9, 35, 0
4, 7669, Note_on_c, 9, 35, 18
4, 7680, Note_on_c, 9, 51, 0
4, 7680, Note_on_c, 9, 44, 0
4, 7680, Note_on_c, 9, 51, 59
4, 7739, Note_on_c, 9, 35, 0
4, 7808, Note_on_c, 9, 51, 0
4, 8064, Note_on_c, 9, 44, 99
4, 8320, Note_on_c, 9, 51, 50
4, 8320, Note_on_c, 9, 35, 39
4, 8364, Note_on_c, 9, 35, 0
4, 8448, Note_on_c, 9, 51, 0
4, 8448, Note_on_c, 9, 44, 0
4, 8448, Note_on_c, 9, 51, 39
4, 8461, Note_on_c, 9, 35, 33
4, 8523, Note_on_c, 9, 35, 0
4, 8576, Note_on_c, 9, 51, 0
4, 8704, Note_on_c, 9, 53, 80
4, 8832, Note_on_c, 9, 53, 0
4, 8832, Note_on_c, 9, 51, 49
4, 8832, Note_on_c, 9, 44, 103
4, 8960, Note_on_c, 9, 51, 0
4, 9088, Note_on_c, 9, 53, 80
4, 9114, Note_on_c, 9, 35, 46
4, 9154, Note_on_c, 9, 35, 0
4, 9216, Note_on_c, 9, 53, 0
4, 9216, Note_on_c, 9, 44, 0
4, 9216, Note_on_c, 9, 51, 47
4, 9260, Note_on_c, 9, 35, 31
4, 9295, Note_on_c, 9, 35, 0
4, 9344, Note_on_c, 9, 51, 0
4, 9490, Note_on_c, 9, 40, 23
4, 9530, Note_on_c, 9, 40, 0
4, 9600, Note_on_c, 9, 44, 101
4, 9630, Note_on_c, 9, 40, 23
4, 9665, Note_on_c, 9, 40, 0
4, 9856, Note_on_c, 9, 51, 55
4, 9862, Note_on_c, 9, 35, 54
4, 9937, Note_on_c, 9, 35, 0
4, 9984, Note_on_c, 9, 51, 0
4, 9984, Note_on_c, 9, 44, 0
4, 9984, Note_on_c, 9, 51, 51
4, 9994, Note_on_c, 9, 35, 30
4, 10060, Note_on_c, 9, 35, 0
4, 10112, Note_on_c, 9, 51, 0
4, 10233, Note_on_c, 9, 40, 30
4, 10292, Note_on_c, 9, 40, 0
4, 10357, Note_on_c, 9, 40, 22
4, 10368, Note_on_c, 9, 44, 97
4, 10398, Note_on_c, 9, 40, 0
4, 10594, Note_on_c, 9, 35, 61
4, 10624, Note_on_c, 9, 51, 65
4, 10675, Note_on_c, 9, 35, 0
4, 10732, Note_on_c, 9, 35, 38
4, 10752, Note_on_c, 9, 51, 0
4, 10752, Note_on_c, 9, 44, 0
4, 10752, Note_on_c, 9, 51, 59
4, 10810, Note_on_c, 9, 35, 0
4, 10880, Note_on_c, 9, 51, 0
4, 11136, Note_on_c, 9, 44, 101
4, 11377, Note_on_c, 9, 35, 69
4, 11392, Note_on_c, 9, 51, 60
4, 11463, Note_on_c, 9, 35, 0
4, 11520, Note_on_c, 9, 51, 0
4, 11520, Note_on_c, 9, 44, 0
4, 11520, Note_on_c, 9, 51, 57
4, 11648, Note_on_c, 9, 51, 0
4, 11904, Note_on_c, 9, 46, 97
4, 12158, Note_on_c, 9, 35, 43
4, 12160, Note_on_c, 9, 51, 57
4, 12191, Note_on_c, 9, 35, 0
4, 12288, Note_on_c, 9, 51, 0
4, 12288, Note_on_c, 9, 46, 0
4, 12288, Note_on_c, 9, 51, 61
4, 12289, Note_on_c, 9, 35, 37
4, 12353, Note_on_c, 9, 35, 0
4, 12416, Note_on_c, 9, 51, 0
4, 12672, Note_on_c, 9, 44, 90
4, 12928, Note_on_c, 9, 51, 64
4, 13056, Note_on_c, 9, 51, 0
4, 13056, Note_on_c, 9, 44, 0
4, 13056, Note_on_c, 9, 51, 62
4, 13312, Note_on_c, 9, 51, 0
4, 13440, Note_on_c, 9, 44, 94
4, 13696, Note_on_c, 9, 51, 70
4, 13722, Note_on_c, 9, 35, 61
4, 13824, Note_on_c, 9, 51, 0
4, 13824, Note_on_c, 9, 44, 0
4, 13824, Note_on_c, 9, 51, 68
4, 13827, Note_on_c, 9, 57, 52
4, 13828, Note_on_c, 9, 35, 0
4, 13952, Note_on_c, 9, 51, 0
4, 14072, Note_on_c, 9, 57, 0
4, 14208, Note_on_c, 9, 51, 52
4, 14208, Note_on_c, 9, 44, 98
4, 14336, Note_on_c, 9, 51, 0
4, 14592, Note_on_c, 9, 44, 0
4, 14592, Note_on_c, 9, 51, 60
4, 14720, Note_on_c, 9, 51, 0
4, 14976, Note_on_c, 9, 51, 52
4, 14976, Note_on_c, 9, 44, 103
4, 15104, Note_on_c, 9, 51, 0
4, 15232, Note_on_c, 9, 51, 58
4, 15258, Note_on_c, 9, 35, 34
4, 15286, Note_on_c, 9, 35, 0
4, 15360, Note_on_c, 9, 51, 0
4, 15360, Note_on_c, 9, 44, 0
4, 15360, Note_on_c, 9, 51, 59
4, 15616, Note_on_c, 9, 51, 0
4, 15744, Note_on_c, 9, 51, 73
4, 15744, Note_on_c, 9, 44, 100
4, 16000, Note_on_c, 9, 51, 0
4, 16128, Note_on_c, 9, 44, 0
4, 16128, Note_on_c, 9, 51, 71
4, 16384, Note_on_c, 9, 51, 0
4, 16512, Note_on_c, 9, 51, 77
4, 16512, Note_on_c, 9, 44, 101
4, 16768, Note_on_c, 9, 51, 0
4, 16768, Note_on_c, 9, 51, 42
4, 16896, Note_on_c, 9, 51, 0
4, 16896, Note_on_c, 9, 44, 0
4, 16896, Note_on_c, 9, 51, 60
4, 17152, Note_on_c, 9, 51, 0
4, 17280, Note_on_c, 9, 51, 80
4, 17280, Note_on_c, 9, 44, 95
4, 17536, Note_on_c, 9, 51, 0
4, 17664, Note_on_c, 9, 44, 0
4, 17664, Note_on_c, 9, 51, 49
4, 17792, Note_on_c, 9, 51, 0
4, 17792, Note_on_c, 9, 51, 72
4, 17920, Note_on_c, 9, 51, 0
4, 18048, Note_on_c, 9, 51, 83
4, 18048, Note_on_c, 9, 44, 98
4, 18106, Note_on_c, 9, 40, 6
4, 18130, Note_on_c, 9, 40, 0
4, 18304, Note_on_c, 9, 51, 0
4, 18337, Note_on_c, 9, 40, 64
4, 18388, Note_on_c, 9, 40, 0
4, 18432, Note_on_c, 9, 44, 0
4, 18432, Note_on_c, 9, 51, 78
4, 18475, Note_on_c, 9, 40, 38
4, 18511, Note_on_c, 9, 40, 0
4, 18688, Note_on_c, 9, 51, 0
4, 18695, Note_on_c, 9, 35, 33
4, 18732, Note_on_c, 9, 35, 0
4, 18816, Note_on_c, 9, 51, 79
4, 18816, Note_on_c, 9, 44, 97
4, 18838, Note_on_c, 9, 35, 22
4, 18880, Note_on_c, 9, 35, 0
4, 19072, Note_on_c, 9, 51, 0
4, 19072, Note_on_c, 9, 51, 53
4, 19102, Note_on_c, 9, 35, 46
4, 19156, Note_on_c, 9, 35, 0
4, 19200, Note_on_c, 9, 51, 0
4, 19200, Note_on_c, 9, 44, 0
4, 19200, Note_on_c, 9, 51, 76
4, 19456, Note_on_c, 9, 51, 0
4, 19584, Note_on_c, 9, 51, 74
4, 19584, Note_on_c, 9, 44, 100
4, 19840, Note_on_c, 9, 51, 0
4, 19968, Note_on_c, 9, 44, 0
4, 19968, Note_on_c, 9, 51, 65
4, 20224, Note_on_c, 9, 51, 0
4, 20224, Note_on_c, 9, 53, 70
4, 20352, Note_on_c, 9, 53, 0
4, 20352, Note_on_c, 9, 51, 52
4, 20352, Note_on_c, 9, 44, 94
4, 20608, Note_on_c, 9, 51, 0
4, 20736, Note_on_c, 9, 44, 0
4, 20736, Note_on_c, 9, 51, 56
4, 20992, Note_on_c, 9, 51, 0
4, 21120, Note_on_c, 9, 51, 60
4, 21120, Note_on_c, 9, 44, 102
4, 21127, Note_on_c, 9, 40, 37
4, 21155, Note_on_c, 9, 40, 0
4, 21260, Note_on_c, 9, 40, 44
4, 21320, Note_on_c, 9, 40, 0
4, 21376, Note_on_c, 9, 51, 0
4, 21383, Note_on_c, 9, 35, 41
4, 21452, Note_on_c, 9, 35, 0
4, 21504, Note_on_c, 9, 44, 0
4, 21504, Note_on_c, 9, 51, 71
4, 21760, Note_on_c, 9, 51, 0
4, 21888, Note_on_c, 9, 51, 71
4, 21888, Note_on_c, 9, 44, 99
4, 22016, Note_on_c, 9, 51, 0
4, 22144, Note_on_c, 9, 51, 46
4, 22272, Note_on_c, 9, 51, 0
4, 22272, Note_on_c, 9, 44, 0
4, 22272, Note_on_c, 9, 51, 68
4, 22528, Note_on_c, 9, 51, 0
4, 22656, Note_on_c, 9, 51, 79
4, 22656, Note_on_c, 9, 44, 103
4, 22910, Note_on_c, 9, 35, 40
4, 22912, Note_on_c, 9, 51, 0
4, 22912, Note_on_c, 9, 51, 56
4, 23000, Note_on_c, 9, 35, 0
4, 23040, Note_on_c, 9, 51, 0
4, 23040, Note_on_c, 9, 44, 0
4, 23040, Note_on_c, 9, 51, 74
4, 23050, Note_on_c, 9, 35, 26
4, 23135, Note_on_c, 9, 35, 0
4, 23296, Note_on_c, 9, 51, 0
4, 23424, Note_on_c, 9, 51, 77
4, 23424, Note_on_c, 9, 44, 101
4, 23680, Note_on_c, 9, 51, 0
4, 23808, Note_on_c, 9, 44, 0
4, 23808, Note_on_c, 9, 51, 83
4, 24064, Note_on_c, 9, 51, 0
4, 24064, Note_on_c, 9, 51, 59
4, 24192, Note_on_c, 9, 51, 0
4, 24192, Note_on_c, 9, 51, 80
4, 24192, Note_on_c, 9, 44, 97
4, 24448, Note_on_c, 9, 51, 0
4, 24576, Note_on_c, 9, 44, 0
4, 24576, Note_on_c, 9, 51, 83
4, 24832, Note_on_c, 9, 51, 0
4, 24960, Note_on_c, 9, 51, 82
4, 24960, Note_on_c, 9, 44, 101
4, 25216, Note_on_c, 9, 51, 0
4, 25241, Note_on_c, 9, 35, 16
4, 25273, Note_on_c, 9, 35, 0
4, 25344, Note_on_c, 9, 44, 0
4, 25344, Note_on_c, 9, 51, 81
4, 25353, Note_on_c, 9, 40, 40
4, 25387, Note_on_c, 9, 40, 0
4, 25552, Note_on_c, 9, 40, 55
4, 25575, Note_on_c, 9, 40, 0
4, 25600, Note_on_c, 9, 51, 0
4, 25600, Note_on_c, 9, 51, 62
4, 25728, Note_on_c, 9, 51, 0
4, 25728, Note_on_c, 9, 51, 80
4, 25728, Note_on_c, 9, 46, 97
4, 25761, Note_on_c, 9, 40, 60
4, 25785, Note_on_c, 9, 40, 0
4, 25846, Note_on_c, 9, 40, 53
4, 25896, Note_on_c, 9, 40, 0
4, 25984, Note_on_c, 9, 51, 0
4, 26112, Note_on_c, 9, 46, 0
4, 26112, Note_on_c, 9, 51, 79
4, 26138, Note_on_c, 9, 35, 40
4, 26167, Note_on_c, 9, 35, 0
4, 26368, Note_on_c, 9, 51, 0
4, 26496, Note_on_c, 9, 51, 78
4, 26496, Note_on_c, 9, 44, 90
4, 26752, Note_on_c, 9, 51, 0
4, 26880, Note_on_c, 9, 44, 0
4, 26880, Note_on_c, 9, 51, 77
4, 27136, Note_on_c, 9, 51, 0
4, 27264, Note_on_c, 9, 51, 77
4, 27264, Note_on_c, 9, 44, 94
4, 27519, Note_on_c, 9, 35, 61
4, 27520, Note_on_c, 9, 51, 0
4, 27520, Note_on_c, 9, 51, 48
4, 27567, Note_on_c, 9, 35, 0
4, 27648, Note_on_c, 9, 51, 0
4, 27648, Note_on_c, 9, 44, 0
4, 27648, Note_on_c, 9, 51, 72
4, 27904, Note_on_c, 9, 51, 0
4, 28032, Note_on_c, 9, 51, 73
4, 28032, Note_on_c, 9, 44, 98
4, 28281, Note_on_c, 9, 35, 29
4, 28288, Note_on_c, 9, 51, 0
4, 28336, Note_on_c, 9, 35, 0
4, 28416, Note_on_c, 9, 44, 0
4, 28416, Note_on_c, 9, 51, 67
4, 28436, Note_on_c, 9, 35, 10
4, 28472, Note_on_c, 9, 35, 0
4, 28672, Note_on_c, 9, 51, 0
4, 28672, Note_on_c, 9, 51, 37
4, 28800, Note_on_c, 9, 51, 0
4, 28800, Note_on_c, 9, 51, 70
4, 28800, Note_on_c, 9, 44, 103
4, 29056, Note_on_c, 9, 51, 0
4, 29184, Note_on_c, 9, 44, 0
4, 29184, Note_on_c, 9, 51, 75
4, 29440, Note_on_c, 9, 51, 0
4, 29440, Note_on_c, 9, 51, 55
4, 29467, Note_on_c, 9, 40, 4
4, 29491, Note_on_c, 9, 40, 0
4, 29568, Note_on_c, 9, 51, 0
4, 29568, Note_on_c, 9, 51, 77
4, 29568, Note_on_c, 9, 44, 100
4, 29824, Note_on_c, 9, 51, 0
4, 29824, Note_on_c, 9, 53, 81
4, 29952, Note_on_c, 9, 53, 0
4, 29952, Note_on_c, 9, 44, 0
4, 29952, Note_on_c, 9, 51, 64
4, 30208, Note_on_c, 9, 51, 0
4, 30210, Note_on_c, 9, 35, 31
4, 30248, Note_on_c, 9, 35, 0
4, 30336, Note_on_c, 9, 51, 60
4, 30336, Note_on_c, 9, 44, 101
4, 30592, Note_on_c, 9, 51, 0
4, 30720, Note_on_c, 9, 44, 0
4, 30720, Note_on_c, 9, 51, 59
4, 30976, Note_on_c, 9, 51, 0
4, 31104, Note_on_c, 9, 51, 68
4, 31104, Note_on_c, 9, 44, 95
4, 31261, Note_on_c, 9, 40, 24
4, 31296, Note_on_c, 9, 40, 0
4, 31360, Note_on_c, 9, 51, 0
4, 31360, Note_on_c, 9, 51, 61
4, 31488, Note_on_c, 9, 51, 0
4, 31488, Note_on_c, 9, 44, 0
4, 31488, Note_on_c, 9, 51, 65
4, 31494, Note_on_c, 9, 40, 24
4, 31537, Note_on_c, 9, 40, 0
4, 31733, Note_on_c, 9, 40, 21
4, 31744, Note_on_c, 9, 51, 0
4, 31778, Note_on_c, 9, 40, 0
4, 31872, Note_on_c, 9, 51, 75
4, 31872, Note_on_c, 9, 44, 98
4, 31999, Note_on_c, 9, 40, 25
4, 32029, Note_on_c, 9, 40, 0
4, 32128, Note_on_c, 9, 51, 0
4, 32128, Note_on_c, 9, 51, 59
4, 32130, Note_on_c, 9, 35, 44
4, 32185, Note_on_c, 9, 35, 0
4, 32256, Note_on_c, 9, 51, 0
4, 32256, Note_on_c, 9, 44, 0
4, 32256, Note_on_c, 9, 51, 77
4, 32268, Note_on_c, 9, 35, 40
4, 32389, Note_on_c, 9, 35, 0
4, 32512, Note_on_c, 9, 51, 0
4, 32640, Note_on_c, 9, 51, 70
4, 32640, Note_on_c, 9, 44, 97
4, 32896, Note_on_c, 9, 51, 0
4, 32927, Note_on_c, 9, 35, 33
4, 32955, Note_on_c, 9, 35, 0
4, 33024, Note_on_c, 9, 44, 0
4, 33024, Note_on_c, 9, 51, 76
4, 33280, Note_on_c, 9, 51, 0
4, 33408, Note_on_c, 9, 51, 76
4, 33408, Note_on_c, 9, 44, 100
4, 33664, Note_on_c, 9, 51, 0
4, 33664, Note_on_c, 9, 51, 54
4, 33792, Note_on_c, 9, 51, 0
4, 33792, Note_on_c, 9, 44, 0
4, 33792, Note_on_c, 9, 51, 77
4, 34048, Note_on_c, 9, 51, 0
4, 34176, Note_on_c, 9, 51, 77
4, 34176, Note_on_c, 9, 44, 94
4, 34432, Note_on_c, 9, 51, 0
4, 34432, Note_on_c, 9, 51, 45
4, 34445, Note_on_c, 9, 35, 16
4, 34477, Note_on_c, 9, 35, 0
4, 34560, Note_on_c, 9, 51, 0
4, 34560, Note_on_c, 9, 44, 0
4, 34560, Note_on_c, 9, 51, 68
4, 34566, Note_on_c, 9, 35, 10
4, 34636, Note_on_c, 9, 35, 0
4, 34816, Note_on_c, 9, 51, 0
4, 34844, Note_on_c, 9, 35, 19
4, 34875, Note_on_c, 9, 35, 0
4, 34944, Note_on_c, 9, 51, 77
4, 34944, Note_on_c, 9, 44, 102
4, 35200, Note_on_c, 9, 51, 0
4, 35200, Note_on_c, 9, 51, 64
4, 35328, Note_on_c, 9, 51, 0
4, 35328, Note_on_c, 9, 44, 0
4, 35328, Note_on_c, 9, 51, 67
4, 35456, Note_on_c, 9, 51, 0
4, 35456, Note_on_c, 9, 51, 67
4, 35584, Note_on_c, 9, 51, 0
4, 35691, Note_on_c, 9, 35, 28
4, 35712, Note_on_c, 9, 51, 83
4, 35712, Note_on_c, 9, 44, 99
4, 35719, Note_on_c, 9, 35, 0
4, 35968, Note_on_c, 9, 51, 0
4, 35980, Note_on_c, 9, 35, 33
4, 36010, Note_on_c, 9, 35, 0
4, 36096, Note_on_c, 9, 44, 0
4, 36096, Note_on_c, 9, 51, 72
4, 36224, Note_on_c, 9, 51, 0
4, 36224, Note_on_c, 9, 51, 69
4, 36352, Note_on_c, 9, 51, 0
4, 36480, Note_on_c, 9, 44, 103
4, 36608, Note_on_c, 9, 51, 80
4, 36736, Note_on_c, 9, 51, 0
4, 36799, Note_on_c, 9, 35, 4
4, 36824, Note_on_c, 9, 35, 0
4, 36864, Note_on_c, 9, 44, 0
4, 36864, Note_on_c, 9, 51, 58
4, 36992, Note_on_c, 9, 51, 0
4, 36992, Note_on_c, 9, 51, 74
4, 37120, Note_on_c, 9, 51, 0
4, 37248, Note_on_c, 9, 51, 79
4, 37248, Note_on_c, 9, 44, 101
4, 37504, Note_on_c, 9, 51, 0
4, 37632, Note_on_c, 9, 44, 0
4, 37632, Note_on_c, 9, 51, 75
4, 37660, Note_on_c, 9, 40, 8
4, 37715, Note_on_c, 9, 40, 0
4, 37760, Note_on_c, 9, 51, 0
4, 38016, Note_on_c, 9, 51, 76
4, 38016, Note_on_c, 9, 44, 97
4, 38052, Note_on_c, 9, 40, 41
4, 38075, Note_on_c, 9, 40, 0
4, 38144, Note_on_c, 9, 51, 0
4, 38272, Note_on_c, 9, 51, 60
4, 38282, Note_on_c, 9, 40, 74
4, 38343, Note_on_c, 9, 40, 0
4, 38400, Note_on_c, 9, 51, 0
4, 38400, Note_on_c, 9, 44, 0
4, 38400, Note_on_c, 9, 51, 69
4, 38444, Note_on_c, 9, 35, 9
4, 38485, Note_on_c, 9, 35, 0
4, 38656, Note_on_c, 9, 51, 0
4, 38687, Note_on_c, 9, 35, 11
4, 38731, Note_on_c, 9, 35, 0
4, 38784, Note_on_c, 9, 51, 76
4, 38784, Note_on_c, 9, 44, 101
4, 38875, Note_on_c, 9, 42, 1
4, 38901, Note_on_c, 9, 42, 0
4, 39040, Note_on_c, 9, 51, 0
4, 39168, Note_on_c, 9, 44, 0
4, 39168, Note_on_c, 9, 51, 71
4, 39296, Note_on_c, 9, 51, 0
4, 39532, Note_on_c, 9, 40, 26
4, 39552, Note_on_c, 9, 51, 77
4, 39552, Note_on_c, 9, 46, 97
4, 39568, Note_on_c, 9, 40, 0
4, 39680, Note_on_c, 9, 51, 0
4, 39797, Note_on_c, 9, 40, 61
4, 39808, Note_on_c, 9, 51, 44
4, 39842, Note_on_c, 9, 40, 0
4, 39936, Note_on_c, 9, 51, 0
4, 39936, Note_on_c, 9, 46, 0
4, 39936, Note_on_c, 9, 51, 69
4, 40064, Note_on_c, 9, 51, 0
4, 40066, Note_on_c, 9, 35, 30
4, 40133, Note_on_c, 9, 35, 0
4, 40320, Note_on_c, 9, 51, 77
4, 40320, Note_on_c, 9, 44, 90
4, 40333, Note_on_c, 9, 35, 53
4, 40385, Note_on_c, 9, 35, 0
4, 40448, Note_on_c, 9, 51, 0
4, 40608, Note_on_c, 9, 35, 81
4, 40673, Note_on_c, 9, 35, 0
4, 40704, Note_on_c, 9, 44, 0
4, 40704, Note_on_c, 9, 51, 72
4, 40832, Note_on_c, 9, 51, 0
4, 41088, Note_on_c, 9, 51, 70
4, 41088, Note_on_c, 9, 44, 94
4, 41216, Note_on_c, 9, 51, 0
4, 41344, Note_on_c, 9, 51, 61
4, 41368, Note_on_c, 9, 35, 33
4, 41403, Note_on_c, 9, 35, 0
4, 41472, Note_on_c, 9, 51, 0
4, 41472, Note_on_c, 9, 44, 0
4, 41472, Note_on_c, 9, 51, 77
4, 41496, Note_on_c, 9, 35, 24
4, 41545, Note_on_c, 9, 35, 0
4, 41600, Note_on_c, 9, 51, 0
4, 41856, Note_on_c, 9, 51, 79
4, 41856, Note_on_c, 9, 44, 98
4, 41984, Note_on_c, 9, 51, 0
4, 42140, Note_on_c, 9, 35, 23
4, 42172, Note_on_c, 9, 35, 0
4, 42240, Note_on_c, 9, 44, 0
4, 42240, Note_on_c, 9, 51, 52
4, 42240, Note_on_c, 9, 51, 71
4, 42368, Note_on_c, 9, 51, 0
4, 42496, Note_on_c, 9, 51, 0
4, 42624, Note_on_c, 9, 51, 80
4, 42624, Note_on_c, 9, 44, 103
4, 42752, Note_on_c, 9, 51, 0
4, 43008, Note_on_c, 9, 44, 0
4, 43008, Note_on_c, 9, 51, 67
4, 43264, Note_on_c, 9, 51, 0
4, 43392, Note_on_c, 9, 51, 73
4, 43392, Note_on_c, 9, 44, 100
4, 43520, Note_on_c, 9, 51, 0
4, 43648, Note_on_c, 9, 51, 64
4, 43776, Note_on_c, 9, 51, 0
4, 43776, Note_on_c, 9, 44, 0
4, 43776, Note_on_c, 9, 51, 69
4, 44032, Note_on_c, 9, 51, 0
4, 44160, Note_on_c, 9, 51, 81
4, 44160, Note_on_c, 9, 44, 101
4, 44288, Note_on_c, 9, 51, 0
4, 44416, Note_on_c, 9, 51, 49
4, 44422, Note_on_c, 9, 37, 29
4, 44467, Note_on_c, 9, 33, 40
4, 44498, Note_on_c, 9, 37, 0
4, 44519, Note_on_c, 9, 33, 0
4, 44542, Note_on_c, 9, 35, 53
4, 44544, Note_on_c, 9, 51, 0
4, 44544, Note_on_c, 9, 44, 0
4, 44544, Note_on_c, 9, 51, 67
4, 44785, Note_on_c, 9, 35, 0
4, 44800, Note_on_c, 9, 51, 0
4, 44928, Note_on_c, 9, 51, 74
4, 44928, Note_on_c, 9, 44, 95
4, 45184, Note_on_c, 9, 51, 0
4, 45312, Note_on_c, 9, 44, 0
4, 45312, Note_on_c, 9, 51, 71
4, 45568, Note_on_c, 9, 51, 0
4, 45696, Note_on_c, 9, 51, 72
4, 45696, Note_on_c, 9, 44, 98
4, 45845, Note_on_c, 9, 37, 48
4, 45905, Note_on_c, 9, 37, 0
4, 45952, Note_on_c, 9, 51, 0
4, 45952, Note_on_c, 9, 51, 40
4, 45960, Note_on_c, 9, 37, 37
4, 46025, Note_on_c, 9, 37, 0
4, 46080, Note_on_c, 9, 51, 0
4, 46080, Note_on_c, 9, 44, 0
4, 46080, Note_on_c, 9, 51, 69
4, 46115, Note_on_c, 9, 35, 2
4, 46272, Note_on_c, 9, 35, 0
4, 46336, Note_on_c, 9, 51, 0
4, 46365, Note_on_c, 9, 35, 12
4, 46400, Note_on_c, 9, 35, 0
4, 46464, Note_on_c, 9, 51, 77
4, 46464, Note_on_c, 9, 44, 97
4, 46720, Note_on_c, 9, 51, 0
4, 46760, Note_on_c, 9, 35, 28
4, 46813, Note_on_c, 9, 35, 0
4, 46848, Note_on_c, 9, 44, 0
4, 46848, Note_on_c, 9, 51, 74
4, 46893, Note_on_c, 9, 35, 24
4, 46920, Note_on_c, 9, 35, 0
4, 47104, Note_on_c, 9, 51, 0
4, 47104, Note_on_c, 9, 51, 52
4, 47232, Note_on_c, 9, 51, 0
4, 47232, Note_on_c, 9, 51, 82
4, 47232, Note_on_c, 9, 44, 100
4, 47488, Note_on_c, 9, 51, 0
4, 47505, Note_on_c, 9, 35, 29
4, 47533, Note_on_c, 9, 35, 0
4, 47616, Note_on_c, 9, 44, 0
4, 47616, Note_on_c, 9, 51, 77
4, 47872, Note_on_c, 9, 51, 0
4, 48000, Note_on_c, 9, 51, 74
4, 48000, Note_on_c, 9, 44, 94
4, 48256, Note_on_c, 9, 51, 0
4, 48256, Note_on_c, 9, 51, 55
4, 48384, Note_on_c, 9, 51, 0
4, 48384, Note_on_c, 9, 44, 0
4, 48384, Note_on_c, 9, 51, 73
4, 48640, Note_on_c, 9, 51, 0
4, 48768, Note_on_c, 9, 51, 74
4, 48768, Note_on_c, 9, 44, 102
4, 49024, Note_on_c, 9, 51, 0
4, 49024, Note_on_c, 9, 51, 52
4, 49152, Note_on_c, 9, 51, 0
4, 49152, Note_on_c, 9, 44, 0
4, 49152, Note_on_c, 9, 51, 65
4, 49408, Note_on_c, 9, 51, 0
4, 49536, Note_on_c, 9, 51, 62
4, 49536, Note_on_c, 9, 44, 99
4, 49792, Note_on_c, 9, 51, 0
4, 49824, Note_on_c, 9, 40, 24
4, 49866, Note_on_c, 9, 40, 0
4, 49920, Note_on_c, 9, 44, 0
4, 49920, Note_on_c, 9, 51, 45
4, 50048, Note_on_c, 9, 51, 0
4, 50048, Note_on_c, 9, 51, 50
4, 50176, Note_on_c, 9, 51, 0
4, 50198, Note_on_c, 9, 40, 55
4, 50265, Note_on_c, 9, 40, 0
4, 50304, Note_on_c, 9, 51, 77
4, 50304, Note_on_c, 9, 44, 103
4, 50468, Note_on_c, 9, 40, 60
4, 50520, Note_on_c, 9, 40, 0
4, 50560, Note_on_c, 9, 51, 0
4, 50569, Note_on_c, 9, 37, 53
4, 50688, Note_on_c, 9, 44, 0
4, 50688, Note_on_c, 9, 51, 63
4, 50700, Note_on_c, 9, 37, 0
4, 50711, Note_on_c, 9, 35, 51
4, 50816, Note_on_c, 9, 51, 0
4, 50854, Note_on_c, 9, 35, 0
4, 51072, Note_on_c, 9, 51, 72
4, 51072, Note_on_c, 9, 44, 101
4, 51200, Note_on_c, 9, 51, 0
4, 51456, Note_on_c, 9, 44, 0
4, 51456, Note_on_c, 9, 51, 63
4, 51584, Note_on_c, 9, 51, 0
4, 51840, Note_on_c, 9, 51, 70
4, 51840, Note_on_c, 9, 44, 97
4, 51968, Note_on_c, 9, 51, 0
4, 52096, Note_on_c, 9, 51, 49
4, 52111, Note_on_c, 9, 37, 38
4, 52177, Note_on_c, 9, 37, 0
4, 52224, Note_on_c, 9, 51, 0
4, 52224, Note_on_c, 9, 44, 0
4, 52224, Note_on_c, 9, 51, 64
4, 52231, Note_on_c, 9, 35, 18
4, 52299, Note_on_c, 9, 35, 0
4, 52480, Note_on_c, 9, 51, 0
4, 52608, Note_on_c, 9, 51, 71
4, 52608, Note_on_c, 9, 44, 101
4, 52864, Note_on_c, 9, 51, 0
4, 52992, Note_on_c, 9, 44, 0
4, 52992, Note_on_c, 9, 51, 64
4, 53120, Note_on_c, 9, 51, 0
4, 53376, Note_on_c, 9, 51, 65
4, 53376, Note_on_c, 9, 46, 97
4, 53504, Note_on_c, 9, 51, 0
4, 53632, Note_on_c, 9, 51, 46
4, 53760, Note_on_c, 9, 51, 0
4, 53760, Note_on_c, 9, 46, 0
4, 53760, Note_on_c, 9, 51, 61
4, 54016, Note_on_c, 9, 51, 0
4, 54144, Note_on_c, 9, 51, 69
4, 54144, Note_on_c, 9, 44, 90
4, 54272, Note_on_c, 9, 51, 0
4, 54528, Note_on_c, 9, 44, 0
4, 54528, Note_on_c, 9, 51, 75
4, 54656, Note_on_c, 9, 51, 0
4, 54688, Note_on_c, 9, 40, 19
4, 54718, Note_on_c, 9, 40, 0
4, 54912, Note_on_c, 9, 51, 77
4, 54912, Note_on_c, 9, 44, 94
4, 54939, Note_on_c, 9, 40, 30
4, 54979, Note_on_c, 9, 40, 0
4, 55040, Note_on_c, 9, 51, 0
4, 55168, Note_on_c, 9, 51, 55
4, 55198, Note_on_c, 9, 40, 15
4, 55228, Note_on_c, 9, 40, 0
4, 55296, Note_on_c, 9, 51, 0
4, 55296, Note_on_c, 9, 44, 0
4, 55296, Note_on_c, 9, 51, 64
4, 55433, Note_on_c, 9, 40, 26
4, 55467, Note_on_c, 9, 40, 0
4, 55552, Note_on_c, 9, 51, 0
4, 55680, Note_on_c, 9, 51, 76
4, 55680, Note_on_c, 9, 44, 98
4, 55713, Note_on_c, 9, 40, 2
4, 55739, Note_on_c, 9, 40, 0
4, 55808, Note_on_c, 9, 51, 0
4, 55929, Note_on_c, 9, 40, 12
4, 55936, Note_on_c, 9, 51, 55
4, 55958, Note_on_c, 9, 40, 0
4, 56064, Note_on_c, 9, 51, 0
4, 56064, Note_on_c, 9, 44, 0
4, 56064, Note_on_c, 9, 51, 70
4, 56171, Note_on_c, 9, 40, 28
4, 56192, Note_on_c, 9, 51, 0
4, 56211, Note_on_c, 9, 40, 0
4, 56448, Note_on_c, 9, 51, 78
4, 56448, Note_on_c, 9, 44, 103
4, 56455, Note_on_c, 9, 40, 35
4, 56505, Note_on_c, 9, 40, 0
4, 56576, Note_on_c, 9, 51, 0
4, 56675, Note_on_c, 9, 35, 36
4, 56740, Note_on_c, 9, 35, 0
4, 56832, Note_on_c, 9, 44, 0
4, 56832, Note_on_c, 9, 51, 69
4, 56960, Note_on_c, 9, 51, 0
4, 57088, Note_on_c, 9, 53, 80
4, 57216, Note_on_c, 9, 53, 0
4, 57216, Note_on_c, 9, 51, 39
4, 57216, Note_on_c, 9, 44, 100
4, 57472, Note_on_c, 9, 51, 0
4, 57600, Note_on_c, 9, 44, 0
4, 57600, Note_on_c, 9, 51, 74
4, 57728, Note_on_c, 9, 51, 0
4, 57984, Note_on_c, 9, 51, 72
4, 57984, Note_on_c, 9, 44, 101
4, 58112, Note_on_c, 9, 51, 0
4, 58283, Note_on_c, 9, 35, 13
4, 58315, Note_on_c, 9, 35, 0
4, 58368, Note_on_c, 9, 44, 0
4, 58368, Note_on_c, 9, 51, 73
4, 58426, Note_on_c, 9, 35, 12
4, 58457, Note_on_c, 9, 35, 0
4, 58496, Note_on_c, 9, 51, 0
4, 58752, Note_on_c, 9, 51, 79
4, 58752, Note_on_c, 9, 44, 95
4, 58880, Note_on_c, 9, 51, 0
4, 59008, Note_on_c, 9, 51, 53
4, 59054, Note_on_c, 9, 35, 22
4, 59086, Note_on_c, 9, 35, 0
4, 59136, Note_on_c, 9, 51, 0
4, 59136, Note_on_c, 9, 44, 0
4, 59136, Note_on_c, 9, 51, 64
4, 59392, Note_on_c, 9, 51, 0
4, 59520, Note_on_c, 9, 51, 79
4, 59520, Note_on_c, 9, 44, 98
4, 59648, Note_on_c, 9, 51, 0
4, 59776, Note_on_c, 9, 51, 50
4, 59828, Note_on_c, 9, 40, 2
4, 59853, Note_on_c, 9, 40, 0
4, 59904, Note_on_c, 9, 51, 0
4, 59904, Note_on_c, 9, 44, 0
4, 59904, Note_on_c, 9, 51, 75
4, 60160, Note_on_c, 9, 51, 0
4, 60192, Note_on_c, 9, 35, 1
4, 60215, Note_on_c, 9, 35, 0
4, 60288, Note_on_c, 9, 51, 80
4, 60288, Note_on_c, 9, 44, 97
4, 60544, Note_on_c, 9, 51, 0
4, 60544, Note_on_c, 9, 51, 51
4, 60672, Note_on_c, 9, 51, 0
4, 60672, Note_on_c, 9, 44, 0
4, 60672, Note_on_c, 9, 51, 67
4, 60928, Note_on_c, 9, 51, 0
4, 60965, Note_on_c, 9, 35, 13
4, 60995, Note_on_c, 9, 35, 0
4, 61056, Note_on_c, 9, 51, 81
4, 61056, Note_on_c, 9, 44, 100
4, 61078, Note_on_c, 9, 37, 54
4, 61251, Note_on_c, 9, 37, 0
4, 61312, Note_on_c, 9, 51, 0
4, 61326, Note_on_c, 9, 37, 47
4, 61402, Note_on_c, 9, 37, 0
4, 61440, Note_on_c, 9, 44, 0
4, 61440, Note_on_c, 9, 51, 50
4, 61440, Note_on_c, 9, 51, 64
4, 61568, Note_on_c, 9, 51, 0
4, 61696, Note_on_c, 9, 51, 0
4, 61750, Note_on_c, 9, 35, 6
4, 61775, Note_on_c, 9, 35, 0
4, 61824, Note_on_c, 9, 51, 75
4, 61824, Note_on_c, 9, 44, 94
4, 62080, Note_on_c, 9, 51, 0
4, 62208, Note_on_c, 9, 44, 0
4, 62208, Note_on_c, 9, 51, 76
4, 62449, Note_on_c, 9, 40, 7
4, 62464, Note_on_c, 9, 51, 0
4, 62513, Note_on_c, 9, 40, 0
4, 62586, Note_on_c, 9, 40, 16
4, 62592, Note_on_c, 9, 51, 76
4, 62592, Note_on_c, 9, 44, 102
4, 62618, Note_on_c, 9, 40, 0
4, 62720, Note_on_c, 9, 51, 0
4, 62836, Note_on_c, 9, 40, 46
4, 62861, Note_on_c, 9, 40, 0
4, 62976, Note_on_c, 9, 44, 0
4, 62976, Note_on_c, 9, 51, 38
4, 62976, Note_on_c, 9, 51, 64
4, 62988, Note_on_c, 9, 35, 7
4, 63041, Note_on_c, 9, 35, 0
4, 63104, Note_on_c, 9, 51, 0
4, 63232, Note_on_c, 9, 51, 0
4, 63360, Note_on_c, 9, 51, 72
4, 63360, Note_on_c, 9, 44, 99
4, 63488, Note_on_c, 9, 51, 0
4, 63488, Note_on_c, 9, 51, 74
4, 63616, Note_on_c, 9, 51, 0
4, 63744, Note_on_c, 9, 44, 0
4, 63744, Note_on_c, 9, 51, 78
4, 63915, Note_on_c, 9, 40, 15
4, 63946, Note_on_c, 9, 40, 0
4, 64000, Note_on_c, 9, 51, 0
4, 64014, Note_on_c, 9, 40, 15
4, 64072, Note_on_c, 9, 40, 0
4, 64128, Note_on_c, 9, 51, 75
4, 64128, Note_on_c, 9, 44, 103
4, 64133, Note_on_c, 9, 40, 27
4, 64171, Note_on_c, 9, 40, 0
4, 64256, Note_on_c, 9, 51, 0
4, 64260, Note_on_c, 9, 40, 30
4, 64327, Note_on_c, 9, 40, 0
4, 64364, Note_on_c, 9, 40, 65
4, 64388, Note_on_c, 9, 40, 0
4, 64507, Note_on_c, 9, 35, 38
4, 64512, Note_on_c, 9, 44, 0
4, 64512, Note_on_c, 9, 51, 67
4, 64567, Note_on_c, 9, 35, 0
4, 64640, Note_on_c, 9, 51, 0
4, 64896, Note_on_c, 9, 51, 71
4, 64896, Note_on_c, 9, 44, 101
4, 65024, Note_on_c, 9, 51, 0
4, 65152, Note_on_c, 9, 51, 51
4, 65280, Note_on_c, 9, 51, 0
4, 65280, Note_on_c, 9, 44, 0
4, 65280, Note_on_c, 9, 51, 75
4, 65412, Note_on_c, 9, 40, 27
4, 65484, Note_on_c, 9, 40, 0
4, 65536, Note_on_c, 9, 51, 0
4, 65537, Note_on_c, 9, 40, 40
4, 65610, Note_on_c, 9, 40, 0
4, 65657, Note_on_c, 9, 40, 41
4, 65664, Note_on_c, 9, 51, 71
4, 65664, Note_on_c, 9, 44, 97
4, 65681, Note_on_c, 9, 40, 0
4, 65792, Note_on_c, 9, 51, 0
4, 65862, Note_on_c, 9, 35, 35
4, 65896, Note_on_c, 9, 35, 0
4, 66048, Note_on_c, 9, 44, 0
4, 66048, Note_on_c, 9, 51, 74
4, 66176, Note_on_c, 9, 51, 0
4, 66432, Note_on_c, 9, 51, 72
4, 66432, Note_on_c, 9, 44, 101
4, 66560, Note_on_c, 9, 51, 0
4, 66816, Note_on_c, 9, 44, 0
4, 66816, Note_on_c, 9, 51, 74
4, 66944, Note_on_c, 9, 51, 0
4, 66976, Note_on_c, 9, 40, 20
4, 67007, Note_on_c, 9, 40, 0
4, 67066, Note_on_c, 9, 40, 29
4, 67159, Note_on_c, 9, 40, 0
4, 67200, Note_on_c, 9, 51, 76
4, 67200, Note_on_c, 9, 46, 97
4, 67211, Note_on_c, 9, 35, 29
4, 67289, Note_on_c, 9, 35, 0
4, 67328, Note_on_c, 9, 51, 0
4, 67456, Note_on_c, 9, 51, 74
4, 67584, Note_on_c, 9, 51, 0
4, 67584, Note_on_c, 9, 46, 0
4, 67584, Note_on_c, 9, 51, 74
4, 67712, Note_on_c, 9, 51, 0
4, 67847, Note_on_c, 9, 40, 52
4, 67920, Note_on_c, 9, 40, 0
4, 67968, Note_on_c, 9, 51, 74
4, 67968, Note_on_c, 9, 44, 90
4, 68001, Note_on_c, 9, 35, 11
4, 68062, Note_on_c, 9, 35, 0
4, 68096, Note_on_c, 9, 51, 0
4, 68224, Note_on_c, 9, 51, 69
4, 68352, Note_on_c, 9, 51, 0
4, 68352, Note_on_c, 9, 44, 0
4, 68352, Note_on_c, 9, 51, 83
4, 68480, Note_on_c, 9, 51, 0
4, 68612, Note_on_c, 9, 40, 50
4, 68669, Note_on_c, 9, 40, 0
4, 68736, Note_on_c, 9, 51, 75
4, 68736, Note_on_c, 9, 44, 94
4, 68864, Note_on_c, 9, 51, 0
4, 68888, Note_on_c, 9, 37, 52
4, 68941, Note_on_c, 9, 37, 0
4, 68991, Note_on_c, 9, 37, 43
4, 68992, Note_on_c, 9, 51, 74
4, 69079, Note_on_c, 9, 37, 0
4, 69112, Note_on_c, 9, 35, 61
4, 69117, Note_on_c, 9, 57, 58
4, 69120, Note_on_c, 9, 51, 0
4, 69120, Note_on_c, 9, 44, 0
4, 69120, Note_on_c, 9, 59, 87
4, 69209, Note_on_c, 9, 57, 0
4, 69303, Note_on_c, 9, 35, 0
4, 69376, Note_on_c, 9, 59, 0
4, 69504, Note_on_c, 9, 59, 85
4, 69504, Note_on_c, 9, 44, 98
4, 69760, Note_on_c, 9, 59, 0
4, 69888, Note_on_c, 9, 44, 0
4, 69888, Note_on_c, 9, 59, 80
4, 70025, Note_on_c, 9, 57, 42
4, 70045, Note_on_c, 9, 40, 53
4, 70047, Note_on_c, 9, 57, 0
4, 70144, Note_on_c, 9, 59, 0
4, 70145, Note_on_c, 9, 40, 0
4, 70160, Note_on_c, 9, 37, 53
4, 70234, Note_on_c, 9, 37, 0
4, 70272, Note_on_c, 9, 59, 73
4, 70272, Note_on_c, 9, 44, 103
4, 70282, Note_on_c, 9, 57, 60
4, 70283, Note_on_c, 9, 35, 60
4, 70339, Note_on_c, 9, 57, 0
4, 70450, Note_on_c, 9, 35, 0
4, 70528, Note_on_c, 9, 59, 0
4, 70528, Note_on_c, 9, 59, 57
4, 70656, Note_on_c, 9, 59, 0
4, 70656, Note_on_c, 9, 44, 0
4, 70656, Note_on_c, 9, 59, 81
4, 70912, Note_on_c, 9, 59, 0
4, 71040, Note_on_c, 9, 59, 89
4, 71040, Note_on_c, 9, 44, 100
4, 71296, Note_on_c, 9, 59, 0
4, 71296, Note_on_c, 9, 59, 60
4, 71320, Note_on_c, 9, 35, 44
4, 71376, Note_on_c, 9, 35, 0
4, 71424, Note_on_c, 9, 59, 0
4, 71424, Note_on_c, 9, 44, 0
4, 71424, Note_on_c, 9, 59, 62
4, 71435, Note_on_c, 9, 35, 32
4, 71508, Note_on_c, 9, 35, 0
4, 71680, Note_on_c, 9, 59, 0
4, 71680, Note_on_c, 9, 53, 82
4, 71808, Note_on_c, 9, 53, 0
4, 71808, Note_on_c, 9, 59, 63
4, 71808, Note_on_c, 9, 44, 101
4, 72064, Note_on_c, 9, 59, 0
4, 72096, Note_on_c, 9, 35, 34
4, 72152, Note_on_c, 9, 35, 0
4, 72192, Note_on_c, 9, 44, 0
4, 72192, Note_on_c, 9, 59, 75
4, 72231, Note_on_c, 9, 35, 15
4, 72266, Note_on_c, 9, 35, 0
4, 72320, Note_on_c, 9, 59, 0
4, 72576, Note_on_c, 9, 59, 77
4, 72576, Note_on_c, 9, 44, 95
4, 72704, Note_on_c, 9, 59, 0
4, 72832, Note_on_c, 9, 59, 53
4, 72960, Note_on_c, 9, 59, 0
4, 72960, Note_on_c, 9, 44, 0
4, 72960, Note_on_c, 9, 59, 69
4, 73216, Note_on_c, 9, 59, 0
4, 73344, Note_on_c, 9, 59, 88
4, 73344, Note_on_c, 9, 44, 98
4, 73600, Note_on_c, 9, 59, 0
4, 73600, Note_on_c, 9, 59, 59
4, 73728, Note_on_c, 9, 59, 0
4, 73728, Note_on_c, 9, 44, 0
4, 73728, Note_on_c, 9, 59, 72
4, 73984, Note_on_c, 9, 59, 0
4, 74112, Note_on_c, 9, 59, 85
4, 74112, Note_on_c, 9, 44, 97
4, 74368, Note_on_c, 9, 59, 0
4, 74368, Note_on_c, 9, 59, 43
4, 74496, Note_on_c, 9, 59, 0
4, 74496, Note_on_c, 9, 44, 0
4, 74496, Note_on_c, 9, 59, 82
4, 74624, Note_on_c, 9, 59, 0
4, 74699, Note_on_c, 9, 40, 48
4, 74724, Note_on_c, 9, 40, 0
4, 74880, Note_on_c, 9, 59, 87
4, 74880, Note_on_c, 9, 44, 100
4, 74911, Note_on_c, 9, 40, 55
4, 74949, Note_on_c, 9, 40, 0
4, 74998, Note_on_c, 9, 40, 44
4, 75032, Note_on_c, 9, 40, 0
4, 75111, Note_on_c, 9, 35, 42
4, 75136, Note_on_c, 9, 59, 0
4, 75175, Note_on_c, 9, 35, 0
4, 75264, Note_on_c, 9, 44, 0
4, 75264, Note_on_c, 9, 59, 80
4, 75520, Note_on_c, 9, 59, 0
4, 75648, Note_on_c, 9, 59, 83
4, 75648, Note_on_c, 9, 44, 94
4, 75875, Note_on_c, 9, 40, 29
4, 75902, Note_on_c, 9, 40, 0
4, 75904, Note_on_c, 9, 59, 0
4, 76032, Note_on_c, 9, 44, 0
4, 76032, Note_on_c, 9, 59, 44
4, 76068, Note_on_c, 9, 40, 47
4, 76093, Note_on_c, 9, 40, 0
4, 76160, Note_on_c, 9, 59, 0
4, 76160, Note_on_c, 9, 59, 76
4, 76169, Note_on_c, 9, 40, 51
4, 76198, Note_on_c, 9, 40, 0
4, 76274, Note_on_c, 9, 35, 39
4, 76288, Note_on_c, 9, 59, 0
4, 76364, Note_on_c, 9, 35, 0
4, 76416, Note_on_c, 9, 59, 80
4, 76416, Note_on_c, 9, 57, 50
4, 76416, Note_on_c, 9, 44, 102
4, 76544, Note_on_c, 9, 57, 0
4, 76635, Note_on_c, 9, 40, 29
4, 76638, Note_on_c, 9, 41, 30
4, 76663, Note_on_c, 9, 41, 0
4, 76666, Note_on_c, 9, 40, 0
4, 76672, Note_on_c, 9, 59, 0
4, 76800, Note_on_c, 9, 44, 0
4, 76800, Note_on_c, 9, 59, 68
4, 76820, Note_on_c, 9, 40, 45
4, 76845, Note_on_c, 9, 40, 0
4, 76912, Note_on_c, 9, 40, 41
4, 76928, Note_on_c, 9, 59, 0
4, 76937, Note_on_c, 9, 40, 0
4, 77020, Note_on_c, 9, 35, 37
4, 77100, Note_on_c, 9, 35, 0
4, 77184, Note_on_c, 9, 59, 77
4, 77184, Note_on_c, 9, 44, 99
4, 77312, Note_on_c, 9, 59, 0
4, 77440, Note_on_c, 9, 59, 55
4, 77568, Note_on_c, 9, 59, 0
4, 77568, Note_on_c, 9, 44, 0
4, 77568, Note_on_c, 9, 59, 74
4, 77824, Note_on_c, 9, 59, 0
4, 77952, Note_on_c, 9, 59, 79
4, 77952, Note_on_c, 9, 44, 103
4, 78080, Note_on_c, 9, 59, 0
4, 78208, Note_on_c, 9, 59, 60
4, 78264, Note_on_c, 9, 35, 14
4, 78298, Note_on_c, 9, 35, 0
4, 78336, Note_on_c, 9, 59, 0
4, 78336, Note_on_c, 9, 44, 0
4, 78336, Note_on_c, 9, 59, 77
4, 78377, Note_on_c, 9, 35, 14
4, 78422, Note_on_c, 9, 35, 0
4, 78592, Note_on_c, 9, 59, 0
4, 78720, Note_on_c, 9, 59, 77
4, 78720, Note_on_c, 9, 44, 101
4, 78976, Note_on_c, 9, 59, 0
4, 78976, Note_on_c, 9, 59, 38
4, 79104, Note_on_c, 9, 59, 0
4, 79104, Note_on_c, 9, 44, 0
4, 79104, Note_on_c, 9, 59, 74
4, 79360, Note_on_c, 9, 59, 0
4, 79488, Note_on_c, 9, 59, 74
4, 79488, Note_on_c, 9, 44, 97
4, 79616, Note_on_c, 9, 59, 0
4, 79744, Note_on_c, 9, 59, 53
4, 79784, Note_on_c, 9, 35, 22
4, 79821, Note_on_c, 9, 35, 0
4, 79872, Note_on_c, 9, 59, 0
4, 79872, Note_on_c, 9, 44, 0
4, 79872, Note_on_c, 9, 59, 75
4, 79894, Note_on_c, 9, 35, 22
4, 79945, Note_on_c, 9, 35, 0
4, 80000, Note_on_c, 9, 59, 0
4, 80128, Note_on_c, 9, 59, 81
4, 80128, Note_on_c, 9, 57, 74
4, 80256, Note_on_c, 9, 57, 0
4, 80256, Note_on_c, 9, 59, 0
4, 80256, Note_on_c, 9, 44, 101
4, 80640, Note_on_c, 9, 44, 0
4, 80640, Note_on_c, 9, 59, 80
4, 80768, Note_on_c, 9, 59, 0
4, 81024, Note_on_c, 9, 59, 76
4, 81024, Note_on_c, 9, 46, 97
4, 81152, Note_on_c, 9, 59, 0
4, 81280, Note_on_c, 9, 59, 57
4, 81294, Note_on_c, 9, 37, 47
4, 81370, Note_on_c, 9, 37, 0
4, 81408, Note_on_c, 9, 59, 0
4, 81408, Note_on_c, 9, 46, 0
4, 81408, Note_on_c, 9, 59, 73
4, 81423, Note_on_c, 9, 35, 20
4, 81594, Note_on_c, 9, 35, 0
4, 81664, Note_on_c, 9, 59, 0
4, 81683, Note_on_c, 9, 35, 12
4, 81718, Note_on_c, 9, 35, 0
4, 81792, Note_on_c, 9, 59, 83
4, 81792, Note_on_c, 9, 44, 90
4, 81920, Note_on_c, 9, 59, 0
4, 82048, Note_on_c, 9, 59, 42
4, 82176, Note_on_c, 9, 59, 0
4, 82176, Note_on_c, 9, 44, 0
4, 82176, Note_on_c, 9, 59, 78
4, 82432, Note_on_c, 9, 59, 0
4, 82560, Note_on_c, 9, 59, 77
4, 82560, Note_on_c, 9, 44, 94
4, 82688, Note_on_c, 9, 59, 0
4, 82789, Note_on_c, 9, 35, 47
4, 82816, Note_on_c, 9, 59, 55
4, 82857, Note_on_c, 9, 35, 0
4, 82925, Note_on_c, 9, 35, 14
4, 82944, Note_on_c, 9, 59, 0
4, 82944, Note_on_c, 9, 44, 0
4, 82944, Note_on_c, 9, 59, 78
4, 82988, Note_on_c, 9, 35, 0
4, 83200, Note_on_c, 9, 59, 0
4, 83328, Note_on_c, 9, 59, 75
4, 83328, Note_on_c, 9, 44, 98
4, 83584, Note_on_c, 9, 59, 0
4, 83712, Note_on_c, 9, 44, 0
4, 83712, Note_on_c, 9, 59, 76
4, 83968, Note_on_c, 9, 59, 0
4, 84096, Note_on_c, 9, 59, 73
4, 84096, Note_on_c, 9, 44, 103
4, 84224, Note_on_c, 9, 59, 0
4, 84352, Note_on_c, 9, 59, 49
4, 84480, Note_on_c, 9, 59, 0
4, 84480, Note_on_c, 9, 44, 0
4, 84480, Note_on_c, 9, 59, 77
4, 84736, Note_on_c, 9, 59, 0
4, 84864, Note_on_c, 9, 59, 80
4, 84864, Note_on_c, 9, 44, 100
4, 84992, Note_on_c, 9, 59, 0
4, 85120, Note_on_c, 9, 59, 53
4, 85248, Note_on_c, 9, 59, 0
4, 85248, Note_on_c, 9, 44, 0
4, 85248, Note_on_c, 9, 59, 67
4, 85504, Note_on_c, 9, 59, 0
4, 85533, Note_on_c, 9, 40, 24
4, 85563, Note_on_c, 9, 40, 0
4, 85632, Note_on_c, 9, 59, 88
4, 85632, Note_on_c, 9, 44, 101
4, 85662, Note_on_c, 9, 35, 6
4, 85710, Note_on_c, 9, 35, 0
4, 85888, Note_on_c, 9, 59, 0
4, 85898, Note_on_c, 9, 40, 27
4, 85925, Note_on_c, 9, 40, 0
4, 86016, Note_on_c, 9, 44, 0
4, 86016, Note_on_c, 9, 59, 49
4, 86144, Note_on_c, 9, 59, 0
4, 86400, Note_on_c, 9, 59, 90
4, 86400, Note_on_c, 9, 44, 95
4, 86656, Note_on_c, 9, 59, 0
4, 86701, Note_on_c, 9, 35, 43
4, 86755, Note_on_c, 9, 35, 0
4, 86784, Note_on_c, 9, 44, 0
4, 86784, Note_on_c, 9, 59, 61
4, 86825, Note_on_c, 9, 35, 25
4, 86892, Note_on_c, 9, 35, 0
4, 86912, Note_on_c, 9, 59, 0
4, 87040, Note_on_c, 9, 59, 55
4, 87083, Note_on_c, 9, 35, 27
4, 87118, Note_on_c, 9, 35, 0
4, 87168, Note_on_c, 9, 59, 0
4, 87168, Note_on_c, 9, 59, 73
4, 87168, Note_on_c, 9, 44, 98
4, 87424, Note_on_c, 9, 59, 0
4, 87456, Note_on_c, 9, 35, 39
4, 87509, Note_on_c, 9, 35, 0
4, 87552, Note_on_c, 9, 44, 0
4, 87680, Note_on_c, 9, 59, 63
4, 87808, Note_on_c, 9, 59, 0
4, 87808, Note_on_c, 9, 59, 57
4, 87936, Note_on_c, 9, 59, 0
4, 87936, Note_on_c, 9, 59, 80
4, 87936, Note_on_c, 9, 44, 97
4, 88192, Note_on_c, 9, 59, 0
4, 88320, Note_on_c, 9, 44, 0
4, 88320, Note_on_c, 9, 59, 49
4, 88448, Note_on_c, 9, 59, 0
4, 88576, Note_on_c, 9, 59, 64
4, 88704, Note_on_c, 9, 59, 0
4, 88704, Note_on_c, 9, 59, 82
4, 88704, Note_on_c, 9, 44, 100
4, 88959, Note_on_c, 9, 35, 46
4, 88960, Note_on_c, 9, 59, 0
4, 89029, Note_on_c, 9, 35, 0
4, 89088, Note_on_c, 9, 44, 0
4, 89088, Note_on_c, 9, 59, 46
4, 89095, Note_on_c, 9, 35, 30
4, 89177, Note_on_c, 9, 35, 0
4, 89216, Note_on_c, 9, 59, 0
4, 89344, Note_on_c, 9, 59, 44
4, 89472, Note_on_c, 9, 59, 0
4, 89472, Note_on_c, 9, 59, 82
4, 89472, Note_on_c, 9, 44, 94
4, 89728, Note_on_c, 9, 59, 0
4, 89856, Note_on_c, 9, 44, 0
4, 89856, Note_on_c, 9, 59, 62
4, 89984, Note_on_c, 9, 59, 0
4, 90112, Note_on_c, 9, 53, 80
4, 90240, Note_on_c, 9, 53, 0
4, 90240, Note_on_c, 9, 59, 74
4, 90240, Note_on_c, 9, 44, 102
4, 90491, Note_on_c, 9, 35, 43
4, 90496, Note_on_c, 9, 59, 0
4, 90549, Note_on_c, 9, 35, 0
4, 90622, Note_on_c, 9, 35, 25
4, 90624, Note_on_c, 9, 44, 0
4, 90624, Note_on_c, 9, 59, 66
4, 90676, Note_on_c, 9, 35, 0
4, 90752, Note_on_c, 9, 59, 0
4, 91008, Note_on_c, 9, 59, 74
4, 91008, Note_on_c, 9, 44, 99
4, 91136, Note_on_c, 9, 59, 0
4, 91264, Note_on_c, 9, 59, 57
4, 91284, Note_on_c, 9, 35, 34
4, 91314, Note_on_c, 9, 35, 0
4, 91392, Note_on_c, 9, 59, 0
4, 91392, Note_on_c, 9, 44, 0
4, 91392, Note_on_c, 9, 59, 67
4, 91520, Note_on_c, 9, 59, 0
4, 91648, Note_on_c, 9, 53, 92
4, 91776, Note_on_c, 9, 53, 0
4, 91776, Note_on_c, 9, 59, 50
4, 91776, Note_on_c, 9, 44, 103
4, 91904, Note_on_c, 9, 59, 0
4, 92031, Note_on_c, 9, 35, 31
4, 92068, Note_on_c, 9, 35, 0
4, 92160, Note_on_c, 9, 44, 0
4, 92160, Note_on_c, 9, 59, 68
4, 92288, Note_on_c, 9, 59, 0
4, 92425, Note_on_c, 9, 35, 7
4, 92451, Note_on_c, 9, 35, 0
4, 92544, Note_on_c, 9, 59, 74
4, 92544, Note_on_c, 9, 44, 101
4, 92552, Note_on_c, 9, 48, 48
4, 92575, Note_on_c, 9, 48, 0
4, 92644, Note_on_c, 9, 48, 42
4, 92672, Note_on_c, 9, 48, 0
4, 92672, Note_on_c, 9, 59, 0
4, 92921, Note_on_c, 9, 48, 60
4, 92928, Note_on_c, 9, 44, 0
4, 92928, Note_on_c, 9, 59, 67
4, 92961, Note_on_c, 9, 48, 0
4, 93017, Note_on_c, 9, 48, 49
4, 93056, Note_on_c, 9, 59, 0
4, 93067, Note_on_c, 9, 48, 0
4, 93184, Note_on_c, 9, 53, 80
4, 93190, Note_on_c, 9, 35, 10
4, 93219, Note_on_c, 9, 35, 0
4, 93310, Note_on_c, 9, 47, 62
4, 93312, Note_on_c, 9, 53, 0
4, 93312, Note_on_c, 9, 59, 57
4, 93312, Note_on_c, 9, 44, 97
4, 93352, Note_on_c, 9, 47, 0
4, 93416, Note_on_c, 9, 47, 48
4, 93440, Note_on_c, 9, 59, 0
4, 93467, Note_on_c, 9, 47, 0
4, 93543, Note_on_c, 9, 35, 63
4, 93568, Note_on_c, 9, 59, 92
4, 93568, Note_on_c, 9, 57, 79
4, 93696, Note_on_c, 9, 57, 0
4, 93696, Note_on_c, 9, 59, 0
4, 93696, Note_on_c, 9, 44, 0
4, 93713, Note_on_c, 9, 35, 0
4, 94080, Note_on_c, 9, 59, 50
4, 94080, Note_on_c, 9, 44, 101
4, 94208, Note_on_c, 9, 59, 0
4, 94336, Note_on_c, 9, 59, 37
4, 94464, Note_on_c, 9, 59, 0
4, 94464, Note_on_c, 9, 44, 0
4, 94464, Note_on_c, 9, 59, 42
4, 94592, Note_on_c, 9, 59, 0
4, 94720, Note_on_c, 9, 59, 101
4, 94720, Note_on_c, 9, 57, 94
4, 94730, Note_on_c, 9, 37, 42
4, 94831, Note_on_c, 9, 37, 0
4, 94848, Note_on_c, 9, 46, 97
4, 94885, Note_on_c, 9, 35, 7
4, 94976, Note_on_c, 9, 57, 0
4, 95019, Note_on_c, 9, 35, 0
4, 95104, Note_on_c, 9, 59, 0
4, 95232, Note_on_c, 9, 46, 0
4, 95232, Note_on_c, 9, 59, 45
4, 95360, Note_on_c, 9, 59, 0
4, 95360, Note_on_c, 9, 59, 16
4, 95488, Note_on_c, 9, 59, 0
4, 95616, Note_on_c, 9, 59, 72
4, 95616, Note_on_c, 9, 44, 90
4, 95744, Note_on_c, 9, 59, 0
4, 95872, Note_on_c, 9, 59, 62
4, 96000, Note_on_c, 9, 59, 0
4, 96000, Note_on_c, 9, 44, 0
4, 96000, Note_on_c, 9, 59, 55
4, 96009, Note_on_c, 9, 35, 18
4, 96128, Note_on_c, 9, 59, 0
4, 96224, Note_on_c, 9, 35, 0
4, 96289, Note_on_c, 9, 35, 29
4, 96347, Note_on_c, 9, 35, 0
4, 96384, Note_on_c, 9, 59, 72
4, 96384, Note_on_c, 9, 44, 94
4, 96512, Note_on_c, 9, 59, 0
4, 96640, Note_on_c, 9, 59, 47
4, 96768, Note_on_c, 9, 59, 0
4, 96768, Note_on_c, 9, 44, 0
4, 96768, Note_on_c, 9, 59, 66
4, 97024, Note_on_c, 9, 59, 0
4, 97152, Note_on_c, 9, 59, 71
4, 97152, Note_on_c, 9, 44, 98
4, 97280, Note_on_c, 9, 59, 0
4, 97408, Note_on_c, 9, 59, 44
4, 97536, Note_on_c, 9, 59, 0
4, 97536, Note_on_c, 9, 44, 0
4, 97536, Note_on_c, 9, 59, 67
4, 97792, Note_on_c, 9, 59, 0
4, 97920, Note_on_c, 9, 59, 73
4, 97920, Note_on_c, 9, 44, 103
4, 98048, Note_on_c, 9, 59, 0
4, 98304, Note_on_c, 9, 44, 0
4, 98304, Note_on_c, 9, 59, 64
4, 98484, Note_on_c, 9, 35, 38
4, 98521, Note_on_c, 9, 35, 0
4, 98560, Note_on_c, 9, 59, 0
4, 98679, Note_on_c, 9, 35, 42
4, 98688, Note_on_c, 9, 59, 69
4, 98688, Note_on_c, 9, 44, 100
4, 98727, Note_on_c, 9, 35, 0
4, 98788, Note_on_c, 9, 35, 19
4, 98816, Note_on_c, 9, 59, 0
4, 98826, Note_on_c, 9, 35, 0
4, 98944, Note_on_c, 9, 59, 54
4, 99072, Note_on_c, 9, 59, 0
4, 99072, Note_on_c, 9, 44, 0
4, 99072, Note_on_c, 9, 59, 74
4, 99328, Note_on_c, 9, 59, 0
4, 99344, Note_on_c, 9, 35, 43
4, 99394, Note_on_c, 9, 35, 0
4, 99456, Note_on_c, 9, 59, 79
4, 99456, Note_on_c, 9, 44, 101
4, 99712, Note_on_c, 9, 59, 0
4, 99712, Note_on_c, 9, 59, 48
4, 99719, Note_on_c, 9, 35, 67
4, 99789, Note_on_c, 9, 35, 0
4, 99840, Note_on_c, 9, 59, 0
4, 99840, Note_on_c, 9, 44, 0
4, 99840, Note_on_c, 9, 59, 77
4, 99878, Note_on_c, 9, 35, 10
4, 99942, Note_on_c, 9, 35, 0
4, 100096, Note_on_c, 9, 59, 0
4, 100224, Note_on_c, 9, 59, 74
4, 100224, Note_on_c, 9, 44, 95
4, 100352, Note_on_c, 9, 59, 0
4, 100524, Note_on_c, 9, 35, 37
4, 100581, Note_on_c, 9, 35, 0
4, 100608, Note_on_c, 9, 44, 0
4, 100608, Note_on_c, 9, 59, 71
4, 100653, Note_on_c, 9, 35, 22
4, 100697, Note_on_c, 9, 35, 0
4, 100864, Note_on_c, 9, 59, 0
4, 100992, Note_on_c, 9, 59, 73
4, 100992, Note_on_c, 9, 44, 98
4, 101120, Note_on_c, 9, 59, 0
4, 101248, Note_on_c, 9, 59, 60
4, 101275, Note_on_c, 9, 40, 39
4, 101299, Note_on_c, 9, 40, 0
4, 101375, Note_on_c, 9, 35, 13
4, 101376, Note_on_c, 9, 59, 0
4, 101376, Note_on_c, 9, 44, 0
4, 101376, Note_on_c, 9, 59, 64
4, 101416, Note_on_c, 9, 35, 0
4, 101632, Note_on_c, 9, 59, 0
4, 101635, Note_on_c, 9, 40, 32
4, 101661, Note_on_c, 9, 40, 0
4, 101760, Note_on_c, 9, 59, 77
4, 101760, Note_on_c, 9, 44, 97
4, 101888, Note_on_c, 9, 59, 0
4, 102041, Note_on_c, 9, 40, 31
4, 102067, Note_on_c, 9, 40, 0
4, 102144, Note_on_c, 9, 44, 0
4, 102144, Note_on_c, 9, 59, 72
4, 102400, Note_on_c, 9, 59, 0
4, 102528, Note_on_c, 9, 59, 74
4, 102528, Note_on_c, 9, 44, 100
4, 102656, Note_on_c, 9, 59, 0
4, 102784, Note_on_c, 9, 59, 59
4, 102823, Note_on_c, 9, 35, 29
4, 102853, Note_on_c, 9, 35, 0
4, 102912, Note_on_c, 9, 59, 0
4, 102912, Note_on_c, 9, 44, 0
4, 102912, Note_on_c, 9, 59, 68
4, 103168, Note_on_c, 9, 59, 0
4, 103296, Note_on_c, 9, 59, 80
4, 103296, Note_on_c, 9, 44, 94
4, 103424, Note_on_c, 9, 59, 0
4, 103552, Note_on_c, 9, 59, 55
4, 103577, Note_on_c, 9, 35, 27
4, 103604, Note_on_c, 9, 35, 0
4, 103680, Note_on_c, 9, 59, 0
4, 103680, Note_on_c, 9, 44, 0
4, 103680, Note_on_c, 9, 59, 76
4, 103808, Note_on_c, 9, 59, 0
4, 104064, Note_on_c, 9, 59, 72
4, 104064, Note_on_c, 9, 44, 102
4, 104192, Note_on_c, 9, 59, 0
4, 104378, Note_on_c, 9, 35, 36
4, 104406, Note_on_c, 9, 35, 0
4, 104448, Note_on_c, 9, 44, 0
4, 104448, Note_on_c, 9, 59, 74
4, 104704, Note_on_c, 9, 59, 0
4, 104832, Note_on_c, 9, 59, 80
4, 104832, Note_on_c, 9, 44, 99
4, 105088, Note_on_c, 9, 59, 0
4, 105216, Note_on_c, 9, 44, 0
4, 105216, Note_on_c, 9, 59, 74
4, 105472, Note_on_c, 9, 59, 0
4, 105600, Note_on_c, 9, 59, 76
4, 105600, Note_on_c, 9, 44, 103
4, 105728, Note_on_c, 9, 59, 0
4, 105856, Note_on_c, 9, 59, 53
4, 105879, Note_on_c, 9, 37, 64
4, 105897, Note_on_c, 9, 57, 67
4, 105975, Note_on_c, 9, 57, 0
4, 105984, Note_on_c, 9, 44, 0
4, 105984, Note_on_c, 9, 59, 0
4, 105984, Note_on_c, 9, 59, 65
4, 106016, Note_on_c, 9, 35, 43
4, 106024, Note_on_c, 9, 37, 0
4, 106027, Note_on_c, 9, 36, 28
4, 106052, Note_on_c, 9, 36, 0
4, 106240, Note_on_c, 9, 59, 0
4, 106368, Note_on_c, 9, 59, 72
4, 106368, Note_on_c, 9, 44, 101
4, 106496, Note_on_c, 9, 59, 0
4, 106507, Note_on_c, 9, 35, 0
4, 106624, Note_on_c, 9, 59, 57
4, 106752, Note_on_c, 9, 59, 0
4, 106752, Note_on_c, 9, 44, 0
4, 106752, Note_on_c, 9, 59, 74
4, 107008, Note_on_c, 9, 59, 0
4, 107136, Note_on_c, 9, 59, 77
4, 107136, Note_on_c, 9, 44, 97
4, 107264, Note_on_c, 9, 59, 0
4, 107392, Note_on_c, 9, 59, 45
4, 107415, Note_on_c, 9, 37, 32
4, 107492, Note_on_c, 9, 37, 0
4, 107520, Note_on_c, 9, 59, 0
4, 107520, Note_on_c, 9, 44, 0
4, 107520, Note_on_c, 9, 59, 73
4, 107563, Note_on_c, 9, 35, 1
4, 107659, Note_on_c, 9, 35, 0
4, 107776, Note_on_c, 9, 59, 0
4, 107904, Note_on_c, 9, 59, 74
4, 107904, Note_on_c, 9, 44, 101
4, 108160, Note_on_c, 9, 59, 0
4, 108160, Note_on_c, 9, 59, 52
4, 108288, Note_on_c, 9, 59, 0
4, 108288, Note_on_c, 9, 44, 0
4, 108288, Note_on_c, 9, 59, 80
4, 108544, Note_on_c, 9, 59, 0
4, 108672, Note_on_c, 9, 59, 80
4, 108672, Note_on_c, 9, 46, 97
4, 108800, Note_on_c, 9, 59, 0
4, 109056, Note_on_c, 9, 46, 0
4, 109056, Note_on_c, 9, 59, 78
4, 109312, Note_on_c, 9, 59, 0
4, 109440, Note_on_c, 9, 59, 79
4, 109440, Note_on_c, 9, 44, 90
4, 109568, Note_on_c, 9, 59, 0
4, 109696, Note_on_c, 9, 59, 69
4, 109824, Note_on_c, 9, 59, 0
4, 109824, Note_on_c, 9, 44, 0
4, 109824, Note_on_c, 9, 59, 74
4, 109887, Note_on_c, 9, 40, 4
4, 109915, Note_on_c, 9, 40, 0
4, 109995, Note_on_c, 9, 31, 24
4, 110054, Note_on_c, 9, 31, 0
4, 110080, Note_on_c, 9, 59, 0
4, 110129, Note_on_c, 9, 40, 9
4, 110159, Note_on_c, 9, 40, 0
4, 110208, Note_on_c, 9, 59, 79
4, 110208, Note_on_c, 9, 44, 94
4, 110336, Note_on_c, 9, 59, 0
4, 110592, Note_on_c, 9, 44, 0
4, 110592, Note_on_c, 9, 59, 76
4, 110720, Note_on_c, 9, 59, 0
4, 110760, Note_on_c, 9, 40, 4
4, 110786, Note_on_c, 9, 40, 0
4, 110854, Note_on_c, 9, 31, 18
4, 110926, Note_on_c, 9, 31, 0
4, 110976, Note_on_c, 9, 59, 78
4, 110976, Note_on_c, 9, 44, 98
4, 110983, Note_on_c, 9, 40, 17
4, 111021, Note_on_c, 9, 40, 0
4, 111104, Note_on_c, 9, 59, 0
4, 111106, Note_on_c, 9, 40, 24
4, 111145, Note_on_c, 9, 40, 0
4, 111259, Note_on_c, 9, 31, 28
4, 111291, Note_on_c, 9, 31, 0
4, 111360, Note_on_c, 9, 44, 0
4, 111360, Note_on_c, 9, 59, 75
4, 111616, Note_on_c, 9, 59, 0
4, 111744, Note_on_c, 9, 59, 66
4, 111744, Note_on_c, 9, 44, 103
4, 112000, Note_on_c, 9, 59, 0
4, 112000, Note_on_c, 9, 53, 79
4, 112128, Note_on_c, 9, 53, 0
4, 112128, Note_on_c, 9, 44, 0
4, 112128, Note_on_c, 9, 59, 53
4, 112256, Note_on_c, 9, 59, 0
4, 112384, Note_on_c, 9, 53, 84
4, 112512, Note_on_c, 9, 53, 0
4, 112512, Note_on_c, 9, 59, 39
4, 112512, Note_on_c, 9, 44, 100
4, 112768, Note_on_c, 9, 59, 0
4, 112896, Note_on_c, 9, 44, 0
4, 112896, Note_on_c, 9, 59, 60
4, 113024, Note_on_c, 9, 59, 0
4, 113280, Note_on_c, 9, 59, 70
4, 113280, Note_on_c, 9, 44, 101
4, 113408, Note_on_c, 9, 59, 0
4, 113536, Note_on_c, 9, 59, 67
4, 113664, Note_on_c, 9, 59, 0
4, 113664, Note_on_c, 9, 44, 0
4, 113664, Note_on_c, 9, 59, 70
4, 113792, Note_on_c, 9, 59, 0
4, 114048, Note_on_c, 9, 59, 72
4, 114048, Note_on_c, 9, 44, 95
4, 114051, Note_on_c, 9, 40, 15
4, 114083, Note_on_c, 9, 40, 0
4, 114176, Note_on_c, 9, 59, 0
4, 114304, Note_on_c, 9, 59, 56
4, 114305, Note_on_c, 9, 35, 45
4, 114384, Note_on_c, 9, 35, 0
4, 114432, Note_on_c, 9, 59, 0
4, 114432, Note_on_c, 9, 44, 0
4, 114432, Note_on_c, 9, 59, 74
4, 114688, Note_on_c, 9, 59, 0
4, 114816, Note_on_c, 9, 59, 79
4, 114816, Note_on_c, 9, 44, 98
4, 114944, Note_on_c, 9, 59, 0
4, 115072, Note_on_c, 9, 59, 51
4, 115073, Note_on_c, 9, 40, 34
4, 115098, Note_on_c, 9, 40, 0
4, 115197, Note_on_c, 9, 35, 2
4, 115200, Note_on_c, 9, 59, 0
4, 115200, Note_on_c, 9, 44, 0
4, 115200, Note_on_c, 9, 59, 77
4, 115256, Note_on_c, 9, 35, 0
4, 115456, Note_on_c, 9, 59, 0
4, 115471, Note_on_c, 9, 40, 7
4, 115496, Note_on_c, 9, 40, 0
4, 115584, Note_on_c, 9, 59, 80
4, 115584, Note_on_c, 9, 44, 97
4, 115712, Note_on_c, 9, 59, 0
4, 115968, Note_on_c, 9, 44, 0
4, 116096, Note_on_c, 9, 59, 76
4, 116224, Note_on_c, 9, 59, 0
4, 116352, Note_on_c, 9, 59, 84
4, 116352, Note_on_c, 9, 44, 100
4, 116608, Note_on_c, 9, 59, 0
4, 116631, Note_on_c, 9, 35, 67
4, 116724, Note_on_c, 9, 35, 0
4, 116736, Note_on_c, 9, 44, 0
4, 116736, Note_on_c, 9, 59, 48
4, 116748, Note_on_c, 9, 35, 9
4, 116827, Note_on_c, 9, 35, 0
4, 116864, Note_on_c, 9, 59, 0
4, 116864, Note_on_c, 9, 59, 66
4, 116992, Note_on_c, 9, 59, 0
4, 116992, Note_on_c, 9, 59, 26
4, 117120, Note_on_c, 9, 59, 0
4, 117120, Note_on_c, 9, 44, 94
4, 117248, Note_on_c, 9, 59, 82
4, 117376, Note_on_c, 9, 59, 0
4, 117429, Note_on_c, 9, 35, 30
4, 117461, Note_on_c, 9, 35, 0
4, 117504, Note_on_c, 9, 44, 0
4, 117504, Note_on_c, 9, 59, 67
4, 117536, Note_on_c, 9, 35, 25
4, 117590, Note_on_c, 9, 35, 0
4, 117632, Note_on_c, 9, 59, 0
4, 117888, Note_on_c, 9, 59, 78
4, 117888, Note_on_c, 9, 44, 102
4, 118016, Note_on_c, 9, 59, 0
4, 118144, Note_on_c, 9, 59, 54
4, 118272, Note_on_c, 9, 59, 0
4, 118272, Note_on_c, 9, 44, 0
4, 118272, Note_on_c, 9, 59, 74
4, 118400, Note_on_c, 9, 59, 0
4, 118535, Note_on_c, 9, 40, 44
4, 118565, Note_on_c, 9, 40, 0
4, 118656, Note_on_c, 9, 59, 82
4, 118656, Note_on_c, 9, 44, 99
4, 118673, Note_on_c, 9, 35, 8
4, 118714, Note_on_c, 9, 35, 0
4, 118784, Note_on_c, 9, 59, 0
4, 118912, Note_on_c, 9, 59, 48
4, 118928, Note_on_c, 9, 40, 41
4, 118954, Note_on_c, 9, 40, 0
4, 119040, Note_on_c, 9, 59, 0
4, 119040, Note_on_c, 9, 44, 0
4, 119040, Note_on_c, 9, 59, 80
4, 119050, Note_on_c, 9, 35, 12
4, 119089, Note_on_c, 9, 35, 0
4, 119296, Note_on_c, 9, 59, 0
4, 119424, Note_on_c, 9, 59, 78
4, 119424, Note_on_c, 9, 44, 103
4, 119552, Note_on_c, 9, 59, 0
4, 119680, Note_on_c, 9, 59, 60
4, 119702, Note_on_c, 9, 35, 48
4, 119775, Note_on_c, 9, 35, 0
4, 119808, Note_on_c, 9, 59, 0
4, 119808, Note_on_c, 9, 44, 0
4, 119808, Note_on_c, 9, 59, 55
4, 119815, Note_on_c, 9, 35, 16
4, 119883, Note_on_c, 9, 35, 0
4, 120064, Note_on_c, 9, 59, 0
4, 120192, Note_on_c, 9, 59, 80
4, 120192, Note_on_c, 9, 44, 101
4, 120320, Note_on_c, 9, 59, 0
4, 120576, Note_on_c, 9, 44, 0
4, 120576, Note_on_c, 9, 59, 80
4, 120832, Note_on_c, 9, 59, 0
4, 120846, Note_on_c, 9, 40, 34
4, 120875, Note_on_c, 9, 40, 0
4, 120960, Note_on_c, 9, 59, 77
4, 120960, Note_on_c, 9, 44, 97
4, 120972, Note_on_c, 9, 35, 16
4, 121034, Note_on_c, 9, 35, 0
4, 121088, Note_on_c, 9, 59, 0
4, 121216, Note_on_c, 9, 59, 60
4, 121344, Note_on_c, 9, 59, 0
4, 121344, Note_on_c, 9, 44, 0
4, 121344, Note_on_c, 9, 59, 74
4, 121600, Note_on_c, 9, 59, 0
4, 121728, Note_on_c, 9, 59, 76
4, 121728, Note_on_c, 9, 44, 101
4, 121984, Note_on_c, 9, 59, 0
4, 122112, Note_on_c, 9, 44, 0
4, 122112, Note_on_c, 9, 59, 52
4, 122112, Note_on_c, 9, 59, 74
4, 122240, Note_on_c, 9, 59, 0
4, 122368, Note_on_c, 9, 59, 0
4, 122414, Note_on_c, 9, 40, 22
4, 122443, Note_on_c, 9, 40, 0
4, 122496, Note_on_c, 9, 59, 80
4, 122496, Note_on_c, 9, 46, 97
4, 122752, Note_on_c, 9, 59, 0
4, 122752, Note_on_c, 9, 59, 54
4, 122790, Note_on_c, 9, 40, 40
4, 122814, Note_on_c, 9, 40, 0
4, 122880, Note_on_c, 9, 59, 0
4, 122880, Note_on_c, 9, 46, 0
4, 122880, Note_on_c, 9, 59, 73
4, 123136, Note_on_c, 9, 59, 0
4, 123156, Note_on_c, 9, 40, 56
4, 123182, Note_on_c, 9, 40, 0
4, 123264, Note_on_c, 9, 59, 88
4, 123264, Note_on_c, 9, 44, 90
4, 123392, Note_on_c, 9, 59, 0
4, 123520, Note_on_c, 9, 59, 62
4, 123529, Note_on_c, 9, 40, 74
4, 123577, Note_on_c, 9, 40, 0
4, 123648, Note_on_c, 9, 59, 0
4, 123648, Note_on_c, 9, 44, 0
4, 123648, Note_on_c, 9, 59, 80
4, 123776, Note_on_c, 9, 59, 0
4, 123902, Note_on_c, 9, 40, 98
4, 123904, Note_on_c, 9, 53, 83
4, 123963, Note_on_c, 9, 40, 0
4, 124032, Note_on_c, 9, 53, 0
4, 124032, Note_on_c, 9, 59, 67
4, 124032, Note_on_c, 9, 44, 94
4, 124160, Note_on_c, 9, 59, 0
4, 124281, Note_on_c, 9, 37, 65
4, 124288, Note_on_c, 9, 51, 83
4, 124307, Note_on_c, 9, 32, 5
4, 124333, Note_on_c, 9, 32, 0
4, 124399, Note_on_c, 9, 57, 64
4, 124412, Note_on_c, 9, 35, 71
4, 124416, Note_on_c, 9, 51, 0
4, 124416, Note_on_c, 9, 44, 0
4, 124416, Note_on_c, 9, 51, 55
4, 124437, Note_on_c, 9, 37, 0
4, 124483, Note_on_c, 9, 57, 0
4, 124544, Note_on_c, 9, 51, 0
4, 124586, Note_on_c, 9, 35, 0
4, 124800, Note_on_c, 9, 51, 87
4, 124800, Note_on_c, 9, 44, 98
4, 124928, Note_on_c, 9, 51, 0
4, 125184, Note_on_c, 9, 44, 0
4, 125184, Note_on_c, 9, 51, 87
4, 125440, Note_on_c, 9, 51, 0
4, 125568, Note_on_c, 9, 51, 88
4, 125568, Note_on_c, 9, 44, 103
4, 125575, Note_on_c, 9, 37, 61
4, 125709, Note_on_c, 9, 37, 0
4, 125824, Note_on_c, 9, 51, 0
4, 125824, Note_on_c, 9, 51, 61
4, 125952, Note_on_c, 9, 51, 0
4, 125952, Note_on_c, 9, 44, 0
4, 125952, Note_on_c, 9, 51, 77
4, 126080, Note_on_c, 9, 51, 0
4, 126336, Note_on_c, 9, 51, 84
4, 126336, Note_on_c, 9, 44, 100
4, 126464, Note_on_c, 9, 51, 0
4, 126592, Note_on_c, 9, 51, 57
4, 126720, Note_on_c, 9, 51, 0
4, 126720, Note_on_c, 9, 44, 0
4, 126720, Note_on_c, 9, 51, 71
4, 126976, Note_on_c, 9, 51, 0
4, 127104, Note_on_c, 9, 51, 85
4, 127104, Note_on_c, 9, 44, 101
4, 127125, Note_on_c, 9, 37, 79
4, 127232, Note_on_c, 9, 51, 0
4, 127243, Note_on_c, 9, 37, 0
4, 127488, Note_on_c, 9, 44, 0
4, 127488, Note_on_c, 9, 51, 40
4, 127488, Note_on_c, 9, 51, 68
4, 127616, Note_on_c, 9, 51, 0
4, 127744, Note_on_c, 9, 51, 0
4, 127872, Note_on_c, 9, 51, 82
4, 127872, Note_on_c, 9, 44, 95
4, 128128, Note_on_c, 9, 51, 0
4, 128256, Note_on_c, 9, 44, 0
4, 128256, Note_on_c, 9, 51, 62
4, 128256, Note_on_c, 9, 51, 78
4, 128384, Note_on_c, 9, 51, 0
4, 128384, Note_on_c, 9, 51, 0
4, 128640, Note_on_c, 9, 51, 77
4, 128640, Note_on_c, 9, 44, 98
4, 128672, Note_on_c, 9, 37, 77
4, 128768, Note_on_c, 9, 51, 0
4, 128805, Note_on_c, 9, 37, 0
4, 128896, Note_on_c, 9, 51, 57
4, 129024, Note_on_c, 9, 51, 0
4, 129024, Note_on_c, 9, 44, 0
4, 129024, Note_on_c, 9, 51, 67
4, 129280, Note_on_c, 9, 51, 0
4, 129408, Note_on_c, 9, 51, 82
4, 129408, Note_on_c, 9, 44, 97
4, 129536, Note_on_c, 9, 51, 0
4, 129792, Note_on_c, 9, 44, 0
4, 129792, Note_on_c, 9, 51, 81
4, 129920, Note_on_c, 9, 51, 0
4, 130176, Note_on_c, 9, 51, 79
4, 130176, Note_on_c, 9, 44, 100
4, 130186, Note_on_c, 9, 37, 68
4, 130304, Note_on_c, 9, 51, 0
4, 130350, Note_on_c, 9, 37, 0
4, 130432, Note_on_c, 9, 51, 55
4, 130560, Note_on_c, 9, 51, 0
4, 130560, Note_on_c, 9, 44, 0
4, 130560, Note_on_c, 9, 51, 51
4, 130688, Note_on_c, 9, 51, 0
4, 130944, Note_on_c, 9, 51, 80
4, 130944, Note_on_c, 9, 44, 94
4, 130945, Note_on_c, 9, 48, 37
4, 131023, Note_on_c, 9, 48, 0
4, 131072, Note_on_c, 9, 51, 0
4, 131200, Note_on_c, 9, 51, 58
4, 131209, Note_on_c, 9, 48, 46
4, 131283, Note_on_c, 9, 48, 0
4, 131328, Note_on_c, 9, 51, 0
4, 131328, Note_on_c, 9, 44, 0
4, 131328, Note_on_c, 9, 51, 69
4, 131456, Note_on_c, 9, 51, 0
4, 131623, Note_on_c, 9, 37, 5
4, 131659, Note_on_c, 9, 37, 0
4, 131712, Note_on_c, 9, 51, 81
4, 131712, Note_on_c, 9, 44, 102
4, 131725, Note_on_c, 9, 37, 65
4, 131840, Note_on_c, 9, 51, 0
4, 131895, Note_on_c, 9, 37, 0
4, 132096, Note_on_c, 9, 44, 0
4, 132096, Note_on_c, 9, 51, 84
4, 132224, Note_on_c, 9, 51, 0
4, 132480, Note_on_c, 9, 51, 84
4, 132480, Note_on_c, 9, 44, 99
4, 132502, Note_on_c, 9, 48, 57
4, 132608, Note_on_c, 9, 51, 0
4, 132608, Note_on_c, 9, 51, 70
4, 132681, Note_on_c, 9, 48, 0
4, 132736, Note_on_c, 9, 51, 0
4, 132758, Note_on_c, 9, 48, 67
4, 132864, Note_on_c, 9, 44, 0
4, 132869, Note_on_c, 9, 48, 0
4, 132992, Note_on_c, 9, 51, 90
4, 133120, Note_on_c, 9, 51, 0
4, 133248, Note_on_c, 9, 44, 103
4, 133272, Note_on_c, 9, 37, 62
4, 133376, Note_on_c, 9, 51, 86
4, 133387, Note_on_c, 9, 37, 0
4, 133504, Note_on_c, 9, 51, 0
4, 133632, Note_on_c, 9, 44, 0
4, 133632, Note_on_c, 9, 51, 84
4, 133760, Note_on_c, 9, 51, 0
4, 134016, Note_on_c, 9, 51, 80
4, 134016, Note_on_c, 9, 44, 101
4, 134064, Note_on_c, 9, 48, 39
4, 134110, Note_on_c, 9, 48, 0
4, 134144, Note_on_c, 9, 51, 0
4, 134272, Note_on_c, 9, 51, 60
4, 134303, Note_on_c, 9, 48, 79
4, 134400, Note_on_c, 9, 51, 0
4, 134400, Note_on_c, 9, 44, 0
4, 134400, Note_on_c, 9, 51, 68
4, 134454, Note_on_c, 9, 48, 0
4, 134528, Note_on_c, 9, 51, 0
4, 134784, Note_on_c, 9, 51, 84
4, 134784, Note_on_c, 9, 44, 97
4, 134821, Note_on_c, 9, 37, 64
4, 134912, Note_on_c, 9, 51, 0
4, 134957, Note_on_c, 9, 37, 0
4, 135040, Note_on_c, 9, 51, 55
4, 135168, Note_on_c, 9, 51, 0
4, 135168, Note_on_c, 9, 44, 0
4, 135168, Note_on_c, 9, 51, 67
4, 135296, Note_on_c, 9, 51, 0
4, 135428, Note_on_c, 9, 37, 11
4, 135453, Note_on_c, 9, 37, 0
4, 135547, Note_on_c, 9, 48, 53
4, 135552, Note_on_c, 9, 51, 78
4, 135552, Note_on_c, 9, 44, 101
4, 135680, Note_on_c, 9, 51, 0
4, 135750, Note_on_c, 9, 48, 0
4, 135812, Note_on_c, 9, 48, 71
4, 135936, Note_on_c, 9, 44, 0
4, 135936, Note_on_c, 9, 51, 60
4, 135978, Note_on_c, 9, 48, 0
4, 136064, Note_on_c, 9, 51, 0
4, 136319, Note_on_c, 9, 37, 59
4, 136320, Note_on_c, 9, 51, 75
4, 136320, Note_on_c, 9, 46, 97
4, 136448, Note_on_c, 9, 51, 0
4, 136450, Note_on_c, 9, 37, 0
4, 136704, Note_on_c, 9, 46, 0
4, 136704, Note_on_c, 9, 51, 77
4, 136832, Note_on_c, 9, 51, 0
4, 137088, Note_on_c, 9, 51, 79
4, 137088, Note_on_c, 9, 44, 90
4, 137091, Note_on_c, 9, 48, 44
4, 137133, Note_on_c, 9, 48, 0
4, 137216, Note_on_c, 9, 51, 0
4, 137357, Note_on_c, 9, 48, 95
4, 137433, Note_on_c, 9, 48, 0
4, 137472, Note_on_c, 9, 44, 0
4, 137472, Note_on_c, 9, 51, 79
4, 137600, Note_on_c, 9, 51, 0
4, 137856, Note_on_c, 9, 51, 80
4, 137856, Note_on_c, 9, 44, 94
4, 137889, Note_on_c, 9, 37, 64
4, 137959, Note_on_c, 9, 37, 0
4, 137984, Note_on_c, 9, 51, 0
4, 138112, Note_on_c, 9, 51, 64
4, 138240, Note_on_c, 9, 51, 0
4, 138240, Note_on_c, 9, 44, 0
4, 138240, Note_on_c, 9, 51, 69
4, 138368, Note_on_c, 9, 51, 0
4, 138624, Note_on_c, 9, 51, 79
4, 138624, Note_on_c, 9, 44, 98
4, 138632, Note_on_c, 9, 48, 38
4, 138658, Note_on_c, 9, 48, 0
4, 138752, Note_on_c, 9, 51, 0
4, 138880, Note_on_c, 9, 51, 40
4, 138890, Note_on_c, 9, 48, 74
4, 138926, Note_on_c, 9, 48, 0
4, 139008, Note_on_c, 9, 51, 0
4, 139008, Note_on_c, 9, 44, 0
4, 139008, Note_on_c, 9, 51, 72
4, 139136, Note_on_c, 9, 51, 0
4, 139392, Note_on_c, 9, 51, 77
4, 139392, Note_on_c, 9, 44, 103
4, 139419, Note_on_c, 9, 37, 59
4, 139486, Note_on_c, 9, 37, 0
4, 139648, Note_on_c, 9, 51, 0
4, 139776, Note_on_c, 9, 44, 0
4, 139776, Note_on_c, 9, 51, 75
4, 140032, Note_on_c, 9, 51, 0
4, 140160, Note_on_c, 9, 51, 74
4, 140160, Note_on_c, 9, 44, 100
4, 140180, Note_on_c, 9, 48, 44
4, 140226, Note_on_c, 9, 48, 0
4, 140416, Note_on_c, 9, 51, 0
4, 140442, Note_on_c, 9, 48, 50
4, 140483, Note_on_c, 9, 48, 0
4, 140544, Note_on_c, 9, 44, 0
4, 140544, Note_on_c, 9, 51, 75
4, 140800, Note_on_c, 9, 51, 0
4, 140928, Note_on_c, 9, 51, 75
4, 140928, Note_on_c, 9, 44, 101
4, 140952, Note_on_c, 9, 37, 63
4, 141021, Note_on_c, 9, 37, 0
4, 141184, Note_on_c, 9, 51, 0
4, 141312, Note_on_c, 9, 44, 0
4, 141312, Note_on_c, 9, 51, 77
4, 141568, Note_on_c, 9, 51, 0
4, 141696, Note_on_c, 9, 51, 75
4, 141696, Note_on_c, 9, 44, 95
4, 141824, Note_on_c, 9, 51, 0
4, 141977, Note_on_c, 9, 48, 44
4, 142001, Note_on_c, 9, 48, 0
4, 142080, Note_on_c, 9, 44, 0
4, 142080, Note_on_c, 9, 51, 56
4, 142080, Note_on_c, 9, 51, 71
4, 142208, Note_on_c, 9, 51, 0
4, 142336, Note_on_c, 9, 51, 0
4, 142464, Note_on_c, 9, 51, 80
4, 142464, Note_on_c, 9, 44, 98
4, 142503, Note_on_c, 9, 37, 65
4, 142568, Note_on_c, 9, 37, 0
4, 142592, Note_on_c, 9, 51, 0
4, 142848, Note_on_c, 9, 44, 0
4, 142848, Note_on_c, 9, 51, 79
4, 142976, Note_on_c, 9, 51, 0
4, 143232, Note_on_c, 9, 51, 79
4, 143232, Note_on_c, 9, 44, 97
4, 143360, Note_on_c, 9, 51, 0
4, 143504, Note_on_c, 9, 48, 71
4, 143555, Note_on_c, 9, 48, 0
4, 143616, Note_on_c, 9, 44, 0
4, 143616, Note_on_c, 9, 51, 67
4, 143744, Note_on_c, 9, 51, 0
4, 143744, Note_on_c, 9, 51, 75
4, 143872, Note_on_c, 9, 51, 0
4, 144000, Note_on_c, 9, 51, 83
4, 144000, Note_on_c, 9, 44, 100
4, 144015, Note_on_c, 9, 37, 63
4, 144082, Note_on_c, 9, 37, 0
4, 144256, Note_on_c, 9, 51, 0
4, 144384, Note_on_c, 9, 44, 0
4, 144384, Note_on_c, 9, 51, 59
4, 144512, Note_on_c, 9, 51, 0
4, 144512, Note_on_c, 9, 51, 71
4, 144640, Note_on_c, 9, 51, 0
4, 144768, Note_on_c, 9, 51, 83
4, 144768, Note_on_c, 9, 44, 94
4, 144778, Note_on_c, 9, 48, 32
4, 144810, Note_on_c, 9, 48, 0
4, 145024, Note_on_c, 9, 51, 0
4, 145043, Note_on_c, 9, 48, 85
4, 145152, Note_on_c, 9, 44, 0
4, 145152, Note_on_c, 9, 51, 78
4, 145165, Note_on_c, 9, 48, 0
4, 145408, Note_on_c, 9, 51, 0
4, 145533, Note_on_c, 9, 37, 50
4, 145536, Note_on_c, 9, 51, 79
4, 145536, Note_on_c, 9, 44, 102
4, 145595, Note_on_c, 9, 37, 0
4, 145664, Note_on_c, 9, 51, 0
4, 145792, Note_on_c, 9, 51, 47
4, 145920, Note_on_c, 9, 51, 0
4, 145920, Note_on_c, 9, 44, 0
4, 145920, Note_on_c, 9, 51, 62
4, 146048, Note_on_c, 9, 51, 0
4, 146304, Note_on_c, 9, 51, 80
4, 146304, Note_on_c, 9, 44, 99
4, 146432, Note_on_c, 9, 51, 0
4, 146548, Note_on_c, 9, 48, 35
4, 146581, Note_on_c, 9, 48, 0
4, 146688, Note_on_c, 9, 44, 0
4, 146688, Note_on_c, 9, 51, 75
4, 146816, Note_on_c, 9, 51, 0
4, 147072, Note_on_c, 9, 51, 76
4, 147072, Note_on_c, 9, 44, 103
4, 147080, Note_on_c, 9, 37, 48
4, 147134, Note_on_c, 9, 37, 0
4, 147200, Note_on_c, 9, 51, 0
4, 147456, Note_on_c, 9, 44, 0
4, 147456, Note_on_c, 9, 51, 53
4, 147456, Note_on_c, 9, 51, 58
4, 147584, Note_on_c, 9, 51, 0
4, 147584, Note_on_c, 9, 51, 0
4, 147840, Note_on_c, 9, 51, 74
4, 147840, Note_on_c, 9, 44, 101
4, 147968, Note_on_c, 9, 51, 0
4, 148224, Note_on_c, 9, 44, 0
4, 148224, Note_on_c, 9, 51, 71
4, 148352, Note_on_c, 9, 51, 0
4, 148608, Note_on_c, 9, 51, 75
4, 148608, Note_on_c, 9, 44, 97
4, 148644, Note_on_c, 9, 37, 84
4, 148717, Note_on_c, 9, 37, 0
4, 148736, Note_on_c, 9, 51, 0
4, 148992, Note_on_c, 9, 44, 0
4, 148992, Note_on_c, 9, 51, 59
4, 148992, Note_on_c, 9, 51, 61
4, 149120, Note_on_c, 9, 51, 0
4, 149248, Note_on_c, 9, 51, 0
4, 149376, Note_on_c, 9, 51, 76
4, 149376, Note_on_c, 9, 44, 101
4, 149504, Note_on_c, 9, 51, 0
4, 149760, Note_on_c, 9, 44, 0
4, 149760, Note_on_c, 9, 51, 76
4, 150016, Note_on_c, 9, 51, 0
4, 150144, Note_on_c, 9, 51, 74
4, 150144, Note_on_c, 9, 46, 97
4, 150171, Note_on_c, 9, 37, 82
4, 150272, Note_on_c, 9, 51, 0
4, 150274, Note_on_c, 9, 37, 0
4, 150528, Note_on_c, 9, 46, 0
4, 150528, Note_on_c, 9, 51, 57
4, 150528, Note_on_c, 9, 51, 60
4, 150656, Note_on_c, 9, 51, 0
4, 150656, Note_on_c, 9, 51, 0
4, 150912, Note_on_c, 9, 51, 74
4, 150912, Note_on_c, 9, 44, 90
4, 151040, Note_on_c, 9, 51, 0
4, 151168, Note_on_c, 9, 51, 52
4, 151296, Note_on_c, 9, 51, 0
4, 151296, Note_on_c, 9, 44, 0
4, 151296, Note_on_c, 9, 51, 54
4, 151424, Note_on_c, 9, 51, 0
4, 151680, Note_on_c, 9, 51, 77
4, 151680, Note_on_c, 9, 44, 94
4, 151709, Note_on_c, 9, 37, 78
4, 151804, Note_on_c, 9, 37, 0
4, 151808, Note_on_c, 9, 51, 0
4, 151936, Note_on_c, 9, 51, 64
4, 152064, Note_on_c, 9, 51, 0
4, 152064, Note_on_c, 9, 44, 0
4, 152064, Note_on_c, 9, 51, 64
4, 152192, Note_on_c, 9, 51, 0
4, 152448, Note_on_c, 9, 51, 74
4, 152448, Note_on_c, 9, 44, 98
4, 152576, Note_on_c, 9, 51, 0
4, 152832, Note_on_c, 9, 44, 0
4, 152832, Note_on_c, 9, 51, 78
4, 152960, Note_on_c, 9, 51, 0
4, 153088, Note_on_c, 9, 53, 77
4, 153216, Note_on_c, 9, 53, 0
4, 153216, Note_on_c, 9, 51, 55
4, 153216, Note_on_c, 9, 44, 103
4, 153243, Note_on_c, 9, 37, 74
4, 153327, Note_on_c, 9, 37, 0
4, 153344, Note_on_c, 9, 51, 0
4, 153600, Note_on_c, 9, 44, 0
4, 153600, Note_on_c, 9, 51, 69
4, 153728, Note_on_c, 9, 51, 0
4, 153856, Note_on_c, 9, 53, 81
4, 153984, Note_on_c, 9, 53, 0
4, 153984, Note_on_c, 9, 51, 44
4, 153984, Note_on_c, 9, 44, 100
4, 154112, Note_on_c, 9, 51, 0
4, 154368, Note_on_c, 9, 44, 0
4, 154368, Note_on_c, 9, 51, 63
4, 154496, Note_on_c, 9, 51, 0
4, 154624, Note_on_c, 9, 53, 79
4, 154747, Note_on_c, 9, 37, 82
4, 154752, Note_on_c, 9, 53, 0
4, 154752, Note_on_c, 9, 51, 39
4, 154752, Note_on_c, 9, 44, 101
4, 154831, Note_on_c, 9, 37, 0
4, 154880, Note_on_c, 9, 51, 0
4, 155008, Note_on_c, 9, 57, 85
4, 155008, Note_on_c, 9, 51, 79
4, 155136, Note_on_c, 9, 44, 0
4, 155264, Note_on_c, 9, 51, 0
4, 155264, Note_on_c, 9, 57, 0
4, 155520, Note_on_c, 9, 51, 36
4, 155520, Note_on_c, 9, 44, 95
4, 155648, Note_on_c, 9, 51, 0
4, 155776, Note_on_c, 9, 51, 46
4, 155904, Note_on_c, 9, 51, 0
4, 155904, Note_on_c, 9, 44, 0
4, 155904, Note_on_c, 9, 51, 52
4, 156032, Note_on_c, 9, 51, 0
4, 156160, Note_on_c, 9, 57, 91
4, 156160, Note_on_c, 9, 51, 84
4, 156160, Note_on_c, 9, 56, 44
4, 156164, Note_on_c, 9, 35, 52
4, 156218, Note_on_c, 9, 35, 0
4, 156288, Note_on_c, 9, 56, 0
4, 156288, Note_on_c, 9, 44, 98
4, 156289, Note_on_c, 9, 35, 28
4, 156325, Note_on_c, 9, 35, 0
4, 156416, Note_on_c, 9, 57, 0
4, 156544, Note_on_c, 9, 51, 0
4, 156672, Note_on_c, 9, 44, 0
4, 156672, Note_on_c, 9, 51, 34
4, 156928, Note_on_c, 9, 51, 0
4, 157056, Note_on_c, 9, 51, 57
4, 157056, Note_on_c, 9, 44, 97
4, 157184, Note_on_c, 9, 51, 0
4, 157312, Note_on_c, 9, 51, 50
4, 157440, Note_on_c, 9, 51, 0
4, 157440, Note_on_c, 9, 44, 0
4, 157440, Note_on_c, 9, 51, 57
4, 157696, Note_on_c, 9, 51, 0
4, 157824, Note_on_c, 9, 51, 62
4, 157824, Note_on_c, 9, 44, 100
4, 157841, Note_on_c, 9, 37, 74
4, 157919, Note_on_c, 9, 37, 0
4, 157952, Note_on_c, 9, 51, 0
4, 158080, Note_on_c, 9, 51, 44
4, 158208, Note_on_c, 9, 51, 0
4, 158208, Note_on_c, 9, 44, 0
4, 158208, Note_on_c, 9, 51, 53
4, 158336, Note_on_c, 9, 51, 0
4, 158490, Note_on_c, 9, 35, 42
4, 158521, Note_on_c, 9, 35, 0
4, 158592, Note_on_c, 9, 51, 62
4, 158592, Note_on_c, 9, 44, 94
4, 158631, Note_on_c, 9, 35, 13
4, 158673, Note_on_c, 9, 35, 0
4, 158848, Note_on_c, 9, 51, 0
4, 158848, Note_on_c, 9, 51, 30
4, 158867, Note_on_c, 9, 35, 41
4, 158903, Note_on_c, 9, 35, 0
4, 158976, Note_on_c, 9, 51, 0
4, 158976, Note_on_c, 9, 44, 0
4, 158976, Note_on_c, 9, 51, 62
4, 159232, Note_on_c, 9, 51, 0
4, 159360, Note_on_c, 9, 51, 71
4, 159360, Note_on_c, 9, 44, 102
4, 159363, Note_on_c, 9, 37, 79
4, 159422, Note_on_c, 9, 37, 0
4, 159488, Note_on_c, 9, 51, 0
4, 159744, Note_on_c, 9, 44, 0
4, 159744, Note_on_c, 9, 51, 67
4, 159872, Note_on_c, 9, 51, 0
4, 160128, Note_on_c, 9, 51, 71
4, 160128, Note_on_c, 9, 44, 99
4, 160134, Note_on_c, 9, 35, 23
4, 160163, Note_on_c, 9, 35, 0
4, 160256, Note_on_c, 9, 51, 0
4, 160384, Note_on_c, 9, 51, 55
4, 160405, Note_on_c, 9, 35, 40
4, 160429, Note_on_c, 9, 35, 0
4, 160512, Note_on_c, 9, 51, 0
4, 160512, Note_on_c, 9, 44, 0
4, 160512, Note_on_c, 9, 51, 65
4, 160640, Note_on_c, 9, 51, 0
4, 160896, Note_on_c, 9, 51, 72
4, 160896, Note_on_c, 9, 44, 103
4, 160905, Note_on_c, 9, 37, 77
4, 160970, Note_on_c, 9, 37, 0
4, 161024, Note_on_c, 9, 51, 0
4, 161152, Note_on_c, 9, 51, 48
4, 161280, Note_on_c, 9, 51, 0
4, 161280, Note_on_c, 9, 44, 0
4, 161280, Note_on_c, 9, 51, 62
4, 161536, Note_on_c, 9, 51, 0
4, 161664, Note_on_c, 9, 51, 77
4, 161664, Note_on_c, 9, 44, 101
4, 161792, Note_on_c, 9, 51, 0
4, 161920, Note_on_c, 9, 51, 57
4, 162048, Note_on_c, 9, 51, 0
4, 162048, Note_on_c, 9, 44, 0
4, 162048, Note_on_c, 9, 51, 69
4, 162176, Note_on_c, 9, 51, 0
4, 162432, Note_on_c, 9, 51, 74
4, 162432, Note_on_c, 9, 44, 97
4, 162440, Note_on_c, 9, 37, 77
4, 162511, Note_on_c, 9, 37, 0
4, 162560, Note_on_c, 9, 51, 0
4, 162816, Note_on_c, 9, 44, 0
4, 162816, Note_on_c, 9, 51, 47
4, 162816, Note_on_c, 9, 51, 64
4, 162944, Note_on_c, 9, 51, 0
4, 163072, Note_on_c, 9, 51, 0
4, 163200, Note_on_c, 9, 51, 74
4, 163200, Note_on_c, 9, 44, 101
4, 163456, Note_on_c, 9, 51, 0
4, 163456, Note_on_c, 9, 51, 48
4, 163463, Note_on_c, 9, 35, 68
4, 163534, Note_on_c, 9, 35, 0
4, 163584, Note_on_c, 9, 51, 0
4, 163584, Note_on_c, 9, 44, 0
4, 163584, Note_on_c, 9, 51, 67
4, 163592, Note_on_c, 9, 35, 38
4, 163712, Note_on_c, 9, 51, 0
4, 163720, Note_on_c, 9, 35, 0
4, 163968, Note_on_c, 9, 51, 76
4, 163968, Note_on_c, 9, 46, 97
4, 163997, Note_on_c, 9, 37, 51
4, 164096, Note_on_c, 9, 51, 0
4, 164132, Note_on_c, 9, 37, 0
4, 164224, Note_on_c, 9, 51, 50
4, 164352, Note_on_c, 9, 51, 0
4, 164352, Note_on_c, 9, 46, 0
4, 164352, Note_on_c, 9, 51, 64
4, 164608, Note_on_c, 9, 51, 0
4, 164639, Note_on_c, 9, 35, 28
4, 164670, Note_on_c, 9, 35, 0
4, 164736, Note_on_c, 9, 51, 74
4, 164736, Note_on_c, 9, 44, 90
4, 164764, Note_on_c, 9, 35, 54
4, 164861, Note_on_c, 9, 35, 0
4, 164864, Note_on_c, 9, 51, 0
4, 165120, Note_on_c, 9, 44, 0
4, 165120, Note_on_c, 9, 51, 74
4, 165248, Note_on_c, 9, 51, 0
4, 165504, Note_on_c, 9, 51, 79
4, 165504, Note_on_c, 9, 44, 94
4, 165515, Note_on_c, 9, 37, 84
4, 165632, Note_on_c, 9, 51, 0
4, 165635, Note_on_c, 9, 37, 0
4, 165888, Note_on_c, 9, 44, 0
4, 165888, Note_on_c, 9, 51, 78
4, 166016, Note_on_c, 9, 51, 0
4, 166272, Note_on_c, 9, 51, 74
4, 166272, Note_on_c, 9, 44, 98
4, 166400, Note_on_c, 9, 51, 0
4, 166648, Note_on_c, 9, 35, 40
4, 166656, Note_on_c, 9, 44, 0
4, 166656, Note_on_c, 9, 51, 76
4, 166674, Note_on_c, 9, 35, 0
4, 166784, Note_on_c, 9, 51, 0
4, 166881, Note_on_c, 9, 35, 64
4, 166930, Note_on_c, 9, 35, 0
4, 167040, Note_on_c, 9, 51, 77
4, 167040, Note_on_c, 9, 44, 103
4, 167066, Note_on_c, 9, 35, 60
4, 167113, Note_on_c, 9, 35, 0
4, 167160, Note_on_c, 9, 35, 60
4, 167168, Note_on_c, 9, 51, 0
4, 167233, Note_on_c, 9, 35, 0
4, 167296, Note_on_c, 9, 51, 44
4, 167424, Note_on_c, 9, 51, 0
4, 167424, Note_on_c, 9, 44, 0
4, 167424, Note_on_c, 9, 51, 71
4, 167552, Note_on_c, 9, 51, 0
4, 167808, Note_on_c, 9, 51, 77
4, 167808, Note_on_c, 9, 44, 100
4, 167936, Note_on_c, 9, 51, 0
4, 168192, Note_on_c, 9, 44, 0
4, 168192, Note_on_c, 9, 51, 75
4, 168320, Note_on_c, 9, 51, 0
4, 168553, Note_on_c, 9, 37, 74
4, 168576, Note_on_c, 9, 51, 76
4, 168576, Note_on_c, 9, 44, 101
4, 168670, Note_on_c, 9, 37, 0
4, 168704, Note_on_c, 9, 51, 0
4, 168960, Note_on_c, 9, 44, 0
4, 168960, Note_on_c, 9, 51, 77
4, 169088, Note_on_c, 9, 51, 0
4, 169344, Note_on_c, 9, 51, 74
4, 169344, Note_on_c, 9, 44, 95
4, 169472, Note_on_c, 9, 51, 0
4, 169593, Note_on_c, 9, 35, 46
4, 169600, Note_on_c, 9, 51, 42
4, 169617, Note_on_c, 9, 35, 0
4, 169722, Note_on_c, 9, 37, 37
4, 169728, Note_on_c, 9, 51, 0
4, 169728, Note_on_c, 9, 44, 0
4, 169728, Note_on_c, 9, 51, 54
4, 169856, Note_on_c, 9, 51, 0
4, 169885, Note_on_c, 9, 37, 0
4, 170112, Note_on_c, 9, 51, 73
4, 170112, Note_on_c, 9, 44, 98
4, 170240, Note_on_c, 9, 51, 0
4, 170496, Note_on_c, 9, 44, 0
4, 170496, Note_on_c, 9, 51, 75
4, 170624, Note_on_c, 9, 51, 0
4, 170880, Note_on_c, 9, 51, 72
4, 170880, Note_on_c, 9, 44, 97
4, 171008, Note_on_c, 9, 51, 0
4, 171264, Note_on_c, 9, 44, 0
4, 171264, Note_on_c, 9, 51, 79
4, 171392, Note_on_c, 9, 51, 0
4, 171648, Note_on_c, 9, 51, 76
4, 171648, Note_on_c, 9, 44, 100
4, 171659, Note_on_c, 9, 37, 78
4, 171752, Note_on_c, 9, 37, 0
4, 171776, Note_on_c, 9, 51, 0
4, 171904, Note_on_c, 9, 51, 44
4, 172032, Note_on_c, 9, 51, 0
4, 172032, Note_on_c, 9, 44, 0
4, 172032, Note_on_c, 9, 51, 64
4, 172160, Note_on_c, 9, 51, 0
4, 172416, Note_on_c, 9, 51, 82
4, 172416, Note_on_c, 9, 44, 94
4, 172544, Note_on_c, 9, 51, 0
4, 172672, Note_on_c, 9, 51, 55
4, 172800, Note_on_c, 9, 51, 0
4, 172800, Note_on_c, 9, 44, 0
4, 172800, Note_on_c, 9, 51, 69
4, 172928, Note_on_c, 9, 51, 0
4, 173184, Note_on_c, 9, 51, 79
4, 173184, Note_on_c, 9, 44, 102
4, 173244, Note_on_c, 9, 37, 72
4, 173311, Note_on_c, 9, 37, 0
4, 173312, Note_on_c, 9, 51, 0
4, 173440, Note_on_c, 9, 51, 48
4, 173568, Note_on_c, 9, 51, 0
4, 173568, Note_on_c, 9, 44, 0
4, 173568, Note_on_c, 9, 51, 70
4, 173696, Note_on_c, 9, 51, 0
4, 173952, Note_on_c, 9, 51, 77
4, 173952, Note_on_c, 9, 44, 99
4, 174080, Note_on_c, 9, 51, 0
4, 174336, Note_on_c, 9, 44, 0
4, 174336, Note_on_c, 9, 51, 75
4, 174464, Note_on_c, 9, 51, 0
4, 174720, Note_on_c, 9, 51, 77
4, 174720, Note_on_c, 9, 44, 103
4, 174739, Note_on_c, 9, 37, 78
4, 174838, Note_on_c, 9, 37, 0
4, 174848, Note_on_c, 9, 51, 0
4, 174976, Note_on_c, 9, 51, 56
4, 175104, Note_on_c, 9, 51, 0
4, 175104, Note_on_c, 9, 44, 0
4, 175104, Note_on_c, 9, 51, 65
4, 175232, Note_on_c, 9, 51, 0
4, 175488, Note_on_c, 9, 51, 73
4, 175488, Note_on_c, 9, 44, 101
4, 175616, Note_on_c, 9, 51, 0
4, 175744, Note_on_c, 9, 51, 47
4, 175872, Note_on_c, 9, 51, 0
4, 175872, Note_on_c, 9, 44, 0
4, 175872, Note_on_c, 9, 51, 64
4, 176000, Note_on_c, 9, 51, 0
4, 176256, Note_on_c, 9, 51, 79
4, 176256, Note_on_c, 9, 44, 97
4, 176269, Note_on_c, 9, 37, 64
4, 176384, Note_on_c, 9, 51, 0
4, 176388, Note_on_c, 9, 37, 0
4, 176512, Note_on_c, 9, 51, 57
4, 176640, Note_on_c, 9, 51, 0
4, 176640, Note_on_c, 9, 44, 0
4, 176640, Note_on_c, 9, 51, 69
4, 176768, Note_on_c, 9, 51, 0
4, 177024, Note_on_c, 9, 51, 77
4, 177024, Note_on_c, 9, 44, 101
4, 177152, Note_on_c, 9, 51, 0
4, 177280, Note_on_c, 9, 51, 46
4, 177408, Note_on_c, 9, 51, 0
4, 177408, Note_on_c, 9, 44, 0
4, 177408, Note_on_c, 9, 51, 65
4, 177536, Note_on_c, 9, 51, 0
4, 177792, Note_on_c, 9, 51, 83
4, 177792, Note_on_c, 9, 46, 97
4, 177799, Note_on_c, 9, 37, 75
4, 177898, Note_on_c, 9, 37, 0
4, 177920, Note_on_c, 9, 51, 0
4, 178048, Note_on_c, 9, 51, 59
4, 178176, Note_on_c, 9, 51, 0
4, 178176, Note_on_c, 9, 46, 0
4, 178176, Note_on_c, 9, 51, 68
4, 178304, Note_on_c, 9, 51, 0
4, 178560, Note_on_c, 9, 51, 80
4, 178560, Note_on_c, 9, 44, 90
4, 178688, Note_on_c, 9, 51, 0
4, 178816, Note_on_c, 9, 51, 60
4, 178944, Note_on_c, 9, 51, 0
4, 178944, Note_on_c, 9, 44, 0
4, 178944, Note_on_c, 9, 51, 59
4, 179072, Note_on_c, 9, 51, 0
4, 179328, Note_on_c, 9, 51, 71
4, 179328, Note_on_c, 9, 44, 94
4, 179456, Note_on_c, 9, 51, 0
4, 179584, Note_on_c, 9, 51, 62
4, 179601, Note_on_c, 9, 37, 60
4, 179616, Note_on_c, 9, 56, 67
4, 179695, Note_on_c, 9, 56, 0
4, 179712, Note_on_c, 9, 44, 0
4, 179712, Note_on_c, 9, 51, 0
4, 179753, Note_on_c, 9, 37, 0
4, 179753, Note_on_c, 9, 35, 45
4, 179753, Note_on_c, 9, 57, 38
4, 179886, Note_on_c, 9, 57, 0
4, 180096, Note_on_c, 9, 51, 67
4, 180096, Note_on_c, 9, 44, 98
4, 180224, Note_on_c, 9, 51, 0
4, 180480, Note_on_c, 9, 44, 0
4, 180480, Note_on_c, 9, 51, 59
4, 180608, Note_on_c, 9, 51, 0
4, 180741, Note_on_c, 9, 37, 65
4, 180766, Note_on_c, 9, 35, 0
4, 180862, Note_on_c, 9, 35, 55
4, 180864, Note_on_c, 9, 51, 58
4, 180864, Note_on_c, 9, 44, 103
4, 180881, Note_on_c, 9, 37, 0
4, 180887, Note_on_c, 9, 57, 19
4, 180916, Note_on_c, 9, 57, 0
4, 180992, Note_on_c, 9, 51, 0
4, 181055, Note_on_c, 9, 35, 0
4, 181120, Note_on_c, 9, 51, 69
4, 181248, Note_on_c, 9, 51, 0
4, 181248, Note_on_c, 9, 44, 0
4, 181248, Note_on_c, 9, 51, 67
4, 181504, Note_on_c, 9, 51, 0
4, 181632, Note_on_c, 9, 51, 77
4, 181632, Note_on_c, 9, 44, 100
4, 181760, Note_on_c, 9, 51, 0
4, 181928, Note_on_c, 9, 35, 27
4, 181958, Note_on_c, 9, 35, 0
4, 182016, Note_on_c, 9, 44, 0
4, 182016, Note_on_c, 9, 51, 68
4, 182144, Note_on_c, 9, 51, 0
4, 182400, Note_on_c, 9, 51, 77
4, 182400, Note_on_c, 9, 44, 101
4, 182528, Note_on_c, 9, 51, 0
4, 182656, Note_on_c, 9, 51, 56
4, 182674, Note_on_c, 9, 35, 72
4, 182756, Note_on_c, 9, 35, 0
4, 182784, Note_on_c, 9, 51, 0
4, 182784, Note_on_c, 9, 44, 0
4, 182784, Note_on_c, 9, 51, 62
4, 182802, Note_on_c, 9, 35, 44
4, 182883, Note_on_c, 9, 35, 0
4, 183040, Note_on_c, 9, 51, 0
4, 183168, Note_on_c, 9, 51, 83
4, 183168, Note_on_c, 9, 44, 95
4, 183296, Note_on_c, 9, 51, 0
4, 183424, Note_on_c, 9, 51, 56
4, 183552, Note_on_c, 9, 51, 0
4, 183552, Note_on_c, 9, 44, 0
4, 183552, Note_on_c, 9, 51, 71
4, 183683, Note_on_c, 9, 40, 13
4, 183716, Note_on_c, 9, 40, 0
4, 183798, Note_on_c, 9, 40, 19
4, 183808, Note_on_c, 9, 51, 0
4, 183837, Note_on_c, 9, 40, 0
4, 183936, Note_on_c, 9, 51, 85
4, 183936, Note_on_c, 9, 44, 98
4, 184064, Note_on_c, 9, 51, 0
4, 184192, Note_on_c, 9, 51, 55
4, 184320, Note_on_c, 9, 51, 0
4, 184320, Note_on_c, 9, 44, 0
4, 184320, Note_on_c, 9, 51, 62
4, 184576, Note_on_c, 9, 51, 0
4, 184704, Note_on_c, 9, 51, 82
4, 184704, Note_on_c, 9, 44, 97
4, 184832, Note_on_c, 9, 51, 0
4, 185088, Note_on_c, 9, 44, 0
4, 185088, Note_on_c, 9, 51, 70
4, 185216, Note_on_c, 9, 51, 0
4, 185339, Note_on_c, 9, 37, 42
4, 185387, Note_on_c, 9, 37, 0
4, 185460, Note_on_c, 9, 35, 10
4, 185472, Note_on_c, 9, 51, 83
4, 185472, Note_on_c, 9, 44, 100
4, 185498, Note_on_c, 9, 35, 0
4, 185600, Note_on_c, 9, 51, 0
4, 185728, Note_on_c, 9, 51, 55
4, 185735, Note_on_c, 9, 37, 32
4, 185773, Note_on_c, 9, 37, 0
4, 185856, Note_on_c, 9, 51, 0
4, 185856, Note_on_c, 9, 44, 0
4, 185856, Note_on_c, 9, 51, 57
4, 186112, Note_on_c, 9, 51, 0
4, 186240, Note_on_c, 9, 51, 77
4, 186240, Note_on_c, 9, 44, 94
4, 186368, Note_on_c, 9, 51, 0
4, 186496, Note_on_c, 9, 51, 56
4, 186533, Note_on_c, 9, 35, 15
4, 186565, Note_on_c, 9, 35, 0
4, 186624, Note_on_c, 9, 51, 0
4, 186624, Note_on_c, 9, 44, 0
4, 186624, Note_on_c, 9, 51, 45
4, 186752, Note_on_c, 9, 51, 0
4, 186880, Note_on_c, 9, 51, 65
4, 187008, Note_on_c, 9, 51, 0
4, 187008, Note_on_c, 9, 51, 76
4, 187008, Note_on_c, 9, 44, 102
4, 187264, Note_on_c, 9, 51, 0
4, 187392, Note_on_c, 9, 44, 0
4, 187392, Note_on_c, 9, 51, 36
4, 187478, Note_on_c, 9, 37, 29
4, 187520, Note_on_c, 9, 51, 0
4, 187529, Note_on_c, 9, 37, 0
4, 187624, Note_on_c, 9, 35, 31
4, 187648, Note_on_c, 9, 51, 44
4, 187653, Note_on_c, 9, 35, 0
4, 187741, Note_on_c, 9, 37, 28
4, 187776, Note_on_c, 9, 51, 0
4, 187776, Note_on_c, 9, 51, 79
4, 187776, Note_on_c, 9, 44, 99
4, 187799, Note_on_c, 9, 37, 0
4, 187904, Note_on_c, 9, 51, 0
4, 188160, Note_on_c, 9, 44, 0
4, 188160, Note_on_c, 9, 51, 52
4, 188288, Note_on_c, 9, 51, 0
4, 188416, Note_on_c, 9, 51, 43
4, 188544, Note_on_c, 9, 51, 0
4, 188544, Note_on_c, 9, 51, 83
4, 188544, Note_on_c, 9, 44, 103
4, 188672, Note_on_c, 9, 51, 0
4, 188804, Note_on_c, 9, 37, 17
4, 188828, Note_on_c, 9, 37, 0
4, 188928, Note_on_c, 9, 44, 0
4, 188928, Note_on_c, 9, 51, 38
4, 189056, Note_on_c, 9, 51, 0
4, 189164, Note_on_c, 9, 40, 54
4, 189168, Note_on_c, 9, 35, 45
4, 189175, Note_on_c, 9, 37, 15
4, 189184, Note_on_c, 9, 51, 52
4, 189208, Note_on_c, 9, 37, 0
4, 189217, Note_on_c, 9, 40, 0
4, 189221, Note_on_c, 9, 35, 0
4, 189312, Note_on_c, 9, 51, 0
4, 189312, Note_on_c, 9, 51, 81
4, 189312, Note_on_c, 9, 44, 101
4, 189568, Note_on_c, 9, 51, 0
4, 189570, Note_on_c, 9, 35, 59
4, 189572, Note_on_c, 9, 40, 39
4, 189579, Note_on_c, 9, 37, 36
4, 189604, Note_on_c, 9, 40, 0
4, 189629, Note_on_c, 9, 37, 0
4, 189637, Note_on_c, 9, 35, 0
4, 189696, Note_on_c, 9, 44, 0
4, 189696, Note_on_c, 9, 51, 46
4, 189824, Note_on_c, 9, 51, 0
4, 189950, Note_on_c, 9, 40, 42
4, 189957, Note_on_c, 9, 35, 54
4, 189966, Note_on_c, 9, 37, 26
4, 189986, Note_on_c, 9, 40, 0
4, 189990, Note_on_c, 9, 37, 0
4, 190080, Note_on_c, 9, 51, 59
4, 190080, Note_on_c, 9, 44, 97
4, 190208, Note_on_c, 9, 51, 0
4, 190336, Note_on_c, 9, 53, 74
4, 190373, Note_on_c, 9, 35, 0
4, 190464, Note_on_c, 9, 53, 0
4, 190464, Note_on_c, 9, 44, 0
4, 190464, Note_on_c, 9, 51, 54
4, 190592, Note_on_c, 9, 51, 0
4, 190720, Note_on_c, 9, 53, 88
4, 190848, Note_on_c, 9, 53, 0
4, 190848, Note_on_c, 9, 51, 32
4, 190848, Note_on_c, 9, 44, 101
4, 191104, Note_on_c, 9, 51, 0
4, 191232, Note_on_c, 9, 44, 0
4, 191232, Note_on_c, 9, 51, 46
4, 191488, Note_on_c, 9, 51, 0
4, 191527, Note_on_c, 9, 31, 12
4, 191558, Note_on_c, 9, 31, 0
4, 191616, Note_on_c, 9, 51, 67
4, 191616, Note_on_c, 9, 46, 97
4, 191744, Note_on_c, 9, 51, 0
4, 191868, Note_on_c, 9, 31, 44
4, 191872, Note_on_c, 9, 51, 54
4, 191956, Note_on_c, 9, 31, 0
4, 192000, Note_on_c, 9, 51, 0
4, 192000, Note_on_c, 9, 46, 0
4, 192000, Note_on_c, 9, 51, 68
4, 192007, Note_on_c, 9, 35, 26
4, 192099, Note_on_c, 9, 35, 0
4, 192256, Note_on_c, 9, 51, 0
4, 192384, Note_on_c, 9, 51, 67
4, 192384, Note_on_c, 9, 44, 90
4, 192640, Note_on_c, 9, 51, 0
4, 192768, Note_on_c, 9, 44, 0
4, 192768, Note_on_c, 9, 51, 49
4, 192768, Note_on_c, 9, 51, 71
4, 192896, Note_on_c, 9, 51, 0
4, 193024, Note_on_c, 9, 51, 0
4, 193152, Note_on_c, 9, 51, 71
4, 193152, Note_on_c, 9, 44, 94
4, 193408, Note_on_c, 9, 51, 0
4, 193443, Note_on_c, 9, 35, 59
4, 193506, Note_on_c, 9, 35, 0
4, 193536, Note_on_c, 9, 44, 0
4, 193536, Note_on_c, 9, 51, 73
4, 193559, Note_on_c, 9, 35, 34
4, 193634, Note_on_c, 9, 35, 0
4, 193792, Note_on_c, 9, 51, 0
4, 193920, Note_on_c, 9, 51, 74
4, 193920, Note_on_c, 9, 44, 98
4, 194176, Note_on_c, 9, 51, 0
4, 194225, Note_on_c, 9, 35, 49
4, 194269, Note_on_c, 9, 35, 0
4, 194304, Note_on_c, 9, 44, 0
4, 194304, Note_on_c, 9, 51, 67
4, 194432, Note_on_c, 9, 51, 0
4, 194432, Note_on_c, 9, 51, 67
4, 194560, Note_on_c, 9, 51, 0
4, 194688, Note_on_c, 9, 51, 74
4, 194688, Note_on_c, 9, 44, 103
4, 194816, Note_on_c, 9, 51, 0
4, 194816, Note_on_c, 9, 51, 54
4, 194944, Note_on_c, 9, 51, 0
4, 195072, Note_on_c, 9, 44, 0
4, 195072, Note_on_c, 9, 51, 72
4, 195328, Note_on_c, 9, 51, 0
4, 195456, Note_on_c, 9, 51, 69
4, 195456, Note_on_c, 9, 44, 100
4, 195712, Note_on_c, 9, 51, 0
4, 195750, Note_on_c, 9, 35, 44
4, 195802, Note_on_c, 9, 35, 0
4, 195840, Note_on_c, 9, 44, 0
4, 195840, Note_on_c, 9, 51, 69
4, 195861, Note_on_c, 9, 35, 44
4, 195949, Note_on_c, 9, 35, 0
4, 196096, Note_on_c, 9, 51, 0
4, 196224, Note_on_c, 9, 51, 70
4, 196224, Note_on_c, 9, 44, 101
4, 196352, Note_on_c, 9, 51, 0
4, 196480, Note_on_c, 9, 51, 46
4, 196608, Note_on_c, 9, 51, 0
4, 196608, Note_on_c, 9, 44, 0
4, 196608, Note_on_c, 9, 51, 74
4, 196864, Note_on_c, 9, 51, 0
4, 196992, Note_on_c, 9, 51, 74
4, 196992, Note_on_c, 9, 44, 95
4, 197248, Note_on_c, 9, 51, 0
4, 197248, Note_on_c, 9, 51, 60
4, 197376, Note_on_c, 9, 51, 0
4, 197376, Note_on_c, 9, 44, 0
4, 197376, Note_on_c, 9, 51, 65
4, 197632, Note_on_c, 9, 51, 0
4, 197666, Note_on_c, 9, 40, 28
4, 197693, Note_on_c, 9, 40, 0
4, 197760, Note_on_c, 9, 51, 70
4, 197760, Note_on_c, 9, 44, 98
4, 197806, Note_on_c, 9, 40, 37
4, 197853, Note_on_c, 9, 40, 0
4, 198016, Note_on_c, 9, 51, 0
4, 198046, Note_on_c, 9, 40, 35
4, 198074, Note_on_c, 9, 40, 0
4, 198144, Note_on_c, 9, 44, 0
4, 198144, Note_on_c, 9, 51, 67
4, 198206, Note_on_c, 9, 35, 17
4, 198240, Note_on_c, 9, 35, 0
4, 198400, Note_on_c, 9, 51, 0
4, 198424, Note_on_c, 9, 35, 34
4, 198449, Note_on_c, 9, 35, 0
4, 198528, Note_on_c, 9, 51, 71
4, 198528, Note_on_c, 9, 44, 97
4, 198656, Note_on_c, 9, 51, 0
4, 198784, Note_on_c, 9, 51, 45
4, 198912, Note_on_c, 9, 51, 0
4, 198912, Note_on_c, 9, 44, 0
4, 198912, Note_on_c, 9, 51, 70
4, 199168, Note_on_c, 9, 51, 0
4, 199296, Note_on_c, 9, 51, 77
4, 199296, Note_on_c, 9, 44, 100
4, 199424, Note_on_c, 9, 51, 0
4, 199552, Note_on_c, 9, 51, 48
4, 199680, Note_on_c, 9, 51, 0
4, 199680, Note_on_c, 9, 44, 0
4, 199680, Note_on_c, 9, 51, 64
4, 199808, Note_on_c, 9, 51, 0
4, 199836, Note_on_c, 9, 40, 33
4, 199861, Note_on_c, 9, 40, 0
4, 199936, Note_on_c, 9, 51, 48
4, 199948, Note_on_c, 9, 40, 18
4, 199978, Note_on_c, 9, 40, 0
4, 200064, Note_on_c, 9, 51, 0
4, 200064, Note_on_c, 9, 51, 73
4, 200064, Note_on_c, 9, 44, 94
4, 200083, Note_on_c, 9, 35, 19
4, 200164, Note_on_c, 9, 35, 0
4, 200320, Note_on_c, 9, 51, 0
4, 200448, Note_on_c, 9, 44, 0
4, 200448, Note_on_c, 9, 51, 43
4, 200462, Note_on_c, 9, 40, 27
4, 200494, Note_on_c, 9, 40, 0
4, 200563, Note_on_c, 9, 40, 20
4, 200576, Note_on_c, 9, 51, 0
4, 200613, Note_on_c, 9, 40, 0
4, 200704, Note_on_c, 9, 51, 51
4, 200732, Note_on_c, 9, 35, 37
4, 200807, Note_on_c, 9, 35, 0
4, 200832, Note_on_c, 9, 51, 0
4, 200832, Note_on_c, 9, 51, 84
4, 200832, Note_on_c, 9, 44, 102
4, 201008, Note_on_c, 9, 40, 40
4, 201038, Note_on_c, 9, 40, 0
4, 201088, Note_on_c, 9, 51, 0
4, 201104, Note_on_c, 9, 40, 32
4, 201150, Note_on_c, 9, 40, 0
4, 201216, Note_on_c, 9, 44, 0
4, 201216, Note_on_c, 9, 51, 33
4, 201239, Note_on_c, 9, 35, 23
4, 201338, Note_on_c, 9, 35, 0
4, 201344, Note_on_c, 9, 51, 0
4, 201472, Note_on_c, 9, 51, 52
4, 201581, Note_on_c, 9, 40, 42
4, 201600, Note_on_c, 9, 51, 0
4, 201600, Note_on_c, 9, 51, 77
4, 201600, Note_on_c, 9, 44, 99
4, 201637, Note_on_c, 9, 40, 0
4, 201702, Note_on_c, 9, 40, 36
4, 201757, Note_on_c, 9, 40, 0
4, 201856, Note_on_c, 9, 51, 0
4, 201860, Note_on_c, 9, 35, 34
4, 201944, Note_on_c, 9, 35, 0
4, 201984, Note_on_c, 9, 44, 0
4, 201984, Note_on_c, 9, 51, 32
4, 202112, Note_on_c, 9, 51, 0
4, 202169, Note_on_c, 9, 40, 44
4, 202199, Note_on_c, 9, 40, 0
4, 202240, Note_on_c, 9, 51, 42
4, 202267, Note_on_c, 9, 40, 44
4, 202314, Note_on_c, 9, 40, 0
4, 202368, Note_on_c, 9, 51, 0
4, 202368, Note_on_c, 9, 51, 76
4, 202368, Note_on_c, 9, 44, 103
4, 202394, Note_on_c, 9, 35, 35
4, 202481, Note_on_c, 9, 35, 0
4, 202624, Note_on_c, 9, 51, 0
4, 202752, Note_on_c, 9, 44, 0
4, 202752, Note_on_c, 9, 51, 54
4, 202880, Note_on_c, 9, 51, 0
4, 203008, Note_on_c, 9, 51, 47
4, 203136, Note_on_c, 9, 51, 0
4, 203136, Note_on_c, 9, 51, 78
4, 203136, Note_on_c, 9, 44, 101
4, 203286, Note_on_c, 9, 40, 40
4, 203310, Note_on_c, 9, 40, 0
4, 203379, Note_on_c, 9, 40, 39
4, 203392, Note_on_c, 9, 51, 0
4, 203423, Note_on_c, 9, 40, 0
4, 203520, Note_on_c, 9, 44, 0
4, 203520, Note_on_c, 9, 51, 13
4, 203530, Note_on_c, 9, 35, 31
4, 203565, Note_on_c, 9, 35, 0
4, 203648, Note_on_c, 9, 51, 0
4, 203776, Note_on_c, 9, 51, 61
4, 203904, Note_on_c, 9, 51, 0
4, 203904, Note_on_c, 9, 51, 80
4, 203904, Note_on_c, 9, 44, 97
4, 203939, Note_on_c, 9, 40, 54
4, 203988, Note_on_c, 9, 40, 0
4, 204041, Note_on_c, 9, 40, 48
4, 204090, Note_on_c, 9, 40, 0
4, 204160, Note_on_c, 9, 51, 0
4, 204163, Note_on_c, 9, 35, 59
4, 204288, Note_on_c, 9, 44, 0
4, 204288, Note_on_c, 9, 51, 78
4, 204293, Note_on_c, 9, 35, 0
4, 204544, Note_on_c, 9, 51, 0
4, 204672, Note_on_c, 9, 51, 67
4, 204672, Note_on_c, 9, 44, 101
4, 204928, Note_on_c, 9, 51, 0
4, 204928, Note_on_c, 9, 51, 42
4, 205056, Note_on_c, 9, 51, 0
4, 205056, Note_on_c, 9, 44, 0
4, 205056, Note_on_c, 9, 51, 60
4, 205312, Note_on_c, 9, 51, 0
4, 205440, Note_on_c, 9, 51, 65
4, 205440, Note_on_c, 9, 46, 97
4, 205696, Note_on_c, 9, 51, 0
4, 205748, Note_on_c, 9, 35, 33
4, 205776, Note_on_c, 9, 35, 0
4, 205824, Note_on_c, 9, 46, 0
4, 205824, Note_on_c, 9, 51, 60
4, 205952, Note_on_c, 9, 51, 0
4, 206208, Note_on_c, 9, 51, 68
4, 206208, Note_on_c, 9, 44, 90
4, 206336, Note_on_c, 9, 51, 0
4, 206495, Note_on_c, 9, 35, 36
4, 206550, Note_on_c, 9, 35, 0
4, 206592, Note_on_c, 9, 44, 0
4, 206592, Note_on_c, 9, 51, 60
4, 206617, Note_on_c, 9, 35, 28
4, 206715, Note_on_c, 9, 35, 0
4, 206720, Note_on_c, 9, 51, 0
4, 206976, Note_on_c, 9, 51, 64
4, 206976, Note_on_c, 9, 44, 94
4, 207104, Note_on_c, 9, 51, 0
4, 207232, Note_on_c, 9, 51, 62
4, 207266, Note_on_c, 9, 35, 35
4, 207295, Note_on_c, 9, 35, 0
4, 207360, Note_on_c, 9, 51, 0
4, 207360, Note_on_c, 9, 44, 0
4, 207360, Note_on_c, 9, 51, 67
4, 207616, Note_on_c, 9, 51, 0
4, 207744, Note_on_c, 9, 51, 68
4, 207744, Note_on_c, 9, 44, 98
4, 207872, Note_on_c, 9, 51, 0
4, 208128, Note_on_c, 9, 44, 0
4, 208128, Note_on_c, 9, 51, 63
4, 208384, Note_on_c, 9, 51, 0
4, 208512, Note_on_c, 9, 51, 62
4, 208512, Note_on_c, 9, 44, 103
4, 208640, Note_on_c, 9, 51, 0
4, 208896, Note_on_c, 9, 44, 0
4, 208896, Note_on_c, 9, 51, 56
4, 208896, Note_on_c, 9, 51, 36
4, 209024, Note_on_c, 9, 51, 0
4, 209152, Note_on_c, 9, 51, 0
4, 209280, Note_on_c, 9, 51, 71
4, 209280, Note_on_c, 9, 44, 100
4, 209536, Note_on_c, 9, 51, 0
4, 209664, Note_on_c, 9, 44, 0
4, 209664, Note_on_c, 9, 51, 60
4, 209690, Note_on_c, 9, 40, 49
4, 209733, Note_on_c, 9, 40, 0
4, 209920, Note_on_c, 9, 51, 0
4, 210048, Note_on_c, 9, 51, 64
4, 210048, Note_on_c, 9, 44, 101
4, 210176, Note_on_c, 9, 51, 0
4, 210304, Note_on_c, 9, 51, 55
4, 210324, Note_on_c, 9, 40, 54
4, 210378, Note_on_c, 9, 40, 0
4, 210432, Note_on_c, 9, 51, 0
4, 210432, Note_on_c, 9, 44, 0
4, 210432, Note_on_c, 9, 51, 65
4, 210444, Note_on_c, 9, 35, 27
4, 210620, Note_on_c, 9, 35, 0
4, 210688, Note_on_c, 9, 51, 0
4, 210689, Note_on_c, 9, 35, 34
4, 210766, Note_on_c, 9, 35, 0
4, 210816, Note_on_c, 9, 51, 71
4, 210816, Note_on_c, 9, 44, 95
4, 211072, Note_on_c, 9, 51, 0
4, 211200, Note_on_c, 9, 44, 0
4, 211200, Note_on_c, 9, 51, 67
4, 211456, Note_on_c, 9, 51, 0
4, 211584, Note_on_c, 9, 51, 68
4, 211584, Note_on_c, 9, 44, 98
4, 211748, Note_on_c, 9, 40, 37
4, 211775, Note_on_c, 9, 40, 0
4, 211840, Note_on_c, 9, 51, 0
4, 211840, Note_on_c, 9, 51, 51
4, 211848, Note_on_c, 9, 37, 29
4, 211961, Note_on_c, 9, 37, 0
4, 211968, Note_on_c, 9, 51, 0
4, 211968, Note_on_c, 9, 44, 0
4, 211968, Note_on_c, 9, 51, 71
4, 211969, Note_on_c, 9, 35, 43
4, 212153, Note_on_c, 9, 35, 0
4, 212224, Note_on_c, 9, 51, 0
4, 212352, Note_on_c, 9, 51, 73
4, 212352, Note_on_c, 9, 44, 97
4, 212480, Note_on_c, 9, 51, 0
4, 212608, Note_on_c, 9, 51, 51
4, 212636, Note_on_c, 9, 35, 44
4, 212706, Note_on_c, 9, 35, 0
4, 212736, Note_on_c, 9, 51, 0
4, 212736, Note_on_c, 9, 44, 0
4, 212736, Note_on_c, 9, 51, 70
4, 212772, Note_on_c, 9, 35, 23
4, 212847, Note_on_c, 9, 35, 0
4, 212992, Note_on_c, 9, 51, 0
4, 213120, Note_on_c, 9, 51, 73
4, 213120, Note_on_c, 9, 44, 100
4, 213376, Note_on_c, 9, 51, 0
4, 213394, Note_on_c, 9, 35, 49
4, 213440, Note_on_c, 9, 35, 0
4, 213504, Note_on_c, 9, 44, 0
4, 213504, Note_on_c, 9, 51, 68
4, 213527, Note_on_c, 9, 35, 22
4, 213567, Note_on_c, 9, 35, 0
4, 213760, Note_on_c, 9, 51, 0
4, 213888, Note_on_c, 9, 51, 69
4, 213888, Note_on_c, 9, 44, 94
4, 214016, Note_on_c, 9, 51, 0
4, 214144, Note_on_c, 9, 51, 54
4, 214169, Note_on_c, 9, 35, 63
4, 214227, Note_on_c, 9, 35, 0
4, 214272, Note_on_c, 9, 51, 0
4, 214272, Note_on_c, 9, 44, 0
4, 214272, Note_on_c, 9, 51, 61
4, 214528, Note_on_c, 9, 51, 0
4, 214656, Note_on_c, 9, 51, 71
4, 214656, Note_on_c, 9, 44, 102
4, 214784, Note_on_c, 9, 51, 0
4, 214912, Note_on_c, 9, 51, 52
4, 214945, Note_on_c, 9, 35, 60
4, 214995, Note_on_c, 9, 35, 0
4, 215040, Note_on_c, 9, 51, 0
4, 215040, Note_on_c, 9, 44, 0
4, 215040, Note_on_c, 9, 51, 54
4, 215049, Note_on_c, 9, 35, 35
4, 215121, Note_on_c, 9, 35, 0
4, 215296, Note_on_c, 9, 51, 0
4, 215424, Note_on_c, 9, 51, 69
4, 215424, Note_on_c, 9, 44, 99
4, 215552, Note_on_c, 9, 51, 0
4, 215808, Note_on_c, 9, 44, 0
4, 215808, Note_on_c, 9, 51, 62
4, 215936, Note_on_c, 9, 51, 0
4, 216096, Note_on_c, 9, 40, 44
4, 216171, Note_on_c, 9, 40, 0
4, 216192, Note_on_c, 9, 51, 65
4, 216192, Note_on_c, 9, 44, 103
4, 216223, Note_on_c, 9, 37, 17
4, 216320, Note_on_c, 9, 51, 0
4, 216331, Note_on_c, 9, 37, 0
4, 216473, Note_on_c, 9, 35, 70
4, 216543, Note_on_c, 9, 35, 0
4, 216576, Note_on_c, 9, 44, 0
4, 216576, Note_on_c, 9, 51, 64
4, 216597, Note_on_c, 9, 35, 38
4, 216679, Note_on_c, 9, 35, 0
4, 216704, Note_on_c, 9, 51, 0
4, 216960, Note_on_c, 9, 51, 69
4, 216960, Note_on_c, 9, 44, 101
4, 217088, Note_on_c, 9, 51, 0
4, 217216, Note_on_c, 9, 51, 62
4, 217257, Note_on_c, 9, 35, 44
4, 217288, Note_on_c, 9, 35, 0
4, 217344, Note_on_c, 9, 51, 0
4, 217344, Note_on_c, 9, 44, 0
4, 217344, Note_on_c, 9, 51, 60
4, 217378, Note_on_c, 9, 35, 18
4, 217410, Note_on_c, 9, 35, 0
4, 217472, Note_on_c, 9, 51, 0
4, 217728, Note_on_c, 9, 51, 60
4, 217728, Note_on_c, 9, 44, 97
4, 217856, Note_on_c, 9, 51, 0
4, 217984, Note_on_c, 9, 51, 60
4, 218002, Note_on_c, 9, 40, 21
4, 218035, Note_on_c, 9, 40, 0
4, 218112, Note_on_c, 9, 51, 0
4, 218112, Note_on_c, 9, 44, 0
4, 218112, Note_on_c, 9, 51, 62
4, 218138, Note_on_c, 9, 40, 16
4, 218180, Note_on_c, 9, 40, 0
4, 218240, Note_on_c, 9, 51, 0
4, 218381, Note_on_c, 9, 40, 31
4, 218407, Note_on_c, 9, 40, 0
4, 218496, Note_on_c, 9, 51, 64
4, 218496, Note_on_c, 9, 44, 101
4, 218624, Note_on_c, 9, 51, 0
4, 218786, Note_on_c, 9, 35, 50
4, 218817, Note_on_c, 9, 35, 0
4, 218880, Note_on_c, 9, 44, 0
4, 218880, Note_on_c, 9, 51, 61
4, 218914, Note_on_c, 9, 35, 31
4, 219008, Note_on_c, 9, 51, 0
4, 219112, Note_on_c, 9, 35, 0
4, 219136, Note_on_c, 9, 51, 64
4, 219184, Note_on_c, 9, 35, 38
4, 219236, Note_on_c, 9, 35, 0
4, 219264, Note_on_c, 9, 51, 0
4, 219264, Note_on_c, 9, 51, 74
4, 219264, Note_on_c, 9, 46, 97
4, 219520, Note_on_c, 9, 51, 0
4, 219648, Note_on_c, 9, 46, 0
4, 219648, Note_on_c, 9, 51, 68
4, 219776, Note_on_c, 9, 51, 0
4, 220032, Note_on_c, 9, 51, 56
4, 220032, Note_on_c, 9, 44, 90
4, 220086, Note_on_c, 9, 35, 44
4, 220141, Note_on_c, 9, 35, 0
4, 220160, Note_on_c, 9, 51, 0
4, 220288, Note_on_c, 9, 51, 64
4, 220341, Note_on_c, 9, 35, 83
4, 220392, Note_on_c, 9, 35, 0
4, 220416, Note_on_c, 9, 51, 0
4, 220416, Note_on_c, 9, 44, 0
4, 220416, Note_on_c, 9, 51, 67
4, 220537, Note_on_c, 9, 35, 57
4, 220544, Note_on_c, 9, 51, 0
4, 220627, Note_on_c, 9, 35, 0
4, 220800, Note_on_c, 9, 51, 55
4, 220800, Note_on_c, 9, 44, 94
4, 220928, Note_on_c, 9, 51, 0
4, 221056, Note_on_c, 9, 51, 64
4, 221184, Note_on_c, 9, 51, 0
4, 221184, Note_on_c, 9, 44, 0
4, 221184, Note_on_c, 9, 51, 71
4, 221231, Note_on_c, 9, 40, 8
4, 221259, Note_on_c, 9, 40, 0
4, 221312, Note_on_c, 9, 51, 0
4, 221342, Note_on_c, 9, 40, 23
4, 221384, Note_on_c, 9, 40, 0
4, 221470, Note_on_c, 9, 35, 43
4, 221510, Note_on_c, 9, 35, 0
4, 221568, Note_on_c, 9, 44, 98
4, 221612, Note_on_c, 9, 40, 22
4, 221650, Note_on_c, 9, 40, 0
4, 221749, Note_on_c, 9, 40, 48
4, 221781, Note_on_c, 9, 40, 0
4, 221824, Note_on_c, 9, 51, 48
4, 221876, Note_on_c, 9, 35, 46
4, 221918, Note_on_c, 9, 35, 0
4, 221952, Note_on_c, 9, 51, 0
4, 221952, Note_on_c, 9, 44, 0
4, 221952, Note_on_c, 9, 51, 63
4, 222013, Note_on_c, 9, 40, 25
4, 222056, Note_on_c, 9, 40, 0
4, 222153, Note_on_c, 9, 40, 46
4, 222177, Note_on_c, 9, 40, 0
4, 222208, Note_on_c, 9, 51, 0
4, 222296, Note_on_c, 9, 35, 19
4, 222329, Note_on_c, 9, 35, 0
4, 222336, Note_on_c, 9, 51, 59
4, 222336, Note_on_c, 9, 44, 103
4, 222398, Note_on_c, 9, 40, 33
4, 222437, Note_on_c, 9, 40, 0
4, 222464, Note_on_c, 9, 51, 0
4, 222537, Note_on_c, 9, 40, 49
4, 222561, Note_on_c, 9, 40, 0
4, 222656, Note_on_c, 9, 35, 50
4, 222687, Note_on_c, 9, 35, 0
4, 222720, Note_on_c, 9, 44, 0
4, 222720, Note_on_c, 9, 51, 52
4, 222720, Note_on_c, 9, 51, 64
4, 222773, Note_on_c, 9, 40, 27
4, 222800, Note_on_c, 9, 40, 0
4, 222848, Note_on_c, 9, 51, 0
4, 222848, Note_on_c, 9, 51, 0
4, 223001, Note_on_c, 9, 35, 56
4, 223052, Note_on_c, 9, 35, 0
4, 223104, Note_on_c, 9, 51, 62
4, 223104, Note_on_c, 9, 44, 100
4, 223136, Note_on_c, 9, 35, 14
4, 223207, Note_on_c, 9, 35, 0
4, 223360, Note_on_c, 9, 51, 0
4, 223376, Note_on_c, 9, 35, 61
4, 223426, Note_on_c, 9, 35, 0
4, 223488, Note_on_c, 9, 44, 0
4, 223488, Note_on_c, 9, 51, 62
4, 223551, Note_on_c, 9, 35, 47
4, 223595, Note_on_c, 9, 35, 0
4, 223616, Note_on_c, 9, 51, 0
4, 223872, Note_on_c, 9, 51, 70
4, 223872, Note_on_c, 9, 44, 101
4, 224000, Note_on_c, 9, 51, 0
4, 224128, Note_on_c, 9, 51, 53
4, 224153, Note_on_c, 9, 37, 34
4, 224204, Note_on_c, 9, 37, 0
4, 224256, Note_on_c, 9, 51, 0
4, 224256, Note_on_c, 9, 44, 0
4, 224256, Note_on_c, 9, 51, 51
4, 224283, Note_on_c, 9, 35, 32
4, 224367, Note_on_c, 9, 35, 0
4, 224512, Note_on_c, 9, 51, 0
4, 224640, Note_on_c, 9, 51, 64
4, 224640, Note_on_c, 9, 44, 95
4, 224768, Note_on_c, 9, 51, 0
4, 225024, Note_on_c, 9, 44, 0
4, 225024, Note_on_c, 9, 51, 58
4, 225152, Note_on_c, 9, 51, 0
4, 225312, Note_on_c, 9, 35, 42
4, 225382, Note_on_c, 9, 35, 0
4, 225408, Note_on_c, 9, 51, 67
4, 225408, Note_on_c, 9, 44, 98
4, 225454, Note_on_c, 9, 37, 30
4, 225480, Note_on_c, 9, 37, 0
4, 225536, Note_on_c, 9, 51, 0
4, 225664, Note_on_c, 9, 51, 37
4, 225674, Note_on_c, 9, 37, 62
4, 225701, Note_on_c, 9, 57, 48
4, 225730, Note_on_c, 9, 57, 0
4, 225786, Note_on_c, 9, 37, 0
4, 225792, Note_on_c, 9, 51, 0
4, 225792, Note_on_c, 9, 44, 0
4, 225792, Note_on_c, 9, 51, 60
4, 225809, Note_on_c, 9, 35, 32
4, 225883, Note_on_c, 9, 35, 0
4, 225920, Note_on_c, 9, 51, 0
4, 226176, Note_on_c, 9, 51, 70
4, 226176, Note_on_c, 9, 44, 97
4, 226304, Note_on_c, 9, 51, 0
4, 226474, Note_on_c, 9, 35, 38
4, 226508, Note_on_c, 9, 35, 0
4, 226560, Note_on_c, 9, 44, 0
4, 226560, Note_on_c, 9, 51, 71
4, 226589, Note_on_c, 9, 35, 22
4, 226636, Note_on_c, 9, 35, 0
4, 226688, Note_on_c, 9, 51, 0
4, 226944, Note_on_c, 9, 51, 46
4, 226944, Note_on_c, 9, 51, 56
4, 226944, Note_on_c, 9, 44, 100
4, 227072, Note_on_c, 9, 51, 0
4, 227072, Note_on_c, 9, 51, 0
4, 227200, Note_on_c, 9, 51, 83
4, 227238, Note_on_c, 9, 37, 32
4, 227313, Note_on_c, 9, 37, 0
4, 227328, Note_on_c, 9, 44, 0
4, 227373, Note_on_c, 9, 35, 4
4, 227456, Note_on_c, 9, 51, 0
4, 227487, Note_on_c, 9, 35, 0
4, 227584, Note_on_c, 9, 51, 46
4, 227602, Note_on_c, 9, 35, 31
4, 227638, Note_on_c, 9, 35, 0
4, 227712, Note_on_c, 9, 51, 0
4, 227712, Note_on_c, 9, 51, 50
4, 227712, Note_on_c, 9, 44, 94
4, 227840, Note_on_c, 9, 51, 0
4, 227968, Note_on_c, 9, 51, 83
4, 228096, Note_on_c, 9, 44, 0
4, 228224, Note_on_c, 9, 51, 0
4, 228352, Note_on_c, 9, 51, 57
4, 228397, Note_on_c, 9, 35, 9
4, 228425, Note_on_c, 9, 35, 0
4, 228480, Note_on_c, 9, 51, 0
4, 228480, Note_on_c, 9, 51, 65
4, 228480, Note_on_c, 9, 44, 102
4, 228608, Note_on_c, 9, 51, 0
4, 228736, Note_on_c, 9, 51, 83
4, 228759, Note_on_c, 9, 35, 33
4, 228792, Note_on_c, 9, 35, 0
4, 228864, Note_on_c, 9, 44, 0
4, 228898, Note_on_c, 9, 35, 6
4, 228924, Note_on_c, 9, 35, 0
4, 228992, Note_on_c, 9, 51, 0
4, 229248, Note_on_c, 9, 51, 62
4, 229248, Note_on_c, 9, 44, 99
4, 229376, Note_on_c, 9, 51, 0
4, 229504, Note_on_c, 9, 51, 47
4, 229538, Note_on_c, 9, 35, 38
4, 229568, Note_on_c, 9, 35, 0
4, 229632, Note_on_c, 9, 51, 0
4, 229632, Note_on_c, 9, 44, 0
4, 229632, Note_on_c, 9, 51, 45
4, 229651, Note_on_c, 9, 35, 20
4, 229691, Note_on_c, 9, 35, 0
4, 229888, Note_on_c, 9, 51, 0
4, 230016, Note_on_c, 9, 51, 62
4, 230016, Note_on_c, 9, 44, 103
4, 230144, Note_on_c, 9, 51, 0
4, 230272, Note_on_c, 9, 51, 55
4, 230289, Note_on_c, 9, 35, 44
4, 230322, Note_on_c, 9, 35, 0
4, 230400, Note_on_c, 9, 51, 0
4, 230400, Note_on_c, 9, 44, 0
4, 230400, Note_on_c, 9, 51, 55
4, 230409, Note_on_c, 9, 35, 38
4, 230469, Note_on_c, 9, 35, 0
4, 230528, Note_on_c, 9, 51, 0
4, 230784, Note_on_c, 9, 51, 31
4, 230784, Note_on_c, 9, 44, 101
4, 230912, Note_on_c, 9, 51, 0
4, 231040, Note_on_c, 9, 51, 54
4, 231052, Note_on_c, 9, 35, 26
4, 231082, Note_on_c, 9, 35, 0
4, 231168, Note_on_c, 9, 51, 0
4, 231168, Note_on_c, 9, 44, 0
4, 231168, Note_on_c, 9, 51, 56
4, 231209, Note_on_c, 9, 35, 1
4, 231250, Note_on_c, 9, 35, 0
4, 231296, Note_on_c, 9, 51, 0
4, 231552, Note_on_c, 9, 51, 54
4, 231552, Note_on_c, 9, 44, 97
4, 231680, Note_on_c, 9, 51, 0
4, 231808, Note_on_c, 9, 51, 40
4, 231809, Note_on_c, 9, 40, 31
4, 231836, Note_on_c, 9, 40, 0
4, 231935, Note_on_c, 9, 35, 24
4, 231936, Note_on_c, 9, 51, 0
4, 231936, Note_on_c, 9, 44, 0
4, 231936, Note_on_c, 9, 53, 81
4, 231973, Note_on_c, 9, 35, 0
4, 232064, Note_on_c, 9, 53, 0
4, 232202, Note_on_c, 9, 35, 24
4, 232236, Note_on_c, 9, 35, 0
4, 232320, Note_on_c, 9, 44, 101
4, 232638, Note_on_c, 9, 40, 22
4, 232668, Note_on_c, 9, 40, 0
4, 232704, Note_on_c, 9, 44, 0
4, 232704, Note_on_c, 9, 53, 52
4, 232704, Note_on_c, 9, 53, 61
4, 232753, Note_on_c, 9, 35, 29
4, 232791, Note_on_c, 9, 35, 0
4, 232832, Note_on_c, 9, 53, 0
4, 232832, Note_on_c, 9, 53, 0
4, 232991, Note_on_c, 9, 35, 36
4, 233023, Note_on_c, 9, 35, 0
4, 233088, Note_on_c, 9, 46, 97
4, 233344, Note_on_c, 9, 53, 58
4, 233472, Note_on_c, 9, 53, 0
4, 233472, Note_on_c, 9, 46, 0
4, 233472, Note_on_c, 9, 53, 59
4, 233477, Note_on_c, 9, 35, 27
4, 233516, Note_on_c, 9, 35, 0
4, 233600, Note_on_c, 9, 53, 0
4, 233856, Note_on_c, 9, 44, 90
4, 234112, Note_on_c, 9, 53, 51
4, 234112, Note_on_c, 9, 35, 37
4, 234165, Note_on_c, 9, 35, 0
4, 234226, Note_on_c, 9, 35, 20
4, 234240, Note_on_c, 9, 53, 0
4, 234240, Note_on_c, 9, 44, 0
4, 234240, Note_on_c, 9, 53, 62
4, 234279, Note_on_c, 9, 35, 0
4, 234368, Note_on_c, 9, 53, 0
4, 234496, Note_on_c, 9, 51, 61
4, 234624, Note_on_c, 9, 51, 0
4, 234624, Note_on_c, 9, 44, 94
4, 234865, Note_on_c, 9, 35, 44
4, 234880, Note_on_c, 9, 53, 59
4, 234894, Note_on_c, 9, 35, 0
4, 235008, Note_on_c, 9, 53, 0
4, 235008, Note_on_c, 9, 44, 0
4, 235008, Note_on_c, 9, 53, 64
4, 235136, Note_on_c, 9, 53, 0
4, 235392, Note_on_c, 9, 44, 98
4, 235635, Note_on_c, 9, 35, 60
4, 235648, Note_on_c, 9, 53, 61
4, 235706, Note_on_c, 9, 35, 0
4, 235762, Note_on_c, 9, 35, 35
4, 235776, Note_on_c, 9, 53, 0
4, 235776, Note_on_c, 9, 44, 0
4, 235776, Note_on_c, 9, 53, 55
4, 235841, Note_on_c, 9, 35, 0
4, 235904, Note_on_c, 9, 53, 0
4, 236160, Note_on_c, 9, 44, 103
4, 236416, Note_on_c, 9, 53, 47
4, 236443, Note_on_c, 9, 35, 28
4, 236474, Note_on_c, 9, 35, 0
4, 236544, Note_on_c, 9, 53, 0
4, 236544, Note_on_c, 9, 44, 0
4, 236544, Note_on_c, 9, 53, 66
4, 236566, Note_on_c, 9, 35, 28
4, 236630, Note_on_c, 9, 35, 0
4, 236672, Note_on_c, 9, 53, 0
4, 236928, Note_on_c, 9, 44, 100
4, 237175, Note_on_c, 9, 35, 41
4, 237184, Note_on_c, 9, 53, 64
4, 237227, Note_on_c, 9, 35, 0
4, 237312, Note_on_c, 9, 53, 0
4, 237312, Note_on_c, 9, 44, 0
4, 237312, Note_on_c, 9, 53, 60
4, 237320, Note_on_c, 9, 35, 22
4, 237354, Note_on_c, 9, 35, 0
4, 237440, Note_on_c, 9, 53, 0
4, 237563, Note_on_c, 9, 37, 54
4, 237608, Note_on_c, 9, 37, 0
4, 237696, Note_on_c, 9, 44, 101
4, 237701, Note_on_c, 9, 35, 17
4, 237736, Note_on_c, 9, 35, 0
4, 237946, Note_on_c, 9, 35, 37
4, 237952, Note_on_c, 9, 53, 62
4, 237990, Note_on_c, 9, 35, 0
4, 238078, Note_on_c, 9, 35, 39
4, 238080, Note_on_c, 9, 53, 0
4, 238080, Note_on_c, 9, 44, 0
4, 238080, Note_on_c, 9, 53, 60
4, 238146, Note_on_c, 9, 35, 0
4, 238208, Note_on_c, 9, 53, 0
4, 238464, Note_on_c, 9, 44, 95
4, 238704, Note_on_c, 9, 35, 34
4, 238720, Note_on_c, 9, 53, 53
4, 238736, Note_on_c, 9, 35, 0
4, 238848, Note_on_c, 9, 53, 0
4, 238848, Note_on_c, 9, 44, 0
4, 238848, Note_on_c, 9, 53, 58
4, 238976, Note_on_c, 9, 53, 0
4, 239232, Note_on_c, 9, 44, 98
4, 239488, Note_on_c, 9, 53, 55
4, 239497, Note_on_c, 9, 35, 10
4, 239530, Note_on_c, 9, 35, 0
4, 239602, Note_on_c, 9, 35, 16
4, 239616, Note_on_c, 9, 53, 0
4, 239616, Note_on_c, 9, 44, 0
4, 239616, Note_on_c, 9, 53, 62
4, 239665, Note_on_c, 9, 35, 0
4, 239744, Note_on_c, 9, 53, 0
4, 240000, Note_on_c, 9, 44, 97
4, 240253, Note_on_c, 9, 37, 26
4, 240256, Note_on_c, 9, 53, 55
4, 240286, Note_on_c, 9, 37, 0
4, 240384, Note_on_c, 9, 53, 0
4, 240384, Note_on_c, 9, 44, 0
4, 240384, Note_on_c, 9, 53, 61
4, 240388, Note_on_c, 9, 37, 40
4, 240440, Note_on_c, 9, 37, 0
4, 240512, Note_on_c, 9, 53, 0
4, 240525, Note_on_c, 9, 35, 29
4, 240562, Note_on_c, 9, 35, 0
4, 240640, Note_on_c, 9, 53, 77
4, 240768, Note_on_c, 9, 53, 0
4, 240768, Note_on_c, 9, 44, 100
4, 241012, Note_on_c, 9, 37, 37
4, 241024, Note_on_c, 9, 53, 53
4, 241054, Note_on_c, 9, 37, 0
4, 241142, Note_on_c, 9, 35, 34
4, 241152, Note_on_c, 9, 53, 0
4, 241152, Note_on_c, 9, 44, 0
4, 241152, Note_on_c, 9, 53, 60
4, 241196, Note_on_c, 9, 35, 0
4, 241280, Note_on_c, 9, 53, 0
4, 241387, Note_on_c, 9, 35, 33
4, 241439, Note_on_c, 9, 35, 0
4, 241536, Note_on_c, 9, 44, 94
4, 241772, Note_on_c, 9, 37, 14
4, 241792, Note_on_c, 9, 53, 56
4, 241804, Note_on_c, 9, 37, 0
4, 241907, Note_on_c, 9, 35, 13
4, 241920, Note_on_c, 9, 53, 0
4, 241920, Note_on_c, 9, 44, 0
4, 241920, Note_on_c, 9, 53, 52
4, 241950, Note_on_c, 9, 35, 0
4, 242048, Note_on_c, 9, 53, 0
4, 242304, Note_on_c, 9, 44, 102
4, 242533, Note_on_c, 9, 37, 12
4, 242560, Note_on_c, 9, 53, 57
4, 242565, Note_on_c, 9, 37, 0
4, 242672, Note_on_c, 9, 35, 13
4, 242688, Note_on_c, 9, 53, 0
4, 242688, Note_on_c, 9, 44, 0
4, 242688, Note_on_c, 9, 53, 54
4, 242712, Note_on_c, 9, 35, 0
4, 242816, Note_on_c, 9, 53, 0
4, 242944, Note_on_c, 9, 51, 58
4, 243072, Note_on_c, 9, 51, 0
4, 243072, Note_on_c, 9, 44, 99
4, 243328, Note_on_c, 9, 51, 67
4, 243441, Note_on_c, 9, 35, 11
4, 243456, Note_on_c, 9, 51, 0
4, 243456, Note_on_c, 9, 44, 0
4, 243501, Note_on_c, 9, 35, 0
4, 243712, Note_on_c, 9, 51, 68
4, 243840, Note_on_c, 9, 51, 0
4, 243840, Note_on_c, 9, 44, 103
4, 244072, Note_on_c, 9, 37, 3
4, 244096, Note_on_c, 9, 51, 55
4, 244103, Note_on_c, 9, 37, 0
4, 244209, Note_on_c, 9, 35, 12
4, 244224, Note_on_c, 9, 51, 0
4, 244224, Note_on_c, 9, 44, 0
4, 244224, Note_on_c, 9, 53, 54
4, 244255, Note_on_c, 9, 35, 0
4, 244352, Note_on_c, 9, 53, 0
4, 244608, Note_on_c, 9, 44, 101
4, 244842, Note_on_c, 9, 37, 9
4, 244864, Note_on_c, 9, 51, 30
4, 244875, Note_on_c, 9, 37, 0
4, 244986, Note_on_c, 9, 35, 17
4, 244992, Note_on_c, 9, 51, 0
4, 244992, Note_on_c, 9, 44, 0
4, 244992, Note_on_c, 9, 51, 38
4, 245028, Note_on_c, 9, 35, 0
4, 245120, Note_on_c, 9, 51, 0
4, 245376, Note_on_c, 9, 44, 97
4, 245605, Note_on_c, 9, 37, 5
4, 245632, Note_on_c, 9, 51, 53
4, 245639, Note_on_c, 9, 37, 0
4, 245760, Note_on_c, 9, 51, 0
4, 245760, Note_on_c, 9, 44, 0
4, 245760, Note_on_c, 9, 51, 44
4, 245888, Note_on_c, 9, 51, 0
4, 246144, Note_on_c, 9, 44, 101
4, 246382, Note_on_c, 9, 37, 8
4, 246400, Note_on_c, 9, 51, 51
4, 246413, Note_on_c, 9, 37, 0
4, 246516, Note_on_c, 9, 35, 16
4, 246528, Note_on_c, 9, 51, 0
4, 246528, Note_on_c, 9, 44, 0
4, 246528, Note_on_c, 9, 51, 39
4, 246553, Note_on_c, 9, 35, 0
4, 246656, Note_on_c, 9, 51, 0
4, 246912, Note_on_c, 9, 46, 97
4, 247168, Note_on_c, 9, 51, 48
4, 247264, Note_on_c, 9, 35, 9
4, 247296, Note_on_c, 9, 51, 0
4, 247296, Note_on_c, 9, 46, 0
4, 247296, Note_on_c, 9, 51, 38
4, 247309, Note_on_c, 9, 35, 0
4, 247424, Note_on_c, 9, 51, 0
4, 247680, Note_on_c, 9, 44, 90
4, 247913, Note_on_c, 9, 37, 15
4, 247936, Note_on_c, 9, 51, 36
4, 247993, Note_on_c, 9, 37, 0
4, 248064, Note_on_c, 9, 51, 0
4, 248064, Note_on_c, 9, 44, 0
4, 248064, Note_on_c, 9, 51, 19
4, 248067, Note_on_c, 9, 35, 15
4, 248116, Note_on_c, 9, 35, 0
4, 248192, Note_on_c, 9, 51, 0
4, 248448, Note_on_c, 9, 44, 94
4, 248664, Note_on_c, 9, 37, 14
4, 248704, Note_on_c, 9, 51, 45
4, 248741, Note_on_c, 9, 37, 0
4, 248825, Note_on_c, 9, 35, 4
4, 248832, Note_on_c, 9, 51, 0
4, 248832, Note_on_c, 9, 44, 0
4, 248832, Note_on_c, 9, 51, 40
4, 248873, Note_on_c, 9, 35, 0
4, 248960, Note_on_c, 9, 51, 0
4, 249216, Note_on_c, 9, 44, 98
4, 249446, Note_on_c, 9, 37, 9
4, 249472, Note_on_c, 9, 51, 52
4, 249516, Note_on_c, 9, 37, 0
4, 249578, Note_on_c, 9, 35, 18
4, 249600, Note_on_c, 9, 51, 0
4, 249600, Note_on_c, 9, 44, 0
4, 249600, Note_on_c, 9, 51, 36
4, 249634, Note_on_c, 9, 35, 0
4, 249728, Note_on_c, 9, 51, 0
4, 249984, Note_on_c, 9, 44, 103
4, 250208, Note_on_c, 9, 37, 12
4, 250240, Note_on_c, 9, 51, 38
4, 250277, Note_on_c, 9, 37, 0
4, 250362, Note_on_c, 9, 35, 6
4, 250368, Note_on_c, 9, 51, 0
4, 250368, Note_on_c, 9, 44, 0
4, 250368, Note_on_c, 9, 51, 42
4, 250414, Note_on_c, 9, 35, 0
4, 250496, Note_on_c, 9, 51, 0
4, 250752, Note_on_c, 9, 44, 100
4, 250985, Note_on_c, 9, 37, 16
4, 251008, Note_on_c, 9, 51, 35
4, 251082, Note_on_c, 9, 37, 0
4, 251136, Note_on_c, 9, 51, 0
4, 251136, Note_on_c, 9, 44, 0
4, 251136, Note_on_c, 9, 51, 29
4, 251139, Note_on_c, 9, 35, 14
4, 251189, Note_on_c, 9, 35, 0
4, 251264, Note_on_c, 9, 51, 0
4, 251520, Note_on_c, 9, 44, 101
4, 251744, Note_on_c, 9, 37, 9
4, 251776, Note_on_c, 9, 51, 31
4, 251833, Note_on_c, 9, 37, 0
4, 251895, Note_on_c, 9, 35, 6
4, 251904, Note_on_c, 9, 51, 0
4, 251904, Note_on_c, 9, 44, 0
4, 251904, Note_on_c, 9, 51, 35
4, 251952, Note_on_c, 9, 35, 0
4, 252032, Note_on_c, 9, 51, 0
4, 252288, Note_on_c, 9, 44, 95
4, 252505, Note_on_c, 9, 37, 11
4, 252544, Note_on_c, 9, 51, 37
4, 252583, Note_on_c, 9, 37, 0
4, 252668, Note_on_c, 9, 35, 5
4, 252672, Note_on_c, 9, 51, 0
4, 252672, Note_on_c, 9, 44, 0
4, 252672, Note_on_c, 9, 51, 31
4, 252717, Note_on_c, 9, 35, 0
4, 252800, Note_on_c, 9, 51, 0
4, 253056, Note_on_c, 9, 44, 98
4, 253275, Note_on_c, 9, 37, 1
4, 253312, Note_on_c, 9, 51, 29
4, 253384, Note_on_c, 9, 37, 0
4, 253425, Note_on_c, 9, 35, 13
4, 253440, Note_on_c, 9, 51, 0
4, 253440, Note_on_c, 9, 44, 0
4, 253440, Note_on_c, 9, 51, 34
4, 253492, Note_on_c, 9, 35, 0
4, 253568, Note_on_c, 9, 51, 0
4, 253824, Note_on_c, 9, 44, 97
4, 254208, Note_on_c, 9, 44, 0
4, 254592, Note_on_c, 9, 44, 100
4, 254976, Note_on_c, 9, 44, 0
4, 254976, End_track
5, 0, Start_track
5, 0, Title_t, ""
5, 0, Program_c, 0, 0
5, 0, Control_c, 0, 7, 115
5, 0, Control_c, 0, 11, 127
5, 0, Control_c, 0, 64, 0
5, 0, Control_c, 0, 67, 0
5, 0, Pitch_bend_c, 0, 8192
5, 1392, Note_on_c, 0, 45, 60
5, 1400, Note_on_c, 0, 57, 78
5, 1480, Note_on_c, 0, 57, 0
5, 1504, Note_on_c, 0, 45, 0
5, 1544, Note_on_c, 0, 44, 49
5, 1552, Note_on_c, 0, 56, 52
5, 1744, Note_on_c, 0, 44, 0
5, 1776, Note_on_c, 0, 56, 0
5, 1800, Note_on_c, 0, 37, 62
5, 1808, Note_on_c, 0, 49, 44
5, 1832, Note_on_c, 0, 49, 0
5, 1848, Note_on_c, 0, 37, 0
5, 2176, Note_on_c, 0, 64, 81
5, 2184, Note_on_c, 0, 59, 72
5, 2184, Note_on_c, 0, 53, 83
5, 2680, Note_on_c, 0, 64, 0
5, 2680, Control_c, 0, 64, 127
5, 2696, Note_on_c, 0, 59, 0
5, 2896, Note_on_c, 0, 53, 0
5, 2944, Note_on_c, 0, 45, 59
5, 2944, Note_on_c, 0, 57, 72
5, 2984, Control_c, 0, 64, 0
5, 3040, Note_on_c, 0, 57, 0
5, 3072, Note_on_c, 0, 45, 0
5, 3096, Note_on_c, 0, 56, 55
5, 3096, Note_on_c, 0, 44, 43
5, 3312, Note_on_c, 0, 56, 0
5, 3320, Note_on_c, 0, 49, 62
5, 3328, Note_on_c, 0, 44, 0
5, 3328, Note_on_c, 0, 37, 54
5, 3384, Note_on_c, 0, 49, 0
5, 3704, Note_on_c, 0, 57, 82
5, 3720, Note_on_c, 0, 45, 50
5, 3792, Note_on_c, 0, 57, 0
5, 3808, Note_on_c, 0, 45, 0
5, 3816, Note_on_c, 0, 37, 0
5, 3856, Note_on_c, 0, 44, 42
5, 3880, Note_on_c, 0, 56, 34
5, 4096, Note_on_c, 0, 56, 0
5, 4096, Note_on_c, 0, 37, 53
5, 4096, Note_on_c, 0, 49, 56
5, 4128, Note_on_c, 0, 49, 0
5, 4136, Note_on_c, 0, 44, 0
5, 4472, Note_on_c, 0, 56, 83
5, 4472, Note_on_c, 0, 44, 47
5, 4544, Note_on_c, 0, 44, 0
5, 4552, Note_on_c, 0, 37, 0
5, 4592, Note_on_c, 0, 56, 0
5, 4592, Note_on_c, 0, 43, 51
5, 4624, Note_on_c, 0, 55, 50
5, 4808, Note_on_c, 0, 55, 0
5, 4832, Note_on_c, 0, 43, 0
5, 4856, Note_on_c, 0, 36, 60
5, 5256, Note_on_c, 0, 58, 83
5, 5256, Note_on_c, 0, 63, 83
5, 5264, Note_on_c, 0, 52, 92
5, 5640, Control_c, 0, 64, 127
5, 5704, Note_on_c, 0, 63, 0
5, 5720, Note_on_c, 0, 58, 0
5, 5912, Note_on_c, 0, 52, 0
5, 6008, Note_on_c, 0, 56, 80
5, 6008, Note_on_c, 0, 44, 55
5, 6048, Control_c, 0, 64, 0
5, 6120, Note_on_c, 0, 44, 0
5, 6136, Note_on_c, 0, 36, 0
5, 6144, Note_on_c, 0, 56, 0
5, 6144, Note_on_c, 0, 43, 44
5, 6176, Note_on_c, 0, 55, 50
5, 6360, Note_on_c, 0, 55, 0
5, 6392, Note_on_c, 0, 48, 64
5, 6408, Note_on_c, 0, 36, 65
5, 6416, Note_on_c, 0, 48, 0
5, 6416, Note_on_c, 0, 43, 0
5, 6776, Note_on_c, 0, 56, 83
5, 6776, Note_on_c, 0, 44, 51
5, 6872, Note_on_c, 0, 44, 0
5, 6888, Note_on_c, 0, 56, 0
5, 6912, Note_on_c, 0, 36, 0
5, 6912, Note_on_c, 0, 43, 54
5, 6936, Note_on_c, 0, 55, 58
5, 7144, Note_on_c, 0, 55, 0
5, 7152, Note_on_c, 0, 48, 62
5, 7176, Note_on_c, 0, 36, 63
5, 7184, Note_on_c, 0, 48, 0
5, 7200, Note_on_c, 0, 43, 0
5, 7512, Note_on_c, 0, 57, 101
5, 7528, Note_on_c, 0, 45, 57
5, 7544, Note_on_c, 0, 36, 0
5, 7648, Note_on_c, 0, 45, 0
5, 7648, Note_on_c, 0, 44, 54
5, 7656, Note_on_c, 0, 56, 60
5, 7664, Note_on_c, 0, 57, 0
5, 7872, Note_on_c, 0, 56, 0
5, 7896, Note_on_c, 0, 37, 71
5, 7904, Note_on_c, 0, 44, 0
5, 7904, Note_on_c, 0, 49, 56
5, 7928, Note_on_c, 0, 49, 0
5, 8312, Note_on_c, 0, 64, 80
5, 8312, Note_on_c, 0, 59, 80
5, 8320, Note_on_c, 0, 53, 84
5, 8848, Note_on_c, 0, 64, 0
5, 8864, Note_on_c, 0, 59, 0
5, 9000, Note_on_c, 0, 53, 0
5, 9056, Note_on_c, 0, 44, 43
5, 9088, Note_on_c, 0, 57, 71
5, 9120, Note_on_c, 0, 45, 64
5, 9128, Note_on_c, 0, 44, 0
5, 9184, Note_on_c, 0, 37, 0
5, 9224, Note_on_c, 0, 57, 0
5, 9240, Note_on_c, 0, 56, 59
5, 9296, Note_on_c, 0, 44, 45
5, 9312, Note_on_c, 0, 45, 0
5, 9416, Note_on_c, 0, 56, 0
5, 9464, Note_on_c, 0, 44, 0
5, 9464, Note_on_c, 0, 49, 64
5, 9480, Note_on_c, 0, 37, 62
5, 9520, Note_on_c, 0, 49, 0
5, 9800, Note_on_c, 0, 44, 43
5, 9808, Note_on_c, 0, 57, 80
5, 9824, Note_on_c, 0, 56, 29
5, 9840, Note_on_c, 0, 45, 55
5, 9856, Note_on_c, 0, 56, 0
5, 9856, Note_on_c, 0, 44, 0
5, 9928, Note_on_c, 0, 37, 0
5, 9944, Note_on_c, 0, 57, 0
5, 9976, Note_on_c, 0, 56, 62
5, 9992, Note_on_c, 0, 44, 48
5, 10000, Note_on_c, 0, 45, 0
5, 10208, Note_on_c, 0, 49, 60
5, 10224, Note_on_c, 0, 37, 60
5, 10240, Note_on_c, 0, 49, 0
5, 10264, Note_on_c, 0, 56, 0
5, 10264, Note_on_c, 0, 44, 0
5, 10584, Note_on_c, 0, 56, 81
5, 10584, Note_on_c, 0, 44, 56
5, 10648, Note_on_c, 0, 37, 0
5, 10688, Note_on_c, 0, 44, 0
5, 10688, Note_on_c, 0, 56, 0
5, 10704, Note_on_c, 0, 43, 60
5, 10744, Note_on_c, 0, 55, 54
5, 10960, Note_on_c, 0, 55, 0
5, 10984, Note_on_c, 0, 36, 72
5, 10984, Note_on_c, 0, 48, 69
5, 10992, Note_on_c, 0, 43, 0
5, 11040, Note_on_c, 0, 48, 0
5, 11392, Note_on_c, 0, 58, 86
5, 11392, Note_on_c, 0, 63, 85
5, 11400, Note_on_c, 0, 52, 95
5, 11904, Note_on_c, 0, 63, 0
5, 11912, Control_c, 0, 64, 127
5, 11920, Note_on_c, 0, 58, 0
5, 11928, Note_on_c, 0, 56, 26
5, 11936, Control_c, 0, 64, 0
5, 12032, Note_on_c, 0, 52, 0
5, 12048, Note_on_c, 0, 56, 0
5, 12048, Control_c, 0, 64, 127
5, 12056, Control_c, 0, 64, 0
5, 12152, Note_on_c, 0, 44, 62
5, 12160, Note_on_c, 0, 56, 77
5, 12248, Note_on_c, 0, 56, 0
5, 12272, Note_on_c, 0, 44, 0
5, 12296, Note_on_c, 0, 36, 0
5, 12296, Note_on_c, 0, 43, 55
5, 12320, Note_on_c, 0, 55, 33
5, 12504, Note_on_c, 0, 55, 0
5, 12536, Note_on_c, 0, 48, 68
5, 12560, Note_on_c, 0, 36, 65
5, 12568, Note_on_c, 0, 48, 0
5, 12576, Note_on_c, 0, 43, 0
5, 12928, Note_on_c, 0, 56, 90
5, 12936, Note_on_c, 0, 44, 73
5, 13008, Note_on_c, 0, 44, 0
5, 13040, Note_on_c, 0, 56, 0
5, 13072, Note_on_c, 0, 55, 71
5, 13096, Note_on_c, 0, 43, 57
5, 13136, Note_on_c, 0, 36, 0
5, 13160, Note_on_c, 0, 55, 0
5, 13200, Control_c, 0, 64, 127
5, 13248, Control_c, 0, 64, 0
5, 13256, Note_on_c, 0, 43, 0
5, 13296, Note_on_c, 0, 48, 71
5, 13336, Note_on_c, 0, 48, 0
5, 13360, Note_on_c, 0, 46, 57
5, 13384, Note_on_c, 0, 46, 0
5, 13392, Note_on_c, 0, 47, 49
5, 13440, Note_on_c, 0, 47, 0
5, 13472, Note_on_c, 0, 48, 59
5, 13496, Note_on_c, 0, 48, 0
5, 13528, Note_on_c, 0, 50, 47
5, 13560, Note_on_c, 0, 50, 0
5, 13560, Note_on_c, 0, 52, 66
5, 13584, Note_on_c, 0, 52, 0
5, 13592, Note_on_c, 0, 53, 66
5, 13616, Note_on_c, 0, 53, 0
5, 13624, Note_on_c, 0, 55, 71
5, 13648, Note_on_c, 0, 55, 0
5, 13656, Note_on_c, 0, 57, 59
5, 13688, Note_on_c, 0, 57, 0
5, 13704, Note_on_c, 0, 59, 43
5, 13736, Note_on_c, 0, 59, 0
5, 13744, Note_on_c, 0, 60, 57
5, 13776, Note_on_c, 0, 60, 0
5, 13776, Note_on_c, 0, 62, 64
5, 13808, Note_on_c, 0, 62, 0
5, 13816, Note_on_c, 0, 64, 63
5, 13840, Note_on_c, 0, 64, 0
5, 13841, Note_on_c, 0, 63, 42
5, 13846, Note_on_c, 0, 60, 42
5, 13848, Note_on_c, 0, 53, 40
5, 13852, Note_on_c, 0, 56, 40
5, 13852, Note_on_c, 0, 80, 78
5, 14985, Note_on_c, 0, 53, 0
5, 15017, Note_on_c, 0, 60, 0
5, 15038, Note_on_c, 0, 56, 0
5, 15070, Note_on_c, 0, 63, 0
5, 15238, Note_on_c, 0, 80, 0
5, 15284, Note_on_c, 0, 65, 58
5, 15287, Note_on_c, 0, 73, 67
5, 15289, Note_on_c, 0, 85, 71
5, 15298, Note_on_c, 0, 60, 35
5, 15319, Note_on_c, 0, 61, 38
5, 15328, Note_on_c, 0, 65, 0
5, 15332, Note_on_c, 0, 60, 0
5, 15339, Note_on_c, 0, 73, 0
5, 15348, Note_on_c, 0, 85, 0
5, 15349, Note_on_c, 0, 61, 0
5, 15377, Note_on_c, 0, 73, 53
5, 15379, Note_on_c, 0, 61, 31
5, 15391, Note_on_c, 0, 65, 26
5, 15395, Note_on_c, 0, 60, 26
5, 15594, Control_c, 0, 64, 127
5, 16095, Note_on_c, 0, 65, 0
5, 16150, Note_on_c, 0, 60, 0
5, 16150, Note_on_c, 0, 61, 0
5, 16374, Note_on_c, 0, 73, 0
5, 16422, Note_on_c, 0, 68, 69
5, 16437, Note_on_c, 0, 65, 42
5, 16443, Note_on_c, 0, 60, 44
5, 16448, Note_on_c, 0, 61, 36
5, 16479, Control_c, 0, 64, 0
5, 16548, Control_c, 0, 64, 127
5, 16549, Note_on_c, 0, 68, 0
5, 16588, Note_on_c, 0, 60, 0
5, 16598, Note_on_c, 0, 65, 0
5, 16626, Note_on_c, 0, 73, 39
5, 16655, Note_on_c, 0, 61, 0
5, 16703, Note_on_c, 0, 73, 0
5, 16816, Note_on_c, 0, 68, 64
5, 16864, Control_c, 0, 64, 0
5, 16907, Note_on_c, 0, 62, 24
5, 16921, Note_on_c, 0, 68, 0
5, 16950, Note_on_c, 0, 59, 32
5, 16981, Note_on_c, 0, 55, 8
5, 17003, Note_on_c, 0, 67, 22
5, 17176, Note_on_c, 0, 67, 0
5, 17181, Note_on_c, 0, 62, 0
5, 17182, Note_on_c, 0, 55, 0
5, 17187, Note_on_c, 0, 59, 0
5, 17193, Note_on_c, 0, 79, 60
5, 17251, Note_on_c, 0, 79, 0
5, 17488, Control_c, 0, 64, 127
5, 17565, Control_c, 0, 64, 0
5, 17692, Note_on_c, 0, 66, 33
5, 17695, Note_on_c, 0, 55, 33
5, 17697, Note_on_c, 0, 61, 25
5, 17821, Note_on_c, 0, 55, 0
5, 17821, Note_on_c, 0, 66, 0
5, 17841, Note_on_c, 0, 61, 0
5, 18089, Control_c, 0, 64, 127
5, 18324, Note_on_c, 0, 73, 55
5, 18342, Note_on_c, 0, 63, 32
5, 18355, Note_on_c, 0, 60, 26
5, 18383, Note_on_c, 0, 58, 25
5, 18398, Note_on_c, 0, 60, 0
5, 18404, Control_c, 0, 64, 0
5, 18409, Note_on_c, 0, 63, 0
5, 18415, Note_on_c, 0, 73, 0
5, 18420, Note_on_c, 0, 58, 0
5, 18568, Note_on_c, 0, 72, 24
5, 18731, Note_on_c, 0, 72, 0
5, 19096, Note_on_c, 0, 84, 73
5, 19154, Note_on_c, 0, 84, 0
5, 19296, Note_on_c, 0, 84, 71
5, 19365, Note_on_c, 0, 84, 0
5, 19492, Note_on_c, 0, 72, 48
5, 19528, Note_on_c, 0, 72, 0
5, 19618, Note_on_c, 0, 72, 45
5, 19621, Control_c, 0, 64, 127
5, 19706, Note_on_c, 0, 72, 0
5, 19844, Note_on_c, 0, 77, 83
5, 19847, Note_on_c, 0, 63, 59
5, 19863, Note_on_c, 0, 60, 54
5, 19869, Note_on_c, 0, 56, 37
5, 19897, Control_c, 0, 64, 0
5, 19936, Note_on_c, 0, 77, 0
5, 19951, Note_on_c, 0, 63, 0
5, 19953, Note_on_c, 0, 60, 0
5, 19967, Note_on_c, 0, 56, 0
5, 20013, Note_on_c, 0, 77, 53
5, 20177, Note_on_c, 0, 77, 0
5, 20225, Note_on_c, 0, 77, 62
5, 20256, Note_on_c, 0, 77, 0
5, 20799, Control_c, 0, 64, 127
5, 21068, Control_c, 0, 64, 0
5, 21112, Note_on_c, 0, 77, 70
5, 21115, Note_on_c, 0, 65, 60
5, 21165, Note_on_c, 0, 65, 0
5, 21171, Note_on_c, 0, 77, 0
5, 21250, Note_on_c, 0, 76, 54
5, 21283, Note_on_c, 0, 76, 0
5, 21383, Note_on_c, 0, 58, 30
5, 21394, Note_on_c, 0, 77, 78
5, 21400, Note_on_c, 0, 65, 67
5, 21415, Note_on_c, 0, 58, 0
5, 21443, Note_on_c, 0, 55, 20
5, 21448, Note_on_c, 0, 57, 41
5, 21469, Note_on_c, 0, 65, 0
5, 21478, Note_on_c, 0, 77, 0
5, 21528, Note_on_c, 0, 76, 54
5, 21584, Note_on_c, 0, 60, 1
5, 21586, Note_on_c, 0, 76, 0
5, 21661, Note_on_c, 0, 77, 80
5, 21669, Note_on_c, 0, 65, 71
5, 21748, Note_on_c, 0, 65, 0
5, 21764, Note_on_c, 0, 77, 0
5, 21787, Note_on_c, 0, 76, 59
5, 21856, Note_on_c, 0, 76, 0
5, 21893, Note_on_c, 0, 60, 0
5, 21899, Control_c, 0, 64, 127
5, 21907, Note_on_c, 0, 77, 80
5, 21917, Note_on_c, 0, 57, 0
5, 21921, Note_on_c, 0, 65, 59
5, 21942, Note_on_c, 0, 55, 0
5, 21968, Control_c, 0, 64, 0
5, 21984, Control_c, 0, 64, 127
5, 21988, Note_on_c, 0, 65, 0
5, 22012, Note_on_c, 0, 77, 0
5, 22137, Note_on_c, 0, 78, 74
5, 22141, Note_on_c, 0, 66, 77
5, 22147, Control_c, 0, 64, 0
5, 22160, Note_on_c, 0, 64, 49
5, 22167, Note_on_c, 0, 59, 41
5, 22171, Note_on_c, 0, 53, 32
5, 22202, Note_on_c, 0, 66, 0
5, 22212, Note_on_c, 0, 78, 0
5, 22298, Note_on_c, 0, 78, 37
5, 22301, Note_on_c, 0, 66, 65
5, 22337, Note_on_c, 0, 79, 36
5, 22389, Note_on_c, 0, 66, 0
5, 22391, Note_on_c, 0, 78, 0
5, 22394, Note_on_c, 0, 67, 61
5, 22423, Note_on_c, 0, 67, 0
5, 22449, Note_on_c, 0, 79, 0
5, 22462, Control_c, 0, 64, 127
5, 22475, Note_on_c, 0, 53, 0
5, 22524, Note_on_c, 0, 64, 0
5, 22583, Note_on_c, 0, 59, 0
5, 22593, Control_c, 0, 64, 0
5, 22650, Note_on_c, 0, 82, 70
5, 22660, Note_on_c, 0, 70, 71
5, 22672, Note_on_c, 0, 63, 52
5, 22678, Note_on_c, 0, 59, 37
5, 22680, Note_on_c, 0, 53, 44
5, 22686, Note_on_c, 0, 56, 35
5, 22716, Note_on_c, 0, 83, 66
5, 22759, Note_on_c, 0, 70, 0
5, 22770, Control_c, 0, 64, 127
5, 22779, Note_on_c, 0, 71, 40
5, 22796, Note_on_c, 0, 82, 0
5, 22811, Note_on_c, 0, 83, 0
5, 22852, Note_on_c, 0, 71, 0
5, 22886, Note_on_c, 0, 53, 0
5, 22916, Note_on_c, 0, 63, 0
5, 22951, Note_on_c, 0, 56, 0
5, 22967, Note_on_c, 0, 59, 0
5, 23024, Control_c, 0, 64, 0
5, 23046, Note_on_c, 0, 67, 49
5, 23048, Note_on_c, 0, 79, 51
5, 23054, Note_on_c, 0, 73, 44
5, 23057, Note_on_c, 0, 62, 37
5, 23067, Note_on_c, 0, 55, 37
5, 23069, Note_on_c, 0, 59, 17
5, 23081, Note_on_c, 0, 52, 34
5, 23082, Note_on_c, 0, 73, 0
5, 23114, Note_on_c, 0, 74, 22
5, 23163, Note_on_c, 0, 67, 0
5, 23190, Note_on_c, 0, 79, 0
5, 23206, Note_on_c, 0, 74, 0
5, 23386, Control_c, 0, 64, 127
5, 23455, Control_c, 0, 64, 0
5, 23455, Control_c, 0, 64, 127
5, 23510, Note_on_c, 0, 59, 0
5, 23554, Note_on_c, 0, 62, 0
5, 23732, Note_on_c, 0, 55, 0
5, 23821, Note_on_c, 0, 59, 46
5, 23833, Control_c, 0, 64, 0
5, 23914, Note_on_c, 0, 59, 0
5, 23927, Note_on_c, 0, 52, 0
5, 23931, Note_on_c, 0, 60, 60
5, 24031, Note_on_c, 0, 60, 0
5, 24044, Note_on_c, 0, 64, 53
5, 24143, Note_on_c, 0, 67, 60
5, 24157, Note_on_c, 0, 64, 0
5, 24202, Note_on_c, 0, 67, 0
5, 24231, Note_on_c, 0, 63, 64
5, 24314, Note_on_c, 0, 64, 66
5, 24351, Note_on_c, 0, 63, 0
5, 24426, Note_on_c, 0, 68, 52
5, 24438, Note_on_c, 0, 64, 0
5, 24526, Note_on_c, 0, 71, 62
5, 24541, Note_on_c, 0, 68, 0
5, 24572, Note_on_c, 0, 63, 34
5, 24587, Note_on_c, 0, 53, 40
5, 24598, Note_on_c, 0, 71, 0
5, 24606, Note_on_c, 0, 58, 33
5, 24643, Note_on_c, 0, 67, 46
5, 24719, Note_on_c, 0, 68, 59
5, 24738, Note_on_c, 0, 53, 0
5, 24749, Note_on_c, 0, 67, 0
5, 24779, Control_c, 0, 64, 127
5, 24831, Note_on_c, 0, 72, 54
5, 24836, Note_on_c, 0, 68, 0
5, 24881, Note_on_c, 0, 58, 0
5, 24883, Note_on_c, 0, 63, 0
5, 24922, Note_on_c, 0, 75, 67
5, 24925, Control_c, 0, 64, 0
5, 24927, Note_on_c, 0, 72, 0
5, 24978, Note_on_c, 0, 64, 42
5, 24991, Note_on_c, 0, 59, 43
5, 25002, Note_on_c, 0, 75, 0
5, 25002, Note_on_c, 0, 54, 30
5, 25015, Note_on_c, 0, 71, 64
5, 25132, Note_on_c, 0, 71, 0
5, 25135, Note_on_c, 0, 72, 64
5, 25149, Control_c, 0, 64, 127
5, 25183, Note_on_c, 0, 54, 0
5, 25186, Note_on_c, 0, 59, 0
5, 25226, Note_on_c, 0, 76, 61
5, 25237, Note_on_c, 0, 72, 0
5, 25262, Note_on_c, 0, 64, 0
5, 25303, Control_c, 0, 64, 0
5, 25312, Note_on_c, 0, 79, 71
5, 25332, Note_on_c, 0, 76, 0
5, 25363, Note_on_c, 0, 55, 41
5, 25369, Note_on_c, 0, 79, 0
5, 25369, Note_on_c, 0, 60, 42
5, 25373, Note_on_c, 0, 65, 45
5, 25412, Note_on_c, 0, 75, 55
5, 25434, Control_c, 0, 64, 127
5, 25449, Note_on_c, 0, 60, 0
5, 25462, Note_on_c, 0, 55, 0
5, 25503, Note_on_c, 0, 75, 0
5, 25507, Note_on_c, 0, 76, 32
5, 25568, Note_on_c, 0, 80, 48
5, 25587, Note_on_c, 0, 76, 0
5, 25615, Note_on_c, 0, 65, 0
5, 25676, Note_on_c, 0, 83, 63
5, 25704, Note_on_c, 0, 80, 0
5, 25727, Control_c, 0, 64, 0
5, 25742, Note_on_c, 0, 83, 0
5, 25753, Note_on_c, 0, 65, 37
5, 25763, Note_on_c, 0, 62, 30
5, 25766, Note_on_c, 0, 56, 28
5, 25788, Note_on_c, 0, 79, 55
5, 25803, Note_on_c, 0, 62, 0
5, 25831, Note_on_c, 0, 56, 0
5, 25834, Control_c, 0, 64, 127
5, 25839, Note_on_c, 0, 80, 46
5, 25870, Note_on_c, 0, 79, 0
5, 25911, Note_on_c, 0, 65, 0
5, 26008, Note_on_c, 0, 80, 0
5, 26027, Note_on_c, 0, 83, 54
5, 26097, Note_on_c, 0, 83, 0
5, 26117, Note_on_c, 0, 86, 76
5, 26167, Note_on_c, 0, 86, 0
5, 26189, Control_c, 0, 64, 0
5, 26191, Note_on_c, 0, 63, 30
5, 26197, Note_on_c, 0, 67, 38
5, 26203, Note_on_c, 0, 62, 47
5, 26216, Note_on_c, 0, 58, 38
5, 26245, Note_on_c, 0, 87, 74
5, 27239, Note_on_c, 0, 87, 0
5, 27271, Note_on_c, 0, 86, 62
5, 27303, Note_on_c, 0, 62, 0
5, 27357, Note_on_c, 0, 67, 0
5, 27392, Note_on_c, 0, 87, 80
5, 27404, Note_on_c, 0, 86, 0
5, 27410, Note_on_c, 0, 58, 0
5, 27472, Note_on_c, 0, 87, 0
5, 27484, Note_on_c, 0, 63, 0
5, 27631, Note_on_c, 0, 92, 73
5, 27633, Note_on_c, 0, 80, 71
5, 27668, Note_on_c, 0, 67, 49
5, 27676, Note_on_c, 0, 63, 31
5, 27685, Note_on_c, 0, 56, 36
5, 27690, Note_on_c, 0, 60, 40
5, 28020, Control_c, 0, 64, 127
5, 28419, Note_on_c, 0, 92, 0
5, 28449, Note_on_c, 0, 80, 0
5, 28781, Note_on_c, 0, 56, 0
5, 28782, Note_on_c, 0, 60, 0
5, 28783, Note_on_c, 0, 67, 0
5, 28822, Note_on_c, 0, 87, 81
5, 28825, Note_on_c, 0, 75, 80
5, 28893, Note_on_c, 0, 63, 0
5, 28928, Note_on_c, 0, 87, 0
5, 28968, Note_on_c, 0, 75, 0
5, 29185, Control_c, 0, 64, 0
5, 29210, Note_on_c, 0, 86, 77
5, 29213, Note_on_c, 0, 74, 82
5, 29215, Note_on_c, 0, 66, 58
5, 29215, Note_on_c, 0, 80, 67
5, 29217, Note_on_c, 0, 62, 50
5, 29220, Note_on_c, 0, 57, 53
5, 29312, Note_on_c, 0, 80, 0
5, 29325, Note_on_c, 0, 81, 36
5, 29398, Note_on_c, 0, 74, 0
5, 29401, Note_on_c, 0, 57, 0
5, 29412, Note_on_c, 0, 86, 0
5, 29424, Note_on_c, 0, 81, 0
5, 29430, Note_on_c, 0, 62, 0
5, 29432, Note_on_c, 0, 66, 0
5, 29605, Note_on_c, 0, 80, 64
5, 29606, Note_on_c, 0, 66, 57
5, 29607, Note_on_c, 0, 86, 76
5, 29609, Note_on_c, 0, 74, 74
5, 29613, Note_on_c, 0, 57, 58
5, 29619, Note_on_c, 0, 62, 41
5, 29710, Note_on_c, 0, 80, 0
5, 29722, Note_on_c, 0, 81, 35
5, 29778, Control_c, 0, 64, 127
5, 29845, Note_on_c, 0, 57, 0
5, 29845, Note_on_c, 0, 74, 0
5, 29852, Note_on_c, 0, 86, 0
5, 29858, Note_on_c, 0, 66, 0
5, 29859, Note_on_c, 0, 81, 0
5, 29868, Note_on_c, 0, 62, 0
5, 29886, Control_c, 0, 64, 0
5, 29994, Note_on_c, 0, 66, 46
5, 29997, Note_on_c, 0, 56, 46
5, 29997, Note_on_c, 0, 86, 59
5, 30000, Note_on_c, 0, 74, 50
5, 30003, Note_on_c, 0, 80, 45
5, 30007, Note_on_c, 0, 62, 43
5, 30055, Control_c, 0, 64, 127
5, 30370, Note_on_c, 0, 62, 0
5, 30386, Note_on_c, 0, 66, 0
5, 30447, Note_on_c, 0, 56, 0
5, 30496, Note_on_c, 0, 74, 0
5, 30512, Note_on_c, 0, 86, 0
5, 30513, Note_on_c, 0, 80, 0
5, 30632, Control_c, 0, 64, 0
5, 30635, Note_on_c, 0, 65, 34
5, 30642, Note_on_c, 0, 55, 29
5, 30643, Note_on_c, 0, 86, 46
5, 30648, Note_on_c, 0, 79, 53
5, 30648, Note_on_c, 0, 62, 24
5, 30649, Note_on_c, 0, 74, 39
5, 30650, Note_on_c, 0, 60, 32
5, 30711, Note_on_c, 0, 74, 0
5, 30714, Note_on_c, 0, 60, 0
5, 30718, Note_on_c, 0, 65, 0
5, 30719, Note_on_c, 0, 79, 0
5, 30722, Note_on_c, 0, 62, 0
5, 30734, Note_on_c, 0, 55, 0
5, 30747, Note_on_c, 0, 86, 0
5, 31000, Note_on_c, 0, 65, 66
5, 31000, Note_on_c, 0, 91, 79
5, 31005, Note_on_c, 0, 62, 51
5, 31006, Note_on_c, 0, 55, 60
5, 31008, Note_on_c, 0, 79, 69
5, 31009, Note_on_c, 0, 60, 55
5, 31011, Note_on_c, 0, 86, 73
5, 31058, Note_on_c, 0, 79, 0
5, 31065, Note_on_c, 0, 65, 0
5, 31078, Note_on_c, 0, 91, 0
5, 31078, Note_on_c, 0, 62, 0
5, 31079, Note_on_c, 0, 60, 0
5, 31089, Note_on_c, 0, 86, 0
5, 31089, Note_on_c, 0, 55, 0
5, 31133, Note_on_c, 0, 65, 54
5, 31146, Note_on_c, 0, 62, 60
5, 31148, Note_on_c, 0, 55, 32
5, 31151, Note_on_c, 0, 60, 62
5, 31155, Note_on_c, 0, 86, 55
5, 31183, Note_on_c, 0, 86, 0
5, 31209, Note_on_c, 0, 65, 0
5, 31224, Note_on_c, 0, 62, 0
5, 31224, Note_on_c, 0, 60, 0
5, 31229, Note_on_c, 0, 55, 0
5, 31272, Note_on_c, 0, 55, 24
5, 31274, Note_on_c, 0, 65, 69
5, 31276, Note_on_c, 0, 91, 68
5, 31277, Note_on_c, 0, 79, 68
5, 31280, Note_on_c, 0, 62, 44
5, 31286, Note_on_c, 0, 60, 49
5, 31286, Note_on_c, 0, 86, 68
5, 31312, Note_on_c, 0, 86, 0
5, 31328, Note_on_c, 0, 79, 0
5, 31335, Note_on_c, 0, 91, 0
5, 31336, Note_on_c, 0, 60, 0
5, 31347, Note_on_c, 0, 65, 0
5, 31350, Note_on_c, 0, 62, 0
5, 31357, Note_on_c, 0, 55, 0
5, 31521, Note_on_c, 0, 65, 69
5, 31522, Note_on_c, 0, 62, 53
5, 31522, Note_on_c, 0, 91, 74
5, 31524, Note_on_c, 0, 79, 72
5, 31530, Note_on_c, 0, 60, 54
5, 31530, Note_on_c, 0, 86, 66
5, 31533, Note_on_c, 0, 55, 62
5, 31588, Control_c, 0, 64, 127
5, 31621, Note_on_c, 0, 91, 0
5, 31635, Note_on_c, 0, 86, 0
5, 31662, Note_on_c, 0, 79, 0
5, 31678, Note_on_c, 0, 55, 0
5, 31682, Note_on_c, 0, 65, 0
5, 31688, Note_on_c, 0, 60, 0
5, 31703, Note_on_c, 0, 62, 0
5, 31785, Note_on_c, 0, 86, 62
5, 31788, Control_c, 0, 64, 0
5, 31795, Note_on_c, 0, 74, 40
5, 31807, Note_on_c, 0, 81, 61
5, 31807, Note_on_c, 0, 62, 35
5, 31808, Note_on_c, 0, 65, 53
5, 31814, Note_on_c, 0, 60, 51
5, 31815, Note_on_c, 0, 55, 53
5, 31877, Note_on_c, 0, 65, 0
5, 31889, Note_on_c, 0, 74, 0
5, 31902, Note_on_c, 0, 86, 0
5, 31903, Note_on_c, 0, 81, 0
5, 31903, Note_on_c, 0, 60, 0
5, 31904, Note_on_c, 0, 62, 0
5, 31909, Note_on_c, 0, 55, 0
5, 31934, Control_c, 0, 64, 127
5, 32038, Note_on_c, 0, 55, 58
5, 32042, Note_on_c, 0, 65, 49
5, 32044, Note_on_c, 0, 62, 55
5, 32049, Note_on_c, 0, 60, 44
5, 32058, Note_on_c, 0, 74, 40
5, 32072, Note_on_c, 0, 86, 44
5, 32098, Note_on_c, 0, 85, 39
5, 32101, Note_on_c, 0, 81, 62
5, 32138, Note_on_c, 0, 65, 0
5, 32150, Note_on_c, 0, 62, 0
5, 32157, Note_on_c, 0, 60, 0
5, 32161, Note_on_c, 0, 55, 0
5, 32175, Note_on_c, 0, 81, 0
5, 32185, Note_on_c, 0, 86, 0
5, 32187, Note_on_c, 0, 85, 0
5, 32198, Note_on_c, 0, 74, 0
5, 32315, Note_on_c, 0, 60, 58
5, 32316, Note_on_c, 0, 84, 72
5, 32320, Control_c, 0, 64, 0
5, 32320, Note_on_c, 0, 63, 57
5, 32321, Note_on_c, 0, 72, 56
5, 32345, Note_on_c, 0, 53, 27
5, 32349, Note_on_c, 0, 58, 23
5, 32588, Control_c, 0, 64, 127
5, 32636, Note_on_c, 0, 84, 0
5, 32658, Note_on_c, 0, 63, 0
5, 32700, Note_on_c, 0, 72, 0
5, 32813, Note_on_c, 0, 58, 0
5, 32848, Note_on_c, 0, 60, 0
5, 32853, Note_on_c, 0, 53, 0
5, 33012, Control_c, 0, 64, 0
5, 33048, Note_on_c, 0, 63, 32
5, 33059, Note_on_c, 0, 67, 36
5, 33061, Note_on_c, 0, 60, 29
5, 33065, Note_on_c, 0, 79, 31
5, 33067, Note_on_c, 0, 75, 38
5, 33072, Note_on_c, 0, 58, 25
5, 33072, Note_on_c, 0, 72, 39
5, 33108, Note_on_c, 0, 72, 0
5, 33108, Note_on_c, 0, 67, 0
5, 33144, Note_on_c, 0, 75, 0
5, 33145, Note_on_c, 0, 79, 0
5, 33292, Note_on_c, 0, 53, 1
5, 33314, Note_on_c, 0, 60, 0
5, 33381, Note_on_c, 0, 60, 17
5, 33393, Note_on_c, 0, 53, 0
5, 33439, Note_on_c, 0, 74, 103
5, 33444, Note_on_c, 0, 81, 84
5, 33468, Note_on_c, 0, 63, 0
5, 33528, Note_on_c, 0, 75, 59
5, 33529, Note_on_c, 0, 74, 0
5, 33593, Note_on_c, 0, 58, 0
5, 33641, Note_on_c, 0, 74, 45
5, 33651, Note_on_c, 0, 81, 0
5, 33680, Note_on_c, 0, 75, 0
5, 33730, Note_on_c, 0, 74, 0
5, 33745, Note_on_c, 0, 72, 58
5, 33791, Note_on_c, 0, 72, 0
5, 33806, Note_on_c, 0, 63, 32
5, 33846, Note_on_c, 0, 55, 18
5, 33859, Note_on_c, 0, 74, 72
5, 33864, Note_on_c, 0, 81, 56
5, 33873, Note_on_c, 0, 57, 17
5, 33958, Note_on_c, 0, 75, 56
5, 33965, Note_on_c, 0, 74, 0
5, 34031, Note_on_c, 0, 81, 0
5, 34055, Note_on_c, 0, 74, 33
5, 34115, Note_on_c, 0, 75, 0
5, 34154, Note_on_c, 0, 74, 0
5, 34160, Note_on_c, 0, 72, 54
5, 34195, Note_on_c, 0, 72, 0
5, 34267, Note_on_c, 0, 81, 79
5, 34268, Note_on_c, 0, 74, 87
5, 34393, Note_on_c, 0, 74, 0
5, 34436, Note_on_c, 0, 75, 51
5, 34473, Note_on_c, 0, 57, 0
5, 34479, Note_on_c, 0, 74, 47
5, 34501, Note_on_c, 0, 81, 0
5, 34514, Note_on_c, 0, 63, 0
5, 34544, Note_on_c, 0, 75, 0
5, 34568, Note_on_c, 0, 55, 0
5, 34578, Note_on_c, 0, 74, 0
5, 34606, Note_on_c, 0, 72, 39
5, 34763, Note_on_c, 0, 60, 0
5, 34785, Note_on_c, 0, 72, 0
5, 34850, Note_on_c, 0, 70, 65
5, 34888, Note_on_c, 0, 54, 33
5, 34892, Note_on_c, 0, 62, 30
5, 34894, Note_on_c, 0, 60, 22
5, 34929, Note_on_c, 0, 62, 0
5, 34932, Note_on_c, 0, 60, 0
5, 34958, Note_on_c, 0, 70, 0
5, 34985, Note_on_c, 0, 54, 0
5, 35050, Note_on_c, 0, 69, 28
5, 35205, Note_on_c, 0, 69, 0
5, 35236, Note_on_c, 0, 67, 67
5, 35252, Note_on_c, 0, 50, 45
5, 35295, Note_on_c, 0, 67, 0
5, 35364, Note_on_c, 0, 50, 0
5, 35403, Note_on_c, 0, 66, 25
5, 35605, Note_on_c, 0, 66, 0
5, 35623, Note_on_c, 0, 71, 65
5, 35651, Note_on_c, 0, 54, 33
5, 35688, Note_on_c, 0, 71, 0
5, 35700, Note_on_c, 0, 54, 0
5, 35771, Note_on_c, 0, 66, 30
5, 36001, Note_on_c, 0, 59, 47
5, 36003, Note_on_c, 0, 49, 35
5, 36009, Note_on_c, 0, 66, 0
5, 36018, Note_on_c, 0, 50, 58
5, 36061, Note_on_c, 0, 59, 0
5, 36073, Note_on_c, 0, 49, 0
5, 36134, Note_on_c, 0, 62, 36
5, 36405, Note_on_c, 0, 62, 0
5, 36488, Note_on_c, 0, 62, 42
5, 36591, Note_on_c, 0, 50, 0
5, 36745, Note_on_c, 0, 50, 72
5, 36795, Note_on_c, 0, 62, 0
5, 36915, Control_c, 0, 64, 127
5, 37193, Control_c, 0, 64, 0
5, 37262, Note_on_c, 0, 74, 67
5, 37353, Note_on_c, 0, 74, 0
5, 37545, Note_on_c, 0, 74, 74
5, 37614, Note_on_c, 0, 74, 0
5, 37744, Note_on_c, 0, 79, 54
5, 37810, Note_on_c, 0, 79, 0
5, 37837, Note_on_c, 0, 50, 0
5, 37878, Control_c, 0, 64, 127
5, 37937, Note_on_c, 0, 79, 66
5, 38000, Note_on_c, 0, 79, 0
5, 38092, Note_on_c, 0, 83, 46
5, 38130, Note_on_c, 0, 83, 0
5, 38313, Note_on_c, 0, 83, 68
5, 38328, Note_on_c, 0, 64, 45
5, 38344, Note_on_c, 0, 60, 31
5, 38345, Note_on_c, 0, 59, 25
5, 38381, Note_on_c, 0, 83, 0
5, 38391, Note_on_c, 0, 82, 62
5, 38402, Control_c, 0, 64, 0
5, 38417, Note_on_c, 0, 82, 0
5, 38465, Note_on_c, 0, 85, 62
5, 38465, Note_on_c, 0, 73, 62
5, 38514, Note_on_c, 0, 86, 35
5, 38529, Note_on_c, 0, 85, 0
5, 38534, Note_on_c, 0, 84, 33
5, 38571, Note_on_c, 0, 73, 0
5, 38586, Note_on_c, 0, 74, 61
5, 38619, Note_on_c, 0, 60, 0
5, 38660, Note_on_c, 0, 86, 0
5, 38666, Note_on_c, 0, 74, 0
5, 38703, Note_on_c, 0, 64, 0
5, 38705, Note_on_c, 0, 59, 0
5, 38709, Note_on_c, 0, 84, 0
5, 38801, Note_on_c, 0, 73, 64
5, 38801, Note_on_c, 0, 59, 30
5, 38803, Note_on_c, 0, 64, 43
5, 38805, Note_on_c, 0, 60, 42
5, 38821, Note_on_c, 0, 84, 28
5, 38829, Note_on_c, 0, 86, 56
5, 38893, Note_on_c, 0, 73, 0
5, 38895, Note_on_c, 0, 74, 59
5, 39030, Note_on_c, 0, 86, 0
5, 39032, Note_on_c, 0, 74, 0
5, 39084, Note_on_c, 0, 64, 0
5, 39086, Note_on_c, 0, 84, 0
5, 39096, Note_on_c, 0, 60, 0
5, 39096, Note_on_c, 0, 59, 0
5, 39181, Control_c, 0, 64, 127
5, 39187, Note_on_c, 0, 73, 67
5, 39191, Note_on_c, 0, 60, 39
5, 39195, Note_on_c, 0, 64, 43
5, 39201, Note_on_c, 0, 86, 54
5, 39202, Note_on_c, 0, 59, 34
5, 39233, Note_on_c, 0, 73, 0
5, 39235, Note_on_c, 0, 84, 24
5, 39236, Note_on_c, 0, 74, 71
5, 39275, Note_on_c, 0, 84, 0
5, 39300, Note_on_c, 0, 86, 0
5, 39314, Note_on_c, 0, 74, 0
5, 39322, Note_on_c, 0, 64, 0
5, 39328, Note_on_c, 0, 60, 0
5, 39330, Note_on_c, 0, 59, 0
5, 39468, Note_on_c, 0, 87, 77
5, 39474, Note_on_c, 0, 75, 77
5, 39476, Note_on_c, 0, 60, 53
5, 39477, Note_on_c, 0, 64, 51
5, 39483, Note_on_c, 0, 59, 51
5, 39531, Note_on_c, 0, 64, 0
5, 39543, Control_c, 0, 64, 0
5, 39559, Note_on_c, 0, 60, 0
5, 39579, Note_on_c, 0, 75, 0
5, 39583, Note_on_c, 0, 87, 0
5, 39613, Note_on_c, 0, 60, 17
5, 39624, Note_on_c, 0, 64, 41
5, 39637, Note_on_c, 0, 86, 53
5, 39654, Note_on_c, 0, 74, 49
5, 39674, Control_c, 0, 64, 127
5, 39701, Note_on_c, 0, 64, 0
5, 39726, Note_on_c, 0, 60, 0
5, 39735, Note_on_c, 0, 59, 0
5, 39736, Note_on_c, 0, 86, 0
5, 39742, Note_on_c, 0, 74, 0
5, 39863, Note_on_c, 0, 84, 60
5, 39878, Note_on_c, 0, 72, 64
5, 39879, Note_on_c, 0, 64, 58
5, 39890, Note_on_c, 0, 60, 45
5, 39895, Note_on_c, 0, 54, 36
5, 39920, Control_c, 0, 64, 0
5, 39940, Note_on_c, 0, 64, 0
5, 39955, Note_on_c, 0, 72, 0
5, 39967, Note_on_c, 0, 60, 0
5, 39975, Note_on_c, 0, 84, 0
5, 39977, Note_on_c, 0, 54, 0
5, 40090, Note_on_c, 0, 74, 60
5, 40094, Note_on_c, 0, 86, 54
5, 40103, Note_on_c, 0, 64, 39
5, 40104, Note_on_c, 0, 54, 37
5, 40111, Note_on_c, 0, 60, 31
5, 40167, Control_c, 0, 64, 127
5, 40209, Note_on_c, 0, 74, 0
5, 40216, Note_on_c, 0, 86, 0
5, 40225, Note_on_c, 0, 64, 0
5, 40238, Note_on_c, 0, 60, 0
5, 40243, Note_on_c, 0, 54, 0
5, 40364, Note_on_c, 0, 64, 57
5, 40365, Note_on_c, 0, 54, 53
5, 40373, Note_on_c, 0, 60, 50
5, 40690, Control_c, 0, 64, 0
5, 40736, Control_c, 0, 64, 127
5, 40822, Note_on_c, 0, 64, 0
5, 40852, Note_on_c, 0, 60, 0
5, 40878, Note_on_c, 0, 54, 0
5, 40998, Note_on_c, 0, 64, 54
5, 41003, Note_on_c, 0, 54, 45
5, 41004, Note_on_c, 0, 60, 50
5, 41090, Control_c, 0, 64, 0
5, 41159, Control_c, 0, 64, 127
5, 41213, Note_on_c, 0, 54, 0
5, 41387, Note_on_c, 0, 60, 0
5, 41391, Note_on_c, 0, 54, 67
5, 41405, Note_on_c, 0, 64, 0
5, 41411, Note_on_c, 0, 74, 101
5, 41546, Note_on_c, 0, 68, 33
5, 41552, Control_c, 0, 64, 0
5, 41555, Note_on_c, 0, 74, 0
5, 41572, Note_on_c, 0, 68, 0
5, 41572, Note_on_c, 0, 59, 51
5, 41574, Note_on_c, 0, 62, 32
5, 41579, Note_on_c, 0, 69, 40
5, 41596, Note_on_c, 0, 70, 59
5, 41638, Note_on_c, 0, 69, 0
5, 41675, Note_on_c, 0, 70, 0
5, 41702, Note_on_c, 0, 71, 35
5, 41794, Note_on_c, 0, 71, 0
5, 41821, Note_on_c, 0, 54, 0
5, 41826, Note_on_c, 0, 62, 0
5, 41835, Note_on_c, 0, 59, 0
5, 41914, Note_on_c, 0, 62, 37
5, 41917, Note_on_c, 0, 59, 38
5, 41924, Note_on_c, 0, 71, 41
5, 41927, Note_on_c, 0, 54, 34
5, 41961, Control_c, 0, 64, 127
5, 42146, Note_on_c, 0, 54, 0
5, 42148, Note_on_c, 0, 62, 0
5, 42153, Note_on_c, 0, 71, 0
5, 42179, Note_on_c, 0, 59, 0
5, 42261, Control_c, 0, 64, 0
5, 42277, Note_on_c, 0, 71, 66
5, 42285, Note_on_c, 0, 62, 29
5, 42288, Note_on_c, 0, 59, 34
5, 42294, Note_on_c, 0, 54, 32
5, 42330, Control_c, 0, 64, 127
5, 42418, Note_on_c, 0, 62, 0
5, 42442, Note_on_c, 0, 54, 0
5, 42445, Note_on_c, 0, 59, 0
5, 42489, Note_on_c, 0, 71, 0
5, 42543, Note_on_c, 0, 66, 52
5, 42557, Note_on_c, 0, 54, 39
5, 42557, Note_on_c, 0, 59, 31
5, 42609, Note_on_c, 0, 59, 0
5, 42646, Note_on_c, 0, 66, 0
5, 42646, Control_c, 0, 64, 0
5, 42675, Note_on_c, 0, 62, 36
5, 42681, Note_on_c, 0, 59, 17
5, 42792, Control_c, 0, 64, 127
5, 42829, Note_on_c, 0, 54, 0
5, 42831, Note_on_c, 0, 59, 0
5, 42878, Note_on_c, 0, 62, 0
5, 42924, Note_on_c, 0, 64, 60
5, 42929, Note_on_c, 0, 59, 28
5, 42930, Note_on_c, 0, 54, 35
5, 42946, Control_c, 0, 64, 0
5, 43085, Control_c, 0, 64, 127
5, 43302, Note_on_c, 0, 64, 0
5, 43406, Note_on_c, 0, 54, 0
5, 43436, Note_on_c, 0, 59, 0
5, 43755, Control_c, 0, 64, 0
5, 43813, Note_on_c, 0, 59, 33
5, 43815, Note_on_c, 0, 62, 45
5, 43901, Control_c, 0, 64, 127
5, 43909, Note_on_c, 0, 59, 0
5, 43959, Note_on_c, 0, 62, 0
5, 44058, Note_on_c, 0, 67, 58
5, 44068, Note_on_c, 0, 59, 49
5, 44101, Control_c, 0, 64, 0
5, 44127, Note_on_c, 0, 67, 0
5, 44145, Note_on_c, 0, 59, 0
5, 44178, Note_on_c, 0, 59, 17
5, 44194, Control_c, 0, 64, 127
5, 44205, Note_on_c, 0, 71, 71
5, 44276, Note_on_c, 0, 71, 0
5, 44324, Note_on_c, 0, 59, 0
5, 44457, Note_on_c, 0, 74, 92
5, 44463, Note_on_c, 0, 54, 37
5, 44482, Note_on_c, 0, 64, 50
5, 44483, Note_on_c, 0, 57, 57
5, 44544, Note_on_c, 0, 64, 0
5, 44576, Note_on_c, 0, 74, 0
5, 44617, Control_c, 0, 64, 0
5, 44630, Note_on_c, 0, 64, 33
5, 44641, Note_on_c, 0, 71, 58
5, 44646, Note_on_c, 0, 60, 29
5, 44743, Note_on_c, 0, 64, 0
5, 44758, Note_on_c, 0, 60, 0
5, 44764, Note_on_c, 0, 57, 0
5, 44778, Note_on_c, 0, 54, 0
5, 44795, Note_on_c, 0, 71, 0
5, 44965, Note_on_c, 0, 64, 27
5, 44969, Note_on_c, 0, 60, 32
5, 44978, Note_on_c, 0, 54, 19
5, 44979, Note_on_c, 0, 57, 39
5, 44988, Note_on_c, 0, 71, 55
5, 45079, Control_c, 0, 64, 127
5, 45166, Note_on_c, 0, 57, 0
5, 45168, Note_on_c, 0, 54, 0
5, 45169, Note_on_c, 0, 60, 0
5, 45187, Note_on_c, 0, 64, 0
5, 45893, Note_on_c, 0, 71, 0
5, 45994, Note_on_c, 0, 69, 88
5, 45996, Note_on_c, 0, 62, 74
5, 45999, Note_on_c, 0, 51, 68
5, 46009, Note_on_c, 0, 57, 64
5, 46041, Control_c, 0, 64, 0
5, 46198, Note_on_c, 0, 69, 0
5, 46213, Note_on_c, 0, 62, 0
5, 46223, Note_on_c, 0, 57, 0
5, 46257, Control_c, 0, 64, 127
5, 46262, Note_on_c, 0, 69, 69
5, 46268, Note_on_c, 0, 62, 50
5, 46278, Note_on_c, 0, 57, 38
5, 46349, Control_c, 0, 64, 0
5, 46457, Control_c, 0, 64, 127
5, 46669, Note_on_c, 0, 69, 0
5, 46683, Note_on_c, 0, 62, 0
5, 46751, Note_on_c, 0, 57, 0
5, 46865, Control_c, 0, 64, 0
5, 46884, Note_on_c, 0, 58, 29
5, 46988, Control_c, 0, 64, 127
5, 47091, Note_on_c, 0, 58, 0
5, 47111, Note_on_c, 0, 59, 54
5, 47165, Control_c, 0, 64, 0
5, 47172, Note_on_c, 0, 59, 0
5, 47239, Note_on_c, 0, 59, 71
5, 47242, Note_on_c, 0, 69, 71
5, 47254, Note_on_c, 0, 64, 55
5, 47275, Note_on_c, 0, 51, 0
5, 47288, Control_c, 0, 64, 127
5, 47357, Note_on_c, 0, 64, 0
5, 47375, Note_on_c, 0, 59, 0
5, 47417, Note_on_c, 0, 69, 0
5, 47538, Note_on_c, 0, 64, 64
5, 47539, Note_on_c, 0, 59, 67
5, 47544, Note_on_c, 0, 68, 51
5, 47567, Note_on_c, 0, 56, 39
5, 47581, Control_c, 0, 64, 0
5, 48012, Control_c, 0, 64, 127
5, 48070, Note_on_c, 0, 64, 0
5, 48209, Note_on_c, 0, 59, 0
5, 48254, Note_on_c, 0, 56, 0
5, 48268, Note_on_c, 0, 68, 0
5, 48389, Control_c, 0, 64, 0
5, 48407, Note_on_c, 0, 68, 49
5, 48409, Note_on_c, 0, 59, 48
5, 48409, Note_on_c, 0, 63, 39
5, 48415, Note_on_c, 0, 56, 31
5, 48536, Control_c, 0, 64, 127
5, 48644, Note_on_c, 0, 59, 0
5, 48711, Note_on_c, 0, 56, 0
5, 48726, Note_on_c, 0, 63, 0
5, 48762, Note_on_c, 0, 68, 0
5, 49160, Control_c, 0, 64, 0
5, 49179, Note_on_c, 0, 84, 74
5, 49180, Note_on_c, 0, 80, 50
5, 49184, Note_on_c, 0, 72, 44
5, 49185, Note_on_c, 0, 76, 58
5, 49229, Control_c, 0, 64, 127
5, 49318, Note_on_c, 0, 76, 0
5, 49343, Note_on_c, 0, 84, 0
5, 49362, Note_on_c, 0, 80, 0
5, 49363, Note_on_c, 0, 72, 0
5, 49427, Note_on_c, 0, 82, 55
5, 49428, Note_on_c, 0, 78, 53
5, 49430, Control_c, 0, 64, 0
5, 49435, Note_on_c, 0, 74, 56
5, 49447, Note_on_c, 0, 70, 37
5, 49560, Control_c, 0, 64, 127
5, 49724, Note_on_c, 0, 82, 0
5, 49731, Note_on_c, 0, 78, 0
5, 49743, Note_on_c, 0, 74, 0
5, 49833, Note_on_c, 0, 80, 55
5, 49847, Note_on_c, 0, 76, 50
5, 49848, Note_on_c, 0, 72, 47
5, 49858, Note_on_c, 0, 68, 40
5, 49860, Control_c, 0, 64, 0
5, 49879, Note_on_c, 0, 70, 0
5, 49934, Note_on_c, 0, 68, 0
5, 49937, Control_c, 0, 64, 127
5, 49941, Note_on_c, 0, 76, 0
5, 49965, Note_on_c, 0, 80, 0
5, 49978, Note_on_c, 0, 72, 0
5, 50214, Note_on_c, 0, 76, 49
5, 50215, Note_on_c, 0, 68, 49
5, 50225, Note_on_c, 0, 54, 35
5, 50229, Note_on_c, 0, 64, 34
5, 50232, Note_on_c, 0, 72, 51
5, 50252, Control_c, 0, 64, 0
5, 50368, Control_c, 0, 64, 127
5, 50462, Note_on_c, 0, 76, 0
5, 50463, Note_on_c, 0, 72, 0
5, 50508, Note_on_c, 0, 64, 0
5, 50537, Note_on_c, 0, 68, 0
5, 50604, Note_on_c, 0, 54, 0
5, 50638, Note_on_c, 0, 60, 22
5, 50715, Control_c, 0, 64, 0
5, 50716, Note_on_c, 0, 63, 30
5, 50726, Note_on_c, 0, 67, 29
5, 50730, Note_on_c, 0, 56, 21
5, 50733, Note_on_c, 0, 68, 39
5, 50736, Note_on_c, 0, 53, 34
5, 50746, Note_on_c, 0, 72, 47
5, 50854, Control_c, 0, 64, 127
5, 50962, Note_on_c, 0, 53, 0
5, 50965, Note_on_c, 0, 67, 0
5, 50994, Note_on_c, 0, 60, 0
5, 50997, Note_on_c, 0, 68, 0
5, 50998, Note_on_c, 0, 72, 0
5, 51035, Note_on_c, 0, 63, 0
5, 51036, Note_on_c, 0, 56, 0
5, 51392, Control_c, 0, 64, 0
5, 51464, Note_on_c, 0, 63, 42
5, 51467, Note_on_c, 0, 56, 39
5, 51469, Control_c, 0, 64, 127
5, 51470, Note_on_c, 0, 67, 41
5, 51474, Note_on_c, 0, 92, 63
5, 51477, Note_on_c, 0, 60, 47
5, 51478, Note_on_c, 0, 80, 47
5, 51484, Note_on_c, 0, 87, 54
5, 51619, Note_on_c, 0, 80, 0
5, 51624, Note_on_c, 0, 67, 0
5, 51627, Note_on_c, 0, 92, 0
5, 51627, Note_on_c, 0, 56, 0
5, 51632, Note_on_c, 0, 60, 0
5, 51652, Note_on_c, 0, 87, 0
5, 51662, Note_on_c, 0, 63, 0
5, 51728, Note_on_c, 0, 63, 50
5, 51733, Note_on_c, 0, 56, 58
5, 51739, Note_on_c, 0, 67, 62
5, 51740, Note_on_c, 0, 94, 70
5, 51745, Note_on_c, 0, 82, 52
5, 51747, Note_on_c, 0, 87, 60
5, 51748, Note_on_c, 0, 60, 57
5, 51801, Note_on_c, 0, 67, 0
5, 51803, Note_on_c, 0, 82, 0
5, 51805, Note_on_c, 0, 94, 0
5, 51829, Note_on_c, 0, 60, 0
5, 51839, Note_on_c, 0, 63, 0
5, 51848, Control_c, 0, 64, 0
5, 51853, Note_on_c, 0, 87, 0
5, 51871, Note_on_c, 0, 63, 25
5, 51875, Note_on_c, 0, 67, 48
5, 51885, Note_on_c, 0, 92, 37
5, 51887, Control_c, 0, 64, 127
5, 51891, Note_on_c, 0, 60, 33
5, 51892, Note_on_c, 0, 80, 36
5, 51908, Note_on_c, 0, 87, 34
5, 51960, Note_on_c, 0, 80, 0
5, 51963, Note_on_c, 0, 67, 0
5, 51979, Note_on_c, 0, 87, 0
5, 51985, Note_on_c, 0, 92, 0
5, 51991, Note_on_c, 0, 63, 0
5, 52008, Note_on_c, 0, 56, 0
5, 52014, Note_on_c, 0, 60, 0
5, 52123, Note_on_c, 0, 65, 57
5, 52128, Note_on_c, 0, 61, 47
5, 52129, Note_on_c, 0, 56, 34
5, 52129, Note_on_c, 0, 60, 47
5, 52132, Note_on_c, 0, 97, 74
5, 52134, Note_on_c, 0, 85, 73
5, 52141, Control_c, 0, 64, 0
5, 52289, Control_c, 0, 64, 127
5, 52338, Note_on_c, 0, 85, 0
5, 52344, Note_on_c, 0, 56, 0
5, 52345, Note_on_c, 0, 65, 0
5, 52358, Note_on_c, 0, 60, 0
5, 52360, Note_on_c, 0, 61, 0
5, 52374, Note_on_c, 0, 97, 0
5, 52511, Note_on_c, 0, 61, 51
5, 52513, Note_on_c, 0, 65, 59
5, 52515, Note_on_c, 0, 99, 69
5, 52519, Note_on_c, 0, 60, 49
5, 52523, Note_on_c, 0, 56, 39
5, 52525, Note_on_c, 0, 87, 52
5, 52527, Control_c, 0, 64, 0
5, 52529, Note_on_c, 0, 94, 56
5, 52582, Note_on_c, 0, 65, 0
5, 52587, Note_on_c, 0, 87, 0
5, 52589, Note_on_c, 0, 99, 0
5, 52602, Note_on_c, 0, 94, 0
5, 52624, Note_on_c, 0, 60, 0
5, 52649, Control_c, 0, 64, 127
5, 52682, Note_on_c, 0, 65, 28
5, 52696, Note_on_c, 0, 60, 15
5, 52700, Note_on_c, 0, 97, 33
5, 52704, Note_on_c, 0, 85, 32
5, 52730, Note_on_c, 0, 92, 32
5, 52781, Note_on_c, 0, 92, 0
5, 52795, Note_on_c, 0, 85, 0
5, 52806, Note_on_c, 0, 65, 0
5, 52815, Note_on_c, 0, 60, 0
5, 52819, Note_on_c, 0, 56, 0
5, 52822, Note_on_c, 0, 97, 0
5, 52832, Note_on_c, 0, 61, 0
5, 52920, Note_on_c, 0, 99, 67
5, 52922, Note_on_c, 0, 87, 60
5, 52923, Note_on_c, 0, 61, 46
5, 52925, Note_on_c, 0, 65, 49
5, 52926, Note_on_c, 0, 56, 37
5, 52934, Note_on_c, 0, 60, 37
5, 52936, Note_on_c, 0, 94, 51
5, 52949, Control_c, 0, 64, 0
5, 52977, Note_on_c, 0, 60, 0
5, 52983, Note_on_c, 0, 65, 0
5, 52985, Note_on_c, 0, 94, 0
5, 52988, Note_on_c, 0, 87, 0
5, 52996, Note_on_c, 0, 99, 0
5, 53008, Note_on_c, 0, 61, 0
5, 53009, Note_on_c, 0, 56, 0
5, 53087, Note_on_c, 0, 65, 27
5, 53091, Note_on_c, 0, 99, 55
5, 53092, Note_on_c, 0, 61, 37
5, 53095, Note_on_c, 0, 87, 39
5, 53103, Control_c, 0, 64, 127
5, 53106, Note_on_c, 0, 60, 26
5, 53119, Note_on_c, 0, 94, 33
5, 53138, Note_on_c, 0, 99, 0
5, 53140, Note_on_c, 0, 60, 0
5, 53145, Note_on_c, 0, 94, 0
5, 53149, Note_on_c, 0, 65, 0
5, 53149, Note_on_c, 0, 87, 0
5, 53173, Note_on_c, 0, 61, 0
5, 53281, Control_c, 0, 64, 0
5, 53409, Note_on_c, 0, 61, 44
5, 53411, Control_c, 0, 64, 127
5, 53412, Note_on_c, 0, 97, 53
5, 53416, Note_on_c, 0, 85, 45
5, 53417, Note_on_c, 0, 65, 46
5, 53418, Note_on_c, 0, 56, 39
5, 53421, Note_on_c, 0, 92, 43
5, 53467, Note_on_c, 0, 92, 0
5, 53469, Note_on_c, 0, 97, 0
5, 53479, Note_on_c, 0, 85, 0
5, 53531, Note_on_c, 0, 65, 0
5, 53573, Note_on_c, 0, 61, 0
5, 53661, Note_on_c, 0, 56, 0
5, 53783, Control_c, 0, 64, 0
5, 53792, Note_on_c, 0, 62, 42
5, 53793, Note_on_c, 0, 91, 67
5, 53800, Note_on_c, 0, 66, 45
5, 53801, Note_on_c, 0, 86, 55
5, 53802, Note_on_c, 0, 79, 44
5, 53808, Note_on_c, 0, 59, 52
5, 53857, Note_on_c, 0, 79, 0
5, 53871, Note_on_c, 0, 86, 0
5, 53886, Note_on_c, 0, 55, 6
5, 53930, Note_on_c, 0, 86, 39
5, 53962, Note_on_c, 0, 86, 0
5, 53967, Note_on_c, 0, 55, 0
5, 53973, Note_on_c, 0, 91, 0
5, 53976, Note_on_c, 0, 66, 0
5, 53991, Note_on_c, 0, 59, 0
5, 54005, Note_on_c, 0, 62, 0
5, 54165, Note_on_c, 0, 62, 42
5, 54167, Note_on_c, 0, 66, 48
5, 54171, Note_on_c, 0, 59, 47
5, 54175, Control_c, 0, 64, 127
5, 54177, Note_on_c, 0, 91, 60
5, 54183, Note_on_c, 0, 79, 50
5, 54187, Note_on_c, 0, 86, 49
5, 54197, Note_on_c, 0, 55, 24
5, 54266, Note_on_c, 0, 79, 0
5, 54283, Note_on_c, 0, 86, 0
5, 54290, Note_on_c, 0, 62, 0
5, 54295, Note_on_c, 0, 91, 0
5, 54301, Note_on_c, 0, 55, 0
5, 54321, Note_on_c, 0, 59, 0
5, 54326, Note_on_c, 0, 66, 0
5, 54453, Note_on_c, 0, 85, 60
5, 54454, Note_on_c, 0, 66, 65
5, 54456, Note_on_c, 0, 61, 60
5, 54459, Note_on_c, 0, 91, 57
5, 54464, Note_on_c, 0, 55, 60
5, 54470, Note_on_c, 0, 79, 41
5, 54476, Control_c, 0, 64, 0
5, 54607, Control_c, 0, 64, 127
5, 54935, Note_on_c, 0, 55, 0
5, 54942, Note_on_c, 0, 66, 0
5, 54989, Note_on_c, 0, 61, 0
5, 55069, Note_on_c, 0, 79, 0
5, 55071, Note_on_c, 0, 91, 0
5, 55084, Note_on_c, 0, 85, 0
5, 55207, Control_c, 0, 64, 0
5, 55208, Note_on_c, 0, 63, 52
5, 55214, Note_on_c, 0, 53, 58
5, 55215, Note_on_c, 0, 60, 61
5, 55215, Note_on_c, 0, 91, 78
5, 55216, Note_on_c, 0, 58, 51
5, 55221, Note_on_c, 0, 79, 70
5, 55222, Note_on_c, 0, 84, 80
5, 55307, Note_on_c, 0, 79, 0
5, 55317, Control_c, 0, 64, 127
5, 55318, Note_on_c, 0, 84, 0
5, 55329, Note_on_c, 0, 63, 0
5, 55333, Note_on_c, 0, 53, 0
5, 55335, Note_on_c, 0, 60, 0
5, 55347, Note_on_c, 0, 91, 0
5, 55347, Note_on_c, 0, 58, 0
5, 55598, Note_on_c, 0, 60, 68
5, 55599, Note_on_c, 0, 63, 73
5, 55599, Note_on_c, 0, 53, 70
5, 55602, Note_on_c, 0, 96, 85
5, 55605, Note_on_c, 0, 58, 54
5, 55607, Note_on_c, 0, 91, 79
5, 55613, Note_on_c, 0, 84, 68
5, 55625, Control_c, 0, 64, 0
5, 55633, Note_on_c, 0, 86, 36
5, 55664, Note_on_c, 0, 86, 0
5, 55733, Control_c, 0, 64, 127
5, 55777, Note_on_c, 0, 96, 0
5, 55800, Note_on_c, 0, 91, 0
5, 55814, Note_on_c, 0, 53, 0
5, 55836, Note_on_c, 0, 84, 0
5, 55842, Note_on_c, 0, 63, 0
5, 55892, Note_on_c, 0, 60, 0
5, 55896, Note_on_c, 0, 58, 0
5, 56087, Control_c, 0, 64, 0
5, 56105, Note_on_c, 0, 91, 59
5, 56106, Note_on_c, 0, 63, 46
5, 56109, Note_on_c, 0, 60, 47
5, 56110, Note_on_c, 0, 53, 47
5, 56111, Note_on_c, 0, 79, 59
5, 56118, Note_on_c, 0, 84, 53
5, 56120, Note_on_c, 0, 58, 39
5, 56203, Control_c, 0, 64, 127
5, 56267, Note_on_c, 0, 91, 0
5, 56312, Note_on_c, 0, 84, 0
5, 56369, Note_on_c, 0, 79, 0
5, 56432, Note_on_c, 0, 58, 0
5, 56469, Note_on_c, 0, 60, 0
5, 56475, Note_on_c, 0, 53, 0
5, 56495, Note_on_c, 0, 63, 0
5, 56823, Note_on_c, 0, 63, 39
5, 56834, Control_c, 0, 64, 0
5, 56839, Note_on_c, 0, 77, 49
5, 56843, Note_on_c, 0, 53, 34
5, 56847, Note_on_c, 0, 58, 37
5, 56851, Note_on_c, 0, 72, 44
5, 56852, Note_on_c, 0, 65, 30
5, 56988, Control_c, 0, 64, 127
5, 57161, Note_on_c, 0, 77, 0
5, 57201, Note_on_c, 0, 72, 0
5, 57203, Note_on_c, 0, 63, 0
5, 57240, Note_on_c, 0, 58, 0
5, 57249, Note_on_c, 0, 65, 0
5, 57525, Note_on_c, 0, 53, 0
5, 57857, Note_on_c, 0, 63, 63
5, 57860, Note_on_c, 0, 75, 72
5, 57867, Note_on_c, 0, 68, 67
5, 57872, Note_on_c, 0, 65, 64
5, 57883, Note_on_c, 0, 72, 51
5, 57909, Note_on_c, 0, 72, 0
5, 57926, Note_on_c, 0, 68, 0
5, 57929, Note_on_c, 0, 65, 0
5, 57943, Note_on_c, 0, 75, 0
5, 57946, Note_on_c, 0, 63, 0
5, 57958, Control_c, 0, 64, 0
5, 58020, Note_on_c, 0, 61, 37
5, 58166, Control_c, 0, 64, 127
5, 58236, Note_on_c, 0, 75, 67
5, 58248, Note_on_c, 0, 70, 67
5, 58250, Note_on_c, 0, 64, 67
5, 58251, Note_on_c, 0, 63, 51
5, 58258, Note_on_c, 0, 67, 64
5, 58264, Note_on_c, 0, 61, 0
5, 58273, Control_c, 0, 64, 0
5, 58567, Control_c, 0, 64, 127
5, 58624, Note_on_c, 0, 67, 0
5, 58645, Note_on_c, 0, 64, 0
5, 58659, Control_c, 0, 64, 0
5, 58671, Note_on_c, 0, 70, 0
5, 58697, Note_on_c, 0, 75, 0
5, 58742, Note_on_c, 0, 64, 48
5, 58745, Note_on_c, 0, 61, 45
5, 58747, Note_on_c, 0, 70, 34
5, 58754, Note_on_c, 0, 73, 28
5, 58769, Note_on_c, 0, 63, 0
5, 58783, Note_on_c, 0, 68, 35
5, 58928, Control_c, 0, 64, 127
5, 58940, Note_on_c, 0, 68, 0
5, 58949, Note_on_c, 0, 70, 0
5, 58951, Note_on_c, 0, 64, 0
5, 58997, Note_on_c, 0, 73, 0
5, 59012, Note_on_c, 0, 61, 0
5, 59047, Note_on_c, 0, 58, 21
5, 59098, Control_c, 0, 64, 0
5, 59114, Note_on_c, 0, 58, 0
5, 59147, Note_on_c, 0, 75, 53
5, 59148, Note_on_c, 0, 63, 59
5, 59154, Note_on_c, 0, 64, 48
5, 59157, Note_on_c, 0, 68, 39
5, 59163, Note_on_c, 0, 70, 37
5, 59325, Note_on_c, 0, 68, 0
5, 59336, Control_c, 0, 64, 127
5, 59337, Note_on_c, 0, 70, 0
5, 59338, Note_on_c, 0, 64, 0
5, 59375, Note_on_c, 0, 75, 0
5, 59406, Note_on_c, 0, 63, 0
5, 59421, Control_c, 0, 64, 0
5, 59422, Note_on_c, 0, 68, 50
5, 59422, Note_on_c, 0, 73, 52
5, 59423, Note_on_c, 0, 61, 53
5, 59424, Note_on_c, 0, 64, 53
5, 59425, Note_on_c, 0, 70, 33
5, 59456, Note_on_c, 0, 70, 0
5, 59464, Note_on_c, 0, 73, 0
5, 59471, Note_on_c, 0, 68, 0
5, 59478, Note_on_c, 0, 64, 0
5, 59483, Note_on_c, 0, 61, 0
5, 59567, Control_c, 0, 64, 127
5, 59774, Note_on_c, 0, 46, 25
5, 59788, Note_on_c, 0, 63, 50
5, 59794, Note_on_c, 0, 55, 68
5, 59797, Note_on_c, 0, 58, 61
5, 59798, Note_on_c, 0, 60, 58
5, 59803, Note_on_c, 0, 46, 0
5, 59822, Note_on_c, 0, 48, 49
5, 59839, Control_c, 0, 64, 0
5, 60131, Control_c, 0, 64, 127
5, 60177, Control_c, 0, 64, 0
5, 60259, Note_on_c, 0, 63, 0
5, 60261, Note_on_c, 0, 55, 0
5, 60270, Note_on_c, 0, 48, 0
5, 60294, Note_on_c, 0, 60, 0
5, 60302, Note_on_c, 0, 55, 15
5, 60305, Note_on_c, 0, 47, 37
5, 60319, Note_on_c, 0, 62, 36
5, 60393, Control_c, 0, 64, 127
5, 60488, Note_on_c, 0, 55, 0
5, 60492, Note_on_c, 0, 58, 0
5, 60534, Note_on_c, 0, 62, 0
5, 60583, Note_on_c, 0, 47, 0
5, 60586, Control_c, 0, 64, 0
5, 60588, Note_on_c, 0, 63, 40
5, 60594, Note_on_c, 0, 55, 45
5, 60599, Note_on_c, 0, 58, 37
5, 60605, Note_on_c, 0, 60, 38
5, 60606, Note_on_c, 0, 48, 36
5, 60732, Control_c, 0, 64, 127
5, 61101, Note_on_c, 0, 48, 0
5, 61110, Note_on_c, 0, 60, 0
5, 61127, Note_on_c, 0, 55, 0
5, 61189, Note_on_c, 0, 63, 0
5, 61198, Note_on_c, 0, 58, 0
5, 61354, Note_on_c, 0, 51, 29
5, 61418, Note_on_c, 0, 54, 28
5, 61430, Note_on_c, 0, 51, 0
5, 61448, Note_on_c, 0, 67, 64
5, 61453, Note_on_c, 0, 54, 0
5, 61461, Note_on_c, 0, 56, 59
5, 61464, Control_c, 0, 64, 0
5, 61465, Note_on_c, 0, 59, 68
5, 61469, Note_on_c, 0, 55, 64
5, 61473, Note_on_c, 0, 62, 43
5, 61683, Note_on_c, 0, 55, 0
5, 61683, Note_on_c, 0, 54, 37
5, 61713, Note_on_c, 0, 67, 0
5, 61740, Control_c, 0, 64, 127
5, 61765, Note_on_c, 0, 62, 0
5, 61773, Note_on_c, 0, 56, 0
5, 61774, Note_on_c, 0, 59, 0
5, 61786, Note_on_c, 0, 54, 0
5, 61841, Note_on_c, 0, 53, 32
5, 61855, Control_c, 0, 64, 0
5, 61871, Note_on_c, 0, 56, 50
5, 61875, Note_on_c, 0, 62, 38
5, 61884, Note_on_c, 0, 65, 43
5, 61897, Note_on_c, 0, 59, 41
5, 62216, Note_on_c, 0, 56, 0
5, 62218, Control_c, 0, 64, 127
5, 62231, Note_on_c, 0, 59, 0
5, 62247, Note_on_c, 0, 62, 0
5, 62265, Note_on_c, 0, 65, 0
5, 62500, Note_on_c, 0, 53, 0
5, 62534, Control_c, 0, 64, 0
5, 62610, Control_c, 0, 64, 127
5, 62740, Note_on_c, 0, 65, 37
5, 62783, Note_on_c, 0, 65, 0
5, 62857, Note_on_c, 0, 74, 94
5, 62986, Note_on_c, 0, 65, 34
5, 62990, Note_on_c, 0, 61, 35
5, 62992, Note_on_c, 0, 56, 28
5, 63001, Note_on_c, 0, 73, 66
5, 63002, Note_on_c, 0, 74, 0
5, 63004, Control_c, 0, 64, 0
5, 63004, Note_on_c, 0, 60, 26
5, 63342, Control_c, 0, 64, 127
5, 63540, Note_on_c, 0, 65, 0
5, 63565, Note_on_c, 0, 60, 0
5, 63566, Note_on_c, 0, 56, 0
5, 63569, Note_on_c, 0, 61, 0
5, 63614, Note_on_c, 0, 73, 0
5, 63631, Note_on_c, 0, 73, 72
5, 63649, Note_on_c, 0, 61, 34
5, 63657, Note_on_c, 0, 65, 37
5, 63660, Note_on_c, 0, 60, 43
5, 63664, Note_on_c, 0, 56, 25
5, 63703, Control_c, 0, 64, 0
5, 63812, Control_c, 0, 64, 127
5, 63824, Note_on_c, 0, 65, 0
5, 63836, Note_on_c, 0, 61, 0
5, 63847, Note_on_c, 0, 73, 0
5, 63857, Note_on_c, 0, 60, 0
5, 63893, Note_on_c, 0, 77, 53
5, 63916, Note_on_c, 0, 65, 34
5, 63918, Note_on_c, 0, 61, 28
5, 63920, Note_on_c, 0, 60, 22
5, 63992, Note_on_c, 0, 65, 0
5, 64027, Note_on_c, 0, 61, 0
5, 64056, Note_on_c, 0, 56, 0
5, 64061, Note_on_c, 0, 60, 0
5, 64062, Note_on_c, 0, 77, 0
5, 64096, Control_c, 0, 64, 0
5, 64124, Note_on_c, 0, 56, 37
5, 64130, Control_c, 0, 64, 127
5, 64135, Note_on_c, 0, 65, 32
5, 64138, Note_on_c, 0, 60, 17
5, 64146, Note_on_c, 0, 80, 52
5, 64152, Note_on_c, 0, 61, 25
5, 64194, Note_on_c, 0, 65, 0
5, 64212, Note_on_c, 0, 60, 0
5, 64256, Note_on_c, 0, 80, 0
5, 64262, Note_on_c, 0, 61, 0
5, 64290, Note_on_c, 0, 56, 0
5, 64398, Note_on_c, 0, 88, 71
5, 64420, Note_on_c, 0, 66, 37
5, 64431, Note_on_c, 0, 55, 35
5, 64434, Note_on_c, 0, 61, 32
5, 64436, Control_c, 0, 64, 0
5, 64480, Note_on_c, 0, 55, 0
5, 64480, Note_on_c, 0, 66, 0
5, 64481, Note_on_c, 0, 88, 0
5, 64536, Note_on_c, 0, 61, 0
5, 64632, Note_on_c, 0, 66, 52
5, 64633, Note_on_c, 0, 89, 61
5, 64642, Note_on_c, 0, 77, 47
5, 64648, Note_on_c, 0, 61, 43
5, 64656, Note_on_c, 0, 55, 49
5, 64729, Note_on_c, 0, 77, 0
5, 64732, Note_on_c, 0, 55, 0
5, 64749, Note_on_c, 0, 66, 0
5, 64782, Note_on_c, 0, 89, 0
5, 64795, Note_on_c, 0, 61, 0
5, 64890, Control_c, 0, 64, 127
5, 64904, Note_on_c, 0, 66, 51
5, 64913, Note_on_c, 0, 89, 61
5, 64920, Note_on_c, 0, 61, 40
5, 64923, Note_on_c, 0, 55, 45
5, 64927, Note_on_c, 0, 77, 51
5, 65495, Note_on_c, 0, 77, 0
5, 65530, Note_on_c, 0, 89, 0
5, 65565, Note_on_c, 0, 55, 0
5, 65583, Note_on_c, 0, 66, 0
5, 65632, Note_on_c, 0, 61, 0
5, 66064, Note_on_c, 0, 63, 59
5, 66068, Control_c, 0, 64, 0
5, 66069, Note_on_c, 0, 92, 85
5, 66072, Note_on_c, 0, 80, 80
5, 66078, Note_on_c, 0, 56, 37
5, 66080, Note_on_c, 0, 60, 51
5, 66086, Note_on_c, 0, 53, 60
5, 66216, Note_on_c, 0, 92, 0
5, 66245, Note_on_c, 0, 60, 0
5, 66253, Note_on_c, 0, 80, 0
5, 66266, Note_on_c, 0, 53, 0
5, 66268, Note_on_c, 0, 63, 0
5, 66297, Note_on_c, 0, 56, 0
5, 66843, Note_on_c, 0, 75, 75
5, 66956, Note_on_c, 0, 75, 0
5, 67123, Note_on_c, 0, 72, 71
5, 67209, Note_on_c, 0, 72, 0
5, 67344, Note_on_c, 0, 66, 51
5, 67404, Note_on_c, 0, 66, 0
5, 67669, Note_on_c, 0, 67, 55
5, 67840, Note_on_c, 0, 67, 0
5, 67861, Note_on_c, 0, 68, 60
5, 67942, Note_on_c, 0, 68, 0
5, 67955, Note_on_c, 0, 67, 36
5, 67989, Note_on_c, 0, 67, 0
5, 68002, Note_on_c, 0, 65, 59
5, 68238, Note_on_c, 0, 65, 0
5, 68259, Note_on_c, 0, 64, 63
5, 68277, Note_on_c, 0, 58, 46
5, 68285, Note_on_c, 0, 48, 35
5, 68303, Note_on_c, 0, 58, 0
5, 68321, Note_on_c, 0, 48, 0
5, 68340, Note_on_c, 0, 64, 0
5, 68420, Note_on_c, 0, 63, 42
5, 68530, Note_on_c, 0, 63, 0
5, 68632, Note_on_c, 0, 61, 46
5, 68733, Note_on_c, 0, 61, 0
5, 68773, Note_on_c, 0, 60, 30
5, 68938, Note_on_c, 0, 60, 0
5, 69014, Note_on_c, 0, 58, 62
5, 69022, Note_on_c, 0, 41, 50
5, 69056, Note_on_c, 0, 41, 0
5, 69124, Note_on_c, 0, 58, 0
5, 69168, Note_on_c, 0, 56, 37
5, 69407, Note_on_c, 0, 56, 0
5, 69428, Note_on_c, 0, 53, 43
5, 69464, Note_on_c, 0, 53, 0
5, 69532, Note_on_c, 0, 55, 55
5, 69764, Note_on_c, 0, 55, 0
5, 69815, Note_on_c, 0, 52, 44
5, 69863, Note_on_c, 0, 52, 0
5, 69922, Note_on_c, 0, 53, 36
5, 70157, Note_on_c, 0, 53, 0
5, 70182, Note_on_c, 0, 48, 64
5, 70229, Note_on_c, 0, 48, 0
5, 70637, Note_on_c, 0, 56, 46
5, 70642, Note_on_c, 0, 60, 37
5, 70643, Note_on_c, 0, 65, 46
5, 70660, Note_on_c, 0, 61, 33
5, 70684, Note_on_c, 0, 65, 0
5, 70706, Note_on_c, 0, 60, 0
5, 70729, Note_on_c, 0, 56, 0
5, 70732, Note_on_c, 0, 61, 0
5, 71320, Note_on_c, 0, 60, 44
5, 71327, Note_on_c, 0, 65, 36
5, 71335, Note_on_c, 0, 61, 28
5, 71336, Note_on_c, 0, 56, 21
5, 71360, Note_on_c, 0, 65, 0
5, 71372, Note_on_c, 0, 56, 0
5, 71377, Note_on_c, 0, 60, 0
5, 71395, Note_on_c, 0, 61, 0
5, 72082, Note_on_c, 0, 62, 45
5, 72085, Note_on_c, 0, 66, 42
5, 72100, Note_on_c, 0, 55, 31
5, 72101, Note_on_c, 0, 59, 36
5, 72205, Note_on_c, 0, 93, 96
5, 72207, Note_on_c, 0, 81, 85
5, 72243, Control_c, 0, 64, 127
5, 72359, Note_on_c, 0, 55, 0
5, 72366, Note_on_c, 0, 62, 0
5, 72379, Note_on_c, 0, 59, 0
5, 72392, Note_on_c, 0, 93, 0
5, 72399, Note_on_c, 0, 81, 0
5, 72407, Note_on_c, 0, 66, 0
5, 72490, Note_on_c, 0, 89, 46
5, 72528, Note_on_c, 0, 89, 0
5, 72550, Control_c, 0, 64, 0
5, 72584, Note_on_c, 0, 62, 34
5, 72597, Note_on_c, 0, 66, 59
5, 72601, Note_on_c, 0, 93, 94
5, 72604, Note_on_c, 0, 81, 81
5, 72613, Note_on_c, 0, 59, 25
5, 72616, Note_on_c, 0, 55, 31
5, 72620, Control_c, 0, 64, 127
5, 72740, Note_on_c, 0, 55, 0
5, 72750, Note_on_c, 0, 62, 0
5, 72752, Note_on_c, 0, 66, 0
5, 72767, Note_on_c, 0, 59, 0
5, 72801, Note_on_c, 0, 81, 0
5, 72809, Note_on_c, 0, 93, 0
5, 72856, Note_on_c, 0, 66, 57
5, 72866, Note_on_c, 0, 61, 55
5, 72867, Note_on_c, 0, 55, 59
5, 72868, Note_on_c, 0, 88, 74
5, 72974, Note_on_c, 0, 66, 0
5, 72974, Control_c, 0, 64, 0
5, 72977, Note_on_c, 0, 88, 0
5, 72981, Note_on_c, 0, 55, 0
5, 73034, Note_on_c, 0, 66, 37
5, 73044, Control_c, 0, 64, 127
5, 73044, Note_on_c, 0, 55, 26
5, 73048, Note_on_c, 0, 86, 58
5, 73159, Note_on_c, 0, 55, 0
5, 73177, Note_on_c, 0, 66, 0
5, 73206, Note_on_c, 0, 86, 0
5, 73229, Note_on_c, 0, 61, 0
5, 73275, Note_on_c, 0, 66, 52
5, 73279, Note_on_c, 0, 61, 35
5, 73281, Note_on_c, 0, 85, 47
5, 73309, Note_on_c, 0, 85, 0
5, 73320, Control_c, 0, 64, 0
5, 73325, Note_on_c, 0, 66, 0
5, 73378, Note_on_c, 0, 61, 0
5, 73482, Control_c, 0, 64, 127
5, 73644, Control_c, 0, 64, 0
5, 73645, Note_on_c, 0, 63, 64
5, 73648, Note_on_c, 0, 60, 64
5, 73650, Note_on_c, 0, 87, 88
5, 73653, Note_on_c, 0, 53, 54
5, 73657, Note_on_c, 0, 58, 46
5, 73775, Control_c, 0, 64, 127
5, 73888, Note_on_c, 0, 53, 0
5, 73893, Note_on_c, 0, 60, 0
5, 73911, Note_on_c, 0, 58, 0
5, 73961, Note_on_c, 0, 63, 0
5, 74016, Note_on_c, 0, 87, 0
5, 74019, Note_on_c, 0, 85, 57
5, 74045, Note_on_c, 0, 85, 0
5, 74113, Control_c, 0, 64, 0
5, 74160, Note_on_c, 0, 60, 40
5, 74162, Note_on_c, 0, 63, 49
5, 74163, Note_on_c, 0, 87, 81
5, 74175, Note_on_c, 0, 58, 38
5, 74183, Note_on_c, 0, 53, 35
5, 74198, Control_c, 0, 64, 127
5, 74266, Note_on_c, 0, 63, 0
5, 74276, Note_on_c, 0, 53, 0
5, 74302, Note_on_c, 0, 58, 0
5, 74306, Note_on_c, 0, 60, 0
5, 74332, Note_on_c, 0, 87, 0
5, 74424, Note_on_c, 0, 63, 49
5, 74429, Note_on_c, 0, 84, 74
5, 74434, Note_on_c, 0, 60, 52
5, 74449, Note_on_c, 0, 58, 36
5, 74451, Note_on_c, 0, 53, 28
5, 74467, Control_c, 0, 64, 0
5, 74551, Note_on_c, 0, 84, 0
5, 74552, Note_on_c, 0, 63, 0
5, 74575, Control_c, 0, 64, 127
5, 74644, Note_on_c, 0, 60, 0
5, 74653, Note_on_c, 0, 58, 0
5, 74670, Note_on_c, 0, 82, 69
5, 74672, Note_on_c, 0, 53, 0
5, 74799, Note_on_c, 0, 63, 44
5, 74807, Note_on_c, 0, 58, 33
5, 74812, Note_on_c, 0, 60, 43
5, 74813, Note_on_c, 0, 82, 0
5, 74853, Control_c, 0, 64, 0
5, 74864, Note_on_c, 0, 63, 0
5, 74916, Note_on_c, 0, 60, 0
5, 74919, Note_on_c, 0, 58, 0
5, 74919, Note_on_c, 0, 79, 63
5, 74922, Control_c, 0, 64, 127
5, 75101, Note_on_c, 0, 79, 0
5, 75144, Note_on_c, 0, 60, 44
5, 75150, Note_on_c, 0, 56, 48
5, 75155, Note_on_c, 0, 53, 33
5, 75156, Note_on_c, 0, 63, 40
5, 75163, Note_on_c, 0, 77, 75
5, 75183, Control_c, 0, 64, 0
5, 75275, Note_on_c, 0, 63, 0
5, 75299, Note_on_c, 0, 77, 0
5, 75338, Control_c, 0, 64, 127
5, 75364, Note_on_c, 0, 60, 0
5, 75398, Note_on_c, 0, 56, 0
5, 75411, Note_on_c, 0, 75, 56
5, 75490, Note_on_c, 0, 56, 21
5, 75491, Note_on_c, 0, 60, 22
5, 75516, Note_on_c, 0, 53, 0
5, 75536, Note_on_c, 0, 60, 0
5, 75561, Control_c, 0, 64, 0
5, 75578, Note_on_c, 0, 75, 0
5, 75638, Control_c, 0, 64, 127
5, 75653, Note_on_c, 0, 72, 70
5, 75663, Note_on_c, 0, 56, 0
5, 75741, Note_on_c, 0, 72, 0
5, 75907, Note_on_c, 0, 68, 63
5, 75908, Note_on_c, 0, 63, 46
5, 75909, Note_on_c, 0, 60, 47
5, 75925, Note_on_c, 0, 56, 34
5, 75936, Note_on_c, 0, 63, 0
5, 75961, Control_c, 0, 64, 0
5, 75962, Note_on_c, 0, 60, 0
5, 76041, Note_on_c, 0, 56, 0
5, 76054, Note_on_c, 0, 68, 0
5, 76150, Note_on_c, 0, 65, 51
5, 76311, Note_on_c, 0, 63, 52
5, 76331, Note_on_c, 0, 58, 33
5, 76337, Note_on_c, 0, 63, 0
5, 76355, Note_on_c, 0, 65, 0
5, 76370, Note_on_c, 0, 58, 0
5, 76427, Note_on_c, 0, 68, 62
5, 76454, Control_c, 0, 64, 127
5, 76641, Note_on_c, 0, 68, 0
5, 76678, Control_c, 0, 64, 0
5, 76679, Note_on_c, 0, 60, 58
5, 76682, Note_on_c, 0, 50, 49
5, 76685, Note_on_c, 0, 57, 48
5, 76687, Note_on_c, 0, 53, 49
5, 76701, Note_on_c, 0, 69, 72
5, 76724, Note_on_c, 0, 50, 0
5, 76724, Note_on_c, 0, 60, 0
5, 76762, Note_on_c, 0, 53, 0
5, 76771, Note_on_c, 0, 57, 0
5, 76831, Control_c, 0, 64, 127
5, 76877, Note_on_c, 0, 69, 0
5, 76939, Note_on_c, 0, 70, 78
5, 77102, Control_c, 0, 64, 0
5, 77120, Note_on_c, 0, 70, 0
5, 77191, Note_on_c, 0, 71, 75
5, 77201, Control_c, 0, 64, 127
5, 77365, Note_on_c, 0, 71, 0
5, 77422, Note_on_c, 0, 64, 55
5, 77449, Note_on_c, 0, 64, 0
5, 77449, Note_on_c, 0, 74, 71
5, 77450, Note_on_c, 0, 59, 54
5, 77450, Note_on_c, 0, 72, 67
5, 77452, Note_on_c, 0, 53, 38
5, 77470, Control_c, 0, 64, 0
5, 77536, Note_on_c, 0, 74, 0
5, 77579, Note_on_c, 0, 59, 0
5, 77585, Note_on_c, 0, 72, 0
5, 77593, Control_c, 0, 64, 127
5, 77633, Note_on_c, 0, 70, 53
5, 77688, Note_on_c, 0, 53, 0
5, 77858, Note_on_c, 0, 70, 0
5, 77871, Control_c, 0, 64, 0
5, 77893, Note_on_c, 0, 59, 34
5, 77903, Note_on_c, 0, 74, 77
5, 77914, Note_on_c, 0, 62, 48
5, 77934, Note_on_c, 0, 59, 0
5, 77963, Control_c, 0, 64, 127
5, 78012, Note_on_c, 0, 62, 0
5, 78032, Note_on_c, 0, 74, 0
5, 78059, Note_on_c, 0, 70, 35
5, 78163, Note_on_c, 0, 70, 0
5, 78216, Note_on_c, 0, 64, 74
5, 78217, Note_on_c, 0, 76, 82
5, 78226, Note_on_c, 0, 59, 41
5, 78246, Note_on_c, 0, 52, 51
5, 78254, Note_on_c, 0, 55, 36
5, 78272, Control_c, 0, 64, 0
5, 78290, Note_on_c, 0, 59, 0
5, 78297, Note_on_c, 0, 55, 0
5, 78343, Note_on_c, 0, 64, 0
5, 78375, Note_on_c, 0, 52, 0
5, 78378, Note_on_c, 0, 76, 0
5, 78407, Note_on_c, 0, 71, 27
5, 78479, Control_c, 0, 64, 127
5, 78481, Note_on_c, 0, 71, 0
5, 78529, Note_on_c, 0, 78, 71
5, 78530, Note_on_c, 0, 66, 58
5, 78547, Note_on_c, 0, 55, 74
5, 78561, Note_on_c, 0, 54, 49
5, 78669, Note_on_c, 0, 54, 0
5, 78702, Control_c, 0, 64, 0
5, 78707, Note_on_c, 0, 78, 0
5, 78736, Note_on_c, 0, 66, 0
5, 78804, Note_on_c, 0, 79, 56
5, 78813, Note_on_c, 0, 67, 30
5, 78818, Control_c, 0, 64, 127
5, 78851, Note_on_c, 0, 55, 0
5, 78922, Note_on_c, 0, 67, 0
5, 78938, Note_on_c, 0, 79, 0
5, 79040, Note_on_c, 0, 81, 71
5, 79040, Note_on_c, 0, 69, 66
5, 79042, Note_on_c, 0, 62, 37
5, 79048, Note_on_c, 0, 57, 47
5, 79049, Note_on_c, 0, 52, 45
5, 79066, Control_c, 0, 64, 0
5, 79134, Note_on_c, 0, 69, 0
5, 79146, Note_on_c, 0, 81, 0
5, 79197, Control_c, 0, 64, 127
5, 79244, Note_on_c, 0, 83, 65
5, 79270, Note_on_c, 0, 71, 22
5, 79338, Note_on_c, 0, 71, 0
5, 79359, Note_on_c, 0, 83, 0
5, 79451, Control_c, 0, 64, 0
5, 79474, Control_c, 0, 64, 127
5, 79484, Note_on_c, 0, 57, 0
5, 79505, Note_on_c, 0, 86, 72
5, 79519, Note_on_c, 0, 74, 41
5, 79522, Note_on_c, 0, 52, 0
5, 79574, Note_on_c, 0, 62, 0
5, 79677, Note_on_c, 0, 74, 0
5, 79704, Note_on_c, 0, 86, 0
5, 79736, Control_c, 0, 64, 0
5, 79774, Note_on_c, 0, 62, 34
5, 79774, Note_on_c, 0, 83, 61
5, 79777, Note_on_c, 0, 59, 32
5, 79784, Note_on_c, 0, 55, 44
5, 79788, Note_on_c, 0, 52, 26
5, 80261, Control_c, 0, 64, 127
5, 80427, Note_on_c, 0, 59, 0
5, 80441, Note_on_c, 0, 55, 0
5, 80476, Note_on_c, 0, 62, 0
5, 80622, Note_on_c, 0, 83, 0
5, 80654, Control_c, 0, 64, 0
5, 80655, Note_on_c, 0, 62, 41
5, 80661, Note_on_c, 0, 55, 36
5, 80663, Note_on_c, 0, 79, 34
5, 80668, Note_on_c, 0, 59, 32
5, 80684, Note_on_c, 0, 52, 0
5, 80694, Note_on_c, 0, 79, 0
5, 80700, Note_on_c, 0, 62, 0
5, 80704, Note_on_c, 0, 59, 0
5, 80707, Note_on_c, 0, 55, 0
5, 81317, Note_on_c, 0, 63, 36
5, 81329, Note_on_c, 0, 62, 31
5, 81365, Note_on_c, 0, 62, 0
5, 81397, Note_on_c, 0, 63, 0
5, 81414, Note_on_c, 0, 74, 110
5, 81419, Note_on_c, 0, 79, 79
5, 81532, Note_on_c, 0, 74, 0
5, 81548, Note_on_c, 0, 75, 50
5, 81647, Note_on_c, 0, 74, 36
5, 81653, Note_on_c, 0, 79, 0
5, 81688, Note_on_c, 0, 75, 0
5, 81713, Note_on_c, 0, 67, 30
5, 81715, Note_on_c, 0, 74, 0
5, 81723, Note_on_c, 0, 72, 44
5, 81733, Note_on_c, 0, 63, 26
5, 81753, Note_on_c, 0, 67, 0
5, 81782, Note_on_c, 0, 72, 0
5, 81837, Note_on_c, 0, 79, 74
5, 81838, Note_on_c, 0, 63, 0
5, 81843, Note_on_c, 0, 74, 76
5, 81969, Note_on_c, 0, 74, 0
5, 81998, Note_on_c, 0, 75, 36
5, 82059, Note_on_c, 0, 79, 0
5, 82081, Note_on_c, 0, 74, 30
5, 82143, Note_on_c, 0, 75, 0
5, 82163, Note_on_c, 0, 74, 0
5, 82188, Note_on_c, 0, 72, 29
5, 82232, Control_c, 0, 64, 127
5, 82316, Note_on_c, 0, 72, 0
5, 82459, Note_on_c, 0, 79, 77
5, 82460, Note_on_c, 0, 74, 94
5, 82463, Control_c, 0, 64, 0
5, 82471, Note_on_c, 0, 63, 35
5, 82478, Note_on_c, 0, 62, 37
5, 82485, Note_on_c, 0, 67, 24
5, 82486, Note_on_c, 0, 58, 23
5, 82513, Note_on_c, 0, 62, 0
5, 82517, Note_on_c, 0, 67, 0
5, 82575, Note_on_c, 0, 63, 0
5, 82575, Note_on_c, 0, 58, 0
5, 82620, Note_on_c, 0, 74, 0
5, 82625, Control_c, 0, 64, 127
5, 82659, Note_on_c, 0, 75, 38
5, 82757, Note_on_c, 0, 79, 0
5, 82773, Note_on_c, 0, 74, 45
5, 82836, Note_on_c, 0, 75, 0
5, 82855, Note_on_c, 0, 74, 0
5, 82876, Note_on_c, 0, 72, 60
5, 82945, Note_on_c, 0, 63, 32
5, 82952, Note_on_c, 0, 56, 28
5, 82953, Note_on_c, 0, 67, 24
5, 82956, Note_on_c, 0, 72, 0
5, 82964, Control_c, 0, 64, 0
5, 82969, Note_on_c, 0, 60, 37
5, 83003, Note_on_c, 0, 75, 62
5, 83009, Note_on_c, 0, 80, 52
5, 83239, Note_on_c, 0, 72, 48
5, 83276, Note_on_c, 0, 75, 0
5, 83286, Note_on_c, 0, 80, 0
5, 83316, Note_on_c, 0, 72, 0
5, 83334, Note_on_c, 0, 67, 0
5, 83335, Note_on_c, 0, 60, 0
5, 83341, Control_c, 0, 64, 127
5, 83367, Note_on_c, 0, 63, 0
5, 83388, Note_on_c, 0, 56, 0
5, 83650, Note_on_c, 0, 53, 46
5, 83679, Note_on_c, 0, 53, 0
5, 83682, Note_on_c, 0, 54, 47
5, 83717, Note_on_c, 0, 67, 55
5, 83729, Note_on_c, 0, 60, 64
5, 83730, Note_on_c, 0, 56, 51
5, 83734, Control_c, 0, 64, 0
5, 83736, Note_on_c, 0, 55, 56
5, 83740, Note_on_c, 0, 63, 44
5, 83775, Note_on_c, 0, 54, 0
5, 83852, Note_on_c, 0, 67, 0
5, 83899, Note_on_c, 0, 60, 0
5, 83909, Note_on_c, 0, 56, 0
5, 83940, Note_on_c, 0, 63, 0
5, 83975, Note_on_c, 0, 66, 54
5, 83978, Note_on_c, 0, 56, 46
5, 83984, Note_on_c, 0, 55, 0
5, 83988, Note_on_c, 0, 54, 44
5, 83995, Note_on_c, 0, 63, 25
5, 83997, Note_on_c, 0, 60, 46
5, 84052, Note_on_c, 0, 66, 0
5, 84059, Note_on_c, 0, 56, 0
5, 84090, Note_on_c, 0, 54, 0
5, 84107, Note_on_c, 0, 63, 0
5, 84138, Note_on_c, 0, 65, 34
5, 84138, Note_on_c, 0, 56, 20
5, 84143, Note_on_c, 0, 53, 35
5, 84269, Note_on_c, 0, 65, 0
5, 84271, Note_on_c, 0, 56, 0
5, 84275, Note_on_c, 0, 60, 0
5, 84363, Note_on_c, 0, 51, 43
5, 84368, Note_on_c, 0, 53, 0
5, 84371, Note_on_c, 0, 56, 52
5, 84372, Note_on_c, 0, 63, 42
5, 84378, Note_on_c, 0, 60, 56
5, 84462, Note_on_c, 0, 60, 0
5, 84471, Note_on_c, 0, 51, 0
5, 84474, Note_on_c, 0, 56, 0
5, 84545, Note_on_c, 0, 47, 46
5, 84556, Note_on_c, 0, 57, 30
5, 84557, Note_on_c, 0, 62, 34
5, 84650, Control_c, 0, 64, 127
5, 84720, Note_on_c, 0, 57, 0
5, 84766, Note_on_c, 0, 62, 0
5, 84791, Note_on_c, 0, 47, 0
5, 84820, Note_on_c, 0, 63, 0
5, 85242, Control_c, 0, 64, 0
5, 85251, Note_on_c, 0, 76, 69
5, 85255, Note_on_c, 0, 56, 62
5, 85258, Note_on_c, 0, 67, 65
5, 85259, Note_on_c, 0, 72, 66
5, 85261, Note_on_c, 0, 62, 62
5, 85315, Note_on_c, 0, 67, 0
5, 85316, Note_on_c, 0, 72, 0
5, 85331, Note_on_c, 0, 76, 0
5, 85368, Note_on_c, 0, 79, 73
5, 85476, Note_on_c, 0, 79, 0
5, 85508, Note_on_c, 0, 56, 0
5, 85530, Note_on_c, 0, 62, 0
5, 85636, Control_c, 0, 64, 127
5, 85646, Note_on_c, 0, 67, 41
5, 85649, Note_on_c, 0, 72, 54
5, 85650, Note_on_c, 0, 62, 44
5, 85653, Note_on_c, 0, 56, 52
5, 85730, Note_on_c, 0, 67, 0
5, 85731, Note_on_c, 0, 72, 0
5, 85758, Note_on_c, 0, 62, 0
5, 85784, Note_on_c, 0, 77, 60
5, 85827, Note_on_c, 0, 56, 0
5, 85885, Note_on_c, 0, 77, 0
5, 85977, Control_c, 0, 64, 0
5, 86037, Note_on_c, 0, 70, 52
5, 86041, Note_on_c, 0, 65, 38
5, 86044, Note_on_c, 0, 62, 32
5, 86051, Note_on_c, 0, 60, 33
5, 86058, Note_on_c, 0, 55, 42
5, 86114, Note_on_c, 0, 65, 0
5, 86131, Note_on_c, 0, 60, 0
5, 86133, Note_on_c, 0, 70, 0
5, 86170, Note_on_c, 0, 74, 37
5, 86184, Note_on_c, 0, 60, 20
5, 86215, Control_c, 0, 64, 127
5, 86289, Note_on_c, 0, 74, 0
5, 86322, Note_on_c, 0, 60, 0
5, 86327, Note_on_c, 0, 55, 0
5, 86335, Note_on_c, 0, 62, 0
5, 86385, Control_c, 0, 64, 0
5, 86428, Note_on_c, 0, 62, 44
5, 86454, Note_on_c, 0, 55, 36
5, 86454, Note_on_c, 0, 60, 29
5, 86493, Control_c, 0, 64, 127
5, 86498, Note_on_c, 0, 55, 0
5, 86545, Note_on_c, 0, 60, 0
5, 86557, Note_on_c, 0, 70, 46
5, 86604, Note_on_c, 0, 55, 18
5, 86618, Note_on_c, 0, 62, 0
5, 86726, Note_on_c, 0, 55, 0
5, 86754, Note_on_c, 0, 70, 0
5, 86777, Control_c, 0, 64, 0
5, 86821, Note_on_c, 0, 60, 44
5, 86825, Note_on_c, 0, 55, 45
5, 86838, Note_on_c, 0, 65, 50
5, 86884, Control_c, 0, 64, 127
5, 86924, Note_on_c, 0, 55, 0
5, 86934, Note_on_c, 0, 60, 0
5, 87018, Note_on_c, 0, 65, 0
5, 87116, Control_c, 0, 64, 0
5, 87152, Note_on_c, 0, 55, 35
5, 87177, Note_on_c, 0, 63, 62
5, 87190, Note_on_c, 0, 60, 47
5, 87216, Control_c, 0, 64, 127
5, 87221, Note_on_c, 0, 55, 0
5, 87265, Note_on_c, 0, 60, 0
5, 87314, Note_on_c, 0, 63, 0
5, 87327, Note_on_c, 0, 65, 36
5, 87359, Note_on_c, 0, 65, 0
5, 87510, Note_on_c, 0, 44, 48
5, 87513, Note_on_c, 0, 55, 37
5, 87520, Note_on_c, 0, 51, 38
5, 87523, Control_c, 0, 64, 0
5, 87535, Note_on_c, 0, 59, 33
5, 87542, Note_on_c, 0, 60, 31
5, 87576, Note_on_c, 0, 59, 0
5, 88174, Note_on_c, 0, 51, 0
5, 88229, Note_on_c, 0, 55, 0
5, 88331, Note_on_c, 0, 60, 0
5, 88334, Note_on_c, 0, 55, 30
5, 88340, Control_c, 0, 64, 127
5, 88349, Note_on_c, 0, 51, 32
5, 88606, Note_on_c, 0, 44, 0
5, 88652, Note_on_c, 0, 51, 0
5, 88675, Note_on_c, 0, 55, 0
5, 88708, Note_on_c, 0, 60, 53
5, 88740, Control_c, 0, 64, 0
5, 88775, Note_on_c, 0, 60, 0
5, 88824, Note_on_c, 0, 62, 39
5, 88889, Note_on_c, 0, 62, 0
5, 88921, Note_on_c, 0, 63, 37
5, 88964, Note_on_c, 0, 63, 0
5, 89030, Note_on_c, 0, 65, 54
5, 89075, Note_on_c, 0, 55, 26
5, 89085, Note_on_c, 0, 60, 25
5, 89105, Note_on_c, 0, 65, 0
5, 89139, Note_on_c, 0, 67, 48
5, 89204, Note_on_c, 0, 63, 1
5, 89250, Note_on_c, 0, 67, 0
5, 89287, Note_on_c, 0, 60, 0
5, 89396, Note_on_c, 0, 60, 17
5, 89456, Note_on_c, 0, 60, 0
5, 89469, Note_on_c, 0, 63, 0
5, 89487, Note_on_c, 0, 55, 0
5, 89710, Note_on_c, 0, 65, 47
5, 89721, Note_on_c, 0, 60, 44
5, 89729, Note_on_c, 0, 58, 31
5, 89736, Note_on_c, 0, 54, 23
5, 89978, Note_on_c, 0, 82, 63
5, 89995, Note_on_c, 0, 65, 0
5, 90084, Note_on_c, 0, 87, 67
5, 90087, Note_on_c, 0, 82, 0
5, 90123, Note_on_c, 0, 65, 42
5, 90135, Note_on_c, 0, 87, 0
5, 90177, Note_on_c, 0, 65, 0
5, 90190, Note_on_c, 0, 89, 78
5, 90254, Note_on_c, 0, 89, 0
5, 90267, Note_on_c, 0, 60, 0
5, 90288, Note_on_c, 0, 94, 62
5, 90311, Note_on_c, 0, 58, 0
5, 90367, Note_on_c, 0, 54, 0
5, 90386, Note_on_c, 0, 99, 64
5, 90408, Note_on_c, 0, 94, 0
5, 90469, Note_on_c, 0, 99, 0
5, 90483, Note_on_c, 0, 101, 85
5, 90578, Note_on_c, 0, 59, 33
5, 90580, Note_on_c, 0, 101, 0
5, 90582, Note_on_c, 0, 62, 26
5, 90587, Note_on_c, 0, 57, 39
5, 90694, Note_on_c, 0, 98, 68
5, 90698, Note_on_c, 0, 96, 75
5, 90724, Note_on_c, 0, 96, 0
5, 90813, Note_on_c, 0, 98, 0
5, 90858, Note_on_c, 0, 95, 85
5, 90926, Note_on_c, 0, 95, 0
5, 91028, Note_on_c, 0, 90, 62
5, 91033, Note_on_c, 0, 62, 0
5, 91099, Note_on_c, 0, 59, 0
5, 91124, Note_on_c, 0, 90, 0
5, 91149, Note_on_c, 0, 88, 51
5, 91219, Note_on_c, 0, 88, 0
5, 91280, Note_on_c, 0, 90, 79
5, 91300, Note_on_c, 0, 62, 38
5, 91337, Note_on_c, 0, 59, 24
5, 91363, Note_on_c, 0, 62, 0
5, 91483, Note_on_c, 0, 90, 0
5, 91485, Note_on_c, 0, 57, 0
5, 91492, Note_on_c, 0, 59, 0
5, 91515, Note_on_c, 0, 86, 69
5, 91585, Note_on_c, 0, 86, 0
5, 91640, Note_on_c, 0, 88, 66
5, 91731, Note_on_c, 0, 88, 0
5, 91735, Note_on_c, 0, 59, 11
5, 91737, Note_on_c, 0, 57, 17
5, 91778, Note_on_c, 0, 83, 52
5, 91858, Note_on_c, 0, 57, 0
5, 91879, Note_on_c, 0, 59, 0
5, 91941, Note_on_c, 0, 83, 0
5, 92036, Note_on_c, 0, 62, 47
5, 92048, Note_on_c, 0, 59, 41
5, 92068, Note_on_c, 0, 57, 28
5, 92102, Note_on_c, 0, 57, 0
5, 92104, Note_on_c, 0, 62, 0
5, 92119, Note_on_c, 0, 59, 0
5, 92433, Note_on_c, 0, 62, 49
5, 92443, Note_on_c, 0, 86, 89
5, 92449, Note_on_c, 0, 59, 40
5, 92466, Note_on_c, 0, 62, 0
5, 92471, Note_on_c, 0, 57, 19
5, 92551, Note_on_c, 0, 86, 0
5, 92570, Note_on_c, 0, 59, 0
5, 92583, Note_on_c, 0, 81, 28
5, 92584, Note_on_c, 0, 57, 0
5, 92654, Note_on_c, 0, 82, 31
5, 92684, Note_on_c, 0, 81, 0
5, 92730, Note_on_c, 0, 82, 0
5, 92749, Note_on_c, 0, 83, 49
5, 92785, Note_on_c, 0, 83, 0
5, 92838, Note_on_c, 0, 86, 72
5, 92853, Note_on_c, 0, 62, 29
5, 92861, Note_on_c, 0, 74, 49
5, 92893, Note_on_c, 0, 62, 0
5, 92924, Note_on_c, 0, 86, 0
5, 92985, Note_on_c, 0, 74, 0
5, 93019, Note_on_c, 0, 81, 30
5, 93053, Note_on_c, 0, 82, 31
5, 93107, Note_on_c, 0, 82, 0
5, 93130, Note_on_c, 0, 83, 55
5, 93134, Note_on_c, 0, 81, 0
5, 93193, Note_on_c, 0, 83, 0
5, 93208, Note_on_c, 0, 86, 81
5, 93248, Note_on_c, 0, 62, 43
5, 93294, Note_on_c, 0, 62, 0
5, 93316, Note_on_c, 0, 86, 0
5, 93327, Note_on_c, 0, 82, 42
5, 93380, Note_on_c, 0, 82, 0
5, 93432, Note_on_c, 0, 81, 19
5, 93446, Note_on_c, 0, 82, 35
5, 93477, Note_on_c, 0, 81, 0
5, 93489, Note_on_c, 0, 82, 0
5, 93505, Note_on_c, 0, 83, 44
5, 93549, Note_on_c, 0, 83, 0
5, 93583, Note_on_c, 0, 86, 77
5, 93614, Note_on_c, 0, 74, 68
5, 93625, Note_on_c, 0, 64, 44
5, 93635, Note_on_c, 0, 60, 40
5, 93642, Note_on_c, 0, 59, 27
5, 93667, Note_on_c, 0, 64, 0
5, 93694, Note_on_c, 0, 86, 0
5, 93704, Note_on_c, 0, 60, 0
5, 93707, Note_on_c, 0, 59, 0
5, 93733, Note_on_c, 0, 81, 29
5, 93748, Note_on_c, 0, 74, 0
5, 93796, Note_on_c, 0, 82, 35
5, 93834, Note_on_c, 0, 81, 0
5, 93853, Note_on_c, 0, 82, 0
5, 93884, Note_on_c, 0, 83, 36
5, 93930, Note_on_c, 0, 83, 0
5, 93968, Note_on_c, 0, 86, 78
5, 93996, Note_on_c, 0, 74, 42
5, 94040, Note_on_c, 0, 64, 34
5, 94048, Note_on_c, 0, 60, 33
5, 94067, Note_on_c, 0, 59, 29
5, 94070, Note_on_c, 0, 86, 0
5, 94091, Note_on_c, 0, 64, 0
5, 94128, Note_on_c, 0, 60, 0
5, 94131, Note_on_c, 0, 59, 0
5, 94137, Note_on_c, 0, 81, 30
5, 94138, Note_on_c, 0, 74, 0
5, 94171, Note_on_c, 0, 82, 33
5, 94208, Note_on_c, 0, 81, 0
5, 94228, Note_on_c, 0, 82, 0
5, 94362, Note_on_c, 0, 86, 79
5, 94381, Note_on_c, 0, 74, 59
5, 94455, Note_on_c, 0, 74, 0
5, 94472, Note_on_c, 0, 86, 0
5, 94491, Note_on_c, 0, 74, 18
5, 94508, Note_on_c, 0, 83, 51
5, 94607, Control_c, 0, 64, 127
5, 94650, Note_on_c, 0, 74, 0
5, 94734, Note_on_c, 0, 64, 54
5, 94745, Note_on_c, 0, 60, 48
5, 94747, Note_on_c, 0, 59, 44
5, 94755, Note_on_c, 0, 55, 34
5, 94761, Control_c, 0, 64, 0
5, 94770, Note_on_c, 0, 64, 0
5, 94774, Note_on_c, 0, 60, 0
5, 94779, Note_on_c, 0, 59, 0
5, 94791, Note_on_c, 0, 55, 0
5, 94905, Note_on_c, 0, 74, 11
5, 95233, Note_on_c, 0, 65, 44
5, 95234, Note_on_c, 0, 74, 0
5, 95237, Note_on_c, 0, 54, 40
5, 95240, Note_on_c, 0, 83, 0
5, 95240, Note_on_c, 0, 60, 40
5, 95647, Control_c, 0, 64, 127
5, 95765, Note_on_c, 0, 65, 0
5, 95790, Note_on_c, 0, 60, 0
5, 95844, Note_on_c, 0, 54, 0
5, 95971, Note_on_c, 0, 64, 45
5, 95972, Note_on_c, 0, 54, 40
5, 95979, Note_on_c, 0, 60, 46
5, 95985, Control_c, 0, 64, 0
5, 96155, Control_c, 0, 64, 127
5, 96382, Note_on_c, 0, 64, 0
5, 96389, Note_on_c, 0, 76, 83
5, 96398, Note_on_c, 0, 60, 0
5, 96409, Control_c, 0, 64, 0
5, 96491, Note_on_c, 0, 74, 54
5, 96495, Note_on_c, 0, 76, 0
5, 96517, Control_c, 0, 64, 127
5, 96581, Note_on_c, 0, 71, 54
5, 96582, Note_on_c, 0, 74, 0
5, 96650, Note_on_c, 0, 71, 0
5, 96732, Note_on_c, 0, 62, 36
5, 96748, Note_on_c, 0, 59, 42
5, 96762, Note_on_c, 0, 57, 24
5, 96785, Note_on_c, 0, 83, 77
5, 96787, Control_c, 0, 64, 0
5, 96800, Note_on_c, 0, 54, 0
5, 96892, Note_on_c, 0, 81, 50
5, 96908, Note_on_c, 0, 83, 0
5, 96938, Note_on_c, 0, 59, 0
5, 96981, Note_on_c, 0, 78, 35
5, 96985, Note_on_c, 0, 81, 0
5, 97056, Note_on_c, 0, 59, 20
5, 97071, Note_on_c, 0, 78, 0
5, 97079, Note_on_c, 0, 76, 50
5, 97146, Note_on_c, 0, 76, 0
5, 97154, Note_on_c, 0, 62, 0
5, 97174, Note_on_c, 0, 86, 72
5, 97197, Note_on_c, 0, 59, 0
5, 97202, Note_on_c, 0, 57, 0
5, 97289, Note_on_c, 0, 86, 0
5, 97398, Note_on_c, 0, 83, 24
5, 97430, Note_on_c, 0, 83, 0
5, 97618, Control_c, 0, 64, 127
5, 97802, Control_c, 0, 64, 0
5, 97812, Note_on_c, 0, 59, 55
5, 97813, Note_on_c, 0, 62, 48
5, 97819, Note_on_c, 0, 57, 45
5, 97957, Control_c, 0, 64, 127
5, 97993, Note_on_c, 0, 88, 78
5, 98059, Note_on_c, 0, 59, 0
5, 98081, Note_on_c, 0, 86, 53
5, 98083, Note_on_c, 0, 62, 0
5, 98111, Note_on_c, 0, 57, 0
5, 98120, Note_on_c, 0, 88, 0
5, 98176, Note_on_c, 0, 86, 0
5, 98186, Note_on_c, 0, 83, 52
5, 98229, Note_on_c, 0, 83, 0
5, 98238, Note_on_c, 0, 59, 36
5, 98258, Note_on_c, 0, 81, 49
5, 98287, Note_on_c, 0, 81, 0
5, 98318, Control_c, 0, 64, 0
5, 98334, Note_on_c, 0, 59, 0
5, 98350, Note_on_c, 0, 95, 77
5, 98380, Control_c, 0, 64, 127
5, 98449, Note_on_c, 0, 93, 54
5, 98490, Note_on_c, 0, 95, 0
5, 98521, Note_on_c, 0, 90, 46
5, 98547, Note_on_c, 0, 93, 0
5, 98616, Note_on_c, 0, 90, 0
5, 98627, Note_on_c, 0, 88, 50
5, 98679, Note_on_c, 0, 88, 0
5, 98723, Note_on_c, 0, 100, 70
5, 98726, Control_c, 0, 64, 0
5, 98727, Note_on_c, 0, 98, 71
5, 98875, Note_on_c, 0, 100, 0
5, 98888, Control_c, 0, 64, 127
5, 98893, Note_on_c, 0, 98, 0
5, 98970, Note_on_c, 0, 95, 72
5, 98973, Control_c, 0, 64, 0
5, 98976, Note_on_c, 0, 62, 52
5, 98986, Note_on_c, 0, 59, 54
5, 98989, Note_on_c, 0, 57, 49
5, 99077, Note_on_c, 0, 95, 0
5, 99095, Note_on_c, 0, 62, 0
5, 99119, Control_c, 0, 64, 127
5, 99165, Note_on_c, 0, 93, 50
5, 99196, Note_on_c, 0, 59, 0
5, 99200, Note_on_c, 0, 57, 0
5, 99280, Note_on_c, 0, 93, 0
5, 99369, Note_on_c, 0, 62, 51
5, 99370, Note_on_c, 0, 59, 53
5, 99372, Note_on_c, 0, 91, 71
5, 99383, Note_on_c, 0, 57, 36
5, 99453, Note_on_c, 0, 57, 0
5, 99459, Control_c, 0, 64, 0
5, 99469, Note_on_c, 0, 62, 0
5, 99473, Note_on_c, 0, 59, 0
5, 99483, Note_on_c, 0, 91, 0
5, 99520, Control_c, 0, 64, 127
5, 99547, Note_on_c, 0, 89, 32
5, 99676, Note_on_c, 0, 89, 0
5, 99771, Note_on_c, 0, 64, 58
5, 99772, Note_on_c, 0, 93, 80
5, 99782, Note_on_c, 0, 57, 43
5, 99790, Note_on_c, 0, 54, 31
5, 99802, Note_on_c, 0, 60, 34
5, 99836, Note_on_c, 0, 60, 0
5, 99858, Note_on_c, 0, 64, 0
5, 99871, Note_on_c, 0, 93, 0
5, 99874, Control_c, 0, 64, 0
5, 99885, Note_on_c, 0, 57, 0
5, 99947, Note_on_c, 0, 64, 37
5, 99963, Note_on_c, 0, 95, 71
5, 99964, Note_on_c, 0, 57, 27
5, 99967, Note_on_c, 0, 60, 29
5, 100013, Control_c, 0, 64, 127
5, 100070, Note_on_c, 0, 64, 0
5, 100073, Note_on_c, 0, 60, 0
5, 100086, Note_on_c, 0, 57, 0
5, 100098, Note_on_c, 0, 95, 0
5, 100112, Note_on_c, 0, 54, 0
5, 100155, Note_on_c, 0, 95, 74
5, 100160, Note_on_c, 0, 54, 42
5, 100166, Control_c, 0, 64, 0
5, 100168, Note_on_c, 0, 64, 50
5, 100182, Note_on_c, 0, 60, 38
5, 100183, Note_on_c, 0, 57, 34
5, 100235, Note_on_c, 0, 64, 0
5, 100249, Note_on_c, 0, 60, 0
5, 100251, Note_on_c, 0, 95, 0
5, 100255, Note_on_c, 0, 57, 0
5, 100297, Control_c, 0, 64, 127
5, 100318, Note_on_c, 0, 64, 43
5, 100318, Note_on_c, 0, 95, 66
5, 100335, Note_on_c, 0, 57, 35
5, 100336, Note_on_c, 0, 60, 44
5, 100418, Note_on_c, 0, 64, 0
5, 100447, Note_on_c, 0, 57, 0
5, 100450, Note_on_c, 0, 54, 0
5, 100458, Note_on_c, 0, 60, 0
5, 100485, Note_on_c, 0, 95, 0
5, 100545, Note_on_c, 0, 54, 56
5, 100550, Note_on_c, 0, 64, 57
5, 100553, Note_on_c, 0, 96, 72
5, 100558, Note_on_c, 0, 60, 38
5, 100565, Note_on_c, 0, 57, 45
5, 100609, Note_on_c, 0, 64, 0
5, 100620, Control_c, 0, 64, 0
5, 100621, Note_on_c, 0, 60, 0
5, 100629, Note_on_c, 0, 57, 0
5, 100641, Note_on_c, 0, 96, 0
5, 100658, Note_on_c, 0, 54, 0
5, 100695, Note_on_c, 0, 54, 31
5, 100708, Note_on_c, 0, 64, 38
5, 100713, Note_on_c, 0, 95, 57
5, 100716, Note_on_c, 0, 60, 38
5, 100716, Note_on_c, 0, 57, 39
5, 100736, Control_c, 0, 64, 127
5, 100811, Note_on_c, 0, 64, 0
5, 100830, Note_on_c, 0, 57, 0
5, 100845, Note_on_c, 0, 54, 0
5, 100845, Note_on_c, 0, 60, 0
5, 100848, Note_on_c, 0, 95, 0
5, 100936, Control_c, 0, 64, 0
5, 101052, Control_c, 0, 64, 127
5, 101059, Note_on_c, 0, 54, 55
5, 101060, Note_on_c, 0, 95, 84
5, 101063, Note_on_c, 0, 57, 54
5, 101066, Note_on_c, 0, 60, 61
5, 101066, Note_on_c, 0, 64, 68
5, 101128, Note_on_c, 0, 64, 0
5, 101141, Note_on_c, 0, 60, 0
5, 101154, Note_on_c, 0, 57, 0
5, 101169, Note_on_c, 0, 95, 0
5, 101188, Note_on_c, 0, 54, 0
5, 101300, Note_on_c, 0, 51, 67
5, 101304, Note_on_c, 0, 62, 62
5, 101312, Note_on_c, 0, 57, 60
5, 101318, Note_on_c, 0, 96, 84
5, 101318, Note_on_c, 0, 54, 25
5, 101321, Note_on_c, 0, 84, 83
5, 101344, Note_on_c, 0, 54, 0
5, 101410, Note_on_c, 0, 84, 0
5, 101423, Note_on_c, 0, 62, 0
5, 101424, Note_on_c, 0, 96, 0
5, 101429, Control_c, 0, 64, 0
5, 101433, Note_on_c, 0, 51, 0
5, 101456, Note_on_c, 0, 57, 0
5, 101530, Note_on_c, 0, 51, 69
5, 101536, Control_c, 0, 64, 127
5, 101538, Note_on_c, 0, 62, 57
5, 101539, Note_on_c, 0, 57, 51
5, 101539, Note_on_c, 0, 98, 74
5, 101544, Note_on_c, 0, 86, 68
5, 101545, Note_on_c, 0, 91, 50
5, 101549, Note_on_c, 0, 94, 32
5, 101592, Note_on_c, 0, 94, 0
5, 101707, Note_on_c, 0, 98, 0
5, 101710, Note_on_c, 0, 91, 0
5, 101722, Note_on_c, 0, 62, 0
5, 101724, Note_on_c, 0, 86, 0
5, 101729, Control_c, 0, 64, 0
5, 101731, Note_on_c, 0, 51, 0
5, 101735, Note_on_c, 0, 57, 0
5, 101814, Control_c, 0, 64, 127
5, 101822, Note_on_c, 0, 51, 57
5, 101827, Note_on_c, 0, 96, 74
5, 101828, Note_on_c, 0, 62, 51
5, 101832, Note_on_c, 0, 57, 49
5, 101839, Note_on_c, 0, 91, 54
5, 101840, Note_on_c, 0, 84, 62
5, 101940, Note_on_c, 0, 96, 0
5, 101951, Note_on_c, 0, 62, 0
5, 101965, Note_on_c, 0, 57, 0
5, 101968, Note_on_c, 0, 51, 0
5, 101969, Note_on_c, 0, 91, 0
5, 101973, Note_on_c, 0, 84, 0
5, 102073, Note_on_c, 0, 51, 56
5, 102080, Note_on_c, 0, 95, 64
5, 102092, Note_on_c, 0, 57, 57
5, 102092, Note_on_c, 0, 62, 53
5, 102094, Note_on_c, 0, 83, 61
5, 102098, Control_c, 0, 64, 0
5, 102175, Control_c, 0, 64, 127
5, 102245, Note_on_c, 0, 95, 0
5, 102267, Note_on_c, 0, 62, 0
5, 102290, Note_on_c, 0, 57, 0
5, 102298, Note_on_c, 0, 51, 0
5, 102328, Note_on_c, 0, 83, 0
5, 102418, Note_on_c, 0, 51, 60
5, 102426, Note_on_c, 0, 62, 64
5, 102427, Note_on_c, 0, 57, 69
5, 102507, Control_c, 0, 64, 0
5, 102537, Control_c, 0, 64, 127
5, 102619, Note_on_c, 0, 57, 0
5, 102745, Note_on_c, 0, 51, 0
5, 102804, Note_on_c, 0, 62, 0
5, 102900, Control_c, 0, 64, 0
5, 102924, Note_on_c, 0, 63, 77
5, 102929, Note_on_c, 0, 52, 49
5, 102933, Note_on_c, 0, 59, 43
5, 102937, Note_on_c, 0, 56, 34
5, 103023, Control_c, 0, 64, 127
5, 103029, Note_on_c, 0, 63, 0
5, 103040, Note_on_c, 0, 64, 66
5, 103047, Note_on_c, 0, 59, 0
5, 103149, Note_on_c, 0, 68, 57
5, 103161, Note_on_c, 0, 64, 0
5, 103185, Note_on_c, 0, 52, 0
5, 103192, Note_on_c, 0, 56, 0
5, 103254, Note_on_c, 0, 71, 65
5, 103280, Note_on_c, 0, 68, 0
5, 103313, Note_on_c, 0, 71, 0
5, 103346, Control_c, 0, 64, 0
5, 103358, Note_on_c, 0, 67, 58
5, 103435, Note_on_c, 0, 68, 47
5, 103447, Control_c, 0, 64, 127
5, 103482, Note_on_c, 0, 67, 0
5, 103542, Note_on_c, 0, 68, 0
5, 103554, Note_on_c, 0, 72, 31
5, 103629, Note_on_c, 0, 75, 69
5, 103637, Note_on_c, 0, 72, 0
5, 103692, Note_on_c, 0, 54, 40
5, 103703, Note_on_c, 0, 63, 40
5, 103708, Note_on_c, 0, 75, 0
5, 103734, Note_on_c, 0, 58, 33
5, 103737, Note_on_c, 0, 71, 60
5, 103739, Control_c, 0, 64, 0
5, 103831, Control_c, 0, 64, 127
5, 103841, Note_on_c, 0, 72, 60
5, 103843, Note_on_c, 0, 71, 0
5, 103941, Note_on_c, 0, 76, 53
5, 103967, Note_on_c, 0, 72, 0
5, 104039, Note_on_c, 0, 79, 55
5, 104046, Note_on_c, 0, 76, 0
5, 104046, Note_on_c, 0, 78, 31
5, 104066, Note_on_c, 0, 79, 0
5, 104068, Note_on_c, 0, 54, 0
5, 104069, Note_on_c, 0, 63, 0
5, 104073, Note_on_c, 0, 78, 0
5, 104086, Note_on_c, 0, 58, 0
5, 104086, Control_c, 0, 64, 0
5, 104114, Note_on_c, 0, 75, 64
5, 104139, Control_c, 0, 64, 127
5, 104223, Note_on_c, 0, 76, 44
5, 104261, Note_on_c, 0, 75, 0
5, 104278, Note_on_c, 0, 80, 50
5, 104284, Note_on_c, 0, 76, 0
5, 104387, Note_on_c, 0, 83, 71
5, 104409, Note_on_c, 0, 80, 0
5, 104447, Note_on_c, 0, 83, 0
5, 104462, Control_c, 0, 64, 0
5, 104498, Note_on_c, 0, 79, 65
5, 104539, Control_c, 0, 64, 127
5, 104573, Note_on_c, 0, 80, 45
5, 104597, Note_on_c, 0, 79, 0
5, 104683, Note_on_c, 0, 80, 0
5, 104687, Note_on_c, 0, 84, 53
5, 104774, Note_on_c, 0, 88, 73
5, 104780, Note_on_c, 0, 84, 0
5, 104793, Note_on_c, 0, 55, 58
5, 104794, Note_on_c, 0, 61, 51
5, 104809, Control_c, 0, 64, 0
5, 104815, Note_on_c, 0, 65, 24
5, 104844, Note_on_c, 0, 65, 0
5, 104856, Note_on_c, 0, 88, 0
5, 104877, Note_on_c, 0, 83, 55
5, 104879, Note_on_c, 0, 55, 0
5, 104894, Control_c, 0, 64, 127
5, 104905, Note_on_c, 0, 61, 0
5, 104975, Note_on_c, 0, 84, 55
5, 105001, Note_on_c, 0, 83, 0
5, 105077, Note_on_c, 0, 84, 0
5, 105094, Note_on_c, 0, 88, 44
5, 105145, Note_on_c, 0, 63, 56
5, 105152, Note_on_c, 0, 53, 52
5, 105153, Note_on_c, 0, 59, 55
5, 105163, Note_on_c, 0, 91, 57
5, 105186, Control_c, 0, 64, 0
5, 105193, Note_on_c, 0, 88, 0
5, 105201, Note_on_c, 0, 63, 0
5, 105203, Note_on_c, 0, 90, 23
5, 105207, Note_on_c, 0, 91, 0
5, 105222, Note_on_c, 0, 59, 0
5, 105228, Note_on_c, 0, 90, 0
5, 105262, Note_on_c, 0, 53, 0
5, 105303, Note_on_c, 0, 86, 44
5, 105401, Note_on_c, 0, 86, 0
5, 105519, Note_on_c, 0, 58, 59
5, 105528, Note_on_c, 0, 62, 57
5, 105530, Note_on_c, 0, 52, 63
5, 105536, Note_on_c, 0, 89, 59
5, 105589, Note_on_c, 0, 89, 0
5, 105611, Note_on_c, 0, 62, 0
5, 105678, Note_on_c, 0, 58, 0
5, 105710, Note_on_c, 0, 90, 44
5, 105808, Note_on_c, 0, 90, 0
5, 105890, Note_on_c, 0, 58, 50
5, 105895, Note_on_c, 0, 62, 55
5, 105903, Note_on_c, 0, 52, 0
5, 105913, Note_on_c, 0, 92, 67
5, 105938, Note_on_c, 0, 62, 0
5, 105946, Note_on_c, 0, 58, 0
5, 105987, Note_on_c, 0, 92, 0
5, 106046, Note_on_c, 0, 63, 52
5, 106069, Note_on_c, 0, 53, 32
5, 106071, Note_on_c, 0, 95, 30
5, 106072, Note_on_c, 0, 96, 32
5, 106093, Note_on_c, 0, 84, 17
5, 106106, Note_on_c, 0, 95, 0
5, 106111, Note_on_c, 0, 56, 34
5, 106188, Note_on_c, 0, 53, 0
5, 106209, Note_on_c, 0, 63, 0
5, 106212, Note_on_c, 0, 84, 0
5, 106213, Note_on_c, 0, 96, 0
5, 106215, Note_on_c, 0, 56, 0
5, 106292, Note_on_c, 0, 63, 54
5, 106298, Note_on_c, 0, 96, 74
5, 106303, Note_on_c, 0, 60, 43
5, 106306, Note_on_c, 0, 84, 69
5, 106307, Note_on_c, 0, 56, 42
5, 106308, Note_on_c, 0, 53, 32
5, 106354, Note_on_c, 0, 96, 0
5, 106357, Note_on_c, 0, 63, 0
5, 106359, Note_on_c, 0, 84, 0
5, 106384, Note_on_c, 0, 53, 0
5, 106386, Note_on_c, 0, 60, 0
5, 106455, Note_on_c, 0, 60, 35
5, 106461, Note_on_c, 0, 82, 42
5, 106537, Note_on_c, 0, 60, 0
5, 106541, Note_on_c, 0, 82, 0
5, 106558, Note_on_c, 0, 56, 0
5, 106672, Note_on_c, 0, 82, 70
5, 106673, Note_on_c, 0, 63, 57
5, 106674, Note_on_c, 0, 94, 71
5, 106680, Note_on_c, 0, 60, 56
5, 106688, Note_on_c, 0, 56, 44
5, 106706, Note_on_c, 0, 60, 0
5, 106710, Note_on_c, 0, 63, 0
5, 106733, Note_on_c, 0, 82, 0
5, 106734, Note_on_c, 0, 94, 0
5, 106810, Note_on_c, 0, 60, 25
5, 106834, Note_on_c, 0, 92, 35
5, 106839, Note_on_c, 0, 53, 29
5, 106859, Note_on_c, 0, 80, 27
5, 106923, Note_on_c, 0, 53, 0
5, 106969, Note_on_c, 0, 56, 0
5, 106970, Note_on_c, 0, 92, 0
5, 106980, Note_on_c, 0, 60, 0
5, 107001, Note_on_c, 0, 80, 0
5, 107124, Note_on_c, 0, 60, 52
5, 107139, Note_on_c, 0, 78, 43
5, 107141, Note_on_c, 0, 90, 34
5, 107144, Note_on_c, 0, 63, 43
5, 107153, Note_on_c, 0, 56, 34
5, 107178, Note_on_c, 0, 91, 44
5, 107198, Control_c, 0, 64, 127
5, 107204, Note_on_c, 0, 90, 0
5, 107207, Note_on_c, 0, 78, 0
5, 107223, Note_on_c, 0, 79, 51
5, 107293, Note_on_c, 0, 60, 0
5, 107327, Note_on_c, 0, 56, 0
5, 107355, Note_on_c, 0, 91, 0
5, 107361, Note_on_c, 0, 63, 0
5, 107399, Note_on_c, 0, 79, 0
5, 107467, Control_c, 0, 64, 0
5, 107521, Note_on_c, 0, 60, 38
5, 107536, Note_on_c, 0, 65, 36
5, 107542, Note_on_c, 0, 77, 53
5, 107542, Note_on_c, 0, 61, 43
5, 107544, Note_on_c, 0, 89, 48
5, 107551, Note_on_c, 0, 56, 25
5, 107556, Note_on_c, 0, 85, 37
5, 107606, Control_c, 0, 64, 127
5, 107647, Note_on_c, 0, 89, 0
5, 107683, Note_on_c, 0, 65, 0
5, 107683, Note_on_c, 0, 60, 0
5, 107692, Note_on_c, 0, 61, 0
5, 107714, Note_on_c, 0, 56, 0
5, 107719, Note_on_c, 0, 77, 0
5, 107723, Note_on_c, 0, 85, 0
5, 107729, Control_c, 0, 64, 0
5, 107916, Note_on_c, 0, 87, 59
5, 107922, Note_on_c, 0, 75, 46
5, 107924, Note_on_c, 0, 56, 37
5, 107928, Note_on_c, 0, 65, 44
5, 107932, Note_on_c, 0, 82, 47
5, 107934, Note_on_c, 0, 61, 34
5, 107935, Note_on_c, 0, 60, 36
5, 107937, Control_c, 0, 64, 127
5, 108081, Note_on_c, 0, 65, 0
5, 108094, Note_on_c, 0, 60, 0
5, 108108, Note_on_c, 0, 61, 0
5, 108110, Note_on_c, 0, 56, 0
5, 108120, Note_on_c, 0, 87, 0
5, 108141, Note_on_c, 0, 82, 0
5, 108144, Note_on_c, 0, 75, 0
5, 108230, Control_c, 0, 64, 0
5, 108307, Note_on_c, 0, 85, 52
5, 108308, Note_on_c, 0, 56, 42
5, 108313, Note_on_c, 0, 73, 43
5, 108314, Note_on_c, 0, 65, 46
5, 108317, Note_on_c, 0, 60, 39
5, 108320, Note_on_c, 0, 61, 36
5, 108322, Note_on_c, 0, 80, 43
5, 108345, Control_c, 0, 64, 127
5, 108396, Note_on_c, 0, 65, 0
5, 108451, Note_on_c, 0, 60, 0
5, 108462, Note_on_c, 0, 85, 0
5, 108465, Note_on_c, 0, 56, 0
5, 108470, Note_on_c, 0, 61, 0
5, 108475, Note_on_c, 0, 80, 0
5, 108482, Note_on_c, 0, 73, 0
5, 108595, Note_on_c, 0, 82, 48
5, 108605, Note_on_c, 0, 70, 43
5, 108611, Note_on_c, 0, 56, 39
5, 108614, Note_on_c, 0, 60, 36
5, 108617, Note_on_c, 0, 61, 43
5, 108622, Note_on_c, 0, 65, 39
5, 108630, Control_c, 0, 64, 0
5, 108737, Control_c, 0, 64, 127
5, 108804, Note_on_c, 0, 65, 0
5, 108820, Note_on_c, 0, 60, 0
5, 108826, Note_on_c, 0, 82, 0
5, 108835, Note_on_c, 0, 70, 0
5, 108868, Note_on_c, 0, 61, 0
5, 108893, Note_on_c, 0, 56, 0
5, 108978, Note_on_c, 0, 62, 44
5, 108983, Note_on_c, 0, 55, 58
5, 108989, Note_on_c, 0, 79, 52
5, 108998, Note_on_c, 0, 74, 57
5, 109001, Note_on_c, 0, 67, 55
5, 109007, Control_c, 0, 64, 0
5, 109062, Note_on_c, 0, 79, 0
5, 109066, Note_on_c, 0, 74, 0
5, 109070, Note_on_c, 0, 62, 0
5, 109107, Control_c, 0, 64, 127
5, 109110, Note_on_c, 0, 67, 0
5, 109141, Note_on_c, 0, 55, 0
5, 109372, Note_on_c, 0, 69, 66
5, 109379, Note_on_c, 0, 62, 68
5, 109381, Note_on_c, 0, 57, 70
5, 109388, Note_on_c, 0, 64, 62
5, 109393, Note_on_c, 0, 59, 57
5, 109419, Note_on_c, 0, 59, 0
5, 109448, Note_on_c, 0, 69, 0
5, 109450, Note_on_c, 0, 57, 0
5, 109451, Note_on_c, 0, 62, 0
5, 109453, Note_on_c, 0, 64, 0
5, 109462, Control_c, 0, 64, 0
5, 109511, Note_on_c, 0, 55, 41
5, 109601, Note_on_c, 0, 55, 0
5, 109620, Note_on_c, 0, 57, 54
5, 109622, Note_on_c, 0, 62, 62
5, 109623, Note_on_c, 0, 69, 68
5, 109627, Note_on_c, 0, 59, 71
5, 109631, Note_on_c, 0, 64, 62
5, 109662, Control_c, 0, 64, 127
5, 109706, Note_on_c, 0, 64, 0
5, 109707, Note_on_c, 0, 69, 0
5, 109717, Note_on_c, 0, 62, 0
5, 109763, Note_on_c, 0, 59, 0
5, 109811, Note_on_c, 0, 57, 0
5, 109820, Note_on_c, 0, 58, 35
5, 109869, Control_c, 0, 64, 0
5, 109892, Note_on_c, 0, 58, 0
5, 109906, Note_on_c, 0, 72, 69
5, 109911, Note_on_c, 0, 60, 68
5, 109912, Note_on_c, 0, 65, 69
5, 109918, Note_on_c, 0, 61, 67
5, 109921, Note_on_c, 0, 69, 59
5, 110039, Note_on_c, 0, 72, 0
5, 110044, Note_on_c, 0, 65, 0
5, 110050, Note_on_c, 0, 69, 0
5, 110053, Note_on_c, 0, 61, 0
5, 110061, Note_on_c, 0, 60, 0
5, 110082, Note_on_c, 0, 58, 34
5, 110187, Note_on_c, 0, 61, 77
5, 110191, Note_on_c, 0, 72, 71
5, 110193, Note_on_c, 0, 60, 58
5, 110193, Note_on_c, 0, 65, 69
5, 110207, Note_on_c, 0, 69, 57
5, 110212, Note_on_c, 0, 58, 0
5, 110278, Control_c, 0, 64, 127
5, 110296, Note_on_c, 0, 61, 0
5, 110300, Note_on_c, 0, 65, 0
5, 110327, Note_on_c, 0, 72, 0
5, 110330, Note_on_c, 0, 69, 0
5, 110374, Note_on_c, 0, 60, 0
5, 110470, Note_on_c, 0, 75, 67
5, 110477, Note_on_c, 0, 70, 57
5, 110482, Note_on_c, 0, 72, 65
5, 110488, Note_on_c, 0, 67, 57
5, 110494, Note_on_c, 0, 63, 65
5, 110517, Control_c, 0, 64, 0
5, 110550, Note_on_c, 0, 67, 0
5, 110562, Note_on_c, 0, 70, 0
5, 110579, Note_on_c, 0, 72, 0
5, 110581, Note_on_c, 0, 63, 0
5, 110588, Note_on_c, 0, 75, 0
5, 110661, Note_on_c, 0, 60, 30
5, 110663, Control_c, 0, 64, 127
5, 110695, Note_on_c, 0, 60, 0
5, 110707, Note_on_c, 0, 75, 60
5, 110711, Note_on_c, 0, 63, 53
5, 110715, Note_on_c, 0, 70, 62
5, 110728, Note_on_c, 0, 72, 50
5, 110730, Note_on_c, 0, 67, 59
5, 110798, Note_on_c, 0, 72, 0
5, 110831, Note_on_c, 0, 70, 0
5, 110841, Note_on_c, 0, 75, 0
5, 110869, Note_on_c, 0, 67, 0
5, 110883, Note_on_c, 0, 63, 0
5, 110955, Note_on_c, 0, 79, 62
5, 110960, Note_on_c, 0, 75, 55
5, 110963, Note_on_c, 0, 72, 62
5, 110966, Note_on_c, 0, 67, 39
5, 110978, Control_c, 0, 64, 0
5, 110996, Note_on_c, 0, 63, 29
5, 111024, Note_on_c, 0, 67, 0
5, 111029, Note_on_c, 0, 72, 0
5, 111035, Note_on_c, 0, 79, 0
5, 111040, Note_on_c, 0, 75, 0
5, 111049, Note_on_c, 0, 63, 0
5, 111275, Note_on_c, 0, 63, 54
5, 111294, Note_on_c, 0, 70, 59
5, 111299, Note_on_c, 0, 67, 58
5, 111321, Note_on_c, 0, 70, 0
5, 111328, Note_on_c, 0, 67, 0
5, 111333, Note_on_c, 0, 63, 0
5, 111645, Note_on_c, 0, 61, 52
5, 111646, Note_on_c, 0, 67, 61
5, 111646, Note_on_c, 0, 72, 58
5, 111648, Note_on_c, 0, 62, 55
5, 111687, Note_on_c, 0, 72, 0
5, 111695, Note_on_c, 0, 62, 0
5, 111698, Note_on_c, 0, 67, 0
5, 111698, Note_on_c, 0, 61, 0
5, 111910, Control_c, 0, 64, 127
5, 112012, Note_on_c, 0, 57, 53
5, 112024, Note_on_c, 0, 70, 63
5, 112030, Note_on_c, 0, 63, 80
5, 112042, Note_on_c, 0, 60, 71
5, 112049, Note_on_c, 0, 57, 0
5, 112049, Control_c, 0, 64, 0
5, 112052, Note_on_c, 0, 58, 71
5, 112453, Note_on_c, 0, 63, 0
5, 112465, Note_on_c, 0, 60, 0
5, 112483, Note_on_c, 0, 70, 0
5, 112523, Note_on_c, 0, 58, 0
5, 112523, Note_on_c, 0, 56, 53
5, 112534, Note_on_c, 0, 68, 40
5, 112534, Note_on_c, 0, 60, 47
5, 112539, Note_on_c, 0, 63, 32
5, 112565, Note_on_c, 0, 65, 25
5, 112740, Note_on_c, 0, 56, 0
5, 112768, Note_on_c, 0, 65, 0
5, 112789, Note_on_c, 0, 60, 0
5, 112807, Note_on_c, 0, 63, 0
5, 112820, Note_on_c, 0, 68, 0
5, 112838, Note_on_c, 0, 53, 32
5, 112872, Note_on_c, 0, 53, 0
5, 112933, Note_on_c, 0, 60, 46
5, 112935, Note_on_c, 0, 58, 47
5, 112936, Note_on_c, 0, 63, 35
5, 112949, Note_on_c, 0, 70, 34
5, 113027, Control_c, 0, 64, 127
5, 113088, Note_on_c, 0, 60, 0
5, 113130, Note_on_c, 0, 70, 0
5, 113138, Note_on_c, 0, 63, 0
5, 113165, Control_c, 0, 64, 0
5, 113182, Note_on_c, 0, 63, 14
5, 113195, Note_on_c, 0, 60, 51
5, 113196, Note_on_c, 0, 58, 0
5, 113205, Note_on_c, 0, 68, 48
5, 113208, Note_on_c, 0, 56, 49
5, 113222, Note_on_c, 0, 60, 0
5, 113248, Note_on_c, 0, 68, 0
5, 113256, Note_on_c, 0, 63, 0
5, 113279, Note_on_c, 0, 56, 0
5, 113327, Control_c, 0, 64, 127
5, 113546, Note_on_c, 0, 75, 74
5, 113552, Note_on_c, 0, 63, 78
5, 113552, Note_on_c, 0, 68, 76
5, 113559, Note_on_c, 0, 72, 67
5, 113562, Note_on_c, 0, 64, 79
5, 113589, Control_c, 0, 64, 0
5, 113973, Note_on_c, 0, 68, 0
5, 113998, Note_on_c, 0, 72, 0
5, 114001, Note_on_c, 0, 64, 0
5, 114039, Note_on_c, 0, 75, 0
5, 114056, Note_on_c, 0, 61, 42
5, 114056, Note_on_c, 0, 73, 45
5, 114059, Note_on_c, 0, 68, 42
5, 114072, Note_on_c, 0, 64, 18
5, 114136, Note_on_c, 0, 63, 0
5, 114243, Control_c, 0, 64, 127
5, 114244, Note_on_c, 0, 64, 0
5, 114297, Note_on_c, 0, 68, 0
5, 114328, Control_c, 0, 64, 0
5, 114343, Note_on_c, 0, 61, 0
5, 114351, Note_on_c, 0, 73, 0
5, 114430, Note_on_c, 0, 75, 51
5, 114431, Note_on_c, 0, 63, 44
5, 114437, Note_on_c, 0, 64, 43
5, 114441, Note_on_c, 0, 68, 42
5, 114497, Control_c, 0, 64, 127
5, 114593, Note_on_c, 0, 68, 0
5, 114605, Note_on_c, 0, 64, 0
5, 114650, Note_on_c, 0, 75, 0
5, 114689, Control_c, 0, 64, 0
5, 114691, Note_on_c, 0, 73, 53
5, 114700, Note_on_c, 0, 63, 0
5, 114701, Note_on_c, 0, 68, 56
5, 114702, Note_on_c, 0, 61, 49
5, 114704, Note_on_c, 0, 64, 55
5, 114727, Note_on_c, 0, 61, 0
5, 114759, Note_on_c, 0, 68, 0
5, 114760, Note_on_c, 0, 73, 0
5, 114763, Note_on_c, 0, 64, 0
5, 114774, Control_c, 0, 64, 127
5, 115096, Note_on_c, 0, 58, 39
5, 115102, Note_on_c, 0, 48, 42
5, 115104, Note_on_c, 0, 62, 66
5, 115113, Control_c, 0, 64, 0
5, 115288, Note_on_c, 0, 62, 0
5, 115299, Note_on_c, 0, 63, 37
5, 115402, Note_on_c, 0, 62, 26
5, 115431, Note_on_c, 0, 63, 0
5, 115480, Note_on_c, 0, 60, 43
5, 115494, Note_on_c, 0, 62, 0
5, 115549, Note_on_c, 0, 60, 0
5, 115598, Note_on_c, 0, 63, 57
5, 115867, Note_on_c, 0, 63, 0
5, 115890, Note_on_c, 0, 59, 29
5, 115921, Note_on_c, 0, 59, 0
5, 115924, Note_on_c, 0, 58, 0
5, 115993, Note_on_c, 0, 62, 57
5, 116199, Control_c, 0, 64, 127
5, 116216, Note_on_c, 0, 62, 0
5, 116260, Control_c, 0, 64, 0
5, 116269, Note_on_c, 0, 60, 47
5, 116320, Note_on_c, 0, 60, 0
5, 116372, Note_on_c, 0, 48, 0
5, 116419, Note_on_c, 0, 62, 45
5, 116483, Control_c, 0, 64, 127
5, 116588, Note_on_c, 0, 62, 0
5, 116637, Note_on_c, 0, 63, 59
5, 116652, Note_on_c, 0, 56, 40
5, 116657, Note_on_c, 0, 47, 42
5, 116667, Control_c, 0, 64, 0
5, 116687, Note_on_c, 0, 47, 0
5, 116722, Note_on_c, 0, 56, 0
5, 116726, Note_on_c, 0, 63, 0
5, 116814, Control_c, 0, 64, 127
5, 116854, Note_on_c, 0, 65, 37
5, 116952, Note_on_c, 0, 65, 0
5, 117013, Note_on_c, 0, 67, 66
5, 117022, Note_on_c, 0, 56, 35
5, 117039, Note_on_c, 0, 53, 35
5, 117053, Control_c, 0, 64, 0
5, 117054, Note_on_c, 0, 62, 20
5, 117055, Note_on_c, 0, 59, 25
5, 117074, Note_on_c, 0, 53, 0
5, 117086, Note_on_c, 0, 62, 0
5, 117099, Note_on_c, 0, 67, 0
5, 117101, Note_on_c, 0, 59, 0
5, 117156, Note_on_c, 0, 56, 0
5, 117176, Control_c, 0, 64, 127
5, 117185, Note_on_c, 0, 68, 36
5, 117331, Note_on_c, 0, 68, 0
5, 117389, Note_on_c, 0, 71, 66
5, 117422, Note_on_c, 0, 59, 34
5, 117427, Note_on_c, 0, 56, 19
5, 117430, Control_c, 0, 64, 0
5, 117464, Note_on_c, 0, 59, 0
5, 117468, Note_on_c, 0, 71, 0
5, 117517, Note_on_c, 0, 56, 0
5, 117523, Note_on_c, 0, 74, 52
5, 117546, Control_c, 0, 64, 127
5, 117704, Note_on_c, 0, 74, 0
5, 117764, Note_on_c, 0, 77, 62
5, 117780, Note_on_c, 0, 56, 42
5, 117784, Control_c, 0, 64, 0
5, 117787, Note_on_c, 0, 62, 43
5, 117794, Note_on_c, 0, 59, 34
5, 117818, Note_on_c, 0, 62, 0
5, 117821, Note_on_c, 0, 77, 0
5, 117828, Note_on_c, 0, 59, 0
5, 117841, Note_on_c, 0, 56, 0
5, 117893, Control_c, 0, 64, 127
5, 117905, Note_on_c, 0, 80, 34
5, 118057, Note_on_c, 0, 80, 0
5, 118146, Note_on_c, 0, 61, 45
5, 118166, Note_on_c, 0, 84, 29
5, 118182, Note_on_c, 0, 61, 0
5, 118198, Note_on_c, 0, 84, 0
5, 118231, Control_c, 0, 64, 0
5, 118263, Note_on_c, 0, 65, 43
5, 118271, Note_on_c, 0, 61, 46
5, 118279, Note_on_c, 0, 84, 66
5, 118280, Note_on_c, 0, 60, 32
5, 118282, Note_on_c, 0, 56, 25
5, 118286, Note_on_c, 0, 86, 43
5, 118288, Note_on_c, 0, 72, 47
5, 118340, Note_on_c, 0, 86, 0
5, 118346, Control_c, 0, 64, 127
5, 118426, Note_on_c, 0, 84, 0
5, 118434, Note_on_c, 0, 56, 0
5, 118438, Note_on_c, 0, 65, 0
5, 118438, Note_on_c, 0, 72, 0
5, 118448, Note_on_c, 0, 60, 0
5, 118449, Note_on_c, 0, 61, 0
5, 118530, Note_on_c, 0, 61, 45
5, 118532, Note_on_c, 0, 65, 58
5, 118534, Note_on_c, 0, 85, 62
5, 118537, Note_on_c, 0, 60, 38
5, 118538, Note_on_c, 0, 56, 45
5, 118544, Note_on_c, 0, 73, 59
5, 118551, Note_on_c, 0, 80, 49
5, 118562, Control_c, 0, 64, 0
5, 118569, Note_on_c, 0, 60, 0
5, 118575, Note_on_c, 0, 73, 0
5, 118578, Note_on_c, 0, 80, 0
5, 118584, Note_on_c, 0, 85, 0
5, 118586, Note_on_c, 0, 56, 0
5, 118588, Note_on_c, 0, 65, 0
5, 118616, Note_on_c, 0, 61, 0
5, 118657, Note_on_c, 0, 56, 45
5, 118658, Note_on_c, 0, 61, 34
5, 118662, Control_c, 0, 64, 127
5, 118664, Note_on_c, 0, 65, 50
5, 118666, Note_on_c, 0, 87, 69
5, 118672, Note_on_c, 0, 60, 50
5, 118673, Note_on_c, 0, 75, 39
5, 118683, Note_on_c, 0, 82, 38
5, 118831, Note_on_c, 0, 56, 0
5, 118832, Note_on_c, 0, 65, 0
5, 118837, Note_on_c, 0, 87, 0
5, 118841, Note_on_c, 0, 75, 0
5, 118850, Note_on_c, 0, 82, 0
5, 118851, Note_on_c, 0, 60, 0
5, 118875, Note_on_c, 0, 61, 0
5, 118928, Note_on_c, 0, 72, 72
5, 118930, Note_on_c, 0, 56, 57
5, 118931, Note_on_c, 0, 65, 62
5, 118932, Note_on_c, 0, 61, 67
5, 118934, Note_on_c, 0, 60, 46
5, 118936, Note_on_c, 0, 84, 64
5, 118964, Note_on_c, 0, 60, 0
5, 118971, Control_c, 0, 64, 0
5, 118976, Note_on_c, 0, 65, 0
5, 118977, Note_on_c, 0, 84, 0
5, 118983, Note_on_c, 0, 72, 0
5, 118993, Note_on_c, 0, 56, 0
5, 119024, Note_on_c, 0, 61, 0
5, 119057, Control_c, 0, 64, 127
5, 119152, Note_on_c, 0, 85, 64
5, 119155, Note_on_c, 0, 80, 57
5, 119157, Note_on_c, 0, 61, 54
5, 119159, Note_on_c, 0, 73, 58
5, 119160, Note_on_c, 0, 65, 60
5, 119163, Note_on_c, 0, 60, 48
5, 119177, Note_on_c, 0, 56, 35
5, 119305, Note_on_c, 0, 65, 0
5, 119317, Note_on_c, 0, 56, 0
5, 119318, Note_on_c, 0, 73, 0
5, 119332, Note_on_c, 0, 85, 0
5, 119335, Note_on_c, 0, 60, 0
5, 119339, Note_on_c, 0, 80, 0
5, 119348, Note_on_c, 0, 61, 0
5, 119365, Control_c, 0, 64, 0
5, 119434, Control_c, 0, 64, 127
5, 119435, Note_on_c, 0, 87, 64
5, 119438, Note_on_c, 0, 75, 52
5, 119440, Note_on_c, 0, 65, 47
5, 119442, Note_on_c, 0, 61, 48
5, 119443, Note_on_c, 0, 56, 46
5, 119449, Note_on_c, 0, 82, 39
5, 119457, Note_on_c, 0, 60, 29
5, 119488, Note_on_c, 0, 60, 0
5, 119492, Note_on_c, 0, 65, 0
5, 119514, Note_on_c, 0, 82, 0
5, 119515, Note_on_c, 0, 87, 0
5, 119534, Note_on_c, 0, 75, 0
5, 119581, Note_on_c, 0, 61, 0
5, 119587, Note_on_c, 0, 56, 0
5, 119696, Note_on_c, 0, 66, 67
5, 119697, Note_on_c, 0, 55, 65
5, 119698, Note_on_c, 0, 76, 74
5, 119701, Note_on_c, 0, 88, 73
5, 119702, Note_on_c, 0, 61, 52
5, 119719, Control_c, 0, 64, 0
5, 119722, Note_on_c, 0, 87, 44
5, 119749, Note_on_c, 0, 87, 0
5, 119819, Control_c, 0, 64, 127
5, 119859, Note_on_c, 0, 55, 0
5, 119859, Note_on_c, 0, 76, 0
5, 119875, Note_on_c, 0, 66, 0
5, 119919, Note_on_c, 0, 88, 0
5, 119928, Note_on_c, 0, 61, 0
5, 120096, Note_on_c, 0, 66, 60
5, 120103, Note_on_c, 0, 55, 53
5, 120104, Note_on_c, 0, 81, 62
5, 120109, Note_on_c, 0, 61, 35
5, 120111, Note_on_c, 0, 93, 57
5, 120119, Control_c, 0, 64, 0
5, 120125, Note_on_c, 0, 92, 32
5, 120131, Note_on_c, 0, 81, 0
5, 120133, Note_on_c, 0, 55, 0
5, 120138, Note_on_c, 0, 66, 0
5, 120139, Note_on_c, 0, 93, 0
5, 120146, Note_on_c, 0, 61, 0
5, 120152, Note_on_c, 0, 92, 0
5, 120211, Control_c, 0, 64, 127
5, 120214, Note_on_c, 0, 66, 53
5, 120234, Note_on_c, 0, 61, 38
5, 120237, Note_on_c, 0, 55, 40
5, 120246, Note_on_c, 0, 85, 62
5, 120254, Note_on_c, 0, 97, 64
5, 120362, Note_on_c, 0, 55, 0
5, 120366, Note_on_c, 0, 85, 0
5, 120378, Note_on_c, 0, 97, 0
5, 120394, Note_on_c, 0, 66, 0
5, 120438, Note_on_c, 0, 61, 0
5, 120480, Note_on_c, 0, 61, 62
5, 120484, Note_on_c, 0, 55, 75
5, 120491, Note_on_c, 0, 64, 71
5, 120550, Control_c, 0, 64, 0
5, 120620, Control_c, 0, 64, 127
5, 120738, Note_on_c, 0, 55, 0
5, 120749, Note_on_c, 0, 64, 0
5, 120770, Note_on_c, 0, 61, 0
5, 120853, Note_on_c, 0, 61, 53
5, 120858, Note_on_c, 0, 55, 62
5, 120875, Note_on_c, 0, 64, 41
5, 120886, Note_on_c, 0, 55, 0
5, 120906, Note_on_c, 0, 64, 0
5, 120934, Note_on_c, 0, 61, 0
5, 120951, Control_c, 0, 64, 0
5, 120991, Note_on_c, 0, 55, 59
5, 120993, Note_on_c, 0, 61, 65
5, 121002, Note_on_c, 0, 64, 58
5, 121005, Note_on_c, 0, 97, 73
5, 121016, Note_on_c, 0, 85, 60
5, 121020, Control_c, 0, 64, 127
5, 121052, Note_on_c, 0, 64, 0
5, 121067, Note_on_c, 0, 85, 0
5, 121068, Note_on_c, 0, 55, 0
5, 121080, Note_on_c, 0, 97, 0
5, 121116, Note_on_c, 0, 61, 0
5, 121257, Note_on_c, 0, 60, 71
5, 121263, Note_on_c, 0, 63, 74
5, 121269, Note_on_c, 0, 58, 52
5, 121270, Note_on_c, 0, 53, 70
5, 121287, Note_on_c, 0, 79, 51
5, 121292, Note_on_c, 0, 91, 57
5, 121298, Note_on_c, 0, 90, 42
5, 121321, Control_c, 0, 64, 0
5, 121332, Note_on_c, 0, 91, 0
5, 121349, Note_on_c, 0, 79, 0
5, 121352, Note_on_c, 0, 90, 0
5, 121412, Control_c, 0, 64, 127
5, 121452, Note_on_c, 0, 63, 0
5, 121455, Note_on_c, 0, 53, 0
5, 121470, Note_on_c, 0, 58, 0
5, 121471, Note_on_c, 0, 60, 0
5, 121642, Note_on_c, 0, 60, 58
5, 121655, Note_on_c, 0, 58, 34
5, 121667, Note_on_c, 0, 82, 52
5, 121674, Note_on_c, 0, 60, 0
5, 121675, Note_on_c, 0, 94, 42
5, 121687, Note_on_c, 0, 58, 0
5, 121693, Note_on_c, 0, 82, 0
5, 121701, Note_on_c, 0, 94, 0
5, 121744, Control_c, 0, 64, 0
5, 121788, Note_on_c, 0, 60, 45
5, 121793, Note_on_c, 0, 63, 43
5, 121794, Note_on_c, 0, 53, 50
5, 121800, Note_on_c, 0, 58, 34
5, 121810, Note_on_c, 0, 96, 72
5, 121813, Control_c, 0, 64, 127
5, 121836, Note_on_c, 0, 96, 0
5, 121863, Note_on_c, 0, 63, 0
5, 121919, Note_on_c, 0, 60, 0
5, 121919, Note_on_c, 0, 58, 0
5, 121922, Note_on_c, 0, 53, 0
5, 122050, Note_on_c, 0, 53, 48
5, 122054, Note_on_c, 0, 60, 51
5, 122054, Note_on_c, 0, 63, 48
5, 122056, Note_on_c, 0, 91, 60
5, 122057, Note_on_c, 0, 79, 65
5, 122066, Note_on_c, 0, 58, 38
5, 122083, Note_on_c, 0, 91, 0
5, 122083, Control_c, 0, 64, 0
5, 122084, Note_on_c, 0, 63, 0
5, 122091, Note_on_c, 0, 79, 0
5, 122125, Note_on_c, 0, 53, 0
5, 122167, Control_c, 0, 64, 127
5, 122168, Note_on_c, 0, 60, 0
5, 122204, Note_on_c, 0, 58, 0
5, 122398, Note_on_c, 0, 60, 61
5, 122403, Note_on_c, 0, 63, 62
5, 122415, Note_on_c, 0, 87, 50
5, 122418, Note_on_c, 0, 58, 35
5, 122420, Note_on_c, 0, 53, 29
5, 122421, Note_on_c, 0, 75, 46
5, 122441, Note_on_c, 0, 87, 0
5, 122447, Note_on_c, 0, 75, 0
5, 122455, Note_on_c, 0, 63, 0
5, 122467, Control_c, 0, 64, 0
5, 122494, Note_on_c, 0, 60, 0
5, 122544, Control_c, 0, 64, 127
5, 122569, Note_on_c, 0, 58, 0
5, 122762, Note_on_c, 0, 53, 0
5, 122791, Note_on_c, 0, 70, 60
5, 122793, Note_on_c, 0, 62, 68
5, 122794, Note_on_c, 0, 65, 63
5, 122825, Note_on_c, 0, 55, 71
5, 122845, Control_c, 0, 64, 0
5, 123120, Note_on_c, 0, 62, 0
5, 123122, Note_on_c, 0, 70, 0
5, 123168, Note_on_c, 0, 55, 0
5, 123170, Note_on_c, 0, 72, 63
5, 123174, Note_on_c, 0, 62, 60
5, 123183, Note_on_c, 0, 56, 49
5, 123246, Note_on_c, 0, 72, 0
5, 123265, Note_on_c, 0, 62, 0
5, 123271, Note_on_c, 0, 65, 0
5, 123326, Note_on_c, 0, 70, 53
5, 123457, Note_on_c, 0, 56, 0
5, 123516, Note_on_c, 0, 70, 0
5, 123561, Note_on_c, 0, 68, 72
5, 123572, Note_on_c, 0, 58, 40
5, 123577, Note_on_c, 0, 48, 42
5, 123634, Note_on_c, 0, 58, 0
5, 123673, Note_on_c, 0, 48, 0
5, 123675, Note_on_c, 0, 68, 0
5, 123745, Note_on_c, 0, 67, 43
5, 123898, Note_on_c, 0, 67, 0
5, 123954, Note_on_c, 0, 65, 46
5, 124049, Note_on_c, 0, 65, 0
5, 124106, Note_on_c, 0, 64, 36
5, 124274, Note_on_c, 0, 64, 0
5, 124313, Note_on_c, 0, 63, 49
5, 124329, Note_on_c, 0, 56, 31
5, 124334, Note_on_c, 0, 53, 35
5, 124381, Note_on_c, 0, 53, 0
5, 124388, Note_on_c, 0, 56, 0
5, 124416, Note_on_c, 0, 63, 0
5, 124467, Note_on_c, 0, 60, 45
5, 124667, Note_on_c, 0, 60, 0
5, 124693, Note_on_c, 0, 56, 58
5, 124724, Note_on_c, 0, 48, 42
5, 124783, Note_on_c, 0, 56, 0
5, 124814, Note_on_c, 0, 48, 0
5, 124845, Note_on_c, 0, 55, 28
5, 125094, Note_on_c, 0, 51, 27
5, 125131, Note_on_c, 0, 51, 0
5, 125132, Note_on_c, 0, 55, 0
5, 125198, Note_on_c, 0, 56, 55
5, 125479, Note_on_c, 0, 53, 43
5, 125511, Note_on_c, 0, 53, 0
5, 125524, Note_on_c, 0, 56, 0
5, 125577, Note_on_c, 0, 55, 53
5, 125784, Note_on_c, 0, 55, 0
5, 125836, Note_on_c, 0, 46, 55
5, 125853, Note_on_c, 0, 56, 53
5, 125904, Note_on_c, 0, 46, 0
5, 125977, Note_on_c, 0, 56, 0
5, 126046, Note_on_c, 0, 58, 26
5, 126191, Note_on_c, 0, 58, 0
5, 126729, Note_on_c, 0, 60, 33
5, 126733, Note_on_c, 0, 65, 28
5, 126737, Note_on_c, 0, 61, 31
5, 126767, Note_on_c, 0, 65, 0
5, 126774, Note_on_c, 0, 60, 0
5, 126794, Note_on_c, 0, 61, 0
5, 127203, Control_c, 0, 64, 127
5, 127411, Control_c, 0, 64, 0
5, 127499, Note_on_c, 0, 66, 45
5, 127510, Note_on_c, 0, 62, 31
5, 127515, Note_on_c, 0, 81, 89
5, 127519, Note_on_c, 0, 59, 40
5, 127522, Note_on_c, 0, 55, 24
5, 127606, Note_on_c, 0, 81, 0
5, 127610, Note_on_c, 0, 78, 58
5, 127642, Control_c, 0, 64, 127
5, 127685, Note_on_c, 0, 66, 0
5, 127690, Note_on_c, 0, 62, 0
5, 127727, Note_on_c, 0, 74, 62
5, 127748, Note_on_c, 0, 78, 0
5, 127796, Note_on_c, 0, 62, 26
5, 127807, Note_on_c, 0, 74, 0
5, 127840, Note_on_c, 0, 71, 68
5, 127865, Control_c, 0, 64, 0
5, 127886, Note_on_c, 0, 71, 0
5, 127943, Note_on_c, 0, 62, 0
5, 127980, Note_on_c, 0, 59, 0
5, 127998, Note_on_c, 0, 66, 58
5, 128006, Note_on_c, 0, 55, 0
5, 128057, Note_on_c, 0, 66, 0
5, 128273, Note_on_c, 0, 66, 51
5, 128282, Note_on_c, 0, 61, 37
5, 128293, Note_on_c, 0, 55, 37
5, 128335, Control_c, 0, 64, 127
5, 128575, Note_on_c, 0, 66, 0
5, 128588, Control_c, 0, 64, 0
5, 128677, Note_on_c, 0, 55, 0
5, 128678, Note_on_c, 0, 84, 94
5, 128704, Note_on_c, 0, 83, 28
5, 128714, Note_on_c, 0, 61, 0
5, 128728, Control_c, 0, 64, 127
5, 128730, Note_on_c, 0, 83, 0
5, 128788, Note_on_c, 0, 84, 0
5, 128802, Note_on_c, 0, 81, 61
5, 128870, Note_on_c, 0, 81, 0
5, 128880, Note_on_c, 0, 77, 39
5, 128998, Note_on_c, 0, 77, 0
5, 129001, Note_on_c, 0, 63, 39
5, 129008, Note_on_c, 0, 60, 38
5, 129014, Note_on_c, 0, 73, 39
5, 129035, Note_on_c, 0, 58, 25
5, 129043, Control_c, 0, 64, 0
5, 129057, Note_on_c, 0, 73, 0
5, 129069, Note_on_c, 0, 63, 0
5, 129089, Note_on_c, 0, 53, 6
5, 129104, Note_on_c, 0, 82, 77
5, 129178, Note_on_c, 0, 60, 0
5, 129211, Note_on_c, 0, 82, 0
5, 129220, Note_on_c, 0, 58, 0
5, 129222, Note_on_c, 0, 79, 43
5, 129310, Note_on_c, 0, 75, 52
5, 129313, Note_on_c, 0, 79, 0
5, 129320, Control_c, 0, 64, 127
5, 129354, Note_on_c, 0, 58, 20
5, 129359, Control_c, 0, 64, 0
5, 129373, Note_on_c, 0, 75, 0
5, 129399, Note_on_c, 0, 72, 52
5, 129425, Note_on_c, 0, 72, 0
5, 129481, Note_on_c, 0, 87, 84
5, 129554, Note_on_c, 0, 53, 0
5, 129559, Note_on_c, 0, 87, 0
5, 129602, Note_on_c, 0, 58, 0
5, 129619, Note_on_c, 0, 84, 53
5, 129644, Control_c, 0, 64, 127
5, 129708, Note_on_c, 0, 84, 0
5, 129766, Control_c, 0, 64, 0
5, 129983, Control_c, 0, 64, 127
5, 130044, Control_c, 0, 64, 0
5, 130082, Note_on_c, 0, 63, 60
5, 130092, Note_on_c, 0, 60, 54
5, 130095, Note_on_c, 0, 58, 36
5, 130103, Note_on_c, 0, 53, 30
5, 130244, Control_c, 0, 64, 127
5, 130359, Note_on_c, 0, 58, 0
5, 130431, Note_on_c, 0, 60, 0
5, 130445, Note_on_c, 0, 63, 0
5, 130445, Note_on_c, 0, 53, 0
5, 130537, Control_c, 0, 64, 0
5, 130569, Note_on_c, 0, 63, 46
5, 130576, Note_on_c, 0, 60, 43
5, 130587, Note_on_c, 0, 56, 38
5, 130594, Note_on_c, 0, 53, 26
5, 130596, Note_on_c, 0, 89, 88
5, 130654, Note_on_c, 0, 63, 0
5, 130686, Note_on_c, 0, 89, 0
5, 130691, Note_on_c, 0, 87, 60
5, 130768, Note_on_c, 0, 60, 0
5, 130777, Note_on_c, 0, 87, 0
5, 130833, Note_on_c, 0, 89, 89
5, 130841, Note_on_c, 0, 60, 17
5, 130922, Note_on_c, 0, 87, 64
5, 130927, Note_on_c, 0, 89, 0
5, 131026, Note_on_c, 0, 84, 40
5, 131029, Note_on_c, 0, 87, 0
5, 131035, Note_on_c, 0, 60, 0
5, 131060, Note_on_c, 0, 56, 0
5, 131075, Note_on_c, 0, 84, 0
5, 131114, Note_on_c, 0, 80, 47
5, 131152, Note_on_c, 0, 80, 0
5, 131168, Control_c, 0, 64, 127
5, 131209, Note_on_c, 0, 87, 75
5, 131215, Note_on_c, 0, 56, 20
5, 131224, Note_on_c, 0, 60, 30
5, 131230, Control_c, 0, 64, 0
5, 131285, Note_on_c, 0, 60, 0
5, 131296, Note_on_c, 0, 87, 0
5, 131394, Note_on_c, 0, 56, 0
5, 131398, Note_on_c, 0, 87, 77
5, 131483, Note_on_c, 0, 53, 0
5, 131516, Note_on_c, 0, 84, 62
5, 131525, Note_on_c, 0, 87, 0
5, 131530, Control_c, 0, 64, 127
5, 131587, Note_on_c, 0, 84, 0
5, 131608, Note_on_c, 0, 80, 35
5, 131644, Note_on_c, 0, 63, 36
5, 131666, Note_on_c, 0, 60, 36
5, 131676, Note_on_c, 0, 80, 0
5, 131684, Control_c, 0, 64, 0
5, 131687, Note_on_c, 0, 56, 30
5, 131688, Note_on_c, 0, 77, 51
5, 131689, Note_on_c, 0, 63, 0
5, 131720, Note_on_c, 0, 77, 0
5, 131758, Note_on_c, 0, 53, 6
5, 131765, Note_on_c, 0, 87, 71
5, 131819, Note_on_c, 0, 53, 0
5, 131829, Note_on_c, 0, 56, 0
5, 131834, Note_on_c, 0, 60, 0
5, 131878, Note_on_c, 0, 87, 0
5, 131931, Control_c, 0, 64, 127
5, 131990, Note_on_c, 0, 64, 60
5, 131996, Note_on_c, 0, 60, 51
5, 132002, Note_on_c, 0, 53, 47
5, 132006, Note_on_c, 0, 57, 55
5, 132031, Control_c, 0, 64, 0
5, 132276, Control_c, 0, 64, 127
5, 132400, Control_c, 0, 64, 0
5, 132403, Note_on_c, 0, 84, 91
5, 132404, Note_on_c, 0, 72, 80
5, 132434, Note_on_c, 0, 64, 0
5, 132468, Note_on_c, 0, 72, 0
5, 132521, Note_on_c, 0, 84, 0
5, 132527, Note_on_c, 0, 60, 0
5, 132540, Note_on_c, 0, 81, 62
5, 132557, Note_on_c, 0, 53, 0
5, 132570, Note_on_c, 0, 57, 0
5, 132619, Note_on_c, 0, 81, 0
5, 132660, Note_on_c, 0, 77, 49
5, 132772, Note_on_c, 0, 77, 0
5, 132795, Note_on_c, 0, 72, 62
5, 132826, Note_on_c, 0, 72, 0
5, 132889, Note_on_c, 0, 64, 32
5, 132903, Note_on_c, 0, 59, 36
5, 132916, Note_on_c, 0, 83, 73
5, 132918, Note_on_c, 0, 53, 27
5, 132919, Note_on_c, 0, 71, 70
5, 132939, Control_c, 0, 64, 127
5, 133010, Note_on_c, 0, 83, 0
5, 133051, Note_on_c, 0, 53, 0
5, 133071, Note_on_c, 0, 64, 0
5, 133080, Note_on_c, 0, 71, 0
5, 133126, Note_on_c, 0, 59, 0
5, 133171, Note_on_c, 0, 70, 72
5, 133175, Note_on_c, 0, 82, 69
5, 133184, Note_on_c, 0, 63, 58
5, 133202, Note_on_c, 0, 53, 33
5, 133202, Note_on_c, 0, 59, 37
5, 133221, Note_on_c, 0, 56, 25
5, 133236, Note_on_c, 0, 53, 0
5, 133239, Control_c, 0, 64, 0
5, 133250, Note_on_c, 0, 63, 0
5, 133251, Note_on_c, 0, 70, 0
5, 133253, Note_on_c, 0, 82, 0
5, 133330, Note_on_c, 0, 69, 62
5, 133358, Note_on_c, 0, 56, 0
5, 133393, Note_on_c, 0, 59, 0
5, 133396, Note_on_c, 0, 69, 0
5, 133516, Control_c, 0, 64, 127
5, 133525, Note_on_c, 0, 63, 43
5, 133542, Note_on_c, 0, 59, 42
5, 133549, Note_on_c, 0, 80, 61
5, 133550, Note_on_c, 0, 68, 61
5, 133565, Note_on_c, 0, 56, 27
5, 133583, Note_on_c, 0, 63, 0
5, 133611, Note_on_c, 0, 56, 0
5, 133617, Control_c, 0, 64, 0
5, 133618, Note_on_c, 0, 80, 0
5, 133622, Note_on_c, 0, 68, 0
5, 133672, Note_on_c, 0, 62, 38
5, 133688, Note_on_c, 0, 79, 48
5, 133689, Note_on_c, 0, 55, 42
5, 133695, Note_on_c, 0, 67, 44
5, 133720, Note_on_c, 0, 78, 21
5, 133901, Control_c, 0, 64, 127
5, 133929, Note_on_c, 0, 78, 0
5, 134060, Note_on_c, 0, 52, 1
5, 134088, Note_on_c, 0, 79, 0
5, 134173, Note_on_c, 0, 62, 0
5, 134187, Note_on_c, 0, 59, 0
5, 134217, Note_on_c, 0, 67, 0
5, 134381, Note_on_c, 0, 59, 26
5, 134432, Control_c, 0, 64, 0
5, 134434, Note_on_c, 0, 74, 87
5, 134487, Note_on_c, 0, 59, 0
5, 134577, Note_on_c, 0, 73, 48
5, 134586, Note_on_c, 0, 74, 0
5, 134634, Note_on_c, 0, 72, 49
5, 134674, Note_on_c, 0, 73, 0
5, 134690, Note_on_c, 0, 59, 29
5, 134709, Note_on_c, 0, 72, 0
5, 134709, Note_on_c, 0, 71, 55
5, 134757, Note_on_c, 0, 71, 0
5, 134774, Note_on_c, 0, 59, 0
5, 134857, Note_on_c, 0, 71, 74
5, 134900, Note_on_c, 0, 55, 0
5, 135092, Note_on_c, 0, 71, 0
5, 135096, Note_on_c, 0, 67, 68
5, 135196, Note_on_c, 0, 67, 0
5, 135273, Note_on_c, 0, 52, 0
5, 135277, Note_on_c, 0, 64, 33
5, 135408, Note_on_c, 0, 64, 0
5, 135482, Note_on_c, 0, 59, 37
5, 135612, Note_on_c, 0, 59, 0
5, 135640, Note_on_c, 0, 55, 33
5, 135738, Note_on_c, 0, 55, 0
5, 135877, Note_on_c, 0, 53, 27
5, 135902, Note_on_c, 0, 53, 0
5, 135983, Note_on_c, 0, 59, 69
5, 136161, Note_on_c, 0, 59, 0
5, 136225, Note_on_c, 0, 55, 42
5, 136297, Note_on_c, 0, 55, 0
5, 136359, Note_on_c, 0, 57, 28
5, 136568, Note_on_c, 0, 57, 0
5, 136601, Note_on_c, 0, 58, 48
5, 136603, Note_on_c, 0, 48, 47
5, 136678, Note_on_c, 0, 48, 0
5, 136717, Note_on_c, 0, 58, 0
5, 136768, Note_on_c, 0, 60, 48
5, 136887, Note_on_c, 0, 60, 0
5, 136910, Note_on_c, 0, 65, 61
5, 137029, Note_on_c, 0, 65, 0
5, 137032, Note_on_c, 0, 70, 64
5, 137093, Note_on_c, 0, 70, 0
5, 137150, Control_c, 0, 64, 127
5, 137159, Note_on_c, 0, 72, 72
5, 137207, Note_on_c, 0, 63, 40
5, 137233, Note_on_c, 0, 58, 34
5, 137246, Note_on_c, 0, 72, 0
5, 137266, Control_c, 0, 64, 0
5, 137274, Note_on_c, 0, 77, 70
5, 137335, Control_c, 0, 64, 127
5, 137342, Note_on_c, 0, 58, 0
5, 137376, Note_on_c, 0, 77, 0
5, 137386, Note_on_c, 0, 82, 69
5, 137397, Note_on_c, 0, 63, 0
5, 137442, Note_on_c, 0, 82, 0
5, 137514, Note_on_c, 0, 84, 80
5, 137597, Note_on_c, 0, 84, 0
5, 137632, Note_on_c, 0, 89, 78
5, 137713, Note_on_c, 0, 89, 0
5, 137755, Note_on_c, 0, 94, 83
5, 137847, Note_on_c, 0, 94, 0
5, 137880, Note_on_c, 0, 84, 82
5, 137884, Note_on_c, 0, 96, 83
5, 137898, Control_c, 0, 64, 0
5, 137898, Note_on_c, 0, 65, 34
5, 137908, Note_on_c, 0, 55, 37
5, 137911, Note_on_c, 0, 60, 34
5, 137956, Note_on_c, 0, 96, 0
5, 137984, Note_on_c, 0, 84, 0
5, 137998, Control_c, 0, 64, 127
5, 138016, Note_on_c, 0, 94, 53
5, 138076, Note_on_c, 0, 94, 0
5, 138079, Note_on_c, 0, 65, 0
5, 138119, Note_on_c, 0, 55, 0
5, 138122, Note_on_c, 0, 60, 0
5, 138135, Note_on_c, 0, 96, 78
5, 138137, Note_on_c, 0, 84, 75
5, 138159, Control_c, 0, 64, 0
5, 138208, Note_on_c, 0, 96, 0
5, 138252, Note_on_c, 0, 94, 60
5, 138258, Note_on_c, 0, 84, 0
5, 138325, Note_on_c, 0, 94, 0
5, 138336, Note_on_c, 0, 56, 40
5, 138338, Note_on_c, 0, 60, 26
5, 138341, Note_on_c, 0, 67, 34
5, 138351, Note_on_c, 0, 63, 49
5, 138360, Note_on_c, 0, 96, 76
5, 138361, Note_on_c, 0, 84, 70
5, 138484, Note_on_c, 0, 96, 0
5, 138508, Note_on_c, 0, 84, 0
5, 138548, Note_on_c, 0, 56, 0
5, 138549, Note_on_c, 0, 60, 0
5, 138560, Note_on_c, 0, 63, 0
5, 138586, Note_on_c, 0, 67, 0
5, 139068, Control_c, 0, 64, 127
5, 139271, Note_on_c, 0, 63, 58
5, 139274, Note_on_c, 0, 68, 71
5, 139276, Note_on_c, 0, 53, 50
5, 139278, Note_on_c, 0, 72, 64
5, 139283, Note_on_c, 0, 58, 49
5, 139306, Note_on_c, 0, 53, 0
5, 139357, Note_on_c, 0, 63, 0
5, 139366, Note_on_c, 0, 68, 0
5, 139368, Control_c, 0, 64, 0
5, 139376, Note_on_c, 0, 72, 0
5, 139380, Note_on_c, 0, 58, 0
5, 139420, Note_on_c, 0, 74, 64
5, 139429, Note_on_c, 0, 68, 27
5, 139429, Note_on_c, 0, 70, 50
5, 139432, Note_on_c, 0, 65, 45
5, 139446, Note_on_c, 0, 60, 37
5, 139466, Note_on_c, 0, 55, 34
5, 139468, Control_c, 0, 64, 127
5, 139488, Note_on_c, 0, 68, 0
5, 139498, Note_on_c, 0, 55, 0
5, 139511, Note_on_c, 0, 60, 0
5, 139522, Note_on_c, 0, 74, 0
5, 139526, Note_on_c, 0, 65, 0
5, 139531, Note_on_c, 0, 70, 0
5, 139682, Note_on_c, 0, 57, 58
5, 139685, Note_on_c, 0, 67, 48
5, 139689, Note_on_c, 0, 77, 73
5, 139690, Note_on_c, 0, 62, 60
5, 139697, Note_on_c, 0, 69, 55
5, 139701, Note_on_c, 0, 74, 62
5, 139715, Control_c, 0, 64, 0
5, 139752, Note_on_c, 0, 77, 0
5, 139838, Control_c, 0, 64, 127
5, 139856, Note_on_c, 0, 74, 0
5, 139866, Note_on_c, 0, 67, 0
5, 139896, Note_on_c, 0, 57, 0
5, 139932, Note_on_c, 0, 69, 0
5, 139947, Note_on_c, 0, 62, 0
5, 140070, Note_on_c, 0, 66, 70
5, 140072, Note_on_c, 0, 78, 69
5, 140076, Note_on_c, 0, 62, 43
5, 140076, Note_on_c, 0, 57, 60
5, 140079, Note_on_c, 0, 74, 78
5, 140088, Note_on_c, 0, 69, 68
5, 140108, Control_c, 0, 64, 0
5, 140209, Control_c, 0, 64, 127
5, 140210, Note_on_c, 0, 69, 0
5, 140212, Note_on_c, 0, 74, 0
5, 140241, Note_on_c, 0, 62, 0
5, 140242, Note_on_c, 0, 57, 0
5, 140267, Note_on_c, 0, 78, 0
5, 140270, Note_on_c, 0, 66, 0
5, 140455, Note_on_c, 0, 79, 71
5, 140457, Note_on_c, 0, 72, 74
5, 140459, Note_on_c, 0, 67, 74
5, 140462, Note_on_c, 0, 56, 62
5, 140463, Note_on_c, 0, 62, 60
5, 140463, Note_on_c, 0, 76, 64
5, 140472, Control_c, 0, 64, 0
5, 140546, Note_on_c, 0, 72, 0
5, 140566, Note_on_c, 0, 76, 0
5, 140566, Control_c, 0, 64, 127
5, 140574, Note_on_c, 0, 79, 0
5, 140595, Note_on_c, 0, 67, 0
5, 140632, Note_on_c, 0, 56, 0
5, 140639, Note_on_c, 0, 62, 0
5, 140827, Note_on_c, 0, 56, 62
5, 140830, Note_on_c, 0, 84, 85
5, 140836, Note_on_c, 0, 79, 77
5, 140838, Note_on_c, 0, 62, 66
5, 140839, Note_on_c, 0, 67, 68
5, 140841, Note_on_c, 0, 74, 70
5, 140858, Control_c, 0, 64, 0
5, 140958, Control_c, 0, 64, 127
5, 140978, Note_on_c, 0, 79, 0
5, 141001, Note_on_c, 0, 67, 0
5, 141044, Note_on_c, 0, 74, 0
5, 141053, Note_on_c, 0, 84, 0
5, 141068, Note_on_c, 0, 62, 0
5, 141099, Note_on_c, 0, 56, 0
5, 141202, Note_on_c, 0, 82, 65
5, 141211, Note_on_c, 0, 62, 37
5, 141213, Note_on_c, 0, 77, 63
5, 141214, Note_on_c, 0, 55, 57
5, 141216, Note_on_c, 0, 65, 51
5, 141220, Note_on_c, 0, 60, 52
5, 141223, Note_on_c, 0, 72, 55
5, 141243, Control_c, 0, 64, 0
5, 141350, Control_c, 0, 64, 127
5, 141609, Note_on_c, 0, 82, 0
5, 141698, Note_on_c, 0, 77, 0
5, 141704, Note_on_c, 0, 72, 0
5, 141706, Note_on_c, 0, 65, 0
5, 141723, Note_on_c, 0, 62, 0
5, 141739, Note_on_c, 0, 60, 0
5, 141794, Note_on_c, 0, 55, 0
5, 142089, Note_on_c, 0, 55, 60
5, 142100, Note_on_c, 0, 70, 62
5, 142112, Note_on_c, 0, 60, 55
5, 142113, Note_on_c, 0, 65, 62
5, 142122, Control_c, 0, 64, 0
5, 142252, Note_on_c, 0, 60, 0
5, 142279, Note_on_c, 0, 65, 0
5, 142279, Note_on_c, 0, 70, 0
5, 142330, Control_c, 0, 64, 127
5, 142348, Note_on_c, 0, 55, 0
5, 142369, Control_c, 0, 64, 0
5, 142383, Note_on_c, 0, 54, 37
5, 142481, Note_on_c, 0, 70, 63
5, 142490, Note_on_c, 0, 60, 46
5, 142491, Note_on_c, 0, 54, 0
5, 142492, Note_on_c, 0, 55, 50
5, 142496, Note_on_c, 0, 65, 57
5, 142523, Control_c, 0, 64, 127
5, 142647, Note_on_c, 0, 60, 0
5, 142672, Note_on_c, 0, 65, 0
5, 142675, Note_on_c, 0, 55, 0
5, 142703, Note_on_c, 0, 70, 0
5, 142877, Control_c, 0, 64, 0
5, 143015, Control_c, 0, 64, 127
5, 143208, Control_c, 0, 64, 0
5, 143251, Note_on_c, 0, 72, 58
5, 143253, Note_on_c, 0, 67, 50
5, 143257, Note_on_c, 0, 58, 44
5, 143264, Note_on_c, 0, 60, 44
5, 143353, Note_on_c, 0, 72, 0
5, 143362, Note_on_c, 0, 67, 0
5, 143375, Note_on_c, 0, 58, 0
5, 143380, Note_on_c, 0, 60, 0
5, 143631, Control_c, 0, 64, 127
5, 143634, Note_on_c, 0, 67, 54
5, 143647, Note_on_c, 0, 55, 41
5, 143653, Note_on_c, 0, 63, 35
5, 143658, Note_on_c, 0, 60, 39
5, 143706, Note_on_c, 0, 67, 0
5, 143729, Note_on_c, 0, 63, 0
5, 143735, Note_on_c, 0, 60, 0
5, 143816, Note_on_c, 0, 55, 0
5, 143901, Note_on_c, 0, 63, 48
5, 143914, Note_on_c, 0, 60, 50
5, 143921, Note_on_c, 0, 51, 49
5, 143939, Control_c, 0, 64, 0
5, 143942, Note_on_c, 0, 60, 0
5, 143991, Note_on_c, 0, 63, 0
5, 144008, Note_on_c, 0, 51, 0
5, 144071, Control_c, 0, 64, 127
5, 144289, Note_on_c, 0, 74, 84
5, 144290, Note_on_c, 0, 67, 81
5, 144293, Note_on_c, 0, 63, 78
5, 144300, Note_on_c, 0, 62, 76
5, 144305, Note_on_c, 0, 69, 66
5, 144309, Control_c, 0, 64, 0
5, 144501, Control_c, 0, 64, 127
5, 144675, Note_on_c, 0, 69, 0
5, 144676, Note_on_c, 0, 62, 0
5, 144678, Note_on_c, 0, 67, 0
5, 144690, Note_on_c, 0, 63, 0
5, 144696, Note_on_c, 0, 74, 0
5, 144748, Control_c, 0, 64, 0
5, 144786, Note_on_c, 0, 63, 37
5, 144809, Note_on_c, 0, 60, 40
5, 144822, Note_on_c, 0, 69, 51
5, 144856, Control_c, 0, 64, 127
5, 144968, Note_on_c, 0, 63, 0
5, 145000, Note_on_c, 0, 69, 0
5, 145051, Note_on_c, 0, 63, 39
5, 145056, Control_c, 0, 64, 0
5, 145057, Note_on_c, 0, 66, 49
5, 145068, Note_on_c, 0, 50, 60
5, 145151, Note_on_c, 0, 50, 0
5, 145202, Control_c, 0, 64, 127
5, 145264, Note_on_c, 0, 66, 0
5, 145285, Note_on_c, 0, 63, 0
5, 145423, Note_on_c, 0, 60, 0
5, 145442, Note_on_c, 0, 58, 46
5, 145526, Note_on_c, 0, 58, 0
5, 145541, Control_c, 0, 64, 0
5, 145548, Note_on_c, 0, 78, 73
5, 145555, Note_on_c, 0, 71, 71
5, 145556, Note_on_c, 0, 62, 75
5, 145558, Note_on_c, 0, 74, 71
5, 145561, Note_on_c, 0, 69, 64
5, 145656, Control_c, 0, 64, 127
5, 145675, Note_on_c, 0, 74, 0
5, 145687, Note_on_c, 0, 78, 0
5, 145693, Note_on_c, 0, 71, 0
5, 145736, Note_on_c, 0, 69, 0
5, 145798, Note_on_c, 0, 62, 0
5, 145838, Note_on_c, 0, 56, 33
5, 145880, Control_c, 0, 64, 0
5, 145891, Note_on_c, 0, 56, 0
5, 145928, Note_on_c, 0, 59, 48
5, 145931, Note_on_c, 0, 66, 49
5, 145937, Note_on_c, 0, 74, 36
5, 145965, Control_c, 0, 64, 127
5, 145970, Note_on_c, 0, 74, 0
5, 146022, Note_on_c, 0, 66, 0
5, 146142, Note_on_c, 0, 59, 0
5, 146205, Note_on_c, 0, 71, 54
5, 146208, Note_on_c, 0, 66, 54
5, 146217, Note_on_c, 0, 62, 50
5, 146224, Note_on_c, 0, 54, 44
5, 146234, Control_c, 0, 64, 0
5, 146334, Control_c, 0, 64, 127
5, 146350, Note_on_c, 0, 71, 0
5, 146403, Note_on_c, 0, 66, 0
5, 146458, Note_on_c, 0, 62, 0
5, 146583, Note_on_c, 0, 51, 32
5, 146587, Note_on_c, 0, 54, 0
5, 146659, Note_on_c, 0, 51, 0
5, 146687, Note_on_c, 0, 52, 37
5, 146699, Note_on_c, 0, 66, 37
5, 146699, Note_on_c, 0, 57, 40
5, 146701, Note_on_c, 0, 62, 46
5, 146710, Note_on_c, 0, 59, 44
5, 146712, Control_c, 0, 64, 0
5, 146761, Note_on_c, 0, 52, 0
5, 146965, Note_on_c, 0, 50, 74
5, 146978, Note_on_c, 0, 49, 55
5, 147026, Note_on_c, 0, 49, 0
5, 147392, Note_on_c, 0, 50, 0
5, 147478, Note_on_c, 0, 49, 56
5, 147486, Note_on_c, 0, 50, 70
5, 147536, Note_on_c, 0, 49, 0
5, 147858, Control_c, 0, 64, 127
5, 147908, Note_on_c, 0, 50, 0
5, 148075, Note_on_c, 0, 57, 0
5, 148115, Note_on_c, 0, 50, 82
5, 148121, Note_on_c, 0, 59, 0
5, 148134, Note_on_c, 0, 49, 36
5, 148137, Note_on_c, 0, 62, 0
5, 148143, Control_c, 0, 64, 0
5, 148183, Note_on_c, 0, 49, 0
5, 148235, Control_c, 0, 64, 127
5, 148238, Note_on_c, 0, 50, 0
5, 148249, Note_on_c, 0, 66, 0
5, 148612, Note_on_c, 0, 62, 67
5, 148619, Note_on_c, 0, 74, 47
5, 148624, Note_on_c, 0, 71, 62
5, 148634, Note_on_c, 0, 67, 61
5, 148636, Control_c, 0, 64, 0
5, 148639, Note_on_c, 0, 64, 64
5, 148908, Note_on_c, 0, 50, 43
5, 148928, Note_on_c, 0, 62, 0
5, 148948, Note_on_c, 0, 64, 0
5, 148968, Control_c, 0, 64, 127
5, 148995, Note_on_c, 0, 67, 0
5, 149025, Note_on_c, 0, 71, 0
5, 149037, Note_on_c, 0, 74, 0
5, 149286, Note_on_c, 0, 86, 73
5, 149303, Note_on_c, 0, 79, 51
5, 149315, Note_on_c, 0, 62, 53
5, 149352, Control_c, 0, 64, 0
5, 149421, Note_on_c, 0, 86, 0
5, 149422, Note_on_c, 0, 79, 0
5, 149453, Note_on_c, 0, 50, 0
5, 149476, Control_c, 0, 64, 127
5, 149490, Note_on_c, 0, 50, 29
5, 149493, Note_on_c, 0, 81, 57
5, 149504, Note_on_c, 0, 76, 55
5, 149650, Note_on_c, 0, 81, 0
5, 149682, Note_on_c, 0, 76, 0
5, 149714, Note_on_c, 0, 62, 0
5, 149789, Note_on_c, 0, 62, 51
5, 149984, Note_on_c, 0, 50, 0
5, 150060, Note_on_c, 0, 65, 57
5, 150062, Note_on_c, 0, 50, 56
5, 150098, Control_c, 0, 64, 0
5, 150103, Note_on_c, 0, 62, 0
5, 150152, Note_on_c, 0, 65, 0
5, 150212, Note_on_c, 0, 70, 37
5, 150291, Control_c, 0, 64, 127
5, 150301, Note_on_c, 0, 70, 0
5, 150326, Note_on_c, 0, 75, 64
5, 150346, Control_c, 0, 64, 0
5, 150364, Note_on_c, 0, 75, 0
5, 150377, Note_on_c, 0, 60, 47
5, 150390, Note_on_c, 0, 54, 38
5, 150464, Note_on_c, 0, 77, 37
5, 150545, Note_on_c, 0, 77, 0
5, 150557, Note_on_c, 0, 50, 0
5, 150572, Note_on_c, 0, 82, 48
5, 150645, Control_c, 0, 64, 127
5, 150671, Note_on_c, 0, 82, 0
5, 150684, Note_on_c, 0, 87, 65
5, 150750, Note_on_c, 0, 87, 0
5, 150769, Control_c, 0, 64, 0
5, 150776, Note_on_c, 0, 50, 67
5, 150815, Note_on_c, 0, 89, 91
5, 150897, Note_on_c, 0, 89, 0
5, 150904, Note_on_c, 0, 60, 0
5, 150949, Note_on_c, 0, 87, 57
5, 151006, Note_on_c, 0, 87, 0
5, 151074, Note_on_c, 0, 89, 96
5, 151100, Control_c, 0, 64, 127
5, 151186, Note_on_c, 0, 87, 77
5, 151219, Note_on_c, 0, 89, 0
5, 151246, Note_on_c, 0, 60, 32
5, 151269, Control_c, 0, 64, 0
5, 151315, Note_on_c, 0, 82, 61
5, 151342, Note_on_c, 0, 87, 0
5, 151393, Note_on_c, 0, 50, 0
5, 151417, Note_on_c, 0, 82, 0
5, 151453, Note_on_c, 0, 77, 26
5, 151525, Note_on_c, 0, 77, 0
5, 151562, Control_c, 0, 64, 127
5, 151565, Note_on_c, 0, 87, 83
5, 151575, Note_on_c, 0, 50, 52
5, 151681, Note_on_c, 0, 87, 0
5, 151693, Control_c, 0, 64, 0
5, 151740, Note_on_c, 0, 54, 0
5, 151747, Note_on_c, 0, 60, 0
5, 151822, Note_on_c, 0, 87, 78
5, 151870, Control_c, 0, 64, 127
5, 151934, Note_on_c, 0, 82, 53
5, 151959, Note_on_c, 0, 87, 0
5, 152028, Note_on_c, 0, 82, 0
5, 152080, Note_on_c, 0, 77, 34
5, 152088, Note_on_c, 0, 59, 37
5, 152091, Note_on_c, 0, 62, 29
5, 152116, Control_c, 0, 64, 0
5, 152186, Note_on_c, 0, 77, 0
5, 152223, Note_on_c, 0, 57, 1
5, 152258, Note_on_c, 0, 86, 80
5, 152278, Control_c, 0, 64, 127
5, 152312, Note_on_c, 0, 50, 0
5, 152350, Note_on_c, 0, 62, 0
5, 152351, Note_on_c, 0, 86, 0
5, 152401, Control_c, 0, 64, 0
5, 152424, Note_on_c, 0, 50, 38
5, 152512, Note_on_c, 0, 86, 87
5, 152548, Control_c, 0, 64, 127
5, 152625, Note_on_c, 0, 59, 0
5, 152638, Note_on_c, 0, 81, 64
5, 152641, Note_on_c, 0, 86, 0
5, 152701, Note_on_c, 0, 57, 0
5, 152731, Note_on_c, 0, 81, 0
5, 152760, Note_on_c, 0, 78, 48
5, 152794, Control_c, 0, 64, 0
5, 152863, Note_on_c, 0, 78, 0
5, 152871, Control_c, 0, 64, 127
5, 152908, Note_on_c, 0, 76, 24
5, 152968, Note_on_c, 0, 76, 0
5, 153022, Note_on_c, 0, 81, 74
5, 153058, Note_on_c, 0, 62, 42
5, 153072, Note_on_c, 0, 59, 35
5, 153081, Note_on_c, 0, 57, 30
5, 153136, Note_on_c, 0, 81, 0
5, 153148, Control_c, 0, 64, 0
5, 153157, Note_on_c, 0, 78, 49
5, 153208, Note_on_c, 0, 78, 0
5, 153249, Note_on_c, 0, 62, 0
5, 153267, Note_on_c, 0, 81, 88
5, 153355, Note_on_c, 0, 59, 0
5, 153382, Note_on_c, 0, 57, 0
5, 153384, Note_on_c, 0, 78, 61
5, 153398, Note_on_c, 0, 81, 0
5, 153402, Control_c, 0, 64, 127
5, 153496, Note_on_c, 0, 59, 15
5, 153498, Note_on_c, 0, 62, 22
5, 153508, Note_on_c, 0, 76, 50
5, 153533, Control_c, 0, 64, 0
5, 153544, Note_on_c, 0, 78, 0
5, 153591, Note_on_c, 0, 76, 0
5, 153635, Note_on_c, 0, 71, 43
5, 153668, Note_on_c, 0, 62, 0
5, 153688, Note_on_c, 0, 59, 0
5, 153702, Control_c, 0, 64, 127
5, 153705, Note_on_c, 0, 71, 0
5, 153880, Control_c, 0, 64, 0
5, 153880, Note_on_c, 0, 62, 30
5, 153882, Note_on_c, 0, 59, 42
5, 153892, Note_on_c, 0, 57, 33
5, 154026, Control_c, 0, 64, 127
5, 154083, Note_on_c, 0, 50, 0
5, 154103, Note_on_c, 0, 62, 0
5, 154241, Note_on_c, 0, 50, 55
5, 154256, Control_c, 0, 64, 0
5, 154379, Control_c, 0, 64, 127
5, 154422, Note_on_c, 0, 59, 0
5, 154426, Note_on_c, 0, 57, 0
5, 154630, Note_on_c, 0, 59, 56
5, 154633, Note_on_c, 0, 62, 53
5, 154634, Note_on_c, 0, 57, 48
5, 154673, Note_on_c, 0, 62, 0
5, 154740, Note_on_c, 0, 50, 0
5, 154741, Note_on_c, 0, 59, 0
5, 154765, Note_on_c, 0, 69, 50
5, 154765, Control_c, 0, 64, 0
5, 154782, Note_on_c, 0, 57, 0
5, 154839, Note_on_c, 0, 70, 38
5, 154849, Note_on_c, 0, 69, 0
5, 154906, Note_on_c, 0, 70, 0
5, 154919, Note_on_c, 0, 71, 57
5, 154984, Note_on_c, 0, 71, 0
5, 155021, Note_on_c, 0, 74, 95
5, 155061, Note_on_c, 0, 54, 40
5, 155066, Note_on_c, 0, 64, 47
5, 155094, Note_on_c, 0, 60, 46
5, 155109, Note_on_c, 0, 57, 30
5, 155146, Note_on_c, 0, 74, 0
5, 155162, Note_on_c, 0, 69, 29
5, 155193, Note_on_c, 0, 70, 31
5, 155213, Note_on_c, 0, 60, 0
5, 155230, Note_on_c, 0, 64, 0
5, 155249, Note_on_c, 0, 69, 0
5, 155295, Note_on_c, 0, 70, 0
5, 155307, Note_on_c, 0, 71, 35
5, 155399, Note_on_c, 0, 71, 0
5, 155458, Note_on_c, 0, 60, 24
5, 155537, Note_on_c, 0, 54, 0
5, 155542, Note_on_c, 0, 71, 65
5, 155637, Note_on_c, 0, 60, 0
5, 155703, Note_on_c, 0, 57, 0
5, 155765, Note_on_c, 0, 71, 0
5, 155822, Note_on_c, 0, 71, 69
5, 155892, Note_on_c, 0, 71, 0
5, 155961, Note_on_c, 0, 71, 49
5, 156153, Note_on_c, 0, 71, 0
5, 156191, Note_on_c, 0, 69, 65
5, 156224, Note_on_c, 0, 64, 24
5, 156239, Note_on_c, 0, 60, 24
5, 156250, Note_on_c, 0, 64, 0
5, 156267, Note_on_c, 0, 57, 24
5, 156281, Note_on_c, 0, 60, 0
5, 156282, Note_on_c, 0, 69, 0
5, 156336, Note_on_c, 0, 57, 0
5, 156345, Note_on_c, 0, 69, 31
5, 156509, Note_on_c, 0, 69, 0
5, 156583, Note_on_c, 0, 69, 59
5, 156586, Note_on_c, 0, 62, 59
5, 156588, Note_on_c, 0, 51, 48
5, 156610, Note_on_c, 0, 57, 36
5, 156617, Note_on_c, 0, 62, 0
5, 156638, Note_on_c, 0, 69, 0
5, 156643, Note_on_c, 0, 57, 0
5, 156654, Note_on_c, 0, 51, 0
5, 157081, Note_on_c, 0, 63, 57
5, 157107, Note_on_c, 0, 63, 0
5, 157146, Note_on_c, 0, 65, 58
5, 157187, Note_on_c, 0, 67, 49
5, 157219, Note_on_c, 0, 65, 0
5, 157239, Note_on_c, 0, 69, 54
5, 157281, Note_on_c, 0, 71, 72
5, 157282, Note_on_c, 0, 69, 0
5, 157284, Note_on_c, 0, 67, 0
5, 157321, Note_on_c, 0, 71, 0
5, 157342, Note_on_c, 0, 75, 69
5, 157368, Note_on_c, 0, 75, 0
5, 157397, Note_on_c, 0, 77, 66
5, 157451, Note_on_c, 0, 77, 0
5, 157451, Note_on_c, 0, 79, 58
5, 157483, Note_on_c, 0, 81, 62
5, 157509, Note_on_c, 0, 81, 0
5, 157511, Note_on_c, 0, 79, 0
5, 157552, Note_on_c, 0, 84, 61
5, 157577, Note_on_c, 0, 84, 0
5, 157603, Note_on_c, 0, 87, 39
5, 157630, Note_on_c, 0, 87, 0
5, 157656, Note_on_c, 0, 89, 60
5, 157712, Note_on_c, 0, 89, 0
5, 157720, Note_on_c, 0, 91, 34
5, 157749, Note_on_c, 0, 93, 54
5, 157779, Note_on_c, 0, 91, 0
5, 157841, Note_on_c, 0, 93, 0
5, 157846, Note_on_c, 0, 95, 64
5, 157913, Note_on_c, 0, 95, 0
5, 158568, Control_c, 0, 64, 127
5, 158869, Note_on_c, 0, 63, 55
5, 158875, Note_on_c, 0, 59, 48
5, 158881, Note_on_c, 0, 68, 53
5, 158881, Note_on_c, 0, 80, 53
5, 158891, Note_on_c, 0, 56, 29
5, 158899, Note_on_c, 0, 63, 0
5, 158904, Note_on_c, 0, 59, 0
5, 158906, Note_on_c, 0, 68, 0
5, 158907, Note_on_c, 0, 80, 0
5, 158927, Note_on_c, 0, 56, 0
5, 158938, Control_c, 0, 64, 0
5, 158961, Control_c, 0, 64, 127
5, 159001, Note_on_c, 0, 63, 51
5, 159016, Note_on_c, 0, 71, 44
5, 159018, Note_on_c, 0, 83, 59
5, 159020, Note_on_c, 0, 56, 27
5, 159024, Note_on_c, 0, 59, 39
5, 159026, Note_on_c, 0, 52, 20
5, 159072, Note_on_c, 0, 71, 0
5, 159073, Note_on_c, 0, 63, 0
5, 159092, Note_on_c, 0, 52, 0
5, 159096, Note_on_c, 0, 83, 0
5, 159104, Note_on_c, 0, 59, 0
5, 159110, Note_on_c, 0, 56, 0
5, 159259, Note_on_c, 0, 88, 75
5, 159268, Note_on_c, 0, 59, 47
5, 159269, Note_on_c, 0, 76, 60
5, 159270, Note_on_c, 0, 63, 33
5, 159284, Note_on_c, 0, 87, 51
5, 159285, Note_on_c, 0, 88, 0
5, 159295, Note_on_c, 0, 76, 0
5, 159296, Note_on_c, 0, 63, 0
5, 159298, Note_on_c, 0, 59, 0
5, 159310, Note_on_c, 0, 87, 0
5, 159364, Note_on_c, 0, 63, 51
5, 159366, Note_on_c, 0, 59, 47
5, 159377, Note_on_c, 0, 52, 50
5, 159381, Note_on_c, 0, 56, 42
5, 159396, Note_on_c, 0, 78, 72
5, 159397, Note_on_c, 0, 90, 74
5, 159455, Note_on_c, 0, 59, 0
5, 159491, Note_on_c, 0, 78, 0
5, 159500, Note_on_c, 0, 90, 0
5, 159503, Note_on_c, 0, 63, 0
5, 159506, Note_on_c, 0, 52, 0
5, 159547, Note_on_c, 0, 56, 0
5, 159643, Note_on_c, 0, 92, 70
5, 159645, Note_on_c, 0, 80, 73
5, 159646, Note_on_c, 0, 58, 64
5, 159649, Note_on_c, 0, 52, 66
5, 159651, Note_on_c, 0, 62, 71
5, 159654, Note_on_c, 0, 87, 63
5, 159677, Control_c, 0, 64, 0
5, 159769, Control_c, 0, 64, 127
5, 159947, Note_on_c, 0, 87, 0
5, 159948, Note_on_c, 0, 80, 0
5, 159974, Note_on_c, 0, 92, 0
5, 160162, Note_on_c, 0, 62, 0
5, 160167, Note_on_c, 0, 52, 0
5, 160193, Note_on_c, 0, 96, 91
5, 160273, Note_on_c, 0, 58, 0
5, 160299, Note_on_c, 0, 94, 47
5, 160308, Note_on_c, 0, 92, 59
5, 160324, Note_on_c, 0, 96, 0
5, 160397, Note_on_c, 0, 94, 0
5, 160411, Note_on_c, 0, 92, 0
5, 160418, Note_on_c, 0, 88, 58
5, 160480, Note_on_c, 0, 88, 0
5, 160493, Note_on_c, 0, 84, 53
5, 160560, Note_on_c, 0, 84, 0
5, 160578, Control_c, 0, 64, 0
5, 160586, Note_on_c, 0, 94, 77
5, 160678, Note_on_c, 0, 90, 45
5, 160717, Control_c, 0, 64, 127
5, 160769, Note_on_c, 0, 90, 0
5, 160776, Note_on_c, 0, 94, 0
5, 160842, Note_on_c, 0, 82, 39
5, 160843, Note_on_c, 0, 62, 43
5, 160854, Note_on_c, 0, 58, 33
5, 160863, Control_c, 0, 64, 0
5, 160864, Note_on_c, 0, 52, 28
5, 160875, Note_on_c, 0, 82, 0
5, 160884, Note_on_c, 0, 62, 0
5, 160904, Note_on_c, 0, 52, 0
5, 160935, Note_on_c, 0, 58, 0
5, 160954, Note_on_c, 0, 92, 82
5, 160986, Control_c, 0, 64, 127
5, 161067, Note_on_c, 0, 92, 0
5, 161185, Note_on_c, 0, 84, 40
5, 161219, Note_on_c, 0, 84, 0
5, 161259, Note_on_c, 0, 80, 49
5, 161294, Note_on_c, 0, 80, 0
5, 161294, Note_on_c, 0, 63, 35
5, 161316, Note_on_c, 0, 60, 29
5, 161327, Note_on_c, 0, 56, 37
5, 161330, Note_on_c, 0, 53, 34
5, 161331, Note_on_c, 0, 63, 0
5, 161333, Control_c, 0, 64, 0
5, 161343, Note_on_c, 0, 91, 79
5, 161368, Note_on_c, 0, 60, 0
5, 161457, Note_on_c, 0, 87, 53
5, 161463, Note_on_c, 0, 91, 0
5, 161531, Note_on_c, 0, 56, 0
5, 161546, Note_on_c, 0, 84, 44
5, 161557, Note_on_c, 0, 87, 0
5, 161600, Note_on_c, 0, 84, 0
5, 161628, Note_on_c, 0, 56, 7
5, 161632, Note_on_c, 0, 80, 44
5, 161681, Note_on_c, 0, 53, 0
5, 161692, Note_on_c, 0, 80, 0
5, 161712, Note_on_c, 0, 56, 0
5, 161734, Note_on_c, 0, 87, 74
5, 161826, Note_on_c, 0, 87, 0
5, 161872, Control_c, 0, 64, 127
5, 161956, Note_on_c, 0, 63, 53
5, 161958, Note_on_c, 0, 67, 62
5, 161964, Control_c, 0, 64, 0
5, 161967, Note_on_c, 0, 60, 51
5, 161973, Note_on_c, 0, 56, 38
5, 162110, Control_c, 0, 64, 127
5, 162486, Note_on_c, 0, 67, 0
5, 162488, Note_on_c, 0, 63, 0
5, 162583, Note_on_c, 0, 60, 0
5, 162600, Note_on_c, 0, 56, 0
5, 162738, Note_on_c, 0, 84, 113
5, 162744, Note_on_c, 0, 65, 60
5, 162749, Note_on_c, 0, 60, 47
5, 162754, Note_on_c, 0, 61, 57
5, 162767, Note_on_c, 0, 56, 35
5, 162780, Control_c, 0, 64, 0
5, 163010, Note_on_c, 0, 82, 51
5, 163018, Note_on_c, 0, 84, 0
5, 163104, Note_on_c, 0, 77, 52
5, 163161, Note_on_c, 0, 65, 0
5, 163174, Note_on_c, 0, 73, 52
5, 163185, Note_on_c, 0, 82, 0
5, 163191, Note_on_c, 0, 77, 0
5, 163210, Note_on_c, 0, 73, 0
5, 163310, Note_on_c, 0, 72, 22
5, 163311, Note_on_c, 0, 56, 0
5, 163406, Note_on_c, 0, 60, 0
5, 163442, Note_on_c, 0, 61, 0
5, 163506, Note_on_c, 0, 72, 0
5, 163538, Note_on_c, 0, 70, 67
5, 163557, Note_on_c, 0, 65, 40
5, 163564, Note_on_c, 0, 60, 27
5, 163565, Note_on_c, 0, 61, 25
5, 163607, Note_on_c, 0, 70, 0
5, 163618, Note_on_c, 0, 65, 0
5, 163696, Note_on_c, 0, 68, 34
5, 163773, Note_on_c, 0, 60, 0
5, 163806, Note_on_c, 0, 61, 0
5, 163870, Note_on_c, 0, 68, 0
5, 163912, Note_on_c, 0, 65, 37
5, 163979, Note_on_c, 0, 65, 0
5, 164059, Note_on_c, 0, 66, 34
5, 164226, Note_on_c, 0, 66, 0
5, 164265, Note_on_c, 0, 62, 34
5, 164275, Note_on_c, 0, 67, 38
5, 164293, Note_on_c, 0, 55, 31
5, 164299, Note_on_c, 0, 59, 17
5, 164306, Note_on_c, 0, 62, 0
5, 164337, Note_on_c, 0, 55, 0
5, 164357, Note_on_c, 0, 59, 0
5, 164412, Note_on_c, 0, 67, 0
5, 164459, Control_c, 0, 64, 127
5, 164474, Control_c, 0, 64, 0
5, 164475, Note_on_c, 0, 69, 33
5, 164497, Control_c, 0, 64, 127
5, 164599, Note_on_c, 0, 69, 0
5, 164640, Note_on_c, 0, 70, 64
5, 164644, Note_on_c, 0, 62, 55
5, 164652, Note_on_c, 0, 66, 64
5, 164666, Note_on_c, 0, 55, 33
5, 164676, Note_on_c, 0, 59, 41
5, 164681, Control_c, 0, 64, 0
5, 164757, Note_on_c, 0, 70, 0
5, 164790, Control_c, 0, 64, 127
5, 164818, Note_on_c, 0, 71, 43
5, 164924, Note_on_c, 0, 62, 0
5, 164941, Note_on_c, 0, 55, 0
5, 164946, Note_on_c, 0, 71, 0
5, 164959, Note_on_c, 0, 59, 0
5, 164971, Note_on_c, 0, 66, 0
5, 165021, Note_on_c, 0, 74, 85
5, 165031, Note_on_c, 0, 66, 72
5, 165041, Note_on_c, 0, 61, 69
5, 165046, Note_on_c, 0, 55, 60
5, 165051, Control_c, 0, 64, 0
5, 165159, Control_c, 0, 64, 127
5, 165186, Note_on_c, 0, 74, 0
5, 165205, Note_on_c, 0, 75, 48
5, 165253, Note_on_c, 0, 55, 0
5, 165286, Note_on_c, 0, 66, 0
5, 165334, Note_on_c, 0, 61, 0
5, 165380, Note_on_c, 0, 75, 0
5, 165422, Note_on_c, 0, 61, 57
5, 165425, Note_on_c, 0, 76, 62
5, 165428, Note_on_c, 0, 66, 71
5, 165440, Note_on_c, 0, 55, 60
5, 165498, Note_on_c, 0, 76, 0
5, 165506, Control_c, 0, 64, 0
5, 165536, Note_on_c, 0, 66, 0
5, 165546, Note_on_c, 0, 55, 0
5, 165583, Control_c, 0, 64, 127
5, 165599, Note_on_c, 0, 81, 39
5, 165649, Note_on_c, 0, 61, 0
5, 165762, Note_on_c, 0, 81, 0
5, 165795, Note_on_c, 0, 84, 74
5, 165796, Note_on_c, 0, 63, 60
5, 165799, Note_on_c, 0, 60, 58
5, 165802, Note_on_c, 0, 58, 33
5, 165828, Note_on_c, 0, 60, 0
5, 165842, Note_on_c, 0, 63, 0
5, 165859, Note_on_c, 0, 58, 0
5, 165863, Note_on_c, 0, 84, 0
5, 165907, Control_c, 0, 64, 0
5, 165930, Note_on_c, 0, 63, 36
5, 165933, Note_on_c, 0, 73, 38
5, 165935, Note_on_c, 0, 85, 61
5, 165936, Note_on_c, 0, 60, 47
5, 165945, Note_on_c, 0, 53, 33
5, 165946, Note_on_c, 0, 58, 31
5, 166029, Control_c, 0, 64, 127
5, 166147, Note_on_c, 0, 53, 0
5, 166169, Note_on_c, 0, 60, 0
5, 166171, Note_on_c, 0, 58, 0
5, 166180, Note_on_c, 0, 73, 0
5, 166181, Note_on_c, 0, 63, 0
5, 166185, Note_on_c, 0, 85, 0
5, 166222, Control_c, 0, 64, 0
5, 166296, Note_on_c, 0, 63, 39
5, 166302, Note_on_c, 0, 87, 52
5, 166303, Note_on_c, 0, 75, 37
5, 166311, Note_on_c, 0, 60, 46
5, 166314, Note_on_c, 0, 53, 29
5, 166316, Note_on_c, 0, 58, 30
5, 166317, Note_on_c, 0, 82, 38
5, 166337, Control_c, 0, 64, 127
5, 166474, Note_on_c, 0, 53, 0
5, 166525, Note_on_c, 0, 63, 0
5, 166526, Note_on_c, 0, 82, 0
5, 166532, Note_on_c, 0, 75, 0
5, 166534, Note_on_c, 0, 87, 0
5, 166537, Note_on_c, 0, 58, 0
5, 166550, Note_on_c, 0, 60, 0
5, 166661, Control_c, 0, 64, 0
5, 166673, Note_on_c, 0, 63, 42
5, 166700, Note_on_c, 0, 72, 39
5, 166701, Note_on_c, 0, 60, 35
5, 166703, Note_on_c, 0, 58, 29
5, 166746, Control_c, 0, 64, 127
5, 166780, Note_on_c, 0, 72, 0
5, 166816, Note_on_c, 0, 60, 0
5, 166819, Note_on_c, 0, 63, 0
5, 166847, Note_on_c, 0, 58, 0
5, 166935, Note_on_c, 0, 79, 55
5, 166946, Note_on_c, 0, 67, 34
5, 166954, Note_on_c, 0, 63, 36
5, 166968, Note_on_c, 0, 58, 25
5, 166971, Note_on_c, 0, 53, 27
5, 166973, Note_on_c, 0, 60, 38
5, 166985, Note_on_c, 0, 67, 0
5, 166991, Control_c, 0, 64, 0
5, 166999, Note_on_c, 0, 79, 0
5, 167076, Control_c, 0, 64, 127
5, 167157, Note_on_c, 0, 63, 0
5, 167172, Note_on_c, 0, 60, 0
5, 167217, Note_on_c, 0, 53, 0
5, 167237, Note_on_c, 0, 58, 0
5, 167370, Note_on_c, 0, 62, 46
5, 167414, Note_on_c, 0, 62, 0
5, 167427, Note_on_c, 0, 75, 61
5, 167431, Control_c, 0, 64, 0
5, 167440, Note_on_c, 0, 68, 64
5, 167441, Note_on_c, 0, 63, 72
5, 167444, Note_on_c, 0, 65, 65
5, 167454, Note_on_c, 0, 72, 57
5, 167492, Note_on_c, 0, 72, 0
5, 167492, Note_on_c, 0, 65, 0
5, 167498, Note_on_c, 0, 68, 0
5, 167517, Note_on_c, 0, 75, 0
5, 167522, Note_on_c, 0, 63, 0
5, 167559, Note_on_c, 0, 62, 47
5, 167598, Note_on_c, 0, 75, 73
5, 167613, Note_on_c, 0, 65, 67
5, 167623, Note_on_c, 0, 68, 59
5, 167624, Note_on_c, 0, 63, 72
5, 167640, Note_on_c, 0, 62, 0
5, 167676, Note_on_c, 0, 65, 0
5, 167692, Note_on_c, 0, 68, 0
5, 167703, Note_on_c, 0, 75, 0
5, 167759, Note_on_c, 0, 63, 0
5, 167789, Note_on_c, 0, 62, 45
5, 167798, Note_on_c, 0, 61, 36
5, 167818, Note_on_c, 0, 75, 68
5, 167832, Note_on_c, 0, 61, 0
5, 167833, Note_on_c, 0, 68, 52
5, 167835, Note_on_c, 0, 65, 60
5, 167836, Note_on_c, 0, 72, 62
5, 167839, Note_on_c, 0, 63, 68
5, 167849, Note_on_c, 0, 62, 0
5, 167914, Note_on_c, 0, 72, 0
5, 167931, Note_on_c, 0, 75, 0
5, 167939, Note_on_c, 0, 68, 0
5, 167940, Note_on_c, 0, 65, 0
5, 167976, Note_on_c, 0, 61, 51
5, 167977, Note_on_c, 0, 63, 0
5, 167985, Note_on_c, 0, 73, 48
5, 168054, Note_on_c, 0, 73, 0
5, 168113, Note_on_c, 0, 68, 68
5, 168113, Note_on_c, 0, 75, 77
5, 168119, Note_on_c, 0, 61, 0
5, 168119, Note_on_c, 0, 72, 69
5, 168120, Note_on_c, 0, 65, 68
5, 168127, Note_on_c, 0, 62, 49
5, 168132, Note_on_c, 0, 63, 70
5, 168152, Note_on_c, 0, 62, 0
5, 168252, Note_on_c, 0, 72, 0
5, 168260, Note_on_c, 0, 65, 0
5, 168266, Note_on_c, 0, 75, 0
5, 168277, Note_on_c, 0, 68, 0
5, 168322, Note_on_c, 0, 61, 37
5, 168325, Note_on_c, 0, 73, 56
5, 168328, Note_on_c, 0, 68, 51
5, 168334, Note_on_c, 0, 65, 45
5, 168386, Note_on_c, 0, 63, 0
5, 168408, Note_on_c, 0, 65, 0
5, 168418, Note_on_c, 0, 68, 0
5, 168455, Control_c, 0, 64, 127
5, 168463, Note_on_c, 0, 61, 0
5, 168481, Note_on_c, 0, 73, 0
5, 168520, Note_on_c, 0, 56, 37
5, 168531, Control_c, 0, 64, 0
5, 168589, Note_on_c, 0, 56, 0
5, 168610, Note_on_c, 0, 75, 76
5, 168611, Note_on_c, 0, 63, 62
5, 168625, Note_on_c, 0, 65, 58
5, 168628, Note_on_c, 0, 68, 50
5, 168714, Note_on_c, 0, 65, 0
5, 168732, Note_on_c, 0, 75, 0
5, 168737, Note_on_c, 0, 68, 0
5, 168770, Note_on_c, 0, 63, 0
5, 168779, Note_on_c, 0, 73, 53
5, 168784, Note_on_c, 0, 65, 44
5, 168785, Note_on_c, 0, 68, 33
5, 168789, Note_on_c, 0, 61, 40
5, 168816, Note_on_c, 0, 68, 0
5, 168819, Note_on_c, 0, 65, 0
5, 168840, Note_on_c, 0, 73, 0
5, 168854, Note_on_c, 0, 61, 0
5, 169355, Control_c, 0, 64, 127
5, 169756, Control_c, 0, 64, 0
5, 169921, Note_on_c, 0, 75, 83
5, 169923, Note_on_c, 0, 67, 74
5, 169924, Note_on_c, 0, 63, 78
5, 169927, Note_on_c, 0, 64, 79
5, 169928, Note_on_c, 0, 70, 69
5, 170075, Note_on_c, 0, 64, 0
5, 170083, Note_on_c, 0, 75, 0
5, 170092, Note_on_c, 0, 67, 0
5, 170095, Control_c, 0, 64, 127
5, 170103, Note_on_c, 0, 70, 0
5, 170106, Note_on_c, 0, 63, 0
5, 170162, Note_on_c, 0, 73, 64
5, 170163, Note_on_c, 0, 70, 51
5, 170165, Note_on_c, 0, 61, 56
5, 170166, Note_on_c, 0, 64, 66
5, 170177, Note_on_c, 0, 67, 36
5, 170218, Note_on_c, 0, 67, 0
5, 170239, Note_on_c, 0, 73, 0
5, 170243, Note_on_c, 0, 70, 0
5, 170289, Note_on_c, 0, 64, 0
5, 170293, Note_on_c, 0, 61, 0
5, 170533, Control_c, 0, 64, 0
5, 170540, Note_on_c, 0, 70, 48
5, 170542, Note_on_c, 0, 58, 57
5, 170566, Note_on_c, 0, 60, 28
5, 170572, Note_on_c, 0, 63, 38
5, 170589, Note_on_c, 0, 67, 27
5, 170688, Note_on_c, 0, 67, 0
5, 170718, Note_on_c, 0, 60, 0
5, 170719, Note_on_c, 0, 63, 0
5, 170755, Note_on_c, 0, 58, 0
5, 170765, Note_on_c, 0, 70, 0
5, 170779, Note_on_c, 0, 67, 37
5, 170784, Note_on_c, 0, 63, 49
5, 170791, Note_on_c, 0, 60, 58
5, 170799, Note_on_c, 0, 55, 43
5, 170819, Note_on_c, 0, 67, 0
5, 170857, Note_on_c, 0, 63, 0
5, 170879, Note_on_c, 0, 55, 0
5, 170888, Note_on_c, 0, 60, 0
5, 170901, Note_on_c, 0, 51, 40
5, 171111, Control_c, 0, 64, 127
5, 171126, Note_on_c, 0, 51, 0
5, 171167, Note_on_c, 0, 49, 49
5, 171200, Note_on_c, 0, 49, 0
5, 171218, Control_c, 0, 64, 0
5, 171278, Note_on_c, 0, 55, 50
5, 171281, Note_on_c, 0, 63, 30
5, 171283, Note_on_c, 0, 60, 49
5, 171286, Note_on_c, 0, 51, 23
5, 171288, Note_on_c, 0, 58, 39
5, 171524, Note_on_c, 0, 51, 0
5, 171530, Note_on_c, 0, 63, 0
5, 171540, Note_on_c, 0, 55, 0
5, 171550, Note_on_c, 0, 58, 0
5, 171576, Note_on_c, 0, 48, 29
5, 171590, Note_on_c, 0, 60, 0
5, 171618, Note_on_c, 0, 48, 0
5, 171644, Note_on_c, 0, 51, 39
5, 171667, Note_on_c, 0, 63, 29
5, 171669, Note_on_c, 0, 60, 32
5, 171673, Control_c, 0, 64, 127
5, 171674, Note_on_c, 0, 55, 33
5, 171682, Note_on_c, 0, 58, 30
5, 171704, Note_on_c, 0, 51, 0
5, 171768, Note_on_c, 0, 55, 0
5, 171831, Note_on_c, 0, 63, 0
5, 171836, Note_on_c, 0, 58, 0
5, 171865, Note_on_c, 0, 60, 0
5, 171911, Control_c, 0, 64, 0
5, 171914, Note_on_c, 0, 56, 50
5, 171916, Note_on_c, 0, 62, 50
5, 171924, Note_on_c, 0, 47, 49
5, 171931, Note_on_c, 0, 59, 47
5, 171960, Note_on_c, 0, 59, 0
5, 171960, Note_on_c, 0, 47, 0
5, 171993, Note_on_c, 0, 62, 0
5, 172006, Note_on_c, 0, 56, 0
5, 172020, Control_c, 0, 64, 127
5, 172307, Note_on_c, 0, 62, 43
5, 172308, Note_on_c, 0, 56, 31
5, 172314, Note_on_c, 0, 65, 55
5, 172327, Note_on_c, 0, 59, 28
5, 172381, Control_c, 0, 64, 0
5, 172385, Note_on_c, 0, 65, 0
5, 172394, Note_on_c, 0, 59, 0
5, 172404, Note_on_c, 0, 53, 11
5, 172461, Note_on_c, 0, 68, 25
5, 172496, Note_on_c, 0, 62, 0
5, 172625, Note_on_c, 0, 68, 0
5, 172703, Note_on_c, 0, 71, 63
5, 172773, Note_on_c, 0, 71, 0
5, 172824, Note_on_c, 0, 62, 65
5, 172825, Note_on_c, 0, 74, 64
5, 172861, Note_on_c, 0, 56, 0
5, 172985, Note_on_c, 0, 62, 0
5, 173006, Note_on_c, 0, 74, 0
5, 173152, Note_on_c, 0, 59, 28
5, 173182, Note_on_c, 0, 62, 9
5, 173219, Note_on_c, 0, 77, 72
5, 173220, Note_on_c, 0, 65, 33
5, 173221, Note_on_c, 0, 59, 0
5, 173231, Control_c, 0, 64, 127
5, 173296, Note_on_c, 0, 53, 0
5, 173400, Note_on_c, 0, 65, 0
5, 173401, Note_on_c, 0, 62, 0
5, 173430, Note_on_c, 0, 77, 0
5, 173458, Note_on_c, 0, 75, 56
5, 173521, Note_on_c, 0, 75, 0
5, 173547, Control_c, 0, 64, 0
5, 173561, Note_on_c, 0, 65, 40
5, 173577, Note_on_c, 0, 56, 25
5, 173586, Note_on_c, 0, 60, 25
5, 173588, Note_on_c, 0, 68, 57
5, 173593, Note_on_c, 0, 80, 49
5, 173596, Note_on_c, 0, 61, 27
5, 173639, Control_c, 0, 64, 127
5, 173731, Note_on_c, 0, 61, 0
5, 173734, Note_on_c, 0, 60, 0
5, 173807, Note_on_c, 0, 65, 0
5, 173811, Note_on_c, 0, 56, 0
5, 173823, Note_on_c, 0, 68, 0
5, 173835, Note_on_c, 0, 80, 0
5, 173893, Control_c, 0, 64, 0
5, 173957, Note_on_c, 0, 65, 42
5, 173960, Note_on_c, 0, 70, 49
5, 173961, Note_on_c, 0, 56, 33
5, 173964, Note_on_c, 0, 82, 57
5, 173969, Note_on_c, 0, 61, 27
5, 173972, Note_on_c, 0, 60, 30
5, 173985, Control_c, 0, 64, 127
5, 174141, Note_on_c, 0, 65, 0
5, 174149, Note_on_c, 0, 60, 0
5, 174154, Note_on_c, 0, 56, 0
5, 174157, Note_on_c, 0, 61, 0
5, 174161, Note_on_c, 0, 70, 0
5, 174169, Note_on_c, 0, 82, 0
5, 174240, Note_on_c, 0, 84, 65
5, 174241, Note_on_c, 0, 72, 63
5, 174247, Control_c, 0, 64, 0
5, 174251, Note_on_c, 0, 61, 39
5, 174252, Note_on_c, 0, 56, 46
5, 174258, Note_on_c, 0, 65, 44
5, 174264, Note_on_c, 0, 60, 32
5, 174336, Note_on_c, 0, 84, 0
5, 174344, Note_on_c, 0, 65, 0
5, 174346, Note_on_c, 0, 72, 0
5, 174354, Control_c, 0, 64, 127
5, 174370, Note_on_c, 0, 60, 0
5, 174373, Note_on_c, 0, 56, 0
5, 174389, Note_on_c, 0, 61, 0
5, 174487, Note_on_c, 0, 85, 63
5, 174488, Note_on_c, 0, 73, 50
5, 174489, Note_on_c, 0, 61, 35
5, 174495, Note_on_c, 0, 65, 38
5, 174496, Note_on_c, 0, 56, 33
5, 174570, Note_on_c, 0, 65, 0
5, 174588, Note_on_c, 0, 56, 0
5, 174615, Note_on_c, 0, 73, 0
5, 174620, Note_on_c, 0, 61, 0
5, 174628, Note_on_c, 0, 85, 0
5, 174662, Control_c, 0, 64, 0
5, 174724, Control_c, 0, 64, 127
5, 174731, Note_on_c, 0, 86, 61
5, 174734, Note_on_c, 0, 65, 34
5, 174736, Note_on_c, 0, 56, 37
5, 174738, Note_on_c, 0, 74, 39
5, 174741, Note_on_c, 0, 61, 35
5, 174748, Note_on_c, 0, 80, 35
5, 174776, Note_on_c, 0, 65, 0
5, 174795, Note_on_c, 0, 86, 0
5, 174805, Note_on_c, 0, 74, 0
5, 174807, Note_on_c, 0, 80, 0
5, 174847, Note_on_c, 0, 61, 0
5, 174874, Note_on_c, 0, 56, 0
5, 174992, Note_on_c, 0, 87, 68
5, 174997, Note_on_c, 0, 66, 55
5, 174999, Note_on_c, 0, 75, 55
5, 175002, Control_c, 0, 64, 0
5, 175003, Note_on_c, 0, 55, 55
5, 175006, Note_on_c, 0, 61, 45
5, 175102, Control_c, 0, 64, 127
5, 175103, Note_on_c, 0, 55, 0
5, 175108, Note_on_c, 0, 66, 0
5, 175140, Note_on_c, 0, 75, 0
5, 175156, Note_on_c, 0, 61, 0
5, 175164, Note_on_c, 0, 87, 0
5, 175244, Note_on_c, 0, 88, 57
5, 175246, Note_on_c, 0, 66, 56
5, 175250, Note_on_c, 0, 76, 47
5, 175257, Note_on_c, 0, 61, 37
5, 175260, Note_on_c, 0, 55, 54
5, 175329, Note_on_c, 0, 76, 0
5, 175340, Note_on_c, 0, 55, 0
5, 175370, Note_on_c, 0, 88, 0
5, 175373, Note_on_c, 0, 66, 0
5, 175429, Note_on_c, 0, 61, 0
5, 175463, Control_c, 0, 64, 0
5, 175501, Note_on_c, 0, 61, 33
5, 175503, Note_on_c, 0, 64, 40
5, 175504, Note_on_c, 0, 91, 67
5, 175505, Note_on_c, 0, 79, 61
5, 175506, Note_on_c, 0, 55, 54
5, 175517, Control_c, 0, 64, 127
5, 175581, Note_on_c, 0, 64, 0
5, 175602, Note_on_c, 0, 79, 0
5, 175620, Note_on_c, 0, 55, 0
5, 175628, Note_on_c, 0, 91, 0
5, 175693, Note_on_c, 0, 61, 0
5, 175756, Control_c, 0, 64, 0
5, 175771, Note_on_c, 0, 61, 56
5, 175776, Note_on_c, 0, 93, 71
5, 175779, Note_on_c, 0, 55, 61
5, 175780, Note_on_c, 0, 81, 64
5, 175782, Note_on_c, 0, 64, 57
5, 175856, Control_c, 0, 64, 127
5, 175864, Note_on_c, 0, 81, 0
5, 175868, Note_on_c, 0, 64, 0
5, 175869, Note_on_c, 0, 55, 0
5, 175923, Note_on_c, 0, 93, 0
5, 175923, Note_on_c, 0, 61, 0
5, 176023, Note_on_c, 0, 82, 67
5, 176024, Note_on_c, 0, 94, 59
5, 176030, Note_on_c, 0, 61, 56
5, 176035, Note_on_c, 0, 55, 64
5, 176042, Note_on_c, 0, 64, 51
5, 176094, Note_on_c, 0, 64, 0
5, 176121, Note_on_c, 0, 55, 0
5, 176129, Note_on_c, 0, 94, 0
5, 176138, Note_on_c, 0, 61, 0
5, 176140, Note_on_c, 0, 82, 0
5, 176210, Control_c, 0, 64, 0
5, 176252, Note_on_c, 0, 55, 53
5, 176271, Note_on_c, 0, 61, 57
5, 176272, Control_c, 0, 64, 127
5, 176276, Note_on_c, 0, 64, 38
5, 176277, Note_on_c, 0, 96, 72
5, 176278, Note_on_c, 0, 84, 71
5, 176308, Note_on_c, 0, 64, 0
5, 176313, Note_on_c, 0, 55, 0
5, 176340, Note_on_c, 0, 84, 0
5, 176354, Note_on_c, 0, 96, 0
5, 176485, Note_on_c, 0, 61, 0
5, 176523, Note_on_c, 0, 63, 59
5, 176524, Note_on_c, 0, 58, 32
5, 176528, Note_on_c, 0, 87, 67
5, 176533, Note_on_c, 0, 60, 48
5, 176535, Control_c, 0, 64, 0
5, 176536, Note_on_c, 0, 99, 68
5, 176607, Note_on_c, 0, 63, 0
5, 176616, Note_on_c, 0, 60, 0
5, 176619, Control_c, 0, 64, 127
5, 176620, Note_on_c, 0, 87, 0
5, 176647, Note_on_c, 0, 58, 0
5, 176648, Note_on_c, 0, 99, 0
5, 176763, Note_on_c, 0, 89, 70
5, 176763, Note_on_c, 0, 101, 66
5, 176767, Note_on_c, 0, 63, 48
5, 176771, Note_on_c, 0, 60, 48
5, 176774, Note_on_c, 0, 53, 41
5, 176776, Note_on_c, 0, 58, 36
5, 176783, Note_on_c, 0, 96, 59
5, 176869, Note_on_c, 0, 96, 0
5, 176873, Note_on_c, 0, 89, 0
5, 176873, Note_on_c, 0, 101, 0
5, 176877, Note_on_c, 0, 63, 0
5, 176889, Note_on_c, 0, 53, 0
5, 176906, Note_on_c, 0, 60, 0
5, 176916, Note_on_c, 0, 58, 0
5, 176989, Control_c, 0, 64, 0
5, 177015, Note_on_c, 0, 63, 59
5, 177015, Note_on_c, 0, 103, 61
5, 177022, Note_on_c, 0, 53, 53
5, 177025, Note_on_c, 0, 99, 46
5, 177026, Note_on_c, 0, 60, 55
5, 177026, Note_on_c, 0, 96, 61
5, 177028, Note_on_c, 0, 91, 54
5, 177035, Note_on_c, 0, 58, 43
5, 177061, Control_c, 0, 64, 127
5, 177108, Note_on_c, 0, 91, 0
5, 177109, Note_on_c, 0, 63, 0
5, 177135, Note_on_c, 0, 53, 0
5, 177140, Note_on_c, 0, 96, 0
5, 177143, Note_on_c, 0, 103, 0
5, 177150, Note_on_c, 0, 60, 0
5, 177174, Note_on_c, 0, 58, 0
5, 177208, Note_on_c, 0, 99, 0
5, 177293, Note_on_c, 0, 58, 37
5, 177297, Note_on_c, 0, 63, 48
5, 177300, Note_on_c, 0, 53, 43
5, 177301, Note_on_c, 0, 60, 54
5, 177307, Control_c, 0, 64, 0
5, 177309, Note_on_c, 0, 104, 57
5, 177312, Note_on_c, 0, 99, 33
5, 177313, Note_on_c, 0, 96, 43
5, 177313, Note_on_c, 0, 92, 55
5, 177344, Note_on_c, 0, 96, 0
5, 177367, Note_on_c, 0, 63, 0
5, 177384, Control_c, 0, 64, 127
5, 177385, Note_on_c, 0, 99, 0
5, 177393, Note_on_c, 0, 92, 0
5, 177395, Note_on_c, 0, 53, 0
5, 177412, Note_on_c, 0, 60, 0
5, 177421, Note_on_c, 0, 104, 0
5, 177441, Note_on_c, 0, 58, 0
5, 177545, Note_on_c, 0, 94, 62
5, 177551, Note_on_c, 0, 106, 62
5, 177563, Note_on_c, 0, 60, 49
5, 177564, Note_on_c, 0, 58, 36
5, 177568, Note_on_c, 0, 63, 39
5, 177574, Note_on_c, 0, 53, 36
5, 177638, Note_on_c, 0, 63, 0
5, 177648, Note_on_c, 0, 53, 0
5, 177673, Note_on_c, 0, 94, 0
5, 177675, Note_on_c, 0, 106, 0
5, 177711, Note_on_c, 0, 60, 0
5, 177725, Note_on_c, 0, 58, 0
5, 177782, Note_on_c, 0, 63, 30
5, 177784, Note_on_c, 0, 53, 48
5, 177793, Note_on_c, 0, 60, 35
5, 177796, Note_on_c, 0, 108, 65
5, 177801, Note_on_c, 0, 58, 14
5, 177874, Note_on_c, 0, 60, 0
5, 177879, Note_on_c, 0, 63, 0
5, 177887, Note_on_c, 0, 58, 0
5, 177961, Control_c, 0, 64, 0
5, 177972, Note_on_c, 0, 108, 0
5, 178043, Note_on_c, 0, 61, 56
5, 178044, Note_on_c, 0, 106, 71
5, 178054, Note_on_c, 0, 58, 47
5, 178064, Note_on_c, 0, 55, 38
5, 178215, Note_on_c, 0, 104, 57
5, 178232, Note_on_c, 0, 106, 0
5, 178299, Note_on_c, 0, 58, 0
5, 178353, Note_on_c, 0, 104, 0
5, 178403, Note_on_c, 0, 106, 62
5, 178431, Note_on_c, 0, 53, 0
5, 178441, Note_on_c, 0, 55, 0
5, 178445, Note_on_c, 0, 58, 26
5, 178453, Note_on_c, 0, 61, 0
5, 178487, Note_on_c, 0, 104, 53
5, 178557, Note_on_c, 0, 102, 50
5, 178576, Note_on_c, 0, 106, 0
5, 178624, Note_on_c, 0, 104, 0
5, 178665, Note_on_c, 0, 102, 0
5, 178679, Note_on_c, 0, 100, 37
5, 178700, Note_on_c, 0, 58, 0
5, 178774, Note_on_c, 0, 100, 0
5, 178846, Note_on_c, 0, 63, 64
5, 178849, Note_on_c, 0, 99, 63
5, 178859, Note_on_c, 0, 58, 39
5, 178878, Note_on_c, 0, 100, 39
5, 178886, Note_on_c, 0, 52, 37
5, 178916, Note_on_c, 0, 63, 0
5, 178918, Note_on_c, 0, 52, 0
5, 178945, Note_on_c, 0, 100, 0
5, 178957, Note_on_c, 0, 99, 0
5, 179004, Note_on_c, 0, 97, 36
5, 179074, Note_on_c, 0, 58, 0
5, 179195, Note_on_c, 0, 97, 0
5, 179231, Note_on_c, 0, 96, 71
5, 179301, Note_on_c, 0, 96, 0
5, 179387, Note_on_c, 0, 94, 62
5, 179581, Note_on_c, 0, 94, 0
5, 179608, Note_on_c, 0, 67, 55
5, 179609, Note_on_c, 0, 92, 70
5, 179611, Note_on_c, 0, 63, 45
5, 179622, Note_on_c, 0, 56, 27
5, 179625, Note_on_c, 0, 60, 45
5, 179651, Note_on_c, 0, 67, 0
5, 179657, Note_on_c, 0, 60, 0
5, 179672, Note_on_c, 0, 56, 0
5, 179720, Note_on_c, 0, 63, 0
5, 179739, Note_on_c, 0, 92, 0
5, 179791, Note_on_c, 0, 91, 51
5, 179902, Note_on_c, 0, 91, 0
5, 179944, Note_on_c, 0, 92, 39
5, 180000, Note_on_c, 0, 91, 51
5, 180050, Note_on_c, 0, 92, 0
5, 180097, Note_on_c, 0, 91, 0
5, 180110, Note_on_c, 0, 88, 50
5, 180207, Note_on_c, 0, 88, 0
5, 180245, Note_on_c, 0, 91, 72
5, 180415, Note_on_c, 0, 67, 26
5, 180417, Note_on_c, 0, 91, 0
5, 180430, Note_on_c, 0, 63, 26
5, 180443, Note_on_c, 0, 67, 0
5, 180448, Note_on_c, 0, 60, 27
5, 180451, Note_on_c, 0, 88, 49
5, 180484, Note_on_c, 0, 88, 0
5, 180519, Note_on_c, 0, 63, 0
5, 180521, Note_on_c, 0, 60, 0
5, 180565, Note_on_c, 0, 89, 74
5, 180746, Note_on_c, 0, 89, 0
5, 180787, Note_on_c, 0, 84, 74
5, 180851, Note_on_c, 0, 84, 0
5, 180918, Note_on_c, 0, 80, 39
5, 181069, Note_on_c, 0, 80, 0
5, 181136, Note_on_c, 0, 65, 50
5, 181150, Note_on_c, 0, 79, 40
5, 181156, Note_on_c, 0, 56, 23
5, 181163, Note_on_c, 0, 60, 24
5, 181169, Note_on_c, 0, 61, 25
5, 181173, Note_on_c, 0, 65, 0
5, 181178, Note_on_c, 0, 79, 0
5, 181202, Note_on_c, 0, 60, 0
5, 181222, Note_on_c, 0, 61, 0
5, 181224, Note_on_c, 0, 56, 0
5, 181313, Note_on_c, 0, 84, 35
5, 181350, Note_on_c, 0, 84, 0
5, 181374, Note_on_c, 0, 85, 62
5, 181454, Note_on_c, 0, 85, 0
5, 181454, Note_on_c, 0, 84, 38
5, 181513, Note_on_c, 0, 84, 0
5, 181533, Note_on_c, 0, 65, 30
5, 181539, Note_on_c, 0, 81, 57
5, 181549, Note_on_c, 0, 61, 33
5, 181565, Note_on_c, 0, 65, 0
5, 181575, Note_on_c, 0, 81, 0
5, 181642, Note_on_c, 0, 61, 0
5, 181666, Note_on_c, 0, 82, 46
5, 181749, Note_on_c, 0, 82, 0
5, 181921, Note_on_c, 0, 84, 85
5, 181941, Note_on_c, 0, 65, 36
5, 181951, Note_on_c, 0, 60, 27
5, 181961, Note_on_c, 0, 61, 25
5, 181970, Note_on_c, 0, 65, 0
5, 181991, Note_on_c, 0, 60, 0
5, 181998, Note_on_c, 0, 84, 0
5, 182022, Note_on_c, 0, 61, 0
5, 182143, Note_on_c, 0, 79, 54
5, 182241, Note_on_c, 0, 79, 0
5, 182331, Note_on_c, 0, 72, 30
5, 182358, Note_on_c, 0, 72, 0
5, 182669, Note_on_c, 0, 65, 62
5, 182674, Note_on_c, 0, 61, 48
5, 182679, Note_on_c, 0, 55, 53
5, 182695, Note_on_c, 0, 65, 0
5, 182706, Note_on_c, 0, 55, 0
5, 182726, Note_on_c, 0, 61, 0
5, 183424, Note_on_c, 0, 66, 42
5, 183428, Note_on_c, 0, 62, 37
5, 183436, Note_on_c, 0, 59, 45
5, 183453, Note_on_c, 0, 66, 0
5, 183601, Note_on_c, 0, 62, 0
5, 183608, Note_on_c, 0, 59, 0
5, 183637, Note_on_c, 0, 85, 31
5, 183663, Note_on_c, 0, 85, 0
5, 183664, Note_on_c, 0, 86, 54
5, 183729, Note_on_c, 0, 86, 0
5, 183849, Note_on_c, 0, 79, 33
5, 183853, Note_on_c, 0, 62, 35
5, 183876, Note_on_c, 0, 59, 38
5, 183892, Note_on_c, 0, 79, 0
5, 183915, Note_on_c, 0, 59, 0
5, 183926, Note_on_c, 0, 62, 0
5, 183953, Note_on_c, 0, 88, 83
5, 184048, Note_on_c, 0, 85, 52
5, 184059, Note_on_c, 0, 88, 0
5, 184114, Note_on_c, 0, 82, 32
5, 184173, Note_on_c, 0, 85, 0
5, 184228, Note_on_c, 0, 79, 45
5, 184239, Note_on_c, 0, 66, 39
5, 184242, Note_on_c, 0, 61, 42
5, 184248, Note_on_c, 0, 55, 31
5, 184265, Note_on_c, 0, 66, 0
5, 184271, Note_on_c, 0, 82, 0
5, 184284, Note_on_c, 0, 79, 0
5, 184287, Note_on_c, 0, 55, 0
5, 184324, Note_on_c, 0, 87, 70
5, 184357, Note_on_c, 0, 61, 0
5, 184408, Note_on_c, 0, 87, 0
5, 184414, Note_on_c, 0, 84, 54
5, 184512, Note_on_c, 0, 84, 0
5, 184589, Note_on_c, 0, 63, 27
5, 184600, Note_on_c, 0, 58, 29
5, 184625, Note_on_c, 0, 63, 0
5, 184705, Note_on_c, 0, 84, 80
5, 184805, Note_on_c, 0, 84, 0
5, 184809, Note_on_c, 0, 58, 0
5, 184815, Note_on_c, 0, 82, 44
5, 184843, Note_on_c, 0, 80, 47
5, 184868, Note_on_c, 0, 80, 0
5, 184953, Note_on_c, 0, 82, 0
5, 185011, Note_on_c, 0, 60, 30
5, 185014, Note_on_c, 0, 58, 26
5, 185042, Note_on_c, 0, 72, 26
5, 185055, Note_on_c, 0, 60, 0
5, 185074, Note_on_c, 0, 72, 0
5, 185119, Note_on_c, 0, 82, 79
5, 185156, Note_on_c, 0, 58, 0
5, 185221, Note_on_c, 0, 79, 48
5, 185242, Note_on_c, 0, 82, 0
5, 185245, Control_c, 0, 64, 127
5, 185294, Note_on_c, 0, 79, 0
5, 185331, Note_on_c, 0, 75, 25
5, 185410, Note_on_c, 0, 75, 0
5, 185419, Note_on_c, 0, 63, 34
5, 185423, Note_on_c, 0, 72, 38
5, 185445, Note_on_c, 0, 60, 35
5, 185456, Note_on_c, 0, 63, 0
5, 185466, Note_on_c, 0, 72, 0
5, 185468, Note_on_c, 0, 58, 17
5, 185483, Control_c, 0, 64, 0
5, 185511, Note_on_c, 0, 79, 73
5, 185525, Note_on_c, 0, 60, 0
5, 185575, Note_on_c, 0, 58, 0
5, 185607, Control_c, 0, 64, 127
5, 185615, Note_on_c, 0, 75, 44
5, 185659, Note_on_c, 0, 79, 0
5, 185696, Note_on_c, 0, 72, 37
5, 185747, Note_on_c, 0, 75, 0
5, 185806, Note_on_c, 0, 67, 49
5, 185821, Note_on_c, 0, 63, 32
5, 185832, Note_on_c, 0, 72, 0
5, 185840, Note_on_c, 0, 56, 32
5, 185845, Note_on_c, 0, 60, 26
5, 185847, Note_on_c, 0, 63, 0
5, 185853, Note_on_c, 0, 67, 0
5, 185889, Note_on_c, 0, 60, 0
5, 185892, Control_c, 0, 64, 0
5, 185904, Note_on_c, 0, 77, 76
5, 185997, Note_on_c, 0, 56, 0
5, 186004, Note_on_c, 0, 75, 34
5, 186017, Note_on_c, 0, 77, 0
5, 186052, Note_on_c, 0, 75, 0
5, 186169, Note_on_c, 0, 63, 57
5, 186176, Note_on_c, 0, 60, 49
5, 186179, Note_on_c, 0, 56, 35
5, 186221, Note_on_c, 0, 53, 26
5, 186679, Note_on_c, 0, 63, 0
5, 186685, Control_c, 0, 64, 127
5, 186752, Note_on_c, 0, 60, 0
5, 186781, Note_on_c, 0, 56, 0
5, 186789, Note_on_c, 0, 53, 0
5, 186897, Note_on_c, 0, 60, 57
5, 186900, Note_on_c, 0, 56, 46
5, 186913, Note_on_c, 0, 53, 37
5, 186972, Note_on_c, 0, 60, 0
5, 186986, Control_c, 0, 64, 0
5, 187000, Note_on_c, 0, 53, 0
5, 187022, Note_on_c, 0, 56, 0
5, 187024, Note_on_c, 0, 63, 33
5, 187050, Note_on_c, 0, 63, 0
5, 187108, Control_c, 0, 64, 127
5, 187272, Note_on_c, 0, 60, 55
5, 187285, Note_on_c, 0, 57, 41
5, 187288, Note_on_c, 0, 50, 36
5, 187297, Note_on_c, 0, 53, 52
5, 187308, Control_c, 0, 64, 0
5, 187350, Note_on_c, 0, 60, 0
5, 187417, Note_on_c, 0, 64, 51
5, 187447, Note_on_c, 0, 57, 0
5, 187484, Note_on_c, 0, 53, 0
5, 187515, Note_on_c, 0, 64, 0
5, 187531, Note_on_c, 0, 65, 44
5, 187620, Note_on_c, 0, 65, 0
5, 187636, Note_on_c, 0, 67, 44
5, 187709, Note_on_c, 0, 57, 31
5, 187722, Note_on_c, 0, 67, 0
5, 187735, Note_on_c, 0, 69, 61
5, 187798, Note_on_c, 0, 57, 0
5, 187829, Note_on_c, 0, 69, 0
5, 187838, Note_on_c, 0, 65, 37
5, 187853, Note_on_c, 0, 50, 0
5, 187916, Note_on_c, 0, 65, 0
5, 187932, Note_on_c, 0, 67, 34
5, 188015, Note_on_c, 0, 67, 0
5, 188017, Note_on_c, 0, 69, 51
5, 188111, Note_on_c, 0, 69, 0
5, 188115, Note_on_c, 0, 71, 52
5, 188118, Note_on_c, 0, 53, 27
5, 188131, Note_on_c, 0, 59, 44
5, 188165, Note_on_c, 0, 53, 0
5, 188169, Note_on_c, 0, 59, 0
5, 188198, Note_on_c, 0, 67, 44
5, 188200, Note_on_c, 0, 71, 0
5, 188293, Note_on_c, 0, 67, 0
5, 188315, Note_on_c, 0, 69, 34
5, 188407, Note_on_c, 0, 69, 0
5, 188411, Note_on_c, 0, 71, 45
5, 188479, Note_on_c, 0, 63, 33
5, 188486, Note_on_c, 0, 72, 63
5, 188507, Note_on_c, 0, 71, 0
5, 188509, Note_on_c, 0, 56, 23
5, 188518, Note_on_c, 0, 59, 17
5, 188550, Note_on_c, 0, 72, 0
5, 188558, Note_on_c, 0, 53, 33
5, 188563, Note_on_c, 0, 63, 0
5, 188634, Note_on_c, 0, 53, 0
5, 188671, Note_on_c, 0, 70, 15
5, 188687, Note_on_c, 0, 56, 0
5, 188712, Note_on_c, 0, 70, 0
5, 188733, Note_on_c, 0, 69, 42
5, 188800, Note_on_c, 0, 59, 0
5, 188801, Note_on_c, 0, 71, 47
5, 188866, Note_on_c, 0, 69, 0
5, 188889, Note_on_c, 0, 59, 39
5, 188896, Note_on_c, 0, 62, 40
5, 188906, Note_on_c, 0, 72, 58
5, 188910, Note_on_c, 0, 71, 0
5, 188910, Note_on_c, 0, 55, 50
5, 188912, Note_on_c, 0, 52, 31
5, 188934, Note_on_c, 0, 62, 0
5, 188962, Note_on_c, 0, 72, 0
5, 188969, Note_on_c, 0, 52, 0
5, 188994, Note_on_c, 0, 70, 46
5, 189080, Note_on_c, 0, 59, 0
5, 189086, Note_on_c, 0, 70, 0
5, 189095, Note_on_c, 0, 55, 0
5, 189107, Note_on_c, 0, 71, 30
5, 189174, Note_on_c, 0, 72, 43
5, 189234, Note_on_c, 0, 71, 0
5, 189272, Note_on_c, 0, 72, 0
5, 189273, Note_on_c, 0, 74, 64
5, 189290, Note_on_c, 0, 59, 31
5, 189359, Note_on_c, 0, 74, 0
5, 189360, Note_on_c, 0, 59, 0
5, 189396, Note_on_c, 0, 71, 35
5, 189469, Note_on_c, 0, 72, 40
5, 189494, Note_on_c, 0, 71, 0
5, 189526, Control_c, 0, 64, 127
5, 189571, Note_on_c, 0, 74, 60
5, 189601, Note_on_c, 0, 72, 0
5, 189638, Note_on_c, 0, 64, 45
5, 189649, Note_on_c, 0, 60, 48
5, 189654, Note_on_c, 0, 76, 64
5, 189657, Control_c, 0, 64, 0
5, 189668, Note_on_c, 0, 59, 34
5, 189675, Note_on_c, 0, 74, 0
5, 189730, Note_on_c, 0, 76, 0
5, 189737, Note_on_c, 0, 64, 0
5, 189767, Note_on_c, 0, 73, 37
5, 189811, Control_c, 0, 64, 127
5, 189835, Note_on_c, 0, 59, 0
5, 189850, Note_on_c, 0, 73, 0
5, 189850, Note_on_c, 0, 74, 49
5, 189855, Note_on_c, 0, 60, 0
5, 189965, Note_on_c, 0, 76, 43
5, 190034, Control_c, 0, 64, 0
5, 190048, Note_on_c, 0, 77, 64
5, 190049, Note_on_c, 0, 74, 0
5, 190131, Note_on_c, 0, 77, 0
5, 190131, Note_on_c, 0, 76, 0
5, 190157, Control_c, 0, 64, 127
5, 190164, Note_on_c, 0, 75, 42
5, 190243, Note_on_c, 0, 75, 0
5, 190262, Note_on_c, 0, 76, 36
5, 190331, Note_on_c, 0, 77, 46
5, 190388, Note_on_c, 0, 76, 0
5, 190405, Note_on_c, 0, 59, 54
5, 190406, Note_on_c, 0, 53, 58
5, 190408, Note_on_c, 0, 64, 55
5, 190412, Control_c, 0, 64, 0
5, 190417, Note_on_c, 0, 79, 61
5, 190432, Note_on_c, 0, 77, 0
5, 190500, Note_on_c, 0, 64, 0
5, 190501, Note_on_c, 0, 79, 0
5, 190508, Note_on_c, 0, 53, 0
5, 190535, Control_c, 0, 64, 127
5, 190537, Note_on_c, 0, 76, 34
5, 190544, Note_on_c, 0, 59, 0
5, 190621, Note_on_c, 0, 77, 36
5, 190666, Note_on_c, 0, 76, 0
5, 190731, Note_on_c, 0, 79, 43
5, 190776, Note_on_c, 0, 53, 51
5, 190784, Note_on_c, 0, 63, 47
5, 190793, Note_on_c, 0, 59, 47
5, 190795, Note_on_c, 0, 77, 0
5, 190802, Note_on_c, 0, 56, 36
5, 190812, Control_c, 0, 64, 0
5, 190818, Note_on_c, 0, 81, 64
5, 190846, Note_on_c, 0, 79, 0
5, 190890, Note_on_c, 0, 81, 0
5, 190901, Note_on_c, 0, 63, 0
5, 190915, Note_on_c, 0, 53, 0
5, 190959, Note_on_c, 0, 56, 0
5, 190969, Note_on_c, 0, 78, 11
5, 190982, Control_c, 0, 64, 127
5, 191033, Note_on_c, 0, 59, 0
5, 191075, Note_on_c, 0, 78, 0
5, 191102, Note_on_c, 0, 79, 18
5, 191135, Note_on_c, 0, 81, 49
5, 191174, Note_on_c, 0, 59, 36
5, 191175, Note_on_c, 0, 62, 50
5, 191181, Control_c, 0, 64, 0
5, 191187, Note_on_c, 0, 79, 0
5, 191190, Note_on_c, 0, 55, 49
5, 191197, Note_on_c, 0, 52, 37
5, 191208, Note_on_c, 0, 83, 68
5, 191223, Note_on_c, 0, 81, 0
5, 191244, Note_on_c, 0, 62, 0
5, 191271, Note_on_c, 0, 83, 0
5, 191314, Note_on_c, 0, 80, 35
5, 191362, Note_on_c, 0, 59, 0
5, 191382, Control_c, 0, 64, 127
5, 191398, Note_on_c, 0, 55, 0
5, 191398, Note_on_c, 0, 80, 0
5, 191423, Note_on_c, 0, 81, 28
5, 191530, Note_on_c, 0, 82, 69
5, 191533, Note_on_c, 0, 81, 0
5, 191562, Note_on_c, 0, 59, 46
5, 191566, Note_on_c, 0, 62, 39
5, 191575, Control_c, 0, 64, 0
5, 191575, Note_on_c, 0, 55, 28
5, 191595, Note_on_c, 0, 62, 0
5, 191602, Note_on_c, 0, 82, 0
5, 191604, Note_on_c, 0, 52, 0
5, 191614, Note_on_c, 0, 55, 0
5, 191647, Note_on_c, 0, 83, 46
5, 191653, Note_on_c, 0, 59, 0
5, 191687, Note_on_c, 0, 83, 0
5, 191713, Control_c, 0, 64, 127
5, 191746, Note_on_c, 0, 84, 37
5, 191835, Note_on_c, 0, 84, 0
5, 191850, Note_on_c, 0, 86, 58
5, 191912, Note_on_c, 0, 86, 0
5, 191947, Note_on_c, 0, 87, 83
5, 191965, Note_on_c, 0, 67, 57
5, 191967, Control_c, 0, 64, 0
5, 191972, Note_on_c, 0, 63, 44
5, 191975, Note_on_c, 0, 62, 35
5, 191985, Note_on_c, 0, 58, 33
5, 192051, Note_on_c, 0, 87, 0
5, 192076, Note_on_c, 0, 83, 37
5, 192085, Note_on_c, 0, 84, 26
5, 192108, Note_on_c, 0, 83, 0
5, 192111, Note_on_c, 0, 84, 0
5, 192160, Note_on_c, 0, 86, 68
5, 192212, Note_on_c, 0, 62, 0
5, 192223, Note_on_c, 0, 63, 0
5, 192239, Note_on_c, 0, 84, 81
5, 192271, Note_on_c, 0, 86, 0
5, 192302, Note_on_c, 0, 63, 23
5, 192307, Note_on_c, 0, 67, 0
5, 192320, Note_on_c, 0, 84, 0
5, 192352, Note_on_c, 0, 79, 56
5, 192382, Note_on_c, 0, 79, 0
5, 192468, Note_on_c, 0, 58, 0
5, 192475, Note_on_c, 0, 63, 0
5, 192495, Note_on_c, 0, 76, 33
5, 192498, Note_on_c, 0, 77, 26
5, 192530, Note_on_c, 0, 77, 0
5, 192544, Note_on_c, 0, 76, 0
5, 193039, Note_on_c, 0, 63, 44
5, 193042, Note_on_c, 0, 67, 44
5, 193052, Note_on_c, 0, 62, 38
5, 193074, Note_on_c, 0, 67, 0
5, 193102, Note_on_c, 0, 62, 0
5, 193124, Note_on_c, 0, 63, 0
5, 193176, Note_on_c, 0, 74, 71
5, 193220, Note_on_c, 0, 79, 39
5, 193242, Note_on_c, 0, 74, 0
5, 193248, Note_on_c, 0, 75, 62
5, 193315, Note_on_c, 0, 79, 0
5, 193351, Note_on_c, 0, 74, 40
5, 193398, Note_on_c, 0, 75, 0
5, 193423, Note_on_c, 0, 74, 0
5, 193456, Note_on_c, 0, 72, 54
5, 193483, Note_on_c, 0, 63, 32
5, 193492, Note_on_c, 0, 67, 24
5, 193507, Note_on_c, 0, 72, 0
5, 193518, Note_on_c, 0, 67, 0
5, 193519, Note_on_c, 0, 60, 24
5, 193587, Note_on_c, 0, 79, 64
5, 193596, Note_on_c, 0, 74, 75
5, 193626, Note_on_c, 0, 60, 0
5, 193692, Note_on_c, 0, 74, 0
5, 193693, Note_on_c, 0, 63, 0
5, 193721, Note_on_c, 0, 75, 45
5, 193787, Note_on_c, 0, 74, 40
5, 193801, Note_on_c, 0, 75, 0
5, 193839, Note_on_c, 0, 74, 0
5, 193839, Note_on_c, 0, 79, 0
5, 193856, Note_on_c, 0, 72, 64
5, 193857, Note_on_c, 0, 63, 28
5, 193889, Note_on_c, 0, 60, 19
5, 193928, Note_on_c, 0, 72, 0
5, 193953, Note_on_c, 0, 60, 0
5, 193954, Note_on_c, 0, 63, 0
5, 193974, Note_on_c, 0, 68, 56
5, 194200, Note_on_c, 0, 68, 0
5, 194251, Note_on_c, 0, 65, 31
5, 194255, Note_on_c, 0, 63, 21
5, 194283, Note_on_c, 0, 65, 0
5, 194315, Note_on_c, 0, 63, 0
5, 194351, Note_on_c, 0, 67, 44
5, 194537, Note_on_c, 0, 67, 0
5, 194570, Note_on_c, 0, 68, 37
5, 194632, Note_on_c, 0, 67, 36
5, 194675, Note_on_c, 0, 68, 0
5, 194712, Note_on_c, 0, 67, 0
5, 194744, Note_on_c, 0, 65, 36
5, 194777, Control_c, 0, 64, 127
5, 194922, Note_on_c, 0, 65, 0
5, 194983, Note_on_c, 0, 63, 68
5, 194988, Note_on_c, 0, 56, 40
5, 195017, Note_on_c, 0, 56, 0
5, 195054, Control_c, 0, 64, 0
5, 195105, Note_on_c, 0, 63, 0
5, 195146, Note_on_c, 0, 62, 45
5, 195201, Control_c, 0, 64, 127
5, 195360, Note_on_c, 0, 46, 35
5, 195363, Control_c, 0, 64, 0
5, 195385, Note_on_c, 0, 46, 0
5, 195418, Note_on_c, 0, 62, 0
5, 195481, Note_on_c, 0, 57, 53
5, 195501, Control_c, 0, 64, 127
5, 195528, Note_on_c, 0, 57, 0
5, 195567, Note_on_c, 0, 62, 51
5, 195650, Note_on_c, 0, 62, 0
5, 195659, Note_on_c, 0, 66, 62
5, 195707, Note_on_c, 0, 66, 0
5, 195768, Note_on_c, 0, 69, 71
5, 195844, Note_on_c, 0, 69, 0
5, 195877, Note_on_c, 0, 74, 64
5, 195967, Note_on_c, 0, 74, 0
5, 195979, Note_on_c, 0, 78, 58
5, 196041, Note_on_c, 0, 78, 0
5, 196072, Note_on_c, 0, 76, 64
5, 196098, Note_on_c, 0, 76, 0
5, 196194, Control_c, 0, 64, 0
5, 196370, Note_on_c, 0, 66, 61
5, 196382, Note_on_c, 0, 56, 57
5, 196383, Note_on_c, 0, 62, 42
5, 196549, Note_on_c, 0, 62, 0
5, 196558, Note_on_c, 0, 66, 0
5, 196559, Note_on_c, 0, 56, 0
5, 196642, Note_on_c, 0, 65, 58
5, 196645, Note_on_c, 0, 62, 34
5, 196656, Note_on_c, 0, 60, 43
5, 196662, Note_on_c, 0, 55, 55
5, 197034, Control_c, 0, 64, 127
5, 197139, Note_on_c, 0, 60, 0
5, 197166, Note_on_c, 0, 65, 0
5, 197169, Note_on_c, 0, 62, 0
5, 197301, Note_on_c, 0, 65, 35
5, 197309, Note_on_c, 0, 62, 34
5, 197326, Note_on_c, 0, 60, 31
5, 197333, Note_on_c, 0, 65, 0
5, 197418, Control_c, 0, 64, 0
5, 197426, Note_on_c, 0, 84, 84
5, 197427, Note_on_c, 0, 96, 74
5, 197444, Note_on_c, 0, 95, 47
5, 197452, Note_on_c, 0, 60, 0
5, 197473, Note_on_c, 0, 95, 0
5, 197492, Note_on_c, 0, 96, 0
5, 197499, Note_on_c, 0, 84, 0
5, 197499, Note_on_c, 0, 62, 0
5, 197520, Note_on_c, 0, 94, 55
5, 197572, Note_on_c, 0, 55, 0
5, 197576, Note_on_c, 0, 94, 0
5, 197630, Note_on_c, 0, 96, 77
5, 197632, Note_on_c, 0, 84, 55
5, 197675, Note_on_c, 0, 65, 44
5, 197678, Note_on_c, 0, 62, 31
5, 197697, Note_on_c, 0, 60, 37
5, 197708, Note_on_c, 0, 55, 19
5, 197710, Note_on_c, 0, 84, 0
5, 197718, Note_on_c, 0, 94, 56
5, 197725, Note_on_c, 0, 65, 0
5, 197744, Note_on_c, 0, 96, 0
5, 197801, Note_on_c, 0, 62, 0
5, 197811, Note_on_c, 0, 60, 0
5, 197813, Note_on_c, 0, 89, 55
5, 197818, Control_c, 0, 64, 127
5, 197850, Note_on_c, 0, 94, 0
5, 197879, Note_on_c, 0, 55, 0
5, 197917, Note_on_c, 0, 89, 0
5, 197946, Note_on_c, 0, 84, 55
5, 197984, Note_on_c, 0, 84, 0
5, 198025, Note_on_c, 0, 96, 88
5, 198126, Note_on_c, 0, 96, 0
5, 198138, Note_on_c, 0, 63, 36
5, 198142, Note_on_c, 0, 94, 39
5, 198153, Note_on_c, 0, 60, 32
5, 198157, Control_c, 0, 64, 0
5, 198168, Note_on_c, 0, 58, 43
5, 198169, Note_on_c, 0, 94, 0
5, 198202, Note_on_c, 0, 53, 20
5, 198209, Note_on_c, 0, 63, 0
5, 198210, Note_on_c, 0, 96, 76
5, 198228, Note_on_c, 0, 84, 66
5, 198293, Note_on_c, 0, 60, 0
5, 198323, Note_on_c, 0, 94, 64
5, 198324, Note_on_c, 0, 84, 0
5, 198352, Note_on_c, 0, 96, 0
5, 198426, Note_on_c, 0, 89, 44
5, 198466, Note_on_c, 0, 94, 0
5, 198491, Note_on_c, 0, 89, 0
5, 198512, Note_on_c, 0, 84, 58
5, 198544, Note_on_c, 0, 84, 0
5, 198586, Note_on_c, 0, 96, 80
5, 198639, Note_on_c, 0, 53, 0
5, 198684, Note_on_c, 0, 58, 0
5, 198694, Note_on_c, 0, 96, 0
5, 198718, Note_on_c, 0, 94, 34
5, 198744, Note_on_c, 0, 94, 0
5, 198793, Note_on_c, 0, 96, 77
5, 198807, Note_on_c, 0, 84, 65
5, 198831, Note_on_c, 0, 63, 38
5, 198840, Note_on_c, 0, 60, 35
5, 198857, Note_on_c, 0, 63, 0
5, 198871, Note_on_c, 0, 58, 23
5, 198893, Note_on_c, 0, 84, 0
5, 198893, Note_on_c, 0, 94, 56
5, 198913, Note_on_c, 0, 96, 0
5, 199006, Note_on_c, 0, 60, 0
5, 199007, Note_on_c, 0, 89, 47
5, 199020, Note_on_c, 0, 94, 0
5, 199057, Note_on_c, 0, 58, 0
5, 199100, Note_on_c, 0, 89, 0
5, 199117, Note_on_c, 0, 84, 54
5, 199151, Note_on_c, 0, 84, 0
5, 199189, Control_c, 0, 64, 127
5, 199190, Note_on_c, 0, 96, 83
5, 199239, Note_on_c, 0, 63, 48
5, 199277, Note_on_c, 0, 96, 0
5, 199289, Note_on_c, 0, 94, 59
5, 199297, Control_c, 0, 64, 0
5, 199307, Note_on_c, 0, 58, 15
5, 199315, Note_on_c, 0, 94, 0
5, 199355, Note_on_c, 0, 63, 0
5, 199387, Note_on_c, 0, 60, 4
5, 199390, Note_on_c, 0, 96, 79
5, 199403, Note_on_c, 0, 84, 69
5, 199443, Control_c, 0, 64, 127
5, 199475, Note_on_c, 0, 84, 0
5, 199489, Note_on_c, 0, 94, 49
5, 199519, Note_on_c, 0, 96, 0
5, 199525, Note_on_c, 0, 58, 0
5, 199553, Note_on_c, 0, 90, 32
5, 199578, Note_on_c, 0, 90, 0
5, 199623, Note_on_c, 0, 60, 0
5, 199665, Note_on_c, 0, 94, 0
5, 199683, Note_on_c, 0, 84, 67
5, 199728, Note_on_c, 0, 63, 46
5, 199734, Note_on_c, 0, 60, 27
5, 199734, Note_on_c, 0, 55, 38
5, 199741, Note_on_c, 0, 84, 0
5, 199743, Control_c, 0, 64, 0
5, 199751, Note_on_c, 0, 57, 44
5, 199757, Note_on_c, 0, 96, 82
5, 199842, Note_on_c, 0, 96, 0
5, 199861, Note_on_c, 0, 94, 50
5, 199907, Note_on_c, 0, 63, 0
5, 199915, Note_on_c, 0, 94, 0
5, 199950, Note_on_c, 0, 60, 0
5, 199957, Note_on_c, 0, 96, 76
5, 199973, Note_on_c, 0, 84, 41
5, 200002, Note_on_c, 0, 63, 43
5, 200012, Note_on_c, 0, 60, 22
5, 200043, Note_on_c, 0, 84, 0
5, 200046, Note_on_c, 0, 94, 55
5, 200056, Note_on_c, 0, 63, 0
5, 200085, Note_on_c, 0, 96, 0
5, 200114, Note_on_c, 0, 57, 0
5, 200147, Note_on_c, 0, 89, 53
5, 200180, Note_on_c, 0, 94, 0
5, 200184, Note_on_c, 0, 55, 0
5, 200227, Note_on_c, 0, 89, 0
5, 200247, Note_on_c, 0, 84, 51
5, 200250, Note_on_c, 0, 60, 0
5, 200281, Note_on_c, 0, 84, 0
5, 200290, Control_c, 0, 64, 127
5, 200324, Note_on_c, 0, 96, 79
5, 200393, Note_on_c, 0, 65, 44
5, 200407, Note_on_c, 0, 60, 34
5, 200408, Note_on_c, 0, 54, 29
5, 200418, Note_on_c, 0, 58, 27
5, 200426, Note_on_c, 0, 65, 0
5, 200427, Note_on_c, 0, 96, 0
5, 200429, Note_on_c, 0, 94, 55
5, 200436, Control_c, 0, 64, 0
5, 200468, Note_on_c, 0, 94, 0
5, 200525, Note_on_c, 0, 96, 81
5, 200582, Control_c, 0, 64, 127
5, 200584, Note_on_c, 0, 60, 0
5, 200599, Note_on_c, 0, 94, 57
5, 200622, Note_on_c, 0, 58, 0
5, 200633, Note_on_c, 0, 96, 0
5, 200694, Note_on_c, 0, 89, 40
5, 200740, Note_on_c, 0, 94, 0
5, 200752, Note_on_c, 0, 89, 0
5, 200762, Note_on_c, 0, 54, 0
5, 200783, Note_on_c, 0, 84, 54
5, 200820, Note_on_c, 0, 84, 0
5, 200841, Note_on_c, 0, 65, 28
5, 200842, Note_on_c, 0, 60, 40
5, 200846, Note_on_c, 0, 54, 21
5, 200848, Note_on_c, 0, 58, 30
5, 200860, Control_c, 0, 64, 0
5, 200886, Note_on_c, 0, 65, 0
5, 200990, Control_c, 0, 64, 127
5, 201138, Note_on_c, 0, 60, 0
5, 201197, Note_on_c, 0, 58, 0
5, 201211, Note_on_c, 0, 54, 0
5, 201229, Control_c, 0, 64, 0
5, 201250, Note_on_c, 0, 62, 55
5, 201268, Note_on_c, 0, 59, 51
5, 201277, Note_on_c, 0, 57, 34
5, 201315, Note_on_c, 0, 53, 15
5, 201637, Control_c, 0, 64, 127
5, 201664, Note_on_c, 0, 62, 0
5, 201721, Note_on_c, 0, 59, 0
5, 201722, Note_on_c, 0, 57, 0
5, 201867, Note_on_c, 0, 62, 55
5, 201879, Note_on_c, 0, 59, 56
5, 201982, Note_on_c, 0, 62, 0
5, 201985, Note_on_c, 0, 57, 1
5, 201992, Control_c, 0, 64, 0
5, 202019, Note_on_c, 0, 96, 71
5, 202020, Note_on_c, 0, 84, 72
5, 202069, Note_on_c, 0, 53, 0
5, 202070, Note_on_c, 0, 96, 0
5, 202076, Note_on_c, 0, 84, 0
5, 202120, Note_on_c, 0, 57, 0
5, 202127, Note_on_c, 0, 94, 45
5, 202161, Note_on_c, 0, 94, 0
5, 202168, Note_on_c, 0, 59, 0
5, 202232, Note_on_c, 0, 96, 75
5, 202247, Note_on_c, 0, 84, 49
5, 202253, Note_on_c, 0, 62, 43
5, 202256, Note_on_c, 0, 59, 51
5, 202281, Note_on_c, 0, 57, 14
5, 202304, Note_on_c, 0, 84, 0
5, 202312, Note_on_c, 0, 94, 36
5, 202339, Note_on_c, 0, 96, 0
5, 202341, Note_on_c, 0, 62, 0
5, 202372, Note_on_c, 0, 90, 44
5, 202398, Note_on_c, 0, 90, 0
5, 202419, Note_on_c, 0, 94, 0
5, 202432, Note_on_c, 0, 59, 0
5, 202514, Note_on_c, 0, 84, 57
5, 202548, Note_on_c, 0, 84, 0
5, 202601, Note_on_c, 0, 90, 68
5, 202607, Note_on_c, 0, 95, 55
5, 202629, Note_on_c, 0, 62, 24
5, 202639, Note_on_c, 0, 59, 32
5, 202714, Note_on_c, 0, 90, 0
5, 202722, Note_on_c, 0, 62, 0
5, 202730, Note_on_c, 0, 91, 59
5, 202792, Note_on_c, 0, 95, 0
5, 202795, Note_on_c, 0, 91, 0
5, 202801, Note_on_c, 0, 59, 0
5, 202840, Note_on_c, 0, 84, 44
5, 202870, Note_on_c, 0, 84, 0
5, 203024, Note_on_c, 0, 79, 57
5, 203057, Note_on_c, 0, 79, 0
5, 203213, Note_on_c, 0, 86, 35
5, 203246, Note_on_c, 0, 86, 0
5, 203309, Note_on_c, 0, 57, 0
5, 203411, Note_on_c, 0, 59, 65
5, 203413, Note_on_c, 0, 62, 61
5, 203418, Note_on_c, 0, 57, 54
5, 203570, Control_c, 0, 64, 127
5, 203656, Note_on_c, 0, 62, 0
5, 203697, Note_on_c, 0, 57, 0
5, 203713, Note_on_c, 0, 59, 0
5, 203821, Note_on_c, 0, 62, 62
5, 203824, Note_on_c, 0, 59, 67
5, 203835, Note_on_c, 0, 57, 54
5, 203883, Note_on_c, 0, 62, 0
5, 203924, Control_c, 0, 64, 0
5, 203931, Note_on_c, 0, 57, 0
5, 203938, Note_on_c, 0, 59, 0
5, 203968, Note_on_c, 0, 64, 55
5, 203995, Note_on_c, 0, 64, 0
5, 204087, Note_on_c, 0, 67, 58
5, 204116, Note_on_c, 0, 67, 0
5, 204197, Note_on_c, 0, 71, 83
5, 204201, Note_on_c, 0, 60, 64
5, 204269, Note_on_c, 0, 71, 0
5, 204292, Note_on_c, 0, 60, 0
5, 204312, Note_on_c, 0, 74, 84
5, 204316, Note_on_c, 0, 71, 78
5, 204318, Note_on_c, 0, 64, 81
5, 204323, Note_on_c, 0, 67, 73
5, 204324, Note_on_c, 0, 62, 80
5, 204623, Note_on_c, 0, 64, 0
5, 204643, Note_on_c, 0, 67, 0
5, 204668, Note_on_c, 0, 71, 0
5, 204670, Note_on_c, 0, 74, 0
5, 204702, Note_on_c, 0, 60, 45
5, 204708, Note_on_c, 0, 62, 0
5, 204710, Note_on_c, 0, 72, 35
5, 204723, Note_on_c, 0, 64, 39
5, 204740, Control_c, 0, 64, 127
5, 204741, Note_on_c, 0, 67, 24
5, 204806, Note_on_c, 0, 67, 0
5, 204869, Note_on_c, 0, 64, 0
5, 204913, Note_on_c, 0, 72, 0
5, 204955, Note_on_c, 0, 64, 68
5, 204957, Note_on_c, 0, 74, 62
5, 204963, Note_on_c, 0, 67, 64
5, 204969, Note_on_c, 0, 62, 66
5, 204971, Note_on_c, 0, 71, 63
5, 204978, Control_c, 0, 64, 0
5, 204982, Note_on_c, 0, 60, 0
5, 205064, Control_c, 0, 64, 127
5, 205090, Note_on_c, 0, 64, 0
5, 205123, Note_on_c, 0, 67, 0
5, 205143, Note_on_c, 0, 62, 0
5, 205149, Note_on_c, 0, 71, 0
5, 205160, Note_on_c, 0, 74, 0
5, 205456, Control_c, 0, 64, 0
5, 205468, Note_on_c, 0, 83, 88
5, 205474, Note_on_c, 0, 72, 88
5, 205475, Note_on_c, 0, 79, 77
5, 205476, Note_on_c, 0, 76, 80
5, 205477, Note_on_c, 0, 71, 80
5, 205595, Control_c, 0, 64, 127
5, 205662, Note_on_c, 0, 72, 0
5, 205692, Note_on_c, 0, 79, 0
5, 205696, Note_on_c, 0, 76, 0
5, 205705, Note_on_c, 0, 83, 0
5, 205711, Control_c, 0, 64, 0
5, 205735, Note_on_c, 0, 81, 59
5, 205737, Note_on_c, 0, 76, 32
5, 205739, Note_on_c, 0, 72, 57
5, 205752, Note_on_c, 0, 69, 64
5, 205769, Note_on_c, 0, 71, 0
5, 205781, Note_on_c, 0, 69, 0
5, 205801, Note_on_c, 0, 76, 0
5, 205809, Note_on_c, 0, 72, 0
5, 205857, Control_c, 0, 64, 127
5, 205859, Note_on_c, 0, 81, 0
5, 205918, Control_c, 0, 64, 0
5, 205980, Note_on_c, 0, 83, 79
5, 205986, Note_on_c, 0, 72, 71
5, 205987, Note_on_c, 0, 80, 58
5, 205989, Note_on_c, 0, 76, 69
5, 205998, Note_on_c, 0, 65, 65
5, 205999, Note_on_c, 0, 54, 47
5, 206018, Note_on_c, 0, 60, 34
5, 206041, Control_c, 0, 64, 127
5, 206173, Note_on_c, 0, 80, 0
5, 206184, Note_on_c, 0, 65, 0
5, 206187, Note_on_c, 0, 54, 0
5, 206189, Note_on_c, 0, 60, 0
5, 206190, Note_on_c, 0, 76, 0
5, 206193, Note_on_c, 0, 72, 0
5, 206211, Control_c, 0, 64, 0
5, 206225, Note_on_c, 0, 83, 0
5, 206265, Note_on_c, 0, 81, 53
5, 206272, Note_on_c, 0, 65, 46
5, 206275, Note_on_c, 0, 60, 42
5, 206282, Note_on_c, 0, 72, 36
5, 206284, Note_on_c, 0, 54, 26
5, 206295, Note_on_c, 0, 58, 30
5, 206295, Note_on_c, 0, 76, 33
5, 206305, Control_c, 0, 64, 127
5, 206342, Note_on_c, 0, 76, 0
5, 206348, Note_on_c, 0, 65, 0
5, 206351, Note_on_c, 0, 72, 0
5, 206390, Note_on_c, 0, 60, 0
5, 206414, Note_on_c, 0, 81, 0
5, 206451, Note_on_c, 0, 58, 0
5, 206453, Note_on_c, 0, 54, 0
5, 206524, Note_on_c, 0, 76, 49
5, 206531, Note_on_c, 0, 72, 53
5, 206531, Note_on_c, 0, 54, 55
5, 206539, Note_on_c, 0, 80, 37
5, 206540, Note_on_c, 0, 64, 55
5, 206543, Control_c, 0, 64, 0
5, 206550, Note_on_c, 0, 60, 47
5, 206666, Control_c, 0, 64, 127
5, 206891, Note_on_c, 0, 76, 0
5, 206895, Note_on_c, 0, 64, 0
5, 206918, Note_on_c, 0, 72, 0
5, 206918, Note_on_c, 0, 54, 0
5, 206924, Note_on_c, 0, 60, 0
5, 206947, Note_on_c, 0, 80, 0
5, 206960, Control_c, 0, 64, 0
5, 206991, Note_on_c, 0, 81, 57
5, 206996, Note_on_c, 0, 64, 32
5, 206998, Control_c, 0, 64, 127
5, 206999, Note_on_c, 0, 54, 30
5, 207004, Note_on_c, 0, 72, 36
5, 207007, Note_on_c, 0, 60, 43
5, 207054, Note_on_c, 0, 60, 0
5, 207058, Note_on_c, 0, 81, 0
5, 207069, Note_on_c, 0, 64, 0
5, 207072, Note_on_c, 0, 72, 0
5, 207173, Note_on_c, 0, 54, 0
5, 207268, Note_on_c, 0, 78, 40
5, 207271, Note_on_c, 0, 59, 48
5, 207273, Note_on_c, 0, 54, 35
5, 207275, Note_on_c, 0, 62, 39
5, 207276, Control_c, 0, 64, 0
5, 207278, Note_on_c, 0, 74, 54
5, 207282, Note_on_c, 0, 69, 33
5, 207286, Note_on_c, 0, 71, 35
5, 207406, Control_c, 0, 64, 127
5, 207757, Note_on_c, 0, 74, 0
5, 207758, Note_on_c, 0, 71, 0
5, 207768, Note_on_c, 0, 78, 0
5, 207820, Note_on_c, 0, 69, 0
5, 207821, Note_on_c, 0, 62, 0
5, 207822, Note_on_c, 0, 59, 0
5, 207902, Note_on_c, 0, 54, 0
5, 208139, Note_on_c, 0, 73, 53
5, 208150, Note_on_c, 0, 58, 43
5, 208156, Note_on_c, 0, 66, 53
5, 208156, Note_on_c, 0, 63, 35
5, 208161, Control_c, 0, 64, 0
5, 208164, Note_on_c, 0, 70, 42
5, 208165, Note_on_c, 0, 59, 56
5, 208184, Note_on_c, 0, 58, 0
5, 208198, Note_on_c, 0, 59, 0
5, 208239, Note_on_c, 0, 63, 0
5, 208251, Note_on_c, 0, 73, 0
5, 208252, Note_on_c, 0, 70, 0
5, 208264, Note_on_c, 0, 66, 0
5, 208523, Note_on_c, 0, 70, 52
5, 208539, Note_on_c, 0, 66, 52
5, 208540, Note_on_c, 0, 61, 42
5, 208541, Note_on_c, 0, 54, 43
5, 208629, Note_on_c, 0, 70, 0
5, 208646, Note_on_c, 0, 66, 0
5, 208658, Note_on_c, 0, 54, 0
5, 208668, Note_on_c, 0, 61, 0
5, 208832, Note_on_c, 0, 49, 32
5, 208874, Note_on_c, 0, 49, 0
5, 208911, Note_on_c, 0, 51, 38
5, 208925, Note_on_c, 0, 66, 37
5, 208928, Note_on_c, 0, 58, 35
5, 208933, Note_on_c, 0, 61, 36
5, 208956, Note_on_c, 0, 63, 35
5, 208976, Control_c, 0, 64, 127
5, 209177, Control_c, 0, 64, 0
5, 209285, Control_c, 0, 64, 127
5, 209414, Note_on_c, 0, 66, 0
5, 209426, Note_on_c, 0, 58, 0
5, 209434, Note_on_c, 0, 63, 0
5, 209435, Note_on_c, 0, 61, 0
5, 209455, Note_on_c, 0, 51, 0
5, 209563, Note_on_c, 0, 67, 45
5, 209575, Note_on_c, 0, 59, 46
5, 209577, Note_on_c, 0, 62, 44
5, 209580, Note_on_c, 0, 52, 47
5, 209585, Control_c, 0, 64, 0
5, 209617, Note_on_c, 0, 59, 0
5, 209623, Note_on_c, 0, 52, 0
5, 209658, Note_on_c, 0, 62, 0
5, 209674, Note_on_c, 0, 67, 0
5, 209692, Control_c, 0, 64, 127
5, 209950, Note_on_c, 0, 75, 74
5, 209955, Note_on_c, 0, 71, 81
5, 209956, Note_on_c, 0, 54, 70
5, 209956, Note_on_c, 0, 78, 56
5, 209958, Note_on_c, 0, 83, 75
5, 209959, Note_on_c, 0, 81, 72
5, 209960, Note_on_c, 0, 64, 76
5, 209961, Note_on_c, 0, 60, 66
5, 210009, Control_c, 0, 64, 0
5, 210029, Note_on_c, 0, 75, 0
5, 210042, Note_on_c, 0, 76, 53
5, 210075, Note_on_c, 0, 76, 0
5, 210082, Note_on_c, 0, 83, 0
5, 210088, Note_on_c, 0, 71, 0
5, 210092, Note_on_c, 0, 78, 0
5, 210092, Note_on_c, 0, 81, 0
5, 210098, Note_on_c, 0, 64, 0
5, 210116, Note_on_c, 0, 54, 0
5, 210133, Note_on_c, 0, 60, 0
5, 210173, Note_on_c, 0, 75, 59
5, 210175, Note_on_c, 0, 54, 62
5, 210175, Note_on_c, 0, 64, 56
5, 210180, Note_on_c, 0, 78, 49
5, 210181, Note_on_c, 0, 71, 51
5, 210182, Note_on_c, 0, 83, 74
5, 210188, Note_on_c, 0, 60, 43
5, 210221, Note_on_c, 0, 76, 48
5, 210228, Note_on_c, 0, 75, 0
5, 210248, Note_on_c, 0, 79, 33
5, 210286, Note_on_c, 0, 78, 0
5, 210288, Note_on_c, 0, 79, 0
5, 210301, Note_on_c, 0, 76, 0
5, 210308, Note_on_c, 0, 71, 0
5, 210314, Note_on_c, 0, 83, 0
5, 210317, Note_on_c, 0, 64, 0
5, 210329, Note_on_c, 0, 54, 0
5, 210344, Note_on_c, 0, 60, 0
5, 210390, Note_on_c, 0, 54, 55
5, 210391, Note_on_c, 0, 71, 55
5, 210393, Note_on_c, 0, 64, 52
5, 210394, Note_on_c, 0, 83, 50
5, 210394, Note_on_c, 0, 75, 62
5, 210398, Note_on_c, 0, 78, 47
5, 210405, Note_on_c, 0, 60, 57
5, 210469, Note_on_c, 0, 76, 57
5, 210480, Note_on_c, 0, 75, 0
5, 210509, Note_on_c, 0, 76, 0
5, 210520, Note_on_c, 0, 71, 0
5, 210522, Note_on_c, 0, 83, 0
5, 210543, Note_on_c, 0, 54, 0
5, 210544, Note_on_c, 0, 78, 0
5, 210546, Note_on_c, 0, 64, 0
5, 210569, Note_on_c, 0, 60, 0
5, 210622, Note_on_c, 0, 75, 57
5, 210622, Note_on_c, 0, 71, 49
5, 210623, Note_on_c, 0, 83, 53
5, 210624, Note_on_c, 0, 78, 29
5, 210640, Note_on_c, 0, 54, 58
5, 210646, Note_on_c, 0, 64, 47
5, 210654, Note_on_c, 0, 60, 56
5, 210712, Note_on_c, 0, 76, 60
5, 210718, Note_on_c, 0, 75, 0
5, 210758, Note_on_c, 0, 71, 0
5, 210760, Note_on_c, 0, 64, 0
5, 210761, Note_on_c, 0, 78, 0
5, 210763, Note_on_c, 0, 83, 0
5, 210778, Note_on_c, 0, 76, 0
5, 210781, Note_on_c, 0, 60, 0
5, 210784, Note_on_c, 0, 54, 0
5, 210823, Note_on_c, 0, 54, 34
5, 210836, Note_on_c, 0, 81, 52
5, 210838, Note_on_c, 0, 64, 43
5, 210853, Note_on_c, 0, 76, 51
5, 210855, Note_on_c, 0, 60, 36
5, 210860, Note_on_c, 0, 69, 34
5, 210941, Note_on_c, 0, 64, 0
5, 210955, Note_on_c, 0, 60, 0
5, 210958, Note_on_c, 0, 69, 0
5, 210967, Note_on_c, 0, 76, 0
5, 210970, Note_on_c, 0, 54, 0
5, 210972, Note_on_c, 0, 81, 0
5, 211065, Note_on_c, 0, 69, 52
5, 211070, Note_on_c, 0, 76, 47
5, 211072, Note_on_c, 0, 81, 28
5, 211079, Note_on_c, 0, 54, 47
5, 211088, Note_on_c, 0, 64, 37
5, 211097, Note_on_c, 0, 60, 36
5, 211108, Note_on_c, 0, 69, 0
5, 211110, Note_on_c, 0, 81, 0
5, 211116, Note_on_c, 0, 76, 0
5, 211128, Note_on_c, 0, 60, 0
5, 211130, Note_on_c, 0, 64, 0
5, 211156, Note_on_c, 0, 54, 0
5, 211957, Note_on_c, 0, 66, 42
5, 211964, Note_on_c, 0, 57, 33
5, 211965, Note_on_c, 0, 51, 35
5, 211966, Note_on_c, 0, 64, 48
5, 211979, Note_on_c, 0, 59, 22
5, 211996, Note_on_c, 0, 57, 0
5, 211997, Note_on_c, 0, 64, 0
5, 212005, Note_on_c, 0, 59, 0
5, 212015, Note_on_c, 0, 66, 0
5, 212039, Note_on_c, 0, 51, 0
5, 212334, Control_c, 0, 64, 127
5, 212696, Control_c, 0, 64, 0
5, 212741, Note_on_c, 0, 51, 42
5, 212741, Note_on_c, 0, 57, 59
5, 212743, Note_on_c, 0, 70, 60
5, 212747, Note_on_c, 0, 58, 58
5, 212795, Note_on_c, 0, 57, 0
5, 212827, Control_c, 0, 64, 127
5, 212838, Note_on_c, 0, 51, 0
5, 212910, Note_on_c, 0, 70, 0
5, 212931, Note_on_c, 0, 58, 0
5, 213015, Note_on_c, 0, 59, 32
5, 213018, Note_on_c, 0, 51, 50
5, 213021, Note_on_c, 0, 71, 52
5, 213044, Note_on_c, 0, 59, 0
5, 213045, Note_on_c, 0, 51, 0
5, 213047, Note_on_c, 0, 71, 0
5, 213050, Control_c, 0, 64, 0
5, 213134, Note_on_c, 0, 57, 64
5, 213141, Note_on_c, 0, 51, 40
5, 213142, Note_on_c, 0, 76, 76
5, 213156, Note_on_c, 0, 64, 32
5, 213157, Control_c, 0, 64, 127
5, 213180, Note_on_c, 0, 51, 0
5, 213189, Note_on_c, 0, 64, 0
5, 213196, Note_on_c, 0, 57, 0
5, 213220, Note_on_c, 0, 76, 0
5, 213393, Note_on_c, 0, 80, 69
5, 213396, Note_on_c, 0, 68, 77
5, 213405, Note_on_c, 0, 75, 65
5, 213415, Note_on_c, 0, 52, 55
5, 213416, Note_on_c, 0, 63, 71
5, 213423, Note_on_c, 0, 59, 51
5, 213423, Note_on_c, 0, 56, 47
5, 213435, Control_c, 0, 64, 0
5, 213589, Control_c, 0, 64, 127
5, 213809, Note_on_c, 0, 68, 0
5, 213810, Note_on_c, 0, 63, 0
5, 213836, Note_on_c, 0, 80, 0
5, 213842, Note_on_c, 0, 75, 0
5, 213850, Control_c, 0, 64, 0
5, 213908, Note_on_c, 0, 63, 37
5, 213919, Note_on_c, 0, 70, 50
5, 213936, Control_c, 0, 64, 127
5, 213936, Note_on_c, 0, 75, 36
5, 214048, Note_on_c, 0, 70, 0
5, 214059, Note_on_c, 0, 63, 0
5, 214086, Note_on_c, 0, 59, 0
5, 214094, Note_on_c, 0, 75, 0
5, 214176, Note_on_c, 0, 75, 48
5, 214177, Note_on_c, 0, 63, 37
5, 214187, Note_on_c, 0, 68, 50
5, 214197, Control_c, 0, 64, 0
5, 214200, Note_on_c, 0, 59, 33
5, 214285, Note_on_c, 0, 52, 0
5, 214288, Note_on_c, 0, 63, 0
5, 214291, Note_on_c, 0, 59, 0
5, 214305, Control_c, 0, 64, 127
5, 214306, Note_on_c, 0, 68, 0
5, 214328, Note_on_c, 0, 56, 0
5, 214351, Note_on_c, 0, 75, 0
5, 214607, Note_on_c, 0, 70, 38
5, 214659, Control_c, 0, 64, 0
5, 214665, Note_on_c, 0, 70, 0
5, 214680, Note_on_c, 0, 80, 71
5, 214681, Note_on_c, 0, 84, 85
5, 214687, Note_on_c, 0, 76, 75
5, 214702, Note_on_c, 0, 72, 66
5, 214797, Control_c, 0, 64, 127
5, 214850, Note_on_c, 0, 76, 0
5, 214855, Note_on_c, 0, 84, 0
5, 214879, Note_on_c, 0, 80, 0
5, 214893, Note_on_c, 0, 72, 0
5, 214905, Control_c, 0, 64, 0
5, 214932, Note_on_c, 0, 82, 63
5, 214937, Note_on_c, 0, 78, 57
5, 214939, Note_on_c, 0, 74, 56
5, 214945, Note_on_c, 0, 70, 57
5, 215013, Control_c, 0, 64, 127
5, 215157, Note_on_c, 0, 82, 0
5, 215170, Note_on_c, 0, 78, 0
5, 215254, Note_on_c, 0, 74, 0
5, 215348, Note_on_c, 0, 70, 0
5, 215352, Control_c, 0, 64, 0
5, 215408, Note_on_c, 0, 80, 53
5, 215418, Note_on_c, 0, 68, 35
5, 215432, Note_on_c, 0, 72, 43
5, 215437, Control_c, 0, 64, 127
5, 215445, Note_on_c, 0, 68, 0
5, 215467, Note_on_c, 0, 72, 0
5, 215495, Note_on_c, 0, 80, 0
5, 215691, Note_on_c, 0, 73, 50
5, 215692, Note_on_c, 0, 76, 44
5, 215696, Note_on_c, 0, 64, 44
5, 215703, Note_on_c, 0, 70, 23
5, 215706, Control_c, 0, 64, 0
5, 215807, Control_c, 0, 64, 127
5, 215810, Note_on_c, 0, 76, 0
5, 215832, Note_on_c, 0, 70, 0
5, 215844, Note_on_c, 0, 73, 0
5, 215903, Note_on_c, 0, 64, 0
5, 216206, Control_c, 0, 64, 0
5, 216209, Note_on_c, 0, 68, 71
5, 216225, Note_on_c, 0, 60, 13
5, 216307, Note_on_c, 0, 68, 0
5, 216332, Note_on_c, 0, 65, 32
5, 216393, Note_on_c, 0, 65, 0
5, 216405, Note_on_c, 0, 60, 0
5, 216458, Note_on_c, 0, 67, 74
5, 216475, Note_on_c, 0, 63, 40
5, 216481, Note_on_c, 0, 60, 19
5, 216518, Note_on_c, 0, 56, 25
5, 216520, Note_on_c, 0, 53, 17
5, 216965, Note_on_c, 0, 67, 0
5, 216986, Note_on_c, 0, 65, 34
5, 217077, Control_c, 0, 64, 127
5, 217186, Note_on_c, 0, 65, 0
5, 217238, Note_on_c, 0, 65, 37
5, 217277, Note_on_c, 0, 65, 0
5, 217292, Control_c, 0, 64, 0
5, 217317, Note_on_c, 0, 53, 0
5, 217317, Note_on_c, 0, 60, 0
5, 217324, Note_on_c, 0, 63, 0
5, 217350, Note_on_c, 0, 56, 0
5, 217724, Note_on_c, 0, 85, 74
5, 217732, Note_on_c, 0, 73, 73
5, 217732, Note_on_c, 0, 56, 38
5, 217732, Note_on_c, 0, 65, 48
5, 217734, Note_on_c, 0, 60, 40
5, 217747, Note_on_c, 0, 61, 48
5, 217914, Note_on_c, 0, 73, 0
5, 217919, Note_on_c, 0, 85, 0
5, 217922, Note_on_c, 0, 65, 0
5, 217931, Note_on_c, 0, 60, 0
5, 217936, Note_on_c, 0, 61, 0
5, 217941, Note_on_c, 0, 56, 0
5, 217971, Note_on_c, 0, 73, 56
5, 217975, Note_on_c, 0, 85, 63
5, 217993, Note_on_c, 0, 65, 39
5, 218013, Note_on_c, 0, 61, 21
5, 218023, Note_on_c, 0, 73, 0
5, 218027, Note_on_c, 0, 65, 0
5, 218040, Note_on_c, 0, 85, 0
5, 218063, Note_on_c, 0, 61, 0
5, 218532, Control_c, 0, 64, 127
5, 218885, Note_on_c, 0, 65, 47
5, 218887, Note_on_c, 0, 87, 56
5, 218894, Note_on_c, 0, 75, 36
5, 218896, Note_on_c, 0, 60, 41
5, 218898, Note_on_c, 0, 61, 34
5, 218899, Note_on_c, 0, 56, 31
5, 218914, Note_on_c, 0, 82, 38
5, 218989, Note_on_c, 0, 65, 0
5, 219030, Note_on_c, 0, 60, 0
5, 219036, Note_on_c, 0, 56, 0
5, 219044, Note_on_c, 0, 82, 0
5, 219048, Note_on_c, 0, 61, 0
5, 219068, Note_on_c, 0, 75, 0
5, 219081, Note_on_c, 0, 87, 0
5, 219151, Note_on_c, 0, 88, 66
5, 219154, Note_on_c, 0, 76, 54
5, 219156, Note_on_c, 0, 82, 60
5, 219180, Note_on_c, 0, 65, 33
5, 219185, Note_on_c, 0, 88, 0
5, 219185, Note_on_c, 0, 60, 24
5, 219188, Note_on_c, 0, 61, 29
5, 219198, Note_on_c, 0, 76, 0
5, 219210, Note_on_c, 0, 65, 0
5, 219217, Note_on_c, 0, 82, 0
5, 219218, Note_on_c, 0, 60, 0
5, 219258, Note_on_c, 0, 56, 37
5, 219269, Note_on_c, 0, 89, 69
5, 219269, Note_on_c, 0, 77, 49
5, 219273, Note_on_c, 0, 65, 58
5, 219275, Note_on_c, 0, 84, 65
5, 219283, Note_on_c, 0, 60, 34
5, 219343, Note_on_c, 0, 77, 0
5, 219366, Note_on_c, 0, 84, 0
5, 219367, Note_on_c, 0, 89, 0
5, 219377, Note_on_c, 0, 65, 0
5, 219411, Note_on_c, 0, 60, 0
5, 219429, Note_on_c, 0, 61, 0
5, 219434, Note_on_c, 0, 56, 0
5, 219498, Note_on_c, 0, 56, 38
5, 219511, Note_on_c, 0, 61, 51
5, 219533, Note_on_c, 0, 90, 68
5, 219540, Note_on_c, 0, 78, 64
5, 219546, Note_on_c, 0, 85, 67
5, 219584, Note_on_c, 0, 78, 0
5, 219591, Note_on_c, 0, 56, 0
5, 219598, Note_on_c, 0, 90, 0
5, 219604, Note_on_c, 0, 85, 0
5, 219626, Note_on_c, 0, 61, 0
5, 219658, Control_c, 0, 64, 0
5, 219660, Note_on_c, 0, 62, 51
5, 219661, Note_on_c, 0, 85, 60
5, 219670, Note_on_c, 0, 66, 58
5, 219676, Note_on_c, 0, 78, 44
5, 219678, Note_on_c, 0, 90, 30
5, 219698, Note_on_c, 0, 55, 34
5, 219701, Note_on_c, 0, 59, 46
5, 219707, Note_on_c, 0, 85, 0
5, 219722, Note_on_c, 0, 91, 29
5, 219740, Note_on_c, 0, 86, 34
5, 219765, Note_on_c, 0, 90, 0
5, 219771, Note_on_c, 0, 78, 0
5, 219782, Control_c, 0, 64, 127
5, 219787, Note_on_c, 0, 79, 37
5, 219911, Note_on_c, 0, 79, 0
5, 219919, Note_on_c, 0, 55, 0
5, 219925, Note_on_c, 0, 59, 0
5, 219925, Note_on_c, 0, 91, 0
5, 219934, Note_on_c, 0, 86, 0
5, 219935, Note_on_c, 0, 66, 0
5, 219948, Note_on_c, 0, 62, 0
5, 219966, Control_c, 0, 64, 0
5, 220031, Note_on_c, 0, 62, 43
5, 220040, Note_on_c, 0, 66, 52
5, 220050, Control_c, 0, 64, 127
5, 220062, Note_on_c, 0, 59, 44
5, 220062, Note_on_c, 0, 85, 69
5, 220069, Note_on_c, 0, 91, 46
5, 220073, Note_on_c, 0, 78, 49
5, 220075, Note_on_c, 0, 55, 24
5, 220100, Note_on_c, 0, 89, 27
5, 220140, Note_on_c, 0, 85, 0
5, 220163, Note_on_c, 0, 86, 45
5, 220189, Note_on_c, 0, 79, 32
5, 220192, Note_on_c, 0, 78, 0
5, 220301, Note_on_c, 0, 62, 0
5, 220331, Note_on_c, 0, 55, 0
5, 220332, Note_on_c, 0, 79, 0
5, 220343, Note_on_c, 0, 91, 0
5, 220360, Note_on_c, 0, 59, 0
5, 220361, Note_on_c, 0, 66, 0
5, 220366, Note_on_c, 0, 86, 0
5, 220387, Note_on_c, 0, 89, 0
5, 220428, Control_c, 0, 64, 0
5, 220447, Note_on_c, 0, 90, 40
5, 220453, Note_on_c, 0, 78, 59
5, 220458, Note_on_c, 0, 61, 64
5, 220460, Note_on_c, 0, 66, 68
5, 220466, Note_on_c, 0, 85, 55
5, 220467, Note_on_c, 0, 55, 61
5, 220486, Note_on_c, 0, 91, 34
5, 220487, Note_on_c, 0, 89, 30
5, 220519, Note_on_c, 0, 85, 0
5, 220524, Note_on_c, 0, 90, 0
5, 220551, Control_c, 0, 64, 127
5, 220556, Note_on_c, 0, 79, 39
5, 220562, Note_on_c, 0, 86, 22
5, 220569, Note_on_c, 0, 78, 0
5, 220719, Note_on_c, 0, 79, 0
5, 220719, Note_on_c, 0, 55, 0
5, 220726, Note_on_c, 0, 91, 0
5, 220744, Note_on_c, 0, 66, 0
5, 220744, Control_c, 0, 64, 0
5, 220748, Note_on_c, 0, 86, 0
5, 220775, Note_on_c, 0, 61, 0
5, 220779, Note_on_c, 0, 89, 0
5, 220830, Note_on_c, 0, 78, 62
5, 220831, Note_on_c, 0, 66, 55
5, 220837, Note_on_c, 0, 61, 62
5, 220844, Control_c, 0, 64, 127
5, 220845, Note_on_c, 0, 85, 55
5, 220845, Note_on_c, 0, 55, 52
5, 220847, Note_on_c, 0, 91, 47
5, 220867, Note_on_c, 0, 89, 35
5, 220905, Note_on_c, 0, 85, 0
5, 220917, Note_on_c, 0, 78, 0
5, 220922, Note_on_c, 0, 79, 47
5, 220940, Note_on_c, 0, 86, 30
5, 221030, Note_on_c, 0, 55, 0
5, 221049, Note_on_c, 0, 66, 0
5, 221099, Note_on_c, 0, 86, 0
5, 221107, Note_on_c, 0, 79, 0
5, 221115, Note_on_c, 0, 91, 0
5, 221138, Note_on_c, 0, 61, 0
5, 221144, Note_on_c, 0, 89, 0
5, 221152, Control_c, 0, 64, 0
5, 221213, Note_on_c, 0, 60, 49
5, 221215, Note_on_c, 0, 63, 51
5, 221217, Note_on_c, 0, 91, 54
5, 221220, Note_on_c, 0, 58, 28
5, 221224, Note_on_c, 0, 79, 52
5, 221228, Note_on_c, 0, 53, 32
5, 221229, Note_on_c, 0, 86, 45
5, 221231, Control_c, 0, 64, 127
5, 221264, Note_on_c, 0, 79, 0
5, 221283, Note_on_c, 0, 86, 0
5, 221303, Note_on_c, 0, 63, 0
5, 221306, Note_on_c, 0, 91, 0
5, 221309, Note_on_c, 0, 53, 0
5, 221342, Note_on_c, 0, 58, 0
5, 221382, Note_on_c, 0, 60, 0
5, 221418, Note_on_c, 0, 94, 33
5, 221447, Note_on_c, 0, 94, 0
5, 221497, Note_on_c, 0, 60, 58
5, 221498, Note_on_c, 0, 91, 71
5, 221499, Note_on_c, 0, 96, 79
5, 221501, Note_on_c, 0, 63, 62
5, 221504, Note_on_c, 0, 53, 60
5, 221506, Note_on_c, 0, 84, 70
5, 221512, Note_on_c, 0, 58, 51
5, 221538, Control_c, 0, 64, 0
5, 221639, Control_c, 0, 64, 127
5, 221851, Note_on_c, 0, 96, 0
5, 221891, Note_on_c, 0, 91, 0
5, 221946, Note_on_c, 0, 84, 0
5, 222020, Note_on_c, 0, 63, 0
5, 222186, Note_on_c, 0, 58, 0
5, 222212, Note_on_c, 0, 60, 0
5, 222231, Note_on_c, 0, 53, 0
5, 222354, Note_on_c, 0, 53, 40
5, 222361, Note_on_c, 0, 60, 51
5, 222373, Note_on_c, 0, 63, 30
5, 222383, Note_on_c, 0, 58, 31
5, 222404, Note_on_c, 0, 63, 0
5, 222429, Note_on_c, 0, 60, 0
5, 222458, Note_on_c, 0, 53, 0
5, 222498, Note_on_c, 0, 58, 0
5, 222614, Note_on_c, 0, 63, 35
5, 222618, Note_on_c, 0, 60, 37
5, 222622, Note_on_c, 0, 79, 72
5, 222625, Note_on_c, 0, 75, 62
5, 222628, Note_on_c, 0, 72, 71
5, 222631, Note_on_c, 0, 67, 70
5, 222640, Note_on_c, 0, 63, 0
5, 222645, Note_on_c, 0, 60, 0
5, 222659, Note_on_c, 0, 77, 30
5, 222731, Note_on_c, 0, 79, 0
5, 222733, Note_on_c, 0, 77, 0
5, 222748, Note_on_c, 0, 67, 0
5, 222755, Note_on_c, 0, 72, 0
5, 222780, Note_on_c, 0, 75, 0
5, 222812, Control_c, 0, 64, 0
5, 222813, Note_on_c, 0, 60, 33
5, 222816, Note_on_c, 0, 49, 42
5, 222817, Note_on_c, 0, 56, 35
5, 222824, Note_on_c, 0, 77, 58
5, 222831, Note_on_c, 0, 72, 58
5, 222839, Note_on_c, 0, 53, 36
5, 222842, Note_on_c, 0, 65, 38
5, 223125, Control_c, 0, 64, 127
5, 223322, Note_on_c, 0, 60, 0
5, 223333, Note_on_c, 0, 65, 0
5, 223341, Note_on_c, 0, 72, 0
5, 223350, Note_on_c, 0, 77, 0
5, 223361, Note_on_c, 0, 53, 0
5, 223377, Note_on_c, 0, 56, 0
5, 223484, Note_on_c, 0, 77, 52
5, 223494, Control_c, 0, 64, 0
5, 223498, Note_on_c, 0, 65, 44
5, 223500, Note_on_c, 0, 60, 36
5, 223502, Note_on_c, 0, 72, 51
5, 223504, Note_on_c, 0, 56, 37
5, 223516, Note_on_c, 0, 53, 36
5, 223552, Note_on_c, 0, 72, 0
5, 223556, Note_on_c, 0, 77, 0
5, 223559, Note_on_c, 0, 65, 0
5, 223588, Note_on_c, 0, 60, 0
5, 223599, Note_on_c, 0, 53, 0
5, 223633, Note_on_c, 0, 49, 0
5, 223638, Note_on_c, 0, 56, 0
5, 223808, Note_on_c, 0, 61, 53
5, 223869, Note_on_c, 0, 61, 0
5, 223874, Note_on_c, 0, 62, 74
5, 223880, Note_on_c, 0, 75, 70
5, 223883, Note_on_c, 0, 68, 76
5, 223886, Note_on_c, 0, 72, 71
5, 223886, Note_on_c, 0, 64, 78
5, 223894, Note_on_c, 0, 63, 77
5, 223937, Note_on_c, 0, 62, 0
5, 224192, Note_on_c, 0, 64, 0
5, 224195, Note_on_c, 0, 61, 45
5, 224206, Note_on_c, 0, 63, 0
5, 224209, Note_on_c, 0, 68, 0
5, 224224, Note_on_c, 0, 75, 0
5, 224231, Note_on_c, 0, 72, 0
5, 224247, Note_on_c, 0, 62, 26
5, 224278, Note_on_c, 0, 62, 0
5, 224287, Note_on_c, 0, 63, 57
5, 224292, Note_on_c, 0, 75, 49
5, 224300, Note_on_c, 0, 68, 51
5, 224304, Note_on_c, 0, 72, 49
5, 224307, Note_on_c, 0, 64, 49
5, 224324, Note_on_c, 0, 61, 0
5, 224575, Note_on_c, 0, 64, 0
5, 224577, Note_on_c, 0, 68, 0
5, 224614, Note_on_c, 0, 72, 0
5, 224618, Note_on_c, 0, 75, 0
5, 224674, Note_on_c, 0, 64, 42
5, 224677, Note_on_c, 0, 73, 37
5, 224677, Note_on_c, 0, 61, 40
5, 224678, Note_on_c, 0, 68, 33
5, 224691, Note_on_c, 0, 63, 0
5, 224914, Note_on_c, 0, 64, 0
5, 224935, Note_on_c, 0, 68, 0
5, 224962, Note_on_c, 0, 61, 0
5, 224979, Note_on_c, 0, 73, 0
5, 224986, Note_on_c, 0, 58, 19
5, 225029, Note_on_c, 0, 58, 0
5, 225054, Note_on_c, 0, 75, 50
5, 225060, Note_on_c, 0, 64, 49
5, 225061, Note_on_c, 0, 68, 33
5, 225068, Note_on_c, 0, 63, 40
5, 225078, Note_on_c, 0, 72, 39
5, 225214, Note_on_c, 0, 64, 0
5, 225229, Note_on_c, 0, 68, 0
5, 225235, Note_on_c, 0, 72, 0
5, 225301, Note_on_c, 0, 75, 0
5, 225318, Note_on_c, 0, 73, 59
5, 225330, Note_on_c, 0, 68, 48
5, 225333, Note_on_c, 0, 61, 50
5, 225336, Note_on_c, 0, 63, 0
5, 225336, Note_on_c, 0, 64, 52
5, 225358, Note_on_c, 0, 68, 0
5, 225364, Note_on_c, 0, 61, 0
5, 225371, Note_on_c, 0, 64, 0
5, 225382, Note_on_c, 0, 73, 0
5, 225670, Note_on_c, 0, 49, 29
5, 225677, Note_on_c, 0, 63, 62
5, 225683, Note_on_c, 0, 50, 52
5, 225689, Note_on_c, 0, 58, 57
5, 225690, Note_on_c, 0, 55, 70
5, 225696, Note_on_c, 0, 60, 53
5, 225705, Note_on_c, 0, 49, 0
5, 225723, Note_on_c, 0, 50, 0
5, 225725, Note_on_c, 0, 51, 49
5, 226101, Note_on_c, 0, 51, 0
5, 226101, Note_on_c, 0, 63, 0
5, 226103, Note_on_c, 0, 55, 0
5, 226121, Note_on_c, 0, 50, 45
5, 226127, Note_on_c, 0, 60, 0
5, 226132, Note_on_c, 0, 58, 0
5, 226153, Note_on_c, 0, 50, 0
5, 226184, Note_on_c, 0, 63, 27
5, 226197, Note_on_c, 0, 51, 38
5, 226198, Note_on_c, 0, 55, 43
5, 226209, Note_on_c, 0, 58, 26
5, 226213, Note_on_c, 0, 60, 48
5, 226455, Note_on_c, 0, 55, 0
5, 226482, Note_on_c, 0, 51, 0
5, 226488, Note_on_c, 0, 63, 0
5, 226494, Note_on_c, 0, 58, 0
5, 226502, Note_on_c, 0, 60, 0
5, 226541, Note_on_c, 0, 50, 24
5, 226573, Note_on_c, 0, 50, 0
5, 226581, Note_on_c, 0, 51, 32
5, 226597, Note_on_c, 0, 63, 38
5, 226604, Note_on_c, 0, 55, 47
5, 226608, Note_on_c, 0, 60, 44
5, 226610, Note_on_c, 0, 58, 37
5, 226730, Control_c, 0, 64, 127
5, 226748, Note_on_c, 0, 55, 0
5, 226758, Note_on_c, 0, 63, 0
5, 226764, Note_on_c, 0, 51, 0
5, 226789, Note_on_c, 0, 58, 0
5, 226830, Note_on_c, 0, 60, 0
5, 226864, Note_on_c, 0, 58, 30
5, 226866, Note_on_c, 0, 63, 52
5, 226869, Note_on_c, 0, 51, 25
5, 226872, Note_on_c, 0, 55, 62
5, 226883, Control_c, 0, 64, 0
5, 226909, Note_on_c, 0, 55, 0
5, 226941, Note_on_c, 0, 51, 0
5, 226949, Note_on_c, 0, 63, 0
5, 226958, Note_on_c, 0, 58, 0
5, 226969, Control_c, 0, 64, 127
5, 227100, Note_on_c, 0, 51, 20
5, 227179, Note_on_c, 0, 54, 39
5, 227204, Note_on_c, 0, 51, 0
5, 227209, Note_on_c, 0, 67, 63
5, 227214, Note_on_c, 0, 56, 59
5, 227215, Note_on_c, 0, 59, 68
5, 227218, Note_on_c, 0, 55, 71
5, 227225, Note_on_c, 0, 62, 47
5, 227226, Note_on_c, 0, 54, 0
5, 227253, Control_c, 0, 64, 0
5, 227577, Note_on_c, 0, 67, 0
5, 227610, Note_on_c, 0, 56, 0
5, 227637, Note_on_c, 0, 59, 0
5, 227677, Note_on_c, 0, 62, 0
5, 227706, Note_on_c, 0, 54, 49
5, 227708, Note_on_c, 0, 55, 0
5, 227720, Note_on_c, 0, 66, 43
5, 227729, Note_on_c, 0, 56, 30
5, 227737, Note_on_c, 0, 59, 32
5, 227747, Note_on_c, 0, 62, 17
5, 227762, Control_c, 0, 64, 127
5, 227843, Note_on_c, 0, 59, 0
5, 227859, Note_on_c, 0, 66, 0
5, 227874, Note_on_c, 0, 56, 0
5, 227918, Note_on_c, 0, 62, 0
5, 227961, Note_on_c, 0, 54, 0
5, 227974, Note_on_c, 0, 56, 33
5, 227984, Control_c, 0, 64, 0
5, 227993, Note_on_c, 0, 59, 45
5, 227994, Note_on_c, 0, 65, 36
5, 228001, Note_on_c, 0, 53, 49
5, 228004, Note_on_c, 0, 62, 18
5, 228131, Control_c, 0, 64, 127
5, 228230, Note_on_c, 0, 62, 0
5, 228295, Note_on_c, 0, 59, 0
5, 228310, Note_on_c, 0, 56, 0
5, 228378, Control_c, 0, 64, 0
5, 228406, Note_on_c, 0, 65, 0
5, 228450, Note_on_c, 0, 53, 0
5, 228455, Note_on_c, 0, 62, 35
5, 228463, Note_on_c, 0, 56, 30
5, 228471, Note_on_c, 0, 50, 40
5, 228501, Control_c, 0, 64, 127
5, 228556, Note_on_c, 0, 62, 0
5, 228631, Note_on_c, 0, 56, 0
5, 228732, Note_on_c, 0, 50, 0
5, 228746, Note_on_c, 0, 61, 51
5, 228750, Note_on_c, 0, 53, 39
5, 228751, Note_on_c, 0, 58, 45
5, 228770, Control_c, 0, 64, 0
5, 228786, Note_on_c, 0, 49, 32
5, 228917, Control_c, 0, 64, 127
5, 229018, Note_on_c, 0, 53, 0
5, 229160, Note_on_c, 0, 58, 0
5, 229196, Note_on_c, 0, 61, 0
5, 229579, Note_on_c, 0, 49, 0
5, 229625, Control_c, 0, 64, 0
5, 229667, Note_on_c, 0, 53, 24
5, 229674, Note_on_c, 0, 65, 38
5, 229763, Note_on_c, 0, 65, 0
5, 229783, Note_on_c, 0, 53, 0
5, 230001, Note_on_c, 0, 56, 38
5, 230024, Note_on_c, 0, 68, 48
5, 230038, Note_on_c, 0, 56, 0
5, 230049, Control_c, 0, 64, 127
5, 230062, Note_on_c, 0, 68, 0
5, 230387, Note_on_c, 0, 65, 37
5, 230388, Note_on_c, 0, 55, 38
5, 230394, Control_c, 0, 64, 0
5, 230399, Note_on_c, 0, 77, 68
5, 230407, Note_on_c, 0, 61, 43
5, 230665, Control_c, 0, 64, 127
5, 230703, Note_on_c, 0, 77, 0
5, 230801, Note_on_c, 0, 65, 0
5, 230882, Note_on_c, 0, 61, 0
5, 230922, Note_on_c, 0, 55, 0
5, 231077, Note_on_c, 0, 67, 70
5, 231111, Control_c, 0, 64, 0
5, 231116, Note_on_c, 0, 61, 28
5, 231173, Control_c, 0, 64, 127
5, 231189, Note_on_c, 0, 61, 0
5, 231217, Note_on_c, 0, 67, 0
5, 231822, Note_on_c, 0, 57, 90
5, 231950, Control_c, 0, 64, 0
5, 231978, Note_on_c, 0, 56, 49
5, 231979, Note_on_c, 0, 57, 0
5, 232227, Note_on_c, 0, 49, 62
5, 232306, Note_on_c, 0, 49, 0
5, 232334, Note_on_c, 0, 56, 0
5, 232582, Note_on_c, 0, 37, 69
5, 232729, Note_on_c, 0, 53, 63
5, 232729, Note_on_c, 0, 64, 56
5, 232732, Note_on_c, 0, 59, 68
5, 233090, Control_c, 0, 64, 127
5, 233096, Note_on_c, 0, 59, 0
5, 233206, Note_on_c, 0, 64, 0
5, 233304, Note_on_c, 0, 53, 0
5, 233368, Note_on_c, 0, 57, 57
5, 233379, Note_on_c, 0, 45, 53
5, 233459, Control_c, 0, 64, 0
5, 233485, Note_on_c, 0, 57, 0
5, 233506, Note_on_c, 0, 45, 0
5, 233540, Note_on_c, 0, 56, 27
5, 233548, Note_on_c, 0, 44, 31
5, 233589, Note_on_c, 0, 37, 0
5, 233744, Note_on_c, 0, 49, 67
5, 233745, Note_on_c, 0, 37, 52
5, 233762, Note_on_c, 0, 44, 0
5, 233794, Note_on_c, 0, 49, 0
5, 233797, Note_on_c, 0, 56, 0
5, 234110, Note_on_c, 0, 45, 53
5, 234116, Note_on_c, 0, 57, 62
5, 234194, Note_on_c, 0, 45, 0
5, 234204, Note_on_c, 0, 57, 0
5, 234269, Note_on_c, 0, 44, 35
5, 234271, Note_on_c, 0, 37, 0
5, 234291, Note_on_c, 0, 56, 30
5, 234485, Note_on_c, 0, 49, 64
5, 234502, Note_on_c, 0, 37, 32
5, 234522, Note_on_c, 0, 49, 0
5, 234526, Note_on_c, 0, 56, 0
5, 234542, Note_on_c, 0, 44, 0
5, 234858, Note_on_c, 0, 56, 56
5, 234864, Note_on_c, 0, 44, 29
5, 234930, Note_on_c, 0, 44, 0
5, 234936, Note_on_c, 0, 37, 0
5, 234959, Note_on_c, 0, 43, 39
5, 234964, Note_on_c, 0, 56, 0
5, 235016, Note_on_c, 0, 55, 32
5, 235186, Note_on_c, 0, 55, 0
5, 235228, Note_on_c, 0, 36, 45
5, 235229, Note_on_c, 0, 43, 0
5, 235232, Note_on_c, 0, 48, 33
5, 235265, Note_on_c, 0, 48, 0
5, 235331, Control_c, 0, 64, 127
5, 235640, Note_on_c, 0, 63, 37
5, 235648, Note_on_c, 0, 58, 37
5, 235658, Note_on_c, 0, 48, 43
5, 235662, Note_on_c, 0, 52, 24
5, 235677, Control_c, 0, 64, 0
5, 236345, Note_on_c, 0, 48, 0
5, 236393, Note_on_c, 0, 52, 0
5, 236397, Note_on_c, 0, 56, 46
5, 236399, Note_on_c, 0, 44, 38
5, 236400, Note_on_c, 0, 58, 0
5, 236498, Note_on_c, 0, 56, 0
5, 236508, Note_on_c, 0, 44, 0
5, 236582, Note_on_c, 0, 43, 38
5, 236582, Note_on_c, 0, 55, 19
5, 236631, Note_on_c, 0, 36, 0
5, 236652, Note_on_c, 0, 63, 0
5, 236769, Note_on_c, 0, 55, 0
5, 236794, Note_on_c, 0, 36, 39
5, 236815, Note_on_c, 0, 43, 0
5, 237144, Note_on_c, 0, 44, 37
5, 237157, Note_on_c, 0, 56, 49
5, 237224, Note_on_c, 0, 56, 0
5, 237254, Note_on_c, 0, 44, 0
5, 237309, Note_on_c, 0, 43, 22
5, 237318, Note_on_c, 0, 55, 31
5, 237323, Note_on_c, 0, 36, 0
5, 237519, Note_on_c, 0, 55, 0
5, 237548, Note_on_c, 0, 36, 43
5, 237557, Note_on_c, 0, 48, 30
5, 237560, Note_on_c, 0, 43, 0
5, 237589, Note_on_c, 0, 48, 0
5, 237934, Note_on_c, 0, 57, 60
5, 237935, Note_on_c, 0, 36, 0
5, 237948, Note_on_c, 0, 45, 53
5, 238043, Note_on_c, 0, 57, 0
5, 238080, Note_on_c, 0, 45, 0
5, 238088, Note_on_c, 0, 56, 45
5, 238140, Note_on_c, 0, 44, 13
5, 238314, Note_on_c, 0, 56, 0
5, 238329, Note_on_c, 0, 49, 59
5, 238369, Note_on_c, 0, 44, 0
5, 238369, Note_on_c, 0, 37, 35
5, 238380, Note_on_c, 0, 49, 0
5, 238707, Note_on_c, 0, 64, 45
5, 238708, Note_on_c, 0, 53, 51
5, 238713, Note_on_c, 0, 59, 51
5, 239187, Control_c, 0, 64, 127
5, 239240, Note_on_c, 0, 59, 0
5, 239297, Note_on_c, 0, 64, 0
5, 239462, Note_on_c, 0, 53, 0
5, 239517, Note_on_c, 0, 57, 45
5, 239521, Note_on_c, 0, 45, 40
5, 239549, Control_c, 0, 64, 0
5, 239567, Note_on_c, 0, 45, 0
5, 239608, Note_on_c, 0, 57, 0
5, 239681, Note_on_c, 0, 56, 20
5, 239687, Note_on_c, 0, 44, 23
5, 239754, Note_on_c, 0, 37, 0
5, 239867, Note_on_c, 0, 51, 51
5, 239895, Note_on_c, 0, 37, 32
5, 239899, Note_on_c, 0, 51, 0
5, 239912, Note_on_c, 0, 44, 0
5, 239921, Note_on_c, 0, 56, 0
5, 240257, Note_on_c, 0, 57, 58
5, 240261, Note_on_c, 0, 45, 35
5, 240317, Note_on_c, 0, 45, 0
5, 240336, Note_on_c, 0, 57, 0
5, 240411, Note_on_c, 0, 56, 25
5, 240495, Note_on_c, 0, 44, 1
5, 240509, Note_on_c, 0, 37, 0
5, 240623, Note_on_c, 0, 49, 52
5, 240642, Note_on_c, 0, 37, 39
5, 240655, Note_on_c, 0, 44, 0
5, 240685, Note_on_c, 0, 49, 0
5, 240712, Note_on_c, 0, 56, 0
5, 240997, Note_on_c, 0, 44, 44
5, 241016, Note_on_c, 0, 56, 57
5, 241093, Note_on_c, 0, 56, 0
5, 241131, Note_on_c, 0, 44, 0
5, 241133, Note_on_c, 0, 37, 0
5, 241155, Note_on_c, 0, 43, 42
5, 241208, Note_on_c, 0, 55, 24
5, 241348, Note_on_c, 0, 55, 0
5, 241392, Note_on_c, 0, 48, 48
5, 241393, Note_on_c, 0, 36, 41
5, 241400, Note_on_c, 0, 43, 0
5, 241418, Note_on_c, 0, 48, 0
5, 241436, Control_c, 0, 64, 127
5, 241770, Note_on_c, 0, 63, 69
5, 241773, Note_on_c, 0, 58, 71
5, 241781, Note_on_c, 0, 52, 68
5, 241788, Note_on_c, 0, 48, 64
5, 241798, Control_c, 0, 64, 0
5, 242329, Control_c, 0, 64, 127
5, 242341, Note_on_c, 0, 58, 0
5, 242523, Note_on_c, 0, 48, 0
5, 242550, Note_on_c, 0, 52, 0
5, 242568, Note_on_c, 0, 44, 38
5, 242580, Note_on_c, 0, 56, 28
5, 242604, Note_on_c, 0, 63, 0
5, 242623, Note_on_c, 0, 56, 0
5, 242644, Control_c, 0, 64, 0
5, 242680, Note_on_c, 0, 44, 0
5, 242725, Note_on_c, 0, 43, 33
5, 242820, Note_on_c, 0, 36, 0
5, 242937, Note_on_c, 0, 43, 0
5, 242946, Note_on_c, 0, 36, 48
5, 243320, Note_on_c, 0, 44, 29
5, 243324, Note_on_c, 0, 56, 47
5, 243329, Note_on_c, 0, 63, 27
5, 243391, Note_on_c, 0, 63, 0
5, 243441, Note_on_c, 0, 44, 0
5, 243474, Note_on_c, 0, 43, 37
5, 243488, Note_on_c, 0, 56, 0
5, 243495, Note_on_c, 0, 36, 0
5, 243707, Note_on_c, 0, 36, 32
5, 243724, Note_on_c, 0, 43, 0
5, 244066, Note_on_c, 0, 36, 0
5, 244074, Note_on_c, 0, 57, 47
5, 244085, Note_on_c, 0, 45, 37
5, 244172, Note_on_c, 0, 57, 0
5, 244215, Note_on_c, 0, 45, 0
5, 244265, Note_on_c, 0, 56, 15
5, 244324, Note_on_c, 0, 44, 3
5, 244376, Note_on_c, 0, 56, 0
5, 244472, Note_on_c, 0, 37, 35
5, 244476, Note_on_c, 0, 44, 0
5, 244639, Control_c, 0, 64, 127
5, 244839, Control_c, 0, 64, 0
5, 244859, Note_on_c, 0, 64, 33
5, 244869, Note_on_c, 0, 59, 39
5, 244876, Note_on_c, 0, 53, 32
5, 245109, Control_c, 0, 64, 127
5, 245335, Note_on_c, 0, 59, 0
5, 245499, Note_on_c, 0, 53, 0
5, 245648, Note_on_c, 0, 64, 0
5, 245694, Control_c, 0, 64, 0
5, 245835, Note_on_c, 0, 44, 10
5, 245917, Note_on_c, 0, 37, 0
5, 246000, Note_on_c, 0, 37, 30
5, 246003, Note_on_c, 0, 44, 0
5, 246387, Note_on_c, 0, 45, 34
5, 246458, Note_on_c, 0, 45, 0
5, 246550, Note_on_c, 0, 44, 31
5, 246683, Note_on_c, 0, 37, 0
5, 246787, Note_on_c, 0, 37, 33
5, 246825, Note_on_c, 0, 44, 0
5, 247141, Note_on_c, 0, 44, 34
5, 247175, Note_on_c, 0, 37, 0
5, 247275, Note_on_c, 0, 44, 0
5, 247314, Note_on_c, 0, 43, 33
5, 247522, Note_on_c, 0, 43, 0
5, 247557, Note_on_c, 0, 36, 29
5, 247704, Control_c, 0, 64, 127
5, 247936, Note_on_c, 0, 63, 21
5, 247965, Control_c, 0, 64, 0
5, 247974, Note_on_c, 0, 58, 23
5, 248677, Note_on_c, 0, 44, 25
5, 248759, Note_on_c, 0, 44, 0
5, 248841, Note_on_c, 0, 43, 28
5, 248963, Note_on_c, 0, 36, 0
5, 249060, Note_on_c, 0, 36, 31
5, 250011, Note_on_c, 0, 36, 0
5, 250141, Note_on_c, 0, 43, 0
5, 250288, Note_on_c, 0, 45, 31
5, 250337, Note_on_c, 0, 45, 0
5, 250439, Note_on_c, 0, 44, 25
5, 250617, Note_on_c, 0, 44, 0
5, 250668, Note_on_c, 0, 37, 29
5, 250837, Note_on_c, 0, 63, 0
5, 250850, Note_on_c, 0, 58, 0
5, 251000, Note_on_c, 0, 64, 25
5, 251012, Note_on_c, 0, 59, 29
5, 251012, Note_on_c, 0, 53, 22
5, 253039, Control_c, 0, 64, 127
5, 253297, Note_on_c, 0, 44, 25
5, 253305, Note_on_c, 0, 37, 0
5, 253355, Control_c, 0, 64, 0
5, 253400, Note_on_c, 0, 44, 0
5, 253402, Note_on_c, 0, 53, 0
5, 253440, Note_on_c, 0, 64, 0
5, 253459, Note_on_c, 0, 43, 35
5, 253473, Note_on_c, 0, 59, 0
5, 253707, Note_on_c, 0, 43, 0
5, 253729, Note_on_c, 0, 36, 34
5, 254100, Note_on_c, 0, 63, 23
5, 254126, Note_on_c, 0, 58, 25
5, 254133, Note_on_c, 0, 52, 24
5, 254486, Control_c, 0, 64, 127
5, 254686, Control_c, 0, 64, 0
5, 255081, Note_on_c, 0, 52, 0
5, 255142, Note_on_c, 0, 58, 0
5, 255161, Note_on_c, 0, 63, 0
5, 255282, Note_on_c, 0, 36, 0
5, 255282, End_track
6, 0, Start_track
6, 0, Title_t, ""
6, 0, Program_c, 2, 35
6, 0, Control_c, 2, 7, 73
6, 0, Control_c, 2, 11, 127
6, 0, Control_c, 2, 64, 0
6, 0, Control_c, 2, 67, 0
6, 0, Pitch_bend_c, 2, 8192
6, 1408, Note_on_c, 2, 45, 63
6, 1472, Note_on_c, 2, 45, 0
6, 1536, Note_on_c, 2, 44, 43
6, 1792, Note_on_c, 2, 37, 60
6, 1800, Note_on_c, 2, 44, 0
6, 2944, Note_on_c, 2, 45, 54
6, 2976, Note_on_c, 2, 37, 0
6, 2992, Note_on_c, 2, 45, 0
6, 3072, Note_on_c, 2, 44, 48
6, 3312, Note_on_c, 2, 44, 0
6, 3328, Note_on_c, 2, 37, 62
6, 3712, Note_on_c, 2, 45, 50
6, 3768, Note_on_c, 2, 45, 0
6, 3768, Note_on_c, 2, 37, 0
6, 3840, Note_on_c, 2, 44, 44
6, 4080, Note_on_c, 2, 44, 0
6, 4096, Note_on_c, 2, 37, 56
6, 4480, Note_on_c, 2, 44, 62
6, 4496, Note_on_c, 2, 37, 0
6, 4544, Note_on_c, 2, 44, 0
6, 4608, Note_on_c, 2, 43, 49
6, 4840, Note_on_c, 2, 43, 0
6, 4864, Note_on_c, 2, 36, 85
6, 6016, Note_on_c, 2, 44, 52
6, 6024, Note_on_c, 2, 36, 0
6, 6064, Note_on_c, 2, 44, 0
6, 6144, Note_on_c, 2, 43, 35
6, 6400, Note_on_c, 2, 36, 79
6, 6408, Note_on_c, 2, 43, 0
6, 6784, Note_on_c, 2, 44, 49
6, 6832, Note_on_c, 2, 44, 0
6, 6840, Note_on_c, 2, 36, 0
6, 6912, Note_on_c, 2, 43, 42
6, 7160, Note_on_c, 2, 43, 0
6, 7168, Note_on_c, 2, 36, 66
6, 7528, Note_on_c, 2, 36, 0
6, 7552, Note_on_c, 2, 45, 79
6, 7632, Note_on_c, 2, 45, 0
6, 7680, Note_on_c, 2, 44, 52
6, 7912, Note_on_c, 2, 44, 0
6, 7936, Note_on_c, 2, 37, 79
6, 9088, Note_on_c, 2, 45, 51
6, 9128, Note_on_c, 2, 45, 0
6, 9136, Note_on_c, 2, 37, 0
6, 9216, Note_on_c, 2, 44, 31
6, 9472, Note_on_c, 2, 37, 83
6, 9480, Note_on_c, 2, 44, 0
6, 9856, Note_on_c, 2, 45, 36
6, 9872, Note_on_c, 2, 37, 0
6, 9888, Note_on_c, 2, 45, 0
6, 9984, Note_on_c, 2, 44, 27
6, 10032, Note_on_c, 2, 44, 0
6, 10240, Note_on_c, 2, 37, 71
6, 10624, Note_on_c, 2, 44, 56
6, 10656, Note_on_c, 2, 37, 0
6, 10664, Note_on_c, 2, 44, 0
6, 10752, Note_on_c, 2, 43, 48
6, 10952, Note_on_c, 2, 43, 0
6, 11008, Note_on_c, 2, 36, 83
6, 12160, Note_on_c, 2, 44, 64
6, 12216, Note_on_c, 2, 44, 0
6, 12248, Note_on_c, 2, 36, 0
6, 12288, Note_on_c, 2, 43, 40
6, 12544, Note_on_c, 2, 36, 68
6, 12576, Note_on_c, 2, 43, 0
6, 12928, Note_on_c, 2, 44, 76
6, 12976, Note_on_c, 2, 44, 0
6, 12984, Note_on_c, 2, 36, 0
6, 13056, Note_on_c, 2, 43, 28
6, 13216, Note_on_c, 2, 43, 0
6, 13312, Note_on_c, 2, 36, 57
6, 13376, Note_on_c, 2, 36, 0
6, 13568, Note_on_c, 2, 39, 46
6, 13608, Note_on_c, 2, 39, 0
6, 13696, Note_on_c, 2, 40, 59
6, 13744, Note_on_c, 2, 40, 0
6, 13824, Note_on_c, 2, 41, 73
6, 13864, Note_on_c, 2, 41, 0
6, 14080, Note_on_c, 2, 36, 61
6, 14088, Note_on_c, 2, 36, 0
6, 14208, Note_on_c, 2, 32, 45
6, 14568, Note_on_c, 2, 32, 0
6, 14592, Note_on_c, 2, 31, 47
6, 14952, Note_on_c, 2, 31, 0
6, 14976, Note_on_c, 2, 29, 36
6, 15216, Note_on_c, 2, 29, 0
6, 15232, Note_on_c, 2, 33, 51
6, 15320, Note_on_c, 2, 33, 0
6, 15360, Note_on_c, 2, 34, 42
6, 15744, Note_on_c, 2, 34, 0
6, 15744, Note_on_c, 2, 36, 55
6, 16112, Note_on_c, 2, 36, 0
6, 16128, Note_on_c, 2, 37, 48
6, 16376, Note_on_c, 2, 37, 0
6, 16384, Note_on_c, 2, 41, 65
6, 16440, Note_on_c, 2, 41, 0
6, 16512, Note_on_c, 2, 40, 48
6, 16512, Note_on_c, 2, 41, 37
6, 16544, Note_on_c, 2, 41, 0
6, 16888, Note_on_c, 2, 40, 0
6, 16896, Note_on_c, 2, 39, 50
6, 17280, Note_on_c, 2, 47, 66
6, 17304, Note_on_c, 2, 39, 0
6, 17536, Note_on_c, 2, 39, 33
6, 17576, Note_on_c, 2, 39, 0
6, 17632, Note_on_c, 2, 47, 0
6, 17664, Note_on_c, 2, 45, 51
6, 18048, Note_on_c, 2, 40, 49
6, 18256, Note_on_c, 2, 40, 0
6, 18304, Note_on_c, 2, 39, 34
6, 18328, Note_on_c, 2, 39, 0
6, 18376, Note_on_c, 2, 45, 0
6, 18432, Note_on_c, 2, 32, 55
6, 18688, Note_on_c, 2, 39, 45
6, 18712, Note_on_c, 2, 39, 0
6, 18744, Note_on_c, 2, 32, 0
6, 18816, Note_on_c, 2, 48, 66
6, 19200, Note_on_c, 2, 48, 0
6, 19200, Note_on_c, 2, 46, 43
6, 19256, Note_on_c, 2, 46, 0
6, 19456, Note_on_c, 2, 43, 66
6, 19480, Note_on_c, 2, 43, 0
6, 19712, Note_on_c, 2, 39, 46
6, 19752, Note_on_c, 2, 39, 0
6, 19840, Note_on_c, 2, 38, 38
6, 19888, Note_on_c, 2, 38, 0
6, 19968, Note_on_c, 2, 37, 33
6, 20328, Note_on_c, 2, 37, 0
6, 20352, Note_on_c, 2, 41, 47
6, 20648, Note_on_c, 2, 41, 0
6, 20736, Note_on_c, 2, 49, 57
6, 20992, Note_on_c, 2, 37, 52
6, 21000, Note_on_c, 2, 37, 0
6, 21080, Note_on_c, 2, 49, 0
6, 21120, Note_on_c, 2, 41, 24
6, 21144, Note_on_c, 2, 41, 0
6, 21248, Note_on_c, 2, 42, 58
6, 21288, Note_on_c, 2, 42, 0
6, 21376, Note_on_c, 2, 43, 84
6, 21600, Note_on_c, 2, 43, 0
6, 21632, Note_on_c, 2, 38, 40
6, 21640, Note_on_c, 2, 38, 0
6, 21760, Note_on_c, 2, 32, 52
6, 21768, Note_on_c, 2, 32, 0
6, 21888, Note_on_c, 2, 32, 63
6, 22232, Note_on_c, 2, 32, 0
6, 22272, Note_on_c, 2, 31, 36
6, 22624, Note_on_c, 2, 31, 0
6, 22656, Note_on_c, 2, 35, 44
6, 23024, Note_on_c, 2, 35, 0
6, 23040, Note_on_c, 2, 36, 45
6, 23296, Note_on_c, 2, 34, 34
6, 23408, Note_on_c, 2, 36, 0
6, 23424, Note_on_c, 2, 50, 83
6, 23432, Note_on_c, 2, 34, 0
6, 23752, Note_on_c, 2, 50, 0
6, 23808, Note_on_c, 2, 48, 61
6, 23808, Note_on_c, 2, 50, 32
6, 23848, Note_on_c, 2, 50, 0
6, 24064, Note_on_c, 2, 36, 37
6, 24112, Note_on_c, 2, 36, 0
6, 24136, Note_on_c, 2, 48, 0
6, 24192, Note_on_c, 2, 45, 51
6, 24552, Note_on_c, 2, 45, 0
6, 24576, Note_on_c, 2, 43, 45
6, 24936, Note_on_c, 2, 43, 0
6, 24960, Note_on_c, 2, 40, 48
6, 25320, Note_on_c, 2, 40, 0
6, 25344, Note_on_c, 2, 38, 46
6, 25592, Note_on_c, 2, 38, 0
6, 25600, Note_on_c, 2, 34, 44
6, 25688, Note_on_c, 2, 34, 0
6, 25728, Note_on_c, 2, 35, 49
6, 26072, Note_on_c, 2, 35, 0
6, 26112, Note_on_c, 2, 36, 45
6, 26368, Note_on_c, 2, 50, 110
6, 26456, Note_on_c, 2, 36, 0
6, 26464, Note_on_c, 2, 50, 0
6, 26496, Note_on_c, 2, 48, 66
6, 26752, Note_on_c, 2, 34, 25
6, 26808, Note_on_c, 2, 34, 0
6, 26816, Note_on_c, 2, 48, 0
6, 26880, Note_on_c, 2, 43, 55
6, 27128, Note_on_c, 2, 43, 0
6, 27136, Note_on_c, 2, 39, 51
6, 27224, Note_on_c, 2, 39, 0
6, 27392, Note_on_c, 2, 36, 49
6, 27400, Note_on_c, 2, 36, 0
6, 27520, Note_on_c, 2, 31, 36
6, 27520, Note_on_c, 2, 31, 0
6, 27520, Note_on_c, 2, 30, 40
6, 27592, Note_on_c, 2, 30, 0
6, 27648, Note_on_c, 2, 29, 64
6, 27992, Note_on_c, 2, 29, 0
6, 28032, Note_on_c, 2, 31, 54
6, 28376, Note_on_c, 2, 31, 0
6, 28416, Note_on_c, 2, 32, 48
6, 28672, Note_on_c, 2, 32, 0
6, 28672, Note_on_c, 2, 31, 33
6, 28736, Note_on_c, 2, 31, 0
6, 28800, Note_on_c, 2, 33, 44
6, 29032, Note_on_c, 2, 33, 0
6, 29056, Note_on_c, 2, 34, 52
6, 29144, Note_on_c, 2, 34, 0
6, 29184, Note_on_c, 2, 35, 42
6, 29440, Note_on_c, 2, 34, 31
6, 29520, Note_on_c, 2, 35, 0
6, 29528, Note_on_c, 2, 34, 0
6, 29568, Note_on_c, 2, 40, 39
6, 29568, Note_on_c, 2, 41, 40
6, 29760, Note_on_c, 2, 41, 0
6, 29760, Note_on_c, 2, 40, 0
6, 29824, Note_on_c, 2, 39, 37
6, 29896, Note_on_c, 2, 39, 0
6, 29952, Note_on_c, 2, 40, 32
6, 30240, Note_on_c, 2, 40, 0
6, 30336, Note_on_c, 2, 52, 55
6, 30592, Note_on_c, 2, 35, 31
6, 30600, Note_on_c, 2, 35, 0
6, 30632, Note_on_c, 2, 52, 0
6, 30720, Note_on_c, 2, 51, 49
6, 31096, Note_on_c, 2, 51, 0
6, 31104, Note_on_c, 2, 43, 35
6, 31448, Note_on_c, 2, 43, 0
6, 31488, Note_on_c, 2, 46, 53
6, 31872, Note_on_c, 2, 39, 48
6, 31912, Note_on_c, 2, 39, 0
6, 31920, Note_on_c, 2, 46, 0
6, 32128, Note_on_c, 2, 34, 63
6, 32160, Note_on_c, 2, 34, 0
6, 32256, Note_on_c, 2, 32, 48
6, 32640, Note_on_c, 2, 39, 46
6, 33024, Note_on_c, 2, 48, 60
6, 33056, Note_on_c, 2, 39, 0
6, 33280, Note_on_c, 2, 39, 40
6, 33352, Note_on_c, 2, 39, 0
6, 33392, Note_on_c, 2, 48, 0
6, 33408, Note_on_c, 2, 46, 53
6, 33432, Note_on_c, 2, 32, 0
6, 33760, Note_on_c, 2, 46, 0
6, 33792, Note_on_c, 2, 45, 54
6, 34152, Note_on_c, 2, 45, 0
6, 34176, Note_on_c, 2, 33, 58
6, 34536, Note_on_c, 2, 33, 0
6, 34560, Note_on_c, 2, 38, 47
6, 34944, Note_on_c, 2, 50, 84
6, 34976, Note_on_c, 2, 38, 0
6, 35200, Note_on_c, 2, 38, 34
6, 35232, Note_on_c, 2, 38, 0
6, 35288, Note_on_c, 2, 50, 0
6, 35328, Note_on_c, 2, 47, 33
6, 35576, Note_on_c, 2, 47, 0
6, 35584, Note_on_c, 2, 38, 81
6, 35968, Note_on_c, 2, 50, 74
6, 36248, Note_on_c, 2, 38, 0
6, 36352, Note_on_c, 2, 38, 19
6, 36384, Note_on_c, 2, 38, 0
6, 36472, Note_on_c, 2, 50, 0
6, 36480, Note_on_c, 2, 47, 51
6, 36856, Note_on_c, 2, 47, 0
6, 36864, Note_on_c, 2, 38, 49
6, 37248, Note_on_c, 2, 38, 0
6, 37248, Note_on_c, 2, 37, 43
6, 37632, Note_on_c, 2, 37, 0
6, 37632, Note_on_c, 2, 38, 49
6, 37888, Note_on_c, 2, 37, 21
6, 37984, Note_on_c, 2, 37, 0
6, 37984, Note_on_c, 2, 38, 0
6, 38016, Note_on_c, 2, 50, 63
6, 38720, Note_on_c, 2, 50, 0
6, 38784, Note_on_c, 2, 50, 59
6, 39552, Note_on_c, 2, 38, 71
6, 39568, Note_on_c, 2, 50, 0
6, 40320, Note_on_c, 2, 50, 82
6, 40376, Note_on_c, 2, 38, 0
6, 40976, Note_on_c, 2, 50, 0
6, 41088, Note_on_c, 2, 50, 73
6, 41768, Note_on_c, 2, 50, 0
6, 41856, Note_on_c, 2, 50, 75
6, 42624, Note_on_c, 2, 38, 67
6, 42632, Note_on_c, 2, 50, 0
6, 43392, Note_on_c, 2, 50, 80
6, 43440, Note_on_c, 2, 38, 0
6, 44072, Note_on_c, 2, 50, 0
6, 44160, Note_on_c, 2, 50, 63
6, 44224, Note_on_c, 2, 50, 0
6, 44288, Note_on_c, 2, 45, 54
6, 44328, Note_on_c, 2, 45, 0
6, 44416, Note_on_c, 2, 43, 68
6, 44448, Note_on_c, 2, 43, 0
6, 44544, Note_on_c, 2, 42, 43
6, 44912, Note_on_c, 2, 42, 0
6, 44928, Note_on_c, 2, 40, 40
6, 45312, Note_on_c, 2, 36, 49
6, 45320, Note_on_c, 2, 40, 0
6, 45672, Note_on_c, 2, 36, 0
6, 45696, Note_on_c, 2, 34, 44
6, 46064, Note_on_c, 2, 34, 0
6, 46080, Note_on_c, 2, 35, 53
6, 46464, Note_on_c, 2, 35, 0
6, 46464, Note_on_c, 2, 41, 58
6, 46720, Note_on_c, 2, 39, 48
6, 46752, Note_on_c, 2, 41, 0
6, 46768, Note_on_c, 2, 39, 0
6, 46848, Note_on_c, 2, 40, 68
6, 47184, Note_on_c, 2, 40, 0
6, 47232, Note_on_c, 2, 35, 56
6, 47560, Note_on_c, 2, 35, 0
6, 47616, Note_on_c, 2, 28, 68
6, 48000, Note_on_c, 2, 28, 0
6, 48000, Note_on_c, 2, 40, 64
6, 48384, Note_on_c, 2, 32, 52
6, 48400, Note_on_c, 2, 40, 0
6, 48704, Note_on_c, 2, 32, 0
6, 48768, Note_on_c, 2, 35, 57
6, 49112, Note_on_c, 2, 35, 0
6, 49152, Note_on_c, 2, 36, 51
6, 49536, Note_on_c, 2, 38, 52
6, 49544, Note_on_c, 2, 36, 0
6, 49792, Note_on_c, 2, 36, 46
6, 49816, Note_on_c, 2, 36, 0
6, 49904, Note_on_c, 2, 38, 0
6, 49920, Note_on_c, 2, 39, 47
6, 50264, Note_on_c, 2, 39, 0
6, 50304, Note_on_c, 2, 40, 61
6, 50656, Note_on_c, 2, 40, 0
6, 50688, Note_on_c, 2, 41, 46
6, 50824, Note_on_c, 2, 41, 0
6, 50944, Note_on_c, 2, 41, 50
6, 51008, Note_on_c, 2, 41, 0
6, 51072, Note_on_c, 2, 43, 56
6, 51392, Note_on_c, 2, 43, 0
6, 51456, Note_on_c, 2, 44, 49
6, 51456, Note_on_c, 2, 44, 0
6, 51584, Note_on_c, 2, 41, 36
6, 51584, Note_on_c, 2, 41, 0
6, 51712, Note_on_c, 2, 36, 68
6, 51720, Note_on_c, 2, 36, 0
6, 51840, Note_on_c, 2, 35, 44
6, 51840, Note_on_c, 2, 36, 49
6, 51856, Note_on_c, 2, 36, 0
6, 52192, Note_on_c, 2, 35, 0
6, 52224, Note_on_c, 2, 34, 45
6, 52608, Note_on_c, 2, 41, 43
6, 52656, Note_on_c, 2, 34, 0
6, 52992, Note_on_c, 2, 41, 0
6, 52992, Note_on_c, 2, 49, 64
6, 53248, Note_on_c, 2, 41, 53
6, 53312, Note_on_c, 2, 41, 0
6, 53352, Note_on_c, 2, 49, 0
6, 53376, Note_on_c, 2, 40, 49
6, 53744, Note_on_c, 2, 40, 0
6, 53760, Note_on_c, 2, 39, 46
6, 54144, Note_on_c, 2, 40, 41
6, 54152, Note_on_c, 2, 39, 0
6, 54528, Note_on_c, 2, 45, 64
6, 54536, Note_on_c, 2, 40, 0
6, 54888, Note_on_c, 2, 45, 0
6, 54912, Note_on_c, 2, 33, 48
6, 55208, Note_on_c, 2, 33, 0
6, 55296, Note_on_c, 2, 32, 48
6, 55664, Note_on_c, 2, 32, 0
6, 55680, Note_on_c, 2, 39, 40
6, 56064, Note_on_c, 2, 48, 79
6, 56112, Note_on_c, 2, 39, 0
6, 56320, Note_on_c, 2, 39, 54
6, 56328, Note_on_c, 2, 48, 0
6, 56440, Note_on_c, 2, 39, 0
6, 56448, Note_on_c, 2, 48, 74
6, 56640, Note_on_c, 2, 48, 0
6, 56704, Note_on_c, 2, 49, 83
6, 56904, Note_on_c, 2, 49, 0
6, 56960, Note_on_c, 2, 48, 31
6, 56976, Note_on_c, 2, 48, 0
6, 57088, Note_on_c, 2, 44, 59
6, 57120, Note_on_c, 2, 44, 0
6, 57216, Note_on_c, 2, 41, 46
6, 57856, Note_on_c, 2, 37, 39
6, 57864, Note_on_c, 2, 37, 0
6, 58240, Note_on_c, 2, 31, 60
6, 58248, Note_on_c, 2, 31, 0
6, 58288, Note_on_c, 2, 41, 0
6, 58368, Note_on_c, 2, 30, 54
6, 58752, Note_on_c, 2, 39, 46
6, 58976, Note_on_c, 2, 39, 0
6, 59120, Note_on_c, 2, 30, 0
6, 59136, Note_on_c, 2, 42, 47
6, 59392, Note_on_c, 2, 34, 42
6, 59408, Note_on_c, 2, 34, 0
6, 59424, Note_on_c, 2, 42, 0
6, 59520, Note_on_c, 2, 35, 36
6, 59856, Note_on_c, 2, 35, 0
6, 59904, Note_on_c, 2, 36, 49
6, 60288, Note_on_c, 2, 50, 57
6, 60352, Note_on_c, 2, 36, 0
6, 60632, Note_on_c, 2, 50, 0
6, 60672, Note_on_c, 2, 48, 60
6, 61008, Note_on_c, 2, 48, 0
6, 61056, Note_on_c, 2, 47, 54
6, 61392, Note_on_c, 2, 47, 0
6, 61440, Note_on_c, 2, 44, 43
6, 61792, Note_on_c, 2, 44, 0
6, 61824, Note_on_c, 2, 41, 40
6, 62208, Note_on_c, 2, 38, 50
6, 62224, Note_on_c, 2, 38, 0
6, 62464, Note_on_c, 2, 38, 40
6, 62488, Note_on_c, 2, 38, 0
6, 62504, Note_on_c, 2, 41, 0
6, 62592, Note_on_c, 2, 35, 30
6, 62920, Note_on_c, 2, 35, 0
6, 62976, Note_on_c, 2, 34, 48
6, 63360, Note_on_c, 2, 41, 48
6, 63400, Note_on_c, 2, 34, 0
6, 63688, Note_on_c, 2, 41, 0
6, 63744, Note_on_c, 2, 41, 50
6, 64128, Note_on_c, 2, 40, 49
6, 64136, Note_on_c, 2, 41, 0
6, 64464, Note_on_c, 2, 40, 0
6, 64512, Note_on_c, 2, 39, 39
6, 64592, Note_on_c, 2, 39, 0
6, 64768, Note_on_c, 2, 33, 80
6, 65536, Note_on_c, 2, 49, 69
6, 66032, Note_on_c, 2, 49, 0
6, 66032, Note_on_c, 2, 33, 0
6, 66048, Note_on_c, 2, 32, 62
6, 66304, Note_on_c, 2, 48, 66
6, 67200, Note_on_c, 2, 32, 0
6, 67328, Note_on_c, 2, 45, 44
6, 67344, Note_on_c, 2, 45, 0
6, 67456, Note_on_c, 2, 44, 48
6, 67488, Note_on_c, 2, 44, 0
6, 67504, Note_on_c, 2, 48, 0
6, 67584, Note_on_c, 2, 43, 14
6, 67840, Note_on_c, 2, 43, 0
6, 67840, Note_on_c, 2, 38, 54
6, 67888, Note_on_c, 2, 38, 0
6, 67968, Note_on_c, 2, 37, 38
6, 68304, Note_on_c, 2, 37, 0
6, 68352, Note_on_c, 2, 36, 41
6, 68584, Note_on_c, 2, 36, 0
6, 68608, Note_on_c, 2, 31, 54
6, 68616, Note_on_c, 2, 31, 0
6, 68736, Note_on_c, 2, 30, 57
6, 69096, Note_on_c, 2, 30, 0
6, 69120, Note_on_c, 2, 29, 53
6, 69504, Note_on_c, 2, 41, 49
6, 69544, Note_on_c, 2, 29, 0
6, 69888, Note_on_c, 2, 32, 49
6, 69904, Note_on_c, 2, 41, 0
6, 70248, Note_on_c, 2, 32, 0
6, 70272, Note_on_c, 2, 35, 46
6, 70624, Note_on_c, 2, 35, 0
6, 70656, Note_on_c, 2, 34, 52
6, 71040, Note_on_c, 2, 41, 75
6, 71048, Note_on_c, 2, 34, 0
6, 71392, Note_on_c, 2, 41, 0
6, 71424, Note_on_c, 2, 37, 53
6, 71464, Note_on_c, 2, 37, 0
6, 71680, Note_on_c, 2, 37, 47
6, 71720, Note_on_c, 2, 37, 0
6, 71808, Note_on_c, 2, 34, 37
6, 72168, Note_on_c, 2, 34, 0
6, 72192, Note_on_c, 2, 40, 45
6, 72560, Note_on_c, 2, 40, 0
6, 72576, Note_on_c, 2, 35, 47
6, 72928, Note_on_c, 2, 35, 0
6, 72960, Note_on_c, 2, 33, 51
6, 73328, Note_on_c, 2, 33, 0
6, 73344, Note_on_c, 2, 40, 49
6, 73680, Note_on_c, 2, 40, 0
6, 73728, Note_on_c, 2, 32, 56
6, 74112, Note_on_c, 2, 39, 47
6, 74128, Note_on_c, 2, 32, 0
6, 74496, Note_on_c, 2, 48, 70
6, 74504, Note_on_c, 2, 39, 0
6, 74880, Note_on_c, 2, 48, 0
6, 74880, Note_on_c, 2, 46, 47
6, 75136, Note_on_c, 2, 39, 32
6, 75160, Note_on_c, 2, 39, 0
6, 75248, Note_on_c, 2, 46, 0
6, 75264, Note_on_c, 2, 37, 52
6, 75648, Note_on_c, 2, 51, 69
6, 76024, Note_on_c, 2, 51, 0
6, 76032, Note_on_c, 2, 49, 51
6, 76080, Note_on_c, 2, 37, 0
6, 76360, Note_on_c, 2, 49, 0
6, 76416, Note_on_c, 2, 37, 34
6, 76416, Note_on_c, 2, 37, 0
6, 76416, Note_on_c, 2, 49, 61
6, 76760, Note_on_c, 2, 49, 0
6, 76800, Note_on_c, 2, 50, 64
6, 77056, Note_on_c, 2, 45, 51
6, 77096, Note_on_c, 2, 45, 0
6, 77184, Note_on_c, 2, 38, 43
6, 77192, Note_on_c, 2, 50, 0
6, 77400, Note_on_c, 2, 38, 0
6, 77440, Note_on_c, 2, 42, 56
6, 77496, Note_on_c, 2, 42, 0
6, 77568, Note_on_c, 2, 43, 66
6, 77608, Note_on_c, 2, 43, 0
6, 77696, Note_on_c, 2, 38, 65
6, 77712, Note_on_c, 2, 38, 0
6, 77824, Note_on_c, 2, 34, 59
6, 77880, Note_on_c, 2, 34, 0
6, 77952, Note_on_c, 2, 35, 63
6, 78160, Note_on_c, 2, 35, 0
6, 78208, Note_on_c, 2, 31, 53
6, 78224, Note_on_c, 2, 31, 0
6, 78336, Note_on_c, 2, 36, 49
6, 78688, Note_on_c, 2, 36, 0
6, 78720, Note_on_c, 2, 38, 55
6, 79056, Note_on_c, 2, 38, 0
6, 79104, Note_on_c, 2, 40, 37
6, 79344, Note_on_c, 2, 40, 0
6, 79360, Note_on_c, 2, 31, 54
6, 79392, Note_on_c, 2, 31, 0
6, 79488, Note_on_c, 2, 28, 59
6, 79848, Note_on_c, 2, 28, 0
6, 79872, Note_on_c, 2, 29, 44
6, 80256, Note_on_c, 2, 30, 57
6, 80264, Note_on_c, 2, 29, 0
6, 80616, Note_on_c, 2, 30, 0
6, 80640, Note_on_c, 2, 31, 52
6, 80896, Note_on_c, 2, 31, 0
6, 80896, Note_on_c, 2, 34, 46
6, 80968, Note_on_c, 2, 34, 0
6, 81024, Note_on_c, 2, 35, 56
6, 81384, Note_on_c, 2, 35, 0
6, 81408, Note_on_c, 2, 36, 46
6, 81664, Note_on_c, 2, 50, 96
6, 81760, Note_on_c, 2, 50, 0
6, 81768, Note_on_c, 2, 36, 0
6, 81792, Note_on_c, 2, 48, 52
6, 82144, Note_on_c, 2, 48, 0
6, 82176, Note_on_c, 2, 43, 53
6, 82432, Note_on_c, 2, 36, 42
6, 82472, Note_on_c, 2, 36, 0
6, 82488, Note_on_c, 2, 43, 0
6, 82560, Note_on_c, 2, 42, 46
6, 82816, Note_on_c, 2, 41, 62
6, 82856, Note_on_c, 2, 42, 0
6, 83072, Note_on_c, 2, 36, 45
6, 83096, Note_on_c, 2, 36, 0
6, 83200, Note_on_c, 2, 33, 62
6, 83208, Note_on_c, 2, 33, 0
6, 83208, Note_on_c, 2, 41, 0
6, 83328, Note_on_c, 2, 32, 63
6, 83680, Note_on_c, 2, 32, 0
6, 83712, Note_on_c, 2, 31, 50
6, 84072, Note_on_c, 2, 31, 0
6, 84096, Note_on_c, 2, 29, 56
6, 84456, Note_on_c, 2, 29, 0
6, 84480, Note_on_c, 2, 35, 43
6, 84864, Note_on_c, 2, 41, 54
6, 84880, Note_on_c, 2, 35, 0
6, 85120, Note_on_c, 2, 35, 32
6, 85144, Note_on_c, 2, 41, 0
6, 85216, Note_on_c, 2, 35, 0
6, 85248, Note_on_c, 2, 40, 44
6, 85632, Note_on_c, 2, 40, 0
6, 85632, Note_on_c, 2, 34, 50
6, 86008, Note_on_c, 2, 34, 0
6, 86016, Note_on_c, 2, 33, 50
6, 86392, Note_on_c, 2, 33, 0
6, 86400, Note_on_c, 2, 39, 48
6, 86784, Note_on_c, 2, 46, 71
6, 86800, Note_on_c, 2, 39, 0
6, 87040, Note_on_c, 2, 39, 39
6, 87064, Note_on_c, 2, 39, 0
6, 87168, Note_on_c, 2, 39, 54
6, 87208, Note_on_c, 2, 39, 0
6, 87424, Note_on_c, 2, 45, 58
6, 87504, Note_on_c, 2, 46, 0
6, 87512, Note_on_c, 2, 45, 0
6, 87552, Note_on_c, 2, 44, 51
6, 87808, Note_on_c, 2, 44, 0
6, 87808, Note_on_c, 2, 39, 46
6, 87848, Note_on_c, 2, 39, 0
6, 87936, Note_on_c, 2, 32, 51
6, 88320, Note_on_c, 2, 48, 58
6, 88576, Note_on_c, 2, 39, 39
6, 88584, Note_on_c, 2, 39, 0
6, 88616, Note_on_c, 2, 32, 0
6, 88672, Note_on_c, 2, 48, 0
6, 88704, Note_on_c, 2, 44, 36
6, 88944, Note_on_c, 2, 44, 0
6, 88960, Note_on_c, 2, 45, 64
6, 89200, Note_on_c, 2, 45, 0
6, 89216, Note_on_c, 2, 51, 55
6, 89288, Note_on_c, 2, 51, 0
6, 89344, Note_on_c, 2, 45, 57
6, 89368, Note_on_c, 2, 45, 0
6, 89472, Note_on_c, 2, 45, 66
6, 89496, Note_on_c, 2, 45, 0
6, 89728, Note_on_c, 2, 39, 58
6, 89792, Note_on_c, 2, 39, 0
6, 89856, Note_on_c, 2, 38, 55
6, 90112, Note_on_c, 2, 26, 62
6, 90184, Note_on_c, 2, 38, 0
6, 90192, Note_on_c, 2, 26, 0
6, 90240, Note_on_c, 2, 50, 70
6, 90496, Note_on_c, 2, 38, 43
6, 90528, Note_on_c, 2, 38, 0
6, 90872, Note_on_c, 2, 50, 0
6, 90880, Note_on_c, 2, 38, 83
6, 91392, Note_on_c, 2, 50, 84
6, 91592, Note_on_c, 2, 50, 0
6, 91648, Note_on_c, 2, 49, 46
6, 91688, Note_on_c, 2, 49, 0
6, 91776, Note_on_c, 2, 50, 60
6, 91800, Note_on_c, 2, 38, 0
6, 92016, Note_on_c, 2, 50, 0
6, 92032, Note_on_c, 2, 38, 84
6, 92032, Note_on_c, 2, 37, 32
6, 92112, Note_on_c, 2, 37, 0
6, 92544, Note_on_c, 2, 50, 75
6, 92776, Note_on_c, 2, 50, 0
6, 92800, Note_on_c, 2, 49, 42
6, 92856, Note_on_c, 2, 49, 0
6, 92888, Note_on_c, 2, 38, 0
6, 92928, Note_on_c, 2, 50, 62
6, 93152, Note_on_c, 2, 50, 0
6, 93184, Note_on_c, 2, 47, 74
6, 93232, Note_on_c, 2, 47, 0
6, 93312, Note_on_c, 2, 46, 54
6, 93408, Note_on_c, 2, 46, 0
6, 93568, Note_on_c, 2, 44, 46
6, 93608, Note_on_c, 2, 44, 0
6, 93696, Note_on_c, 2, 45, 53
6, 93864, Note_on_c, 2, 45, 0
6, 93952, Note_on_c, 2, 40, 36
6, 93976, Note_on_c, 2, 40, 0
6, 94080, Note_on_c, 2, 36, 55
6, 94432, Note_on_c, 2, 36, 0
6, 94464, Note_on_c, 2, 40, 48
6, 94832, Note_on_c, 2, 40, 0
6, 94848, Note_on_c, 2, 39, 46
6, 95208, Note_on_c, 2, 39, 0
6, 95232, Note_on_c, 2, 38, 36
6, 95488, Note_on_c, 2, 37, 25
6, 95544, Note_on_c, 2, 38, 0
6, 95592, Note_on_c, 2, 37, 0
6, 95616, Note_on_c, 2, 50, 73
6, 95968, Note_on_c, 2, 50, 0
6, 96000, Note_on_c, 2, 45, 46
6, 96224, Note_on_c, 2, 45, 0
6, 96256, Note_on_c, 2, 42, 30
6, 96296, Note_on_c, 2, 42, 0
6, 96384, Note_on_c, 2, 50, 72
6, 96784, Note_on_c, 2, 50, 0
6, 96896, Note_on_c, 2, 42, 51
6, 96928, Note_on_c, 2, 42, 0
6, 97024, Note_on_c, 2, 43, 70
6, 97064, Note_on_c, 2, 43, 0
6, 97408, Note_on_c, 2, 37, 61
6, 97408, Note_on_c, 2, 37, 0
6, 97536, Note_on_c, 2, 34, 60
6, 97792, Note_on_c, 2, 35, 54
6, 97800, Note_on_c, 2, 34, 0
6, 97872, Note_on_c, 2, 35, 0
6, 97920, Note_on_c, 2, 30, 47
6, 98256, Note_on_c, 2, 30, 0
6, 98304, Note_on_c, 2, 31, 49
6, 98640, Note_on_c, 2, 31, 0
6, 98688, Note_on_c, 2, 35, 46
6, 99072, Note_on_c, 2, 45, 68
6, 99080, Note_on_c, 2, 35, 0
6, 99328, Note_on_c, 2, 35, 45
6, 99344, Note_on_c, 2, 35, 0
6, 99376, Note_on_c, 2, 45, 0
6, 99456, Note_on_c, 2, 43, 46
6, 99760, Note_on_c, 2, 43, 0
6, 99840, Note_on_c, 2, 42, 39
6, 100200, Note_on_c, 2, 42, 0
6, 100224, Note_on_c, 2, 40, 44
6, 100584, Note_on_c, 2, 40, 0
6, 100608, Note_on_c, 2, 38, 40
6, 100968, Note_on_c, 2, 38, 0
6, 100992, Note_on_c, 2, 36, 54
6, 101352, Note_on_c, 2, 36, 0
6, 101376, Note_on_c, 2, 35, 54
6, 101760, Note_on_c, 2, 42, 47
6, 102144, Note_on_c, 2, 48, 80
6, 102160, Note_on_c, 2, 42, 0
6, 102480, Note_on_c, 2, 48, 0
6, 102528, Note_on_c, 2, 47, 50
6, 102624, Note_on_c, 2, 35, 0
6, 102880, Note_on_c, 2, 47, 0
6, 102912, Note_on_c, 2, 35, 54
6, 103296, Note_on_c, 2, 47, 82
6, 103632, Note_on_c, 2, 47, 0
6, 103680, Note_on_c, 2, 44, 59
6, 103864, Note_on_c, 2, 35, 0
6, 104064, Note_on_c, 2, 37, 38
6, 104400, Note_on_c, 2, 37, 0
6, 104440, Note_on_c, 2, 44, 0
6, 104448, Note_on_c, 2, 36, 53
6, 104832, Note_on_c, 2, 52, 87
6, 105168, Note_on_c, 2, 52, 0
6, 105168, Note_on_c, 2, 36, 0
6, 105216, Note_on_c, 2, 48, 58
6, 105472, Note_on_c, 2, 43, 48
6, 105528, Note_on_c, 2, 43, 0
6, 105536, Note_on_c, 2, 48, 0
6, 105600, Note_on_c, 2, 42, 50
6, 105968, Note_on_c, 2, 42, 0
6, 105984, Note_on_c, 2, 41, 46
6, 106240, Note_on_c, 2, 53, 87
6, 106336, Note_on_c, 2, 53, 0
6, 106368, Note_on_c, 2, 48, 55
6, 106496, Note_on_c, 2, 50, 31
6, 106536, Note_on_c, 2, 50, 0
6, 106624, Note_on_c, 2, 39, 18
6, 106712, Note_on_c, 2, 41, 0
6, 106728, Note_on_c, 2, 39, 0
6, 106728, Note_on_c, 2, 48, 0
6, 106752, Note_on_c, 2, 44, 48
6, 107032, Note_on_c, 2, 44, 0
6, 107136, Note_on_c, 2, 45, 54
6, 107504, Note_on_c, 2, 45, 0
6, 107520, Note_on_c, 2, 46, 56
6, 107776, Note_on_c, 2, 41, 40
6, 107816, Note_on_c, 2, 41, 0
6, 107904, Note_on_c, 2, 37, 36
6, 108232, Note_on_c, 2, 37, 0
6, 108288, Note_on_c, 2, 34, 38
6, 108624, Note_on_c, 2, 34, 0
6, 108672, Note_on_c, 2, 33, 58
6, 108880, Note_on_c, 2, 33, 0
6, 108928, Note_on_c, 2, 34, 40
6, 109008, Note_on_c, 2, 34, 0
6, 109056, Note_on_c, 2, 40, 51
6, 109408, Note_on_c, 2, 40, 0
6, 109440, Note_on_c, 2, 34, 51
6, 109672, Note_on_c, 2, 46, 0
6, 109824, Note_on_c, 2, 33, 57
6, 109832, Note_on_c, 2, 34, 0
6, 110208, Note_on_c, 2, 39, 60
6, 110248, Note_on_c, 2, 39, 0
6, 110248, Note_on_c, 2, 33, 0
6, 110336, Note_on_c, 2, 39, 25
6, 110376, Note_on_c, 2, 39, 0
6, 110464, Note_on_c, 2, 33, 44
6, 110512, Note_on_c, 2, 33, 0
6, 110592, Note_on_c, 2, 32, 57
6, 110976, Note_on_c, 2, 39, 46
6, 111360, Note_on_c, 2, 48, 87
6, 111408, Note_on_c, 2, 39, 0
6, 111616, Note_on_c, 2, 39, 34
6, 111648, Note_on_c, 2, 48, 0
6, 111720, Note_on_c, 2, 39, 0
6, 111744, Note_on_c, 2, 48, 69
6, 111960, Note_on_c, 2, 32, 0
6, 112072, Note_on_c, 2, 48, 0
6, 112128, Note_on_c, 2, 49, 59
6, 112512, Note_on_c, 2, 36, 43
6, 112880, Note_on_c, 2, 36, 0
6, 112880, Note_on_c, 2, 49, 0
6, 112896, Note_on_c, 2, 37, 42
6, 113280, Note_on_c, 2, 49, 57
6, 113312, Note_on_c, 2, 37, 0
6, 113536, Note_on_c, 2, 37, 27
6, 113576, Note_on_c, 2, 37, 0
6, 113664, Note_on_c, 2, 42, 44
6, 113720, Note_on_c, 2, 49, 0
6, 114032, Note_on_c, 2, 42, 0
6, 114048, Note_on_c, 2, 46, 47
6, 114304, Note_on_c, 2, 37, 18
6, 114432, Note_on_c, 2, 37, 0
6, 114432, Note_on_c, 2, 48, 40
6, 114440, Note_on_c, 2, 46, 0
6, 114784, Note_on_c, 2, 48, 0
6, 114816, Note_on_c, 2, 47, 44
6, 115184, Note_on_c, 2, 47, 0
6, 115200, Note_on_c, 2, 48, 57
6, 115456, Note_on_c, 2, 43, 39
6, 115488, Note_on_c, 2, 43, 0
6, 115584, Note_on_c, 2, 39, 45
6, 115952, Note_on_c, 2, 39, 0
6, 115952, Note_on_c, 2, 48, 0
6, 115968, Note_on_c, 2, 36, 55
6, 116352, Note_on_c, 2, 48, 70
6, 116392, Note_on_c, 2, 36, 0
6, 116712, Note_on_c, 2, 48, 0
6, 116736, Note_on_c, 2, 47, 53
6, 116992, Note_on_c, 2, 41, 55
6, 117024, Note_on_c, 2, 41, 0
6, 117056, Note_on_c, 2, 47, 0
6, 117120, Note_on_c, 2, 38, 43
6, 117480, Note_on_c, 2, 38, 0
6, 117504, Note_on_c, 2, 41, 60
6, 117760, Note_on_c, 2, 38, 25
6, 117856, Note_on_c, 2, 38, 0
6, 117864, Note_on_c, 2, 41, 0
6, 117888, Note_on_c, 2, 44, 55
6, 118144, Note_on_c, 2, 38, 27
6, 118208, Note_on_c, 2, 38, 0
6, 118224, Note_on_c, 2, 44, 0
6, 118272, Note_on_c, 2, 46, 50
6, 118528, Note_on_c, 2, 41, 77
6, 118600, Note_on_c, 2, 41, 0
6, 118912, Note_on_c, 2, 37, 29
6, 118944, Note_on_c, 2, 37, 0
6, 119040, Note_on_c, 2, 41, 62
6, 119224, Note_on_c, 2, 41, 0
6, 119296, Note_on_c, 2, 37, 40
6, 119304, Note_on_c, 2, 37, 0
6, 119424, Note_on_c, 2, 38, 58
6, 119480, Note_on_c, 2, 38, 0
6, 119680, Note_on_c, 2, 38, 60
6, 119720, Note_on_c, 2, 38, 0
6, 119728, Note_on_c, 2, 46, 0
6, 119808, Note_on_c, 2, 39, 55
6, 120144, Note_on_c, 2, 39, 0
6, 120192, Note_on_c, 2, 37, 46
6, 120560, Note_on_c, 2, 37, 0
6, 120576, Note_on_c, 2, 36, 64
6, 120776, Note_on_c, 2, 36, 0
6, 120832, Note_on_c, 2, 36, 62
6, 120904, Note_on_c, 2, 36, 0
6, 120960, Note_on_c, 2, 34, 51
6, 121336, Note_on_c, 2, 34, 0
6, 121344, Note_on_c, 2, 32, 59
6, 121728, Note_on_c, 2, 31, 63
6, 121768, Note_on_c, 2, 32, 0
6, 122088, Note_on_c, 2, 31, 0
6, 122112, Note_on_c, 2, 30, 49
6, 122496, Note_on_c, 2, 34, 69
6, 122512, Note_on_c, 2, 30, 0
6, 122752, Note_on_c, 2, 42, 69
6, 122800, Note_on_c, 2, 34, 0
6, 122840, Note_on_c, 2, 42, 0
6, 122880, Note_on_c, 2, 43, 62
6, 123208, Note_on_c, 2, 43, 0
6, 123264, Note_on_c, 2, 37, 49
6, 123584, Note_on_c, 2, 37, 0
6, 123648, Note_on_c, 2, 36, 53
6, 123904, Note_on_c, 2, 43, 91
6, 123928, Note_on_c, 2, 36, 0
6, 123992, Note_on_c, 2, 43, 0
6, 124032, Note_on_c, 2, 42, 51
6, 124288, Note_on_c, 2, 36, 53
6, 124312, Note_on_c, 2, 36, 0
6, 124320, Note_on_c, 2, 42, 0
6, 124416, Note_on_c, 2, 41, 58
6, 124456, Note_on_c, 2, 41, 0
6, 124672, Note_on_c, 2, 36, 54
6, 124720, Note_on_c, 2, 36, 0
6, 124800, Note_on_c, 2, 34, 50
6, 125160, Note_on_c, 2, 34, 0
6, 125184, Note_on_c, 2, 35, 50
6, 125552, Note_on_c, 2, 35, 0
6, 125568, Note_on_c, 2, 36, 50
6, 125824, Note_on_c, 2, 34, 29
6, 125872, Note_on_c, 2, 36, 0
6, 125928, Note_on_c, 2, 34, 0
6, 125952, Note_on_c, 2, 46, 47
6, 126208, Note_on_c, 2, 36, 26
6, 126256, Note_on_c, 2, 36, 0
6, 126336, Note_on_c, 2, 41, 33
6, 126616, Note_on_c, 2, 46, 0
6, 126680, Note_on_c, 2, 41, 0
6, 126720, Note_on_c, 2, 44, 45
6, 127104, Note_on_c, 2, 39, 48
6, 127120, Note_on_c, 2, 44, 0
6, 127360, Note_on_c, 2, 37, 18
6, 127440, Note_on_c, 2, 37, 0
6, 127440, Note_on_c, 2, 39, 0
6, 127488, Note_on_c, 2, 40, 40
6, 127744, Note_on_c, 2, 38, 32
6, 127840, Note_on_c, 2, 38, 0
6, 127848, Note_on_c, 2, 40, 0
6, 127872, Note_on_c, 2, 46, 50
6, 128256, Note_on_c, 2, 45, 48
6, 128640, Note_on_c, 2, 33, 60
6, 128968, Note_on_c, 2, 45, 0
6, 129008, Note_on_c, 2, 33, 0
6, 129024, Note_on_c, 2, 32, 49
6, 129032, Note_on_c, 2, 46, 0
6, 129408, Note_on_c, 2, 48, 71
6, 129784, Note_on_c, 2, 32, 0
6, 129792, Note_on_c, 2, 46, 49
6, 129800, Note_on_c, 2, 48, 0
6, 130048, Note_on_c, 2, 39, 38
6, 130064, Note_on_c, 2, 39, 0
6, 130176, Note_on_c, 2, 38, 53
6, 130488, Note_on_c, 2, 46, 0
6, 130504, Note_on_c, 2, 38, 0
6, 130560, Note_on_c, 2, 37, 47
6, 130944, Note_on_c, 2, 44, 51
6, 131024, Note_on_c, 2, 37, 0
6, 131288, Note_on_c, 2, 44, 0
6, 131328, Note_on_c, 2, 51, 47
6, 131696, Note_on_c, 2, 51, 0
6, 131712, Note_on_c, 2, 49, 55
6, 132056, Note_on_c, 2, 49, 0
6, 132096, Note_on_c, 2, 50, 51
6, 132352, Note_on_c, 2, 45, 50
6, 132432, Note_on_c, 2, 45, 0
6, 132440, Note_on_c, 2, 50, 0
6, 132480, Note_on_c, 2, 44, 36
6, 132840, Note_on_c, 2, 44, 0
6, 132864, Note_on_c, 2, 43, 38
6, 132928, Note_on_c, 2, 43, 0
6, 132992, Note_on_c, 2, 50, 60
6, 133048, Note_on_c, 2, 50, 0
6, 133120, Note_on_c, 2, 46, 67
6, 133152, Note_on_c, 2, 46, 0
6, 133248, Note_on_c, 2, 47, 72
6, 133304, Note_on_c, 2, 47, 0
6, 133376, Note_on_c, 2, 43, 66
6, 133376, Note_on_c, 2, 43, 0
6, 133504, Note_on_c, 2, 38, 66
6, 133520, Note_on_c, 2, 38, 0
6, 133632, Note_on_c, 2, 36, 76
6, 133976, Note_on_c, 2, 36, 0
6, 134016, Note_on_c, 2, 38, 55
6, 134384, Note_on_c, 2, 38, 0
6, 134400, Note_on_c, 2, 40, 44
6, 134656, Note_on_c, 2, 48, 77
6, 134776, Note_on_c, 2, 48, 0
6, 134784, Note_on_c, 2, 47, 44
6, 134792, Note_on_c, 2, 40, 0
6, 135040, Note_on_c, 2, 38, 22
6, 135096, Note_on_c, 2, 38, 0
6, 135104, Note_on_c, 2, 47, 0
6, 135168, Note_on_c, 2, 43, 56
6, 135512, Note_on_c, 2, 43, 0
6, 135552, Note_on_c, 2, 40, 36
6, 135936, Note_on_c, 2, 38, 34
6, 135968, Note_on_c, 2, 38, 0
6, 136192, Note_on_c, 2, 34, 59
6, 136224, Note_on_c, 2, 40, 0
6, 136264, Note_on_c, 2, 34, 0
6, 136320, Note_on_c, 2, 35, 29
6, 136640, Note_on_c, 2, 35, 0
6, 136704, Note_on_c, 2, 36, 36
6, 136944, Note_on_c, 2, 36, 0
6, 136960, Note_on_c, 2, 50, 79
6, 136992, Note_on_c, 2, 50, 0
6, 137088, Note_on_c, 2, 48, 53
6, 137176, Note_on_c, 2, 48, 0
6, 137344, Note_on_c, 2, 35, 48
6, 137344, Note_on_c, 2, 36, 34
6, 137368, Note_on_c, 2, 36, 0
6, 137416, Note_on_c, 2, 35, 0
6, 137472, Note_on_c, 2, 36, 38
6, 137728, Note_on_c, 2, 48, 91
6, 137752, Note_on_c, 2, 36, 0
6, 137816, Note_on_c, 2, 48, 0
6, 137856, Note_on_c, 2, 42, 37
6, 138072, Note_on_c, 2, 42, 0
6, 138112, Note_on_c, 2, 34, 46
6, 138128, Note_on_c, 2, 34, 0
6, 138240, Note_on_c, 2, 41, 56
6, 138248, Note_on_c, 2, 41, 0
6, 138368, Note_on_c, 2, 36, 57
6, 138368, Note_on_c, 2, 36, 0
6, 138496, Note_on_c, 2, 32, 61
6, 138520, Note_on_c, 2, 32, 0
6, 138624, Note_on_c, 2, 32, 55
6, 138912, Note_on_c, 2, 32, 0
6, 139008, Note_on_c, 2, 31, 40
6, 139008, Note_on_c, 2, 29, 33
6, 139016, Note_on_c, 2, 29, 0
6, 139368, Note_on_c, 2, 31, 0
6, 139392, Note_on_c, 2, 29, 41
6, 139760, Note_on_c, 2, 29, 0
6, 139776, Note_on_c, 2, 34, 68
6, 139776, Note_on_c, 2, 34, 0
6, 139776, Note_on_c, 2, 35, 64
6, 140144, Note_on_c, 2, 35, 0
6, 140160, Note_on_c, 2, 39, 74
6, 140496, Note_on_c, 2, 39, 0
6, 140544, Note_on_c, 2, 40, 46
6, 140880, Note_on_c, 2, 40, 0
6, 140928, Note_on_c, 2, 33, 44
6, 141280, Note_on_c, 2, 33, 0
6, 141312, Note_on_c, 2, 39, 48
6, 141696, Note_on_c, 2, 39, 0
6, 141696, Note_on_c, 2, 34, 45
6, 142080, Note_on_c, 2, 43, 39
6, 142136, Note_on_c, 2, 34, 0
6, 142448, Note_on_c, 2, 43, 0
6, 142464, Note_on_c, 2, 39, 44
6, 142824, Note_on_c, 2, 39, 0
6, 142848, Note_on_c, 2, 32, 55
6, 143232, Note_on_c, 2, 39, 47
6, 143256, Note_on_c, 2, 32, 0
6, 143616, Note_on_c, 2, 48, 74
6, 143648, Note_on_c, 2, 39, 0
6, 143872, Note_on_c, 2, 44, 48
6, 143872, Note_on_c, 2, 44, 0
6, 144000, Note_on_c, 2, 44, 64
6, 144328, Note_on_c, 2, 44, 0
6, 144384, Note_on_c, 2, 45, 55
6, 144400, Note_on_c, 2, 48, 0
6, 144640, Note_on_c, 2, 45, 0
6, 144640, Note_on_c, 2, 40, 32
6, 144672, Note_on_c, 2, 40, 0
6, 144768, Note_on_c, 2, 39, 54
6, 145144, Note_on_c, 2, 39, 0
6, 145152, Note_on_c, 2, 38, 52
6, 145536, Note_on_c, 2, 50, 67
6, 145584, Note_on_c, 2, 38, 0
6, 145792, Note_on_c, 2, 38, 24
6, 145864, Note_on_c, 2, 38, 0
6, 145920, Note_on_c, 2, 47, 55
6, 145928, Note_on_c, 2, 50, 0
6, 146296, Note_on_c, 2, 47, 0
6, 146304, Note_on_c, 2, 43, 53
6, 146656, Note_on_c, 2, 43, 0
6, 146688, Note_on_c, 2, 38, 52
6, 147024, Note_on_c, 2, 38, 0
6, 147072, Note_on_c, 2, 36, 57
6, 147440, Note_on_c, 2, 36, 0
6, 147456, Note_on_c, 2, 35, 56
6, 147824, Note_on_c, 2, 35, 0
6, 147840, Note_on_c, 2, 33, 56
6, 148176, Note_on_c, 2, 33, 0
6, 148224, Note_on_c, 2, 31, 38
6, 148352, Note_on_c, 2, 31, 0
6, 148480, Note_on_c, 2, 31, 53
6, 148552, Note_on_c, 2, 31, 0
6, 148608, Note_on_c, 2, 32, 58
6, 148944, Note_on_c, 2, 32, 0
6, 148992, Note_on_c, 2, 33, 55
6, 149248, Note_on_c, 2, 50, 94
6, 149336, Note_on_c, 2, 50, 0
6, 149376, Note_on_c, 2, 49, 48
6, 149720, Note_on_c, 2, 49, 0
6, 149760, Note_on_c, 2, 50, 54
6, 149768, Note_on_c, 2, 33, 0
6, 150144, Note_on_c, 2, 33, 59
6, 150176, Note_on_c, 2, 50, 0
6, 150512, Note_on_c, 2, 33, 0
6, 150528, Note_on_c, 2, 50, 80
6, 150880, Note_on_c, 2, 50, 0
6, 150912, Note_on_c, 2, 38, 63
6, 151296, Note_on_c, 2, 50, 80
6, 151360, Note_on_c, 2, 38, 0
6, 151528, Note_on_c, 2, 50, 0
6, 151552, Note_on_c, 2, 49, 36
6, 151624, Note_on_c, 2, 49, 0
6, 151680, Note_on_c, 2, 50, 68
6, 151912, Note_on_c, 2, 50, 0
6, 151936, Note_on_c, 2, 49, 34
6, 152008, Note_on_c, 2, 49, 0
6, 152064, Note_on_c, 2, 50, 60
6, 152392, Note_on_c, 2, 50, 0
6, 152448, Note_on_c, 2, 38, 61
6, 153088, Note_on_c, 2, 50, 94
6, 153152, Note_on_c, 2, 50, 0
6, 153344, Note_on_c, 2, 50, 67
6, 153432, Note_on_c, 2, 50, 0
6, 153472, Note_on_c, 2, 49, 54
6, 153528, Note_on_c, 2, 49, 0
6, 153600, Note_on_c, 2, 50, 76
6, 153696, Note_on_c, 2, 50, 0
6, 153856, Note_on_c, 2, 46, 71
6, 153896, Note_on_c, 2, 46, 0
6, 153984, Note_on_c, 2, 47, 58
6, 153992, Note_on_c, 2, 47, 0
6, 154240, Note_on_c, 2, 42, 69
6, 154288, Note_on_c, 2, 42, 0
6, 154368, Note_on_c, 2, 43, 49
6, 154392, Note_on_c, 2, 38, 0
6, 154624, Note_on_c, 2, 39, 40
6, 154648, Note_on_c, 2, 39, 0
6, 154752, Note_on_c, 2, 40, 47
6, 154784, Note_on_c, 2, 40, 0
6, 155008, Note_on_c, 2, 35, 51
6, 155024, Note_on_c, 2, 35, 0
6, 155136, Note_on_c, 2, 42, 69
6, 155144, Note_on_c, 2, 43, 0
6, 155512, Note_on_c, 2, 42, 0
6, 155520, Note_on_c, 2, 40, 46
6, 155888, Note_on_c, 2, 40, 0
6, 155904, Note_on_c, 2, 36, 57
6, 156176, Note_on_c, 2, 36, 0
6, 156288, Note_on_c, 2, 34, 46
6, 156648, Note_on_c, 2, 34, 0
6, 156672, Note_on_c, 2, 35, 44
6, 157056, Note_on_c, 2, 48, 46
6, 157056, Note_on_c, 2, 47, 45
6, 157152, Note_on_c, 2, 47, 0
6, 157392, Note_on_c, 2, 48, 0
6, 157440, Note_on_c, 2, 47, 57
6, 157448, Note_on_c, 2, 35, 0
6, 157824, Note_on_c, 2, 35, 54
6, 157848, Note_on_c, 2, 47, 0
6, 158208, Note_on_c, 2, 40, 52
6, 158216, Note_on_c, 2, 35, 0
6, 158592, Note_on_c, 2, 47, 77
6, 158920, Note_on_c, 2, 47, 0
6, 158968, Note_on_c, 2, 40, 0
6, 158976, Note_on_c, 2, 44, 46
6, 159232, Note_on_c, 2, 40, 45
6, 159248, Note_on_c, 2, 40, 0
6, 159336, Note_on_c, 2, 44, 0
6, 159360, Note_on_c, 2, 40, 36
6, 159600, Note_on_c, 2, 40, 0
6, 159616, Note_on_c, 2, 37, 61
6, 159688, Note_on_c, 2, 37, 0
6, 159744, Note_on_c, 2, 36, 51
6, 160128, Note_on_c, 2, 48, 60
6, 160192, Note_on_c, 2, 36, 0
6, 160464, Note_on_c, 2, 48, 0
6, 160512, Note_on_c, 2, 46, 49
6, 160856, Note_on_c, 2, 46, 0
6, 160896, Note_on_c, 2, 44, 30
6, 161096, Note_on_c, 2, 44, 0
6, 161152, Note_on_c, 2, 43, 49
6, 161216, Note_on_c, 2, 43, 0
6, 161280, Note_on_c, 2, 44, 34
6, 161536, Note_on_c, 2, 41, 68
6, 161544, Note_on_c, 2, 44, 0
6, 161576, Note_on_c, 2, 41, 0
6, 161664, Note_on_c, 2, 41, 62
6, 162040, Note_on_c, 2, 41, 0
6, 162048, Note_on_c, 2, 36, 47
6, 162384, Note_on_c, 2, 36, 0
6, 162432, Note_on_c, 2, 33, 51
6, 162816, Note_on_c, 2, 33, 0
6, 162816, Note_on_c, 2, 34, 53
6, 163200, Note_on_c, 2, 36, 57
6, 163208, Note_on_c, 2, 34, 0
6, 163584, Note_on_c, 2, 37, 37
6, 163632, Note_on_c, 2, 36, 0
6, 163968, Note_on_c, 2, 39, 42
6, 163976, Note_on_c, 2, 37, 0
6, 164312, Note_on_c, 2, 39, 0
6, 164352, Note_on_c, 2, 40, 45
6, 164720, Note_on_c, 2, 40, 0
6, 164736, Note_on_c, 2, 46, 67
6, 165096, Note_on_c, 2, 46, 0
6, 165120, Note_on_c, 2, 45, 40
6, 165344, Note_on_c, 2, 45, 0
6, 165376, Note_on_c, 2, 52, 65
6, 165424, Note_on_c, 2, 52, 0
6, 165504, Note_on_c, 2, 46, 50
6, 165584, Note_on_c, 2, 46, 0
6, 165760, Note_on_c, 2, 45, 67
6, 165776, Note_on_c, 2, 45, 0
6, 165888, Note_on_c, 2, 44, 63
6, 165896, Note_on_c, 2, 44, 0
6, 166144, Note_on_c, 2, 39, 57
6, 166200, Note_on_c, 2, 39, 0
6, 166272, Note_on_c, 2, 36, 55
6, 166608, Note_on_c, 2, 36, 0
6, 166656, Note_on_c, 2, 34, 36
6, 166952, Note_on_c, 2, 34, 0
6, 167040, Note_on_c, 2, 33, 44
6, 167104, Note_on_c, 2, 33, 0
6, 167296, Note_on_c, 2, 36, 65
6, 167336, Note_on_c, 2, 36, 0
6, 167424, Note_on_c, 2, 37, 57
6, 167624, Note_on_c, 2, 37, 0
6, 167680, Note_on_c, 2, 37, 60
6, 167696, Note_on_c, 2, 37, 0
6, 167808, Note_on_c, 2, 44, 47
6, 168120, Note_on_c, 2, 44, 0
6, 168192, Note_on_c, 2, 51, 56
6, 168448, Note_on_c, 2, 51, 0
6, 168448, Note_on_c, 2, 48, 64
6, 168520, Note_on_c, 2, 48, 0
6, 168576, Note_on_c, 2, 44, 51
6, 168600, Note_on_c, 2, 44, 0
6, 168832, Note_on_c, 2, 43, 66
6, 168904, Note_on_c, 2, 43, 0
6, 168960, Note_on_c, 2, 42, 46
6, 168976, Note_on_c, 2, 42, 0
6, 169088, Note_on_c, 2, 37, 26
6, 169112, Note_on_c, 2, 37, 0
6, 169344, Note_on_c, 2, 30, 69
6, 169600, Note_on_c, 2, 37, 26
6, 169680, Note_on_c, 2, 37, 0
6, 169696, Note_on_c, 2, 30, 0
6, 169728, Note_on_c, 2, 42, 61
6, 169984, Note_on_c, 2, 34, 38
6, 170048, Note_on_c, 2, 34, 0
6, 170072, Note_on_c, 2, 42, 0
6, 170112, Note_on_c, 2, 35, 46
6, 170472, Note_on_c, 2, 35, 0
6, 170496, Note_on_c, 2, 36, 41
6, 170752, Note_on_c, 2, 50, 89
6, 170824, Note_on_c, 2, 50, 0
6, 170880, Note_on_c, 2, 46, 43
6, 170944, Note_on_c, 2, 36, 0
6, 171136, Note_on_c, 2, 34, 36
6, 171184, Note_on_c, 2, 46, 0
6, 171208, Note_on_c, 2, 34, 0
6, 171264, Note_on_c, 2, 43, 44
6, 171632, Note_on_c, 2, 43, 0
6, 171648, Note_on_c, 2, 39, 33
6, 171688, Note_on_c, 2, 39, 0
6, 171776, Note_on_c, 2, 38, 37
6, 171808, Note_on_c, 2, 38, 0
6, 171904, Note_on_c, 2, 36, 71
6, 171952, Note_on_c, 2, 36, 0
6, 172032, Note_on_c, 2, 35, 60
6, 172392, Note_on_c, 2, 35, 0
6, 172416, Note_on_c, 2, 38, 42
6, 172768, Note_on_c, 2, 38, 0
6, 172800, Note_on_c, 2, 41, 47
6, 173008, Note_on_c, 2, 41, 0
6, 173056, Note_on_c, 2, 44, 46
6, 173080, Note_on_c, 2, 44, 0
6, 173184, Note_on_c, 2, 33, 74
6, 173536, Note_on_c, 2, 33, 0
6, 173568, Note_on_c, 2, 34, 44
6, 173952, Note_on_c, 2, 34, 0
6, 173952, Note_on_c, 2, 41, 49
6, 174208, Note_on_c, 2, 34, 31
6, 174272, Note_on_c, 2, 34, 0
6, 174336, Note_on_c, 2, 49, 60
6, 174352, Note_on_c, 2, 41, 0
6, 174632, Note_on_c, 2, 49, 0
6, 174720, Note_on_c, 2, 50, 65
6, 175056, Note_on_c, 2, 50, 0
6, 175104, Note_on_c, 2, 51, 56
6, 175360, Note_on_c, 2, 39, 68
6, 175416, Note_on_c, 2, 39, 0
6, 175488, Note_on_c, 2, 38, 32
6, 175720, Note_on_c, 2, 38, 0
6, 175744, Note_on_c, 2, 39, 75
6, 175808, Note_on_c, 2, 51, 0
6, 176128, Note_on_c, 2, 51, 68
6, 176200, Note_on_c, 2, 51, 0
6, 176256, Note_on_c, 2, 50, 34
6, 176472, Note_on_c, 2, 50, 0
6, 176512, Note_on_c, 2, 51, 74
6, 176632, Note_on_c, 2, 39, 0
6, 176896, Note_on_c, 2, 39, 62
6, 176928, Note_on_c, 2, 39, 0
6, 177024, Note_on_c, 2, 38, 53
6, 177216, Note_on_c, 2, 38, 0
6, 177224, Note_on_c, 2, 51, 0
6, 177280, Note_on_c, 2, 39, 79
6, 177664, Note_on_c, 2, 51, 82
6, 177736, Note_on_c, 2, 51, 0
6, 177752, Note_on_c, 2, 39, 0
6, 177792, Note_on_c, 2, 50, 54
6, 177792, Note_on_c, 2, 50, 0
6, 177920, Note_on_c, 2, 45, 38
6, 177936, Note_on_c, 2, 45, 0
6, 178048, Note_on_c, 2, 44, 60
6, 178096, Note_on_c, 2, 44, 0
6, 178176, Note_on_c, 2, 43, 36
6, 178376, Note_on_c, 2, 43, 0
6, 178432, Note_on_c, 2, 38, 55
6, 178432, Note_on_c, 2, 38, 0
6, 178560, Note_on_c, 2, 35, 56
6, 178888, Note_on_c, 2, 35, 0
6, 178944, Note_on_c, 2, 36, 50
6, 179200, Note_on_c, 2, 34, 31
6, 179240, Note_on_c, 2, 36, 0
6, 179256, Note_on_c, 2, 34, 0
6, 179328, Note_on_c, 2, 44, 57
6, 179512, Note_on_c, 2, 44, 0
6, 179584, Note_on_c, 2, 43, 48
6, 179616, Note_on_c, 2, 43, 0
6, 179968, Note_on_c, 2, 36, 53
6, 179968, Note_on_c, 2, 38, 37
6, 179992, Note_on_c, 2, 38, 0
6, 180032, Note_on_c, 2, 36, 0
6, 180096, Note_on_c, 2, 36, 45
6, 180096, Note_on_c, 2, 34, 59
6, 180120, Note_on_c, 2, 36, 0
6, 180440, Note_on_c, 2, 34, 0
6, 180480, Note_on_c, 2, 32, 57
6, 180800, Note_on_c, 2, 32, 0
6, 180864, Note_on_c, 2, 33, 51
6, 181208, Note_on_c, 2, 33, 0
6, 181248, Note_on_c, 2, 34, 45
6, 181632, Note_on_c, 2, 41, 49
6, 181656, Note_on_c, 2, 34, 0
6, 182016, Note_on_c, 2, 49, 50
6, 182072, Note_on_c, 2, 41, 0
6, 182272, Note_on_c, 2, 41, 51
6, 182296, Note_on_c, 2, 41, 0
6, 182400, Note_on_c, 2, 39, 59
6, 182712, Note_on_c, 2, 49, 0
6, 182768, Note_on_c, 2, 39, 0
6, 182784, Note_on_c, 2, 40, 53
6, 183040, Note_on_c, 2, 47, 68
6, 183128, Note_on_c, 2, 47, 0
6, 183144, Note_on_c, 2, 40, 0
6, 183168, Note_on_c, 2, 46, 49
6, 183424, Note_on_c, 2, 39, 39
6, 183456, Note_on_c, 2, 39, 0
6, 183512, Note_on_c, 2, 46, 0
6, 183552, Note_on_c, 2, 45, 53
6, 183808, Note_on_c, 2, 40, 55
6, 183856, Note_on_c, 2, 40, 0
6, 183936, Note_on_c, 2, 33, 57
6, 184232, Note_on_c, 2, 33, 0
6, 184312, Note_on_c, 2, 45, 0
6, 184320, Note_on_c, 2, 32, 59
6, 184704, Note_on_c, 2, 39, 46
6, 185088, Note_on_c, 2, 48, 60
6, 185128, Note_on_c, 2, 39, 0
6, 185344, Note_on_c, 2, 39, 37
6, 185392, Note_on_c, 2, 39, 0
6, 185392, Note_on_c, 2, 48, 0
6, 185472, Note_on_c, 2, 48, 69
6, 185624, Note_on_c, 2, 32, 0
6, 185728, Note_on_c, 2, 39, 20
6, 185768, Note_on_c, 2, 39, 0
6, 185824, Note_on_c, 2, 48, 0
6, 185856, Note_on_c, 2, 49, 52
6, 186240, Note_on_c, 2, 44, 52
6, 186600, Note_on_c, 2, 44, 0
6, 186624, Note_on_c, 2, 41, 39
6, 186840, Note_on_c, 2, 41, 0
6, 186880, Note_on_c, 2, 40, 52
6, 186968, Note_on_c, 2, 40, 0
6, 187008, Note_on_c, 2, 39, 37
6, 187232, Note_on_c, 2, 39, 0
6, 187264, Note_on_c, 2, 37, 47
6, 187336, Note_on_c, 2, 37, 0
6, 187392, Note_on_c, 2, 38, 48
6, 187624, Note_on_c, 2, 38, 0
6, 187648, Note_on_c, 2, 33, 40
6, 187672, Note_on_c, 2, 33, 0
6, 187776, Note_on_c, 2, 29, 52
6, 188000, Note_on_c, 2, 29, 0
6, 188032, Note_on_c, 2, 30, 49
6, 188088, Note_on_c, 2, 30, 0
6, 188160, Note_on_c, 2, 31, 49
6, 188512, Note_on_c, 2, 31, 0
6, 188544, Note_on_c, 2, 33, 51
6, 188600, Note_on_c, 2, 33, 0
6, 188672, Note_on_c, 2, 34, 42
6, 188696, Note_on_c, 2, 34, 0
6, 188800, Note_on_c, 2, 35, 64
6, 188856, Note_on_c, 2, 35, 0
6, 188928, Note_on_c, 2, 36, 62
6, 188952, Note_on_c, 2, 36, 0
6, 189056, Note_on_c, 2, 31, 69
6, 189064, Note_on_c, 2, 31, 0
6, 189184, Note_on_c, 2, 27, 71
6, 189232, Note_on_c, 2, 27, 0
6, 189312, Note_on_c, 2, 28, 71
6, 189672, Note_on_c, 2, 28, 0
6, 189688, Note_on_c, 2, 49, 0
6, 189696, Note_on_c, 2, 29, 59
6, 190080, Note_on_c, 2, 30, 61
6, 190112, Note_on_c, 2, 29, 0
6, 190456, Note_on_c, 2, 30, 0
6, 190464, Note_on_c, 2, 31, 45
6, 190840, Note_on_c, 2, 31, 0
6, 190848, Note_on_c, 2, 35, 55
6, 191200, Note_on_c, 2, 35, 0
6, 191232, Note_on_c, 2, 36, 54
6, 191488, Note_on_c, 2, 40, 40
6, 191512, Note_on_c, 2, 36, 0
6, 191544, Note_on_c, 2, 40, 0
6, 191616, Note_on_c, 2, 47, 53
6, 191992, Note_on_c, 2, 47, 0
6, 192000, Note_on_c, 2, 48, 63
6, 192384, Note_on_c, 2, 35, 48
6, 192392, Note_on_c, 2, 48, 0
6, 192760, Note_on_c, 2, 35, 0
6, 192768, Note_on_c, 2, 36, 56
6, 193024, Note_on_c, 2, 34, 26
6, 193128, Note_on_c, 2, 34, 0
6, 193144, Note_on_c, 2, 36, 0
6, 193152, Note_on_c, 2, 43, 68
6, 193376, Note_on_c, 2, 43, 0
6, 193408, Note_on_c, 2, 42, 49
6, 193520, Note_on_c, 2, 42, 0
6, 193536, Note_on_c, 2, 41, 55
6, 193792, Note_on_c, 2, 30, 65
6, 193800, Note_on_c, 2, 41, 0
6, 193912, Note_on_c, 2, 30, 0
6, 193920, Note_on_c, 2, 29, 50
6, 194304, Note_on_c, 2, 43, 58
6, 194328, Note_on_c, 2, 29, 0
6, 194688, Note_on_c, 2, 41, 55
6, 194712, Note_on_c, 2, 43, 0
6, 194944, Note_on_c, 2, 34, 48
6, 194976, Note_on_c, 2, 41, 0
6, 195016, Note_on_c, 2, 34, 0
6, 195072, Note_on_c, 2, 35, 49
6, 195328, Note_on_c, 2, 34, 28
6, 195376, Note_on_c, 2, 35, 0
6, 195400, Note_on_c, 2, 34, 0
6, 195456, Note_on_c, 2, 47, 59
6, 195712, Note_on_c, 2, 47, 0
6, 195712, Note_on_c, 2, 39, 42
6, 195768, Note_on_c, 2, 39, 0
6, 195840, Note_on_c, 2, 40, 44
6, 196096, Note_on_c, 2, 39, 25
6, 196192, Note_on_c, 2, 39, 0
6, 196224, Note_on_c, 2, 52, 77
6, 196320, Note_on_c, 2, 40, 0
6, 196480, Note_on_c, 2, 39, 18
6, 196496, Note_on_c, 2, 39, 0
6, 196536, Note_on_c, 2, 52, 0
6, 196608, Note_on_c, 2, 51, 59
6, 196864, Note_on_c, 2, 39, 21
6, 196864, Note_on_c, 2, 39, 0
6, 196952, Note_on_c, 2, 51, 0
6, 196992, Note_on_c, 2, 46, 55
6, 197376, Note_on_c, 2, 43, 44
6, 197760, Note_on_c, 2, 39, 37
6, 197760, Note_on_c, 2, 39, 0
6, 198016, Note_on_c, 2, 33, 50
6, 198040, Note_on_c, 2, 33, 0
6, 198096, Note_on_c, 2, 46, 0
6, 198104, Note_on_c, 2, 43, 0
6, 198144, Note_on_c, 2, 32, 44
6, 198528, Note_on_c, 2, 39, 45
6, 198912, Note_on_c, 2, 48, 73
6, 198968, Note_on_c, 2, 39, 0
6, 198968, Note_on_c, 2, 32, 0
6, 199168, Note_on_c, 2, 39, 47
6, 199184, Note_on_c, 2, 39, 0
6, 199296, Note_on_c, 2, 36, 41
6, 199624, Note_on_c, 2, 36, 0
6, 199648, Note_on_c, 2, 48, 0
6, 199680, Note_on_c, 2, 33, 51
6, 200064, Note_on_c, 2, 39, 55
6, 200080, Note_on_c, 2, 33, 0
6, 200312, Note_on_c, 2, 39, 0
6, 200320, Note_on_c, 2, 37, 37
6, 200400, Note_on_c, 2, 37, 0
6, 200448, Note_on_c, 2, 38, 40
6, 200704, Note_on_c, 2, 50, 77
6, 201064, Note_on_c, 2, 50, 0
6, 201088, Note_on_c, 2, 49, 37
6, 201144, Note_on_c, 2, 49, 0
6, 201216, Note_on_c, 2, 50, 58
6, 201224, Note_on_c, 2, 38, 0
6, 201272, Note_on_c, 2, 50, 0
6, 201344, Note_on_c, 2, 46, 56
6, 201392, Note_on_c, 2, 46, 0
6, 201472, Note_on_c, 2, 47, 64
6, 201496, Note_on_c, 2, 47, 0
6, 201600, Note_on_c, 2, 42, 57
6, 201648, Note_on_c, 2, 42, 0
6, 201728, Note_on_c, 2, 43, 49
6, 201760, Note_on_c, 2, 43, 0
6, 201856, Note_on_c, 2, 37, 65
6, 201944, Note_on_c, 2, 37, 0
6, 201984, Note_on_c, 2, 38, 54
6, 202056, Note_on_c, 2, 38, 0
6, 202112, Note_on_c, 2, 34, 44
6, 202192, Note_on_c, 2, 34, 0
6, 202240, Note_on_c, 2, 35, 60
6, 202336, Note_on_c, 2, 35, 0
6, 202368, Note_on_c, 2, 30, 45
6, 202728, Note_on_c, 2, 30, 0
6, 202752, Note_on_c, 2, 31, 57
6, 203120, Note_on_c, 2, 31, 0
6, 203136, Note_on_c, 2, 33, 54
6, 203488, Note_on_c, 2, 33, 0
6, 203520, Note_on_c, 2, 35, 30
6, 203600, Note_on_c, 2, 36, 7
6, 203744, Note_on_c, 2, 36, 0
6, 203760, Note_on_c, 2, 35, 0
6, 203776, Note_on_c, 2, 47, 78
6, 203888, Note_on_c, 2, 47, 0
6, 203904, Note_on_c, 2, 46, 57
6, 204160, Note_on_c, 2, 35, 32
6, 204200, Note_on_c, 2, 35, 0
6, 204248, Note_on_c, 2, 46, 0
6, 204288, Note_on_c, 2, 45, 46
6, 204320, Note_on_c, 2, 45, 0
6, 204416, Note_on_c, 2, 40, 53
6, 204456, Note_on_c, 2, 40, 0
6, 204544, Note_on_c, 2, 36, 64
6, 204600, Note_on_c, 2, 36, 0
6, 204672, Note_on_c, 2, 37, 57
6, 205024, Note_on_c, 2, 37, 0
6, 205056, Note_on_c, 2, 40, 60
6, 205408, Note_on_c, 2, 40, 0
6, 205440, Note_on_c, 2, 39, 46
6, 205688, Note_on_c, 2, 39, 0
6, 205696, Note_on_c, 2, 37, 50
6, 205776, Note_on_c, 2, 37, 0
6, 205824, Note_on_c, 2, 38, 48
6, 206080, Note_on_c, 2, 37, 27
6, 206160, Note_on_c, 2, 38, 0
6, 206184, Note_on_c, 2, 37, 0
6, 206208, Note_on_c, 2, 50, 74
6, 206464, Note_on_c, 2, 37, 26
6, 206480, Note_on_c, 2, 37, 0
6, 206544, Note_on_c, 2, 50, 0
6, 206592, Note_on_c, 2, 44, 57
6, 206960, Note_on_c, 2, 44, 0
6, 206976, Note_on_c, 2, 32, 52
6, 207320, Note_on_c, 2, 32, 0
6, 207360, Note_on_c, 2, 31, 53
6, 207616, Note_on_c, 2, 38, 26
6, 207664, Note_on_c, 2, 38, 0
6, 207744, Note_on_c, 2, 50, 64
6, 208056, Note_on_c, 2, 50, 0
6, 208128, Note_on_c, 2, 47, 51
6, 208472, Note_on_c, 2, 31, 0
6, 208496, Note_on_c, 2, 47, 0
6, 208512, Note_on_c, 2, 43, 38
6, 208768, Note_on_c, 2, 37, 31
6, 208840, Note_on_c, 2, 37, 0
6, 208896, Note_on_c, 2, 38, 49
6, 209240, Note_on_c, 2, 38, 0
6, 209248, Note_on_c, 2, 43, 0
6, 209280, Note_on_c, 2, 36, 58
6, 209640, Note_on_c, 2, 36, 0
6, 209664, Note_on_c, 2, 35, 54
6, 209872, Note_on_c, 2, 35, 0
6, 209920, Note_on_c, 2, 33, 50
6, 209944, Note_on_c, 2, 33, 0
6, 210048, Note_on_c, 2, 31, 64
6, 210336, Note_on_c, 2, 31, 0
6, 210432, Note_on_c, 2, 30, 58
6, 210816, Note_on_c, 2, 40, 50
6, 210896, Note_on_c, 2, 30, 0
6, 211200, Note_on_c, 2, 45, 71
6, 211240, Note_on_c, 2, 40, 0
6, 211584, Note_on_c, 2, 40, 48
6, 211840, Note_on_c, 2, 34, 25
6, 211928, Note_on_c, 2, 45, 0
6, 211936, Note_on_c, 2, 40, 0
6, 211944, Note_on_c, 2, 34, 0
6, 211968, Note_on_c, 2, 47, 56
6, 212352, Note_on_c, 2, 39, 56
6, 212656, Note_on_c, 2, 47, 0
6, 212728, Note_on_c, 2, 39, 0
6, 212736, Note_on_c, 2, 45, 58
6, 213096, Note_on_c, 2, 45, 0
6, 213120, Note_on_c, 2, 39, 48
6, 213376, Note_on_c, 2, 37, 32
6, 213400, Note_on_c, 2, 39, 0
6, 213440, Note_on_c, 2, 37, 0
6, 213504, Note_on_c, 2, 40, 46
6, 213888, Note_on_c, 2, 52, 70
6, 214200, Note_on_c, 2, 52, 0
6, 214272, Note_on_c, 2, 51, 46
6, 214344, Note_on_c, 2, 40, 0
6, 214528, Note_on_c, 2, 40, 46
6, 214592, Note_on_c, 2, 51, 0
6, 214600, Note_on_c, 2, 40, 0
6, 214656, Note_on_c, 2, 47, 25
6, 214912, Note_on_c, 2, 48, 77
6, 214920, Note_on_c, 2, 47, 0
6, 215392, Note_on_c, 2, 48, 0
6, 215424, Note_on_c, 2, 44, 49
6, 215680, Note_on_c, 2, 36, 37
6, 215680, Note_on_c, 2, 36, 0
6, 215808, Note_on_c, 2, 40, 39
6, 216064, Note_on_c, 2, 36, 55
6, 216104, Note_on_c, 2, 36, 0
6, 216144, Note_on_c, 2, 44, 0
6, 216152, Note_on_c, 2, 40, 0
6, 216192, Note_on_c, 2, 30, 56
6, 216528, Note_on_c, 2, 30, 0
6, 216576, Note_on_c, 2, 29, 49
6, 216832, Note_on_c, 2, 36, 24
6, 216872, Note_on_c, 2, 36, 0
6, 216960, Note_on_c, 2, 44, 38
6, 217304, Note_on_c, 2, 44, 0
6, 217344, Note_on_c, 2, 43, 49
6, 217600, Note_on_c, 2, 36, 25
6, 217608, Note_on_c, 2, 36, 0
6, 217648, Note_on_c, 2, 43, 0
6, 217728, Note_on_c, 2, 44, 21
6, 217728, Note_on_c, 2, 45, 65
6, 217736, Note_on_c, 2, 44, 0
6, 217920, Note_on_c, 2, 29, 0
6, 218072, Note_on_c, 2, 45, 0
6, 218112, Note_on_c, 2, 46, 44
6, 218432, Note_on_c, 2, 46, 0
6, 218496, Note_on_c, 2, 47, 50
6, 218752, Note_on_c, 2, 36, 45
6, 218768, Note_on_c, 2, 36, 0
6, 218832, Note_on_c, 2, 47, 0
6, 218880, Note_on_c, 2, 46, 43
6, 219136, Note_on_c, 2, 46, 0
6, 219136, Note_on_c, 2, 43, 50
6, 219136, Note_on_c, 2, 43, 0
6, 219264, Note_on_c, 2, 38, 71
6, 219592, Note_on_c, 2, 38, 0
6, 219648, Note_on_c, 2, 40, 50
6, 220032, Note_on_c, 2, 40, 0
6, 220032, Note_on_c, 2, 34, 58
6, 220384, Note_on_c, 2, 34, 0
6, 220416, Note_on_c, 2, 33, 54
6, 220728, Note_on_c, 2, 33, 0
6, 220800, Note_on_c, 2, 33, 65
6, 221120, Note_on_c, 2, 33, 0
6, 221184, Note_on_c, 2, 32, 42
6, 221568, Note_on_c, 2, 39, 42
6, 221952, Note_on_c, 2, 48, 69
6, 221984, Note_on_c, 2, 39, 0
6, 222208, Note_on_c, 2, 39, 30
6, 222232, Note_on_c, 2, 39, 0
6, 222240, Note_on_c, 2, 32, 0
6, 222328, Note_on_c, 2, 48, 0
6, 222336, Note_on_c, 2, 44, 45
6, 222592, Note_on_c, 2, 39, 37
6, 222632, Note_on_c, 2, 39, 0
6, 222664, Note_on_c, 2, 44, 0
6, 222720, Note_on_c, 2, 37, 58
6, 223104, Note_on_c, 2, 44, 52
6, 223168, Note_on_c, 2, 37, 0
6, 223456, Note_on_c, 2, 44, 0
6, 223488, Note_on_c, 2, 51, 62
6, 223744, Note_on_c, 2, 37, 32
6, 223808, Note_on_c, 2, 37, 0
6, 223824, Note_on_c, 2, 51, 0
6, 223872, Note_on_c, 2, 50, 56
6, 224128, Note_on_c, 2, 37, 27
6, 224160, Note_on_c, 2, 37, 0
6, 224200, Note_on_c, 2, 50, 0
6, 224256, Note_on_c, 2, 49, 54
6, 224640, Note_on_c, 2, 42, 42
6, 225024, Note_on_c, 2, 30, 42
6, 225040, Note_on_c, 2, 42, 0
6, 225248, Note_on_c, 2, 30, 0
6, 225280, Note_on_c, 2, 34, 46
6, 225344, Note_on_c, 2, 34, 0
6, 225408, Note_on_c, 2, 35, 58
6, 225648, Note_on_c, 2, 49, 0
6, 225768, Note_on_c, 2, 35, 0
6, 225792, Note_on_c, 2, 36, 43
6, 226176, Note_on_c, 2, 48, 83
6, 226496, Note_on_c, 2, 48, 0
6, 226560, Note_on_c, 2, 43, 38
6, 226600, Note_on_c, 2, 36, 0
6, 226792, Note_on_c, 2, 43, 0
6, 226816, Note_on_c, 2, 39, 57
6, 226856, Note_on_c, 2, 39, 0
6, 226944, Note_on_c, 2, 36, 76
6, 227272, Note_on_c, 2, 36, 0
6, 227328, Note_on_c, 2, 35, 48
6, 227712, Note_on_c, 2, 47, 83
6, 227752, Note_on_c, 2, 35, 0
6, 228056, Note_on_c, 2, 47, 0
6, 228096, Note_on_c, 2, 44, 52
6, 228352, Note_on_c, 2, 44, 0
6, 228352, Note_on_c, 2, 41, 34
6, 228400, Note_on_c, 2, 41, 0
6, 228480, Note_on_c, 2, 38, 38
6, 228480, Note_on_c, 2, 38, 0
6, 228608, Note_on_c, 2, 35, 36
6, 228624, Note_on_c, 2, 35, 0
6, 228736, Note_on_c, 2, 35, 54
6, 228768, Note_on_c, 2, 35, 0
6, 228864, Note_on_c, 2, 34, 62
6, 229248, Note_on_c, 2, 41, 53
6, 229288, Note_on_c, 2, 34, 0
6, 229504, Note_on_c, 2, 34, 15
6, 229600, Note_on_c, 2, 34, 0
6, 229632, Note_on_c, 2, 51, 48
6, 229656, Note_on_c, 2, 41, 0
6, 229888, Note_on_c, 2, 41, 68
6, 229904, Note_on_c, 2, 51, 0
6, 229936, Note_on_c, 2, 41, 0
6, 230016, Note_on_c, 2, 38, 58
6, 230344, Note_on_c, 2, 38, 0
6, 230400, Note_on_c, 2, 39, 71
6, 231040, Note_on_c, 2, 39, 0
6, 231040, Note_on_c, 2, 31, 79
6, 231488, Note_on_c, 2, 31, 0
6, 231552, Note_on_c, 2, 30, 62
6, 231552, Note_on_c, 2, 31, 33
6, 231568, Note_on_c, 2, 30, 0
6, 231864, Note_on_c, 2, 31, 0
6, 232072, Note_on_c, 2, 44, 31
6, 232104, Note_on_c, 2, 44, 0
6, 232216, Note_on_c, 2, 37, 77
6, 233320, Note_on_c, 2, 45, 60
6, 233384, Note_on_c, 2, 45, 0
6, 233384, Note_on_c, 2, 37, 0
6, 233456, Note_on_c, 2, 44, 40
6, 233704, Note_on_c, 2, 37, 75
6, 233712, Note_on_c, 2, 44, 0
6, 234112, Note_on_c, 2, 45, 49
6, 234168, Note_on_c, 2, 37, 0
6, 234184, Note_on_c, 2, 45, 0
6, 234256, Note_on_c, 2, 44, 48
6, 234488, Note_on_c, 2, 37, 70
6, 234496, Note_on_c, 2, 44, 0
6, 234864, Note_on_c, 2, 44, 64
6, 234936, Note_on_c, 2, 44, 0
6, 234960, Note_on_c, 2, 37, 0
6, 235016, Note_on_c, 2, 43, 44
6, 235240, Note_on_c, 2, 43, 0
6, 235248, Note_on_c, 2, 36, 82
6, 236392, Note_on_c, 2, 44, 62
6, 236448, Note_on_c, 2, 44, 0
6, 236456, Note_on_c, 2, 36, 0
6, 236544, Note_on_c, 2, 43, 40
6, 236568, Note_on_c, 2, 43, 0
6, 236760, Note_on_c, 2, 36, 76
6, 237160, Note_on_c, 2, 44, 55
6, 237184, Note_on_c, 2, 36, 0
6, 237224, Note_on_c, 2, 44, 0
6, 237320, Note_on_c, 2, 43, 44
6, 237400, Note_on_c, 2, 43, 0
6, 237544, Note_on_c, 2, 36, 71
6, 237896, Note_on_c, 2, 36, 0
6, 237928, Note_on_c, 2, 45, 57
6, 237992, Note_on_c, 2, 45, 0
6, 238064, Note_on_c, 2, 44, 44
6, 238096, Note_on_c, 2, 44, 0
6, 238296, Note_on_c, 2, 37, 76
6, 239488, Note_on_c, 2, 45, 35
6, 239520, Note_on_c, 2, 37, 0
6, 239552, Note_on_c, 2, 45, 0
6, 239624, Note_on_c, 2, 44, 39
6, 239664, Note_on_c, 2, 44, 0
6, 239856, Note_on_c, 2, 37, 75
6, 240232, Note_on_c, 2, 45, 42
6, 240248, Note_on_c, 2, 37, 0
6, 240272, Note_on_c, 2, 45, 0
6, 240384, Note_on_c, 2, 44, 31
6, 240440, Note_on_c, 2, 44, 0
6, 240608, Note_on_c, 2, 37, 65
6, 240960, Note_on_c, 2, 37, 0
6, 240992, Note_on_c, 2, 44, 52
6, 241040, Note_on_c, 2, 44, 0
6, 241144, Note_on_c, 2, 43, 34
6, 241184, Note_on_c, 2, 43, 0
6, 241360, Note_on_c, 2, 36, 62
6, 242544, Note_on_c, 2, 44, 49
6, 242608, Note_on_c, 2, 44, 0
6, 242664, Note_on_c, 2, 36, 0
6, 242696, Note_on_c, 2, 43, 33
6, 242912, Note_on_c, 2, 36, 74
6, 242928, Note_on_c, 2, 43, 0
6, 243312, Note_on_c, 2, 44, 46
6, 243384, Note_on_c, 2, 44, 0
6, 243480, Note_on_c, 2, 36, 0
6, 243480, Note_on_c, 2, 43, 26
6, 243688, Note_on_c, 2, 36, 58
6, 243736, Note_on_c, 2, 43, 0
6, 243744, Note_on_c, 2, 36, 0
6, 244080, Note_on_c, 2, 45, 38
6, 244192, Note_on_c, 2, 45, 0
6, 244216, Note_on_c, 2, 44, 42
6, 244464, Note_on_c, 2, 44, 0
6, 244472, Note_on_c, 2, 37, 53
6, 245624, Note_on_c, 2, 45, 24
6, 245672, Note_on_c, 2, 37, 0
6, 245744, Note_on_c, 2, 45, 0
6, 245776, Note_on_c, 2, 44, 27
6, 245992, Note_on_c, 2, 44, 0
6, 245992, Note_on_c, 2, 37, 34
6, 246392, Note_on_c, 2, 45, 29
6, 246456, Note_on_c, 2, 37, 0
6, 246472, Note_on_c, 2, 45, 0
6, 246536, Note_on_c, 2, 44, 25
6, 246744, Note_on_c, 2, 44, 0
6, 246760, Note_on_c, 2, 37, 33
6, 247136, Note_on_c, 2, 44, 28
6, 247144, Note_on_c, 2, 37, 0
6, 247248, Note_on_c, 2, 44, 0
6, 247288, Note_on_c, 2, 43, 34
6, 247512, Note_on_c, 2, 43, 0
6, 247536, Note_on_c, 2, 36, 37
6, 248688, Note_on_c, 2, 44, 28
6, 248760, Note_on_c, 2, 44, 0
6, 248792, Note_on_c, 2, 36, 0
6, 248832, Note_on_c, 2, 43, 32
6, 249088, Note_on_c, 2, 36, 24
6, 249096, Note_on_c, 2, 43, 0
6, 249456, Note_on_c, 2, 44, 35
6, 249584, Note_on_c, 2, 44, 0
6, 249592, Note_on_c, 2, 36, 0
6, 249608, Note_on_c, 2, 43, 36
6, 249856, Note_on_c, 2, 36, 36
6, 249952, Note_on_c, 2, 43, 0
6, 250168, Note_on_c, 2, 36, 0
6, 250208, Note_on_c, 2, 45, 32
6, 250304, Note_on_c, 2, 45, 0
6, 250328, Note_on_c, 2, 44, 35
6, 250568, Note_on_c, 2, 44, 0
6, 250576, Note_on_c, 2, 37, 37
6, 251752, Note_on_c, 2, 45, 27
6, 251840, Note_on_c, 2, 45, 0
6, 251864, Note_on_c, 2, 37, 0
6, 251880, Note_on_c, 2, 44, 31
6, 252120, Note_on_c, 2, 44, 0
6, 252136, Note_on_c, 2, 37, 34
6, 252512, Note_on_c, 2, 45, 38
6, 252568, Note_on_c, 2, 37, 0
6, 252632, Note_on_c, 2, 45, 0
6, 252640, Note_on_c, 2, 44, 36
6, 252888, Note_on_c, 2, 44, 0
6, 252888, Note_on_c, 2, 37, 36
6, 253296, Note_on_c, 2, 44, 50
6, 253336, Note_on_c, 2, 37, 0
6, 253424, Note_on_c, 2, 44, 0
6, 253448, Note_on_c, 2, 43, 35
6, 253696, Note_on_c, 2, 43, 0
6, 253696, End_track
0, 0, End_of_file
