0, 0, Header, 1, 8, 120
1, 0, Start_track
1, 0, Title_t, "All The Things You Are"
1, 0, Text_t, "Jerome Kern\012"
1, 0, Text_t, "First chorus based on some harmonic ideas as played by Richie Beirach on his Maybeck Hall album.\012"
1, 0, Time_signature, 4, 2, 24, 8
1, 0, Key_signature, -4, "major"
1, 0, Tempo, 461538
1, 366, Marker_t, "On E/Gb Lh plays Gb and R Hand plays E triad arpeggios"
1, 2959, Marker_t, "Gb lydian (i.e Db Major scale) on Fm7/Gb"
1, 6986, Marker_t, "First chorus - out of tempo - starts here"
1, 7214, Marker_t, "Bass descends chromatically over next 4 bars."
1, 7800, Marker_t, "Chord choice is more or less governed by the melody note at that point."
1, 10983, Marker_t, "Next four bars Root moves down in steps agin."
1, 14628, Marker_t, "Root again descends chromatically from Db"
1, 22080, Marker_t, "Bridge - another descending chromatic root  movement for the next 7 bars"
1, 30166, Marker_t, "Last 10 bars uses the usual chords"
1, 37920, Tempo, 315789
1, 40216, Marker_t, "Return to Intro to finish 1st chorus"
1, 48480, Marker_t, "Bass and Drums in tempo"
1, 48984, Marker_t, "Bass and piano play contrapuntally"
1, 49920, Marker_t, "Piano Rh and LH in unison an Octave apart"
1, 58080, Marker_t, "RH and LH a tenth apart"
1, 60208, Marker_t, "Back to RH and LH an octave apart"
1, 65760, Marker_t, "On new chorus, chord stabs with LH over single note RH line"
1, 67352, Marker_t, "Bass plays more, but still doesn't walk in 4"
1, 76668, Marker_t, "Whole Tone scale based figure over C7alt (=C7+)"
1, 83040, Marker_t, "On final chorus, piano plays more 'chordally', bass walks"
1, 94080, Marker_t, "Another Whole Tone figure spills over into the next bar briefly"
1, 99360, Marker_t, "Back to the Intro figure - and fade"
1, 99360, End_track
2, 0, Start_track
2, 0, Title_t, ""
2, 0, Program_c, 0, 0
2, 193, Control_c, 0, 64, 127
2, 411, Note_on_c, 0, 42, 38
2, 412, Note_on_c, 0, 68, 50
2, 414, Note_on_c, 0, 64, 56
2, 431, Control_c, 0, 64, 0
2, 472, Control_c, 0, 64, 127
2, 520, Note_on_c, 0, 42, 0
2, 523, Note_on_c, 0, 52, 39
2, 601, Note_on_c, 0, 52, 0
2, 614, Note_on_c, 0, 56, 35
2, 617, Note_on_c, 0, 59, 47
2, 624, Note_on_c, 0, 68, 0
2, 627, Note_on_c, 0, 64, 0
2, 631, Note_on_c, 0, 59, 0
2, 705, Note_on_c, 0, 59, 39
2, 775, Note_on_c, 0, 59, 0
2, 782, Note_on_c, 0, 64, 40
2, 788, Note_on_c, 0, 68, 77
2, 789, Note_on_c, 0, 76, 76
2, 874, Note_on_c, 0, 64, 0
2, 884, Note_on_c, 0, 59, 37
2, 969, Note_on_c, 0, 59, 0
2, 980, Note_on_c, 0, 71, 45
2, 989, Note_on_c, 0, 64, 39
2, 1086, Note_on_c, 0, 59, 32
2, 1132, Note_on_c, 0, 64, 0
2, 1163, Note_on_c, 0, 76, 0
2, 1180, Note_on_c, 0, 71, 0
2, 1180, Note_on_c, 0, 59, 0
2, 1193, Note_on_c, 0, 68, 0
2, 1195, Note_on_c, 0, 64, 28
2, 1203, Note_on_c, 0, 56, 0
2, 1258, Note_on_c, 0, 64, 0
2, 1269, Note_on_c, 0, 71, 66
2, 1346, Note_on_c, 0, 68, 33
2, 1346, Note_on_c, 0, 59, 40
2, 1348, Note_on_c, 0, 42, 37
2, 1348, Note_on_c, 0, 64, 50
2, 1369, Control_c, 0, 64, 0
2, 1411, Control_c, 0, 64, 127
2, 1424, Note_on_c, 0, 52, 44
2, 1429, Note_on_c, 0, 42, 0
2, 1454, Note_on_c, 0, 52, 0
2, 1482, Note_on_c, 0, 59, 0
2, 1499, Note_on_c, 0, 56, 70
2, 1506, Note_on_c, 0, 64, 0
2, 1579, Note_on_c, 0, 59, 75
2, 1653, Note_on_c, 0, 59, 0
2, 1661, Note_on_c, 0, 68, 0
2, 1674, Note_on_c, 0, 64, 50
2, 1681, Note_on_c, 0, 71, 0
2, 1681, Note_on_c, 0, 59, 35
2, 1782, Note_on_c, 0, 56, 0
2, 1782, Note_on_c, 0, 71, 50
2, 1844, Note_on_c, 0, 64, 0
2, 1868, Note_on_c, 0, 59, 0
2, 1952, Note_on_c, 0, 71, 0
2, 2045, Note_on_c, 0, 42, 37
2, 2048, Note_on_c, 0, 68, 35
2, 2049, Note_on_c, 0, 60, 41
2, 2049, Note_on_c, 0, 65, 44
2, 2068, Control_c, 0, 64, 0
2, 2123, Control_c, 0, 64, 127
2, 2158, Note_on_c, 0, 53, 45
2, 2159, Note_on_c, 0, 42, 0
2, 2239, Note_on_c, 0, 60, 0
2, 2261, Note_on_c, 0, 56, 42
2, 2267, Note_on_c, 0, 53, 0
2, 2335, Note_on_c, 0, 65, 0
2, 2341, Note_on_c, 0, 68, 0
2, 2344, Note_on_c, 0, 60, 38
2, 2361, Note_on_c, 0, 60, 0
2, 2412, Note_on_c, 0, 72, 57
2, 2461, Note_on_c, 0, 60, 22
2, 2543, Note_on_c, 0, 65, 42
2, 2595, Note_on_c, 0, 60, 0
2, 2631, Note_on_c, 0, 65, 0
2, 2636, Note_on_c, 0, 60, 34
2, 2662, Note_on_c, 0, 60, 0
2, 2666, Note_on_c, 0, 56, 0
2, 2731, Note_on_c, 0, 42, 42
2, 2800, Note_on_c, 0, 42, 0
2, 2808, Note_on_c, 0, 53, 43
2, 2816, Control_c, 0, 64, 127
2, 2837, Control_c, 0, 64, 0
2, 2839, Note_on_c, 0, 42, 36
2, 2843, Note_on_c, 0, 53, 0
2, 2960, Note_on_c, 0, 53, 34
2, 2993, Note_on_c, 0, 54, 46
2, 2996, Note_on_c, 0, 53, 0
2, 3004, Control_c, 0, 64, 127
2, 3026, Note_on_c, 0, 60, 33
2, 3026, Note_on_c, 0, 56, 53
2, 3036, Note_on_c, 0, 54, 0
2, 3053, Note_on_c, 0, 58, 63
2, 3061, Note_on_c, 0, 56, 0
2, 3071, Note_on_c, 0, 58, 0
2, 3080, Note_on_c, 0, 60, 74
2, 3092, Control_c, 0, 64, 0
2, 3105, Note_on_c, 0, 65, 27
2, 3106, Note_on_c, 0, 60, 0
2, 3110, Note_on_c, 0, 61, 69
2, 3132, Note_on_c, 0, 63, 63
2, 3137, Note_on_c, 0, 61, 0
2, 3149, Note_on_c, 0, 63, 0
2, 3157, Note_on_c, 0, 65, 69
2, 3180, Note_on_c, 0, 66, 59
2, 3182, Note_on_c, 0, 65, 0
2, 3197, Note_on_c, 0, 68, 56
2, 3201, Note_on_c, 0, 53, 49
2, 3206, Note_on_c, 0, 66, 0
2, 3209, Note_on_c, 0, 72, 0
2, 3218, Note_on_c, 0, 70, 50
2, 3221, Note_on_c, 0, 68, 0
2, 3229, Note_on_c, 0, 70, 0
2, 3242, Note_on_c, 0, 72, 55
2, 3263, Note_on_c, 0, 72, 0
2, 3267, Note_on_c, 0, 73, 38
2, 3291, Note_on_c, 0, 73, 0
2, 3291, Note_on_c, 0, 75, 44
2, 3295, Note_on_c, 0, 65, 0
2, 3301, Note_on_c, 0, 75, 0
2, 3313, Note_on_c, 0, 77, 48
2, 3329, Note_on_c, 0, 42, 0
2, 3338, Note_on_c, 0, 77, 0
2, 3338, Note_on_c, 0, 78, 47
2, 3360, Note_on_c, 0, 80, 46
2, 3361, Note_on_c, 0, 78, 0
2, 3373, Note_on_c, 0, 80, 0
2, 3385, Note_on_c, 0, 82, 39
2, 3388, Note_on_c, 0, 60, 0
2, 3394, Note_on_c, 0, 82, 0
2, 3405, Note_on_c, 0, 84, 59
2, 3419, Note_on_c, 0, 84, 0
2, 3437, Note_on_c, 0, 85, 55
2, 3456, Note_on_c, 0, 85, 0
2, 3463, Note_on_c, 0, 87, 38
2, 3472, Note_on_c, 0, 87, 0
2, 3488, Note_on_c, 0, 89, 58
2, 3503, Note_on_c, 0, 89, 0
2, 3506, Note_on_c, 0, 90, 40
2, 3524, Note_on_c, 0, 42, 37
2, 3532, Note_on_c, 0, 92, 73
2, 3563, Control_c, 0, 64, 0
2, 3578, Control_c, 0, 64, 127
2, 3604, Note_on_c, 0, 53, 0
2, 3626, Note_on_c, 0, 90, 0
2, 3638, Note_on_c, 0, 42, 0
2, 3639, Note_on_c, 0, 47, 33
2, 3712, Note_on_c, 0, 92, 0
2, 3725, Note_on_c, 0, 47, 0
2, 3735, Note_on_c, 0, 64, 54
2, 3738, Note_on_c, 0, 71, 50
2, 3741, Note_on_c, 0, 52, 36
2, 3809, Note_on_c, 0, 52, 0
2, 3819, Note_on_c, 0, 56, 43
2, 3826, Note_on_c, 0, 64, 0
2, 3838, Note_on_c, 0, 71, 0
2, 3906, Note_on_c, 0, 76, 67
2, 3908, Note_on_c, 0, 59, 43
2, 3909, Note_on_c, 0, 68, 45
2, 3970, Note_on_c, 0, 59, 0
2, 3984, Note_on_c, 0, 64, 57
2, 4029, Note_on_c, 0, 68, 0
2, 4054, Note_on_c, 0, 64, 0
2, 4059, Note_on_c, 0, 68, 67
2, 4061, Note_on_c, 0, 71, 73
2, 4063, Note_on_c, 0, 64, 57
2, 4142, Note_on_c, 0, 59, 82
2, 4157, Control_c, 0, 64, 0
2, 4185, Note_on_c, 0, 74, 4
2, 4193, Note_on_c, 0, 68, 0
2, 4196, Note_on_c, 0, 64, 0
2, 4196, Control_c, 0, 64, 127
2, 4227, Note_on_c, 0, 56, 0
2, 4229, Note_on_c, 0, 68, 56
2, 4233, Note_on_c, 0, 64, 64
2, 4238, Note_on_c, 0, 74, 0
2, 4239, Note_on_c, 0, 76, 0
2, 4251, Note_on_c, 0, 71, 0
2, 4277, Note_on_c, 0, 68, 0
2, 4309, Note_on_c, 0, 64, 0
2, 4310, Note_on_c, 0, 56, 68
2, 4323, Note_on_c, 0, 59, 0
2, 4351, Note_on_c, 0, 56, 0
2, 4399, Note_on_c, 0, 71, 54
2, 4401, Note_on_c, 0, 68, 35
2, 4402, Note_on_c, 0, 64, 57
2, 4403, Note_on_c, 0, 59, 42
2, 4492, Note_on_c, 0, 42, 73
2, 4518, Note_on_c, 0, 59, 0
2, 4527, Note_on_c, 0, 64, 0
2, 4548, Note_on_c, 0, 68, 0
2, 4601, Note_on_c, 0, 68, 18
2, 4605, Note_on_c, 0, 64, 55
2, 4606, Note_on_c, 0, 71, 0
2, 4607, Note_on_c, 0, 59, 48
2, 4727, Note_on_c, 0, 64, 0
2, 4729, Note_on_c, 0, 52, 38
2, 4731, Note_on_c, 0, 59, 0
2, 4846, Note_on_c, 0, 59, 31
2, 4847, Note_on_c, 0, 64, 34
2, 4914, Note_on_c, 0, 42, 0
2, 4952, Note_on_c, 0, 64, 0
2, 4984, Note_on_c, 0, 59, 0
2, 5043, Note_on_c, 0, 68, 0
2, 5096, Note_on_c, 0, 42, 37
2, 5199, Note_on_c, 0, 52, 0
2, 5272, Note_on_c, 0, 42, 0
2, 5352, Note_on_c, 0, 65, 41
2, 5354, Note_on_c, 0, 42, 40
2, 5354, Note_on_c, 0, 72, 40
2, 5384, Control_c, 0, 64, 0
2, 5439, Control_c, 0, 64, 127
2, 5465, Note_on_c, 0, 42, 0
2, 5479, Note_on_c, 0, 53, 31
2, 5483, Note_on_c, 0, 60, 19
2, 5521, Note_on_c, 0, 60, 0
2, 5565, Note_on_c, 0, 65, 0
2, 5566, Note_on_c, 0, 53, 0
2, 5577, Note_on_c, 0, 56, 30
2, 5677, Note_on_c, 0, 60, 24
2, 5765, Note_on_c, 0, 67, 35
2, 5767, Note_on_c, 0, 68, 36
2, 5796, Note_on_c, 0, 60, 0
2, 5863, Note_on_c, 0, 60, 35
2, 5876, Note_on_c, 0, 67, 0
2, 5883, Note_on_c, 0, 68, 0
2, 5981, Note_on_c, 0, 60, 0
2, 6048, Note_on_c, 0, 60, 36
2, 6115, Note_on_c, 0, 60, 0
2, 6141, Note_on_c, 0, 56, 0
2, 6223, Note_on_c, 0, 42, 37
2, 6353, Note_on_c, 0, 42, 0
2, 6437, Note_on_c, 0, 42, 36
2, 6554, Note_on_c, 0, 60, 18
2, 6666, Note_on_c, 0, 53, 28
2, 6689, Note_on_c, 0, 53, 0
2, 6705, Note_on_c, 0, 60, 0
2, 6804, Note_on_c, 0, 72, 0
2, 6885, Note_on_c, 0, 60, 29
2, 6922, Note_on_c, 0, 42, 0
2, 6963, Note_on_c, 0, 60, 0
2, 6984, Note_on_c, 0, 68, 72
2, 6989, Note_on_c, 0, 42, 42
2, 7017, Control_c, 0, 64, 0
2, 7061, Control_c, 0, 64, 127
2, 7102, Note_on_c, 0, 57, 40
2, 7208, Note_on_c, 0, 61, 52
2, 7245, Note_on_c, 0, 68, 0
2, 7281, Note_on_c, 0, 57, 0
2, 7296, Note_on_c, 0, 68, 77
2, 7298, Note_on_c, 0, 61, 0
2, 7303, Note_on_c, 0, 66, 39
2, 7361, Note_on_c, 0, 42, 0
2, 7365, Note_on_c, 0, 68, 0
2, 7369, Note_on_c, 0, 66, 0
2, 7396, Note_on_c, 0, 68, 62
2, 7401, Note_on_c, 0, 64, 60
2, 7401, Note_on_c, 0, 59, 58
2, 7403, Note_on_c, 0, 63, 43
2, 7406, Note_on_c, 0, 42, 35
2, 7418, Control_c, 0, 64, 0
2, 7465, Control_c, 0, 64, 127
2, 7492, Note_on_c, 0, 59, 0
2, 7528, Note_on_c, 0, 59, 53
2, 7574, Note_on_c, 0, 63, 0
2, 7643, Note_on_c, 0, 64, 0
2, 7647, Note_on_c, 0, 63, 47
2, 7648, Note_on_c, 0, 68, 0
2, 7822, Note_on_c, 0, 68, 39
2, 7932, Note_on_c, 0, 59, 0
2, 7953, Note_on_c, 0, 68, 0
2, 7955, Note_on_c, 0, 63, 0
2, 8037, Note_on_c, 0, 42, 0
2, 8106, Note_on_c, 0, 73, 35
2, 8109, Note_on_c, 0, 41, 37
2, 8122, Control_c, 0, 64, 0
2, 8143, Control_c, 0, 64, 127
2, 8160, Note_on_c, 0, 41, 0
2, 8230, Note_on_c, 0, 51, 34
2, 8336, Note_on_c, 0, 61, 33
2, 8338, Note_on_c, 0, 65, 45
2, 8346, Note_on_c, 0, 57, 22
2, 8448, Note_on_c, 0, 57, 0
2, 8473, Note_on_c, 0, 61, 0
2, 8500, Note_on_c, 0, 65, 0
2, 8659, Note_on_c, 0, 57, 29
2, 8666, Note_on_c, 0, 73, 0
2, 8773, Note_on_c, 0, 61, 27
2, 8845, Note_on_c, 0, 57, 0
2, 8861, Note_on_c, 0, 61, 0
2, 8872, Note_on_c, 0, 68, 65
2, 8873, Note_on_c, 0, 51, 0
2, 8915, Note_on_c, 0, 68, 0
2, 8975, Note_on_c, 0, 67, 72
2, 8978, Note_on_c, 0, 40, 37
2, 9006, Control_c, 0, 64, 0
2, 9052, Note_on_c, 0, 50, 51
2, 9061, Control_c, 0, 64, 127
2, 9127, Note_on_c, 0, 55, 65
2, 9149, Note_on_c, 0, 40, 0
2, 9206, Note_on_c, 0, 55, 0
2, 9220, Note_on_c, 0, 62, 68
2, 9223, Note_on_c, 0, 55, 26
2, 9270, Note_on_c, 0, 50, 0
2, 9281, Note_on_c, 0, 67, 0
2, 9324, Note_on_c, 0, 55, 0
2, 9335, Note_on_c, 0, 67, 74
2, 9339, Note_on_c, 0, 62, 0
2, 9341, Note_on_c, 0, 39, 47
2, 9355, Control_c, 0, 64, 0
2, 9421, Control_c, 0, 64, 127
2, 9451, Note_on_c, 0, 51, 31
2, 9558, Note_on_c, 0, 61, 34
2, 9566, Note_on_c, 0, 55, 26
2, 9590, Note_on_c, 0, 39, 0
2, 9603, Note_on_c, 0, 67, 0
2, 9605, Note_on_c, 0, 51, 0
2, 9648, Note_on_c, 0, 55, 0
2, 9666, Note_on_c, 0, 67, 47
2, 9708, Note_on_c, 0, 61, 0
2, 9755, Note_on_c, 0, 67, 0
2, 9794, Note_on_c, 0, 67, 41
2, 9797, Note_on_c, 0, 50, 38
2, 9799, Note_on_c, 0, 60, 42
2, 9801, Note_on_c, 0, 64, 43
2, 9802, Control_c, 0, 64, 0
2, 9843, Control_c, 0, 64, 127
2, 9893, Note_on_c, 0, 60, 0
2, 9908, Note_on_c, 0, 64, 0
2, 9909, Note_on_c, 0, 67, 0
2, 10004, Note_on_c, 0, 72, 66
2, 10013, Note_on_c, 0, 67, 65
2, 10014, Note_on_c, 0, 62, 39
2, 10023, Note_on_c, 0, 64, 24
2, 10093, Note_on_c, 0, 62, 0
2, 10149, Note_on_c, 0, 64, 0
2, 10160, Note_on_c, 0, 67, 0
2, 10241, Note_on_c, 0, 67, 43
2, 10241, Note_on_c, 0, 64, 34
2, 10303, Note_on_c, 0, 50, 0
2, 10368, Note_on_c, 0, 67, 0
2, 10369, Note_on_c, 0, 72, 0
2, 10377, Note_on_c, 0, 50, 37
2, 10397, Note_on_c, 0, 64, 0
2, 10425, Note_on_c, 0, 50, 0
2, 10761, Control_c, 0, 64, 0
2, 10769, Note_on_c, 0, 67, 58
2, 10770, Note_on_c, 0, 54, 32
2, 10772, Note_on_c, 0, 62, 47
2, 10773, Note_on_c, 0, 44, 31
2, 10773, Note_on_c, 0, 60, 42
2, 10790, Control_c, 0, 64, 127
2, 10833, Note_on_c, 0, 54, 0
2, 10838, Note_on_c, 0, 62, 0
2, 10850, Note_on_c, 0, 67, 0
2, 10851, Note_on_c, 0, 60, 0
2, 10866, Note_on_c, 0, 44, 0
2, 10914, Note_on_c, 0, 65, 47
2, 10914, Note_on_c, 0, 57, 43
2, 10918, Note_on_c, 0, 60, 55
2, 10919, Note_on_c, 0, 43, 38
2, 10930, Control_c, 0, 64, 0
2, 10983, Control_c, 0, 64, 127
2, 11019, Note_on_c, 0, 57, 0
2, 11027, Note_on_c, 0, 55, 72
2, 11110, Note_on_c, 0, 60, 0
2, 11132, Note_on_c, 0, 65, 0
2, 11148, Note_on_c, 0, 60, 73
2, 11149, Note_on_c, 0, 65, 71
2, 11150, Note_on_c, 0, 57, 63
2, 11300, Note_on_c, 0, 57, 0
2, 11316, Note_on_c, 0, 60, 0
2, 11379, Note_on_c, 0, 55, 0
2, 11445, Note_on_c, 0, 55, 64
2, 11559, Note_on_c, 0, 60, 50
2, 11564, Note_on_c, 0, 57, 25
2, 11586, Note_on_c, 0, 43, 0
2, 11670, Note_on_c, 0, 43, 47
2, 11680, Note_on_c, 0, 57, 0
2, 11683, Note_on_c, 0, 65, 0
2, 11705, Note_on_c, 0, 60, 0
2, 11705, Note_on_c, 0, 55, 0
2, 11707, Note_on_c, 0, 43, 0
2, 11793, Note_on_c, 0, 56, 46
2, 11794, Note_on_c, 0, 65, 51
2, 11798, Note_on_c, 0, 42, 40
2, 11798, Note_on_c, 0, 60, 57
2, 11804, Control_c, 0, 64, 0
2, 11838, Control_c, 0, 64, 127
2, 11899, Note_on_c, 0, 56, 0
2, 11901, Note_on_c, 0, 60, 0
2, 11902, Note_on_c, 0, 65, 0
2, 11915, Note_on_c, 0, 53, 34
2, 12053, Note_on_c, 0, 53, 0
2, 12185, Note_on_c, 0, 42, 0
2, 12366, Note_on_c, 0, 65, 62
2, 12369, Note_on_c, 0, 56, 48
2, 12371, Note_on_c, 0, 42, 40
2, 12373, Note_on_c, 0, 60, 60
2, 12413, Note_on_c, 0, 56, 0
2, 12420, Note_on_c, 0, 65, 0
2, 12420, Note_on_c, 0, 60, 0
2, 12509, Note_on_c, 0, 71, 64
2, 12558, Note_on_c, 0, 71, 0
2, 12567, Note_on_c, 0, 42, 0
2, 12648, Note_on_c, 0, 60, 57
2, 12650, Note_on_c, 0, 41, 45
2, 12650, Note_on_c, 0, 56, 48
2, 12670, Control_c, 0, 64, 0
2, 12698, Control_c, 0, 64, 127
2, 12788, Note_on_c, 0, 65, 57
2, 12826, Note_on_c, 0, 41, 0
2, 12844, Note_on_c, 0, 65, 0
2, 12855, Note_on_c, 0, 60, 0
2, 12888, Note_on_c, 0, 56, 0
2, 12937, Note_on_c, 0, 64, 50
2, 12940, Note_on_c, 0, 57, 43
2, 12942, Note_on_c, 0, 40, 36
2, 12946, Note_on_c, 0, 59, 35
2, 12959, Control_c, 0, 64, 0
2, 13009, Control_c, 0, 64, 127
2, 13031, Note_on_c, 0, 52, 34
2, 13065, Note_on_c, 0, 64, 0
2, 13072, Note_on_c, 0, 57, 0
2, 13109, Note_on_c, 0, 59, 0
2, 13115, Note_on_c, 0, 57, 60
2, 13139, Note_on_c, 0, 57, 0
2, 13158, Note_on_c, 0, 40, 0
2, 13192, Note_on_c, 0, 52, 0
2, 13201, Note_on_c, 0, 76, 82
2, 13293, Note_on_c, 0, 69, 58
2, 13302, Note_on_c, 0, 64, 38
2, 13303, Note_on_c, 0, 71, 36
2, 13381, Note_on_c, 0, 64, 0
2, 13400, Note_on_c, 0, 59, 30
2, 13473, Note_on_c, 0, 69, 0
2, 13493, Note_on_c, 0, 64, 31
2, 13549, Note_on_c, 0, 76, 0
2, 13590, Note_on_c, 0, 64, 0
2, 13592, Note_on_c, 0, 71, 0
2, 13605, Note_on_c, 0, 76, 40
2, 13648, Note_on_c, 0, 76, 0
2, 13743, Note_on_c, 0, 75, 42
2, 13745, Note_on_c, 0, 63, 36
2, 13748, Note_on_c, 0, 59, 0
2, 13749, Note_on_c, 0, 52, 40
2, 13750, Note_on_c, 0, 68, 38
2, 13755, Note_on_c, 0, 72, 35
2, 13770, Control_c, 0, 64, 0
2, 13835, Control_c, 0, 64, 127
2, 13866, Note_on_c, 0, 60, 35
2, 13902, Note_on_c, 0, 63, 0
2, 13950, Note_on_c, 0, 68, 0
2, 13968, Note_on_c, 0, 72, 0
2, 13969, Note_on_c, 0, 63, 33
2, 13999, Note_on_c, 0, 60, 0
2, 14073, Note_on_c, 0, 60, 30
2, 14145, Note_on_c, 0, 63, 0
2, 14209, Note_on_c, 0, 60, 0
2, 14302, Note_on_c, 0, 60, 33
2, 14413, Note_on_c, 0, 63, 30
2, 14443, Note_on_c, 0, 52, 0
2, 14529, Note_on_c, 0, 52, 31
2, 14541, Note_on_c, 0, 60, 0
2, 14569, Note_on_c, 0, 52, 0
2, 14576, Note_on_c, 0, 63, 0
2, 14614, Note_on_c, 0, 75, 0
2, 14653, Note_on_c, 0, 75, 56
2, 14657, Note_on_c, 0, 49, 33
2, 14680, Control_c, 0, 64, 0
2, 14719, Control_c, 0, 64, 127
2, 14747, Note_on_c, 0, 59, 37
2, 14748, Note_on_c, 0, 49, 0
2, 14828, Note_on_c, 0, 59, 0
2, 14832, Note_on_c, 0, 61, 38
2, 14835, Note_on_c, 0, 68, 42
2, 14835, Note_on_c, 0, 64, 39
2, 14924, Note_on_c, 0, 63, 77
2, 14926, Note_on_c, 0, 61, 0
2, 14930, Note_on_c, 0, 64, 0
2, 14949, Note_on_c, 0, 68, 0
2, 15019, Note_on_c, 0, 68, 43
2, 15020, Note_on_c, 0, 64, 53
2, 15120, Note_on_c, 0, 61, 75
2, 15125, Note_on_c, 0, 63, 0
2, 15126, Note_on_c, 0, 64, 0
2, 15139, Note_on_c, 0, 68, 0
2, 15217, Note_on_c, 0, 68, 47
2, 15222, Note_on_c, 0, 64, 45
2, 15284, Note_on_c, 0, 61, 0
2, 15312, Note_on_c, 0, 64, 0
2, 15317, Note_on_c, 0, 61, 38
2, 15329, Note_on_c, 0, 61, 0
2, 15374, Note_on_c, 0, 75, 0
2, 15381, Note_on_c, 0, 68, 0
2, 15504, Note_on_c, 0, 80, 46
2, 15510, Note_on_c, 0, 68, 29
2, 15511, Note_on_c, 0, 48, 36
2, 15530, Control_c, 0, 64, 0
2, 15579, Control_c, 0, 64, 127
2, 15616, Note_on_c, 0, 56, 33
2, 15617, Note_on_c, 0, 80, 0
2, 15635, Note_on_c, 0, 68, 0
2, 15729, Note_on_c, 0, 68, 26
2, 15732, Note_on_c, 0, 63, 32
2, 15733, Note_on_c, 0, 60, 26
2, 15769, Note_on_c, 0, 56, 0
2, 15810, Note_on_c, 0, 60, 0
2, 15830, Note_on_c, 0, 56, 36
2, 15902, Note_on_c, 0, 63, 0
2, 15917, Note_on_c, 0, 68, 0
2, 15929, Note_on_c, 0, 60, 66
2, 16044, Note_on_c, 0, 56, 0
2, 16103, Note_on_c, 0, 56, 48
2, 16144, Note_on_c, 0, 60, 0
2, 16186, Note_on_c, 0, 75, 63
2, 16192, Note_on_c, 0, 63, 67
2, 16203, Note_on_c, 0, 56, 0
2, 16207, Note_on_c, 0, 48, 0
2, 16246, Note_on_c, 0, 75, 0
2, 16263, Note_on_c, 0, 63, 0
2, 16291, Note_on_c, 0, 74, 60
2, 16294, Note_on_c, 0, 47, 40
2, 16312, Control_c, 0, 64, 0
2, 16359, Control_c, 0, 64, 127
2, 16377, Note_on_c, 0, 57, 42
2, 16447, Note_on_c, 0, 62, 62
2, 16492, Note_on_c, 0, 74, 0
2, 16520, Note_on_c, 0, 74, 65
2, 16528, Note_on_c, 0, 72, 36
2, 16536, Note_on_c, 0, 62, 0
2, 16537, Note_on_c, 0, 47, 0
2, 16539, Note_on_c, 0, 72, 0
2, 16574, Note_on_c, 0, 74, 0
2, 16582, Note_on_c, 0, 57, 0
2, 16601, Note_on_c, 0, 74, 39
2, 16606, Note_on_c, 0, 62, 46
2, 16606, Note_on_c, 0, 68, 43
2, 16608, Note_on_c, 0, 46, 38
2, 16625, Control_c, 0, 64, 0
2, 16680, Control_c, 0, 64, 127
2, 16694, Note_on_c, 0, 56, 36
2, 16717, Note_on_c, 0, 62, 0
2, 16781, Note_on_c, 0, 62, 51
2, 16814, Note_on_c, 0, 46, 0
2, 16817, Note_on_c, 0, 74, 0
2, 16849, Note_on_c, 0, 62, 0
2, 16864, Note_on_c, 0, 74, 53
2, 16866, Note_on_c, 0, 46, 35
2, 16891, Note_on_c, 0, 68, 0
2, 16901, Note_on_c, 0, 74, 0
2, 16904, Note_on_c, 0, 56, 0
2, 16918, Note_on_c, 0, 46, 0
2, 16964, Note_on_c, 0, 74, 66
2, 16964, Note_on_c, 0, 67, 64
2, 16965, Note_on_c, 0, 71, 60
2, 16965, Control_c, 0, 64, 0
2, 16967, Note_on_c, 0, 62, 54
2, 16969, Note_on_c, 0, 45, 44
2, 16999, Control_c, 0, 64, 127
2, 17038, Note_on_c, 0, 74, 0
2, 17044, Note_on_c, 0, 71, 0
2, 17050, Note_on_c, 0, 67, 0
2, 17056, Note_on_c, 0, 62, 0
2, 17070, Note_on_c, 0, 55, 47
2, 17128, Note_on_c, 0, 55, 0
2, 17161, Note_on_c, 0, 67, 74
2, 17164, Note_on_c, 0, 59, 72
2, 17171, Note_on_c, 0, 45, 0
2, 17259, Note_on_c, 0, 45, 78
2, 17294, Note_on_c, 0, 59, 0
2, 17339, Note_on_c, 0, 67, 0
2, 17366, Note_on_c, 0, 67, 68
2, 17368, Note_on_c, 0, 59, 68
2, 17369, Note_on_c, 0, 55, 59
2, 17370, Note_on_c, 0, 62, 64
2, 17388, Note_on_c, 0, 45, 0
2, 17473, Note_on_c, 0, 40, 92
2, 17504, Note_on_c, 0, 55, 0
2, 17530, Note_on_c, 0, 59, 0
2, 17541, Note_on_c, 0, 62, 0
2, 17579, Note_on_c, 0, 62, 58
2, 17581, Note_on_c, 0, 59, 65
2, 17583, Note_on_c, 0, 55, 60
2, 17640, Note_on_c, 0, 40, 0
2, 17655, Note_on_c, 0, 59, 0
2, 17669, Note_on_c, 0, 55, 0
2, 17673, Note_on_c, 0, 62, 0
2, 17681, Note_on_c, 0, 67, 0
2, 17694, Note_on_c, 0, 62, 74
2, 17696, Note_on_c, 0, 33, 68
2, 17697, Note_on_c, 0, 55, 77
2, 17719, Note_on_c, 0, 33, 0
2, 17751, Note_on_c, 0, 55, 0
2, 17791, Note_on_c, 0, 62, 0
2, 17826, Note_on_c, 0, 60, 88
2, 17828, Note_on_c, 0, 55, 85
2, 17828, Note_on_c, 0, 44, 74
2, 17829, Note_on_c, 0, 62, 80
2, 17844, Control_c, 0, 64, 0
2, 17852, Note_on_c, 0, 62, 0
2, 17917, Control_c, 0, 64, 127
2, 17983, Note_on_c, 0, 51, 47
2, 18057, Note_on_c, 0, 55, 0
2, 18069, Note_on_c, 0, 60, 0
2, 18126, Note_on_c, 0, 55, 41
2, 18126, Note_on_c, 0, 60, 48
2, 18187, Note_on_c, 0, 55, 0
2, 18246, Note_on_c, 0, 60, 0
2, 18261, Note_on_c, 0, 55, 40
2, 18293, Note_on_c, 0, 51, 0
2, 18385, Note_on_c, 0, 74, 60
2, 18483, Note_on_c, 0, 55, 0
2, 18484, Note_on_c, 0, 51, 37
2, 18545, Note_on_c, 0, 74, 0
2, 18587, Note_on_c, 0, 67, 36
2, 18590, Note_on_c, 0, 60, 35
2, 18595, Note_on_c, 0, 55, 27
2, 18649, Note_on_c, 0, 44, 0
2, 18657, Note_on_c, 0, 51, 0
2, 18668, Note_on_c, 0, 60, 0
2, 18687, Note_on_c, 0, 55, 0
2, 18690, Note_on_c, 0, 69, 54
2, 18742, Note_on_c, 0, 69, 0
2, 18744, Note_on_c, 0, 67, 0
2, 18796, Note_on_c, 0, 74, 54
2, 18803, Note_on_c, 0, 67, 46
2, 18805, Note_on_c, 0, 63, 31
2, 18806, Note_on_c, 0, 62, 42
2, 18808, Note_on_c, 0, 69, 32
2, 18827, Control_c, 0, 64, 0
2, 18866, Control_c, 0, 64, 127
2, 18925, Note_on_c, 0, 50, 34
2, 19032, Note_on_c, 0, 63, 0
2, 19069, Note_on_c, 0, 69, 0
2, 19093, Note_on_c, 0, 74, 0
2, 19223, Note_on_c, 0, 67, 0
2, 19264, Note_on_c, 0, 62, 0
2, 19299, Note_on_c, 0, 74, 55
2, 19301, Note_on_c, 0, 67, 47
2, 19303, Note_on_c, 0, 63, 26
2, 19418, Note_on_c, 0, 62, 48
2, 19464, Note_on_c, 0, 67, 0
2, 19491, Note_on_c, 0, 63, 0
2, 19532, Note_on_c, 0, 74, 0
2, 19534, Note_on_c, 0, 63, 29
2, 19537, Note_on_c, 0, 67, 44
2, 19548, Note_on_c, 0, 50, 0
2, 19654, Note_on_c, 0, 72, 49
2, 19657, Note_on_c, 0, 50, 34
2, 19694, Note_on_c, 0, 50, 0
2, 19701, Note_on_c, 0, 63, 0
2, 19729, Note_on_c, 0, 67, 0
2, 19763, Note_on_c, 0, 72, 0
2, 19786, Note_on_c, 0, 62, 0
2, 19803, Note_on_c, 0, 71, 60
2, 19815, Note_on_c, 0, 52, 29
2, 19836, Control_c, 0, 64, 0
2, 19883, Control_c, 0, 64, 127
2, 19941, Note_on_c, 0, 59, 30
2, 20030, Note_on_c, 0, 71, 0
2, 20134, Note_on_c, 0, 52, 0
2, 20177, Note_on_c, 0, 52, 24
2, 20203, Note_on_c, 0, 59, 0
2, 20268, Note_on_c, 0, 75, 48
2, 20280, Note_on_c, 0, 68, 46
2, 20290, Note_on_c, 0, 60, 41
2, 20300, Control_c, 0, 64, 0
2, 20334, Control_c, 0, 64, 127
2, 20404, Note_on_c, 0, 63, 36
2, 20468, Note_on_c, 0, 52, 0
2, 20648, Note_on_c, 0, 52, 29
2, 20680, Note_on_c, 0, 60, 0
2, 20707, Note_on_c, 0, 63, 0
2, 20731, Note_on_c, 0, 68, 0
2, 20758, Note_on_c, 0, 75, 0
2, 20849, Note_on_c, 0, 52, 0
2, 20915, Note_on_c, 0, 52, 40
2, 21147, Note_on_c, 0, 52, 0
2, 21438, Note_on_c, 0, 62, 79
2, 21452, Note_on_c, 0, 51, 54
2, 21472, Note_on_c, 0, 51, 0
2, 21561, Note_on_c, 0, 62, 0
2, 21662, Note_on_c, 0, 71, 59
2, 21662, Note_on_c, 0, 51, 58
2, 21664, Note_on_c, 0, 67, 57
2, 21665, Note_on_c, 0, 62, 51
2, 21690, Control_c, 0, 64, 0
2, 21744, Control_c, 0, 64, 127
2, 21831, Note_on_c, 0, 62, 0
2, 21834, Note_on_c, 0, 59, 26
2, 21878, Note_on_c, 0, 67, 0
2, 21883, Note_on_c, 0, 71, 0
2, 21979, Note_on_c, 0, 74, 43
2, 21979, Note_on_c, 0, 62, 35
2, 21983, Note_on_c, 0, 67, 44
2, 22076, Note_on_c, 0, 51, 0
2, 22156, Note_on_c, 0, 51, 26
2, 22185, Note_on_c, 0, 62, 0
2, 22193, Note_on_c, 0, 59, 0
2, 22207, Note_on_c, 0, 67, 0
2, 22215, Note_on_c, 0, 74, 0
2, 22240, Note_on_c, 0, 51, 0
2, 22352, Note_on_c, 0, 74, 61
2, 22360, Note_on_c, 0, 66, 40
2, 22360, Note_on_c, 0, 63, 37
2, 22363, Note_on_c, 0, 51, 35
2, 22370, Note_on_c, 0, 62, 45
2, 22373, Control_c, 0, 64, 0
2, 22422, Control_c, 0, 64, 127
2, 22448, Note_on_c, 0, 62, 0
2, 22491, Note_on_c, 0, 61, 46
2, 22563, Note_on_c, 0, 63, 0
2, 22565, Note_on_c, 0, 66, 0
2, 22571, Note_on_c, 0, 61, 0
2, 22581, Note_on_c, 0, 74, 0
2, 22598, Note_on_c, 0, 72, 53
2, 22599, Note_on_c, 0, 63, 40
2, 22599, Note_on_c, 0, 66, 53
2, 22604, Note_on_c, 0, 60, 36
2, 22620, Control_c, 0, 64, 0
2, 22670, Note_on_c, 0, 51, 0
2, 22675, Control_c, 0, 64, 127
2, 22690, Note_on_c, 0, 51, 46
2, 22736, Note_on_c, 0, 66, 0
2, 22742, Note_on_c, 0, 63, 0
2, 22786, Note_on_c, 0, 63, 38
2, 22787, Note_on_c, 0, 66, 52
2, 22952, Note_on_c, 0, 63, 0
2, 22965, Note_on_c, 0, 66, 0
2, 23003, Note_on_c, 0, 63, 37
2, 23035, Note_on_c, 0, 51, 0
2, 23088, Note_on_c, 0, 51, 37
2, 23141, Note_on_c, 0, 63, 0
2, 23151, Note_on_c, 0, 51, 0
2, 23169, Note_on_c, 0, 60, 0
2, 23186, Note_on_c, 0, 50, 51
2, 23202, Control_c, 0, 64, 0
2, 23257, Control_c, 0, 64, 127
2, 23276, Note_on_c, 0, 60, 44
2, 23372, Note_on_c, 0, 66, 43
2, 23377, Note_on_c, 0, 62, 32
2, 23458, Note_on_c, 0, 50, 0
2, 23541, Note_on_c, 0, 50, 60
2, 23544, Note_on_c, 0, 62, 0
2, 23616, Note_on_c, 0, 60, 0
2, 23653, Note_on_c, 0, 66, 0
2, 23661, Note_on_c, 0, 63, 73
2, 23664, Note_on_c, 0, 66, 25
2, 23731, Note_on_c, 0, 63, 0
2, 23734, Note_on_c, 0, 66, 0
2, 23748, Note_on_c, 0, 64, 84
2, 23750, Note_on_c, 0, 72, 0
2, 23752, Note_on_c, 0, 60, 58
2, 23758, Note_on_c, 0, 66, 29
2, 23816, Note_on_c, 0, 64, 0
2, 23833, Note_on_c, 0, 66, 0
2, 23843, Note_on_c, 0, 64, 80
2, 23845, Note_on_c, 0, 50, 0
2, 23934, Note_on_c, 0, 60, 0
2, 23934, Note_on_c, 0, 72, 74
2, 23936, Note_on_c, 0, 50, 47
2, 23954, Note_on_c, 0, 64, 0
2, 23962, Note_on_c, 0, 50, 0
2, 23972, Note_on_c, 0, 72, 0
2, 24051, Note_on_c, 0, 71, 62
2, 24054, Note_on_c, 0, 49, 46
2, 24063, Note_on_c, 0, 63, 28
2, 24070, Control_c, 0, 64, 0
2, 24076, Note_on_c, 0, 63, 0
2, 24151, Control_c, 0, 64, 127
2, 24153, Note_on_c, 0, 54, 34
2, 24221, Note_on_c, 0, 54, 0
2, 24238, Note_on_c, 0, 49, 0
2, 24253, Note_on_c, 0, 63, 38
2, 24253, Note_on_c, 0, 59, 43
2, 24261, Note_on_c, 0, 58, 38
2, 24333, Note_on_c, 0, 59, 0
2, 24339, Note_on_c, 0, 58, 0
2, 24356, Note_on_c, 0, 59, 64
2, 24420, Note_on_c, 0, 63, 0
2, 24434, Note_on_c, 0, 59, 0
2, 24449, Note_on_c, 0, 63, 56
2, 24451, Note_on_c, 0, 59, 55
2, 24452, Note_on_c, 0, 58, 55
2, 24464, Control_c, 0, 64, 0
2, 24477, Control_c, 0, 64, 127
2, 24540, Note_on_c, 0, 56, 63
2, 24544, Note_on_c, 0, 59, 0
2, 24553, Note_on_c, 0, 58, 0
2, 24556, Note_on_c, 0, 63, 0
2, 24630, Note_on_c, 0, 56, 0
2, 24631, Note_on_c, 0, 63, 44
2, 24632, Note_on_c, 0, 59, 50
2, 24769, Note_on_c, 0, 59, 0
2, 24797, Note_on_c, 0, 63, 0
2, 24865, Note_on_c, 0, 63, 30
2, 24867, Note_on_c, 0, 59, 32
2, 24878, Note_on_c, 0, 49, 28
2, 24889, Control_c, 0, 64, 0
2, 24928, Control_c, 0, 64, 127
2, 24964, Note_on_c, 0, 59, 0
2, 24993, Note_on_c, 0, 56, 9
2, 25074, Note_on_c, 0, 59, 50
2, 25078, Note_on_c, 0, 49, 0
2, 25098, Note_on_c, 0, 59, 0
2, 25110, Note_on_c, 0, 63, 0
2, 25136, Note_on_c, 0, 71, 0
2, 25182, Note_on_c, 0, 62, 76
2, 25186, Note_on_c, 0, 56, 0
2, 25188, Note_on_c, 0, 49, 52
2, 25267, Note_on_c, 0, 62, 0
2, 25318, Note_on_c, 0, 67, 66
2, 25319, Note_on_c, 0, 62, 74
2, 25322, Note_on_c, 0, 59, 38
2, 25343, Control_c, 0, 64, 0
2, 25382, Control_c, 0, 64, 127
2, 25408, Note_on_c, 0, 49, 0
2, 25430, Note_on_c, 0, 49, 52
2, 25482, Note_on_c, 0, 59, 0
2, 25485, Note_on_c, 0, 62, 0
2, 25510, Note_on_c, 0, 67, 0
2, 25549, Note_on_c, 0, 62, 57
2, 25559, Note_on_c, 0, 67, 35
2, 25560, Note_on_c, 0, 59, 31
2, 25591, Note_on_c, 0, 67, 0
2, 25673, Note_on_c, 0, 49, 0
2, 25725, Note_on_c, 0, 71, 54
2, 25726, Note_on_c, 0, 49, 36
2, 25733, Note_on_c, 0, 67, 24
2, 25805, Note_on_c, 0, 71, 0
2, 25813, Note_on_c, 0, 67, 0
2, 25844, Note_on_c, 0, 62, 0
2, 25851, Note_on_c, 0, 59, 0
2, 25858, Note_on_c, 0, 49, 0
2, 25982, Note_on_c, 0, 48, 35
2, 25984, Note_on_c, 0, 68, 43
2, 25985, Note_on_c, 0, 64, 64
2, 25985, Note_on_c, 0, 71, 55
2, 26002, Control_c, 0, 64, 0
2, 26049, Control_c, 0, 64, 127
2, 26100, Note_on_c, 0, 56, 31
2, 26171, Note_on_c, 0, 64, 0
2, 26212, Note_on_c, 0, 64, 38
2, 26215, Note_on_c, 0, 59, 34
2, 26274, Note_on_c, 0, 68, 0
2, 26281, Note_on_c, 0, 59, 0
2, 26292, Note_on_c, 0, 48, 0
2, 26298, Note_on_c, 0, 71, 0
2, 26318, Note_on_c, 0, 48, 50
2, 26320, Note_on_c, 0, 69, 72
2, 26382, Note_on_c, 0, 48, 0
2, 26403, Note_on_c, 0, 64, 0
2, 26407, Note_on_c, 0, 69, 0
2, 26429, Note_on_c, 0, 69, 60
2, 26429, Note_on_c, 0, 48, 57
2, 26435, Note_on_c, 0, 56, 0
2, 26448, Control_c, 0, 64, 0
2, 26492, Control_c, 0, 64, 127
2, 26513, Note_on_c, 0, 57, 66
2, 26596, Note_on_c, 0, 64, 70
2, 26598, Note_on_c, 0, 60, 64
2, 26609, Note_on_c, 0, 69, 0
2, 26629, Note_on_c, 0, 48, 0
2, 26685, Note_on_c, 0, 48, 64
2, 26739, Note_on_c, 0, 48, 0
2, 26744, Note_on_c, 0, 60, 0
2, 26760, Note_on_c, 0, 64, 0
2, 26782, Note_on_c, 0, 57, 0
2, 26794, Note_on_c, 0, 64, 50
2, 26794, Note_on_c, 0, 59, 56
2, 26795, Note_on_c, 0, 66, 46
2, 26799, Note_on_c, 0, 47, 46
2, 26808, Control_c, 0, 64, 0
2, 26878, Control_c, 0, 64, 127
2, 26905, Note_on_c, 0, 57, 53
2, 26938, Note_on_c, 0, 59, 0
2, 27011, Note_on_c, 0, 59, 53
2, 27061, Note_on_c, 0, 47, 0
2, 27114, Note_on_c, 0, 47, 46
2, 27140, Note_on_c, 0, 57, 0
2, 27159, Note_on_c, 0, 64, 0
2, 27180, Note_on_c, 0, 59, 0
2, 27238, Note_on_c, 0, 63, 37
2, 27242, Note_on_c, 0, 59, 37
2, 27244, Note_on_c, 0, 57, 33
2, 27246, Control_c, 0, 64, 0
2, 27280, Control_c, 0, 64, 127
2, 27307, Note_on_c, 0, 59, 0
2, 27354, Note_on_c, 0, 58, 72
2, 27358, Note_on_c, 0, 57, 0
2, 27432, Note_on_c, 0, 58, 0
2, 27453, Note_on_c, 0, 59, 65
2, 27454, Note_on_c, 0, 57, 46
2, 27473, Note_on_c, 0, 66, 0
2, 27499, Note_on_c, 0, 47, 0
2, 27544, Note_on_c, 0, 63, 0
2, 27551, Note_on_c, 0, 69, 76
2, 27554, Note_on_c, 0, 47, 34
2, 27570, Note_on_c, 0, 59, 0
2, 27571, Note_on_c, 0, 57, 0
2, 27591, Note_on_c, 0, 47, 0
2, 27592, Note_on_c, 0, 69, 0
2, 27681, Note_on_c, 0, 68, 75
2, 27684, Note_on_c, 0, 46, 54
2, 27684, Note_on_c, 0, 63, 71
2, 27684, Note_on_c, 0, 34, 62
2, 27685, Note_on_c, 0, 60, 76
2, 27692, Control_c, 0, 64, 0
2, 27725, Note_on_c, 0, 34, 0
2, 27726, Control_c, 0, 64, 127
2, 27739, Note_on_c, 0, 46, 0
2, 27744, Note_on_c, 0, 63, 0
2, 27752, Note_on_c, 0, 60, 0
2, 27812, Note_on_c, 0, 68, 0
2, 27827, Note_on_c, 0, 68, 43
2, 27828, Note_on_c, 0, 56, 64
2, 27829, Note_on_c, 0, 46, 54
2, 27829, Note_on_c, 0, 63, 57
2, 27831, Note_on_c, 0, 60, 72
2, 27924, Note_on_c, 0, 60, 0
2, 27925, Note_on_c, 0, 46, 0
2, 27925, Note_on_c, 0, 56, 0
2, 27937, Note_on_c, 0, 63, 0
2, 27939, Note_on_c, 0, 68, 0
2, 27969, Note_on_c, 0, 46, 34
2, 27972, Note_on_c, 0, 68, 49
2, 27974, Note_on_c, 0, 63, 40
2, 27975, Note_on_c, 0, 56, 43
2, 27976, Note_on_c, 0, 53, 49
2, 27977, Note_on_c, 0, 60, 64
2, 28044, Note_on_c, 0, 46, 0
2, 28053, Note_on_c, 0, 53, 0
2, 28055, Note_on_c, 0, 56, 0
2, 28057, Note_on_c, 0, 60, 0
2, 28061, Note_on_c, 0, 68, 0
2, 28070, Note_on_c, 0, 63, 0
2, 28116, Note_on_c, 0, 68, 37
2, 28118, Note_on_c, 0, 46, 34
2, 28119, Note_on_c, 0, 53, 35
2, 28121, Note_on_c, 0, 63, 34
2, 28121, Note_on_c, 0, 56, 25
2, 28124, Note_on_c, 0, 60, 49
2, 28198, Note_on_c, 0, 46, 0
2, 28201, Note_on_c, 0, 60, 0
2, 28204, Note_on_c, 0, 53, 0
2, 28205, Note_on_c, 0, 56, 0
2, 28212, Note_on_c, 0, 63, 0
2, 28219, Note_on_c, 0, 68, 0
2, 28266, Note_on_c, 0, 68, 35
2, 28270, Note_on_c, 0, 56, 25
2, 28271, Note_on_c, 0, 46, 29
2, 28272, Note_on_c, 0, 53, 37
2, 28272, Note_on_c, 0, 63, 31
2, 28276, Note_on_c, 0, 60, 37
2, 28295, Note_on_c, 0, 53, 0
2, 28320, Note_on_c, 0, 46, 0
2, 28409, Note_on_c, 0, 34, 40
2, 28476, Note_on_c, 0, 56, 0
2, 28489, Note_on_c, 0, 60, 0
2, 28562, Note_on_c, 0, 68, 0
2, 28572, Note_on_c, 0, 46, 25
2, 28573, Note_on_c, 0, 56, 19
2, 28577, Note_on_c, 0, 60, 30
2, 28636, Note_on_c, 0, 34, 0
2, 28675, Note_on_c, 0, 46, 0
2, 28704, Note_on_c, 0, 56, 0
2, 28723, Note_on_c, 0, 68, 39
2, 28724, Note_on_c, 0, 60, 0
2, 28744, Note_on_c, 0, 63, 0
2, 28786, Note_on_c, 0, 68, 0
2, 28901, Note_on_c, 0, 68, 31
2, 28903, Note_on_c, 0, 59, 33
2, 28903, Note_on_c, 0, 48, 37
2, 28906, Note_on_c, 0, 64, 35
2, 28915, Control_c, 0, 64, 0
2, 28956, Control_c, 0, 64, 127
2, 28981, Note_on_c, 0, 59, 0
2, 29000, Note_on_c, 0, 64, 0
2, 29006, Note_on_c, 0, 68, 0
2, 29023, Note_on_c, 0, 56, 25
2, 29090, Note_on_c, 0, 48, 0
2, 29110, Note_on_c, 0, 68, 34
2, 29111, Note_on_c, 0, 56, 0
2, 29116, Note_on_c, 0, 76, 37
2, 29126, Note_on_c, 0, 60, 35
2, 29142, Note_on_c, 0, 68, 0
2, 29157, Note_on_c, 0, 76, 0
2, 29200, Note_on_c, 0, 60, 0
2, 29220, Note_on_c, 0, 64, 34
2, 29321, Note_on_c, 0, 64, 0
2, 29324, Note_on_c, 0, 84, 53
2, 29327, Note_on_c, 0, 68, 30
2, 29365, Note_on_c, 0, 68, 0
2, 29389, Note_on_c, 0, 84, 0
2, 29441, Note_on_c, 0, 88, 47
2, 29459, Note_on_c, 0, 68, 25
2, 29580, Note_on_c, 0, 88, 0
2, 29588, Note_on_c, 0, 72, 33
2, 29589, Note_on_c, 0, 76, 29
2, 29591, Note_on_c, 0, 80, 29
2, 29747, Note_on_c, 0, 72, 0
2, 29762, Note_on_c, 0, 68, 0
2, 29764, Note_on_c, 0, 80, 0
2, 29799, Note_on_c, 0, 76, 0
2, 29946, Note_on_c, 0, 67, 36
2, 30051, Note_on_c, 0, 67, 0
2, 30059, Note_on_c, 0, 70, 45
2, 30069, Note_on_c, 0, 53, 20
2, 30088, Control_c, 0, 64, 0
2, 30155, Note_on_c, 0, 67, 31
2, 30159, Note_on_c, 0, 70, 0
2, 30162, Note_on_c, 0, 60, 26
2, 30166, Control_c, 0, 64, 127
2, 30232, Note_on_c, 0, 67, 0
2, 30240, Note_on_c, 0, 65, 44
2, 30244, Note_on_c, 0, 68, 51
2, 30268, Note_on_c, 0, 65, 0
2, 30337, Note_on_c, 0, 65, 55
2, 30362, Note_on_c, 0, 53, 0
2, 30469, Note_on_c, 0, 60, 0
2, 30527, Note_on_c, 0, 68, 0
2, 30535, Note_on_c, 0, 53, 34
2, 30601, Note_on_c, 0, 65, 0
2, 30610, Note_on_c, 0, 60, 56
2, 30630, Note_on_c, 0, 53, 0
2, 30643, Note_on_c, 0, 60, 0
2, 30662, Note_on_c, 0, 65, 69
2, 30705, Note_on_c, 0, 65, 0
2, 30719, Note_on_c, 0, 72, 78
2, 30752, Note_on_c, 0, 72, 0
2, 30779, Note_on_c, 0, 73, 63
2, 30833, Note_on_c, 0, 73, 0
2, 30851, Note_on_c, 0, 73, 27
2, 30856, Note_on_c, 0, 46, 37
2, 30881, Control_c, 0, 64, 0
2, 30943, Control_c, 0, 64, 127
2, 30944, Note_on_c, 0, 57, 34
2, 30953, Note_on_c, 0, 46, 0
2, 31021, Note_on_c, 0, 57, 0
2, 31031, Note_on_c, 0, 61, 35
2, 31032, Note_on_c, 0, 65, 50
2, 31036, Note_on_c, 0, 58, 31
2, 31050, Control_c, 0, 64, 0
2, 31081, Control_c, 0, 64, 127
2, 31128, Note_on_c, 0, 60, 59
2, 31182, Note_on_c, 0, 61, 0
2, 31223, Note_on_c, 0, 65, 0
2, 31223, Note_on_c, 0, 61, 37
2, 31229, Note_on_c, 0, 73, 0
2, 31248, Note_on_c, 0, 58, 0
2, 31302, Note_on_c, 0, 58, 60
2, 31330, Note_on_c, 0, 60, 0
2, 31363, Note_on_c, 0, 61, 0
2, 31375, Note_on_c, 0, 68, 75
2, 31395, Note_on_c, 0, 58, 0
2, 31459, Note_on_c, 0, 61, 56
2, 31462, Note_on_c, 0, 68, 0
2, 31526, Note_on_c, 0, 61, 0
2, 31562, Note_on_c, 0, 67, 55
2, 31562, Note_on_c, 0, 40, 32
2, 31585, Control_c, 0, 64, 0
2, 31652, Control_c, 0, 64, 127
2, 31663, Note_on_c, 0, 50, 40
2, 31742, Note_on_c, 0, 55, 53
2, 31745, Note_on_c, 0, 40, 0
2, 31748, Note_on_c, 0, 67, 0
2, 31784, Note_on_c, 0, 55, 0
2, 31803, Note_on_c, 0, 50, 0
2, 31813, Note_on_c, 0, 59, 60
2, 31852, Note_on_c, 0, 59, 0
2, 31903, Note_on_c, 0, 57, 53
2, 31906, Note_on_c, 0, 62, 52
2, 31907, Note_on_c, 0, 55, 48
2, 31912, Note_on_c, 0, 45, 32
2, 31926, Control_c, 0, 64, 0
2, 32002, Control_c, 0, 64, 127
2, 32007, Note_on_c, 0, 64, 63
2, 32026, Note_on_c, 0, 62, 0
2, 32043, Note_on_c, 0, 55, 0
2, 32064, Note_on_c, 0, 57, 0
2, 32104, Note_on_c, 0, 64, 0
2, 32110, Note_on_c, 0, 61, 45
2, 32115, Note_on_c, 0, 57, 36
2, 32117, Note_on_c, 0, 55, 29
2, 32119, Control_c, 0, 64, 0
2, 32142, Note_on_c, 0, 45, 0
2, 32145, Control_c, 0, 64, 127
2, 32208, Note_on_c, 0, 61, 0
2, 32210, Note_on_c, 0, 45, 35
2, 32210, Note_on_c, 0, 64, 57
2, 32216, Note_on_c, 0, 55, 0
2, 32223, Note_on_c, 0, 57, 0
2, 32237, Note_on_c, 0, 45, 0
2, 32271, Note_on_c, 0, 64, 0
2, 32344, Note_on_c, 0, 67, 54
2, 32346, Note_on_c, 0, 59, 55
2, 32348, Note_on_c, 0, 44, 52
2, 32349, Note_on_c, 0, 55, 51
2, 32350, Note_on_c, 0, 62, 51
2, 32356, Control_c, 0, 64, 0
2, 32414, Control_c, 0, 64, 127
2, 32448, Note_on_c, 0, 55, 0
2, 32460, Note_on_c, 0, 59, 0
2, 32462, Note_on_c, 0, 62, 0
2, 32463, Note_on_c, 0, 52, 48
2, 32474, Note_on_c, 0, 67, 0
2, 32566, Note_on_c, 0, 52, 0
2, 32583, Note_on_c, 0, 72, 75
2, 32585, Note_on_c, 0, 64, 81
2, 32591, Note_on_c, 0, 53, 66
2, 32599, Control_c, 0, 64, 0
2, 32662, Control_c, 0, 64, 127
2, 32725, Note_on_c, 0, 60, 54
2, 32828, Note_on_c, 0, 60, 0
2, 32833, Note_on_c, 0, 64, 0
2, 32873, Note_on_c, 0, 64, 36
2, 32875, Note_on_c, 0, 60, 28
2, 32933, Note_on_c, 0, 53, 0
2, 32996, Note_on_c, 0, 72, 0
2, 32999, Note_on_c, 0, 53, 36
2, 33007, Note_on_c, 0, 64, 0
2, 33028, Note_on_c, 0, 60, 0
2, 33056, Note_on_c, 0, 53, 0
2, 33136, Note_on_c, 0, 60, 47
2, 33137, Note_on_c, 0, 55, 44
2, 33149, Note_on_c, 0, 52, 20
2, 33162, Control_c, 0, 64, 0
2, 33180, Control_c, 0, 64, 127
2, 33217, Note_on_c, 0, 44, 0
2, 33230, Note_on_c, 0, 55, 0
2, 33238, Note_on_c, 0, 67, 71
2, 33244, Note_on_c, 0, 44, 38
2, 33254, Note_on_c, 0, 52, 0
2, 33280, Note_on_c, 0, 60, 0
2, 33282, Note_on_c, 0, 44, 0
2, 33285, Note_on_c, 0, 67, 0
2, 33366, Note_on_c, 0, 65, 72
2, 33368, Note_on_c, 0, 60, 77
2, 33371, Note_on_c, 0, 37, 55
2, 33376, Control_c, 0, 64, 0
2, 33407, Note_on_c, 0, 37, 0
2, 33415, Control_c, 0, 64, 127
2, 33490, Note_on_c, 0, 60, 0
2, 33496, Note_on_c, 0, 65, 0
2, 33515, Note_on_c, 0, 49, 40
2, 33638, Note_on_c, 0, 72, 49
2, 33640, Note_on_c, 0, 65, 56
2, 33645, Note_on_c, 0, 60, 35
2, 33645, Note_on_c, 0, 57, 30
2, 33668, Control_c, 0, 64, 0
2, 33684, Control_c, 0, 64, 127
2, 33762, Note_on_c, 0, 60, 0
2, 33791, Note_on_c, 0, 60, 33
2, 33809, Note_on_c, 0, 65, 0
2, 33821, Note_on_c, 0, 57, 0
2, 33850, Note_on_c, 0, 60, 0
2, 33908, Note_on_c, 0, 72, 0
2, 33916, Note_on_c, 0, 65, 36
2, 33917, Note_on_c, 0, 56, 35
2, 33918, Note_on_c, 0, 68, 27
2, 33919, Note_on_c, 0, 60, 26
2, 33991, Note_on_c, 0, 49, 0
2, 34042, Note_on_c, 0, 49, 46
2, 34049, Note_on_c, 0, 60, 0
2, 34151, Note_on_c, 0, 65, 0
2, 34237, Note_on_c, 0, 68, 0
2, 34248, Note_on_c, 0, 49, 0
2, 34285, Note_on_c, 0, 49, 44
2, 34345, Note_on_c, 0, 49, 0
2, 34359, Note_on_c, 0, 56, 0
2, 34423, Note_on_c, 0, 75, 44
2, 34427, Note_on_c, 0, 68, 42
2, 34431, Note_on_c, 0, 72, 44
2, 34433, Note_on_c, 0, 64, 47
2, 34437, Note_on_c, 0, 63, 33
2, 34442, Control_c, 0, 64, 0
2, 34502, Control_c, 0, 64, 127
2, 34529, Note_on_c, 0, 75, 0
2, 34547, Note_on_c, 0, 54, 42
2, 34556, Note_on_c, 0, 75, 44
2, 34563, Note_on_c, 0, 63, 0
2, 34579, Note_on_c, 0, 54, 0
2, 34681, Note_on_c, 0, 42, 45
2, 34699, Note_on_c, 0, 42, 0
2, 34843, Note_on_c, 0, 30, 39
2, 34994, Note_on_c, 0, 30, 0
2, 35129, Note_on_c, 0, 30, 26
2, 35171, Note_on_c, 0, 75, 0
2, 35187, Note_on_c, 0, 30, 0
2, 35189, Note_on_c, 0, 72, 0
2, 35274, Note_on_c, 0, 73, 39
2, 35337, Note_on_c, 0, 73, 0
2, 35379, Note_on_c, 0, 64, 0
2, 35385, Note_on_c, 0, 73, 37
2, 35396, Note_on_c, 0, 68, 0
2, 35420, Note_on_c, 0, 73, 0
2, 35522, Note_on_c, 0, 63, 50
2, 35536, Note_on_c, 0, 48, 29
2, 35536, Note_on_c, 0, 58, 25
2, 35550, Control_c, 0, 64, 0
2, 35592, Control_c, 0, 64, 127
2, 35614, Note_on_c, 0, 63, 0
2, 35619, Note_on_c, 0, 65, 35
2, 35640, Note_on_c, 0, 63, 49
2, 35647, Control_c, 0, 64, 0
2, 35651, Note_on_c, 0, 65, 0
2, 35678, Note_on_c, 0, 62, 53
2, 35682, Note_on_c, 0, 63, 0
2, 35710, Note_on_c, 0, 62, 0
2, 35722, Note_on_c, 0, 63, 65
2, 35774, Control_c, 0, 64, 127
2, 35787, Note_on_c, 0, 63, 0
2, 35806, Note_on_c, 0, 63, 73
2, 35881, Note_on_c, 0, 63, 0
2, 35894, Note_on_c, 0, 63, 79
2, 35934, Control_c, 0, 64, 0
2, 35979, Note_on_c, 0, 62, 79
2, 35988, Control_c, 0, 64, 127
2, 35999, Note_on_c, 0, 63, 0
2, 36058, Note_on_c, 0, 62, 0
2, 36068, Note_on_c, 0, 63, 79
2, 36075, Note_on_c, 0, 48, 0
2, 36156, Note_on_c, 0, 48, 55
2, 36175, Note_on_c, 0, 58, 0
2, 36187, Note_on_c, 0, 48, 0
2, 36225, Note_on_c, 0, 63, 0
2, 36276, Note_on_c, 0, 67, 62
2, 36280, Note_on_c, 0, 56, 38
2, 36281, Note_on_c, 0, 59, 57
2, 36283, Control_c, 0, 64, 0
2, 36283, Note_on_c, 0, 47, 36
2, 36284, Note_on_c, 0, 62, 45
2, 36320, Control_c, 0, 64, 127
2, 36327, Note_on_c, 0, 56, 0
2, 36335, Note_on_c, 0, 59, 0
2, 36338, Note_on_c, 0, 62, 0
2, 36365, Note_on_c, 0, 67, 0
2, 36380, Note_on_c, 0, 47, 0
2, 36413, Note_on_c, 0, 47, 37
2, 36438, Note_on_c, 0, 47, 0
2, 36694, Note_on_c, 0, 65, 57
2, 36740, Note_on_c, 0, 65, 0
2, 36844, Note_on_c, 0, 77, 61
2, 36852, Note_on_c, 0, 65, 46
2, 36856, Note_on_c, 0, 66, 32
2, 36857, Note_on_c, 0, 69, 38
2, 36978, Note_on_c, 0, 77, 0
2, 37001, Note_on_c, 0, 65, 0
2, 37007, Note_on_c, 0, 77, 44
2, 37017, Note_on_c, 0, 69, 0
2, 37050, Note_on_c, 0, 77, 0
2, 37093, Note_on_c, 0, 66, 0
2, 37148, Note_on_c, 0, 62, 37
2, 37150, Note_on_c, 0, 68, 32
2, 37151, Note_on_c, 0, 65, 36
2, 37219, Note_on_c, 0, 62, 0
2, 37254, Note_on_c, 0, 74, 63
2, 37275, Note_on_c, 0, 65, 0
2, 37282, Note_on_c, 0, 68, 0
2, 37290, Note_on_c, 0, 74, 0
2, 37372, Note_on_c, 0, 73, 44
2, 37377, Note_on_c, 0, 46, 37
2, 37399, Control_c, 0, 64, 0
2, 37449, Control_c, 0, 64, 127
2, 37454, Note_on_c, 0, 56, 37
2, 37540, Note_on_c, 0, 61, 37
2, 37541, Note_on_c, 0, 65, 53
2, 37601, Note_on_c, 0, 56, 0
2, 37633, Note_on_c, 0, 56, 60
2, 37684, Note_on_c, 0, 61, 0
2, 37708, Note_on_c, 0, 65, 0
2, 37744, Note_on_c, 0, 73, 0
2, 37745, Note_on_c, 0, 61, 57
2, 37748, Note_on_c, 0, 65, 54
2, 37804, Note_on_c, 0, 46, 0
2, 37848, Note_on_c, 0, 46, 56
2, 37884, Note_on_c, 0, 61, 0
2, 37906, Note_on_c, 0, 65, 0
2, 37954, Note_on_c, 0, 68, 74
2, 38018, Note_on_c, 0, 46, 0
2, 38023, Note_on_c, 0, 68, 0
2, 38065, Note_on_c, 0, 46, 43
2, 38066, Note_on_c, 0, 72, 67
2, 38075, Note_on_c, 0, 56, 0
2, 38099, Note_on_c, 0, 46, 0
2, 38193, Note_on_c, 0, 72, 0
2, 38215, Note_on_c, 0, 27, 73
2, 38216, Note_on_c, 0, 39, 81
2, 38228, Control_c, 0, 64, 0
2, 38267, Control_c, 0, 64, 127
2, 38363, Note_on_c, 0, 27, 0
2, 38374, Note_on_c, 0, 39, 0
2, 38924, Note_on_c, 0, 77, 49
2, 38928, Note_on_c, 0, 66, 36
2, 38932, Note_on_c, 0, 61, 40
2, 38939, Note_on_c, 0, 55, 43
2, 39021, Note_on_c, 0, 55, 0
2, 39043, Note_on_c, 0, 61, 0
2, 39059, Note_on_c, 0, 66, 0
2, 39061, Note_on_c, 0, 77, 0
2, 39170, Note_on_c, 0, 66, 35
2, 39180, Note_on_c, 0, 77, 43
2, 39181, Note_on_c, 0, 61, 31
2, 39186, Note_on_c, 0, 55, 33
2, 39312, Note_on_c, 0, 66, 0
2, 39322, Note_on_c, 0, 55, 0
2, 39323, Note_on_c, 0, 77, 0
2, 39401, Note_on_c, 0, 61, 0
2, 39691, Note_on_c, 0, 67, 51
2, 39894, Note_on_c, 0, 67, 0
2, 40227, Note_on_c, 0, 42, 27
2, 40233, Note_on_c, 0, 68, 34
2, 40238, Note_on_c, 0, 59, 28
2, 40242, Note_on_c, 0, 64, 42
2, 40269, Control_c, 0, 64, 0
2, 40361, Control_c, 0, 64, 127
2, 40403, Note_on_c, 0, 42, 0
2, 40413, Note_on_c, 0, 52, 32
2, 40512, Note_on_c, 0, 59, 0
2, 40530, Note_on_c, 0, 52, 0
2, 40548, Note_on_c, 0, 64, 0
2, 40559, Note_on_c, 0, 56, 13
2, 40565, Note_on_c, 0, 68, 0
2, 40658, Note_on_c, 0, 59, 46
2, 40758, Note_on_c, 0, 59, 0
2, 40766, Note_on_c, 0, 64, 46
2, 40773, Note_on_c, 0, 76, 75
2, 40775, Note_on_c, 0, 68, 67
2, 40866, Note_on_c, 0, 64, 0
2, 40884, Note_on_c, 0, 59, 38
2, 40936, Note_on_c, 0, 68, 0
2, 40941, Note_on_c, 0, 56, 0
2, 40966, Note_on_c, 0, 76, 0
2, 40987, Note_on_c, 0, 71, 55
2, 41000, Note_on_c, 0, 64, 44
2, 41051, Note_on_c, 0, 71, 0
2, 41094, Note_on_c, 0, 59, 0
2, 41096, Note_on_c, 0, 64, 0
2, 41099, Note_on_c, 0, 56, 42
2, 41129, Note_on_c, 0, 56, 0
2, 41220, Note_on_c, 0, 68, 43
2, 41224, Note_on_c, 0, 59, 39
2, 41227, Note_on_c, 0, 42, 46
2, 41227, Note_on_c, 0, 64, 44
2, 41275, Control_c, 0, 64, 0
2, 41328, Control_c, 0, 64, 127
2, 41342, Note_on_c, 0, 52, 36
2, 41347, Note_on_c, 0, 42, 0
2, 41416, Note_on_c, 0, 52, 0
2, 41431, Note_on_c, 0, 59, 0
2, 41441, Note_on_c, 0, 64, 0
2, 41454, Note_on_c, 0, 56, 57
2, 41561, Note_on_c, 0, 59, 69
2, 41597, Note_on_c, 0, 59, 0
2, 41620, Note_on_c, 0, 68, 0
2, 41680, Note_on_c, 0, 64, 103
2, 41681, Note_on_c, 0, 68, 81
2, 41684, Note_on_c, 0, 59, 42
2, 41737, Note_on_c, 0, 59, 0
2, 41794, Note_on_c, 0, 59, 60
2, 41849, Note_on_c, 0, 59, 0
2, 41867, Note_on_c, 0, 56, 0
2, 41894, Note_on_c, 0, 64, 0
2, 41925, Note_on_c, 0, 64, 65
2, 41926, Note_on_c, 0, 59, 65
2, 41966, Note_on_c, 0, 68, 0
2, 42046, Note_on_c, 0, 68, 67
2, 42068, Note_on_c, 0, 59, 0
2, 42082, Note_on_c, 0, 64, 0
2, 42146, Note_on_c, 0, 68, 0
2, 42185, Note_on_c, 0, 42, 52
2, 42190, Note_on_c, 0, 68, 68
2, 42191, Note_on_c, 0, 65, 74
2, 42193, Note_on_c, 0, 60, 68
2, 42224, Control_c, 0, 64, 0
2, 42308, Control_c, 0, 64, 127
2, 42308, Note_on_c, 0, 48, 66
2, 42377, Note_on_c, 0, 60, 0
2, 42408, Note_on_c, 0, 42, 0
2, 42413, Note_on_c, 0, 48, 0
2, 42422, Note_on_c, 0, 53, 64
2, 42422, Note_on_c, 0, 60, 67
2, 42432, Note_on_c, 0, 68, 0
2, 42447, Note_on_c, 0, 65, 0
2, 42501, Note_on_c, 0, 60, 0
2, 42534, Note_on_c, 0, 56, 42
2, 42536, Note_on_c, 0, 65, 75
2, 42539, Note_on_c, 0, 72, 68
2, 42552, Note_on_c, 0, 53, 0
2, 42600, Note_on_c, 0, 65, 0
2, 42620, Note_on_c, 0, 72, 0
2, 42666, Note_on_c, 0, 60, 53
2, 42778, Note_on_c, 0, 60, 0
2, 42785, Note_on_c, 0, 72, 69
2, 42786, Note_on_c, 0, 79, 70
2, 42790, Note_on_c, 0, 65, 53
2, 42927, Note_on_c, 0, 77, 57
2, 42928, Note_on_c, 0, 79, 0
2, 42938, Note_on_c, 0, 60, 38
2, 43008, Note_on_c, 0, 56, 0
2, 43048, Note_on_c, 0, 65, 0
2, 43060, Note_on_c, 0, 68, 37
2, 43092, Note_on_c, 0, 60, 0
2, 43211, Note_on_c, 0, 42, 40
2, 43326, Note_on_c, 0, 42, 0
2, 43338, Note_on_c, 0, 53, 43
2, 43381, Note_on_c, 0, 53, 0
2, 43467, Note_on_c, 0, 56, 34
2, 43522, Note_on_c, 0, 72, 0
2, 43570, Note_on_c, 0, 60, 57
2, 43580, Note_on_c, 0, 68, 0
2, 43591, Note_on_c, 0, 77, 0
2, 43681, Note_on_c, 0, 67, 82
2, 43684, Note_on_c, 0, 65, 64
2, 43703, Note_on_c, 0, 60, 0
2, 43789, Note_on_c, 0, 67, 0
2, 43800, Note_on_c, 0, 68, 82
2, 43807, Note_on_c, 0, 65, 0
2, 43808, Note_on_c, 0, 60, 62
2, 43844, Note_on_c, 0, 56, 0
2, 43925, Note_on_c, 0, 68, 0
2, 43926, Note_on_c, 0, 67, 72
2, 43952, Note_on_c, 0, 56, 27
2, 43963, Note_on_c, 0, 60, 0
2, 43998, Note_on_c, 0, 56, 0
2, 44067, Note_on_c, 0, 67, 0
2, 44091, Note_on_c, 0, 65, 50
2, 44155, Note_on_c, 0, 65, 0
2, 44232, Note_on_c, 0, 42, 36
2, 44235, Note_on_c, 0, 64, 50
2, 44240, Note_on_c, 0, 68, 34
2, 44266, Control_c, 0, 64, 0
2, 44324, Control_c, 0, 64, 127
2, 44362, Note_on_c, 0, 52, 33
2, 44368, Note_on_c, 0, 42, 0
2, 44400, Note_on_c, 0, 52, 0
2, 44493, Note_on_c, 0, 64, 0
2, 44496, Note_on_c, 0, 59, 39
2, 44684, Note_on_c, 0, 59, 0
2, 44739, Note_on_c, 0, 59, 36
2, 44884, Note_on_c, 0, 59, 0
2, 45090, Note_on_c, 0, 49, 25
2, 45174, Note_on_c, 0, 49, 0
2, 45211, Note_on_c, 0, 42, 37
2, 45238, Control_c, 0, 64, 0
2, 45280, Control_c, 0, 64, 127
2, 45302, Note_on_c, 0, 68, 0
2, 45311, Note_on_c, 0, 59, 31
2, 45340, Note_on_c, 0, 59, 0
2, 45351, Note_on_c, 0, 61, 38
2, 45407, Note_on_c, 0, 61, 0
2, 45407, Note_on_c, 0, 63, 37
2, 45423, Note_on_c, 0, 63, 0
2, 45440, Note_on_c, 0, 64, 57
2, 45472, Note_on_c, 0, 64, 0
2, 45478, Note_on_c, 0, 66, 44
2, 45517, Note_on_c, 0, 68, 26
2, 45521, Note_on_c, 0, 66, 0
2, 45547, Note_on_c, 0, 68, 0
2, 45550, Note_on_c, 0, 70, 49
2, 45562, Note_on_c, 0, 70, 0
2, 45601, Note_on_c, 0, 71, 34
2, 45623, Note_on_c, 0, 71, 0
2, 45643, Note_on_c, 0, 73, 34
2, 45646, Note_on_c, 0, 42, 0
2, 45686, Note_on_c, 0, 73, 0
2, 45687, Note_on_c, 0, 75, 50
2, 45710, Note_on_c, 0, 75, 0
2, 45719, Note_on_c, 0, 76, 64
2, 45733, Note_on_c, 0, 42, 57
2, 45753, Note_on_c, 0, 76, 0
2, 45753, Control_c, 0, 64, 0
2, 45759, Note_on_c, 0, 78, 53
2, 45776, Control_c, 0, 64, 127
2, 45782, Note_on_c, 0, 42, 0
2, 45803, Note_on_c, 0, 78, 0
2, 45809, Note_on_c, 0, 80, 50
2, 45841, Note_on_c, 0, 80, 0
2, 45845, Note_on_c, 0, 82, 46
2, 45853, Note_on_c, 0, 42, 2
2, 45859, Note_on_c, 0, 82, 0
2, 45878, Note_on_c, 0, 83, 49
2, 45906, Note_on_c, 0, 83, 0
2, 45916, Note_on_c, 0, 85, 59
2, 45956, Note_on_c, 0, 85, 0
2, 45960, Note_on_c, 0, 87, 59
2, 45988, Note_on_c, 0, 87, 0
2, 45991, Note_on_c, 0, 52, 32
2, 46006, Note_on_c, 0, 88, 48
2, 46028, Note_on_c, 0, 88, 0
2, 46040, Note_on_c, 0, 90, 42
2, 46075, Note_on_c, 0, 90, 0
2, 46096, Note_on_c, 0, 42, 0
2, 46099, Note_on_c, 0, 92, 18
2, 46130, Note_on_c, 0, 92, 0
2, 46134, Note_on_c, 0, 94, 35
2, 46147, Note_on_c, 0, 94, 0
2, 46156, Note_on_c, 0, 95, 36
2, 46195, Note_on_c, 0, 95, 0
2, 46216, Note_on_c, 0, 52, 0
2, 46221, Note_on_c, 0, 42, 55
2, 46222, Note_on_c, 0, 96, 51
2, 46225, Note_on_c, 0, 89, 49
2, 46233, Control_c, 0, 64, 0
2, 46275, Control_c, 0, 64, 127
2, 46313, Note_on_c, 0, 96, 0
2, 46331, Note_on_c, 0, 89, 0
2, 46354, Note_on_c, 0, 42, 0
2, 46365, Note_on_c, 0, 53, 44
2, 46450, Note_on_c, 0, 53, 0
2, 46510, Note_on_c, 0, 72, 37
2, 46511, Note_on_c, 0, 65, 42
2, 46522, Note_on_c, 0, 68, 32
2, 46522, Note_on_c, 0, 56, 28
2, 46568, Note_on_c, 0, 65, 0
2, 46573, Note_on_c, 0, 68, 0
2, 46599, Note_on_c, 0, 72, 0
2, 46643, Note_on_c, 0, 60, 33
2, 46742, Note_on_c, 0, 60, 0
2, 46776, Note_on_c, 0, 77, 37
2, 46780, Note_on_c, 0, 84, 37
2, 46781, Note_on_c, 0, 65, 28
2, 47065, Note_on_c, 0, 84, 0
2, 47070, Note_on_c, 0, 80, 28
2, 47085, Note_on_c, 0, 72, 19
2, 47104, Note_on_c, 0, 77, 0
2, 47112, Note_on_c, 0, 72, 0
2, 47113, Note_on_c, 0, 80, 0
2, 47134, Note_on_c, 0, 65, 0
2, 47204, Note_on_c, 0, 60, 33
2, 47221, Note_on_c, 0, 60, 0
2, 47237, Note_on_c, 0, 56, 0
2, 47389, Note_on_c, 0, 68, 28
2, 47392, Note_on_c, 0, 72, 32
2, 47394, Note_on_c, 0, 65, 30
2, 47399, Note_on_c, 0, 60, 20
2, 47402, Note_on_c, 0, 42, 18
2, 47438, Control_c, 0, 64, 0
2, 47533, Control_c, 0, 64, 127
2, 47540, Note_on_c, 0, 42, 0
2, 47549, Note_on_c, 0, 53, 19
2, 47622, Note_on_c, 0, 60, 0
2, 47650, Note_on_c, 0, 65, 0
2, 47666, Note_on_c, 0, 53, 0
2, 47711, Note_on_c, 0, 56, 14
2, 47767, Note_on_c, 0, 68, 0
2, 47847, Note_on_c, 0, 60, 25
2, 48005, Note_on_c, 0, 68, 25
2, 48005, Note_on_c, 0, 65, 30
2, 48262, Note_on_c, 0, 56, 0
2, 48271, Note_on_c, 0, 60, 0
2, 48447, Note_on_c, 0, 56, 19
2, 48732, Note_on_c, 0, 56, 50
2, 48732, Note_on_c, 0, 68, 70
2, 48764, Note_on_c, 0, 65, 0
2, 48764, Note_on_c, 0, 68, 0
2, 48766, Note_on_c, 0, 56, 0
2, 48775, Note_on_c, 0, 68, 0
2, 48780, Note_on_c, 0, 72, 0
2, 48790, Note_on_c, 0, 56, 0
2, 48791, Control_c, 0, 64, 0
2, 48856, Note_on_c, 0, 72, 80
2, 48859, Note_on_c, 0, 60, 66
2, 48890, Note_on_c, 0, 60, 0
2, 48900, Note_on_c, 0, 72, 0
2, 48984, Note_on_c, 0, 70, 75
2, 48992, Note_on_c, 0, 58, 51
2, 49413, Note_on_c, 0, 68, 39
2, 49424, Note_on_c, 0, 58, 0
2, 49427, Note_on_c, 0, 56, 35
2, 49430, Note_on_c, 0, 70, 0
2, 49447, Note_on_c, 0, 68, 0
2, 49448, Note_on_c, 0, 56, 0
2, 49462, Note_on_c, 0, 67, 57
2, 49470, Note_on_c, 0, 55, 43
2, 49636, Note_on_c, 0, 67, 0
2, 49654, Note_on_c, 0, 65, 61
2, 49656, Note_on_c, 0, 55, 0
2, 49664, Note_on_c, 0, 53, 37
2, 49684, Note_on_c, 0, 53, 0
2, 49695, Note_on_c, 0, 65, 0
2, 49702, Note_on_c, 0, 51, 33
2, 49706, Note_on_c, 0, 63, 45
2, 49850, Note_on_c, 0, 63, 0
2, 49872, Note_on_c, 0, 51, 0
2, 49881, Note_on_c, 0, 61, 37
2, 49892, Note_on_c, 0, 49, 31
2, 49918, Note_on_c, 0, 49, 0
2, 49924, Note_on_c, 0, 61, 0
2, 49932, Note_on_c, 0, 48, 45
2, 49946, Note_on_c, 0, 60, 30
2, 50050, Note_on_c, 0, 49, 42
2, 50052, Note_on_c, 0, 61, 48
2, 50063, Note_on_c, 0, 60, 0
2, 50080, Note_on_c, 0, 48, 0
2, 50131, Note_on_c, 0, 61, 0
2, 50158, Note_on_c, 0, 49, 0
2, 50179, Note_on_c, 0, 63, 33
2, 50182, Note_on_c, 0, 51, 35
2, 50342, Note_on_c, 0, 51, 0
2, 50374, Note_on_c, 0, 48, 35
2, 50378, Note_on_c, 0, 63, 0
2, 50395, Note_on_c, 0, 48, 0
2, 50420, Note_on_c, 0, 55, 40
2, 50433, Note_on_c, 0, 43, 29
2, 50492, Note_on_c, 0, 43, 0
2, 50493, Note_on_c, 0, 55, 0
2, 50543, Note_on_c, 0, 55, 46
2, 50546, Note_on_c, 0, 43, 37
2, 51080, Note_on_c, 0, 43, 0
2, 51139, Note_on_c, 0, 44, 44
2, 51139, Note_on_c, 0, 56, 55
2, 51140, Note_on_c, 0, 55, 0
2, 51195, Note_on_c, 0, 44, 0
2, 51196, Note_on_c, 0, 56, 0
2, 51212, Note_on_c, 0, 58, 53
2, 51241, Note_on_c, 0, 48, 25
2, 51251, Note_on_c, 0, 58, 0
2, 51278, Note_on_c, 0, 60, 40
2, 51326, Note_on_c, 0, 60, 0
2, 51329, Note_on_c, 0, 63, 39
2, 51331, Note_on_c, 0, 48, 0
2, 51384, Note_on_c, 0, 63, 0
2, 51400, Note_on_c, 0, 64, 41
2, 51400, Note_on_c, 0, 52, 25
2, 51435, Note_on_c, 0, 64, 0
2, 51447, Note_on_c, 0, 52, 0
2, 51454, Note_on_c, 0, 67, 88
2, 51470, Note_on_c, 0, 55, 49
2, 51491, Note_on_c, 0, 55, 0
2, 51508, Note_on_c, 0, 67, 0
2, 51520, Note_on_c, 0, 64, 29
2, 51525, Note_on_c, 0, 52, 30
2, 51564, Note_on_c, 0, 64, 0
2, 51575, Note_on_c, 0, 65, 75
2, 51580, Note_on_c, 0, 52, 0
2, 51583, Note_on_c, 0, 53, 59
2, 51623, Note_on_c, 0, 53, 0
2, 51631, Note_on_c, 0, 64, 57
2, 51633, Note_on_c, 0, 52, 40
2, 51635, Note_on_c, 0, 65, 0
2, 51772, Note_on_c, 0, 52, 0
2, 51779, Note_on_c, 0, 64, 0
2, 52091, Note_on_c, 0, 50, 46
2, 52092, Note_on_c, 0, 62, 80
2, 52145, Note_on_c, 0, 50, 0
2, 52154, Note_on_c, 0, 62, 0
2, 52169, Note_on_c, 0, 47, 35
2, 52172, Note_on_c, 0, 59, 40
2, 52190, Note_on_c, 0, 59, 0
2, 52196, Note_on_c, 0, 47, 0
2, 52221, Note_on_c, 0, 48, 37
2, 52232, Note_on_c, 0, 60, 35
2, 52274, Note_on_c, 0, 60, 0
2, 52278, Note_on_c, 0, 48, 0
2, 52284, Note_on_c, 0, 62, 64
2, 52302, Note_on_c, 0, 50, 32
2, 52316, Note_on_c, 0, 62, 0
2, 52318, Note_on_c, 0, 50, 0
2, 52341, Note_on_c, 0, 51, 42
2, 52343, Note_on_c, 0, 63, 67
2, 52449, Note_on_c, 0, 51, 0
2, 52458, Note_on_c, 0, 48, 30
2, 52458, Note_on_c, 0, 60, 46
2, 52470, Note_on_c, 0, 63, 0
2, 52498, Note_on_c, 0, 48, 0
2, 52547, Note_on_c, 0, 60, 0
2, 52586, Note_on_c, 0, 56, 64
2, 52591, Note_on_c, 0, 44, 45
2, 53172, Note_on_c, 0, 56, 0
2, 53298, Note_on_c, 0, 44, 0
2, 53422, Note_on_c, 0, 65, 96
2, 53422, Note_on_c, 0, 53, 78
2, 53602, Note_on_c, 0, 65, 0
2, 53609, Note_on_c, 0, 53, 0
2, 53613, Note_on_c, 0, 62, 66
2, 53619, Note_on_c, 0, 50, 51
2, 53758, Note_on_c, 0, 50, 0
2, 53762, Note_on_c, 0, 62, 0
2, 53779, Note_on_c, 0, 58, 56
2, 53781, Note_on_c, 0, 46, 32
2, 54019, Note_on_c, 0, 58, 0
2, 54022, Note_on_c, 0, 46, 0
2, 54125, Note_on_c, 0, 56, 64
2, 54131, Note_on_c, 0, 44, 47
2, 54187, Note_on_c, 0, 44, 0
2, 54190, Note_on_c, 0, 56, 0
2, 54260, Note_on_c, 0, 55, 55
2, 54260, Note_on_c, 0, 43, 32
2, 54420, Note_on_c, 0, 55, 0
2, 54422, Note_on_c, 0, 43, 0
2, 54447, Note_on_c, 0, 48, 24
2, 54450, Note_on_c, 0, 60, 41
2, 54472, Note_on_c, 0, 60, 0
2, 54501, Note_on_c, 0, 48, 0
2, 54501, Note_on_c, 0, 63, 51
2, 54505, Note_on_c, 0, 51, 40
2, 54607, Note_on_c, 0, 51, 0
2, 54706, Note_on_c, 0, 63, 0
2, 54719, Note_on_c, 0, 48, 24
2, 54739, Note_on_c, 0, 48, 0
2, 54741, Note_on_c, 0, 62, 54
2, 54747, Note_on_c, 0, 50, 40
2, 54911, Note_on_c, 0, 50, 0
2, 54925, Note_on_c, 0, 45, 36
2, 54928, Note_on_c, 0, 62, 0
2, 54928, Note_on_c, 0, 57, 40
2, 54954, Note_on_c, 0, 45, 0
2, 54971, Note_on_c, 0, 57, 0
2, 54983, Note_on_c, 0, 42, 32
2, 54984, Note_on_c, 0, 54, 34
2, 55181, Note_on_c, 0, 54, 0
2, 55208, Note_on_c, 0, 42, 0
2, 55221, Note_on_c, 0, 47, 46
2, 55230, Note_on_c, 0, 59, 33
2, 55283, Note_on_c, 0, 59, 0
2, 55286, Note_on_c, 0, 47, 0
2, 55293, Note_on_c, 0, 58, 40
2, 55303, Note_on_c, 0, 46, 33
2, 55325, Note_on_c, 0, 58, 0
2, 55343, Note_on_c, 0, 59, 38
2, 55346, Note_on_c, 0, 46, 0
2, 55350, Note_on_c, 0, 47, 42
2, 55402, Note_on_c, 0, 59, 0
2, 55406, Note_on_c, 0, 47, 0
2, 55414, Note_on_c, 0, 60, 55
2, 55430, Note_on_c, 0, 48, 26
2, 55448, Note_on_c, 0, 60, 0
2, 55455, Note_on_c, 0, 48, 0
2, 55468, Note_on_c, 0, 62, 54
2, 55475, Note_on_c, 0, 50, 35
2, 55519, Note_on_c, 0, 62, 0
2, 55534, Note_on_c, 0, 50, 0
2, 55574, Note_on_c, 0, 50, 39
2, 55576, Note_on_c, 0, 62, 55
2, 55943, Note_on_c, 0, 50, 0
2, 55958, Note_on_c, 0, 62, 0
2, 56177, Note_on_c, 0, 64, 65
2, 56181, Note_on_c, 0, 76, 94
2, 56248, Note_on_c, 0, 76, 0
2, 56258, Note_on_c, 0, 64, 0
2, 56301, Note_on_c, 0, 72, 62
2, 56304, Note_on_c, 0, 60, 44
2, 56377, Note_on_c, 0, 60, 0
2, 56382, Note_on_c, 0, 72, 0
2, 56420, Note_on_c, 0, 69, 37
2, 56431, Note_on_c, 0, 57, 36
2, 56503, Note_on_c, 0, 69, 0
2, 56529, Note_on_c, 0, 57, 0
2, 56548, Note_on_c, 0, 67, 35
2, 56563, Note_on_c, 0, 55, 20
2, 56580, Note_on_c, 0, 55, 0
2, 56626, Note_on_c, 0, 67, 0
2, 56661, Note_on_c, 0, 54, 35
2, 56668, Note_on_c, 0, 66, 35
2, 56734, Note_on_c, 0, 66, 0
2, 56817, Note_on_c, 0, 54, 0
2, 56842, Note_on_c, 0, 76, 75
2, 56849, Note_on_c, 0, 64, 41
2, 56898, Note_on_c, 0, 76, 0
2, 56905, Note_on_c, 0, 74, 56
2, 56908, Note_on_c, 0, 64, 0
2, 56914, Note_on_c, 0, 62, 48
2, 56973, Note_on_c, 0, 74, 0
2, 56980, Note_on_c, 0, 62, 0
2, 57014, Note_on_c, 0, 72, 52
2, 57051, Note_on_c, 0, 60, 19
2, 57099, Note_on_c, 0, 72, 0
2, 57108, Note_on_c, 0, 60, 0
2, 57138, Note_on_c, 0, 71, 46
2, 57152, Note_on_c, 0, 59, 33
2, 57315, Note_on_c, 0, 72, 46
2, 57316, Note_on_c, 0, 71, 0
2, 57319, Note_on_c, 0, 59, 0
2, 57341, Note_on_c, 0, 72, 0
2, 57368, Note_on_c, 0, 74, 45
2, 57378, Note_on_c, 0, 62, 34
2, 57460, Note_on_c, 0, 74, 0
2, 57464, Note_on_c, 0, 62, 0
2, 57494, Note_on_c, 0, 71, 42
2, 57504, Note_on_c, 0, 59, 24
2, 57581, Note_on_c, 0, 59, 0
2, 57628, Note_on_c, 0, 71, 0
2, 58089, Note_on_c, 0, 54, 46
2, 58094, Note_on_c, 0, 69, 68
2, 58134, Note_on_c, 0, 69, 0
2, 58164, Note_on_c, 0, 71, 55
2, 58167, Note_on_c, 0, 55, 44
2, 58197, Note_on_c, 0, 54, 0
2, 58204, Note_on_c, 0, 55, 0
2, 58214, Note_on_c, 0, 71, 0
2, 58216, Note_on_c, 0, 72, 53
2, 58216, Note_on_c, 0, 57, 49
2, 58241, Note_on_c, 0, 57, 0
2, 58260, Note_on_c, 0, 72, 0
2, 58454, Note_on_c, 0, 51, 50
2, 58457, Note_on_c, 0, 66, 47
2, 58515, Note_on_c, 0, 66, 0
2, 58521, Note_on_c, 0, 67, 58
2, 58547, Note_on_c, 0, 51, 0
2, 58564, Note_on_c, 0, 67, 0
2, 58574, Note_on_c, 0, 54, 60
2, 58580, Note_on_c, 0, 69, 60
2, 58611, Note_on_c, 0, 54, 0
2, 58614, Note_on_c, 0, 69, 0
2, 59059, Note_on_c, 0, 52, 61
2, 59060, Note_on_c, 0, 68, 77
2, 59120, Note_on_c, 0, 52, 0
2, 59133, Note_on_c, 0, 69, 63
2, 59134, Note_on_c, 0, 54, 35
2, 59145, Note_on_c, 0, 68, 0
2, 59168, Note_on_c, 0, 54, 0
2, 59172, Note_on_c, 0, 69, 0
2, 59176, Note_on_c, 0, 56, 55
2, 59176, Note_on_c, 0, 71, 66
2, 59215, Note_on_c, 0, 56, 0
2, 59223, Note_on_c, 0, 71, 0
2, 59762, Note_on_c, 0, 60, 55
2, 59767, Note_on_c, 0, 76, 71
2, 59812, Note_on_c, 0, 60, 0
2, 59828, Note_on_c, 0, 78, 51
2, 59834, Note_on_c, 0, 62, 42
2, 59836, Note_on_c, 0, 76, 0
2, 59870, Note_on_c, 0, 78, 0
2, 59876, Note_on_c, 0, 79, 50
2, 59886, Note_on_c, 0, 62, 0
2, 59891, Note_on_c, 0, 64, 55
2, 59939, Note_on_c, 0, 79, 0
2, 59956, Note_on_c, 0, 64, 0
2, 60010, Note_on_c, 0, 65, 36
2, 60011, Note_on_c, 0, 80, 52
2, 60196, Note_on_c, 0, 79, 50
2, 60197, Note_on_c, 0, 65, 0
2, 60208, Note_on_c, 0, 80, 0
2, 60235, Note_on_c, 0, 79, 0
2, 60252, Note_on_c, 0, 77, 36
2, 60260, Note_on_c, 0, 63, 25
2, 60405, Note_on_c, 0, 63, 0
2, 60436, Note_on_c, 0, 62, 35
2, 60452, Note_on_c, 0, 77, 0
2, 60454, Note_on_c, 0, 62, 0
2, 60456, Note_on_c, 0, 75, 42
2, 60494, Note_on_c, 0, 61, 30
2, 60496, Note_on_c, 0, 75, 0
2, 60509, Note_on_c, 0, 73, 36
2, 60674, Note_on_c, 0, 61, 0
2, 60691, Note_on_c, 0, 73, 0
2, 60691, Note_on_c, 0, 72, 52
2, 60693, Note_on_c, 0, 60, 32
2, 60715, Note_on_c, 0, 60, 0
2, 60723, Note_on_c, 0, 72, 0
2, 60746, Note_on_c, 0, 58, 36
2, 60753, Note_on_c, 0, 70, 39
2, 60877, Note_on_c, 0, 58, 0
2, 60921, Note_on_c, 0, 70, 0
2, 60941, Note_on_c, 0, 68, 35
2, 60976, Note_on_c, 0, 68, 0
2, 60990, Note_on_c, 0, 67, 43
2, 61144, Note_on_c, 0, 67, 0
2, 61175, Note_on_c, 0, 65, 56
2, 61212, Note_on_c, 0, 65, 0
2, 61232, Note_on_c, 0, 63, 42
2, 61366, Note_on_c, 0, 63, 0
2, 61401, Note_on_c, 0, 61, 51
2, 61446, Note_on_c, 0, 61, 0
2, 61464, Note_on_c, 0, 60, 40
2, 61628, Note_on_c, 0, 60, 0
2, 61636, Note_on_c, 0, 58, 57
2, 61686, Note_on_c, 0, 58, 0
2, 61701, Note_on_c, 0, 56, 43
2, 61849, Note_on_c, 0, 56, 0
2, 61883, Note_on_c, 0, 55, 56
2, 61918, Note_on_c, 0, 55, 0
2, 61939, Note_on_c, 0, 53, 38
2, 62014, Note_on_c, 0, 44, 40
2, 62015, Note_on_c, 0, 37, 32
2, 62030, Note_on_c, 0, 37, 0
2, 62035, Note_on_c, 0, 44, 0
2, 62049, Note_on_c, 0, 56, 44
2, 62063, Note_on_c, 0, 53, 0
2, 62150, Note_on_c, 0, 56, 0
2, 62178, Note_on_c, 0, 60, 48
2, 62266, Note_on_c, 0, 60, 0
2, 62288, Note_on_c, 0, 63, 71
2, 62318, Note_on_c, 0, 63, 0
2, 62410, Note_on_c, 0, 75, 74
2, 62411, Note_on_c, 0, 68, 81
2, 62487, Note_on_c, 0, 75, 0
2, 62496, Note_on_c, 0, 68, 0
2, 62530, Note_on_c, 0, 72, 49
2, 62538, Note_on_c, 0, 64, 35
2, 62576, Note_on_c, 0, 64, 0
2, 62595, Note_on_c, 0, 72, 0
2, 62647, Note_on_c, 0, 75, 64
2, 62654, Note_on_c, 0, 68, 59
2, 62746, Note_on_c, 0, 75, 0
2, 62781, Note_on_c, 0, 72, 45
2, 62812, Note_on_c, 0, 68, 0
2, 62829, Note_on_c, 0, 72, 0
2, 63138, Note_on_c, 0, 75, 77
2, 63140, Note_on_c, 0, 63, 67
2, 63224, Note_on_c, 0, 63, 0
2, 63240, Note_on_c, 0, 75, 0
2, 63253, Note_on_c, 0, 72, 46
2, 63267, Note_on_c, 0, 60, 25
2, 63286, Note_on_c, 0, 72, 0
2, 63293, Note_on_c, 0, 60, 0
2, 63377, Note_on_c, 0, 75, 80
2, 63383, Note_on_c, 0, 62, 77
2, 63479, Note_on_c, 0, 75, 0
2, 63502, Note_on_c, 0, 62, 0
2, 63509, Note_on_c, 0, 71, 35
2, 63544, Note_on_c, 0, 71, 0
2, 63619, Note_on_c, 0, 74, 68
2, 63624, Note_on_c, 0, 59, 37
2, 63740, Note_on_c, 0, 59, 0
2, 63740, Note_on_c, 0, 56, 32
2, 63746, Note_on_c, 0, 74, 0
2, 63747, Note_on_c, 0, 68, 28
2, 63766, Note_on_c, 0, 71, 22
2, 63772, Note_on_c, 0, 68, 0
2, 63784, Note_on_c, 0, 71, 0
2, 63803, Note_on_c, 0, 56, 0
2, 63860, Note_on_c, 0, 58, 45
2, 63862, Note_on_c, 0, 73, 56
2, 63940, Note_on_c, 0, 58, 0
2, 63975, Note_on_c, 0, 53, 33
2, 63981, Note_on_c, 0, 65, 34
2, 63997, Note_on_c, 0, 73, 0
2, 64007, Note_on_c, 0, 65, 0
2, 64034, Note_on_c, 0, 53, 0
2, 64086, Note_on_c, 0, 58, 40
2, 64096, Note_on_c, 0, 70, 49
2, 64140, Note_on_c, 0, 58, 0
2, 64204, Note_on_c, 0, 61, 50
2, 64219, Note_on_c, 0, 53, 32
2, 64242, Note_on_c, 0, 61, 0
2, 64282, Note_on_c, 0, 53, 0
2, 64284, Note_on_c, 0, 70, 0
2, 64341, Note_on_c, 0, 67, 49
2, 64343, Note_on_c, 0, 55, 24
2, 64410, Note_on_c, 0, 55, 0
2, 64438, Note_on_c, 0, 67, 0
2, 64449, Note_on_c, 0, 61, 39
2, 64452, Note_on_c, 0, 51, 31
2, 64477, Note_on_c, 0, 61, 0
2, 64500, Note_on_c, 0, 51, 0
2, 64582, Note_on_c, 0, 63, 36
2, 64688, Note_on_c, 0, 55, 41
2, 64694, Note_on_c, 0, 45, 33
2, 64720, Note_on_c, 0, 45, 0
2, 64736, Note_on_c, 0, 55, 0
2, 64763, Note_on_c, 0, 63, 0
2, 64811, Note_on_c, 0, 44, 28
2, 64817, Note_on_c, 0, 51, 27
2, 64822, Note_on_c, 0, 60, 36
2, 65160, Note_on_c, 0, 60, 0
2, 65195, Note_on_c, 0, 44, 0
2, 65224, Note_on_c, 0, 51, 0
2, 65295, Note_on_c, 0, 65, 75
2, 65296, Note_on_c, 0, 70, 68
2, 65298, Note_on_c, 0, 55, 47
2, 65299, Note_on_c, 0, 61, 71
2, 65383, Note_on_c, 0, 70, 0
2, 65387, Note_on_c, 0, 61, 0
2, 65391, Note_on_c, 0, 65, 0
2, 65398, Note_on_c, 0, 55, 0
2, 65410, Note_on_c, 0, 61, 31
2, 65413, Note_on_c, 0, 72, 60
2, 65422, Note_on_c, 0, 65, 24
2, 65425, Note_on_c, 0, 56, 25
2, 65434, Note_on_c, 0, 61, 0
2, 65436, Note_on_c, 0, 65, 0
2, 65436, Note_on_c, 0, 70, 27
2, 65454, Note_on_c, 0, 56, 0
2, 65458, Note_on_c, 0, 72, 0
2, 65468, Note_on_c, 0, 70, 0
2, 65531, Note_on_c, 0, 73, 47
2, 65534, Note_on_c, 0, 58, 42
2, 65536, Note_on_c, 0, 70, 48
2, 65537, Note_on_c, 0, 64, 56
2, 65537, Note_on_c, 0, 68, 44
2, 65570, Note_on_c, 0, 64, 0
2, 65582, Note_on_c, 0, 73, 0
2, 65586, Note_on_c, 0, 68, 0
2, 65593, Note_on_c, 0, 70, 0
2, 65608, Note_on_c, 0, 58, 0
2, 65658, Note_on_c, 0, 48, 62
2, 65659, Note_on_c, 0, 75, 71
2, 65662, Note_on_c, 0, 68, 74
2, 65666, Note_on_c, 0, 64, 62
2, 65680, Note_on_c, 0, 64, 0
2, 65687, Note_on_c, 0, 68, 0
2, 65691, Note_on_c, 0, 75, 0
2, 65691, Note_on_c, 0, 48, 0
2, 66009, Note_on_c, 0, 79, 91
2, 66062, Note_on_c, 0, 79, 0
2, 66206, Note_on_c, 0, 77, 57
2, 66243, Note_on_c, 0, 77, 0
2, 66261, Note_on_c, 0, 72, 47
2, 66261, Note_on_c, 0, 61, 27
2, 66266, Note_on_c, 0, 56, 29
2, 66269, Note_on_c, 0, 60, 34
2, 66269, Note_on_c, 0, 65, 19
2, 66544, Note_on_c, 0, 72, 0
2, 66568, Note_on_c, 0, 73, 65
2, 66601, Note_on_c, 0, 73, 0
2, 66610, Note_on_c, 0, 60, 0
2, 66619, Note_on_c, 0, 65, 0
2, 66621, Note_on_c, 0, 74, 72
2, 66622, Note_on_c, 0, 61, 0
2, 66660, Note_on_c, 0, 56, 0
2, 66676, Note_on_c, 0, 74, 0
2, 66691, Note_on_c, 0, 75, 74
2, 66729, Note_on_c, 0, 75, 0
2, 66747, Note_on_c, 0, 74, 37
2, 66749, Note_on_c, 0, 61, 33
2, 66751, Note_on_c, 0, 55, 33
2, 66760, Note_on_c, 0, 65, 17
2, 66779, Note_on_c, 0, 65, 0
2, 66780, Note_on_c, 0, 55, 0
2, 66782, Note_on_c, 0, 74, 0
2, 66786, Note_on_c, 0, 61, 0
2, 66937, Note_on_c, 0, 65, 33
2, 66941, Note_on_c, 0, 61, 25
2, 66948, Note_on_c, 0, 65, 0
2, 66954, Note_on_c, 0, 61, 0
2, 67046, Note_on_c, 0, 73, 71
2, 67083, Note_on_c, 0, 73, 0
2, 67094, Note_on_c, 0, 72, 50
2, 67153, Note_on_c, 0, 72, 0
2, 67178, Note_on_c, 0, 60, 35
2, 67181, Note_on_c, 0, 63, 29
2, 67188, Note_on_c, 0, 58, 35
2, 67194, Note_on_c, 0, 63, 0
2, 67209, Note_on_c, 0, 70, 67
2, 67217, Note_on_c, 0, 60, 0
2, 67270, Note_on_c, 0, 70, 0
2, 67286, Note_on_c, 0, 72, 73
2, 67291, Note_on_c, 0, 70, 28
2, 67303, Note_on_c, 0, 70, 0
2, 67314, Note_on_c, 0, 58, 0
2, 67323, Note_on_c, 0, 72, 0
2, 67342, Note_on_c, 0, 67, 44
2, 67393, Note_on_c, 0, 67, 0
2, 67406, Note_on_c, 0, 64, 45
2, 67412, Note_on_c, 0, 58, 23
2, 67416, Note_on_c, 0, 53, 22
2, 67427, Note_on_c, 0, 58, 0
2, 67436, Note_on_c, 0, 53, 0
2, 67436, Note_on_c, 0, 64, 0
2, 67462, Note_on_c, 0, 60, 31
2, 67547, Note_on_c, 0, 60, 0
2, 67570, Note_on_c, 0, 60, 45
2, 67784, Note_on_c, 0, 60, 0
2, 67799, Note_on_c, 0, 49, 42
2, 67801, Note_on_c, 0, 65, 62
2, 67803, Note_on_c, 0, 57, 36
2, 67863, Note_on_c, 0, 65, 0
2, 67881, Note_on_c, 0, 69, 92
2, 67890, Note_on_c, 0, 67, 36
2, 67902, Note_on_c, 0, 67, 0
2, 67922, Note_on_c, 0, 69, 0
2, 67940, Note_on_c, 0, 72, 91
2, 68005, Note_on_c, 0, 72, 0
2, 68010, Note_on_c, 0, 69, 44
2, 68023, Note_on_c, 0, 49, 0
2, 68037, Note_on_c, 0, 69, 0
2, 68039, Note_on_c, 0, 57, 0
2, 68057, Note_on_c, 0, 70, 63
2, 68125, Note_on_c, 0, 68, 52
2, 68133, Note_on_c, 0, 70, 0
2, 68139, Note_on_c, 0, 50, 32
2, 68150, Note_on_c, 0, 60, 24
2, 68163, Note_on_c, 0, 68, 0
2, 68179, Note_on_c, 0, 67, 41
2, 68246, Note_on_c, 0, 67, 0
2, 68258, Note_on_c, 0, 60, 0
2, 68280, Note_on_c, 0, 50, 0
2, 68291, Note_on_c, 0, 65, 66
2, 68359, Note_on_c, 0, 65, 0
2, 68406, Note_on_c, 0, 53, 30
2, 68407, Note_on_c, 0, 64, 50
2, 68407, Note_on_c, 0, 43, 30
2, 68492, Note_on_c, 0, 64, 0
2, 68494, Note_on_c, 0, 65, 44
2, 68512, Note_on_c, 0, 65, 0
2, 68531, Note_on_c, 0, 67, 71
2, 68598, Note_on_c, 0, 67, 0
2, 68612, Note_on_c, 0, 43, 0
2, 68612, Note_on_c, 0, 64, 36
2, 68641, Note_on_c, 0, 64, 0
2, 68670, Note_on_c, 0, 59, 17
2, 68695, Note_on_c, 0, 53, 0
2, 68727, Note_on_c, 0, 59, 0
2, 68734, Note_on_c, 0, 60, 48
2, 68756, Note_on_c, 0, 60, 0
2, 68770, Note_on_c, 0, 62, 92
2, 68845, Note_on_c, 0, 62, 0
2, 68850, Note_on_c, 0, 59, 60
2, 68876, Note_on_c, 0, 59, 0
2, 68896, Note_on_c, 0, 55, 37
2, 68974, Note_on_c, 0, 57, 50
2, 68975, Note_on_c, 0, 55, 0
2, 68990, Note_on_c, 0, 57, 0
2, 69014, Note_on_c, 0, 59, 57
2, 69091, Note_on_c, 0, 59, 0
2, 69237, Note_on_c, 0, 52, 46
2, 69239, Note_on_c, 0, 62, 45
2, 69245, Note_on_c, 0, 57, 38
2, 69279, Note_on_c, 0, 57, 0
2, 69282, Note_on_c, 0, 52, 0
2, 69284, Note_on_c, 0, 62, 0
2, 69575, Note_on_c, 0, 62, 40
2, 69576, Note_on_c, 0, 67, 38
2, 69582, Note_on_c, 0, 63, 26
2, 69588, Note_on_c, 0, 67, 0
2, 69593, Note_on_c, 0, 62, 0
2, 69596, Note_on_c, 0, 63, 0
2, 69606, Note_on_c, 0, 74, 95
2, 69642, Note_on_c, 0, 74, 0
2, 69651, Note_on_c, 0, 71, 61
2, 69674, Note_on_c, 0, 71, 0
2, 69678, Note_on_c, 0, 72, 59
2, 69717, Note_on_c, 0, 72, 0
2, 69723, Note_on_c, 0, 74, 40
2, 69757, Note_on_c, 0, 74, 0
2, 69923, Note_on_c, 0, 67, 46
2, 69925, Note_on_c, 0, 62, 40
2, 69931, Note_on_c, 0, 63, 25
2, 69936, Note_on_c, 0, 67, 0
2, 69938, Note_on_c, 0, 62, 0
2, 69945, Note_on_c, 0, 63, 0
2, 70082, Note_on_c, 0, 67, 26
2, 70083, Note_on_c, 0, 63, 30
2, 70088, Note_on_c, 0, 60, 39
2, 70103, Note_on_c, 0, 67, 0
2, 70107, Note_on_c, 0, 60, 0
2, 70108, Note_on_c, 0, 63, 0
2, 70206, Note_on_c, 0, 79, 87
2, 70264, Note_on_c, 0, 79, 0
2, 70290, Note_on_c, 0, 75, 43
2, 70305, Note_on_c, 0, 67, 28
2, 70314, Note_on_c, 0, 60, 25
2, 70316, Note_on_c, 0, 67, 0
2, 70317, Note_on_c, 0, 75, 0
2, 70331, Note_on_c, 0, 60, 0
2, 70332, Note_on_c, 0, 77, 66
2, 70405, Note_on_c, 0, 77, 0
2, 70414, Note_on_c, 0, 72, 39
2, 70432, Note_on_c, 0, 72, 0
2, 70449, Note_on_c, 0, 75, 77
2, 70529, Note_on_c, 0, 75, 0
2, 70537, Note_on_c, 0, 73, 32
2, 70539, Note_on_c, 0, 67, 50
2, 70552, Note_on_c, 0, 62, 34
2, 70555, Note_on_c, 0, 67, 0
2, 70560, Note_on_c, 0, 73, 0
2, 70570, Note_on_c, 0, 74, 64
2, 70571, Note_on_c, 0, 62, 0
2, 70637, Note_on_c, 0, 62, 24
2, 70656, Note_on_c, 0, 74, 0
2, 70656, Note_on_c, 0, 69, 36
2, 70673, Note_on_c, 0, 69, 0
2, 70685, Note_on_c, 0, 72, 59
2, 70751, Note_on_c, 0, 62, 0
2, 70767, Note_on_c, 0, 72, 0
2, 70773, Note_on_c, 0, 69, 36
2, 70792, Note_on_c, 0, 69, 0
2, 70793, Note_on_c, 0, 62, 13
2, 70798, Note_on_c, 0, 66, 40
2, 70809, Note_on_c, 0, 71, 49
2, 70852, Note_on_c, 0, 56, 1
2, 70892, Note_on_c, 0, 71, 0
2, 70900, Note_on_c, 0, 69, 43
2, 70915, Note_on_c, 0, 69, 0
2, 70915, Note_on_c, 0, 66, 0
2, 70922, Note_on_c, 0, 70, 62
2, 70929, Note_on_c, 0, 62, 0
2, 70970, Note_on_c, 0, 56, 0
2, 70999, Note_on_c, 0, 70, 0
2, 71007, Note_on_c, 0, 62, 47
2, 71008, Note_on_c, 0, 65, 34
2, 71011, Note_on_c, 0, 67, 29
2, 71011, Note_on_c, 0, 60, 40
2, 71020, Note_on_c, 0, 65, 0
2, 71025, Note_on_c, 0, 67, 0
2, 71026, Note_on_c, 0, 60, 0
2, 71027, Note_on_c, 0, 62, 0
2, 71036, Note_on_c, 0, 70, 60
2, 71120, Note_on_c, 0, 70, 0
2, 71157, Note_on_c, 0, 70, 53
2, 71161, Note_on_c, 0, 66, 53
2, 71232, Note_on_c, 0, 67, 40
2, 71233, Note_on_c, 0, 66, 0
2, 71249, Note_on_c, 0, 67, 0
2, 71251, Note_on_c, 0, 70, 0
2, 71370, Note_on_c, 0, 65, 47
2, 71374, Note_on_c, 0, 62, 37
2, 71376, Note_on_c, 0, 60, 40
2, 71382, Note_on_c, 0, 65, 0
2, 71386, Note_on_c, 0, 62, 0
2, 71389, Note_on_c, 0, 60, 0
2, 71522, Note_on_c, 0, 44, 47
2, 71526, Note_on_c, 0, 55, 37
2, 71554, Note_on_c, 0, 55, 0
2, 71588, Note_on_c, 0, 44, 0
2, 71652, Note_on_c, 0, 48, 57
2, 71704, Note_on_c, 0, 48, 0
2, 71718, Note_on_c, 0, 51, 71
2, 71729, Note_on_c, 0, 44, 31
2, 71752, Note_on_c, 0, 44, 0
2, 71757, Note_on_c, 0, 51, 0
2, 71767, Note_on_c, 0, 55, 60
2, 71824, Note_on_c, 0, 55, 0
2, 71835, Note_on_c, 0, 58, 69
2, 71835, Note_on_c, 0, 44, 43
2, 71837, Note_on_c, 0, 51, 39
2, 71857, Note_on_c, 0, 51, 0
2, 71862, Note_on_c, 0, 44, 0
2, 71871, Note_on_c, 0, 58, 0
2, 71897, Note_on_c, 0, 55, 40
2, 71959, Note_on_c, 0, 55, 0
2, 71961, Note_on_c, 0, 56, 64
2, 72011, Note_on_c, 0, 56, 0
2, 72013, Note_on_c, 0, 58, 42
2, 72067, Note_on_c, 0, 58, 0
2, 72081, Note_on_c, 0, 50, 48
2, 72081, Note_on_c, 0, 60, 62
2, 72093, Note_on_c, 0, 50, 0
2, 72121, Note_on_c, 0, 60, 0
2, 72135, Note_on_c, 0, 63, 50
2, 72181, Note_on_c, 0, 63, 0
2, 72207, Note_on_c, 0, 54, 37
2, 72207, Note_on_c, 0, 67, 49
2, 72207, Note_on_c, 0, 64, 53
2, 72222, Note_on_c, 0, 64, 0
2, 72238, Note_on_c, 0, 54, 0
2, 72239, Note_on_c, 0, 67, 0
2, 72261, Note_on_c, 0, 72, 46
2, 72302, Note_on_c, 0, 72, 0
2, 72321, Note_on_c, 0, 73, 56
2, 72325, Note_on_c, 0, 72, 28
2, 72326, Note_on_c, 0, 62, 54
2, 72334, Note_on_c, 0, 72, 0
2, 72338, Note_on_c, 0, 62, 0
2, 72356, Note_on_c, 0, 73, 0
2, 72371, Note_on_c, 0, 74, 51
2, 72418, Note_on_c, 0, 74, 0
2, 72441, Note_on_c, 0, 62, 49
2, 72442, Note_on_c, 0, 78, 60
2, 72445, Note_on_c, 0, 59, 38
2, 72456, Note_on_c, 0, 62, 0
2, 72461, Note_on_c, 0, 59, 0
2, 72472, Note_on_c, 0, 78, 0
2, 72502, Note_on_c, 0, 83, 85
2, 72560, Note_on_c, 0, 83, 0
2, 72567, Note_on_c, 0, 78, 50
2, 72606, Note_on_c, 0, 78, 0
2, 72621, Note_on_c, 0, 75, 37
2, 72680, Note_on_c, 0, 75, 0
2, 72689, Note_on_c, 0, 71, 58
2, 72697, Note_on_c, 0, 75, 14
2, 72699, Note_on_c, 0, 78, 1
2, 72717, Note_on_c, 0, 75, 0
2, 72718, Note_on_c, 0, 71, 0
2, 72729, Note_on_c, 0, 78, 0
2, 72744, Note_on_c, 0, 71, 45
2, 72750, Note_on_c, 0, 66, 28
2, 72816, Note_on_c, 0, 71, 0
2, 72817, Note_on_c, 0, 66, 0
2, 72851, Note_on_c, 0, 66, 28
2, 72852, Note_on_c, 0, 71, 41
2, 72938, Note_on_c, 0, 71, 0
2, 72954, Note_on_c, 0, 66, 0
2, 73163, Note_on_c, 0, 64, 34
2, 73175, Note_on_c, 0, 64, 0
2, 73201, Note_on_c, 0, 74, 47
2, 73260, Note_on_c, 0, 74, 0
2, 73280, Note_on_c, 0, 79, 64
2, 73305, Note_on_c, 0, 79, 0
2, 73327, Note_on_c, 0, 83, 67
2, 73362, Note_on_c, 0, 83, 0
2, 73399, Note_on_c, 0, 86, 85
2, 73400, Note_on_c, 0, 74, 74
2, 73403, Note_on_c, 0, 57, 64
2, 73405, Note_on_c, 0, 64, 58
2, 73409, Note_on_c, 0, 60, 38
2, 73416, Note_on_c, 0, 64, 0
2, 73420, Note_on_c, 0, 60, 0
2, 73427, Note_on_c, 0, 57, 0
2, 73432, Note_on_c, 0, 86, 0
2, 73434, Note_on_c, 0, 74, 0
2, 73468, Note_on_c, 0, 86, 74
2, 73469, Note_on_c, 0, 74, 58
2, 73539, Note_on_c, 0, 86, 0
2, 73541, Note_on_c, 0, 74, 0
2, 73568, Note_on_c, 0, 84, 45
2, 73601, Note_on_c, 0, 84, 0
2, 73645, Note_on_c, 0, 86, 71
2, 73648, Note_on_c, 0, 64, 44
2, 73649, Note_on_c, 0, 74, 46
2, 73652, Note_on_c, 0, 60, 36
2, 73653, Note_on_c, 0, 57, 26
2, 73661, Note_on_c, 0, 64, 0
2, 73666, Note_on_c, 0, 60, 0
2, 73672, Note_on_c, 0, 57, 0
2, 73675, Note_on_c, 0, 86, 0
2, 73676, Note_on_c, 0, 74, 0
2, 73712, Note_on_c, 0, 84, 38
2, 73753, Note_on_c, 0, 84, 0
2, 73922, Note_on_c, 0, 54, 31
2, 73924, Note_on_c, 0, 65, 34
2, 73928, Note_on_c, 0, 58, 34
2, 73932, Note_on_c, 0, 60, 33
2, 73949, Note_on_c, 0, 60, 0
2, 73955, Note_on_c, 0, 65, 0
2, 73965, Note_on_c, 0, 58, 0
2, 73970, Note_on_c, 0, 54, 0
2, 74123, Note_on_c, 0, 65, 47
2, 74131, Note_on_c, 0, 58, 25
2, 74132, Note_on_c, 0, 60, 29
2, 74134, Note_on_c, 0, 65, 0
2, 74145, Note_on_c, 0, 60, 0
2, 74157, Note_on_c, 0, 58, 0
2, 74171, Note_on_c, 0, 90, 80
2, 74233, Note_on_c, 0, 90, 0
2, 74248, Note_on_c, 0, 94, 74
2, 74252, Note_on_c, 0, 65, 40
2, 74254, Note_on_c, 0, 58, 36
2, 74254, Note_on_c, 0, 60, 46
2, 74255, Note_on_c, 0, 54, 29
2, 74264, Note_on_c, 0, 65, 0
2, 74268, Note_on_c, 0, 60, 0
2, 74280, Note_on_c, 0, 54, 0
2, 74287, Note_on_c, 0, 58, 0
2, 74287, Note_on_c, 0, 94, 0
2, 74306, Note_on_c, 0, 88, 36
2, 74351, Note_on_c, 0, 88, 0
2, 74368, Note_on_c, 0, 87, 60
2, 74377, Note_on_c, 0, 59, 45
2, 74378, Note_on_c, 0, 62, 41
2, 74392, Note_on_c, 0, 62, 0
2, 74394, Note_on_c, 0, 59, 0
2, 74405, Note_on_c, 0, 87, 0
2, 74420, Note_on_c, 0, 86, 55
2, 74474, Note_on_c, 0, 86, 0
2, 74489, Note_on_c, 0, 84, 69
2, 74493, Note_on_c, 0, 62, 37
2, 74495, Note_on_c, 0, 59, 32
2, 74506, Note_on_c, 0, 62, 0
2, 74511, Note_on_c, 0, 59, 0
2, 74526, Note_on_c, 0, 84, 0
2, 74542, Note_on_c, 0, 83, 38
2, 74597, Note_on_c, 0, 83, 0
2, 74643, Note_on_c, 0, 86, 94
2, 74687, Note_on_c, 0, 86, 0
2, 74755, Note_on_c, 0, 82, 69
2, 74812, Note_on_c, 0, 82, 0
2, 74815, Note_on_c, 0, 83, 47
2, 74833, Note_on_c, 0, 83, 0
2, 74964, Note_on_c, 0, 62, 53
2, 74966, Note_on_c, 0, 59, 50
2, 74969, Note_on_c, 0, 57, 38
2, 74974, Note_on_c, 0, 62, 0
2, 74978, Note_on_c, 0, 59, 0
2, 74980, Note_on_c, 0, 57, 0
2, 74993, Note_on_c, 0, 78, 40
2, 74998, Note_on_c, 0, 66, 68
2, 75045, Note_on_c, 0, 78, 0
2, 75053, Note_on_c, 0, 66, 0
2, 75055, Note_on_c, 0, 67, 51
2, 75089, Note_on_c, 0, 67, 0
2, 75093, Note_on_c, 0, 79, 29
2, 75107, Note_on_c, 0, 79, 0
2, 75204, Note_on_c, 0, 62, 53
2, 75207, Note_on_c, 0, 57, 45
2, 75209, Note_on_c, 0, 59, 42
2, 75216, Note_on_c, 0, 62, 0
2, 75220, Note_on_c, 0, 57, 0
2, 75221, Note_on_c, 0, 59, 0
2, 75470, Note_on_c, 0, 61, 46
2, 75472, Note_on_c, 0, 64, 56
2, 75472, Note_on_c, 0, 57, 41
2, 75473, Note_on_c, 0, 54, 36
2, 75500, Note_on_c, 0, 64, 0
2, 75510, Note_on_c, 0, 57, 0
2, 75512, Note_on_c, 0, 61, 0
2, 75519, Note_on_c, 0, 54, 0
2, 75600, Note_on_c, 0, 69, 82
2, 75600, Note_on_c, 0, 66, 73
2, 75647, Note_on_c, 0, 66, 0
2, 75661, Note_on_c, 0, 69, 0
2, 75682, Note_on_c, 0, 67, 70
2, 75685, Note_on_c, 0, 71, 57
2, 75691, Note_on_c, 0, 61, 37
2, 75691, Note_on_c, 0, 64, 47
2, 75696, Note_on_c, 0, 54, 21
2, 75702, Note_on_c, 0, 57, 22
2, 75705, Note_on_c, 0, 64, 0
2, 75709, Note_on_c, 0, 54, 0
2, 75713, Note_on_c, 0, 71, 0
2, 75713, Note_on_c, 0, 67, 0
2, 75718, Note_on_c, 0, 61, 0
2, 75720, Note_on_c, 0, 57, 0
2, 75731, Note_on_c, 0, 72, 68
2, 75731, Note_on_c, 0, 69, 74
2, 75740, Note_on_c, 0, 71, 42
2, 75751, Note_on_c, 0, 71, 0
2, 75792, Note_on_c, 0, 69, 0
2, 75793, Note_on_c, 0, 72, 0
2, 75809, Note_on_c, 0, 69, 70
2, 75810, Note_on_c, 0, 72, 76
2, 75843, Note_on_c, 0, 72, 0
2, 75849, Note_on_c, 0, 69, 0
2, 75862, Note_on_c, 0, 69, 51
2, 75864, Note_on_c, 0, 72, 54
2, 75940, Note_on_c, 0, 72, 0
2, 75940, Note_on_c, 0, 69, 0
2, 75964, Note_on_c, 0, 67, 50
2, 75966, Note_on_c, 0, 71, 55
2, 76033, Note_on_c, 0, 67, 0
2, 76079, Note_on_c, 0, 71, 0
2, 76090, Note_on_c, 0, 69, 51
2, 76092, Note_on_c, 0, 66, 39
2, 76172, Note_on_c, 0, 62, 33
2, 76177, Note_on_c, 0, 57, 30
2, 76185, Note_on_c, 0, 62, 0
2, 76189, Note_on_c, 0, 57, 0
2, 76281, Note_on_c, 0, 69, 0
2, 76283, Note_on_c, 0, 66, 0
2, 76326, Note_on_c, 0, 64, 38
2, 76327, Note_on_c, 0, 68, 32
2, 76327, Note_on_c, 0, 59, 27
2, 76333, Note_on_c, 0, 52, 22
2, 76345, Note_on_c, 0, 59, 0
2, 76347, Note_on_c, 0, 52, 0
2, 76379, Note_on_c, 0, 64, 0
2, 76404, Note_on_c, 0, 68, 0
2, 76571, Note_on_c, 0, 52, 24
2, 76572, Note_on_c, 0, 59, 27
2, 76586, Note_on_c, 0, 52, 0
2, 76588, Note_on_c, 0, 59, 0
2, 76694, Note_on_c, 0, 68, 39
2, 76750, Note_on_c, 0, 68, 0
2, 76760, Note_on_c, 0, 72, 66
2, 76794, Note_on_c, 0, 72, 0
2, 76823, Note_on_c, 0, 66, 55
2, 76881, Note_on_c, 0, 66, 0
2, 76922, Note_on_c, 0, 66, 61
2, 76986, Note_on_c, 0, 66, 0
2, 76996, Note_on_c, 0, 70, 57
2, 77008, Note_on_c, 0, 58, 31
2, 77033, Note_on_c, 0, 58, 0
2, 77034, Note_on_c, 0, 70, 0
2, 77051, Note_on_c, 0, 64, 36
2, 77120, Note_on_c, 0, 58, 23
2, 77121, Note_on_c, 0, 64, 0
2, 77143, Note_on_c, 0, 58, 0
2, 77157, Note_on_c, 0, 64, 46
2, 77224, Note_on_c, 0, 64, 0
2, 77236, Note_on_c, 0, 68, 71
2, 77242, Note_on_c, 0, 60, 36
2, 77243, Note_on_c, 0, 53, 29
2, 77257, Note_on_c, 0, 60, 0
2, 77262, Note_on_c, 0, 53, 0
2, 77278, Note_on_c, 0, 68, 0
2, 77296, Note_on_c, 0, 67, 50
2, 77350, Note_on_c, 0, 67, 0
2, 77362, Note_on_c, 0, 63, 55
2, 77398, Note_on_c, 0, 63, 0
2, 77418, Note_on_c, 0, 60, 27
2, 77461, Note_on_c, 0, 60, 0
2, 77479, Note_on_c, 0, 56, 31
2, 77520, Note_on_c, 0, 56, 0
2, 77531, Note_on_c, 0, 55, 46
2, 77799, Note_on_c, 0, 55, 0
2, 77836, Note_on_c, 0, 56, 53
2, 77840, Note_on_c, 0, 46, 33
2, 77846, Note_on_c, 0, 56, 0
2, 77856, Note_on_c, 0, 46, 0
2, 77875, Note_on_c, 0, 60, 77
2, 77946, Note_on_c, 0, 60, 0
2, 77969, Note_on_c, 0, 57, 34
2, 78001, Note_on_c, 0, 57, 0
2, 78010, Note_on_c, 0, 58, 35
2, 78063, Note_on_c, 0, 58, 0
2, 78074, Note_on_c, 0, 56, 48
2, 78075, Note_on_c, 0, 46, 44
2, 78082, Note_on_c, 0, 60, 57
2, 78096, Note_on_c, 0, 56, 0
2, 78098, Note_on_c, 0, 46, 0
2, 78134, Note_on_c, 0, 60, 0
2, 78138, Note_on_c, 0, 61, 43
2, 78205, Note_on_c, 0, 61, 0
2, 78207, Note_on_c, 0, 63, 47
2, 78237, Note_on_c, 0, 63, 0
2, 78257, Note_on_c, 0, 65, 45
2, 78313, Note_on_c, 0, 65, 0
2, 78326, Note_on_c, 0, 66, 59
2, 78331, Note_on_c, 0, 59, 42
2, 78333, Note_on_c, 0, 62, 33
2, 78347, Note_on_c, 0, 62, 0
2, 78347, Note_on_c, 0, 59, 0
2, 78360, Note_on_c, 0, 66, 0
2, 78387, Note_on_c, 0, 67, 27
2, 78430, Note_on_c, 0, 67, 0
2, 78444, Note_on_c, 0, 71, 83
2, 78445, Note_on_c, 0, 66, 83
2, 78445, Note_on_c, 0, 61, 75
2, 78447, Note_on_c, 0, 55, 81
2, 78488, Note_on_c, 0, 71, 0
2, 78503, Note_on_c, 0, 74, 81
2, 78545, Note_on_c, 0, 55, 0
2, 78552, Note_on_c, 0, 66, 0
2, 78556, Note_on_c, 0, 74, 0
2, 78563, Note_on_c, 0, 61, 0
2, 78568, Note_on_c, 0, 73, 59
2, 78574, Note_on_c, 0, 55, 50
2, 78577, Note_on_c, 0, 61, 53
2, 78581, Note_on_c, 0, 65, 61
2, 78608, Note_on_c, 0, 73, 0
2, 78625, Note_on_c, 0, 72, 45
2, 78630, Note_on_c, 0, 65, 0
2, 78639, Note_on_c, 0, 55, 0
2, 78667, Note_on_c, 0, 61, 0
2, 78691, Note_on_c, 0, 72, 0
2, 78691, Note_on_c, 0, 70, 67
2, 78724, Note_on_c, 0, 60, 44
2, 78732, Note_on_c, 0, 70, 0
2, 78732, Note_on_c, 0, 58, 40
2, 78743, Note_on_c, 0, 53, 24
2, 78746, Note_on_c, 0, 67, 36
2, 78786, Note_on_c, 0, 60, 0
2, 78802, Note_on_c, 0, 79, 64
2, 78803, Note_on_c, 0, 67, 0
2, 78839, Note_on_c, 0, 53, 0
2, 78844, Note_on_c, 0, 79, 0
2, 78856, Note_on_c, 0, 58, 0
2, 78867, Note_on_c, 0, 75, 28
2, 78908, Note_on_c, 0, 75, 0
2, 78921, Note_on_c, 0, 72, 57
2, 78923, Note_on_c, 0, 63, 33
2, 78933, Note_on_c, 0, 60, 22
2, 78934, Note_on_c, 0, 63, 0
2, 78939, Note_on_c, 0, 58, 25
2, 78957, Note_on_c, 0, 72, 0
2, 78961, Note_on_c, 0, 60, 0
2, 78981, Note_on_c, 0, 67, 42
2, 78997, Note_on_c, 0, 58, 0
2, 79011, Note_on_c, 0, 67, 0
2, 79038, Note_on_c, 0, 63, 61
2, 79041, Note_on_c, 0, 60, 53
2, 79046, Note_on_c, 0, 84, 82
2, 79046, Note_on_c, 0, 58, 35
2, 79057, Note_on_c, 0, 63, 0
2, 79059, Note_on_c, 0, 60, 0
2, 79072, Note_on_c, 0, 58, 0
2, 79077, Note_on_c, 0, 84, 0
2, 79104, Note_on_c, 0, 80, 38
2, 79142, Note_on_c, 0, 80, 0
2, 79160, Note_on_c, 0, 77, 38
2, 79162, Note_on_c, 0, 60, 49
2, 79162, Note_on_c, 0, 63, 38
2, 79168, Note_on_c, 0, 56, 35
2, 79172, Note_on_c, 0, 63, 0
2, 79176, Note_on_c, 0, 60, 0
2, 79194, Note_on_c, 0, 77, 0
2, 79194, Note_on_c, 0, 56, 0
2, 79225, Note_on_c, 0, 75, 34
2, 79251, Note_on_c, 0, 75, 0
2, 79274, Note_on_c, 0, 49, 59
2, 79277, Note_on_c, 0, 56, 61
2, 79280, Note_on_c, 0, 89, 82
2, 79300, Note_on_c, 0, 49, 0
2, 79303, Note_on_c, 0, 56, 0
2, 79312, Note_on_c, 0, 89, 0
2, 79340, Note_on_c, 0, 87, 39
2, 79387, Note_on_c, 0, 87, 0
2, 79399, Note_on_c, 0, 63, 69
2, 79399, Note_on_c, 0, 84, 57
2, 79405, Note_on_c, 0, 58, 51
2, 79406, Note_on_c, 0, 53, 39
2, 79420, Note_on_c, 0, 63, 0
2, 79421, Note_on_c, 0, 53, 0
2, 79434, Note_on_c, 0, 84, 0
2, 79441, Note_on_c, 0, 58, 0
2, 79466, Note_on_c, 0, 80, 33
2, 79495, Note_on_c, 0, 80, 0
2, 79519, Note_on_c, 0, 94, 64
2, 79541, Note_on_c, 0, 94, 0
2, 79641, Note_on_c, 0, 63, 64
2, 79642, Note_on_c, 0, 58, 59
2, 79650, Note_on_c, 0, 52, 34
2, 79656, Note_on_c, 0, 63, 0
2, 79662, Note_on_c, 0, 52, 0
2, 79670, Note_on_c, 0, 58, 0
2, 79804, Note_on_c, 0, 94, 90
2, 79804, Note_on_c, 0, 99, 82
2, 79805, Note_on_c, 0, 88, 87
2, 79810, Note_on_c, 0, 100, 68
2, 79819, Note_on_c, 0, 100, 0
2, 79843, Note_on_c, 0, 99, 0
2, 79866, Note_on_c, 0, 88, 0
2, 79869, Note_on_c, 0, 94, 0
2, 79916, Note_on_c, 0, 63, 45
2, 79917, Note_on_c, 0, 58, 46
2, 79922, Note_on_c, 0, 97, 71
2, 79925, Note_on_c, 0, 85, 67
2, 79925, Note_on_c, 0, 92, 75
2, 79926, Note_on_c, 0, 52, 31
2, 79934, Note_on_c, 0, 63, 0
2, 79945, Note_on_c, 0, 52, 0
2, 79972, Note_on_c, 0, 58, 0
2, 80001, Note_on_c, 0, 97, 0
2, 80004, Note_on_c, 0, 92, 0
2, 80005, Note_on_c, 0, 85, 0
2, 80043, Note_on_c, 0, 96, 66
2, 80044, Note_on_c, 0, 91, 63
2, 80045, Note_on_c, 0, 84, 48
2, 80092, Note_on_c, 0, 96, 0
2, 80097, Note_on_c, 0, 91, 0
2, 80120, Note_on_c, 0, 84, 0
2, 80131, Note_on_c, 0, 58, 51
2, 80139, Note_on_c, 0, 48, 24
2, 80146, Note_on_c, 0, 58, 0
2, 80154, Note_on_c, 0, 48, 0
2, 80166, Note_on_c, 0, 94, 45
2, 80168, Note_on_c, 0, 87, 43
2, 80169, Note_on_c, 0, 82, 38
2, 80171, Note_on_c, 0, 91, 43
2, 80205, Note_on_c, 0, 91, 0
2, 80217, Note_on_c, 0, 94, 0
2, 80226, Note_on_c, 0, 87, 0
2, 80231, Note_on_c, 0, 82, 0
2, 80286, Note_on_c, 0, 78, 48
2, 80290, Note_on_c, 0, 85, 33
2, 80292, Note_on_c, 0, 91, 48
2, 80302, Note_on_c, 0, 85, 0
2, 80304, Note_on_c, 0, 89, 22
2, 80307, Note_on_c, 0, 78, 0
2, 80310, Note_on_c, 0, 79, 49
2, 80347, Note_on_c, 0, 91, 0
2, 80356, Note_on_c, 0, 89, 0
2, 80368, Note_on_c, 0, 79, 0
2, 80407, Note_on_c, 0, 87, 43
2, 80409, Note_on_c, 0, 75, 55
2, 80457, Note_on_c, 0, 87, 0
2, 80475, Note_on_c, 0, 75, 0
2, 80496, Note_on_c, 0, 63, 23
2, 80513, Note_on_c, 0, 63, 0
2, 80526, Note_on_c, 0, 72, 53
2, 80527, Note_on_c, 0, 84, 55
2, 80584, Note_on_c, 0, 84, 0
2, 80589, Note_on_c, 0, 72, 0
2, 80642, Note_on_c, 0, 73, 59
2, 80645, Note_on_c, 0, 85, 37
2, 80646, Note_on_c, 0, 82, 44
2, 80646, Note_on_c, 0, 79, 56
2, 80653, Note_on_c, 0, 86, 69
2, 80665, Note_on_c, 0, 73, 0
2, 80667, Note_on_c, 0, 74, 62
2, 80675, Note_on_c, 0, 85, 0
2, 80706, Note_on_c, 0, 86, 0
2, 80720, Note_on_c, 0, 79, 0
2, 80727, Note_on_c, 0, 82, 0
2, 80730, Note_on_c, 0, 62, 33
2, 80731, Note_on_c, 0, 74, 0
2, 80737, Note_on_c, 0, 59, 27
2, 80742, Note_on_c, 0, 62, 0
2, 80756, Note_on_c, 0, 59, 0
2, 80766, Note_on_c, 0, 70, 67
2, 80766, Note_on_c, 0, 82, 47
2, 80769, Note_on_c, 0, 79, 29
2, 80780, Note_on_c, 0, 76, 28
2, 80800, Note_on_c, 0, 71, 63
2, 80802, Note_on_c, 0, 70, 0
2, 80832, Note_on_c, 0, 71, 0
2, 80835, Note_on_c, 0, 82, 0
2, 80836, Note_on_c, 0, 79, 0
2, 80843, Note_on_c, 0, 76, 0
2, 80965, Note_on_c, 0, 56, 42
2, 80967, Note_on_c, 0, 62, 48
2, 80969, Note_on_c, 0, 59, 40
2, 80979, Note_on_c, 0, 62, 0
2, 80981, Note_on_c, 0, 59, 0
2, 80990, Note_on_c, 0, 56, 0
2, 81124, Note_on_c, 0, 65, 40
2, 81126, Note_on_c, 0, 61, 33
2, 81132, Note_on_c, 0, 60, 36
2, 81134, Note_on_c, 0, 56, 21
2, 81154, Note_on_c, 0, 60, 0
2, 81154, Note_on_c, 0, 65, 0
2, 81159, Note_on_c, 0, 61, 0
2, 81166, Note_on_c, 0, 56, 0
2, 81326, Note_on_c, 0, 60, 50
2, 81336, Note_on_c, 0, 60, 0
2, 81365, Note_on_c, 0, 61, 77
2, 81424, Note_on_c, 0, 61, 0
2, 81438, Note_on_c, 0, 63, 40
2, 81454, Note_on_c, 0, 61, 36
2, 81474, Note_on_c, 0, 63, 0
2, 81492, Note_on_c, 0, 60, 40
2, 81501, Note_on_c, 0, 61, 0
2, 81555, Note_on_c, 0, 60, 0
2, 81565, Note_on_c, 0, 61, 69
2, 81569, Note_on_c, 0, 55, 47
2, 81581, Note_on_c, 0, 55, 0
2, 81605, Note_on_c, 0, 61, 0
2, 81625, Note_on_c, 0, 63, 55
2, 81676, Note_on_c, 0, 63, 0
2, 81690, Note_on_c, 0, 64, 62
2, 81732, Note_on_c, 0, 64, 0
2, 81752, Note_on_c, 0, 66, 49
2, 81795, Note_on_c, 0, 66, 0
2, 81813, Note_on_c, 0, 67, 67
2, 81820, Note_on_c, 0, 61, 37
2, 81821, Note_on_c, 0, 64, 41
2, 81833, Note_on_c, 0, 64, 0
2, 81847, Note_on_c, 0, 61, 0
2, 81855, Note_on_c, 0, 67, 0
2, 81872, Note_on_c, 0, 70, 56
2, 81919, Note_on_c, 0, 70, 0
2, 81934, Note_on_c, 0, 71, 58
2, 81935, Note_on_c, 0, 72, 65
2, 81958, Note_on_c, 0, 72, 0
2, 81967, Note_on_c, 0, 71, 0
2, 81981, Note_on_c, 0, 74, 88
2, 82044, Note_on_c, 0, 74, 0
2, 82050, Note_on_c, 0, 71, 49
2, 82079, Note_on_c, 0, 71, 0
2, 82096, Note_on_c, 0, 72, 71
2, 82136, Note_on_c, 0, 72, 0
2, 82164, Note_on_c, 0, 67, 62
2, 82192, Note_on_c, 0, 67, 0
2, 82215, Note_on_c, 0, 63, 39
2, 82267, Note_on_c, 0, 63, 0
2, 82282, Note_on_c, 0, 63, 65
2, 82313, Note_on_c, 0, 63, 0
2, 82336, Note_on_c, 0, 63, 34
2, 82404, Note_on_c, 0, 63, 0
2, 82441, Note_on_c, 0, 63, 48
2, 82507, Note_on_c, 0, 63, 0
2, 82564, Note_on_c, 0, 63, 55
2, 82636, Note_on_c, 0, 63, 0
2, 82641, Note_on_c, 0, 64, 66
2, 82680, Note_on_c, 0, 64, 0
2, 82687, Note_on_c, 0, 63, 59
2, 82738, Note_on_c, 0, 63, 0
2, 82758, Note_on_c, 0, 61, 67
2, 82794, Note_on_c, 0, 61, 0
2, 82816, Note_on_c, 0, 60, 36
2, 82864, Note_on_c, 0, 60, 0
2, 82876, Note_on_c, 0, 58, 55
2, 82913, Note_on_c, 0, 58, 0
2, 82927, Note_on_c, 0, 56, 38
2, 83005, Note_on_c, 0, 56, 0
2, 83007, Note_on_c, 0, 48, 35
2, 83009, Note_on_c, 0, 55, 44
2, 83022, Note_on_c, 0, 48, 0
2, 83025, Note_on_c, 0, 55, 0
2, 83042, Note_on_c, 0, 56, 60
2, 83127, Note_on_c, 0, 56, 0
2, 83127, Note_on_c, 0, 53, 35
2, 83148, Note_on_c, 0, 53, 0
2, 83163, Note_on_c, 0, 55, 58
2, 83237, Note_on_c, 0, 55, 0
2, 83253, Note_on_c, 0, 50, 35
2, 83266, Note_on_c, 0, 50, 0
2, 83282, Note_on_c, 0, 53, 38
2, 83388, Note_on_c, 0, 53, 0
2, 83403, Note_on_c, 0, 48, 49
2, 83438, Note_on_c, 0, 48, 0
2, 83643, Note_on_c, 0, 65, 36
2, 83645, Note_on_c, 0, 61, 33
2, 83649, Note_on_c, 0, 56, 25
2, 83650, Note_on_c, 0, 60, 43
2, 83672, Note_on_c, 0, 65, 0
2, 83678, Note_on_c, 0, 61, 0
2, 83678, Note_on_c, 0, 60, 0
2, 83683, Note_on_c, 0, 56, 0
2, 83772, Note_on_c, 0, 80, 79
2, 83772, Note_on_c, 0, 72, 94
2, 83772, Note_on_c, 0, 84, 87
2, 83817, Note_on_c, 0, 72, 0
2, 83818, Note_on_c, 0, 84, 0
2, 83828, Note_on_c, 0, 80, 0
2, 83855, Note_on_c, 0, 85, 71
2, 83859, Note_on_c, 0, 73, 45
2, 83859, Note_on_c, 0, 80, 61
2, 83864, Note_on_c, 0, 61, 35
2, 83865, Note_on_c, 0, 60, 46
2, 83865, Note_on_c, 0, 65, 48
2, 83877, Note_on_c, 0, 65, 0
2, 83880, Note_on_c, 0, 60, 0
2, 83889, Note_on_c, 0, 61, 0
2, 83895, Note_on_c, 0, 73, 0
2, 83903, Note_on_c, 0, 80, 0
2, 83906, Note_on_c, 0, 85, 0
2, 83972, Note_on_c, 0, 87, 70
2, 83973, Note_on_c, 0, 75, 71
2, 83974, Note_on_c, 0, 82, 62
2, 84014, Note_on_c, 0, 75, 0
2, 84016, Note_on_c, 0, 87, 0
2, 84017, Note_on_c, 0, 82, 0
2, 84102, Note_on_c, 0, 62, 54
2, 84103, Note_on_c, 0, 59, 57
2, 84103, Note_on_c, 0, 66, 42
2, 84115, Note_on_c, 0, 66, 0
2, 84117, Note_on_c, 0, 62, 0
2, 84129, Note_on_c, 0, 59, 0
2, 84257, Note_on_c, 0, 61, 55
2, 84258, Note_on_c, 0, 66, 59
2, 84260, Note_on_c, 0, 55, 51
2, 84363, Note_on_c, 0, 55, 0
2, 84379, Note_on_c, 0, 66, 0
2, 84404, Note_on_c, 0, 61, 0
2, 84444, Note_on_c, 0, 63, 51
2, 84448, Note_on_c, 0, 58, 45
2, 84449, Note_on_c, 0, 60, 52
2, 84453, Note_on_c, 0, 53, 35
2, 84479, Note_on_c, 0, 63, 0
2, 84483, Note_on_c, 0, 53, 0
2, 84484, Note_on_c, 0, 60, 0
2, 84495, Note_on_c, 0, 58, 0
2, 84508, Note_on_c, 0, 91, 82
2, 84508, Note_on_c, 0, 79, 74
2, 84516, Note_on_c, 0, 90, 48
2, 84525, Note_on_c, 0, 90, 0
2, 84544, Note_on_c, 0, 79, 0
2, 84548, Note_on_c, 0, 91, 0
2, 84579, Note_on_c, 0, 91, 71
2, 84582, Note_on_c, 0, 79, 82
2, 84592, Note_on_c, 0, 87, 28
2, 84608, Note_on_c, 0, 91, 0
2, 84609, Note_on_c, 0, 79, 0
2, 84616, Note_on_c, 0, 87, 0
2, 84687, Note_on_c, 0, 87, 77
2, 84688, Note_on_c, 0, 63, 60
2, 84689, Note_on_c, 0, 75, 73
2, 84691, Note_on_c, 0, 58, 56
2, 84692, Note_on_c, 0, 60, 57
2, 84700, Note_on_c, 0, 63, 0
2, 84700, Note_on_c, 0, 53, 24
2, 84714, Note_on_c, 0, 53, 0
2, 84731, Note_on_c, 0, 75, 0
2, 84733, Note_on_c, 0, 87, 0
2, 84762, Note_on_c, 0, 60, 0
2, 84770, Note_on_c, 0, 87, 62
2, 84771, Note_on_c, 0, 75, 53
2, 84793, Note_on_c, 0, 60, 13
2, 84794, Note_on_c, 0, 58, 0
2, 84800, Note_on_c, 0, 87, 0
2, 84808, Note_on_c, 0, 75, 0
2, 84812, Note_on_c, 0, 60, 0
2, 84853, Note_on_c, 0, 84, 60
2, 84857, Note_on_c, 0, 72, 48
2, 84895, Note_on_c, 0, 84, 0
2, 84900, Note_on_c, 0, 72, 0
2, 84931, Note_on_c, 0, 72, 66
2, 84931, Note_on_c, 0, 84, 76
2, 84934, Note_on_c, 0, 63, 60
2, 84942, Note_on_c, 0, 60, 43
2, 84946, Note_on_c, 0, 56, 26
2, 84949, Note_on_c, 0, 63, 0
2, 84957, Note_on_c, 0, 60, 0
2, 84959, Note_on_c, 0, 72, 0
2, 84966, Note_on_c, 0, 84, 0
2, 84979, Note_on_c, 0, 56, 0
2, 85045, Note_on_c, 0, 81, 71
2, 85047, Note_on_c, 0, 77, 62
2, 85048, Note_on_c, 0, 72, 66
2, 85072, Note_on_c, 0, 72, 0
2, 85077, Note_on_c, 0, 77, 0
2, 85083, Note_on_c, 0, 81, 0
2, 85109, Note_on_c, 0, 81, 54
2, 85111, Note_on_c, 0, 77, 57
2, 85112, Note_on_c, 0, 72, 58
2, 85138, Note_on_c, 0, 81, 0
2, 85143, Note_on_c, 0, 77, 0
2, 85153, Note_on_c, 0, 72, 0
2, 85172, Note_on_c, 0, 56, 35
2, 85195, Note_on_c, 0, 56, 0
2, 85206, Note_on_c, 0, 77, 53
2, 85209, Note_on_c, 0, 69, 40
2, 85211, Note_on_c, 0, 72, 56
2, 85255, Note_on_c, 0, 77, 0
2, 85257, Note_on_c, 0, 72, 0
2, 85261, Note_on_c, 0, 69, 0
2, 85282, Note_on_c, 0, 77, 52
2, 85286, Note_on_c, 0, 69, 60
2, 85289, Note_on_c, 0, 72, 54
2, 85295, Note_on_c, 0, 60, 39
2, 85296, Note_on_c, 0, 56, 31
2, 85299, Note_on_c, 0, 72, 0
2, 85306, Note_on_c, 0, 60, 0
2, 85309, Note_on_c, 0, 77, 0
2, 85310, Note_on_c, 0, 69, 0
2, 85321, Note_on_c, 0, 56, 0
2, 85405, Note_on_c, 0, 65, 62
2, 85407, Note_on_c, 0, 72, 50
2, 85407, Note_on_c, 0, 69, 59
2, 85424, Note_on_c, 0, 64, 24
2, 85425, Note_on_c, 0, 69, 0
2, 85427, Note_on_c, 0, 65, 0
2, 85432, Note_on_c, 0, 72, 0
2, 85434, Note_on_c, 0, 64, 0
2, 85485, Note_on_c, 0, 76, 76
2, 85488, Note_on_c, 0, 64, 61
2, 85488, Note_on_c, 0, 65, 71
2, 85489, Note_on_c, 0, 69, 71
2, 85525, Note_on_c, 0, 64, 0
2, 85528, Note_on_c, 0, 65, 0
2, 85531, Note_on_c, 0, 69, 0
2, 85532, Note_on_c, 0, 76, 0
2, 85570, Note_on_c, 0, 74, 61
2, 85571, Note_on_c, 0, 62, 46
2, 85573, Note_on_c, 0, 69, 67
2, 85574, Note_on_c, 0, 65, 58
2, 85614, Note_on_c, 0, 69, 0
2, 85619, Note_on_c, 0, 62, 0
2, 85626, Note_on_c, 0, 74, 0
2, 85628, Note_on_c, 0, 65, 0
2, 85691, Note_on_c, 0, 71, 60
2, 85695, Note_on_c, 0, 68, 43
2, 85695, Note_on_c, 0, 65, 53
2, 85696, Note_on_c, 0, 59, 46
2, 85752, Note_on_c, 0, 65, 0
2, 85756, Note_on_c, 0, 68, 0
2, 85767, Note_on_c, 0, 59, 0
2, 85772, Note_on_c, 0, 62, 54
2, 85774, Note_on_c, 0, 74, 62
2, 85776, Note_on_c, 0, 68, 46
2, 85777, Note_on_c, 0, 65, 51
2, 85800, Note_on_c, 0, 65, 0
2, 85804, Note_on_c, 0, 62, 0
2, 85811, Note_on_c, 0, 71, 0
2, 85811, Note_on_c, 0, 74, 0
2, 85812, Note_on_c, 0, 68, 0
2, 85822, Note_on_c, 0, 59, 36
2, 85929, Note_on_c, 0, 59, 0
2, 85936, Note_on_c, 0, 60, 47
2, 85942, Note_on_c, 0, 72, 55
2, 85944, Note_on_c, 0, 64, 48
2, 85945, Note_on_c, 0, 67, 57
2, 86002, Note_on_c, 0, 67, 0
2, 86002, Note_on_c, 0, 72, 0
2, 86019, Note_on_c, 0, 60, 0
2, 86021, Note_on_c, 0, 64, 0
2, 86037, Note_on_c, 0, 57, 37
2, 86050, Note_on_c, 0, 57, 0
2, 86058, Note_on_c, 0, 71, 42
2, 86059, Note_on_c, 0, 59, 44
2, 86060, Note_on_c, 0, 67, 44
2, 86060, Note_on_c, 0, 62, 46
2, 86063, Note_on_c, 0, 64, 45
2, 86117, Note_on_c, 0, 71, 0
2, 86118, Note_on_c, 0, 67, 0
2, 86127, Note_on_c, 0, 59, 0
2, 86130, Note_on_c, 0, 64, 0
2, 86134, Note_on_c, 0, 51, 25
2, 86136, Note_on_c, 0, 62, 0
2, 86164, Note_on_c, 0, 51, 0
2, 86175, Note_on_c, 0, 53, 36
2, 86177, Note_on_c, 0, 67, 38
2, 86178, Note_on_c, 0, 62, 44
2, 86181, Note_on_c, 0, 64, 35
2, 86189, Note_on_c, 0, 59, 24
2, 86191, Note_on_c, 0, 57, 26
2, 86229, Note_on_c, 0, 64, 0
2, 86240, Note_on_c, 0, 62, 0
2, 86241, Note_on_c, 0, 59, 0
2, 86246, Note_on_c, 0, 67, 0
2, 86247, Note_on_c, 0, 57, 0
2, 86263, Note_on_c, 0, 53, 0
2, 86285, Note_on_c, 0, 66, 42
2, 86285, Note_on_c, 0, 51, 36
2, 86291, Note_on_c, 0, 61, 45
2, 86292, Note_on_c, 0, 57, 24
2, 86342, Note_on_c, 0, 57, 0
2, 86352, Note_on_c, 0, 61, 0
2, 86353, Note_on_c, 0, 66, 0
2, 86369, Note_on_c, 0, 57, 37
2, 86370, Note_on_c, 0, 62, 46
2, 86374, Note_on_c, 0, 51, 0
2, 86375, Note_on_c, 0, 67, 42
2, 86375, Note_on_c, 0, 52, 35
2, 86662, Note_on_c, 0, 57, 0
2, 86705, Note_on_c, 0, 62, 0
2, 86730, Note_on_c, 0, 67, 0
2, 86733, Note_on_c, 0, 55, 55
2, 86735, Note_on_c, 0, 52, 0
2, 86750, Note_on_c, 0, 55, 0
2, 86762, Note_on_c, 0, 63, 83
2, 86765, Note_on_c, 0, 67, 73
2, 86828, Note_on_c, 0, 67, 0
2, 86845, Note_on_c, 0, 62, 62
2, 86846, Note_on_c, 0, 63, 0
2, 86862, Note_on_c, 0, 62, 0
2, 86883, Note_on_c, 0, 63, 56
2, 86890, Note_on_c, 0, 67, 54
2, 86961, Note_on_c, 0, 67, 0
2, 86981, Note_on_c, 0, 63, 0
2, 87001, Note_on_c, 0, 62, 58
2, 87004, Note_on_c, 0, 67, 58
2, 87083, Note_on_c, 0, 62, 0
2, 87089, Note_on_c, 0, 60, 40
2, 87097, Note_on_c, 0, 67, 0
2, 87118, Note_on_c, 0, 63, 44
2, 87201, Note_on_c, 0, 60, 0
2, 87204, Note_on_c, 0, 49, 33
2, 87214, Note_on_c, 0, 49, 0
2, 87323, Note_on_c, 0, 51, 56
2, 87324, Note_on_c, 0, 60, 60
2, 87325, Note_on_c, 0, 56, 33
2, 87338, Note_on_c, 0, 60, 0
2, 87341, Note_on_c, 0, 51, 0
2, 87343, Note_on_c, 0, 56, 0
2, 87346, Note_on_c, 0, 63, 0
2, 87454, Note_on_c, 0, 55, 50
2, 87468, Note_on_c, 0, 55, 0
2, 87495, Note_on_c, 0, 58, 68
2, 87565, Note_on_c, 0, 58, 0
2, 87615, Note_on_c, 0, 56, 51
2, 87693, Note_on_c, 0, 56, 0
2, 87693, Note_on_c, 0, 58, 54
2, 87720, Note_on_c, 0, 58, 0
2, 87737, Note_on_c, 0, 60, 29
2, 87797, Note_on_c, 0, 60, 0
2, 87809, Note_on_c, 0, 56, 60
2, 87810, Note_on_c, 0, 61, 55
2, 87827, Note_on_c, 0, 56, 0
2, 87845, Note_on_c, 0, 61, 0
2, 87867, Note_on_c, 0, 62, 50
2, 87916, Note_on_c, 0, 62, 0
2, 87934, Note_on_c, 0, 65, 43
2, 87955, Note_on_c, 0, 65, 0
2, 87987, Note_on_c, 0, 68, 34
2, 88043, Note_on_c, 0, 68, 0
2, 88052, Note_on_c, 0, 66, 61
2, 88053, Note_on_c, 0, 62, 53
2, 88054, Note_on_c, 0, 70, 59
2, 88063, Note_on_c, 0, 56, 30
2, 88081, Note_on_c, 0, 70, 0
2, 88109, Note_on_c, 0, 71, 43
2, 88142, Note_on_c, 0, 66, 0
2, 88155, Note_on_c, 0, 71, 0
2, 88172, Note_on_c, 0, 66, 46
2, 88173, Note_on_c, 0, 74, 69
2, 88207, Note_on_c, 0, 74, 0
2, 88213, Note_on_c, 0, 66, 0
2, 88219, Note_on_c, 0, 62, 0
2, 88224, Note_on_c, 0, 77, 51
2, 88243, Note_on_c, 0, 56, 0
2, 88266, Note_on_c, 0, 77, 0
2, 88284, Note_on_c, 0, 56, 42
2, 88287, Note_on_c, 0, 66, 57
2, 88289, Note_on_c, 0, 62, 54
2, 88290, Note_on_c, 0, 79, 69
2, 88303, Note_on_c, 0, 66, 0
2, 88304, Note_on_c, 0, 62, 0
2, 88312, Note_on_c, 0, 79, 0
2, 88313, Note_on_c, 0, 56, 0
2, 88338, Note_on_c, 0, 62, 24
2, 88342, Note_on_c, 0, 65, 59
2, 88348, Note_on_c, 0, 60, 38
2, 88348, Note_on_c, 0, 55, 47
2, 88352, Note_on_c, 0, 82, 61
2, 88377, Note_on_c, 0, 65, 0
2, 88379, Note_on_c, 0, 82, 0
2, 88384, Note_on_c, 0, 60, 0
2, 88387, Note_on_c, 0, 62, 0
2, 88387, Note_on_c, 0, 55, 0
2, 89041, Note_on_c, 0, 63, 77
2, 89045, Note_on_c, 0, 67, 77
2, 89087, Note_on_c, 0, 67, 0
2, 89114, Note_on_c, 0, 63, 0
2, 89122, Note_on_c, 0, 55, 62
2, 89145, Note_on_c, 0, 55, 0
2, 89172, Note_on_c, 0, 60, 33
2, 89224, Note_on_c, 0, 60, 0
2, 89238, Note_on_c, 0, 63, 58
2, 89252, Note_on_c, 0, 52, 37
2, 89265, Note_on_c, 0, 52, 0
2, 89269, Note_on_c, 0, 63, 0
2, 89323, Note_on_c, 0, 67, 24
2, 89344, Note_on_c, 0, 67, 0
2, 89375, Note_on_c, 0, 72, 75
2, 89405, Note_on_c, 0, 72, 0
2, 89425, Note_on_c, 0, 75, 80
2, 89476, Note_on_c, 0, 75, 0
2, 89491, Note_on_c, 0, 77, 74
2, 89510, Note_on_c, 0, 54, 28
2, 89523, Note_on_c, 0, 54, 0
2, 89534, Note_on_c, 0, 77, 0
2, 89553, Note_on_c, 0, 74, 45
2, 89596, Note_on_c, 0, 74, 0
2, 89611, Note_on_c, 0, 72, 51
2, 89614, Note_on_c, 0, 54, 35
2, 89621, Note_on_c, 0, 62, 26
2, 89633, Note_on_c, 0, 62, 0
2, 89653, Note_on_c, 0, 54, 0
2, 89653, Note_on_c, 0, 72, 0
2, 89665, Note_on_c, 0, 69, 27
2, 89710, Note_on_c, 0, 69, 0
2, 89727, Note_on_c, 0, 70, 58
2, 89739, Note_on_c, 0, 62, 30
2, 89740, Note_on_c, 0, 59, 33
2, 89753, Note_on_c, 0, 59, 0
2, 89753, Note_on_c, 0, 62, 0
2, 89757, Note_on_c, 0, 70, 0
2, 89780, Note_on_c, 0, 71, 55
2, 89831, Note_on_c, 0, 71, 0
2, 89849, Note_on_c, 0, 72, 76
2, 89857, Note_on_c, 0, 59, 34
2, 89869, Note_on_c, 0, 59, 0
2, 89876, Note_on_c, 0, 72, 0
2, 89897, Note_on_c, 0, 73, 59
2, 89945, Note_on_c, 0, 73, 0
2, 89972, Note_on_c, 0, 74, 64
2, 89976, Note_on_c, 0, 50, 53
2, 89982, Note_on_c, 0, 43, 27
2, 89994, Note_on_c, 0, 43, 0
2, 89996, Note_on_c, 0, 50, 0
2, 89999, Note_on_c, 0, 74, 0
2, 90023, Note_on_c, 0, 71, 53
2, 90078, Note_on_c, 0, 71, 0
2, 90092, Note_on_c, 0, 50, 20
2, 90094, Note_on_c, 0, 66, 48
2, 90102, Note_on_c, 0, 50, 0
2, 90135, Note_on_c, 0, 66, 0
2, 90142, Note_on_c, 0, 62, 39
2, 90221, Note_on_c, 0, 62, 0
2, 90259, Note_on_c, 0, 62, 38
2, 90364, Note_on_c, 0, 62, 0
2, 90367, Note_on_c, 0, 61, 56
2, 90439, Note_on_c, 0, 61, 0
2, 90450, Note_on_c, 0, 62, 54
2, 90483, Note_on_c, 0, 62, 0
2, 90506, Note_on_c, 0, 67, 59
2, 90544, Note_on_c, 0, 67, 0
2, 90569, Note_on_c, 0, 71, 80
2, 90605, Note_on_c, 0, 71, 0
2, 90618, Note_on_c, 0, 74, 82
2, 90699, Note_on_c, 0, 64, 34
2, 90701, Note_on_c, 0, 55, 35
2, 90705, Note_on_c, 0, 57, 34
2, 90706, Note_on_c, 0, 60, 36
2, 90928, Note_on_c, 0, 60, 0
2, 90931, Note_on_c, 0, 55, 0
2, 90933, Note_on_c, 0, 64, 0
2, 90934, Note_on_c, 0, 57, 0
2, 90997, Note_on_c, 0, 74, 0
2, 91044, Note_on_c, 0, 55, 50
2, 91044, Note_on_c, 0, 64, 37
2, 91045, Note_on_c, 0, 57, 50
2, 91051, Note_on_c, 0, 60, 37
2, 91062, Note_on_c, 0, 64, 0
2, 91063, Note_on_c, 0, 60, 0
2, 91069, Note_on_c, 0, 55, 0
2, 91082, Note_on_c, 0, 57, 0
2, 91166, Note_on_c, 0, 60, 43
2, 91168, Note_on_c, 0, 54, 29
2, 91182, Note_on_c, 0, 60, 0
2, 91196, Note_on_c, 0, 54, 0
2, 91236, Note_on_c, 0, 98, 37
2, 91251, Note_on_c, 0, 99, 69
2, 91252, Note_on_c, 0, 98, 0
2, 91282, Note_on_c, 0, 98, 60
2, 91289, Note_on_c, 0, 99, 0
2, 91304, Note_on_c, 0, 98, 0
2, 91309, Note_on_c, 0, 96, 60
2, 91313, Note_on_c, 0, 54, 25
2, 91314, Note_on_c, 0, 60, 32
2, 91325, Note_on_c, 0, 96, 0
2, 91332, Note_on_c, 0, 60, 0
2, 91337, Note_on_c, 0, 54, 0
2, 91355, Note_on_c, 0, 94, 70
2, 91394, Note_on_c, 0, 94, 0
2, 91419, Note_on_c, 0, 93, 79
2, 91439, Note_on_c, 0, 54, 26
2, 91443, Note_on_c, 0, 60, 26
2, 91460, Note_on_c, 0, 60, 0
2, 91460, Note_on_c, 0, 93, 0
2, 91466, Note_on_c, 0, 54, 0
2, 91475, Note_on_c, 0, 91, 46
2, 91510, Note_on_c, 0, 91, 0
2, 91531, Note_on_c, 0, 90, 57
2, 91535, Note_on_c, 0, 54, 50
2, 91539, Note_on_c, 0, 64, 39
2, 91540, Note_on_c, 0, 60, 47
2, 91555, Note_on_c, 0, 64, 0
2, 91556, Note_on_c, 0, 60, 0
2, 91572, Note_on_c, 0, 90, 0
2, 91587, Note_on_c, 0, 87, 58
2, 91604, Note_on_c, 0, 54, 0
2, 91652, Note_on_c, 0, 87, 0
2, 91653, Note_on_c, 0, 86, 72
2, 91655, Note_on_c, 0, 59, 38
2, 91657, Note_on_c, 0, 62, 31
2, 91674, Note_on_c, 0, 86, 0
2, 91677, Note_on_c, 0, 62, 0
2, 91678, Note_on_c, 0, 59, 0
2, 91704, Note_on_c, 0, 88, 78
2, 91758, Note_on_c, 0, 88, 0
2, 91773, Note_on_c, 0, 90, 60
2, 91805, Note_on_c, 0, 90, 0
2, 91825, Note_on_c, 0, 88, 38
2, 91880, Note_on_c, 0, 88, 0
2, 91886, Note_on_c, 0, 86, 68
2, 91919, Note_on_c, 0, 86, 0
2, 91940, Note_on_c, 0, 83, 29
2, 92010, Note_on_c, 0, 83, 0
2, 92046, Note_on_c, 0, 83, 44
2, 92115, Note_on_c, 0, 83, 0
2, 92152, Note_on_c, 0, 62, 40
2, 92155, Note_on_c, 0, 59, 41
2, 92155, Note_on_c, 0, 57, 44
2, 92282, Note_on_c, 0, 85, 94
2, 92311, Note_on_c, 0, 59, 0
2, 92325, Note_on_c, 0, 57, 0
2, 92328, Note_on_c, 0, 62, 0
2, 92348, Note_on_c, 0, 85, 0
2, 92360, Note_on_c, 0, 86, 81
2, 92365, Note_on_c, 0, 62, 33
2, 92375, Note_on_c, 0, 59, 27
2, 92379, Note_on_c, 0, 57, 19
2, 92382, Note_on_c, 0, 62, 0
2, 92396, Note_on_c, 0, 57, 0
2, 92397, Note_on_c, 0, 59, 0
2, 92400, Note_on_c, 0, 86, 0
2, 92415, Note_on_c, 0, 85, 47
2, 92466, Note_on_c, 0, 85, 0
2, 92477, Note_on_c, 0, 83, 50
2, 92486, Note_on_c, 0, 62, 20
2, 92499, Note_on_c, 0, 57, 16
2, 92501, Note_on_c, 0, 62, 0
2, 92515, Note_on_c, 0, 83, 0
2, 92517, Note_on_c, 0, 57, 0
2, 92535, Note_on_c, 0, 81, 24
2, 92610, Note_on_c, 0, 81, 0
2, 92645, Note_on_c, 0, 81, 45
2, 92724, Note_on_c, 0, 54, 31
2, 92725, Note_on_c, 0, 81, 0
2, 92731, Note_on_c, 0, 57, 30
2, 92732, Note_on_c, 0, 60, 29
2, 92748, Note_on_c, 0, 60, 0
2, 92753, Note_on_c, 0, 54, 0
2, 92755, Note_on_c, 0, 57, 0
2, 92765, Note_on_c, 0, 83, 76
2, 92826, Note_on_c, 0, 83, 0
2, 92839, Note_on_c, 0, 84, 71
2, 92870, Note_on_c, 0, 84, 0
2, 92890, Note_on_c, 0, 83, 49
2, 92944, Note_on_c, 0, 83, 0
2, 92965, Note_on_c, 0, 64, 42
2, 92969, Note_on_c, 0, 54, 25
2, 92974, Note_on_c, 0, 57, 24
2, 92977, Note_on_c, 0, 64, 0
2, 92991, Note_on_c, 0, 57, 0
2, 92998, Note_on_c, 0, 54, 0
2, 93082, Note_on_c, 0, 51, 46
2, 93082, Note_on_c, 0, 62, 46
2, 93088, Note_on_c, 0, 57, 39
2, 93095, Note_on_c, 0, 62, 0
2, 93100, Note_on_c, 0, 51, 0
2, 93103, Note_on_c, 0, 57, 0
2, 93158, Note_on_c, 0, 87, 64
2, 93186, Note_on_c, 0, 84, 45
2, 93198, Note_on_c, 0, 87, 0
2, 93210, Note_on_c, 0, 84, 0
2, 93218, Note_on_c, 0, 81, 42
2, 93236, Note_on_c, 0, 81, 0
2, 93253, Note_on_c, 0, 80, 27
2, 93272, Note_on_c, 0, 80, 0
2, 93279, Note_on_c, 0, 79, 44
2, 93301, Note_on_c, 0, 79, 0
2, 93309, Note_on_c, 0, 78, 42
2, 93331, Note_on_c, 0, 78, 0
2, 93338, Note_on_c, 0, 77, 44
2, 93362, Note_on_c, 0, 77, 0
2, 93375, Note_on_c, 0, 76, 29
2, 93389, Note_on_c, 0, 76, 0
2, 93404, Note_on_c, 0, 75, 60
2, 93427, Note_on_c, 0, 75, 0
2, 93459, Note_on_c, 0, 72, 55
2, 93462, Note_on_c, 0, 73, 29
2, 93475, Note_on_c, 0, 73, 0
2, 93483, Note_on_c, 0, 72, 0
2, 93503, Note_on_c, 0, 69, 42
2, 93537, Note_on_c, 0, 69, 0
2, 93570, Note_on_c, 0, 68, 62
2, 93611, Note_on_c, 0, 68, 0
2, 93629, Note_on_c, 0, 67, 48
2, 93670, Note_on_c, 0, 67, 0
2, 93690, Note_on_c, 0, 66, 53
2, 93704, Note_on_c, 0, 59, 18
2, 93723, Note_on_c, 0, 66, 0
2, 93733, Note_on_c, 0, 59, 0
2, 93743, Note_on_c, 0, 67, 49
2, 93800, Note_on_c, 0, 67, 0
2, 93812, Note_on_c, 0, 68, 67
2, 93851, Note_on_c, 0, 68, 0
2, 93870, Note_on_c, 0, 64, 33
2, 93936, Note_on_c, 0, 64, 0
2, 94087, Note_on_c, 0, 80, 59
2, 94092, Note_on_c, 0, 83, 49
2, 94093, Note_on_c, 0, 84, 43
2, 94104, Note_on_c, 0, 84, 0
2, 94110, Note_on_c, 0, 83, 0
2, 94113, Note_on_c, 0, 80, 0
2, 94132, Note_on_c, 0, 76, 50
2, 94156, Note_on_c, 0, 76, 0
2, 94213, Note_on_c, 0, 78, 65
2, 94215, Note_on_c, 0, 82, 57
2, 94249, Note_on_c, 0, 74, 47
2, 94251, Note_on_c, 0, 82, 0
2, 94253, Note_on_c, 0, 78, 0
2, 94285, Note_on_c, 0, 74, 0
2, 94290, Note_on_c, 0, 64, 38
2, 94297, Note_on_c, 0, 58, 31
2, 94303, Note_on_c, 0, 64, 0
2, 94314, Note_on_c, 0, 58, 0
2, 94330, Note_on_c, 0, 80, 47
2, 94332, Note_on_c, 0, 76, 57
2, 94363, Note_on_c, 0, 80, 0
2, 94365, Note_on_c, 0, 76, 0
2, 94371, Note_on_c, 0, 72, 40
2, 94395, Note_on_c, 0, 72, 0
2, 94411, Note_on_c, 0, 64, 31
2, 94414, Note_on_c, 0, 58, 30
2, 94424, Note_on_c, 0, 64, 0
2, 94443, Note_on_c, 0, 58, 0
2, 94449, Note_on_c, 0, 74, 60
2, 94454, Note_on_c, 0, 78, 34
2, 94483, Note_on_c, 0, 74, 0
2, 94489, Note_on_c, 0, 78, 0
2, 94492, Note_on_c, 0, 70, 47
2, 94519, Note_on_c, 0, 70, 0
2, 94533, Note_on_c, 0, 53, 46
2, 94534, Note_on_c, 0, 60, 42
2, 94549, Note_on_c, 0, 60, 0
2, 94552, Note_on_c, 0, 53, 0
2, 94572, Note_on_c, 0, 76, 44
2, 94575, Note_on_c, 0, 72, 45
2, 94607, Note_on_c, 0, 72, 0
2, 94607, Note_on_c, 0, 76, 0
2, 94612, Note_on_c, 0, 68, 33
2, 94638, Note_on_c, 0, 68, 0
2, 94649, Note_on_c, 0, 63, 42
2, 94659, Note_on_c, 0, 63, 0
2, 94685, Note_on_c, 0, 75, 45
2, 94691, Note_on_c, 0, 68, 34
2, 94694, Note_on_c, 0, 72, 34
2, 94717, Note_on_c, 0, 72, 0
2, 94720, Note_on_c, 0, 75, 0
2, 94730, Note_on_c, 0, 65, 53
2, 94731, Note_on_c, 0, 68, 0
2, 94744, Note_on_c, 0, 65, 0
2, 94760, Note_on_c, 0, 63, 31
2, 94771, Note_on_c, 0, 63, 0
2, 94801, Note_on_c, 0, 68, 48
2, 94807, Note_on_c, 0, 72, 45
2, 94835, Note_on_c, 0, 68, 0
2, 94836, Note_on_c, 0, 72, 0
2, 94857, Note_on_c, 0, 60, 34
2, 94867, Note_on_c, 0, 60, 0
2, 94898, Note_on_c, 0, 68, 48
2, 94899, Note_on_c, 0, 65, 54
2, 95001, Note_on_c, 0, 65, 0
2, 95011, Note_on_c, 0, 60, 43
2, 95025, Note_on_c, 0, 60, 0
2, 95034, Note_on_c, 0, 68, 0
2, 95037, Note_on_c, 0, 46, 20
2, 95058, Note_on_c, 0, 57, 58
2, 95060, Note_on_c, 0, 73, 47
2, 95062, Note_on_c, 0, 61, 53
2, 95062, Note_on_c, 0, 65, 55
2, 95097, Note_on_c, 0, 68, 3
2, 95188, Control_c, 0, 64, 127
2, 95244, Control_c, 0, 64, 0
2, 95250, Note_on_c, 0, 57, 0
2, 95288, Note_on_c, 0, 56, 42
2, 95295, Control_c, 0, 64, 127
2, 95358, Note_on_c, 0, 65, 0
2, 95360, Note_on_c, 0, 61, 0
2, 95389, Note_on_c, 0, 68, 0
2, 95394, Note_on_c, 0, 46, 0
2, 95394, Note_on_c, 0, 73, 0
2, 95396, Note_on_c, 0, 56, 0
2, 95493, Note_on_c, 0, 80, 58
2, 95494, Note_on_c, 0, 68, 63
2, 95525, Note_on_c, 0, 68, 0
2, 95528, Note_on_c, 0, 80, 0
2, 95570, Control_c, 0, 64, 0
2, 95581, Note_on_c, 0, 67, 71
2, 95582, Note_on_c, 0, 74, 66
2, 95584, Note_on_c, 0, 79, 49
2, 95590, Note_on_c, 0, 62, 54
2, 95591, Note_on_c, 0, 67, 0
2, 95592, Note_on_c, 0, 66, 48
2, 95599, Note_on_c, 0, 79, 0
2, 95602, Note_on_c, 0, 66, 0
2, 95603, Note_on_c, 0, 74, 0
2, 95609, Note_on_c, 0, 62, 0
2, 95675, Note_on_c, 0, 62, 57
2, 95676, Note_on_c, 0, 79, 62
2, 95676, Note_on_c, 0, 74, 62
2, 95677, Note_on_c, 0, 67, 63
2, 95678, Note_on_c, 0, 66, 51
2, 95680, Note_on_c, 0, 59, 55
2, 95688, Note_on_c, 0, 66, 0
2, 95688, Note_on_c, 0, 67, 0
2, 95692, Note_on_c, 0, 79, 0
2, 95693, Note_on_c, 0, 59, 0
2, 95694, Note_on_c, 0, 74, 0
2, 95699, Note_on_c, 0, 62, 0
2, 95770, Note_on_c, 0, 61, 59
2, 95770, Note_on_c, 0, 66, 67
2, 95771, Note_on_c, 0, 74, 70
2, 95771, Note_on_c, 0, 79, 66
2, 95771, Note_on_c, 0, 67, 75
2, 95772, Note_on_c, 0, 55, 65
2, 95799, Control_c, 0, 64, 127
2, 95914, Note_on_c, 0, 55, 0
2, 95928, Note_on_c, 0, 66, 0
2, 95935, Note_on_c, 0, 61, 0
2, 95945, Note_on_c, 0, 67, 0
2, 95952, Note_on_c, 0, 79, 0
2, 95966, Note_on_c, 0, 74, 0
2, 95974, Note_on_c, 0, 79, 41
2, 96007, Note_on_c, 0, 79, 0
2, 96030, Note_on_c, 0, 63, 36
2, 96031, Note_on_c, 0, 79, 34
2, 96032, Control_c, 0, 64, 0
2, 96035, Note_on_c, 0, 58, 37
2, 96036, Note_on_c, 0, 72, 42
2, 96036, Note_on_c, 0, 60, 45
2, 96036, Note_on_c, 0, 67, 49
2, 96038, Note_on_c, 0, 53, 32
2, 96082, Control_c, 0, 64, 127
2, 96124, Note_on_c, 0, 75, 1
2, 96129, Note_on_c, 0, 53, 0
2, 96132, Note_on_c, 0, 67, 0
2, 96138, Note_on_c, 0, 72, 0
2, 96138, Note_on_c, 0, 60, 0
2, 96143, Note_on_c, 0, 75, 0
2, 96144, Note_on_c, 0, 63, 0
2, 96148, Note_on_c, 0, 79, 0
2, 96156, Note_on_c, 0, 58, 0
2, 96328, Note_on_c, 0, 84, 62
2, 96328, Note_on_c, 0, 63, 43
2, 96329, Note_on_c, 0, 79, 48
2, 96331, Note_on_c, 0, 72, 44
2, 96334, Note_on_c, 0, 58, 39
2, 96335, Note_on_c, 0, 60, 43
2, 96336, Note_on_c, 0, 53, 30
2, 96341, Control_c, 0, 64, 0
2, 96375, Control_c, 0, 64, 127
2, 96381, Note_on_c, 0, 84, 0
2, 96385, Note_on_c, 0, 58, 0
2, 96391, Note_on_c, 0, 79, 0
2, 96397, Note_on_c, 0, 63, 0
2, 96397, Note_on_c, 0, 60, 0
2, 96402, Note_on_c, 0, 72, 0
2, 96411, Note_on_c, 0, 53, 0
2, 96736, Note_on_c, 0, 49, 57
2, 96737, Control_c, 0, 64, 0
2, 96737, Note_on_c, 0, 77, 64
2, 96738, Note_on_c, 0, 59, 60
2, 96738, Note_on_c, 0, 69, 71
2, 96740, Note_on_c, 0, 65, 66
2, 96741, Note_on_c, 0, 72, 51
2, 96749, Note_on_c, 0, 59, 0
2, 96857, Control_c, 0, 64, 127
2, 96873, Note_on_c, 0, 49, 0
2, 96914, Note_on_c, 0, 65, 0
2, 96924, Note_on_c, 0, 77, 0
2, 96927, Note_on_c, 0, 69, 0
2, 96931, Note_on_c, 0, 72, 0
2, 96981, Note_on_c, 0, 63, 83
2, 96983, Note_on_c, 0, 75, 69
2, 96984, Note_on_c, 0, 68, 63
2, 96985, Note_on_c, 0, 64, 77
2, 96986, Note_on_c, 0, 72, 58
2, 96987, Control_c, 0, 64, 0
2, 97082, Control_c, 0, 64, 127
2, 97155, Note_on_c, 0, 64, 0
2, 97169, Note_on_c, 0, 72, 0
2, 97175, Note_on_c, 0, 68, 0
2, 97178, Note_on_c, 0, 75, 0
2, 97188, Note_on_c, 0, 63, 0
2, 97217, Control_c, 0, 64, 0
2, 97219, Note_on_c, 0, 73, 30
2, 97223, Note_on_c, 0, 68, 46
2, 97224, Note_on_c, 0, 61, 46
2, 97226, Note_on_c, 0, 64, 42
2, 97262, Control_c, 0, 64, 127
2, 97296, Note_on_c, 0, 61, 0
2, 97300, Note_on_c, 0, 73, 0
2, 97306, Note_on_c, 0, 68, 0
2, 97315, Note_on_c, 0, 64, 0
2, 97417, Note_on_c, 0, 46, 33
2, 97442, Note_on_c, 0, 47, 39
2, 97445, Note_on_c, 0, 46, 0
2, 97447, Control_c, 0, 64, 0
2, 97447, Note_on_c, 0, 63, 35
2, 97451, Note_on_c, 0, 55, 47
2, 97452, Note_on_c, 0, 48, 52
2, 97454, Note_on_c, 0, 58, 36
2, 97456, Note_on_c, 0, 47, 0
2, 97534, Note_on_c, 0, 63, 0
2, 97540, Note_on_c, 0, 48, 0
2, 97541, Note_on_c, 0, 55, 0
2, 97548, Note_on_c, 0, 58, 0
2, 97552, Note_on_c, 0, 47, 40
2, 97570, Note_on_c, 0, 47, 0
2, 97576, Note_on_c, 0, 63, 36
2, 97578, Note_on_c, 0, 48, 39
2, 97579, Note_on_c, 0, 58, 34
2, 97579, Note_on_c, 0, 55, 45
2, 97589, Note_on_c, 0, 60, 34
2, 97658, Note_on_c, 0, 55, 0
2, 97659, Note_on_c, 0, 48, 0
2, 97661, Note_on_c, 0, 60, 0
2, 97662, Note_on_c, 0, 63, 0
2, 97665, Note_on_c, 0, 58, 0
2, 97668, Note_on_c, 0, 47, 39
2, 97693, Note_on_c, 0, 47, 0
2, 97698, Note_on_c, 0, 48, 44
2, 97700, Note_on_c, 0, 55, 49
2, 97702, Note_on_c, 0, 63, 32
2, 97703, Note_on_c, 0, 58, 33
2, 97709, Note_on_c, 0, 60, 39
2, 97823, Control_c, 0, 64, 127
2, 97829, Note_on_c, 0, 48, 0
2, 97831, Note_on_c, 0, 55, 0
2, 97834, Note_on_c, 0, 60, 0
2, 97842, Note_on_c, 0, 58, 0
2, 97848, Note_on_c, 0, 63, 0
2, 97901, Note_on_c, 0, 51, 35
2, 97908, Control_c, 0, 64, 0
2, 97929, Note_on_c, 0, 68, 40
2, 97930, Note_on_c, 0, 51, 0
2, 97930, Note_on_c, 0, 59, 57
2, 97931, Note_on_c, 0, 62, 60
2, 97933, Note_on_c, 0, 53, 51
2, 97934, Note_on_c, 0, 65, 47
2, 98005, Note_on_c, 0, 59, 0
2, 98006, Note_on_c, 0, 62, 0
2, 98007, Note_on_c, 0, 65, 0
2, 98011, Note_on_c, 0, 68, 0
2, 98014, Note_on_c, 0, 51, 42
2, 98015, Note_on_c, 0, 53, 0
2, 98037, Note_on_c, 0, 51, 0
2, 98051, Note_on_c, 0, 53, 50
2, 98052, Note_on_c, 0, 68, 46
2, 98053, Note_on_c, 0, 59, 55
2, 98054, Note_on_c, 0, 62, 48
2, 98058, Note_on_c, 0, 65, 45
2, 98152, Control_c, 0, 64, 127
2, 98153, Note_on_c, 0, 65, 0
2, 98153, Note_on_c, 0, 68, 0
2, 98156, Note_on_c, 0, 62, 0
2, 98180, Note_on_c, 0, 59, 0
2, 98235, Note_on_c, 0, 53, 0
2, 98252, Note_on_c, 0, 56, 46
2, 98254, Note_on_c, 0, 65, 45
2, 98255, Note_on_c, 0, 59, 60
2, 98256, Note_on_c, 0, 62, 51
2, 98257, Note_on_c, 0, 50, 42
2, 98259, Control_c, 0, 64, 0
2, 98309, Note_on_c, 0, 62, 0
2, 98314, Note_on_c, 0, 59, 0
2, 98319, Note_on_c, 0, 65, 0
2, 98328, Note_on_c, 0, 56, 0
2, 98374, Control_c, 0, 64, 127
2, 98388, Control_c, 0, 64, 0
2, 98391, Note_on_c, 0, 50, 0
2, 98406, Note_on_c, 0, 61, 50
2, 98406, Note_on_c, 0, 53, 50
2, 98409, Note_on_c, 0, 46, 35
2, 98410, Note_on_c, 0, 58, 46
2, 98447, Control_c, 0, 64, 127
2, 98497, Note_on_c, 0, 53, 0
2, 98529, Note_on_c, 0, 58, 0
2, 98531, Note_on_c, 0, 61, 0
2, 98616, Note_on_c, 0, 46, 0
2, 98653, Note_on_c, 0, 65, 85
2, 98754, Note_on_c, 0, 65, 0
2, 98771, Note_on_c, 0, 68, 61
2, 98779, Note_on_c, 0, 65, 32
2, 98790, Note_on_c, 0, 65, 0
2, 98797, Note_on_c, 0, 68, 0
2, 98885, Note_on_c, 0, 27, 74
2, 98887, Control_c, 0, 64, 0
2, 98890, Note_on_c, 0, 77, 89
2, 98918, Note_on_c, 0, 27, 0
2, 98933, Control_c, 0, 64, 127
2, 99135, Note_on_c, 0, 65, 46
2, 99137, Note_on_c, 0, 61, 33
2, 99143, Note_on_c, 0, 55, 30
2, 99161, Note_on_c, 0, 55, 0
2, 99161, Note_on_c, 0, 77, 0
2, 99176, Note_on_c, 0, 65, 0
2, 99199, Note_on_c, 0, 61, 0
2, 99377, Note_on_c, 0, 42, 34
2, 99399, Control_c, 0, 64, 0
2, 99455, Note_on_c, 0, 68, 42
2, 99456, Note_on_c, 0, 59, 60
2, 99459, Note_on_c, 0, 64, 53
2, 99465, Note_on_c, 0, 59, 0
2, 99467, Note_on_c, 0, 68, 0
2, 99470, Note_on_c, 0, 64, 0
2, 99617, Note_on_c, 0, 68, 32
2, 99620, Note_on_c, 0, 59, 34
2, 99621, Note_on_c, 0, 54, 29
2, 99622, Note_on_c, 0, 64, 38
2, 99674, Control_c, 0, 64, 127
2, 99790, Note_on_c, 0, 59, 0
2, 99792, Note_on_c, 0, 64, 0
2, 99802, Note_on_c, 0, 68, 0
2, 99806, Note_on_c, 0, 54, 0
2, 99845, Control_c, 0, 64, 0
2, 99849, Note_on_c, 0, 68, 40
2, 99853, Note_on_c, 0, 59, 48
2, 99855, Note_on_c, 0, 54, 33
2, 99861, Note_on_c, 0, 64, 30
2, 99865, Note_on_c, 0, 59, 0
2, 99873, Note_on_c, 0, 64, 0
2, 99875, Note_on_c, 0, 68, 0
2, 99878, Note_on_c, 0, 54, 0
2, 99972, Note_on_c, 0, 68, 28
2, 99976, Note_on_c, 0, 64, 38
2, 99977, Note_on_c, 0, 54, 27
2, 99978, Note_on_c, 0, 59, 33
2, 100056, Control_c, 0, 64, 127
2, 100149, Note_on_c, 0, 42, 0
2, 100207, Note_on_c, 0, 42, 72
2, 100224, Control_c, 0, 64, 0
2, 100247, Control_c, 0, 64, 127
2, 100310, Note_on_c, 0, 59, 0
2, 100322, Note_on_c, 0, 64, 0
2, 100342, Note_on_c, 0, 68, 0
2, 100380, Note_on_c, 0, 54, 0
2, 100448, Note_on_c, 0, 68, 77
2, 100449, Control_c, 0, 64, 0
2, 100449, Note_on_c, 0, 54, 48
2, 100450, Note_on_c, 0, 65, 79
2, 100450, Note_on_c, 0, 60, 74
2, 100459, Note_on_c, 0, 60, 0
2, 100460, Note_on_c, 0, 65, 0
2, 100471, Note_on_c, 0, 54, 0
2, 100471, Note_on_c, 0, 68, 0
2, 100539, Control_c, 0, 64, 127
2, 100558, Control_c, 0, 64, 0
2, 100570, Note_on_c, 0, 68, 82
2, 100572, Note_on_c, 0, 65, 82
2, 100573, Note_on_c, 0, 60, 82
2, 100575, Note_on_c, 0, 53, 71
2, 100676, Control_c, 0, 64, 127
2, 100742, Note_on_c, 0, 42, 0
2, 100766, Note_on_c, 0, 60, 0
2, 100766, Note_on_c, 0, 65, 0
2, 100769, Note_on_c, 0, 68, 0
2, 100803, Note_on_c, 0, 42, 58
2, 100805, Control_c, 0, 64, 0
2, 100806, Note_on_c, 0, 72, 74
2, 100806, Note_on_c, 0, 65, 72
2, 100826, Note_on_c, 0, 53, 0
2, 100861, Control_c, 0, 64, 127
2, 100900, Note_on_c, 0, 65, 0
2, 100921, Note_on_c, 0, 72, 0
2, 100932, Note_on_c, 0, 68, 35
2, 100934, Note_on_c, 0, 60, 47
2, 100935, Control_c, 0, 64, 0
2, 100936, Note_on_c, 0, 65, 37
2, 100937, Note_on_c, 0, 53, 43
2, 100977, Control_c, 0, 64, 127
2, 101010, Note_on_c, 0, 53, 0
2, 101023, Note_on_c, 0, 42, 0
2, 101121, Note_on_c, 0, 42, 87
2, 101122, Note_on_c, 0, 30, 77
2, 101139, Control_c, 0, 64, 0
2, 101156, Control_c, 0, 64, 127
2, 101186, Note_on_c, 0, 30, 0
2, 101200, Note_on_c, 0, 42, 0
2, 101212, Note_on_c, 0, 65, 0
2, 101219, Note_on_c, 0, 68, 0
2, 101225, Note_on_c, 0, 60, 0
2, 101284, Note_on_c, 0, 42, 77
2, 101302, Control_c, 0, 64, 0
2, 101325, Control_c, 0, 64, 127
2, 101409, Note_on_c, 0, 68, 83
2, 101412, Note_on_c, 0, 64, 89
2, 101412, Note_on_c, 0, 59, 94
2, 101413, Note_on_c, 0, 54, 73
2, 101421, Control_c, 0, 64, 0
2, 101447, Note_on_c, 0, 59, 0
2, 101448, Note_on_c, 0, 54, 0
2, 101449, Note_on_c, 0, 64, 0
2, 101453, Note_on_c, 0, 68, 0
2, 101530, Note_on_c, 0, 68, 82
2, 101531, Note_on_c, 0, 64, 89
2, 101532, Note_on_c, 0, 59, 94
2, 101534, Note_on_c, 0, 54, 78
2, 101598, Control_c, 0, 64, 127
2, 101621, Note_on_c, 0, 54, 0
2, 101644, Note_on_c, 0, 42, 0
2, 101708, Note_on_c, 0, 59, 0
2, 101720, Note_on_c, 0, 64, 0
2, 101724, Note_on_c, 0, 30, 37
2, 101726, Note_on_c, 0, 68, 0
2, 101772, Note_on_c, 0, 42, 36
2, 101774, Note_on_c, 0, 59, 51
2, 101776, Note_on_c, 0, 68, 33
2, 101778, Control_c, 0, 64, 0
2, 101779, Note_on_c, 0, 64, 44
2, 101792, Note_on_c, 0, 64, 0
2, 101795, Note_on_c, 0, 30, 0
2, 101796, Note_on_c, 0, 59, 0
2, 101801, Note_on_c, 0, 42, 0
2, 101802, Note_on_c, 0, 68, 0
2, 101892, Note_on_c, 0, 59, 36
2, 101892, Note_on_c, 0, 68, 31
2, 101893, Note_on_c, 0, 42, 30
2, 101893, Note_on_c, 0, 30, 29
2, 101896, Note_on_c, 0, 64, 37
2, 101901, Control_c, 0, 64, 127
2, 102025, Note_on_c, 0, 30, 0
2, 102077, Note_on_c, 0, 30, 40
2, 102079, Note_on_c, 0, 42, 0
2, 102105, Note_on_c, 0, 59, 0
2, 102129, Note_on_c, 0, 42, 36
2, 102131, Note_on_c, 0, 59, 35
2, 102219, Note_on_c, 0, 59, 0
2, 102232, Note_on_c, 0, 30, 0
2, 102233, Note_on_c, 0, 64, 0
2, 102244, Note_on_c, 0, 68, 0
2, 102249, Note_on_c, 0, 42, 0
2, 102368, Note_on_c, 0, 68, 33
2, 102368, Note_on_c, 0, 60, 38
2, 102369, Note_on_c, 0, 42, 38
2, 102369, Note_on_c, 0, 65, 43
2, 102373, Control_c, 0, 64, 0
2, 102412, Control_c, 0, 64, 127
2, 102460, Note_on_c, 0, 42, 0
2, 102462, Note_on_c, 0, 53, 44
2, 102480, Note_on_c, 0, 60, 0
2, 102550, Note_on_c, 0, 65, 0
2, 102556, Note_on_c, 0, 53, 0
2, 102559, Note_on_c, 0, 56, 36
2, 102568, Note_on_c, 0, 60, 29
2, 102570, Note_on_c, 0, 68, 0
2, 102589, Note_on_c, 0, 60, 0
2, 102634, Note_on_c, 0, 65, 54
2, 102679, Note_on_c, 0, 65, 0
2, 102705, Note_on_c, 0, 72, 60
2, 102717, Note_on_c, 0, 60, 32
2, 102733, Note_on_c, 0, 72, 0
2, 102796, Note_on_c, 0, 72, 77
2, 102805, Note_on_c, 0, 60, 0
2, 102807, Note_on_c, 0, 65, 29
2, 102844, Note_on_c, 0, 72, 0
2, 102874, Note_on_c, 0, 79, 80
2, 102920, Note_on_c, 0, 79, 0
2, 102947, Note_on_c, 0, 65, 0
2, 102950, Note_on_c, 0, 79, 72
2, 102959, Note_on_c, 0, 60, 30
2, 103010, Note_on_c, 0, 60, 0
2, 103020, Note_on_c, 0, 79, 0
2, 103024, Note_on_c, 0, 56, 0
2, 103034, Note_on_c, 0, 72, 44
2, 103068, Note_on_c, 0, 72, 0
2, 103105, Note_on_c, 0, 72, 39
2, 103158, Note_on_c, 0, 72, 0
2, 103176, Note_on_c, 0, 42, 34
2, 103181, Note_on_c, 0, 76, 40
2, 103190, Control_c, 0, 64, 0
2, 103235, Control_c, 0, 64, 127
2, 103283, Note_on_c, 0, 71, 34
2, 103284, Note_on_c, 0, 64, 30
2, 103288, Note_on_c, 0, 68, 20
2, 103291, Note_on_c, 0, 52, 24
2, 103318, Note_on_c, 0, 42, 0
2, 103416, Note_on_c, 0, 52, 0
2, 103442, Note_on_c, 0, 56, 52
2, 103488, Note_on_c, 0, 64, 0
2, 103514, Note_on_c, 0, 68, 0
2, 103533, Note_on_c, 0, 71, 0
2, 103564, Note_on_c, 0, 64, 24
2, 103591, Note_on_c, 0, 64, 0
2, 103651, Note_on_c, 0, 59, 25
2, 103766, Note_on_c, 0, 59, 0
2, 103770, Note_on_c, 0, 71, 27
2, 103770, Note_on_c, 0, 64, 37
2, 103776, Note_on_c, 0, 68, 23
2, 103780, Note_on_c, 0, 56, 0
2, 103905, Note_on_c, 0, 64, 0
2, 103928, Note_on_c, 0, 42, 31
2, 104032, Note_on_c, 0, 76, 0
2, 104043, Note_on_c, 0, 71, 0
2, 104053, Note_on_c, 0, 68, 0
2, 104064, Note_on_c, 0, 42, 0
2, 104129, Note_on_c, 0, 42, 29
2, 104152, Note_on_c, 0, 42, 0
2, 104191, Note_on_c, 0, 53, 30
2, 104193, Note_on_c, 0, 60, 39
2, 104195, Note_on_c, 0, 56, 27
2, 104200, Note_on_c, 0, 42, 25
2, 104204, Control_c, 0, 64, 0
2, 104257, Control_c, 0, 64, 127
2, 104271, Note_on_c, 0, 53, 0
2, 104295, Note_on_c, 0, 60, 0
2, 104297, Note_on_c, 0, 56, 0
2, 104303, Note_on_c, 0, 53, 35
2, 104382, Note_on_c, 0, 55, 29
2, 104384, Note_on_c, 0, 56, 26
2, 104384, Note_on_c, 0, 60, 33
2, 104450, Note_on_c, 0, 53, 0
2, 104456, Note_on_c, 0, 55, 0
2, 104462, Note_on_c, 0, 56, 0
2, 104464, Note_on_c, 0, 60, 0
2, 104497, Note_on_c, 0, 53, 38
2, 104549, Control_c, 0, 64, 0
2, 104562, Note_on_c, 0, 55, 31
2, 104562, Note_on_c, 0, 60, 31
2, 104562, Note_on_c, 0, 56, 25
2, 104597, Control_c, 0, 64, 127
2, 104638, Note_on_c, 0, 42, 0
2, 104655, Note_on_c, 0, 55, 0
2, 104666, Note_on_c, 0, 42, 34
2, 104672, Note_on_c, 0, 56, 0
2, 104673, Note_on_c, 0, 53, 0
2, 104689, Note_on_c, 0, 60, 0
2, 104758, Note_on_c, 0, 56, 39
2, 104764, Note_on_c, 0, 60, 36
2, 104781, Note_on_c, 0, 53, 19
2, 104795, Note_on_c, 0, 53, 0
2, 104795, Note_on_c, 0, 54, 1
2, 104859, Note_on_c, 0, 53, 45
2, 104872, Control_c, 0, 64, 0
2, 104888, Note_on_c, 0, 54, 0
2, 104903, Note_on_c, 0, 53, 0
2, 104905, Control_c, 0, 64, 127
2, 104935, Note_on_c, 0, 53, 43
2, 104995, Note_on_c, 0, 42, 0
2, 105020, Note_on_c, 0, 56, 0
2, 105021, Note_on_c, 0, 60, 0
2, 105026, Note_on_c, 0, 42, 35
2, 105030, Note_on_c, 0, 53, 0
2, 105077, Note_on_c, 0, 42, 0
2, 105143, Note_on_c, 0, 56, 37
2, 105146, Note_on_c, 0, 42, 33
2, 105147, Control_c, 0, 64, 0
2, 105148, Note_on_c, 0, 52, 42
2, 105150, Note_on_c, 0, 59, 32
2, 105200, Control_c, 0, 64, 127
2, 105245, Note_on_c, 0, 52, 0
2, 105268, Note_on_c, 0, 59, 0
2, 105269, Note_on_c, 0, 56, 0
2, 105286, Note_on_c, 0, 42, 0
2, 105338, Note_on_c, 0, 42, 36
2, 105380, Note_on_c, 0, 42, 0
2, 105509, Note_on_c, 0, 30, 28
2, 105514, Note_on_c, 0, 42, 21
2, 105516, Note_on_c, 0, 56, 20
2, 105516, Note_on_c, 0, 52, 22
2, 105520, Note_on_c, 0, 59, 39
2, 106000, Note_on_c, 0, 52, 0
2, 106008, Note_on_c, 0, 59, 0
2, 106010, Note_on_c, 0, 56, 0
2, 106048, Note_on_c, 0, 42, 0
2, 106048, Note_on_c, 0, 30, 0
2, 106239, Control_c, 0, 64, 0
2, 106239, End_track
3, 0, Start_track
3, 0, Title_t, ""
3, 0, Program_c, 3, 83
3, 0, End_track
4, 0, Start_track
4, 0, Title_t, ""
4, 0, Program_c, 1, 32
4, 0, Control_c, 1, 7, 127
4, 48491, Note_on_c, 1, 41, 85
4, 48714, Note_on_c, 1, 39, 37
4, 48732, Note_on_c, 1, 48, 99
4, 48740, Note_on_c, 1, 41, 0
4, 48767, Note_on_c, 1, 39, 0
4, 48932, Note_on_c, 1, 41, 57
4, 48946, Note_on_c, 1, 41, 0
4, 48958, Note_on_c, 1, 48, 0
4, 48972, Note_on_c, 1, 46, 76
4, 49172, Note_on_c, 1, 39, 44
4, 49184, Note_on_c, 1, 37, 19
4, 49201, Note_on_c, 1, 46, 0
4, 49202, Note_on_c, 1, 37, 0
4, 49206, Note_on_c, 1, 39, 0
4, 49212, Note_on_c, 1, 41, 80
4, 49305, Note_on_c, 1, 41, 0
4, 49307, Note_on_c, 1, 37, 51
4, 49319, Note_on_c, 1, 39, 37
4, 49335, Note_on_c, 1, 40, 78
4, 49340, Note_on_c, 1, 37, 0
4, 49349, Note_on_c, 1, 39, 0
4, 49442, Note_on_c, 1, 40, 0
4, 49452, Note_on_c, 1, 39, 73
4, 49571, Note_on_c, 1, 46, 64
4, 49666, Note_on_c, 1, 39, 0
4, 49688, Note_on_c, 1, 34, 73
4, 49714, Note_on_c, 1, 46, 0
4, 49725, Note_on_c, 1, 39, 48
4, 49786, Note_on_c, 1, 39, 0
4, 49930, Note_on_c, 1, 32, 72
4, 49948, Note_on_c, 1, 34, 0
4, 50122, Note_on_c, 1, 39, 51
4, 50151, Note_on_c, 1, 32, 0
4, 50159, Note_on_c, 1, 39, 0
4, 50166, Note_on_c, 1, 48, 96
4, 50372, Note_on_c, 1, 39, 52
4, 50384, Note_on_c, 1, 42, 31
4, 50386, Note_on_c, 1, 48, 0
4, 50397, Note_on_c, 1, 42, 0
4, 50400, Note_on_c, 1, 39, 0
4, 50410, Note_on_c, 1, 49, 85
4, 50610, Note_on_c, 1, 41, 41
4, 50627, Note_on_c, 1, 41, 0
4, 50648, Note_on_c, 1, 49, 0
4, 50655, Note_on_c, 1, 44, 74
4, 50890, Note_on_c, 1, 38, 69
4, 50898, Note_on_c, 1, 44, 0
4, 51018, Note_on_c, 1, 43, 99
4, 51032, Note_on_c, 1, 38, 0
4, 51245, Note_on_c, 1, 43, 0
4, 51253, Note_on_c, 1, 31, 85
4, 51479, Note_on_c, 1, 31, 0
4, 51490, Note_on_c, 1, 36, 90
4, 51690, Note_on_c, 1, 34, 43
4, 51713, Note_on_c, 1, 34, 0
4, 51721, Note_on_c, 1, 50, 101
4, 51732, Note_on_c, 1, 36, 0
4, 51833, Note_on_c, 1, 50, 0
4, 51849, Note_on_c, 1, 48, 77
4, 52163, Note_on_c, 1, 41, 44
4, 52180, Note_on_c, 1, 41, 0
4, 52192, Note_on_c, 1, 48, 0
4, 52200, Note_on_c, 1, 47, 64
4, 52300, Note_on_c, 1, 47, 0
4, 52323, Note_on_c, 1, 48, 68
4, 52434, Note_on_c, 1, 48, 0
4, 52444, Note_on_c, 1, 39, 57
4, 52921, Note_on_c, 1, 39, 0
4, 52925, Note_on_c, 1, 41, 63
4, 53182, Note_on_c, 1, 50, 79
4, 53197, Note_on_c, 1, 41, 0
4, 53290, Note_on_c, 1, 50, 0
4, 53302, Note_on_c, 1, 46, 52
4, 53518, Note_on_c, 1, 46, 0
4, 53522, Note_on_c, 1, 38, 66
4, 53752, Note_on_c, 1, 38, 0
4, 53766, Note_on_c, 1, 39, 56
4, 53966, Note_on_c, 1, 37, 28
4, 53998, Note_on_c, 1, 39, 0
4, 54007, Note_on_c, 1, 48, 63
4, 54012, Note_on_c, 1, 37, 0
4, 54040, Note_on_c, 1, 48, 0
4, 54128, Note_on_c, 1, 46, 68
4, 54323, Note_on_c, 1, 39, 32
4, 54337, Note_on_c, 1, 39, 0
4, 54361, Note_on_c, 1, 46, 0
4, 54365, Note_on_c, 1, 44, 57
4, 54422, Note_on_c, 1, 44, 0
4, 54491, Note_on_c, 1, 43, 64
4, 54702, Note_on_c, 1, 43, 0
4, 54727, Note_on_c, 1, 41, 52
4, 54766, Note_on_c, 1, 41, 0
4, 54848, Note_on_c, 1, 39, 59
4, 54913, Note_on_c, 1, 39, 0
4, 54972, Note_on_c, 1, 38, 62
4, 55085, Note_on_c, 1, 45, 64
4, 55099, Note_on_c, 1, 38, 0
4, 55183, Note_on_c, 1, 45, 0
4, 55209, Note_on_c, 1, 43, 59
4, 55442, Note_on_c, 1, 43, 0
4, 55443, Note_on_c, 1, 38, 61
4, 55678, Note_on_c, 1, 38, 0
4, 55678, Note_on_c, 1, 31, 57
4, 55884, Note_on_c, 1, 38, 50
4, 55903, Note_on_c, 1, 38, 0
4, 55921, Note_on_c, 1, 31, 0
4, 55936, Note_on_c, 1, 50, 73
4, 55982, Note_on_c, 1, 50, 0
4, 56051, Note_on_c, 1, 48, 60
4, 56062, Note_on_c, 1, 50, 47
4, 56079, Note_on_c, 1, 50, 0
4, 56490, Note_on_c, 1, 48, 0
4, 56527, Note_on_c, 1, 43, 60
4, 56632, Note_on_c, 1, 43, 0
4, 56644, Note_on_c, 1, 42, 60
4, 56849, Note_on_c, 1, 38, 52
4, 56862, Note_on_c, 1, 42, 0
4, 56865, Note_on_c, 1, 38, 0
4, 56890, Note_on_c, 1, 48, 64
4, 57103, Note_on_c, 1, 48, 0
4, 57124, Note_on_c, 1, 47, 58
4, 57369, Note_on_c, 1, 42, 53
4, 57372, Note_on_c, 1, 47, 0
4, 57554, Note_on_c, 1, 38, 44
4, 57570, Note_on_c, 1, 38, 0
4, 57572, Note_on_c, 1, 42, 0
4, 57598, Note_on_c, 1, 43, 47
4, 57694, Note_on_c, 1, 43, 0
4, 57718, Note_on_c, 1, 40, 49
4, 57794, Note_on_c, 1, 40, 0
4, 57844, Note_on_c, 1, 31, 68
4, 58014, Note_on_c, 1, 29, 18
4, 58060, Note_on_c, 1, 31, 0
4, 58063, Note_on_c, 1, 29, 0
4, 58081, Note_on_c, 1, 30, 62
4, 58334, Note_on_c, 1, 48, 95
4, 58399, Note_on_c, 1, 30, 0
4, 58540, Note_on_c, 1, 30, 48
4, 58568, Note_on_c, 1, 30, 0
4, 58568, Note_on_c, 1, 48, 0
4, 58580, Note_on_c, 1, 47, 72
4, 58806, Note_on_c, 1, 42, 72
4, 58826, Note_on_c, 1, 47, 0
4, 59035, Note_on_c, 1, 42, 0
4, 59046, Note_on_c, 1, 40, 58
4, 59412, Note_on_c, 1, 50, 80
4, 59429, Note_on_c, 1, 40, 0
4, 59603, Note_on_c, 1, 50, 0
4, 59630, Note_on_c, 1, 48, 72
4, 59826, Note_on_c, 1, 44, 58
4, 59840, Note_on_c, 1, 48, 0
4, 59979, Note_on_c, 1, 44, 0
4, 59996, Note_on_c, 1, 41, 60
4, 60245, Note_on_c, 1, 41, 0
4, 60259, Note_on_c, 1, 48, 71
4, 60453, Note_on_c, 1, 48, 0
4, 60490, Note_on_c, 1, 41, 25
4, 60497, Note_on_c, 1, 46, 62
4, 60508, Note_on_c, 1, 41, 0
4, 60833, Note_on_c, 1, 46, 0
4, 60847, Note_on_c, 1, 39, 59
4, 60953, Note_on_c, 1, 39, 0
4, 60968, Note_on_c, 1, 40, 49
4, 61205, Note_on_c, 1, 40, 0
4, 61210, Note_on_c, 1, 33, 62
4, 61436, Note_on_c, 1, 33, 0
4, 61445, Note_on_c, 1, 32, 60
4, 61688, Note_on_c, 1, 43, 88
4, 61716, Note_on_c, 1, 32, 0
4, 61912, Note_on_c, 1, 43, 0
4, 61929, Note_on_c, 1, 37, 57
4, 62046, Note_on_c, 1, 49, 77
4, 62356, Note_on_c, 1, 37, 0
4, 62506, Note_on_c, 1, 49, 0
4, 62518, Note_on_c, 1, 54, 76
4, 62872, Note_on_c, 1, 54, 0
4, 62895, Note_on_c, 1, 54, 36
4, 63012, Note_on_c, 1, 54, 0
4, 63016, Note_on_c, 1, 48, 78
4, 63223, Note_on_c, 1, 43, 45
4, 63238, Note_on_c, 1, 48, 0
4, 63240, Note_on_c, 1, 43, 0
4, 63247, Note_on_c, 1, 51, 74
4, 63466, Note_on_c, 1, 51, 0
4, 63474, Note_on_c, 1, 43, 26
4, 63482, Note_on_c, 1, 50, 63
4, 63489, Note_on_c, 1, 51, 37
4, 63490, Note_on_c, 1, 43, 0
4, 63716, Note_on_c, 1, 47, 49
4, 63724, Note_on_c, 1, 50, 0
4, 63774, Note_on_c, 1, 51, 0
4, 63827, Note_on_c, 1, 47, 0
4, 63843, Note_on_c, 1, 49, 76
4, 63956, Note_on_c, 1, 49, 0
4, 63964, Note_on_c, 1, 46, 59
4, 64089, Note_on_c, 1, 43, 51
4, 64120, Note_on_c, 1, 46, 0
4, 64196, Note_on_c, 1, 43, 0
4, 64449, Note_on_c, 1, 39, 67
4, 64642, Note_on_c, 1, 39, 0
4, 64691, Note_on_c, 1, 39, 77
4, 64904, Note_on_c, 1, 39, 0
4, 64932, Note_on_c, 1, 39, 73
4, 65134, Note_on_c, 1, 39, 0
4, 65161, Note_on_c, 1, 39, 67
4, 65406, Note_on_c, 1, 48, 101
4, 65428, Note_on_c, 1, 39, 0
4, 65628, Note_on_c, 1, 48, 0
4, 65649, Note_on_c, 1, 36, 50
4, 65671, Note_on_c, 1, 36, 0
4, 65772, Note_on_c, 1, 41, 71
4, 66010, Note_on_c, 1, 41, 0
4, 66019, Note_on_c, 1, 36, 44
4, 66197, Note_on_c, 1, 34, 34
4, 66225, Note_on_c, 1, 34, 0
4, 66245, Note_on_c, 1, 46, 67
4, 66250, Note_on_c, 1, 36, 0
4, 66439, Note_on_c, 1, 38, 61
4, 66471, Note_on_c, 1, 46, 0
4, 66480, Note_on_c, 1, 38, 0
4, 66494, Note_on_c, 1, 34, 60
4, 66712, Note_on_c, 1, 34, 0
4, 66737, Note_on_c, 1, 39, 75
4, 66927, Note_on_c, 1, 34, 35
4, 66964, Note_on_c, 1, 46, 60
4, 66990, Note_on_c, 1, 39, 0
4, 66998, Note_on_c, 1, 34, 0
4, 67053, Note_on_c, 1, 46, 0
4, 67063, Note_on_c, 1, 37, 30
4, 67087, Note_on_c, 1, 45, 71
4, 67101, Note_on_c, 1, 37, 0
4, 67171, Note_on_c, 1, 45, 0
4, 67178, Note_on_c, 1, 39, 29
4, 67195, Note_on_c, 1, 39, 0
4, 67215, Note_on_c, 1, 44, 47
4, 67300, Note_on_c, 1, 44, 0
4, 67326, Note_on_c, 1, 39, 53
4, 67425, Note_on_c, 1, 39, 0
4, 67451, Note_on_c, 1, 35, 48
4, 67554, Note_on_c, 1, 35, 0
4, 67570, Note_on_c, 1, 36, 55
4, 67661, Note_on_c, 1, 36, 0
4, 67682, Note_on_c, 1, 37, 37
4, 67806, Note_on_c, 1, 49, 60
4, 67819, Note_on_c, 1, 37, 0
4, 67916, Note_on_c, 1, 49, 0
4, 67929, Note_on_c, 1, 53, 42
4, 68013, Note_on_c, 1, 53, 0
4, 68050, Note_on_c, 1, 54, 62
4, 68163, Note_on_c, 1, 54, 0
4, 68174, Note_on_c, 1, 55, 69
4, 68285, Note_on_c, 1, 55, 0
4, 68290, Note_on_c, 1, 50, 80
4, 68405, Note_on_c, 1, 50, 0
4, 68409, Note_on_c, 1, 43, 64
4, 68524, Note_on_c, 1, 59, 113
4, 68532, Note_on_c, 1, 43, 0
4, 68632, Note_on_c, 1, 59, 0
4, 68646, Note_on_c, 1, 60, 80
4, 68769, Note_on_c, 1, 55, 58
4, 68798, Note_on_c, 1, 60, 0
4, 68871, Note_on_c, 1, 55, 0
4, 68886, Note_on_c, 1, 57, 79
4, 68896, Note_on_c, 1, 55, 28
4, 68909, Note_on_c, 1, 55, 0
4, 68991, Note_on_c, 1, 57, 0
4, 69008, Note_on_c, 1, 52, 59
4, 69235, Note_on_c, 1, 52, 0
4, 69246, Note_on_c, 1, 53, 77
4, 69438, Note_on_c, 1, 46, 62
4, 69455, Note_on_c, 1, 53, 0
4, 69477, Note_on_c, 1, 46, 0
4, 69492, Note_on_c, 1, 47, 53
4, 69591, Note_on_c, 1, 47, 0
4, 69607, Note_on_c, 1, 48, 51
4, 69721, Note_on_c, 1, 51, 58
4, 69726, Note_on_c, 1, 48, 0
4, 69820, Note_on_c, 1, 51, 0
4, 69843, Note_on_c, 1, 43, 53
4, 69922, Note_on_c, 1, 43, 0
4, 69960, Note_on_c, 1, 40, 52
4, 70062, Note_on_c, 1, 40, 0
4, 70085, Note_on_c, 1, 41, 49
4, 70208, Note_on_c, 1, 29, 38
4, 70223, Note_on_c, 1, 41, 0
4, 70313, Note_on_c, 1, 29, 0
4, 70325, Note_on_c, 1, 33, 44
4, 70422, Note_on_c, 1, 33, 0
4, 70442, Note_on_c, 1, 35, 76
4, 70562, Note_on_c, 1, 35, 0
4, 70567, Note_on_c, 1, 34, 59
4, 70830, Note_on_c, 1, 34, 0
4, 70930, Note_on_c, 1, 39, 50
4, 71057, Note_on_c, 1, 50, 45
4, 71082, Note_on_c, 1, 50, 0
4, 71173, Note_on_c, 1, 50, 71
4, 71176, Note_on_c, 1, 51, 38
4, 71195, Note_on_c, 1, 39, 0
4, 71287, Note_on_c, 1, 39, 25
4, 71292, Note_on_c, 1, 51, 0
4, 71294, Note_on_c, 1, 50, 0
4, 71297, Note_on_c, 1, 42, 46
4, 71310, Note_on_c, 1, 42, 0
4, 71389, Note_on_c, 1, 39, 0
4, 71408, Note_on_c, 1, 44, 77
4, 71505, Note_on_c, 1, 44, 0
4, 71525, Note_on_c, 1, 44, 80
4, 71642, Note_on_c, 1, 56, 86
4, 71699, Note_on_c, 1, 44, 0
4, 71764, Note_on_c, 1, 44, 44
4, 71802, Note_on_c, 1, 44, 0
4, 71871, Note_on_c, 1, 44, 25
4, 71872, Note_on_c, 1, 56, 0
4, 71890, Note_on_c, 1, 44, 0
4, 71891, Note_on_c, 1, 57, 80
4, 72016, Note_on_c, 1, 51, 37
4, 72094, Note_on_c, 1, 57, 0
4, 72120, Note_on_c, 1, 42, 53
4, 72207, Note_on_c, 1, 51, 0
4, 72233, Note_on_c, 1, 42, 0
4, 72247, Note_on_c, 1, 50, 63
4, 72359, Note_on_c, 1, 50, 0
4, 72360, Note_on_c, 1, 42, 51
4, 72475, Note_on_c, 1, 42, 0
4, 72479, Note_on_c, 1, 43, 51
4, 72580, Note_on_c, 1, 43, 0
4, 72606, Note_on_c, 1, 43, 69
4, 72723, Note_on_c, 1, 45, 39
4, 72813, Note_on_c, 1, 45, 0
4, 72817, Note_on_c, 1, 42, 33
4, 72841, Note_on_c, 1, 45, 75
4, 72849, Note_on_c, 1, 42, 0
4, 72857, Note_on_c, 1, 43, 0
4, 72953, Note_on_c, 1, 45, 0
4, 72969, Note_on_c, 1, 47, 38
4, 73056, Note_on_c, 1, 43, 27
4, 73059, Note_on_c, 1, 47, 0
4, 73081, Note_on_c, 1, 43, 0
4, 73085, Note_on_c, 1, 47, 57
4, 73194, Note_on_c, 1, 47, 0
4, 73200, Note_on_c, 1, 52, 64
4, 73397, Note_on_c, 1, 45, 50
4, 73413, Note_on_c, 1, 45, 0
4, 73425, Note_on_c, 1, 52, 0
4, 73438, Note_on_c, 1, 50, 61
4, 73554, Note_on_c, 1, 38, 64
4, 73572, Note_on_c, 1, 50, 0
4, 73752, Note_on_c, 1, 50, 43
4, 73772, Note_on_c, 1, 50, 0
4, 73794, Note_on_c, 1, 62, 71
4, 73835, Note_on_c, 1, 62, 0
4, 73917, Note_on_c, 1, 62, 76
4, 74003, Note_on_c, 1, 38, 0
4, 74028, Note_on_c, 1, 62, 0
4, 74034, Note_on_c, 1, 38, 60
4, 74129, Note_on_c, 1, 38, 0
4, 74156, Note_on_c, 1, 38, 66
4, 74278, Note_on_c, 1, 50, 101
4, 74490, Note_on_c, 1, 38, 0
4, 74532, Note_on_c, 1, 38, 49
4, 74564, Note_on_c, 1, 38, 0
4, 74646, Note_on_c, 1, 38, 80
4, 74650, Note_on_c, 1, 50, 0
4, 74829, Note_on_c, 1, 45, 53
4, 74845, Note_on_c, 1, 45, 0
4, 74870, Note_on_c, 1, 50, 82
4, 74882, Note_on_c, 1, 38, 0
4, 74894, Note_on_c, 1, 50, 0
4, 74995, Note_on_c, 1, 50, 96
4, 75019, Note_on_c, 1, 50, 0
4, 75118, Note_on_c, 1, 50, 83
4, 75141, Note_on_c, 1, 50, 0
4, 75188, Note_on_c, 1, 50, 70
4, 75207, Note_on_c, 1, 50, 0
4, 75230, Note_on_c, 1, 50, 80
4, 75244, Note_on_c, 1, 38, 64
4, 75342, Note_on_c, 1, 50, 0
4, 75603, Note_on_c, 1, 47, 71
4, 75621, Note_on_c, 1, 47, 0
4, 75633, Note_on_c, 1, 38, 0
4, 75718, Note_on_c, 1, 47, 80
4, 75823, Note_on_c, 1, 47, 0
4, 75841, Note_on_c, 1, 35, 83
4, 76012, Note_on_c, 1, 35, 0
4, 76029, Note_on_c, 1, 35, 30
4, 76086, Note_on_c, 1, 47, 63
4, 76096, Note_on_c, 1, 35, 0
4, 76104, Note_on_c, 1, 47, 0
4, 76202, Note_on_c, 1, 47, 84
4, 76443, Note_on_c, 1, 47, 0
4, 76443, Note_on_c, 1, 35, 84
4, 76603, Note_on_c, 1, 35, 0
4, 76633, Note_on_c, 1, 34, 64
4, 76665, Note_on_c, 1, 34, 0
4, 76675, Note_on_c, 1, 35, 68
4, 76788, Note_on_c, 1, 35, 0
4, 76802, Note_on_c, 1, 36, 58
4, 76993, Note_on_c, 1, 34, 38
4, 76996, Note_on_c, 1, 36, 0
4, 77030, Note_on_c, 1, 34, 0
4, 77040, Note_on_c, 1, 38, 43
4, 77108, Note_on_c, 1, 38, 0
4, 77114, Note_on_c, 1, 39, 60
4, 77143, Note_on_c, 1, 39, 0
4, 77152, Note_on_c, 1, 40, 38
4, 77263, Note_on_c, 1, 40, 0
4, 77281, Note_on_c, 1, 41, 47
4, 77399, Note_on_c, 1, 44, 40
4, 77422, Note_on_c, 1, 41, 0
4, 77502, Note_on_c, 1, 44, 0
4, 77529, Note_on_c, 1, 48, 36
4, 77696, Note_on_c, 1, 48, 0
4, 77701, Note_on_c, 1, 47, 55
4, 77735, Note_on_c, 1, 47, 0
4, 77760, Note_on_c, 1, 46, 37
4, 77971, Note_on_c, 1, 41, 36
4, 77989, Note_on_c, 1, 41, 0
4, 77991, Note_on_c, 1, 46, 0
4, 78007, Note_on_c, 1, 58, 65
4, 78122, Note_on_c, 1, 58, 0
4, 78128, Note_on_c, 1, 56, 56
4, 78235, Note_on_c, 1, 56, 0
4, 78247, Note_on_c, 1, 55, 45
4, 78337, Note_on_c, 1, 55, 0
4, 78362, Note_on_c, 1, 53, 56
4, 78471, Note_on_c, 1, 53, 0
4, 78485, Note_on_c, 1, 51, 52
4, 78572, Note_on_c, 1, 51, 0
4, 78601, Note_on_c, 1, 49, 58
4, 78691, Note_on_c, 1, 49, 0
4, 78718, Note_on_c, 1, 48, 52
4, 78817, Note_on_c, 1, 48, 0
4, 78841, Note_on_c, 1, 46, 54
4, 78947, Note_on_c, 1, 46, 0
4, 78961, Note_on_c, 1, 44, 47
4, 79146, Note_on_c, 1, 44, 0
4, 79200, Note_on_c, 1, 37, 56
4, 79411, Note_on_c, 1, 44, 35
4, 79434, Note_on_c, 1, 44, 0
4, 79447, Note_on_c, 1, 49, 57
4, 79519, Note_on_c, 1, 49, 0
4, 79567, Note_on_c, 1, 49, 59
4, 79668, Note_on_c, 1, 37, 0
4, 79671, Note_on_c, 1, 49, 0
4, 79687, Note_on_c, 1, 42, 60
4, 79787, Note_on_c, 1, 42, 0
4, 79809, Note_on_c, 1, 42, 71
4, 80053, Note_on_c, 1, 54, 77
4, 80074, Note_on_c, 1, 42, 0
4, 80176, Note_on_c, 1, 48, 85
4, 80177, Note_on_c, 1, 54, 0
4, 80422, Note_on_c, 1, 51, 69
4, 80547, Note_on_c, 1, 48, 0
4, 80602, Note_on_c, 1, 44, 46
4, 80649, Note_on_c, 1, 51, 0
4, 80654, Note_on_c, 1, 47, 67
4, 80666, Note_on_c, 1, 44, 0
4, 80837, Note_on_c, 1, 44, 25
4, 80866, Note_on_c, 1, 47, 0
4, 80878, Note_on_c, 1, 50, 76
4, 80889, Note_on_c, 1, 44, 0
4, 81077, Note_on_c, 1, 44, 42
4, 81091, Note_on_c, 1, 50, 0
4, 81111, Note_on_c, 1, 44, 0
4, 81118, Note_on_c, 1, 46, 68
4, 81350, Note_on_c, 1, 46, 0
4, 81359, Note_on_c, 1, 41, 67
4, 81405, Note_on_c, 1, 41, 0
4, 81475, Note_on_c, 1, 40, 68
4, 81526, Note_on_c, 1, 40, 0
4, 81598, Note_on_c, 1, 39, 60
4, 81852, Note_on_c, 1, 46, 70
4, 81861, Note_on_c, 1, 39, 0
4, 82044, Note_on_c, 1, 39, 46
4, 82068, Note_on_c, 1, 46, 0
4, 82070, Note_on_c, 1, 39, 0
4, 82084, Note_on_c, 1, 44, 60
4, 82426, Note_on_c, 1, 44, 0
4, 82444, Note_on_c, 1, 42, 73
4, 82615, Note_on_c, 1, 42, 0
4, 82631, Note_on_c, 1, 43, 69
4, 82795, Note_on_c, 1, 43, 0
4, 82803, Note_on_c, 1, 48, 74
4, 82842, Note_on_c, 1, 48, 0
4, 82918, Note_on_c, 1, 40, 53
4, 83015, Note_on_c, 1, 40, 0
4, 83046, Note_on_c, 1, 41, 48
4, 83151, Note_on_c, 1, 41, 0
4, 83166, Note_on_c, 1, 36, 33
4, 83262, Note_on_c, 1, 36, 0
4, 83289, Note_on_c, 1, 32, 39
4, 83377, Note_on_c, 1, 32, 0
4, 83404, Note_on_c, 1, 33, 46
4, 83507, Note_on_c, 1, 33, 0
4, 83528, Note_on_c, 1, 34, 43
4, 83648, Note_on_c, 1, 34, 0
4, 83650, Note_on_c, 1, 36, 37
4, 83757, Note_on_c, 1, 36, 0
4, 83766, Note_on_c, 1, 37, 37
4, 83889, Note_on_c, 1, 38, 64
4, 83894, Note_on_c, 1, 37, 0
4, 84011, Note_on_c, 1, 38, 0
4, 84011, Note_on_c, 1, 39, 48
4, 84126, Note_on_c, 1, 41, 59
4, 84142, Note_on_c, 1, 39, 0
4, 84215, Note_on_c, 1, 39, 35
4, 84228, Note_on_c, 1, 41, 0
4, 84233, Note_on_c, 1, 39, 0
4, 84246, Note_on_c, 1, 42, 53
4, 84327, Note_on_c, 1, 39, 27
4, 84347, Note_on_c, 1, 39, 0
4, 84354, Note_on_c, 1, 42, 0
4, 84361, Note_on_c, 1, 43, 52
4, 84465, Note_on_c, 1, 43, 0
4, 84479, Note_on_c, 1, 44, 52
4, 84589, Note_on_c, 1, 44, 0
4, 84602, Note_on_c, 1, 46, 61
4, 84709, Note_on_c, 1, 46, 0
4, 84725, Note_on_c, 1, 47, 46
4, 84806, Note_on_c, 1, 41, 34
4, 84824, Note_on_c, 1, 41, 0
4, 84828, Note_on_c, 1, 47, 0
4, 84842, Note_on_c, 1, 48, 76
4, 84936, Note_on_c, 1, 48, 0
4, 84965, Note_on_c, 1, 49, 68
4, 85059, Note_on_c, 1, 49, 0
4, 85082, Note_on_c, 1, 51, 78
4, 85178, Note_on_c, 1, 51, 0
4, 85202, Note_on_c, 1, 53, 82
4, 85320, Note_on_c, 1, 53, 0
4, 85320, Note_on_c, 1, 48, 56
4, 85419, Note_on_c, 1, 48, 0
4, 85444, Note_on_c, 1, 43, 27
4, 85523, Note_on_c, 1, 43, 0
4, 85563, Note_on_c, 1, 50, 75
4, 85670, Note_on_c, 1, 50, 0
4, 85685, Note_on_c, 1, 47, 30
4, 85776, Note_on_c, 1, 47, 0
4, 85808, Note_on_c, 1, 52, 74
4, 85892, Note_on_c, 1, 43, 37
4, 85923, Note_on_c, 1, 43, 0
4, 85923, Note_on_c, 1, 52, 0
4, 85923, Note_on_c, 1, 50, 42
4, 86015, Note_on_c, 1, 50, 0
4, 86027, Note_on_c, 1, 43, 24
4, 86038, Note_on_c, 1, 48, 51
4, 86044, Note_on_c, 1, 43, 0
4, 86141, Note_on_c, 1, 48, 0
4, 86160, Note_on_c, 1, 47, 41
4, 86253, Note_on_c, 1, 47, 0
4, 86273, Note_on_c, 1, 50, 57
4, 86383, Note_on_c, 1, 50, 0
4, 86396, Note_on_c, 1, 48, 55
4, 86505, Note_on_c, 1, 48, 0
4, 86511, Note_on_c, 1, 43, 75
4, 86635, Note_on_c, 1, 38, 51
4, 86636, Note_on_c, 1, 43, 0
4, 86736, Note_on_c, 1, 38, 0
4, 86752, Note_on_c, 1, 37, 83
4, 86855, Note_on_c, 1, 37, 0
4, 86875, Note_on_c, 1, 36, 71
4, 86997, Note_on_c, 1, 46, 86
4, 87007, Note_on_c, 1, 36, 0
4, 87116, Note_on_c, 1, 43, 42
4, 87217, Note_on_c, 1, 43, 0
4, 87253, Note_on_c, 1, 40, 53
4, 87255, Note_on_c, 1, 40, 0
4, 87255, Note_on_c, 1, 46, 0
4, 87485, Note_on_c, 1, 41, 61
4, 87606, Note_on_c, 1, 43, 36
4, 87610, Note_on_c, 1, 41, 0
4, 87709, Note_on_c, 1, 43, 0
4, 87714, Note_on_c, 1, 39, 32
4, 87725, Note_on_c, 1, 44, 58
4, 87737, Note_on_c, 1, 39, 0
4, 87821, Note_on_c, 1, 44, 0
4, 87850, Note_on_c, 1, 46, 74
4, 87926, Note_on_c, 1, 46, 0
4, 87967, Note_on_c, 1, 46, 57
4, 88068, Note_on_c, 1, 46, 0
4, 88085, Note_on_c, 1, 38, 54
4, 88186, Note_on_c, 1, 38, 0
4, 88199, Note_on_c, 1, 38, 43
4, 88317, Note_on_c, 1, 38, 0
4, 88321, Note_on_c, 1, 39, 59
4, 88410, Note_on_c, 1, 37, 47
4, 88436, Note_on_c, 1, 53, 71
4, 88443, Note_on_c, 1, 39, 0
4, 88448, Note_on_c, 1, 37, 0
4, 88543, Note_on_c, 1, 53, 0
4, 88561, Note_on_c, 1, 51, 37
4, 88661, Note_on_c, 1, 51, 0
4, 88670, Note_on_c, 1, 43, 56
4, 88774, Note_on_c, 1, 43, 0
4, 88792, Note_on_c, 1, 44, 57
4, 88889, Note_on_c, 1, 44, 0
4, 88913, Note_on_c, 1, 44, 61
4, 89037, Note_on_c, 1, 51, 74
4, 89057, Note_on_c, 1, 44, 0
4, 89159, Note_on_c, 1, 51, 0
4, 89162, Note_on_c, 1, 44, 21
4, 89171, Note_on_c, 1, 49, 72
4, 89184, Note_on_c, 1, 44, 0
4, 89259, Note_on_c, 1, 49, 0
4, 89285, Note_on_c, 1, 50, 71
4, 89398, Note_on_c, 1, 50, 0
4, 89403, Note_on_c, 1, 45, 74
4, 89519, Note_on_c, 1, 38, 57
4, 89535, Note_on_c, 1, 45, 0
4, 89626, Note_on_c, 1, 38, 0
4, 89642, Note_on_c, 1, 42, 75
4, 89743, Note_on_c, 1, 42, 0
4, 89760, Note_on_c, 1, 43, 77
4, 89974, Note_on_c, 1, 42, 29
4, 89993, Note_on_c, 1, 43, 0
4, 90023, Note_on_c, 1, 42, 0
4, 90026, Note_on_c, 1, 45, 59
4, 90205, Note_on_c, 1, 42, 38
4, 90219, Note_on_c, 1, 45, 0
4, 90227, Note_on_c, 1, 42, 0
4, 90242, Note_on_c, 1, 47, 53
4, 90438, Note_on_c, 1, 43, 55
4, 90452, Note_on_c, 1, 43, 0
4, 90466, Note_on_c, 1, 47, 0
4, 90486, Note_on_c, 1, 50, 62
4, 90534, Note_on_c, 1, 50, 0
4, 90606, Note_on_c, 1, 50, 80
4, 90852, Note_on_c, 1, 38, 71
4, 90855, Note_on_c, 1, 50, 0
4, 91050, Note_on_c, 1, 45, 42
4, 91066, Note_on_c, 1, 45, 0
4, 91073, Note_on_c, 1, 38, 0
4, 91091, Note_on_c, 1, 49, 67
4, 91184, Note_on_c, 1, 49, 0
4, 91211, Note_on_c, 1, 50, 64
4, 91307, Note_on_c, 1, 50, 0
4, 91323, Note_on_c, 1, 38, 54
4, 91448, Note_on_c, 1, 54, 69
4, 91548, Note_on_c, 1, 54, 0
4, 91569, Note_on_c, 1, 54, 77
4, 91609, Note_on_c, 1, 38, 0
4, 91806, Note_on_c, 1, 54, 0
4, 91809, Note_on_c, 1, 38, 68
4, 92000, Note_on_c, 1, 43, 43
4, 92017, Note_on_c, 1, 43, 0
4, 92037, Note_on_c, 1, 52, 77
4, 92145, Note_on_c, 1, 52, 0
4, 92157, Note_on_c, 1, 38, 0
4, 92159, Note_on_c, 1, 50, 67
4, 92279, Note_on_c, 1, 38, 57
4, 92368, Note_on_c, 1, 38, 0
4, 92399, Note_on_c, 1, 38, 66
4, 92403, Note_on_c, 1, 50, 0
4, 92485, Note_on_c, 1, 38, 0
4, 92520, Note_on_c, 1, 38, 67
4, 92586, Note_on_c, 1, 38, 0
4, 92638, Note_on_c, 1, 35, 69
4, 92832, Note_on_c, 1, 41, 45
4, 92851, Note_on_c, 1, 41, 0
4, 92880, Note_on_c, 1, 47, 62
4, 92923, Note_on_c, 1, 35, 0
4, 93108, Note_on_c, 1, 47, 0
4, 93125, Note_on_c, 1, 42, 54
4, 93309, Note_on_c, 1, 39, 45
4, 93353, Note_on_c, 1, 39, 0
4, 93356, Note_on_c, 1, 51, 60
4, 93357, Note_on_c, 1, 42, 0
4, 93565, Note_on_c, 1, 47, 48
4, 93582, Note_on_c, 1, 47, 0
4, 93584, Note_on_c, 1, 51, 0
4, 93603, Note_on_c, 1, 52, 49
4, 93834, Note_on_c, 1, 52, 0
4, 93843, Note_on_c, 1, 40, 60
4, 94034, Note_on_c, 1, 50, 44
4, 94049, Note_on_c, 1, 40, 0
4, 94057, Note_on_c, 1, 50, 0
4, 94078, Note_on_c, 1, 48, 50
4, 94272, Note_on_c, 1, 43, 49
4, 94292, Note_on_c, 1, 43, 0
4, 94296, Note_on_c, 1, 48, 0
4, 94315, Note_on_c, 1, 39, 56
4, 94406, Note_on_c, 1, 39, 0
4, 94437, Note_on_c, 1, 40, 64
4, 94540, Note_on_c, 1, 40, 0
4, 94565, Note_on_c, 1, 41, 79
4, 94794, Note_on_c, 1, 41, 0
4, 94803, Note_on_c, 1, 36, 70
4, 95022, Note_on_c, 1, 36, 0
4, 95044, Note_on_c, 1, 34, 64
4, 95204, Note_on_c, 1, 34, 0
4, 95222, Note_on_c, 1, 34, 37
4, 95282, Note_on_c, 1, 46, 67
4, 95299, Note_on_c, 1, 34, 0
4, 95483, Note_on_c, 1, 39, 42
4, 95514, Note_on_c, 1, 39, 0
4, 95528, Note_on_c, 1, 46, 0
4, 95529, Note_on_c, 1, 40, 66
4, 95760, Note_on_c, 1, 40, 0
4, 95767, Note_on_c, 1, 33, 70
4, 95985, Note_on_c, 1, 33, 0
4, 95995, Note_on_c, 1, 32, 69
4, 96192, Note_on_c, 1, 40, 38
4, 96194, Note_on_c, 1, 34, 31
4, 96211, Note_on_c, 1, 40, 0
4, 96234, Note_on_c, 1, 48, 69
4, 96247, Note_on_c, 1, 34, 0
4, 96279, Note_on_c, 1, 48, 0
4, 96328, Note_on_c, 1, 34, 43
4, 96353, Note_on_c, 1, 32, 0
4, 96356, Note_on_c, 1, 48, 81
4, 96367, Note_on_c, 1, 34, 0
4, 96459, Note_on_c, 1, 48, 0
4, 96482, Note_on_c, 1, 49, 81
4, 96721, Note_on_c, 1, 44, 58
4, 96740, Note_on_c, 1, 49, 0
4, 96947, Note_on_c, 1, 44, 0
4, 96960, Note_on_c, 1, 37, 71
4, 97212, Note_on_c, 1, 37, 0
4, 97212, Note_on_c, 1, 42, 80
4, 97558, Note_on_c, 1, 42, 0
4, 97565, Note_on_c, 1, 36, 81
4, 97763, Note_on_c, 1, 36, 0
4, 97796, Note_on_c, 1, 36, 66
4, 98013, Note_on_c, 1, 36, 0
4, 98015, Note_on_c, 1, 41, 27
4, 98028, Note_on_c, 1, 41, 0
4, 98050, Note_on_c, 1, 47, 82
4, 98246, Note_on_c, 1, 47, 0
4, 98278, Note_on_c, 1, 47, 63
4, 98383, Note_on_c, 1, 47, 0
4, 98405, Note_on_c, 1, 46, 74
4, 98764, Note_on_c, 1, 38, 70
4, 98768, Note_on_c, 1, 46, 0
4, 98798, Note_on_c, 1, 38, 0
4, 98886, Note_on_c, 1, 39, 81
4, 99102, Note_on_c, 1, 39, 0
4, 99126, Note_on_c, 1, 39, 76
4, 99352, Note_on_c, 1, 39, 0
4, 99362, Note_on_c, 1, 42, 90
4, 99621, Note_on_c, 1, 42, 0
4, 99858, Note_on_c, 1, 54, 49
4, 99898, Note_on_c, 1, 54, 0
4, 99982, Note_on_c, 1, 54, 51
4, 100221, Note_on_c, 1, 54, 0
4, 100223, Note_on_c, 1, 42, 78
4, 100819, Note_on_c, 1, 54, 81
4, 100832, Note_on_c, 1, 42, 0
4, 100849, Note_on_c, 1, 54, 0
4, 100944, Note_on_c, 1, 54, 91
4, 101179, Note_on_c, 1, 42, 84
4, 101183, Note_on_c, 1, 54, 0
4, 101895, Note_on_c, 1, 52, 76
4, 102042, Note_on_c, 1, 42, 0
4, 102141, Note_on_c, 1, 42, 82
4, 102149, Note_on_c, 1, 52, 0
4, 102498, Note_on_c, 1, 53, 69
4, 102515, Note_on_c, 1, 53, 0
4, 102618, Note_on_c, 1, 53, 71
4, 102645, Note_on_c, 1, 42, 0
4, 102867, Note_on_c, 1, 53, 0
4, 102869, Note_on_c, 1, 42, 81
4, 103343, Note_on_c, 1, 52, 46
4, 103361, Note_on_c, 1, 52, 0
4, 103470, Note_on_c, 1, 52, 41
4, 103617, Note_on_c, 1, 42, 0
4, 103707, Note_on_c, 1, 42, 35
4, 103723, Note_on_c, 1, 52, 0
4, 103732, Note_on_c, 1, 42, 0
4, 103815, Note_on_c, 1, 42, 39
4, 104294, Note_on_c, 1, 53, 36
4, 104317, Note_on_c, 1, 53, 0
4, 104421, Note_on_c, 1, 53, 33
4, 104574, Note_on_c, 1, 42, 0
4, 104660, Note_on_c, 1, 42, 37
4, 104691, Note_on_c, 1, 42, 0
4, 104736, Note_on_c, 1, 53, 0
4, 104793, Note_on_c, 1, 42, 38
4, 105398, Note_on_c, 1, 52, 34
4, 105533, Note_on_c, 1, 42, 0
4, 105646, Note_on_c, 1, 42, 35
4, 105680, Note_on_c, 1, 42, 0
4, 105699, Note_on_c, 1, 52, 0
4, 105766, Note_on_c, 1, 42, 42
4, 106527, Note_on_c, 1, 42, 0
4, 106527, End_track
5, 0, Start_track
5, 0, Title_t, ""
5, 0, Program_c, 9, 32
5, 0, Control_c, 9, 7, 127
5, 48855, Note_on_c, 9, 44, 36
5, 48881, Note_on_c, 9, 44, 0
5, 49081, Note_on_c, 9, 59, 51
5, 49093, Note_on_c, 9, 44, 36
5, 49096, Note_on_c, 9, 59, 0
5, 49128, Note_on_c, 9, 44, 0
5, 49277, Note_on_c, 9, 59, 49
5, 49292, Note_on_c, 9, 59, 0
5, 49328, Note_on_c, 9, 59, 38
5, 49335, Note_on_c, 9, 44, 46
5, 49365, Note_on_c, 9, 59, 0
5, 49368, Note_on_c, 9, 44, 0
5, 49572, Note_on_c, 9, 44, 49
5, 49572, Note_on_c, 9, 59, 64
5, 49584, Note_on_c, 9, 59, 0
5, 49603, Note_on_c, 9, 44, 0
5, 49757, Note_on_c, 9, 53, 53
5, 49784, Note_on_c, 9, 53, 0
5, 49806, Note_on_c, 9, 59, 30
5, 49814, Note_on_c, 9, 46, 39
5, 49828, Note_on_c, 9, 59, 0
5, 49843, Note_on_c, 9, 46, 0
5, 49933, Note_on_c, 9, 59, 46
5, 49952, Note_on_c, 9, 59, 0
5, 50045, Note_on_c, 9, 59, 61
5, 50052, Note_on_c, 9, 44, 45
5, 50061, Note_on_c, 9, 59, 0
5, 50086, Note_on_c, 9, 44, 0
5, 50280, Note_on_c, 9, 59, 53
5, 50287, Note_on_c, 9, 44, 40
5, 50295, Note_on_c, 9, 59, 0
5, 50320, Note_on_c, 9, 44, 0
5, 50368, Note_on_c, 9, 59, 49
5, 50383, Note_on_c, 9, 59, 0
5, 50410, Note_on_c, 9, 59, 54
5, 50457, Note_on_c, 9, 59, 0
5, 50532, Note_on_c, 9, 44, 42
5, 50534, Note_on_c, 9, 59, 44
5, 50550, Note_on_c, 9, 59, 0
5, 50567, Note_on_c, 9, 44, 0
5, 50648, Note_on_c, 9, 59, 57
5, 50662, Note_on_c, 9, 59, 0
5, 50767, Note_on_c, 9, 59, 54
5, 50778, Note_on_c, 9, 44, 50
5, 50782, Note_on_c, 9, 59, 0
5, 50811, Note_on_c, 9, 44, 0
5, 50852, Note_on_c, 9, 59, 60
5, 50865, Note_on_c, 9, 59, 0
5, 50887, Note_on_c, 9, 59, 66
5, 50917, Note_on_c, 9, 59, 0
5, 51012, Note_on_c, 9, 59, 58
5, 51016, Note_on_c, 9, 44, 37
5, 51026, Note_on_c, 9, 59, 0
5, 51040, Note_on_c, 9, 44, 0
5, 51212, Note_on_c, 9, 59, 41
5, 51229, Note_on_c, 9, 59, 0
5, 51249, Note_on_c, 9, 40, 41
5, 51253, Note_on_c, 9, 59, 79
5, 51269, Note_on_c, 9, 40, 0
5, 51307, Note_on_c, 9, 59, 0
5, 51327, Note_on_c, 9, 40, 43
5, 51348, Note_on_c, 9, 40, 0
5, 51381, Note_on_c, 9, 59, 29
5, 51394, Note_on_c, 9, 59, 0
5, 51441, Note_on_c, 9, 59, 76
5, 51479, Note_on_c, 9, 59, 0
5, 51497, Note_on_c, 9, 44, 51
5, 51550, Note_on_c, 9, 44, 0
5, 51568, Note_on_c, 9, 59, 61
5, 51582, Note_on_c, 9, 59, 0
5, 51619, Note_on_c, 9, 59, 75
5, 51681, Note_on_c, 9, 59, 0
5, 51742, Note_on_c, 9, 44, 42
5, 51774, Note_on_c, 9, 44, 0
5, 51810, Note_on_c, 9, 59, 72
5, 51842, Note_on_c, 9, 59, 0
5, 51924, Note_on_c, 9, 59, 58
5, 51938, Note_on_c, 9, 59, 0
5, 51967, Note_on_c, 9, 44, 37
5, 51973, Note_on_c, 9, 59, 80
5, 51992, Note_on_c, 9, 44, 0
5, 52026, Note_on_c, 9, 59, 0
5, 52077, Note_on_c, 9, 53, 51
5, 52098, Note_on_c, 9, 53, 0
5, 52153, Note_on_c, 9, 59, 73
5, 52177, Note_on_c, 9, 40, 58
5, 52191, Note_on_c, 9, 40, 0
5, 52194, Note_on_c, 9, 59, 0
5, 52272, Note_on_c, 9, 40, 56
5, 52281, Note_on_c, 9, 53, 55
5, 52292, Note_on_c, 9, 40, 0
5, 52295, Note_on_c, 9, 53, 0
5, 52320, Note_on_c, 9, 36, 43
5, 52329, Note_on_c, 9, 57, 54
5, 52330, Note_on_c, 9, 59, 70
5, 52349, Note_on_c, 9, 57, 0
5, 52356, Note_on_c, 9, 36, 0
5, 52396, Note_on_c, 9, 59, 0
5, 52444, Note_on_c, 9, 59, 46
5, 52460, Note_on_c, 9, 59, 0
5, 52512, Note_on_c, 9, 59, 55
5, 52533, Note_on_c, 9, 59, 0
5, 52632, Note_on_c, 9, 59, 50
5, 52646, Note_on_c, 9, 59, 0
5, 52680, Note_on_c, 9, 59, 65
5, 52692, Note_on_c, 9, 44, 49
5, 52718, Note_on_c, 9, 44, 0
5, 52738, Note_on_c, 9, 59, 0
5, 52812, Note_on_c, 9, 59, 54
5, 52834, Note_on_c, 9, 59, 0
5, 52932, Note_on_c, 9, 59, 90
5, 52936, Note_on_c, 9, 44, 46
5, 52974, Note_on_c, 9, 44, 0
5, 52977, Note_on_c, 9, 59, 0
5, 53172, Note_on_c, 9, 59, 94
5, 53208, Note_on_c, 9, 59, 0
5, 53292, Note_on_c, 9, 59, 47
5, 53307, Note_on_c, 9, 59, 0
5, 53409, Note_on_c, 9, 59, 89
5, 53420, Note_on_c, 9, 44, 62
5, 53459, Note_on_c, 9, 44, 0
5, 53459, Note_on_c, 9, 59, 0
5, 53533, Note_on_c, 9, 59, 43
5, 53540, Note_on_c, 9, 44, 63
5, 53551, Note_on_c, 9, 59, 0
5, 53585, Note_on_c, 9, 44, 0
5, 53650, Note_on_c, 9, 59, 91
5, 53664, Note_on_c, 9, 40, 28
5, 53685, Note_on_c, 9, 59, 0
5, 53687, Note_on_c, 9, 40, 0
5, 53774, Note_on_c, 9, 59, 50
5, 53788, Note_on_c, 9, 59, 0
5, 53886, Note_on_c, 9, 59, 95
5, 53919, Note_on_c, 9, 59, 0
5, 54123, Note_on_c, 9, 59, 91
5, 54132, Note_on_c, 9, 44, 55
5, 54158, Note_on_c, 9, 44, 0
5, 54159, Note_on_c, 9, 59, 0
5, 54369, Note_on_c, 9, 59, 88
5, 54371, Note_on_c, 9, 44, 67
5, 54405, Note_on_c, 9, 59, 0
5, 54409, Note_on_c, 9, 44, 0
5, 54501, Note_on_c, 9, 59, 33
5, 54519, Note_on_c, 9, 59, 0
5, 54564, Note_on_c, 9, 59, 65
5, 54578, Note_on_c, 9, 59, 0
5, 54611, Note_on_c, 9, 53, 60
5, 54615, Note_on_c, 9, 44, 51
5, 54626, Note_on_c, 9, 53, 0
5, 54648, Note_on_c, 9, 44, 0
5, 54739, Note_on_c, 9, 59, 56
5, 54752, Note_on_c, 9, 59, 0
5, 54846, Note_on_c, 9, 59, 83
5, 54857, Note_on_c, 9, 46, 57
5, 54884, Note_on_c, 9, 59, 0
5, 54899, Note_on_c, 9, 46, 0
5, 54969, Note_on_c, 9, 59, 43
5, 54983, Note_on_c, 9, 59, 0
5, 55083, Note_on_c, 9, 59, 85
5, 55116, Note_on_c, 9, 59, 0
5, 55282, Note_on_c, 9, 59, 27
5, 55297, Note_on_c, 9, 59, 0
5, 55321, Note_on_c, 9, 59, 73
5, 55336, Note_on_c, 9, 44, 53
5, 55361, Note_on_c, 9, 44, 0
5, 55374, Note_on_c, 9, 59, 0
5, 55453, Note_on_c, 9, 44, 57
5, 55490, Note_on_c, 9, 44, 0
5, 55565, Note_on_c, 9, 59, 77
5, 55593, Note_on_c, 9, 59, 0
5, 55648, Note_on_c, 9, 59, 44
5, 55664, Note_on_c, 9, 59, 0
5, 55694, Note_on_c, 9, 44, 42
5, 55720, Note_on_c, 9, 44, 0
5, 55797, Note_on_c, 9, 59, 80
5, 55805, Note_on_c, 9, 44, 48
5, 55826, Note_on_c, 9, 44, 0
5, 55830, Note_on_c, 9, 59, 0
5, 55924, Note_on_c, 9, 59, 72
5, 55937, Note_on_c, 9, 59, 0
5, 56000, Note_on_c, 9, 59, 60
5, 56011, Note_on_c, 9, 40, 35
5, 56013, Note_on_c, 9, 59, 0
5, 56028, Note_on_c, 9, 40, 0
5, 56043, Note_on_c, 9, 59, 42
5, 56064, Note_on_c, 9, 59, 0
5, 56123, Note_on_c, 9, 40, 55
5, 56145, Note_on_c, 9, 40, 0
5, 56168, Note_on_c, 9, 59, 77
5, 56185, Note_on_c, 9, 59, 0
5, 56297, Note_on_c, 9, 59, 44
5, 56313, Note_on_c, 9, 59, 0
5, 56366, Note_on_c, 9, 59, 71
5, 56397, Note_on_c, 9, 59, 0
5, 56535, Note_on_c, 9, 44, 44
5, 56544, Note_on_c, 9, 59, 79
5, 56589, Note_on_c, 9, 44, 0
5, 56600, Note_on_c, 9, 59, 0
5, 56660, Note_on_c, 9, 44, 52
5, 56696, Note_on_c, 9, 44, 0
5, 56724, Note_on_c, 9, 59, 80
5, 56752, Note_on_c, 9, 59, 0
5, 56773, Note_on_c, 9, 44, 57
5, 56815, Note_on_c, 9, 44, 0
5, 56853, Note_on_c, 9, 59, 53
5, 56867, Note_on_c, 9, 59, 0
5, 56904, Note_on_c, 9, 59, 80
5, 56956, Note_on_c, 9, 59, 0
5, 57005, Note_on_c, 9, 40, 33
5, 57036, Note_on_c, 9, 40, 0
5, 57093, Note_on_c, 9, 59, 80
5, 57106, Note_on_c, 9, 59, 0
5, 57333, Note_on_c, 9, 59, 48
5, 57347, Note_on_c, 9, 59, 0
5, 57369, Note_on_c, 9, 59, 74
5, 57399, Note_on_c, 9, 59, 0
5, 57487, Note_on_c, 9, 44, 45
5, 57520, Note_on_c, 9, 44, 0
5, 57557, Note_on_c, 9, 59, 51
5, 57571, Note_on_c, 9, 59, 0
5, 57598, Note_on_c, 9, 59, 60
5, 57637, Note_on_c, 9, 59, 0
5, 57675, Note_on_c, 9, 44, 39
5, 57695, Note_on_c, 9, 44, 0
5, 57796, Note_on_c, 9, 59, 42
5, 57812, Note_on_c, 9, 59, 0
5, 57839, Note_on_c, 9, 59, 56
5, 57846, Note_on_c, 9, 44, 51
5, 57871, Note_on_c, 9, 59, 0
5, 57873, Note_on_c, 9, 44, 0
5, 57954, Note_on_c, 9, 59, 92
5, 58001, Note_on_c, 9, 59, 0
5, 58033, Note_on_c, 9, 44, 58
5, 58052, Note_on_c, 9, 44, 0
5, 58082, Note_on_c, 9, 59, 57
5, 58097, Note_on_c, 9, 59, 0
5, 58151, Note_on_c, 9, 59, 61
5, 58164, Note_on_c, 9, 59, 0
5, 58196, Note_on_c, 9, 59, 71
5, 58210, Note_on_c, 9, 44, 54
5, 58222, Note_on_c, 9, 59, 0
5, 58245, Note_on_c, 9, 44, 0
5, 58324, Note_on_c, 9, 59, 84
5, 58354, Note_on_c, 9, 59, 0
5, 58525, Note_on_c, 9, 59, 46
5, 58540, Note_on_c, 9, 59, 0
5, 58565, Note_on_c, 9, 59, 60
5, 58613, Note_on_c, 9, 59, 0
5, 58693, Note_on_c, 9, 59, 82
5, 58721, Note_on_c, 9, 59, 0
5, 58817, Note_on_c, 9, 59, 64
5, 58826, Note_on_c, 9, 53, 37
5, 58832, Note_on_c, 9, 59, 0
5, 58844, Note_on_c, 9, 53, 0
5, 58888, Note_on_c, 9, 59, 66
5, 58915, Note_on_c, 9, 59, 0
5, 58930, Note_on_c, 9, 44, 57
5, 58934, Note_on_c, 9, 53, 47
5, 58942, Note_on_c, 9, 59, 66
5, 58954, Note_on_c, 9, 44, 0
5, 58955, Note_on_c, 9, 59, 0
5, 58977, Note_on_c, 9, 53, 0
5, 59049, Note_on_c, 9, 53, 59
5, 59051, Note_on_c, 9, 59, 77
5, 59082, Note_on_c, 9, 59, 0
5, 59088, Note_on_c, 9, 53, 0
5, 59170, Note_on_c, 9, 44, 52
5, 59202, Note_on_c, 9, 44, 0
5, 59361, Note_on_c, 9, 59, 58
5, 59374, Note_on_c, 9, 59, 0
5, 59404, Note_on_c, 9, 59, 67
5, 59412, Note_on_c, 9, 53, 55
5, 59456, Note_on_c, 9, 53, 0
5, 59464, Note_on_c, 9, 59, 0
5, 59521, Note_on_c, 9, 53, 44
5, 59526, Note_on_c, 9, 59, 76
5, 59578, Note_on_c, 9, 59, 0
5, 59592, Note_on_c, 9, 53, 0
5, 59648, Note_on_c, 9, 44, 57
5, 59668, Note_on_c, 9, 44, 0
5, 59719, Note_on_c, 9, 59, 57
5, 59734, Note_on_c, 9, 59, 0
5, 59763, Note_on_c, 9, 59, 55
5, 59804, Note_on_c, 9, 59, 0
5, 59879, Note_on_c, 9, 59, 71
5, 59881, Note_on_c, 9, 44, 53
5, 59885, Note_on_c, 9, 53, 50
5, 59896, Note_on_c, 9, 59, 0
5, 59901, Note_on_c, 9, 53, 0
5, 59904, Note_on_c, 9, 44, 0
5, 60000, Note_on_c, 9, 44, 55
5, 60004, Note_on_c, 9, 51, 70
5, 60004, Note_on_c, 9, 53, 73
5, 60026, Note_on_c, 9, 53, 0
5, 60028, Note_on_c, 9, 51, 0
5, 60035, Note_on_c, 9, 44, 0
5, 60119, Note_on_c, 9, 59, 50
5, 60138, Note_on_c, 9, 59, 0
5, 60194, Note_on_c, 9, 59, 55
5, 60208, Note_on_c, 9, 59, 0
5, 60238, Note_on_c, 9, 59, 60
5, 60269, Note_on_c, 9, 59, 0
5, 60359, Note_on_c, 9, 44, 59
5, 60390, Note_on_c, 9, 44, 0
5, 60439, Note_on_c, 9, 59, 47
5, 60454, Note_on_c, 9, 59, 0
5, 60481, Note_on_c, 9, 59, 60
5, 60531, Note_on_c, 9, 59, 0
5, 60613, Note_on_c, 9, 44, 48
5, 60644, Note_on_c, 9, 44, 0
5, 60685, Note_on_c, 9, 59, 47
5, 60701, Note_on_c, 9, 59, 0
5, 60729, Note_on_c, 9, 59, 69
5, 60773, Note_on_c, 9, 59, 0
5, 60848, Note_on_c, 9, 59, 90
5, 60856, Note_on_c, 9, 44, 46
5, 60884, Note_on_c, 9, 44, 0
5, 60916, Note_on_c, 9, 59, 0
5, 60970, Note_on_c, 9, 59, 48
5, 60989, Note_on_c, 9, 59, 0
5, 61046, Note_on_c, 9, 59, 74
5, 61135, Note_on_c, 9, 59, 0
5, 61211, Note_on_c, 9, 59, 85
5, 61285, Note_on_c, 9, 59, 0
5, 61330, Note_on_c, 9, 44, 50
5, 61355, Note_on_c, 9, 44, 0
5, 61396, Note_on_c, 9, 59, 83
5, 61438, Note_on_c, 9, 59, 0
5, 61521, Note_on_c, 9, 59, 46
5, 61537, Note_on_c, 9, 59, 0
5, 61575, Note_on_c, 9, 59, 83
5, 61625, Note_on_c, 9, 59, 0
5, 61683, Note_on_c, 9, 40, 33
5, 61700, Note_on_c, 9, 40, 0
5, 61754, Note_on_c, 9, 59, 89
5, 61763, Note_on_c, 9, 40, 60
5, 61777, Note_on_c, 9, 40, 0
5, 61793, Note_on_c, 9, 59, 0
5, 61867, Note_on_c, 9, 40, 62
5, 61882, Note_on_c, 9, 59, 32
5, 61887, Note_on_c, 9, 40, 0
5, 61897, Note_on_c, 9, 59, 0
5, 61907, Note_on_c, 9, 36, 57
5, 61921, Note_on_c, 9, 44, 30
5, 61925, Note_on_c, 9, 36, 0
5, 61934, Note_on_c, 9, 59, 87
5, 61948, Note_on_c, 9, 44, 0
5, 61985, Note_on_c, 9, 59, 0
5, 62057, Note_on_c, 9, 59, 36
5, 62074, Note_on_c, 9, 59, 0
5, 62121, Note_on_c, 9, 53, 68
5, 62122, Note_on_c, 9, 59, 76
5, 62153, Note_on_c, 9, 59, 0
5, 62155, Note_on_c, 9, 53, 0
5, 62241, Note_on_c, 9, 59, 30
5, 62256, Note_on_c, 9, 59, 0
5, 62288, Note_on_c, 9, 44, 55
5, 62294, Note_on_c, 9, 59, 79
5, 62296, Note_on_c, 9, 53, 70
5, 62320, Note_on_c, 9, 44, 0
5, 62345, Note_on_c, 9, 53, 0
5, 62345, Note_on_c, 9, 59, 0
5, 62404, Note_on_c, 9, 59, 45
5, 62419, Note_on_c, 9, 59, 0
5, 62483, Note_on_c, 9, 59, 74
5, 62515, Note_on_c, 9, 59, 0
5, 62534, Note_on_c, 9, 44, 52
5, 62557, Note_on_c, 9, 44, 0
5, 62614, Note_on_c, 9, 59, 43
5, 62629, Note_on_c, 9, 59, 0
5, 62659, Note_on_c, 9, 59, 74
5, 62698, Note_on_c, 9, 59, 0
5, 62770, Note_on_c, 9, 44, 51
5, 62773, Note_on_c, 9, 59, 50
5, 62788, Note_on_c, 9, 59, 0
5, 62805, Note_on_c, 9, 44, 0
5, 62887, Note_on_c, 9, 59, 85
5, 62891, Note_on_c, 9, 53, 68
5, 62924, Note_on_c, 9, 53, 0
5, 62940, Note_on_c, 9, 59, 0
5, 63004, Note_on_c, 9, 59, 64
5, 63007, Note_on_c, 9, 53, 59
5, 63015, Note_on_c, 9, 46, 46
5, 63028, Note_on_c, 9, 59, 0
5, 63040, Note_on_c, 9, 46, 0
5, 63045, Note_on_c, 9, 53, 0
5, 63126, Note_on_c, 9, 53, 61
5, 63130, Note_on_c, 9, 59, 76
5, 63177, Note_on_c, 9, 53, 0
5, 63182, Note_on_c, 9, 59, 0
5, 63246, Note_on_c, 9, 53, 71
5, 63247, Note_on_c, 9, 59, 74
5, 63276, Note_on_c, 9, 59, 0
5, 63287, Note_on_c, 9, 53, 0
5, 63494, Note_on_c, 9, 44, 50
5, 63513, Note_on_c, 9, 44, 0
5, 63617, Note_on_c, 9, 53, 64
5, 63619, Note_on_c, 9, 59, 84
5, 63659, Note_on_c, 9, 53, 0
5, 63669, Note_on_c, 9, 59, 0
5, 63729, Note_on_c, 9, 53, 56
5, 63730, Note_on_c, 9, 59, 63
5, 63735, Note_on_c, 9, 44, 53
5, 63748, Note_on_c, 9, 59, 0
5, 63754, Note_on_c, 9, 53, 0
5, 63766, Note_on_c, 9, 44, 0
5, 63851, Note_on_c, 9, 59, 83
5, 63857, Note_on_c, 9, 53, 67
5, 63899, Note_on_c, 9, 53, 0
5, 63914, Note_on_c, 9, 59, 0
5, 63967, Note_on_c, 9, 59, 65
5, 63969, Note_on_c, 9, 53, 64
5, 63998, Note_on_c, 9, 59, 0
5, 64007, Note_on_c, 9, 53, 0
5, 64094, Note_on_c, 9, 46, 47
5, 64111, Note_on_c, 9, 46, 0
5, 64207, Note_on_c, 9, 46, 44
5, 64229, Note_on_c, 9, 46, 0
5, 64326, Note_on_c, 9, 59, 81
5, 64330, Note_on_c, 9, 53, 27
5, 64344, Note_on_c, 9, 53, 0
5, 64358, Note_on_c, 9, 59, 0
5, 64447, Note_on_c, 9, 44, 59
5, 64449, Note_on_c, 9, 59, 65
5, 64462, Note_on_c, 9, 59, 0
5, 64476, Note_on_c, 9, 44, 0
5, 64568, Note_on_c, 9, 44, 53
5, 64591, Note_on_c, 9, 44, 0
5, 64651, Note_on_c, 9, 53, 32
5, 64667, Note_on_c, 9, 53, 0
5, 64694, Note_on_c, 9, 59, 78
5, 64748, Note_on_c, 9, 59, 0
5, 64796, Note_on_c, 9, 53, 68
5, 64796, Note_on_c, 9, 51, 56
5, 64798, Note_on_c, 9, 59, 92
5, 64816, Note_on_c, 9, 44, 70
5, 64837, Note_on_c, 9, 59, 0
5, 64843, Note_on_c, 9, 44, 0
5, 64856, Note_on_c, 9, 51, 0
5, 64874, Note_on_c, 9, 53, 0
5, 65004, Note_on_c, 9, 44, 55
5, 65013, Note_on_c, 9, 59, 80
5, 65020, Note_on_c, 9, 51, 37
5, 65022, Note_on_c, 9, 53, 44
5, 65029, Note_on_c, 9, 44, 0
5, 65033, Note_on_c, 9, 51, 0
5, 65035, Note_on_c, 9, 59, 0
5, 65038, Note_on_c, 9, 53, 0
5, 65287, Note_on_c, 9, 38, 61
5, 65312, Note_on_c, 9, 38, 0
5, 65354, Note_on_c, 9, 38, 39
5, 65369, Note_on_c, 9, 38, 0
5, 65369, Note_on_c, 9, 59, 71
5, 65370, Note_on_c, 9, 57, 69
5, 65382, Note_on_c, 9, 59, 0
5, 65383, Note_on_c, 9, 57, 0
5, 65650, Note_on_c, 9, 38, 71
5, 65681, Note_on_c, 9, 38, 0
5, 65719, Note_on_c, 9, 57, 78
5, 65728, Note_on_c, 9, 36, 82
5, 65745, Note_on_c, 9, 57, 0
5, 65774, Note_on_c, 9, 59, 89
5, 65775, Note_on_c, 9, 36, 0
5, 65797, Note_on_c, 9, 59, 0
5, 65892, Note_on_c, 9, 44, 47
5, 65893, Note_on_c, 9, 59, 61
5, 65905, Note_on_c, 9, 59, 0
5, 65922, Note_on_c, 9, 44, 0
5, 66003, Note_on_c, 9, 59, 64
5, 66008, Note_on_c, 9, 44, 44
5, 66029, Note_on_c, 9, 59, 0
5, 66047, Note_on_c, 9, 44, 0
5, 66115, Note_on_c, 9, 59, 57
5, 66134, Note_on_c, 9, 59, 0
5, 66193, Note_on_c, 9, 59, 60
5, 66207, Note_on_c, 9, 59, 0
5, 66233, Note_on_c, 9, 59, 69
5, 66280, Note_on_c, 9, 59, 0
5, 66355, Note_on_c, 9, 59, 72
5, 66390, Note_on_c, 9, 59, 0
5, 66485, Note_on_c, 9, 59, 62
5, 66519, Note_on_c, 9, 59, 0
5, 66601, Note_on_c, 9, 46, 40
5, 66603, Note_on_c, 9, 59, 99
5, 66640, Note_on_c, 9, 46, 0
5, 66656, Note_on_c, 9, 59, 0
5, 66728, Note_on_c, 9, 59, 55
5, 66745, Note_on_c, 9, 59, 0
5, 66853, Note_on_c, 9, 59, 89
5, 66854, Note_on_c, 9, 44, 39
5, 66884, Note_on_c, 9, 44, 0
5, 66892, Note_on_c, 9, 59, 0
5, 66970, Note_on_c, 9, 59, 43
5, 67004, Note_on_c, 9, 59, 0
5, 67088, Note_on_c, 9, 59, 81
5, 67098, Note_on_c, 9, 44, 37
5, 67118, Note_on_c, 9, 59, 0
5, 67129, Note_on_c, 9, 44, 0
5, 67171, Note_on_c, 9, 59, 60
5, 67190, Note_on_c, 9, 59, 0
5, 67214, Note_on_c, 9, 59, 63
5, 67251, Note_on_c, 9, 59, 0
5, 67320, Note_on_c, 9, 59, 75
5, 67329, Note_on_c, 9, 44, 31
5, 67354, Note_on_c, 9, 59, 0
5, 67356, Note_on_c, 9, 44, 0
5, 67438, Note_on_c, 9, 38, 36
5, 67442, Note_on_c, 9, 59, 70
5, 67468, Note_on_c, 9, 38, 0
5, 67475, Note_on_c, 9, 59, 0
5, 67512, Note_on_c, 9, 38, 46
5, 67543, Note_on_c, 9, 38, 0
5, 67563, Note_on_c, 9, 38, 40
5, 67564, Note_on_c, 9, 59, 79
5, 67580, Note_on_c, 9, 36, 18
5, 67602, Note_on_c, 9, 38, 0
5, 67605, Note_on_c, 9, 59, 0
5, 67608, Note_on_c, 9, 36, 0
5, 67687, Note_on_c, 9, 59, 69
5, 67693, Note_on_c, 9, 36, 32
5, 67713, Note_on_c, 9, 36, 0
5, 67735, Note_on_c, 9, 59, 0
5, 67764, Note_on_c, 9, 36, 47
5, 67796, Note_on_c, 9, 44, 31
5, 67800, Note_on_c, 9, 36, 0
5, 67811, Note_on_c, 9, 59, 76
5, 67839, Note_on_c, 9, 44, 0
5, 67855, Note_on_c, 9, 59, 0
5, 67887, Note_on_c, 9, 59, 50
5, 67913, Note_on_c, 9, 59, 0
5, 67932, Note_on_c, 9, 59, 50
5, 67973, Note_on_c, 9, 59, 0
5, 68046, Note_on_c, 9, 59, 74
5, 68047, Note_on_c, 9, 44, 47
5, 68092, Note_on_c, 9, 59, 0
5, 68093, Note_on_c, 9, 44, 0
5, 68124, Note_on_c, 9, 59, 48
5, 68146, Note_on_c, 9, 59, 0
5, 68168, Note_on_c, 9, 59, 59
5, 68205, Note_on_c, 9, 59, 0
5, 68285, Note_on_c, 9, 59, 75
5, 68345, Note_on_c, 9, 59, 0
5, 68409, Note_on_c, 9, 59, 65
5, 68454, Note_on_c, 9, 59, 0
5, 68515, Note_on_c, 9, 59, 43
5, 68521, Note_on_c, 9, 44, 51
5, 68534, Note_on_c, 9, 59, 0
5, 68550, Note_on_c, 9, 44, 0
5, 68619, Note_on_c, 9, 59, 73
5, 68646, Note_on_c, 9, 59, 0
5, 68732, Note_on_c, 9, 59, 57
5, 68748, Note_on_c, 9, 59, 0
5, 68766, Note_on_c, 9, 44, 50
5, 68773, Note_on_c, 9, 59, 51
5, 68802, Note_on_c, 9, 44, 0
5, 68834, Note_on_c, 9, 59, 0
5, 68891, Note_on_c, 9, 59, 75
5, 68940, Note_on_c, 9, 59, 0
5, 68963, Note_on_c, 9, 38, 40
5, 68980, Note_on_c, 9, 38, 0
5, 69000, Note_on_c, 9, 59, 60
5, 69024, Note_on_c, 9, 59, 0
5, 69089, Note_on_c, 9, 59, 47
5, 69104, Note_on_c, 9, 59, 0
5, 69125, Note_on_c, 9, 59, 70
5, 69129, Note_on_c, 9, 38, 37
5, 69152, Note_on_c, 9, 38, 0
5, 69184, Note_on_c, 9, 59, 0
5, 69244, Note_on_c, 9, 37, 46
5, 69248, Note_on_c, 9, 59, 74
5, 69283, Note_on_c, 9, 37, 0
5, 69296, Note_on_c, 9, 59, 0
5, 69318, Note_on_c, 9, 38, 39
5, 69331, Note_on_c, 9, 59, 43
5, 69351, Note_on_c, 9, 38, 0
5, 69357, Note_on_c, 9, 59, 0
5, 69376, Note_on_c, 9, 59, 42
5, 69420, Note_on_c, 9, 59, 0
5, 69488, Note_on_c, 9, 59, 78
5, 69490, Note_on_c, 9, 38, 42
5, 69494, Note_on_c, 9, 37, 39
5, 69523, Note_on_c, 9, 38, 0
5, 69534, Note_on_c, 9, 37, 0
5, 69537, Note_on_c, 9, 59, 0
5, 69569, Note_on_c, 9, 59, 44
5, 69594, Note_on_c, 9, 59, 0
5, 69608, Note_on_c, 9, 59, 38
5, 69657, Note_on_c, 9, 59, 0
5, 69723, Note_on_c, 9, 59, 77
5, 69728, Note_on_c, 9, 37, 46
5, 69763, Note_on_c, 9, 59, 0
5, 69771, Note_on_c, 9, 37, 0
5, 69803, Note_on_c, 9, 59, 57
5, 69827, Note_on_c, 9, 59, 0
5, 69849, Note_on_c, 9, 59, 66
5, 69887, Note_on_c, 9, 59, 0
5, 69957, Note_on_c, 9, 59, 68
5, 69966, Note_on_c, 9, 37, 44
5, 69998, Note_on_c, 9, 59, 0
5, 70002, Note_on_c, 9, 37, 0
5, 70035, Note_on_c, 9, 59, 46
5, 70055, Note_on_c, 9, 59, 0
5, 70083, Note_on_c, 9, 59, 68
5, 70120, Note_on_c, 9, 59, 0
5, 70203, Note_on_c, 9, 59, 81
5, 70203, Note_on_c, 9, 37, 44
5, 70239, Note_on_c, 9, 37, 0
5, 70256, Note_on_c, 9, 59, 0
5, 70329, Note_on_c, 9, 59, 66
5, 70362, Note_on_c, 9, 59, 0
5, 70415, Note_on_c, 9, 59, 46
5, 70431, Note_on_c, 9, 59, 0
5, 70444, Note_on_c, 9, 37, 40
5, 70452, Note_on_c, 9, 59, 73
5, 70483, Note_on_c, 9, 37, 0
5, 70525, Note_on_c, 9, 59, 0
5, 70568, Note_on_c, 9, 59, 70
5, 70608, Note_on_c, 9, 59, 0
5, 70661, Note_on_c, 9, 59, 59
5, 70678, Note_on_c, 9, 59, 0
5, 70687, Note_on_c, 9, 37, 39
5, 70694, Note_on_c, 9, 59, 53
5, 70724, Note_on_c, 9, 37, 0
5, 70756, Note_on_c, 9, 59, 0
5, 70813, Note_on_c, 9, 59, 79
5, 70857, Note_on_c, 9, 59, 0
5, 70927, Note_on_c, 9, 37, 36
5, 70932, Note_on_c, 9, 59, 78
5, 70964, Note_on_c, 9, 37, 0
5, 70974, Note_on_c, 9, 59, 0
5, 71051, Note_on_c, 9, 59, 77
5, 71095, Note_on_c, 9, 59, 0
5, 71166, Note_on_c, 9, 37, 36
5, 71172, Note_on_c, 9, 59, 60
5, 71190, Note_on_c, 9, 59, 0
5, 71199, Note_on_c, 9, 37, 0
5, 71250, Note_on_c, 9, 53, 80
5, 71287, Note_on_c, 9, 53, 0
5, 71300, Note_on_c, 9, 59, 73
5, 71366, Note_on_c, 9, 59, 0
5, 71369, Note_on_c, 9, 37, 38
5, 71372, Note_on_c, 9, 53, 68
5, 71402, Note_on_c, 9, 37, 0
5, 71408, Note_on_c, 9, 36, 63
5, 71412, Note_on_c, 9, 59, 64
5, 71420, Note_on_c, 9, 57, 28
5, 71427, Note_on_c, 9, 53, 0
5, 71433, Note_on_c, 9, 57, 0
5, 71452, Note_on_c, 9, 36, 0
5, 71484, Note_on_c, 9, 59, 0
5, 71489, Note_on_c, 9, 53, 70
5, 71527, Note_on_c, 9, 53, 0
5, 71538, Note_on_c, 9, 59, 59
5, 71595, Note_on_c, 9, 59, 0
5, 71620, Note_on_c, 9, 59, 49
5, 71636, Note_on_c, 9, 59, 0
5, 71664, Note_on_c, 9, 59, 66
5, 71714, Note_on_c, 9, 59, 0
5, 71774, Note_on_c, 9, 59, 66
5, 71823, Note_on_c, 9, 59, 0
5, 71886, Note_on_c, 9, 59, 61
5, 71887, Note_on_c, 9, 37, 42
5, 71920, Note_on_c, 9, 37, 0
5, 71935, Note_on_c, 9, 59, 0
5, 71967, Note_on_c, 9, 59, 45
5, 71984, Note_on_c, 9, 59, 0
5, 72014, Note_on_c, 9, 59, 64
5, 72049, Note_on_c, 9, 59, 0
5, 72126, Note_on_c, 9, 59, 68
5, 72129, Note_on_c, 9, 37, 35
5, 72164, Note_on_c, 9, 59, 0
5, 72165, Note_on_c, 9, 37, 0
5, 72310, Note_on_c, 9, 51, 67
5, 72339, Note_on_c, 9, 51, 0
5, 72365, Note_on_c, 9, 59, 58
5, 72371, Note_on_c, 9, 37, 38
5, 72401, Note_on_c, 9, 37, 0
5, 72415, Note_on_c, 9, 59, 0
5, 72458, Note_on_c, 9, 59, 40
5, 72475, Note_on_c, 9, 59, 0
5, 72496, Note_on_c, 9, 59, 60
5, 72532, Note_on_c, 9, 59, 0
5, 72602, Note_on_c, 9, 37, 49
5, 72615, Note_on_c, 9, 59, 68
5, 72628, Note_on_c, 9, 37, 0
5, 72648, Note_on_c, 9, 59, 0
5, 72732, Note_on_c, 9, 59, 54
5, 72753, Note_on_c, 9, 59, 0
5, 72807, Note_on_c, 9, 51, 64
5, 72843, Note_on_c, 9, 38, 28
5, 72844, Note_on_c, 9, 59, 40
5, 72845, Note_on_c, 9, 51, 0
5, 72845, Note_on_c, 9, 44, 59
5, 72868, Note_on_c, 9, 38, 0
5, 72873, Note_on_c, 9, 44, 0
5, 72909, Note_on_c, 9, 38, 45
5, 72911, Note_on_c, 9, 59, 0
5, 72933, Note_on_c, 9, 38, 0
5, 72964, Note_on_c, 9, 38, 32
5, 72989, Note_on_c, 9, 59, 81
5, 72990, Note_on_c, 9, 38, 0
5, 73057, Note_on_c, 9, 36, 31
5, 73062, Note_on_c, 9, 59, 0
5, 73078, Note_on_c, 9, 36, 0
5, 73090, Note_on_c, 9, 59, 56
5, 73090, Note_on_c, 9, 44, 51
5, 73116, Note_on_c, 9, 59, 0
5, 73130, Note_on_c, 9, 44, 0
5, 73160, Note_on_c, 9, 51, 79
5, 73182, Note_on_c, 9, 59, 57
5, 73202, Note_on_c, 9, 51, 0
5, 73219, Note_on_c, 9, 36, 36
5, 73237, Note_on_c, 9, 59, 0
5, 73239, Note_on_c, 9, 36, 0
5, 73290, Note_on_c, 9, 44, 35
5, 73313, Note_on_c, 9, 44, 0
5, 73315, Note_on_c, 9, 51, 84
5, 73339, Note_on_c, 9, 59, 79
5, 73351, Note_on_c, 9, 51, 0
5, 73394, Note_on_c, 9, 36, 34
5, 73397, Note_on_c, 9, 44, 26
5, 73411, Note_on_c, 9, 44, 0
5, 73413, Note_on_c, 9, 36, 0
5, 73416, Note_on_c, 9, 59, 0
5, 73424, Note_on_c, 9, 36, 47
5, 73444, Note_on_c, 9, 57, 62
5, 73448, Note_on_c, 9, 59, 36
5, 73461, Note_on_c, 9, 57, 0
5, 73470, Note_on_c, 9, 59, 0
5, 73471, Note_on_c, 9, 36, 0
5, 73521, Note_on_c, 9, 59, 75
5, 73561, Note_on_c, 9, 59, 0
5, 73579, Note_on_c, 9, 59, 22
5, 73622, Note_on_c, 9, 59, 0
5, 73690, Note_on_c, 9, 59, 71
5, 73745, Note_on_c, 9, 59, 0
5, 73749, Note_on_c, 9, 44, 52
5, 73766, Note_on_c, 9, 44, 0
5, 73797, Note_on_c, 9, 36, 73
5, 73801, Note_on_c, 9, 57, 68
5, 73807, Note_on_c, 9, 59, 67
5, 73807, Note_on_c, 9, 57, 64
5, 73831, Note_on_c, 9, 57, 0
5, 73850, Note_on_c, 9, 57, 0
5, 73860, Note_on_c, 9, 59, 0
5, 73867, Note_on_c, 9, 36, 0
5, 74035, Note_on_c, 9, 59, 71
5, 74061, Note_on_c, 9, 57, 28
5, 74078, Note_on_c, 9, 59, 0
5, 74097, Note_on_c, 9, 57, 0
5, 74282, Note_on_c, 9, 59, 59
5, 74283, Note_on_c, 9, 57, 55
5, 74302, Note_on_c, 9, 57, 0
5, 74322, Note_on_c, 9, 59, 0
5, 74525, Note_on_c, 9, 44, 57
5, 74527, Note_on_c, 9, 59, 74
5, 74555, Note_on_c, 9, 44, 0
5, 74556, Note_on_c, 9, 59, 0
5, 74765, Note_on_c, 9, 59, 69
5, 74768, Note_on_c, 9, 44, 50
5, 74781, Note_on_c, 9, 59, 0
5, 74800, Note_on_c, 9, 44, 0
5, 74875, Note_on_c, 9, 59, 60
5, 74903, Note_on_c, 9, 59, 0
5, 74995, Note_on_c, 9, 44, 54
5, 75006, Note_on_c, 9, 59, 80
5, 75024, Note_on_c, 9, 44, 0
5, 75045, Note_on_c, 9, 59, 0
5, 75087, Note_on_c, 9, 59, 52
5, 75109, Note_on_c, 9, 59, 0
5, 75139, Note_on_c, 9, 59, 61
5, 75174, Note_on_c, 9, 59, 0
5, 75240, Note_on_c, 9, 44, 39
5, 75251, Note_on_c, 9, 59, 81
5, 75260, Note_on_c, 9, 44, 0
5, 75291, Note_on_c, 9, 59, 0
5, 75358, Note_on_c, 9, 38, 30
5, 75372, Note_on_c, 9, 59, 79
5, 75378, Note_on_c, 9, 38, 0
5, 75403, Note_on_c, 9, 59, 0
5, 75470, Note_on_c, 9, 38, 36
5, 75493, Note_on_c, 9, 59, 77
5, 75495, Note_on_c, 9, 38, 0
5, 75525, Note_on_c, 9, 59, 0
5, 75608, Note_on_c, 9, 59, 60
5, 75624, Note_on_c, 9, 59, 0
5, 75687, Note_on_c, 9, 59, 64
5, 75701, Note_on_c, 9, 59, 0
5, 75812, Note_on_c, 9, 59, 78
5, 75840, Note_on_c, 9, 59, 0
5, 75930, Note_on_c, 9, 59, 51
5, 75944, Note_on_c, 9, 59, 0
5, 75958, Note_on_c, 9, 36, 42
5, 75967, Note_on_c, 9, 44, 57
5, 75970, Note_on_c, 9, 59, 63
5, 75977, Note_on_c, 9, 36, 0
5, 76002, Note_on_c, 9, 44, 0
5, 76019, Note_on_c, 9, 59, 0
5, 76042, Note_on_c, 9, 36, 24
5, 76065, Note_on_c, 9, 36, 0
5, 76094, Note_on_c, 9, 59, 80
5, 76130, Note_on_c, 9, 59, 0
5, 76202, Note_on_c, 9, 44, 53
5, 76215, Note_on_c, 9, 59, 78
5, 76250, Note_on_c, 9, 59, 0
5, 76252, Note_on_c, 9, 44, 0
5, 76286, Note_on_c, 9, 59, 49
5, 76302, Note_on_c, 9, 59, 0
5, 76329, Note_on_c, 9, 59, 66
5, 76360, Note_on_c, 9, 59, 0
5, 76438, Note_on_c, 9, 38, 33
5, 76449, Note_on_c, 9, 59, 96
5, 76467, Note_on_c, 9, 38, 0
5, 76514, Note_on_c, 9, 59, 0
5, 76518, Note_on_c, 9, 38, 45
5, 76535, Note_on_c, 9, 38, 0
5, 76570, Note_on_c, 9, 59, 51
5, 76586, Note_on_c, 9, 59, 0
5, 76636, Note_on_c, 9, 59, 87
5, 76652, Note_on_c, 9, 36, 24
5, 76666, Note_on_c, 9, 36, 0
5, 76679, Note_on_c, 9, 59, 0
5, 76696, Note_on_c, 9, 44, 60
5, 76725, Note_on_c, 9, 44, 0
5, 76763, Note_on_c, 9, 59, 54
5, 76778, Note_on_c, 9, 59, 0
5, 76814, Note_on_c, 9, 59, 83
5, 76875, Note_on_c, 9, 59, 0
5, 76926, Note_on_c, 9, 59, 56
5, 76929, Note_on_c, 9, 44, 57
5, 76940, Note_on_c, 9, 59, 0
5, 76961, Note_on_c, 9, 44, 0
5, 77000, Note_on_c, 9, 59, 91
5, 77044, Note_on_c, 9, 59, 0
5, 77116, Note_on_c, 9, 59, 53
5, 77118, Note_on_c, 9, 38, 56
5, 77130, Note_on_c, 9, 59, 0
5, 77135, Note_on_c, 9, 38, 0
5, 77160, Note_on_c, 9, 44, 59
5, 77166, Note_on_c, 9, 59, 88
5, 77184, Note_on_c, 9, 44, 0
5, 77220, Note_on_c, 9, 59, 0
5, 77278, Note_on_c, 9, 44, 61
5, 77285, Note_on_c, 9, 59, 68
5, 77298, Note_on_c, 9, 59, 0
5, 77309, Note_on_c, 9, 44, 0
5, 77358, Note_on_c, 9, 59, 82
5, 77367, Note_on_c, 9, 38, 45
5, 77382, Note_on_c, 9, 38, 0
5, 77398, Note_on_c, 9, 59, 0
5, 77407, Note_on_c, 9, 38, 42
5, 77424, Note_on_c, 9, 38, 0
5, 77482, Note_on_c, 9, 59, 70
5, 77495, Note_on_c, 9, 59, 0
5, 77535, Note_on_c, 9, 59, 80
5, 77591, Note_on_c, 9, 59, 0
5, 77643, Note_on_c, 9, 44, 56
5, 77644, Note_on_c, 9, 59, 75
5, 77675, Note_on_c, 9, 44, 0
5, 77677, Note_on_c, 9, 59, 0
5, 77722, Note_on_c, 9, 59, 55
5, 77738, Note_on_c, 9, 59, 0
5, 77766, Note_on_c, 9, 59, 64
5, 77813, Note_on_c, 9, 59, 0
5, 77847, Note_on_c, 9, 38, 49
5, 77874, Note_on_c, 9, 38, 0
5, 77882, Note_on_c, 9, 59, 87
5, 77924, Note_on_c, 9, 59, 0
5, 77962, Note_on_c, 9, 59, 36
5, 77981, Note_on_c, 9, 59, 0
5, 77999, Note_on_c, 9, 38, 52
5, 78003, Note_on_c, 9, 59, 71
5, 78037, Note_on_c, 9, 59, 0
5, 78044, Note_on_c, 9, 38, 0
5, 78128, Note_on_c, 9, 44, 51
5, 78132, Note_on_c, 9, 59, 87
5, 78155, Note_on_c, 9, 44, 0
5, 78179, Note_on_c, 9, 59, 0
5, 78183, Note_on_c, 9, 38, 50
5, 78201, Note_on_c, 9, 38, 0
5, 78241, Note_on_c, 9, 59, 62
5, 78281, Note_on_c, 9, 59, 0
5, 78365, Note_on_c, 9, 59, 79
5, 78368, Note_on_c, 9, 44, 52
5, 78401, Note_on_c, 9, 44, 0
5, 78413, Note_on_c, 9, 59, 0
5, 78448, Note_on_c, 9, 59, 42
5, 78474, Note_on_c, 9, 59, 0
5, 78489, Note_on_c, 9, 59, 46
5, 78535, Note_on_c, 9, 59, 0
5, 78569, Note_on_c, 9, 36, 39
5, 78597, Note_on_c, 9, 36, 0
5, 78606, Note_on_c, 9, 44, 59
5, 78607, Note_on_c, 9, 59, 95
5, 78641, Note_on_c, 9, 44, 0
5, 78655, Note_on_c, 9, 59, 0
5, 78726, Note_on_c, 9, 59, 79
5, 78733, Note_on_c, 9, 36, 41
5, 78752, Note_on_c, 9, 36, 0
5, 78791, Note_on_c, 9, 59, 0
5, 78847, Note_on_c, 9, 44, 59
5, 78849, Note_on_c, 9, 59, 82
5, 78882, Note_on_c, 9, 44, 0
5, 78905, Note_on_c, 9, 59, 0
5, 78934, Note_on_c, 9, 59, 52
5, 78958, Note_on_c, 9, 59, 0
5, 78973, Note_on_c, 9, 59, 58
5, 79019, Note_on_c, 9, 59, 0
5, 79078, Note_on_c, 9, 44, 62
5, 79084, Note_on_c, 9, 59, 81
5, 79109, Note_on_c, 9, 44, 0
5, 79135, Note_on_c, 9, 59, 0
5, 79163, Note_on_c, 9, 59, 53
5, 79185, Note_on_c, 9, 59, 0
5, 79212, Note_on_c, 9, 59, 74
5, 79258, Note_on_c, 9, 59, 0
5, 79326, Note_on_c, 9, 59, 81
5, 79331, Note_on_c, 9, 44, 51
5, 79360, Note_on_c, 9, 44, 0
5, 79362, Note_on_c, 9, 59, 0
5, 79450, Note_on_c, 9, 59, 77
5, 79486, Note_on_c, 9, 59, 0
5, 79517, Note_on_c, 9, 53, 70
5, 79549, Note_on_c, 9, 53, 0
5, 79565, Note_on_c, 9, 59, 58
5, 79569, Note_on_c, 9, 44, 54
5, 79596, Note_on_c, 9, 44, 0
5, 79611, Note_on_c, 9, 59, 0
5, 79651, Note_on_c, 9, 59, 46
5, 79681, Note_on_c, 9, 59, 0
5, 79695, Note_on_c, 9, 59, 50
5, 79733, Note_on_c, 9, 59, 0
5, 79809, Note_on_c, 9, 59, 80
5, 79858, Note_on_c, 9, 59, 0
5, 79892, Note_on_c, 9, 59, 40
5, 79912, Note_on_c, 9, 59, 0
5, 79936, Note_on_c, 9, 59, 71
5, 79970, Note_on_c, 9, 59, 0
5, 80045, Note_on_c, 9, 44, 55
5, 80050, Note_on_c, 9, 59, 88
5, 80068, Note_on_c, 9, 44, 0
5, 80091, Note_on_c, 9, 59, 0
5, 80129, Note_on_c, 9, 59, 46
5, 80152, Note_on_c, 9, 59, 0
5, 80170, Note_on_c, 9, 44, 53
5, 80177, Note_on_c, 9, 59, 77
5, 80211, Note_on_c, 9, 44, 0
5, 80217, Note_on_c, 9, 59, 0
5, 80294, Note_on_c, 9, 59, 85
5, 80353, Note_on_c, 9, 59, 0
5, 80381, Note_on_c, 9, 59, 56
5, 80396, Note_on_c, 9, 59, 0
5, 80422, Note_on_c, 9, 59, 75
5, 80463, Note_on_c, 9, 59, 0
5, 80534, Note_on_c, 9, 59, 88
5, 80535, Note_on_c, 9, 44, 56
5, 80564, Note_on_c, 9, 44, 0
5, 80587, Note_on_c, 9, 59, 0
5, 80656, Note_on_c, 9, 59, 66
5, 80680, Note_on_c, 9, 59, 0
5, 80711, Note_on_c, 9, 38, 48
5, 80725, Note_on_c, 9, 38, 0
5, 80732, Note_on_c, 9, 59, 60
5, 80749, Note_on_c, 9, 59, 0
5, 80776, Note_on_c, 9, 59, 83
5, 80776, Note_on_c, 9, 44, 56
5, 80809, Note_on_c, 9, 44, 0
5, 80831, Note_on_c, 9, 59, 0
5, 80893, Note_on_c, 9, 38, 44
5, 80893, Note_on_c, 9, 59, 89
5, 80912, Note_on_c, 9, 38, 0
5, 80941, Note_on_c, 9, 59, 0
5, 80971, Note_on_c, 9, 59, 68
5, 81001, Note_on_c, 9, 59, 0
5, 81075, Note_on_c, 9, 38, 41
5, 81090, Note_on_c, 9, 38, 0
5, 81091, Note_on_c, 9, 59, 94
5, 81170, Note_on_c, 9, 59, 0
5, 81209, Note_on_c, 9, 59, 46
5, 81229, Note_on_c, 9, 59, 0
5, 81239, Note_on_c, 9, 44, 60
5, 81240, Note_on_c, 9, 38, 44
5, 81253, Note_on_c, 9, 59, 85
5, 81261, Note_on_c, 9, 38, 0
5, 81270, Note_on_c, 9, 44, 0
5, 81317, Note_on_c, 9, 59, 0
5, 81372, Note_on_c, 9, 59, 71
5, 81406, Note_on_c, 9, 59, 0
5, 81440, Note_on_c, 9, 36, 39
5, 81451, Note_on_c, 9, 59, 84
5, 81457, Note_on_c, 9, 36, 0
5, 81479, Note_on_c, 9, 44, 57
5, 81492, Note_on_c, 9, 59, 0
5, 81511, Note_on_c, 9, 44, 0
5, 81561, Note_on_c, 9, 59, 60
5, 81576, Note_on_c, 9, 59, 0
5, 81611, Note_on_c, 9, 59, 87
5, 81676, Note_on_c, 9, 59, 0
5, 81720, Note_on_c, 9, 44, 50
5, 81727, Note_on_c, 9, 59, 54
5, 81742, Note_on_c, 9, 59, 0
5, 81751, Note_on_c, 9, 44, 0
5, 81797, Note_on_c, 9, 59, 92
5, 81871, Note_on_c, 9, 59, 0
5, 81933, Note_on_c, 9, 59, 42
5, 81950, Note_on_c, 9, 59, 0
5, 81961, Note_on_c, 9, 44, 46
5, 81985, Note_on_c, 9, 59, 91
5, 82008, Note_on_c, 9, 44, 0
5, 82051, Note_on_c, 9, 59, 0
5, 82104, Note_on_c, 9, 59, 50
5, 82118, Note_on_c, 9, 59, 0
5, 82176, Note_on_c, 9, 59, 94
5, 82214, Note_on_c, 9, 44, 51
5, 82232, Note_on_c, 9, 59, 0
5, 82248, Note_on_c, 9, 44, 0
5, 82284, Note_on_c, 9, 59, 50
5, 82298, Note_on_c, 9, 59, 0
5, 82341, Note_on_c, 9, 53, 72
5, 82344, Note_on_c, 9, 59, 81
5, 82397, Note_on_c, 9, 59, 0
5, 82410, Note_on_c, 9, 53, 0
5, 82417, Note_on_c, 9, 44, 52
5, 82433, Note_on_c, 9, 44, 0
5, 82451, Note_on_c, 9, 59, 50
5, 82474, Note_on_c, 9, 59, 0
5, 82530, Note_on_c, 9, 59, 80
5, 82535, Note_on_c, 9, 53, 62
5, 82565, Note_on_c, 9, 53, 0
5, 82577, Note_on_c, 9, 44, 61
5, 82583, Note_on_c, 9, 59, 0
5, 82593, Note_on_c, 9, 44, 0
5, 82694, Note_on_c, 9, 59, 81
5, 82742, Note_on_c, 9, 59, 0
5, 82872, Note_on_c, 9, 59, 79
5, 82873, Note_on_c, 9, 57, 71
5, 82875, Note_on_c, 9, 51, 61
5, 82876, Note_on_c, 9, 53, 70
5, 82878, Note_on_c, 9, 38, 66
5, 82881, Note_on_c, 9, 38, 71
5, 82892, Note_on_c, 9, 38, 0
5, 82922, Note_on_c, 9, 38, 50
5, 82970, Note_on_c, 9, 57, 0
5, 82970, Note_on_c, 9, 59, 0
5, 82994, Note_on_c, 9, 38, 0
5, 83012, Note_on_c, 9, 51, 0
5, 83031, Note_on_c, 9, 38, 0
5, 83038, Note_on_c, 9, 53, 0
5, 83041, Note_on_c, 9, 51, 61
5, 83082, Note_on_c, 9, 51, 0
5, 83157, Note_on_c, 9, 51, 51
5, 83212, Note_on_c, 9, 51, 0
5, 83280, Note_on_c, 9, 51, 73
5, 83323, Note_on_c, 9, 51, 0
5, 83402, Note_on_c, 9, 51, 84
5, 83448, Note_on_c, 9, 51, 0
5, 83497, Note_on_c, 9, 51, 54
5, 83512, Note_on_c, 9, 51, 0
5, 83531, Note_on_c, 9, 51, 63
5, 83571, Note_on_c, 9, 51, 0
5, 83643, Note_on_c, 9, 44, 51
5, 83646, Note_on_c, 9, 51, 83
5, 83678, Note_on_c, 9, 44, 0
5, 83695, Note_on_c, 9, 51, 0
5, 83768, Note_on_c, 9, 51, 69
5, 83773, Note_on_c, 9, 38, 34
5, 83802, Note_on_c, 9, 38, 0
5, 83813, Note_on_c, 9, 51, 0
5, 83890, Note_on_c, 9, 44, 51
5, 83891, Note_on_c, 9, 38, 47
5, 83891, Note_on_c, 9, 51, 74
5, 83928, Note_on_c, 9, 44, 0
5, 83935, Note_on_c, 9, 38, 0
5, 83936, Note_on_c, 9, 51, 0
5, 83971, Note_on_c, 9, 51, 34
5, 83986, Note_on_c, 9, 51, 0
5, 84006, Note_on_c, 9, 51, 70
5, 84055, Note_on_c, 9, 51, 0
5, 84132, Note_on_c, 9, 51, 76
5, 84132, Note_on_c, 9, 44, 45
5, 84166, Note_on_c, 9, 44, 0
5, 84182, Note_on_c, 9, 51, 0
5, 84213, Note_on_c, 9, 51, 38
5, 84232, Note_on_c, 9, 51, 0
5, 84254, Note_on_c, 9, 51, 74
5, 84293, Note_on_c, 9, 51, 0
5, 84368, Note_on_c, 9, 46, 46
5, 84371, Note_on_c, 9, 51, 77
5, 84395, Note_on_c, 9, 46, 0
5, 84424, Note_on_c, 9, 51, 0
5, 84449, Note_on_c, 9, 51, 55
5, 84473, Note_on_c, 9, 51, 0
5, 84493, Note_on_c, 9, 51, 71
5, 84529, Note_on_c, 9, 51, 0
5, 84559, Note_on_c, 9, 38, 33
5, 84576, Note_on_c, 9, 38, 0
5, 84606, Note_on_c, 9, 44, 50
5, 84612, Note_on_c, 9, 51, 82
5, 84635, Note_on_c, 9, 44, 0
5, 84661, Note_on_c, 9, 51, 0
5, 84689, Note_on_c, 9, 51, 43
5, 84708, Note_on_c, 9, 51, 0
5, 84724, Note_on_c, 9, 38, 45
5, 84730, Note_on_c, 9, 51, 69
5, 84739, Note_on_c, 9, 38, 0
5, 84772, Note_on_c, 9, 51, 0
5, 84846, Note_on_c, 9, 46, 51
5, 84847, Note_on_c, 9, 51, 82
5, 84883, Note_on_c, 9, 46, 0
5, 84891, Note_on_c, 9, 51, 0
5, 84917, Note_on_c, 9, 38, 40
5, 84924, Note_on_c, 9, 51, 51
5, 84932, Note_on_c, 9, 38, 0
5, 84951, Note_on_c, 9, 51, 0
5, 84971, Note_on_c, 9, 51, 74
5, 85011, Note_on_c, 9, 51, 0
5, 85082, Note_on_c, 9, 51, 84
5, 85083, Note_on_c, 9, 38, 50
5, 85092, Note_on_c, 9, 44, 59
5, 85103, Note_on_c, 9, 38, 0
5, 85124, Note_on_c, 9, 44, 0
5, 85130, Note_on_c, 9, 51, 0
5, 85206, Note_on_c, 9, 51, 71
5, 85256, Note_on_c, 9, 51, 0
5, 85286, Note_on_c, 9, 36, 32
5, 85305, Note_on_c, 9, 36, 0
5, 85330, Note_on_c, 9, 51, 84
5, 85348, Note_on_c, 9, 46, 59
5, 85367, Note_on_c, 9, 46, 0
5, 85374, Note_on_c, 9, 51, 0
5, 85418, Note_on_c, 9, 51, 54
5, 85444, Note_on_c, 9, 51, 0
5, 85457, Note_on_c, 9, 51, 62
5, 85489, Note_on_c, 9, 51, 0
5, 85570, Note_on_c, 9, 51, 85
5, 85577, Note_on_c, 9, 44, 61
5, 85608, Note_on_c, 9, 44, 0
5, 85609, Note_on_c, 9, 51, 0
5, 85662, Note_on_c, 9, 51, 62
5, 85677, Note_on_c, 9, 51, 0
5, 85690, Note_on_c, 9, 51, 30
5, 85724, Note_on_c, 9, 51, 0
5, 85805, Note_on_c, 9, 51, 90
5, 85808, Note_on_c, 9, 46, 55
5, 85838, Note_on_c, 9, 46, 0
5, 85853, Note_on_c, 9, 51, 0
5, 85928, Note_on_c, 9, 51, 72
5, 85969, Note_on_c, 9, 51, 0
5, 86049, Note_on_c, 9, 51, 85
5, 86054, Note_on_c, 9, 38, 42
5, 86054, Note_on_c, 9, 44, 54
5, 86075, Note_on_c, 9, 44, 0
5, 86083, Note_on_c, 9, 38, 0
5, 86086, Note_on_c, 9, 51, 0
5, 86129, Note_on_c, 9, 38, 45
5, 86148, Note_on_c, 9, 38, 0
5, 86177, Note_on_c, 9, 51, 75
5, 86180, Note_on_c, 9, 38, 33
5, 86204, Note_on_c, 9, 51, 0
5, 86223, Note_on_c, 9, 38, 0
5, 86258, Note_on_c, 9, 36, 38
5, 86260, Note_on_c, 9, 51, 60
5, 86273, Note_on_c, 9, 51, 0
5, 86278, Note_on_c, 9, 36, 0
5, 86288, Note_on_c, 9, 46, 53
5, 86294, Note_on_c, 9, 51, 74
5, 86322, Note_on_c, 9, 46, 0
5, 86325, Note_on_c, 9, 51, 0
5, 86373, Note_on_c, 9, 51, 85
5, 86428, Note_on_c, 9, 36, 47
5, 86430, Note_on_c, 9, 51, 0
5, 86446, Note_on_c, 9, 36, 0
5, 86489, Note_on_c, 9, 51, 47
5, 86502, Note_on_c, 9, 51, 0
5, 86529, Note_on_c, 9, 51, 53
5, 86586, Note_on_c, 9, 51, 0
5, 86604, Note_on_c, 9, 36, 44
5, 86642, Note_on_c, 9, 36, 0
5, 86650, Note_on_c, 9, 51, 72
5, 86678, Note_on_c, 9, 51, 0
5, 86759, Note_on_c, 9, 51, 87
5, 86775, Note_on_c, 9, 36, 48
5, 86792, Note_on_c, 9, 36, 0
5, 86797, Note_on_c, 9, 51, 0
5, 86843, Note_on_c, 9, 51, 55
5, 86858, Note_on_c, 9, 51, 0
5, 86884, Note_on_c, 9, 51, 62
5, 86915, Note_on_c, 9, 51, 0
5, 86966, Note_on_c, 9, 51, 88
5, 87006, Note_on_c, 9, 44, 50
5, 87024, Note_on_c, 9, 44, 0
5, 87045, Note_on_c, 9, 51, 0
5, 87086, Note_on_c, 9, 51, 46
5, 87103, Note_on_c, 9, 51, 0
5, 87138, Note_on_c, 9, 51, 74
5, 87193, Note_on_c, 9, 51, 0
5, 87236, Note_on_c, 9, 44, 54
5, 87249, Note_on_c, 9, 51, 47
5, 87257, Note_on_c, 9, 44, 0
5, 87262, Note_on_c, 9, 51, 0
5, 87321, Note_on_c, 9, 51, 84
5, 87366, Note_on_c, 9, 51, 0
5, 87447, Note_on_c, 9, 51, 50
5, 87460, Note_on_c, 9, 51, 0
5, 87472, Note_on_c, 9, 44, 59
5, 87497, Note_on_c, 9, 51, 70
5, 87504, Note_on_c, 9, 44, 0
5, 87553, Note_on_c, 9, 51, 0
5, 87616, Note_on_c, 9, 51, 70
5, 87666, Note_on_c, 9, 51, 0
5, 87722, Note_on_c, 9, 44, 56
5, 87731, Note_on_c, 9, 51, 77
5, 87755, Note_on_c, 9, 44, 0
5, 87778, Note_on_c, 9, 51, 0
5, 87817, Note_on_c, 9, 51, 39
5, 87837, Note_on_c, 9, 51, 0
5, 87857, Note_on_c, 9, 51, 74
5, 87895, Note_on_c, 9, 51, 0
5, 87972, Note_on_c, 9, 44, 55
5, 87974, Note_on_c, 9, 51, 83
5, 87978, Note_on_c, 9, 38, 38
5, 87996, Note_on_c, 9, 38, 0
5, 88006, Note_on_c, 9, 44, 0
5, 88014, Note_on_c, 9, 51, 0
5, 88055, Note_on_c, 9, 51, 48
5, 88079, Note_on_c, 9, 51, 0
5, 88099, Note_on_c, 9, 51, 75
5, 88139, Note_on_c, 9, 51, 0
5, 88169, Note_on_c, 9, 38, 34
5, 88186, Note_on_c, 9, 38, 0
5, 88214, Note_on_c, 9, 51, 83
5, 88260, Note_on_c, 9, 51, 0
5, 88293, Note_on_c, 9, 51, 47
5, 88320, Note_on_c, 9, 51, 0
5, 88327, Note_on_c, 9, 38, 34
5, 88340, Note_on_c, 9, 51, 76
5, 88354, Note_on_c, 9, 38, 0
5, 88380, Note_on_c, 9, 51, 0
5, 88453, Note_on_c, 9, 51, 81
5, 88459, Note_on_c, 9, 44, 59
5, 88489, Note_on_c, 9, 44, 0
5, 88495, Note_on_c, 9, 51, 0
5, 88527, Note_on_c, 9, 36, 38
5, 88528, Note_on_c, 9, 51, 48
5, 88547, Note_on_c, 9, 36, 0
5, 88555, Note_on_c, 9, 51, 0
5, 88575, Note_on_c, 9, 51, 77
5, 88619, Note_on_c, 9, 51, 0
5, 88687, Note_on_c, 9, 44, 61
5, 88690, Note_on_c, 9, 51, 85
5, 88701, Note_on_c, 9, 36, 39
5, 88719, Note_on_c, 9, 36, 0
5, 88719, Note_on_c, 9, 44, 0
5, 88738, Note_on_c, 9, 51, 0
5, 88776, Note_on_c, 9, 51, 40
5, 88794, Note_on_c, 9, 51, 0
5, 88817, Note_on_c, 9, 51, 67
5, 88855, Note_on_c, 9, 51, 0
5, 88919, Note_on_c, 9, 44, 57
5, 88925, Note_on_c, 9, 51, 83
5, 88945, Note_on_c, 9, 44, 0
5, 88967, Note_on_c, 9, 51, 0
5, 89047, Note_on_c, 9, 51, 74
5, 89086, Note_on_c, 9, 51, 0
5, 89120, Note_on_c, 9, 51, 45
5, 89147, Note_on_c, 9, 51, 0
5, 89164, Note_on_c, 9, 44, 55
5, 89171, Note_on_c, 9, 51, 74
5, 89192, Note_on_c, 9, 44, 0
5, 89206, Note_on_c, 9, 51, 0
5, 89250, Note_on_c, 9, 51, 88
5, 89351, Note_on_c, 9, 51, 0
5, 89375, Note_on_c, 9, 51, 54
5, 89400, Note_on_c, 9, 38, 49
5, 89400, Note_on_c, 9, 44, 59
5, 89403, Note_on_c, 9, 51, 0
5, 89424, Note_on_c, 9, 51, 84
5, 89430, Note_on_c, 9, 44, 0
5, 89435, Note_on_c, 9, 38, 0
5, 89474, Note_on_c, 9, 38, 43
5, 89492, Note_on_c, 9, 51, 0
5, 89508, Note_on_c, 9, 38, 0
5, 89533, Note_on_c, 9, 51, 57
5, 89560, Note_on_c, 9, 51, 0
5, 89609, Note_on_c, 9, 51, 88
5, 89648, Note_on_c, 9, 44, 60
5, 89670, Note_on_c, 9, 51, 0
5, 89677, Note_on_c, 9, 44, 0
5, 89731, Note_on_c, 9, 51, 53
5, 89749, Note_on_c, 9, 51, 0
5, 89784, Note_on_c, 9, 51, 74
5, 89843, Note_on_c, 9, 51, 0
5, 89885, Note_on_c, 9, 46, 51
5, 89892, Note_on_c, 9, 51, 82
5, 89913, Note_on_c, 9, 46, 0
5, 89941, Note_on_c, 9, 51, 0
5, 90008, Note_on_c, 9, 51, 81
5, 90051, Note_on_c, 9, 51, 0
5, 90129, Note_on_c, 9, 51, 87
5, 90175, Note_on_c, 9, 51, 0
5, 90249, Note_on_c, 9, 51, 83
5, 90293, Note_on_c, 9, 51, 0
5, 90374, Note_on_c, 9, 51, 80
5, 90417, Note_on_c, 9, 51, 0
5, 90450, Note_on_c, 9, 51, 46
5, 90472, Note_on_c, 9, 51, 0
5, 90493, Note_on_c, 9, 51, 79
5, 90532, Note_on_c, 9, 51, 0
5, 90612, Note_on_c, 9, 51, 87
5, 90612, Note_on_c, 9, 46, 45
5, 90630, Note_on_c, 9, 46, 0
5, 90654, Note_on_c, 9, 51, 0
5, 90690, Note_on_c, 9, 51, 56
5, 90719, Note_on_c, 9, 51, 0
5, 90740, Note_on_c, 9, 51, 63
5, 90766, Note_on_c, 9, 51, 0
5, 90814, Note_on_c, 9, 51, 91
5, 90854, Note_on_c, 9, 46, 49
5, 90880, Note_on_c, 9, 46, 0
5, 90892, Note_on_c, 9, 51, 0
5, 90931, Note_on_c, 9, 51, 55
5, 90956, Note_on_c, 9, 51, 0
5, 90986, Note_on_c, 9, 51, 77
5, 91030, Note_on_c, 9, 51, 0
5, 91089, Note_on_c, 9, 51, 56
5, 91101, Note_on_c, 9, 46, 52
5, 91103, Note_on_c, 9, 51, 0
5, 91107, Note_on_c, 9, 36, 33
5, 91126, Note_on_c, 9, 36, 0
5, 91134, Note_on_c, 9, 46, 0
5, 91160, Note_on_c, 9, 51, 81
5, 91202, Note_on_c, 9, 51, 0
5, 91286, Note_on_c, 9, 51, 47
5, 91299, Note_on_c, 9, 51, 0
5, 91330, Note_on_c, 9, 51, 57
5, 91337, Note_on_c, 9, 36, 45
5, 91337, Note_on_c, 9, 46, 56
5, 91357, Note_on_c, 9, 36, 0
5, 91369, Note_on_c, 9, 46, 0
5, 91380, Note_on_c, 9, 51, 0
5, 91446, Note_on_c, 9, 51, 82
5, 91486, Note_on_c, 9, 51, 0
5, 91563, Note_on_c, 9, 51, 77
5, 91574, Note_on_c, 9, 46, 57
5, 91608, Note_on_c, 9, 46, 0
5, 91610, Note_on_c, 9, 51, 0
5, 91653, Note_on_c, 9, 51, 47
5, 91668, Note_on_c, 9, 51, 0
5, 91691, Note_on_c, 9, 51, 69
5, 91736, Note_on_c, 9, 51, 0
5, 91805, Note_on_c, 9, 51, 83
5, 91807, Note_on_c, 9, 46, 55
5, 91841, Note_on_c, 9, 46, 0
5, 91860, Note_on_c, 9, 51, 0
5, 91886, Note_on_c, 9, 51, 47
5, 91912, Note_on_c, 9, 51, 0
5, 91934, Note_on_c, 9, 51, 74
5, 91978, Note_on_c, 9, 51, 0
5, 91997, Note_on_c, 9, 36, 41
5, 92023, Note_on_c, 9, 36, 0
5, 92050, Note_on_c, 9, 46, 55
5, 92053, Note_on_c, 9, 51, 84
5, 92083, Note_on_c, 9, 46, 0
5, 92095, Note_on_c, 9, 51, 0
5, 92170, Note_on_c, 9, 36, 38
5, 92174, Note_on_c, 9, 51, 75
5, 92191, Note_on_c, 9, 36, 0
5, 92214, Note_on_c, 9, 51, 0
5, 92288, Note_on_c, 9, 46, 57
5, 92294, Note_on_c, 9, 51, 76
5, 92319, Note_on_c, 9, 46, 0
5, 92330, Note_on_c, 9, 51, 0
5, 92408, Note_on_c, 9, 51, 74
5, 92413, Note_on_c, 9, 53, 70
5, 92459, Note_on_c, 9, 51, 0
5, 92462, Note_on_c, 9, 53, 0
5, 92519, Note_on_c, 9, 46, 52
5, 92531, Note_on_c, 9, 51, 56
5, 92550, Note_on_c, 9, 46, 0
5, 92560, Note_on_c, 9, 51, 0
5, 92598, Note_on_c, 9, 38, 57
5, 92606, Note_on_c, 9, 51, 79
5, 92607, Note_on_c, 9, 53, 75
5, 92615, Note_on_c, 9, 38, 0
5, 92655, Note_on_c, 9, 38, 34
5, 92663, Note_on_c, 9, 51, 0
5, 92667, Note_on_c, 9, 53, 0
5, 92687, Note_on_c, 9, 38, 0
5, 92728, Note_on_c, 9, 51, 55
5, 92735, Note_on_c, 9, 36, 45
5, 92745, Note_on_c, 9, 51, 0
5, 92757, Note_on_c, 9, 44, 50
5, 92767, Note_on_c, 9, 36, 0
5, 92779, Note_on_c, 9, 51, 76
5, 92782, Note_on_c, 9, 44, 0
5, 92783, Note_on_c, 9, 53, 76
5, 92836, Note_on_c, 9, 51, 0
5, 92842, Note_on_c, 9, 53, 0
5, 92891, Note_on_c, 9, 36, 37
5, 92891, Note_on_c, 9, 51, 52
5, 92912, Note_on_c, 9, 51, 0
5, 92916, Note_on_c, 9, 36, 0
5, 92966, Note_on_c, 9, 51, 77
5, 92968, Note_on_c, 9, 53, 74
5, 92994, Note_on_c, 9, 44, 39
5, 93018, Note_on_c, 9, 51, 0
5, 93025, Note_on_c, 9, 53, 0
5, 93033, Note_on_c, 9, 44, 0
5, 93132, Note_on_c, 9, 51, 69
5, 93135, Note_on_c, 9, 53, 72
5, 93184, Note_on_c, 9, 51, 0
5, 93196, Note_on_c, 9, 53, 0
5, 93241, Note_on_c, 9, 44, 44
5, 93245, Note_on_c, 9, 51, 56
5, 93272, Note_on_c, 9, 51, 0
5, 93295, Note_on_c, 9, 44, 0
5, 93320, Note_on_c, 9, 51, 82
5, 93373, Note_on_c, 9, 51, 0
5, 93471, Note_on_c, 9, 44, 49
5, 93478, Note_on_c, 9, 51, 78
5, 93516, Note_on_c, 9, 44, 0
5, 93533, Note_on_c, 9, 51, 0
5, 93604, Note_on_c, 9, 51, 55
5, 93636, Note_on_c, 9, 51, 0
5, 93719, Note_on_c, 9, 51, 74
5, 93723, Note_on_c, 9, 44, 49
5, 93760, Note_on_c, 9, 51, 0
5, 93766, Note_on_c, 9, 44, 0
5, 93805, Note_on_c, 9, 51, 42
5, 93826, Note_on_c, 9, 51, 0
5, 93848, Note_on_c, 9, 51, 72
5, 93896, Note_on_c, 9, 51, 0
5, 93962, Note_on_c, 9, 44, 51
5, 93967, Note_on_c, 9, 51, 82
5, 94001, Note_on_c, 9, 51, 0
5, 94007, Note_on_c, 9, 44, 0
5, 94089, Note_on_c, 9, 51, 84
5, 94118, Note_on_c, 9, 51, 0
5, 94201, Note_on_c, 9, 44, 55
5, 94202, Note_on_c, 9, 53, 80
5, 94207, Note_on_c, 9, 52, 77
5, 94229, Note_on_c, 9, 52, 0
5, 94245, Note_on_c, 9, 44, 0
5, 94247, Note_on_c, 9, 53, 0
5, 94327, Note_on_c, 9, 51, 60
5, 94353, Note_on_c, 9, 51, 0
5, 94411, Note_on_c, 9, 38, 37
5, 94427, Note_on_c, 9, 38, 0
5, 94442, Note_on_c, 9, 44, 53
5, 94443, Note_on_c, 9, 51, 83
5, 94446, Note_on_c, 9, 53, 75
5, 94481, Note_on_c, 9, 44, 0
5, 94491, Note_on_c, 9, 53, 0
5, 94500, Note_on_c, 9, 51, 0
5, 94562, Note_on_c, 9, 38, 47
5, 94566, Note_on_c, 9, 51, 36
5, 94581, Note_on_c, 9, 38, 0
5, 94587, Note_on_c, 9, 51, 0
5, 94679, Note_on_c, 9, 51, 85
5, 94681, Note_on_c, 9, 44, 48
5, 94724, Note_on_c, 9, 44, 0
5, 94743, Note_on_c, 9, 51, 0
5, 94755, Note_on_c, 9, 38, 39
5, 94777, Note_on_c, 9, 38, 0
5, 94807, Note_on_c, 9, 51, 53
5, 94831, Note_on_c, 9, 51, 0
5, 94911, Note_on_c, 9, 44, 52
5, 94930, Note_on_c, 9, 51, 71
5, 94936, Note_on_c, 9, 38, 36
5, 94952, Note_on_c, 9, 44, 0
5, 94959, Note_on_c, 9, 38, 0
5, 94959, Note_on_c, 9, 51, 0
5, 94976, Note_on_c, 9, 51, 69
5, 94999, Note_on_c, 9, 51, 0
5, 95063, Note_on_c, 9, 51, 74
5, 95090, Note_on_c, 9, 51, 0
5, 95114, Note_on_c, 9, 51, 62
5, 95138, Note_on_c, 9, 51, 0
5, 95168, Note_on_c, 9, 44, 44
5, 95182, Note_on_c, 9, 51, 77
5, 95205, Note_on_c, 9, 51, 0
5, 95212, Note_on_c, 9, 44, 0
5, 95281, Note_on_c, 9, 51, 69
5, 95307, Note_on_c, 9, 51, 0
5, 95376, Note_on_c, 9, 36, 34
5, 95391, Note_on_c, 9, 36, 0
5, 95407, Note_on_c, 9, 51, 73
5, 95408, Note_on_c, 9, 44, 47
5, 95437, Note_on_c, 9, 51, 0
5, 95454, Note_on_c, 9, 44, 0
5, 95488, Note_on_c, 9, 51, 45
5, 95501, Note_on_c, 9, 51, 0
5, 95525, Note_on_c, 9, 51, 59
5, 95534, Note_on_c, 9, 36, 43
5, 95555, Note_on_c, 9, 36, 0
5, 95562, Note_on_c, 9, 51, 0
5, 95646, Note_on_c, 9, 51, 80
5, 95651, Note_on_c, 9, 44, 46
5, 95679, Note_on_c, 9, 51, 0
5, 95699, Note_on_c, 9, 44, 0
5, 95727, Note_on_c, 9, 51, 62
5, 95746, Note_on_c, 9, 51, 0
5, 95770, Note_on_c, 9, 51, 73
5, 95805, Note_on_c, 9, 51, 0
5, 95887, Note_on_c, 9, 51, 79
5, 95888, Note_on_c, 9, 44, 47
5, 95914, Note_on_c, 9, 51, 0
5, 95939, Note_on_c, 9, 44, 0
5, 96005, Note_on_c, 9, 51, 74
5, 96032, Note_on_c, 9, 51, 0
5, 96127, Note_on_c, 9, 51, 55
5, 96133, Note_on_c, 9, 44, 48
5, 96180, Note_on_c, 9, 44, 0
5, 96181, Note_on_c, 9, 51, 0
5, 96254, Note_on_c, 9, 51, 59
5, 96323, Note_on_c, 9, 51, 0
5, 96360, Note_on_c, 9, 51, 74
5, 96369, Note_on_c, 9, 44, 50
5, 96402, Note_on_c, 9, 44, 0
5, 96424, Note_on_c, 9, 51, 0
5, 96491, Note_on_c, 9, 51, 57
5, 96549, Note_on_c, 9, 51, 0
5, 96606, Note_on_c, 9, 51, 63
5, 96607, Note_on_c, 9, 44, 47
5, 96644, Note_on_c, 9, 44, 0
5, 96649, Note_on_c, 9, 51, 0
5, 96732, Note_on_c, 9, 51, 44
5, 96750, Note_on_c, 9, 51, 0
5, 96797, Note_on_c, 9, 38, 47
5, 96811, Note_on_c, 9, 38, 0
5, 96848, Note_on_c, 9, 51, 73
5, 96851, Note_on_c, 9, 44, 49
5, 96879, Note_on_c, 9, 51, 0
5, 96887, Note_on_c, 9, 44, 0
5, 96966, Note_on_c, 9, 51, 38
5, 96968, Note_on_c, 9, 38, 41
5, 96987, Note_on_c, 9, 51, 0
5, 96990, Note_on_c, 9, 38, 0
5, 97087, Note_on_c, 9, 51, 83
5, 97095, Note_on_c, 9, 44, 48
5, 97125, Note_on_c, 9, 51, 0
5, 97134, Note_on_c, 9, 44, 0
5, 97165, Note_on_c, 9, 38, 48
5, 97170, Note_on_c, 9, 51, 46
5, 97184, Note_on_c, 9, 38, 0
5, 97197, Note_on_c, 9, 51, 0
5, 97210, Note_on_c, 9, 51, 48
5, 97254, Note_on_c, 9, 51, 0
5, 97295, Note_on_c, 9, 36, 40
5, 97313, Note_on_c, 9, 36, 0
5, 97326, Note_on_c, 9, 51, 80
5, 97328, Note_on_c, 9, 44, 52
5, 97349, Note_on_c, 9, 36, 37
5, 97365, Note_on_c, 9, 44, 0
5, 97368, Note_on_c, 9, 51, 0
5, 97412, Note_on_c, 9, 51, 50
5, 97419, Note_on_c, 9, 36, 0
5, 97435, Note_on_c, 9, 51, 0
5, 97457, Note_on_c, 9, 51, 72
5, 97468, Note_on_c, 9, 36, 47
5, 97490, Note_on_c, 9, 51, 0
5, 97495, Note_on_c, 9, 36, 0
5, 97570, Note_on_c, 9, 51, 80
5, 97579, Note_on_c, 9, 44, 47
5, 97603, Note_on_c, 9, 51, 0
5, 97616, Note_on_c, 9, 44, 0
5, 97649, Note_on_c, 9, 51, 59
5, 97676, Note_on_c, 9, 51, 0
5, 97694, Note_on_c, 9, 51, 71
5, 97726, Note_on_c, 9, 51, 0
5, 97809, Note_on_c, 9, 51, 90
5, 97814, Note_on_c, 9, 44, 47
5, 97845, Note_on_c, 9, 51, 0
5, 97852, Note_on_c, 9, 44, 0
5, 97923, Note_on_c, 9, 51, 59
5, 97941, Note_on_c, 9, 51, 0
5, 98005, Note_on_c, 9, 51, 86
5, 98036, Note_on_c, 9, 51, 0
5, 98050, Note_on_c, 9, 44, 49
5, 98089, Note_on_c, 9, 44, 0
5, 98135, Note_on_c, 9, 51, 28
5, 98149, Note_on_c, 9, 51, 0
5, 98174, Note_on_c, 9, 51, 77
5, 98216, Note_on_c, 9, 51, 0
5, 98289, Note_on_c, 9, 51, 52
5, 98296, Note_on_c, 9, 44, 48
5, 98303, Note_on_c, 9, 51, 0
5, 98336, Note_on_c, 9, 44, 0
5, 98361, Note_on_c, 9, 51, 82
5, 98423, Note_on_c, 9, 51, 0
5, 98489, Note_on_c, 9, 51, 54
5, 98502, Note_on_c, 9, 51, 0
5, 98533, Note_on_c, 9, 51, 61
5, 98534, Note_on_c, 9, 44, 47
5, 98569, Note_on_c, 9, 44, 0
5, 98570, Note_on_c, 9, 51, 0
5, 98654, Note_on_c, 9, 51, 82
5, 98686, Note_on_c, 9, 51, 0
5, 98765, Note_on_c, 9, 51, 73
5, 98778, Note_on_c, 9, 44, 51
5, 98790, Note_on_c, 9, 51, 0
5, 98817, Note_on_c, 9, 44, 0
5, 98892, Note_on_c, 9, 51, 71
5, 98942, Note_on_c, 9, 51, 0
5, 99009, Note_on_c, 9, 44, 38
5, 99011, Note_on_c, 9, 51, 49
5, 99039, Note_on_c, 9, 44, 0
5, 99042, Note_on_c, 9, 51, 0
5, 99081, Note_on_c, 9, 51, 55
5, 99129, Note_on_c, 9, 51, 0
5, 99201, Note_on_c, 9, 51, 67
5, 99239, Note_on_c, 9, 51, 0
5, 99248, Note_on_c, 9, 44, 34
5, 99270, Note_on_c, 9, 44, 0
5, 99312, Note_on_c, 9, 51, 57
5, 99343, Note_on_c, 9, 51, 0
5, 99358, Note_on_c, 9, 59, 68
5, 99387, Note_on_c, 9, 59, 0
5, 99481, Note_on_c, 9, 44, 42
5, 99487, Note_on_c, 9, 59, 87
5, 99508, Note_on_c, 9, 44, 0
5, 99550, Note_on_c, 9, 59, 0
5, 99684, Note_on_c, 9, 59, 53
5, 99699, Note_on_c, 9, 59, 0
5, 99729, Note_on_c, 9, 44, 36
5, 99740, Note_on_c, 9, 59, 71
5, 99754, Note_on_c, 9, 44, 0
5, 99779, Note_on_c, 9, 59, 0
5, 99847, Note_on_c, 9, 44, 42
5, 99853, Note_on_c, 9, 59, 84
5, 99876, Note_on_c, 9, 44, 0
5, 99902, Note_on_c, 9, 59, 0
5, 100041, Note_on_c, 9, 59, 75
5, 100074, Note_on_c, 9, 59, 0
5, 100166, Note_on_c, 9, 53, 41
5, 100168, Note_on_c, 9, 59, 56
5, 100182, Note_on_c, 9, 59, 0
5, 100187, Note_on_c, 9, 53, 0
5, 100211, Note_on_c, 9, 44, 34
5, 100219, Note_on_c, 9, 59, 74
5, 100239, Note_on_c, 9, 44, 0
5, 100252, Note_on_c, 9, 59, 0
5, 100326, Note_on_c, 9, 44, 36
5, 100334, Note_on_c, 9, 59, 84
5, 100361, Note_on_c, 9, 44, 0
5, 100403, Note_on_c, 9, 59, 0
5, 100520, Note_on_c, 9, 59, 74
5, 100553, Note_on_c, 9, 59, 0
5, 100686, Note_on_c, 9, 44, 35
5, 100695, Note_on_c, 9, 59, 74
5, 100716, Note_on_c, 9, 44, 0
5, 100741, Note_on_c, 9, 59, 0
5, 101041, Note_on_c, 9, 44, 42
5, 101073, Note_on_c, 9, 44, 0
5, 101105, Note_on_c, 9, 59, 64
5, 101121, Note_on_c, 9, 59, 0
5, 101161, Note_on_c, 9, 44, 42
5, 101191, Note_on_c, 9, 44, 0
5, 101223, Note_on_c, 9, 59, 71
5, 101250, Note_on_c, 9, 59, 0
5, 101282, Note_on_c, 9, 59, 78
5, 101340, Note_on_c, 9, 59, 0
5, 101400, Note_on_c, 9, 44, 47
5, 101432, Note_on_c, 9, 44, 0
5, 101476, Note_on_c, 9, 59, 58
5, 101493, Note_on_c, 9, 59, 0
5, 101520, Note_on_c, 9, 44, 40
5, 101553, Note_on_c, 9, 44, 0
5, 101612, Note_on_c, 9, 59, 58
5, 101629, Note_on_c, 9, 59, 0
5, 101668, Note_on_c, 9, 59, 80
5, 101726, Note_on_c, 9, 59, 0
5, 101768, Note_on_c, 9, 38, 34
5, 101816, Note_on_c, 9, 38, 0
5, 101890, Note_on_c, 9, 44, 47
5, 101899, Note_on_c, 9, 38, 31
5, 101914, Note_on_c, 9, 44, 0
5, 101942, Note_on_c, 9, 38, 0
5, 101992, Note_on_c, 9, 59, 61
5, 102007, Note_on_c, 9, 59, 0
5, 102044, Note_on_c, 9, 59, 66
5, 102081, Note_on_c, 9, 59, 0
5, 102099, Note_on_c, 9, 36, 44
5, 102138, Note_on_c, 9, 36, 0
5, 102139, Note_on_c, 9, 44, 52
5, 102168, Note_on_c, 9, 44, 0
5, 102208, Note_on_c, 9, 59, 60
5, 102223, Note_on_c, 9, 59, 0
5, 102261, Note_on_c, 9, 59, 68
5, 102270, Note_on_c, 9, 36, 37
5, 102297, Note_on_c, 9, 36, 0
5, 102316, Note_on_c, 9, 59, 0
5, 102375, Note_on_c, 9, 44, 59
5, 102403, Note_on_c, 9, 44, 0
5, 102440, Note_on_c, 9, 59, 54
5, 102456, Note_on_c, 9, 59, 0
5, 102490, Note_on_c, 9, 59, 55
5, 102499, Note_on_c, 9, 44, 50
5, 102525, Note_on_c, 9, 44, 0
5, 102540, Note_on_c, 9, 59, 0
5, 102673, Note_on_c, 9, 59, 44
5, 102696, Note_on_c, 9, 59, 0
5, 102726, Note_on_c, 9, 59, 67
5, 102746, Note_on_c, 9, 38, 28
5, 102763, Note_on_c, 9, 59, 0
5, 102772, Note_on_c, 9, 38, 0
5, 102857, Note_on_c, 9, 38, 34
5, 102864, Note_on_c, 9, 44, 42
5, 102891, Note_on_c, 9, 44, 0
5, 102892, Note_on_c, 9, 38, 0
5, 102974, Note_on_c, 9, 59, 49
5, 103034, Note_on_c, 9, 59, 0
5, 103104, Note_on_c, 9, 44, 48
5, 103130, Note_on_c, 9, 44, 0
5, 103195, Note_on_c, 9, 59, 45
5, 103220, Note_on_c, 9, 38, 29
5, 103258, Note_on_c, 9, 38, 0
5, 103336, Note_on_c, 9, 59, 0
5, 103342, Note_on_c, 9, 44, 33
5, 103362, Note_on_c, 9, 44, 0
5, 103444, Note_on_c, 9, 59, 46
5, 103465, Note_on_c, 9, 38, 22
5, 103491, Note_on_c, 9, 38, 0
5, 103547, Note_on_c, 9, 59, 0
5, 103570, Note_on_c, 9, 44, 27
5, 103572, Note_on_c, 9, 38, 33
5, 103593, Note_on_c, 9, 44, 0
5, 103609, Note_on_c, 9, 38, 0
5, 103651, Note_on_c, 9, 59, 24
5, 103675, Note_on_c, 9, 59, 0
5, 103692, Note_on_c, 9, 59, 38
5, 103806, Note_on_c, 9, 44, 33
5, 103813, Note_on_c, 9, 59, 0
5, 103839, Note_on_c, 9, 44, 0
5, 103939, Note_on_c, 9, 59, 34
5, 104041, Note_on_c, 9, 59, 0
5, 104049, Note_on_c, 9, 44, 33
5, 104062, Note_on_c, 9, 38, 27
5, 104081, Note_on_c, 9, 44, 0
5, 104084, Note_on_c, 9, 38, 0
5, 104176, Note_on_c, 9, 38, 28
5, 104185, Note_on_c, 9, 59, 26
5, 104207, Note_on_c, 9, 38, 0
5, 104269, Note_on_c, 9, 59, 0
5, 104295, Note_on_c, 9, 44, 21
5, 104326, Note_on_c, 9, 44, 0
5, 104410, Note_on_c, 9, 59, 31
5, 104519, Note_on_c, 9, 59, 0
5, 104655, Note_on_c, 9, 59, 30
5, 104729, Note_on_c, 9, 59, 0
5, 104895, Note_on_c, 9, 59, 28
5, 105003, Note_on_c, 9, 59, 0
5, 105049, Note_on_c, 9, 38, 17
5, 105072, Note_on_c, 9, 38, 0
5, 105148, Note_on_c, 9, 59, 28
5, 105268, Note_on_c, 9, 59, 0
5, 105380, Note_on_c, 9, 59, 29
5, 105492, Note_on_c, 9, 59, 0
5, 105492, End_track
6, 0, Start_track
6, 0, Title_t, ""
6, 0, End_track
7, 0, Start_track
7, 0, Title_t, ""
7, 0, End_track
8, 0, Start_track
8, 0, Title_t, ""
8, 0, End_track
0, 0, End_of_file
