0, 0, Header, 1, 6, 960
1, 0, Start_track
1, 0, Title_t, "Alone Together"
1, 0, Text_t, "Howard Dietz and Arthur Schwartz"
1, 0, Text_t, "dougmck@pipeline.com.au\012"
1, 0, Time_signature, 4, 2, 24, 8
1, 0, Key_signature, -1, "major"
1, 0, Tempo, 461538
1, 12062, Marker_t, "Dm phrase uses locked hands - chord tones take a Dm6 - non chord tones take a diminished chord"
1, 75222, Marker_t, "LH plays a 4th voicing, RH plays melody in octaves with a perfect 5th between."
1, 171184, Marker_t, "Dm blues scale type licks"
1, 192974, Marker_t, "On D7 a lick from the altered scale"
1, 205334, Marker_t, "More Red Garland' type 2 handed chords - LH voicing and RH octaves with perfect 5th between, all played together as one BIG chord"
1, 215186, Marker_t, "Phrase moves up in minor 3rds"
1, 224428, Marker_t, "More Red Garland"
1, 249886, Marker_t, "More upper and lower neighbours approach chord tone targets"
1, 284407, Marker_t, "Brief phrase with each note in the voicing moving in parallel with the melody"
1, 295569, Marker_t, "On G half diminished an Ab Maj scale (= locrian)"
1, 322560, Marker_t, "'Counry-ish' lick on dominant chord"
1, 350944, Marker_t, "Drop 2 harmony on Dm chord"
1, 412595, Marker_t, "Phrase with LH in contrary motion to RH melody with chords"
1, 418560, Marker_t, "Phrase over Gm chord - chord (target) tones with upper and lower neighbours"
1, 418560, End_track
2, 0, Start_track
2, 0, Title_t, "MIDI 1"
2, 0, Program_c, 1, 32
2, 0, Control_c, 1, 7, 100
2, 3520, Note_on_c, 1, 37, 65
2, 3777, Note_on_c, 1, 37, 0
2, 3840, Note_on_c, 1, 38, 54
2, 4480, Note_on_c, 1, 34, 34
2, 4788, Note_on_c, 1, 34, 0
2, 4796, Note_on_c, 1, 38, 0
2, 4800, Note_on_c, 1, 45, 70
2, 5440, Note_on_c, 1, 34, 21
2, 5626, Note_on_c, 1, 34, 0
2, 5721, Note_on_c, 1, 45, 0
2, 5760, Note_on_c, 1, 41, 57
2, 6720, Note_on_c, 1, 34, 61
2, 6770, Note_on_c, 1, 41, 0
2, 7360, Note_on_c, 1, 32, 19
2, 7517, Note_on_c, 1, 32, 0
2, 7680, Note_on_c, 1, 34, 0
2, 7680, Note_on_c, 1, 40, 63
2, 8640, Note_on_c, 1, 32, 69
2, 8662, Note_on_c, 1, 40, 0
2, 9600, Note_on_c, 1, 33, 74
2, 9647, Note_on_c, 1, 32, 0
2, 10402, Note_on_c, 1, 33, 0
2, 10560, Note_on_c, 1, 37, 80
2, 11518, Note_on_c, 1, 37, 0
2, 11520, Note_on_c, 1, 38, 69
2, 12160, Note_on_c, 1, 37, 56
2, 12450, Note_on_c, 1, 38, 0
2, 12477, Note_on_c, 1, 37, 0
2, 12480, Note_on_c, 1, 46, 74
2, 13440, Note_on_c, 1, 45, 69
2, 13605, Note_on_c, 1, 46, 0
2, 14383, Note_on_c, 1, 45, 0
2, 14400, Note_on_c, 1, 39, 75
2, 15314, Note_on_c, 1, 39, 0
2, 15360, Note_on_c, 1, 40, 57
2, 16320, Note_on_c, 1, 34, 67
2, 16385, Note_on_c, 1, 40, 0
2, 17190, Note_on_c, 1, 34, 0
2, 17280, Note_on_c, 1, 33, 64
2, 18240, Note_on_c, 1, 37, 74
2, 18341, Note_on_c, 1, 33, 0
2, 19190, Note_on_c, 1, 37, 0
2, 19200, Note_on_c, 1, 38, 76
2, 19840, Note_on_c, 1, 37, 51
2, 19932, Note_on_c, 1, 38, 0
2, 20160, Note_on_c, 1, 40, 80
2, 20197, Note_on_c, 1, 37, 0
2, 20800, Note_on_c, 1, 39, 52
2, 20968, Note_on_c, 1, 40, 0
2, 21042, Note_on_c, 1, 39, 0
2, 21120, Note_on_c, 1, 41, 68
2, 22066, Note_on_c, 1, 41, 0
2, 22080, Note_on_c, 1, 44, 73
2, 22080, Note_on_c, 1, 39, 42
2, 22203, Note_on_c, 1, 39, 0
2, 23040, Note_on_c, 1, 45, 80
2, 23081, Note_on_c, 1, 44, 0
2, 24000, Note_on_c, 1, 39, 77
2, 24039, Note_on_c, 1, 45, 0
2, 24960, Note_on_c, 1, 38, 65
2, 24972, Note_on_c, 1, 39, 0
2, 25600, Note_on_c, 1, 37, 51
2, 25852, Note_on_c, 1, 38, 0
2, 25898, Note_on_c, 1, 37, 0
2, 25920, Note_on_c, 1, 45, 89
2, 26560, Note_on_c, 1, 42, 53
2, 26560, Note_on_c, 1, 38, 47
2, 26561, Note_on_c, 1, 45, 0
2, 26649, Note_on_c, 1, 38, 0
2, 26769, Note_on_c, 1, 42, 0
2, 26880, Note_on_c, 1, 43, 67
2, 27520, Note_on_c, 1, 38, 62
2, 27611, Note_on_c, 1, 43, 0
2, 27742, Note_on_c, 1, 38, 0
2, 27840, Note_on_c, 1, 32, 72
2, 28800, Note_on_c, 1, 31, 68
2, 28885, Note_on_c, 1, 32, 0
2, 29760, Note_on_c, 1, 38, 66
2, 29960, Note_on_c, 1, 31, 0
2, 30400, Note_on_c, 1, 32, 57
2, 30588, Note_on_c, 1, 32, 0
2, 30626, Note_on_c, 1, 38, 0
2, 30720, Note_on_c, 1, 46, 74
2, 31360, Note_on_c, 1, 38, 33
2, 31481, Note_on_c, 1, 38, 0
2, 31643, Note_on_c, 1, 46, 0
2, 31680, Note_on_c, 1, 45, 74
2, 32320, Note_on_c, 1, 38, 41
2, 32431, Note_on_c, 1, 38, 0
2, 32608, Note_on_c, 1, 45, 0
2, 32640, Note_on_c, 1, 43, 64
2, 33600, Note_on_c, 1, 34, 71
2, 33604, Note_on_c, 1, 43, 0
2, 34496, Note_on_c, 1, 34, 0
2, 34560, Note_on_c, 1, 35, 63
2, 35200, Note_on_c, 1, 34, 33
2, 35338, Note_on_c, 1, 34, 0
2, 35520, Note_on_c, 1, 47, 84
2, 35577, Note_on_c, 1, 35, 0
2, 36160, Note_on_c, 1, 34, 27
2, 36331, Note_on_c, 1, 34, 0
2, 36480, Note_on_c, 1, 40, 64
2, 36543, Note_on_c, 1, 47, 0
2, 37336, Note_on_c, 1, 40, 0
2, 37440, Note_on_c, 1, 32, 71
2, 38293, Note_on_c, 1, 32, 0
2, 38400, Note_on_c, 1, 31, 64
2, 39360, Note_on_c, 1, 43, 74
2, 40192, Note_on_c, 1, 43, 0
2, 40262, Note_on_c, 1, 31, 0
2, 40320, Note_on_c, 1, 36, 68
2, 40960, Note_on_c, 1, 34, 42
2, 41250, Note_on_c, 1, 34, 0
2, 41280, Note_on_c, 1, 50, 91
2, 41324, Note_on_c, 1, 36, 0
2, 41920, Note_on_c, 1, 36, 35
2, 42114, Note_on_c, 1, 36, 0
2, 42163, Note_on_c, 1, 50, 0
2, 42240, Note_on_c, 1, 48, 72
2, 42880, Note_on_c, 1, 36, 22
2, 42964, Note_on_c, 1, 36, 0
2, 43092, Note_on_c, 1, 48, 0
2, 43200, Note_on_c, 1, 45, 54
2, 43840, Note_on_c, 1, 36, 40
2, 43957, Note_on_c, 1, 36, 0
2, 44090, Note_on_c, 1, 45, 0
2, 44160, Note_on_c, 1, 41, 57
2, 45120, Note_on_c, 1, 39, 61
2, 45179, Note_on_c, 1, 41, 0
2, 45760, Note_on_c, 1, 37, 29
2, 45965, Note_on_c, 1, 37, 0
2, 46076, Note_on_c, 1, 39, 0
2, 46080, Note_on_c, 1, 40, 70
2, 47038, Note_on_c, 1, 40, 0
2, 47040, Note_on_c, 1, 34, 85
2, 47935, Note_on_c, 1, 34, 0
2, 48000, Note_on_c, 1, 33, 68
2, 48960, Note_on_c, 1, 37, 75
2, 48975, Note_on_c, 1, 33, 0
2, 49889, Note_on_c, 1, 37, 0
2, 49920, Note_on_c, 1, 38, 73
2, 50560, Note_on_c, 1, 52, 35
2, 50723, Note_on_c, 1, 52, 0
2, 50880, Note_on_c, 1, 53, 68
2, 51520, Note_on_c, 1, 45, 40
2, 51733, Note_on_c, 1, 53, 0
2, 51787, Note_on_c, 1, 45, 0
2, 51840, Note_on_c, 1, 54, 67
2, 52771, Note_on_c, 1, 38, 0
2, 52800, Note_on_c, 1, 45, 82
2, 52871, Note_on_c, 1, 54, 0
2, 54720, Note_on_c, 1, 52, 85
2, 54720, Note_on_c, 1, 51, 34
2, 54791, Note_on_c, 1, 51, 0
2, 54854, Note_on_c, 1, 45, 0
2, 55680, Note_on_c, 1, 45, 68
2, 55688, Note_on_c, 1, 52, 0
2, 56639, Note_on_c, 1, 45, 0
2, 56640, Note_on_c, 1, 39, 71
2, 57519, Note_on_c, 1, 39, 0
2, 57600, Note_on_c, 1, 38, 66
2, 58165, Note_on_c, 1, 38, 0
2, 58240, Note_on_c, 1, 38, 79
2, 58463, Note_on_c, 1, 38, 0
2, 58560, Note_on_c, 1, 41, 69
2, 59501, Note_on_c, 1, 41, 0
2, 59520, Note_on_c, 1, 45, 75
2, 60432, Note_on_c, 1, 45, 0
2, 60480, Note_on_c, 1, 39, 75
2, 61425, Note_on_c, 1, 39, 0
2, 61440, Note_on_c, 1, 40, 62
2, 62080, Note_on_c, 1, 39, 57
2, 62355, Note_on_c, 1, 39, 0
2, 62360, Note_on_c, 1, 40, 0
2, 62400, Note_on_c, 1, 46, 77
2, 63360, Note_on_c, 1, 45, 71
2, 63496, Note_on_c, 1, 46, 0
2, 64312, Note_on_c, 1, 45, 0
2, 64320, Note_on_c, 1, 37, 64
2, 65280, Note_on_c, 1, 38, 74
2, 65339, Note_on_c, 1, 37, 0
2, 66240, Note_on_c, 1, 33, 67
2, 66271, Note_on_c, 1, 38, 0
2, 67134, Note_on_c, 1, 33, 0
2, 67200, Note_on_c, 1, 34, 67
2, 68029, Note_on_c, 1, 34, 0
2, 68160, Note_on_c, 1, 34, 62
2, 69032, Note_on_c, 1, 34, 0
2, 69120, Note_on_c, 1, 32, 61
2, 70043, Note_on_c, 1, 32, 0
2, 70080, Note_on_c, 1, 33, 68
2, 70959, Note_on_c, 1, 33, 0
2, 71040, Note_on_c, 1, 37, 73
2, 72000, Note_on_c, 1, 40, 70
2, 72081, Note_on_c, 1, 37, 0
2, 72640, Note_on_c, 1, 37, 62
2, 72716, Note_on_c, 1, 40, 0
2, 72941, Note_on_c, 1, 37, 0
2, 72960, Note_on_c, 1, 38, 74
2, 73920, Note_on_c, 1, 40, 65
2, 74002, Note_on_c, 1, 38, 0
2, 74880, Note_on_c, 1, 41, 66
2, 74890, Note_on_c, 1, 40, 0
2, 75520, Note_on_c, 1, 39, 56
2, 75765, Note_on_c, 1, 41, 0
2, 75840, Note_on_c, 1, 46, 71
2, 75848, Note_on_c, 1, 39, 0
2, 76480, Note_on_c, 1, 41, 31
2, 76691, Note_on_c, 1, 41, 0
2, 76800, Note_on_c, 1, 45, 72
2, 76809, Note_on_c, 1, 46, 0
2, 77440, Note_on_c, 1, 39, 42
2, 77720, Note_on_c, 1, 39, 0
2, 77724, Note_on_c, 1, 45, 0
2, 77760, Note_on_c, 1, 55, 71
2, 78400, Note_on_c, 1, 41, 17
2, 78400, Note_on_c, 1, 43, 31
2, 78500, Note_on_c, 1, 41, 0
2, 78547, Note_on_c, 1, 43, 0
2, 78624, Note_on_c, 1, 55, 0
2, 78720, Note_on_c, 1, 54, 69
2, 79680, Note_on_c, 1, 44, 74
2, 79698, Note_on_c, 1, 54, 0
2, 80575, Note_on_c, 1, 44, 0
2, 80640, Note_on_c, 1, 43, 66
2, 81222, Note_on_c, 1, 43, 0
2, 81280, Note_on_c, 1, 38, 59
2, 81539, Note_on_c, 1, 38, 0
2, 81600, Note_on_c, 1, 32, 57
2, 82560, Note_on_c, 1, 31, 68
2, 82574, Note_on_c, 1, 32, 0
2, 83486, Note_on_c, 1, 31, 0
2, 83520, Note_on_c, 1, 33, 67
2, 84480, Note_on_c, 1, 34, 71
2, 84505, Note_on_c, 1, 33, 0
2, 85392, Note_on_c, 1, 34, 0
2, 85440, Note_on_c, 1, 38, 68
2, 86384, Note_on_c, 1, 38, 0
2, 86400, Note_on_c, 1, 41, 74
2, 87333, Note_on_c, 1, 41, 0
2, 87360, Note_on_c, 1, 34, 71
2, 88251, Note_on_c, 1, 34, 0
2, 88320, Note_on_c, 1, 35, 62
2, 89280, Note_on_c, 1, 40, 74
2, 89318, Note_on_c, 1, 35, 0
2, 90240, Note_on_c, 1, 28, 62
2, 90359, Note_on_c, 1, 40, 0
2, 91144, Note_on_c, 1, 28, 0
2, 91200, Note_on_c, 1, 34, 71
2, 92150, Note_on_c, 1, 34, 0
2, 92160, Note_on_c, 1, 31, 67
2, 93040, Note_on_c, 1, 31, 0
2, 93120, Note_on_c, 1, 35, 67
2, 94080, Note_on_c, 1, 36, 71
2, 94086, Note_on_c, 1, 35, 0
2, 94720, Note_on_c, 1, 34, 54
2, 94948, Note_on_c, 1, 36, 0
2, 95034, Note_on_c, 1, 34, 0
2, 95040, Note_on_c, 1, 43, 87
2, 95680, Note_on_c, 1, 36, 35
2, 95899, Note_on_c, 1, 36, 0
2, 95960, Note_on_c, 1, 43, 0
2, 96000, Note_on_c, 1, 41, 71
2, 96640, Note_on_c, 1, 36, 31
2, 96754, Note_on_c, 1, 36, 0
2, 96816, Note_on_c, 1, 41, 0
2, 96960, Note_on_c, 1, 41, 68
2, 97920, Note_on_c, 1, 36, 71
2, 97939, Note_on_c, 1, 41, 0
2, 98880, Note_on_c, 1, 39, 82
2, 98882, Note_on_c, 1, 36, 0
2, 99734, Note_on_c, 1, 39, 0
2, 99840, Note_on_c, 1, 40, 74
2, 100480, Note_on_c, 1, 34, 82
2, 100589, Note_on_c, 1, 40, 0
2, 101693, Note_on_c, 1, 34, 0
2, 101760, Note_on_c, 1, 33, 63
2, 102720, Note_on_c, 1, 37, 62
2, 102741, Note_on_c, 1, 33, 0
2, 103360, Note_on_c, 1, 34, 33
2, 103625, Note_on_c, 1, 34, 0
2, 103626, Note_on_c, 1, 37, 0
2, 103680, Note_on_c, 1, 38, 61
2, 104320, Note_on_c, 1, 37, 61
2, 104549, Note_on_c, 1, 37, 0
2, 104640, Note_on_c, 1, 52, 55
2, 105556, Note_on_c, 1, 52, 0
2, 105600, Note_on_c, 1, 53, 43
2, 107520, Note_on_c, 1, 54, 64
2, 107524, Note_on_c, 1, 53, 0
2, 107566, Note_on_c, 1, 38, 0
2, 108160, Note_on_c, 1, 38, 74
2, 109440, Note_on_c, 1, 50, 62
2, 109556, Note_on_c, 1, 38, 0
2, 110080, Note_on_c, 1, 46, 83
2, 110116, Note_on_c, 1, 50, 0
2, 110216, Note_on_c, 1, 54, 0
2, 111008, Note_on_c, 1, 46, 0
2, 111040, Note_on_c, 1, 45, 79
2, 112000, Note_on_c, 1, 39, 62
2, 112027, Note_on_c, 1, 45, 0
2, 112242, Note_on_c, 1, 39, 0
2, 112320, Note_on_c, 1, 36, 68
2, 113204, Note_on_c, 1, 36, 0
2, 113280, Note_on_c, 1, 39, 60
2, 114200, Note_on_c, 1, 39, 0
2, 114240, Note_on_c, 1, 37, 57
2, 115145, Note_on_c, 1, 37, 0
2, 115200, Note_on_c, 1, 38, 68
2, 116132, Note_on_c, 1, 38, 0
2, 116160, Note_on_c, 1, 33, 59
2, 117062, Note_on_c, 1, 33, 0
2, 117120, Note_on_c, 1, 30, 53
2, 117986, Note_on_c, 1, 30, 0
2, 118080, Note_on_c, 1, 30, 53
2, 118955, Note_on_c, 1, 30, 0
2, 119040, Note_on_c, 1, 31, 63
2, 119939, Note_on_c, 1, 31, 0
2, 120000, Note_on_c, 1, 31, 79
2, 120929, Note_on_c, 1, 31, 0
2, 120960, Note_on_c, 1, 33, 71
2, 121761, Note_on_c, 1, 33, 0
2, 121920, Note_on_c, 1, 33, 78
2, 122880, Note_on_c, 1, 34, 75
2, 122885, Note_on_c, 1, 33, 0
2, 123394, Note_on_c, 1, 34, 0
2, 123520, Note_on_c, 1, 34, 62
2, 123762, Note_on_c, 1, 34, 0
2, 123840, Note_on_c, 1, 33, 76
2, 124800, Note_on_c, 1, 31, 64
2, 124848, Note_on_c, 1, 33, 0
2, 125560, Note_on_c, 1, 31, 0
2, 125760, Note_on_c, 1, 38, 80
2, 126400, Note_on_c, 1, 34, 50
2, 126607, Note_on_c, 1, 38, 0
2, 126694, Note_on_c, 1, 34, 0
2, 126720, Note_on_c, 1, 46, 83
2, 127360, Note_on_c, 1, 34, 39
2, 127587, Note_on_c, 1, 34, 0
2, 127598, Note_on_c, 1, 46, 0
2, 127680, Note_on_c, 1, 44, 64
2, 128320, Note_on_c, 1, 38, 43
2, 128483, Note_on_c, 1, 38, 0
2, 128608, Note_on_c, 1, 44, 0
2, 128640, Note_on_c, 1, 43, 62
2, 129552, Note_on_c, 1, 43, 0
2, 129600, Note_on_c, 1, 35, 68
2, 130240, Note_on_c, 1, 34, 42
2, 130482, Note_on_c, 1, 34, 0
2, 130533, Note_on_c, 1, 35, 0
2, 130560, Note_on_c, 1, 36, 66
2, 131520, Note_on_c, 1, 48, 80
2, 131580, Note_on_c, 1, 36, 0
2, 132480, Note_on_c, 1, 30, 58
2, 132538, Note_on_c, 1, 48, 0
2, 133322, Note_on_c, 1, 30, 0
2, 133440, Note_on_c, 1, 30, 52
2, 134400, Note_on_c, 1, 29, 62
2, 134404, Note_on_c, 1, 30, 0
2, 135360, Note_on_c, 1, 29, 0
2, 135360, Note_on_c, 1, 35, 58
2, 136285, Note_on_c, 1, 35, 0
2, 136320, Note_on_c, 1, 33, 73
2, 137232, Note_on_c, 1, 33, 0
2, 137280, Note_on_c, 1, 36, 68
2, 138070, Note_on_c, 1, 36, 0
2, 138240, Note_on_c, 1, 40, 68
2, 139110, Note_on_c, 1, 40, 0
2, 139200, Note_on_c, 1, 34, 60
2, 140144, Note_on_c, 1, 34, 0
2, 140160, Note_on_c, 1, 33, 64
2, 140800, Note_on_c, 1, 39, 75
2, 140857, Note_on_c, 1, 33, 0
2, 140946, Note_on_c, 1, 39, 0
2, 141120, Note_on_c, 1, 37, 65
2, 142023, Note_on_c, 1, 37, 0
2, 142080, Note_on_c, 1, 38, 62
2, 142720, Note_on_c, 1, 37, 38
2, 142881, Note_on_c, 1, 38, 0
2, 143040, Note_on_c, 1, 45, 65
2, 143350, Note_on_c, 1, 37, 0
2, 143680, Note_on_c, 1, 38, 43
2, 143870, Note_on_c, 1, 38, 0
2, 143992, Note_on_c, 1, 45, 0
2, 144000, Note_on_c, 1, 50, 71
2, 144960, Note_on_c, 1, 39, 76
2, 144995, Note_on_c, 1, 50, 0
2, 145893, Note_on_c, 1, 39, 0
2, 145920, Note_on_c, 1, 40, 65
2, 146819, Note_on_c, 1, 40, 0
2, 146880, Note_on_c, 1, 34, 64
2, 147823, Note_on_c, 1, 34, 0
2, 147840, Note_on_c, 1, 33, 68
2, 148773, Note_on_c, 1, 33, 0
2, 148800, Note_on_c, 1, 39, 69
2, 149440, Note_on_c, 1, 34, 49
2, 149460, Note_on_c, 1, 39, 0
2, 149718, Note_on_c, 1, 34, 0
2, 149760, Note_on_c, 1, 38, 70
2, 150676, Note_on_c, 1, 38, 0
2, 150720, Note_on_c, 1, 38, 75
2, 150720, Note_on_c, 1, 34, 20
2, 150891, Note_on_c, 1, 34, 0
2, 151653, Note_on_c, 1, 38, 0
2, 151680, Note_on_c, 1, 34, 63
2, 152640, Note_on_c, 1, 45, 79
2, 152719, Note_on_c, 1, 34, 0
2, 153280, Note_on_c, 1, 39, 42
2, 153458, Note_on_c, 1, 45, 0
2, 153518, Note_on_c, 1, 39, 0
2, 153600, Note_on_c, 1, 46, 69
2, 154560, Note_on_c, 1, 39, 75
2, 154576, Note_on_c, 1, 46, 0
2, 155491, Note_on_c, 1, 39, 0
2, 155520, Note_on_c, 1, 40, 68
2, 156160, Note_on_c, 1, 36, 57
2, 156169, Note_on_c, 1, 40, 0
2, 156329, Note_on_c, 1, 36, 0
2, 156480, Note_on_c, 1, 37, 71
2, 157358, Note_on_c, 1, 37, 0
2, 157440, Note_on_c, 1, 38, 71
2, 158720, Note_on_c, 1, 41, 28
2, 158720, Note_on_c, 1, 40, 29
2, 158818, Note_on_c, 1, 41, 0
2, 158885, Note_on_c, 1, 40, 0
2, 159360, Note_on_c, 1, 45, 74
2, 159583, Note_on_c, 1, 38, 0
2, 160203, Note_on_c, 1, 45, 0
2, 160320, Note_on_c, 1, 41, 57
2, 160960, Note_on_c, 1, 36, 48
2, 160960, Note_on_c, 1, 38, 37
2, 161006, Note_on_c, 1, 41, 0
2, 161048, Note_on_c, 1, 36, 0
2, 161049, Note_on_c, 1, 38, 0
2, 161280, Note_on_c, 1, 34, 68
2, 162560, Note_on_c, 1, 46, 63
2, 162647, Note_on_c, 1, 34, 0
2, 162757, Note_on_c, 1, 46, 0
2, 162880, Note_on_c, 1, 34, 36
2, 163064, Note_on_c, 1, 34, 0
2, 163200, Note_on_c, 1, 45, 73
2, 164104, Note_on_c, 1, 45, 0
2, 164160, Note_on_c, 1, 37, 71
2, 165062, Note_on_c, 1, 37, 0
2, 165120, Note_on_c, 1, 38, 78
2, 167040, Note_on_c, 1, 45, 76
2, 167159, Note_on_c, 1, 38, 0
2, 168960, Note_on_c, 1, 40, 64
2, 168976, Note_on_c, 1, 45, 0
2, 170542, Note_on_c, 1, 40, 0
2, 170560, Note_on_c, 1, 45, 79
2, 170755, Note_on_c, 1, 45, 0
2, 170880, Note_on_c, 1, 33, 67
2, 171650, Note_on_c, 1, 33, 0
2, 171840, Note_on_c, 1, 33, 74
2, 172367, Note_on_c, 1, 33, 0
2, 172480, Note_on_c, 1, 49, 63
2, 172688, Note_on_c, 1, 49, 0
2, 172800, Note_on_c, 1, 50, 68
2, 173614, Note_on_c, 1, 50, 0
2, 173760, Note_on_c, 1, 45, 62
2, 174611, Note_on_c, 1, 45, 0
2, 174720, Note_on_c, 1, 41, 48
2, 175524, Note_on_c, 1, 41, 0
2, 175680, Note_on_c, 1, 37, 79
2, 176522, Note_on_c, 1, 37, 0
2, 176640, Note_on_c, 1, 40, 71
2, 177600, Note_on_c, 1, 34, 77
2, 177680, Note_on_c, 1, 40, 0
2, 178560, Note_on_c, 1, 33, 69
2, 178633, Note_on_c, 1, 34, 0
2, 179200, Note_on_c, 1, 36, 51
2, 179324, Note_on_c, 1, 33, 0
2, 179356, Note_on_c, 1, 36, 0
2, 179520, Note_on_c, 1, 37, 80
2, 180160, Note_on_c, 1, 34, 30
2, 180273, Note_on_c, 1, 34, 0
2, 180313, Note_on_c, 1, 37, 0
2, 180480, Note_on_c, 1, 38, 69
2, 181120, Note_on_c, 1, 34, 46
2, 181440, Note_on_c, 1, 52, 71
2, 181448, Note_on_c, 1, 34, 0
2, 181505, Note_on_c, 1, 38, 0
2, 182080, Note_on_c, 1, 43, 34
2, 182200, Note_on_c, 1, 43, 0
2, 182347, Note_on_c, 1, 52, 0
2, 182400, Note_on_c, 1, 50, 71
2, 183360, Note_on_c, 1, 39, 74
2, 183378, Note_on_c, 1, 50, 0
2, 184282, Note_on_c, 1, 39, 0
2, 184320, Note_on_c, 1, 40, 63
2, 184960, Note_on_c, 1, 39, 57
2, 185188, Note_on_c, 1, 39, 0
2, 185280, Note_on_c, 1, 46, 71
2, 185286, Note_on_c, 1, 40, 0
2, 186136, Note_on_c, 1, 46, 0
2, 186240, Note_on_c, 1, 45, 72
2, 187200, Note_on_c, 1, 39, 76
2, 187233, Note_on_c, 1, 45, 0
2, 188095, Note_on_c, 1, 39, 0
2, 188160, Note_on_c, 1, 38, 67
2, 189053, Note_on_c, 1, 38, 0
2, 189120, Note_on_c, 1, 38, 77
2, 190046, Note_on_c, 1, 38, 0
2, 190080, Note_on_c, 1, 33, 57
2, 191040, Note_on_c, 1, 32, 73
2, 191092, Note_on_c, 1, 33, 0
2, 191927, Note_on_c, 1, 32, 0
2, 192000, Note_on_c, 1, 33, 68
2, 192937, Note_on_c, 1, 33, 0
2, 192960, Note_on_c, 1, 39, 79
2, 193563, Note_on_c, 1, 39, 0
2, 193600, Note_on_c, 1, 37, 60
2, 193884, Note_on_c, 1, 37, 0
2, 193920, Note_on_c, 1, 38, 73
2, 194560, Note_on_c, 1, 37, 65
2, 194668, Note_on_c, 1, 38, 0
2, 194814, Note_on_c, 1, 37, 0
2, 194880, Note_on_c, 1, 42, 64
2, 195520, Note_on_c, 1, 38, 43
2, 195616, Note_on_c, 1, 38, 0
2, 195673, Note_on_c, 1, 42, 0
2, 195840, Note_on_c, 1, 43, 66
2, 196480, Note_on_c, 1, 38, 56
2, 196531, Note_on_c, 1, 43, 0
2, 196707, Note_on_c, 1, 38, 0
2, 196800, Note_on_c, 1, 34, 29
2, 196800, Note_on_c, 1, 32, 38
2, 197308, Note_on_c, 1, 34, 0
2, 197697, Note_on_c, 1, 32, 0
2, 197760, Note_on_c, 1, 31, 63
2, 198645, Note_on_c, 1, 31, 0
2, 198720, Note_on_c, 1, 38, 43
2, 198720, Note_on_c, 1, 40, 47
2, 199117, Note_on_c, 1, 40, 0
2, 199528, Note_on_c, 1, 38, 0
2, 199680, Note_on_c, 1, 44, 52
2, 199680, Note_on_c, 1, 43, 65
2, 200529, Note_on_c, 1, 43, 0
2, 200546, Note_on_c, 1, 44, 0
2, 200640, Note_on_c, 1, 43, 65
2, 201600, Note_on_c, 1, 34, 70
2, 201611, Note_on_c, 1, 43, 0
2, 202437, Note_on_c, 1, 34, 0
2, 202560, Note_on_c, 1, 38, 70
2, 203464, Note_on_c, 1, 38, 0
2, 203520, Note_on_c, 1, 35, 64
2, 204160, Note_on_c, 1, 38, 58
2, 204427, Note_on_c, 1, 38, 0
2, 204434, Note_on_c, 1, 35, 0
2, 204480, Note_on_c, 1, 47, 95
2, 205440, Note_on_c, 1, 40, 74
2, 205500, Note_on_c, 1, 47, 0
2, 206342, Note_on_c, 1, 40, 0
2, 206400, Note_on_c, 1, 32, 72
2, 207308, Note_on_c, 1, 32, 0
2, 207360, Note_on_c, 1, 31, 62
2, 208320, Note_on_c, 1, 43, 74
2, 208720, Note_on_c, 1, 31, 0
2, 209228, Note_on_c, 1, 43, 0
2, 209280, Note_on_c, 1, 36, 68
2, 210181, Note_on_c, 1, 36, 0
2, 210240, Note_on_c, 1, 40, 71
2, 210880, Note_on_c, 1, 39, 46
2, 211164, Note_on_c, 1, 39, 0
2, 211168, Note_on_c, 1, 40, 0
2, 211200, Note_on_c, 1, 41, 65
2, 211840, Note_on_c, 1, 39, 37
2, 212143, Note_on_c, 1, 41, 0
2, 212160, Note_on_c, 1, 50, 105
2, 212163, Note_on_c, 1, 39, 0
2, 213066, Note_on_c, 1, 50, 0
2, 213120, Note_on_c, 1, 48, 76
2, 214080, Note_on_c, 1, 39, 77
2, 214087, Note_on_c, 1, 48, 0
2, 214972, Note_on_c, 1, 39, 0
2, 215040, Note_on_c, 1, 40, 74
2, 215956, Note_on_c, 1, 40, 0
2, 216000, Note_on_c, 1, 34, 72
2, 216901, Note_on_c, 1, 34, 0
2, 216960, Note_on_c, 1, 33, 62
2, 217910, Note_on_c, 1, 33, 0
2, 217920, Note_on_c, 1, 37, 63
2, 218560, Note_on_c, 1, 34, 31
2, 218833, Note_on_c, 1, 34, 0
2, 218874, Note_on_c, 1, 37, 0
2, 218880, Note_on_c, 1, 38, 64
2, 219520, Note_on_c, 1, 37, 34
2, 219762, Note_on_c, 1, 37, 0
2, 219829, Note_on_c, 1, 38, 0
2, 219840, Note_on_c, 1, 41, 57
2, 220480, Note_on_c, 1, 37, 38
2, 220662, Note_on_c, 1, 37, 0
2, 220742, Note_on_c, 1, 41, 0
2, 220800, Note_on_c, 1, 42, 62
2, 221760, Note_on_c, 1, 38, 75
2, 221847, Note_on_c, 1, 42, 0
2, 222400, Note_on_c, 1, 34, 14
2, 222400, Note_on_c, 1, 37, 32
2, 222651, Note_on_c, 1, 37, 0
2, 222657, Note_on_c, 1, 34, 0
2, 222720, Note_on_c, 1, 45, 65
2, 222785, Note_on_c, 1, 38, 0
2, 223360, Note_on_c, 1, 38, 26
2, 223360, Note_on_c, 1, 37, 38
2, 223479, Note_on_c, 1, 38, 0
2, 223490, Note_on_c, 1, 45, 0
2, 223493, Note_on_c, 1, 37, 0
2, 223680, Note_on_c, 1, 54, 75
2, 224320, Note_on_c, 1, 40, 29
2, 224510, Note_on_c, 1, 40, 0
2, 224640, Note_on_c, 1, 47, 40
2, 224640, Note_on_c, 1, 45, 36
2, 225049, Note_on_c, 1, 47, 0
2, 225280, Note_on_c, 1, 38, 54
2, 225428, Note_on_c, 1, 38, 0
2, 225520, Note_on_c, 1, 45, 0
2, 225600, Note_on_c, 1, 37, 84
2, 226393, Note_on_c, 1, 54, 0
2, 226543, Note_on_c, 1, 37, 0
2, 226560, Note_on_c, 1, 38, 71
2, 227200, Note_on_c, 1, 37, 39
2, 227397, Note_on_c, 1, 38, 0
2, 227490, Note_on_c, 1, 37, 0
2, 227520, Note_on_c, 1, 45, 91
2, 228447, Note_on_c, 1, 45, 0
2, 228480, Note_on_c, 1, 41, 64
2, 229120, Note_on_c, 1, 38, 56
2, 229277, Note_on_c, 1, 41, 0
2, 229318, Note_on_c, 1, 38, 0
2, 229440, Note_on_c, 1, 34, 74
2, 230316, Note_on_c, 1, 34, 0
2, 230400, Note_on_c, 1, 38, 36
2, 231203, Note_on_c, 1, 38, 0
2, 231360, Note_on_c, 1, 34, 58
2, 232320, Note_on_c, 1, 33, 64
2, 232343, Note_on_c, 1, 34, 0
2, 233280, Note_on_c, 1, 37, 64
2, 233295, Note_on_c, 1, 33, 0
2, 233920, Note_on_c, 1, 33, 49
2, 233925, Note_on_c, 1, 37, 0
2, 234134, Note_on_c, 1, 33, 0
2, 234240, Note_on_c, 1, 38, 64
2, 234880, Note_on_c, 1, 34, 38
2, 234956, Note_on_c, 1, 38, 0
2, 235143, Note_on_c, 1, 34, 0
2, 235200, Note_on_c, 1, 40, 67
2, 235840, Note_on_c, 1, 37, 36
2, 235964, Note_on_c, 1, 40, 0
2, 236160, Note_on_c, 1, 41, 59
2, 236172, Note_on_c, 1, 37, 0
2, 236800, Note_on_c, 1, 39, 28
2, 237030, Note_on_c, 1, 41, 0
2, 237080, Note_on_c, 1, 39, 0
2, 237120, Note_on_c, 1, 47, 44
2, 237120, Note_on_c, 1, 48, 44
2, 237197, Note_on_c, 1, 47, 0
2, 237760, Note_on_c, 1, 41, 42
2, 237905, Note_on_c, 1, 48, 0
2, 237950, Note_on_c, 1, 41, 0
2, 238080, Note_on_c, 1, 53, 54
2, 238080, Note_on_c, 1, 46, 59
2, 238279, Note_on_c, 1, 53, 0
2, 238400, Note_on_c, 1, 53, 32
2, 238564, Note_on_c, 1, 53, 0
2, 238720, Note_on_c, 1, 41, 34
2, 238817, Note_on_c, 1, 46, 0
2, 238818, Note_on_c, 1, 41, 0
2, 239040, Note_on_c, 1, 34, 72
2, 240000, Note_on_c, 1, 33, 70
2, 240029, Note_on_c, 1, 34, 0
2, 240900, Note_on_c, 1, 33, 0
2, 240960, Note_on_c, 1, 37, 71
2, 241898, Note_on_c, 1, 37, 0
2, 241920, Note_on_c, 1, 38, 71
2, 242471, Note_on_c, 1, 38, 0
2, 242560, Note_on_c, 1, 38, 56
2, 242880, Note_on_c, 1, 40, 66
2, 242894, Note_on_c, 1, 38, 0
2, 243840, Note_on_c, 1, 41, 62
2, 243903, Note_on_c, 1, 40, 0
2, 244800, Note_on_c, 1, 43, 60
2, 244815, Note_on_c, 1, 41, 0
2, 245440, Note_on_c, 1, 44, 56
2, 245473, Note_on_c, 1, 43, 0
2, 245734, Note_on_c, 1, 44, 0
2, 245760, Note_on_c, 1, 45, 72
2, 246400, Note_on_c, 1, 44, 57
2, 246676, Note_on_c, 1, 44, 0
2, 246702, Note_on_c, 1, 45, 0
2, 246720, Note_on_c, 1, 51, 72
2, 247360, Note_on_c, 1, 44, 38
2, 247431, Note_on_c, 1, 44, 0
2, 247655, Note_on_c, 1, 51, 0
2, 247680, Note_on_c, 1, 50, 74
2, 248320, Note_on_c, 1, 45, 66
2, 248423, Note_on_c, 1, 50, 0
2, 248512, Note_on_c, 1, 45, 0
2, 248640, Note_on_c, 1, 42, 68
2, 249565, Note_on_c, 1, 42, 0
2, 249600, Note_on_c, 1, 43, 59
2, 250479, Note_on_c, 1, 43, 0
2, 250560, Note_on_c, 1, 37, 73
2, 251437, Note_on_c, 1, 37, 0
2, 251520, Note_on_c, 1, 38, 73
2, 252461, Note_on_c, 1, 38, 0
2, 252480, Note_on_c, 1, 30, 70
2, 253440, Note_on_c, 1, 31, 75
2, 253469, Note_on_c, 1, 30, 0
2, 254400, Note_on_c, 1, 33, 80
2, 254480, Note_on_c, 1, 31, 0
2, 255360, Note_on_c, 1, 34, 76
2, 255458, Note_on_c, 1, 33, 0
2, 256237, Note_on_c, 1, 34, 0
2, 256320, Note_on_c, 1, 34, 69
2, 257174, Note_on_c, 1, 34, 0
2, 257280, Note_on_c, 1, 35, 74
2, 258206, Note_on_c, 1, 35, 0
2, 258240, Note_on_c, 1, 35, 79
2, 259144, Note_on_c, 1, 35, 0
2, 259200, Note_on_c, 1, 28, 77
2, 260126, Note_on_c, 1, 28, 0
2, 260160, Note_on_c, 1, 35, 75
2, 260782, Note_on_c, 1, 35, 0
2, 260800, Note_on_c, 1, 30, 71
2, 261033, Note_on_c, 1, 30, 0
2, 261120, Note_on_c, 1, 31, 75
2, 262032, Note_on_c, 1, 31, 0
2, 262080, Note_on_c, 1, 38, 87
2, 262720, Note_on_c, 1, 34, 51
2, 262800, Note_on_c, 1, 38, 0
2, 262985, Note_on_c, 1, 34, 0
2, 263040, Note_on_c, 1, 36, 69
2, 263779, Note_on_c, 1, 36, 0
2, 264000, Note_on_c, 1, 43, 64
2, 264000, Note_on_c, 1, 45, 80
2, 264129, Note_on_c, 1, 45, 0
2, 264640, Note_on_c, 1, 39, 28
2, 264731, Note_on_c, 1, 39, 0
2, 264845, Note_on_c, 1, 43, 0
2, 264960, Note_on_c, 1, 41, 74
2, 265920, Note_on_c, 1, 36, 69
2, 265956, Note_on_c, 1, 41, 0
2, 266826, Note_on_c, 1, 36, 0
2, 266880, Note_on_c, 1, 33, 69
2, 267796, Note_on_c, 1, 33, 0
2, 267840, Note_on_c, 1, 38, 34
2, 267840, Note_on_c, 1, 40, 62
2, 267930, Note_on_c, 1, 38, 0
2, 268685, Note_on_c, 1, 40, 0
2, 268800, Note_on_c, 1, 40, 73
2, 269722, Note_on_c, 1, 40, 0
2, 269760, Note_on_c, 1, 34, 68
2, 270663, Note_on_c, 1, 34, 0
2, 270720, Note_on_c, 1, 33, 69
2, 271680, Note_on_c, 1, 37, 71
2, 271702, Note_on_c, 1, 33, 0
2, 272320, Note_on_c, 1, 34, 37
2, 272575, Note_on_c, 1, 37, 0
2, 272593, Note_on_c, 1, 34, 0
2, 272640, Note_on_c, 1, 38, 62
2, 273280, Note_on_c, 1, 37, 26
2, 273280, Note_on_c, 1, 34, 42
2, 273355, Note_on_c, 1, 37, 0
2, 273531, Note_on_c, 1, 38, 0
2, 273600, Note_on_c, 1, 52, 57
2, 273614, Note_on_c, 1, 34, 0
2, 273920, Note_on_c, 1, 38, 19
2, 274547, Note_on_c, 1, 52, 0
2, 274560, Note_on_c, 1, 54, 59
2, 274602, Note_on_c, 1, 38, 0
2, 275200, Note_on_c, 1, 44, 77
2, 275451, Note_on_c, 1, 54, 0
2, 276160, Note_on_c, 1, 45, 89
2, 276272, Note_on_c, 1, 44, 0
2, 277120, Note_on_c, 1, 37, 69
2, 277187, Note_on_c, 1, 45, 0
2, 277308, Note_on_c, 1, 37, 0
2, 277440, Note_on_c, 1, 38, 66
2, 278080, Note_on_c, 1, 37, 36
2, 278366, Note_on_c, 1, 38, 0
2, 278400, Note_on_c, 1, 45, 81
2, 278408, Note_on_c, 1, 37, 0
2, 279040, Note_on_c, 1, 39, 35
2, 279040, Note_on_c, 1, 37, 37
2, 279121, Note_on_c, 1, 39, 0
2, 279126, Note_on_c, 1, 45, 0
2, 279228, Note_on_c, 1, 37, 0
2, 279360, Note_on_c, 1, 46, 84
2, 280313, Note_on_c, 1, 46, 0
2, 280320, Note_on_c, 1, 45, 71
2, 280960, Note_on_c, 1, 39, 57
2, 281011, Note_on_c, 1, 45, 0
2, 281170, Note_on_c, 1, 39, 0
2, 281280, Note_on_c, 1, 36, 71
2, 282155, Note_on_c, 1, 36, 0
2, 282240, Note_on_c, 1, 39, 71
2, 283135, Note_on_c, 1, 39, 0
2, 283200, Note_on_c, 1, 37, 60
2, 283840, Note_on_c, 1, 34, 23
2, 283957, Note_on_c, 1, 34, 0
2, 284160, Note_on_c, 1, 38, 64
2, 284195, Note_on_c, 1, 37, 0
2, 284473, Note_on_c, 1, 38, 0
2, 284480, Note_on_c, 1, 52, 50
2, 284582, Note_on_c, 1, 52, 0
2, 284800, Note_on_c, 1, 45, 59
2, 284946, Note_on_c, 1, 45, 0
2, 285120, Note_on_c, 1, 42, 52
2, 286038, Note_on_c, 1, 42, 0
2, 286080, Note_on_c, 1, 38, 51
2, 287040, Note_on_c, 1, 32, 71
2, 287092, Note_on_c, 1, 38, 0
2, 287932, Note_on_c, 1, 32, 0
2, 288000, Note_on_c, 1, 31, 65
2, 288595, Note_on_c, 1, 31, 0
2, 288640, Note_on_c, 1, 31, 71
2, 288960, Note_on_c, 1, 33, 81
2, 289027, Note_on_c, 1, 31, 0
2, 289920, Note_on_c, 1, 34, 64
2, 289935, Note_on_c, 1, 33, 0
2, 290880, Note_on_c, 1, 36, 70
2, 290905, Note_on_c, 1, 34, 0
2, 291520, Note_on_c, 1, 34, 47
2, 291637, Note_on_c, 1, 36, 0
2, 291840, Note_on_c, 1, 38, 68
2, 291870, Note_on_c, 1, 34, 0
2, 292480, Note_on_c, 1, 34, 44
2, 292777, Note_on_c, 1, 38, 0
2, 292800, Note_on_c, 1, 48, 91
2, 292864, Note_on_c, 1, 34, 0
2, 293440, Note_on_c, 1, 38, 32
2, 293736, Note_on_c, 1, 38, 0
2, 293760, Note_on_c, 1, 46, 61
2, 293871, Note_on_c, 1, 48, 0
2, 294400, Note_on_c, 1, 38, 42
2, 294640, Note_on_c, 1, 38, 0
2, 294720, Note_on_c, 1, 45, 61
2, 294866, Note_on_c, 1, 46, 0
2, 295360, Note_on_c, 1, 38, 34
2, 295360, Note_on_c, 1, 44, 71
2, 295464, Note_on_c, 1, 45, 0
2, 295471, Note_on_c, 1, 38, 0
2, 295680, Note_on_c, 1, 43, 64
2, 295707, Note_on_c, 1, 44, 0
2, 296640, Note_on_c, 1, 37, 69
2, 297433, Note_on_c, 1, 37, 0
2, 297600, Note_on_c, 1, 31, 65
2, 298506, Note_on_c, 1, 43, 0
2, 298553, Note_on_c, 1, 31, 0
2, 298560, Note_on_c, 1, 35, 44
2, 298746, Note_on_c, 1, 35, 0
2, 299200, Note_on_c, 1, 36, 64
2, 299200, Note_on_c, 1, 35, 58
2, 299265, Note_on_c, 1, 36, 0
2, 299474, Note_on_c, 1, 35, 0
2, 299520, Note_on_c, 1, 36, 74
2, 300480, Note_on_c, 1, 37, 69
2, 300574, Note_on_c, 1, 36, 0
2, 301415, Note_on_c, 1, 37, 0
2, 301440, Note_on_c, 1, 39, 70
2, 302080, Note_on_c, 1, 36, 32
2, 302157, Note_on_c, 1, 39, 0
2, 302272, Note_on_c, 1, 36, 0
2, 302400, Note_on_c, 1, 40, 66
2, 303040, Note_on_c, 1, 36, 57
2, 303227, Note_on_c, 1, 40, 0
2, 303316, Note_on_c, 1, 36, 0
2, 303360, Note_on_c, 1, 41, 62
2, 304320, Note_on_c, 1, 36, 69
2, 304370, Note_on_c, 1, 41, 0
2, 305176, Note_on_c, 1, 36, 0
2, 305280, Note_on_c, 1, 33, 62
2, 306240, Note_on_c, 1, 39, 73
2, 307066, Note_on_c, 1, 39, 0
2, 307163, Note_on_c, 1, 33, 0
2, 307200, Note_on_c, 1, 40, 66
2, 307840, Note_on_c, 1, 32, 50
2, 308039, Note_on_c, 1, 40, 0
2, 308056, Note_on_c, 1, 32, 0
2, 308160, Note_on_c, 1, 50, 78
2, 308160, Note_on_c, 1, 34, 61
2, 309076, Note_on_c, 1, 50, 0
2, 309109, Note_on_c, 1, 34, 0
2, 309120, Note_on_c, 1, 49, 52
2, 309120, Note_on_c, 1, 33, 54
2, 309994, Note_on_c, 1, 33, 0
2, 310080, Note_on_c, 1, 39, 76
2, 310720, Note_on_c, 1, 34, 39
2, 310811, Note_on_c, 1, 49, 0
2, 310820, Note_on_c, 1, 39, 0
2, 311022, Note_on_c, 1, 34, 0
2, 311040, Note_on_c, 1, 38, 66
2, 311680, Note_on_c, 1, 39, 31
2, 311680, Note_on_c, 1, 37, 46
2, 311857, Note_on_c, 1, 39, 0
2, 311932, Note_on_c, 1, 37, 0
2, 312000, Note_on_c, 1, 45, 76
2, 312030, Note_on_c, 1, 38, 0
2, 312933, Note_on_c, 1, 45, 0
2, 312960, Note_on_c, 1, 41, 55
2, 313600, Note_on_c, 1, 39, 47
2, 313836, Note_on_c, 1, 39, 0
2, 313920, Note_on_c, 1, 50, 87
2, 313925, Note_on_c, 1, 41, 0
2, 314818, Note_on_c, 1, 50, 0
2, 314880, Note_on_c, 1, 40, 74
2, 315483, Note_on_c, 1, 40, 0
2, 315520, Note_on_c, 1, 40, 54
2, 315520, Note_on_c, 1, 45, 31
2, 315653, Note_on_c, 1, 45, 0
2, 315840, Note_on_c, 1, 46, 68
2, 315881, Note_on_c, 1, 40, 0
2, 316480, Note_on_c, 1, 40, 45
2, 316707, Note_on_c, 1, 40, 0
2, 316800, Note_on_c, 1, 45, 69
2, 316963, Note_on_c, 1, 46, 0
2, 317440, Note_on_c, 1, 52, 79
2, 317522, Note_on_c, 1, 45, 0
2, 318400, Note_on_c, 1, 37, 72
2, 318458, Note_on_c, 1, 52, 0
2, 318615, Note_on_c, 1, 37, 0
2, 318720, Note_on_c, 1, 38, 57
2, 319360, Note_on_c, 1, 36, 27
2, 319434, Note_on_c, 1, 36, 0
2, 319639, Note_on_c, 1, 38, 0
2, 319680, Note_on_c, 1, 50, 78
2, 320320, Note_on_c, 1, 38, 38
2, 320596, Note_on_c, 1, 38, 0
2, 320640, Note_on_c, 1, 45, 59
2, 321280, Note_on_c, 1, 38, 64
2, 321335, Note_on_c, 1, 45, 0
2, 321361, Note_on_c, 1, 50, 0
2, 321514, Note_on_c, 1, 38, 0
2, 321600, Note_on_c, 1, 39, 77
2, 322240, Note_on_c, 1, 37, 42
2, 322489, Note_on_c, 1, 39, 0
2, 322532, Note_on_c, 1, 37, 0
2, 322560, Note_on_c, 1, 40, 73
2, 323520, Note_on_c, 1, 34, 76
2, 323549, Note_on_c, 1, 40, 0
2, 324480, Note_on_c, 1, 33, 68
2, 324566, Note_on_c, 1, 34, 0
2, 325440, Note_on_c, 1, 37, 72
2, 325478, Note_on_c, 1, 33, 0
2, 326080, Note_on_c, 1, 34, 39
2, 326348, Note_on_c, 1, 34, 0
2, 326400, Note_on_c, 1, 38, 61
2, 326425, Note_on_c, 1, 37, 0
2, 327360, Note_on_c, 1, 40, 65
2, 327445, Note_on_c, 1, 38, 0
2, 328289, Note_on_c, 1, 40, 0
2, 328320, Note_on_c, 1, 41, 64
2, 329257, Note_on_c, 1, 41, 0
2, 329280, Note_on_c, 1, 33, 64
2, 330240, Note_on_c, 1, 34, 60
2, 330240, Note_on_c, 1, 50, 69
2, 330263, Note_on_c, 1, 33, 0
2, 331791, Note_on_c, 1, 34, 0
2, 331840, Note_on_c, 1, 33, 61
2, 331840, Note_on_c, 1, 49, 64
2, 331866, Note_on_c, 1, 50, 0
2, 333760, Note_on_c, 1, 37, 39
2, 333826, Note_on_c, 1, 49, 0
2, 334006, Note_on_c, 1, 33, 0
2, 334013, Note_on_c, 1, 37, 0
2, 334080, Note_on_c, 1, 38, 71
2, 336000, Note_on_c, 1, 41, 64
2, 336329, Note_on_c, 1, 38, 0
2, 337600, Note_on_c, 1, 37, 44
2, 337695, Note_on_c, 1, 41, 0
2, 337844, Note_on_c, 1, 37, 0
2, 337920, Note_on_c, 1, 40, 74
2, 339200, Note_on_c, 1, 46, 61
2, 339337, Note_on_c, 1, 40, 0
2, 339442, Note_on_c, 1, 46, 0
2, 339520, Note_on_c, 1, 44, 51
2, 339674, Note_on_c, 1, 44, 0
2, 339840, Note_on_c, 1, 45, 71
2, 340480, Note_on_c, 1, 40, 53
2, 340497, Note_on_c, 1, 45, 0
2, 340659, Note_on_c, 1, 40, 0
2, 340800, Note_on_c, 1, 39, 55
2, 341440, Note_on_c, 1, 37, 21
2, 341563, Note_on_c, 1, 37, 0
2, 341729, Note_on_c, 1, 39, 0
2, 341760, Note_on_c, 1, 38, 65
2, 342400, Note_on_c, 1, 37, 25
2, 342400, Note_on_c, 1, 52, 75
2, 342527, Note_on_c, 1, 37, 0
2, 342647, Note_on_c, 1, 38, 0
2, 342695, Note_on_c, 1, 52, 0
2, 342720, Note_on_c, 1, 50, 44
2, 343518, Note_on_c, 1, 50, 0
2, 343680, Note_on_c, 1, 45, 48
2, 344533, Note_on_c, 1, 45, 0
2, 344640, Note_on_c, 1, 40, 60
2, 345448, Note_on_c, 1, 40, 0
2, 345600, Note_on_c, 1, 46, 72
2, 346528, Note_on_c, 1, 46, 0
2, 346560, Note_on_c, 1, 39, 64
2, 347520, Note_on_c, 1, 40, 58
2, 347535, Note_on_c, 1, 39, 0
2, 348480, Note_on_c, 1, 33, 57
2, 348499, Note_on_c, 1, 40, 0
2, 349379, Note_on_c, 1, 33, 0
2, 349440, Note_on_c, 1, 38, 62
2, 350152, Note_on_c, 1, 38, 0
2, 350400, Note_on_c, 1, 40, 71
2, 350400, Note_on_c, 1, 38, 41
2, 350548, Note_on_c, 1, 38, 0
2, 351289, Note_on_c, 1, 40, 0
2, 351360, Note_on_c, 1, 41, 67
2, 352301, Note_on_c, 1, 41, 0
2, 352320, Note_on_c, 1, 38, 54
2, 353218, Note_on_c, 1, 38, 0
2, 353280, Note_on_c, 1, 40, 63
2, 354240, Note_on_c, 1, 34, 61
2, 354290, Note_on_c, 1, 40, 0
2, 355200, Note_on_c, 1, 33, 60
2, 355210, Note_on_c, 1, 34, 0
2, 356063, Note_on_c, 1, 33, 0
2, 356160, Note_on_c, 1, 37, 65
2, 357091, Note_on_c, 1, 37, 0
2, 357120, Note_on_c, 1, 38, 68
2, 358004, Note_on_c, 1, 38, 0
2, 358080, Note_on_c, 1, 38, 74
2, 359011, Note_on_c, 1, 38, 0
2, 359040, Note_on_c, 1, 40, 64
2, 359994, Note_on_c, 1, 40, 0
2, 360000, Note_on_c, 1, 41, 53
2, 360279, Note_on_c, 1, 41, 0
2, 360640, Note_on_c, 1, 44, 62
2, 360886, Note_on_c, 1, 44, 0
2, 360960, Note_on_c, 1, 45, 61
2, 361738, Note_on_c, 1, 45, 0
2, 361920, Note_on_c, 1, 39, 67
2, 362832, Note_on_c, 1, 39, 0
2, 362880, Note_on_c, 1, 38, 58
2, 363520, Note_on_c, 1, 34, 46
2, 363767, Note_on_c, 1, 34, 0
2, 363840, Note_on_c, 1, 50, 55
2, 363840, Note_on_c, 1, 49, 34
2, 363907, Note_on_c, 1, 49, 0
2, 363967, Note_on_c, 1, 38, 0
2, 364480, Note_on_c, 1, 38, 46
2, 364677, Note_on_c, 1, 50, 0
2, 364689, Note_on_c, 1, 38, 0
2, 364800, Note_on_c, 1, 46, 55
2, 365760, Note_on_c, 1, 45, 67
2, 365862, Note_on_c, 1, 46, 0
2, 366080, Note_on_c, 1, 46, 27
2, 366172, Note_on_c, 1, 46, 0
2, 366400, Note_on_c, 1, 38, 42
2, 366577, Note_on_c, 1, 38, 0
2, 366588, Note_on_c, 1, 45, 0
2, 366720, Note_on_c, 1, 43, 51
2, 367657, Note_on_c, 1, 43, 0
2, 367680, Note_on_c, 1, 38, 58
2, 368640, Note_on_c, 1, 31, 65
2, 368678, Note_on_c, 1, 38, 0
2, 369600, Note_on_c, 1, 38, 62
2, 370155, Note_on_c, 1, 31, 0
2, 370240, Note_on_c, 1, 43, 64
2, 370506, Note_on_c, 1, 38, 0
2, 370551, Note_on_c, 1, 43, 0
2, 370560, Note_on_c, 1, 46, 71
2, 371520, Note_on_c, 1, 34, 64
2, 371589, Note_on_c, 1, 46, 0
2, 372430, Note_on_c, 1, 34, 0
2, 372480, Note_on_c, 1, 35, 49
2, 373120, Note_on_c, 1, 34, 52
2, 373346, Note_on_c, 1, 35, 0
2, 373408, Note_on_c, 1, 34, 0
2, 373440, Note_on_c, 1, 47, 64
2, 374375, Note_on_c, 1, 47, 0
2, 374400, Note_on_c, 1, 40, 53
2, 375360, Note_on_c, 1, 28, 76
2, 375525, Note_on_c, 1, 40, 0
2, 376166, Note_on_c, 1, 28, 0
2, 376320, Note_on_c, 1, 31, 62
2, 377196, Note_on_c, 1, 31, 0
2, 377280, Note_on_c, 1, 31, 77
2, 378221, Note_on_c, 1, 31, 0
2, 378240, Note_on_c, 1, 36, 65
2, 379171, Note_on_c, 1, 36, 0
2, 379200, Note_on_c, 1, 40, 66
2, 380139, Note_on_c, 1, 40, 0
2, 380160, Note_on_c, 1, 41, 74
2, 381018, Note_on_c, 1, 41, 0
2, 381120, Note_on_c, 1, 41, 80
2, 382080, Note_on_c, 1, 36, 64
2, 382112, Note_on_c, 1, 41, 0
2, 383040, Note_on_c, 1, 39, 83
2, 383071, Note_on_c, 1, 36, 0
2, 383887, Note_on_c, 1, 39, 0
2, 384000, Note_on_c, 1, 40, 78
2, 384956, Note_on_c, 1, 40, 0
2, 384960, Note_on_c, 1, 34, 77
2, 385801, Note_on_c, 1, 34, 0
2, 385920, Note_on_c, 1, 33, 65
2, 386499, Note_on_c, 1, 33, 0
2, 386560, Note_on_c, 1, 36, 54
2, 386729, Note_on_c, 1, 36, 0
2, 386880, Note_on_c, 1, 37, 75
2, 387520, Note_on_c, 1, 34, 28
2, 387691, Note_on_c, 1, 34, 0
2, 387794, Note_on_c, 1, 37, 0
2, 387840, Note_on_c, 1, 38, 66
2, 388480, Note_on_c, 1, 37, 55
2, 388621, Note_on_c, 1, 38, 0
2, 388776, Note_on_c, 1, 37, 0
2, 388800, Note_on_c, 1, 40, 65
2, 389440, Note_on_c, 1, 37, 33
2, 389668, Note_on_c, 1, 40, 0
2, 389760, Note_on_c, 1, 42, 57
2, 390162, Note_on_c, 1, 37, 0
2, 390557, Note_on_c, 1, 42, 0
2, 390720, Note_on_c, 1, 42, 28
2, 390720, Note_on_c, 1, 45, 72
2, 390838, Note_on_c, 1, 42, 0
2, 391360, Note_on_c, 1, 42, 48
2, 391547, Note_on_c, 1, 45, 0
2, 391675, Note_on_c, 1, 42, 0
2, 391680, Note_on_c, 1, 52, 71
2, 392320, Note_on_c, 1, 42, 29
2, 392513, Note_on_c, 1, 52, 0
2, 392629, Note_on_c, 1, 42, 0
2, 392640, Note_on_c, 1, 49, 62
2, 393280, Note_on_c, 1, 42, 42
2, 393514, Note_on_c, 1, 42, 0
2, 393567, Note_on_c, 1, 49, 0
2, 393600, Note_on_c, 1, 45, 67
2, 394240, Note_on_c, 1, 37, 51
2, 394443, Note_on_c, 1, 37, 0
2, 394500, Note_on_c, 1, 45, 0
2, 394560, Note_on_c, 1, 39, 69
2, 395200, Note_on_c, 1, 37, 43
2, 395401, Note_on_c, 1, 39, 0
2, 395421, Note_on_c, 1, 37, 0
2, 395520, Note_on_c, 1, 38, 66
2, 396160, Note_on_c, 1, 37, 53
2, 396326, Note_on_c, 1, 38, 0
2, 396480, Note_on_c, 1, 45, 87
2, 396504, Note_on_c, 1, 37, 0
2, 397120, Note_on_c, 1, 38, 55
2, 397281, Note_on_c, 1, 38, 0
2, 397309, Note_on_c, 1, 45, 0
2, 397440, Note_on_c, 1, 41, 60
2, 398400, Note_on_c, 1, 32, 56
2, 398448, Note_on_c, 1, 41, 0
2, 399279, Note_on_c, 1, 32, 0
2, 399360, Note_on_c, 1, 31, 58
2, 400308, Note_on_c, 1, 31, 0
2, 400320, Note_on_c, 1, 34, 62
2, 401280, Note_on_c, 1, 33, 65
2, 401311, Note_on_c, 1, 34, 0
2, 402236, Note_on_c, 1, 33, 0
2, 402240, Note_on_c, 1, 37, 71
2, 402880, Note_on_c, 1, 33, 38
2, 403006, Note_on_c, 1, 37, 0
2, 403086, Note_on_c, 1, 33, 0
2, 403200, Note_on_c, 1, 38, 70
2, 404160, Note_on_c, 1, 45, 70
2, 404456, Note_on_c, 1, 38, 0
2, 404800, Note_on_c, 1, 39, 37
2, 404800, Note_on_c, 1, 37, 34
2, 404920, Note_on_c, 1, 45, 0
2, 405050, Note_on_c, 1, 39, 0
2, 405120, Note_on_c, 1, 41, 75
2, 405129, Note_on_c, 1, 37, 0
2, 406059, Note_on_c, 1, 41, 0
2, 406080, Note_on_c, 1, 38, 64
2, 407040, Note_on_c, 1, 40, 73
2, 407045, Note_on_c, 1, 38, 0
2, 408000, Note_on_c, 1, 39, 80
2, 408007, Note_on_c, 1, 40, 0
2, 408920, Note_on_c, 1, 39, 0
2, 408960, Note_on_c, 1, 40, 64
2, 409855, Note_on_c, 1, 40, 0
2, 409920, Note_on_c, 1, 33, 66
2, 410880, Note_on_c, 1, 38, 67
2, 410903, Note_on_c, 1, 33, 0
2, 411721, Note_on_c, 1, 38, 0
2, 411840, Note_on_c, 1, 38, 72
2, 412800, Note_on_c, 1, 40, 54
2, 412821, Note_on_c, 1, 38, 0
2, 413718, Note_on_c, 1, 40, 0
2, 413760, Note_on_c, 1, 41, 55
2, 413883, Note_on_c, 1, 41, 0
2, 414400, Note_on_c, 1, 44, 64
2, 414630, Note_on_c, 1, 44, 0
2, 414720, Note_on_c, 1, 45, 68
2, 415216, Note_on_c, 1, 45, 0
2, 415360, Note_on_c, 1, 33, 53
2, 415600, Note_on_c, 1, 33, 0
2, 415680, Note_on_c, 1, 39, 65
2, 416320, Note_on_c, 1, 37, 55
2, 416342, Note_on_c, 1, 39, 0
2, 416569, Note_on_c, 1, 37, 0
2, 416640, Note_on_c, 1, 38, 65
2, 417280, Note_on_c, 1, 39, 53
2, 417454, Note_on_c, 1, 38, 0
2, 417495, Note_on_c, 1, 39, 0
2, 417600, Note_on_c, 1, 42, 67
2, 418240, Note_on_c, 1, 39, 38
2, 418465, Note_on_c, 1, 39, 0
2, 418522, Note_on_c, 1, 42, 0
2, 418560, Note_on_c, 1, 43, 60
2, 419200, Note_on_c, 1, 38, 61
2, 419276, Note_on_c, 1, 43, 0
2, 419367, Note_on_c, 1, 38, 0
2, 419520, Note_on_c, 1, 34, 70
2, 420480, Note_on_c, 1, 33, 67
2, 420649, Note_on_c, 1, 34, 0
2, 421413, Note_on_c, 1, 33, 0
2, 421440, Note_on_c, 1, 32, 69
2, 422317, Note_on_c, 1, 32, 0
2, 422400, Note_on_c, 1, 31, 62
2, 423360, Note_on_c, 1, 38, 71
2, 423439, Note_on_c, 1, 31, 0
2, 424320, Note_on_c, 1, 43, 76
2, 424332, Note_on_c, 1, 38, 0
2, 425241, Note_on_c, 1, 43, 0
2, 425280, Note_on_c, 1, 34, 77
2, 426145, Note_on_c, 1, 34, 0
2, 426240, Note_on_c, 1, 35, 64
2, 426880, Note_on_c, 1, 34, 59
2, 427137, Note_on_c, 1, 35, 0
2, 427200, Note_on_c, 1, 34, 0
2, 427200, Note_on_c, 1, 52, 71
2, 427840, Note_on_c, 1, 34, 35
2, 428050, Note_on_c, 1, 34, 0
2, 428160, Note_on_c, 1, 40, 70
2, 428177, Note_on_c, 1, 52, 0
2, 429118, Note_on_c, 1, 40, 0
2, 429120, Note_on_c, 1, 35, 57
2, 429976, Note_on_c, 1, 35, 0
2, 430080, Note_on_c, 1, 31, 64
2, 430942, Note_on_c, 1, 31, 0
2, 431040, Note_on_c, 1, 35, 71
2, 431979, Note_on_c, 1, 35, 0
2, 432000, Note_on_c, 1, 36, 73
2, 432929, Note_on_c, 1, 36, 0
2, 432960, Note_on_c, 1, 30, 68
2, 433841, Note_on_c, 1, 30, 0
2, 433920, Note_on_c, 1, 29, 62
2, 434880, Note_on_c, 1, 36, 64
2, 435053, Note_on_c, 1, 29, 0
2, 435823, Note_on_c, 1, 36, 0
2, 435840, Note_on_c, 1, 41, 71
2, 436800, Note_on_c, 1, 39, 76
2, 436879, Note_on_c, 1, 41, 0
2, 437732, Note_on_c, 1, 39, 0
2, 437760, Note_on_c, 1, 40, 71
2, 438720, Note_on_c, 1, 34, 71
2, 438795, Note_on_c, 1, 40, 0
2, 439578, Note_on_c, 1, 34, 0
2, 439680, Note_on_c, 1, 33, 63
2, 440320, Note_on_c, 1, 37, 56
2, 440389, Note_on_c, 1, 37, 0
2, 440506, Note_on_c, 1, 33, 0
2, 440640, Note_on_c, 1, 37, 78
2, 441510, Note_on_c, 1, 37, 0
2, 441600, Note_on_c, 1, 38, 73
2, 442240, Note_on_c, 1, 37, 45
2, 442390, Note_on_c, 1, 37, 0
2, 442560, Note_on_c, 1, 52, 69
2, 443200, Note_on_c, 1, 37, 36
2, 443430, Note_on_c, 1, 52, 0
2, 443520, Note_on_c, 1, 54, 69
2, 443689, Note_on_c, 1, 38, 0
2, 443952, Note_on_c, 1, 37, 0
2, 444160, Note_on_c, 1, 38, 46
2, 444387, Note_on_c, 1, 38, 0
2, 444480, Note_on_c, 1, 50, 60
2, 444860, Note_on_c, 1, 54, 0
2, 445120, Note_on_c, 1, 45, 84
2, 446239, Note_on_c, 1, 50, 0
2, 446383, Note_on_c, 1, 45, 0
2, 446400, Note_on_c, 1, 38, 69
2, 447360, Note_on_c, 1, 45, 78
2, 447431, Note_on_c, 1, 38, 0
2, 448180, Note_on_c, 1, 45, 0
2, 448320, Note_on_c, 1, 34, 67
2, 449253, Note_on_c, 1, 34, 0
2, 449280, Note_on_c, 1, 33, 64
2, 450240, Note_on_c, 1, 39, 80
2, 450297, Note_on_c, 1, 33, 0
2, 451098, Note_on_c, 1, 39, 0
2, 451200, Note_on_c, 1, 33, 60
2, 452160, Note_on_c, 1, 37, 70
2, 452256, Note_on_c, 1, 33, 0
2, 452800, Note_on_c, 1, 34, 30
2, 453088, Note_on_c, 1, 34, 0
2, 453102, Note_on_c, 1, 37, 0
2, 453120, Note_on_c, 1, 38, 66
2, 453760, Note_on_c, 1, 37, 27
2, 453900, Note_on_c, 1, 38, 0
2, 453936, Note_on_c, 1, 37, 0
2, 454080, Note_on_c, 1, 40, 70
2, 454994, Note_on_c, 1, 40, 0
2, 455040, Note_on_c, 1, 41, 58
2, 455680, Note_on_c, 1, 39, 44
2, 455948, Note_on_c, 1, 41, 0
2, 455974, Note_on_c, 1, 39, 0
2, 456000, Note_on_c, 1, 42, 59
2, 456640, Note_on_c, 1, 39, 37
2, 456808, Note_on_c, 1, 42, 0
2, 456959, Note_on_c, 1, 39, 0
2, 456960, Note_on_c, 1, 43, 62
2, 457600, Note_on_c, 1, 42, 40
2, 457903, Note_on_c, 1, 43, 0
2, 457920, Note_on_c, 1, 51, 71
2, 457929, Note_on_c, 1, 42, 0
2, 458560, Note_on_c, 1, 42, 33
2, 458810, Note_on_c, 1, 42, 0
2, 458821, Note_on_c, 1, 51, 0
2, 458880, Note_on_c, 1, 50, 62
2, 459520, Note_on_c, 1, 42, 35
2, 459612, Note_on_c, 1, 42, 0
2, 459709, Note_on_c, 1, 50, 0
2, 459840, Note_on_c, 1, 48, 71
2, 460480, Note_on_c, 1, 42, 38
2, 460621, Note_on_c, 1, 42, 0
2, 460703, Note_on_c, 1, 48, 0
2, 460800, Note_on_c, 1, 46, 55
2, 461440, Note_on_c, 1, 42, 33
2, 461511, Note_on_c, 1, 42, 0
2, 461760, Note_on_c, 1, 45, 72
2, 461859, Note_on_c, 1, 46, 0
2, 462400, Note_on_c, 1, 39, 45
2, 462573, Note_on_c, 1, 39, 0
2, 462632, Note_on_c, 1, 45, 0
2, 462720, Note_on_c, 1, 43, 59
2, 463680, Note_on_c, 1, 32, 71
2, 463782, Note_on_c, 1, 43, 0
2, 464625, Note_on_c, 1, 32, 0
2, 464640, Note_on_c, 1, 31, 65
2, 465185, Note_on_c, 1, 31, 0
2, 465280, Note_on_c, 1, 31, 65
2, 465600, Note_on_c, 1, 32, 76
2, 465768, Note_on_c, 1, 31, 0
2, 466509, Note_on_c, 1, 32, 0
2, 466560, Note_on_c, 1, 34, 65
2, 467492, Note_on_c, 1, 34, 0
2, 467520, Note_on_c, 1, 35, 67
2, 468160, Note_on_c, 1, 34, 43
2, 468418, Note_on_c, 1, 35, 0
2, 468448, Note_on_c, 1, 34, 0
2, 468480, Note_on_c, 1, 36, 63
2, 469120, Note_on_c, 1, 34, 45
2, 469286, Note_on_c, 1, 36, 0
2, 469440, Note_on_c, 1, 38, 71
2, 469458, Note_on_c, 1, 34, 0
2, 470400, Note_on_c, 1, 40, 61
2, 470406, Note_on_c, 1, 38, 0
2, 471360, Note_on_c, 1, 36, 65
2, 471367, Note_on_c, 1, 40, 0
2, 472000, Note_on_c, 1, 40, 33
2, 472225, Note_on_c, 1, 40, 0
2, 472266, Note_on_c, 1, 36, 0
2, 472320, Note_on_c, 1, 41, 60
2, 472960, Note_on_c, 1, 39, 46
2, 473131, Note_on_c, 1, 41, 0
2, 473280, Note_on_c, 1, 43, 57
2, 473323, Note_on_c, 1, 39, 0
2, 474240, Note_on_c, 1, 45, 67
2, 474315, Note_on_c, 1, 43, 0
2, 475114, Note_on_c, 1, 45, 0
2, 475200, Note_on_c, 1, 41, 51
2, 476144, Note_on_c, 1, 41, 0
2, 476160, Note_on_c, 1, 46, 73
2, 476800, Note_on_c, 1, 42, 38
2, 476942, Note_on_c, 1, 42, 0
2, 476997, Note_on_c, 1, 46, 0
2, 477120, Note_on_c, 1, 46, 74
2, 478006, Note_on_c, 1, 46, 0
2, 478080, Note_on_c, 1, 45, 70
2, 479040, Note_on_c, 1, 39, 74
2, 479080, Note_on_c, 1, 45, 0
2, 479932, Note_on_c, 1, 39, 0
2, 480000, Note_on_c, 1, 38, 61
2, 480960, Note_on_c, 1, 33, 64
2, 481071, Note_on_c, 1, 38, 0
2, 481920, Note_on_c, 1, 29, 57
2, 482016, Note_on_c, 1, 33, 0
2, 482872, Note_on_c, 1, 29, 0
2, 482880, Note_on_c, 1, 32, 70
2, 483840, Note_on_c, 1, 32, 0
2, 483840, Note_on_c, 1, 28, 62
2, 484775, Note_on_c, 1, 28, 0
2, 484800, Note_on_c, 1, 32, 70
2, 485760, Note_on_c, 1, 33, 66
2, 485760, Note_on_c, 1, 30, 25
2, 485798, Note_on_c, 1, 32, 0
2, 485931, Note_on_c, 1, 30, 0
2, 486720, Note_on_c, 1, 37, 71
2, 486832, Note_on_c, 1, 33, 0
2, 487360, Note_on_c, 1, 34, 25
2, 487583, Note_on_c, 1, 34, 0
2, 487649, Note_on_c, 1, 37, 0
2, 487680, Note_on_c, 1, 38, 69
2, 488640, Note_on_c, 1, 33, 61
2, 488654, Note_on_c, 1, 38, 0
2, 489600, Note_on_c, 1, 29, 57
2, 489638, Note_on_c, 1, 33, 0
2, 490478, Note_on_c, 1, 29, 0
2, 490560, Note_on_c, 1, 29, 69
2, 491501, Note_on_c, 1, 29, 0
2, 491520, Note_on_c, 1, 28, 66
2, 492480, Note_on_c, 1, 34, 79
2, 492649, Note_on_c, 1, 28, 0
2, 493404, Note_on_c, 1, 34, 0
2, 493440, Note_on_c, 1, 33, 62
2, 494367, Note_on_c, 1, 33, 0
2, 494400, Note_on_c, 1, 39, 84
2, 495243, Note_on_c, 1, 39, 0
2, 495360, Note_on_c, 1, 38, 69
2, 495360, Note_on_c, 1, 33, 40
2, 495590, Note_on_c, 1, 33, 0
2, 496000, Note_on_c, 1, 34, 36
2, 496249, Note_on_c, 1, 34, 0
2, 496316, Note_on_c, 1, 38, 0
2, 496320, Note_on_c, 1, 45, 78
2, 497280, Note_on_c, 1, 41, 62
2, 498181, Note_on_c, 1, 45, 0
2, 498190, Note_on_c, 1, 41, 0
2, 498240, Note_on_c, 1, 38, 68
2, 499165, Note_on_c, 1, 38, 0
2, 499200, Note_on_c, 1, 34, 52
2, 499200, Note_on_c, 1, 50, 66
2, 500727, Note_on_c, 1, 34, 0
2, 500800, Note_on_c, 1, 49, 64
2, 500800, Note_on_c, 1, 33, 58
2, 500818, Note_on_c, 1, 50, 0
2, 502720, Note_on_c, 1, 34, 34
2, 502918, Note_on_c, 1, 34, 0
2, 503040, Note_on_c, 1, 38, 76
2, 503040, Note_on_c, 1, 37, 32
2, 503052, Note_on_c, 1, 33, 0
2, 503075, Note_on_c, 1, 49, 0
2, 503106, Note_on_c, 1, 37, 0
2, 510091, Note_on_c, 1, 38, 0
2, 510091, End_track
3, 0, Start_track
3, 0, Title_t, "MIDI 2"
3, 0, Program_c, 0, 0
3, 0, Control_c, 0, 7, 100
3, 3539, Note_on_c, 0, 74, 68
3, 3713, Note_on_c, 0, 74, 0
3, 3817, Note_on_c, 0, 50, 61
3, 3823, Note_on_c, 0, 77, 73
3, 4717, Note_on_c, 0, 77, 0
3, 4816, Note_on_c, 0, 69, 56
3, 4837, Note_on_c, 0, 65, 46
3, 4840, Note_on_c, 0, 62, 44
3, 4862, Note_on_c, 0, 57, 30
3, 4905, Note_on_c, 0, 65, 0
3, 4951, Note_on_c, 0, 69, 0
3, 4965, Note_on_c, 0, 57, 0
3, 4967, Note_on_c, 0, 62, 0
3, 4983, Note_on_c, 0, 50, 0
3, 5826, Control_c, 0, 64, 127
3, 7445, Note_on_c, 0, 74, 54
3, 7458, Note_on_c, 0, 86, 53
3, 7461, Note_on_c, 0, 81, 49
3, 7508, Note_on_c, 0, 74, 0
3, 7539, Note_on_c, 0, 81, 0
3, 7545, Note_on_c, 0, 86, 0
3, 7667, Control_c, 0, 64, 0
3, 7728, Note_on_c, 0, 76, 75
3, 7730, Note_on_c, 0, 88, 79
3, 7731, Note_on_c, 0, 62, 82
3, 7734, Note_on_c, 0, 83, 73
3, 7744, Note_on_c, 0, 52, 63
3, 7759, Note_on_c, 0, 77, 64
3, 7770, Note_on_c, 0, 85, 37
3, 7815, Note_on_c, 0, 77, 0
3, 7828, Note_on_c, 0, 85, 0
3, 8008, Control_c, 0, 64, 127
3, 8189, Note_on_c, 0, 52, 0
3, 8224, Note_on_c, 0, 88, 0
3, 8250, Control_c, 0, 64, 0
3, 8262, Note_on_c, 0, 76, 0
3, 8270, Note_on_c, 0, 62, 0
3, 8278, Note_on_c, 0, 83, 0
3, 8376, Note_on_c, 0, 88, 53
3, 8378, Note_on_c, 0, 76, 58
3, 8381, Note_on_c, 0, 62, 67
3, 8384, Note_on_c, 0, 58, 56
3, 8386, Note_on_c, 0, 83, 68
3, 8398, Note_on_c, 0, 52, 53
3, 8509, Note_on_c, 0, 76, 0
3, 8522, Note_on_c, 0, 62, 0
3, 8523, Note_on_c, 0, 52, 0
3, 8540, Note_on_c, 0, 88, 0
3, 8546, Note_on_c, 0, 83, 0
3, 8558, Note_on_c, 0, 58, 0
3, 8679, Note_on_c, 0, 86, 40
3, 8688, Note_on_c, 0, 52, 29
3, 8695, Note_on_c, 0, 74, 34
3, 8706, Note_on_c, 0, 62, 42
3, 8711, Note_on_c, 0, 58, 35
3, 8714, Note_on_c, 0, 81, 33
3, 9103, Note_on_c, 0, 52, 0
3, 9134, Note_on_c, 0, 74, 0
3, 9162, Note_on_c, 0, 81, 0
3, 9186, Note_on_c, 0, 86, 0
3, 9210, Note_on_c, 0, 62, 0
3, 9217, Note_on_c, 0, 58, 0
3, 9310, Note_on_c, 0, 76, 56
3, 9317, Note_on_c, 0, 88, 57
3, 9326, Note_on_c, 0, 83, 60
3, 9351, Note_on_c, 0, 64, 73
3, 9366, Note_on_c, 0, 61, 54
3, 9380, Note_on_c, 0, 55, 50
3, 9384, Note_on_c, 0, 76, 0
3, 9386, Note_on_c, 0, 83, 0
3, 9401, Note_on_c, 0, 88, 0
3, 9405, Note_on_c, 0, 64, 0
3, 9436, Note_on_c, 0, 61, 0
3, 9445, Note_on_c, 0, 55, 0
3, 10528, Control_c, 0, 64, 127
3, 12216, Note_on_c, 0, 62, 68
3, 12221, Note_on_c, 0, 50, 72
3, 12231, Note_on_c, 0, 53, 67
3, 12245, Note_on_c, 0, 57, 67
3, 12422, Note_on_c, 0, 62, 0
3, 12469, Note_on_c, 0, 50, 0
3, 12478, Note_on_c, 0, 57, 0
3, 12489, Note_on_c, 0, 53, 0
3, 12572, Control_c, 0, 64, 0
3, 12626, Note_on_c, 0, 58, 79
3, 12632, Note_on_c, 0, 55, 78
3, 12640, Note_on_c, 0, 61, 70
3, 12642, Note_on_c, 0, 52, 69
3, 12643, Note_on_c, 0, 64, 70
3, 12892, Control_c, 0, 64, 127
3, 13062, Note_on_c, 0, 55, 0
3, 13086, Note_on_c, 0, 58, 0
3, 13096, Note_on_c, 0, 64, 0
3, 13150, Note_on_c, 0, 52, 0
3, 13174, Note_on_c, 0, 61, 0
3, 13260, Note_on_c, 0, 65, 73
3, 13265, Note_on_c, 0, 60, 75
3, 13266, Note_on_c, 0, 57, 79
3, 13279, Note_on_c, 0, 62, 75
3, 13282, Note_on_c, 0, 53, 78
3, 13293, Control_c, 0, 64, 0
3, 13598, Control_c, 0, 64, 127
3, 14208, Note_on_c, 0, 65, 0
3, 14278, Note_on_c, 0, 57, 0
3, 14301, Note_on_c, 0, 62, 0
3, 14335, Note_on_c, 0, 60, 0
3, 14413, Control_c, 0, 64, 0
3, 14463, Note_on_c, 0, 60, 57
3, 14465, Note_on_c, 0, 55, 57
3, 14479, Note_on_c, 0, 67, 51
3, 14481, Note_on_c, 0, 53, 0
3, 14498, Note_on_c, 0, 62, 34
3, 14500, Note_on_c, 0, 57, 38
3, 14575, Note_on_c, 0, 62, 0
3, 14630, Note_on_c, 0, 60, 0
3, 14679, Note_on_c, 0, 67, 0
3, 14702, Control_c, 0, 64, 127
3, 14754, Note_on_c, 0, 57, 0
3, 15018, Note_on_c, 0, 54, 29
3, 15071, Control_c, 0, 64, 0
3, 15102, Note_on_c, 0, 54, 0
3, 15108, Note_on_c, 0, 69, 59
3, 15111, Note_on_c, 0, 58, 48
3, 15118, Note_on_c, 0, 62, 54
3, 15138, Note_on_c, 0, 57, 44
3, 15144, Note_on_c, 0, 64, 50
3, 15221, Note_on_c, 0, 55, 0
3, 16386, Control_c, 0, 64, 127
3, 16727, Note_on_c, 0, 62, 0
3, 16734, Note_on_c, 0, 58, 0
3, 16735, Note_on_c, 0, 64, 0
3, 16810, Note_on_c, 0, 69, 0
3, 17038, Note_on_c, 0, 57, 0
3, 17070, Note_on_c, 0, 52, 40
3, 17142, Control_c, 0, 64, 0
3, 17250, Note_on_c, 0, 52, 0
3, 17264, Note_on_c, 0, 70, 81
3, 17270, Note_on_c, 0, 61, 88
3, 17274, Note_on_c, 0, 66, 82
3, 17276, Note_on_c, 0, 55, 72
3, 17666, Note_on_c, 0, 70, 0
3, 17784, Note_on_c, 0, 61, 0
3, 17866, Note_on_c, 0, 66, 0
3, 17909, Control_c, 0, 64, 127
3, 17942, Note_on_c, 0, 55, 0
3, 18002, Note_on_c, 0, 49, 31
3, 18007, Control_c, 0, 64, 0
3, 18143, Note_on_c, 0, 49, 0
3, 18234, Note_on_c, 0, 61, 46
3, 18247, Note_on_c, 0, 58, 37
3, 18265, Note_on_c, 0, 64, 58
3, 18373, Note_on_c, 0, 49, 32
3, 18653, Note_on_c, 0, 64, 0
3, 18703, Note_on_c, 0, 58, 0
3, 18710, Note_on_c, 0, 61, 0
3, 18895, Note_on_c, 0, 58, 58
3, 18897, Note_on_c, 0, 52, 48
3, 18910, Note_on_c, 0, 61, 48
3, 18914, Note_on_c, 0, 67, 34
3, 18954, Control_c, 0, 64, 127
3, 19003, Note_on_c, 0, 67, 0
3, 19034, Control_c, 0, 64, 0
3, 19052, Note_on_c, 0, 49, 0
3, 19116, Note_on_c, 0, 58, 0
3, 19127, Note_on_c, 0, 61, 0
3, 19187, Note_on_c, 0, 52, 0
3, 19264, Note_on_c, 0, 50, 50
3, 19279, Note_on_c, 0, 57, 47
3, 19294, Note_on_c, 0, 65, 41
3, 19306, Note_on_c, 0, 60, 42
3, 19327, Note_on_c, 0, 62, 49
3, 19503, Note_on_c, 0, 57, 0
3, 19520, Note_on_c, 0, 65, 0
3, 19547, Note_on_c, 0, 62, 0
3, 19649, Note_on_c, 0, 50, 0
3, 19677, Note_on_c, 0, 60, 0
3, 20221, Control_c, 0, 64, 127
3, 20733, Control_c, 0, 64, 0
3, 20794, Note_on_c, 0, 74, 79
3, 20802, Note_on_c, 0, 65, 80
3, 20807, Note_on_c, 0, 64, 72
3, 20809, Note_on_c, 0, 69, 73
3, 21022, Control_c, 0, 64, 127
3, 21061, Note_on_c, 0, 74, 0
3, 21084, Note_on_c, 0, 69, 0
3, 21088, Note_on_c, 0, 65, 0
3, 21197, Control_c, 0, 64, 0
3, 21253, Note_on_c, 0, 64, 0
3, 21321, Note_on_c, 0, 70, 71
3, 21328, Note_on_c, 0, 76, 65
3, 21335, Note_on_c, 0, 65, 69
3, 21340, Note_on_c, 0, 73, 46
3, 21344, Note_on_c, 0, 62, 62
3, 21503, Control_c, 0, 64, 127
3, 21688, Note_on_c, 0, 76, 0
3, 21709, Note_on_c, 0, 65, 0
3, 21744, Note_on_c, 0, 70, 0
3, 21748, Note_on_c, 0, 73, 0
3, 21887, Control_c, 0, 64, 0
3, 21925, Note_on_c, 0, 62, 0
3, 21991, Note_on_c, 0, 61, 57
3, 22010, Note_on_c, 0, 77, 74
3, 22018, Note_on_c, 0, 65, 72
3, 22143, Control_c, 0, 64, 127
3, 22234, Note_on_c, 0, 65, 0
3, 22273, Note_on_c, 0, 77, 0
3, 22295, Note_on_c, 0, 61, 0
3, 22753, Control_c, 0, 64, 0
3, 22759, Note_on_c, 0, 81, 71
3, 22763, Note_on_c, 0, 77, 56
3, 22766, Note_on_c, 0, 69, 71
3, 22770, Note_on_c, 0, 65, 57
3, 22774, Note_on_c, 0, 55, 57
3, 22787, Note_on_c, 0, 61, 46
3, 22802, Note_on_c, 0, 80, 40
3, 22996, Note_on_c, 0, 80, 0
3, 23250, Control_c, 0, 64, 127
3, 23663, Note_on_c, 0, 65, 0
3, 23679, Note_on_c, 0, 55, 0
3, 23797, Control_c, 0, 64, 0
3, 23859, Note_on_c, 0, 61, 0
3, 23958, Note_on_c, 0, 65, 42
3, 23959, Note_on_c, 0, 61, 15
3, 23961, Note_on_c, 0, 55, 47
3, 24101, Control_c, 0, 64, 127
3, 24421, Note_on_c, 0, 55, 0
3, 24538, Note_on_c, 0, 65, 0
3, 24677, Control_c, 0, 64, 0
3, 24694, Note_on_c, 0, 61, 0
3, 24712, Note_on_c, 0, 60, 63
3, 24716, Note_on_c, 0, 54, 60
3, 24719, Note_on_c, 0, 64, 61
3, 24730, Note_on_c, 0, 69, 0
3, 24757, Note_on_c, 0, 77, 0
3, 24799, Note_on_c, 0, 81, 0
3, 25972, Note_on_c, 0, 84, 95
3, 26137, Note_on_c, 0, 60, 0
3, 26279, Note_on_c, 0, 64, 0
3, 26290, Note_on_c, 0, 81, 55
3, 26306, Note_on_c, 0, 84, 0
3, 26495, Note_on_c, 0, 81, 0
3, 26550, Note_on_c, 0, 54, 0
3, 26599, Note_on_c, 0, 82, 77
3, 26671, Note_on_c, 0, 58, 53
3, 26677, Note_on_c, 0, 62, 47
3, 26692, Note_on_c, 0, 53, 31
3, 26697, Note_on_c, 0, 57, 50
3, 26908, Note_on_c, 0, 82, 0
3, 26917, Note_on_c, 0, 78, 42
3, 27127, Note_on_c, 0, 78, 0
3, 27214, Note_on_c, 0, 81, 55
3, 27482, Note_on_c, 0, 78, 29
3, 27501, Note_on_c, 0, 81, 0
3, 27692, Note_on_c, 0, 78, 0
3, 27820, Note_on_c, 0, 79, 51
3, 27954, Note_on_c, 0, 79, 0
3, 28484, Note_on_c, 0, 67, 84
3, 28687, Note_on_c, 0, 67, 0
3, 28940, Note_on_c, 0, 62, 0
3, 28945, Note_on_c, 0, 74, 81
3, 28946, Note_on_c, 0, 69, 91
3, 28976, Note_on_c, 0, 57, 0
3, 29103, Note_on_c, 0, 58, 0
3, 29161, Note_on_c, 0, 53, 0
3, 29371, Note_on_c, 0, 74, 0
3, 29396, Note_on_c, 0, 69, 0
3, 29468, Note_on_c, 0, 74, 76
3, 29479, Note_on_c, 0, 70, 79
3, 29701, Note_on_c, 0, 74, 0
3, 29739, Note_on_c, 0, 70, 0
3, 30514, Note_on_c, 0, 58, 52
3, 30517, Note_on_c, 0, 57, 51
3, 30583, Note_on_c, 0, 57, 0
3, 30644, Note_on_c, 0, 58, 0
3, 30764, Note_on_c, 0, 85, 82
3, 30770, Note_on_c, 0, 73, 86
3, 30793, Note_on_c, 0, 82, 57
3, 30993, Note_on_c, 0, 73, 0
3, 31002, Note_on_c, 0, 85, 0
3, 31022, Note_on_c, 0, 74, 56
3, 31140, Note_on_c, 0, 82, 0
3, 31238, Note_on_c, 0, 74, 0
3, 31288, Note_on_c, 0, 86, 33
3, 31374, Note_on_c, 0, 74, 48
3, 31376, Note_on_c, 0, 86, 0
3, 31551, Note_on_c, 0, 74, 0
3, 31578, Note_on_c, 0, 86, 48
3, 31675, Note_on_c, 0, 74, 36
3, 31732, Note_on_c, 0, 86, 0
3, 31893, Note_on_c, 0, 74, 0
3, 31918, Note_on_c, 0, 86, 47
3, 32073, Note_on_c, 0, 74, 22
3, 32092, Note_on_c, 0, 86, 0
3, 32242, Note_on_c, 0, 74, 0
3, 32644, Note_on_c, 0, 62, 48
3, 32656, Note_on_c, 0, 57, 32
3, 32658, Note_on_c, 0, 58, 35
3, 32722, Note_on_c, 0, 62, 0
3, 32730, Note_on_c, 0, 57, 0
3, 32754, Note_on_c, 0, 58, 0
3, 34330, Note_on_c, 0, 86, 80
3, 34332, Note_on_c, 0, 65, 74
3, 34344, Note_on_c, 0, 74, 74
3, 34346, Note_on_c, 0, 57, 68
3, 34352, Note_on_c, 0, 62, 55
3, 34458, Note_on_c, 0, 65, 0
3, 34460, Note_on_c, 0, 62, 0
3, 34464, Note_on_c, 0, 74, 0
3, 34480, Note_on_c, 0, 57, 0
3, 34577, Note_on_c, 0, 86, 0
3, 34920, Note_on_c, 0, 88, 77
3, 34922, Note_on_c, 0, 76, 74
3, 35205, Note_on_c, 0, 76, 0
3, 35213, Note_on_c, 0, 88, 0
3, 35551, Note_on_c, 0, 57, 71
3, 35554, Note_on_c, 0, 88, 80
3, 35557, Note_on_c, 0, 65, 65
3, 35558, Note_on_c, 0, 76, 78
3, 35584, Note_on_c, 0, 62, 51
3, 36015, Note_on_c, 0, 57, 0
3, 36047, Note_on_c, 0, 88, 0
3, 36052, Note_on_c, 0, 76, 0
3, 36116, Note_on_c, 0, 65, 0
3, 36156, Note_on_c, 0, 62, 0
3, 36218, Note_on_c, 0, 88, 75
3, 36223, Note_on_c, 0, 65, 73
3, 36225, Note_on_c, 0, 76, 71
3, 36226, Note_on_c, 0, 62, 61
3, 36229, Note_on_c, 0, 56, 79
3, 36231, Note_on_c, 0, 84, 84
3, 36421, Control_c, 0, 64, 127
3, 36860, Note_on_c, 0, 62, 0
3, 37168, Note_on_c, 0, 62, 34
3, 37183, Note_on_c, 0, 84, 0
3, 37191, Note_on_c, 0, 65, 0
3, 37216, Note_on_c, 0, 56, 0
3, 37252, Note_on_c, 0, 88, 0
3, 37269, Note_on_c, 0, 76, 0
3, 37351, Note_on_c, 0, 62, 0
3, 37504, Note_on_c, 0, 65, 41
3, 37522, Note_on_c, 0, 62, 32
3, 37547, Note_on_c, 0, 56, 27
3, 37576, Note_on_c, 0, 65, 0
3, 37594, Note_on_c, 0, 62, 0
3, 37625, Note_on_c, 0, 56, 0
3, 38159, Note_on_c, 0, 82, 83
3, 38161, Note_on_c, 0, 86, 85
3, 38164, Note_on_c, 0, 58, 68
3, 38167, Note_on_c, 0, 74, 80
3, 38168, Note_on_c, 0, 62, 72
3, 38179, Note_on_c, 0, 76, 72
3, 38197, Note_on_c, 0, 53, 46
3, 38232, Note_on_c, 0, 76, 0
3, 38296, Note_on_c, 0, 62, 0
3, 38378, Control_c, 0, 64, 0
3, 38389, Note_on_c, 0, 83, 63
3, 38407, Note_on_c, 0, 82, 0
3, 38441, Note_on_c, 0, 74, 0
3, 38450, Note_on_c, 0, 83, 0
3, 38453, Note_on_c, 0, 58, 0
3, 38481, Note_on_c, 0, 53, 0
3, 38484, Note_on_c, 0, 86, 0
3, 38609, Note_on_c, 0, 53, 31
3, 38619, Note_on_c, 0, 58, 42
3, 38625, Note_on_c, 0, 84, 53
3, 38627, Note_on_c, 0, 62, 48
3, 38634, Note_on_c, 0, 72, 56
3, 38648, Note_on_c, 0, 80, 55
3, 38658, Note_on_c, 0, 57, 33
3, 38999, Note_on_c, 0, 81, 26
3, 39055, Note_on_c, 0, 80, 0
3, 39130, Note_on_c, 0, 72, 0
3, 39132, Note_on_c, 0, 53, 0
3, 39133, Note_on_c, 0, 81, 0
3, 39156, Note_on_c, 0, 58, 0
3, 39160, Note_on_c, 0, 57, 0
3, 39164, Note_on_c, 0, 62, 0
3, 39180, Note_on_c, 0, 84, 0
3, 40065, Note_on_c, 0, 58, 42
3, 40066, Note_on_c, 0, 52, 50
3, 40071, Note_on_c, 0, 62, 50
3, 40082, Note_on_c, 0, 72, 64
3, 40084, Note_on_c, 0, 84, 69
3, 40088, Note_on_c, 0, 80, 52
3, 40399, Note_on_c, 0, 81, 32
3, 40407, Note_on_c, 0, 62, 0
3, 40416, Note_on_c, 0, 72, 0
3, 40418, Note_on_c, 0, 52, 0
3, 40431, Note_on_c, 0, 80, 0
3, 40450, Note_on_c, 0, 58, 0
3, 40473, Note_on_c, 0, 84, 0
3, 40474, Note_on_c, 0, 81, 0
3, 40660, Note_on_c, 0, 72, 49
3, 40682, Note_on_c, 0, 62, 46
3, 40684, Note_on_c, 0, 80, 42
3, 40687, Note_on_c, 0, 52, 36
3, 40695, Note_on_c, 0, 84, 32
3, 40711, Note_on_c, 0, 58, 37
3, 40941, Note_on_c, 0, 81, 49
3, 40965, Note_on_c, 0, 58, 0
3, 40982, Note_on_c, 0, 84, 0
3, 40985, Note_on_c, 0, 52, 0
3, 41017, Note_on_c, 0, 62, 0
3, 41039, Note_on_c, 0, 80, 0
3, 41044, Note_on_c, 0, 72, 0
3, 41096, Note_on_c, 0, 81, 0
3, 41288, Note_on_c, 0, 62, 48
3, 41297, Note_on_c, 0, 58, 35
3, 41310, Note_on_c, 0, 82, 58
3, 41333, Note_on_c, 0, 70, 43
3, 41348, Note_on_c, 0, 52, 24
3, 41594, Note_on_c, 0, 52, 0
3, 41734, Note_on_c, 0, 58, 0
3, 41744, Note_on_c, 0, 62, 0
3, 41822, Note_on_c, 0, 82, 0
3, 41871, Note_on_c, 0, 70, 0
3, 41951, Note_on_c, 0, 64, 49
3, 41991, Note_on_c, 0, 60, 35
3, 41994, Note_on_c, 0, 81, 55
3, 41997, Note_on_c, 0, 53, 28
3, 42004, Note_on_c, 0, 69, 32
3, 42013, Note_on_c, 0, 57, 51
3, 42043, Note_on_c, 0, 71, 28
3, 42119, Note_on_c, 0, 71, 0
3, 42768, Note_on_c, 0, 81, 0
3, 42890, Note_on_c, 0, 64, 0
3, 42958, Note_on_c, 0, 69, 0
3, 43172, Note_on_c, 0, 64, 50
3, 43184, Note_on_c, 0, 79, 51
3, 43186, Note_on_c, 0, 57, 0
3, 43188, Note_on_c, 0, 69, 52
3, 43198, Note_on_c, 0, 74, 55
3, 43205, Note_on_c, 0, 60, 0
3, 43256, Note_on_c, 0, 53, 0
3, 43628, Note_on_c, 0, 69, 0
3, 43658, Note_on_c, 0, 64, 0
3, 43697, Note_on_c, 0, 79, 0
3, 43743, Note_on_c, 0, 74, 0
3, 43898, Note_on_c, 0, 65, 58
3, 43905, Note_on_c, 0, 76, 64
3, 43907, Note_on_c, 0, 81, 72
3, 43919, Note_on_c, 0, 71, 39
3, 43932, Note_on_c, 0, 72, 48
3, 44006, Note_on_c, 0, 72, 0
3, 44036, Note_on_c, 0, 65, 0
3, 44057, Note_on_c, 0, 71, 0
3, 44078, Note_on_c, 0, 76, 0
3, 44080, Note_on_c, 0, 81, 0
3, 44833, Note_on_c, 0, 64, 67
3, 44856, Note_on_c, 0, 79, 62
3, 44861, Note_on_c, 0, 74, 62
3, 44929, Note_on_c, 0, 74, 0
3, 44961, Note_on_c, 0, 64, 0
3, 44981, Note_on_c, 0, 79, 0
3, 45778, Note_on_c, 0, 81, 81
3, 45781, Note_on_c, 0, 62, 71
3, 45782, Note_on_c, 0, 58, 64
3, 45785, Note_on_c, 0, 52, 69
3, 45786, Note_on_c, 0, 74, 83
3, 45789, Note_on_c, 0, 69, 84
3, 46189, Control_c, 0, 64, 127
3, 46787, Note_on_c, 0, 62, 0
3, 46791, Note_on_c, 0, 69, 0
3, 46815, Note_on_c, 0, 52, 0
3, 46842, Note_on_c, 0, 74, 0
3, 46917, Note_on_c, 0, 81, 0
3, 46919, Note_on_c, 0, 58, 0
3, 46994, Control_c, 0, 64, 0
3, 47011, Note_on_c, 0, 58, 20
3, 47027, Note_on_c, 0, 52, 42
3, 47029, Note_on_c, 0, 69, 38
3, 47033, Note_on_c, 0, 74, 38
3, 47041, Note_on_c, 0, 79, 43
3, 47042, Note_on_c, 0, 62, 46
3, 47263, Note_on_c, 0, 74, 0
3, 47266, Note_on_c, 0, 69, 0
3, 47271, Note_on_c, 0, 52, 0
3, 47352, Note_on_c, 0, 58, 0
3, 47372, Note_on_c, 0, 62, 0
3, 47375, Note_on_c, 0, 79, 0
3, 47983, Note_on_c, 0, 73, 39
3, 47985, Note_on_c, 0, 76, 49
3, 47986, Note_on_c, 0, 69, 60
3, 47990, Note_on_c, 0, 55, 47
3, 48001, Note_on_c, 0, 61, 39
3, 48002, Note_on_c, 0, 64, 41
3, 48005, Note_on_c, 0, 81, 45
3, 48241, Note_on_c, 0, 64, 0
3, 48278, Note_on_c, 0, 69, 0
3, 48279, Note_on_c, 0, 55, 0
3, 48282, Note_on_c, 0, 81, 0
3, 48284, Note_on_c, 0, 61, 0
3, 48311, Note_on_c, 0, 73, 0
3, 48343, Note_on_c, 0, 76, 0
3, 48949, Note_on_c, 0, 55, 45
3, 48951, Note_on_c, 0, 61, 32
3, 48955, Control_c, 0, 64, 127
3, 48959, Note_on_c, 0, 76, 33
3, 48960, Note_on_c, 0, 73, 32
3, 48963, Note_on_c, 0, 79, 45
3, 48967, Note_on_c, 0, 69, 43
3, 48991, Note_on_c, 0, 64, 30
3, 49212, Note_on_c, 0, 55, 0
3, 49293, Note_on_c, 0, 64, 0
3, 49335, Note_on_c, 0, 69, 0
3, 49341, Note_on_c, 0, 76, 0
3, 49343, Note_on_c, 0, 73, 0
3, 49439, Note_on_c, 0, 79, 0
3, 49460, Note_on_c, 0, 61, 0
3, 49761, Control_c, 0, 64, 0
3, 49914, Note_on_c, 0, 78, 67
3, 49916, Note_on_c, 0, 61, 29
3, 49919, Note_on_c, 0, 64, 41
3, 49927, Note_on_c, 0, 54, 37
3, 49934, Note_on_c, 0, 73, 43
3, 49938, Note_on_c, 0, 69, 49
3, 49959, Note_on_c, 0, 59, 49
3, 50946, Control_c, 0, 64, 127
3, 51143, Note_on_c, 0, 73, 0
3, 51225, Note_on_c, 0, 69, 0
3, 51297, Note_on_c, 0, 64, 0
3, 51356, Note_on_c, 0, 78, 0
3, 51358, Note_on_c, 0, 59, 0
3, 51378, Note_on_c, 0, 61, 0
3, 51393, Note_on_c, 0, 54, 0
3, 51476, Control_c, 0, 64, 0
3, 51567, Note_on_c, 0, 73, 65
3, 51580, Note_on_c, 0, 61, 37
3, 51584, Note_on_c, 0, 54, 42
3, 51596, Note_on_c, 0, 64, 46
3, 51639, Note_on_c, 0, 59, 43
3, 51816, Note_on_c, 0, 64, 0
3, 51863, Note_on_c, 0, 59, 0
3, 51898, Note_on_c, 0, 73, 0
3, 51996, Note_on_c, 0, 64, 27
3, 52014, Note_on_c, 0, 69, 42
3, 52358, Note_on_c, 0, 64, 0
3, 52422, Note_on_c, 0, 69, 0
3, 52454, Note_on_c, 0, 61, 0
3, 52537, Note_on_c, 0, 64, 38
3, 52540, Note_on_c, 0, 61, 18
3, 52556, Note_on_c, 0, 69, 44
3, 52685, Note_on_c, 0, 69, 0
3, 52724, Note_on_c, 0, 64, 0
3, 52738, Note_on_c, 0, 54, 0
3, 52838, Note_on_c, 0, 61, 0
3, 53490, Note_on_c, 0, 61, 35
3, 53497, Note_on_c, 0, 64, 37
3, 53570, Note_on_c, 0, 64, 0
3, 53687, Note_on_c, 0, 61, 0
3, 54402, Note_on_c, 0, 61, 59
3, 54533, Note_on_c, 0, 61, 0
3, 54698, Note_on_c, 0, 64, 80
3, 55301, Note_on_c, 0, 64, 0
3, 55388, Note_on_c, 0, 66, 73
3, 55405, Note_on_c, 0, 58, 51
3, 55407, Note_on_c, 0, 62, 53
3, 55409, Note_on_c, 0, 52, 55
3, 55467, Note_on_c, 0, 62, 0
3, 55473, Note_on_c, 0, 52, 0
3, 55572, Note_on_c, 0, 58, 0
3, 55758, Control_c, 0, 64, 127
3, 56016, Note_on_c, 0, 66, 0
3, 56045, Control_c, 0, 64, 0
3, 56068, Note_on_c, 0, 67, 66
3, 56175, Control_c, 0, 64, 127
3, 56271, Note_on_c, 0, 67, 0
3, 56364, Note_on_c, 0, 69, 63
3, 56465, Control_c, 0, 64, 0
3, 56565, Note_on_c, 0, 61, 28
3, 56592, Note_on_c, 0, 69, 0
3, 56658, Note_on_c, 0, 61, 0
3, 56690, Note_on_c, 0, 70, 52
3, 56845, Note_on_c, 0, 70, 0
3, 56979, Note_on_c, 0, 72, 60
3, 57127, Note_on_c, 0, 72, 0
3, 57289, Note_on_c, 0, 75, 64
3, 57535, Note_on_c, 0, 75, 0
3, 57548, Note_on_c, 0, 60, 24
3, 57561, Note_on_c, 0, 57, 35
3, 57573, Note_on_c, 0, 53, 28
3, 57576, Note_on_c, 0, 76, 55
3, 57597, Note_on_c, 0, 50, 25
3, 57769, Note_on_c, 0, 76, 0
3, 57847, Note_on_c, 0, 79, 71
3, 58104, Note_on_c, 0, 79, 0
3, 58145, Note_on_c, 0, 76, 42
3, 58319, Note_on_c, 0, 76, 0
3, 58391, Note_on_c, 0, 77, 64
3, 58583, Note_on_c, 0, 77, 0
3, 58663, Note_on_c, 0, 74, 58
3, 59228, Note_on_c, 0, 74, 0
3, 59325, Note_on_c, 0, 60, 0
3, 59467, Note_on_c, 0, 57, 0
3, 59556, Note_on_c, 0, 50, 0
3, 59570, Note_on_c, 0, 53, 0
3, 60175, Note_on_c, 0, 60, 62
3, 60191, Note_on_c, 0, 57, 53
3, 60223, Note_on_c, 0, 53, 43
3, 60232, Note_on_c, 0, 60, 0
3, 60356, Note_on_c, 0, 57, 0
3, 60407, Note_on_c, 0, 53, 0
3, 60492, Note_on_c, 0, 77, 79
3, 60495, Note_on_c, 0, 65, 82
3, 60644, Note_on_c, 0, 65, 0
3, 60699, Note_on_c, 0, 77, 0
3, 60844, Note_on_c, 0, 74, 39
3, 61010, Note_on_c, 0, 74, 0
3, 61116, Note_on_c, 0, 76, 76
3, 61364, Note_on_c, 0, 76, 0
3, 61727, Note_on_c, 0, 76, 74
3, 61755, Note_on_c, 0, 67, 65
3, 61770, Note_on_c, 0, 56, 63
3, 61789, Note_on_c, 0, 62, 59
3, 62140, Note_on_c, 0, 56, 0
3, 62158, Note_on_c, 0, 76, 0
3, 62168, Note_on_c, 0, 62, 0
3, 62196, Note_on_c, 0, 67, 0
3, 62401, Note_on_c, 0, 67, 66
3, 62407, Note_on_c, 0, 56, 69
3, 62421, Note_on_c, 0, 62, 65
3, 62849, Note_on_c, 0, 67, 0
3, 62895, Note_on_c, 0, 62, 0
3, 62991, Note_on_c, 0, 56, 0
3, 63083, Note_on_c, 0, 55, 80
3, 63085, Note_on_c, 0, 66, 85
3, 63095, Note_on_c, 0, 61, 71
3, 63653, Control_c, 0, 64, 127
3, 64359, Note_on_c, 0, 66, 0
3, 64450, Note_on_c, 0, 61, 0
3, 64503, Note_on_c, 0, 55, 0
3, 65063, Note_on_c, 0, 46, 39
3, 65084, Note_on_c, 0, 61, 62
3, 65098, Note_on_c, 0, 56, 73
3, 65106, Note_on_c, 0, 53, 38
3, 65117, Note_on_c, 0, 49, 38
3, 65125, Note_on_c, 0, 46, 0
3, 65141, Control_c, 0, 64, 0
3, 65156, Note_on_c, 0, 48, 47
3, 65413, Note_on_c, 0, 48, 0
3, 65415, Note_on_c, 0, 53, 0
3, 65418, Note_on_c, 0, 49, 0
3, 65447, Note_on_c, 0, 61, 0
3, 65461, Note_on_c, 0, 56, 0
3, 65510, Note_on_c, 0, 50, 60
3, 65513, Note_on_c, 0, 62, 60
3, 65525, Note_on_c, 0, 53, 34
3, 65530, Note_on_c, 0, 57, 49
3, 66298, Control_c, 0, 64, 127
3, 66539, Note_on_c, 0, 62, 0
3, 66802, Note_on_c, 0, 57, 0
3, 67049, Note_on_c, 0, 53, 0
3, 67147, Control_c, 0, 64, 0
3, 67242, Note_on_c, 0, 50, 0
3, 67260, Note_on_c, 0, 49, 70
3, 67263, Note_on_c, 0, 61, 62
3, 67270, Note_on_c, 0, 58, 69
3, 67272, Note_on_c, 0, 64, 66
3, 67274, Note_on_c, 0, 55, 69
3, 67634, Control_c, 0, 64, 127
3, 67686, Note_on_c, 0, 55, 0
3, 67687, Note_on_c, 0, 64, 0
3, 67753, Note_on_c, 0, 58, 0
3, 67831, Note_on_c, 0, 61, 0
3, 67906, Control_c, 0, 64, 0
3, 67925, Note_on_c, 0, 60, 75
3, 67930, Note_on_c, 0, 57, 76
3, 67933, Note_on_c, 0, 65, 73
3, 67935, Note_on_c, 0, 50, 72
3, 67960, Note_on_c, 0, 49, 0
3, 68269, Control_c, 0, 64, 127
3, 68498, Note_on_c, 0, 50, 0
3, 68628, Note_on_c, 0, 57, 0
3, 68719, Note_on_c, 0, 65, 0
3, 68743, Note_on_c, 0, 60, 0
3, 69220, Control_c, 0, 64, 0
3, 69817, Note_on_c, 0, 57, 71
3, 69823, Note_on_c, 0, 58, 64
3, 69825, Note_on_c, 0, 69, 69
3, 69826, Note_on_c, 0, 62, 64
3, 69832, Note_on_c, 0, 64, 64
3, 70173, Note_on_c, 0, 62, 0
3, 70176, Note_on_c, 0, 55, 51
3, 70178, Note_on_c, 0, 57, 0
3, 70201, Note_on_c, 0, 69, 0
3, 70411, Note_on_c, 0, 55, 0
3, 70451, Note_on_c, 0, 58, 0
3, 70477, Note_on_c, 0, 64, 0
3, 70585, Control_c, 0, 64, 127
3, 70682, Control_c, 0, 64, 0
3, 70778, Note_on_c, 0, 58, 67
3, 70789, Note_on_c, 0, 61, 59
3, 70813, Note_on_c, 0, 55, 57
3, 70822, Note_on_c, 0, 64, 55
3, 70836, Note_on_c, 0, 45, 44
3, 71707, Note_on_c, 0, 64, 0
3, 71741, Note_on_c, 0, 58, 0
3, 71744, Note_on_c, 0, 49, 42
3, 71824, Note_on_c, 0, 45, 0
3, 71842, Note_on_c, 0, 55, 0
3, 71851, Note_on_c, 0, 61, 0
3, 71986, Note_on_c, 0, 61, 43
3, 71987, Note_on_c, 0, 58, 55
3, 71989, Note_on_c, 0, 51, 50
3, 72005, Note_on_c, 0, 49, 0
3, 72007, Note_on_c, 0, 63, 48
3, 72011, Note_on_c, 0, 66, 51
3, 72471, Note_on_c, 0, 66, 0
3, 72483, Note_on_c, 0, 61, 0
3, 72509, Note_on_c, 0, 58, 0
3, 72552, Note_on_c, 0, 63, 0
3, 72620, Note_on_c, 0, 51, 0
3, 72665, Note_on_c, 0, 65, 45
3, 72676, Note_on_c, 0, 57, 44
3, 72679, Note_on_c, 0, 50, 58
3, 72698, Note_on_c, 0, 60, 46
3, 72751, Note_on_c, 0, 57, 0
3, 72789, Note_on_c, 0, 60, 0
3, 72802, Note_on_c, 0, 50, 0
3, 72873, Note_on_c, 0, 65, 0
3, 73903, Control_c, 0, 64, 127
3, 74553, Note_on_c, 0, 55, 70
3, 74559, Note_on_c, 0, 60, 71
3, 74569, Note_on_c, 0, 50, 58
3, 74576, Control_c, 0, 64, 0
3, 74613, Note_on_c, 0, 60, 0
3, 74625, Note_on_c, 0, 50, 0
3, 74650, Note_on_c, 0, 55, 0
3, 74994, Control_c, 0, 64, 127
3, 75442, Control_c, 0, 64, 0
3, 75514, Note_on_c, 0, 55, 80
3, 75517, Note_on_c, 0, 65, 84
3, 75532, Note_on_c, 0, 60, 71
3, 75545, Note_on_c, 0, 74, 89
3, 75547, Note_on_c, 0, 81, 83
3, 75550, Note_on_c, 0, 86, 87
3, 75740, Note_on_c, 0, 74, 0
3, 75781, Note_on_c, 0, 55, 0
3, 75783, Note_on_c, 0, 86, 0
3, 75785, Note_on_c, 0, 65, 0
3, 75791, Note_on_c, 0, 81, 0
3, 75829, Note_on_c, 0, 60, 0
3, 75895, Note_on_c, 0, 55, 66
3, 75898, Note_on_c, 0, 65, 69
3, 75928, Note_on_c, 0, 88, 80
3, 75930, Note_on_c, 0, 76, 82
3, 75932, Note_on_c, 0, 60, 72
3, 75934, Note_on_c, 0, 83, 82
3, 76153, Note_on_c, 0, 76, 0
3, 76163, Note_on_c, 0, 55, 0
3, 76180, Control_c, 0, 64, 127
3, 76181, Note_on_c, 0, 83, 0
3, 76183, Note_on_c, 0, 88, 0
3, 76202, Note_on_c, 0, 65, 0
3, 76218, Note_on_c, 0, 60, 0
3, 76242, Control_c, 0, 64, 0
3, 76490, Note_on_c, 0, 55, 63
3, 76492, Note_on_c, 0, 60, 70
3, 76503, Note_on_c, 0, 65, 62
3, 76523, Note_on_c, 0, 84, 83
3, 76525, Note_on_c, 0, 77, 80
3, 76529, Note_on_c, 0, 89, 74
3, 76557, Note_on_c, 0, 65, 0
3, 76615, Note_on_c, 0, 55, 0
3, 76630, Note_on_c, 0, 77, 0
3, 76644, Note_on_c, 0, 60, 0
3, 76650, Note_on_c, 0, 84, 0
3, 76687, Note_on_c, 0, 89, 0
3, 76855, Note_on_c, 0, 63, 75
3, 76860, Note_on_c, 0, 55, 66
3, 76872, Note_on_c, 0, 60, 61
3, 76877, Note_on_c, 0, 57, 58
3, 76879, Note_on_c, 0, 93, 80
3, 76882, Note_on_c, 0, 81, 78
3, 76883, Note_on_c, 0, 88, 74
3, 77373, Note_on_c, 0, 55, 0
3, 77405, Note_on_c, 0, 81, 0
3, 77424, Note_on_c, 0, 57, 0
3, 77441, Note_on_c, 0, 88, 0
3, 77453, Note_on_c, 0, 63, 0
3, 77455, Note_on_c, 0, 93, 0
3, 77482, Note_on_c, 0, 60, 0
3, 77780, Note_on_c, 0, 63, 67
3, 77786, Note_on_c, 0, 55, 62
3, 77810, Note_on_c, 0, 93, 74
3, 77823, Note_on_c, 0, 88, 66
3, 77826, Note_on_c, 0, 81, 61
3, 77829, Note_on_c, 0, 60, 47
3, 78225, Note_on_c, 0, 93, 0
3, 78234, Note_on_c, 0, 81, 0
3, 78259, Note_on_c, 0, 88, 0
3, 78295, Note_on_c, 0, 60, 0
3, 78315, Note_on_c, 0, 55, 0
3, 78364, Note_on_c, 0, 63, 0
3, 79367, Note_on_c, 0, 54, 78
3, 79370, Note_on_c, 0, 64, 76
3, 79378, Note_on_c, 0, 60, 65
3, 79383, Note_on_c, 0, 87, 74
3, 79385, Note_on_c, 0, 93, 81
3, 79389, Note_on_c, 0, 81, 74
3, 79680, Note_on_c, 0, 88, 42
3, 79685, Note_on_c, 0, 87, 0
3, 79796, Note_on_c, 0, 81, 0
3, 79797, Note_on_c, 0, 93, 0
3, 79804, Note_on_c, 0, 54, 0
3, 79805, Note_on_c, 0, 64, 0
3, 79824, Note_on_c, 0, 60, 0
3, 79846, Note_on_c, 0, 88, 0
3, 80048, Note_on_c, 0, 92, 68
3, 80056, Note_on_c, 0, 80, 60
3, 80068, Note_on_c, 0, 87, 60
3, 80114, Note_on_c, 0, 54, 67
3, 80116, Note_on_c, 0, 64, 64
3, 80128, Note_on_c, 0, 60, 52
3, 80413, Note_on_c, 0, 60, 0
3, 80426, Note_on_c, 0, 64, 0
3, 80481, Note_on_c, 0, 92, 0
3, 80544, Note_on_c, 0, 80, 0
3, 80564, Note_on_c, 0, 87, 0
3, 80578, Note_on_c, 0, 54, 0
3, 80669, Note_on_c, 0, 62, 53
3, 80673, Note_on_c, 0, 58, 49
3, 80680, Note_on_c, 0, 91, 58
3, 80693, Note_on_c, 0, 86, 58
3, 80701, Note_on_c, 0, 79, 29
3, 80704, Note_on_c, 0, 57, 51
3, 80715, Note_on_c, 0, 53, 32
3, 80827, Note_on_c, 0, 91, 0
3, 80847, Note_on_c, 0, 86, 0
3, 80882, Note_on_c, 0, 62, 0
3, 80897, Note_on_c, 0, 79, 0
3, 80898, Note_on_c, 0, 57, 0
3, 80951, Note_on_c, 0, 58, 0
3, 81128, Note_on_c, 0, 53, 0
3, 81557, Note_on_c, 0, 67, 68
3, 81571, Note_on_c, 0, 58, 72
3, 81588, Note_on_c, 0, 55, 74
3, 81591, Note_on_c, 0, 62, 67
3, 82317, Note_on_c, 0, 67, 0
3, 82418, Note_on_c, 0, 58, 0
3, 82438, Note_on_c, 0, 62, 0
3, 82530, Note_on_c, 0, 54, 56
3, 82545, Note_on_c, 0, 62, 64
3, 82546, Note_on_c, 0, 58, 58
3, 82564, Note_on_c, 0, 69, 67
3, 82567, Note_on_c, 0, 55, 0
3, 83001, Control_c, 0, 64, 127
3, 83146, Note_on_c, 0, 69, 0
3, 83297, Note_on_c, 0, 58, 0
3, 83402, Control_c, 0, 64, 0
3, 83404, Note_on_c, 0, 62, 0
3, 83506, Note_on_c, 0, 58, 59
3, 83507, Note_on_c, 0, 70, 64
3, 83522, Note_on_c, 0, 54, 0
3, 83526, Note_on_c, 0, 53, 47
3, 83529, Note_on_c, 0, 62, 64
3, 83812, Note_on_c, 0, 62, 0
3, 83820, Control_c, 0, 64, 127
3, 83846, Note_on_c, 0, 58, 0
3, 83949, Control_c, 0, 64, 0
3, 83976, Note_on_c, 0, 70, 0
3, 84011, Control_c, 0, 64, 127
3, 84166, Note_on_c, 0, 53, 0
3, 84428, Control_c, 0, 64, 0
3, 84471, Note_on_c, 0, 74, 75
3, 84483, Note_on_c, 0, 62, 74
3, 84537, Note_on_c, 0, 57, 60
3, 85486, Control_c, 0, 64, 127
3, 85589, Note_on_c, 0, 57, 0
3, 86099, Note_on_c, 0, 43, 47
3, 86143, Note_on_c, 0, 62, 0
3, 86167, Note_on_c, 0, 43, 0
3, 86175, Control_c, 0, 64, 0
3, 86411, Note_on_c, 0, 62, 51
3, 87042, Note_on_c, 0, 57, 61
3, 87114, Note_on_c, 0, 57, 0
3, 87129, Note_on_c, 0, 62, 0
3, 87311, Note_on_c, 0, 74, 0
3, 87377, Control_c, 0, 64, 127
3, 88004, Note_on_c, 0, 75, 68
3, 88010, Note_on_c, 0, 87, 67
3, 88130, Control_c, 0, 64, 0
3, 88158, Note_on_c, 0, 75, 0
3, 88232, Note_on_c, 0, 87, 0
3, 88517, Note_on_c, 0, 66, 51
3, 88530, Note_on_c, 0, 57, 47
3, 88537, Note_on_c, 0, 82, 48
3, 88543, Note_on_c, 0, 61, 42
3, 88546, Note_on_c, 0, 88, 60
3, 88564, Note_on_c, 0, 76, 52
3, 88579, Note_on_c, 0, 62, 50
3, 88722, Note_on_c, 0, 76, 0
3, 88726, Note_on_c, 0, 66, 0
3, 88732, Note_on_c, 0, 82, 0
3, 88742, Note_on_c, 0, 62, 0
3, 88764, Note_on_c, 0, 57, 0
3, 88765, Note_on_c, 0, 88, 0
3, 88788, Note_on_c, 0, 61, 0
3, 89202, Note_on_c, 0, 66, 52
3, 89218, Note_on_c, 0, 61, 36
3, 89222, Note_on_c, 0, 76, 62
3, 89223, Note_on_c, 0, 57, 38
3, 89226, Note_on_c, 0, 88, 62
3, 89230, Control_c, 0, 64, 127
3, 89240, Note_on_c, 0, 85, 44
3, 89355, Control_c, 0, 64, 0
3, 89500, Control_c, 0, 64, 127
3, 89559, Note_on_c, 0, 66, 0
3, 89562, Note_on_c, 0, 57, 0
3, 89636, Note_on_c, 0, 88, 0
3, 89641, Note_on_c, 0, 76, 0
3, 89663, Note_on_c, 0, 61, 0
3, 89693, Control_c, 0, 64, 0
3, 89724, Note_on_c, 0, 85, 0
3, 89940, Note_on_c, 0, 76, 60
3, 89942, Note_on_c, 0, 66, 58
3, 89943, Note_on_c, 0, 88, 60
3, 89953, Note_on_c, 0, 56, 55
3, 89955, Note_on_c, 0, 62, 55
3, 89962, Note_on_c, 0, 84, 53
3, 90039, Note_on_c, 0, 84, 0
3, 90042, Note_on_c, 0, 62, 0
3, 90067, Note_on_c, 0, 66, 0
3, 90078, Note_on_c, 0, 76, 0
3, 90083, Note_on_c, 0, 88, 0
3, 90122, Note_on_c, 0, 56, 0
3, 90553, Note_on_c, 0, 76, 63
3, 90554, Note_on_c, 0, 88, 62
3, 90559, Note_on_c, 0, 56, 58
3, 90560, Note_on_c, 0, 62, 49
3, 90567, Note_on_c, 0, 66, 49
3, 90575, Note_on_c, 0, 84, 54
3, 90640, Control_c, 0, 64, 127
3, 90817, Note_on_c, 0, 66, 0
3, 90852, Note_on_c, 0, 56, 0
3, 90879, Note_on_c, 0, 84, 0
3, 90888, Note_on_c, 0, 88, 0
3, 90911, Note_on_c, 0, 62, 0
3, 90919, Note_on_c, 0, 76, 0
3, 91041, Control_c, 0, 64, 0
3, 91177, Note_on_c, 0, 56, 64
3, 91183, Note_on_c, 0, 66, 48
3, 91203, Note_on_c, 0, 74, 60
3, 91208, Note_on_c, 0, 86, 57
3, 91215, Note_on_c, 0, 82, 54
3, 91295, Note_on_c, 0, 66, 0
3, 91424, Note_on_c, 0, 56, 0
3, 91490, Note_on_c, 0, 83, 35
3, 91504, Note_on_c, 0, 82, 0
3, 91588, Note_on_c, 0, 74, 0
3, 91590, Note_on_c, 0, 83, 0
3, 91615, Note_on_c, 0, 86, 0
3, 91799, Note_on_c, 0, 53, 44
3, 91820, Note_on_c, 0, 84, 57
3, 91822, Note_on_c, 0, 72, 45
3, 91829, Note_on_c, 0, 80, 51
3, 91831, Note_on_c, 0, 58, 26
3, 91834, Note_on_c, 0, 62, 37
3, 91836, Note_on_c, 0, 57, 46
3, 92108, Note_on_c, 0, 81, 34
3, 92152, Note_on_c, 0, 80, 0
3, 92156, Note_on_c, 0, 72, 0
3, 92157, Note_on_c, 0, 62, 0
3, 92171, Note_on_c, 0, 53, 0
3, 92188, Note_on_c, 0, 84, 0
3, 92197, Note_on_c, 0, 57, 0
3, 92199, Note_on_c, 0, 81, 0
3, 92210, Note_on_c, 0, 58, 0
3, 92449, Note_on_c, 0, 72, 43
3, 92455, Note_on_c, 0, 80, 38
3, 92466, Note_on_c, 0, 58, 34
3, 92473, Note_on_c, 0, 84, 32
3, 92477, Note_on_c, 0, 62, 34
3, 92501, Note_on_c, 0, 57, 31
3, 92516, Note_on_c, 0, 53, 31
3, 92740, Note_on_c, 0, 81, 45
3, 92751, Note_on_c, 0, 62, 0
3, 92752, Note_on_c, 0, 80, 0
3, 92775, Note_on_c, 0, 53, 0
3, 92811, Note_on_c, 0, 72, 0
3, 92813, Note_on_c, 0, 57, 0
3, 92815, Note_on_c, 0, 84, 0
3, 92823, Note_on_c, 0, 58, 0
3, 92839, Note_on_c, 0, 81, 0
3, 93773, Note_on_c, 0, 62, 64
3, 93775, Note_on_c, 0, 58, 55
3, 93778, Note_on_c, 0, 52, 64
3, 93779, Note_on_c, 0, 80, 60
3, 93789, Note_on_c, 0, 72, 60
3, 93792, Note_on_c, 0, 84, 69
3, 93905, Note_on_c, 0, 62, 0
3, 93949, Note_on_c, 0, 52, 0
3, 93958, Note_on_c, 0, 80, 0
3, 93965, Note_on_c, 0, 58, 0
3, 93973, Note_on_c, 0, 84, 0
3, 93975, Note_on_c, 0, 72, 0
3, 94351, Note_on_c, 0, 80, 56
3, 94352, Note_on_c, 0, 72, 55
3, 94361, Note_on_c, 0, 84, 65
3, 94362, Note_on_c, 0, 58, 45
3, 94365, Note_on_c, 0, 62, 51
3, 94371, Note_on_c, 0, 52, 51
3, 94535, Note_on_c, 0, 81, 43
3, 94615, Note_on_c, 0, 84, 0
3, 94666, Note_on_c, 0, 72, 0
3, 94679, Note_on_c, 0, 52, 0
3, 94683, Note_on_c, 0, 62, 0
3, 94685, Note_on_c, 0, 58, 0
3, 94746, Note_on_c, 0, 81, 0
3, 94747, Note_on_c, 0, 80, 0
3, 94980, Note_on_c, 0, 82, 62
3, 94988, Note_on_c, 0, 62, 52
3, 94989, Note_on_c, 0, 52, 51
3, 94999, Note_on_c, 0, 58, 45
3, 95001, Note_on_c, 0, 70, 52
3, 95250, Note_on_c, 0, 52, 0
3, 95373, Note_on_c, 0, 58, 0
3, 95413, Note_on_c, 0, 62, 0
3, 95524, Note_on_c, 0, 82, 0
3, 95536, Note_on_c, 0, 70, 0
3, 95677, Note_on_c, 0, 64, 60
3, 95681, Note_on_c, 0, 53, 44
3, 95700, Note_on_c, 0, 81, 55
3, 95701, Note_on_c, 0, 76, 50
3, 95704, Note_on_c, 0, 57, 54
3, 95725, Note_on_c, 0, 60, 49
3, 95749, Note_on_c, 0, 69, 26
3, 95752, Note_on_c, 0, 80, 30
3, 95793, Note_on_c, 0, 60, 0
3, 95815, Note_on_c, 0, 80, 0
3, 95821, Note_on_c, 0, 64, 0
3, 95836, Note_on_c, 0, 81, 0
3, 95856, Note_on_c, 0, 76, 0
3, 95882, Note_on_c, 0, 69, 0
3, 95925, Note_on_c, 0, 57, 0
3, 95977, Note_on_c, 0, 53, 0
3, 96111, Control_c, 0, 64, 127
3, 96400, Control_c, 0, 64, 0
3, 96579, Note_on_c, 0, 55, 62
3, 96638, Note_on_c, 0, 57, 68
3, 96656, Note_on_c, 0, 64, 70
3, 96658, Note_on_c, 0, 69, 57
3, 96663, Note_on_c, 0, 60, 65
3, 96669, Note_on_c, 0, 67, 56
3, 96727, Note_on_c, 0, 55, 0
3, 97364, Control_c, 0, 64, 127
3, 97781, Control_c, 0, 64, 0
3, 97840, Note_on_c, 0, 67, 0
3, 98403, Control_c, 0, 64, 127
3, 98485, Note_on_c, 0, 60, 0
3, 98502, Note_on_c, 0, 64, 0
3, 98546, Note_on_c, 0, 69, 0
3, 98607, Note_on_c, 0, 67, 18
3, 98629, Note_on_c, 0, 55, 41
3, 98639, Note_on_c, 0, 57, 0
3, 98747, Note_on_c, 0, 67, 0
3, 98758, Control_c, 0, 64, 0
3, 98878, Note_on_c, 0, 64, 67
3, 98885, Note_on_c, 0, 69, 60
3, 98892, Note_on_c, 0, 60, 62
3, 98901, Note_on_c, 0, 57, 59
3, 98946, Note_on_c, 0, 55, 0
3, 99280, Note_on_c, 0, 64, 0
3, 99418, Note_on_c, 0, 67, 1
3, 99419, Note_on_c, 0, 60, 0
3, 99442, Note_on_c, 0, 69, 0
3, 99460, Control_c, 0, 64, 127
3, 99650, Note_on_c, 0, 57, 0
3, 99660, Note_on_c, 0, 67, 0
3, 99720, Control_c, 0, 64, 0
3, 99798, Note_on_c, 0, 67, 47
3, 99833, Note_on_c, 0, 58, 56
3, 99836, Note_on_c, 0, 62, 64
3, 99850, Note_on_c, 0, 57, 24
3, 99858, Note_on_c, 0, 64, 46
3, 99958, Note_on_c, 0, 57, 0
3, 100892, Control_c, 0, 64, 127
3, 100982, Note_on_c, 0, 67, 0
3, 101062, Note_on_c, 0, 62, 0
3, 101069, Note_on_c, 0, 64, 0
3, 101116, Note_on_c, 0, 58, 0
3, 101758, Control_c, 0, 64, 0
3, 102213, Note_on_c, 0, 49, 18
3, 102436, Note_on_c, 0, 49, 0
3, 102526, Note_on_c, 0, 64, 68
3, 102529, Note_on_c, 0, 55, 68
3, 102542, Note_on_c, 0, 58, 56
3, 102548, Note_on_c, 0, 61, 57
3, 102551, Note_on_c, 0, 52, 73
3, 103428, Note_on_c, 0, 55, 0
3, 103458, Control_c, 0, 64, 127
3, 103460, Note_on_c, 0, 48, 50
3, 103487, Note_on_c, 0, 52, 0
3, 103504, Note_on_c, 0, 58, 0
3, 103524, Note_on_c, 0, 61, 0
3, 103578, Note_on_c, 0, 64, 0
3, 103651, Note_on_c, 0, 48, 0
3, 103698, Control_c, 0, 64, 0
3, 103746, Note_on_c, 0, 66, 57
3, 103766, Note_on_c, 0, 61, 67
3, 103767, Note_on_c, 0, 57, 60
3, 103797, Note_on_c, 0, 49, 50
3, 103903, Note_on_c, 0, 49, 0
3, 103909, Note_on_c, 0, 50, 53
3, 104516, Note_on_c, 0, 57, 0
3, 104545, Note_on_c, 0, 66, 0
3, 104559, Note_on_c, 0, 50, 0
3, 104594, Note_on_c, 0, 61, 0
3, 104604, Note_on_c, 0, 49, 36
3, 104719, Note_on_c, 0, 66, 55
3, 104726, Note_on_c, 0, 61, 49
3, 104740, Note_on_c, 0, 57, 55
3, 104743, Note_on_c, 0, 50, 55
3, 104752, Note_on_c, 0, 49, 0
3, 105606, Control_c, 0, 64, 127
3, 106345, Note_on_c, 0, 57, 0
3, 106406, Control_c, 0, 64, 0
3, 106493, Note_on_c, 0, 66, 0
3, 106529, Note_on_c, 0, 50, 0
3, 106550, Note_on_c, 0, 49, 40
3, 106578, Note_on_c, 0, 57, 24
3, 106580, Note_on_c, 0, 64, 34
3, 106954, Note_on_c, 0, 61, 0
3, 106994, Note_on_c, 0, 57, 0
3, 107248, Note_on_c, 0, 61, 48
3, 107251, Note_on_c, 0, 57, 50
3, 107253, Note_on_c, 0, 66, 53
3, 107286, Note_on_c, 0, 49, 0
3, 107295, Note_on_c, 0, 50, 53
3, 108751, Note_on_c, 0, 57, 0
3, 108983, Note_on_c, 0, 64, 0
3, 109082, Note_on_c, 0, 61, 0
3, 109137, Note_on_c, 0, 66, 0
3, 109207, Note_on_c, 0, 49, 37
3, 109487, Note_on_c, 0, 49, 0
3, 109519, Note_on_c, 0, 62, 113
3, 109655, Note_on_c, 0, 50, 0
3, 110087, Note_on_c, 0, 64, 62
3, 110089, Note_on_c, 0, 62, 0
3, 110205, Note_on_c, 0, 62, 44
3, 110211, Note_on_c, 0, 64, 0
3, 110365, Note_on_c, 0, 61, 67
3, 110447, Note_on_c, 0, 62, 0
3, 110905, Note_on_c, 0, 61, 0
3, 111046, Note_on_c, 0, 62, 61
3, 111134, Note_on_c, 0, 62, 0
3, 111394, Note_on_c, 0, 84, 82
3, 111976, Note_on_c, 0, 84, 0
3, 112024, Note_on_c, 0, 72, 37
3, 112109, Note_on_c, 0, 72, 0
3, 113326, Note_on_c, 0, 63, 53
3, 113350, Note_on_c, 0, 55, 44
3, 113371, Note_on_c, 0, 57, 38
3, 113378, Note_on_c, 0, 60, 30
3, 113474, Note_on_c, 0, 60, 0
3, 113537, Note_on_c, 0, 55, 0
3, 113588, Note_on_c, 0, 63, 0
3, 113659, Note_on_c, 0, 57, 0
3, 114958, Note_on_c, 0, 64, 45
3, 114960, Note_on_c, 0, 54, 38
3, 114962, Note_on_c, 0, 60, 49
3, 115052, Note_on_c, 0, 60, 0
3, 115059, Note_on_c, 0, 64, 0
3, 115125, Note_on_c, 0, 54, 0
3, 115868, Note_on_c, 0, 81, 61
3, 115899, Note_on_c, 0, 69, 55
3, 116081, Note_on_c, 0, 69, 0
3, 116124, Note_on_c, 0, 81, 0
3, 116450, Note_on_c, 0, 82, 78
3, 116455, Note_on_c, 0, 70, 75
3, 116695, Note_on_c, 0, 70, 0
3, 116727, Note_on_c, 0, 82, 0
3, 116815, Note_on_c, 0, 72, 74
3, 116822, Note_on_c, 0, 84, 77
3, 116858, Note_on_c, 0, 83, 52
3, 116932, Note_on_c, 0, 83, 0
3, 117031, Note_on_c, 0, 72, 0
3, 117082, Note_on_c, 0, 84, 0
3, 117112, Note_on_c, 0, 54, 50
3, 117116, Note_on_c, 0, 64, 54
3, 117153, Note_on_c, 0, 60, 42
3, 117202, Note_on_c, 0, 64, 0
3, 117271, Note_on_c, 0, 54, 0
3, 117294, Note_on_c, 0, 60, 0
3, 117453, Note_on_c, 0, 87, 80
3, 117455, Note_on_c, 0, 75, 83
3, 117857, Note_on_c, 0, 75, 0
3, 117871, Note_on_c, 0, 87, 0
3, 117990, Note_on_c, 0, 60, 47
3, 118083, Note_on_c, 0, 85, 62
3, 118108, Note_on_c, 0, 73, 61
3, 118149, Note_on_c, 0, 75, 37
3, 118155, Note_on_c, 0, 60, 0
3, 118210, Note_on_c, 0, 75, 0
3, 118439, Note_on_c, 0, 85, 0
3, 118548, Note_on_c, 0, 74, 60
3, 118551, Note_on_c, 0, 73, 0
3, 118749, Note_on_c, 0, 74, 0
3, 118754, Note_on_c, 0, 86, 51
3, 118954, Note_on_c, 0, 74, 33
3, 118984, Note_on_c, 0, 86, 0
3, 119146, Note_on_c, 0, 74, 0
3, 119383, Note_on_c, 0, 82, 50
3, 119412, Note_on_c, 0, 70, 34
3, 119491, Note_on_c, 0, 70, 0
3, 119545, Note_on_c, 0, 82, 0
3, 120048, Note_on_c, 0, 62, 38
3, 120080, Note_on_c, 0, 58, 36
3, 120087, Note_on_c, 0, 57, 34
3, 120230, Note_on_c, 0, 62, 0
3, 120287, Note_on_c, 0, 57, 0
3, 120289, Note_on_c, 0, 58, 0
3, 120717, Note_on_c, 0, 62, 44
3, 120721, Note_on_c, 0, 58, 47
3, 120735, Note_on_c, 0, 57, 40
3, 120890, Note_on_c, 0, 62, 0
3, 120935, Note_on_c, 0, 57, 0
3, 120972, Note_on_c, 0, 58, 0
3, 121293, Note_on_c, 0, 62, 57
3, 121318, Note_on_c, 0, 54, 46
3, 121322, Note_on_c, 0, 58, 38
3, 121516, Note_on_c, 0, 62, 0
3, 121541, Note_on_c, 0, 58, 0
3, 121565, Note_on_c, 0, 54, 0
3, 121951, Note_on_c, 0, 54, 48
3, 121964, Note_on_c, 0, 62, 42
3, 121984, Note_on_c, 0, 58, 37
3, 122351, Note_on_c, 0, 62, 0
3, 122404, Note_on_c, 0, 58, 0
3, 122407, Note_on_c, 0, 54, 0
3, 122568, Note_on_c, 0, 62, 44
3, 122591, Note_on_c, 0, 58, 38
3, 122598, Note_on_c, 0, 53, 34
3, 122731, Note_on_c, 0, 62, 0
3, 122733, Note_on_c, 0, 53, 0
3, 122799, Note_on_c, 0, 58, 0
3, 123167, Note_on_c, 0, 62, 35
3, 123176, Note_on_c, 0, 58, 36
3, 123182, Note_on_c, 0, 53, 32
3, 123432, Note_on_c, 0, 62, 0
3, 123487, Note_on_c, 0, 53, 0
3, 123514, Note_on_c, 0, 58, 0
3, 123897, Note_on_c, 0, 62, 69
3, 123912, Note_on_c, 0, 58, 51
3, 123927, Note_on_c, 0, 53, 47
3, 124059, Note_on_c, 0, 62, 0
3, 124119, Note_on_c, 0, 53, 0
3, 124165, Note_on_c, 0, 58, 0
3, 124473, Note_on_c, 0, 58, 56
3, 124474, Note_on_c, 0, 62, 59
3, 124487, Note_on_c, 0, 54, 52
3, 124626, Note_on_c, 0, 62, 0
3, 124634, Note_on_c, 0, 54, 0
3, 124690, Note_on_c, 0, 58, 0
3, 125050, Note_on_c, 0, 54, 61
3, 125070, Note_on_c, 0, 62, 48
3, 125094, Note_on_c, 0, 58, 39
3, 125320, Note_on_c, 0, 62, 0
3, 125350, Note_on_c, 0, 58, 0
3, 125403, Note_on_c, 0, 54, 0
3, 125774, Note_on_c, 0, 55, 62
3, 125775, Note_on_c, 0, 58, 59
3, 125777, Note_on_c, 0, 62, 60
3, 126289, Note_on_c, 0, 62, 0
3, 126319, Note_on_c, 0, 55, 0
3, 126327, Note_on_c, 0, 58, 0
3, 126431, Note_on_c, 0, 72, 70
3, 126442, Note_on_c, 0, 73, 60
3, 126522, Note_on_c, 0, 74, 49
3, 126524, Note_on_c, 0, 73, 0
3, 126640, Note_on_c, 0, 72, 0
3, 126762, Note_on_c, 0, 58, 48
3, 126787, Note_on_c, 0, 74, 0
3, 126826, Note_on_c, 0, 58, 0
3, 127140, Note_on_c, 0, 82, 81
3, 127149, Note_on_c, 0, 70, 82
3, 127502, Note_on_c, 0, 70, 0
3, 127525, Note_on_c, 0, 82, 0
3, 127772, Note_on_c, 0, 61, 72
3, 127788, Note_on_c, 0, 58, 60
3, 127791, Note_on_c, 0, 82, 79
3, 127797, Note_on_c, 0, 70, 85
3, 127799, Note_on_c, 0, 53, 52
3, 127806, Note_on_c, 0, 55, 57
3, 127814, Note_on_c, 0, 73, 60
3, 127817, Note_on_c, 0, 80, 64
3, 127865, Note_on_c, 0, 80, 0
3, 129826, Note_on_c, 0, 82, 0
3, 129970, Note_on_c, 0, 70, 0
3, 130312, Note_on_c, 0, 53, 0
3, 130319, Note_on_c, 0, 73, 0
3, 130320, Note_on_c, 0, 55, 0
3, 130391, Note_on_c, 0, 61, 0
3, 130612, Control_c, 0, 64, 127
3, 130626, Note_on_c, 0, 60, 30
3, 130640, Note_on_c, 0, 67, 40
3, 130644, Note_on_c, 0, 79, 39
3, 130647, Note_on_c, 0, 52, 27
3, 130674, Note_on_c, 0, 73, 30
3, 130948, Note_on_c, 0, 60, 0
3, 130949, Note_on_c, 0, 52, 0
3, 130951, Note_on_c, 0, 79, 0
3, 130974, Note_on_c, 0, 67, 0
3, 131094, Note_on_c, 0, 58, 0
3, 131113, Note_on_c, 0, 73, 0
3, 131269, Note_on_c, 0, 80, 58
3, 131277, Note_on_c, 0, 68, 51
3, 131287, Note_on_c, 0, 58, 54
3, 131338, Note_on_c, 0, 60, 33
3, 131351, Note_on_c, 0, 52, 31
3, 131409, Note_on_c, 0, 60, 0
3, 131412, Control_c, 0, 64, 0
3, 131415, Note_on_c, 0, 68, 0
3, 131433, Note_on_c, 0, 52, 0
3, 131492, Note_on_c, 0, 80, 0
3, 131505, Note_on_c, 0, 58, 0
3, 131595, Note_on_c, 0, 70, 54
3, 131610, Note_on_c, 0, 82, 59
3, 131631, Note_on_c, 0, 60, 51
3, 131638, Note_on_c, 0, 58, 44
3, 131654, Note_on_c, 0, 52, 41
3, 131702, Note_on_c, 0, 60, 0
3, 131726, Note_on_c, 0, 70, 0
3, 131730, Note_on_c, 0, 52, 0
3, 131774, Note_on_c, 0, 58, 0
3, 131832, Note_on_c, 0, 82, 0
3, 132207, Note_on_c, 0, 85, 82
3, 132210, Note_on_c, 0, 73, 69
3, 132212, Note_on_c, 0, 80, 74
3, 132214, Note_on_c, 0, 61, 83
3, 132220, Note_on_c, 0, 58, 74
3, 132228, Note_on_c, 0, 75, 67
3, 132229, Note_on_c, 0, 52, 69
3, 132421, Note_on_c, 0, 75, 0
3, 132439, Note_on_c, 0, 61, 0
3, 132472, Note_on_c, 0, 52, 0
3, 132478, Note_on_c, 0, 73, 0
3, 132495, Note_on_c, 0, 80, 0
3, 132502, Note_on_c, 0, 58, 0
3, 132561, Note_on_c, 0, 85, 0
3, 132841, Note_on_c, 0, 61, 80
3, 132842, Note_on_c, 0, 84, 74
3, 132850, Note_on_c, 0, 58, 70
3, 132853, Note_on_c, 0, 79, 68
3, 132856, Note_on_c, 0, 72, 63
3, 132858, Note_on_c, 0, 52, 66
3, 132877, Control_c, 0, 64, 127
3, 132888, Note_on_c, 0, 51, 29
3, 132942, Note_on_c, 0, 51, 0
3, 133088, Note_on_c, 0, 84, 0
3, 133154, Note_on_c, 0, 52, 0
3, 133160, Note_on_c, 0, 79, 0
3, 133165, Note_on_c, 0, 72, 0
3, 133202, Note_on_c, 0, 61, 0
3, 133214, Note_on_c, 0, 58, 0
3, 133295, Control_c, 0, 64, 0
3, 133441, Note_on_c, 0, 61, 60
3, 133455, Note_on_c, 0, 58, 60
3, 133461, Note_on_c, 0, 82, 64
3, 133468, Note_on_c, 0, 52, 50
3, 133481, Note_on_c, 0, 70, 62
3, 133549, Control_c, 0, 64, 127
3, 133698, Note_on_c, 0, 52, 0
3, 133799, Note_on_c, 0, 61, 0
3, 133802, Note_on_c, 0, 58, 0
3, 133908, Note_on_c, 0, 70, 0
3, 133914, Note_on_c, 0, 82, 0
3, 134095, Control_c, 0, 64, 0
3, 134121, Note_on_c, 0, 64, 68
3, 134132, Note_on_c, 0, 60, 60
3, 134133, Note_on_c, 0, 57, 67
3, 134137, Note_on_c, 0, 81, 70
3, 134138, Note_on_c, 0, 53, 45
3, 134141, Note_on_c, 0, 76, 62
3, 134153, Note_on_c, 0, 69, 64
3, 134181, Note_on_c, 0, 78, 34
3, 134448, Control_c, 0, 64, 127
3, 134477, Note_on_c, 0, 76, 0
3, 134498, Note_on_c, 0, 81, 0
3, 134667, Note_on_c, 0, 64, 0
3, 134705, Note_on_c, 0, 53, 0
3, 134707, Note_on_c, 0, 69, 0
3, 134715, Note_on_c, 0, 78, 0
3, 135017, Note_on_c, 0, 60, 0
3, 135037, Note_on_c, 0, 57, 0
3, 135063, Note_on_c, 0, 64, 68
3, 135074, Note_on_c, 0, 79, 69
3, 135085, Note_on_c, 0, 69, 80
3, 135090, Note_on_c, 0, 72, 71
3, 135108, Note_on_c, 0, 76, 39
3, 135180, Note_on_c, 0, 76, 0
3, 135209, Note_on_c, 0, 72, 0
3, 135210, Note_on_c, 0, 79, 0
3, 135235, Note_on_c, 0, 69, 0
3, 135267, Control_c, 0, 64, 0
3, 135269, Note_on_c, 0, 64, 0
3, 135365, Note_on_c, 0, 60, 49
3, 135380, Note_on_c, 0, 76, 24
3, 135394, Note_on_c, 0, 67, 53
3, 135480, Note_on_c, 0, 76, 0
3, 135530, Note_on_c, 0, 67, 0
3, 135536, Note_on_c, 0, 60, 0
3, 135737, Note_on_c, 0, 72, 44
3, 135745, Note_on_c, 0, 67, 59
3, 135747, Note_on_c, 0, 64, 61
3, 135821, Note_on_c, 0, 64, 0
3, 135867, Note_on_c, 0, 67, 0
3, 135869, Note_on_c, 0, 72, 0
3, 136379, Note_on_c, 0, 67, 56
3, 136405, Note_on_c, 0, 57, 64
3, 136421, Note_on_c, 0, 55, 56
3, 136438, Note_on_c, 0, 60, 51
3, 136469, Note_on_c, 0, 64, 37
3, 136542, Note_on_c, 0, 64, 0
3, 136583, Note_on_c, 0, 57, 0
3, 136596, Note_on_c, 0, 60, 0
3, 136597, Note_on_c, 0, 67, 0
3, 136697, Note_on_c, 0, 55, 0
3, 136759, Note_on_c, 0, 52, 46
3, 136965, Note_on_c, 0, 52, 0
3, 136992, Note_on_c, 0, 61, 19
3, 137038, Note_on_c, 0, 62, 40
3, 137049, Note_on_c, 0, 55, 34
3, 137050, Note_on_c, 0, 57, 35
3, 137052, Note_on_c, 0, 60, 37
3, 137053, Note_on_c, 0, 65, 47
3, 137386, Note_on_c, 0, 55, 0
3, 137445, Note_on_c, 0, 57, 0
3, 137504, Note_on_c, 0, 60, 0
3, 137511, Note_on_c, 0, 61, 0
3, 137518, Note_on_c, 0, 62, 0
3, 137541, Note_on_c, 0, 65, 0
3, 138860, Note_on_c, 0, 46, 51
3, 139085, Note_on_c, 0, 46, 0
3, 139226, Note_on_c, 0, 56, 64
3, 139231, Note_on_c, 0, 67, 73
3, 139232, Note_on_c, 0, 60, 81
3, 139234, Note_on_c, 0, 64, 80
3, 139355, Note_on_c, 0, 60, 0
3, 139370, Note_on_c, 0, 67, 0
3, 139395, Note_on_c, 0, 64, 0
3, 139530, Note_on_c, 0, 67, 44
3, 139554, Note_on_c, 0, 64, 58
3, 139575, Note_on_c, 0, 60, 25
3, 139635, Note_on_c, 0, 60, 0
3, 139695, Note_on_c, 0, 67, 0
3, 139698, Note_on_c, 0, 64, 0
3, 139851, Note_on_c, 0, 56, 0
3, 139865, Note_on_c, 0, 46, 57
3, 140160, Note_on_c, 0, 46, 0
3, 140225, Note_on_c, 0, 70, 76
3, 140233, Note_on_c, 0, 61, 81
3, 140239, Note_on_c, 0, 66, 76
3, 140248, Note_on_c, 0, 55, 60
3, 140754, Note_on_c, 0, 61, 0
3, 140798, Note_on_c, 0, 66, 0
3, 140810, Note_on_c, 0, 70, 0
3, 140869, Note_on_c, 0, 61, 56
3, 140877, Note_on_c, 0, 65, 64
3, 140898, Note_on_c, 0, 69, 58
3, 140930, Note_on_c, 0, 55, 0
3, 140938, Note_on_c, 0, 52, 44
3, 141236, Note_on_c, 0, 67, 42
3, 141253, Note_on_c, 0, 69, 0
3, 141311, Note_on_c, 0, 52, 0
3, 141455, Control_c, 0, 64, 127
3, 141555, Note_on_c, 0, 67, 0
3, 141570, Note_on_c, 0, 65, 0
3, 141662, Note_on_c, 0, 61, 0
3, 141862, Note_on_c, 0, 45, 39
3, 141953, Control_c, 0, 64, 0
3, 142100, Note_on_c, 0, 45, 0
3, 142125, Note_on_c, 0, 57, 42
3, 142135, Note_on_c, 0, 65, 41
3, 142146, Note_on_c, 0, 60, 46
3, 142152, Note_on_c, 0, 50, 49
3, 142201, Note_on_c, 0, 62, 32
3, 142372, Note_on_c, 0, 57, 0
3, 142556, Note_on_c, 0, 65, 0
3, 142566, Note_on_c, 0, 60, 0
3, 142589, Note_on_c, 0, 62, 0
3, 142703, Note_on_c, 0, 50, 0
3, 142765, Note_on_c, 0, 38, 51
3, 142903, Note_on_c, 0, 38, 0
3, 143126, Note_on_c, 0, 76, 47
3, 143127, Note_on_c, 0, 74, 61
3, 143194, Note_on_c, 0, 69, 53
3, 143467, Note_on_c, 0, 76, 0
3, 143529, Note_on_c, 0, 74, 0
3, 143636, Note_on_c, 0, 69, 0
3, 144722, Note_on_c, 0, 57, 57
3, 144783, Note_on_c, 0, 57, 0
3, 144975, Note_on_c, 0, 74, 79
3, 144978, Note_on_c, 0, 86, 80
3, 145535, Note_on_c, 0, 86, 0
3, 145542, Note_on_c, 0, 74, 0
3, 145736, Note_on_c, 0, 83, 32
3, 145827, Note_on_c, 0, 83, 0
3, 145935, Note_on_c, 0, 67, 51
3, 145944, Note_on_c, 0, 76, 62
3, 145951, Note_on_c, 0, 88, 70
3, 145958, Note_on_c, 0, 56, 45
3, 145960, Note_on_c, 0, 62, 47
3, 146457, Note_on_c, 0, 88, 0
3, 146472, Note_on_c, 0, 76, 0
3, 146486, Note_on_c, 0, 67, 0
3, 146490, Note_on_c, 0, 56, 0
3, 146503, Note_on_c, 0, 62, 0
3, 146607, Note_on_c, 0, 76, 45
3, 146612, Note_on_c, 0, 67, 51
3, 146617, Note_on_c, 0, 88, 41
3, 146626, Note_on_c, 0, 56, 33
3, 146657, Note_on_c, 0, 62, 59
3, 146741, Note_on_c, 0, 76, 0
3, 146758, Note_on_c, 0, 88, 0
3, 146763, Note_on_c, 0, 67, 0
3, 146791, Note_on_c, 0, 62, 0
3, 146825, Note_on_c, 0, 56, 0
3, 147556, Note_on_c, 0, 66, 83
3, 147559, Note_on_c, 0, 61, 69
3, 147570, Note_on_c, 0, 55, 72
3, 147572, Note_on_c, 0, 88, 79
3, 147575, Note_on_c, 0, 82, 77
3, 147577, Note_on_c, 0, 76, 80
3, 148850, Control_c, 0, 64, 127
3, 148962, Note_on_c, 0, 66, 0
3, 149013, Note_on_c, 0, 55, 0
3, 149014, Note_on_c, 0, 61, 0
3, 149195, Note_on_c, 0, 88, 0
3, 149202, Note_on_c, 0, 82, 0
3, 149245, Note_on_c, 0, 76, 0
3, 149526, Control_c, 0, 64, 0
3, 149554, Note_on_c, 0, 45, 88
3, 149852, Note_on_c, 0, 45, 0
3, 149868, Note_on_c, 0, 38, 63
3, 150486, Note_on_c, 0, 45, 62
3, 150605, Note_on_c, 0, 38, 0
3, 150681, Note_on_c, 0, 45, 0
3, 150711, Note_on_c, 0, 62, 63
3, 150717, Note_on_c, 0, 53, 55
3, 150733, Note_on_c, 0, 57, 50
3, 150735, Note_on_c, 0, 50, 61
3, 150776, Note_on_c, 0, 60, 37
3, 151342, Note_on_c, 0, 60, 0
3, 151369, Note_on_c, 0, 62, 0
3, 151498, Note_on_c, 0, 53, 0
3, 151519, Note_on_c, 0, 49, 23
3, 151588, Note_on_c, 0, 57, 0
3, 151650, Note_on_c, 0, 50, 0
3, 151698, Note_on_c, 0, 57, 32
3, 151699, Note_on_c, 0, 49, 0
3, 151701, Note_on_c, 0, 60, 57
3, 151703, Note_on_c, 0, 52, 47
3, 151706, Note_on_c, 0, 53, 46
3, 151730, Note_on_c, 0, 64, 44
3, 152125, Note_on_c, 0, 57, 0
3, 152184, Note_on_c, 0, 53, 0
3, 152253, Control_c, 0, 64, 127
3, 152269, Note_on_c, 0, 60, 0
3, 152327, Note_on_c, 0, 64, 0
3, 152344, Note_on_c, 0, 51, 47
3, 152346, Note_on_c, 0, 52, 0
3, 152462, Control_c, 0, 64, 0
3, 152579, Note_on_c, 0, 53, 50
3, 152591, Note_on_c, 0, 65, 57
3, 152592, Note_on_c, 0, 57, 60
3, 152594, Note_on_c, 0, 60, 60
3, 152606, Note_on_c, 0, 51, 0
3, 152623, Note_on_c, 0, 62, 57
3, 152937, Note_on_c, 0, 62, 0
3, 152990, Note_on_c, 0, 65, 0
3, 153024, Note_on_c, 0, 60, 0
3, 153136, Note_on_c, 0, 57, 0
3, 153149, Control_c, 0, 64, 127
3, 153359, Note_on_c, 0, 55, 50
3, 153368, Note_on_c, 0, 53, 0
3, 153388, Control_c, 0, 64, 0
3, 153566, Note_on_c, 0, 58, 71
3, 153570, Note_on_c, 0, 57, 64
3, 153572, Note_on_c, 0, 55, 0
3, 153573, Note_on_c, 0, 69, 69
3, 153575, Note_on_c, 0, 62, 68
3, 153599, Note_on_c, 0, 64, 55
3, 154415, Note_on_c, 0, 58, 0
3, 154466, Note_on_c, 0, 62, 0
3, 154484, Control_c, 0, 64, 127
3, 154493, Note_on_c, 0, 69, 0
3, 154554, Note_on_c, 0, 64, 0
3, 154608, Note_on_c, 0, 57, 0
3, 155398, Control_c, 0, 64, 0
3, 155501, Note_on_c, 0, 81, 72
3, 155511, Note_on_c, 0, 73, 59
3, 155513, Note_on_c, 0, 69, 71
3, 155518, Note_on_c, 0, 77, 59
3, 155524, Note_on_c, 0, 55, 65
3, 155533, Note_on_c, 0, 61, 65
3, 155535, Note_on_c, 0, 64, 68
3, 156554, Control_c, 0, 64, 127
3, 156669, Note_on_c, 0, 64, 0
3, 156709, Note_on_c, 0, 61, 0
3, 156734, Note_on_c, 0, 55, 0
3, 157251, Note_on_c, 0, 69, 0
3, 157258, Note_on_c, 0, 77, 0
3, 157302, Note_on_c, 0, 73, 0
3, 157303, Control_c, 0, 64, 0
3, 157360, Note_on_c, 0, 81, 0
3, 157418, Note_on_c, 0, 77, 44
3, 157442, Note_on_c, 0, 60, 38
3, 157444, Note_on_c, 0, 57, 45
3, 157471, Note_on_c, 0, 53, 36
3, 157511, Note_on_c, 0, 60, 0
3, 157531, Note_on_c, 0, 57, 0
3, 157569, Note_on_c, 0, 53, 0
3, 157585, Note_on_c, 0, 77, 0
3, 158444, Control_c, 0, 64, 127
3, 159276, Control_c, 0, 64, 0
3, 159362, Note_on_c, 0, 65, 65
3, 159367, Note_on_c, 0, 69, 57
3, 159373, Note_on_c, 0, 60, 68
3, 159391, Note_on_c, 0, 53, 54
3, 159647, Control_c, 0, 64, 127
3, 159693, Note_on_c, 0, 60, 0
3, 159887, Note_on_c, 0, 65, 0
3, 159920, Note_on_c, 0, 69, 0
3, 160005, Note_on_c, 0, 53, 0
3, 160031, Control_c, 0, 64, 0
3, 160045, Note_on_c, 0, 71, 74
3, 160050, Note_on_c, 0, 55, 62
3, 160053, Note_on_c, 0, 67, 71
3, 160055, Note_on_c, 0, 62, 67
3, 160077, Note_on_c, 0, 64, 66
3, 160117, Note_on_c, 0, 69, 27
3, 160132, Note_on_c, 0, 64, 0
3, 160278, Note_on_c, 0, 62, 0
3, 160289, Note_on_c, 0, 67, 0
3, 160325, Note_on_c, 0, 69, 0
3, 160337, Note_on_c, 0, 71, 0
3, 160368, Control_c, 0, 64, 127
3, 160424, Note_on_c, 0, 55, 0
3, 160512, Control_c, 0, 64, 0
3, 160613, Note_on_c, 0, 57, 70
3, 160630, Note_on_c, 0, 62, 81
3, 160631, Note_on_c, 0, 72, 68
3, 160636, Note_on_c, 0, 67, 74
3, 160750, Note_on_c, 0, 62, 0
3, 160752, Note_on_c, 0, 57, 0
3, 160817, Control_c, 0, 64, 127
3, 160825, Note_on_c, 0, 67, 0
3, 160858, Note_on_c, 0, 72, 0
3, 161266, Control_c, 0, 64, 0
3, 161293, Note_on_c, 0, 56, 83
3, 161298, Note_on_c, 0, 74, 103
3, 161300, Note_on_c, 0, 62, 77
3, 161301, Note_on_c, 0, 67, 82
3, 161303, Note_on_c, 0, 77, 85
3, 161733, Control_c, 0, 64, 127
3, 162476, Note_on_c, 0, 67, 0
3, 162495, Note_on_c, 0, 62, 0
3, 162759, Note_on_c, 0, 56, 0
3, 162772, Note_on_c, 0, 74, 0
3, 162829, Note_on_c, 0, 77, 0
3, 163250, Note_on_c, 0, 85, 72
3, 163253, Note_on_c, 0, 61, 68
3, 163255, Note_on_c, 0, 66, 77
3, 163259, Control_c, 0, 64, 0
3, 163261, Note_on_c, 0, 73, 63
3, 163263, Note_on_c, 0, 55, 71
3, 164121, Control_c, 0, 64, 127
3, 164359, Note_on_c, 0, 55, 0
3, 164370, Note_on_c, 0, 66, 0
3, 164488, Note_on_c, 0, 73, 0
3, 164570, Note_on_c, 0, 85, 0
3, 164689, Note_on_c, 0, 61, 0
3, 165048, Control_c, 0, 64, 0
3, 165802, Note_on_c, 0, 64, 67
3, 165805, Note_on_c, 0, 57, 52
3, 165818, Note_on_c, 0, 74, 60
3, 165823, Note_on_c, 0, 86, 60
3, 165825, Note_on_c, 0, 81, 53
3, 165839, Note_on_c, 0, 53, 31
3, 165855, Note_on_c, 0, 64, 0
3, 165879, Note_on_c, 0, 74, 0
3, 165880, Note_on_c, 0, 86, 0
3, 165892, Note_on_c, 0, 81, 0
3, 165910, Note_on_c, 0, 57, 0
3, 165917, Note_on_c, 0, 53, 0
3, 166437, Note_on_c, 0, 61, 50
3, 166440, Note_on_c, 0, 86, 71
3, 166443, Note_on_c, 0, 64, 68
3, 166446, Note_on_c, 0, 74, 64
3, 166457, Note_on_c, 0, 57, 40
3, 166468, Note_on_c, 0, 81, 51
3, 166490, Note_on_c, 0, 53, 26
3, 166536, Note_on_c, 0, 81, 0
3, 166567, Note_on_c, 0, 74, 0
3, 166578, Note_on_c, 0, 64, 0
3, 166581, Note_on_c, 0, 61, 0
3, 166588, Note_on_c, 0, 86, 0
3, 166596, Note_on_c, 0, 53, 0
3, 166616, Note_on_c, 0, 57, 0
3, 167093, Note_on_c, 0, 61, 64
3, 167111, Note_on_c, 0, 64, 71
3, 167125, Note_on_c, 0, 57, 45
3, 167129, Note_on_c, 0, 53, 50
3, 167142, Note_on_c, 0, 86, 71
3, 167147, Note_on_c, 0, 74, 67
3, 167158, Note_on_c, 0, 81, 60
3, 168051, Control_c, 0, 64, 127
3, 168277, Note_on_c, 0, 61, 0
3, 168333, Note_on_c, 0, 64, 0
3, 168397, Note_on_c, 0, 57, 0
3, 168582, Note_on_c, 0, 53, 0
3, 168822, Control_c, 0, 64, 0
3, 168967, Note_on_c, 0, 62, 54
3, 168970, Note_on_c, 0, 52, 50
3, 168979, Note_on_c, 0, 58, 46
3, 169720, Control_c, 0, 64, 127
3, 169885, Note_on_c, 0, 52, 0
3, 169966, Note_on_c, 0, 58, 0
3, 170018, Note_on_c, 0, 62, 0
3, 170019, Note_on_c, 0, 74, 0
3, 170193, Note_on_c, 0, 86, 0
3, 170237, Note_on_c, 0, 81, 0
3, 170569, Note_on_c, 0, 61, 47
3, 170576, Note_on_c, 0, 64, 47
3, 170579, Note_on_c, 0, 58, 44
3, 170610, Note_on_c, 0, 55, 27
3, 170614, Control_c, 0, 64, 0
3, 170648, Note_on_c, 0, 64, 0
3, 170698, Note_on_c, 0, 55, 0
3, 170726, Note_on_c, 0, 61, 0
3, 170779, Note_on_c, 0, 58, 0
3, 171189, Note_on_c, 0, 92, 49
3, 171445, Note_on_c, 0, 92, 0
3, 171447, Note_on_c, 0, 93, 61
3, 171632, Note_on_c, 0, 93, 0
3, 171724, Note_on_c, 0, 98, 83
3, 171772, Note_on_c, 0, 61, 42
3, 171774, Note_on_c, 0, 64, 50
3, 171788, Note_on_c, 0, 58, 37
3, 171814, Note_on_c, 0, 55, 29
3, 171834, Note_on_c, 0, 64, 0
3, 171899, Note_on_c, 0, 61, 0
3, 171943, Note_on_c, 0, 98, 0
3, 171948, Note_on_c, 0, 55, 0
3, 171975, Note_on_c, 0, 58, 0
3, 172063, Note_on_c, 0, 91, 64
3, 172206, Note_on_c, 0, 92, 64
3, 172209, Note_on_c, 0, 91, 0
3, 172383, Note_on_c, 0, 91, 47
3, 172420, Note_on_c, 0, 92, 0
3, 172513, Note_on_c, 0, 91, 0
3, 172538, Note_on_c, 0, 89, 35
3, 172696, Note_on_c, 0, 88, 57
3, 172698, Note_on_c, 0, 89, 0
3, 172828, Note_on_c, 0, 88, 0
3, 172903, Note_on_c, 0, 91, 74
3, 173119, Note_on_c, 0, 91, 0
3, 173335, Note_on_c, 0, 89, 77
3, 173506, Note_on_c, 0, 89, 0
3, 173610, Note_on_c, 0, 86, 68
3, 173762, Note_on_c, 0, 86, 0
3, 173897, Note_on_c, 0, 81, 30
3, 174199, Note_on_c, 0, 81, 0
3, 174391, Note_on_c, 0, 79, 69
3, 174396, Note_on_c, 0, 86, 68
3, 174613, Note_on_c, 0, 86, 0
3, 174657, Note_on_c, 0, 79, 0
3, 174735, Note_on_c, 0, 77, 34
3, 175236, Note_on_c, 0, 77, 0
3, 175351, Note_on_c, 0, 74, 56
3, 175550, Note_on_c, 0, 74, 0
3, 175692, Note_on_c, 0, 69, 33
3, 176140, Note_on_c, 0, 69, 0
3, 176617, Note_on_c, 0, 62, 40
3, 176625, Note_on_c, 0, 58, 38
3, 176638, Note_on_c, 0, 52, 34
3, 176914, Note_on_c, 0, 52, 0
3, 176973, Note_on_c, 0, 58, 0
3, 177016, Note_on_c, 0, 62, 0
3, 178568, Note_on_c, 0, 61, 50
3, 178570, Note_on_c, 0, 64, 56
3, 178591, Note_on_c, 0, 58, 47
3, 178642, Note_on_c, 0, 64, 0
3, 178716, Note_on_c, 0, 61, 0
3, 178762, Note_on_c, 0, 58, 0
3, 179249, Note_on_c, 0, 76, 95
3, 179463, Note_on_c, 0, 76, 0
3, 179635, Note_on_c, 0, 79, 83
3, 179975, Note_on_c, 0, 79, 0
3, 180193, Note_on_c, 0, 45, 85
3, 180197, Note_on_c, 0, 38, 79
3, 180199, Note_on_c, 0, 77, 80
3, 180306, Note_on_c, 0, 45, 0
3, 180319, Note_on_c, 0, 38, 0
3, 180423, Note_on_c, 0, 77, 0
3, 180611, Note_on_c, 0, 65, 50
3, 181061, Note_on_c, 0, 65, 0
3, 181197, Note_on_c, 0, 69, 47
3, 181359, Note_on_c, 0, 69, 0
3, 181467, Note_on_c, 0, 55, 65
3, 181470, Note_on_c, 0, 74, 90
3, 181471, Note_on_c, 0, 60, 64
3, 181477, Note_on_c, 0, 50, 60
3, 181655, Note_on_c, 0, 60, 0
3, 181731, Note_on_c, 0, 50, 0
3, 181733, Note_on_c, 0, 55, 0
3, 181957, Note_on_c, 0, 74, 0
3, 182138, Note_on_c, 0, 67, 80
3, 182142, Note_on_c, 0, 74, 71
3, 182182, Note_on_c, 0, 68, 52
3, 182369, Note_on_c, 0, 67, 0
3, 182394, Note_on_c, 0, 68, 0
3, 182410, Note_on_c, 0, 69, 35
3, 182658, Note_on_c, 0, 67, 62
3, 182690, Note_on_c, 0, 69, 0
3, 182813, Note_on_c, 0, 74, 0
3, 183122, Note_on_c, 0, 67, 0
3, 183177, Note_on_c, 0, 62, 71
3, 183191, Note_on_c, 0, 60, 41
3, 183212, Note_on_c, 0, 55, 40
3, 183255, Note_on_c, 0, 60, 0
3, 183314, Note_on_c, 0, 62, 0
3, 183328, Note_on_c, 0, 55, 0
3, 183431, Note_on_c, 0, 65, 75
3, 183980, Note_on_c, 0, 65, 0
3, 184061, Note_on_c, 0, 67, 69
3, 184087, Note_on_c, 0, 62, 71
3, 184103, Note_on_c, 0, 58, 56
3, 184114, Note_on_c, 0, 52, 48
3, 184143, Note_on_c, 0, 62, 0
3, 184199, Note_on_c, 0, 52, 0
3, 184228, Note_on_c, 0, 67, 0
3, 184248, Note_on_c, 0, 58, 0
3, 184330, Note_on_c, 0, 64, 66
3, 184946, Note_on_c, 0, 64, 0
3, 185220, Note_on_c, 0, 62, 66
3, 185284, Note_on_c, 0, 55, 36
3, 185476, Note_on_c, 0, 55, 0
3, 185892, Note_on_c, 0, 62, 0
3, 185938, Note_on_c, 0, 59, 30
3, 185946, Note_on_c, 0, 45, 47
3, 186051, Note_on_c, 0, 59, 0
3, 186181, Note_on_c, 0, 61, 58
3, 186186, Note_on_c, 0, 45, 0
3, 186896, Note_on_c, 0, 52, 52
3, 186927, Note_on_c, 0, 67, 66
3, 186965, Note_on_c, 0, 52, 0
3, 187127, Note_on_c, 0, 61, 0
3, 187135, Note_on_c, 0, 67, 0
3, 187249, Note_on_c, 0, 58, 52
3, 187855, Note_on_c, 0, 58, 0
3, 187858, Note_on_c, 0, 36, 65
3, 187869, Note_on_c, 0, 57, 64
3, 187962, Note_on_c, 0, 36, 0
3, 188365, Note_on_c, 0, 57, 0
3, 188408, Note_on_c, 0, 65, 66
3, 189128, Note_on_c, 0, 62, 51
3, 189682, Note_on_c, 0, 65, 0
3, 189800, Note_on_c, 0, 62, 0
3, 189858, Note_on_c, 0, 57, 35
3, 190035, Note_on_c, 0, 57, 0
3, 192000, Note_on_c, 0, 63, 42
3, 192026, Note_on_c, 0, 57, 42
3, 192032, Note_on_c, 0, 55, 43
3, 192038, Note_on_c, 0, 60, 44
3, 192557, Note_on_c, 0, 60, 0
3, 192778, Note_on_c, 0, 60, 34
3, 192908, Note_on_c, 0, 63, 0
3, 193049, Note_on_c, 0, 89, 94
3, 193229, Note_on_c, 0, 89, 0
3, 193257, Note_on_c, 0, 55, 0
3, 193333, Note_on_c, 0, 87, 57
3, 193380, Note_on_c, 0, 57, 0
3, 193407, Note_on_c, 0, 60, 0
3, 193478, Note_on_c, 0, 87, 0
3, 193567, Note_on_c, 0, 89, 88
3, 193820, Note_on_c, 0, 87, 70
3, 193882, Note_on_c, 0, 89, 0
3, 193906, Note_on_c, 0, 65, 36
3, 193926, Note_on_c, 0, 60, 32
3, 193945, Note_on_c, 0, 54, 36
3, 194038, Note_on_c, 0, 84, 62
3, 194076, Note_on_c, 0, 87, 0
3, 194194, Note_on_c, 0, 65, 0
3, 194239, Note_on_c, 0, 84, 0
3, 194274, Note_on_c, 0, 78, 53
3, 194500, Note_on_c, 0, 78, 0
3, 194529, Note_on_c, 0, 77, 43
3, 194695, Note_on_c, 0, 60, 0
3, 194710, Note_on_c, 0, 77, 0
3, 194768, Note_on_c, 0, 75, 68
3, 194833, Note_on_c, 0, 60, 20
3, 194842, Note_on_c, 0, 65, 34
3, 194977, Note_on_c, 0, 75, 0
3, 195015, Note_on_c, 0, 74, 46
3, 195033, Note_on_c, 0, 65, 0
3, 195144, Note_on_c, 0, 60, 0
3, 195177, Note_on_c, 0, 74, 0
3, 195242, Note_on_c, 0, 72, 41
3, 195418, Note_on_c, 0, 72, 0
3, 195433, Note_on_c, 0, 70, 31
3, 195521, Note_on_c, 0, 54, 0
3, 195663, Note_on_c, 0, 70, 0
3, 195707, Note_on_c, 0, 69, 46
3, 195838, Note_on_c, 0, 69, 0
3, 195850, Note_on_c, 0, 58, 42
3, 195862, Note_on_c, 0, 62, 36
3, 195882, Note_on_c, 0, 53, 22
3, 195890, Note_on_c, 0, 57, 29
3, 195895, Note_on_c, 0, 72, 71
3, 196143, Note_on_c, 0, 72, 0
3, 196159, Note_on_c, 0, 62, 0
3, 196209, Note_on_c, 0, 69, 26
3, 196295, Note_on_c, 0, 69, 0
3, 196323, Note_on_c, 0, 58, 0
3, 196335, Note_on_c, 0, 57, 0
3, 196349, Note_on_c, 0, 70, 62
3, 196489, Note_on_c, 0, 53, 0
3, 196617, Note_on_c, 0, 62, 58
3, 196755, Note_on_c, 0, 62, 0
3, 196922, Note_on_c, 0, 62, 53
3, 197234, Note_on_c, 0, 62, 0
3, 197445, Note_on_c, 0, 62, 63
3, 197597, Note_on_c, 0, 62, 0
3, 197673, Note_on_c, 0, 70, 0
3, 197775, Note_on_c, 0, 62, 28
3, 197779, Note_on_c, 0, 58, 45
3, 197808, Note_on_c, 0, 57, 33
3, 198369, Note_on_c, 0, 62, 0
3, 198625, Note_on_c, 0, 57, 0
3, 198698, Note_on_c, 0, 54, 50
3, 198711, Note_on_c, 0, 62, 46
3, 199208, Note_on_c, 0, 62, 0
3, 199336, Note_on_c, 0, 54, 0
3, 199338, Note_on_c, 0, 58, 0
3, 199421, Note_on_c, 0, 105, 103
3, 199422, Note_on_c, 0, 62, 57
3, 199424, Note_on_c, 0, 58, 31
3, 199447, Note_on_c, 0, 53, 41
3, 199820, Note_on_c, 0, 106, 60
3, 199834, Note_on_c, 0, 105, 0
3, 199981, Note_on_c, 0, 105, 53
3, 200031, Note_on_c, 0, 62, 0
3, 200049, Note_on_c, 0, 106, 0
3, 200053, Note_on_c, 0, 58, 0
3, 200140, Note_on_c, 0, 103, 50
3, 200149, Note_on_c, 0, 105, 0
3, 200261, Note_on_c, 0, 103, 0
3, 200374, Note_on_c, 0, 102, 74
3, 200448, Note_on_c, 0, 62, 33
3, 200556, Note_on_c, 0, 102, 0
3, 200614, Note_on_c, 0, 105, 76
3, 200618, Note_on_c, 0, 62, 0
3, 200882, Note_on_c, 0, 102, 57
3, 200888, Note_on_c, 0, 105, 0
3, 200991, Note_on_c, 0, 102, 0
3, 201117, Note_on_c, 0, 103, 77
3, 201313, Note_on_c, 0, 53, 0
3, 201324, Note_on_c, 0, 103, 0
3, 201362, Note_on_c, 0, 98, 63
3, 201524, Note_on_c, 0, 98, 0
3, 201609, Note_on_c, 0, 62, 50
3, 201634, Note_on_c, 0, 94, 67
3, 201640, Note_on_c, 0, 58, 28
3, 201693, Note_on_c, 0, 62, 0
3, 201769, Note_on_c, 0, 58, 0
3, 201878, Note_on_c, 0, 94, 0
3, 201915, Note_on_c, 0, 93, 61
3, 202199, Note_on_c, 0, 93, 0
3, 202524, Note_on_c, 0, 62, 34
3, 202552, Note_on_c, 0, 58, 25
3, 202602, Note_on_c, 0, 62, 0
3, 202626, Note_on_c, 0, 98, 84
3, 202706, Note_on_c, 0, 58, 0
3, 202879, Note_on_c, 0, 94, 69
3, 202883, Note_on_c, 0, 98, 0
3, 203093, Note_on_c, 0, 94, 0
3, 203123, Note_on_c, 0, 91, 66
3, 203314, Note_on_c, 0, 91, 0
3, 203375, Note_on_c, 0, 86, 61
3, 203460, Note_on_c, 0, 86, 0
3, 203617, Note_on_c, 0, 88, 71
3, 203967, Note_on_c, 0, 88, 0
3, 204200, Note_on_c, 0, 76, 49
3, 204208, Note_on_c, 0, 57, 66
3, 204210, Note_on_c, 0, 66, 70
3, 204221, Note_on_c, 0, 74, 33
3, 204230, Note_on_c, 0, 62, 66
3, 204283, Note_on_c, 0, 74, 0
3, 204396, Note_on_c, 0, 76, 0
3, 204605, Note_on_c, 0, 81, 32
3, 204866, Note_on_c, 0, 57, 0
3, 204895, Note_on_c, 0, 62, 0
3, 204923, Note_on_c, 0, 66, 0
3, 205055, Note_on_c, 0, 81, 0
3, 205172, Note_on_c, 0, 66, 55
3, 205184, Note_on_c, 0, 84, 73
3, 205212, Note_on_c, 0, 57, 34
3, 205258, Note_on_c, 0, 62, 33
3, 205290, Note_on_c, 0, 57, 0
3, 205322, Note_on_c, 0, 66, 0
3, 205335, Note_on_c, 0, 84, 0
3, 205337, Note_on_c, 0, 62, 0
3, 205463, Note_on_c, 0, 56, 80
3, 205464, Note_on_c, 0, 67, 76
3, 205466, Note_on_c, 0, 62, 61
3, 205471, Note_on_c, 0, 89, 78
3, 205475, Note_on_c, 0, 84, 74
3, 205477, Note_on_c, 0, 77, 82
3, 206068, Note_on_c, 0, 89, 0
3, 206189, Note_on_c, 0, 84, 0
3, 206197, Note_on_c, 0, 77, 0
3, 206199, Note_on_c, 0, 67, 0
3, 206205, Note_on_c, 0, 62, 0
3, 206217, Note_on_c, 0, 56, 0
3, 206435, Note_on_c, 0, 56, 69
3, 206437, Note_on_c, 0, 67, 68
3, 206439, Note_on_c, 0, 88, 74
3, 206445, Note_on_c, 0, 83, 76
3, 206447, Note_on_c, 0, 76, 70
3, 206459, Note_on_c, 0, 62, 66
3, 206481, Control_c, 0, 64, 127
3, 206705, Note_on_c, 0, 67, 0
3, 206742, Note_on_c, 0, 62, 0
3, 206745, Note_on_c, 0, 88, 0
3, 206805, Note_on_c, 0, 83, 0
3, 206816, Note_on_c, 0, 76, 0
3, 206878, Note_on_c, 0, 56, 0
3, 207069, Note_on_c, 0, 86, 75
3, 207074, Control_c, 0, 64, 0
3, 207079, Note_on_c, 0, 81, 74
3, 207081, Note_on_c, 0, 74, 76
3, 207087, Note_on_c, 0, 62, 68
3, 207101, Note_on_c, 0, 58, 52
3, 207118, Note_on_c, 0, 53, 45
3, 207290, Note_on_c, 0, 86, 0
3, 207315, Note_on_c, 0, 62, 0
3, 207322, Note_on_c, 0, 81, 0
3, 207358, Note_on_c, 0, 74, 0
3, 207366, Note_on_c, 0, 53, 0
3, 207383, Note_on_c, 0, 58, 0
3, 207485, Note_on_c, 0, 84, 68
3, 207498, Note_on_c, 0, 62, 48
3, 207505, Note_on_c, 0, 53, 38
3, 207506, Note_on_c, 0, 72, 44
3, 207512, Note_on_c, 0, 58, 47
3, 207515, Note_on_c, 0, 57, 32
3, 207522, Note_on_c, 0, 79, 47
3, 207909, Note_on_c, 0, 62, 0
3, 207923, Note_on_c, 0, 79, 0
3, 207937, Note_on_c, 0, 84, 0
3, 207938, Note_on_c, 0, 72, 0
3, 207943, Note_on_c, 0, 53, 0
3, 207949, Note_on_c, 0, 57, 0
3, 207956, Note_on_c, 0, 58, 0
3, 209023, Note_on_c, 0, 61, 71
3, 209033, Note_on_c, 0, 58, 68
3, 209061, Note_on_c, 0, 52, 58
3, 209743, Note_on_c, 0, 87, 85
3, 209893, Note_on_c, 0, 58, 0
3, 209953, Note_on_c, 0, 87, 0
3, 210037, Note_on_c, 0, 61, 0
3, 210107, Note_on_c, 0, 85, 46
3, 210192, Note_on_c, 0, 52, 0
3, 210245, Note_on_c, 0, 85, 0
3, 210335, Note_on_c, 0, 61, 53
3, 210338, Note_on_c, 0, 52, 36
3, 210361, Note_on_c, 0, 58, 54
3, 210363, Note_on_c, 0, 87, 84
3, 210550, Note_on_c, 0, 87, 0
3, 210599, Note_on_c, 0, 52, 0
3, 210664, Note_on_c, 0, 85, 73
3, 210672, Note_on_c, 0, 61, 0
3, 210698, Note_on_c, 0, 58, 0
3, 210918, Note_on_c, 0, 82, 56
3, 211010, Note_on_c, 0, 57, 32
3, 211016, Note_on_c, 0, 85, 0
3, 211023, Note_on_c, 0, 60, 28
3, 211131, Note_on_c, 0, 82, 0
3, 211210, Note_on_c, 0, 75, 32
3, 211272, Note_on_c, 0, 75, 0
3, 211283, Note_on_c, 0, 53, 1
3, 211483, Note_on_c, 0, 84, 91
3, 211654, Note_on_c, 0, 60, 0
3, 211735, Note_on_c, 0, 84, 0
3, 211927, Note_on_c, 0, 81, 83
3, 211931, Note_on_c, 0, 84, 80
3, 211988, Note_on_c, 0, 83, 47
3, 212064, Note_on_c, 0, 83, 0
3, 212090, Note_on_c, 0, 84, 0
3, 212133, Note_on_c, 0, 81, 0
3, 212274, Note_on_c, 0, 76, 60
3, 212391, Note_on_c, 0, 57, 0
3, 212577, Note_on_c, 0, 53, 0
3, 212758, Note_on_c, 0, 76, 0
3, 212795, Note_on_c, 0, 72, 65
3, 212855, Note_on_c, 0, 64, 37
3, 212890, Note_on_c, 0, 60, 33
3, 212905, Note_on_c, 0, 57, 34
3, 212927, Note_on_c, 0, 64, 0
3, 213043, Note_on_c, 0, 72, 0
3, 213248, Note_on_c, 0, 69, 37
3, 213251, Note_on_c, 0, 71, 34
3, 213287, Note_on_c, 0, 60, 0
3, 213321, Note_on_c, 0, 57, 0
3, 213338, Note_on_c, 0, 71, 0
3, 213631, Note_on_c, 0, 69, 0
3, 213780, Note_on_c, 0, 67, 58
3, 213895, Note_on_c, 0, 67, 0
3, 214050, Note_on_c, 0, 64, 31
3, 214065, Note_on_c, 0, 57, 35
3, 214127, Note_on_c, 0, 60, 19
3, 214225, Note_on_c, 0, 60, 0
3, 214272, Note_on_c, 0, 64, 0
3, 214341, Note_on_c, 0, 57, 0
3, 214740, Note_on_c, 0, 62, 74
3, 214746, Note_on_c, 0, 58, 68
3, 214749, Note_on_c, 0, 52, 71
3, 214883, Note_on_c, 0, 62, 0
3, 214957, Note_on_c, 0, 52, 0
3, 214983, Note_on_c, 0, 58, 0
3, 215424, Note_on_c, 0, 81, 69
3, 215439, Note_on_c, 0, 79, 68
3, 215490, Note_on_c, 0, 79, 0
3, 215630, Note_on_c, 0, 81, 0
3, 215728, Note_on_c, 0, 58, 28
3, 215751, Note_on_c, 0, 78, 34
3, 215902, Note_on_c, 0, 78, 0
3, 215932, Note_on_c, 0, 58, 0
3, 216015, Note_on_c, 0, 81, 75
3, 216039, Note_on_c, 0, 69, 68
3, 216068, Note_on_c, 0, 80, 33
3, 216130, Note_on_c, 0, 80, 0
3, 216250, Note_on_c, 0, 69, 0
3, 216274, Note_on_c, 0, 81, 0
3, 216356, Note_on_c, 0, 78, 39
3, 216538, Note_on_c, 0, 78, 0
3, 216666, Note_on_c, 0, 66, 69
3, 216672, Note_on_c, 0, 55, 64
3, 216674, Note_on_c, 0, 61, 58
3, 216690, Note_on_c, 0, 72, 76
3, 216692, Note_on_c, 0, 84, 85
3, 216948, Note_on_c, 0, 72, 0
3, 216951, Note_on_c, 0, 84, 0
3, 217071, Note_on_c, 0, 81, 37
3, 217098, Note_on_c, 0, 55, 0
3, 217136, Note_on_c, 0, 66, 0
3, 217185, Note_on_c, 0, 61, 0
3, 217231, Note_on_c, 0, 81, 0
3, 217319, Note_on_c, 0, 66, 76
3, 217322, Note_on_c, 0, 84, 81
3, 217325, Note_on_c, 0, 61, 59
3, 217329, Note_on_c, 0, 55, 72
3, 217334, Note_on_c, 0, 72, 73
3, 217605, Note_on_c, 0, 72, 0
3, 217648, Note_on_c, 0, 84, 0
3, 217712, Note_on_c, 0, 81, 39
3, 217745, Note_on_c, 0, 55, 0
3, 217770, Note_on_c, 0, 66, 0
3, 217784, Note_on_c, 0, 61, 0
3, 217819, Note_on_c, 0, 81, 0
3, 218039, Note_on_c, 0, 87, 78
3, 218041, Note_on_c, 0, 66, 82
3, 218044, Note_on_c, 0, 75, 80
3, 218055, Note_on_c, 0, 61, 67
3, 218058, Note_on_c, 0, 55, 72
3, 218249, Note_on_c, 0, 75, 0
3, 218278, Note_on_c, 0, 87, 0
3, 218281, Note_on_c, 0, 66, 0
3, 218318, Note_on_c, 0, 55, 0
3, 218345, Note_on_c, 0, 61, 0
3, 218429, Note_on_c, 0, 82, 32
3, 218639, Note_on_c, 0, 82, 0
3, 218714, Note_on_c, 0, 87, 74
3, 218717, Note_on_c, 0, 75, 75
3, 218730, Note_on_c, 0, 54, 60
3, 218754, Note_on_c, 0, 61, 67
3, 218756, Note_on_c, 0, 66, 70
3, 218775, Note_on_c, 0, 55, 66
3, 218780, Note_on_c, 0, 54, 0
3, 218919, Note_on_c, 0, 66, 0
3, 218958, Note_on_c, 0, 75, 0
3, 219034, Note_on_c, 0, 55, 0
3, 219105, Note_on_c, 0, 82, 44
3, 219128, Note_on_c, 0, 87, 0
3, 219260, Note_on_c, 0, 61, 0
3, 219279, Note_on_c, 0, 82, 0
3, 219343, Note_on_c, 0, 61, 40
3, 219362, Note_on_c, 0, 64, 68
3, 219374, Note_on_c, 0, 54, 59
3, 219376, Note_on_c, 0, 78, 69
3, 219378, Note_on_c, 0, 90, 75
3, 219402, Note_on_c, 0, 59, 54
3, 219599, Note_on_c, 0, 90, 0
3, 219694, Note_on_c, 0, 59, 0
3, 219748, Note_on_c, 0, 64, 0
3, 219751, Note_on_c, 0, 86, 46
3, 219794, Note_on_c, 0, 54, 0
3, 219806, Note_on_c, 0, 78, 0
3, 219827, Note_on_c, 0, 61, 0
3, 219934, Note_on_c, 0, 86, 0
3, 219962, Note_on_c, 0, 61, 60
3, 219966, Note_on_c, 0, 54, 60
3, 219971, Note_on_c, 0, 90, 72
3, 219977, Note_on_c, 0, 64, 71
3, 219982, Note_on_c, 0, 78, 63
3, 219993, Note_on_c, 0, 59, 68
3, 220313, Note_on_c, 0, 78, 0
3, 220393, Note_on_c, 0, 59, 0
3, 220394, Note_on_c, 0, 64, 0
3, 220399, Note_on_c, 0, 90, 0
3, 220447, Note_on_c, 0, 54, 0
3, 220457, Note_on_c, 0, 61, 0
3, 220570, Note_on_c, 0, 54, 57
3, 220578, Note_on_c, 0, 61, 74
3, 220586, Note_on_c, 0, 64, 77
3, 220594, Note_on_c, 0, 59, 69
3, 220599, Note_on_c, 0, 81, 80
3, 220601, Note_on_c, 0, 93, 76
3, 220615, Note_on_c, 0, 91, 78
3, 220850, Control_c, 0, 64, 127
3, 221487, Note_on_c, 0, 81, 0
3, 221511, Note_on_c, 0, 64, 0
3, 221517, Note_on_c, 0, 93, 0
3, 221534, Note_on_c, 0, 59, 0
3, 221543, Note_on_c, 0, 54, 0
3, 221549, Note_on_c, 0, 61, 0
3, 221556, Note_on_c, 0, 91, 0
3, 221631, Control_c, 0, 64, 0
3, 221698, Note_on_c, 0, 61, 57
3, 221702, Note_on_c, 0, 54, 54
3, 221706, Note_on_c, 0, 64, 66
3, 221725, Note_on_c, 0, 59, 57
3, 221732, Note_on_c, 0, 95, 74
3, 221741, Note_on_c, 0, 83, 67
3, 221953, Control_c, 0, 64, 127
3, 222102, Note_on_c, 0, 95, 0
3, 222148, Note_on_c, 0, 83, 0
3, 222171, Note_on_c, 0, 64, 0
3, 222173, Note_on_c, 0, 59, 0
3, 222220, Note_on_c, 0, 61, 0
3, 222228, Note_on_c, 0, 54, 0
3, 222322, Control_c, 0, 64, 0
3, 222425, Note_on_c, 0, 61, 61
3, 222428, Note_on_c, 0, 85, 62
3, 222430, Note_on_c, 0, 64, 66
3, 222434, Note_on_c, 0, 97, 70
3, 222442, Note_on_c, 0, 54, 51
3, 222472, Note_on_c, 0, 59, 40
3, 222484, Note_on_c, 0, 64, 0
3, 222528, Note_on_c, 0, 85, 0
3, 222530, Note_on_c, 0, 54, 0
3, 222542, Note_on_c, 0, 97, 0
3, 222550, Note_on_c, 0, 59, 0
3, 222576, Note_on_c, 0, 61, 0
3, 223402, Note_on_c, 0, 62, 74
3, 223409, Note_on_c, 0, 55, 70
3, 223413, Note_on_c, 0, 66, 85
3, 223418, Note_on_c, 0, 98, 79
3, 223420, Note_on_c, 0, 86, 89
3, 223425, Note_on_c, 0, 91, 83
3, 223426, Note_on_c, 0, 95, 78
3, 223439, Note_on_c, 0, 59, 66
3, 223640, Control_c, 0, 64, 127
3, 223852, Note_on_c, 0, 86, 0
3, 223858, Note_on_c, 0, 91, 0
3, 223927, Note_on_c, 0, 98, 0
3, 223983, Note_on_c, 0, 95, 0
3, 224067, Note_on_c, 0, 62, 0
3, 224146, Note_on_c, 0, 59, 0
3, 224210, Note_on_c, 0, 55, 0
3, 224233, Note_on_c, 0, 66, 0
3, 224552, Control_c, 0, 64, 0
3, 224693, Note_on_c, 0, 66, 88
3, 224698, Note_on_c, 0, 61, 74
3, 224702, Note_on_c, 0, 55, 79
3, 224717, Note_on_c, 0, 105, 88
3, 224721, Note_on_c, 0, 100, 81
3, 224723, Note_on_c, 0, 93, 92
3, 224845, Note_on_c, 0, 105, 0
3, 225044, Note_on_c, 0, 93, 0
3, 225098, Note_on_c, 0, 100, 0
3, 225099, Note_on_c, 0, 55, 0
3, 225130, Note_on_c, 0, 66, 0
3, 225213, Note_on_c, 0, 61, 0
3, 225332, Note_on_c, 0, 92, 84
3, 225338, Note_on_c, 0, 104, 81
3, 225343, Note_on_c, 0, 61, 68
3, 225347, Note_on_c, 0, 66, 80
3, 225349, Note_on_c, 0, 99, 70
3, 225365, Note_on_c, 0, 55, 74
3, 225560, Note_on_c, 0, 66, 0
3, 225573, Note_on_c, 0, 55, 0
3, 225594, Note_on_c, 0, 104, 0
3, 225600, Note_on_c, 0, 99, 0
3, 225604, Note_on_c, 0, 92, 0
3, 225650, Note_on_c, 0, 61, 0
3, 225709, Note_on_c, 0, 66, 64
3, 225711, Note_on_c, 0, 61, 47
3, 225720, Note_on_c, 0, 55, 55
3, 225736, Note_on_c, 0, 103, 54
3, 225744, Note_on_c, 0, 91, 60
3, 225768, Note_on_c, 0, 98, 55
3, 225893, Note_on_c, 0, 66, 0
3, 225900, Note_on_c, 0, 55, 0
3, 225919, Note_on_c, 0, 103, 0
3, 225935, Note_on_c, 0, 91, 0
3, 225951, Note_on_c, 0, 61, 0
3, 225981, Note_on_c, 0, 98, 0
3, 226283, Note_on_c, 0, 61, 85
3, 226304, Note_on_c, 0, 57, 66
3, 226316, Note_on_c, 0, 102, 74
3, 226317, Note_on_c, 0, 90, 77
3, 226331, Note_on_c, 0, 51, 19
3, 226333, Note_on_c, 0, 50, 57
3, 226335, Note_on_c, 0, 97, 63
3, 226365, Note_on_c, 0, 57, 0
3, 226395, Note_on_c, 0, 50, 0
3, 226475, Note_on_c, 0, 61, 0
3, 226512, Note_on_c, 0, 97, 0
3, 226517, Note_on_c, 0, 90, 0
3, 226528, Note_on_c, 0, 102, 0
3, 226530, Note_on_c, 0, 51, 0
3, 226624, Note_on_c, 0, 60, 60
3, 226626, Note_on_c, 0, 57, 19
3, 226633, Note_on_c, 0, 50, 45
3, 226646, Note_on_c, 0, 101, 60
3, 226661, Note_on_c, 0, 53, 44
3, 226669, Note_on_c, 0, 96, 49
3, 226676, Note_on_c, 0, 89, 30
3, 227118, Note_on_c, 0, 101, 0
3, 227141, Note_on_c, 0, 96, 0
3, 227162, Note_on_c, 0, 89, 0
3, 227173, Note_on_c, 0, 60, 0
3, 227178, Note_on_c, 0, 50, 0
3, 227180, Note_on_c, 0, 57, 0
3, 227190, Note_on_c, 0, 53, 0
3, 227540, Note_on_c, 0, 60, 56
3, 227550, Note_on_c, 0, 50, 44
3, 227554, Note_on_c, 0, 98, 62
3, 227557, Note_on_c, 0, 57, 46
3, 227559, Note_on_c, 0, 86, 60
3, 227572, Note_on_c, 0, 53, 37
3, 227574, Note_on_c, 0, 93, 62
3, 227881, Note_on_c, 0, 86, 0
3, 227907, Note_on_c, 0, 93, 0
3, 227954, Note_on_c, 0, 98, 0
3, 227976, Note_on_c, 0, 57, 0
3, 227978, Note_on_c, 0, 53, 0
3, 227981, Note_on_c, 0, 60, 0
3, 227985, Note_on_c, 0, 50, 0
3, 228472, Note_on_c, 0, 60, 51
3, 228477, Note_on_c, 0, 101, 66
3, 228480, Note_on_c, 0, 89, 68
3, 228486, Note_on_c, 0, 96, 64
3, 228492, Note_on_c, 0, 50, 47
3, 228493, Note_on_c, 0, 57, 40
3, 228513, Note_on_c, 0, 53, 44
3, 228810, Note_on_c, 0, 101, 0
3, 228893, Note_on_c, 0, 96, 0
3, 228968, Note_on_c, 0, 89, 0
3, 229163, Note_on_c, 0, 60, 0
3, 229187, Note_on_c, 0, 50, 0
3, 229211, Note_on_c, 0, 57, 0
3, 229284, Note_on_c, 0, 53, 0
3, 230373, Note_on_c, 0, 67, 51
3, 230387, Note_on_c, 0, 56, 51
3, 230410, Note_on_c, 0, 62, 50
3, 230702, Note_on_c, 0, 62, 0
3, 230862, Note_on_c, 0, 67, 0
3, 231106, Note_on_c, 0, 56, 0
3, 231370, Note_on_c, 0, 91, 101
3, 231527, Note_on_c, 0, 92, 55
3, 231528, Note_on_c, 0, 98, 9
3, 231728, Note_on_c, 0, 98, 0
3, 231770, Note_on_c, 0, 93, 29
3, 231791, Note_on_c, 0, 91, 0
3, 231794, Note_on_c, 0, 92, 0
3, 231903, Note_on_c, 0, 93, 0
3, 232104, Note_on_c, 0, 98, 85
3, 232135, Note_on_c, 0, 66, 69
3, 232152, Note_on_c, 0, 61, 50
3, 232157, Note_on_c, 0, 55, 57
3, 232327, Note_on_c, 0, 66, 0
3, 232351, Note_on_c, 0, 98, 0
3, 232740, Note_on_c, 0, 91, 105
3, 232754, Note_on_c, 0, 98, 81
3, 232756, Note_on_c, 0, 55, 0
3, 232763, Note_on_c, 0, 61, 0
3, 233065, Note_on_c, 0, 92, 50
3, 233071, Note_on_c, 0, 91, 0
3, 233239, Note_on_c, 0, 91, 41
3, 233279, Note_on_c, 0, 98, 0
3, 233358, Note_on_c, 0, 92, 0
3, 233462, Note_on_c, 0, 91, 0
3, 233479, Note_on_c, 0, 89, 35
3, 233719, Note_on_c, 0, 89, 0
3, 234095, Note_on_c, 0, 91, 103
3, 234102, Note_on_c, 0, 93, 85
3, 234108, Note_on_c, 0, 98, 89
3, 234130, Note_on_c, 0, 60, 53
3, 234146, Note_on_c, 0, 57, 47
3, 234167, Note_on_c, 0, 50, 24
3, 234182, Note_on_c, 0, 53, 30
3, 234188, Note_on_c, 0, 60, 0
3, 234253, Note_on_c, 0, 50, 0
3, 234352, Note_on_c, 0, 53, 0
3, 234367, Note_on_c, 0, 57, 0
3, 234436, Note_on_c, 0, 93, 0
3, 234458, Note_on_c, 0, 98, 0
3, 234482, Note_on_c, 0, 91, 0
3, 234951, Note_on_c, 0, 100, 84
3, 234956, Note_on_c, 0, 98, 85
3, 235162, Note_on_c, 0, 98, 0
3, 235165, Note_on_c, 0, 100, 0
3, 235481, Note_on_c, 0, 91, 79
3, 235500, Note_on_c, 0, 98, 64
3, 235620, Note_on_c, 0, 92, 38
3, 235868, Note_on_c, 0, 92, 0
3, 235879, Note_on_c, 0, 93, 32
3, 235903, Note_on_c, 0, 91, 0
3, 235971, Note_on_c, 0, 98, 0
3, 236000, Note_on_c, 0, 93, 0
3, 236271, Note_on_c, 0, 91, 110
3, 236287, Note_on_c, 0, 98, 87
3, 236599, Note_on_c, 0, 92, 62
3, 236601, Note_on_c, 0, 91, 0
3, 236759, Note_on_c, 0, 91, 49
3, 236760, Note_on_c, 0, 98, 0
3, 236815, Note_on_c, 0, 92, 0
3, 236924, Note_on_c, 0, 89, 57
3, 236958, Note_on_c, 0, 91, 0
3, 237087, Note_on_c, 0, 89, 0
3, 237156, Note_on_c, 0, 86, 57
3, 237774, Note_on_c, 0, 86, 0
3, 237847, Note_on_c, 0, 93, 73
3, 237854, Note_on_c, 0, 86, 62
3, 237861, Note_on_c, 0, 81, 64
3, 237872, Note_on_c, 0, 62, 74
3, 237881, Note_on_c, 0, 52, 62
3, 237890, Note_on_c, 0, 58, 56
3, 237991, Note_on_c, 0, 52, 0
3, 237992, Note_on_c, 0, 62, 0
3, 238047, Note_on_c, 0, 58, 0
3, 238346, Note_on_c, 0, 93, 0
3, 238384, Note_on_c, 0, 81, 0
3, 238430, Note_on_c, 0, 86, 0
3, 238492, Note_on_c, 0, 91, 39
3, 238509, Note_on_c, 0, 86, 49
3, 238524, Note_on_c, 0, 79, 45
3, 238811, Note_on_c, 0, 91, 0
3, 238838, Note_on_c, 0, 86, 0
3, 238903, Note_on_c, 0, 79, 0
3, 239122, Note_on_c, 0, 89, 68
3, 239124, Note_on_c, 0, 77, 64
3, 239146, Note_on_c, 0, 85, 52
3, 239195, Note_on_c, 0, 83, 42
3, 239314, Note_on_c, 0, 83, 0
3, 239554, Note_on_c, 0, 89, 0
3, 239605, Note_on_c, 0, 77, 0
3, 239647, Note_on_c, 0, 85, 0
3, 239726, Note_on_c, 0, 76, 52
3, 239727, Note_on_c, 0, 88, 51
3, 239730, Note_on_c, 0, 64, 51
3, 239733, Note_on_c, 0, 58, 42
3, 239735, Note_on_c, 0, 61, 34
3, 239747, Note_on_c, 0, 82, 51
3, 239759, Note_on_c, 0, 85, 36
3, 239776, Note_on_c, 0, 55, 33
3, 240126, Note_on_c, 0, 88, 0
3, 240154, Note_on_c, 0, 85, 0
3, 240201, Note_on_c, 0, 82, 0
3, 240473, Note_on_c, 0, 76, 0
3, 240999, Note_on_c, 0, 76, 68
3, 241004, Note_on_c, 0, 74, 74
3, 241018, Note_on_c, 0, 64, 0
3, 241059, Note_on_c, 0, 61, 0
3, 241110, Note_on_c, 0, 58, 0
3, 241146, Note_on_c, 0, 55, 0
3, 241444, Note_on_c, 0, 76, 0
3, 241559, Note_on_c, 0, 74, 0
3, 241672, Note_on_c, 0, 65, 57
3, 241685, Note_on_c, 0, 73, 1
3, 241696, Note_on_c, 0, 50, 51
3, 241719, Note_on_c, 0, 57, 50
3, 241879, Note_on_c, 0, 50, 0
3, 241888, Note_on_c, 0, 57, 0
3, 241927, Note_on_c, 0, 73, 0
3, 241985, Note_on_c, 0, 65, 0
3, 242141, Note_on_c, 0, 69, 50
3, 242549, Note_on_c, 0, 69, 0
3, 242639, Note_on_c, 0, 76, 63
3, 242650, Note_on_c, 0, 69, 60
3, 242655, Note_on_c, 0, 65, 61
3, 242658, Note_on_c, 0, 64, 60
3, 242826, Note_on_c, 0, 64, 0
3, 242882, Note_on_c, 0, 76, 0
3, 242895, Note_on_c, 0, 65, 0
3, 242972, Note_on_c, 0, 74, 38
3, 242992, Note_on_c, 0, 65, 17
3, 243420, Note_on_c, 0, 69, 0
3, 243576, Note_on_c, 0, 65, 0
3, 243855, Note_on_c, 0, 65, 41
3, 243878, Note_on_c, 0, 69, 46
3, 244703, Note_on_c, 0, 65, 0
3, 244794, Note_on_c, 0, 63, 64
3, 244812, Note_on_c, 0, 69, 0
3, 244815, Note_on_c, 0, 57, 53
3, 244833, Note_on_c, 0, 60, 45
3, 244856, Note_on_c, 0, 55, 39
3, 244949, Note_on_c, 0, 74, 0
3, 246219, Note_on_c, 0, 55, 0
3, 246302, Note_on_c, 0, 63, 0
3, 246306, Note_on_c, 0, 60, 0
3, 246346, Note_on_c, 0, 57, 0
3, 247400, Note_on_c, 0, 54, 62
3, 247413, Note_on_c, 0, 62, 61
3, 247427, Note_on_c, 0, 60, 37
3, 247487, Note_on_c, 0, 62, 0
3, 247502, Note_on_c, 0, 60, 0
3, 247567, Note_on_c, 0, 54, 0
3, 247813, Note_on_c, 0, 84, 76
3, 247818, Note_on_c, 0, 85, 71
3, 247972, Note_on_c, 0, 86, 65
3, 247982, Note_on_c, 0, 85, 0
3, 248084, Note_on_c, 0, 84, 0
3, 248246, Note_on_c, 0, 86, 0
3, 248386, Note_on_c, 0, 91, 94
3, 248570, Note_on_c, 0, 54, 39
3, 248581, Note_on_c, 0, 62, 35
3, 248582, Note_on_c, 0, 91, 0
3, 248624, Note_on_c, 0, 60, 26
3, 248686, Note_on_c, 0, 62, 0
3, 248716, Note_on_c, 0, 60, 0
3, 248797, Note_on_c, 0, 85, 86
3, 248858, Note_on_c, 0, 93, 45
3, 248863, Note_on_c, 0, 86, 50
3, 248864, Note_on_c, 0, 91, 44
3, 248866, Note_on_c, 0, 54, 0
3, 248933, Note_on_c, 0, 85, 0
3, 248970, Note_on_c, 0, 86, 0
3, 249071, Note_on_c, 0, 93, 0
3, 249190, Note_on_c, 0, 91, 0
3, 249247, Note_on_c, 0, 85, 34
3, 249258, Note_on_c, 0, 89, 24
3, 249346, Note_on_c, 0, 89, 0
3, 249450, Note_on_c, 0, 84, 59
3, 249452, Note_on_c, 0, 85, 0
3, 249536, Note_on_c, 0, 62, 43
3, 249549, Note_on_c, 0, 58, 35
3, 249575, Note_on_c, 0, 84, 0
3, 249604, Note_on_c, 0, 62, 0
3, 249626, Note_on_c, 0, 58, 0
3, 249669, Note_on_c, 0, 82, 39
3, 249945, Note_on_c, 0, 82, 0
3, 249982, Note_on_c, 0, 79, 29
3, 250097, Note_on_c, 0, 79, 0
3, 250162, Note_on_c, 0, 84, 85
3, 250410, Note_on_c, 0, 84, 0
3, 250425, Note_on_c, 0, 79, 32
3, 250564, Note_on_c, 0, 79, 0
3, 250628, Note_on_c, 0, 82, 76
3, 250922, Note_on_c, 0, 78, 56
3, 251064, Note_on_c, 0, 82, 0
3, 251130, Note_on_c, 0, 78, 0
3, 251199, Note_on_c, 0, 74, 56
3, 251377, Note_on_c, 0, 74, 0
3, 251419, Note_on_c, 0, 58, 25
3, 251505, Note_on_c, 0, 58, 0
3, 251530, Note_on_c, 0, 70, 55
3, 251768, Note_on_c, 0, 70, 0
3, 252158, Note_on_c, 0, 72, 70
3, 252343, Note_on_c, 0, 62, 24
3, 252398, Note_on_c, 0, 58, 25
3, 252436, Note_on_c, 0, 72, 0
3, 252439, Note_on_c, 0, 62, 0
3, 252513, Note_on_c, 0, 67, 41
3, 252514, Note_on_c, 0, 58, 0
3, 252769, Note_on_c, 0, 67, 0
3, 252825, Note_on_c, 0, 70, 63
3, 253040, Note_on_c, 0, 70, 0
3, 253143, Note_on_c, 0, 66, 67
3, 253172, Note_on_c, 0, 62, 44
3, 253186, Note_on_c, 0, 58, 37
3, 253311, Note_on_c, 0, 62, 0
3, 253401, Note_on_c, 0, 58, 0
3, 253411, Note_on_c, 0, 66, 0
3, 253449, Note_on_c, 0, 69, 56
3, 253754, Note_on_c, 0, 69, 0
3, 253786, Note_on_c, 0, 66, 54
3, 253978, Note_on_c, 0, 66, 0
3, 254066, Note_on_c, 0, 62, 57
3, 254113, Note_on_c, 0, 58, 44
3, 254115, Note_on_c, 0, 67, 69
3, 254157, Note_on_c, 0, 62, 0
3, 254250, Note_on_c, 0, 58, 0
3, 254335, Note_on_c, 0, 67, 0
3, 254479, Note_on_c, 0, 62, 35
3, 254975, Note_on_c, 0, 62, 0
3, 255100, Note_on_c, 0, 62, 54
3, 255328, Note_on_c, 0, 62, 0
3, 256063, Note_on_c, 0, 58, 46
3, 256065, Note_on_c, 0, 62, 58
3, 256097, Note_on_c, 0, 57, 36
3, 256101, Note_on_c, 0, 55, 32
3, 256119, Note_on_c, 0, 62, 0
3, 256175, Note_on_c, 0, 57, 0
3, 256178, Note_on_c, 0, 58, 0
3, 256199, Note_on_c, 0, 55, 0
3, 256404, Note_on_c, 0, 69, 27
3, 256551, Note_on_c, 0, 69, 0
3, 257007, Note_on_c, 0, 69, 49
3, 257024, Note_on_c, 0, 64, 28
3, 257072, Note_on_c, 0, 69, 0
3, 257094, Note_on_c, 0, 64, 0
3, 257356, Note_on_c, 0, 76, 68
3, 257360, Note_on_c, 0, 64, 62
3, 257363, Note_on_c, 0, 66, 71
3, 257365, Note_on_c, 0, 73, 60
3, 257374, Note_on_c, 0, 69, 67
3, 257398, Note_on_c, 0, 62, 52
3, 257460, Note_on_c, 0, 62, 0
3, 257464, Note_on_c, 0, 69, 0
3, 257477, Note_on_c, 0, 66, 0
3, 257482, Note_on_c, 0, 73, 0
3, 257511, Note_on_c, 0, 76, 0
3, 257527, Note_on_c, 0, 64, 0
3, 257667, Note_on_c, 0, 76, 35
3, 257669, Note_on_c, 0, 73, 52
3, 257679, Note_on_c, 0, 69, 55
3, 257684, Note_on_c, 0, 66, 53
3, 257690, Note_on_c, 0, 64, 46
3, 257751, Note_on_c, 0, 62, 32
3, 257787, Note_on_c, 0, 66, 0
3, 257794, Note_on_c, 0, 73, 0
3, 257795, Note_on_c, 0, 69, 0
3, 257822, Note_on_c, 0, 62, 0
3, 257823, Note_on_c, 0, 76, 0
3, 257851, Note_on_c, 0, 64, 0
3, 258020, Note_on_c, 0, 73, 59
3, 258022, Note_on_c, 0, 76, 57
3, 258029, Note_on_c, 0, 66, 60
3, 258031, Note_on_c, 0, 69, 62
3, 258040, Note_on_c, 0, 64, 44
3, 258076, Note_on_c, 0, 62, 47
3, 258148, Note_on_c, 0, 62, 0
3, 258165, Note_on_c, 0, 66, 0
3, 258176, Note_on_c, 0, 69, 0
3, 258189, Note_on_c, 0, 73, 0
3, 258202, Note_on_c, 0, 64, 0
3, 258209, Note_on_c, 0, 76, 0
3, 258319, Note_on_c, 0, 76, 57
3, 258328, Note_on_c, 0, 73, 37
3, 258334, Note_on_c, 0, 66, 54
3, 258337, Note_on_c, 0, 69, 38
3, 258359, Note_on_c, 0, 64, 45
3, 258397, Note_on_c, 0, 62, 34
3, 258439, Note_on_c, 0, 64, 0
3, 258466, Note_on_c, 0, 66, 0
3, 258468, Note_on_c, 0, 69, 0
3, 258476, Note_on_c, 0, 62, 0
3, 258494, Note_on_c, 0, 73, 0
3, 258513, Note_on_c, 0, 76, 0
3, 258679, Note_on_c, 0, 76, 51
3, 258682, Note_on_c, 0, 73, 59
3, 258696, Note_on_c, 0, 68, 59
3, 258701, Note_on_c, 0, 66, 71
3, 258719, Note_on_c, 0, 64, 61
3, 258727, Note_on_c, 0, 62, 54
3, 258889, Note_on_c, 0, 66, 0
3, 258892, Note_on_c, 0, 73, 0
3, 258897, Note_on_c, 0, 68, 0
3, 258919, Note_on_c, 0, 62, 0
3, 258943, Note_on_c, 0, 76, 0
3, 258946, Note_on_c, 0, 64, 0
3, 259015, Note_on_c, 0, 68, 42
3, 259027, Note_on_c, 0, 73, 36
3, 259036, Note_on_c, 0, 76, 51
3, 259038, Note_on_c, 0, 66, 55
3, 259071, Note_on_c, 0, 64, 48
3, 259082, Note_on_c, 0, 62, 46
3, 259168, Note_on_c, 0, 62, 0
3, 259178, Note_on_c, 0, 66, 0
3, 259197, Note_on_c, 0, 68, 0
3, 259200, Note_on_c, 0, 73, 0
3, 259237, Note_on_c, 0, 64, 0
3, 259263, Note_on_c, 0, 76, 0
3, 259370, Note_on_c, 0, 76, 58
3, 259374, Note_on_c, 0, 73, 51
3, 259377, Note_on_c, 0, 66, 63
3, 259378, Note_on_c, 0, 68, 51
3, 259388, Note_on_c, 0, 64, 58
3, 259405, Note_on_c, 0, 62, 51
3, 259565, Note_on_c, 0, 66, 0
3, 259577, Note_on_c, 0, 68, 0
3, 259602, Note_on_c, 0, 76, 0
3, 259604, Note_on_c, 0, 73, 0
3, 259635, Note_on_c, 0, 62, 0
3, 259645, Note_on_c, 0, 64, 0
3, 260003, Note_on_c, 0, 68, 57
3, 260005, Note_on_c, 0, 73, 53
3, 260007, Note_on_c, 0, 76, 58
3, 260028, Note_on_c, 0, 66, 59
3, 260053, Note_on_c, 0, 64, 54
3, 260068, Note_on_c, 0, 62, 48
3, 260143, Note_on_c, 0, 68, 0
3, 260145, Note_on_c, 0, 62, 0
3, 260164, Note_on_c, 0, 66, 0
3, 260184, Note_on_c, 0, 76, 0
3, 260191, Note_on_c, 0, 73, 0
3, 260194, Note_on_c, 0, 64, 0
3, 260865, Note_on_c, 0, 58, 36
3, 260930, Note_on_c, 0, 58, 0
3, 261196, Note_on_c, 0, 58, 64
3, 261199, Note_on_c, 0, 62, 77
3, 261205, Note_on_c, 0, 60, 67
3, 261210, Note_on_c, 0, 65, 77
3, 261212, Note_on_c, 0, 72, 70
3, 261228, Note_on_c, 0, 69, 57
3, 261233, Note_on_c, 0, 71, 72
3, 261261, Note_on_c, 0, 67, 34
3, 261287, Note_on_c, 0, 71, 0
3, 261304, Note_on_c, 0, 69, 0
3, 261325, Note_on_c, 0, 67, 0
3, 261331, Note_on_c, 0, 62, 0
3, 261337, Note_on_c, 0, 65, 0
3, 261356, Note_on_c, 0, 60, 0
3, 261370, Note_on_c, 0, 72, 0
3, 261405, Note_on_c, 0, 58, 0
3, 261486, Note_on_c, 0, 72, 65
3, 261493, Note_on_c, 0, 65, 63
3, 261515, Note_on_c, 0, 69, 71
3, 261517, Note_on_c, 0, 62, 60
3, 261520, Note_on_c, 0, 58, 34
3, 261529, Note_on_c, 0, 60, 50
3, 261651, Note_on_c, 0, 62, 0
3, 261671, Note_on_c, 0, 65, 0
3, 261677, Note_on_c, 0, 69, 0
3, 261685, Note_on_c, 0, 60, 0
3, 261697, Note_on_c, 0, 72, 0
3, 261720, Note_on_c, 0, 58, 0
3, 261829, Note_on_c, 0, 72, 60
3, 261839, Note_on_c, 0, 65, 63
3, 261842, Note_on_c, 0, 69, 68
3, 261844, Note_on_c, 0, 58, 57
3, 261850, Note_on_c, 0, 62, 64
3, 261860, Note_on_c, 0, 60, 50
3, 261989, Note_on_c, 0, 62, 0
3, 262020, Note_on_c, 0, 65, 0
3, 262028, Note_on_c, 0, 60, 0
3, 262029, Note_on_c, 0, 69, 0
3, 262053, Note_on_c, 0, 72, 0
3, 262079, Note_on_c, 0, 58, 0
3, 262170, Note_on_c, 0, 72, 59
3, 262178, Note_on_c, 0, 65, 47
3, 262183, Note_on_c, 0, 69, 56
3, 262187, Note_on_c, 0, 58, 37
3, 262202, Note_on_c, 0, 62, 47
3, 262213, Note_on_c, 0, 60, 36
3, 262280, Note_on_c, 0, 62, 0
3, 262289, Note_on_c, 0, 60, 0
3, 262316, Note_on_c, 0, 65, 0
3, 262331, Note_on_c, 0, 69, 0
3, 262357, Note_on_c, 0, 72, 0
3, 262368, Note_on_c, 0, 58, 0
3, 262477, Note_on_c, 0, 72, 57
3, 262483, Note_on_c, 0, 65, 50
3, 262498, Note_on_c, 0, 58, 46
3, 262500, Note_on_c, 0, 69, 56
3, 262517, Note_on_c, 0, 62, 53
3, 262530, Note_on_c, 0, 60, 50
3, 262606, Note_on_c, 0, 62, 0
3, 262610, Note_on_c, 0, 60, 0
3, 262663, Note_on_c, 0, 69, 0
3, 262674, Note_on_c, 0, 65, 0
3, 262690, Note_on_c, 0, 72, 0
3, 262697, Note_on_c, 0, 58, 0
3, 262835, Note_on_c, 0, 58, 62
3, 262837, Note_on_c, 0, 72, 61
3, 262851, Note_on_c, 0, 62, 68
3, 262855, Note_on_c, 0, 69, 71
3, 262861, Note_on_c, 0, 64, 62
3, 262863, Note_on_c, 0, 60, 65
3, 262885, Note_on_c, 0, 65, 49
3, 262944, Note_on_c, 0, 65, 0
3, 263055, Note_on_c, 0, 62, 0
3, 263104, Note_on_c, 0, 60, 0
3, 263114, Note_on_c, 0, 64, 0
3, 263122, Note_on_c, 0, 69, 0
3, 263138, Note_on_c, 0, 72, 0
3, 263140, Note_on_c, 0, 58, 0
3, 263218, Note_on_c, 0, 64, 29
3, 263234, Note_on_c, 0, 72, 44
3, 263238, Note_on_c, 0, 69, 58
3, 263256, Note_on_c, 0, 58, 53
3, 263258, Note_on_c, 0, 62, 56
3, 263263, Note_on_c, 0, 60, 41
3, 263427, Note_on_c, 0, 62, 0
3, 263467, Note_on_c, 0, 60, 0
3, 263473, Note_on_c, 0, 69, 0
3, 263474, Note_on_c, 0, 72, 0
3, 263485, Note_on_c, 0, 64, 0
3, 263519, Note_on_c, 0, 58, 0
3, 263958, Note_on_c, 0, 72, 46
3, 263969, Note_on_c, 0, 58, 50
3, 263970, Note_on_c, 0, 64, 53
3, 263972, Note_on_c, 0, 69, 53
3, 263984, Note_on_c, 0, 62, 51
3, 263986, Note_on_c, 0, 60, 47
3, 264053, Note_on_c, 0, 62, 0
3, 264055, Note_on_c, 0, 60, 0
3, 264111, Note_on_c, 0, 64, 0
3, 264152, Note_on_c, 0, 69, 0
3, 264163, Note_on_c, 0, 58, 0
3, 264178, Note_on_c, 0, 72, 0
3, 264666, Note_on_c, 0, 73, 69
3, 264668, Note_on_c, 0, 63, 80
3, 264674, Note_on_c, 0, 68, 69
3, 264682, Note_on_c, 0, 58, 75
3, 264749, Note_on_c, 0, 60, 38
3, 264817, Note_on_c, 0, 60, 0
3, 264885, Note_on_c, 0, 58, 0
3, 264926, Note_on_c, 0, 73, 0
3, 264966, Note_on_c, 0, 63, 0
3, 264968, Note_on_c, 0, 68, 0
3, 265041, Note_on_c, 0, 72, 58
3, 265064, Note_on_c, 0, 62, 45
3, 265066, Note_on_c, 0, 67, 51
3, 265074, Note_on_c, 0, 57, 68
3, 265396, Note_on_c, 0, 72, 0
3, 265436, Note_on_c, 0, 67, 0
3, 265581, Note_on_c, 0, 62, 0
3, 265682, Note_on_c, 0, 64, 71
3, 265684, Note_on_c, 0, 69, 63
3, 265686, Note_on_c, 0, 60, 68
3, 265698, Note_on_c, 0, 53, 52
3, 265737, Note_on_c, 0, 57, 0
3, 265999, Note_on_c, 0, 50, 52
3, 266016, Note_on_c, 0, 53, 0
3, 266184, Note_on_c, 0, 69, 0
3, 266245, Note_on_c, 0, 64, 0
3, 266405, Note_on_c, 0, 60, 0
3, 266869, Note_on_c, 0, 50, 0
3, 266919, Note_on_c, 0, 52, 60
3, 266941, Note_on_c, 0, 62, 55
3, 266946, Note_on_c, 0, 67, 40
3, 266985, Note_on_c, 0, 64, 37
3, 267127, Note_on_c, 0, 57, 2
3, 267309, Note_on_c, 0, 57, 0
3, 267368, Note_on_c, 0, 67, 0
3, 267400, Note_on_c, 0, 62, 0
3, 267410, Note_on_c, 0, 64, 0
3, 267536, Note_on_c, 0, 62, 62
3, 267551, Note_on_c, 0, 53, 64
3, 267552, Note_on_c, 0, 52, 0
3, 267554, Note_on_c, 0, 64, 49
3, 267556, Note_on_c, 0, 69, 62
3, 267581, Note_on_c, 0, 59, 32
3, 267583, Note_on_c, 0, 60, 46
3, 267653, Note_on_c, 0, 60, 0
3, 267668, Note_on_c, 0, 59, 0
3, 267743, Note_on_c, 0, 69, 0
3, 267779, Note_on_c, 0, 53, 0
3, 267784, Note_on_c, 0, 62, 0
3, 267786, Note_on_c, 0, 64, 0
3, 267847, Note_on_c, 0, 52, 48
3, 268332, Control_c, 0, 64, 127
3, 268443, Control_c, 0, 64, 0
3, 268474, Note_on_c, 0, 69, 72
3, 268482, Note_on_c, 0, 58, 80
3, 268490, Note_on_c, 0, 52, 0
3, 268490, Note_on_c, 0, 62, 74
3, 268501, Note_on_c, 0, 64, 68
3, 268509, Note_on_c, 0, 57, 80
3, 269668, Note_on_c, 0, 57, 0
3, 269746, Note_on_c, 0, 55, 58
3, 269805, Control_c, 0, 64, 127
3, 270132, Note_on_c, 0, 55, 0
3, 270219, Note_on_c, 0, 62, 0
3, 270295, Note_on_c, 0, 69, 0
3, 270335, Note_on_c, 0, 58, 0
3, 270341, Note_on_c, 0, 64, 0
3, 270401, Control_c, 0, 64, 0
3, 270430, Note_on_c, 0, 58, 61
3, 270434, Note_on_c, 0, 61, 67
3, 270437, Note_on_c, 0, 55, 60
3, 270442, Note_on_c, 0, 45, 47
3, 270448, Note_on_c, 0, 64, 32
3, 270895, Control_c, 0, 64, 127
3, 271409, Note_on_c, 0, 55, 0
3, 271453, Note_on_c, 0, 58, 0
3, 271479, Note_on_c, 0, 52, 39
3, 271572, Note_on_c, 0, 61, 0
3, 271575, Note_on_c, 0, 52, 0
3, 271620, Control_c, 0, 64, 0
3, 271663, Note_on_c, 0, 61, 25
3, 271668, Note_on_c, 0, 58, 60
3, 271700, Note_on_c, 0, 67, 41
3, 271732, Note_on_c, 0, 55, 37
3, 272013, Note_on_c, 0, 55, 0
3, 272214, Control_c, 0, 64, 127
3, 272238, Note_on_c, 0, 64, 0
3, 272299, Note_on_c, 0, 67, 0
3, 272402, Note_on_c, 0, 47, 20
3, 272415, Note_on_c, 0, 48, 46
3, 272418, Note_on_c, 0, 58, 0
3, 272440, Note_on_c, 0, 45, 0
3, 272458, Note_on_c, 0, 61, 0
3, 272487, Control_c, 0, 64, 0
3, 272495, Note_on_c, 0, 49, 35
3, 272498, Note_on_c, 0, 48, 0
3, 272521, Note_on_c, 0, 47, 0
3, 272612, Note_on_c, 0, 61, 37
3, 272624, Note_on_c, 0, 66, 47
3, 272626, Note_on_c, 0, 50, 56
3, 272635, Note_on_c, 0, 49, 0
3, 272646, Note_on_c, 0, 57, 48
3, 273041, Note_on_c, 0, 57, 0
3, 273047, Control_c, 0, 64, 127
3, 273272, Control_c, 0, 64, 0
3, 273292, Note_on_c, 0, 38, 63
3, 273321, Control_c, 0, 64, 127
3, 273414, Note_on_c, 0, 61, 0
3, 273455, Note_on_c, 0, 38, 0
3, 273527, Note_on_c, 0, 50, 0
3, 273603, Note_on_c, 0, 66, 0
3, 274601, Control_c, 0, 64, 0
3, 274610, Note_on_c, 0, 64, 49
3, 274613, Note_on_c, 0, 61, 37
3, 274623, Note_on_c, 0, 54, 37
3, 274679, Note_on_c, 0, 59, 35
3, 276028, Note_on_c, 0, 61, 0
3, 276062, Note_on_c, 0, 64, 0
3, 276183, Note_on_c, 0, 61, 47
3, 276199, Note_on_c, 0, 64, 46
3, 276398, Note_on_c, 0, 64, 0
3, 276540, Note_on_c, 0, 71, 61
3, 276628, Note_on_c, 0, 59, 0
3, 276667, Note_on_c, 0, 61, 0
3, 276713, Note_on_c, 0, 71, 0
3, 276807, Note_on_c, 0, 76, 59
3, 277070, Note_on_c, 0, 78, 64
3, 277138, Note_on_c, 0, 76, 0
3, 277153, Note_on_c, 0, 61, 30
3, 277306, Note_on_c, 0, 78, 0
3, 277356, Note_on_c, 0, 83, 76
3, 277417, Note_on_c, 0, 61, 0
3, 277519, Note_on_c, 0, 83, 0
3, 277627, Note_on_c, 0, 73, 45
3, 277796, Note_on_c, 0, 73, 0
3, 278546, Note_on_c, 0, 73, 51
3, 278708, Note_on_c, 0, 73, 0
3, 278802, Note_on_c, 0, 76, 60
3, 278977, Note_on_c, 0, 76, 0
3, 279012, Note_on_c, 0, 54, 0
3, 279076, Note_on_c, 0, 78, 65
3, 279329, Note_on_c, 0, 54, 37
3, 279354, Note_on_c, 0, 78, 0
3, 279372, Note_on_c, 0, 61, 25
3, 279374, Note_on_c, 0, 83, 70
3, 279554, Note_on_c, 0, 83, 0
3, 279575, Note_on_c, 0, 61, 0
3, 279622, Note_on_c, 0, 54, 0
3, 279769, Note_on_c, 0, 85, 69
3, 279943, Note_on_c, 0, 85, 0
3, 280073, Note_on_c, 0, 61, 57
3, 280075, Note_on_c, 0, 86, 75
3, 280220, Note_on_c, 0, 86, 0
3, 280287, Note_on_c, 0, 61, 0
3, 280385, Note_on_c, 0, 75, 64
3, 280393, Note_on_c, 0, 63, 64
3, 280394, Note_on_c, 0, 87, 74
3, 280400, Note_on_c, 0, 55, 56
3, 280424, Note_on_c, 0, 57, 51
3, 280449, Note_on_c, 0, 60, 46
3, 280850, Note_on_c, 0, 55, 0
3, 280913, Note_on_c, 0, 75, 0
3, 280920, Note_on_c, 0, 87, 0
3, 280923, Note_on_c, 0, 63, 0
3, 280930, Note_on_c, 0, 57, 0
3, 281011, Note_on_c, 0, 89, 67
3, 281014, Note_on_c, 0, 63, 65
3, 281017, Note_on_c, 0, 77, 68
3, 281027, Note_on_c, 0, 88, 64
3, 281043, Note_on_c, 0, 55, 56
3, 281066, Note_on_c, 0, 57, 57
3, 281167, Note_on_c, 0, 88, 0
3, 281184, Note_on_c, 0, 89, 0
3, 281208, Note_on_c, 0, 77, 0
3, 281260, Note_on_c, 0, 63, 0
3, 281362, Note_on_c, 0, 63, 42
3, 281378, Note_on_c, 0, 75, 56
3, 281385, Note_on_c, 0, 87, 59
3, 281799, Note_on_c, 0, 75, 0
3, 281800, Note_on_c, 0, 55, 0
3, 281855, Note_on_c, 0, 63, 0
3, 281864, Note_on_c, 0, 87, 0
3, 281881, Note_on_c, 0, 57, 0
3, 281969, Note_on_c, 0, 89, 60
3, 281971, Note_on_c, 0, 77, 56
3, 281997, Note_on_c, 0, 63, 49
3, 282014, Note_on_c, 0, 55, 50
3, 282034, Note_on_c, 0, 57, 47
3, 282159, Note_on_c, 0, 77, 0
3, 282165, Note_on_c, 0, 89, 0
3, 282340, Note_on_c, 0, 75, 46
3, 282355, Note_on_c, 0, 87, 49
3, 282489, Note_on_c, 0, 75, 0
3, 282543, Note_on_c, 0, 87, 0
3, 282735, Note_on_c, 0, 63, 0
3, 282739, Note_on_c, 0, 55, 0
3, 282934, Note_on_c, 0, 60, 0
3, 283131, Note_on_c, 0, 63, 43
3, 283154, Note_on_c, 0, 55, 37
3, 283263, Control_c, 0, 64, 127
3, 283351, Note_on_c, 0, 55, 0
3, 283381, Note_on_c, 0, 63, 0
3, 283426, Note_on_c, 0, 57, 0
3, 283829, Note_on_c, 0, 54, 67
3, 283914, Control_c, 0, 64, 0
3, 284084, Note_on_c, 0, 54, 0
3, 284122, Control_c, 0, 64, 127
3, 284865, Note_on_c, 0, 54, 74
3, 284876, Note_on_c, 0, 65, 77
3, 284878, Note_on_c, 0, 69, 68
3, 284881, Note_on_c, 0, 60, 77
3, 284898, Control_c, 0, 64, 0
3, 285188, Control_c, 0, 64, 127
3, 285247, Note_on_c, 0, 60, 0
3, 285372, Note_on_c, 0, 69, 0
3, 285388, Note_on_c, 0, 65, 0
3, 285412, Control_c, 0, 64, 0
3, 285461, Note_on_c, 0, 70, 74
3, 285463, Note_on_c, 0, 61, 80
3, 285470, Note_on_c, 0, 66, 78
3, 285481, Note_on_c, 0, 56, 79
3, 285556, Note_on_c, 0, 54, 0
3, 285651, Control_c, 0, 64, 127
3, 285810, Note_on_c, 0, 61, 0
3, 285862, Note_on_c, 0, 66, 0
3, 285960, Note_on_c, 0, 70, 0
3, 286068, Control_c, 0, 64, 0
3, 286124, Note_on_c, 0, 72, 75
3, 286129, Note_on_c, 0, 63, 84
3, 286132, Note_on_c, 0, 58, 81
3, 286137, Note_on_c, 0, 68, 64
3, 286247, Note_on_c, 0, 56, 0
3, 286309, Control_c, 0, 64, 127
3, 286368, Note_on_c, 0, 63, 0
3, 286404, Note_on_c, 0, 72, 0
3, 286428, Note_on_c, 0, 68, 0
3, 286482, Note_on_c, 0, 58, 0
3, 286759, Note_on_c, 0, 60, 70
3, 286768, Note_on_c, 0, 75, 60
3, 286774, Control_c, 0, 64, 0
3, 286785, Note_on_c, 0, 66, 70
3, 286788, Note_on_c, 0, 71, 69
3, 286934, Note_on_c, 0, 73, 13
3, 287093, Control_c, 0, 64, 127
3, 287135, Note_on_c, 0, 71, 0
3, 287217, Note_on_c, 0, 75, 0
3, 287254, Note_on_c, 0, 66, 0
3, 287257, Note_on_c, 0, 60, 0
3, 287274, Note_on_c, 0, 73, 0
3, 287333, Control_c, 0, 64, 0
3, 287409, Note_on_c, 0, 74, 59
3, 287423, Note_on_c, 0, 65, 62
3, 287425, Note_on_c, 0, 70, 61
3, 287435, Note_on_c, 0, 59, 53
3, 287583, Note_on_c, 0, 74, 0
3, 287665, Note_on_c, 0, 65, 0
3, 287696, Note_on_c, 0, 70, 0
3, 287703, Note_on_c, 0, 59, 0
3, 287751, Note_on_c, 0, 58, 56
3, 287970, Note_on_c, 0, 58, 0
3, 288080, Note_on_c, 0, 70, 59
3, 288110, Note_on_c, 0, 57, 67
3, 288114, Note_on_c, 0, 62, 48
3, 288146, Note_on_c, 0, 67, 50
3, 288287, Note_on_c, 0, 57, 0
3, 288362, Note_on_c, 0, 67, 0
3, 288439, Note_on_c, 0, 70, 0
3, 288488, Note_on_c, 0, 62, 0
3, 288695, Note_on_c, 0, 43, 51
3, 288884, Note_on_c, 0, 43, 0
3, 289015, Note_on_c, 0, 54, 56
3, 289019, Note_on_c, 0, 58, 60
3, 289047, Note_on_c, 0, 62, 60
3, 289056, Note_on_c, 0, 66, 52
3, 289522, Note_on_c, 0, 54, 0
3, 289530, Note_on_c, 0, 58, 0
3, 289626, Note_on_c, 0, 69, 67
3, 289630, Note_on_c, 0, 58, 60
3, 289719, Note_on_c, 0, 53, 24
3, 289727, Note_on_c, 0, 66, 0
3, 289793, Note_on_c, 0, 53, 0
3, 289857, Note_on_c, 0, 69, 0
3, 289882, Note_on_c, 0, 58, 0
3, 289930, Note_on_c, 0, 62, 0
3, 289978, Note_on_c, 0, 58, 35
3, 289979, Note_on_c, 0, 67, 50
3, 289995, Note_on_c, 0, 53, 47
3, 290017, Note_on_c, 0, 62, 25
3, 290348, Note_on_c, 0, 62, 0
3, 290455, Note_on_c, 0, 58, 0
3, 290576, Note_on_c, 0, 67, 0
3, 290589, Note_on_c, 0, 58, 51
3, 290645, Note_on_c, 0, 62, 24
3, 290648, Note_on_c, 0, 43, 35
3, 290676, Note_on_c, 0, 53, 0
3, 290700, Note_on_c, 0, 62, 0
3, 290705, Note_on_c, 0, 58, 0
3, 291514, Note_on_c, 0, 66, 63
3, 291519, Note_on_c, 0, 58, 62
3, 291533, Note_on_c, 0, 55, 57
3, 291535, Note_on_c, 0, 54, 58
3, 291551, Note_on_c, 0, 62, 61
3, 292456, Note_on_c, 0, 54, 0
3, 292495, Note_on_c, 0, 55, 0
3, 292503, Note_on_c, 0, 50, 44
3, 292637, Note_on_c, 0, 66, 0
3, 292645, Note_on_c, 0, 62, 0
3, 292685, Note_on_c, 0, 58, 0
3, 292707, Note_on_c, 0, 50, 0
3, 292776, Note_on_c, 0, 52, 51
3, 292783, Note_on_c, 0, 55, 46
3, 292799, Note_on_c, 0, 58, 19
3, 292805, Note_on_c, 0, 64, 53
3, 293210, Note_on_c, 0, 55, 0
3, 293275, Note_on_c, 0, 58, 0
3, 293404, Note_on_c, 0, 58, 34
3, 293412, Note_on_c, 0, 55, 54
3, 293418, Note_on_c, 0, 62, 66
3, 293449, Note_on_c, 0, 50, 55
3, 293470, Note_on_c, 0, 52, 0
3, 293527, Note_on_c, 0, 43, 0
3, 293592, Note_on_c, 0, 50, 0
3, 293780, Control_c, 0, 64, 127
3, 294358, Control_c, 0, 64, 0
3, 294368, Note_on_c, 0, 44, 82
3, 294384, Note_on_c, 0, 32, 81
3, 294588, Note_on_c, 0, 64, 0
3, 294596, Note_on_c, 0, 62, 0
3, 294647, Note_on_c, 0, 55, 0
3, 294706, Note_on_c, 0, 58, 0
3, 294888, Control_c, 0, 64, 127
3, 295220, Note_on_c, 0, 44, 0
3, 295249, Note_on_c, 0, 32, 0
3, 295368, Note_on_c, 0, 43, 84
3, 295379, Note_on_c, 0, 31, 85
3, 295401, Control_c, 0, 64, 0
3, 295444, Note_on_c, 0, 32, 32
3, 295503, Note_on_c, 0, 32, 0
3, 295776, Note_on_c, 0, 43, 0
3, 295917, Note_on_c, 0, 31, 0
3, 296023, Note_on_c, 0, 44, 49
3, 296180, Note_on_c, 0, 46, 50
3, 296199, Note_on_c, 0, 44, 0
3, 296316, Note_on_c, 0, 44, 49
3, 296421, Note_on_c, 0, 46, 0
3, 296471, Note_on_c, 0, 43, 53
3, 296506, Note_on_c, 0, 44, 0
3, 296606, Note_on_c, 0, 43, 0
3, 296624, Note_on_c, 0, 44, 38
3, 296748, Note_on_c, 0, 46, 53
3, 296772, Note_on_c, 0, 44, 0
3, 296863, Note_on_c, 0, 46, 0
3, 296940, Note_on_c, 0, 48, 35
3, 297031, Note_on_c, 0, 48, 0
3, 297067, Note_on_c, 0, 49, 51
3, 297197, Note_on_c, 0, 51, 50
3, 297223, Note_on_c, 0, 49, 0
3, 297326, Note_on_c, 0, 51, 0
3, 297375, Note_on_c, 0, 53, 58
3, 297513, Note_on_c, 0, 53, 0
3, 297589, Note_on_c, 0, 55, 28
3, 297688, Note_on_c, 0, 56, 64
3, 297719, Note_on_c, 0, 55, 0
3, 297841, Note_on_c, 0, 56, 0
3, 297898, Note_on_c, 0, 58, 53
3, 297953, Note_on_c, 0, 58, 0
3, 298061, Note_on_c, 0, 60, 58
3, 298116, Note_on_c, 0, 60, 0
3, 298202, Note_on_c, 0, 61, 56
3, 298367, Note_on_c, 0, 63, 42
3, 298375, Note_on_c, 0, 61, 0
3, 298422, Note_on_c, 0, 63, 0
3, 298528, Note_on_c, 0, 64, 40
3, 298645, Note_on_c, 0, 64, 0
3, 298661, Note_on_c, 0, 65, 9
3, 298799, Note_on_c, 0, 65, 0
3, 298826, Note_on_c, 0, 66, 55
3, 298887, Note_on_c, 0, 66, 0
3, 298954, Note_on_c, 0, 67, 62
3, 299081, Note_on_c, 0, 67, 0
3, 299154, Note_on_c, 0, 68, 47
3, 299370, Note_on_c, 0, 70, 13
3, 299375, Note_on_c, 0, 69, 40
3, 299406, Note_on_c, 0, 68, 0
3, 299511, Note_on_c, 0, 69, 0
3, 299599, Note_on_c, 0, 63, 35
3, 299633, Note_on_c, 0, 58, 52
3, 299646, Note_on_c, 0, 52, 36
3, 299666, Note_on_c, 0, 70, 0
3, 299669, Note_on_c, 0, 71, 61
3, 299820, Note_on_c, 0, 72, 72
3, 299890, Note_on_c, 0, 71, 0
3, 299907, Note_on_c, 0, 58, 0
3, 299977, Note_on_c, 0, 63, 0
3, 300035, Note_on_c, 0, 72, 0
3, 300172, Note_on_c, 0, 60, 67
3, 300185, Note_on_c, 0, 52, 0
3, 300326, Note_on_c, 0, 60, 0
3, 300546, Note_on_c, 0, 60, 66
3, 300783, Note_on_c, 0, 60, 0
3, 301172, Note_on_c, 0, 48, 71
3, 301230, Note_on_c, 0, 48, 0
3, 301759, Note_on_c, 0, 90, 20
3, 301807, Note_on_c, 0, 79, 44
3, 301826, Note_on_c, 0, 58, 42
3, 301828, Note_on_c, 0, 62, 57
3, 301834, Note_on_c, 0, 52, 49
3, 301837, Note_on_c, 0, 81, 35
3, 301840, Note_on_c, 0, 91, 30
3, 301890, Note_on_c, 0, 62, 0
3, 301906, Note_on_c, 0, 52, 0
3, 301908, Note_on_c, 0, 81, 0
3, 301909, Note_on_c, 0, 91, 0
3, 301938, Note_on_c, 0, 79, 0
3, 301955, Note_on_c, 0, 58, 0
3, 301960, Note_on_c, 0, 90, 0
3, 302108, Note_on_c, 0, 62, 68
3, 302121, Note_on_c, 0, 58, 53
3, 302122, Note_on_c, 0, 52, 56
3, 302140, Note_on_c, 0, 80, 59
3, 302159, Note_on_c, 0, 92, 51
3, 302210, Note_on_c, 0, 52, 0
3, 302222, Note_on_c, 0, 62, 0
3, 302240, Note_on_c, 0, 92, 0
3, 302260, Note_on_c, 0, 58, 0
3, 302266, Note_on_c, 0, 80, 0
3, 302455, Note_on_c, 0, 62, 61
3, 302463, Note_on_c, 0, 58, 52
3, 302469, Note_on_c, 0, 82, 67
3, 302471, Note_on_c, 0, 94, 71
3, 302474, Note_on_c, 0, 52, 45
3, 302521, Note_on_c, 0, 62, 0
3, 302548, Note_on_c, 0, 52, 0
3, 302583, Note_on_c, 0, 82, 0
3, 302585, Note_on_c, 0, 94, 0
3, 302591, Note_on_c, 0, 58, 0
3, 302796, Note_on_c, 0, 58, 46
3, 302797, Note_on_c, 0, 62, 45
3, 302799, Note_on_c, 0, 52, 48
3, 302862, Note_on_c, 0, 62, 0
3, 302868, Note_on_c, 0, 52, 0
3, 302884, Note_on_c, 0, 58, 0
3, 303073, Note_on_c, 0, 52, 44
3, 303079, Note_on_c, 0, 58, 57
3, 303082, Note_on_c, 0, 62, 55
3, 303101, Note_on_c, 0, 97, 67
3, 303114, Note_on_c, 0, 85, 69
3, 303145, Note_on_c, 0, 52, 0
3, 303211, Note_on_c, 0, 62, 0
3, 303222, Note_on_c, 0, 58, 0
3, 303252, Note_on_c, 0, 85, 0
3, 303257, Note_on_c, 0, 97, 0
3, 303387, Note_on_c, 0, 53, 60
3, 303390, Note_on_c, 0, 57, 57
3, 303392, Note_on_c, 0, 64, 66
3, 303394, Note_on_c, 0, 96, 58
3, 303408, Note_on_c, 0, 60, 64
3, 303410, Note_on_c, 0, 84, 59
3, 303458, Note_on_c, 0, 91, 48
3, 303782, Note_on_c, 0, 91, 0
3, 303794, Note_on_c, 0, 96, 0
3, 303869, Note_on_c, 0, 64, 0
3, 303893, Note_on_c, 0, 53, 0
3, 303915, Note_on_c, 0, 84, 0
3, 303930, Note_on_c, 0, 60, 0
3, 303935, Note_on_c, 0, 57, 0
3, 304038, Note_on_c, 0, 93, 63
3, 304049, Note_on_c, 0, 53, 38
3, 304055, Note_on_c, 0, 64, 54
3, 304062, Note_on_c, 0, 57, 58
3, 304066, Note_on_c, 0, 88, 55
3, 304069, Note_on_c, 0, 60, 52
3, 304071, Note_on_c, 0, 81, 51
3, 304168, Note_on_c, 0, 88, 0
3, 304170, Note_on_c, 0, 93, 0
3, 304180, Note_on_c, 0, 64, 0
3, 304183, Note_on_c, 0, 81, 0
3, 304206, Note_on_c, 0, 60, 0
3, 304237, Note_on_c, 0, 53, 0
3, 304259, Note_on_c, 0, 57, 0
3, 304368, Note_on_c, 0, 57, 31
3, 304370, Note_on_c, 0, 53, 32
3, 304380, Note_on_c, 0, 64, 42
3, 304386, Note_on_c, 0, 60, 38
3, 304405, Note_on_c, 0, 88, 51
3, 304412, Note_on_c, 0, 76, 53
3, 304471, Note_on_c, 0, 86, 25
3, 304525, Note_on_c, 0, 86, 0
3, 304852, Note_on_c, 0, 88, 0
3, 304927, Note_on_c, 0, 64, 0
3, 304938, Note_on_c, 0, 76, 0
3, 304955, Note_on_c, 0, 53, 0
3, 304972, Note_on_c, 0, 60, 0
3, 304996, Note_on_c, 0, 57, 0
3, 305286, Note_on_c, 0, 84, 47
3, 305287, Note_on_c, 0, 53, 33
3, 305292, Note_on_c, 0, 57, 46
3, 305300, Note_on_c, 0, 64, 36
3, 305316, Note_on_c, 0, 72, 30
3, 305319, Note_on_c, 0, 79, 42
3, 305321, Note_on_c, 0, 60, 41
3, 305602, Note_on_c, 0, 84, 0
3, 305606, Note_on_c, 0, 72, 0
3, 305607, Note_on_c, 0, 79, 0
3, 305703, Note_on_c, 0, 64, 0
3, 305772, Note_on_c, 0, 60, 0
3, 305839, Note_on_c, 0, 57, 0
3, 305901, Note_on_c, 0, 53, 0
3, 306916, Note_on_c, 0, 62, 71
3, 306924, Note_on_c, 0, 58, 56
3, 306935, Note_on_c, 0, 52, 52
3, 306985, Note_on_c, 0, 62, 0
3, 307003, Note_on_c, 0, 52, 0
3, 307077, Note_on_c, 0, 58, 0
3, 307527, Note_on_c, 0, 63, 62
3, 307568, Note_on_c, 0, 56, 77
3, 307574, Note_on_c, 0, 67, 71
3, 307599, Note_on_c, 0, 62, 82
3, 307606, Note_on_c, 0, 63, 0
3, 307906, Note_on_c, 0, 56, 0
3, 307926, Note_on_c, 0, 67, 0
3, 307963, Note_on_c, 0, 62, 0
3, 308186, Note_on_c, 0, 67, 71
3, 308194, Note_on_c, 0, 56, 77
3, 308199, Note_on_c, 0, 62, 71
3, 308632, Note_on_c, 0, 67, 0
3, 308677, Note_on_c, 0, 62, 0
3, 308727, Note_on_c, 0, 56, 0
3, 308847, Note_on_c, 0, 66, 86
3, 308859, Note_on_c, 0, 55, 80
3, 308877, Note_on_c, 0, 61, 62
3, 309462, Note_on_c, 0, 96, 82
3, 309469, Note_on_c, 0, 84, 85
3, 309587, Note_on_c, 0, 84, 0
3, 309690, Note_on_c, 0, 96, 0
3, 309784, Note_on_c, 0, 66, 0
3, 309786, Note_on_c, 0, 93, 70
3, 309878, Note_on_c, 0, 61, 0
3, 309918, Note_on_c, 0, 93, 0
3, 310053, Note_on_c, 0, 66, 48
3, 310066, Note_on_c, 0, 61, 35
3, 310138, Note_on_c, 0, 88, 78
3, 310188, Note_on_c, 0, 66, 0
3, 310307, Note_on_c, 0, 55, 0
3, 310312, Note_on_c, 0, 88, 0
3, 310354, Note_on_c, 0, 61, 0
3, 310463, Note_on_c, 0, 85, 53
3, 310497, Note_on_c, 0, 86, 57
3, 310561, Note_on_c, 0, 86, 0
3, 310616, Note_on_c, 0, 85, 0
3, 310789, Note_on_c, 0, 83, 42
3, 310823, Note_on_c, 0, 60, 50
3, 310842, Note_on_c, 0, 57, 43
3, 310866, Note_on_c, 0, 50, 29
3, 310967, Note_on_c, 0, 83, 0
3, 311079, Note_on_c, 0, 60, 0
3, 311335, Note_on_c, 0, 50, 0
3, 311350, Note_on_c, 0, 57, 0
3, 311511, Note_on_c, 0, 91, 91
3, 311750, Note_on_c, 0, 91, 0
3, 311802, Note_on_c, 0, 57, 25
3, 311831, Note_on_c, 0, 89, 73
3, 312008, Note_on_c, 0, 57, 0
3, 312040, Note_on_c, 0, 89, 0
3, 312137, Note_on_c, 0, 88, 69
3, 312323, Note_on_c, 0, 88, 0
3, 312444, Note_on_c, 0, 86, 71
3, 312650, Note_on_c, 0, 86, 0
3, 312728, Note_on_c, 0, 81, 60
3, 312778, Note_on_c, 0, 60, 38
3, 312783, Note_on_c, 0, 57, 36
3, 312818, Note_on_c, 0, 53, 24
3, 312865, Note_on_c, 0, 60, 0
3, 312914, Note_on_c, 0, 81, 0
3, 312999, Note_on_c, 0, 57, 0
3, 313025, Note_on_c, 0, 77, 62
3, 313029, Note_on_c, 0, 53, 0
3, 313241, Note_on_c, 0, 77, 0
3, 313334, Note_on_c, 0, 74, 38
3, 313389, Note_on_c, 0, 72, 30
3, 313420, Note_on_c, 0, 74, 0
3, 313535, Note_on_c, 0, 72, 0
3, 314524, Note_on_c, 0, 56, 74
3, 314528, Note_on_c, 0, 67, 74
3, 314539, Note_on_c, 0, 62, 66
3, 315224, Note_on_c, 0, 84, 90
3, 315227, Note_on_c, 0, 96, 88
3, 315356, Note_on_c, 0, 84, 0
3, 315426, Note_on_c, 0, 96, 0
3, 315572, Note_on_c, 0, 91, 74
3, 315768, Note_on_c, 0, 91, 0
3, 315898, Note_on_c, 0, 88, 70
3, 315908, Note_on_c, 0, 67, 0
3, 315966, Note_on_c, 0, 62, 0
3, 316099, Note_on_c, 0, 88, 0
3, 316181, Note_on_c, 0, 85, 53
3, 316277, Note_on_c, 0, 56, 0
3, 316353, Note_on_c, 0, 85, 0
3, 316522, Note_on_c, 0, 84, 69
3, 316538, Note_on_c, 0, 61, 50
3, 316540, Note_on_c, 0, 66, 61
3, 316547, Note_on_c, 0, 55, 58
3, 316724, Note_on_c, 0, 84, 0
3, 316811, Note_on_c, 0, 82, 63
3, 317006, Note_on_c, 0, 82, 0
3, 317133, Note_on_c, 0, 84, 60
3, 317184, Note_on_c, 0, 82, 57
3, 317226, Note_on_c, 0, 66, 0
3, 317269, Note_on_c, 0, 84, 0
3, 317371, Note_on_c, 0, 81, 48
3, 317456, Note_on_c, 0, 82, 0
3, 317570, Note_on_c, 0, 81, 0
3, 317589, Note_on_c, 0, 61, 0
3, 317661, Note_on_c, 0, 80, 64
3, 317740, Note_on_c, 0, 61, 35
3, 317742, Note_on_c, 0, 66, 47
3, 317842, Note_on_c, 0, 66, 0
3, 317862, Note_on_c, 0, 79, 44
3, 317871, Note_on_c, 0, 80, 0
3, 318043, Note_on_c, 0, 79, 0
3, 318085, Note_on_c, 0, 77, 52
3, 318087, Note_on_c, 0, 61, 0
3, 318098, Note_on_c, 0, 55, 0
3, 318260, Note_on_c, 0, 77, 0
3, 318321, Note_on_c, 0, 76, 18
3, 318547, Note_on_c, 0, 74, 55
3, 318578, Note_on_c, 0, 76, 0
3, 318660, Note_on_c, 0, 74, 0
3, 318714, Note_on_c, 0, 60, 39
3, 318716, Note_on_c, 0, 57, 34
3, 318743, Note_on_c, 0, 50, 28
3, 318747, Note_on_c, 0, 79, 61
3, 318796, Note_on_c, 0, 53, 14
3, 319017, Note_on_c, 0, 79, 0
3, 319037, Note_on_c, 0, 57, 0
3, 319059, Note_on_c, 0, 76, 29
3, 319076, Note_on_c, 0, 74, 22
3, 319079, Note_on_c, 0, 60, 0
3, 319130, Note_on_c, 0, 74, 0
3, 319138, Note_on_c, 0, 76, 0
3, 319255, Note_on_c, 0, 53, 0
3, 319262, Note_on_c, 0, 77, 59
3, 319481, Note_on_c, 0, 77, 0
3, 319599, Note_on_c, 0, 69, 57
3, 319903, Note_on_c, 0, 50, 0
3, 320154, Note_on_c, 0, 69, 0
3, 320274, Note_on_c, 0, 69, 56
3, 320398, Note_on_c, 0, 69, 0
3, 321322, Note_on_c, 0, 57, 53
3, 321337, Note_on_c, 0, 60, 46
3, 321351, Note_on_c, 0, 50, 30
3, 321372, Note_on_c, 0, 53, 33
3, 321401, Note_on_c, 0, 60, 0
3, 321442, Note_on_c, 0, 50, 0
3, 321499, Note_on_c, 0, 57, 0
3, 321562, Note_on_c, 0, 53, 0
3, 321636, Note_on_c, 0, 74, 67
3, 322180, Note_on_c, 0, 74, 0
3, 322256, Note_on_c, 0, 81, 69
3, 322268, Note_on_c, 0, 62, 63
3, 322280, Note_on_c, 0, 52, 47
3, 322282, Note_on_c, 0, 58, 55
3, 322394, Note_on_c, 0, 62, 0
3, 322422, Note_on_c, 0, 81, 0
3, 322474, Note_on_c, 0, 52, 0
3, 322523, Note_on_c, 0, 58, 0
3, 322639, Note_on_c, 0, 73, 64
3, 322799, Note_on_c, 0, 73, 0
3, 322893, Note_on_c, 0, 81, 68
3, 323068, Note_on_c, 0, 81, 0
3, 323116, Note_on_c, 0, 73, 48
3, 323244, Note_on_c, 0, 58, 26
3, 323311, Note_on_c, 0, 73, 0
3, 323350, Note_on_c, 0, 72, 53
3, 323454, Note_on_c, 0, 58, 0
3, 323486, Note_on_c, 0, 72, 0
3, 323576, Note_on_c, 0, 71, 55
3, 323738, Note_on_c, 0, 71, 0
3, 323842, Note_on_c, 0, 79, 59
3, 323974, Note_on_c, 0, 79, 0
3, 324039, Note_on_c, 0, 71, 14
3, 324234, Note_on_c, 0, 71, 0
3, 324254, Note_on_c, 0, 70, 37
3, 324405, Note_on_c, 0, 70, 0
3, 324407, Note_on_c, 0, 58, 25
3, 324594, Note_on_c, 0, 58, 0
3, 324759, Note_on_c, 0, 79, 47
3, 324761, Note_on_c, 0, 77, 49
3, 324927, Note_on_c, 0, 79, 0
3, 324938, Note_on_c, 0, 77, 0
3, 324999, Note_on_c, 0, 69, 53
3, 325162, Note_on_c, 0, 69, 0
3, 325221, Note_on_c, 0, 68, 57
3, 325300, Note_on_c, 0, 63, 53
3, 325335, Note_on_c, 0, 58, 45
3, 325341, Note_on_c, 0, 52, 35
3, 325447, Note_on_c, 0, 68, 0
3, 325459, Note_on_c, 0, 63, 0
3, 325482, Note_on_c, 0, 67, 47
3, 325579, Note_on_c, 0, 52, 0
3, 325639, Note_on_c, 0, 67, 0
3, 325706, Note_on_c, 0, 66, 60
3, 325737, Note_on_c, 0, 58, 0
3, 325879, Note_on_c, 0, 66, 0
3, 325929, Note_on_c, 0, 65, 34
3, 326031, Note_on_c, 0, 65, 0
3, 326188, Note_on_c, 0, 64, 44
3, 326263, Note_on_c, 0, 64, 0
3, 326298, Note_on_c, 0, 60, 35
3, 326306, Note_on_c, 0, 57, 40
3, 326339, Note_on_c, 0, 53, 30
3, 326378, Note_on_c, 0, 67, 59
3, 326432, Note_on_c, 0, 60, 0
3, 326519, Note_on_c, 0, 57, 0
3, 326604, Note_on_c, 0, 53, 0
3, 326628, Note_on_c, 0, 67, 0
3, 326687, Note_on_c, 0, 64, 37
3, 326777, Note_on_c, 0, 64, 0
3, 326856, Note_on_c, 0, 65, 64
3, 327103, Note_on_c, 0, 65, 0
3, 327168, Note_on_c, 0, 62, 64
3, 327330, Note_on_c, 0, 62, 0
3, 327398, Note_on_c, 0, 57, 50
3, 327802, Note_on_c, 0, 57, 0
3, 327942, Note_on_c, 0, 57, 47
3, 328113, Note_on_c, 0, 57, 0
3, 328454, Note_on_c, 0, 57, 45
3, 328543, Note_on_c, 0, 57, 0
3, 329200, Note_on_c, 0, 50, 44
3, 329208, Note_on_c, 0, 60, 52
3, 329259, Note_on_c, 0, 57, 30
3, 329335, Note_on_c, 0, 50, 0
3, 329359, Note_on_c, 0, 57, 0
3, 329366, Note_on_c, 0, 60, 0
3, 329920, Note_on_c, 0, 89, 83
3, 329922, Note_on_c, 0, 77, 90
3, 329925, Note_on_c, 0, 84, 89
3, 329943, Note_on_c, 0, 56, 83
3, 329953, Note_on_c, 0, 67, 84
3, 329964, Note_on_c, 0, 62, 78
3, 330153, Control_c, 0, 64, 127
3, 330537, Note_on_c, 0, 77, 0
3, 330549, Note_on_c, 0, 84, 0
3, 330586, Note_on_c, 0, 67, 0
3, 330596, Note_on_c, 0, 56, 0
3, 330602, Note_on_c, 0, 62, 0
3, 330617, Note_on_c, 0, 89, 0
3, 330938, Note_on_c, 0, 91, 80
3, 330941, Note_on_c, 0, 86, 80
3, 330942, Note_on_c, 0, 79, 74
3, 330945, Note_on_c, 0, 56, 75
3, 330946, Note_on_c, 0, 67, 69
3, 330961, Note_on_c, 0, 62, 63
3, 331030, Note_on_c, 0, 62, 0
3, 331071, Note_on_c, 0, 79, 0
3, 331072, Note_on_c, 0, 67, 0
3, 331084, Note_on_c, 0, 56, 0
3, 331093, Note_on_c, 0, 91, 0
3, 331113, Note_on_c, 0, 86, 0
3, 331119, Control_c, 0, 64, 0
3, 331222, Note_on_c, 0, 67, 55
3, 331225, Note_on_c, 0, 56, 63
3, 331243, Note_on_c, 0, 62, 32
3, 331269, Note_on_c, 0, 89, 59
3, 331287, Note_on_c, 0, 77, 51
3, 331289, Note_on_c, 0, 84, 60
3, 331489, Control_c, 0, 64, 127
3, 331559, Note_on_c, 0, 89, 0
3, 331573, Note_on_c, 0, 84, 0
3, 331691, Note_on_c, 0, 77, 0
3, 331693, Note_on_c, 0, 62, 0
3, 331706, Note_on_c, 0, 67, 0
3, 331864, Note_on_c, 0, 56, 0
3, 332048, Control_c, 0, 64, 0
3, 332135, Note_on_c, 0, 66, 68
3, 332141, Note_on_c, 0, 55, 54
3, 332143, Note_on_c, 0, 85, 58
3, 332156, Note_on_c, 0, 61, 53
3, 332157, Note_on_c, 0, 73, 46
3, 332165, Note_on_c, 0, 80, 54
3, 332384, Control_c, 0, 64, 127
3, 332490, Note_on_c, 0, 73, 0
3, 332517, Note_on_c, 0, 80, 0
3, 332521, Note_on_c, 0, 85, 0
3, 332601, Note_on_c, 0, 55, 0
3, 332623, Note_on_c, 0, 66, 0
3, 332628, Note_on_c, 0, 61, 0
3, 332930, Control_c, 0, 64, 0
3, 333063, Note_on_c, 0, 66, 70
3, 333070, Note_on_c, 0, 61, 60
3, 333091, Note_on_c, 0, 88, 69
3, 333097, Note_on_c, 0, 83, 72
3, 333099, Note_on_c, 0, 76, 60
3, 333102, Note_on_c, 0, 55, 49
3, 333135, Note_on_c, 0, 77, 52
3, 333202, Note_on_c, 0, 77, 0
3, 333381, Control_c, 0, 64, 127
3, 333422, Note_on_c, 0, 55, 0
3, 333435, Note_on_c, 0, 88, 0
3, 333455, Note_on_c, 0, 66, 0
3, 333484, Note_on_c, 0, 83, 0
3, 333570, Note_on_c, 0, 76, 0
3, 333664, Note_on_c, 0, 61, 0
3, 334023, Control_c, 0, 64, 0
3, 334060, Note_on_c, 0, 76, 75
3, 334069, Note_on_c, 0, 73, 52
3, 334074, Note_on_c, 0, 69, 74
3, 334075, Note_on_c, 0, 65, 80
3, 334079, Note_on_c, 0, 64, 84
3, 334565, Note_on_c, 0, 63, 37
3, 334668, Note_on_c, 0, 65, 0
3, 334676, Note_on_c, 0, 69, 0
3, 334689, Note_on_c, 0, 64, 0
3, 334706, Note_on_c, 0, 73, 0
3, 334709, Note_on_c, 0, 63, 0
3, 334723, Note_on_c, 0, 62, 56
3, 334816, Note_on_c, 0, 76, 0
3, 334895, Note_on_c, 0, 62, 0
3, 334927, Note_on_c, 0, 61, 48
3, 334938, Note_on_c, 0, 65, 48
3, 334967, Note_on_c, 0, 73, 30
3, 334981, Note_on_c, 0, 69, 53
3, 335495, Note_on_c, 0, 65, 0
3, 335538, Note_on_c, 0, 69, 0
3, 335612, Note_on_c, 0, 73, 0
3, 335654, Note_on_c, 0, 76, 55
3, 335661, Note_on_c, 0, 61, 0
3, 335666, Note_on_c, 0, 64, 66
3, 335667, Note_on_c, 0, 65, 49
3, 335677, Note_on_c, 0, 69, 54
3, 335678, Note_on_c, 0, 73, 32
3, 335870, Note_on_c, 0, 73, 0
3, 335914, Note_on_c, 0, 65, 0
3, 335920, Note_on_c, 0, 69, 0
3, 335946, Note_on_c, 0, 76, 0
3, 335992, Note_on_c, 0, 64, 0
3, 336025, Note_on_c, 0, 62, 57
3, 336058, Note_on_c, 0, 74, 49
3, 336081, Note_on_c, 0, 65, 26
3, 336336, Note_on_c, 0, 65, 0
3, 336362, Control_c, 0, 64, 127
3, 336573, Note_on_c, 0, 74, 0
3, 336618, Control_c, 0, 64, 0
3, 336621, Note_on_c, 0, 61, 63
3, 336642, Note_on_c, 0, 65, 59
3, 336645, Note_on_c, 0, 73, 37
3, 336654, Note_on_c, 0, 69, 56
3, 336698, Note_on_c, 0, 62, 0
3, 336756, Note_on_c, 0, 73, 0
3, 336757, Note_on_c, 0, 69, 0
3, 336765, Note_on_c, 0, 65, 0
3, 336801, Note_on_c, 0, 61, 0
3, 337322, Control_c, 0, 64, 127
3, 337582, Control_c, 0, 64, 0
3, 337601, Note_on_c, 0, 70, 78
3, 337602, Note_on_c, 0, 67, 74
3, 337604, Note_on_c, 0, 62, 80
3, 337617, Note_on_c, 0, 58, 73
3, 337642, Note_on_c, 0, 52, 62
3, 337885, Note_on_c, 0, 58, 0
3, 337943, Note_on_c, 0, 52, 0
3, 337965, Control_c, 0, 64, 127
3, 338046, Control_c, 0, 64, 0
3, 338429, Control_c, 0, 64, 127
3, 338462, Control_c, 0, 64, 0
3, 338573, Note_on_c, 0, 52, 51
3, 338674, Note_on_c, 0, 62, 0
3, 338772, Note_on_c, 0, 67, 0
3, 338804, Note_on_c, 0, 52, 0
3, 338895, Note_on_c, 0, 46, 59
3, 338911, Note_on_c, 0, 56, 53
3, 339419, Note_on_c, 0, 56, 0
3, 339527, Note_on_c, 0, 46, 0
3, 339538, Note_on_c, 0, 61, 60
3, 339543, Note_on_c, 0, 66, 60
3, 339545, Note_on_c, 0, 55, 58
3, 339573, Note_on_c, 0, 45, 53
3, 339747, Note_on_c, 0, 61, 0
3, 339980, Note_on_c, 0, 66, 0
3, 340020, Note_on_c, 0, 70, 0
3, 340497, Note_on_c, 0, 52, 60
3, 340573, Note_on_c, 0, 55, 0
3, 340645, Note_on_c, 0, 45, 0
3, 340769, Note_on_c, 0, 52, 0
3, 340864, Note_on_c, 0, 72, 29
3, 340935, Note_on_c, 0, 73, 38
3, 341093, Note_on_c, 0, 73, 0
3, 341110, Note_on_c, 0, 74, 49
3, 341188, Note_on_c, 0, 72, 0
3, 341338, Note_on_c, 0, 74, 0
3, 341553, Note_on_c, 0, 77, 87
3, 341619, Note_on_c, 0, 60, 49
3, 341686, Note_on_c, 0, 60, 0
3, 341695, Note_on_c, 0, 57, 29
3, 341730, Note_on_c, 0, 53, 20
3, 341838, Note_on_c, 0, 77, 0
3, 341874, Note_on_c, 0, 57, 0
3, 341962, Note_on_c, 0, 53, 0
3, 342111, Note_on_c, 0, 77, 68
3, 342498, Note_on_c, 0, 77, 0
3, 342770, Note_on_c, 0, 74, 53
3, 343380, Note_on_c, 0, 74, 0
3, 343413, Note_on_c, 0, 60, 34
3, 343484, Note_on_c, 0, 60, 0
3, 343506, Note_on_c, 0, 53, 17
3, 343639, Note_on_c, 0, 53, 0
3, 343728, Note_on_c, 0, 77, 59
3, 343803, Note_on_c, 0, 65, 51
3, 344145, Note_on_c, 0, 65, 0
3, 344218, Note_on_c, 0, 77, 0
3, 345394, Note_on_c, 0, 74, 43
3, 345527, Note_on_c, 0, 74, 0
3, 345631, Note_on_c, 0, 67, 58
3, 345642, Note_on_c, 0, 56, 55
3, 345648, Note_on_c, 0, 76, 60
3, 345658, Note_on_c, 0, 72, 64
3, 345663, Note_on_c, 0, 62, 54
3, 346166, Note_on_c, 0, 56, 0
3, 346177, Note_on_c, 0, 62, 0
3, 346183, Note_on_c, 0, 76, 0
3, 346191, Note_on_c, 0, 67, 0
3, 346238, Note_on_c, 0, 72, 0
3, 346294, Note_on_c, 0, 74, 64
3, 346295, Note_on_c, 0, 56, 47
3, 346313, Note_on_c, 0, 77, 60
3, 346319, Note_on_c, 0, 67, 60
3, 346362, Note_on_c, 0, 62, 45
3, 346436, Note_on_c, 0, 62, 0
3, 346439, Note_on_c, 0, 67, 0
3, 346579, Note_on_c, 0, 67, 34
3, 346615, Note_on_c, 0, 74, 0
3, 346639, Note_on_c, 0, 62, 38
3, 346803, Note_on_c, 0, 67, 0
3, 346855, Note_on_c, 0, 62, 0
3, 346874, Note_on_c, 0, 77, 0
3, 347041, Note_on_c, 0, 56, 0
3, 347209, Note_on_c, 0, 76, 54
3, 347224, Note_on_c, 0, 73, 42
3, 347230, Note_on_c, 0, 61, 56
3, 347231, Note_on_c, 0, 67, 58
3, 347235, Note_on_c, 0, 70, 50
3, 347244, Note_on_c, 0, 55, 54
3, 347353, Note_on_c, 0, 67, 0
3, 347386, Note_on_c, 0, 70, 0
3, 347416, Note_on_c, 0, 73, 0
3, 347466, Note_on_c, 0, 76, 0
3, 347477, Note_on_c, 0, 61, 0
3, 347486, Note_on_c, 0, 55, 0
3, 349123, Note_on_c, 0, 38, 85
3, 349144, Note_on_c, 0, 26, 81
3, 349431, Control_c, 0, 64, 127
3, 349630, Note_on_c, 0, 26, 0
3, 349738, Note_on_c, 0, 38, 0
3, 351127, Note_on_c, 0, 48, 80
3, 351132, Control_c, 0, 64, 0
3, 351158, Note_on_c, 0, 62, 75
3, 351162, Note_on_c, 0, 53, 76
3, 351170, Note_on_c, 0, 57, 76
3, 351435, Note_on_c, 0, 62, 0
3, 351476, Note_on_c, 0, 57, 0
3, 351506, Note_on_c, 0, 53, 0
3, 351662, Note_on_c, 0, 48, 0
3, 351679, Note_on_c, 0, 58, 75
3, 351685, Note_on_c, 0, 49, 75
3, 351687, Note_on_c, 0, 64, 68
3, 351692, Note_on_c, 0, 55, 71
3, 351918, Control_c, 0, 64, 127
3, 352097, Note_on_c, 0, 55, 0
3, 352156, Note_on_c, 0, 64, 0
3, 352197, Note_on_c, 0, 58, 0
3, 352257, Note_on_c, 0, 49, 0
3, 352321, Control_c, 0, 64, 0
3, 352346, Note_on_c, 0, 57, 76
3, 352347, Note_on_c, 0, 60, 73
3, 352349, Note_on_c, 0, 65, 74
3, 352351, Note_on_c, 0, 50, 74
3, 352619, Note_on_c, 0, 57, 0
3, 352641, Control_c, 0, 64, 127
3, 352674, Note_on_c, 0, 65, 0
3, 352681, Note_on_c, 0, 60, 0
3, 352726, Note_on_c, 0, 50, 0
3, 353063, Note_on_c, 0, 69, 74
3, 353068, Note_on_c, 0, 57, 87
3, 353082, Note_on_c, 0, 62, 79
3, 353083, Note_on_c, 0, 58, 83
3, 353088, Control_c, 0, 64, 0
3, 353097, Note_on_c, 0, 64, 69
3, 353874, Control_c, 0, 64, 127
3, 354131, Control_c, 0, 64, 0
3, 354292, Control_c, 0, 64, 127
3, 354600, Note_on_c, 0, 62, 0
3, 354639, Note_on_c, 0, 57, 0
3, 354914, Note_on_c, 0, 64, 0
3, 354986, Note_on_c, 0, 69, 0
3, 355017, Note_on_c, 0, 58, 0
3, 355090, Note_on_c, 0, 52, 24
3, 355176, Control_c, 0, 64, 0
3, 355184, Note_on_c, 0, 52, 0
3, 355215, Note_on_c, 0, 55, 50
3, 355230, Note_on_c, 0, 58, 53
3, 355247, Note_on_c, 0, 61, 47
3, 355255, Note_on_c, 0, 64, 30
3, 355718, Control_c, 0, 64, 127
3, 355833, Note_on_c, 0, 64, 0
3, 355893, Note_on_c, 0, 58, 0
3, 355948, Note_on_c, 0, 49, 31
3, 355970, Note_on_c, 0, 55, 0
3, 355987, Note_on_c, 0, 61, 0
3, 356071, Control_c, 0, 64, 0
3, 356106, Note_on_c, 0, 49, 0
3, 356175, Note_on_c, 0, 61, 59
3, 356176, Note_on_c, 0, 58, 67
3, 356181, Note_on_c, 0, 51, 56
3, 356185, Note_on_c, 0, 66, 58
3, 356203, Note_on_c, 0, 63, 50
3, 356324, Note_on_c, 0, 51, 0
3, 356377, Control_c, 0, 64, 127
3, 356725, Note_on_c, 0, 66, 0
3, 356787, Note_on_c, 0, 58, 0
3, 356828, Note_on_c, 0, 63, 0
3, 356830, Note_on_c, 0, 61, 0
3, 356842, Control_c, 0, 64, 0
3, 356851, Note_on_c, 0, 65, 62
3, 356854, Note_on_c, 0, 60, 73
3, 356864, Note_on_c, 0, 36, 67
3, 356866, Note_on_c, 0, 57, 69
3, 356869, Note_on_c, 0, 35, 74
3, 356871, Note_on_c, 0, 62, 74
3, 356880, Note_on_c, 0, 28, 68
3, 356882, Note_on_c, 0, 29, 66
3, 357093, Note_on_c, 0, 36, 0
3, 357111, Note_on_c, 0, 29, 0
3, 357182, Note_on_c, 0, 28, 0
3, 357191, Note_on_c, 0, 35, 0
3, 357492, Note_on_c, 0, 57, 0
3, 357563, Note_on_c, 0, 62, 0
3, 357596, Note_on_c, 0, 60, 0
3, 357760, Note_on_c, 0, 65, 0
3, 358204, Control_c, 0, 64, 127
3, 358300, Control_c, 0, 64, 0
3, 358794, Note_on_c, 0, 50, 61
3, 358796, Note_on_c, 0, 62, 59
3, 358808, Note_on_c, 0, 53, 49
3, 358828, Note_on_c, 0, 57, 46
3, 359012, Note_on_c, 0, 53, 0
3, 359023, Note_on_c, 0, 57, 0
3, 359048, Note_on_c, 0, 62, 0
3, 359130, Note_on_c, 0, 50, 0
3, 359141, Note_on_c, 0, 52, 53
3, 359149, Note_on_c, 0, 64, 51
3, 359170, Note_on_c, 0, 53, 33
3, 359181, Note_on_c, 0, 61, 42
3, 359189, Note_on_c, 0, 57, 27
3, 359503, Note_on_c, 0, 57, 0
3, 359553, Note_on_c, 0, 53, 0
3, 359599, Note_on_c, 0, 64, 0
3, 359625, Note_on_c, 0, 61, 0
3, 359727, Note_on_c, 0, 52, 0
3, 359746, Note_on_c, 0, 51, 35
3, 359983, Note_on_c, 0, 53, 58
3, 359986, Note_on_c, 0, 60, 52
3, 359987, Note_on_c, 0, 65, 48
3, 360001, Note_on_c, 0, 57, 46
3, 360026, Note_on_c, 0, 62, 44
3, 360080, Note_on_c, 0, 51, 0
3, 360146, Note_on_c, 0, 53, 0
3, 360151, Note_on_c, 0, 57, 0
3, 360237, Note_on_c, 0, 60, 0
3, 360295, Note_on_c, 0, 62, 0
3, 360325, Note_on_c, 0, 65, 0
3, 360402, Control_c, 0, 64, 127
3, 360740, Control_c, 0, 64, 0
3, 360927, Note_on_c, 0, 63, 60
3, 360974, Note_on_c, 0, 55, 31
3, 360975, Note_on_c, 0, 57, 41
3, 360984, Note_on_c, 0, 75, 60
3, 360986, Note_on_c, 0, 60, 31
3, 360989, Note_on_c, 0, 77, 56
3, 360995, Note_on_c, 0, 81, 64
3, 360998, Note_on_c, 0, 69, 66
3, 361049, Note_on_c, 0, 55, 0
3, 361064, Note_on_c, 0, 63, 0
3, 361067, Note_on_c, 0, 60, 0
3, 361108, Note_on_c, 0, 69, 0
3, 361172, Note_on_c, 0, 57, 0
3, 361189, Note_on_c, 0, 77, 0
3, 361206, Note_on_c, 0, 75, 0
3, 361231, Note_on_c, 0, 81, 0
3, 361290, Note_on_c, 0, 69, 36
3, 361397, Note_on_c, 0, 69, 0
3, 361415, Note_on_c, 0, 81, 20
3, 361419, Note_on_c, 0, 75, 27
3, 361452, Note_on_c, 0, 77, 28
3, 361538, Note_on_c, 0, 81, 0
3, 361543, Note_on_c, 0, 77, 0
3, 361544, Note_on_c, 0, 75, 0
3, 361578, Note_on_c, 0, 69, 30
3, 361686, Note_on_c, 0, 69, 0
3, 361714, Note_on_c, 0, 81, 33
3, 361759, Note_on_c, 0, 75, 27
3, 361768, Note_on_c, 0, 77, 32
3, 361864, Note_on_c, 0, 81, 0
3, 361866, Note_on_c, 0, 77, 0
3, 361880, Note_on_c, 0, 69, 26
3, 361911, Note_on_c, 0, 75, 0
3, 361967, Note_on_c, 0, 69, 0
3, 362645, Note_on_c, 0, 64, 66
3, 362648, Note_on_c, 0, 54, 57
3, 362669, Note_on_c, 0, 60, 45
3, 362730, Note_on_c, 0, 64, 0
3, 362733, Note_on_c, 0, 60, 0
3, 362866, Note_on_c, 0, 54, 0
3, 363637, Note_on_c, 0, 54, 47
3, 363704, Note_on_c, 0, 54, 0
3, 363978, Note_on_c, 0, 79, 31
3, 363996, Note_on_c, 0, 80, 37
3, 364174, Note_on_c, 0, 80, 0
3, 364201, Note_on_c, 0, 81, 37
3, 364292, Note_on_c, 0, 79, 0
3, 364445, Note_on_c, 0, 81, 0
3, 364593, Note_on_c, 0, 86, 76
3, 364620, Note_on_c, 0, 57, 50
3, 364622, Note_on_c, 0, 58, 49
3, 364624, Note_on_c, 0, 62, 54
3, 364626, Note_on_c, 0, 53, 47
3, 364636, Note_on_c, 0, 64, 38
3, 364674, Note_on_c, 0, 62, 0
3, 364705, Note_on_c, 0, 57, 0
3, 364708, Note_on_c, 0, 64, 0
3, 364712, Note_on_c, 0, 53, 0
3, 364731, Note_on_c, 0, 58, 0
3, 364770, Note_on_c, 0, 86, 0
3, 364980, Note_on_c, 0, 91, 74
3, 364991, Note_on_c, 0, 79, 74
3, 365009, Note_on_c, 0, 89, 55
3, 365084, Note_on_c, 0, 89, 0
3, 365450, Note_on_c, 0, 79, 0
3, 365491, Note_on_c, 0, 91, 0
3, 365619, Note_on_c, 0, 57, 33
3, 365767, Note_on_c, 0, 57, 0
3, 365780, Note_on_c, 0, 93, 85
3, 365790, Note_on_c, 0, 81, 73
3, 365793, Note_on_c, 0, 86, 70
3, 366228, Note_on_c, 0, 93, 0
3, 366231, Note_on_c, 0, 81, 0
3, 366249, Note_on_c, 0, 86, 0
3, 366759, Note_on_c, 0, 62, 41
3, 366764, Note_on_c, 0, 58, 37
3, 366800, Note_on_c, 0, 57, 32
3, 366932, Note_on_c, 0, 62, 0
3, 366938, Note_on_c, 0, 57, 0
3, 367021, Note_on_c, 0, 58, 0
3, 367511, Note_on_c, 0, 57, 40
3, 367628, Note_on_c, 0, 57, 0
3, 368388, Note_on_c, 0, 62, 66
3, 368390, Note_on_c, 0, 57, 57
3, 368391, Note_on_c, 0, 58, 53
3, 368396, Note_on_c, 0, 53, 55
3, 368420, Note_on_c, 0, 94, 52
3, 368461, Note_on_c, 0, 62, 0
3, 368471, Note_on_c, 0, 53, 0
3, 368476, Note_on_c, 0, 57, 0
3, 368510, Note_on_c, 0, 94, 0
3, 368536, Note_on_c, 0, 58, 0
3, 369021, Note_on_c, 0, 97, 62
3, 369022, Note_on_c, 0, 58, 70
3, 369024, Note_on_c, 0, 57, 68
3, 369026, Note_on_c, 0, 62, 80
3, 369027, Note_on_c, 0, 87, 71
3, 369029, Note_on_c, 0, 53, 75
3, 369044, Note_on_c, 0, 85, 34
3, 369047, Note_on_c, 0, 98, 70
3, 369127, Note_on_c, 0, 85, 0
3, 369188, Note_on_c, 0, 86, 10
3, 369266, Note_on_c, 0, 87, 0
3, 369440, Note_on_c, 0, 86, 0
3, 369442, Note_on_c, 0, 98, 0
3, 369463, Note_on_c, 0, 62, 0
3, 369469, Note_on_c, 0, 53, 0
3, 369487, Note_on_c, 0, 97, 0
3, 369513, Note_on_c, 0, 57, 0
3, 369528, Note_on_c, 0, 58, 0
3, 369669, Note_on_c, 0, 53, 73
3, 369673, Note_on_c, 0, 98, 73
3, 369674, Note_on_c, 0, 62, 77
3, 369678, Note_on_c, 0, 86, 76
3, 369683, Note_on_c, 0, 58, 67
3, 369685, Note_on_c, 0, 57, 57
3, 369730, Note_on_c, 0, 96, 33
3, 370162, Note_on_c, 0, 62, 0
3, 370165, Note_on_c, 0, 98, 0
3, 370169, Note_on_c, 0, 53, 0
3, 370177, Note_on_c, 0, 86, 0
3, 370208, Note_on_c, 0, 96, 0
3, 370212, Note_on_c, 0, 58, 0
3, 370213, Note_on_c, 0, 57, 0
3, 370314, Note_on_c, 0, 62, 65
3, 370327, Note_on_c, 0, 86, 55
3, 370330, Note_on_c, 0, 58, 68
3, 370333, Note_on_c, 0, 98, 58
3, 370346, Note_on_c, 0, 53, 36
3, 370348, Note_on_c, 0, 57, 52
3, 370416, Note_on_c, 0, 57, 0
3, 370439, Note_on_c, 0, 53, 0
3, 370464, Note_on_c, 0, 98, 0
3, 370479, Note_on_c, 0, 86, 0
3, 370481, Note_on_c, 0, 62, 0
3, 370505, Note_on_c, 0, 58, 0
3, 372229, Note_on_c, 0, 66, 75
3, 372234, Note_on_c, 0, 87, 78
3, 372237, Note_on_c, 0, 57, 64
3, 372239, Note_on_c, 0, 75, 87
3, 372241, Note_on_c, 0, 82, 78
3, 372259, Note_on_c, 0, 62, 64
3, 372541, Note_on_c, 0, 66, 0
3, 372566, Note_on_c, 0, 87, 0
3, 372569, Note_on_c, 0, 57, 0
3, 372570, Note_on_c, 0, 75, 0
3, 372654, Note_on_c, 0, 76, 40
3, 372667, Note_on_c, 0, 88, 49
3, 372669, Note_on_c, 0, 66, 51
3, 372676, Note_on_c, 0, 57, 43
3, 372692, Note_on_c, 0, 83, 63
3, 372698, Note_on_c, 0, 82, 0
3, 372722, Note_on_c, 0, 86, 36
3, 373073, Note_on_c, 0, 57, 0
3, 373086, Note_on_c, 0, 88, 0
3, 373105, Note_on_c, 0, 83, 0
3, 373117, Note_on_c, 0, 66, 0
3, 373119, Note_on_c, 0, 76, 0
3, 373151, Note_on_c, 0, 86, 0
3, 373174, Note_on_c, 0, 62, 0
3, 373241, Note_on_c, 0, 88, 54
3, 373245, Note_on_c, 0, 76, 55
3, 373258, Note_on_c, 0, 66, 67
3, 373264, Note_on_c, 0, 62, 38
3, 373267, Note_on_c, 0, 83, 64
3, 373269, Note_on_c, 0, 57, 68
3, 373482, Note_on_c, 0, 66, 0
3, 373487, Note_on_c, 0, 88, 0
3, 373512, Note_on_c, 0, 83, 0
3, 373514, Note_on_c, 0, 76, 0
3, 373592, Note_on_c, 0, 66, 58
3, 373597, Note_on_c, 0, 88, 56
3, 373628, Note_on_c, 0, 83, 64
3, 373631, Note_on_c, 0, 76, 43
3, 374110, Note_on_c, 0, 83, 0
3, 374157, Note_on_c, 0, 57, 0
3, 374175, Note_on_c, 0, 88, 0
3, 374203, Note_on_c, 0, 76, 0
3, 374215, Note_on_c, 0, 66, 0
3, 374367, Note_on_c, 0, 62, 0
3, 374426, Note_on_c, 0, 62, 31
3, 374431, Note_on_c, 0, 88, 63
3, 374435, Note_on_c, 0, 76, 63
3, 374438, Note_on_c, 0, 66, 60
3, 374442, Note_on_c, 0, 56, 64
3, 374456, Note_on_c, 0, 83, 53
3, 374458, Note_on_c, 0, 80, 42
3, 374720, Note_on_c, 0, 66, 0
3, 374759, Note_on_c, 0, 88, 0
3, 374780, Note_on_c, 0, 80, 0
3, 374820, Note_on_c, 0, 76, 0
3, 374849, Note_on_c, 0, 56, 0
3, 374903, Note_on_c, 0, 83, 0
3, 374909, Note_on_c, 0, 62, 0
3, 375420, Note_on_c, 0, 86, 74
3, 375426, Note_on_c, 0, 80, 59
3, 375431, Note_on_c, 0, 56, 64
3, 375435, Note_on_c, 0, 66, 63
3, 375438, Note_on_c, 0, 83, 60
3, 375439, Note_on_c, 0, 74, 51
3, 375445, Control_c, 0, 64, 127
3, 375447, Note_on_c, 0, 76, 56
3, 375463, Note_on_c, 0, 62, 53
3, 375614, Note_on_c, 0, 62, 0
3, 375626, Note_on_c, 0, 66, 0
3, 375738, Note_on_c, 0, 56, 0
3, 375835, Note_on_c, 0, 76, 0
3, 375837, Note_on_c, 0, 86, 0
3, 375860, Note_on_c, 0, 80, 0
3, 375907, Note_on_c, 0, 74, 0
3, 375919, Note_on_c, 0, 83, 0
3, 376244, Control_c, 0, 64, 0
3, 376371, Note_on_c, 0, 80, 65
3, 376377, Note_on_c, 0, 84, 73
3, 376380, Note_on_c, 0, 72, 71
3, 376381, Note_on_c, 0, 62, 70
3, 376389, Note_on_c, 0, 58, 63
3, 376397, Note_on_c, 0, 53, 53
3, 376399, Note_on_c, 0, 55, 47
3, 376657, Note_on_c, 0, 81, 33
3, 376836, Control_c, 0, 64, 127
3, 376837, Note_on_c, 0, 53, 0
3, 376844, Note_on_c, 0, 72, 0
3, 376864, Note_on_c, 0, 84, 0
3, 376879, Note_on_c, 0, 55, 0
3, 376882, Note_on_c, 0, 80, 0
3, 376884, Note_on_c, 0, 62, 0
3, 376892, Note_on_c, 0, 81, 0
3, 376906, Note_on_c, 0, 58, 0
3, 377015, Note_on_c, 0, 62, 66
3, 377020, Note_on_c, 0, 84, 65
3, 377023, Note_on_c, 0, 55, 51
3, 377025, Note_on_c, 0, 58, 62
3, 377030, Note_on_c, 0, 72, 59
3, 377031, Note_on_c, 0, 53, 62
3, 377034, Note_on_c, 0, 81, 55
3, 377108, Control_c, 0, 64, 0
3, 377250, Note_on_c, 0, 62, 0
3, 377256, Note_on_c, 0, 84, 0
3, 377274, Note_on_c, 0, 72, 0
3, 377287, Note_on_c, 0, 81, 0
3, 377313, Note_on_c, 0, 62, 24
3, 377348, Note_on_c, 0, 84, 30
3, 377380, Note_on_c, 0, 81, 37
3, 377390, Note_on_c, 0, 72, 39
3, 377442, Control_c, 0, 64, 127
3, 377718, Note_on_c, 0, 72, 0
3, 377727, Note_on_c, 0, 62, 0
3, 377727, Note_on_c, 0, 81, 0
3, 377736, Note_on_c, 0, 53, 0
3, 377766, Note_on_c, 0, 55, 0
3, 377810, Note_on_c, 0, 84, 0
3, 377826, Note_on_c, 0, 58, 0
3, 377956, Control_c, 0, 64, 0
3, 377959, Note_on_c, 0, 62, 65
3, 377961, Note_on_c, 0, 52, 69
3, 377965, Note_on_c, 0, 80, 68
3, 377973, Note_on_c, 0, 58, 56
3, 377974, Note_on_c, 0, 84, 69
3, 377979, Note_on_c, 0, 72, 63
3, 378263, Control_c, 0, 64, 127
3, 378274, Note_on_c, 0, 84, 0
3, 378296, Note_on_c, 0, 62, 0
3, 378318, Note_on_c, 0, 52, 0
3, 378327, Note_on_c, 0, 80, 0
3, 378345, Note_on_c, 0, 72, 0
3, 378368, Note_on_c, 0, 58, 0
3, 378889, Control_c, 0, 64, 0
3, 378904, Note_on_c, 0, 82, 82
3, 378911, Note_on_c, 0, 58, 82
3, 378913, Note_on_c, 0, 70, 83
3, 378916, Note_on_c, 0, 62, 84
3, 378918, Note_on_c, 0, 52, 78
3, 378922, Note_on_c, 0, 77, 70
3, 379260, Control_c, 0, 64, 127
3, 379572, Note_on_c, 0, 52, 0
3, 379666, Note_on_c, 0, 70, 0
3, 379698, Note_on_c, 0, 58, 0
3, 379723, Note_on_c, 0, 77, 0
3, 379796, Note_on_c, 0, 82, 0
3, 379830, Note_on_c, 0, 62, 0
3, 380091, Control_c, 0, 64, 0
3, 380139, Note_on_c, 0, 64, 62
3, 380143, Note_on_c, 0, 53, 38
3, 380144, Note_on_c, 0, 60, 52
3, 380156, Note_on_c, 0, 76, 55
3, 380164, Note_on_c, 0, 81, 58
3, 380169, Note_on_c, 0, 57, 62
3, 380171, Note_on_c, 0, 69, 46
3, 380498, Note_on_c, 0, 64, 0
3, 380544, Note_on_c, 0, 60, 0
3, 380558, Note_on_c, 0, 81, 0
3, 380578, Note_on_c, 0, 76, 0
3, 380579, Note_on_c, 0, 53, 0
3, 380588, Note_on_c, 0, 57, 0
3, 380666, Note_on_c, 0, 69, 0
3, 381119, Control_c, 0, 64, 127
3, 381135, Note_on_c, 0, 64, 54
3, 381141, Note_on_c, 0, 79, 47
3, 381149, Note_on_c, 0, 74, 54
3, 381153, Note_on_c, 0, 67, 39
3, 381159, Note_on_c, 0, 60, 44
3, 381161, Note_on_c, 0, 57, 46
3, 381162, Note_on_c, 0, 53, 29
3, 381215, Control_c, 0, 64, 0
3, 381503, Control_c, 0, 64, 127
3, 381574, Note_on_c, 0, 67, 0
3, 381612, Note_on_c, 0, 79, 0
3, 381632, Note_on_c, 0, 64, 0
3, 381644, Note_on_c, 0, 74, 0
3, 381655, Note_on_c, 0, 53, 0
3, 381706, Note_on_c, 0, 60, 0
3, 381711, Note_on_c, 0, 57, 0
3, 381744, Control_c, 0, 64, 0
3, 381825, Note_on_c, 0, 64, 63
3, 381827, Note_on_c, 0, 76, 68
3, 381829, Note_on_c, 0, 81, 71
3, 381832, Note_on_c, 0, 53, 39
3, 381841, Note_on_c, 0, 69, 59
3, 381843, Note_on_c, 0, 60, 60
3, 381845, Note_on_c, 0, 57, 62
3, 382097, Control_c, 0, 64, 127
3, 382415, Note_on_c, 0, 64, 0
3, 382439, Note_on_c, 0, 60, 0
3, 382449, Note_on_c, 0, 53, 0
3, 382450, Note_on_c, 0, 57, 0
3, 382647, Note_on_c, 0, 81, 0
3, 382720, Note_on_c, 0, 76, 0
3, 382767, Note_on_c, 0, 69, 0
3, 382930, Control_c, 0, 64, 0
3, 383034, Note_on_c, 0, 79, 57
3, 383035, Note_on_c, 0, 60, 36
3, 383039, Note_on_c, 0, 64, 54
3, 383044, Note_on_c, 0, 53, 49
3, 383050, Note_on_c, 0, 67, 53
3, 383054, Note_on_c, 0, 57, 50
3, 383061, Note_on_c, 0, 74, 51
3, 383138, Note_on_c, 0, 60, 0
3, 383157, Note_on_c, 0, 64, 0
3, 383236, Control_c, 0, 64, 127
3, 383313, Note_on_c, 0, 67, 0
3, 383356, Note_on_c, 0, 57, 0
3, 383361, Note_on_c, 0, 53, 0
3, 383368, Note_on_c, 0, 74, 0
3, 383402, Note_on_c, 0, 79, 0
3, 383669, Control_c, 0, 64, 0
3, 383710, Note_on_c, 0, 62, 88
3, 383715, Note_on_c, 0, 58, 76
3, 383717, Note_on_c, 0, 57, 74
3, 383719, Note_on_c, 0, 81, 84
3, 383722, Note_on_c, 0, 74, 85
3, 383723, Note_on_c, 0, 69, 87
3, 383726, Note_on_c, 0, 52, 71
3, 384111, Control_c, 0, 64, 127
3, 384510, Note_on_c, 0, 58, 0
3, 384670, Note_on_c, 0, 81, 0
3, 384743, Note_on_c, 0, 62, 0
3, 384797, Note_on_c, 0, 69, 0
3, 384832, Control_c, 0, 64, 0
3, 384834, Note_on_c, 0, 74, 0
3, 384986, Note_on_c, 0, 62, 42
3, 384994, Note_on_c, 0, 79, 31
3, 384996, Note_on_c, 0, 67, 35
3, 384998, Note_on_c, 0, 74, 30
3, 385014, Note_on_c, 0, 58, 23
3, 385087, Control_c, 0, 64, 127
3, 385095, Note_on_c, 0, 52, 0
3, 385134, Note_on_c, 0, 57, 0
3, 385172, Note_on_c, 0, 58, 0
3, 385190, Note_on_c, 0, 62, 0
3, 385193, Note_on_c, 0, 67, 0
3, 385223, Note_on_c, 0, 74, 0
3, 385257, Note_on_c, 0, 79, 0
3, 385554, Control_c, 0, 64, 0
3, 385592, Note_on_c, 0, 67, 64
3, 385594, Note_on_c, 0, 76, 63
3, 385596, Note_on_c, 0, 81, 68
3, 385599, Note_on_c, 0, 69, 70
3, 385601, Note_on_c, 0, 73, 52
3, 385603, Note_on_c, 0, 56, 62
3, 385633, Note_on_c, 0, 62, 57
3, 385894, Control_c, 0, 64, 127
3, 386309, Note_on_c, 0, 62, 0
3, 386314, Note_on_c, 0, 67, 0
3, 386362, Note_on_c, 0, 81, 0
3, 386408, Note_on_c, 0, 56, 0
3, 386446, Note_on_c, 0, 69, 0
3, 386471, Note_on_c, 0, 73, 0
3, 386599, Note_on_c, 0, 76, 0
3, 386677, Control_c, 0, 64, 0
3, 386761, Note_on_c, 0, 56, 56
3, 386764, Note_on_c, 0, 67, 39
3, 386805, Note_on_c, 0, 79, 41
3, 386813, Note_on_c, 0, 73, 33
3, 386830, Note_on_c, 0, 76, 36
3, 386933, Control_c, 0, 64, 127
3, 387053, Note_on_c, 0, 67, 0
3, 387063, Note_on_c, 0, 56, 0
3, 387221, Note_on_c, 0, 73, 0
3, 387234, Note_on_c, 0, 79, 0
3, 387287, Note_on_c, 0, 76, 0
3, 387385, Control_c, 0, 64, 0
3, 387491, Note_on_c, 0, 54, 43
3, 387506, Note_on_c, 0, 78, 48
3, 387510, Note_on_c, 0, 61, 39
3, 387519, Note_on_c, 0, 64, 40
3, 387521, Note_on_c, 0, 73, 36
3, 387524, Note_on_c, 0, 69, 43
3, 387584, Note_on_c, 0, 59, 24
3, 388893, Note_on_c, 0, 78, 0
3, 388999, Note_on_c, 0, 73, 0
3, 389286, Note_on_c, 0, 69, 0
3, 390298, Note_on_c, 0, 71, 58
3, 390454, Note_on_c, 0, 71, 0
3, 390585, Note_on_c, 0, 78, 63
3, 390815, Note_on_c, 0, 78, 0
3, 390877, Note_on_c, 0, 73, 39
3, 391161, Note_on_c, 0, 73, 0
3, 391279, Note_on_c, 0, 73, 47
3, 391456, Note_on_c, 0, 73, 0
3, 391695, Note_on_c, 0, 73, 60
3, 391905, Note_on_c, 0, 73, 0
3, 392151, Note_on_c, 0, 73, 57
3, 392391, Note_on_c, 0, 73, 0
3, 392466, Note_on_c, 0, 71, 38
3, 392622, Note_on_c, 0, 71, 0
3, 392685, Note_on_c, 0, 73, 42
3, 392975, Note_on_c, 0, 73, 0
3, 392987, Note_on_c, 0, 78, 38
3, 393110, Note_on_c, 0, 59, 0
3, 393141, Note_on_c, 0, 78, 0
3, 393176, Note_on_c, 0, 61, 0
3, 393189, Note_on_c, 0, 64, 0
3, 393456, Note_on_c, 0, 54, 0
3, 394254, Note_on_c, 0, 61, 50
3, 394261, Note_on_c, 0, 54, 50
3, 394263, Note_on_c, 0, 64, 58
3, 394312, Note_on_c, 0, 59, 36
3, 394350, Note_on_c, 0, 64, 0
3, 394434, Note_on_c, 0, 59, 0
3, 394482, Note_on_c, 0, 54, 0
3, 394540, Note_on_c, 0, 61, 0
3, 394589, Note_on_c, 0, 74, 75
3, 394919, Note_on_c, 0, 75, 40
3, 394978, Note_on_c, 0, 74, 0
3, 395070, Note_on_c, 0, 76, 51
3, 395074, Note_on_c, 0, 75, 0
3, 395250, Note_on_c, 0, 76, 0
3, 395273, Note_on_c, 0, 79, 74
3, 395480, Note_on_c, 0, 79, 0
3, 395542, Note_on_c, 0, 76, 34
3, 395628, Note_on_c, 0, 76, 0
3, 395650, Note_on_c, 0, 57, 32
3, 395663, Note_on_c, 0, 50, 24
3, 395684, Note_on_c, 0, 53, 29
3, 395690, Note_on_c, 0, 77, 64
3, 395895, Note_on_c, 0, 57, 0
3, 395930, Note_on_c, 0, 50, 0
3, 395951, Note_on_c, 0, 53, 0
3, 395953, Note_on_c, 0, 77, 0
3, 396018, Note_on_c, 0, 67, 34
3, 396143, Note_on_c, 0, 67, 0
3, 396519, Note_on_c, 0, 77, 57
3, 397074, Note_on_c, 0, 77, 0
3, 397161, Note_on_c, 0, 65, 49
3, 397189, Note_on_c, 0, 60, 40
3, 397249, Note_on_c, 0, 57, 22
3, 397255, Note_on_c, 0, 65, 0
3, 397256, Note_on_c, 0, 60, 0
3, 397342, Note_on_c, 0, 57, 0
3, 398126, Note_on_c, 0, 57, 24
3, 398146, Note_on_c, 0, 53, 24
3, 398189, Note_on_c, 0, 57, 0
3, 398234, Note_on_c, 0, 53, 0
3, 398469, Control_c, 0, 64, 127
3, 398617, Control_c, 0, 64, 0
3, 398857, Control_c, 0, 64, 127
3, 399034, Note_on_c, 0, 74, 70
3, 399223, Note_on_c, 0, 74, 0
3, 399273, Control_c, 0, 64, 0
3, 399333, Note_on_c, 0, 76, 81
3, 399336, Note_on_c, 0, 67, 78
3, 399341, Note_on_c, 0, 56, 83
3, 399346, Note_on_c, 0, 72, 75
3, 399354, Note_on_c, 0, 62, 74
3, 399625, Control_c, 0, 64, 127
3, 399830, Note_on_c, 0, 56, 0
3, 399841, Note_on_c, 0, 62, 0
3, 399847, Note_on_c, 0, 72, 0
3, 399848, Note_on_c, 0, 67, 0
3, 399914, Note_on_c, 0, 76, 0
3, 399991, Note_on_c, 0, 74, 70
3, 400015, Note_on_c, 0, 77, 61
3, 400020, Note_on_c, 0, 67, 60
3, 400027, Note_on_c, 0, 56, 65
3, 400042, Note_on_c, 0, 62, 54
3, 400135, Control_c, 0, 64, 0
3, 400157, Note_on_c, 0, 67, 0
3, 400258, Note_on_c, 0, 77, 0
3, 400271, Note_on_c, 0, 74, 0
3, 400281, Note_on_c, 0, 67, 45
3, 400445, Control_c, 0, 64, 127
3, 400514, Note_on_c, 0, 67, 0
3, 400578, Note_on_c, 0, 62, 0
3, 400751, Note_on_c, 0, 56, 0
3, 400876, Control_c, 0, 64, 0
3, 400943, Note_on_c, 0, 76, 48
3, 400946, Note_on_c, 0, 55, 52
3, 400947, Note_on_c, 0, 67, 55
3, 400949, Note_on_c, 0, 61, 57
3, 400951, Note_on_c, 0, 70, 52
3, 400955, Note_on_c, 0, 73, 36
3, 401375, Note_on_c, 0, 61, 0
3, 401456, Note_on_c, 0, 55, 0
3, 402306, Note_on_c, 0, 45, 91
3, 402317, Note_on_c, 0, 38, 88
3, 402834, Note_on_c, 0, 38, 0
3, 402874, Note_on_c, 0, 45, 0
3, 402951, Note_on_c, 0, 45, 95
3, 402954, Note_on_c, 0, 38, 77
3, 403004, Note_on_c, 0, 67, 0
3, 403029, Note_on_c, 0, 73, 0
3, 403033, Note_on_c, 0, 76, 0
3, 403037, Note_on_c, 0, 70, 0
3, 403231, Note_on_c, 0, 38, 0
3, 403277, Note_on_c, 0, 45, 0
3, 403916, Note_on_c, 0, 62, 68
3, 403917, Note_on_c, 0, 53, 71
3, 403922, Note_on_c, 0, 57, 66
3, 403937, Note_on_c, 0, 52, 80
3, 404986, Note_on_c, 0, 53, 0
3, 405017, Note_on_c, 0, 57, 0
3, 405118, Note_on_c, 0, 62, 0
3, 405161, Note_on_c, 0, 64, 58
3, 405166, Note_on_c, 0, 52, 0
3, 405174, Note_on_c, 0, 53, 39
3, 405190, Note_on_c, 0, 50, 50
3, 405201, Note_on_c, 0, 57, 26
3, 405445, Note_on_c, 0, 57, 0
3, 405485, Note_on_c, 0, 53, 0
3, 405577, Note_on_c, 0, 64, 0
3, 406081, Note_on_c, 0, 65, 49
3, 406091, Note_on_c, 0, 50, 0
3, 406095, Note_on_c, 0, 57, 48
3, 406100, Note_on_c, 0, 52, 43
3, 406105, Note_on_c, 0, 60, 55
3, 406533, Note_on_c, 0, 57, 0
3, 406546, Note_on_c, 0, 60, 0
3, 406581, Note_on_c, 0, 65, 0
3, 406634, Note_on_c, 0, 52, 0
3, 407097, Note_on_c, 0, 64, 71
3, 407100, Note_on_c, 0, 69, 65
3, 407109, Note_on_c, 0, 60, 70
3, 407138, Note_on_c, 0, 56, 69
3, 407609, Note_on_c, 0, 60, 0
3, 407630, Note_on_c, 0, 69, 0
3, 407653, Note_on_c, 0, 56, 0
3, 407679, Note_on_c, 0, 64, 0
3, 407797, Note_on_c, 0, 46, 35
3, 407949, Note_on_c, 0, 46, 0
3, 408045, Note_on_c, 0, 69, 68
3, 408053, Note_on_c, 0, 58, 70
3, 408063, Note_on_c, 0, 62, 66
3, 408070, Note_on_c, 0, 46, 64
3, 408072, Note_on_c, 0, 65, 52
3, 408567, Note_on_c, 0, 62, 0
3, 408586, Note_on_c, 0, 69, 0
3, 408592, Note_on_c, 0, 65, 0
3, 408610, Note_on_c, 0, 58, 0
3, 408703, Note_on_c, 0, 46, 0
3, 408741, Note_on_c, 0, 58, 60
3, 408754, Note_on_c, 0, 61, 54
3, 408760, Note_on_c, 0, 55, 58
3, 408762, Note_on_c, 0, 45, 61
3, 408765, Note_on_c, 0, 64, 59
3, 408770, Note_on_c, 0, 67, 54
3, 409567, Note_on_c, 0, 67, 0
3, 409699, Note_on_c, 0, 64, 0
3, 409709, Note_on_c, 0, 55, 0
3, 409828, Note_on_c, 0, 58, 0
3, 409847, Note_on_c, 0, 61, 0
3, 409889, Note_on_c, 0, 45, 0
3, 409984, Note_on_c, 0, 51, 53
3, 409986, Note_on_c, 0, 58, 63
3, 409989, Note_on_c, 0, 61, 49
3, 409991, Note_on_c, 0, 66, 60
3, 410008, Note_on_c, 0, 63, 51
3, 410462, Note_on_c, 0, 66, 0
3, 410553, Note_on_c, 0, 58, 0
3, 410561, Note_on_c, 0, 61, 0
3, 410597, Note_on_c, 0, 51, 0
3, 410640, Note_on_c, 0, 65, 53
3, 410660, Note_on_c, 0, 60, 49
3, 410662, Note_on_c, 0, 57, 53
3, 410670, Note_on_c, 0, 50, 60
3, 410686, Note_on_c, 0, 62, 60
3, 410688, Note_on_c, 0, 63, 0
3, 411057, Note_on_c, 0, 57, 0
3, 411075, Control_c, 0, 64, 127
3, 411197, Note_on_c, 0, 60, 0
3, 411207, Note_on_c, 0, 50, 0
3, 411223, Note_on_c, 0, 62, 0
3, 411235, Note_on_c, 0, 65, 0
3, 412567, Control_c, 0, 64, 0
3, 412848, Note_on_c, 0, 74, 62
3, 412855, Note_on_c, 0, 69, 61
3, 412858, Note_on_c, 0, 65, 51
3, 412879, Note_on_c, 0, 64, 70
3, 413020, Note_on_c, 0, 65, 0
3, 413057, Note_on_c, 0, 69, 0
3, 413090, Note_on_c, 0, 74, 0
3, 413197, Note_on_c, 0, 63, 56
3, 413204, Note_on_c, 0, 64, 0
3, 413489, Note_on_c, 0, 70, 57
3, 413490, Note_on_c, 0, 63, 0
3, 413494, Note_on_c, 0, 73, 42
3, 413503, Note_on_c, 0, 76, 49
3, 413504, Note_on_c, 0, 65, 56
3, 413529, Note_on_c, 0, 62, 57
3, 413863, Note_on_c, 0, 65, 0
3, 413908, Note_on_c, 0, 76, 0
3, 413917, Note_on_c, 0, 70, 0
3, 413932, Note_on_c, 0, 73, 0
3, 414135, Note_on_c, 0, 62, 0
3, 414245, Note_on_c, 0, 61, 60
3, 414270, Note_on_c, 0, 77, 60
3, 414276, Note_on_c, 0, 65, 58
3, 414286, Note_on_c, 0, 72, 53
3, 414411, Note_on_c, 0, 65, 0
3, 414479, Note_on_c, 0, 72, 0
3, 414511, Note_on_c, 0, 77, 0
3, 414570, Note_on_c, 0, 61, 0
3, 414584, Note_on_c, 0, 60, 55
3, 414703, Note_on_c, 0, 60, 0
3, 414903, Note_on_c, 0, 81, 67
3, 414912, Note_on_c, 0, 63, 72
3, 414917, Note_on_c, 0, 75, 50
3, 414919, Note_on_c, 0, 69, 59
3, 414927, Note_on_c, 0, 57, 55
3, 414950, Note_on_c, 0, 55, 48
3, 414952, Note_on_c, 0, 60, 43
3, 415925, Note_on_c, 0, 60, 0
3, 415990, Note_on_c, 0, 57, 0
3, 416007, Note_on_c, 0, 63, 0
3, 416110, Note_on_c, 0, 55, 0
3, 416562, Note_on_c, 0, 69, 0
3, 416642, Note_on_c, 0, 65, 49
3, 416655, Note_on_c, 0, 54, 43
3, 416666, Note_on_c, 0, 60, 44
3, 416707, Note_on_c, 0, 75, 0
3, 416770, Note_on_c, 0, 81, 0
3, 417234, Note_on_c, 0, 89, 69
3, 417459, Note_on_c, 0, 89, 0
3, 417536, Note_on_c, 0, 84, 60
3, 417575, Note_on_c, 0, 65, 0
3, 417718, Note_on_c, 0, 60, 0
3, 417730, Note_on_c, 0, 84, 0
3, 417895, Note_on_c, 0, 54, 0
3, 418009, Note_on_c, 0, 80, 59
3, 418294, Note_on_c, 0, 80, 0
3, 418304, Note_on_c, 0, 79, 46
3, 418413, Note_on_c, 0, 62, 24
3, 418430, Note_on_c, 0, 58, 20
3, 418563, Note_on_c, 0, 79, 0
3, 418632, Note_on_c, 0, 78, 38
3, 418829, Note_on_c, 0, 53, 1
3, 418863, Note_on_c, 0, 78, 0
3, 418918, Note_on_c, 0, 57, 1
3, 418933, Note_on_c, 0, 81, 53
3, 419166, Note_on_c, 0, 81, 0
3, 419185, Note_on_c, 0, 78, 42
3, 419407, Note_on_c, 0, 78, 0
3, 419508, Note_on_c, 0, 79, 59
3, 419735, Note_on_c, 0, 79, 0
3, 419771, Note_on_c, 0, 62, 0
3, 419809, Note_on_c, 0, 74, 44
3, 419873, Note_on_c, 0, 58, 0
3, 419999, Note_on_c, 0, 74, 0
3, 420126, Note_on_c, 0, 72, 49
3, 420224, Note_on_c, 0, 62, 30
3, 420391, Note_on_c, 0, 72, 0
3, 420394, Note_on_c, 0, 62, 0
3, 420498, Note_on_c, 0, 70, 34
3, 420740, Note_on_c, 0, 70, 0
3, 420804, Note_on_c, 0, 69, 36
3, 420975, Note_on_c, 0, 69, 0
3, 421095, Note_on_c, 0, 72, 65
3, 421201, Note_on_c, 0, 62, 32
3, 421315, Note_on_c, 0, 62, 0
3, 421406, Note_on_c, 0, 72, 0
3, 421434, Note_on_c, 0, 69, 56
3, 421569, Note_on_c, 0, 69, 0
3, 421674, Note_on_c, 0, 70, 52
3, 421682, Note_on_c, 0, 57, 0
3, 421906, Note_on_c, 0, 70, 0
3, 421978, Note_on_c, 0, 62, 39
3, 422004, Note_on_c, 0, 53, 0
3, 422148, Note_on_c, 0, 62, 0
3, 422222, Note_on_c, 0, 60, 46
3, 422444, Note_on_c, 0, 60, 0
3, 422499, Note_on_c, 0, 58, 37
3, 422703, Note_on_c, 0, 58, 0
3, 422735, Note_on_c, 0, 57, 41
3, 422957, Note_on_c, 0, 57, 0
3, 423022, Note_on_c, 0, 60, 57
3, 423179, Note_on_c, 0, 60, 0
3, 423249, Note_on_c, 0, 57, 35
3, 423397, Note_on_c, 0, 57, 0
3, 423460, Note_on_c, 0, 58, 55
3, 423736, Note_on_c, 0, 58, 0
3, 423892, Note_on_c, 0, 50, 26
3, 424000, Note_on_c, 0, 50, 0
3, 424311, Note_on_c, 0, 50, 50
3, 424472, Note_on_c, 0, 50, 0
3, 424711, Note_on_c, 0, 50, 50
3, 424986, Note_on_c, 0, 50, 0
3, 425274, Note_on_c, 0, 50, 51
3, 425341, Note_on_c, 0, 50, 0
3, 426261, Note_on_c, 0, 76, 65
3, 426266, Note_on_c, 0, 73, 51
3, 426267, Note_on_c, 0, 61, 35
3, 426273, Note_on_c, 0, 69, 75
3, 426289, Note_on_c, 0, 63, 37
3, 426442, Note_on_c, 0, 61, 0
3, 426454, Note_on_c, 0, 63, 0
3, 426663, Note_on_c, 0, 69, 0
3, 426705, Note_on_c, 0, 76, 0
3, 426706, Note_on_c, 0, 73, 0
3, 427223, Note_on_c, 0, 66, 59
3, 427263, Note_on_c, 0, 73, 31
3, 427265, Note_on_c, 0, 64, 43
3, 427279, Note_on_c, 0, 76, 42
3, 427280, Note_on_c, 0, 77, 42
3, 427283, Note_on_c, 0, 62, 51
3, 427296, Note_on_c, 0, 75, 19
3, 427301, Note_on_c, 0, 71, 42
3, 427303, Note_on_c, 0, 69, 34
3, 427528, Note_on_c, 0, 64, 0
3, 427543, Note_on_c, 0, 77, 0
3, 427609, Note_on_c, 0, 62, 0
3, 427613, Note_on_c, 0, 76, 0
3, 427668, Note_on_c, 0, 66, 0
3, 427670, Note_on_c, 0, 69, 0
3, 427678, Note_on_c, 0, 71, 0
3, 427723, Note_on_c, 0, 75, 0
3, 427765, Note_on_c, 0, 73, 0
3, 428173, Note_on_c, 0, 76, 62
3, 428182, Note_on_c, 0, 67, 59
3, 428189, Note_on_c, 0, 72, 51
3, 428204, Note_on_c, 0, 56, 56
3, 428206, Note_on_c, 0, 62, 50
3, 429170, Control_c, 0, 64, 127
3, 429194, Note_on_c, 0, 62, 0
3, 429483, Note_on_c, 0, 67, 0
3, 429514, Note_on_c, 0, 72, 0
3, 429543, Note_on_c, 0, 76, 0
3, 429585, Note_on_c, 0, 56, 0
3, 429836, Note_on_c, 0, 74, 74
3, 430019, Control_c, 0, 64, 0
3, 430066, Note_on_c, 0, 74, 0
3, 430175, Note_on_c, 0, 65, 53
3, 430178, Note_on_c, 0, 72, 45
3, 430194, Note_on_c, 0, 62, 58
3, 430199, Note_on_c, 0, 69, 50
3, 430226, Note_on_c, 0, 58, 31
3, 430229, Note_on_c, 0, 60, 38
3, 430596, Note_on_c, 0, 62, 0
3, 430614, Note_on_c, 0, 65, 0
3, 430642, Note_on_c, 0, 69, 0
3, 430653, Note_on_c, 0, 60, 0
3, 430669, Note_on_c, 0, 72, 0
3, 430672, Note_on_c, 0, 58, 0
3, 430783, Note_on_c, 0, 69, 54
3, 430788, Note_on_c, 0, 72, 60
3, 430791, Note_on_c, 0, 65, 45
3, 430810, Note_on_c, 0, 58, 52
3, 430811, Note_on_c, 0, 62, 50
3, 430866, Note_on_c, 0, 65, 0
3, 430898, Note_on_c, 0, 62, 0
3, 430906, Note_on_c, 0, 69, 0
3, 430938, Note_on_c, 0, 72, 0
3, 431015, Note_on_c, 0, 58, 0
3, 431730, Note_on_c, 0, 68, 70
3, 431732, Note_on_c, 0, 72, 66
3, 431735, Note_on_c, 0, 58, 68
3, 431742, Note_on_c, 0, 64, 66
3, 431746, Note_on_c, 0, 62, 65
3, 431751, Note_on_c, 0, 52, 60
3, 431829, Note_on_c, 0, 62, 0
3, 431869, Note_on_c, 0, 64, 0
3, 431914, Note_on_c, 0, 58, 0
3, 431916, Note_on_c, 0, 68, 0
3, 431917, Note_on_c, 0, 72, 0
3, 431949, Note_on_c, 0, 52, 0
3, 432056, Control_c, 0, 64, 127
3, 432122, Control_c, 0, 64, 0
3, 432633, Note_on_c, 0, 70, 77
3, 432639, Note_on_c, 0, 67, 78
3, 432644, Note_on_c, 0, 58, 84
3, 432652, Note_on_c, 0, 62, 70
3, 432703, Note_on_c, 0, 64, 31
3, 432770, Note_on_c, 0, 64, 0
3, 432990, Control_c, 0, 64, 127
3, 433399, Note_on_c, 0, 67, 0
3, 433623, Note_on_c, 0, 62, 0
3, 433629, Note_on_c, 0, 70, 0
3, 433638, Note_on_c, 0, 54, 30
3, 433656, Note_on_c, 0, 58, 0
3, 433680, Note_on_c, 0, 56, 44
3, 433807, Control_c, 0, 64, 0
3, 433855, Note_on_c, 0, 60, 46
3, 433857, Note_on_c, 0, 69, 55
3, 433858, Note_on_c, 0, 57, 57
3, 433875, Note_on_c, 0, 64, 52
3, 433962, Note_on_c, 0, 56, 0
3, 434057, Note_on_c, 0, 54, 0
3, 434422, Note_on_c, 0, 69, 0
3, 434444, Note_on_c, 0, 60, 0
3, 434460, Note_on_c, 0, 64, 0
3, 434610, Note_on_c, 0, 57, 0
3, 434626, Note_on_c, 0, 56, 44
3, 434871, Note_on_c, 0, 56, 0
3, 434873, Note_on_c, 0, 69, 51
3, 434874, Note_on_c, 0, 60, 49
3, 434877, Note_on_c, 0, 64, 58
3, 434889, Note_on_c, 0, 57, 58
3, 434932, Control_c, 0, 64, 127
3, 435172, Note_on_c, 0, 69, 0
3, 435244, Note_on_c, 0, 64, 0
3, 435317, Note_on_c, 0, 60, 0
3, 435402, Note_on_c, 0, 57, 0
3, 435666, Control_c, 0, 64, 0
3, 435821, Note_on_c, 0, 52, 46
3, 435838, Note_on_c, 0, 60, 51
3, 435844, Note_on_c, 0, 57, 49
3, 435850, Note_on_c, 0, 64, 35
3, 436319, Note_on_c, 0, 57, 0
3, 436359, Note_on_c, 0, 60, 0
3, 436366, Note_on_c, 0, 51, 35
3, 436374, Control_c, 0, 64, 127
3, 436408, Note_on_c, 0, 64, 0
3, 436471, Note_on_c, 0, 52, 0
3, 436498, Note_on_c, 0, 67, 61
3, 436528, Note_on_c, 0, 57, 58
3, 436530, Note_on_c, 0, 51, 0
3, 436532, Note_on_c, 0, 60, 60
3, 436534, Note_on_c, 0, 55, 57
3, 436565, Control_c, 0, 64, 0
3, 436698, Note_on_c, 0, 55, 0
3, 436713, Note_on_c, 0, 57, 0
3, 436714, Note_on_c, 0, 60, 0
3, 436778, Note_on_c, 0, 67, 0
3, 436850, Note_on_c, 0, 53, 44
3, 437210, Control_c, 0, 64, 127
3, 437386, Control_c, 0, 64, 0
3, 437443, Note_on_c, 0, 53, 0
3, 437445, Note_on_c, 0, 69, 69
3, 437448, Note_on_c, 0, 62, 77
3, 437450, Note_on_c, 0, 58, 82
3, 437465, Note_on_c, 0, 57, 73
3, 437466, Note_on_c, 0, 64, 63
3, 437902, Control_c, 0, 64, 127
3, 438489, Note_on_c, 0, 57, 0
3, 438704, Control_c, 0, 64, 0
3, 438754, Note_on_c, 0, 45, 72
3, 438996, Note_on_c, 0, 62, 0
3, 439135, Note_on_c, 0, 69, 0
3, 439189, Note_on_c, 0, 58, 0
3, 439250, Note_on_c, 0, 64, 0
3, 439405, Note_on_c, 0, 58, 83
3, 439413, Note_on_c, 0, 67, 64
3, 439418, Note_on_c, 0, 64, 59
3, 439421, Note_on_c, 0, 61, 64
3, 439426, Note_on_c, 0, 55, 72
3, 439777, Control_c, 0, 64, 127
3, 440071, Note_on_c, 0, 45, 0
3, 440287, Note_on_c, 0, 55, 0
3, 440370, Note_on_c, 0, 45, 66
3, 440494, Note_on_c, 0, 58, 0
3, 440531, Control_c, 0, 64, 0
3, 440584, Note_on_c, 0, 45, 0
3, 440642, Note_on_c, 0, 58, 43
3, 440659, Control_c, 0, 64, 127
3, 440872, Note_on_c, 0, 67, 0
3, 441140, Note_on_c, 0, 58, 0
3, 441196, Note_on_c, 0, 64, 0
3, 441213, Note_on_c, 0, 61, 0
3, 441298, Note_on_c, 0, 38, 70
3, 441303, Control_c, 0, 64, 0
3, 441309, Note_on_c, 0, 66, 78
3, 441312, Note_on_c, 0, 26, 78
3, 441314, Note_on_c, 0, 61, 82
3, 441316, Note_on_c, 0, 57, 79
3, 441334, Note_on_c, 0, 36, 52
3, 441531, Note_on_c, 0, 36, 0
3, 441639, Control_c, 0, 64, 127
3, 441647, Note_on_c, 0, 26, 0
3, 441685, Note_on_c, 0, 57, 0
3, 441722, Note_on_c, 0, 38, 0
3, 441809, Note_on_c, 0, 61, 0
3, 441876, Note_on_c, 0, 66, 0
3, 442596, Note_on_c, 0, 54, 52
3, 442621, Note_on_c, 0, 61, 48
3, 442629, Note_on_c, 0, 83, 71
3, 442636, Note_on_c, 0, 64, 55
3, 442639, Note_on_c, 0, 71, 64
3, 442653, Note_on_c, 0, 59, 46
3, 442801, Note_on_c, 0, 64, 0
3, 442827, Note_on_c, 0, 71, 0
3, 442839, Note_on_c, 0, 59, 0
3, 442871, Note_on_c, 0, 54, 0
3, 442913, Note_on_c, 0, 61, 0
3, 442929, Note_on_c, 0, 83, 0
3, 443241, Note_on_c, 0, 54, 78
3, 443242, Note_on_c, 0, 61, 77
3, 443249, Note_on_c, 0, 64, 88
3, 443258, Control_c, 0, 64, 0
3, 443260, Note_on_c, 0, 78, 84
3, 443262, Note_on_c, 0, 59, 72
3, 443264, Note_on_c, 0, 90, 83
3, 443546, Control_c, 0, 64, 127
3, 444012, Note_on_c, 0, 90, 0
3, 444023, Note_on_c, 0, 59, 0
3, 444071, Note_on_c, 0, 78, 0
3, 444166, Note_on_c, 0, 64, 0
3, 444170, Note_on_c, 0, 61, 0
3, 444263, Note_on_c, 0, 54, 0
3, 444383, Control_c, 0, 64, 0
3, 444498, Note_on_c, 0, 54, 36
3, 444503, Note_on_c, 0, 64, 41
3, 444514, Note_on_c, 0, 74, 48
3, 444518, Note_on_c, 0, 61, 27
3, 444542, Control_c, 0, 64, 127
3, 444562, Note_on_c, 0, 86, 24
3, 444677, Note_on_c, 0, 74, 0
3, 444713, Note_on_c, 0, 64, 0
3, 444737, Note_on_c, 0, 61, 0
3, 444753, Note_on_c, 0, 86, 0
3, 444762, Note_on_c, 0, 54, 0
3, 445130, Note_on_c, 0, 61, 69
3, 445131, Note_on_c, 0, 54, 71
3, 445138, Note_on_c, 0, 59, 68
3, 445139, Note_on_c, 0, 64, 78
3, 445150, Note_on_c, 0, 95, 90
3, 445155, Note_on_c, 0, 83, 74
3, 445172, Note_on_c, 0, 84, 78
3, 445184, Control_c, 0, 64, 0
3, 445226, Note_on_c, 0, 84, 0
3, 445489, Control_c, 0, 64, 127
3, 445704, Note_on_c, 0, 95, 0
3, 445863, Note_on_c, 0, 59, 0
3, 445864, Note_on_c, 0, 83, 0
3, 445901, Note_on_c, 0, 61, 0
3, 445940, Note_on_c, 0, 64, 0
3, 446101, Note_on_c, 0, 54, 0
3, 446380, Note_on_c, 0, 54, 36
3, 446381, Note_on_c, 0, 64, 38
3, 446389, Note_on_c, 0, 61, 31
3, 446402, Note_on_c, 0, 78, 38
3, 446425, Note_on_c, 0, 90, 35
3, 446426, Note_on_c, 0, 59, 39
3, 446545, Note_on_c, 0, 90, 0
3, 446597, Note_on_c, 0, 78, 0
3, 446662, Note_on_c, 0, 59, 0
3, 446677, Note_on_c, 0, 64, 0
3, 446719, Note_on_c, 0, 61, 0
3, 446797, Note_on_c, 0, 54, 0
3, 447026, Control_c, 0, 64, 0
3, 447038, Note_on_c, 0, 54, 39
3, 447050, Note_on_c, 0, 64, 43
3, 447052, Note_on_c, 0, 61, 35
3, 447055, Note_on_c, 0, 86, 49
3, 447064, Note_on_c, 0, 74, 30
3, 447066, Note_on_c, 0, 59, 47
3, 447093, Note_on_c, 0, 76, 33
3, 447300, Control_c, 0, 64, 127
3, 447306, Note_on_c, 0, 76, 0
3, 447396, Note_on_c, 0, 59, 0
3, 447409, Note_on_c, 0, 61, 0
3, 447431, Note_on_c, 0, 64, 0
3, 447468, Note_on_c, 0, 86, 0
3, 447494, Note_on_c, 0, 74, 0
3, 447675, Note_on_c, 0, 54, 0
3, 448010, Note_on_c, 0, 54, 50
3, 448034, Note_on_c, 0, 64, 47
3, 448050, Note_on_c, 0, 61, 36
3, 448055, Note_on_c, 0, 59, 46
3, 448118, Control_c, 0, 64, 0
3, 448375, Note_on_c, 0, 86, 84
3, 448380, Note_on_c, 0, 91, 75
3, 448480, Note_on_c, 0, 64, 0
3, 448503, Note_on_c, 0, 86, 0
3, 448512, Note_on_c, 0, 54, 0
3, 448594, Note_on_c, 0, 87, 57
3, 448672, Note_on_c, 0, 59, 0
3, 448734, Note_on_c, 0, 91, 0
3, 448740, Note_on_c, 0, 86, 63
3, 448799, Note_on_c, 0, 87, 0
3, 448851, Note_on_c, 0, 84, 50
3, 448873, Note_on_c, 0, 86, 0
3, 448940, Note_on_c, 0, 61, 0
3, 449009, Note_on_c, 0, 84, 0
3, 449046, Note_on_c, 0, 83, 55
3, 449180, Note_on_c, 0, 83, 0
3, 449221, Note_on_c, 0, 86, 68
3, 449281, Note_on_c, 0, 63, 35
3, 449308, Note_on_c, 0, 60, 26
3, 449315, Note_on_c, 0, 55, 36
3, 449427, Note_on_c, 0, 83, 48
3, 449438, Note_on_c, 0, 86, 0
3, 449527, Note_on_c, 0, 83, 0
3, 449634, Note_on_c, 0, 84, 71
3, 449776, Note_on_c, 0, 84, 0
3, 449856, Note_on_c, 0, 60, 0
3, 450029, Note_on_c, 0, 72, 44
3, 450169, Note_on_c, 0, 72, 0
3, 450207, Note_on_c, 0, 63, 0
3, 450253, Note_on_c, 0, 55, 0
3, 451194, Note_on_c, 0, 63, 56
3, 451267, Note_on_c, 0, 57, 41
3, 451280, Note_on_c, 0, 55, 24
3, 451394, Note_on_c, 0, 55, 0
3, 451447, Note_on_c, 0, 63, 0
3, 451463, Note_on_c, 0, 57, 0
3, 452823, Note_on_c, 0, 54, 72
3, 452830, Note_on_c, 0, 64, 78
3, 452833, Note_on_c, 0, 60, 68
3, 452884, Note_on_c, 0, 64, 0
3, 452887, Note_on_c, 0, 60, 0
3, 452949, Note_on_c, 0, 54, 0
3, 453775, Note_on_c, 0, 81, 91
3, 453794, Note_on_c, 0, 38, 74
3, 453925, Note_on_c, 0, 38, 0
3, 453954, Note_on_c, 0, 81, 0
3, 454166, Note_on_c, 0, 82, 55
3, 454436, Note_on_c, 0, 82, 0
3, 454705, Note_on_c, 0, 54, 71
3, 454719, Note_on_c, 0, 64, 71
3, 454725, Note_on_c, 0, 60, 65
3, 454774, Note_on_c, 0, 84, 48
3, 454815, Note_on_c, 0, 64, 0
3, 454882, Note_on_c, 0, 54, 0
3, 454900, Note_on_c, 0, 60, 0
3, 454926, Note_on_c, 0, 84, 0
3, 455679, Note_on_c, 0, 50, 52
3, 455743, Note_on_c, 0, 50, 0
3, 456047, Note_on_c, 0, 64, 82
3, 456050, Note_on_c, 0, 87, 84
3, 456051, Note_on_c, 0, 54, 78
3, 456053, Note_on_c, 0, 75, 92
3, 456058, Note_on_c, 0, 60, 66
3, 456113, Note_on_c, 0, 60, 0
3, 456175, Note_on_c, 0, 64, 0
3, 456198, Note_on_c, 0, 54, 0
3, 456250, Note_on_c, 0, 75, 0
3, 456286, Note_on_c, 0, 87, 0
3, 456676, Note_on_c, 0, 73, 69
3, 456679, Note_on_c, 0, 85, 73
3, 456681, Note_on_c, 0, 54, 77
3, 456696, Note_on_c, 0, 64, 74
3, 456710, Note_on_c, 0, 60, 53
3, 456785, Note_on_c, 0, 86, 60
3, 456815, Note_on_c, 0, 73, 0
3, 456846, Note_on_c, 0, 74, 60
3, 456899, Note_on_c, 0, 84, 22
3, 456915, Note_on_c, 0, 60, 0
3, 456964, Note_on_c, 0, 64, 0
3, 456983, Note_on_c, 0, 85, 0
3, 456987, Note_on_c, 0, 84, 0
3, 457003, Note_on_c, 0, 86, 0
3, 457030, Note_on_c, 0, 74, 0
3, 457121, Note_on_c, 0, 54, 0
3, 457291, Note_on_c, 0, 82, 67
3, 457307, Note_on_c, 0, 58, 38
3, 457310, Note_on_c, 0, 70, 69
3, 457313, Note_on_c, 0, 62, 53
3, 457315, Note_on_c, 0, 53, 46
3, 457328, Note_on_c, 0, 57, 42
3, 457650, Note_on_c, 0, 62, 0
3, 457658, Note_on_c, 0, 53, 0
3, 457697, Note_on_c, 0, 70, 0
3, 457721, Note_on_c, 0, 58, 0
3, 457722, Note_on_c, 0, 57, 0
3, 457735, Note_on_c, 0, 82, 0
3, 457935, Note_on_c, 0, 58, 46
3, 457938, Note_on_c, 0, 81, 50
3, 457946, Note_on_c, 0, 62, 49
3, 457949, Note_on_c, 0, 57, 35
3, 457951, Note_on_c, 0, 69, 48
3, 458319, Note_on_c, 0, 81, 0
3, 458359, Note_on_c, 0, 62, 0
3, 458410, Note_on_c, 0, 69, 0
3, 458466, Note_on_c, 0, 57, 0
3, 458588, Note_on_c, 0, 79, 44
3, 458599, Note_on_c, 0, 62, 48
3, 458605, Note_on_c, 0, 67, 34
3, 458623, Note_on_c, 0, 55, 38
3, 458779, Note_on_c, 0, 67, 0
3, 458788, Note_on_c, 0, 79, 0
3, 459430, Note_on_c, 0, 55, 0
3, 459529, Note_on_c, 0, 54, 74
3, 461190, Note_on_c, 0, 62, 0
3, 461437, Note_on_c, 0, 54, 0
3, 461490, Note_on_c, 0, 62, 56
3, 461516, Note_on_c, 0, 53, 45
3, 461642, Note_on_c, 0, 62, 0
3, 461724, Note_on_c, 0, 58, 0
3, 461798, Note_on_c, 0, 79, 61
3, 461990, Note_on_c, 0, 79, 0
3, 462100, Note_on_c, 0, 53, 0
3, 462421, Note_on_c, 0, 58, 59
3, 462429, Note_on_c, 0, 53, 57
3, 462441, Note_on_c, 0, 62, 45
3, 462488, Note_on_c, 0, 83, 53
3, 462503, Note_on_c, 0, 82, 27
3, 462508, Note_on_c, 0, 62, 0
3, 462589, Note_on_c, 0, 53, 0
3, 462623, Note_on_c, 0, 83, 0
3, 462629, Note_on_c, 0, 82, 0
3, 462637, Note_on_c, 0, 58, 0
3, 462740, Note_on_c, 0, 53, 38
3, 462781, Note_on_c, 0, 62, 31
3, 462784, Note_on_c, 0, 58, 45
3, 462786, Note_on_c, 0, 84, 70
3, 462806, Note_on_c, 0, 72, 59
3, 462859, Note_on_c, 0, 62, 0
3, 462941, Note_on_c, 0, 53, 0
3, 462950, Note_on_c, 0, 58, 0
3, 462951, Note_on_c, 0, 72, 0
3, 462983, Note_on_c, 0, 84, 0
3, 463376, Note_on_c, 0, 53, 71
3, 463383, Note_on_c, 0, 58, 67
3, 463390, Note_on_c, 0, 62, 68
3, 463402, Note_on_c, 0, 85, 71
3, 463411, Note_on_c, 0, 75, 56
3, 463434, Note_on_c, 0, 74, 75
3, 463437, Note_on_c, 0, 86, 72
3, 463489, Note_on_c, 0, 74, 0
3, 463519, Note_on_c, 0, 62, 0
3, 463521, Note_on_c, 0, 86, 0
3, 463541, Note_on_c, 0, 75, 0
3, 463601, Note_on_c, 0, 85, 0
3, 463654, Note_on_c, 0, 58, 0
3, 463752, Note_on_c, 0, 86, 30
3, 463758, Note_on_c, 0, 84, 56
3, 463770, Note_on_c, 0, 62, 32
3, 463783, Note_on_c, 0, 72, 49
3, 463792, Note_on_c, 0, 74, 44
3, 463799, Note_on_c, 0, 58, 13
3, 463858, Note_on_c, 0, 74, 0
3, 463862, Note_on_c, 0, 62, 0
3, 463892, Note_on_c, 0, 86, 0
3, 463909, Note_on_c, 0, 72, 0
3, 463923, Note_on_c, 0, 84, 0
3, 463957, Note_on_c, 0, 58, 0
3, 464033, Note_on_c, 0, 53, 0
3, 464319, Note_on_c, 0, 58, 56
3, 464652, Note_on_c, 0, 82, 64
3, 464656, Note_on_c, 0, 61, 65
3, 464680, Note_on_c, 0, 77, 62
3, 464693, Note_on_c, 0, 55, 56
3, 464695, Note_on_c, 0, 73, 34
3, 464728, Note_on_c, 0, 53, 28
3, 464731, Note_on_c, 0, 71, 41
3, 464757, Note_on_c, 0, 72, 32
3, 464821, Note_on_c, 0, 72, 0
3, 464859, Note_on_c, 0, 73, 0
3, 464886, Note_on_c, 0, 71, 0
3, 465109, Note_on_c, 0, 77, 0
3, 465179, Note_on_c, 0, 53, 0
3, 465189, Note_on_c, 0, 55, 0
3, 465196, Note_on_c, 0, 61, 0
3, 465209, Note_on_c, 0, 82, 0
3, 465227, Note_on_c, 0, 58, 0
3, 465586, Note_on_c, 0, 61, 69
3, 465597, Note_on_c, 0, 82, 75
3, 465601, Note_on_c, 0, 70, 72
3, 465615, Note_on_c, 0, 53, 52
3, 465620, Note_on_c, 0, 58, 48
3, 465623, Note_on_c, 0, 77, 59
3, 465626, Note_on_c, 0, 55, 50
3, 465671, Control_c, 0, 64, 127
3, 466024, Note_on_c, 0, 53, 0
3, 466066, Note_on_c, 0, 55, 0
3, 466069, Note_on_c, 0, 70, 0
3, 466076, Note_on_c, 0, 77, 0
3, 466079, Note_on_c, 0, 61, 0
3, 466098, Note_on_c, 0, 82, 0
3, 466119, Note_on_c, 0, 58, 0
3, 466257, Note_on_c, 0, 61, 55
3, 466266, Note_on_c, 0, 82, 62
3, 466274, Note_on_c, 0, 70, 57
3, 466282, Note_on_c, 0, 58, 49
3, 466304, Note_on_c, 0, 77, 60
3, 466319, Note_on_c, 0, 55, 36
3, 466480, Note_on_c, 0, 61, 0
3, 466486, Control_c, 0, 64, 0
3, 466490, Note_on_c, 0, 82, 0
3, 466492, Note_on_c, 0, 70, 0
3, 466511, Note_on_c, 0, 77, 0
3, 466512, Note_on_c, 0, 55, 0
3, 466523, Note_on_c, 0, 58, 0
3, 466599, Note_on_c, 0, 61, 56
3, 466601, Note_on_c, 0, 82, 55
3, 466622, Note_on_c, 0, 70, 37
3, 466628, Note_on_c, 0, 77, 51
3, 466639, Note_on_c, 0, 58, 37
3, 466648, Note_on_c, 0, 53, 43
3, 466665, Note_on_c, 0, 55, 34
3, 466762, Control_c, 0, 64, 127
3, 467001, Note_on_c, 0, 77, 0
3, 467020, Note_on_c, 0, 61, 0
3, 467042, Note_on_c, 0, 53, 0
3, 467055, Note_on_c, 0, 82, 0
3, 467057, Note_on_c, 0, 70, 0
3, 467093, Note_on_c, 0, 55, 0
3, 467111, Note_on_c, 0, 58, 0
3, 467204, Note_on_c, 0, 61, 59
3, 467215, Note_on_c, 0, 82, 59
3, 467225, Control_c, 0, 64, 0
3, 467231, Note_on_c, 0, 70, 62
3, 467232, Note_on_c, 0, 53, 17
3, 467247, Note_on_c, 0, 58, 40
3, 467248, Note_on_c, 0, 77, 56
3, 467282, Note_on_c, 0, 55, 15
3, 467326, Note_on_c, 0, 77, 0
3, 467361, Note_on_c, 0, 70, 0
3, 467375, Note_on_c, 0, 55, 0
3, 467377, Note_on_c, 0, 61, 0
3, 467404, Note_on_c, 0, 82, 0
3, 467412, Note_on_c, 0, 53, 0
3, 467449, Note_on_c, 0, 58, 0
3, 468188, Note_on_c, 0, 67, 78
3, 468189, Note_on_c, 0, 79, 65
3, 468192, Note_on_c, 0, 76, 60
3, 468194, Note_on_c, 0, 73, 49
3, 468206, Note_on_c, 0, 60, 79
3, 468214, Note_on_c, 0, 58, 67
3, 468217, Note_on_c, 0, 52, 62
3, 468226, Note_on_c, 0, 77, 42
3, 468265, Note_on_c, 0, 73, 0
3, 468296, Note_on_c, 0, 77, 0
3, 468302, Note_on_c, 0, 67, 0
3, 468309, Note_on_c, 0, 60, 0
3, 468325, Note_on_c, 0, 52, 0
3, 468335, Note_on_c, 0, 58, 0
3, 468338, Note_on_c, 0, 76, 0
3, 468339, Note_on_c, 0, 79, 0
3, 468670, Control_c, 0, 64, 127
3, 469038, Control_c, 0, 64, 0
3, 469167, Note_on_c, 0, 81, 74
3, 469170, Note_on_c, 0, 76, 77
3, 469171, Note_on_c, 0, 69, 80
3, 469173, Note_on_c, 0, 58, 78
3, 469186, Note_on_c, 0, 60, 68
3, 469188, Note_on_c, 0, 52, 67
3, 469240, Note_on_c, 0, 60, 0
3, 469242, Note_on_c, 0, 52, 0
3, 469266, Note_on_c, 0, 69, 0
3, 469275, Note_on_c, 0, 76, 0
3, 469287, Note_on_c, 0, 58, 0
3, 469300, Note_on_c, 0, 81, 0
3, 469631, Control_c, 0, 64, 127
3, 469679, Control_c, 0, 64, 0
3, 469806, Note_on_c, 0, 82, 68
3, 469826, Note_on_c, 0, 75, 64
3, 469835, Note_on_c, 0, 58, 65
3, 469837, Note_on_c, 0, 70, 59
3, 469841, Note_on_c, 0, 60, 64
3, 469843, Note_on_c, 0, 52, 65
3, 469905, Control_c, 0, 64, 127
3, 470018, Note_on_c, 0, 60, 0
3, 470033, Note_on_c, 0, 75, 0
3, 470034, Note_on_c, 0, 70, 0
3, 470040, Note_on_c, 0, 52, 0
3, 470081, Note_on_c, 0, 58, 0
3, 470127, Note_on_c, 0, 82, 0
3, 470370, Control_c, 0, 64, 0
3, 470456, Note_on_c, 0, 85, 78
3, 470458, Note_on_c, 0, 63, 82
3, 470461, Note_on_c, 0, 52, 73
3, 470463, Note_on_c, 0, 73, 73
3, 470466, Note_on_c, 0, 58, 71
3, 470474, Note_on_c, 0, 80, 67
3, 470675, Control_c, 0, 64, 127
3, 470927, Note_on_c, 0, 52, 0
3, 470973, Note_on_c, 0, 63, 0
3, 471008, Note_on_c, 0, 58, 0
3, 471010, Note_on_c, 0, 73, 0
3, 471012, Note_on_c, 0, 80, 0
3, 471084, Note_on_c, 0, 85, 0
3, 471109, Control_c, 0, 64, 0
3, 471128, Note_on_c, 0, 63, 64
3, 471131, Note_on_c, 0, 84, 73
3, 471143, Note_on_c, 0, 58, 56
3, 471147, Note_on_c, 0, 72, 51
3, 471149, Note_on_c, 0, 52, 58
3, 471154, Note_on_c, 0, 79, 56
3, 471197, Note_on_c, 0, 74, 35
3, 471264, Note_on_c, 0, 74, 0
3, 471344, Note_on_c, 0, 84, 0
3, 471404, Note_on_c, 0, 72, 0
3, 471410, Note_on_c, 0, 79, 0
3, 471424, Note_on_c, 0, 52, 0
3, 471446, Control_c, 0, 64, 127
3, 471462, Note_on_c, 0, 58, 0
3, 471482, Note_on_c, 0, 63, 0
3, 471638, Control_c, 0, 64, 0
3, 471696, Note_on_c, 0, 82, 57
3, 471720, Note_on_c, 0, 70, 53
3, 471722, Note_on_c, 0, 63, 50
3, 471780, Note_on_c, 0, 63, 0
3, 471893, Control_c, 0, 64, 127
3, 471913, Note_on_c, 0, 70, 0
3, 471924, Note_on_c, 0, 82, 0
3, 472002, Note_on_c, 0, 63, 52
3, 472013, Note_on_c, 0, 52, 43
3, 472036, Note_on_c, 0, 58, 37
3, 472143, Note_on_c, 0, 52, 0
3, 472192, Note_on_c, 0, 63, 0
3, 472228, Note_on_c, 0, 58, 0
3, 472246, Control_c, 0, 64, 0
3, 472336, Note_on_c, 0, 56, 50
3, 472347, Note_on_c, 0, 76, 53
3, 472352, Note_on_c, 0, 64, 54
3, 472354, Note_on_c, 0, 69, 55
3, 472356, Note_on_c, 0, 81, 55
3, 472369, Note_on_c, 0, 60, 51
3, 472392, Note_on_c, 0, 53, 36
3, 472394, Note_on_c, 0, 56, 0
3, 472418, Note_on_c, 0, 57, 48
3, 472645, Control_c, 0, 64, 127
3, 472751, Note_on_c, 0, 81, 0
3, 472802, Note_on_c, 0, 64, 0
3, 472804, Note_on_c, 0, 76, 0
3, 472864, Note_on_c, 0, 60, 0
3, 472880, Note_on_c, 0, 69, 0
3, 472981, Note_on_c, 0, 57, 0
3, 473145, Note_on_c, 0, 53, 0
3, 473364, Note_on_c, 0, 67, 62
3, 473367, Note_on_c, 0, 53, 47
3, 473369, Note_on_c, 0, 55, 69
3, 473371, Note_on_c, 0, 57, 71
3, 473373, Note_on_c, 0, 60, 66
3, 473389, Note_on_c, 0, 64, 50
3, 473399, Control_c, 0, 64, 0
3, 473409, Note_on_c, 0, 63, 35
3, 473417, Note_on_c, 0, 65, 38
3, 473597, Note_on_c, 0, 53, 0
3, 474165, Note_on_c, 0, 57, 0
3, 474174, Note_on_c, 0, 63, 0
3, 474187, Note_on_c, 0, 64, 0
3, 474194, Note_on_c, 0, 60, 0
3, 474210, Note_on_c, 0, 65, 0
3, 474222, Note_on_c, 0, 55, 0
3, 474231, Note_on_c, 0, 67, 0
3, 474297, Note_on_c, 0, 64, 33
3, 474317, Note_on_c, 0, 52, 39
3, 474335, Note_on_c, 0, 57, 20
3, 474385, Note_on_c, 0, 60, 22
3, 474764, Note_on_c, 0, 57, 0
3, 474767, Note_on_c, 0, 60, 0
3, 474807, Note_on_c, 0, 64, 0
3, 474828, Control_c, 0, 64, 127
3, 474879, Note_on_c, 0, 65, 51
3, 474882, Note_on_c, 0, 52, 0
3, 474884, Note_on_c, 0, 53, 57
3, 475006, Note_on_c, 0, 53, 0
3, 475037, Control_c, 0, 64, 0
3, 475053, Note_on_c, 0, 65, 0
3, 475154, Note_on_c, 0, 57, 64
3, 475168, Note_on_c, 0, 55, 73
3, 475174, Note_on_c, 0, 67, 49
3, 475183, Note_on_c, 0, 60, 47
3, 475186, Note_on_c, 0, 64, 44
3, 475222, Note_on_c, 0, 65, 25
3, 475404, Note_on_c, 0, 60, 0
3, 475417, Control_c, 0, 64, 127
3, 475801, Note_on_c, 0, 64, 0
3, 475863, Note_on_c, 0, 67, 0
3, 475906, Note_on_c, 0, 57, 0
3, 475973, Note_on_c, 0, 65, 0
3, 475997, Note_on_c, 0, 55, 0
3, 476079, Control_c, 0, 64, 0
3, 476123, Note_on_c, 0, 67, 67
3, 476130, Note_on_c, 0, 58, 71
3, 476135, Note_on_c, 0, 55, 54
3, 476159, Note_on_c, 0, 62, 60
3, 476168, Note_on_c, 0, 64, 51
3, 477117, Note_on_c, 0, 45, 50
3, 477124, Note_on_c, 0, 55, 0
3, 477125, Note_on_c, 0, 62, 0
3, 477127, Note_on_c, 0, 64, 0
3, 477181, Note_on_c, 0, 58, 0
3, 477208, Note_on_c, 0, 67, 0
3, 477233, Control_c, 0, 64, 127
3, 477666, Control_c, 0, 64, 0
3, 477765, Note_on_c, 0, 64, 56
3, 477769, Note_on_c, 0, 61, 49
3, 477781, Note_on_c, 0, 58, 54
3, 477783, Note_on_c, 0, 55, 55
3, 477809, Note_on_c, 0, 52, 40
3, 477946, Note_on_c, 0, 55, 0
3, 478003, Control_c, 0, 64, 127
3, 478009, Note_on_c, 0, 45, 0
3, 478048, Note_on_c, 0, 58, 0
3, 478070, Note_on_c, 0, 52, 0
3, 478103, Note_on_c, 0, 61, 0
3, 478130, Note_on_c, 0, 64, 0
3, 479031, Control_c, 0, 64, 0
3, 479141, Note_on_c, 0, 61, 72
3, 479146, Note_on_c, 0, 86, 81
3, 479147, Note_on_c, 0, 60, 75
3, 479150, Note_on_c, 0, 74, 89
3, 479153, Note_on_c, 0, 81, 81
3, 479154, Note_on_c, 0, 55, 71
3, 479156, Note_on_c, 0, 65, 78
3, 479200, Note_on_c, 0, 58, 38
3, 479350, Control_c, 0, 64, 127
3, 479423, Note_on_c, 0, 60, 0
3, 479424, Note_on_c, 0, 65, 0
3, 479468, Note_on_c, 0, 74, 0
3, 479474, Note_on_c, 0, 61, 0
3, 479500, Note_on_c, 0, 58, 0
3, 479503, Note_on_c, 0, 55, 0
3, 479517, Note_on_c, 0, 81, 0
3, 479553, Note_on_c, 0, 86, 0
3, 479589, Control_c, 0, 64, 0
3, 480098, Note_on_c, 0, 50, 68
3, 480103, Note_on_c, 0, 89, 81
3, 480104, Note_on_c, 0, 57, 68
3, 480107, Note_on_c, 0, 53, 56
3, 480110, Note_on_c, 0, 77, 84
3, 480111, Note_on_c, 0, 84, 87
3, 480114, Note_on_c, 0, 60, 71
3, 482257, Note_on_c, 0, 89, 0
3, 482302, Note_on_c, 0, 84, 0
3, 482421, Note_on_c, 0, 77, 0
3, 482647, Note_on_c, 0, 60, 0
3, 482874, Note_on_c, 0, 60, 36
3, 482885, Note_on_c, 0, 86, 57
3, 482896, Note_on_c, 0, 74, 49
3, 482917, Note_on_c, 0, 81, 47
3, 483114, Note_on_c, 0, 74, 0
3, 483124, Note_on_c, 0, 50, 0
3, 483158, Note_on_c, 0, 60, 0
3, 483165, Note_on_c, 0, 81, 0
3, 483178, Note_on_c, 0, 57, 0
3, 483200, Note_on_c, 0, 53, 0
3, 483212, Note_on_c, 0, 86, 0
3, 483875, Note_on_c, 0, 76, 55
3, 483879, Note_on_c, 0, 88, 56
3, 483888, Note_on_c, 0, 84, 55
3, 483894, Note_on_c, 0, 62, 52
3, 483897, Note_on_c, 0, 58, 45
3, 483917, Note_on_c, 0, 52, 37
3, 484366, Note_on_c, 0, 88, 0
3, 484368, Note_on_c, 0, 62, 0
3, 484381, Note_on_c, 0, 52, 0
3, 484407, Note_on_c, 0, 76, 0
3, 484412, Note_on_c, 0, 84, 0
3, 484425, Note_on_c, 0, 58, 0
3, 484521, Note_on_c, 0, 88, 35
3, 484530, Note_on_c, 0, 76, 50
3, 484534, Note_on_c, 0, 62, 44
3, 484544, Note_on_c, 0, 58, 49
3, 484547, Note_on_c, 0, 84, 47
3, 484567, Note_on_c, 0, 52, 24
3, 484622, Note_on_c, 0, 84, 0
3, 484647, Note_on_c, 0, 52, 0
3, 484650, Note_on_c, 0, 88, 0
3, 484654, Note_on_c, 0, 76, 0
3, 484657, Note_on_c, 0, 62, 0
3, 484714, Note_on_c, 0, 58, 0
3, 485769, Note_on_c, 0, 76, 53
3, 485772, Note_on_c, 0, 61, 44
3, 485777, Note_on_c, 0, 88, 58
3, 485784, Note_on_c, 0, 64, 50
3, 485786, Note_on_c, 0, 82, 43
3, 485791, Control_c, 0, 64, 127
3, 485793, Note_on_c, 0, 85, 38
3, 485798, Note_on_c, 0, 58, 44
3, 485804, Note_on_c, 0, 55, 39
3, 486602, Note_on_c, 0, 88, 0
3, 486661, Note_on_c, 0, 85, 0
3, 486684, Note_on_c, 0, 64, 0
3, 486695, Note_on_c, 0, 82, 0
3, 486742, Note_on_c, 0, 61, 0
3, 486760, Note_on_c, 0, 76, 0
3, 486806, Note_on_c, 0, 58, 0
3, 486895, Note_on_c, 0, 55, 0
3, 487633, Control_c, 0, 64, 0
3, 487648, Note_on_c, 0, 38, 76
3, 488013, Note_on_c, 0, 38, 0
3, 488639, Note_on_c, 0, 62, 60
3, 488644, Note_on_c, 0, 53, 51
3, 488652, Note_on_c, 0, 50, 62
3, 488676, Note_on_c, 0, 57, 43
3, 489081, Note_on_c, 0, 53, 0
3, 489102, Note_on_c, 0, 62, 0
3, 489108, Note_on_c, 0, 57, 0
3, 489178, Note_on_c, 0, 50, 0
3, 489592, Note_on_c, 0, 64, 60
3, 489606, Note_on_c, 0, 61, 46
3, 489609, Note_on_c, 0, 58, 53
3, 489615, Note_on_c, 0, 55, 52
3, 489625, Note_on_c, 0, 52, 41
3, 490010, Note_on_c, 0, 64, 0
3, 490037, Note_on_c, 0, 55, 0
3, 490090, Note_on_c, 0, 58, 0
3, 490112, Note_on_c, 0, 52, 0
3, 490142, Note_on_c, 0, 61, 0
3, 490268, Note_on_c, 0, 57, 60
3, 490274, Note_on_c, 0, 65, 53
3, 490277, Note_on_c, 0, 60, 57
3, 490302, Note_on_c, 0, 53, 45
3, 490315, Note_on_c, 0, 62, 47
3, 490386, Note_on_c, 0, 62, 0
3, 490399, Note_on_c, 0, 57, 0
3, 490425, Note_on_c, 0, 60, 0
3, 490442, Note_on_c, 0, 53, 0
3, 490490, Note_on_c, 0, 65, 0
3, 491202, Note_on_c, 0, 69, 70
3, 491206, Note_on_c, 0, 58, 74
3, 491208, Note_on_c, 0, 62, 71
3, 491218, Note_on_c, 0, 64, 66
3, 491220, Note_on_c, 0, 57, 83
3, 491834, Control_c, 0, 64, 127
3, 492815, Note_on_c, 0, 57, 0
3, 493034, Note_on_c, 0, 62, 0
3, 493102, Note_on_c, 0, 64, 0
3, 493114, Note_on_c, 0, 69, 0
3, 493154, Note_on_c, 0, 58, 0
3, 493437, Control_c, 0, 64, 0
3, 493457, Note_on_c, 0, 61, 53
3, 493462, Note_on_c, 0, 64, 53
3, 493470, Note_on_c, 0, 55, 47
3, 493472, Note_on_c, 0, 58, 45
3, 493477, Note_on_c, 0, 45, 39
3, 494383, Note_on_c, 0, 55, 0
3, 494451, Control_c, 0, 64, 127
3, 494525, Note_on_c, 0, 45, 0
3, 495251, Note_on_c, 0, 58, 0
3, 495282, Control_c, 0, 64, 0
3, 495284, Note_on_c, 0, 64, 0
3, 495293, Note_on_c, 0, 38, 74
3, 495297, Note_on_c, 0, 61, 0
3, 495302, Note_on_c, 0, 26, 79
3, 495814, Note_on_c, 0, 26, 0
3, 495886, Note_on_c, 0, 38, 0
3, 496354, Control_c, 0, 64, 127
3, 496807, Control_c, 0, 64, 0
3, 496954, Note_on_c, 0, 69, 65
3, 496957, Note_on_c, 0, 53, 56
3, 496960, Note_on_c, 0, 60, 72
3, 496965, Note_on_c, 0, 65, 61
3, 497031, Control_c, 0, 64, 127
3, 497143, Note_on_c, 0, 60, 0
3, 497185, Note_on_c, 0, 65, 0
3, 497198, Note_on_c, 0, 69, 0
3, 497239, Control_c, 0, 64, 0
3, 497389, Note_on_c, 0, 71, 64
3, 497401, Note_on_c, 0, 53, 0
3, 497407, Note_on_c, 0, 62, 60
3, 497415, Note_on_c, 0, 65, 56
3, 497421, Note_on_c, 0, 55, 54
3, 497562, Control_c, 0, 64, 127
3, 497630, Note_on_c, 0, 62, 0
3, 497678, Note_on_c, 0, 65, 0
3, 497688, Note_on_c, 0, 71, 0
3, 498010, Control_c, 0, 64, 0
3, 498028, Note_on_c, 0, 55, 0
3, 498039, Note_on_c, 0, 57, 74
3, 498047, Note_on_c, 0, 74, 53
3, 498063, Note_on_c, 0, 69, 55
3, 498076, Note_on_c, 0, 64, 38
3, 498078, Note_on_c, 0, 65, 44
3, 498084, Note_on_c, 0, 72, 33
3, 498141, Note_on_c, 0, 64, 0
3, 498143, Note_on_c, 0, 65, 0
3, 498155, Note_on_c, 0, 72, 0
3, 498169, Note_on_c, 0, 57, 0
3, 498196, Note_on_c, 0, 69, 0
3, 498245, Note_on_c, 0, 74, 0
3, 498362, Control_c, 0, 64, 127
3, 498940, Control_c, 0, 64, 0
3, 498943, Note_on_c, 0, 56, 88
3, 498946, Note_on_c, 0, 74, 110
3, 498948, Note_on_c, 0, 67, 89
3, 498951, Note_on_c, 0, 77, 91
3, 498959, Note_on_c, 0, 62, 77
3, 499405, Control_c, 0, 64, 127
3, 500419, Note_on_c, 0, 67, 0
3, 500445, Note_on_c, 0, 62, 0
3, 500756, Note_on_c, 0, 56, 0
3, 502063, Note_on_c, 0, 66, 51
3, 502087, Note_on_c, 0, 61, 45
3, 502089, Note_on_c, 0, 73, 43
3, 502098, Control_c, 0, 64, 0
3, 502106, Note_on_c, 0, 55, 34
3, 502177, Note_on_c, 0, 77, 0
3, 502209, Note_on_c, 0, 66, 0
3, 502214, Note_on_c, 0, 55, 0
3, 502220, Note_on_c, 0, 74, 0
3, 502271, Note_on_c, 0, 61, 0
3, 502303, Note_on_c, 0, 73, 0
3, 502565, Control_c, 0, 64, 127
3, 502966, Control_c, 0, 64, 0
3, 503076, Note_on_c, 0, 50, 54
3, 503079, Note_on_c, 0, 76, 56
3, 503083, Note_on_c, 0, 65, 54
3, 503096, Note_on_c, 0, 57, 40
3, 503101, Note_on_c, 0, 69, 54
3, 503187, Note_on_c, 0, 65, 0
3, 503237, Control_c, 0, 64, 127
3, 503298, Note_on_c, 0, 69, 0
3, 503362, Note_on_c, 0, 65, 32
3, 503374, Note_on_c, 0, 50, 0
3, 503498, Note_on_c, 0, 65, 0
3, 503554, Note_on_c, 0, 69, 30
3, 503634, Note_on_c, 0, 69, 0
3, 503652, Note_on_c, 0, 65, 33
3, 503808, Note_on_c, 0, 65, 0
3, 503846, Note_on_c, 0, 69, 38
3, 503903, Note_on_c, 0, 57, 0
3, 503940, Note_on_c, 0, 69, 0
3, 503954, Note_on_c, 0, 65, 38
3, 504042, Note_on_c, 0, 64, 88
3, 504074, Control_c, 0, 64, 0
3, 504119, Note_on_c, 0, 69, 51
3, 504121, Note_on_c, 0, 65, 0
3, 504263, Note_on_c, 0, 65, 44
3, 504271, Note_on_c, 0, 69, 0
3, 504412, Note_on_c, 0, 65, 0
3, 504421, Note_on_c, 0, 69, 38
3, 504523, Note_on_c, 0, 69, 0
3, 504554, Note_on_c, 0, 65, 47
3, 504700, Note_on_c, 0, 65, 0
3, 504739, Note_on_c, 0, 69, 41
3, 504826, Note_on_c, 0, 69, 0
3, 504842, Note_on_c, 0, 65, 38
3, 504997, Note_on_c, 0, 65, 0
3, 505042, Note_on_c, 0, 69, 34
3, 505119, Note_on_c, 0, 69, 0
3, 505138, Note_on_c, 0, 65, 42
3, 505285, Note_on_c, 0, 65, 0
3, 505331, Note_on_c, 0, 69, 33
3, 505411, Note_on_c, 0, 69, 0
3, 505429, Note_on_c, 0, 65, 39
3, 505575, Note_on_c, 0, 65, 0
3, 505612, Note_on_c, 0, 69, 37
3, 505701, Note_on_c, 0, 69, 0
3, 505740, Note_on_c, 0, 65, 32
3, 505740, Note_on_c, 0, 65, 0
3, 505896, Note_on_c, 0, 69, 33
3, 505978, Note_on_c, 0, 69, 0
3, 506024, Note_on_c, 0, 65, 43
3, 506162, Note_on_c, 0, 69, 51
3, 506165, Note_on_c, 0, 65, 0
3, 506179, Note_on_c, 0, 62, 64
3, 506223, Note_on_c, 0, 64, 0
3, 506284, Note_on_c, 0, 69, 0
3, 506303, Note_on_c, 0, 65, 38
3, 506446, Note_on_c, 0, 69, 41
3, 506448, Note_on_c, 0, 65, 0
3, 506555, Note_on_c, 0, 69, 0
3, 506595, Note_on_c, 0, 65, 34
3, 506737, Note_on_c, 0, 69, 41
3, 506742, Note_on_c, 0, 65, 0
3, 506858, Note_on_c, 0, 69, 0
3, 506893, Note_on_c, 0, 65, 36
3, 507029, Note_on_c, 0, 61, 57
3, 507040, Note_on_c, 0, 69, 46
3, 507051, Note_on_c, 0, 65, 0
3, 507074, Note_on_c, 0, 62, 0
3, 507149, Note_on_c, 0, 69, 0
3, 507186, Note_on_c, 0, 65, 41
3, 507345, Note_on_c, 0, 65, 0
3, 507355, Note_on_c, 0, 69, 47
3, 507442, Note_on_c, 0, 69, 0
3, 507493, Note_on_c, 0, 65, 33
3, 507644, Note_on_c, 0, 65, 0
3, 507653, Note_on_c, 0, 69, 38
3, 507744, Note_on_c, 0, 69, 0
3, 507801, Note_on_c, 0, 65, 33
3, 507944, Note_on_c, 0, 65, 0
3, 507967, Note_on_c, 0, 69, 43
3, 508055, Note_on_c, 0, 69, 0
3, 508101, Note_on_c, 0, 65, 29
3, 508244, Note_on_c, 0, 65, 0
3, 508254, Note_on_c, 0, 69, 46
3, 508315, Note_on_c, 0, 64, 54
3, 508343, Note_on_c, 0, 69, 0
3, 508348, Note_on_c, 0, 61, 0
3, 508383, Note_on_c, 0, 65, 30
3, 508524, Note_on_c, 0, 65, 0
3, 508551, Note_on_c, 0, 69, 43
3, 508664, Note_on_c, 0, 69, 0
3, 508687, Note_on_c, 0, 65, 34
3, 508844, Note_on_c, 0, 65, 0
3, 508851, Note_on_c, 0, 69, 39
3, 508950, Note_on_c, 0, 69, 0
3, 509001, Note_on_c, 0, 65, 34
3, 509162, Note_on_c, 0, 65, 0
3, 509168, Note_on_c, 0, 69, 48
3, 509258, Note_on_c, 0, 69, 0
3, 509281, Note_on_c, 0, 62, 40
3, 509317, Note_on_c, 0, 64, 0
3, 509332, Note_on_c, 0, 65, 40
3, 509466, Note_on_c, 0, 65, 0
3, 509473, Note_on_c, 0, 69, 43
3, 509609, Note_on_c, 0, 69, 0
3, 509641, Note_on_c, 0, 65, 35
3, 509751, Note_on_c, 0, 62, 0
3, 509751, Control_c, 0, 64, 127
3, 509780, Note_on_c, 0, 69, 38
3, 509802, Note_on_c, 0, 65, 0
3, 509940, Note_on_c, 0, 69, 0
3, 509968, Note_on_c, 0, 65, 40
3, 510125, Note_on_c, 0, 69, 37
3, 510130, Note_on_c, 0, 57, 55
3, 510157, Note_on_c, 0, 65, 0
3, 510278, Note_on_c, 0, 69, 0
3, 510306, Note_on_c, 0, 65, 38
3, 510378, Note_on_c, 0, 57, 0
3, 510458, Note_on_c, 0, 69, 32
3, 510480, Note_on_c, 0, 65, 0
3, 510604, Note_on_c, 0, 69, 0
3, 510643, Note_on_c, 0, 65, 37
3, 510787, Note_on_c, 0, 69, 34
3, 510809, Note_on_c, 0, 65, 0
3, 510954, Note_on_c, 0, 69, 0
3, 510975, Note_on_c, 0, 65, 33
3, 511063, Note_on_c, 0, 50, 42
3, 511116, Note_on_c, 0, 69, 36
3, 511179, Note_on_c, 0, 65, 0
3, 511250, Note_on_c, 0, 50, 0
3, 511278, Note_on_c, 0, 69, 0
3, 511327, Note_on_c, 0, 65, 31
3, 511455, Note_on_c, 0, 69, 26
3, 511499, Note_on_c, 0, 65, 0
3, 511626, Note_on_c, 0, 69, 0
3, 511678, Note_on_c, 0, 65, 33
3, 511831, Note_on_c, 0, 69, 37
3, 511914, Note_on_c, 0, 45, 50
3, 512006, Note_on_c, 0, 45, 0
3, 512016, Note_on_c, 0, 69, 0
3, 512083, Note_on_c, 0, 65, 0
3, 512177, Note_on_c, 0, 69, 24
3, 512284, Note_on_c, 0, 65, 29
3, 512297, Note_on_c, 0, 69, 0
3, 512434, Note_on_c, 0, 65, 0
3, 512469, Note_on_c, 0, 69, 25
3, 512607, Note_on_c, 0, 69, 0
3, 512617, Note_on_c, 0, 65, 26
3, 512770, Note_on_c, 0, 65, 0
3, 512802, Note_on_c, 0, 69, 33
3, 512919, Note_on_c, 0, 69, 0
3, 512944, Note_on_c, 0, 65, 27
3, 513103, Note_on_c, 0, 65, 0
3, 513183, Note_on_c, 0, 69, 27
3, 513273, Note_on_c, 0, 69, 0
3, 513329, Note_on_c, 0, 65, 34
3, 513383, Note_on_c, 0, 26, 29
3, 513474, Note_on_c, 0, 65, 0
3, 513517, Note_on_c, 0, 73, 32
3, 513538, Note_on_c, 0, 69, 31
3, 513567, Note_on_c, 0, 26, 0
3, 513626, Note_on_c, 0, 38, 34
3, 513632, Note_on_c, 0, 65, 33
3, 513637, Note_on_c, 0, 69, 0
3, 513676, Note_on_c, 0, 73, 0
3, 513716, Note_on_c, 0, 38, 0
3, 513778, Note_on_c, 0, 26, 41
3, 513817, Note_on_c, 0, 65, 0
3, 513839, Note_on_c, 0, 73, 28
3, 513855, Note_on_c, 0, 69, 31
3, 513903, Note_on_c, 0, 26, 0
3, 513951, Note_on_c, 0, 65, 36
3, 513957, Note_on_c, 0, 69, 0
3, 513992, Note_on_c, 0, 73, 0
3, 514019, Note_on_c, 0, 38, 24
3, 514111, Note_on_c, 0, 38, 0
3, 514136, Note_on_c, 0, 65, 0
3, 514143, Note_on_c, 0, 26, 36
3, 514161, Note_on_c, 0, 69, 31
3, 514162, Note_on_c, 0, 73, 27
3, 514268, Note_on_c, 0, 69, 0
3, 514279, Note_on_c, 0, 65, 32
3, 514284, Note_on_c, 0, 73, 0
3, 514361, Note_on_c, 0, 26, 0
3, 514386, Note_on_c, 0, 38, 31
3, 514464, Note_on_c, 0, 65, 0
3, 514489, Note_on_c, 0, 73, 23
3, 514492, Note_on_c, 0, 69, 35
3, 514514, Note_on_c, 0, 38, 0
3, 514585, Note_on_c, 0, 69, 0
3, 514603, Note_on_c, 0, 26, 35
3, 514607, Note_on_c, 0, 65, 32
3, 514610, Note_on_c, 0, 73, 0
3, 514773, Note_on_c, 0, 65, 0
3, 514779, Note_on_c, 0, 26, 0
3, 514796, Note_on_c, 0, 73, 28
3, 514809, Note_on_c, 0, 69, 33
3, 514830, Note_on_c, 0, 38, 24
3, 514916, Note_on_c, 0, 69, 0
3, 514939, Note_on_c, 0, 65, 32
3, 514962, Note_on_c, 0, 73, 0
3, 515005, Note_on_c, 0, 38, 0
3, 515121, Note_on_c, 0, 65, 0
3, 515122, Note_on_c, 0, 73, 25
3, 515159, Note_on_c, 0, 69, 36
3, 515258, Note_on_c, 0, 69, 0
3, 515273, Note_on_c, 0, 76, 0
3, 515303, Note_on_c, 0, 65, 54
3, 515304, Note_on_c, 0, 73, 0
3, 515328, Note_on_c, 0, 43, 71
3, 515338, Note_on_c, 0, 31, 72
3, 515394, Control_c, 0, 64, 0
3, 515441, Note_on_c, 0, 69, 43
3, 515442, Note_on_c, 0, 73, 35
3, 515445, Note_on_c, 0, 76, 22
3, 515481, Note_on_c, 0, 65, 0
3, 515605, Note_on_c, 0, 69, 0
3, 515612, Note_on_c, 0, 65, 50
3, 515626, Note_on_c, 0, 76, 0
3, 515643, Note_on_c, 0, 73, 0
3, 515713, Control_c, 0, 64, 127
3, 515714, Note_on_c, 0, 31, 0
3, 515794, Note_on_c, 0, 65, 0
3, 515818, Note_on_c, 0, 73, 23
3, 515823, Note_on_c, 0, 43, 0
3, 515839, Note_on_c, 0, 69, 33
3, 515863, Note_on_c, 0, 31, 33
3, 515938, Note_on_c, 0, 65, 35
3, 515961, Note_on_c, 0, 69, 0
3, 516003, Note_on_c, 0, 73, 0
3, 516059, Note_on_c, 0, 31, 0
3, 516105, Note_on_c, 0, 43, 24
3, 516158, Note_on_c, 0, 65, 0
3, 516184, Note_on_c, 0, 73, 25
3, 516186, Note_on_c, 0, 69, 42
3, 516275, Note_on_c, 0, 31, 38
3, 516279, Note_on_c, 0, 43, 0
3, 516330, Note_on_c, 0, 65, 36
3, 516335, Note_on_c, 0, 69, 0
3, 516359, Note_on_c, 0, 31, 0
3, 516366, Note_on_c, 0, 73, 0
3, 516534, Note_on_c, 0, 65, 0
3, 516557, Note_on_c, 0, 69, 39
3, 516561, Note_on_c, 0, 73, 27
3, 516692, Note_on_c, 0, 65, 33
3, 516695, Note_on_c, 0, 69, 0
3, 516729, Note_on_c, 0, 73, 0
3, 516839, Note_on_c, 0, 43, 43
3, 516882, Note_on_c, 0, 65, 0
3, 516900, Note_on_c, 0, 73, 23
3, 516907, Note_on_c, 0, 69, 46
3, 517031, Note_on_c, 0, 69, 0
3, 517046, Note_on_c, 0, 65, 33
3, 517068, Note_on_c, 0, 73, 0
3, 517092, Note_on_c, 0, 43, 0
3, 517149, Note_on_c, 0, 55, 33
3, 517241, Note_on_c, 0, 65, 0
3, 517255, Note_on_c, 0, 73, 25
3, 517257, Note_on_c, 0, 69, 44
3, 517259, Note_on_c, 0, 55, 0
3, 517299, Note_on_c, 0, 43, 34
3, 517389, Note_on_c, 0, 69, 0
3, 517420, Note_on_c, 0, 65, 44
3, 517431, Note_on_c, 0, 73, 0
3, 517467, Note_on_c, 0, 43, 0
3, 517522, Note_on_c, 0, 55, 38
3, 517597, Note_on_c, 0, 73, 25
3, 517599, Note_on_c, 0, 55, 0
3, 517601, Note_on_c, 0, 65, 0
3, 517610, Note_on_c, 0, 69, 51
3, 517681, Note_on_c, 0, 43, 48
3, 517759, Note_on_c, 0, 69, 0
3, 517767, Note_on_c, 0, 65, 45
3, 517783, Note_on_c, 0, 73, 0
3, 517815, Note_on_c, 0, 43, 0
3, 517845, Note_on_c, 0, 55, 51
3, 517938, Note_on_c, 0, 65, 0
3, 517958, Note_on_c, 0, 69, 56
3, 517960, Note_on_c, 0, 73, 34
3, 517962, Note_on_c, 0, 55, 0
3, 517970, Note_on_c, 0, 76, 30
3, 518023, Note_on_c, 0, 43, 63
3, 518087, Note_on_c, 0, 76, 0
3, 518117, Note_on_c, 0, 69, 0
3, 518133, Note_on_c, 0, 65, 58
3, 518149, Note_on_c, 0, 73, 0
3, 518157, Note_on_c, 0, 43, 0
3, 518180, Note_on_c, 0, 55, 56
3, 518294, Note_on_c, 0, 69, 57
3, 518302, Note_on_c, 0, 55, 0
3, 518303, Note_on_c, 0, 65, 0
3, 518305, Note_on_c, 0, 73, 33
3, 518326, Note_on_c, 0, 76, 42
3, 518351, Note_on_c, 0, 43, 71
3, 518447, Note_on_c, 0, 76, 0
3, 518452, Note_on_c, 0, 65, 50
3, 518458, Note_on_c, 0, 69, 0
3, 518483, Note_on_c, 0, 73, 0
3, 518490, Note_on_c, 0, 43, 0
3, 518505, Note_on_c, 0, 55, 66
3, 518626, Note_on_c, 0, 69, 61
3, 518634, Note_on_c, 0, 55, 0
3, 518637, Note_on_c, 0, 73, 44
3, 518642, Note_on_c, 0, 65, 0
3, 518671, Note_on_c, 0, 43, 68
3, 518674, Note_on_c, 0, 76, 40
3, 518753, Note_on_c, 0, 76, 0
3, 518796, Note_on_c, 0, 65, 53
3, 518797, Note_on_c, 0, 69, 0
3, 518812, Note_on_c, 0, 73, 0
3, 518823, Note_on_c, 0, 55, 60
3, 518825, Note_on_c, 0, 43, 0
3, 518939, Note_on_c, 0, 69, 47
3, 518941, Note_on_c, 0, 73, 33
3, 518948, Note_on_c, 0, 76, 44
3, 518954, Note_on_c, 0, 55, 0
3, 518973, Note_on_c, 0, 65, 0
3, 518973, Note_on_c, 0, 43, 63
3, 519096, Note_on_c, 0, 76, 0
3, 519103, Note_on_c, 0, 65, 50
3, 519121, Note_on_c, 0, 69, 0
3, 519135, Note_on_c, 0, 73, 0
3, 519147, Note_on_c, 0, 55, 60
3, 519159, Note_on_c, 0, 43, 0
3, 519250, Note_on_c, 0, 76, 27
3, 519258, Note_on_c, 0, 73, 39
3, 519268, Note_on_c, 0, 69, 48
3, 519277, Note_on_c, 0, 55, 0
3, 519293, Note_on_c, 0, 43, 58
3, 519295, Note_on_c, 0, 65, 0
3, 519415, Note_on_c, 0, 76, 0
3, 519427, Note_on_c, 0, 65, 49
3, 519450, Note_on_c, 0, 69, 0
3, 519473, Note_on_c, 0, 73, 0
3, 519479, Note_on_c, 0, 55, 49
3, 519492, Note_on_c, 0, 43, 0
3, 519580, Note_on_c, 0, 76, 29
3, 519596, Note_on_c, 0, 73, 42
3, 519602, Note_on_c, 0, 65, 0
3, 519610, Note_on_c, 0, 69, 44
3, 519617, Note_on_c, 0, 55, 0
3, 519629, Note_on_c, 0, 43, 44
3, 519727, Note_on_c, 0, 76, 0
3, 519758, Note_on_c, 0, 65, 44
3, 519774, Note_on_c, 0, 69, 0
3, 519787, Note_on_c, 0, 73, 0
3, 519837, Note_on_c, 0, 43, 0
3, 519842, Note_on_c, 0, 55, 37
3, 519926, Note_on_c, 0, 76, 26
3, 519933, Note_on_c, 0, 73, 29
3, 519937, Note_on_c, 0, 65, 0
3, 519946, Note_on_c, 0, 69, 47
3, 519984, Note_on_c, 0, 55, 0
3, 520022, Note_on_c, 0, 43, 45
3, 520055, Note_on_c, 0, 69, 0
3, 520063, Note_on_c, 0, 76, 0
3, 520090, Note_on_c, 0, 73, 0
3, 520096, Note_on_c, 0, 65, 34
3, 520244, Note_on_c, 0, 55, 44
3, 520245, Note_on_c, 0, 43, 0
3, 520253, Note_on_c, 0, 65, 0
3, 520258, Note_on_c, 0, 73, 27
3, 520271, Note_on_c, 0, 69, 37
3, 520288, Note_on_c, 0, 76, 14
3, 520383, Note_on_c, 0, 69, 0
3, 520386, Note_on_c, 0, 76, 0
3, 520410, Note_on_c, 0, 65, 31
3, 520411, Note_on_c, 0, 73, 0
3, 520415, Note_on_c, 0, 55, 0
3, 520457, Note_on_c, 0, 43, 40
3, 520560, Note_on_c, 0, 65, 0
3, 520573, Note_on_c, 0, 73, 29
3, 520583, Note_on_c, 0, 69, 35
3, 520711, Note_on_c, 0, 69, 0
3, 520719, Note_on_c, 0, 55, 40
3, 520721, Note_on_c, 0, 65, 26
3, 520739, Note_on_c, 0, 73, 0
3, 520810, Note_on_c, 0, 43, 0
3, 520874, Note_on_c, 0, 65, 0
3, 520903, Note_on_c, 0, 73, 28
3, 520927, Note_on_c, 0, 69, 24
3, 520928, Note_on_c, 0, 55, 0
3, 520950, Note_on_c, 0, 43, 39
3, 521003, Note_on_c, 0, 69, 0
3, 521035, Note_on_c, 0, 65, 27
3, 521065, Note_on_c, 0, 73, 0
3, 521169, Note_on_c, 0, 73, 21
3, 521179, Note_on_c, 0, 65, 0
3, 521191, Note_on_c, 0, 55, 46
3, 521211, Note_on_c, 0, 69, 26
3, 521276, Note_on_c, 0, 69, 0
3, 521305, Note_on_c, 0, 73, 0
3, 521382, Note_on_c, 0, 55, 0
3, 521462, Note_on_c, 0, 43, 0
3, 522564, Control_c, 0, 64, 0
3, 522564, End_track
4, 0, Start_track
4, 0, Title_t, "HiHats"
4, 0, Program_c, 9, 32
4, 3840, Note_on_c, 9, 44, 1
4, 3840, Note_on_c, 9, 44, 2
4, 3850, Note_on_c, 9, 44, 0
4, 3870, Note_on_c, 9, 44, 0
4, 4800, Note_on_c, 9, 44, 52
4, 5137, Note_on_c, 9, 44, 0
4, 6720, Note_on_c, 9, 44, 38
4, 7046, Note_on_c, 9, 44, 0
4, 8640, Note_on_c, 9, 44, 47
4, 8928, Note_on_c, 9, 44, 0
4, 10560, Note_on_c, 9, 46, 38
4, 11730, Note_on_c, 9, 46, 0
4, 12480, Note_on_c, 9, 44, 38
4, 12898, Note_on_c, 9, 44, 0
4, 14400, Note_on_c, 9, 44, 40
4, 14852, Note_on_c, 9, 44, 0
4, 16320, Note_on_c, 9, 44, 40
4, 16616, Note_on_c, 9, 44, 0
4, 18240, Note_on_c, 9, 46, 51
4, 18616, Note_on_c, 9, 46, 0
4, 20160, Note_on_c, 9, 44, 42
4, 20440, Note_on_c, 9, 44, 0
4, 22080, Note_on_c, 9, 44, 47
4, 22416, Note_on_c, 9, 44, 0
4, 24000, Note_on_c, 9, 44, 45
4, 24304, Note_on_c, 9, 44, 0
4, 25920, Note_on_c, 9, 44, 38
4, 26288, Note_on_c, 9, 44, 0
4, 27840, Note_on_c, 9, 44, 47
4, 28160, Note_on_c, 9, 44, 0
4, 33600, Note_on_c, 9, 44, 51
4, 33960, Note_on_c, 9, 44, 0
4, 35520, Note_on_c, 9, 46, 44
4, 35822, Note_on_c, 9, 46, 0
4, 37440, Note_on_c, 9, 44, 46
4, 37732, Note_on_c, 9, 44, 0
4, 39360, Note_on_c, 9, 44, 38
4, 39638, Note_on_c, 9, 44, 0
4, 41280, Note_on_c, 9, 44, 46
4, 41610, Note_on_c, 9, 44, 0
4, 43200, Note_on_c, 9, 44, 42
4, 43580, Note_on_c, 9, 44, 0
4, 45120, Note_on_c, 9, 44, 42
4, 45502, Note_on_c, 9, 44, 0
4, 47040, Note_on_c, 9, 44, 47
4, 47346, Note_on_c, 9, 44, 0
4, 48960, Note_on_c, 9, 44, 46
4, 49282, Note_on_c, 9, 44, 0
4, 50880, Note_on_c, 9, 44, 47
4, 51220, Note_on_c, 9, 44, 0
4, 52800, Note_on_c, 9, 44, 51
4, 53222, Note_on_c, 9, 44, 0
4, 54720, Note_on_c, 9, 44, 51
4, 55008, Note_on_c, 9, 44, 0
4, 56640, Note_on_c, 9, 46, 45
4, 57076, Note_on_c, 9, 46, 0
4, 58560, Note_on_c, 9, 44, 42
4, 58876, Note_on_c, 9, 44, 0
4, 60480, Note_on_c, 9, 44, 51
4, 60818, Note_on_c, 9, 44, 0
4, 62400, Note_on_c, 9, 44, 48
4, 62722, Note_on_c, 9, 44, 0
4, 64320, Note_on_c, 9, 46, 45
4, 64670, Note_on_c, 9, 46, 0
4, 66240, Note_on_c, 9, 44, 48
4, 66546, Note_on_c, 9, 44, 0
4, 68160, Note_on_c, 9, 44, 48
4, 68466, Note_on_c, 9, 44, 0
4, 70080, Note_on_c, 9, 44, 43
4, 70310, Note_on_c, 9, 44, 0
4, 72000, Note_on_c, 9, 46, 46
4, 72262, Note_on_c, 9, 46, 0
4, 73920, Note_on_c, 9, 44, 43
4, 74192, Note_on_c, 9, 44, 0
4, 75840, Note_on_c, 9, 44, 47
4, 76136, Note_on_c, 9, 44, 0
4, 77760, Note_on_c, 9, 44, 49
4, 78088, Note_on_c, 9, 44, 0
4, 79680, Note_on_c, 9, 44, 43
4, 79964, Note_on_c, 9, 44, 0
4, 81600, Note_on_c, 9, 44, 43
4, 81842, Note_on_c, 9, 44, 0
4, 83520, Note_on_c, 9, 46, 37
4, 83762, Note_on_c, 9, 46, 0
4, 85440, Note_on_c, 9, 44, 48
4, 85700, Note_on_c, 9, 44, 0
4, 87360, Note_on_c, 9, 44, 46
4, 87636, Note_on_c, 9, 44, 0
4, 89280, Note_on_c, 9, 44, 45
4, 89602, Note_on_c, 9, 44, 0
4, 91200, Note_on_c, 9, 44, 47
4, 91516, Note_on_c, 9, 44, 0
4, 93120, Note_on_c, 9, 44, 45
4, 93428, Note_on_c, 9, 44, 0
4, 95040, Note_on_c, 9, 44, 49
4, 95358, Note_on_c, 9, 44, 0
4, 96960, Note_on_c, 9, 44, 36
4, 97378, Note_on_c, 9, 44, 0
4, 98880, Note_on_c, 9, 44, 51
4, 99164, Note_on_c, 9, 44, 0
4, 100800, Note_on_c, 9, 44, 39
4, 101522, Note_on_c, 9, 44, 0
4, 102720, Note_on_c, 9, 44, 50
4, 103020, Note_on_c, 9, 44, 0
4, 104640, Note_on_c, 9, 44, 37
4, 105054, Note_on_c, 9, 44, 0
4, 106560, Note_on_c, 9, 44, 42
4, 106992, Note_on_c, 9, 44, 0
4, 108480, Note_on_c, 9, 44, 44
4, 108784, Note_on_c, 9, 44, 0
4, 110400, Note_on_c, 9, 44, 50
4, 110672, Note_on_c, 9, 44, 0
4, 112320, Note_on_c, 9, 44, 48
4, 112594, Note_on_c, 9, 44, 0
4, 114240, Note_on_c, 9, 44, 53
4, 114548, Note_on_c, 9, 44, 0
4, 116160, Note_on_c, 9, 46, 38
4, 116494, Note_on_c, 9, 46, 0
4, 118080, Note_on_c, 9, 44, 37
4, 118354, Note_on_c, 9, 44, 0
4, 120000, Note_on_c, 9, 44, 36
4, 120258, Note_on_c, 9, 44, 0
4, 121920, Note_on_c, 9, 44, 39
4, 122210, Note_on_c, 9, 44, 0
4, 123840, Note_on_c, 9, 44, 40
4, 124130, Note_on_c, 9, 44, 0
4, 125760, Note_on_c, 9, 46, 33
4, 125988, Note_on_c, 9, 46, 0
4, 127680, Note_on_c, 9, 44, 37
4, 127956, Note_on_c, 9, 44, 0
4, 129600, Note_on_c, 9, 44, 37
4, 129870, Note_on_c, 9, 44, 0
4, 131520, Note_on_c, 9, 44, 34
4, 131770, Note_on_c, 9, 44, 0
4, 133440, Note_on_c, 9, 44, 40
4, 133766, Note_on_c, 9, 44, 0
4, 135360, Note_on_c, 9, 44, 43
4, 135666, Note_on_c, 9, 44, 0
4, 137280, Note_on_c, 9, 44, 38
4, 137532, Note_on_c, 9, 44, 0
4, 139200, Note_on_c, 9, 44, 40
4, 139504, Note_on_c, 9, 44, 0
4, 141120, Note_on_c, 9, 46, 31
4, 141378, Note_on_c, 9, 46, 0
4, 143040, Note_on_c, 9, 44, 35
4, 143318, Note_on_c, 9, 44, 0
4, 144960, Note_on_c, 9, 46, 36
4, 145238, Note_on_c, 9, 46, 0
4, 146880, Note_on_c, 9, 44, 43
4, 147182, Note_on_c, 9, 44, 0
4, 148800, Note_on_c, 9, 44, 42
4, 149104, Note_on_c, 9, 44, 0
4, 150720, Note_on_c, 9, 44, 40
4, 151032, Note_on_c, 9, 44, 0
4, 152640, Note_on_c, 9, 44, 40
4, 152932, Note_on_c, 9, 44, 0
4, 154560, Note_on_c, 9, 44, 35
4, 154920, Note_on_c, 9, 44, 0
4, 156480, Note_on_c, 9, 44, 42
4, 156824, Note_on_c, 9, 44, 0
4, 158400, Note_on_c, 9, 44, 38
4, 158716, Note_on_c, 9, 44, 0
4, 160320, Note_on_c, 9, 44, 50
4, 160636, Note_on_c, 9, 44, 0
4, 162240, Note_on_c, 9, 44, 48
4, 162672, Note_on_c, 9, 44, 0
4, 164160, Note_on_c, 9, 44, 48
4, 164528, Note_on_c, 9, 44, 0
4, 166080, Note_on_c, 9, 44, 55
4, 166470, Note_on_c, 9, 44, 0
4, 168000, Note_on_c, 9, 44, 50
4, 168314, Note_on_c, 9, 44, 0
4, 169920, Note_on_c, 9, 46, 50
4, 170154, Note_on_c, 9, 46, 0
4, 171840, Note_on_c, 9, 44, 60
4, 172046, Note_on_c, 9, 44, 0
4, 172800, Note_on_c, 9, 44, 2
4, 172830, Note_on_c, 9, 44, 0
4, 173760, Note_on_c, 9, 44, 52
4, 174097, Note_on_c, 9, 44, 0
4, 175680, Note_on_c, 9, 44, 38
4, 176006, Note_on_c, 9, 44, 0
4, 177600, Note_on_c, 9, 44, 47
4, 177888, Note_on_c, 9, 44, 0
4, 179520, Note_on_c, 9, 46, 38
4, 180690, Note_on_c, 9, 46, 0
4, 181440, Note_on_c, 9, 44, 38
4, 181858, Note_on_c, 9, 44, 0
4, 183360, Note_on_c, 9, 44, 40
4, 183812, Note_on_c, 9, 44, 0
4, 185280, Note_on_c, 9, 44, 40
4, 185576, Note_on_c, 9, 44, 0
4, 187200, Note_on_c, 9, 46, 51
4, 187576, Note_on_c, 9, 46, 0
4, 189120, Note_on_c, 9, 44, 42
4, 189400, Note_on_c, 9, 44, 0
4, 191040, Note_on_c, 9, 44, 47
4, 191376, Note_on_c, 9, 44, 0
4, 192960, Note_on_c, 9, 44, 45
4, 193264, Note_on_c, 9, 44, 0
4, 194880, Note_on_c, 9, 44, 38
4, 195248, Note_on_c, 9, 44, 0
4, 196800, Note_on_c, 9, 44, 47
4, 197120, Note_on_c, 9, 44, 0
4, 202560, Note_on_c, 9, 44, 51
4, 202920, Note_on_c, 9, 44, 0
4, 204480, Note_on_c, 9, 46, 44
4, 204782, Note_on_c, 9, 46, 0
4, 206400, Note_on_c, 9, 44, 46
4, 206692, Note_on_c, 9, 44, 0
4, 208320, Note_on_c, 9, 44, 38
4, 208598, Note_on_c, 9, 44, 0
4, 210240, Note_on_c, 9, 44, 46
4, 210570, Note_on_c, 9, 44, 0
4, 212160, Note_on_c, 9, 44, 42
4, 212540, Note_on_c, 9, 44, 0
4, 214080, Note_on_c, 9, 44, 42
4, 214462, Note_on_c, 9, 44, 0
4, 216000, Note_on_c, 9, 44, 47
4, 216306, Note_on_c, 9, 44, 0
4, 217920, Note_on_c, 9, 44, 46
4, 218242, Note_on_c, 9, 44, 0
4, 219840, Note_on_c, 9, 44, 47
4, 220180, Note_on_c, 9, 44, 0
4, 221760, Note_on_c, 9, 44, 51
4, 222182, Note_on_c, 9, 44, 0
4, 223680, Note_on_c, 9, 44, 51
4, 223968, Note_on_c, 9, 44, 0
4, 225600, Note_on_c, 9, 46, 45
4, 226036, Note_on_c, 9, 46, 0
4, 227520, Note_on_c, 9, 44, 42
4, 227836, Note_on_c, 9, 44, 0
4, 229440, Note_on_c, 9, 44, 51
4, 229778, Note_on_c, 9, 44, 0
4, 231360, Note_on_c, 9, 44, 48
4, 231682, Note_on_c, 9, 44, 0
4, 233280, Note_on_c, 9, 46, 45
4, 233630, Note_on_c, 9, 46, 0
4, 235200, Note_on_c, 9, 44, 48
4, 235506, Note_on_c, 9, 44, 0
4, 237120, Note_on_c, 9, 44, 48
4, 237426, Note_on_c, 9, 44, 0
4, 239040, Note_on_c, 9, 44, 43
4, 239270, Note_on_c, 9, 44, 0
4, 240960, Note_on_c, 9, 46, 46
4, 241222, Note_on_c, 9, 46, 0
4, 242880, Note_on_c, 9, 44, 43
4, 243152, Note_on_c, 9, 44, 0
4, 244800, Note_on_c, 9, 44, 47
4, 245096, Note_on_c, 9, 44, 0
4, 246720, Note_on_c, 9, 44, 49
4, 247048, Note_on_c, 9, 44, 0
4, 248640, Note_on_c, 9, 44, 43
4, 248924, Note_on_c, 9, 44, 0
4, 250560, Note_on_c, 9, 44, 43
4, 250802, Note_on_c, 9, 44, 0
4, 252480, Note_on_c, 9, 46, 37
4, 252722, Note_on_c, 9, 46, 0
4, 254400, Note_on_c, 9, 44, 48
4, 254660, Note_on_c, 9, 44, 0
4, 256320, Note_on_c, 9, 44, 46
4, 256596, Note_on_c, 9, 44, 0
4, 258240, Note_on_c, 9, 44, 45
4, 258562, Note_on_c, 9, 44, 0
4, 260160, Note_on_c, 9, 44, 47
4, 260476, Note_on_c, 9, 44, 0
4, 262080, Note_on_c, 9, 44, 45
4, 262388, Note_on_c, 9, 44, 0
4, 264000, Note_on_c, 9, 44, 49
4, 264318, Note_on_c, 9, 44, 0
4, 265920, Note_on_c, 9, 44, 36
4, 266338, Note_on_c, 9, 44, 0
4, 267840, Note_on_c, 9, 44, 51
4, 268124, Note_on_c, 9, 44, 0
4, 269760, Note_on_c, 9, 44, 39
4, 270482, Note_on_c, 9, 44, 0
4, 271680, Note_on_c, 9, 44, 50
4, 271980, Note_on_c, 9, 44, 0
4, 273600, Note_on_c, 9, 44, 37
4, 274014, Note_on_c, 9, 44, 0
4, 275520, Note_on_c, 9, 44, 42
4, 275952, Note_on_c, 9, 44, 0
4, 277440, Note_on_c, 9, 44, 44
4, 277744, Note_on_c, 9, 44, 0
4, 279360, Note_on_c, 9, 44, 50
4, 279632, Note_on_c, 9, 44, 0
4, 281280, Note_on_c, 9, 44, 48
4, 281554, Note_on_c, 9, 44, 0
4, 283200, Note_on_c, 9, 44, 53
4, 283508, Note_on_c, 9, 44, 0
4, 285120, Note_on_c, 9, 46, 38
4, 285454, Note_on_c, 9, 46, 0
4, 287040, Note_on_c, 9, 44, 37
4, 287314, Note_on_c, 9, 44, 0
4, 288960, Note_on_c, 9, 44, 36
4, 289218, Note_on_c, 9, 44, 0
4, 290880, Note_on_c, 9, 44, 39
4, 291170, Note_on_c, 9, 44, 0
4, 292800, Note_on_c, 9, 44, 40
4, 293090, Note_on_c, 9, 44, 0
4, 294720, Note_on_c, 9, 46, 33
4, 294948, Note_on_c, 9, 46, 0
4, 296640, Note_on_c, 9, 44, 37
4, 296916, Note_on_c, 9, 44, 0
4, 298560, Note_on_c, 9, 44, 37
4, 298830, Note_on_c, 9, 44, 0
4, 300480, Note_on_c, 9, 44, 34
4, 300730, Note_on_c, 9, 44, 0
4, 302400, Note_on_c, 9, 44, 40
4, 302726, Note_on_c, 9, 44, 0
4, 304320, Note_on_c, 9, 44, 43
4, 304626, Note_on_c, 9, 44, 0
4, 306240, Note_on_c, 9, 44, 38
4, 306492, Note_on_c, 9, 44, 0
4, 308160, Note_on_c, 9, 44, 40
4, 308464, Note_on_c, 9, 44, 0
4, 310080, Note_on_c, 9, 46, 31
4, 310338, Note_on_c, 9, 46, 0
4, 312000, Note_on_c, 9, 44, 35
4, 312278, Note_on_c, 9, 44, 0
4, 313920, Note_on_c, 9, 46, 36
4, 314198, Note_on_c, 9, 46, 0
4, 315840, Note_on_c, 9, 44, 43
4, 316142, Note_on_c, 9, 44, 0
4, 317760, Note_on_c, 9, 44, 42
4, 318064, Note_on_c, 9, 44, 0
4, 319680, Note_on_c, 9, 44, 40
4, 319992, Note_on_c, 9, 44, 0
4, 321600, Note_on_c, 9, 44, 40
4, 321892, Note_on_c, 9, 44, 0
4, 323520, Note_on_c, 9, 44, 35
4, 323880, Note_on_c, 9, 44, 0
4, 325440, Note_on_c, 9, 44, 42
4, 325784, Note_on_c, 9, 44, 0
4, 327360, Note_on_c, 9, 44, 38
4, 327676, Note_on_c, 9, 44, 0
4, 329280, Note_on_c, 9, 44, 50
4, 329596, Note_on_c, 9, 44, 0
4, 331200, Note_on_c, 9, 44, 48
4, 331632, Note_on_c, 9, 44, 0
4, 333120, Note_on_c, 9, 44, 48
4, 333488, Note_on_c, 9, 44, 0
4, 335040, Note_on_c, 9, 44, 55
4, 335430, Note_on_c, 9, 44, 0
4, 336960, Note_on_c, 9, 44, 50
4, 337274, Note_on_c, 9, 44, 0
4, 338880, Note_on_c, 9, 46, 50
4, 339114, Note_on_c, 9, 46, 0
4, 340800, Note_on_c, 9, 44, 60
4, 341006, Note_on_c, 9, 44, 0
4, 341760, Note_on_c, 9, 44, 2
4, 341790, Note_on_c, 9, 44, 0
4, 342720, Note_on_c, 9, 44, 52
4, 343057, Note_on_c, 9, 44, 0
4, 344640, Note_on_c, 9, 44, 38
4, 344966, Note_on_c, 9, 44, 0
4, 346560, Note_on_c, 9, 44, 47
4, 346848, Note_on_c, 9, 44, 0
4, 348480, Note_on_c, 9, 46, 38
4, 349650, Note_on_c, 9, 46, 0
4, 350400, Note_on_c, 9, 44, 38
4, 350818, Note_on_c, 9, 44, 0
4, 352320, Note_on_c, 9, 44, 40
4, 352772, Note_on_c, 9, 44, 0
4, 354240, Note_on_c, 9, 44, 40
4, 354536, Note_on_c, 9, 44, 0
4, 356160, Note_on_c, 9, 46, 51
4, 356536, Note_on_c, 9, 46, 0
4, 358080, Note_on_c, 9, 44, 42
4, 358360, Note_on_c, 9, 44, 0
4, 360000, Note_on_c, 9, 44, 47
4, 360336, Note_on_c, 9, 44, 0
4, 361920, Note_on_c, 9, 44, 45
4, 362224, Note_on_c, 9, 44, 0
4, 363840, Note_on_c, 9, 44, 38
4, 364208, Note_on_c, 9, 44, 0
4, 365760, Note_on_c, 9, 44, 47
4, 366080, Note_on_c, 9, 44, 0
4, 371520, Note_on_c, 9, 44, 51
4, 371880, Note_on_c, 9, 44, 0
4, 373440, Note_on_c, 9, 46, 44
4, 373742, Note_on_c, 9, 46, 0
4, 375360, Note_on_c, 9, 44, 46
4, 375652, Note_on_c, 9, 44, 0
4, 377280, Note_on_c, 9, 44, 38
4, 377558, Note_on_c, 9, 44, 0
4, 379200, Note_on_c, 9, 44, 46
4, 379530, Note_on_c, 9, 44, 0
4, 381120, Note_on_c, 9, 44, 42
4, 381500, Note_on_c, 9, 44, 0
4, 383040, Note_on_c, 9, 44, 42
4, 383422, Note_on_c, 9, 44, 0
4, 384960, Note_on_c, 9, 44, 47
4, 385266, Note_on_c, 9, 44, 0
4, 386880, Note_on_c, 9, 44, 46
4, 387202, Note_on_c, 9, 44, 0
4, 388800, Note_on_c, 9, 44, 47
4, 389140, Note_on_c, 9, 44, 0
4, 390720, Note_on_c, 9, 44, 51
4, 391142, Note_on_c, 9, 44, 0
4, 392640, Note_on_c, 9, 44, 51
4, 392928, Note_on_c, 9, 44, 0
4, 394560, Note_on_c, 9, 46, 45
4, 394996, Note_on_c, 9, 46, 0
4, 396480, Note_on_c, 9, 44, 42
4, 396796, Note_on_c, 9, 44, 0
4, 398400, Note_on_c, 9, 44, 51
4, 398738, Note_on_c, 9, 44, 0
4, 400320, Note_on_c, 9, 44, 48
4, 400642, Note_on_c, 9, 44, 0
4, 402240, Note_on_c, 9, 46, 45
4, 402590, Note_on_c, 9, 46, 0
4, 404160, Note_on_c, 9, 44, 48
4, 404466, Note_on_c, 9, 44, 0
4, 406080, Note_on_c, 9, 44, 48
4, 406386, Note_on_c, 9, 44, 0
4, 408000, Note_on_c, 9, 44, 43
4, 408230, Note_on_c, 9, 44, 0
4, 409920, Note_on_c, 9, 46, 46
4, 410182, Note_on_c, 9, 46, 0
4, 411840, Note_on_c, 9, 44, 43
4, 412112, Note_on_c, 9, 44, 0
4, 413760, Note_on_c, 9, 44, 47
4, 414056, Note_on_c, 9, 44, 0
4, 415680, Note_on_c, 9, 44, 49
4, 416008, Note_on_c, 9, 44, 0
4, 417600, Note_on_c, 9, 44, 43
4, 417884, Note_on_c, 9, 44, 0
4, 419520, Note_on_c, 9, 44, 43
4, 419762, Note_on_c, 9, 44, 0
4, 421440, Note_on_c, 9, 46, 37
4, 421682, Note_on_c, 9, 46, 0
4, 423360, Note_on_c, 9, 44, 48
4, 423620, Note_on_c, 9, 44, 0
4, 425280, Note_on_c, 9, 44, 46
4, 425556, Note_on_c, 9, 44, 0
4, 427200, Note_on_c, 9, 44, 45
4, 427522, Note_on_c, 9, 44, 0
4, 429120, Note_on_c, 9, 44, 47
4, 429436, Note_on_c, 9, 44, 0
4, 431040, Note_on_c, 9, 44, 45
4, 431348, Note_on_c, 9, 44, 0
4, 432960, Note_on_c, 9, 44, 49
4, 433278, Note_on_c, 9, 44, 0
4, 434880, Note_on_c, 9, 44, 36
4, 435298, Note_on_c, 9, 44, 0
4, 436800, Note_on_c, 9, 44, 51
4, 437084, Note_on_c, 9, 44, 0
4, 438720, Note_on_c, 9, 44, 39
4, 439442, Note_on_c, 9, 44, 0
4, 440640, Note_on_c, 9, 44, 50
4, 440940, Note_on_c, 9, 44, 0
4, 442560, Note_on_c, 9, 44, 37
4, 442974, Note_on_c, 9, 44, 0
4, 444480, Note_on_c, 9, 44, 42
4, 444912, Note_on_c, 9, 44, 0
4, 446400, Note_on_c, 9, 44, 44
4, 446704, Note_on_c, 9, 44, 0
4, 448320, Note_on_c, 9, 44, 50
4, 448592, Note_on_c, 9, 44, 0
4, 450240, Note_on_c, 9, 44, 48
4, 450514, Note_on_c, 9, 44, 0
4, 452160, Note_on_c, 9, 44, 53
4, 452468, Note_on_c, 9, 44, 0
4, 454080, Note_on_c, 9, 46, 38
4, 454414, Note_on_c, 9, 46, 0
4, 456000, Note_on_c, 9, 44, 37
4, 456274, Note_on_c, 9, 44, 0
4, 457920, Note_on_c, 9, 44, 36
4, 458178, Note_on_c, 9, 44, 0
4, 459840, Note_on_c, 9, 44, 39
4, 460130, Note_on_c, 9, 44, 0
4, 461760, Note_on_c, 9, 44, 40
4, 462050, Note_on_c, 9, 44, 0
4, 463680, Note_on_c, 9, 46, 33
4, 463908, Note_on_c, 9, 46, 0
4, 465600, Note_on_c, 9, 44, 37
4, 465876, Note_on_c, 9, 44, 0
4, 467520, Note_on_c, 9, 44, 37
4, 467790, Note_on_c, 9, 44, 0
4, 469440, Note_on_c, 9, 44, 34
4, 469690, Note_on_c, 9, 44, 0
4, 471360, Note_on_c, 9, 44, 40
4, 471686, Note_on_c, 9, 44, 0
4, 473280, Note_on_c, 9, 44, 43
4, 473586, Note_on_c, 9, 44, 0
4, 475200, Note_on_c, 9, 44, 38
4, 475452, Note_on_c, 9, 44, 0
4, 477120, Note_on_c, 9, 44, 40
4, 477424, Note_on_c, 9, 44, 0
4, 479040, Note_on_c, 9, 46, 31
4, 479298, Note_on_c, 9, 46, 0
4, 480960, Note_on_c, 9, 44, 35
4, 481238, Note_on_c, 9, 44, 0
4, 482880, Note_on_c, 9, 46, 36
4, 483158, Note_on_c, 9, 46, 0
4, 484800, Note_on_c, 9, 44, 43
4, 485102, Note_on_c, 9, 44, 0
4, 486720, Note_on_c, 9, 44, 42
4, 487024, Note_on_c, 9, 44, 0
4, 488640, Note_on_c, 9, 44, 40
4, 488952, Note_on_c, 9, 44, 0
4, 490560, Note_on_c, 9, 44, 40
4, 490852, Note_on_c, 9, 44, 0
4, 492480, Note_on_c, 9, 44, 35
4, 492840, Note_on_c, 9, 44, 0
4, 494400, Note_on_c, 9, 44, 42
4, 494744, Note_on_c, 9, 44, 0
4, 496320, Note_on_c, 9, 44, 38
4, 496636, Note_on_c, 9, 44, 0
4, 498240, Note_on_c, 9, 44, 50
4, 498556, Note_on_c, 9, 44, 0
4, 500160, Note_on_c, 9, 44, 48
4, 500592, Note_on_c, 9, 44, 0
4, 502080, Note_on_c, 9, 44, 48
4, 502448, Note_on_c, 9, 44, 0
4, 502448, End_track
5, 0, Start_track
5, 0, Title_t, "Rides"
5, 0, Control_c, 9, 7, 63
5, 3467, Note_on_c, 9, 59, 27
5, 3581, Note_on_c, 9, 59, 0
5, 3814, Note_on_c, 9, 59, 34
5, 4398, Note_on_c, 9, 59, 0
5, 5772, Note_on_c, 9, 59, 27
5, 7115, Note_on_c, 9, 59, 0
5, 7675, Note_on_c, 9, 59, 47
5, 7868, Note_on_c, 9, 59, 0
5, 9318, Note_on_c, 9, 59, 52
5, 9486, Note_on_c, 9, 59, 0
5, 10244, Note_on_c, 9, 59, 41
5, 10342, Note_on_c, 9, 59, 0
5, 11256, Note_on_c, 9, 59, 36
5, 11372, Note_on_c, 9, 59, 0
5, 11584, Note_on_c, 9, 59, 31
5, 12098, Note_on_c, 9, 59, 0
5, 13598, Note_on_c, 9, 59, 30
5, 14180, Note_on_c, 9, 59, 0
5, 15452, Note_on_c, 9, 59, 49
5, 15794, Note_on_c, 9, 59, 0
5, 16992, Note_on_c, 9, 59, 47
5, 17078, Note_on_c, 9, 59, 0
5, 17924, Note_on_c, 9, 59, 37
5, 18014, Note_on_c, 9, 59, 0
5, 18262, Note_on_c, 9, 59, 60
5, 18726, Note_on_c, 9, 59, 0
5, 18938, Note_on_c, 9, 59, 51
5, 19132, Note_on_c, 9, 59, 0
5, 19278, Note_on_c, 9, 59, 48
5, 19382, Note_on_c, 9, 59, 0
5, 20800, Note_on_c, 9, 59, 41
5, 20906, Note_on_c, 9, 59, 0
5, 21172, Note_on_c, 9, 59, 14
5, 21544, Note_on_c, 9, 59, 0
5, 21708, Note_on_c, 9, 59, 66
5, 21870, Note_on_c, 9, 59, 0
5, 22000, Note_on_c, 9, 59, 58
5, 22666, Note_on_c, 9, 59, 0
5, 23640, Note_on_c, 9, 59, 55
5, 23788, Note_on_c, 9, 59, 0
5, 23964, Note_on_c, 9, 59, 69
5, 24534, Note_on_c, 9, 59, 0
5, 24670, Note_on_c, 9, 59, 56
5, 24860, Note_on_c, 9, 59, 0
5, 25348, Note_on_c, 9, 53, 44
5, 25602, Note_on_c, 9, 53, 0
5, 25968, Note_on_c, 9, 53, 32
5, 26328, Note_on_c, 9, 53, 0
5, 26594, Note_on_c, 9, 53, 33
5, 26814, Note_on_c, 9, 53, 0
5, 27802, Note_on_c, 9, 59, 60
5, 27992, Note_on_c, 9, 59, 0
5, 29740, Note_on_c, 9, 59, 54
5, 29962, Note_on_c, 9, 59, 0
5, 31362, Note_on_c, 9, 59, 35
5, 31514, Note_on_c, 9, 59, 0
5, 31664, Note_on_c, 9, 59, 31
5, 32236, Note_on_c, 9, 59, 0
5, 32578, Note_on_c, 9, 59, 42
5, 33256, Note_on_c, 9, 59, 0
5, 33510, Note_on_c, 9, 59, 45
5, 33980, Note_on_c, 9, 59, 0
5, 34206, Note_on_c, 9, 59, 37
5, 34390, Note_on_c, 9, 59, 0
5, 34558, Note_on_c, 9, 59, 27
5, 35034, Note_on_c, 9, 59, 0
5, 35480, Note_on_c, 9, 59, 55
5, 36222, Note_on_c, 9, 59, 0
5, 36536, Note_on_c, 9, 59, 26
5, 36718, Note_on_c, 9, 59, 0
5, 37154, Note_on_c, 9, 59, 60
5, 37348, Note_on_c, 9, 59, 0
5, 37536, Note_on_c, 9, 59, 33
5, 38208, Note_on_c, 9, 59, 0
5, 38440, Note_on_c, 9, 59, 24
5, 38588, Note_on_c, 9, 59, 0
5, 39064, Note_on_c, 9, 59, 62
5, 39278, Note_on_c, 9, 59, 0
5, 39438, Note_on_c, 9, 59, 30
5, 40050, Note_on_c, 9, 59, 0
5, 40338, Note_on_c, 9, 59, 50
5, 40950, Note_on_c, 9, 59, 0
5, 41322, Note_on_c, 9, 59, 60
5, 42092, Note_on_c, 9, 59, 0
5, 42852, Note_on_c, 9, 59, 57
5, 43062, Note_on_c, 9, 59, 0
5, 43224, Note_on_c, 9, 59, 41
5, 43322, Note_on_c, 9, 59, 0
5, 44160, Note_on_c, 9, 59, 32
5, 44824, Note_on_c, 9, 59, 0
5, 45062, Note_on_c, 9, 59, 35
5, 45864, Note_on_c, 9, 59, 0
5, 46094, Note_on_c, 9, 59, 24
5, 46638, Note_on_c, 9, 59, 0
5, 47036, Note_on_c, 9, 59, 51
5, 47640, Note_on_c, 9, 59, 0
5, 48030, Note_on_c, 9, 59, 32
5, 48796, Note_on_c, 9, 59, 0
5, 48946, Note_on_c, 9, 59, 55
5, 49774, Note_on_c, 9, 59, 0
5, 49990, Note_on_c, 9, 59, 27
5, 50424, Note_on_c, 9, 59, 0
5, 50820, Note_on_c, 9, 59, 55
5, 51002, Note_on_c, 9, 59, 0
5, 51550, Note_on_c, 9, 59, 59
5, 51632, Note_on_c, 9, 59, 0
5, 51792, Note_on_c, 9, 59, 61
5, 52612, Note_on_c, 9, 59, 0
5, 52766, Note_on_c, 9, 59, 48
5, 53432, Note_on_c, 9, 59, 0
5, 53740, Note_on_c, 9, 59, 46
5, 54332, Note_on_c, 9, 59, 0
5, 54370, Note_on_c, 9, 53, 63
5, 54598, Note_on_c, 9, 53, 0
5, 54688, Note_on_c, 9, 59, 27
5, 55448, Note_on_c, 9, 59, 0
5, 55622, Note_on_c, 9, 59, 45
5, 56322, Note_on_c, 9, 59, 0
5, 56588, Note_on_c, 9, 59, 62
5, 57170, Note_on_c, 9, 59, 0
5, 57336, Note_on_c, 9, 59, 40
5, 57432, Note_on_c, 9, 59, 0
5, 57596, Note_on_c, 9, 59, 41
5, 58288, Note_on_c, 9, 59, 0
5, 58500, Note_on_c, 9, 59, 45
5, 59244, Note_on_c, 9, 59, 0
5, 60142, Note_on_c, 9, 59, 33
5, 60278, Note_on_c, 9, 59, 0
5, 60420, Note_on_c, 9, 59, 29
5, 61138, Note_on_c, 9, 59, 0
5, 61348, Note_on_c, 9, 59, 51
5, 62094, Note_on_c, 9, 59, 0
5, 62982, Note_on_c, 9, 59, 37
5, 63150, Note_on_c, 9, 59, 0
5, 63326, Note_on_c, 9, 59, 31
5, 64012, Note_on_c, 9, 59, 0
5, 64326, Note_on_c, 9, 59, 45
5, 64914, Note_on_c, 9, 59, 0
5, 64980, Note_on_c, 9, 53, 50
5, 65284, Note_on_c, 9, 53, 0
5, 65294, Note_on_c, 9, 59, 39
5, 65964, Note_on_c, 9, 59, 0
5, 66264, Note_on_c, 9, 59, 46
5, 66924, Note_on_c, 9, 59, 0
5, 67246, Note_on_c, 9, 59, 46
5, 67818, Note_on_c, 9, 59, 0
5, 68004, Note_on_c, 9, 59, 32
5, 68134, Note_on_c, 9, 59, 0
5, 68334, Note_on_c, 9, 59, 27
5, 68720, Note_on_c, 9, 59, 0
5, 68932, Note_on_c, 9, 53, 39
5, 69240, Note_on_c, 9, 53, 0
5, 69476, Note_on_c, 9, 59, 46
5, 69628, Note_on_c, 9, 59, 0
5, 70204, Note_on_c, 9, 59, 52
5, 70612, Note_on_c, 9, 59, 0
5, 70844, Note_on_c, 9, 59, 45
5, 71146, Note_on_c, 9, 59, 0
5, 71504, Note_on_c, 9, 53, 54
5, 71700, Note_on_c, 9, 53, 0
5, 71826, Note_on_c, 9, 59, 44
5, 71932, Note_on_c, 9, 59, 0
5, 72170, Note_on_c, 9, 59, 51
5, 72612, Note_on_c, 9, 59, 0
5, 72736, Note_on_c, 9, 59, 74
5, 73678, Note_on_c, 9, 59, 0
5, 73910, Note_on_c, 9, 59, 49
5, 74388, Note_on_c, 9, 59, 0
5, 74572, Note_on_c, 9, 59, 31
5, 74668, Note_on_c, 9, 59, 0
5, 74838, Note_on_c, 9, 59, 43
5, 75540, Note_on_c, 9, 59, 0
5, 75796, Note_on_c, 9, 59, 57
5, 76394, Note_on_c, 9, 59, 0
5, 76568, Note_on_c, 9, 59, 35
5, 76662, Note_on_c, 9, 59, 0
5, 76812, Note_on_c, 9, 59, 54
5, 77494, Note_on_c, 9, 59, 0
5, 77758, Note_on_c, 9, 59, 64
5, 78440, Note_on_c, 9, 59, 0
5, 78716, Note_on_c, 9, 59, 47
5, 79276, Note_on_c, 9, 59, 0
5, 79362, Note_on_c, 9, 53, 49
5, 79546, Note_on_c, 9, 53, 0
5, 79656, Note_on_c, 9, 59, 32
5, 80262, Note_on_c, 9, 59, 0
5, 80600, Note_on_c, 9, 59, 47
5, 81292, Note_on_c, 9, 59, 0
5, 81540, Note_on_c, 9, 59, 43
5, 82088, Note_on_c, 9, 59, 0
5, 82258, Note_on_c, 9, 59, 37
5, 82384, Note_on_c, 9, 59, 0
5, 82544, Note_on_c, 9, 59, 34
5, 83238, Note_on_c, 9, 59, 0
5, 83492, Note_on_c, 9, 59, 58
5, 84100, Note_on_c, 9, 59, 0
5, 85174, Note_on_c, 9, 59, 64
5, 85358, Note_on_c, 9, 59, 0
5, 85544, Note_on_c, 9, 59, 35
5, 86216, Note_on_c, 9, 59, 0
5, 86486, Note_on_c, 9, 59, 48
5, 86982, Note_on_c, 9, 59, 0
5, 87112, Note_on_c, 9, 59, 34
5, 87208, Note_on_c, 9, 59, 0
5, 87426, Note_on_c, 9, 59, 28
5, 87814, Note_on_c, 9, 59, 0
5, 88016, Note_on_c, 9, 59, 74
5, 88908, Note_on_c, 9, 59, 0
5, 89884, Note_on_c, 9, 59, 62
5, 90574, Note_on_c, 9, 59, 0
5, 90892, Note_on_c, 9, 59, 22
5, 90998, Note_on_c, 9, 59, 0
5, 91218, Note_on_c, 9, 59, 59
5, 91816, Note_on_c, 9, 59, 0
5, 92192, Note_on_c, 9, 59, 24
5, 92262, Note_on_c, 9, 59, 0
5, 92822, Note_on_c, 9, 59, 70
5, 93010, Note_on_c, 9, 59, 0
5, 93208, Note_on_c, 9, 59, 27
5, 93772, Note_on_c, 9, 59, 0
5, 94086, Note_on_c, 9, 59, 58
5, 94734, Note_on_c, 9, 59, 0
5, 95048, Note_on_c, 9, 59, 48
5, 95474, Note_on_c, 9, 59, 0
5, 95632, Note_on_c, 9, 59, 39
5, 95806, Note_on_c, 9, 59, 0
5, 95950, Note_on_c, 9, 59, 38
5, 96602, Note_on_c, 9, 59, 0
5, 96872, Note_on_c, 9, 59, 58
5, 97444, Note_on_c, 9, 59, 0
5, 97608, Note_on_c, 9, 59, 39
5, 97744, Note_on_c, 9, 59, 0
5, 97916, Note_on_c, 9, 59, 47
5, 98634, Note_on_c, 9, 59, 0
5, 98900, Note_on_c, 9, 59, 63
5, 99420, Note_on_c, 9, 59, 0
5, 99592, Note_on_c, 9, 59, 34
5, 99716, Note_on_c, 9, 59, 0
5, 99868, Note_on_c, 9, 59, 46
5, 100486, Note_on_c, 9, 59, 0
5, 100790, Note_on_c, 9, 59, 64
5, 101366, Note_on_c, 9, 59, 0
5, 101776, Note_on_c, 9, 59, 57
5, 102330, Note_on_c, 9, 59, 0
5, 102428, Note_on_c, 9, 53, 41
5, 102568, Note_on_c, 9, 53, 0
5, 102836, Note_on_c, 9, 59, 17
5, 103206, Note_on_c, 9, 59, 0
5, 103420, Note_on_c, 9, 59, 54
5, 103712, Note_on_c, 9, 59, 0
5, 104000, Note_on_c, 9, 59, 41
5, 104244, Note_on_c, 9, 59, 0
5, 104748, Note_on_c, 9, 59, 55
5, 105386, Note_on_c, 9, 59, 0
5, 105416, Note_on_c, 9, 53, 48
5, 105662, Note_on_c, 9, 53, 0
5, 105848, Note_on_c, 9, 59, 35
5, 105988, Note_on_c, 9, 59, 0
5, 106662, Note_on_c, 9, 59, 47
5, 107290, Note_on_c, 9, 59, 0
5, 107594, Note_on_c, 9, 59, 57
5, 108234, Note_on_c, 9, 59, 0
5, 108576, Note_on_c, 9, 59, 58
5, 109006, Note_on_c, 9, 59, 0
5, 109214, Note_on_c, 9, 59, 36
5, 109368, Note_on_c, 9, 59, 0
5, 109524, Note_on_c, 9, 59, 42
5, 110108, Note_on_c, 9, 59, 0
5, 110482, Note_on_c, 9, 59, 60
5, 110912, Note_on_c, 9, 59, 0
5, 111074, Note_on_c, 9, 59, 38
5, 111184, Note_on_c, 9, 59, 0
5, 111340, Note_on_c, 9, 51, 53
5, 112128, Note_on_c, 9, 51, 0
5, 112344, Note_on_c, 9, 51, 47
5, 113094, Note_on_c, 9, 51, 0
5, 113308, Note_on_c, 9, 51, 46
5, 114016, Note_on_c, 9, 51, 0
5, 114256, Note_on_c, 9, 51, 53
5, 114762, Note_on_c, 9, 51, 0
5, 114958, Note_on_c, 9, 51, 57
5, 115118, Note_on_c, 9, 51, 0
5, 115264, Note_on_c, 9, 51, 59
5, 115926, Note_on_c, 9, 51, 0
5, 116126, Note_on_c, 9, 51, 51
5, 116770, Note_on_c, 9, 51, 0
5, 117048, Note_on_c, 9, 51, 49
5, 117770, Note_on_c, 9, 51, 0
5, 118018, Note_on_c, 9, 51, 49
5, 118570, Note_on_c, 9, 51, 0
5, 118950, Note_on_c, 9, 51, 52
5, 119404, Note_on_c, 9, 51, 0
5, 119930, Note_on_c, 9, 51, 59
5, 120398, Note_on_c, 9, 51, 0
5, 120664, Note_on_c, 9, 51, 35
5, 120856, Note_on_c, 9, 51, 0
5, 120920, Note_on_c, 9, 51, 29
5, 121304, Note_on_c, 9, 51, 0
5, 121900, Note_on_c, 9, 51, 56
5, 122204, Note_on_c, 9, 51, 0
5, 122848, Note_on_c, 9, 51, 57
5, 123348, Note_on_c, 9, 51, 0
5, 123830, Note_on_c, 9, 51, 56
5, 124222, Note_on_c, 9, 51, 0
5, 124502, Note_on_c, 9, 51, 28
5, 124610, Note_on_c, 9, 51, 0
5, 124764, Note_on_c, 9, 51, 46
5, 125254, Note_on_c, 9, 51, 0
5, 125424, Note_on_c, 9, 51, 71
5, 126132, Note_on_c, 9, 51, 0
5, 126352, Note_on_c, 9, 51, 34
5, 126460, Note_on_c, 9, 51, 0
5, 126654, Note_on_c, 9, 51, 43
5, 127324, Note_on_c, 9, 51, 0
5, 127670, Note_on_c, 9, 51, 53
5, 128208, Note_on_c, 9, 51, 0
5, 128422, Note_on_c, 9, 51, 25
5, 128506, Note_on_c, 9, 51, 0
5, 128646, Note_on_c, 9, 51, 47
5, 129292, Note_on_c, 9, 51, 0
5, 129622, Note_on_c, 9, 51, 57
5, 130190, Note_on_c, 9, 51, 0
5, 130596, Note_on_c, 9, 51, 53
5, 131120, Note_on_c, 9, 51, 0
5, 131278, Note_on_c, 9, 51, 38
5, 131398, Note_on_c, 9, 51, 0
5, 131566, Note_on_c, 9, 51, 37
5, 132030, Note_on_c, 9, 51, 0
5, 132250, Note_on_c, 9, 51, 67
5, 132998, Note_on_c, 9, 51, 0
5, 133206, Note_on_c, 9, 51, 27
5, 133338, Note_on_c, 9, 51, 0
5, 133494, Note_on_c, 9, 51, 48
5, 134072, Note_on_c, 9, 51, 0
5, 134378, Note_on_c, 9, 51, 61
5, 134958, Note_on_c, 9, 51, 0
5, 135388, Note_on_c, 9, 51, 57
5, 136026, Note_on_c, 9, 51, 0
5, 136346, Note_on_c, 9, 51, 63
5, 137010, Note_on_c, 9, 51, 0
5, 137306, Note_on_c, 9, 51, 59
5, 137816, Note_on_c, 9, 51, 0
5, 137978, Note_on_c, 9, 51, 38
5, 138098, Note_on_c, 9, 51, 0
5, 138232, Note_on_c, 9, 51, 48
5, 138896, Note_on_c, 9, 51, 0
5, 139182, Note_on_c, 9, 51, 69
5, 139868, Note_on_c, 9, 51, 0
5, 140162, Note_on_c, 9, 51, 35
5, 140270, Note_on_c, 9, 51, 0
5, 140852, Note_on_c, 9, 51, 69
5, 141066, Note_on_c, 9, 51, 0
5, 141204, Note_on_c, 9, 51, 42
5, 141784, Note_on_c, 9, 51, 0
5, 142204, Note_on_c, 9, 51, 69
5, 142598, Note_on_c, 9, 51, 0
5, 143142, Note_on_c, 9, 51, 36
5, 143194, Note_on_c, 9, 53, 31
5, 143764, Note_on_c, 9, 51, 0
5, 143782, Note_on_c, 9, 53, 0
5, 144110, Note_on_c, 9, 51, 31
5, 144406, Note_on_c, 9, 51, 0
5, 144714, Note_on_c, 9, 51, 42
5, 144746, Note_on_c, 9, 53, 37
5, 145220, Note_on_c, 9, 53, 0
5, 145270, Note_on_c, 9, 51, 0
5, 145632, Note_on_c, 9, 51, 37
5, 145844, Note_on_c, 9, 51, 0
5, 146006, Note_on_c, 9, 51, 34
5, 146524, Note_on_c, 9, 51, 0
5, 146910, Note_on_c, 9, 51, 43
5, 147486, Note_on_c, 9, 51, 0
5, 147620, Note_on_c, 9, 51, 36
5, 147736, Note_on_c, 9, 51, 0
5, 147888, Note_on_c, 9, 51, 45
5, 148562, Note_on_c, 9, 51, 0
5, 148800, Note_on_c, 9, 51, 61
5, 149542, Note_on_c, 9, 51, 0
5, 149752, Note_on_c, 9, 51, 49
5, 150250, Note_on_c, 9, 51, 0
5, 150464, Note_on_c, 9, 51, 35
5, 150596, Note_on_c, 9, 51, 0
5, 150750, Note_on_c, 9, 51, 46
5, 151444, Note_on_c, 9, 51, 0
5, 151730, Note_on_c, 9, 51, 61
5, 152292, Note_on_c, 9, 51, 0
5, 152442, Note_on_c, 9, 51, 28
5, 152544, Note_on_c, 9, 51, 0
5, 152690, Note_on_c, 9, 51, 49
5, 153180, Note_on_c, 9, 51, 0
5, 153620, Note_on_c, 9, 51, 58
5, 153972, Note_on_c, 9, 51, 0
5, 154616, Note_on_c, 9, 51, 69
5, 155106, Note_on_c, 9, 51, 0
5, 155266, Note_on_c, 9, 51, 35
5, 155390, Note_on_c, 9, 51, 0
5, 155518, Note_on_c, 9, 51, 48
5, 156212, Note_on_c, 9, 51, 0
5, 156488, Note_on_c, 9, 51, 72
5, 157056, Note_on_c, 9, 51, 0
5, 157216, Note_on_c, 9, 51, 35
5, 157320, Note_on_c, 9, 51, 0
5, 157476, Note_on_c, 9, 51, 39
5, 157958, Note_on_c, 9, 51, 0
5, 158128, Note_on_c, 9, 51, 69
5, 158906, Note_on_c, 9, 51, 0
5, 159052, Note_on_c, 9, 51, 45
5, 159224, Note_on_c, 9, 51, 0
5, 159342, Note_on_c, 9, 51, 51
5, 160050, Note_on_c, 9, 51, 0
5, 160328, Note_on_c, 9, 51, 64
5, 160822, Note_on_c, 9, 51, 0
5, 161088, Note_on_c, 9, 51, 29
5, 161180, Note_on_c, 9, 51, 0
5, 161320, Note_on_c, 9, 51, 54
5, 161922, Note_on_c, 9, 51, 0
5, 162282, Note_on_c, 9, 51, 73
5, 162792, Note_on_c, 9, 51, 0
5, 163292, Note_on_c, 9, 51, 74
5, 163802, Note_on_c, 9, 51, 0
5, 163954, Note_on_c, 9, 51, 53
5, 164118, Note_on_c, 9, 51, 0
5, 164224, Note_on_c, 9, 51, 45
5, 164386, Note_on_c, 9, 51, 0
5, 164898, Note_on_c, 9, 51, 69
5, 165498, Note_on_c, 9, 51, 0
5, 165834, Note_on_c, 9, 51, 55
5, 166000, Note_on_c, 9, 51, 0
5, 166132, Note_on_c, 9, 51, 63
5, 166798, Note_on_c, 9, 51, 0
5, 167004, Note_on_c, 9, 51, 62
5, 167760, Note_on_c, 9, 51, 0
5, 167940, Note_on_c, 9, 51, 64
5, 168636, Note_on_c, 9, 51, 0
5, 169044, Note_on_c, 9, 51, 39
5, 169146, Note_on_c, 9, 51, 0
5, 169678, Note_on_c, 9, 51, 62
5, 169864, Note_on_c, 9, 51, 0
5, 169988, Note_on_c, 9, 51, 54
5, 170716, Note_on_c, 9, 51, 0
5, 170876, Note_on_c, 9, 51, 50
5, 171604, Note_on_c, 9, 51, 0
5, 171788, Note_on_c, 9, 51, 45
5, 172180, Note_on_c, 9, 51, 0
5, 172520, Note_on_c, 9, 51, 51
5, 172702, Note_on_c, 9, 51, 0
5, 172778, Note_on_c, 9, 59, 48
5, 173458, Note_on_c, 9, 59, 0
5, 173736, Note_on_c, 9, 59, 53
5, 174292, Note_on_c, 9, 59, 0
5, 174664, Note_on_c, 9, 59, 49
5, 175312, Note_on_c, 9, 59, 0
5, 175572, Note_on_c, 9, 59, 60
5, 176094, Note_on_c, 9, 59, 0
5, 176300, Note_on_c, 9, 59, 30
5, 176410, Note_on_c, 9, 59, 0
5, 176566, Note_on_c, 9, 59, 48
5, 177260, Note_on_c, 9, 59, 0
5, 177506, Note_on_c, 9, 59, 65
5, 178056, Note_on_c, 9, 59, 0
5, 178210, Note_on_c, 9, 59, 42
5, 178366, Note_on_c, 9, 59, 0
5, 178498, Note_on_c, 9, 59, 49
5, 179230, Note_on_c, 9, 59, 0
5, 179478, Note_on_c, 9, 59, 60
5, 180034, Note_on_c, 9, 59, 0
5, 180190, Note_on_c, 9, 59, 39
5, 180324, Note_on_c, 9, 59, 0
5, 180488, Note_on_c, 9, 59, 47
5, 181140, Note_on_c, 9, 59, 0
5, 181422, Note_on_c, 9, 59, 53
5, 181986, Note_on_c, 9, 59, 0
5, 182390, Note_on_c, 9, 59, 57
5, 182940, Note_on_c, 9, 59, 0
5, 183108, Note_on_c, 9, 59, 31
5, 183198, Note_on_c, 9, 59, 0
5, 183336, Note_on_c, 9, 59, 57
5, 184062, Note_on_c, 9, 59, 0
5, 184306, Note_on_c, 9, 59, 57
5, 184916, Note_on_c, 9, 59, 0
5, 185224, Note_on_c, 9, 59, 61
5, 185742, Note_on_c, 9, 59, 0
5, 185950, Note_on_c, 9, 59, 31
5, 186054, Note_on_c, 9, 59, 0
5, 186198, Note_on_c, 9, 59, 60
5, 186868, Note_on_c, 9, 59, 0
5, 187140, Note_on_c, 9, 59, 64
5, 187796, Note_on_c, 9, 59, 0
5, 188116, Note_on_c, 9, 59, 64
5, 188746, Note_on_c, 9, 59, 0
5, 188776, Note_on_c, 9, 53, 66
5, 188876, Note_on_c, 9, 53, 0
5, 189084, Note_on_c, 9, 59, 46
5, 189796, Note_on_c, 9, 59, 0
5, 190018, Note_on_c, 9, 59, 51
5, 190310, Control_c, 9, 2, 39
5, 190408, Control_c, 9, 2, 37
5, 190414, Control_c, 9, 2, 36
5, 190422, Control_c, 9, 2, 35
5, 190430, Control_c, 9, 2, 34
5, 190452, Control_c, 9, 2, 32
5, 190458, Control_c, 9, 2, 31
5, 190466, Control_c, 9, 2, 30
5, 190488, Control_c, 9, 2, 28
5, 190510, Control_c, 9, 2, 26
5, 190530, Control_c, 9, 2, 24
5, 190738, Note_on_c, 9, 59, 0
5, 190932, Note_on_c, 9, 59, 58
5, 191482, Note_on_c, 9, 59, 0
5, 191700, Note_on_c, 9, 59, 25
5, 191774, Note_on_c, 9, 59, 0
5, 191910, Note_on_c, 9, 59, 56
5, 192620, Note_on_c, 9, 59, 0
5, 192898, Note_on_c, 9, 59, 69
5, 193424, Note_on_c, 9, 59, 0
5, 193600, Note_on_c, 9, 59, 32
5, 193778, Note_on_c, 9, 59, 0
5, 193886, Note_on_c, 9, 59, 36
5, 194494, Note_on_c, 9, 59, 0
5, 194814, Note_on_c, 9, 59, 71
5, 195354, Note_on_c, 9, 59, 0
5, 195518, Note_on_c, 9, 59, 34
5, 195624, Note_on_c, 9, 59, 0
5, 195768, Note_on_c, 9, 59, 62
5, 196516, Note_on_c, 9, 59, 0
5, 196754, Note_on_c, 9, 59, 62
5, 197526, Note_on_c, 9, 59, 0
5, 197710, Note_on_c, 9, 59, 43
5, 198382, Note_on_c, 9, 59, 0
5, 198646, Note_on_c, 9, 59, 59
5, 199252, Note_on_c, 9, 59, 0
5, 199440, Note_on_c, 9, 59, 29
5, 199548, Note_on_c, 9, 59, 0
5, 199692, Note_on_c, 9, 59, 55
5, 200450, Note_on_c, 9, 59, 0
5, 200604, Note_on_c, 9, 59, 57
5, 201206, Note_on_c, 9, 59, 0
5, 201580, Note_on_c, 9, 59, 50
5, 202268, Note_on_c, 9, 59, 0
5, 202520, Note_on_c, 9, 59, 68
5, 203088, Note_on_c, 9, 59, 0
5, 203672, Note_on_c, 9, 59, 49
5, 203764, Note_on_c, 9, 59, 0
5, 204186, Note_on_c, 9, 59, 84
5, 204878, Note_on_c, 9, 59, 0
5, 205166, Note_on_c, 9, 59, 40
5, 205256, Note_on_c, 9, 59, 0
5, 205440, Note_on_c, 9, 59, 52
5, 206114, Note_on_c, 9, 59, 0
5, 206370, Note_on_c, 9, 59, 59
5, 206868, Note_on_c, 9, 59, 0
5, 207134, Note_on_c, 9, 59, 38
5, 207228, Note_on_c, 9, 59, 0
5, 207374, Note_on_c, 9, 59, 58
5, 208058, Note_on_c, 9, 59, 0
5, 208348, Note_on_c, 9, 59, 66
5, 208836, Note_on_c, 9, 59, 0
5, 209006, Note_on_c, 9, 59, 33
5, 209136, Note_on_c, 9, 59, 0
5, 209300, Note_on_c, 9, 59, 60
5, 209918, Note_on_c, 9, 59, 0
5, 210234, Note_on_c, 9, 59, 60
5, 210864, Note_on_c, 9, 59, 0
5, 211160, Note_on_c, 9, 59, 64
5, 211862, Note_on_c, 9, 59, 0
5, 212092, Note_on_c, 9, 59, 64
5, 212588, Note_on_c, 9, 59, 0
5, 212834, Note_on_c, 9, 59, 40
5, 212940, Note_on_c, 9, 59, 0
5, 213096, Note_on_c, 9, 59, 62
5, 213780, Note_on_c, 9, 59, 0
5, 214034, Note_on_c, 9, 59, 65
5, 214552, Note_on_c, 9, 59, 0
5, 214714, Note_on_c, 9, 59, 36
5, 214830, Note_on_c, 9, 59, 0
5, 214988, Note_on_c, 9, 59, 57
5, 215700, Note_on_c, 9, 59, 0
5, 215942, Note_on_c, 9, 59, 66
5, 216470, Note_on_c, 9, 59, 0
5, 216628, Note_on_c, 9, 59, 36
5, 216746, Note_on_c, 9, 59, 0
5, 216898, Note_on_c, 9, 59, 58
5, 217620, Note_on_c, 9, 59, 0
5, 217808, Note_on_c, 9, 59, 71
5, 218368, Note_on_c, 9, 59, 0
5, 218556, Note_on_c, 9, 59, 31
5, 218654, Note_on_c, 9, 59, 0
5, 218774, Note_on_c, 9, 59, 61
5, 219404, Note_on_c, 9, 59, 0
5, 219644, Note_on_c, 9, 59, 68
5, 219984, Note_on_c, 9, 59, 0
5, 220324, Note_on_c, 9, 59, 72
5, 221090, Note_on_c, 9, 59, 0
5, 221360, Note_on_c, 9, 59, 39
5, 221504, Note_on_c, 9, 59, 0
5, 221616, Note_on_c, 9, 59, 58
5, 222394, Note_on_c, 9, 59, 0
5, 222606, Note_on_c, 9, 59, 65
5, 223232, Note_on_c, 9, 59, 0
5, 223390, Note_on_c, 9, 59, 36
5, 223482, Note_on_c, 9, 59, 0
5, 223606, Note_on_c, 9, 59, 68
5, 224374, Note_on_c, 9, 59, 0
5, 224580, Note_on_c, 9, 59, 58
5, 225188, Note_on_c, 9, 59, 0
5, 225346, Note_on_c, 9, 59, 38
5, 225438, Note_on_c, 9, 59, 0
5, 225572, Note_on_c, 9, 59, 57
5, 226332, Note_on_c, 9, 59, 0
5, 226546, Note_on_c, 9, 59, 61
5, 227134, Note_on_c, 9, 59, 0
5, 227318, Note_on_c, 9, 59, 28
5, 227392, Note_on_c, 9, 59, 0
5, 227526, Note_on_c, 9, 59, 68
5, 228228, Note_on_c, 9, 59, 0
5, 228486, Note_on_c, 9, 59, 59
5, 229076, Note_on_c, 9, 59, 0
5, 229172, Note_on_c, 9, 59, 37
5, 229260, Note_on_c, 9, 59, 0
5, 229444, Note_on_c, 9, 59, 57
5, 230172, Note_on_c, 9, 59, 0
5, 230362, Note_on_c, 9, 59, 61
5, 230902, Note_on_c, 9, 59, 0
5, 231052, Note_on_c, 9, 59, 46
5, 231144, Note_on_c, 9, 59, 0
5, 231322, Note_on_c, 9, 59, 54
5, 231862, Note_on_c, 9, 59, 0
5, 232024, Note_on_c, 9, 59, 66
5, 232764, Note_on_c, 9, 59, 0
5, 232950, Note_on_c, 9, 59, 28
5, 233056, Note_on_c, 9, 59, 0
5, 233216, Note_on_c, 9, 59, 57
5, 233868, Note_on_c, 9, 59, 0
5, 234170, Note_on_c, 9, 59, 59
5, 234690, Note_on_c, 9, 59, 0
5, 234856, Note_on_c, 9, 53, 54
5, 235042, Note_on_c, 9, 53, 0
5, 235164, Note_on_c, 9, 59, 32
5, 235778, Note_on_c, 9, 59, 0
5, 236080, Note_on_c, 9, 59, 53
5, 236794, Note_on_c, 9, 59, 0
5, 237044, Note_on_c, 9, 59, 63
5, 237548, Note_on_c, 9, 59, 0
5, 237724, Note_on_c, 9, 59, 38
5, 237826, Note_on_c, 9, 59, 0
5, 237994, Note_on_c, 9, 59, 48
5, 238758, Note_on_c, 9, 59, 0
5, 238998, Note_on_c, 9, 59, 69
5, 239750, Note_on_c, 9, 59, 0
5, 240054, Note_on_c, 9, 59, 29
5, 240252, Note_on_c, 9, 59, 0
5, 240666, Note_on_c, 9, 59, 36
5, 240764, Note_on_c, 9, 59, 0
5, 240932, Note_on_c, 9, 59, 57
5, 241696, Note_on_c, 9, 59, 0
5, 241896, Note_on_c, 9, 59, 44
5, 242430, Note_on_c, 9, 59, 0
5, 242882, Note_on_c, 9, 59, 67
5, 243366, Note_on_c, 9, 59, 0
5, 243584, Note_on_c, 9, 59, 33
5, 243732, Note_on_c, 9, 59, 0
5, 243816, Note_on_c, 9, 59, 47
5, 244526, Note_on_c, 9, 59, 0
5, 244758, Note_on_c, 9, 59, 66
5, 245312, Note_on_c, 9, 59, 0
5, 245702, Note_on_c, 9, 59, 55
5, 246188, Note_on_c, 9, 59, 0
5, 246636, Note_on_c, 9, 59, 61
5, 247352, Note_on_c, 9, 59, 0
5, 247660, Note_on_c, 9, 59, 57
5, 247852, Note_on_c, 9, 59, 0
5, 247954, Note_on_c, 9, 59, 52
5, 248084, Note_on_c, 9, 59, 0
5, 248636, Note_on_c, 9, 59, 81
5, 249320, Note_on_c, 9, 59, 0
5, 250252, Note_on_c, 9, 59, 51
5, 250350, Note_on_c, 9, 59, 0
5, 250510, Note_on_c, 9, 59, 64
5, 251292, Note_on_c, 9, 59, 0
5, 251496, Note_on_c, 9, 59, 47
5, 251974, Note_on_c, 9, 59, 0
5, 252104, Note_on_c, 9, 59, 65
5, 252276, Note_on_c, 9, 59, 0
5, 252446, Note_on_c, 9, 59, 49
5, 252984, Note_on_c, 9, 59, 0
5, 253104, Note_on_c, 9, 59, 75
5, 253994, Note_on_c, 9, 59, 0
5, 254120, Note_on_c, 9, 59, 41
5, 254212, Note_on_c, 9, 59, 0
5, 254378, Note_on_c, 9, 59, 59
5, 255150, Note_on_c, 9, 59, 0
5, 255354, Note_on_c, 9, 59, 49
5, 255934, Note_on_c, 9, 59, 0
5, 256280, Note_on_c, 9, 59, 73
5, 256988, Note_on_c, 9, 59, 0
5, 257222, Note_on_c, 9, 59, 64
5, 257936, Note_on_c, 9, 59, 0
5, 258224, Note_on_c, 9, 59, 70
5, 258838, Note_on_c, 9, 59, 0
5, 259320, Note_on_c, 9, 59, 29
5, 259410, Note_on_c, 9, 59, 0
5, 259598, Note_on_c, 9, 59, 29
5, 259762, Note_on_c, 9, 59, 0
5, 259862, Note_on_c, 9, 59, 82
5, 260006, Note_on_c, 9, 59, 0
5, 260214, Note_on_c, 9, 59, 85
5, 260894, Note_on_c, 9, 59, 0
5, 261148, Note_on_c, 9, 59, 62
5, 261690, Note_on_c, 9, 59, 0
5, 261902, Note_on_c, 9, 59, 37
5, 261994, Note_on_c, 9, 59, 0
5, 262180, Note_on_c, 9, 59, 55
5, 262624, Note_on_c, 9, 59, 0
5, 262750, Note_on_c, 9, 59, 76
5, 263536, Note_on_c, 9, 59, 0
5, 263654, Note_on_c, 9, 53, 48
5, 263882, Note_on_c, 9, 53, 0
5, 263990, Note_on_c, 9, 59, 32
5, 264500, Note_on_c, 9, 59, 0
5, 264632, Note_on_c, 9, 53, 53
5, 264720, Note_on_c, 9, 53, 0
5, 265026, Note_on_c, 9, 59, 44
5, 265476, Note_on_c, 9, 59, 0
5, 265658, Note_on_c, 9, 59, 54
5, 265840, Note_on_c, 9, 59, 0
5, 265986, Note_on_c, 9, 59, 45
5, 266686, Note_on_c, 9, 59, 0
5, 266904, Note_on_c, 9, 59, 51
5, 267600, Note_on_c, 9, 59, 0
5, 267854, Note_on_c, 9, 59, 64
5, 268352, Note_on_c, 9, 59, 0
5, 268540, Note_on_c, 9, 59, 31
5, 268654, Note_on_c, 9, 59, 0
5, 268752, Note_on_c, 9, 59, 33
5, 269452, Note_on_c, 9, 59, 0
5, 269708, Note_on_c, 9, 59, 66
5, 270266, Note_on_c, 9, 59, 0
5, 270424, Note_on_c, 9, 59, 42
5, 270520, Note_on_c, 9, 59, 0
5, 270678, Note_on_c, 9, 59, 55
5, 271396, Note_on_c, 9, 59, 0
5, 271644, Note_on_c, 9, 59, 66
5, 272378, Note_on_c, 9, 59, 0
5, 272596, Note_on_c, 9, 59, 54
5, 273158, Note_on_c, 9, 59, 0
5, 273306, Note_on_c, 9, 59, 36
5, 273400, Note_on_c, 9, 59, 0
5, 273536, Note_on_c, 9, 59, 59
5, 274226, Note_on_c, 9, 59, 0
5, 274228, Note_on_c, 9, 53, 59
5, 274418, Note_on_c, 9, 53, 0
5, 274508, Note_on_c, 9, 59, 30
5, 275114, Note_on_c, 9, 59, 0
5, 275440, Note_on_c, 9, 59, 63
5, 276050, Note_on_c, 9, 59, 0
5, 276100, Note_on_c, 9, 53, 50
5, 276348, Note_on_c, 9, 53, 0
5, 276472, Note_on_c, 9, 59, 31
5, 276918, Note_on_c, 9, 59, 0
5, 277390, Note_on_c, 9, 59, 54
5, 277970, Note_on_c, 9, 59, 0
5, 278336, Note_on_c, 9, 59, 56
5, 279068, Note_on_c, 9, 59, 0
5, 279322, Note_on_c, 9, 59, 62
5, 279810, Note_on_c, 9, 59, 0
5, 280010, Note_on_c, 9, 59, 34
5, 280128, Note_on_c, 9, 59, 0
5, 280272, Note_on_c, 9, 59, 64
5, 281012, Note_on_c, 9, 59, 0
5, 281250, Note_on_c, 9, 59, 65
5, 281880, Note_on_c, 9, 59, 0
5, 282042, Note_on_c, 9, 59, 47
5, 282128, Note_on_c, 9, 59, 0
5, 282268, Note_on_c, 9, 59, 58
5, 282948, Note_on_c, 9, 59, 0
5, 283228, Note_on_c, 9, 59, 71
5, 283946, Note_on_c, 9, 59, 0
5, 284196, Note_on_c, 9, 59, 57
5, 284800, Note_on_c, 9, 59, 0
5, 284828, Note_on_c, 9, 53, 59
5, 284924, Note_on_c, 9, 53, 0
5, 285110, Note_on_c, 9, 59, 36
5, 285822, Note_on_c, 9, 59, 0
5, 286034, Note_on_c, 9, 59, 59
5, 286688, Note_on_c, 9, 59, 0
5, 287014, Note_on_c, 9, 59, 62
5, 287514, Note_on_c, 9, 59, 0
5, 287662, Note_on_c, 9, 59, 42
5, 287762, Note_on_c, 9, 59, 0
5, 287892, Note_on_c, 9, 59, 46
5, 288622, Note_on_c, 9, 59, 0
5, 288844, Note_on_c, 9, 59, 60
5, 289466, Note_on_c, 9, 59, 0
5, 289632, Note_on_c, 9, 59, 40
5, 289772, Note_on_c, 9, 59, 0
5, 289932, Note_on_c, 9, 59, 50
5, 290624, Note_on_c, 9, 59, 0
5, 290844, Note_on_c, 9, 59, 60
5, 291586, Note_on_c, 9, 59, 0
5, 291834, Note_on_c, 9, 59, 62
5, 292368, Note_on_c, 9, 59, 0
5, 292520, Note_on_c, 9, 59, 43
5, 292662, Note_on_c, 9, 59, 0
5, 292798, Note_on_c, 9, 59, 73
5, 293508, Note_on_c, 9, 59, 0
5, 293704, Note_on_c, 9, 59, 51
5, 294250, Note_on_c, 9, 59, 0
5, 294416, Note_on_c, 9, 59, 43
5, 294506, Note_on_c, 9, 59, 0
5, 294630, Note_on_c, 9, 59, 62
5, 295384, Note_on_c, 9, 59, 0
5, 295586, Note_on_c, 9, 59, 57
5, 296162, Note_on_c, 9, 59, 0
5, 296548, Note_on_c, 9, 59, 68
5, 297144, Note_on_c, 9, 59, 0
5, 297242, Note_on_c, 9, 53, 61
5, 297368, Note_on_c, 9, 53, 0
5, 297516, Note_on_c, 9, 59, 49
5, 298202, Note_on_c, 9, 59, 0
5, 298428, Note_on_c, 9, 59, 62
5, 299220, Note_on_c, 9, 59, 0
5, 299430, Note_on_c, 9, 59, 64
5, 300146, Note_on_c, 9, 59, 0
5, 300392, Note_on_c, 9, 59, 61
5, 300812, Note_on_c, 9, 59, 0
5, 301062, Note_on_c, 9, 59, 34
5, 301166, Note_on_c, 9, 59, 0
5, 301328, Note_on_c, 9, 59, 54
5, 302104, Note_on_c, 9, 59, 0
5, 302250, Note_on_c, 9, 59, 58
5, 302990, Note_on_c, 9, 59, 0
5, 303196, Note_on_c, 9, 59, 60
5, 303946, Note_on_c, 9, 59, 0
5, 304190, Note_on_c, 9, 59, 56
5, 304792, Note_on_c, 9, 59, 0
5, 304966, Note_on_c, 9, 59, 42
5, 305072, Note_on_c, 9, 59, 0
5, 305216, Note_on_c, 9, 59, 53
5, 305998, Note_on_c, 9, 59, 0
5, 306164, Note_on_c, 9, 59, 60
5, 306896, Note_on_c, 9, 59, 0
5, 307102, Note_on_c, 9, 59, 59
5, 307674, Note_on_c, 9, 59, 0
5, 307846, Note_on_c, 9, 59, 36
5, 307948, Note_on_c, 9, 59, 0
5, 308100, Note_on_c, 9, 59, 60
5, 308738, Note_on_c, 9, 53, 60
5, 308860, Note_on_c, 9, 59, 0
5, 309360, Note_on_c, 9, 59, 49
5, 309378, Note_on_c, 9, 53, 0
5, 309788, Note_on_c, 9, 59, 0
5, 310092, Note_on_c, 9, 59, 69
5, 310584, Note_on_c, 9, 59, 0
5, 310738, Note_on_c, 9, 59, 69
5, 311218, Note_on_c, 9, 59, 0
5, 311402, Note_on_c, 9, 59, 33
5, 311502, Note_on_c, 9, 59, 0
5, 311674, Note_on_c, 9, 59, 38
5, 311818, Note_on_c, 9, 59, 0
5, 311992, Note_on_c, 9, 53, 48
5, 312084, Note_on_c, 9, 53, 0
5, 312608, Note_on_c, 9, 59, 50
5, 313316, Note_on_c, 9, 59, 0
5, 313594, Note_on_c, 9, 59, 47
5, 313706, Note_on_c, 9, 59, 0
5, 313892, Note_on_c, 9, 53, 47
5, 314498, Note_on_c, 9, 53, 0
5, 314544, Note_on_c, 9, 59, 68
5, 315382, Note_on_c, 9, 59, 0
5, 315488, Note_on_c, 9, 53, 36
5, 315692, Note_on_c, 9, 53, 0
5, 315776, Note_on_c, 9, 59, 66
5, 316520, Note_on_c, 9, 59, 0
5, 316664, Note_on_c, 9, 53, 31
5, 317254, Note_on_c, 9, 53, 0
5, 317314, Note_on_c, 9, 59, 77
5, 318104, Note_on_c, 9, 59, 0
5, 318242, Note_on_c, 9, 53, 32
5, 318506, Note_on_c, 9, 53, 0
5, 318616, Note_on_c, 9, 59, 67
5, 319438, Note_on_c, 9, 59, 0
5, 320238, Note_on_c, 9, 59, 66
5, 320482, Note_on_c, 9, 59, 0
5, 320602, Note_on_c, 9, 59, 58
5, 321382, Note_on_c, 9, 59, 0
5, 321538, Note_on_c, 9, 59, 58
5, 322126, Note_on_c, 9, 59, 0
5, 322244, Note_on_c, 9, 59, 32
5, 322346, Note_on_c, 9, 59, 0
5, 322538, Note_on_c, 9, 59, 53
5, 323278, Note_on_c, 9, 59, 0
5, 323438, Note_on_c, 9, 59, 67
5, 324060, Note_on_c, 9, 59, 0
5, 324372, Note_on_c, 9, 59, 63
5, 325206, Note_on_c, 9, 59, 0
5, 325374, Note_on_c, 9, 59, 57
5, 325926, Note_on_c, 9, 59, 0
5, 326104, Note_on_c, 9, 59, 32
5, 326234, Note_on_c, 9, 59, 0
5, 326380, Note_on_c, 9, 59, 62
5, 327094, Note_on_c, 9, 59, 0
5, 327314, Note_on_c, 9, 59, 63
5, 327854, Note_on_c, 9, 59, 0
5, 328016, Note_on_c, 9, 59, 36
5, 328138, Note_on_c, 9, 59, 0
5, 328304, Note_on_c, 9, 59, 55
5, 328988, Note_on_c, 9, 59, 0
5, 329274, Note_on_c, 9, 59, 76
5, 329920, Note_on_c, 9, 59, 0
5, 330222, Note_on_c, 9, 59, 40
5, 330568, Note_on_c, 9, 59, 0
5, 330890, Note_on_c, 9, 59, 77
5, 331168, Note_on_c, 9, 59, 0
5, 331344, Note_on_c, 9, 59, 18
5, 331792, Note_on_c, 9, 59, 0
5, 332218, Note_on_c, 9, 59, 69
5, 332684, Note_on_c, 9, 59, 0
5, 332830, Note_on_c, 9, 59, 47
5, 333004, Note_on_c, 9, 59, 0
5, 333794, Note_on_c, 9, 59, 88
5, 334476, Note_on_c, 9, 59, 0
5, 335120, Note_on_c, 9, 59, 68
5, 335122, Note_on_c, 9, 51, 47
5, 335726, Note_on_c, 9, 59, 0
5, 336068, Note_on_c, 9, 59, 28
5, 336146, Note_on_c, 9, 51, 0
5, 336306, Note_on_c, 9, 59, 0
5, 336722, Note_on_c, 9, 59, 73
5, 336726, Note_on_c, 9, 51, 58
5, 337242, Note_on_c, 9, 59, 0
5, 337376, Note_on_c, 9, 51, 0
5, 337636, Note_on_c, 9, 59, 26
5, 337718, Note_on_c, 9, 59, 0
5, 338004, Note_on_c, 9, 51, 57
5, 338034, Note_on_c, 9, 59, 73
5, 338644, Note_on_c, 9, 59, 0
5, 338954, Note_on_c, 9, 51, 0
5, 338972, Note_on_c, 9, 59, 32
5, 339074, Note_on_c, 9, 59, 0
5, 339578, Note_on_c, 9, 51, 54
5, 339600, Note_on_c, 9, 59, 77
5, 339602, Note_on_c, 9, 53, 60
5, 339822, Note_on_c, 9, 53, 0
5, 339850, Note_on_c, 9, 59, 0
5, 339936, Note_on_c, 9, 51, 0
5, 340534, Note_on_c, 9, 51, 74
5, 340538, Note_on_c, 9, 59, 83
5, 340552, Note_on_c, 9, 53, 72
5, 340726, Note_on_c, 9, 53, 0
5, 340744, Note_on_c, 9, 59, 0
5, 340884, Note_on_c, 9, 51, 0
5, 341492, Note_on_c, 9, 51, 73
5, 341646, Note_on_c, 9, 51, 0
5, 341784, Note_on_c, 9, 51, 67
5, 342516, Note_on_c, 9, 51, 0
5, 342750, Note_on_c, 9, 51, 79
5, 343412, Note_on_c, 9, 51, 0
5, 343698, Note_on_c, 9, 51, 67
5, 344380, Note_on_c, 9, 51, 0
5, 344640, Note_on_c, 9, 51, 68
5, 345150, Note_on_c, 9, 51, 0
5, 345296, Note_on_c, 9, 51, 37
5, 345378, Note_on_c, 9, 51, 0
5, 345516, Note_on_c, 9, 51, 44
5, 346260, Note_on_c, 9, 51, 0
5, 346510, Note_on_c, 9, 51, 69
5, 347138, Note_on_c, 9, 51, 0
5, 347278, Note_on_c, 9, 51, 34
5, 347364, Note_on_c, 9, 51, 0
5, 347492, Note_on_c, 9, 51, 54
5, 348222, Note_on_c, 9, 51, 0
5, 348478, Note_on_c, 9, 51, 69
5, 349198, Note_on_c, 9, 51, 0
5, 349456, Note_on_c, 9, 51, 67
5, 350042, Note_on_c, 9, 51, 0
5, 350128, Note_on_c, 9, 51, 44
5, 350282, Note_on_c, 9, 51, 0
5, 350394, Note_on_c, 9, 51, 52
5, 351076, Note_on_c, 9, 51, 0
5, 351384, Note_on_c, 9, 51, 71
5, 351994, Note_on_c, 9, 51, 0
5, 352066, Note_on_c, 9, 51, 42
5, 352222, Note_on_c, 9, 51, 0
5, 352328, Note_on_c, 9, 51, 52
5, 352992, Note_on_c, 9, 51, 0
5, 353278, Note_on_c, 9, 51, 72
5, 353998, Note_on_c, 9, 51, 0
5, 354236, Note_on_c, 9, 51, 70
5, 354822, Note_on_c, 9, 51, 0
5, 354912, Note_on_c, 9, 51, 38
5, 355054, Note_on_c, 9, 51, 0
5, 355184, Note_on_c, 9, 51, 59
5, 355838, Note_on_c, 9, 51, 0
5, 356162, Note_on_c, 9, 51, 74
5, 356718, Note_on_c, 9, 51, 0
5, 356842, Note_on_c, 9, 51, 36
5, 356962, Note_on_c, 9, 51, 0
5, 357100, Note_on_c, 9, 51, 55
5, 357780, Note_on_c, 9, 51, 0
5, 358088, Note_on_c, 9, 51, 71
5, 358642, Note_on_c, 9, 51, 0
5, 358826, Note_on_c, 9, 51, 27
5, 358920, Note_on_c, 9, 51, 0
5, 359040, Note_on_c, 9, 51, 50
5, 359676, Note_on_c, 9, 51, 0
5, 359990, Note_on_c, 9, 51, 68
5, 360590, Note_on_c, 9, 51, 0
5, 360736, Note_on_c, 9, 51, 27
5, 360828, Note_on_c, 9, 51, 0
5, 360958, Note_on_c, 9, 51, 55
5, 361626, Note_on_c, 9, 51, 0
5, 361926, Note_on_c, 9, 51, 71
5, 362500, Note_on_c, 9, 51, 0
5, 362872, Note_on_c, 9, 51, 53
5, 363602, Note_on_c, 9, 51, 0
5, 363810, Note_on_c, 9, 51, 62
5, 364330, Note_on_c, 9, 51, 0
5, 364498, Note_on_c, 9, 51, 46
5, 364668, Note_on_c, 9, 51, 0
5, 364784, Note_on_c, 9, 51, 59
5, 365468, Note_on_c, 9, 51, 0
5, 365708, Note_on_c, 9, 51, 62
5, 366422, Note_on_c, 9, 51, 0
5, 366674, Note_on_c, 9, 51, 46
5, 367148, Note_on_c, 9, 51, 0
5, 367286, Note_on_c, 9, 51, 56
5, 367314, Note_on_c, 9, 53, 61
5, 368078, Note_on_c, 9, 51, 0
5, 368286, Note_on_c, 9, 53, 0
5, 368316, Note_on_c, 9, 51, 25
5, 368446, Note_on_c, 9, 51, 0
5, 368608, Note_on_c, 9, 51, 45
5, 368634, Note_on_c, 9, 53, 54
5, 369306, Note_on_c, 9, 51, 0
5, 369442, Note_on_c, 9, 53, 0
5, 369570, Note_on_c, 9, 51, 46
5, 370008, Note_on_c, 9, 51, 0
5, 370268, Note_on_c, 9, 51, 53
5, 370270, Note_on_c, 9, 53, 53
5, 370888, Note_on_c, 9, 51, 0
5, 371218, Note_on_c, 9, 51, 25
5, 371330, Note_on_c, 9, 53, 0
5, 371378, Note_on_c, 9, 51, 0
5, 371516, Note_on_c, 9, 51, 60
5, 371518, Note_on_c, 9, 53, 51
5, 372274, Note_on_c, 9, 51, 0
5, 372322, Note_on_c, 9, 53, 0
5, 372454, Note_on_c, 9, 51, 38
5, 372962, Note_on_c, 9, 51, 0
5, 373214, Note_on_c, 9, 51, 36
5, 373350, Note_on_c, 9, 51, 0
5, 373442, Note_on_c, 9, 51, 40
5, 374184, Note_on_c, 9, 51, 0
5, 374396, Note_on_c, 9, 51, 58
5, 375100, Note_on_c, 9, 51, 0
5, 375358, Note_on_c, 9, 51, 65
5, 375982, Note_on_c, 9, 51, 0
5, 376082, Note_on_c, 9, 51, 29
5, 376182, Note_on_c, 9, 51, 0
5, 376342, Note_on_c, 9, 51, 46
5, 377068, Note_on_c, 9, 51, 0
5, 377300, Note_on_c, 9, 51, 69
5, 377888, Note_on_c, 9, 51, 0
5, 378040, Note_on_c, 9, 51, 28
5, 378130, Note_on_c, 9, 51, 0
5, 378280, Note_on_c, 9, 51, 47
5, 379006, Note_on_c, 9, 51, 0
5, 379224, Note_on_c, 9, 51, 74
5, 379800, Note_on_c, 9, 51, 0
5, 379932, Note_on_c, 9, 51, 46
5, 380016, Note_on_c, 9, 51, 0
5, 380198, Note_on_c, 9, 51, 49
5, 380926, Note_on_c, 9, 51, 0
5, 381156, Note_on_c, 9, 51, 76
5, 381888, Note_on_c, 9, 51, 0
5, 382118, Note_on_c, 9, 51, 68
5, 382678, Note_on_c, 9, 51, 0
5, 382802, Note_on_c, 9, 51, 36
5, 382904, Note_on_c, 9, 51, 0
5, 383042, Note_on_c, 9, 51, 57
5, 383786, Note_on_c, 9, 51, 0
5, 383978, Note_on_c, 9, 51, 64
5, 384630, Note_on_c, 9, 51, 0
5, 384722, Note_on_c, 9, 51, 36
5, 384802, Note_on_c, 9, 51, 0
5, 384936, Note_on_c, 9, 51, 58
5, 385692, Note_on_c, 9, 51, 0
5, 385896, Note_on_c, 9, 51, 69
5, 386604, Note_on_c, 9, 51, 0
5, 386832, Note_on_c, 9, 51, 74
5, 387398, Note_on_c, 9, 51, 0
5, 387510, Note_on_c, 9, 51, 39
5, 387620, Note_on_c, 9, 51, 0
5, 387756, Note_on_c, 9, 51, 59
5, 388476, Note_on_c, 9, 51, 0
5, 388708, Note_on_c, 9, 51, 73
5, 389328, Note_on_c, 9, 51, 0
5, 389420, Note_on_c, 9, 51, 28
5, 389522, Note_on_c, 9, 51, 0
5, 389650, Note_on_c, 9, 51, 54
5, 390444, Note_on_c, 9, 51, 0
5, 390610, Note_on_c, 9, 51, 72
5, 391200, Note_on_c, 9, 51, 0
5, 391266, Note_on_c, 9, 51, 38
5, 392060, Note_on_c, 9, 51, 0
5, 392240, Note_on_c, 9, 51, 49
5, 392424, Note_on_c, 9, 51, 0
5, 392540, Note_on_c, 9, 51, 70
5, 393320, Note_on_c, 9, 51, 0
5, 393552, Note_on_c, 9, 51, 56
5, 394056, Note_on_c, 9, 51, 0
5, 394216, Note_on_c, 9, 51, 77
5, 395348, Note_on_c, 9, 51, 0
5, 395480, Note_on_c, 9, 51, 61
5, 396250, Note_on_c, 9, 51, 0
5, 396462, Note_on_c, 9, 51, 71
5, 397062, Note_on_c, 9, 51, 0
5, 397204, Note_on_c, 9, 51, 25
5, 397300, Note_on_c, 9, 51, 0
5, 397428, Note_on_c, 9, 51, 54
5, 398034, Note_on_c, 9, 51, 0
5, 398328, Note_on_c, 9, 51, 60
5, 398830, Note_on_c, 9, 51, 0
5, 398970, Note_on_c, 9, 51, 51
5, 399200, Note_on_c, 9, 51, 0
5, 399258, Note_on_c, 9, 53, 57
5, 399858, Note_on_c, 9, 53, 0
5, 399944, Note_on_c, 9, 51, 31
5, 400024, Note_on_c, 9, 51, 0
5, 400290, Note_on_c, 9, 51, 31
5, 400648, Note_on_c, 9, 51, 0
5, 400896, Note_on_c, 9, 51, 65
5, 400910, Note_on_c, 9, 53, 62
5, 401666, Note_on_c, 9, 51, 0
5, 401790, Note_on_c, 9, 53, 0
5, 401950, Note_on_c, 9, 51, 33
5, 402110, Note_on_c, 9, 51, 0
5, 402282, Note_on_c, 9, 51, 56
5, 402290, Note_on_c, 9, 53, 58
5, 402826, Note_on_c, 9, 51, 0
5, 402846, Note_on_c, 9, 53, 0
5, 402976, Note_on_c, 9, 51, 37
5, 403388, Note_on_c, 9, 51, 0
5, 403958, Note_on_c, 9, 51, 52
5, 404130, Note_on_c, 9, 51, 0
5, 404274, Note_on_c, 9, 51, 49
5, 404916, Note_on_c, 9, 51, 0
5, 405214, Note_on_c, 9, 51, 52
5, 405704, Note_on_c, 9, 51, 0
5, 405844, Note_on_c, 9, 51, 43
5, 405954, Note_on_c, 9, 51, 0
5, 406094, Note_on_c, 9, 51, 62
5, 406116, Note_on_c, 9, 53, 64
5, 406598, Note_on_c, 9, 51, 0
5, 406686, Note_on_c, 9, 53, 0
5, 406800, Note_on_c, 9, 53, 71
5, 406800, Note_on_c, 9, 51, 69
5, 407102, Note_on_c, 9, 53, 0
5, 407162, Note_on_c, 9, 51, 0
5, 407812, Note_on_c, 9, 51, 29
5, 407934, Note_on_c, 9, 51, 0
5, 408078, Note_on_c, 9, 51, 50
5, 408576, Note_on_c, 9, 51, 0
5, 408734, Note_on_c, 9, 51, 68
5, 409538, Note_on_c, 9, 51, 0
5, 409700, Note_on_c, 9, 51, 35
5, 409854, Note_on_c, 9, 51, 0
5, 409990, Note_on_c, 9, 51, 55
5, 410700, Note_on_c, 9, 51, 0
5, 410982, Note_on_c, 9, 51, 69
5, 411648, Note_on_c, 9, 51, 0
5, 411914, Note_on_c, 9, 51, 69
5, 412602, Note_on_c, 9, 51, 0
5, 412820, Note_on_c, 9, 51, 69
5, 413370, Note_on_c, 9, 51, 0
5, 413534, Note_on_c, 9, 51, 39
5, 413668, Note_on_c, 9, 51, 0
5, 413800, Note_on_c, 9, 51, 62
5, 414492, Note_on_c, 9, 51, 0
5, 414722, Note_on_c, 9, 51, 64
5, 415298, Note_on_c, 9, 51, 0
5, 415414, Note_on_c, 9, 51, 34
5, 415502, Note_on_c, 9, 51, 0
5, 415648, Note_on_c, 9, 51, 51
5, 416362, Note_on_c, 9, 51, 0
5, 416602, Note_on_c, 9, 51, 68
5, 417116, Note_on_c, 9, 51, 0
5, 417250, Note_on_c, 9, 51, 57
5, 417268, Note_on_c, 9, 53, 65
5, 417324, Note_on_c, 9, 54, 30
5, 417390, Note_on_c, 9, 54, 0
5, 417560, Note_on_c, 9, 53, 0
5, 417906, Note_on_c, 9, 51, 0
5, 418182, Note_on_c, 9, 51, 48
5, 418356, Note_on_c, 9, 51, 0
5, 418496, Note_on_c, 9, 51, 54
5, 418516, Note_on_c, 9, 53, 60
5, 419184, Note_on_c, 9, 51, 0
5, 419248, Note_on_c, 9, 53, 0
5, 419516, Note_on_c, 9, 51, 37
5, 419902, Note_on_c, 9, 51, 0
5, 420126, Note_on_c, 9, 51, 70
5, 421052, Note_on_c, 9, 51, 0
5, 421172, Note_on_c, 9, 51, 35
5, 421274, Note_on_c, 9, 51, 0
5, 421426, Note_on_c, 9, 51, 49
5, 422122, Note_on_c, 9, 51, 0
5, 422412, Note_on_c, 9, 51, 64
5, 423036, Note_on_c, 9, 51, 0
5, 423352, Note_on_c, 9, 51, 62
5, 423902, Note_on_c, 9, 51, 0
5, 424076, Note_on_c, 9, 51, 26
5, 424162, Note_on_c, 9, 51, 0
5, 424284, Note_on_c, 9, 51, 60
5, 425008, Note_on_c, 9, 51, 0
5, 425230, Note_on_c, 9, 51, 62
5, 425954, Note_on_c, 9, 51, 0
5, 426922, Note_on_c, 9, 51, 38
5, 427038, Note_on_c, 9, 51, 0
5, 427178, Note_on_c, 9, 51, 55
5, 427888, Note_on_c, 9, 51, 0
5, 428146, Note_on_c, 9, 51, 61
5, 428860, Note_on_c, 9, 51, 0
5, 429092, Note_on_c, 9, 51, 56
5, 429716, Note_on_c, 9, 51, 0
5, 430768, Note_on_c, 9, 51, 57
5, 431018, Note_on_c, 9, 51, 0
5, 431098, Note_on_c, 9, 51, 29
5, 431650, Note_on_c, 9, 51, 0
5, 432012, Note_on_c, 9, 51, 58
5, 432484, Note_on_c, 9, 51, 0
5, 432664, Note_on_c, 9, 51, 46
5, 432682, Note_on_c, 9, 53, 49
5, 433486, Note_on_c, 9, 51, 0
5, 433550, Note_on_c, 9, 53, 0
5, 433642, Note_on_c, 9, 51, 44
5, 433794, Note_on_c, 9, 51, 0
5, 433942, Note_on_c, 9, 51, 53
5, 433986, Note_on_c, 9, 53, 44
5, 434544, Note_on_c, 9, 51, 0
5, 434664, Note_on_c, 9, 53, 0
5, 434882, Note_on_c, 9, 51, 35
5, 435130, Note_on_c, 9, 51, 0
5, 435522, Note_on_c, 9, 51, 59
5, 435538, Note_on_c, 9, 53, 53
5, 436236, Note_on_c, 9, 51, 0
5, 436270, Note_on_c, 9, 53, 0
5, 436472, Note_on_c, 9, 51, 43
5, 436670, Note_on_c, 9, 51, 0
5, 436790, Note_on_c, 9, 51, 58
5, 437372, Note_on_c, 9, 51, 0
5, 437752, Note_on_c, 9, 51, 71
5, 438440, Note_on_c, 9, 51, 0
5, 438704, Note_on_c, 9, 51, 73
5, 439184, Note_on_c, 9, 51, 0
5, 439658, Note_on_c, 9, 51, 56
5, 440370, Note_on_c, 9, 51, 0
5, 440606, Note_on_c, 9, 51, 76
5, 441168, Note_on_c, 9, 51, 0
5, 441580, Note_on_c, 9, 51, 47
5, 442244, Note_on_c, 9, 51, 0
5, 442520, Note_on_c, 9, 51, 74
5, 443118, Note_on_c, 9, 51, 0
5, 443522, Note_on_c, 9, 51, 57
5, 444282, Note_on_c, 9, 51, 0
5, 444492, Note_on_c, 9, 51, 64
5, 445092, Note_on_c, 9, 51, 0
5, 445256, Note_on_c, 9, 51, 33
5, 445358, Note_on_c, 9, 51, 0
5, 445482, Note_on_c, 9, 51, 52
5, 446212, Note_on_c, 9, 51, 0
5, 446420, Note_on_c, 9, 51, 70
5, 446962, Note_on_c, 9, 51, 0
5, 447122, Note_on_c, 9, 51, 34
5, 447222, Note_on_c, 9, 51, 0
5, 447356, Note_on_c, 9, 51, 56
5, 448056, Note_on_c, 9, 51, 0
5, 448302, Note_on_c, 9, 51, 77
5, 448866, Note_on_c, 9, 51, 0
5, 449020, Note_on_c, 9, 51, 37
5, 449120, Note_on_c, 9, 51, 0
5, 449254, Note_on_c, 9, 51, 53
5, 449932, Note_on_c, 9, 51, 0
5, 450218, Note_on_c, 9, 51, 55
5, 450938, Note_on_c, 9, 51, 0
5, 451200, Note_on_c, 9, 51, 51
5, 451810, Note_on_c, 9, 51, 0
5, 451956, Note_on_c, 9, 51, 26
5, 452046, Note_on_c, 9, 51, 0
5, 452168, Note_on_c, 9, 51, 62
5, 452892, Note_on_c, 9, 51, 0
5, 453078, Note_on_c, 9, 51, 56
5, 453788, Note_on_c, 9, 51, 0
5, 454020, Note_on_c, 9, 51, 62
5, 454610, Note_on_c, 9, 51, 0
5, 454746, Note_on_c, 9, 51, 35
5, 454856, Note_on_c, 9, 51, 0
5, 454990, Note_on_c, 9, 51, 60
5, 455726, Note_on_c, 9, 51, 0
5, 455956, Note_on_c, 9, 51, 67
5, 456506, Note_on_c, 9, 51, 0
5, 456644, Note_on_c, 9, 51, 50
5, 456762, Note_on_c, 9, 51, 0
5, 456914, Note_on_c, 9, 51, 52
5, 457710, Note_on_c, 9, 51, 0
5, 457876, Note_on_c, 9, 51, 55
5, 458586, Note_on_c, 9, 51, 0
5, 458818, Note_on_c, 9, 51, 49
5, 459278, Note_on_c, 9, 51, 0
5, 459452, Note_on_c, 9, 51, 45
5, 459480, Note_on_c, 9, 53, 58
5, 460300, Note_on_c, 9, 51, 0
5, 460420, Note_on_c, 9, 53, 0
5, 460442, Note_on_c, 9, 51, 40
5, 460580, Note_on_c, 9, 51, 0
5, 460822, Note_on_c, 9, 51, 53
5, 460828, Note_on_c, 9, 53, 54
5, 461488, Note_on_c, 9, 51, 0
5, 461612, Note_on_c, 9, 53, 0
5, 461762, Note_on_c, 9, 51, 44
5, 462184, Note_on_c, 9, 51, 0
5, 462384, Note_on_c, 9, 51, 64
5, 463188, Note_on_c, 9, 51, 0
5, 463368, Note_on_c, 9, 51, 35
5, 463462, Note_on_c, 9, 51, 0
5, 463646, Note_on_c, 9, 51, 51
5, 464398, Note_on_c, 9, 51, 0
5, 464646, Note_on_c, 9, 51, 57
5, 465200, Note_on_c, 9, 51, 0
5, 465554, Note_on_c, 9, 51, 68
5, 466164, Note_on_c, 9, 51, 0
5, 466332, Note_on_c, 9, 51, 23
5, 466426, Note_on_c, 9, 51, 0
5, 466532, Note_on_c, 9, 51, 50
5, 467220, Note_on_c, 9, 51, 0
5, 467456, Note_on_c, 9, 51, 71
5, 468040, Note_on_c, 9, 51, 0
5, 468430, Note_on_c, 9, 51, 50
5, 469132, Note_on_c, 9, 51, 0
5, 469416, Note_on_c, 9, 51, 71
5, 469980, Note_on_c, 9, 51, 0
5, 470102, Note_on_c, 9, 51, 29
5, 470208, Note_on_c, 9, 51, 0
5, 470342, Note_on_c, 9, 51, 55
5, 471080, Note_on_c, 9, 51, 0
5, 471312, Note_on_c, 9, 51, 64
5, 471886, Note_on_c, 9, 51, 0
5, 472016, Note_on_c, 9, 51, 31
5, 472128, Note_on_c, 9, 51, 0
5, 472262, Note_on_c, 9, 51, 58
5, 472946, Note_on_c, 9, 51, 0
5, 473180, Note_on_c, 9, 51, 65
5, 473770, Note_on_c, 9, 51, 0
5, 474218, Note_on_c, 9, 51, 63
5, 474904, Note_on_c, 9, 51, 0
5, 475172, Note_on_c, 9, 51, 60
5, 475710, Note_on_c, 9, 51, 0
5, 475858, Note_on_c, 9, 51, 28
5, 475962, Note_on_c, 9, 51, 0
5, 476096, Note_on_c, 9, 51, 59
5, 476846, Note_on_c, 9, 51, 0
5, 477078, Note_on_c, 9, 51, 70
5, 477698, Note_on_c, 9, 51, 0
5, 478008, Note_on_c, 9, 51, 67
5, 478028, Note_on_c, 9, 53, 60
5, 478464, Note_on_c, 9, 51, 0
5, 478584, Note_on_c, 9, 53, 0
5, 478704, Note_on_c, 9, 51, 47
5, 478830, Note_on_c, 9, 51, 0
5, 479028, Note_on_c, 9, 51, 48
5, 479264, Note_on_c, 9, 51, 0
5, 479704, Note_on_c, 9, 51, 77
5, 480834, Note_on_c, 9, 51, 0
5, 481020, Note_on_c, 9, 51, 37
5, 481268, Note_on_c, 9, 51, 0
5, 481686, Note_on_c, 9, 51, 48
5, 481846, Note_on_c, 9, 51, 0
5, 482016, Note_on_c, 9, 51, 38
5, 483040, Note_on_c, 9, 51, 0
5, 483560, Note_on_c, 9, 51, 32
5, 483732, Note_on_c, 9, 51, 0
5, 483858, Note_on_c, 9, 51, 40
5, 484728, Note_on_c, 9, 51, 0
5, 485494, Note_on_c, 9, 51, 45
5, 485648, Note_on_c, 9, 51, 0
5, 485740, Note_on_c, 9, 51, 31
5, 486116, Note_on_c, 9, 51, 0
5, 486356, Note_on_c, 9, 51, 50
5, 486394, Note_on_c, 9, 53, 39
5, 487120, Note_on_c, 9, 51, 0
5, 487270, Note_on_c, 9, 53, 0
5, 487402, Note_on_c, 9, 51, 26
5, 487492, Note_on_c, 9, 51, 0
5, 487698, Note_on_c, 9, 51, 38
5, 487720, Note_on_c, 9, 53, 43
5, 488156, Note_on_c, 9, 53, 0
5, 488466, Note_on_c, 9, 51, 0
5, 488710, Note_on_c, 9, 51, 25
5, 488788, Note_on_c, 9, 51, 0
5, 489266, Note_on_c, 9, 51, 55
5, 489454, Note_on_c, 9, 51, 0
5, 489604, Note_on_c, 9, 51, 47
5, 490144, Note_on_c, 9, 51, 0
5, 491168, Note_on_c, 9, 51, 42
5, 491300, Note_on_c, 9, 51, 0
5, 491484, Note_on_c, 9, 51, 36
5, 492666, Note_on_c, 9, 51, 0
5, 493114, Note_on_c, 9, 51, 43
5, 493286, Note_on_c, 9, 51, 0
5, 493434, Note_on_c, 9, 51, 48
5, 493854, Note_on_c, 9, 51, 0
5, 494092, Note_on_c, 9, 51, 46
5, 494124, Note_on_c, 9, 53, 50
5, 495126, Note_on_c, 9, 51, 0
5, 495178, Note_on_c, 9, 53, 0
5, 495426, Note_on_c, 9, 51, 28
5, 495630, Note_on_c, 9, 51, 0
5, 495955, Note_on_c, 9, 51, 46
5, 496077, Note_on_c, 9, 51, 0
5, 496241, Note_on_c, 9, 51, 50
5, 496774, Note_on_c, 9, 51, 0
5, 497266, Note_on_c, 9, 51, 72
5, 497562, Note_on_c, 9, 51, 0
5, 497982, Note_on_c, 9, 51, 28
5, 498082, Note_on_c, 9, 51, 0
5, 498282, Note_on_c, 9, 51, 59
5, 498456, Note_on_c, 9, 51, 0
5, 498908, Note_on_c, 9, 51, 88
5, 499688, Note_on_c, 9, 51, 0
5, 499892, Note_on_c, 9, 51, 40
5, 500080, Note_on_c, 9, 51, 0
5, 500860, Note_on_c, 9, 51, 82
5, 501418, Note_on_c, 9, 51, 0
5, 501848, Note_on_c, 9, 51, 37
5, 501926, Note_on_c, 9, 51, 0
5, 502164, Note_on_c, 9, 51, 33
5, 502290, Note_on_c, 9, 51, 0
5, 502768, Note_on_c, 9, 57, 77
5, 502808, Note_on_c, 9, 51, 70
5, 507532, Note_on_c, 9, 57, 0
5, 509366, Note_on_c, 9, 51, 0
5, 509366, End_track
6, 0, Start_track
6, 0, Title_t, "Drum Hits"
6, 9689, Note_on_c, 9, 40, 39
6, 9769, Note_on_c, 9, 40, 0
6, 9987, Note_on_c, 9, 40, 36
6, 10090, Note_on_c, 9, 40, 0
6, 11279, Note_on_c, 9, 40, 44
6, 11548, Note_on_c, 9, 40, 0
6, 12194, Note_on_c, 9, 40, 40
6, 12393, Note_on_c, 9, 40, 0
6, 15764, Note_on_c, 9, 38, 32
6, 15953, Note_on_c, 9, 38, 0
6, 16087, Note_on_c, 9, 38, 45
6, 16215, Note_on_c, 9, 38, 0
6, 18587, Note_on_c, 9, 38, 45
6, 18691, Note_on_c, 9, 38, 0
6, 18882, Note_on_c, 9, 37, 48
6, 19063, Note_on_c, 9, 37, 0
6, 19197, Note_on_c, 9, 57, 47
6, 19219, Note_on_c, 9, 36, 48
6, 20292, Note_on_c, 9, 57, 0
6, 20677, Note_on_c, 9, 36, 0
6, 23284, Note_on_c, 9, 38, 26
6, 23454, Note_on_c, 9, 38, 0
6, 25208, Note_on_c, 9, 38, 37
6, 25283, Note_on_c, 9, 38, 0
6, 25904, Note_on_c, 9, 38, 41
6, 25970, Note_on_c, 9, 38, 0
6, 26574, Note_on_c, 9, 38, 55
6, 26698, Note_on_c, 9, 38, 0
6, 27447, Note_on_c, 9, 38, 48
6, 27588, Note_on_c, 9, 38, 0
6, 27800, Note_on_c, 9, 37, 33
6, 27934, Note_on_c, 9, 37, 0
6, 28757, Note_on_c, 9, 36, 43
6, 29238, Note_on_c, 9, 36, 0
6, 29394, Note_on_c, 9, 36, 27
6, 29515, Note_on_c, 9, 36, 0
6, 33135, Note_on_c, 9, 40, 57
6, 33240, Note_on_c, 9, 40, 0
6, 33595, Note_on_c, 9, 40, 55
6, 33738, Note_on_c, 9, 40, 0
6, 33833, Note_on_c, 9, 40, 58
6, 33967, Note_on_c, 9, 40, 0
6, 40655, Note_on_c, 9, 38, 34
6, 40806, Note_on_c, 9, 38, 0
6, 40965, Note_on_c, 9, 38, 38
6, 41120, Note_on_c, 9, 38, 0
6, 41290, Note_on_c, 9, 38, 51
6, 41414, Note_on_c, 9, 38, 0
6, 41583, Note_on_c, 9, 37, 51
6, 41665, Note_on_c, 9, 37, 0
6, 41916, Note_on_c, 9, 57, 76
6, 41924, Note_on_c, 9, 36, 57
6, 43330, Note_on_c, 9, 57, 0
6, 44262, Note_on_c, 9, 36, 0
6, 46683, Note_on_c, 9, 38, 28
6, 46848, Note_on_c, 9, 38, 0
6, 47004, Note_on_c, 9, 38, 29
6, 47288, Note_on_c, 9, 38, 0
6, 47616, Note_on_c, 9, 38, 30
6, 47679, Note_on_c, 9, 38, 0
6, 48562, Note_on_c, 9, 38, 53
6, 48631, Note_on_c, 9, 38, 0
6, 48894, Note_on_c, 9, 47, 68
6, 49019, Note_on_c, 9, 47, 0
6, 49126, Note_on_c, 9, 45, 65
6, 49198, Note_on_c, 9, 45, 0
6, 49483, Note_on_c, 9, 36, 56
6, 49610, Note_on_c, 9, 36, 0
6, 49819, Note_on_c, 9, 57, 77
6, 49827, Note_on_c, 9, 36, 66
6, 51678, Note_on_c, 9, 57, 0
6, 52447, Note_on_c, 9, 36, 0
6, 53425, Note_on_c, 9, 38, 33
6, 53533, Note_on_c, 9, 38, 0
6, 53819, Note_on_c, 9, 38, 24
6, 53954, Note_on_c, 9, 38, 0
6, 55324, Note_on_c, 9, 38, 32
6, 55494, Note_on_c, 9, 38, 0
6, 55680, Note_on_c, 9, 38, 24
6, 55802, Note_on_c, 9, 38, 0
6, 57262, Note_on_c, 9, 38, 27
6, 57471, Note_on_c, 9, 38, 0
6, 57623, Note_on_c, 9, 38, 30
6, 57969, Note_on_c, 9, 38, 0
6, 59127, Note_on_c, 9, 38, 35
6, 59358, Note_on_c, 9, 38, 0
6, 59520, Note_on_c, 9, 38, 24
6, 59713, Note_on_c, 9, 38, 0
6, 61058, Note_on_c, 9, 38, 47
6, 61130, Note_on_c, 9, 38, 0
6, 63661, Note_on_c, 9, 38, 37
6, 63767, Note_on_c, 9, 38, 0
6, 63967, Note_on_c, 9, 38, 47
6, 64092, Note_on_c, 9, 38, 0
6, 64301, Note_on_c, 9, 38, 51
6, 64423, Note_on_c, 9, 38, 0
6, 64617, Note_on_c, 9, 37, 57
6, 64734, Note_on_c, 9, 37, 0
6, 64905, Note_on_c, 9, 57, 66
6, 64908, Note_on_c, 9, 36, 60
6, 66249, Note_on_c, 9, 57, 0
6, 67332, Note_on_c, 9, 36, 0
6, 70786, Note_on_c, 9, 40, 32
6, 70881, Note_on_c, 9, 40, 0
6, 71687, Note_on_c, 9, 40, 41
6, 71779, Note_on_c, 9, 40, 0
6, 72618, Note_on_c, 9, 38, 43
6, 72735, Note_on_c, 9, 38, 0
6, 73527, Note_on_c, 9, 38, 34
6, 73600, Note_on_c, 9, 38, 0
6, 75397, Note_on_c, 9, 38, 29
6, 75497, Note_on_c, 9, 38, 0
6, 75743, Note_on_c, 9, 37, 72
6, 76154, Note_on_c, 9, 37, 0
6, 79294, Note_on_c, 9, 38, 36
6, 79465, Note_on_c, 9, 38, 0
6, 79611, Note_on_c, 9, 38, 28
6, 79876, Note_on_c, 9, 38, 0
6, 82214, Note_on_c, 9, 38, 39
6, 82372, Note_on_c, 9, 38, 0
6, 82525, Note_on_c, 9, 38, 33
6, 83051, Note_on_c, 9, 38, 0
6, 90545, Note_on_c, 9, 40, 39
6, 90645, Note_on_c, 9, 40, 0
6, 91206, Note_on_c, 9, 40, 39
6, 91442, Note_on_c, 9, 40, 0
6, 91791, Note_on_c, 9, 40, 41
6, 91976, Note_on_c, 9, 40, 0
6, 92396, Note_on_c, 9, 40, 40
6, 92686, Note_on_c, 9, 40, 0
6, 93026, Note_on_c, 9, 40, 38
6, 93234, Note_on_c, 9, 40, 0
6, 93630, Note_on_c, 9, 38, 32
6, 93912, Note_on_c, 9, 38, 0
6, 94258, Note_on_c, 9, 38, 45
6, 94477, Note_on_c, 9, 38, 0
6, 94935, Note_on_c, 9, 38, 50
6, 95259, Note_on_c, 9, 38, 0
6, 95582, Note_on_c, 9, 37, 39
6, 95625, Note_on_c, 9, 57, 34
6, 95719, Note_on_c, 9, 57, 0
6, 95919, Note_on_c, 9, 37, 0
6, 104344, Note_on_c, 9, 38, 30
6, 104531, Note_on_c, 9, 38, 0
6, 104705, Note_on_c, 9, 38, 22
6, 105021, Note_on_c, 9, 38, 0
6, 105321, Note_on_c, 9, 38, 28
6, 105443, Note_on_c, 9, 38, 0
6, 105682, Note_on_c, 9, 38, 26
6, 105862, Note_on_c, 9, 38, 0
6, 106273, Note_on_c, 9, 37, 26
6, 106346, Note_on_c, 9, 37, 0
6, 107856, Note_on_c, 9, 38, 22
6, 107964, Note_on_c, 9, 38, 0
6, 109156, Note_on_c, 9, 38, 30
6, 109236, Note_on_c, 9, 38, 0
6, 109735, Note_on_c, 9, 38, 34
6, 109863, Note_on_c, 9, 38, 0
6, 110395, Note_on_c, 9, 38, 46
6, 110568, Note_on_c, 9, 38, 0
6, 111010, Note_on_c, 9, 37, 54
6, 111137, Note_on_c, 9, 37, 0
6, 111317, Note_on_c, 9, 38, 42
6, 111324, Note_on_c, 9, 57, 47
6, 111356, Note_on_c, 9, 36, 55
6, 112537, Note_on_c, 9, 57, 0
6, 113189, Note_on_c, 9, 36, 0
6, 113215, Note_on_c, 9, 38, 0
6, 113917, Note_on_c, 9, 36, 53
6, 114139, Note_on_c, 9, 36, 0
6, 114268, Note_on_c, 9, 36, 22
6, 114719, Note_on_c, 9, 36, 0
6, 114871, Note_on_c, 9, 36, 30
6, 114927, Note_on_c, 9, 36, 0
6, 119640, Note_on_c, 9, 38, 42
6, 119705, Note_on_c, 9, 38, 0
6, 120315, Note_on_c, 9, 38, 49
6, 120389, Note_on_c, 9, 38, 0
6, 120587, Note_on_c, 9, 38, 33
6, 120662, Note_on_c, 9, 38, 0
6, 122846, Note_on_c, 9, 38, 42
6, 122925, Note_on_c, 9, 38, 0
6, 123172, Note_on_c, 9, 38, 46
6, 123254, Note_on_c, 9, 38, 0
6, 123477, Note_on_c, 9, 36, 37
6, 123489, Note_on_c, 9, 57, 34
6, 123582, Note_on_c, 9, 57, 0
6, 123715, Note_on_c, 9, 36, 0
6, 126405, Note_on_c, 9, 38, 38
6, 126523, Note_on_c, 9, 38, 0
6, 126765, Note_on_c, 9, 38, 28
6, 127075, Note_on_c, 9, 38, 0
6, 132030, Note_on_c, 9, 38, 24
6, 132108, Note_on_c, 9, 38, 0
6, 132884, Note_on_c, 9, 38, 43
6, 132978, Note_on_c, 9, 38, 0
6, 135861, Note_on_c, 9, 38, 22
6, 136016, Note_on_c, 9, 38, 0
6, 139831, Note_on_c, 9, 38, 35
6, 139905, Note_on_c, 9, 38, 0
6, 140435, Note_on_c, 9, 38, 32
6, 140510, Note_on_c, 9, 38, 0
6, 140761, Note_on_c, 9, 38, 50
6, 140824, Note_on_c, 9, 38, 0
6, 141111, Note_on_c, 9, 38, 55
6, 141174, Note_on_c, 9, 38, 0
6, 141410, Note_on_c, 9, 37, 49
6, 141472, Note_on_c, 9, 37, 0
6, 141739, Note_on_c, 9, 36, 56
6, 141904, Note_on_c, 9, 36, 0
6, 142080, Note_on_c, 9, 57, 58
6, 142106, Note_on_c, 9, 36, 55
6, 142842, Note_on_c, 9, 57, 0
6, 143953, Note_on_c, 9, 36, 0
6, 144952, Note_on_c, 9, 37, 59
6, 145112, Note_on_c, 9, 37, 0
6, 148797, Note_on_c, 9, 37, 77
6, 149016, Note_on_c, 9, 37, 0
6, 152605, Note_on_c, 9, 37, 75
6, 152927, Note_on_c, 9, 37, 0
6, 156451, Note_on_c, 9, 37, 78
6, 156817, Note_on_c, 9, 37, 0
6, 161937, Note_on_c, 9, 38, 33
6, 162109, Note_on_c, 9, 38, 0
6, 170604, Note_on_c, 9, 38, 45
6, 170760, Note_on_c, 9, 38, 0
6, 170931, Note_on_c, 9, 38, 29
6, 171174, Note_on_c, 9, 38, 0
6, 172475, Note_on_c, 9, 38, 51
6, 172593, Note_on_c, 9, 38, 0
6, 172787, Note_on_c, 9, 36, 44
6, 172796, Note_on_c, 9, 57, 41
6, 174007, Note_on_c, 9, 57, 0
6, 174551, Note_on_c, 9, 36, 0
6, 178510, Note_on_c, 9, 38, 34
6, 178582, Note_on_c, 9, 38, 0
6, 178975, Note_on_c, 9, 38, 48
6, 179037, Note_on_c, 9, 38, 0
6, 179934, Note_on_c, 9, 38, 36
6, 180019, Note_on_c, 9, 38, 0
6, 180405, Note_on_c, 9, 38, 35
6, 180522, Note_on_c, 9, 38, 0
6, 184980, Note_on_c, 9, 38, 28
6, 185079, Note_on_c, 9, 38, 0
6, 185895, Note_on_c, 9, 36, 28
6, 185995, Note_on_c, 9, 36, 0
6, 186806, Note_on_c, 9, 38, 41
6, 186941, Note_on_c, 9, 38, 0
6, 187092, Note_on_c, 9, 36, 29
6, 187222, Note_on_c, 9, 36, 0
6, 194214, Note_on_c, 9, 38, 17
6, 194291, Note_on_c, 9, 38, 0
6, 194735, Note_on_c, 9, 38, 29
6, 194826, Note_on_c, 9, 38, 0
6, 197087, Note_on_c, 9, 38, 41
6, 197157, Note_on_c, 9, 38, 0
6, 197402, Note_on_c, 9, 36, 31
6, 197501, Note_on_c, 9, 36, 0
6, 197683, Note_on_c, 9, 38, 32
6, 197801, Note_on_c, 9, 38, 0
6, 198314, Note_on_c, 9, 36, 19
6, 198370, Note_on_c, 9, 36, 0
6, 199703, Note_on_c, 9, 38, 33
6, 199812, Note_on_c, 9, 38, 0
6, 200325, Note_on_c, 9, 36, 36
6, 200391, Note_on_c, 9, 36, 0
6, 200686, Note_on_c, 9, 38, 31
6, 200778, Note_on_c, 9, 38, 0
6, 205137, Note_on_c, 9, 38, 18
6, 205234, Note_on_c, 9, 38, 0
6, 205444, Note_on_c, 9, 38, 24
6, 205969, Note_on_c, 9, 38, 0
6, 206077, Note_on_c, 9, 38, 29
6, 206225, Note_on_c, 9, 38, 0
6, 207984, Note_on_c, 9, 38, 34
6, 208171, Note_on_c, 9, 38, 0
6, 209973, Note_on_c, 9, 38, 32
6, 210168, Note_on_c, 9, 38, 0
6, 210318, Note_on_c, 9, 38, 20
6, 210630, Note_on_c, 9, 38, 0
6, 210904, Note_on_c, 9, 38, 30
6, 211061, Note_on_c, 9, 38, 0
6, 211737, Note_on_c, 9, 38, 54
6, 211888, Note_on_c, 9, 38, 0
6, 214685, Note_on_c, 9, 38, 24
6, 214749, Note_on_c, 9, 38, 0
6, 216529, Note_on_c, 9, 38, 38
6, 216599, Note_on_c, 9, 38, 0
6, 217490, Note_on_c, 9, 38, 42
6, 217558, Note_on_c, 9, 38, 0
6, 218482, Note_on_c, 9, 38, 44
6, 218550, Note_on_c, 9, 38, 0
6, 221291, Note_on_c, 9, 38, 51
6, 221399, Note_on_c, 9, 38, 0
6, 224320, Note_on_c, 9, 38, 48
6, 224384, Note_on_c, 9, 38, 0
6, 225287, Note_on_c, 9, 38, 48
6, 225355, Note_on_c, 9, 38, 0
6, 225598, Note_on_c, 9, 38, 50
6, 225740, Note_on_c, 9, 38, 0
6, 226256, Note_on_c, 9, 37, 36
6, 226387, Note_on_c, 9, 37, 0
6, 226542, Note_on_c, 9, 36, 52
6, 226600, Note_on_c, 9, 57, 43
6, 227523, Note_on_c, 9, 57, 0
6, 227863, Note_on_c, 9, 36, 0
6, 229068, Note_on_c, 9, 38, 66
6, 229189, Note_on_c, 9, 38, 0
6, 229377, Note_on_c, 9, 37, 45
6, 229506, Note_on_c, 9, 37, 0
6, 229941, Note_on_c, 9, 57, 84
6, 229947, Note_on_c, 9, 36, 65
6, 230047, Note_on_c, 9, 57, 0
6, 230288, Note_on_c, 9, 36, 0
6, 236723, Note_on_c, 9, 38, 36
6, 236800, Note_on_c, 9, 38, 0
6, 237018, Note_on_c, 9, 38, 42
6, 237576, Note_on_c, 9, 38, 0
6, 240647, Note_on_c, 9, 38, 28
6, 240731, Note_on_c, 9, 38, 0
6, 243471, Note_on_c, 9, 38, 41
6, 243537, Note_on_c, 9, 38, 0
6, 247270, Note_on_c, 9, 38, 34
6, 247417, Note_on_c, 9, 38, 0
6, 247600, Note_on_c, 9, 38, 37
6, 247891, Note_on_c, 9, 38, 0
6, 248261, Note_on_c, 9, 38, 31
6, 248329, Note_on_c, 9, 38, 0
6, 251927, Note_on_c, 9, 38, 31
6, 252002, Note_on_c, 9, 38, 0
6, 252130, Note_on_c, 9, 38, 30
6, 252259, Note_on_c, 9, 38, 0
6, 253830, Note_on_c, 9, 38, 33
6, 253913, Note_on_c, 9, 38, 0
6, 254109, Note_on_c, 9, 38, 29
6, 254258, Note_on_c, 9, 38, 0
6, 254414, Note_on_c, 9, 38, 26
6, 254511, Note_on_c, 9, 38, 0
6, 254753, Note_on_c, 9, 38, 36
6, 254880, Note_on_c, 9, 38, 0
6, 255016, Note_on_c, 9, 38, 35
6, 255099, Note_on_c, 9, 38, 0
6, 255702, Note_on_c, 9, 38, 52
6, 255841, Note_on_c, 9, 38, 0
6, 255980, Note_on_c, 9, 38, 49
6, 256044, Note_on_c, 9, 38, 0
6, 256355, Note_on_c, 9, 38, 33
6, 256423, Note_on_c, 9, 38, 0
6, 256665, Note_on_c, 9, 38, 59
6, 256807, Note_on_c, 9, 38, 0
6, 256975, Note_on_c, 9, 47, 36
6, 256979, Note_on_c, 9, 37, 46
6, 257066, Note_on_c, 9, 47, 0
6, 257205, Note_on_c, 9, 37, 0
6, 257310, Note_on_c, 9, 38, 48
6, 257417, Note_on_c, 9, 38, 0
6, 257965, Note_on_c, 9, 38, 25
6, 258042, Note_on_c, 9, 38, 0
6, 259631, Note_on_c, 9, 47, 47
6, 259707, Note_on_c, 9, 47, 0
6, 259920, Note_on_c, 9, 47, 64
6, 260123, Note_on_c, 9, 47, 0
6, 260266, Note_on_c, 9, 45, 34
6, 260397, Note_on_c, 9, 45, 0
6, 260598, Note_on_c, 9, 43, 36
6, 260663, Note_on_c, 9, 43, 0
6, 260881, Note_on_c, 9, 38, 53
6, 260955, Note_on_c, 9, 38, 0
6, 262503, Note_on_c, 9, 45, 58
6, 262583, Note_on_c, 9, 45, 0
6, 262754, Note_on_c, 9, 45, 70
6, 262911, Note_on_c, 9, 45, 0
6, 263066, Note_on_c, 9, 45, 58
6, 263249, Note_on_c, 9, 45, 0
6, 263355, Note_on_c, 9, 43, 41
6, 263417, Note_on_c, 9, 43, 0
6, 263669, Note_on_c, 9, 38, 55
6, 263954, Note_on_c, 9, 38, 0
6, 263976, Note_on_c, 9, 57, 65
6, 264026, Note_on_c, 9, 57, 0
6, 270371, Note_on_c, 9, 38, 33
6, 270451, Note_on_c, 9, 38, 0
6, 270751, Note_on_c, 9, 38, 24
6, 270887, Note_on_c, 9, 38, 0
6, 272300, Note_on_c, 9, 37, 36
6, 272431, Note_on_c, 9, 37, 0
6, 272604, Note_on_c, 9, 38, 47
6, 272606, Note_on_c, 9, 57, 49
6, 273826, Note_on_c, 9, 38, 0
6, 273885, Note_on_c, 9, 57, 0
6, 276153, Note_on_c, 9, 36, 53
6, 276231, Note_on_c, 9, 36, 0
6, 278752, Note_on_c, 9, 38, 44
6, 278819, Note_on_c, 9, 38, 0
6, 279045, Note_on_c, 9, 38, 44
6, 279115, Note_on_c, 9, 38, 0
6, 279697, Note_on_c, 9, 38, 53
6, 279783, Note_on_c, 9, 38, 0
6, 279978, Note_on_c, 9, 37, 49
6, 280184, Note_on_c, 9, 37, 0
6, 280312, Note_on_c, 9, 36, 60
6, 280315, Note_on_c, 9, 57, 60
6, 282102, Note_on_c, 9, 57, 0
6, 282791, Note_on_c, 9, 36, 0
6, 283232, Note_on_c, 9, 37, 29
6, 283451, Note_on_c, 9, 37, 0
6, 283797, Note_on_c, 9, 37, 32
6, 283926, Note_on_c, 9, 37, 0
6, 288889, Note_on_c, 9, 47, 38
6, 289424, Note_on_c, 9, 47, 0
6, 289544, Note_on_c, 9, 47, 62
6, 290585, Note_on_c, 9, 38, 24
6, 290723, Note_on_c, 9, 38, 0
6, 290752, Note_on_c, 9, 47, 0
6, 290900, Note_on_c, 9, 37, 43
6, 291137, Note_on_c, 9, 37, 0
6, 292764, Note_on_c, 9, 47, 88
6, 293297, Note_on_c, 9, 47, 0
6, 293394, Note_on_c, 9, 47, 84
6, 294430, Note_on_c, 9, 34, 30
6, 294447, Note_on_c, 9, 47, 0
6, 294567, Note_on_c, 9, 34, 0
6, 294694, Note_on_c, 9, 37, 64
6, 295113, Note_on_c, 9, 37, 0
6, 296494, Note_on_c, 9, 47, 81
6, 297032, Note_on_c, 9, 47, 0
6, 297130, Note_on_c, 9, 47, 87
6, 297697, Note_on_c, 9, 47, 0
6, 298514, Note_on_c, 9, 37, 39
6, 298712, Note_on_c, 9, 37, 0
6, 300376, Note_on_c, 9, 47, 36
6, 300935, Note_on_c, 9, 47, 0
6, 301025, Note_on_c, 9, 47, 78
6, 302201, Note_on_c, 9, 47, 0
6, 302316, Note_on_c, 9, 37, 69
6, 302718, Note_on_c, 9, 37, 0
6, 304281, Note_on_c, 9, 47, 24
6, 304844, Note_on_c, 9, 47, 0
6, 304929, Note_on_c, 9, 47, 88
6, 306115, Note_on_c, 9, 47, 0
6, 306256, Note_on_c, 9, 37, 59
6, 306585, Note_on_c, 9, 37, 0
6, 308057, Note_on_c, 9, 47, 40
6, 308414, Note_on_c, 9, 47, 0
6, 308716, Note_on_c, 9, 47, 105
6, 309771, Note_on_c, 9, 47, 0
6, 309961, Note_on_c, 9, 37, 29
6, 309966, Note_on_c, 9, 45, 36
6, 310089, Note_on_c, 9, 45, 0
6, 310119, Note_on_c, 9, 37, 0
6, 313467, Note_on_c, 9, 38, 29
6, 313531, Note_on_c, 9, 38, 0
6, 315134, Note_on_c, 9, 38, 22
6, 315202, Note_on_c, 9, 38, 0
6, 316174, Note_on_c, 9, 38, 34
6, 316264, Note_on_c, 9, 38, 0
6, 316482, Note_on_c, 9, 38, 31
6, 316572, Note_on_c, 9, 38, 0
6, 317071, Note_on_c, 9, 38, 32
6, 317149, Note_on_c, 9, 38, 0
6, 321231, Note_on_c, 9, 38, 35
6, 321463, Note_on_c, 9, 38, 0
6, 321597, Note_on_c, 9, 38, 38
6, 322014, Note_on_c, 9, 38, 0
6, 322213, Note_on_c, 9, 37, 34
6, 322302, Note_on_c, 9, 37, 0
6, 325012, Note_on_c, 9, 38, 53
6, 325325, Note_on_c, 9, 38, 0
6, 325430, Note_on_c, 9, 38, 37
6, 325782, Note_on_c, 9, 38, 0
6, 326005, Note_on_c, 9, 36, 48
6, 326264, Note_on_c, 9, 36, 0
6, 326379, Note_on_c, 9, 36, 24
6, 326609, Note_on_c, 9, 36, 0
6, 329842, Note_on_c, 9, 38, 49
6, 329953, Note_on_c, 9, 38, 0
6, 330857, Note_on_c, 9, 38, 59
6, 331039, Note_on_c, 9, 38, 0
6, 331809, Note_on_c, 9, 36, 54
6, 331971, Note_on_c, 9, 36, 0
6, 332194, Note_on_c, 9, 38, 47
6, 332590, Note_on_c, 9, 38, 0
6, 332750, Note_on_c, 9, 38, 62
6, 332956, Note_on_c, 9, 38, 0
6, 333755, Note_on_c, 9, 36, 30
6, 333812, Note_on_c, 9, 36, 0
6, 334125, Note_on_c, 9, 38, 51
6, 334564, Note_on_c, 9, 38, 0
6, 334683, Note_on_c, 9, 38, 51
6, 334902, Note_on_c, 9, 38, 0
6, 335622, Note_on_c, 9, 38, 54
6, 335949, Note_on_c, 9, 38, 0
6, 336593, Note_on_c, 9, 38, 58
6, 336780, Note_on_c, 9, 38, 0
6, 338617, Note_on_c, 9, 38, 60
6, 338882, Note_on_c, 9, 38, 0
6, 338954, Note_on_c, 9, 38, 39
6, 339274, Note_on_c, 9, 38, 0
6, 339552, Note_on_c, 9, 36, 29
6, 339606, Note_on_c, 9, 36, 0
6, 339906, Note_on_c, 9, 38, 39
6, 339987, Note_on_c, 9, 38, 0
6, 340537, Note_on_c, 9, 38, 58
6, 340644, Note_on_c, 9, 38, 0
6, 340883, Note_on_c, 9, 47, 73
6, 341039, Note_on_c, 9, 47, 0
6, 341149, Note_on_c, 9, 45, 70
6, 341246, Note_on_c, 9, 45, 0
6, 341469, Note_on_c, 9, 36, 70
6, 341593, Note_on_c, 9, 36, 0
6, 341802, Note_on_c, 9, 57, 87
6, 341809, Note_on_c, 9, 36, 67
6, 343457, Note_on_c, 9, 57, 0
6, 344019, Note_on_c, 9, 36, 0
6, 348130, Note_on_c, 9, 38, 40
6, 348209, Note_on_c, 9, 38, 0
6, 348479, Note_on_c, 9, 36, 24
6, 348641, Note_on_c, 9, 36, 0
6, 349089, Note_on_c, 9, 36, 46
6, 349312, Note_on_c, 9, 36, 0
6, 354280, Note_on_c, 9, 38, 25
6, 354339, Note_on_c, 9, 38, 0
6, 354907, Note_on_c, 9, 38, 38
6, 355026, Note_on_c, 9, 38, 0
6, 355514, Note_on_c, 9, 38, 40
6, 355686, Note_on_c, 9, 38, 0
6, 356131, Note_on_c, 9, 38, 39
6, 356296, Note_on_c, 9, 38, 0
6, 356789, Note_on_c, 9, 36, 67
6, 356790, Note_on_c, 9, 57, 62
6, 356911, Note_on_c, 9, 57, 0
6, 356974, Note_on_c, 9, 36, 0
6, 367352, Note_on_c, 9, 38, 34
6, 367428, Note_on_c, 9, 38, 0
6, 372111, Note_on_c, 9, 38, 39
6, 372314, Note_on_c, 9, 38, 0
6, 372416, Note_on_c, 9, 38, 32
6, 372773, Note_on_c, 9, 38, 0
6, 373026, Note_on_c, 9, 36, 34
6, 373139, Note_on_c, 9, 36, 0
6, 376969, Note_on_c, 9, 38, 45
6, 377090, Note_on_c, 9, 38, 0
6, 377962, Note_on_c, 9, 38, 40
6, 378146, Note_on_c, 9, 38, 0
6, 379806, Note_on_c, 9, 38, 41
6, 379970, Note_on_c, 9, 38, 0
6, 380147, Note_on_c, 9, 38, 27
6, 380578, Note_on_c, 9, 38, 0
6, 381138, Note_on_c, 9, 36, 32
6, 381257, Note_on_c, 9, 36, 0
6, 385957, Note_on_c, 9, 47, 37
6, 386034, Note_on_c, 9, 47, 0
6, 386252, Note_on_c, 9, 47, 42
6, 386318, Note_on_c, 9, 47, 0
6, 388434, Note_on_c, 9, 38, 20
6, 388502, Note_on_c, 9, 38, 0
6, 388764, Note_on_c, 9, 45, 25
6, 389166, Note_on_c, 9, 45, 0
6, 389349, Note_on_c, 9, 45, 34
6, 389483, Note_on_c, 9, 45, 0
6, 390293, Note_on_c, 9, 38, 27
6, 390360, Note_on_c, 9, 38, 0
6, 392520, Note_on_c, 9, 45, 37
6, 393029, Note_on_c, 9, 45, 0
6, 393154, Note_on_c, 9, 45, 44
6, 393225, Note_on_c, 9, 45, 0
6, 394202, Note_on_c, 9, 38, 28
6, 394264, Note_on_c, 9, 38, 0
6, 395170, Note_on_c, 9, 37, 37
6, 395322, Note_on_c, 9, 37, 0
6, 395478, Note_on_c, 9, 38, 50
6, 395928, Note_on_c, 9, 38, 0
6, 396095, Note_on_c, 9, 38, 38
6, 396232, Note_on_c, 9, 38, 0
6, 400682, Note_on_c, 9, 38, 13
6, 400792, Note_on_c, 9, 38, 0
6, 400909, Note_on_c, 9, 38, 45
6, 400993, Note_on_c, 9, 38, 0
6, 402473, Note_on_c, 9, 38, 22
6, 402663, Note_on_c, 9, 38, 0
6, 402818, Note_on_c, 9, 38, 37
6, 402969, Note_on_c, 9, 38, 0
6, 405173, Note_on_c, 9, 38, 20
6, 405265, Note_on_c, 9, 38, 0
6, 405413, Note_on_c, 9, 38, 29
6, 405650, Note_on_c, 9, 38, 0
6, 405742, Note_on_c, 9, 38, 69
6, 405961, Note_on_c, 9, 38, 0
6, 407407, Note_on_c, 9, 38, 40
6, 407481, Note_on_c, 9, 38, 0
6, 407701, Note_on_c, 9, 38, 26
6, 407882, Note_on_c, 9, 38, 0
6, 407987, Note_on_c, 9, 38, 56
6, 408118, Note_on_c, 9, 38, 0
6, 408332, Note_on_c, 9, 38, 40
6, 408404, Note_on_c, 9, 38, 0
6, 408700, Note_on_c, 9, 36, 51
6, 408774, Note_on_c, 9, 36, 0
6, 409381, Note_on_c, 9, 38, 45
6, 409509, Note_on_c, 9, 38, 0
6, 409683, Note_on_c, 9, 38, 43
6, 409756, Note_on_c, 9, 38, 0
6, 409976, Note_on_c, 9, 38, 44
6, 410176, Note_on_c, 9, 38, 0
6, 410602, Note_on_c, 9, 38, 66
6, 410634, Note_on_c, 9, 57, 66
6, 410669, Note_on_c, 9, 36, 69
6, 410831, Note_on_c, 9, 36, 0
6, 411427, Note_on_c, 9, 57, 0
6, 413681, Note_on_c, 9, 38, 0
6, 424940, Note_on_c, 9, 37, 48
6, 425066, Note_on_c, 9, 37, 0
6, 430682, Note_on_c, 9, 44, 32
6, 430879, Note_on_c, 9, 44, 0
6, 431281, Note_on_c, 9, 44, 30
6, 431610, Note_on_c, 9, 44, 0
6, 431909, Note_on_c, 9, 44, 33
6, 432260, Note_on_c, 9, 44, 0
6, 432524, Note_on_c, 9, 44, 31
6, 432722, Note_on_c, 9, 44, 0
6, 443536, Note_on_c, 9, 45, 43
6, 444027, Note_on_c, 9, 45, 0
6, 444148, Note_on_c, 9, 45, 43
6, 444218, Note_on_c, 9, 45, 0
6, 445143, Note_on_c, 9, 38, 28
6, 445235, Note_on_c, 9, 38, 0
6, 445470, Note_on_c, 9, 43, 24
6, 445937, Note_on_c, 9, 43, 0
6, 446100, Note_on_c, 9, 43, 32
6, 446190, Note_on_c, 9, 43, 0
6, 447078, Note_on_c, 9, 38, 46
6, 447139, Note_on_c, 9, 38, 0
6, 447387, Note_on_c, 9, 45, 80
6, 447510, Note_on_c, 9, 45, 0
6, 447990, Note_on_c, 9, 45, 92
6, 448128, Note_on_c, 9, 45, 0
6, 448317, Note_on_c, 9, 43, 67
6, 448402, Note_on_c, 9, 43, 0
6, 448622, Note_on_c, 9, 38, 67
6, 448716, Note_on_c, 9, 38, 0
6, 448920, Note_on_c, 9, 37, 88
6, 448947, Note_on_c, 9, 57, 94
6, 450069, Note_on_c, 9, 37, 0
6, 450151, Note_on_c, 9, 57, 0
6, 451793, Note_on_c, 9, 45, 66
6, 452014, Note_on_c, 9, 45, 0
6, 452753, Note_on_c, 9, 38, 35
6, 452933, Note_on_c, 9, 38, 0
6, 453121, Note_on_c, 9, 36, 33
6, 453697, Note_on_c, 9, 36, 0
6, 457281, Note_on_c, 9, 38, 35
6, 457362, Note_on_c, 9, 38, 0
6, 457895, Note_on_c, 9, 38, 27
6, 458120, Note_on_c, 9, 38, 0
6, 458502, Note_on_c, 9, 38, 31
6, 458581, Note_on_c, 9, 38, 0
6, 460836, Note_on_c, 9, 40, 9
6, 461196, Note_on_c, 9, 40, 0
6, 461841, Note_on_c, 9, 40, 20
6, 461973, Note_on_c, 9, 40, 0
6, 462093, Note_on_c, 9, 40, 32
6, 462158, Note_on_c, 9, 40, 0
6, 462350, Note_on_c, 9, 38, 36
6, 462486, Note_on_c, 9, 38, 0
6, 462986, Note_on_c, 9, 40, 36
6, 463061, Note_on_c, 9, 40, 0
6, 463278, Note_on_c, 9, 40, 35
6, 463364, Note_on_c, 9, 40, 0
6, 463947, Note_on_c, 9, 40, 34
6, 464045, Note_on_c, 9, 40, 0
6, 464278, Note_on_c, 9, 38, 35
6, 464388, Note_on_c, 9, 38, 0
6, 466910, Note_on_c, 9, 40, 33
6, 466981, Note_on_c, 9, 40, 0
6, 467144, Note_on_c, 9, 36, 35
6, 467357, Note_on_c, 9, 36, 0
6, 473857, Note_on_c, 9, 40, 36
6, 474075, Note_on_c, 9, 40, 0
6, 474189, Note_on_c, 9, 40, 16
6, 474717, Note_on_c, 9, 40, 0
6, 474761, Note_on_c, 9, 36, 35
6, 474973, Note_on_c, 9, 36, 0
6, 475114, Note_on_c, 9, 36, 49
6, 475304, Note_on_c, 9, 36, 0
6, 475752, Note_on_c, 9, 40, 39
6, 476017, Note_on_c, 9, 40, 0
6, 476146, Note_on_c, 9, 40, 34
6, 476610, Note_on_c, 9, 40, 0
6, 476727, Note_on_c, 9, 36, 41
6, 476909, Note_on_c, 9, 36, 0
6, 477081, Note_on_c, 9, 36, 32
6, 477181, Note_on_c, 9, 36, 0
6, 477666, Note_on_c, 9, 38, 51
6, 477798, Note_on_c, 9, 38, 0
6, 478606, Note_on_c, 9, 38, 82
6, 478927, Note_on_c, 9, 38, 0
6, 479255, Note_on_c, 9, 37, 68
6, 479355, Note_on_c, 9, 37, 0
6, 479519, Note_on_c, 9, 37, 71
6, 479673, Note_on_c, 9, 37, 0
6, 479855, Note_on_c, 9, 36, 72
6, 479860, Note_on_c, 9, 57, 76
6, 481846, Note_on_c, 9, 57, 0
6, 481946, Note_on_c, 9, 36, 0
6, 484520, Note_on_c, 9, 38, 32
6, 484681, Note_on_c, 9, 38, 0
6, 484851, Note_on_c, 9, 38, 24
6, 485293, Note_on_c, 9, 38, 0
6, 485804, Note_on_c, 9, 38, 24
6, 486245, Note_on_c, 9, 38, 0
6, 486395, Note_on_c, 9, 38, 33
6, 486504, Note_on_c, 9, 38, 0
6, 487265, Note_on_c, 9, 36, 35
6, 487398, Note_on_c, 9, 36, 0
6, 487642, Note_on_c, 9, 36, 26
6, 487769, Note_on_c, 9, 36, 0
6, 494987, Note_on_c, 9, 37, 47
6, 495238, Note_on_c, 9, 37, 0
6, 495327, Note_on_c, 9, 38, 31
6, 495572, Note_on_c, 9, 38, 0
6, 495906, Note_on_c, 9, 36, 54
6, 496105, Note_on_c, 9, 36, 0
6, 497305, Note_on_c, 9, 36, 46
6, 497502, Note_on_c, 9, 36, 0
6, 499205, Note_on_c, 9, 38, 34
6, 499675, Note_on_c, 9, 38, 0
6, 499829, Note_on_c, 9, 38, 33
6, 499931, Note_on_c, 9, 38, 0
6, 501129, Note_on_c, 9, 38, 40
6, 501596, Note_on_c, 9, 38, 0
6, 501715, Note_on_c, 9, 38, 45
6, 501849, Note_on_c, 9, 38, 0
6, 502669, Note_on_c, 9, 36, 39
6, 502742, Note_on_c, 9, 36, 0
6, 503027, Note_on_c, 9, 38, 62
6, 503035, Note_on_c, 9, 57, 68
6, 505119, Note_on_c, 9, 57, 0
6, 505426, Note_on_c, 9, 38, 0
6, 505426, End_track
0, 0, End_of_file
