0, 0, Header, 0, 1, 384
1, 0, Start_track
1, 0, Title_t, "untitled"
1, 0, System_exclusive, 5, 126, 127, 9, 1, 247
1, 1, System_exclusive, 8, 67, 16, 76, 0, 0, 126, 0, 247
1, 1, System_exclusive, 8, 67, 16, 76, 8, 15, 0, 1, 247
1, 1, System_exclusive, 8, 67, 16, 76, 8, 14, 0, 1, 247
1, 1, System_exclusive, 8, 67, 16, 76, 8, 13, 0, 1, 247
1, 1, System_exclusive, 8, 67, 16, 76, 8, 12, 0, 1, 247
1, 1, System_exclusive, 8, 67, 16, 76, 8, 11, 0, 1, 247
1, 1, System_exclusive, 8, 67, 16, 76, 8, 10, 0, 1, 247
1, 1, System_exclusive, 8, 67, 16, 76, 8, 9, 0, 0, 247
1, 1, System_exclusive, 8, 67, 16, 76, 8, 8, 0, 1, 247
1, 1, System_exclusive, 8, 67, 16, 76, 8, 7, 0, 1, 247
1, 1, System_exclusive, 8, 67, 16, 76, 8, 6, 0, 1, 247
1, 1, System_exclusive, 8, 67, 16, 76, 8, 5, 0, 1, 247
1, 1, System_exclusive, 8, 67, 16, 76, 8, 4, 0, 2, 247
1, 1, System_exclusive, 8, 67, 16, 76, 8, 3, 0, 2, 247
1, 1, System_exclusive, 8, 67, 16, 76, 8, 2, 0, 4, 247
1, 1, System_exclusive, 8, 67, 16, 76, 8, 1, 0, 4, 247
1, 1, System_exclusive, 8, 67, 16, 76, 8, 0, 0, 8, 247
1, 1, System_exclusive, 8, 67, 16, 76, 8, 0, 7, 0, 247
1, 1, System_exclusive, 8, 67, 16, 76, 8, 1, 7, 0, 247
1, 1, System_exclusive, 8, 67, 16, 76, 8, 2, 7, 0, 247
1, 1, System_exclusive, 8, 67, 16, 76, 8, 3, 7, 0, 247
1, 1, System_exclusive, 8, 67, 16, 76, 8, 4, 7, 0, 247
1, 1, System_exclusive, 8, 67, 16, 76, 8, 5, 7, 0, 247
1, 1, System_exclusive, 8, 67, 16, 76, 8, 6, 7, 0, 247
1, 1, System_exclusive, 8, 67, 16, 76, 8, 7, 7, 0, 247
1, 1, System_exclusive, 8, 67, 16, 76, 8, 8, 7, 0, 247
1, 1, System_exclusive, 8, 67, 16, 76, 8, 9, 7, 2, 247
1, 1, System_exclusive, 8, 67, 16, 76, 8, 10, 7, 0, 247
1, 1, System_exclusive, 8, 67, 16, 76, 8, 11, 7, 0, 247
1, 1, System_exclusive, 8, 67, 16, 76, 8, 12, 7, 0, 247
1, 1, System_exclusive, 8, 67, 16, 76, 8, 13, 7, 0, 247
1, 1, System_exclusive, 8, 67, 16, 76, 8, 14, 7, 0, 247
1, 1, System_exclusive, 8, 67, 16, 76, 8, 15, 7, 0, 247
1, 1, System_exclusive, 9, 67, 16, 76, 2, 1, 0, 1, 19, 247
1, 1, System_exclusive, 9, 67, 16, 76, 2, 1, 32, 65, 8, 247
1, 1, System_exclusive, 9, 67, 16, 76, 2, 1, 64, 5, 0, 247
1, 1, System_exclusive, 9, 67, 16, 76, 3, 0, 0, 3, 18, 247
1, 1, System_exclusive, 8, 67, 16, 76, 3, 0, 11, 1, 247
1, 1, System_exclusive, 8, 67, 16, 76, 3, 0, 12, 0, 247
1, 1, System_exclusive, 8, 67, 16, 76, 8, 0, 114, 64, 247
1, 1, System_exclusive, 8, 67, 16, 76, 8, 0, 115, 95, 247
1, 1, System_exclusive, 8, 67, 16, 76, 8, 0, 119, 46, 247
1, 1, System_exclusive, 8, 67, 16, 76, 8, 0, 12, 65, 247
1, 1, System_exclusive, 8, 67, 16, 76, 8, 0, 13, 61, 247
1, 1, Time_signature, 4, 2, 24, 8
1, 1, Key_signature, -3, "major"
1, 1, Tempo, 600000
1, 1, Sequencer_specific, 21, 67, 115, 10, 0, 5, 75, 79, 79, 79, 79, 79, 79, 79, 79, 79, 79, 79, 79, 79, 79, 79
1, 1, Sequencer_specific, 6, 67, 115, 10, 0, 4, 1
1, 1, Sequencer_specific, 9, 67, 123, 0, 88, 70, 48, 50, 0, 0
1, 385, Control_c, 0, 0, 0
1, 385, Control_c, 0, 32, 122
1, 385, Program_c, 0, 0
1, 386, Control_c, 0, 7, 127
1, 386, Control_c, 0, 10, 64
1, 386, Control_c, 0, 91, 10
1, 386, Control_c, 0, 93, 0
1, 1537, Tempo, 500000
1, 1547, Note_on_c, 0, 70, 40
1, 1559, Note_on_c, 0, 79, 60
1, 1587, Note_on_c, 0, 65, 47
1, 1587, Note_on_c, 0, 67, 36
1, 1595, Control_c, 0, 64, 127
1, 1791, Note_on_c, 0, 82, 53
1, 1815, Note_on_c, 0, 70, 0
1, 1923, Note_on_c, 0, 66, 24
1, 1963, Note_on_c, 0, 82, 0
1, 2087, Note_on_c, 0, 82, 60
1, 2111, Note_on_c, 0, 58, 43
1, 2903, Note_on_c, 0, 67, 0
1, 2955, Note_on_c, 0, 65, 0
1, 2983, Note_on_c, 0, 66, 0
1, 3399, Note_on_c, 0, 79, 0
1, 3747, Note_on_c, 0, 58, 0
1, 3767, Note_on_c, 0, 82, 0
1, 3843, Note_on_c, 0, 84, 87
1, 4023, Note_on_c, 0, 84, 0
1, 4155, Control_c, 0, 64, 0
1, 4163, Note_on_c, 0, 84, 83
1, 4199, Note_on_c, 0, 50, 44
1, 4199, Note_on_c, 0, 77, 42
1, 4203, Note_on_c, 0, 74, 46
1, 4299, Control_c, 0, 64, 127
1, 4403, Note_on_c, 0, 84, 0
1, 4435, Note_on_c, 0, 74, 0
1, 4451, Note_on_c, 0, 77, 0
1, 4479, Note_on_c, 0, 82, 72
1, 4499, Note_on_c, 0, 58, 45
1, 4563, Note_on_c, 0, 82, 0
1, 4823, Note_on_c, 0, 82, 62
1, 4855, Note_on_c, 0, 62, 41
1, 4867, Note_on_c, 0, 70, 30
1, 4867, Note_on_c, 0, 74, 48
1, 4943, Note_on_c, 0, 58, 0
1, 5215, Note_on_c, 0, 62, 0
1, 5311, Note_on_c, 0, 58, 29
1, 5695, Note_on_c, 0, 63, 62
1, 5899, Note_on_c, 0, 63, 0
1, 6031, Note_on_c, 0, 58, 0
1, 6067, Note_on_c, 0, 62, 35
1, 6099, Note_on_c, 0, 74, 0
1, 6155, Note_on_c, 0, 70, 0
1, 6159, Note_on_c, 0, 62, 0
1, 6259, Note_on_c, 0, 50, 0
1, 6307, Note_on_c, 0, 82, 0
1, 6499, Control_c, 0, 64, 0
1, 6515, Note_on_c, 0, 82, 70
1, 6547, Note_on_c, 0, 48, 45
1, 6551, Note_on_c, 0, 75, 57
1, 6555, Note_on_c, 0, 60, 38
1, 6563, Note_on_c, 0, 70, 37
1, 6651, Control_c, 0, 64, 127
1, 6755, Note_on_c, 0, 82, 0
1, 6867, Note_on_c, 0, 80, 93
1, 6875, Note_on_c, 0, 75, 0
1, 6895, Note_on_c, 0, 56, 50
1, 6919, Note_on_c, 0, 70, 0
1, 6935, Note_on_c, 0, 60, 0
1, 7127, Note_on_c, 0, 80, 0
1, 7259, Note_on_c, 0, 80, 67
1, 7267, Note_on_c, 0, 60, 43
1, 7287, Note_on_c, 0, 68, 37
1, 7295, Note_on_c, 0, 72, 44
1, 7523, Note_on_c, 0, 48, 0
1, 7635, Note_on_c, 0, 80, 0
1, 7751, Note_on_c, 0, 68, 0
1, 7915, Note_on_c, 0, 79, 58
1, 7923, Note_on_c, 0, 48, 44
1, 7955, Note_on_c, 0, 60, 0
1, 8051, Note_on_c, 0, 48, 0
1, 8063, Note_on_c, 0, 79, 0
1, 8067, Note_on_c, 0, 72, 0
1, 8139, Note_on_c, 0, 56, 0
1, 8675, Note_on_c, 0, 80, 76
1, 8703, Note_on_c, 0, 78, 48
1, 8739, Note_on_c, 0, 78, 0
1, 8739, Note_on_c, 0, 71, 70
1, 8743, Control_c, 0, 64, 0
1, 8767, Note_on_c, 0, 47, 44
1, 8775, Note_on_c, 0, 59, 29
1, 8791, Note_on_c, 0, 68, 46
1, 8955, Control_c, 0, 64, 127
1, 9111, Note_on_c, 0, 71, 0
1, 9167, Note_on_c, 0, 80, 0
1, 9203, Note_on_c, 0, 68, 0
1, 9255, Note_on_c, 0, 59, 0
1, 9295, Note_on_c, 0, 56, 45
1, 9315, Note_on_c, 0, 82, 68
1, 9423, Note_on_c, 0, 56, 0
1, 9459, Note_on_c, 0, 47, 0
1, 9515, Note_on_c, 0, 82, 0
1, 10159, Control_c, 0, 64, 0
1, 10187, Note_on_c, 0, 80, 76
1, 10203, Note_on_c, 0, 75, 68
1, 10211, Note_on_c, 0, 46, 48
1, 10299, Control_c, 0, 64, 127
1, 10499, Note_on_c, 0, 80, 0
1, 10507, Note_on_c, 0, 75, 0
1, 10631, Note_on_c, 0, 79, 58
1, 10643, Note_on_c, 0, 55, 43
1, 10647, Note_on_c, 0, 67, 29
1, 10735, Note_on_c, 0, 46, 0
1, 10895, Note_on_c, 0, 67, 0
1, 10919, Note_on_c, 0, 79, 0
1, 11079, Note_on_c, 0, 55, 0
1, 11099, Note_on_c, 0, 58, 49
1, 11099, Note_on_c, 0, 79, 50
1, 11107, Note_on_c, 0, 67, 33
1, 11567, Note_on_c, 0, 62, 57
1, 11991, Note_on_c, 0, 62, 0
1, 11995, Note_on_c, 0, 63, 71
1, 12015, Note_on_c, 0, 67, 0
1, 12215, Note_on_c, 0, 79, 0
1, 12443, Note_on_c, 0, 67, 61
1, 12531, Note_on_c, 0, 63, 0
1, 12643, Note_on_c, 0, 58, 0
1, 12647, Note_on_c, 0, 67, 0
1, 13043, Control_c, 0, 64, 0
1, 13059, Note_on_c, 0, 65, 79
1, 13075, Note_on_c, 0, 63, 62
1, 13079, Note_on_c, 0, 46, 55
1, 13087, Note_on_c, 0, 56, 35
1, 13087, Note_on_c, 0, 60, 55
1, 13123, Note_on_c, 0, 53, 28
1, 13251, Control_c, 0, 64, 127
1, 13519, Note_on_c, 0, 56, 0
1, 13575, Note_on_c, 0, 67, 84
1, 13599, Note_on_c, 0, 56, 41
1, 13647, Note_on_c, 0, 56, 0
1, 13691, Note_on_c, 0, 60, 0
1, 13707, Note_on_c, 0, 67, 0
1, 13751, Note_on_c, 0, 65, 0
1, 13811, Note_on_c, 0, 63, 0
1, 13947, Note_on_c, 0, 68, 82
1, 13959, Note_on_c, 0, 63, 76
1, 13963, Note_on_c, 0, 60, 69
1, 13963, Note_on_c, 0, 56, 51
1, 13975, Control_c, 0, 64, 0
1, 14071, Note_on_c, 0, 60, 0
1, 14075, Control_c, 0, 64, 127
1, 14111, Note_on_c, 0, 68, 0
1, 14135, Note_on_c, 0, 63, 0
1, 14239, Note_on_c, 0, 56, 0
1, 14307, Note_on_c, 0, 72, 93
1, 14323, Note_on_c, 0, 56, 51
1, 14415, Note_on_c, 0, 72, 0
1, 14519, Note_on_c, 0, 46, 0
1, 14723, Note_on_c, 0, 53, 0
1, 14751, Note_on_c, 0, 68, 68
1, 14759, Note_on_c, 0, 60, 56
1, 14771, Control_c, 0, 64, 0
1, 14775, Note_on_c, 0, 63, 57
1, 14775, Note_on_c, 0, 46, 39
1, 14795, Note_on_c, 0, 65, 51
1, 14927, Control_c, 0, 64, 127
1, 15019, Note_on_c, 0, 65, 0
1, 15179, Note_on_c, 0, 63, 0
1, 15787, Note_on_c, 0, 65, 50
1, 16099, Note_on_c, 0, 68, 0
1, 16123, Note_on_c, 0, 56, 0
1, 16139, Note_on_c, 0, 65, 0
1, 16211, Note_on_c, 0, 60, 0
1, 16211, Note_on_c, 0, 46, 0
1, 16479, Control_c, 0, 64, 0
1, 16507, Note_on_c, 0, 65, 58
1, 16515, Note_on_c, 0, 55, 47
1, 16523, Note_on_c, 0, 46, 40
1, 16531, Note_on_c, 0, 58, 44
1, 16535, Note_on_c, 0, 62, 52
1, 16667, Control_c, 0, 64, 127
1, 16875, Note_on_c, 0, 65, 0
1, 16903, Note_on_c, 0, 62, 0
1, 16947, Note_on_c, 0, 63, 80
1, 17055, Note_on_c, 0, 55, 0
1, 17171, Note_on_c, 0, 58, 0
1, 17219, Note_on_c, 0, 63, 0
1, 17379, Note_on_c, 0, 63, 58
1, 17391, Note_on_c, 0, 58, 51
1, 17395, Note_on_c, 0, 55, 47
1, 17655, Note_on_c, 0, 46, 0
1, 17839, Note_on_c, 0, 46, 72
1, 17851, Note_on_c, 0, 55, 0
1, 18075, Note_on_c, 0, 58, 0
1, 18211, Note_on_c, 0, 63, 0
1, 18323, Note_on_c, 0, 54, 60
1, 18327, Control_c, 0, 64, 0
1, 18343, Note_on_c, 0, 53, 51
1, 18355, Note_on_c, 0, 57, 67
1, 18359, Note_on_c, 0, 65, 88
1, 18363, Note_on_c, 0, 60, 67
1, 18363, Note_on_c, 0, 58, 57
1, 18383, Note_on_c, 0, 61, 50
1, 18391, Note_on_c, 0, 63, 57
1, 18563, Control_c, 0, 64, 127
1, 18611, Note_on_c, 0, 61, 0
1, 18735, Note_on_c, 0, 46, 0
1, 18831, Note_on_c, 0, 53, 0
1, 18887, Note_on_c, 0, 46, 98
1, 19079, Note_on_c, 0, 65, 0
1, 19087, Note_on_c, 0, 58, 0
1, 19143, Note_on_c, 0, 46, 0
1, 19283, Note_on_c, 0, 63, 0
1, 19295, Note_on_c, 0, 57, 0
1, 19343, Note_on_c, 0, 54, 0
1, 19367, Note_on_c, 0, 60, 0
1, 19407, Note_on_c, 0, 63, 80
1, 19407, Note_on_c, 0, 46, 80
1, 19415, Control_c, 0, 64, 0
1, 19415, Note_on_c, 0, 34, 68
1, 19423, Note_on_c, 0, 56, 76
1, 19423, Note_on_c, 0, 53, 79
1, 19431, Note_on_c, 0, 60, 74
1, 19587, Control_c, 0, 64, 127
1, 19859, Note_on_c, 0, 60, 0
1, 19895, Note_on_c, 0, 63, 0
1, 19963, Note_on_c, 0, 62, 83
1, 20295, Note_on_c, 0, 46, 0
1, 20315, Note_on_c, 0, 62, 0
1, 20319, Note_on_c, 0, 53, 0
1, 20387, Note_on_c, 0, 56, 0
1, 20819, Note_on_c, 0, 34, 0
1, 21039, Note_on_c, 0, 34, 60
1, 21775, Control_c, 0, 64, 0
1, 21807, Note_on_c, 0, 62, 54
1, 21811, Note_on_c, 0, 56, 44
1, 21815, Note_on_c, 0, 53, 38
1, 21819, Note_on_c, 0, 59, 58
1, 21827, Note_on_c, 0, 46, 39
1, 21947, Control_c, 0, 64, 127
1, 22307, Note_on_c, 0, 53, 0
1, 22379, Note_on_c, 0, 56, 0
1, 22527, Note_on_c, 0, 59, 0
1, 22799, Note_on_c, 0, 62, 0
1, 22807, Note_on_c, 0, 58, 57
1, 22835, Note_on_c, 0, 34, 0
1, 22907, Note_on_c, 0, 46, 0
1, 23047, Note_on_c, 0, 58, 0
1, 24019, Note_on_c, 0, 67, 44
1, 24095, Note_on_c, 0, 67, 0
1, 24107, Note_on_c, 0, 66, 64
1, 24191, Note_on_c, 0, 66, 0
1, 24203, Control_c, 0, 64, 0
1, 24223, Note_on_c, 0, 67, 61
1, 24235, Note_on_c, 0, 39, 52
1, 24343, Control_c, 0, 64, 127
1, 24471, Note_on_c, 0, 67, 0
1, 24495, Note_on_c, 0, 39, 0
1, 24507, Note_on_c, 0, 46, 48
1, 24515, Note_on_c, 0, 74, 56
1, 24555, Note_on_c, 0, 74, 0
1, 24771, Note_on_c, 0, 46, 0
1, 24807, Note_on_c, 0, 55, 53
1, 24815, Note_on_c, 0, 79, 69
1, 25143, Note_on_c, 0, 86, 65
1, 25147, Note_on_c, 0, 55, 0
1, 25159, Note_on_c, 0, 79, 0
1, 25159, Note_on_c, 0, 58, 48
1, 25255, Note_on_c, 0, 58, 0
1, 25503, Note_on_c, 0, 86, 0
1, 25547, Note_on_c, 0, 84, 64
1, 25563, Note_on_c, 0, 60, 42
1, 25571, Note_on_c, 0, 63, 42
1, 25579, Note_on_c, 0, 68, 23
1, 25879, Note_on_c, 0, 84, 0
1, 26055, Note_on_c, 0, 87, 61
1, 26059, Note_on_c, 0, 58, 51
1, 26115, Note_on_c, 0, 60, 0
1, 26215, Note_on_c, 0, 68, 0
1, 26239, Note_on_c, 0, 63, 0
1, 26303, Note_on_c, 0, 58, 0
1, 26567, Note_on_c, 0, 91, 70
1, 26583, Note_on_c, 0, 87, 0
1, 26587, Control_c, 0, 64, 0
1, 26619, Note_on_c, 0, 79, 56
1, 26635, Note_on_c, 0, 51, 37
1, 26735, Control_c, 0, 64, 127
1, 26815, Note_on_c, 0, 91, 0
1, 26839, Note_on_c, 0, 79, 0
1, 27071, Note_on_c, 0, 94, 71
1, 27107, Note_on_c, 0, 58, 39
1, 27119, Note_on_c, 0, 82, 46
1, 27439, Note_on_c, 0, 94, 0
1, 27447, Note_on_c, 0, 58, 0
1, 27463, Note_on_c, 0, 82, 0
1, 27555, Note_on_c, 0, 94, 70
1, 27591, Note_on_c, 0, 59, 42
1, 27615, Note_on_c, 0, 82, 50
1, 27983, Note_on_c, 0, 59, 0
1, 27983, Control_c, 0, 64, 88
1, 27983, Control_c, 0, 64, 0
1, 27987, Note_on_c, 0, 60, 72
1, 28103, Control_c, 0, 64, 127
1, 28307, Note_on_c, 0, 60, 0
1, 28407, Note_on_c, 0, 62, 78
1, 28603, Note_on_c, 0, 62, 0
1, 28807, Note_on_c, 0, 63, 67
1, 28931, Note_on_c, 0, 82, 0
1, 28939, Note_on_c, 0, 63, 0
1, 28963, Note_on_c, 0, 94, 0
1, 29175, Note_on_c, 0, 51, 0
1, 29207, Control_c, 0, 64, 0
1, 29223, Note_on_c, 0, 96, 72
1, 29235, Note_on_c, 0, 50, 60
1, 29247, Note_on_c, 0, 84, 44
1, 29363, Control_c, 0, 64, 127
1, 29519, Note_on_c, 0, 84, 0
1, 29535, Note_on_c, 0, 96, 0
1, 29619, Note_on_c, 0, 58, 48
1, 29619, Note_on_c, 0, 94, 55
1, 29643, Note_on_c, 0, 92, 35
1, 29683, Note_on_c, 0, 92, 0
1, 29755, Note_on_c, 0, 94, 0
1, 29983, Note_on_c, 0, 94, 65
1, 29995, Note_on_c, 0, 62, 52
1, 30023, Note_on_c, 0, 82, 51
1, 30035, Note_on_c, 0, 58, 0
1, 30087, Note_on_c, 0, 94, 0
1, 30159, Note_on_c, 0, 82, 0
1, 30383, Note_on_c, 0, 69, 70
1, 30415, Note_on_c, 0, 62, 0
1, 30423, Note_on_c, 0, 58, 40
1, 30763, Note_on_c, 0, 69, 0
1, 30767, Note_on_c, 0, 70, 77
1, 30787, Note_on_c, 0, 62, 38
1, 30895, Note_on_c, 0, 50, 0
1, 30939, Note_on_c, 0, 62, 0
1, 31135, Note_on_c, 0, 70, 0
1, 31139, Note_on_c, 0, 72, 70
1, 31159, Note_on_c, 0, 50, 44
1, 31231, Note_on_c, 0, 58, 0
1, 31275, Note_on_c, 0, 50, 0
1, 31339, Note_on_c, 0, 72, 0
1, 31575, Note_on_c, 0, 70, 72
1, 31583, Control_c, 0, 64, 0
1, 31595, Note_on_c, 0, 48, 44
1, 31795, Control_c, 0, 64, 127
1, 31971, Note_on_c, 0, 56, 41
1, 31979, Note_on_c, 0, 60, 49
1, 32343, Note_on_c, 0, 60, 0
1, 32387, Note_on_c, 0, 63, 58
1, 32387, Note_on_c, 0, 60, 24
1, 32615, Note_on_c, 0, 48, 0
1, 32691, Note_on_c, 0, 70, 0
1, 32759, Note_on_c, 0, 60, 0
1, 32783, Note_on_c, 0, 68, 58
1, 32815, Note_on_c, 0, 48, 28
1, 32875, Note_on_c, 0, 48, 0
1, 32963, Note_on_c, 0, 56, 0
1, 33027, Note_on_c, 0, 63, 0
1, 33135, Note_on_c, 0, 68, 0
1, 33211, Control_c, 0, 64, 0
1, 33227, Note_on_c, 0, 68, 49
1, 33239, Note_on_c, 0, 56, 39
1, 33239, Note_on_c, 0, 59, 55
1, 33251, Note_on_c, 0, 63, 53
1, 33255, Note_on_c, 0, 47, 47
1, 33375, Control_c, 0, 64, 127
1, 33699, Note_on_c, 0, 70, 65
1, 33831, Note_on_c, 0, 47, 0
1, 33907, Note_on_c, 0, 59, 0
1, 33983, Note_on_c, 0, 56, 0
1, 33999, Note_on_c, 0, 70, 0
1, 34007, Note_on_c, 0, 68, 0
1, 34015, Note_on_c, 0, 63, 0
1, 34087, Control_c, 0, 64, 0
1, 34139, Note_on_c, 0, 63, 58
1, 34147, Note_on_c, 0, 46, 47
1, 34155, Note_on_c, 0, 68, 56
1, 34263, Control_c, 0, 64, 127
1, 34403, Note_on_c, 0, 68, 0
1, 34459, Note_on_c, 0, 63, 0
1, 34519, Note_on_c, 0, 67, 63
1, 34527, Note_on_c, 0, 63, 61
1, 34531, Note_on_c, 0, 58, 52
1, 34547, Note_on_c, 0, 55, 40
1, 34811, Note_on_c, 0, 67, 0
1, 34831, Note_on_c, 0, 58, 0
1, 34879, Note_on_c, 0, 63, 0
1, 34895, Note_on_c, 0, 58, 51
1, 34899, Note_on_c, 0, 67, 63
1, 34915, Note_on_c, 0, 63, 33
1, 35199, Note_on_c, 0, 55, 0
1, 35223, Control_c, 0, 64, 0
1, 35247, Note_on_c, 0, 51, 77
1, 35611, Note_on_c, 0, 51, 0
1, 35631, Note_on_c, 0, 53, 51
1, 35751, Control_c, 0, 64, 127
1, 35855, Note_on_c, 0, 53, 0
1, 36023, Note_on_c, 0, 55, 55
1, 36115, Note_on_c, 0, 58, 0
1, 36143, Note_on_c, 0, 55, 0
1, 36247, Note_on_c, 0, 63, 0
1, 36291, Note_on_c, 0, 67, 0
1, 36479, Control_c, 0, 64, 0
1, 36483, Note_on_c, 0, 68, 57
1, 36507, Note_on_c, 0, 63, 54
1, 36515, Note_on_c, 0, 60, 44
1, 36515, Note_on_c, 0, 56, 48
1, 36775, Control_c, 0, 64, 127
1, 36987, Note_on_c, 0, 46, 0
1, 37059, Note_on_c, 0, 46, 51
1, 37991, Note_on_c, 0, 60, 0
1, 38343, Note_on_c, 0, 63, 0
1, 38375, Note_on_c, 0, 68, 0
1, 38443, Note_on_c, 0, 65, 68
1, 38703, Note_on_c, 0, 67, 86
1, 38743, Note_on_c, 0, 65, 0
1, 38835, Note_on_c, 0, 67, 0
1, 38995, Note_on_c, 0, 68, 89
1, 39007, Note_on_c, 0, 63, 78
1, 39095, Note_on_c, 0, 63, 0
1, 39175, Note_on_c, 0, 68, 0
1, 39255, Note_on_c, 0, 72, 93
1, 39355, Note_on_c, 0, 72, 0
1, 39603, Note_on_c, 0, 68, 89
1, 40055, Note_on_c, 0, 56, 0
1, 40335, Note_on_c, 0, 46, 0
1, 40515, Note_on_c, 0, 68, 0
1, 40543, Note_on_c, 0, 65, 55
1, 40779, Note_on_c, 0, 65, 0
1, 41319, Control_c, 0, 64, 0
1, 41411, Note_on_c, 0, 65, 54
1, 41415, Note_on_c, 0, 58, 51
1, 41423, Note_on_c, 0, 55, 43
1, 41431, Note_on_c, 0, 46, 43
1, 41663, Control_c, 0, 64, 127
1, 41839, Note_on_c, 0, 65, 0
1, 41879, Note_on_c, 0, 63, 67
1, 42155, Note_on_c, 0, 63, 0
1, 42407, Note_on_c, 0, 63, 52
1, 42439, Note_on_c, 0, 46, 0
1, 42627, Note_on_c, 0, 55, 0
1, 42931, Note_on_c, 0, 46, 56
1, 43011, Note_on_c, 0, 58, 0
1, 43059, Note_on_c, 0, 63, 0
1, 43271, Note_on_c, 0, 46, 0
1, 43531, Note_on_c, 0, 46, 61
1, 43643, Note_on_c, 0, 66, 58
1, 43651, Note_on_c, 0, 53, 41
1, 43679, Note_on_c, 0, 69, 67
1, 43707, Control_c, 0, 64, 0
1, 43719, Note_on_c, 0, 72, 52
1, 43735, Note_on_c, 0, 77, 82
1, 43839, Control_c, 0, 64, 127
1, 44331, Note_on_c, 0, 77, 0
1, 44503, Note_on_c, 0, 72, 0
1, 44531, Note_on_c, 0, 69, 0
1, 44563, Note_on_c, 0, 66, 0
1, 44703, Note_on_c, 0, 75, 65
1, 44723, Note_on_c, 0, 46, 0
1, 44783, Note_on_c, 0, 75, 0
1, 44843, Note_on_c, 0, 74, 68
1, 44959, Note_on_c, 0, 74, 0
1, 44983, Control_c, 0, 64, 0
1, 45027, Note_on_c, 0, 53, 0
1, 45039, Note_on_c, 0, 46, 47
1, 45039, Note_on_c, 0, 75, 56
1, 45047, Note_on_c, 0, 68, 46
1, 45163, Control_c, 0, 64, 127
1, 45367, Note_on_c, 0, 75, 0
1, 45487, Note_on_c, 0, 68, 0
1, 45519, Note_on_c, 0, 74, 66
1, 45547, Note_on_c, 0, 56, 36
1, 45747, Note_on_c, 0, 46, 0
1, 45831, Note_on_c, 0, 56, 0
1, 45831, Note_on_c, 0, 74, 0
1, 46055, Note_on_c, 0, 74, 64
1, 46091, Note_on_c, 0, 58, 45
1, 46507, Note_on_c, 0, 58, 0
1, 46527, Note_on_c, 0, 59, 58
1, 47031, Note_on_c, 0, 67, 43
1, 47063, Note_on_c, 0, 62, 19
1, 47255, Note_on_c, 0, 62, 0
1, 47619, Note_on_c, 0, 67, 0
1, 47835, Note_on_c, 0, 59, 0
1, 48195, Note_on_c, 0, 74, 0
1, 48219, Note_on_c, 0, 70, 52
1, 48419, Control_c, 0, 64, 0
1, 48439, Note_on_c, 0, 75, 85
1, 48451, Note_on_c, 0, 70, 0
1, 48455, Note_on_c, 0, 39, 53
1, 48567, Control_c, 0, 64, 127
1, 48707, Note_on_c, 0, 39, 0
1, 48715, Note_on_c, 0, 46, 62
1, 48907, Note_on_c, 0, 46, 0
1, 48963, Note_on_c, 0, 55, 66
1, 49255, Note_on_c, 0, 58, 58
1, 49283, Note_on_c, 0, 55, 0
1, 49631, Note_on_c, 0, 67, 46
1, 49643, Note_on_c, 0, 62, 40
1, 49807, Note_on_c, 0, 62, 0
1, 49907, Note_on_c, 0, 67, 0
1, 50391, Note_on_c, 0, 58, 0
1, 50531, Note_on_c, 0, 66, 45
1, 50599, Note_on_c, 0, 75, 0
1, 50771, Note_on_c, 0, 66, 0
1, 51355, Control_c, 0, 64, 0
1, 51383, Note_on_c, 0, 74, 35
1, 51391, Note_on_c, 0, 67, 41
1, 51391, Note_on_c, 0, 62, 43
1, 51399, Note_on_c, 0, 55, 38
1, 51411, Note_on_c, 0, 43, 37
1, 51555, Control_c, 0, 64, 127
1, 51695, Note_on_c, 0, 62, 0
1, 51843, Note_on_c, 0, 55, 0
1, 51855, Note_on_c, 0, 74, 0
1, 51887, Note_on_c, 0, 67, 0
1, 51895, Note_on_c, 0, 43, 0
1, 51947, Note_on_c, 0, 62, 61
1, 52207, Note_on_c, 0, 62, 0
1, 52247, Note_on_c, 0, 67, 69
1, 52523, Note_on_c, 0, 67, 0
1, 52543, Note_on_c, 0, 70, 85
1, 52547, Note_on_c, 0, 66, 62
1, 52551, Control_c, 0, 64, 0
1, 52691, Control_c, 0, 64, 127
1, 52855, Note_on_c, 0, 65, 67
1, 52859, Note_on_c, 0, 70, 0
1, 52859, Note_on_c, 0, 74, 94
1, 52863, Control_c, 0, 64, 0
1, 52867, Note_on_c, 0, 66, 0
1, 52967, Control_c, 0, 64, 127
1, 53167, Note_on_c, 0, 70, 74
1, 53403, Note_on_c, 0, 65, 0
1, 53471, Note_on_c, 0, 67, 70
1, 53479, Note_on_c, 0, 64, 50
1, 53527, Note_on_c, 0, 70, 0
1, 53571, Note_on_c, 0, 74, 0
1, 53731, Control_c, 0, 64, 88
1, 53735, Control_c, 0, 64, 0
1, 53783, Note_on_c, 0, 64, 0
1, 53799, Note_on_c, 0, 67, 0
1, 53811, Note_on_c, 0, 63, 49
1, 53819, Note_on_c, 0, 65, 64
1, 53855, Control_c, 0, 64, 127
1, 53975, Note_on_c, 0, 63, 0
1, 54151, Note_on_c, 0, 63, 57
1, 54155, Note_on_c, 0, 65, 0
1, 54163, Note_on_c, 0, 55, 57
1, 54175, Control_c, 0, 64, 0
1, 54247, Control_c, 0, 64, 127
1, 54459, Control_c, 0, 64, 0
1, 54471, Note_on_c, 0, 55, 0
1, 54483, Note_on_c, 0, 63, 0
1, 54483, Note_on_c, 0, 48, 58
1, 54531, Control_c, 0, 64, 127
1, 54839, Note_on_c, 0, 74, 65
1, 54867, Note_on_c, 0, 48, 0
1, 54867, Note_on_c, 0, 55, 53
1, 54883, Note_on_c, 0, 67, 44
1, 54919, Note_on_c, 0, 63, 48
1, 55039, Note_on_c, 0, 67, 0
1, 55051, Note_on_c, 0, 63, 0
1, 55067, Note_on_c, 0, 74, 0
1, 55239, Note_on_c, 0, 77, 60
1, 55251, Note_on_c, 0, 55, 0
1, 55259, Note_on_c, 0, 62, 46
1, 55315, Note_on_c, 0, 62, 0
1, 55695, Note_on_c, 0, 70, 46
1, 55715, Note_on_c, 0, 74, 52
1, 55719, Note_on_c, 0, 63, 31
1, 55735, Note_on_c, 0, 67, 29
1, 55735, Note_on_c, 0, 65, 40
1, 56079, Note_on_c, 0, 67, 0
1, 56103, Note_on_c, 0, 65, 0
1, 56259, Note_on_c, 0, 63, 0
1, 56351, Note_on_c, 0, 77, 0
1, 56351, Note_on_c, 0, 70, 0
1, 56535, Note_on_c, 0, 74, 0
1, 56695, Note_on_c, 0, 77, 77
1, 56811, Note_on_c, 0, 77, 0
1, 56827, Control_c, 0, 64, 56
1, 56827, Control_c, 0, 64, 0
1, 56855, Note_on_c, 0, 75, 86
1, 56863, Note_on_c, 0, 43, 59
1, 56959, Control_c, 0, 64, 127
1, 57019, Note_on_c, 0, 73, 27
1, 57131, Note_on_c, 0, 50, 53
1, 57355, Note_on_c, 0, 73, 0
1, 57387, Note_on_c, 0, 43, 0
1, 57391, Note_on_c, 0, 50, 0
1, 57391, Note_on_c, 0, 63, 56
1, 57411, Note_on_c, 0, 55, 57
1, 57415, Note_on_c, 0, 67, 48
1, 57659, Note_on_c, 0, 58, 64
1, 57719, Note_on_c, 0, 55, 0
1, 57775, Note_on_c, 0, 67, 0
1, 57871, Note_on_c, 0, 63, 0
1, 57947, Note_on_c, 0, 75, 0
1, 57959, Note_on_c, 0, 67, 59
1, 58235, Note_on_c, 0, 74, 71
1, 58275, Note_on_c, 0, 62, 30
1, 58379, Note_on_c, 0, 73, 1
1, 58383, Note_on_c, 0, 74, 0
1, 58495, Note_on_c, 0, 73, 0
1, 58503, Note_on_c, 0, 67, 0
1, 58527, Control_c, 0, 64, 0
1, 58535, Note_on_c, 0, 58, 0
1, 58539, Note_on_c, 0, 62, 0
1, 58539, Note_on_c, 0, 74, 76
1, 58543, Note_on_c, 0, 55, 59
1, 58679, Control_c, 0, 64, 127
1, 58919, Note_on_c, 0, 58, 41
1, 59275, Note_on_c, 0, 58, 0
1, 59291, Note_on_c, 0, 62, 50
1, 59311, Note_on_c, 0, 67, 47
1, 59751, Note_on_c, 0, 61, 45
1, 60263, Note_on_c, 0, 61, 0
1, 60267, Note_on_c, 0, 62, 43
1, 60939, Note_on_c, 0, 55, 0
1, 61051, Note_on_c, 0, 55, 46
1, 61187, Note_on_c, 0, 62, 0
1, 61347, Note_on_c, 0, 67, 0
1, 61375, Note_on_c, 0, 74, 0
1, 61387, Note_on_c, 0, 62, 0
1, 61451, Note_on_c, 0, 55, 0
1, 62119, Note_on_c, 0, 58, 55
1, 62119, Control_c, 0, 64, 72
1, 62123, Control_c, 0, 64, 0
1, 62127, Note_on_c, 0, 43, 45
1, 62135, Note_on_c, 0, 55, 43
1, 62143, Note_on_c, 0, 62, 51
1, 62159, Note_on_c, 0, 50, 41
1, 62263, Note_on_c, 0, 55, 0
1, 62287, Control_c, 0, 64, 127
1, 62319, Note_on_c, 0, 62, 0
1, 62319, Note_on_c, 0, 58, 0
1, 62439, Note_on_c, 0, 43, 0
1, 62443, Note_on_c, 0, 67, 63
1, 62451, Note_on_c, 0, 58, 60
1, 62475, Note_on_c, 0, 50, 0
1, 62475, Note_on_c, 0, 55, 60
1, 62483, Note_on_c, 0, 58, 0
1, 62503, Note_on_c, 0, 62, 39
1, 62531, Note_on_c, 0, 67, 0
1, 62539, Note_on_c, 0, 62, 0
1, 62723, Note_on_c, 0, 70, 76
1, 62735, Note_on_c, 0, 58, 65
1, 62767, Note_on_c, 0, 55, 0
1, 62807, Note_on_c, 0, 70, 0
1, 63007, Note_on_c, 0, 74, 98
1, 63027, Note_on_c, 0, 62, 67
1, 63059, Note_on_c, 0, 58, 0
1, 63247, Note_on_c, 0, 74, 0
1, 63331, Note_on_c, 0, 70, 78
1, 63343, Note_on_c, 0, 58, 51
1, 63387, Note_on_c, 0, 62, 0
1, 63731, Note_on_c, 0, 58, 0
1, 63887, Note_on_c, 0, 70, 0
1, 63967, Note_on_c, 0, 67, 73
1, 64231, Note_on_c, 0, 67, 0
1, 64375, Control_c, 0, 64, 0
1, 64423, Note_on_c, 0, 58, 48
1, 64431, Note_on_c, 0, 48, 45
1, 64435, Note_on_c, 0, 65, 83
1, 64607, Control_c, 0, 64, 127
1, 64811, Note_on_c, 0, 65, 0
1, 64835, Note_on_c, 0, 67, 60
1, 64903, Note_on_c, 0, 65, 56
1, 64919, Note_on_c, 0, 67, 0
1, 65031, Note_on_c, 0, 65, 0
1, 65035, Note_on_c, 0, 62, 62
1, 65159, Note_on_c, 0, 62, 0
1, 65167, Note_on_c, 0, 65, 76
1, 65331, Note_on_c, 0, 62, 55
1, 65479, Note_on_c, 0, 65, 0
1, 65523, Note_on_c, 0, 62, 0
1, 65543, Control_c, 0, 64, 0
1, 65579, Note_on_c, 0, 63, 63
1, 65603, Note_on_c, 0, 55, 54
1, 65719, Control_c, 0, 64, 127
1, 65811, Note_on_c, 0, 55, 0
1, 65815, Note_on_c, 0, 58, 0
1, 65847, Note_on_c, 0, 48, 0
1, 66607, Note_on_c, 0, 63, 0
1, 66623, Note_on_c, 0, 24, 72
1, 66851, Note_on_c, 0, 24, 0
1, 67539, Note_on_c, 0, 86, 109
1, 67551, Note_on_c, 0, 81, 102
1, 67551, Note_on_c, 0, 74, 92
1, 67555, Note_on_c, 0, 58, 85
1, 67555, Note_on_c, 0, 64, 80
1, 67555, Note_on_c, 0, 69, 86
1, 67611, Control_c, 0, 64, 0
1, 67691, Control_c, 0, 64, 127
1, 68039, Note_on_c, 0, 86, 0
1, 68063, Note_on_c, 0, 69, 0
1, 68103, Note_on_c, 0, 64, 0
1, 68139, Note_on_c, 0, 86, 92
1, 68163, Note_on_c, 0, 58, 0
1, 68295, Note_on_c, 0, 86, 0
1, 68311, Note_on_c, 0, 81, 0
1, 68383, Note_on_c, 0, 74, 0
1, 68647, Note_on_c, 0, 84, 94
1, 68663, Control_c, 0, 64, 0
1, 68663, Note_on_c, 0, 63, 67
1, 68667, Note_on_c, 0, 79, 90
1, 68687, Note_on_c, 0, 53, 51
1, 68687, Note_on_c, 0, 72, 68
1, 68687, Note_on_c, 0, 58, 57
1, 68831, Control_c, 0, 64, 127
1, 68991, Note_on_c, 0, 84, 0
1, 69023, Note_on_c, 0, 72, 0
1, 69083, Note_on_c, 0, 86, 98
1, 69091, Note_on_c, 0, 63, 0
1, 69103, Note_on_c, 0, 60, 61
1, 69239, Note_on_c, 0, 86, 0
1, 69435, Note_on_c, 0, 79, 0
1, 69519, Note_on_c, 0, 87, 71
1, 69527, Note_on_c, 0, 63, 52
1, 69535, Note_on_c, 0, 79, 60
1, 69543, Note_on_c, 0, 75, 60
1, 69655, Note_on_c, 0, 53, 0
1, 69799, Note_on_c, 0, 87, 0
1, 69823, Note_on_c, 0, 79, 0
1, 69927, Note_on_c, 0, 75, 0
1, 70023, Note_on_c, 0, 53, 62
1, 70071, Note_on_c, 0, 58, 0
1, 70263, Note_on_c, 0, 53, 0
1, 70295, Note_on_c, 0, 60, 0
1, 70327, Note_on_c, 0, 63, 0
1, 70607, Control_c, 0, 64, 0
1, 70639, Note_on_c, 0, 74, 65
1, 70643, Note_on_c, 0, 69, 56
1, 70643, Note_on_c, 0, 79, 64
1, 70643, Note_on_c, 0, 63, 50
1, 70663, Note_on_c, 0, 53, 46
1, 70811, Control_c, 0, 64, 127
1, 70879, Note_on_c, 0, 74, 0
1, 70971, Note_on_c, 0, 73, 65
1, 71323, Note_on_c, 0, 73, 0
1, 71343, Note_on_c, 0, 72, 67
1, 71383, Note_on_c, 0, 53, 0
1, 71883, Note_on_c, 0, 72, 0
1, 72207, Note_on_c, 0, 69, 0
1, 72227, Note_on_c, 0, 79, 0
1, 72247, Note_on_c, 0, 63, 0
1, 72251, Note_on_c, 0, 71, 50
1, 72559, Note_on_c, 0, 71, 0
1, 73011, Note_on_c, 0, 72, 60
1, 73015, Control_c, 0, 64, 0
1, 73023, Note_on_c, 0, 70, 60
1, 73027, Note_on_c, 0, 68, 34
1, 73063, Note_on_c, 0, 63, 40
1, 73063, Note_on_c, 0, 60, 42
1, 73171, Control_c, 0, 64, 72
1, 73175, Control_c, 0, 64, 127
1, 73399, Note_on_c, 0, 72, 0
1, 73403, Note_on_c, 0, 75, 71
1, 73415, Note_on_c, 0, 58, 51
1, 73419, Note_on_c, 0, 60, 0
1, 73491, Note_on_c, 0, 68, 0
1, 73535, Note_on_c, 0, 63, 0
1, 73603, Note_on_c, 0, 58, 0
1, 73815, Note_on_c, 0, 70, 0
1, 73815, Note_on_c, 0, 75, 0
1, 73831, Note_on_c, 0, 77, 72
1, 73839, Note_on_c, 0, 56, 48
1, 74131, Note_on_c, 0, 77, 0
1, 74143, Note_on_c, 0, 56, 0
1, 74227, Note_on_c, 0, 53, 61
1, 74275, Note_on_c, 0, 53, 0
1, 74751, Note_on_c, 0, 56, 55
1, 74751, Note_on_c, 0, 46, 55
1, 74763, Note_on_c, 0, 63, 57
1, 74763, Note_on_c, 0, 60, 61
1, 74823, Note_on_c, 0, 46, 0
1, 76467, Note_on_c, 0, 22, 54
1, 76755, Note_on_c, 0, 56, 0
1, 76771, Note_on_c, 0, 22, 0
1, 76851, Note_on_c, 0, 60, 0
1, 77135, Note_on_c, 0, 63, 0
1, 78243, Control_c, 0, 64, 0
1, 78287, Note_on_c, 0, 67, 58
1, 78291, Note_on_c, 0, 39, 48
1, 78299, Note_on_c, 0, 55, 43
1, 78303, Note_on_c, 0, 62, 52
1, 78311, Note_on_c, 0, 46, 45
1, 78399, Control_c, 0, 64, 127
1, 78451, Note_on_c, 0, 55, 0
1, 78471, Note_on_c, 0, 39, 0
1, 78507, Note_on_c, 0, 67, 0
1, 78519, Note_on_c, 0, 62, 0
1, 78719, Note_on_c, 0, 46, 0
1, 78747, Note_on_c, 0, 70, 73
1, 78751, Note_on_c, 0, 55, 55
1, 79027, Note_on_c, 0, 70, 0
1, 79143, Note_on_c, 0, 55, 0
1, 79171, Note_on_c, 0, 70, 62
1, 79175, Note_on_c, 0, 62, 44
1, 79183, Note_on_c, 0, 58, 51
1, 79191, Note_on_c, 0, 67, 45
1, 79235, Note_on_c, 0, 62, 0
1, 79335, Note_on_c, 0, 67, 0
1, 79391, Note_on_c, 0, 70, 0
1, 79587, Note_on_c, 0, 82, 85
1, 79627, Note_on_c, 0, 62, 40
1, 79731, Note_on_c, 0, 82, 0
1, 80071, Note_on_c, 0, 79, 68
1, 80091, Note_on_c, 0, 70, 48
1, 80107, Note_on_c, 0, 67, 39
1, 80435, Note_on_c, 0, 79, 0
1, 80439, Note_on_c, 0, 70, 0
1, 80691, Note_on_c, 0, 67, 0
1, 81055, Note_on_c, 0, 62, 0
1, 81067, Note_on_c, 0, 85, 107
1, 81111, Note_on_c, 0, 58, 0
1, 81471, Note_on_c, 0, 85, 0
1, 81479, Note_on_c, 0, 84, 88
1, 81483, Control_c, 0, 64, 0
1, 81503, Note_on_c, 0, 58, 42
1, 81511, Note_on_c, 0, 50, 50
1, 81639, Control_c, 0, 64, 127
1, 81831, Note_on_c, 0, 58, 0
1, 81891, Note_on_c, 0, 58, 33
1, 81895, Note_on_c, 0, 82, 80
1, 81959, Note_on_c, 0, 84, 0
1, 82191, Note_on_c, 0, 82, 0
1, 82383, Note_on_c, 0, 82, 64
1, 82387, Note_on_c, 0, 62, 46
1, 82643, Note_on_c, 0, 82, 0
1, 82811, Note_on_c, 0, 89, 120
1, 83099, Note_on_c, 0, 50, 0
1, 83139, Note_on_c, 0, 89, 0
1, 83163, Note_on_c, 0, 87, 98
1, 83483, Note_on_c, 0, 87, 0
1, 83515, Note_on_c, 0, 86, 98
1, 83539, Note_on_c, 0, 50, 53
1, 83851, Note_on_c, 0, 82, 98
1, 83951, Note_on_c, 0, 86, 0
1, 84155, Note_on_c, 0, 82, 0
1, 84247, Note_on_c, 0, 80, 79
1, 84347, Note_on_c, 0, 62, 0
1, 84463, Note_on_c, 0, 58, 0
1, 84483, Note_on_c, 0, 50, 0
1, 84515, Note_on_c, 0, 79, 64
1, 84547, Note_on_c, 0, 80, 0
1, 84815, Note_on_c, 0, 79, 0
1, 84839, Note_on_c, 0, 82, 73
1, 84851, Control_c, 0, 64, 0
1, 84851, Note_on_c, 0, 56, 40
1, 84867, Note_on_c, 0, 48, 42
1, 85027, Control_c, 0, 64, 127
1, 85219, Note_on_c, 0, 80, 69
1, 85263, Note_on_c, 0, 82, 0
1, 85595, Note_on_c, 0, 80, 0
1, 85679, Note_on_c, 0, 80, 57
1, 85707, Note_on_c, 0, 60, 33
1, 85975, Note_on_c, 0, 60, 0
1, 86179, Note_on_c, 0, 48, 0
1, 86195, Note_on_c, 0, 82, 76
1, 86239, Note_on_c, 0, 80, 0
1, 86491, Note_on_c, 0, 56, 0
1, 86719, Note_on_c, 0, 82, 0
1, 86735, Control_c, 0, 64, 0
1, 86755, Note_on_c, 0, 56, 42
1, 86767, Note_on_c, 0, 47, 46
1, 86767, Note_on_c, 0, 80, 56
1, 86775, Note_on_c, 0, 82, 26
1, 86891, Control_c, 0, 64, 127
1, 87195, Note_on_c, 0, 71, 58
1, 87527, Note_on_c, 0, 82, 0
1, 87635, Note_on_c, 0, 80, 0
1, 87771, Note_on_c, 0, 82, 76
1, 88055, Note_on_c, 0, 82, 0
1, 88055, Note_on_c, 0, 47, 0
1, 88055, Note_on_c, 0, 80, 72
1, 88071, Note_on_c, 0, 71, 0
1, 88267, Note_on_c, 0, 80, 0
1, 88351, Note_on_c, 0, 56, 0
1, 88359, Control_c, 0, 64, 0
1, 88375, Note_on_c, 0, 80, 65
1, 88387, Note_on_c, 0, 46, 46
1, 88499, Control_c, 0, 64, 127
1, 88679, Note_on_c, 0, 70, 56
1, 88763, Note_on_c, 0, 80, 0
1, 88983, Note_on_c, 0, 79, 80
1, 88995, Note_on_c, 0, 55, 45
1, 89251, Note_on_c, 0, 79, 0
1, 89363, Note_on_c, 0, 79, 82
1, 89487, Note_on_c, 0, 70, 0
1, 89691, Note_on_c, 0, 78, 1
1, 89695, Note_on_c, 0, 67, 55
1, 89915, Note_on_c, 0, 55, 0
1, 89999, Note_on_c, 0, 79, 0
1, 90043, Note_on_c, 0, 70, 58
1, 90063, Note_on_c, 0, 55, 45
1, 90079, Note_on_c, 0, 78, 0
1, 90255, Note_on_c, 0, 46, 0
1, 90319, Note_on_c, 0, 55, 0
1, 90423, Note_on_c, 0, 67, 0
1, 90463, Note_on_c, 0, 79, 70
1, 90467, Note_on_c, 0, 78, 34
1, 90503, Note_on_c, 0, 70, 0
1, 90791, Note_on_c, 0, 79, 0
1, 90827, Note_on_c, 0, 78, 0
1, 91019, Note_on_c, 0, 77, 75
1, 91043, Note_on_c, 0, 75, 76
1, 91075, Note_on_c, 0, 63, 48
1, 91083, Note_on_c, 0, 60, 54
1, 91087, Note_on_c, 0, 72, 58
1, 91091, Note_on_c, 0, 68, 64
1, 91119, Control_c, 0, 64, 0
1, 91291, Control_c, 0, 64, 127
1, 91499, Note_on_c, 0, 79, 82
1, 91499, Note_on_c, 0, 58, 60
1, 91531, Note_on_c, 0, 60, 0
1, 91575, Note_on_c, 0, 63, 0
1, 91635, Note_on_c, 0, 58, 0
1, 91699, Note_on_c, 0, 79, 0
1, 91863, Note_on_c, 0, 68, 0
1, 91919, Note_on_c, 0, 77, 0
1, 92107, Note_on_c, 0, 46, 55
1, 92127, Note_on_c, 0, 80, 64
1, 92251, Note_on_c, 0, 72, 0
1, 92311, Note_on_c, 0, 75, 0
1, 92339, Note_on_c, 0, 80, 0
1, 92595, Note_on_c, 0, 84, 83
1, 92623, Note_on_c, 0, 56, 43
1, 92643, Note_on_c, 0, 77, 42
1, 92727, Note_on_c, 0, 84, 0
1, 92739, Note_on_c, 0, 77, 0
1, 92975, Note_on_c, 0, 80, 72
1, 93011, Note_on_c, 0, 68, 44
1, 93071, Note_on_c, 0, 80, 0
1, 93123, Note_on_c, 0, 68, 0
1, 93259, Note_on_c, 0, 46, 0
1, 93459, Note_on_c, 0, 77, 64
1, 93483, Note_on_c, 0, 65, 50
1, 93491, Note_on_c, 0, 46, 35
1, 93719, Note_on_c, 0, 65, 0
1, 93723, Note_on_c, 0, 56, 0
1, 93743, Note_on_c, 0, 46, 0
1, 93835, Note_on_c, 0, 77, 0
1, 94511, Control_c, 0, 64, 0
1, 94571, Note_on_c, 0, 77, 62
1, 94583, Note_on_c, 0, 70, 57
1, 94591, Note_on_c, 0, 46, 43
1, 94595, Note_on_c, 0, 74, 60
1, 94603, Note_on_c, 0, 34, 38
1, 94611, Note_on_c, 0, 67, 42
1, 94631, Control_c, 0, 64, 127
1, 94719, Note_on_c, 0, 34, 0
1, 94771, Note_on_c, 0, 74, 0
1, 94775, Note_on_c, 0, 46, 0
1, 94907, Note_on_c, 0, 77, 0
1, 94927, Note_on_c, 0, 67, 0
1, 94979, Note_on_c, 0, 70, 0
1, 95147, Note_on_c, 0, 75, 68
1, 95427, Note_on_c, 0, 75, 0
1, 95659, Note_on_c, 0, 75, 64
1, 95683, Note_on_c, 0, 67, 55
1, 95691, Note_on_c, 0, 63, 45
1, 95699, Note_on_c, 0, 58, 43
1, 96231, Note_on_c, 0, 59, 55
1, 96347, Note_on_c, 0, 67, 0
1, 96407, Note_on_c, 0, 63, 0
1, 96483, Note_on_c, 0, 59, 0
1, 96843, Note_on_c, 0, 58, 0
1, 97011, Note_on_c, 0, 66, 53
1, 97019, Note_on_c, 0, 63, 39
1, 97027, Note_on_c, 0, 60, 47
1, 97031, Control_c, 0, 64, 0
1, 97207, Control_c, 0, 64, 127
1, 97387, Note_on_c, 0, 63, 0
1, 97411, Note_on_c, 0, 66, 0
1, 97479, Note_on_c, 0, 75, 0
1, 97767, Note_on_c, 0, 77, 73
1, 97775, Note_on_c, 0, 66, 69
1, 97807, Note_on_c, 0, 58, 45
1, 97807, Note_on_c, 0, 69, 41
1, 97811, Note_on_c, 0, 60, 0
1, 98031, Note_on_c, 0, 58, 0
1, 98203, Note_on_c, 0, 77, 0
1, 98259, Note_on_c, 0, 69, 0
1, 98323, Note_on_c, 0, 66, 0
1, 98495, Control_c, 0, 64, 0
1, 98503, Note_on_c, 0, 75, 50
1, 98523, Note_on_c, 0, 46, 46
1, 98535, Note_on_c, 0, 68, 50
1, 98535, Note_on_c, 0, 65, 35
1, 98539, Note_on_c, 0, 72, 50
1, 98547, Note_on_c, 0, 34, 43
1, 98611, Control_c, 0, 64, 127
1, 98699, Note_on_c, 0, 34, 0
1, 98755, Note_on_c, 0, 46, 0
1, 99023, Note_on_c, 0, 72, 0
1, 99111, Note_on_c, 0, 75, 0
1, 99351, Note_on_c, 0, 65, 0
1, 99379, Note_on_c, 0, 74, 57
1, 99651, Note_on_c, 0, 74, 0
1, 99803, Note_on_c, 0, 68, 0
1, 99971, Note_on_c, 0, 46, 50
1, 100011, Control_c, 0, 64, 0
1, 100091, Note_on_c, 0, 56, 50
1, 100099, Control_c, 0, 64, 127
1, 100123, Note_on_c, 0, 46, 0
1, 100199, Note_on_c, 0, 56, 0
1, 100231, Note_on_c, 0, 62, 54
1, 100335, Note_on_c, 0, 62, 0
1, 100367, Note_on_c, 0, 67, 46
1, 100475, Note_on_c, 0, 67, 0
1, 100507, Note_on_c, 0, 74, 64
1, 100575, Note_on_c, 0, 74, 0
1, 100687, Note_on_c, 0, 79, 67
1, 100767, Note_on_c, 0, 79, 0
1, 100875, Note_on_c, 0, 86, 60
1, 101055, Note_on_c, 0, 86, 0
1, 101099, Note_on_c, 0, 83, 45
1, 101231, Note_on_c, 0, 83, 0
1, 101287, Note_on_c, 0, 86, 50
1, 101343, Note_on_c, 0, 86, 0
1, 101479, Note_on_c, 0, 91, 64
1, 101539, Note_on_c, 0, 91, 0
1, 101719, Note_on_c, 0, 95, 48
1, 101767, Note_on_c, 0, 95, 0
1, 101959, Note_on_c, 0, 98, 51
1, 102011, Note_on_c, 0, 98, 0
1, 102291, Note_on_c, 0, 103, 49
1, 102803, Note_on_c, 0, 103, 0
1, 103535, Note_on_c, 0, 77, 73
1, 104449, Marker_t, "Change of Key"
1, 104531, Note_on_c, 0, 77, 0
1, 104607, Note_on_c, 0, 76, 68
1, 104615, Control_c, 0, 64, 0
1, 104643, Note_on_c, 0, 36, 48
1, 104651, Note_on_c, 0, 67, 30
1, 104659, Note_on_c, 0, 72, 41
1, 104671, Note_on_c, 0, 52, 39
1, 104775, Control_c, 0, 64, 127
1, 104947, Note_on_c, 0, 76, 0
1, 105003, Note_on_c, 0, 67, 0
1, 105067, Note_on_c, 0, 52, 0
1, 105067, Note_on_c, 0, 72, 0
1, 105067, Note_on_c, 0, 79, 91
1, 105075, Note_on_c, 0, 43, 68
1, 105139, Note_on_c, 0, 36, 0
1, 105283, Note_on_c, 0, 79, 0
1, 105431, Note_on_c, 0, 79, 97
1, 105443, Note_on_c, 0, 52, 62
1, 105447, Note_on_c, 0, 43, 0
1, 105519, Note_on_c, 0, 52, 0
1, 105763, Note_on_c, 0, 59, 85
1, 106135, Note_on_c, 0, 59, 0
1, 106139, Note_on_c, 0, 60, 80
1, 106427, Note_on_c, 0, 60, 0
1, 106531, Note_on_c, 0, 64, 52
1, 106539, Note_on_c, 0, 67, 60
1, 106571, Note_on_c, 0, 64, 0
1, 106723, Note_on_c, 0, 67, 0
1, 106795, Note_on_c, 0, 79, 0
1, 107217, Note_on_c, 0, 81, 68
1, 107229, Control_c, 0, 64, 0
1, 107241, Note_on_c, 0, 55, 44
1, 107253, Note_on_c, 0, 71, 30
1, 107265, Note_on_c, 0, 47, 46
1, 107365, Control_c, 0, 64, 127
1, 107417, Note_on_c, 0, 81, 0
1, 107449, Note_on_c, 0, 55, 0
1, 107557, Note_on_c, 0, 71, 0
1, 107617, Note_on_c, 0, 79, 54
1, 107621, Note_on_c, 0, 55, 59
1, 107621, Note_on_c, 0, 81, 46
1, 107653, Note_on_c, 0, 81, 0
1, 107729, Note_on_c, 0, 79, 0
1, 107973, Note_on_c, 0, 79, 77
1, 107989, Note_on_c, 0, 71, 65
1, 107997, Note_on_c, 0, 67, 52
1, 108001, Note_on_c, 0, 59, 42
1, 108141, Note_on_c, 0, 55, 0
1, 108329, Note_on_c, 0, 59, 0
1, 108361, Note_on_c, 0, 55, 43
1, 108373, Note_on_c, 0, 67, 0
1, 108461, Note_on_c, 0, 71, 0
1, 108745, Note_on_c, 0, 67, 50
1, 108809, Note_on_c, 0, 47, 0
1, 109153, Note_on_c, 0, 47, 54
1, 109229, Note_on_c, 0, 55, 0
1, 109337, Note_on_c, 0, 67, 0
1, 109365, Note_on_c, 0, 47, 0
1, 109489, Control_c, 0, 64, 0
1, 109497, Note_on_c, 0, 79, 90
1, 109513, Note_on_c, 0, 72, 86
1, 109525, Note_on_c, 0, 45, 56
1, 109529, Note_on_c, 0, 69, 72
1, 109633, Control_c, 0, 64, 127
1, 109741, Note_on_c, 0, 79, 0
1, 109753, Note_on_c, 0, 79, 0
1, 109813, Note_on_c, 0, 69, 0
1, 109829, Note_on_c, 0, 72, 0
1, 109849, Note_on_c, 0, 77, 84
1, 109873, Note_on_c, 0, 53, 50
1, 110021, Note_on_c, 0, 77, 0
1, 110213, Note_on_c, 0, 77, 80
1, 110225, Note_on_c, 0, 68, 73
1, 110237, Note_on_c, 0, 65, 62
1, 110237, Note_on_c, 0, 62, 51
1, 110565, Note_on_c, 0, 62, 0
1, 110589, Note_on_c, 0, 45, 0
1, 110641, Note_on_c, 0, 65, 0
1, 110665, Note_on_c, 0, 68, 0
1, 110669, Note_on_c, 0, 77, 0
1, 110689, Note_on_c, 0, 76, 78
1, 110729, Note_on_c, 0, 45, 29
1, 110825, Note_on_c, 0, 45, 0
1, 110845, Note_on_c, 0, 53, 0
1, 111053, Note_on_c, 0, 76, 0
1, 111233, Note_on_c, 0, 77, 74
1, 111281, Note_on_c, 0, 74, 63
1, 111305, Note_on_c, 0, 72, 51
1, 111321, Control_c, 0, 64, 0
1, 111337, Note_on_c, 0, 68, 55
1, 111413, Note_on_c, 0, 67, 53
1, 111521, Control_c, 0, 64, 127
1, 111977, Note_on_c, 0, 77, 0
1, 112037, Note_on_c, 0, 74, 0
1, 112145, Note_on_c, 0, 68, 0
1, 112461, Note_on_c, 0, 67, 0
1, 112545, Note_on_c, 0, 79, 58
1, 112797, Note_on_c, 0, 79, 0
1, 112853, Note_on_c, 0, 72, 0
1, 113129, Control_c, 0, 64, 0
1, 113161, Note_on_c, 0, 77, 58
1, 113177, Note_on_c, 0, 72, 55
1, 113185, Note_on_c, 0, 67, 33
1, 113189, Note_on_c, 0, 52, 35
1, 113197, Note_on_c, 0, 43, 43
1, 113293, Control_c, 0, 64, 127
1, 113373, Note_on_c, 0, 77, 0
1, 113485, Note_on_c, 0, 72, 0
1, 113497, Note_on_c, 0, 52, 0
1, 113529, Note_on_c, 0, 67, 0
1, 113541, Note_on_c, 0, 76, 75
1, 113697, Note_on_c, 0, 76, 0
1, 113981, Note_on_c, 0, 76, 73
1, 113981, Note_on_c, 0, 67, 60
1, 114009, Note_on_c, 0, 55, 40
1, 114337, Note_on_c, 0, 76, 0
1, 114449, Note_on_c, 0, 55, 0
1, 114449, Note_on_c, 0, 52, 43
1, 114465, Note_on_c, 0, 67, 0
1, 114929, Note_on_c, 0, 64, 50
1, 114933, Note_on_c, 0, 67, 44
1, 114965, Note_on_c, 0, 55, 32
1, 115105, Note_on_c, 0, 52, 0
1, 115369, Note_on_c, 0, 43, 0
1, 115909, Note_on_c, 0, 43, 70
1, 116125, Note_on_c, 0, 67, 0
1, 116193, Note_on_c, 0, 64, 0
1, 116377, Note_on_c, 0, 55, 0
1, 116649, Note_on_c, 0, 43, 0
1, 116825, Control_c, 0, 64, 0
1, 116877, Note_on_c, 0, 62, 80
1, 116881, Note_on_c, 0, 53, 76
1, 116885, Note_on_c, 0, 57, 76
1, 116897, Note_on_c, 0, 60, 70
1, 116897, Note_on_c, 0, 43, 61
1, 116949, Control_c, 0, 64, 127
1, 117177, Note_on_c, 0, 62, 0
1, 117205, Note_on_c, 0, 60, 0
1, 117213, Note_on_c, 0, 64, 90
1, 117225, Note_on_c, 0, 43, 0
1, 117237, Note_on_c, 0, 53, 0
1, 117265, Note_on_c, 0, 57, 0
1, 117341, Note_on_c, 0, 64, 0
1, 117601, Control_c, 0, 64, 0
1, 117601, Note_on_c, 0, 65, 80
1, 117617, Note_on_c, 0, 60, 75
1, 117621, Note_on_c, 0, 57, 59
1, 117621, Note_on_c, 0, 43, 60
1, 117769, Control_c, 0, 64, 127
1, 118277, Note_on_c, 0, 65, 0
1, 118305, Note_on_c, 0, 57, 0
1, 118377, Note_on_c, 0, 60, 0
1, 118765, Note_on_c, 0, 69, 76
1, 118857, Note_on_c, 0, 69, 0
1, 119253, Note_on_c, 0, 65, 50
1, 119257, Control_c, 0, 64, 0
1, 119273, Note_on_c, 0, 60, 58
1, 119273, Note_on_c, 0, 31, 51
1, 119277, Note_on_c, 0, 57, 33
1, 119497, Control_c, 0, 64, 127
1, 119921, Note_on_c, 0, 60, 0
1, 120169, Note_on_c, 0, 57, 0
1, 120253, Note_on_c, 0, 62, 48
1, 120597, Note_on_c, 0, 65, 0
1, 120613, Note_on_c, 0, 62, 56
1, 120633, Note_on_c, 0, 62, 0
1, 120897, Note_on_c, 0, 62, 0
1, 120909, Note_on_c, 0, 31, 0
1, 120933, Note_on_c, 0, 43, 0
1, 120978, Control_c, 0, 64, 127
1, 121218, Note_on_c, 0, 60, 64
1, 121342, Note_on_c, 0, 60, 0
1, 121722, Control_c, 0, 64, 0
1, 121726, Note_on_c, 0, 60, 57
1, 121750, Note_on_c, 0, 55, 43
1, 121750, Note_on_c, 0, 43, 43
1, 121758, Note_on_c, 0, 52, 36
1, 121842, Control_c, 0, 64, 127
1, 122186, Note_on_c, 0, 52, 0
1, 122242, Note_on_c, 0, 31, 51
1, 122282, Note_on_c, 0, 55, 0
1, 122322, Note_on_c, 0, 31, 0
1, 122390, Note_on_c, 0, 43, 0
1, 122410, Note_on_c, 0, 60, 0
1, 123686, Note_on_c, 0, 74, 89
1, 123722, Note_on_c, 0, 66, 55
1, 123722, Note_on_c, 0, 69, 56
1, 123738, Control_c, 0, 64, 0
1, 123742, Note_on_c, 0, 63, 53
1, 123746, Note_on_c, 0, 43, 51
1, 123894, Control_c, 0, 64, 127
1, 124338, Note_on_c, 0, 55, 54
1, 124502, Note_on_c, 0, 43, 0
1, 124626, Note_on_c, 0, 55, 0
1, 124666, Note_on_c, 0, 74, 0
1, 124702, Note_on_c, 0, 69, 0
1, 124726, Note_on_c, 0, 63, 0
1, 124822, Note_on_c, 0, 66, 0
1, 124967, Note_on_c, 0, 72, 56
1, 124967, Control_c, 0, 64, 56
1, 124967, Control_c, 0, 64, 0
1, 124979, Note_on_c, 0, 65, 52
1, 124979, Note_on_c, 0, 62, 41
1, 124979, Note_on_c, 0, 69, 58
1, 124983, Note_on_c, 0, 55, 51
1, 125115, Control_c, 0, 64, 127
1, 125303, Note_on_c, 0, 72, 0
1, 125319, Note_on_c, 0, 69, 0
1, 125343, Note_on_c, 0, 62, 0
1, 125379, Note_on_c, 0, 71, 75
1, 125427, Note_on_c, 0, 65, 0
1, 125463, Note_on_c, 0, 43, 45
1, 125515, Note_on_c, 0, 71, 0
1, 125687, Note_on_c, 0, 55, 0
1, 125927, Note_on_c, 0, 71, 53
1, 125935, Note_on_c, 0, 65, 51
1, 125943, Note_on_c, 0, 53, 37
1, 125943, Note_on_c, 0, 62, 33
1, 126399, Note_on_c, 0, 43, 0
1, 126667, Note_on_c, 0, 43, 48
1, 126679, Note_on_c, 0, 62, 0
1, 126959, Note_on_c, 0, 65, 0
1, 127075, Note_on_c, 0, 53, 0
1, 127519, Note_on_c, 0, 71, 0
1, 127543, Note_on_c, 0, 65, 44
1, 127563, Note_on_c, 0, 62, 31
1, 127571, Note_on_c, 0, 53, 33
1, 127767, Note_on_c, 0, 62, 0
1, 128395, Note_on_c, 0, 65, 0
1, 130435, Note_on_c, 0, 71, 55
1, 130767, Note_on_c, 0, 53, 0
1, 130839, Note_on_c, 0, 43, 0
1, 131663, Note_on_c, 0, 71, 0
1, 131727, Note_on_c, 0, 72, 49
1, 132027, Note_on_c, 0, 72, 0
1, 132043, Note_on_c, 0, 74, 62
1, 132587, Note_on_c, 0, 74, 0
1, 132627, Note_on_c, 0, 75, 52
1, 132807, Note_on_c, 0, 75, 0
1, 132847, Note_on_c, 0, 76, 62
1, 133011, Note_on_c, 0, 76, 0
1, 133023, Note_on_c, 0, 77, 76
1, 133147, Note_on_c, 0, 77, 0
1, 133187, Note_on_c, 0, 78, 75
1, 133323, Marker_t, "Back to original key"
1, 133339, Control_c, 0, 64, 0
1, 133351, Note_on_c, 0, 78, 0
1, 133383, Note_on_c, 0, 27, 52
1, 133387, Note_on_c, 0, 79, 76
1, 133439, Control_c, 0, 64, 127
1, 133511, Note_on_c, 0, 27, 0
1, 133919, Note_on_c, 0, 55, 46
1, 134323, Note_on_c, 0, 60, 50
1, 134391, Note_on_c, 0, 79, 0
1, 134727, Note_on_c, 0, 82, 71
1, 134763, Note_on_c, 0, 79, 61
1, 134767, Note_on_c, 0, 70, 55
1, 134775, Note_on_c, 0, 65, 34
1, 134775, Note_on_c, 0, 75, 46
1, 134967, Note_on_c, 0, 55, 0
1, 135035, Note_on_c, 0, 82, 0
1, 135135, Note_on_c, 0, 60, 0
1, 135155, Note_on_c, 0, 70, 0
1, 135163, Note_on_c, 0, 82, 79
1, 135179, Note_on_c, 0, 55, 52
1, 135187, Note_on_c, 0, 65, 0
1, 135227, Note_on_c, 0, 75, 0
1, 135319, Note_on_c, 0, 79, 0
1, 135567, Note_on_c, 0, 75, 60
1, 135575, Note_on_c, 0, 70, 48
1, 135579, Note_on_c, 0, 63, 37
1, 135579, Note_on_c, 0, 65, 38
1, 135623, Note_on_c, 0, 65, 0
1, 135655, Note_on_c, 0, 63, 0
1, 135663, Note_on_c, 0, 70, 0
1, 135671, Note_on_c, 0, 55, 0
1, 135739, Note_on_c, 0, 75, 0
1, 135747, Note_on_c, 0, 82, 0
1, 135923, Control_c, 0, 64, 0
1, 135939, Note_on_c, 0, 84, 78
1, 135963, Note_on_c, 0, 58, 50
1, 135975, Note_on_c, 0, 77, 75
1, 135979, Note_on_c, 0, 50, 53
1, 135999, Note_on_c, 0, 74, 61
1, 136051, Control_c, 0, 64, 127
1, 136123, Note_on_c, 0, 84, 0
1, 136187, Note_on_c, 0, 58, 0
1, 136255, Note_on_c, 0, 77, 0
1, 136267, Note_on_c, 0, 74, 0
1, 136315, Note_on_c, 0, 82, 94
1, 136319, Note_on_c, 0, 58, 48
1, 136679, Note_on_c, 0, 70, 60
1, 136691, Note_on_c, 0, 50, 0
1, 136703, Note_on_c, 0, 74, 58
1, 136707, Note_on_c, 0, 62, 41
1, 136735, Note_on_c, 0, 58, 0
1, 137043, Note_on_c, 0, 63, 70
1, 137063, Note_on_c, 0, 62, 0
1, 137179, Note_on_c, 0, 74, 0
1, 137251, Note_on_c, 0, 70, 0
1, 137367, Note_on_c, 0, 63, 0
1, 137375, Note_on_c, 0, 70, 57
1, 137379, Note_on_c, 0, 62, 57
1, 137391, Note_on_c, 0, 74, 58
1, 137623, Note_on_c, 0, 56, 18
1, 137627, Note_on_c, 0, 62, 0
1, 137667, Note_on_c, 0, 56, 0
1, 137759, Note_on_c, 0, 55, 45
1, 137819, Note_on_c, 0, 74, 0
1, 137843, Note_on_c, 0, 70, 0
1, 137927, Note_on_c, 0, 82, 0
1, 138211, Note_on_c, 0, 55, 0
1, 138211, Note_on_c, 0, 48, 58
1, 138215, Control_c, 0, 64, 72
1, 138215, Control_c, 0, 64, 0
1, 138347, Control_c, 0, 64, 127
1, 138563, Note_on_c, 0, 82, 74
1, 138591, Note_on_c, 0, 56, 49
1, 138599, Note_on_c, 0, 72, 58
1, 138711, Note_on_c, 0, 72, 0
1, 138727, Note_on_c, 0, 82, 0
1, 138983, Note_on_c, 0, 80, 69
1, 139003, Note_on_c, 0, 68, 51
1, 139211, Note_on_c, 0, 48, 0
1, 139263, Note_on_c, 0, 68, 0
1, 139483, Note_on_c, 0, 72, 48
1, 139603, Note_on_c, 0, 80, 0
1, 139919, Note_on_c, 0, 72, 0
1, 140031, Control_c, 0, 64, 0
1, 140035, Note_on_c, 0, 82, 53
1, 140035, Note_on_c, 0, 47, 46
1, 140043, Note_on_c, 0, 71, 38
1, 140051, Note_on_c, 0, 59, 46
1, 140063, Note_on_c, 0, 75, 56
1, 140075, Note_on_c, 0, 56, 0
1, 140219, Control_c, 0, 64, 127
1, 140679, Note_on_c, 0, 47, 0
1, 140747, Note_on_c, 0, 59, 0
1, 140879, Note_on_c, 0, 47, 51
1, 140879, Note_on_c, 0, 80, 73
1, 140911, Control_c, 0, 64, 0
1, 140999, Note_on_c, 0, 82, 0
1, 141007, Control_c, 0, 64, 127
1, 141071, Note_on_c, 0, 80, 0
1, 141107, Note_on_c, 0, 47, 0
1, 141111, Note_on_c, 0, 82, 70
1, 141339, Note_on_c, 0, 71, 0
1, 141351, Note_on_c, 0, 82, 0
1, 141407, Note_on_c, 0, 75, 0
1, 141439, Control_c, 0, 64, 0
1, 141455, Note_on_c, 0, 80, 65
1, 141463, Note_on_c, 0, 46, 47
1, 141475, Note_on_c, 0, 71, 47
1, 141611, Control_c, 0, 64, 127
1, 141819, Note_on_c, 0, 80, 66
1, 141839, Note_on_c, 0, 71, 0
1, 141843, Note_on_c, 0, 55, 51
1, 141859, Note_on_c, 0, 46, 0
1, 141931, Note_on_c, 0, 80, 0
1, 142031, Note_on_c, 0, 80, 0
1, 142163, Note_on_c, 0, 79, 77
1, 142175, Note_on_c, 0, 55, 0
1, 142175, Note_on_c, 0, 58, 54
1, 142479, Note_on_c, 0, 63, 71
1, 142747, Note_on_c, 0, 79, 0
1, 142847, Note_on_c, 0, 67, 64
1, 143211, Note_on_c, 0, 58, 0
1, 143239, Note_on_c, 0, 70, 53
1, 143275, Note_on_c, 0, 67, 0
1, 143395, Note_on_c, 0, 70, 0
1, 143651, Note_on_c, 0, 63, 0
1, 143659, Control_c, 0, 64, 0
1, 143679, Note_on_c, 0, 77, 64
1, 143683, Note_on_c, 0, 68, 53
1, 143683, Note_on_c, 0, 75, 36
1, 143707, Note_on_c, 0, 72, 52
1, 143715, Note_on_c, 0, 65, 40
1, 143715, Note_on_c, 0, 58, 44
1, 143795, Control_c, 0, 64, 127
1, 143859, Note_on_c, 0, 77, 0
1, 143991, Note_on_c, 0, 75, 0
1, 144015, Note_on_c, 0, 68, 0
1, 144015, Note_on_c, 0, 65, 0
1, 144051, Note_on_c, 0, 63, 47
1, 144055, Note_on_c, 0, 79, 74
1, 144159, Note_on_c, 0, 79, 0
1, 144335, Note_on_c, 0, 63, 0
1, 144387, Note_on_c, 0, 65, 55
1, 144387, Note_on_c, 0, 80, 85
1, 144391, Note_on_c, 0, 72, 0
1, 144471, Note_on_c, 0, 80, 0
1, 144711, Note_on_c, 0, 84, 84
1, 144771, Note_on_c, 0, 58, 0
1, 144775, Note_on_c, 0, 84, 0
1, 144815, Note_on_c, 0, 65, 0
1, 145127, Note_on_c, 0, 80, 62
1, 145147, Note_on_c, 0, 68, 40
1, 145147, Note_on_c, 0, 75, 56
1, 145155, Note_on_c, 0, 58, 45
1, 145315, Note_on_c, 0, 80, 0
1, 145343, Note_on_c, 0, 75, 0
1, 145371, Note_on_c, 0, 68, 0
1, 145979, Note_on_c, 0, 58, 0
1, 145991, Note_on_c, 0, 77, 48
1, 146167, Note_on_c, 0, 77, 0
1, 146491, Control_c, 0, 64, 0
1, 146547, Note_on_c, 0, 77, 62
1, 146567, Note_on_c, 0, 46, 42
1, 146571, Note_on_c, 0, 70, 47
1, 146579, Note_on_c, 0, 67, 35
1, 146583, Note_on_c, 0, 55, 35
1, 146615, Control_c, 0, 64, 127
1, 146691, Note_on_c, 0, 77, 0
1, 146707, Note_on_c, 0, 70, 0
1, 146739, Note_on_c, 0, 46, 0
1, 146791, Note_on_c, 0, 67, 0
1, 146919, Note_on_c, 0, 55, 0
1, 146959, Note_on_c, 0, 75, 76
1, 147239, Note_on_c, 0, 75, 0
1, 147487, Note_on_c, 0, 75, 78
1, 147507, Note_on_c, 0, 66, 69
1, 147515, Note_on_c, 0, 69, 64
1, 147519, Note_on_c, 0, 63, 57
1, 147527, Note_on_c, 0, 62, 55
1, 147559, Control_c, 0, 64, 0
1, 147755, Control_c, 0, 64, 127
1, 147883, Note_on_c, 0, 62, 0
1, 147947, Note_on_c, 0, 60, 74
1, 147951, Control_c, 0, 64, 24
1, 147955, Control_c, 0, 64, 0
1, 148075, Control_c, 0, 64, 127
1, 148323, Note_on_c, 0, 63, 0
1, 148391, Note_on_c, 0, 60, 0
1, 148403, Note_on_c, 0, 63, 41
1, 148427, Note_on_c, 0, 57, 47
1, 148727, Note_on_c, 0, 75, 0
1, 148743, Note_on_c, 0, 69, 0
1, 148795, Note_on_c, 0, 57, 0
1, 148899, Note_on_c, 0, 66, 0
1, 148963, Note_on_c, 0, 63, 0
1, 148993, Note_on_c, 0, 63, 66
1, 149085, Note_on_c, 0, 63, 0
1, 149109, Note_on_c, 0, 62, 62
1, 149201, Control_c, 0, 64, 0
1, 149217, Note_on_c, 0, 62, 0
1, 149265, Note_on_c, 0, 63, 80
1, 149265, Note_on_c, 0, 34, 55
1, 149345, Control_c, 0, 64, 127
1, 149657, Note_on_c, 0, 63, 0
1, 149721, Note_on_c, 0, 56, 55
1, 149725, Note_on_c, 0, 62, 60
1, 149729, Note_on_c, 0, 46, 41
1, 149901, Note_on_c, 0, 62, 0
1, 149937, Note_on_c, 0, 56, 0
1, 149945, Note_on_c, 0, 46, 0
1, 150257, Control_c, 0, 64, 0
1, 150289, Note_on_c, 0, 56, 53
1, 150297, Note_on_c, 0, 62, 60
1, 150301, Note_on_c, 0, 46, 40
1, 150397, Control_c, 0, 64, 127
1, 150761, Note_on_c, 0, 34, 0
1, 150901, Note_on_c, 0, 34, 48
1, 151417, Note_on_c, 0, 56, 0
1, 152061, Note_on_c, 0, 62, 0
1, 152101, Note_on_c, 0, 34, 0
1, 152105, Note_on_c, 0, 58, 41
1, 152189, Note_on_c, 0, 46, 0
1, 153553, Control_c, 0, 64, 0
1, 153581, Note_on_c, 0, 56, 50
1, 153581, Note_on_c, 0, 63, 51
1, 153589, Note_on_c, 0, 58, 0
1, 153609, Note_on_c, 0, 39, 40
1, 153721, Control_c, 0, 64, 127
1, 153937, Note_on_c, 0, 56, 0
1, 153945, Note_on_c, 0, 63, 0
1, 153957, Note_on_c, 0, 55, 64
1, 153977, Note_on_c, 0, 46, 50
1, 154029, Note_on_c, 0, 39, 0
1, 154209, Note_on_c, 0, 55, 0
1, 154297, Note_on_c, 0, 46, 0
1, 154309, Note_on_c, 0, 55, 57
1, 154337, Note_on_c, 0, 67, 58
1, 154437, Note_on_c, 0, 67, 0
1, 154753, Note_on_c, 0, 55, 0
1, 154761, Note_on_c, 0, 75, 58
1, 154769, Note_on_c, 0, 58, 46
1, 155333, Note_on_c, 0, 75, 0
1, 155337, Note_on_c, 0, 66, 67
1, 155357, Note_on_c, 0, 72, 62
1, 155365, Note_on_c, 0, 58, 0
1, 155369, Note_on_c, 0, 62, 46
1, 155709, Note_on_c, 0, 66, 0
1, 155733, Note_on_c, 0, 77, 80
1, 155741, Note_on_c, 0, 72, 0
1, 155745, Note_on_c, 0, 50, 55
1, 155941, Note_on_c, 0, 50, 0
1, 156129, Control_c, 0, 64, 0
1, 156145, Note_on_c, 0, 77, 0
1, 156145, Note_on_c, 0, 74, 77
1, 156181, Note_on_c, 0, 62, 0
1, 156181, Note_on_c, 0, 55, 55
1, 156297, Control_c, 0, 64, 127
1, 156397, Note_on_c, 0, 74, 0
1, 156601, Note_on_c, 0, 79, 79
1, 156613, Note_on_c, 0, 62, 43
1, 156881, Note_on_c, 0, 79, 0
1, 157197, Note_on_c, 0, 82, 76
1, 157233, Note_on_c, 0, 67, 41
1, 157481, Note_on_c, 0, 62, 0
1, 157525, Note_on_c, 0, 82, 0
1, 157549, Note_on_c, 0, 86, 81
1, 157737, Note_on_c, 0, 86, 0
1, 157829, Note_on_c, 0, 82, 82
1, 157861, Note_on_c, 0, 62, 41
1, 157865, Note_on_c, 0, 67, 0
1, 157929, Note_on_c, 0, 62, 0
1, 158005, Note_on_c, 0, 55, 0
1, 158097, Note_on_c, 0, 79, 76
1, 158101, Note_on_c, 0, 82, 0
1, 158149, Note_on_c, 0, 79, 0
1, 158393, Note_on_c, 0, 77, 58
1, 158409, Note_on_c, 0, 48, 51
1, 158549, Control_c, 0, 64, 0
1, 158729, Note_on_c, 0, 55, 53
1, 159141, Note_on_c, 0, 67, 55
1, 159669, Note_on_c, 0, 75, 68
1, 159677, Note_on_c, 0, 77, 0
1, 159797, Note_on_c, 0, 67, 0
1, 159921, Note_on_c, 0, 73, 13
1, 160153, Note_on_c, 0, 73, 0
1, 160189, Note_on_c, 0, 63, 50
1, 160197, Note_on_c, 0, 59, 45
1, 160205, Note_on_c, 0, 67, 40
1, 160305, Control_c, 0, 64, 127
1, 160585, Note_on_c, 0, 59, 0
1, 160793, Note_on_c, 0, 67, 0
1, 160837, Note_on_c, 0, 63, 0
1, 160869, Note_on_c, 0, 75, 0
1, 161057, Note_on_c, 0, 77, 63
1, 161073, Note_on_c, 0, 60, 43
1, 161137, Note_on_c, 0, 60, 0
1, 161161, Note_on_c, 0, 55, 0
1, 161165, Note_on_c, 0, 77, 0
1, 161233, Note_on_c, 0, 48, 0
1, 161461, Note_on_c, 0, 75, 76
1, 161477, Control_c, 0, 64, 0
1, 161477, Note_on_c, 0, 63, 51
1, 161477, Note_on_c, 0, 43, 53
1, 161509, Note_on_c, 0, 67, 39
1, 161677, Control_c, 0, 64, 127
1, 161689, Note_on_c, 0, 75, 0
1, 161709, Note_on_c, 0, 63, 0
1, 161745, Note_on_c, 0, 67, 0
1, 161745, Note_on_c, 0, 50, 54
1, 161753, Note_on_c, 0, 74, 82
1, 161905, Note_on_c, 0, 74, 0
1, 162001, Note_on_c, 0, 43, 0
1, 162009, Note_on_c, 0, 50, 0
1, 162021, Note_on_c, 0, 74, 66
1, 162037, Note_on_c, 0, 55, 74
1, 162041, Note_on_c, 0, 62, 64
1, 162265, Control_c, 0, 64, 0
1, 162313, Note_on_c, 0, 57, 84
1, 162357, Note_on_c, 0, 55, 0
1, 162381, Control_c, 0, 64, 127
1, 162525, Note_on_c, 0, 62, 0
1, 162617, Note_on_c, 0, 62, 62
1, 162697, Note_on_c, 0, 58, 21
1, 162741, Note_on_c, 0, 74, 0
1, 162765, Note_on_c, 0, 58, 0
1, 162913, Note_on_c, 0, 57, 0
1, 162917, Note_on_c, 0, 73, 71
1, 163049, Note_on_c, 0, 62, 0
1, 163157, Note_on_c, 0, 73, 0
1, 163213, Note_on_c, 0, 74, 67
1, 163229, Note_on_c, 0, 55, 45
1, 163241, Control_c, 0, 64, 0
1, 163373, Control_c, 0, 64, 127
1, 163525, Note_on_c, 0, 74, 0
1, 163537, Note_on_c, 0, 62, 48
1, 163869, Note_on_c, 0, 81, 77
1, 163909, Note_on_c, 0, 74, 56
1, 163949, Note_on_c, 0, 70, 41
1, 164125, Note_on_c, 0, 62, 0
1, 164301, Note_on_c, 0, 62, 48
1, 164461, Note_on_c, 0, 74, 0
1, 164529, Note_on_c, 0, 70, 0
1, 164693, Note_on_c, 0, 62, 0
1, 164721, Note_on_c, 0, 70, 44
1, 164733, Note_on_c, 0, 74, 50
1, 164749, Note_on_c, 0, 64, 29
1, 164881, Note_on_c, 0, 81, 0
1, 164941, Note_on_c, 0, 74, 0
1, 165021, Note_on_c, 0, 70, 0
1, 165061, Note_on_c, 0, 64, 0
1, 165117, Note_on_c, 0, 62, 55
1, 165213, Note_on_c, 0, 62, 0
1, 165285, Note_on_c, 0, 55, 0
1, 165585, Note_on_c, 0, 43, 65
1, 165609, Note_on_c, 0, 62, 59
1, 165653, Note_on_c, 0, 43, 0
1, 165893, Note_on_c, 0, 62, 0
1, 165953, Note_on_c, 0, 67, 88
1, 166261, Note_on_c, 0, 67, 0
1, 166289, Note_on_c, 0, 70, 105
1, 166289, Note_on_c, 0, 66, 78
1, 166317, Control_c, 0, 64, 0
1, 166437, Control_c, 0, 64, 88
1, 166441, Control_c, 0, 64, 127
1, 166609, Note_on_c, 0, 70, 0
1, 166617, Note_on_c, 0, 65, 91
1, 166621, Note_on_c, 0, 74, 107
1, 166645, Control_c, 0, 64, 0
1, 166653, Note_on_c, 0, 66, 0
1, 166777, Control_c, 0, 64, 127
1, 166957, Note_on_c, 0, 70, 97
1, 167269, Note_on_c, 0, 65, 0
1, 167289, Note_on_c, 0, 70, 0
1, 167293, Note_on_c, 0, 74, 0
1, 167293, Note_on_c, 0, 67, 88
1, 167317, Note_on_c, 0, 64, 58
1, 167321, Control_c, 0, 64, 0
1, 167401, Control_c, 0, 64, 127
1, 167441, Note_on_c, 0, 64, 0
1, 167509, Note_on_c, 0, 67, 0
1, 167713, Note_on_c, 0, 65, 73
1, 167717, Note_on_c, 0, 62, 64
1, 167721, Note_on_c, 0, 58, 61
1, 167745, Note_on_c, 0, 48, 51
1, 167765, Control_c, 0, 64, 0
1, 168025, Control_c, 0, 64, 127
1, 168073, Note_on_c, 0, 55, 72
1, 168133, Note_on_c, 0, 58, 0
1, 168261, Note_on_c, 0, 62, 0
1, 168465, Note_on_c, 0, 63, 81
1, 168465, Note_on_c, 0, 58, 61
1, 168469, Note_on_c, 0, 60, 76
1, 168481, Note_on_c, 0, 65, 0
1, 168537, Note_on_c, 0, 48, 0
1, 168577, Note_on_c, 0, 58, 0
1, 168897, Note_on_c, 0, 48, 84
1, 168961, Note_on_c, 0, 55, 0
1, 169045, Note_on_c, 0, 48, 0
1, 169341, Note_on_c, 0, 38, 83
1, 169365, Control_c, 0, 64, 0
1, 169461, Control_c, 0, 64, 127
1, 169513, Note_on_c, 0, 60, 0
1, 169629, Note_on_c, 0, 63, 0
1, 169633, Note_on_c, 0, 38, 0
1, 169897, Note_on_c, 0, 25, 75
1, 169945, Control_c, 0, 64, 0
1, 170013, Control_c, 0, 64, 127
1, 170209, Note_on_c, 0, 25, 0
1, 172377, Control_c, 0, 64, 0
1, 172385, Note_on_c, 0, 84, 64
1, 172393, Note_on_c, 0, 72, 51
1, 172393, Note_on_c, 0, 79, 62
1, 172393, Note_on_c, 0, 36, 60
1, 172505, Control_c, 0, 64, 127
1, 172549, Note_on_c, 0, 36, 0
1, 172645, Note_on_c, 0, 79, 0
1, 172645, Note_on_c, 0, 72, 0
1, 172657, Note_on_c, 0, 84, 0
1, 173037, Note_on_c, 0, 86, 70
1, 173041, Note_on_c, 0, 74, 65
1, 173041, Note_on_c, 0, 79, 72
1, 173049, Note_on_c, 0, 58, 43
1, 173057, Note_on_c, 0, 67, 51
1, 173061, Note_on_c, 0, 63, 64
1, 173065, Note_on_c, 0, 62, 64
1, 173301, Note_on_c, 0, 62, 0
1, 173309, Note_on_c, 0, 74, 0
1, 173317, Note_on_c, 0, 58, 0
1, 173317, Note_on_c, 0, 86, 0
1, 173317, Note_on_c, 0, 63, 0
1, 173357, Note_on_c, 0, 67, 0
1, 173405, Note_on_c, 0, 79, 0
1, 173517, Note_on_c, 0, 67, 64
1, 173517, Note_on_c, 0, 87, 78
1, 173521, Note_on_c, 0, 58, 54
1, 173521, Note_on_c, 0, 79, 64
1, 173533, Note_on_c, 0, 63, 53
1, 173537, Note_on_c, 0, 62, 54
1, 173541, Note_on_c, 0, 75, 53
1, 173705, Note_on_c, 0, 62, 0
1, 173765, Note_on_c, 0, 67, 0
1, 173769, Note_on_c, 0, 58, 0
1, 173785, Note_on_c, 0, 63, 0
1, 173869, Note_on_c, 0, 79, 0
1, 173889, Note_on_c, 0, 75, 0
1, 173925, Note_on_c, 0, 67, 62
1, 173929, Note_on_c, 0, 63, 53
1, 173933, Note_on_c, 0, 58, 53
1, 173941, Note_on_c, 0, 62, 56
1, 173981, Note_on_c, 0, 87, 0
1, 174105, Note_on_c, 0, 62, 0
1, 174145, Note_on_c, 0, 67, 0
1, 174145, Note_on_c, 0, 58, 0
1, 174165, Note_on_c, 0, 63, 0
1, 174301, Note_on_c, 0, 91, 75
1, 174305, Note_on_c, 0, 67, 70
1, 174305, Note_on_c, 0, 79, 62
1, 174309, Note_on_c, 0, 63, 65
1, 174317, Note_on_c, 0, 58, 57
1, 174317, Note_on_c, 0, 86, 65
1, 174329, Note_on_c, 0, 62, 58
1, 174449, Note_on_c, 0, 58, 0
1, 174497, Note_on_c, 0, 62, 0
1, 174525, Note_on_c, 0, 67, 0
1, 174565, Note_on_c, 0, 63, 0
1, 174741, Note_on_c, 0, 67, 64
1, 174745, Note_on_c, 0, 63, 60
1, 174757, Note_on_c, 0, 58, 50
1, 174777, Note_on_c, 0, 67, 0
1, 174829, Note_on_c, 0, 86, 0
1, 174837, Note_on_c, 0, 63, 0
1, 174857, Note_on_c, 0, 58, 0
1, 174905, Note_on_c, 0, 79, 0
1, 174925, Note_on_c, 0, 91, 0
1, 175229, Note_on_c, 0, 22, 60
1, 175229, Note_on_c, 0, 89, 71
1, 175229, Note_on_c, 0, 80, 54
1, 175241, Note_on_c, 0, 87, 65
1, 175253, Note_on_c, 0, 84, 62
1, 175309, Note_on_c, 0, 22, 0
1, 175317, Note_on_c, 0, 34, 5
1, 175685, Control_c, 0, 64, 0
1, 175713, Note_on_c, 0, 22, 65
1, 175773, Control_c, 0, 64, 127
1, 175805, Note_on_c, 0, 34, 0
1, 175813, Note_on_c, 0, 22, 0
1, 175841, Note_on_c, 0, 84, 0
1, 175869, Note_on_c, 0, 89, 0
1, 175905, Note_on_c, 0, 87, 0
1, 175937, Note_on_c, 0, 80, 0
1, 176309, Note_on_c, 0, 79, 64
1, 176317, Note_on_c, 0, 75, 53
1, 176321, Note_on_c, 0, 72, 62
1, 176325, Note_on_c, 0, 68, 55
1, 176329, Note_on_c, 0, 60, 51
1, 176341, Note_on_c, 0, 63, 47
1, 176521, Note_on_c, 0, 72, 0
1, 176529, Note_on_c, 0, 79, 0
1, 176549, Note_on_c, 0, 75, 0
1, 177045, Note_on_c, 0, 83, 76
1, 177061, Note_on_c, 0, 68, 0
1, 177113, Note_on_c, 0, 60, 0
1, 177157, Note_on_c, 0, 63, 0
1, 177353, Note_on_c, 0, 83, 0
1, 177985, Note_on_c, 0, 55, 49
1, 177985, Note_on_c, 0, 93, 70
1, 177997, Note_on_c, 0, 65, 52
1, 177997, Note_on_c, 0, 81, 61
1, 178001, Note_on_c, 0, 88, 67
1, 178005, Note_on_c, 0, 60, 58
1, 178005, Note_on_c, 0, 57, 57
1, 178029, Control_c, 0, 64, 0
1, 178121, Control_c, 0, 64, 127
1, 178125, Note_on_c, 0, 65, 0
1, 178157, Note_on_c, 0, 60, 0
1, 178177, Note_on_c, 0, 55, 0
1, 178189, Note_on_c, 0, 57, 0
1, 178193, Note_on_c, 0, 81, 0
1, 178213, Note_on_c, 0, 93, 0
1, 178229, Note_on_c, 0, 88, 0
1, 178585, Note_on_c, 0, 43, 69
1, 178597, Note_on_c, 0, 96, 69
1, 178609, Note_on_c, 0, 84, 51
1, 178609, Note_on_c, 0, 91, 63
1, 178661, Note_on_c, 0, 43, 0
1, 178805, Note_on_c, 0, 84, 0
1, 178833, Note_on_c, 0, 91, 0
1, 178857, Note_on_c, 0, 96, 0
1, 179121, Control_c, 0, 64, 0
1, 179145, Note_on_c, 0, 36, 68
1, 179145, Note_on_c, 0, 43, 43
1, 179165, Note_on_c, 0, 100, 78
1, 179169, Note_on_c, 0, 88, 65
1, 179169, Note_on_c, 0, 95, 75
1, 179177, Note_on_c, 0, 52, 56
1, 179225, Control_c, 0, 64, 127
1, 179257, Note_on_c, 0, 36, 0
1, 179293, Note_on_c, 0, 43, 0
1, 179313, Note_on_c, 0, 88, 0
1, 179345, Note_on_c, 0, 95, 0
1, 179345, Note_on_c, 0, 52, 0
1, 179361, Note_on_c, 0, 100, 0
1, 179657, Note_on_c, 0, 103, 109
1, 179657, Note_on_c, 0, 64, 76
1, 179661, Note_on_c, 0, 91, 98
1, 179661, Note_on_c, 0, 98, 101
1, 179661, Note_on_c, 0, 60, 73
1, 179669, Note_on_c, 0, 59, 71
1, 179913, Note_on_c, 0, 59, 0
1, 179917, Note_on_c, 0, 91, 0
1, 179921, Note_on_c, 0, 103, 0
1, 179925, Note_on_c, 0, 60, 0
1, 179933, Note_on_c, 0, 98, 0
1, 179941, Note_on_c, 0, 64, 0
1, 180077, Note_on_c, 0, 103, 104
1, 180077, Note_on_c, 0, 64, 76
1, 180081, Note_on_c, 0, 91, 92
1, 180081, Note_on_c, 0, 98, 99
1, 180085, Note_on_c, 0, 60, 73
1, 180085, Note_on_c, 0, 59, 66
1, 180245, Note_on_c, 0, 103, 0
1, 180281, Note_on_c, 0, 98, 0
1, 180313, Note_on_c, 0, 91, 0
1, 180317, Note_on_c, 0, 60, 0
1, 180345, Note_on_c, 0, 59, 0
1, 180349, Note_on_c, 0, 64, 0
1, 180513, Note_on_c, 0, 64, 57
1, 180517, Note_on_c, 0, 60, 62
1, 180521, Note_on_c, 0, 59, 55
1, 180729, Note_on_c, 0, 60, 0
1, 180749, Note_on_c, 0, 64, 0
1, 180753, Note_on_c, 0, 59, 0
1, 180945, Note_on_c, 0, 67, 54
1, 180949, Note_on_c, 0, 64, 56
1, 180953, Note_on_c, 0, 60, 62
1, 180965, Note_on_c, 0, 59, 56
1, 181205, Note_on_c, 0, 60, 0
1, 181221, Note_on_c, 0, 64, 0
1, 181225, Note_on_c, 0, 59, 0
1, 181533, Note_on_c, 0, 64, 44
1, 181549, Note_on_c, 0, 60, 54
1, 181553, Note_on_c, 0, 59, 46
1, 182009, Note_on_c, 0, 67, 0
1, 182273, Note_on_c, 0, 59, 0
1, 182285, Note_on_c, 0, 64, 0
1, 182317, Note_on_c, 0, 60, 0
1, 183441, Note_on_c, 0, 81, 80
1, 183441, Note_on_c, 0, 71, 60
1, 183441, Control_c, 0, 64, 0
1, 183445, Note_on_c, 0, 59, 62
1, 183457, Note_on_c, 0, 74, 65
1, 183581, Control_c, 0, 64, 127
1, 183653, Note_on_c, 0, 81, 0
1, 183761, Note_on_c, 0, 79, 77
1, 183781, Note_on_c, 0, 62, 46
1, 183921, Note_on_c, 0, 79, 0
1, 183953, Note_on_c, 0, 62, 0
1, 184065, Note_on_c, 0, 71, 0
1, 184101, Note_on_c, 0, 79, 80
1, 184105, Note_on_c, 0, 71, 28
1, 184129, Note_on_c, 0, 62, 44
1, 184249, Note_on_c, 0, 59, 0
1, 184453, Note_on_c, 0, 59, 56
1, 184789, Note_on_c, 0, 79, 0
1, 184905, Note_on_c, 0, 71, 0
1, 184941, Note_on_c, 0, 74, 0
1, 185261, Note_on_c, 0, 59, 0
1, 185269, Control_c, 0, 64, 0
1, 185289, Note_on_c, 0, 79, 88
1, 185301, Note_on_c, 0, 72, 76
1, 185305, Note_on_c, 0, 62, 0
1, 185305, Note_on_c, 0, 69, 70
1, 185325, Note_on_c, 0, 57, 43
1, 185417, Control_c, 0, 64, 127
1, 185561, Note_on_c, 0, 79, 0
1, 185597, Note_on_c, 0, 77, 83
1, 185621, Note_on_c, 0, 60, 54
1, 185773, Note_on_c, 0, 77, 0
1, 185801, Note_on_c, 0, 69, 0
1, 185869, Note_on_c, 0, 72, 0
1, 185913, Note_on_c, 0, 77, 80
1, 185933, Note_on_c, 0, 65, 53
1, 185949, Note_on_c, 0, 72, 35
1, 185989, Note_on_c, 0, 72, 0
1, 186109, Note_on_c, 0, 57, 0
1, 186201, Note_on_c, 0, 77, 0
1, 186253, Note_on_c, 0, 76, 69
1, 186277, Note_on_c, 0, 57, 36
1, 186449, Note_on_c, 0, 65, 0
1, 186469, Note_on_c, 0, 76, 0
1, 186529, Note_on_c, 0, 57, 0
1, 186545, Note_on_c, 0, 60, 0
1, 186605, Control_c, 0, 64, 0
1, 186629, Note_on_c, 0, 77, 63
1, 186637, Note_on_c, 0, 56, 47
1, 186637, Note_on_c, 0, 68, 51
1, 186653, Note_on_c, 0, 72, 53
1, 186661, Note_on_c, 0, 65, 38
1, 186761, Control_c, 0, 64, 127
1, 186929, Note_on_c, 0, 77, 0
1, 186965, Note_on_c, 0, 79, 70
1, 186993, Note_on_c, 0, 65, 0
1, 187081, Note_on_c, 0, 79, 0
1, 187085, Note_on_c, 0, 72, 0
1, 187109, Note_on_c, 0, 68, 0
1, 187137, Note_on_c, 0, 56, 0
1, 187281, Control_c, 0, 64, 0
1, 187285, Note_on_c, 0, 77, 71
1, 187297, Note_on_c, 0, 67, 46
1, 187305, Note_on_c, 0, 72, 56
1, 187305, Note_on_c, 0, 55, 48
1, 187309, Note_on_c, 0, 64, 45
1, 187421, Control_c, 0, 64, 127
1, 187485, Note_on_c, 0, 77, 0
1, 187597, Note_on_c, 0, 76, 80
1, 187613, Note_on_c, 0, 64, 0
1, 187629, Note_on_c, 0, 60, 47
1, 187653, Note_on_c, 0, 67, 0
1, 187753, Note_on_c, 0, 72, 0
1, 187817, Note_on_c, 0, 76, 0
1, 187969, Note_on_c, 0, 67, 46
1, 187969, Note_on_c, 0, 76, 63
1, 187973, Note_on_c, 0, 64, 42
1, 187973, Note_on_c, 0, 72, 56
1, 188049, Note_on_c, 0, 60, 0
1, 188405, Note_on_c, 0, 60, 55
1, 188413, Note_on_c, 0, 67, 0
1, 188849, Note_on_c, 0, 67, 52
1, 189069, Note_on_c, 0, 55, 0
1, 189293, Note_on_c, 0, 55, 46
1, 189341, Note_on_c, 0, 64, 0
1, 189349, Note_on_c, 0, 76, 0
1, 189385, Note_on_c, 0, 72, 0
1, 189493, Note_on_c, 0, 67, 0
1, 189605, Note_on_c, 0, 60, 0
1, 189621, Note_on_c, 0, 55, 0
1, 190197, Control_c, 0, 64, 0
1, 190229, Note_on_c, 0, 74, 82
1, 190241, Note_on_c, 0, 65, 58
1, 190241, Note_on_c, 0, 69, 66
1, 190253, Note_on_c, 0, 55, 52
1, 190341, Control_c, 0, 64, 127
1, 190497, Note_on_c, 0, 76, 92
1, 190617, Note_on_c, 0, 65, 0
1, 190633, Note_on_c, 0, 76, 0
1, 190661, Note_on_c, 0, 74, 0
1, 190701, Note_on_c, 0, 69, 0
1, 190757, Note_on_c, 0, 77, 97
1, 190885, Note_on_c, 0, 77, 0
1, 191101, Note_on_c, 0, 81, 86
1, 191193, Note_on_c, 0, 81, 0
1, 191441, Note_on_c, 0, 77, 73
1, 191521, Note_on_c, 0, 77, 0
1, 191825, Note_on_c, 0, 74, 70
1, 191937, Note_on_c, 0, 74, 0
1, 191993, Note_on_c, 0, 55, 0
1, 192225, Note_on_c, 0, 74, 65
1, 192237, Note_on_c, 0, 67, 54
1, 192241, Note_on_c, 0, 64, 44
1, 192241, Control_c, 0, 64, 0
1, 192257, Note_on_c, 0, 43, 40
1, 192413, Control_c, 0, 64, 127
1, 192449, Note_on_c, 0, 74, 0
1, 192553, Note_on_c, 0, 67, 0
1, 192553, Note_on_c, 0, 64, 0
1, 192585, Note_on_c, 0, 72, 63
1, 192625, Note_on_c, 0, 52, 41
1, 192697, Note_on_c, 0, 72, 0
1, 193037, Note_on_c, 0, 72, 53
1, 193053, Note_on_c, 0, 64, 48
1, 193053, Note_on_c, 0, 67, 57
1, 193053, Note_on_c, 0, 55, 38
1, 193125, Note_on_c, 0, 52, 0
1, 193269, Note_on_c, 0, 43, 0
1, 193453, Note_on_c, 0, 43, 62
1, 193473, Note_on_c, 0, 64, 0
1, 193481, Note_on_c, 0, 67, 0
1, 193497, Note_on_c, 0, 55, 0
1, 193513, Note_on_c, 0, 72, 0
1, 193829, Note_on_c, 0, 54, 55
1, 193905, Note_on_c, 0, 63, 64
1, 193945, Note_on_c, 0, 66, 58
1, 193961, Note_on_c, 0, 57, 47
1, 193977, Control_c, 0, 64, 0
1, 193993, Note_on_c, 0, 69, 53
1, 194013, Note_on_c, 0, 74, 65
1, 194157, Control_c, 0, 64, 127
1, 194181, Note_on_c, 0, 54, 0
1, 194377, Note_on_c, 0, 43, 0
1, 194533, Note_on_c, 0, 43, 58
1, 194569, Note_on_c, 0, 57, 0
1, 194661, Note_on_c, 0, 74, 0
1, 194753, Note_on_c, 0, 63, 0
1, 194765, Note_on_c, 0, 69, 0
1, 194825, Note_on_c, 0, 43, 0
1, 194893, Note_on_c, 0, 66, 0
1, 195117, Control_c, 0, 64, 0
1, 195149, Note_on_c, 0, 72, 67
1, 195161, Note_on_c, 0, 65, 59
1, 195161, Note_on_c, 0, 60, 60
1, 195165, Note_on_c, 0, 43, 58
1, 195165, Note_on_c, 0, 69, 64
1, 195173, Note_on_c, 0, 55, 50
1, 195269, Control_c, 0, 64, 127
1, 195397, Note_on_c, 0, 55, 0
1, 195397, Note_on_c, 0, 69, 0
1, 195405, Note_on_c, 0, 72, 0
1, 195413, Note_on_c, 0, 60, 0
1, 195473, Note_on_c, 0, 65, 0
1, 195553, Note_on_c, 0, 43, 0
1, 195785, Note_on_c, 0, 71, 66
1, 195937, Note_on_c, 0, 71, 0
1, 196545, Control_c, 0, 64, 0
1, 196577, Note_on_c, 0, 71, 41
1, 196589, Note_on_c, 0, 63, 47
1, 196589, Note_on_c, 0, 67, 47
1, 196597, Note_on_c, 0, 59, 41
1, 196597, Note_on_c, 0, 43, 44
1, 196621, Note_on_c, 0, 31, 42
1, 196793, Control_c, 0, 64, 127
1, 197029, Note_on_c, 0, 67, 0
1, 197209, Note_on_c, 0, 63, 0
1, 197357, Note_on_c, 0, 63, 56
1, 197589, Note_on_c, 0, 71, 0
1, 197689, Note_on_c, 0, 43, 0
1, 197777, Note_on_c, 0, 59, 0
1, 197905, Note_on_c, 0, 63, 0
1, 198113, Note_on_c, 0, 59, 35
1, 198113, Note_on_c, 0, 62, 42
1, 198113, Note_on_c, 0, 43, 36
1, 199129, Note_on_c, 0, 59, 0
1, 199229, Note_on_c, 0, 62, 0
1, 199741, Note_on_c, 0, 62, 49
1, 199785, Note_on_c, 0, 31, 0
1, 199953, Note_on_c, 0, 43, 0
1, 200217, Note_on_c, 0, 62, 0
1, 201205, Control_c, 0, 64, 0
1, 201225, Note_on_c, 0, 36, 49
1, 201237, Note_on_c, 0, 59, 48
1, 201249, Note_on_c, 0, 55, 27
1, 201269, Note_on_c, 0, 52, 30
1, 201389, Control_c, 0, 64, 127
1, 201441, Note_on_c, 0, 55, 0
1, 201509, Note_on_c, 0, 59, 0
1, 201657, Note_on_c, 0, 43, 62
1, 201669, Note_on_c, 0, 52, 0
1, 201709, Note_on_c, 0, 36, 0
1, 201917, Note_on_c, 0, 43, 0
1, 201997, Note_on_c, 0, 52, 49
1, 202017, Note_on_c, 0, 76, 62
1, 202025, Note_on_c, 0, 67, 44
1, 202029, Note_on_c, 0, 52, 0
1, 202153, Note_on_c, 0, 67, 0
1, 202241, Note_on_c, 0, 76, 0
1, 202385, Note_on_c, 0, 60, 46
1, 202801, Note_on_c, 0, 76, 55
1, 202805, Note_on_c, 0, 83, 54
1, 202813, Note_on_c, 0, 64, 39
1, 203465, Note_on_c, 0, 64, 0
1, 203489, Note_on_c, 0, 83, 0
1, 203489, Note_on_c, 0, 60, 0
1, 203565, Note_on_c, 0, 76, 0
1, 204121, Control_c, 0, 64, 0
1, 204149, Note_on_c, 0, 36, 61
1, 204245, Control_c, 0, 64, 127
1, 204593, Note_on_c, 0, 36, 0
1, 204601, Note_on_c, 0, 45, 54
1, 204957, Note_on_c, 0, 45, 0
1, 205001, Note_on_c, 0, 53, 47
1, 205001, Note_on_c, 0, 60, 53
1, 205009, Note_on_c, 0, 57, 36
1, 205093, Note_on_c, 0, 57, 0
1, 205277, Note_on_c, 0, 60, 0
1, 205385, Note_on_c, 0, 57, 56
1, 205401, Note_on_c, 0, 53, 0
1, 205809, Note_on_c, 0, 81, 69
1, 205833, Note_on_c, 0, 72, 48
1, 205849, Note_on_c, 0, 60, 43
1, 206277, Note_on_c, 0, 60, 0
1, 206277, Note_on_c, 0, 57, 0
1, 206661, Note_on_c, 0, 81, 0
1, 206689, Note_on_c, 0, 72, 0
1, 207365, Control_c, 0, 64, 0
1, 207441, Note_on_c, 0, 36, 58
1, 207661, Control_c, 0, 64, 127
1, 207881, Note_on_c, 0, 43, 49
1, 208277, Note_on_c, 0, 36, 0
1, 208309, Note_on_c, 0, 43, 0
1, 208313, Note_on_c, 0, 67, 37
1, 208313, Note_on_c, 0, 57, 43
1, 208313, Note_on_c, 0, 62, 46
1, 208317, Note_on_c, 0, 59, 41
1, 208321, Control_c, 0, 64, 0
1, 208321, Note_on_c, 0, 50, 54
1, 208385, Control_c, 0, 64, 127
1, 208549, Note_on_c, 0, 57, 0
1, 208553, Note_on_c, 0, 59, 0
1, 208677, Note_on_c, 0, 67, 0
1, 208685, Note_on_c, 0, 62, 0
1, 208729, Note_on_c, 0, 50, 0
1, 208753, Note_on_c, 0, 52, 45
1, 209193, Note_on_c, 0, 52, 0
1, 209201, Note_on_c, 0, 76, 62
1, 209217, Note_on_c, 0, 67, 44
1, 209237, Note_on_c, 0, 60, 39
1, 209325, Note_on_c, 0, 67, 0
1, 209413, Note_on_c, 0, 76, 0
1, 209605, Note_on_c, 0, 60, 0
1, 209721, Note_on_c, 0, 67, 43
1, 210169, Note_on_c, 0, 67, 0
1, 210209, Note_on_c, 0, 88, 50
1, 210233, Note_on_c, 0, 72, 46
1, 210245, Note_on_c, 0, 79, 36
1, 210305, Note_on_c, 0, 79, 0
1, 210397, Note_on_c, 0, 88, 0
1, 210713, Note_on_c, 0, 72, 0
1, 210729, Note_on_c, 0, 76, 43
1, 211293, Note_on_c, 0, 79, 54
1, 211293, Note_on_c, 0, 102, 50
1, 211297, Note_on_c, 0, 76, 0
1, 211317, Note_on_c, 0, 93, 33
1, 211885, Note_on_c, 0, 83, 52
1, 211941, Note_on_c, 0, 79, 0
1, 211961, Note_on_c, 0, 93, 0
1, 211969, Note_on_c, 0, 83, 0
1, 212101, Note_on_c, 0, 102, 0
1, 213261, Note_on_c, 0, 108, 47
1, 213297, Note_on_c, 0, 24, 42
1, 213781, Note_on_c, 0, 108, 0
1, 213813, Note_on_c, 0, 24, 0
1, 215933, Control_c, 0, 64, 0
1, 215961, System_exclusive, 8, 67, 16, 76, 3, 0, 12, 127, 247
1, 215961, End_track
0, 0, End_of_file
