0, 0, Header, 1, 5, 960
1, 0, Start_track
1, 0, Title_t, "A Remark You Made"
1, 0, Text_t, "Joe Zawinul"
1, 0, Text_t, "dougmck@tpg.com.au - solo version of this great tune from Weather Report's 'Heavy Weather' Album.\012"
1, 0, Time_signature, 4, 2, 24, 8
1, 0, Key_signature, -3, "major"
1, 0, Tempo, 1000000
1, 0, End_track
2, 0, Start_track
2, 0, Title_t, "Audio 1"
2, 0, Control_c, 0, 7, 113
2, 0, Control_c, 0, 10, 64
2, 0, End_track
3, 0, Start_track
3, 0, Title_t, "MIDI 1"
3, 0, Control_c, 0, 0, 0
3, 0, Control_c, 0, 91, 0
3, 0, Control_c, 0, 93, 24
3, 0, Control_c, 0, 64, 127
3, 0, Control_c, 0, 64, 0
3, 1, Control_c, 0, 32, 0
3, 2, Program_c, 0, 0
3, 758, Note_on_c, 0, 67, 37
3, 760, Note_on_c, 0, 60, 30
3, 772, Note_on_c, 0, 62, 44
3, 779, Note_on_c, 0, 55, 27
3, 783, Note_on_c, 0, 46, 27
3, 796, Note_on_c, 0, 39, 31
3, 957, Control_c, 0, 64, 127
3, 2259, Note_on_c, 0, 67, 0
3, 2320, Note_on_c, 0, 55, 0
3, 2336, Note_on_c, 0, 62, 0
3, 2390, Note_on_c, 0, 46, 0
3, 2410, Note_on_c, 0, 60, 0
3, 2810, Note_on_c, 0, 46, 49
3, 2811, Note_on_c, 0, 58, 70
3, 3289, Note_on_c, 0, 58, 0
3, 3312, Note_on_c, 0, 60, 22
3, 3322, Note_on_c, 0, 46, 0
3, 3354, Note_on_c, 0, 48, 32
3, 3426, Note_on_c, 0, 58, 49
3, 3450, Note_on_c, 0, 46, 33
3, 3481, Note_on_c, 0, 60, 0
3, 3494, Note_on_c, 0, 39, 0
3, 3504, Note_on_c, 0, 48, 0
3, 3546, Control_c, 0, 64, 0
3, 3577, Note_on_c, 0, 46, 0
3, 3588, Note_on_c, 0, 55, 59
3, 3624, Note_on_c, 0, 58, 0
3, 3641, Note_on_c, 0, 43, 50
3, 3896, Note_on_c, 0, 58, 68
3, 3905, Note_on_c, 0, 55, 0
3, 3929, Note_on_c, 0, 46, 46
3, 3977, Note_on_c, 0, 43, 0
3, 4304, Note_on_c, 0, 60, 43
3, 4321, Note_on_c, 0, 48, 45
3, 4326, Note_on_c, 0, 46, 0
3, 4342, Note_on_c, 0, 58, 0
3, 4691, Note_on_c, 0, 60, 0
3, 4708, Note_on_c, 0, 48, 0
3, 4728, Note_on_c, 0, 63, 44
3, 4730, Note_on_c, 0, 51, 36
3, 4815, Control_c, 0, 64, 127
3, 5123, Note_on_c, 0, 63, 0
3, 5212, Note_on_c, 0, 51, 0
3, 5236, Note_on_c, 0, 65, 35
3, 5251, Note_on_c, 0, 53, 28
3, 5376, Note_on_c, 0, 53, 0
3, 5498, Note_on_c, 0, 65, 0
3, 6193, Note_on_c, 0, 58, 43
3, 6229, Note_on_c, 0, 60, 30
3, 6244, Note_on_c, 0, 68, 42
3, 6304, Note_on_c, 0, 72, 55
3, 6338, Note_on_c, 0, 68, 0
3, 6346, Note_on_c, 0, 75, 49
3, 6354, Control_c, 0, 64, 0
3, 6378, Note_on_c, 0, 63, 29
3, 6397, Note_on_c, 0, 68, 37
3, 6429, Note_on_c, 0, 79, 52
3, 6480, Control_c, 0, 64, 127
3, 6486, Note_on_c, 0, 72, 0
3, 6536, Note_on_c, 0, 75, 0
3, 6594, Note_on_c, 0, 79, 0
3, 6762, Note_on_c, 0, 91, 64
3, 6829, Note_on_c, 0, 91, 0
3, 7146, Note_on_c, 0, 105, 45
3, 7158, Note_on_c, 0, 103, 43
3, 7215, Note_on_c, 0, 103, 0
3, 7217, Note_on_c, 0, 105, 0
3, 7578, Note_on_c, 0, 103, 44
3, 7669, Note_on_c, 0, 68, 0
3, 7676, Note_on_c, 0, 63, 0
3, 7697, Note_on_c, 0, 60, 0
3, 7739, Note_on_c, 0, 58, 0
3, 7845, Note_on_c, 0, 103, 0
3, 8025, Note_on_c, 0, 103, 48
3, 8345, Note_on_c, 0, 103, 0
3, 8497, Note_on_c, 0, 103, 28
3, 8724, Note_on_c, 0, 103, 0
3, 8971, Note_on_c, 0, 22, 31
3, 9438, Note_on_c, 0, 22, 0
3, 10592, Note_on_c, 0, 82, 45
3, 10908, Note_on_c, 0, 82, 0
3, 12889, Note_on_c, 0, 79, 55
3, 12916, Control_c, 0, 64, 0
3, 12924, Note_on_c, 0, 63, 38
3, 12929, Note_on_c, 0, 70, 39
3, 13157, Control_c, 0, 64, 127
3, 13261, Note_on_c, 0, 79, 0
3, 13379, Note_on_c, 0, 79, 53
3, 13415, Note_on_c, 0, 70, 0
3, 13531, Note_on_c, 0, 79, 0
3, 13728, Note_on_c, 0, 63, 0
3, 13735, Control_c, 0, 64, 0
3, 13737, Note_on_c, 0, 62, 39
3, 13744, Note_on_c, 0, 79, 50
3, 13761, Note_on_c, 0, 75, 37
3, 13795, Note_on_c, 0, 70, 11
3, 13918, Control_c, 0, 64, 127
3, 14005, Note_on_c, 0, 79, 0
3, 14091, Note_on_c, 0, 70, 0
3, 14126, Note_on_c, 0, 79, 57
3, 14157, Note_on_c, 0, 75, 0
3, 14315, Note_on_c, 0, 79, 0
3, 14475, Control_c, 0, 64, 0
3, 14488, Note_on_c, 0, 62, 0
3, 14504, Note_on_c, 0, 79, 47
3, 14510, Note_on_c, 0, 60, 34
3, 14519, Note_on_c, 0, 75, 46
3, 14559, Note_on_c, 0, 70, 25
3, 14649, Control_c, 0, 64, 127
3, 14686, Note_on_c, 0, 79, 0
3, 14769, Note_on_c, 0, 75, 0
3, 14906, Note_on_c, 0, 70, 0
3, 14966, Note_on_c, 0, 82, 65
3, 15566, Note_on_c, 0, 60, 0
3, 15576, Note_on_c, 0, 58, 49
3, 15582, Control_c, 0, 64, 0
3, 15765, Control_c, 0, 64, 127
3, 15864, Note_on_c, 0, 82, 0
3, 16423, Note_on_c, 0, 70, 78
3, 16511, Note_on_c, 0, 58, 0
3, 17196, Note_on_c, 0, 70, 0
3, 17539, Note_on_c, 0, 72, 53
3, 17544, Note_on_c, 0, 67, 66
3, 17548, Note_on_c, 0, 44, 65
3, 17548, Note_on_c, 0, 60, 59
3, 17560, Note_on_c, 0, 32, 58
3, 17584, Control_c, 0, 64, 0
3, 17585, Note_on_c, 0, 60, 0
3, 17614, Note_on_c, 0, 44, 0
3, 17629, Note_on_c, 0, 32, 0
3, 17635, Note_on_c, 0, 67, 0
3, 17656, Note_on_c, 0, 72, 0
3, 18126, Note_on_c, 0, 38, 54
3, 18141, Note_on_c, 0, 26, 45
3, 18142, Note_on_c, 0, 66, 55
3, 18143, Note_on_c, 0, 77, 59
3, 18152, Note_on_c, 0, 72, 53
3, 18219, Control_c, 0, 64, 127
3, 18622, Note_on_c, 0, 26, 0
3, 18696, Note_on_c, 0, 38, 0
3, 18811, Note_on_c, 0, 77, 0
3, 18882, Note_on_c, 0, 72, 0
3, 19035, Note_on_c, 0, 66, 0
3, 20067, Note_on_c, 0, 71, 42
3, 20069, Note_on_c, 0, 68, 35
3, 20076, Control_c, 0, 64, 0
3, 20078, Note_on_c, 0, 74, 43
3, 20084, Note_on_c, 0, 65, 28
3, 20085, Note_on_c, 0, 31, 38
3, 20093, Note_on_c, 0, 43, 30
3, 20509, Control_c, 0, 64, 127
3, 20760, Note_on_c, 0, 65, 0
3, 20798, Note_on_c, 0, 68, 0
3, 20805, Note_on_c, 0, 71, 0
3, 20820, Note_on_c, 0, 74, 0
3, 20842, Note_on_c, 0, 31, 0
3, 20893, Note_on_c, 0, 43, 0
3, 21450, Note_on_c, 0, 88, 36
3, 21491, Note_on_c, 0, 84, 48
3, 21504, Note_on_c, 0, 86, 28
3, 21517, Note_on_c, 0, 80, 37
3, 21580, Note_on_c, 0, 86, 0
3, 21620, Note_on_c, 0, 88, 0
3, 21628, Note_on_c, 0, 79, 24
3, 22800, Note_on_c, 0, 84, 0
3, 22940, Note_on_c, 0, 79, 0
3, 22948, Note_on_c, 0, 80, 0
3, 24869, Note_on_c, 0, 72, 46
3, 25303, Note_on_c, 0, 60, 24
3, 25359, Control_c, 0, 64, 0
3, 25656, Note_on_c, 0, 67, 37
3, 25705, Control_c, 0, 64, 127
3, 25961, Note_on_c, 0, 74, 71
3, 26257, Note_on_c, 0, 75, 75
3, 26262, Note_on_c, 0, 67, 0
3, 26300, Note_on_c, 0, 74, 0
3, 26301, Note_on_c, 0, 72, 0
3, 26483, Note_on_c, 0, 60, 0
3, 26546, Note_on_c, 0, 75, 0
3, 26555, Note_on_c, 0, 72, 49
3, 26912, Note_on_c, 0, 80, 47
3, 26928, Control_c, 0, 64, 0
3, 26928, Note_on_c, 0, 48, 31
3, 27309, Note_on_c, 0, 56, 33
3, 27332, Control_c, 0, 64, 127
3, 27795, Note_on_c, 0, 60, 28
3, 28490, Note_on_c, 0, 80, 0
3, 28586, Note_on_c, 0, 48, 0
3, 28680, Note_on_c, 0, 56, 0
3, 28719, Note_on_c, 0, 60, 0
3, 28813, Note_on_c, 0, 80, 47
3, 28868, Note_on_c, 0, 72, 0
3, 29066, Note_on_c, 0, 80, 0
3, 29370, Note_on_c, 0, 79, 46
3, 29400, Control_c, 0, 64, 0
3, 29460, Note_on_c, 0, 79, 0
3, 29653, Note_on_c, 0, 59, 31
3, 29868, Note_on_c, 0, 59, 0
3, 29946, Note_on_c, 0, 62, 43
3, 30032, Note_on_c, 0, 62, 0
3, 30220, Note_on_c, 0, 77, 57
3, 30379, Note_on_c, 0, 77, 0
3, 30476, Note_on_c, 0, 75, 45
3, 30634, Note_on_c, 0, 75, 0
3, 30739, Note_on_c, 0, 58, 34
3, 30950, Note_on_c, 0, 58, 0
3, 31030, Note_on_c, 0, 63, 35
3, 31177, Note_on_c, 0, 63, 0
3, 31662, Note_on_c, 0, 79, 51
3, 31786, Note_on_c, 0, 79, 0
3, 31928, Note_on_c, 0, 77, 50
3, 32067, Note_on_c, 0, 77, 0
3, 32175, Note_on_c, 0, 57, 43
3, 32475, Note_on_c, 0, 65, 33
3, 32560, Note_on_c, 0, 57, 0
3, 32575, Note_on_c, 0, 65, 0
3, 32762, Note_on_c, 0, 75, 42
3, 32958, Note_on_c, 0, 75, 0
3, 33051, Note_on_c, 0, 74, 48
3, 33278, Note_on_c, 0, 74, 0
3, 33349, Note_on_c, 0, 56, 47
3, 33741, Note_on_c, 0, 65, 32
3, 33830, Note_on_c, 0, 65, 0
3, 33844, Note_on_c, 0, 56, 0
3, 34174, Note_on_c, 0, 72, 46
3, 34550, Note_on_c, 0, 72, 0
3, 34587, Control_c, 0, 64, 127
3, 34593, Note_on_c, 0, 70, 50
3, 34644, Note_on_c, 0, 55, 22
3, 34934, Note_on_c, 0, 62, 43
3, 35219, Note_on_c, 0, 67, 59
3, 35309, Note_on_c, 0, 62, 0
3, 35366, Note_on_c, 0, 55, 0
3, 35484, Note_on_c, 0, 77, 68
3, 35535, Note_on_c, 0, 70, 0
3, 35769, Note_on_c, 0, 77, 0
3, 35821, Note_on_c, 0, 67, 0
3, 35837, Control_c, 0, 64, 0
3, 35843, Note_on_c, 0, 75, 59
3, 35850, Note_on_c, 0, 48, 41
3, 35982, Control_c, 0, 64, 127
3, 36186, Note_on_c, 0, 75, 0
3, 36214, Note_on_c, 0, 55, 33
3, 36612, Note_on_c, 0, 67, 40
3, 36960, Note_on_c, 0, 48, 0
3, 36989, Note_on_c, 0, 67, 0
3, 37034, Note_on_c, 0, 67, 40
3, 37108, Note_on_c, 0, 55, 0
3, 37184, Note_on_c, 0, 67, 0
3, 37482, Note_on_c, 0, 68, 42
3, 37488, Note_on_c, 0, 63, 45
3, 37494, Note_on_c, 0, 60, 22
3, 37496, Note_on_c, 0, 56, 51
3, 37501, Note_on_c, 0, 48, 43
3, 37520, Control_c, 0, 64, 0
3, 37746, Control_c, 0, 64, 127
3, 38860, Note_on_c, 0, 60, 0
3, 39226, Note_on_c, 0, 60, 80
3, 39283, Note_on_c, 0, 68, 0
3, 39284, Note_on_c, 0, 63, 0
3, 39403, Note_on_c, 0, 60, 0
3, 39447, Note_on_c, 0, 63, 90
3, 39631, Note_on_c, 0, 63, 0
3, 39675, Note_on_c, 0, 68, 85
3, 39925, Note_on_c, 0, 63, 76
3, 39946, Note_on_c, 0, 48, 0
3, 40117, Note_on_c, 0, 68, 0
3, 40142, Note_on_c, 0, 56, 0
3, 40189, Note_on_c, 0, 63, 0
3, 40268, Control_c, 0, 64, 0
3, 40269, Note_on_c, 0, 62, 50
3, 40278, Note_on_c, 0, 67, 51
3, 40290, Note_on_c, 0, 55, 34
3, 40298, Note_on_c, 0, 47, 34
3, 40489, Control_c, 0, 64, 127
3, 40652, Note_on_c, 0, 55, 0
3, 40848, Note_on_c, 0, 62, 0
3, 41009, Note_on_c, 0, 67, 0
3, 41029, Note_on_c, 0, 55, 37
3, 41611, Note_on_c, 0, 79, 66
3, 41658, Note_on_c, 0, 71, 65
3, 41659, Note_on_c, 0, 55, 0
3, 41664, Note_on_c, 0, 47, 0
3, 41679, Note_on_c, 0, 59, 41
3, 41979, Note_on_c, 0, 79, 0
3, 41982, Note_on_c, 0, 71, 0
3, 42066, Note_on_c, 0, 59, 0
3, 42084, Note_on_c, 0, 79, 55
3, 42084, Note_on_c, 0, 71, 43
3, 42106, Note_on_c, 0, 62, 41
3, 42158, Note_on_c, 0, 71, 0
3, 42210, Note_on_c, 0, 79, 0
3, 42548, Note_on_c, 0, 86, 53
3, 42577, Note_on_c, 0, 79, 46
3, 42590, Note_on_c, 0, 74, 56
3, 42601, Note_on_c, 0, 67, 35
3, 42724, Note_on_c, 0, 62, 0
3, 43215, Note_on_c, 0, 71, 36
3, 43301, Note_on_c, 0, 67, 0
3, 43535, Note_on_c, 0, 74, 0
3, 43737, Note_on_c, 0, 86, 0
3, 43773, Note_on_c, 0, 74, 44
3, 44432, Note_on_c, 0, 71, 0
3, 44699, Note_on_c, 0, 84, 46
3, 44931, Note_on_c, 0, 84, 0
3, 44997, Note_on_c, 0, 79, 0
3, 45005, Note_on_c, 0, 74, 0
3, 45009, Note_on_c, 0, 83, 51
3, 45158, Note_on_c, 0, 83, 0
3, 45559, Note_on_c, 0, 86, 44
3, 45611, Note_on_c, 0, 83, 41
3, 45631, Control_c, 0, 64, 0
3, 45642, Note_on_c, 0, 79, 38
3, 45669, Note_on_c, 0, 51, 30
3, 45683, Note_on_c, 0, 59, 30
3, 45736, Note_on_c, 0, 74, 13
3, 46015, Control_c, 0, 64, 127
3, 46653, Note_on_c, 0, 86, 0
3, 46678, Note_on_c, 0, 83, 0
3, 46792, Note_on_c, 0, 79, 0
3, 46876, Note_on_c, 0, 74, 0
3, 47051, Note_on_c, 0, 84, 51
3, 47201, Note_on_c, 0, 59, 0
3, 47229, Note_on_c, 0, 51, 0
3, 47293, Note_on_c, 0, 84, 0
3, 47315, Note_on_c, 0, 79, 37
3, 47434, Note_on_c, 0, 79, 0
3, 47601, Note_on_c, 0, 82, 49
3, 47622, Note_on_c, 0, 53, 30
3, 47642, Control_c, 0, 64, 0
3, 47892, Control_c, 0, 64, 127
3, 47916, Note_on_c, 0, 60, 31
3, 48022, Note_on_c, 0, 53, 0
3, 48152, Note_on_c, 0, 60, 0
3, 48194, Note_on_c, 0, 67, 34
3, 48502, Note_on_c, 0, 67, 0
3, 48530, Note_on_c, 0, 68, 29
3, 48863, Note_on_c, 0, 70, 31
3, 49658, Note_on_c, 0, 68, 0
3, 49842, Note_on_c, 0, 82, 0
3, 49960, Note_on_c, 0, 70, 0
3, 50612, Note_on_c, 0, 63, 40
3, 50719, Note_on_c, 0, 60, 29
3, 50720, Note_on_c, 0, 56, 46
3, 50796, Note_on_c, 0, 41, 33
3, 50797, Control_c, 0, 64, 0
3, 50817, Note_on_c, 0, 55, 33
3, 50822, Note_on_c, 0, 51, 25
3, 51048, Control_c, 0, 64, 127
3, 51500, Note_on_c, 0, 55, 0
3, 51534, Note_on_c, 0, 60, 0
3, 51575, Note_on_c, 0, 56, 0
3, 51622, Note_on_c, 0, 41, 0
3, 51725, Note_on_c, 0, 63, 0
3, 51729, Note_on_c, 0, 51, 0
3, 52963, Note_on_c, 0, 63, 51
3, 52982, Note_on_c, 0, 51, 35
3, 53020, Control_c, 0, 64, 0
3, 53106, Control_c, 0, 64, 127
3, 53207, Note_on_c, 0, 63, 0
3, 53220, Note_on_c, 0, 56, 56
3, 53224, Note_on_c, 0, 68, 58
3, 53326, Note_on_c, 0, 51, 0
3, 53473, Control_c, 0, 64, 0
3, 53479, Note_on_c, 0, 56, 0
3, 53503, Note_on_c, 0, 65, 66
3, 53510, Note_on_c, 0, 53, 39
3, 53553, Note_on_c, 0, 68, 0
3, 53694, Control_c, 0, 64, 127
3, 53828, Note_on_c, 0, 58, 40
3, 53851, Note_on_c, 0, 70, 62
3, 53949, Note_on_c, 0, 65, 0
3, 53970, Note_on_c, 0, 53, 0
3, 54020, Note_on_c, 0, 58, 0
3, 54049, Note_on_c, 0, 70, 0
3, 54323, Note_on_c, 0, 68, 46
3, 54329, Note_on_c, 0, 60, 27
3, 54338, Control_c, 0, 64, 0
3, 54344, Note_on_c, 0, 51, 36
3, 54346, Note_on_c, 0, 63, 38
3, 54522, Control_c, 0, 64, 127
3, 54621, Note_on_c, 0, 60, 0
3, 54686, Note_on_c, 0, 68, 0
3, 54721, Note_on_c, 0, 63, 0
3, 55066, Note_on_c, 0, 72, 61
3, 55401, Note_on_c, 0, 72, 0
3, 55426, Note_on_c, 0, 70, 62
3, 55714, Note_on_c, 0, 70, 0
3, 55764, Note_on_c, 0, 77, 74
3, 56031, Note_on_c, 0, 77, 0
3, 56062, Note_on_c, 0, 51, 0
3, 56143, Note_on_c, 0, 74, 60
3, 56148, Note_on_c, 0, 70, 36
3, 56151, Note_on_c, 0, 58, 25
3, 56158, Control_c, 0, 64, 0
3, 56166, Note_on_c, 0, 50, 40
3, 56378, Control_c, 0, 64, 127
3, 56574, Note_on_c, 0, 74, 0
3, 56575, Note_on_c, 0, 70, 0
3, 56628, Note_on_c, 0, 79, 55
3, 57560, Note_on_c, 0, 50, 0
3, 57684, Note_on_c, 0, 58, 0
3, 57844, Note_on_c, 0, 79, 0
3, 57932, Note_on_c, 0, 77, 60
3, 58609, Note_on_c, 0, 76, 38
3, 58623, Note_on_c, 0, 77, 0
3, 58714, Note_on_c, 0, 76, 0
3, 58715, Note_on_c, 0, 75, 40
3, 58831, Note_on_c, 0, 74, 44
3, 58833, Control_c, 0, 64, 0
3, 58869, Note_on_c, 0, 59, 35
3, 58880, Note_on_c, 0, 75, 0
3, 58941, Note_on_c, 0, 65, 6
3, 59111, Control_c, 0, 64, 127
3, 59277, Note_on_c, 0, 65, 0
3, 59910, Note_on_c, 0, 67, 30
3, 59911, Note_on_c, 0, 62, 1
3, 60633, Note_on_c, 0, 75, 60
3, 60681, Note_on_c, 0, 74, 0
3, 60875, Note_on_c, 0, 75, 0
3, 61061, Note_on_c, 0, 77, 92
3, 61146, Note_on_c, 0, 67, 0
3, 61250, Note_on_c, 0, 77, 0
3, 61675, Note_on_c, 0, 68, 87
3, 61945, Note_on_c, 0, 62, 0
3, 62041, Note_on_c, 0, 59, 0
3, 62050, Note_on_c, 0, 68, 0
3, 62224, Note_on_c, 0, 68, 79
3, 62253, Note_on_c, 0, 59, 53
3, 62258, Control_c, 0, 64, 0
3, 62524, Note_on_c, 0, 68, 0
3, 62538, Note_on_c, 0, 67, 71
3, 62604, Control_c, 0, 64, 127
3, 62881, Note_on_c, 0, 67, 0
3, 62900, Note_on_c, 0, 65, 62
3, 63626, Note_on_c, 0, 62, 30
3, 63657, Note_on_c, 0, 65, 0
3, 63893, Note_on_c, 0, 62, 0
3, 64085, Note_on_c, 0, 67, 47
3, 64375, Note_on_c, 0, 67, 0
3, 64386, Note_on_c, 0, 71, 69
3, 64632, Note_on_c, 0, 71, 0
3, 64791, Note_on_c, 0, 77, 78
3, 64914, Note_on_c, 0, 59, 0
3, 65191, Note_on_c, 0, 77, 0
3, 65213, Note_on_c, 0, 74, 58
3, 65735, Note_on_c, 0, 74, 0
3, 65765, Note_on_c, 0, 75, 49
3, 65790, Control_c, 0, 64, 0
3, 65844, Note_on_c, 0, 48, 15
3, 66164, Note_on_c, 0, 75, 0
3, 66204, Control_c, 0, 64, 127
3, 66208, Note_on_c, 0, 74, 39
3, 66215, Note_on_c, 0, 55, 26
3, 66616, Note_on_c, 0, 74, 0
3, 66656, Control_c, 0, 64, 0
3, 66704, Note_on_c, 0, 72, 42
3, 66715, Note_on_c, 0, 60, 24
3, 66732, Control_c, 0, 64, 127
3, 66997, Note_on_c, 0, 55, 0
3, 67220, Note_on_c, 0, 60, 0
3, 67224, Note_on_c, 0, 55, 24
3, 67372, Note_on_c, 0, 55, 0
3, 67381, Note_on_c, 0, 48, 0
3, 68245, Note_on_c, 0, 70, 56
3, 68311, Note_on_c, 0, 72, 0
3, 68506, Note_on_c, 0, 67, 47
3, 68636, Note_on_c, 0, 70, 0
3, 68719, Note_on_c, 0, 67, 0
3, 68924, Note_on_c, 0, 65, 40
3, 68932, Note_on_c, 0, 46, 29
3, 68937, Control_c, 0, 64, 0
3, 69043, Note_on_c, 0, 55, 1
3, 69167, Control_c, 0, 64, 127
3, 69311, Note_on_c, 0, 67, 43
3, 69344, Note_on_c, 0, 65, 0
3, 69670, Note_on_c, 0, 46, 0
3, 69840, Note_on_c, 0, 46, 38
3, 70441, Note_on_c, 0, 67, 0
3, 71348, Note_on_c, 0, 55, 0
3, 71638, Note_on_c, 0, 62, 49
3, 71823, Note_on_c, 0, 62, 0
3, 71844, Note_on_c, 0, 46, 0
3, 72150, Control_c, 0, 64, 0
3, 72156, Note_on_c, 0, 62, 62
3, 72186, Note_on_c, 0, 51, 33
3, 72186, Note_on_c, 0, 44, 32
3, 72352, Control_c, 0, 64, 127
3, 72460, Note_on_c, 0, 62, 0
3, 72492, Note_on_c, 0, 63, 59
3, 72794, Note_on_c, 0, 51, 0
3, 72882, Note_on_c, 0, 60, 48
3, 72896, Note_on_c, 0, 51, 33
3, 73194, Note_on_c, 0, 60, 0
3, 73296, Note_on_c, 0, 63, 0
3, 73339, Note_on_c, 0, 60, 29
3, 73426, Note_on_c, 0, 60, 0
3, 73469, Note_on_c, 0, 44, 0
3, 73476, Note_on_c, 0, 51, 0
3, 73824, Control_c, 0, 64, 0
3, 73833, Note_on_c, 0, 57, 45
3, 73838, Note_on_c, 0, 60, 34
3, 73849, Note_on_c, 0, 43, 32
3, 73862, Note_on_c, 0, 53, 22
3, 73863, Note_on_c, 0, 50, 32
3, 74026, Control_c, 0, 64, 127
3, 74368, Note_on_c, 0, 57, 0
3, 74374, Note_on_c, 0, 60, 0
3, 74425, Note_on_c, 0, 53, 0
3, 74486, Note_on_c, 0, 57, 30
3, 74794, Note_on_c, 0, 50, 0
3, 74908, Note_on_c, 0, 57, 0
3, 75063, Note_on_c, 0, 43, 0
3, 75204, Note_on_c, 0, 57, 27
3, 75208, Note_on_c, 0, 43, 24
3, 75214, Note_on_c, 0, 60, 26
3, 75226, Note_on_c, 0, 53, 16
3, 75421, Control_c, 0, 64, 0
3, 75508, Control_c, 0, 64, 127
3, 75806, Note_on_c, 0, 53, 0
3, 75843, Note_on_c, 0, 57, 0
3, 75899, Note_on_c, 0, 60, 0
3, 76624, Note_on_c, 0, 43, 0
3, 77035, Note_on_c, 0, 82, 60
3, 77279, Note_on_c, 0, 82, 0
3, 77302, Note_on_c, 0, 84, 63
3, 77317, Control_c, 0, 64, 0
3, 77344, Note_on_c, 0, 48, 35
3, 77461, Control_c, 0, 64, 127
3, 77777, Note_on_c, 0, 84, 0
3, 77813, Note_on_c, 0, 55, 33
3, 77839, Note_on_c, 0, 48, 0
3, 77875, Note_on_c, 0, 55, 0
3, 78311, Note_on_c, 0, 77, 53
3, 78363, Note_on_c, 0, 74, 44
3, 78372, Note_on_c, 0, 70, 33
3, 78406, Note_on_c, 0, 65, 34
3, 78426, Note_on_c, 0, 67, 28
3, 78789, Note_on_c, 0, 65, 0
3, 78911, Note_on_c, 0, 74, 0
3, 79166, Note_on_c, 0, 77, 0
3, 79271, Note_on_c, 0, 70, 0
3, 79394, Note_on_c, 0, 67, 0
3, 80338, Note_on_c, 0, 82, 44
3, 80498, Note_on_c, 0, 82, 0
3, 80536, Note_on_c, 0, 84, 55
3, 80562, Note_on_c, 0, 48, 33
3, 80569, Control_c, 0, 64, 0
3, 80676, Control_c, 0, 64, 127
3, 80804, Note_on_c, 0, 84, 0
3, 81082, Note_on_c, 0, 48, 0
3, 81234, Note_on_c, 0, 62, 29
3, 81596, Note_on_c, 0, 77, 40
3, 81609, Note_on_c, 0, 67, 27
3, 81609, Note_on_c, 0, 70, 34
3, 81640, Note_on_c, 0, 63, 28
3, 81659, Note_on_c, 0, 62, 0
3, 83297, Note_on_c, 0, 67, 0
3, 83331, Note_on_c, 0, 70, 0
3, 83370, Note_on_c, 0, 77, 0
3, 83576, Note_on_c, 0, 63, 0
3, 83886, Note_on_c, 0, 39, 70
3, 84293, Control_c, 0, 64, 0
3, 84494, Control_c, 0, 64, 127
3, 84549, Note_on_c, 0, 46, 35
3, 84678, Note_on_c, 0, 39, 0
3, 84976, Note_on_c, 0, 60, 31
3, 84981, Note_on_c, 0, 67, 41
3, 85002, Note_on_c, 0, 62, 33
3, 85003, Note_on_c, 0, 55, 50
3, 85014, Note_on_c, 0, 46, 0
3, 85146, Note_on_c, 0, 60, 0
3, 85169, Note_on_c, 0, 62, 0
3, 85224, Note_on_c, 0, 67, 0
3, 85392, Note_on_c, 0, 58, 33
3, 85417, Note_on_c, 0, 55, 0
3, 85839, Note_on_c, 0, 77, 32
3, 85840, Note_on_c, 0, 70, 36
3, 85847, Note_on_c, 0, 67, 22
3, 85848, Note_on_c, 0, 62, 32
3, 85852, Note_on_c, 0, 74, 48
3, 86144, Note_on_c, 0, 67, 0
3, 86298, Note_on_c, 0, 70, 0
3, 86316, Note_on_c, 0, 74, 0
3, 86359, Note_on_c, 0, 77, 0
3, 86824, Note_on_c, 0, 75, 45
3, 87175, Note_on_c, 0, 75, 0
3, 87244, Note_on_c, 0, 82, 80
3, 87578, Note_on_c, 0, 82, 0
3, 87602, Note_on_c, 0, 79, 62
3, 87788, Note_on_c, 0, 79, 0
3, 87936, Note_on_c, 0, 84, 94
3, 88325, Note_on_c, 0, 84, 0
3, 88359, Note_on_c, 0, 82, 71
3, 88706, Note_on_c, 0, 62, 0
3, 88723, Note_on_c, 0, 82, 0
3, 88755, Note_on_c, 0, 75, 46
3, 88786, Note_on_c, 0, 58, 0
3, 89216, Note_on_c, 0, 77, 46
3, 89229, Note_on_c, 0, 75, 0
3, 89236, Note_on_c, 0, 37, 35
3, 89269, Control_c, 0, 64, 0
3, 89539, Control_c, 0, 64, 127
3, 89548, Note_on_c, 0, 44, 43
3, 89564, Note_on_c, 0, 37, 0
3, 89632, Note_on_c, 0, 77, 0
3, 89717, Note_on_c, 0, 44, 0
3, 89810, Note_on_c, 0, 53, 38
3, 90003, Note_on_c, 0, 56, 42
3, 90019, Note_on_c, 0, 53, 0
3, 90191, Note_on_c, 0, 63, 56
3, 90300, Note_on_c, 0, 60, 26
3, 90316, Note_on_c, 0, 63, 0
3, 90364, Note_on_c, 0, 65, 62
3, 90464, Note_on_c, 0, 65, 0
3, 90499, Note_on_c, 0, 68, 60
3, 90556, Note_on_c, 0, 63, 29
3, 90567, Note_on_c, 0, 60, 0
3, 90653, Note_on_c, 0, 70, 71
3, 90681, Note_on_c, 0, 68, 0
3, 90743, Note_on_c, 0, 70, 0
3, 90775, Note_on_c, 0, 72, 70
3, 90885, Note_on_c, 0, 72, 0
3, 90893, Note_on_c, 0, 75, 71
3, 90983, Note_on_c, 0, 75, 0
3, 91029, Note_on_c, 0, 77, 73
3, 91060, Note_on_c, 0, 63, 0
3, 91130, Note_on_c, 0, 77, 0
3, 91131, Note_on_c, 0, 80, 74
3, 91225, Note_on_c, 0, 56, 0
3, 91254, Note_on_c, 0, 82, 67
3, 91280, Note_on_c, 0, 80, 0
3, 91328, Note_on_c, 0, 82, 0
3, 91353, Note_on_c, 0, 84, 62
3, 91446, Note_on_c, 0, 84, 0
3, 91466, Note_on_c, 0, 87, 64
3, 91571, Note_on_c, 0, 87, 0
3, 91598, Note_on_c, 0, 89, 60
3, 91719, Note_on_c, 0, 89, 0
3, 91721, Note_on_c, 0, 92, 71
3, 91885, Note_on_c, 0, 94, 59
3, 91911, Note_on_c, 0, 92, 0
3, 91958, Note_on_c, 0, 94, 0
3, 92012, Note_on_c, 0, 96, 59
3, 92165, Note_on_c, 0, 99, 57
3, 92177, Note_on_c, 0, 96, 0
3, 92254, Note_on_c, 0, 99, 0
3, 92334, Note_on_c, 0, 101, 52
3, 92481, Note_on_c, 0, 101, 0
3, 92508, Note_on_c, 0, 103, 56
3, 92672, Note_on_c, 0, 103, 0
3, 92726, Note_on_c, 0, 104, 55
3, 92764, Note_on_c, 0, 46, 38
3, 92869, Control_c, 0, 64, 0
3, 92982, Note_on_c, 0, 104, 0
3, 93001, Note_on_c, 0, 106, 47
3, 93029, Note_on_c, 0, 56, 30
3, 93073, Control_c, 0, 64, 127
3, 93084, Note_on_c, 0, 46, 0
3, 93128, Note_on_c, 0, 56, 0
3, 93308, Note_on_c, 0, 106, 0
3, 93367, Note_on_c, 0, 108, 35
3, 93368, Note_on_c, 0, 60, 34
3, 93813, Note_on_c, 0, 63, 32
3, 94092, Note_on_c, 0, 108, 0
3, 94315, Note_on_c, 0, 108, 24
3, 94364, Note_on_c, 0, 101, 24
3, 94391, Note_on_c, 0, 68, 12
3, 94505, Note_on_c, 0, 108, 0
3, 94521, Note_on_c, 0, 101, 0
3, 94778, Note_on_c, 0, 68, 0
3, 95380, Note_on_c, 0, 63, 0
3, 95468, Note_on_c, 0, 60, 0
3, 95802, Note_on_c, 0, 63, 34
3, 96284, Note_on_c, 0, 70, 73
3, 96502, Note_on_c, 0, 70, 0
3, 96505, Note_on_c, 0, 63, 0
3, 96593, Note_on_c, 0, 72, 66
3, 96832, Note_on_c, 0, 72, 0
3, 96947, Note_on_c, 0, 72, 51
3, 96975, Note_on_c, 0, 39, 44
3, 96982, Control_c, 0, 64, 0
3, 97274, Note_on_c, 0, 46, 47
3, 97280, Control_c, 0, 64, 127
3, 97305, Note_on_c, 0, 39, 0
3, 97534, Note_on_c, 0, 72, 0
3, 97544, Note_on_c, 0, 46, 0
3, 97566, Note_on_c, 0, 70, 48
3, 97581, Note_on_c, 0, 62, 40
3, 97587, Note_on_c, 0, 55, 43
3, 97588, Note_on_c, 0, 67, 42
3, 97843, Note_on_c, 0, 62, 0
3, 97884, Note_on_c, 0, 58, 51
3, 97938, Note_on_c, 0, 55, 0
3, 97970, Note_on_c, 0, 67, 0
3, 98224, Note_on_c, 0, 70, 0
3, 98229, Note_on_c, 0, 67, 64
3, 98250, Note_on_c, 0, 62, 50
3, 98576, Note_on_c, 0, 62, 0
3, 98594, Note_on_c, 0, 67, 0
3, 98632, Note_on_c, 0, 67, 43
3, 99027, Note_on_c, 0, 70, 93
3, 99044, Note_on_c, 0, 62, 49
3, 99274, Note_on_c, 0, 70, 0
3, 99280, Note_on_c, 0, 72, 60
3, 99372, Note_on_c, 0, 70, 62
3, 99409, Note_on_c, 0, 72, 0
3, 99484, Note_on_c, 0, 69, 77
3, 99547, Note_on_c, 0, 70, 0
3, 99699, Note_on_c, 0, 69, 0
3, 99759, Note_on_c, 0, 70, 90
3, 100069, Note_on_c, 0, 70, 0
3, 100368, Note_on_c, 0, 75, 76
3, 100429, Note_on_c, 0, 76, 30
3, 100445, Note_on_c, 0, 67, 0
3, 100533, Note_on_c, 0, 62, 0
3, 100581, Note_on_c, 0, 58, 0
3, 100597, Note_on_c, 0, 76, 0
3, 100661, Note_on_c, 0, 75, 0
3, 100909, Note_on_c, 0, 75, 43
3, 100916, Note_on_c, 0, 68, 36
3, 100917, Note_on_c, 0, 72, 35
3, 100924, Note_on_c, 0, 60, 26
3, 100929, Note_on_c, 0, 63, 43
3, 100949, Control_c, 0, 64, 0
3, 101298, Control_c, 0, 64, 127
3, 101326, Note_on_c, 0, 58, 42
3, 101336, Note_on_c, 0, 60, 0
3, 101344, Note_on_c, 0, 68, 0
3, 101348, Note_on_c, 0, 72, 0
3, 101362, Note_on_c, 0, 75, 0
3, 101384, Note_on_c, 0, 63, 0
3, 101432, Note_on_c, 0, 58, 0
3, 101776, Note_on_c, 0, 68, 42
3, 101782, Note_on_c, 0, 63, 42
3, 101787, Note_on_c, 0, 60, 24
3, 101808, Note_on_c, 0, 56, 27
3, 101852, Note_on_c, 0, 56, 0
3, 102763, Note_on_c, 0, 46, 49
3, 102854, Note_on_c, 0, 46, 0
3, 102882, Note_on_c, 0, 68, 0
3, 102919, Note_on_c, 0, 63, 0
3, 102948, Note_on_c, 0, 60, 0
3, 104423, Note_on_c, 0, 34, 30
3, 104424, Note_on_c, 0, 56, 25
3, 104425, Note_on_c, 0, 63, 29
3, 104432, Note_on_c, 0, 60, 27
3, 104495, Control_c, 0, 64, 0
3, 104658, Control_c, 0, 64, 127
3, 104919, Note_on_c, 0, 56, 0
3, 105229, Note_on_c, 0, 34, 0
3, 105297, Note_on_c, 0, 60, 0
3, 105345, Note_on_c, 0, 56, 51
3, 105912, Note_on_c, 0, 56, 0
3, 105960, Note_on_c, 0, 60, 44
3, 105977, Note_on_c, 0, 63, 0
3, 107149, Note_on_c, 0, 47, 45
3, 107326, Note_on_c, 0, 60, 0
3, 107344, Note_on_c, 0, 47, 0
3, 108400, Note_on_c, 0, 63, 33
3, 108406, Note_on_c, 0, 60, 24
3, 108426, Note_on_c, 0, 56, 29
3, 108453, Note_on_c, 0, 48, 25
3, 108459, Control_c, 0, 64, 0
3, 108671, Control_c, 0, 64, 127
3, 108736, Note_on_c, 0, 60, 0
3, 108935, Note_on_c, 0, 63, 0
3, 109008, Note_on_c, 0, 67, 69
3, 109404, Note_on_c, 0, 65, 69
3, 109449, Note_on_c, 0, 67, 0
3, 109530, Note_on_c, 0, 48, 0
3, 109571, Note_on_c, 0, 65, 0
3, 109888, Note_on_c, 0, 56, 0
3, 109940, Note_on_c, 0, 70, 43
3, 109945, Note_on_c, 0, 65, 40
3, 109946, Note_on_c, 0, 58, 29
3, 109947, Note_on_c, 0, 62, 39
3, 109962, Control_c, 0, 64, 0
3, 109972, Note_on_c, 0, 50, 42
3, 110222, Control_c, 0, 64, 127
3, 110414, Note_on_c, 0, 62, 0
3, 110547, Note_on_c, 0, 70, 0
3, 110619, Note_on_c, 0, 65, 0
3, 110864, Note_on_c, 0, 72, 62
3, 111027, Note_on_c, 0, 72, 0
3, 111377, Note_on_c, 0, 74, 66
3, 111383, Note_on_c, 0, 50, 0
3, 111387, Control_c, 0, 64, 0
3, 111396, Note_on_c, 0, 67, 54
3, 111398, Note_on_c, 0, 51, 47
3, 111406, Note_on_c, 0, 63, 35
3, 111410, Note_on_c, 0, 58, 0
3, 111546, Note_on_c, 0, 74, 0
3, 111608, Control_c, 0, 64, 127
3, 111652, Note_on_c, 0, 63, 0
3, 111686, Note_on_c, 0, 75, 73
3, 111741, Note_on_c, 0, 67, 0
3, 111887, Note_on_c, 0, 75, 0
3, 112439, Note_on_c, 0, 77, 72
3, 112459, Note_on_c, 0, 72, 51
3, 112469, Note_on_c, 0, 68, 38
3, 112490, Note_on_c, 0, 75, 30
3, 112812, Note_on_c, 0, 72, 0
3, 112813, Note_on_c, 0, 77, 0
3, 112846, Note_on_c, 0, 75, 0
3, 112860, Note_on_c, 0, 68, 0
3, 112900, Note_on_c, 0, 74, 69
3, 113231, Note_on_c, 0, 74, 0
3, 113344, Note_on_c, 0, 51, 0
3, 113661, Note_on_c, 0, 70, 36
3, 113679, Note_on_c, 0, 43, 32
3, 113685, Note_on_c, 0, 62, 33
3, 113691, Note_on_c, 0, 50, 33
3, 113722, Note_on_c, 0, 58, 18
3, 113756, Control_c, 0, 64, 0
3, 114083, Control_c, 0, 64, 127
3, 114182, Note_on_c, 0, 43, 0
3, 114201, Note_on_c, 0, 58, 0
3, 114202, Note_on_c, 0, 50, 0
3, 114213, Note_on_c, 0, 55, 35
3, 114244, Note_on_c, 0, 62, 0
3, 114373, Note_on_c, 0, 70, 0
3, 114635, Note_on_c, 0, 58, 32
3, 114652, Note_on_c, 0, 55, 0
3, 114888, Note_on_c, 0, 72, 67
3, 114952, Note_on_c, 0, 58, 0
3, 115056, Note_on_c, 0, 72, 0
3, 115101, Note_on_c, 0, 74, 81
3, 115259, Note_on_c, 0, 74, 0
3, 115333, Note_on_c, 0, 77, 87
3, 115352, Note_on_c, 0, 48, 49
3, 115372, Control_c, 0, 64, 0
3, 115594, Control_c, 0, 64, 127
3, 115655, Note_on_c, 0, 77, 0
3, 115717, Note_on_c, 0, 75, 63
3, 115746, Note_on_c, 0, 55, 34
3, 115847, Note_on_c, 0, 55, 0
3, 115868, Note_on_c, 0, 48, 0
3, 115984, Note_on_c, 0, 73, 7
3, 116269, Note_on_c, 0, 75, 0
3, 116309, Note_on_c, 0, 73, 0
3, 116323, Note_on_c, 0, 63, 34
3, 116334, Note_on_c, 0, 67, 43
3, 116347, Note_on_c, 0, 46, 29
3, 116358, Note_on_c, 0, 55, 24
3, 116402, Control_c, 0, 64, 0
3, 116585, Control_c, 0, 64, 127
3, 116908, Note_on_c, 0, 67, 0
3, 116983, Note_on_c, 0, 63, 0
3, 117018, Note_on_c, 0, 67, 42
3, 117130, Note_on_c, 0, 55, 0
3, 117144, Note_on_c, 0, 67, 0
3, 117196, Note_on_c, 0, 46, 0
3, 117473, Note_on_c, 0, 70, 50
3, 117490, Note_on_c, 0, 63, 42
3, 117504, Note_on_c, 0, 60, 20
3, 117509, Note_on_c, 0, 44, 18
3, 117519, Note_on_c, 0, 51, 37
3, 117528, Note_on_c, 0, 56, 25
3, 117547, Control_c, 0, 64, 0
3, 117756, Note_on_c, 0, 70, 0
3, 117796, Note_on_c, 0, 60, 0
3, 117797, Control_c, 0, 64, 127
3, 117808, Note_on_c, 0, 68, 58
3, 117941, Note_on_c, 0, 56, 0
3, 118036, Note_on_c, 0, 68, 0
3, 118153, Note_on_c, 0, 63, 0
3, 118159, Note_on_c, 0, 60, 49
3, 118162, Note_on_c, 0, 56, 37
3, 118576, Note_on_c, 0, 63, 59
3, 118657, Note_on_c, 0, 60, 0
3, 118693, Note_on_c, 0, 44, 0
3, 118716, Note_on_c, 0, 56, 0
3, 118755, Note_on_c, 0, 51, 0
3, 121205, Note_on_c, 0, 68, 48
3, 121206, Note_on_c, 0, 63, 0
3, 121751, Note_on_c, 0, 68, 0
3, 122856, Note_on_c, 0, 67, 25
3, 122889, Note_on_c, 0, 62, 50
3, 122907, Note_on_c, 0, 43, 27
3, 122944, Note_on_c, 0, 53, 24
3, 122957, Note_on_c, 0, 59, 51
3, 123032, Control_c, 0, 64, 0
3, 123035, Note_on_c, 0, 56, 19
3, 123426, Control_c, 0, 64, 127
3, 123733, Note_on_c, 0, 56, 0
3, 123786, Note_on_c, 0, 59, 0
3, 123819, Note_on_c, 0, 62, 0
3, 123847, Note_on_c, 0, 43, 0
3, 124009, Note_on_c, 0, 53, 0
3, 124398, Note_on_c, 0, 56, 36
3, 124541, Note_on_c, 0, 67, 0
3, 124621, Note_on_c, 0, 59, 44
3, 124649, Note_on_c, 0, 56, 0
3, 124768, Note_on_c, 0, 59, 0
3, 124808, Note_on_c, 0, 62, 59
3, 124976, Note_on_c, 0, 67, 69
3, 124993, Note_on_c, 0, 62, 0
3, 125073, Note_on_c, 0, 67, 0
3, 125148, Note_on_c, 0, 68, 55
3, 125277, Note_on_c, 0, 68, 0
3, 125333, Note_on_c, 0, 74, 66
3, 125523, Note_on_c, 0, 74, 0
3, 125535, Note_on_c, 0, 79, 60
3, 125739, Note_on_c, 0, 79, 0
3, 125761, Note_on_c, 0, 71, 42
3, 126032, Note_on_c, 0, 67, 35
3, 126041, Note_on_c, 0, 77, 53
3, 126102, Control_c, 0, 64, 0
3, 126274, Control_c, 0, 64, 127
3, 126589, Note_on_c, 0, 76, 49
3, 127112, Note_on_c, 0, 77, 0
3, 127188, Note_on_c, 0, 75, 51
3, 127189, Note_on_c, 0, 76, 0
3, 127745, Note_on_c, 0, 75, 0
3, 127771, Note_on_c, 0, 74, 46
3, 127998, Note_on_c, 0, 71, 0
3, 128221, Note_on_c, 0, 71, 44
3, 128223, Note_on_c, 0, 67, 0
3, 128233, Note_on_c, 0, 74, 0
3, 128562, Note_on_c, 0, 68, 56
3, 128599, Note_on_c, 0, 71, 0
3, 128861, Note_on_c, 0, 68, 0
3, 128912, Note_on_c, 0, 67, 58
3, 129264, Note_on_c, 0, 67, 0
3, 129280, Note_on_c, 0, 65, 40
3, 129686, Note_on_c, 0, 65, 0
3, 129698, Note_on_c, 0, 63, 37
3, 129749, Note_on_c, 0, 48, 31
3, 129749, Control_c, 0, 64, 0
3, 130155, Control_c, 0, 64, 127
3, 130217, Note_on_c, 0, 55, 22
3, 130337, Note_on_c, 0, 63, 0
3, 130683, Note_on_c, 0, 48, 0
3, 130703, Note_on_c, 0, 55, 0
3, 130726, Note_on_c, 0, 60, 24
3, 131236, Note_on_c, 0, 75, 39
3, 131241, Note_on_c, 0, 63, 32
3, 131312, Note_on_c, 0, 60, 0
3, 131388, Note_on_c, 0, 63, 0
3, 131548, Note_on_c, 0, 75, 0
3, 131934, Note_on_c, 0, 80, 50
3, 131980, Note_on_c, 0, 72, 35
3, 132011, Note_on_c, 0, 68, 17
3, 132017, Note_on_c, 0, 48, 30
3, 132024, Control_c, 0, 64, 0
3, 132224, Control_c, 0, 64, 127
3, 132283, Note_on_c, 0, 80, 0
3, 132365, Note_on_c, 0, 79, 68
3, 132388, Note_on_c, 0, 68, 0
3, 132388, Note_on_c, 0, 56, 37
3, 132700, Note_on_c, 0, 79, 0
3, 132707, Note_on_c, 0, 72, 0
3, 132742, Note_on_c, 0, 77, 63
3, 132762, Note_on_c, 0, 65, 35
3, 132834, Note_on_c, 0, 56, 0
3, 133104, Note_on_c, 0, 77, 0
3, 133224, Note_on_c, 0, 74, 40
3, 133373, Note_on_c, 0, 65, 0
3, 133532, Note_on_c, 0, 74, 0
3, 133549, Note_on_c, 0, 48, 0
3, 134509, Note_on_c, 0, 70, 51
3, 134544, Note_on_c, 0, 62, 34
3, 134549, Note_on_c, 0, 43, 25
3, 134560, Note_on_c, 0, 58, 19
3, 134572, Control_c, 0, 64, 0
3, 134617, Note_on_c, 0, 55, 16
3, 134899, Control_c, 0, 64, 127
3, 134925, Note_on_c, 0, 50, 49
3, 134934, Note_on_c, 0, 55, 0
3, 135090, Note_on_c, 0, 58, 0
3, 135231, Note_on_c, 0, 62, 0
3, 135268, Note_on_c, 0, 58, 46
3, 135296, Note_on_c, 0, 55, 41
3, 135322, Note_on_c, 0, 58, 0
3, 135329, Note_on_c, 0, 70, 0
3, 135441, Note_on_c, 0, 43, 0
3, 135454, Note_on_c, 0, 50, 0
3, 135594, Note_on_c, 0, 67, 64
3, 135756, Note_on_c, 0, 55, 0
3, 135911, Note_on_c, 0, 67, 0
3, 135944, Note_on_c, 0, 75, 73
3, 135960, Note_on_c, 0, 48, 40
3, 135980, Control_c, 0, 64, 0
3, 136229, Control_c, 0, 64, 127
3, 136358, Note_on_c, 0, 55, 37
3, 136454, Note_on_c, 0, 48, 0
3, 136458, Note_on_c, 0, 55, 0
3, 136801, Note_on_c, 0, 63, 31
3, 136823, Note_on_c, 0, 46, 28
3, 136828, Note_on_c, 0, 67, 31
3, 136835, Control_c, 0, 64, 0
3, 136842, Note_on_c, 0, 55, 24
3, 136965, Note_on_c, 0, 67, 0
3, 136983, Control_c, 0, 64, 127
3, 137034, Note_on_c, 0, 63, 0
3, 137053, Note_on_c, 0, 75, 0
3, 137224, Note_on_c, 0, 77, 64
3, 137367, Note_on_c, 0, 77, 0
3, 137434, Note_on_c, 0, 55, 0
3, 137467, Note_on_c, 0, 79, 68
3, 137475, Note_on_c, 0, 46, 0
3, 137596, Note_on_c, 0, 79, 0
3, 137757, Note_on_c, 0, 77, 46
3, 137772, Note_on_c, 0, 56, 35
3, 137783, Note_on_c, 0, 72, 40
3, 137789, Control_c, 0, 64, 0
3, 137795, Note_on_c, 0, 44, 26
3, 137817, Note_on_c, 0, 67, 11
3, 138029, Control_c, 0, 64, 127
3, 138100, Note_on_c, 0, 56, 0
3, 138115, Note_on_c, 0, 51, 44
3, 138178, Note_on_c, 0, 67, 0
3, 138182, Note_on_c, 0, 72, 0
3, 138322, Note_on_c, 0, 77, 0
3, 138439, Note_on_c, 0, 56, 54
3, 138776, Note_on_c, 0, 77, 79
3, 138787, Note_on_c, 0, 65, 83
3, 139059, Note_on_c, 0, 56, 0
3, 139065, Note_on_c, 0, 44, 0
3, 139066, Note_on_c, 0, 51, 0
3, 139082, Note_on_c, 0, 65, 0
3, 139090, Note_on_c, 0, 77, 0
3, 139199, Note_on_c, 0, 77, 66
3, 139205, Note_on_c, 0, 45, 44
3, 139207, Note_on_c, 0, 69, 76
3, 139216, Note_on_c, 0, 65, 71
3, 139233, Control_c, 0, 64, 0
3, 139533, Control_c, 0, 64, 127
3, 139608, Note_on_c, 0, 53, 58
3, 139802, Note_on_c, 0, 65, 0
3, 139971, Note_on_c, 0, 69, 0
3, 140004, Note_on_c, 0, 65, 58
3, 140012, Note_on_c, 0, 57, 58
3, 140028, Note_on_c, 0, 69, 14
3, 140156, Note_on_c, 0, 45, 0
3, 140202, Note_on_c, 0, 57, 0
3, 140339, Note_on_c, 0, 77, 0
3, 140372, Note_on_c, 0, 65, 0
3, 140389, Note_on_c, 0, 53, 0
3, 140399, Note_on_c, 0, 69, 0
3, 140415, Note_on_c, 0, 45, 61
3, 140505, Note_on_c, 0, 45, 0
3, 140923, Note_on_c, 0, 63, 80
3, 140934, Note_on_c, 0, 46, 82
3, 140935, Note_on_c, 0, 34, 79
3, 140936, Note_on_c, 0, 60, 61
3, 140937, Note_on_c, 0, 56, 83
3, 140946, Note_on_c, 0, 53, 79
3, 140973, Control_c, 0, 64, 0
3, 141233, Control_c, 0, 64, 127
3, 141531, Note_on_c, 0, 46, 0
3, 141643, Note_on_c, 0, 46, 59
3, 142129, Note_on_c, 0, 46, 0
3, 142254, Note_on_c, 0, 46, 39
3, 142429, Note_on_c, 0, 60, 0
3, 142471, Note_on_c, 0, 53, 0
3, 142539, Note_on_c, 0, 56, 0
3, 142565, Note_on_c, 0, 46, 0
3, 142716, Note_on_c, 0, 63, 0
3, 142823, Note_on_c, 0, 60, 33
3, 142825, Note_on_c, 0, 56, 38
3, 142829, Note_on_c, 0, 46, 37
3, 142831, Note_on_c, 0, 53, 28
3, 143053, Note_on_c, 0, 34, 0
3, 143172, Note_on_c, 0, 60, 0
3, 143173, Note_on_c, 0, 53, 0
3, 143256, Note_on_c, 0, 46, 0
3, 143283, Note_on_c, 0, 56, 0
3, 143592, Note_on_c, 0, 58, 59
3, 143602, Note_on_c, 0, 53, 18
3, 143615, Note_on_c, 0, 51, 35
3, 143635, Note_on_c, 0, 34, 46
3, 143658, Control_c, 0, 64, 0
3, 143918, Control_c, 0, 64, 127
3, 144093, Note_on_c, 0, 51, 0
3, 144279, Note_on_c, 0, 46, 32
3, 144572, Note_on_c, 0, 46, 0
3, 144614, Note_on_c, 0, 53, 0
3, 144890, Note_on_c, 0, 58, 0
3, 145503, Note_on_c, 0, 67, 64
3, 145564, Note_on_c, 0, 34, 0
3, 146947, Note_on_c, 0, 67, 0
3, 146956, Note_on_c, 0, 70, 43
3, 148034, Note_on_c, 0, 70, 0
3, 148199, Note_on_c, 0, 58, 29
3, 148200, Note_on_c, 0, 67, 28
3, 148206, Note_on_c, 0, 51, 21
3, 148207, Note_on_c, 0, 39, 23
3, 148214, Control_c, 0, 64, 0
3, 148215, Note_on_c, 0, 63, 37
3, 148464, Control_c, 0, 64, 127
3, 148621, Note_on_c, 0, 39, 0
3, 148680, Note_on_c, 0, 58, 0
3, 148721, Note_on_c, 0, 51, 0
3, 148749, Note_on_c, 0, 63, 0
3, 148824, Note_on_c, 0, 67, 0
3, 149169, Note_on_c, 0, 70, 56
3, 149175, Note_on_c, 0, 62, 51
3, 149183, Note_on_c, 0, 65, 61
3, 149188, Control_c, 0, 64, 0
3, 149207, Note_on_c, 0, 50, 38
3, 149331, Control_c, 0, 64, 127
3, 149433, Note_on_c, 0, 70, 0
3, 149503, Note_on_c, 0, 50, 0
3, 149580, Note_on_c, 0, 62, 0
3, 149626, Note_on_c, 0, 65, 0
3, 149631, Note_on_c, 0, 72, 52
3, 149719, Note_on_c, 0, 72, 0
3, 149963, Note_on_c, 0, 63, 53
3, 149983, Note_on_c, 0, 60, 29
3, 149984, Note_on_c, 0, 58, 30
3, 150024, Control_c, 0, 64, 0
3, 150039, Note_on_c, 0, 48, 25
3, 150292, Control_c, 0, 64, 127
3, 150461, Note_on_c, 0, 58, 0
3, 150473, Note_on_c, 0, 48, 0
3, 150608, Note_on_c, 0, 60, 0
3, 150715, Note_on_c, 0, 63, 0
3, 150897, Note_on_c, 0, 63, 33
3, 150902, Note_on_c, 0, 46, 32
3, 150904, Note_on_c, 0, 60, 28
3, 150915, Note_on_c, 0, 55, 29
3, 150930, Control_c, 0, 64, 0
3, 151132, Control_c, 0, 64, 127
3, 151443, Note_on_c, 0, 60, 0
3, 151492, Note_on_c, 0, 63, 0
3, 151521, Note_on_c, 0, 55, 0
3, 151611, Note_on_c, 0, 46, 0
3, 151673, Note_on_c, 0, 63, 56
3, 151853, Note_on_c, 0, 63, 0
3, 152036, Note_on_c, 0, 63, 77
3, 152037, Control_c, 0, 64, 0
3, 152038, Note_on_c, 0, 68, 67
3, 152048, Note_on_c, 0, 44, 50
3, 152049, Note_on_c, 0, 60, 53
3, 152056, Note_on_c, 0, 56, 52
3, 152212, Control_c, 0, 64, 127
3, 152384, Note_on_c, 0, 68, 0
3, 152403, Note_on_c, 0, 60, 0
3, 152464, Note_on_c, 0, 70, 80
3, 152498, Note_on_c, 0, 56, 0
3, 152543, Note_on_c, 0, 44, 0
3, 152555, Note_on_c, 0, 63, 0
3, 152620, Note_on_c, 0, 70, 0
3, 152864, Note_on_c, 0, 72, 71
3, 152866, Control_c, 0, 64, 0
3, 152872, Note_on_c, 0, 63, 75
3, 152883, Note_on_c, 0, 43, 49
3, 152887, Note_on_c, 0, 55, 51
3, 153029, Control_c, 0, 64, 127
3, 153049, Note_on_c, 0, 63, 0
3, 153064, Note_on_c, 0, 72, 0
3, 153263, Note_on_c, 0, 55, 0
3, 153290, Note_on_c, 0, 75, 71
3, 153292, Note_on_c, 0, 43, 0
3, 153384, Note_on_c, 0, 75, 0
3, 153748, Note_on_c, 0, 68, 46
3, 153772, Note_on_c, 0, 63, 56
3, 153777, Note_on_c, 0, 41, 42
3, 153779, Note_on_c, 0, 53, 35
3, 153784, Note_on_c, 0, 56, 47
3, 153793, Control_c, 0, 64, 0
3, 154053, Control_c, 0, 64, 127
3, 154250, Note_on_c, 0, 41, 0
3, 154262, Note_on_c, 0, 56, 0
3, 154313, Note_on_c, 0, 53, 0
3, 154591, Note_on_c, 0, 63, 0
3, 154781, Note_on_c, 0, 63, 39
3, 154784, Control_c, 0, 64, 0
3, 154794, Note_on_c, 0, 60, 28
3, 154795, Note_on_c, 0, 46, 35
3, 154802, Note_on_c, 0, 56, 34
3, 154967, Control_c, 0, 64, 127
3, 155007, Note_on_c, 0, 60, 0
3, 155064, Note_on_c, 0, 68, 0
3, 155071, Note_on_c, 0, 63, 0
3, 155475, Note_on_c, 0, 70, 52
3, 155546, Note_on_c, 0, 56, 0
3, 155643, Note_on_c, 0, 46, 0
3, 155667, Note_on_c, 0, 70, 0
3, 155686, Note_on_c, 0, 72, 52
3, 155945, Note_on_c, 0, 72, 0
3, 156036, Note_on_c, 0, 70, 42
3, 156063, Note_on_c, 0, 39, 40
3, 156064, Control_c, 0, 64, 0
3, 156064, Note_on_c, 0, 67, 33
3, 156079, Note_on_c, 0, 62, 13
3, 156246, Control_c, 0, 64, 127
3, 156260, Note_on_c, 0, 46, 49
3, 156272, Note_on_c, 0, 39, 0
3, 156298, Note_on_c, 0, 67, 0
3, 156358, Note_on_c, 0, 62, 0
3, 156419, Note_on_c, 0, 46, 0
3, 156464, Note_on_c, 0, 55, 51
3, 156553, Note_on_c, 0, 70, 0
3, 156652, Note_on_c, 0, 55, 0
3, 156672, Note_on_c, 0, 58, 55
3, 156896, Note_on_c, 0, 60, 36
3, 156904, Note_on_c, 0, 84, 62
3, 156909, Note_on_c, 0, 77, 53
3, 157055, Note_on_c, 0, 60, 0
3, 157096, Note_on_c, 0, 84, 0
3, 157156, Note_on_c, 0, 82, 48
3, 157172, Note_on_c, 0, 74, 41
3, 157234, Note_on_c, 0, 77, 0
3, 157327, Note_on_c, 0, 74, 0
3, 157348, Note_on_c, 0, 82, 0
3, 157449, Note_on_c, 0, 84, 44
3, 157457, Note_on_c, 0, 67, 29
3, 157460, Note_on_c, 0, 77, 42
3, 157657, Note_on_c, 0, 84, 0
3, 157707, Note_on_c, 0, 82, 37
3, 157732, Note_on_c, 0, 74, 25
3, 157752, Note_on_c, 0, 67, 0
3, 157769, Note_on_c, 0, 62, 28
3, 157835, Note_on_c, 0, 77, 0
3, 157891, Note_on_c, 0, 74, 0
3, 157967, Note_on_c, 0, 82, 0
3, 158026, Note_on_c, 0, 77, 34
3, 158035, Note_on_c, 0, 84, 46
3, 158038, Note_on_c, 0, 62, 0
3, 158042, Note_on_c, 0, 67, 29
3, 158258, Note_on_c, 0, 84, 0
3, 158290, Note_on_c, 0, 77, 0
3, 158297, Note_on_c, 0, 82, 35
3, 158303, Note_on_c, 0, 67, 0
3, 158320, Note_on_c, 0, 74, 34
3, 158339, Note_on_c, 0, 62, 31
3, 158498, Note_on_c, 0, 74, 0
3, 158568, Note_on_c, 0, 82, 0
3, 158611, Note_on_c, 0, 67, 29
3, 158633, Note_on_c, 0, 77, 39
3, 158644, Note_on_c, 0, 84, 55
3, 158708, Note_on_c, 0, 58, 0
3, 158902, Note_on_c, 0, 67, 0
3, 158903, Note_on_c, 0, 84, 0
3, 158924, Note_on_c, 0, 77, 0
3, 158936, Note_on_c, 0, 82, 42
3, 158947, Note_on_c, 0, 74, 37
3, 158997, Note_on_c, 0, 58, 39
3, 159024, Note_on_c, 0, 62, 0
3, 159124, Note_on_c, 0, 74, 0
3, 159244, Note_on_c, 0, 82, 0
3, 159294, Note_on_c, 0, 77, 51
3, 159295, Note_on_c, 0, 62, 49
3, 159307, Note_on_c, 0, 84, 66
3, 159384, Note_on_c, 0, 58, 0
3, 159562, Note_on_c, 0, 84, 0
3, 159623, Note_on_c, 0, 82, 52
3, 159624, Note_on_c, 0, 74, 51
3, 159652, Note_on_c, 0, 58, 44
3, 159672, Note_on_c, 0, 62, 0
3, 159757, Note_on_c, 0, 77, 0
3, 159764, Note_on_c, 0, 58, 0
3, 159842, Note_on_c, 0, 74, 0
3, 159908, Note_on_c, 0, 82, 0
3, 159961, Note_on_c, 0, 77, 68
3, 159966, Note_on_c, 0, 84, 72
3, 160188, Note_on_c, 0, 84, 0
3, 160304, Note_on_c, 0, 82, 65
3, 160332, Note_on_c, 0, 74, 58
3, 160495, Note_on_c, 0, 77, 0
3, 160537, Note_on_c, 0, 82, 0
3, 160692, Note_on_c, 0, 74, 0
3, 160863, Note_on_c, 0, 73, 51
3, 160876, Note_on_c, 0, 80, 52
3, 160901, Note_on_c, 0, 47, 44
3, 160938, Control_c, 0, 64, 0
3, 161159, Control_c, 0, 64, 127
3, 161193, Note_on_c, 0, 73, 0
3, 161219, Note_on_c, 0, 80, 0
3, 161269, Note_on_c, 0, 78, 42
3, 161288, Note_on_c, 0, 54, 30
3, 161301, Note_on_c, 0, 69, 18
3, 161306, Note_on_c, 0, 73, 25
3, 161421, Note_on_c, 0, 73, 0
3, 161493, Note_on_c, 0, 69, 0
3, 161570, Note_on_c, 0, 78, 0
3, 161657, Note_on_c, 0, 80, 44
3, 161660, Note_on_c, 0, 73, 33
3, 161669, Note_on_c, 0, 54, 0
3, 161674, Note_on_c, 0, 69, 28
3, 161676, Note_on_c, 0, 47, 0
3, 161694, Note_on_c, 0, 59, 32
3, 161983, Note_on_c, 0, 69, 0
3, 162036, Note_on_c, 0, 59, 0
3, 162037, Note_on_c, 0, 80, 0
3, 162049, Note_on_c, 0, 78, 33
3, 162055, Note_on_c, 0, 61, 37
3, 162067, Note_on_c, 0, 69, 15
3, 162195, Note_on_c, 0, 78, 0
3, 162212, Note_on_c, 0, 73, 0
3, 162245, Note_on_c, 0, 69, 0
3, 162389, Note_on_c, 0, 63, 42
3, 162625, Note_on_c, 0, 64, 44
3, 162692, Note_on_c, 0, 63, 0
3, 162803, Note_on_c, 0, 61, 0
3, 162824, Note_on_c, 0, 66, 62
3, 162960, Note_on_c, 0, 66, 0
3, 162989, Note_on_c, 0, 68, 59
3, 163074, Note_on_c, 0, 68, 0
3, 163124, Note_on_c, 0, 69, 68
3, 163237, Note_on_c, 0, 69, 0
3, 163244, Note_on_c, 0, 71, 71
3, 163301, Note_on_c, 0, 64, 0
3, 163378, Note_on_c, 0, 73, 59
3, 163396, Note_on_c, 0, 71, 0
3, 163495, Note_on_c, 0, 75, 60
3, 163527, Note_on_c, 0, 73, 0
3, 163571, Note_on_c, 0, 75, 0
3, 163600, Note_on_c, 0, 76, 61
3, 163692, Note_on_c, 0, 78, 58
3, 163699, Note_on_c, 0, 76, 0
3, 163818, Note_on_c, 0, 80, 51
3, 163825, Note_on_c, 0, 78, 0
3, 163894, Note_on_c, 0, 80, 0
3, 163921, Note_on_c, 0, 81, 58
3, 164024, Note_on_c, 0, 81, 0
3, 164055, Note_on_c, 0, 83, 60
3, 164164, Note_on_c, 0, 83, 0
3, 164177, Note_on_c, 0, 85, 61
3, 164266, Note_on_c, 0, 85, 0
3, 164304, Note_on_c, 0, 87, 61
3, 164398, Note_on_c, 0, 87, 0
3, 164446, Note_on_c, 0, 88, 66
3, 164556, Note_on_c, 0, 88, 0
3, 164589, Note_on_c, 0, 90, 59
3, 164748, Note_on_c, 0, 92, 61
3, 164776, Note_on_c, 0, 90, 0
3, 164849, Note_on_c, 0, 92, 0
3, 164902, Note_on_c, 0, 93, 60
3, 165049, Note_on_c, 0, 93, 0
3, 165064, Note_on_c, 0, 95, 64
3, 165197, Note_on_c, 0, 95, 0
3, 165246, Note_on_c, 0, 97, 60
3, 165368, Note_on_c, 0, 97, 0
3, 165412, Note_on_c, 0, 99, 59
3, 165629, Note_on_c, 0, 99, 0
3, 165634, Note_on_c, 0, 100, 56
3, 165755, Note_on_c, 0, 100, 0
3, 165837, Note_on_c, 0, 101, 51
3, 165940, Note_on_c, 0, 101, 0
3, 166356, Note_on_c, 0, 102, 48
3, 166566, Note_on_c, 0, 102, 0
3, 166634, Note_on_c, 0, 103, 62
3, 166646, Note_on_c, 0, 34, 35
3, 166653, Control_c, 0, 64, 0
3, 166807, Control_c, 0, 64, 127
3, 166907, Note_on_c, 0, 103, 0
3, 166978, Note_on_c, 0, 46, 38
3, 167009, Note_on_c, 0, 34, 0
3, 167074, Note_on_c, 0, 46, 0
3, 167341, Note_on_c, 0, 56, 51
3, 167633, Note_on_c, 0, 60, 42
3, 167811, Note_on_c, 0, 60, 0
3, 167814, Note_on_c, 0, 62, 64
3, 167969, Note_on_c, 0, 62, 0
3, 167983, Note_on_c, 0, 63, 67
3, 168051, Note_on_c, 0, 63, 0
3, 168068, Note_on_c, 0, 65, 67
3, 168161, Note_on_c, 0, 56, 0
3, 168192, Note_on_c, 0, 67, 68
3, 168208, Note_on_c, 0, 65, 0
3, 168280, Note_on_c, 0, 68, 58
3, 168321, Note_on_c, 0, 67, 0
3, 168348, Note_on_c, 0, 70, 62
3, 168371, Note_on_c, 0, 68, 0
3, 168410, Note_on_c, 0, 70, 0
3, 168450, Note_on_c, 0, 72, 58
3, 168540, Note_on_c, 0, 74, 57
3, 168552, Note_on_c, 0, 72, 0
3, 168619, Note_on_c, 0, 75, 51
3, 168664, Note_on_c, 0, 74, 0
3, 168724, Note_on_c, 0, 75, 0
3, 168777, Note_on_c, 0, 77, 54
3, 168835, Note_on_c, 0, 68, 34
3, 168844, Note_on_c, 0, 60, 22
3, 168866, Control_c, 0, 64, 0
3, 168871, Note_on_c, 0, 58, 31
3, 168871, Note_on_c, 0, 63, 39
3, 168905, Note_on_c, 0, 77, 0
3, 168916, Note_on_c, 0, 75, 51
3, 169012, Note_on_c, 0, 75, 0
3, 169163, Note_on_c, 0, 68, 0
3, 169176, Note_on_c, 0, 72, 28
3, 169261, Note_on_c, 0, 72, 0
3, 169385, Note_on_c, 0, 68, 25
3, 169431, Note_on_c, 0, 68, 0
3, 169516, Control_c, 0, 64, 127
3, 169527, Note_on_c, 0, 67, 53
3, 169581, Note_on_c, 0, 67, 0
3, 169680, Control_c, 0, 64, 0
3, 169714, Note_on_c, 0, 82, 70
3, 169787, Note_on_c, 0, 82, 0
3, 169967, Note_on_c, 0, 80, 52
3, 170056, Note_on_c, 0, 80, 0
3, 170226, Note_on_c, 0, 75, 49
3, 170246, Note_on_c, 0, 80, 29
3, 170285, Note_on_c, 0, 68, 14
3, 170382, Control_c, 0, 64, 127
3, 170447, Note_on_c, 0, 72, 42
3, 170456, Note_on_c, 0, 75, 0
3, 170469, Note_on_c, 0, 80, 0
3, 170529, Note_on_c, 0, 68, 0
3, 170609, Note_on_c, 0, 72, 0
3, 170721, Note_on_c, 0, 75, 49
3, 170739, Control_c, 0, 64, 0
3, 170748, Note_on_c, 0, 79, 39
3, 170749, Note_on_c, 0, 68, 25
3, 170872, Control_c, 0, 64, 127
3, 170964, Note_on_c, 0, 79, 0
3, 170976, Note_on_c, 0, 72, 47
3, 170986, Note_on_c, 0, 75, 0
3, 171079, Note_on_c, 0, 68, 0
3, 171086, Note_on_c, 0, 72, 0
3, 171224, Note_on_c, 0, 72, 50
3, 171254, Note_on_c, 0, 75, 43
3, 171388, Note_on_c, 0, 63, 0
3, 171394, Note_on_c, 0, 60, 0
3, 171395, Note_on_c, 0, 58, 0
3, 171423, Note_on_c, 0, 72, 0
3, 171453, Note_on_c, 0, 68, 46
3, 171496, Note_on_c, 0, 75, 0
3, 171536, Note_on_c, 0, 68, 0
3, 171721, Note_on_c, 0, 72, 40
3, 171728, Note_on_c, 0, 68, 37
3, 171738, Note_on_c, 0, 65, 31
3, 171744, Control_c, 0, 64, 0
3, 171752, Note_on_c, 0, 56, 18
3, 171782, Control_c, 0, 64, 127
3, 171917, Note_on_c, 0, 72, 0
3, 171953, Note_on_c, 0, 68, 0
3, 171982, Note_on_c, 0, 56, 0
3, 171985, Note_on_c, 0, 65, 0
3, 172007, Note_on_c, 0, 53, 22
3, 172291, Note_on_c, 0, 56, 25
3, 172292, Note_on_c, 0, 68, 37
3, 172293, Note_on_c, 0, 60, 22
3, 172305, Note_on_c, 0, 63, 38
3, 172357, Note_on_c, 0, 53, 0
3, 172508, Note_on_c, 0, 68, 0
3, 172532, Note_on_c, 0, 56, 0
3, 172537, Note_on_c, 0, 63, 0
3, 172548, Note_on_c, 0, 53, 32
3, 172576, Note_on_c, 0, 60, 0
3, 172589, Note_on_c, 0, 53, 0
3, 172883, Note_on_c, 0, 60, 36
3, 172885, Note_on_c, 0, 46, 33
3, 172892, Note_on_c, 0, 63, 40
3, 172893, Note_on_c, 0, 56, 34
3, 172940, Control_c, 0, 64, 0
3, 173149, Control_c, 0, 64, 127
3, 173191, Note_on_c, 0, 41, 31
3, 173250, Note_on_c, 0, 60, 0
3, 173261, Note_on_c, 0, 63, 0
3, 173291, Note_on_c, 0, 56, 0
3, 173538, Note_on_c, 0, 34, 33
3, 173544, Note_on_c, 0, 53, 32
3, 173545, Note_on_c, 0, 46, 0
3, 173546, Note_on_c, 0, 41, 0
3, 173549, Note_on_c, 0, 56, 40
3, 173556, Note_on_c, 0, 60, 27
3, 173642, Note_on_c, 0, 34, 0
3, 173969, Note_on_c, 0, 53, 0
3, 174170, Note_on_c, 0, 60, 0
3, 174176, Note_on_c, 0, 56, 0
3, 174379, Note_on_c, 0, 56, 31
3, 174380, Note_on_c, 0, 60, 29
3, 174393, Note_on_c, 0, 53, 24
3, 174413, Note_on_c, 0, 34, 25
3, 174424, Control_c, 0, 64, 0
3, 174635, Control_c, 0, 64, 127
3, 174766, Note_on_c, 0, 34, 0
3, 174894, Note_on_c, 0, 34, 25
3, 175212, Note_on_c, 0, 53, 0
3, 175220, Note_on_c, 0, 34, 0
3, 175227, Note_on_c, 0, 60, 0
3, 175324, Note_on_c, 0, 56, 0
3, 175625, Note_on_c, 0, 53, 24
3, 175626, Note_on_c, 0, 56, 28
3, 175636, Note_on_c, 0, 59, 38
3, 175642, Note_on_c, 0, 34, 25
3, 175658, Control_c, 0, 64, 0
3, 175802, Control_c, 0, 64, 127
3, 176615, Note_on_c, 0, 34, 0
3, 176706, Note_on_c, 0, 53, 0
3, 176783, Note_on_c, 0, 56, 0
3, 176784, Note_on_c, 0, 59, 0
3, 177813, Control_c, 0, 64, 0
3, 178107, Note_on_c, 0, 70, 42
3, 178117, Control_c, 0, 64, 0
3, 178119, Note_on_c, 0, 39, 32
3, 178133, Note_on_c, 0, 46, 31
3, 178134, Note_on_c, 0, 63, 34
3, 178136, Note_on_c, 0, 58, 31
3, 178328, Control_c, 0, 64, 127
3, 178475, Note_on_c, 0, 58, 0
3, 178576, Note_on_c, 0, 63, 0
3, 178616, Note_on_c, 0, 39, 0
3, 178623, Note_on_c, 0, 70, 0
3, 178655, Note_on_c, 0, 46, 0
3, 179199, Note_on_c, 0, 72, 87
3, 179466, Note_on_c, 0, 70, 75
3, 179525, Note_on_c, 0, 72, 0
3, 179823, Note_on_c, 0, 67, 61
3, 179838, Note_on_c, 0, 58, 29
3, 179843, Note_on_c, 0, 70, 0
3, 179849, Control_c, 0, 64, 0
3, 179854, Note_on_c, 0, 50, 39
3, 180061, Control_c, 0, 64, 127
3, 180264, Note_on_c, 0, 70, 53
3, 180298, Note_on_c, 0, 67, 0
3, 180381, Note_on_c, 0, 50, 0
3, 180388, Note_on_c, 0, 58, 0
3, 180675, Note_on_c, 0, 70, 0
3, 180708, Note_on_c, 0, 63, 44
3, 180714, Control_c, 0, 64, 0
3, 180725, Note_on_c, 0, 60, 24
3, 180728, Note_on_c, 0, 58, 26
3, 180751, Note_on_c, 0, 48, 31
3, 180954, Control_c, 0, 64, 127
3, 181154, Note_on_c, 0, 58, 0
3, 181166, Note_on_c, 0, 48, 0
3, 181314, Note_on_c, 0, 60, 0
3, 181385, Note_on_c, 0, 63, 0
3, 181590, Control_c, 0, 64, 0
3, 181597, Note_on_c, 0, 46, 29
3, 181601, Note_on_c, 0, 60, 31
3, 181602, Note_on_c, 0, 63, 39
3, 181607, Note_on_c, 0, 55, 29
3, 181773, Control_c, 0, 64, 127
3, 182048, Note_on_c, 0, 60, 0
3, 182074, Note_on_c, 0, 63, 0
3, 182214, Note_on_c, 0, 63, 68
3, 182231, Note_on_c, 0, 55, 0
3, 182273, Note_on_c, 0, 46, 0
3, 182330, Note_on_c, 0, 63, 0
3, 182739, Note_on_c, 0, 72, 66
3, 182744, Note_on_c, 0, 60, 68
3, 182745, Control_c, 0, 64, 0
3, 182750, Note_on_c, 0, 51, 45
3, 182751, Note_on_c, 0, 56, 43
3, 182753, Note_on_c, 0, 44, 33
3, 182940, Control_c, 0, 64, 127
3, 183268, Note_on_c, 0, 60, 0
3, 183278, Note_on_c, 0, 72, 0
3, 183647, Note_on_c, 0, 44, 0
3, 183653, Note_on_c, 0, 51, 0
3, 183702, Note_on_c, 0, 56, 0
3, 183932, Note_on_c, 0, 75, 77
3, 183942, Note_on_c, 0, 44, 50
3, 183943, Note_on_c, 0, 56, 58
3, 183944, Note_on_c, 0, 63, 83
3, 183948, Note_on_c, 0, 51, 53
3, 183979, Control_c, 0, 64, 0
3, 184095, Control_c, 0, 64, 127
3, 184334, Note_on_c, 0, 63, 0
3, 184342, Note_on_c, 0, 56, 0
3, 184368, Note_on_c, 0, 51, 0
3, 184411, Note_on_c, 0, 44, 0
3, 184420, Note_on_c, 0, 75, 0
3, 185249, Control_c, 0, 64, 0
3, 185262, Note_on_c, 0, 79, 64
3, 185263, Note_on_c, 0, 71, 62
3, 185273, Note_on_c, 0, 68, 55
3, 185273, Note_on_c, 0, 31, 55
3, 185274, Note_on_c, 0, 74, 64
3, 185280, Note_on_c, 0, 43, 47
3, 185454, Control_c, 0, 64, 127
3, 185561, Note_on_c, 0, 31, 0
3, 185643, Note_on_c, 0, 43, 0
3, 186093, Note_on_c, 0, 56, 50
3, 186755, Note_on_c, 0, 59, 37
3, 186811, Note_on_c, 0, 79, 0
3, 187107, Note_on_c, 0, 68, 0
3, 187213, Note_on_c, 0, 71, 0
3, 187214, Note_on_c, 0, 74, 0
3, 187788, Note_on_c, 0, 77, 52
3, 187808, Note_on_c, 0, 71, 43
3, 187813, Note_on_c, 0, 67, 34
3, 187856, Note_on_c, 0, 62, 26
3, 187950, Note_on_c, 0, 77, 0
3, 188230, Note_on_c, 0, 67, 0
3, 188344, Note_on_c, 0, 71, 0
3, 188373, Note_on_c, 0, 79, 44
3, 188444, Note_on_c, 0, 59, 0
3, 188470, Note_on_c, 0, 56, 0
3, 188525, Note_on_c, 0, 62, 0
3, 189725, Note_on_c, 0, 78, 43
3, 189735, Note_on_c, 0, 79, 0
3, 189809, Note_on_c, 0, 77, 54
3, 189816, Note_on_c, 0, 78, 0
3, 189855, Note_on_c, 0, 58, 15
3, 189862, Note_on_c, 0, 60, 24
3, 189882, Note_on_c, 0, 63, 31
3, 189885, Note_on_c, 0, 68, 18
3, 189918, Control_c, 0, 64, 0
3, 190207, Control_c, 0, 64, 127
3, 190904, Note_on_c, 0, 75, 42
3, 190936, Note_on_c, 0, 77, 0
3, 190958, Note_on_c, 0, 68, 0
3, 191141, Note_on_c, 0, 63, 0
3, 191165, Note_on_c, 0, 60, 0
3, 191212, Note_on_c, 0, 58, 0
3, 191605, Note_on_c, 0, 75, 0
3, 192022, Note_on_c, 0, 75, 40
3, 192070, Note_on_c, 0, 44, 27
3, 192084, Control_c, 0, 64, 0
3, 192305, Control_c, 0, 64, 127
3, 192461, Note_on_c, 0, 51, 23
3, 192498, Note_on_c, 0, 75, 0
3, 192774, Note_on_c, 0, 44, 0
3, 192801, Note_on_c, 0, 51, 0
3, 192825, Note_on_c, 0, 55, 33
3, 193156, Note_on_c, 0, 55, 0
3, 193192, Note_on_c, 0, 56, 35
3, 193575, Note_on_c, 0, 60, 29
3, 193807, Note_on_c, 0, 60, 0
3, 193992, Note_on_c, 0, 60, 26
3, 194373, Note_on_c, 0, 63, 38
3, 194548, Note_on_c, 0, 63, 0
3, 194700, Note_on_c, 0, 74, 66
3, 194842, Note_on_c, 0, 74, 0
3, 194937, Note_on_c, 0, 60, 0
3, 194971, Note_on_c, 0, 75, 78
3, 194989, Note_on_c, 0, 56, 0
3, 195074, Note_on_c, 0, 75, 0
3, 195292, Note_on_c, 0, 70, 60
3, 195317, Note_on_c, 0, 43, 43
3, 195365, Control_c, 0, 64, 0
3, 195595, Control_c, 0, 64, 127
3, 195603, Note_on_c, 0, 50, 41
3, 195890, Note_on_c, 0, 50, 0
3, 195895, Note_on_c, 0, 43, 0
3, 195931, Note_on_c, 0, 55, 44
3, 196151, Note_on_c, 0, 55, 0
3, 196237, Note_on_c, 0, 56, 30
3, 196248, Note_on_c, 0, 58, 55
3, 196311, Note_on_c, 0, 56, 0
3, 196408, Note_on_c, 0, 58, 0
3, 196612, Note_on_c, 0, 60, 30
3, 196620, Note_on_c, 0, 63, 49
3, 196628, Note_on_c, 0, 70, 0
3, 196652, Note_on_c, 0, 58, 32
3, 196664, Control_c, 0, 64, 0
3, 196690, Note_on_c, 0, 48, 37
3, 196913, Control_c, 0, 64, 127
3, 197044, Note_on_c, 0, 55, 42
3, 197120, Note_on_c, 0, 58, 0
3, 197261, Control_c, 0, 64, 0
3, 197489, Note_on_c, 0, 58, 30
3, 197578, Control_c, 0, 64, 127
3, 197801, Note_on_c, 0, 55, 0
3, 197836, Note_on_c, 0, 58, 0
3, 197873, Note_on_c, 0, 48, 0
3, 197898, Note_on_c, 0, 70, 59
3, 197966, Note_on_c, 0, 63, 0
3, 198090, Note_on_c, 0, 70, 0
3, 198096, Note_on_c, 0, 60, 0
3, 198367, Control_c, 0, 64, 0
3, 198388, Note_on_c, 0, 70, 39
3, 198391, Note_on_c, 0, 60, 28
3, 198400, Note_on_c, 0, 44, 31
3, 198402, Note_on_c, 0, 51, 32
3, 198404, Note_on_c, 0, 65, 45
3, 198608, Control_c, 0, 64, 127
3, 198743, Note_on_c, 0, 70, 0
3, 198845, Note_on_c, 0, 60, 0
3, 198884, Note_on_c, 0, 72, 61
3, 198888, Note_on_c, 0, 73, 45
3, 198895, Note_on_c, 0, 56, 45
3, 199028, Note_on_c, 0, 73, 0
3, 199156, Note_on_c, 0, 65, 0
3, 199351, Note_on_c, 0, 65, 62
3, 199352, Note_on_c, 0, 60, 51
3, 199428, Note_on_c, 0, 56, 0
3, 199472, Note_on_c, 0, 51, 0
3, 199578, Note_on_c, 0, 44, 0
3, 199780, Note_on_c, 0, 43, 66
3, 199782, Control_c, 0, 64, 0
3, 199799, Note_on_c, 0, 72, 0
3, 199845, Note_on_c, 0, 65, 0
3, 199870, Note_on_c, 0, 60, 0
3, 199888, Control_c, 0, 64, 127
3, 200055, Note_on_c, 0, 43, 0
3, 200320, Control_c, 0, 64, 0
3, 200356, Note_on_c, 0, 41, 53
3, 200358, Note_on_c, 0, 60, 53
3, 200363, Note_on_c, 0, 56, 55
3, 200368, Note_on_c, 0, 53, 36
3, 200484, Control_c, 0, 64, 127
3, 200524, Note_on_c, 0, 56, 0
3, 200549, Note_on_c, 0, 60, 0
3, 200590, Note_on_c, 0, 41, 0
3, 200665, Note_on_c, 0, 53, 0
3, 201485, Note_on_c, 0, 72, 72
3, 201728, Note_on_c, 0, 72, 0
3, 201752, Note_on_c, 0, 71, 77
3, 201965, Note_on_c, 0, 71, 0
3, 202005, Note_on_c, 0, 72, 78
3, 202263, Note_on_c, 0, 72, 0
3, 202340, Note_on_c, 0, 60, 39
3, 202341, Note_on_c, 0, 68, 51
3, 202342, Note_on_c, 0, 77, 80
3, 202354, Note_on_c, 0, 63, 52
3, 202370, Control_c, 0, 64, 0
3, 202582, Control_c, 0, 64, 127
3, 203039, Note_on_c, 0, 68, 0
3, 203291, Note_on_c, 0, 77, 0
3, 203369, Note_on_c, 0, 74, 55
3, 203384, Note_on_c, 0, 63, 0
3, 203385, Note_on_c, 0, 60, 0
3, 203427, Note_on_c, 0, 74, 0
3, 203944, Note_on_c, 0, 70, 46
3, 203969, Note_on_c, 0, 62, 40
3, 203970, Note_on_c, 0, 58, 25
3, 203981, Note_on_c, 0, 43, 31
3, 203995, Control_c, 0, 64, 0
3, 203998, Note_on_c, 0, 53, 14
3, 204284, Control_c, 0, 64, 127
3, 204425, Note_on_c, 0, 53, 0
3, 204451, Note_on_c, 0, 50, 46
3, 204904, Note_on_c, 0, 62, 0
3, 204907, Note_on_c, 0, 58, 0
3, 204923, Note_on_c, 0, 55, 51
3, 204973, Note_on_c, 0, 70, 0
3, 205279, Note_on_c, 0, 72, 65
3, 205280, Note_on_c, 0, 43, 0
3, 205312, Note_on_c, 0, 50, 0
3, 205416, Note_on_c, 0, 72, 0
3, 205476, Note_on_c, 0, 55, 0
3, 205544, Note_on_c, 0, 74, 71
3, 205673, Note_on_c, 0, 74, 0
3, 205883, Note_on_c, 0, 75, 52
3, 205911, Control_c, 0, 64, 0
3, 205913, Note_on_c, 0, 48, 29
3, 206209, Control_c, 0, 64, 127
3, 206289, Note_on_c, 0, 55, 36
3, 206366, Note_on_c, 0, 48, 0
3, 206726, Note_on_c, 0, 63, 29
3, 206742, Note_on_c, 0, 67, 32
3, 206743, Note_on_c, 0, 62, 24
3, 206815, Note_on_c, 0, 75, 0
3, 207041, Note_on_c, 0, 67, 0
3, 207186, Note_on_c, 0, 63, 0
3, 207247, Note_on_c, 0, 62, 0
3, 207350, Note_on_c, 0, 55, 0
3, 207426, Note_on_c, 0, 67, 33
3, 207559, Note_on_c, 0, 67, 0
3, 207618, Note_on_c, 0, 70, 38
3, 207797, Note_on_c, 0, 70, 0
3, 207885, Note_on_c, 0, 60, 25
3, 207888, Note_on_c, 0, 56, 31
3, 207899, Note_on_c, 0, 68, 35
3, 207906, Note_on_c, 0, 44, 23
3, 207922, Control_c, 0, 64, 0
3, 208144, Control_c, 0, 64, 127
3, 208170, Note_on_c, 0, 68, 0
3, 208198, Note_on_c, 0, 60, 0
3, 208268, Note_on_c, 0, 68, 45
3, 208365, Note_on_c, 0, 68, 0
3, 208660, Note_on_c, 0, 56, 0
3, 208757, Note_on_c, 0, 77, 66
3, 208759, Note_on_c, 0, 65, 61
3, 208764, Note_on_c, 0, 56, 35
3, 208797, Control_c, 0, 64, 0
3, 208961, Control_c, 0, 64, 127
3, 209139, Note_on_c, 0, 56, 0
3, 209153, Note_on_c, 0, 77, 0
3, 209240, Note_on_c, 0, 56, 34
3, 209270, Note_on_c, 0, 65, 0
3, 209413, Note_on_c, 0, 56, 0
3, 209696, Note_on_c, 0, 44, 0
3, 209764, Note_on_c, 0, 63, 40
3, 209769, Note_on_c, 0, 44, 31
3, 209780, Note_on_c, 0, 58, 44
3, 209785, Note_on_c, 0, 55, 30
3, 209786, Note_on_c, 0, 60, 31
3, 209808, Control_c, 0, 64, 0
3, 209843, Note_on_c, 0, 51, 18
3, 209991, Control_c, 0, 64, 127
3, 210184, Note_on_c, 0, 44, 0
3, 210257, Note_on_c, 0, 55, 0
3, 210305, Note_on_c, 0, 44, 31
3, 210322, Note_on_c, 0, 60, 0
3, 210347, Note_on_c, 0, 58, 0
3, 210358, Note_on_c, 0, 63, 0
3, 210863, Note_on_c, 0, 56, 39
3, 211262, Note_on_c, 0, 44, 0
3, 212136, Note_on_c, 0, 75, 58
3, 212270, Note_on_c, 0, 51, 0
3, 212405, Note_on_c, 0, 56, 0
3, 212534, Note_on_c, 0, 75, 0
3, 213111, Note_on_c, 0, 75, 40
3, 213144, Note_on_c, 0, 63, 32
3, 213147, Control_c, 0, 64, 0
3, 213152, Note_on_c, 0, 72, 36
3, 213160, Note_on_c, 0, 68, 25
3, 213263, Control_c, 0, 64, 127
3, 213422, Note_on_c, 0, 63, 0
3, 213624, Note_on_c, 0, 63, 33
3, 213825, Note_on_c, 0, 63, 0
3, 214029, Note_on_c, 0, 72, 0
3, 214065, Note_on_c, 0, 75, 0
3, 214092, Note_on_c, 0, 63, 33
3, 214278, Note_on_c, 0, 68, 0
3, 214307, Note_on_c, 0, 63, 0
3, 214543, Note_on_c, 0, 72, 47
3, 214564, Note_on_c, 0, 63, 29
3, 214771, Note_on_c, 0, 72, 0
3, 214822, Note_on_c, 0, 63, 0
3, 215096, Note_on_c, 0, 70, 37
3, 215109, Note_on_c, 0, 62, 32
3, 215118, Note_on_c, 0, 65, 33
3, 215120, Control_c, 0, 64, 0
3, 215321, Control_c, 0, 64, 127
3, 215652, Note_on_c, 0, 62, 0
3, 215673, Note_on_c, 0, 50, 33
3, 215905, Note_on_c, 0, 65, 0
3, 216354, Note_on_c, 0, 65, 28
3, 216371, Note_on_c, 0, 62, 14
3, 216653, Note_on_c, 0, 65, 0
3, 216682, Note_on_c, 0, 70, 0
3, 217000, Note_on_c, 0, 62, 0
3, 217128, Note_on_c, 0, 50, 0
3, 217223, Note_on_c, 0, 77, 64
3, 217369, Note_on_c, 0, 77, 0
3, 217907, Note_on_c, 0, 75, 48
3, 217919, Control_c, 0, 64, 0
3, 217925, Note_on_c, 0, 63, 25
3, 217950, Note_on_c, 0, 48, 32
3, 217957, Note_on_c, 0, 67, 29
3, 218018, Note_on_c, 0, 67, 0
3, 218041, Note_on_c, 0, 63, 0
3, 218093, Control_c, 0, 64, 127
3, 218152, Note_on_c, 0, 75, 0
3, 218388, Note_on_c, 0, 72, 58
3, 218639, Note_on_c, 0, 72, 0
3, 218776, Note_on_c, 0, 75, 65
3, 218786, Note_on_c, 0, 60, 29
3, 218788, Note_on_c, 0, 72, 60
3, 219053, Note_on_c, 0, 48, 0
3, 219089, Note_on_c, 0, 75, 0
3, 219121, Note_on_c, 0, 72, 0
3, 219165, Note_on_c, 0, 77, 61
3, 219288, Note_on_c, 0, 77, 0
3, 219321, Note_on_c, 0, 60, 0
3, 219369, Note_on_c, 0, 79, 67
3, 219596, Note_on_c, 0, 79, 0
3, 219637, Note_on_c, 0, 53, 33
3, 219642, Control_c, 0, 64, 0
3, 219661, Note_on_c, 0, 77, 47
3, 219826, Control_c, 0, 64, 127
3, 219960, Note_on_c, 0, 77, 0
3, 220073, Note_on_c, 0, 53, 0
3, 220156, Note_on_c, 0, 67, 44
3, 221140, Note_on_c, 0, 84, 53
3, 221193, Note_on_c, 0, 68, 35
3, 221234, Note_on_c, 0, 67, 0
3, 221556, Note_on_c, 0, 72, 1
3, 221573, Note_on_c, 0, 84, 0
3, 221851, Note_on_c, 0, 72, 0
3, 222031, Note_on_c, 0, 68, 0
3, 222041, Note_on_c, 0, 77, 54
3, 222295, Note_on_c, 0, 77, 0
3, 222777, Note_on_c, 0, 75, 40
3, 222895, Note_on_c, 0, 67, 46
3, 223013, Note_on_c, 0, 48, 30
3, 223068, Control_c, 0, 64, 0
3, 223087, Note_on_c, 0, 63, 31
3, 223365, Control_c, 0, 64, 127
3, 223601, Note_on_c, 0, 55, 22
3, 223646, Note_on_c, 0, 75, 0
3, 223655, Note_on_c, 0, 67, 0
3, 223729, Note_on_c, 0, 63, 0
3, 224094, Note_on_c, 0, 60, 51
3, 224356, Note_on_c, 0, 60, 0
3, 224453, Note_on_c, 0, 63, 82
3, 224668, Note_on_c, 0, 63, 0
3, 224770, Note_on_c, 0, 65, 81
3, 224808, Note_on_c, 0, 55, 0
3, 224873, Note_on_c, 0, 48, 0
3, 224948, Note_on_c, 0, 65, 0
3, 225002, Note_on_c, 0, 67, 63
3, 225107, Note_on_c, 0, 67, 0
3, 225373, Note_on_c, 0, 56, 51
3, 225387, Control_c, 0, 64, 0
3, 225388, Note_on_c, 0, 63, 49
3, 225388, Note_on_c, 0, 65, 49
3, 225407, Note_on_c, 0, 41, 35
3, 225412, Note_on_c, 0, 51, 23
3, 225577, Note_on_c, 0, 56, 0
3, 225588, Control_c, 0, 64, 127
3, 225637, Note_on_c, 0, 41, 0
3, 225641, Note_on_c, 0, 65, 0
3, 225664, Note_on_c, 0, 63, 0
3, 225707, Note_on_c, 0, 51, 0
3, 225962, Note_on_c, 0, 63, 75
3, 225963, Note_on_c, 0, 72, 68
3, 225965, Note_on_c, 0, 68, 67
3, 226023, Note_on_c, 0, 56, 35
3, 226119, Note_on_c, 0, 56, 0
3, 226130, Note_on_c, 0, 72, 0
3, 226186, Note_on_c, 0, 68, 0
3, 226205, Note_on_c, 0, 63, 0
3, 226649, Note_on_c, 0, 56, 50
3, 226875, Note_on_c, 0, 56, 0
3, 227191, Note_on_c, 0, 65, 66
3, 227194, Note_on_c, 0, 60, 61
3, 227441, Note_on_c, 0, 65, 0
3, 227445, Note_on_c, 0, 60, 0
3, 227991, Note_on_c, 0, 60, 52
3, 227993, Note_on_c, 0, 63, 60
3, 227999, Note_on_c, 0, 55, 55
3, 228005, Note_on_c, 0, 48, 46
3, 228042, Control_c, 0, 64, 0
3, 228303, Control_c, 0, 64, 127
3, 228353, Note_on_c, 0, 60, 0
3, 228395, Note_on_c, 0, 55, 0
3, 228485, Note_on_c, 0, 63, 0
3, 228496, Note_on_c, 0, 60, 55
3, 228778, Note_on_c, 0, 60, 0
3, 228808, Note_on_c, 0, 48, 0
3, 228926, Note_on_c, 0, 63, 64
3, 228936, Note_on_c, 0, 60, 48
3, 228941, Note_on_c, 0, 48, 37
3, 228942, Note_on_c, 0, 55, 55
3, 229193, Note_on_c, 0, 55, 0
3, 229227, Note_on_c, 0, 63, 0
3, 229229, Note_on_c, 0, 60, 0
3, 229293, Note_on_c, 0, 65, 72
3, 229325, Note_on_c, 0, 60, 37
3, 229376, Note_on_c, 0, 60, 0
3, 229428, Note_on_c, 0, 65, 0
3, 229540, Note_on_c, 0, 67, 66
3, 229642, Note_on_c, 0, 67, 0
3, 229832, Control_c, 0, 64, 0
3, 229838, Note_on_c, 0, 48, 0
3, 229842, Note_on_c, 0, 65, 49
3, 229854, Note_on_c, 0, 51, 37
3, 229859, Note_on_c, 0, 60, 34
3, 229871, Note_on_c, 0, 56, 39
3, 229872, Note_on_c, 0, 41, 36
3, 229906, Note_on_c, 0, 63, 29
3, 230015, Control_c, 0, 64, 127
3, 230041, Note_on_c, 0, 60, 0
3, 230068, Note_on_c, 0, 65, 0
3, 230088, Note_on_c, 0, 63, 0
3, 230112, Note_on_c, 0, 56, 0
3, 230805, Note_on_c, 0, 72, 47
3, 230984, Note_on_c, 0, 41, 0
3, 231075, Note_on_c, 0, 72, 0
3, 231140, Note_on_c, 0, 51, 0
3, 231897, Note_on_c, 0, 77, 51
3, 231904, Note_on_c, 0, 68, 36
3, 231905, Note_on_c, 0, 72, 41
3, 231911, Note_on_c, 0, 65, 36
3, 232348, Note_on_c, 0, 77, 0
3, 232373, Note_on_c, 0, 72, 0
3, 232447, Note_on_c, 0, 68, 0
3, 232481, Note_on_c, 0, 65, 0
3, 233443, Note_on_c, 0, 74, 47
3, 233640, Note_on_c, 0, 74, 0
3, 233688, Note_on_c, 0, 72, 45
3, 233785, Note_on_c, 0, 72, 0
3, 234018, Note_on_c, 0, 70, 39
3, 234041, Note_on_c, 0, 43, 32
3, 234095, Control_c, 0, 64, 0
3, 234307, Control_c, 0, 64, 127
3, 234356, Note_on_c, 0, 43, 0
3, 234363, Note_on_c, 0, 55, 30
3, 234698, Note_on_c, 0, 55, 0
3, 234706, Note_on_c, 0, 58, 32
3, 235076, Note_on_c, 0, 58, 0
3, 235350, Note_on_c, 0, 70, 0
3, 235420, Note_on_c, 0, 65, 36
3, 235422, Note_on_c, 0, 62, 22
3, 235428, Note_on_c, 0, 58, 30
3, 235466, Note_on_c, 0, 48, 27
3, 235500, Control_c, 0, 64, 0
3, 235788, Control_c, 0, 64, 127
3, 235870, Note_on_c, 0, 55, 32
3, 235965, Note_on_c, 0, 58, 0
3, 236039, Note_on_c, 0, 62, 0
3, 236328, Note_on_c, 0, 58, 29
3, 236332, Note_on_c, 0, 60, 27
3, 236341, Note_on_c, 0, 63, 35
3, 236381, Note_on_c, 0, 48, 0
3, 236461, Note_on_c, 0, 58, 0
3, 236553, Note_on_c, 0, 65, 0
3, 236946, Note_on_c, 0, 48, 27
3, 236999, Note_on_c, 0, 55, 0
3, 237206, Note_on_c, 0, 48, 0
3, 237458, Note_on_c, 0, 60, 0
3, 237527, Note_on_c, 0, 63, 0
3, 238127, Control_c, 0, 64, 0
3, 238153, Note_on_c, 0, 37, 51
3, 238159, Note_on_c, 0, 44, 56
3, 238219, Control_c, 0, 64, 127
3, 238379, Note_on_c, 0, 37, 0
3, 238469, Note_on_c, 0, 44, 0
3, 238801, Note_on_c, 0, 53, 36
3, 238803, Note_on_c, 0, 63, 53
3, 238817, Note_on_c, 0, 58, 55
3, 239059, Note_on_c, 0, 65, 68
3, 239192, Note_on_c, 0, 65, 0
3, 239241, Note_on_c, 0, 68, 82
3, 239365, Note_on_c, 0, 68, 0
3, 239394, Note_on_c, 0, 68, 39
3, 239404, Note_on_c, 0, 70, 78
3, 239442, Note_on_c, 0, 68, 0
3, 239470, Note_on_c, 0, 53, 0
3, 239507, Note_on_c, 0, 70, 0
3, 239562, Note_on_c, 0, 72, 75
3, 239567, Note_on_c, 0, 58, 0
3, 239624, Note_on_c, 0, 63, 0
3, 239682, Note_on_c, 0, 72, 0
3, 239708, Note_on_c, 0, 75, 74
3, 239805, Note_on_c, 0, 75, 0
3, 239869, Note_on_c, 0, 77, 71
3, 239889, Note_on_c, 0, 65, 64
3, 239899, Note_on_c, 0, 60, 42
3, 239912, Control_c, 0, 64, 0
3, 239913, Note_on_c, 0, 55, 44
3, 240017, Note_on_c, 0, 77, 0
3, 240045, Note_on_c, 0, 80, 67
3, 240057, Control_c, 0, 64, 127
3, 240161, Note_on_c, 0, 55, 0
3, 240196, Note_on_c, 0, 60, 0
3, 240197, Note_on_c, 0, 80, 0
3, 240205, Note_on_c, 0, 65, 0
3, 240207, Note_on_c, 0, 84, 64
3, 240375, Note_on_c, 0, 84, 0
3, 240403, Note_on_c, 0, 87, 64
3, 240416, Note_on_c, 0, 63, 57
3, 240431, Note_on_c, 0, 53, 39
3, 240436, Note_on_c, 0, 58, 57
3, 240490, Control_c, 0, 64, 0
3, 240536, Note_on_c, 0, 87, 0
3, 240557, Control_c, 0, 64, 127
3, 240621, Note_on_c, 0, 89, 62
3, 240628, Note_on_c, 0, 63, 0
3, 240644, Note_on_c, 0, 53, 0
3, 240668, Note_on_c, 0, 58, 0
3, 240774, Note_on_c, 0, 89, 0
3, 240948, Note_on_c, 0, 37, 52
3, 240950, Note_on_c, 0, 87, 67
3, 240952, Note_on_c, 0, 44, 55
3, 241068, Control_c, 0, 64, 0
3, 241186, Note_on_c, 0, 87, 0
3, 241221, Control_c, 0, 64, 127
3, 241232, Note_on_c, 0, 84, 71
3, 241472, Note_on_c, 0, 84, 0
3, 241520, Note_on_c, 0, 80, 57
3, 241655, Note_on_c, 0, 37, 0
3, 241787, Note_on_c, 0, 37, 42
3, 241796, Note_on_c, 0, 80, 0
3, 241805, Note_on_c, 0, 77, 41
3, 241913, Note_on_c, 0, 37, 0
3, 241989, Note_on_c, 0, 44, 0
3, 241990, Note_on_c, 0, 77, 0
3, 242149, Note_on_c, 0, 74, 47
3, 242152, Note_on_c, 0, 39, 43
3, 242164, Control_c, 0, 64, 0
3, 242394, Control_c, 0, 64, 127
3, 242419, Note_on_c, 0, 46, 44
3, 242423, Note_on_c, 0, 74, 0
3, 242430, Note_on_c, 0, 39, 0
3, 242448, Note_on_c, 0, 77, 36
3, 242596, Note_on_c, 0, 46, 0
3, 242601, Note_on_c, 0, 77, 0
3, 242669, Note_on_c, 0, 55, 38
3, 242681, Note_on_c, 0, 74, 42
3, 242686, Note_on_c, 0, 67, 32
3, 242688, Note_on_c, 0, 70, 36
3, 242851, Note_on_c, 0, 67, 0
3, 242894, Note_on_c, 0, 70, 0
3, 242898, Note_on_c, 0, 74, 0
3, 242916, Note_on_c, 0, 55, 0
3, 242925, Note_on_c, 0, 58, 39
3, 243140, Note_on_c, 0, 62, 34
3, 243145, Note_on_c, 0, 77, 55
3, 243151, Note_on_c, 0, 72, 27
3, 243254, Note_on_c, 0, 72, 0
3, 243338, Note_on_c, 0, 77, 0
3, 243367, Note_on_c, 0, 82, 53
3, 243375, Note_on_c, 0, 67, 30
3, 243378, Note_on_c, 0, 62, 0
3, 243503, Note_on_c, 0, 82, 0
3, 243626, Note_on_c, 0, 62, 37
3, 243627, Note_on_c, 0, 79, 46
3, 243631, Note_on_c, 0, 86, 53
3, 243637, Note_on_c, 0, 67, 0
3, 243927, Note_on_c, 0, 86, 0
3, 243949, Note_on_c, 0, 82, 35
3, 243981, Note_on_c, 0, 67, 27
3, 243988, Note_on_c, 0, 79, 0
3, 243994, Note_on_c, 0, 74, 32
3, 244051, Note_on_c, 0, 82, 0
3, 244062, Note_on_c, 0, 62, 0
3, 244119, Note_on_c, 0, 74, 0
3, 244313, Note_on_c, 0, 77, 38
3, 244332, Note_on_c, 0, 67, 0
3, 244340, Note_on_c, 0, 62, 31
3, 244356, Note_on_c, 0, 70, 29
3, 244635, Note_on_c, 0, 77, 0
3, 244696, Note_on_c, 0, 74, 34
3, 244705, Note_on_c, 0, 67, 24
3, 244782, Note_on_c, 0, 74, 0
3, 244813, Note_on_c, 0, 70, 0
3, 244870, Note_on_c, 0, 67, 0
3, 244883, Note_on_c, 0, 62, 0
3, 244924, Note_on_c, 0, 58, 0
3, 245131, Note_on_c, 0, 67, 24
3, 245144, Note_on_c, 0, 70, 34
3, 245147, Note_on_c, 0, 65, 31
3, 245161, Note_on_c, 0, 58, 32
3, 245254, Note_on_c, 0, 67, 0
3, 245314, Note_on_c, 0, 65, 0
3, 245321, Note_on_c, 0, 70, 0
3, 245577, Note_on_c, 0, 65, 54
3, 245588, Note_on_c, 0, 62, 51
3, 245803, Note_on_c, 0, 62, 0
3, 245813, Note_on_c, 0, 65, 0
3, 245945, Note_on_c, 0, 58, 0
3, 245952, Note_on_c, 0, 65, 68
3, 245966, Note_on_c, 0, 62, 61
3, 246141, Note_on_c, 0, 65, 0
3, 246153, Note_on_c, 0, 62, 0
3, 246904, Note_on_c, 0, 62, 37
3, 246912, Note_on_c, 0, 60, 17
3, 247092, Note_on_c, 0, 62, 0
3, 247140, Note_on_c, 0, 60, 0
3, 247332, Note_on_c, 0, 60, 50
3, 247337, Note_on_c, 0, 65, 43
3, 247376, Note_on_c, 0, 37, 32
3, 247399, Control_c, 0, 64, 0
3, 247664, Note_on_c, 0, 44, 53
3, 247701, Note_on_c, 0, 37, 0
3, 247784, Control_c, 0, 64, 127
3, 247850, Note_on_c, 0, 60, 0
3, 247895, Note_on_c, 0, 44, 0
3, 247958, Note_on_c, 0, 53, 43
3, 248099, Note_on_c, 0, 65, 0
3, 248184, Note_on_c, 0, 53, 0
3, 248189, Note_on_c, 0, 56, 49
3, 248395, Note_on_c, 0, 65, 59
3, 248416, Note_on_c, 0, 60, 25
3, 248502, Note_on_c, 0, 65, 0
3, 248582, Note_on_c, 0, 68, 72
3, 248674, Note_on_c, 0, 60, 0
3, 248720, Note_on_c, 0, 68, 0
3, 248769, Note_on_c, 0, 63, 11
3, 248771, Note_on_c, 0, 70, 81
3, 248776, Note_on_c, 0, 68, 46
3, 248808, Note_on_c, 0, 68, 0
3, 248862, Note_on_c, 0, 63, 0
3, 248921, Note_on_c, 0, 70, 0
3, 248967, Note_on_c, 0, 72, 72
3, 249012, Note_on_c, 0, 60, 30
3, 249050, Note_on_c, 0, 60, 0
3, 249081, Note_on_c, 0, 56, 0
3, 249151, Note_on_c, 0, 72, 0
3, 249566, Note_on_c, 0, 68, 36
3, 249727, Note_on_c, 0, 70, 61
3, 249743, Note_on_c, 0, 68, 0
3, 249871, Control_c, 0, 64, 0
3, 249873, Note_on_c, 0, 70, 0
3, 249884, Note_on_c, 0, 72, 66
3, 249897, Note_on_c, 0, 37, 51
3, 249904, Note_on_c, 0, 44, 44
3, 250028, Note_on_c, 0, 72, 0
3, 250045, Note_on_c, 0, 75, 60
3, 250065, Control_c, 0, 64, 127
3, 250071, Note_on_c, 0, 37, 0
3, 250098, Note_on_c, 0, 44, 0
3, 250176, Note_on_c, 0, 75, 0
3, 250233, Note_on_c, 0, 77, 59
3, 250352, Control_c, 0, 64, 0
3, 250372, Note_on_c, 0, 77, 0
3, 250385, Note_on_c, 0, 80, 64
3, 250403, Note_on_c, 0, 58, 47
3, 250449, Control_c, 0, 64, 127
3, 250450, Note_on_c, 0, 63, 9
3, 250483, Note_on_c, 0, 53, 6
3, 250561, Note_on_c, 0, 82, 63
3, 250587, Note_on_c, 0, 53, 0
3, 250609, Note_on_c, 0, 80, 0
3, 250648, Note_on_c, 0, 58, 0
3, 250664, Note_on_c, 0, 63, 0
3, 250685, Note_on_c, 0, 82, 0
3, 250738, Note_on_c, 0, 84, 71
3, 250775, Note_on_c, 0, 65, 41
3, 250776, Control_c, 0, 64, 0
3, 250792, Note_on_c, 0, 60, 29
3, 250809, Note_on_c, 0, 55, 31
3, 250872, Control_c, 0, 64, 127
3, 250909, Note_on_c, 0, 84, 0
3, 250923, Note_on_c, 0, 87, 61
3, 250990, Note_on_c, 0, 55, 0
3, 250994, Note_on_c, 0, 65, 0
3, 251022, Note_on_c, 0, 60, 0
3, 251056, Note_on_c, 0, 87, 0
3, 251107, Note_on_c, 0, 89, 55
3, 251266, Note_on_c, 0, 89, 0
3, 251289, Note_on_c, 0, 92, 62
3, 251309, Note_on_c, 0, 63, 49
3, 251337, Note_on_c, 0, 58, 42
3, 251444, Note_on_c, 0, 63, 0
3, 251490, Note_on_c, 0, 94, 55
3, 251509, Note_on_c, 0, 58, 0
3, 251521, Note_on_c, 0, 92, 0
3, 251596, Note_on_c, 0, 94, 0
3, 251677, Note_on_c, 0, 96, 58
3, 251828, Note_on_c, 0, 96, 0
3, 251871, Note_on_c, 0, 99, 51
3, 251970, Note_on_c, 0, 99, 0
3, 252138, Note_on_c, 0, 101, 53
3, 252337, Note_on_c, 0, 101, 0
3, 252412, Note_on_c, 0, 101, 47
3, 252581, Note_on_c, 0, 101, 0
3, 252702, Note_on_c, 0, 101, 52
3, 252709, Note_on_c, 0, 39, 42
3, 252758, Control_c, 0, 64, 0
3, 252983, Note_on_c, 0, 46, 39
3, 252986, Note_on_c, 0, 39, 0
3, 252990, Note_on_c, 0, 98, 47
3, 253019, Control_c, 0, 64, 127
3, 253101, Note_on_c, 0, 101, 0
3, 253121, Note_on_c, 0, 98, 0
3, 253179, Note_on_c, 0, 46, 0
3, 253262, Note_on_c, 0, 55, 44
3, 253267, Note_on_c, 0, 94, 30
3, 253271, Note_on_c, 0, 98, 36
3, 253279, Note_on_c, 0, 89, 32
3, 253410, Note_on_c, 0, 98, 0
3, 253463, Note_on_c, 0, 94, 0
3, 253502, Note_on_c, 0, 89, 0
3, 253549, Note_on_c, 0, 58, 36
3, 253583, Note_on_c, 0, 55, 0
3, 253819, Note_on_c, 0, 94, 58
3, 253837, Note_on_c, 0, 62, 36
3, 253908, Note_on_c, 0, 94, 0
3, 254116, Note_on_c, 0, 67, 34
3, 254172, Note_on_c, 0, 62, 0
3, 254390, Note_on_c, 0, 89, 50
3, 254415, Note_on_c, 0, 86, 38
3, 254417, Note_on_c, 0, 62, 36
3, 254421, Note_on_c, 0, 82, 23
3, 254428, Note_on_c, 0, 77, 29
3, 254533, Note_on_c, 0, 86, 0
3, 254537, Note_on_c, 0, 89, 0
3, 254588, Note_on_c, 0, 82, 0
3, 254589, Note_on_c, 0, 77, 0
3, 254651, Note_on_c, 0, 67, 0
3, 254939, Note_on_c, 0, 82, 71
3, 254945, Note_on_c, 0, 77, 66
3, 254957, Note_on_c, 0, 72, 42
3, 254960, Note_on_c, 0, 67, 48
3, 254968, Note_on_c, 0, 62, 0
3, 255156, Note_on_c, 0, 82, 0
3, 255161, Note_on_c, 0, 77, 0
3, 255257, Note_on_c, 0, 72, 0
3, 255354, Note_on_c, 0, 67, 0
3, 255545, Note_on_c, 0, 77, 53
3, 255577, Note_on_c, 0, 70, 34
3, 255578, Note_on_c, 0, 62, 34
3, 255582, Note_on_c, 0, 67, 38
3, 255587, Note_on_c, 0, 74, 35
3, 255678, Note_on_c, 0, 58, 0
3, 255739, Note_on_c, 0, 74, 0
3, 255771, Note_on_c, 0, 77, 0
3, 255802, Note_on_c, 0, 70, 0
3, 255837, Note_on_c, 0, 67, 0
3, 256060, Note_on_c, 0, 62, 0
3, 256088, Control_c, 0, 64, 0
3, 256096, Note_on_c, 0, 65, 40
3, 256097, Note_on_c, 0, 74, 43
3, 256107, Note_on_c, 0, 70, 40
3, 256113, Note_on_c, 0, 58, 39
3, 256121, Note_on_c, 0, 67, 47
3, 256184, Control_c, 0, 64, 127
3, 256269, Note_on_c, 0, 74, 0
3, 256282, Note_on_c, 0, 67, 0
3, 256286, Note_on_c, 0, 58, 0
3, 256291, Note_on_c, 0, 70, 0
3, 256337, Note_on_c, 0, 65, 0
3, 256628, Note_on_c, 0, 70, 48
3, 256642, Note_on_c, 0, 65, 45
3, 256647, Note_on_c, 0, 55, 38
3, 256658, Note_on_c, 0, 60, 20
3, 256707, Note_on_c, 0, 55, 0
3, 256785, Note_on_c, 0, 70, 0
3, 256793, Note_on_c, 0, 65, 0
3, 256868, Note_on_c, 0, 60, 0
3, 257269, Note_on_c, 0, 60, 36
3, 257273, Note_on_c, 0, 65, 43
3, 257276, Note_on_c, 0, 37, 44
3, 257282, Note_on_c, 0, 44, 42
3, 257289, Note_on_c, 0, 53, 24
3, 257300, Control_c, 0, 64, 0
3, 257306, Note_on_c, 0, 55, 20
3, 257621, Note_on_c, 0, 53, 0
3, 257628, Note_on_c, 0, 55, 0
3, 257639, Note_on_c, 0, 44, 0
3, 257644, Note_on_c, 0, 65, 0
3, 257645, Note_on_c, 0, 60, 0
3, 257670, Note_on_c, 0, 37, 0
3, 258118, Control_c, 0, 64, 127
3, 258147, Control_c, 0, 64, 0
3, 258210, Note_on_c, 0, 65, 38
3, 258221, Note_on_c, 0, 60, 35
3, 258231, Note_on_c, 0, 55, 24
3, 258233, Note_on_c, 0, 37, 34
3, 258235, Note_on_c, 0, 53, 24
3, 258247, Note_on_c, 0, 44, 31
3, 258378, Control_c, 0, 64, 127
3, 258480, Note_on_c, 0, 53, 0
3, 258501, Note_on_c, 0, 55, 0
3, 258545, Note_on_c, 0, 37, 0
3, 258546, Note_on_c, 0, 60, 0
3, 258573, Note_on_c, 0, 65, 0
3, 258656, Note_on_c, 0, 44, 0
3, 258728, Note_on_c, 0, 60, 49
3, 258741, Note_on_c, 0, 65, 54
3, 258788, Note_on_c, 0, 53, 31
3, 258962, Note_on_c, 0, 60, 0
3, 259045, Note_on_c, 0, 65, 0
3, 259074, Note_on_c, 0, 53, 0
3, 259103, Note_on_c, 0, 70, 72
3, 259132, Note_on_c, 0, 65, 47
3, 259265, Note_on_c, 0, 65, 0
3, 259363, Note_on_c, 0, 70, 0
3, 259417, Note_on_c, 0, 72, 58
3, 259600, Note_on_c, 0, 72, 0
3, 259752, Note_on_c, 0, 65, 52
3, 259754, Note_on_c, 0, 60, 29
3, 259763, Note_on_c, 0, 37, 39
3, 259802, Control_c, 0, 64, 0
3, 260035, Note_on_c, 0, 37, 0
3, 260036, Note_on_c, 0, 44, 40
3, 260042, Control_c, 0, 64, 127
3, 260317, Note_on_c, 0, 44, 0
3, 260331, Note_on_c, 0, 53, 45
3, 260598, Note_on_c, 0, 53, 0
3, 260632, Note_on_c, 0, 55, 44
3, 260640, Note_on_c, 0, 70, 1
3, 260742, Note_on_c, 0, 65, 0
3, 260793, Note_on_c, 0, 60, 0
3, 260974, Note_on_c, 0, 60, 29
3, 260982, Note_on_c, 0, 65, 43
3, 260989, Note_on_c, 0, 56, 35
3, 261095, Note_on_c, 0, 60, 0
3, 261205, Note_on_c, 0, 70, 0
3, 261288, Note_on_c, 0, 72, 64
3, 261295, Note_on_c, 0, 60, 29
3, 261391, Note_on_c, 0, 56, 0
3, 261413, Note_on_c, 0, 55, 0
3, 261492, Note_on_c, 0, 65, 0
3, 261546, Note_on_c, 0, 60, 0
3, 261580, Note_on_c, 0, 72, 0
3, 261625, Note_on_c, 0, 65, 40
3, 261627, Note_on_c, 0, 60, 34
3, 261846, Note_on_c, 0, 60, 0
3, 261920, Note_on_c, 0, 72, 53
3, 261971, Note_on_c, 0, 65, 0
3, 262187, Note_on_c, 0, 72, 0
3, 262234, Note_on_c, 0, 70, 37
3, 262235, Note_on_c, 0, 62, 34
3, 262260, Note_on_c, 0, 67, 41
3, 262267, Note_on_c, 0, 39, 37
3, 262304, Control_c, 0, 64, 0
3, 262476, Note_on_c, 0, 46, 51
3, 262488, Note_on_c, 0, 39, 0
3, 262545, Control_c, 0, 64, 127
3, 262632, Note_on_c, 0, 62, 0
3, 262676, Note_on_c, 0, 67, 0
3, 262677, Note_on_c, 0, 46, 0
3, 262718, Note_on_c, 0, 55, 45
3, 262721, Note_on_c, 0, 62, 59
3, 262758, Note_on_c, 0, 67, 26
3, 262846, Note_on_c, 0, 62, 0
3, 262904, Note_on_c, 0, 67, 0
3, 262906, Note_on_c, 0, 70, 0
3, 262975, Note_on_c, 0, 58, 44
3, 263022, Note_on_c, 0, 55, 0
3, 263246, Note_on_c, 0, 62, 46
3, 263259, Note_on_c, 0, 74, 49
3, 263261, Note_on_c, 0, 77, 44
3, 263264, Note_on_c, 0, 70, 37
3, 263273, Note_on_c, 0, 69, 58
3, 263421, Note_on_c, 0, 69, 0
3, 263502, Note_on_c, 0, 70, 0
3, 263507, Note_on_c, 0, 62, 0
3, 263514, Note_on_c, 0, 74, 0
3, 263541, Note_on_c, 0, 77, 0
3, 263560, Note_on_c, 0, 67, 43
3, 263838, Note_on_c, 0, 82, 71
3, 263860, Note_on_c, 0, 74, 66
3, 263898, Note_on_c, 0, 62, 44
3, 263921, Note_on_c, 0, 67, 0
3, 263959, Note_on_c, 0, 58, 0
3, 264035, Note_on_c, 0, 82, 0
3, 264092, Note_on_c, 0, 74, 0
3, 264151, Note_on_c, 0, 58, 45
3, 264158, Note_on_c, 0, 62, 0
3, 264194, Note_on_c, 0, 58, 0
3, 264470, Note_on_c, 0, 39, 51
3, 264488, Control_c, 0, 64, 0
3, 264652, Control_c, 0, 64, 127
3, 264767, Note_on_c, 0, 46, 43
3, 264779, Note_on_c, 0, 39, 0
3, 265050, Note_on_c, 0, 46, 0
3, 265103, Note_on_c, 0, 79, 34
3, 265104, Note_on_c, 0, 70, 33
3, 265109, Note_on_c, 0, 55, 34
3, 265110, Note_on_c, 0, 67, 32
3, 265140, Note_on_c, 0, 74, 34
3, 265402, Note_on_c, 0, 79, 0
3, 265409, Note_on_c, 0, 67, 0
3, 265438, Note_on_c, 0, 58, 33
3, 265443, Note_on_c, 0, 55, 0
3, 265469, Note_on_c, 0, 74, 0
3, 265565, Note_on_c, 0, 70, 0
3, 265770, Note_on_c, 0, 70, 30
3, 265776, Note_on_c, 0, 77, 35
3, 265790, Note_on_c, 0, 74, 38
3, 265794, Note_on_c, 0, 65, 25
3, 265810, Note_on_c, 0, 62, 32
3, 265944, Note_on_c, 0, 58, 0
3, 266019, Note_on_c, 0, 74, 0
3, 266035, Note_on_c, 0, 77, 0
3, 266102, Note_on_c, 0, 65, 0
3, 266111, Note_on_c, 0, 70, 0
3, 266119, Note_on_c, 0, 62, 0
3, 266129, Note_on_c, 0, 58, 35
3, 266181, Note_on_c, 0, 58, 0
3, 266443, Note_on_c, 0, 65, 41
3, 266448, Note_on_c, 0, 74, 45
3, 266460, Note_on_c, 0, 67, 37
3, 266465, Note_on_c, 0, 55, 32
3, 266471, Note_on_c, 0, 70, 34
3, 266541, Note_on_c, 0, 55, 0
3, 266741, Note_on_c, 0, 65, 0
3, 266821, Note_on_c, 0, 67, 0
3, 266928, Note_on_c, 0, 70, 0
3, 267158, Note_on_c, 0, 37, 56
3, 267213, Control_c, 0, 64, 0
3, 267488, Note_on_c, 0, 44, 46
3, 267489, Note_on_c, 0, 37, 0
3, 267493, Control_c, 0, 64, 127
3, 267532, Note_on_c, 0, 74, 0
3, 267770, Note_on_c, 0, 44, 0
3, 267819, Note_on_c, 0, 53, 40
3, 267839, Note_on_c, 0, 68, 40
3, 267841, Note_on_c, 0, 65, 30
3, 268160, Note_on_c, 0, 53, 0
3, 268191, Note_on_c, 0, 65, 0
3, 268193, Note_on_c, 0, 56, 35
3, 268491, Note_on_c, 0, 68, 0
3, 268552, Note_on_c, 0, 60, 36
3, 268564, Note_on_c, 0, 65, 40
3, 268987, Note_on_c, 0, 63, 37
3, 268994, Note_on_c, 0, 65, 0
3, 269029, Note_on_c, 0, 60, 0
3, 269377, Note_on_c, 0, 63, 0
3, 269417, Note_on_c, 0, 60, 29
3, 269424, Note_on_c, 0, 68, 35
3, 269425, Note_on_c, 0, 65, 34
3, 269484, Note_on_c, 0, 56, 0
3, 269792, Note_on_c, 0, 60, 0
3, 269825, Note_on_c, 0, 56, 42
3, 269870, Note_on_c, 0, 65, 0
3, 269934, Note_on_c, 0, 56, 0
3, 270100, Note_on_c, 0, 68, 0
3, 270282, Note_on_c, 0, 72, 43
3, 270311, Note_on_c, 0, 67, 37
3, 270312, Note_on_c, 0, 63, 21
3, 270314, Control_c, 0, 64, 0
3, 270324, Note_on_c, 0, 48, 32
3, 270325, Note_on_c, 0, 55, 24
3, 270518, Note_on_c, 0, 48, 0
3, 270585, Control_c, 0, 64, 127
3, 270768, Note_on_c, 0, 62, 41
3, 270817, Note_on_c, 0, 72, 0
3, 270951, Note_on_c, 0, 63, 0
3, 271217, Note_on_c, 0, 63, 35
3, 271491, Note_on_c, 0, 63, 0
3, 271542, Note_on_c, 0, 67, 0
3, 271678, Note_on_c, 0, 74, 65
3, 271829, Note_on_c, 0, 74, 0
3, 272009, Note_on_c, 0, 75, 64
3, 272226, Note_on_c, 0, 75, 0
3, 272978, Note_on_c, 0, 62, 0
3, 273729, Note_on_c, 0, 72, 31
3, 273974, Note_on_c, 0, 80, 48
3, 273993, Note_on_c, 0, 55, 0
3, 274002, Note_on_c, 0, 48, 32
3, 274058, Control_c, 0, 64, 0
3, 274260, Control_c, 0, 64, 127
3, 274309, Note_on_c, 0, 56, 38
3, 274359, Note_on_c, 0, 72, 0
3, 274678, Note_on_c, 0, 48, 0
3, 274721, Note_on_c, 0, 60, 31
3, 274733, Note_on_c, 0, 56, 0
3, 275116, Note_on_c, 0, 63, 31
3, 275176, Note_on_c, 0, 60, 0
3, 275500, Note_on_c, 0, 80, 0
3, 275519, Note_on_c, 0, 68, 36
3, 275884, Note_on_c, 0, 63, 0
3, 275885, Note_on_c, 0, 80, 52
3, 276027, Note_on_c, 0, 68, 0
3, 276034, Note_on_c, 0, 80, 0
3, 276436, Note_on_c, 0, 62, 35
3, 276442, Note_on_c, 0, 79, 45
3, 276443, Note_on_c, 0, 67, 28
3, 276464, Control_c, 0, 64, 0
3, 276472, Note_on_c, 0, 59, 22
3, 276656, Control_c, 0, 64, 127
3, 277134, Note_on_c, 0, 79, 0
3, 277417, Note_on_c, 0, 77, 51
3, 277496, Note_on_c, 0, 62, 0
3, 277570, Note_on_c, 0, 67, 0
3, 277676, Note_on_c, 0, 77, 0
3, 277729, Note_on_c, 0, 59, 0
3, 277784, Note_on_c, 0, 75, 48
3, 277794, Note_on_c, 0, 62, 30
3, 277799, Note_on_c, 0, 58, 33
3, 277800, Note_on_c, 0, 67, 36
3, 277813, Note_on_c, 0, 72, 39
3, 277820, Control_c, 0, 64, 0
3, 277955, Control_c, 0, 64, 127
3, 278077, Note_on_c, 0, 75, 0
3, 278107, Note_on_c, 0, 67, 0
3, 278133, Note_on_c, 0, 62, 0
3, 278157, Note_on_c, 0, 79, 64
3, 278226, Note_on_c, 0, 72, 0
3, 278300, Note_on_c, 0, 79, 0
3, 278345, Note_on_c, 0, 58, 0
3, 278497, Note_on_c, 0, 57, 47
3, 278502, Note_on_c, 0, 65, 44
3, 278511, Note_on_c, 0, 77, 63
3, 278521, Note_on_c, 0, 69, 48
3, 278522, Control_c, 0, 64, 0
3, 278686, Control_c, 0, 64, 127
3, 278849, Note_on_c, 0, 77, 0
3, 278909, Note_on_c, 0, 75, 59
3, 278982, Note_on_c, 0, 69, 0
3, 279008, Note_on_c, 0, 65, 0
3, 279075, Note_on_c, 0, 57, 0
3, 279105, Note_on_c, 0, 75, 0
3, 279333, Note_on_c, 0, 56, 47
3, 279338, Note_on_c, 0, 74, 51
3, 279341, Note_on_c, 0, 65, 32
3, 279349, Note_on_c, 0, 70, 42
3, 279350, Control_c, 0, 64, 0
3, 279542, Control_c, 0, 64, 127
3, 279709, Note_on_c, 0, 65, 0
3, 279731, Note_on_c, 0, 74, 0
3, 279755, Note_on_c, 0, 72, 54
3, 279822, Note_on_c, 0, 56, 0
3, 279877, Note_on_c, 0, 72, 0
3, 279919, Note_on_c, 0, 70, 0
3, 280206, Control_c, 0, 64, 0
3, 280219, Note_on_c, 0, 70, 55
3, 280229, Note_on_c, 0, 65, 34
3, 280230, Note_on_c, 0, 55, 31
3, 280361, Control_c, 0, 64, 127
3, 280410, Note_on_c, 0, 70, 0
3, 280603, Note_on_c, 0, 65, 0
3, 280670, Note_on_c, 0, 77, 57
3, 280695, Note_on_c, 0, 55, 0
3, 280773, Note_on_c, 0, 77, 0
3, 281134, Note_on_c, 0, 75, 38
3, 281165, Note_on_c, 0, 63, 20
3, 281170, Control_c, 0, 64, 0
3, 281177, Note_on_c, 0, 48, 33
3, 281177, Note_on_c, 0, 67, 32
3, 281201, Note_on_c, 0, 55, 19
3, 281325, Note_on_c, 0, 75, 0
3, 281342, Control_c, 0, 64, 127
3, 281348, Note_on_c, 0, 67, 0
3, 281518, Note_on_c, 0, 63, 0
3, 281644, Note_on_c, 0, 67, 62
3, 281742, Note_on_c, 0, 48, 0
3, 282046, Note_on_c, 0, 67, 0
3, 282097, Note_on_c, 0, 55, 0
3, 282138, Note_on_c, 0, 68, 52
3, 282154, Note_on_c, 0, 63, 48
3, 282157, Note_on_c, 0, 60, 28
3, 282159, Note_on_c, 0, 56, 29
3, 282166, Note_on_c, 0, 48, 35
3, 282180, Control_c, 0, 64, 0
3, 282362, Control_c, 0, 64, 127
3, 282581, Note_on_c, 0, 60, 0
3, 282582, Note_on_c, 0, 56, 0
3, 282683, Note_on_c, 0, 60, 52
3, 282731, Note_on_c, 0, 63, 0
3, 282955, Note_on_c, 0, 68, 0
3, 282956, Note_on_c, 0, 60, 0
3, 283085, Note_on_c, 0, 63, 83
3, 283093, Note_on_c, 0, 56, 35
3, 283360, Note_on_c, 0, 63, 0
3, 283413, Note_on_c, 0, 48, 0
3, 283448, Note_on_c, 0, 68, 77
3, 283451, Note_on_c, 0, 63, 84
3, 283514, Note_on_c, 0, 56, 0
3, 283746, Note_on_c, 0, 63, 0
3, 283751, Note_on_c, 0, 68, 0
3, 283872, Note_on_c, 0, 67, 69
3, 283874, Note_on_c, 0, 55, 45
3, 283880, Note_on_c, 0, 62, 68
3, 283882, Control_c, 0, 64, 0
3, 283883, Note_on_c, 0, 47, 40
3, 284084, Control_c, 0, 64, 127
3, 284264, Note_on_c, 0, 67, 0
3, 284273, Note_on_c, 0, 62, 0
3, 284327, Note_on_c, 0, 65, 70
3, 284365, Note_on_c, 0, 67, 24
3, 284409, Note_on_c, 0, 47, 0
3, 284475, Note_on_c, 0, 55, 0
3, 284685, Note_on_c, 0, 67, 0
3, 284750, Note_on_c, 0, 65, 0
3, 284756, Note_on_c, 0, 63, 64
3, 284757, Control_c, 0, 64, 0
3, 284777, Note_on_c, 0, 60, 34
3, 284786, Note_on_c, 0, 55, 44
3, 284796, Note_on_c, 0, 46, 30
3, 284969, Control_c, 0, 64, 127
3, 285127, Note_on_c, 0, 60, 0
3, 285137, Note_on_c, 0, 55, 0
3, 285180, Note_on_c, 0, 67, 69
3, 285253, Note_on_c, 0, 63, 0
3, 285257, Note_on_c, 0, 46, 0
3, 285297, Note_on_c, 0, 67, 0
3, 285633, Control_c, 0, 64, 0
3, 285636, Note_on_c, 0, 65, 52
3, 285641, Note_on_c, 0, 60, 35
3, 285643, Note_on_c, 0, 57, 41
3, 285649, Note_on_c, 0, 53, 32
3, 285654, Note_on_c, 0, 45, 38
3, 285835, Control_c, 0, 64, 127
3, 286058, Note_on_c, 0, 65, 0
3, 286136, Note_on_c, 0, 63, 48
3, 286142, Note_on_c, 0, 57, 0
3, 286147, Note_on_c, 0, 53, 0
3, 286154, Note_on_c, 0, 45, 0
3, 286224, Note_on_c, 0, 60, 0
3, 286448, Note_on_c, 0, 63, 0
3, 286616, Note_on_c, 0, 58, 52
3, 286621, Note_on_c, 0, 62, 55
3, 286628, Note_on_c, 0, 53, 28
3, 286644, Control_c, 0, 64, 0
3, 286668, Note_on_c, 0, 44, 25
3, 286818, Note_on_c, 0, 62, 0
3, 286827, Control_c, 0, 64, 127
3, 287002, Note_on_c, 0, 53, 0
3, 287009, Note_on_c, 0, 58, 0
3, 287114, Note_on_c, 0, 60, 49
3, 287207, Note_on_c, 0, 44, 0
3, 287541, Note_on_c, 0, 60, 0
3, 287567, Control_c, 0, 64, 0
3, 287568, Note_on_c, 0, 58, 50
3, 287574, Note_on_c, 0, 50, 42
3, 287587, Note_on_c, 0, 43, 30
3, 287598, Note_on_c, 0, 55, 30
3, 287760, Control_c, 0, 64, 127
3, 287927, Note_on_c, 0, 55, 0
3, 287954, Note_on_c, 0, 50, 0
3, 287998, Note_on_c, 0, 43, 0
3, 288001, Note_on_c, 0, 65, 64
3, 288097, Note_on_c, 0, 58, 0
3, 288197, Note_on_c, 0, 65, 0
3, 288425, Control_c, 0, 64, 0
3, 288433, Note_on_c, 0, 63, 54
3, 288448, Note_on_c, 0, 48, 34
3, 288450, Note_on_c, 0, 36, 38
3, 288459, Note_on_c, 0, 55, 40
3, 288460, Note_on_c, 0, 60, 33
3, 288619, Control_c, 0, 64, 127
3, 288676, Note_on_c, 0, 63, 0
3, 288690, Note_on_c, 0, 55, 0
3, 288829, Note_on_c, 0, 60, 0
3, 288881, Note_on_c, 0, 67, 71
3, 288909, Note_on_c, 0, 60, 31
3, 289008, Note_on_c, 0, 48, 0
3, 289044, Note_on_c, 0, 67, 0
3, 289089, Note_on_c, 0, 60, 0
3, 289384, Note_on_c, 0, 68, 68
3, 289385, Note_on_c, 0, 48, 53
3, 289388, Note_on_c, 0, 60, 58
3, 289397, Note_on_c, 0, 63, 64
3, 289400, Note_on_c, 0, 56, 61
3, 289436, Control_c, 0, 64, 0
3, 289658, Control_c, 0, 64, 127
3, 289784, Note_on_c, 0, 36, 0
3, 289797, Note_on_c, 0, 48, 0
3, 289901, Note_on_c, 0, 48, 91
3, 290359, Note_on_c, 0, 48, 0
3, 290460, Note_on_c, 0, 48, 96
3, 290808, Note_on_c, 0, 56, 0
3, 290809, Note_on_c, 0, 60, 0
3, 290855, Note_on_c, 0, 63, 0
3, 290870, Note_on_c, 0, 48, 0
3, 290871, Note_on_c, 0, 68, 0
3, 290994, Note_on_c, 0, 48, 81
3, 290995, Note_on_c, 0, 68, 60
3, 291004, Note_on_c, 0, 56, 71
3, 291010, Note_on_c, 0, 60, 55
3, 291012, Note_on_c, 0, 63, 56
3, 291209, Note_on_c, 0, 56, 0
3, 291227, Note_on_c, 0, 60, 0
3, 291301, Note_on_c, 0, 63, 0
3, 291309, Note_on_c, 0, 68, 0
3, 291562, Note_on_c, 0, 48, 0
3, 291573, Note_on_c, 0, 67, 71
3, 291585, Note_on_c, 0, 47, 76
3, 291590, Note_on_c, 0, 59, 72
3, 291594, Note_on_c, 0, 55, 71
3, 291598, Note_on_c, 0, 62, 59
3, 291603, Control_c, 0, 64, 0
3, 291813, Control_c, 0, 64, 127
3, 291959, Note_on_c, 0, 67, 0
3, 292042, Note_on_c, 0, 55, 0
3, 292062, Note_on_c, 0, 62, 0
3, 292078, Note_on_c, 0, 59, 0
3, 292162, Note_on_c, 0, 65, 74
3, 292553, Note_on_c, 0, 65, 0
3, 292680, Note_on_c, 0, 63, 69
3, 292697, Note_on_c, 0, 46, 64
3, 292698, Note_on_c, 0, 60, 54
3, 292705, Note_on_c, 0, 47, 0
3, 292709, Note_on_c, 0, 55, 65
3, 292718, Control_c, 0, 64, 0
3, 292920, Control_c, 0, 64, 127
3, 293083, Note_on_c, 0, 63, 0
3, 293098, Note_on_c, 0, 55, 0
3, 293224, Note_on_c, 0, 60, 0
3, 293244, Note_on_c, 0, 46, 0
3, 293249, Note_on_c, 0, 67, 72
3, 293268, Note_on_c, 0, 60, 32
3, 293371, Note_on_c, 0, 60, 0
3, 293566, Note_on_c, 0, 67, 0
3, 293817, Note_on_c, 0, 45, 71
3, 293819, Note_on_c, 0, 60, 64
3, 293822, Note_on_c, 0, 65, 69
3, 293825, Note_on_c, 0, 33, 62
3, 293827, Note_on_c, 0, 57, 71
3, 293834, Control_c, 0, 64, 0
3, 294056, Control_c, 0, 64, 127
3, 294209, Note_on_c, 0, 65, 0
3, 294354, Note_on_c, 0, 57, 0
3, 294427, Note_on_c, 0, 60, 0
3, 294479, Note_on_c, 0, 63, 83
3, 294654, Note_on_c, 0, 33, 0
3, 294756, Note_on_c, 0, 45, 0
3, 294864, Note_on_c, 0, 63, 0
3, 295164, Note_on_c, 0, 62, 75
3, 295171, Note_on_c, 0, 44, 74
3, 295178, Note_on_c, 0, 53, 69
3, 295179, Note_on_c, 0, 58, 71
3, 295184, Note_on_c, 0, 32, 67
3, 295213, Control_c, 0, 64, 0
3, 295540, Control_c, 0, 64, 127
3, 295657, Note_on_c, 0, 53, 0
3, 295762, Note_on_c, 0, 62, 0
3, 295793, Note_on_c, 0, 58, 0
3, 295872, Note_on_c, 0, 60, 81
3, 296154, Note_on_c, 0, 44, 0
3, 296177, Note_on_c, 0, 32, 0
3, 296203, Note_on_c, 0, 60, 0
3, 296526, Note_on_c, 0, 58, 83
3, 296528, Note_on_c, 0, 43, 77
3, 296533, Note_on_c, 0, 53, 80
3, 296536, Note_on_c, 0, 31, 75
3, 296550, Control_c, 0, 64, 0
3, 296781, Control_c, 0, 64, 127
3, 296921, Note_on_c, 0, 53, 0
3, 297114, Note_on_c, 0, 58, 0
3, 297276, Note_on_c, 0, 65, 92
3, 297385, Note_on_c, 0, 31, 0
3, 297446, Note_on_c, 0, 43, 0
3, 297665, Note_on_c, 0, 65, 0
3, 298003, Note_on_c, 0, 63, 85
3, 298005, Note_on_c, 0, 60, 76
3, 298008, Note_on_c, 0, 48, 88
3, 298010, Note_on_c, 0, 36, 80
3, 298016, Note_on_c, 0, 55, 81
3, 298061, Control_c, 0, 64, 0
3, 298272, Control_c, 0, 64, 127
3, 298529, Note_on_c, 0, 55, 0
3, 298553, Note_on_c, 0, 63, 0
3, 298712, Note_on_c, 0, 60, 0
3, 298730, Note_on_c, 0, 48, 0
3, 298923, Note_on_c, 0, 67, 72
3, 298928, Note_on_c, 0, 60, 71
3, 298941, Note_on_c, 0, 48, 77
3, 298944, Note_on_c, 0, 55, 78
3, 298978, Note_on_c, 0, 55, 0
3, 299225, Note_on_c, 0, 48, 0
3, 299291, Note_on_c, 0, 36, 0
3, 299438, Note_on_c, 0, 67, 0
3, 299450, Note_on_c, 0, 60, 0
3, 300490, Note_on_c, 0, 37, 78
3, 300494, Note_on_c, 0, 25, 67
3, 300495, Note_on_c, 0, 68, 78
3, 300496, Note_on_c, 0, 60, 75
3, 300497, Note_on_c, 0, 65, 80
3, 300497, Control_c, 0, 64, 0
3, 300709, Control_c, 0, 64, 127
3, 300784, Note_on_c, 0, 25, 0
3, 300831, Note_on_c, 0, 37, 0
3, 300908, Note_on_c, 0, 60, 0
3, 301013, Note_on_c, 0, 65, 0
3, 301066, Note_on_c, 0, 68, 0
3, 301332, Note_on_c, 0, 54, 53
3, 301378, Note_on_c, 0, 53, 51
3, 301692, Note_on_c, 0, 58, 67
3, 301890, Note_on_c, 0, 63, 71
3, 302042, Note_on_c, 0, 65, 44
3, 302153, Note_on_c, 0, 65, 0
3, 302156, Note_on_c, 0, 68, 62
3, 302273, Note_on_c, 0, 70, 65
3, 302292, Note_on_c, 0, 68, 0
3, 302342, Note_on_c, 0, 70, 0
3, 302373, Note_on_c, 0, 72, 68
3, 302448, Note_on_c, 0, 72, 0
3, 302461, Note_on_c, 0, 75, 69
3, 302553, Note_on_c, 0, 75, 0
3, 302593, Note_on_c, 0, 77, 74
3, 302679, Note_on_c, 0, 80, 64
3, 302697, Note_on_c, 0, 77, 0
3, 302795, Note_on_c, 0, 82, 67
3, 302822, Note_on_c, 0, 80, 0
3, 302871, Note_on_c, 0, 82, 0
3, 302875, Note_on_c, 0, 84, 64
3, 302967, Note_on_c, 0, 84, 0
3, 302982, Note_on_c, 0, 87, 67
3, 303064, Note_on_c, 0, 87, 0
3, 303102, Note_on_c, 0, 89, 60
3, 303192, Note_on_c, 0, 92, 64
3, 303206, Note_on_c, 0, 89, 0
3, 303323, Note_on_c, 0, 92, 0
3, 303331, Note_on_c, 0, 94, 55
3, 303366, Note_on_c, 0, 94, 0
3, 303415, Note_on_c, 0, 96, 53
3, 303507, Note_on_c, 0, 96, 0
3, 303548, Note_on_c, 0, 99, 56
3, 303629, Note_on_c, 0, 99, 0
3, 303706, Note_on_c, 0, 100, 43
3, 303782, Note_on_c, 0, 100, 0
3, 303869, Note_on_c, 0, 104, 55
3, 303994, Note_on_c, 0, 104, 0
3, 304025, Note_on_c, 0, 106, 60
3, 304028, Note_on_c, 0, 53, 0
3, 304029, Note_on_c, 0, 63, 0
3, 304101, Note_on_c, 0, 54, 0
3, 304117, Note_on_c, 0, 58, 0
3, 304201, Note_on_c, 0, 106, 0
3, 304228, Note_on_c, 0, 108, 48
3, 304427, Note_on_c, 0, 108, 0
3, 304501, Note_on_c, 0, 108, 45
3, 304701, Note_on_c, 0, 108, 0
3, 304799, Note_on_c, 0, 108, 40
3, 304995, Note_on_c, 0, 108, 0
3, 305095, Note_on_c, 0, 108, 40
3, 305294, Note_on_c, 0, 108, 0
3, 305489, Note_on_c, 0, 108, 25
3, 305499, Note_on_c, 0, 25, 25
3, 305869, Note_on_c, 0, 25, 0
3, 305922, Note_on_c, 0, 108, 0
3, 306079, Note_on_c, 0, 25, 27
3, 306080, Note_on_c, 0, 108, 17
3, 306424, Note_on_c, 0, 25, 0
3, 306494, Note_on_c, 0, 108, 0
3, 306722, Note_on_c, 0, 25, 28
3, 306726, Note_on_c, 0, 108, 24
3, 307097, Note_on_c, 0, 25, 0
3, 307110, Note_on_c, 0, 108, 0
3, 310043, Control_c, 0, 64, 0
3, 310043, End_track
4, 0, Start_track
4, 0, Title_t, "Audio 2"
4, 0, Control_c, 0, 7, 101
4, 0, Control_c, 0, 10, 64
4, 0, End_track
5, 0, Start_track
5, 0, Title_t, "MIDI 2"
5, 0, End_track
0, 0, End_of_file
