0, 0, Header, 1, 4, 120
1, 0, Start_track
1, 0, Title_t, "Ask Me Now (Thelonious Monk)"
1, 0, Text_t, "Doug McKenzie\012"
1, 0, Text_t, "First I played a chorus on one track/midi channel in an 'accompaniment' style - then I improvised over this on another track/midi channel . Did another chorus but reversed the roles of each. Then another chorus. Keep tracks on separate midi channels or p\012"
1, 0, Time_signature, 4, 2, 24, 8
1, 0, Key_signature, -5, "major"
1, 0, Tempo, 571429
1, 0, Marker_t, "Ask Me Now by Thelonious Monk"
1, 7200, Marker_t, "On track 2, a useful 'fill' on a Major chord - chromatic scale in triplets 2 hands a sixth apart after each bar you are back on key on the downbeat of the next"
1, 15360, Marker_t, "Roles reversed - Rhodes takes solo - while acoustic plays accompaniment"
1, 30720, Marker_t, "Back to acoustic piano playing head while Rhodes plays accomapniment"
1, 36000, Marker_t, "Whole tone scale figure on B7"
1, 36240, Marker_t, "Same figure on Bb7 but transposed and notes from the other Whole tone scale"
1, 46080, Marker_t, "C/Db Bass chord with a diminished scale (Whole-half-whole-half etc.) beginning on C"
1, 46968, Marker_t, "Resolves to DbMaj7#11"
1, 46968, End_track
2, 0, Start_track
2, 0, Title_t, "First Player - Acoustic Piano"
2, 0, Program_c, 0, 0
2, 0, Control_c, 0, 10, 1
2, 0, Note_on_c, 0, 62, 44
2, 0, Note_on_c, 0, 84, 91
2, 0, Note_on_c, 0, 57, 46
2, 1, Note_on_c, 0, 58, 42
2, 27, Control_c, 0, 64, 127
2, 53, Note_on_c, 0, 84, 0
2, 76, Note_on_c, 0, 62, 0
2, 80, Note_on_c, 0, 79, 66
2, 114, Note_on_c, 0, 79, 0
2, 117, Note_on_c, 0, 62, 43
2, 149, Note_on_c, 0, 57, 0
2, 153, Note_on_c, 0, 62, 0
2, 163, Note_on_c, 0, 58, 0
2, 163, Note_on_c, 0, 76, 64
2, 188, Note_on_c, 0, 76, 0
2, 194, Note_on_c, 0, 72, 65
2, 229, Note_on_c, 0, 72, 0
2, 229, Control_c, 0, 64, 0
2, 236, Note_on_c, 0, 54, 34
2, 238, Note_on_c, 0, 71, 52
2, 238, Note_on_c, 0, 64, 30
2, 240, Note_on_c, 0, 60, 37
2, 257, Control_c, 0, 64, 127
2, 286, Note_on_c, 0, 60, 0
2, 292, Note_on_c, 0, 54, 0
2, 295, Note_on_c, 0, 64, 0
2, 298, Note_on_c, 0, 71, 0
2, 316, Note_on_c, 0, 83, 94
2, 366, Note_on_c, 0, 66, 34
2, 366, Note_on_c, 0, 75, 57
2, 368, Note_on_c, 0, 63, 36
2, 369, Control_c, 0, 64, 0
2, 370, Note_on_c, 0, 57, 24
2, 371, Note_on_c, 0, 61, 26
2, 390, Control_c, 0, 64, 127
2, 405, Note_on_c, 0, 57, 0
2, 416, Note_on_c, 0, 61, 0
2, 417, Note_on_c, 0, 66, 0
2, 430, Note_on_c, 0, 63, 0
2, 433, Note_on_c, 0, 83, 0
2, 440, Note_on_c, 0, 71, 60
2, 456, Note_on_c, 0, 71, 0
2, 463, Note_on_c, 0, 75, 0
2, 477, Note_on_c, 0, 66, 35
2, 483, Note_on_c, 0, 82, 80
2, 483, Note_on_c, 0, 75, 84
2, 484, Note_on_c, 0, 79, 73
2, 485, Note_on_c, 0, 67, 89
2, 485, Note_on_c, 0, 72, 82
2, 488, Control_c, 0, 64, 0
2, 490, Note_on_c, 0, 66, 0
2, 514, Note_on_c, 0, 79, 0
2, 514, Control_c, 0, 64, 127
2, 518, Note_on_c, 0, 82, 0
2, 527, Note_on_c, 0, 67, 0
2, 528, Note_on_c, 0, 75, 0
2, 532, Note_on_c, 0, 72, 0
2, 556, Note_on_c, 0, 77, 72
2, 557, Note_on_c, 0, 65, 66
2, 558, Note_on_c, 0, 72, 82
2, 559, Control_c, 0, 64, 0
2, 574, Control_c, 0, 64, 127
2, 594, Note_on_c, 0, 65, 0
2, 595, Note_on_c, 0, 77, 0
2, 597, Note_on_c, 0, 72, 0
2, 648, Note_on_c, 0, 74, 71
2, 648, Note_on_c, 0, 67, 69
2, 650, Note_on_c, 0, 63, 45
2, 654, Control_c, 0, 64, 0
2, 656, Note_on_c, 0, 63, 0
2, 660, Note_on_c, 0, 67, 0
2, 673, Note_on_c, 0, 74, 0
2, 679, Control_c, 0, 64, 127
2, 680, Note_on_c, 0, 71, 58
2, 703, Note_on_c, 0, 71, 0
2, 720, Note_on_c, 0, 67, 65
2, 720, Note_on_c, 0, 46, 39
2, 720, Note_on_c, 0, 56, 37
2, 722, Note_on_c, 0, 62, 57
2, 724, Control_c, 0, 64, 0
2, 726, Note_on_c, 0, 56, 0
2, 731, Note_on_c, 0, 46, 0
2, 732, Note_on_c, 0, 67, 0
2, 736, Note_on_c, 0, 62, 0
2, 798, Note_on_c, 0, 69, 71
2, 799, Note_on_c, 0, 62, 69
2, 799, Note_on_c, 0, 58, 64
2, 800, Note_on_c, 0, 57, 63
2, 801, Note_on_c, 0, 64, 57
2, 811, Control_c, 0, 64, 127
2, 832, Note_on_c, 0, 62, 0
2, 833, Note_on_c, 0, 64, 0
2, 836, Note_on_c, 0, 69, 0
2, 837, Note_on_c, 0, 58, 0
2, 837, Note_on_c, 0, 57, 0
2, 852, Note_on_c, 0, 58, 48
2, 852, Note_on_c, 0, 61, 59
2, 852, Note_on_c, 0, 64, 54
2, 854, Note_on_c, 0, 55, 45
2, 855, Control_c, 0, 64, 0
2, 880, Control_c, 0, 64, 127
2, 889, Note_on_c, 0, 55, 0
2, 914, Note_on_c, 0, 58, 0
2, 925, Note_on_c, 0, 64, 0
2, 926, Note_on_c, 0, 61, 0
2, 926, Note_on_c, 0, 58, 49
2, 941, Note_on_c, 0, 58, 0
2, 967, Note_on_c, 0, 54, 42
2, 968, Note_on_c, 0, 61, 71
2, 969, Note_on_c, 0, 68, 57
2, 970, Note_on_c, 0, 65, 70
2, 973, Control_c, 0, 64, 0
2, 985, Note_on_c, 0, 54, 0
2, 1012, Note_on_c, 0, 65, 0
2, 1013, Note_on_c, 0, 61, 0
2, 1021, Note_on_c, 0, 68, 0
2, 1045, Note_on_c, 0, 70, 56
2, 1048, Note_on_c, 0, 61, 48
2, 1048, Note_on_c, 0, 65, 61
2, 1048, Note_on_c, 0, 58, 52
2, 1077, Note_on_c, 0, 65, 0
2, 1077, Note_on_c, 0, 61, 0
2, 1081, Note_on_c, 0, 70, 0
2, 1088, Note_on_c, 0, 58, 0
2, 1091, Note_on_c, 0, 61, 36
2, 1093, Note_on_c, 0, 68, 50
2, 1095, Note_on_c, 0, 65, 48
2, 1095, Note_on_c, 0, 56, 36
2, 1105, Control_c, 0, 64, 127
2, 1111, Note_on_c, 0, 61, 0
2, 1115, Note_on_c, 0, 65, 0
2, 1117, Note_on_c, 0, 68, 0
2, 1124, Note_on_c, 0, 70, 54
2, 1127, Note_on_c, 0, 61, 31
2, 1129, Note_on_c, 0, 56, 0
2, 1129, Note_on_c, 0, 58, 36
2, 1147, Note_on_c, 0, 61, 0
2, 1152, Note_on_c, 0, 70, 0
2, 1154, Control_c, 0, 64, 0
2, 1155, Note_on_c, 0, 58, 0
2, 1167, Note_on_c, 0, 68, 50
2, 1168, Note_on_c, 0, 60, 65
2, 1168, Note_on_c, 0, 65, 63
2, 1169, Note_on_c, 0, 54, 53
2, 1216, Control_c, 0, 64, 127
2, 1311, Note_on_c, 0, 54, 0
2, 1320, Note_on_c, 0, 65, 0
2, 1344, Note_on_c, 0, 68, 0
2, 1363, Note_on_c, 0, 60, 0
2, 1401, Note_on_c, 0, 64, 44
2, 1413, Note_on_c, 0, 64, 0
2, 1440, Control_c, 0, 64, 0
2, 1442, Note_on_c, 0, 65, 44
2, 1443, Note_on_c, 0, 54, 33
2, 1444, Note_on_c, 0, 47, 36
2, 1445, Note_on_c, 0, 57, 38
2, 1445, Note_on_c, 0, 61, 37
2, 1446, Note_on_c, 0, 63, 32
2, 1456, Note_on_c, 0, 57, 0
2, 1460, Control_c, 0, 64, 127
2, 1463, Note_on_c, 0, 61, 0
2, 1465, Note_on_c, 0, 63, 0
2, 1467, Note_on_c, 0, 65, 0
2, 1469, Note_on_c, 0, 47, 0
2, 1478, Note_on_c, 0, 54, 0
2, 1522, Note_on_c, 0, 69, 62
2, 1538, Note_on_c, 0, 69, 0
2, 1547, Note_on_c, 0, 71, 71
2, 1567, Note_on_c, 0, 71, 0
2, 1575, Note_on_c, 0, 73, 64
2, 1597, Note_on_c, 0, 73, 0
2, 1603, Note_on_c, 0, 75, 61
2, 1618, Note_on_c, 0, 75, 0
2, 1630, Note_on_c, 0, 77, 60
2, 1651, Note_on_c, 0, 77, 0
2, 1659, Note_on_c, 0, 79, 56
2, 1680, Note_on_c, 0, 79, 0
2, 1687, Note_on_c, 0, 68, 57
2, 1689, Control_c, 0, 64, 0
2, 1690, Note_on_c, 0, 57, 38
2, 1691, Note_on_c, 0, 63, 31
2, 1692, Note_on_c, 0, 80, 56
2, 1697, Note_on_c, 0, 68, 0
2, 1698, Note_on_c, 0, 57, 0
2, 1698, Note_on_c, 0, 63, 0
2, 1712, Note_on_c, 0, 80, 0
2, 1719, Note_on_c, 0, 82, 48
2, 1741, Note_on_c, 0, 82, 0
2, 1747, Note_on_c, 0, 83, 62
2, 1770, Note_on_c, 0, 83, 0
2, 1778, Note_on_c, 0, 85, 59
2, 1784, Control_c, 0, 64, 127
2, 1797, Note_on_c, 0, 85, 0
2, 1800, Control_c, 0, 64, 0
2, 1805, Note_on_c, 0, 67, 41
2, 1806, Note_on_c, 0, 56, 35
2, 1806, Note_on_c, 0, 86, 63
2, 1808, Note_on_c, 0, 62, 37
2, 1825, Note_on_c, 0, 86, 0
2, 1826, Control_c, 0, 64, 127
2, 1833, Note_on_c, 0, 67, 0
2, 1836, Note_on_c, 0, 62, 0
2, 1852, Note_on_c, 0, 56, 0
2, 1864, Note_on_c, 0, 87, 42
2, 1889, Note_on_c, 0, 87, 0
2, 1895, Note_on_c, 0, 89, 47
2, 1911, Note_on_c, 0, 89, 0
2, 1923, Note_on_c, 0, 89, 53
2, 1924, Note_on_c, 0, 77, 42
2, 1926, Note_on_c, 0, 61, 32
2, 1927, Note_on_c, 0, 65, 35
2, 1927, Note_on_c, 0, 55, 40
2, 1928, Control_c, 0, 64, 0
2, 1956, Control_c, 0, 64, 127
2, 1974, Note_on_c, 0, 89, 0
2, 1985, Note_on_c, 0, 77, 0
2, 2018, Note_on_c, 0, 65, 0
2, 2023, Note_on_c, 0, 61, 0
2, 2047, Note_on_c, 0, 61, 33
2, 2047, Note_on_c, 0, 65, 42
2, 2061, Note_on_c, 0, 65, 0
2, 2076, Note_on_c, 0, 61, 0
2, 2083, Note_on_c, 0, 86, 73
2, 2085, Note_on_c, 0, 55, 0
2, 2103, Note_on_c, 0, 86, 0
2, 2117, Note_on_c, 0, 82, 53
2, 2137, Note_on_c, 0, 82, 0
2, 2147, Note_on_c, 0, 81, 55
2, 2170, Note_on_c, 0, 54, 30
2, 2171, Note_on_c, 0, 81, 0
2, 2172, Control_c, 0, 64, 0
2, 2174, Note_on_c, 0, 65, 29
2, 2176, Note_on_c, 0, 80, 53
2, 2177, Note_on_c, 0, 60, 34
2, 2198, Control_c, 0, 64, 127
2, 2223, Note_on_c, 0, 80, 0
2, 2237, Note_on_c, 0, 88, 68
2, 2246, Note_on_c, 0, 65, 0
2, 2250, Note_on_c, 0, 60, 0
2, 2282, Note_on_c, 0, 88, 0
2, 2293, Note_on_c, 0, 76, 45
2, 2295, Note_on_c, 0, 64, 22
2, 2344, Note_on_c, 0, 76, 0
2, 2352, Note_on_c, 0, 64, 0
2, 2379, Note_on_c, 0, 54, 0
2, 2408, Note_on_c, 0, 75, 78
2, 2409, Note_on_c, 0, 68, 82
2, 2409, Note_on_c, 0, 63, 84
2, 2409, Note_on_c, 0, 72, 71
2, 2410, Note_on_c, 0, 65, 85
2, 2415, Control_c, 0, 64, 0
2, 2434, Note_on_c, 0, 63, 0
2, 2435, Note_on_c, 0, 65, 0
2, 2436, Note_on_c, 0, 72, 0
2, 2437, Note_on_c, 0, 68, 0
2, 2437, Note_on_c, 0, 75, 0
2, 2488, Note_on_c, 0, 73, 67
2, 2488, Note_on_c, 0, 61, 73
2, 2488, Note_on_c, 0, 68, 78
2, 2489, Note_on_c, 0, 65, 77
2, 2505, Control_c, 0, 64, 127
2, 2514, Note_on_c, 0, 65, 0
2, 2520, Note_on_c, 0, 68, 0
2, 2522, Note_on_c, 0, 61, 0
2, 2524, Control_c, 0, 64, 0
2, 2525, Note_on_c, 0, 73, 0
2, 2534, Note_on_c, 0, 60, 44
2, 2534, Note_on_c, 0, 68, 35
2, 2535, Note_on_c, 0, 65, 55
2, 2535, Note_on_c, 0, 72, 51
2, 2551, Control_c, 0, 64, 127
2, 2565, Note_on_c, 0, 72, 0
2, 2568, Note_on_c, 0, 68, 0
2, 2571, Note_on_c, 0, 65, 0
2, 2579, Note_on_c, 0, 60, 0
2, 2601, Note_on_c, 0, 73, 42
2, 2603, Note_on_c, 0, 65, 66
2, 2603, Note_on_c, 0, 68, 53
2, 2610, Note_on_c, 0, 59, 30
2, 2611, Note_on_c, 0, 68, 0
2, 2613, Note_on_c, 0, 73, 0
2, 2614, Note_on_c, 0, 65, 0
2, 2617, Note_on_c, 0, 59, 0
2, 2649, Note_on_c, 0, 72, 65
2, 2650, Note_on_c, 0, 61, 72
2, 2651, Note_on_c, 0, 64, 69
2, 2653, Note_on_c, 0, 60, 68
2, 2654, Note_on_c, 0, 67, 44
2, 2655, Note_on_c, 0, 70, 26
2, 2656, Control_c, 0, 64, 0
2, 2662, Note_on_c, 0, 70, 0
2, 2676, Note_on_c, 0, 60, 0
2, 2734, Note_on_c, 0, 56, 25
2, 2735, Note_on_c, 0, 55, 41
2, 2740, Note_on_c, 0, 55, 0
2, 2742, Note_on_c, 0, 56, 0
2, 2746, Note_on_c, 0, 67, 0
2, 2749, Note_on_c, 0, 70, 1
2, 2752, Note_on_c, 0, 64, 0
2, 2752, Note_on_c, 0, 61, 0
2, 2752, Control_c, 0, 64, 127
2, 2757, Note_on_c, 0, 54, 21
2, 2761, Note_on_c, 0, 72, 0
2, 2766, Note_on_c, 0, 54, 0
2, 2768, Note_on_c, 0, 70, 0
2, 2769, Note_on_c, 0, 61, 39
2, 2771, Note_on_c, 0, 55, 54
2, 2771, Note_on_c, 0, 67, 40
2, 2774, Control_c, 0, 64, 0
2, 2774, Note_on_c, 0, 64, 42
2, 2801, Control_c, 0, 64, 127
2, 2822, Note_on_c, 0, 55, 0
2, 2830, Note_on_c, 0, 64, 0
2, 2838, Note_on_c, 0, 67, 0
2, 2862, Note_on_c, 0, 61, 0
2, 2886, Note_on_c, 0, 39, 44
2, 2887, Note_on_c, 0, 54, 29
2, 2889, Note_on_c, 0, 61, 42
2, 2889, Note_on_c, 0, 70, 47
2, 2890, Note_on_c, 0, 66, 46
2, 2893, Control_c, 0, 64, 0
2, 2921, Control_c, 0, 64, 127
2, 2949, Note_on_c, 0, 61, 0
2, 2953, Note_on_c, 0, 70, 0
2, 2958, Note_on_c, 0, 66, 0
2, 2962, Note_on_c, 0, 73, 65
2, 2969, Note_on_c, 0, 54, 0
2, 2991, Note_on_c, 0, 73, 0
2, 2994, Note_on_c, 0, 39, 0
2, 3003, Note_on_c, 0, 54, 39
2, 3004, Note_on_c, 0, 70, 62
2, 3009, Control_c, 0, 64, 0
2, 3030, Control_c, 0, 64, 127
2, 3040, Note_on_c, 0, 66, 51
2, 3043, Note_on_c, 0, 70, 0
2, 3059, Note_on_c, 0, 54, 0
2, 3061, Note_on_c, 0, 66, 0
2, 3076, Note_on_c, 0, 63, 39
2, 3089, Note_on_c, 0, 63, 0
2, 3119, Note_on_c, 0, 65, 57
2, 3120, Note_on_c, 0, 60, 51
2, 3120, Note_on_c, 0, 54, 37
2, 3125, Note_on_c, 0, 44, 28
2, 3126, Control_c, 0, 64, 0
2, 3153, Control_c, 0, 64, 127
2, 3205, Note_on_c, 0, 65, 0
2, 3211, Note_on_c, 0, 54, 0
2, 3215, Note_on_c, 0, 60, 0
2, 3242, Note_on_c, 0, 54, 36
2, 3244, Note_on_c, 0, 64, 39
2, 3244, Note_on_c, 0, 60, 40
2, 3247, Control_c, 0, 64, 0
2, 3270, Control_c, 0, 64, 127
2, 3278, Note_on_c, 0, 44, 0
2, 3289, Note_on_c, 0, 54, 0
2, 3308, Note_on_c, 0, 64, 0
2, 3314, Note_on_c, 0, 60, 0
2, 3358, Control_c, 0, 64, 0
2, 3366, Note_on_c, 0, 53, 48
2, 3368, Note_on_c, 0, 65, 34
2, 3368, Note_on_c, 0, 63, 28
2, 3368, Note_on_c, 0, 60, 32
2, 3375, Control_c, 0, 64, 127
2, 3379, Note_on_c, 0, 60, 0
2, 3381, Note_on_c, 0, 53, 0
2, 3383, Note_on_c, 0, 63, 0
2, 3384, Note_on_c, 0, 65, 0
2, 3483, Note_on_c, 0, 94, 88
2, 3484, Note_on_c, 0, 66, 88
2, 3484, Note_on_c, 0, 62, 78
2, 3484, Note_on_c, 0, 56, 79
2, 3485, Note_on_c, 0, 82, 88
2, 3485, Note_on_c, 0, 87, 87
2, 3486, Control_c, 0, 64, 0
2, 3507, Control_c, 0, 64, 127
2, 3541, Note_on_c, 0, 94, 0
2, 3544, Note_on_c, 0, 62, 0
2, 3549, Note_on_c, 0, 82, 0
2, 3549, Note_on_c, 0, 87, 0
2, 3552, Note_on_c, 0, 66, 0
2, 3562, Note_on_c, 0, 56, 0
2, 3611, Note_on_c, 0, 75, 59
2, 3611, Note_on_c, 0, 87, 57
2, 3611, Control_c, 0, 64, 0
2, 3612, Note_on_c, 0, 55, 52
2, 3612, Note_on_c, 0, 65, 50
2, 3612, Note_on_c, 0, 82, 51
2, 3612, Note_on_c, 0, 61, 46
2, 3636, Control_c, 0, 64, 127
2, 3655, Note_on_c, 0, 75, 0
2, 3658, Note_on_c, 0, 65, 0
2, 3661, Note_on_c, 0, 82, 0
2, 3662, Note_on_c, 0, 87, 0
2, 3662, Note_on_c, 0, 55, 0
2, 3672, Note_on_c, 0, 61, 0
2, 3730, Note_on_c, 0, 92, 67
2, 3732, Note_on_c, 0, 80, 50
2, 3733, Note_on_c, 0, 64, 54
2, 3733, Note_on_c, 0, 54, 46
2, 3733, Note_on_c, 0, 87, 62
2, 3733, Control_c, 0, 64, 0
2, 3736, Note_on_c, 0, 60, 42
2, 3760, Control_c, 0, 64, 127
2, 3778, Note_on_c, 0, 60, 0
2, 3783, Note_on_c, 0, 64, 0
2, 3791, Note_on_c, 0, 80, 0
2, 3794, Note_on_c, 0, 92, 0
2, 3795, Note_on_c, 0, 87, 0
2, 3797, Note_on_c, 0, 54, 0
2, 3850, Control_c, 0, 64, 0
2, 3852, Note_on_c, 0, 55, 79
2, 3853, Note_on_c, 0, 96, 88
2, 3854, Note_on_c, 0, 89, 89
2, 3854, Note_on_c, 0, 58, 69
2, 3854, Note_on_c, 0, 84, 84
2, 3855, Note_on_c, 0, 62, 71
2, 3856, Note_on_c, 0, 93, 67
2, 3861, Note_on_c, 0, 93, 0
2, 3862, Note_on_c, 0, 96, 0
2, 3874, Control_c, 0, 64, 127
2, 3887, Note_on_c, 0, 89, 0
2, 3891, Note_on_c, 0, 84, 0
2, 3907, Note_on_c, 0, 62, 0
2, 3908, Note_on_c, 0, 58, 0
2, 3931, Note_on_c, 0, 91, 71
2, 3932, Note_on_c, 0, 62, 71
2, 3932, Note_on_c, 0, 79, 57
2, 3933, Note_on_c, 0, 86, 80
2, 3934, Note_on_c, 0, 58, 64
2, 3948, Note_on_c, 0, 86, 0
2, 3950, Note_on_c, 0, 91, 0
2, 3955, Note_on_c, 0, 79, 0
2, 3964, Note_on_c, 0, 62, 0
2, 3964, Note_on_c, 0, 58, 0
2, 3976, Control_c, 0, 64, 0
2, 3976, Note_on_c, 0, 62, 55
2, 3977, Note_on_c, 0, 88, 58
2, 3978, Note_on_c, 0, 83, 56
2, 3979, Note_on_c, 0, 58, 39
2, 3979, Note_on_c, 0, 76, 44
2, 3992, Note_on_c, 0, 83, 0
2, 3992, Note_on_c, 0, 88, 0
2, 3994, Control_c, 0, 64, 127
2, 3997, Note_on_c, 0, 62, 0
2, 3998, Note_on_c, 0, 76, 0
2, 4000, Note_on_c, 0, 58, 0
2, 4011, Note_on_c, 0, 55, 0
2, 4039, Note_on_c, 0, 58, 51
2, 4040, Note_on_c, 0, 62, 46
2, 4041, Note_on_c, 0, 72, 60
2, 4041, Note_on_c, 0, 84, 58
2, 4042, Note_on_c, 0, 79, 51
2, 4048, Note_on_c, 0, 62, 0
2, 4050, Note_on_c, 0, 79, 0
2, 4052, Note_on_c, 0, 58, 0
2, 4053, Note_on_c, 0, 84, 0
2, 4057, Note_on_c, 0, 72, 0
2, 4080, Control_c, 0, 64, 0
2, 4082, Note_on_c, 0, 54, 49
2, 4084, Note_on_c, 0, 83, 52
2, 4085, Note_on_c, 0, 64, 44
2, 4085, Note_on_c, 0, 61, 48
2, 4086, Note_on_c, 0, 78, 46
2, 4086, Note_on_c, 0, 71, 49
2, 4104, Note_on_c, 0, 71, 0
2, 4104, Control_c, 0, 64, 127
2, 4110, Note_on_c, 0, 54, 0
2, 4112, Note_on_c, 0, 61, 0
2, 4112, Note_on_c, 0, 64, 0
2, 4113, Note_on_c, 0, 78, 0
2, 4115, Note_on_c, 0, 83, 0
2, 4205, Note_on_c, 0, 66, 76
2, 4205, Note_on_c, 0, 95, 71
2, 4205, Note_on_c, 0, 57, 73
2, 4206, Note_on_c, 0, 87, 74
2, 4206, Note_on_c, 0, 63, 63
2, 4206, Note_on_c, 0, 61, 62
2, 4206, Note_on_c, 0, 90, 65
2, 4207, Note_on_c, 0, 83, 68
2, 4210, Note_on_c, 0, 93, 34
2, 4211, Control_c, 0, 64, 0
2, 4239, Control_c, 0, 64, 127
2, 4268, Note_on_c, 0, 57, 0
2, 4275, Note_on_c, 0, 66, 0
2, 4275, Note_on_c, 0, 61, 0
2, 4275, Note_on_c, 0, 95, 0
2, 4279, Note_on_c, 0, 83, 0
2, 4280, Note_on_c, 0, 93, 0
2, 4284, Note_on_c, 0, 87, 0
2, 4287, Note_on_c, 0, 90, 0
2, 4292, Note_on_c, 0, 63, 0
2, 4328, Note_on_c, 0, 63, 67
2, 4329, Note_on_c, 0, 56, 62
2, 4329, Note_on_c, 0, 94, 88
2, 4330, Note_on_c, 0, 87, 84
2, 4330, Note_on_c, 0, 82, 84
2, 4331, Control_c, 0, 64, 0
2, 4331, Note_on_c, 0, 60, 73
2, 4331, Note_on_c, 0, 67, 80
2, 4331, Note_on_c, 0, 91, 67
2, 4356, Control_c, 0, 64, 127
2, 4357, Note_on_c, 0, 91, 0
2, 4363, Note_on_c, 0, 87, 0
2, 4363, Note_on_c, 0, 94, 0
2, 4367, Note_on_c, 0, 82, 0
2, 4379, Note_on_c, 0, 60, 0
2, 4380, Note_on_c, 0, 67, 0
2, 4384, Note_on_c, 0, 63, 0
2, 4392, Note_on_c, 0, 56, 0
2, 4399, Note_on_c, 0, 89, 68
2, 4399, Note_on_c, 0, 56, 38
2, 4400, Note_on_c, 0, 67, 71
2, 4400, Note_on_c, 0, 63, 57
2, 4401, Note_on_c, 0, 77, 64
2, 4401, Note_on_c, 0, 84, 75
2, 4402, Note_on_c, 0, 60, 67
2, 4413, Note_on_c, 0, 84, 0
2, 4415, Note_on_c, 0, 89, 0
2, 4417, Note_on_c, 0, 67, 0
2, 4421, Note_on_c, 0, 77, 0
2, 4424, Note_on_c, 0, 56, 0
2, 4426, Note_on_c, 0, 63, 0
2, 4428, Note_on_c, 0, 60, 0
2, 4447, Control_c, 0, 64, 0
2, 4450, Note_on_c, 0, 86, 74
2, 4451, Note_on_c, 0, 66, 67
2, 4452, Note_on_c, 0, 74, 61
2, 4452, Note_on_c, 0, 79, 65
2, 4452, Note_on_c, 0, 56, 56
2, 4453, Note_on_c, 0, 62, 58
2, 4454, Note_on_c, 0, 83, 49
2, 4467, Note_on_c, 0, 83, 0
2, 4470, Note_on_c, 0, 86, 0
2, 4470, Control_c, 0, 64, 127
2, 4471, Note_on_c, 0, 79, 0
2, 4476, Note_on_c, 0, 74, 0
2, 4487, Note_on_c, 0, 66, 0
2, 4490, Note_on_c, 0, 56, 0
2, 4498, Note_on_c, 0, 62, 0
2, 4509, Note_on_c, 0, 66, 59
2, 4509, Note_on_c, 0, 56, 56
2, 4509, Note_on_c, 0, 82, 43
2, 4509, Note_on_c, 0, 75, 63
2, 4511, Note_on_c, 0, 70, 56
2, 4512, Control_c, 0, 64, 0
2, 4512, Note_on_c, 0, 62, 32
2, 4520, Note_on_c, 0, 62, 0
2, 4522, Control_c, 0, 64, 127
2, 4530, Note_on_c, 0, 66, 0
2, 4533, Note_on_c, 0, 75, 0
2, 4533, Note_on_c, 0, 70, 0
2, 4537, Note_on_c, 0, 82, 0
2, 4544, Note_on_c, 0, 56, 0
2, 4570, Note_on_c, 0, 55, 61
2, 4571, Control_c, 0, 64, 0
2, 4572, Note_on_c, 0, 81, 65
2, 4572, Note_on_c, 0, 69, 71
2, 4573, Note_on_c, 0, 65, 40
2, 4573, Note_on_c, 0, 74, 60
2, 4574, Note_on_c, 0, 62, 40
2, 4575, Note_on_c, 0, 77, 44
2, 4582, Note_on_c, 0, 65, 0
2, 4590, Note_on_c, 0, 81, 0
2, 4591, Note_on_c, 0, 62, 0
2, 4591, Control_c, 0, 64, 127
2, 4592, Note_on_c, 0, 77, 0
2, 4593, Note_on_c, 0, 74, 0
2, 4601, Note_on_c, 0, 69, 0
2, 4605, Note_on_c, 0, 55, 0
2, 4634, Note_on_c, 0, 62, 79
2, 4656, Note_on_c, 0, 62, 0
2, 4695, Note_on_c, 0, 61, 65
2, 4696, Note_on_c, 0, 58, 61
2, 4696, Note_on_c, 0, 64, 60
2, 4697, Note_on_c, 0, 55, 50
2, 4697, Control_c, 0, 64, 0
2, 4723, Control_c, 0, 64, 127
2, 4740, Note_on_c, 0, 58, 0
2, 4746, Note_on_c, 0, 61, 0
2, 4747, Note_on_c, 0, 64, 0
2, 4753, Note_on_c, 0, 61, 38
2, 4753, Note_on_c, 0, 69, 76
2, 4755, Note_on_c, 0, 45, 34
2, 4757, Note_on_c, 0, 55, 0
2, 4758, Control_c, 0, 64, 0
2, 4762, Note_on_c, 0, 45, 0
2, 4768, Note_on_c, 0, 61, 0
2, 4768, Control_c, 0, 64, 127
2, 4775, Note_on_c, 0, 69, 0
2, 4811, Note_on_c, 0, 58, 68
2, 4812, Note_on_c, 0, 54, 64
2, 4813, Note_on_c, 0, 68, 81
2, 4813, Note_on_c, 0, 61, 82
2, 4814, Note_on_c, 0, 65, 80
2, 4815, Control_c, 0, 64, 0
2, 4819, Note_on_c, 0, 56, 29
2, 4845, Control_c, 0, 64, 127
2, 4879, Note_on_c, 0, 58, 0
2, 4880, Note_on_c, 0, 68, 0
2, 4886, Note_on_c, 0, 70, 69
2, 4894, Note_on_c, 0, 61, 0
2, 4897, Note_on_c, 0, 56, 0
2, 4909, Note_on_c, 0, 65, 0
2, 4921, Note_on_c, 0, 70, 0
2, 4931, Note_on_c, 0, 68, 55
2, 4932, Note_on_c, 0, 61, 55
2, 4933, Note_on_c, 0, 58, 44
2, 4933, Note_on_c, 0, 65, 60
2, 4936, Note_on_c, 0, 56, 33
2, 4938, Control_c, 0, 64, 0
2, 4952, Control_c, 0, 64, 127
2, 4964, Note_on_c, 0, 58, 0
2, 4972, Note_on_c, 0, 56, 0
2, 4975, Note_on_c, 0, 54, 0
2, 4990, Note_on_c, 0, 68, 0
2, 5004, Note_on_c, 0, 70, 65
2, 5011, Note_on_c, 0, 65, 0
2, 5017, Note_on_c, 0, 61, 0
2, 5036, Note_on_c, 0, 70, 0
2, 5048, Note_on_c, 0, 54, 36
2, 5049, Note_on_c, 0, 68, 49
2, 5050, Note_on_c, 0, 65, 54
2, 5050, Note_on_c, 0, 44, 37
2, 5050, Note_on_c, 0, 60, 53
2, 5051, Control_c, 0, 64, 0
2, 5086, Control_c, 0, 64, 127
2, 5117, Note_on_c, 0, 65, 0
2, 5127, Note_on_c, 0, 60, 0
2, 5130, Note_on_c, 0, 54, 0
2, 5165, Note_on_c, 0, 64, 45
2, 5166, Note_on_c, 0, 54, 32
2, 5167, Note_on_c, 0, 60, 24
2, 5186, Note_on_c, 0, 68, 0
2, 5190, Note_on_c, 0, 44, 0
2, 5197, Note_on_c, 0, 54, 0
2, 5200, Note_on_c, 0, 64, 0
2, 5213, Note_on_c, 0, 60, 0
2, 5272, Control_c, 0, 64, 0
2, 5277, Note_on_c, 0, 61, 37
2, 5277, Note_on_c, 0, 65, 47
2, 5279, Note_on_c, 0, 54, 29
2, 5279, Note_on_c, 0, 47, 36
2, 5281, Note_on_c, 0, 57, 25
2, 5291, Note_on_c, 0, 57, 0
2, 5296, Control_c, 0, 64, 127
2, 5299, Note_on_c, 0, 61, 0
2, 5302, Note_on_c, 0, 65, 0
2, 5319, Note_on_c, 0, 47, 0
2, 5329, Note_on_c, 0, 54, 0
2, 5357, Note_on_c, 0, 73, 51
2, 5390, Note_on_c, 0, 73, 0
2, 5396, Note_on_c, 0, 75, 63
2, 5434, Note_on_c, 0, 75, 0
2, 5437, Note_on_c, 0, 69, 54
2, 5471, Note_on_c, 0, 69, 0
2, 5477, Note_on_c, 0, 71, 67
2, 5480, Note_on_c, 0, 69, 34
2, 5495, Note_on_c, 0, 69, 0
2, 5510, Note_on_c, 0, 71, 0
2, 5521, Note_on_c, 0, 72, 74
2, 5522, Note_on_c, 0, 60, 40
2, 5524, Control_c, 0, 64, 0
2, 5558, Control_c, 0, 64, 127
2, 5560, Note_on_c, 0, 70, 50
2, 5563, Note_on_c, 0, 72, 0
2, 5580, Note_on_c, 0, 60, 0
2, 5587, Note_on_c, 0, 70, 0
2, 5588, Control_c, 0, 64, 0
2, 5599, Note_on_c, 0, 66, 60
2, 5606, Control_c, 0, 64, 127
2, 5635, Note_on_c, 0, 66, 0
2, 5640, Control_c, 0, 64, 0
2, 5643, Note_on_c, 0, 62, 37
2, 5644, Note_on_c, 0, 64, 36
2, 5647, Note_on_c, 0, 58, 28
2, 5661, Control_c, 0, 64, 127
2, 5664, Note_on_c, 0, 58, 0
2, 5670, Note_on_c, 0, 64, 0
2, 5675, Note_on_c, 0, 62, 0
2, 5684, Note_on_c, 0, 63, 45
2, 5725, Note_on_c, 0, 61, 49
2, 5753, Note_on_c, 0, 63, 0
2, 5754, Note_on_c, 0, 61, 0
2, 5769, Note_on_c, 0, 65, 50
2, 5769, Note_on_c, 0, 63, 30
2, 5770, Note_on_c, 0, 58, 34
2, 5770, Note_on_c, 0, 51, 37
2, 5771, Note_on_c, 0, 61, 31
2, 5773, Control_c, 0, 64, 0
2, 5809, Control_c, 0, 64, 127
2, 5830, Note_on_c, 0, 63, 0
2, 5840, Note_on_c, 0, 61, 0
2, 5854, Note_on_c, 0, 58, 0
2, 5884, Note_on_c, 0, 61, 45
2, 5886, Note_on_c, 0, 58, 29
2, 5893, Note_on_c, 0, 58, 0
2, 5904, Note_on_c, 0, 51, 0
2, 5920, Note_on_c, 0, 65, 0
2, 5923, Note_on_c, 0, 61, 0
2, 5929, Note_on_c, 0, 58, 44
2, 5945, Note_on_c, 0, 58, 0
2, 6003, Note_on_c, 0, 53, 31
2, 6018, Note_on_c, 0, 53, 0
2, 6031, Control_c, 0, 64, 0
2, 6034, Note_on_c, 0, 54, 53
2, 6059, Control_c, 0, 64, 127
2, 6082, Note_on_c, 0, 54, 0
2, 6170, Note_on_c, 0, 68, 68
2, 6171, Note_on_c, 0, 76, 69
2, 6172, Note_on_c, 0, 54, 43
2, 6174, Control_c, 0, 64, 0
2, 6176, Note_on_c, 0, 60, 37
2, 6200, Note_on_c, 0, 68, 0
2, 6201, Control_c, 0, 64, 127
2, 6203, Note_on_c, 0, 76, 0
2, 6205, Note_on_c, 0, 68, 25
2, 6208, Note_on_c, 0, 71, 57
2, 6208, Note_on_c, 0, 64, 58
2, 6213, Note_on_c, 0, 60, 0
2, 6220, Note_on_c, 0, 64, 0
2, 6222, Note_on_c, 0, 54, 0
2, 6226, Note_on_c, 0, 68, 0
2, 6227, Note_on_c, 0, 71, 0
2, 6248, Note_on_c, 0, 75, 57
2, 6249, Note_on_c, 0, 63, 45
2, 6250, Note_on_c, 0, 68, 46
2, 6250, Note_on_c, 0, 65, 51
2, 6250, Note_on_c, 0, 72, 47
2, 6253, Control_c, 0, 64, 0
2, 6281, Control_c, 0, 64, 127
2, 6309, Note_on_c, 0, 65, 0
2, 6311, Note_on_c, 0, 72, 0
2, 6313, Note_on_c, 0, 75, 0
2, 6314, Note_on_c, 0, 68, 0
2, 6322, Note_on_c, 0, 61, 61
2, 6322, Note_on_c, 0, 68, 60
2, 6323, Note_on_c, 0, 63, 0
2, 6323, Note_on_c, 0, 65, 53
2, 6323, Note_on_c, 0, 73, 49
2, 6346, Note_on_c, 0, 65, 0
2, 6359, Note_on_c, 0, 68, 0
2, 6362, Note_on_c, 0, 61, 0
2, 6364, Note_on_c, 0, 73, 0
2, 6367, Note_on_c, 0, 68, 31
2, 6367, Note_on_c, 0, 60, 53
2, 6367, Note_on_c, 0, 65, 58
2, 6368, Note_on_c, 0, 72, 54
2, 6369, Control_c, 0, 64, 0
2, 6384, Note_on_c, 0, 65, 0
2, 6386, Control_c, 0, 64, 127
2, 6390, Note_on_c, 0, 72, 0
2, 6396, Note_on_c, 0, 73, 36
2, 6396, Note_on_c, 0, 61, 33
2, 6402, Note_on_c, 0, 60, 0
2, 6405, Note_on_c, 0, 68, 0
2, 6414, Note_on_c, 0, 73, 0
2, 6425, Note_on_c, 0, 75, 56
2, 6428, Note_on_c, 0, 63, 44
2, 6431, Note_on_c, 0, 75, 0
2, 6442, Note_on_c, 0, 63, 0
2, 6444, Note_on_c, 0, 61, 0
2, 6458, Note_on_c, 0, 67, 70
2, 6465, Note_on_c, 0, 67, 0
2, 6488, Control_c, 0, 64, 0
2, 6488, Note_on_c, 0, 73, 52
2, 6489, Note_on_c, 0, 77, 57
2, 6490, Note_on_c, 0, 84, 61
2, 6490, Note_on_c, 0, 72, 42
2, 6491, Note_on_c, 0, 81, 45
2, 6511, Control_c, 0, 64, 127
2, 6513, Note_on_c, 0, 84, 0
2, 6514, Note_on_c, 0, 81, 0
2, 6520, Note_on_c, 0, 72, 0
2, 6524, Note_on_c, 0, 70, 44
2, 6526, Note_on_c, 0, 82, 47
2, 6531, Note_on_c, 0, 77, 0
2, 6532, Note_on_c, 0, 73, 0
2, 6541, Note_on_c, 0, 82, 0
2, 6544, Note_on_c, 0, 70, 0
2, 6560, Note_on_c, 0, 87, 74
2, 6561, Note_on_c, 0, 75, 62
2, 6562, Note_on_c, 0, 79, 57
2, 6565, Control_c, 0, 64, 0
2, 6565, Note_on_c, 0, 76, 42
2, 6573, Note_on_c, 0, 76, 0
2, 6573, Note_on_c, 0, 79, 0
2, 6574, Note_on_c, 0, 75, 0
2, 6575, Note_on_c, 0, 87, 0
2, 6580, Control_c, 0, 64, 127
2, 6606, Control_c, 0, 64, 0
2, 6615, Control_c, 0, 64, 127
2, 6621, Note_on_c, 0, 85, 77
2, 6628, Note_on_c, 0, 86, 36
2, 6628, Note_on_c, 0, 73, 33
2, 6633, Note_on_c, 0, 86, 0
2, 6634, Note_on_c, 0, 73, 0
2, 6638, Note_on_c, 0, 85, 0
2, 6646, Control_c, 0, 64, 0
2, 6662, Note_on_c, 0, 75, 47
2, 6665, Note_on_c, 0, 72, 39
2, 6665, Note_on_c, 0, 84, 67
2, 6666, Note_on_c, 0, 73, 39
2, 6667, Note_on_c, 0, 75, 0
2, 6669, Note_on_c, 0, 76, 45
2, 6677, Control_c, 0, 64, 127
2, 6683, Note_on_c, 0, 72, 0
2, 6684, Note_on_c, 0, 73, 0
2, 6686, Note_on_c, 0, 84, 0
2, 6690, Note_on_c, 0, 76, 0
2, 6692, Note_on_c, 0, 70, 46
2, 6694, Note_on_c, 0, 79, 46
2, 6696, Note_on_c, 0, 73, 18
2, 6698, Control_c, 0, 64, 0
2, 6699, Note_on_c, 0, 82, 25
2, 6708, Control_c, 0, 64, 127
2, 6709, Note_on_c, 0, 79, 0
2, 6713, Note_on_c, 0, 73, 0
2, 6714, Note_on_c, 0, 70, 0
2, 6715, Note_on_c, 0, 82, 0
2, 6729, Note_on_c, 0, 85, 74
2, 6732, Note_on_c, 0, 75, 59
2, 6733, Note_on_c, 0, 80, 55
2, 6733, Control_c, 0, 64, 0
2, 6736, Note_on_c, 0, 70, 59
2, 6743, Note_on_c, 0, 70, 0
2, 6745, Note_on_c, 0, 80, 0
2, 6748, Note_on_c, 0, 75, 0
2, 6749, Note_on_c, 0, 85, 0
2, 6756, Control_c, 0, 64, 127
2, 6780, Control_c, 0, 64, 0
2, 6790, Note_on_c, 0, 70, 31
2, 6791, Note_on_c, 0, 82, 60
2, 6793, Note_on_c, 0, 75, 59
2, 6793, Note_on_c, 0, 73, 43
2, 6802, Control_c, 0, 64, 127
2, 6803, Note_on_c, 0, 70, 0
2, 6805, Note_on_c, 0, 82, 0
2, 6806, Note_on_c, 0, 75, 0
2, 6806, Note_on_c, 0, 73, 0
2, 6836, Control_c, 0, 64, 0
2, 6841, Note_on_c, 0, 66, 48
2, 6843, Note_on_c, 0, 78, 36
2, 6844, Note_on_c, 0, 68, 61
2, 6845, Note_on_c, 0, 75, 39
2, 6858, Control_c, 0, 64, 127
2, 6861, Note_on_c, 0, 68, 0
2, 6867, Note_on_c, 0, 78, 0
2, 6870, Note_on_c, 0, 75, 0
2, 6875, Note_on_c, 0, 66, 0
2, 6875, Control_c, 0, 64, 0
2, 6878, Note_on_c, 0, 63, 49
2, 6890, Note_on_c, 0, 63, 0
2, 6890, Control_c, 0, 64, 127
2, 6928, Note_on_c, 0, 66, 71
2, 6928, Note_on_c, 0, 77, 57
2, 6929, Note_on_c, 0, 69, 71
2, 6930, Note_on_c, 0, 74, 57
2, 6932, Note_on_c, 0, 54, 50
2, 6938, Control_c, 0, 64, 0
2, 6969, Control_c, 0, 64, 127
2, 6995, Note_on_c, 0, 54, 0
2, 7051, Note_on_c, 0, 75, 1
2, 7054, Note_on_c, 0, 66, 0
2, 7056, Note_on_c, 0, 69, 0
2, 7060, Note_on_c, 0, 74, 0
2, 7061, Note_on_c, 0, 77, 0
2, 7082, Note_on_c, 0, 66, 42
2, 7083, Note_on_c, 0, 69, 51
2, 7084, Note_on_c, 0, 54, 32
2, 7085, Note_on_c, 0, 60, 35
2, 7106, Note_on_c, 0, 69, 0
2, 7112, Note_on_c, 0, 66, 0
2, 7118, Note_on_c, 0, 60, 0
2, 7131, Note_on_c, 0, 75, 0
2, 7155, Note_on_c, 0, 68, 46
2, 7181, Note_on_c, 0, 54, 0
2, 7185, Note_on_c, 0, 68, 0
2, 7196, Control_c, 0, 64, 0
2, 7199, Note_on_c, 0, 73, 37
2, 7201, Note_on_c, 0, 59, 32
2, 7205, Note_on_c, 0, 49, 33
2, 7206, Note_on_c, 0, 65, 29
2, 7227, Control_c, 0, 64, 127
2, 7290, Note_on_c, 0, 59, 0
2, 7303, Note_on_c, 0, 65, 0
2, 7382, Note_on_c, 0, 73, 0
2, 7559, Note_on_c, 0, 49, 0
2, 7682, Note_on_c, 0, 39, 29
2, 7683, Note_on_c, 0, 63, 29
2, 7683, Note_on_c, 0, 66, 35
2, 7684, Note_on_c, 0, 54, 21
2, 7688, Control_c, 0, 64, 0
2, 7703, Note_on_c, 0, 39, 0
2, 7712, Control_c, 0, 64, 127
2, 7720, Note_on_c, 0, 63, 0
2, 7725, Note_on_c, 0, 54, 0
2, 7731, Note_on_c, 0, 66, 0
2, 7758, Note_on_c, 0, 63, 62
2, 7759, Note_on_c, 0, 51, 50
2, 7787, Note_on_c, 0, 63, 0
2, 7799, Note_on_c, 0, 51, 0
2, 7800, Note_on_c, 0, 53, 60
2, 7802, Note_on_c, 0, 65, 79
2, 7804, Control_c, 0, 64, 0
2, 7830, Note_on_c, 0, 65, 0
2, 7835, Control_c, 0, 64, 127
2, 7837, Note_on_c, 0, 53, 0
2, 7838, Note_on_c, 0, 54, 56
2, 7838, Note_on_c, 0, 66, 69
2, 7853, Note_on_c, 0, 54, 0
2, 7862, Note_on_c, 0, 66, 0
2, 7877, Note_on_c, 0, 68, 67
2, 7892, Note_on_c, 0, 68, 0
2, 7920, Note_on_c, 0, 72, 55
2, 7921, Note_on_c, 0, 65, 58
2, 7922, Note_on_c, 0, 60, 54
2, 7922, Control_c, 0, 64, 0
2, 7923, Note_on_c, 0, 54, 34
2, 7923, Note_on_c, 0, 44, 36
2, 7955, Control_c, 0, 64, 127
2, 7988, Note_on_c, 0, 44, 0
2, 7989, Note_on_c, 0, 60, 0
2, 7993, Note_on_c, 0, 54, 0
2, 7994, Note_on_c, 0, 65, 0
2, 8000, Note_on_c, 0, 72, 0
2, 8045, Note_on_c, 0, 75, 73
2, 8047, Note_on_c, 0, 68, 75
2, 8048, Note_on_c, 0, 63, 69
2, 8048, Note_on_c, 0, 72, 66
2, 8049, Note_on_c, 0, 64, 77
2, 8052, Control_c, 0, 64, 0
2, 8080, Control_c, 0, 64, 127
2, 8090, Note_on_c, 0, 63, 0
2, 8100, Note_on_c, 0, 72, 0
2, 8101, Note_on_c, 0, 64, 0
2, 8102, Note_on_c, 0, 75, 0
2, 8109, Note_on_c, 0, 68, 0
2, 8115, Note_on_c, 0, 73, 67
2, 8118, Note_on_c, 0, 68, 42
2, 8135, Note_on_c, 0, 68, 0
2, 8141, Note_on_c, 0, 73, 0
2, 8168, Note_on_c, 0, 63, 55
2, 8169, Note_on_c, 0, 70, 53
2, 8169, Note_on_c, 0, 67, 66
2, 8170, Note_on_c, 0, 56, 36
2, 8171, Note_on_c, 0, 60, 47
2, 8171, Control_c, 0, 64, 0
2, 8171, Note_on_c, 0, 53, 37
2, 8207, Control_c, 0, 64, 127
2, 8228, Note_on_c, 0, 63, 0
2, 8231, Note_on_c, 0, 67, 0
2, 8237, Note_on_c, 0, 60, 0
2, 8245, Note_on_c, 0, 56, 0
2, 8258, Note_on_c, 0, 70, 0
2, 8287, Note_on_c, 0, 63, 49
2, 8288, Note_on_c, 0, 68, 62
2, 8288, Note_on_c, 0, 67, 60
2, 8294, Note_on_c, 0, 60, 31
2, 8295, Note_on_c, 0, 56, 25
2, 8317, Note_on_c, 0, 67, 0
2, 8319, Note_on_c, 0, 60, 0
2, 8331, Note_on_c, 0, 53, 0
2, 8336, Note_on_c, 0, 56, 0
2, 8338, Note_on_c, 0, 63, 0
2, 8348, Note_on_c, 0, 68, 0
2, 8403, Control_c, 0, 64, 0
2, 8406, Note_on_c, 0, 56, 58
2, 8406, Note_on_c, 0, 79, 75
2, 8407, Note_on_c, 0, 66, 61
2, 8407, Note_on_c, 0, 62, 52
2, 8408, Note_on_c, 0, 74, 81
2, 8408, Note_on_c, 0, 71, 82
2, 8425, Control_c, 0, 64, 127
2, 8431, Note_on_c, 0, 71, 0
2, 8433, Note_on_c, 0, 79, 0
2, 8434, Note_on_c, 0, 74, 0
2, 8451, Note_on_c, 0, 66, 0
2, 8467, Note_on_c, 0, 86, 92
2, 8506, Note_on_c, 0, 86, 0
2, 8524, Note_on_c, 0, 83, 78
2, 8524, Note_on_c, 0, 66, 60
2, 8526, Note_on_c, 0, 74, 76
2, 8527, Control_c, 0, 64, 0
2, 8544, Control_c, 0, 64, 127
2, 8546, Note_on_c, 0, 66, 0
2, 8559, Note_on_c, 0, 62, 0
2, 8571, Note_on_c, 0, 56, 0
2, 8573, Note_on_c, 0, 74, 0
2, 8588, Note_on_c, 0, 79, 70
2, 8610, Note_on_c, 0, 79, 0
2, 8623, Note_on_c, 0, 83, 0
2, 8649, Note_on_c, 0, 61, 38
2, 8650, Note_on_c, 0, 75, 51
2, 8651, Note_on_c, 0, 65, 46
2, 8651, Control_c, 0, 64, 0
2, 8651, Note_on_c, 0, 78, 51
2, 8652, Note_on_c, 0, 54, 37
2, 8654, Note_on_c, 0, 58, 40
2, 8679, Control_c, 0, 64, 127
2, 8700, Note_on_c, 0, 75, 0
2, 8701, Note_on_c, 0, 78, 0
2, 8705, Note_on_c, 0, 65, 0
2, 8713, Note_on_c, 0, 61, 0
2, 8756, Note_on_c, 0, 58, 0
2, 8766, Note_on_c, 0, 75, 50
2, 8769, Note_on_c, 0, 63, 49
2, 8770, Note_on_c, 0, 70, 52
2, 8771, Note_on_c, 0, 61, 44
2, 8771, Note_on_c, 0, 58, 34
2, 8784, Note_on_c, 0, 63, 0
2, 8787, Note_on_c, 0, 75, 0
2, 8789, Note_on_c, 0, 70, 0
2, 8801, Note_on_c, 0, 77, 68
2, 8801, Note_on_c, 0, 65, 74
2, 8808, Note_on_c, 0, 72, 22
2, 8812, Note_on_c, 0, 65, 0
2, 8815, Note_on_c, 0, 77, 0
2, 8818, Note_on_c, 0, 72, 0
2, 8829, Note_on_c, 0, 78, 70
2, 8830, Note_on_c, 0, 66, 73
2, 8842, Note_on_c, 0, 66, 0
2, 8845, Note_on_c, 0, 78, 0
2, 8856, Note_on_c, 0, 61, 0
2, 8856, Note_on_c, 0, 54, 0
2, 8862, Note_on_c, 0, 68, 68
2, 8863, Note_on_c, 0, 80, 76
2, 8875, Note_on_c, 0, 68, 0
2, 8880, Note_on_c, 0, 80, 0
2, 8881, Note_on_c, 0, 58, 0
2, 8898, Note_on_c, 0, 54, 46
2, 8898, Note_on_c, 0, 70, 75
2, 8898, Note_on_c, 0, 82, 55
2, 8901, Note_on_c, 0, 60, 46
2, 8901, Control_c, 0, 64, 0
2, 8901, Note_on_c, 0, 76, 52
2, 8902, Note_on_c, 0, 83, 73
2, 8902, Note_on_c, 0, 64, 36
2, 8906, Note_on_c, 0, 70, 0
2, 8906, Note_on_c, 0, 71, 83
2, 8921, Note_on_c, 0, 82, 0
2, 8939, Control_c, 0, 64, 127
2, 8945, Note_on_c, 0, 64, 0
2, 8947, Note_on_c, 0, 76, 0
2, 8947, Note_on_c, 0, 54, 0
2, 8948, Note_on_c, 0, 83, 0
2, 8948, Note_on_c, 0, 71, 0
2, 8951, Note_on_c, 0, 60, 0
2, 8959, Control_c, 0, 64, 0
2, 8959, Note_on_c, 0, 54, 52
2, 8959, Note_on_c, 0, 71, 64
2, 8959, Note_on_c, 0, 83, 68
2, 8960, Note_on_c, 0, 64, 52
2, 8961, Note_on_c, 0, 60, 44
2, 8961, Note_on_c, 0, 76, 62
2, 8963, Note_on_c, 0, 79, 38
2, 8973, Control_c, 0, 64, 127
2, 8994, Note_on_c, 0, 79, 0
2, 8995, Note_on_c, 0, 76, 0
2, 8996, Note_on_c, 0, 64, 0
2, 8997, Note_on_c, 0, 60, 0
2, 8998, Note_on_c, 0, 83, 0
2, 8998, Note_on_c, 0, 54, 0
2, 8999, Note_on_c, 0, 71, 0
2, 9010, Control_c, 0, 64, 0
2, 9016, Note_on_c, 0, 83, 62
2, 9016, Note_on_c, 0, 54, 51
2, 9016, Note_on_c, 0, 71, 58
2, 9017, Note_on_c, 0, 64, 50
2, 9018, Note_on_c, 0, 76, 55
2, 9019, Note_on_c, 0, 60, 49
2, 9020, Control_c, 0, 64, 127
2, 9022, Note_on_c, 0, 79, 26
2, 9036, Note_on_c, 0, 64, 0
2, 9039, Note_on_c, 0, 83, 0
2, 9040, Note_on_c, 0, 79, 0
2, 9042, Note_on_c, 0, 60, 0
2, 9042, Note_on_c, 0, 71, 0
2, 9045, Note_on_c, 0, 54, 0
2, 9050, Note_on_c, 0, 76, 0
2, 9054, Control_c, 0, 64, 0
2, 9055, Note_on_c, 0, 81, 55
2, 9057, Note_on_c, 0, 76, 24
2, 9057, Note_on_c, 0, 54, 51
2, 9058, Note_on_c, 0, 69, 53
2, 9058, Note_on_c, 0, 64, 43
2, 9060, Note_on_c, 0, 60, 40
2, 9075, Control_c, 0, 64, 127
2, 9089, Note_on_c, 0, 69, 0
2, 9090, Note_on_c, 0, 64, 0
2, 9091, Note_on_c, 0, 81, 0
2, 9097, Note_on_c, 0, 76, 0
2, 9106, Note_on_c, 0, 54, 0
2, 9114, Note_on_c, 0, 60, 0
2, 9128, Note_on_c, 0, 63, 69
2, 9128, Note_on_c, 0, 60, 64
2, 9129, Note_on_c, 0, 84, 82
2, 9129, Note_on_c, 0, 53, 54
2, 9129, Note_on_c, 0, 77, 69
2, 9129, Note_on_c, 0, 72, 71
2, 9130, Control_c, 0, 64, 0
2, 9130, Note_on_c, 0, 80, 55
2, 9130, Note_on_c, 0, 56, 57
2, 9153, Control_c, 0, 64, 127
2, 9164, Note_on_c, 0, 53, 0
2, 9168, Note_on_c, 0, 72, 0
2, 9169, Note_on_c, 0, 56, 0
2, 9169, Note_on_c, 0, 63, 0
2, 9171, Note_on_c, 0, 77, 0
2, 9171, Note_on_c, 0, 84, 0
2, 9172, Note_on_c, 0, 80, 0
2, 9174, Note_on_c, 0, 60, 0
2, 9188, Control_c, 0, 64, 0
2, 9189, Note_on_c, 0, 84, 79
2, 9190, Note_on_c, 0, 63, 69
2, 9190, Note_on_c, 0, 72, 75
2, 9190, Note_on_c, 0, 77, 75
2, 9191, Note_on_c, 0, 53, 64
2, 9191, Note_on_c, 0, 80, 57
2, 9191, Note_on_c, 0, 60, 64
2, 9193, Note_on_c, 0, 56, 53
2, 9197, Control_c, 0, 64, 127
2, 9213, Note_on_c, 0, 53, 0
2, 9217, Note_on_c, 0, 56, 0
2, 9217, Note_on_c, 0, 72, 0
2, 9217, Note_on_c, 0, 63, 0
2, 9219, Note_on_c, 0, 77, 0
2, 9221, Note_on_c, 0, 80, 0
2, 9223, Note_on_c, 0, 84, 0
2, 9223, Note_on_c, 0, 60, 0
2, 9238, Control_c, 0, 64, 0
2, 9243, Note_on_c, 0, 84, 65
2, 9244, Note_on_c, 0, 72, 67
2, 9244, Note_on_c, 0, 77, 64
2, 9245, Note_on_c, 0, 63, 48
2, 9245, Note_on_c, 0, 53, 56
2, 9245, Control_c, 0, 64, 127
2, 9246, Note_on_c, 0, 60, 52
2, 9246, Note_on_c, 0, 80, 39
2, 9249, Note_on_c, 0, 56, 38
2, 9253, Note_on_c, 0, 84, 0
2, 9260, Note_on_c, 0, 72, 0
2, 9260, Note_on_c, 0, 80, 0
2, 9262, Note_on_c, 0, 53, 0
2, 9264, Note_on_c, 0, 63, 0
2, 9267, Note_on_c, 0, 56, 0
2, 9267, Note_on_c, 0, 77, 0
2, 9269, Note_on_c, 0, 60, 0
2, 9286, Note_on_c, 0, 80, 46
2, 9287, Note_on_c, 0, 75, 58
2, 9287, Control_c, 0, 64, 0
2, 9288, Note_on_c, 0, 68, 50
2, 9290, Note_on_c, 0, 60, 56
2, 9290, Note_on_c, 0, 63, 50
2, 9291, Note_on_c, 0, 53, 43
2, 9292, Note_on_c, 0, 56, 42
2, 9314, Control_c, 0, 64, 127
2, 9323, Note_on_c, 0, 53, 0
2, 9325, Note_on_c, 0, 75, 0
2, 9326, Note_on_c, 0, 63, 0
2, 9327, Note_on_c, 0, 80, 0
2, 9329, Note_on_c, 0, 56, 0
2, 9330, Note_on_c, 0, 60, 0
2, 9330, Note_on_c, 0, 68, 0
2, 9368, Note_on_c, 0, 77, 57
2, 9369, Note_on_c, 0, 63, 48
2, 9370, Note_on_c, 0, 65, 48
2, 9370, Control_c, 0, 64, 0
2, 9370, Note_on_c, 0, 72, 50
2, 9371, Note_on_c, 0, 60, 51
2, 9372, Note_on_c, 0, 53, 30
2, 9374, Note_on_c, 0, 56, 36
2, 9400, Control_c, 0, 64, 127
2, 9406, Note_on_c, 0, 63, 0
2, 9411, Note_on_c, 0, 77, 0
2, 9416, Note_on_c, 0, 72, 0
2, 9433, Note_on_c, 0, 65, 0
2, 9440, Note_on_c, 0, 60, 0
2, 9443, Note_on_c, 0, 56, 0
2, 9487, Note_on_c, 0, 63, 44
2, 9488, Note_on_c, 0, 68, 43
2, 9489, Note_on_c, 0, 60, 42
2, 9489, Note_on_c, 0, 72, 35
2, 9490, Note_on_c, 0, 65, 46
2, 9490, Note_on_c, 0, 56, 31
2, 9510, Note_on_c, 0, 53, 0
2, 9512, Note_on_c, 0, 63, 0
2, 9513, Note_on_c, 0, 60, 0
2, 9515, Note_on_c, 0, 65, 0
2, 9520, Note_on_c, 0, 56, 0
2, 9521, Note_on_c, 0, 68, 0
2, 9524, Note_on_c, 0, 72, 0
2, 9574, Note_on_c, 0, 66, 37
2, 9577, Note_on_c, 0, 56, 25
2, 9583, Note_on_c, 0, 66, 0
2, 9588, Note_on_c, 0, 56, 0
2, 9609, Control_c, 0, 64, 0
2, 9613, Note_on_c, 0, 65, 68
2, 9615, Note_on_c, 0, 61, 44
2, 9615, Note_on_c, 0, 55, 62
2, 9631, Control_c, 0, 64, 127
2, 9658, Note_on_c, 0, 55, 0
2, 9659, Note_on_c, 0, 65, 0
2, 9660, Note_on_c, 0, 61, 0
2, 9682, Control_c, 0, 64, 0
2, 9686, Note_on_c, 0, 89, 89
2, 9687, Note_on_c, 0, 77, 95
2, 9687, Note_on_c, 0, 61, 75
2, 9687, Note_on_c, 0, 65, 82
2, 9687, Note_on_c, 0, 84, 94
2, 9688, Note_on_c, 0, 55, 85
2, 9694, Control_c, 0, 64, 127
2, 9706, Note_on_c, 0, 89, 0
2, 9709, Note_on_c, 0, 84, 0
2, 9710, Note_on_c, 0, 55, 0
2, 9711, Note_on_c, 0, 65, 0
2, 9713, Note_on_c, 0, 77, 0
2, 9718, Note_on_c, 0, 61, 0
2, 9733, Control_c, 0, 64, 0
2, 9734, Note_on_c, 0, 87, 76
2, 9734, Note_on_c, 0, 75, 74
2, 9735, Note_on_c, 0, 82, 67
2, 9735, Note_on_c, 0, 65, 66
2, 9736, Note_on_c, 0, 61, 57
2, 9736, Note_on_c, 0, 55, 68
2, 9741, Note_on_c, 0, 55, 0
2, 9741, Note_on_c, 0, 65, 0
2, 9743, Note_on_c, 0, 75, 0
2, 9744, Note_on_c, 0, 87, 0
2, 9744, Note_on_c, 0, 82, 0
2, 9748, Note_on_c, 0, 61, 0
2, 9758, Control_c, 0, 64, 127
2, 9772, Note_on_c, 0, 73, 47
2, 9777, Note_on_c, 0, 61, 46
2, 9780, Note_on_c, 0, 65, 30
2, 9781, Note_on_c, 0, 55, 28
2, 9785, Note_on_c, 0, 65, 0
2, 9785, Note_on_c, 0, 73, 0
2, 9786, Note_on_c, 0, 55, 0
2, 9786, Control_c, 0, 64, 0
2, 9789, Note_on_c, 0, 61, 0
2, 9807, Control_c, 0, 64, 127
2, 9810, Note_on_c, 0, 61, 50
2, 9812, Note_on_c, 0, 67, 42
2, 9813, Note_on_c, 0, 55, 29
2, 9818, Note_on_c, 0, 67, 0
2, 9819, Note_on_c, 0, 55, 0
2, 9823, Note_on_c, 0, 61, 0
2, 9854, Control_c, 0, 64, 0
2, 9857, Note_on_c, 0, 84, 79
2, 9858, Note_on_c, 0, 72, 67
2, 9859, Note_on_c, 0, 77, 70
2, 9860, Note_on_c, 0, 80, 53
2, 9861, Note_on_c, 0, 60, 83
2, 9861, Note_on_c, 0, 65, 78
2, 9861, Note_on_c, 0, 61, 60
2, 9868, Note_on_c, 0, 58, 21
2, 9876, Note_on_c, 0, 56, 7
2, 9877, Note_on_c, 0, 72, 0
2, 9881, Note_on_c, 0, 84, 0
2, 9881, Note_on_c, 0, 77, 0
2, 9882, Note_on_c, 0, 80, 0
2, 9888, Note_on_c, 0, 58, 0
2, 9889, Note_on_c, 0, 65, 0
2, 9890, Note_on_c, 0, 60, 0
2, 9893, Note_on_c, 0, 56, 0
2, 9895, Note_on_c, 0, 61, 0
2, 9932, Note_on_c, 0, 65, 55
2, 9932, Note_on_c, 0, 56, 38
2, 9933, Note_on_c, 0, 61, 37
2, 9934, Note_on_c, 0, 72, 70
2, 9934, Note_on_c, 0, 60, 46
2, 9934, Note_on_c, 0, 84, 71
2, 9934, Note_on_c, 0, 80, 46
2, 9934, Note_on_c, 0, 77, 57
2, 9938, Control_c, 0, 64, 127
2, 9954, Note_on_c, 0, 72, 0
2, 9958, Note_on_c, 0, 77, 0
2, 9959, Note_on_c, 0, 84, 0
2, 9960, Note_on_c, 0, 65, 0
2, 9961, Note_on_c, 0, 80, 0
2, 9962, Note_on_c, 0, 60, 0
2, 9964, Note_on_c, 0, 56, 0
2, 9965, Note_on_c, 0, 61, 0
2, 9976, Control_c, 0, 64, 0
2, 9976, Note_on_c, 0, 56, 37
2, 9977, Note_on_c, 0, 61, 46
2, 9977, Note_on_c, 0, 87, 62
2, 9978, Note_on_c, 0, 65, 42
2, 9979, Note_on_c, 0, 60, 41
2, 9980, Note_on_c, 0, 75, 43
2, 9984, Note_on_c, 0, 65, 0
2, 9985, Note_on_c, 0, 60, 0
2, 9985, Note_on_c, 0, 75, 0
2, 9988, Note_on_c, 0, 87, 0
2, 9989, Note_on_c, 0, 56, 0
2, 9993, Note_on_c, 0, 61, 0
2, 10009, Control_c, 0, 64, 127
2, 10029, Control_c, 0, 64, 0
2, 10042, Control_c, 0, 64, 127
2, 10047, Note_on_c, 0, 87, 58
2, 10047, Note_on_c, 0, 56, 46
2, 10048, Note_on_c, 0, 75, 60
2, 10049, Note_on_c, 0, 65, 43
2, 10049, Note_on_c, 0, 61, 39
2, 10057, Note_on_c, 0, 65, 0
2, 10057, Note_on_c, 0, 87, 0
2, 10060, Note_on_c, 0, 75, 0
2, 10067, Note_on_c, 0, 56, 0
2, 10070, Note_on_c, 0, 61, 0
2, 10090, Note_on_c, 0, 82, 48
2, 10091, Note_on_c, 0, 70, 51
2, 10092, Control_c, 0, 64, 0
2, 10093, Note_on_c, 0, 61, 37
2, 10093, Note_on_c, 0, 55, 53
2, 10094, Note_on_c, 0, 65, 42
2, 10120, Control_c, 0, 64, 127
2, 10165, Note_on_c, 0, 65, 0
2, 10168, Note_on_c, 0, 61, 0
2, 10171, Note_on_c, 0, 82, 0
2, 10174, Note_on_c, 0, 70, 0
2, 10209, Note_on_c, 0, 68, 34
2, 10209, Note_on_c, 0, 75, 39
2, 10210, Note_on_c, 0, 61, 40
2, 10211, Note_on_c, 0, 65, 40
2, 10241, Note_on_c, 0, 75, 0
2, 10245, Note_on_c, 0, 65, 0
2, 10250, Note_on_c, 0, 55, 0
2, 10252, Note_on_c, 0, 68, 0
2, 10281, Note_on_c, 0, 61, 0
2, 10329, Note_on_c, 0, 61, 52
2, 10329, Note_on_c, 0, 70, 49
2, 10330, Note_on_c, 0, 65, 58
2, 10331, Note_on_c, 0, 55, 54
2, 10335, Control_c, 0, 64, 0
2, 10367, Control_c, 0, 64, 127
2, 10415, Note_on_c, 0, 55, 0
2, 10420, Note_on_c, 0, 65, 0
2, 10427, Note_on_c, 0, 61, 0
2, 10450, Note_on_c, 0, 61, 47
2, 10452, Note_on_c, 0, 64, 51
2, 10452, Note_on_c, 0, 55, 49
2, 10453, Control_c, 0, 64, 0
2, 10476, Note_on_c, 0, 55, 0
2, 10478, Control_c, 0, 64, 127
2, 10501, Note_on_c, 0, 64, 0
2, 10512, Note_on_c, 0, 61, 0
2, 10531, Note_on_c, 0, 70, 0
2, 10566, Note_on_c, 0, 58, 38
2, 10567, Note_on_c, 0, 66, 51
2, 10567, Note_on_c, 0, 54, 36
2, 10568, Note_on_c, 0, 61, 46
2, 10569, Note_on_c, 0, 51, 29
2, 10571, Control_c, 0, 64, 0
2, 10595, Control_c, 0, 64, 127
2, 10616, Note_on_c, 0, 58, 0
2, 10618, Note_on_c, 0, 61, 0
2, 10625, Note_on_c, 0, 51, 0
2, 10630, Note_on_c, 0, 66, 0
2, 10642, Note_on_c, 0, 70, 79
2, 10642, Note_on_c, 0, 58, 71
2, 10642, Note_on_c, 0, 61, 80
2, 10651, Note_on_c, 0, 54, 0
2, 10680, Note_on_c, 0, 61, 0
2, 10682, Note_on_c, 0, 70, 0
2, 10686, Note_on_c, 0, 56, 56
2, 10687, Note_on_c, 0, 58, 0
2, 10687, Note_on_c, 0, 61, 34
2, 10687, Note_on_c, 0, 68, 59
2, 10690, Control_c, 0, 64, 0
2, 10710, Control_c, 0, 64, 127
2, 10718, Note_on_c, 0, 61, 0
2, 10737, Note_on_c, 0, 66, 61
2, 10741, Note_on_c, 0, 54, 33
2, 10745, Note_on_c, 0, 56, 0
2, 10748, Note_on_c, 0, 68, 0
2, 10757, Note_on_c, 0, 54, 0
2, 10763, Note_on_c, 0, 66, 0
2, 10815, Note_on_c, 0, 54, 55
2, 10817, Control_c, 0, 64, 0
2, 10817, Note_on_c, 0, 44, 48
2, 10818, Note_on_c, 0, 65, 64
2, 10856, Control_c, 0, 64, 127
2, 10869, Note_on_c, 0, 54, 0
2, 10870, Note_on_c, 0, 44, 0
2, 10878, Note_on_c, 0, 65, 0
2, 10883, Note_on_c, 0, 44, 37
2, 10884, Note_on_c, 0, 63, 62
2, 10892, Control_c, 0, 64, 0
2, 10897, Note_on_c, 0, 59, 12
2, 10926, Control_c, 0, 64, 127
2, 10929, Note_on_c, 0, 59, 0
2, 10935, Note_on_c, 0, 44, 0
2, 10947, Note_on_c, 0, 63, 0
2, 11043, Note_on_c, 0, 68, 47
2, 11045, Note_on_c, 0, 88, 72
2, 11046, Note_on_c, 0, 76, 61
2, 11046, Note_on_c, 0, 59, 33
2, 11046, Note_on_c, 0, 63, 36
2, 11047, Control_c, 0, 64, 0
2, 11048, Note_on_c, 0, 64, 37
2, 11069, Control_c, 0, 64, 127
2, 11075, Note_on_c, 0, 68, 0
2, 11084, Note_on_c, 0, 64, 0
2, 11089, Note_on_c, 0, 88, 0
2, 11096, Note_on_c, 0, 76, 0
2, 11097, Note_on_c, 0, 63, 0
2, 11101, Note_on_c, 0, 59, 0
2, 11122, Note_on_c, 0, 68, 43
2, 11124, Note_on_c, 0, 59, 32
2, 11125, Note_on_c, 0, 87, 59
2, 11126, Note_on_c, 0, 63, 38
2, 11127, Note_on_c, 0, 64, 40
2, 11128, Note_on_c, 0, 75, 46
2, 11148, Note_on_c, 0, 64, 0
2, 11148, Note_on_c, 0, 59, 0
2, 11148, Note_on_c, 0, 68, 0
2, 11149, Note_on_c, 0, 75, 0
2, 11150, Note_on_c, 0, 87, 0
2, 11153, Note_on_c, 0, 63, 0
2, 11168, Note_on_c, 0, 68, 50
2, 11171, Note_on_c, 0, 85, 56
2, 11172, Note_on_c, 0, 63, 34
2, 11172, Note_on_c, 0, 59, 36
2, 11173, Note_on_c, 0, 73, 33
2, 11175, Note_on_c, 0, 64, 34
2, 11185, Note_on_c, 0, 64, 0
2, 11185, Note_on_c, 0, 68, 0
2, 11193, Note_on_c, 0, 85, 0
2, 11194, Note_on_c, 0, 73, 0
2, 11199, Note_on_c, 0, 59, 0
2, 11200, Note_on_c, 0, 63, 0
2, 11233, Note_on_c, 0, 70, 46
2, 11235, Note_on_c, 0, 82, 42
2, 11240, Note_on_c, 0, 70, 0
2, 11244, Note_on_c, 0, 82, 0
2, 11283, Control_c, 0, 64, 0
2, 11284, Note_on_c, 0, 53, 43
2, 11285, Note_on_c, 0, 64, 51
2, 11286, Note_on_c, 0, 59, 53
2, 11287, Note_on_c, 0, 76, 54
2, 11287, Note_on_c, 0, 88, 56
2, 11288, Note_on_c, 0, 83, 47
2, 11300, Note_on_c, 0, 64, 0
2, 11301, Note_on_c, 0, 83, 0
2, 11302, Note_on_c, 0, 88, 0
2, 11303, Note_on_c, 0, 59, 0
2, 11306, Note_on_c, 0, 76, 0
2, 11307, Note_on_c, 0, 53, 0
2, 11314, Control_c, 0, 64, 127
2, 11361, Note_on_c, 0, 58, 55
2, 11362, Note_on_c, 0, 63, 51
2, 11362, Note_on_c, 0, 87, 63
2, 11362, Note_on_c, 0, 52, 54
2, 11362, Note_on_c, 0, 75, 61
2, 11363, Note_on_c, 0, 82, 57
2, 11369, Control_c, 0, 64, 0
2, 11400, Control_c, 0, 64, 127
2, 11448, Note_on_c, 0, 52, 0
2, 11451, Note_on_c, 0, 75, 0
2, 11451, Note_on_c, 0, 63, 0
2, 11454, Note_on_c, 0, 82, 0
2, 11456, Note_on_c, 0, 87, 0
2, 11458, Note_on_c, 0, 58, 0
2, 11525, Control_c, 0, 64, 0
2, 11525, Note_on_c, 0, 62, 38
2, 11525, Note_on_c, 0, 53, 34
2, 11525, Note_on_c, 0, 58, 39
2, 11525, Note_on_c, 0, 96, 63
2, 11525, Note_on_c, 0, 57, 40
2, 11527, Note_on_c, 0, 84, 56
2, 11546, Control_c, 0, 64, 127
2, 11550, Note_on_c, 0, 96, 0
2, 11560, Note_on_c, 0, 84, 0
2, 11581, Note_on_c, 0, 58, 0
2, 11581, Note_on_c, 0, 62, 0
2, 11594, Note_on_c, 0, 57, 0
2, 11605, Note_on_c, 0, 91, 70
2, 11606, Note_on_c, 0, 79, 54
2, 11612, Note_on_c, 0, 53, 0
2, 11612, Note_on_c, 0, 90, 25
2, 11617, Note_on_c, 0, 90, 0
2, 11634, Note_on_c, 0, 91, 0
2, 11648, Note_on_c, 0, 62, 57
2, 11650, Note_on_c, 0, 52, 41
2, 11650, Note_on_c, 0, 58, 36
2, 11651, Control_c, 0, 64, 0
2, 11674, Control_c, 0, 64, 127
2, 11686, Note_on_c, 0, 52, 0
2, 11688, Note_on_c, 0, 62, 0
2, 11690, Note_on_c, 0, 88, 71
2, 11692, Note_on_c, 0, 79, 0
2, 11695, Note_on_c, 0, 58, 0
2, 11725, Note_on_c, 0, 84, 58
2, 11758, Note_on_c, 0, 88, 0
2, 11759, Note_on_c, 0, 84, 0
2, 11759, Control_c, 0, 64, 0
2, 11760, Note_on_c, 0, 63, 37
2, 11764, Note_on_c, 0, 59, 26
2, 11765, Note_on_c, 0, 83, 55
2, 11769, Note_on_c, 0, 56, 25
2, 11770, Note_on_c, 0, 53, 22
2, 11782, Control_c, 0, 64, 127
2, 11785, Note_on_c, 0, 53, 0
2, 11786, Note_on_c, 0, 59, 0
2, 11787, Note_on_c, 0, 56, 0
2, 11790, Note_on_c, 0, 63, 0
2, 11837, Note_on_c, 0, 95, 69
2, 11869, Note_on_c, 0, 95, 0
2, 11881, Note_on_c, 0, 68, 42
2, 11882, Control_c, 0, 64, 0
2, 11883, Note_on_c, 0, 63, 37
2, 11884, Note_on_c, 0, 57, 39
2, 11884, Note_on_c, 0, 61, 35
2, 11886, Note_on_c, 0, 83, 0
2, 11898, Control_c, 0, 64, 127
2, 11909, Note_on_c, 0, 57, 0
2, 11914, Note_on_c, 0, 63, 0
2, 11918, Note_on_c, 0, 68, 0
2, 11918, Note_on_c, 0, 61, 0
2, 11984, Note_on_c, 0, 63, 32
2, 12001, Note_on_c, 0, 63, 0
2, 12002, Note_on_c, 0, 82, 74
2, 12002, Control_c, 0, 64, 0
2, 12003, Note_on_c, 0, 75, 77
2, 12004, Note_on_c, 0, 79, 67
2, 12004, Note_on_c, 0, 67, 81
2, 12005, Note_on_c, 0, 72, 74
2, 12023, Control_c, 0, 64, 127
2, 12024, Note_on_c, 0, 79, 0
2, 12028, Note_on_c, 0, 82, 0
2, 12030, Note_on_c, 0, 75, 0
2, 12038, Note_on_c, 0, 72, 0
2, 12066, Note_on_c, 0, 67, 0
2, 12078, Note_on_c, 0, 79, 66
2, 12080, Note_on_c, 0, 63, 59
2, 12083, Note_on_c, 0, 68, 42
2, 12114, Note_on_c, 0, 79, 0
2, 12115, Note_on_c, 0, 68, 0
2, 12124, Control_c, 0, 64, 0
2, 12125, Note_on_c, 0, 75, 50
2, 12125, Note_on_c, 0, 68, 39
2, 12127, Note_on_c, 0, 60, 50
2, 12129, Note_on_c, 0, 72, 42
2, 12144, Note_on_c, 0, 63, 0
2, 12145, Control_c, 0, 64, 127
2, 12149, Note_on_c, 0, 72, 0
2, 12157, Note_on_c, 0, 60, 0
2, 12159, Note_on_c, 0, 68, 0
2, 12193, Note_on_c, 0, 75, 0
2, 12247, Control_c, 0, 64, 0
2, 12252, Note_on_c, 0, 62, 43
2, 12253, Note_on_c, 0, 67, 34
2, 12254, Note_on_c, 0, 59, 31
2, 12259, Note_on_c, 0, 62, 0
2, 12261, Note_on_c, 0, 67, 0
2, 12262, Note_on_c, 0, 59, 0
2, 12283, Control_c, 0, 64, 127
2, 12311, Control_c, 0, 64, 0
2, 12326, Note_on_c, 0, 74, 77
2, 12326, Note_on_c, 0, 81, 73
2, 12326, Note_on_c, 0, 69, 80
2, 12327, Note_on_c, 0, 71, 68
2, 12327, Note_on_c, 0, 76, 68
2, 12340, Note_on_c, 0, 69, 0
2, 12342, Note_on_c, 0, 71, 0
2, 12343, Note_on_c, 0, 74, 0
2, 12344, Note_on_c, 0, 81, 0
2, 12345, Note_on_c, 0, 76, 0
2, 12348, Control_c, 0, 64, 127
2, 12370, Control_c, 0, 64, 0
2, 12381, Note_on_c, 0, 73, 57
2, 12382, Note_on_c, 0, 70, 67
2, 12382, Note_on_c, 0, 81, 74
2, 12383, Note_on_c, 0, 67, 68
2, 12384, Note_on_c, 0, 76, 53
2, 12401, Note_on_c, 0, 70, 0
2, 12402, Note_on_c, 0, 76, 0
2, 12403, Note_on_c, 0, 81, 0
2, 12404, Note_on_c, 0, 73, 0
2, 12405, Control_c, 0, 64, 127
2, 12408, Note_on_c, 0, 67, 0
2, 12414, Note_on_c, 0, 70, 47
2, 12416, Note_on_c, 0, 73, 29
2, 12417, Note_on_c, 0, 64, 56
2, 12417, Note_on_c, 0, 79, 38
2, 12418, Note_on_c, 0, 76, 40
2, 12421, Control_c, 0, 64, 0
2, 12447, Control_c, 0, 64, 127
2, 12452, Note_on_c, 0, 64, 0
2, 12458, Note_on_c, 0, 79, 0
2, 12460, Note_on_c, 0, 76, 0
2, 12460, Note_on_c, 0, 73, 0
2, 12466, Note_on_c, 0, 70, 0
2, 12496, Control_c, 0, 64, 0
2, 12498, Note_on_c, 0, 80, 60
2, 12498, Note_on_c, 0, 51, 64
2, 12499, Note_on_c, 0, 73, 45
2, 12500, Note_on_c, 0, 77, 50
2, 12502, Note_on_c, 0, 75, 35
2, 12507, Note_on_c, 0, 75, 0
2, 12526, Control_c, 0, 64, 127
2, 12530, Note_on_c, 0, 80, 0
2, 12540, Note_on_c, 0, 77, 0
2, 12542, Note_on_c, 0, 73, 0
2, 12567, Note_on_c, 0, 82, 68
2, 12568, Note_on_c, 0, 73, 53
2, 12569, Note_on_c, 0, 61, 59
2, 12570, Note_on_c, 0, 77, 50
2, 12572, Note_on_c, 0, 75, 29
2, 12575, Note_on_c, 0, 58, 31
2, 12578, Note_on_c, 0, 75, 0
2, 12589, Note_on_c, 0, 51, 0
2, 12592, Note_on_c, 0, 73, 0
2, 12596, Note_on_c, 0, 82, 0
2, 12603, Note_on_c, 0, 77, 0
2, 12608, Note_on_c, 0, 73, 45
2, 12609, Control_c, 0, 64, 0
2, 12609, Note_on_c, 0, 80, 55
2, 12610, Note_on_c, 0, 51, 52
2, 12611, Note_on_c, 0, 75, 25
2, 12623, Note_on_c, 0, 61, 0
2, 12628, Control_c, 0, 64, 127
2, 12629, Note_on_c, 0, 58, 0
2, 12635, Note_on_c, 0, 51, 0
2, 12636, Note_on_c, 0, 75, 0
2, 12643, Note_on_c, 0, 73, 0
2, 12644, Note_on_c, 0, 80, 0
2, 12677, Note_on_c, 0, 82, 57
2, 12713, Note_on_c, 0, 82, 0
2, 12722, Note_on_c, 0, 80, 53
2, 12723, Note_on_c, 0, 72, 42
2, 12725, Note_on_c, 0, 77, 47
2, 12731, Control_c, 0, 64, 0
2, 12758, Control_c, 0, 64, 127
2, 12772, Note_on_c, 0, 77, 0
2, 12775, Note_on_c, 0, 80, 0
2, 12779, Note_on_c, 0, 72, 0
2, 12795, Note_on_c, 0, 44, 54
2, 12840, Note_on_c, 0, 54, 49
2, 12840, Note_on_c, 0, 65, 57
2, 12840, Control_c, 0, 64, 0
2, 12841, Note_on_c, 0, 60, 48
2, 12862, Control_c, 0, 64, 127
2, 12881, Note_on_c, 0, 44, 0
2, 12889, Note_on_c, 0, 54, 0
2, 12907, Note_on_c, 0, 65, 0
2, 12911, Note_on_c, 0, 60, 0
2, 12911, Note_on_c, 0, 68, 52
2, 12940, Note_on_c, 0, 68, 0
2, 12956, Note_on_c, 0, 65, 48
2, 12957, Note_on_c, 0, 56, 35
2, 12957, Note_on_c, 0, 63, 37
2, 12958, Control_c, 0, 64, 0
2, 12960, Note_on_c, 0, 46, 29
2, 12961, Note_on_c, 0, 59, 31
2, 12982, Control_c, 0, 64, 127
2, 12987, Note_on_c, 0, 59, 0
2, 12997, Note_on_c, 0, 65, 0
2, 12999, Note_on_c, 0, 63, 0
2, 13036, Note_on_c, 0, 77, 63
2, 13050, Note_on_c, 0, 56, 0
2, 13062, Note_on_c, 0, 69, 62
2, 13080, Note_on_c, 0, 77, 0
2, 13082, Note_on_c, 0, 69, 0
2, 13083, Control_c, 0, 64, 0
2, 13089, Note_on_c, 0, 71, 65
2, 13094, Note_on_c, 0, 56, 33
2, 13111, Control_c, 0, 64, 127
2, 13119, Note_on_c, 0, 73, 54
2, 13123, Note_on_c, 0, 46, 0
2, 13124, Note_on_c, 0, 71, 0
2, 13128, Note_on_c, 0, 56, 0
2, 13141, Note_on_c, 0, 73, 0
2, 13148, Note_on_c, 0, 75, 60
2, 13167, Note_on_c, 0, 75, 0
2, 13179, Note_on_c, 0, 76, 26
2, 13202, Note_on_c, 0, 76, 0
2, 13208, Note_on_c, 0, 78, 53
2, 13211, Control_c, 0, 64, 0
2, 13231, Control_c, 0, 64, 127
2, 13236, Note_on_c, 0, 80, 60
2, 13240, Note_on_c, 0, 78, 0
2, 13256, Note_on_c, 0, 80, 0
2, 13264, Note_on_c, 0, 82, 53
2, 13279, Note_on_c, 0, 82, 0
2, 13294, Note_on_c, 0, 84, 64
2, 13310, Note_on_c, 0, 84, 0
2, 13326, Control_c, 0, 64, 0
2, 13328, Note_on_c, 0, 86, 72
2, 13328, Note_on_c, 0, 66, 55
2, 13331, Note_on_c, 0, 56, 39
2, 13331, Note_on_c, 0, 62, 41
2, 13342, Note_on_c, 0, 86, 0
2, 13343, Control_c, 0, 64, 127
2, 13349, Note_on_c, 0, 66, 0
2, 13353, Note_on_c, 0, 62, 0
2, 13360, Note_on_c, 0, 90, 54
2, 13364, Note_on_c, 0, 56, 0
2, 13364, Note_on_c, 0, 89, 58
2, 13365, Note_on_c, 0, 90, 0
2, 13375, Note_on_c, 0, 89, 0
2, 13390, Note_on_c, 0, 92, 65
2, 13409, Note_on_c, 0, 92, 0
2, 13419, Note_on_c, 0, 94, 68
2, 13431, Note_on_c, 0, 94, 0
2, 13448, Control_c, 0, 64, 0
2, 13449, Note_on_c, 0, 65, 49
2, 13450, Note_on_c, 0, 61, 34
2, 13452, Note_on_c, 0, 55, 35
2, 13461, Note_on_c, 0, 55, 0
2, 13461, Note_on_c, 0, 65, 0
2, 13493, Note_on_c, 0, 61, 0
2, 13498, Note_on_c, 0, 101, 57
2, 13498, Note_on_c, 0, 89, 51
2, 13504, Control_c, 0, 64, 127
2, 13511, Note_on_c, 0, 101, 0
2, 13514, Note_on_c, 0, 89, 0
2, 13536, Note_on_c, 0, 97, 64
2, 13537, Note_on_c, 0, 85, 64
2, 13555, Note_on_c, 0, 85, 0
2, 13557, Note_on_c, 0, 97, 0
2, 13572, Control_c, 0, 64, 0
2, 13574, Note_on_c, 0, 61, 33
2, 13576, Note_on_c, 0, 65, 33
2, 13577, Note_on_c, 0, 97, 57
2, 13578, Note_on_c, 0, 55, 32
2, 13578, Note_on_c, 0, 85, 60
2, 13589, Note_on_c, 0, 85, 0
2, 13591, Note_on_c, 0, 97, 0
2, 13594, Note_on_c, 0, 65, 0
2, 13594, Control_c, 0, 64, 127
2, 13608, Note_on_c, 0, 55, 0
2, 13611, Note_on_c, 0, 61, 0
2, 13611, Note_on_c, 0, 82, 35
2, 13612, Note_on_c, 0, 94, 35
2, 13627, Note_on_c, 0, 94, 0
2, 13628, Note_on_c, 0, 82, 0
2, 13651, Note_on_c, 0, 82, 48
2, 13652, Note_on_c, 0, 94, 43
2, 13668, Note_on_c, 0, 94, 0
2, 13669, Note_on_c, 0, 82, 0
2, 13688, Note_on_c, 0, 54, 46
2, 13690, Control_c, 0, 64, 0
2, 13691, Note_on_c, 0, 93, 53
2, 13692, Note_on_c, 0, 81, 44
2, 13692, Note_on_c, 0, 64, 27
2, 13696, Note_on_c, 0, 60, 30
2, 13708, Note_on_c, 0, 81, 0
2, 13708, Control_c, 0, 64, 127
2, 13712, Note_on_c, 0, 93, 0
2, 13746, Note_on_c, 0, 64, 0
2, 13750, Note_on_c, 0, 60, 0
2, 13750, Note_on_c, 0, 54, 0
2, 13760, Note_on_c, 0, 54, 46
2, 13761, Note_on_c, 0, 64, 48
2, 13762, Note_on_c, 0, 100, 68
2, 13763, Note_on_c, 0, 88, 64
2, 13765, Note_on_c, 0, 60, 57
2, 13780, Note_on_c, 0, 88, 0
2, 13781, Note_on_c, 0, 64, 0
2, 13784, Note_on_c, 0, 60, 0
2, 13787, Note_on_c, 0, 54, 0
2, 13788, Note_on_c, 0, 100, 0
2, 13803, Note_on_c, 0, 54, 68
2, 13804, Note_on_c, 0, 100, 63
2, 13804, Note_on_c, 0, 64, 66
2, 13805, Note_on_c, 0, 88, 67
2, 13806, Note_on_c, 0, 60, 60
2, 13823, Note_on_c, 0, 100, 0
2, 13831, Note_on_c, 0, 88, 0
2, 13848, Note_on_c, 0, 64, 0
2, 13855, Note_on_c, 0, 54, 0
2, 13856, Note_on_c, 0, 60, 0
2, 13877, Note_on_c, 0, 54, 53
2, 13879, Note_on_c, 0, 60, 53
2, 13899, Note_on_c, 0, 60, 0
2, 13899, Note_on_c, 0, 54, 0
2, 13917, Control_c, 0, 64, 0
2, 13917, Note_on_c, 0, 87, 87
2, 13918, Note_on_c, 0, 53, 66
2, 13918, Note_on_c, 0, 60, 75
2, 13918, Note_on_c, 0, 75, 90
2, 13919, Note_on_c, 0, 80, 73
2, 13920, Note_on_c, 0, 63, 75
2, 13920, Note_on_c, 0, 84, 64
2, 13922, Note_on_c, 0, 56, 47
2, 13941, Control_c, 0, 64, 127
2, 13958, Note_on_c, 0, 84, 0
2, 13964, Note_on_c, 0, 87, 0
2, 13967, Note_on_c, 0, 80, 0
2, 13968, Note_on_c, 0, 75, 0
2, 13969, Note_on_c, 0, 63, 0
2, 13981, Note_on_c, 0, 60, 0
2, 13983, Note_on_c, 0, 56, 0
2, 13995, Note_on_c, 0, 63, 64
2, 13995, Note_on_c, 0, 80, 61
2, 13995, Note_on_c, 0, 72, 76
2, 13996, Note_on_c, 0, 84, 79
2, 13997, Note_on_c, 0, 77, 60
2, 13997, Note_on_c, 0, 60, 42
2, 13999, Note_on_c, 0, 56, 34
2, 14055, Note_on_c, 0, 63, 0
2, 14062, Note_on_c, 0, 84, 0
2, 14071, Note_on_c, 0, 77, 0
2, 14072, Note_on_c, 0, 53, 0
2, 14073, Note_on_c, 0, 80, 0
2, 14077, Note_on_c, 0, 72, 0
2, 14111, Note_on_c, 0, 60, 0
2, 14112, Note_on_c, 0, 56, 0
2, 14120, Note_on_c, 0, 53, 47
2, 14141, Note_on_c, 0, 53, 0
2, 14164, Note_on_c, 0, 72, 70
2, 14166, Note_on_c, 0, 65, 74
2, 14166, Note_on_c, 0, 61, 74
2, 14167, Note_on_c, 0, 60, 82
2, 14168, Note_on_c, 0, 69, 43
2, 14174, Control_c, 0, 64, 0
2, 14195, Control_c, 0, 64, 127
2, 14216, Note_on_c, 0, 69, 0
2, 14252, Note_on_c, 0, 72, 0
2, 14252, Note_on_c, 0, 65, 0
2, 14264, Note_on_c, 0, 61, 0
2, 14268, Note_on_c, 0, 60, 0
2, 14290, Note_on_c, 0, 61, 58
2, 14291, Note_on_c, 0, 70, 47
2, 14293, Note_on_c, 0, 55, 57
2, 14293, Note_on_c, 0, 64, 53
2, 14294, Note_on_c, 0, 67, 38
2, 14298, Control_c, 0, 64, 0
2, 14326, Control_c, 0, 64, 127
2, 14345, Note_on_c, 0, 64, 0
2, 14346, Note_on_c, 0, 67, 0
2, 14348, Note_on_c, 0, 61, 0
2, 14349, Note_on_c, 0, 55, 0
2, 14357, Note_on_c, 0, 70, 0
2, 14409, Note_on_c, 0, 73, 47
2, 14410, Note_on_c, 0, 63, 59
2, 14411, Note_on_c, 0, 58, 48
2, 14412, Note_on_c, 0, 66, 52
2, 14412, Note_on_c, 0, 70, 42
2, 14416, Control_c, 0, 64, 0
2, 14437, Note_on_c, 0, 70, 0
2, 14439, Note_on_c, 0, 66, 0
2, 14440, Note_on_c, 0, 73, 0
2, 14441, Note_on_c, 0, 58, 0
2, 14441, Control_c, 0, 64, 127
2, 14442, Note_on_c, 0, 63, 0
2, 14452, Note_on_c, 0, 58, 15
2, 14464, Note_on_c, 0, 58, 0
2, 14483, Note_on_c, 0, 70, 62
2, 14483, Control_c, 0, 64, 0
2, 14484, Note_on_c, 0, 61, 55
2, 14484, Note_on_c, 0, 54, 50
2, 14486, Control_c, 0, 64, 127
2, 14487, Note_on_c, 0, 66, 39
2, 14502, Note_on_c, 0, 54, 0
2, 14502, Note_on_c, 0, 61, 0
2, 14504, Note_on_c, 0, 66, 0
2, 14517, Note_on_c, 0, 70, 0
2, 14528, Control_c, 0, 64, 0
2, 14528, Note_on_c, 0, 51, 46
2, 14530, Note_on_c, 0, 66, 55
2, 14530, Note_on_c, 0, 61, 49
2, 14550, Note_on_c, 0, 51, 0
2, 14551, Control_c, 0, 64, 127
2, 14562, Note_on_c, 0, 61, 0
2, 14583, Note_on_c, 0, 66, 0
2, 14597, Note_on_c, 0, 63, 53
2, 14600, Note_on_c, 0, 51, 36
2, 14616, Note_on_c, 0, 63, 0
2, 14630, Note_on_c, 0, 51, 0
2, 14641, Note_on_c, 0, 54, 32
2, 14642, Note_on_c, 0, 44, 38
2, 14642, Note_on_c, 0, 65, 52
2, 14643, Note_on_c, 0, 60, 62
2, 14646, Control_c, 0, 64, 0
2, 14650, Note_on_c, 0, 60, 0
2, 14652, Note_on_c, 0, 65, 0
2, 14655, Note_on_c, 0, 54, 0
2, 14658, Note_on_c, 0, 44, 0
2, 14699, Note_on_c, 0, 44, 47
2, 14699, Note_on_c, 0, 65, 58
2, 14699, Note_on_c, 0, 54, 46
2, 14700, Note_on_c, 0, 60, 59
2, 14707, Note_on_c, 0, 60, 0
2, 14708, Note_on_c, 0, 65, 0
2, 14711, Note_on_c, 0, 54, 0
2, 14711, Note_on_c, 0, 44, 0
2, 14760, Note_on_c, 0, 44, 53
2, 14760, Note_on_c, 0, 54, 57
2, 14763, Note_on_c, 0, 65, 53
2, 14764, Note_on_c, 0, 60, 50
2, 14770, Note_on_c, 0, 65, 0
2, 14771, Note_on_c, 0, 60, 0
2, 14771, Note_on_c, 0, 54, 0
2, 14771, Control_c, 0, 64, 127
2, 14773, Note_on_c, 0, 44, 0
2, 14792, Control_c, 0, 64, 0
2, 14803, Note_on_c, 0, 44, 46
2, 14803, Note_on_c, 0, 54, 45
2, 14804, Note_on_c, 0, 65, 54
2, 14804, Note_on_c, 0, 60, 54
2, 14828, Control_c, 0, 64, 127
2, 14867, Note_on_c, 0, 54, 0
2, 14874, Note_on_c, 0, 60, 0
2, 14879, Note_on_c, 0, 65, 0
2, 14903, Note_on_c, 0, 44, 0
2, 14903, Control_c, 0, 64, 0
2, 14925, Note_on_c, 0, 55, 69
2, 14926, Note_on_c, 0, 64, 61
2, 14927, Note_on_c, 0, 60, 57
2, 14927, Note_on_c, 0, 49, 55
2, 14932, Note_on_c, 0, 60, 0
2, 14934, Note_on_c, 0, 55, 0
2, 14938, Note_on_c, 0, 64, 0
2, 14939, Note_on_c, 0, 49, 0
2, 14967, Note_on_c, 0, 49, 50
2, 14967, Note_on_c, 0, 64, 66
2, 14968, Note_on_c, 0, 55, 66
2, 14969, Note_on_c, 0, 60, 61
2, 14974, Note_on_c, 0, 60, 0
2, 14974, Note_on_c, 0, 55, 0
2, 14977, Note_on_c, 0, 49, 0
2, 14978, Note_on_c, 0, 64, 0
2, 15012, Note_on_c, 0, 64, 55
2, 15012, Note_on_c, 0, 49, 38
2, 15013, Note_on_c, 0, 55, 55
2, 15014, Note_on_c, 0, 60, 54
2, 15019, Control_c, 0, 64, 127
2, 15025, Note_on_c, 0, 55, 0
2, 15036, Note_on_c, 0, 64, 0
2, 15039, Note_on_c, 0, 49, 0
2, 15043, Note_on_c, 0, 60, 0
2, 15050, Note_on_c, 0, 65, 63
2, 15051, Note_on_c, 0, 61, 52
2, 15051, Note_on_c, 0, 49, 35
2, 15052, Note_on_c, 0, 56, 35
2, 15055, Control_c, 0, 64, 0
2, 15195, Note_on_c, 0, 56, 0
2, 15215, Note_on_c, 0, 61, 0
2, 15218, Note_on_c, 0, 65, 0
2, 15243, Note_on_c, 0, 37, 51
2, 15256, Note_on_c, 0, 49, 0
2, 15371, Note_on_c, 0, 43, 42
2, 15371, Note_on_c, 0, 58, 79
2, 15376, Note_on_c, 0, 37, 0
2, 15486, Note_on_c, 0, 43, 0
2, 15494, Note_on_c, 0, 52, 51
2, 15495, Note_on_c, 0, 36, 41
2, 15501, Control_c, 0, 64, 127
2, 15511, Note_on_c, 0, 58, 0
2, 15523, Control_c, 0, 64, 0
2, 15541, Control_c, 0, 64, 127
2, 15589, Note_on_c, 0, 52, 0
2, 15601, Note_on_c, 0, 36, 0
2, 15609, Control_c, 0, 64, 0
2, 15613, Note_on_c, 0, 42, 38
2, 15614, Note_on_c, 0, 57, 67
2, 15653, Control_c, 0, 64, 127
2, 15713, Note_on_c, 0, 42, 0
2, 15715, Note_on_c, 0, 57, 0
2, 15725, Control_c, 0, 64, 0
2, 15730, Note_on_c, 0, 63, 69
2, 15730, Note_on_c, 0, 35, 50
2, 15760, Control_c, 0, 64, 127
2, 15761, Note_on_c, 0, 35, 0
2, 15787, Note_on_c, 0, 63, 0
2, 15840, Control_c, 0, 64, 0
2, 15844, Note_on_c, 0, 67, 69
2, 15850, Note_on_c, 0, 56, 42
2, 15850, Note_on_c, 0, 41, 44
2, 15851, Note_on_c, 0, 60, 55
2, 15853, Note_on_c, 0, 63, 29
2, 15862, Note_on_c, 0, 41, 0
2, 15870, Control_c, 0, 64, 127
2, 15873, Note_on_c, 0, 60, 0
2, 15879, Note_on_c, 0, 56, 0
2, 15888, Note_on_c, 0, 67, 0
2, 15891, Note_on_c, 0, 63, 0
2, 15965, Note_on_c, 0, 71, 67
2, 15967, Note_on_c, 0, 62, 67
2, 15967, Note_on_c, 0, 56, 58
2, 15968, Note_on_c, 0, 67, 65
2, 15972, Control_c, 0, 64, 0
2, 16003, Control_c, 0, 64, 127
2, 16012, Note_on_c, 0, 56, 0
2, 16014, Note_on_c, 0, 67, 0
2, 16019, Note_on_c, 0, 71, 0
2, 16023, Note_on_c, 0, 62, 0
2, 16086, Note_on_c, 0, 69, 68
2, 16087, Note_on_c, 0, 66, 53
2, 16088, Note_on_c, 0, 52, 56
2, 16089, Control_c, 0, 64, 0
2, 16089, Note_on_c, 0, 62, 62
2, 16091, Note_on_c, 0, 59, 40
2, 16121, Note_on_c, 0, 52, 0
2, 16123, Control_c, 0, 64, 127
2, 16147, Note_on_c, 0, 59, 0
2, 16149, Note_on_c, 0, 69, 0
2, 16150, Note_on_c, 0, 62, 0
2, 16157, Note_on_c, 0, 66, 0
2, 16201, Control_c, 0, 64, 0
2, 16205, Note_on_c, 0, 67, 61
2, 16206, Note_on_c, 0, 58, 55
2, 16209, Note_on_c, 0, 61, 48
2, 16212, Note_on_c, 0, 55, 40
2, 16212, Note_on_c, 0, 45, 31
2, 16212, Note_on_c, 0, 64, 39
2, 16231, Note_on_c, 0, 55, 0
2, 16233, Note_on_c, 0, 45, 0
2, 16239, Control_c, 0, 64, 127
2, 16249, Note_on_c, 0, 58, 0
2, 16252, Note_on_c, 0, 64, 0
2, 16253, Note_on_c, 0, 61, 0
2, 16255, Note_on_c, 0, 67, 0
2, 16330, Control_c, 0, 64, 0
2, 16330, Note_on_c, 0, 54, 37
2, 16332, Note_on_c, 0, 68, 50
2, 16334, Note_on_c, 0, 61, 42
2, 16335, Note_on_c, 0, 65, 48
2, 16384, Note_on_c, 0, 54, 0
2, 16411, Note_on_c, 0, 46, 64
2, 16458, Control_c, 0, 64, 127
2, 16497, Note_on_c, 0, 46, 0
2, 16520, Note_on_c, 0, 65, 0
2, 16522, Note_on_c, 0, 46, 55
2, 16532, Note_on_c, 0, 68, 0
2, 16540, Note_on_c, 0, 61, 0
2, 16542, Control_c, 0, 64, 0
2, 16557, Note_on_c, 0, 46, 0
2, 16572, Note_on_c, 0, 44, 39
2, 16646, Note_on_c, 0, 54, 52
2, 16647, Note_on_c, 0, 65, 54
2, 16652, Note_on_c, 0, 60, 53
2, 16688, Control_c, 0, 64, 127
2, 16719, Note_on_c, 0, 44, 0
2, 16750, Note_on_c, 0, 54, 0
2, 16756, Note_on_c, 0, 60, 0
2, 16757, Note_on_c, 0, 46, 72
2, 16760, Note_on_c, 0, 65, 0
2, 16765, Control_c, 0, 64, 0
2, 16800, Note_on_c, 0, 46, 0
2, 16804, Note_on_c, 0, 47, 63
2, 16881, Note_on_c, 0, 66, 85
2, 16881, Note_on_c, 0, 61, 90
2, 16882, Note_on_c, 0, 57, 95
2, 16882, Note_on_c, 0, 63, 75
2, 16931, Control_c, 0, 64, 127
2, 16977, Control_c, 0, 64, 0
2, 16985, Note_on_c, 0, 47, 0
2, 16995, Control_c, 0, 64, 127
2, 17004, Note_on_c, 0, 41, 49
2, 17015, Control_c, 0, 64, 0
2, 17027, Note_on_c, 0, 41, 0
2, 17040, Note_on_c, 0, 63, 0
2, 17041, Note_on_c, 0, 57, 0
2, 17048, Note_on_c, 0, 34, 43
2, 17051, Note_on_c, 0, 66, 0
2, 17053, Note_on_c, 0, 61, 0
2, 17083, Control_c, 0, 64, 127
2, 17128, Note_on_c, 0, 67, 58
2, 17129, Note_on_c, 0, 56, 37
2, 17132, Note_on_c, 0, 60, 57
2, 17132, Note_on_c, 0, 46, 36
2, 17136, Note_on_c, 0, 62, 36
2, 17138, Control_c, 0, 64, 0
2, 17180, Control_c, 0, 64, 127
2, 17190, Note_on_c, 0, 34, 0
2, 17218, Control_c, 0, 64, 0
2, 17232, Note_on_c, 0, 67, 0
2, 17237, Note_on_c, 0, 60, 0
2, 17238, Control_c, 0, 64, 127
2, 17239, Note_on_c, 0, 62, 0
2, 17245, Note_on_c, 0, 34, 42
2, 17252, Note_on_c, 0, 56, 0
2, 17252, Note_on_c, 0, 46, 0
2, 17281, Note_on_c, 0, 34, 0
2, 17284, Control_c, 0, 64, 0
2, 17292, Note_on_c, 0, 39, 56
2, 17340, Control_c, 0, 64, 127
2, 17366, Note_on_c, 0, 66, 62
2, 17367, Note_on_c, 0, 61, 62
2, 17369, Note_on_c, 0, 55, 43
2, 17371, Control_c, 0, 64, 0
2, 17417, Control_c, 0, 64, 127
2, 17419, Note_on_c, 0, 39, 0
2, 17463, Control_c, 0, 64, 0
2, 17477, Control_c, 0, 64, 127
2, 17482, Note_on_c, 0, 39, 44
2, 17483, Note_on_c, 0, 66, 0
2, 17488, Note_on_c, 0, 55, 0
2, 17509, Note_on_c, 0, 61, 0
2, 17518, Note_on_c, 0, 39, 0
2, 17521, Control_c, 0, 64, 0
2, 17528, Note_on_c, 0, 38, 40
2, 17555, Control_c, 0, 64, 127
2, 17604, Note_on_c, 0, 54, 46
2, 17604, Note_on_c, 0, 65, 57
2, 17610, Note_on_c, 0, 60, 52
2, 17613, Control_c, 0, 64, 0
2, 17645, Control_c, 0, 64, 127
2, 17667, Note_on_c, 0, 38, 0
2, 17697, Note_on_c, 0, 65, 0
2, 17699, Note_on_c, 0, 60, 0
2, 17706, Note_on_c, 0, 54, 0
2, 17716, Note_on_c, 0, 38, 42
2, 17750, Note_on_c, 0, 38, 0
2, 17751, Control_c, 0, 64, 0
2, 17759, Note_on_c, 0, 63, 46
2, 17760, Note_on_c, 0, 37, 47
2, 17762, Note_on_c, 0, 56, 37
2, 17762, Note_on_c, 0, 53, 37
2, 17764, Note_on_c, 0, 60, 50
2, 17780, Note_on_c, 0, 53, 0
2, 17782, Note_on_c, 0, 56, 0
2, 17784, Note_on_c, 0, 60, 0
2, 17787, Note_on_c, 0, 37, 0
2, 17791, Note_on_c, 0, 63, 0
2, 17841, Note_on_c, 0, 63, 50
2, 17842, Note_on_c, 0, 53, 58
2, 17843, Note_on_c, 0, 37, 52
2, 17843, Note_on_c, 0, 56, 44
2, 17846, Note_on_c, 0, 60, 54
2, 17852, Control_c, 0, 64, 127
2, 17860, Note_on_c, 0, 53, 0
2, 17862, Note_on_c, 0, 56, 0
2, 17864, Note_on_c, 0, 63, 0
2, 17866, Note_on_c, 0, 60, 0
2, 17872, Note_on_c, 0, 37, 0
2, 17872, Control_c, 0, 64, 0
2, 17888, Control_c, 0, 64, 127
2, 17891, Note_on_c, 0, 63, 43
2, 17892, Note_on_c, 0, 37, 37
2, 17894, Note_on_c, 0, 53, 44
2, 17895, Note_on_c, 0, 56, 36
2, 17896, Note_on_c, 0, 60, 52
2, 17911, Note_on_c, 0, 37, 0
2, 17913, Note_on_c, 0, 53, 0
2, 17918, Note_on_c, 0, 56, 0
2, 17919, Note_on_c, 0, 60, 0
2, 17923, Note_on_c, 0, 63, 0
2, 17961, Note_on_c, 0, 37, 51
2, 17968, Note_on_c, 0, 37, 0
2, 18003, Note_on_c, 0, 39, 62
2, 18004, Control_c, 0, 64, 0
2, 18006, Note_on_c, 0, 61, 68
2, 18007, Note_on_c, 0, 72, 67
2, 18008, Note_on_c, 0, 65, 68
2, 18009, Note_on_c, 0, 69, 51
2, 18030, Control_c, 0, 64, 127
2, 18044, Note_on_c, 0, 39, 0
2, 18082, Note_on_c, 0, 72, 0
2, 18088, Note_on_c, 0, 69, 0
2, 18093, Note_on_c, 0, 65, 0
2, 18095, Note_on_c, 0, 61, 0
2, 18125, Note_on_c, 0, 70, 58
2, 18127, Note_on_c, 0, 61, 49
2, 18128, Note_on_c, 0, 55, 55
2, 18129, Control_c, 0, 64, 0
2, 18130, Note_on_c, 0, 65, 55
2, 18141, Control_c, 0, 64, 127
2, 18190, Note_on_c, 0, 65, 0
2, 18201, Note_on_c, 0, 70, 0
2, 18208, Note_on_c, 0, 55, 0
2, 18209, Note_on_c, 0, 61, 0
2, 18238, Note_on_c, 0, 68, 55
2, 18238, Note_on_c, 0, 61, 56
2, 18241, Note_on_c, 0, 51, 50
2, 18243, Control_c, 0, 64, 0
2, 18244, Note_on_c, 0, 65, 50
2, 18271, Control_c, 0, 64, 127
2, 18303, Note_on_c, 0, 65, 0
2, 18325, Note_on_c, 0, 61, 0
2, 18358, Note_on_c, 0, 61, 56
2, 18359, Note_on_c, 0, 65, 60
2, 18361, Note_on_c, 0, 56, 38
2, 18393, Note_on_c, 0, 51, 0
2, 18395, Note_on_c, 0, 56, 0
2, 18415, Note_on_c, 0, 65, 0
2, 18430, Note_on_c, 0, 61, 0
2, 18456, Note_on_c, 0, 68, 0
2, 18478, Note_on_c, 0, 63, 39
2, 18478, Note_on_c, 0, 54, 34
2, 18478, Note_on_c, 0, 60, 47
2, 18479, Control_c, 0, 64, 0
2, 18482, Note_on_c, 0, 44, 31
2, 18516, Control_c, 0, 64, 127
2, 18562, Note_on_c, 0, 54, 0
2, 18564, Note_on_c, 0, 60, 0
2, 18598, Note_on_c, 0, 54, 38
2, 18602, Note_on_c, 0, 63, 0
2, 18602, Note_on_c, 0, 60, 44
2, 18621, Note_on_c, 0, 54, 0
2, 18629, Note_on_c, 0, 44, 0
2, 18639, Note_on_c, 0, 60, 0
2, 18720, Control_c, 0, 64, 0
2, 18721, Note_on_c, 0, 51, 37
2, 18722, Note_on_c, 0, 56, 43
2, 18725, Note_on_c, 0, 41, 33
2, 18744, Control_c, 0, 64, 127
2, 18750, Note_on_c, 0, 41, 0
2, 18764, Note_on_c, 0, 51, 0
2, 18766, Note_on_c, 0, 56, 0
2, 18840, Control_c, 0, 64, 0
2, 18842, Note_on_c, 0, 70, 53
2, 18844, Note_on_c, 0, 66, 48
2, 18845, Note_on_c, 0, 40, 38
2, 18845, Note_on_c, 0, 50, 33
2, 18847, Note_on_c, 0, 61, 47
2, 18871, Control_c, 0, 64, 127
2, 18882, Note_on_c, 0, 40, 0
2, 18891, Note_on_c, 0, 50, 0
2, 18921, Note_on_c, 0, 61, 0
2, 18927, Note_on_c, 0, 66, 0
2, 18938, Note_on_c, 0, 70, 0
2, 18960, Note_on_c, 0, 51, 48
2, 18961, Note_on_c, 0, 68, 46
2, 18961, Note_on_c, 0, 61, 42
2, 18963, Control_c, 0, 64, 0
2, 18964, Note_on_c, 0, 65, 52
2, 18985, Control_c, 0, 64, 127
2, 19001, Note_on_c, 0, 65, 0
2, 19002, Note_on_c, 0, 51, 0
2, 19010, Note_on_c, 0, 61, 0
2, 19014, Note_on_c, 0, 68, 0
2, 19079, Note_on_c, 0, 66, 36
2, 19079, Control_c, 0, 64, 0
2, 19080, Note_on_c, 0, 45, 40
2, 19082, Note_on_c, 0, 59, 31
2, 19082, Note_on_c, 0, 64, 42
2, 19093, Note_on_c, 0, 45, 0
2, 19111, Control_c, 0, 64, 127
2, 19114, Note_on_c, 0, 64, 0
2, 19128, Note_on_c, 0, 66, 0
2, 19136, Note_on_c, 0, 59, 0
2, 19163, Note_on_c, 0, 42, 31
2, 19197, Note_on_c, 0, 42, 0
2, 19200, Control_c, 0, 64, 0
2, 19205, Note_on_c, 0, 58, 42
2, 19207, Note_on_c, 0, 62, 50
2, 19208, Note_on_c, 0, 65, 45
2, 19209, Note_on_c, 0, 43, 34
2, 19232, Control_c, 0, 64, 127
2, 19243, Note_on_c, 0, 62, 0
2, 19254, Note_on_c, 0, 58, 0
2, 19259, Note_on_c, 0, 65, 0
2, 19307, Note_on_c, 0, 43, 0
2, 19322, Note_on_c, 0, 58, 44
2, 19324, Note_on_c, 0, 52, 35
2, 19324, Control_c, 0, 64, 0
2, 19327, Note_on_c, 0, 36, 30
2, 19360, Control_c, 0, 64, 127
2, 19402, Note_on_c, 0, 52, 0
2, 19422, Note_on_c, 0, 58, 0
2, 19426, Note_on_c, 0, 36, 0
2, 19443, Note_on_c, 0, 57, 52
2, 19445, Note_on_c, 0, 52, 32
2, 19445, Note_on_c, 0, 42, 33
2, 19446, Control_c, 0, 64, 0
2, 19480, Control_c, 0, 64, 127
2, 19503, Note_on_c, 0, 52, 0
2, 19542, Note_on_c, 0, 57, 0
2, 19554, Note_on_c, 0, 42, 0
2, 19558, Note_on_c, 0, 51, 49
2, 19561, Control_c, 0, 64, 0
2, 19561, Note_on_c, 0, 57, 63
2, 19566, Note_on_c, 0, 35, 34
2, 19593, Control_c, 0, 64, 127
2, 19627, Note_on_c, 0, 57, 0
2, 19644, Note_on_c, 0, 51, 0
2, 19666, Note_on_c, 0, 35, 0
2, 19677, Control_c, 0, 64, 0
2, 19680, Note_on_c, 0, 51, 67
2, 19680, Note_on_c, 0, 56, 63
2, 19681, Note_on_c, 0, 41, 44
2, 19711, Control_c, 0, 64, 127
2, 19759, Note_on_c, 0, 51, 0
2, 19775, Note_on_c, 0, 56, 0
2, 19787, Note_on_c, 0, 41, 0
2, 19793, Note_on_c, 0, 56, 62
2, 19795, Control_c, 0, 64, 0
2, 19797, Note_on_c, 0, 50, 60
2, 19797, Note_on_c, 0, 34, 50
2, 19831, Control_c, 0, 64, 127
2, 19858, Note_on_c, 0, 34, 0
2, 19884, Note_on_c, 0, 50, 0
2, 19896, Note_on_c, 0, 56, 0
2, 19911, Note_on_c, 0, 55, 84
2, 19914, Note_on_c, 0, 50, 73
2, 19915, Control_c, 0, 64, 0
2, 19916, Note_on_c, 0, 40, 57
2, 19940, Note_on_c, 0, 40, 0
2, 19950, Control_c, 0, 64, 127
2, 19983, Note_on_c, 0, 50, 0
2, 20010, Note_on_c, 0, 55, 0
2, 20028, Control_c, 0, 64, 0
2, 20036, Note_on_c, 0, 55, 89
2, 20037, Note_on_c, 0, 49, 76
2, 20040, Note_on_c, 0, 33, 54
2, 20050, Note_on_c, 0, 33, 0
2, 20058, Control_c, 0, 64, 127
2, 20081, Note_on_c, 0, 49, 0
2, 20101, Note_on_c, 0, 55, 0
2, 20161, Note_on_c, 0, 54, 67
2, 20162, Note_on_c, 0, 49, 67
2, 20162, Control_c, 0, 64, 0
2, 20166, Note_on_c, 0, 39, 56
2, 20192, Note_on_c, 0, 49, 0
2, 20194, Control_c, 0, 64, 127
2, 20203, Note_on_c, 0, 39, 0
2, 20203, Note_on_c, 0, 54, 0
2, 20284, Note_on_c, 0, 70, 71
2, 20285, Note_on_c, 0, 66, 74
2, 20285, Note_on_c, 0, 61, 79
2, 20290, Note_on_c, 0, 56, 60
2, 20293, Control_c, 0, 64, 0
2, 20313, Control_c, 0, 64, 127
2, 20317, Note_on_c, 0, 56, 0
2, 20362, Note_on_c, 0, 61, 0
2, 20375, Note_on_c, 0, 66, 0
2, 20380, Note_on_c, 0, 70, 0
2, 20403, Control_c, 0, 64, 0
2, 20404, Note_on_c, 0, 69, 62
2, 20406, Note_on_c, 0, 54, 42
2, 20407, Note_on_c, 0, 60, 55
2, 20408, Note_on_c, 0, 44, 34
2, 20408, Note_on_c, 0, 65, 55
2, 20441, Control_c, 0, 64, 127
2, 20488, Note_on_c, 0, 60, 0
2, 20492, Note_on_c, 0, 54, 0
2, 20495, Note_on_c, 0, 65, 0
2, 20515, Note_on_c, 0, 69, 0
2, 20522, Note_on_c, 0, 68, 37
2, 20523, Note_on_c, 0, 65, 46
2, 20523, Note_on_c, 0, 60, 48
2, 20523, Note_on_c, 0, 54, 42
2, 20550, Note_on_c, 0, 44, 0
2, 20558, Note_on_c, 0, 54, 0
2, 20572, Note_on_c, 0, 65, 0
2, 20580, Note_on_c, 0, 68, 0
2, 20584, Note_on_c, 0, 60, 0
2, 20639, Note_on_c, 0, 67, 47
2, 20640, Control_c, 0, 64, 0
2, 20641, Note_on_c, 0, 63, 39
2, 20644, Note_on_c, 0, 47, 40
2, 20649, Note_on_c, 0, 59, 22
2, 20664, Note_on_c, 0, 47, 0
2, 20670, Control_c, 0, 64, 127
2, 20671, Note_on_c, 0, 59, 0
2, 20685, Note_on_c, 0, 63, 0
2, 20686, Note_on_c, 0, 67, 0
2, 20762, Note_on_c, 0, 75, 80
2, 20762, Note_on_c, 0, 79, 74
2, 20762, Note_on_c, 0, 71, 91
2, 20765, Note_on_c, 0, 68, 67
2, 20766, Control_c, 0, 64, 0
2, 20767, Note_on_c, 0, 63, 39
2, 20767, Note_on_c, 0, 61, 35
2, 20768, Note_on_c, 0, 57, 51
2, 20789, Control_c, 0, 64, 127
2, 20832, Note_on_c, 0, 57, 0
2, 20834, Note_on_c, 0, 71, 0
2, 20837, Note_on_c, 0, 68, 0
2, 20853, Note_on_c, 0, 79, 0
2, 20858, Note_on_c, 0, 75, 0
2, 20865, Note_on_c, 0, 63, 0
2, 20867, Note_on_c, 0, 61, 0
2, 20879, Control_c, 0, 64, 0
2, 20879, Note_on_c, 0, 77, 61
2, 20881, Note_on_c, 0, 67, 57
2, 20882, Note_on_c, 0, 74, 62
2, 20882, Note_on_c, 0, 62, 51
2, 20884, Note_on_c, 0, 70, 50
2, 20887, Note_on_c, 0, 56, 32
2, 20901, Control_c, 0, 64, 127
2, 20923, Note_on_c, 0, 70, 0
2, 20924, Note_on_c, 0, 77, 0
2, 20927, Note_on_c, 0, 74, 0
2, 20944, Note_on_c, 0, 67, 0
2, 20977, Note_on_c, 0, 56, 0
2, 21001, Note_on_c, 0, 56, 35
2, 21003, Note_on_c, 0, 74, 55
2, 21003, Note_on_c, 0, 83, 57
2, 21005, Note_on_c, 0, 79, 45
2, 21006, Note_on_c, 0, 65, 32
2, 21021, Note_on_c, 0, 62, 0
2, 21038, Note_on_c, 0, 74, 0
2, 21041, Note_on_c, 0, 79, 0
2, 21043, Note_on_c, 0, 56, 0
2, 21045, Note_on_c, 0, 65, 0
2, 21045, Note_on_c, 0, 83, 0
2, 21119, Note_on_c, 0, 87, 53
2, 21119, Note_on_c, 0, 61, 30
2, 21120, Note_on_c, 0, 65, 40
2, 21120, Control_c, 0, 64, 0
2, 21121, Note_on_c, 0, 73, 28
2, 21123, Note_on_c, 0, 55, 34
2, 21124, Note_on_c, 0, 82, 30
2, 21134, Note_on_c, 0, 82, 0
2, 21135, Note_on_c, 0, 55, 0
2, 21139, Note_on_c, 0, 65, 0
2, 21139, Note_on_c, 0, 73, 0
2, 21141, Note_on_c, 0, 87, 0
2, 21146, Note_on_c, 0, 61, 0
2, 21188, Note_on_c, 0, 87, 48
2, 21189, Note_on_c, 0, 73, 32
2, 21191, Note_on_c, 0, 61, 30
2, 21192, Note_on_c, 0, 65, 32
2, 21192, Note_on_c, 0, 55, 37
2, 21205, Note_on_c, 0, 55, 0
2, 21206, Note_on_c, 0, 73, 0
2, 21206, Note_on_c, 0, 65, 0
2, 21208, Note_on_c, 0, 87, 0
2, 21212, Note_on_c, 0, 61, 0
2, 21246, Control_c, 0, 64, 127
2, 21249, Note_on_c, 0, 87, 59
2, 21250, Note_on_c, 0, 55, 59
2, 21251, Note_on_c, 0, 73, 37
2, 21251, Note_on_c, 0, 61, 36
2, 21252, Note_on_c, 0, 65, 37
2, 21255, Note_on_c, 0, 82, 37
2, 21271, Note_on_c, 0, 65, 0
2, 21271, Note_on_c, 0, 55, 0
2, 21272, Note_on_c, 0, 73, 0
2, 21276, Note_on_c, 0, 87, 0
2, 21277, Note_on_c, 0, 82, 0
2, 21280, Note_on_c, 0, 61, 0
2, 21296, Control_c, 0, 64, 0
2, 21313, Note_on_c, 0, 87, 58
2, 21315, Note_on_c, 0, 73, 45
2, 21315, Note_on_c, 0, 61, 30
2, 21315, Note_on_c, 0, 55, 46
2, 21316, Note_on_c, 0, 65, 34
2, 21323, Note_on_c, 0, 82, 25
2, 21326, Note_on_c, 0, 55, 0
2, 21329, Note_on_c, 0, 65, 0
2, 21331, Note_on_c, 0, 82, 0
2, 21335, Note_on_c, 0, 73, 0
2, 21336, Note_on_c, 0, 87, 0
2, 21342, Note_on_c, 0, 61, 0
2, 21370, Note_on_c, 0, 86, 54
2, 21371, Note_on_c, 0, 64, 50
2, 21373, Note_on_c, 0, 74, 35
2, 21374, Note_on_c, 0, 54, 29
2, 21374, Note_on_c, 0, 72, 36
2, 21378, Note_on_c, 0, 60, 35
2, 21387, Note_on_c, 0, 60, 0
2, 21389, Note_on_c, 0, 64, 0
2, 21389, Note_on_c, 0, 86, 0
2, 21389, Note_on_c, 0, 72, 0
2, 21391, Note_on_c, 0, 74, 0
2, 21394, Note_on_c, 0, 54, 0
2, 21432, Note_on_c, 0, 86, 73
2, 21434, Note_on_c, 0, 74, 47
2, 21435, Note_on_c, 0, 72, 47
2, 21435, Note_on_c, 0, 54, 48
2, 21435, Note_on_c, 0, 64, 53
2, 21439, Note_on_c, 0, 60, 40
2, 21448, Note_on_c, 0, 60, 0
2, 21449, Note_on_c, 0, 72, 0
2, 21450, Note_on_c, 0, 86, 0
2, 21450, Note_on_c, 0, 64, 0
2, 21450, Note_on_c, 0, 74, 0
2, 21454, Note_on_c, 0, 54, 0
2, 21489, Control_c, 0, 64, 127
2, 21494, Note_on_c, 0, 86, 77
2, 21495, Note_on_c, 0, 54, 59
2, 21496, Note_on_c, 0, 64, 59
2, 21496, Note_on_c, 0, 74, 53
2, 21497, Note_on_c, 0, 60, 53
2, 21498, Note_on_c, 0, 72, 56
2, 21506, Note_on_c, 0, 60, 0
2, 21508, Note_on_c, 0, 64, 0
2, 21510, Note_on_c, 0, 72, 0
2, 21512, Note_on_c, 0, 86, 0
2, 21512, Note_on_c, 0, 74, 0
2, 21514, Note_on_c, 0, 54, 0
2, 21521, Control_c, 0, 64, 0
2, 21530, Note_on_c, 0, 86, 66
2, 21531, Note_on_c, 0, 54, 37
2, 21532, Note_on_c, 0, 64, 35
2, 21534, Note_on_c, 0, 74, 32
2, 21535, Note_on_c, 0, 72, 36
2, 21537, Note_on_c, 0, 60, 40
2, 21538, Note_on_c, 0, 85, 34
2, 21539, Control_c, 0, 64, 127
2, 21561, Note_on_c, 0, 64, 0
2, 21562, Note_on_c, 0, 86, 0
2, 21566, Note_on_c, 0, 72, 0
2, 21566, Note_on_c, 0, 74, 0
2, 21573, Note_on_c, 0, 85, 0
2, 21578, Note_on_c, 0, 54, 0
2, 21578, Note_on_c, 0, 60, 0
2, 21603, Control_c, 0, 64, 0
2, 21604, Note_on_c, 0, 85, 69
2, 21604, Note_on_c, 0, 63, 53
2, 21605, Note_on_c, 0, 60, 47
2, 21606, Note_on_c, 0, 72, 36
2, 21606, Note_on_c, 0, 53, 41
2, 21606, Note_on_c, 0, 74, 40
2, 21609, Note_on_c, 0, 56, 39
2, 21637, Control_c, 0, 64, 127
2, 21664, Note_on_c, 0, 63, 0
2, 21671, Note_on_c, 0, 74, 0
2, 21674, Note_on_c, 0, 85, 0
2, 21680, Note_on_c, 0, 72, 0
2, 21691, Note_on_c, 0, 60, 0
2, 21700, Note_on_c, 0, 56, 0
2, 21718, Control_c, 0, 64, 0
2, 21720, Note_on_c, 0, 63, 51
2, 21722, Note_on_c, 0, 72, 51
2, 21724, Note_on_c, 0, 60, 46
2, 21725, Note_on_c, 0, 56, 17
2, 21734, Control_c, 0, 64, 127
2, 21752, Note_on_c, 0, 72, 0
2, 21757, Note_on_c, 0, 60, 0
2, 21758, Note_on_c, 0, 63, 0
2, 21774, Note_on_c, 0, 53, 0
2, 21783, Note_on_c, 0, 56, 0
2, 21798, Note_on_c, 0, 56, 19
2, 21818, Note_on_c, 0, 56, 0
2, 21844, Note_on_c, 0, 70, 77
2, 21844, Note_on_c, 0, 61, 85
2, 21845, Note_on_c, 0, 65, 81
2, 21847, Note_on_c, 0, 58, 77
2, 21850, Control_c, 0, 64, 0
2, 21886, Control_c, 0, 64, 127
2, 21906, Note_on_c, 0, 58, 0
2, 21920, Note_on_c, 0, 65, 0
2, 21927, Note_on_c, 0, 61, 0
2, 21943, Note_on_c, 0, 70, 0
2, 21961, Note_on_c, 0, 61, 52
2, 21962, Note_on_c, 0, 67, 57
2, 21962, Note_on_c, 0, 55, 58
2, 21962, Note_on_c, 0, 64, 56
2, 21964, Control_c, 0, 64, 0
2, 21991, Note_on_c, 0, 55, 0
2, 21994, Control_c, 0, 64, 127
2, 21999, Note_on_c, 0, 64, 0
2, 22034, Note_on_c, 0, 61, 0
2, 22041, Note_on_c, 0, 67, 0
2, 22080, Note_on_c, 0, 54, 54
2, 22080, Note_on_c, 0, 68, 54
2, 22081, Note_on_c, 0, 61, 57
2, 22082, Note_on_c, 0, 65, 58
2, 22089, Control_c, 0, 64, 0
2, 22133, Control_c, 0, 64, 127
2, 22154, Note_on_c, 0, 65, 0
2, 22167, Note_on_c, 0, 61, 0
2, 22200, Note_on_c, 0, 46, 45
2, 22204, Note_on_c, 0, 65, 58
2, 22204, Note_on_c, 0, 61, 48
2, 22229, Note_on_c, 0, 46, 0
2, 22258, Note_on_c, 0, 65, 0
2, 22265, Note_on_c, 0, 54, 0
2, 22270, Note_on_c, 0, 61, 0
2, 22288, Note_on_c, 0, 68, 0
2, 22321, Note_on_c, 0, 54, 36
2, 22321, Control_c, 0, 64, 0
2, 22322, Note_on_c, 0, 63, 46
2, 22324, Note_on_c, 0, 60, 40
2, 22325, Note_on_c, 0, 44, 28
2, 22355, Control_c, 0, 64, 127
2, 22401, Note_on_c, 0, 60, 0
2, 22401, Note_on_c, 0, 54, 0
2, 22405, Note_on_c, 0, 63, 0
2, 22443, Note_on_c, 0, 68, 45
2, 22443, Note_on_c, 0, 54, 34
2, 22444, Note_on_c, 0, 63, 42
2, 22448, Note_on_c, 0, 60, 31
2, 22486, Note_on_c, 0, 60, 0
2, 22489, Note_on_c, 0, 63, 0
2, 22494, Note_on_c, 0, 68, 0
2, 22495, Note_on_c, 0, 54, 0
2, 22505, Note_on_c, 0, 44, 0
2, 22558, Note_on_c, 0, 72, 52
2, 22559, Note_on_c, 0, 65, 49
2, 22563, Note_on_c, 0, 56, 25
2, 22564, Note_on_c, 0, 49, 34
2, 22564, Control_c, 0, 64, 0
2, 22565, Note_on_c, 0, 60, 34
2, 22592, Control_c, 0, 64, 127
2, 22594, Note_on_c, 0, 60, 0
2, 22605, Note_on_c, 0, 65, 0
2, 22607, Note_on_c, 0, 56, 0
2, 22610, Note_on_c, 0, 72, 0
2, 22620, Note_on_c, 0, 49, 0
2, 22675, Note_on_c, 0, 75, 74
2, 22676, Note_on_c, 0, 72, 71
2, 22676, Note_on_c, 0, 68, 78
2, 22678, Note_on_c, 0, 65, 80
2, 22678, Control_c, 0, 64, 0
2, 22679, Note_on_c, 0, 60, 82
2, 22712, Control_c, 0, 64, 127
2, 22748, Note_on_c, 0, 75, 0
2, 22766, Note_on_c, 0, 65, 0
2, 22771, Note_on_c, 0, 68, 0
2, 22775, Note_on_c, 0, 72, 0
2, 22799, Note_on_c, 0, 60, 0
2, 22801, Control_c, 0, 64, 0
2, 22803, Note_on_c, 0, 73, 53
2, 22804, Note_on_c, 0, 68, 63
2, 22806, Note_on_c, 0, 58, 57
2, 22806, Note_on_c, 0, 65, 59
2, 22833, Control_c, 0, 64, 127
2, 22871, Note_on_c, 0, 73, 0
2, 22878, Note_on_c, 0, 65, 0
2, 22881, Note_on_c, 0, 68, 0
2, 22913, Note_on_c, 0, 58, 0
2, 22920, Note_on_c, 0, 72, 52
2, 22921, Note_on_c, 0, 57, 38
2, 22921, Note_on_c, 0, 65, 52
2, 22921, Note_on_c, 0, 68, 47
2, 22929, Note_on_c, 0, 57, 0
2, 22996, Note_on_c, 0, 72, 0
2, 22999, Note_on_c, 0, 46, 48
2, 23001, Note_on_c, 0, 68, 0
2, 23003, Note_on_c, 0, 65, 0
2, 23033, Note_on_c, 0, 46, 0
2, 23040, Control_c, 0, 64, 0
2, 23046, Note_on_c, 0, 39, 45
2, 23124, Note_on_c, 0, 54, 43
2, 23125, Note_on_c, 0, 63, 38
2, 23128, Note_on_c, 0, 51, 37
2, 23129, Note_on_c, 0, 58, 44
2, 23129, Note_on_c, 0, 61, 34
2, 23178, Control_c, 0, 64, 127
2, 23206, Control_c, 0, 64, 0
2, 23214, Note_on_c, 0, 51, 0
2, 23244, Note_on_c, 0, 46, 53
2, 23263, Note_on_c, 0, 39, 0
2, 23270, Note_on_c, 0, 54, 0
2, 23274, Note_on_c, 0, 58, 0
2, 23274, Note_on_c, 0, 46, 0
2, 23278, Note_on_c, 0, 61, 0
2, 23280, Note_on_c, 0, 63, 0
2, 23289, Note_on_c, 0, 54, 58
2, 23290, Note_on_c, 0, 44, 46
2, 23290, Note_on_c, 0, 65, 58
2, 23305, Note_on_c, 0, 60, 14
2, 23327, Control_c, 0, 64, 127
2, 23338, Note_on_c, 0, 65, 0
2, 23348, Note_on_c, 0, 60, 0
2, 23362, Note_on_c, 0, 54, 0
2, 23405, Control_c, 0, 64, 0
2, 23405, Note_on_c, 0, 63, 42
2, 23407, Note_on_c, 0, 58, 52
2, 23407, Note_on_c, 0, 42, 48
2, 23408, Note_on_c, 0, 52, 36
2, 23412, Note_on_c, 0, 44, 0
2, 23449, Control_c, 0, 64, 127
2, 23488, Note_on_c, 0, 52, 0
2, 23502, Note_on_c, 0, 42, 0
2, 23519, Note_on_c, 0, 58, 0
2, 23519, Note_on_c, 0, 63, 0
2, 23523, Control_c, 0, 64, 0
2, 23526, Note_on_c, 0, 41, 58
2, 23599, Note_on_c, 0, 63, 47
2, 23601, Note_on_c, 0, 56, 48
2, 23602, Note_on_c, 0, 48, 51
2, 23603, Note_on_c, 0, 60, 58
2, 23604, Note_on_c, 0, 53, 46
2, 23642, Control_c, 0, 64, 127
2, 23645, Note_on_c, 0, 41, 0
2, 23658, Note_on_c, 0, 48, 0
2, 23665, Note_on_c, 0, 53, 0
2, 23681, Note_on_c, 0, 60, 0
2, 23687, Note_on_c, 0, 56, 0
2, 23691, Note_on_c, 0, 63, 0
2, 23752, Control_c, 0, 64, 0
2, 23755, Note_on_c, 0, 46, 53
2, 23798, Control_c, 0, 64, 127
2, 23837, Note_on_c, 0, 67, 67
2, 23839, Note_on_c, 0, 64, 53
2, 23840, Note_on_c, 0, 62, 51
2, 23840, Note_on_c, 0, 56, 46
2, 23840, Control_c, 0, 64, 0
2, 23842, Note_on_c, 0, 59, 31
2, 23878, Control_c, 0, 64, 127
2, 23895, Note_on_c, 0, 56, 0
2, 23902, Note_on_c, 0, 67, 0
2, 23902, Note_on_c, 0, 46, 0
2, 23906, Note_on_c, 0, 64, 0
2, 23912, Note_on_c, 0, 59, 0
2, 23914, Note_on_c, 0, 66, 62
2, 23939, Note_on_c, 0, 62, 0
2, 23953, Note_on_c, 0, 66, 0
2, 23990, Note_on_c, 0, 65, 64
2, 23990, Note_on_c, 0, 61, 62
2, 23990, Note_on_c, 0, 39, 52
2, 23991, Control_c, 0, 64, 0
2, 23991, Note_on_c, 0, 54, 45
2, 24033, Control_c, 0, 64, 127
2, 24045, Note_on_c, 0, 61, 0
2, 24072, Note_on_c, 0, 54, 0
2, 24102, Note_on_c, 0, 39, 0
2, 24109, Note_on_c, 0, 61, 62
2, 24112, Note_on_c, 0, 56, 46
2, 24177, Note_on_c, 0, 56, 0
2, 24200, Note_on_c, 0, 61, 0
2, 24206, Note_on_c, 0, 65, 0
2, 24233, Note_on_c, 0, 56, 49
2, 24234, Note_on_c, 0, 54, 46
2, 24236, Note_on_c, 0, 62, 62
2, 24237, Control_c, 0, 64, 0
2, 24239, Note_on_c, 0, 44, 31
2, 24273, Control_c, 0, 64, 127
2, 24307, Note_on_c, 0, 56, 0
2, 24313, Note_on_c, 0, 62, 0
2, 24328, Note_on_c, 0, 54, 0
2, 24358, Note_on_c, 0, 63, 62
2, 24359, Note_on_c, 0, 54, 38
2, 24360, Control_c, 0, 64, 0
2, 24363, Note_on_c, 0, 56, 38
2, 24366, Note_on_c, 0, 60, 49
2, 24386, Control_c, 0, 64, 127
2, 24404, Note_on_c, 0, 56, 0
2, 24411, Note_on_c, 0, 60, 0
2, 24415, Note_on_c, 0, 54, 0
2, 24447, Note_on_c, 0, 63, 0
2, 24456, Note_on_c, 0, 44, 0
2, 24478, Control_c, 0, 64, 0
2, 24479, Note_on_c, 0, 65, 57
2, 24480, Note_on_c, 0, 60, 56
2, 24481, Note_on_c, 0, 56, 29
2, 24481, Note_on_c, 0, 49, 45
2, 24506, Control_c, 0, 64, 127
2, 24527, Note_on_c, 0, 60, 0
2, 24528, Note_on_c, 0, 65, 0
2, 24534, Note_on_c, 0, 56, 0
2, 24602, Note_on_c, 0, 72, 74
2, 24607, Note_on_c, 0, 56, 44
2, 24608, Control_c, 0, 64, 0
2, 24634, Control_c, 0, 64, 127
2, 24703, Note_on_c, 0, 56, 0
2, 24706, Note_on_c, 0, 72, 0
2, 24719, Control_c, 0, 64, 0
2, 24719, Note_on_c, 0, 64, 43
2, 24720, Note_on_c, 0, 67, 40
2, 24721, Note_on_c, 0, 60, 29
2, 24721, Note_on_c, 0, 57, 34
2, 24749, Control_c, 0, 64, 127
2, 24780, Note_on_c, 0, 64, 0
2, 24809, Note_on_c, 0, 60, 0
2, 24822, Note_on_c, 0, 57, 0
2, 24823, Note_on_c, 0, 67, 0
2, 24841, Control_c, 0, 64, 0
2, 24843, Note_on_c, 0, 68, 35
2, 24843, Note_on_c, 0, 65, 47
2, 24846, Note_on_c, 0, 60, 33
2, 24848, Note_on_c, 0, 56, 30
2, 24860, Control_c, 0, 64, 127
2, 24861, Note_on_c, 0, 49, 0
2, 24878, Note_on_c, 0, 56, 0
2, 24919, Note_on_c, 0, 60, 0
2, 24928, Note_on_c, 0, 65, 0
2, 24935, Note_on_c, 0, 68, 0
2, 24957, Note_on_c, 0, 51, 49
2, 24962, Control_c, 0, 64, 0
2, 25040, Note_on_c, 0, 63, 45
2, 25046, Note_on_c, 0, 55, 33
2, 25046, Note_on_c, 0, 58, 35
2, 25048, Note_on_c, 0, 61, 31
2, 25077, Note_on_c, 0, 51, 0
2, 25160, Note_on_c, 0, 45, 52
2, 25189, Note_on_c, 0, 55, 0
2, 25197, Note_on_c, 0, 45, 0
2, 25206, Note_on_c, 0, 63, 0
2, 25208, Note_on_c, 0, 61, 0
2, 25208, Note_on_c, 0, 58, 0
2, 25210, Note_on_c, 0, 46, 49
2, 25287, Note_on_c, 0, 61, 52
2, 25287, Note_on_c, 0, 65, 46
2, 25287, Note_on_c, 0, 56, 38
2, 25341, Control_c, 0, 64, 127
2, 25353, Note_on_c, 0, 46, 0
2, 25401, Control_c, 0, 64, 0
2, 25403, Note_on_c, 0, 38, 59
2, 25443, Note_on_c, 0, 56, 0
2, 25447, Note_on_c, 0, 38, 0
2, 25450, Note_on_c, 0, 61, 0
2, 25453, Note_on_c, 0, 39, 60
2, 25454, Note_on_c, 0, 65, 0
2, 25530, Note_on_c, 0, 63, 70
2, 25530, Note_on_c, 0, 56, 77
2, 25531, Note_on_c, 0, 61, 68
2, 25582, Control_c, 0, 64, 127
2, 25601, Note_on_c, 0, 39, 0
2, 25650, Note_on_c, 0, 39, 46
2, 25676, Note_on_c, 0, 39, 0
2, 25690, Control_c, 0, 64, 0
2, 25699, Note_on_c, 0, 39, 64
2, 25717, Note_on_c, 0, 56, 0
2, 25740, Control_c, 0, 64, 127
2, 25751, Note_on_c, 0, 63, 0
2, 25755, Note_on_c, 0, 61, 0
2, 25770, Note_on_c, 0, 63, 45
2, 25774, Note_on_c, 0, 61, 57
2, 25775, Note_on_c, 0, 55, 64
2, 25780, Control_c, 0, 64, 0
2, 25807, Note_on_c, 0, 39, 0
2, 25820, Control_c, 0, 64, 127
2, 25877, Note_on_c, 0, 55, 0
2, 25884, Note_on_c, 0, 46, 47
2, 25888, Note_on_c, 0, 61, 0
2, 25916, Control_c, 0, 64, 0
2, 25920, Note_on_c, 0, 46, 0
2, 25920, Note_on_c, 0, 63, 0
2, 25928, Note_on_c, 0, 39, 62
2, 25971, Control_c, 0, 64, 127
2, 26001, Note_on_c, 0, 61, 58
2, 26002, Note_on_c, 0, 54, 55
2, 26003, Control_c, 0, 64, 0
2, 26003, Note_on_c, 0, 51, 51
2, 26004, Note_on_c, 0, 58, 56
2, 26043, Control_c, 0, 64, 127
2, 26061, Note_on_c, 0, 39, 0
2, 26119, Note_on_c, 0, 58, 0
2, 26119, Note_on_c, 0, 39, 52
2, 26125, Note_on_c, 0, 61, 0
2, 26128, Note_on_c, 0, 54, 0
2, 26133, Note_on_c, 0, 51, 0
2, 26149, Control_c, 0, 64, 0
2, 26152, Note_on_c, 0, 39, 0
2, 26160, Note_on_c, 0, 54, 70
2, 26162, Note_on_c, 0, 65, 64
2, 26163, Note_on_c, 0, 60, 56
2, 26164, Note_on_c, 0, 44, 64
2, 26189, Control_c, 0, 64, 127
2, 26262, Note_on_c, 0, 44, 0
2, 26263, Note_on_c, 0, 65, 0
2, 26264, Note_on_c, 0, 54, 0
2, 26265, Note_on_c, 0, 60, 0
2, 26282, Note_on_c, 0, 54, 47
2, 26282, Note_on_c, 0, 44, 39
2, 26283, Note_on_c, 0, 65, 57
2, 26284, Note_on_c, 0, 60, 56
2, 26308, Note_on_c, 0, 54, 0
2, 26318, Note_on_c, 0, 60, 0
2, 26319, Note_on_c, 0, 65, 0
2, 26396, Note_on_c, 0, 44, 0
2, 26397, Note_on_c, 0, 66, 70
2, 26399, Note_on_c, 0, 63, 60
2, 26399, Note_on_c, 0, 64, 74
2, 26399, Note_on_c, 0, 49, 71
2, 26400, Note_on_c, 0, 59, 72
2, 26400, Control_c, 0, 64, 0
2, 26434, Control_c, 0, 64, 127
2, 26485, Note_on_c, 0, 49, 0
2, 26486, Note_on_c, 0, 59, 0
2, 26488, Note_on_c, 0, 64, 0
2, 26489, Note_on_c, 0, 66, 0
2, 26490, Note_on_c, 0, 63, 0
2, 26516, Control_c, 0, 64, 0
2, 26516, Note_on_c, 0, 59, 62
2, 26517, Note_on_c, 0, 63, 53
2, 26517, Note_on_c, 0, 66, 53
2, 26519, Note_on_c, 0, 49, 51
2, 26519, Note_on_c, 0, 64, 61
2, 26534, Control_c, 0, 64, 127
2, 26558, Note_on_c, 0, 59, 0
2, 26604, Note_on_c, 0, 64, 0
2, 26609, Note_on_c, 0, 63, 0
2, 26611, Note_on_c, 0, 66, 0
2, 26635, Control_c, 0, 64, 0
2, 26637, Note_on_c, 0, 49, 0
2, 26638, Note_on_c, 0, 58, 51
2, 26639, Note_on_c, 0, 66, 44
2, 26641, Note_on_c, 0, 63, 36
2, 26643, Note_on_c, 0, 64, 50
2, 26647, Note_on_c, 0, 42, 31
2, 26665, Control_c, 0, 64, 127
2, 26688, Note_on_c, 0, 42, 0
2, 26703, Note_on_c, 0, 58, 0
2, 26759, Note_on_c, 0, 59, 53
2, 26760, Note_on_c, 0, 54, 31
2, 26760, Note_on_c, 0, 44, 29
2, 26763, Control_c, 0, 64, 0
2, 26771, Note_on_c, 0, 64, 0
2, 26781, Control_c, 0, 64, 127
2, 26791, Note_on_c, 0, 63, 0
2, 26803, Note_on_c, 0, 66, 0
2, 26808, Note_on_c, 0, 54, 0
2, 26814, Note_on_c, 0, 44, 0
2, 26858, Note_on_c, 0, 59, 0
2, 26871, Control_c, 0, 64, 0
2, 26873, Note_on_c, 0, 53, 46
2, 26875, Note_on_c, 0, 58, 51
2, 26879, Note_on_c, 0, 43, 32
2, 26889, Note_on_c, 0, 53, 0
2, 26891, Control_c, 0, 64, 127
2, 26895, Note_on_c, 0, 43, 0
2, 26994, Control_c, 0, 64, 0
2, 26996, Note_on_c, 0, 52, 50
2, 26997, Note_on_c, 0, 36, 34
2, 27024, Control_c, 0, 64, 127
2, 27052, Note_on_c, 0, 58, 0
2, 27057, Note_on_c, 0, 52, 0
2, 27102, Note_on_c, 0, 36, 0
2, 27120, Control_c, 0, 64, 0
2, 27122, Note_on_c, 0, 41, 32
2, 27123, Note_on_c, 0, 57, 57
2, 27148, Control_c, 0, 64, 127
2, 27153, Note_on_c, 0, 41, 0
2, 27231, Note_on_c, 0, 57, 0
2, 27238, Control_c, 0, 64, 0
2, 27240, Note_on_c, 0, 51, 46
2, 27242, Note_on_c, 0, 35, 45
2, 27262, Control_c, 0, 64, 127
2, 27263, Note_on_c, 0, 35, 0
2, 27324, Note_on_c, 0, 51, 0
2, 27355, Control_c, 0, 64, 0
2, 27359, Note_on_c, 0, 41, 52
2, 27360, Note_on_c, 0, 51, 63
2, 27361, Note_on_c, 0, 56, 61
2, 27368, Note_on_c, 0, 41, 0
2, 27379, Control_c, 0, 64, 127
2, 27383, Note_on_c, 0, 51, 0
2, 27393, Note_on_c, 0, 56, 0
2, 27481, Note_on_c, 0, 62, 71
2, 27483, Note_on_c, 0, 56, 44
2, 27483, Note_on_c, 0, 46, 40
2, 27485, Control_c, 0, 64, 0
2, 27505, Note_on_c, 0, 56, 0
2, 27511, Control_c, 0, 64, 127
2, 27513, Note_on_c, 0, 46, 0
2, 27523, Note_on_c, 0, 62, 0
2, 27593, Control_c, 0, 64, 0
2, 27596, Note_on_c, 0, 62, 69
2, 27597, Note_on_c, 0, 69, 74
2, 27598, Note_on_c, 0, 40, 56
2, 27600, Note_on_c, 0, 55, 62
2, 27600, Note_on_c, 0, 57, 52
2, 27601, Note_on_c, 0, 65, 58
2, 27603, Note_on_c, 0, 50, 40
2, 27623, Control_c, 0, 64, 127
2, 27624, Note_on_c, 0, 40, 0
2, 27632, Note_on_c, 0, 55, 0
2, 27635, Note_on_c, 0, 50, 0
2, 27643, Note_on_c, 0, 57, 0
2, 27653, Note_on_c, 0, 69, 0
2, 27654, Note_on_c, 0, 65, 0
2, 27656, Note_on_c, 0, 62, 0
2, 27716, Control_c, 0, 64, 0
2, 27718, Note_on_c, 0, 70, 70
2, 27718, Note_on_c, 0, 45, 53
2, 27719, Note_on_c, 0, 66, 64
2, 27719, Note_on_c, 0, 61, 77
2, 27721, Note_on_c, 0, 55, 53
2, 27731, Note_on_c, 0, 55, 0
2, 27737, Note_on_c, 0, 45, 0
2, 27750, Control_c, 0, 64, 127
2, 27791, Note_on_c, 0, 61, 0
2, 27809, Note_on_c, 0, 66, 0
2, 27813, Note_on_c, 0, 70, 0
2, 27836, Control_c, 0, 64, 0
2, 27837, Note_on_c, 0, 39, 42
2, 27839, Note_on_c, 0, 68, 59
2, 27839, Note_on_c, 0, 54, 36
2, 27840, Note_on_c, 0, 61, 61
2, 27842, Note_on_c, 0, 65, 57
2, 27864, Control_c, 0, 64, 127
2, 27872, Note_on_c, 0, 39, 0
2, 27899, Note_on_c, 0, 68, 0
2, 27903, Note_on_c, 0, 61, 0
2, 27909, Note_on_c, 0, 65, 0
2, 27913, Note_on_c, 0, 54, 0
2, 27958, Note_on_c, 0, 72, 55
2, 27959, Note_on_c, 0, 54, 25
2, 27961, Note_on_c, 0, 61, 56
2, 27962, Note_on_c, 0, 68, 40
2, 27962, Note_on_c, 0, 65, 57
2, 27999, Note_on_c, 0, 65, 0
2, 28000, Note_on_c, 0, 61, 0
2, 28008, Note_on_c, 0, 72, 0
2, 28010, Note_on_c, 0, 68, 0
2, 28039, Note_on_c, 0, 54, 0
2, 28075, Control_c, 0, 64, 0
2, 28078, Note_on_c, 0, 68, 47
2, 28078, Note_on_c, 0, 75, 52
2, 28080, Note_on_c, 0, 54, 39
2, 28082, Note_on_c, 0, 64, 44
2, 28084, Note_on_c, 0, 72, 32
2, 28086, Note_on_c, 0, 44, 27
2, 28105, Control_c, 0, 64, 127
2, 28109, Note_on_c, 0, 44, 0
2, 28120, Note_on_c, 0, 64, 0
2, 28121, Note_on_c, 0, 54, 0
2, 28133, Note_on_c, 0, 72, 0
2, 28133, Note_on_c, 0, 68, 0
2, 28143, Note_on_c, 0, 75, 0
2, 28198, Note_on_c, 0, 79, 54
2, 28200, Note_on_c, 0, 60, 53
2, 28200, Note_on_c, 0, 65, 39
2, 28201, Note_on_c, 0, 75, 40
2, 28201, Note_on_c, 0, 72, 50
2, 28218, Note_on_c, 0, 60, 0
2, 28229, Note_on_c, 0, 65, 0
2, 28239, Note_on_c, 0, 72, 0
2, 28241, Note_on_c, 0, 79, 0
2, 28256, Note_on_c, 0, 75, 0
2, 28315, Note_on_c, 0, 78, 59
2, 28316, Note_on_c, 0, 73, 44
2, 28318, Note_on_c, 0, 75, 45
2, 28318, Note_on_c, 0, 68, 57
2, 28319, Note_on_c, 0, 69, 52
2, 28327, Note_on_c, 0, 69, 0
2, 28327, Control_c, 0, 64, 0
2, 28334, Note_on_c, 0, 73, 0
2, 28335, Note_on_c, 0, 75, 0
2, 28338, Note_on_c, 0, 78, 0
2, 28375, Note_on_c, 0, 68, 0
2, 28378, Note_on_c, 0, 66, 72
2, 28379, Note_on_c, 0, 78, 61
2, 28380, Note_on_c, 0, 73, 40
2, 28381, Note_on_c, 0, 69, 57
2, 28382, Note_on_c, 0, 75, 44
2, 28390, Note_on_c, 0, 69, 0
2, 28395, Note_on_c, 0, 75, 0
2, 28397, Note_on_c, 0, 73, 0
2, 28398, Note_on_c, 0, 78, 0
2, 28437, Note_on_c, 0, 66, 0
2, 28438, Note_on_c, 0, 65, 58
2, 28440, Note_on_c, 0, 78, 62
2, 28442, Note_on_c, 0, 73, 43
2, 28444, Note_on_c, 0, 69, 59
2, 28444, Note_on_c, 0, 75, 45
2, 28456, Control_c, 0, 64, 127
2, 28472, Note_on_c, 0, 78, 0
2, 28475, Note_on_c, 0, 75, 0
2, 28475, Note_on_c, 0, 73, 0
2, 28482, Note_on_c, 0, 69, 0
2, 28496, Note_on_c, 0, 65, 0
2, 28503, Note_on_c, 0, 63, 50
2, 28557, Note_on_c, 0, 63, 0
2, 28558, Control_c, 0, 64, 0
2, 28563, Note_on_c, 0, 62, 54
2, 28563, Note_on_c, 0, 74, 57
2, 28564, Note_on_c, 0, 71, 51
2, 28565, Note_on_c, 0, 67, 37
2, 28582, Control_c, 0, 64, 127
2, 28593, Note_on_c, 0, 74, 0
2, 28594, Note_on_c, 0, 71, 0
2, 28611, Note_on_c, 0, 67, 0
2, 28618, Note_on_c, 0, 62, 0
2, 28630, Note_on_c, 0, 58, 46
2, 28651, Note_on_c, 0, 58, 0
2, 28686, Control_c, 0, 64, 0
2, 28689, Note_on_c, 0, 67, 53
2, 28691, Note_on_c, 0, 62, 43
2, 28708, Control_c, 0, 64, 127
2, 28746, Note_on_c, 0, 71, 48
2, 28751, Note_on_c, 0, 62, 0
2, 28752, Note_on_c, 0, 55, 1
2, 28763, Note_on_c, 0, 67, 0
2, 28772, Note_on_c, 0, 71, 0
2, 28801, Note_on_c, 0, 55, 0
2, 28807, Note_on_c, 0, 70, 48
2, 28808, Note_on_c, 0, 61, 43
2, 28809, Control_c, 0, 64, 0
2, 28810, Note_on_c, 0, 51, 45
2, 28835, Control_c, 0, 64, 127
2, 28877, Note_on_c, 0, 61, 0
2, 28922, Note_on_c, 0, 61, 51
2, 28923, Note_on_c, 0, 58, 35
2, 28923, Note_on_c, 0, 67, 50
2, 28951, Note_on_c, 0, 58, 0
2, 28955, Note_on_c, 0, 51, 0
2, 28964, Note_on_c, 0, 67, 0
2, 28973, Note_on_c, 0, 61, 0
2, 29040, Note_on_c, 0, 66, 47
2, 29043, Control_c, 0, 64, 0
2, 29044, Note_on_c, 0, 60, 48
2, 29047, Note_on_c, 0, 50, 43
2, 29077, Control_c, 0, 64, 127
2, 29117, Note_on_c, 0, 60, 0
2, 29142, Note_on_c, 0, 66, 0
2, 29160, Note_on_c, 0, 66, 55
2, 29162, Note_on_c, 0, 57, 34
2, 29164, Note_on_c, 0, 60, 45
2, 29190, Note_on_c, 0, 57, 0
2, 29200, Note_on_c, 0, 50, 0
2, 29245, Note_on_c, 0, 60, 0
2, 29251, Note_on_c, 0, 66, 0
2, 29262, Note_on_c, 0, 70, 0
2, 29276, Control_c, 0, 64, 0
2, 29279, Note_on_c, 0, 65, 50
2, 29283, Note_on_c, 0, 49, 26
2, 29284, Note_on_c, 0, 56, 30
2, 29285, Note_on_c, 0, 60, 32
2, 29300, Control_c, 0, 64, 127
2, 29318, Note_on_c, 0, 60, 0
2, 29336, Note_on_c, 0, 65, 0
2, 29337, Note_on_c, 0, 56, 0
2, 29382, Note_on_c, 0, 49, 0
2, 29393, Note_on_c, 0, 65, 74
2, 29394, Note_on_c, 0, 68, 59
2, 29394, Note_on_c, 0, 72, 70
2, 29396, Note_on_c, 0, 60, 73
2, 29404, Control_c, 0, 64, 0
2, 29426, Control_c, 0, 64, 127
2, 29461, Note_on_c, 0, 60, 0
2, 29466, Note_on_c, 0, 72, 0
2, 29486, Note_on_c, 0, 65, 0
2, 29497, Note_on_c, 0, 68, 0
2, 29519, Note_on_c, 0, 70, 57
2, 29520, Note_on_c, 0, 65, 55
2, 29521, Control_c, 0, 64, 0
2, 29522, Note_on_c, 0, 61, 37
2, 29522, Note_on_c, 0, 51, 34
2, 29524, Note_on_c, 0, 58, 34
2, 29549, Control_c, 0, 64, 127
2, 29568, Note_on_c, 0, 58, 0
2, 29587, Note_on_c, 0, 65, 0
2, 29599, Note_on_c, 0, 61, 0
2, 29635, Note_on_c, 0, 58, 35
2, 29640, Note_on_c, 0, 61, 32
2, 29640, Note_on_c, 0, 65, 50
2, 29642, Note_on_c, 0, 58, 0
2, 29652, Note_on_c, 0, 51, 0
2, 29671, Note_on_c, 0, 65, 0
2, 29672, Note_on_c, 0, 70, 0
2, 29681, Note_on_c, 0, 61, 0
2, 29720, Note_on_c, 0, 46, 37
2, 29751, Note_on_c, 0, 46, 0
2, 29766, Note_on_c, 0, 39, 38
2, 29767, Control_c, 0, 64, 0
2, 29844, Note_on_c, 0, 54, 47
2, 29844, Note_on_c, 0, 65, 48
2, 29845, Note_on_c, 0, 58, 56
2, 29847, Note_on_c, 0, 61, 44
2, 29849, Note_on_c, 0, 51, 36
2, 29888, Control_c, 0, 64, 127
2, 29928, Note_on_c, 0, 39, 0
2, 29963, Note_on_c, 0, 65, 0
2, 29963, Note_on_c, 0, 39, 56
2, 29970, Note_on_c, 0, 51, 0
2, 29971, Note_on_c, 0, 61, 0
2, 29977, Note_on_c, 0, 54, 0
2, 29983, Note_on_c, 0, 58, 0
2, 29995, Note_on_c, 0, 39, 0
2, 30004, Control_c, 0, 64, 0
2, 30011, Note_on_c, 0, 44, 51
2, 30058, Control_c, 0, 64, 127
2, 30081, Note_on_c, 0, 54, 43
2, 30082, Control_c, 0, 64, 0
2, 30083, Note_on_c, 0, 57, 55
2, 30084, Note_on_c, 0, 62, 54
2, 30119, Note_on_c, 0, 44, 0
2, 30120, Control_c, 0, 64, 127
2, 30186, Note_on_c, 0, 62, 0
2, 30188, Note_on_c, 0, 44, 49
2, 30190, Note_on_c, 0, 57, 0
2, 30204, Note_on_c, 0, 54, 0
2, 30227, Control_c, 0, 64, 0
2, 30228, Note_on_c, 0, 44, 0
2, 30238, Note_on_c, 0, 37, 40
2, 30315, Note_on_c, 0, 63, 42
2, 30316, Note_on_c, 0, 56, 37
2, 30316, Note_on_c, 0, 53, 50
2, 30318, Note_on_c, 0, 60, 49
2, 30365, Control_c, 0, 64, 127
2, 30461, Note_on_c, 0, 37, 0
2, 30477, Control_c, 0, 64, 0
2, 30483, Note_on_c, 0, 53, 0
2, 30484, Note_on_c, 0, 44, 44
2, 30491, Note_on_c, 0, 60, 0
2, 30493, Note_on_c, 0, 56, 0
2, 30496, Note_on_c, 0, 63, 0
2, 30554, Note_on_c, 0, 44, 0
2, 30564, Note_on_c, 0, 44, 69
2, 30623, Note_on_c, 0, 44, 0
2, 30723, Note_on_c, 0, 62, 36
2, 30724, Note_on_c, 0, 84, 75
2, 30729, Note_on_c, 0, 57, 24
2, 30730, Note_on_c, 0, 58, 26
2, 30737, Note_on_c, 0, 62, 0
2, 30738, Note_on_c, 0, 57, 0
2, 30740, Note_on_c, 0, 84, 0
2, 30740, Note_on_c, 0, 58, 0
2, 30802, Note_on_c, 0, 79, 53
2, 30821, Note_on_c, 0, 79, 0
2, 30843, Note_on_c, 0, 62, 38
2, 30844, Note_on_c, 0, 76, 33
2, 30847, Note_on_c, 0, 58, 25
2, 30854, Note_on_c, 0, 76, 0
2, 30854, Note_on_c, 0, 62, 0
2, 30855, Note_on_c, 0, 58, 0
2, 30915, Note_on_c, 0, 72, 49
2, 30938, Note_on_c, 0, 72, 0
2, 30958, Note_on_c, 0, 54, 26
2, 30960, Note_on_c, 0, 71, 55
2, 30962, Note_on_c, 0, 64, 22
2, 30962, Note_on_c, 0, 57, 35
2, 30969, Note_on_c, 0, 64, 0
2, 30971, Note_on_c, 0, 57, 0
2, 30975, Note_on_c, 0, 54, 0
2, 30980, Note_on_c, 0, 71, 0
2, 31033, Note_on_c, 0, 83, 91
2, 31058, Note_on_c, 0, 83, 0
2, 31071, Note_on_c, 0, 66, 58
2, 31075, Note_on_c, 0, 61, 37
2, 31076, Note_on_c, 0, 78, 57
2, 31077, Note_on_c, 0, 66, 0
2, 31081, Note_on_c, 0, 61, 0
2, 31117, Note_on_c, 0, 78, 0
2, 31157, Note_on_c, 0, 69, 29
2, 31157, Note_on_c, 0, 71, 31
2, 31163, Note_on_c, 0, 69, 0
2, 31166, Note_on_c, 0, 71, 0
2, 31193, Note_on_c, 0, 75, 91
2, 31194, Note_on_c, 0, 82, 83
2, 31194, Note_on_c, 0, 67, 76
2, 31212, Note_on_c, 0, 67, 0
2, 31216, Note_on_c, 0, 75, 0
2, 31217, Note_on_c, 0, 82, 0
2, 31270, Note_on_c, 0, 77, 71
2, 31272, Note_on_c, 0, 72, 76
2, 31272, Note_on_c, 0, 65, 58
2, 31277, Note_on_c, 0, 75, 29
2, 31283, Note_on_c, 0, 75, 0
2, 31294, Note_on_c, 0, 72, 0
2, 31295, Note_on_c, 0, 77, 0
2, 31303, Note_on_c, 0, 65, 0
2, 31315, Note_on_c, 0, 74, 59
2, 31316, Note_on_c, 0, 62, 47
2, 31334, Note_on_c, 0, 74, 0
2, 31341, Note_on_c, 0, 62, 0
2, 31356, Note_on_c, 0, 70, 43
2, 31363, Note_on_c, 0, 58, 23
2, 31370, Note_on_c, 0, 58, 0
2, 31374, Note_on_c, 0, 70, 0
2, 31439, Note_on_c, 0, 62, 40
2, 31440, Note_on_c, 0, 52, 37
2, 31441, Note_on_c, 0, 69, 55
2, 31449, Note_on_c, 0, 52, 0
2, 31452, Note_on_c, 0, 62, 0
2, 31453, Note_on_c, 0, 69, 0
2, 31509, Note_on_c, 0, 81, 79
2, 31510, Note_on_c, 0, 70, 77
2, 31511, Note_on_c, 0, 74, 70
2, 31512, Note_on_c, 0, 69, 81
2, 31512, Note_on_c, 0, 76, 63
2, 31516, Note_on_c, 0, 74, 0
2, 31524, Note_on_c, 0, 69, 0
2, 31528, Note_on_c, 0, 70, 0
2, 31532, Note_on_c, 0, 81, 0
2, 31532, Note_on_c, 0, 76, 0
2, 31563, Note_on_c, 0, 81, 78
2, 31563, Note_on_c, 0, 69, 81
2, 31564, Note_on_c, 0, 73, 55
2, 31564, Note_on_c, 0, 70, 62
2, 31566, Note_on_c, 0, 76, 49
2, 31575, Note_on_c, 0, 76, 0
2, 31585, Note_on_c, 0, 81, 0
2, 31585, Note_on_c, 0, 70, 0
2, 31588, Note_on_c, 0, 73, 0
2, 31593, Note_on_c, 0, 69, 0
2, 31596, Note_on_c, 0, 79, 50
2, 31596, Note_on_c, 0, 70, 39
2, 31597, Note_on_c, 0, 73, 26
2, 31599, Note_on_c, 0, 67, 47
2, 31600, Note_on_c, 0, 76, 44
2, 31615, Note_on_c, 0, 67, 0
2, 31616, Note_on_c, 0, 70, 0
2, 31616, Note_on_c, 0, 79, 0
2, 31617, Note_on_c, 0, 76, 0
2, 31627, Note_on_c, 0, 73, 0
2, 31736, Note_on_c, 0, 68, 56
2, 31736, Note_on_c, 0, 61, 60
2, 31738, Note_on_c, 0, 56, 48
2, 31739, Note_on_c, 0, 65, 54
2, 31745, Note_on_c, 0, 65, 0
2, 31747, Note_on_c, 0, 61, 0
2, 31749, Note_on_c, 0, 56, 0
2, 31751, Note_on_c, 0, 68, 0
2, 31770, Note_on_c, 0, 68, 60
2, 31771, Note_on_c, 0, 61, 57
2, 31773, Note_on_c, 0, 56, 43
2, 31774, Note_on_c, 0, 65, 42
2, 31781, Note_on_c, 0, 65, 0
2, 31784, Note_on_c, 0, 61, 0
2, 31788, Note_on_c, 0, 68, 0
2, 31798, Note_on_c, 0, 56, 0
2, 31799, Note_on_c, 0, 70, 74
2, 31800, Note_on_c, 0, 61, 65
2, 31803, Note_on_c, 0, 65, 66
2, 31803, Note_on_c, 0, 58, 64
2, 31808, Note_on_c, 0, 65, 0
2, 31812, Note_on_c, 0, 61, 0
2, 31815, Note_on_c, 0, 58, 0
2, 31816, Note_on_c, 0, 70, 0
2, 31829, Note_on_c, 0, 70, 57
2, 31832, Note_on_c, 0, 58, 48
2, 31832, Note_on_c, 0, 61, 64
2, 31835, Note_on_c, 0, 65, 53
2, 31843, Note_on_c, 0, 65, 0
2, 31846, Note_on_c, 0, 61, 0
2, 31846, Note_on_c, 0, 70, 0
2, 31847, Note_on_c, 0, 58, 0
2, 31860, Note_on_c, 0, 61, 31
2, 31861, Note_on_c, 0, 56, 32
2, 31861, Note_on_c, 0, 68, 45
2, 31874, Note_on_c, 0, 61, 0
2, 31876, Note_on_c, 0, 68, 0
2, 31884, Note_on_c, 0, 56, 0
2, 31892, Note_on_c, 0, 61, 51
2, 31892, Note_on_c, 0, 68, 55
2, 31895, Note_on_c, 0, 58, 42
2, 31900, Note_on_c, 0, 56, 18
2, 31906, Note_on_c, 0, 58, 0
2, 31909, Note_on_c, 0, 56, 0
2, 31913, Note_on_c, 0, 61, 0
2, 31915, Note_on_c, 0, 68, 0
2, 31923, Note_on_c, 0, 69, 58
2, 31924, Note_on_c, 0, 60, 60
2, 31925, Note_on_c, 0, 54, 35
2, 31925, Note_on_c, 0, 66, 44
2, 31926, Note_on_c, 0, 57, 42
2, 31937, Note_on_c, 0, 57, 0
2, 31938, Note_on_c, 0, 60, 0
2, 31941, Note_on_c, 0, 66, 0
2, 31943, Note_on_c, 0, 69, 0
2, 31949, Note_on_c, 0, 54, 0
2, 31972, Note_on_c, 0, 69, 56
2, 31972, Note_on_c, 0, 54, 39
2, 31972, Note_on_c, 0, 66, 37
2, 31973, Note_on_c, 0, 60, 43
2, 31976, Note_on_c, 0, 57, 20
2, 31989, Note_on_c, 0, 57, 0
2, 31996, Note_on_c, 0, 60, 0
2, 31999, Note_on_c, 0, 66, 0
2, 32001, Note_on_c, 0, 69, 0
2, 32004, Note_on_c, 0, 54, 0
2, 32030, Note_on_c, 0, 69, 61
2, 32030, Note_on_c, 0, 57, 44
2, 32030, Note_on_c, 0, 54, 44
2, 32030, Note_on_c, 0, 66, 47
2, 32031, Note_on_c, 0, 60, 50
2, 32064, Note_on_c, 0, 60, 0
2, 32064, Note_on_c, 0, 57, 0
2, 32069, Note_on_c, 0, 69, 0
2, 32070, Note_on_c, 0, 54, 0
2, 32075, Note_on_c, 0, 66, 0
2, 32162, Note_on_c, 0, 54, 48
2, 32162, Note_on_c, 0, 65, 59
2, 32163, Note_on_c, 0, 47, 43
2, 32163, Note_on_c, 0, 61, 56
2, 32163, Note_on_c, 0, 63, 40
2, 32165, Note_on_c, 0, 57, 51
2, 32166, Note_on_c, 0, 59, 51
2, 32171, Note_on_c, 0, 59, 0
2, 32173, Note_on_c, 0, 47, 0
2, 32174, Note_on_c, 0, 57, 0
2, 32176, Note_on_c, 0, 54, 0
2, 32178, Note_on_c, 0, 61, 0
2, 32180, Note_on_c, 0, 65, 0
2, 32181, Note_on_c, 0, 63, 0
2, 32202, Note_on_c, 0, 61, 56
2, 32202, Note_on_c, 0, 57, 58
2, 32203, Note_on_c, 0, 65, 60
2, 32203, Note_on_c, 0, 63, 39
2, 32215, Note_on_c, 0, 61, 0
2, 32216, Note_on_c, 0, 57, 0
2, 32216, Note_on_c, 0, 63, 0
2, 32218, Note_on_c, 0, 65, 0
2, 32229, Note_on_c, 0, 57, 29
2, 32230, Note_on_c, 0, 61, 40
2, 32230, Note_on_c, 0, 65, 36
2, 32231, Note_on_c, 0, 63, 30
2, 32252, Note_on_c, 0, 61, 0
2, 32253, Note_on_c, 0, 63, 0
2, 32254, Note_on_c, 0, 57, 0
2, 32257, Note_on_c, 0, 65, 0
2, 32286, Note_on_c, 0, 65, 53
2, 32286, Note_on_c, 0, 61, 49
2, 32288, Note_on_c, 0, 57, 40
2, 32289, Note_on_c, 0, 54, 31
2, 32290, Note_on_c, 0, 63, 35
2, 32291, Note_on_c, 0, 47, 32
2, 32300, Note_on_c, 0, 47, 0
2, 32304, Note_on_c, 0, 57, 0
2, 32305, Note_on_c, 0, 63, 0
2, 32305, Note_on_c, 0, 61, 0
2, 32306, Note_on_c, 0, 54, 0
2, 32308, Note_on_c, 0, 65, 0
2, 32346, Note_on_c, 0, 61, 59
2, 32348, Note_on_c, 0, 65, 54
2, 32348, Note_on_c, 0, 57, 40
2, 32348, Note_on_c, 0, 63, 33
2, 32356, Note_on_c, 0, 57, 0
2, 32357, Note_on_c, 0, 65, 0
2, 32360, Note_on_c, 0, 61, 0
2, 32360, Note_on_c, 0, 63, 0
2, 32379, Note_on_c, 0, 61, 49
2, 32382, Note_on_c, 0, 65, 46
2, 32396, Note_on_c, 0, 65, 0
2, 32398, Note_on_c, 0, 61, 0
2, 32404, Note_on_c, 0, 56, 52
2, 32406, Note_on_c, 0, 62, 55
2, 32407, Note_on_c, 0, 46, 39
2, 32408, Note_on_c, 0, 60, 48
2, 32408, Note_on_c, 0, 64, 55
2, 32418, Note_on_c, 0, 60, 0
2, 32422, Note_on_c, 0, 56, 0
2, 32423, Note_on_c, 0, 62, 0
2, 32424, Note_on_c, 0, 46, 0
2, 32427, Note_on_c, 0, 64, 0
2, 32465, Note_on_c, 0, 56, 52
2, 32465, Note_on_c, 0, 64, 58
2, 32466, Note_on_c, 0, 62, 64
2, 32466, Note_on_c, 0, 60, 60
2, 32470, Note_on_c, 0, 46, 30
2, 32478, Note_on_c, 0, 46, 0
2, 32485, Note_on_c, 0, 62, 0
2, 32486, Note_on_c, 0, 60, 0
2, 32489, Note_on_c, 0, 64, 0
2, 32490, Note_on_c, 0, 56, 0
2, 32524, Note_on_c, 0, 56, 53
2, 32525, Note_on_c, 0, 64, 66
2, 32525, Note_on_c, 0, 62, 66
2, 32526, Note_on_c, 0, 60, 63
2, 32539, Note_on_c, 0, 60, 0
2, 32542, Note_on_c, 0, 62, 0
2, 32546, Note_on_c, 0, 64, 0
2, 32562, Note_on_c, 0, 64, 53
2, 32562, Note_on_c, 0, 62, 64
2, 32563, Note_on_c, 0, 60, 56
2, 32565, Note_on_c, 0, 46, 50
2, 32594, Note_on_c, 0, 62, 0
2, 32596, Note_on_c, 0, 56, 0
2, 32596, Note_on_c, 0, 64, 0
2, 32599, Note_on_c, 0, 60, 0
2, 32600, Note_on_c, 0, 46, 0
2, 32643, Note_on_c, 0, 58, 77
2, 32644, Note_on_c, 0, 53, 58
2, 32645, Note_on_c, 0, 65, 66
2, 32646, Note_on_c, 0, 61, 40
2, 32683, Note_on_c, 0, 61, 0
2, 32711, Note_on_c, 0, 58, 0
2, 32712, Note_on_c, 0, 65, 0
2, 32714, Note_on_c, 0, 53, 0
2, 32717, Note_on_c, 0, 61, 71
2, 32720, Note_on_c, 0, 58, 31
2, 32720, Note_on_c, 0, 51, 55
2, 32745, Note_on_c, 0, 58, 0
2, 32765, Note_on_c, 0, 58, 68
2, 32774, Note_on_c, 0, 51, 0
2, 32841, Note_on_c, 0, 55, 70
2, 32847, Note_on_c, 0, 61, 0
2, 32848, Note_on_c, 0, 58, 0
2, 32886, Note_on_c, 0, 54, 63
2, 32892, Note_on_c, 0, 55, 0
2, 33005, Control_c, 0, 64, 127
2, 33038, Note_on_c, 0, 54, 0
2, 33124, Note_on_c, 0, 60, 69
2, 33127, Control_c, 0, 64, 0
2, 33143, Note_on_c, 0, 60, 0
2, 33155, Note_on_c, 0, 65, 64
2, 33175, Control_c, 0, 64, 127
2, 33177, Note_on_c, 0, 65, 0
2, 33180, Control_c, 0, 64, 0
2, 33185, Note_on_c, 0, 68, 65
2, 33199, Note_on_c, 0, 68, 0
2, 33213, Note_on_c, 0, 72, 76
2, 33232, Note_on_c, 0, 72, 0
2, 33241, Note_on_c, 0, 77, 72
2, 33242, Note_on_c, 0, 63, 47
2, 33246, Note_on_c, 0, 53, 32
2, 33246, Note_on_c, 0, 58, 38
2, 33256, Note_on_c, 0, 53, 0
2, 33260, Note_on_c, 0, 63, 0
2, 33264, Note_on_c, 0, 77, 0
2, 33267, Note_on_c, 0, 58, 0
2, 33272, Note_on_c, 0, 80, 71
2, 33290, Note_on_c, 0, 80, 0
2, 33300, Note_on_c, 0, 81, 58
2, 33322, Note_on_c, 0, 81, 0
2, 33330, Note_on_c, 0, 82, 72
2, 33354, Note_on_c, 0, 82, 0
2, 33360, Note_on_c, 0, 83, 55
2, 33360, Note_on_c, 0, 61, 39
2, 33361, Note_on_c, 0, 65, 43
2, 33361, Note_on_c, 0, 55, 50
2, 33383, Note_on_c, 0, 83, 0
2, 33394, Note_on_c, 0, 72, 58
2, 33394, Note_on_c, 0, 84, 72
2, 33408, Note_on_c, 0, 84, 0
2, 33408, Note_on_c, 0, 72, 0
2, 33425, Note_on_c, 0, 84, 65
2, 33426, Note_on_c, 0, 72, 52
2, 33439, Note_on_c, 0, 84, 0
2, 33441, Note_on_c, 0, 72, 0
2, 33447, Note_on_c, 0, 55, 0
2, 33454, Note_on_c, 0, 65, 0
2, 33454, Note_on_c, 0, 61, 0
2, 33457, Note_on_c, 0, 84, 72
2, 33458, Note_on_c, 0, 72, 51
2, 33472, Note_on_c, 0, 84, 0
2, 33473, Note_on_c, 0, 72, 0
2, 33485, Note_on_c, 0, 71, 77
2, 33486, Note_on_c, 0, 83, 75
2, 33486, Note_on_c, 0, 65, 67
2, 33487, Note_on_c, 0, 61, 55
2, 33487, Note_on_c, 0, 55, 65
2, 33500, Note_on_c, 0, 65, 0
2, 33503, Note_on_c, 0, 55, 0
2, 33506, Note_on_c, 0, 71, 0
2, 33507, Note_on_c, 0, 83, 0
2, 33513, Note_on_c, 0, 61, 0
2, 33520, Note_on_c, 0, 72, 68
2, 33520, Note_on_c, 0, 84, 80
2, 33533, Note_on_c, 0, 72, 0
2, 33534, Note_on_c, 0, 84, 0
2, 33547, Note_on_c, 0, 84, 65
2, 33548, Note_on_c, 0, 72, 39
2, 33560, Note_on_c, 0, 84, 0
2, 33565, Note_on_c, 0, 72, 0
2, 33576, Note_on_c, 0, 72, 62
2, 33578, Note_on_c, 0, 84, 71
2, 33589, Note_on_c, 0, 84, 0
2, 33593, Note_on_c, 0, 72, 0
2, 33604, Note_on_c, 0, 54, 39
2, 33606, Note_on_c, 0, 61, 53
2, 33607, Note_on_c, 0, 58, 48
2, 33607, Note_on_c, 0, 65, 49
2, 33608, Note_on_c, 0, 85, 77
2, 33609, Note_on_c, 0, 73, 55
2, 33613, Note_on_c, 0, 65, 0
2, 33618, Note_on_c, 0, 54, 0
2, 33620, Note_on_c, 0, 61, 0
2, 33625, Note_on_c, 0, 58, 0
2, 33627, Note_on_c, 0, 85, 0
2, 33628, Note_on_c, 0, 73, 0
2, 33640, Note_on_c, 0, 85, 60
2, 33642, Note_on_c, 0, 73, 34
2, 33654, Note_on_c, 0, 85, 0
2, 33655, Note_on_c, 0, 73, 0
2, 33667, Note_on_c, 0, 82, 51
2, 33668, Note_on_c, 0, 70, 54
2, 33682, Note_on_c, 0, 70, 0
2, 33685, Note_on_c, 0, 82, 0
2, 33700, Note_on_c, 0, 82, 42
2, 33700, Note_on_c, 0, 70, 57
2, 33710, Note_on_c, 0, 70, 0
2, 33711, Note_on_c, 0, 82, 0
2, 33718, Note_on_c, 0, 65, 27
2, 33721, Note_on_c, 0, 61, 30
2, 33725, Note_on_c, 0, 65, 0
2, 33727, Note_on_c, 0, 58, 21
2, 33728, Note_on_c, 0, 78, 45
2, 33729, Note_on_c, 0, 66, 57
2, 33738, Note_on_c, 0, 61, 0
2, 33743, Note_on_c, 0, 58, 0
2, 33749, Note_on_c, 0, 78, 0
2, 33749, Note_on_c, 0, 66, 0
2, 33762, Note_on_c, 0, 78, 36
2, 33764, Note_on_c, 0, 66, 48
2, 33781, Note_on_c, 0, 66, 0
2, 33783, Note_on_c, 0, 78, 0
2, 33844, Note_on_c, 0, 74, 43
2, 33844, Note_on_c, 0, 77, 49
2, 33845, Note_on_c, 0, 70, 35
2, 33846, Note_on_c, 0, 54, 34
2, 33846, Note_on_c, 0, 65, 38
2, 33851, Note_on_c, 0, 60, 26
2, 33871, Note_on_c, 0, 60, 0
2, 33872, Note_on_c, 0, 74, 0
2, 33872, Note_on_c, 0, 70, 0
2, 33873, Note_on_c, 0, 77, 0
2, 33874, Note_on_c, 0, 65, 0
2, 33876, Note_on_c, 0, 54, 0
2, 33966, Note_on_c, 0, 70, 35
2, 33966, Note_on_c, 0, 77, 44
2, 33968, Note_on_c, 0, 65, 40
2, 33968, Note_on_c, 0, 74, 46
2, 33969, Note_on_c, 0, 60, 35
2, 33971, Note_on_c, 0, 54, 25
2, 33978, Control_c, 0, 64, 127
2, 33983, Note_on_c, 0, 65, 0
2, 33985, Note_on_c, 0, 60, 0
2, 33986, Note_on_c, 0, 54, 0
2, 33992, Note_on_c, 0, 70, 0
2, 33993, Note_on_c, 0, 74, 0
2, 34001, Note_on_c, 0, 77, 0
2, 34018, Control_c, 0, 64, 0
2, 34042, Note_on_c, 0, 72, 81
2, 34051, Control_c, 0, 64, 127
2, 34058, Note_on_c, 0, 72, 0
2, 34063, Control_c, 0, 64, 0
2, 34088, Note_on_c, 0, 79, 90
2, 34107, Note_on_c, 0, 79, 0
2, 34128, Note_on_c, 0, 72, 70
2, 34147, Note_on_c, 0, 72, 0
2, 34165, Note_on_c, 0, 75, 62
2, 34179, Note_on_c, 0, 75, 0
2, 34204, Note_on_c, 0, 70, 62
2, 34205, Note_on_c, 0, 66, 42
2, 34206, Note_on_c, 0, 82, 72
2, 34211, Note_on_c, 0, 56, 25
2, 34212, Note_on_c, 0, 62, 26
2, 34247, Control_c, 0, 64, 127
2, 34272, Note_on_c, 0, 62, 0
2, 34278, Note_on_c, 0, 82, 0
2, 34280, Note_on_c, 0, 66, 0
2, 34300, Note_on_c, 0, 56, 0
2, 34305, Note_on_c, 0, 70, 0
2, 34323, Note_on_c, 0, 75, 59
2, 34324, Control_c, 0, 64, 0
2, 34326, Note_on_c, 0, 65, 55
2, 34326, Note_on_c, 0, 61, 36
2, 34331, Note_on_c, 0, 55, 40
2, 34351, Control_c, 0, 64, 127
2, 34385, Note_on_c, 0, 65, 0
2, 34387, Note_on_c, 0, 55, 0
2, 34405, Note_on_c, 0, 61, 0
2, 34417, Note_on_c, 0, 75, 0
2, 34438, Note_on_c, 0, 80, 48
2, 34438, Note_on_c, 0, 71, 54
2, 34440, Control_c, 0, 64, 0
2, 34440, Note_on_c, 0, 76, 56
2, 34441, Note_on_c, 0, 64, 40
2, 34442, Note_on_c, 0, 54, 31
2, 34444, Note_on_c, 0, 60, 45
2, 34470, Control_c, 0, 64, 127
2, 34489, Note_on_c, 0, 60, 0
2, 34490, Note_on_c, 0, 64, 0
2, 34499, Note_on_c, 0, 80, 0
2, 34504, Note_on_c, 0, 76, 0
2, 34505, Note_on_c, 0, 71, 0
2, 34508, Note_on_c, 0, 54, 0
2, 34557, Control_c, 0, 64, 0
2, 34562, Note_on_c, 0, 62, 59
2, 34565, Note_on_c, 0, 55, 51
2, 34565, Note_on_c, 0, 58, 49
2, 34565, Note_on_c, 0, 84, 91
2, 34580, Note_on_c, 0, 62, 0
2, 34585, Note_on_c, 0, 58, 0
2, 34588, Note_on_c, 0, 55, 0
2, 34594, Note_on_c, 0, 84, 0
2, 34627, Note_on_c, 0, 84, 91
2, 34655, Note_on_c, 0, 84, 0
2, 34689, Note_on_c, 0, 62, 54
2, 34690, Note_on_c, 0, 84, 88
2, 34693, Note_on_c, 0, 58, 35
2, 34697, Note_on_c, 0, 62, 0
2, 34708, Note_on_c, 0, 58, 0
2, 34714, Note_on_c, 0, 84, 0
2, 34724, Note_on_c, 0, 81, 58
2, 34746, Note_on_c, 0, 81, 0
2, 34753, Note_on_c, 0, 77, 54
2, 34782, Note_on_c, 0, 77, 0
2, 34785, Note_on_c, 0, 74, 51
2, 34811, Note_on_c, 0, 61, 23
2, 34811, Note_on_c, 0, 64, 19
2, 34812, Note_on_c, 0, 54, 20
2, 34813, Note_on_c, 0, 74, 0
2, 34813, Note_on_c, 0, 57, 33
2, 34814, Note_on_c, 0, 73, 37
2, 34845, Note_on_c, 0, 57, 0
2, 34848, Note_on_c, 0, 61, 0
2, 34850, Note_on_c, 0, 54, 0
2, 34850, Note_on_c, 0, 64, 0
2, 34851, Note_on_c, 0, 81, 69
2, 34854, Note_on_c, 0, 73, 0
2, 34883, Note_on_c, 0, 81, 0
2, 34885, Note_on_c, 0, 73, 46
2, 34920, Note_on_c, 0, 73, 0
2, 34922, Note_on_c, 0, 69, 52
2, 34924, Note_on_c, 0, 66, 55
2, 34933, Note_on_c, 0, 66, 0
2, 34933, Note_on_c, 0, 61, 23
2, 34943, Note_on_c, 0, 61, 0
2, 34993, Note_on_c, 0, 69, 0
2, 35047, Note_on_c, 0, 67, 49
2, 35049, Note_on_c, 0, 56, 25
2, 35050, Note_on_c, 0, 63, 32
2, 35053, Note_on_c, 0, 68, 35
2, 35054, Note_on_c, 0, 60, 36
2, 35056, Note_on_c, 0, 67, 0
2, 35063, Note_on_c, 0, 60, 0
2, 35066, Note_on_c, 0, 56, 0
2, 35068, Note_on_c, 0, 63, 0
2, 35070, Note_on_c, 0, 68, 0
2, 35121, Note_on_c, 0, 82, 80
2, 35146, Note_on_c, 0, 82, 0
2, 35169, Note_on_c, 0, 77, 58
2, 35170, Note_on_c, 0, 56, 29
2, 35181, Note_on_c, 0, 56, 0
2, 35192, Note_on_c, 0, 77, 0
2, 35232, Note_on_c, 0, 74, 64
2, 35248, Note_on_c, 0, 74, 0
2, 35290, Note_on_c, 0, 71, 63
2, 35292, Note_on_c, 0, 66, 48
2, 35296, Note_on_c, 0, 62, 36
2, 35301, Note_on_c, 0, 66, 0
2, 35303, Note_on_c, 0, 62, 0
2, 35307, Note_on_c, 0, 71, 0
2, 35343, Note_on_c, 0, 70, 55
2, 35359, Note_on_c, 0, 70, 0
2, 35386, Note_on_c, 0, 81, 64
2, 35410, Note_on_c, 0, 81, 0
2, 35460, Note_on_c, 0, 79, 57
2, 35461, Note_on_c, 0, 73, 45
2, 35467, Note_on_c, 0, 55, 40
2, 35468, Note_on_c, 0, 61, 30
2, 35474, Note_on_c, 0, 73, 0
2, 35475, Note_on_c, 0, 79, 0
2, 35478, Note_on_c, 0, 55, 0
2, 35488, Note_on_c, 0, 61, 0
2, 35522, Note_on_c, 0, 73, 37
2, 35522, Note_on_c, 0, 80, 44
2, 35525, Note_on_c, 0, 77, 40
2, 35526, Note_on_c, 0, 61, 35
2, 35527, Note_on_c, 0, 65, 33
2, 35531, Note_on_c, 0, 73, 0
2, 35533, Note_on_c, 0, 65, 0
2, 35534, Note_on_c, 0, 61, 0
2, 35536, Note_on_c, 0, 77, 0
2, 35537, Note_on_c, 0, 80, 0
2, 35586, Note_on_c, 0, 80, 73
2, 35607, Note_on_c, 0, 80, 0
2, 35644, Note_on_c, 0, 80, 63
2, 35647, Note_on_c, 0, 61, 32
2, 35648, Note_on_c, 0, 65, 24
2, 35651, Note_on_c, 0, 58, 20
2, 35654, Note_on_c, 0, 65, 0
2, 35659, Note_on_c, 0, 61, 0
2, 35666, Note_on_c, 0, 58, 0
2, 35668, Note_on_c, 0, 80, 0
2, 35674, Note_on_c, 0, 82, 40
2, 35684, Note_on_c, 0, 80, 37
2, 35693, Note_on_c, 0, 82, 0
2, 35698, Note_on_c, 0, 79, 54
2, 35703, Note_on_c, 0, 80, 0
2, 35712, Note_on_c, 0, 79, 0
2, 35737, Note_on_c, 0, 80, 72
2, 35756, Note_on_c, 0, 80, 0
2, 35766, Note_on_c, 0, 81, 66
2, 35768, Note_on_c, 0, 64, 45
2, 35769, Note_on_c, 0, 54, 34
2, 35771, Note_on_c, 0, 60, 42
2, 35859, Note_on_c, 0, 60, 0
2, 35861, Control_c, 0, 64, 127
2, 35862, Note_on_c, 0, 64, 0
2, 35872, Note_on_c, 0, 54, 0
2, 35885, Note_on_c, 0, 64, 33
2, 35888, Note_on_c, 0, 54, 25
2, 35893, Note_on_c, 0, 60, 32
2, 35913, Note_on_c, 0, 60, 0
2, 35918, Note_on_c, 0, 54, 0
2, 35920, Note_on_c, 0, 64, 0
2, 35949, Note_on_c, 0, 81, 0
2, 36001, Control_c, 0, 64, 0
2, 36003, Note_on_c, 0, 66, 57
2, 36005, Note_on_c, 0, 77, 87
2, 36008, Note_on_c, 0, 63, 28
2, 36012, Note_on_c, 0, 61, 29
2, 36018, Note_on_c, 0, 66, 0
2, 36019, Note_on_c, 0, 61, 0
2, 36025, Note_on_c, 0, 63, 0
2, 36039, Note_on_c, 0, 69, 62
2, 36051, Note_on_c, 0, 69, 0
2, 36055, Note_on_c, 0, 77, 0
2, 36069, Note_on_c, 0, 71, 51
2, 36094, Note_on_c, 0, 71, 0
2, 36102, Note_on_c, 0, 73, 46
2, 36129, Note_on_c, 0, 66, 42
2, 36131, Note_on_c, 0, 75, 59
2, 36133, Note_on_c, 0, 61, 33
2, 36134, Note_on_c, 0, 73, 0
2, 36136, Note_on_c, 0, 63, 25
2, 36147, Note_on_c, 0, 66, 0
2, 36158, Note_on_c, 0, 61, 0
2, 36167, Note_on_c, 0, 75, 0
2, 36176, Note_on_c, 0, 63, 0
2, 36247, Note_on_c, 0, 72, 63
2, 36251, Control_c, 0, 64, 127
2, 36257, Control_c, 0, 64, 0
2, 36279, Note_on_c, 0, 72, 0
2, 36279, Note_on_c, 0, 64, 44
2, 36293, Note_on_c, 0, 64, 0
2, 36307, Note_on_c, 0, 66, 36
2, 36338, Note_on_c, 0, 68, 50
2, 36345, Note_on_c, 0, 66, 0
2, 36360, Note_on_c, 0, 68, 0
2, 36365, Note_on_c, 0, 60, 43
2, 36366, Note_on_c, 0, 70, 54
2, 36369, Note_on_c, 0, 58, 31
2, 36378, Note_on_c, 0, 60, 0
2, 36386, Note_on_c, 0, 58, 0
2, 36413, Note_on_c, 0, 70, 0
2, 36481, Note_on_c, 0, 64, 71
2, 36489, Note_on_c, 0, 65, 66
2, 36496, Note_on_c, 0, 55, 22
2, 36497, Note_on_c, 0, 64, 0
2, 36503, Note_on_c, 0, 55, 0
2, 36567, Note_on_c, 0, 61, 68
2, 36598, Note_on_c, 0, 65, 0
2, 36600, Note_on_c, 0, 61, 0
2, 36613, Note_on_c, 0, 58, 46
2, 36654, Note_on_c, 0, 58, 0
2, 36683, Note_on_c, 0, 56, 49
2, 36686, Control_c, 0, 64, 127
2, 36711, Note_on_c, 0, 56, 0
2, 36718, Control_c, 0, 64, 0
2, 36726, Note_on_c, 0, 57, 56
2, 36782, Note_on_c, 0, 57, 0
2, 36792, Control_c, 0, 64, 127
2, 36853, Control_c, 0, 64, 0
2, 36854, Note_on_c, 0, 60, 50
2, 36855, Note_on_c, 0, 54, 35
2, 36863, Note_on_c, 0, 60, 0
2, 36872, Note_on_c, 0, 54, 0
2, 36890, Note_on_c, 0, 66, 46
2, 36908, Note_on_c, 0, 66, 0
2, 36923, Note_on_c, 0, 72, 68
2, 36933, Control_c, 0, 64, 127
2, 36946, Control_c, 0, 64, 0
2, 36956, Note_on_c, 0, 72, 0
2, 36966, Note_on_c, 0, 53, 18
2, 36967, Note_on_c, 0, 60, 28
2, 36968, Note_on_c, 0, 56, 26
2, 36970, Note_on_c, 0, 63, 10
2, 37004, Note_on_c, 0, 67, 60
2, 37025, Note_on_c, 0, 67, 0
2, 37026, Note_on_c, 0, 63, 0
2, 37029, Note_on_c, 0, 60, 0
2, 37036, Note_on_c, 0, 68, 43
2, 37056, Note_on_c, 0, 68, 0
2, 37077, Note_on_c, 0, 72, 54
2, 37080, Note_on_c, 0, 63, 42
2, 37104, Note_on_c, 0, 72, 0
2, 37107, Note_on_c, 0, 73, 45
2, 37124, Note_on_c, 0, 73, 0
2, 37126, Note_on_c, 0, 53, 0
2, 37135, Note_on_c, 0, 63, 0
2, 37136, Note_on_c, 0, 77, 65
2, 37138, Note_on_c, 0, 56, 0
2, 37158, Note_on_c, 0, 77, 0
2, 37165, Note_on_c, 0, 80, 63
2, 37185, Note_on_c, 0, 80, 0
2, 37195, Note_on_c, 0, 84, 67
2, 37196, Note_on_c, 0, 65, 49
2, 37196, Note_on_c, 0, 55, 47
2, 37197, Note_on_c, 0, 61, 35
2, 37219, Note_on_c, 0, 84, 0
2, 37229, Note_on_c, 0, 85, 64
2, 37249, Note_on_c, 0, 85, 0
2, 37258, Note_on_c, 0, 75, 59
2, 37258, Note_on_c, 0, 87, 67
2, 37284, Note_on_c, 0, 87, 0
2, 37285, Note_on_c, 0, 75, 0
2, 37291, Note_on_c, 0, 65, 0
2, 37294, Note_on_c, 0, 87, 57
2, 37296, Note_on_c, 0, 75, 51
2, 37298, Note_on_c, 0, 61, 0
2, 37313, Note_on_c, 0, 87, 0
2, 37314, Note_on_c, 0, 75, 0
2, 37315, Note_on_c, 0, 55, 0
2, 37326, Note_on_c, 0, 85, 45
2, 37326, Note_on_c, 0, 73, 34
2, 37327, Note_on_c, 0, 55, 29
2, 37327, Note_on_c, 0, 61, 25
2, 37327, Note_on_c, 0, 65, 37
2, 37347, Note_on_c, 0, 85, 0
2, 37348, Note_on_c, 0, 73, 0
2, 37349, Control_c, 0, 64, 127
2, 37357, Note_on_c, 0, 85, 55
2, 37358, Note_on_c, 0, 73, 34
2, 37364, Control_c, 0, 64, 0
2, 37374, Note_on_c, 0, 65, 0
2, 37376, Note_on_c, 0, 73, 0
2, 37377, Note_on_c, 0, 85, 0
2, 37382, Note_on_c, 0, 55, 0
2, 37387, Note_on_c, 0, 84, 60
2, 37389, Note_on_c, 0, 72, 45
2, 37392, Note_on_c, 0, 61, 0
2, 37392, Control_c, 0, 64, 127
2, 37402, Note_on_c, 0, 84, 0
2, 37406, Note_on_c, 0, 72, 0
2, 37421, Note_on_c, 0, 72, 54
2, 37422, Note_on_c, 0, 84, 50
2, 37424, Note_on_c, 0, 83, 53
2, 37431, Note_on_c, 0, 83, 0
2, 37435, Note_on_c, 0, 84, 0
2, 37440, Note_on_c, 0, 72, 0
2, 37459, Control_c, 0, 64, 0
2, 37460, Note_on_c, 0, 54, 38
2, 37461, Note_on_c, 0, 61, 36
2, 37461, Note_on_c, 0, 65, 45
2, 37462, Note_on_c, 0, 83, 46
2, 37463, Note_on_c, 0, 71, 60
2, 37464, Note_on_c, 0, 58, 42
2, 37495, Control_c, 0, 64, 127
2, 37525, Note_on_c, 0, 65, 0
2, 37528, Note_on_c, 0, 83, 0
2, 37531, Note_on_c, 0, 61, 0
2, 37537, Note_on_c, 0, 58, 0
2, 37540, Note_on_c, 0, 71, 0
2, 37560, Note_on_c, 0, 82, 50
2, 37561, Note_on_c, 0, 70, 67
2, 37564, Control_c, 0, 64, 0
2, 37565, Note_on_c, 0, 61, 39
2, 37565, Note_on_c, 0, 58, 43
2, 37568, Note_on_c, 0, 65, 37
2, 37589, Control_c, 0, 64, 127
2, 37611, Note_on_c, 0, 82, 0
2, 37615, Note_on_c, 0, 70, 0
2, 37616, Note_on_c, 0, 65, 0
2, 37633, Note_on_c, 0, 80, 37
2, 37635, Note_on_c, 0, 68, 49
2, 37639, Note_on_c, 0, 54, 0
2, 37650, Note_on_c, 0, 61, 0
2, 37654, Note_on_c, 0, 80, 0
2, 37654, Note_on_c, 0, 68, 0
2, 37663, Note_on_c, 0, 58, 0
2, 37673, Note_on_c, 0, 77, 53
2, 37674, Control_c, 0, 64, 0
2, 37675, Note_on_c, 0, 54, 39
2, 37676, Note_on_c, 0, 65, 33
2, 37677, Note_on_c, 0, 60, 42
2, 37715, Control_c, 0, 64, 127
2, 37738, Note_on_c, 0, 77, 0
2, 37753, Note_on_c, 0, 60, 0
2, 37766, Note_on_c, 0, 65, 0
2, 37796, Control_c, 0, 64, 0
2, 37798, Note_on_c, 0, 60, 49
2, 37835, Control_c, 0, 64, 127
2, 37839, Note_on_c, 0, 69, 58
2, 37859, Note_on_c, 0, 69, 0
2, 37878, Note_on_c, 0, 60, 0
2, 37879, Note_on_c, 0, 70, 70
2, 37882, Note_on_c, 0, 54, 0
2, 37903, Note_on_c, 0, 70, 0
2, 37917, Control_c, 0, 64, 0
2, 37918, Note_on_c, 0, 60, 43
2, 37919, Note_on_c, 0, 63, 45
2, 37919, Note_on_c, 0, 72, 55
2, 37921, Note_on_c, 0, 65, 49
2, 37922, Note_on_c, 0, 53, 27
2, 37924, Note_on_c, 0, 58, 34
2, 37927, Note_on_c, 0, 69, 25
2, 37935, Note_on_c, 0, 65, 0
2, 37940, Note_on_c, 0, 69, 0
2, 37944, Control_c, 0, 64, 127
2, 37955, Note_on_c, 0, 72, 0
2, 37972, Note_on_c, 0, 72, 54
2, 37997, Note_on_c, 0, 72, 0
2, 38006, Note_on_c, 0, 76, 74
2, 38012, Note_on_c, 0, 60, 0
2, 38014, Note_on_c, 0, 63, 0
2, 38018, Note_on_c, 0, 58, 0
2, 38018, Note_on_c, 0, 53, 0
2, 38024, Note_on_c, 0, 76, 0
2, 38048, Note_on_c, 0, 79, 84
2, 38049, Note_on_c, 0, 63, 51
2, 38050, Control_c, 0, 64, 0
2, 38052, Note_on_c, 0, 60, 50
2, 38054, Note_on_c, 0, 58, 36
2, 38054, Note_on_c, 0, 53, 30
2, 38080, Control_c, 0, 64, 127
2, 38081, Note_on_c, 0, 79, 0
2, 38087, Note_on_c, 0, 60, 0
2, 38087, Note_on_c, 0, 84, 75
2, 38092, Note_on_c, 0, 53, 0
2, 38093, Note_on_c, 0, 58, 0
2, 38095, Note_on_c, 0, 63, 0
2, 38107, Note_on_c, 0, 84, 0
2, 38129, Note_on_c, 0, 63, 50
2, 38130, Note_on_c, 0, 82, 64
2, 38133, Control_c, 0, 64, 0
2, 38134, Note_on_c, 0, 58, 43
2, 38135, Note_on_c, 0, 53, 28
2, 38164, Note_on_c, 0, 82, 0
2, 38168, Note_on_c, 0, 63, 0
2, 38175, Note_on_c, 0, 80, 64
2, 38176, Note_on_c, 0, 63, 52
2, 38207, Control_c, 0, 64, 127
2, 38225, Note_on_c, 0, 63, 0
2, 38227, Note_on_c, 0, 53, 0
2, 38248, Note_on_c, 0, 53, 7
2, 38254, Note_on_c, 0, 58, 0
2, 38257, Note_on_c, 0, 77, 57
2, 38289, Control_c, 0, 64, 0
2, 38291, Note_on_c, 0, 63, 42
2, 38300, Note_on_c, 0, 58, 25
2, 38304, Note_on_c, 0, 53, 0
2, 38308, Control_c, 0, 64, 127
2, 38316, Note_on_c, 0, 63, 0
2, 38316, Note_on_c, 0, 58, 0
2, 38363, Note_on_c, 0, 77, 0
2, 38384, Note_on_c, 0, 80, 0
2, 38395, Control_c, 0, 64, 0
2, 38402, Note_on_c, 0, 54, 31
2, 38402, Note_on_c, 0, 61, 37
2, 38403, Note_on_c, 0, 65, 39
2, 38405, Note_on_c, 0, 58, 34
2, 38406, Note_on_c, 0, 74, 52
2, 38415, Note_on_c, 0, 65, 0
2, 38421, Note_on_c, 0, 54, 0
2, 38422, Note_on_c, 0, 61, 0
2, 38422, Note_on_c, 0, 58, 0
2, 38472, Note_on_c, 0, 75, 47
2, 38485, Note_on_c, 0, 74, 0
2, 38510, Note_on_c, 0, 75, 0
2, 38515, Note_on_c, 0, 65, 36
2, 38515, Note_on_c, 0, 54, 29
2, 38516, Note_on_c, 0, 78, 58
2, 38519, Note_on_c, 0, 61, 26
2, 38520, Note_on_c, 0, 58, 31
2, 38523, Note_on_c, 0, 65, 0
2, 38529, Note_on_c, 0, 54, 0
2, 38536, Note_on_c, 0, 61, 0
2, 38541, Note_on_c, 0, 58, 0
2, 38595, Note_on_c, 0, 78, 0
2, 38599, Note_on_c, 0, 76, 49
2, 38640, Note_on_c, 0, 76, 0
2, 38642, Note_on_c, 0, 54, 31
2, 38643, Note_on_c, 0, 64, 28
2, 38646, Note_on_c, 0, 77, 39
2, 38646, Note_on_c, 0, 60, 34
2, 38656, Note_on_c, 0, 60, 0
2, 38656, Note_on_c, 0, 64, 0
2, 38661, Note_on_c, 0, 54, 0
2, 38685, Note_on_c, 0, 77, 0
2, 38721, Note_on_c, 0, 72, 64
2, 38723, Note_on_c, 0, 84, 72
2, 38733, Note_on_c, 0, 84, 0
2, 38734, Note_on_c, 0, 72, 0
2, 38774, Note_on_c, 0, 64, 30
2, 38776, Note_on_c, 0, 60, 32
2, 38784, Note_on_c, 0, 60, 0
2, 38784, Note_on_c, 0, 64, 0
2, 38839, Control_c, 0, 64, 127
2, 38884, Control_c, 0, 64, 0
2, 38893, Note_on_c, 0, 63, 40
2, 38900, Note_on_c, 0, 60, 34
2, 38900, Note_on_c, 0, 56, 35
2, 38906, Note_on_c, 0, 63, 0
2, 38907, Note_on_c, 0, 60, 0
2, 38914, Note_on_c, 0, 56, 0
2, 38971, Note_on_c, 0, 63, 67
2, 38972, Note_on_c, 0, 82, 85
2, 38972, Note_on_c, 0, 53, 50
2, 38972, Note_on_c, 0, 70, 93
2, 38973, Note_on_c, 0, 75, 84
2, 38974, Note_on_c, 0, 60, 64
2, 38975, Note_on_c, 0, 56, 50
2, 38982, Control_c, 0, 64, 127
2, 38995, Note_on_c, 0, 70, 0
2, 38996, Note_on_c, 0, 63, 0
2, 38999, Note_on_c, 0, 75, 0
2, 38999, Note_on_c, 0, 53, 0
2, 39001, Note_on_c, 0, 56, 0
2, 39002, Note_on_c, 0, 82, 0
2, 39003, Note_on_c, 0, 60, 0
2, 39023, Control_c, 0, 64, 0
2, 39023, Note_on_c, 0, 75, 92
2, 39024, Note_on_c, 0, 87, 90
2, 39024, Note_on_c, 0, 63, 77
2, 39025, Note_on_c, 0, 53, 65
2, 39026, Note_on_c, 0, 60, 71
2, 39026, Note_on_c, 0, 56, 55
2, 39051, Control_c, 0, 64, 127
2, 39056, Note_on_c, 0, 63, 0
2, 39058, Note_on_c, 0, 87, 0
2, 39060, Note_on_c, 0, 56, 0
2, 39061, Note_on_c, 0, 60, 0
2, 39061, Note_on_c, 0, 75, 0
2, 39063, Note_on_c, 0, 53, 0
2, 39066, Control_c, 0, 64, 0
2, 39083, Control_c, 0, 64, 127
2, 39085, Note_on_c, 0, 63, 70
2, 39086, Note_on_c, 0, 87, 83
2, 39087, Note_on_c, 0, 75, 83
2, 39088, Note_on_c, 0, 56, 35
2, 39093, Note_on_c, 0, 85, 32
2, 39100, Note_on_c, 0, 85, 0
2, 39100, Note_on_c, 0, 56, 0
2, 39105, Note_on_c, 0, 63, 0
2, 39109, Note_on_c, 0, 87, 0
2, 39110, Note_on_c, 0, 75, 0
2, 39125, Control_c, 0, 64, 0
2, 39126, Note_on_c, 0, 56, 58
2, 39128, Note_on_c, 0, 62, 48
2, 39128, Note_on_c, 0, 66, 62
2, 39129, Note_on_c, 0, 86, 81
2, 39130, Note_on_c, 0, 79, 55
2, 39131, Note_on_c, 0, 74, 60
2, 39132, Note_on_c, 0, 83, 53
2, 39149, Control_c, 0, 64, 127
2, 39170, Note_on_c, 0, 86, 0
2, 39172, Note_on_c, 0, 83, 0
2, 39175, Note_on_c, 0, 79, 0
2, 39179, Note_on_c, 0, 66, 0
2, 39188, Note_on_c, 0, 74, 0
2, 39199, Note_on_c, 0, 56, 0
2, 39208, Note_on_c, 0, 62, 0
2, 39242, Control_c, 0, 64, 0
2, 39243, Note_on_c, 0, 78, 63
2, 39243, Note_on_c, 0, 83, 70
2, 39243, Note_on_c, 0, 71, 74
2, 39244, Note_on_c, 0, 62, 53
2, 39245, Note_on_c, 0, 66, 61
2, 39245, Note_on_c, 0, 56, 49
2, 39268, Control_c, 0, 64, 127
2, 39276, Note_on_c, 0, 78, 0
2, 39277, Note_on_c, 0, 79, 24
2, 39290, Note_on_c, 0, 62, 0
2, 39298, Note_on_c, 0, 66, 0
2, 39306, Note_on_c, 0, 83, 0
2, 39307, Note_on_c, 0, 56, 0
2, 39307, Note_on_c, 0, 79, 0
2, 39313, Note_on_c, 0, 71, 0
2, 39364, Control_c, 0, 64, 0
2, 39368, Note_on_c, 0, 82, 51
2, 39368, Note_on_c, 0, 54, 38
2, 39369, Note_on_c, 0, 65, 49
2, 39370, Note_on_c, 0, 61, 42
2, 39371, Note_on_c, 0, 75, 37
2, 39372, Note_on_c, 0, 70, 35
2, 39373, Note_on_c, 0, 58, 35
2, 39374, Note_on_c, 0, 78, 29
2, 39385, Control_c, 0, 64, 127
2, 39391, Note_on_c, 0, 70, 0
2, 39394, Note_on_c, 0, 65, 0
2, 39396, Note_on_c, 0, 75, 0
2, 39397, Note_on_c, 0, 78, 0
2, 39399, Note_on_c, 0, 58, 0
2, 39402, Note_on_c, 0, 82, 0
2, 39405, Note_on_c, 0, 54, 0
2, 39432, Note_on_c, 0, 61, 0
2, 39449, Note_on_c, 0, 84, 71
2, 39449, Note_on_c, 0, 54, 57
2, 39449, Note_on_c, 0, 61, 68
2, 39449, Note_on_c, 0, 89, 72
2, 39450, Note_on_c, 0, 58, 62
2, 39451, Note_on_c, 0, 77, 56
2, 39451, Note_on_c, 0, 76, 46
2, 39451, Note_on_c, 0, 65, 48
2, 39452, Note_on_c, 0, 88, 74
2, 39452, Note_on_c, 0, 67, 67
2, 39452, Note_on_c, 0, 83, 43
2, 39456, Note_on_c, 0, 88, 0
2, 39457, Note_on_c, 0, 67, 0
2, 39457, Note_on_c, 0, 76, 0
2, 39459, Note_on_c, 0, 83, 0
2, 39469, Note_on_c, 0, 77, 0
2, 39472, Note_on_c, 0, 84, 0
2, 39475, Note_on_c, 0, 89, 0
2, 39475, Note_on_c, 0, 65, 0
2, 39479, Note_on_c, 0, 58, 0
2, 39479, Note_on_c, 0, 54, 0
2, 39483, Note_on_c, 0, 61, 0
2, 39497, Control_c, 0, 64, 0
2, 39497, Note_on_c, 0, 96, 87
2, 39498, Note_on_c, 0, 91, 82
2, 39498, Note_on_c, 0, 84, 80
2, 39499, Note_on_c, 0, 54, 69
2, 39499, Note_on_c, 0, 58, 77
2, 39499, Note_on_c, 0, 61, 69
2, 39500, Note_on_c, 0, 65, 80
2, 39526, Control_c, 0, 64, 127
2, 39544, Note_on_c, 0, 65, 0
2, 39545, Note_on_c, 0, 54, 0
2, 39546, Note_on_c, 0, 84, 0
2, 39546, Note_on_c, 0, 96, 0
2, 39546, Note_on_c, 0, 91, 0
2, 39547, Note_on_c, 0, 58, 0
2, 39553, Note_on_c, 0, 61, 0
2, 39566, Note_on_c, 0, 96, 71
2, 39566, Note_on_c, 0, 61, 59
2, 39567, Note_on_c, 0, 65, 66
2, 39567, Note_on_c, 0, 84, 68
2, 39567, Note_on_c, 0, 91, 69
2, 39568, Note_on_c, 0, 54, 51
2, 39568, Note_on_c, 0, 58, 56
2, 39580, Note_on_c, 0, 91, 0
2, 39580, Note_on_c, 0, 96, 0
2, 39582, Note_on_c, 0, 65, 0
2, 39587, Note_on_c, 0, 84, 0
2, 39593, Note_on_c, 0, 54, 0
2, 39596, Note_on_c, 0, 61, 0
2, 39601, Note_on_c, 0, 58, 0
2, 39609, Note_on_c, 0, 93, 72
2, 39609, Control_c, 0, 64, 0
2, 39610, Note_on_c, 0, 81, 55
2, 39610, Note_on_c, 0, 88, 62
2, 39611, Note_on_c, 0, 64, 60
2, 39612, Note_on_c, 0, 54, 43
2, 39614, Note_on_c, 0, 60, 54
2, 39635, Control_c, 0, 64, 127
2, 39682, Note_on_c, 0, 60, 0
2, 39684, Note_on_c, 0, 64, 0
2, 39687, Note_on_c, 0, 88, 0
2, 39689, Note_on_c, 0, 54, 0
2, 39719, Note_on_c, 0, 64, 39
2, 39719, Note_on_c, 0, 54, 33
2, 39723, Note_on_c, 0, 60, 45
2, 39755, Note_on_c, 0, 60, 0
2, 39756, Note_on_c, 0, 64, 0
2, 39759, Note_on_c, 0, 54, 0
2, 39763, Note_on_c, 0, 81, 0
2, 39774, Note_on_c, 0, 93, 0
2, 39799, Note_on_c, 0, 54, 28
2, 39813, Note_on_c, 0, 54, 0
2, 39836, Control_c, 0, 64, 0
2, 39837, Note_on_c, 0, 63, 45
2, 39839, Note_on_c, 0, 60, 51
2, 39840, Note_on_c, 0, 93, 68
2, 39842, Note_on_c, 0, 53, 24
2, 39842, Note_on_c, 0, 56, 33
2, 39862, Note_on_c, 0, 93, 0
2, 39873, Note_on_c, 0, 96, 66
2, 39887, Note_on_c, 0, 96, 0
2, 39904, Note_on_c, 0, 88, 62
2, 39927, Note_on_c, 0, 88, 0
2, 39934, Note_on_c, 0, 91, 57
2, 39946, Note_on_c, 0, 63, 0
2, 39955, Note_on_c, 0, 60, 0
2, 39956, Note_on_c, 0, 91, 0
2, 39962, Note_on_c, 0, 63, 31
2, 39966, Note_on_c, 0, 84, 51
2, 39968, Note_on_c, 0, 60, 18
2, 39986, Note_on_c, 0, 84, 0
2, 39998, Note_on_c, 0, 63, 0
2, 39998, Note_on_c, 0, 88, 35
2, 40008, Note_on_c, 0, 60, 0
2, 40018, Note_on_c, 0, 88, 0
2, 40032, Note_on_c, 0, 79, 17
2, 40033, Note_on_c, 0, 81, 15
2, 40046, Note_on_c, 0, 79, 0
2, 40048, Note_on_c, 0, 81, 0
2, 40051, Control_c, 0, 64, 127
2, 40063, Note_on_c, 0, 56, 0
2, 40068, Note_on_c, 0, 53, 0
2, 40073, Control_c, 0, 64, 0
2, 40084, Note_on_c, 0, 84, 67
2, 40085, Note_on_c, 0, 63, 37
2, 40088, Note_on_c, 0, 56, 35
2, 40092, Note_on_c, 0, 60, 36
2, 40102, Note_on_c, 0, 60, 0
2, 40104, Note_on_c, 0, 63, 0
2, 40107, Note_on_c, 0, 84, 0
2, 40112, Note_on_c, 0, 56, 0
2, 40115, Note_on_c, 0, 85, 71
2, 40135, Note_on_c, 0, 85, 0
2, 40145, Note_on_c, 0, 80, 52
2, 40167, Note_on_c, 0, 80, 0
2, 40184, Control_c, 0, 64, 127
2, 40200, Control_c, 0, 64, 0
2, 40204, Note_on_c, 0, 78, 37
2, 40205, Note_on_c, 0, 63, 36
2, 40211, Note_on_c, 0, 56, 29
2, 40212, Note_on_c, 0, 60, 35
2, 40215, Note_on_c, 0, 78, 0
2, 40215, Note_on_c, 0, 79, 33
2, 40234, Note_on_c, 0, 79, 0
2, 40242, Note_on_c, 0, 82, 64
2, 40265, Note_on_c, 0, 63, 0
2, 40270, Note_on_c, 0, 60, 0
2, 40271, Note_on_c, 0, 77, 50
2, 40276, Note_on_c, 0, 82, 0
2, 40279, Note_on_c, 0, 56, 0
2, 40303, Control_c, 0, 64, 127
2, 40305, Note_on_c, 0, 77, 0
2, 40335, Control_c, 0, 64, 0
2, 40341, Note_on_c, 0, 61, 31
2, 40342, Note_on_c, 0, 65, 27
2, 40348, Note_on_c, 0, 65, 0
2, 40357, Note_on_c, 0, 61, 0
2, 40416, Note_on_c, 0, 77, 78
2, 40416, Note_on_c, 0, 89, 85
2, 40418, Note_on_c, 0, 84, 68
2, 40423, Control_c, 0, 64, 127
2, 40424, Note_on_c, 0, 84, 0
2, 40434, Note_on_c, 0, 89, 0
2, 40436, Note_on_c, 0, 77, 0
2, 40450, Control_c, 0, 64, 0
2, 40461, Note_on_c, 0, 61, 38
2, 40462, Note_on_c, 0, 65, 38
2, 40462, Note_on_c, 0, 88, 70
2, 40464, Note_on_c, 0, 76, 55
2, 40471, Note_on_c, 0, 65, 0
2, 40481, Note_on_c, 0, 88, 0
2, 40485, Note_on_c, 0, 61, 0
2, 40492, Note_on_c, 0, 76, 0
2, 40530, Note_on_c, 0, 87, 55
2, 40532, Note_on_c, 0, 75, 52
2, 40533, Note_on_c, 0, 82, 47
2, 40539, Control_c, 0, 64, 127
2, 40551, Note_on_c, 0, 87, 0
2, 40555, Note_on_c, 0, 75, 0
2, 40558, Note_on_c, 0, 82, 0
2, 40569, Control_c, 0, 64, 0
2, 40572, Note_on_c, 0, 65, 46
2, 40575, Note_on_c, 0, 85, 48
2, 40576, Note_on_c, 0, 61, 26
2, 40576, Note_on_c, 0, 73, 31
2, 40578, Note_on_c, 0, 80, 42
2, 40579, Note_on_c, 0, 60, 24
2, 40579, Note_on_c, 0, 56, 30
2, 40603, Control_c, 0, 64, 127
2, 40645, Note_on_c, 0, 60, 0
2, 40646, Note_on_c, 0, 65, 0
2, 40652, Note_on_c, 0, 56, 0
2, 40657, Note_on_c, 0, 61, 0
2, 40678, Control_c, 0, 64, 0
2, 40682, Note_on_c, 0, 65, 42
2, 40685, Note_on_c, 0, 61, 32
2, 40685, Note_on_c, 0, 56, 25
2, 40687, Note_on_c, 0, 85, 0
2, 40689, Note_on_c, 0, 60, 32
2, 40690, Control_c, 0, 64, 127
2, 40692, Note_on_c, 0, 73, 0
2, 40693, Note_on_c, 0, 80, 0
2, 40723, Note_on_c, 0, 60, 0
2, 40728, Note_on_c, 0, 65, 0
2, 40746, Note_on_c, 0, 61, 0
2, 40762, Note_on_c, 0, 82, 32
2, 40765, Note_on_c, 0, 70, 25
2, 40773, Note_on_c, 0, 70, 0
2, 40774, Note_on_c, 0, 56, 0
2, 40783, Note_on_c, 0, 82, 0
2, 40800, Control_c, 0, 64, 0
2, 40801, Note_on_c, 0, 72, 69
2, 40802, Note_on_c, 0, 61, 47
2, 40802, Note_on_c, 0, 84, 74
2, 40803, Note_on_c, 0, 55, 62
2, 40803, Note_on_c, 0, 65, 52
2, 40826, Control_c, 0, 64, 127
2, 40855, Note_on_c, 0, 84, 0
2, 40859, Note_on_c, 0, 72, 0
2, 40880, Note_on_c, 0, 84, 65
2, 40882, Note_on_c, 0, 72, 57
2, 40884, Note_on_c, 0, 55, 0
2, 40887, Note_on_c, 0, 65, 0
2, 40896, Note_on_c, 0, 61, 0
2, 40898, Note_on_c, 0, 84, 0
2, 40903, Note_on_c, 0, 72, 0
2, 40925, Note_on_c, 0, 82, 57
2, 40925, Control_c, 0, 64, 0
2, 40926, Note_on_c, 0, 61, 38
2, 40928, Note_on_c, 0, 70, 45
2, 40928, Note_on_c, 0, 65, 37
2, 40928, Note_on_c, 0, 55, 44
2, 40962, Note_on_c, 0, 55, 0
2, 40971, Note_on_c, 0, 65, 0
2, 40981, Note_on_c, 0, 61, 0
2, 41000, Note_on_c, 0, 56, 80
2, 41007, Note_on_c, 0, 61, 26
2, 41011, Control_c, 0, 64, 127
2, 41013, Note_on_c, 0, 61, 0
2, 41031, Note_on_c, 0, 70, 0
2, 41035, Note_on_c, 0, 82, 0
2, 41038, Note_on_c, 0, 56, 0
2, 41044, Note_on_c, 0, 70, 47
2, 41044, Note_on_c, 0, 55, 64
2, 41045, Note_on_c, 0, 82, 45
2, 41046, Note_on_c, 0, 65, 53
2, 41047, Note_on_c, 0, 61, 44
2, 41049, Control_c, 0, 64, 0
2, 41087, Control_c, 0, 64, 127
2, 41109, Note_on_c, 0, 82, 0
2, 41114, Note_on_c, 0, 70, 0
2, 41115, Note_on_c, 0, 65, 0
2, 41136, Note_on_c, 0, 61, 0
2, 41165, Note_on_c, 0, 61, 40
2, 41166, Note_on_c, 0, 64, 38
2, 41181, Note_on_c, 0, 64, 0
2, 41192, Note_on_c, 0, 61, 0
2, 41196, Note_on_c, 0, 55, 0
2, 41257, Note_on_c, 0, 54, 51
2, 41271, Note_on_c, 0, 56, 28
2, 41280, Note_on_c, 0, 70, 83
2, 41280, Note_on_c, 0, 58, 71
2, 41280, Note_on_c, 0, 66, 79
2, 41280, Note_on_c, 0, 61, 87
2, 41282, Control_c, 0, 64, 0
2, 41289, Note_on_c, 0, 54, 0
2, 41290, Note_on_c, 0, 56, 0
2, 41312, Control_c, 0, 64, 127
2, 41329, Note_on_c, 0, 61, 0
2, 41342, Note_on_c, 0, 66, 0
2, 41344, Note_on_c, 0, 70, 0
2, 41349, Note_on_c, 0, 58, 0
2, 41352, Control_c, 0, 64, 0
2, 41356, Note_on_c, 0, 56, 47
2, 41357, Note_on_c, 0, 68, 59
2, 41359, Note_on_c, 0, 63, 59
2, 41362, Control_c, 0, 64, 127
2, 41386, Note_on_c, 0, 63, 0
2, 41388, Note_on_c, 0, 68, 0
2, 41393, Note_on_c, 0, 56, 0
2, 41402, Note_on_c, 0, 55, 46
2, 41403, Note_on_c, 0, 63, 37
2, 41404, Control_c, 0, 64, 0
2, 41413, Note_on_c, 0, 55, 0
2, 41437, Control_c, 0, 64, 127
2, 41470, Note_on_c, 0, 63, 0
2, 41477, Note_on_c, 0, 58, 37
2, 41479, Note_on_c, 0, 44, 35
2, 41483, Note_on_c, 0, 58, 0
2, 41496, Note_on_c, 0, 44, 0
2, 41521, Control_c, 0, 64, 0
2, 41525, Note_on_c, 0, 65, 45
2, 41526, Note_on_c, 0, 44, 36
2, 41528, Note_on_c, 0, 57, 52
2, 41529, Note_on_c, 0, 54, 31
2, 41553, Control_c, 0, 64, 127
2, 41564, Note_on_c, 0, 57, 0
2, 41571, Note_on_c, 0, 65, 0
2, 41576, Note_on_c, 0, 54, 0
2, 41582, Note_on_c, 0, 44, 0
2, 41600, Note_on_c, 0, 63, 52
2, 41601, Control_c, 0, 64, 0
2, 41602, Note_on_c, 0, 54, 46
2, 41604, Note_on_c, 0, 44, 38
2, 41605, Note_on_c, 0, 57, 41
2, 41625, Control_c, 0, 64, 127
2, 41633, Note_on_c, 0, 57, 0
2, 41637, Note_on_c, 0, 54, 0
2, 41650, Note_on_c, 0, 44, 0
2, 41663, Note_on_c, 0, 63, 0
2, 41757, Note_on_c, 0, 68, 43
2, 41758, Control_c, 0, 64, 0
2, 41758, Note_on_c, 0, 63, 35
2, 41759, Note_on_c, 0, 76, 74
2, 41759, Note_on_c, 0, 59, 36
2, 41759, Note_on_c, 0, 64, 49
2, 41773, Note_on_c, 0, 76, 0
2, 41795, Note_on_c, 0, 76, 64
2, 41812, Note_on_c, 0, 76, 0
2, 41827, Note_on_c, 0, 75, 64
2, 41829, Note_on_c, 0, 64, 0
2, 41832, Note_on_c, 0, 68, 0
2, 41840, Note_on_c, 0, 63, 0
2, 41843, Note_on_c, 0, 75, 0
2, 41860, Note_on_c, 0, 75, 60
2, 41878, Note_on_c, 0, 75, 0
2, 41882, Note_on_c, 0, 68, 33
2, 41886, Note_on_c, 0, 63, 21
2, 41889, Note_on_c, 0, 64, 26
2, 41893, Note_on_c, 0, 73, 43
2, 41921, Note_on_c, 0, 68, 0
2, 41928, Control_c, 0, 64, 127
2, 41931, Note_on_c, 0, 59, 0
2, 41939, Note_on_c, 0, 73, 0
2, 41950, Note_on_c, 0, 70, 44
2, 41966, Note_on_c, 0, 64, 0
2, 41973, Note_on_c, 0, 70, 0
2, 41989, Note_on_c, 0, 75, 52
2, 41992, Control_c, 0, 64, 0
2, 41993, Note_on_c, 0, 68, 35
2, 41994, Note_on_c, 0, 58, 31
2, 41995, Note_on_c, 0, 64, 35
2, 42001, Note_on_c, 0, 76, 40
2, 42007, Note_on_c, 0, 75, 0
2, 42044, Note_on_c, 0, 68, 0
2, 42045, Control_c, 0, 64, 127
2, 42046, Note_on_c, 0, 63, 0
2, 42050, Note_on_c, 0, 64, 0
2, 42072, Note_on_c, 0, 75, 60
2, 42075, Note_on_c, 0, 76, 0
2, 42088, Note_on_c, 0, 58, 0
2, 42105, Control_c, 0, 64, 0
2, 42111, Note_on_c, 0, 68, 33
2, 42112, Note_on_c, 0, 58, 38
2, 42114, Control_c, 0, 64, 127
2, 42123, Note_on_c, 0, 68, 0
2, 42130, Note_on_c, 0, 75, 0
2, 42135, Note_on_c, 0, 58, 0
2, 42193, Note_on_c, 0, 72, 57
2, 42224, Note_on_c, 0, 72, 0
2, 42237, Note_on_c, 0, 62, 47
2, 42238, Control_c, 0, 64, 0
2, 42239, Note_on_c, 0, 84, 76
2, 42239, Note_on_c, 0, 58, 42
2, 42240, Note_on_c, 0, 53, 35
2, 42242, Note_on_c, 0, 57, 42
2, 42259, Note_on_c, 0, 84, 0
2, 42268, Control_c, 0, 64, 127
2, 42297, Note_on_c, 0, 62, 0
2, 42303, Note_on_c, 0, 57, 0
2, 42305, Note_on_c, 0, 58, 0
2, 42312, Note_on_c, 0, 53, 0
2, 42312, Control_c, 0, 64, 0
2, 42317, Control_c, 0, 64, 127
2, 42319, Note_on_c, 0, 79, 57
2, 42348, Note_on_c, 0, 79, 0
2, 42357, Control_c, 0, 64, 0
2, 42366, Note_on_c, 0, 76, 43
2, 42367, Note_on_c, 0, 58, 36
2, 42367, Note_on_c, 0, 52, 38
2, 42367, Note_on_c, 0, 62, 36
2, 42376, Note_on_c, 0, 52, 0
2, 42377, Note_on_c, 0, 62, 0
2, 42381, Note_on_c, 0, 76, 0
2, 42384, Note_on_c, 0, 58, 0
2, 42431, Control_c, 0, 64, 127
2, 42437, Note_on_c, 0, 72, 50
2, 42462, Note_on_c, 0, 72, 0
2, 42472, Control_c, 0, 64, 0
2, 42479, Note_on_c, 0, 54, 29
2, 42483, Note_on_c, 0, 71, 48
2, 42483, Note_on_c, 0, 64, 24
2, 42484, Note_on_c, 0, 61, 30
2, 42484, Note_on_c, 0, 57, 32
2, 42497, Control_c, 0, 64, 127
2, 42505, Note_on_c, 0, 57, 0
2, 42508, Note_on_c, 0, 61, 0
2, 42513, Note_on_c, 0, 54, 0
2, 42517, Note_on_c, 0, 64, 0
2, 42561, Note_on_c, 0, 83, 57
2, 42603, Note_on_c, 0, 66, 37
2, 42606, Note_on_c, 0, 61, 37
2, 42607, Control_c, 0, 64, 0
2, 42610, Note_on_c, 0, 63, 31
2, 42610, Note_on_c, 0, 57, 30
2, 42632, Control_c, 0, 64, 127
2, 42644, Note_on_c, 0, 57, 0
2, 42646, Note_on_c, 0, 61, 0
2, 42657, Note_on_c, 0, 66, 0
2, 42672, Note_on_c, 0, 71, 0
2, 42673, Note_on_c, 0, 83, 0
2, 42679, Note_on_c, 0, 75, 58
2, 42692, Note_on_c, 0, 63, 0
2, 42712, Note_on_c, 0, 75, 0
2, 42724, Note_on_c, 0, 67, 64
2, 42724, Note_on_c, 0, 63, 48
2, 42724, Note_on_c, 0, 56, 43
2, 42724, Note_on_c, 0, 82, 82
2, 42726, Note_on_c, 0, 60, 59
2, 42726, Control_c, 0, 64, 0
2, 42745, Note_on_c, 0, 82, 0
2, 42758, Note_on_c, 0, 82, 62
2, 42782, Note_on_c, 0, 82, 0
2, 42786, Note_on_c, 0, 77, 68
2, 42804, Note_on_c, 0, 77, 0
2, 42814, Note_on_c, 0, 67, 0
2, 42815, Note_on_c, 0, 77, 75
2, 42819, Control_c, 0, 64, 127
2, 42822, Note_on_c, 0, 56, 0
2, 42826, Note_on_c, 0, 60, 0
2, 42827, Note_on_c, 0, 63, 0
2, 42839, Note_on_c, 0, 77, 0
2, 42844, Note_on_c, 0, 74, 71
2, 42844, Note_on_c, 0, 66, 56
2, 42846, Note_on_c, 0, 62, 50
2, 42847, Control_c, 0, 64, 0
2, 42858, Note_on_c, 0, 66, 0
2, 42860, Note_on_c, 0, 74, 0
2, 42877, Note_on_c, 0, 74, 44
2, 42889, Note_on_c, 0, 74, 0
2, 42908, Note_on_c, 0, 70, 60
2, 42909, Note_on_c, 0, 62, 0
2, 42918, Note_on_c, 0, 70, 0
2, 42928, Control_c, 0, 64, 127
2, 42941, Note_on_c, 0, 70, 62
2, 42960, Note_on_c, 0, 70, 0
2, 42960, Control_c, 0, 64, 0
2, 42970, Note_on_c, 0, 59, 48
2, 42971, Note_on_c, 0, 52, 33
2, 42971, Note_on_c, 0, 69, 55
2, 42977, Note_on_c, 0, 59, 0
2, 42978, Note_on_c, 0, 52, 0
2, 42999, Note_on_c, 0, 69, 0
2, 43008, Note_on_c, 0, 81, 69
2, 43041, Control_c, 0, 64, 127
2, 43070, Note_on_c, 0, 81, 0
2, 43077, Note_on_c, 0, 73, 35
2, 43078, Control_c, 0, 64, 0
2, 43080, Note_on_c, 0, 66, 31
2, 43080, Note_on_c, 0, 69, 51
2, 43080, Note_on_c, 0, 61, 37
2, 43084, Note_on_c, 0, 55, 28
2, 43097, Note_on_c, 0, 55, 0
2, 43105, Note_on_c, 0, 66, 0
2, 43113, Control_c, 0, 64, 127
2, 43116, Note_on_c, 0, 69, 0
2, 43122, Note_on_c, 0, 61, 0
2, 43129, Note_on_c, 0, 73, 0
2, 43196, Control_c, 0, 64, 0
2, 43199, Note_on_c, 0, 61, 50
2, 43199, Note_on_c, 0, 80, 71
2, 43199, Note_on_c, 0, 54, 42
2, 43199, Note_on_c, 0, 65, 49
2, 43200, Note_on_c, 0, 58, 46
2, 43207, Note_on_c, 0, 65, 0
2, 43212, Note_on_c, 0, 61, 0
2, 43215, Note_on_c, 0, 58, 0
2, 43216, Note_on_c, 0, 54, 0
2, 43225, Note_on_c, 0, 80, 0
2, 43226, Note_on_c, 0, 82, 36
2, 43242, Note_on_c, 0, 80, 36
2, 43247, Note_on_c, 0, 82, 0
2, 43257, Note_on_c, 0, 80, 0
2, 43260, Note_on_c, 0, 79, 34
2, 43267, Note_on_c, 0, 79, 0
2, 43276, Note_on_c, 0, 80, 53
2, 43295, Note_on_c, 0, 82, 38
2, 43296, Note_on_c, 0, 80, 0
2, 43316, Note_on_c, 0, 82, 0
2, 43325, Note_on_c, 0, 79, 46
2, 43330, Note_on_c, 0, 65, 35
2, 43331, Note_on_c, 0, 54, 27
2, 43332, Note_on_c, 0, 61, 34
2, 43334, Note_on_c, 0, 58, 36
2, 43335, Note_on_c, 0, 79, 0
2, 43342, Note_on_c, 0, 80, 63
2, 43345, Note_on_c, 0, 65, 0
2, 43348, Note_on_c, 0, 54, 0
2, 43351, Note_on_c, 0, 61, 0
2, 43359, Note_on_c, 0, 80, 0
2, 43360, Note_on_c, 0, 82, 49
2, 43367, Note_on_c, 0, 58, 0
2, 43379, Note_on_c, 0, 80, 25
2, 43381, Note_on_c, 0, 82, 0
2, 43388, Note_on_c, 0, 80, 0
2, 43391, Note_on_c, 0, 79, 34
2, 43400, Note_on_c, 0, 79, 0
2, 43400, Note_on_c, 0, 80, 40
2, 43421, Note_on_c, 0, 80, 0
2, 43421, Note_on_c, 0, 82, 51
2, 43439, Note_on_c, 0, 80, 29
2, 43440, Note_on_c, 0, 82, 0
2, 43445, Note_on_c, 0, 79, 41
2, 43455, Note_on_c, 0, 79, 0
2, 43456, Note_on_c, 0, 64, 36
2, 43459, Note_on_c, 0, 54, 25
2, 43459, Note_on_c, 0, 60, 40
2, 43467, Note_on_c, 0, 81, 42
2, 43468, Note_on_c, 0, 80, 0
2, 43483, Note_on_c, 0, 81, 0
2, 43494, Note_on_c, 0, 60, 0
2, 43499, Note_on_c, 0, 54, 0
2, 43503, Note_on_c, 0, 64, 0
2, 43566, Note_on_c, 0, 54, 35
2, 43568, Note_on_c, 0, 64, 32
2, 43571, Note_on_c, 0, 60, 47
2, 43594, Control_c, 0, 64, 127
2, 43602, Note_on_c, 0, 60, 0
2, 43607, Note_on_c, 0, 54, 0
2, 43612, Note_on_c, 0, 64, 0
2, 43676, Control_c, 0, 64, 0
2, 43677, Note_on_c, 0, 66, 55
2, 43680, Note_on_c, 0, 63, 46
2, 43680, Note_on_c, 0, 61, 47
2, 43681, Note_on_c, 0, 77, 79
2, 43682, Note_on_c, 0, 57, 32
2, 43697, Note_on_c, 0, 77, 0
2, 43697, Note_on_c, 0, 79, 53
2, 43704, Note_on_c, 0, 66, 0
2, 43711, Note_on_c, 0, 79, 0
2, 43711, Note_on_c, 0, 77, 51
2, 43728, Note_on_c, 0, 79, 26
2, 43737, Note_on_c, 0, 79, 0
2, 43741, Note_on_c, 0, 57, 0
2, 43746, Note_on_c, 0, 76, 44
2, 43747, Note_on_c, 0, 77, 0
2, 43752, Note_on_c, 0, 61, 0
2, 43754, Note_on_c, 0, 76, 0
2, 43758, Note_on_c, 0, 63, 0
2, 43764, Note_on_c, 0, 77, 71
2, 43782, Note_on_c, 0, 77, 0
2, 43786, Note_on_c, 0, 79, 73
2, 43796, Note_on_c, 0, 66, 34
2, 43800, Note_on_c, 0, 63, 29
2, 43800, Note_on_c, 0, 61, 35
2, 43801, Note_on_c, 0, 77, 34
2, 43804, Note_on_c, 0, 79, 0
2, 43814, Note_on_c, 0, 77, 0
2, 43817, Note_on_c, 0, 76, 46
2, 43825, Note_on_c, 0, 76, 0
2, 43832, Note_on_c, 0, 57, 1
2, 43834, Note_on_c, 0, 77, 61
2, 43846, Note_on_c, 0, 66, 0
2, 43848, Note_on_c, 0, 79, 50
2, 43851, Note_on_c, 0, 77, 0
2, 43852, Note_on_c, 0, 57, 0
2, 43864, Note_on_c, 0, 77, 49
2, 43865, Note_on_c, 0, 79, 0
2, 43884, Note_on_c, 0, 77, 0
2, 43885, Control_c, 0, 64, 127
2, 43886, Note_on_c, 0, 63, 0
2, 43888, Note_on_c, 0, 76, 22
2, 43894, Note_on_c, 0, 76, 0
2, 43898, Note_on_c, 0, 61, 0
2, 43901, Note_on_c, 0, 77, 43
2, 43913, Control_c, 0, 64, 0
2, 43914, Note_on_c, 0, 62, 40
2, 43915, Note_on_c, 0, 66, 27
2, 43917, Note_on_c, 0, 56, 25
2, 43952, Note_on_c, 0, 66, 0
2, 43962, Note_on_c, 0, 62, 0
2, 43965, Note_on_c, 0, 56, 0
2, 43967, Note_on_c, 0, 77, 0
2, 43995, Control_c, 0, 64, 127
2, 44036, Control_c, 0, 64, 0
2, 44042, Note_on_c, 0, 65, 40
2, 44044, Note_on_c, 0, 56, 32
2, 44044, Note_on_c, 0, 62, 34
2, 44061, Control_c, 0, 64, 127
2, 44072, Note_on_c, 0, 62, 0
2, 44079, Note_on_c, 0, 65, 0
2, 44095, Note_on_c, 0, 56, 0
2, 44127, Note_on_c, 0, 76, 75
2, 44149, Note_on_c, 0, 76, 0
2, 44163, Note_on_c, 0, 77, 99
2, 44164, Control_c, 0, 64, 0
2, 44166, Note_on_c, 0, 61, 55
2, 44167, Note_on_c, 0, 65, 62
2, 44168, Note_on_c, 0, 55, 60
2, 44170, Note_on_c, 0, 75, 31
2, 44174, Note_on_c, 0, 65, 0
2, 44175, Note_on_c, 0, 55, 0
2, 44176, Note_on_c, 0, 75, 0
2, 44191, Note_on_c, 0, 61, 0
2, 44221, Note_on_c, 0, 77, 0
2, 44243, Note_on_c, 0, 73, 52
2, 44280, Note_on_c, 0, 73, 0
2, 44287, Note_on_c, 0, 61, 32
2, 44291, Note_on_c, 0, 70, 49
2, 44306, Note_on_c, 0, 61, 0
2, 44308, Note_on_c, 0, 70, 0
2, 44359, Note_on_c, 0, 67, 40
2, 44369, Control_c, 0, 64, 127
2, 44395, Note_on_c, 0, 67, 0
2, 44398, Control_c, 0, 64, 0
2, 44404, Note_on_c, 0, 54, 31
2, 44407, Note_on_c, 0, 66, 45
2, 44427, Control_c, 0, 64, 127
2, 44466, Note_on_c, 0, 66, 0
2, 44479, Note_on_c, 0, 76, 59
2, 44488, Note_on_c, 0, 54, 0
2, 44518, Control_c, 0, 64, 0
2, 44520, Note_on_c, 0, 54, 34
2, 44522, Note_on_c, 0, 64, 30
2, 44526, Note_on_c, 0, 60, 36
2, 44546, Control_c, 0, 64, 127
2, 44563, Note_on_c, 0, 64, 0
2, 44577, Note_on_c, 0, 76, 0
2, 44604, Note_on_c, 0, 54, 0
2, 44604, Note_on_c, 0, 72, 57
2, 44617, Note_on_c, 0, 60, 0
2, 44632, Note_on_c, 0, 72, 0
2, 44644, Note_on_c, 0, 75, 82
2, 44645, Note_on_c, 0, 53, 43
2, 44645, Control_c, 0, 64, 0
2, 44646, Note_on_c, 0, 63, 48
2, 44646, Note_on_c, 0, 60, 48
2, 44648, Note_on_c, 0, 56, 38
2, 44674, Note_on_c, 0, 63, 0
2, 44676, Control_c, 0, 64, 127
2, 44695, Note_on_c, 0, 60, 0
2, 44701, Note_on_c, 0, 56, 0
2, 44709, Note_on_c, 0, 75, 0
2, 44720, Note_on_c, 0, 73, 64
2, 44722, Note_on_c, 0, 63, 40
2, 44722, Note_on_c, 0, 60, 53
2, 44735, Note_on_c, 0, 63, 0
2, 44742, Note_on_c, 0, 60, 0
2, 44742, Note_on_c, 0, 53, 0
2, 44752, Note_on_c, 0, 73, 0
2, 44758, Control_c, 0, 64, 0
2, 44758, Note_on_c, 0, 72, 68
2, 44777, Control_c, 0, 64, 127
2, 44786, Note_on_c, 0, 72, 0
2, 44790, Note_on_c, 0, 73, 58
2, 44804, Note_on_c, 0, 73, 0
2, 44819, Note_on_c, 0, 76, 42
2, 44821, Note_on_c, 0, 77, 46
2, 44829, Note_on_c, 0, 77, 0
2, 44832, Note_on_c, 0, 76, 0
2, 44851, Note_on_c, 0, 81, 73
2, 44865, Note_on_c, 0, 81, 0
2, 44878, Control_c, 0, 64, 0
2, 44878, Note_on_c, 0, 81, 62
2, 44878, Note_on_c, 0, 84, 79
2, 44879, Note_on_c, 0, 72, 71
2, 44879, Note_on_c, 0, 77, 63
2, 44880, Note_on_c, 0, 65, 58
2, 44880, Note_on_c, 0, 61, 51
2, 44881, Note_on_c, 0, 60, 47
2, 44882, Note_on_c, 0, 55, 46
2, 44907, Control_c, 0, 64, 127
2, 44936, Note_on_c, 0, 81, 0
2, 44945, Note_on_c, 0, 65, 0
2, 44947, Note_on_c, 0, 60, 0
2, 44948, Note_on_c, 0, 77, 0
2, 44950, Note_on_c, 0, 55, 0
2, 44954, Note_on_c, 0, 72, 0
2, 44955, Note_on_c, 0, 84, 0
2, 44958, Note_on_c, 0, 61, 0
2, 44990, Control_c, 0, 64, 0
2, 45001, Note_on_c, 0, 65, 53
2, 45002, Note_on_c, 0, 61, 37
2, 45002, Note_on_c, 0, 82, 54
2, 45002, Note_on_c, 0, 60, 52
2, 45004, Note_on_c, 0, 55, 40
2, 45004, Note_on_c, 0, 72, 42
2, 45004, Note_on_c, 0, 77, 49
2, 45006, Control_c, 0, 64, 127
2, 45019, Note_on_c, 0, 72, 0
2, 45019, Note_on_c, 0, 65, 0
2, 45020, Note_on_c, 0, 60, 0
2, 45024, Note_on_c, 0, 55, 0
2, 45024, Note_on_c, 0, 77, 0
2, 45029, Note_on_c, 0, 61, 0
2, 45034, Note_on_c, 0, 82, 0
2, 45118, Control_c, 0, 64, 0
2, 45120, Note_on_c, 0, 58, 78
2, 45120, Note_on_c, 0, 54, 81
2, 45120, Note_on_c, 0, 65, 92
2, 45120, Note_on_c, 0, 61, 75
2, 45121, Note_on_c, 0, 85, 92
2, 45121, Note_on_c, 0, 90, 86
2, 45121, Note_on_c, 0, 97, 97
2, 45122, Note_on_c, 0, 94, 77
2, 45137, Control_c, 0, 64, 127
2, 45140, Note_on_c, 0, 94, 0
2, 45143, Note_on_c, 0, 97, 0
2, 45143, Note_on_c, 0, 85, 0
2, 45143, Note_on_c, 0, 90, 0
2, 45154, Note_on_c, 0, 65, 0
2, 45158, Note_on_c, 0, 54, 0
2, 45159, Note_on_c, 0, 58, 0
2, 45161, Note_on_c, 0, 61, 0
2, 45181, Note_on_c, 0, 85, 80
2, 45181, Note_on_c, 0, 54, 67
2, 45181, Note_on_c, 0, 73, 63
2, 45182, Note_on_c, 0, 58, 64
2, 45182, Note_on_c, 0, 65, 76
2, 45183, Note_on_c, 0, 61, 60
2, 45203, Note_on_c, 0, 73, 0
2, 45208, Note_on_c, 0, 65, 0
2, 45209, Note_on_c, 0, 85, 0
2, 45209, Note_on_c, 0, 54, 0
2, 45213, Note_on_c, 0, 58, 0
2, 45214, Note_on_c, 0, 61, 0
2, 45241, Note_on_c, 0, 75, 83
2, 45241, Note_on_c, 0, 54, 72
2, 45241, Note_on_c, 0, 58, 70
2, 45241, Note_on_c, 0, 61, 70
2, 45241, Note_on_c, 0, 65, 80
2, 45242, Note_on_c, 0, 87, 83
2, 45243, Note_on_c, 0, 82, 65
2, 45267, Note_on_c, 0, 82, 0
2, 45271, Note_on_c, 0, 75, 0
2, 45272, Note_on_c, 0, 65, 0
2, 45272, Note_on_c, 0, 87, 0
2, 45277, Note_on_c, 0, 61, 0
2, 45278, Note_on_c, 0, 58, 0
2, 45278, Note_on_c, 0, 54, 0
2, 45300, Note_on_c, 0, 54, 75
2, 45301, Note_on_c, 0, 58, 76
2, 45302, Note_on_c, 0, 77, 75
2, 45302, Note_on_c, 0, 89, 73
2, 45302, Note_on_c, 0, 61, 72
2, 45302, Note_on_c, 0, 65, 83
2, 45303, Note_on_c, 0, 84, 74
2, 45308, Note_on_c, 0, 87, 27
2, 45314, Note_on_c, 0, 87, 0
2, 45328, Note_on_c, 0, 89, 0
2, 45334, Note_on_c, 0, 84, 0
2, 45336, Note_on_c, 0, 77, 0
2, 45338, Note_on_c, 0, 65, 0
2, 45339, Note_on_c, 0, 54, 0
2, 45340, Note_on_c, 0, 61, 0
2, 45342, Note_on_c, 0, 58, 0
2, 45362, Note_on_c, 0, 78, 73
2, 45363, Note_on_c, 0, 90, 73
2, 45364, Note_on_c, 0, 54, 72
2, 45364, Note_on_c, 0, 84, 71
2, 45364, Note_on_c, 0, 58, 77
2, 45365, Note_on_c, 0, 61, 74
2, 45365, Note_on_c, 0, 65, 85
2, 45365, Note_on_c, 0, 87, 57
2, 45386, Note_on_c, 0, 84, 0
2, 45389, Note_on_c, 0, 78, 0
2, 45393, Note_on_c, 0, 87, 0
2, 45394, Note_on_c, 0, 90, 0
2, 45399, Note_on_c, 0, 65, 0
2, 45400, Note_on_c, 0, 61, 0
2, 45401, Note_on_c, 0, 54, 0
2, 45402, Note_on_c, 0, 58, 0
2, 45422, Note_on_c, 0, 92, 85
2, 45423, Note_on_c, 0, 80, 74
2, 45425, Note_on_c, 0, 54, 71
2, 45425, Note_on_c, 0, 58, 75
2, 45425, Note_on_c, 0, 65, 83
2, 45425, Note_on_c, 0, 61, 75
2, 45446, Note_on_c, 0, 80, 0
2, 45448, Note_on_c, 0, 92, 0
2, 45451, Note_on_c, 0, 65, 0
2, 45454, Note_on_c, 0, 58, 0
2, 45455, Note_on_c, 0, 61, 0
2, 45456, Note_on_c, 0, 54, 0
2, 45483, Note_on_c, 0, 54, 63
2, 45483, Note_on_c, 0, 94, 86
2, 45483, Note_on_c, 0, 82, 74
2, 45484, Note_on_c, 0, 58, 69
2, 45484, Note_on_c, 0, 61, 68
2, 45484, Note_on_c, 0, 65, 76
2, 45497, Note_on_c, 0, 82, 0
2, 45500, Note_on_c, 0, 94, 0
2, 45505, Note_on_c, 0, 65, 0
2, 45509, Note_on_c, 0, 54, 0
2, 45509, Note_on_c, 0, 58, 0
2, 45511, Note_on_c, 0, 61, 0
2, 45540, Note_on_c, 0, 61, 67
2, 45541, Note_on_c, 0, 65, 75
2, 45541, Note_on_c, 0, 54, 62
2, 45541, Note_on_c, 0, 58, 62
2, 45542, Note_on_c, 0, 96, 81
2, 45544, Note_on_c, 0, 84, 78
2, 45557, Note_on_c, 0, 84, 0
2, 45564, Note_on_c, 0, 96, 0
2, 45565, Note_on_c, 0, 65, 0
2, 45570, Note_on_c, 0, 61, 0
2, 45572, Note_on_c, 0, 54, 0
2, 45578, Note_on_c, 0, 58, 0
2, 45600, Control_c, 0, 64, 0
2, 45604, Note_on_c, 0, 54, 87
2, 45604, Note_on_c, 0, 60, 88
2, 45605, Note_on_c, 0, 64, 80
2, 45605, Note_on_c, 0, 98, 90
2, 45605, Note_on_c, 0, 86, 105
2, 45605, Note_on_c, 0, 93, 95
2, 45607, Note_on_c, 0, 62, 66
2, 45613, Note_on_c, 0, 62, 0
2, 45624, Control_c, 0, 64, 127
2, 45640, Note_on_c, 0, 86, 0
2, 45647, Note_on_c, 0, 98, 0
2, 45647, Note_on_c, 0, 93, 0
2, 45649, Note_on_c, 0, 64, 0
2, 45651, Note_on_c, 0, 54, 0
2, 45658, Note_on_c, 0, 60, 0
2, 45669, Note_on_c, 0, 60, 77
2, 45669, Note_on_c, 0, 54, 73
2, 45669, Note_on_c, 0, 88, 78
2, 45669, Note_on_c, 0, 64, 77
2, 45670, Note_on_c, 0, 100, 82
2, 45671, Note_on_c, 0, 97, 46
2, 45671, Note_on_c, 0, 95, 67
2, 45673, Control_c, 0, 64, 0
2, 45677, Note_on_c, 0, 97, 0
2, 45684, Control_c, 0, 64, 127
2, 45700, Note_on_c, 0, 88, 0
2, 45701, Note_on_c, 0, 95, 0
2, 45705, Note_on_c, 0, 100, 0
2, 45710, Note_on_c, 0, 64, 0
2, 45712, Note_on_c, 0, 60, 0
2, 45713, Note_on_c, 0, 54, 0
2, 45727, Control_c, 0, 64, 0
2, 45728, Note_on_c, 0, 96, 71
2, 45728, Note_on_c, 0, 54, 65
2, 45728, Note_on_c, 0, 89, 64
2, 45729, Note_on_c, 0, 101, 68
2, 45729, Note_on_c, 0, 64, 73
2, 45730, Note_on_c, 0, 60, 66
2, 45744, Control_c, 0, 64, 127
2, 45755, Note_on_c, 0, 89, 0
2, 45756, Note_on_c, 0, 96, 0
2, 45762, Note_on_c, 0, 101, 0
2, 45766, Note_on_c, 0, 64, 0
2, 45768, Note_on_c, 0, 60, 0
2, 45769, Note_on_c, 0, 54, 0
2, 45787, Note_on_c, 0, 103, 64
2, 45788, Note_on_c, 0, 91, 52
2, 45788, Note_on_c, 0, 98, 56
2, 45790, Note_on_c, 0, 64, 61
2, 45790, Note_on_c, 0, 54, 53
2, 45792, Note_on_c, 0, 60, 62
2, 45795, Note_on_c, 0, 103, 0
2, 45812, Note_on_c, 0, 91, 0
2, 45821, Note_on_c, 0, 98, 0
2, 45821, Note_on_c, 0, 60, 0
2, 45822, Note_on_c, 0, 64, 0
2, 45826, Note_on_c, 0, 54, 0
2, 45851, Note_on_c, 0, 93, 56
2, 45851, Control_c, 0, 64, 0
2, 45851, Note_on_c, 0, 54, 44
2, 45852, Note_on_c, 0, 64, 45
2, 45853, Note_on_c, 0, 105, 43
2, 45854, Note_on_c, 0, 60, 47
2, 45864, Control_c, 0, 64, 127
2, 45871, Note_on_c, 0, 105, 0
2, 45872, Note_on_c, 0, 93, 0
2, 45879, Note_on_c, 0, 60, 0
2, 45880, Note_on_c, 0, 64, 0
2, 45888, Note_on_c, 0, 54, 0
2, 45908, Note_on_c, 0, 54, 45
2, 45909, Note_on_c, 0, 64, 44
2, 45910, Note_on_c, 0, 106, 58
2, 45911, Note_on_c, 0, 94, 47
2, 45912, Note_on_c, 0, 60, 47
2, 45932, Note_on_c, 0, 64, 0
2, 45933, Note_on_c, 0, 60, 0
2, 45936, Note_on_c, 0, 106, 0
2, 45937, Note_on_c, 0, 94, 0
2, 45943, Note_on_c, 0, 54, 0
2, 46158, Note_on_c, 0, 49, 33
2, 46200, Note_on_c, 0, 56, 27
2, 46228, Note_on_c, 0, 60, 54
2, 46256, Note_on_c, 0, 61, 60
2, 46257, Note_on_c, 0, 60, 0
2, 46269, Control_c, 0, 64, 127
2, 46282, Note_on_c, 0, 63, 70
2, 46287, Note_on_c, 0, 61, 0
2, 46299, Note_on_c, 0, 63, 0
2, 46304, Note_on_c, 0, 64, 68
2, 46322, Note_on_c, 0, 64, 0
2, 46324, Note_on_c, 0, 66, 74
2, 46338, Note_on_c, 0, 66, 0
2, 46346, Note_on_c, 0, 67, 77
2, 46361, Note_on_c, 0, 69, 78
2, 46364, Note_on_c, 0, 67, 0
2, 46380, Note_on_c, 0, 70, 79
2, 46383, Note_on_c, 0, 69, 0
2, 46392, Note_on_c, 0, 70, 0
2, 46398, Note_on_c, 0, 72, 74
2, 46415, Note_on_c, 0, 73, 62
2, 46416, Note_on_c, 0, 72, 0
2, 46430, Note_on_c, 0, 75, 69
2, 46434, Note_on_c, 0, 73, 0
2, 46442, Note_on_c, 0, 75, 0
2, 46442, Note_on_c, 0, 76, 74
2, 46457, Note_on_c, 0, 76, 0
2, 46460, Note_on_c, 0, 78, 72
2, 46471, Note_on_c, 0, 78, 0
2, 46479, Note_on_c, 0, 79, 68
2, 46494, Note_on_c, 0, 81, 53
2, 46496, Note_on_c, 0, 79, 0
2, 46512, Note_on_c, 0, 82, 74
2, 46514, Note_on_c, 0, 81, 0
2, 46522, Note_on_c, 0, 82, 0
2, 46530, Note_on_c, 0, 84, 57
2, 46546, Note_on_c, 0, 85, 74
2, 46547, Note_on_c, 0, 84, 0
2, 46563, Note_on_c, 0, 85, 0
2, 46565, Note_on_c, 0, 87, 70
2, 46577, Note_on_c, 0, 87, 0
2, 46580, Note_on_c, 0, 88, 62
2, 46598, Note_on_c, 0, 88, 0
2, 46600, Note_on_c, 0, 90, 64
2, 46612, Note_on_c, 0, 90, 0
2, 46619, Note_on_c, 0, 91, 62
2, 46642, Note_on_c, 0, 91, 0
2, 46643, Note_on_c, 0, 93, 47
2, 46644, Note_on_c, 0, 95, 37
2, 46651, Note_on_c, 0, 95, 0
2, 46658, Note_on_c, 0, 93, 0
2, 46660, Note_on_c, 0, 94, 68
2, 46675, Note_on_c, 0, 94, 0
2, 46683, Note_on_c, 0, 96, 69
2, 46705, Note_on_c, 0, 96, 0
2, 46705, Note_on_c, 0, 97, 62
2, 46727, Note_on_c, 0, 99, 54
2, 46729, Note_on_c, 0, 97, 0
2, 46743, Note_on_c, 0, 99, 0
2, 46746, Note_on_c, 0, 100, 54
2, 46754, Note_on_c, 0, 49, 0
2, 46771, Note_on_c, 0, 100, 0
2, 46771, Note_on_c, 0, 101, 61
2, 46789, Note_on_c, 0, 101, 0
2, 46792, Note_on_c, 0, 102, 55
2, 46806, Note_on_c, 0, 102, 0
2, 46813, Note_on_c, 0, 103, 66
2, 46835, Note_on_c, 0, 104, 64
2, 46837, Note_on_c, 0, 103, 0
2, 46848, Note_on_c, 0, 104, 0
2, 46852, Note_on_c, 0, 56, 0
2, 46856, Note_on_c, 0, 105, 30
2, 46878, Note_on_c, 0, 106, 59
2, 46879, Note_on_c, 0, 105, 0
2, 46886, Note_on_c, 0, 106, 0
2, 46902, Note_on_c, 0, 107, 62
2, 46925, Note_on_c, 0, 107, 0
2, 46933, Note_on_c, 0, 108, 64
2, 46957, Note_on_c, 0, 108, 0
2, 46970, Note_on_c, 0, 108, 60
2, 46975, Note_on_c, 0, 49, 42
2, 46986, Control_c, 0, 64, 0
2, 47015, Control_c, 0, 64, 127
2, 47021, Note_on_c, 0, 108, 0
2, 47028, Note_on_c, 0, 53, 42
2, 47076, Note_on_c, 0, 56, 35
2, 47111, Note_on_c, 0, 49, 0
2, 47115, Note_on_c, 0, 53, 0
2, 47121, Note_on_c, 0, 56, 0
2, 47124, Note_on_c, 0, 65, 45
2, 47126, Note_on_c, 0, 72, 33
2, 47126, Note_on_c, 0, 60, 46
2, 47140, Note_on_c, 0, 65, 0
2, 47144, Note_on_c, 0, 72, 0
2, 47163, Note_on_c, 0, 60, 0
2, 47180, Note_on_c, 0, 75, 51
2, 47181, Note_on_c, 0, 60, 34
2, 47183, Note_on_c, 0, 65, 53
2, 47193, Note_on_c, 0, 65, 0
2, 47204, Note_on_c, 0, 75, 0
2, 47233, Note_on_c, 0, 60, 0
2, 47241, Note_on_c, 0, 65, 47
2, 47244, Note_on_c, 0, 80, 33
2, 47248, Note_on_c, 0, 72, 22
2, 47258, Note_on_c, 0, 72, 0
2, 47261, Note_on_c, 0, 80, 0
2, 47296, Note_on_c, 0, 65, 0
2, 47296, Note_on_c, 0, 84, 57
2, 47297, Note_on_c, 0, 77, 25
2, 47298, Note_on_c, 0, 68, 27
2, 47306, Note_on_c, 0, 77, 0
2, 47310, Note_on_c, 0, 84, 0
2, 47347, Note_on_c, 0, 80, 35
2, 47348, Note_on_c, 0, 87, 55
2, 47350, Note_on_c, 0, 72, 36
2, 47358, Note_on_c, 0, 80, 0
2, 47360, Note_on_c, 0, 87, 0
2, 47399, Note_on_c, 0, 72, 0
2, 47408, Note_on_c, 0, 91, 44
2, 47410, Note_on_c, 0, 68, 0
2, 47411, Note_on_c, 0, 80, 28
2, 47412, Note_on_c, 0, 77, 36
2, 47420, Note_on_c, 0, 80, 0
2, 47425, Note_on_c, 0, 91, 0
2, 47465, Note_on_c, 0, 96, 50
2, 47468, Note_on_c, 0, 80, 38
2, 47482, Note_on_c, 0, 77, 0
2, 47491, Note_on_c, 0, 96, 0
2, 47521, Note_on_c, 0, 94, 38
2, 47524, Note_on_c, 0, 84, 18
2, 47535, Note_on_c, 0, 94, 0
2, 47592, Note_on_c, 0, 87, 25
2, 47607, Note_on_c, 0, 84, 0
2, 47608, Note_on_c, 0, 87, 0
2, 47616, Note_on_c, 0, 80, 0
2, 47713, Control_c, 0, 64, 0
2, 47713, End_track
3, 0, Start_track
3, 0, Title_t, "Second Player Rhodes piano"
3, 0, Program_c, 1, 4
3, 0, Control_c, 1, 7, 74
3, 0, Control_c, 1, 10, 127
3, 5, Note_on_c, 1, 58, 69
3, 5, Note_on_c, 1, 43, 45
3, 5, Note_on_c, 1, 53, 48
3, 21, Control_c, 1, 64, 127
3, 23, Note_on_c, 1, 53, 0
3, 38, Note_on_c, 1, 43, 0
3, 107, Note_on_c, 1, 58, 0
3, 126, Note_on_c, 1, 52, 53
3, 130, Control_c, 1, 64, 0
3, 132, Note_on_c, 1, 36, 30
3, 155, Control_c, 1, 64, 127
3, 158, Note_on_c, 1, 36, 0
3, 189, Note_on_c, 1, 52, 0
3, 243, Note_on_c, 1, 57, 52
3, 244, Note_on_c, 1, 42, 37
3, 247, Note_on_c, 1, 52, 29
3, 251, Control_c, 1, 64, 0
3, 278, Control_c, 1, 64, 127
3, 283, Note_on_c, 1, 42, 0
3, 307, Note_on_c, 1, 57, 0
3, 313, Note_on_c, 1, 52, 0
3, 360, Note_on_c, 1, 54, 36
3, 362, Control_c, 1, 64, 0
3, 363, Note_on_c, 1, 47, 38
3, 381, Control_c, 1, 64, 127
3, 398, Note_on_c, 1, 54, 0
3, 399, Note_on_c, 1, 47, 0
3, 433, Note_on_c, 1, 63, 67
3, 442, Note_on_c, 1, 63, 0
3, 485, Note_on_c, 1, 41, 36
3, 486, Note_on_c, 1, 70, 37
3, 487, Note_on_c, 1, 48, 43
3, 489, Note_on_c, 1, 55, 54
3, 489, Note_on_c, 1, 63, 48
3, 490, Control_c, 1, 64, 0
3, 491, Note_on_c, 1, 56, 30
3, 522, Control_c, 1, 64, 127
3, 535, Note_on_c, 1, 56, 0
3, 538, Note_on_c, 1, 48, 0
3, 540, Note_on_c, 1, 41, 0
3, 543, Note_on_c, 1, 55, 0
3, 566, Note_on_c, 1, 70, 0
3, 585, Note_on_c, 1, 63, 0
3, 605, Note_on_c, 1, 67, 62
3, 608, Note_on_c, 1, 59, 44
3, 608, Note_on_c, 1, 62, 50
3, 609, Note_on_c, 1, 56, 37
3, 609, Note_on_c, 1, 46, 39
3, 613, Control_c, 1, 64, 0
3, 628, Note_on_c, 1, 56, 0
3, 634, Note_on_c, 1, 46, 0
3, 638, Control_c, 1, 64, 127
3, 650, Note_on_c, 1, 59, 0
3, 662, Note_on_c, 1, 62, 0
3, 671, Note_on_c, 1, 67, 0
3, 726, Note_on_c, 1, 40, 50
3, 726, Note_on_c, 1, 66, 52
3, 727, Note_on_c, 1, 69, 62
3, 727, Note_on_c, 1, 62, 67
3, 729, Note_on_c, 1, 55, 52
3, 729, Note_on_c, 1, 47, 24
3, 732, Control_c, 1, 64, 0
3, 761, Control_c, 1, 64, 127
3, 765, Note_on_c, 1, 40, 0
3, 769, Note_on_c, 1, 47, 0
3, 783, Note_on_c, 1, 55, 0
3, 792, Note_on_c, 1, 62, 0
3, 793, Note_on_c, 1, 69, 0
3, 806, Note_on_c, 1, 66, 0
3, 845, Note_on_c, 1, 67, 54
3, 848, Note_on_c, 1, 61, 46
3, 848, Note_on_c, 1, 45, 37
3, 848, Note_on_c, 1, 58, 39
3, 849, Note_on_c, 1, 55, 38
3, 849, Control_c, 1, 64, 0
3, 852, Note_on_c, 1, 64, 34
3, 865, Note_on_c, 1, 55, 0
3, 870, Note_on_c, 1, 45, 0
3, 876, Control_c, 1, 64, 127
3, 904, Note_on_c, 1, 58, 0
3, 905, Note_on_c, 1, 67, 0
3, 907, Note_on_c, 1, 61, 0
3, 913, Note_on_c, 1, 64, 0
3, 966, Note_on_c, 1, 68, 44
3, 966, Note_on_c, 1, 61, 42
3, 967, Note_on_c, 1, 54, 33
3, 968, Note_on_c, 1, 39, 35
3, 970, Control_c, 1, 64, 0
3, 970, Note_on_c, 1, 65, 50
3, 999, Control_c, 1, 64, 127
3, 1029, Note_on_c, 1, 54, 0
3, 1031, Note_on_c, 1, 65, 0
3, 1036, Note_on_c, 1, 61, 0
3, 1081, Note_on_c, 1, 39, 0
3, 1087, Note_on_c, 1, 61, 39
3, 1087, Note_on_c, 1, 65, 40
3, 1089, Note_on_c, 1, 54, 33
3, 1172, Note_on_c, 1, 61, 0
3, 1181, Note_on_c, 1, 54, 0
3, 1184, Note_on_c, 1, 65, 0
3, 1204, Note_on_c, 1, 60, 71
3, 1204, Note_on_c, 1, 54, 46
3, 1207, Note_on_c, 1, 44, 32
3, 1208, Control_c, 1, 64, 0
3, 1211, Note_on_c, 1, 65, 32
3, 1234, Control_c, 1, 64, 127
3, 1239, Note_on_c, 1, 65, 0
3, 1270, Note_on_c, 1, 68, 0
3, 1294, Note_on_c, 1, 60, 0
3, 1299, Note_on_c, 1, 54, 0
3, 1326, Note_on_c, 1, 72, 37
3, 1327, Note_on_c, 1, 65, 40
3, 1327, Note_on_c, 1, 54, 29
3, 1328, Note_on_c, 1, 60, 36
3, 1353, Note_on_c, 1, 44, 0
3, 1361, Note_on_c, 1, 54, 0
3, 1386, Note_on_c, 1, 60, 0
3, 1408, Note_on_c, 1, 65, 0
3, 1413, Note_on_c, 1, 72, 0
3, 1450, Note_on_c, 1, 63, 54
3, 1452, Note_on_c, 1, 57, 53
3, 1454, Note_on_c, 1, 47, 36
3, 1457, Control_c, 1, 64, 0
3, 1491, Control_c, 1, 64, 127
3, 1518, Note_on_c, 1, 57, 0
3, 1544, Note_on_c, 1, 63, 0
3, 1566, Note_on_c, 1, 63, 61
3, 1568, Note_on_c, 1, 68, 44
3, 1569, Note_on_c, 1, 57, 40
3, 1572, Control_c, 1, 64, 0
3, 1595, Control_c, 1, 64, 127
3, 1614, Note_on_c, 1, 47, 0
3, 1621, Note_on_c, 1, 57, 0
3, 1644, Note_on_c, 1, 68, 0
3, 1660, Note_on_c, 1, 63, 0
3, 1684, Note_on_c, 1, 63, 57
3, 1686, Note_on_c, 1, 60, 51
3, 1686, Note_on_c, 1, 66, 46
3, 1687, Note_on_c, 1, 56, 33
3, 1689, Note_on_c, 1, 46, 27
3, 1694, Control_c, 1, 64, 0
3, 1721, Control_c, 1, 64, 127
3, 1762, Note_on_c, 1, 56, 0
3, 1763, Note_on_c, 1, 60, 0
3, 1783, Note_on_c, 1, 63, 0
3, 1797, Note_on_c, 1, 66, 0
3, 1805, Note_on_c, 1, 62, 49
3, 1805, Note_on_c, 1, 65, 60
3, 1809, Note_on_c, 1, 56, 29
3, 1813, Control_c, 1, 64, 0
3, 1835, Note_on_c, 1, 56, 0
3, 1839, Control_c, 1, 64, 127
3, 1851, Note_on_c, 1, 46, 0
3, 1881, Note_on_c, 1, 56, 51
3, 1909, Note_on_c, 1, 62, 0
3, 1911, Note_on_c, 1, 65, 0
3, 1915, Note_on_c, 1, 56, 0
3, 1925, Note_on_c, 1, 55, 56
3, 1927, Note_on_c, 1, 39, 32
3, 1928, Note_on_c, 1, 46, 27
3, 1929, Control_c, 1, 64, 0
3, 1958, Control_c, 1, 64, 127
3, 2039, Note_on_c, 1, 51, 35
3, 2074, Note_on_c, 1, 39, 0
3, 2080, Note_on_c, 1, 55, 0
3, 2083, Note_on_c, 1, 60, 53
3, 2104, Note_on_c, 1, 60, 0
3, 2106, Note_on_c, 1, 51, 0
3, 2111, Control_c, 1, 64, 0
3, 2121, Note_on_c, 1, 39, 36
3, 2122, Note_on_c, 1, 55, 48
3, 2128, Control_c, 1, 64, 127
3, 2154, Note_on_c, 1, 39, 0
3, 2159, Note_on_c, 1, 55, 0
3, 2160, Control_c, 1, 64, 0
3, 2161, Note_on_c, 1, 46, 0
3, 2164, Note_on_c, 1, 54, 50
3, 2165, Note_on_c, 1, 38, 52
3, 2181, Control_c, 1, 64, 127
3, 2188, Note_on_c, 1, 38, 0
3, 2195, Note_on_c, 1, 54, 0
3, 2279, Note_on_c, 1, 66, 42
3, 2281, Note_on_c, 1, 54, 32
3, 2282, Note_on_c, 1, 72, 35
3, 2283, Note_on_c, 1, 60, 40
3, 2293, Note_on_c, 1, 60, 0
3, 2301, Note_on_c, 1, 72, 0
3, 2308, Note_on_c, 1, 54, 0
3, 2312, Note_on_c, 1, 66, 0
3, 2405, Note_on_c, 1, 37, 45
3, 2409, Control_c, 1, 64, 0
3, 2481, Note_on_c, 1, 61, 56
3, 2483, Note_on_c, 1, 53, 53
3, 2483, Note_on_c, 1, 56, 47
3, 2484, Note_on_c, 1, 44, 37
3, 2485, Note_on_c, 1, 58, 47
3, 2490, Control_c, 1, 64, 127
3, 2518, Note_on_c, 1, 37, 0
3, 2532, Note_on_c, 1, 53, 0
3, 2538, Note_on_c, 1, 56, 0
3, 2540, Note_on_c, 1, 58, 0
3, 2541, Note_on_c, 1, 44, 0
3, 2543, Note_on_c, 1, 61, 0
3, 2589, Note_on_c, 1, 72, 72
3, 2607, Note_on_c, 1, 72, 0
3, 2643, Note_on_c, 1, 75, 68
3, 2644, Note_on_c, 1, 67, 64
3, 2645, Note_on_c, 1, 64, 61
3, 2645, Note_on_c, 1, 51, 44
3, 2646, Note_on_c, 1, 70, 48
3, 2647, Note_on_c, 1, 60, 53
3, 2648, Control_c, 1, 64, 0
3, 2671, Control_c, 1, 64, 127
3, 2674, Note_on_c, 1, 75, 0
3, 2692, Note_on_c, 1, 67, 0
3, 2703, Note_on_c, 1, 70, 0
3, 2704, Note_on_c, 1, 60, 0
3, 2711, Note_on_c, 1, 64, 0
3, 2764, Note_on_c, 1, 72, 64
3, 2766, Note_on_c, 1, 65, 64
3, 2766, Note_on_c, 1, 58, 48
3, 2766, Note_on_c, 1, 61, 54
3, 2767, Note_on_c, 1, 69, 50
3, 2768, Control_c, 1, 64, 0
3, 2796, Control_c, 1, 64, 127
3, 2824, Note_on_c, 1, 51, 0
3, 2825, Note_on_c, 1, 58, 0
3, 2841, Note_on_c, 1, 65, 0
3, 2845, Note_on_c, 1, 69, 0
3, 2853, Note_on_c, 1, 72, 0
3, 2861, Note_on_c, 1, 61, 0
3, 2885, Note_on_c, 1, 70, 59
3, 2886, Note_on_c, 1, 66, 57
3, 2887, Note_on_c, 1, 51, 39
3, 2887, Note_on_c, 1, 61, 49
3, 2888, Control_c, 1, 64, 0
3, 2888, Note_on_c, 1, 58, 42
3, 2920, Control_c, 1, 64, 127
3, 2949, Note_on_c, 1, 58, 0
3, 2963, Note_on_c, 1, 61, 0
3, 2968, Note_on_c, 1, 66, 0
3, 2997, Note_on_c, 1, 51, 0
3, 3002, Note_on_c, 1, 70, 0
3, 3004, Note_on_c, 1, 61, 42
3, 3004, Note_on_c, 1, 66, 49
3, 3006, Note_on_c, 1, 58, 29
3, 3016, Note_on_c, 1, 58, 0
3, 3076, Note_on_c, 1, 61, 0
3, 3087, Note_on_c, 1, 66, 0
3, 3125, Note_on_c, 1, 65, 50
3, 3126, Note_on_c, 1, 54, 31
3, 3127, Note_on_c, 1, 60, 42
3, 3129, Note_on_c, 1, 44, 25
3, 3133, Control_c, 1, 64, 0
3, 3161, Control_c, 1, 64, 127
3, 3205, Note_on_c, 1, 65, 0
3, 3218, Note_on_c, 1, 54, 0
3, 3224, Note_on_c, 1, 60, 0
3, 3246, Note_on_c, 1, 63, 38
3, 3247, Note_on_c, 1, 54, 32
3, 3250, Note_on_c, 1, 60, 35
3, 3275, Note_on_c, 1, 60, 0
3, 3277, Note_on_c, 1, 54, 0
3, 3281, Note_on_c, 1, 44, 0
3, 3301, Note_on_c, 1, 63, 0
3, 3363, Note_on_c, 1, 41, 42
3, 3365, Note_on_c, 1, 68, 49
3, 3367, Note_on_c, 1, 63, 45
3, 3368, Control_c, 1, 64, 0
3, 3368, Note_on_c, 1, 56, 26
3, 3369, Note_on_c, 1, 53, 19
3, 3390, Control_c, 1, 64, 127
3, 3408, Note_on_c, 1, 53, 0
3, 3408, Note_on_c, 1, 41, 0
3, 3409, Note_on_c, 1, 68, 0
3, 3413, Note_on_c, 1, 56, 0
3, 3422, Note_on_c, 1, 63, 0
3, 3483, Note_on_c, 1, 70, 48
3, 3485, Note_on_c, 1, 56, 38
3, 3485, Note_on_c, 1, 40, 43
3, 3486, Note_on_c, 1, 63, 39
3, 3488, Note_on_c, 1, 52, 30
3, 3490, Control_c, 1, 64, 0
3, 3511, Note_on_c, 1, 40, 0
3, 3512, Control_c, 1, 64, 127
3, 3513, Note_on_c, 1, 52, 0
3, 3524, Note_on_c, 1, 56, 0
3, 3546, Note_on_c, 1, 63, 0
3, 3579, Note_on_c, 1, 70, 0
3, 3610, Note_on_c, 1, 39, 38
3, 3611, Note_on_c, 1, 54, 33
3, 3611, Note_on_c, 1, 61, 35
3, 3612, Note_on_c, 1, 65, 45
3, 3615, Control_c, 1, 64, 0
3, 3639, Control_c, 1, 64, 127
3, 3643, Note_on_c, 1, 39, 0
3, 3666, Note_on_c, 1, 54, 0
3, 3666, Note_on_c, 1, 65, 0
3, 3671, Note_on_c, 1, 61, 0
3, 3727, Note_on_c, 1, 68, 35
3, 3728, Note_on_c, 1, 59, 35
3, 3728, Note_on_c, 1, 64, 41
3, 3729, Note_on_c, 1, 54, 31
3, 3729, Note_on_c, 1, 50, 28
3, 3733, Control_c, 1, 64, 0
3, 3759, Control_c, 1, 64, 127
3, 3777, Note_on_c, 1, 50, 0
3, 3777, Note_on_c, 1, 54, 0
3, 3779, Note_on_c, 1, 64, 0
3, 3789, Note_on_c, 1, 59, 0
3, 3833, Note_on_c, 1, 68, 0
3, 3841, Control_c, 1, 64, 0
3, 3845, Note_on_c, 1, 53, 39
3, 3845, Note_on_c, 1, 43, 34
3, 3846, Note_on_c, 1, 62, 47
3, 3847, Note_on_c, 1, 58, 33
3, 3861, Control_c, 1, 64, 127
3, 3869, Note_on_c, 1, 58, 0
3, 3869, Note_on_c, 1, 43, 0
3, 3872, Note_on_c, 1, 62, 0
3, 3880, Note_on_c, 1, 53, 0
3, 3906, Note_on_c, 1, 72, 56
3, 3925, Note_on_c, 1, 72, 0
3, 3962, Note_on_c, 1, 75, 55
3, 3965, Note_on_c, 1, 68, 53
3, 3965, Note_on_c, 1, 58, 46
3, 3966, Note_on_c, 1, 72, 39
3, 3966, Note_on_c, 1, 64, 62
3, 3967, Control_c, 1, 64, 0
3, 3988, Control_c, 1, 64, 127
3, 4011, Note_on_c, 1, 72, 0
3, 4018, Note_on_c, 1, 75, 0
3, 4023, Note_on_c, 1, 64, 0
3, 4026, Note_on_c, 1, 58, 0
3, 4028, Note_on_c, 1, 73, 48
3, 4046, Note_on_c, 1, 73, 0
3, 4046, Note_on_c, 1, 68, 0
3, 4086, Note_on_c, 1, 42, 34
3, 4088, Note_on_c, 1, 69, 50
3, 4088, Note_on_c, 1, 52, 34
3, 4089, Note_on_c, 1, 57, 62
3, 4091, Control_c, 1, 64, 0
3, 4113, Control_c, 1, 64, 127
3, 4135, Note_on_c, 1, 42, 0
3, 4138, Note_on_c, 1, 57, 0
3, 4149, Note_on_c, 1, 52, 0
3, 4151, Note_on_c, 1, 64, 58
3, 4154, Note_on_c, 1, 69, 0
3, 4154, Note_on_c, 1, 57, 18
3, 4163, Note_on_c, 1, 57, 0
3, 4185, Note_on_c, 1, 64, 0
3, 4211, Note_on_c, 1, 63, 40
3, 4212, Note_on_c, 1, 57, 37
3, 4214, Note_on_c, 1, 51, 39
3, 4214, Control_c, 1, 64, 0
3, 4237, Control_c, 1, 64, 127
3, 4259, Note_on_c, 1, 57, 0
3, 4264, Note_on_c, 1, 63, 0
3, 4271, Note_on_c, 1, 51, 0
3, 4271, Note_on_c, 1, 66, 63
3, 4273, Note_on_c, 1, 47, 37
3, 4274, Note_on_c, 1, 63, 42
3, 4293, Note_on_c, 1, 63, 0
3, 4294, Note_on_c, 1, 66, 0
3, 4310, Note_on_c, 1, 47, 0
3, 4316, Note_on_c, 1, 51, 19
3, 4327, Note_on_c, 1, 70, 74
3, 4327, Note_on_c, 1, 63, 78
3, 4328, Note_on_c, 1, 51, 0
3, 4328, Note_on_c, 1, 67, 79
3, 4329, Note_on_c, 1, 55, 80
3, 4330, Note_on_c, 1, 60, 77
3, 4331, Control_c, 1, 64, 0
3, 4356, Control_c, 1, 64, 127
3, 4369, Note_on_c, 1, 55, 0
3, 4374, Note_on_c, 1, 60, 0
3, 4376, Note_on_c, 1, 70, 0
3, 4378, Note_on_c, 1, 67, 0
3, 4381, Note_on_c, 1, 63, 0
3, 4388, Note_on_c, 1, 63, 74
3, 4388, Note_on_c, 1, 53, 59
3, 4388, Note_on_c, 1, 68, 65
3, 4390, Note_on_c, 1, 60, 67
3, 4394, Control_c, 1, 64, 0
3, 4408, Control_c, 1, 64, 127
3, 4409, Note_on_c, 1, 53, 0
3, 4420, Note_on_c, 1, 60, 0
3, 4423, Note_on_c, 1, 68, 0
3, 4432, Note_on_c, 1, 63, 0
3, 4447, Note_on_c, 1, 67, 70
3, 4447, Note_on_c, 1, 56, 64
3, 4448, Note_on_c, 1, 62, 65
3, 4449, Note_on_c, 1, 59, 64
3, 4450, Note_on_c, 1, 64, 61
3, 4452, Control_c, 1, 64, 0
3, 4477, Control_c, 1, 64, 127
3, 4508, Note_on_c, 1, 46, 56
3, 4510, Note_on_c, 1, 59, 0
3, 4510, Note_on_c, 1, 56, 0
3, 4515, Note_on_c, 1, 64, 0
3, 4522, Note_on_c, 1, 62, 0
3, 4522, Note_on_c, 1, 46, 0
3, 4526, Note_on_c, 1, 67, 0
3, 4570, Note_on_c, 1, 62, 80
3, 4570, Note_on_c, 1, 69, 75
3, 4571, Note_on_c, 1, 64, 70
3, 4571, Note_on_c, 1, 40, 68
3, 4572, Note_on_c, 1, 50, 68
3, 4572, Control_c, 1, 64, 0
3, 4574, Note_on_c, 1, 57, 58
3, 4574, Note_on_c, 1, 59, 55
3, 4576, Note_on_c, 1, 67, 29
3, 4591, Note_on_c, 1, 67, 0
3, 4598, Note_on_c, 1, 57, 0
3, 4600, Control_c, 1, 64, 127
3, 4618, Note_on_c, 1, 69, 0
3, 4618, Note_on_c, 1, 59, 0
3, 4625, Note_on_c, 1, 64, 0
3, 4627, Note_on_c, 1, 40, 0
3, 4631, Note_on_c, 1, 67, 72
3, 4633, Note_on_c, 1, 59, 62
3, 4636, Note_on_c, 1, 64, 46
3, 4638, Note_on_c, 1, 50, 0
3, 4642, Note_on_c, 1, 64, 0
3, 4647, Note_on_c, 1, 62, 0
3, 4649, Note_on_c, 1, 59, 0
3, 4655, Note_on_c, 1, 67, 0
3, 4690, Note_on_c, 1, 61, 65
3, 4690, Note_on_c, 1, 63, 63
3, 4691, Note_on_c, 1, 45, 57
3, 4692, Control_c, 1, 64, 0
3, 4692, Note_on_c, 1, 58, 51
3, 4693, Note_on_c, 1, 55, 55
3, 4723, Control_c, 1, 64, 127
3, 4735, Note_on_c, 1, 58, 0
3, 4736, Note_on_c, 1, 55, 0
3, 4737, Note_on_c, 1, 45, 0
3, 4740, Note_on_c, 1, 63, 0
3, 4746, Note_on_c, 1, 64, 66
3, 4748, Note_on_c, 1, 58, 49
3, 4759, Note_on_c, 1, 58, 0
3, 4766, Note_on_c, 1, 64, 0
3, 4769, Note_on_c, 1, 61, 0
3, 4803, Note_on_c, 1, 39, 40
3, 4806, Note_on_c, 1, 54, 42
3, 4807, Note_on_c, 1, 65, 66
3, 4807, Note_on_c, 1, 68, 55
3, 4807, Note_on_c, 1, 61, 59
3, 4808, Control_c, 1, 64, 0
3, 4839, Control_c, 1, 64, 127
3, 4865, Note_on_c, 1, 65, 0
3, 4868, Note_on_c, 1, 61, 0
3, 4878, Note_on_c, 1, 39, 0
3, 4888, Note_on_c, 1, 54, 0
3, 4925, Note_on_c, 1, 65, 48
3, 4925, Note_on_c, 1, 54, 25
3, 4926, Note_on_c, 1, 61, 31
3, 4980, Note_on_c, 1, 65, 0
3, 4987, Note_on_c, 1, 61, 0
3, 5010, Note_on_c, 1, 54, 0
3, 5043, Note_on_c, 1, 64, 40
3, 5043, Note_on_c, 1, 60, 40
3, 5043, Note_on_c, 1, 54, 31
3, 5046, Note_on_c, 1, 44, 27
3, 5063, Control_c, 1, 64, 0
3, 5095, Control_c, 1, 64, 127
3, 5117, Note_on_c, 1, 54, 0
3, 5119, Note_on_c, 1, 60, 0
3, 5119, Note_on_c, 1, 64, 0
3, 5162, Note_on_c, 1, 54, 32
3, 5162, Note_on_c, 1, 64, 40
3, 5164, Note_on_c, 1, 60, 34
3, 5202, Note_on_c, 1, 44, 0
3, 5206, Note_on_c, 1, 54, 0
3, 5215, Note_on_c, 1, 64, 0
3, 5224, Note_on_c, 1, 60, 0
3, 5226, Note_on_c, 1, 68, 0
3, 5280, Note_on_c, 1, 61, 40
3, 5280, Note_on_c, 1, 54, 30
3, 5280, Note_on_c, 1, 57, 39
3, 5281, Note_on_c, 1, 65, 43
3, 5283, Control_c, 1, 64, 0
3, 5283, Note_on_c, 1, 47, 31
3, 5284, Note_on_c, 1, 63, 26
3, 5301, Note_on_c, 1, 57, 0
3, 5304, Control_c, 1, 64, 127
3, 5307, Note_on_c, 1, 61, 0
3, 5309, Note_on_c, 1, 47, 0
3, 5310, Note_on_c, 1, 63, 0
3, 5311, Note_on_c, 1, 65, 0
3, 5317, Note_on_c, 1, 54, 0
3, 5358, Note_on_c, 1, 77, 64
3, 5397, Note_on_c, 1, 77, 0
3, 5402, Note_on_c, 1, 72, 41
3, 5403, Note_on_c, 1, 63, 45
3, 5404, Note_on_c, 1, 69, 44
3, 5408, Control_c, 1, 64, 0
3, 5418, Control_c, 1, 64, 127
3, 5453, Note_on_c, 1, 63, 0
3, 5472, Note_on_c, 1, 69, 0
3, 5474, Note_on_c, 1, 72, 0
3, 5477, Note_on_c, 1, 75, 46
3, 5492, Note_on_c, 1, 75, 0
3, 5522, Note_on_c, 1, 74, 56
3, 5522, Note_on_c, 1, 71, 30
3, 5523, Note_on_c, 1, 67, 46
3, 5524, Note_on_c, 1, 62, 44
3, 5525, Note_on_c, 1, 56, 32
3, 5527, Control_c, 1, 64, 0
3, 5557, Control_c, 1, 64, 127
3, 5597, Note_on_c, 1, 71, 0
3, 5597, Note_on_c, 1, 74, 0
3, 5601, Note_on_c, 1, 46, 42
3, 5605, Note_on_c, 1, 56, 0
3, 5605, Note_on_c, 1, 67, 0
3, 5610, Note_on_c, 1, 62, 0
3, 5649, Note_on_c, 1, 66, 38
3, 5652, Note_on_c, 1, 62, 33
3, 5652, Control_c, 1, 64, 0
3, 5654, Note_on_c, 1, 56, 30
3, 5659, Note_on_c, 1, 66, 0
3, 5661, Note_on_c, 1, 67, 50
3, 5678, Control_c, 1, 64, 127
3, 5691, Note_on_c, 1, 71, 63
3, 5707, Note_on_c, 1, 56, 0
3, 5715, Note_on_c, 1, 46, 0
3, 5719, Note_on_c, 1, 71, 0
3, 5723, Note_on_c, 1, 62, 0
3, 5749, Note_on_c, 1, 67, 0
3, 5764, Note_on_c, 1, 70, 48
3, 5766, Note_on_c, 1, 61, 35
3, 5767, Control_c, 1, 64, 0
3, 5768, Note_on_c, 1, 46, 29
3, 5768, Note_on_c, 1, 39, 33
3, 5793, Control_c, 1, 64, 127
3, 5796, Note_on_c, 1, 39, 0
3, 5802, Note_on_c, 1, 46, 0
3, 5812, Note_on_c, 1, 61, 0
3, 5829, Note_on_c, 1, 70, 0
3, 5883, Note_on_c, 1, 61, 45
3, 5888, Note_on_c, 1, 55, 30
3, 5907, Note_on_c, 1, 61, 0
3, 5909, Note_on_c, 1, 55, 0
3, 6005, Note_on_c, 1, 66, 57
3, 6007, Note_on_c, 1, 54, 29
3, 6007, Note_on_c, 1, 50, 36
3, 6007, Note_on_c, 1, 60, 31
3, 6009, Control_c, 1, 64, 0
3, 6031, Control_c, 1, 64, 127
3, 6035, Note_on_c, 1, 60, 0
3, 6050, Note_on_c, 1, 50, 0
3, 6053, Note_on_c, 1, 54, 0
3, 6128, Note_on_c, 1, 54, 77
3, 6131, Note_on_c, 1, 45, 45
3, 6135, Note_on_c, 1, 63, 27
3, 6137, Control_c, 1, 64, 0
3, 6140, Note_on_c, 1, 45, 0
3, 6144, Control_c, 1, 64, 127
3, 6148, Note_on_c, 1, 66, 0
3, 6204, Note_on_c, 1, 44, 21
3, 6229, Note_on_c, 1, 44, 0
3, 6240, Note_on_c, 1, 54, 0
3, 6246, Note_on_c, 1, 53, 52
3, 6253, Note_on_c, 1, 44, 27
3, 6253, Control_c, 1, 64, 0
3, 6256, Note_on_c, 1, 37, 20
3, 6266, Note_on_c, 1, 63, 0
3, 6274, Control_c, 1, 64, 127
3, 6332, Note_on_c, 1, 44, 0
3, 6362, Note_on_c, 1, 44, 31
3, 6388, Note_on_c, 1, 37, 0
3, 6413, Note_on_c, 1, 44, 0
3, 6414, Note_on_c, 1, 53, 0
3, 6484, Note_on_c, 1, 61, 46
3, 6486, Note_on_c, 1, 55, 53
3, 6487, Note_on_c, 1, 51, 32
3, 6488, Note_on_c, 1, 39, 29
3, 6489, Control_c, 1, 64, 0
3, 6518, Control_c, 1, 64, 127
3, 6550, Note_on_c, 1, 51, 0
3, 6557, Note_on_c, 1, 55, 0
3, 6601, Note_on_c, 1, 51, 37
3, 6602, Note_on_c, 1, 55, 43
3, 6609, Note_on_c, 1, 55, 0
3, 6611, Note_on_c, 1, 61, 0
3, 6613, Note_on_c, 1, 39, 0
3, 6621, Note_on_c, 1, 51, 0
3, 6680, Control_c, 1, 64, 0
3, 6680, Note_on_c, 1, 77, 83
3, 6681, Note_on_c, 1, 70, 81
3, 6682, Note_on_c, 1, 66, 77
3, 6682, Note_on_c, 1, 73, 45
3, 6683, Note_on_c, 1, 65, 81
3, 6695, Control_c, 1, 64, 127
3, 6714, Note_on_c, 1, 70, 0
3, 6715, Note_on_c, 1, 66, 0
3, 6719, Note_on_c, 1, 73, 0
3, 6720, Note_on_c, 1, 77, 0
3, 6728, Note_on_c, 1, 65, 0
3, 6730, Note_on_c, 1, 75, 46
3, 6730, Note_on_c, 1, 66, 44
3, 6731, Control_c, 1, 64, 0
3, 6731, Note_on_c, 1, 70, 38
3, 6731, Note_on_c, 1, 63, 51
3, 6732, Note_on_c, 1, 73, 19
3, 6750, Control_c, 1, 64, 127
3, 6783, Note_on_c, 1, 73, 0
3, 6786, Note_on_c, 1, 70, 0
3, 6786, Note_on_c, 1, 63, 0
3, 6795, Note_on_c, 1, 66, 0
3, 6824, Note_on_c, 1, 75, 0
3, 6842, Note_on_c, 1, 63, 43
3, 6843, Note_on_c, 1, 66, 45
3, 6843, Note_on_c, 1, 73, 34
3, 6845, Note_on_c, 1, 70, 44
3, 6857, Note_on_c, 1, 63, 0
3, 6878, Note_on_c, 1, 70, 0
3, 6881, Note_on_c, 1, 66, 0
3, 6902, Note_on_c, 1, 73, 0
3, 6962, Note_on_c, 1, 65, 48
3, 6965, Note_on_c, 1, 54, 32
3, 6965, Note_on_c, 1, 60, 29
3, 6966, Note_on_c, 1, 44, 29
3, 6968, Control_c, 1, 64, 0
3, 6996, Control_c, 1, 64, 127
3, 7039, Note_on_c, 1, 60, 0
3, 7042, Note_on_c, 1, 44, 0
3, 7045, Note_on_c, 1, 54, 0
3, 7049, Note_on_c, 1, 65, 0
3, 7083, Note_on_c, 1, 54, 23
3, 7084, Note_on_c, 1, 44, 29
3, 7085, Note_on_c, 1, 60, 43
3, 7093, Note_on_c, 1, 54, 0
3, 7100, Note_on_c, 1, 60, 0
3, 7103, Note_on_c, 1, 44, 0
3, 7203, Note_on_c, 1, 37, 37
3, 7204, Note_on_c, 1, 44, 43
3, 7205, Note_on_c, 1, 53, 55
3, 7207, Note_on_c, 1, 61, 36
3, 7211, Control_c, 1, 64, 0
3, 7238, Note_on_c, 1, 53, 0
3, 7241, Note_on_c, 1, 54, 56
3, 7241, Note_on_c, 1, 45, 55
3, 7243, Note_on_c, 1, 44, 0
3, 7249, Note_on_c, 1, 37, 0
3, 7276, Note_on_c, 1, 46, 50
3, 7279, Note_on_c, 1, 45, 0
3, 7279, Note_on_c, 1, 55, 50
3, 7284, Note_on_c, 1, 54, 0
3, 7306, Note_on_c, 1, 61, 0
3, 7312, Note_on_c, 1, 55, 0
3, 7316, Note_on_c, 1, 47, 44
3, 7318, Note_on_c, 1, 56, 42
3, 7323, Note_on_c, 1, 46, 0
3, 7352, Note_on_c, 1, 56, 0
3, 7354, Note_on_c, 1, 47, 0
3, 7354, Note_on_c, 1, 48, 46
3, 7356, Note_on_c, 1, 57, 37
3, 7392, Note_on_c, 1, 57, 0
3, 7394, Note_on_c, 1, 48, 0
3, 7395, Note_on_c, 1, 49, 51
3, 7396, Note_on_c, 1, 58, 45
3, 7430, Note_on_c, 1, 49, 0
3, 7432, Note_on_c, 1, 58, 0
3, 7437, Note_on_c, 1, 59, 40
3, 7438, Note_on_c, 1, 50, 37
3, 7478, Note_on_c, 1, 51, 46
3, 7482, Note_on_c, 1, 59, 0
3, 7482, Note_on_c, 1, 60, 54
3, 7483, Note_on_c, 1, 50, 0
3, 7508, Note_on_c, 1, 60, 0
3, 7516, Note_on_c, 1, 52, 64
3, 7517, Note_on_c, 1, 61, 71
3, 7554, Note_on_c, 1, 51, 0
3, 7555, Note_on_c, 1, 61, 0
3, 7556, Note_on_c, 1, 52, 0
3, 7557, Note_on_c, 1, 53, 75
3, 7558, Note_on_c, 1, 62, 89
3, 7575, Control_c, 1, 64, 127
3, 7590, Note_on_c, 1, 62, 0
3, 7592, Control_c, 1, 64, 0
3, 7596, Note_on_c, 1, 54, 67
3, 7597, Note_on_c, 1, 53, 0
3, 7597, Note_on_c, 1, 63, 79
3, 7600, Note_on_c, 1, 62, 38
3, 7603, Control_c, 1, 64, 127
3, 7606, Note_on_c, 1, 62, 0
3, 7614, Note_on_c, 1, 54, 0
3, 7620, Control_c, 1, 64, 0
3, 7629, Note_on_c, 1, 63, 0
3, 7635, Note_on_c, 1, 64, 74
3, 7638, Control_c, 1, 64, 127
3, 7659, Note_on_c, 1, 64, 0
3, 7660, Note_on_c, 1, 65, 72
3, 7679, Control_c, 1, 64, 0
3, 7681, Note_on_c, 1, 65, 0
3, 7681, Note_on_c, 1, 39, 1
3, 7685, Note_on_c, 1, 54, 50
3, 7687, Note_on_c, 1, 66, 55
3, 7702, Control_c, 1, 64, 127
3, 7727, Note_on_c, 1, 39, 0
3, 7746, Note_on_c, 1, 54, 0
3, 7804, Note_on_c, 1, 61, 43
3, 7806, Note_on_c, 1, 56, 31
3, 7821, Note_on_c, 1, 56, 0
3, 7901, Note_on_c, 1, 61, 0
3, 7920, Note_on_c, 1, 54, 39
3, 7923, Note_on_c, 1, 44, 34
3, 7923, Note_on_c, 1, 60, 47
3, 7924, Control_c, 1, 64, 0
3, 7939, Note_on_c, 1, 66, 0
3, 7944, Control_c, 1, 64, 127
3, 7968, Note_on_c, 1, 54, 0
3, 7979, Note_on_c, 1, 44, 0
3, 8021, Note_on_c, 1, 60, 0
3, 8045, Note_on_c, 1, 58, 91
3, 8046, Note_on_c, 1, 52, 62
3, 8046, Note_on_c, 1, 42, 57
3, 8056, Control_c, 1, 64, 0
3, 8076, Control_c, 1, 64, 127
3, 8105, Note_on_c, 1, 58, 0
3, 8116, Note_on_c, 1, 57, 74
3, 8117, Note_on_c, 1, 52, 0
3, 8133, Note_on_c, 1, 42, 0
3, 8153, Note_on_c, 1, 57, 0
3, 8156, Control_c, 1, 64, 0
3, 8161, Note_on_c, 1, 56, 60
3, 8162, Note_on_c, 1, 41, 48
3, 8163, Note_on_c, 1, 51, 36
3, 8181, Control_c, 1, 64, 127
3, 8203, Note_on_c, 1, 56, 0
3, 8236, Note_on_c, 1, 41, 0
3, 8239, Note_on_c, 1, 51, 0
3, 8289, Note_on_c, 1, 68, 46
3, 8290, Note_on_c, 1, 60, 50
3, 8290, Note_on_c, 1, 63, 46
3, 8291, Note_on_c, 1, 65, 45
3, 8354, Note_on_c, 1, 65, 0
3, 8355, Note_on_c, 1, 68, 0
3, 8360, Note_on_c, 1, 60, 0
3, 8378, Note_on_c, 1, 63, 0
3, 8411, Note_on_c, 1, 67, 51
3, 8413, Note_on_c, 1, 62, 44
3, 8414, Note_on_c, 1, 59, 38
3, 8414, Note_on_c, 1, 56, 32
3, 8415, Note_on_c, 1, 64, 41
3, 8416, Note_on_c, 1, 46, 28
3, 8417, Control_c, 1, 64, 0
3, 8434, Control_c, 1, 64, 127
3, 8439, Note_on_c, 1, 59, 0
3, 8442, Note_on_c, 1, 64, 0
3, 8443, Note_on_c, 1, 62, 0
3, 8449, Note_on_c, 1, 67, 0
3, 8455, Note_on_c, 1, 46, 0
3, 8462, Note_on_c, 1, 56, 0
3, 8490, Note_on_c, 1, 74, 87
3, 8519, Note_on_c, 1, 74, 0
3, 8533, Note_on_c, 1, 71, 53
3, 8534, Note_on_c, 1, 62, 53
3, 8535, Note_on_c, 1, 67, 62
3, 8537, Control_c, 1, 64, 0
3, 8537, Note_on_c, 1, 56, 39
3, 8550, Control_c, 1, 64, 127
3, 8560, Note_on_c, 1, 56, 0
3, 8581, Note_on_c, 1, 62, 0
3, 8606, Note_on_c, 1, 71, 0
3, 8607, Note_on_c, 1, 62, 37
3, 8613, Note_on_c, 1, 67, 0
3, 8618, Note_on_c, 1, 62, 0
3, 8648, Note_on_c, 1, 39, 37
3, 8648, Note_on_c, 1, 70, 49
3, 8649, Control_c, 1, 64, 0
3, 8649, Note_on_c, 1, 66, 50
3, 8650, Note_on_c, 1, 54, 29
3, 8651, Note_on_c, 1, 61, 34
3, 8668, Control_c, 1, 64, 127
3, 8678, Note_on_c, 1, 39, 0
3, 8690, Note_on_c, 1, 61, 0
3, 8696, Note_on_c, 1, 54, 0
3, 8703, Note_on_c, 1, 66, 0
3, 8704, Note_on_c, 1, 70, 0
3, 8765, Note_on_c, 1, 65, 44
3, 8768, Note_on_c, 1, 54, 17
3, 8770, Note_on_c, 1, 58, 35
3, 8772, Note_on_c, 1, 61, 25
3, 8788, Note_on_c, 1, 65, 0
3, 8797, Note_on_c, 1, 54, 0
3, 8798, Note_on_c, 1, 61, 0
3, 8805, Note_on_c, 1, 58, 0
3, 8839, Note_on_c, 1, 73, 62
3, 8863, Note_on_c, 1, 73, 0
3, 8884, Note_on_c, 1, 72, 57
3, 8885, Note_on_c, 1, 65, 45
3, 8886, Note_on_c, 1, 54, 39
3, 8888, Note_on_c, 1, 60, 43
3, 8889, Note_on_c, 1, 69, 39
3, 8889, Note_on_c, 1, 44, 29
3, 8894, Control_c, 1, 64, 0
3, 8931, Control_c, 1, 64, 127
3, 8950, Note_on_c, 1, 69, 0
3, 8963, Note_on_c, 1, 65, 0
3, 8964, Note_on_c, 1, 60, 0
3, 8970, Note_on_c, 1, 54, 0
3, 8974, Note_on_c, 1, 72, 0
3, 9008, Note_on_c, 1, 54, 42
3, 9050, Note_on_c, 1, 44, 0
3, 9077, Note_on_c, 1, 44, 44
3, 9079, Note_on_c, 1, 69, 63
3, 9082, Note_on_c, 1, 65, 38
3, 9083, Note_on_c, 1, 60, 29
3, 9090, Note_on_c, 1, 54, 0
3, 9091, Note_on_c, 1, 65, 0
3, 9092, Note_on_c, 1, 60, 0
3, 9103, Note_on_c, 1, 69, 0
3, 9104, Note_on_c, 1, 44, 0
3, 9126, Control_c, 1, 64, 0
3, 9127, Note_on_c, 1, 68, 47
3, 9127, Note_on_c, 1, 60, 45
3, 9128, Note_on_c, 1, 65, 51
3, 9128, Note_on_c, 1, 56, 33
3, 9130, Note_on_c, 1, 49, 38
3, 9150, Control_c, 1, 64, 127
3, 9151, Note_on_c, 1, 60, 0
3, 9155, Note_on_c, 1, 65, 0
3, 9159, Note_on_c, 1, 68, 0
3, 9166, Note_on_c, 1, 49, 0
3, 9171, Note_on_c, 1, 56, 0
3, 9199, Note_on_c, 1, 75, 69
3, 9199, Note_on_c, 1, 68, 67
3, 9200, Note_on_c, 1, 60, 64
3, 9201, Note_on_c, 1, 65, 62
3, 9214, Note_on_c, 1, 65, 0
3, 9216, Note_on_c, 1, 68, 0
3, 9221, Note_on_c, 1, 75, 0
3, 9222, Note_on_c, 1, 60, 0
3, 9250, Note_on_c, 1, 79, 66
3, 9252, Note_on_c, 1, 67, 68
3, 9253, Note_on_c, 1, 68, 34
3, 9254, Note_on_c, 1, 75, 46
3, 9254, Note_on_c, 1, 72, 57
3, 9254, Control_c, 1, 64, 0
3, 9274, Control_c, 1, 64, 127
3, 9290, Note_on_c, 1, 79, 0
3, 9291, Note_on_c, 1, 67, 0
3, 9298, Note_on_c, 1, 72, 0
3, 9303, Note_on_c, 1, 68, 0
3, 9304, Note_on_c, 1, 75, 0
3, 9319, Note_on_c, 1, 65, 54
3, 9320, Note_on_c, 1, 68, 52
3, 9320, Note_on_c, 1, 77, 62
3, 9320, Note_on_c, 1, 72, 58
3, 9324, Control_c, 1, 64, 0
3, 9338, Control_c, 1, 64, 127
3, 9343, Note_on_c, 1, 72, 0
3, 9344, Note_on_c, 1, 65, 0
3, 9346, Note_on_c, 1, 77, 0
3, 9349, Note_on_c, 1, 68, 0
3, 9372, Note_on_c, 1, 75, 46
3, 9374, Note_on_c, 1, 61, 55
3, 9374, Note_on_c, 1, 68, 42
3, 9376, Control_c, 1, 64, 0
3, 9377, Note_on_c, 1, 65, 43
3, 9381, Note_on_c, 1, 72, 26
3, 9389, Control_c, 1, 64, 127
3, 9392, Note_on_c, 1, 72, 0
3, 9395, Note_on_c, 1, 68, 0
3, 9395, Note_on_c, 1, 61, 0
3, 9396, Note_on_c, 1, 75, 0
3, 9399, Note_on_c, 1, 65, 0
3, 9435, Control_c, 1, 64, 0
3, 9436, Note_on_c, 1, 65, 56
3, 9436, Note_on_c, 1, 72, 55
3, 9438, Note_on_c, 1, 68, 46
3, 9438, Note_on_c, 1, 60, 47
3, 9447, Control_c, 1, 64, 127
3, 9454, Note_on_c, 1, 72, 0
3, 9459, Note_on_c, 1, 68, 0
3, 9460, Note_on_c, 1, 65, 0
3, 9461, Note_on_c, 1, 60, 0
3, 9487, Control_c, 1, 64, 0
3, 9490, Note_on_c, 1, 68, 45
3, 9492, Note_on_c, 1, 56, 37
3, 9492, Note_on_c, 1, 65, 49
3, 9493, Note_on_c, 1, 60, 49
3, 9497, Control_c, 1, 64, 127
3, 9509, Note_on_c, 1, 65, 0
3, 9524, Note_on_c, 1, 60, 0
3, 9545, Note_on_c, 1, 56, 0
3, 9558, Note_on_c, 1, 65, 51
3, 9559, Note_on_c, 1, 53, 34
3, 9580, Note_on_c, 1, 65, 0
3, 9599, Note_on_c, 1, 53, 0
3, 9605, Control_c, 1, 64, 0
3, 9606, Note_on_c, 1, 63, 40
3, 9606, Note_on_c, 1, 61, 34
3, 9607, Note_on_c, 1, 51, 40
3, 9633, Control_c, 1, 64, 127
3, 9682, Note_on_c, 1, 61, 0
3, 9684, Note_on_c, 1, 63, 0
3, 9721, Note_on_c, 1, 61, 32
3, 9723, Note_on_c, 1, 63, 37
3, 9726, Note_on_c, 1, 58, 30
3, 9742, Note_on_c, 1, 58, 0
3, 9756, Note_on_c, 1, 51, 0
3, 9773, Note_on_c, 1, 63, 0
3, 9788, Note_on_c, 1, 61, 0
3, 9802, Note_on_c, 1, 53, 34
3, 9830, Note_on_c, 1, 53, 0
3, 9836, Note_on_c, 1, 68, 0
3, 9837, Control_c, 1, 64, 0
3, 9841, Note_on_c, 1, 61, 36
3, 9842, Note_on_c, 1, 65, 49
3, 9843, Note_on_c, 1, 56, 28
3, 9844, Note_on_c, 1, 46, 28
3, 9854, Control_c, 1, 64, 127
3, 9865, Note_on_c, 1, 46, 0
3, 9867, Note_on_c, 1, 61, 0
3, 9871, Note_on_c, 1, 65, 0
3, 9873, Note_on_c, 1, 56, 0
3, 9924, Note_on_c, 1, 84, 75
3, 9929, Note_on_c, 1, 72, 58
3, 9949, Note_on_c, 1, 84, 0
3, 9954, Note_on_c, 1, 72, 0
3, 9965, Control_c, 1, 64, 0
3, 9967, Note_on_c, 1, 61, 35
3, 9967, Note_on_c, 1, 65, 36
3, 9968, Note_on_c, 1, 84, 62
3, 9969, Note_on_c, 1, 56, 26
3, 9970, Control_c, 1, 64, 127
3, 9970, Note_on_c, 1, 72, 51
3, 9972, Note_on_c, 1, 60, 31
3, 9989, Note_on_c, 1, 84, 0
3, 9991, Note_on_c, 1, 72, 0
3, 9998, Note_on_c, 1, 65, 0
3, 10002, Note_on_c, 1, 60, 0
3, 10006, Note_on_c, 1, 85, 63
3, 10007, Note_on_c, 1, 73, 42
3, 10008, Note_on_c, 1, 56, 0
3, 10008, Note_on_c, 1, 61, 0
3, 10027, Note_on_c, 1, 73, 0
3, 10029, Note_on_c, 1, 85, 0
3, 10046, Note_on_c, 1, 87, 70
3, 10047, Note_on_c, 1, 75, 48
3, 10064, Note_on_c, 1, 75, 0
3, 10065, Note_on_c, 1, 87, 0
3, 10084, Note_on_c, 1, 39, 26
3, 10086, Note_on_c, 1, 54, 37
3, 10088, Note_on_c, 1, 85, 33
3, 10089, Note_on_c, 1, 73, 21
3, 10090, Control_c, 1, 64, 0
3, 10094, Note_on_c, 1, 85, 0
3, 10097, Note_on_c, 1, 73, 0
3, 10108, Control_c, 1, 64, 127
3, 10124, Note_on_c, 1, 39, 0
3, 10143, Note_on_c, 1, 54, 0
3, 10209, Note_on_c, 1, 61, 50
3, 10209, Note_on_c, 1, 70, 50
3, 10212, Note_on_c, 1, 68, 40
3, 10213, Note_on_c, 1, 65, 49
3, 10214, Note_on_c, 1, 60, 46
3, 10217, Control_c, 1, 64, 0
3, 10238, Control_c, 1, 64, 127
3, 10269, Note_on_c, 1, 60, 0
3, 10287, Note_on_c, 1, 65, 0
3, 10297, Note_on_c, 1, 68, 0
3, 10298, Note_on_c, 1, 61, 0
3, 10318, Note_on_c, 1, 70, 0
3, 10330, Note_on_c, 1, 61, 33
3, 10330, Note_on_c, 1, 67, 50
3, 10331, Note_on_c, 1, 64, 47
3, 10333, Note_on_c, 1, 51, 30
3, 10334, Note_on_c, 1, 60, 41
3, 10337, Control_c, 1, 64, 0
3, 10359, Control_c, 1, 64, 127
3, 10365, Note_on_c, 1, 60, 0
3, 10380, Note_on_c, 1, 51, 0
3, 10399, Note_on_c, 1, 64, 0
3, 10403, Note_on_c, 1, 61, 0
3, 10433, Note_on_c, 1, 67, 0
3, 10442, Note_on_c, 1, 61, 56
3, 10450, Control_c, 1, 64, 0
3, 10467, Control_c, 1, 64, 127
3, 10520, Note_on_c, 1, 46, 36
3, 10539, Note_on_c, 1, 61, 0
3, 10544, Note_on_c, 1, 46, 0
3, 10562, Note_on_c, 1, 39, 37
3, 10563, Note_on_c, 1, 54, 27
3, 10564, Note_on_c, 1, 61, 42
3, 10566, Note_on_c, 1, 68, 33
3, 10567, Note_on_c, 1, 65, 49
3, 10568, Control_c, 1, 64, 0
3, 10596, Control_c, 1, 64, 127
3, 10618, Note_on_c, 1, 54, 0
3, 10632, Note_on_c, 1, 61, 0
3, 10637, Note_on_c, 1, 65, 0
3, 10678, Note_on_c, 1, 39, 0
3, 10681, Note_on_c, 1, 54, 42
3, 10683, Note_on_c, 1, 46, 25
3, 10698, Note_on_c, 1, 46, 0
3, 10756, Note_on_c, 1, 61, 74
3, 10761, Note_on_c, 1, 54, 0
3, 10799, Note_on_c, 1, 61, 0
3, 10807, Note_on_c, 1, 60, 57
3, 10807, Note_on_c, 1, 54, 38
3, 10808, Note_on_c, 1, 44, 39
3, 10808, Control_c, 1, 64, 0
3, 10849, Control_c, 1, 64, 127
3, 10899, Note_on_c, 1, 54, 0
3, 10926, Note_on_c, 1, 54, 37
3, 10967, Note_on_c, 1, 44, 0
3, 10990, Note_on_c, 1, 60, 0
3, 10995, Note_on_c, 1, 44, 32
3, 11010, Note_on_c, 1, 54, 0
3, 11020, Note_on_c, 1, 68, 0
3, 11028, Note_on_c, 1, 44, 0
3, 11042, Note_on_c, 1, 68, 43
3, 11042, Note_on_c, 1, 64, 54
3, 11043, Note_on_c, 1, 59, 51
3, 11046, Note_on_c, 1, 49, 37
3, 11047, Control_c, 1, 64, 0
3, 11079, Control_c, 1, 64, 127
3, 11125, Note_on_c, 1, 64, 0
3, 11126, Note_on_c, 1, 59, 0
3, 11161, Note_on_c, 1, 56, 40
3, 11166, Note_on_c, 1, 56, 0
3, 11180, Note_on_c, 1, 49, 0
3, 11232, Note_on_c, 1, 68, 0
3, 11277, Note_on_c, 1, 58, 45
3, 11279, Note_on_c, 1, 30, 38
3, 11280, Note_on_c, 1, 42, 32
3, 11287, Control_c, 1, 64, 0
3, 11315, Control_c, 1, 64, 127
3, 11343, Note_on_c, 1, 42, 0
3, 11350, Note_on_c, 1, 66, 12
3, 11353, Note_on_c, 1, 58, 0
3, 11378, Note_on_c, 1, 66, 0
3, 11396, Note_on_c, 1, 42, 33
3, 11399, Note_on_c, 1, 58, 31
3, 11401, Note_on_c, 1, 30, 0
3, 11403, Note_on_c, 1, 64, 33
3, 11411, Note_on_c, 1, 42, 0
3, 11426, Note_on_c, 1, 58, 0
3, 11434, Note_on_c, 1, 64, 0
3, 11519, Note_on_c, 1, 72, 49
3, 11520, Note_on_c, 1, 58, 56
3, 11521, Note_on_c, 1, 65, 58
3, 11522, Control_c, 1, 64, 0
3, 11522, Note_on_c, 1, 53, 37
3, 11523, Note_on_c, 1, 43, 37
3, 11525, Note_on_c, 1, 71, 27
3, 11532, Note_on_c, 1, 71, 0
3, 11537, Note_on_c, 1, 43, 0
3, 11550, Control_c, 1, 64, 127
3, 11555, Note_on_c, 1, 53, 0
3, 11575, Note_on_c, 1, 72, 0
3, 11592, Note_on_c, 1, 65, 0
3, 11594, Note_on_c, 1, 58, 0
3, 11641, Note_on_c, 1, 70, 51
3, 11643, Note_on_c, 1, 52, 39
3, 11643, Note_on_c, 1, 58, 35
3, 11645, Note_on_c, 1, 64, 51
3, 11645, Control_c, 1, 64, 0
3, 11670, Control_c, 1, 64, 127
3, 11682, Note_on_c, 1, 52, 0
3, 11696, Note_on_c, 1, 64, 0
3, 11701, Note_on_c, 1, 58, 0
3, 11706, Note_on_c, 1, 70, 0
3, 11764, Note_on_c, 1, 64, 58
3, 11764, Note_on_c, 1, 57, 52
3, 11764, Note_on_c, 1, 42, 37
3, 11764, Note_on_c, 1, 69, 58
3, 11768, Note_on_c, 1, 52, 34
3, 11769, Control_c, 1, 64, 0
3, 11797, Control_c, 1, 64, 127
3, 11801, Note_on_c, 1, 42, 0
3, 11832, Note_on_c, 1, 64, 0
3, 11840, Note_on_c, 1, 52, 0
3, 11860, Note_on_c, 1, 57, 0
3, 11883, Note_on_c, 1, 63, 52
3, 11885, Note_on_c, 1, 57, 52
3, 11885, Note_on_c, 1, 54, 36
3, 11891, Control_c, 1, 64, 0
3, 11910, Control_c, 1, 64, 127
3, 11917, Note_on_c, 1, 54, 0
3, 11934, Note_on_c, 1, 69, 0
3, 11940, Note_on_c, 1, 57, 0
3, 11958, Note_on_c, 1, 63, 0
3, 11961, Note_on_c, 1, 48, 47
3, 12001, Note_on_c, 1, 48, 0
3, 12004, Note_on_c, 1, 70, 75
3, 12005, Note_on_c, 1, 56, 77
3, 12005, Note_on_c, 1, 63, 75
3, 12006, Note_on_c, 1, 41, 64
3, 12009, Note_on_c, 1, 55, 58
3, 12009, Control_c, 1, 64, 0
3, 12023, Note_on_c, 1, 55, 0
3, 12032, Note_on_c, 1, 41, 0
3, 12038, Control_c, 1, 64, 127
3, 12049, Note_on_c, 1, 56, 0
3, 12083, Note_on_c, 1, 70, 0
3, 12089, Note_on_c, 1, 63, 0
3, 12127, Note_on_c, 1, 68, 64
3, 12129, Note_on_c, 1, 59, 64
3, 12129, Note_on_c, 1, 56, 49
3, 12130, Note_on_c, 1, 62, 60
3, 12130, Note_on_c, 1, 46, 45
3, 12135, Control_c, 1, 64, 0
3, 12145, Note_on_c, 1, 56, 0
3, 12150, Note_on_c, 1, 46, 0
3, 12160, Control_c, 1, 64, 127
3, 12182, Note_on_c, 1, 68, 0
3, 12183, Note_on_c, 1, 62, 0
3, 12190, Note_on_c, 1, 59, 0
3, 12252, Note_on_c, 1, 67, 68
3, 12253, Note_on_c, 1, 59, 58
3, 12253, Note_on_c, 1, 62, 53
3, 12253, Note_on_c, 1, 40, 49
3, 12254, Note_on_c, 1, 55, 48
3, 12255, Control_c, 1, 64, 0
3, 12258, Note_on_c, 1, 50, 37
3, 12283, Control_c, 1, 64, 127
3, 12288, Note_on_c, 1, 40, 0
3, 12304, Note_on_c, 1, 50, 0
3, 12311, Note_on_c, 1, 62, 0
3, 12324, Note_on_c, 1, 59, 0
3, 12331, Note_on_c, 1, 55, 0
3, 12372, Note_on_c, 1, 61, 52
3, 12374, Note_on_c, 1, 58, 40
3, 12375, Note_on_c, 1, 55, 32
3, 12377, Note_on_c, 1, 45, 45
3, 12378, Control_c, 1, 64, 0
3, 12391, Note_on_c, 1, 45, 0
3, 12402, Control_c, 1, 64, 127
3, 12416, Note_on_c, 1, 55, 0
3, 12425, Note_on_c, 1, 58, 0
3, 12426, Note_on_c, 1, 61, 0
3, 12428, Note_on_c, 1, 67, 0
3, 12488, Note_on_c, 1, 39, 35
3, 12489, Note_on_c, 1, 61, 76
3, 12490, Note_on_c, 1, 68, 65
3, 12490, Note_on_c, 1, 54, 40
3, 12490, Note_on_c, 1, 65, 70
3, 12493, Control_c, 1, 64, 0
3, 12521, Control_c, 1, 64, 127
3, 12538, Note_on_c, 1, 39, 0
3, 12564, Note_on_c, 1, 65, 0
3, 12565, Note_on_c, 1, 54, 0
3, 12570, Note_on_c, 1, 61, 0
3, 12607, Note_on_c, 1, 61, 33
3, 12608, Note_on_c, 1, 65, 45
3, 12608, Note_on_c, 1, 54, 31
3, 12660, Note_on_c, 1, 61, 0
3, 12662, Note_on_c, 1, 65, 0
3, 12670, Note_on_c, 1, 68, 0
3, 12686, Note_on_c, 1, 54, 0
3, 12721, Note_on_c, 1, 69, 56
3, 12722, Note_on_c, 1, 66, 43
3, 12723, Note_on_c, 1, 62, 57
3, 12724, Control_c, 1, 64, 0
3, 12725, Note_on_c, 1, 44, 34
3, 12726, Note_on_c, 1, 57, 45
3, 12727, Note_on_c, 1, 54, 29
3, 12743, Note_on_c, 1, 57, 0
3, 12743, Control_c, 1, 64, 127
3, 12747, Note_on_c, 1, 62, 0
3, 12753, Note_on_c, 1, 66, 0
3, 12755, Note_on_c, 1, 69, 0
3, 12774, Note_on_c, 1, 44, 0
3, 12780, Note_on_c, 1, 54, 0
3, 12783, Note_on_c, 1, 81, 66
3, 12784, Note_on_c, 1, 74, 61
3, 12820, Note_on_c, 1, 74, 0
3, 12832, Note_on_c, 1, 81, 0
3, 12839, Note_on_c, 1, 78, 35
3, 12840, Note_on_c, 1, 74, 54
3, 12841, Note_on_c, 1, 65, 49
3, 12842, Note_on_c, 1, 69, 47
3, 12848, Note_on_c, 1, 60, 28
3, 12902, Note_on_c, 1, 54, 42
3, 12903, Note_on_c, 1, 74, 0
3, 12905, Note_on_c, 1, 78, 0
3, 12913, Note_on_c, 1, 65, 0
3, 12914, Note_on_c, 1, 69, 0
3, 12917, Note_on_c, 1, 60, 0
3, 12924, Note_on_c, 1, 54, 0
3, 12962, Control_c, 1, 64, 0
3, 12962, Note_on_c, 1, 75, 51
3, 12965, Note_on_c, 1, 73, 37
3, 12966, Note_on_c, 1, 69, 53
3, 12966, Note_on_c, 1, 57, 50
3, 12968, Note_on_c, 1, 47, 36
3, 12982, Note_on_c, 1, 47, 0
3, 12984, Control_c, 1, 64, 127
3, 12991, Note_on_c, 1, 57, 0
3, 12998, Note_on_c, 1, 69, 0
3, 12998, Note_on_c, 1, 73, 0
3, 13005, Note_on_c, 1, 75, 0
3, 13025, Note_on_c, 1, 77, 73
3, 13025, Note_on_c, 1, 72, 75
3, 13054, Note_on_c, 1, 72, 0
3, 13070, Note_on_c, 1, 77, 0
3, 13083, Note_on_c, 1, 75, 49
3, 13084, Note_on_c, 1, 69, 43
3, 13084, Note_on_c, 1, 71, 62
3, 13086, Note_on_c, 1, 63, 47
3, 13088, Note_on_c, 1, 67, 34
3, 13091, Control_c, 1, 64, 0
3, 13108, Control_c, 1, 64, 127
3, 13132, Note_on_c, 1, 67, 0
3, 13149, Note_on_c, 1, 57, 53
3, 13158, Note_on_c, 1, 69, 0
3, 13166, Note_on_c, 1, 63, 0
3, 13166, Note_on_c, 1, 57, 0
3, 13169, Note_on_c, 1, 75, 0
3, 13173, Note_on_c, 1, 71, 0
3, 13207, Note_on_c, 1, 71, 53
3, 13209, Note_on_c, 1, 67, 55
3, 13209, Note_on_c, 1, 74, 50
3, 13209, Control_c, 1, 64, 0
3, 13210, Note_on_c, 1, 62, 47
3, 13212, Note_on_c, 1, 56, 43
3, 13225, Note_on_c, 1, 62, 0
3, 13226, Control_c, 1, 64, 127
3, 13231, Note_on_c, 1, 56, 0
3, 13262, Note_on_c, 1, 74, 0
3, 13266, Note_on_c, 1, 71, 0
3, 13270, Note_on_c, 1, 46, 55
3, 13272, Note_on_c, 1, 67, 0
3, 13327, Note_on_c, 1, 67, 76
3, 13328, Note_on_c, 1, 62, 68
3, 13328, Control_c, 1, 64, 0
3, 13329, Note_on_c, 1, 56, 53
3, 13345, Control_c, 1, 64, 127
3, 13355, Note_on_c, 1, 46, 0
3, 13356, Note_on_c, 1, 56, 0
3, 13387, Note_on_c, 1, 71, 66
3, 13403, Note_on_c, 1, 67, 0
3, 13408, Note_on_c, 1, 71, 0
3, 13414, Note_on_c, 1, 62, 0
3, 13451, Note_on_c, 1, 39, 54
3, 13458, Control_c, 1, 64, 0
3, 13536, Note_on_c, 1, 67, 34
3, 13537, Note_on_c, 1, 55, 53
3, 13537, Note_on_c, 1, 51, 33
3, 13537, Note_on_c, 1, 63, 38
3, 13543, Note_on_c, 1, 55, 0
3, 13544, Note_on_c, 1, 51, 0
3, 13547, Note_on_c, 1, 63, 0
3, 13549, Note_on_c, 1, 67, 0
3, 13578, Note_on_c, 1, 67, 61
3, 13580, Note_on_c, 1, 55, 57
3, 13581, Note_on_c, 1, 63, 42
3, 13582, Note_on_c, 1, 51, 27
3, 13586, Note_on_c, 1, 55, 0
3, 13588, Note_on_c, 1, 63, 0
3, 13590, Note_on_c, 1, 51, 0
3, 13590, Note_on_c, 1, 67, 0
3, 13596, Note_on_c, 1, 39, 0
3, 13613, Note_on_c, 1, 66, 25
3, 13621, Note_on_c, 1, 66, 0
3, 13621, Control_c, 1, 64, 127
3, 13628, Control_c, 1, 64, 0
3, 13643, Control_c, 1, 64, 127
3, 13644, Note_on_c, 1, 39, 42
3, 13670, Note_on_c, 1, 39, 0
3, 13685, Note_on_c, 1, 38, 49
3, 13688, Control_c, 1, 64, 0
3, 13726, Control_c, 1, 64, 127
3, 13761, Note_on_c, 1, 66, 48
3, 13764, Note_on_c, 1, 54, 43
3, 13765, Note_on_c, 1, 50, 40
3, 13766, Note_on_c, 1, 60, 53
3, 13788, Control_c, 1, 64, 0
3, 13807, Control_c, 1, 64, 127
3, 13840, Note_on_c, 1, 38, 0
3, 13846, Note_on_c, 1, 50, 0
3, 13874, Note_on_c, 1, 60, 0
3, 13876, Note_on_c, 1, 38, 35
3, 13878, Note_on_c, 1, 54, 0
3, 13882, Note_on_c, 1, 66, 0
3, 13890, Note_on_c, 1, 38, 0
3, 13917, Control_c, 1, 64, 0
3, 13920, Note_on_c, 1, 65, 43
3, 13921, Note_on_c, 1, 53, 32
3, 13922, Note_on_c, 1, 60, 53
3, 13925, Note_on_c, 1, 37, 32
3, 13928, Note_on_c, 1, 44, 25
3, 13934, Note_on_c, 1, 37, 0
3, 13934, Control_c, 1, 64, 127
3, 13937, Note_on_c, 1, 53, 0
3, 13952, Note_on_c, 1, 65, 0
3, 13953, Note_on_c, 1, 60, 0
3, 13955, Note_on_c, 1, 44, 0
3, 14047, Note_on_c, 1, 68, 55
3, 14048, Note_on_c, 1, 63, 57
3, 14049, Note_on_c, 1, 53, 53
3, 14050, Note_on_c, 1, 65, 58
3, 14050, Note_on_c, 1, 60, 57
3, 14070, Note_on_c, 1, 53, 0
3, 14097, Note_on_c, 1, 60, 0
3, 14101, Note_on_c, 1, 65, 0
3, 14106, Note_on_c, 1, 68, 0
3, 14107, Note_on_c, 1, 63, 0
3, 14166, Note_on_c, 1, 72, 70
3, 14167, Note_on_c, 1, 65, 73
3, 14167, Note_on_c, 1, 61, 70
3, 14169, Note_on_c, 1, 60, 71
3, 14169, Note_on_c, 1, 69, 48
3, 14172, Control_c, 1, 64, 0
3, 14206, Control_c, 1, 64, 127
3, 14241, Note_on_c, 1, 69, 0
3, 14251, Note_on_c, 1, 72, 0
3, 14252, Note_on_c, 1, 65, 0
3, 14254, Note_on_c, 1, 60, 0
3, 14257, Note_on_c, 1, 61, 0
3, 14285, Note_on_c, 1, 61, 46
3, 14286, Note_on_c, 1, 70, 43
3, 14288, Note_on_c, 1, 65, 50
3, 14291, Note_on_c, 1, 55, 46
3, 14292, Control_c, 1, 64, 0
3, 14313, Control_c, 1, 64, 127
3, 14335, Note_on_c, 1, 55, 0
3, 14345, Note_on_c, 1, 65, 0
3, 14369, Note_on_c, 1, 70, 0
3, 14369, Note_on_c, 1, 61, 0
3, 14400, Note_on_c, 1, 39, 35
3, 14402, Note_on_c, 1, 68, 40
3, 14402, Note_on_c, 1, 61, 37
3, 14403, Note_on_c, 1, 54, 33
3, 14404, Note_on_c, 1, 65, 49
3, 14410, Control_c, 1, 64, 0
3, 14436, Control_c, 1, 64, 127
3, 14476, Note_on_c, 1, 65, 0
3, 14477, Note_on_c, 1, 54, 0
3, 14485, Note_on_c, 1, 61, 0
3, 14508, Note_on_c, 1, 68, 0
3, 14518, Note_on_c, 1, 39, 0
3, 14523, Note_on_c, 1, 46, 32
3, 14523, Note_on_c, 1, 54, 37
3, 14525, Note_on_c, 1, 66, 53
3, 14525, Note_on_c, 1, 61, 56
3, 14541, Note_on_c, 1, 46, 0
3, 14584, Note_on_c, 1, 61, 0
3, 14604, Note_on_c, 1, 66, 0
3, 14618, Note_on_c, 1, 54, 0
3, 14641, Control_c, 1, 64, 0
3, 14644, Note_on_c, 1, 65, 41
3, 14645, Note_on_c, 1, 54, 31
3, 14645, Note_on_c, 1, 44, 33
3, 14646, Note_on_c, 1, 60, 31
3, 14666, Control_c, 1, 64, 127
3, 14691, Note_on_c, 1, 44, 0
3, 14692, Note_on_c, 1, 60, 0
3, 14694, Note_on_c, 1, 65, 0
3, 14696, Note_on_c, 1, 54, 0
3, 14724, Note_on_c, 1, 65, 77
3, 14724, Note_on_c, 1, 44, 63
3, 14724, Note_on_c, 1, 54, 72
3, 14725, Note_on_c, 1, 60, 74
3, 14752, Note_on_c, 1, 44, 0
3, 14755, Note_on_c, 1, 60, 0
3, 14758, Note_on_c, 1, 65, 0
3, 14759, Note_on_c, 1, 54, 0
3, 14770, Note_on_c, 1, 54, 67
3, 14770, Note_on_c, 1, 65, 70
3, 14770, Note_on_c, 1, 44, 62
3, 14771, Note_on_c, 1, 60, 71
3, 14776, Control_c, 1, 64, 0
3, 14784, Control_c, 1, 64, 127
3, 14809, Note_on_c, 1, 44, 0
3, 14816, Note_on_c, 1, 60, 0
3, 14818, Note_on_c, 1, 54, 0
3, 14819, Note_on_c, 1, 65, 0
3, 14844, Note_on_c, 1, 44, 49
3, 14845, Note_on_c, 1, 65, 70
3, 14846, Note_on_c, 1, 54, 51
3, 14847, Note_on_c, 1, 60, 60
3, 14870, Note_on_c, 1, 60, 0
3, 14875, Note_on_c, 1, 65, 0
3, 14876, Note_on_c, 1, 54, 0
3, 14880, Note_on_c, 1, 44, 0
3, 14890, Control_c, 1, 64, 0
3, 14891, Note_on_c, 1, 49, 68
3, 14911, Control_c, 1, 64, 127
3, 14963, Note_on_c, 1, 49, 0
3, 15011, Note_on_c, 1, 61, 34
3, 15013, Note_on_c, 1, 56, 34
3, 15014, Note_on_c, 1, 53, 31
3, 15014, Note_on_c, 1, 60, 56
3, 15015, Note_on_c, 1, 49, 37
3, 15016, Control_c, 1, 64, 0
3, 15037, Control_c, 1, 64, 127
3, 15089, Note_on_c, 1, 53, 0
3, 15091, Note_on_c, 1, 60, 0
3, 15094, Note_on_c, 1, 56, 0
3, 15098, Note_on_c, 1, 49, 0
3, 15100, Note_on_c, 1, 61, 0
3, 15125, Note_on_c, 1, 61, 27
3, 15125, Note_on_c, 1, 56, 31
3, 15125, Note_on_c, 1, 60, 53
3, 15126, Control_c, 1, 64, 0
3, 15127, Note_on_c, 1, 49, 35
3, 15127, Note_on_c, 1, 53, 25
3, 15145, Control_c, 1, 64, 127
3, 15163, Note_on_c, 1, 53, 0
3, 15175, Note_on_c, 1, 56, 0
3, 15177, Note_on_c, 1, 60, 0
3, 15183, Note_on_c, 1, 61, 0
3, 15211, Note_on_c, 1, 49, 0
3, 15291, Control_c, 1, 64, 0
3, 15368, Note_on_c, 1, 72, 75
3, 15445, Note_on_c, 1, 72, 0
3, 15447, Note_on_c, 1, 69, 64
3, 15488, Note_on_c, 1, 69, 0
3, 15496, Note_on_c, 1, 65, 42
3, 15577, Note_on_c, 1, 65, 0
3, 15577, Note_on_c, 1, 62, 46
3, 15593, Note_on_c, 1, 62, 0
3, 15623, Note_on_c, 1, 59, 32
3, 15688, Note_on_c, 1, 71, 60
3, 15715, Note_on_c, 1, 59, 0
3, 15724, Note_on_c, 1, 71, 0
3, 15734, Note_on_c, 1, 66, 52
3, 15810, Note_on_c, 1, 59, 40
3, 15811, Note_on_c, 1, 66, 0
3, 15834, Note_on_c, 1, 59, 0
3, 15848, Note_on_c, 1, 70, 60
3, 15886, Note_on_c, 1, 70, 0
3, 15921, Note_on_c, 1, 65, 53
3, 15940, Note_on_c, 1, 65, 0
3, 16155, Note_on_c, 1, 69, 95
3, 16178, Note_on_c, 1, 69, 0
3, 16184, Note_on_c, 1, 70, 46
3, 16194, Note_on_c, 1, 69, 48
3, 16205, Note_on_c, 1, 70, 0
3, 16216, Note_on_c, 1, 67, 51
3, 16218, Note_on_c, 1, 69, 0
3, 16240, Note_on_c, 1, 67, 0
3, 16250, Note_on_c, 1, 69, 74
3, 16271, Note_on_c, 1, 69, 0
3, 16279, Note_on_c, 1, 70, 56
3, 16300, Note_on_c, 1, 70, 0
3, 16308, Note_on_c, 1, 72, 64
3, 16329, Note_on_c, 1, 72, 0
3, 16338, Note_on_c, 1, 73, 44
3, 16366, Note_on_c, 1, 73, 0
3, 16371, Note_on_c, 1, 75, 64
3, 16390, Note_on_c, 1, 75, 0
3, 16399, Note_on_c, 1, 77, 58
3, 16420, Note_on_c, 1, 77, 0
3, 16432, Note_on_c, 1, 78, 71
3, 16452, Note_on_c, 1, 78, 0
3, 16464, Note_on_c, 1, 80, 75
3, 16492, Note_on_c, 1, 80, 0
3, 16504, Note_on_c, 1, 82, 71
3, 16525, Note_on_c, 1, 82, 0
3, 16539, Note_on_c, 1, 84, 88
3, 16569, Note_on_c, 1, 84, 0
3, 16583, Note_on_c, 1, 81, 69
3, 16584, Note_on_c, 1, 77, 55
3, 16692, Note_on_c, 1, 77, 0
3, 16731, Note_on_c, 1, 81, 0
3, 16811, Note_on_c, 1, 89, 83
3, 16841, Note_on_c, 1, 89, 0
3, 16846, Note_on_c, 1, 81, 47
3, 16880, Note_on_c, 1, 81, 0
3, 16886, Note_on_c, 1, 87, 76
3, 16923, Note_on_c, 1, 87, 0
3, 16926, Note_on_c, 1, 79, 54
3, 16965, Note_on_c, 1, 79, 0
3, 16965, Note_on_c, 1, 85, 71
3, 17001, Note_on_c, 1, 85, 0
3, 17001, Note_on_c, 1, 78, 51
3, 17037, Note_on_c, 1, 78, 0
3, 17044, Note_on_c, 1, 84, 68
3, 17077, Note_on_c, 1, 84, 0
3, 17082, Note_on_c, 1, 76, 59
3, 17123, Note_on_c, 1, 76, 0
3, 17124, Note_on_c, 1, 82, 81
3, 17162, Note_on_c, 1, 74, 69
3, 17166, Note_on_c, 1, 82, 0
3, 17201, Note_on_c, 1, 74, 0
3, 17204, Note_on_c, 1, 80, 74
3, 17242, Note_on_c, 1, 72, 40
3, 17244, Note_on_c, 1, 80, 0
3, 17282, Note_on_c, 1, 72, 0
3, 17287, Note_on_c, 1, 55, 34
3, 17287, Note_on_c, 1, 79, 49
3, 17287, Note_on_c, 1, 61, 31
3, 17289, Note_on_c, 1, 65, 30
3, 17325, Note_on_c, 1, 73, 30
3, 17353, Note_on_c, 1, 79, 0
3, 17356, Note_on_c, 1, 73, 0
3, 17364, Note_on_c, 1, 65, 0
3, 17366, Note_on_c, 1, 72, 50
3, 17407, Note_on_c, 1, 72, 0
3, 17412, Note_on_c, 1, 70, 51
3, 17419, Note_on_c, 1, 65, 22
3, 17436, Note_on_c, 1, 65, 0
3, 17481, Note_on_c, 1, 61, 0
3, 17489, Note_on_c, 1, 55, 0
3, 17490, Note_on_c, 1, 68, 46
3, 17514, Note_on_c, 1, 70, 0
3, 17523, Note_on_c, 1, 68, 0
3, 17536, Note_on_c, 1, 67, 50
3, 17567, Note_on_c, 1, 66, 56
3, 17569, Note_on_c, 1, 67, 0
3, 17624, Note_on_c, 1, 66, 0
3, 17647, Note_on_c, 1, 66, 49
3, 17754, Note_on_c, 1, 66, 0
3, 17764, Note_on_c, 1, 63, 31
3, 17766, Note_on_c, 1, 53, 24
3, 17768, Note_on_c, 1, 60, 32
3, 17769, Note_on_c, 1, 65, 47
3, 17773, Note_on_c, 1, 56, 19
3, 17797, Note_on_c, 1, 65, 0
3, 17797, Note_on_c, 1, 68, 48
3, 17815, Note_on_c, 1, 68, 0
3, 17823, Note_on_c, 1, 72, 55
3, 17828, Note_on_c, 1, 63, 0
3, 17845, Note_on_c, 1, 72, 0
3, 17852, Note_on_c, 1, 75, 74
3, 17856, Note_on_c, 1, 60, 0
3, 17876, Note_on_c, 1, 75, 0
3, 17878, Note_on_c, 1, 72, 68
3, 17881, Note_on_c, 1, 63, 34
3, 17883, Note_on_c, 1, 60, 29
3, 17906, Note_on_c, 1, 72, 0
3, 17908, Note_on_c, 1, 73, 56
3, 17915, Note_on_c, 1, 53, 0
3, 17923, Note_on_c, 1, 73, 0
3, 17928, Note_on_c, 1, 60, 0
3, 17930, Note_on_c, 1, 63, 0
3, 17935, Note_on_c, 1, 77, 66
3, 17937, Note_on_c, 1, 56, 0
3, 17960, Note_on_c, 1, 77, 0
3, 17967, Note_on_c, 1, 82, 72
3, 17984, Note_on_c, 1, 82, 0
3, 17995, Note_on_c, 1, 84, 65
3, 17999, Note_on_c, 1, 61, 33
3, 18000, Note_on_c, 1, 65, 34
3, 18003, Note_on_c, 1, 55, 33
3, 18021, Note_on_c, 1, 84, 0
3, 18026, Note_on_c, 1, 89, 67
3, 18051, Note_on_c, 1, 89, 0
3, 18056, Note_on_c, 1, 94, 83
3, 18077, Note_on_c, 1, 94, 0
3, 18084, Note_on_c, 1, 65, 0
3, 18086, Note_on_c, 1, 96, 90
3, 18087, Note_on_c, 1, 84, 88
3, 18091, Note_on_c, 1, 61, 0
3, 18110, Note_on_c, 1, 96, 0
3, 18111, Note_on_c, 1, 84, 0
3, 18121, Note_on_c, 1, 96, 69
3, 18123, Note_on_c, 1, 84, 75
3, 18124, Note_on_c, 1, 61, 47
3, 18125, Note_on_c, 1, 65, 57
3, 18142, Note_on_c, 1, 65, 0
3, 18146, Note_on_c, 1, 96, 0
3, 18159, Note_on_c, 1, 84, 0
3, 18163, Note_on_c, 1, 94, 75
3, 18174, Note_on_c, 1, 55, 0
3, 18196, Note_on_c, 1, 94, 0
3, 18196, Note_on_c, 1, 61, 0
3, 18246, Note_on_c, 1, 54, 36
3, 18248, Note_on_c, 1, 65, 43
3, 18248, Note_on_c, 1, 61, 37
3, 18249, Note_on_c, 1, 97, 76
3, 18249, Note_on_c, 1, 85, 62
3, 18251, Note_on_c, 1, 58, 43
3, 18292, Note_on_c, 1, 97, 0
3, 18295, Note_on_c, 1, 85, 0
3, 18310, Note_on_c, 1, 65, 0
3, 18316, Note_on_c, 1, 58, 0
3, 18317, Note_on_c, 1, 61, 0
3, 18328, Note_on_c, 1, 54, 0
3, 18371, Note_on_c, 1, 54, 38
3, 18373, Note_on_c, 1, 65, 37
3, 18373, Note_on_c, 1, 61, 35
3, 18373, Note_on_c, 1, 94, 67
3, 18374, Note_on_c, 1, 82, 42
3, 18376, Note_on_c, 1, 58, 35
3, 18412, Note_on_c, 1, 65, 0
3, 18414, Note_on_c, 1, 94, 0
3, 18419, Note_on_c, 1, 82, 0
3, 18419, Note_on_c, 1, 54, 0
3, 18423, Note_on_c, 1, 61, 0
3, 18460, Note_on_c, 1, 58, 0
3, 18485, Note_on_c, 1, 93, 88
3, 18486, Note_on_c, 1, 54, 35
3, 18487, Note_on_c, 1, 64, 33
3, 18487, Note_on_c, 1, 81, 84
3, 18491, Note_on_c, 1, 60, 33
3, 18518, Note_on_c, 1, 93, 0
3, 18520, Note_on_c, 1, 81, 0
3, 18526, Note_on_c, 1, 64, 0
3, 18531, Note_on_c, 1, 54, 0
3, 18531, Note_on_c, 1, 60, 0
3, 18548, Note_on_c, 1, 93, 91
3, 18549, Note_on_c, 1, 81, 82
3, 18578, Note_on_c, 1, 93, 0
3, 18580, Note_on_c, 1, 81, 0
3, 18606, Note_on_c, 1, 81, 80
3, 18607, Note_on_c, 1, 93, 88
3, 18608, Note_on_c, 1, 64, 44
3, 18610, Note_on_c, 1, 54, 36
3, 18612, Note_on_c, 1, 60, 44
3, 18622, Note_on_c, 1, 93, 0
3, 18624, Note_on_c, 1, 81, 0
3, 18626, Note_on_c, 1, 92, 31
3, 18632, Note_on_c, 1, 92, 0
3, 18645, Note_on_c, 1, 94, 78
3, 18645, Note_on_c, 1, 82, 67
3, 18657, Note_on_c, 1, 64, 0
3, 18661, Note_on_c, 1, 94, 0
3, 18661, Note_on_c, 1, 82, 0
3, 18669, Note_on_c, 1, 60, 0
3, 18674, Note_on_c, 1, 93, 69
3, 18676, Note_on_c, 1, 81, 56
3, 18690, Note_on_c, 1, 54, 0
3, 18692, Note_on_c, 1, 93, 0
3, 18696, Note_on_c, 1, 81, 0
3, 18710, Note_on_c, 1, 93, 51
3, 18711, Note_on_c, 1, 81, 60
3, 18725, Note_on_c, 1, 93, 0
3, 18727, Note_on_c, 1, 81, 0
3, 18735, Note_on_c, 1, 63, 40
3, 18737, Note_on_c, 1, 53, 34
3, 18737, Note_on_c, 1, 60, 44
3, 18738, Note_on_c, 1, 56, 40
3, 18740, Note_on_c, 1, 92, 68
3, 18742, Note_on_c, 1, 80, 56
3, 18746, Note_on_c, 1, 63, 0
3, 18748, Note_on_c, 1, 90, 29
3, 18750, Note_on_c, 1, 60, 0
3, 18756, Note_on_c, 1, 53, 0
3, 18767, Note_on_c, 1, 56, 0
3, 18770, Note_on_c, 1, 92, 0
3, 18774, Note_on_c, 1, 80, 0
3, 18776, Note_on_c, 1, 90, 0
3, 18795, Note_on_c, 1, 92, 67
3, 18797, Note_on_c, 1, 80, 69
3, 18814, Note_on_c, 1, 80, 0
3, 18819, Note_on_c, 1, 92, 0
3, 18832, Note_on_c, 1, 92, 56
3, 18832, Note_on_c, 1, 80, 59
3, 18836, Note_on_c, 1, 87, 47
3, 18842, Note_on_c, 1, 87, 0
3, 18843, Note_on_c, 1, 80, 0
3, 18844, Note_on_c, 1, 92, 0
3, 18857, Note_on_c, 1, 66, 60
3, 18858, Note_on_c, 1, 94, 83
3, 18858, Note_on_c, 1, 82, 70
3, 18859, Note_on_c, 1, 56, 53
3, 18859, Note_on_c, 1, 62, 52
3, 18862, Note_on_c, 1, 87, 60
3, 18867, Note_on_c, 1, 87, 0
3, 18884, Note_on_c, 1, 94, 0
3, 18885, Note_on_c, 1, 82, 0
3, 18896, Note_on_c, 1, 94, 48
3, 18897, Note_on_c, 1, 82, 44
3, 18902, Note_on_c, 1, 87, 51
3, 18915, Note_on_c, 1, 62, 0
3, 18923, Note_on_c, 1, 94, 0
3, 18928, Note_on_c, 1, 87, 0
3, 18929, Note_on_c, 1, 82, 0
3, 18933, Note_on_c, 1, 66, 0
3, 18934, Note_on_c, 1, 56, 0
3, 18976, Note_on_c, 1, 78, 64
3, 18976, Note_on_c, 1, 61, 46
3, 18976, Note_on_c, 1, 65, 57
3, 18976, Note_on_c, 1, 90, 67
3, 18977, Note_on_c, 1, 54, 36
3, 18978, Note_on_c, 1, 58, 38
3, 18978, Note_on_c, 1, 85, 60
3, 18995, Note_on_c, 1, 78, 0
3, 18996, Note_on_c, 1, 85, 0
3, 19000, Note_on_c, 1, 90, 0
3, 19003, Note_on_c, 1, 65, 0
3, 19007, Note_on_c, 1, 54, 0
3, 19032, Note_on_c, 1, 78, 60
3, 19032, Note_on_c, 1, 90, 60
3, 19033, Note_on_c, 1, 85, 62
3, 19042, Note_on_c, 1, 61, 0
3, 19044, Note_on_c, 1, 78, 0
3, 19045, Note_on_c, 1, 90, 0
3, 19048, Note_on_c, 1, 85, 0
3, 19068, Note_on_c, 1, 90, 43
3, 19069, Note_on_c, 1, 78, 36
3, 19069, Note_on_c, 1, 85, 51
3, 19074, Note_on_c, 1, 58, 0
3, 19076, Note_on_c, 1, 90, 0
3, 19076, Note_on_c, 1, 78, 0
3, 19077, Note_on_c, 1, 85, 0
3, 19092, Note_on_c, 1, 92, 80
3, 19093, Note_on_c, 1, 64, 54
3, 19093, Note_on_c, 1, 80, 69
3, 19093, Note_on_c, 1, 54, 49
3, 19094, Note_on_c, 1, 60, 52
3, 19094, Note_on_c, 1, 87, 70
3, 19103, Note_on_c, 1, 64, 0
3, 19109, Note_on_c, 1, 54, 0
3, 19111, Note_on_c, 1, 60, 0
3, 19113, Note_on_c, 1, 80, 0
3, 19114, Note_on_c, 1, 92, 0
3, 19119, Note_on_c, 1, 87, 0
3, 19129, Note_on_c, 1, 92, 57
3, 19130, Note_on_c, 1, 80, 55
3, 19131, Note_on_c, 1, 87, 52
3, 19148, Note_on_c, 1, 92, 0
3, 19150, Note_on_c, 1, 87, 0
3, 19155, Note_on_c, 1, 80, 0
3, 19203, Note_on_c, 1, 62, 59
3, 19204, Note_on_c, 1, 55, 55
3, 19204, Note_on_c, 1, 89, 74
3, 19204, Note_on_c, 1, 58, 47
3, 19204, Note_on_c, 1, 77, 77
3, 19206, Note_on_c, 1, 88, 80
3, 19211, Note_on_c, 1, 88, 0
3, 19219, Note_on_c, 1, 62, 0
3, 19227, Note_on_c, 1, 55, 0
3, 19230, Note_on_c, 1, 58, 0
3, 19231, Note_on_c, 1, 89, 0
3, 19233, Note_on_c, 1, 77, 0
3, 19267, Note_on_c, 1, 89, 76
3, 19268, Note_on_c, 1, 77, 75
3, 19284, Note_on_c, 1, 77, 0
3, 19284, Note_on_c, 1, 89, 0
3, 19300, Note_on_c, 1, 89, 47
3, 19302, Note_on_c, 1, 77, 51
3, 19316, Note_on_c, 1, 89, 0
3, 19319, Note_on_c, 1, 77, 0
3, 19330, Note_on_c, 1, 88, 64
3, 19332, Note_on_c, 1, 62, 48
3, 19332, Note_on_c, 1, 76, 49
3, 19335, Note_on_c, 1, 58, 27
3, 19335, Note_on_c, 1, 52, 31
3, 19344, Note_on_c, 1, 62, 0
3, 19346, Note_on_c, 1, 52, 0
3, 19353, Note_on_c, 1, 58, 0
3, 19388, Note_on_c, 1, 88, 0
3, 19391, Note_on_c, 1, 76, 0
3, 19400, Note_on_c, 1, 84, 60
3, 19410, Note_on_c, 1, 84, 0
3, 19456, Note_on_c, 1, 54, 36
3, 19458, Note_on_c, 1, 88, 81
3, 19458, Note_on_c, 1, 64, 35
3, 19460, Note_on_c, 1, 61, 35
3, 19468, Note_on_c, 1, 82, 25
3, 19473, Note_on_c, 1, 64, 0
3, 19474, Note_on_c, 1, 82, 0
3, 19480, Note_on_c, 1, 54, 0
3, 19490, Note_on_c, 1, 61, 0
3, 19515, Note_on_c, 1, 88, 0
3, 19524, Note_on_c, 1, 81, 60
3, 19564, Note_on_c, 1, 81, 0
3, 19569, Note_on_c, 1, 87, 62
3, 19570, Note_on_c, 1, 66, 34
3, 19570, Note_on_c, 1, 78, 44
3, 19573, Note_on_c, 1, 61, 27
3, 19574, Note_on_c, 1, 63, 31
3, 19576, Note_on_c, 1, 57, 24
3, 19616, Note_on_c, 1, 57, 0
3, 19622, Note_on_c, 1, 61, 0
3, 19624, Note_on_c, 1, 87, 0
3, 19626, Note_on_c, 1, 78, 0
3, 19629, Note_on_c, 1, 66, 0
3, 19669, Note_on_c, 1, 63, 0
3, 19687, Note_on_c, 1, 63, 44
3, 19688, Note_on_c, 1, 67, 64
3, 19688, Note_on_c, 1, 87, 90
3, 19690, Note_on_c, 1, 56, 32
3, 19691, Note_on_c, 1, 60, 52
3, 19701, Note_on_c, 1, 67, 0
3, 19703, Note_on_c, 1, 56, 0
3, 19713, Note_on_c, 1, 63, 0
3, 19714, Note_on_c, 1, 87, 0
3, 19724, Note_on_c, 1, 84, 71
3, 19740, Note_on_c, 1, 60, 0
3, 19751, Note_on_c, 1, 84, 0
3, 19755, Note_on_c, 1, 80, 45
3, 19783, Note_on_c, 1, 80, 0
3, 19788, Note_on_c, 1, 77, 36
3, 19804, Note_on_c, 1, 77, 0
3, 19812, Note_on_c, 1, 66, 51
3, 19813, Note_on_c, 1, 86, 87
3, 19813, Note_on_c, 1, 56, 48
3, 19813, Note_on_c, 1, 62, 45
3, 19837, Note_on_c, 1, 66, 0
3, 19838, Note_on_c, 1, 86, 0
3, 19844, Note_on_c, 1, 62, 0
3, 19845, Note_on_c, 1, 83, 70
3, 19861, Note_on_c, 1, 56, 0
3, 19868, Note_on_c, 1, 83, 0
3, 19877, Note_on_c, 1, 79, 35
3, 19897, Note_on_c, 1, 79, 0
3, 19906, Note_on_c, 1, 74, 50
3, 19917, Note_on_c, 1, 74, 0
3, 19926, Note_on_c, 1, 62, 46
3, 19932, Note_on_c, 1, 55, 39
3, 19933, Note_on_c, 1, 62, 0
3, 19936, Note_on_c, 1, 81, 74
3, 19939, Note_on_c, 1, 55, 0
3, 19964, Note_on_c, 1, 81, 0
3, 19970, Note_on_c, 1, 76, 53
3, 20001, Note_on_c, 1, 76, 0
3, 20002, Note_on_c, 1, 74, 31
3, 20021, Note_on_c, 1, 74, 0
3, 20027, Note_on_c, 1, 71, 43
3, 20044, Note_on_c, 1, 71, 0
3, 20052, Note_on_c, 1, 61, 38
3, 20053, Note_on_c, 1, 65, 40
3, 20053, Note_on_c, 1, 75, 52
3, 20054, Note_on_c, 1, 55, 42
3, 20084, Note_on_c, 1, 75, 0
3, 20087, Note_on_c, 1, 76, 64
3, 20110, Note_on_c, 1, 65, 0
3, 20119, Note_on_c, 1, 55, 0
3, 20121, Note_on_c, 1, 61, 0
3, 20127, Note_on_c, 1, 76, 0
3, 20166, Note_on_c, 1, 73, 62
3, 20167, Note_on_c, 1, 58, 60
3, 20185, Note_on_c, 1, 58, 0
3, 20218, Note_on_c, 1, 73, 0
3, 20327, Note_on_c, 1, 65, 42
3, 20337, Note_on_c, 1, 65, 0
3, 20340, Note_on_c, 1, 66, 40
3, 20351, Note_on_c, 1, 68, 47
3, 20360, Note_on_c, 1, 66, 0
3, 20366, Note_on_c, 1, 70, 53
3, 20369, Note_on_c, 1, 68, 0
3, 20377, Note_on_c, 1, 70, 0
3, 20383, Note_on_c, 1, 72, 57
3, 20394, Note_on_c, 1, 72, 0
3, 20398, Note_on_c, 1, 73, 32
3, 20412, Note_on_c, 1, 73, 0
3, 20412, Note_on_c, 1, 75, 56
3, 20423, Note_on_c, 1, 75, 0
3, 20433, Note_on_c, 1, 77, 55
3, 20446, Note_on_c, 1, 77, 0
3, 20455, Note_on_c, 1, 78, 38
3, 20471, Note_on_c, 1, 78, 0
3, 20477, Note_on_c, 1, 80, 55
3, 20490, Note_on_c, 1, 80, 0
3, 20499, Note_on_c, 1, 82, 32
3, 20504, Note_on_c, 1, 82, 0
3, 20511, Note_on_c, 1, 84, 62
3, 20513, Note_on_c, 1, 83, 30
3, 20520, Note_on_c, 1, 84, 0
3, 20521, Note_on_c, 1, 83, 0
3, 20532, Note_on_c, 1, 85, 71
3, 20545, Note_on_c, 1, 85, 0
3, 20553, Note_on_c, 1, 87, 59
3, 20557, Note_on_c, 1, 65, 22
3, 20557, Note_on_c, 1, 60, 33
3, 20558, Note_on_c, 1, 54, 23
3, 20564, Note_on_c, 1, 65, 0
3, 20566, Note_on_c, 1, 60, 0
3, 20569, Note_on_c, 1, 87, 0
3, 20573, Note_on_c, 1, 54, 0
3, 20579, Note_on_c, 1, 89, 72
3, 20594, Note_on_c, 1, 89, 0
3, 20605, Note_on_c, 1, 90, 56
3, 20620, Note_on_c, 1, 90, 0
3, 20635, Note_on_c, 1, 92, 70
3, 20643, Note_on_c, 1, 66, 37
3, 20645, Note_on_c, 1, 61, 40
3, 20646, Note_on_c, 1, 63, 29
3, 20657, Note_on_c, 1, 92, 0
3, 20660, Note_on_c, 1, 66, 0
3, 20671, Note_on_c, 1, 93, 68
3, 20676, Note_on_c, 1, 61, 0
3, 20690, Note_on_c, 1, 93, 0
3, 20705, Note_on_c, 1, 94, 75
3, 20722, Note_on_c, 1, 63, 0
3, 20727, Note_on_c, 1, 94, 0
3, 20736, Note_on_c, 1, 95, 65
3, 20756, Note_on_c, 1, 95, 0
3, 20772, Note_on_c, 1, 96, 66
3, 20772, Note_on_c, 1, 66, 38
3, 20775, Note_on_c, 1, 84, 55
3, 20776, Note_on_c, 1, 61, 38
3, 20776, Note_on_c, 1, 63, 29
3, 20777, Note_on_c, 1, 57, 27
3, 20785, Note_on_c, 1, 96, 0
3, 20788, Note_on_c, 1, 84, 0
3, 20806, Note_on_c, 1, 97, 61
3, 20807, Note_on_c, 1, 85, 53
3, 20820, Note_on_c, 1, 85, 0
3, 20823, Note_on_c, 1, 97, 0
3, 20833, Note_on_c, 1, 57, 0
3, 20836, Note_on_c, 1, 86, 66
3, 20836, Note_on_c, 1, 98, 56
3, 20842, Note_on_c, 1, 86, 0
3, 20842, Note_on_c, 1, 66, 0
3, 20846, Note_on_c, 1, 98, 0
3, 20861, Note_on_c, 1, 63, 0
3, 20866, Note_on_c, 1, 61, 0
3, 20869, Note_on_c, 1, 99, 60
3, 20870, Note_on_c, 1, 87, 52
3, 20882, Note_on_c, 1, 87, 0
3, 20883, Note_on_c, 1, 99, 0
3, 20899, Note_on_c, 1, 56, 46
3, 20903, Note_on_c, 1, 62, 36
3, 20903, Note_on_c, 1, 88, 61
3, 20903, Note_on_c, 1, 100, 64
3, 20911, Note_on_c, 1, 88, 0
3, 20916, Note_on_c, 1, 56, 0
3, 20916, Note_on_c, 1, 62, 0
3, 20917, Note_on_c, 1, 100, 0
3, 20935, Note_on_c, 1, 89, 53
3, 20936, Note_on_c, 1, 56, 42
3, 20936, Note_on_c, 1, 62, 44
3, 20937, Note_on_c, 1, 65, 36
3, 20937, Note_on_c, 1, 96, 34
3, 20941, Note_on_c, 1, 89, 0
3, 20944, Note_on_c, 1, 65, 0
3, 20944, Note_on_c, 1, 56, 0
3, 20944, Note_on_c, 1, 96, 0
3, 20945, Note_on_c, 1, 62, 0
3, 20965, Note_on_c, 1, 89, 72
3, 20965, Note_on_c, 1, 101, 72
3, 20965, Note_on_c, 1, 65, 66
3, 20966, Note_on_c, 1, 56, 54
3, 20966, Note_on_c, 1, 96, 51
3, 20967, Note_on_c, 1, 62, 55
3, 20972, Note_on_c, 1, 96, 0
3, 20973, Note_on_c, 1, 65, 0
3, 20973, Note_on_c, 1, 62, 0
3, 20974, Note_on_c, 1, 89, 0
3, 20976, Note_on_c, 1, 56, 0
3, 20978, Note_on_c, 1, 101, 0
3, 20995, Note_on_c, 1, 101, 73
3, 20997, Note_on_c, 1, 89, 66
3, 20998, Note_on_c, 1, 65, 71
3, 20998, Note_on_c, 1, 96, 65
3, 20998, Note_on_c, 1, 56, 67
3, 20998, Note_on_c, 1, 62, 64
3, 21006, Note_on_c, 1, 89, 0
3, 21007, Note_on_c, 1, 65, 0
3, 21007, Note_on_c, 1, 62, 0
3, 21009, Note_on_c, 1, 56, 0
3, 21009, Note_on_c, 1, 96, 0
3, 21010, Note_on_c, 1, 101, 0
3, 21023, Note_on_c, 1, 100, 78
3, 21024, Note_on_c, 1, 95, 72
3, 21025, Note_on_c, 1, 88, 66
3, 21026, Note_on_c, 1, 56, 74
3, 21026, Note_on_c, 1, 65, 76
3, 21027, Note_on_c, 1, 62, 65
3, 21040, Note_on_c, 1, 88, 0
3, 21042, Note_on_c, 1, 95, 0
3, 21043, Note_on_c, 1, 100, 0
3, 21044, Note_on_c, 1, 65, 0
3, 21046, Note_on_c, 1, 56, 0
3, 21047, Note_on_c, 1, 62, 0
3, 21056, Note_on_c, 1, 101, 71
3, 21057, Note_on_c, 1, 89, 60
3, 21057, Note_on_c, 1, 96, 62
3, 21058, Note_on_c, 1, 65, 57
3, 21060, Note_on_c, 1, 62, 69
3, 21061, Note_on_c, 1, 56, 36
3, 21066, Note_on_c, 1, 62, 0
3, 21066, Note_on_c, 1, 96, 0
3, 21067, Note_on_c, 1, 101, 0
3, 21068, Note_on_c, 1, 56, 0
3, 21068, Note_on_c, 1, 89, 0
3, 21070, Note_on_c, 1, 65, 0
3, 21084, Note_on_c, 1, 65, 48
3, 21085, Note_on_c, 1, 62, 60
3, 21085, Note_on_c, 1, 101, 57
3, 21086, Note_on_c, 1, 89, 52
3, 21087, Note_on_c, 1, 96, 64
3, 21088, Note_on_c, 1, 56, 36
3, 21092, Note_on_c, 1, 65, 0
3, 21093, Note_on_c, 1, 96, 0
3, 21094, Note_on_c, 1, 89, 0
3, 21094, Note_on_c, 1, 56, 0
3, 21096, Note_on_c, 1, 62, 0
3, 21098, Note_on_c, 1, 101, 0
3, 21113, Note_on_c, 1, 56, 61
3, 21113, Note_on_c, 1, 65, 62
3, 21115, Note_on_c, 1, 62, 45
3, 21116, Note_on_c, 1, 101, 58
3, 21116, Note_on_c, 1, 96, 60
3, 21118, Note_on_c, 1, 89, 35
3, 21121, Note_on_c, 1, 62, 0
3, 21123, Note_on_c, 1, 65, 0
3, 21126, Note_on_c, 1, 101, 0
3, 21126, Note_on_c, 1, 96, 0
3, 21126, Note_on_c, 1, 89, 0
3, 21132, Note_on_c, 1, 56, 0
3, 21144, Note_on_c, 1, 102, 71
3, 21145, Note_on_c, 1, 90, 64
3, 21145, Note_on_c, 1, 97, 68
3, 21145, Note_on_c, 1, 55, 74
3, 21146, Note_on_c, 1, 65, 65
3, 21148, Note_on_c, 1, 61, 53
3, 21164, Note_on_c, 1, 65, 0
3, 21166, Note_on_c, 1, 102, 0
3, 21167, Note_on_c, 1, 90, 0
3, 21167, Note_on_c, 1, 97, 0
3, 21177, Note_on_c, 1, 103, 57
3, 21178, Note_on_c, 1, 65, 55
3, 21178, Note_on_c, 1, 91, 35
3, 21178, Note_on_c, 1, 98, 51
3, 21224, Note_on_c, 1, 98, 0
3, 21233, Note_on_c, 1, 103, 0
3, 21235, Note_on_c, 1, 55, 0
3, 21237, Note_on_c, 1, 91, 0
3, 21239, Note_on_c, 1, 65, 0
3, 21247, Note_on_c, 1, 61, 0
3, 21254, Note_on_c, 1, 101, 53
3, 21255, Note_on_c, 1, 89, 54
3, 21257, Note_on_c, 1, 61, 38
3, 21257, Note_on_c, 1, 65, 49
3, 21257, Note_on_c, 1, 96, 56
3, 21258, Note_on_c, 1, 55, 45
3, 21300, Note_on_c, 1, 101, 0
3, 21306, Note_on_c, 1, 96, 0
3, 21312, Note_on_c, 1, 89, 0
3, 21326, Note_on_c, 1, 55, 0
3, 21333, Note_on_c, 1, 65, 0
3, 21352, Note_on_c, 1, 61, 0
3, 21371, Note_on_c, 1, 54, 49
3, 21374, Note_on_c, 1, 64, 36
3, 21376, Note_on_c, 1, 60, 44
3, 21446, Note_on_c, 1, 100, 92
3, 21447, Note_on_c, 1, 88, 92
3, 21454, Note_on_c, 1, 64, 0
3, 21458, Note_on_c, 1, 60, 0
3, 21483, Note_on_c, 1, 100, 0
3, 21488, Note_on_c, 1, 88, 0
3, 21500, Note_on_c, 1, 95, 88
3, 21500, Note_on_c, 1, 64, 42
3, 21503, Note_on_c, 1, 60, 40
3, 21537, Note_on_c, 1, 92, 75
3, 21538, Note_on_c, 1, 64, 0
3, 21546, Note_on_c, 1, 95, 0
3, 21566, Note_on_c, 1, 92, 0
3, 21573, Note_on_c, 1, 88, 56
3, 21579, Note_on_c, 1, 54, 0
3, 21596, Note_on_c, 1, 60, 0
3, 21597, Note_on_c, 1, 88, 0
3, 21602, Note_on_c, 1, 96, 81
3, 21624, Note_on_c, 1, 96, 0
3, 21629, Note_on_c, 1, 63, 42
3, 21631, Note_on_c, 1, 60, 43
3, 21635, Note_on_c, 1, 92, 74
3, 21636, Note_on_c, 1, 56, 30
3, 21655, Note_on_c, 1, 92, 0
3, 21660, Note_on_c, 1, 63, 0
3, 21667, Note_on_c, 1, 89, 70
3, 21671, Note_on_c, 1, 53, 1
3, 21672, Note_on_c, 1, 92, 21
3, 21678, Note_on_c, 1, 92, 0
3, 21691, Note_on_c, 1, 89, 0
3, 21700, Note_on_c, 1, 84, 55
3, 21704, Note_on_c, 1, 56, 0
3, 21709, Note_on_c, 1, 60, 0
3, 21713, Note_on_c, 1, 84, 0
3, 21758, Note_on_c, 1, 63, 49
3, 21762, Note_on_c, 1, 53, 0
3, 21766, Note_on_c, 1, 60, 32
3, 21767, Note_on_c, 1, 56, 27
3, 21773, Note_on_c, 1, 63, 0
3, 21776, Note_on_c, 1, 60, 0
3, 21786, Note_on_c, 1, 56, 0
3, 21802, Note_on_c, 1, 87, 83
3, 21824, Note_on_c, 1, 87, 0
3, 21828, Note_on_c, 1, 84, 71
3, 21854, Note_on_c, 1, 84, 0
3, 21857, Note_on_c, 1, 80, 53
3, 21859, Note_on_c, 1, 61, 37
3, 21859, Note_on_c, 1, 65, 26
3, 21864, Note_on_c, 1, 55, 20
3, 21876, Note_on_c, 1, 65, 0
3, 21884, Note_on_c, 1, 80, 0
3, 21888, Note_on_c, 1, 77, 44
3, 21907, Note_on_c, 1, 77, 0
3, 21920, Note_on_c, 1, 75, 57
3, 21936, Note_on_c, 1, 61, 0
3, 21945, Note_on_c, 1, 75, 0
3, 21952, Note_on_c, 1, 73, 48
3, 21965, Note_on_c, 1, 73, 0
3, 21983, Note_on_c, 1, 72, 58
3, 21983, Note_on_c, 1, 61, 36
3, 21987, Note_on_c, 1, 65, 28
3, 21998, Note_on_c, 1, 65, 0
3, 22006, Note_on_c, 1, 72, 0
3, 22013, Note_on_c, 1, 73, 29
3, 22019, Note_on_c, 1, 72, 41
3, 22033, Note_on_c, 1, 55, 0
3, 22035, Note_on_c, 1, 61, 0
3, 22038, Note_on_c, 1, 73, 0
3, 22041, Note_on_c, 1, 72, 0
3, 22041, Note_on_c, 1, 69, 32
3, 22066, Note_on_c, 1, 69, 0
3, 22071, Note_on_c, 1, 70, 61
3, 22092, Note_on_c, 1, 70, 0
3, 22097, Note_on_c, 1, 61, 34
3, 22100, Note_on_c, 1, 72, 49
3, 22116, Note_on_c, 1, 61, 0
3, 22126, Note_on_c, 1, 72, 0
3, 22132, Note_on_c, 1, 73, 49
3, 22153, Note_on_c, 1, 73, 0
3, 22160, Note_on_c, 1, 75, 59
3, 22180, Note_on_c, 1, 75, 0
3, 22190, Note_on_c, 1, 77, 61
3, 22193, Note_on_c, 1, 76, 49
3, 22199, Note_on_c, 1, 76, 0
3, 22213, Note_on_c, 1, 77, 0
3, 22218, Note_on_c, 1, 61, 34
3, 22221, Note_on_c, 1, 78, 54
3, 22228, Note_on_c, 1, 61, 0
3, 22253, Note_on_c, 1, 80, 57
3, 22261, Note_on_c, 1, 78, 0
3, 22269, Note_on_c, 1, 80, 0
3, 22283, Note_on_c, 1, 81, 32
3, 22287, Note_on_c, 1, 83, 28
3, 22297, Note_on_c, 1, 83, 0
3, 22304, Note_on_c, 1, 81, 0
3, 22312, Note_on_c, 1, 86, 81
3, 22335, Note_on_c, 1, 54, 43
3, 22338, Note_on_c, 1, 64, 28
3, 22341, Note_on_c, 1, 60, 37
3, 22342, Note_on_c, 1, 90, 60
3, 22345, Note_on_c, 1, 86, 0
3, 22358, Note_on_c, 1, 90, 0
3, 22373, Note_on_c, 1, 93, 55
3, 22374, Note_on_c, 1, 95, 62
3, 22390, Note_on_c, 1, 95, 0
3, 22396, Note_on_c, 1, 93, 0
3, 22400, Note_on_c, 1, 64, 0
3, 22401, Note_on_c, 1, 98, 74
3, 22403, Note_on_c, 1, 60, 0
3, 22430, Note_on_c, 1, 54, 0
3, 22430, Note_on_c, 1, 102, 74
3, 22443, Note_on_c, 1, 98, 0
3, 22451, Note_on_c, 1, 102, 0
3, 22457, Note_on_c, 1, 54, 45
3, 22458, Note_on_c, 1, 64, 47
3, 22458, Note_on_c, 1, 105, 80
3, 22460, Note_on_c, 1, 60, 49
3, 22460, Note_on_c, 1, 93, 64
3, 22462, Note_on_c, 1, 99, 19
3, 22462, Note_on_c, 1, 98, 42
3, 22463, Note_on_c, 1, 95, 51
3, 22469, Note_on_c, 1, 95, 0
3, 22489, Note_on_c, 1, 98, 0
3, 22491, Note_on_c, 1, 99, 0
3, 22492, Note_on_c, 1, 105, 0
3, 22492, Note_on_c, 1, 93, 0
3, 22504, Note_on_c, 1, 105, 71
3, 22505, Note_on_c, 1, 93, 54
3, 22506, Note_on_c, 1, 98, 66
3, 22522, Note_on_c, 1, 64, 0
3, 22524, Note_on_c, 1, 93, 0
3, 22528, Note_on_c, 1, 105, 0
3, 22535, Note_on_c, 1, 98, 0
3, 22538, Note_on_c, 1, 54, 0
3, 22544, Note_on_c, 1, 60, 0
3, 22545, Note_on_c, 1, 104, 75
3, 22546, Note_on_c, 1, 98, 59
3, 22546, Note_on_c, 1, 92, 69
3, 22550, Note_on_c, 1, 60, 25
3, 22552, Note_on_c, 1, 63, 67
3, 22554, Note_on_c, 1, 53, 52
3, 22557, Note_on_c, 1, 56, 37
3, 22564, Note_on_c, 1, 98, 0
3, 22566, Note_on_c, 1, 104, 0
3, 22568, Note_on_c, 1, 92, 0
3, 22570, Note_on_c, 1, 63, 0
3, 22585, Note_on_c, 1, 53, 0
3, 22592, Note_on_c, 1, 60, 0
3, 22603, Note_on_c, 1, 56, 0
3, 22757, Note_on_c, 1, 75, 86
3, 22758, Note_on_c, 1, 68, 83
3, 22759, Note_on_c, 1, 72, 71
3, 22759, Note_on_c, 1, 65, 88
3, 22760, Note_on_c, 1, 63, 83
3, 22789, Note_on_c, 1, 65, 0
3, 22792, Note_on_c, 1, 72, 0
3, 22792, Note_on_c, 1, 75, 0
3, 22795, Note_on_c, 1, 68, 0
3, 22797, Note_on_c, 1, 63, 0
3, 22803, Note_on_c, 1, 73, 55
3, 22804, Note_on_c, 1, 68, 70
3, 22804, Note_on_c, 1, 61, 64
3, 22805, Note_on_c, 1, 65, 56
3, 22900, Note_on_c, 1, 65, 0
3, 22902, Note_on_c, 1, 68, 0
3, 22908, Note_on_c, 1, 73, 0
3, 22926, Note_on_c, 1, 61, 0
3, 22927, Note_on_c, 1, 68, 46
3, 22929, Note_on_c, 1, 65, 46
3, 22929, Note_on_c, 1, 72, 44
3, 22929, Note_on_c, 1, 60, 43
3, 22935, Control_c, 1, 64, 127
3, 22963, Note_on_c, 1, 60, 0
3, 22986, Note_on_c, 1, 72, 0
3, 22988, Note_on_c, 1, 68, 0
3, 22989, Note_on_c, 1, 65, 0
3, 23007, Note_on_c, 1, 62, 62
3, 23025, Control_c, 1, 64, 0
3, 23042, Note_on_c, 1, 62, 0
3, 23043, Note_on_c, 1, 51, 36
3, 23047, Note_on_c, 1, 66, 74
3, 23047, Note_on_c, 1, 54, 33
3, 23048, Note_on_c, 1, 58, 36
3, 23085, Note_on_c, 1, 66, 0
3, 23088, Note_on_c, 1, 64, 64
3, 23113, Note_on_c, 1, 64, 0
3, 23123, Note_on_c, 1, 68, 68
3, 23162, Note_on_c, 1, 68, 0
3, 23163, Note_on_c, 1, 65, 58
3, 23167, Note_on_c, 1, 61, 44
3, 23199, Note_on_c, 1, 65, 0
3, 23204, Note_on_c, 1, 70, 69
3, 23242, Note_on_c, 1, 51, 0
3, 23242, Note_on_c, 1, 58, 0
3, 23243, Note_on_c, 1, 70, 0
3, 23243, Note_on_c, 1, 67, 67
3, 23244, Note_on_c, 1, 54, 0
3, 23245, Note_on_c, 1, 61, 0
3, 23284, Note_on_c, 1, 72, 57
3, 23287, Note_on_c, 1, 54, 34
3, 23289, Note_on_c, 1, 60, 40
3, 23298, Note_on_c, 1, 67, 0
3, 23325, Note_on_c, 1, 68, 42
3, 23330, Note_on_c, 1, 72, 0
3, 23341, Note_on_c, 1, 60, 0
3, 23349, Note_on_c, 1, 68, 0
3, 23354, Note_on_c, 1, 54, 0
3, 23366, Note_on_c, 1, 69, 68
3, 23406, Note_on_c, 1, 69, 0
3, 23407, Note_on_c, 1, 70, 67
3, 23408, Note_on_c, 1, 63, 39
3, 23412, Note_on_c, 1, 58, 36
3, 23436, Note_on_c, 1, 63, 0
3, 23439, Note_on_c, 1, 70, 0
3, 23446, Note_on_c, 1, 72, 66
3, 23448, Note_on_c, 1, 58, 0
3, 23477, Note_on_c, 1, 72, 0
3, 23485, Note_on_c, 1, 75, 69
3, 23512, Note_on_c, 1, 75, 0
3, 23520, Note_on_c, 1, 77, 55
3, 23552, Note_on_c, 1, 77, 0
3, 23559, Note_on_c, 1, 72, 61
3, 23559, Note_on_c, 1, 79, 68
3, 23560, Note_on_c, 1, 68, 53
3, 23561, Note_on_c, 1, 75, 44
3, 23561, Note_on_c, 1, 67, 54
3, 23627, Note_on_c, 1, 68, 0
3, 23628, Note_on_c, 1, 72, 0
3, 23628, Note_on_c, 1, 79, 0
3, 23629, Note_on_c, 1, 75, 0
3, 23636, Note_on_c, 1, 67, 0
3, 23637, Note_on_c, 1, 77, 53
3, 23639, Note_on_c, 1, 68, 48
3, 23641, Note_on_c, 1, 75, 42
3, 23642, Note_on_c, 1, 65, 47
3, 23643, Note_on_c, 1, 72, 46
3, 23673, Control_c, 1, 64, 127
3, 23683, Note_on_c, 1, 75, 0
3, 23691, Note_on_c, 1, 65, 0
3, 23700, Note_on_c, 1, 68, 0
3, 23703, Note_on_c, 1, 72, 0
3, 23715, Note_on_c, 1, 77, 0
3, 23722, Note_on_c, 1, 75, 55
3, 23724, Note_on_c, 1, 68, 49
3, 23724, Note_on_c, 1, 72, 43
3, 23742, Note_on_c, 1, 72, 0
3, 23749, Note_on_c, 1, 68, 0
3, 23754, Note_on_c, 1, 75, 0
3, 23765, Control_c, 1, 64, 0
3, 23765, Note_on_c, 1, 74, 60
3, 23766, Note_on_c, 1, 71, 47
3, 23768, Note_on_c, 1, 62, 34
3, 23768, Note_on_c, 1, 67, 40
3, 23771, Note_on_c, 1, 56, 29
3, 23807, Control_c, 1, 64, 127
3, 23828, Note_on_c, 1, 62, 0
3, 23851, Note_on_c, 1, 67, 0
3, 23857, Note_on_c, 1, 71, 0
3, 23871, Note_on_c, 1, 56, 0
3, 23880, Control_c, 1, 64, 0
3, 23884, Note_on_c, 1, 71, 48
3, 23886, Note_on_c, 1, 56, 21
3, 23886, Note_on_c, 1, 62, 35
3, 23887, Note_on_c, 1, 67, 41
3, 23896, Control_c, 1, 64, 127
3, 23899, Note_on_c, 1, 62, 0
3, 23912, Note_on_c, 1, 56, 0
3, 23925, Note_on_c, 1, 67, 0
3, 23939, Note_on_c, 1, 71, 0
3, 23942, Note_on_c, 1, 74, 0
3, 23998, Control_c, 1, 64, 0
3, 23999, Note_on_c, 1, 61, 44
3, 24002, Note_on_c, 1, 54, 37
3, 24004, Note_on_c, 1, 58, 37
3, 24027, Control_c, 1, 64, 127
3, 24040, Note_on_c, 1, 61, 0
3, 24067, Note_on_c, 1, 61, 73
3, 24068, Note_on_c, 1, 65, 74
3, 24073, Control_c, 1, 64, 0
3, 24075, Control_c, 1, 64, 127
3, 24084, Note_on_c, 1, 61, 0
3, 24092, Note_on_c, 1, 58, 0
3, 24100, Note_on_c, 1, 65, 0
3, 24110, Note_on_c, 1, 63, 74
3, 24110, Note_on_c, 1, 66, 75
3, 24116, Control_c, 1, 64, 0
3, 24118, Note_on_c, 1, 58, 46
3, 24138, Note_on_c, 1, 63, 0
3, 24140, Note_on_c, 1, 66, 0
3, 24147, Note_on_c, 1, 68, 67
3, 24149, Note_on_c, 1, 65, 69
3, 24152, Control_c, 1, 64, 127
3, 24167, Note_on_c, 1, 58, 0
3, 24170, Note_on_c, 1, 65, 0
3, 24172, Note_on_c, 1, 54, 0
3, 24177, Note_on_c, 1, 68, 0
3, 24190, Note_on_c, 1, 70, 70
3, 24191, Note_on_c, 1, 66, 60
3, 24210, Note_on_c, 1, 66, 0
3, 24215, Note_on_c, 1, 70, 0
3, 24241, Note_on_c, 1, 54, 43
3, 24241, Note_on_c, 1, 44, 42
3, 24245, Control_c, 1, 64, 0
3, 24245, Note_on_c, 1, 65, 47
3, 24246, Note_on_c, 1, 60, 36
3, 24247, Note_on_c, 1, 62, 36
3, 24252, Note_on_c, 1, 71, 39
3, 24264, Note_on_c, 1, 62, 0
3, 24280, Control_c, 1, 64, 127
3, 24319, Note_on_c, 1, 65, 0
3, 24328, Note_on_c, 1, 60, 0
3, 24338, Note_on_c, 1, 54, 0
3, 24345, Note_on_c, 1, 71, 0
3, 24364, Note_on_c, 1, 68, 48
3, 24365, Control_c, 1, 64, 0
3, 24365, Note_on_c, 1, 60, 45
3, 24366, Note_on_c, 1, 64, 54
3, 24366, Note_on_c, 1, 54, 31
3, 24392, Control_c, 1, 64, 127
3, 24421, Note_on_c, 1, 44, 0
3, 24424, Note_on_c, 1, 60, 0
3, 24428, Note_on_c, 1, 64, 0
3, 24429, Note_on_c, 1, 54, 0
3, 24435, Note_on_c, 1, 68, 0
3, 24489, Note_on_c, 1, 75, 74
3, 24490, Note_on_c, 1, 68, 72
3, 24490, Note_on_c, 1, 72, 65
3, 24492, Note_on_c, 1, 60, 62
3, 24492, Control_c, 1, 64, 0
3, 24492, Note_on_c, 1, 65, 69
3, 24515, Note_on_c, 1, 72, 0
3, 24516, Note_on_c, 1, 65, 0
3, 24518, Note_on_c, 1, 68, 0
3, 24520, Note_on_c, 1, 75, 0
3, 24523, Note_on_c, 1, 60, 0
3, 24548, Note_on_c, 1, 75, 69
3, 24550, Note_on_c, 1, 68, 59
3, 24551, Note_on_c, 1, 60, 58
3, 24551, Note_on_c, 1, 65, 66
3, 24552, Note_on_c, 1, 72, 53
3, 24575, Note_on_c, 1, 65, 0
3, 24578, Note_on_c, 1, 68, 0
3, 24580, Note_on_c, 1, 75, 0
3, 24580, Note_on_c, 1, 60, 0
3, 24580, Note_on_c, 1, 72, 0
3, 24593, Note_on_c, 1, 58, 55
3, 24608, Note_on_c, 1, 75, 67
3, 24610, Note_on_c, 1, 68, 48
3, 24610, Note_on_c, 1, 72, 56
3, 24610, Note_on_c, 1, 65, 61
3, 24612, Note_on_c, 1, 58, 0
3, 24612, Note_on_c, 1, 60, 67
3, 24633, Note_on_c, 1, 75, 0
3, 24633, Note_on_c, 1, 65, 0
3, 24634, Note_on_c, 1, 72, 0
3, 24638, Note_on_c, 1, 68, 0
3, 24645, Note_on_c, 1, 73, 52
3, 24646, Note_on_c, 1, 68, 47
3, 24648, Note_on_c, 1, 58, 60
3, 24648, Note_on_c, 1, 65, 55
3, 24651, Note_on_c, 1, 60, 0
3, 24678, Control_c, 1, 64, 127
3, 24702, Note_on_c, 1, 65, 0
3, 24708, Note_on_c, 1, 68, 0
3, 24715, Note_on_c, 1, 58, 0
3, 24716, Control_c, 1, 64, 0
3, 24717, Note_on_c, 1, 73, 0
3, 24726, Note_on_c, 1, 68, 50
3, 24726, Note_on_c, 1, 72, 57
3, 24727, Note_on_c, 1, 65, 55
3, 24728, Note_on_c, 1, 57, 50
3, 24773, Control_c, 1, 64, 127
3, 24814, Note_on_c, 1, 65, 0
3, 24820, Note_on_c, 1, 68, 0
3, 24821, Note_on_c, 1, 72, 0
3, 24840, Note_on_c, 1, 57, 0
3, 24840, Control_c, 1, 64, 0
3, 24844, Note_on_c, 1, 58, 48
3, 24845, Note_on_c, 1, 73, 37
3, 24845, Note_on_c, 1, 68, 48
3, 24847, Note_on_c, 1, 65, 41
3, 24865, Note_on_c, 1, 58, 0
3, 24867, Control_c, 1, 64, 127
3, 24883, Note_on_c, 1, 65, 0
3, 24888, Note_on_c, 1, 68, 0
3, 24909, Note_on_c, 1, 73, 0
3, 24964, Control_c, 1, 64, 0
3, 24972, Note_on_c, 1, 61, 36
3, 24972, Note_on_c, 1, 76, 70
3, 24973, Note_on_c, 1, 65, 42
3, 24973, Note_on_c, 1, 77, 73
3, 24974, Note_on_c, 1, 55, 43
3, 24979, Note_on_c, 1, 76, 0
3, 25053, Note_on_c, 1, 76, 70
3, 25056, Note_on_c, 1, 65, 0
3, 25060, Note_on_c, 1, 61, 0
3, 25066, Note_on_c, 1, 77, 0
3, 25100, Note_on_c, 1, 61, 34
3, 25102, Note_on_c, 1, 65, 29
3, 25103, Note_on_c, 1, 75, 62
3, 25107, Note_on_c, 1, 76, 0
3, 25112, Note_on_c, 1, 65, 0
3, 25121, Note_on_c, 1, 55, 0
3, 25136, Note_on_c, 1, 61, 0
3, 25162, Note_on_c, 1, 75, 0
3, 25174, Note_on_c, 1, 73, 47
3, 25212, Note_on_c, 1, 65, 44
3, 25215, Note_on_c, 1, 61, 30
3, 25216, Note_on_c, 1, 56, 21
3, 25241, Note_on_c, 1, 73, 0
3, 25246, Note_on_c, 1, 75, 39
3, 25255, Note_on_c, 1, 65, 0
3, 25258, Note_on_c, 1, 73, 37
3, 25279, Note_on_c, 1, 72, 50
3, 25280, Note_on_c, 1, 75, 0
3, 25285, Note_on_c, 1, 73, 0
3, 25292, Note_on_c, 1, 61, 0
3, 25296, Note_on_c, 1, 72, 0
3, 25313, Note_on_c, 1, 73, 62
3, 25336, Note_on_c, 1, 73, 0
3, 25342, Note_on_c, 1, 61, 37
3, 25343, Note_on_c, 1, 75, 61
3, 25344, Note_on_c, 1, 65, 35
3, 25363, Note_on_c, 1, 75, 0
3, 25372, Note_on_c, 1, 77, 68
3, 25394, Note_on_c, 1, 65, 0
3, 25395, Note_on_c, 1, 77, 0
3, 25402, Note_on_c, 1, 61, 0
3, 25404, Note_on_c, 1, 79, 58
3, 25422, Note_on_c, 1, 56, 0
3, 25424, Note_on_c, 1, 79, 0
3, 25439, Note_on_c, 1, 80, 61
3, 25461, Note_on_c, 1, 80, 0
3, 25466, Note_on_c, 1, 61, 29
3, 25467, Note_on_c, 1, 55, 33
3, 25472, Note_on_c, 1, 82, 40
3, 25490, Note_on_c, 1, 82, 0
3, 25501, Note_on_c, 1, 84, 60
3, 25519, Note_on_c, 1, 61, 0
3, 25521, Note_on_c, 1, 84, 0
3, 25529, Note_on_c, 1, 85, 74
3, 25551, Note_on_c, 1, 85, 0
3, 25557, Note_on_c, 1, 87, 74
3, 25558, Note_on_c, 1, 85, 28
3, 25564, Note_on_c, 1, 85, 0
3, 25578, Note_on_c, 1, 61, 28
3, 25580, Note_on_c, 1, 87, 0
3, 25580, Note_on_c, 1, 65, 26
3, 25586, Note_on_c, 1, 89, 72
3, 25601, Note_on_c, 1, 55, 0
3, 25603, Note_on_c, 1, 65, 0
3, 25608, Note_on_c, 1, 89, 0
3, 25617, Note_on_c, 1, 91, 66
3, 25623, Note_on_c, 1, 61, 0
3, 25635, Note_on_c, 1, 91, 0
3, 25645, Note_on_c, 1, 92, 79
3, 25662, Note_on_c, 1, 92, 0
3, 25677, Note_on_c, 1, 94, 69
3, 25700, Note_on_c, 1, 94, 0
3, 25708, Note_on_c, 1, 61, 34
3, 25709, Note_on_c, 1, 96, 56
3, 25709, Note_on_c, 1, 65, 34
3, 25710, Note_on_c, 1, 55, 44
3, 25710, Note_on_c, 1, 84, 55
3, 25723, Note_on_c, 1, 55, 0
3, 25724, Note_on_c, 1, 65, 0
3, 25726, Note_on_c, 1, 96, 0
3, 25727, Note_on_c, 1, 84, 0
3, 25731, Note_on_c, 1, 61, 0
3, 25746, Note_on_c, 1, 97, 69
3, 25747, Note_on_c, 1, 85, 59
3, 25748, Note_on_c, 1, 61, 40
3, 25748, Note_on_c, 1, 65, 45
3, 25749, Note_on_c, 1, 55, 60
3, 25801, Note_on_c, 1, 65, 0
3, 25802, Note_on_c, 1, 85, 0
3, 25802, Note_on_c, 1, 55, 0
3, 25805, Note_on_c, 1, 61, 0
3, 25807, Note_on_c, 1, 97, 0
3, 25823, Note_on_c, 1, 55, 50
3, 25824, Note_on_c, 1, 61, 38
3, 25825, Note_on_c, 1, 99, 69
3, 25826, Note_on_c, 1, 65, 42
3, 25827, Note_on_c, 1, 87, 50
3, 25827, Control_c, 1, 64, 127
3, 25845, Note_on_c, 1, 55, 0
3, 25851, Note_on_c, 1, 87, 0
3, 25851, Note_on_c, 1, 99, 0
3, 25853, Note_on_c, 1, 65, 0
3, 25855, Note_on_c, 1, 61, 0
3, 25896, Note_on_c, 1, 61, 53
3, 25897, Note_on_c, 1, 101, 59
3, 25898, Note_on_c, 1, 89, 52
3, 25901, Note_on_c, 1, 65, 24
3, 25905, Note_on_c, 1, 89, 0
3, 25906, Note_on_c, 1, 65, 0
3, 25912, Note_on_c, 1, 101, 0
3, 25915, Note_on_c, 1, 61, 0
3, 25926, Control_c, 1, 64, 0
3, 25937, Note_on_c, 1, 65, 57
3, 25937, Note_on_c, 1, 94, 64
3, 25939, Note_on_c, 1, 54, 36
3, 25939, Note_on_c, 1, 61, 37
3, 25939, Note_on_c, 1, 106, 60
3, 25940, Note_on_c, 1, 58, 36
3, 25952, Control_c, 1, 64, 127
3, 26008, Note_on_c, 1, 61, 0
3, 26013, Note_on_c, 1, 58, 0
3, 26014, Note_on_c, 1, 65, 0
3, 26031, Note_on_c, 1, 54, 0
3, 26042, Control_c, 1, 64, 0
3, 26048, Note_on_c, 1, 54, 31
3, 26049, Note_on_c, 1, 61, 35
3, 26052, Note_on_c, 1, 65, 22
3, 26052, Note_on_c, 1, 58, 39
3, 26093, Note_on_c, 1, 94, 0
3, 26097, Note_on_c, 1, 106, 0
3, 26127, Note_on_c, 1, 65, 0
3, 26127, Note_on_c, 1, 104, 75
3, 26137, Note_on_c, 1, 54, 0
3, 26149, Note_on_c, 1, 61, 0
3, 26149, Note_on_c, 1, 104, 0
3, 26163, Note_on_c, 1, 58, 0
3, 26171, Note_on_c, 1, 102, 81
3, 26174, Note_on_c, 1, 65, 48
3, 26175, Note_on_c, 1, 60, 44
3, 26176, Note_on_c, 1, 54, 28
3, 26185, Note_on_c, 1, 65, 0
3, 26198, Note_on_c, 1, 102, 0
3, 26208, Note_on_c, 1, 104, 56
3, 26216, Note_on_c, 1, 102, 48
3, 26236, Note_on_c, 1, 104, 0
3, 26236, Note_on_c, 1, 101, 55
3, 26244, Note_on_c, 1, 102, 0
3, 26256, Note_on_c, 1, 60, 0
3, 26262, Note_on_c, 1, 101, 0
3, 26266, Note_on_c, 1, 54, 0
3, 26290, Note_on_c, 1, 99, 75
3, 26292, Note_on_c, 1, 54, 36
3, 26293, Note_on_c, 1, 64, 39
3, 26294, Note_on_c, 1, 60, 39
3, 26305, Note_on_c, 1, 60, 0
3, 26309, Note_on_c, 1, 54, 0
3, 26318, Note_on_c, 1, 64, 0
3, 26351, Note_on_c, 1, 99, 0
3, 26360, Note_on_c, 1, 100, 71
3, 26397, Note_on_c, 1, 100, 0
3, 26403, Note_on_c, 1, 68, 39
3, 26410, Note_on_c, 1, 63, 27
3, 26410, Note_on_c, 1, 59, 36
3, 26411, Note_on_c, 1, 64, 28
3, 26412, Note_on_c, 1, 97, 68
3, 26446, Note_on_c, 1, 97, 0
3, 26451, Note_on_c, 1, 99, 73
3, 26476, Note_on_c, 1, 64, 0
3, 26478, Note_on_c, 1, 68, 0
3, 26483, Note_on_c, 1, 99, 0
3, 26484, Note_on_c, 1, 95, 76
3, 26490, Note_on_c, 1, 63, 0
3, 26512, Note_on_c, 1, 95, 0
3, 26518, Note_on_c, 1, 97, 73
3, 26519, Note_on_c, 1, 68, 45
3, 26525, Note_on_c, 1, 63, 25
3, 26527, Note_on_c, 1, 64, 34
3, 26546, Note_on_c, 1, 97, 0
3, 26554, Note_on_c, 1, 94, 61
3, 26557, Note_on_c, 1, 59, 0
3, 26559, Note_on_c, 1, 68, 0
3, 26580, Note_on_c, 1, 94, 0
3, 26588, Note_on_c, 1, 95, 58
3, 26601, Note_on_c, 1, 64, 0
3, 26613, Note_on_c, 1, 63, 0
3, 26616, Note_on_c, 1, 95, 0
3, 26620, Note_on_c, 1, 92, 70
3, 26641, Note_on_c, 1, 68, 38
3, 26644, Note_on_c, 1, 63, 25
3, 26647, Note_on_c, 1, 92, 0
3, 26647, Note_on_c, 1, 64, 51
3, 26648, Note_on_c, 1, 58, 34
3, 26655, Note_on_c, 1, 94, 61
3, 26679, Note_on_c, 1, 68, 0
3, 26681, Note_on_c, 1, 94, 0
3, 26690, Note_on_c, 1, 90, 55
3, 26710, Note_on_c, 1, 64, 0
3, 26714, Note_on_c, 1, 63, 0
3, 26714, Note_on_c, 1, 90, 0
3, 26723, Note_on_c, 1, 92, 58
3, 26745, Note_on_c, 1, 58, 0
3, 26746, Note_on_c, 1, 92, 0
3, 26761, Note_on_c, 1, 68, 39
3, 26764, Note_on_c, 1, 58, 29
3, 26767, Note_on_c, 1, 63, 33
3, 26767, Note_on_c, 1, 64, 41
3, 26794, Note_on_c, 1, 64, 0
3, 26795, Note_on_c, 1, 68, 0
3, 26808, Note_on_c, 1, 63, 0
3, 26809, Note_on_c, 1, 87, 67
3, 26815, Note_on_c, 1, 58, 0
3, 26838, Note_on_c, 1, 87, 0
3, 26845, Note_on_c, 1, 89, 60
3, 26869, Note_on_c, 1, 89, 0
3, 26886, Note_on_c, 1, 62, 34
3, 26887, Note_on_c, 1, 84, 66
3, 26890, Note_on_c, 1, 55, 25
3, 26895, Note_on_c, 1, 58, 23
3, 26898, Note_on_c, 1, 53, 16
3, 26955, Note_on_c, 1, 62, 0
3, 26960, Note_on_c, 1, 55, 0
3, 26961, Note_on_c, 1, 53, 0
3, 26962, Note_on_c, 1, 81, 57
3, 26966, Note_on_c, 1, 58, 0
3, 26976, Note_on_c, 1, 84, 0
3, 26992, Note_on_c, 1, 81, 0
3, 27005, Note_on_c, 1, 76, 49
3, 27008, Note_on_c, 1, 63, 34
3, 27013, Note_on_c, 1, 58, 28
3, 27015, Note_on_c, 1, 52, 24
3, 27027, Note_on_c, 1, 63, 0
3, 27044, Note_on_c, 1, 52, 0
3, 27062, Note_on_c, 1, 58, 0
3, 27082, Note_on_c, 1, 72, 40
3, 27093, Note_on_c, 1, 76, 0
3, 27116, Note_on_c, 1, 72, 0
3, 27129, Note_on_c, 1, 82, 64
3, 27139, Note_on_c, 1, 75, 21
3, 27144, Note_on_c, 1, 75, 0
3, 27154, Note_on_c, 1, 82, 0
3, 27204, Note_on_c, 1, 58, 38
3, 27226, Note_on_c, 1, 58, 0
3, 27251, Note_on_c, 1, 59, 37
3, 27284, Note_on_c, 1, 59, 0
3, 27429, Note_on_c, 1, 72, 37
3, 27432, Note_on_c, 1, 84, 75
3, 27436, Note_on_c, 1, 87, 28
3, 27442, Note_on_c, 1, 87, 0
3, 27461, Note_on_c, 1, 68, 51
3, 27462, Note_on_c, 1, 72, 0
3, 27465, Note_on_c, 1, 80, 58
3, 27471, Note_on_c, 1, 84, 0
3, 27493, Note_on_c, 1, 80, 0
3, 27495, Note_on_c, 1, 68, 0
3, 27500, Note_on_c, 1, 77, 42
3, 27503, Note_on_c, 1, 65, 30
3, 27523, Note_on_c, 1, 77, 0
3, 27530, Note_on_c, 1, 65, 0
3, 27539, Note_on_c, 1, 67, 50
3, 27542, Note_on_c, 1, 79, 53
3, 27567, Note_on_c, 1, 79, 0
3, 27570, Note_on_c, 1, 67, 0
3, 27625, Note_on_c, 1, 83, 82
3, 27627, Note_on_c, 1, 72, 51
3, 27627, Note_on_c, 1, 71, 48
3, 27638, Note_on_c, 1, 72, 0
3, 27648, Note_on_c, 1, 71, 0
3, 27648, Note_on_c, 1, 83, 0
3, 27654, Note_on_c, 1, 79, 66
3, 27657, Note_on_c, 1, 67, 58
3, 27675, Note_on_c, 1, 67, 0
3, 27675, Note_on_c, 1, 79, 0
3, 27684, Note_on_c, 1, 76, 47
3, 27705, Note_on_c, 1, 76, 0
3, 27712, Note_on_c, 1, 74, 54
3, 27720, Note_on_c, 1, 62, 31
3, 27729, Note_on_c, 1, 62, 0
3, 27732, Note_on_c, 1, 74, 0
3, 27744, Note_on_c, 1, 73, 44
3, 27747, Note_on_c, 1, 61, 46
3, 27768, Note_on_c, 1, 61, 0
3, 27768, Note_on_c, 1, 73, 0
3, 27775, Note_on_c, 1, 76, 65
3, 27794, Note_on_c, 1, 76, 0
3, 27801, Note_on_c, 1, 79, 84
3, 27806, Note_on_c, 1, 67, 57
3, 27817, Note_on_c, 1, 67, 0
3, 27829, Note_on_c, 1, 79, 0
3, 27835, Note_on_c, 1, 64, 29
3, 27835, Note_on_c, 1, 76, 49
3, 27846, Note_on_c, 1, 76, 0
3, 27848, Note_on_c, 1, 64, 0
3, 27858, Note_on_c, 1, 66, 58
3, 27860, Note_on_c, 1, 78, 73
3, 27882, Note_on_c, 1, 66, 0
3, 27890, Note_on_c, 1, 78, 0
3, 27894, Note_on_c, 1, 73, 48
3, 27897, Note_on_c, 1, 63, 37
3, 27903, Note_on_c, 1, 63, 0
3, 27914, Note_on_c, 1, 73, 0
3, 27935, Note_on_c, 1, 61, 46
3, 27967, Note_on_c, 1, 61, 0
3, 28036, Note_on_c, 1, 44, 46
3, 28053, Note_on_c, 1, 44, 0
3, 28078, Note_on_c, 1, 60, 52
3, 28079, Note_on_c, 1, 68, 42
3, 28079, Note_on_c, 1, 54, 39
3, 28080, Note_on_c, 1, 65, 51
3, 28182, Note_on_c, 1, 60, 0
3, 28209, Note_on_c, 1, 60, 44
3, 28211, Control_c, 1, 64, 127
3, 28214, Note_on_c, 1, 54, 0
3, 28317, Note_on_c, 1, 65, 0
3, 28322, Control_c, 1, 64, 0
3, 28324, Note_on_c, 1, 68, 0
3, 28325, Note_on_c, 1, 60, 0
3, 28446, Note_on_c, 1, 57, 67
3, 28464, Note_on_c, 1, 57, 0
3, 28481, Note_on_c, 1, 59, 60
3, 28497, Note_on_c, 1, 59, 0
3, 28508, Note_on_c, 1, 60, 72
3, 28531, Note_on_c, 1, 60, 0
3, 28539, Note_on_c, 1, 62, 78
3, 28560, Note_on_c, 1, 62, 0
3, 28570, Note_on_c, 1, 63, 59
3, 28593, Note_on_c, 1, 63, 0
3, 28600, Note_on_c, 1, 65, 62
3, 28620, Note_on_c, 1, 65, 0
3, 28629, Note_on_c, 1, 67, 63
3, 28649, Note_on_c, 1, 67, 0
3, 28659, Note_on_c, 1, 68, 67
3, 28681, Note_on_c, 1, 68, 0
3, 28687, Note_on_c, 1, 66, 32
3, 28687, Note_on_c, 1, 70, 55
3, 28689, Note_on_c, 1, 56, 31
3, 28690, Note_on_c, 1, 62, 28
3, 28711, Note_on_c, 1, 70, 0
3, 28720, Note_on_c, 1, 71, 62
3, 28740, Note_on_c, 1, 62, 0
3, 28742, Note_on_c, 1, 71, 0
3, 28748, Note_on_c, 1, 66, 0
3, 28749, Note_on_c, 1, 72, 53
3, 28771, Note_on_c, 1, 72, 0
3, 28781, Note_on_c, 1, 73, 39
3, 28782, Note_on_c, 1, 56, 0
3, 28800, Note_on_c, 1, 73, 0
3, 28812, Note_on_c, 1, 61, 35
3, 28814, Note_on_c, 1, 65, 34
3, 28814, Note_on_c, 1, 55, 39
3, 28820, Note_on_c, 1, 75, 61
3, 28916, Note_on_c, 1, 55, 0
3, 28916, Note_on_c, 1, 65, 0
3, 28919, Note_on_c, 1, 61, 0
3, 28933, Note_on_c, 1, 75, 0
3, 28939, Note_on_c, 1, 73, 43
3, 28942, Note_on_c, 1, 61, 35
3, 28943, Note_on_c, 1, 55, 40
3, 28943, Note_on_c, 1, 65, 34
3, 29010, Note_on_c, 1, 65, 0
3, 29013, Note_on_c, 1, 55, 0
3, 29044, Note_on_c, 1, 61, 0
3, 29047, Note_on_c, 1, 73, 0
3, 29056, Note_on_c, 1, 72, 64
3, 29057, Note_on_c, 1, 54, 31
3, 29060, Note_on_c, 1, 60, 30
3, 29061, Note_on_c, 1, 64, 24
3, 29083, Note_on_c, 1, 72, 0
3, 29086, Note_on_c, 1, 73, 33
3, 29100, Note_on_c, 1, 72, 40
3, 29113, Note_on_c, 1, 73, 0
3, 29117, Note_on_c, 1, 64, 0
3, 29120, Note_on_c, 1, 71, 50
3, 29124, Note_on_c, 1, 72, 0
3, 29129, Note_on_c, 1, 60, 0
3, 29146, Note_on_c, 1, 71, 0
3, 29158, Note_on_c, 1, 72, 74
3, 29166, Note_on_c, 1, 64, 28
3, 29172, Note_on_c, 1, 60, 24
3, 29182, Note_on_c, 1, 72, 0
3, 29190, Note_on_c, 1, 73, 48
3, 29208, Note_on_c, 1, 64, 0
3, 29222, Note_on_c, 1, 73, 0
3, 29222, Note_on_c, 1, 74, 68
3, 29241, Note_on_c, 1, 54, 0
3, 29245, Note_on_c, 1, 74, 0
3, 29252, Note_on_c, 1, 75, 72
3, 29268, Note_on_c, 1, 60, 0
3, 29282, Note_on_c, 1, 75, 0
3, 29282, Note_on_c, 1, 76, 71
3, 29285, Note_on_c, 1, 60, 17
3, 29285, Note_on_c, 1, 63, 30
3, 29288, Note_on_c, 1, 53, 22
3, 29293, Note_on_c, 1, 56, 28
3, 29309, Note_on_c, 1, 76, 0
3, 29313, Note_on_c, 1, 77, 56
3, 29348, Note_on_c, 1, 63, 0
3, 29353, Note_on_c, 1, 65, 55
3, 29364, Note_on_c, 1, 60, 0
3, 29374, Note_on_c, 1, 56, 0
3, 29402, Note_on_c, 1, 63, 26
3, 29406, Control_c, 1, 64, 127
3, 29407, Note_on_c, 1, 56, 20
3, 29420, Note_on_c, 1, 53, 0
3, 29426, Note_on_c, 1, 65, 0
3, 29428, Note_on_c, 1, 63, 0
3, 29441, Note_on_c, 1, 56, 0
3, 29450, Note_on_c, 1, 77, 0
3, 29506, Control_c, 1, 64, 0
3, 29515, Note_on_c, 1, 85, 74
3, 29515, Note_on_c, 1, 80, 69
3, 29516, Note_on_c, 1, 73, 60
3, 29516, Note_on_c, 1, 66, 67
3, 29516, Note_on_c, 1, 61, 59
3, 29516, Note_on_c, 1, 55, 74
3, 29528, Control_c, 1, 64, 127
3, 29559, Note_on_c, 1, 55, 0
3, 29565, Note_on_c, 1, 73, 0
3, 29569, Note_on_c, 1, 85, 0
3, 29569, Note_on_c, 1, 80, 0
3, 29571, Note_on_c, 1, 66, 0
3, 29576, Note_on_c, 1, 61, 0
3, 29590, Note_on_c, 1, 80, 64
3, 29590, Note_on_c, 1, 86, 80
3, 29590, Note_on_c, 1, 74, 74
3, 29591, Note_on_c, 1, 61, 65
3, 29591, Note_on_c, 1, 65, 66
3, 29592, Note_on_c, 1, 55, 66
3, 29608, Note_on_c, 1, 65, 0
3, 29610, Note_on_c, 1, 86, 0
3, 29611, Note_on_c, 1, 74, 0
3, 29614, Note_on_c, 1, 55, 0
3, 29619, Note_on_c, 1, 80, 0
3, 29626, Note_on_c, 1, 61, 0
3, 29630, Control_c, 1, 64, 0
3, 29635, Note_on_c, 1, 87, 77
3, 29636, Note_on_c, 1, 75, 65
3, 29636, Note_on_c, 1, 82, 62
3, 29636, Note_on_c, 1, 61, 69
3, 29637, Note_on_c, 1, 55, 68
3, 29638, Note_on_c, 1, 65, 61
3, 29659, Control_c, 1, 64, 127
3, 29688, Note_on_c, 1, 65, 0
3, 29690, Note_on_c, 1, 55, 0
3, 29692, Note_on_c, 1, 61, 0
3, 29694, Note_on_c, 1, 75, 0
3, 29704, Note_on_c, 1, 82, 0
3, 29704, Note_on_c, 1, 87, 0
3, 29725, Note_on_c, 1, 61, 34
3, 29725, Note_on_c, 1, 55, 34
3, 29732, Note_on_c, 1, 55, 0
3, 29734, Note_on_c, 1, 61, 0
3, 29752, Control_c, 1, 64, 0
3, 29763, Note_on_c, 1, 82, 62
3, 29764, Note_on_c, 1, 89, 61
3, 29764, Note_on_c, 1, 65, 66
3, 29764, Note_on_c, 1, 54, 49
3, 29764, Note_on_c, 1, 77, 55
3, 29766, Note_on_c, 1, 61, 44
3, 29766, Note_on_c, 1, 85, 38
3, 29767, Note_on_c, 1, 58, 43
3, 29775, Control_c, 1, 64, 127
3, 29790, Note_on_c, 1, 77, 0
3, 29791, Note_on_c, 1, 82, 0
3, 29791, Note_on_c, 1, 85, 0
3, 29793, Note_on_c, 1, 89, 0
3, 29800, Note_on_c, 1, 65, 0
3, 29801, Note_on_c, 1, 58, 0
3, 29804, Note_on_c, 1, 61, 0
3, 29806, Note_on_c, 1, 54, 0
3, 29848, Note_on_c, 1, 61, 68
3, 29848, Note_on_c, 1, 94, 85
3, 29848, Note_on_c, 1, 58, 67
3, 29848, Note_on_c, 1, 54, 68
3, 29848, Note_on_c, 1, 65, 72
3, 29849, Note_on_c, 1, 82, 79
3, 29850, Note_on_c, 1, 87, 80
3, 29880, Note_on_c, 1, 65, 0
3, 29882, Note_on_c, 1, 82, 0
3, 29882, Note_on_c, 1, 87, 0
3, 29883, Note_on_c, 1, 94, 0
3, 29884, Note_on_c, 1, 54, 0
3, 29885, Note_on_c, 1, 61, 0
3, 29886, Note_on_c, 1, 58, 0
3, 29894, Control_c, 1, 64, 0
3, 29895, Note_on_c, 1, 94, 51
3, 29897, Note_on_c, 1, 82, 47
3, 29897, Note_on_c, 1, 61, 53
3, 29897, Note_on_c, 1, 54, 59
3, 29898, Note_on_c, 1, 87, 55
3, 29898, Note_on_c, 1, 65, 61
3, 29898, Note_on_c, 1, 58, 59
3, 29909, Control_c, 1, 64, 127
3, 29930, Note_on_c, 1, 65, 0
3, 29932, Note_on_c, 1, 94, 0
3, 29932, Note_on_c, 1, 82, 0
3, 29933, Note_on_c, 1, 58, 0
3, 29933, Note_on_c, 1, 61, 0
3, 29936, Note_on_c, 1, 87, 0
3, 29938, Note_on_c, 1, 54, 0
3, 29968, Note_on_c, 1, 92, 71
3, 29969, Note_on_c, 1, 80, 60
3, 29969, Note_on_c, 1, 87, 65
3, 29969, Note_on_c, 1, 65, 60
3, 29970, Note_on_c, 1, 61, 52
3, 29970, Note_on_c, 1, 54, 52
3, 29972, Note_on_c, 1, 58, 42
3, 29983, Note_on_c, 1, 65, 0
3, 29988, Note_on_c, 1, 80, 0
3, 29990, Note_on_c, 1, 87, 0
3, 29992, Note_on_c, 1, 54, 0
3, 29995, Note_on_c, 1, 92, 0
3, 29997, Note_on_c, 1, 61, 0
3, 30001, Note_on_c, 1, 58, 0
3, 30005, Control_c, 1, 64, 0
3, 30015, Note_on_c, 1, 93, 77
3, 30015, Note_on_c, 1, 54, 67
3, 30016, Note_on_c, 1, 86, 74
3, 30016, Note_on_c, 1, 64, 72
3, 30016, Note_on_c, 1, 90, 50
3, 30017, Note_on_c, 1, 81, 55
3, 30018, Note_on_c, 1, 60, 64
3, 30031, Control_c, 1, 64, 127
3, 30068, Note_on_c, 1, 86, 0
3, 30074, Note_on_c, 1, 81, 0
3, 30076, Note_on_c, 1, 64, 0
3, 30078, Note_on_c, 1, 54, 0
3, 30080, Note_on_c, 1, 93, 0
3, 30081, Note_on_c, 1, 90, 0
3, 30082, Note_on_c, 1, 60, 0
3, 30132, Control_c, 1, 64, 0
3, 30132, Note_on_c, 1, 54, 60
3, 30135, Note_on_c, 1, 96, 75
3, 30135, Note_on_c, 1, 60, 62
3, 30135, Note_on_c, 1, 64, 66
3, 30135, Note_on_c, 1, 91, 74
3, 30136, Note_on_c, 1, 84, 72
3, 30151, Control_c, 1, 64, 127
3, 30176, Note_on_c, 1, 84, 0
3, 30187, Note_on_c, 1, 96, 0
3, 30187, Note_on_c, 1, 91, 0
3, 30192, Note_on_c, 1, 64, 0
3, 30198, Note_on_c, 1, 60, 0
3, 30209, Note_on_c, 1, 54, 0
3, 30243, Control_c, 1, 64, 0
3, 30245, Note_on_c, 1, 53, 60
3, 30248, Note_on_c, 1, 63, 74
3, 30249, Note_on_c, 1, 101, 74
3, 30249, Note_on_c, 1, 60, 64
3, 30249, Note_on_c, 1, 56, 47
3, 30250, Note_on_c, 1, 96, 80
3, 30250, Note_on_c, 1, 89, 76
3, 30265, Control_c, 1, 64, 127
3, 30279, Note_on_c, 1, 89, 0
3, 30282, Note_on_c, 1, 96, 0
3, 30283, Note_on_c, 1, 63, 0
3, 30285, Note_on_c, 1, 101, 0
3, 30287, Note_on_c, 1, 53, 0
3, 30294, Note_on_c, 1, 56, 0
3, 30297, Note_on_c, 1, 60, 0
3, 30367, Note_on_c, 1, 53, 64
3, 30367, Note_on_c, 1, 60, 73
3, 30367, Note_on_c, 1, 63, 75
3, 30368, Control_c, 1, 64, 0
3, 30368, Note_on_c, 1, 104, 83
3, 30369, Note_on_c, 1, 92, 83
3, 30369, Note_on_c, 1, 99, 78
3, 30369, Note_on_c, 1, 56, 57
3, 30390, Control_c, 1, 64, 127
3, 30428, Note_on_c, 1, 53, 0
3, 30430, Note_on_c, 1, 60, 0
3, 30432, Note_on_c, 1, 63, 0
3, 30433, Note_on_c, 1, 56, 0
3, 30451, Note_on_c, 1, 92, 0
3, 30452, Note_on_c, 1, 104, 0
3, 30454, Note_on_c, 1, 99, 0
3, 30490, Note_on_c, 1, 92, 71
3, 30491, Note_on_c, 1, 104, 71
3, 30491, Note_on_c, 1, 63, 61
3, 30492, Note_on_c, 1, 99, 53
3, 30493, Note_on_c, 1, 60, 54
3, 30497, Note_on_c, 1, 56, 34
3, 30498, Note_on_c, 1, 99, 0
3, 30499, Note_on_c, 1, 60, 0
3, 30499, Note_on_c, 1, 92, 0
3, 30501, Note_on_c, 1, 63, 0
3, 30502, Note_on_c, 1, 104, 0
3, 30504, Note_on_c, 1, 56, 0
3, 30564, Note_on_c, 1, 63, 67
3, 30568, Note_on_c, 1, 104, 69
3, 30568, Note_on_c, 1, 92, 69
3, 30568, Note_on_c, 1, 60, 50
3, 30569, Note_on_c, 1, 99, 60
3, 30571, Note_on_c, 1, 56, 25
3, 30575, Note_on_c, 1, 60, 0
3, 30576, Note_on_c, 1, 99, 0
3, 30576, Note_on_c, 1, 92, 0
3, 30577, Note_on_c, 1, 63, 0
3, 30578, Note_on_c, 1, 56, 0
3, 30580, Note_on_c, 1, 104, 0
3, 30613, Note_on_c, 1, 66, 85
3, 30613, Note_on_c, 1, 94, 83
3, 30613, Note_on_c, 1, 56, 80
3, 30614, Note_on_c, 1, 106, 84
3, 30615, Note_on_c, 1, 99, 72
3, 30615, Note_on_c, 1, 62, 74
3, 30620, Note_on_c, 1, 62, 0
3, 30626, Note_on_c, 1, 62, 24
3, 30668, Note_on_c, 1, 106, 0
3, 30668, Note_on_c, 1, 99, 0
3, 30669, Note_on_c, 1, 94, 0
3, 30688, Note_on_c, 1, 62, 0
3, 30690, Note_on_c, 1, 66, 0
3, 30692, Note_on_c, 1, 56, 0
3, 30720, Control_c, 1, 64, 0
3, 30794, Note_on_c, 1, 43, 61
3, 30795, Note_on_c, 1, 58, 73
3, 30826, Note_on_c, 1, 43, 0
3, 30834, Note_on_c, 1, 58, 0
3, 30838, Note_on_c, 1, 52, 60
3, 30841, Note_on_c, 1, 36, 38
3, 30910, Control_c, 1, 64, 127
3, 30913, Control_c, 1, 64, 0
3, 30926, Control_c, 1, 64, 127
3, 30936, Control_c, 1, 64, 0
3, 30943, Note_on_c, 1, 52, 0
3, 30947, Note_on_c, 1, 36, 0
3, 30949, Note_on_c, 1, 57, 73
3, 30951, Note_on_c, 1, 42, 58
3, 31050, Control_c, 1, 64, 127
3, 31072, Control_c, 1, 64, 0
3, 31074, Note_on_c, 1, 42, 0
3, 31076, Note_on_c, 1, 51, 62
3, 31078, Note_on_c, 1, 35, 57
3, 31085, Note_on_c, 1, 57, 0
3, 31184, Note_on_c, 1, 51, 0
3, 31199, Note_on_c, 1, 56, 84
3, 31200, Note_on_c, 1, 41, 75
3, 31249, Note_on_c, 1, 41, 0
3, 31261, Note_on_c, 1, 56, 0
3, 31273, Note_on_c, 1, 41, 59
3, 31275, Note_on_c, 1, 35, 0
3, 31275, Note_on_c, 1, 56, 75
3, 31281, Control_c, 1, 64, 127
3, 31311, Control_c, 1, 64, 0
3, 31314, Note_on_c, 1, 41, 0
3, 31317, Note_on_c, 1, 56, 0
3, 31320, Note_on_c, 1, 50, 66
3, 31322, Note_on_c, 1, 34, 59
3, 31408, Note_on_c, 1, 50, 0
3, 31436, Note_on_c, 1, 55, 73
3, 31437, Note_on_c, 1, 40, 56
3, 31438, Note_on_c, 1, 34, 0
3, 31450, Note_on_c, 1, 55, 0
3, 31452, Note_on_c, 1, 40, 0
3, 31558, Note_on_c, 1, 49, 43
3, 31563, Note_on_c, 1, 33, 32
3, 31585, Note_on_c, 1, 33, 0
3, 31595, Note_on_c, 1, 49, 0
3, 31678, Note_on_c, 1, 39, 39
3, 31678, Note_on_c, 1, 54, 40
3, 31706, Note_on_c, 1, 39, 0
3, 31714, Note_on_c, 1, 54, 0
3, 31800, Note_on_c, 1, 54, 42
3, 31801, Note_on_c, 1, 39, 36
3, 31828, Note_on_c, 1, 39, 0
3, 31836, Note_on_c, 1, 54, 0
3, 31877, Note_on_c, 1, 39, 35
3, 31898, Note_on_c, 1, 39, 0
3, 31917, Note_on_c, 1, 60, 43
3, 31920, Note_on_c, 1, 53, 40
3, 31952, Note_on_c, 1, 60, 0
3, 31954, Note_on_c, 1, 53, 0
3, 32037, Note_on_c, 1, 53, 36
3, 32038, Note_on_c, 1, 44, 27
3, 32039, Note_on_c, 1, 60, 34
3, 32063, Note_on_c, 1, 44, 0
3, 32066, Note_on_c, 1, 53, 0
3, 32074, Note_on_c, 1, 60, 0
3, 32158, Note_on_c, 1, 66, 33
3, 32159, Note_on_c, 1, 57, 36
3, 32161, Note_on_c, 1, 61, 35
3, 32161, Note_on_c, 1, 47, 32
3, 32166, Note_on_c, 1, 63, 25
3, 32176, Note_on_c, 1, 57, 0
3, 32179, Note_on_c, 1, 47, 0
3, 32183, Note_on_c, 1, 61, 0
3, 32185, Note_on_c, 1, 63, 0
3, 32188, Note_on_c, 1, 66, 0
3, 32275, Note_on_c, 1, 66, 37
3, 32277, Note_on_c, 1, 57, 41
3, 32278, Note_on_c, 1, 61, 38
3, 32279, Note_on_c, 1, 47, 27
3, 32282, Note_on_c, 1, 63, 30
3, 32304, Note_on_c, 1, 47, 0
3, 32310, Note_on_c, 1, 66, 0
3, 32311, Note_on_c, 1, 63, 0
3, 32312, Note_on_c, 1, 61, 0
3, 32313, Note_on_c, 1, 57, 0
3, 32399, Note_on_c, 1, 67, 45
3, 32401, Note_on_c, 1, 56, 25
3, 32402, Note_on_c, 1, 46, 36
3, 32402, Note_on_c, 1, 60, 47
3, 32407, Note_on_c, 1, 63, 20
3, 32420, Note_on_c, 1, 63, 0
3, 32420, Note_on_c, 1, 60, 0
3, 32421, Note_on_c, 1, 46, 0
3, 32421, Note_on_c, 1, 56, 0
3, 32423, Note_on_c, 1, 67, 0
3, 32477, Note_on_c, 1, 46, 42
3, 32477, Note_on_c, 1, 66, 53
3, 32479, Note_on_c, 1, 56, 46
3, 32481, Note_on_c, 1, 63, 36
3, 32482, Note_on_c, 1, 60, 55
3, 32496, Control_c, 1, 64, 127
3, 32506, Note_on_c, 1, 60, 0
3, 32507, Note_on_c, 1, 56, 0
3, 32508, Note_on_c, 1, 46, 0
3, 32511, Note_on_c, 1, 66, 0
3, 32515, Note_on_c, 1, 63, 0
3, 32515, Control_c, 1, 64, 0
3, 32521, Note_on_c, 1, 46, 33
3, 32522, Note_on_c, 1, 65, 49
3, 32523, Note_on_c, 1, 56, 29
3, 32524, Note_on_c, 1, 60, 38
3, 32539, Note_on_c, 1, 46, 0
3, 32541, Note_on_c, 1, 60, 0
3, 32543, Note_on_c, 1, 56, 0
3, 32544, Note_on_c, 1, 65, 0
3, 32601, Note_on_c, 1, 46, 30
3, 32601, Note_on_c, 1, 54, 67
3, 32619, Control_c, 1, 64, 127
3, 32622, Note_on_c, 1, 46, 0
3, 32622, Control_c, 1, 64, 0
3, 32639, Note_on_c, 1, 54, 0
3, 32642, Note_on_c, 1, 39, 38
3, 32648, Note_on_c, 1, 55, 35
3, 32698, Control_c, 1, 64, 127
3, 32729, Note_on_c, 1, 55, 0
3, 32756, Note_on_c, 1, 55, 48
3, 32756, Note_on_c, 1, 51, 37
3, 32757, Note_on_c, 1, 61, 45
3, 32757, Control_c, 1, 64, 0
3, 32765, Note_on_c, 1, 39, 0
3, 32773, Note_on_c, 1, 55, 0
3, 32791, Note_on_c, 1, 55, 46
3, 32794, Note_on_c, 1, 61, 0
3, 32807, Note_on_c, 1, 51, 0
3, 32811, Note_on_c, 1, 55, 0
3, 32833, Note_on_c, 1, 39, 48
3, 32837, Control_c, 1, 64, 127
3, 32838, Note_on_c, 1, 55, 53
3, 32870, Note_on_c, 1, 39, 0
3, 32873, Control_c, 1, 64, 0
3, 32875, Note_on_c, 1, 55, 0
3, 32882, Note_on_c, 1, 54, 51
3, 32885, Note_on_c, 1, 38, 38
3, 32906, Control_c, 1, 64, 127
3, 32933, Note_on_c, 1, 54, 0
3, 32995, Note_on_c, 1, 54, 60
3, 32997, Note_on_c, 1, 48, 46
3, 32998, Control_c, 1, 64, 0
3, 33000, Note_on_c, 1, 60, 49
3, 33006, Note_on_c, 1, 60, 0
3, 33007, Note_on_c, 1, 54, 0
3, 33008, Note_on_c, 1, 38, 0
3, 33073, Note_on_c, 1, 48, 0
3, 33076, Note_on_c, 1, 54, 57
3, 33076, Note_on_c, 1, 38, 46
3, 33078, Control_c, 1, 64, 127
3, 33094, Note_on_c, 1, 38, 0
3, 33113, Note_on_c, 1, 54, 0
3, 33121, Note_on_c, 1, 53, 53
3, 33124, Note_on_c, 1, 37, 43
3, 33125, Control_c, 1, 64, 0
3, 33174, Control_c, 1, 64, 127
3, 33217, Note_on_c, 1, 53, 0
3, 33234, Note_on_c, 1, 53, 45
3, 33236, Note_on_c, 1, 63, 42
3, 33238, Note_on_c, 1, 56, 37
3, 33238, Note_on_c, 1, 44, 36
3, 33240, Note_on_c, 1, 37, 0
3, 33240, Control_c, 1, 64, 0
3, 33241, Note_on_c, 1, 60, 43
3, 33261, Control_c, 1, 64, 127
3, 33284, Note_on_c, 1, 53, 0
3, 33287, Note_on_c, 1, 60, 0
3, 33292, Note_on_c, 1, 56, 0
3, 33297, Note_on_c, 1, 63, 0
3, 33333, Note_on_c, 1, 44, 0
3, 33360, Control_c, 1, 64, 0
3, 33361, Note_on_c, 1, 61, 47
3, 33361, Note_on_c, 1, 72, 42
3, 33363, Note_on_c, 1, 65, 51
3, 33366, Note_on_c, 1, 39, 34
3, 33366, Note_on_c, 1, 69, 41
3, 33370, Note_on_c, 1, 46, 27
3, 33387, Note_on_c, 1, 39, 0
3, 33396, Control_c, 1, 64, 127
3, 33443, Note_on_c, 1, 72, 0
3, 33446, Note_on_c, 1, 69, 0
3, 33446, Note_on_c, 1, 65, 0
3, 33447, Note_on_c, 1, 61, 0
3, 33480, Note_on_c, 1, 70, 53
3, 33482, Note_on_c, 1, 61, 45
3, 33483, Note_on_c, 1, 65, 54
3, 33484, Note_on_c, 1, 55, 36
3, 33486, Control_c, 1, 64, 0
3, 33494, Control_c, 1, 64, 127
3, 33503, Note_on_c, 1, 55, 0
3, 33521, Note_on_c, 1, 46, 0
3, 33542, Note_on_c, 1, 70, 0
3, 33542, Note_on_c, 1, 61, 0
3, 33546, Note_on_c, 1, 65, 0
3, 33597, Note_on_c, 1, 61, 39
3, 33597, Note_on_c, 1, 68, 46
3, 33597, Note_on_c, 1, 65, 47
3, 33598, Note_on_c, 1, 54, 34
3, 33600, Control_c, 1, 64, 0
3, 33603, Note_on_c, 1, 39, 21
3, 33635, Control_c, 1, 64, 127
3, 33664, Note_on_c, 1, 65, 0
3, 33678, Note_on_c, 1, 61, 0
3, 33699, Note_on_c, 1, 39, 0
3, 33715, Note_on_c, 1, 46, 33
3, 33716, Note_on_c, 1, 68, 0
3, 33716, Note_on_c, 1, 61, 38
3, 33718, Note_on_c, 1, 65, 52
3, 33734, Note_on_c, 1, 54, 0
3, 33744, Note_on_c, 1, 46, 0
3, 33775, Note_on_c, 1, 65, 0
3, 33777, Note_on_c, 1, 61, 0
3, 33836, Control_c, 1, 64, 0
3, 33840, Note_on_c, 1, 54, 32
3, 33840, Note_on_c, 1, 60, 40
3, 33841, Note_on_c, 1, 65, 40
3, 33842, Note_on_c, 1, 44, 28
3, 33877, Control_c, 1, 64, 127
3, 33920, Note_on_c, 1, 60, 0
3, 33922, Note_on_c, 1, 44, 0
3, 33926, Note_on_c, 1, 65, 0
3, 33930, Note_on_c, 1, 54, 0
3, 33961, Note_on_c, 1, 54, 32
3, 33962, Note_on_c, 1, 65, 49
3, 33964, Note_on_c, 1, 44, 27
3, 33964, Note_on_c, 1, 60, 37
3, 33987, Note_on_c, 1, 54, 0
3, 33999, Note_on_c, 1, 44, 0
3, 34001, Note_on_c, 1, 60, 0
3, 34078, Control_c, 1, 64, 0
3, 34080, Note_on_c, 1, 56, 39
3, 34081, Note_on_c, 1, 51, 28
3, 34081, Note_on_c, 1, 41, 35
3, 34099, Control_c, 1, 64, 127
3, 34101, Note_on_c, 1, 65, 0
3, 34112, Note_on_c, 1, 56, 0
3, 34134, Note_on_c, 1, 41, 0
3, 34140, Note_on_c, 1, 70, 68
3, 34150, Note_on_c, 1, 51, 0
3, 34168, Note_on_c, 1, 70, 0
3, 34198, Note_on_c, 1, 70, 74
3, 34199, Note_on_c, 1, 61, 69
3, 34202, Note_on_c, 1, 66, 46
3, 34242, Note_on_c, 1, 66, 0
3, 34243, Note_on_c, 1, 61, 0
3, 34251, Note_on_c, 1, 70, 0
3, 34260, Note_on_c, 1, 68, 62
3, 34293, Note_on_c, 1, 68, 0
3, 34315, Control_c, 1, 64, 0
3, 34317, Note_on_c, 1, 58, 43
3, 34320, Note_on_c, 1, 68, 51
3, 34320, Note_on_c, 1, 54, 33
3, 34321, Note_on_c, 1, 61, 53
3, 34322, Note_on_c, 1, 56, 38
3, 34322, Note_on_c, 1, 65, 53
3, 34341, Control_c, 1, 64, 127
3, 34363, Note_on_c, 1, 65, 0
3, 34375, Note_on_c, 1, 58, 0
3, 34379, Note_on_c, 1, 68, 0
3, 34380, Note_on_c, 1, 66, 54
3, 34382, Note_on_c, 1, 56, 0
3, 34384, Note_on_c, 1, 54, 0
3, 34401, Note_on_c, 1, 61, 0
3, 34408, Note_on_c, 1, 66, 0
3, 34437, Control_c, 1, 64, 0
3, 34441, Note_on_c, 1, 66, 57
3, 34442, Note_on_c, 1, 52, 30
3, 34443, Note_on_c, 1, 60, 51
3, 34444, Note_on_c, 1, 64, 47
3, 34455, Note_on_c, 1, 52, 0
3, 34458, Control_c, 1, 64, 127
3, 34462, Note_on_c, 1, 64, 0
3, 34481, Note_on_c, 1, 60, 0
3, 34490, Note_on_c, 1, 66, 0
3, 34504, Note_on_c, 1, 63, 45
3, 34518, Note_on_c, 1, 63, 0
3, 34568, Note_on_c, 1, 43, 36
3, 34569, Note_on_c, 1, 58, 48
3, 34570, Control_c, 1, 64, 0
3, 34598, Control_c, 1, 64, 127
3, 34671, Note_on_c, 1, 43, 0
3, 34678, Note_on_c, 1, 52, 52
3, 34683, Note_on_c, 1, 36, 36
3, 34689, Control_c, 1, 64, 0
3, 34720, Note_on_c, 1, 58, 0
3, 34728, Control_c, 1, 64, 127
3, 34763, Note_on_c, 1, 52, 0
3, 34797, Note_on_c, 1, 36, 0
3, 34798, Note_on_c, 1, 42, 63
3, 34801, Note_on_c, 1, 57, 105
3, 34801, Control_c, 1, 64, 0
3, 34832, Control_c, 1, 64, 127
3, 34922, Control_c, 1, 64, 0
3, 34924, Note_on_c, 1, 42, 0
3, 34924, Note_on_c, 1, 35, 40
3, 34956, Control_c, 1, 64, 127
3, 34973, Note_on_c, 1, 57, 0
3, 35003, Note_on_c, 1, 51, 34
3, 35036, Note_on_c, 1, 51, 0
3, 35045, Note_on_c, 1, 41, 41
3, 35047, Note_on_c, 1, 56, 38
3, 35048, Control_c, 1, 64, 0
3, 35050, Note_on_c, 1, 35, 0
3, 35101, Control_c, 1, 64, 127
3, 35151, Note_on_c, 1, 56, 0
3, 35151, Note_on_c, 1, 41, 0
3, 35157, Note_on_c, 1, 50, 45
3, 35161, Control_c, 1, 64, 0
3, 35162, Note_on_c, 1, 34, 34
3, 35190, Control_c, 1, 64, 127
3, 35223, Note_on_c, 1, 50, 0
3, 35270, Control_c, 1, 64, 0
3, 35279, Note_on_c, 1, 34, 0
3, 35280, Note_on_c, 1, 40, 34
3, 35281, Note_on_c, 1, 55, 47
3, 35292, Note_on_c, 1, 55, 0
3, 35296, Note_on_c, 1, 40, 0
3, 35391, Note_on_c, 1, 61, 42
3, 35399, Note_on_c, 1, 50, 22
3, 35403, Note_on_c, 1, 33, 24
3, 35410, Note_on_c, 1, 50, 0
3, 35413, Note_on_c, 1, 33, 0
3, 35421, Note_on_c, 1, 61, 0
3, 35509, Note_on_c, 1, 54, 39
3, 35510, Note_on_c, 1, 65, 36
3, 35512, Note_on_c, 1, 58, 40
3, 35514, Note_on_c, 1, 61, 33
3, 35514, Note_on_c, 1, 39, 34
3, 35536, Note_on_c, 1, 58, 0
3, 35537, Note_on_c, 1, 39, 0
3, 35539, Note_on_c, 1, 65, 0
3, 35542, Note_on_c, 1, 61, 0
3, 35545, Note_on_c, 1, 54, 0
3, 35633, Note_on_c, 1, 54, 36
3, 35635, Note_on_c, 1, 63, 35
3, 35637, Note_on_c, 1, 51, 27
3, 35639, Note_on_c, 1, 58, 33
3, 35654, Note_on_c, 1, 54, 0
3, 35659, Note_on_c, 1, 58, 0
3, 35663, Note_on_c, 1, 51, 0
3, 35669, Note_on_c, 1, 63, 0
3, 35706, Note_on_c, 1, 72, 65
3, 35731, Note_on_c, 1, 72, 0
3, 35750, Note_on_c, 1, 68, 44
3, 35751, Note_on_c, 1, 54, 30
3, 35752, Note_on_c, 1, 44, 28
3, 35754, Note_on_c, 1, 60, 30
3, 35775, Note_on_c, 1, 60, 0
3, 35775, Note_on_c, 1, 44, 0
3, 35778, Note_on_c, 1, 68, 0
3, 35785, Note_on_c, 1, 54, 0
3, 35879, Note_on_c, 1, 54, 33
3, 35881, Note_on_c, 1, 61, 33
3, 35884, Note_on_c, 1, 60, 44
3, 35893, Note_on_c, 1, 60, 0
3, 35898, Note_on_c, 1, 61, 0
3, 35901, Note_on_c, 1, 54, 0
3, 35954, Note_on_c, 1, 75, 72
3, 35981, Note_on_c, 1, 75, 0
3, 35995, Note_on_c, 1, 66, 33
3, 35996, Note_on_c, 1, 71, 59
3, 35997, Note_on_c, 1, 47, 28
3, 36015, Note_on_c, 1, 71, 0
3, 36017, Note_on_c, 1, 47, 0
3, 36018, Note_on_c, 1, 66, 0
3, 36120, Note_on_c, 1, 47, 31
3, 36121, Note_on_c, 1, 61, 35
3, 36122, Note_on_c, 1, 57, 33
3, 36122, Note_on_c, 1, 54, 28
3, 36124, Note_on_c, 1, 63, 29
3, 36133, Note_on_c, 1, 47, 0
3, 36140, Note_on_c, 1, 57, 0
3, 36142, Note_on_c, 1, 61, 0
3, 36148, Note_on_c, 1, 63, 0
3, 36148, Note_on_c, 1, 54, 0
3, 36243, Note_on_c, 1, 56, 37
3, 36246, Note_on_c, 1, 46, 30
3, 36247, Note_on_c, 1, 62, 34
3, 36249, Note_on_c, 1, 60, 25
3, 36249, Note_on_c, 1, 65, 27
3, 36264, Note_on_c, 1, 60, 0
3, 36264, Note_on_c, 1, 46, 0
3, 36266, Note_on_c, 1, 62, 0
3, 36268, Note_on_c, 1, 65, 0
3, 36270, Note_on_c, 1, 56, 0
3, 36363, Note_on_c, 1, 56, 29
3, 36365, Note_on_c, 1, 46, 25
3, 36366, Note_on_c, 1, 60, 35
3, 36366, Note_on_c, 1, 62, 36
3, 36367, Note_on_c, 1, 65, 34
3, 36379, Note_on_c, 1, 56, 0
3, 36383, Note_on_c, 1, 60, 0
3, 36386, Note_on_c, 1, 46, 0
3, 36389, Note_on_c, 1, 62, 0
3, 36392, Note_on_c, 1, 65, 0
3, 36438, Note_on_c, 1, 39, 72
3, 36452, Note_on_c, 1, 39, 0
3, 36452, Control_c, 1, 64, 127
3, 36465, Control_c, 1, 64, 0
3, 36480, Note_on_c, 1, 75, 64
3, 36481, Note_on_c, 1, 70, 63
3, 36481, Note_on_c, 1, 67, 70
3, 36481, Note_on_c, 1, 73, 46
3, 36487, Note_on_c, 1, 67, 0
3, 36492, Note_on_c, 1, 75, 0
3, 36493, Note_on_c, 1, 70, 0
3, 36500, Note_on_c, 1, 73, 0
3, 36552, Control_c, 1, 64, 127
3, 36592, Control_c, 1, 64, 0
3, 36600, Note_on_c, 1, 58, 54
3, 36601, Note_on_c, 1, 67, 48
3, 36601, Note_on_c, 1, 55, 44
3, 36603, Note_on_c, 1, 63, 34
3, 36617, Note_on_c, 1, 55, 0
3, 36623, Note_on_c, 1, 58, 0
3, 36623, Note_on_c, 1, 67, 0
3, 36624, Note_on_c, 1, 63, 0
3, 36685, Control_c, 1, 64, 127
3, 36711, Control_c, 1, 64, 0
3, 36723, Note_on_c, 1, 57, 44
3, 36723, Note_on_c, 1, 66, 31
3, 36723, Note_on_c, 1, 50, 39
3, 36723, Note_on_c, 1, 64, 49
3, 36725, Note_on_c, 1, 69, 39
3, 36736, Note_on_c, 1, 69, 0
3, 36739, Note_on_c, 1, 64, 0
3, 36740, Note_on_c, 1, 66, 0
3, 36755, Note_on_c, 1, 57, 0
3, 36766, Note_on_c, 1, 50, 0
3, 36802, Note_on_c, 1, 38, 28
3, 36809, Note_on_c, 1, 38, 0
3, 36839, Note_on_c, 1, 54, 83
3, 36841, Note_on_c, 1, 50, 62
3, 36898, Note_on_c, 1, 50, 0
3, 36917, Note_on_c, 1, 45, 44
3, 36924, Note_on_c, 1, 45, 0
3, 36931, Control_c, 1, 64, 127
3, 36944, Control_c, 1, 64, 0
3, 36947, Note_on_c, 1, 54, 0
3, 36958, Note_on_c, 1, 53, 30
3, 36961, Note_on_c, 1, 37, 36
3, 36984, Note_on_c, 1, 37, 0
3, 36988, Note_on_c, 1, 53, 0
3, 37043, Note_on_c, 1, 46, 11
3, 37078, Note_on_c, 1, 53, 43
3, 37080, Note_on_c, 1, 68, 46
3, 37080, Note_on_c, 1, 60, 58
3, 37082, Note_on_c, 1, 65, 50
3, 37083, Note_on_c, 1, 63, 35
3, 37094, Note_on_c, 1, 46, 0
3, 37096, Note_on_c, 1, 60, 0
3, 37101, Note_on_c, 1, 65, 0
3, 37102, Note_on_c, 1, 63, 0
3, 37109, Note_on_c, 1, 68, 0
3, 37123, Note_on_c, 1, 53, 0
3, 37156, Note_on_c, 1, 46, 52
3, 37170, Note_on_c, 1, 46, 0
3, 37197, Note_on_c, 1, 61, 64
3, 37197, Note_on_c, 1, 72, 60
3, 37199, Note_on_c, 1, 60, 64
3, 37199, Note_on_c, 1, 65, 62
3, 37201, Note_on_c, 1, 69, 41
3, 37211, Note_on_c, 1, 69, 0
3, 37212, Note_on_c, 1, 61, 0
3, 37216, Note_on_c, 1, 65, 0
3, 37217, Note_on_c, 1, 72, 0
3, 37224, Note_on_c, 1, 60, 0
3, 37235, Note_on_c, 1, 58, 47
3, 37259, Note_on_c, 1, 58, 0
3, 37275, Note_on_c, 1, 57, 52
3, 37294, Note_on_c, 1, 57, 0
3, 37308, Note_on_c, 1, 56, 51
3, 37335, Note_on_c, 1, 56, 0
3, 37338, Note_on_c, 1, 61, 62
3, 37339, Note_on_c, 1, 70, 57
3, 37340, Note_on_c, 1, 55, 48
3, 37341, Note_on_c, 1, 65, 68
3, 37366, Note_on_c, 1, 65, 0
3, 37371, Note_on_c, 1, 61, 0
3, 37373, Note_on_c, 1, 70, 0
3, 37383, Note_on_c, 1, 55, 0
3, 37398, Note_on_c, 1, 52, 45
3, 37416, Note_on_c, 1, 52, 0
3, 37434, Note_on_c, 1, 61, 56
3, 37436, Note_on_c, 1, 68, 55
3, 37437, Note_on_c, 1, 56, 51
3, 37437, Note_on_c, 1, 65, 62
3, 37445, Note_on_c, 1, 56, 0
3, 37466, Note_on_c, 1, 65, 0
3, 37475, Note_on_c, 1, 68, 0
3, 37477, Note_on_c, 1, 61, 0
3, 37512, Note_on_c, 1, 39, 43
3, 37539, Note_on_c, 1, 39, 0
3, 37554, Note_on_c, 1, 61, 54
3, 37555, Note_on_c, 1, 56, 50
3, 37558, Note_on_c, 1, 65, 45
3, 37581, Note_on_c, 1, 65, 0
3, 37589, Note_on_c, 1, 56, 0
3, 37594, Note_on_c, 1, 61, 0
3, 37633, Note_on_c, 1, 44, 34
3, 37660, Note_on_c, 1, 44, 0
3, 37677, Note_on_c, 1, 62, 51
3, 37677, Note_on_c, 1, 65, 37
3, 37678, Note_on_c, 1, 44, 31
3, 37679, Note_on_c, 1, 54, 36
3, 37683, Note_on_c, 1, 57, 28
3, 37717, Control_c, 1, 64, 127
3, 37746, Note_on_c, 1, 57, 0
3, 37755, Note_on_c, 1, 65, 0
3, 37758, Note_on_c, 1, 62, 0
3, 37759, Note_on_c, 1, 44, 0
3, 37766, Note_on_c, 1, 54, 0
3, 37799, Control_c, 1, 64, 0
3, 37799, Note_on_c, 1, 62, 49
3, 37800, Note_on_c, 1, 44, 29
3, 37800, Note_on_c, 1, 65, 46
3, 37800, Note_on_c, 1, 54, 33
3, 37802, Note_on_c, 1, 57, 54
3, 37823, Control_c, 1, 64, 127
3, 37860, Note_on_c, 1, 54, 0
3, 37862, Note_on_c, 1, 57, 0
3, 37867, Note_on_c, 1, 62, 0
3, 37874, Note_on_c, 1, 65, 0
3, 37892, Note_on_c, 1, 44, 0
3, 37927, Control_c, 1, 64, 0
3, 37989, Note_on_c, 1, 63, 58
3, 37993, Note_on_c, 1, 53, 48
3, 37993, Note_on_c, 1, 56, 40
3, 37994, Note_on_c, 1, 44, 36
3, 37994, Note_on_c, 1, 37, 36
3, 37998, Note_on_c, 1, 60, 35
3, 37999, Note_on_c, 1, 56, 0
3, 37999, Note_on_c, 1, 53, 0
3, 38003, Note_on_c, 1, 37, 0
3, 38004, Note_on_c, 1, 44, 0
3, 38004, Note_on_c, 1, 60, 0
3, 38006, Note_on_c, 1, 63, 0
3, 38047, Note_on_c, 1, 63, 39
3, 38050, Note_on_c, 1, 53, 36
3, 38050, Note_on_c, 1, 56, 36
3, 38051, Note_on_c, 1, 37, 38
3, 38051, Note_on_c, 1, 44, 35
3, 38054, Note_on_c, 1, 60, 42
3, 38063, Note_on_c, 1, 60, 0
3, 38067, Note_on_c, 1, 53, 0
3, 38070, Note_on_c, 1, 63, 0
3, 38073, Note_on_c, 1, 44, 0
3, 38080, Note_on_c, 1, 56, 0
3, 38085, Note_on_c, 1, 61, 37
3, 38085, Note_on_c, 1, 49, 35
3, 38091, Note_on_c, 1, 56, 11
3, 38101, Note_on_c, 1, 56, 0
3, 38107, Note_on_c, 1, 49, 0
3, 38114, Note_on_c, 1, 61, 0
3, 38119, Note_on_c, 1, 37, 0
3, 38127, Note_on_c, 1, 53, 52
3, 38127, Note_on_c, 1, 56, 39
3, 38128, Note_on_c, 1, 49, 53
3, 38128, Note_on_c, 1, 63, 46
3, 38129, Note_on_c, 1, 60, 55
3, 38218, Control_c, 1, 64, 127
3, 38225, Note_on_c, 1, 53, 0
3, 38229, Note_on_c, 1, 60, 0
3, 38232, Note_on_c, 1, 56, 0
3, 38241, Note_on_c, 1, 56, 43
3, 38242, Note_on_c, 1, 61, 55
3, 38243, Note_on_c, 1, 53, 50
3, 38246, Note_on_c, 1, 49, 0
3, 38246, Note_on_c, 1, 44, 37
3, 38250, Control_c, 1, 64, 0
3, 38251, Note_on_c, 1, 63, 0
3, 38278, Control_c, 1, 64, 127
3, 38296, Note_on_c, 1, 44, 0
3, 38323, Note_on_c, 1, 56, 0
3, 38329, Note_on_c, 1, 61, 0
3, 38329, Note_on_c, 1, 53, 0
3, 38352, Note_on_c, 1, 46, 30
3, 38371, Note_on_c, 1, 46, 0
3, 38384, Control_c, 1, 64, 0
3, 38394, Note_on_c, 1, 39, 28
3, 38394, Note_on_c, 1, 54, 37
3, 38395, Note_on_c, 1, 65, 40
3, 38396, Note_on_c, 1, 58, 39
3, 38398, Note_on_c, 1, 61, 33
3, 38404, Note_on_c, 1, 39, 0
3, 38406, Note_on_c, 1, 61, 0
3, 38408, Note_on_c, 1, 54, 0
3, 38408, Note_on_c, 1, 65, 0
3, 38409, Note_on_c, 1, 58, 0
3, 38471, Note_on_c, 1, 54, 36
3, 38473, Note_on_c, 1, 65, 32
3, 38473, Note_on_c, 1, 58, 43
3, 38475, Note_on_c, 1, 61, 35
3, 38487, Note_on_c, 1, 54, 0
3, 38489, Note_on_c, 1, 65, 0
3, 38493, Note_on_c, 1, 61, 0
3, 38494, Note_on_c, 1, 58, 0
3, 38520, Note_on_c, 1, 54, 43
3, 38522, Note_on_c, 1, 46, 33
3, 38523, Note_on_c, 1, 58, 45
3, 38524, Note_on_c, 1, 65, 32
3, 38524, Note_on_c, 1, 61, 37
3, 38534, Note_on_c, 1, 65, 0
3, 38535, Note_on_c, 1, 54, 0
3, 38535, Note_on_c, 1, 61, 0
3, 38537, Note_on_c, 1, 58, 0
3, 38541, Note_on_c, 1, 46, 0
3, 38599, Note_on_c, 1, 54, 47
3, 38599, Note_on_c, 1, 58, 53
3, 38600, Note_on_c, 1, 65, 35
3, 38600, Note_on_c, 1, 46, 29
3, 38621, Note_on_c, 1, 65, 0
3, 38621, Note_on_c, 1, 54, 0
3, 38628, Note_on_c, 1, 58, 0
3, 38638, Note_on_c, 1, 46, 0
3, 38647, Note_on_c, 1, 58, 46
3, 38648, Note_on_c, 1, 44, 32
3, 38649, Note_on_c, 1, 54, 35
3, 38650, Note_on_c, 1, 65, 34
3, 38696, Control_c, 1, 64, 127
3, 38698, Note_on_c, 1, 65, 0
3, 38698, Note_on_c, 1, 44, 0
3, 38701, Note_on_c, 1, 58, 0
3, 38712, Note_on_c, 1, 54, 0
3, 38757, Control_c, 1, 64, 0
3, 38760, Note_on_c, 1, 63, 46
3, 38763, Note_on_c, 1, 58, 46
3, 38763, Note_on_c, 1, 52, 40
3, 38764, Note_on_c, 1, 42, 38
3, 38796, Control_c, 1, 64, 127
3, 38815, Note_on_c, 1, 52, 0
3, 38837, Note_on_c, 1, 58, 0
3, 38847, Note_on_c, 1, 42, 0
3, 38849, Note_on_c, 1, 63, 0
3, 38874, Control_c, 1, 64, 0
3, 38884, Note_on_c, 1, 53, 33
3, 38884, Note_on_c, 1, 56, 30
3, 38884, Note_on_c, 1, 60, 44
3, 38885, Note_on_c, 1, 41, 34
3, 38902, Control_c, 1, 64, 127
3, 38906, Note_on_c, 1, 41, 0
3, 38910, Note_on_c, 1, 53, 0
3, 38917, Note_on_c, 1, 60, 0
3, 38919, Note_on_c, 1, 56, 0
3, 38999, Note_on_c, 1, 58, 73
3, 38999, Note_on_c, 1, 70, 60
3, 39000, Note_on_c, 1, 67, 64
3, 39000, Note_on_c, 1, 63, 72
3, 39001, Control_c, 1, 64, 0
3, 39002, Note_on_c, 1, 60, 75
3, 39022, Control_c, 1, 64, 127
3, 39051, Note_on_c, 1, 67, 0
3, 39064, Note_on_c, 1, 58, 0
3, 39064, Note_on_c, 1, 70, 0
3, 39070, Note_on_c, 1, 60, 0
3, 39088, Note_on_c, 1, 63, 0
3, 39123, Note_on_c, 1, 67, 44
3, 39124, Note_on_c, 1, 62, 33
3, 39125, Note_on_c, 1, 56, 32
3, 39125, Note_on_c, 1, 46, 33
3, 39125, Note_on_c, 1, 59, 36
3, 39128, Control_c, 1, 64, 0
3, 39130, Note_on_c, 1, 64, 32
3, 39155, Control_c, 1, 64, 127
3, 39172, Note_on_c, 1, 59, 0
3, 39175, Note_on_c, 1, 64, 0
3, 39177, Note_on_c, 1, 62, 0
3, 39180, Note_on_c, 1, 67, 0
3, 39200, Note_on_c, 1, 56, 0
3, 39244, Note_on_c, 1, 74, 51
3, 39244, Note_on_c, 1, 67, 54
3, 39245, Note_on_c, 1, 71, 47
3, 39247, Control_c, 1, 64, 0
3, 39247, Note_on_c, 1, 56, 30
3, 39248, Note_on_c, 1, 62, 37
3, 39259, Note_on_c, 1, 46, 0
3, 39260, Control_c, 1, 64, 127
3, 39269, Note_on_c, 1, 56, 0
3, 39282, Note_on_c, 1, 74, 0
3, 39285, Note_on_c, 1, 71, 0
3, 39292, Note_on_c, 1, 67, 0
3, 39296, Note_on_c, 1, 62, 0
3, 39356, Control_c, 1, 64, 0
3, 39360, Note_on_c, 1, 73, 31
3, 39362, Note_on_c, 1, 54, 31
3, 39364, Note_on_c, 1, 66, 36
3, 39364, Note_on_c, 1, 39, 23
3, 39365, Note_on_c, 1, 61, 26
3, 39366, Note_on_c, 1, 70, 33
3, 39428, Control_c, 1, 64, 127
3, 39431, Note_on_c, 1, 54, 0
3, 39437, Note_on_c, 1, 70, 0
3, 39440, Note_on_c, 1, 66, 0
3, 39445, Note_on_c, 1, 61, 0
3, 39473, Control_c, 1, 64, 0
3, 39476, Note_on_c, 1, 73, 0
3, 39481, Note_on_c, 1, 61, 40
3, 39481, Note_on_c, 1, 66, 36
3, 39484, Note_on_c, 1, 54, 34
3, 39484, Note_on_c, 1, 70, 29
3, 39502, Note_on_c, 1, 39, 0
3, 39575, Note_on_c, 1, 61, 0
3, 39583, Note_on_c, 1, 66, 0
3, 39596, Note_on_c, 1, 65, 37
3, 39597, Note_on_c, 1, 60, 51
3, 39599, Note_on_c, 1, 44, 37
3, 39640, Control_c, 1, 64, 127
3, 39685, Note_on_c, 1, 54, 0
3, 39716, Note_on_c, 1, 60, 0
3, 39716, Note_on_c, 1, 54, 44
3, 39752, Note_on_c, 1, 65, 0
3, 39759, Note_on_c, 1, 70, 0
3, 39765, Note_on_c, 1, 44, 0
3, 39778, Note_on_c, 1, 54, 0
3, 39792, Note_on_c, 1, 72, 71
3, 39821, Note_on_c, 1, 72, 0
3, 39838, Note_on_c, 1, 67, 51
3, 39840, Note_on_c, 1, 60, 49
3, 39841, Note_on_c, 1, 49, 35
3, 39843, Note_on_c, 1, 64, 44
3, 39844, Control_c, 1, 64, 0
3, 39872, Note_on_c, 1, 60, 0
3, 39883, Note_on_c, 1, 61, 45
3, 39905, Control_c, 1, 64, 127
3, 39942, Note_on_c, 1, 64, 0
3, 39947, Note_on_c, 1, 67, 0
3, 39947, Note_on_c, 1, 61, 0
3, 39950, Note_on_c, 1, 49, 0
3, 39962, Note_on_c, 1, 49, 29
3, 39963, Note_on_c, 1, 67, 43
3, 39964, Note_on_c, 1, 64, 50
3, 39965, Note_on_c, 1, 60, 38
3, 39997, Note_on_c, 1, 60, 0
3, 40005, Note_on_c, 1, 64, 0
3, 40008, Note_on_c, 1, 61, 36
3, 40070, Note_on_c, 1, 67, 0
3, 40071, Note_on_c, 1, 49, 0
3, 40075, Note_on_c, 1, 61, 0
3, 40084, Note_on_c, 1, 49, 45
3, 40086, Note_on_c, 1, 68, 52
3, 40089, Note_on_c, 1, 65, 44
3, 40090, Note_on_c, 1, 60, 40
3, 40091, Control_c, 1, 64, 0
3, 40121, Control_c, 1, 64, 127
3, 40130, Note_on_c, 1, 61, 42
3, 40166, Note_on_c, 1, 60, 0
3, 40167, Note_on_c, 1, 65, 0
3, 40186, Note_on_c, 1, 49, 0
3, 40199, Note_on_c, 1, 61, 0
3, 40205, Control_c, 1, 64, 0
3, 40206, Note_on_c, 1, 49, 45
3, 40208, Note_on_c, 1, 65, 50
3, 40209, Note_on_c, 1, 60, 39
3, 40227, Control_c, 1, 64, 127
3, 40259, Note_on_c, 1, 60, 0
3, 40266, Note_on_c, 1, 65, 0
3, 40306, Note_on_c, 1, 68, 0
3, 40315, Note_on_c, 1, 49, 0
3, 40319, Note_on_c, 1, 58, 35
3, 40320, Note_on_c, 1, 63, 44
3, 40322, Note_on_c, 1, 51, 37
3, 40324, Control_c, 1, 64, 0
3, 40365, Control_c, 1, 64, 127
3, 40368, Note_on_c, 1, 58, 0
3, 40429, Note_on_c, 1, 51, 0
3, 40441, Note_on_c, 1, 56, 52
3, 40442, Note_on_c, 1, 51, 34
3, 40444, Control_c, 1, 64, 0
3, 40469, Control_c, 1, 64, 127
3, 40478, Note_on_c, 1, 51, 0
3, 40534, Note_on_c, 1, 56, 0
3, 40556, Note_on_c, 1, 63, 0
3, 40560, Note_on_c, 1, 61, 42
3, 40561, Control_c, 1, 64, 0
3, 40561, Note_on_c, 1, 46, 26
3, 40561, Note_on_c, 1, 56, 37
3, 40617, Control_c, 1, 64, 127
3, 40649, Note_on_c, 1, 56, 0
3, 40681, Control_c, 1, 64, 0
3, 40683, Note_on_c, 1, 56, 34
3, 40684, Note_on_c, 1, 34, 28
3, 40706, Note_on_c, 1, 34, 0
3, 40710, Control_c, 1, 64, 127
3, 40728, Note_on_c, 1, 46, 0
3, 40754, Note_on_c, 1, 61, 0
3, 40768, Note_on_c, 1, 56, 0
3, 40800, Note_on_c, 1, 61, 62
3, 40801, Note_on_c, 1, 56, 37
3, 40804, Note_on_c, 1, 39, 34
3, 40805, Control_c, 1, 64, 0
3, 40853, Control_c, 1, 64, 127
3, 40891, Note_on_c, 1, 56, 0
3, 40923, Note_on_c, 1, 56, 37
3, 40928, Note_on_c, 1, 51, 25
3, 40933, Control_c, 1, 64, 0
3, 40973, Control_c, 1, 64, 127
3, 40981, Note_on_c, 1, 39, 0
3, 41020, Note_on_c, 1, 51, 0
3, 41025, Note_on_c, 1, 56, 0
3, 41043, Note_on_c, 1, 55, 56
3, 41052, Note_on_c, 1, 39, 19
3, 41052, Control_c, 1, 64, 0
3, 41092, Control_c, 1, 64, 127
3, 41158, Note_on_c, 1, 51, 38
3, 41171, Note_on_c, 1, 39, 0
3, 41175, Note_on_c, 1, 55, 0
3, 41181, Note_on_c, 1, 51, 0
3, 41198, Note_on_c, 1, 61, 0
3, 41277, Note_on_c, 1, 68, 65
3, 41278, Note_on_c, 1, 65, 76
3, 41278, Note_on_c, 1, 58, 62
3, 41278, Note_on_c, 1, 61, 75
3, 41278, Note_on_c, 1, 54, 54
3, 41279, Note_on_c, 1, 56, 55
3, 41283, Control_c, 1, 64, 0
3, 41316, Control_c, 1, 64, 127
3, 41382, Note_on_c, 1, 68, 0
3, 41399, Note_on_c, 1, 68, 46
3, 41405, Note_on_c, 1, 58, 0
3, 41409, Note_on_c, 1, 56, 0
3, 41419, Note_on_c, 1, 54, 0
3, 41457, Note_on_c, 1, 61, 0
3, 41460, Note_on_c, 1, 65, 0
3, 41472, Note_on_c, 1, 68, 0
3, 41523, Note_on_c, 1, 65, 42
3, 41523, Note_on_c, 1, 54, 36
3, 41525, Control_c, 1, 64, 0
3, 41525, Note_on_c, 1, 60, 35
3, 41528, Note_on_c, 1, 44, 27
3, 41573, Control_c, 1, 64, 127
3, 41608, Note_on_c, 1, 60, 0
3, 41612, Note_on_c, 1, 54, 0
3, 41645, Note_on_c, 1, 54, 31
3, 41646, Note_on_c, 1, 65, 0
3, 41647, Note_on_c, 1, 63, 34
3, 41650, Note_on_c, 1, 60, 26
3, 41668, Note_on_c, 1, 60, 0
3, 41672, Note_on_c, 1, 44, 0
3, 41678, Note_on_c, 1, 63, 0
3, 41679, Note_on_c, 1, 54, 0
3, 41760, Note_on_c, 1, 71, 49
3, 41761, Note_on_c, 1, 76, 39
3, 41762, Note_on_c, 1, 64, 43
3, 41763, Note_on_c, 1, 49, 28
3, 41764, Note_on_c, 1, 59, 32
3, 41764, Control_c, 1, 64, 0
3, 41801, Control_c, 1, 64, 127
3, 41825, Note_on_c, 1, 59, 0
3, 41834, Note_on_c, 1, 71, 0
3, 41836, Note_on_c, 1, 64, 0
3, 41879, Note_on_c, 1, 71, 44
3, 41881, Note_on_c, 1, 64, 34
3, 41883, Note_on_c, 1, 59, 32
3, 41897, Note_on_c, 1, 49, 0
3, 41911, Note_on_c, 1, 59, 0
3, 41925, Note_on_c, 1, 64, 0
3, 41932, Note_on_c, 1, 71, 0
3, 41961, Note_on_c, 1, 76, 0
3, 41994, Note_on_c, 1, 76, 55
3, 41995, Control_c, 1, 64, 0
3, 41996, Note_on_c, 1, 71, 51
3, 41998, Note_on_c, 1, 64, 39
3, 42007, Control_c, 1, 64, 127
3, 42051, Note_on_c, 1, 76, 0
3, 42053, Note_on_c, 1, 64, 0
3, 42055, Note_on_c, 1, 71, 0
3, 42113, Note_on_c, 1, 75, 49
3, 42116, Control_c, 1, 64, 0
3, 42116, Note_on_c, 1, 70, 46
3, 42116, Note_on_c, 1, 64, 38
3, 42119, Note_on_c, 1, 58, 35
3, 42120, Note_on_c, 1, 72, 31
3, 42133, Control_c, 1, 64, 127
3, 42143, Note_on_c, 1, 58, 0
3, 42146, Note_on_c, 1, 72, 0
3, 42147, Note_on_c, 1, 75, 0
3, 42153, Note_on_c, 1, 70, 0
3, 42160, Note_on_c, 1, 64, 0
3, 42239, Control_c, 1, 64, 0
3, 42241, Note_on_c, 1, 58, 69
3, 42244, Note_on_c, 1, 43, 35
3, 42263, Control_c, 1, 64, 127
3, 42270, Note_on_c, 1, 43, 0
3, 42315, Note_on_c, 1, 53, 57
3, 42320, Note_on_c, 1, 58, 0
3, 42338, Note_on_c, 1, 53, 0
3, 42359, Note_on_c, 1, 52, 44
3, 42359, Control_c, 1, 64, 0
3, 42361, Note_on_c, 1, 36, 33
3, 42396, Control_c, 1, 64, 127
3, 42478, Control_c, 1, 64, 0
3, 42494, Control_c, 1, 64, 127
3, 42505, Note_on_c, 1, 52, 0
3, 42549, Control_c, 1, 64, 0
3, 42552, Note_on_c, 1, 36, 0
3, 42554, Note_on_c, 1, 41, 36
3, 42562, Control_c, 1, 64, 127
3, 42594, Note_on_c, 1, 41, 0
3, 42597, Control_c, 1, 64, 0
3, 42597, Note_on_c, 1, 54, 53
3, 42601, Note_on_c, 1, 35, 36
3, 42601, Note_on_c, 1, 59, 62
3, 42628, Control_c, 1, 64, 127
3, 42676, Note_on_c, 1, 63, 55
3, 42681, Note_on_c, 1, 59, 0
3, 42709, Note_on_c, 1, 54, 0
3, 42713, Note_on_c, 1, 63, 0
3, 42719, Note_on_c, 1, 35, 0
3, 42723, Note_on_c, 1, 60, 62
3, 42723, Note_on_c, 1, 53, 46
3, 42724, Control_c, 1, 64, 0
3, 42726, Note_on_c, 1, 56, 36
3, 42726, Note_on_c, 1, 41, 35
3, 42749, Control_c, 1, 64, 127
3, 42760, Note_on_c, 1, 41, 0
3, 42769, Note_on_c, 1, 53, 0
3, 42775, Note_on_c, 1, 56, 0
3, 42784, Note_on_c, 1, 60, 0
3, 42842, Note_on_c, 1, 62, 55
3, 42843, Note_on_c, 1, 56, 45
3, 42843, Note_on_c, 1, 59, 56
3, 42845, Note_on_c, 1, 46, 38
3, 42849, Control_c, 1, 64, 0
3, 42875, Control_c, 1, 64, 127
3, 42877, Note_on_c, 1, 56, 0
3, 42884, Note_on_c, 1, 46, 0
3, 42895, Note_on_c, 1, 59, 0
3, 42896, Note_on_c, 1, 62, 0
3, 42960, Note_on_c, 1, 69, 57
3, 42961, Control_c, 1, 64, 0
3, 42961, Note_on_c, 1, 62, 48
3, 42963, Note_on_c, 1, 40, 42
3, 42965, Note_on_c, 1, 55, 35
3, 42965, Note_on_c, 1, 50, 28
3, 42965, Note_on_c, 1, 57, 30
3, 42990, Control_c, 1, 64, 127
3, 42993, Note_on_c, 1, 40, 0
3, 43007, Note_on_c, 1, 55, 0
3, 43009, Note_on_c, 1, 50, 0
3, 43011, Note_on_c, 1, 57, 0
3, 43015, Note_on_c, 1, 69, 0
3, 43019, Note_on_c, 1, 62, 0
3, 43080, Control_c, 1, 64, 0
3, 43081, Note_on_c, 1, 70, 48
3, 43081, Note_on_c, 1, 66, 49
3, 43082, Note_on_c, 1, 61, 47
3, 43084, Note_on_c, 1, 55, 36
3, 43085, Note_on_c, 1, 45, 25
3, 43099, Note_on_c, 1, 55, 0
3, 43102, Note_on_c, 1, 45, 0
3, 43104, Control_c, 1, 64, 127
3, 43153, Note_on_c, 1, 61, 0
3, 43176, Note_on_c, 1, 70, 0
3, 43181, Note_on_c, 1, 66, 0
3, 43203, Note_on_c, 1, 54, 35
3, 43204, Note_on_c, 1, 39, 32
3, 43204, Note_on_c, 1, 61, 33
3, 43204, Note_on_c, 1, 68, 44
3, 43207, Control_c, 1, 64, 0
3, 43208, Note_on_c, 1, 65, 24
3, 43256, Note_on_c, 1, 65, 0
3, 43259, Note_on_c, 1, 61, 0
3, 43268, Control_c, 1, 64, 127
3, 43272, Note_on_c, 1, 54, 0
3, 43319, Control_c, 1, 64, 0
3, 43323, Note_on_c, 1, 39, 0
3, 43324, Note_on_c, 1, 61, 43
3, 43327, Note_on_c, 1, 65, 41
3, 43327, Note_on_c, 1, 54, 33
3, 43335, Note_on_c, 1, 65, 0
3, 43337, Note_on_c, 1, 61, 0
3, 43349, Note_on_c, 1, 54, 0
3, 43446, Note_on_c, 1, 54, 35
3, 43447, Note_on_c, 1, 44, 33
3, 43448, Note_on_c, 1, 60, 44
3, 43450, Note_on_c, 1, 65, 35
3, 43463, Note_on_c, 1, 60, 0
3, 43466, Note_on_c, 1, 54, 0
3, 43468, Note_on_c, 1, 65, 0
3, 43469, Note_on_c, 1, 44, 0
3, 43563, Note_on_c, 1, 54, 33
3, 43564, Note_on_c, 1, 60, 44
3, 43565, Note_on_c, 1, 44, 26
3, 43566, Note_on_c, 1, 65, 37
3, 43579, Note_on_c, 1, 65, 0
3, 43581, Note_on_c, 1, 44, 0
3, 43582, Note_on_c, 1, 60, 0
3, 43586, Note_on_c, 1, 54, 0
3, 43673, Note_on_c, 1, 63, 55
3, 43675, Note_on_c, 1, 54, 37
3, 43676, Note_on_c, 1, 57, 50
3, 43678, Note_on_c, 1, 47, 34
3, 43692, Note_on_c, 1, 57, 0
3, 43750, Note_on_c, 1, 54, 0
3, 43751, Control_c, 1, 64, 127
3, 43770, Note_on_c, 1, 63, 0
3, 43801, Note_on_c, 1, 54, 32
3, 43803, Note_on_c, 1, 63, 30
3, 43805, Control_c, 1, 64, 0
3, 43807, Note_on_c, 1, 57, 19
3, 43826, Control_c, 1, 64, 127
3, 43840, Note_on_c, 1, 47, 0
3, 43854, Note_on_c, 1, 57, 0
3, 43856, Note_on_c, 1, 54, 0
3, 43883, Note_on_c, 1, 54, 13
3, 43903, Note_on_c, 1, 63, 0
3, 43904, Note_on_c, 1, 54, 0
3, 43917, Note_on_c, 1, 56, 50
3, 43920, Note_on_c, 1, 62, 38
3, 43923, Note_on_c, 1, 60, 33
3, 43925, Note_on_c, 1, 46, 18
3, 43925, Control_c, 1, 64, 0
3, 43958, Control_c, 1, 64, 127
3, 43979, Note_on_c, 1, 60, 0
3, 43985, Note_on_c, 1, 56, 0
3, 43986, Note_on_c, 1, 62, 0
3, 44037, Note_on_c, 1, 62, 44
3, 44037, Note_on_c, 1, 56, 37
3, 44040, Note_on_c, 1, 60, 41
3, 44053, Note_on_c, 1, 56, 0
3, 44058, Note_on_c, 1, 68, 0
3, 44063, Note_on_c, 1, 46, 0
3, 44085, Note_on_c, 1, 62, 0
3, 44100, Note_on_c, 1, 60, 0
3, 44117, Note_on_c, 1, 46, 48
3, 44149, Note_on_c, 1, 46, 0
3, 44160, Note_on_c, 1, 61, 83
3, 44161, Note_on_c, 1, 65, 77
3, 44162, Note_on_c, 1, 39, 69
3, 44163, Note_on_c, 1, 55, 68
3, 44163, Note_on_c, 1, 53, 77
3, 44165, Control_c, 1, 64, 0
3, 44168, Note_on_c, 1, 53, 0
3, 44200, Control_c, 1, 64, 127
3, 44251, Note_on_c, 1, 61, 0
3, 44258, Note_on_c, 1, 55, 0
3, 44281, Note_on_c, 1, 51, 35
3, 44282, Note_on_c, 1, 55, 54
3, 44302, Note_on_c, 1, 51, 0
3, 44311, Note_on_c, 1, 39, 0
3, 44350, Note_on_c, 1, 61, 1
3, 44364, Note_on_c, 1, 39, 36
3, 44375, Note_on_c, 1, 55, 0
3, 44391, Note_on_c, 1, 39, 0
3, 44402, Note_on_c, 1, 54, 75
3, 44408, Note_on_c, 1, 38, 55
3, 44408, Control_c, 1, 64, 0
3, 44437, Control_c, 1, 64, 127
3, 44473, Note_on_c, 1, 54, 0
3, 44521, Note_on_c, 1, 54, 45
3, 44522, Note_on_c, 1, 50, 33
3, 44524, Control_c, 1, 64, 0
3, 44525, Note_on_c, 1, 60, 51
3, 44537, Note_on_c, 1, 38, 0
3, 44547, Control_c, 1, 64, 127
3, 44577, Note_on_c, 1, 50, 0
3, 44597, Note_on_c, 1, 38, 48
3, 44608, Note_on_c, 1, 61, 0
3, 44615, Note_on_c, 1, 60, 0
3, 44616, Note_on_c, 1, 65, 0
3, 44617, Note_on_c, 1, 38, 0
3, 44627, Note_on_c, 1, 54, 0
3, 44635, Control_c, 1, 64, 0
3, 44640, Note_on_c, 1, 53, 64
3, 44641, Note_on_c, 1, 37, 47
3, 44650, Note_on_c, 1, 37, 0
3, 44652, Control_c, 1, 64, 127
3, 44656, Note_on_c, 1, 53, 0
3, 44714, Note_on_c, 1, 68, 77
3, 44715, Note_on_c, 1, 75, 77
3, 44716, Note_on_c, 1, 72, 64
3, 44716, Note_on_c, 1, 65, 77
3, 44716, Note_on_c, 1, 63, 76
3, 44752, Note_on_c, 1, 72, 0
3, 44754, Note_on_c, 1, 65, 0
3, 44754, Note_on_c, 1, 68, 0
3, 44754, Note_on_c, 1, 75, 0
3, 44756, Note_on_c, 1, 63, 0
3, 44766, Note_on_c, 1, 68, 53
3, 44766, Control_c, 1, 64, 0
3, 44767, Note_on_c, 1, 73, 50
3, 44767, Note_on_c, 1, 65, 65
3, 44767, Note_on_c, 1, 61, 63
3, 44786, Control_c, 1, 64, 127
3, 44815, Note_on_c, 1, 61, 0
3, 44817, Note_on_c, 1, 73, 0
3, 44819, Note_on_c, 1, 68, 0
3, 44824, Note_on_c, 1, 65, 0
3, 44881, Note_on_c, 1, 72, 67
3, 44883, Note_on_c, 1, 64, 71
3, 44883, Note_on_c, 1, 61, 69
3, 44883, Control_c, 1, 64, 0
3, 44886, Note_on_c, 1, 51, 52
3, 44887, Note_on_c, 1, 67, 51
3, 44887, Note_on_c, 1, 60, 60
3, 44902, Note_on_c, 1, 60, 0
3, 44912, Control_c, 1, 64, 127
3, 44913, Note_on_c, 1, 60, 13
3, 44953, Note_on_c, 1, 60, 0
3, 44967, Note_on_c, 1, 67, 0
3, 44969, Note_on_c, 1, 61, 0
3, 44971, Note_on_c, 1, 72, 0
3, 44974, Note_on_c, 1, 64, 0
3, 44999, Note_on_c, 1, 70, 59
3, 44999, Control_c, 1, 64, 0
3, 45000, Note_on_c, 1, 61, 62
3, 45001, Note_on_c, 1, 64, 59
3, 45001, Note_on_c, 1, 58, 52
3, 45003, Note_on_c, 1, 67, 47
3, 45009, Note_on_c, 1, 58, 0
3, 45014, Note_on_c, 1, 51, 0
3, 45015, Control_c, 1, 64, 127
3, 45027, Note_on_c, 1, 64, 0
3, 45028, Note_on_c, 1, 67, 0
3, 45034, Note_on_c, 1, 61, 0
3, 45044, Note_on_c, 1, 70, 0
3, 45116, Note_on_c, 1, 73, 64
3, 45116, Note_on_c, 1, 61, 90
3, 45116, Note_on_c, 1, 66, 80
3, 45116, Control_c, 1, 64, 0
3, 45117, Note_on_c, 1, 70, 67
3, 45118, Note_on_c, 1, 39, 50
3, 45118, Note_on_c, 1, 54, 60
3, 45142, Control_c, 1, 64, 127
3, 45182, Note_on_c, 1, 54, 0
3, 45199, Note_on_c, 1, 70, 0
3, 45204, Note_on_c, 1, 66, 0
3, 45213, Note_on_c, 1, 61, 0
3, 45241, Note_on_c, 1, 61, 34
3, 45242, Note_on_c, 1, 70, 42
3, 45243, Note_on_c, 1, 66, 35
3, 45244, Note_on_c, 1, 54, 35
3, 45299, Note_on_c, 1, 70, 0
3, 45302, Note_on_c, 1, 54, 0
3, 45303, Note_on_c, 1, 66, 0
3, 45309, Note_on_c, 1, 61, 0
3, 45347, Note_on_c, 1, 73, 0
3, 45361, Note_on_c, 1, 73, 27
3, 45363, Note_on_c, 1, 61, 43
3, 45364, Note_on_c, 1, 54, 43
3, 45364, Note_on_c, 1, 66, 47
3, 45364, Note_on_c, 1, 70, 49
3, 45390, Note_on_c, 1, 54, 0
3, 45390, Note_on_c, 1, 73, 0
3, 45392, Note_on_c, 1, 70, 0
3, 45394, Note_on_c, 1, 66, 0
3, 45398, Note_on_c, 1, 61, 0
3, 45431, Note_on_c, 1, 70, 88
3, 45432, Note_on_c, 1, 61, 88
3, 45433, Note_on_c, 1, 54, 64
3, 45437, Note_on_c, 1, 46, 13
3, 45465, Note_on_c, 1, 61, 0
3, 45468, Note_on_c, 1, 54, 0
3, 45482, Note_on_c, 1, 66, 79
3, 45485, Note_on_c, 1, 54, 42
3, 45486, Note_on_c, 1, 61, 57
3, 45488, Note_on_c, 1, 39, 0
3, 45499, Note_on_c, 1, 61, 0
3, 45500, Note_on_c, 1, 46, 0
3, 45515, Note_on_c, 1, 54, 0
3, 45524, Note_on_c, 1, 70, 0
3, 45546, Note_on_c, 1, 61, 67
3, 45555, Note_on_c, 1, 66, 0
3, 45562, Note_on_c, 1, 61, 0
3, 45595, Note_on_c, 1, 65, 60
3, 45595, Note_on_c, 1, 60, 55
3, 45595, Note_on_c, 1, 54, 64
3, 45596, Note_on_c, 1, 44, 56
3, 45596, Note_on_c, 1, 62, 55
3, 45598, Control_c, 1, 64, 0
3, 45602, Note_on_c, 1, 62, 0
3, 45602, Note_on_c, 1, 60, 0
3, 45607, Note_on_c, 1, 54, 0
3, 45608, Note_on_c, 1, 65, 0
3, 45609, Note_on_c, 1, 44, 0
3, 45662, Note_on_c, 1, 54, 74
3, 45662, Note_on_c, 1, 65, 57
3, 45663, Note_on_c, 1, 44, 53
3, 45663, Note_on_c, 1, 62, 57
3, 45663, Note_on_c, 1, 60, 62
3, 45668, Note_on_c, 1, 60, 0
3, 45669, Note_on_c, 1, 62, 0
3, 45670, Note_on_c, 1, 65, 0
3, 45671, Note_on_c, 1, 44, 0
3, 45672, Note_on_c, 1, 54, 0
3, 45722, Note_on_c, 1, 44, 73
3, 45723, Note_on_c, 1, 60, 81
3, 45723, Note_on_c, 1, 54, 85
3, 45723, Note_on_c, 1, 62, 77
3, 45723, Note_on_c, 1, 65, 72
3, 45735, Control_c, 1, 64, 127
3, 45818, Control_c, 1, 64, 0
3, 45828, Control_c, 1, 64, 127
3, 45900, Note_on_c, 1, 60, 0
3, 45923, Note_on_c, 1, 54, 0
3, 45954, Note_on_c, 1, 62, 0
3, 45965, Note_on_c, 1, 60, 68
3, 45966, Note_on_c, 1, 54, 59
3, 45971, Note_on_c, 1, 62, 30
3, 45979, Note_on_c, 1, 62, 0
3, 45980, Note_on_c, 1, 54, 0
3, 45989, Note_on_c, 1, 65, 0
3, 45994, Note_on_c, 1, 44, 0
3, 46013, Note_on_c, 1, 60, 0
3, 46088, Note_on_c, 1, 37, 83
3, 46088, Note_on_c, 1, 64, 87
3, 46089, Note_on_c, 1, 25, 80
3, 46089, Note_on_c, 1, 60, 89
3, 46090, Note_on_c, 1, 55, 94
3, 46099, Control_c, 1, 64, 0
3, 46147, Control_c, 1, 64, 127
3, 46835, Note_on_c, 1, 55, 0
3, 46838, Note_on_c, 1, 60, 0
3, 46843, Note_on_c, 1, 64, 0
3, 46871, Note_on_c, 1, 37, 0
3, 46874, Note_on_c, 1, 25, 0
3, 46972, Control_c, 1, 64, 0
3, 46972, End_track
4, 0, Start_track
4, 0, End_track
0, 0, End_of_file
