0, 0, Header, 1, 3, 120
1, 0, Start_track
1, 0, Title_t, "Autumn In New York"
1, 0, Text_t, "Vernon Duke"
1, 0, Text_t, "Played in Real Time - unedited - using Steinberg's 'The Grand'\012"
1, 0, Time_signature, 4, 2, 24, 8
1, 0, Key_signature, 0, "major"
1, 0, Tempo, 600000
1, 0, Marker_t, "Intro Descending Major 7th chords F,Eb,Db.Bb,Ab"
1, 3997, Marker_t, "Verse Begins - played freely"
1, 26920, Marker_t, "Main chorus begins - in time"
1, 61464, Marker_t, "Same finish as Introduction"
1, 61464, End_track
2, 0, Start_track
2, 0, End_track
3, 0, Start_track
3, 0, Title_t, "Solo Piano in Real time"
3, 0, Control_c, 0, 7, 127
3, 0, Control_c, 0, 10, 63
3, 0, Control_c, 0, 64, 127
3, 0, Control_c, 0, 64, 127
3, 0, Control_c, 0, 64, 0
3, 13, Control_c, 0, 64, 0
3, 118, Control_c, 0, 64, 127
3, 142, Control_c, 0, 64, 0
3, 151, Note_on_c, 0, 88, 68
3, 154, Note_on_c, 0, 81, 70
3, 154, Note_on_c, 0, 53, 30
3, 155, Note_on_c, 0, 76, 66
3, 158, Note_on_c, 0, 60, 42
3, 159, Note_on_c, 0, 64, 36
3, 160, Note_on_c, 0, 57, 42
3, 180, Control_c, 0, 64, 127
3, 270, Note_on_c, 0, 88, 0
3, 289, Note_on_c, 0, 88, 73
3, 304, Note_on_c, 0, 60, 0
3, 305, Note_on_c, 0, 64, 0
3, 310, Note_on_c, 0, 57, 0
3, 326, Note_on_c, 0, 53, 0
3, 333, Note_on_c, 0, 81, 0
3, 335, Note_on_c, 0, 88, 0
3, 351, Note_on_c, 0, 76, 0
3, 387, Note_on_c, 0, 86, 80
3, 389, Note_on_c, 0, 79, 72
3, 390, Note_on_c, 0, 74, 69
3, 391, Note_on_c, 0, 51, 42
3, 392, Note_on_c, 0, 62, 51
3, 393, Note_on_c, 0, 55, 55
3, 395, Note_on_c, 0, 58, 45
3, 396, Control_c, 0, 64, 0
3, 438, Control_c, 0, 64, 127
3, 476, Note_on_c, 0, 86, 0
3, 498, Note_on_c, 0, 62, 0
3, 500, Note_on_c, 0, 55, 0
3, 500, Note_on_c, 0, 86, 90
3, 503, Note_on_c, 0, 58, 0
3, 518, Note_on_c, 0, 51, 0
3, 539, Note_on_c, 0, 79, 0
3, 543, Note_on_c, 0, 86, 0
3, 554, Note_on_c, 0, 74, 0
3, 603, Note_on_c, 0, 84, 76
3, 604, Note_on_c, 0, 77, 76
3, 605, Note_on_c, 0, 56, 44
3, 606, Note_on_c, 0, 53, 61
3, 606, Note_on_c, 0, 49, 46
3, 607, Note_on_c, 0, 60, 50
3, 608, Note_on_c, 0, 72, 61
3, 617, Control_c, 0, 64, 0
3, 669, Control_c, 0, 64, 127
3, 704, Note_on_c, 0, 84, 0
3, 730, Note_on_c, 0, 60, 0
3, 731, Note_on_c, 0, 84, 80
3, 741, Note_on_c, 0, 56, 0
3, 748, Note_on_c, 0, 53, 0
3, 758, Note_on_c, 0, 84, 0
3, 761, Note_on_c, 0, 77, 0
3, 764, Note_on_c, 0, 49, 0
3, 768, Note_on_c, 0, 72, 0
3, 844, Note_on_c, 0, 81, 68
3, 844, Note_on_c, 0, 74, 59
3, 845, Note_on_c, 0, 53, 43
3, 847, Note_on_c, 0, 46, 42
3, 848, Note_on_c, 0, 69, 53
3, 850, Note_on_c, 0, 57, 45
3, 854, Control_c, 0, 64, 0
3, 895, Control_c, 0, 64, 127
3, 945, Note_on_c, 0, 81, 0
3, 956, Note_on_c, 0, 57, 0
3, 971, Note_on_c, 0, 53, 0
3, 978, Note_on_c, 0, 81, 46
3, 1010, Note_on_c, 0, 46, 0
3, 1018, Note_on_c, 0, 81, 0
3, 1020, Note_on_c, 0, 74, 0
3, 1027, Note_on_c, 0, 69, 0
3, 1122, Note_on_c, 0, 79, 47
3, 1124, Note_on_c, 0, 72, 34
3, 1126, Note_on_c, 0, 67, 29
3, 1126, Control_c, 0, 64, 0
3, 1128, Note_on_c, 0, 51, 30
3, 1129, Note_on_c, 0, 44, 33
3, 1174, Control_c, 0, 64, 127
3, 1233, Note_on_c, 0, 79, 0
3, 1245, Note_on_c, 0, 72, 0
3, 1256, Note_on_c, 0, 67, 0
3, 1366, Note_on_c, 0, 51, 0
3, 1393, Note_on_c, 0, 47, 36
3, 1394, Note_on_c, 0, 59, 49
3, 1495, Note_on_c, 0, 47, 0
3, 1498, Note_on_c, 0, 62, 66
3, 1503, Note_on_c, 0, 50, 24
3, 1576, Note_on_c, 0, 50, 0
3, 1595, Note_on_c, 0, 62, 0
3, 1631, Note_on_c, 0, 62, 55
3, 1633, Note_on_c, 0, 50, 29
3, 1804, Note_on_c, 0, 50, 0
3, 1811, Note_on_c, 0, 48, 26
3, 1814, Note_on_c, 0, 59, 0
3, 1815, Note_on_c, 0, 60, 37
3, 1820, Note_on_c, 0, 62, 0
3, 1858, Note_on_c, 0, 48, 0
3, 1861, Note_on_c, 0, 60, 0
3, 1875, Note_on_c, 0, 44, 0
3, 1950, Note_on_c, 0, 62, 48
3, 1950, Note_on_c, 0, 67, 44
3, 1954, Note_on_c, 0, 55, 27
3, 1955, Note_on_c, 0, 39, 37
3, 1960, Control_c, 0, 64, 0
3, 2028, Control_c, 0, 64, 127
3, 2062, Note_on_c, 0, 55, 0
3, 2108, Note_on_c, 0, 62, 0
3, 2167, Note_on_c, 0, 57, 74
3, 2171, Note_on_c, 0, 45, 39
3, 2174, Note_on_c, 0, 67, 0
3, 2226, Note_on_c, 0, 45, 0
3, 2258, Note_on_c, 0, 58, 36
3, 2270, Note_on_c, 0, 46, 15
3, 2272, Note_on_c, 0, 59, 72
3, 2276, Note_on_c, 0, 57, 0
3, 2280, Note_on_c, 0, 58, 0
3, 2283, Note_on_c, 0, 46, 0
3, 2291, Note_on_c, 0, 59, 0
3, 2292, Note_on_c, 0, 60, 76
3, 2296, Note_on_c, 0, 48, 47
3, 2297, Control_c, 0, 64, 0
3, 2371, Control_c, 0, 64, 127
3, 2383, Note_on_c, 0, 48, 0
3, 2392, Note_on_c, 0, 60, 0
3, 2408, Note_on_c, 0, 60, 64
3, 2410, Note_on_c, 0, 48, 40
3, 2486, Note_on_c, 0, 48, 0
3, 2492, Note_on_c, 0, 60, 0
3, 2517, Note_on_c, 0, 60, 51
3, 2519, Note_on_c, 0, 48, 30
3, 2589, Note_on_c, 0, 48, 0
3, 2607, Note_on_c, 0, 60, 0
3, 2608, Note_on_c, 0, 58, 38
3, 2611, Note_on_c, 0, 46, 18
3, 2638, Note_on_c, 0, 39, 0
3, 2638, Note_on_c, 0, 46, 0
3, 2662, Note_on_c, 0, 58, 0
3, 2722, Note_on_c, 0, 67, 52
3, 2726, Note_on_c, 0, 38, 44
3, 2732, Control_c, 0, 64, 0
3, 2780, Control_c, 0, 64, 127
3, 2822, Note_on_c, 0, 38, 0
3, 2831, Note_on_c, 0, 50, 27
3, 2939, Note_on_c, 0, 56, 27
3, 2941, Note_on_c, 0, 60, 38
3, 2942, Note_on_c, 0, 50, 0
3, 2942, Note_on_c, 0, 52, 22
3, 3082, Note_on_c, 0, 52, 0
3, 3087, Note_on_c, 0, 53, 30
3, 3166, Note_on_c, 0, 60, 0
3, 3169, Note_on_c, 0, 56, 0
3, 3172, Note_on_c, 0, 53, 0
3, 3218, Note_on_c, 0, 67, 0
3, 3271, Note_on_c, 0, 56, 27
3, 3273, Note_on_c, 0, 59, 45
3, 3273, Note_on_c, 0, 43, 33
3, 3277, Note_on_c, 0, 53, 33
3, 3279, Control_c, 0, 64, 0
3, 3319, Control_c, 0, 64, 127
3, 3330, Note_on_c, 0, 56, 0
3, 3335, Note_on_c, 0, 59, 0
3, 3349, Note_on_c, 0, 43, 0
3, 3363, Note_on_c, 0, 53, 0
3, 3435, Note_on_c, 0, 67, 37
3, 3443, Note_on_c, 0, 79, 47
3, 3444, Note_on_c, 0, 55, 34
3, 3468, Note_on_c, 0, 67, 0
3, 3477, Note_on_c, 0, 55, 0
3, 3493, Note_on_c, 0, 79, 0
3, 3606, Note_on_c, 0, 71, 44
3, 3610, Note_on_c, 0, 83, 24
3, 3621, Note_on_c, 0, 95, 31
3, 3692, Note_on_c, 0, 83, 0
3, 3698, Note_on_c, 0, 71, 0
3, 3703, Note_on_c, 0, 95, 0
3, 3799, Note_on_c, 0, 91, 32
3, 3810, Note_on_c, 0, 103, 31
3, 3810, Note_on_c, 0, 79, 28
3, 3838, Note_on_c, 0, 79, 0
3, 3850, Note_on_c, 0, 103, 0
3, 3862, Note_on_c, 0, 91, 0
3, 4174, Note_on_c, 0, 65, 60
3, 4177, Note_on_c, 0, 50, 36
3, 4181, Note_on_c, 0, 69, 64
3, 4185, Note_on_c, 0, 61, 40
3, 4186, Note_on_c, 0, 76, 74
3, 4201, Control_c, 0, 64, 0
3, 4263, Control_c, 0, 64, 127
3, 4409, Note_on_c, 0, 65, 0
3, 4435, Note_on_c, 0, 69, 0
3, 4441, Note_on_c, 0, 61, 0
3, 4452, Note_on_c, 0, 76, 0
3, 4652, Note_on_c, 0, 88, 66
3, 4658, Note_on_c, 0, 79, 61
3, 4659, Note_on_c, 0, 60, 26
3, 4712, Note_on_c, 0, 88, 0
3, 4715, Note_on_c, 0, 79, 0
3, 4741, Note_on_c, 0, 89, 71
3, 4742, Note_on_c, 0, 81, 59
3, 4789, Note_on_c, 0, 81, 0
3, 4789, Note_on_c, 0, 89, 0
3, 4794, Note_on_c, 0, 50, 0
3, 4822, Note_on_c, 0, 91, 71
3, 4823, Note_on_c, 0, 83, 58
3, 4833, Note_on_c, 0, 60, 0
3, 4851, Note_on_c, 0, 91, 0
3, 4859, Note_on_c, 0, 83, 0
3, 4968, Note_on_c, 0, 81, 50
3, 4968, Note_on_c, 0, 72, 30
3, 4971, Note_on_c, 0, 43, 38
3, 4975, Control_c, 0, 64, 0
3, 5015, Control_c, 0, 64, 127
3, 5023, Note_on_c, 0, 43, 0
3, 5088, Note_on_c, 0, 53, 28
3, 5092, Note_on_c, 0, 64, 32
3, 5093, Note_on_c, 0, 59, 42
3, 5102, Note_on_c, 0, 72, 0
3, 5106, Note_on_c, 0, 81, 0
3, 5156, Note_on_c, 0, 53, 0
3, 5163, Note_on_c, 0, 59, 0
3, 5164, Note_on_c, 0, 64, 0
3, 5194, Note_on_c, 0, 83, 66
3, 5195, Note_on_c, 0, 64, 35
3, 5196, Note_on_c, 0, 59, 37
3, 5196, Note_on_c, 0, 74, 61
3, 5198, Note_on_c, 0, 53, 36
3, 5280, Note_on_c, 0, 74, 0
3, 5286, Note_on_c, 0, 83, 0
3, 5316, Note_on_c, 0, 84, 71
3, 5317, Note_on_c, 0, 76, 62
3, 5359, Note_on_c, 0, 84, 0
3, 5383, Note_on_c, 0, 76, 0
3, 5443, Note_on_c, 0, 86, 71
3, 5446, Note_on_c, 0, 77, 53
3, 5499, Note_on_c, 0, 64, 0
3, 5504, Note_on_c, 0, 59, 0
3, 5507, Note_on_c, 0, 77, 0
3, 5509, Note_on_c, 0, 86, 0
3, 5527, Note_on_c, 0, 53, 0
3, 5827, Note_on_c, 0, 79, 49
3, 5834, Note_on_c, 0, 67, 24
3, 5834, Note_on_c, 0, 71, 26
3, 5837, Note_on_c, 0, 59, 35
3, 5837, Note_on_c, 0, 52, 33
3, 5838, Note_on_c, 0, 62, 26
3, 5851, Control_c, 0, 64, 0
3, 5898, Note_on_c, 0, 74, 1
3, 5907, Note_on_c, 0, 59, 0
3, 5913, Control_c, 0, 64, 127
3, 5955, Note_on_c, 0, 59, 34
3, 5966, Note_on_c, 0, 62, 0
3, 6002, Note_on_c, 0, 67, 0
3, 6011, Note_on_c, 0, 71, 0
3, 6042, Note_on_c, 0, 79, 0
3, 6046, Note_on_c, 0, 71, 34
3, 6050, Note_on_c, 0, 67, 45
3, 6053, Note_on_c, 0, 62, 32
3, 6116, Note_on_c, 0, 62, 0
3, 6123, Note_on_c, 0, 52, 0
3, 6171, Note_on_c, 0, 74, 0
3, 6184, Note_on_c, 0, 79, 61
3, 6187, Note_on_c, 0, 66, 67
3, 6227, Note_on_c, 0, 66, 0
3, 6265, Note_on_c, 0, 67, 0
3, 6273, Note_on_c, 0, 71, 0
3, 6280, Note_on_c, 0, 79, 0
3, 6305, Note_on_c, 0, 79, 59
3, 6307, Note_on_c, 0, 71, 55
3, 6308, Note_on_c, 0, 67, 48
3, 6313, Note_on_c, 0, 64, 37
3, 6313, Note_on_c, 0, 74, 38
3, 6314, Control_c, 0, 64, 0
3, 6360, Control_c, 0, 64, 127
3, 6420, Note_on_c, 0, 64, 0
3, 6454, Note_on_c, 0, 71, 0
3, 6460, Note_on_c, 0, 67, 0
3, 6478, Note_on_c, 0, 74, 0
3, 6499, Note_on_c, 0, 79, 0
3, 6535, Note_on_c, 0, 67, 68
3, 6535, Note_on_c, 0, 69, 77
3, 6540, Note_on_c, 0, 62, 49
3, 6592, Note_on_c, 0, 59, 0
3, 6628, Note_on_c, 0, 67, 0
3, 6654, Note_on_c, 0, 67, 62
3, 6654, Note_on_c, 0, 71, 80
3, 6661, Note_on_c, 0, 59, 47
3, 6665, Note_on_c, 0, 69, 0
3, 6666, Note_on_c, 0, 62, 0
3, 6781, Note_on_c, 0, 72, 61
3, 6799, Note_on_c, 0, 71, 0
3, 6802, Note_on_c, 0, 59, 0
3, 6858, Note_on_c, 0, 67, 0
3, 6906, Note_on_c, 0, 72, 0
3, 6962, Note_on_c, 0, 73, 42
3, 6966, Note_on_c, 0, 71, 39
3, 6966, Note_on_c, 0, 65, 51
3, 6967, Note_on_c, 0, 68, 39
3, 6967, Note_on_c, 0, 47, 43
3, 6967, Note_on_c, 0, 56, 25
3, 6968, Control_c, 0, 64, 0
3, 7038, Control_c, 0, 64, 127
3, 7041, Note_on_c, 0, 73, 0
3, 7057, Note_on_c, 0, 73, 43
3, 7096, Note_on_c, 0, 73, 0
3, 7128, Note_on_c, 0, 56, 0
3, 7130, Note_on_c, 0, 47, 0
3, 7130, Note_on_c, 0, 73, 50
3, 7165, Note_on_c, 0, 73, 0
3, 7182, Note_on_c, 0, 71, 0
3, 7189, Note_on_c, 0, 65, 0
3, 7200, Note_on_c, 0, 73, 42
3, 7224, Note_on_c, 0, 68, 0
3, 7269, Note_on_c, 0, 73, 0
3, 7287, Note_on_c, 0, 74, 45
3, 7288, Note_on_c, 0, 53, 24
3, 7289, Note_on_c, 0, 62, 39
3, 7289, Note_on_c, 0, 43, 31
3, 7291, Control_c, 0, 64, 0
3, 7337, Control_c, 0, 64, 127
3, 7340, Note_on_c, 0, 43, 0
3, 7354, Note_on_c, 0, 53, 0
3, 7364, Note_on_c, 0, 74, 0
3, 7376, Note_on_c, 0, 62, 0
3, 7383, Note_on_c, 0, 74, 44
3, 7412, Note_on_c, 0, 74, 0
3, 7475, Note_on_c, 0, 59, 34
3, 7476, Note_on_c, 0, 74, 44
3, 7477, Note_on_c, 0, 62, 28
3, 7479, Note_on_c, 0, 65, 36
3, 7528, Note_on_c, 0, 74, 0
3, 7531, Note_on_c, 0, 59, 0
3, 7532, Note_on_c, 0, 62, 0
3, 7578, Note_on_c, 0, 74, 37
3, 7583, Note_on_c, 0, 65, 0
3, 7604, Note_on_c, 0, 74, 0
3, 7694, Control_c, 0, 64, 0
3, 7694, Note_on_c, 0, 48, 45
3, 7695, Note_on_c, 0, 79, 57
3, 7734, Control_c, 0, 64, 127
3, 7783, Note_on_c, 0, 55, 47
3, 7786, Note_on_c, 0, 79, 0
3, 7787, Note_on_c, 0, 48, 0
3, 7822, Note_on_c, 0, 55, 0
3, 7840, Note_on_c, 0, 62, 45
3, 7885, Note_on_c, 0, 63, 49
3, 7887, Note_on_c, 0, 62, 0
3, 7923, Note_on_c, 0, 65, 53
3, 7953, Note_on_c, 0, 65, 0
3, 7959, Note_on_c, 0, 67, 62
3, 7985, Note_on_c, 0, 67, 0
3, 7992, Note_on_c, 0, 70, 60
3, 8010, Note_on_c, 0, 70, 0
3, 8022, Note_on_c, 0, 72, 64
3, 8054, Note_on_c, 0, 72, 0
3, 8055, Note_on_c, 0, 76, 54
3, 8055, Note_on_c, 0, 77, 55
3, 8077, Note_on_c, 0, 76, 0
3, 8083, Note_on_c, 0, 82, 52
3, 8086, Note_on_c, 0, 77, 0
3, 8103, Note_on_c, 0, 82, 0
3, 8119, Note_on_c, 0, 84, 74
3, 8155, Note_on_c, 0, 84, 0
3, 8156, Note_on_c, 0, 89, 60
3, 8195, Note_on_c, 0, 89, 0
3, 8198, Note_on_c, 0, 94, 62
3, 8239, Note_on_c, 0, 94, 0
3, 8244, Note_on_c, 0, 96, 60
3, 8249, Note_on_c, 0, 63, 0
3, 8296, Note_on_c, 0, 94, 59
3, 8304, Note_on_c, 0, 96, 0
3, 8343, Note_on_c, 0, 94, 0
3, 8351, Note_on_c, 0, 92, 50
3, 8407, Note_on_c, 0, 92, 0
3, 8412, Note_on_c, 0, 91, 40
3, 8415, Note_on_c, 0, 59, 26
3, 8418, Note_on_c, 0, 53, 25
3, 8421, Note_on_c, 0, 64, 24
3, 8425, Control_c, 0, 64, 0
3, 8467, Control_c, 0, 64, 127
3, 8482, Note_on_c, 0, 64, 0
3, 8487, Note_on_c, 0, 59, 0
3, 8492, Note_on_c, 0, 87, 39
3, 8498, Note_on_c, 0, 53, 0
3, 8552, Note_on_c, 0, 91, 0
3, 8562, Note_on_c, 0, 83, 37
3, 8575, Note_on_c, 0, 87, 0
3, 8579, Note_on_c, 0, 83, 0
3, 8647, Note_on_c, 0, 106, 60
3, 8744, Note_on_c, 0, 106, 0
3, 8756, Note_on_c, 0, 104, 35
3, 8758, Note_on_c, 0, 31, 27
3, 8840, Note_on_c, 0, 104, 0
3, 8856, Note_on_c, 0, 31, 0
3, 9216, Note_on_c, 0, 76, 89
3, 9217, Note_on_c, 0, 69, 89
3, 9218, Note_on_c, 0, 65, 85
3, 9219, Note_on_c, 0, 64, 81
3, 9235, Control_c, 0, 64, 0
3, 9310, Note_on_c, 0, 63, 15
3, 9315, Control_c, 0, 64, 127
3, 9324, Note_on_c, 0, 63, 0
3, 9326, Note_on_c, 0, 64, 0
3, 9328, Note_on_c, 0, 62, 66
3, 9345, Note_on_c, 0, 65, 0
3, 9366, Note_on_c, 0, 61, 64
3, 9367, Control_c, 0, 64, 0
3, 9368, Note_on_c, 0, 62, 0
3, 9393, Note_on_c, 0, 65, 1
3, 9410, Control_c, 0, 64, 127
3, 9506, Note_on_c, 0, 69, 0
3, 9506, Note_on_c, 0, 65, 0
3, 9509, Note_on_c, 0, 76, 0
3, 9527, Note_on_c, 0, 65, 48
3, 9529, Note_on_c, 0, 77, 63
3, 9531, Note_on_c, 0, 62, 48
3, 9569, Note_on_c, 0, 61, 0
3, 9602, Note_on_c, 0, 77, 0
3, 9618, Note_on_c, 0, 62, 0
3, 9640, Note_on_c, 0, 79, 64
3, 9645, Note_on_c, 0, 77, 37
3, 9679, Note_on_c, 0, 79, 0
3, 9686, Note_on_c, 0, 77, 0
3, 9698, Note_on_c, 0, 65, 0
3, 9806, Note_on_c, 0, 60, 38
3, 9808, Note_on_c, 0, 69, 38
3, 9811, Note_on_c, 0, 64, 48
3, 9812, Note_on_c, 0, 53, 30
3, 9812, Note_on_c, 0, 43, 33
3, 9815, Control_c, 0, 64, 0
3, 9875, Control_c, 0, 64, 127
3, 9938, Note_on_c, 0, 69, 0
3, 9951, Note_on_c, 0, 64, 0
3, 9974, Note_on_c, 0, 60, 0
3, 10015, Note_on_c, 0, 72, 65
3, 10016, Note_on_c, 0, 43, 0
3, 10029, Note_on_c, 0, 53, 0
3, 10062, Note_on_c, 0, 72, 0
3, 10119, Note_on_c, 0, 74, 62
3, 10122, Note_on_c, 0, 65, 51
3, 10122, Note_on_c, 0, 69, 61
3, 10124, Note_on_c, 0, 64, 38
3, 10127, Control_c, 0, 64, 0
3, 10163, Control_c, 0, 64, 127
3, 10176, Note_on_c, 0, 74, 0
3, 10185, Note_on_c, 0, 69, 0
3, 10194, Note_on_c, 0, 65, 0
3, 10217, Note_on_c, 0, 64, 0
3, 10218, Note_on_c, 0, 76, 72
3, 10222, Note_on_c, 0, 62, 49
3, 10223, Note_on_c, 0, 65, 44
3, 10239, Note_on_c, 0, 62, 0
3, 10252, Note_on_c, 0, 65, 0
3, 10315, Note_on_c, 0, 67, 58
3, 10320, Note_on_c, 0, 52, 41
3, 10320, Note_on_c, 0, 76, 0
3, 10320, Note_on_c, 0, 62, 35
3, 10322, Control_c, 0, 64, 0
3, 10373, Control_c, 0, 64, 127
3, 10404, Note_on_c, 0, 79, 62
3, 10407, Note_on_c, 0, 59, 36
3, 10407, Note_on_c, 0, 62, 0
3, 10409, Note_on_c, 0, 67, 0
3, 10425, Note_on_c, 0, 79, 0
3, 10497, Note_on_c, 0, 91, 60
3, 10497, Note_on_c, 0, 62, 46
3, 10499, Note_on_c, 0, 79, 51
3, 10502, Note_on_c, 0, 86, 61
3, 10510, Note_on_c, 0, 86, 0
3, 10525, Note_on_c, 0, 91, 0
3, 10534, Note_on_c, 0, 52, 0
3, 10552, Note_on_c, 0, 79, 0
3, 10601, Note_on_c, 0, 62, 0
3, 10607, Note_on_c, 0, 52, 39
3, 10627, Note_on_c, 0, 59, 0
3, 10649, Note_on_c, 0, 52, 0
3, 10825, Note_on_c, 0, 54, 32
3, 10827, Note_on_c, 0, 63, 33
3, 10830, Note_on_c, 0, 41, 43
3, 10832, Note_on_c, 0, 57, 46
3, 10833, Note_on_c, 0, 60, 37
3, 10835, Control_c, 0, 64, 0
3, 10840, Note_on_c, 0, 53, 20
3, 10919, Control_c, 0, 64, 127
3, 10974, Note_on_c, 0, 53, 0
3, 10991, Note_on_c, 0, 54, 0
3, 10998, Note_on_c, 0, 57, 0
3, 11002, Note_on_c, 0, 60, 0
3, 11006, Note_on_c, 0, 53, 39
3, 11023, Note_on_c, 0, 63, 0
3, 11102, Note_on_c, 0, 41, 0
3, 11103, Note_on_c, 0, 69, 105
3, 11165, Note_on_c, 0, 53, 0
3, 11167, Note_on_c, 0, 69, 0
3, 11182, Note_on_c, 0, 69, 85
3, 11205, Note_on_c, 0, 69, 0
3, 11269, Note_on_c, 0, 70, 64
3, 11270, Note_on_c, 0, 46, 36
3, 11271, Note_on_c, 0, 67, 64
3, 11272, Note_on_c, 0, 58, 57
3, 11272, Control_c, 0, 64, 0
3, 11272, Note_on_c, 0, 63, 52
3, 11277, Note_on_c, 0, 55, 34
3, 11322, Control_c, 0, 64, 127
3, 11346, Note_on_c, 0, 46, 0
3, 11361, Note_on_c, 0, 46, 59
3, 11392, Note_on_c, 0, 67, 0
3, 11398, Note_on_c, 0, 55, 0
3, 11417, Note_on_c, 0, 58, 0
3, 11419, Note_on_c, 0, 63, 0
3, 11446, Note_on_c, 0, 70, 0
3, 11451, Note_on_c, 0, 67, 62
3, 11452, Note_on_c, 0, 63, 52
3, 11453, Note_on_c, 0, 58, 59
3, 11456, Note_on_c, 0, 55, 47
3, 11519, Note_on_c, 0, 46, 0
3, 11543, Note_on_c, 0, 70, 75
3, 11545, Note_on_c, 0, 46, 62
3, 11545, Note_on_c, 0, 67, 0
3, 11564, Note_on_c, 0, 58, 0
3, 11565, Note_on_c, 0, 63, 0
3, 11578, Note_on_c, 0, 70, 0
3, 11599, Note_on_c, 0, 55, 0
3, 11633, Note_on_c, 0, 46, 0
3, 11648, Note_on_c, 0, 74, 73
3, 11648, Note_on_c, 0, 66, 71
3, 11648, Note_on_c, 0, 69, 73
3, 11649, Note_on_c, 0, 46, 56
3, 11649, Note_on_c, 0, 62, 82
3, 11655, Note_on_c, 0, 72, 26
3, 11655, Control_c, 0, 64, 0
3, 11707, Control_c, 0, 64, 127
3, 11757, Note_on_c, 0, 58, 61
3, 11831, Note_on_c, 0, 69, 0
3, 11833, Note_on_c, 0, 58, 0
3, 11835, Note_on_c, 0, 62, 0
3, 11843, Note_on_c, 0, 66, 0
3, 11850, Note_on_c, 0, 74, 0
3, 11851, Note_on_c, 0, 72, 0
3, 11872, Note_on_c, 0, 74, 44
3, 11872, Note_on_c, 0, 66, 47
3, 11874, Note_on_c, 0, 69, 61
3, 11875, Note_on_c, 0, 62, 57
3, 11879, Note_on_c, 0, 58, 39
3, 11954, Note_on_c, 0, 46, 0
3, 11990, Note_on_c, 0, 46, 46
3, 12000, Note_on_c, 0, 74, 0
3, 12002, Note_on_c, 0, 58, 0
3, 12004, Note_on_c, 0, 69, 0
3, 12035, Note_on_c, 0, 66, 0
3, 12042, Note_on_c, 0, 62, 0
3, 12067, Note_on_c, 0, 46, 0
3, 12105, Note_on_c, 0, 70, 53
3, 12106, Note_on_c, 0, 46, 43
3, 12107, Note_on_c, 0, 67, 57
3, 12108, Note_on_c, 0, 58, 37
3, 12108, Note_on_c, 0, 63, 46
3, 12112, Control_c, 0, 64, 0
3, 12165, Control_c, 0, 64, 127
3, 12173, Note_on_c, 0, 46, 0
3, 12201, Note_on_c, 0, 46, 51
3, 12233, Note_on_c, 0, 67, 0
3, 12246, Note_on_c, 0, 63, 0
3, 12255, Note_on_c, 0, 58, 0
3, 12292, Note_on_c, 0, 67, 40
3, 12293, Note_on_c, 0, 58, 32
3, 12294, Note_on_c, 0, 63, 33
3, 12301, Note_on_c, 0, 55, 17
3, 12363, Note_on_c, 0, 46, 0
3, 12388, Note_on_c, 0, 46, 35
3, 12470, Note_on_c, 0, 46, 0
3, 12494, Note_on_c, 0, 58, 0
3, 12512, Note_on_c, 0, 46, 48
3, 12514, Note_on_c, 0, 67, 0
3, 12515, Note_on_c, 0, 63, 0
3, 12590, Note_on_c, 0, 70, 0
3, 12603, Note_on_c, 0, 46, 0
3, 12633, Note_on_c, 0, 46, 39
3, 12749, Note_on_c, 0, 46, 0
3, 12764, Note_on_c, 0, 84, 80
3, 12764, Note_on_c, 0, 48, 57
3, 12767, Note_on_c, 0, 55, 0
3, 12889, Note_on_c, 0, 84, 0
3, 12896, Note_on_c, 0, 87, 74
3, 12905, Note_on_c, 0, 51, 31
3, 12910, Note_on_c, 0, 48, 0
3, 12934, Note_on_c, 0, 51, 0
3, 12977, Note_on_c, 0, 87, 0
3, 13096, Note_on_c, 0, 41, 51
3, 13116, Note_on_c, 0, 48, 45
3, 13137, Note_on_c, 0, 56, 49
3, 13150, Note_on_c, 0, 55, 51
3, 13153, Note_on_c, 0, 63, 32
3, 13160, Control_c, 0, 64, 0
3, 13167, Note_on_c, 0, 70, 77
3, 13215, Control_c, 0, 64, 127
3, 13244, Note_on_c, 0, 56, 0
3, 13256, Note_on_c, 0, 41, 0
3, 13258, Note_on_c, 0, 48, 0
3, 13265, Note_on_c, 0, 63, 0
3, 13271, Note_on_c, 0, 55, 0
3, 13279, Note_on_c, 0, 70, 0
3, 13438, Note_on_c, 0, 82, 42
3, 13442, Note_on_c, 0, 68, 28
3, 13442, Note_on_c, 0, 75, 43
3, 13446, Note_on_c, 0, 63, 19
3, 13448, Note_on_c, 0, 56, 26
3, 13452, Note_on_c, 0, 60, 29
3, 13527, Note_on_c, 0, 68, 0
3, 13545, Note_on_c, 0, 75, 0
3, 13555, Note_on_c, 0, 82, 0
3, 13707, Note_on_c, 0, 91, 80
3, 13779, Note_on_c, 0, 91, 0
3, 13795, Note_on_c, 0, 87, 69
3, 13823, Note_on_c, 0, 60, 0
3, 13843, Note_on_c, 0, 63, 0
3, 13849, Note_on_c, 0, 56, 0
3, 13880, Note_on_c, 0, 84, 60
3, 13887, Note_on_c, 0, 87, 0
3, 14072, Note_on_c, 0, 82, 39
3, 14073, Control_c, 0, 64, 0
3, 14073, Note_on_c, 0, 46, 26
3, 14074, Note_on_c, 0, 34, 33
3, 14076, Note_on_c, 0, 84, 0
3, 14113, Control_c, 0, 64, 127
3, 14142, Note_on_c, 0, 34, 0
3, 14150, Note_on_c, 0, 46, 0
3, 14236, Note_on_c, 0, 67, 33
3, 14237, Note_on_c, 0, 56, 28
3, 14238, Note_on_c, 0, 62, 41
3, 14277, Note_on_c, 0, 62, 0
3, 14289, Note_on_c, 0, 56, 0
3, 14289, Note_on_c, 0, 67, 0
3, 14354, Note_on_c, 0, 56, 34
3, 14355, Note_on_c, 0, 67, 37
3, 14361, Note_on_c, 0, 62, 37
3, 14392, Note_on_c, 0, 62, 0
3, 14402, Note_on_c, 0, 67, 0
3, 14404, Note_on_c, 0, 56, 0
3, 14493, Note_on_c, 0, 86, 74
3, 14494, Note_on_c, 0, 67, 43
3, 14495, Note_on_c, 0, 56, 31
3, 14499, Note_on_c, 0, 62, 48
3, 14542, Note_on_c, 0, 67, 0
3, 14547, Note_on_c, 0, 62, 0
3, 14565, Note_on_c, 0, 56, 0
3, 14590, Note_on_c, 0, 86, 0
3, 14602, Note_on_c, 0, 82, 0
3, 14802, Note_on_c, 0, 77, 58
3, 14805, Control_c, 0, 64, 0
3, 14805, Note_on_c, 0, 51, 46
3, 14806, Note_on_c, 0, 74, 58
3, 14807, Note_on_c, 0, 69, 43
3, 14808, Note_on_c, 0, 66, 32
3, 14811, Note_on_c, 0, 59, 27
3, 14857, Control_c, 0, 64, 127
3, 14883, Note_on_c, 0, 77, 0
3, 14904, Note_on_c, 0, 77, 66
3, 14909, Note_on_c, 0, 69, 0
3, 14926, Note_on_c, 0, 66, 0
3, 14935, Note_on_c, 0, 74, 0
3, 14977, Note_on_c, 0, 77, 0
3, 15007, Note_on_c, 0, 59, 0
3, 15009, Note_on_c, 0, 77, 51
3, 15014, Note_on_c, 0, 70, 43
3, 15016, Note_on_c, 0, 67, 44
3, 15019, Control_c, 0, 64, 0
3, 15021, Note_on_c, 0, 60, 41
3, 15083, Control_c, 0, 64, 127
3, 15136, Note_on_c, 0, 77, 0
3, 15158, Note_on_c, 0, 77, 54
3, 15205, Note_on_c, 0, 60, 0
3, 15243, Note_on_c, 0, 67, 0
3, 15253, Note_on_c, 0, 70, 0
3, 15278, Note_on_c, 0, 77, 0
3, 15298, Note_on_c, 0, 77, 22
3, 15300, Note_on_c, 0, 70, 31
3, 15301, Note_on_c, 0, 67, 40
3, 15310, Note_on_c, 0, 62, 31
3, 15446, Note_on_c, 0, 62, 0
3, 15464, Note_on_c, 0, 67, 0
3, 15471, Note_on_c, 0, 70, 0
3, 15489, Note_on_c, 0, 77, 0
3, 15606, Note_on_c, 0, 75, 88
3, 15612, Note_on_c, 0, 58, 64
3, 15643, Note_on_c, 0, 51, 0
3, 15663, Note_on_c, 0, 75, 0
3, 15881, Note_on_c, 0, 79, 68
3, 15916, Note_on_c, 0, 58, 0
3, 15979, Note_on_c, 0, 79, 0
3, 16077, Note_on_c, 0, 84, 72
3, 16078, Control_c, 0, 64, 0
3, 16079, Note_on_c, 0, 53, 41
3, 16118, Control_c, 0, 64, 127
3, 16154, Note_on_c, 0, 84, 0
3, 16172, Note_on_c, 0, 60, 34
3, 16262, Note_on_c, 0, 69, 43
3, 16266, Note_on_c, 0, 63, 20
3, 16299, Note_on_c, 0, 60, 0
3, 16369, Note_on_c, 0, 60, 31
3, 16381, Note_on_c, 0, 63, 0
3, 16461, Note_on_c, 0, 75, 74
3, 16462, Note_on_c, 0, 63, 34
3, 16472, Note_on_c, 0, 60, 0
3, 16534, Note_on_c, 0, 69, 0
3, 16544, Note_on_c, 0, 60, 24
3, 16613, Note_on_c, 0, 60, 0
3, 16622, Note_on_c, 0, 69, 56
3, 16667, Note_on_c, 0, 75, 0
3, 16724, Note_on_c, 0, 79, 55
3, 16727, Note_on_c, 0, 60, 29
3, 16738, Note_on_c, 0, 69, 0
3, 16748, Note_on_c, 0, 53, 0
3, 16757, Note_on_c, 0, 79, 0
3, 16852, Note_on_c, 0, 63, 0
3, 17007, Note_on_c, 0, 83, 51
3, 17008, Note_on_c, 0, 60, 0
3, 17009, Note_on_c, 0, 78, 36
3, 17011, Note_on_c, 0, 74, 40
3, 17012, Note_on_c, 0, 71, 25
3, 17013, Note_on_c, 0, 69, 27
3, 17020, Note_on_c, 0, 58, 25
3, 17020, Control_c, 0, 64, 0
3, 17030, Note_on_c, 0, 71, 0
3, 17086, Control_c, 0, 64, 127
3, 17121, Note_on_c, 0, 62, 44
3, 17191, Note_on_c, 0, 69, 0
3, 17195, Note_on_c, 0, 74, 0
3, 17234, Note_on_c, 0, 66, 35
3, 17240, Note_on_c, 0, 69, 25
3, 17326, Note_on_c, 0, 78, 0
3, 17350, Note_on_c, 0, 74, 37
3, 17417, Note_on_c, 0, 74, 0
3, 17425, Note_on_c, 0, 66, 0
3, 17428, Note_on_c, 0, 69, 0
3, 17487, Note_on_c, 0, 83, 0
3, 17487, Note_on_c, 0, 69, 19
3, 17488, Note_on_c, 0, 66, 21
3, 17571, Note_on_c, 0, 69, 0
3, 17583, Note_on_c, 0, 62, 0
3, 17586, Note_on_c, 0, 58, 0
3, 17590, Note_on_c, 0, 66, 0
3, 17656, Note_on_c, 0, 58, 20
3, 17735, Note_on_c, 0, 58, 0
3, 17812, Note_on_c, 0, 86, 61
3, 17817, Note_on_c, 0, 62, 43
3, 18014, Note_on_c, 0, 90, 46
3, 18017, Note_on_c, 0, 66, 25
3, 18019, Note_on_c, 0, 86, 0
3, 18037, Note_on_c, 0, 62, 0
3, 18059, Note_on_c, 0, 66, 0
3, 18154, Note_on_c, 0, 90, 0
3, 18428, Note_on_c, 0, 82, 51
3, 18432, Note_on_c, 0, 71, 46
3, 18432, Note_on_c, 0, 67, 36
3, 18432, Note_on_c, 0, 75, 38
3, 18432, Note_on_c, 0, 79, 51
3, 18437, Control_c, 0, 64, 0
3, 18485, Control_c, 0, 64, 127
3, 18519, Note_on_c, 0, 82, 0
3, 18553, Note_on_c, 0, 82, 50
3, 18560, Note_on_c, 0, 55, 34
3, 18596, Note_on_c, 0, 67, 0
3, 18607, Note_on_c, 0, 79, 0
3, 18617, Note_on_c, 0, 75, 0
3, 18618, Note_on_c, 0, 71, 0
3, 18620, Note_on_c, 0, 82, 0
3, 18767, Note_on_c, 0, 55, 0
3, 18931, Note_on_c, 0, 82, 43
3, 18932, Note_on_c, 0, 73, 33
3, 18935, Note_on_c, 0, 55, 38
3, 18935, Note_on_c, 0, 80, 27
3, 18936, Note_on_c, 0, 77, 54
3, 18936, Note_on_c, 0, 68, 21
3, 19024, Note_on_c, 0, 82, 0
3, 19026, Note_on_c, 0, 80, 0
3, 19088, Note_on_c, 0, 55, 0
3, 19095, Note_on_c, 0, 82, 42
3, 19138, Note_on_c, 0, 82, 0
3, 19139, Note_on_c, 0, 68, 0
3, 19151, Note_on_c, 0, 77, 0
3, 19172, Note_on_c, 0, 73, 0
3, 19239, Note_on_c, 0, 79, 43
3, 19242, Note_on_c, 0, 72, 25
3, 19243, Note_on_c, 0, 50, 30
3, 19243, Note_on_c, 0, 65, 29
3, 19244, Note_on_c, 0, 57, 34
3, 19250, Note_on_c, 0, 60, 18
3, 19253, Control_c, 0, 64, 0
3, 19307, Control_c, 0, 64, 127
3, 19338, Note_on_c, 0, 79, 0
3, 19364, Note_on_c, 0, 60, 0
3, 19388, Note_on_c, 0, 57, 0
3, 19399, Note_on_c, 0, 79, 53
3, 19408, Note_on_c, 0, 50, 0
3, 19476, Note_on_c, 0, 79, 0
3, 19498, Note_on_c, 0, 65, 0
3, 19519, Note_on_c, 0, 72, 0
3, 19520, Control_c, 0, 64, 0
3, 19534, Note_on_c, 0, 43, 44
3, 19550, Control_c, 0, 64, 127
3, 19587, Note_on_c, 0, 43, 0
3, 19710, Note_on_c, 0, 79, 36
3, 19713, Note_on_c, 0, 71, 36
3, 19715, Note_on_c, 0, 65, 44
3, 19715, Note_on_c, 0, 67, 41
3, 19716, Note_on_c, 0, 63, 25
3, 19716, Note_on_c, 0, 77, 32
3, 19718, Note_on_c, 0, 59, 34
3, 19720, Note_on_c, 0, 53, 28
3, 19818, Note_on_c, 0, 65, 0
3, 19825, Note_on_c, 0, 67, 0
3, 19846, Note_on_c, 0, 71, 0
3, 19866, Note_on_c, 0, 53, 0
3, 19867, Note_on_c, 0, 59, 0
3, 19872, Note_on_c, 0, 77, 0
3, 19885, Note_on_c, 0, 63, 0
3, 19890, Note_on_c, 0, 79, 0
3, 20033, Note_on_c, 0, 88, 36
3, 20052, Note_on_c, 0, 89, 72
3, 20061, Note_on_c, 0, 90, 71
3, 20062, Note_on_c, 0, 88, 0
3, 20072, Note_on_c, 0, 89, 0
3, 20077, Note_on_c, 0, 90, 0
3, 20079, Note_on_c, 0, 58, 84
3, 20079, Note_on_c, 0, 91, 81
3, 20079, Note_on_c, 0, 64, 78
3, 20079, Note_on_c, 0, 69, 81
3, 20087, Control_c, 0, 64, 0
3, 20149, Control_c, 0, 64, 127
3, 20213, Note_on_c, 0, 91, 0
3, 20218, Note_on_c, 0, 88, 81
3, 20291, Note_on_c, 0, 88, 0
3, 20293, Note_on_c, 0, 64, 0
3, 20293, Note_on_c, 0, 84, 77
3, 20294, Note_on_c, 0, 69, 0
3, 20322, Note_on_c, 0, 84, 0
3, 20323, Note_on_c, 0, 58, 0
3, 20400, Note_on_c, 0, 82, 57
3, 20401, Note_on_c, 0, 75, 60
3, 20402, Note_on_c, 0, 70, 44
3, 20406, Note_on_c, 0, 53, 34
3, 20406, Note_on_c, 0, 64, 43
3, 20407, Note_on_c, 0, 59, 43
3, 20412, Control_c, 0, 64, 0
3, 20476, Control_c, 0, 64, 127
3, 20497, Note_on_c, 0, 70, 0
3, 20501, Note_on_c, 0, 82, 0
3, 20518, Note_on_c, 0, 68, 32
3, 20519, Note_on_c, 0, 80, 30
3, 20562, Note_on_c, 0, 68, 0
3, 20568, Note_on_c, 0, 80, 0
3, 20586, Note_on_c, 0, 75, 0
3, 20606, Note_on_c, 0, 82, 44
3, 20611, Note_on_c, 0, 75, 27
3, 20611, Note_on_c, 0, 70, 25
3, 20750, Note_on_c, 0, 75, 0
3, 20763, Note_on_c, 0, 70, 0
3, 20766, Note_on_c, 0, 82, 0
3, 20785, Note_on_c, 0, 64, 0
3, 20810, Note_on_c, 0, 59, 0
3, 20813, Note_on_c, 0, 84, 42
3, 20817, Note_on_c, 0, 72, 24
3, 20834, Note_on_c, 0, 53, 0
3, 20850, Note_on_c, 0, 72, 0
3, 20858, Note_on_c, 0, 84, 0
3, 20916, Note_on_c, 0, 86, 47
3, 20917, Note_on_c, 0, 48, 30
3, 20921, Control_c, 0, 64, 0
3, 20943, Note_on_c, 0, 74, 1
3, 20947, Note_on_c, 0, 86, 0
3, 20957, Control_c, 0, 64, 127
3, 20963, Note_on_c, 0, 74, 0
3, 20987, Note_on_c, 0, 55, 29
3, 21041, Note_on_c, 0, 55, 0
3, 21044, Note_on_c, 0, 71, 44
3, 21046, Note_on_c, 0, 48, 0
3, 21049, Note_on_c, 0, 64, 29
3, 21050, Note_on_c, 0, 67, 31
3, 21051, Note_on_c, 0, 59, 36
3, 21072, Note_on_c, 0, 64, 0
3, 21092, Note_on_c, 0, 59, 0
3, 21097, Note_on_c, 0, 67, 0
3, 21105, Note_on_c, 0, 71, 0
3, 21110, Note_on_c, 0, 62, 51
3, 21172, Note_on_c, 0, 62, 0
3, 21192, Note_on_c, 0, 62, 17
3, 21202, Note_on_c, 0, 66, 43
3, 21275, Note_on_c, 0, 66, 0
3, 21291, Note_on_c, 0, 67, 45
3, 21318, Note_on_c, 0, 67, 0
3, 21353, Note_on_c, 0, 62, 0
3, 21496, Note_on_c, 0, 72, 85
3, 21503, Note_on_c, 0, 62, 42
3, 21589, Note_on_c, 0, 72, 0
3, 21590, Note_on_c, 0, 62, 0
3, 21591, Note_on_c, 0, 70, 77
3, 21672, Note_on_c, 0, 70, 0
3, 21676, Note_on_c, 0, 69, 69
3, 21772, Note_on_c, 0, 69, 0
3, 21774, Note_on_c, 0, 68, 57
3, 21782, Note_on_c, 0, 50, 29
3, 21782, Note_on_c, 0, 60, 34
3, 21791, Control_c, 0, 64, 0
3, 21859, Control_c, 0, 64, 127
3, 21879, Note_on_c, 0, 56, 27
3, 21902, Note_on_c, 0, 60, 0
3, 22031, Note_on_c, 0, 70, 60
3, 22037, Note_on_c, 0, 60, 30
3, 22040, Note_on_c, 0, 68, 0
3, 22133, Note_on_c, 0, 72, 50
3, 22145, Note_on_c, 0, 70, 0
3, 22154, Note_on_c, 0, 60, 0
3, 22213, Note_on_c, 0, 56, 0
3, 22217, Note_on_c, 0, 72, 0
3, 22234, Note_on_c, 0, 74, 54
3, 22235, Note_on_c, 0, 68, 34
3, 22237, Note_on_c, 0, 65, 34
3, 22245, Note_on_c, 0, 56, 25
3, 22254, Note_on_c, 0, 60, 8
3, 22284, Note_on_c, 0, 50, 0
3, 22335, Note_on_c, 0, 50, 40
3, 22383, Note_on_c, 0, 74, 0
3, 22386, Note_on_c, 0, 56, 0
3, 22386, Note_on_c, 0, 60, 0
3, 22398, Note_on_c, 0, 65, 0
3, 22412, Note_on_c, 0, 68, 0
3, 22440, Note_on_c, 0, 72, 41
3, 22444, Note_on_c, 0, 65, 37
3, 22445, Note_on_c, 0, 56, 23
3, 22451, Note_on_c, 0, 60, 17
3, 22512, Note_on_c, 0, 50, 0
3, 22856, Note_on_c, 0, 68, 34
3, 22876, Note_on_c, 0, 60, 0
3, 22895, Note_on_c, 0, 65, 0
3, 22897, Note_on_c, 0, 72, 0
3, 22952, Note_on_c, 0, 68, 0
3, 22960, Note_on_c, 0, 56, 0
3, 23149, Note_on_c, 0, 75, 56
3, 23153, Note_on_c, 0, 68, 48
3, 23154, Note_on_c, 0, 48, 39
3, 23156, Note_on_c, 0, 56, 28
3, 23156, Note_on_c, 0, 63, 35
3, 23158, Control_c, 0, 64, 0
3, 23222, Control_c, 0, 64, 127
3, 23229, Note_on_c, 0, 56, 0
3, 23262, Note_on_c, 0, 56, 25
3, 23279, Note_on_c, 0, 68, 0
3, 23288, Note_on_c, 0, 63, 0
3, 23353, Note_on_c, 0, 68, 37
3, 23353, Note_on_c, 0, 63, 38
3, 23354, Note_on_c, 0, 75, 0
3, 23357, Note_on_c, 0, 60, 25
3, 23389, Note_on_c, 0, 48, 0
3, 23419, Note_on_c, 0, 60, 0
3, 23451, Note_on_c, 0, 75, 59
3, 23453, Note_on_c, 0, 48, 31
3, 23467, Note_on_c, 0, 56, 0
3, 23477, Note_on_c, 0, 48, 0
3, 23494, Note_on_c, 0, 63, 0
3, 23506, Note_on_c, 0, 75, 0
3, 23536, Note_on_c, 0, 68, 0
3, 23568, Note_on_c, 0, 74, 66
3, 23572, Note_on_c, 0, 47, 32
3, 23573, Note_on_c, 0, 67, 45
3, 23573, Control_c, 0, 64, 0
3, 23574, Note_on_c, 0, 62, 40
3, 23577, Note_on_c, 0, 55, 20
3, 23629, Control_c, 0, 64, 127
3, 23640, Note_on_c, 0, 55, 0
3, 23687, Note_on_c, 0, 55, 36
3, 23715, Note_on_c, 0, 62, 0
3, 23729, Note_on_c, 0, 67, 0
3, 23805, Note_on_c, 0, 67, 41
3, 23807, Note_on_c, 0, 74, 0
3, 23809, Note_on_c, 0, 62, 29
3, 23813, Note_on_c, 0, 59, 26
3, 23904, Note_on_c, 0, 47, 0
3, 23916, Note_on_c, 0, 59, 0
3, 23953, Note_on_c, 0, 74, 54
3, 23962, Note_on_c, 0, 47, 30
3, 23994, Note_on_c, 0, 47, 0
3, 23996, Note_on_c, 0, 62, 0
3, 24049, Note_on_c, 0, 74, 0
3, 24066, Note_on_c, 0, 67, 0
3, 24228, Note_on_c, 0, 55, 0
3, 24233, Note_on_c, 0, 72, 37
3, 24235, Note_on_c, 0, 48, 25
3, 24236, Note_on_c, 0, 64, 34
3, 24239, Control_c, 0, 64, 0
3, 24291, Control_c, 0, 64, 127
3, 24334, Note_on_c, 0, 55, 32
3, 24340, Note_on_c, 0, 64, 0
3, 24442, Note_on_c, 0, 60, 35
3, 24444, Note_on_c, 0, 72, 0
3, 24605, Note_on_c, 0, 86, 84
3, 24613, Note_on_c, 0, 60, 0
3, 24614, Note_on_c, 0, 55, 0
3, 24626, Note_on_c, 0, 48, 0
3, 24687, Note_on_c, 0, 86, 0
3, 24701, Note_on_c, 0, 83, 61
3, 24704, Note_on_c, 0, 41, 49
3, 24706, Control_c, 0, 64, 0
3, 24744, Control_c, 0, 64, 127
3, 24755, Note_on_c, 0, 83, 0
3, 24775, Note_on_c, 0, 48, 49
3, 24802, Note_on_c, 0, 41, 0
3, 24836, Note_on_c, 0, 48, 0
3, 24853, Note_on_c, 0, 79, 47
3, 24856, Note_on_c, 0, 57, 38
3, 24856, Note_on_c, 0, 67, 38
3, 24894, Note_on_c, 0, 57, 0
3, 24933, Note_on_c, 0, 59, 40
3, 24960, Note_on_c, 0, 67, 0
3, 25029, Note_on_c, 0, 71, 36
3, 25030, Note_on_c, 0, 67, 34
3, 25036, Note_on_c, 0, 62, 34
3, 25132, Note_on_c, 0, 59, 0
3, 25200, Note_on_c, 0, 67, 0
3, 25210, Note_on_c, 0, 71, 0
3, 25255, Note_on_c, 0, 79, 0
3, 25320, Note_on_c, 0, 86, 73
3, 25426, Note_on_c, 0, 86, 0
3, 25433, Note_on_c, 0, 82, 39
3, 25435, Note_on_c, 0, 52, 32
3, 25436, Note_on_c, 0, 74, 29
3, 25438, Note_on_c, 0, 62, 0
3, 25444, Control_c, 0, 64, 0
3, 25494, Control_c, 0, 64, 127
3, 25513, Note_on_c, 0, 58, 47
3, 25521, Note_on_c, 0, 52, 0
3, 25533, Note_on_c, 0, 58, 0
3, 25599, Note_on_c, 0, 67, 47
3, 25605, Note_on_c, 0, 62, 31
3, 25606, Note_on_c, 0, 56, 37
3, 25679, Note_on_c, 0, 74, 0
3, 25775, Note_on_c, 0, 82, 0
3, 25785, Note_on_c, 0, 81, 78
3, 25826, Note_on_c, 0, 82, 79
3, 25835, Note_on_c, 0, 81, 0
3, 25868, Note_on_c, 0, 82, 0
3, 25879, Note_on_c, 0, 84, 85
3, 25898, Note_on_c, 0, 67, 0
3, 25913, Note_on_c, 0, 62, 0
3, 25921, Note_on_c, 0, 85, 78
3, 25929, Note_on_c, 0, 84, 0
3, 25952, Note_on_c, 0, 56, 0
3, 25959, Note_on_c, 0, 87, 71
3, 25964, Note_on_c, 0, 85, 0
3, 25980, Note_on_c, 0, 87, 0
3, 25983, Note_on_c, 0, 88, 66
3, 26008, Note_on_c, 0, 88, 0
3, 26012, Note_on_c, 0, 90, 61
3, 26026, Note_on_c, 0, 90, 0
3, 26035, Note_on_c, 0, 91, 64
3, 26058, Note_on_c, 0, 91, 0
3, 26059, Note_on_c, 0, 93, 57
3, 26083, Note_on_c, 0, 94, 44
3, 26083, Note_on_c, 0, 93, 0
3, 26105, Note_on_c, 0, 94, 0
3, 26108, Note_on_c, 0, 95, 52
3, 26125, Control_c, 0, 64, 0
3, 26126, Note_on_c, 0, 95, 0
3, 26127, Note_on_c, 0, 61, 43
3, 26127, Note_on_c, 0, 66, 27
3, 26129, Note_on_c, 0, 55, 48
3, 26138, Note_on_c, 0, 96, 54
3, 26181, Control_c, 0, 64, 127
3, 26295, Note_on_c, 0, 93, 43
3, 26295, Note_on_c, 0, 96, 0
3, 26348, Note_on_c, 0, 93, 0
3, 26396, Note_on_c, 0, 66, 0
3, 26467, Note_on_c, 0, 91, 46
3, 26471, Note_on_c, 0, 82, 36
3, 26481, Note_on_c, 0, 64, 16
3, 26614, Note_on_c, 0, 55, 0
3, 26790, Note_on_c, 0, 55, 32
3, 26790, Note_on_c, 0, 91, 0
3, 26792, Note_on_c, 0, 88, 50
3, 26850, Note_on_c, 0, 55, 0
3, 26863, Note_on_c, 0, 61, 0
3, 26867, Note_on_c, 0, 64, 0
3, 26893, Note_on_c, 0, 82, 0
3, 26916, Note_on_c, 0, 88, 0
3, 27105, Control_c, 0, 64, 0
3, 27146, Note_on_c, 0, 50, 40
3, 27148, Note_on_c, 0, 88, 77
3, 27186, Control_c, 0, 64, 127
3, 27293, Note_on_c, 0, 88, 0
3, 27304, Note_on_c, 0, 86, 58
3, 27305, Note_on_c, 0, 57, 27
3, 27307, Note_on_c, 0, 60, 31
3, 27449, Note_on_c, 0, 86, 0
3, 27459, Note_on_c, 0, 84, 59
3, 27487, Note_on_c, 0, 50, 0
3, 27499, Note_on_c, 0, 57, 0
3, 27507, Note_on_c, 0, 84, 0
3, 27522, Note_on_c, 0, 81, 43
3, 27543, Note_on_c, 0, 60, 0
3, 27585, Note_on_c, 0, 81, 0
3, 27587, Control_c, 0, 64, 0
3, 27588, Note_on_c, 0, 79, 42
3, 27588, Note_on_c, 0, 52, 36
3, 27621, Control_c, 0, 64, 127
3, 27718, Note_on_c, 0, 62, 36
3, 27718, Note_on_c, 0, 59, 25
3, 27719, Note_on_c, 0, 91, 43
3, 27869, Note_on_c, 0, 52, 0
3, 27924, Note_on_c, 0, 52, 54
3, 27947, Note_on_c, 0, 52, 0
3, 27992, Control_c, 0, 64, 0
3, 27994, Note_on_c, 0, 59, 0
3, 28004, Note_on_c, 0, 53, 33
3, 28009, Note_on_c, 0, 79, 0
3, 28011, Note_on_c, 0, 62, 0
3, 28036, Control_c, 0, 64, 127
3, 28113, Note_on_c, 0, 91, 0
3, 28133, Note_on_c, 0, 64, 31
3, 28137, Note_on_c, 0, 60, 30
3, 28210, Note_on_c, 0, 81, 43
3, 28252, Note_on_c, 0, 81, 0
3, 28271, Note_on_c, 0, 84, 78
3, 28305, Note_on_c, 0, 84, 0
3, 28317, Note_on_c, 0, 88, 84
3, 28345, Note_on_c, 0, 60, 0
3, 28349, Note_on_c, 0, 88, 0
3, 28351, Note_on_c, 0, 53, 0
3, 28354, Note_on_c, 0, 64, 0
3, 28363, Note_on_c, 0, 91, 81
3, 28403, Note_on_c, 0, 91, 0
3, 28415, Note_on_c, 0, 53, 48
3, 28415, Note_on_c, 0, 59, 62
3, 28416, Note_on_c, 0, 64, 54
3, 28417, Note_on_c, 0, 93, 96
3, 28419, Control_c, 0, 64, 0
3, 28457, Control_c, 0, 64, 127
3, 28484, Note_on_c, 0, 64, 0
3, 28485, Note_on_c, 0, 93, 0
3, 28489, Note_on_c, 0, 59, 0
3, 28499, Note_on_c, 0, 53, 0
3, 28501, Note_on_c, 0, 93, 74
3, 28626, Note_on_c, 0, 31, 48
3, 28754, Note_on_c, 0, 31, 0
3, 28764, Note_on_c, 0, 93, 0
3, 28772, Note_on_c, 0, 91, 41
3, 28852, Note_on_c, 0, 91, 0
3, 28859, Note_on_c, 0, 93, 74
3, 28860, Note_on_c, 0, 36, 40
3, 28860, Note_on_c, 0, 24, 65
3, 28866, Control_c, 0, 64, 0
3, 28919, Control_c, 0, 64, 127
3, 28941, Note_on_c, 0, 24, 0
3, 28946, Note_on_c, 0, 36, 0
3, 29027, Note_on_c, 0, 93, 0
3, 29084, Note_on_c, 0, 64, 35
3, 29087, Note_on_c, 0, 60, 45
3, 29088, Note_on_c, 0, 59, 42
3, 29201, Note_on_c, 0, 64, 0
3, 29202, Note_on_c, 0, 60, 0
3, 29216, Note_on_c, 0, 59, 0
3, 29242, Note_on_c, 0, 76, 88
3, 29366, Note_on_c, 0, 76, 0
3, 29449, Note_on_c, 0, 86, 96
3, 29450, Note_on_c, 0, 53, 60
3, 29450, Note_on_c, 0, 79, 89
3, 29519, Note_on_c, 0, 79, 0
3, 29536, Control_c, 0, 64, 0
3, 29537, Note_on_c, 0, 86, 0
3, 29544, Note_on_c, 0, 83, 61
3, 29547, Note_on_c, 0, 60, 37
3, 29547, Note_on_c, 0, 69, 35
3, 29547, Note_on_c, 0, 74, 52
3, 29549, Note_on_c, 0, 79, 38
3, 29616, Control_c, 0, 64, 127
3, 29617, Note_on_c, 0, 79, 0
3, 29645, Note_on_c, 0, 69, 0
3, 29648, Note_on_c, 0, 74, 0
3, 29655, Note_on_c, 0, 60, 0
3, 29660, Note_on_c, 0, 83, 0
3, 29663, Note_on_c, 0, 79, 49
3, 29670, Note_on_c, 0, 53, 0
3, 29680, Note_on_c, 0, 79, 0
3, 29759, Note_on_c, 0, 74, 43
3, 29759, Note_on_c, 0, 67, 37
3, 29759, Note_on_c, 0, 52, 33
3, 29762, Control_c, 0, 64, 0
3, 29764, Note_on_c, 0, 62, 24
3, 29808, Control_c, 0, 64, 127
3, 29921, Note_on_c, 0, 67, 0
3, 29949, Note_on_c, 0, 74, 0
3, 30027, Note_on_c, 0, 72, 36
3, 30047, Note_on_c, 0, 52, 0
3, 30048, Note_on_c, 0, 72, 0
3, 30056, Note_on_c, 0, 73, 49
3, 30062, Note_on_c, 0, 62, 0
3, 30070, Note_on_c, 0, 73, 0
3, 30085, Note_on_c, 0, 77, 63
3, 30109, Note_on_c, 0, 77, 0
3, 30109, Note_on_c, 0, 82, 60
3, 30126, Note_on_c, 0, 82, 0
3, 30140, Note_on_c, 0, 84, 66
3, 30156, Note_on_c, 0, 84, 0
3, 30162, Note_on_c, 0, 90, 59
3, 30168, Note_on_c, 0, 89, 63
3, 30183, Note_on_c, 0, 90, 0
3, 30193, Note_on_c, 0, 94, 60
3, 30196, Note_on_c, 0, 89, 0
3, 30224, Note_on_c, 0, 96, 71
3, 30225, Note_on_c, 0, 94, 0
3, 30234, Note_on_c, 0, 66, 27
3, 30235, Note_on_c, 0, 61, 31
3, 30238, Note_on_c, 0, 55, 43
3, 30243, Control_c, 0, 64, 0
3, 30248, Note_on_c, 0, 96, 0
3, 30256, Note_on_c, 0, 94, 36
3, 30334, Control_c, 0, 64, 127
3, 30390, Note_on_c, 0, 66, 0
3, 30419, Note_on_c, 0, 61, 0
3, 30454, Note_on_c, 0, 94, 0
3, 30545, Note_on_c, 0, 55, 0
3, 30559, Note_on_c, 0, 93, 70
3, 30620, Note_on_c, 0, 93, 0
3, 30655, Note_on_c, 0, 91, 46
3, 30681, Note_on_c, 0, 90, 42
3, 30684, Note_on_c, 0, 91, 0
3, 30698, Note_on_c, 0, 89, 53
3, 30708, Note_on_c, 0, 90, 0
3, 30724, Note_on_c, 0, 89, 0
3, 30726, Note_on_c, 0, 88, 53
3, 30728, Note_on_c, 0, 50, 30
3, 30730, Control_c, 0, 64, 0
3, 30785, Control_c, 0, 64, 127
3, 30785, Note_on_c, 0, 88, 0
3, 30835, Note_on_c, 0, 57, 38
3, 30900, Note_on_c, 0, 50, 0
3, 30944, Note_on_c, 0, 65, 47
3, 30944, Note_on_c, 0, 69, 54
3, 30948, Note_on_c, 0, 64, 36
3, 31021, Note_on_c, 0, 64, 0
3, 31061, Note_on_c, 0, 74, 82
3, 31142, Note_on_c, 0, 65, 0
3, 31144, Note_on_c, 0, 74, 0
3, 31153, Note_on_c, 0, 69, 0
3, 31162, Note_on_c, 0, 72, 67
3, 31225, Note_on_c, 0, 57, 0
3, 31242, Note_on_c, 0, 72, 0
3, 31272, Note_on_c, 0, 69, 69
3, 31295, Note_on_c, 0, 69, 0
3, 31380, Note_on_c, 0, 67, 54
3, 31381, Note_on_c, 0, 62, 51
3, 31383, Note_on_c, 0, 55, 38
3, 31385, Note_on_c, 0, 40, 30
3, 31389, Note_on_c, 0, 50, 24
3, 31390, Control_c, 0, 64, 0
3, 31446, Control_c, 0, 64, 127
3, 31473, Note_on_c, 0, 62, 0
3, 31481, Note_on_c, 0, 40, 0
3, 31493, Note_on_c, 0, 55, 0
3, 31502, Note_on_c, 0, 62, 47
3, 31508, Note_on_c, 0, 50, 0
3, 31537, Note_on_c, 0, 67, 0
3, 31538, Note_on_c, 0, 62, 0
3, 31615, Note_on_c, 0, 55, 41
3, 31617, Control_c, 0, 64, 0
3, 31617, Note_on_c, 0, 48, 32
3, 31617, Note_on_c, 0, 60, 44
3, 31617, Note_on_c, 0, 57, 47
3, 31620, Note_on_c, 0, 41, 32
3, 31650, Control_c, 0, 64, 127
3, 31652, Note_on_c, 0, 55, 0
3, 31660, Note_on_c, 0, 57, 0
3, 31663, Note_on_c, 0, 60, 0
3, 31677, Note_on_c, 0, 41, 0
3, 31682, Note_on_c, 0, 48, 0
3, 31736, Note_on_c, 0, 76, 79
3, 31738, Note_on_c, 0, 69, 78
3, 31739, Note_on_c, 0, 65, 72
3, 31741, Note_on_c, 0, 61, 43
3, 31745, Control_c, 0, 64, 0
3, 31765, Control_c, 0, 64, 127
3, 31833, Note_on_c, 0, 65, 0
3, 31836, Note_on_c, 0, 61, 0
3, 31843, Note_on_c, 0, 69, 0
3, 31844, Note_on_c, 0, 76, 0
3, 31846, Note_on_c, 0, 74, 57
3, 31849, Note_on_c, 0, 69, 31
3, 31850, Note_on_c, 0, 65, 55
3, 31851, Control_c, 0, 64, 0
3, 31853, Note_on_c, 0, 60, 58
3, 31893, Control_c, 0, 64, 127
3, 31926, Note_on_c, 0, 69, 0
3, 31944, Note_on_c, 0, 65, 0
3, 31957, Note_on_c, 0, 60, 0
3, 31958, Note_on_c, 0, 57, 53
3, 31958, Note_on_c, 0, 69, 60
3, 31987, Note_on_c, 0, 69, 0
3, 31999, Note_on_c, 0, 74, 0
3, 32005, Note_on_c, 0, 57, 0
3, 32058, Note_on_c, 0, 71, 53
3, 32060, Note_on_c, 0, 81, 50
3, 32062, Note_on_c, 0, 76, 58
3, 32064, Control_c, 0, 64, 0
3, 32066, Note_on_c, 0, 53, 29
3, 32066, Note_on_c, 0, 59, 37
3, 32067, Note_on_c, 0, 64, 22
3, 32118, Control_c, 0, 64, 127
3, 32128, Note_on_c, 0, 64, 0
3, 32132, Note_on_c, 0, 59, 0
3, 32145, Note_on_c, 0, 53, 0
3, 32279, Note_on_c, 0, 31, 44
3, 32290, Note_on_c, 0, 31, 0
3, 32342, Note_on_c, 0, 71, 0
3, 32361, Note_on_c, 0, 76, 0
3, 32373, Note_on_c, 0, 81, 0
3, 32463, Note_on_c, 0, 79, 52
3, 32488, Note_on_c, 0, 79, 0
3, 32507, Note_on_c, 0, 81, 64
3, 32508, Note_on_c, 0, 57, 30
3, 32510, Note_on_c, 0, 52, 34
3, 32510, Control_c, 0, 64, 0
3, 32513, Note_on_c, 0, 62, 20
3, 32514, Note_on_c, 0, 58, 25
3, 32527, Note_on_c, 0, 81, 0
3, 32540, Note_on_c, 0, 82, 46
3, 32561, Note_on_c, 0, 82, 0
3, 32577, Note_on_c, 0, 81, 50
3, 32595, Control_c, 0, 64, 127
3, 32601, Note_on_c, 0, 81, 0
3, 32640, Note_on_c, 0, 57, 0
3, 32642, Note_on_c, 0, 62, 0
3, 32651, Note_on_c, 0, 58, 0
3, 32698, Note_on_c, 0, 66, 60
3, 32699, Note_on_c, 0, 62, 68
3, 32701, Note_on_c, 0, 69, 63
3, 32703, Note_on_c, 0, 57, 44
3, 32703, Control_c, 0, 64, 0
3, 32706, Note_on_c, 0, 62, 0
3, 32711, Note_on_c, 0, 69, 0
3, 32711, Note_on_c, 0, 66, 0
3, 32712, Note_on_c, 0, 57, 0
3, 32724, Note_on_c, 0, 52, 0
3, 32748, Note_on_c, 0, 66, 59
3, 32748, Note_on_c, 0, 69, 65
3, 32750, Note_on_c, 0, 62, 53
3, 32752, Note_on_c, 0, 58, 27
3, 32754, Note_on_c, 0, 57, 39
3, 32756, Note_on_c, 0, 66, 0
3, 32756, Note_on_c, 0, 69, 0
3, 32757, Note_on_c, 0, 62, 0
3, 32761, Note_on_c, 0, 58, 0
3, 32762, Note_on_c, 0, 57, 0
3, 32820, Note_on_c, 0, 58, 48
3, 32821, Note_on_c, 0, 66, 62
3, 32822, Note_on_c, 0, 69, 64
3, 32822, Note_on_c, 0, 62, 64
3, 32824, Note_on_c, 0, 57, 41
3, 32828, Note_on_c, 0, 55, 31
3, 32829, Note_on_c, 0, 62, 0
3, 32832, Note_on_c, 0, 69, 0
3, 32834, Note_on_c, 0, 66, 0
3, 32836, Note_on_c, 0, 57, 0
3, 32836, Note_on_c, 0, 55, 0
3, 32837, Note_on_c, 0, 58, 0
3, 32868, Note_on_c, 0, 58, 42
3, 32870, Note_on_c, 0, 66, 57
3, 32870, Note_on_c, 0, 69, 63
3, 32872, Note_on_c, 0, 62, 60
3, 32884, Control_c, 0, 64, 127
3, 32888, Note_on_c, 0, 62, 0
3, 32888, Note_on_c, 0, 69, 0
3, 32902, Note_on_c, 0, 66, 0
3, 32902, Note_on_c, 0, 58, 0
3, 32937, Note_on_c, 0, 59, 34
3, 32940, Note_on_c, 0, 67, 61
3, 32941, Note_on_c, 0, 56, 38
3, 32941, Note_on_c, 0, 63, 57
3, 32941, Note_on_c, 0, 70, 55
3, 32945, Note_on_c, 0, 58, 43
3, 32954, Note_on_c, 0, 59, 0
3, 32960, Note_on_c, 0, 67, 0
3, 32965, Note_on_c, 0, 58, 0
3, 32968, Note_on_c, 0, 63, 0
3, 32971, Note_on_c, 0, 70, 0
3, 32971, Note_on_c, 0, 56, 0
3, 32980, Control_c, 0, 64, 0
3, 32988, Note_on_c, 0, 66, 56
3, 32990, Note_on_c, 0, 62, 60
3, 32993, Note_on_c, 0, 69, 61
3, 32994, Note_on_c, 0, 55, 55
3, 32995, Note_on_c, 0, 57, 42
3, 32997, Note_on_c, 0, 52, 13
3, 32997, Note_on_c, 0, 58, 17
3, 33037, Control_c, 0, 64, 127
3, 33061, Note_on_c, 0, 57, 0
3, 33062, Note_on_c, 0, 55, 0
3, 33067, Note_on_c, 0, 58, 0
3, 33081, Note_on_c, 0, 52, 0
3, 33182, Note_on_c, 0, 40, 60
3, 33229, Note_on_c, 0, 62, 0
3, 33233, Note_on_c, 0, 66, 0
3, 33239, Note_on_c, 0, 52, 72
3, 33320, Note_on_c, 0, 69, 0
3, 33386, Note_on_c, 0, 40, 0
3, 33406, Note_on_c, 0, 52, 0
3, 33499, Note_on_c, 0, 63, 45
3, 33502, Note_on_c, 0, 58, 50
3, 33503, Note_on_c, 0, 61, 43
3, 33503, Control_c, 0, 64, 0
3, 33504, Note_on_c, 0, 55, 46
3, 33504, Note_on_c, 0, 45, 45
3, 33559, Control_c, 0, 64, 127
3, 33579, Note_on_c, 0, 55, 0
3, 33587, Note_on_c, 0, 63, 0
3, 33587, Note_on_c, 0, 58, 0
3, 33589, Note_on_c, 0, 61, 0
3, 33625, Note_on_c, 0, 64, 62
3, 33626, Note_on_c, 0, 58, 51
3, 33627, Note_on_c, 0, 52, 38
3, 33628, Note_on_c, 0, 61, 46
3, 33635, Note_on_c, 0, 45, 0
3, 33642, Note_on_c, 0, 58, 0
3, 33645, Note_on_c, 0, 52, 0
3, 33647, Note_on_c, 0, 61, 0
3, 33651, Note_on_c, 0, 64, 0
3, 33746, Note_on_c, 0, 76, 71
3, 33746, Note_on_c, 0, 70, 68
3, 33747, Note_on_c, 0, 73, 46
3, 33748, Note_on_c, 0, 61, 45
3, 33749, Note_on_c, 0, 64, 49
3, 33749, Note_on_c, 0, 67, 64
3, 33750, Control_c, 0, 64, 0
3, 33750, Note_on_c, 0, 58, 32
3, 33750, Note_on_c, 0, 55, 43
3, 33772, Control_c, 0, 64, 127
3, 33798, Note_on_c, 0, 67, 0
3, 33803, Note_on_c, 0, 76, 0
3, 33803, Note_on_c, 0, 73, 0
3, 33803, Note_on_c, 0, 70, 0
3, 33856, Note_on_c, 0, 64, 0
3, 33868, Note_on_c, 0, 61, 0
3, 33869, Note_on_c, 0, 81, 90
3, 33872, Note_on_c, 0, 55, 0
3, 33880, Note_on_c, 0, 58, 0
3, 33938, Note_on_c, 0, 81, 0
3, 33985, Note_on_c, 0, 81, 63
3, 33985, Note_on_c, 0, 73, 52
3, 33986, Control_c, 0, 64, 0
3, 33989, Note_on_c, 0, 70, 46
3, 33991, Note_on_c, 0, 76, 53
3, 33993, Note_on_c, 0, 64, 42
3, 34029, Control_c, 0, 64, 127
3, 34185, Note_on_c, 0, 64, 0
3, 34243, Note_on_c, 0, 64, 40
3, 34321, Note_on_c, 0, 81, 0
3, 34353, Note_on_c, 0, 64, 0
3, 34370, Note_on_c, 0, 73, 0
3, 34382, Note_on_c, 0, 70, 0
3, 34411, Note_on_c, 0, 73, 35
3, 34422, Note_on_c, 0, 76, 0
3, 34445, Note_on_c, 0, 70, 50
3, 34478, Note_on_c, 0, 70, 0
3, 34481, Note_on_c, 0, 73, 0
3, 34491, Note_on_c, 0, 69, 42
3, 34493, Note_on_c, 0, 50, 30
3, 34494, Note_on_c, 0, 57, 35
3, 34496, Note_on_c, 0, 60, 24
3, 34501, Control_c, 0, 64, 0
3, 34540, Note_on_c, 0, 79, 50
3, 34555, Control_c, 0, 64, 127
3, 34563, Note_on_c, 0, 69, 0
3, 34573, Note_on_c, 0, 79, 0
3, 34583, Note_on_c, 0, 76, 45
3, 34597, Note_on_c, 0, 76, 0
3, 34624, Note_on_c, 0, 60, 0
3, 34629, Note_on_c, 0, 91, 78
3, 34659, Note_on_c, 0, 57, 0
3, 34670, Note_on_c, 0, 91, 0
3, 34756, Note_on_c, 0, 57, 38
3, 34759, Note_on_c, 0, 60, 19
3, 34790, Note_on_c, 0, 57, 0
3, 34796, Note_on_c, 0, 50, 0
3, 34816, Note_on_c, 0, 60, 0
3, 34855, Note_on_c, 0, 57, 46
3, 34857, Note_on_c, 0, 60, 35
3, 34858, Note_on_c, 0, 64, 30
3, 34860, Note_on_c, 0, 53, 30
3, 34953, Note_on_c, 0, 76, 81
3, 34954, Note_on_c, 0, 64, 0
3, 34980, Note_on_c, 0, 57, 0
3, 34983, Note_on_c, 0, 60, 0
3, 34987, Note_on_c, 0, 76, 0
3, 35019, Note_on_c, 0, 76, 83
3, 35022, Note_on_c, 0, 64, 34
3, 35025, Note_on_c, 0, 60, 32
3, 35026, Note_on_c, 0, 57, 37
3, 35028, Control_c, 0, 64, 0
3, 35051, Note_on_c, 0, 76, 0
3, 35065, Note_on_c, 0, 74, 31
3, 35090, Note_on_c, 0, 74, 0
3, 35107, Control_c, 0, 64, 127
3, 35113, Note_on_c, 0, 74, 49
3, 35167, Note_on_c, 0, 64, 0
3, 35175, Note_on_c, 0, 57, 0
3, 35189, Note_on_c, 0, 60, 0
3, 35281, Note_on_c, 0, 64, 31
3, 35285, Note_on_c, 0, 57, 24
3, 35285, Note_on_c, 0, 60, 29
3, 35336, Note_on_c, 0, 64, 0
3, 35345, Note_on_c, 0, 57, 0
3, 35347, Note_on_c, 0, 60, 0
3, 35374, Note_on_c, 0, 53, 0
3, 35389, Note_on_c, 0, 71, 48
3, 35390, Note_on_c, 0, 74, 0
3, 35458, Note_on_c, 0, 72, 42
3, 35468, Note_on_c, 0, 71, 0
3, 35493, Note_on_c, 0, 73, 30
3, 35493, Note_on_c, 0, 72, 0
3, 35513, Note_on_c, 0, 74, 64
3, 35515, Note_on_c, 0, 73, 0
3, 35531, Note_on_c, 0, 74, 0
3, 35536, Control_c, 0, 64, 0
3, 35540, Note_on_c, 0, 41, 60
3, 35540, Note_on_c, 0, 75, 81
3, 35586, Control_c, 0, 64, 127
3, 35606, Note_on_c, 0, 41, 0
3, 35658, Note_on_c, 0, 72, 37
3, 35681, Note_on_c, 0, 72, 0
3, 35695, Note_on_c, 0, 75, 0
3, 35798, Note_on_c, 0, 63, 35
3, 35801, Note_on_c, 0, 60, 37
3, 35804, Note_on_c, 0, 56, 26
3, 35813, Note_on_c, 0, 63, 0
3, 35815, Note_on_c, 0, 60, 0
3, 35822, Note_on_c, 0, 56, 0
3, 35883, Note_on_c, 0, 84, 79
3, 35898, Note_on_c, 0, 84, 0
3, 35902, Control_c, 0, 64, 0
3, 35974, Note_on_c, 0, 81, 62
3, 35993, Note_on_c, 0, 81, 0
3, 35995, Control_c, 0, 64, 127
3, 36015, Note_on_c, 0, 82, 53
3, 36050, Note_on_c, 0, 82, 0
3, 36053, Control_c, 0, 64, 0
3, 36057, Note_on_c, 0, 67, 37
3, 36057, Note_on_c, 0, 56, 32
3, 36058, Note_on_c, 0, 84, 66
3, 36060, Note_on_c, 0, 62, 45
3, 36115, Control_c, 0, 64, 127
3, 36167, Note_on_c, 0, 67, 0
3, 36176, Note_on_c, 0, 62, 0
3, 36193, Note_on_c, 0, 56, 0
3, 36233, Note_on_c, 0, 84, 0
3, 36260, Note_on_c, 0, 82, 82
3, 36304, Note_on_c, 0, 56, 25
3, 36306, Note_on_c, 0, 46, 30
3, 36308, Control_c, 0, 64, 0
3, 36353, Control_c, 0, 64, 127
3, 36396, Note_on_c, 0, 78, 51
3, 36409, Note_on_c, 0, 82, 0
3, 36447, Note_on_c, 0, 46, 0
3, 36448, Note_on_c, 0, 78, 0
3, 36451, Note_on_c, 0, 79, 32
3, 36456, Note_on_c, 0, 56, 0
3, 36478, Note_on_c, 0, 79, 0
3, 36491, Note_on_c, 0, 80, 56
3, 36512, Note_on_c, 0, 80, 0
3, 36528, Note_on_c, 0, 81, 80
3, 36559, Note_on_c, 0, 81, 0
3, 36568, Control_c, 0, 64, 0
3, 36571, Note_on_c, 0, 82, 70
3, 36573, Note_on_c, 0, 62, 35
3, 36574, Note_on_c, 0, 51, 26
3, 36575, Note_on_c, 0, 55, 41
3, 36576, Note_on_c, 0, 58, 36
3, 36611, Control_c, 0, 64, 127
3, 36638, Note_on_c, 0, 62, 0
3, 36639, Note_on_c, 0, 55, 0
3, 36649, Note_on_c, 0, 82, 0
3, 36651, Note_on_c, 0, 58, 0
3, 36661, Note_on_c, 0, 51, 0
3, 36817, Note_on_c, 0, 43, 35
3, 36819, Control_c, 0, 64, 0
3, 36819, Note_on_c, 0, 70, 64
3, 36819, Note_on_c, 0, 53, 53
3, 36820, Note_on_c, 0, 62, 72
3, 36820, Note_on_c, 0, 58, 56
3, 36850, Note_on_c, 0, 62, 0
3, 36880, Note_on_c, 0, 70, 0
3, 36885, Control_c, 0, 64, 127
3, 36885, Note_on_c, 0, 53, 0
3, 36898, Note_on_c, 0, 61, 53
3, 36901, Note_on_c, 0, 49, 38
3, 36932, Note_on_c, 0, 61, 0
3, 36934, Note_on_c, 0, 58, 0
3, 36941, Note_on_c, 0, 49, 0
3, 36946, Note_on_c, 0, 62, 60
3, 36949, Note_on_c, 0, 50, 43
3, 36950, Note_on_c, 0, 58, 13
3, 36950, Note_on_c, 0, 43, 0
3, 36981, Note_on_c, 0, 58, 0
3, 36986, Note_on_c, 0, 62, 0
3, 36993, Note_on_c, 0, 50, 0
3, 37050, Control_c, 0, 64, 0
3, 37070, Note_on_c, 0, 51, 38
3, 37070, Note_on_c, 0, 41, 37
3, 37071, Note_on_c, 0, 68, 50
3, 37071, Note_on_c, 0, 56, 52
3, 37071, Note_on_c, 0, 63, 56
3, 37156, Control_c, 0, 64, 127
3, 37189, Note_on_c, 0, 63, 0
3, 37308, Note_on_c, 0, 51, 0
3, 37318, Note_on_c, 0, 61, 59
3, 37322, Control_c, 0, 64, 0
3, 37326, Note_on_c, 0, 49, 35
3, 37365, Note_on_c, 0, 49, 0
3, 37372, Control_c, 0, 64, 127
3, 37375, Note_on_c, 0, 61, 0
3, 37399, Note_on_c, 0, 61, 48
3, 37401, Note_on_c, 0, 49, 33
3, 37427, Note_on_c, 0, 68, 0
3, 37434, Note_on_c, 0, 56, 0
3, 37434, Note_on_c, 0, 61, 0
3, 37439, Control_c, 0, 64, 0
3, 37446, Note_on_c, 0, 49, 0
3, 37447, Note_on_c, 0, 50, 47
3, 37447, Note_on_c, 0, 62, 54
3, 37465, Note_on_c, 0, 41, 0
3, 37476, Control_c, 0, 64, 127
3, 37502, Note_on_c, 0, 62, 0
3, 37525, Note_on_c, 0, 50, 0
3, 37562, Note_on_c, 0, 39, 49
3, 37564, Control_c, 0, 64, 0
3, 37565, Note_on_c, 0, 67, 60
3, 37567, Note_on_c, 0, 55, 47
3, 37619, Note_on_c, 0, 55, 0
3, 37639, Note_on_c, 0, 46, 34
3, 37641, Note_on_c, 0, 58, 45
3, 37670, Note_on_c, 0, 46, 0
3, 37684, Note_on_c, 0, 67, 0
3, 37687, Note_on_c, 0, 47, 38
3, 37691, Note_on_c, 0, 59, 40
3, 37718, Note_on_c, 0, 58, 0
3, 37725, Note_on_c, 0, 59, 0
3, 37768, Note_on_c, 0, 47, 0
3, 37770, Note_on_c, 0, 48, 47
3, 37772, Note_on_c, 0, 60, 43
3, 37772, Note_on_c, 0, 55, 31
3, 37817, Control_c, 0, 64, 127
3, 37869, Note_on_c, 0, 55, 0
3, 37881, Note_on_c, 0, 39, 0
3, 37914, Note_on_c, 0, 60, 0
3, 37920, Note_on_c, 0, 48, 0
3, 38044, Control_c, 0, 64, 0
3, 38044, Note_on_c, 0, 41, 42
3, 38044, Note_on_c, 0, 51, 30
3, 38045, Note_on_c, 0, 56, 33
3, 38045, Note_on_c, 0, 60, 52
3, 38092, Control_c, 0, 64, 127
3, 38143, Note_on_c, 0, 41, 0
3, 38165, Note_on_c, 0, 51, 0
3, 38166, Note_on_c, 0, 56, 0
3, 38168, Note_on_c, 0, 60, 0
3, 38293, Note_on_c, 0, 60, 53
3, 38293, Note_on_c, 0, 55, 48
3, 38296, Note_on_c, 0, 45, 35
3, 38296, Note_on_c, 0, 63, 25
3, 38298, Control_c, 0, 64, 0
3, 38364, Note_on_c, 0, 55, 0
3, 38376, Control_c, 0, 64, 127
3, 38395, Note_on_c, 0, 63, 0
3, 38404, Note_on_c, 0, 60, 0
3, 38417, Note_on_c, 0, 60, 51
3, 38417, Note_on_c, 0, 54, 39
3, 38418, Note_on_c, 0, 44, 37
3, 38422, Note_on_c, 0, 62, 43
3, 38424, Note_on_c, 0, 45, 0
3, 38431, Control_c, 0, 64, 0
3, 38475, Control_c, 0, 64, 127
3, 38496, Note_on_c, 0, 54, 0
3, 38499, Note_on_c, 0, 62, 0
3, 38501, Note_on_c, 0, 60, 0
3, 38526, Note_on_c, 0, 44, 0
3, 38531, Control_c, 0, 64, 0
3, 38542, Note_on_c, 0, 58, 45
3, 38542, Note_on_c, 0, 53, 44
3, 38543, Note_on_c, 0, 43, 32
3, 38579, Control_c, 0, 64, 127
3, 38596, Note_on_c, 0, 53, 0
3, 38600, Note_on_c, 0, 43, 0
3, 38608, Note_on_c, 0, 58, 0
3, 38684, Note_on_c, 0, 74, 91
3, 38750, Note_on_c, 0, 74, 0
3, 38787, Note_on_c, 0, 74, 101
3, 38813, Control_c, 0, 64, 0
3, 38818, Note_on_c, 0, 62, 55
3, 38820, Note_on_c, 0, 58, 39
3, 38823, Note_on_c, 0, 55, 35
3, 38851, Control_c, 0, 64, 127
3, 38989, Note_on_c, 0, 69, 54
3, 38993, Note_on_c, 0, 55, 0
3, 38999, Note_on_c, 0, 62, 0
3, 39015, Note_on_c, 0, 69, 0
3, 39031, Note_on_c, 0, 70, 61
3, 39032, Note_on_c, 0, 74, 0
3, 39044, Note_on_c, 0, 58, 0
3, 39070, Note_on_c, 0, 70, 0
3, 39077, Note_on_c, 0, 54, 42
3, 39079, Note_on_c, 0, 74, 69
3, 39079, Note_on_c, 0, 58, 42
3, 39080, Note_on_c, 0, 62, 44
3, 39084, Control_c, 0, 64, 0
3, 39144, Control_c, 0, 64, 127
3, 39234, Note_on_c, 0, 54, 0
3, 39252, Note_on_c, 0, 62, 0
3, 39271, Note_on_c, 0, 58, 0
3, 39336, Note_on_c, 0, 53, 41
3, 39337, Note_on_c, 0, 62, 44
3, 39341, Note_on_c, 0, 58, 42
3, 39343, Control_c, 0, 64, 0
3, 39387, Control_c, 0, 64, 127
3, 39468, Note_on_c, 0, 62, 0
3, 39479, Note_on_c, 0, 58, 0
3, 39493, Note_on_c, 0, 53, 0
3, 39530, Note_on_c, 0, 67, 51
3, 39531, Note_on_c, 0, 74, 0
3, 39551, Note_on_c, 0, 67, 0
3, 39568, Note_on_c, 0, 74, 79
3, 39600, Note_on_c, 0, 74, 0
3, 39607, Control_c, 0, 64, 0
3, 39613, Note_on_c, 0, 67, 35
3, 39614, Note_on_c, 0, 45, 35
3, 39615, Note_on_c, 0, 55, 34
3, 39617, Note_on_c, 0, 60, 48
3, 39657, Control_c, 0, 64, 127
3, 39671, Note_on_c, 0, 60, 0
3, 39689, Note_on_c, 0, 67, 0
3, 39697, Note_on_c, 0, 45, 0
3, 39698, Note_on_c, 0, 74, 67
3, 39712, Note_on_c, 0, 55, 0
3, 39717, Note_on_c, 0, 74, 0
3, 39743, Note_on_c, 0, 79, 64
3, 39771, Note_on_c, 0, 79, 0
3, 39782, Note_on_c, 0, 86, 74
3, 39797, Note_on_c, 0, 86, 0
3, 39824, Note_on_c, 0, 91, 85
3, 39857, Note_on_c, 0, 91, 0
3, 39865, Note_on_c, 0, 98, 80
3, 39867, Note_on_c, 0, 57, 45
3, 39868, Note_on_c, 0, 55, 41
3, 39870, Note_on_c, 0, 60, 44
3, 39873, Note_on_c, 0, 64, 24
3, 39900, Note_on_c, 0, 98, 0
3, 39913, Note_on_c, 0, 98, 68
3, 39938, Note_on_c, 0, 98, 0
3, 39958, Note_on_c, 0, 98, 69
3, 39979, Note_on_c, 0, 98, 0
3, 39991, Note_on_c, 0, 55, 0
3, 39994, Note_on_c, 0, 60, 0
3, 39999, Note_on_c, 0, 64, 0
3, 40005, Note_on_c, 0, 98, 58
3, 40012, Note_on_c, 0, 57, 0
3, 40023, Note_on_c, 0, 98, 0
3, 40045, Note_on_c, 0, 98, 56
3, 40066, Note_on_c, 0, 98, 0
3, 40093, Note_on_c, 0, 98, 68
3, 40115, Note_on_c, 0, 98, 0
3, 40123, Control_c, 0, 64, 0
3, 40133, Note_on_c, 0, 54, 33
3, 40137, Note_on_c, 0, 98, 55
3, 40138, Note_on_c, 0, 65, 32
3, 40141, Note_on_c, 0, 60, 40
3, 40149, Control_c, 0, 64, 127
3, 40158, Note_on_c, 0, 98, 0
3, 40186, Note_on_c, 0, 102, 61
3, 40206, Note_on_c, 0, 102, 0
3, 40271, Note_on_c, 0, 102, 65
3, 40275, Note_on_c, 0, 60, 0
3, 40292, Note_on_c, 0, 65, 0
3, 40312, Note_on_c, 0, 102, 0
3, 40315, Note_on_c, 0, 54, 0
3, 40355, Note_on_c, 0, 54, 70
3, 40356, Note_on_c, 0, 65, 80
3, 40356, Note_on_c, 0, 102, 88
3, 40357, Note_on_c, 0, 60, 76
3, 40414, Note_on_c, 0, 102, 0
3, 40422, Note_on_c, 0, 65, 0
3, 40423, Note_on_c, 0, 54, 0
3, 40425, Note_on_c, 0, 60, 0
3, 40445, Note_on_c, 0, 54, 62
3, 40446, Note_on_c, 0, 65, 70
3, 40446, Note_on_c, 0, 102, 77
3, 40447, Note_on_c, 0, 60, 64
3, 40494, Note_on_c, 0, 60, 0
3, 40496, Note_on_c, 0, 65, 0
3, 40501, Note_on_c, 0, 54, 0
3, 40502, Note_on_c, 0, 102, 0
3, 40536, Note_on_c, 0, 54, 43
3, 40537, Note_on_c, 0, 102, 63
3, 40537, Note_on_c, 0, 65, 57
3, 40541, Note_on_c, 0, 60, 55
3, 40564, Note_on_c, 0, 65, 0
3, 40566, Note_on_c, 0, 60, 0
3, 40568, Note_on_c, 0, 54, 0
3, 40574, Note_on_c, 0, 102, 0
3, 40622, Note_on_c, 0, 62, 57
3, 40622, Note_on_c, 0, 59, 53
3, 40625, Note_on_c, 0, 54, 34
3, 40625, Note_on_c, 0, 102, 69
3, 40634, Control_c, 0, 64, 0
3, 40668, Control_c, 0, 64, 127
3, 40682, Note_on_c, 0, 62, 0
3, 40682, Note_on_c, 0, 54, 0
3, 40683, Note_on_c, 0, 59, 0
3, 40707, Note_on_c, 0, 102, 0
3, 40710, Note_on_c, 0, 62, 35
3, 40711, Note_on_c, 0, 59, 26
3, 40711, Note_on_c, 0, 98, 48
3, 40711, Note_on_c, 0, 54, 38
3, 40742, Note_on_c, 0, 98, 0
3, 40743, Note_on_c, 0, 54, 0
3, 40748, Note_on_c, 0, 59, 0
3, 40751, Note_on_c, 0, 62, 0
3, 40794, Note_on_c, 0, 62, 36
3, 40795, Note_on_c, 0, 54, 29
3, 40797, Note_on_c, 0, 59, 35
3, 40797, Note_on_c, 0, 98, 48
3, 40826, Note_on_c, 0, 59, 0
3, 40829, Note_on_c, 0, 62, 0
3, 40830, Note_on_c, 0, 54, 0
3, 40833, Note_on_c, 0, 98, 0
3, 40882, Note_on_c, 0, 98, 57
3, 40884, Note_on_c, 0, 54, 30
3, 40884, Note_on_c, 0, 62, 35
3, 40886, Note_on_c, 0, 59, 33
3, 40933, Note_on_c, 0, 98, 0
3, 40955, Note_on_c, 0, 62, 0
3, 40962, Note_on_c, 0, 59, 0
3, 41018, Note_on_c, 0, 95, 47
3, 41040, Note_on_c, 0, 95, 0
3, 41071, Note_on_c, 0, 95, 51
3, 41088, Note_on_c, 0, 95, 0
3, 41132, Note_on_c, 0, 86, 52
3, 41165, Note_on_c, 0, 86, 0
3, 41192, Note_on_c, 0, 62, 42
3, 41192, Note_on_c, 0, 86, 54
3, 41198, Note_on_c, 0, 59, 24
3, 41202, Note_on_c, 0, 62, 0
3, 41205, Note_on_c, 0, 59, 0
3, 41210, Note_on_c, 0, 54, 0
3, 41280, Note_on_c, 0, 90, 46
3, 41289, Note_on_c, 0, 86, 0
3, 41411, Note_on_c, 0, 90, 0
3, 41454, Note_on_c, 0, 31, 54
3, 41475, Note_on_c, 0, 31, 0
3, 41599, Note_on_c, 0, 57, 53
3, 41678, Note_on_c, 0, 60, 70
3, 41690, Note_on_c, 0, 57, 0
3, 41722, Note_on_c, 0, 60, 0
3, 41738, Note_on_c, 0, 60, 51
3, 41739, Note_on_c, 0, 43, 36
3, 41739, Note_on_c, 0, 64, 53
3, 41740, Note_on_c, 0, 57, 50
3, 41740, Note_on_c, 0, 50, 27
3, 41741, Note_on_c, 0, 53, 36
3, 41746, Control_c, 0, 64, 0
3, 41823, Control_c, 0, 64, 127
3, 41878, Note_on_c, 0, 64, 0
3, 41884, Note_on_c, 0, 62, 43
3, 41899, Note_on_c, 0, 60, 0
3, 41903, Note_on_c, 0, 57, 0
3, 41906, Note_on_c, 0, 53, 0
3, 41926, Note_on_c, 0, 62, 0
3, 41937, Note_on_c, 0, 43, 0
3, 41941, Note_on_c, 0, 50, 0
3, 41972, Note_on_c, 0, 43, 36
3, 41973, Control_c, 0, 64, 0
3, 41973, Note_on_c, 0, 53, 28
3, 41974, Note_on_c, 0, 64, 36
3, 41974, Note_on_c, 0, 60, 45
3, 41974, Note_on_c, 0, 57, 45
3, 41976, Note_on_c, 0, 50, 34
3, 42057, Control_c, 0, 64, 127
3, 42199, Note_on_c, 0, 43, 0
3, 42219, Note_on_c, 0, 64, 0
3, 42231, Note_on_c, 0, 60, 0
3, 42233, Note_on_c, 0, 62, 49
3, 42235, Note_on_c, 0, 53, 0
3, 42245, Note_on_c, 0, 57, 0
3, 42257, Note_on_c, 0, 62, 0
3, 42313, Note_on_c, 0, 67, 59
3, 42314, Note_on_c, 0, 50, 0
3, 42314, Note_on_c, 0, 43, 34
3, 42316, Control_c, 0, 64, 0
3, 42316, Note_on_c, 0, 63, 36
3, 42320, Note_on_c, 0, 59, 50
3, 42321, Note_on_c, 0, 53, 36
3, 42388, Control_c, 0, 64, 127
3, 42518, Note_on_c, 0, 53, 0
3, 42529, Note_on_c, 0, 59, 0
3, 42534, Note_on_c, 0, 63, 0
3, 42606, Note_on_c, 0, 63, 27
3, 42609, Note_on_c, 0, 59, 27
3, 42610, Note_on_c, 0, 53, 26
3, 42612, Note_on_c, 0, 67, 0
3, 42661, Control_c, 0, 64, 0
3, 42703, Note_on_c, 0, 67, 101
3, 42722, Note_on_c, 0, 59, 0
3, 42726, Note_on_c, 0, 53, 0
3, 42727, Note_on_c, 0, 63, 0
3, 42730, Note_on_c, 0, 43, 0
3, 42814, Note_on_c, 0, 63, 50
3, 42819, Control_c, 0, 64, 127
3, 42821, Note_on_c, 0, 67, 0
3, 42852, Note_on_c, 0, 59, 40
3, 42866, Note_on_c, 0, 63, 0
3, 42897, Note_on_c, 0, 59, 0
3, 42900, Control_c, 0, 64, 0
3, 42904, Note_on_c, 0, 65, 66
3, 42906, Note_on_c, 0, 38, 40
3, 42971, Control_c, 0, 64, 127
3, 43021, Note_on_c, 0, 53, 31
3, 43039, Note_on_c, 0, 65, 0
3, 43040, Note_on_c, 0, 38, 0
3, 43069, Note_on_c, 0, 53, 0
3, 43173, Note_on_c, 0, 50, 29
3, 43174, Note_on_c, 0, 60, 33
3, 43174, Note_on_c, 0, 57, 39
3, 43176, Note_on_c, 0, 53, 36
3, 43260, Note_on_c, 0, 76, 101
3, 43292, Note_on_c, 0, 60, 0
3, 43293, Note_on_c, 0, 57, 0
3, 43299, Note_on_c, 0, 53, 0
3, 43307, Note_on_c, 0, 50, 0
3, 43355, Note_on_c, 0, 74, 61
3, 43386, Note_on_c, 0, 74, 0
3, 43389, Note_on_c, 0, 72, 58
3, 43395, Note_on_c, 0, 76, 0
3, 43418, Note_on_c, 0, 72, 0
3, 43422, Note_on_c, 0, 69, 30
3, 43452, Note_on_c, 0, 69, 0
3, 43459, Note_on_c, 0, 47, 31
3, 43460, Note_on_c, 0, 67, 31
3, 43462, Note_on_c, 0, 40, 47
3, 43465, Control_c, 0, 64, 0
3, 43467, Note_on_c, 0, 55, 44
3, 43470, Note_on_c, 0, 67, 0
3, 43509, Control_c, 0, 64, 127
3, 43563, Note_on_c, 0, 79, 41
3, 43566, Note_on_c, 0, 40, 0
3, 43571, Note_on_c, 0, 47, 0
3, 43583, Note_on_c, 0, 79, 0
3, 43585, Note_on_c, 0, 55, 0
3, 43595, Note_on_c, 0, 67, 48
3, 43605, Note_on_c, 0, 67, 0
3, 43639, Note_on_c, 0, 91, 71
3, 43653, Note_on_c, 0, 91, 0
3, 43737, Note_on_c, 0, 103, 74
3, 43739, Note_on_c, 0, 62, 61
3, 43741, Note_on_c, 0, 52, 37
3, 43744, Note_on_c, 0, 103, 0
3, 43744, Note_on_c, 0, 59, 33
3, 43857, Note_on_c, 0, 62, 0
3, 43862, Note_on_c, 0, 59, 0
3, 43871, Note_on_c, 0, 52, 0
3, 44024, Note_on_c, 0, 64, 44
3, 44026, Note_on_c, 0, 57, 37
3, 44028, Note_on_c, 0, 48, 34
3, 44031, Control_c, 0, 64, 0
3, 44031, Note_on_c, 0, 41, 37
3, 44085, Control_c, 0, 64, 127
3, 44103, Note_on_c, 0, 57, 0
3, 44135, Note_on_c, 0, 64, 0
3, 44139, Note_on_c, 0, 48, 0
3, 44139, Note_on_c, 0, 41, 0
3, 44298, Note_on_c, 0, 60, 36
3, 44298, Note_on_c, 0, 57, 50
3, 44299, Note_on_c, 0, 64, 34
3, 44299, Note_on_c, 0, 53, 29
3, 44387, Note_on_c, 0, 69, 71
3, 44416, Note_on_c, 0, 69, 0
3, 44443, Note_on_c, 0, 72, 24
3, 44451, Note_on_c, 0, 60, 0
3, 44453, Note_on_c, 0, 64, 0
3, 44454, Note_on_c, 0, 57, 0
3, 44456, Note_on_c, 0, 53, 0
3, 44459, Note_on_c, 0, 72, 0
3, 44481, Note_on_c, 0, 77, 70
3, 44506, Note_on_c, 0, 77, 0
3, 44522, Note_on_c, 0, 79, 85
3, 44557, Note_on_c, 0, 79, 0
3, 44575, Note_on_c, 0, 59, 48
3, 44576, Note_on_c, 0, 64, 48
3, 44578, Note_on_c, 0, 53, 42
3, 44582, Note_on_c, 0, 80, 52
3, 44586, Control_c, 0, 64, 0
3, 44658, Note_on_c, 0, 80, 0
3, 44668, Note_on_c, 0, 81, 67
3, 44685, Note_on_c, 0, 81, 0
3, 44721, Note_on_c, 0, 81, 77
3, 44736, Note_on_c, 0, 81, 0
3, 44798, Control_c, 0, 64, 127
3, 44800, Note_on_c, 0, 53, 0
3, 44801, Note_on_c, 0, 81, 92
3, 44818, Note_on_c, 0, 64, 0
3, 44821, Note_on_c, 0, 59, 0
3, 44848, Note_on_c, 0, 81, 0
3, 44854, Control_c, 0, 64, 0
3, 44857, Note_on_c, 0, 59, 50
3, 44858, Note_on_c, 0, 80, 69
3, 44859, Note_on_c, 0, 64, 50
3, 44864, Note_on_c, 0, 53, 36
3, 44921, Note_on_c, 0, 80, 0
3, 44938, Note_on_c, 0, 81, 65
3, 44953, Note_on_c, 0, 81, 0
3, 44959, Control_c, 0, 64, 127
3, 44991, Note_on_c, 0, 64, 0
3, 44993, Note_on_c, 0, 81, 74
3, 44999, Note_on_c, 0, 59, 0
3, 45062, Note_on_c, 0, 53, 0
3, 45069, Note_on_c, 0, 81, 0
3, 45080, Note_on_c, 0, 79, 55
3, 45118, Note_on_c, 0, 79, 0
3, 45129, Control_c, 0, 64, 0
3, 45131, Note_on_c, 0, 81, 55
3, 45132, Note_on_c, 0, 67, 39
3, 45135, Note_on_c, 0, 64, 32
3, 45136, Note_on_c, 0, 62, 39
3, 45175, Note_on_c, 0, 67, 0
3, 45185, Control_c, 0, 64, 127
3, 45219, Note_on_c, 0, 55, 46
3, 45243, Note_on_c, 0, 81, 0
3, 45303, Note_on_c, 0, 64, 0
3, 45314, Note_on_c, 0, 62, 0
3, 45366, Note_on_c, 0, 62, 22
3, 45366, Note_on_c, 0, 67, 50
3, 45367, Note_on_c, 0, 64, 39
3, 45368, Note_on_c, 0, 79, 84
3, 45405, Note_on_c, 0, 67, 0
3, 45432, Note_on_c, 0, 76, 44
3, 45442, Note_on_c, 0, 55, 0
3, 45505, Note_on_c, 0, 76, 0
3, 45520, Note_on_c, 0, 67, 35
3, 45520, Note_on_c, 0, 79, 0
3, 45523, Note_on_c, 0, 55, 39
3, 45529, Note_on_c, 0, 67, 0
3, 45607, Note_on_c, 0, 64, 0
3, 45608, Note_on_c, 0, 62, 0
3, 45615, Note_on_c, 0, 77, 43
3, 45624, Note_on_c, 0, 55, 0
3, 45655, Note_on_c, 0, 77, 0
3, 45665, Note_on_c, 0, 88, 60
3, 45688, Note_on_c, 0, 88, 0
3, 45715, Note_on_c, 0, 89, 61
3, 45715, Note_on_c, 0, 60, 32
3, 45716, Note_on_c, 0, 50, 32
3, 45717, Control_c, 0, 64, 0
3, 45757, Control_c, 0, 64, 127
3, 45779, Note_on_c, 0, 89, 0
3, 45804, Note_on_c, 0, 57, 37
3, 45843, Note_on_c, 0, 60, 0
3, 45856, Note_on_c, 0, 65, 43
3, 45948, Note_on_c, 0, 76, 54
3, 45949, Note_on_c, 0, 60, 35
3, 46057, Note_on_c, 0, 50, 0
3, 46066, Note_on_c, 0, 65, 0
3, 46097, Note_on_c, 0, 50, 36
3, 46136, Note_on_c, 0, 76, 0
3, 46161, Note_on_c, 0, 74, 46
3, 46238, Note_on_c, 0, 50, 0
3, 46240, Note_on_c, 0, 57, 0
3, 46248, Note_on_c, 0, 76, 75
3, 46254, Note_on_c, 0, 60, 0
3, 46257, Note_on_c, 0, 74, 0
3, 46307, Note_on_c, 0, 76, 0
3, 46317, Note_on_c, 0, 52, 36
3, 46319, Note_on_c, 0, 59, 39
3, 46321, Note_on_c, 0, 62, 42
3, 46323, Control_c, 0, 64, 0
3, 46323, Note_on_c, 0, 79, 66
3, 46377, Control_c, 0, 64, 127
3, 46383, Note_on_c, 0, 79, 0
3, 46402, Note_on_c, 0, 81, 74
3, 46448, Note_on_c, 0, 81, 0
3, 46462, Note_on_c, 0, 79, 58
3, 46468, Note_on_c, 0, 62, 0
3, 46481, Note_on_c, 0, 59, 0
3, 46546, Note_on_c, 0, 74, 54
3, 46597, Note_on_c, 0, 74, 0
3, 46599, Note_on_c, 0, 79, 0
3, 46610, Note_on_c, 0, 62, 36
3, 46613, Note_on_c, 0, 71, 47
3, 46616, Note_on_c, 0, 59, 24
3, 46685, Note_on_c, 0, 71, 0
3, 46717, Note_on_c, 0, 67, 20
3, 46759, Note_on_c, 0, 59, 0
3, 46761, Note_on_c, 0, 52, 0
3, 46766, Note_on_c, 0, 67, 0
3, 46767, Note_on_c, 0, 69, 50
3, 46780, Note_on_c, 0, 62, 0
3, 46801, Note_on_c, 0, 69, 0
3, 46819, Note_on_c, 0, 70, 75
3, 46848, Note_on_c, 0, 70, 0
3, 46863, Note_on_c, 0, 72, 72
3, 46910, Note_on_c, 0, 61, 45
3, 46911, Note_on_c, 0, 65, 42
3, 46912, Note_on_c, 0, 55, 43
3, 46920, Control_c, 0, 64, 0
3, 46969, Note_on_c, 0, 73, 48
3, 46985, Note_on_c, 0, 72, 0
3, 46999, Control_c, 0, 64, 127
3, 47015, Note_on_c, 0, 75, 69
3, 47026, Note_on_c, 0, 73, 0
3, 47052, Note_on_c, 0, 75, 0
3, 47062, Note_on_c, 0, 76, 63
3, 47076, Note_on_c, 0, 65, 0
3, 47087, Note_on_c, 0, 61, 0
3, 47136, Note_on_c, 0, 76, 0
3, 47152, Note_on_c, 0, 55, 0
3, 47306, Note_on_c, 0, 81, 103
3, 47307, Note_on_c, 0, 55, 72
3, 47308, Note_on_c, 0, 61, 61
3, 47308, Note_on_c, 0, 66, 71
3, 47311, Control_c, 0, 64, 0
3, 47350, Control_c, 0, 64, 127
3, 47386, Note_on_c, 0, 66, 0
3, 47397, Note_on_c, 0, 55, 0
3, 47415, Note_on_c, 0, 61, 0
3, 47451, Note_on_c, 0, 81, 0
3, 47488, Note_on_c, 0, 84, 31
3, 47501, Note_on_c, 0, 84, 0
3, 47541, Control_c, 0, 64, 0
3, 47541, Note_on_c, 0, 55, 32
3, 47542, Note_on_c, 0, 57, 31
3, 47542, Note_on_c, 0, 62, 37
3, 47543, Note_on_c, 0, 58, 45
3, 47586, Control_c, 0, 64, 127
3, 47626, Note_on_c, 0, 62, 0
3, 47633, Note_on_c, 0, 55, 0
3, 47635, Note_on_c, 0, 57, 0
3, 47636, Note_on_c, 0, 58, 0
3, 47649, Note_on_c, 0, 77, 69
3, 47649, Note_on_c, 0, 74, 75
3, 47650, Note_on_c, 0, 81, 77
3, 47651, Note_on_c, 0, 69, 81
3, 47652, Control_c, 0, 64, 0
3, 47653, Note_on_c, 0, 57, 61
3, 47653, Note_on_c, 0, 62, 67
3, 47654, Note_on_c, 0, 58, 63
3, 47655, Note_on_c, 0, 55, 62
3, 47696, Control_c, 0, 64, 127
3, 47786, Note_on_c, 0, 62, 0
3, 47787, Note_on_c, 0, 57, 0
3, 47790, Note_on_c, 0, 55, 0
3, 47796, Note_on_c, 0, 69, 0
3, 47800, Note_on_c, 0, 58, 0
3, 47805, Note_on_c, 0, 81, 0
3, 47816, Note_on_c, 0, 77, 0
3, 47818, Note_on_c, 0, 74, 0
3, 47864, Control_c, 0, 64, 0
3, 47869, Note_on_c, 0, 79, 53
3, 47871, Note_on_c, 0, 62, 37
3, 47871, Note_on_c, 0, 74, 60
3, 47871, Note_on_c, 0, 57, 38
3, 47871, Note_on_c, 0, 67, 50
3, 47873, Note_on_c, 0, 58, 37
3, 47874, Note_on_c, 0, 55, 38
3, 47887, Note_on_c, 0, 62, 0
3, 47887, Note_on_c, 0, 57, 0
3, 47888, Note_on_c, 0, 74, 0
3, 47889, Note_on_c, 0, 67, 0
3, 47891, Note_on_c, 0, 79, 0
3, 47892, Note_on_c, 0, 55, 0
3, 47893, Note_on_c, 0, 58, 0
3, 47961, Note_on_c, 0, 77, 64
3, 47965, Note_on_c, 0, 65, 59
3, 47965, Note_on_c, 0, 62, 44
3, 47967, Note_on_c, 0, 72, 35
3, 47967, Note_on_c, 0, 58, 35
3, 47969, Note_on_c, 0, 55, 42
3, 47969, Note_on_c, 0, 57, 32
3, 47976, Note_on_c, 0, 72, 0
3, 47980, Control_c, 0, 64, 127
3, 47980, Note_on_c, 0, 77, 0
3, 47984, Note_on_c, 0, 65, 0
3, 48011, Note_on_c, 0, 62, 0
3, 48015, Note_on_c, 0, 57, 0
3, 48019, Note_on_c, 0, 58, 0
3, 48035, Note_on_c, 0, 55, 0
3, 48051, Note_on_c, 0, 74, 59
3, 48055, Note_on_c, 0, 62, 47
3, 48055, Note_on_c, 0, 67, 46
3, 48086, Note_on_c, 0, 74, 0
3, 48087, Note_on_c, 0, 62, 0
3, 48096, Note_on_c, 0, 67, 0
3, 48153, Control_c, 0, 64, 0
3, 48159, Note_on_c, 0, 55, 28
3, 48159, Note_on_c, 0, 45, 35
3, 48159, Note_on_c, 0, 67, 51
3, 48159, Note_on_c, 0, 72, 29
3, 48159, Note_on_c, 0, 60, 40
3, 48160, Note_on_c, 0, 52, 36
3, 48197, Control_c, 0, 64, 127
3, 48222, Note_on_c, 0, 52, 0
3, 48254, Note_on_c, 0, 55, 0
3, 48255, Note_on_c, 0, 67, 0
3, 48259, Note_on_c, 0, 52, 35
3, 48273, Note_on_c, 0, 72, 0
3, 48290, Note_on_c, 0, 60, 0
3, 48374, Note_on_c, 0, 56, 67
3, 48445, Note_on_c, 0, 56, 0
3, 48466, Note_on_c, 0, 64, 55
3, 48467, Note_on_c, 0, 57, 52
3, 48467, Note_on_c, 0, 60, 42
3, 48470, Control_c, 0, 64, 0
3, 48525, Control_c, 0, 64, 127
3, 48528, Note_on_c, 0, 45, 0
3, 48563, Note_on_c, 0, 45, 64
3, 48615, Note_on_c, 0, 57, 0
3, 48620, Note_on_c, 0, 52, 0
3, 48635, Note_on_c, 0, 45, 0
3, 48641, Note_on_c, 0, 64, 0
3, 48653, Note_on_c, 0, 60, 0
3, 48775, Control_c, 0, 64, 0
3, 48777, Note_on_c, 0, 58, 35
3, 48778, Note_on_c, 0, 61, 48
3, 48779, Note_on_c, 0, 46, 33
3, 48780, Note_on_c, 0, 56, 28
3, 48843, Control_c, 0, 64, 127
3, 48867, Note_on_c, 0, 58, 0
3, 48873, Note_on_c, 0, 61, 0
3, 48883, Note_on_c, 0, 46, 0
3, 48886, Note_on_c, 0, 56, 0
3, 48952, Note_on_c, 0, 61, 67
3, 48952, Note_on_c, 0, 73, 30
3, 48987, Note_on_c, 0, 61, 0
3, 48999, Note_on_c, 0, 73, 0
3, 49034, Note_on_c, 0, 73, 56
3, 49035, Note_on_c, 0, 61, 62
3, 49049, Note_on_c, 0, 61, 0
3, 49051, Note_on_c, 0, 73, 0
3, 49093, Note_on_c, 0, 56, 38
3, 49095, Note_on_c, 0, 77, 53
3, 49097, Note_on_c, 0, 65, 80
3, 49097, Note_on_c, 0, 61, 40
3, 49099, Note_on_c, 0, 60, 54
3, 49099, Control_c, 0, 64, 0
3, 49104, Note_on_c, 0, 76, 33
3, 49111, Note_on_c, 0, 76, 0
3, 49133, Control_c, 0, 64, 127
3, 49156, Note_on_c, 0, 65, 0
3, 49158, Note_on_c, 0, 77, 0
3, 49184, Note_on_c, 0, 65, 64
3, 49185, Note_on_c, 0, 77, 55
3, 49200, Note_on_c, 0, 65, 0
3, 49204, Note_on_c, 0, 77, 0
3, 49227, Note_on_c, 0, 60, 0
3, 49229, Note_on_c, 0, 61, 0
3, 49235, Note_on_c, 0, 79, 87
3, 49235, Note_on_c, 0, 67, 99
3, 49244, Note_on_c, 0, 56, 0
3, 49297, Note_on_c, 0, 79, 0
3, 49300, Note_on_c, 0, 67, 0
3, 49325, Note_on_c, 0, 79, 74
3, 49327, Note_on_c, 0, 67, 73
3, 49347, Note_on_c, 0, 67, 0
3, 49351, Note_on_c, 0, 79, 0
3, 49383, Note_on_c, 0, 80, 55
3, 49384, Note_on_c, 0, 68, 39
3, 49384, Note_on_c, 0, 63, 30
3, 49385, Note_on_c, 0, 52, 35
3, 49385, Note_on_c, 0, 58, 36
3, 49387, Control_c, 0, 64, 0
3, 49436, Control_c, 0, 64, 127
3, 49443, Note_on_c, 0, 68, 0
3, 49451, Note_on_c, 0, 80, 0
3, 49476, Note_on_c, 0, 63, 0
3, 49478, Note_on_c, 0, 52, 0
3, 49482, Note_on_c, 0, 58, 0
3, 49485, Note_on_c, 0, 82, 47
3, 49487, Note_on_c, 0, 70, 32
3, 49500, Note_on_c, 0, 70, 0
3, 49501, Note_on_c, 0, 82, 0
3, 49514, Control_c, 0, 64, 0
3, 49619, Control_c, 0, 64, 127
3, 49620, Note_on_c, 0, 36, 51
3, 49629, Note_on_c, 0, 36, 0
3, 49720, Note_on_c, 0, 75, 48
3, 49723, Note_on_c, 0, 64, 51
3, 49723, Note_on_c, 0, 68, 40
3, 49725, Note_on_c, 0, 63, 13
3, 49727, Note_on_c, 0, 72, 26
3, 49754, Note_on_c, 0, 63, 0
3, 49801, Note_on_c, 0, 72, 0
3, 49820, Note_on_c, 0, 75, 0
3, 49823, Note_on_c, 0, 64, 0
3, 49827, Note_on_c, 0, 68, 0
3, 49833, Note_on_c, 0, 73, 36
3, 49839, Note_on_c, 0, 68, 19
3, 49857, Note_on_c, 0, 73, 0
3, 49857, Note_on_c, 0, 68, 0
3, 49932, Note_on_c, 0, 70, 37
3, 49932, Note_on_c, 0, 56, 36
3, 49935, Note_on_c, 0, 63, 33
3, 49935, Note_on_c, 0, 48, 30
3, 49937, Note_on_c, 0, 41, 50
3, 49947, Control_c, 0, 64, 0
3, 50007, Control_c, 0, 64, 127
3, 50053, Note_on_c, 0, 70, 0
3, 50073, Note_on_c, 0, 68, 47
3, 50074, Note_on_c, 0, 53, 46
3, 50083, Note_on_c, 0, 48, 0
3, 50121, Note_on_c, 0, 68, 0
3, 50122, Note_on_c, 0, 56, 0
3, 50130, Note_on_c, 0, 53, 0
3, 50138, Note_on_c, 0, 67, 57
3, 50141, Control_c, 0, 64, 0
3, 50142, Note_on_c, 0, 52, 43
3, 50144, Note_on_c, 0, 56, 21
3, 50208, Note_on_c, 0, 56, 0
3, 50211, Note_on_c, 0, 63, 0
3, 50230, Note_on_c, 0, 67, 0
3, 50231, Note_on_c, 0, 68, 62
3, 50232, Note_on_c, 0, 56, 47
3, 50232, Note_on_c, 0, 53, 56
3, 50234, Note_on_c, 0, 63, 48
3, 50234, Note_on_c, 0, 52, 0
3, 50292, Note_on_c, 0, 41, 0
3, 50348, Control_c, 0, 64, 127
3, 50369, Note_on_c, 0, 53, 0
3, 50373, Note_on_c, 0, 41, 83
3, 50423, Note_on_c, 0, 41, 0
3, 50465, Note_on_c, 0, 56, 0
3, 50490, Note_on_c, 0, 68, 0
3, 50501, Note_on_c, 0, 63, 0
3, 50516, Control_c, 0, 64, 0
3, 50522, Note_on_c, 0, 39, 79
3, 50544, Control_c, 0, 64, 127
3, 50548, Note_on_c, 0, 39, 0
3, 50597, Note_on_c, 0, 61, 87
3, 50598, Note_on_c, 0, 68, 86
3, 50599, Note_on_c, 0, 56, 55
3, 50599, Note_on_c, 0, 54, 47
3, 50600, Note_on_c, 0, 58, 71
3, 50600, Note_on_c, 0, 65, 84
3, 50608, Control_c, 0, 64, 0
3, 50649, Control_c, 0, 64, 127
3, 50827, Note_on_c, 0, 65, 0
3, 50836, Note_on_c, 0, 56, 0
3, 50849, Note_on_c, 0, 61, 0
3, 50850, Note_on_c, 0, 58, 0
3, 50907, Note_on_c, 0, 65, 48
3, 50907, Note_on_c, 0, 61, 25
3, 50909, Note_on_c, 0, 58, 37
3, 50913, Note_on_c, 0, 56, 28
3, 50935, Note_on_c, 0, 56, 0
3, 50935, Note_on_c, 0, 58, 0
3, 50949, Note_on_c, 0, 54, 0
3, 51015, Note_on_c, 0, 61, 0
3, 51058, Note_on_c, 0, 61, 25
3, 51066, Note_on_c, 0, 65, 0
3, 51123, Note_on_c, 0, 61, 0
3, 51159, Note_on_c, 0, 44, 30
3, 51195, Note_on_c, 0, 68, 0
3, 51216, Note_on_c, 0, 44, 0
3, 51219, Note_on_c, 0, 63, 32
3, 51220, Note_on_c, 0, 59, 37
3, 51222, Control_c, 0, 64, 0
3, 51223, Note_on_c, 0, 37, 39
3, 51275, Control_c, 0, 64, 127
3, 51279, Note_on_c, 0, 37, 0
3, 51305, Note_on_c, 0, 59, 0
3, 51315, Note_on_c, 0, 44, 44
3, 51319, Note_on_c, 0, 63, 0
3, 51352, Note_on_c, 0, 44, 0
3, 51373, Note_on_c, 0, 53, 45
3, 51444, Note_on_c, 0, 53, 0
3, 51464, Note_on_c, 0, 56, 39
3, 51546, Note_on_c, 0, 68, 36
3, 51548, Note_on_c, 0, 65, 46
3, 51555, Note_on_c, 0, 59, 32
3, 51576, Note_on_c, 0, 65, 0
3, 51586, Note_on_c, 0, 68, 0
3, 51643, Note_on_c, 0, 63, 36
3, 51645, Note_on_c, 0, 71, 46
3, 51671, Note_on_c, 0, 63, 0
3, 51682, Note_on_c, 0, 71, 0
3, 51744, Note_on_c, 0, 82, 53
3, 51745, Note_on_c, 0, 63, 34
3, 51746, Note_on_c, 0, 75, 46
3, 51747, Control_c, 0, 64, 0
3, 51748, Note_on_c, 0, 71, 43
3, 51781, Control_c, 0, 64, 127
3, 51813, Note_on_c, 0, 59, 0
3, 51864, Note_on_c, 0, 82, 0
3, 51879, Note_on_c, 0, 80, 50
3, 51881, Note_on_c, 0, 59, 40
3, 51929, Note_on_c, 0, 63, 0
3, 51932, Note_on_c, 0, 80, 0
3, 51933, Note_on_c, 0, 75, 0
3, 51969, Note_on_c, 0, 71, 0
3, 51975, Note_on_c, 0, 56, 0
3, 52030, Note_on_c, 0, 56, 25
3, 52035, Note_on_c, 0, 59, 0
3, 52092, Note_on_c, 0, 68, 39
3, 52095, Note_on_c, 0, 65, 41
3, 52096, Note_on_c, 0, 59, 30
3, 52137, Note_on_c, 0, 56, 0
3, 52248, Note_on_c, 0, 65, 0
3, 52286, Note_on_c, 0, 68, 0
3, 52312, Note_on_c, 0, 59, 0
3, 52345, Note_on_c, 0, 66, 73
3, 52403, Note_on_c, 0, 66, 0
3, 52414, Note_on_c, 0, 48, 39
3, 52415, Note_on_c, 0, 67, 63
3, 52418, Note_on_c, 0, 58, 29
3, 52427, Control_c, 0, 64, 0
3, 52488, Control_c, 0, 64, 127
3, 52543, Note_on_c, 0, 55, 31
3, 52599, Note_on_c, 0, 58, 0
3, 52654, Note_on_c, 0, 55, 0
3, 52725, Note_on_c, 0, 58, 34
3, 52729, Note_on_c, 0, 55, 46
3, 52763, Note_on_c, 0, 48, 0
3, 52765, Note_on_c, 0, 58, 0
3, 52767, Note_on_c, 0, 55, 0
3, 52879, Note_on_c, 0, 63, 58
3, 52883, Note_on_c, 0, 67, 0
3, 52905, Note_on_c, 0, 63, 0
3, 52941, Note_on_c, 0, 67, 76
3, 52987, Note_on_c, 0, 68, 45
3, 52999, Note_on_c, 0, 67, 0
3, 53014, Note_on_c, 0, 69, 73
3, 53020, Note_on_c, 0, 68, 0
3, 53033, Note_on_c, 0, 69, 0
3, 53042, Note_on_c, 0, 43, 53
3, 53043, Note_on_c, 0, 71, 85
3, 53047, Control_c, 0, 64, 0
3, 53091, Control_c, 0, 64, 127
3, 53111, Note_on_c, 0, 43, 0
3, 53131, Note_on_c, 0, 71, 0
3, 53145, Note_on_c, 0, 71, 56
3, 53248, Note_on_c, 0, 71, 0
3, 53273, Note_on_c, 0, 71, 62
3, 53338, Note_on_c, 0, 71, 0
3, 53353, Note_on_c, 0, 59, 36
3, 53355, Note_on_c, 0, 71, 60
3, 53355, Note_on_c, 0, 64, 31
3, 53355, Note_on_c, 0, 53, 30
3, 53436, Note_on_c, 0, 71, 0
3, 53456, Note_on_c, 0, 71, 64
3, 53490, Note_on_c, 0, 64, 0
3, 53499, Note_on_c, 0, 71, 0
3, 53501, Note_on_c, 0, 59, 0
3, 53527, Note_on_c, 0, 53, 0
3, 53543, Note_on_c, 0, 71, 61
3, 53568, Note_on_c, 0, 71, 0
3, 53587, Note_on_c, 0, 71, 58
3, 53629, Note_on_c, 0, 71, 0
3, 53651, Note_on_c, 0, 67, 54
3, 53651, Note_on_c, 0, 60, 38
3, 53653, Note_on_c, 0, 63, 30
3, 53653, Note_on_c, 0, 55, 34
3, 53655, Note_on_c, 0, 48, 32
3, 53656, Control_c, 0, 64, 0
3, 53700, Control_c, 0, 64, 127
3, 53731, Note_on_c, 0, 67, 0
3, 53739, Note_on_c, 0, 60, 0
3, 53743, Note_on_c, 0, 55, 0
3, 53743, Note_on_c, 0, 63, 0
3, 53749, Note_on_c, 0, 67, 64
3, 53763, Note_on_c, 0, 48, 0
3, 53790, Note_on_c, 0, 67, 0
3, 53831, Note_on_c, 0, 67, 59
3, 53853, Note_on_c, 0, 67, 0
3, 53881, Note_on_c, 0, 67, 70
3, 53924, Note_on_c, 0, 67, 0
3, 53943, Note_on_c, 0, 67, 61
3, 53944, Note_on_c, 0, 47, 47
3, 53944, Note_on_c, 0, 62, 74
3, 53945, Note_on_c, 0, 57, 71
3, 53952, Control_c, 0, 64, 0
3, 54012, Note_on_c, 0, 67, 0
3, 54013, Control_c, 0, 64, 127
3, 54045, Note_on_c, 0, 67, 78
3, 54102, Note_on_c, 0, 67, 0
3, 54127, Note_on_c, 0, 47, 0
3, 54136, Note_on_c, 0, 67, 70
3, 54152, Note_on_c, 0, 62, 0
3, 54163, Note_on_c, 0, 67, 0
3, 54181, Note_on_c, 0, 57, 0
3, 54189, Note_on_c, 0, 67, 74
3, 54221, Note_on_c, 0, 67, 0
3, 54247, Note_on_c, 0, 67, 67
3, 54250, Note_on_c, 0, 61, 69
3, 54251, Note_on_c, 0, 56, 49
3, 54251, Note_on_c, 0, 34, 45
3, 54252, Note_on_c, 0, 46, 33
3, 54255, Control_c, 0, 64, 0
3, 54319, Note_on_c, 0, 67, 0
3, 54321, Control_c, 0, 64, 127
3, 54357, Note_on_c, 0, 67, 75
3, 54393, Note_on_c, 0, 67, 0
3, 54445, Note_on_c, 0, 67, 56
3, 54460, Note_on_c, 0, 46, 0
3, 54467, Note_on_c, 0, 34, 0
3, 54468, Note_on_c, 0, 67, 0
3, 54477, Note_on_c, 0, 56, 0
3, 54481, Note_on_c, 0, 61, 0
3, 54491, Note_on_c, 0, 67, 56
3, 54515, Note_on_c, 0, 67, 0
3, 54551, Note_on_c, 0, 67, 60
3, 54556, Note_on_c, 0, 55, 34
3, 54556, Note_on_c, 0, 61, 38
3, 54559, Note_on_c, 0, 59, 57
3, 54559, Note_on_c, 0, 45, 27
3, 54560, Note_on_c, 0, 33, 38
3, 54562, Control_c, 0, 64, 0
3, 54638, Note_on_c, 0, 67, 0
3, 54654, Control_c, 0, 64, 127
3, 54663, Note_on_c, 0, 67, 58
3, 54740, Note_on_c, 0, 67, 0
3, 54741, Note_on_c, 0, 33, 0
3, 54744, Note_on_c, 0, 45, 0
3, 54761, Note_on_c, 0, 67, 54
3, 54764, Note_on_c, 0, 55, 0
3, 54778, Note_on_c, 0, 59, 0
3, 54784, Note_on_c, 0, 61, 0
3, 54790, Note_on_c, 0, 67, 0
3, 54809, Note_on_c, 0, 67, 53
3, 54851, Note_on_c, 0, 67, 0
3, 54867, Note_on_c, 0, 63, 34
3, 54869, Note_on_c, 0, 55, 34
3, 54871, Note_on_c, 0, 32, 34
3, 54871, Note_on_c, 0, 60, 47
3, 54872, Note_on_c, 0, 44, 28
3, 54873, Control_c, 0, 64, 0
3, 54915, Control_c, 0, 64, 127
3, 54922, Note_on_c, 0, 55, 0
3, 54929, Note_on_c, 0, 60, 0
3, 54940, Note_on_c, 0, 63, 0
3, 54963, Note_on_c, 0, 32, 0
3, 54976, Note_on_c, 0, 44, 0
3, 54977, Note_on_c, 0, 75, 74
3, 55037, Note_on_c, 0, 75, 0
3, 55046, Note_on_c, 0, 75, 84
3, 55108, Note_on_c, 0, 75, 0
3, 55135, Note_on_c, 0, 75, 87
3, 55183, Note_on_c, 0, 75, 0
3, 55193, Note_on_c, 0, 63, 39
3, 55195, Note_on_c, 0, 60, 43
3, 55196, Note_on_c, 0, 56, 42
3, 55196, Note_on_c, 0, 75, 81
3, 55283, Note_on_c, 0, 75, 0
3, 55287, Note_on_c, 0, 72, 45
3, 55309, Note_on_c, 0, 60, 0
3, 55335, Note_on_c, 0, 63, 0
3, 55341, Note_on_c, 0, 56, 0
3, 55384, Note_on_c, 0, 72, 0
3, 55395, Note_on_c, 0, 75, 74
3, 55440, Note_on_c, 0, 76, 47
3, 55440, Note_on_c, 0, 75, 0
3, 55465, Note_on_c, 0, 77, 59
3, 55467, Note_on_c, 0, 76, 0
3, 55489, Note_on_c, 0, 78, 74
3, 55496, Note_on_c, 0, 77, 0
3, 55508, Note_on_c, 0, 55, 66
3, 55508, Note_on_c, 0, 61, 51
3, 55509, Note_on_c, 0, 78, 0
3, 55510, Note_on_c, 0, 66, 39
3, 55513, Note_on_c, 0, 78, 47
3, 55514, Control_c, 0, 64, 0
3, 55519, Note_on_c, 0, 79, 78
3, 55523, Note_on_c, 0, 78, 0
3, 55572, Control_c, 0, 64, 127
3, 55608, Note_on_c, 0, 79, 0
3, 55620, Note_on_c, 0, 79, 69
3, 55727, Note_on_c, 0, 66, 0
3, 55733, Note_on_c, 0, 61, 0
3, 55765, Note_on_c, 0, 79, 0
3, 55827, Note_on_c, 0, 79, 36
3, 55828, Note_on_c, 0, 61, 39
3, 55831, Note_on_c, 0, 66, 36
3, 55876, Note_on_c, 0, 66, 0
3, 55927, Note_on_c, 0, 79, 0
3, 55956, Note_on_c, 0, 61, 0
3, 55971, Note_on_c, 0, 55, 0
3, 56156, Note_on_c, 0, 53, 33
3, 56156, Note_on_c, 0, 63, 37
3, 56160, Control_c, 0, 64, 0
3, 56160, Note_on_c, 0, 58, 35
3, 56160, Note_on_c, 0, 44, 32
3, 56161, Note_on_c, 0, 60, 32
3, 56191, Note_on_c, 0, 53, 0
3, 56195, Note_on_c, 0, 60, 0
3, 56200, Control_c, 0, 64, 127
3, 56200, Note_on_c, 0, 58, 0
3, 56209, Note_on_c, 0, 63, 0
3, 56259, Note_on_c, 0, 75, 67
3, 56260, Note_on_c, 0, 51, 45
3, 56271, Note_on_c, 0, 44, 0
3, 56281, Note_on_c, 0, 51, 0
3, 56285, Note_on_c, 0, 75, 0
3, 56387, Note_on_c, 0, 75, 80
3, 56388, Note_on_c, 0, 59, 65
3, 56390, Note_on_c, 0, 70, 75
3, 56406, Note_on_c, 0, 65, 12
3, 56451, Note_on_c, 0, 65, 0
3, 56452, Note_on_c, 0, 75, 0
3, 56458, Note_on_c, 0, 70, 0
3, 56479, Note_on_c, 0, 75, 65
3, 56480, Note_on_c, 0, 65, 60
3, 56483, Control_c, 0, 64, 0
3, 56483, Note_on_c, 0, 70, 64
3, 56485, Note_on_c, 0, 59, 0
3, 56487, Note_on_c, 0, 60, 54
3, 56519, Control_c, 0, 64, 127
3, 56571, Note_on_c, 0, 70, 0
3, 56575, Note_on_c, 0, 75, 0
3, 56579, Note_on_c, 0, 60, 0
3, 56591, Note_on_c, 0, 65, 0
3, 56600, Note_on_c, 0, 55, 54
3, 56681, Note_on_c, 0, 55, 0
3, 56815, Note_on_c, 0, 63, 37
3, 56816, Note_on_c, 0, 55, 41
3, 56818, Note_on_c, 0, 60, 42
3, 56819, Note_on_c, 0, 51, 40
3, 56819, Note_on_c, 0, 44, 35
3, 56820, Note_on_c, 0, 58, 33
3, 56821, Control_c, 0, 64, 0
3, 56873, Control_c, 0, 64, 127
3, 56906, Note_on_c, 0, 55, 0
3, 56932, Note_on_c, 0, 55, 58
3, 56965, Note_on_c, 0, 55, 0
3, 56979, Note_on_c, 0, 60, 0
3, 56987, Note_on_c, 0, 63, 0
3, 57007, Note_on_c, 0, 58, 0
3, 57029, Note_on_c, 0, 51, 0
3, 57148, Note_on_c, 0, 51, 62
3, 57167, Note_on_c, 0, 44, 0
3, 57175, Note_on_c, 0, 51, 0
3, 57403, Note_on_c, 0, 75, 77
3, 57404, Note_on_c, 0, 70, 82
3, 57405, Note_on_c, 0, 51, 60
3, 57406, Note_on_c, 0, 67, 75
3, 57412, Note_on_c, 0, 61, 29
3, 57448, Note_on_c, 0, 67, 0
3, 57452, Note_on_c, 0, 75, 0
3, 57460, Note_on_c, 0, 61, 0
3, 57472, Note_on_c, 0, 70, 0
3, 57475, Note_on_c, 0, 51, 0
3, 57493, Note_on_c, 0, 76, 82
3, 57495, Note_on_c, 0, 50, 44
3, 57495, Control_c, 0, 64, 0
3, 57495, Note_on_c, 0, 65, 76
3, 57495, Note_on_c, 0, 69, 79
3, 57497, Note_on_c, 0, 60, 59
3, 57559, Control_c, 0, 64, 127
3, 57594, Note_on_c, 0, 76, 0
3, 57595, Note_on_c, 0, 74, 71
3, 57601, Note_on_c, 0, 57, 47
3, 57615, Note_on_c, 0, 60, 0
3, 57732, Note_on_c, 0, 57, 0
3, 57746, Note_on_c, 0, 69, 0
3, 57753, Note_on_c, 0, 65, 0
3, 57816, Note_on_c, 0, 65, 33
3, 57817, Note_on_c, 0, 69, 40
3, 57818, Note_on_c, 0, 74, 0
3, 57820, Note_on_c, 0, 60, 18
3, 57821, Note_on_c, 0, 57, 24
3, 57907, Note_on_c, 0, 69, 0
3, 57915, Note_on_c, 0, 72, 49
3, 57963, Note_on_c, 0, 60, 0
3, 57967, Note_on_c, 0, 57, 0
3, 57979, Note_on_c, 0, 50, 0
3, 57988, Note_on_c, 0, 65, 0
3, 58012, Note_on_c, 0, 72, 0
3, 58021, Note_on_c, 0, 69, 45
3, 58045, Note_on_c, 0, 69, 0
3, 58128, Control_c, 0, 64, 0
3, 58131, Note_on_c, 0, 62, 44
3, 58131, Note_on_c, 0, 40, 32
3, 58132, Note_on_c, 0, 67, 37
3, 58133, Note_on_c, 0, 55, 33
3, 58135, Note_on_c, 0, 47, 31
3, 58158, Control_c, 0, 64, 127
3, 58164, Note_on_c, 0, 55, 0
3, 58175, Note_on_c, 0, 40, 0
3, 58175, Note_on_c, 0, 62, 0
3, 58178, Note_on_c, 0, 47, 0
3, 58181, Note_on_c, 0, 67, 0
3, 58295, Note_on_c, 0, 52, 31
3, 58295, Note_on_c, 0, 79, 49
3, 58296, Note_on_c, 0, 74, 51
3, 58298, Note_on_c, 0, 67, 46
3, 58300, Note_on_c, 0, 62, 32
3, 58300, Note_on_c, 0, 59, 38
3, 58301, Note_on_c, 0, 55, 37
3, 58323, Note_on_c, 0, 67, 0
3, 58325, Note_on_c, 0, 59, 0
3, 58325, Note_on_c, 0, 55, 0
3, 58328, Note_on_c, 0, 52, 0
3, 58333, Note_on_c, 0, 62, 0
3, 58340, Note_on_c, 0, 74, 0
3, 58349, Note_on_c, 0, 79, 0
3, 58462, Note_on_c, 0, 91, 37
3, 58465, Note_on_c, 0, 86, 62
3, 58466, Note_on_c, 0, 62, 30
3, 58466, Note_on_c, 0, 79, 35
3, 58467, Note_on_c, 0, 52, 27
3, 58468, Note_on_c, 0, 59, 33
3, 58471, Note_on_c, 0, 55, 36
3, 58482, Note_on_c, 0, 55, 0
3, 58487, Note_on_c, 0, 79, 0
3, 58495, Note_on_c, 0, 59, 0
3, 58497, Note_on_c, 0, 86, 0
3, 58497, Note_on_c, 0, 52, 0
3, 58497, Note_on_c, 0, 62, 0
3, 58511, Note_on_c, 0, 91, 0
3, 58648, Note_on_c, 0, 91, 34
3, 58649, Note_on_c, 0, 98, 48
3, 58650, Note_on_c, 0, 103, 40
3, 58651, Note_on_c, 0, 62, 32
3, 58654, Note_on_c, 0, 59, 35
3, 58655, Note_on_c, 0, 52, 25
3, 58657, Note_on_c, 0, 55, 38
3, 58683, Note_on_c, 0, 103, 0
3, 58685, Note_on_c, 0, 98, 0
3, 58685, Note_on_c, 0, 59, 0
3, 58689, Note_on_c, 0, 55, 0
3, 58689, Note_on_c, 0, 62, 0
3, 58701, Note_on_c, 0, 91, 0
3, 58703, Note_on_c, 0, 52, 0
3, 58876, Note_on_c, 0, 55, 46
3, 58879, Control_c, 0, 64, 0
3, 58879, Note_on_c, 0, 56, 43
3, 58879, Note_on_c, 0, 60, 58
3, 58879, Note_on_c, 0, 51, 35
3, 58881, Note_on_c, 0, 48, 36
3, 58881, Note_on_c, 0, 41, 46
3, 58931, Control_c, 0, 64, 127
3, 58956, Note_on_c, 0, 55, 0
3, 58964, Note_on_c, 0, 41, 0
3, 58968, Note_on_c, 0, 48, 0
3, 58968, Note_on_c, 0, 56, 0
3, 58971, Note_on_c, 0, 60, 0
3, 58984, Note_on_c, 0, 51, 0
3, 59096, Note_on_c, 0, 63, 32
3, 59101, Note_on_c, 0, 68, 37
3, 59101, Note_on_c, 0, 72, 29
3, 59102, Note_on_c, 0, 67, 31
3, 59103, Note_on_c, 0, 53, 30
3, 59105, Note_on_c, 0, 60, 34
3, 59106, Note_on_c, 0, 56, 33
3, 59264, Note_on_c, 0, 63, 0
3, 59280, Note_on_c, 0, 53, 0
3, 59281, Note_on_c, 0, 60, 0
3, 59290, Note_on_c, 0, 56, 0
3, 59317, Note_on_c, 0, 72, 0
3, 59320, Note_on_c, 0, 67, 0
3, 59320, Note_on_c, 0, 68, 0
3, 59520, Control_c, 0, 64, 127
3, 59520, Control_c, 0, 64, 0
3, 59579, Note_on_c, 0, 77, 80
3, 59583, Note_on_c, 0, 41, 71
3, 59596, Control_c, 0, 64, 0
3, 59620, Control_c, 0, 64, 127
3, 59710, Note_on_c, 0, 44, 69
3, 59710, Note_on_c, 0, 80, 72
3, 59712, Note_on_c, 0, 77, 0
3, 59715, Note_on_c, 0, 41, 0
3, 59720, Control_c, 0, 64, 0
3, 59767, Control_c, 0, 64, 127
3, 59884, Note_on_c, 0, 48, 59
3, 59885, Note_on_c, 0, 84, 71
3, 59887, Note_on_c, 0, 44, 0
3, 59897, Note_on_c, 0, 80, 0
3, 59899, Control_c, 0, 64, 0
3, 59949, Control_c, 0, 64, 127
3, 60045, Note_on_c, 0, 48, 0
3, 60139, Note_on_c, 0, 84, 0
3, 60225, Control_c, 0, 64, 0
3, 60226, Note_on_c, 0, 87, 70
3, 60228, Note_on_c, 0, 31, 47
3, 60550, Note_on_c, 0, 63, 25
3, 60551, Note_on_c, 0, 59, 52
3, 60554, Note_on_c, 0, 58, 49
3, 60555, Note_on_c, 0, 53, 36
3, 60757, Note_on_c, 0, 87, 0
3, 60823, Note_on_c, 0, 89, 48
3, 60834, Note_on_c, 0, 77, 43
3, 61274, Note_on_c, 0, 86, 49
3, 61308, Note_on_c, 0, 31, 0
3, 61367, Note_on_c, 0, 89, 0
3, 61378, Note_on_c, 0, 63, 0
3, 61511, Note_on_c, 0, 59, 0
3, 61512, Note_on_c, 0, 58, 0
3, 61512, Note_on_c, 0, 86, 0
3, 61512, Note_on_c, 0, 77, 0
3, 61512, Note_on_c, 0, 53, 0
3, 61522, Note_on_c, 0, 41, 39
3, 61539, Note_on_c, 0, 64, 41
3, 61545, Note_on_c, 0, 48, 38
3, 61554, Note_on_c, 0, 69, 53
3, 61560, Note_on_c, 0, 57, 58
3, 61570, Note_on_c, 0, 76, 60
3, 61604, Control_c, 0, 64, 127
3, 61679, Note_on_c, 0, 41, 0
3, 61682, Note_on_c, 0, 57, 0
3, 61687, Note_on_c, 0, 48, 0
3, 61701, Note_on_c, 0, 76, 0
3, 61714, Note_on_c, 0, 69, 0
3, 61716, Note_on_c, 0, 64, 0
3, 61815, Control_c, 0, 64, 0
3, 61816, Note_on_c, 0, 39, 47
3, 61817, Note_on_c, 0, 74, 60
3, 61818, Note_on_c, 0, 67, 59
3, 61820, Note_on_c, 0, 62, 51
3, 61820, Note_on_c, 0, 46, 35
3, 61867, Control_c, 0, 64, 127
3, 61994, Note_on_c, 0, 46, 0
3, 62006, Note_on_c, 0, 74, 0
3, 62007, Note_on_c, 0, 67, 0
3, 62026, Note_on_c, 0, 39, 0
3, 62040, Note_on_c, 0, 62, 0
3, 62101, Control_c, 0, 64, 0
3, 62105, Note_on_c, 0, 72, 30
3, 62107, Note_on_c, 0, 65, 44
3, 62107, Note_on_c, 0, 60, 34
3, 62108, Note_on_c, 0, 44, 40
3, 62108, Note_on_c, 0, 37, 42
3, 62171, Control_c, 0, 64, 127
3, 62280, Note_on_c, 0, 72, 0
3, 62300, Note_on_c, 0, 65, 0
3, 62308, Note_on_c, 0, 44, 0
3, 62318, Note_on_c, 0, 60, 0
3, 62387, Note_on_c, 0, 37, 0
3, 62476, Note_on_c, 0, 69, 81
3, 62476, Note_on_c, 0, 62, 82
3, 62477, Note_on_c, 0, 34, 53
3, 62478, Note_on_c, 0, 57, 76
3, 62478, Control_c, 0, 64, 0
3, 62480, Note_on_c, 0, 41, 45
3, 62520, Control_c, 0, 64, 127
3, 62564, Note_on_c, 0, 41, 0
3, 62565, Note_on_c, 0, 69, 0
3, 62581, Note_on_c, 0, 62, 0
3, 62587, Note_on_c, 0, 57, 0
3, 62591, Note_on_c, 0, 34, 0
3, 62648, Control_c, 0, 64, 0
3, 62653, Note_on_c, 0, 67, 66
3, 62653, Note_on_c, 0, 60, 71
3, 62656, Note_on_c, 0, 55, 63
3, 62656, Note_on_c, 0, 32, 59
3, 62687, Control_c, 0, 64, 127
3, 62690, Note_on_c, 0, 55, 0
3, 62704, Note_on_c, 0, 32, 0
3, 62705, Note_on_c, 0, 60, 0
3, 62719, Note_on_c, 0, 67, 0
3, 62827, Note_on_c, 0, 77, 62
3, 62839, Note_on_c, 0, 60, 29
3, 62904, Note_on_c, 0, 75, 19
3, 62931, Note_on_c, 0, 77, 0
3, 62963, Note_on_c, 0, 65, 53
3, 62968, Note_on_c, 0, 72, 28
3, 62970, Note_on_c, 0, 63, 31
3, 63216, Note_on_c, 0, 63, 0
3, 63239, Note_on_c, 0, 65, 0
3, 63245, Note_on_c, 0, 72, 0
3, 63260, Note_on_c, 0, 75, 0
3, 63312, Note_on_c, 0, 60, 0
3, 63386, Note_on_c, 0, 77, 51
3, 63458, Note_on_c, 0, 77, 0
3, 63478, Note_on_c, 0, 79, 58
3, 63479, Note_on_c, 0, 51, 35
3, 63489, Control_c, 0, 64, 0
3, 63535, Control_c, 0, 64, 127
3, 63575, Note_on_c, 0, 58, 32
3, 63679, Note_on_c, 0, 70, 37
3, 63680, Note_on_c, 0, 67, 41
3, 63682, Note_on_c, 0, 62, 36
3, 63683, Note_on_c, 0, 79, 0
3, 63979, Note_on_c, 0, 70, 0
3, 64068, Note_on_c, 0, 67, 0
3, 64096, Note_on_c, 0, 77, 54
3, 64118, Note_on_c, 0, 62, 0
3, 64126, Note_on_c, 0, 58, 0
3, 64153, Note_on_c, 0, 51, 0
3, 64179, Note_on_c, 0, 77, 0
3, 64209, Note_on_c, 0, 65, 45
3, 64210, Note_on_c, 0, 79, 39
3, 64210, Note_on_c, 0, 72, 29
3, 64214, Note_on_c, 0, 50, 30
3, 64216, Note_on_c, 0, 60, 31
3, 64218, Control_c, 0, 64, 0
3, 64274, Control_c, 0, 64, 127
3, 64320, Note_on_c, 0, 56, 25
3, 64323, Note_on_c, 0, 60, 0
3, 64326, Note_on_c, 0, 65, 0
3, 64343, Note_on_c, 0, 79, 0
3, 64430, Note_on_c, 0, 72, 0
3, 64437, Note_on_c, 0, 65, 37
3, 64443, Note_on_c, 0, 60, 22
3, 64569, Note_on_c, 0, 60, 0
3, 64586, Note_on_c, 0, 56, 0
3, 64593, Note_on_c, 0, 65, 0
3, 64595, Note_on_c, 0, 50, 0
3, 64595, Note_on_c, 0, 79, 37
3, 64600, Note_on_c, 0, 77, 32
3, 64650, Note_on_c, 0, 79, 0
3, 64659, Note_on_c, 0, 77, 0
3, 64761, Control_c, 0, 64, 0
3, 64763, Note_on_c, 0, 79, 40
3, 64765, Note_on_c, 0, 71, 32
3, 64768, Note_on_c, 0, 43, 34
3, 64769, Note_on_c, 0, 67, 25
3, 64796, Control_c, 0, 64, 127
3, 64812, Note_on_c, 0, 43, 0
3, 64889, Note_on_c, 0, 59, 36
3, 64911, Note_on_c, 0, 79, 0
3, 64944, Note_on_c, 0, 67, 0
3, 65029, Note_on_c, 0, 68, 27
3, 65033, Note_on_c, 0, 63, 21
3, 65067, Note_on_c, 0, 71, 0
3, 65226, Note_on_c, 0, 68, 0
3, 65272, Note_on_c, 0, 63, 0
3, 65285, Note_on_c, 0, 67, 48
3, 65332, Note_on_c, 0, 59, 0
3, 65446, Note_on_c, 0, 67, 0
3, 65687, Note_on_c, 0, 48, 35
3, 65687, Note_on_c, 0, 74, 60
3, 65703, Control_c, 0, 64, 0
3, 65752, Control_c, 0, 64, 127
3, 65799, Note_on_c, 0, 55, 31
3, 65905, Note_on_c, 0, 55, 0
3, 65909, Note_on_c, 0, 48, 0
3, 65917, Note_on_c, 0, 59, 28
3, 66016, Note_on_c, 0, 59, 0
3, 66019, Note_on_c, 0, 62, 44
3, 66094, Note_on_c, 0, 62, 0
3, 66115, Note_on_c, 0, 63, 20
3, 66160, Note_on_c, 0, 74, 0
3, 66178, Note_on_c, 0, 67, 17
3, 66215, Note_on_c, 0, 71, 58
3, 66256, Note_on_c, 0, 71, 0
3, 66262, Note_on_c, 0, 74, 61
3, 66303, Note_on_c, 0, 74, 0
3, 66312, Note_on_c, 0, 75, 58
3, 66331, Note_on_c, 0, 75, 0
3, 66356, Note_on_c, 0, 79, 46
3, 66380, Note_on_c, 0, 79, 0
3, 66407, Note_on_c, 0, 86, 50
3, 66443, Note_on_c, 0, 86, 0
3, 66451, Note_on_c, 0, 83, 50
3, 66475, Note_on_c, 0, 83, 0
3, 66492, Note_on_c, 0, 84, 52
3, 66509, Note_on_c, 0, 84, 0
3, 66523, Note_on_c, 0, 86, 73
3, 66539, Note_on_c, 0, 86, 0
3, 66557, Note_on_c, 0, 87, 56
3, 66569, Note_on_c, 0, 87, 0
3, 66593, Note_on_c, 0, 91, 62
3, 66610, Note_on_c, 0, 91, 0
3, 66630, Note_on_c, 0, 95, 66
3, 66652, Note_on_c, 0, 95, 0
3, 66663, Note_on_c, 0, 98, 67
3, 66699, Note_on_c, 0, 98, 0
3, 66702, Note_on_c, 0, 95, 50
3, 66726, Note_on_c, 0, 95, 0
3, 66735, Note_on_c, 0, 96, 48
3, 66767, Note_on_c, 0, 96, 0
3, 66775, Note_on_c, 0, 98, 48
3, 66803, Note_on_c, 0, 98, 0
3, 66815, Note_on_c, 0, 99, 42
3, 66842, Note_on_c, 0, 99, 0
3, 66861, Note_on_c, 0, 103, 44
3, 66903, Note_on_c, 0, 103, 0
3, 66915, Note_on_c, 0, 107, 45
3, 66968, Note_on_c, 0, 107, 0
3, 66998, Note_on_c, 0, 107, 48
3, 67068, Note_on_c, 0, 107, 0
3, 67076, Note_on_c, 0, 67, 0
3, 67080, Note_on_c, 0, 63, 0
3, 67093, Note_on_c, 0, 107, 42
3, 67143, Note_on_c, 0, 107, 0
3, 67199, Note_on_c, 0, 107, 41
3, 67253, Note_on_c, 0, 107, 0
3, 67319, Note_on_c, 0, 24, 35
3, 67322, Note_on_c, 0, 107, 44
3, 67400, Note_on_c, 0, 107, 0
3, 67918, Note_on_c, 0, 24, 0
3, 68575, Control_c, 0, 64, 0
3, 68575, End_track
0, 0, End_of_file
