0, 0, Header, 1, 9, 960
1, 0, Start_track
1, 0, Title_t, "Autumn Leaves"
1, 0, Text_t, "Doug McKenzie\012"
1, 0, Text_t, "dougmck@tpg.com.au\012"
1, 0, Time_signature, 4, 2, 24, 8
1, 0, Key_signature, -3, "major"
1, 0, Tempo, 324324
1, 2040, Marker_t, "First chorus - bass in '2' - piano leaves lots of space"
1, 13456, Marker_t, "No sustain pedal used"
1, 23040, Marker_t, "LH jabs chords in more or less regular pattern just before '1' and just before '3'"
1, 58547, Marker_t, "'Surround' tones on A (the 9th) then finally on G (root) then D (5th)"
1, 84518, Marker_t, "On F7 - play from F chromatically up to tritone (B) back a m3rd (Ab) up a tritone (D) etc"
1, 97680, Marker_t, "Many melodic phrases are chord tones  'enclosed' with upper and lower neighbors"
1, 148762, Marker_t, "This is just an arbitary pattern - can be imposed on any chord -as long as it resolves smoothly "
1, 166888, Marker_t, "Typical Bill Evans-ish arpeggio like pattern on BbMaj 7 to EbMaj7"
1, 176640, Marker_t, "Simple melodic phrase can be enhanced by repeating each note in a regular rhythm"
1, 209672, Marker_t, "4 note pattern repeats moving down (more or less) in scale steps "
1, 234240, Marker_t, "Basic triad chord tones played rhythmically"
1, 239741, Marker_t, "Same melodic/rhythmic idea repeated diatonically  on another chord"
1, 245842, Marker_t, "Same rhythm begins the next chorus, but seamlessly moves into other melodic ideas"
1, 249600, Marker_t, "Rhythm section maves away from '2' feel - bass walks more regularly"
1, 253080, Marker_t, "The note C is used as a 'pivot' tone repeated  betwwen other notes"
1, 284160, Marker_t, "the F7 is played as a #9 chord"
1, 288000, Marker_t, "Same for Bbmaj7 - is played as Bb7#9"
1, 315897, Marker_t, "On D7, the notes of an E triad are used melodically"
1, 327328, Marker_t, "Diatonic thirds up the keyboard - volume increasing"
1, 364808, Marker_t, "Black notes under some chord tones can be used to slide into the chord"
1, 370160, Marker_t, "Next chorus back to '2' feel"
1, 424288, Marker_t, "Chord tones enclosed by neighbors weave around for this longer phrase"
1, 453120, Marker_t, "On this F7, a brief switch to E Major pentatonic adds a bit of spice!"
1, 465284, Marker_t, "A simple 3 note phrase is repeated with increasing intensity"
1, 486616, Marker_t, "More of the chords 'dirtied up' a bit with black note lower neighbors"
1, 505567, Marker_t, "Another brief move into unrelated pentatonic (E) then quickly resolved back in key"
1, 516376, Marker_t, "Another more or less arbitary pattern unrelated to the underlying harmony"
1, 533931, Marker_t, "2 notes (more or less chord tones) play in regular rhythmic pattern"
1, 558416, Marker_t, "Another chromatic type phrase is shifted down in scale steps"
1, 616225, Marker_t, "Octave tremolo is effective to sustain a note and give it 'character'"
1, 625964, Marker_t, "Some wrong notes (an E triad) add spice"
1, 633600, Marker_t, "This phrase's integrity comes just from its strong angular shape ..."
1, 641387, Marker_t, "..... and its final resolution strongly in key"
1, 645120, Marker_t, "Small clusters of notes and the note below are played in a strong rhythmic pattern"
1, 654044, Marker_t, "Increasing intensity and volume"
1, 721996, Marker_t, "Same idea as at measure 26"
1, 742800, Marker_t, "Out chorus - melody played fairly simply this time with chords "
1, 856376, Marker_t, "'Tag' ending - a bar of Gm11 alternaates with a bar of Fm11"
1, 856376, End_track
2, 0, Start_track
2, 0, Title_t, "Piano or Electric"
2, 0, Control_c, 0, 7, 108
2, 673, Note_on_c, 0, 67, 88
2, 1899, Note_on_c, 0, 67, 0
2, 2069, Note_on_c, 0, 69, 46
2, 2248, Note_on_c, 0, 69, 0
2, 2963, Note_on_c, 0, 70, 51
2, 3183, Note_on_c, 0, 70, 0
2, 3944, Note_on_c, 0, 63, 38
2, 3958, Note_on_c, 0, 75, 53
2, 3962, Note_on_c, 0, 58, 28
2, 4016, Note_on_c, 0, 67, 28
2, 4029, Note_on_c, 0, 62, 39
2, 5181, Note_on_c, 0, 62, 0
2, 5259, Note_on_c, 0, 67, 0
2, 5264, Note_on_c, 0, 63, 0
2, 5281, Note_on_c, 0, 58, 0
2, 5817, Note_on_c, 0, 67, 35
2, 5855, Note_on_c, 0, 58, 30
2, 5873, Note_on_c, 0, 63, 36
2, 5882, Note_on_c, 0, 62, 38
2, 5985, Note_on_c, 0, 62, 0
2, 6009, Note_on_c, 0, 58, 0
2, 6009, Note_on_c, 0, 63, 0
2, 6018, Note_on_c, 0, 67, 0
2, 7784, Note_on_c, 0, 63, 36
2, 7788, Note_on_c, 0, 67, 25
2, 7873, Note_on_c, 0, 75, 0
2, 7999, Note_on_c, 0, 67, 0
2, 8057, Note_on_c, 0, 63, 0
2, 9347, Note_on_c, 0, 67, 50
2, 9352, Note_on_c, 0, 63, 51
2, 9383, Note_on_c, 0, 62, 35
2, 9455, Note_on_c, 0, 67, 0
2, 9508, Note_on_c, 0, 62, 0
2, 9558, Note_on_c, 0, 63, 0
2, 9779, Note_on_c, 0, 77, 53
2, 10037, Note_on_c, 0, 77, 0
2, 10317, Note_on_c, 0, 79, 88
2, 10561, Note_on_c, 0, 79, 0
2, 10722, Note_on_c, 0, 81, 90
2, 11103, Note_on_c, 0, 81, 0
2, 11300, Note_on_c, 0, 84, 84
2, 11334, Note_on_c, 0, 65, 55
2, 11347, Note_on_c, 0, 60, 55
2, 11352, Note_on_c, 0, 62, 49
2, 11464, Note_on_c, 0, 55, 30
2, 11484, Note_on_c, 0, 65, 0
2, 11533, Note_on_c, 0, 62, 0
2, 11569, Note_on_c, 0, 55, 0
2, 11580, Note_on_c, 0, 60, 0
2, 11639, Note_on_c, 0, 84, 0
2, 11827, Note_on_c, 0, 86, 63
2, 11831, Note_on_c, 0, 74, 54
2, 12261, Note_on_c, 0, 86, 0
2, 12335, Note_on_c, 0, 74, 0
2, 12550, Note_on_c, 0, 86, 44
2, 12561, Note_on_c, 0, 74, 54
2, 12931, Note_on_c, 0, 86, 0
2, 13007, Note_on_c, 0, 74, 0
2, 13195, Note_on_c, 0, 65, 45
2, 13240, Note_on_c, 0, 86, 42
2, 13247, Note_on_c, 0, 62, 39
2, 13280, Note_on_c, 0, 74, 48
2, 13285, Note_on_c, 0, 60, 46
2, 13301, Note_on_c, 0, 65, 0
2, 13375, Note_on_c, 0, 62, 0
2, 13381, Note_on_c, 0, 60, 0
2, 13623, Note_on_c, 0, 86, 0
2, 13744, Note_on_c, 0, 74, 0
2, 13852, Note_on_c, 0, 86, 29
2, 13888, Note_on_c, 0, 74, 27
2, 14197, Note_on_c, 0, 86, 0
2, 14320, Note_on_c, 0, 74, 0
2, 14517, Note_on_c, 0, 86, 37
2, 14542, Note_on_c, 0, 74, 36
2, 14952, Note_on_c, 0, 86, 0
2, 14978, Note_on_c, 0, 74, 0
2, 15173, Note_on_c, 0, 65, 43
2, 15176, Note_on_c, 0, 86, 49
2, 15218, Note_on_c, 0, 74, 35
2, 15238, Note_on_c, 0, 58, 35
2, 15256, Note_on_c, 0, 60, 41
2, 15303, Note_on_c, 0, 55, 32
2, 15344, Note_on_c, 0, 86, 0
2, 15373, Note_on_c, 0, 60, 0
2, 15413, Note_on_c, 0, 65, 0
2, 15415, Note_on_c, 0, 55, 0
2, 15424, Note_on_c, 0, 58, 0
2, 15426, Note_on_c, 0, 74, 0
2, 17024, Note_on_c, 0, 65, 57
2, 17071, Note_on_c, 0, 58, 43
2, 17109, Note_on_c, 0, 60, 43
2, 17115, Note_on_c, 0, 65, 0
2, 17178, Note_on_c, 0, 58, 0
2, 17192, Note_on_c, 0, 60, 0
2, 17463, Note_on_c, 0, 75, 57
2, 17754, Note_on_c, 0, 75, 0
2, 18067, Note_on_c, 0, 77, 66
2, 18497, Note_on_c, 0, 79, 63
2, 18614, Note_on_c, 0, 77, 0
2, 18809, Note_on_c, 0, 79, 0
2, 19069, Note_on_c, 0, 63, 56
2, 19140, Note_on_c, 0, 86, 81
2, 19158, Note_on_c, 0, 60, 31
2, 19225, Note_on_c, 0, 57, 34
2, 19337, Note_on_c, 0, 63, 0
2, 19434, Note_on_c, 0, 57, 0
2, 19512, Note_on_c, 0, 60, 0
2, 19588, Note_on_c, 0, 86, 0
2, 19774, Note_on_c, 0, 84, 48
2, 20146, Note_on_c, 0, 84, 0
2, 20375, Note_on_c, 0, 84, 55
2, 20852, Note_on_c, 0, 84, 0
2, 21226, Note_on_c, 0, 55, 39
2, 21239, Note_on_c, 0, 63, 37
2, 21311, Note_on_c, 0, 60, 36
2, 21353, Note_on_c, 0, 57, 29
2, 21468, Note_on_c, 0, 60, 0
2, 21530, Note_on_c, 0, 63, 0
2, 21569, Note_on_c, 0, 55, 0
2, 21578, Note_on_c, 0, 57, 0
2, 22796, Note_on_c, 0, 63, 53
2, 22823, Note_on_c, 0, 60, 46
2, 22839, Note_on_c, 0, 54, 42
2, 23000, Note_on_c, 0, 54, 0
2, 23033, Note_on_c, 0, 63, 0
2, 23056, Note_on_c, 0, 60, 0
2, 24758, Note_on_c, 0, 63, 52
2, 24790, Note_on_c, 0, 60, 46
2, 24801, Note_on_c, 0, 54, 41
2, 24897, Note_on_c, 0, 60, 0
2, 24922, Note_on_c, 0, 54, 0
2, 24955, Note_on_c, 0, 63, 0
2, 26718, Note_on_c, 0, 62, 31
2, 26721, Note_on_c, 0, 58, 39
2, 26754, Note_on_c, 0, 53, 32
2, 26911, Note_on_c, 0, 53, 0
2, 27001, Note_on_c, 0, 62, 0
2, 27010, Note_on_c, 0, 58, 0
2, 28609, Note_on_c, 0, 62, 55
2, 28620, Note_on_c, 0, 58, 49
2, 28806, Note_on_c, 0, 62, 0
2, 28815, Note_on_c, 0, 58, 0
2, 29556, Note_on_c, 0, 74, 57
2, 29758, Note_on_c, 0, 74, 0
2, 29977, Note_on_c, 0, 76, 60
2, 30412, Note_on_c, 0, 76, 0
2, 30533, Note_on_c, 0, 58, 62
2, 30535, Note_on_c, 0, 62, 67
2, 30558, Note_on_c, 0, 78, 81
2, 30582, Note_on_c, 0, 57, 42
2, 30618, Note_on_c, 0, 53, 36
2, 30620, Note_on_c, 0, 62, 0
2, 30670, Note_on_c, 0, 57, 0
2, 30714, Note_on_c, 0, 53, 0
2, 30773, Note_on_c, 0, 78, 0
2, 30775, Note_on_c, 0, 58, 0
2, 30997, Note_on_c, 0, 82, 81
2, 31445, Note_on_c, 0, 82, 0
2, 31584, Note_on_c, 0, 58, 41
2, 31740, Note_on_c, 0, 58, 0
2, 31781, Note_on_c, 0, 82, 76
2, 32285, Note_on_c, 0, 82, 0
2, 32394, Note_on_c, 0, 81, 63
2, 32417, Note_on_c, 0, 58, 51
2, 32592, Note_on_c, 0, 81, 0
2, 32679, Note_on_c, 0, 58, 0
2, 32780, Note_on_c, 0, 82, 60
2, 33302, Note_on_c, 0, 82, 0
2, 33367, Note_on_c, 0, 84, 61
2, 33376, Note_on_c, 0, 62, 61
2, 33387, Note_on_c, 0, 58, 51
2, 33405, Note_on_c, 0, 57, 44
2, 33438, Note_on_c, 0, 53, 41
2, 33463, Note_on_c, 0, 62, 0
2, 33494, Note_on_c, 0, 57, 0
2, 33517, Note_on_c, 0, 53, 0
2, 33591, Note_on_c, 0, 84, 0
2, 33644, Note_on_c, 0, 58, 0
2, 33750, Note_on_c, 0, 86, 73
2, 34267, Note_on_c, 0, 86, 0
2, 34354, Note_on_c, 0, 89, 99
2, 34433, Note_on_c, 0, 58, 49
2, 34464, Note_on_c, 0, 63, 48
2, 34466, Note_on_c, 0, 62, 49
2, 34480, Note_on_c, 0, 67, 44
2, 34659, Note_on_c, 0, 67, 0
2, 34693, Note_on_c, 0, 89, 0
2, 34713, Note_on_c, 0, 58, 0
2, 34722, Note_on_c, 0, 62, 0
2, 34809, Note_on_c, 0, 63, 0
2, 34865, Note_on_c, 0, 87, 61
2, 35407, Note_on_c, 0, 87, 0
2, 35454, Note_on_c, 0, 79, 59
2, 35728, Note_on_c, 0, 79, 0
2, 36265, Note_on_c, 0, 75, 63
2, 36283, Note_on_c, 0, 67, 43
2, 36308, Note_on_c, 0, 58, 39
2, 36314, Note_on_c, 0, 63, 43
2, 36319, Note_on_c, 0, 62, 41
2, 36433, Note_on_c, 0, 67, 0
2, 36456, Note_on_c, 0, 58, 0
2, 36538, Note_on_c, 0, 63, 0
2, 36561, Note_on_c, 0, 62, 0
2, 36646, Note_on_c, 0, 75, 0
2, 36762, Note_on_c, 0, 74, 44
2, 37338, Note_on_c, 0, 74, 0
2, 37479, Note_on_c, 0, 75, 48
2, 38062, Note_on_c, 0, 75, 0
2, 38102, Note_on_c, 0, 67, 33
2, 38106, Note_on_c, 0, 72, 49
2, 38129, Note_on_c, 0, 63, 38
2, 38176, Note_on_c, 0, 57, 34
2, 38185, Note_on_c, 0, 62, 23
2, 38395, Note_on_c, 0, 62, 0
2, 38404, Note_on_c, 0, 57, 0
2, 38411, Note_on_c, 0, 67, 0
2, 38460, Note_on_c, 0, 72, 0
2, 38462, Note_on_c, 0, 63, 0
2, 40104, Note_on_c, 0, 62, 46
2, 40109, Note_on_c, 0, 67, 42
2, 40122, Note_on_c, 0, 63, 39
2, 40189, Note_on_c, 0, 57, 30
2, 40281, Note_on_c, 0, 62, 0
2, 40284, Note_on_c, 0, 67, 0
2, 40317, Note_on_c, 0, 63, 0
2, 40333, Note_on_c, 0, 57, 0
2, 41466, Note_on_c, 0, 65, 52
2, 41536, Note_on_c, 0, 60, 44
2, 41545, Note_on_c, 0, 62, 39
2, 41576, Note_on_c, 0, 55, 35
2, 41818, Note_on_c, 0, 55, 0
2, 41822, Note_on_c, 0, 60, 0
2, 41840, Note_on_c, 0, 62, 0
2, 41896, Note_on_c, 0, 65, 0
2, 42960, Note_on_c, 0, 65, 54
2, 43045, Note_on_c, 0, 62, 39
2, 43057, Note_on_c, 0, 60, 39
2, 43090, Note_on_c, 0, 55, 27
2, 43158, Note_on_c, 0, 62, 0
2, 43160, Note_on_c, 0, 60, 0
2, 43187, Note_on_c, 0, 65, 0
2, 43205, Note_on_c, 0, 55, 0
2, 44327, Note_on_c, 0, 65, 67
2, 44369, Note_on_c, 0, 62, 52
2, 44381, Note_on_c, 0, 60, 51
2, 44430, Note_on_c, 0, 65, 0
2, 44461, Note_on_c, 0, 62, 0
2, 44493, Note_on_c, 0, 60, 0
2, 45279, Note_on_c, 0, 86, 127
2, 45767, Note_on_c, 0, 86, 0
2, 45854, Note_on_c, 0, 87, 89
2, 45899, Note_on_c, 0, 65, 81
2, 45930, Note_on_c, 0, 60, 67
2, 45935, Note_on_c, 0, 58, 58
2, 45958, Note_on_c, 0, 55, 46
2, 46034, Note_on_c, 0, 55, 0
2, 46072, Note_on_c, 0, 65, 0
2, 46173, Note_on_c, 0, 60, 0
2, 46240, Note_on_c, 0, 58, 0
2, 46320, Note_on_c, 0, 87, 0
2, 46381, Note_on_c, 0, 86, 57
2, 46753, Note_on_c, 0, 86, 0
2, 46878, Note_on_c, 0, 82, 70
2, 47127, Note_on_c, 0, 82, 0
2, 47306, Note_on_c, 0, 79, 39
2, 47584, Note_on_c, 0, 79, 0
2, 47761, Note_on_c, 0, 75, 57
2, 47783, Note_on_c, 0, 65, 51
2, 47853, Note_on_c, 0, 60, 42
2, 47857, Note_on_c, 0, 58, 30
2, 47875, Note_on_c, 0, 65, 0
2, 47936, Note_on_c, 0, 75, 0
2, 47954, Note_on_c, 0, 60, 0
2, 48030, Note_on_c, 0, 58, 0
2, 48289, Note_on_c, 0, 74, 35
2, 48590, Note_on_c, 0, 74, 0
2, 48789, Note_on_c, 0, 75, 85
2, 49078, Note_on_c, 0, 75, 0
2, 49147, Note_on_c, 0, 74, 56
2, 49593, Note_on_c, 0, 74, 0
2, 49716, Note_on_c, 0, 72, 68
2, 49748, Note_on_c, 0, 58, 45
2, 49788, Note_on_c, 0, 60, 46
2, 49876, Note_on_c, 0, 60, 0
2, 49920, Note_on_c, 0, 72, 0
2, 49954, Note_on_c, 0, 58, 0
2, 50198, Note_on_c, 0, 67, 34
2, 50503, Note_on_c, 0, 67, 0
2, 50646, Note_on_c, 0, 63, 63
2, 50955, Note_on_c, 0, 63, 0
2, 51278, Note_on_c, 0, 62, 24
2, 51421, Note_on_c, 0, 62, 0
2, 51681, Note_on_c, 0, 60, 46
2, 51766, Note_on_c, 0, 60, 0
2, 51977, Note_on_c, 0, 62, 75
2, 52503, Note_on_c, 0, 62, 0
2, 52572, Note_on_c, 0, 63, 63
2, 52628, Note_on_c, 0, 57, 22
2, 52738, Note_on_c, 0, 57, 0
2, 52906, Note_on_c, 0, 63, 0
2, 52996, Note_on_c, 0, 62, 47
2, 53520, Note_on_c, 0, 62, 0
2, 53645, Note_on_c, 0, 60, 39
2, 53795, Note_on_c, 0, 54, 37
2, 53876, Note_on_c, 0, 60, 0
2, 53986, Note_on_c, 0, 62, 50
2, 54033, Note_on_c, 0, 54, 0
2, 54555, Note_on_c, 0, 62, 0
2, 54893, Note_on_c, 0, 62, 54
2, 55278, Note_on_c, 0, 62, 0
2, 55901, Note_on_c, 0, 54, 37
2, 55923, Note_on_c, 0, 60, 31
2, 56062, Note_on_c, 0, 60, 0
2, 56271, Note_on_c, 0, 54, 0
2, 57355, Note_on_c, 0, 57, 38
2, 57386, Note_on_c, 0, 62, 33
2, 57411, Note_on_c, 0, 55, 45
2, 57415, Note_on_c, 0, 58, 36
2, 57536, Note_on_c, 0, 62, 0
2, 57541, Note_on_c, 0, 58, 0
2, 57599, Note_on_c, 0, 57, 0
2, 57624, Note_on_c, 0, 55, 0
2, 58679, Note_on_c, 0, 71, 99
2, 59295, Note_on_c, 0, 70, 57
2, 59382, Note_on_c, 0, 71, 0
2, 59454, Note_on_c, 0, 70, 0
2, 59494, Note_on_c, 0, 69, 54
2, 59781, Note_on_c, 0, 69, 0
2, 59825, Note_on_c, 0, 68, 50
2, 60267, Note_on_c, 0, 68, 0
2, 60303, Note_on_c, 0, 71, 66
2, 60403, Note_on_c, 0, 58, 29
2, 60533, Note_on_c, 0, 58, 0
2, 60654, Note_on_c, 0, 71, 0
2, 60726, Note_on_c, 0, 68, 56
2, 61196, Note_on_c, 0, 68, 0
2, 61264, Note_on_c, 0, 69, 63
2, 61358, Note_on_c, 0, 58, 28
2, 61476, Note_on_c, 0, 58, 0
2, 61631, Note_on_c, 0, 69, 0
2, 61687, Note_on_c, 0, 66, 61
2, 62225, Note_on_c, 0, 58, 36
2, 62276, Note_on_c, 0, 66, 0
2, 62337, Note_on_c, 0, 58, 0
2, 62457, Note_on_c, 0, 66, 58
2, 62968, Note_on_c, 0, 66, 0
2, 63094, Note_on_c, 0, 67, 60
2, 63098, Note_on_c, 0, 62, 50
2, 63138, Note_on_c, 0, 58, 41
2, 63177, Note_on_c, 0, 62, 0
2, 63255, Note_on_c, 0, 58, 0
2, 63376, Note_on_c, 0, 67, 0
2, 63602, Note_on_c, 0, 62, 37
2, 63965, Note_on_c, 0, 62, 0
2, 64169, Note_on_c, 0, 62, 58
2, 64245, Note_on_c, 0, 62, 0
2, 65329, Note_on_c, 0, 63, 39
2, 65381, Note_on_c, 0, 60, 33
2, 65399, Note_on_c, 0, 55, 32
2, 65614, Note_on_c, 0, 55, 0
2, 65629, Note_on_c, 0, 63, 0
2, 65732, Note_on_c, 0, 60, 0
2, 66917, Note_on_c, 0, 63, 53
2, 67018, Note_on_c, 0, 63, 0
2, 67903, Note_on_c, 0, 72, 76
2, 68096, Note_on_c, 0, 72, 0
2, 68331, Note_on_c, 0, 74, 120
2, 68712, Note_on_c, 0, 74, 0
2, 68875, Note_on_c, 0, 75, 92
2, 69021, Note_on_c, 0, 60, 55
2, 69059, Note_on_c, 0, 63, 38
2, 69108, Note_on_c, 0, 60, 0
2, 69169, Note_on_c, 0, 63, 0
2, 69191, Note_on_c, 0, 75, 0
2, 69332, Note_on_c, 0, 74, 69
2, 69681, Note_on_c, 0, 74, 0
2, 69858, Note_on_c, 0, 72, 70
2, 70098, Note_on_c, 0, 72, 0
2, 70268, Note_on_c, 0, 70, 61
2, 70566, Note_on_c, 0, 70, 0
2, 70819, Note_on_c, 0, 69, 66
2, 70864, Note_on_c, 0, 63, 54
2, 70909, Note_on_c, 0, 60, 41
2, 70913, Note_on_c, 0, 54, 39
2, 70985, Note_on_c, 0, 63, 0
2, 71010, Note_on_c, 0, 60, 0
2, 71037, Note_on_c, 0, 54, 0
2, 71099, Note_on_c, 0, 69, 0
2, 71346, Note_on_c, 0, 67, 42
2, 71655, Note_on_c, 0, 67, 0
2, 71765, Note_on_c, 0, 66, 57
2, 71818, Note_on_c, 0, 54, 39
2, 71850, Note_on_c, 0, 66, 0
2, 71969, Note_on_c, 0, 54, 0
2, 72188, Note_on_c, 0, 63, 51
2, 72553, Note_on_c, 0, 63, 0
2, 72804, Note_on_c, 0, 60, 37
2, 72867, Note_on_c, 0, 50, 26
2, 72898, Note_on_c, 0, 60, 0
2, 73111, Note_on_c, 0, 62, 69
2, 73239, Note_on_c, 0, 50, 0
2, 73498, Note_on_c, 0, 62, 0
2, 73657, Note_on_c, 0, 63, 39
2, 73705, Note_on_c, 0, 62, 60
2, 73814, Note_on_c, 0, 63, 0
2, 73859, Note_on_c, 0, 50, 27
2, 73958, Note_on_c, 0, 62, 0
2, 73982, Note_on_c, 0, 60, 43
2, 74233, Note_on_c, 0, 50, 0
2, 74468, Note_on_c, 0, 60, 0
2, 74585, Note_on_c, 0, 58, 59
2, 74632, Note_on_c, 0, 50, 39
2, 74905, Note_on_c, 0, 50, 0
2, 74916, Note_on_c, 0, 58, 0
2, 75044, Note_on_c, 0, 57, 49
2, 75526, Note_on_c, 0, 57, 0
2, 75584, Note_on_c, 0, 60, 66
2, 75669, Note_on_c, 0, 50, 34
2, 75891, Note_on_c, 0, 50, 0
2, 75998, Note_on_c, 0, 58, 50
2, 76001, Note_on_c, 0, 60, 0
2, 76471, Note_on_c, 0, 50, 39
2, 76525, Note_on_c, 0, 58, 0
2, 76610, Note_on_c, 0, 54, 55
2, 76679, Note_on_c, 0, 50, 0
2, 76854, Note_on_c, 0, 54, 0
2, 77065, Note_on_c, 0, 57, 52
2, 77510, Note_on_c, 0, 57, 0
2, 77589, Note_on_c, 0, 50, 29
2, 77634, Note_on_c, 0, 54, 30
2, 77748, Note_on_c, 0, 50, 0
2, 77781, Note_on_c, 0, 54, 0
2, 77943, Note_on_c, 0, 55, 48
2, 78317, Note_on_c, 0, 55, 0
2, 78460, Note_on_c, 0, 57, 63
2, 78606, Note_on_c, 0, 50, 39
2, 78682, Note_on_c, 0, 57, 0
2, 78709, Note_on_c, 0, 50, 0
2, 78845, Note_on_c, 0, 58, 58
2, 79092, Note_on_c, 0, 58, 0
2, 79193, Note_on_c, 0, 59, 57
2, 79423, Note_on_c, 0, 59, 0
2, 79515, Note_on_c, 0, 60, 63
2, 79780, Note_on_c, 0, 60, 0
2, 79896, Note_on_c, 0, 61, 42
2, 80003, Note_on_c, 0, 61, 0
2, 80046, Note_on_c, 0, 62, 57
2, 80163, Note_on_c, 0, 62, 0
2, 80272, Note_on_c, 0, 63, 56
2, 80512, Note_on_c, 0, 64, 66
2, 80514, Note_on_c, 0, 63, 0
2, 80649, Note_on_c, 0, 64, 0
2, 80687, Note_on_c, 0, 65, 83
2, 80794, Note_on_c, 0, 58, 46
2, 80882, Note_on_c, 0, 58, 0
2, 80915, Note_on_c, 0, 48, 25
2, 81032, Note_on_c, 0, 62, 76
2, 81061, Note_on_c, 0, 48, 0
2, 81067, Note_on_c, 0, 65, 0
2, 81424, Note_on_c, 0, 62, 0
2, 81538, Note_on_c, 0, 63, 63
2, 81860, Note_on_c, 0, 63, 0
2, 81964, Note_on_c, 0, 55, 58
2, 82468, Note_on_c, 0, 55, 0
2, 82718, Note_on_c, 0, 55, 52
2, 83133, Note_on_c, 0, 55, 0
2, 84669, Note_on_c, 0, 65, 57
2, 84896, Note_on_c, 0, 65, 0
2, 84990, Note_on_c, 0, 66, 54
2, 85070, Note_on_c, 0, 66, 0
2, 85202, Note_on_c, 0, 67, 69
2, 85362, Note_on_c, 0, 67, 0
2, 85476, Note_on_c, 0, 68, 57
2, 85545, Note_on_c, 0, 68, 0
2, 85666, Note_on_c, 0, 69, 69
2, 85796, Note_on_c, 0, 69, 0
2, 85895, Note_on_c, 0, 70, 57
2, 86025, Note_on_c, 0, 70, 0
2, 86152, Note_on_c, 0, 71, 50
2, 86331, Note_on_c, 0, 71, 0
2, 86385, Note_on_c, 0, 70, 56
2, 86573, Note_on_c, 0, 70, 0
2, 86620, Note_on_c, 0, 68, 65
2, 86773, Note_on_c, 0, 68, 0
2, 86847, Note_on_c, 0, 69, 52
2, 87048, Note_on_c, 0, 69, 0
2, 87089, Note_on_c, 0, 70, 56
2, 87165, Note_on_c, 0, 70, 0
2, 87346, Note_on_c, 0, 69, 40
2, 87404, Note_on_c, 0, 71, 31
2, 87467, Note_on_c, 0, 69, 0
2, 87512, Note_on_c, 0, 71, 0
2, 87566, Note_on_c, 0, 72, 48
2, 87725, Note_on_c, 0, 72, 0
2, 87756, Note_on_c, 0, 73, 58
2, 88002, Note_on_c, 0, 73, 0
2, 88016, Note_on_c, 0, 74, 71
2, 88242, Note_on_c, 0, 73, 48
2, 88294, Note_on_c, 0, 74, 0
2, 88419, Note_on_c, 0, 72, 48
2, 88509, Note_on_c, 0, 73, 0
2, 88571, Note_on_c, 0, 72, 0
2, 88650, Note_on_c, 0, 71, 41
2, 88890, Note_on_c, 0, 71, 0
2, 88905, Note_on_c, 0, 72, 38
2, 89075, Note_on_c, 0, 72, 0
2, 89102, Note_on_c, 0, 73, 39
2, 89214, Note_on_c, 0, 73, 0
2, 89282, Note_on_c, 0, 74, 57
2, 89391, Note_on_c, 0, 74, 0
2, 89535, Note_on_c, 0, 75, 33
2, 89718, Note_on_c, 0, 75, 0
2, 89761, Note_on_c, 0, 76, 55
2, 89969, Note_on_c, 0, 76, 0
2, 90014, Note_on_c, 0, 77, 83
2, 90298, Note_on_c, 0, 74, 69
2, 90449, Note_on_c, 0, 77, 0
2, 90617, Note_on_c, 0, 74, 0
2, 90926, Note_on_c, 0, 70, 70
2, 91212, Note_on_c, 0, 70, 0
2, 91401, Note_on_c, 0, 69, 33
2, 91887, Note_on_c, 0, 69, 0
2, 91987, Note_on_c, 0, 70, 57
2, 92180, Note_on_c, 0, 60, 30
2, 92243, Note_on_c, 0, 70, 0
2, 92303, Note_on_c, 0, 60, 0
2, 92474, Note_on_c, 0, 72, 55
2, 92789, Note_on_c, 0, 72, 0
2, 92966, Note_on_c, 0, 75, 65
2, 93040, Note_on_c, 0, 60, 33
2, 93154, Note_on_c, 0, 60, 0
2, 93224, Note_on_c, 0, 75, 0
2, 93363, Note_on_c, 0, 67, 41
2, 93840, Note_on_c, 0, 67, 0
2, 94767, Note_on_c, 0, 65, 57
2, 94790, Note_on_c, 0, 60, 57
2, 94868, Note_on_c, 0, 65, 0
2, 94922, Note_on_c, 0, 60, 0
2, 96055, Note_on_c, 0, 63, 46
2, 96127, Note_on_c, 0, 60, 31
2, 96143, Note_on_c, 0, 55, 36
2, 96219, Note_on_c, 0, 57, 31
2, 96304, Note_on_c, 0, 55, 0
2, 96360, Note_on_c, 0, 63, 0
2, 96414, Note_on_c, 0, 57, 0
2, 96470, Note_on_c, 0, 60, 0
2, 97684, Note_on_c, 0, 63, 66
2, 97755, Note_on_c, 0, 57, 49
2, 97787, Note_on_c, 0, 60, 26
2, 97809, Note_on_c, 0, 63, 0
2, 97879, Note_on_c, 0, 60, 0
2, 98004, Note_on_c, 0, 57, 0
2, 98040, Note_on_c, 0, 89, 122
2, 98535, Note_on_c, 0, 89, 0
2, 98712, Note_on_c, 0, 86, 71
2, 98945, Note_on_c, 0, 86, 0
2, 99129, Note_on_c, 0, 87, 85
2, 99586, Note_on_c, 0, 87, 0
2, 99657, Note_on_c, 0, 84, 51
2, 99722, Note_on_c, 0, 63, 54
2, 99731, Note_on_c, 0, 60, 53
2, 99794, Note_on_c, 0, 54, 33
2, 99812, Note_on_c, 0, 63, 0
2, 99834, Note_on_c, 0, 60, 0
2, 99908, Note_on_c, 0, 54, 0
2, 100025, Note_on_c, 0, 84, 0
2, 100163, Note_on_c, 0, 86, 83
2, 100596, Note_on_c, 0, 85, 78
2, 100679, Note_on_c, 0, 86, 0
2, 100860, Note_on_c, 0, 85, 0
2, 100961, Note_on_c, 0, 85, 43
2, 101035, Note_on_c, 0, 85, 0
2, 101095, Note_on_c, 0, 84, 47
2, 101409, Note_on_c, 0, 84, 0
2, 101572, Note_on_c, 0, 80, 74
2, 101628, Note_on_c, 0, 60, 39
2, 101678, Note_on_c, 0, 54, 28
2, 101810, Note_on_c, 0, 54, 0
2, 101866, Note_on_c, 0, 80, 0
2, 102052, Note_on_c, 0, 60, 0
2, 102188, Note_on_c, 0, 80, 63
2, 102580, Note_on_c, 0, 80, 0
2, 102596, Note_on_c, 0, 63, 49
2, 102632, Note_on_c, 0, 54, 39
2, 102641, Note_on_c, 0, 60, 36
2, 102701, Note_on_c, 0, 63, 0
2, 102751, Note_on_c, 0, 60, 0
2, 102809, Note_on_c, 0, 54, 0
2, 102854, Note_on_c, 0, 80, 66
2, 103282, Note_on_c, 0, 80, 0
2, 103441, Note_on_c, 0, 81, 67
2, 103575, Note_on_c, 0, 62, 43
2, 103602, Note_on_c, 0, 57, 40
2, 103783, Note_on_c, 0, 81, 0
2, 103911, Note_on_c, 0, 57, 0
2, 104079, Note_on_c, 0, 82, 72
2, 104254, Note_on_c, 0, 62, 0
2, 104368, Note_on_c, 0, 82, 0
2, 104773, Note_on_c, 0, 82, 71
2, 105190, Note_on_c, 0, 82, 0
2, 105336, Note_on_c, 0, 81, 66
2, 105403, Note_on_c, 0, 58, 46
2, 105439, Note_on_c, 0, 62, 44
2, 105571, Note_on_c, 0, 52, 24
2, 105602, Note_on_c, 0, 81, 0
2, 105842, Note_on_c, 0, 82, 70
2, 106617, Note_on_c, 0, 52, 0
2, 106680, Note_on_c, 0, 58, 0
2, 106794, Note_on_c, 0, 62, 0
2, 107609, Note_on_c, 0, 67, 65
2, 107654, Note_on_c, 0, 56, 44
2, 107683, Note_on_c, 0, 63, 45
2, 107719, Note_on_c, 0, 60, 40
2, 107800, Note_on_c, 0, 56, 0
2, 107853, Note_on_c, 0, 67, 0
2, 107856, Note_on_c, 0, 60, 0
2, 107878, Note_on_c, 0, 82, 0
2, 107972, Note_on_c, 0, 63, 0
2, 108546, Note_on_c, 0, 80, 92
2, 109108, Note_on_c, 0, 80, 0
2, 109202, Note_on_c, 0, 66, 65
2, 109231, Note_on_c, 0, 77, 68
2, 109240, Note_on_c, 0, 62, 53
2, 109341, Note_on_c, 0, 56, 31
2, 109363, Note_on_c, 0, 60, 27
2, 109426, Note_on_c, 0, 77, 0
2, 109838, Note_on_c, 0, 79, 77
2, 110075, Note_on_c, 0, 79, 0
2, 110523, Note_on_c, 0, 60, 0
2, 110526, Note_on_c, 0, 62, 0
2, 110573, Note_on_c, 0, 79, 80
2, 110752, Note_on_c, 0, 66, 0
2, 111086, Note_on_c, 0, 56, 0
2, 111200, Note_on_c, 0, 65, 52
2, 111247, Note_on_c, 0, 62, 48
2, 111278, Note_on_c, 0, 60, 46
2, 111312, Note_on_c, 0, 55, 39
2, 112739, Note_on_c, 0, 62, 0
2, 112777, Note_on_c, 0, 60, 0
2, 112851, Note_on_c, 0, 65, 0
2, 112862, Note_on_c, 0, 79, 0
2, 112965, Note_on_c, 0, 75, 82
2, 113241, Note_on_c, 0, 75, 0
2, 113397, Note_on_c, 0, 72, 44
2, 113680, Note_on_c, 0, 72, 0
2, 113928, Note_on_c, 0, 67, 62
2, 114195, Note_on_c, 0, 67, 0
2, 114289, Note_on_c, 0, 55, 0
2, 114358, Note_on_c, 0, 63, 41
2, 114730, Note_on_c, 0, 63, 0
2, 115339, Note_on_c, 0, 63, 58
2, 115947, Note_on_c, 0, 54, 46
2, 116059, Note_on_c, 0, 50, 23
2, 116072, Note_on_c, 0, 54, 0
2, 116090, Note_on_c, 0, 63, 0
2, 116164, Note_on_c, 0, 50, 0
2, 116244, Note_on_c, 0, 62, 77
2, 117071, Note_on_c, 0, 62, 0
2, 117217, Note_on_c, 0, 60, 52
2, 117647, Note_on_c, 0, 60, 0
2, 117788, Note_on_c, 0, 58, 61
2, 117790, Note_on_c, 0, 50, 54
2, 117797, Note_on_c, 0, 49, 45
2, 117877, Note_on_c, 0, 50, 0
2, 117904, Note_on_c, 0, 49, 0
2, 118142, Note_on_c, 0, 58, 0
2, 118207, Note_on_c, 0, 57, 44
2, 118659, Note_on_c, 0, 57, 0
2, 118789, Note_on_c, 0, 60, 66
2, 118852, Note_on_c, 0, 50, 39
2, 119006, Note_on_c, 0, 50, 0
2, 119069, Note_on_c, 0, 60, 0
2, 119204, Note_on_c, 0, 58, 57
2, 119728, Note_on_c, 0, 58, 0
2, 119797, Note_on_c, 0, 50, 34
2, 119842, Note_on_c, 0, 54, 51
2, 119954, Note_on_c, 0, 50, 0
2, 119999, Note_on_c, 0, 54, 0
2, 120160, Note_on_c, 0, 57, 62
2, 120751, Note_on_c, 0, 57, 0
2, 120805, Note_on_c, 0, 50, 38
2, 120807, Note_on_c, 0, 54, 52
2, 120910, Note_on_c, 0, 50, 0
2, 121090, Note_on_c, 0, 54, 0
2, 121161, Note_on_c, 0, 55, 54
2, 121627, Note_on_c, 0, 55, 0
2, 121654, Note_on_c, 0, 56, 54
2, 121726, Note_on_c, 0, 56, 0
2, 121735, Note_on_c, 0, 57, 59
2, 121818, Note_on_c, 0, 50, 48
2, 121903, Note_on_c, 0, 50, 0
2, 122035, Note_on_c, 0, 57, 0
2, 122147, Note_on_c, 0, 58, 60
2, 122651, Note_on_c, 0, 58, 0
2, 122664, Note_on_c, 0, 59, 74
2, 122734, Note_on_c, 0, 50, 47
2, 122821, Note_on_c, 0, 50, 0
2, 122924, Note_on_c, 0, 59, 0
2, 123101, Note_on_c, 0, 60, 71
2, 123542, Note_on_c, 0, 60, 0
2, 123643, Note_on_c, 0, 58, 48
2, 123728, Note_on_c, 0, 50, 48
2, 123858, Note_on_c, 0, 50, 0
2, 123912, Note_on_c, 0, 58, 0
2, 124089, Note_on_c, 0, 59, 23
2, 124485, Note_on_c, 0, 59, 0
2, 124564, Note_on_c, 0, 60, 75
2, 124846, Note_on_c, 0, 60, 0
2, 124980, Note_on_c, 0, 61, 57
2, 125408, Note_on_c, 0, 61, 0
2, 125502, Note_on_c, 0, 62, 62
2, 125549, Note_on_c, 0, 64, 52
2, 125635, Note_on_c, 0, 64, 0
2, 125731, Note_on_c, 0, 62, 0
2, 125894, Note_on_c, 0, 63, 74
2, 126275, Note_on_c, 0, 63, 0
2, 126425, Note_on_c, 0, 64, 84
2, 126714, Note_on_c, 0, 64, 0
2, 126828, Note_on_c, 0, 65, 94
2, 126878, Note_on_c, 0, 58, 50
2, 127108, Note_on_c, 0, 58, 0
2, 127393, Note_on_c, 0, 65, 0
2, 127420, Note_on_c, 0, 62, 56
2, 127433, Note_on_c, 0, 55, 22
2, 127698, Note_on_c, 0, 62, 0
2, 127742, Note_on_c, 0, 55, 0
2, 127821, Note_on_c, 0, 63, 60
2, 128356, Note_on_c, 0, 63, 0
2, 128394, Note_on_c, 0, 59, 50
2, 128551, Note_on_c, 0, 59, 0
2, 128775, Note_on_c, 0, 60, 49
2, 129344, Note_on_c, 0, 62, 62
2, 129375, Note_on_c, 0, 60, 0
2, 129597, Note_on_c, 0, 62, 0
2, 129779, Note_on_c, 0, 63, 56
2, 130220, Note_on_c, 0, 63, 0
2, 130312, Note_on_c, 0, 65, 66
2, 130386, Note_on_c, 0, 62, 43
2, 130395, Note_on_c, 0, 51, 37
2, 130500, Note_on_c, 0, 57, 41
2, 130766, Note_on_c, 0, 65, 0
2, 130807, Note_on_c, 0, 66, 57
2, 130847, Note_on_c, 0, 62, 0
2, 130959, Note_on_c, 0, 57, 0
2, 131396, Note_on_c, 0, 51, 0
2, 131539, Note_on_c, 0, 66, 0
2, 132236, Note_on_c, 0, 62, 56
2, 132303, Note_on_c, 0, 57, 43
2, 132323, Note_on_c, 0, 51, 29
2, 132390, Note_on_c, 0, 62, 0
2, 132411, Note_on_c, 0, 57, 0
2, 132460, Note_on_c, 0, 51, 0
2, 133257, Note_on_c, 0, 57, 49
2, 133356, Note_on_c, 0, 57, 0
2, 133636, Note_on_c, 0, 65, 74
2, 135128, Note_on_c, 0, 65, 0
2, 135163, Note_on_c, 0, 64, 46
2, 135307, Note_on_c, 0, 64, 0
2, 135562, Note_on_c, 0, 65, 41
2, 135874, Note_on_c, 0, 65, 0
2, 136098, Note_on_c, 0, 67, 57
2, 136133, Note_on_c, 0, 62, 35
2, 136288, Note_on_c, 0, 62, 0
2, 136348, Note_on_c, 0, 67, 0
2, 136460, Note_on_c, 0, 69, 81
2, 136926, Note_on_c, 0, 69, 0
2, 137081, Note_on_c, 0, 62, 31
2, 137204, Note_on_c, 0, 62, 0
2, 137401, Note_on_c, 0, 69, 57
2, 137896, Note_on_c, 0, 69, 0
2, 137970, Note_on_c, 0, 70, 70
2, 138199, Note_on_c, 0, 70, 0
2, 138416, Note_on_c, 0, 74, 54
2, 138774, Note_on_c, 0, 74, 0
2, 138902, Note_on_c, 0, 77, 77
2, 139001, Note_on_c, 0, 65, 52
2, 139048, Note_on_c, 0, 60, 52
2, 139072, Note_on_c, 0, 65, 0
2, 139146, Note_on_c, 0, 77, 0
2, 139234, Note_on_c, 0, 60, 0
2, 139317, Note_on_c, 0, 81, 122
2, 139731, Note_on_c, 0, 81, 0
2, 139863, Note_on_c, 0, 84, 115
2, 140047, Note_on_c, 0, 60, 45
2, 140141, Note_on_c, 0, 60, 0
2, 140145, Note_on_c, 0, 84, 0
2, 140320, Note_on_c, 0, 82, 72
2, 140681, Note_on_c, 0, 82, 0
2, 140885, Note_on_c, 0, 78, 66
2, 140918, Note_on_c, 0, 65, 46
2, 140961, Note_on_c, 0, 60, 44
2, 141008, Note_on_c, 0, 65, 0
2, 141062, Note_on_c, 0, 60, 0
2, 141196, Note_on_c, 0, 78, 0
2, 141350, Note_on_c, 0, 74, 50
2, 141798, Note_on_c, 0, 74, 0
2, 142047, Note_on_c, 0, 60, 23
2, 142159, Note_on_c, 0, 60, 0
2, 144166, Note_on_c, 0, 63, 43
2, 144256, Note_on_c, 0, 60, 42
2, 144298, Note_on_c, 0, 57, 39
2, 144370, Note_on_c, 0, 55, 29
2, 144547, Note_on_c, 0, 55, 0
2, 144569, Note_on_c, 0, 60, 0
2, 144619, Note_on_c, 0, 63, 0
2, 144652, Note_on_c, 0, 57, 0
2, 145678, Note_on_c, 0, 54, 46
2, 145698, Note_on_c, 0, 65, 41
2, 145741, Note_on_c, 0, 58, 42
2, 145761, Note_on_c, 0, 60, 44
2, 145868, Note_on_c, 0, 60, 0
2, 145931, Note_on_c, 0, 65, 0
2, 145963, Note_on_c, 0, 58, 0
2, 145994, Note_on_c, 0, 54, 0
2, 147562, Note_on_c, 0, 65, 52
2, 147631, Note_on_c, 0, 58, 36
2, 147634, Note_on_c, 0, 54, 28
2, 147667, Note_on_c, 0, 65, 0
2, 147690, Note_on_c, 0, 60, 29
2, 147761, Note_on_c, 0, 58, 0
2, 147775, Note_on_c, 0, 54, 0
2, 147802, Note_on_c, 0, 60, 0
2, 148590, Note_on_c, 0, 65, 63
2, 148651, Note_on_c, 0, 58, 41
2, 148664, Note_on_c, 0, 65, 0
2, 148666, Note_on_c, 0, 54, 31
2, 148686, Note_on_c, 0, 60, 38
2, 148796, Note_on_c, 0, 60, 0
2, 148819, Note_on_c, 0, 54, 0
2, 148915, Note_on_c, 0, 58, 0
2, 148969, Note_on_c, 0, 91, 94
2, 149222, Note_on_c, 0, 91, 0
2, 149345, Note_on_c, 0, 90, 84
2, 149540, Note_on_c, 0, 58, 39
2, 149605, Note_on_c, 0, 57, 35
2, 149715, Note_on_c, 0, 85, 66
2, 149732, Note_on_c, 0, 90, 0
2, 149939, Note_on_c, 0, 57, 0
2, 150028, Note_on_c, 0, 85, 0
2, 150037, Note_on_c, 0, 84, 74
2, 150275, Note_on_c, 0, 84, 0
2, 150380, Note_on_c, 0, 58, 0
2, 150427, Note_on_c, 0, 89, 81
2, 150454, Note_on_c, 0, 62, 1
2, 150714, Note_on_c, 0, 62, 0
2, 150792, Note_on_c, 0, 89, 0
2, 150837, Note_on_c, 0, 83, 44
2, 151085, Note_on_c, 0, 83, 0
2, 151204, Note_on_c, 0, 88, 68
2, 151542, Note_on_c, 0, 58, 34
2, 151547, Note_on_c, 0, 87, 70
2, 151596, Note_on_c, 0, 88, 0
2, 151697, Note_on_c, 0, 58, 0
2, 151912, Note_on_c, 0, 82, 59
2, 151923, Note_on_c, 0, 87, 0
2, 152241, Note_on_c, 0, 82, 0
2, 152304, Note_on_c, 0, 81, 57
2, 152441, Note_on_c, 0, 58, 33
2, 152506, Note_on_c, 0, 81, 0
2, 152620, Note_on_c, 0, 58, 0
2, 152638, Note_on_c, 0, 86, 63
2, 152877, Note_on_c, 0, 86, 0
2, 152976, Note_on_c, 0, 81, 41
2, 153198, Note_on_c, 0, 81, 0
2, 153334, Note_on_c, 0, 84, 72
2, 153451, Note_on_c, 0, 62, 34
2, 153475, Note_on_c, 0, 58, 38
2, 153576, Note_on_c, 0, 62, 0
2, 153623, Note_on_c, 0, 58, 0
2, 153673, Note_on_c, 0, 84, 0
2, 153675, Note_on_c, 0, 82, 73
2, 153968, Note_on_c, 0, 82, 0
2, 154087, Note_on_c, 0, 78, 56
2, 154356, Note_on_c, 0, 78, 0
2, 154448, Note_on_c, 0, 81, 68
2, 154811, Note_on_c, 0, 81, 0
2, 154846, Note_on_c, 0, 80, 67
2, 155001, Note_on_c, 0, 80, 0
2, 155702, Note_on_c, 0, 79, 85
2, 155975, Note_on_c, 0, 79, 0
2, 156278, Note_on_c, 0, 78, 83
2, 156394, Note_on_c, 0, 62, 36
2, 156466, Note_on_c, 0, 59, 29
2, 156540, Note_on_c, 0, 62, 0
2, 156598, Note_on_c, 0, 59, 0
2, 156611, Note_on_c, 0, 78, 0
2, 156717, Note_on_c, 0, 77, 59
2, 157131, Note_on_c, 0, 77, 0
2, 157263, Note_on_c, 0, 74, 63
2, 157310, Note_on_c, 0, 67, 46
2, 157344, Note_on_c, 0, 63, 39
2, 157391, Note_on_c, 0, 62, 36
2, 157398, Note_on_c, 0, 58, 22
2, 157425, Note_on_c, 0, 67, 0
2, 157525, Note_on_c, 0, 58, 0
2, 157537, Note_on_c, 0, 74, 0
2, 157653, Note_on_c, 0, 63, 0
2, 157731, Note_on_c, 0, 75, 67
2, 157749, Note_on_c, 0, 62, 0
2, 158233, Note_on_c, 0, 67, 57
2, 158247, Note_on_c, 0, 75, 0
2, 158374, Note_on_c, 0, 67, 0
2, 158632, Note_on_c, 0, 67, 42
2, 158925, Note_on_c, 0, 67, 0
2, 159134, Note_on_c, 0, 67, 56
2, 159221, Note_on_c, 0, 63, 31
2, 159243, Note_on_c, 0, 58, 26
2, 159344, Note_on_c, 0, 67, 0
2, 159391, Note_on_c, 0, 58, 0
2, 159394, Note_on_c, 0, 63, 0
2, 159555, Note_on_c, 0, 67, 52
2, 159868, Note_on_c, 0, 67, 0
2, 160086, Note_on_c, 0, 69, 57
2, 160155, Note_on_c, 0, 63, 30
2, 160310, Note_on_c, 0, 63, 0
2, 160337, Note_on_c, 0, 69, 0
2, 160534, Note_on_c, 0, 67, 39
2, 160986, Note_on_c, 0, 66, 57
2, 161006, Note_on_c, 0, 63, 50
2, 161011, Note_on_c, 0, 67, 0
2, 161174, Note_on_c, 0, 63, 0
2, 161302, Note_on_c, 0, 66, 0
2, 161432, Note_on_c, 0, 65, 47
2, 161976, Note_on_c, 0, 63, 34
2, 161994, Note_on_c, 0, 65, 0
2, 162111, Note_on_c, 0, 63, 0
2, 162353, Note_on_c, 0, 65, 63
2, 162919, Note_on_c, 0, 65, 0
2, 162931, Note_on_c, 0, 63, 43
2, 163047, Note_on_c, 0, 63, 0
2, 163309, Note_on_c, 0, 65, 54
2, 163692, Note_on_c, 0, 65, 0
2, 163869, Note_on_c, 0, 67, 61
2, 163905, Note_on_c, 0, 63, 55
2, 164124, Note_on_c, 0, 67, 0
2, 164145, Note_on_c, 0, 63, 0
2, 164313, Note_on_c, 0, 68, 72
2, 164738, Note_on_c, 0, 68, 0
2, 164852, Note_on_c, 0, 69, 81
2, 164891, Note_on_c, 0, 65, 54
2, 164902, Note_on_c, 0, 62, 47
2, 164929, Note_on_c, 0, 60, 47
2, 165076, Note_on_c, 0, 65, 0
2, 165191, Note_on_c, 0, 69, 0
2, 165265, Note_on_c, 0, 60, 0
2, 165305, Note_on_c, 0, 72, 76
2, 165383, Note_on_c, 0, 62, 0
2, 165710, Note_on_c, 0, 72, 0
2, 166824, Note_on_c, 0, 65, 48
2, 166839, Note_on_c, 0, 62, 46
2, 166853, Note_on_c, 0, 60, 49
2, 166909, Note_on_c, 0, 65, 0
2, 166976, Note_on_c, 0, 62, 0
2, 167128, Note_on_c, 0, 60, 0
2, 167169, Note_on_c, 0, 74, 47
2, 167272, Note_on_c, 0, 74, 0
2, 167507, Note_on_c, 0, 77, 68
2, 167702, Note_on_c, 0, 77, 0
2, 167794, Note_on_c, 0, 81, 73
2, 168018, Note_on_c, 0, 81, 0
2, 168132, Note_on_c, 0, 84, 66
2, 168331, Note_on_c, 0, 84, 0
2, 168432, Note_on_c, 0, 79, 65
2, 168549, Note_on_c, 0, 79, 0
2, 168775, Note_on_c, 0, 82, 68
2, 168887, Note_on_c, 0, 82, 0
2, 169106, Note_on_c, 0, 86, 56
2, 169332, Note_on_c, 0, 86, 0
2, 169409, Note_on_c, 0, 89, 70
2, 169483, Note_on_c, 0, 89, 0
2, 169720, Note_on_c, 0, 93, 66
2, 169895, Note_on_c, 0, 93, 0
2, 170090, Note_on_c, 0, 96, 88
2, 170112, Note_on_c, 0, 84, 77
2, 170641, Note_on_c, 0, 84, 0
2, 170672, Note_on_c, 0, 96, 0
2, 171606, Note_on_c, 0, 65, 54
2, 171642, Note_on_c, 0, 58, 42
2, 171696, Note_on_c, 0, 60, 42
2, 171720, Note_on_c, 0, 65, 0
2, 171783, Note_on_c, 0, 60, 0
2, 171855, Note_on_c, 0, 58, 0
2, 172856, Note_on_c, 0, 63, 37
2, 172899, Note_on_c, 0, 60, 31
2, 172932, Note_on_c, 0, 55, 39
2, 173279, Note_on_c, 0, 55, 0
2, 173324, Note_on_c, 0, 60, 0
2, 173365, Note_on_c, 0, 63, 0
2, 174384, Note_on_c, 0, 63, 60
2, 174451, Note_on_c, 0, 60, 39
2, 174482, Note_on_c, 0, 63, 0
2, 174552, Note_on_c, 0, 60, 0
2, 174841, Note_on_c, 0, 67, 41
2, 175004, Note_on_c, 0, 67, 0
2, 175390, Note_on_c, 0, 72, 66
2, 175593, Note_on_c, 0, 72, 0
2, 175840, Note_on_c, 0, 74, 107
2, 176185, Note_on_c, 0, 74, 0
2, 176420, Note_on_c, 0, 75, 98
2, 176478, Note_on_c, 0, 60, 58
2, 176483, Note_on_c, 0, 63, 56
2, 176494, Note_on_c, 0, 54, 49
2, 176565, Note_on_c, 0, 63, 0
2, 176590, Note_on_c, 0, 54, 0
2, 176772, Note_on_c, 0, 60, 0
2, 176792, Note_on_c, 0, 75, 0
2, 177069, Note_on_c, 0, 75, 86
2, 177479, Note_on_c, 0, 75, 0
2, 177484, Note_on_c, 0, 60, 24
2, 177665, Note_on_c, 0, 60, 0
2, 177715, Note_on_c, 0, 74, 76
2, 178120, Note_on_c, 0, 74, 0
2, 178342, Note_on_c, 0, 74, 68
2, 178387, Note_on_c, 0, 63, 57
2, 178438, Note_on_c, 0, 60, 43
2, 178443, Note_on_c, 0, 54, 41
2, 178550, Note_on_c, 0, 60, 0
2, 178615, Note_on_c, 0, 63, 0
2, 178678, Note_on_c, 0, 74, 0
2, 178924, Note_on_c, 0, 72, 65
2, 179144, Note_on_c, 0, 54, 0
2, 179292, Note_on_c, 0, 72, 0
2, 179589, Note_on_c, 0, 72, 66
2, 180093, Note_on_c, 0, 72, 0
2, 180181, Note_on_c, 0, 70, 62
2, 180223, Note_on_c, 0, 62, 47
2, 180250, Note_on_c, 0, 58, 41
2, 180286, Note_on_c, 0, 57, 35
2, 180400, Note_on_c, 0, 55, 24
2, 180427, Note_on_c, 0, 57, 0
2, 180438, Note_on_c, 0, 62, 0
2, 180595, Note_on_c, 0, 55, 0
2, 180604, Note_on_c, 0, 58, 0
2, 180613, Note_on_c, 0, 70, 0
2, 180810, Note_on_c, 0, 70, 58
2, 181294, Note_on_c, 0, 62, 31
2, 181350, Note_on_c, 0, 58, 31
2, 181406, Note_on_c, 0, 62, 0
2, 181420, Note_on_c, 0, 70, 0
2, 181493, Note_on_c, 0, 58, 0
2, 181500, Note_on_c, 0, 69, 53
2, 181915, Note_on_c, 0, 69, 0
2, 182177, Note_on_c, 0, 69, 51
2, 182206, Note_on_c, 0, 58, 32
2, 182233, Note_on_c, 0, 62, 29
2, 182271, Note_on_c, 0, 57, 28
2, 182354, Note_on_c, 0, 55, 31
2, 183285, Note_on_c, 0, 57, 0
2, 183337, Note_on_c, 0, 55, 0
2, 183353, Note_on_c, 0, 58, 0
2, 183357, Note_on_c, 0, 62, 0
2, 183980, Note_on_c, 0, 58, 50
2, 183991, Note_on_c, 0, 62, 45
2, 184016, Note_on_c, 0, 57, 50
2, 184108, Note_on_c, 0, 57, 0
2, 184175, Note_on_c, 0, 62, 0
2, 184262, Note_on_c, 0, 58, 0
2, 184620, Note_on_c, 0, 62, 37
2, 184625, Note_on_c, 0, 58, 43
2, 184679, Note_on_c, 0, 57, 36
2, 184912, Note_on_c, 0, 57, 0
2, 184925, Note_on_c, 0, 62, 0
2, 184986, Note_on_c, 0, 58, 0
2, 185380, Note_on_c, 0, 62, 37
2, 185382, Note_on_c, 0, 58, 42
2, 185443, Note_on_c, 0, 57, 31
2, 185590, Note_on_c, 0, 57, 0
2, 185602, Note_on_c, 0, 62, 0
2, 185653, Note_on_c, 0, 58, 0
2, 186079, Note_on_c, 0, 62, 37
2, 186088, Note_on_c, 0, 58, 41
2, 186139, Note_on_c, 0, 57, 33
2, 187004, Note_on_c, 0, 57, 0
2, 187123, Note_on_c, 0, 58, 0
2, 187394, Note_on_c, 0, 62, 0
2, 187759, Note_on_c, 0, 69, 0
2, 187808, Note_on_c, 0, 66, 66
2, 187889, Note_on_c, 0, 60, 40
2, 188164, Note_on_c, 0, 66, 0
2, 188173, Note_on_c, 0, 67, 71
2, 188496, Note_on_c, 0, 67, 0
2, 188505, Note_on_c, 0, 60, 0
2, 188605, Note_on_c, 0, 69, 87
2, 189011, Note_on_c, 0, 63, 41
2, 189065, Note_on_c, 0, 60, 26
2, 189179, Note_on_c, 0, 63, 0
2, 189206, Note_on_c, 0, 69, 0
2, 189273, Note_on_c, 0, 67, 57
2, 189752, Note_on_c, 0, 67, 0
2, 189858, Note_on_c, 0, 69, 72
2, 189934, Note_on_c, 0, 60, 0
2, 190259, Note_on_c, 0, 69, 0
2, 190458, Note_on_c, 0, 72, 66
2, 190633, Note_on_c, 0, 63, 48
2, 190727, Note_on_c, 0, 63, 0
2, 190798, Note_on_c, 0, 60, 25
2, 190989, Note_on_c, 0, 60, 0
2, 191054, Note_on_c, 0, 72, 0
2, 191170, Note_on_c, 0, 66, 57
2, 191735, Note_on_c, 0, 66, 0
2, 192138, Note_on_c, 0, 63, 43
2, 192230, Note_on_c, 0, 60, 31
2, 192319, Note_on_c, 0, 57, 19
2, 192440, Note_on_c, 0, 63, 0
2, 192465, Note_on_c, 0, 60, 0
2, 192481, Note_on_c, 0, 57, 0
2, 193654, Note_on_c, 0, 63, 48
2, 193719, Note_on_c, 0, 54, 39
2, 193728, Note_on_c, 0, 60, 35
2, 194049, Note_on_c, 0, 60, 0
2, 194062, Note_on_c, 0, 63, 0
2, 194100, Note_on_c, 0, 54, 0
2, 195581, Note_on_c, 0, 57, 33
2, 195585, Note_on_c, 0, 58, 40
2, 195612, Note_on_c, 0, 62, 29
2, 195655, Note_on_c, 0, 55, 38
2, 196170, Note_on_c, 0, 62, 0
2, 196172, Note_on_c, 0, 57, 0
2, 196242, Note_on_c, 0, 58, 0
2, 196275, Note_on_c, 0, 55, 0
2, 197505, Note_on_c, 0, 62, 43
2, 197527, Note_on_c, 0, 58, 42
2, 197556, Note_on_c, 0, 57, 39
2, 197626, Note_on_c, 0, 62, 0
2, 197662, Note_on_c, 0, 55, 31
2, 197758, Note_on_c, 0, 57, 0
2, 197767, Note_on_c, 0, 58, 0
2, 197805, Note_on_c, 0, 55, 0
2, 197884, Note_on_c, 0, 70, 90
2, 198428, Note_on_c, 0, 70, 0
2, 198508, Note_on_c, 0, 69, 50
2, 198596, Note_on_c, 0, 58, 28
2, 198712, Note_on_c, 0, 69, 0
2, 198735, Note_on_c, 0, 58, 0
2, 198860, Note_on_c, 0, 70, 79
2, 199469, Note_on_c, 0, 70, 0
2, 200415, Note_on_c, 0, 58, 43
2, 200437, Note_on_c, 0, 62, 33
2, 200460, Note_on_c, 0, 57, 35
2, 200516, Note_on_c, 0, 55, 42
2, 201051, Note_on_c, 0, 58, 0
2, 201078, Note_on_c, 0, 57, 0
2, 201315, Note_on_c, 0, 58, 35
2, 201645, Note_on_c, 0, 62, 0
2, 201658, Note_on_c, 0, 58, 0
2, 201705, Note_on_c, 0, 72, 88
2, 202216, Note_on_c, 0, 72, 0
2, 202301, Note_on_c, 0, 70, 60
2, 202334, Note_on_c, 0, 58, 46
2, 202343, Note_on_c, 0, 55, 0
2, 202366, Note_on_c, 0, 62, 39
2, 202473, Note_on_c, 0, 58, 0
2, 202547, Note_on_c, 0, 62, 0
2, 202657, Note_on_c, 0, 70, 0
2, 202704, Note_on_c, 0, 71, 52
2, 203201, Note_on_c, 0, 71, 0
2, 203327, Note_on_c, 0, 74, 81
2, 203437, Note_on_c, 0, 67, 41
2, 203459, Note_on_c, 0, 63, 40
2, 203486, Note_on_c, 0, 58, 30
2, 203538, Note_on_c, 0, 62, 33
2, 203652, Note_on_c, 0, 74, 0
2, 203815, Note_on_c, 0, 71, 49
2, 204189, Note_on_c, 0, 71, 0
2, 204333, Note_on_c, 0, 72, 67
2, 204480, Note_on_c, 0, 67, 0
2, 204566, Note_on_c, 0, 62, 0
2, 204617, Note_on_c, 0, 72, 0
2, 204631, Note_on_c, 0, 63, 0
2, 204747, Note_on_c, 0, 74, 63
2, 205119, Note_on_c, 0, 74, 0
2, 205233, Note_on_c, 0, 75, 70
2, 205289, Note_on_c, 0, 67, 42
2, 205309, Note_on_c, 0, 63, 39
2, 205341, Note_on_c, 0, 62, 30
2, 205462, Note_on_c, 0, 67, 0
2, 205468, Note_on_c, 0, 75, 0
2, 205668, Note_on_c, 0, 79, 66
2, 205867, Note_on_c, 0, 63, 0
2, 205914, Note_on_c, 0, 62, 0
2, 206066, Note_on_c, 0, 79, 0
2, 206216, Note_on_c, 0, 83, 78
2, 206290, Note_on_c, 0, 63, 39
2, 206411, Note_on_c, 0, 83, 0
2, 206602, Note_on_c, 0, 86, 115
2, 206711, Note_on_c, 0, 63, 0
2, 207177, Note_on_c, 0, 84, 70
2, 207191, Note_on_c, 0, 86, 0
2, 207198, Note_on_c, 0, 58, 0
2, 207496, Note_on_c, 0, 84, 0
2, 207574, Note_on_c, 0, 67, 32
2, 207599, Note_on_c, 0, 63, 38
2, 207637, Note_on_c, 0, 78, 67
2, 207659, Note_on_c, 0, 57, 34
2, 208143, Note_on_c, 0, 78, 0
2, 208347, Note_on_c, 0, 78, 63
2, 208461, Note_on_c, 0, 67, 0
2, 208555, Note_on_c, 0, 63, 0
2, 208779, Note_on_c, 0, 57, 0
2, 208902, Note_on_c, 0, 78, 0
2, 209218, Note_on_c, 0, 78, 67
2, 209288, Note_on_c, 0, 63, 39
2, 209294, Note_on_c, 0, 67, 32
2, 209375, Note_on_c, 0, 57, 31
2, 210009, Note_on_c, 0, 78, 0
2, 210116, Note_on_c, 0, 86, 79
2, 210461, Note_on_c, 0, 86, 0
2, 210482, Note_on_c, 0, 67, 0
2, 210553, Note_on_c, 0, 57, 0
2, 210587, Note_on_c, 0, 78, 49
2, 210853, Note_on_c, 0, 63, 0
2, 211106, Note_on_c, 0, 78, 0
2, 211109, Note_on_c, 0, 77, 57
2, 211196, Note_on_c, 0, 62, 39
2, 211218, Note_on_c, 0, 65, 24
2, 211328, Note_on_c, 0, 55, 29
2, 211447, Note_on_c, 0, 77, 0
2, 211734, Note_on_c, 0, 76, 31
2, 212025, Note_on_c, 0, 76, 0
2, 212383, Note_on_c, 0, 55, 0
2, 212448, Note_on_c, 0, 62, 0
2, 212457, Note_on_c, 0, 65, 0
2, 212941, Note_on_c, 0, 65, 46
2, 213015, Note_on_c, 0, 62, 39
2, 213046, Note_on_c, 0, 60, 37
2, 213091, Note_on_c, 0, 55, 34
2, 213496, Note_on_c, 0, 62, 0
2, 213516, Note_on_c, 0, 60, 0
2, 213727, Note_on_c, 0, 65, 0
2, 213837, Note_on_c, 0, 84, 89
2, 214144, Note_on_c, 0, 84, 0
2, 214262, Note_on_c, 0, 76, 48
2, 214394, Note_on_c, 0, 55, 0
2, 214800, Note_on_c, 0, 75, 63
2, 214851, Note_on_c, 0, 65, 43
2, 214856, Note_on_c, 0, 76, 0
2, 214899, Note_on_c, 0, 60, 40
2, 214939, Note_on_c, 0, 55, 37
2, 215123, Note_on_c, 0, 75, 0
2, 215302, Note_on_c, 0, 74, 43
2, 215651, Note_on_c, 0, 74, 0
2, 215759, Note_on_c, 0, 82, 77
2, 216021, Note_on_c, 0, 65, 0
2, 216034, Note_on_c, 0, 82, 0
2, 216133, Note_on_c, 0, 74, 57
2, 216272, Note_on_c, 0, 60, 0
2, 216554, Note_on_c, 0, 74, 0
2, 216673, Note_on_c, 0, 73, 52
2, 216845, Note_on_c, 0, 55, 0
2, 216971, Note_on_c, 0, 73, 0
2, 217154, Note_on_c, 0, 72, 36
2, 217497, Note_on_c, 0, 72, 0
2, 217638, Note_on_c, 0, 81, 77
2, 217719, Note_on_c, 0, 65, 31
2, 217833, Note_on_c, 0, 60, 22
2, 217837, Note_on_c, 0, 65, 0
2, 217875, Note_on_c, 0, 81, 0
2, 217985, Note_on_c, 0, 72, 48
2, 218021, Note_on_c, 0, 60, 0
2, 218339, Note_on_c, 0, 72, 0
2, 218583, Note_on_c, 0, 72, 46
2, 218595, Note_on_c, 0, 71, 41
2, 218637, Note_on_c, 0, 60, 57
2, 218700, Note_on_c, 0, 71, 0
2, 218845, Note_on_c, 0, 72, 0
2, 218964, Note_on_c, 0, 60, 0
2, 219063, Note_on_c, 0, 70, 46
2, 219564, Note_on_c, 0, 70, 0
2, 219654, Note_on_c, 0, 69, 39
2, 219658, Note_on_c, 0, 63, 41
2, 219804, Note_on_c, 0, 69, 0
2, 219827, Note_on_c, 0, 55, 25
2, 219914, Note_on_c, 0, 57, 22
2, 219972, Note_on_c, 0, 75, 78
2, 220006, Note_on_c, 0, 55, 0
2, 220077, Note_on_c, 0, 63, 0
2, 220203, Note_on_c, 0, 57, 0
2, 220389, Note_on_c, 0, 75, 0
2, 220902, Note_on_c, 0, 74, 67
2, 221352, Note_on_c, 0, 74, 0
2, 221462, Note_on_c, 0, 72, 61
2, 221477, Note_on_c, 0, 63, 50
2, 221574, Note_on_c, 0, 63, 0
2, 221704, Note_on_c, 0, 72, 0
2, 221845, Note_on_c, 0, 67, 43
2, 222226, Note_on_c, 0, 67, 0
2, 222382, Note_on_c, 0, 63, 52
2, 222768, Note_on_c, 0, 63, 0
2, 222804, Note_on_c, 0, 60, 47
2, 223258, Note_on_c, 0, 60, 0
2, 223433, Note_on_c, 0, 62, 58
2, 223476, Note_on_c, 0, 60, 47
2, 223549, Note_on_c, 0, 54, 34
2, 223572, Note_on_c, 0, 60, 0
2, 223686, Note_on_c, 0, 54, 0
2, 223731, Note_on_c, 0, 62, 0
2, 223861, Note_on_c, 0, 63, 48
2, 224246, Note_on_c, 0, 63, 0
2, 224340, Note_on_c, 0, 64, 56
2, 224394, Note_on_c, 0, 65, 48
2, 224484, Note_on_c, 0, 54, 26
2, 224517, Note_on_c, 0, 65, 0
2, 224544, Note_on_c, 0, 64, 0
2, 224620, Note_on_c, 0, 54, 0
2, 224676, Note_on_c, 0, 66, 57
2, 224970, Note_on_c, 0, 66, 0
2, 225046, Note_on_c, 0, 68, 63
2, 225169, Note_on_c, 0, 68, 0
2, 225353, Note_on_c, 0, 71, 48
2, 225373, Note_on_c, 0, 60, 43
2, 225411, Note_on_c, 0, 54, 38
2, 225639, Note_on_c, 0, 71, 0
2, 225662, Note_on_c, 0, 73, 63
2, 225693, Note_on_c, 0, 54, 0
2, 225727, Note_on_c, 0, 60, 0
2, 225839, Note_on_c, 0, 73, 0
2, 226065, Note_on_c, 0, 74, 58
2, 226287, Note_on_c, 0, 74, 0
2, 226376, Note_on_c, 0, 77, 92
2, 226724, Note_on_c, 0, 77, 0
2, 226755, Note_on_c, 0, 74, 63
2, 226860, Note_on_c, 0, 58, 21
2, 226997, Note_on_c, 0, 58, 0
2, 227084, Note_on_c, 0, 74, 0
2, 227165, Note_on_c, 0, 70, 63
2, 227411, Note_on_c, 0, 70, 0
2, 227579, Note_on_c, 0, 69, 38
2, 227709, Note_on_c, 0, 69, 0
2, 229434, Note_on_c, 0, 64, 50
2, 229438, Note_on_c, 0, 54, 50
2, 229481, Note_on_c, 0, 60, 47
2, 229761, Note_on_c, 0, 60, 0
2, 229821, Note_on_c, 0, 54, 0
2, 229853, Note_on_c, 0, 64, 0
2, 230469, Note_on_c, 0, 67, 48
2, 230489, Note_on_c, 0, 63, 51
2, 230518, Note_on_c, 0, 60, 38
2, 230529, Note_on_c, 0, 56, 38
2, 231535, Note_on_c, 0, 67, 0
2, 231587, Note_on_c, 0, 56, 0
2, 231676, Note_on_c, 0, 63, 0
2, 231694, Note_on_c, 0, 60, 0
2, 232026, Note_on_c, 0, 66, 61
2, 232102, Note_on_c, 0, 56, 39
2, 232109, Note_on_c, 0, 62, 46
2, 232192, Note_on_c, 0, 60, 34
2, 232794, Note_on_c, 0, 60, 0
2, 232796, Note_on_c, 0, 62, 0
2, 233217, Note_on_c, 0, 62, 19
2, 233240, Note_on_c, 0, 66, 0
2, 233433, Note_on_c, 0, 62, 0
2, 233829, Note_on_c, 0, 56, 0
2, 233970, Note_on_c, 0, 65, 42
2, 233997, Note_on_c, 0, 62, 43
2, 234093, Note_on_c, 0, 55, 23
2, 234203, Note_on_c, 0, 65, 0
2, 234308, Note_on_c, 0, 62, 0
2, 234391, Note_on_c, 0, 74, 51
2, 234423, Note_on_c, 0, 86, 43
2, 234474, Note_on_c, 0, 55, 0
2, 234483, Note_on_c, 0, 74, 0
2, 234512, Note_on_c, 0, 86, 0
2, 234747, Note_on_c, 0, 82, 59
2, 234821, Note_on_c, 0, 82, 0
2, 235048, Note_on_c, 0, 86, 76
2, 235050, Note_on_c, 0, 65, 24
2, 235063, Note_on_c, 0, 62, 37
2, 235081, Note_on_c, 0, 74, 62
2, 235175, Note_on_c, 0, 65, 0
2, 235218, Note_on_c, 0, 62, 0
2, 235242, Note_on_c, 0, 74, 0
2, 235247, Note_on_c, 0, 86, 0
2, 235361, Note_on_c, 0, 82, 63
2, 235594, Note_on_c, 0, 82, 0
2, 235755, Note_on_c, 0, 79, 33
2, 235849, Note_on_c, 0, 79, 0
2, 235943, Note_on_c, 0, 74, 62
2, 236089, Note_on_c, 0, 74, 0
2, 236181, Note_on_c, 0, 60, 22
2, 236284, Note_on_c, 0, 70, 54
2, 236351, Note_on_c, 0, 60, 0
2, 236571, Note_on_c, 0, 70, 0
2, 237209, Note_on_c, 0, 60, 26
2, 237225, Note_on_c, 0, 62, 22
2, 237290, Note_on_c, 0, 55, 28
2, 237328, Note_on_c, 0, 62, 0
2, 237335, Note_on_c, 0, 60, 0
2, 237485, Note_on_c, 0, 55, 0
2, 238098, Note_on_c, 0, 63, 43
2, 238132, Note_on_c, 0, 55, 40
2, 238174, Note_on_c, 0, 60, 35
2, 238224, Note_on_c, 0, 57, 25
2, 238295, Note_on_c, 0, 60, 0
2, 238358, Note_on_c, 0, 57, 0
2, 238360, Note_on_c, 0, 63, 0
2, 238374, Note_on_c, 0, 55, 0
2, 239653, Note_on_c, 0, 65, 54
2, 239666, Note_on_c, 0, 54, 52
2, 239684, Note_on_c, 0, 60, 52
2, 239794, Note_on_c, 0, 65, 0
2, 239884, Note_on_c, 0, 54, 0
2, 240020, Note_on_c, 0, 87, 63
2, 240036, Note_on_c, 0, 60, 0
2, 240065, Note_on_c, 0, 75, 50
2, 240114, Note_on_c, 0, 87, 0
2, 240150, Note_on_c, 0, 75, 0
2, 240444, Note_on_c, 0, 84, 41
2, 240531, Note_on_c, 0, 84, 0
2, 240674, Note_on_c, 0, 87, 75
2, 240750, Note_on_c, 0, 65, 41
2, 240753, Note_on_c, 0, 54, 49
2, 240782, Note_on_c, 0, 60, 48
2, 240849, Note_on_c, 0, 58, 31
2, 240878, Note_on_c, 0, 65, 0
2, 240930, Note_on_c, 0, 60, 0
2, 240939, Note_on_c, 0, 87, 0
2, 240992, Note_on_c, 0, 58, 0
2, 241064, Note_on_c, 0, 84, 45
2, 241239, Note_on_c, 0, 54, 0
2, 241293, Note_on_c, 0, 84, 0
2, 241349, Note_on_c, 0, 80, 38
2, 241613, Note_on_c, 0, 80, 0
2, 241617, Note_on_c, 0, 75, 46
2, 241635, Note_on_c, 0, 62, 57
2, 241664, Note_on_c, 0, 58, 41
2, 241694, Note_on_c, 0, 57, 45
2, 241716, Note_on_c, 0, 75, 0
2, 241790, Note_on_c, 0, 57, 0
2, 241797, Note_on_c, 0, 55, 27
2, 241826, Note_on_c, 0, 62, 0
2, 241886, Note_on_c, 0, 58, 0
2, 241956, Note_on_c, 0, 55, 0
2, 242065, Note_on_c, 0, 86, 65
2, 242090, Note_on_c, 0, 74, 49
2, 242150, Note_on_c, 0, 86, 0
2, 242267, Note_on_c, 0, 74, 0
2, 242410, Note_on_c, 0, 82, 48
2, 242491, Note_on_c, 0, 82, 0
2, 242684, Note_on_c, 0, 86, 79
2, 242717, Note_on_c, 0, 74, 63
2, 242758, Note_on_c, 0, 58, 48
2, 242766, Note_on_c, 0, 62, 46
2, 242814, Note_on_c, 0, 57, 39
2, 242861, Note_on_c, 0, 62, 0
2, 242899, Note_on_c, 0, 74, 0
2, 242941, Note_on_c, 0, 57, 0
2, 242966, Note_on_c, 0, 86, 0
2, 242977, Note_on_c, 0, 58, 0
2, 243006, Note_on_c, 0, 82, 54
2, 243286, Note_on_c, 0, 82, 0
2, 243349, Note_on_c, 0, 79, 39
2, 243494, Note_on_c, 0, 79, 0
2, 243662, Note_on_c, 0, 74, 43
2, 243761, Note_on_c, 0, 74, 0
2, 243808, Note_on_c, 0, 58, 37
2, 243927, Note_on_c, 0, 58, 0
2, 244635, Note_on_c, 0, 62, 43
2, 244646, Note_on_c, 0, 58, 42
2, 244659, Note_on_c, 0, 55, 46
2, 244744, Note_on_c, 0, 62, 0
2, 244758, Note_on_c, 0, 55, 0
2, 244760, Note_on_c, 0, 58, 0
2, 245490, Note_on_c, 0, 63, 62
2, 245515, Note_on_c, 0, 59, 52
2, 245573, Note_on_c, 0, 63, 0
2, 245880, Note_on_c, 0, 94, 79
2, 245947, Note_on_c, 0, 59, 0
2, 246082, Note_on_c, 0, 94, 0
2, 246156, Note_on_c, 0, 92, 56
2, 246337, Note_on_c, 0, 92, 0
2, 246523, Note_on_c, 0, 94, 99
2, 246532, Note_on_c, 0, 63, 63
2, 246541, Note_on_c, 0, 59, 56
2, 246608, Note_on_c, 0, 63, 0
2, 246778, Note_on_c, 0, 94, 0
2, 246866, Note_on_c, 0, 59, 0
2, 246868, Note_on_c, 0, 92, 68
2, 247175, Note_on_c, 0, 87, 60
2, 247177, Note_on_c, 0, 92, 0
2, 247432, Note_on_c, 0, 87, 0
2, 247477, Note_on_c, 0, 59, 47
2, 247484, Note_on_c, 0, 63, 48
2, 247551, Note_on_c, 0, 83, 49
2, 247587, Note_on_c, 0, 59, 0
2, 247591, Note_on_c, 0, 63, 0
2, 247715, Note_on_c, 0, 83, 0
2, 247842, Note_on_c, 0, 82, 63
2, 248089, Note_on_c, 0, 82, 0
2, 248474, Note_on_c, 0, 80, 83
2, 248658, Note_on_c, 0, 80, 0
2, 248846, Note_on_c, 0, 79, 75
2, 249079, Note_on_c, 0, 79, 0
2, 249249, Note_on_c, 0, 80, 48
2, 249363, Note_on_c, 0, 80, 0
2, 249368, Note_on_c, 0, 79, 54
2, 249625, Note_on_c, 0, 67, 36
2, 249643, Note_on_c, 0, 79, 0
2, 249704, Note_on_c, 0, 63, 28
2, 249717, Note_on_c, 0, 77, 52
2, 249746, Note_on_c, 0, 67, 0
2, 249861, Note_on_c, 0, 63, 0
2, 250300, Note_on_c, 0, 77, 0
2, 250342, Note_on_c, 0, 75, 72
2, 250456, Note_on_c, 0, 67, 43
2, 250506, Note_on_c, 0, 63, 36
2, 250562, Note_on_c, 0, 67, 0
2, 250649, Note_on_c, 0, 63, 0
2, 250761, Note_on_c, 0, 75, 0
2, 250835, Note_on_c, 0, 74, 48
2, 251229, Note_on_c, 0, 74, 0
2, 251337, Note_on_c, 0, 77, 68
2, 251375, Note_on_c, 0, 67, 50
2, 251444, Note_on_c, 0, 63, 36
2, 251455, Note_on_c, 0, 67, 0
2, 251581, Note_on_c, 0, 63, 0
2, 251614, Note_on_c, 0, 77, 0
2, 251735, Note_on_c, 0, 75, 49
2, 252213, Note_on_c, 0, 75, 0
2, 252273, Note_on_c, 0, 67, 54
2, 252327, Note_on_c, 0, 63, 34
2, 252450, Note_on_c, 0, 63, 0
2, 252573, Note_on_c, 0, 67, 0
2, 252638, Note_on_c, 0, 66, 50
2, 253205, Note_on_c, 0, 66, 0
2, 253252, Note_on_c, 0, 60, 52
2, 253355, Note_on_c, 0, 60, 0
2, 253572, Note_on_c, 0, 65, 59
2, 254072, Note_on_c, 0, 65, 0
2, 254159, Note_on_c, 0, 60, 59
2, 254193, Note_on_c, 0, 56, 56
2, 254267, Note_on_c, 0, 56, 0
2, 254291, Note_on_c, 0, 60, 0
2, 254466, Note_on_c, 0, 64, 71
2, 255151, Note_on_c, 0, 58, 47
2, 255174, Note_on_c, 0, 60, 49
2, 255176, Note_on_c, 0, 64, 0
2, 255232, Note_on_c, 0, 58, 0
2, 255337, Note_on_c, 0, 60, 0
2, 255465, Note_on_c, 0, 63, 68
2, 256121, Note_on_c, 0, 60, 55
2, 256130, Note_on_c, 0, 54, 40
2, 256137, Note_on_c, 0, 63, 0
2, 256224, Note_on_c, 0, 54, 0
2, 256303, Note_on_c, 0, 60, 0
2, 256404, Note_on_c, 0, 61, 70
2, 257100, Note_on_c, 0, 57, 55
2, 257136, Note_on_c, 0, 53, 42
2, 257152, Note_on_c, 0, 61, 0
2, 257230, Note_on_c, 0, 57, 0
2, 257237, Note_on_c, 0, 53, 0
2, 257391, Note_on_c, 0, 62, 66
2, 258097, Note_on_c, 0, 53, 41
2, 258110, Note_on_c, 0, 57, 50
2, 258193, Note_on_c, 0, 62, 0
2, 258209, Note_on_c, 0, 57, 0
2, 258209, Note_on_c, 0, 53, 0
2, 258370, Note_on_c, 0, 60, 68
2, 258935, Note_on_c, 0, 60, 0
2, 259040, Note_on_c, 0, 53, 50
2, 259103, Note_on_c, 0, 46, 39
2, 259134, Note_on_c, 0, 53, 0
2, 259208, Note_on_c, 0, 46, 0
2, 259340, Note_on_c, 0, 57, 72
2, 259815, Note_on_c, 0, 57, 0
2, 259983, Note_on_c, 0, 46, 49
2, 260039, Note_on_c, 0, 50, 39
2, 260079, Note_on_c, 0, 46, 0
2, 260136, Note_on_c, 0, 50, 0
2, 260158, Note_on_c, 0, 54, 69
2, 260232, Note_on_c, 0, 54, 0
2, 260261, Note_on_c, 0, 55, 77
2, 260821, Note_on_c, 0, 55, 0
2, 260877, Note_on_c, 0, 39, 99
2, 260922, Note_on_c, 0, 27, 75
2, 260964, Note_on_c, 0, 50, 42
2, 261000, Note_on_c, 0, 27, 0
2, 261058, Note_on_c, 0, 50, 0
2, 261061, Note_on_c, 0, 39, 0
2, 261264, Note_on_c, 0, 53, 48
2, 261282, Note_on_c, 0, 54, 41
2, 261556, Note_on_c, 0, 54, 0
2, 261842, Note_on_c, 0, 53, 0
2, 261979, Note_on_c, 0, 48, 34
2, 261997, Note_on_c, 0, 47, 48
2, 262078, Note_on_c, 0, 47, 0
2, 262288, Note_on_c, 0, 48, 0
2, 262344, Note_on_c, 0, 50, 49
2, 262837, Note_on_c, 0, 39, 48
2, 262877, Note_on_c, 0, 51, 68
2, 262918, Note_on_c, 0, 50, 0
2, 262927, Note_on_c, 0, 39, 0
2, 263164, Note_on_c, 0, 51, 0
2, 263316, Note_on_c, 0, 53, 38
2, 263632, Note_on_c, 0, 53, 0
2, 263767, Note_on_c, 0, 55, 67
2, 264047, Note_on_c, 0, 55, 0
2, 264271, Note_on_c, 0, 57, 49
2, 264649, Note_on_c, 0, 57, 0
2, 264725, Note_on_c, 0, 58, 63
2, 264804, Note_on_c, 0, 45, 50
2, 264835, Note_on_c, 0, 55, 37
2, 264911, Note_on_c, 0, 45, 0
2, 264936, Note_on_c, 0, 55, 0
2, 264990, Note_on_c, 0, 58, 0
2, 265211, Note_on_c, 0, 60, 33
2, 265529, Note_on_c, 0, 60, 0
2, 265702, Note_on_c, 0, 63, 60
2, 265933, Note_on_c, 0, 63, 0
2, 266159, Note_on_c, 0, 67, 49
2, 266430, Note_on_c, 0, 67, 0
2, 266685, Note_on_c, 0, 72, 85
2, 266721, Note_on_c, 0, 63, 64
2, 266764, Note_on_c, 0, 60, 39
2, 266779, Note_on_c, 0, 57, 39
2, 266799, Note_on_c, 0, 63, 0
2, 266858, Note_on_c, 0, 60, 0
2, 266891, Note_on_c, 0, 57, 0
2, 266914, Note_on_c, 0, 72, 0
2, 267133, Note_on_c, 0, 75, 74
2, 267272, Note_on_c, 0, 75, 0
2, 267653, Note_on_c, 0, 79, 76
2, 267660, Note_on_c, 0, 63, 72
2, 267734, Note_on_c, 0, 63, 0
2, 267736, Note_on_c, 0, 79, 0
2, 268067, Note_on_c, 0, 84, 85
2, 268258, Note_on_c, 0, 84, 0
2, 268589, Note_on_c, 0, 87, 85
2, 268605, Note_on_c, 0, 65, 63
2, 268623, Note_on_c, 0, 58, 56
2, 268636, Note_on_c, 0, 60, 55
2, 268677, Note_on_c, 0, 65, 0
2, 268694, Note_on_c, 0, 58, 0
2, 268708, Note_on_c, 0, 60, 0
2, 268775, Note_on_c, 0, 87, 0
2, 269037, Note_on_c, 0, 54, 56
2, 269051, Note_on_c, 0, 65, 57
2, 269082, Note_on_c, 0, 58, 42
2, 269104, Note_on_c, 0, 77, 84
2, 269113, Note_on_c, 0, 89, 79
2, 269140, Note_on_c, 0, 60, 46
2, 269593, Note_on_c, 0, 65, 0
2, 269595, Note_on_c, 0, 60, 0
2, 269597, Note_on_c, 0, 77, 0
2, 269624, Note_on_c, 0, 54, 0
2, 269638, Note_on_c, 0, 58, 0
2, 269651, Note_on_c, 0, 89, 0
2, 269935, Note_on_c, 0, 89, 68
2, 269949, Note_on_c, 0, 77, 75
2, 269956, Note_on_c, 0, 65, 63
2, 269976, Note_on_c, 0, 54, 54
2, 270021, Note_on_c, 0, 58, 51
2, 270032, Note_on_c, 0, 60, 51
2, 270350, Note_on_c, 0, 65, 0
2, 270352, Note_on_c, 0, 89, 0
2, 270372, Note_on_c, 0, 60, 0
2, 270413, Note_on_c, 0, 54, 0
2, 270430, Note_on_c, 0, 58, 0
2, 270484, Note_on_c, 0, 77, 0
2, 270628, Note_on_c, 0, 87, 61
2, 270639, Note_on_c, 0, 54, 41
2, 270697, Note_on_c, 0, 65, 29
2, 270715, Note_on_c, 0, 58, 31
2, 270807, Note_on_c, 0, 65, 0
2, 270876, Note_on_c, 0, 54, 0
2, 270896, Note_on_c, 0, 58, 0
2, 270899, Note_on_c, 0, 87, 0
2, 271286, Note_on_c, 0, 65, 60
2, 271291, Note_on_c, 0, 89, 76
2, 271315, Note_on_c, 0, 58, 46
2, 271322, Note_on_c, 0, 77, 70
2, 271326, Note_on_c, 0, 54, 50
2, 271367, Note_on_c, 0, 60, 46
2, 271526, Note_on_c, 0, 65, 0
2, 271622, Note_on_c, 0, 89, 0
2, 271627, Note_on_c, 0, 58, 0
2, 271649, Note_on_c, 0, 54, 0
2, 271662, Note_on_c, 0, 60, 0
2, 271692, Note_on_c, 0, 77, 0
2, 271951, Note_on_c, 0, 65, 57
2, 271963, Note_on_c, 0, 54, 56
2, 271972, Note_on_c, 0, 89, 63
2, 271978, Note_on_c, 0, 77, 54
2, 271996, Note_on_c, 0, 58, 45
2, 272097, Note_on_c, 0, 60, 29
2, 272169, Note_on_c, 0, 65, 0
2, 272216, Note_on_c, 0, 60, 0
2, 272352, Note_on_c, 0, 89, 0
2, 272355, Note_on_c, 0, 58, 0
2, 272397, Note_on_c, 0, 77, 0
2, 272476, Note_on_c, 0, 54, 0
2, 272626, Note_on_c, 0, 87, 58
2, 272644, Note_on_c, 0, 58, 39
2, 272686, Note_on_c, 0, 57, 40
2, 272693, Note_on_c, 0, 62, 40
2, 272854, Note_on_c, 0, 62, 0
2, 272919, Note_on_c, 0, 57, 0
2, 272955, Note_on_c, 0, 58, 0
2, 273006, Note_on_c, 0, 87, 0
2, 273266, Note_on_c, 0, 90, 63
2, 273289, Note_on_c, 0, 78, 61
2, 273349, Note_on_c, 0, 90, 0
2, 273367, Note_on_c, 0, 58, 43
2, 273372, Note_on_c, 0, 62, 32
2, 273378, Note_on_c, 0, 57, 41
2, 273419, Note_on_c, 0, 55, 47
2, 273457, Note_on_c, 0, 91, 65
2, 273459, Note_on_c, 0, 78, 0
2, 273517, Note_on_c, 0, 79, 60
2, 273602, Note_on_c, 0, 89, 31
2, 273752, Note_on_c, 0, 57, 0
2, 273755, Note_on_c, 0, 91, 0
2, 273764, Note_on_c, 0, 55, 0
2, 273775, Note_on_c, 0, 79, 0
2, 273777, Note_on_c, 0, 62, 0
2, 273786, Note_on_c, 0, 58, 0
2, 273788, Note_on_c, 0, 89, 0
2, 273992, Note_on_c, 0, 91, 57
2, 274017, Note_on_c, 0, 62, 48
2, 274028, Note_on_c, 0, 79, 59
2, 274050, Note_on_c, 0, 58, 45
2, 274102, Note_on_c, 0, 55, 37
2, 274109, Note_on_c, 0, 57, 41
2, 274227, Note_on_c, 0, 57, 0
2, 274279, Note_on_c, 0, 55, 0
2, 274292, Note_on_c, 0, 62, 0
2, 274319, Note_on_c, 0, 79, 0
2, 274335, Note_on_c, 0, 58, 0
2, 274357, Note_on_c, 0, 91, 0
2, 274628, Note_on_c, 0, 62, 48
2, 274648, Note_on_c, 0, 58, 39
2, 274713, Note_on_c, 0, 55, 29
2, 274734, Note_on_c, 0, 62, 0
2, 274803, Note_on_c, 0, 58, 0
2, 274843, Note_on_c, 0, 55, 0
2, 275130, Note_on_c, 0, 93, 80
2, 275152, Note_on_c, 0, 62, 54
2, 275161, Note_on_c, 0, 86, 59
2, 275168, Note_on_c, 0, 81, 64
2, 275188, Note_on_c, 0, 58, 56
2, 275197, Note_on_c, 0, 57, 47
2, 275213, Note_on_c, 0, 55, 43
2, 275453, Note_on_c, 0, 62, 0
2, 275477, Note_on_c, 0, 86, 0
2, 275511, Note_on_c, 0, 81, 0
2, 275513, Note_on_c, 0, 57, 0
2, 275535, Note_on_c, 0, 55, 0
2, 275549, Note_on_c, 0, 58, 0
2, 275549, Note_on_c, 0, 93, 0
2, 275759, Note_on_c, 0, 93, 61
2, 275780, Note_on_c, 0, 58, 42
2, 275791, Note_on_c, 0, 62, 48
2, 275818, Note_on_c, 0, 81, 54
2, 275820, Note_on_c, 0, 55, 40
2, 275831, Note_on_c, 0, 57, 38
2, 275894, Note_on_c, 0, 86, 40
2, 276039, Note_on_c, 0, 81, 0
2, 276048, Note_on_c, 0, 93, 0
2, 276098, Note_on_c, 0, 55, 0
2, 276107, Note_on_c, 0, 57, 0
2, 276142, Note_on_c, 0, 62, 0
2, 276151, Note_on_c, 0, 58, 0
2, 276154, Note_on_c, 0, 86, 0
2, 276362, Note_on_c, 0, 55, 56
2, 276416, Note_on_c, 0, 57, 31
2, 276521, Note_on_c, 0, 57, 0
2, 276595, Note_on_c, 0, 55, 0
2, 276745, Note_on_c, 0, 94, 73
2, 276772, Note_on_c, 0, 82, 60
2, 276796, Note_on_c, 0, 62, 54
2, 276808, Note_on_c, 0, 58, 48
2, 276812, Note_on_c, 0, 55, 55
2, 276817, Note_on_c, 0, 86, 50
2, 276823, Note_on_c, 0, 57, 40
2, 276906, Note_on_c, 0, 92, 22
2, 277072, Note_on_c, 0, 92, 0
2, 277144, Note_on_c, 0, 82, 0
2, 277157, Note_on_c, 0, 86, 0
2, 277164, Note_on_c, 0, 62, 0
2, 277191, Note_on_c, 0, 55, 0
2, 277200, Note_on_c, 0, 57, 0
2, 277220, Note_on_c, 0, 58, 0
2, 277222, Note_on_c, 0, 94, 0
2, 277448, Note_on_c, 0, 94, 61
2, 277500, Note_on_c, 0, 62, 56
2, 277504, Note_on_c, 0, 82, 54
2, 277509, Note_on_c, 0, 58, 43
2, 277544, Note_on_c, 0, 57, 38
2, 277547, Note_on_c, 0, 55, 49
2, 277594, Note_on_c, 0, 86, 39
2, 277807, Note_on_c, 0, 82, 0
2, 277809, Note_on_c, 0, 86, 0
2, 277838, Note_on_c, 0, 57, 0
2, 277881, Note_on_c, 0, 55, 0
2, 277916, Note_on_c, 0, 94, 0
2, 277919, Note_on_c, 0, 58, 0
2, 277921, Note_on_c, 0, 62, 0
2, 278160, Note_on_c, 0, 55, 45
2, 278172, Note_on_c, 0, 58, 39
2, 278187, Note_on_c, 0, 62, 39
2, 278268, Note_on_c, 0, 55, 0
2, 278291, Note_on_c, 0, 62, 0
2, 278297, Note_on_c, 0, 58, 0
2, 278682, Note_on_c, 0, 95, 71
2, 278696, Note_on_c, 0, 83, 58
2, 278698, Note_on_c, 0, 63, 64
2, 278703, Note_on_c, 0, 59, 63
2, 278716, Note_on_c, 0, 53, 68
2, 278720, Note_on_c, 0, 92, 54
2, 278727, Note_on_c, 0, 88, 64
2, 278747, Note_on_c, 0, 56, 46
2, 279101, Note_on_c, 0, 56, 0
2, 279115, Note_on_c, 0, 83, 0
2, 279135, Note_on_c, 0, 95, 0
2, 279139, Note_on_c, 0, 53, 0
2, 279160, Note_on_c, 0, 63, 0
2, 279177, Note_on_c, 0, 88, 0
2, 279236, Note_on_c, 0, 92, 0
2, 279283, Note_on_c, 0, 59, 0
2, 279451, Note_on_c, 0, 63, 57
2, 279469, Note_on_c, 0, 92, 55
2, 279482, Note_on_c, 0, 95, 66
2, 279498, Note_on_c, 0, 83, 56
2, 279507, Note_on_c, 0, 59, 48
2, 279511, Note_on_c, 0, 88, 63
2, 279529, Note_on_c, 0, 53, 43
2, 279561, Note_on_c, 0, 56, 38
2, 279708, Note_on_c, 0, 59, 0
2, 279742, Note_on_c, 0, 53, 0
2, 279832, Note_on_c, 0, 88, 0
2, 279888, Note_on_c, 0, 63, 0
2, 279896, Note_on_c, 0, 56, 0
2, 279917, Note_on_c, 0, 83, 0
2, 279957, Note_on_c, 0, 95, 0
2, 280053, Note_on_c, 0, 92, 0
2, 280130, Note_on_c, 0, 51, 53
2, 280219, Note_on_c, 0, 51, 0
2, 280564, Note_on_c, 0, 51, 62
2, 280575, Note_on_c, 0, 62, 62
2, 280596, Note_on_c, 0, 96, 65
2, 280611, Note_on_c, 0, 84, 61
2, 280629, Note_on_c, 0, 91, 73
2, 280636, Note_on_c, 0, 57, 57
2, 281008, Note_on_c, 0, 51, 0
2, 281050, Note_on_c, 0, 57, 0
2, 281068, Note_on_c, 0, 96, 0
2, 281082, Note_on_c, 0, 84, 0
2, 281093, Note_on_c, 0, 62, 0
2, 281156, Note_on_c, 0, 91, 0
2, 281348, Note_on_c, 0, 51, 68
2, 281357, Note_on_c, 0, 62, 56
2, 281388, Note_on_c, 0, 96, 74
2, 281397, Note_on_c, 0, 57, 57
2, 281402, Note_on_c, 0, 91, 60
2, 281413, Note_on_c, 0, 84, 57
2, 283167, Note_on_c, 0, 57, 0
2, 283209, Note_on_c, 0, 51, 0
2, 283369, Note_on_c, 0, 62, 0
2, 284204, Note_on_c, 0, 68, 85
2, 284211, Note_on_c, 0, 63, 71
2, 284213, Note_on_c, 0, 57, 76
2, 284594, Note_on_c, 0, 61, 3
2, 285916, Note_on_c, 0, 61, 0
2, 285958, Note_on_c, 0, 68, 0
2, 286005, Note_on_c, 0, 57, 0
2, 286140, Note_on_c, 0, 63, 0
2, 286223, Note_on_c, 0, 96, 0
2, 286252, Note_on_c, 0, 66, 67
2, 286256, Note_on_c, 0, 91, 0
2, 286263, Note_on_c, 0, 63, 46
2, 286279, Note_on_c, 0, 84, 0
2, 286292, Note_on_c, 0, 56, 59
2, 286335, Note_on_c, 0, 61, 43
2, 287298, Note_on_c, 0, 63, 0
2, 287360, Note_on_c, 0, 61, 0
2, 287549, Note_on_c, 0, 66, 0
2, 287654, Note_on_c, 0, 56, 0
2, 288086, Note_on_c, 0, 61, 80
2, 288102, Note_on_c, 0, 56, 70
2, 288106, Note_on_c, 0, 51, 51
2, 288140, Note_on_c, 0, 50, 78
2, 288458, Note_on_c, 0, 51, 0
2, 288825, Note_on_c, 0, 50, 0
2, 288841, Note_on_c, 0, 61, 0
2, 288960, Note_on_c, 0, 56, 0
2, 289132, Note_on_c, 0, 56, 75
2, 289141, Note_on_c, 0, 61, 87
2, 289164, Note_on_c, 0, 50, 82
2, 290134, Note_on_c, 0, 74, 127
2, 290815, Note_on_c, 0, 68, 81
2, 290942, Note_on_c, 0, 50, 0
2, 291099, Note_on_c, 0, 56, 0
2, 291265, Note_on_c, 0, 74, 0
2, 291269, Note_on_c, 0, 61, 0
2, 291469, Note_on_c, 0, 65, 70
2, 291684, Note_on_c, 0, 51, 37
2, 291699, Note_on_c, 0, 68, 0
2, 291719, Note_on_c, 0, 62, 30
2, 291724, Note_on_c, 0, 58, 42
2, 291926, Note_on_c, 0, 65, 0
2, 292120, Note_on_c, 0, 67, 60
2, 292141, Note_on_c, 0, 62, 0
2, 292642, Note_on_c, 0, 67, 0
2, 292819, Note_on_c, 0, 58, 0
2, 292860, Note_on_c, 0, 60, 34
2, 293084, Note_on_c, 0, 60, 0
2, 293485, Note_on_c, 0, 58, 32
2, 293509, Note_on_c, 0, 62, 63
2, 293700, Note_on_c, 0, 58, 0
2, 294116, Note_on_c, 0, 51, 0
2, 294499, Note_on_c, 0, 51, 45
2, 294535, Note_on_c, 0, 58, 53
2, 294582, Note_on_c, 0, 51, 0
2, 294618, Note_on_c, 0, 58, 0
2, 295501, Note_on_c, 0, 62, 0
2, 295778, Note_on_c, 0, 63, 50
2, 295823, Note_on_c, 0, 60, 44
2, 295886, Note_on_c, 0, 59, 34
2, 295946, Note_on_c, 0, 63, 0
2, 296007, Note_on_c, 0, 59, 0
2, 296023, Note_on_c, 0, 60, 0
2, 297337, Note_on_c, 0, 63, 68
2, 297420, Note_on_c, 0, 60, 49
2, 297423, Note_on_c, 0, 63, 0
2, 297566, Note_on_c, 0, 60, 0
2, 297738, Note_on_c, 0, 72, 52
2, 297855, Note_on_c, 0, 72, 0
2, 298670, Note_on_c, 0, 61, 75
2, 298682, Note_on_c, 0, 72, 76
2, 298690, Note_on_c, 0, 69, 80
2, 298695, Note_on_c, 0, 65, 75
2, 298735, Note_on_c, 0, 55, 55
2, 298973, Note_on_c, 0, 65, 0
2, 299015, Note_on_c, 0, 61, 0
2, 299038, Note_on_c, 0, 55, 0
2, 299040, Note_on_c, 0, 69, 0
2, 299053, Note_on_c, 0, 72, 0
2, 299331, Note_on_c, 0, 72, 66
2, 299333, Note_on_c, 0, 61, 83
2, 299340, Note_on_c, 0, 69, 77
2, 299347, Note_on_c, 0, 65, 73
2, 299414, Note_on_c, 0, 55, 56
2, 299560, Note_on_c, 0, 55, 0
2, 299560, Note_on_c, 0, 61, 0
2, 299629, Note_on_c, 0, 65, 0
2, 299638, Note_on_c, 0, 72, 0
2, 299689, Note_on_c, 0, 69, 0
2, 299786, Note_on_c, 0, 61, 58
2, 299855, Note_on_c, 0, 65, 49
2, 299860, Note_on_c, 0, 69, 68
2, 299869, Note_on_c, 0, 72, 48
2, 299943, Note_on_c, 0, 55, 33
2, 300059, Note_on_c, 0, 55, 0
2, 300149, Note_on_c, 0, 69, 0
2, 300162, Note_on_c, 0, 65, 0
2, 300182, Note_on_c, 0, 61, 0
2, 300310, Note_on_c, 0, 72, 0
2, 300397, Note_on_c, 0, 74, 67
2, 300420, Note_on_c, 0, 68, 66
2, 300433, Note_on_c, 0, 64, 55
2, 300435, Note_on_c, 0, 54, 56
2, 300465, Note_on_c, 0, 60, 49
2, 300541, Note_on_c, 0, 64, 0
2, 300552, Note_on_c, 0, 60, 0
2, 300655, Note_on_c, 0, 54, 0
2, 300657, Note_on_c, 0, 68, 0
2, 300659, Note_on_c, 0, 74, 0
2, 301641, Note_on_c, 0, 68, 63
2, 301645, Note_on_c, 0, 74, 69
2, 301658, Note_on_c, 0, 64, 58
2, 301663, Note_on_c, 0, 54, 57
2, 301679, Note_on_c, 0, 60, 54
2, 302736, Note_on_c, 0, 54, 0
2, 302958, Note_on_c, 0, 64, 0
2, 302973, Note_on_c, 0, 74, 0
2, 303011, Note_on_c, 0, 60, 0
2, 303330, Note_on_c, 0, 68, 0
2, 303475, Note_on_c, 0, 65, 54
2, 303509, Note_on_c, 0, 58, 48
2, 303513, Note_on_c, 0, 62, 41
2, 303527, Note_on_c, 0, 69, 55
2, 303529, Note_on_c, 0, 68, 25
2, 303540, Note_on_c, 0, 60, 47
2, 303634, Note_on_c, 0, 60, 0
2, 303659, Note_on_c, 0, 62, 0
2, 303665, Note_on_c, 0, 68, 0
2, 303668, Note_on_c, 0, 65, 0
2, 303704, Note_on_c, 0, 69, 0
2, 303742, Note_on_c, 0, 58, 0
2, 304131, Note_on_c, 0, 65, 55
2, 304143, Note_on_c, 0, 58, 50
2, 304147, Note_on_c, 0, 69, 56
2, 304151, Note_on_c, 0, 62, 52
2, 304192, Note_on_c, 0, 60, 46
2, 304259, Note_on_c, 0, 62, 0
2, 304263, Note_on_c, 0, 60, 0
2, 304275, Note_on_c, 0, 69, 0
2, 304281, Note_on_c, 0, 65, 0
2, 304317, Note_on_c, 0, 58, 0
2, 304510, Note_on_c, 0, 65, 49
2, 304523, Note_on_c, 0, 69, 56
2, 304532, Note_on_c, 0, 62, 47
2, 304548, Note_on_c, 0, 58, 51
2, 304622, Note_on_c, 0, 60, 39
2, 304723, Note_on_c, 0, 60, 0
2, 304770, Note_on_c, 0, 69, 0
2, 304776, Note_on_c, 0, 62, 0
2, 304779, Note_on_c, 0, 65, 0
2, 304823, Note_on_c, 0, 58, 0
2, 305101, Note_on_c, 0, 65, 56
2, 305126, Note_on_c, 0, 58, 56
2, 305142, Note_on_c, 0, 62, 55
2, 305157, Note_on_c, 0, 69, 48
2, 305189, Note_on_c, 0, 60, 45
2, 305251, Note_on_c, 0, 62, 0
2, 305267, Note_on_c, 0, 60, 0
2, 305307, Note_on_c, 0, 65, 0
2, 305323, Note_on_c, 0, 69, 0
2, 305370, Note_on_c, 0, 58, 0
2, 305529, Note_on_c, 0, 69, 59
2, 305551, Note_on_c, 0, 62, 42
2, 305558, Note_on_c, 0, 65, 33
2, 305585, Note_on_c, 0, 58, 48
2, 305643, Note_on_c, 0, 60, 40
2, 305778, Note_on_c, 0, 60, 0
2, 305870, Note_on_c, 0, 62, 0
2, 305991, Note_on_c, 0, 58, 0
2, 306123, Note_on_c, 0, 65, 0
2, 306159, Note_on_c, 0, 69, 0
2, 306306, Note_on_c, 0, 58, 44
2, 306311, Note_on_c, 0, 62, 45
2, 306315, Note_on_c, 0, 70, 56
2, 306327, Note_on_c, 0, 67, 45
2, 306385, Note_on_c, 0, 60, 41
2, 306517, Note_on_c, 0, 60, 0
2, 306555, Note_on_c, 0, 62, 0
2, 306725, Note_on_c, 0, 58, 0
2, 306848, Note_on_c, 0, 67, 0
2, 306860, Note_on_c, 0, 70, 0
2, 306947, Note_on_c, 0, 65, 48
2, 306976, Note_on_c, 0, 69, 51
2, 306992, Note_on_c, 0, 58, 41
2, 307001, Note_on_c, 0, 62, 45
2, 307102, Note_on_c, 0, 62, 0
2, 307124, Note_on_c, 0, 65, 0
2, 307155, Note_on_c, 0, 69, 0
2, 307254, Note_on_c, 0, 58, 0
2, 307951, Note_on_c, 0, 64, 38
2, 307959, Note_on_c, 0, 67, 39
2, 307964, Note_on_c, 0, 58, 45
2, 308004, Note_on_c, 0, 60, 39
2, 308058, Note_on_c, 0, 64, 0
2, 308092, Note_on_c, 0, 67, 0
2, 308101, Note_on_c, 0, 60, 0
2, 308219, Note_on_c, 0, 58, 0
2, 309115, Note_on_c, 0, 58, 44
2, 309124, Note_on_c, 0, 67, 47
2, 309162, Note_on_c, 0, 62, 42
2, 309178, Note_on_c, 0, 60, 39
2, 309548, Note_on_c, 0, 62, 0
2, 309904, Note_on_c, 0, 67, 0
2, 310054, Note_on_c, 0, 74, 74
2, 310213, Note_on_c, 0, 60, 0
2, 310486, Note_on_c, 0, 58, 0
2, 310686, Note_on_c, 0, 74, 0
2, 310688, Note_on_c, 0, 67, 51
2, 311107, Note_on_c, 0, 67, 0
2, 311250, Note_on_c, 0, 63, 49
2, 311776, Note_on_c, 0, 63, 0
2, 312005, Note_on_c, 0, 63, 50
2, 312285, Note_on_c, 0, 63, 0
2, 312979, Note_on_c, 0, 63, 43
2, 313055, Note_on_c, 0, 60, 37
2, 313103, Note_on_c, 0, 57, 37
2, 313109, Note_on_c, 0, 55, 39
2, 313331, Note_on_c, 0, 55, 0
2, 313369, Note_on_c, 0, 60, 0
2, 313425, Note_on_c, 0, 57, 0
2, 313479, Note_on_c, 0, 63, 0
2, 314659, Note_on_c, 0, 65, 50
2, 314688, Note_on_c, 0, 58, 45
2, 314700, Note_on_c, 0, 54, 43
2, 314742, Note_on_c, 0, 60, 48
2, 315423, Note_on_c, 0, 60, 0
2, 315656, Note_on_c, 0, 60, 26
2, 315988, Note_on_c, 0, 82, 102
2, 316377, Note_on_c, 0, 82, 0
2, 316541, Note_on_c, 0, 83, 83
2, 316785, Note_on_c, 0, 65, 0
2, 316816, Note_on_c, 0, 83, 0
2, 317020, Note_on_c, 0, 80, 54
2, 317188, Note_on_c, 0, 60, 0
2, 317206, Note_on_c, 0, 54, 0
2, 317388, Note_on_c, 0, 80, 0
2, 317417, Note_on_c, 0, 58, 0
2, 317549, Note_on_c, 0, 76, 66
2, 317594, Note_on_c, 0, 54, 42
2, 317605, Note_on_c, 0, 64, 38
2, 317618, Note_on_c, 0, 60, 38
2, 317656, Note_on_c, 0, 58, 32
2, 317746, Note_on_c, 0, 64, 0
2, 317777, Note_on_c, 0, 60, 0
2, 317811, Note_on_c, 0, 76, 0
2, 317961, Note_on_c, 0, 72, 40
2, 318006, Note_on_c, 0, 54, 0
2, 318057, Note_on_c, 0, 58, 0
2, 318375, Note_on_c, 0, 72, 0
2, 318476, Note_on_c, 0, 58, 22
2, 318490, Note_on_c, 0, 70, 56
2, 318821, Note_on_c, 0, 70, 0
2, 318900, Note_on_c, 0, 69, 36
2, 318931, Note_on_c, 0, 58, 0
2, 319372, Note_on_c, 0, 69, 0
2, 319448, Note_on_c, 0, 72, 63
2, 319554, Note_on_c, 0, 58, 47
2, 319556, Note_on_c, 0, 62, 36
2, 319632, Note_on_c, 0, 57, 24
2, 319711, Note_on_c, 0, 62, 0
2, 319742, Note_on_c, 0, 72, 0
2, 319852, Note_on_c, 0, 69, 33
2, 319865, Note_on_c, 0, 58, 0
2, 319885, Note_on_c, 0, 57, 0
2, 320282, Note_on_c, 0, 69, 0
2, 320389, Note_on_c, 0, 70, 58
2, 320470, Note_on_c, 0, 58, 39
2, 320658, Note_on_c, 0, 70, 0
2, 320680, Note_on_c, 0, 58, 0
2, 320752, Note_on_c, 0, 66, 59
2, 321223, Note_on_c, 0, 66, 0
2, 321305, Note_on_c, 0, 69, 72
2, 321357, Note_on_c, 0, 62, 42
2, 321395, Note_on_c, 0, 58, 43
2, 321444, Note_on_c, 0, 62, 0
2, 321588, Note_on_c, 0, 69, 0
2, 321592, Note_on_c, 0, 58, 0
2, 321742, Note_on_c, 0, 67, 43
2, 322150, Note_on_c, 0, 67, 0
2, 322282, Note_on_c, 0, 62, 55
2, 322289, Note_on_c, 0, 58, 49
2, 322345, Note_on_c, 0, 64, 47
2, 322376, Note_on_c, 0, 55, 42
2, 322385, Note_on_c, 0, 58, 0
2, 322464, Note_on_c, 0, 64, 0
2, 322466, Note_on_c, 0, 62, 0
2, 322508, Note_on_c, 0, 55, 0
2, 322661, Note_on_c, 0, 62, 66
2, 323185, Note_on_c, 0, 62, 0
2, 324200, Note_on_c, 0, 50, 54
2, 324273, Note_on_c, 0, 53, 35
2, 324415, Note_on_c, 0, 53, 0
2, 324437, Note_on_c, 0, 50, 0
2, 325163, Note_on_c, 0, 53, 53
2, 325201, Note_on_c, 0, 50, 51
2, 325255, Note_on_c, 0, 53, 0
2, 325281, Note_on_c, 0, 50, 0
2, 327060, Note_on_c, 0, 58, 54
2, 327096, Note_on_c, 0, 55, 56
2, 327170, Note_on_c, 0, 58, 0
2, 327405, Note_on_c, 0, 55, 0
2, 327425, Note_on_c, 0, 60, 49
2, 327521, Note_on_c, 0, 60, 0
2, 327669, Note_on_c, 0, 58, 52
2, 327943, Note_on_c, 0, 58, 0
2, 328079, Note_on_c, 0, 62, 63
2, 328111, Note_on_c, 0, 55, 39
2, 328126, Note_on_c, 0, 48, 35
2, 328169, Note_on_c, 0, 58, 27
2, 328245, Note_on_c, 0, 48, 0
2, 328263, Note_on_c, 0, 58, 0
2, 328323, Note_on_c, 0, 62, 0
2, 328328, Note_on_c, 0, 55, 0
2, 328852, Note_on_c, 0, 63, 68
2, 328989, Note_on_c, 0, 55, 49
2, 329101, Note_on_c, 0, 63, 0
2, 329163, Note_on_c, 0, 60, 49
2, 329217, Note_on_c, 0, 55, 0
2, 329260, Note_on_c, 0, 60, 0
2, 329513, Note_on_c, 0, 65, 76
2, 329802, Note_on_c, 0, 65, 0
2, 329914, Note_on_c, 0, 62, 40
2, 330015, Note_on_c, 0, 62, 0
2, 330279, Note_on_c, 0, 67, 63
2, 330566, Note_on_c, 0, 67, 0
2, 330980, Note_on_c, 0, 51, 33
2, 331029, Note_on_c, 0, 69, 74
2, 331099, Note_on_c, 0, 51, 0
2, 331298, Note_on_c, 0, 69, 0
2, 331751, Note_on_c, 0, 70, 71
2, 331916, Note_on_c, 0, 51, 37
2, 332024, Note_on_c, 0, 51, 0
2, 332051, Note_on_c, 0, 70, 0
2, 332373, Note_on_c, 0, 72, 71
2, 332640, Note_on_c, 0, 72, 0
2, 332770, Note_on_c, 0, 60, 44
2, 332871, Note_on_c, 0, 51, 42
2, 332873, Note_on_c, 0, 57, 41
2, 332880, Note_on_c, 0, 60, 0
2, 332974, Note_on_c, 0, 51, 0
2, 333009, Note_on_c, 0, 57, 0
2, 333108, Note_on_c, 0, 74, 68
2, 333162, Note_on_c, 0, 72, 39
2, 333292, Note_on_c, 0, 72, 0
2, 333352, Note_on_c, 0, 74, 0
2, 333843, Note_on_c, 0, 75, 82
2, 334141, Note_on_c, 0, 75, 0
2, 334230, Note_on_c, 0, 63, 46
2, 334360, Note_on_c, 0, 63, 0
2, 334613, Note_on_c, 0, 76, 76
2, 334656, Note_on_c, 0, 60, 40
2, 334792, Note_on_c, 0, 60, 0
2, 334931, Note_on_c, 0, 76, 0
2, 335072, Note_on_c, 0, 64, 31
2, 335182, Note_on_c, 0, 64, 0
2, 335296, Note_on_c, 0, 77, 79
2, 335590, Note_on_c, 0, 77, 0
2, 336163, Note_on_c, 0, 65, 55
2, 336175, Note_on_c, 0, 62, 44
2, 336240, Note_on_c, 0, 60, 38
2, 336275, Note_on_c, 0, 55, 31
2, 336278, Note_on_c, 0, 65, 0
2, 336345, Note_on_c, 0, 60, 0
2, 336385, Note_on_c, 0, 55, 0
2, 336390, Note_on_c, 0, 62, 0
2, 336979, Note_on_c, 0, 60, 34
2, 336990, Note_on_c, 0, 79, 82
2, 337086, Note_on_c, 0, 60, 0
2, 337301, Note_on_c, 0, 79, 0
2, 337344, Note_on_c, 0, 67, 58
2, 337489, Note_on_c, 0, 67, 0
2, 337747, Note_on_c, 0, 81, 75
2, 337760, Note_on_c, 0, 60, 55
2, 337814, Note_on_c, 0, 55, 36
2, 337825, Note_on_c, 0, 80, 39
2, 337924, Note_on_c, 0, 80, 0
2, 337933, Note_on_c, 0, 55, 0
2, 337971, Note_on_c, 0, 60, 0
2, 338036, Note_on_c, 0, 81, 0
2, 338220, Note_on_c, 0, 69, 33
2, 338329, Note_on_c, 0, 69, 0
2, 338509, Note_on_c, 0, 82, 85
2, 338594, Note_on_c, 0, 65, 57
2, 338632, Note_on_c, 0, 60, 49
2, 338670, Note_on_c, 0, 65, 0
2, 338719, Note_on_c, 0, 60, 0
2, 338845, Note_on_c, 0, 70, 38
2, 338928, Note_on_c, 0, 82, 0
2, 338966, Note_on_c, 0, 70, 0
2, 339174, Note_on_c, 0, 84, 85
2, 339268, Note_on_c, 0, 65, 57
2, 339275, Note_on_c, 0, 60, 59
2, 339311, Note_on_c, 0, 55, 45
2, 339452, Note_on_c, 0, 65, 0
2, 339463, Note_on_c, 0, 55, 0
2, 339530, Note_on_c, 0, 60, 0
2, 339550, Note_on_c, 0, 72, 48
2, 339555, Note_on_c, 0, 84, 0
2, 339673, Note_on_c, 0, 72, 0
2, 339873, Note_on_c, 0, 86, 85
2, 339913, Note_on_c, 0, 65, 67
2, 339927, Note_on_c, 0, 60, 61
2, 339933, Note_on_c, 0, 55, 58
2, 339969, Note_on_c, 0, 79, 53
2, 339980, Note_on_c, 0, 82, 40
2, 340106, Note_on_c, 0, 82, 0
2, 340164, Note_on_c, 0, 65, 0
2, 340207, Note_on_c, 0, 55, 0
2, 340220, Note_on_c, 0, 79, 0
2, 340224, Note_on_c, 0, 86, 0
2, 340285, Note_on_c, 0, 74, 50
2, 340310, Note_on_c, 0, 60, 0
2, 340366, Note_on_c, 0, 74, 0
2, 340623, Note_on_c, 0, 87, 88
2, 340646, Note_on_c, 0, 65, 63
2, 340684, Note_on_c, 0, 60, 57
2, 340688, Note_on_c, 0, 79, 57
2, 340693, Note_on_c, 0, 55, 53
2, 340879, Note_on_c, 0, 65, 0
2, 340926, Note_on_c, 0, 55, 0
2, 340941, Note_on_c, 0, 79, 0
2, 340968, Note_on_c, 0, 75, 56
2, 341020, Note_on_c, 0, 60, 0
2, 341024, Note_on_c, 0, 87, 0
2, 341181, Note_on_c, 0, 75, 0
2, 341387, Note_on_c, 0, 89, 94
2, 341418, Note_on_c, 0, 60, 54
2, 341441, Note_on_c, 0, 77, 75
2, 341463, Note_on_c, 0, 63, 66
2, 341477, Note_on_c, 0, 87, 39
2, 341486, Note_on_c, 0, 55, 56
2, 341535, Note_on_c, 0, 57, 45
2, 341580, Note_on_c, 0, 87, 0
2, 341689, Note_on_c, 0, 77, 0
2, 341732, Note_on_c, 0, 89, 0
2, 341734, Note_on_c, 0, 63, 0
2, 341761, Note_on_c, 0, 55, 0
2, 341779, Note_on_c, 0, 57, 0
2, 341913, Note_on_c, 0, 60, 0
2, 342066, Note_on_c, 0, 91, 89
2, 342072, Note_on_c, 0, 63, 81
2, 342090, Note_on_c, 0, 79, 81
2, 342095, Note_on_c, 0, 87, 67
2, 342102, Note_on_c, 0, 60, 72
2, 342104, Note_on_c, 0, 84, 76
2, 342120, Note_on_c, 0, 57, 65
2, 342122, Note_on_c, 0, 85, 51
2, 342124, Note_on_c, 0, 55, 72
2, 343159, Note_on_c, 0, 85, 0
2, 343432, Note_on_c, 0, 55, 0
2, 343504, Note_on_c, 0, 57, 0
2, 343515, Note_on_c, 0, 91, 0
2, 343520, Note_on_c, 0, 63, 0
2, 343526, Note_on_c, 0, 79, 0
2, 343573, Note_on_c, 0, 84, 0
2, 343598, Note_on_c, 0, 87, 0
2, 343681, Note_on_c, 0, 63, 62
2, 343685, Note_on_c, 0, 89, 51
2, 343721, Note_on_c, 0, 57, 58
2, 343744, Note_on_c, 0, 77, 55
2, 343748, Note_on_c, 0, 55, 48
2, 343750, Note_on_c, 0, 84, 56
2, 343943, Note_on_c, 0, 55, 0
2, 343963, Note_on_c, 0, 77, 0
2, 344001, Note_on_c, 0, 89, 0
2, 344064, Note_on_c, 0, 84, 0
2, 344068, Note_on_c, 0, 63, 0
2, 344077, Note_on_c, 0, 57, 0
2, 344248, Note_on_c, 0, 60, 0
2, 345256, Note_on_c, 0, 63, 63
2, 345300, Note_on_c, 0, 87, 68
2, 345327, Note_on_c, 0, 55, 37
2, 345334, Note_on_c, 0, 75, 67
2, 345383, Note_on_c, 0, 82, 54
2, 345399, Note_on_c, 0, 60, 25
2, 345428, Note_on_c, 0, 55, 0
2, 345556, Note_on_c, 0, 60, 0
2, 345578, Note_on_c, 0, 87, 0
2, 345614, Note_on_c, 0, 75, 0
2, 345616, Note_on_c, 0, 63, 0
2, 345621, Note_on_c, 0, 82, 0
2, 345833, Note_on_c, 0, 60, 57
2, 345838, Note_on_c, 0, 54, 59
2, 345840, Note_on_c, 0, 74, 58
2, 345854, Note_on_c, 0, 82, 62
2, 345869, Note_on_c, 0, 86, 58
2, 346272, Note_on_c, 0, 86, 0
2, 346360, Note_on_c, 0, 74, 0
2, 346447, Note_on_c, 0, 82, 0
2, 346467, Note_on_c, 0, 54, 0
2, 346528, Note_on_c, 0, 60, 0
2, 347200, Note_on_c, 0, 54, 66
2, 347204, Note_on_c, 0, 84, 66
2, 347209, Note_on_c, 0, 75, 73
2, 347213, Note_on_c, 0, 60, 56
2, 347220, Note_on_c, 0, 65, 66
2, 347224, Note_on_c, 0, 80, 64
2, 347410, Note_on_c, 0, 65, 0
2, 347417, Note_on_c, 0, 84, 0
2, 347451, Note_on_c, 0, 75, 0
2, 347462, Note_on_c, 0, 80, 0
2, 347558, Note_on_c, 0, 54, 0
2, 347605, Note_on_c, 0, 60, 0
2, 347679, Note_on_c, 0, 80, 48
2, 347684, Note_on_c, 0, 54, 43
2, 347697, Note_on_c, 0, 75, 50
2, 347713, Note_on_c, 0, 65, 53
2, 347740, Note_on_c, 0, 60, 34
2, 347746, Note_on_c, 0, 72, 51
2, 348134, Note_on_c, 0, 72, 0
2, 348165, Note_on_c, 0, 65, 0
2, 348232, Note_on_c, 0, 75, 0
2, 348255, Note_on_c, 0, 54, 0
2, 348257, Note_on_c, 0, 60, 0
2, 348327, Note_on_c, 0, 80, 0
2, 348580, Note_on_c, 0, 70, 54
2, 348584, Note_on_c, 0, 54, 56
2, 348602, Note_on_c, 0, 65, 43
2, 348647, Note_on_c, 0, 60, 42
2, 348654, Note_on_c, 0, 77, 51
2, 348680, Note_on_c, 0, 74, 42
2, 348806, Note_on_c, 0, 74, 0
2, 348815, Note_on_c, 0, 65, 0
2, 348873, Note_on_c, 0, 60, 0
2, 348896, Note_on_c, 0, 77, 0
2, 349068, Note_on_c, 0, 70, 0
2, 349225, Note_on_c, 0, 54, 0
2, 349576, Note_on_c, 0, 62, 42
2, 349581, Note_on_c, 0, 70, 54
2, 349585, Note_on_c, 0, 74, 61
2, 349588, Note_on_c, 0, 69, 43
2, 349626, Note_on_c, 0, 57, 49
2, 349630, Note_on_c, 0, 58, 39
2, 349639, Note_on_c, 0, 55, 36
2, 350645, Note_on_c, 0, 74, 0
2, 350896, Note_on_c, 0, 70, 0
2, 350900, Note_on_c, 0, 69, 0
2, 350970, Note_on_c, 0, 57, 0
2, 351160, Note_on_c, 0, 55, 0
2, 351207, Note_on_c, 0, 62, 0
2, 351279, Note_on_c, 0, 58, 0
2, 351404, Note_on_c, 0, 74, 70
2, 351407, Note_on_c, 0, 64, 62
2, 351418, Note_on_c, 0, 70, 61
2, 351434, Note_on_c, 0, 68, 63
2, 351451, Note_on_c, 0, 58, 65
2, 352291, Control_c, 0, 64, 127
2, 352513, Note_on_c, 0, 74, 0
2, 352565, Note_on_c, 0, 70, 0
2, 352607, Note_on_c, 0, 68, 0
2, 352751, Note_on_c, 0, 64, 0
2, 353181, Control_c, 0, 64, 0
2, 353268, Note_on_c, 0, 70, 60
2, 353300, Note_on_c, 0, 56, 56
2, 353313, Note_on_c, 0, 63, 54
2, 353317, Note_on_c, 0, 67, 56
2, 353328, Note_on_c, 0, 60, 36
2, 353382, Note_on_c, 0, 58, 0
2, 353803, Control_c, 0, 64, 127
2, 354263, Note_on_c, 0, 56, 0
2, 354292, Note_on_c, 0, 67, 0
2, 354366, Note_on_c, 0, 60, 0
2, 354569, Note_on_c, 0, 70, 0
2, 354820, Note_on_c, 0, 63, 0
2, 355194, Control_c, 0, 64, 0
2, 355237, Note_on_c, 0, 59, 51
2, 355244, Note_on_c, 0, 67, 50
2, 355266, Note_on_c, 0, 46, 43
2, 355275, Note_on_c, 0, 56, 41
2, 355280, Note_on_c, 0, 62, 48
2, 355302, Note_on_c, 0, 64, 48
2, 355842, Control_c, 0, 64, 127
2, 356341, Note_on_c, 0, 59, 0
2, 356391, Note_on_c, 0, 64, 0
2, 356494, Note_on_c, 0, 56, 0
2, 356653, Note_on_c, 0, 62, 0
2, 356666, Note_on_c, 0, 67, 0
2, 356861, Note_on_c, 0, 46, 0
2, 356915, Control_c, 0, 64, 0
2, 357128, Note_on_c, 0, 58, 41
2, 357161, Note_on_c, 0, 62, 50
2, 357170, Note_on_c, 0, 55, 42
2, 357401, Control_c, 0, 64, 127
2, 357591, Note_on_c, 0, 58, 0
2, 357719, Note_on_c, 0, 62, 0
2, 357815, Note_on_c, 0, 55, 0
2, 359533, Control_c, 0, 64, 0
2, 359609, Note_on_c, 0, 63, 68
2, 359630, Note_on_c, 0, 57, 57
2, 359632, Note_on_c, 0, 55, 63
2, 359650, Note_on_c, 0, 84, 87
2, 359668, Note_on_c, 0, 72, 82
2, 359681, Note_on_c, 0, 79, 78
2, 359695, Note_on_c, 0, 60, 41
2, 359977, Note_on_c, 0, 84, 0
2, 359990, Note_on_c, 0, 72, 0
2, 360028, Control_c, 0, 64, 127
2, 360075, Note_on_c, 0, 79, 0
2, 360107, Note_on_c, 0, 63, 0
2, 360122, Note_on_c, 0, 55, 0
2, 360174, Note_on_c, 0, 60, 0
2, 360203, Note_on_c, 0, 57, 0
2, 360295, Note_on_c, 0, 63, 59
2, 360349, Note_on_c, 0, 55, 51
2, 360353, Note_on_c, 0, 82, 75
2, 360382, Note_on_c, 0, 70, 68
2, 360385, Note_on_c, 0, 78, 68
2, 360434, Note_on_c, 0, 60, 26
2, 360501, Note_on_c, 0, 57, 21
2, 360609, Note_on_c, 0, 55, 0
2, 360658, Note_on_c, 0, 57, 0
2, 360676, Note_on_c, 0, 82, 0
2, 360734, Note_on_c, 0, 78, 0
2, 360774, Note_on_c, 0, 70, 0
2, 360790, Note_on_c, 0, 60, 0
2, 360833, Note_on_c, 0, 63, 0
2, 361068, Control_c, 0, 64, 0
2, 361099, Note_on_c, 0, 60, 49
2, 361106, Note_on_c, 0, 81, 68
2, 361130, Note_on_c, 0, 64, 60
2, 361148, Note_on_c, 0, 69, 41
2, 361151, Note_on_c, 0, 54, 50
2, 362087, Control_c, 0, 64, 127
2, 362262, Note_on_c, 0, 81, 0
2, 362358, Note_on_c, 0, 69, 0
2, 362389, Note_on_c, 0, 64, 0
2, 362488, Note_on_c, 0, 54, 0
2, 362564, Note_on_c, 0, 60, 0
2, 362723, Control_c, 0, 64, 0
2, 362931, Note_on_c, 0, 82, 58
2, 362954, Note_on_c, 0, 64, 43
2, 362958, Note_on_c, 0, 54, 43
2, 362983, Note_on_c, 0, 60, 40
2, 362987, Note_on_c, 0, 70, 41
2, 363171, Note_on_c, 0, 64, 0
2, 363899, Note_on_c, 0, 60, 0
2, 363998, Note_on_c, 0, 82, 0
2, 364217, Note_on_c, 0, 70, 0
2, 364338, Note_on_c, 0, 54, 0
2, 364524, Note_on_c, 0, 74, 57
2, 364694, Note_on_c, 0, 74, 0
2, 364817, Note_on_c, 0, 57, 23
2, 364840, Note_on_c, 0, 62, 34
2, 364891, Note_on_c, 0, 58, 33
2, 364898, Note_on_c, 0, 67, 44
2, 364934, Note_on_c, 0, 79, 46
2, 365001, Note_on_c, 0, 55, 31
2, 365010, Note_on_c, 0, 73, 38
2, 365265, Note_on_c, 0, 58, 0
2, 365290, Note_on_c, 0, 67, 0
2, 365297, Note_on_c, 0, 62, 0
2, 365299, Note_on_c, 0, 57, 0
2, 365335, Note_on_c, 0, 55, 0
2, 365346, Note_on_c, 0, 74, 41
2, 365409, Note_on_c, 0, 73, 0
2, 365474, Note_on_c, 0, 79, 0
2, 365548, Note_on_c, 0, 74, 0
2, 365904, Note_on_c, 0, 79, 46
2, 365906, Note_on_c, 0, 73, 53
2, 365946, Note_on_c, 0, 67, 26
2, 365958, Note_on_c, 0, 58, 39
2, 365964, Note_on_c, 0, 62, 25
2, 365987, Note_on_c, 0, 55, 33
2, 365989, Note_on_c, 0, 57, 31
2, 366435, Note_on_c, 0, 73, 0
2, 366497, Note_on_c, 0, 74, 41
2, 366580, Note_on_c, 0, 67, 0
2, 366605, Note_on_c, 0, 79, 0
2, 366618, Note_on_c, 0, 74, 0
2, 366652, Note_on_c, 0, 57, 0
2, 366692, Note_on_c, 0, 62, 0
2, 366713, Note_on_c, 0, 55, 0
2, 366744, Note_on_c, 0, 58, 0
2, 367402, Note_on_c, 0, 79, 46
2, 367416, Note_on_c, 0, 73, 50
2, 367436, Note_on_c, 0, 67, 29
2, 367443, Note_on_c, 0, 62, 36
2, 367452, Note_on_c, 0, 58, 40
2, 367508, Note_on_c, 0, 55, 35
2, 367602, Note_on_c, 0, 73, 0
2, 367833, Note_on_c, 0, 67, 0
2, 367841, Note_on_c, 0, 62, 0
2, 367857, Note_on_c, 0, 58, 0
2, 367942, Note_on_c, 0, 55, 0
2, 367949, Note_on_c, 0, 79, 0
2, 368640, Note_on_c, 0, 67, 1
2, 368650, Note_on_c, 0, 67, 0
2, 370286, Note_on_c, 0, 67, 65
2, 370512, Note_on_c, 0, 67, 0
2, 370727, Note_on_c, 0, 69, 64
2, 370993, Note_on_c, 0, 69, 0
2, 371632, Note_on_c, 0, 70, 68
2, 371981, Note_on_c, 0, 70, 0
2, 372535, Note_on_c, 0, 58, 44
2, 372574, Note_on_c, 0, 75, 60
2, 372590, Note_on_c, 0, 67, 34
2, 372620, Note_on_c, 0, 63, 46
2, 372633, Note_on_c, 0, 62, 48
2, 373384, Note_on_c, 0, 62, 0
2, 373422, Note_on_c, 0, 63, 0
2, 373425, Note_on_c, 0, 67, 0
2, 373458, Note_on_c, 0, 58, 0
2, 374083, Note_on_c, 0, 58, 55
2, 374086, Note_on_c, 0, 67, 53
2, 374116, Note_on_c, 0, 63, 47
2, 374121, Note_on_c, 0, 62, 48
2, 374249, Note_on_c, 0, 63, 0
2, 374257, Note_on_c, 0, 62, 0
2, 374263, Note_on_c, 0, 67, 0
2, 374325, Note_on_c, 0, 58, 0
2, 376346, Note_on_c, 0, 67, 41
2, 376390, Note_on_c, 0, 63, 45
2, 376425, Note_on_c, 0, 57, 40
2, 376430, Note_on_c, 0, 62, 43
2, 376547, Note_on_c, 0, 62, 0
2, 376575, Note_on_c, 0, 75, 0
2, 376640, Note_on_c, 0, 67, 0
2, 376654, Note_on_c, 0, 63, 0
2, 376683, Note_on_c, 0, 57, 0
2, 377913, Note_on_c, 0, 67, 68
2, 377943, Note_on_c, 0, 63, 55
2, 377962, Note_on_c, 0, 62, 53
2, 378011, Note_on_c, 0, 57, 38
2, 378060, Note_on_c, 0, 67, 0
2, 378076, Note_on_c, 0, 62, 0
2, 378122, Note_on_c, 0, 63, 0
2, 378139, Note_on_c, 0, 57, 0
2, 378370, Note_on_c, 0, 77, 84
2, 378816, Note_on_c, 0, 77, 0
2, 378968, Note_on_c, 0, 79, 98
2, 379276, Note_on_c, 0, 79, 0
2, 379327, Note_on_c, 0, 81, 113
2, 379363, Note_on_c, 0, 79, 37
2, 379450, Note_on_c, 0, 79, 0
2, 379730, Note_on_c, 0, 81, 0
2, 379915, Note_on_c, 0, 86, 89
2, 379986, Note_on_c, 0, 65, 66
2, 380002, Note_on_c, 0, 62, 55
2, 380059, Note_on_c, 0, 60, 55
2, 380070, Note_on_c, 0, 55, 47
2, 380192, Note_on_c, 0, 86, 0
2, 380415, Note_on_c, 0, 86, 80
2, 380850, Note_on_c, 0, 86, 0
2, 380967, Note_on_c, 0, 55, 0
2, 381101, Note_on_c, 0, 65, 0
2, 381258, Note_on_c, 0, 86, 76
2, 381286, Note_on_c, 0, 60, 0
2, 381316, Note_on_c, 0, 62, 0
2, 381598, Note_on_c, 0, 86, 0
2, 381851, Note_on_c, 0, 65, 53
2, 381898, Note_on_c, 0, 60, 47
2, 381944, Note_on_c, 0, 62, 32
2, 381963, Note_on_c, 0, 65, 0
2, 382026, Note_on_c, 0, 60, 0
2, 382080, Note_on_c, 0, 62, 0
2, 384057, Note_on_c, 0, 65, 55
2, 384106, Note_on_c, 0, 58, 43
2, 384245, Note_on_c, 0, 55, 28
2, 384264, Note_on_c, 0, 65, 0
2, 384343, Note_on_c, 0, 58, 0
2, 384378, Note_on_c, 0, 55, 0
2, 385673, Note_on_c, 0, 65, 59
2, 385700, Note_on_c, 0, 58, 49
2, 385768, Note_on_c, 0, 65, 0
2, 385785, Note_on_c, 0, 60, 38
2, 385842, Note_on_c, 0, 58, 0
2, 385912, Note_on_c, 0, 60, 0
2, 386543, Note_on_c, 0, 75, 73
2, 386796, Note_on_c, 0, 75, 0
2, 386984, Note_on_c, 0, 77, 75
2, 387349, Note_on_c, 0, 77, 0
2, 387612, Note_on_c, 0, 79, 90
2, 387640, Note_on_c, 0, 63, 91
2, 387699, Note_on_c, 0, 60, 64
2, 387740, Note_on_c, 0, 57, 52
2, 387808, Note_on_c, 0, 55, 39
2, 387860, Note_on_c, 0, 79, 0
2, 388034, Note_on_c, 0, 55, 0
2, 388064, Note_on_c, 0, 63, 0
2, 388140, Note_on_c, 0, 84, 111
2, 388143, Note_on_c, 0, 60, 0
2, 388265, Note_on_c, 0, 57, 0
2, 388616, Note_on_c, 0, 84, 0
2, 388809, Note_on_c, 0, 84, 89
2, 388831, Note_on_c, 0, 72, 64
2, 389119, Note_on_c, 0, 72, 0
2, 389146, Note_on_c, 0, 84, 0
2, 389429, Note_on_c, 0, 84, 54
2, 389511, Note_on_c, 0, 72, 61
2, 389807, Note_on_c, 0, 63, 40
2, 389832, Note_on_c, 0, 84, 0
2, 389835, Note_on_c, 0, 72, 0
2, 390063, Note_on_c, 0, 63, 0
2, 390118, Note_on_c, 0, 84, 52
2, 390169, Note_on_c, 0, 72, 55
2, 390512, Note_on_c, 0, 84, 0
2, 390534, Note_on_c, 0, 72, 0
2, 390860, Note_on_c, 0, 84, 48
2, 390914, Note_on_c, 0, 72, 55
2, 391233, Note_on_c, 0, 72, 0
2, 391252, Note_on_c, 0, 84, 0
2, 391578, Note_on_c, 0, 63, 51
2, 391619, Note_on_c, 0, 60, 38
2, 391622, Note_on_c, 0, 54, 43
2, 391755, Note_on_c, 0, 60, 0
2, 391774, Note_on_c, 0, 54, 0
2, 391820, Note_on_c, 0, 63, 0
2, 393382, Note_on_c, 0, 63, 58
2, 393409, Note_on_c, 0, 54, 49
2, 393553, Note_on_c, 0, 58, 28
2, 393648, Note_on_c, 0, 54, 0
2, 393659, Note_on_c, 0, 63, 0
2, 393694, Note_on_c, 0, 58, 0
2, 395362, Note_on_c, 0, 62, 41
2, 395367, Note_on_c, 0, 58, 44
2, 395413, Note_on_c, 0, 57, 44
2, 395430, Note_on_c, 0, 55, 42
2, 395536, Note_on_c, 0, 57, 0
2, 395601, Note_on_c, 0, 55, 0
2, 395617, Note_on_c, 0, 58, 0
2, 395623, Note_on_c, 0, 62, 0
2, 397168, Note_on_c, 0, 62, 53
2, 397209, Note_on_c, 0, 58, 40
2, 397369, Note_on_c, 0, 58, 0
2, 397434, Note_on_c, 0, 62, 0
2, 399026, Note_on_c, 0, 62, 66
2, 399085, Note_on_c, 0, 58, 47
2, 399221, Note_on_c, 0, 58, 0
2, 399289, Note_on_c, 0, 62, 0
2, 400040, Note_on_c, 0, 74, 55
2, 400160, Note_on_c, 0, 74, 0
2, 400451, Note_on_c, 0, 76, 59
2, 400840, Note_on_c, 0, 76, 0
2, 401019, Note_on_c, 0, 78, 90
2, 401036, Note_on_c, 0, 62, 65
2, 401079, Note_on_c, 0, 57, 45
2, 401093, Note_on_c, 0, 58, 46
2, 401166, Note_on_c, 0, 62, 0
2, 401193, Note_on_c, 0, 57, 0
2, 401215, Note_on_c, 0, 58, 0
2, 401256, Note_on_c, 0, 78, 0
2, 401460, Note_on_c, 0, 79, 70
2, 401767, Note_on_c, 0, 79, 0
2, 401952, Note_on_c, 0, 81, 104
2, 402015, Note_on_c, 0, 62, 74
2, 402037, Note_on_c, 0, 57, 62
2, 402053, Note_on_c, 0, 58, 59
2, 402143, Note_on_c, 0, 57, 0
2, 402159, Note_on_c, 0, 62, 0
2, 402170, Note_on_c, 0, 58, 0
2, 402246, Note_on_c, 0, 81, 0
2, 402398, Note_on_c, 0, 82, 94
2, 402798, Note_on_c, 0, 82, 0
2, 402961, Note_on_c, 0, 84, 93
2, 403084, Note_on_c, 0, 58, 57
2, 403095, Note_on_c, 0, 62, 50
2, 403122, Note_on_c, 0, 67, 48
2, 403135, Note_on_c, 0, 63, 54
2, 403263, Note_on_c, 0, 67, 0
2, 403285, Note_on_c, 0, 84, 0
2, 403378, Note_on_c, 0, 58, 0
2, 403383, Note_on_c, 0, 86, 86
2, 403388, Note_on_c, 0, 62, 0
2, 403454, Note_on_c, 0, 63, 0
2, 403628, Note_on_c, 0, 84, 33
2, 403701, Note_on_c, 0, 86, 0
2, 403767, Note_on_c, 0, 84, 0
2, 403900, Note_on_c, 0, 63, 51
2, 403930, Note_on_c, 0, 62, 47
2, 404025, Note_on_c, 0, 63, 0
2, 404153, Note_on_c, 0, 62, 0
2, 404191, Note_on_c, 0, 87, 91
2, 404213, Note_on_c, 0, 75, 78
2, 404727, Note_on_c, 0, 62, 46
2, 404746, Note_on_c, 0, 63, 26
2, 404757, Note_on_c, 0, 87, 0
2, 404822, Note_on_c, 0, 75, 0
2, 404855, Note_on_c, 0, 63, 0
2, 405010, Note_on_c, 0, 62, 0
2, 405132, Note_on_c, 0, 87, 78
2, 405197, Note_on_c, 0, 75, 60
2, 405581, Note_on_c, 0, 75, 0
2, 405613, Note_on_c, 0, 87, 0
2, 405741, Note_on_c, 0, 67, 50
2, 405782, Note_on_c, 0, 58, 44
2, 405807, Note_on_c, 0, 63, 43
2, 405883, Note_on_c, 0, 67, 0
2, 405913, Note_on_c, 0, 58, 0
2, 405962, Note_on_c, 0, 63, 0
2, 406076, Note_on_c, 0, 87, 68
2, 406125, Note_on_c, 0, 75, 58
2, 406576, Note_on_c, 0, 87, 0
2, 406655, Note_on_c, 0, 75, 0
2, 407071, Note_on_c, 0, 87, 70
2, 407077, Note_on_c, 0, 67, 35
2, 407131, Note_on_c, 0, 75, 50
2, 407137, Note_on_c, 0, 63, 43
2, 407175, Note_on_c, 0, 57, 25
2, 407270, Note_on_c, 0, 75, 0
2, 407354, Note_on_c, 0, 57, 0
2, 407382, Note_on_c, 0, 63, 0
2, 407382, Note_on_c, 0, 87, 0
2, 407441, Note_on_c, 0, 67, 0
2, 408603, Note_on_c, 0, 63, 52
2, 408614, Note_on_c, 0, 67, 49
2, 408630, Note_on_c, 0, 57, 47
2, 408872, Note_on_c, 0, 57, 0
2, 408880, Note_on_c, 0, 67, 0
2, 408932, Note_on_c, 0, 63, 0
2, 410014, Note_on_c, 0, 65, 32
2, 410017, Note_on_c, 0, 55, 35
2, 410053, Note_on_c, 0, 60, 42
2, 410072, Note_on_c, 0, 62, 46
2, 410208, Note_on_c, 0, 62, 0
2, 410335, Note_on_c, 0, 55, 0
2, 410338, Note_on_c, 0, 60, 0
2, 410371, Note_on_c, 0, 65, 0
2, 412598, Note_on_c, 0, 65, 51
2, 412631, Note_on_c, 0, 62, 41
2, 412756, Note_on_c, 0, 65, 0
2, 412767, Note_on_c, 0, 62, 0
2, 414753, Note_on_c, 0, 65, 60
2, 414826, Note_on_c, 0, 58, 47
2, 414875, Note_on_c, 0, 60, 46
2, 414962, Note_on_c, 0, 55, 26
2, 414970, Note_on_c, 0, 65, 0
2, 414987, Note_on_c, 0, 60, 0
2, 415000, Note_on_c, 0, 58, 0
2, 415079, Note_on_c, 0, 55, 0
2, 416401, Note_on_c, 0, 65, 65
2, 416458, Note_on_c, 0, 58, 44
2, 416493, Note_on_c, 0, 65, 0
2, 416502, Note_on_c, 0, 60, 45
2, 416602, Note_on_c, 0, 58, 0
2, 416605, Note_on_c, 0, 60, 0
2, 416714, Note_on_c, 0, 75, 67
2, 417143, Note_on_c, 0, 75, 0
2, 417440, Note_on_c, 0, 75, 65
2, 417690, Note_on_c, 0, 74, 61
2, 417799, Note_on_c, 0, 75, 0
2, 418185, Note_on_c, 0, 74, 0
2, 418338, Note_on_c, 0, 75, 77
2, 418354, Note_on_c, 0, 63, 82
2, 418387, Note_on_c, 0, 60, 64
2, 418482, Note_on_c, 0, 60, 0
2, 418495, Note_on_c, 0, 57, 41
2, 418566, Note_on_c, 0, 63, 0
2, 418571, Note_on_c, 0, 75, 0
2, 418746, Note_on_c, 0, 57, 0
2, 418808, Note_on_c, 0, 84, 98
2, 418811, Note_on_c, 0, 86, 98
2, 418963, Note_on_c, 0, 85, 32
2, 419075, Note_on_c, 0, 85, 0
2, 419132, Note_on_c, 0, 86, 0
2, 419322, Note_on_c, 0, 60, 45
2, 419396, Note_on_c, 0, 84, 0
2, 419510, Note_on_c, 0, 60, 0
2, 419703, Note_on_c, 0, 83, 68
2, 420087, Note_on_c, 0, 83, 0
2, 420242, Note_on_c, 0, 84, 74
2, 420334, Note_on_c, 0, 63, 69
2, 420427, Note_on_c, 0, 60, 38
2, 420505, Note_on_c, 0, 84, 0
2, 420554, Note_on_c, 0, 57, 29
2, 420840, Note_on_c, 0, 60, 0
2, 420840, Note_on_c, 0, 82, 58
2, 420946, Note_on_c, 0, 57, 0
2, 421180, Note_on_c, 0, 63, 0
2, 421221, Note_on_c, 0, 82, 0
2, 421286, Note_on_c, 0, 60, 41
2, 421697, Note_on_c, 0, 60, 0
2, 422445, Note_on_c, 0, 60, 48
2, 422467, Note_on_c, 0, 63, 41
2, 422567, Note_on_c, 0, 54, 30
2, 422622, Note_on_c, 0, 63, 0
2, 422681, Note_on_c, 0, 60, 0
2, 422733, Note_on_c, 0, 54, 0
2, 424147, Note_on_c, 0, 63, 62
2, 424158, Note_on_c, 0, 60, 61
2, 424235, Note_on_c, 0, 54, 35
2, 424245, Note_on_c, 0, 63, 0
2, 424270, Note_on_c, 0, 60, 0
2, 424400, Note_on_c, 0, 54, 0
2, 424455, Note_on_c, 0, 81, 123
2, 424936, Note_on_c, 0, 81, 0
2, 424944, Note_on_c, 0, 60, 60
2, 424977, Note_on_c, 0, 54, 52
2, 424999, Note_on_c, 0, 80, 78
2, 425148, Note_on_c, 0, 60, 0
2, 425323, Note_on_c, 0, 80, 0
2, 425404, Note_on_c, 0, 54, 0
2, 425431, Note_on_c, 0, 81, 76
2, 425834, Note_on_c, 0, 81, 0
2, 425962, Note_on_c, 0, 82, 94
2, 426041, Note_on_c, 0, 58, 58
2, 426051, Note_on_c, 0, 57, 53
2, 426060, Note_on_c, 0, 62, 54
2, 426321, Note_on_c, 0, 82, 0
2, 426413, Note_on_c, 0, 57, 0
2, 426454, Note_on_c, 0, 81, 70
2, 426870, Note_on_c, 0, 81, 0
2, 426935, Note_on_c, 0, 80, 84
2, 427159, Note_on_c, 0, 80, 0
2, 427278, Note_on_c, 0, 62, 0
2, 427354, Note_on_c, 0, 79, 46
2, 427373, Note_on_c, 0, 58, 0
2, 427806, Note_on_c, 0, 79, 0
2, 427877, Note_on_c, 0, 55, 1
2, 427926, Note_on_c, 0, 78, 43
2, 428094, Note_on_c, 0, 78, 0
2, 428271, Note_on_c, 0, 80, 88
2, 428304, Note_on_c, 0, 55, 0
2, 428831, Note_on_c, 0, 80, 0
2, 428845, Note_on_c, 0, 78, 62
2, 428859, Note_on_c, 0, 58, 42
2, 429008, Note_on_c, 0, 78, 0
2, 429019, Note_on_c, 0, 58, 0
2, 429215, Note_on_c, 0, 79, 72
2, 429590, Note_on_c, 0, 79, 0
2, 429666, Note_on_c, 0, 74, 79
2, 429797, Note_on_c, 0, 58, 53
2, 429906, Note_on_c, 0, 74, 0
2, 430058, Note_on_c, 0, 58, 0
2, 430102, Note_on_c, 0, 72, 44
2, 430537, Note_on_c, 0, 72, 0
2, 430621, Note_on_c, 0, 70, 68
2, 430893, Note_on_c, 0, 70, 0
2, 431083, Note_on_c, 0, 69, 59
2, 431562, Note_on_c, 0, 69, 0
2, 431592, Note_on_c, 0, 62, 39
2, 431630, Note_on_c, 0, 58, 35
2, 431747, Note_on_c, 0, 62, 0
2, 431769, Note_on_c, 0, 58, 0
2, 431992, Note_on_c, 0, 69, 73
2, 432868, Note_on_c, 0, 69, 0
2, 432968, Note_on_c, 0, 67, 65
2, 433967, Note_on_c, 0, 55, 49
2, 433997, Note_on_c, 0, 63, 60
2, 434035, Note_on_c, 0, 67, 0
2, 434048, Note_on_c, 0, 60, 22
2, 434258, Note_on_c, 0, 55, 0
2, 434323, Note_on_c, 0, 60, 0
2, 434707, Note_on_c, 0, 63, 0
2, 434935, Note_on_c, 0, 63, 58
2, 435452, Note_on_c, 0, 63, 0
2, 435941, Note_on_c, 0, 60, 44
2, 435950, Note_on_c, 0, 63, 35
2, 435958, Note_on_c, 0, 55, 37
2, 435996, Note_on_c, 0, 57, 43
2, 436175, Note_on_c, 0, 63, 0
2, 436186, Note_on_c, 0, 55, 0
2, 436243, Note_on_c, 0, 57, 0
2, 436265, Note_on_c, 0, 60, 0
2, 437419, Note_on_c, 0, 65, 55
2, 437448, Note_on_c, 0, 54, 51
2, 437489, Note_on_c, 0, 60, 51
2, 437636, Note_on_c, 0, 54, 0
2, 437704, Note_on_c, 0, 60, 0
2, 437718, Note_on_c, 0, 65, 0
2, 438776, Note_on_c, 0, 54, 53
2, 438811, Note_on_c, 0, 65, 39
2, 438868, Note_on_c, 0, 60, 44
2, 438980, Note_on_c, 0, 65, 0
2, 438993, Note_on_c, 0, 60, 0
2, 439075, Note_on_c, 0, 54, 0
2, 440285, Note_on_c, 0, 54, 54
2, 440307, Note_on_c, 0, 65, 56
2, 440397, Note_on_c, 0, 60, 42
2, 440421, Note_on_c, 0, 65, 0
2, 440476, Note_on_c, 0, 58, 25
2, 440522, Note_on_c, 0, 60, 0
2, 440628, Note_on_c, 0, 58, 0
2, 440740, Note_on_c, 0, 54, 0
2, 441705, Note_on_c, 0, 62, 44
2, 441757, Note_on_c, 0, 58, 46
2, 441803, Note_on_c, 0, 57, 40
2, 441838, Note_on_c, 0, 55, 40
2, 441972, Note_on_c, 0, 57, 0
2, 441983, Note_on_c, 0, 55, 0
2, 442051, Note_on_c, 0, 58, 0
2, 442059, Note_on_c, 0, 62, 0
2, 443217, Note_on_c, 0, 62, 54
2, 443228, Note_on_c, 0, 58, 51
2, 443305, Note_on_c, 0, 57, 38
2, 443378, Note_on_c, 0, 55, 30
2, 443424, Note_on_c, 0, 62, 0
2, 443432, Note_on_c, 0, 57, 0
2, 443479, Note_on_c, 0, 58, 0
2, 443528, Note_on_c, 0, 55, 0
2, 445078, Note_on_c, 0, 62, 62
2, 445100, Note_on_c, 0, 58, 57
2, 445135, Note_on_c, 0, 57, 51
2, 445192, Note_on_c, 0, 55, 39
2, 445195, Note_on_c, 0, 62, 0
2, 445228, Note_on_c, 0, 58, 0
2, 445255, Note_on_c, 0, 57, 0
2, 445317, Note_on_c, 0, 55, 0
2, 445442, Note_on_c, 0, 72, 126
2, 446014, Note_on_c, 0, 72, 0
2, 446073, Note_on_c, 0, 69, 69
2, 446196, Note_on_c, 0, 57, 29
2, 446210, Note_on_c, 0, 69, 0
2, 446297, Note_on_c, 0, 55, 23
2, 446346, Note_on_c, 0, 57, 0
2, 446430, Note_on_c, 0, 55, 0
2, 446517, Note_on_c, 0, 70, 50
2, 446849, Note_on_c, 0, 70, 0
2, 447023, Note_on_c, 0, 62, 56
2, 447028, Note_on_c, 0, 72, 57
2, 447042, Note_on_c, 0, 58, 48
2, 447047, Note_on_c, 0, 57, 47
2, 447053, Note_on_c, 0, 74, 64
2, 447121, Note_on_c, 0, 72, 0
2, 447151, Note_on_c, 0, 62, 0
2, 447164, Note_on_c, 0, 58, 0
2, 447175, Note_on_c, 0, 57, 0
2, 447268, Note_on_c, 0, 74, 0
2, 447393, Note_on_c, 0, 77, 73
2, 447757, Note_on_c, 0, 77, 0
2, 447915, Note_on_c, 0, 81, 92
2, 447983, Note_on_c, 0, 62, 77
2, 447991, Note_on_c, 0, 58, 65
2, 448013, Note_on_c, 0, 57, 57
2, 448094, Note_on_c, 0, 57, 0
2, 448143, Note_on_c, 0, 58, 0
2, 448151, Note_on_c, 0, 81, 0
2, 448200, Note_on_c, 0, 62, 0
2, 448315, Note_on_c, 0, 82, 83
2, 448761, Note_on_c, 0, 82, 0
2, 448921, Note_on_c, 0, 83, 92
2, 449074, Note_on_c, 0, 62, 58
2, 449166, Note_on_c, 0, 62, 0
2, 449212, Note_on_c, 0, 83, 0
2, 449332, Note_on_c, 0, 86, 122
2, 449860, Note_on_c, 0, 86, 0
2, 450001, Note_on_c, 0, 83, 60
2, 450254, Note_on_c, 0, 83, 0
2, 450379, Note_on_c, 0, 84, 91
2, 450882, Note_on_c, 0, 67, 62
2, 450923, Note_on_c, 0, 84, 0
2, 450961, Note_on_c, 0, 79, 68
2, 450969, Note_on_c, 0, 63, 44
2, 451029, Note_on_c, 0, 58, 42
2, 451040, Note_on_c, 0, 62, 40
2, 451222, Note_on_c, 0, 79, 0
2, 451372, Note_on_c, 0, 62, 0
2, 451410, Note_on_c, 0, 63, 0
2, 451413, Note_on_c, 0, 75, 59
2, 451522, Note_on_c, 0, 67, 0
2, 451919, Note_on_c, 0, 63, 28
2, 452017, Note_on_c, 0, 75, 0
2, 452183, Note_on_c, 0, 63, 0
2, 452270, Note_on_c, 0, 74, 70
2, 452618, Note_on_c, 0, 58, 0
2, 452849, Note_on_c, 0, 67, 51
2, 452873, Note_on_c, 0, 63, 48
2, 452922, Note_on_c, 0, 61, 38
2, 452974, Note_on_c, 0, 57, 29
2, 452977, Note_on_c, 0, 67, 0
2, 452996, Note_on_c, 0, 63, 0
2, 453067, Note_on_c, 0, 61, 0
2, 453110, Note_on_c, 0, 57, 0
2, 453725, Note_on_c, 0, 74, 0
2, 453744, Note_on_c, 0, 75, 68
2, 453825, Note_on_c, 0, 63, 41
2, 453959, Note_on_c, 0, 63, 0
2, 454062, Note_on_c, 0, 75, 0
2, 454165, Note_on_c, 0, 76, 65
2, 454666, Note_on_c, 0, 76, 0
2, 454696, Note_on_c, 0, 78, 84
2, 454783, Note_on_c, 0, 66, 64
2, 454873, Note_on_c, 0, 66, 0
2, 454881, Note_on_c, 0, 63, 40
2, 455025, Note_on_c, 0, 63, 0
2, 455093, Note_on_c, 0, 78, 0
2, 455131, Note_on_c, 0, 80, 68
2, 455515, Note_on_c, 0, 80, 0
2, 455699, Note_on_c, 0, 83, 68
2, 455740, Note_on_c, 0, 66, 81
2, 455762, Note_on_c, 0, 63, 61
2, 455792, Note_on_c, 0, 57, 51
2, 455884, Note_on_c, 0, 63, 0
2, 455928, Note_on_c, 0, 57, 0
2, 455971, Note_on_c, 0, 66, 0
2, 456118, Note_on_c, 0, 83, 0
2, 456121, Note_on_c, 0, 85, 62
2, 456537, Note_on_c, 0, 85, 0
2, 456635, Note_on_c, 0, 86, 102
2, 456714, Note_on_c, 0, 62, 78
2, 456728, Note_on_c, 0, 65, 76
2, 456771, Note_on_c, 0, 60, 56
2, 456834, Note_on_c, 0, 55, 57
2, 457163, Note_on_c, 0, 87, 80
2, 457334, Note_on_c, 0, 62, 0
2, 457353, Note_on_c, 0, 86, 0
2, 457497, Note_on_c, 0, 60, 0
2, 457541, Note_on_c, 0, 87, 0
2, 457671, Note_on_c, 0, 62, 48
2, 457704, Note_on_c, 0, 88, 109
2, 457742, Note_on_c, 0, 60, 16
2, 457865, Note_on_c, 0, 65, 0
2, 458199, Note_on_c, 0, 60, 0
2, 458237, Note_on_c, 0, 62, 0
2, 458267, Note_on_c, 0, 89, 111
2, 458368, Note_on_c, 0, 55, 0
2, 458371, Note_on_c, 0, 88, 0
2, 458773, Note_on_c, 0, 62, 48
2, 458784, Note_on_c, 0, 86, 89
2, 458806, Note_on_c, 0, 89, 0
2, 458827, Note_on_c, 0, 60, 47
2, 459121, Note_on_c, 0, 62, 0
2, 459162, Note_on_c, 0, 60, 0
2, 459274, Note_on_c, 0, 86, 0
2, 459407, Note_on_c, 0, 82, 20
2, 459777, Note_on_c, 0, 62, 45
2, 459812, Note_on_c, 0, 60, 53
2, 459902, Note_on_c, 0, 82, 0
2, 459951, Note_on_c, 0, 60, 0
2, 459986, Note_on_c, 0, 62, 0
2, 460019, Note_on_c, 0, 81, 69
2, 460462, Note_on_c, 0, 81, 0
2, 460563, Note_on_c, 0, 86, 88
2, 460721, Note_on_c, 0, 58, 48
2, 460726, Note_on_c, 0, 65, 48
2, 460764, Note_on_c, 0, 60, 55
2, 460835, Note_on_c, 0, 55, 35
2, 460974, Note_on_c, 0, 86, 0
2, 461074, Note_on_c, 0, 84, 65
2, 461202, Note_on_c, 0, 60, 0
2, 461602, Note_on_c, 0, 84, 0
2, 461689, Note_on_c, 0, 60, 48
2, 461762, Note_on_c, 0, 65, 0
2, 461809, Note_on_c, 0, 82, 64
2, 461847, Note_on_c, 0, 60, 0
2, 462111, Note_on_c, 0, 58, 0
2, 462149, Note_on_c, 0, 82, 0
2, 462410, Note_on_c, 0, 60, 41
2, 462489, Note_on_c, 0, 79, 49
2, 462644, Note_on_c, 0, 60, 0
2, 462826, Note_on_c, 0, 79, 0
2, 462867, Note_on_c, 0, 55, 0
2, 462965, Note_on_c, 0, 74, 55
2, 463313, Note_on_c, 0, 65, 35
2, 463392, Note_on_c, 0, 60, 37
2, 463438, Note_on_c, 0, 74, 0
2, 463465, Note_on_c, 0, 65, 0
2, 463533, Note_on_c, 0, 60, 0
2, 463713, Note_on_c, 0, 74, 64
2, 464110, Note_on_c, 0, 74, 0
2, 464433, Note_on_c, 0, 74, 67
2, 464493, Note_on_c, 0, 60, 47
2, 464515, Note_on_c, 0, 58, 36
2, 464711, Note_on_c, 0, 58, 0
2, 464920, Note_on_c, 0, 60, 0
2, 465361, Note_on_c, 0, 74, 0
2, 465396, Note_on_c, 0, 75, 72
2, 465802, Note_on_c, 0, 75, 0
2, 465872, Note_on_c, 0, 74, 50
2, 466253, Note_on_c, 0, 74, 0
2, 466452, Note_on_c, 0, 72, 48
2, 466574, Note_on_c, 0, 72, 0
2, 466726, Note_on_c, 0, 74, 73
2, 467134, Note_on_c, 0, 74, 0
2, 467205, Note_on_c, 0, 75, 58
2, 467357, Note_on_c, 0, 74, 85
2, 467510, Note_on_c, 0, 75, 0
2, 467689, Note_on_c, 0, 72, 64
2, 467695, Note_on_c, 0, 74, 0
2, 468075, Note_on_c, 0, 72, 0
2, 468233, Note_on_c, 0, 74, 104
2, 468269, Note_on_c, 0, 63, 60
2, 468282, Note_on_c, 0, 60, 58
2, 468307, Note_on_c, 0, 54, 51
2, 468367, Note_on_c, 0, 63, 0
2, 468451, Note_on_c, 0, 54, 0
2, 468598, Note_on_c, 0, 60, 0
2, 468677, Note_on_c, 0, 74, 0
2, 468823, Note_on_c, 0, 75, 46
2, 468979, Note_on_c, 0, 74, 70
2, 469074, Note_on_c, 0, 75, 0
2, 469139, Note_on_c, 0, 60, 54
2, 469245, Note_on_c, 0, 74, 0
2, 469259, Note_on_c, 0, 72, 67
2, 469444, Note_on_c, 0, 72, 0
2, 469574, Note_on_c, 0, 60, 0
2, 469615, Note_on_c, 0, 74, 105
2, 470023, Note_on_c, 0, 74, 0
2, 470118, Note_on_c, 0, 75, 70
2, 470192, Note_on_c, 0, 63, 43
2, 470224, Note_on_c, 0, 60, 35
2, 470273, Note_on_c, 0, 74, 67
2, 470309, Note_on_c, 0, 54, 34
2, 470322, Note_on_c, 0, 63, 0
2, 470406, Note_on_c, 0, 75, 0
2, 470474, Note_on_c, 0, 54, 0
2, 470621, Note_on_c, 0, 72, 68
2, 470659, Note_on_c, 0, 74, 0
2, 470676, Note_on_c, 0, 60, 0
2, 471108, Note_on_c, 0, 72, 0
2, 471114, Note_on_c, 0, 70, 83
2, 471217, Note_on_c, 0, 63, 57
2, 471233, Note_on_c, 0, 54, 52
2, 471432, Note_on_c, 0, 70, 0
2, 471554, Note_on_c, 0, 63, 0
2, 471565, Note_on_c, 0, 69, 54
2, 471938, Note_on_c, 0, 69, 0
2, 471946, Note_on_c, 0, 54, 0
2, 472057, Note_on_c, 0, 72, 85
2, 472212, Note_on_c, 0, 58, 46
2, 472417, Note_on_c, 0, 72, 0
2, 472438, Note_on_c, 0, 69, 66
2, 472468, Note_on_c, 0, 58, 0
2, 473056, Note_on_c, 0, 62, 49
2, 473069, Note_on_c, 0, 69, 0
2, 473083, Note_on_c, 0, 58, 46
2, 473200, Note_on_c, 0, 62, 0
2, 473216, Note_on_c, 0, 58, 0
2, 473233, Note_on_c, 0, 55, 29
2, 473314, Note_on_c, 0, 70, 76
2, 473390, Note_on_c, 0, 55, 0
2, 474935, Note_on_c, 0, 58, 61
2, 474941, Note_on_c, 0, 62, 62
2, 475028, Note_on_c, 0, 62, 0
2, 475090, Note_on_c, 0, 58, 0
2, 476200, Note_on_c, 0, 67, 56
2, 476238, Note_on_c, 0, 56, 46
2, 476246, Note_on_c, 0, 63, 51
2, 476341, Note_on_c, 0, 60, 45
2, 476883, Note_on_c, 0, 67, 0
2, 477057, Note_on_c, 0, 70, 0
2, 477242, Note_on_c, 0, 67, 31
2, 477370, Note_on_c, 0, 63, 0
2, 477397, Note_on_c, 0, 67, 0
2, 477511, Note_on_c, 0, 68, 57
2, 477680, Note_on_c, 0, 56, 0
2, 477750, Note_on_c, 0, 68, 0
2, 477786, Note_on_c, 0, 70, 62
2, 477903, Note_on_c, 0, 70, 0
2, 477906, Note_on_c, 0, 60, 0
2, 478039, Note_on_c, 0, 71, 76
2, 478308, Note_on_c, 0, 71, 0
2, 478362, Note_on_c, 0, 72, 73
2, 478523, Note_on_c, 0, 66, 62
2, 478594, Note_on_c, 0, 56, 48
2, 478629, Note_on_c, 0, 62, 39
2, 478694, Note_on_c, 0, 73, 70
2, 478700, Note_on_c, 0, 72, 0
2, 478784, Note_on_c, 0, 73, 0
2, 478925, Note_on_c, 0, 74, 80
2, 479119, Note_on_c, 0, 74, 0
2, 479148, Note_on_c, 0, 66, 0
2, 479268, Note_on_c, 0, 75, 55
2, 479431, Note_on_c, 0, 62, 0
2, 479486, Note_on_c, 0, 75, 0
2, 479516, Note_on_c, 0, 76, 75
2, 479687, Note_on_c, 0, 56, 0
2, 479755, Note_on_c, 0, 77, 105
2, 479763, Note_on_c, 0, 76, 0
2, 479986, Note_on_c, 0, 65, 59
2, 479997, Note_on_c, 0, 62, 28
2, 480068, Note_on_c, 0, 74, 97
2, 480073, Note_on_c, 0, 60, 55
2, 480101, Note_on_c, 0, 55, 46
2, 480237, Note_on_c, 0, 77, 0
2, 480574, Note_on_c, 0, 62, 0
2, 480612, Note_on_c, 0, 74, 0
2, 480794, Note_on_c, 0, 65, 0
2, 480854, Note_on_c, 0, 70, 67
2, 480873, Note_on_c, 0, 55, 0
2, 481126, Note_on_c, 0, 60, 0
2, 481227, Note_on_c, 0, 70, 0
2, 481564, Note_on_c, 0, 67, 57
2, 481676, Note_on_c, 0, 62, 36
2, 481681, Note_on_c, 0, 65, 29
2, 481820, Note_on_c, 0, 67, 0
2, 482018, Note_on_c, 0, 65, 0
2, 482026, Note_on_c, 0, 70, 55
2, 482217, Note_on_c, 0, 62, 0
2, 482296, Note_on_c, 0, 70, 0
2, 483465, Note_on_c, 0, 63, 62
2, 483539, Note_on_c, 0, 55, 40
2, 483620, Note_on_c, 0, 60, 31
2, 483784, Note_on_c, 0, 55, 0
2, 483854, Note_on_c, 0, 60, 0
2, 483860, Note_on_c, 0, 63, 0
2, 484863, Note_on_c, 0, 63, 44
2, 484869, Note_on_c, 0, 60, 41
2, 484874, Note_on_c, 0, 54, 46
2, 485141, Note_on_c, 0, 63, 0
2, 485244, Note_on_c, 0, 54, 0
2, 485252, Note_on_c, 0, 60, 0
2, 486455, Note_on_c, 0, 63, 53
2, 486487, Note_on_c, 0, 54, 41
2, 486523, Note_on_c, 0, 60, 41
2, 486572, Note_on_c, 0, 63, 0
2, 486640, Note_on_c, 0, 60, 0
2, 486708, Note_on_c, 0, 54, 0
2, 486765, Note_on_c, 0, 72, 79
2, 486778, Note_on_c, 0, 80, 70
2, 486824, Note_on_c, 0, 84, 66
2, 486868, Note_on_c, 0, 78, 53
2, 486988, Note_on_c, 0, 78, 0
2, 487284, Note_on_c, 0, 72, 0
2, 487363, Note_on_c, 0, 80, 0
2, 487366, Note_on_c, 0, 84, 0
2, 487385, Note_on_c, 0, 62, 43
2, 487477, Note_on_c, 0, 58, 30
2, 487529, Note_on_c, 0, 62, 0
2, 487619, Note_on_c, 0, 58, 0
2, 487812, Note_on_c, 0, 72, 64
2, 487820, Note_on_c, 0, 84, 61
2, 487825, Note_on_c, 0, 80, 61
2, 487923, Note_on_c, 0, 78, 50
2, 488035, Note_on_c, 0, 78, 0
2, 488233, Note_on_c, 0, 81, 60
2, 488239, Note_on_c, 0, 80, 0
2, 488380, Note_on_c, 0, 62, 52
2, 488388, Note_on_c, 0, 72, 0
2, 488413, Note_on_c, 0, 81, 0
2, 488421, Note_on_c, 0, 58, 46
2, 488467, Note_on_c, 0, 84, 0
2, 488503, Note_on_c, 0, 62, 0
2, 488579, Note_on_c, 0, 57, 24
2, 488582, Note_on_c, 0, 58, 0
2, 488737, Note_on_c, 0, 57, 0
2, 489406, Note_on_c, 0, 62, 61
2, 489419, Note_on_c, 0, 58, 56
2, 489463, Note_on_c, 0, 57, 48
2, 489555, Note_on_c, 0, 62, 0
2, 489572, Note_on_c, 0, 57, 0
2, 489629, Note_on_c, 0, 58, 0
2, 490690, Note_on_c, 0, 63, 70
2, 490733, Note_on_c, 0, 59, 64
2, 490763, Note_on_c, 0, 53, 62
2, 490788, Note_on_c, 0, 58, 55
2, 491832, Note_on_c, 0, 59, 0
2, 492088, Note_on_c, 0, 59, 57
2, 492115, Note_on_c, 0, 53, 0
2, 492137, Note_on_c, 0, 63, 0
2, 492158, Note_on_c, 0, 67, 65
2, 492439, Note_on_c, 0, 67, 0
2, 492575, Note_on_c, 0, 68, 59
2, 492681, Note_on_c, 0, 59, 0
2, 492721, Note_on_c, 0, 58, 0
2, 492953, Note_on_c, 0, 68, 0
2, 493091, Note_on_c, 0, 70, 85
2, 493108, Note_on_c, 0, 59, 65
2, 493113, Note_on_c, 0, 63, 57
2, 493178, Note_on_c, 0, 58, 40
2, 493206, Note_on_c, 0, 63, 0
2, 493388, Note_on_c, 0, 70, 0
2, 493440, Note_on_c, 0, 58, 0
2, 493478, Note_on_c, 0, 71, 64
2, 493616, Note_on_c, 0, 59, 0
2, 493845, Note_on_c, 0, 71, 0
2, 494022, Note_on_c, 0, 73, 90
2, 494035, Note_on_c, 0, 59, 73
2, 494084, Note_on_c, 0, 63, 72
2, 494117, Note_on_c, 0, 58, 44
2, 494239, Note_on_c, 0, 58, 0
2, 494272, Note_on_c, 0, 63, 0
2, 494321, Note_on_c, 0, 59, 0
2, 494334, Note_on_c, 0, 73, 0
2, 494481, Note_on_c, 0, 74, 82
2, 494783, Note_on_c, 0, 74, 0
2, 495017, Note_on_c, 0, 75, 98
2, 495101, Note_on_c, 0, 67, 69
2, 495107, Note_on_c, 0, 63, 59
2, 495123, Note_on_c, 0, 58, 47
2, 495131, Note_on_c, 0, 62, 59
2, 495267, Note_on_c, 0, 61, 32
2, 495308, Note_on_c, 0, 75, 0
2, 495452, Note_on_c, 0, 76, 92
2, 495482, Note_on_c, 0, 61, 0
2, 495730, Note_on_c, 0, 62, 0
2, 495811, Note_on_c, 0, 76, 0
2, 496015, Note_on_c, 0, 77, 104
2, 496241, Note_on_c, 0, 77, 0
2, 496385, Note_on_c, 0, 67, 0
2, 496445, Note_on_c, 0, 77, 90
2, 496616, Note_on_c, 0, 63, 0
2, 496772, Note_on_c, 0, 77, 0
2, 496962, Note_on_c, 0, 77, 95
2, 496995, Note_on_c, 0, 67, 46
2, 497014, Note_on_c, 0, 63, 51
2, 497117, Note_on_c, 0, 62, 32
2, 497120, Note_on_c, 0, 67, 0
2, 497296, Note_on_c, 0, 62, 0
2, 497340, Note_on_c, 0, 58, 0
2, 497343, Note_on_c, 0, 77, 0
2, 497370, Note_on_c, 0, 63, 0
2, 497449, Note_on_c, 0, 76, 67
2, 497789, Note_on_c, 0, 76, 0
2, 497941, Note_on_c, 0, 67, 50
2, 497941, Note_on_c, 0, 77, 90
2, 497979, Note_on_c, 0, 63, 53
2, 498017, Note_on_c, 0, 62, 40
2, 498096, Note_on_c, 0, 58, 22
2, 498099, Note_on_c, 0, 67, 0
2, 498210, Note_on_c, 0, 77, 0
2, 498219, Note_on_c, 0, 62, 0
2, 498254, Note_on_c, 0, 58, 0
2, 498344, Note_on_c, 0, 63, 0
2, 498395, Note_on_c, 0, 77, 93
2, 498673, Note_on_c, 0, 77, 0
2, 498926, Note_on_c, 0, 77, 93
2, 499103, Note_on_c, 0, 63, 55
2, 499113, Note_on_c, 0, 67, 49
2, 499176, Note_on_c, 0, 57, 43
2, 499239, Note_on_c, 0, 67, 0
2, 499296, Note_on_c, 0, 77, 0
2, 499339, Note_on_c, 0, 57, 0
2, 499350, Note_on_c, 0, 75, 82
2, 499470, Note_on_c, 0, 63, 0
2, 499720, Note_on_c, 0, 57, 6
2, 499802, Note_on_c, 0, 63, 44
2, 499842, Note_on_c, 0, 75, 0
2, 499943, Note_on_c, 0, 63, 0
2, 500123, Note_on_c, 0, 57, 0
2, 500218, Note_on_c, 0, 72, 46
2, 500767, Note_on_c, 0, 63, 50
2, 500846, Note_on_c, 0, 72, 0
2, 500909, Note_on_c, 0, 57, 25
2, 500917, Note_on_c, 0, 63, 0
2, 501061, Note_on_c, 0, 57, 0
2, 501798, Note_on_c, 0, 63, 58
2, 501861, Note_on_c, 0, 57, 47
2, 501961, Note_on_c, 0, 63, 0
2, 502005, Note_on_c, 0, 57, 0
2, 503049, Note_on_c, 0, 65, 35
2, 503066, Note_on_c, 0, 60, 45
2, 503076, Note_on_c, 0, 62, 44
2, 503166, Note_on_c, 0, 55, 29
2, 503697, Note_on_c, 0, 55, 0
2, 503797, Note_on_c, 0, 65, 0
2, 503803, Note_on_c, 0, 60, 0
2, 504078, Note_on_c, 0, 62, 0
2, 504627, Note_on_c, 0, 65, 38
2, 504643, Note_on_c, 0, 62, 46
2, 504679, Note_on_c, 0, 60, 51
2, 504766, Note_on_c, 0, 65, 0
2, 504782, Note_on_c, 0, 62, 0
2, 504904, Note_on_c, 0, 60, 0
2, 505029, Note_on_c, 0, 72, 88
2, 505367, Note_on_c, 0, 72, 0
2, 505644, Note_on_c, 0, 62, 54
2, 505783, Note_on_c, 0, 62, 0
2, 505971, Note_on_c, 0, 63, 52
2, 506387, Note_on_c, 0, 63, 0
2, 506506, Note_on_c, 0, 64, 70
2, 506626, Note_on_c, 0, 60, 43
2, 506757, Note_on_c, 0, 60, 0
2, 506773, Note_on_c, 0, 64, 0
2, 506969, Note_on_c, 0, 66, 53
2, 507467, Note_on_c, 0, 66, 0
2, 507516, Note_on_c, 0, 68, 75
2, 507790, Note_on_c, 0, 68, 0
2, 507992, Note_on_c, 0, 71, 52
2, 508294, Note_on_c, 0, 71, 0
2, 508457, Note_on_c, 0, 67, 61
2, 508465, Note_on_c, 0, 73, 76
2, 508481, Note_on_c, 0, 62, 61
2, 508508, Note_on_c, 0, 56, 45
2, 508546, Note_on_c, 0, 67, 0
2, 508685, Note_on_c, 0, 56, 0
2, 508750, Note_on_c, 0, 62, 0
2, 508797, Note_on_c, 0, 73, 0
2, 508965, Note_on_c, 0, 75, 67
2, 509376, Note_on_c, 0, 75, 0
2, 509460, Note_on_c, 0, 62, 52
2, 509504, Note_on_c, 0, 71, 41
2, 509566, Note_on_c, 0, 62, 0
2, 509656, Note_on_c, 0, 71, 0
2, 509925, Note_on_c, 0, 72, 73
2, 510312, Note_on_c, 0, 72, 0
2, 510434, Note_on_c, 0, 74, 93
2, 510722, Note_on_c, 0, 74, 0
2, 510888, Note_on_c, 0, 75, 68
2, 511269, Note_on_c, 0, 75, 0
2, 511389, Note_on_c, 0, 77, 87
2, 511460, Note_on_c, 0, 63, 68
2, 511528, Note_on_c, 0, 57, 51
2, 511536, Note_on_c, 0, 60, 40
2, 511593, Note_on_c, 0, 55, 32
2, 511721, Note_on_c, 0, 77, 0
2, 511789, Note_on_c, 0, 63, 0
2, 511838, Note_on_c, 0, 81, 61
2, 511840, Note_on_c, 0, 55, 0
2, 511865, Note_on_c, 0, 60, 0
2, 512052, Note_on_c, 0, 57, 0
2, 512262, Note_on_c, 0, 81, 0
2, 512428, Note_on_c, 0, 86, 81
2, 512482, Note_on_c, 0, 60, 51
2, 512678, Note_on_c, 0, 86, 0
2, 512844, Note_on_c, 0, 60, 0
2, 512849, Note_on_c, 0, 79, 60
2, 513410, Note_on_c, 0, 79, 0
2, 513432, Note_on_c, 0, 63, 61
2, 513502, Note_on_c, 0, 60, 44
2, 513519, Note_on_c, 0, 63, 0
2, 513638, Note_on_c, 0, 60, 0
2, 514365, Note_on_c, 0, 65, 77
2, 514373, Note_on_c, 0, 60, 66
2, 514384, Note_on_c, 0, 54, 57
2, 514411, Note_on_c, 0, 58, 50
2, 515077, Note_on_c, 0, 60, 0
2, 515412, Note_on_c, 0, 60, 60
2, 515735, Note_on_c, 0, 65, 0
2, 515918, Note_on_c, 0, 54, 0
2, 515926, Note_on_c, 0, 60, 0
2, 515977, Note_on_c, 0, 58, 0
2, 516187, Note_on_c, 0, 54, 57
2, 516187, Note_on_c, 0, 60, 63
2, 516220, Note_on_c, 0, 58, 56
2, 516241, Note_on_c, 0, 65, 39
2, 516331, Note_on_c, 0, 58, 0
2, 516377, Note_on_c, 0, 65, 0
2, 516516, Note_on_c, 0, 60, 0
2, 516570, Note_on_c, 0, 80, 79
2, 516657, Note_on_c, 0, 54, 0
2, 516853, Note_on_c, 0, 80, 0
2, 516954, Note_on_c, 0, 86, 97
2, 517133, Note_on_c, 0, 54, 60
2, 517201, Note_on_c, 0, 58, 51
2, 517234, Note_on_c, 0, 60, 47
2, 517272, Note_on_c, 0, 86, 0
2, 517348, Note_on_c, 0, 60, 0
2, 517381, Note_on_c, 0, 79, 92
2, 517599, Note_on_c, 0, 58, 0
2, 517634, Note_on_c, 0, 54, 0
2, 518053, Note_on_c, 0, 79, 0
2, 518107, Note_on_c, 0, 78, 90
2, 518153, Note_on_c, 0, 58, 43
2, 518208, Note_on_c, 0, 62, 28
2, 518298, Note_on_c, 0, 58, 0
2, 518344, Note_on_c, 0, 62, 0
2, 518488, Note_on_c, 0, 78, 0
2, 518570, Note_on_c, 0, 85, 94
2, 518959, Note_on_c, 0, 85, 0
2, 519002, Note_on_c, 0, 77, 67
2, 519089, Note_on_c, 0, 58, 60
2, 519179, Note_on_c, 0, 62, 30
2, 519345, Note_on_c, 0, 62, 0
2, 519416, Note_on_c, 0, 58, 0
2, 519454, Note_on_c, 0, 77, 0
2, 519552, Note_on_c, 0, 76, 75
2, 519864, Note_on_c, 0, 76, 0
2, 520017, Note_on_c, 0, 84, 75
2, 520041, Note_on_c, 0, 83, 58
2, 520057, Note_on_c, 0, 58, 43
2, 520193, Note_on_c, 0, 58, 0
2, 520253, Note_on_c, 0, 83, 0
2, 520267, Note_on_c, 0, 84, 0
2, 520354, Note_on_c, 0, 76, 47
2, 520376, Note_on_c, 0, 75, 42
2, 520523, Note_on_c, 0, 75, 0
2, 520838, Note_on_c, 0, 62, 50
2, 520838, Note_on_c, 0, 58, 51
2, 520901, Note_on_c, 0, 76, 0
2, 520920, Note_on_c, 0, 75, 76
2, 520950, Note_on_c, 0, 62, 0
2, 520963, Note_on_c, 0, 58, 0
2, 521235, Note_on_c, 0, 75, 0
2, 521404, Note_on_c, 0, 83, 72
2, 521592, Note_on_c, 0, 83, 0
2, 521766, Note_on_c, 0, 74, 80
2, 522250, Note_on_c, 0, 74, 0
2, 522282, Note_on_c, 0, 73, 77
2, 522688, Note_on_c, 0, 73, 0
2, 522799, Note_on_c, 0, 81, 88
2, 523060, Note_on_c, 0, 81, 0
2, 523207, Note_on_c, 0, 72, 83
2, 523708, Note_on_c, 0, 72, 0
2, 523727, Note_on_c, 0, 58, 38
2, 523773, Note_on_c, 0, 71, 74
2, 523865, Note_on_c, 0, 58, 0
2, 524031, Note_on_c, 0, 71, 0
2, 524214, Note_on_c, 0, 79, 63
2, 524241, Note_on_c, 0, 77, 69
2, 524331, Note_on_c, 0, 77, 0
2, 524418, Note_on_c, 0, 79, 0
2, 524472, Note_on_c, 0, 70, 46
2, 524692, Note_on_c, 0, 70, 0
2, 524861, Note_on_c, 0, 70, 69
2, 525310, Note_on_c, 0, 70, 0
2, 525462, Note_on_c, 0, 69, 67
2, 525905, Note_on_c, 0, 69, 0
2, 527151, Note_on_c, 0, 67, 45
2, 527162, Note_on_c, 0, 63, 46
2, 527279, Note_on_c, 0, 67, 0
2, 527295, Note_on_c, 0, 63, 0
2, 528144, Note_on_c, 0, 67, 60
2, 528160, Note_on_c, 0, 63, 51
2, 528171, Note_on_c, 0, 62, 51
2, 528294, Note_on_c, 0, 58, 29
2, 528332, Note_on_c, 0, 67, 0
2, 528353, Note_on_c, 0, 62, 0
2, 528430, Note_on_c, 0, 58, 0
2, 528468, Note_on_c, 0, 63, 0
2, 529664, Note_on_c, 0, 67, 83
2, 529673, Note_on_c, 0, 58, 76
2, 529684, Note_on_c, 0, 63, 71
2, 529896, Note_on_c, 0, 67, 0
2, 529956, Note_on_c, 0, 58, 0
2, 529969, Note_on_c, 0, 63, 0
2, 530976, Note_on_c, 0, 63, 67
2, 531011, Note_on_c, 0, 57, 64
2, 531014, Note_on_c, 0, 67, 62
2, 531155, Note_on_c, 0, 67, 0
2, 531277, Note_on_c, 0, 57, 0
2, 531465, Note_on_c, 0, 63, 0
2, 532025, Note_on_c, 0, 63, 71
2, 532039, Note_on_c, 0, 67, 80
2, 532074, Note_on_c, 0, 57, 65
2, 532510, Note_on_c, 0, 57, 0
2, 532531, Note_on_c, 0, 67, 0
2, 532670, Note_on_c, 0, 63, 0
2, 533519, Note_on_c, 0, 65, 75
2, 533560, Note_on_c, 0, 62, 58
2, 533573, Note_on_c, 0, 60, 53
2, 533617, Note_on_c, 0, 55, 51
2, 534022, Note_on_c, 0, 62, 0
2, 534084, Note_on_c, 0, 60, 0
2, 534332, Note_on_c, 0, 55, 0
2, 534414, Note_on_c, 0, 65, 0
2, 534433, Note_on_c, 0, 62, 35
2, 534479, Note_on_c, 0, 84, 84
2, 534498, Note_on_c, 0, 72, 67
2, 534577, Note_on_c, 0, 84, 0
2, 534593, Note_on_c, 0, 72, 0
2, 534609, Note_on_c, 0, 62, 0
2, 534879, Note_on_c, 0, 81, 72
2, 534971, Note_on_c, 0, 81, 0
2, 535164, Note_on_c, 0, 84, 102
2, 535200, Note_on_c, 0, 72, 80
2, 535499, Note_on_c, 0, 84, 0
2, 535521, Note_on_c, 0, 65, 58
2, 535523, Note_on_c, 0, 72, 0
2, 535567, Note_on_c, 0, 62, 54
2, 535635, Note_on_c, 0, 65, 0
2, 535662, Note_on_c, 0, 60, 40
2, 535869, Note_on_c, 0, 81, 92
2, 535918, Note_on_c, 0, 60, 0
2, 535934, Note_on_c, 0, 62, 0
2, 535967, Note_on_c, 0, 69, 44
2, 536089, Note_on_c, 0, 69, 0
2, 536100, Note_on_c, 0, 81, 0
2, 536315, Note_on_c, 0, 77, 57
2, 536410, Note_on_c, 0, 77, 0
2, 536546, Note_on_c, 0, 81, 93
2, 536598, Note_on_c, 0, 69, 79
2, 536611, Note_on_c, 0, 65, 37
2, 536620, Note_on_c, 0, 62, 44
2, 536685, Note_on_c, 0, 60, 40
2, 536747, Note_on_c, 0, 65, 0
2, 536761, Note_on_c, 0, 62, 0
2, 536815, Note_on_c, 0, 60, 0
2, 536867, Note_on_c, 0, 81, 0
2, 536962, Note_on_c, 0, 69, 0
2, 537245, Note_on_c, 0, 79, 67
2, 537248, Note_on_c, 0, 77, 69
2, 537332, Note_on_c, 0, 79, 0
2, 537365, Note_on_c, 0, 65, 35
2, 537416, Note_on_c, 0, 55, 32
2, 537446, Note_on_c, 0, 60, 30
2, 537501, Note_on_c, 0, 77, 0
2, 537509, Note_on_c, 0, 65, 0
2, 537601, Note_on_c, 0, 55, 0
2, 537615, Note_on_c, 0, 74, 51
2, 537629, Note_on_c, 0, 60, 0
2, 537713, Note_on_c, 0, 74, 0
2, 537865, Note_on_c, 0, 77, 92
2, 537922, Note_on_c, 0, 65, 81
2, 538135, Note_on_c, 0, 60, 58
2, 538328, Note_on_c, 0, 65, 0
2, 538401, Note_on_c, 0, 77, 0
2, 538643, Note_on_c, 0, 60, 0
2, 538657, Note_on_c, 0, 74, 67
2, 538673, Note_on_c, 0, 65, 46
2, 538874, Note_on_c, 0, 65, 0
2, 539078, Note_on_c, 0, 74, 0
2, 539209, Note_on_c, 0, 60, 43
2, 539255, Note_on_c, 0, 70, 71
2, 539263, Note_on_c, 0, 65, 57
2, 539348, Note_on_c, 0, 65, 0
2, 539408, Note_on_c, 0, 60, 0
2, 539527, Note_on_c, 0, 70, 0
2, 540172, Note_on_c, 0, 60, 70
2, 540180, Note_on_c, 0, 65, 70
2, 540275, Note_on_c, 0, 55, 43
2, 540278, Note_on_c, 0, 65, 0
2, 540422, Note_on_c, 0, 55, 0
2, 541224, Note_on_c, 0, 60, 0
2, 541442, Note_on_c, 0, 69, 82
2, 541464, Note_on_c, 0, 63, 58
2, 541483, Note_on_c, 0, 60, 21
2, 541600, Note_on_c, 0, 55, 39
2, 541668, Note_on_c, 0, 57, 32
2, 542166, Note_on_c, 0, 57, 0
2, 542234, Note_on_c, 0, 63, 0
2, 542337, Note_on_c, 0, 55, 0
2, 542707, Note_on_c, 0, 69, 0
2, 542720, Note_on_c, 0, 60, 0
2, 542976, Note_on_c, 0, 63, 66
2, 543006, Note_on_c, 0, 60, 60
2, 543074, Note_on_c, 0, 63, 0
2, 543430, Note_on_c, 0, 68, 97
2, 543531, Note_on_c, 0, 60, 0
2, 543852, Note_on_c, 0, 68, 0
2, 543977, Note_on_c, 0, 69, 79
2, 544023, Note_on_c, 0, 60, 55
2, 544178, Note_on_c, 0, 60, 0
2, 544342, Note_on_c, 0, 69, 0
2, 544450, Note_on_c, 0, 68, 64
2, 544834, Note_on_c, 0, 68, 0
2, 544896, Note_on_c, 0, 66, 76
2, 544926, Note_on_c, 0, 60, 54
2, 544956, Note_on_c, 0, 58, 48
2, 545024, Note_on_c, 0, 60, 0
2, 545052, Note_on_c, 0, 58, 0
2, 545090, Note_on_c, 0, 55, 41
2, 545212, Note_on_c, 0, 55, 0
2, 545291, Note_on_c, 0, 66, 0
2, 545378, Note_on_c, 0, 65, 56
2, 545737, Note_on_c, 0, 65, 0
2, 545881, Note_on_c, 0, 63, 81
2, 545889, Note_on_c, 0, 49, 47
2, 546172, Note_on_c, 0, 63, 0
2, 546216, Note_on_c, 0, 49, 0
2, 546406, Note_on_c, 0, 62, 50
2, 546752, Note_on_c, 0, 62, 0
2, 546809, Note_on_c, 0, 60, 85
2, 546966, Note_on_c, 0, 49, 31
2, 546991, Note_on_c, 0, 50, 26
2, 547121, Note_on_c, 0, 49, 0
2, 547162, Note_on_c, 0, 60, 0
2, 547192, Note_on_c, 0, 58, 57
2, 547200, Note_on_c, 0, 50, 0
2, 547671, Note_on_c, 0, 58, 0
2, 547714, Note_on_c, 0, 50, 43
2, 547769, Note_on_c, 0, 49, 42
2, 547883, Note_on_c, 0, 49, 0
2, 547891, Note_on_c, 0, 57, 25
2, 547899, Note_on_c, 0, 48, 20
2, 548016, Note_on_c, 0, 57, 0
2, 548022, Note_on_c, 0, 48, 0
2, 548114, Note_on_c, 0, 50, 0
2, 548155, Note_on_c, 0, 60, 83
2, 548645, Note_on_c, 0, 60, 0
2, 548756, Note_on_c, 0, 50, 45
2, 548770, Note_on_c, 0, 57, 67
2, 549009, Note_on_c, 0, 50, 0
2, 549020, Note_on_c, 0, 57, 0
2, 549121, Note_on_c, 0, 58, 72
2, 549599, Note_on_c, 0, 58, 0
2, 549678, Note_on_c, 0, 50, 46
2, 549757, Note_on_c, 0, 54, 60
2, 549885, Note_on_c, 0, 54, 0
2, 550005, Note_on_c, 0, 50, 0
2, 550073, Note_on_c, 0, 57, 59
2, 550546, Note_on_c, 0, 50, 46
2, 550609, Note_on_c, 0, 57, 0
2, 550712, Note_on_c, 0, 54, 57
2, 550794, Note_on_c, 0, 50, 0
2, 550859, Note_on_c, 0, 54, 0
2, 551063, Note_on_c, 0, 55, 67
2, 551735, Note_on_c, 0, 55, 0
2, 551909, Note_on_c, 0, 50, 78
2, 552390, Note_on_c, 0, 50, 0
2, 553057, Note_on_c, 0, 43, 60
2, 553206, Note_on_c, 0, 50, 38
2, 553331, Note_on_c, 0, 50, 0
2, 553345, Note_on_c, 0, 43, 0
2, 554591, Note_on_c, 0, 50, 75
2, 554612, Note_on_c, 0, 43, 67
2, 554781, Note_on_c, 0, 43, 0
2, 554852, Note_on_c, 0, 50, 0
2, 556826, Note_on_c, 0, 63, 67
2, 556968, Note_on_c, 0, 57, 37
2, 557001, Note_on_c, 0, 63, 0
2, 557150, Note_on_c, 0, 57, 0
2, 558350, Note_on_c, 0, 63, 72
2, 558448, Note_on_c, 0, 60, 42
2, 558456, Note_on_c, 0, 63, 0
2, 558461, Note_on_c, 0, 57, 46
2, 558570, Note_on_c, 0, 60, 0
2, 558741, Note_on_c, 0, 69, 120
2, 558752, Note_on_c, 0, 57, 0
2, 559269, Note_on_c, 0, 69, 0
2, 559285, Note_on_c, 0, 68, 75
2, 559571, Note_on_c, 0, 68, 0
2, 559691, Note_on_c, 0, 69, 87
2, 560188, Note_on_c, 0, 69, 0
2, 560202, Note_on_c, 0, 68, 89
2, 560273, Note_on_c, 0, 63, 67
2, 560376, Note_on_c, 0, 60, 46
2, 560384, Note_on_c, 0, 63, 0
2, 560390, Note_on_c, 0, 68, 0
2, 560637, Note_on_c, 0, 66, 84
2, 560787, Note_on_c, 0, 60, 0
2, 561170, Note_on_c, 0, 60, 44
2, 561184, Note_on_c, 0, 66, 0
2, 561298, Note_on_c, 0, 60, 0
2, 561562, Note_on_c, 0, 66, 99
2, 562117, Note_on_c, 0, 66, 0
2, 562174, Note_on_c, 0, 65, 80
2, 562196, Note_on_c, 0, 60, 39
2, 562321, Note_on_c, 0, 60, 0
2, 562443, Note_on_c, 0, 65, 0
2, 562579, Note_on_c, 0, 66, 97
2, 562941, Note_on_c, 0, 66, 0
2, 563134, Note_on_c, 0, 65, 77
2, 563189, Note_on_c, 0, 58, 47
2, 563202, Note_on_c, 0, 62, 34
2, 563335, Note_on_c, 0, 62, 0
2, 563338, Note_on_c, 0, 58, 0
2, 563401, Note_on_c, 0, 65, 0
2, 563561, Note_on_c, 0, 63, 71
2, 563977, Note_on_c, 0, 62, 59
2, 564005, Note_on_c, 0, 58, 55
2, 564078, Note_on_c, 0, 62, 0
2, 564168, Note_on_c, 0, 58, 0
2, 564200, Note_on_c, 0, 63, 0
2, 564535, Note_on_c, 0, 62, 98
2, 564957, Note_on_c, 0, 62, 0
2, 565101, Note_on_c, 0, 58, 56
2, 565321, Note_on_c, 0, 58, 0
2, 565340, Note_on_c, 0, 62, 82
2, 565843, Note_on_c, 0, 62, 0
2, 565900, Note_on_c, 0, 61, 64
2, 566025, Note_on_c, 0, 58, 36
2, 566118, Note_on_c, 0, 61, 0
2, 566164, Note_on_c, 0, 58, 0
2, 566338, Note_on_c, 0, 62, 74
2, 566754, Note_on_c, 0, 62, 0
2, 566899, Note_on_c, 0, 60, 65
2, 566967, Note_on_c, 0, 58, 44
2, 567075, Note_on_c, 0, 58, 0
2, 567298, Note_on_c, 0, 60, 0
2, 567334, Note_on_c, 0, 58, 55
2, 567919, Note_on_c, 0, 58, 0
2, 568351, Note_on_c, 0, 58, 83
2, 568862, Note_on_c, 0, 58, 0
2, 568966, Note_on_c, 0, 50, 39
2, 569268, Note_on_c, 0, 57, 93
2, 569314, Note_on_c, 0, 50, 0
2, 569697, Note_on_c, 0, 57, 0
2, 569844, Note_on_c, 0, 58, 71
2, 569934, Note_on_c, 0, 50, 36
2, 570089, Note_on_c, 0, 50, 0
2, 570190, Note_on_c, 0, 58, 0
2, 570290, Note_on_c, 0, 57, 58
2, 570717, Note_on_c, 0, 57, 0
2, 570834, Note_on_c, 0, 55, 65
2, 570902, Note_on_c, 0, 50, 61
2, 570992, Note_on_c, 0, 50, 0
2, 571128, Note_on_c, 0, 55, 0
2, 571251, Note_on_c, 0, 54, 55
2, 571732, Note_on_c, 0, 54, 0
2, 572238, Note_on_c, 0, 48, 68
2, 572706, Note_on_c, 0, 48, 0
2, 573650, Note_on_c, 0, 48, 72
2, 573848, Note_on_c, 0, 48, 0
2, 574107, Note_on_c, 0, 77, 125
2, 574637, Note_on_c, 0, 77, 0
2, 574716, Note_on_c, 0, 76, 58
2, 574876, Note_on_c, 0, 76, 0
2, 575676, Note_on_c, 0, 67, 77
2, 575679, Note_on_c, 0, 63, 71
2, 575698, Note_on_c, 0, 62, 72
2, 575714, Note_on_c, 0, 57, 71
2, 576503, Note_on_c, 0, 63, 0
2, 576737, Note_on_c, 0, 63, 60
2, 576892, Note_on_c, 0, 67, 0
2, 577044, Note_on_c, 0, 77, 114
2, 577047, Note_on_c, 0, 79, 118
2, 577055, Note_on_c, 0, 63, 0
2, 577278, Note_on_c, 0, 79, 0
2, 577564, Note_on_c, 0, 63, 46
2, 577566, Note_on_c, 0, 77, 0
2, 577605, Note_on_c, 0, 75, 80
2, 577697, Note_on_c, 0, 63, 0
2, 577909, Note_on_c, 0, 75, 0
2, 578040, Note_on_c, 0, 77, 87
2, 578113, Note_on_c, 0, 57, 0
2, 578246, Note_on_c, 0, 62, 0
2, 578437, Note_on_c, 0, 77, 0
2, 578524, Note_on_c, 0, 75, 89
2, 578548, Note_on_c, 0, 77, 40
2, 578603, Note_on_c, 0, 63, 64
2, 578616, Note_on_c, 0, 67, 68
2, 578644, Note_on_c, 0, 62, 41
2, 578725, Note_on_c, 0, 67, 0
2, 578744, Note_on_c, 0, 57, 40
2, 578780, Note_on_c, 0, 77, 0
2, 578818, Note_on_c, 0, 62, 0
2, 578913, Note_on_c, 0, 75, 0
2, 578956, Note_on_c, 0, 63, 0
2, 578962, Note_on_c, 0, 57, 0
2, 579019, Note_on_c, 0, 74, 71
2, 579536, Note_on_c, 0, 72, 86
2, 579587, Note_on_c, 0, 74, 0
2, 579674, Note_on_c, 0, 65, 48
2, 579710, Note_on_c, 0, 62, 46
2, 579723, Note_on_c, 0, 60, 42
2, 579797, Note_on_c, 0, 65, 0
2, 579800, Note_on_c, 0, 72, 0
2, 579995, Note_on_c, 0, 62, 0
2, 580063, Note_on_c, 0, 60, 0
2, 580093, Note_on_c, 0, 74, 113
2, 580656, Note_on_c, 0, 65, 49
2, 580738, Note_on_c, 0, 62, 39
2, 580757, Note_on_c, 0, 74, 0
2, 580768, Note_on_c, 0, 60, 44
2, 580771, Note_on_c, 0, 65, 0
2, 580858, Note_on_c, 0, 72, 65
2, 580885, Note_on_c, 0, 62, 0
2, 580937, Note_on_c, 0, 60, 0
2, 581336, Note_on_c, 0, 72, 0
2, 581475, Note_on_c, 0, 69, 77
2, 582131, Note_on_c, 0, 69, 0
2, 582283, Note_on_c, 0, 65, 73
2, 582623, Note_on_c, 0, 65, 0
2, 582745, Note_on_c, 0, 62, 61
2, 583376, Note_on_c, 0, 62, 0
2, 583496, Note_on_c, 0, 58, 33
2, 583580, Note_on_c, 0, 55, 34
2, 583741, Note_on_c, 0, 55, 0
2, 583858, Note_on_c, 0, 58, 0
2, 585240, Note_on_c, 0, 65, 62
2, 585280, Note_on_c, 0, 58, 46
2, 585308, Note_on_c, 0, 60, 50
2, 585406, Note_on_c, 0, 55, 27
2, 585433, Note_on_c, 0, 60, 0
2, 585495, Note_on_c, 0, 65, 0
2, 585547, Note_on_c, 0, 55, 0
2, 585686, Note_on_c, 0, 58, 0
2, 587568, Note_on_c, 0, 63, 64
2, 587693, Note_on_c, 0, 60, 34
2, 587824, Note_on_c, 0, 57, 29
2, 587911, Note_on_c, 0, 60, 0
2, 587930, Note_on_c, 0, 63, 0
2, 587981, Note_on_c, 0, 57, 0
2, 589050, Note_on_c, 0, 55, 40
2, 589176, Note_on_c, 0, 55, 0
2, 589401, Note_on_c, 0, 55, 62
2, 589491, Note_on_c, 0, 55, 0
2, 589684, Note_on_c, 0, 60, 66
2, 589953, Note_on_c, 0, 60, 0
2, 590049, Note_on_c, 0, 63, 70
2, 590133, Note_on_c, 0, 63, 0
2, 590361, Note_on_c, 0, 67, 102
2, 590652, Note_on_c, 0, 67, 0
2, 591001, Note_on_c, 0, 72, 120
2, 591248, Note_on_c, 0, 72, 0
2, 591425, Note_on_c, 0, 75, 118
2, 591493, Note_on_c, 0, 73, 68
2, 591585, Note_on_c, 0, 73, 0
2, 591819, Note_on_c, 0, 75, 0
2, 591993, Note_on_c, 0, 77, 125
2, 592034, Note_on_c, 0, 65, 72
2, 592069, Note_on_c, 0, 54, 51
2, 592113, Note_on_c, 0, 58, 49
2, 592138, Note_on_c, 0, 60, 53
2, 592246, Note_on_c, 0, 58, 0
2, 592279, Note_on_c, 0, 60, 0
2, 592320, Note_on_c, 0, 77, 0
2, 592333, Note_on_c, 0, 65, 0
2, 592404, Note_on_c, 0, 74, 83
2, 592510, Note_on_c, 0, 54, 0
2, 592565, Note_on_c, 0, 77, 41
2, 592690, Note_on_c, 0, 77, 0
2, 592823, Note_on_c, 0, 74, 0
2, 592986, Note_on_c, 0, 72, 90
2, 593030, Note_on_c, 0, 77, 67
2, 593032, Note_on_c, 0, 60, 50
2, 593117, Note_on_c, 0, 58, 40
2, 593128, Note_on_c, 0, 77, 0
2, 593217, Note_on_c, 0, 60, 0
2, 593274, Note_on_c, 0, 72, 0
2, 593283, Note_on_c, 0, 58, 0
2, 593468, Note_on_c, 0, 77, 49
2, 593473, Note_on_c, 0, 70, 56
2, 593873, Note_on_c, 0, 77, 0
2, 593914, Note_on_c, 0, 70, 0
2, 593954, Note_on_c, 0, 54, 37
2, 593993, Note_on_c, 0, 58, 39
2, 594167, Note_on_c, 0, 54, 0
2, 594286, Note_on_c, 0, 69, 69
2, 594482, Note_on_c, 0, 58, 0
2, 594961, Note_on_c, 0, 69, 0
2, 595276, Note_on_c, 0, 62, 49
2, 595285, Note_on_c, 0, 70, 76
2, 595301, Note_on_c, 0, 58, 43
2, 595323, Note_on_c, 0, 74, 75
2, 595388, Note_on_c, 0, 57, 34
2, 595399, Note_on_c, 0, 55, 38
2, 595867, Note_on_c, 0, 70, 0
2, 595888, Note_on_c, 0, 69, 61
2, 596035, Note_on_c, 0, 74, 0
2, 596076, Note_on_c, 0, 69, 0
2, 596130, Note_on_c, 0, 57, 0
2, 596266, Note_on_c, 0, 70, 73
2, 596269, Note_on_c, 0, 55, 0
2, 596315, Note_on_c, 0, 58, 0
2, 596394, Note_on_c, 0, 74, 42
2, 596435, Note_on_c, 0, 62, 0
2, 596723, Note_on_c, 0, 74, 0
2, 596781, Note_on_c, 0, 70, 0
2, 597237, Note_on_c, 0, 73, 65
2, 597240, Note_on_c, 0, 70, 56
2, 597248, Note_on_c, 0, 61, 56
2, 597251, Note_on_c, 0, 64, 67
2, 597265, Note_on_c, 0, 68, 69
2, 597284, Note_on_c, 0, 58, 52
2, 597618, Note_on_c, 0, 70, 0
2, 597632, Note_on_c, 0, 64, 0
2, 597673, Note_on_c, 0, 68, 0
2, 597684, Note_on_c, 0, 61, 0
2, 597847, Note_on_c, 0, 73, 0
2, 597937, Note_on_c, 0, 70, 44
2, 597947, Note_on_c, 0, 64, 52
2, 597983, Note_on_c, 0, 68, 47
2, 598089, Note_on_c, 0, 70, 0
2, 598209, Note_on_c, 0, 73, 61
2, 598266, Note_on_c, 0, 61, 47
2, 598336, Note_on_c, 0, 70, 49
2, 598589, Note_on_c, 0, 64, 0
2, 598657, Note_on_c, 0, 70, 0
2, 598845, Note_on_c, 0, 68, 0
2, 598924, Note_on_c, 0, 73, 0
2, 598946, Note_on_c, 0, 61, 0
2, 599112, Note_on_c, 0, 65, 60
2, 599117, Note_on_c, 0, 68, 64
2, 599122, Note_on_c, 0, 72, 70
2, 599163, Note_on_c, 0, 60, 64
2, 599171, Note_on_c, 0, 58, 0
2, 599558, Note_on_c, 0, 65, 0
2, 599609, Note_on_c, 0, 72, 0
2, 599672, Note_on_c, 0, 68, 0
2, 599797, Note_on_c, 0, 58, 62
2, 599827, Note_on_c, 0, 60, 0
2, 600064, Note_on_c, 0, 65, 69
2, 600069, Note_on_c, 0, 72, 73
2, 600072, Note_on_c, 0, 68, 65
2, 600153, Note_on_c, 0, 60, 51
2, 600355, Note_on_c, 0, 60, 0
2, 600466, Note_on_c, 0, 58, 0
2, 600523, Note_on_c, 0, 68, 0
2, 600529, Note_on_c, 0, 65, 0
2, 600627, Note_on_c, 0, 72, 0
2, 601024, Note_on_c, 0, 71, 71
2, 601029, Note_on_c, 0, 77, 64
2, 601045, Note_on_c, 0, 74, 70
2, 601073, Note_on_c, 0, 66, 62
2, 601092, Note_on_c, 0, 56, 59
2, 601538, Note_on_c, 0, 66, 0
2, 601562, Note_on_c, 0, 77, 0
2, 601625, Note_on_c, 0, 71, 0
2, 601679, Note_on_c, 0, 74, 0
2, 601802, Note_on_c, 0, 62, 47
2, 601962, Note_on_c, 0, 66, 62
2, 601976, Note_on_c, 0, 71, 73
2, 601981, Note_on_c, 0, 74, 62
2, 602000, Note_on_c, 0, 77, 70
2, 602332, Note_on_c, 0, 62, 0
2, 602397, Note_on_c, 0, 71, 0
2, 602509, Note_on_c, 0, 74, 0
2, 602618, Note_on_c, 0, 66, 0
2, 602667, Note_on_c, 0, 77, 0
2, 602732, Note_on_c, 0, 56, 0
2, 602898, Note_on_c, 0, 62, 26
2, 602969, Note_on_c, 0, 65, 53
2, 602982, Note_on_c, 0, 60, 48
2, 602988, Note_on_c, 0, 74, 73
2, 603012, Note_on_c, 0, 67, 53
2, 603017, Note_on_c, 0, 70, 66
2, 603031, Note_on_c, 0, 55, 50
2, 604046, Note_on_c, 0, 67, 0
2, 604051, Note_on_c, 0, 60, 0
2, 604081, Note_on_c, 0, 65, 0
2, 604100, Note_on_c, 0, 55, 0
2, 604116, Note_on_c, 0, 62, 0
2, 604154, Note_on_c, 0, 74, 0
2, 604201, Note_on_c, 0, 70, 0
2, 604465, Note_on_c, 0, 70, 67
2, 604508, Note_on_c, 0, 67, 46
2, 604538, Note_on_c, 0, 62, 51
2, 604543, Note_on_c, 0, 65, 44
2, 604554, Note_on_c, 0, 55, 42
2, 604573, Note_on_c, 0, 60, 49
2, 605650, Note_on_c, 0, 62, 0
2, 605708, Note_on_c, 0, 60, 0
2, 605727, Note_on_c, 0, 65, 0
2, 605912, Note_on_c, 0, 55, 0
2, 605933, Note_on_c, 0, 67, 0
2, 606175, Note_on_c, 0, 70, 0
2, 606755, Note_on_c, 0, 63, 64
2, 606801, Note_on_c, 0, 55, 48
2, 606951, Note_on_c, 0, 55, 0
2, 607087, Note_on_c, 0, 63, 0
2, 608447, Note_on_c, 0, 65, 58
2, 608466, Note_on_c, 0, 58, 58
2, 608493, Note_on_c, 0, 60, 58
2, 608496, Note_on_c, 0, 54, 48
2, 608596, Note_on_c, 0, 60, 0
2, 608613, Note_on_c, 0, 58, 0
2, 608642, Note_on_c, 0, 54, 0
2, 608667, Note_on_c, 0, 65, 0
2, 609477, Note_on_c, 0, 57, 49
2, 609592, Note_on_c, 0, 57, 0
2, 609711, Note_on_c, 0, 91, 97
2, 609717, Note_on_c, 0, 84, 93
2, 609749, Note_on_c, 0, 85, 91
2, 610119, Note_on_c, 0, 84, 0
2, 610318, Note_on_c, 0, 85, 0
2, 610326, Note_on_c, 0, 91, 0
2, 610682, Note_on_c, 0, 84, 85
2, 610701, Note_on_c, 0, 91, 86
2, 611044, Note_on_c, 0, 91, 0
2, 611153, Note_on_c, 0, 84, 0
2, 611281, Note_on_c, 0, 58, 49
2, 611297, Note_on_c, 0, 62, 49
2, 611392, Note_on_c, 0, 58, 0
2, 611425, Note_on_c, 0, 62, 0
2, 612241, Note_on_c, 0, 57, 43
2, 612246, Note_on_c, 0, 58, 51
2, 612268, Note_on_c, 0, 62, 44
2, 612478, Note_on_c, 0, 62, 0
2, 612480, Note_on_c, 0, 57, 0
2, 612510, Note_on_c, 0, 58, 0
2, 613538, Note_on_c, 0, 63, 80
2, 613571, Note_on_c, 0, 53, 59
2, 613615, Note_on_c, 0, 59, 56
2, 613715, Note_on_c, 0, 59, 0
2, 613813, Note_on_c, 0, 63, 0
2, 613816, Note_on_c, 0, 53, 0
2, 615037, Note_on_c, 0, 63, 87
2, 615124, Note_on_c, 0, 59, 60
2, 615135, Note_on_c, 0, 58, 47
2, 615233, Note_on_c, 0, 59, 0
2, 615301, Note_on_c, 0, 63, 0
2, 615410, Note_on_c, 0, 58, 0
2, 616095, Note_on_c, 0, 63, 77
2, 616101, Note_on_c, 0, 58, 65
2, 616106, Note_on_c, 0, 59, 74
2, 616191, Note_on_c, 0, 63, 0
2, 616207, Note_on_c, 0, 59, 0
2, 616215, Note_on_c, 0, 58, 0
2, 616332, Note_on_c, 0, 90, 73
2, 616389, Note_on_c, 0, 78, 97
2, 616794, Note_on_c, 0, 90, 0
2, 616854, Note_on_c, 0, 78, 0
2, 616876, Note_on_c, 0, 79, 73
2, 617126, Note_on_c, 0, 79, 0
2, 617175, Note_on_c, 0, 91, 64
2, 617417, Note_on_c, 0, 79, 64
2, 617480, Note_on_c, 0, 91, 0
2, 617817, Note_on_c, 0, 79, 0
2, 617828, Note_on_c, 0, 91, 67
2, 617967, Note_on_c, 0, 67, 70
2, 617975, Note_on_c, 0, 63, 59
2, 618024, Note_on_c, 0, 62, 44
2, 618073, Note_on_c, 0, 67, 0
2, 618100, Note_on_c, 0, 91, 0
2, 618141, Note_on_c, 0, 62, 0
2, 618154, Note_on_c, 0, 79, 46
2, 618252, Note_on_c, 0, 79, 0
2, 618260, Note_on_c, 0, 63, 0
2, 618386, Note_on_c, 0, 89, 88
2, 618535, Note_on_c, 0, 77, 46
2, 618802, Note_on_c, 0, 89, 0
2, 618919, Note_on_c, 0, 77, 0
2, 619131, Note_on_c, 0, 62, 44
2, 619283, Note_on_c, 0, 87, 83
2, 619324, Note_on_c, 0, 75, 75
2, 619386, Note_on_c, 0, 62, 0
2, 619890, Note_on_c, 0, 87, 0
2, 619963, Note_on_c, 0, 75, 0
2, 619977, Note_on_c, 0, 63, 47
2, 620004, Note_on_c, 0, 62, 43
2, 620164, Note_on_c, 0, 62, 0
2, 620219, Note_on_c, 0, 63, 0
2, 620249, Note_on_c, 0, 86, 57
2, 620287, Note_on_c, 0, 74, 68
2, 620570, Note_on_c, 0, 86, 0
2, 620668, Note_on_c, 0, 74, 0
2, 620891, Note_on_c, 0, 75, 74
2, 620896, Note_on_c, 0, 87, 76
2, 620923, Note_on_c, 0, 67, 58
2, 620983, Note_on_c, 0, 58, 47
2, 621024, Note_on_c, 0, 63, 44
2, 621062, Note_on_c, 0, 67, 0
2, 621141, Note_on_c, 0, 75, 0
2, 621174, Note_on_c, 0, 63, 0
2, 621193, Note_on_c, 0, 87, 0
2, 621236, Note_on_c, 0, 58, 0
2, 621707, Note_on_c, 0, 84, 64
2, 621769, Note_on_c, 0, 72, 64
2, 621807, Note_on_c, 0, 67, 61
2, 621829, Note_on_c, 0, 63, 48
2, 621933, Note_on_c, 0, 57, 36
2, 622060, Note_on_c, 0, 67, 0
2, 622074, Note_on_c, 0, 57, 0
2, 622147, Note_on_c, 0, 63, 0
2, 623067, Note_on_c, 0, 63, 61
2, 623072, Note_on_c, 0, 67, 56
2, 623078, Note_on_c, 0, 57, 59
2, 623173, Note_on_c, 0, 67, 0
2, 623252, Note_on_c, 0, 57, 0
2, 623298, Note_on_c, 0, 63, 0
2, 624038, Note_on_c, 0, 72, 0
2, 624631, Note_on_c, 0, 66, 68
2, 624633, Note_on_c, 0, 84, 0
2, 624644, Note_on_c, 0, 56, 60
2, 624704, Note_on_c, 0, 61, 49
2, 624710, Note_on_c, 0, 63, 55
2, 625670, Note_on_c, 0, 66, 0
2, 625683, Note_on_c, 0, 56, 0
2, 625847, Note_on_c, 0, 61, 0
2, 625849, Note_on_c, 0, 63, 0
2, 625977, Note_on_c, 0, 65, 58
2, 626021, Note_on_c, 0, 62, 61
2, 626056, Note_on_c, 0, 88, 126
2, 626072, Note_on_c, 0, 60, 56
2, 626119, Note_on_c, 0, 55, 44
2, 626575, Note_on_c, 0, 88, 0
2, 627130, Note_on_c, 0, 65, 0
2, 627253, Note_on_c, 0, 55, 0
2, 627345, Note_on_c, 0, 62, 0
2, 627424, Note_on_c, 0, 60, 0
2, 627636, Note_on_c, 0, 85, 105
2, 627658, Note_on_c, 0, 62, 58
2, 627682, Note_on_c, 0, 65, 64
2, 627737, Note_on_c, 0, 55, 53
2, 627745, Note_on_c, 0, 60, 60
2, 627821, Note_on_c, 0, 65, 0
2, 627968, Note_on_c, 0, 85, 0
2, 628224, Note_on_c, 0, 83, 72
2, 628243, Note_on_c, 0, 55, 0
2, 628322, Note_on_c, 0, 62, 0
2, 628365, Note_on_c, 0, 60, 0
2, 628618, Note_on_c, 0, 83, 0
2, 628711, Note_on_c, 0, 62, 50
2, 628743, Note_on_c, 0, 80, 78
2, 628773, Note_on_c, 0, 60, 51
2, 628798, Note_on_c, 0, 55, 42
2, 628947, Note_on_c, 0, 55, 0
2, 628996, Note_on_c, 0, 62, 0
2, 629067, Note_on_c, 0, 80, 0
2, 629097, Note_on_c, 0, 60, 0
2, 629693, Note_on_c, 0, 74, 72
2, 629736, Note_on_c, 0, 62, 38
2, 629763, Note_on_c, 0, 60, 40
2, 629782, Note_on_c, 0, 74, 0
2, 629888, Note_on_c, 0, 62, 0
2, 629916, Note_on_c, 0, 60, 0
2, 630060, Note_on_c, 0, 84, 107
2, 630470, Note_on_c, 0, 84, 0
2, 630606, Note_on_c, 0, 81, 84
2, 630944, Note_on_c, 0, 81, 0
2, 631066, Note_on_c, 0, 82, 84
2, 631409, Note_on_c, 0, 82, 0
2, 631515, Note_on_c, 0, 81, 68
2, 631613, Note_on_c, 0, 60, 50
2, 631746, Note_on_c, 0, 60, 0
2, 631874, Note_on_c, 0, 81, 0
2, 631945, Note_on_c, 0, 79, 50
2, 632334, Note_on_c, 0, 79, 0
2, 632415, Note_on_c, 0, 77, 81
2, 632513, Note_on_c, 0, 60, 67
2, 632641, Note_on_c, 0, 77, 0
2, 632761, Note_on_c, 0, 60, 0
2, 632840, Note_on_c, 0, 75, 44
2, 633321, Note_on_c, 0, 75, 0
2, 633422, Note_on_c, 0, 74, 87
2, 633642, Note_on_c, 0, 74, 0
2, 633830, Note_on_c, 0, 75, 97
2, 633974, Note_on_c, 0, 63, 44
2, 634306, Note_on_c, 0, 60, 1
2, 634314, Note_on_c, 0, 75, 0
2, 634425, Note_on_c, 0, 79, 91
2, 634591, Note_on_c, 0, 63, 0
2, 634871, Note_on_c, 0, 79, 0
2, 634882, Note_on_c, 0, 60, 0
2, 634888, Note_on_c, 0, 78, 76
2, 635342, Note_on_c, 0, 73, 81
2, 635424, Note_on_c, 0, 78, 0
2, 635451, Note_on_c, 0, 60, 45
2, 635726, Note_on_c, 0, 73, 0
2, 635747, Note_on_c, 0, 60, 0
2, 635764, Note_on_c, 0, 72, 56
2, 636177, Note_on_c, 0, 72, 0
2, 636297, Note_on_c, 0, 71, 61
2, 636389, Note_on_c, 0, 71, 0
2, 636585, Note_on_c, 0, 77, 97
2, 636966, Note_on_c, 0, 77, 0
2, 637045, Note_on_c, 0, 71, 46
2, 637211, Note_on_c, 0, 60, 36
2, 637347, Note_on_c, 0, 71, 0
2, 637464, Note_on_c, 0, 76, 83
2, 637507, Note_on_c, 0, 77, 65
2, 637640, Note_on_c, 0, 60, 0
2, 637785, Note_on_c, 0, 77, 0
2, 637828, Note_on_c, 0, 76, 0
2, 637999, Note_on_c, 0, 75, 83
2, 638160, Note_on_c, 0, 60, 48
2, 638209, Note_on_c, 0, 54, 43
2, 638369, Note_on_c, 0, 54, 0
2, 638388, Note_on_c, 0, 70, 59
2, 638514, Note_on_c, 0, 75, 0
2, 638516, Note_on_c, 0, 60, 0
2, 638902, Note_on_c, 0, 69, 60
2, 638916, Note_on_c, 0, 70, 0
2, 639066, Note_on_c, 0, 54, 42
2, 639074, Note_on_c, 0, 60, 42
2, 639145, Note_on_c, 0, 69, 0
2, 639234, Note_on_c, 0, 54, 0
2, 639305, Note_on_c, 0, 74, 89
2, 639430, Note_on_c, 0, 60, 0
2, 639925, Note_on_c, 0, 74, 0
2, 639985, Note_on_c, 0, 69, 35
2, 640148, Note_on_c, 0, 54, 43
2, 640186, Note_on_c, 0, 69, 0
2, 640333, Note_on_c, 0, 72, 76
2, 640687, Note_on_c, 0, 54, 0
2, 640929, Note_on_c, 0, 70, 80
2, 640983, Note_on_c, 0, 72, 0
2, 641106, Note_on_c, 0, 57, 39
2, 641179, Note_on_c, 0, 62, 21
2, 641247, Note_on_c, 0, 70, 0
2, 641350, Note_on_c, 0, 66, 62
2, 641372, Note_on_c, 0, 57, 0
2, 641429, Note_on_c, 0, 62, 0
2, 641761, Note_on_c, 0, 66, 0
2, 641884, Note_on_c, 0, 69, 79
2, 642251, Note_on_c, 0, 69, 0
2, 642398, Note_on_c, 0, 66, 39
2, 642591, Note_on_c, 0, 66, 0
2, 642882, Note_on_c, 0, 67, 86
2, 642890, Note_on_c, 0, 62, 60
2, 642936, Note_on_c, 0, 58, 53
2, 642988, Note_on_c, 0, 62, 0
2, 643078, Note_on_c, 0, 58, 0
2, 643173, Note_on_c, 0, 67, 0
2, 643301, Note_on_c, 0, 62, 52
2, 643649, Note_on_c, 0, 62, 0
2, 643812, Note_on_c, 0, 60, 79
2, 643926, Note_on_c, 0, 50, 35
2, 643994, Note_on_c, 0, 49, 29
2, 644051, Note_on_c, 0, 50, 0
2, 644122, Note_on_c, 0, 49, 0
2, 644209, Note_on_c, 0, 58, 73
2, 644247, Note_on_c, 0, 60, 0
2, 644710, Note_on_c, 0, 58, 0
2, 644818, Note_on_c, 0, 49, 53
2, 644824, Note_on_c, 0, 50, 61
2, 644979, Note_on_c, 0, 49, 0
2, 645169, Note_on_c, 0, 60, 89
2, 645194, Note_on_c, 0, 67, 83
2, 645645, Note_on_c, 0, 67, 0
2, 645847, Note_on_c, 0, 49, 29
2, 645893, Note_on_c, 0, 48, 48
2, 645953, Note_on_c, 0, 60, 0
2, 645964, Note_on_c, 0, 49, 0
2, 646119, Note_on_c, 0, 50, 0
2, 646143, Note_on_c, 0, 58, 59
2, 646597, Note_on_c, 0, 58, 0
2, 646622, Note_on_c, 0, 48, 0
2, 646750, Note_on_c, 0, 50, 71
2, 646761, Note_on_c, 0, 60, 70
2, 646777, Note_on_c, 0, 49, 57
2, 646801, Note_on_c, 0, 67, 72
2, 646807, Note_on_c, 0, 61, 53
2, 646894, Note_on_c, 0, 67, 0
2, 646978, Note_on_c, 0, 49, 0
2, 647005, Note_on_c, 0, 61, 0
2, 647130, Note_on_c, 0, 60, 0
2, 647215, Note_on_c, 0, 60, 41
2, 647226, Note_on_c, 0, 67, 66
2, 647533, Note_on_c, 0, 67, 0
2, 647740, Note_on_c, 0, 48, 49
2, 647827, Note_on_c, 0, 50, 0
2, 648004, Note_on_c, 0, 48, 0
2, 648025, Note_on_c, 0, 58, 72
2, 648240, Note_on_c, 0, 60, 0
2, 648409, Note_on_c, 0, 58, 0
2, 648656, Note_on_c, 0, 63, 75
2, 648675, Note_on_c, 0, 67, 62
2, 648768, Note_on_c, 0, 55, 44
2, 648790, Note_on_c, 0, 48, 46
2, 648907, Note_on_c, 0, 67, 0
2, 648923, Note_on_c, 0, 48, 0
2, 648958, Note_on_c, 0, 63, 0
2, 649018, Note_on_c, 0, 55, 0
2, 649173, Note_on_c, 0, 67, 67
2, 649179, Note_on_c, 0, 63, 72
2, 649581, Note_on_c, 0, 55, 47
2, 649587, Note_on_c, 0, 48, 48
2, 649731, Note_on_c, 0, 48, 0
2, 649736, Note_on_c, 0, 67, 0
2, 649845, Note_on_c, 0, 63, 0
2, 649848, Note_on_c, 0, 55, 0
2, 649986, Note_on_c, 0, 59, 53
2, 650272, Note_on_c, 0, 59, 0
2, 650588, Note_on_c, 0, 58, 60
2, 650596, Note_on_c, 0, 65, 76
2, 650612, Note_on_c, 0, 62, 85
2, 650664, Note_on_c, 0, 55, 44
2, 650683, Note_on_c, 0, 48, 43
2, 650857, Note_on_c, 0, 55, 0
2, 650977, Note_on_c, 0, 65, 0
2, 650998, Note_on_c, 0, 62, 0
2, 651064, Note_on_c, 0, 48, 0
2, 651074, Note_on_c, 0, 58, 0
2, 651197, Note_on_c, 0, 62, 67
2, 651200, Note_on_c, 0, 65, 76
2, 651616, Note_on_c, 0, 55, 21
2, 651673, Note_on_c, 0, 65, 0
2, 651744, Note_on_c, 0, 62, 0
2, 651869, Note_on_c, 0, 63, 51
2, 651899, Note_on_c, 0, 60, 70
2, 651901, Note_on_c, 0, 55, 0
2, 652198, Note_on_c, 0, 60, 0
2, 652312, Note_on_c, 0, 63, 0
2, 652475, Note_on_c, 0, 62, 88
2, 652492, Note_on_c, 0, 65, 76
2, 652551, Note_on_c, 0, 41, 62
2, 652687, Note_on_c, 0, 41, 0
2, 652853, Note_on_c, 0, 65, 0
2, 652910, Note_on_c, 0, 62, 0
2, 653057, Note_on_c, 0, 62, 62
2, 653082, Note_on_c, 0, 65, 76
2, 653357, Note_on_c, 0, 62, 0
2, 653378, Note_on_c, 0, 48, 49
2, 653596, Note_on_c, 0, 65, 0
2, 653775, Note_on_c, 0, 63, 58
2, 653852, Note_on_c, 0, 57, 33
2, 653857, Note_on_c, 0, 61, 50
2, 653958, Note_on_c, 0, 48, 0
2, 654026, Note_on_c, 0, 61, 0
2, 654132, Note_on_c, 0, 57, 0
2, 654235, Note_on_c, 0, 63, 0
2, 654404, Note_on_c, 0, 61, 68
2, 654431, Note_on_c, 0, 65, 76
2, 654445, Note_on_c, 0, 51, 64
2, 654485, Note_on_c, 0, 41, 44
2, 654687, Note_on_c, 0, 61, 0
2, 654689, Note_on_c, 0, 41, 0
2, 654749, Note_on_c, 0, 65, 0
2, 654760, Note_on_c, 0, 51, 0
2, 654953, Note_on_c, 0, 65, 78
2, 654975, Note_on_c, 0, 61, 67
2, 655002, Note_on_c, 0, 57, 64
2, 655323, Note_on_c, 0, 51, 55
2, 655391, Note_on_c, 0, 57, 0
2, 655424, Note_on_c, 0, 61, 0
2, 655429, Note_on_c, 0, 51, 0
2, 655451, Note_on_c, 0, 48, 48
2, 655554, Note_on_c, 0, 65, 0
2, 655628, Note_on_c, 0, 48, 0
2, 655690, Note_on_c, 0, 63, 68
2, 655709, Note_on_c, 0, 57, 58
2, 656014, Note_on_c, 0, 57, 0
2, 656161, Note_on_c, 0, 63, 0
2, 656316, Note_on_c, 0, 65, 84
2, 656362, Note_on_c, 0, 46, 62
2, 656403, Note_on_c, 0, 63, 43
2, 656411, Note_on_c, 0, 62, 64
2, 656466, Note_on_c, 0, 53, 39
2, 656615, Note_on_c, 0, 65, 0
2, 656653, Note_on_c, 0, 63, 0
2, 656686, Note_on_c, 0, 62, 0
2, 656765, Note_on_c, 0, 53, 0
2, 656781, Note_on_c, 0, 46, 0
2, 656906, Note_on_c, 0, 62, 73
2, 656912, Note_on_c, 0, 65, 62
2, 656966, Note_on_c, 0, 57, 56
2, 657124, Note_on_c, 0, 46, 50
2, 657243, Note_on_c, 0, 62, 0
2, 657276, Note_on_c, 0, 53, 40
2, 657339, Note_on_c, 0, 57, 0
2, 657524, Note_on_c, 0, 65, 0
2, 657635, Note_on_c, 0, 62, 70
2, 658021, Note_on_c, 0, 46, 0
2, 658059, Note_on_c, 0, 62, 0
2, 658234, Note_on_c, 0, 69, 80
2, 658244, Note_on_c, 0, 62, 79
2, 658272, Note_on_c, 0, 57, 71
2, 658280, Note_on_c, 0, 46, 43
2, 658312, Note_on_c, 0, 65, 58
2, 658541, Note_on_c, 0, 69, 0
2, 658598, Note_on_c, 0, 57, 0
2, 658631, Note_on_c, 0, 65, 0
2, 658661, Note_on_c, 0, 62, 0
2, 658835, Note_on_c, 0, 62, 70
2, 658840, Note_on_c, 0, 69, 70
2, 659020, Note_on_c, 0, 53, 0
2, 659153, Note_on_c, 0, 57, 76
2, 659286, Note_on_c, 0, 46, 0
2, 659373, Note_on_c, 0, 62, 0
2, 659400, Note_on_c, 0, 69, 0
2, 659566, Note_on_c, 0, 65, 67
2, 659667, Note_on_c, 0, 62, 45
2, 659776, Note_on_c, 0, 62, 0
2, 659925, Note_on_c, 0, 65, 0
2, 659983, Note_on_c, 0, 57, 0
2, 660140, Note_on_c, 0, 65, 81
2, 660165, Note_on_c, 0, 72, 86
2, 660195, Note_on_c, 0, 58, 6
2, 660246, Note_on_c, 0, 51, 55
2, 660529, Note_on_c, 0, 72, 0
2, 660622, Note_on_c, 0, 65, 0
2, 660654, Note_on_c, 0, 58, 0
2, 660761, Note_on_c, 0, 65, 64
2, 660793, Note_on_c, 0, 72, 70
2, 660978, Note_on_c, 0, 58, 48
2, 661185, Note_on_c, 0, 72, 0
2, 661315, Note_on_c, 0, 65, 0
2, 661473, Note_on_c, 0, 62, 68
2, 661498, Note_on_c, 0, 69, 67
2, 661753, Note_on_c, 0, 62, 0
2, 661827, Note_on_c, 0, 58, 0
2, 661887, Note_on_c, 0, 69, 0
2, 662025, Note_on_c, 0, 58, 38
2, 662080, Note_on_c, 0, 62, 56
2, 662088, Note_on_c, 0, 67, 83
2, 662096, Note_on_c, 0, 74, 92
2, 662148, Note_on_c, 0, 70, 51
2, 662259, Note_on_c, 0, 70, 0
2, 662406, Note_on_c, 0, 74, 0
2, 662447, Note_on_c, 0, 62, 0
2, 662626, Note_on_c, 0, 58, 0
2, 662686, Note_on_c, 0, 74, 75
2, 662885, Note_on_c, 0, 58, 57
2, 662904, Note_on_c, 0, 62, 64
2, 662986, Note_on_c, 0, 51, 0
2, 663260, Note_on_c, 0, 74, 0
2, 663290, Note_on_c, 0, 67, 0
2, 663304, Note_on_c, 0, 58, 0
2, 663377, Note_on_c, 0, 70, 74
2, 663429, Note_on_c, 0, 65, 59
2, 663578, Note_on_c, 0, 62, 0
2, 663744, Note_on_c, 0, 65, 0
2, 663771, Note_on_c, 0, 70, 0
2, 664016, Note_on_c, 0, 63, 71
2, 664049, Note_on_c, 0, 77, 91
2, 664060, Note_on_c, 0, 55, 66
2, 664065, Note_on_c, 0, 72, 74
2, 664082, Note_on_c, 0, 67, 67
2, 664090, Note_on_c, 0, 69, 65
2, 664294, Note_on_c, 0, 69, 0
2, 664367, Note_on_c, 0, 67, 0
2, 664397, Note_on_c, 0, 77, 0
2, 664544, Note_on_c, 0, 72, 0
2, 664626, Note_on_c, 0, 77, 77
2, 664631, Note_on_c, 0, 60, 20
2, 664669, Note_on_c, 0, 72, 43
2, 665031, Note_on_c, 0, 72, 0
2, 665129, Note_on_c, 0, 60, 0
2, 665172, Note_on_c, 0, 77, 0
2, 665175, Control_c, 0, 64, 127
2, 665289, Note_on_c, 0, 72, 67
2, 665406, Note_on_c, 0, 63, 0
2, 665550, Note_on_c, 0, 55, 0
2, 665569, Note_on_c, 0, 72, 0
2, 665833, Note_on_c, 0, 55, 57
2, 665858, Note_on_c, 0, 65, 72
2, 665874, Note_on_c, 0, 61, 64
2, 665885, Note_on_c, 0, 81, 89
2, 665890, Note_on_c, 0, 77, 82
2, 665901, Note_on_c, 0, 72, 77
2, 665909, Note_on_c, 0, 60, 65
2, 666013, Control_c, 0, 64, 0
2, 666195, Note_on_c, 0, 65, 0
2, 666228, Note_on_c, 0, 72, 0
2, 666249, Note_on_c, 0, 81, 0
2, 666317, Note_on_c, 0, 60, 0
2, 666323, Note_on_c, 0, 77, 0
2, 666328, Note_on_c, 0, 61, 0
2, 666432, Note_on_c, 0, 65, 70
2, 666462, Note_on_c, 0, 81, 87
2, 666475, Note_on_c, 0, 72, 64
2, 666483, Note_on_c, 0, 60, 43
2, 666486, Note_on_c, 0, 61, 49
2, 666497, Control_c, 0, 64, 127
2, 666535, Note_on_c, 0, 77, 52
2, 666704, Note_on_c, 0, 77, 0
2, 666905, Note_on_c, 0, 65, 0
2, 666919, Note_on_c, 0, 72, 0
2, 666957, Note_on_c, 0, 55, 0
2, 666962, Note_on_c, 0, 61, 0
2, 667036, Note_on_c, 0, 60, 0
2, 667071, Note_on_c, 0, 81, 0
2, 667188, Note_on_c, 0, 65, 61
2, 667210, Note_on_c, 0, 77, 86
2, 667237, Note_on_c, 0, 61, 54
2, 667245, Note_on_c, 0, 55, 34
2, 667280, Note_on_c, 0, 72, 35
2, 667354, Note_on_c, 0, 65, 0
2, 667408, Note_on_c, 0, 72, 0
2, 667419, Note_on_c, 0, 61, 0
2, 667433, Note_on_c, 0, 77, 0
2, 667479, Note_on_c, 0, 55, 0
2, 667843, Note_on_c, 0, 84, 93
2, 667873, Note_on_c, 0, 65, 97
2, 667884, Note_on_c, 0, 72, 80
2, 667887, Note_on_c, 0, 54, 80
2, 667898, Note_on_c, 0, 58, 69
2, 667898, Control_c, 0, 64, 0
2, 667922, Note_on_c, 0, 60, 73
2, 667928, Note_on_c, 0, 81, 68
2, 668257, Note_on_c, 0, 84, 0
2, 668279, Note_on_c, 0, 72, 0
2, 668289, Note_on_c, 0, 65, 0
2, 668352, Control_c, 0, 64, 127
2, 668355, Note_on_c, 0, 60, 0
2, 668374, Note_on_c, 0, 81, 0
2, 668502, Note_on_c, 0, 65, 76
2, 668510, Note_on_c, 0, 84, 76
2, 668526, Note_on_c, 0, 72, 73
2, 668581, Note_on_c, 0, 60, 66
2, 668877, Note_on_c, 0, 65, 0
2, 668942, Note_on_c, 0, 60, 0
2, 668948, Note_on_c, 0, 72, 0
2, 669013, Note_on_c, 0, 84, 0
2, 669054, Note_on_c, 0, 58, 0
2, 669214, Note_on_c, 0, 54, 0
2, 669222, Note_on_c, 0, 60, 62
2, 669255, Note_on_c, 0, 81, 71
2, 669258, Note_on_c, 0, 58, 30
2, 669473, Note_on_c, 0, 60, 0
2, 669492, Note_on_c, 0, 58, 0
2, 669500, Note_on_c, 0, 81, 0
2, 669693, Control_c, 0, 64, 0
2, 669807, Note_on_c, 0, 54, 81
2, 669810, Note_on_c, 0, 58, 73
2, 669821, Note_on_c, 0, 82, 73
2, 669832, Note_on_c, 0, 86, 89
2, 669848, Note_on_c, 0, 65, 69
2, 669856, Note_on_c, 0, 74, 77
2, 669862, Note_on_c, 0, 60, 74
2, 669870, Note_on_c, 0, 79, 81
2, 669927, Note_on_c, 0, 65, 0
2, 670101, Note_on_c, 0, 82, 0
2, 670172, Control_c, 0, 64, 127
2, 670202, Note_on_c, 0, 79, 0
2, 670204, Note_on_c, 0, 74, 0
2, 670229, Note_on_c, 0, 86, 0
2, 670294, Note_on_c, 0, 60, 0
2, 670362, Note_on_c, 0, 58, 0
2, 670457, Note_on_c, 0, 86, 76
2, 670476, Note_on_c, 0, 65, 70
2, 670485, Note_on_c, 0, 79, 73
2, 670487, Note_on_c, 0, 74, 55
2, 670528, Note_on_c, 0, 58, 41
2, 670539, Note_on_c, 0, 60, 64
2, 670596, Note_on_c, 0, 82, 43
2, 670716, Note_on_c, 0, 65, 0
2, 670727, Note_on_c, 0, 74, 0
2, 670775, Note_on_c, 0, 82, 0
2, 670800, Note_on_c, 0, 79, 0
2, 670882, Note_on_c, 0, 54, 0
2, 670884, Note_on_c, 0, 86, 0
2, 670903, Note_on_c, 0, 60, 0
2, 670950, Note_on_c, 0, 58, 0
2, 671145, Note_on_c, 0, 54, 68
2, 671200, Note_on_c, 0, 65, 62
2, 671205, Note_on_c, 0, 58, 62
2, 671230, Note_on_c, 0, 89, 101
2, 671246, Note_on_c, 0, 60, 51
2, 671257, Note_on_c, 0, 77, 77
2, 671265, Note_on_c, 0, 84, 73
2, 671352, Note_on_c, 0, 60, 0
2, 671382, Note_on_c, 0, 65, 0
2, 671485, Note_on_c, 0, 77, 0
2, 671570, Note_on_c, 0, 89, 0
2, 671600, Note_on_c, 0, 84, 0
2, 671670, Note_on_c, 0, 54, 0
2, 671678, Note_on_c, 0, 58, 0
2, 671744, Control_c, 0, 64, 0
2, 671842, Note_on_c, 0, 89, 86
2, 671861, Note_on_c, 0, 84, 86
2, 671869, Note_on_c, 0, 58, 78
2, 671877, Note_on_c, 0, 53, 79
2, 671885, Note_on_c, 0, 62, 80
2, 671893, Note_on_c, 0, 77, 91
2, 671904, Note_on_c, 0, 57, 76
2, 672299, Control_c, 0, 64, 127
2, 672440, Note_on_c, 0, 77, 0
2, 672522, Note_on_c, 0, 84, 0
2, 672530, Note_on_c, 0, 89, 0
2, 672560, Note_on_c, 0, 62, 0
2, 672562, Note_on_c, 0, 53, 0
2, 672644, Note_on_c, 0, 58, 0
2, 672650, Note_on_c, 0, 57, 0
2, 672712, Control_c, 0, 64, 0
2, 672753, Note_on_c, 0, 91, 88
2, 672761, Note_on_c, 0, 58, 54
2, 672764, Note_on_c, 0, 57, 40
2, 672772, Note_on_c, 0, 62, 81
2, 672783, Note_on_c, 0, 86, 81
2, 672791, Note_on_c, 0, 53, 83
2, 672796, Note_on_c, 0, 79, 74
2, 672805, Note_on_c, 0, 87, 48
2, 672892, Note_on_c, 0, 87, 0
2, 673126, Control_c, 0, 64, 56
2, 673139, Control_c, 0, 64, 127
2, 673155, Note_on_c, 0, 79, 0
2, 673248, Note_on_c, 0, 53, 0
2, 673272, Note_on_c, 0, 91, 0
2, 673305, Note_on_c, 0, 62, 0
2, 673373, Note_on_c, 0, 58, 0
2, 673373, Note_on_c, 0, 57, 0
2, 673387, Note_on_c, 0, 86, 0
2, 673523, Control_c, 0, 64, 0
2, 673637, Note_on_c, 0, 93, 98
2, 673648, Note_on_c, 0, 86, 81
2, 673686, Note_on_c, 0, 81, 78
2, 673689, Note_on_c, 0, 62, 86
2, 673694, Note_on_c, 0, 57, 68
2, 673697, Note_on_c, 0, 58, 71
2, 673699, Note_on_c, 0, 53, 78
2, 674015, Control_c, 0, 64, 127
2, 674611, Note_on_c, 0, 93, 0
2, 674630, Note_on_c, 0, 53, 0
2, 674635, Note_on_c, 0, 81, 0
2, 674657, Note_on_c, 0, 62, 0
2, 674703, Note_on_c, 0, 58, 0
2, 674711, Note_on_c, 0, 57, 0
2, 674749, Note_on_c, 0, 86, 0
2, 674836, Control_c, 0, 64, 0
2, 674913, Note_on_c, 0, 91, 68
2, 674951, Note_on_c, 0, 58, 58
2, 674953, Note_on_c, 0, 62, 58
2, 674962, Note_on_c, 0, 86, 69
2, 674964, Note_on_c, 0, 79, 56
2, 674986, Note_on_c, 0, 53, 44
2, 675008, Note_on_c, 0, 57, 55
2, 675106, Note_on_c, 0, 57, 0
2, 675144, Note_on_c, 0, 53, 0
2, 675146, Note_on_c, 0, 91, 0
2, 675149, Note_on_c, 0, 86, 0
2, 675166, Note_on_c, 0, 79, 0
2, 675193, Note_on_c, 0, 62, 0
2, 675236, Note_on_c, 0, 58, 0
2, 675905, Note_on_c, 0, 62, 57
2, 675946, Note_on_c, 0, 89, 50
2, 675952, Note_on_c, 0, 58, 56
2, 675971, Note_on_c, 0, 57, 40
2, 675984, Note_on_c, 0, 77, 41
2, 675992, Note_on_c, 0, 84, 56
2, 675995, Note_on_c, 0, 53, 48
2, 676637, Control_c, 0, 64, 127
2, 676640, Note_on_c, 0, 89, 0
2, 676672, Note_on_c, 0, 84, 0
2, 676803, Note_on_c, 0, 77, 0
2, 676879, Note_on_c, 0, 53, 0
2, 676942, Note_on_c, 0, 62, 0
2, 676988, Note_on_c, 0, 57, 0
2, 676996, Note_on_c, 0, 58, 0
2, 677295, Control_c, 0, 64, 0
2, 677491, Note_on_c, 0, 86, 64
2, 677502, Note_on_c, 0, 74, 62
2, 677578, Note_on_c, 0, 62, 51
2, 677589, Note_on_c, 0, 58, 47
2, 677641, Note_on_c, 0, 57, 40
2, 677692, Note_on_c, 0, 53, 40
2, 677788, Control_c, 0, 64, 127
2, 678307, Note_on_c, 0, 57, 0
2, 678318, Note_on_c, 0, 53, 0
2, 678438, Note_on_c, 0, 58, 0
2, 678601, Note_on_c, 0, 62, 0
2, 679020, Note_on_c, 0, 74, 0
2, 679305, Control_c, 0, 64, 0
2, 679469, Note_on_c, 0, 86, 0
2, 679738, Note_on_c, 0, 63, 44
2, 679754, Note_on_c, 0, 60, 39
2, 679811, Note_on_c, 0, 55, 41
2, 679966, Note_on_c, 0, 57, 27
2, 680456, Note_on_c, 0, 60, 0
2, 680483, Note_on_c, 0, 55, 0
2, 680646, Note_on_c, 0, 57, 0
2, 680807, Note_on_c, 0, 63, 0
2, 681315, Note_on_c, 0, 63, 64
2, 681402, Note_on_c, 0, 63, 0
2, 681430, Note_on_c, 0, 60, 38
2, 681596, Note_on_c, 0, 60, 0
2, 681623, Note_on_c, 0, 86, 75
2, 681802, Note_on_c, 0, 86, 0
2, 681851, Note_on_c, 0, 87, 64
2, 682061, Note_on_c, 0, 86, 62
2, 682148, Note_on_c, 0, 87, 0
2, 682259, Note_on_c, 0, 86, 0
2, 682306, Note_on_c, 0, 84, 50
2, 682442, Note_on_c, 0, 84, 0
2, 682588, Note_on_c, 0, 86, 76
2, 682858, Note_on_c, 0, 86, 0
2, 682860, Note_on_c, 0, 87, 72
2, 683097, Note_on_c, 0, 87, 0
2, 683157, Note_on_c, 0, 86, 52
2, 683252, Note_on_c, 0, 86, 0
2, 683317, Note_on_c, 0, 84, 68
2, 683513, Note_on_c, 0, 84, 0
2, 683682, Note_on_c, 0, 86, 105
2, 683701, Note_on_c, 0, 60, 68
2, 683704, Note_on_c, 0, 54, 64
2, 683728, Note_on_c, 0, 63, 60
2, 684745, Note_on_c, 0, 63, 0
2, 684862, Note_on_c, 0, 54, 0
2, 684900, Note_on_c, 0, 86, 0
2, 684979, Note_on_c, 0, 87, 57
2, 685045, Note_on_c, 0, 60, 0
2, 685170, Note_on_c, 0, 86, 89
2, 685374, Note_on_c, 0, 60, 56
2, 685376, Note_on_c, 0, 87, 0
2, 685379, Note_on_c, 0, 54, 42
2, 685531, Note_on_c, 0, 54, 0
2, 685578, Note_on_c, 0, 86, 0
2, 685635, Note_on_c, 0, 84, 56
2, 685703, Note_on_c, 0, 60, 0
2, 685978, Note_on_c, 0, 84, 0
2, 686157, Note_on_c, 0, 82, 79
2, 686252, Note_on_c, 0, 54, 64
2, 686258, Note_on_c, 0, 63, 61
2, 686293, Note_on_c, 0, 60, 51
2, 686375, Note_on_c, 0, 63, 0
2, 686399, Note_on_c, 0, 60, 0
2, 686415, Note_on_c, 0, 82, 0
2, 686701, Note_on_c, 0, 81, 48
2, 686859, Note_on_c, 0, 54, 0
2, 687044, Note_on_c, 0, 81, 0
2, 687123, Note_on_c, 0, 84, 97
2, 687188, Note_on_c, 0, 58, 50
2, 687202, Note_on_c, 0, 57, 53
2, 687210, Note_on_c, 0, 62, 42
2, 687370, Note_on_c, 0, 62, 0
2, 687395, Note_on_c, 0, 55, 29
2, 687408, Note_on_c, 0, 58, 0
2, 687465, Note_on_c, 0, 84, 0
2, 687520, Note_on_c, 0, 57, 0
2, 687555, Note_on_c, 0, 55, 0
2, 687574, Note_on_c, 0, 82, 70
2, 688083, Note_on_c, 0, 82, 0
2, 688110, Note_on_c, 0, 58, 33
2, 688145, Note_on_c, 0, 78, 70
2, 688189, Note_on_c, 0, 57, 27
2, 688238, Note_on_c, 0, 58, 0
2, 688341, Note_on_c, 0, 57, 0
2, 688417, Note_on_c, 0, 78, 0
2, 688518, Note_on_c, 0, 81, 85
2, 688989, Note_on_c, 0, 81, 0
2, 689086, Note_on_c, 0, 78, 56
2, 689176, Note_on_c, 0, 58, 29
2, 689195, Note_on_c, 0, 78, 0
2, 689288, Note_on_c, 0, 57, 24
2, 689299, Note_on_c, 0, 58, 0
2, 689435, Note_on_c, 0, 79, 66
2, 689437, Note_on_c, 0, 57, 0
2, 689938, Note_on_c, 0, 79, 0
2, 690077, Note_on_c, 0, 74, 70
2, 690093, Note_on_c, 0, 58, 46
2, 690172, Note_on_c, 0, 74, 0
2, 690232, Note_on_c, 0, 58, 0
2, 691222, Note_on_c, 0, 58, 52
2, 691235, Note_on_c, 0, 62, 45
2, 691311, Note_on_c, 0, 57, 33
2, 691363, Note_on_c, 0, 58, 0
2, 691374, Note_on_c, 0, 62, 0
2, 691469, Note_on_c, 0, 57, 0
2, 692797, Note_on_c, 0, 62, 78
2, 692813, Note_on_c, 0, 58, 65
2, 692835, Note_on_c, 0, 57, 63
2, 692886, Note_on_c, 0, 55, 46
2, 692911, Note_on_c, 0, 62, 0
2, 692949, Note_on_c, 0, 57, 0
2, 692954, Note_on_c, 0, 58, 0
2, 693003, Note_on_c, 0, 55, 0
2, 693278, Note_on_c, 0, 82, 73
2, 693297, Note_on_c, 0, 73, 71
2, 693368, Note_on_c, 0, 82, 0
2, 693634, Note_on_c, 0, 73, 0
2, 693991, Note_on_c, 0, 74, 70
2, 694007, Note_on_c, 0, 86, 64
2, 694290, Note_on_c, 0, 74, 0
2, 694323, Note_on_c, 0, 86, 0
2, 694839, Note_on_c, 0, 67, 91
2, 694842, Note_on_c, 0, 58, 84
2, 694856, Note_on_c, 0, 86, 98
2, 694864, Note_on_c, 0, 63, 70
2, 694869, Note_on_c, 0, 74, 109
2, 694877, Note_on_c, 0, 79, 90
2, 694883, Note_on_c, 0, 82, 73
2, 694891, Note_on_c, 0, 62, 71
2, 694989, Note_on_c, 0, 84, 33
2, 695057, Note_on_c, 0, 74, 0
2, 695152, Note_on_c, 0, 84, 0
2, 695155, Note_on_c, 0, 62, 0
2, 695198, Note_on_c, 0, 67, 0
2, 695255, Note_on_c, 0, 63, 0
2, 695291, Note_on_c, 0, 79, 0
2, 695324, Note_on_c, 0, 86, 0
2, 695386, Note_on_c, 0, 74, 76
2, 695416, Note_on_c, 0, 82, 0
2, 695547, Note_on_c, 0, 67, 58
2, 695549, Note_on_c, 0, 63, 51
2, 695557, Note_on_c, 0, 62, 36
2, 695680, Note_on_c, 0, 86, 60
2, 695691, Note_on_c, 0, 58, 0
2, 695702, Note_on_c, 0, 74, 0
2, 695721, Note_on_c, 0, 62, 0
2, 695745, Note_on_c, 0, 82, 46
2, 695759, Note_on_c, 0, 79, 61
2, 695900, Note_on_c, 0, 67, 0
2, 695957, Note_on_c, 0, 86, 0
2, 695963, Note_on_c, 0, 63, 0
2, 696023, Note_on_c, 0, 74, 40
2, 696055, Note_on_c, 0, 79, 0
2, 696069, Note_on_c, 0, 58, 35
2, 696148, Note_on_c, 0, 74, 0
2, 696161, Note_on_c, 0, 82, 0
2, 696213, Note_on_c, 0, 58, 0
2, 696341, Note_on_c, 0, 84, 70
2, 696344, Note_on_c, 0, 67, 85
2, 696363, Note_on_c, 0, 72, 80
2, 696368, Note_on_c, 0, 79, 64
2, 696376, Note_on_c, 0, 63, 70
2, 696395, Note_on_c, 0, 62, 68
2, 696412, Note_on_c, 0, 82, 64
2, 696414, Note_on_c, 0, 58, 65
2, 696558, Note_on_c, 0, 62, 0
2, 696572, Note_on_c, 0, 67, 0
2, 696596, Note_on_c, 0, 72, 0
2, 696686, Note_on_c, 0, 58, 0
2, 696700, Note_on_c, 0, 63, 0
2, 696719, Note_on_c, 0, 79, 0
2, 696735, Note_on_c, 0, 84, 0
2, 696741, Note_on_c, 0, 82, 0
2, 697916, Note_on_c, 0, 74, 99
2, 697932, Note_on_c, 0, 86, 101
2, 697954, Note_on_c, 0, 79, 86
2, 697973, Note_on_c, 0, 67, 99
2, 697975, Note_on_c, 0, 82, 61
2, 697984, Note_on_c, 0, 58, 84
2, 697986, Note_on_c, 0, 76, 69
2, 697992, Note_on_c, 0, 62, 80
2, 697997, Note_on_c, 0, 63, 72
2, 698068, Note_on_c, 0, 82, 0
2, 698071, Note_on_c, 0, 76, 0
2, 698087, Note_on_c, 0, 62, 0
2, 698103, Note_on_c, 0, 63, 0
2, 698106, Note_on_c, 0, 74, 0
2, 698147, Note_on_c, 0, 79, 0
2, 698169, Note_on_c, 0, 86, 0
2, 698190, Note_on_c, 0, 67, 0
2, 698196, Note_on_c, 0, 58, 0
2, 698550, Note_on_c, 0, 58, 76
2, 698552, Note_on_c, 0, 67, 82
2, 698577, Note_on_c, 0, 86, 82
2, 698582, Note_on_c, 0, 63, 64
2, 698585, Note_on_c, 0, 62, 64
2, 698590, Note_on_c, 0, 82, 70
2, 698593, Note_on_c, 0, 79, 76
2, 698598, Note_on_c, 0, 74, 75
2, 698675, Note_on_c, 0, 62, 0
2, 698677, Note_on_c, 0, 79, 0
2, 698688, Note_on_c, 0, 74, 0
2, 698759, Note_on_c, 0, 67, 0
2, 698819, Note_on_c, 0, 86, 0
2, 698857, Note_on_c, 0, 82, 0
2, 698889, Note_on_c, 0, 58, 0
2, 698898, Note_on_c, 0, 63, 0
2, 699178, Note_on_c, 0, 89, 102
2, 699189, Note_on_c, 0, 67, 95
2, 699202, Note_on_c, 0, 63, 75
2, 699213, Note_on_c, 0, 84, 81
2, 699219, Note_on_c, 0, 57, 81
2, 699230, Note_on_c, 0, 77, 73
2, 699240, Note_on_c, 0, 87, 62
2, 699276, Note_on_c, 0, 79, 68
2, 699327, Note_on_c, 0, 87, 0
2, 699365, Note_on_c, 0, 79, 0
2, 699471, Note_on_c, 0, 89, 0
2, 699491, Note_on_c, 0, 77, 0
2, 699545, Note_on_c, 0, 84, 0
2, 699714, Note_on_c, 0, 67, 0
2, 699776, Note_on_c, 0, 57, 0
2, 699836, Note_on_c, 0, 63, 0
2, 699929, Note_on_c, 0, 86, 80
2, 699937, Note_on_c, 0, 80, 91
2, 699942, Note_on_c, 0, 74, 90
2, 699983, Note_on_c, 0, 84, 62
2, 700018, Note_on_c, 0, 67, 80
2, 700021, Note_on_c, 0, 63, 80
2, 700026, Note_on_c, 0, 57, 77
2, 700081, Note_on_c, 0, 84, 0
2, 700293, Note_on_c, 0, 80, 0
2, 700339, Note_on_c, 0, 81, 66
2, 700394, Note_on_c, 0, 67, 0
2, 700429, Note_on_c, 0, 57, 0
2, 700432, Note_on_c, 0, 74, 0
2, 700459, Note_on_c, 0, 81, 0
2, 700478, Note_on_c, 0, 86, 0
2, 700557, Note_on_c, 0, 63, 0
2, 700766, Note_on_c, 0, 84, 80
2, 700793, Note_on_c, 0, 63, 73
2, 700799, Note_on_c, 0, 72, 87
2, 700810, Note_on_c, 0, 67, 81
2, 700845, Note_on_c, 0, 80, 66
2, 700851, Note_on_c, 0, 57, 76
2, 700872, Note_on_c, 0, 78, 54
2, 700978, Note_on_c, 0, 78, 0
2, 701408, Note_on_c, 0, 81, 41
2, 701498, Note_on_c, 0, 72, 0
2, 701520, Note_on_c, 0, 80, 0
2, 701550, Note_on_c, 0, 81, 0
2, 701580, Note_on_c, 0, 84, 0
2, 701705, Note_on_c, 0, 67, 0
2, 701737, Note_on_c, 0, 57, 0
2, 701770, Note_on_c, 0, 63, 0
2, 702398, Note_on_c, 0, 81, 86
2, 702425, Note_on_c, 0, 63, 68
2, 702431, Note_on_c, 0, 57, 70
2, 702434, Note_on_c, 0, 67, 72
2, 702477, Note_on_c, 0, 74, 64
2, 702493, Note_on_c, 0, 69, 53
2, 702659, Note_on_c, 0, 67, 0
2, 702678, Note_on_c, 0, 57, 0
2, 702733, Note_on_c, 0, 69, 0
2, 702784, Note_on_c, 0, 74, 0
2, 702866, Note_on_c, 0, 81, 0
2, 702877, Note_on_c, 0, 63, 0
2, 703032, Note_on_c, 0, 62, 64
2, 703037, Note_on_c, 0, 77, 70
2, 703056, Note_on_c, 0, 74, 68
2, 703076, Note_on_c, 0, 65, 49
2, 703097, Note_on_c, 0, 60, 58
2, 703122, Note_on_c, 0, 55, 48
2, 703524, Note_on_c, 0, 55, 0
2, 703532, Note_on_c, 0, 65, 0
2, 703538, Note_on_c, 0, 77, 0
2, 703590, Note_on_c, 0, 74, 0
2, 703619, Note_on_c, 0, 60, 0
2, 703652, Note_on_c, 0, 62, 0
2, 703834, Note_on_c, 0, 65, 57
2, 703843, Note_on_c, 0, 77, 61
2, 703851, Note_on_c, 0, 74, 65
2, 703859, Note_on_c, 0, 55, 46
2, 703864, Note_on_c, 0, 69, 58
2, 703878, Note_on_c, 0, 62, 52
2, 703908, Note_on_c, 0, 60, 58
2, 704416, Control_c, 0, 64, 127
2, 704909, Note_on_c, 0, 65, 0
2, 704922, Note_on_c, 0, 55, 0
2, 704941, Note_on_c, 0, 60, 0
2, 704988, Note_on_c, 0, 62, 0
2, 705053, Note_on_c, 0, 69, 0
2, 705352, Note_on_c, 0, 65, 65
2, 705379, Note_on_c, 0, 62, 49
2, 705382, Note_on_c, 0, 74, 0
2, 705385, Note_on_c, 0, 55, 57
2, 705426, Note_on_c, 0, 60, 57
2, 705510, Note_on_c, 0, 77, 0
2, 705556, Note_on_c, 0, 60, 0
2, 705594, Note_on_c, 0, 65, 0
2, 705605, Note_on_c, 0, 62, 0
2, 705880, Note_on_c, 0, 55, 0
2, 706620, Control_c, 0, 64, 0
2, 707180, Note_on_c, 0, 96, 90
2, 707188, Note_on_c, 0, 84, 80
2, 707196, Note_on_c, 0, 65, 77
2, 707210, Note_on_c, 0, 91, 79
2, 707218, Note_on_c, 0, 55, 68
2, 707226, Note_on_c, 0, 58, 65
2, 707272, Note_on_c, 0, 60, 68
2, 707422, Note_on_c, 0, 84, 0
2, 707452, Note_on_c, 0, 96, 0
2, 707457, Note_on_c, 0, 65, 0
2, 707528, Note_on_c, 0, 91, 0
2, 707542, Note_on_c, 0, 55, 0
2, 707553, Note_on_c, 0, 60, 0
2, 707574, Note_on_c, 0, 58, 0
2, 707879, Control_c, 0, 64, 127
2, 707958, Note_on_c, 0, 65, 99
2, 707958, Note_on_c, 0, 55, 90
2, 707966, Note_on_c, 0, 58, 80
2, 707969, Note_on_c, 0, 91, 99
2, 707971, Note_on_c, 0, 96, 85
2, 707977, Note_on_c, 0, 98, 92
2, 707985, Note_on_c, 0, 84, 77
2, 707990, Note_on_c, 0, 60, 86
2, 708004, Note_on_c, 0, 94, 62
2, 708012, Note_on_c, 0, 86, 85
2, 708069, Note_on_c, 0, 98, 0
2, 708097, Note_on_c, 0, 86, 0
2, 708099, Note_on_c, 0, 94, 0
2, 708156, Note_on_c, 0, 84, 0
2, 708379, Note_on_c, 0, 96, 0
2, 708431, Note_on_c, 0, 55, 0
2, 708439, Note_on_c, 0, 65, 0
2, 708524, Note_on_c, 0, 60, 0
2, 708526, Note_on_c, 0, 91, 0
2, 708564, Note_on_c, 0, 58, 0
2, 710120, Control_c, 0, 64, 0
2, 710196, Note_on_c, 0, 58, 83
2, 710207, Note_on_c, 0, 98, 92
2, 710213, Note_on_c, 0, 94, 89
2, 710232, Note_on_c, 0, 86, 76
2, 710243, Note_on_c, 0, 65, 67
2, 710256, Note_on_c, 0, 60, 65
2, 710330, Note_on_c, 0, 86, 0
2, 710332, Note_on_c, 0, 65, 0
2, 710349, Note_on_c, 0, 98, 0
2, 710351, Note_on_c, 0, 60, 0
2, 710477, Note_on_c, 0, 58, 0
2, 710496, Note_on_c, 0, 94, 0
2, 710662, Note_on_c, 0, 63, 101
2, 710670, Note_on_c, 0, 60, 76
2, 710686, Note_on_c, 0, 99, 107
2, 710689, Note_on_c, 0, 55, 76
2, 710694, Note_on_c, 0, 94, 82
2, 710702, Note_on_c, 0, 87, 102
2, 710740, Note_on_c, 0, 58, 57
2, 710781, Note_on_c, 0, 57, 59
2, 710789, Note_on_c, 0, 94, 0
2, 710855, Note_on_c, 0, 100, 34
2, 710955, Note_on_c, 0, 94, 28
2, 711004, Control_c, 0, 64, 127
2, 711089, Note_on_c, 0, 100, 0
2, 711420, Note_on_c, 0, 94, 0
2, 711502, Note_on_c, 0, 55, 0
2, 711505, Note_on_c, 0, 99, 0
2, 711521, Note_on_c, 0, 57, 0
2, 711537, Note_on_c, 0, 87, 0
2, 711570, Note_on_c, 0, 63, 0
2, 711594, Note_on_c, 0, 58, 0
2, 711635, Note_on_c, 0, 60, 0
2, 712032, Note_on_c, 0, 63, 76
2, 712038, Note_on_c, 0, 101, 101
2, 712046, Note_on_c, 0, 96, 99
2, 712051, Note_on_c, 0, 60, 64
2, 712057, Control_c, 0, 64, 0
2, 712060, Note_on_c, 0, 89, 90
2, 712073, Note_on_c, 0, 57, 67
2, 712092, Note_on_c, 0, 55, 57
2, 712095, Note_on_c, 0, 58, 43
2, 712166, Note_on_c, 0, 60, 0
2, 712182, Note_on_c, 0, 55, 0
2, 712206, Note_on_c, 0, 63, 0
2, 712228, Note_on_c, 0, 101, 0
2, 712231, Note_on_c, 0, 58, 0
2, 712266, Note_on_c, 0, 89, 0
2, 712367, Note_on_c, 0, 57, 0
2, 712400, Note_on_c, 0, 96, 0
2, 712568, Note_on_c, 0, 63, 64
2, 712576, Note_on_c, 0, 99, 78
2, 712585, Note_on_c, 0, 87, 81
2, 712609, Note_on_c, 0, 94, 73
2, 712617, Note_on_c, 0, 60, 52
2, 712631, Note_on_c, 0, 57, 72
2, 712639, Note_on_c, 0, 55, 67
2, 712721, Note_on_c, 0, 58, 39
2, 712919, Note_on_c, 0, 55, 0
2, 712993, Note_on_c, 0, 63, 0
2, 713025, Note_on_c, 0, 99, 0
2, 713058, Note_on_c, 0, 57, 0
2, 713066, Note_on_c, 0, 87, 0
2, 713088, Note_on_c, 0, 58, 0
2, 713112, Note_on_c, 0, 94, 0
2, 713243, Note_on_c, 0, 63, 58
2, 713248, Note_on_c, 0, 98, 76
2, 713254, Control_c, 0, 64, 127
2, 713289, Note_on_c, 0, 86, 58
2, 713335, Note_on_c, 0, 93, 56
2, 713354, Note_on_c, 0, 55, 40
2, 713422, Note_on_c, 0, 57, 32
2, 713428, Note_on_c, 0, 93, 0
2, 713490, Note_on_c, 0, 55, 0
2, 713493, Note_on_c, 0, 98, 0
2, 713537, Note_on_c, 0, 86, 0
2, 713545, Note_on_c, 0, 63, 0
2, 713564, Note_on_c, 0, 57, 0
2, 713602, Note_on_c, 0, 60, 0
2, 713637, Control_c, 0, 64, 0
2, 713974, Note_on_c, 0, 96, 76
2, 713983, Note_on_c, 0, 92, 65
2, 713996, Note_on_c, 0, 60, 71
2, 713999, Note_on_c, 0, 63, 76
2, 714004, Note_on_c, 0, 84, 70
2, 714037, Note_on_c, 0, 54, 66
2, 714154, Note_on_c, 0, 95, 29
2, 714355, Note_on_c, 0, 92, 0
2, 714366, Note_on_c, 0, 96, 0
2, 714421, Note_on_c, 0, 95, 0
2, 714524, Note_on_c, 0, 84, 0
2, 714565, Note_on_c, 0, 63, 0
2, 714592, Note_on_c, 0, 54, 0
2, 714687, Control_c, 0, 64, 127
2, 714695, Note_on_c, 0, 60, 0
2, 714853, Note_on_c, 0, 94, 80
2, 714880, Note_on_c, 0, 82, 80
2, 714886, Note_on_c, 0, 63, 58
2, 714888, Note_on_c, 0, 60, 53
2, 714891, Note_on_c, 0, 54, 58
2, 714937, Control_c, 0, 64, 0
2, 715130, Note_on_c, 0, 82, 0
2, 715144, Note_on_c, 0, 94, 0
2, 715155, Note_on_c, 0, 63, 0
2, 715188, Note_on_c, 0, 54, 0
2, 715345, Note_on_c, 0, 54, 55
2, 715351, Note_on_c, 0, 93, 70
2, 715354, Note_on_c, 0, 63, 73
2, 715362, Note_on_c, 0, 81, 68
2, 715397, Note_on_c, 0, 87, 29
2, 715506, Note_on_c, 0, 90, 37
2, 715786, Note_on_c, 0, 87, 0
2, 715835, Note_on_c, 0, 93, 0
2, 715868, Note_on_c, 0, 90, 0
2, 715895, Note_on_c, 0, 63, 0
2, 715944, Note_on_c, 0, 81, 0
2, 715971, Note_on_c, 0, 54, 0
2, 716083, Control_c, 0, 64, 127
2, 716104, Note_on_c, 0, 54, 48
2, 716161, Note_on_c, 0, 63, 46
2, 716175, Note_on_c, 0, 91, 70
2, 716248, Note_on_c, 0, 79, 79
2, 716333, Note_on_c, 0, 90, 44
2, 716338, Note_on_c, 0, 58, 28
2, 716420, Control_c, 0, 64, 0
2, 716482, Note_on_c, 0, 63, 0
2, 716515, Note_on_c, 0, 90, 0
2, 716518, Note_on_c, 0, 58, 0
2, 716548, Note_on_c, 0, 91, 0
2, 716572, Note_on_c, 0, 79, 0
2, 716648, Note_on_c, 0, 54, 0
2, 716839, Note_on_c, 0, 63, 63
2, 716858, Note_on_c, 0, 90, 53
2, 716879, Note_on_c, 0, 54, 57
2, 716934, Note_on_c, 0, 78, 50
2, 717051, Note_on_c, 0, 78, 0
2, 717116, Control_c, 0, 64, 127
2, 717141, Note_on_c, 0, 63, 0
2, 717146, Note_on_c, 0, 90, 0
2, 717176, Note_on_c, 0, 60, 0
2, 717244, Note_on_c, 0, 54, 0
2, 717559, Note_on_c, 0, 63, 70
2, 717573, Note_on_c, 0, 54, 64
2, 717589, Note_on_c, 0, 93, 80
2, 717614, Note_on_c, 0, 81, 78
2, 717655, Note_on_c, 0, 86, 70
2, 717660, Note_on_c, 0, 58, 39
2, 717663, Note_on_c, 0, 60, 50
2, 717777, Control_c, 0, 64, 0
2, 717780, Note_on_c, 0, 60, 0
2, 717818, Note_on_c, 0, 93, 0
2, 717851, Note_on_c, 0, 81, 0
2, 717859, Note_on_c, 0, 58, 0
2, 717902, Note_on_c, 0, 63, 0
2, 717978, Note_on_c, 0, 86, 0
2, 718055, Note_on_c, 0, 54, 0
2, 718084, Note_on_c, 0, 91, 67
2, 718120, Note_on_c, 0, 62, 68
2, 718158, Note_on_c, 0, 86, 60
2, 718171, Note_on_c, 0, 79, 67
2, 718199, Note_on_c, 0, 53, 48
2, 718215, Note_on_c, 0, 57, 67
2, 718223, Note_on_c, 0, 58, 53
2, 718857, Control_c, 0, 64, 127
2, 719254, Note_on_c, 0, 57, 0
2, 719292, Note_on_c, 0, 62, 0
2, 719330, Note_on_c, 0, 53, 0
2, 719434, Note_on_c, 0, 58, 0
2, 719891, Note_on_c, 0, 91, 0
2, 719891, Note_on_c, 0, 79, 0
2, 719926, Note_on_c, 0, 86, 0
2, 720021, Note_on_c, 0, 63, 65
2, 720029, Note_on_c, 0, 58, 62
2, 720032, Control_c, 0, 64, 0
2, 720114, Note_on_c, 0, 52, 44
2, 720862, Control_c, 0, 64, 127
2, 721014, Note_on_c, 0, 52, 0
2, 721098, Note_on_c, 0, 58, 0
2, 721332, Note_on_c, 0, 63, 0
2, 721795, Note_on_c, 0, 56, 51
2, 721811, Note_on_c, 0, 63, 51
2, 721898, Note_on_c, 0, 60, 48
2, 721901, Control_c, 0, 64, 0
2, 722004, Note_on_c, 0, 65, 58
2, 722216, Note_on_c, 0, 65, 0
2, 722251, Note_on_c, 0, 67, 60
2, 722469, Note_on_c, 0, 68, 78
2, 722594, Note_on_c, 0, 67, 0
2, 722766, Note_on_c, 0, 70, 70
2, 722847, Note_on_c, 0, 68, 0
2, 723057, Note_on_c, 0, 67, 50
2, 723122, Note_on_c, 0, 70, 0
2, 723380, Note_on_c, 0, 67, 0
2, 723391, Note_on_c, 0, 68, 69
2, 723660, Note_on_c, 0, 56, 0
2, 723696, Note_on_c, 0, 68, 0
2, 723764, Note_on_c, 0, 69, 76
2, 723786, Note_on_c, 0, 63, 0
2, 723900, Note_on_c, 0, 60, 0
2, 723998, Note_on_c, 0, 69, 0
2, 724074, Note_on_c, 0, 70, 67
2, 724340, Note_on_c, 0, 70, 0
2, 724441, Note_on_c, 0, 71, 45
2, 724515, Note_on_c, 0, 72, 37
2, 724661, Note_on_c, 0, 71, 0
2, 724680, Note_on_c, 0, 67, 49
2, 724683, Note_on_c, 0, 56, 51
2, 724765, Note_on_c, 0, 62, 50
2, 724879, Note_on_c, 0, 73, 76
2, 724931, Note_on_c, 0, 67, 0
2, 724936, Note_on_c, 0, 72, 0
2, 725069, Note_on_c, 0, 73, 0
2, 725102, Note_on_c, 0, 62, 0
2, 725197, Note_on_c, 0, 74, 31
2, 725279, Note_on_c, 0, 75, 62
2, 725475, Note_on_c, 0, 74, 0
2, 725543, Note_on_c, 0, 75, 0
2, 725578, Note_on_c, 0, 76, 51
2, 725627, Note_on_c, 0, 74, 26
2, 725706, Note_on_c, 0, 56, 0
2, 725752, Note_on_c, 0, 74, 0
2, 725787, Note_on_c, 0, 77, 95
2, 725904, Note_on_c, 0, 76, 0
2, 726038, Note_on_c, 0, 65, 47
2, 726062, Note_on_c, 0, 62, 47
2, 726070, Note_on_c, 0, 55, 47
2, 726119, Note_on_c, 0, 60, 52
2, 726193, Note_on_c, 0, 74, 68
2, 726293, Note_on_c, 0, 77, 0
2, 726516, Note_on_c, 0, 74, 0
2, 726701, Note_on_c, 0, 77, 74
2, 726759, Note_on_c, 0, 70, 84
2, 727001, Note_on_c, 0, 65, 0
2, 727028, Note_on_c, 0, 77, 0
2, 727153, Note_on_c, 0, 62, 0
2, 727183, Note_on_c, 0, 60, 0
2, 727207, Note_on_c, 0, 70, 0
2, 727316, Note_on_c, 0, 67, 67
2, 727515, Note_on_c, 0, 62, 41
2, 727531, Note_on_c, 0, 67, 0
2, 727697, Note_on_c, 0, 62, 0
2, 727779, Note_on_c, 0, 70, 81
2, 727925, Note_on_c, 0, 62, 41
2, 728369, Note_on_c, 0, 62, 0
2, 728605, Note_on_c, 0, 67, 61
2, 728673, Note_on_c, 0, 55, 0
2, 728799, Note_on_c, 0, 70, 0
2, 729179, Note_on_c, 0, 67, 0
2, 729264, Note_on_c, 0, 63, 51
2, 729304, Note_on_c, 0, 69, 78
2, 729334, Note_on_c, 0, 55, 40
2, 729340, Note_on_c, 0, 60, 42
2, 729451, Note_on_c, 0, 57, 39
2, 729702, Note_on_c, 0, 69, 0
2, 729829, Note_on_c, 0, 60, 0
2, 730110, Note_on_c, 0, 57, 0
2, 730164, Note_on_c, 0, 63, 0
2, 730180, Note_on_c, 0, 60, 34
2, 730227, Note_on_c, 0, 70, 86
2, 730343, Note_on_c, 0, 60, 0
2, 730509, Note_on_c, 0, 55, 0
2, 730624, Note_on_c, 0, 70, 0
2, 730716, Note_on_c, 0, 69, 58
2, 731124, Note_on_c, 0, 69, 0
2, 731236, Note_on_c, 0, 67, 73
2, 731434, Note_on_c, 0, 49, 41
2, 731475, Note_on_c, 0, 50, 53
2, 731478, Note_on_c, 0, 67, 0
2, 731698, Note_on_c, 0, 49, 0
2, 731706, Note_on_c, 0, 65, 32
2, 732199, Note_on_c, 0, 65, 0
2, 732503, Note_on_c, 0, 63, 54
2, 733235, Note_on_c, 0, 63, 0
2, 733447, Note_on_c, 0, 43, 51
2, 733548, Note_on_c, 0, 62, 60
2, 733967, Note_on_c, 0, 62, 0
2, 734249, Note_on_c, 0, 50, 0
2, 734478, Note_on_c, 0, 60, 70
2, 734935, Note_on_c, 0, 60, 0
2, 735006, Note_on_c, 0, 50, 40
2, 735144, Note_on_c, 0, 50, 0
2, 735267, Note_on_c, 0, 43, 0
2, 735430, Note_on_c, 0, 58, 62
2, 736344, Note_on_c, 0, 57, 65
2, 736357, Note_on_c, 0, 58, 0
2, 736376, Note_on_c, 0, 38, 47
2, 737173, Note_on_c, 0, 38, 0
2, 737375, Note_on_c, 0, 31, 51
2, 737380, Note_on_c, 0, 43, 45
2, 737383, Note_on_c, 0, 56, 72
2, 737386, Note_on_c, 0, 57, 0
2, 737998, Note_on_c, 0, 56, 0
2, 737998, Note_on_c, 0, 55, 68
2, 738283, Note_on_c, 0, 31, 0
2, 738329, Note_on_c, 0, 55, 0
2, 738422, Note_on_c, 0, 56, 70
2, 738659, Note_on_c, 0, 43, 0
2, 738961, Note_on_c, 0, 58, 93
2, 738963, Note_on_c, 0, 56, 0
2, 739344, Note_on_c, 0, 58, 0
2, 739396, Note_on_c, 0, 59, 76
2, 739774, Note_on_c, 0, 59, 0
2, 739877, Note_on_c, 0, 60, 85
2, 740223, Note_on_c, 0, 60, 0
2, 740285, Note_on_c, 0, 61, 67
2, 740737, Note_on_c, 0, 61, 0
2, 740777, Note_on_c, 0, 62, 73
2, 741022, Note_on_c, 0, 62, 0
2, 741234, Note_on_c, 0, 65, 60
2, 741649, Control_c, 0, 64, 127
2, 741732, Note_on_c, 0, 65, 0
2, 742853, Control_c, 0, 64, 0
2, 743019, Note_on_c, 0, 87, 63
2, 743023, Note_on_c, 0, 63, 39
2, 743050, Note_on_c, 0, 62, 42
2, 743071, Note_on_c, 0, 67, 41
2, 743094, Note_on_c, 0, 58, 39
2, 743102, Note_on_c, 0, 75, 42
2, 743109, Note_on_c, 0, 79, 45
2, 743227, Control_c, 0, 64, 127
2, 743860, Note_on_c, 0, 62, 0
2, 743893, Note_on_c, 0, 63, 0
2, 743893, Note_on_c, 0, 79, 0
2, 743949, Note_on_c, 0, 67, 0
2, 743962, Note_on_c, 0, 87, 0
2, 743980, Note_on_c, 0, 75, 0
2, 744097, Note_on_c, 0, 58, 0
2, 744800, Control_c, 0, 64, 0
2, 744920, Note_on_c, 0, 84, 46
2, 744925, Note_on_c, 0, 63, 35
2, 744925, Note_on_c, 0, 67, 39
2, 744935, Note_on_c, 0, 78, 49
2, 744937, Control_c, 0, 64, 127
2, 744962, Note_on_c, 0, 72, 38
2, 744995, Note_on_c, 0, 57, 38
2, 745222, Note_on_c, 0, 67, 0
2, 745226, Note_on_c, 0, 63, 0
2, 745239, Note_on_c, 0, 84, 0
2, 745264, Note_on_c, 0, 57, 0
2, 745353, Note_on_c, 0, 78, 0
2, 745386, Note_on_c, 0, 72, 0
2, 746501, Control_c, 0, 64, 0
2, 746520, Note_on_c, 0, 65, 69
2, 746530, Note_on_c, 0, 55, 72
2, 746541, Note_on_c, 0, 60, 73
2, 746549, Note_on_c, 0, 50, 63
2, 746701, Control_c, 0, 64, 127
2, 746809, Note_on_c, 0, 65, 0
2, 746853, Note_on_c, 0, 60, 0
2, 746865, Note_on_c, 0, 55, 0
2, 746969, Control_c, 0, 64, 0
2, 747073, Note_on_c, 0, 61, 59
2, 747117, Note_on_c, 0, 67, 72
2, 747144, Note_on_c, 0, 61, 0
2, 747161, Note_on_c, 0, 51, 63
2, 747175, Note_on_c, 0, 62, 56
2, 747179, Control_c, 0, 64, 127
2, 747225, Note_on_c, 0, 50, 0
2, 747362, Note_on_c, 0, 67, 0
2, 747473, Note_on_c, 0, 62, 0
2, 747535, Control_c, 0, 64, 0
2, 747745, Note_on_c, 0, 62, 66
2, 747766, Note_on_c, 0, 60, 54
2, 747781, Note_on_c, 0, 69, 56
2, 747808, Note_on_c, 0, 53, 58
2, 747828, Note_on_c, 0, 60, 0
2, 747845, Note_on_c, 0, 65, 42
2, 747885, Note_on_c, 0, 51, 0
2, 747922, Note_on_c, 0, 53, 0
2, 747924, Note_on_c, 0, 62, 0
2, 747930, Note_on_c, 0, 65, 0
2, 747957, Note_on_c, 0, 69, 0
2, 747963, Control_c, 0, 64, 127
2, 748442, Control_c, 0, 64, 0
2, 748550, Note_on_c, 0, 72, 66
2, 748556, Note_on_c, 0, 62, 68
2, 748569, Note_on_c, 0, 65, 63
2, 748579, Note_on_c, 0, 57, 66
2, 748631, Note_on_c, 0, 69, 43
2, 748662, Note_on_c, 0, 65, 0
2, 748689, Note_on_c, 0, 62, 0
2, 748721, Note_on_c, 0, 69, 0
2, 748775, Note_on_c, 0, 57, 0
2, 748814, Note_on_c, 0, 72, 0
2, 749155, Note_on_c, 0, 60, 66
2, 749191, Note_on_c, 0, 65, 48
2, 749195, Note_on_c, 0, 74, 58
2, 749212, Note_on_c, 0, 67, 58
2, 749218, Note_on_c, 0, 70, 58
2, 749341, Note_on_c, 0, 65, 0
2, 749345, Note_on_c, 0, 67, 0
2, 749386, Note_on_c, 0, 60, 0
2, 749420, Note_on_c, 0, 70, 0
2, 749459, Note_on_c, 0, 74, 0
2, 749821, Note_on_c, 0, 70, 61
2, 749831, Note_on_c, 0, 77, 74
2, 749844, Note_on_c, 0, 74, 58
2, 749852, Note_on_c, 0, 65, 71
2, 749869, Note_on_c, 0, 67, 34
2, 749910, Note_on_c, 0, 74, 0
2, 749973, Note_on_c, 0, 67, 0
2, 749994, Note_on_c, 0, 70, 0
2, 750008, Note_on_c, 0, 65, 0
2, 750031, Note_on_c, 0, 77, 0
2, 750528, Note_on_c, 0, 74, 63
2, 750530, Note_on_c, 0, 70, 57
2, 750534, Note_on_c, 0, 62, 60
2, 750541, Note_on_c, 0, 65, 52
2, 750547, Note_on_c, 0, 67, 61
2, 750784, Control_c, 0, 64, 127
2, 751527, Note_on_c, 0, 62, 0
2, 751651, Note_on_c, 0, 65, 0
2, 751672, Note_on_c, 0, 67, 0
2, 751741, Note_on_c, 0, 70, 0
2, 751801, Note_on_c, 0, 74, 0
2, 752571, Control_c, 0, 64, 0
2, 752633, Note_on_c, 0, 70, 45
2, 752666, Note_on_c, 0, 62, 33
2, 752685, Note_on_c, 0, 58, 36
2, 752691, Note_on_c, 0, 51, 35
2, 752712, Note_on_c, 0, 65, 42
2, 752912, Control_c, 0, 64, 127
2, 753195, Note_on_c, 0, 70, 0
2, 753213, Note_on_c, 0, 58, 0
2, 753245, Note_on_c, 0, 65, 0
2, 753351, Note_on_c, 0, 51, 0
2, 753359, Note_on_c, 0, 62, 0
2, 754185, Control_c, 0, 64, 0
2, 754220, Note_on_c, 0, 63, 73
2, 754239, Note_on_c, 0, 58, 82
2, 754251, Note_on_c, 0, 48, 80
2, 754264, Note_on_c, 0, 55, 80
2, 754426, Control_c, 0, 64, 127
2, 754463, Note_on_c, 0, 55, 0
2, 754561, Note_on_c, 0, 63, 0
2, 754655, Note_on_c, 0, 58, 0
2, 754657, Control_c, 0, 64, 0
2, 754748, Note_on_c, 0, 48, 0
2, 754775, Note_on_c, 0, 58, 48
2, 754780, Note_on_c, 0, 50, 71
2, 754788, Note_on_c, 0, 65, 69
2, 754832, Note_on_c, 0, 55, 56
2, 754879, Control_c, 0, 64, 127
2, 754917, Note_on_c, 0, 63, 30
2, 754944, Note_on_c, 0, 55, 0
2, 755033, Note_on_c, 0, 65, 0
2, 755044, Note_on_c, 0, 63, 0
2, 755067, Note_on_c, 0, 58, 0
2, 755304, Control_c, 0, 64, 0
2, 755360, Note_on_c, 0, 50, 0
2, 755391, Note_on_c, 0, 60, 75
2, 755397, Note_on_c, 0, 67, 64
2, 755404, Note_on_c, 0, 51, 68
2, 755414, Note_on_c, 0, 63, 60
2, 755570, Note_on_c, 0, 60, 0
2, 755605, Note_on_c, 0, 63, 0
2, 755614, Note_on_c, 0, 67, 0
2, 755616, Note_on_c, 0, 51, 0
2, 755680, Control_c, 0, 64, 127
2, 756637, Control_c, 0, 64, 0
2, 756666, Note_on_c, 0, 61, 94
2, 756670, Note_on_c, 0, 65, 107
2, 756675, Note_on_c, 0, 69, 92
2, 756679, Note_on_c, 0, 72, 85
2, 756689, Note_on_c, 0, 55, 83
2, 756787, Note_on_c, 0, 71, 33
2, 756887, Note_on_c, 0, 71, 0
2, 757496, Control_c, 0, 64, 127
2, 758064, Note_on_c, 0, 69, 0
2, 758097, Note_on_c, 0, 55, 0
2, 758155, Note_on_c, 0, 61, 0
2, 758185, Note_on_c, 0, 65, 0
2, 758534, Note_on_c, 0, 61, 52
2, 758536, Control_c, 0, 64, 0
2, 758549, Note_on_c, 0, 65, 61
2, 758563, Note_on_c, 0, 69, 55
2, 758590, Note_on_c, 0, 55, 56
2, 758865, Control_c, 0, 64, 127
2, 759310, Note_on_c, 0, 55, 0
2, 759399, Note_on_c, 0, 61, 0
2, 759485, Note_on_c, 0, 65, 0
2, 759680, Note_on_c, 0, 69, 0
2, 760215, Control_c, 0, 64, 0
2, 760300, Note_on_c, 0, 72, 0
2, 760337, Note_on_c, 0, 68, 43
2, 760373, Note_on_c, 0, 64, 44
2, 760387, Note_on_c, 0, 60, 31
2, 760391, Note_on_c, 0, 54, 42
2, 760523, Control_c, 0, 64, 127
2, 760880, Note_on_c, 0, 60, 0
2, 760934, Note_on_c, 0, 68, 0
2, 760999, Note_on_c, 0, 64, 0
2, 761007, Note_on_c, 0, 54, 0
2, 762003, Control_c, 0, 64, 0
2, 762180, Note_on_c, 0, 62, 54
2, 762193, Note_on_c, 0, 54, 56
2, 762226, Note_on_c, 0, 50, 51
2, 762255, Note_on_c, 0, 57, 47
2, 762268, Control_c, 0, 64, 127
2, 762392, Note_on_c, 0, 62, 0
2, 762586, Note_on_c, 0, 54, 0
2, 762588, Note_on_c, 0, 50, 0
2, 762594, Note_on_c, 0, 57, 0
2, 762904, Note_on_c, 0, 64, 48
2, 762912, Note_on_c, 0, 54, 46
2, 762929, Note_on_c, 0, 57, 48
2, 762933, Note_on_c, 0, 52, 62
2, 762985, Note_on_c, 0, 64, 0
2, 763010, Note_on_c, 0, 57, 0
2, 763073, Note_on_c, 0, 54, 0
2, 763112, Control_c, 0, 64, 0
2, 763270, Note_on_c, 0, 54, 54
2, 763345, Note_on_c, 0, 52, 0
2, 763395, Control_c, 0, 64, 127
2, 763711, Note_on_c, 0, 54, 0
2, 763963, Note_on_c, 0, 68, 48
2, 763975, Note_on_c, 0, 61, 31
2, 763979, Note_on_c, 0, 58, 74
2, 763984, Note_on_c, 0, 69, 84
2, 763986, Note_on_c, 0, 57, 79
2, 763988, Control_c, 0, 64, 0
2, 764002, Note_on_c, 0, 62, 61
2, 764071, Note_on_c, 0, 68, 0
2, 764073, Note_on_c, 0, 61, 0
2, 764793, Control_c, 0, 64, 127
2, 765036, Note_on_c, 0, 58, 0
2, 765063, Note_on_c, 0, 62, 0
2, 765151, Note_on_c, 0, 69, 0
2, 765167, Control_c, 0, 64, 0
2, 765252, Note_on_c, 0, 57, 0
2, 765271, Note_on_c, 0, 58, 46
2, 765288, Note_on_c, 0, 54, 46
2, 765313, Note_on_c, 0, 66, 48
2, 765361, Note_on_c, 0, 62, 36
2, 765631, Note_on_c, 0, 62, 0
2, 765673, Note_on_c, 0, 58, 0
2, 765747, Control_c, 0, 64, 127
2, 765829, Control_c, 0, 64, 0
2, 765931, Note_on_c, 0, 58, 56
2, 765955, Note_on_c, 0, 66, 0
2, 765960, Note_on_c, 0, 62, 48
2, 765970, Note_on_c, 0, 55, 59
2, 765972, Note_on_c, 0, 54, 0
2, 765978, Note_on_c, 0, 67, 57
2, 765993, Note_on_c, 0, 58, 0
2, 766028, Note_on_c, 0, 62, 0
2, 766037, Note_on_c, 0, 55, 0
2, 766066, Note_on_c, 0, 67, 0
2, 766873, Note_on_c, 0, 67, 65
2, 766894, Note_on_c, 0, 74, 62
2, 766916, Note_on_c, 0, 58, 61
2, 766923, Note_on_c, 0, 70, 52
2, 766962, Note_on_c, 0, 67, 0
2, 766983, Note_on_c, 0, 70, 0
2, 767000, Note_on_c, 0, 58, 0
2, 767081, Note_on_c, 0, 74, 0
2, 767763, Note_on_c, 0, 77, 72
2, 767790, Note_on_c, 0, 70, 52
2, 767800, Note_on_c, 0, 62, 56
2, 767807, Note_on_c, 0, 74, 53
2, 767861, Note_on_c, 0, 70, 0
2, 767875, Note_on_c, 0, 62, 0
2, 767877, Note_on_c, 0, 74, 0
2, 768006, Note_on_c, 0, 77, 0
2, 768206, Note_on_c, 0, 81, 75
2, 768235, Note_on_c, 0, 77, 56
2, 768239, Note_on_c, 0, 74, 61
2, 768243, Note_on_c, 0, 69, 63
2, 768250, Note_on_c, 0, 70, 60
2, 768811, Note_on_c, 0, 81, 0
2, 768884, Note_on_c, 0, 70, 0
2, 768930, Note_on_c, 0, 77, 0
2, 769076, Note_on_c, 0, 70, 44
2, 769078, Note_on_c, 0, 69, 0
2, 769082, Note_on_c, 0, 79, 64
2, 769092, Control_c, 0, 64, 127
2, 769136, Note_on_c, 0, 67, 42
2, 769163, Note_on_c, 0, 70, 0
2, 769227, Note_on_c, 0, 67, 0
2, 769246, Note_on_c, 0, 74, 0
2, 769315, Note_on_c, 0, 79, 0
2, 769340, Control_c, 0, 64, 0
2, 770014, Control_c, 0, 64, 127
2, 770505, Note_on_c, 0, 79, 65
2, 770509, Note_on_c, 0, 67, 61
2, 770538, Control_c, 0, 64, 0
2, 770563, Note_on_c, 0, 74, 54
2, 770567, Note_on_c, 0, 55, 48
2, 770623, Note_on_c, 0, 67, 0
2, 770683, Note_on_c, 0, 79, 0
2, 770700, Note_on_c, 0, 74, 0
2, 770781, Note_on_c, 0, 55, 0
2, 770975, Note_on_c, 0, 81, 56
2, 771000, Note_on_c, 0, 74, 39
2, 771006, Note_on_c, 0, 57, 46
2, 771043, Note_on_c, 0, 81, 0
2, 771079, Note_on_c, 0, 57, 0
2, 771091, Note_on_c, 0, 74, 0
2, 771443, Control_c, 0, 64, 88
2, 771447, Control_c, 0, 64, 127
2, 771482, Note_on_c, 0, 82, 76
2, 771532, Note_on_c, 0, 70, 41
2, 771621, Note_on_c, 0, 70, 0
2, 771636, Note_on_c, 0, 82, 0
2, 771792, Control_c, 0, 64, 0
2, 772019, Note_on_c, 0, 87, 71
2, 772029, Note_on_c, 0, 75, 56
2, 772048, Note_on_c, 0, 62, 50
2, 772079, Note_on_c, 0, 63, 44
2, 772106, Note_on_c, 0, 58, 38
2, 772110, Note_on_c, 0, 67, 26
2, 772379, Note_on_c, 0, 87, 0
2, 772381, Note_on_c, 0, 67, 0
2, 772401, Note_on_c, 0, 58, 0
2, 772406, Note_on_c, 0, 62, 0
2, 772422, Note_on_c, 0, 75, 0
2, 772462, Note_on_c, 0, 63, 0
2, 772784, Note_on_c, 0, 67, 45
2, 772788, Note_on_c, 0, 87, 57
2, 772799, Note_on_c, 0, 63, 35
2, 772803, Control_c, 0, 64, 127
2, 772809, Note_on_c, 0, 75, 52
2, 772834, Note_on_c, 0, 62, 38
2, 772870, Note_on_c, 0, 58, 31
2, 773023, Note_on_c, 0, 58, 0
2, 773044, Note_on_c, 0, 62, 0
2, 773075, Note_on_c, 0, 67, 0
2, 773094, Note_on_c, 0, 75, 0
2, 773102, Note_on_c, 0, 63, 0
2, 773142, Note_on_c, 0, 87, 0
2, 773211, Control_c, 0, 64, 0
2, 773469, Note_on_c, 0, 87, 57
2, 773504, Note_on_c, 0, 67, 38
2, 773510, Note_on_c, 0, 75, 46
2, 773516, Note_on_c, 0, 63, 43
2, 773529, Note_on_c, 0, 62, 39
2, 773556, Note_on_c, 0, 58, 39
2, 773662, Control_c, 0, 64, 127
2, 773695, Note_on_c, 0, 58, 0
2, 773695, Note_on_c, 0, 87, 0
2, 773697, Note_on_c, 0, 67, 0
2, 773699, Note_on_c, 0, 75, 0
2, 773737, Note_on_c, 0, 62, 0
2, 773768, Note_on_c, 0, 63, 0
2, 774101, Note_on_c, 0, 87, 58
2, 774147, Note_on_c, 0, 67, 28
2, 774149, Note_on_c, 0, 75, 44
2, 774153, Note_on_c, 0, 58, 33
2, 774161, Note_on_c, 0, 62, 32
2, 774169, Note_on_c, 0, 63, 35
2, 774288, Note_on_c, 0, 58, 0
2, 774309, Note_on_c, 0, 63, 0
2, 774323, Note_on_c, 0, 67, 0
2, 774361, Note_on_c, 0, 75, 0
2, 774388, Note_on_c, 0, 87, 0
2, 774425, Note_on_c, 0, 62, 0
2, 774706, Note_on_c, 0, 87, 60
2, 774731, Note_on_c, 0, 75, 54
2, 774735, Note_on_c, 0, 58, 51
2, 774783, Note_on_c, 0, 67, 31
2, 774860, Note_on_c, 0, 75, 0
2, 774912, Note_on_c, 0, 87, 0
2, 774918, Note_on_c, 0, 67, 0
2, 775070, Note_on_c, 0, 58, 0
2, 775318, Control_c, 0, 64, 0
2, 775428, Note_on_c, 0, 82, 25
2, 775436, Note_on_c, 0, 86, 66
2, 775472, Note_on_c, 0, 67, 48
2, 775476, Note_on_c, 0, 78, 60
2, 775480, Note_on_c, 0, 63, 46
2, 775484, Note_on_c, 0, 74, 50
2, 775505, Note_on_c, 0, 57, 41
2, 775646, Control_c, 0, 64, 127
2, 775704, Note_on_c, 0, 82, 0
2, 775819, Note_on_c, 0, 86, 0
2, 775833, Note_on_c, 0, 63, 0
2, 775836, Note_on_c, 0, 67, 0
2, 775994, Note_on_c, 0, 78, 0
2, 776031, Note_on_c, 0, 57, 0
2, 776035, Note_on_c, 0, 74, 0
2, 777212, Control_c, 0, 64, 0
2, 777267, Note_on_c, 0, 65, 61
2, 777273, Note_on_c, 0, 55, 60
2, 777279, Note_on_c, 0, 50, 56
2, 777287, Note_on_c, 0, 60, 68
2, 777412, Control_c, 0, 64, 127
2, 777475, Note_on_c, 0, 55, 0
2, 777487, Note_on_c, 0, 65, 0
2, 777678, Control_c, 0, 64, 0
2, 777722, Note_on_c, 0, 60, 0
2, 777841, Note_on_c, 0, 60, 31
2, 777876, Note_on_c, 0, 50, 0
2, 777884, Note_on_c, 0, 67, 64
2, 777895, Note_on_c, 0, 51, 59
2, 777940, Control_c, 0, 64, 127
2, 778007, Note_on_c, 0, 60, 0
2, 778067, Note_on_c, 0, 67, 0
2, 778329, Control_c, 0, 64, 0
2, 778508, Note_on_c, 0, 60, 61
2, 778515, Note_on_c, 0, 69, 55
2, 778529, Note_on_c, 0, 53, 56
2, 778533, Note_on_c, 0, 62, 57
2, 778552, Note_on_c, 0, 65, 52
2, 778562, Note_on_c, 0, 51, 0
2, 778583, Note_on_c, 0, 60, 0
2, 778598, Note_on_c, 0, 62, 0
2, 778621, Note_on_c, 0, 65, 0
2, 778643, Note_on_c, 0, 53, 0
2, 778689, Note_on_c, 0, 69, 0
2, 778741, Control_c, 0, 64, 127
2, 779151, Control_c, 0, 64, 0
2, 779334, Note_on_c, 0, 72, 67
2, 779347, Note_on_c, 0, 62, 68
2, 779359, Note_on_c, 0, 65, 59
2, 779378, Note_on_c, 0, 57, 63
2, 779423, Note_on_c, 0, 69, 35
2, 779436, Note_on_c, 0, 62, 0
2, 779473, Note_on_c, 0, 65, 0
2, 779532, Note_on_c, 0, 69, 0
2, 779552, Note_on_c, 0, 57, 0
2, 779607, Note_on_c, 0, 72, 0
2, 779700, Control_c, 0, 64, 127
2, 779767, Control_c, 0, 64, 0
2, 780016, Note_on_c, 0, 74, 65
2, 780016, Note_on_c, 0, 65, 63
2, 780064, Note_on_c, 0, 70, 62
2, 780068, Note_on_c, 0, 60, 57
2, 780116, Note_on_c, 0, 67, 40
2, 780220, Note_on_c, 0, 65, 0
2, 780222, Control_c, 0, 64, 127
2, 780235, Note_on_c, 0, 67, 0
2, 780253, Note_on_c, 0, 60, 0
2, 780324, Note_on_c, 0, 74, 0
2, 780326, Note_on_c, 0, 70, 0
2, 780530, Control_c, 0, 64, 0
2, 780723, Note_on_c, 0, 70, 63
2, 780748, Note_on_c, 0, 77, 71
2, 780757, Note_on_c, 0, 64, 50
2, 780765, Note_on_c, 0, 62, 49
2, 780790, Note_on_c, 0, 74, 52
2, 780807, Note_on_c, 0, 67, 36
2, 780823, Note_on_c, 0, 69, 38
2, 780842, Note_on_c, 0, 64, 0
2, 780879, Note_on_c, 0, 74, 0
2, 780931, Note_on_c, 0, 70, 0
2, 780952, Note_on_c, 0, 69, 0
2, 780979, Note_on_c, 0, 67, 0
2, 780988, Note_on_c, 0, 62, 0
2, 780996, Note_on_c, 0, 77, 0
2, 781069, Control_c, 0, 64, 127
2, 781260, Control_c, 0, 64, 0
2, 781393, Note_on_c, 0, 70, 54
2, 781416, Note_on_c, 0, 65, 56
2, 781416, Note_on_c, 0, 74, 62
2, 781422, Note_on_c, 0, 62, 51
2, 781441, Note_on_c, 0, 67, 58
2, 781626, Note_on_c, 0, 65, 0
2, 781630, Note_on_c, 0, 67, 0
2, 781637, Note_on_c, 0, 62, 0
2, 781662, Note_on_c, 0, 74, 0
2, 781672, Note_on_c, 0, 70, 0
2, 781807, Control_c, 0, 64, 127
2, 782190, Control_c, 0, 64, 0
2, 782223, Note_on_c, 0, 70, 64
2, 782242, Note_on_c, 0, 62, 46
2, 782277, Note_on_c, 0, 65, 48
2, 782281, Note_on_c, 0, 58, 57
2, 782348, Note_on_c, 0, 62, 0
2, 782367, Note_on_c, 0, 65, 0
2, 782423, Note_on_c, 0, 58, 0
2, 782489, Note_on_c, 0, 70, 0
2, 782618, Control_c, 0, 64, 127
2, 783274, Control_c, 0, 64, 0
2, 783342, Note_on_c, 0, 69, 55
2, 783346, Note_on_c, 0, 58, 52
2, 783373, Note_on_c, 0, 65, 57
2, 783378, Note_on_c, 0, 57, 61
2, 783386, Note_on_c, 0, 62, 57
2, 783810, Control_c, 0, 64, 127
2, 783923, Note_on_c, 0, 69, 0
2, 784079, Note_on_c, 0, 58, 0
2, 784108, Control_c, 0, 64, 0
2, 784137, Note_on_c, 0, 62, 0
2, 784251, Note_on_c, 0, 57, 0
2, 784264, Note_on_c, 0, 68, 55
2, 784301, Note_on_c, 0, 56, 45
2, 784334, Note_on_c, 0, 58, 30
2, 784621, Note_on_c, 0, 58, 0
2, 784688, Note_on_c, 0, 68, 0
2, 784713, Note_on_c, 0, 65, 0
2, 784973, Note_on_c, 0, 67, 50
2, 784985, Note_on_c, 0, 56, 0
2, 784992, Note_on_c, 0, 62, 45
2, 784996, Note_on_c, 0, 58, 35
2, 785025, Note_on_c, 0, 55, 44
2, 785258, Control_c, 0, 64, 127
2, 785923, Note_on_c, 0, 58, 0
2, 785938, Note_on_c, 0, 55, 0
2, 786117, Note_on_c, 0, 67, 0
2, 786144, Note_on_c, 0, 62, 0
2, 788763, Note_on_c, 0, 72, 73
2, 788779, Note_on_c, 0, 63, 75
2, 788786, Note_on_c, 0, 67, 69
2, 788788, Control_c, 0, 64, 0
2, 788794, Note_on_c, 0, 62, 75
2, 788817, Note_on_c, 0, 69, 62
2, 789050, Note_on_c, 0, 72, 0
2, 789104, Note_on_c, 0, 69, 0
2, 789116, Note_on_c, 0, 63, 0
2, 789216, Note_on_c, 0, 62, 0
2, 789270, Note_on_c, 0, 67, 0
2, 789372, Note_on_c, 0, 67, 55
2, 789385, Note_on_c, 0, 63, 69
2, 789389, Note_on_c, 0, 74, 82
2, 789393, Note_on_c, 0, 62, 68
2, 789418, Note_on_c, 0, 69, 46
2, 789499, Control_c, 0, 64, 127
2, 789728, Note_on_c, 0, 69, 0
2, 789809, Note_on_c, 0, 74, 0
2, 789842, Note_on_c, 0, 67, 0
2, 789865, Note_on_c, 0, 63, 0
2, 789890, Control_c, 0, 64, 0
2, 789950, Note_on_c, 0, 62, 0
2, 790044, Note_on_c, 0, 63, 54
2, 790046, Note_on_c, 0, 60, 58
2, 790050, Note_on_c, 0, 72, 61
2, 790173, Control_c, 0, 64, 127
2, 790206, Note_on_c, 0, 60, 0
2, 790285, Note_on_c, 0, 63, 0
2, 790346, Note_on_c, 0, 72, 0
2, 790631, Control_c, 0, 64, 0
2, 790797, Note_on_c, 0, 66, 60
2, 790836, Note_on_c, 0, 63, 54
2, 790874, Note_on_c, 0, 60, 43
2, 790886, Note_on_c, 0, 54, 44
2, 791140, Control_c, 0, 64, 127
2, 791675, Note_on_c, 0, 60, 0
2, 791839, Note_on_c, 0, 54, 0
2, 792326, Note_on_c, 0, 63, 0
2, 792490, Note_on_c, 0, 66, 0
2, 792758, Note_on_c, 0, 72, 61
2, 792767, Note_on_c, 0, 63, 59
2, 792781, Note_on_c, 0, 66, 56
2, 792796, Control_c, 0, 64, 0
2, 792862, Note_on_c, 0, 66, 0
2, 792877, Note_on_c, 0, 72, 0
2, 792966, Note_on_c, 0, 63, 0
2, 793310, Note_on_c, 0, 66, 66
2, 793322, Note_on_c, 0, 74, 79
2, 793326, Note_on_c, 0, 63, 65
2, 793349, Note_on_c, 0, 62, 63
2, 793360, Note_on_c, 0, 69, 49
2, 793478, Control_c, 0, 64, 127
2, 793753, Note_on_c, 0, 69, 0
2, 793753, Note_on_c, 0, 74, 0
2, 793828, Control_c, 0, 64, 0
2, 793846, Note_on_c, 0, 66, 0
2, 793871, Note_on_c, 0, 63, 0
2, 793902, Note_on_c, 0, 62, 0
2, 793954, Note_on_c, 0, 63, 37
2, 793994, Note_on_c, 0, 72, 57
2, 794004, Note_on_c, 0, 60, 52
2, 794011, Control_c, 0, 64, 127
2, 794073, Note_on_c, 0, 60, 0
2, 794081, Note_on_c, 0, 66, 26
2, 794140, Note_on_c, 0, 72, 0
2, 794266, Note_on_c, 0, 63, 0
2, 794268, Note_on_c, 0, 66, 0
2, 794618, Control_c, 0, 64, 0
2, 794670, Note_on_c, 0, 70, 63
2, 794687, Note_on_c, 0, 62, 56
2, 794707, Note_on_c, 0, 58, 49
2, 794712, Note_on_c, 0, 67, 51
2, 794880, Note_on_c, 0, 67, 0
2, 794922, Note_on_c, 0, 62, 0
2, 794930, Note_on_c, 0, 58, 0
2, 794986, Note_on_c, 0, 70, 0
2, 795032, Control_c, 0, 64, 127
2, 795356, Control_c, 0, 64, 0
2, 795560, Note_on_c, 0, 54, 43
2, 795901, Note_on_c, 0, 54, 0
2, 795953, Note_on_c, 0, 69, 68
2, 795982, Note_on_c, 0, 57, 58
2, 796043, Note_on_c, 0, 62, 43
2, 796332, Note_on_c, 0, 62, 0
2, 796346, Note_on_c, 0, 69, 0
2, 796477, Note_on_c, 0, 57, 0
2, 796602, Note_on_c, 0, 54, 44
2, 796800, Note_on_c, 0, 54, 0
2, 796927, Note_on_c, 0, 58, 51
2, 796939, Note_on_c, 0, 67, 50
2, 796964, Note_on_c, 0, 55, 46
2, 796975, Note_on_c, 0, 62, 55
2, 797191, Control_c, 0, 64, 127
2, 797399, Note_on_c, 0, 62, 0
2, 797544, Note_on_c, 0, 58, 0
2, 797601, Control_c, 0, 64, 0
2, 797757, Note_on_c, 0, 55, 0
2, 797775, Note_on_c, 0, 67, 0
2, 797809, Note_on_c, 0, 58, 39
2, 797813, Note_on_c, 0, 62, 54
2, 797856, Note_on_c, 0, 50, 42
2, 797952, Note_on_c, 0, 62, 0
2, 798052, Control_c, 0, 64, 127
2, 798058, Note_on_c, 0, 58, 0
2, 798528, Control_c, 0, 64, 0
2, 798539, Note_on_c, 0, 55, 54
2, 798560, Note_on_c, 0, 43, 51
2, 798564, Note_on_c, 0, 58, 56
2, 798957, Control_c, 0, 64, 127
2, 799371, Note_on_c, 0, 55, 0
2, 799421, Note_on_c, 0, 43, 0
2, 799595, Note_on_c, 0, 58, 0
2, 799597, Note_on_c, 0, 50, 0
2, 801222, Note_on_c, 0, 54, 61
2, 801224, Control_c, 0, 64, 0
2, 801239, Note_on_c, 0, 78, 72
2, 801243, Note_on_c, 0, 66, 68
2, 801532, Note_on_c, 0, 66, 0
2, 801546, Note_on_c, 0, 78, 0
2, 801663, Note_on_c, 0, 54, 0
2, 801786, Control_c, 0, 64, 127
2, 801883, Note_on_c, 0, 55, 57
2, 801888, Note_on_c, 0, 67, 64
2, 801892, Note_on_c, 0, 79, 63
2, 802087, Note_on_c, 0, 67, 0
2, 802110, Note_on_c, 0, 79, 0
2, 802468, Control_c, 0, 64, 0
2, 802582, Note_on_c, 0, 55, 0
2, 802628, Note_on_c, 0, 81, 70
2, 802645, Note_on_c, 0, 57, 49
2, 802653, Note_on_c, 0, 69, 57
2, 802880, Control_c, 0, 64, 127
2, 803069, Note_on_c, 0, 57, 0
2, 804005, Note_on_c, 0, 69, 0
2, 804144, Note_on_c, 0, 81, 0
2, 804149, Note_on_c, 0, 74, 66
2, 804429, Note_on_c, 0, 74, 0
2, 804773, Note_on_c, 0, 81, 70
2, 806412, Note_on_c, 0, 65, 47
2, 806414, Control_c, 0, 64, 0
2, 806420, Note_on_c, 0, 60, 48
2, 806426, Note_on_c, 0, 54, 43
2, 807395, Control_c, 0, 64, 127
2, 807585, Note_on_c, 0, 81, 0
2, 809093, Note_on_c, 0, 65, 0
2, 809149, Note_on_c, 0, 60, 0
2, 809500, Note_on_c, 0, 54, 0
2, 809623, Note_on_c, 0, 79, 60
2, 809756, Note_on_c, 0, 79, 0
2, 809960, Note_on_c, 0, 81, 98
2, 810164, Note_on_c, 0, 81, 0
2, 810208, Control_c, 0, 64, 0
2, 810309, Note_on_c, 0, 82, 81
2, 810370, Note_on_c, 0, 58, 35
2, 810401, Note_on_c, 0, 57, 32
2, 810405, Note_on_c, 0, 62, 36
2, 810409, Note_on_c, 0, 55, 38
2, 810570, Note_on_c, 0, 82, 0
2, 810680, Note_on_c, 0, 81, 57
2, 810782, Note_on_c, 0, 81, 0
2, 810948, Note_on_c, 0, 82, 84
2, 811187, Note_on_c, 0, 82, 0
2, 811352, Note_on_c, 0, 81, 50
2, 811499, Note_on_c, 0, 81, 0
2, 813001, Note_on_c, 0, 79, 56
2, 813130, Note_on_c, 0, 79, 0
2, 814008, Note_on_c, 0, 74, 45
2, 814355, Control_c, 0, 64, 127
2, 814428, Note_on_c, 0, 74, 0
2, 814648, Note_on_c, 0, 70, 45
2, 814767, Control_c, 0, 64, 0
2, 814896, Note_on_c, 0, 70, 0
2, 815050, Note_on_c, 0, 67, 39
2, 815443, Note_on_c, 0, 67, 0
2, 815445, Control_c, 0, 64, 127
2, 816493, Note_on_c, 0, 58, 0
2, 816541, Note_on_c, 0, 62, 0
2, 816579, Note_on_c, 0, 70, 89
2, 816593, Note_on_c, 0, 57, 0
2, 816618, Note_on_c, 0, 55, 0
2, 816751, Control_c, 0, 64, 0
2, 816851, Control_c, 0, 64, 127
2, 817151, Note_on_c, 0, 70, 0
2, 817257, Note_on_c, 0, 69, 61
2, 817296, Control_c, 0, 64, 0
2, 817419, Control_c, 0, 64, 127
2, 817436, Note_on_c, 0, 69, 0
2, 817587, Note_on_c, 0, 70, 70
2, 817824, Note_on_c, 0, 70, 0
2, 817968, Control_c, 0, 64, 0
2, 818001, Note_on_c, 0, 63, 58
2, 818010, Note_on_c, 0, 72, 63
2, 818032, Note_on_c, 0, 67, 54
2, 818074, Note_on_c, 0, 70, 45
2, 818097, Note_on_c, 0, 60, 50
2, 818563, Control_c, 0, 64, 127
2, 818946, Note_on_c, 0, 60, 0
2, 819050, Note_on_c, 0, 67, 0
2, 820495, Note_on_c, 0, 48, 56
2, 820518, Control_c, 0, 64, 0
2, 820608, Note_on_c, 0, 48, 0
2, 820676, Control_c, 0, 64, 127
2, 820793, Note_on_c, 0, 70, 0
2, 820799, Note_on_c, 0, 63, 0
2, 820882, Note_on_c, 0, 72, 0
2, 821826, Control_c, 0, 64, 0
2, 821849, Note_on_c, 0, 66, 44
2, 821864, Note_on_c, 0, 62, 45
2, 821874, Note_on_c, 0, 51, 43
2, 821878, Note_on_c, 0, 57, 38
2, 822188, Control_c, 0, 64, 127
2, 822390, Note_on_c, 0, 62, 0
2, 822444, Note_on_c, 0, 51, 0
2, 822519, Note_on_c, 0, 57, 0
2, 822683, Note_on_c, 0, 66, 0
2, 823684, Control_c, 0, 64, 88
2, 823690, Control_c, 0, 64, 0
2, 823744, Note_on_c, 0, 77, 85
2, 823748, Note_on_c, 0, 72, 80
2, 823759, Note_on_c, 0, 67, 81
2, 823767, Note_on_c, 0, 62, 75
2, 824077, Control_c, 0, 64, 127
2, 824620, Note_on_c, 0, 72, 0
2, 824636, Note_on_c, 0, 77, 0
2, 824674, Note_on_c, 0, 67, 0
2, 825075, Note_on_c, 0, 62, 0
2, 825102, Note_on_c, 0, 75, 66
2, 825123, Note_on_c, 0, 70, 66
2, 825142, Note_on_c, 0, 65, 60
2, 825177, Note_on_c, 0, 60, 49
2, 825360, Note_on_c, 0, 75, 0
2, 825396, Note_on_c, 0, 65, 0
2, 825479, Note_on_c, 0, 70, 0
2, 825712, Note_on_c, 0, 60, 0
2, 825718, Control_c, 0, 64, 0
2, 825866, Note_on_c, 0, 69, 57
2, 825868, Note_on_c, 0, 65, 58
2, 825874, Note_on_c, 0, 74, 60
2, 825903, Note_on_c, 0, 58, 48
2, 826226, Control_c, 0, 64, 127
2, 826496, Note_on_c, 0, 69, 0
2, 826536, Note_on_c, 0, 74, 0
2, 826656, Note_on_c, 0, 58, 0
2, 826694, Note_on_c, 0, 65, 0
2, 828112, Note_on_c, 0, 69, 66
2, 828131, Control_c, 0, 64, 0
2, 828175, Note_on_c, 0, 65, 68
2, 828229, Note_on_c, 0, 57, 46
2, 828270, Note_on_c, 0, 62, 30
2, 828351, Note_on_c, 0, 57, 0
2, 828414, Note_on_c, 0, 60, 28
2, 828482, Control_c, 0, 64, 127
2, 828678, Note_on_c, 0, 62, 0
2, 828703, Note_on_c, 0, 65, 0
2, 828711, Note_on_c, 0, 69, 0
2, 828842, Note_on_c, 0, 60, 0
2, 829491, Control_c, 0, 64, 40
2, 829500, Note_on_c, 0, 62, 48
2, 829502, Control_c, 0, 64, 0
2, 829512, Note_on_c, 0, 58, 48
2, 829539, Note_on_c, 0, 55, 23
2, 829566, Note_on_c, 0, 39, 36
2, 829572, Note_on_c, 0, 46, 40
2, 829903, Control_c, 0, 64, 127
2, 829961, Note_on_c, 0, 55, 0
2, 830115, Note_on_c, 0, 62, 0
2, 830159, Note_on_c, 0, 58, 0
2, 830198, Note_on_c, 0, 39, 0
2, 830246, Note_on_c, 0, 46, 0
2, 831838, Control_c, 0, 64, 0
2, 831927, Note_on_c, 0, 85, 71
2, 831935, Note_on_c, 0, 61, 58
2, 831956, Note_on_c, 0, 73, 59
2, 832077, Note_on_c, 0, 73, 0
2, 832120, Note_on_c, 0, 85, 0
2, 832179, Note_on_c, 0, 61, 0
2, 832208, Control_c, 0, 64, 56
2, 832216, Control_c, 0, 64, 127
2, 832376, Control_c, 0, 64, 0
2, 832564, Note_on_c, 0, 62, 57
2, 832605, Note_on_c, 0, 86, 63
2, 832626, Note_on_c, 0, 74, 68
2, 832669, Note_on_c, 0, 62, 0
2, 832688, Control_c, 0, 64, 127
2, 832761, Note_on_c, 0, 86, 0
2, 832796, Note_on_c, 0, 74, 0
2, 833137, Control_c, 0, 64, 0
2, 833337, Note_on_c, 0, 60, 52
2, 833339, Note_on_c, 0, 87, 70
2, 833343, Note_on_c, 0, 55, 52
2, 833346, Note_on_c, 0, 57, 48
2, 833350, Note_on_c, 0, 63, 45
2, 833362, Note_on_c, 0, 75, 57
2, 833520, Control_c, 0, 64, 127
2, 834458, Note_on_c, 0, 55, 0
2, 834521, Note_on_c, 0, 87, 0
2, 834577, Note_on_c, 0, 75, 0
2, 834591, Note_on_c, 0, 63, 0
2, 834616, Note_on_c, 0, 57, 0
2, 834641, Note_on_c, 0, 60, 0
2, 835794, Control_c, 0, 64, 0
2, 835877, Note_on_c, 0, 63, 68
2, 835887, Note_on_c, 0, 84, 82
2, 835894, Note_on_c, 0, 55, 61
2, 835900, Note_on_c, 0, 77, 87
2, 835912, Note_on_c, 0, 81, 80
2, 835923, Note_on_c, 0, 60, 54
2, 835956, Note_on_c, 0, 57, 50
2, 836037, Note_on_c, 0, 77, 0
2, 836124, Note_on_c, 0, 81, 0
2, 836127, Note_on_c, 0, 84, 0
2, 836156, Control_c, 0, 64, 127
2, 836185, Note_on_c, 0, 55, 0
2, 836187, Note_on_c, 0, 63, 0
2, 836276, Note_on_c, 0, 57, 0
2, 836318, Note_on_c, 0, 60, 0
2, 836534, Note_on_c, 0, 63, 66
2, 836553, Note_on_c, 0, 84, 75
2, 836563, Note_on_c, 0, 77, 82
2, 836570, Note_on_c, 0, 55, 52
2, 836574, Note_on_c, 0, 81, 73
2, 836622, Note_on_c, 0, 60, 34
2, 836711, Note_on_c, 0, 81, 0
2, 836734, Note_on_c, 0, 84, 0
2, 836751, Note_on_c, 0, 77, 0
2, 836782, Note_on_c, 0, 55, 0
2, 836906, Note_on_c, 0, 60, 0
2, 837040, Note_on_c, 0, 63, 0
2, 837200, Note_on_c, 0, 81, 70
2, 837204, Control_c, 0, 64, 0
2, 837223, Note_on_c, 0, 77, 67
2, 837227, Note_on_c, 0, 72, 52
2, 837254, Note_on_c, 0, 60, 57
2, 837256, Note_on_c, 0, 64, 62
2, 837291, Note_on_c, 0, 54, 50
2, 837795, Control_c, 0, 64, 127
2, 838105, Note_on_c, 0, 81, 0
2, 838109, Note_on_c, 0, 77, 0
2, 838157, Note_on_c, 0, 60, 0
2, 838206, Note_on_c, 0, 54, 0
2, 838221, Note_on_c, 0, 64, 0
2, 838242, Note_on_c, 0, 72, 0
2, 839009, Control_c, 0, 64, 0
2, 839020, Note_on_c, 0, 70, 57
2, 839043, Note_on_c, 0, 65, 47
2, 839080, Note_on_c, 0, 64, 42
2, 839086, Note_on_c, 0, 54, 44
2, 839103, Note_on_c, 0, 60, 40
2, 839421, Control_c, 0, 64, 127
2, 839721, Note_on_c, 0, 64, 0
2, 839823, Note_on_c, 0, 60, 0
2, 839989, Note_on_c, 0, 65, 0
2, 840001, Note_on_c, 0, 54, 0
2, 840276, Note_on_c, 0, 70, 0
2, 840942, Control_c, 0, 64, 0
2, 840989, Note_on_c, 0, 65, 42
2, 841002, Note_on_c, 0, 69, 47
2, 841006, Note_on_c, 0, 55, 43
2, 841014, Note_on_c, 0, 62, 35
2, 841033, Note_on_c, 0, 58, 47
2, 841366, Control_c, 0, 64, 127
2, 842096, Note_on_c, 0, 55, 0
2, 842165, Note_on_c, 0, 65, 0
2, 842190, Note_on_c, 0, 58, 0
2, 842221, Note_on_c, 0, 62, 0
2, 842339, Note_on_c, 0, 69, 0
2, 843498, Control_c, 0, 64, 0
2, 843527, Note_on_c, 0, 74, 74
2, 843544, Note_on_c, 0, 64, 65
2, 843558, Note_on_c, 0, 68, 61
2, 843560, Note_on_c, 0, 70, 60
2, 843573, Note_on_c, 0, 58, 59
2, 843858, Note_on_c, 0, 74, 0
2, 843897, Note_on_c, 0, 58, 0
2, 843906, Note_on_c, 0, 64, 0
2, 843951, Note_on_c, 0, 68, 0
2, 843964, Note_on_c, 0, 70, 0
2, 843970, Control_c, 0, 64, 127
2, 844205, Note_on_c, 0, 73, 61
2, 844234, Note_on_c, 0, 70, 50
2, 844238, Note_on_c, 0, 58, 53
2, 844263, Note_on_c, 0, 68, 57
2, 844265, Note_on_c, 0, 64, 46
2, 844355, Note_on_c, 0, 64, 0
2, 844411, Note_on_c, 0, 73, 0
2, 844451, Note_on_c, 0, 70, 0
2, 844484, Note_on_c, 0, 68, 0
2, 844675, Note_on_c, 0, 58, 0
2, 844769, Control_c, 0, 64, 0
2, 844858, Note_on_c, 0, 56, 50
2, 844889, Note_on_c, 0, 63, 58
2, 844904, Note_on_c, 0, 70, 57
2, 844908, Note_on_c, 0, 72, 49
2, 844927, Note_on_c, 0, 67, 57
2, 844954, Note_on_c, 0, 60, 36
2, 845237, Control_c, 0, 64, 127
2, 845360, Note_on_c, 0, 67, 0
2, 845420, Note_on_c, 0, 72, 0
2, 845441, Note_on_c, 0, 60, 0
2, 845480, Note_on_c, 0, 70, 0
2, 845572, Note_on_c, 0, 63, 0
2, 845674, Note_on_c, 0, 56, 0
2, 846734, Control_c, 0, 64, 0
2, 846774, Note_on_c, 0, 56, 45
2, 846778, Note_on_c, 0, 67, 54
2, 846793, Note_on_c, 0, 62, 42
2, 847115, Control_c, 0, 64, 127
2, 847614, Note_on_c, 0, 56, 0
2, 847677, Note_on_c, 0, 62, 0
2, 847710, Note_on_c, 0, 67, 0
2, 849224, Control_c, 0, 64, 0
2, 849299, Note_on_c, 0, 72, 58
2, 849305, Note_on_c, 0, 63, 59
2, 849322, Note_on_c, 0, 67, 58
2, 849339, Note_on_c, 0, 62, 56
2, 849361, Note_on_c, 0, 69, 51
2, 849476, Note_on_c, 0, 63, 0
2, 849530, Note_on_c, 0, 67, 0
2, 849532, Note_on_c, 0, 72, 0
2, 849574, Note_on_c, 0, 69, 0
2, 849580, Note_on_c, 0, 62, 0
2, 849985, Note_on_c, 0, 72, 56
2, 850000, Note_on_c, 0, 63, 58
2, 850035, Note_on_c, 0, 67, 57
2, 850048, Note_on_c, 0, 69, 54
2, 850056, Note_on_c, 0, 62, 57
2, 850144, Control_c, 0, 64, 127
2, 850187, Note_on_c, 0, 63, 0
2, 850281, Note_on_c, 0, 62, 0
2, 850283, Note_on_c, 0, 67, 0
2, 850295, Note_on_c, 0, 69, 0
2, 850297, Note_on_c, 0, 72, 0
2, 850370, Control_c, 0, 64, 0
2, 850649, Control_c, 0, 64, 127
2, 850686, Note_on_c, 0, 72, 56
2, 850691, Note_on_c, 0, 62, 51
2, 850699, Note_on_c, 0, 63, 57
2, 850707, Note_on_c, 0, 67, 56
2, 850732, Note_on_c, 0, 69, 47
2, 850976, Note_on_c, 0, 69, 0
2, 851007, Note_on_c, 0, 63, 0
2, 851038, Note_on_c, 0, 72, 0
2, 851069, Note_on_c, 0, 62, 0
2, 851117, Note_on_c, 0, 67, 0
2, 851277, Note_on_c, 0, 63, 49
2, 851335, Note_on_c, 0, 70, 47
2, 851502, Note_on_c, 0, 63, 0
2, 851568, Note_on_c, 0, 70, 0
2, 852011, Control_c, 0, 64, 0
2, 852124, Note_on_c, 0, 63, 52
2, 852149, Note_on_c, 0, 69, 56
2, 852153, Note_on_c, 0, 66, 50
2, 852174, Note_on_c, 0, 60, 29
2, 852205, Note_on_c, 0, 50, 37
2, 852457, Control_c, 0, 64, 127
2, 853351, Note_on_c, 0, 60, 0
2, 853357, Note_on_c, 0, 63, 0
2, 853388, Note_on_c, 0, 69, 0
2, 853538, Note_on_c, 0, 66, 0
2, 853628, Note_on_c, 0, 50, 0
2, 854204, Control_c, 0, 64, 0
2, 854316, Note_on_c, 0, 70, 63
2, 854339, Note_on_c, 0, 58, 51
2, 854378, Note_on_c, 0, 67, 44
2, 854383, Note_on_c, 0, 62, 45
2, 854470, Note_on_c, 0, 62, 0
2, 854478, Note_on_c, 0, 67, 0
2, 854547, Note_on_c, 0, 58, 0
2, 854561, Note_on_c, 0, 70, 0
2, 854609, Control_c, 0, 64, 127
2, 854826, Control_c, 0, 64, 0
2, 855237, Note_on_c, 0, 62, 51
2, 855479, Note_on_c, 0, 62, 0
2, 855622, Control_c, 0, 64, 127
2, 856109, Control_c, 0, 64, 0
2, 856248, Note_on_c, 0, 67, 57
2, 856282, Note_on_c, 0, 43, 49
2, 856515, Control_c, 0, 64, 127
2, 856696, Note_on_c, 0, 43, 0
2, 856914, Note_on_c, 0, 67, 0
2, 858229, Control_c, 0, 64, 0
2, 858291, Note_on_c, 0, 69, 111
2, 858295, Note_on_c, 0, 72, 90
2, 858308, Note_on_c, 0, 65, 107
2, 858322, Note_on_c, 0, 58, 72
2, 858330, Note_on_c, 0, 62, 82
2, 858337, Note_on_c, 0, 60, 72
2, 858830, Control_c, 0, 64, 127
2, 859196, Note_on_c, 0, 60, 0
2, 859202, Note_on_c, 0, 69, 0
2, 859214, Note_on_c, 0, 62, 0
2, 859254, Note_on_c, 0, 58, 0
2, 859254, Note_on_c, 0, 65, 0
2, 859291, Note_on_c, 0, 72, 0
2, 859828, Control_c, 0, 64, 0
2, 859855, Note_on_c, 0, 70, 72
2, 859878, Note_on_c, 0, 63, 66
2, 859909, Note_on_c, 0, 60, 53
2, 859915, Note_on_c, 0, 67, 55
2, 859922, Note_on_c, 0, 58, 51
2, 859924, Note_on_c, 0, 56, 52
2, 860336, Control_c, 0, 64, 127
2, 860427, Note_on_c, 0, 63, 0
2, 860465, Note_on_c, 0, 67, 0
2, 860591, Note_on_c, 0, 70, 0
2, 861215, Note_on_c, 0, 89, 45
2, 861263, Note_on_c, 0, 77, 36
2, 861396, Note_on_c, 0, 77, 0
2, 861421, Note_on_c, 0, 89, 0
2, 861852, Note_on_c, 0, 92, 68
2, 861871, Note_on_c, 0, 80, 55
2, 862012, Note_on_c, 0, 80, 0
2, 862116, Note_on_c, 0, 92, 0
2, 862482, Note_on_c, 0, 94, 63
2, 862540, Note_on_c, 0, 82, 39
2, 862586, Note_on_c, 0, 60, 0
2, 862628, Note_on_c, 0, 82, 0
2, 862634, Note_on_c, 0, 58, 0
2, 862696, Note_on_c, 0, 94, 0
2, 862717, Note_on_c, 0, 56, 0
2, 863079, Note_on_c, 0, 96, 56
2, 863133, Note_on_c, 0, 84, 37
2, 863237, Note_on_c, 0, 84, 0
2, 863275, Note_on_c, 0, 96, 0
2, 863741, Control_c, 0, 64, 0
2, 863757, Note_on_c, 0, 98, 62
2, 863774, Note_on_c, 0, 86, 54
2, 863776, Note_on_c, 0, 43, 47
2, 863793, Note_on_c, 0, 31, 52
2, 864082, Control_c, 0, 64, 127
2, 864188, Note_on_c, 0, 98, 0
2, 864331, Note_on_c, 0, 31, 0
2, 864379, Note_on_c, 0, 86, 0
2, 864494, Note_on_c, 0, 43, 0
2, 865964, Control_c, 0, 64, 0
2, 865970, Note_on_c, 0, 65, 57
2, 866002, Note_on_c, 0, 72, 56
2, 866006, Note_on_c, 0, 62, 46
2, 866010, Note_on_c, 0, 69, 56
2, 866016, Note_on_c, 0, 58, 42
2, 866052, Note_on_c, 0, 60, 43
2, 866376, Control_c, 0, 64, 127
2, 866694, Note_on_c, 0, 69, 0
2, 866717, Note_on_c, 0, 60, 0
2, 866767, Note_on_c, 0, 62, 0
2, 866771, Note_on_c, 0, 58, 0
2, 866775, Note_on_c, 0, 72, 0
2, 866879, Note_on_c, 0, 65, 0
2, 867543, Control_c, 0, 64, 0
2, 867587, Note_on_c, 0, 63, 39
2, 867591, Note_on_c, 0, 70, 52
2, 867624, Note_on_c, 0, 56, 40
2, 867636, Note_on_c, 0, 60, 34
2, 867643, Note_on_c, 0, 58, 42
2, 867649, Note_on_c, 0, 67, 43
2, 867874, Control_c, 0, 64, 127
2, 867919, Note_on_c, 0, 67, 0
2, 867969, Note_on_c, 0, 63, 0
2, 868044, Note_on_c, 0, 70, 0
2, 868570, Note_on_c, 0, 72, 54
2, 868795, Note_on_c, 0, 72, 0
2, 869427, Note_on_c, 0, 72, 56
2, 869583, Note_on_c, 0, 72, 0
2, 870182, Note_on_c, 0, 72, 56
2, 870318, Note_on_c, 0, 60, 0
2, 870332, Note_on_c, 0, 58, 0
2, 870446, Note_on_c, 0, 72, 0
2, 870457, Note_on_c, 0, 56, 0
2, 870902, Note_on_c, 0, 72, 50
2, 871536, Note_on_c, 0, 72, 0
2, 871788, Note_on_c, 0, 70, 48
2, 871790, Control_c, 0, 64, 0
2, 871826, Note_on_c, 0, 43, 38
2, 871857, Note_on_c, 0, 31, 36
2, 872204, Control_c, 0, 64, 127
2, 872350, Note_on_c, 0, 31, 0
2, 872456, Note_on_c, 0, 43, 0
2, 872863, Note_on_c, 0, 70, 0
2, 874652, Note_on_c, 0, 65, 60
2, 874656, Note_on_c, 0, 72, 50
2, 874669, Control_c, 0, 64, 0
2, 874671, Note_on_c, 0, 69, 54
2, 874675, Note_on_c, 0, 62, 43
2, 874690, Note_on_c, 0, 58, 42
2, 874744, Note_on_c, 0, 65, 0
2, 874750, Note_on_c, 0, 69, 0
2, 874752, Note_on_c, 0, 72, 0
2, 874758, Note_on_c, 0, 62, 0
2, 874790, Note_on_c, 0, 58, 0
2, 875605, Control_c, 0, 64, 127
2, 875649, Note_on_c, 0, 63, 50
2, 875671, Note_on_c, 0, 70, 47
2, 875698, Note_on_c, 0, 60, 37
2, 875713, Note_on_c, 0, 58, 39
2, 875734, Note_on_c, 0, 67, 45
2, 875738, Note_on_c, 0, 56, 39
2, 876724, Note_on_c, 0, 60, 0
2, 876795, Note_on_c, 0, 58, 0
2, 876832, Note_on_c, 0, 56, 0
2, 878259, Note_on_c, 0, 67, 0
2, 878309, Note_on_c, 0, 70, 0
2, 878340, Note_on_c, 0, 63, 0
2, 879409, Control_c, 0, 64, 0
2, 879482, Note_on_c, 0, 31, 37
2, 879723, Control_c, 0, 64, 127
2, 880193, Note_on_c, 0, 31, 0
2, 881450, Note_on_c, 0, 62, 35
2, 881452, Note_on_c, 0, 72, 42
2, 881456, Note_on_c, 0, 65, 38
2, 881481, Note_on_c, 0, 69, 48
2, 881485, Note_on_c, 0, 58, 35
2, 881487, Control_c, 0, 64, 0
2, 881581, Note_on_c, 0, 69, 0
2, 881616, Note_on_c, 0, 72, 0
2, 881620, Note_on_c, 0, 65, 0
2, 881622, Note_on_c, 0, 62, 0
2, 881637, Note_on_c, 0, 58, 0
2, 881951, Control_c, 0, 64, 127
2, 882835, Note_on_c, 0, 70, 44
2, 882841, Note_on_c, 0, 63, 38
2, 882866, Note_on_c, 0, 58, 35
2, 882902, Note_on_c, 0, 67, 47
2, 882906, Note_on_c, 0, 56, 36
2, 882912, Note_on_c, 0, 60, 26
2, 886533, Note_on_c, 0, 67, 0
2, 886548, Note_on_c, 0, 63, 0
2, 886604, Note_on_c, 0, 70, 0
2, 886735, Note_on_c, 0, 60, 0
2, 886766, Note_on_c, 0, 58, 0
2, 886806, Note_on_c, 0, 56, 0
2, 889924, Control_c, 0, 64, 0
2, 889924, End_track
3, 0, Start_track
3, 0, Title_t, "Bass"
3, 0, Control_c, 1, 0, 121
3, 0, Control_c, 1, 7, 79
3, 1, Control_c, 1, 32, 0
3, 2, Program_c, 1, 35
3, 3924, Note_on_c, 1, 36, 72
3, 5342, Note_on_c, 1, 43, 73
3, 5464, Note_on_c, 1, 43, 0
3, 5687, Note_on_c, 1, 36, 0
3, 5761, Note_on_c, 1, 43, 69
3, 5984, Note_on_c, 1, 43, 0
3, 6718, Note_on_c, 1, 39, 75
3, 7561, Note_on_c, 1, 39, 0
3, 7719, Note_on_c, 1, 41, 81
3, 9294, Note_on_c, 1, 36, 78
3, 9297, Note_on_c, 1, 41, 0
3, 9471, Note_on_c, 1, 36, 0
3, 9596, Note_on_c, 1, 33, 89
3, 10442, Note_on_c, 1, 33, 0
3, 10643, Note_on_c, 1, 33, 100
3, 11560, Note_on_c, 1, 33, 0
3, 11652, Note_on_c, 1, 34, 86
3, 13097, Note_on_c, 1, 34, 0
3, 13097, Note_on_c, 1, 32, 83
3, 13456, Note_on_c, 1, 32, 0
3, 13548, Note_on_c, 1, 41, 86
3, 14506, Note_on_c, 1, 40, 95
3, 14525, Note_on_c, 1, 41, 0
3, 15294, Note_on_c, 1, 40, 0
3, 15463, Note_on_c, 1, 39, 83
3, 17060, Note_on_c, 1, 43, 86
3, 17160, Note_on_c, 1, 43, 0
3, 17302, Note_on_c, 1, 39, 0
3, 17487, Note_on_c, 1, 46, 87
3, 17914, Note_on_c, 1, 46, 0
3, 18452, Note_on_c, 1, 44, 98
3, 19366, Note_on_c, 1, 44, 0
3, 19453, Note_on_c, 1, 45, 93
3, 20838, Note_on_c, 1, 39, 93
3, 20947, Note_on_c, 1, 39, 0
3, 21077, Note_on_c, 1, 45, 0
3, 21238, Note_on_c, 1, 36, 81
3, 22135, Note_on_c, 1, 36, 0
3, 22179, Note_on_c, 1, 37, 91
3, 23106, Note_on_c, 1, 37, 0
3, 23142, Note_on_c, 1, 38, 84
3, 24107, Note_on_c, 1, 52, 49
3, 24461, Note_on_c, 1, 52, 0
3, 24763, Note_on_c, 1, 53, 64
3, 24972, Note_on_c, 1, 53, 0
3, 25154, Note_on_c, 1, 54, 80
3, 25660, Note_on_c, 1, 54, 0
3, 25682, Note_on_c, 1, 38, 0
3, 25965, Note_on_c, 1, 41, 79
3, 26351, Note_on_c, 1, 42, 98
3, 26449, Note_on_c, 1, 41, 0
3, 27069, Note_on_c, 1, 42, 0
3, 27113, Note_on_c, 1, 43, 95
3, 28500, Note_on_c, 1, 37, 83
3, 28530, Note_on_c, 1, 43, 0
3, 28859, Note_on_c, 1, 37, 0
3, 28946, Note_on_c, 1, 38, 77
3, 29387, Note_on_c, 1, 38, 0
3, 29797, Note_on_c, 1, 30, 87
3, 30651, Note_on_c, 1, 30, 0
3, 30823, Note_on_c, 1, 31, 79
3, 32305, Note_on_c, 1, 31, 0
3, 32311, Note_on_c, 1, 37, 83
3, 32531, Note_on_c, 1, 37, 0
3, 32705, Note_on_c, 1, 38, 81
3, 32803, Note_on_c, 1, 38, 0
3, 33265, Note_on_c, 1, 38, 73
3, 33399, Note_on_c, 1, 38, 0
3, 33603, Note_on_c, 1, 35, 84
3, 34571, Note_on_c, 1, 35, 0
3, 34647, Note_on_c, 1, 36, 76
3, 36111, Note_on_c, 1, 43, 73
3, 36331, Note_on_c, 1, 43, 0
3, 36404, Note_on_c, 1, 36, 0
3, 36489, Note_on_c, 1, 48, 89
3, 37185, Note_on_c, 1, 36, 81
3, 37294, Note_on_c, 1, 36, 0
3, 37302, Note_on_c, 1, 48, 0
3, 37468, Note_on_c, 1, 42, 78
3, 38330, Note_on_c, 1, 42, 0
3, 38499, Note_on_c, 1, 41, 80
3, 40144, Note_on_c, 1, 36, 67
3, 40239, Note_on_c, 1, 41, 0
3, 40275, Note_on_c, 1, 36, 0
3, 40484, Note_on_c, 1, 33, 86
3, 41303, Note_on_c, 1, 33, 0
3, 41529, Note_on_c, 1, 33, 101
3, 42399, Note_on_c, 1, 33, 0
3, 42505, Note_on_c, 1, 34, 84
3, 43868, Note_on_c, 1, 32, 75
3, 44118, Note_on_c, 1, 32, 0
3, 44129, Note_on_c, 1, 34, 0
3, 44273, Note_on_c, 1, 38, 86
3, 45867, Note_on_c, 1, 34, 82
3, 45878, Note_on_c, 1, 38, 0
3, 46126, Note_on_c, 1, 34, 0
3, 46272, Note_on_c, 1, 39, 92
3, 47684, Note_on_c, 1, 34, 84
3, 47714, Note_on_c, 1, 39, 0
3, 47798, Note_on_c, 1, 34, 0
3, 48081, Note_on_c, 1, 34, 80
3, 48873, Note_on_c, 1, 34, 0
3, 49025, Note_on_c, 1, 32, 86
3, 49871, Note_on_c, 1, 32, 0
3, 50045, Note_on_c, 1, 33, 84
3, 51419, Note_on_c, 1, 33, 0
3, 51547, Note_on_c, 1, 39, 82
3, 51647, Note_on_c, 1, 39, 0
3, 52023, Note_on_c, 1, 45, 55
3, 52670, Note_on_c, 1, 37, 69
3, 52686, Note_on_c, 1, 45, 0
3, 52790, Note_on_c, 1, 37, 0
3, 52918, Note_on_c, 1, 51, 106
3, 53799, Note_on_c, 1, 51, 0
3, 53943, Note_on_c, 1, 50, 78
3, 55398, Note_on_c, 1, 37, 92
3, 55545, Note_on_c, 1, 50, 0
3, 55676, Note_on_c, 1, 37, 0
3, 55803, Note_on_c, 1, 38, 80
3, 56592, Note_on_c, 1, 38, 0
3, 56611, Note_on_c, 1, 37, 62
3, 56758, Note_on_c, 1, 37, 0
3, 56764, Note_on_c, 1, 45, 89
3, 57609, Note_on_c, 1, 45, 0
3, 57737, Note_on_c, 1, 43, 78
3, 59277, Note_on_c, 1, 37, 78
3, 59364, Note_on_c, 1, 43, 0
3, 59500, Note_on_c, 1, 37, 0
3, 59565, Note_on_c, 1, 38, 82
3, 61137, Note_on_c, 1, 30, 60
3, 61186, Note_on_c, 1, 38, 0
3, 61328, Note_on_c, 1, 30, 0
3, 61401, Note_on_c, 1, 31, 86
3, 62941, Note_on_c, 1, 31, 0
3, 63000, Note_on_c, 1, 38, 82
3, 63096, Note_on_c, 1, 38, 0
3, 63354, Note_on_c, 1, 38, 80
3, 63738, Note_on_c, 1, 38, 0
3, 64379, Note_on_c, 1, 37, 83
3, 65239, Note_on_c, 1, 37, 0
3, 65361, Note_on_c, 1, 38, 79
3, 66895, Note_on_c, 1, 49, 78
3, 67151, Note_on_c, 1, 38, 0
3, 67230, Note_on_c, 1, 49, 0
3, 67257, Note_on_c, 1, 50, 79
3, 67975, Note_on_c, 1, 37, 57
3, 68054, Note_on_c, 1, 50, 0
3, 68128, Note_on_c, 1, 37, 0
3, 68168, Note_on_c, 1, 46, 91
3, 69085, Note_on_c, 1, 46, 0
3, 69218, Note_on_c, 1, 45, 84
3, 70682, Note_on_c, 1, 37, 86
3, 70728, Note_on_c, 1, 45, 0
3, 71003, Note_on_c, 1, 37, 0
3, 71049, Note_on_c, 1, 38, 80
3, 71849, Note_on_c, 1, 38, 0
3, 71998, Note_on_c, 1, 30, 94
3, 72901, Note_on_c, 1, 30, 0
3, 73040, Note_on_c, 1, 31, 92
3, 74430, Note_on_c, 1, 31, 0
3, 74482, Note_on_c, 1, 33, 89
3, 74764, Note_on_c, 1, 33, 0
3, 74871, Note_on_c, 1, 34, 97
3, 76266, Note_on_c, 1, 34, 0
3, 76388, Note_on_c, 1, 36, 93
3, 76590, Note_on_c, 1, 36, 0
3, 76807, Note_on_c, 1, 38, 75
3, 78371, Note_on_c, 1, 34, 80
3, 78455, Note_on_c, 1, 38, 0
3, 78687, Note_on_c, 1, 34, 0
3, 78763, Note_on_c, 1, 43, 68
3, 79065, Note_on_c, 1, 43, 0
3, 79459, Note_on_c, 1, 36, 70
3, 79579, Note_on_c, 1, 36, 0
3, 79767, Note_on_c, 1, 46, 92
3, 80536, Note_on_c, 1, 46, 0
3, 80746, Note_on_c, 1, 41, 89
3, 82285, Note_on_c, 1, 35, 89
3, 82427, Note_on_c, 1, 41, 0
3, 82541, Note_on_c, 1, 35, 0
3, 82701, Note_on_c, 1, 36, 86
3, 83262, Note_on_c, 1, 36, 0
3, 83659, Note_on_c, 1, 36, 95
3, 84339, Note_on_c, 1, 36, 0
3, 84608, Note_on_c, 1, 41, 97
3, 86017, Note_on_c, 1, 36, 89
3, 86216, Note_on_c, 1, 41, 0
3, 86270, Note_on_c, 1, 36, 0
3, 86379, Note_on_c, 1, 29, 98
3, 87325, Note_on_c, 1, 29, 0
3, 87415, Note_on_c, 1, 33, 114
3, 88313, Note_on_c, 1, 33, 0
3, 88394, Note_on_c, 1, 34, 115
3, 89730, Note_on_c, 1, 34, 0
3, 89784, Note_on_c, 1, 36, 95
3, 90230, Note_on_c, 1, 38, 102
3, 90266, Note_on_c, 1, 36, 0
3, 91125, Note_on_c, 1, 38, 0
3, 91155, Note_on_c, 1, 41, 114
3, 92091, Note_on_c, 1, 41, 0
3, 92178, Note_on_c, 1, 39, 92
3, 93666, Note_on_c, 1, 46, 83
3, 93704, Note_on_c, 1, 37, 54
3, 93886, Note_on_c, 1, 46, 0
3, 93992, Note_on_c, 1, 39, 0
3, 94006, Note_on_c, 1, 37, 0
3, 94109, Note_on_c, 1, 51, 91
3, 94639, Note_on_c, 1, 51, 0
3, 95039, Note_on_c, 1, 51, 103
3, 96029, Note_on_c, 1, 51, 0
3, 96057, Note_on_c, 1, 45, 120
3, 97555, Note_on_c, 1, 39, 93
3, 97762, Note_on_c, 1, 45, 0
3, 97917, Note_on_c, 1, 39, 0
3, 97955, Note_on_c, 1, 51, 92
3, 98363, Note_on_c, 1, 51, 0
3, 98885, Note_on_c, 1, 39, 105
3, 99753, Note_on_c, 1, 39, 0
3, 99889, Note_on_c, 1, 38, 93
3, 101295, Note_on_c, 1, 38, 0
3, 101358, Note_on_c, 1, 44, 110
3, 101616, Note_on_c, 1, 44, 0
3, 101815, Note_on_c, 1, 42, 87
3, 101926, Note_on_c, 1, 42, 0
3, 102780, Note_on_c, 1, 42, 102
3, 103572, Note_on_c, 1, 42, 0
3, 103716, Note_on_c, 1, 43, 100
3, 105177, Note_on_c, 1, 42, 84
3, 105218, Note_on_c, 1, 43, 0
3, 105294, Note_on_c, 1, 42, 0
3, 105582, Note_on_c, 1, 42, 80
3, 106034, Note_on_c, 1, 42, 0
3, 106523, Note_on_c, 1, 42, 93
3, 107404, Note_on_c, 1, 42, 0
3, 107562, Note_on_c, 1, 41, 92
3, 109031, Note_on_c, 1, 41, 0
3, 109042, Note_on_c, 1, 39, 86
3, 109330, Note_on_c, 1, 39, 0
3, 109469, Note_on_c, 1, 40, 81
3, 109608, Note_on_c, 1, 40, 0
3, 110396, Note_on_c, 1, 40, 101
3, 111253, Note_on_c, 1, 40, 0
3, 111392, Note_on_c, 1, 39, 92
3, 112831, Note_on_c, 1, 34, 97
3, 112899, Note_on_c, 1, 39, 0
3, 113051, Note_on_c, 1, 34, 0
3, 113263, Note_on_c, 1, 34, 98
3, 114145, Note_on_c, 1, 34, 0
3, 114226, Note_on_c, 1, 32, 86
3, 115037, Note_on_c, 1, 32, 0
3, 115222, Note_on_c, 1, 33, 96
3, 116620, Note_on_c, 1, 33, 0
3, 116682, Note_on_c, 1, 39, 96
3, 116998, Note_on_c, 1, 39, 0
3, 117115, Note_on_c, 1, 38, 87
3, 117980, Note_on_c, 1, 38, 0
3, 118053, Note_on_c, 1, 30, 108
3, 119000, Note_on_c, 1, 30, 0
3, 119076, Note_on_c, 1, 31, 102
3, 120558, Note_on_c, 1, 38, 98
3, 120648, Note_on_c, 1, 38, 0
3, 120988, Note_on_c, 1, 38, 86
3, 121510, Note_on_c, 1, 31, 0
3, 121758, Note_on_c, 1, 38, 0
3, 121921, Note_on_c, 1, 42, 87
3, 122819, Note_on_c, 1, 42, 0
3, 122922, Note_on_c, 1, 43, 98
3, 124437, Note_on_c, 1, 43, 0
3, 124500, Note_on_c, 1, 38, 91
3, 124780, Note_on_c, 1, 38, 0
3, 124859, Note_on_c, 1, 38, 61
3, 125593, Note_on_c, 1, 38, 0
3, 125824, Note_on_c, 1, 38, 98
3, 126153, Note_on_c, 1, 38, 0
3, 126753, Note_on_c, 1, 48, 82
3, 126804, Note_on_c, 1, 36, 72
3, 127583, Note_on_c, 1, 48, 0
3, 128222, Note_on_c, 1, 43, 73
3, 128344, Note_on_c, 1, 43, 0
3, 128567, Note_on_c, 1, 36, 0
3, 128641, Note_on_c, 1, 43, 69
3, 128864, Note_on_c, 1, 43, 0
3, 129598, Note_on_c, 1, 39, 75
3, 130441, Note_on_c, 1, 39, 0
3, 130599, Note_on_c, 1, 41, 81
3, 132174, Note_on_c, 1, 36, 78
3, 132177, Note_on_c, 1, 41, 0
3, 132351, Note_on_c, 1, 36, 0
3, 132476, Note_on_c, 1, 33, 89
3, 133322, Note_on_c, 1, 33, 0
3, 133523, Note_on_c, 1, 33, 100
3, 134440, Note_on_c, 1, 33, 0
3, 134532, Note_on_c, 1, 34, 86
3, 135977, Note_on_c, 1, 34, 0
3, 135977, Note_on_c, 1, 32, 83
3, 136336, Note_on_c, 1, 32, 0
3, 136428, Note_on_c, 1, 41, 86
3, 137386, Note_on_c, 1, 40, 95
3, 137405, Note_on_c, 1, 41, 0
3, 138174, Note_on_c, 1, 40, 0
3, 138343, Note_on_c, 1, 39, 83
3, 139940, Note_on_c, 1, 43, 86
3, 140040, Note_on_c, 1, 43, 0
3, 140182, Note_on_c, 1, 39, 0
3, 140367, Note_on_c, 1, 46, 87
3, 140794, Note_on_c, 1, 46, 0
3, 141332, Note_on_c, 1, 44, 98
3, 142246, Note_on_c, 1, 44, 0
3, 142333, Note_on_c, 1, 45, 93
3, 143718, Note_on_c, 1, 39, 93
3, 143827, Note_on_c, 1, 39, 0
3, 143957, Note_on_c, 1, 45, 0
3, 144118, Note_on_c, 1, 36, 81
3, 145015, Note_on_c, 1, 36, 0
3, 145059, Note_on_c, 1, 37, 91
3, 145986, Note_on_c, 1, 37, 0
3, 146022, Note_on_c, 1, 38, 84
3, 146987, Note_on_c, 1, 52, 49
3, 147341, Note_on_c, 1, 52, 0
3, 147643, Note_on_c, 1, 53, 64
3, 147852, Note_on_c, 1, 53, 0
3, 148034, Note_on_c, 1, 54, 80
3, 148540, Note_on_c, 1, 54, 0
3, 148562, Note_on_c, 1, 38, 0
3, 148845, Note_on_c, 1, 41, 79
3, 149174, Note_on_c, 1, 42, 98
3, 149329, Note_on_c, 1, 41, 0
3, 149892, Note_on_c, 1, 42, 0
3, 149993, Note_on_c, 1, 43, 95
3, 151380, Note_on_c, 1, 37, 83
3, 151410, Note_on_c, 1, 43, 0
3, 151739, Note_on_c, 1, 37, 0
3, 151826, Note_on_c, 1, 38, 77
3, 152267, Note_on_c, 1, 38, 0
3, 152677, Note_on_c, 1, 30, 87
3, 153531, Note_on_c, 1, 30, 0
3, 153703, Note_on_c, 1, 31, 79
3, 155185, Note_on_c, 1, 31, 0
3, 155191, Note_on_c, 1, 37, 83
3, 155411, Note_on_c, 1, 37, 0
3, 155585, Note_on_c, 1, 38, 81
3, 155683, Note_on_c, 1, 38, 0
3, 156145, Note_on_c, 1, 38, 73
3, 156279, Note_on_c, 1, 38, 0
3, 156483, Note_on_c, 1, 35, 84
3, 157451, Note_on_c, 1, 35, 0
3, 157527, Note_on_c, 1, 36, 76
3, 158991, Note_on_c, 1, 43, 73
3, 159211, Note_on_c, 1, 43, 0
3, 159284, Note_on_c, 1, 36, 0
3, 159369, Note_on_c, 1, 48, 89
3, 160065, Note_on_c, 1, 36, 81
3, 160174, Note_on_c, 1, 36, 0
3, 160182, Note_on_c, 1, 48, 0
3, 160348, Note_on_c, 1, 42, 78
3, 161210, Note_on_c, 1, 42, 0
3, 161379, Note_on_c, 1, 41, 80
3, 163024, Note_on_c, 1, 36, 67
3, 163119, Note_on_c, 1, 41, 0
3, 163155, Note_on_c, 1, 36, 0
3, 163364, Note_on_c, 1, 33, 86
3, 164183, Note_on_c, 1, 33, 0
3, 164409, Note_on_c, 1, 33, 101
3, 165279, Note_on_c, 1, 33, 0
3, 165385, Note_on_c, 1, 34, 84
3, 166748, Note_on_c, 1, 32, 75
3, 166998, Note_on_c, 1, 32, 0
3, 167009, Note_on_c, 1, 34, 0
3, 167153, Note_on_c, 1, 38, 86
3, 168747, Note_on_c, 1, 34, 82
3, 168758, Note_on_c, 1, 38, 0
3, 169006, Note_on_c, 1, 34, 0
3, 169152, Note_on_c, 1, 39, 92
3, 170564, Note_on_c, 1, 34, 84
3, 170594, Note_on_c, 1, 39, 0
3, 170678, Note_on_c, 1, 34, 0
3, 170961, Note_on_c, 1, 34, 80
3, 171753, Note_on_c, 1, 34, 0
3, 171905, Note_on_c, 1, 32, 86
3, 172751, Note_on_c, 1, 32, 0
3, 172925, Note_on_c, 1, 33, 84
3, 174299, Note_on_c, 1, 33, 0
3, 174427, Note_on_c, 1, 39, 82
3, 174527, Note_on_c, 1, 39, 0
3, 174903, Note_on_c, 1, 45, 55
3, 175550, Note_on_c, 1, 37, 69
3, 175566, Note_on_c, 1, 45, 0
3, 175670, Note_on_c, 1, 37, 0
3, 175798, Note_on_c, 1, 51, 106
3, 176679, Note_on_c, 1, 51, 0
3, 176823, Note_on_c, 1, 50, 78
3, 178278, Note_on_c, 1, 37, 92
3, 178425, Note_on_c, 1, 50, 0
3, 178556, Note_on_c, 1, 37, 0
3, 178683, Note_on_c, 1, 38, 80
3, 179472, Note_on_c, 1, 38, 0
3, 179491, Note_on_c, 1, 37, 62
3, 179638, Note_on_c, 1, 37, 0
3, 179644, Note_on_c, 1, 45, 89
3, 180489, Note_on_c, 1, 45, 0
3, 180617, Note_on_c, 1, 43, 78
3, 182157, Note_on_c, 1, 37, 78
3, 182244, Note_on_c, 1, 43, 0
3, 182380, Note_on_c, 1, 37, 0
3, 182445, Note_on_c, 1, 38, 82
3, 184017, Note_on_c, 1, 30, 60
3, 184066, Note_on_c, 1, 38, 0
3, 184208, Note_on_c, 1, 30, 0
3, 184281, Note_on_c, 1, 31, 86
3, 185821, Note_on_c, 1, 31, 0
3, 185880, Note_on_c, 1, 38, 82
3, 185976, Note_on_c, 1, 38, 0
3, 186234, Note_on_c, 1, 38, 80
3, 186618, Note_on_c, 1, 38, 0
3, 187259, Note_on_c, 1, 37, 83
3, 188119, Note_on_c, 1, 37, 0
3, 188241, Note_on_c, 1, 38, 79
3, 189775, Note_on_c, 1, 49, 78
3, 190031, Note_on_c, 1, 38, 0
3, 190110, Note_on_c, 1, 49, 0
3, 190137, Note_on_c, 1, 50, 79
3, 190855, Note_on_c, 1, 37, 57
3, 190934, Note_on_c, 1, 50, 0
3, 191008, Note_on_c, 1, 37, 0
3, 191048, Note_on_c, 1, 46, 91
3, 191965, Note_on_c, 1, 46, 0
3, 192098, Note_on_c, 1, 45, 84
3, 193562, Note_on_c, 1, 37, 86
3, 193608, Note_on_c, 1, 45, 0
3, 193883, Note_on_c, 1, 37, 0
3, 193929, Note_on_c, 1, 38, 80
3, 194729, Note_on_c, 1, 38, 0
3, 194878, Note_on_c, 1, 30, 94
3, 195781, Note_on_c, 1, 30, 0
3, 195920, Note_on_c, 1, 31, 92
3, 197310, Note_on_c, 1, 31, 0
3, 197362, Note_on_c, 1, 33, 89
3, 197644, Note_on_c, 1, 33, 0
3, 197751, Note_on_c, 1, 34, 97
3, 199146, Note_on_c, 1, 34, 0
3, 199268, Note_on_c, 1, 36, 93
3, 199470, Note_on_c, 1, 36, 0
3, 199687, Note_on_c, 1, 38, 75
3, 201251, Note_on_c, 1, 34, 80
3, 201335, Note_on_c, 1, 38, 0
3, 201567, Note_on_c, 1, 34, 0
3, 201643, Note_on_c, 1, 43, 68
3, 201945, Note_on_c, 1, 43, 0
3, 202339, Note_on_c, 1, 36, 70
3, 202459, Note_on_c, 1, 36, 0
3, 202647, Note_on_c, 1, 46, 92
3, 203416, Note_on_c, 1, 46, 0
3, 203626, Note_on_c, 1, 41, 89
3, 205165, Note_on_c, 1, 35, 89
3, 205307, Note_on_c, 1, 41, 0
3, 205421, Note_on_c, 1, 35, 0
3, 205581, Note_on_c, 1, 36, 86
3, 206142, Note_on_c, 1, 36, 0
3, 206539, Note_on_c, 1, 36, 95
3, 207219, Note_on_c, 1, 36, 0
3, 207488, Note_on_c, 1, 41, 97
3, 208897, Note_on_c, 1, 36, 89
3, 209096, Note_on_c, 1, 41, 0
3, 209150, Note_on_c, 1, 36, 0
3, 209259, Note_on_c, 1, 29, 98
3, 210205, Note_on_c, 1, 29, 0
3, 210295, Note_on_c, 1, 33, 114
3, 211193, Note_on_c, 1, 33, 0
3, 211274, Note_on_c, 1, 34, 115
3, 212610, Note_on_c, 1, 34, 0
3, 212664, Note_on_c, 1, 36, 95
3, 213110, Note_on_c, 1, 38, 102
3, 213146, Note_on_c, 1, 36, 0
3, 214005, Note_on_c, 1, 38, 0
3, 214035, Note_on_c, 1, 41, 114
3, 214971, Note_on_c, 1, 41, 0
3, 215058, Note_on_c, 1, 39, 92
3, 216546, Note_on_c, 1, 46, 83
3, 216584, Note_on_c, 1, 37, 54
3, 216766, Note_on_c, 1, 46, 0
3, 216872, Note_on_c, 1, 39, 0
3, 216886, Note_on_c, 1, 37, 0
3, 216989, Note_on_c, 1, 51, 91
3, 217519, Note_on_c, 1, 51, 0
3, 217919, Note_on_c, 1, 51, 103
3, 218909, Note_on_c, 1, 51, 0
3, 218937, Note_on_c, 1, 45, 120
3, 220435, Note_on_c, 1, 39, 93
3, 220642, Note_on_c, 1, 45, 0
3, 220797, Note_on_c, 1, 39, 0
3, 220835, Note_on_c, 1, 51, 92
3, 221243, Note_on_c, 1, 51, 0
3, 221765, Note_on_c, 1, 39, 105
3, 222633, Note_on_c, 1, 39, 0
3, 222769, Note_on_c, 1, 38, 93
3, 224175, Note_on_c, 1, 38, 0
3, 224238, Note_on_c, 1, 44, 110
3, 224496, Note_on_c, 1, 44, 0
3, 224695, Note_on_c, 1, 42, 87
3, 224806, Note_on_c, 1, 42, 0
3, 225660, Note_on_c, 1, 42, 102
3, 226452, Note_on_c, 1, 42, 0
3, 226596, Note_on_c, 1, 43, 100
3, 228057, Note_on_c, 1, 42, 84
3, 228098, Note_on_c, 1, 43, 0
3, 228174, Note_on_c, 1, 42, 0
3, 228462, Note_on_c, 1, 42, 80
3, 228914, Note_on_c, 1, 42, 0
3, 229403, Note_on_c, 1, 42, 93
3, 230284, Note_on_c, 1, 42, 0
3, 230442, Note_on_c, 1, 41, 92
3, 231911, Note_on_c, 1, 41, 0
3, 231922, Note_on_c, 1, 39, 86
3, 232210, Note_on_c, 1, 39, 0
3, 232349, Note_on_c, 1, 40, 81
3, 232488, Note_on_c, 1, 40, 0
3, 233276, Note_on_c, 1, 40, 101
3, 234133, Note_on_c, 1, 40, 0
3, 234272, Note_on_c, 1, 39, 92
3, 235711, Note_on_c, 1, 34, 97
3, 235779, Note_on_c, 1, 39, 0
3, 235931, Note_on_c, 1, 34, 0
3, 236143, Note_on_c, 1, 34, 98
3, 237025, Note_on_c, 1, 34, 0
3, 237106, Note_on_c, 1, 32, 86
3, 237917, Note_on_c, 1, 32, 0
3, 238102, Note_on_c, 1, 33, 96
3, 239500, Note_on_c, 1, 33, 0
3, 239562, Note_on_c, 1, 39, 96
3, 239878, Note_on_c, 1, 39, 0
3, 239995, Note_on_c, 1, 38, 87
3, 240860, Note_on_c, 1, 38, 0
3, 240933, Note_on_c, 1, 30, 108
3, 241880, Note_on_c, 1, 30, 0
3, 241956, Note_on_c, 1, 31, 102
3, 243438, Note_on_c, 1, 38, 98
3, 243528, Note_on_c, 1, 38, 0
3, 243868, Note_on_c, 1, 38, 86
3, 244390, Note_on_c, 1, 31, 0
3, 244638, Note_on_c, 1, 38, 0
3, 244801, Note_on_c, 1, 42, 87
3, 245699, Note_on_c, 1, 42, 0
3, 245802, Note_on_c, 1, 43, 98
3, 247317, Note_on_c, 1, 43, 0
3, 247380, Note_on_c, 1, 38, 91
3, 247660, Note_on_c, 1, 38, 0
3, 247739, Note_on_c, 1, 38, 61
3, 248473, Note_on_c, 1, 38, 0
3, 248704, Note_on_c, 1, 38, 98
3, 249033, Note_on_c, 1, 38, 0
3, 249485, Note_on_c, 1, 36, 79
3, 250320, Note_on_c, 1, 34, 77
3, 250323, Note_on_c, 1, 36, 0
3, 250572, Note_on_c, 1, 38, 79
3, 250603, Note_on_c, 1, 34, 0
3, 251518, Note_on_c, 1, 38, 0
3, 251530, Note_on_c, 1, 39, 78
3, 252233, Note_on_c, 1, 37, 61
3, 252538, Note_on_c, 1, 43, 79
3, 252571, Note_on_c, 1, 39, 0
3, 252581, Note_on_c, 1, 37, 0
3, 253243, Note_on_c, 1, 39, 67
3, 253407, Note_on_c, 1, 43, 0
3, 253486, Note_on_c, 1, 50, 77
3, 253685, Note_on_c, 1, 39, 0
3, 254194, Note_on_c, 1, 41, 70
3, 254357, Note_on_c, 1, 41, 0
3, 254424, Note_on_c, 1, 50, 0
3, 254446, Note_on_c, 1, 49, 77
3, 255274, Note_on_c, 1, 49, 0
3, 255387, Note_on_c, 1, 48, 74
3, 256020, Note_on_c, 1, 45, 88
3, 256083, Note_on_c, 1, 48, 0
3, 256275, Note_on_c, 1, 45, 0
3, 256388, Note_on_c, 1, 41, 79
3, 257057, Note_on_c, 1, 39, 70
3, 257192, Note_on_c, 1, 39, 0
3, 257240, Note_on_c, 1, 41, 0
3, 257268, Note_on_c, 1, 46, 83
3, 258291, Note_on_c, 1, 46, 0
3, 258320, Note_on_c, 1, 38, 98
3, 259224, Note_on_c, 1, 38, 0
3, 259260, Note_on_c, 1, 41, 78
3, 260081, Note_on_c, 1, 41, 0
3, 260182, Note_on_c, 1, 38, 78
3, 260907, Note_on_c, 1, 37, 64
3, 261005, Note_on_c, 1, 38, 0
3, 261024, Note_on_c, 1, 37, 0
3, 261130, Note_on_c, 1, 39, 74
3, 262121, Note_on_c, 1, 50, 91
3, 262229, Note_on_c, 1, 39, 0
3, 262834, Note_on_c, 1, 41, 70
3, 262964, Note_on_c, 1, 41, 0
3, 262973, Note_on_c, 1, 50, 0
3, 263076, Note_on_c, 1, 46, 77
3, 263753, Note_on_c, 1, 46, 0
3, 263794, Note_on_c, 1, 39, 80
3, 264022, Note_on_c, 1, 46, 90
3, 264123, Note_on_c, 1, 39, 0
3, 264677, Note_on_c, 1, 39, 73
3, 264792, Note_on_c, 1, 46, 0
3, 264968, Note_on_c, 1, 39, 0
3, 265001, Note_on_c, 1, 45, 78
3, 265846, Note_on_c, 1, 45, 0
3, 265973, Note_on_c, 1, 39, 78
3, 266849, Note_on_c, 1, 39, 0
3, 266924, Note_on_c, 1, 36, 71
3, 267660, Note_on_c, 1, 39, 82
3, 267732, Note_on_c, 1, 36, 0
3, 267900, Note_on_c, 1, 51, 106
3, 267970, Note_on_c, 1, 39, 0
3, 268860, Note_on_c, 1, 51, 0
3, 268882, Note_on_c, 1, 50, 75
3, 269026, Note_on_c, 1, 50, 0
3, 269499, Note_on_c, 1, 50, 94
3, 269672, Note_on_c, 1, 50, 0
3, 269849, Note_on_c, 1, 45, 82
3, 270776, Note_on_c, 1, 45, 0
3, 270857, Note_on_c, 1, 42, 79
3, 271637, Note_on_c, 1, 42, 0
3, 271712, Note_on_c, 1, 38, 78
3, 272388, Note_on_c, 1, 42, 81
3, 272391, Note_on_c, 1, 38, 0
3, 272614, Note_on_c, 1, 42, 0
3, 272710, Note_on_c, 1, 43, 82
3, 273536, Note_on_c, 1, 43, 0
3, 273622, Note_on_c, 1, 37, 79
3, 274368, Note_on_c, 1, 34, 66
3, 274500, Note_on_c, 1, 34, 0
3, 274515, Note_on_c, 1, 37, 0
3, 274611, Note_on_c, 1, 38, 76
3, 275523, Note_on_c, 1, 38, 0
3, 275525, Note_on_c, 1, 33, 80
3, 276454, Note_on_c, 1, 33, 0
3, 276548, Note_on_c, 1, 31, 79
3, 277412, Note_on_c, 1, 31, 0
3, 277498, Note_on_c, 1, 38, 83
3, 278508, Note_on_c, 1, 34, 79
3, 278516, Note_on_c, 1, 38, 0
3, 278590, Note_on_c, 1, 34, 0
3, 279144, Note_on_c, 1, 34, 88
3, 279382, Note_on_c, 1, 34, 0
3, 279437, Note_on_c, 1, 35, 87
3, 280366, Note_on_c, 1, 35, 0
3, 280380, Note_on_c, 1, 36, 80
3, 281103, Note_on_c, 1, 34, 80
3, 281194, Note_on_c, 1, 36, 0
3, 281369, Note_on_c, 1, 34, 0
3, 281417, Note_on_c, 1, 43, 72
3, 282190, Note_on_c, 1, 43, 0
3, 282219, Note_on_c, 1, 40, 56
3, 282339, Note_on_c, 1, 40, 0
3, 282404, Note_on_c, 1, 50, 76
3, 283061, Note_on_c, 1, 42, 68
3, 283150, Note_on_c, 1, 42, 0
3, 283253, Note_on_c, 1, 50, 0
3, 283280, Note_on_c, 1, 49, 82
3, 283892, Note_on_c, 1, 44, 68
3, 284148, Note_on_c, 1, 49, 0
3, 284168, Note_on_c, 1, 44, 0
3, 284230, Note_on_c, 1, 48, 83
3, 284933, Note_on_c, 1, 39, 46
3, 285046, Note_on_c, 1, 48, 0
3, 285060, Note_on_c, 1, 39, 0
3, 285161, Note_on_c, 1, 46, 78
3, 285816, Note_on_c, 1, 41, 63
3, 285936, Note_on_c, 1, 41, 0
3, 285994, Note_on_c, 1, 46, 0
3, 286155, Note_on_c, 1, 45, 70
3, 286697, Note_on_c, 1, 45, 0
3, 286738, Note_on_c, 1, 41, 95
3, 286848, Note_on_c, 1, 41, 0
3, 287040, Note_on_c, 1, 41, 90
3, 287825, Note_on_c, 1, 41, 0
3, 288003, Note_on_c, 1, 38, 79
3, 288694, Note_on_c, 1, 43, 78
3, 288720, Note_on_c, 1, 38, 0
3, 288795, Note_on_c, 1, 43, 0
3, 288994, Note_on_c, 1, 50, 97
3, 289892, Note_on_c, 1, 50, 0
3, 289973, Note_on_c, 1, 46, 74
3, 290520, Note_on_c, 1, 46, 0
3, 290621, Note_on_c, 1, 43, 76
3, 290729, Note_on_c, 1, 43, 0
3, 290928, Note_on_c, 1, 38, 79
3, 291816, Note_on_c, 1, 38, 0
3, 291872, Note_on_c, 1, 39, 71
3, 292529, Note_on_c, 1, 37, 77
3, 292728, Note_on_c, 1, 39, 0
3, 292798, Note_on_c, 1, 37, 0
3, 292829, Note_on_c, 1, 41, 71
3, 293458, Note_on_c, 1, 39, 58
3, 293588, Note_on_c, 1, 41, 0
3, 293597, Note_on_c, 1, 39, 0
3, 293799, Note_on_c, 1, 43, 85
3, 294444, Note_on_c, 1, 39, 73
3, 294456, Note_on_c, 1, 43, 0
3, 294660, Note_on_c, 1, 39, 0
3, 294696, Note_on_c, 1, 46, 85
3, 295342, Note_on_c, 1, 39, 67
3, 295426, Note_on_c, 1, 39, 0
3, 296184, Note_on_c, 1, 45, 83
3, 296264, Note_on_c, 1, 45, 0
3, 296264, Note_on_c, 1, 46, 0
3, 296518, Note_on_c, 1, 39, 90
3, 297543, Note_on_c, 1, 39, 0
3, 297615, Note_on_c, 1, 36, 76
3, 298500, Note_on_c, 1, 36, 0
3, 298548, Note_on_c, 1, 33, 77
3, 299196, Note_on_c, 1, 34, 80
3, 299386, Note_on_c, 1, 33, 0
3, 299492, Note_on_c, 1, 34, 0
3, 299580, Note_on_c, 1, 38, 76
3, 300324, Note_on_c, 1, 34, 72
3, 300584, Note_on_c, 1, 34, 0
3, 300627, Note_on_c, 1, 52, 81
3, 301395, Note_on_c, 1, 38, 0
3, 301594, Note_on_c, 1, 54, 85
3, 301630, Note_on_c, 1, 52, 0
3, 302196, Note_on_c, 1, 39, 69
3, 302199, Note_on_c, 1, 54, 0
3, 302513, Note_on_c, 1, 39, 0
3, 302530, Note_on_c, 1, 42, 74
3, 303245, Note_on_c, 1, 39, 64
3, 303408, Note_on_c, 1, 39, 0
3, 303420, Note_on_c, 1, 42, 0
3, 303492, Note_on_c, 1, 43, 73
3, 304419, Note_on_c, 1, 50, 110
3, 304520, Note_on_c, 1, 43, 0
3, 305009, Note_on_c, 1, 51, 77
3, 305086, Note_on_c, 1, 51, 0
3, 305096, Note_on_c, 1, 38, 71
3, 305273, Note_on_c, 1, 38, 0
3, 305283, Note_on_c, 1, 46, 58
3, 305302, Note_on_c, 1, 50, 0
3, 306012, Note_on_c, 1, 38, 78
3, 306027, Note_on_c, 1, 46, 0
3, 306147, Note_on_c, 1, 38, 0
3, 306257, Note_on_c, 1, 43, 81
3, 307054, Note_on_c, 1, 43, 0
3, 307232, Note_on_c, 1, 38, 77
3, 308057, Note_on_c, 1, 38, 0
3, 308127, Note_on_c, 1, 32, 96
3, 309060, Note_on_c, 1, 32, 0
3, 309108, Note_on_c, 1, 31, 88
3, 309958, Note_on_c, 1, 31, 0
3, 310052, Note_on_c, 1, 32, 105
3, 310940, Note_on_c, 1, 32, 0
3, 311033, Note_on_c, 1, 33, 88
3, 311892, Note_on_c, 1, 33, 0
3, 312003, Note_on_c, 1, 39, 89
3, 312785, Note_on_c, 1, 39, 0
3, 312963, Note_on_c, 1, 38, 94
3, 313685, Note_on_c, 1, 34, 77
3, 313896, Note_on_c, 1, 38, 0
3, 313913, Note_on_c, 1, 50, 110
3, 313959, Note_on_c, 1, 34, 0
3, 314537, Note_on_c, 1, 37, 53
3, 314686, Note_on_c, 1, 37, 0
3, 315548, Note_on_c, 1, 37, 85
3, 315682, Note_on_c, 1, 50, 0
3, 315905, Note_on_c, 1, 38, 85
3, 315924, Note_on_c, 1, 37, 0
3, 317436, Note_on_c, 1, 37, 79
3, 317588, Note_on_c, 1, 50, 127
3, 317638, Note_on_c, 1, 38, 0
3, 317681, Note_on_c, 1, 37, 0
3, 318756, Note_on_c, 1, 37, 47
3, 318876, Note_on_c, 1, 37, 0
3, 319342, Note_on_c, 1, 38, 96
3, 319556, Note_on_c, 1, 50, 0
3, 319784, Note_on_c, 1, 49, 74
3, 320189, Note_on_c, 1, 49, 0
3, 321334, Note_on_c, 1, 50, 118
3, 321636, Note_on_c, 1, 38, 0
3, 323201, Note_on_c, 1, 38, 105
3, 323393, Note_on_c, 1, 50, 0
3, 323396, Note_on_c, 1, 38, 0
3, 323554, Note_on_c, 1, 49, 78
3, 324094, Note_on_c, 1, 49, 0
3, 324221, Note_on_c, 1, 50, 100
3, 324953, Note_on_c, 1, 50, 0
3, 325143, Note_on_c, 1, 46, 88
3, 325383, Note_on_c, 1, 46, 0
3, 325455, Note_on_c, 1, 47, 83
3, 326302, Note_on_c, 1, 47, 0
3, 326456, Note_on_c, 1, 48, 81
3, 327284, Note_on_c, 1, 48, 0
3, 327356, Note_on_c, 1, 42, 81
3, 328126, Note_on_c, 1, 39, 61
3, 328256, Note_on_c, 1, 42, 0
3, 328258, Note_on_c, 1, 39, 0
3, 328366, Note_on_c, 1, 43, 75
3, 329028, Note_on_c, 1, 43, 0
3, 329079, Note_on_c, 1, 39, 70
3, 329240, Note_on_c, 1, 39, 0
3, 329316, Note_on_c, 1, 42, 67
3, 330039, Note_on_c, 1, 39, 62
3, 330082, Note_on_c, 1, 42, 0
3, 330149, Note_on_c, 1, 39, 0
3, 330296, Note_on_c, 1, 41, 71
3, 331155, Note_on_c, 1, 41, 0
3, 331196, Note_on_c, 1, 36, 75
3, 332156, Note_on_c, 1, 36, 0
3, 332196, Note_on_c, 1, 33, 72
3, 333020, Note_on_c, 1, 33, 0
3, 333068, Note_on_c, 1, 36, 73
3, 333771, Note_on_c, 1, 36, 0
3, 333773, Note_on_c, 1, 33, 71
3, 333994, Note_on_c, 1, 33, 0
3, 334095, Note_on_c, 1, 34, 71
3, 334743, Note_on_c, 1, 32, 64
3, 334877, Note_on_c, 1, 34, 0
3, 334882, Note_on_c, 1, 32, 0
3, 334964, Note_on_c, 1, 36, 76
3, 335688, Note_on_c, 1, 34, 73
3, 335698, Note_on_c, 1, 36, 0
3, 335998, Note_on_c, 1, 34, 0
3, 336029, Note_on_c, 1, 38, 71
3, 336653, Note_on_c, 1, 38, 0
3, 336694, Note_on_c, 1, 34, 74
3, 336843, Note_on_c, 1, 34, 0
3, 336960, Note_on_c, 1, 41, 83
3, 337688, Note_on_c, 1, 41, 0
3, 337731, Note_on_c, 1, 38, 65
3, 337841, Note_on_c, 1, 38, 0
3, 337916, Note_on_c, 1, 39, 79
3, 338775, Note_on_c, 1, 39, 0
3, 338832, Note_on_c, 1, 43, 88
3, 339540, Note_on_c, 1, 39, 78
3, 339716, Note_on_c, 1, 43, 0
3, 339764, Note_on_c, 1, 51, 107
3, 339778, Note_on_c, 1, 39, 0
3, 340616, Note_on_c, 1, 51, 0
3, 340690, Note_on_c, 1, 46, 72
3, 341417, Note_on_c, 1, 44, 72
3, 341446, Note_on_c, 1, 46, 0
3, 341532, Note_on_c, 1, 44, 0
3, 341720, Note_on_c, 1, 45, 62
3, 342526, Note_on_c, 1, 45, 0
3, 342572, Note_on_c, 1, 51, 104
3, 344028, Note_on_c, 1, 51, 0
3, 344048, Note_on_c, 1, 48, 78
3, 344134, Note_on_c, 1, 48, 0
3, 344309, Note_on_c, 1, 40, 93
3, 344583, Note_on_c, 1, 40, 0
3, 344652, Note_on_c, 1, 37, 93
3, 345495, Note_on_c, 1, 37, 0
3, 345552, Note_on_c, 1, 38, 88
3, 346325, Note_on_c, 1, 37, 61
3, 346452, Note_on_c, 1, 37, 0
3, 346479, Note_on_c, 1, 38, 0
3, 346503, Note_on_c, 1, 40, 82
3, 347225, Note_on_c, 1, 40, 0
3, 347225, Note_on_c, 1, 39, 78
3, 347518, Note_on_c, 1, 41, 80
3, 347542, Note_on_c, 1, 39, 0
3, 348212, Note_on_c, 1, 39, 67
3, 348226, Note_on_c, 1, 41, 0
3, 348459, Note_on_c, 1, 39, 0
3, 348459, Note_on_c, 1, 42, 78
3, 349263, Note_on_c, 1, 39, 58
3, 349364, Note_on_c, 1, 42, 0
3, 349409, Note_on_c, 1, 39, 0
3, 349469, Note_on_c, 1, 43, 79
3, 350225, Note_on_c, 1, 39, 63
3, 350362, Note_on_c, 1, 43, 0
3, 350427, Note_on_c, 1, 50, 84
3, 350559, Note_on_c, 1, 39, 0
3, 351128, Note_on_c, 1, 42, 47
3, 351269, Note_on_c, 1, 42, 0
3, 351399, Note_on_c, 1, 50, 0
3, 351452, Note_on_c, 1, 48, 68
3, 352148, Note_on_c, 1, 39, 74
3, 352181, Note_on_c, 1, 48, 0
3, 352397, Note_on_c, 1, 42, 76
3, 352472, Note_on_c, 1, 39, 0
3, 353122, Note_on_c, 1, 39, 61
3, 353199, Note_on_c, 1, 42, 0
3, 353237, Note_on_c, 1, 39, 0
3, 353331, Note_on_c, 1, 41, 75
3, 354152, Note_on_c, 1, 41, 0
3, 354262, Note_on_c, 1, 36, 81
3, 355244, Note_on_c, 1, 36, 0
3, 355256, Note_on_c, 1, 34, 79
3, 355995, Note_on_c, 1, 37, 49
3, 356120, Note_on_c, 1, 34, 0
3, 356156, Note_on_c, 1, 38, 89
3, 356163, Note_on_c, 1, 37, 0
3, 357137, Note_on_c, 1, 39, 77
3, 357260, Note_on_c, 1, 38, 0
3, 357855, Note_on_c, 1, 37, 65
3, 358020, Note_on_c, 1, 39, 0
3, 358112, Note_on_c, 1, 46, 83
3, 358126, Note_on_c, 1, 37, 0
3, 358709, Note_on_c, 1, 39, 66
3, 358863, Note_on_c, 1, 39, 0
3, 358983, Note_on_c, 1, 46, 0
3, 359110, Note_on_c, 1, 51, 84
3, 359772, Note_on_c, 1, 39, 75
3, 359895, Note_on_c, 1, 51, 0
3, 360029, Note_on_c, 1, 46, 80
3, 360046, Note_on_c, 1, 39, 0
3, 360680, Note_on_c, 1, 39, 72
3, 360929, Note_on_c, 1, 39, 0
3, 360941, Note_on_c, 1, 45, 79
3, 360953, Note_on_c, 1, 46, 0
3, 361716, Note_on_c, 1, 39, 75
3, 361824, Note_on_c, 1, 45, 0
3, 361923, Note_on_c, 1, 51, 93
3, 362016, Note_on_c, 1, 39, 0
3, 362806, Note_on_c, 1, 51, 0
3, 362866, Note_on_c, 1, 50, 83
3, 363785, Note_on_c, 1, 50, 0
3, 363836, Note_on_c, 1, 42, 76
3, 364716, Note_on_c, 1, 42, 0
3, 364853, Note_on_c, 1, 43, 71
3, 365660, Note_on_c, 1, 43, 0
3, 365799, Note_on_c, 1, 37, 79
3, 366684, Note_on_c, 1, 37, 0
3, 366833, Note_on_c, 1, 38, 67
3, 367596, Note_on_c, 1, 38, 0
3, 367719, Note_on_c, 1, 30, 79
3, 368424, Note_on_c, 1, 30, 0
3, 368427, Note_on_c, 1, 31, 103
3, 370368, Note_on_c, 1, 30, 61
3, 370493, Note_on_c, 1, 30, 0
3, 370565, Note_on_c, 1, 31, 0
3, 370570, Note_on_c, 1, 34, 84
3, 371972, Note_on_c, 1, 34, 0
3, 372125, Note_on_c, 1, 31, 53
3, 372245, Note_on_c, 1, 31, 0
3, 372416, Note_on_c, 1, 36, 79
3, 372564, Note_on_c, 1, 36, 72
3, 373982, Note_on_c, 1, 43, 73
3, 374104, Note_on_c, 1, 43, 0
3, 374290, Note_on_c, 1, 36, 0
3, 374327, Note_on_c, 1, 36, 0
3, 374401, Note_on_c, 1, 43, 69
3, 374624, Note_on_c, 1, 43, 0
3, 375358, Note_on_c, 1, 39, 75
3, 376201, Note_on_c, 1, 39, 0
3, 376359, Note_on_c, 1, 41, 81
3, 377934, Note_on_c, 1, 36, 78
3, 377937, Note_on_c, 1, 41, 0
3, 378111, Note_on_c, 1, 36, 0
3, 378236, Note_on_c, 1, 33, 89
3, 379082, Note_on_c, 1, 33, 0
3, 379283, Note_on_c, 1, 33, 100
3, 380200, Note_on_c, 1, 33, 0
3, 380292, Note_on_c, 1, 34, 86
3, 381737, Note_on_c, 1, 34, 0
3, 381737, Note_on_c, 1, 32, 83
3, 382096, Note_on_c, 1, 32, 0
3, 382188, Note_on_c, 1, 41, 86
3, 383146, Note_on_c, 1, 40, 95
3, 383165, Note_on_c, 1, 41, 0
3, 383934, Note_on_c, 1, 40, 0
3, 384103, Note_on_c, 1, 39, 83
3, 385700, Note_on_c, 1, 43, 86
3, 385800, Note_on_c, 1, 43, 0
3, 385942, Note_on_c, 1, 39, 0
3, 386127, Note_on_c, 1, 46, 87
3, 386554, Note_on_c, 1, 46, 0
3, 387092, Note_on_c, 1, 44, 98
3, 388006, Note_on_c, 1, 44, 0
3, 388093, Note_on_c, 1, 45, 93
3, 389478, Note_on_c, 1, 39, 93
3, 389587, Note_on_c, 1, 39, 0
3, 389717, Note_on_c, 1, 45, 0
3, 389878, Note_on_c, 1, 36, 81
3, 390775, Note_on_c, 1, 36, 0
3, 390819, Note_on_c, 1, 37, 91
3, 391746, Note_on_c, 1, 37, 0
3, 391782, Note_on_c, 1, 38, 84
3, 392747, Note_on_c, 1, 52, 49
3, 393101, Note_on_c, 1, 52, 0
3, 393403, Note_on_c, 1, 53, 64
3, 393612, Note_on_c, 1, 53, 0
3, 393794, Note_on_c, 1, 54, 80
3, 394300, Note_on_c, 1, 54, 0
3, 394322, Note_on_c, 1, 38, 0
3, 394605, Note_on_c, 1, 41, 79
3, 394934, Note_on_c, 1, 42, 98
3, 395089, Note_on_c, 1, 41, 0
3, 395652, Note_on_c, 1, 42, 0
3, 395753, Note_on_c, 1, 43, 95
3, 397140, Note_on_c, 1, 37, 83
3, 397170, Note_on_c, 1, 43, 0
3, 397499, Note_on_c, 1, 37, 0
3, 397586, Note_on_c, 1, 38, 77
3, 398027, Note_on_c, 1, 38, 0
3, 398437, Note_on_c, 1, 30, 87
3, 399291, Note_on_c, 1, 30, 0
3, 399463, Note_on_c, 1, 31, 79
3, 400945, Note_on_c, 1, 31, 0
3, 400951, Note_on_c, 1, 37, 83
3, 401171, Note_on_c, 1, 37, 0
3, 401345, Note_on_c, 1, 38, 81
3, 401443, Note_on_c, 1, 38, 0
3, 401905, Note_on_c, 1, 38, 73
3, 402039, Note_on_c, 1, 38, 0
3, 402243, Note_on_c, 1, 35, 84
3, 403211, Note_on_c, 1, 35, 0
3, 403287, Note_on_c, 1, 36, 76
3, 404751, Note_on_c, 1, 43, 73
3, 404971, Note_on_c, 1, 43, 0
3, 405044, Note_on_c, 1, 36, 0
3, 405129, Note_on_c, 1, 48, 89
3, 405825, Note_on_c, 1, 36, 81
3, 405934, Note_on_c, 1, 36, 0
3, 405942, Note_on_c, 1, 48, 0
3, 406108, Note_on_c, 1, 42, 78
3, 406970, Note_on_c, 1, 42, 0
3, 407139, Note_on_c, 1, 41, 80
3, 408784, Note_on_c, 1, 36, 67
3, 408879, Note_on_c, 1, 41, 0
3, 408915, Note_on_c, 1, 36, 0
3, 409124, Note_on_c, 1, 33, 86
3, 409943, Note_on_c, 1, 33, 0
3, 410169, Note_on_c, 1, 33, 101
3, 411039, Note_on_c, 1, 33, 0
3, 411145, Note_on_c, 1, 34, 84
3, 412508, Note_on_c, 1, 32, 75
3, 412758, Note_on_c, 1, 32, 0
3, 412769, Note_on_c, 1, 34, 0
3, 412913, Note_on_c, 1, 38, 86
3, 414507, Note_on_c, 1, 34, 82
3, 414518, Note_on_c, 1, 38, 0
3, 414766, Note_on_c, 1, 34, 0
3, 414912, Note_on_c, 1, 39, 92
3, 416324, Note_on_c, 1, 34, 84
3, 416354, Note_on_c, 1, 39, 0
3, 416438, Note_on_c, 1, 34, 0
3, 416721, Note_on_c, 1, 34, 80
3, 417513, Note_on_c, 1, 34, 0
3, 417665, Note_on_c, 1, 32, 86
3, 418511, Note_on_c, 1, 32, 0
3, 418685, Note_on_c, 1, 33, 84
3, 420059, Note_on_c, 1, 33, 0
3, 420187, Note_on_c, 1, 39, 82
3, 420287, Note_on_c, 1, 39, 0
3, 420663, Note_on_c, 1, 45, 55
3, 421310, Note_on_c, 1, 37, 69
3, 421326, Note_on_c, 1, 45, 0
3, 421430, Note_on_c, 1, 37, 0
3, 421558, Note_on_c, 1, 51, 106
3, 422439, Note_on_c, 1, 51, 0
3, 422583, Note_on_c, 1, 50, 78
3, 424038, Note_on_c, 1, 37, 92
3, 424185, Note_on_c, 1, 50, 0
3, 424316, Note_on_c, 1, 37, 0
3, 424443, Note_on_c, 1, 38, 80
3, 425232, Note_on_c, 1, 38, 0
3, 425251, Note_on_c, 1, 37, 62
3, 425398, Note_on_c, 1, 37, 0
3, 425404, Note_on_c, 1, 45, 89
3, 426249, Note_on_c, 1, 45, 0
3, 426377, Note_on_c, 1, 43, 78
3, 427917, Note_on_c, 1, 37, 78
3, 428004, Note_on_c, 1, 43, 0
3, 428140, Note_on_c, 1, 37, 0
3, 428205, Note_on_c, 1, 38, 82
3, 429777, Note_on_c, 1, 30, 60
3, 429826, Note_on_c, 1, 38, 0
3, 429968, Note_on_c, 1, 30, 0
3, 430041, Note_on_c, 1, 31, 86
3, 431581, Note_on_c, 1, 31, 0
3, 431640, Note_on_c, 1, 38, 82
3, 431736, Note_on_c, 1, 38, 0
3, 431994, Note_on_c, 1, 38, 80
3, 432378, Note_on_c, 1, 38, 0
3, 433019, Note_on_c, 1, 37, 83
3, 433879, Note_on_c, 1, 37, 0
3, 434001, Note_on_c, 1, 38, 79
3, 435535, Note_on_c, 1, 49, 78
3, 435791, Note_on_c, 1, 38, 0
3, 435870, Note_on_c, 1, 49, 0
3, 435897, Note_on_c, 1, 50, 79
3, 436615, Note_on_c, 1, 37, 57
3, 436694, Note_on_c, 1, 50, 0
3, 436768, Note_on_c, 1, 37, 0
3, 436808, Note_on_c, 1, 46, 91
3, 437725, Note_on_c, 1, 46, 0
3, 437858, Note_on_c, 1, 45, 84
3, 439322, Note_on_c, 1, 37, 86
3, 439368, Note_on_c, 1, 45, 0
3, 439643, Note_on_c, 1, 37, 0
3, 439689, Note_on_c, 1, 38, 80
3, 440489, Note_on_c, 1, 38, 0
3, 440638, Note_on_c, 1, 30, 94
3, 441541, Note_on_c, 1, 30, 0
3, 441680, Note_on_c, 1, 31, 92
3, 443070, Note_on_c, 1, 31, 0
3, 443122, Note_on_c, 1, 33, 89
3, 443404, Note_on_c, 1, 33, 0
3, 443511, Note_on_c, 1, 34, 97
3, 444906, Note_on_c, 1, 34, 0
3, 445028, Note_on_c, 1, 36, 93
3, 445230, Note_on_c, 1, 36, 0
3, 445447, Note_on_c, 1, 38, 75
3, 447011, Note_on_c, 1, 34, 80
3, 447095, Note_on_c, 1, 38, 0
3, 447327, Note_on_c, 1, 34, 0
3, 447403, Note_on_c, 1, 43, 68
3, 447705, Note_on_c, 1, 43, 0
3, 448099, Note_on_c, 1, 36, 70
3, 448219, Note_on_c, 1, 36, 0
3, 448407, Note_on_c, 1, 46, 92
3, 449176, Note_on_c, 1, 46, 0
3, 449386, Note_on_c, 1, 41, 89
3, 450925, Note_on_c, 1, 35, 89
3, 451067, Note_on_c, 1, 41, 0
3, 451181, Note_on_c, 1, 35, 0
3, 451341, Note_on_c, 1, 36, 86
3, 451902, Note_on_c, 1, 36, 0
3, 452299, Note_on_c, 1, 36, 95
3, 452979, Note_on_c, 1, 36, 0
3, 453248, Note_on_c, 1, 41, 97
3, 454657, Note_on_c, 1, 36, 89
3, 454856, Note_on_c, 1, 41, 0
3, 454910, Note_on_c, 1, 36, 0
3, 455019, Note_on_c, 1, 29, 98
3, 455965, Note_on_c, 1, 29, 0
3, 456055, Note_on_c, 1, 33, 114
3, 456953, Note_on_c, 1, 33, 0
3, 457034, Note_on_c, 1, 34, 115
3, 458370, Note_on_c, 1, 34, 0
3, 458424, Note_on_c, 1, 36, 95
3, 458870, Note_on_c, 1, 38, 102
3, 458906, Note_on_c, 1, 36, 0
3, 459765, Note_on_c, 1, 38, 0
3, 459795, Note_on_c, 1, 41, 114
3, 460731, Note_on_c, 1, 41, 0
3, 460818, Note_on_c, 1, 39, 92
3, 462306, Note_on_c, 1, 46, 83
3, 462344, Note_on_c, 1, 37, 54
3, 462526, Note_on_c, 1, 46, 0
3, 462632, Note_on_c, 1, 39, 0
3, 462646, Note_on_c, 1, 37, 0
3, 462749, Note_on_c, 1, 51, 91
3, 463279, Note_on_c, 1, 51, 0
3, 463679, Note_on_c, 1, 51, 103
3, 464669, Note_on_c, 1, 51, 0
3, 464697, Note_on_c, 1, 45, 120
3, 466195, Note_on_c, 1, 39, 93
3, 466402, Note_on_c, 1, 45, 0
3, 466557, Note_on_c, 1, 39, 0
3, 466595, Note_on_c, 1, 51, 92
3, 467003, Note_on_c, 1, 51, 0
3, 467525, Note_on_c, 1, 39, 105
3, 468393, Note_on_c, 1, 39, 0
3, 468529, Note_on_c, 1, 38, 93
3, 469935, Note_on_c, 1, 38, 0
3, 469998, Note_on_c, 1, 44, 110
3, 470256, Note_on_c, 1, 44, 0
3, 470455, Note_on_c, 1, 42, 87
3, 470566, Note_on_c, 1, 42, 0
3, 471420, Note_on_c, 1, 42, 102
3, 472212, Note_on_c, 1, 42, 0
3, 472356, Note_on_c, 1, 43, 100
3, 473817, Note_on_c, 1, 42, 84
3, 473858, Note_on_c, 1, 43, 0
3, 473934, Note_on_c, 1, 42, 0
3, 474222, Note_on_c, 1, 42, 80
3, 474674, Note_on_c, 1, 42, 0
3, 475163, Note_on_c, 1, 42, 93
3, 476044, Note_on_c, 1, 42, 0
3, 476202, Note_on_c, 1, 41, 92
3, 477671, Note_on_c, 1, 41, 0
3, 477682, Note_on_c, 1, 39, 86
3, 477970, Note_on_c, 1, 39, 0
3, 478109, Note_on_c, 1, 40, 81
3, 478248, Note_on_c, 1, 40, 0
3, 479036, Note_on_c, 1, 40, 101
3, 479893, Note_on_c, 1, 40, 0
3, 480032, Note_on_c, 1, 39, 92
3, 481471, Note_on_c, 1, 34, 97
3, 481539, Note_on_c, 1, 39, 0
3, 481691, Note_on_c, 1, 34, 0
3, 481903, Note_on_c, 1, 34, 98
3, 482785, Note_on_c, 1, 34, 0
3, 482866, Note_on_c, 1, 32, 86
3, 483677, Note_on_c, 1, 32, 0
3, 483862, Note_on_c, 1, 33, 96
3, 485260, Note_on_c, 1, 33, 0
3, 485322, Note_on_c, 1, 39, 96
3, 485638, Note_on_c, 1, 39, 0
3, 485755, Note_on_c, 1, 38, 87
3, 486620, Note_on_c, 1, 38, 0
3, 486693, Note_on_c, 1, 30, 108
3, 487640, Note_on_c, 1, 30, 0
3, 487716, Note_on_c, 1, 31, 102
3, 489198, Note_on_c, 1, 38, 98
3, 489288, Note_on_c, 1, 38, 0
3, 489628, Note_on_c, 1, 38, 86
3, 490150, Note_on_c, 1, 31, 0
3, 490398, Note_on_c, 1, 38, 0
3, 490561, Note_on_c, 1, 42, 87
3, 491459, Note_on_c, 1, 42, 0
3, 491562, Note_on_c, 1, 43, 98
3, 493077, Note_on_c, 1, 43, 0
3, 493140, Note_on_c, 1, 38, 91
3, 493420, Note_on_c, 1, 38, 0
3, 493499, Note_on_c, 1, 38, 61
3, 494233, Note_on_c, 1, 38, 0
3, 494464, Note_on_c, 1, 38, 98
3, 494793, Note_on_c, 1, 38, 0
3, 495022, Note_on_c, 1, 36, 86
3, 495264, Note_on_c, 1, 36, 0
3, 495336, Note_on_c, 1, 48, 92
3, 496016, Note_on_c, 1, 36, 72
3, 496116, Note_on_c, 1, 36, 0
3, 496136, Note_on_c, 1, 48, 0
3, 496282, Note_on_c, 1, 43, 77
3, 496992, Note_on_c, 1, 36, 76
3, 497117, Note_on_c, 1, 36, 0
3, 497184, Note_on_c, 1, 43, 0
3, 497292, Note_on_c, 1, 46, 85
3, 498003, Note_on_c, 1, 46, 0
3, 498173, Note_on_c, 1, 42, 82
3, 498932, Note_on_c, 1, 39, 65
3, 499083, Note_on_c, 1, 42, 0
3, 499097, Note_on_c, 1, 39, 0
3, 499184, Note_on_c, 1, 41, 63
3, 500009, Note_on_c, 1, 39, 63
3, 500141, Note_on_c, 1, 41, 0
3, 500158, Note_on_c, 1, 53, 88
3, 500168, Note_on_c, 1, 39, 0
3, 500945, Note_on_c, 1, 53, 0
3, 500960, Note_on_c, 1, 41, 57
3, 501082, Note_on_c, 1, 51, 80
3, 501087, Note_on_c, 1, 41, 0
3, 501893, Note_on_c, 1, 41, 62
3, 501910, Note_on_c, 1, 51, 0
3, 502008, Note_on_c, 1, 41, 0
3, 502059, Note_on_c, 1, 49, 77
3, 502832, Note_on_c, 1, 41, 63
3, 502952, Note_on_c, 1, 41, 0
3, 503038, Note_on_c, 1, 49, 0
3, 503110, Note_on_c, 1, 50, 82
3, 503136, Note_on_c, 1, 51, 77
3, 503223, Note_on_c, 1, 51, 0
3, 503832, Note_on_c, 1, 41, 64
3, 503950, Note_on_c, 1, 41, 0
3, 504024, Note_on_c, 1, 50, 0
3, 504068, Note_on_c, 1, 45, 77
3, 504780, Note_on_c, 1, 41, 61
3, 504898, Note_on_c, 1, 45, 0
3, 504915, Note_on_c, 1, 41, 0
3, 505011, Note_on_c, 1, 48, 79
3, 505114, Note_on_c, 1, 47, 63
3, 505215, Note_on_c, 1, 47, 0
3, 505635, Note_on_c, 1, 49, 45
3, 505649, Note_on_c, 1, 46, 100
3, 505769, Note_on_c, 1, 48, 0
3, 505793, Note_on_c, 1, 49, 0
3, 505868, Note_on_c, 1, 46, 0
3, 505990, Note_on_c, 1, 38, 90
3, 506914, Note_on_c, 1, 38, 0
3, 506955, Note_on_c, 1, 39, 82
3, 507850, Note_on_c, 1, 41, 79
3, 507857, Note_on_c, 1, 39, 0
3, 508548, Note_on_c, 1, 39, 70
3, 508652, Note_on_c, 1, 41, 0
3, 508678, Note_on_c, 1, 39, 0
3, 508839, Note_on_c, 1, 43, 86
3, 509530, Note_on_c, 1, 39, 80
3, 509614, Note_on_c, 1, 43, 0
3, 509782, Note_on_c, 1, 44, 92
3, 509828, Note_on_c, 1, 39, 0
3, 510449, Note_on_c, 1, 39, 54
3, 510610, Note_on_c, 1, 39, 0
3, 510656, Note_on_c, 1, 44, 0
3, 510812, Note_on_c, 1, 45, 55
3, 510850, Note_on_c, 1, 47, 58
3, 511373, Note_on_c, 1, 47, 0
3, 511462, Note_on_c, 1, 39, 70
3, 511488, Note_on_c, 1, 45, 0
3, 511688, Note_on_c, 1, 39, 0
3, 511724, Note_on_c, 1, 51, 97
3, 512388, Note_on_c, 1, 39, 65
3, 512511, Note_on_c, 1, 39, 0
3, 512612, Note_on_c, 1, 51, 0
3, 512720, Note_on_c, 1, 48, 70
3, 513346, Note_on_c, 1, 45, 73
3, 513358, Note_on_c, 1, 48, 0
3, 513454, Note_on_c, 1, 45, 0
3, 513648, Note_on_c, 1, 37, 88
3, 514592, Note_on_c, 1, 37, 0
3, 514596, Note_on_c, 1, 38, 85
3, 515302, Note_on_c, 1, 37, 72
3, 515381, Note_on_c, 1, 38, 0
3, 515540, Note_on_c, 1, 40, 82
3, 515549, Note_on_c, 1, 37, 0
3, 516260, Note_on_c, 1, 37, 66
3, 516353, Note_on_c, 1, 40, 0
3, 516416, Note_on_c, 1, 37, 0
3, 516531, Note_on_c, 1, 41, 78
3, 517160, Note_on_c, 1, 37, 66
3, 517301, Note_on_c, 1, 41, 0
3, 517313, Note_on_c, 1, 37, 0
3, 517448, Note_on_c, 1, 42, 79
3, 518148, Note_on_c, 1, 34, 70
3, 518297, Note_on_c, 1, 42, 0
3, 518316, Note_on_c, 1, 34, 0
3, 518441, Note_on_c, 1, 43, 60
3, 518501, Note_on_c, 1, 45, 50
3, 518667, Note_on_c, 1, 45, 0
3, 519046, Note_on_c, 1, 43, 0
3, 519125, Note_on_c, 1, 38, 101
3, 519514, Note_on_c, 1, 34, 86
3, 519728, Note_on_c, 1, 34, 0
3, 520340, Note_on_c, 1, 34, 88
3, 520364, Note_on_c, 1, 38, 0
3, 521268, Note_on_c, 1, 34, 0
3, 521283, Note_on_c, 1, 33, 79
3, 522238, Note_on_c, 1, 31, 83
3, 522245, Note_on_c, 1, 33, 0
3, 523162, Note_on_c, 1, 31, 0
3, 523229, Note_on_c, 1, 38, 92
3, 524151, Note_on_c, 1, 38, 0
3, 524151, Note_on_c, 1, 43, 85
3, 524770, Note_on_c, 1, 43, 0
3, 524849, Note_on_c, 1, 38, 83
3, 525075, Note_on_c, 1, 46, 87
3, 525094, Note_on_c, 1, 38, 0
3, 525816, Note_on_c, 1, 38, 76
3, 525912, Note_on_c, 1, 46, 0
3, 525941, Note_on_c, 1, 38, 0
3, 525992, Note_on_c, 1, 50, 83
3, 526743, Note_on_c, 1, 50, 0
3, 526899, Note_on_c, 1, 49, 90
3, 527585, Note_on_c, 1, 42, 61
3, 527693, Note_on_c, 1, 42, 0
3, 527859, Note_on_c, 1, 49, 0
3, 527948, Note_on_c, 1, 48, 76
3, 528632, Note_on_c, 1, 48, 0
3, 528646, Note_on_c, 1, 39, 80
3, 528869, Note_on_c, 1, 39, 0
3, 528946, Note_on_c, 1, 42, 77
3, 529673, Note_on_c, 1, 39, 65
3, 529767, Note_on_c, 1, 42, 0
3, 529791, Note_on_c, 1, 39, 0
3, 529916, Note_on_c, 1, 41, 76
3, 530873, Note_on_c, 1, 41, 0
3, 530936, Note_on_c, 1, 36, 78
3, 531896, Note_on_c, 1, 36, 0
3, 531939, Note_on_c, 1, 33, 80
3, 532714, Note_on_c, 1, 33, 0
3, 532863, Note_on_c, 1, 36, 80
3, 533746, Note_on_c, 1, 36, 0
3, 533775, Note_on_c, 1, 34, 78
3, 534281, Note_on_c, 1, 34, 0
3, 534459, Note_on_c, 1, 34, 86
3, 534692, Note_on_c, 1, 34, 0
3, 534711, Note_on_c, 1, 36, 97
3, 535688, Note_on_c, 1, 36, 0
3, 535721, Note_on_c, 1, 38, 76
3, 536391, Note_on_c, 1, 34, 69
3, 536595, Note_on_c, 1, 34, 0
3, 536612, Note_on_c, 1, 41, 90
3, 537365, Note_on_c, 1, 41, 0
3, 537377, Note_on_c, 1, 38, 0
3, 537567, Note_on_c, 1, 39, 91
3, 538325, Note_on_c, 1, 39, 0
3, 538500, Note_on_c, 1, 39, 88
3, 539309, Note_on_c, 1, 39, 0
3, 539446, Note_on_c, 1, 34, 71
3, 540212, Note_on_c, 1, 34, 0
3, 540406, Note_on_c, 1, 34, 79
3, 541258, Note_on_c, 1, 34, 0
3, 541366, Note_on_c, 1, 33, 77
3, 542110, Note_on_c, 1, 33, 0
3, 542343, Note_on_c, 1, 33, 77
3, 543161, Note_on_c, 1, 34, 61
3, 543257, Note_on_c, 1, 33, 0
3, 543324, Note_on_c, 1, 39, 73
3, 543336, Note_on_c, 1, 34, 0
3, 544052, Note_on_c, 1, 34, 70
3, 544287, Note_on_c, 1, 39, 0
3, 544337, Note_on_c, 1, 51, 94
3, 544352, Note_on_c, 1, 34, 0
3, 545192, Note_on_c, 1, 51, 0
3, 545247, Note_on_c, 1, 50, 74
3, 546173, Note_on_c, 1, 50, 0
3, 546272, Note_on_c, 1, 38, 79
3, 547246, Note_on_c, 1, 48, 82
3, 547623, Note_on_c, 1, 38, 0
3, 548144, Note_on_c, 1, 48, 0
3, 548180, Note_on_c, 1, 44, 85
3, 548967, Note_on_c, 1, 42, 59
3, 549008, Note_on_c, 1, 44, 0
3, 549096, Note_on_c, 1, 42, 0
3, 549140, Note_on_c, 1, 43, 76
3, 550068, Note_on_c, 1, 43, 0
3, 550085, Note_on_c, 1, 38, 84
3, 550928, Note_on_c, 1, 38, 0
3, 550944, Note_on_c, 1, 34, 80
3, 551931, Note_on_c, 1, 34, 0
3, 551931, Note_on_c, 1, 33, 88
3, 552876, Note_on_c, 1, 33, 0
3, 552922, Note_on_c, 1, 31, 90
3, 553911, Note_on_c, 1, 38, 80
3, 554182, Note_on_c, 1, 31, 0
3, 554854, Note_on_c, 1, 43, 90
3, 554904, Note_on_c, 1, 38, 0
3, 555473, Note_on_c, 1, 34, 85
3, 555500, Note_on_c, 1, 43, 0
3, 555720, Note_on_c, 1, 34, 0
3, 555833, Note_on_c, 1, 35, 77
3, 556563, Note_on_c, 1, 35, 0
3, 557439, Note_on_c, 1, 45, 124
3, 558574, Note_on_c, 1, 45, 0
3, 558708, Note_on_c, 1, 38, 88
3, 559287, Note_on_c, 1, 38, 0
3, 559385, Note_on_c, 1, 45, 80
3, 559503, Note_on_c, 1, 45, 0
3, 559690, Note_on_c, 1, 50, 102
3, 561240, Note_on_c, 1, 45, 91
3, 561471, Note_on_c, 1, 45, 0
3, 561483, Note_on_c, 1, 50, 0
3, 561576, Note_on_c, 1, 38, 97
3, 562534, Note_on_c, 1, 51, 100
3, 562851, Note_on_c, 1, 38, 0
3, 563285, Note_on_c, 1, 38, 54
3, 563292, Note_on_c, 1, 51, 0
3, 563432, Note_on_c, 1, 38, 0
3, 563506, Note_on_c, 1, 50, 90
3, 564305, Note_on_c, 1, 42, 79
3, 564329, Note_on_c, 1, 50, 0
3, 564536, Note_on_c, 1, 43, 97
3, 564557, Note_on_c, 1, 42, 0
3, 565467, Note_on_c, 1, 50, 90
3, 566050, Note_on_c, 1, 50, 0
3, 566132, Note_on_c, 1, 43, 0
3, 566151, Note_on_c, 1, 38, 90
3, 566412, Note_on_c, 1, 38, 0
3, 566446, Note_on_c, 1, 46, 85
3, 567147, Note_on_c, 1, 38, 64
3, 567164, Note_on_c, 1, 46, 0
3, 567260, Note_on_c, 1, 38, 0
3, 567336, Note_on_c, 1, 45, 69
3, 567356, Note_on_c, 1, 46, 58
3, 567788, Note_on_c, 1, 46, 0
3, 567939, Note_on_c, 1, 38, 63
3, 568073, Note_on_c, 1, 45, 0
3, 568083, Note_on_c, 1, 38, 0
3, 568289, Note_on_c, 1, 43, 72
3, 569165, Note_on_c, 1, 43, 0
3, 569237, Note_on_c, 1, 38, 74
3, 570236, Note_on_c, 1, 34, 74
3, 570252, Note_on_c, 1, 38, 0
3, 570521, Note_on_c, 1, 34, 0
3, 570869, Note_on_c, 1, 34, 87
3, 571088, Note_on_c, 1, 34, 0
3, 571224, Note_on_c, 1, 35, 57
3, 572028, Note_on_c, 1, 35, 0
3, 572084, Note_on_c, 1, 36, 73
3, 572844, Note_on_c, 1, 34, 68
3, 572878, Note_on_c, 1, 36, 0
3, 573072, Note_on_c, 1, 34, 0
3, 573156, Note_on_c, 1, 38, 74
3, 573924, Note_on_c, 1, 38, 0
3, 574121, Note_on_c, 1, 39, 75
3, 574839, Note_on_c, 1, 36, 70
3, 574952, Note_on_c, 1, 36, 0
3, 574954, Note_on_c, 1, 39, 0
3, 575098, Note_on_c, 1, 40, 78
3, 575772, Note_on_c, 1, 36, 51
3, 575876, Note_on_c, 1, 40, 0
3, 575919, Note_on_c, 1, 36, 0
3, 576003, Note_on_c, 1, 41, 78
3, 576644, Note_on_c, 1, 41, 0
3, 576706, Note_on_c, 1, 36, 79
3, 576956, Note_on_c, 1, 36, 0
3, 577047, Note_on_c, 1, 33, 83
3, 577764, Note_on_c, 1, 36, 59
3, 577836, Note_on_c, 1, 33, 0
3, 577916, Note_on_c, 1, 36, 0
3, 578012, Note_on_c, 1, 41, 75
3, 578662, Note_on_c, 1, 41, 0
3, 578667, Note_on_c, 1, 33, 76
3, 578924, Note_on_c, 1, 33, 0
3, 578940, Note_on_c, 1, 48, 90
3, 579034, Note_on_c, 1, 46, 61
3, 579164, Note_on_c, 1, 46, 0
3, 579672, Note_on_c, 1, 33, 63
3, 579711, Note_on_c, 1, 48, 0
3, 579790, Note_on_c, 1, 33, 0
3, 579864, Note_on_c, 1, 46, 85
3, 580704, Note_on_c, 1, 46, 0
3, 580820, Note_on_c, 1, 45, 67
3, 581427, Note_on_c, 1, 38, 58
3, 581571, Note_on_c, 1, 38, 0
3, 581657, Note_on_c, 1, 45, 0
3, 581751, Note_on_c, 1, 43, 77
3, 582464, Note_on_c, 1, 38, 73
3, 582480, Note_on_c, 1, 43, 0
3, 582560, Note_on_c, 1, 38, 0
3, 582689, Note_on_c, 1, 41, 78
3, 583344, Note_on_c, 1, 38, 64
3, 583450, Note_on_c, 1, 38, 0
3, 583498, Note_on_c, 1, 41, 0
3, 583570, Note_on_c, 1, 39, 78
3, 584391, Note_on_c, 1, 39, 0
3, 584595, Note_on_c, 1, 38, 70
3, 584604, Note_on_c, 1, 39, 59
3, 584996, Note_on_c, 1, 39, 0
3, 585449, Note_on_c, 1, 38, 0
3, 585584, Note_on_c, 1, 36, 79
3, 586169, Note_on_c, 1, 36, 0
3, 586232, Note_on_c, 1, 34, 100
3, 587520, Note_on_c, 1, 34, 0
3, 587583, Note_on_c, 1, 33, 79
3, 588226, Note_on_c, 1, 33, 0
3, 588497, Note_on_c, 1, 39, 82
3, 589184, Note_on_c, 1, 37, 59
3, 589320, Note_on_c, 1, 37, 0
3, 589448, Note_on_c, 1, 39, 0
3, 589462, Note_on_c, 1, 51, 107
3, 590115, Note_on_c, 1, 39, 65
3, 590220, Note_on_c, 1, 51, 0
3, 590240, Note_on_c, 1, 39, 0
3, 590403, Note_on_c, 1, 48, 83
3, 591015, Note_on_c, 1, 39, 73
3, 591152, Note_on_c, 1, 39, 0
3, 591180, Note_on_c, 1, 48, 0
3, 591322, Note_on_c, 1, 50, 76
3, 591898, Note_on_c, 1, 50, 0
3, 592023, Note_on_c, 1, 45, 90
3, 592112, Note_on_c, 1, 45, 0
3, 592272, Note_on_c, 1, 42, 82
3, 593240, Note_on_c, 1, 42, 0
3, 593290, Note_on_c, 1, 45, 88
3, 594120, Note_on_c, 1, 45, 0
3, 594245, Note_on_c, 1, 38, 78
3, 594872, Note_on_c, 1, 42, 81
3, 594903, Note_on_c, 1, 38, 0
3, 595179, Note_on_c, 1, 42, 0
3, 595212, Note_on_c, 1, 43, 78
3, 596204, Note_on_c, 1, 43, 0
3, 596252, Note_on_c, 1, 37, 85
3, 597144, Note_on_c, 1, 37, 0
3, 597178, Note_on_c, 1, 36, 88
3, 598095, Note_on_c, 1, 36, 0
3, 598148, Note_on_c, 1, 42, 87
3, 599072, Note_on_c, 1, 42, 0
3, 599165, Note_on_c, 1, 41, 84
3, 600024, Note_on_c, 1, 41, 0
3, 600089, Note_on_c, 1, 36, 78
3, 601056, Note_on_c, 1, 36, 0
3, 601071, Note_on_c, 1, 34, 78
3, 601944, Note_on_c, 1, 41, 85
3, 602043, Note_on_c, 1, 34, 0
3, 602837, Note_on_c, 1, 41, 0
3, 602900, Note_on_c, 1, 39, 80
3, 603694, Note_on_c, 1, 39, 0
3, 603884, Note_on_c, 1, 39, 79
3, 604824, Note_on_c, 1, 43, 89
3, 604839, Note_on_c, 1, 39, 0
3, 605638, Note_on_c, 1, 43, 0
3, 605849, Note_on_c, 1, 39, 106
3, 606699, Note_on_c, 1, 39, 0
3, 606723, Note_on_c, 1, 45, 90
3, 607546, Note_on_c, 1, 45, 0
3, 607652, Note_on_c, 1, 39, 88
3, 608573, Note_on_c, 1, 39, 0
3, 608626, Note_on_c, 1, 38, 89
3, 609269, Note_on_c, 1, 39, 77
3, 609315, Note_on_c, 1, 38, 0
3, 609555, Note_on_c, 1, 39, 0
3, 609562, Note_on_c, 1, 44, 90
3, 610236, Note_on_c, 1, 44, 0
3, 610280, Note_on_c, 1, 39, 61
3, 610560, Note_on_c, 1, 39, 0
3, 610570, Note_on_c, 1, 43, 85
3, 611388, Note_on_c, 1, 43, 0
3, 611492, Note_on_c, 1, 38, 87
3, 612332, Note_on_c, 1, 38, 0
3, 612420, Note_on_c, 1, 34, 85
3, 613270, Note_on_c, 1, 34, 0
3, 613347, Note_on_c, 1, 33, 82
3, 614220, Note_on_c, 1, 33, 0
3, 614328, Note_on_c, 1, 31, 90
3, 615260, Note_on_c, 1, 31, 0
3, 615341, Note_on_c, 1, 35, 85
3, 616239, Note_on_c, 1, 35, 0
3, 616332, Note_on_c, 1, 38, 84
3, 616834, Note_on_c, 1, 38, 0
3, 616988, Note_on_c, 1, 34, 82
3, 617153, Note_on_c, 1, 34, 0
3, 617254, Note_on_c, 1, 35, 88
3, 618106, Note_on_c, 1, 35, 0
3, 618195, Note_on_c, 1, 36, 83
3, 619928, Note_on_c, 1, 34, 82
3, 620014, Note_on_c, 1, 36, 0
3, 620177, Note_on_c, 1, 43, 83
3, 620225, Note_on_c, 1, 34, 0
3, 621792, Note_on_c, 1, 43, 0
3, 621800, Note_on_c, 1, 36, 91
3, 621922, Note_on_c, 1, 36, 0
3, 622095, Note_on_c, 1, 41, 87
3, 623698, Note_on_c, 1, 36, 90
3, 623753, Note_on_c, 1, 41, 0
3, 623854, Note_on_c, 1, 36, 0
3, 624046, Note_on_c, 1, 33, 89
3, 625457, Note_on_c, 1, 33, 0
3, 625541, Note_on_c, 1, 36, 88
3, 625702, Note_on_c, 1, 36, 0
3, 625865, Note_on_c, 1, 34, 88
3, 627596, Note_on_c, 1, 41, 89
3, 627608, Note_on_c, 1, 34, 0
3, 627833, Note_on_c, 1, 41, 0
3, 627905, Note_on_c, 1, 50, 97
3, 628023, Note_on_c, 1, 52, 54
3, 628133, Note_on_c, 1, 52, 0
3, 628697, Note_on_c, 1, 50, 0
3, 628827, Note_on_c, 1, 50, 74
3, 629482, Note_on_c, 1, 50, 0
3, 629751, Note_on_c, 1, 51, 97
3, 630540, Note_on_c, 1, 39, 57
3, 630605, Note_on_c, 1, 51, 0
3, 630675, Note_on_c, 1, 46, 88
3, 630677, Note_on_c, 1, 39, 0
3, 631347, Note_on_c, 1, 39, 57
3, 631474, Note_on_c, 1, 39, 0
3, 631575, Note_on_c, 1, 46, 0
3, 631685, Note_on_c, 1, 43, 71
3, 632256, Note_on_c, 1, 43, 0
3, 632312, Note_on_c, 1, 39, 76
3, 632429, Note_on_c, 1, 39, 0
3, 632564, Note_on_c, 1, 34, 76
3, 633420, Note_on_c, 1, 34, 0
3, 633545, Note_on_c, 1, 33, 88
3, 634515, Note_on_c, 1, 33, 0
3, 634546, Note_on_c, 1, 39, 88
3, 635410, Note_on_c, 1, 39, 0
3, 635542, Note_on_c, 1, 45, 82
3, 636219, Note_on_c, 1, 39, 78
3, 636341, Note_on_c, 1, 45, 0
3, 636430, Note_on_c, 1, 39, 0
3, 636468, Note_on_c, 1, 51, 94
3, 637368, Note_on_c, 1, 51, 0
3, 637419, Note_on_c, 1, 50, 79
3, 638352, Note_on_c, 1, 50, 0
3, 638472, Note_on_c, 1, 38, 79
3, 639190, Note_on_c, 1, 42, 68
3, 639308, Note_on_c, 1, 42, 0
3, 639327, Note_on_c, 1, 38, 0
3, 639370, Note_on_c, 1, 48, 88
3, 640212, Note_on_c, 1, 48, 0
3, 640282, Note_on_c, 1, 44, 84
3, 640978, Note_on_c, 1, 42, 68
3, 641136, Note_on_c, 1, 44, 0
3, 641151, Note_on_c, 1, 42, 0
3, 641278, Note_on_c, 1, 43, 78
3, 642195, Note_on_c, 1, 43, 0
3, 642260, Note_on_c, 1, 38, 83
3, 643085, Note_on_c, 1, 38, 0
3, 643184, Note_on_c, 1, 34, 84
3, 644127, Note_on_c, 1, 34, 0
3, 644141, Note_on_c, 1, 33, 86
3, 644948, Note_on_c, 1, 33, 0
3, 645077, Note_on_c, 1, 31, 89
3, 646080, Note_on_c, 1, 38, 93
3, 646100, Note_on_c, 1, 31, 0
3, 647007, Note_on_c, 1, 38, 0
3, 647074, Note_on_c, 1, 34, 74
3, 647316, Note_on_c, 1, 34, 0
3, 647652, Note_on_c, 1, 34, 97
3, 647866, Note_on_c, 1, 34, 0
3, 647964, Note_on_c, 1, 35, 87
3, 648910, Note_on_c, 1, 35, 0
3, 648922, Note_on_c, 1, 36, 83
3, 649678, Note_on_c, 1, 34, 79
3, 649776, Note_on_c, 1, 36, 0
3, 649937, Note_on_c, 1, 50, 103
3, 649947, Note_on_c, 1, 34, 0
3, 650643, Note_on_c, 1, 41, 53
3, 650768, Note_on_c, 1, 41, 0
3, 650847, Note_on_c, 1, 50, 0
3, 650890, Note_on_c, 1, 51, 87
3, 651639, Note_on_c, 1, 39, 65
3, 651749, Note_on_c, 1, 51, 0
3, 651814, Note_on_c, 1, 39, 0
3, 651836, Note_on_c, 1, 42, 83
3, 652594, Note_on_c, 1, 39, 66
3, 652688, Note_on_c, 1, 42, 0
3, 652716, Note_on_c, 1, 39, 0
3, 652887, Note_on_c, 1, 41, 72
3, 653693, Note_on_c, 1, 41, 0
3, 653777, Note_on_c, 1, 36, 84
3, 654708, Note_on_c, 1, 36, 0
3, 654771, Note_on_c, 1, 33, 79
3, 655457, Note_on_c, 1, 33, 0
3, 655654, Note_on_c, 1, 33, 94
3, 656501, Note_on_c, 1, 33, 0
3, 656614, Note_on_c, 1, 34, 83
3, 657212, Note_on_c, 1, 34, 0
3, 657365, Note_on_c, 1, 34, 101
3, 657735, Note_on_c, 1, 36, 97
3, 657814, Note_on_c, 1, 34, 0
3, 658568, Note_on_c, 1, 36, 0
3, 658580, Note_on_c, 1, 38, 85
3, 659444, Note_on_c, 1, 38, 0
3, 659501, Note_on_c, 1, 41, 87
3, 660111, Note_on_c, 1, 41, 0
3, 660123, Note_on_c, 1, 38, 78
3, 660401, Note_on_c, 1, 38, 0
3, 660411, Note_on_c, 1, 39, 88
3, 661352, Note_on_c, 1, 39, 0
3, 661371, Note_on_c, 1, 43, 91
3, 662117, Note_on_c, 1, 39, 73
3, 662278, Note_on_c, 1, 43, 0
3, 662384, Note_on_c, 1, 50, 107
3, 662417, Note_on_c, 1, 39, 0
3, 662888, Note_on_c, 1, 39, 59
3, 663219, Note_on_c, 1, 50, 0
3, 663221, Note_on_c, 1, 39, 0
3, 663334, Note_on_c, 1, 46, 84
3, 664071, Note_on_c, 1, 42, 63
3, 664107, Note_on_c, 1, 39, 52
3, 664162, Note_on_c, 1, 46, 0
3, 664200, Note_on_c, 1, 42, 0
3, 664253, Note_on_c, 1, 39, 0
3, 664294, Note_on_c, 1, 51, 95
3, 664973, Note_on_c, 1, 43, 76
3, 665100, Note_on_c, 1, 43, 0
3, 665172, Note_on_c, 1, 51, 0
3, 665247, Note_on_c, 1, 48, 88
3, 666082, Note_on_c, 1, 48, 0
3, 666240, Note_on_c, 1, 45, 82
3, 666816, Note_on_c, 1, 45, 0
3, 666944, Note_on_c, 1, 36, 78
3, 667188, Note_on_c, 1, 39, 87
3, 667200, Note_on_c, 1, 36, 0
3, 667870, Note_on_c, 1, 37, 71
3, 668043, Note_on_c, 1, 39, 0
3, 668062, Note_on_c, 1, 37, 0
3, 668120, Note_on_c, 1, 38, 76
3, 668897, Note_on_c, 1, 37, 78
3, 668984, Note_on_c, 1, 38, 0
3, 669128, Note_on_c, 1, 50, 116
3, 669185, Note_on_c, 1, 37, 0
3, 670779, Note_on_c, 1, 39, 94
3, 670911, Note_on_c, 1, 50, 0
3, 671141, Note_on_c, 1, 42, 85
3, 671225, Note_on_c, 1, 39, 0
3, 671859, Note_on_c, 1, 39, 60
3, 671972, Note_on_c, 1, 42, 0
3, 671979, Note_on_c, 1, 39, 0
3, 672077, Note_on_c, 1, 43, 88
3, 672965, Note_on_c, 1, 43, 0
3, 673042, Note_on_c, 1, 37, 90
3, 673707, Note_on_c, 1, 34, 71
3, 673906, Note_on_c, 1, 37, 0
3, 673983, Note_on_c, 1, 34, 0
3, 674028, Note_on_c, 1, 38, 80
3, 674890, Note_on_c, 1, 38, 0
3, 674940, Note_on_c, 1, 32, 90
3, 675881, Note_on_c, 1, 32, 0
3, 675941, Note_on_c, 1, 31, 90
3, 676836, Note_on_c, 1, 31, 0
3, 676892, Note_on_c, 1, 38, 90
3, 677734, Note_on_c, 1, 38, 0
3, 677832, Note_on_c, 1, 34, 88
3, 678663, Note_on_c, 1, 34, 0
3, 678730, Note_on_c, 1, 32, 81
3, 679584, Note_on_c, 1, 32, 0
3, 679707, Note_on_c, 1, 33, 99
3, 680693, Note_on_c, 1, 50, 105
3, 680696, Note_on_c, 1, 33, 0
3, 682296, Note_on_c, 1, 43, 83
3, 682529, Note_on_c, 1, 43, 0
3, 682599, Note_on_c, 1, 50, 0
3, 682606, Note_on_c, 1, 38, 80
3, 684322, Note_on_c, 1, 45, 71
3, 684545, Note_on_c, 1, 45, 0
3, 684612, Note_on_c, 1, 50, 98
3, 686218, Note_on_c, 1, 38, 0
3, 686247, Note_on_c, 1, 45, 80
3, 686340, Note_on_c, 1, 45, 0
3, 686393, Note_on_c, 1, 50, 0
3, 686540, Note_on_c, 1, 38, 93
3, 688438, Note_on_c, 1, 38, 0
3, 688467, Note_on_c, 1, 50, 109
3, 690089, Note_on_c, 1, 45, 58
3, 690207, Note_on_c, 1, 45, 0
3, 690231, Note_on_c, 1, 50, 0
3, 690348, Note_on_c, 1, 38, 90
3, 691923, Note_on_c, 1, 50, 107
3, 692436, Note_on_c, 1, 38, 0
3, 693706, Note_on_c, 1, 45, 66
3, 693804, Note_on_c, 1, 45, 0
3, 693807, Note_on_c, 1, 50, 0
3, 694047, Note_on_c, 1, 38, 90
3, 695667, Note_on_c, 1, 53, 118
3, 695753, Note_on_c, 1, 38, 0
3, 697527, Note_on_c, 1, 53, 0
3, 697556, Note_on_c, 1, 48, 77
3, 697637, Note_on_c, 1, 48, 0
3, 697882, Note_on_c, 1, 41, 79
3, 698803, Note_on_c, 1, 41, 0
3, 698847, Note_on_c, 1, 29, 88
3, 700438, Note_on_c, 1, 41, 76
3, 700519, Note_on_c, 1, 41, 0
3, 700651, Note_on_c, 1, 29, 0
3, 700803, Note_on_c, 1, 36, 97
3, 702415, Note_on_c, 1, 33, 89
3, 702439, Note_on_c, 1, 36, 0
3, 702523, Note_on_c, 1, 33, 0
3, 702747, Note_on_c, 1, 34, 100
3, 704263, Note_on_c, 1, 32, 80
3, 704604, Note_on_c, 1, 34, 0
3, 704633, Note_on_c, 1, 32, 0
3, 704707, Note_on_c, 1, 41, 83
3, 706241, Note_on_c, 1, 41, 0
3, 706251, Note_on_c, 1, 38, 79
3, 706474, Note_on_c, 1, 38, 0
3, 706560, Note_on_c, 1, 39, 85
3, 707902, Note_on_c, 1, 39, 0
3, 708120, Note_on_c, 1, 39, 78
3, 708363, Note_on_c, 1, 39, 0
3, 708444, Note_on_c, 1, 46, 72
3, 709078, Note_on_c, 1, 46, 0
3, 709078, Note_on_c, 1, 39, 80
3, 709378, Note_on_c, 1, 39, 0
3, 709380, Note_on_c, 1, 51, 94
3, 709908, Note_on_c, 1, 39, 71
3, 710004, Note_on_c, 1, 51, 0
3, 710081, Note_on_c, 1, 39, 0
3, 710372, Note_on_c, 1, 45, 85
3, 712028, Note_on_c, 1, 39, 88
3, 712136, Note_on_c, 1, 39, 0
3, 712140, Note_on_c, 1, 45, 0
3, 712364, Note_on_c, 1, 36, 82
3, 713864, Note_on_c, 1, 34, 70
3, 714056, Note_on_c, 1, 36, 0
3, 714140, Note_on_c, 1, 34, 0
3, 714200, Note_on_c, 1, 38, 82
3, 715052, Note_on_c, 1, 38, 0
3, 715145, Note_on_c, 1, 48, 80
3, 715786, Note_on_c, 1, 42, 46
3, 715930, Note_on_c, 1, 42, 0
3, 716036, Note_on_c, 1, 48, 0
3, 716132, Note_on_c, 1, 54, 78
3, 716794, Note_on_c, 1, 39, 73
3, 716806, Note_on_c, 1, 54, 0
3, 717070, Note_on_c, 1, 39, 0
3, 717108, Note_on_c, 1, 42, 79
3, 717876, Note_on_c, 1, 39, 62
3, 718006, Note_on_c, 1, 42, 0
3, 718020, Note_on_c, 1, 39, 0
3, 718131, Note_on_c, 1, 43, 79
3, 718884, Note_on_c, 1, 43, 0
3, 719079, Note_on_c, 1, 43, 90
3, 719912, Note_on_c, 1, 43, 0
3, 719984, Note_on_c, 1, 36, 83
3, 720984, Note_on_c, 1, 43, 90
3, 721143, Note_on_c, 1, 36, 0
3, 721659, Note_on_c, 1, 39, 73
3, 721666, Note_on_c, 1, 43, 0
3, 721899, Note_on_c, 1, 39, 0
3, 721961, Note_on_c, 1, 41, 78
3, 722784, Note_on_c, 1, 41, 0
3, 722856, Note_on_c, 1, 36, 82
3, 723759, Note_on_c, 1, 36, 0
3, 723788, Note_on_c, 1, 34, 85
3, 724649, Note_on_c, 1, 34, 0
3, 724733, Note_on_c, 1, 41, 85
3, 725588, Note_on_c, 1, 41, 0
3, 725729, Note_on_c, 1, 39, 79
3, 727424, Note_on_c, 1, 37, 70
3, 727791, Note_on_c, 1, 46, 95
3, 727836, Note_on_c, 1, 39, 0
3, 727848, Note_on_c, 1, 37, 0
3, 729406, Note_on_c, 1, 39, 85
3, 729620, Note_on_c, 1, 39, 0
3, 729672, Note_on_c, 1, 46, 0
3, 729718, Note_on_c, 1, 45, 79
3, 730320, Note_on_c, 1, 39, 76
3, 730460, Note_on_c, 1, 45, 0
3, 730570, Note_on_c, 1, 51, 89
3, 730575, Note_on_c, 1, 39, 0
3, 731350, Note_on_c, 1, 51, 0
3, 731518, Note_on_c, 1, 50, 76
3, 732192, Note_on_c, 1, 43, 88
3, 732262, Note_on_c, 1, 50, 0
3, 732346, Note_on_c, 1, 43, 0
3, 732540, Note_on_c, 1, 38, 80
3, 733402, Note_on_c, 1, 38, 0
3, 733508, Note_on_c, 1, 43, 90
3, 735317, Note_on_c, 1, 43, 0
3, 735447, Note_on_c, 1, 38, 80
3, 737189, Note_on_c, 1, 38, 0
3, 737285, Note_on_c, 1, 31, 95
3, 737926, Note_on_c, 1, 31, 0
3, 741204, Note_on_c, 1, 36, 72
3, 742622, Note_on_c, 1, 43, 73
3, 742744, Note_on_c, 1, 43, 0
3, 742967, Note_on_c, 1, 36, 0
3, 743041, Note_on_c, 1, 43, 69
3, 743264, Note_on_c, 1, 43, 0
3, 743998, Note_on_c, 1, 39, 75
3, 744841, Note_on_c, 1, 39, 0
3, 744999, Note_on_c, 1, 41, 81
3, 746574, Note_on_c, 1, 36, 78
3, 746577, Note_on_c, 1, 41, 0
3, 746751, Note_on_c, 1, 36, 0
3, 746876, Note_on_c, 1, 33, 89
3, 747722, Note_on_c, 1, 33, 0
3, 747923, Note_on_c, 1, 33, 100
3, 748840, Note_on_c, 1, 33, 0
3, 748932, Note_on_c, 1, 34, 86
3, 750377, Note_on_c, 1, 34, 0
3, 750377, Note_on_c, 1, 32, 83
3, 750736, Note_on_c, 1, 32, 0
3, 750828, Note_on_c, 1, 41, 86
3, 751786, Note_on_c, 1, 40, 95
3, 751805, Note_on_c, 1, 41, 0
3, 752574, Note_on_c, 1, 40, 0
3, 752743, Note_on_c, 1, 39, 83
3, 754340, Note_on_c, 1, 43, 86
3, 754440, Note_on_c, 1, 43, 0
3, 754582, Note_on_c, 1, 39, 0
3, 754767, Note_on_c, 1, 46, 87
3, 755194, Note_on_c, 1, 46, 0
3, 755732, Note_on_c, 1, 44, 98
3, 756646, Note_on_c, 1, 44, 0
3, 756733, Note_on_c, 1, 45, 93
3, 758118, Note_on_c, 1, 39, 93
3, 758227, Note_on_c, 1, 39, 0
3, 758357, Note_on_c, 1, 45, 0
3, 758518, Note_on_c, 1, 36, 81
3, 759415, Note_on_c, 1, 36, 0
3, 759459, Note_on_c, 1, 37, 91
3, 760386, Note_on_c, 1, 37, 0
3, 760422, Note_on_c, 1, 38, 84
3, 761387, Note_on_c, 1, 52, 49
3, 761741, Note_on_c, 1, 52, 0
3, 762043, Note_on_c, 1, 53, 64
3, 762252, Note_on_c, 1, 53, 0
3, 762434, Note_on_c, 1, 54, 80
3, 762940, Note_on_c, 1, 54, 0
3, 762962, Note_on_c, 1, 38, 0
3, 763245, Note_on_c, 1, 41, 79
3, 763574, Note_on_c, 1, 42, 98
3, 763729, Note_on_c, 1, 41, 0
3, 764292, Note_on_c, 1, 42, 0
3, 764393, Note_on_c, 1, 43, 95
3, 765780, Note_on_c, 1, 37, 83
3, 765810, Note_on_c, 1, 43, 0
3, 766139, Note_on_c, 1, 37, 0
3, 766226, Note_on_c, 1, 38, 77
3, 766667, Note_on_c, 1, 38, 0
3, 767077, Note_on_c, 1, 30, 87
3, 767931, Note_on_c, 1, 30, 0
3, 768103, Note_on_c, 1, 31, 79
3, 769585, Note_on_c, 1, 31, 0
3, 769591, Note_on_c, 1, 37, 83
3, 769811, Note_on_c, 1, 37, 0
3, 769985, Note_on_c, 1, 38, 81
3, 770083, Note_on_c, 1, 38, 0
3, 770545, Note_on_c, 1, 38, 73
3, 770679, Note_on_c, 1, 38, 0
3, 770883, Note_on_c, 1, 35, 84
3, 771851, Note_on_c, 1, 35, 0
3, 771927, Note_on_c, 1, 36, 76
3, 773391, Note_on_c, 1, 43, 73
3, 773611, Note_on_c, 1, 43, 0
3, 773684, Note_on_c, 1, 36, 0
3, 773769, Note_on_c, 1, 48, 89
3, 774465, Note_on_c, 1, 36, 81
3, 774574, Note_on_c, 1, 36, 0
3, 774582, Note_on_c, 1, 48, 0
3, 774748, Note_on_c, 1, 42, 78
3, 775610, Note_on_c, 1, 42, 0
3, 775779, Note_on_c, 1, 41, 80
3, 777424, Note_on_c, 1, 36, 67
3, 777519, Note_on_c, 1, 41, 0
3, 777555, Note_on_c, 1, 36, 0
3, 777764, Note_on_c, 1, 33, 86
3, 778583, Note_on_c, 1, 33, 0
3, 778809, Note_on_c, 1, 33, 101
3, 779679, Note_on_c, 1, 33, 0
3, 779785, Note_on_c, 1, 34, 84
3, 781148, Note_on_c, 1, 32, 75
3, 781398, Note_on_c, 1, 32, 0
3, 781409, Note_on_c, 1, 34, 0
3, 781553, Note_on_c, 1, 38, 86
3, 783147, Note_on_c, 1, 34, 82
3, 783158, Note_on_c, 1, 38, 0
3, 783406, Note_on_c, 1, 34, 0
3, 783552, Note_on_c, 1, 39, 92
3, 784964, Note_on_c, 1, 34, 84
3, 784994, Note_on_c, 1, 39, 0
3, 785078, Note_on_c, 1, 34, 0
3, 785361, Note_on_c, 1, 34, 80
3, 786153, Note_on_c, 1, 34, 0
3, 786305, Note_on_c, 1, 32, 86
3, 787151, Note_on_c, 1, 32, 0
3, 787325, Note_on_c, 1, 33, 84
3, 788699, Note_on_c, 1, 33, 0
3, 788827, Note_on_c, 1, 39, 82
3, 788927, Note_on_c, 1, 39, 0
3, 789303, Note_on_c, 1, 45, 55
3, 789950, Note_on_c, 1, 37, 69
3, 789966, Note_on_c, 1, 45, 0
3, 790070, Note_on_c, 1, 37, 0
3, 790198, Note_on_c, 1, 51, 106
3, 791079, Note_on_c, 1, 51, 0
3, 791223, Note_on_c, 1, 50, 78
3, 792678, Note_on_c, 1, 37, 92
3, 792825, Note_on_c, 1, 50, 0
3, 792956, Note_on_c, 1, 37, 0
3, 793083, Note_on_c, 1, 38, 80
3, 793872, Note_on_c, 1, 38, 0
3, 793891, Note_on_c, 1, 37, 62
3, 794038, Note_on_c, 1, 37, 0
3, 794044, Note_on_c, 1, 45, 89
3, 794889, Note_on_c, 1, 45, 0
3, 795017, Note_on_c, 1, 43, 78
3, 796557, Note_on_c, 1, 37, 78
3, 796644, Note_on_c, 1, 43, 0
3, 796780, Note_on_c, 1, 37, 0
3, 796845, Note_on_c, 1, 38, 82
3, 798417, Note_on_c, 1, 30, 60
3, 798466, Note_on_c, 1, 38, 0
3, 798608, Note_on_c, 1, 30, 0
3, 798681, Note_on_c, 1, 31, 86
3, 800221, Note_on_c, 1, 31, 0
3, 800280, Note_on_c, 1, 38, 82
3, 800376, Note_on_c, 1, 38, 0
3, 800634, Note_on_c, 1, 38, 80
3, 801018, Note_on_c, 1, 38, 0
3, 801659, Note_on_c, 1, 37, 83
3, 802519, Note_on_c, 1, 37, 0
3, 802641, Note_on_c, 1, 38, 79
3, 804175, Note_on_c, 1, 49, 78
3, 804431, Note_on_c, 1, 38, 0
3, 804510, Note_on_c, 1, 49, 0
3, 804537, Note_on_c, 1, 50, 79
3, 805255, Note_on_c, 1, 37, 57
3, 805334, Note_on_c, 1, 50, 0
3, 805408, Note_on_c, 1, 37, 0
3, 805448, Note_on_c, 1, 46, 91
3, 806365, Note_on_c, 1, 46, 0
3, 806498, Note_on_c, 1, 45, 84
3, 807962, Note_on_c, 1, 37, 86
3, 808008, Note_on_c, 1, 45, 0
3, 808283, Note_on_c, 1, 37, 0
3, 808329, Note_on_c, 1, 38, 80
3, 809129, Note_on_c, 1, 38, 0
3, 809278, Note_on_c, 1, 30, 94
3, 810181, Note_on_c, 1, 30, 0
3, 810320, Note_on_c, 1, 31, 92
3, 811710, Note_on_c, 1, 31, 0
3, 811762, Note_on_c, 1, 33, 89
3, 812044, Note_on_c, 1, 33, 0
3, 812151, Note_on_c, 1, 34, 97
3, 813546, Note_on_c, 1, 34, 0
3, 813668, Note_on_c, 1, 36, 93
3, 813870, Note_on_c, 1, 36, 0
3, 814087, Note_on_c, 1, 38, 75
3, 815651, Note_on_c, 1, 34, 80
3, 815735, Note_on_c, 1, 38, 0
3, 815967, Note_on_c, 1, 34, 0
3, 816043, Note_on_c, 1, 43, 68
3, 816345, Note_on_c, 1, 43, 0
3, 816739, Note_on_c, 1, 36, 70
3, 816859, Note_on_c, 1, 36, 0
3, 817047, Note_on_c, 1, 46, 92
3, 817816, Note_on_c, 1, 46, 0
3, 818026, Note_on_c, 1, 41, 89
3, 819565, Note_on_c, 1, 35, 89
3, 819707, Note_on_c, 1, 41, 0
3, 819821, Note_on_c, 1, 35, 0
3, 819981, Note_on_c, 1, 36, 86
3, 820542, Note_on_c, 1, 36, 0
3, 820939, Note_on_c, 1, 36, 95
3, 821619, Note_on_c, 1, 36, 0
3, 821888, Note_on_c, 1, 41, 97
3, 823297, Note_on_c, 1, 36, 89
3, 823496, Note_on_c, 1, 41, 0
3, 823550, Note_on_c, 1, 36, 0
3, 823659, Note_on_c, 1, 29, 98
3, 824605, Note_on_c, 1, 29, 0
3, 824695, Note_on_c, 1, 33, 114
3, 825593, Note_on_c, 1, 33, 0
3, 825674, Note_on_c, 1, 34, 115
3, 827010, Note_on_c, 1, 34, 0
3, 827064, Note_on_c, 1, 36, 95
3, 827510, Note_on_c, 1, 38, 102
3, 827546, Note_on_c, 1, 36, 0
3, 828405, Note_on_c, 1, 38, 0
3, 828435, Note_on_c, 1, 41, 114
3, 829371, Note_on_c, 1, 41, 0
3, 829458, Note_on_c, 1, 39, 92
3, 830946, Note_on_c, 1, 46, 83
3, 830984, Note_on_c, 1, 37, 54
3, 831166, Note_on_c, 1, 46, 0
3, 831272, Note_on_c, 1, 39, 0
3, 831286, Note_on_c, 1, 37, 0
3, 831389, Note_on_c, 1, 51, 91
3, 831919, Note_on_c, 1, 51, 0
3, 832319, Note_on_c, 1, 51, 103
3, 833309, Note_on_c, 1, 51, 0
3, 833337, Note_on_c, 1, 45, 120
3, 834835, Note_on_c, 1, 39, 93
3, 835042, Note_on_c, 1, 45, 0
3, 835197, Note_on_c, 1, 39, 0
3, 835235, Note_on_c, 1, 51, 92
3, 835643, Note_on_c, 1, 51, 0
3, 836165, Note_on_c, 1, 39, 105
3, 837033, Note_on_c, 1, 39, 0
3, 837169, Note_on_c, 1, 38, 93
3, 838575, Note_on_c, 1, 38, 0
3, 838638, Note_on_c, 1, 44, 110
3, 838896, Note_on_c, 1, 44, 0
3, 839095, Note_on_c, 1, 42, 87
3, 839206, Note_on_c, 1, 42, 0
3, 840060, Note_on_c, 1, 42, 102
3, 840852, Note_on_c, 1, 42, 0
3, 840996, Note_on_c, 1, 43, 100
3, 842457, Note_on_c, 1, 42, 84
3, 842498, Note_on_c, 1, 43, 0
3, 842574, Note_on_c, 1, 42, 0
3, 842862, Note_on_c, 1, 42, 80
3, 843314, Note_on_c, 1, 42, 0
3, 843803, Note_on_c, 1, 42, 93
3, 844684, Note_on_c, 1, 42, 0
3, 844842, Note_on_c, 1, 41, 92
3, 846311, Note_on_c, 1, 41, 0
3, 846322, Note_on_c, 1, 39, 86
3, 846610, Note_on_c, 1, 39, 0
3, 846749, Note_on_c, 1, 40, 81
3, 846888, Note_on_c, 1, 40, 0
3, 847676, Note_on_c, 1, 40, 101
3, 848533, Note_on_c, 1, 40, 0
3, 848672, Note_on_c, 1, 39, 92
3, 850111, Note_on_c, 1, 34, 97
3, 850179, Note_on_c, 1, 39, 0
3, 850331, Note_on_c, 1, 34, 0
3, 850543, Note_on_c, 1, 34, 98
3, 851425, Note_on_c, 1, 34, 0
3, 851506, Note_on_c, 1, 32, 86
3, 852317, Note_on_c, 1, 32, 0
3, 852502, Note_on_c, 1, 33, 96
3, 853900, Note_on_c, 1, 33, 0
3, 853962, Note_on_c, 1, 39, 96
3, 854278, Note_on_c, 1, 39, 0
3, 854395, Note_on_c, 1, 38, 87
3, 855260, Note_on_c, 1, 38, 0
3, 855333, Note_on_c, 1, 30, 108
3, 856280, Note_on_c, 1, 30, 0
3, 856356, Note_on_c, 1, 31, 102
3, 858271, Note_on_c, 1, 43, 90
3, 858790, Note_on_c, 1, 31, 0
3, 859751, Note_on_c, 1, 43, 0
3, 859861, Note_on_c, 1, 41, 104
3, 862770, Note_on_c, 1, 36, 79
3, 862921, Note_on_c, 1, 36, 0
3, 863052, Note_on_c, 1, 41, 0
3, 863271, Note_on_c, 1, 29, 91
3, 864221, Note_on_c, 1, 29, 0
3, 864230, Note_on_c, 1, 31, 88
3, 866757, Note_on_c, 1, 38, 71
3, 866894, Note_on_c, 1, 31, 0
3, 866897, Note_on_c, 1, 38, 0
3, 867021, Note_on_c, 1, 43, 79
3, 867642, Note_on_c, 1, 41, 89
3, 867666, Note_on_c, 1, 43, 0
3, 870363, Note_on_c, 1, 36, 86
3, 870573, Note_on_c, 1, 36, 0
3, 870594, Note_on_c, 1, 41, 0
3, 870739, Note_on_c, 1, 29, 90
3, 871627, Note_on_c, 1, 29, 0
3, 871763, Note_on_c, 1, 31, 79
3, 874371, Note_on_c, 1, 36, 81
3, 874492, Note_on_c, 1, 31, 0
3, 874504, Note_on_c, 1, 36, 0
3, 874717, Note_on_c, 1, 43, 108
3, 875413, Note_on_c, 1, 41, 121
3, 875415, Note_on_c, 1, 43, 0
3, 877366, Note_on_c, 1, 36, 94
3, 877464, Note_on_c, 1, 41, 0
3, 877674, Note_on_c, 1, 36, 0
3, 877789, Note_on_c, 1, 29, 97
3, 878426, Note_on_c, 1, 29, 0
3, 878654, Note_on_c, 1, 29, 96
3, 879447, Note_on_c, 1, 29, 0
3, 879672, Note_on_c, 1, 31, 98
3, 881507, Note_on_c, 1, 43, 107
3, 881557, Note_on_c, 1, 31, 0
3, 883085, Note_on_c, 1, 43, 0
3, 883126, Note_on_c, 1, 41, 94
3, 895416, Note_on_c, 1, 41, 0
3, 895416, End_track
4, 0, Start_track
4, 0, Title_t, "Drum Rides"
4, 0, Control_c, 9, 0, 120
4, 0, Control_c, 9, 7, 92
4, 1, Control_c, 9, 32, 0
4, 2, Program_c, 9, 32
4, 3611, Note_on_c, 9, 59, 45
4, 3714, Note_on_c, 9, 59, 0
4, 3978, Note_on_c, 9, 59, 50
4, 4428, Note_on_c, 9, 59, 0
4, 5541, Note_on_c, 9, 59, 34
4, 5686, Note_on_c, 9, 59, 0
4, 5946, Note_on_c, 9, 59, 39
4, 6352, Note_on_c, 9, 59, 0
4, 7379, Note_on_c, 9, 59, 46
4, 7485, Note_on_c, 9, 59, 0
4, 7814, Note_on_c, 9, 59, 35
4, 8199, Note_on_c, 9, 59, 0
4, 8652, Note_on_c, 9, 59, 44
4, 9948, Note_on_c, 9, 59, 0
4, 10229, Note_on_c, 9, 59, 43
4, 10345, Note_on_c, 9, 59, 0
4, 10620, Note_on_c, 9, 59, 42
4, 11049, Note_on_c, 9, 59, 0
4, 11529, Note_on_c, 9, 59, 52
4, 12026, Note_on_c, 9, 59, 0
4, 12452, Note_on_c, 9, 59, 37
4, 12970, Note_on_c, 9, 59, 0
4, 13503, Note_on_c, 9, 59, 43
4, 13941, Note_on_c, 9, 59, 0
4, 14498, Note_on_c, 9, 59, 33
4, 14675, Note_on_c, 9, 59, 0
4, 15054, Note_on_c, 9, 59, 62
4, 15477, Note_on_c, 9, 59, 0
4, 16004, Note_on_c, 9, 59, 43
4, 16111, Note_on_c, 9, 59, 0
4, 16386, Note_on_c, 9, 59, 48
4, 17043, Note_on_c, 9, 59, 0
4, 17298, Note_on_c, 9, 59, 51
4, 17431, Note_on_c, 9, 59, 0
4, 17851, Note_on_c, 9, 59, 62
4, 18017, Note_on_c, 9, 59, 0
4, 19248, Note_on_c, 9, 59, 54
4, 19920, Note_on_c, 9, 59, 0
4, 20409, Note_on_c, 9, 59, 45
4, 20850, Note_on_c, 9, 59, 0
4, 21439, Note_on_c, 9, 59, 31
4, 21602, Note_on_c, 9, 59, 0
4, 22200, Note_on_c, 9, 59, 55
4, 22552, Note_on_c, 9, 59, 0
4, 23123, Note_on_c, 9, 59, 29
4, 23289, Note_on_c, 9, 59, 0
4, 23789, Note_on_c, 9, 59, 61
4, 24073, Note_on_c, 9, 59, 0
4, 24671, Note_on_c, 9, 59, 46
4, 24775, Note_on_c, 9, 59, 0
4, 25080, Note_on_c, 9, 59, 50
4, 25636, Note_on_c, 9, 59, 0
4, 26042, Note_on_c, 9, 59, 48
4, 26311, Note_on_c, 9, 59, 0
4, 26716, Note_on_c, 9, 59, 48
4, 26832, Note_on_c, 9, 59, 0
4, 27137, Note_on_c, 9, 59, 42
4, 27279, Note_on_c, 9, 59, 0
4, 27974, Note_on_c, 9, 59, 58
4, 28362, Note_on_c, 9, 59, 0
4, 28984, Note_on_c, 9, 59, 44
4, 29188, Note_on_c, 9, 59, 0
4, 29860, Note_on_c, 9, 59, 46
4, 30268, Note_on_c, 9, 59, 0
4, 30615, Note_on_c, 9, 59, 36
4, 30742, Note_on_c, 9, 59, 0
4, 30973, Note_on_c, 9, 59, 48
4, 31127, Note_on_c, 9, 59, 0
4, 31802, Note_on_c, 9, 59, 60
4, 32261, Note_on_c, 9, 59, 0
4, 32841, Note_on_c, 9, 59, 32
4, 33205, Note_on_c, 9, 59, 0
4, 33675, Note_on_c, 9, 59, 62
4, 33903, Note_on_c, 9, 59, 0
4, 34377, Note_on_c, 9, 59, 44
4, 34481, Note_on_c, 9, 59, 0
4, 34714, Note_on_c, 9, 59, 54
4, 34827, Note_on_c, 9, 59, 0
4, 35573, Note_on_c, 9, 59, 81
4, 36168, Note_on_c, 9, 59, 0
4, 36615, Note_on_c, 9, 59, 36
4, 36739, Note_on_c, 9, 59, 0
4, 37174, Note_on_c, 9, 59, 67
4, 37284, Note_on_c, 9, 59, 0
4, 37529, Note_on_c, 9, 59, 66
4, 38127, Note_on_c, 9, 59, 0
4, 38491, Note_on_c, 9, 59, 28
4, 38660, Note_on_c, 9, 59, 0
4, 39083, Note_on_c, 9, 59, 72
4, 39344, Note_on_c, 9, 59, 0
4, 40034, Note_on_c, 9, 59, 40
4, 40146, Note_on_c, 9, 59, 0
4, 40424, Note_on_c, 9, 59, 52
4, 41034, Note_on_c, 9, 59, 0
4, 41312, Note_on_c, 9, 59, 50
4, 41437, Note_on_c, 9, 59, 0
4, 41907, Note_on_c, 9, 59, 71
4, 42369, Note_on_c, 9, 59, 0
4, 42928, Note_on_c, 9, 59, 38
4, 43050, Note_on_c, 9, 59, 0
4, 43302, Note_on_c, 9, 59, 57
4, 43737, Note_on_c, 9, 59, 0
4, 44311, Note_on_c, 9, 59, 46
4, 44648, Note_on_c, 9, 59, 0
4, 45270, Note_on_c, 9, 59, 50
4, 45735, Note_on_c, 9, 59, 0
4, 46220, Note_on_c, 9, 59, 37
4, 46513, Note_on_c, 9, 59, 0
4, 47176, Note_on_c, 9, 59, 73
4, 47588, Note_on_c, 9, 59, 0
4, 47878, Note_on_c, 9, 59, 46
4, 47999, Note_on_c, 9, 59, 0
4, 48271, Note_on_c, 9, 59, 57
4, 48650, Note_on_c, 9, 59, 0
4, 49686, Note_on_c, 9, 59, 47
4, 49793, Note_on_c, 9, 59, 0
4, 50071, Note_on_c, 9, 59, 55
4, 50198, Note_on_c, 9, 59, 0
4, 51039, Note_on_c, 9, 59, 55
4, 51512, Note_on_c, 9, 59, 0
4, 52048, Note_on_c, 9, 59, 33
4, 52252, Note_on_c, 9, 59, 0
4, 52981, Note_on_c, 9, 59, 45
4, 53380, Note_on_c, 9, 59, 0
4, 53886, Note_on_c, 9, 59, 34
4, 54017, Note_on_c, 9, 59, 0
4, 54816, Note_on_c, 9, 59, 66
4, 55233, Note_on_c, 9, 59, 0
4, 55787, Note_on_c, 9, 59, 40
4, 55935, Note_on_c, 9, 59, 0
4, 56808, Note_on_c, 9, 59, 46
4, 57059, Note_on_c, 9, 59, 0
4, 57773, Note_on_c, 9, 59, 41
4, 57965, Note_on_c, 9, 59, 0
4, 58687, Note_on_c, 9, 59, 32
4, 58874, Note_on_c, 9, 59, 0
4, 59179, Note_on_c, 9, 59, 49
4, 59430, Note_on_c, 9, 59, 0
4, 60230, Note_on_c, 9, 59, 42
4, 60372, Note_on_c, 9, 59, 0
4, 60609, Note_on_c, 9, 53, 35
4, 60653, Note_on_c, 9, 59, 58
4, 61041, Note_on_c, 9, 59, 0
4, 61132, Note_on_c, 9, 53, 0
4, 61553, Note_on_c, 9, 59, 35
4, 61707, Note_on_c, 9, 59, 0
4, 62180, Note_on_c, 9, 59, 62
4, 62186, Note_on_c, 9, 53, 48
4, 62444, Note_on_c, 9, 53, 0
4, 62556, Note_on_c, 9, 59, 0
4, 63033, Note_on_c, 9, 59, 47
4, 63142, Note_on_c, 9, 59, 0
4, 63506, Note_on_c, 9, 53, 51
4, 63569, Note_on_c, 9, 59, 49
4, 63870, Note_on_c, 9, 53, 0
4, 64001, Note_on_c, 9, 59, 0
4, 64397, Note_on_c, 9, 59, 34
4, 64542, Note_on_c, 9, 59, 0
4, 65004, Note_on_c, 9, 53, 57
4, 65034, Note_on_c, 9, 59, 62
4, 65211, Note_on_c, 9, 53, 0
4, 65404, Note_on_c, 9, 59, 0
4, 65934, Note_on_c, 9, 59, 48
4, 66070, Note_on_c, 9, 59, 0
4, 66398, Note_on_c, 9, 59, 60
4, 66928, Note_on_c, 9, 59, 0
4, 67351, Note_on_c, 9, 59, 36
4, 67488, Note_on_c, 9, 59, 0
4, 67940, Note_on_c, 9, 59, 61
4, 68225, Note_on_c, 9, 59, 0
4, 68799, Note_on_c, 9, 59, 46
4, 68905, Note_on_c, 9, 59, 0
4, 69219, Note_on_c, 9, 59, 51
4, 69639, Note_on_c, 9, 59, 0
4, 70255, Note_on_c, 9, 59, 42
4, 70445, Note_on_c, 9, 59, 0
4, 71114, Note_on_c, 9, 59, 44
4, 71309, Note_on_c, 9, 59, 0
4, 72052, Note_on_c, 9, 59, 42
4, 72274, Note_on_c, 9, 59, 0
4, 72673, Note_on_c, 9, 59, 40
4, 72807, Note_on_c, 9, 59, 0
4, 73061, Note_on_c, 9, 59, 44
4, 73203, Note_on_c, 9, 59, 0
4, 74062, Note_on_c, 9, 59, 42
4, 74180, Note_on_c, 9, 59, 0
4, 74671, Note_on_c, 9, 59, 57
4, 74778, Note_on_c, 9, 59, 0
4, 75050, Note_on_c, 9, 59, 55
4, 75432, Note_on_c, 9, 59, 0
4, 76548, Note_on_c, 9, 59, 34
4, 76675, Note_on_c, 9, 59, 0
4, 76912, Note_on_c, 9, 59, 60
4, 77291, Note_on_c, 9, 59, 0
4, 78437, Note_on_c, 9, 59, 48
4, 78570, Note_on_c, 9, 59, 0
4, 78878, Note_on_c, 9, 59, 48
4, 79023, Note_on_c, 9, 59, 0
4, 79769, Note_on_c, 9, 59, 55
4, 80121, Note_on_c, 9, 59, 0
4, 80742, Note_on_c, 9, 59, 50
4, 81104, Note_on_c, 9, 59, 0
4, 81713, Note_on_c, 9, 59, 46
4, 81980, Note_on_c, 9, 59, 0
4, 82637, Note_on_c, 9, 59, 45
4, 82897, Note_on_c, 9, 59, 0
4, 83575, Note_on_c, 9, 59, 43
4, 83960, Note_on_c, 9, 59, 0
4, 84585, Note_on_c, 9, 59, 43
4, 84886, Note_on_c, 9, 59, 0
4, 85517, Note_on_c, 9, 59, 57
4, 85840, Note_on_c, 9, 59, 0
4, 86180, Note_on_c, 9, 59, 46
4, 86301, Note_on_c, 9, 59, 0
4, 86541, Note_on_c, 9, 59, 44
4, 86982, Note_on_c, 9, 59, 0
4, 87485, Note_on_c, 9, 59, 48
4, 87710, Note_on_c, 9, 59, 0
4, 88069, Note_on_c, 9, 59, 37
4, 88193, Note_on_c, 9, 59, 0
4, 88433, Note_on_c, 9, 59, 58
4, 88741, Note_on_c, 9, 59, 0
4, 89321, Note_on_c, 9, 59, 52
4, 89566, Note_on_c, 9, 59, 0
4, 90330, Note_on_c, 9, 59, 50
4, 90632, Note_on_c, 9, 59, 0
4, 91215, Note_on_c, 9, 59, 82
4, 91721, Note_on_c, 9, 59, 0
4, 92304, Note_on_c, 9, 59, 37
4, 92426, Note_on_c, 9, 59, 0
4, 92828, Note_on_c, 9, 59, 68
4, 93124, Note_on_c, 9, 59, 0
4, 93781, Note_on_c, 9, 59, 51
4, 93915, Note_on_c, 9, 59, 0
4, 94213, Note_on_c, 9, 59, 62
4, 94646, Note_on_c, 9, 59, 0
4, 95137, Note_on_c, 9, 59, 36
4, 95258, Note_on_c, 9, 59, 0
4, 95729, Note_on_c, 9, 59, 69
4, 96078, Note_on_c, 9, 59, 0
4, 96661, Note_on_c, 9, 59, 51
4, 96771, Note_on_c, 9, 59, 0
4, 97026, Note_on_c, 9, 59, 62
4, 97490, Note_on_c, 9, 59, 0
4, 98094, Note_on_c, 9, 59, 55
4, 98372, Note_on_c, 9, 59, 0
4, 98958, Note_on_c, 9, 59, 51
4, 99189, Note_on_c, 9, 59, 0
4, 99911, Note_on_c, 9, 59, 46
4, 100278, Note_on_c, 9, 59, 0
4, 100888, Note_on_c, 9, 59, 40
4, 101208, Note_on_c, 9, 59, 0
4, 101821, Note_on_c, 9, 59, 42
4, 102025, Note_on_c, 9, 59, 0
4, 102720, Note_on_c, 9, 59, 74
4, 103138, Note_on_c, 9, 59, 0
4, 103768, Note_on_c, 9, 59, 32
4, 103899, Note_on_c, 9, 59, 0
4, 104464, Note_on_c, 9, 59, 70
4, 104674, Note_on_c, 9, 59, 0
4, 105384, Note_on_c, 9, 59, 49
4, 105491, Note_on_c, 9, 59, 0
4, 105769, Note_on_c, 9, 59, 59
4, 106181, Note_on_c, 9, 59, 0
4, 106740, Note_on_c, 9, 59, 20
4, 106859, Note_on_c, 9, 59, 0
4, 107246, Note_on_c, 9, 59, 62
4, 107539, Note_on_c, 9, 59, 0
4, 108188, Note_on_c, 9, 59, 51
4, 108294, Note_on_c, 9, 59, 0
4, 108638, Note_on_c, 9, 59, 51
4, 108939, Note_on_c, 9, 59, 0
4, 109487, Note_on_c, 9, 59, 43
4, 109597, Note_on_c, 9, 59, 0
4, 110138, Note_on_c, 9, 59, 66
4, 110428, Note_on_c, 9, 59, 0
4, 111056, Note_on_c, 9, 59, 57
4, 111159, Note_on_c, 9, 59, 0
4, 111429, Note_on_c, 9, 59, 52
4, 111766, Note_on_c, 9, 59, 0
4, 112332, Note_on_c, 9, 59, 46
4, 112429, Note_on_c, 9, 59, 0
4, 112927, Note_on_c, 9, 59, 67
4, 113199, Note_on_c, 9, 59, 0
4, 113948, Note_on_c, 9, 59, 51
4, 114045, Note_on_c, 9, 59, 0
4, 114285, Note_on_c, 9, 59, 58
4, 114593, Note_on_c, 9, 59, 0
4, 115229, Note_on_c, 9, 59, 56
4, 115380, Note_on_c, 9, 59, 0
4, 116215, Note_on_c, 9, 59, 66
4, 116532, Note_on_c, 9, 59, 0
4, 117269, Note_on_c, 9, 59, 34
4, 117405, Note_on_c, 9, 59, 0
4, 118142, Note_on_c, 9, 59, 73
4, 118512, Note_on_c, 9, 59, 0
4, 119125, Note_on_c, 9, 59, 21
4, 119338, Note_on_c, 9, 59, 0
4, 120081, Note_on_c, 9, 59, 66
4, 120436, Note_on_c, 9, 59, 0
4, 121055, Note_on_c, 9, 59, 28
4, 121206, Note_on_c, 9, 59, 0
4, 121972, Note_on_c, 9, 59, 71
4, 122351, Note_on_c, 9, 59, 0
4, 122896, Note_on_c, 9, 59, 37
4, 123050, Note_on_c, 9, 59, 0
4, 123914, Note_on_c, 9, 59, 73
4, 124349, Note_on_c, 9, 59, 0
4, 124900, Note_on_c, 9, 59, 39
4, 125080, Note_on_c, 9, 59, 0
4, 125868, Note_on_c, 9, 59, 76
4, 126333, Note_on_c, 9, 59, 0
4, 126859, Note_on_c, 9, 59, 36
4, 127007, Note_on_c, 9, 59, 0
4, 127851, Note_on_c, 9, 59, 75
4, 128251, Note_on_c, 9, 59, 0
4, 128822, Note_on_c, 9, 59, 35
4, 128949, Note_on_c, 9, 59, 0
4, 129790, Note_on_c, 9, 59, 60
4, 130089, Note_on_c, 9, 59, 0
4, 130728, Note_on_c, 9, 59, 43
4, 130838, Note_on_c, 9, 59, 0
4, 131643, Note_on_c, 9, 59, 75
4, 132167, Note_on_c, 9, 59, 0
4, 133188, Note_on_c, 9, 59, 56
4, 133292, Note_on_c, 9, 59, 0
4, 133540, Note_on_c, 9, 59, 59
4, 133966, Note_on_c, 9, 59, 0
4, 134455, Note_on_c, 9, 59, 57
4, 134804, Note_on_c, 9, 59, 0
4, 135399, Note_on_c, 9, 59, 50
4, 135766, Note_on_c, 9, 59, 0
4, 136109, Note_on_c, 9, 59, 35
4, 136240, Note_on_c, 9, 59, 0
4, 136485, Note_on_c, 9, 59, 43
4, 136802, Note_on_c, 9, 59, 0
4, 137344, Note_on_c, 9, 59, 63
4, 137663, Note_on_c, 9, 59, 0
4, 138347, Note_on_c, 9, 59, 38
4, 138584, Note_on_c, 9, 59, 0
4, 139333, Note_on_c, 9, 59, 72
4, 139768, Note_on_c, 9, 59, 0
4, 140354, Note_on_c, 9, 59, 31
4, 140517, Note_on_c, 9, 59, 0
4, 141269, Note_on_c, 9, 59, 75
4, 141662, Note_on_c, 9, 59, 0
4, 142882, Note_on_c, 9, 59, 71
4, 143175, Note_on_c, 9, 59, 0
4, 143814, Note_on_c, 9, 59, 46
4, 143944, Note_on_c, 9, 59, 0
4, 144240, Note_on_c, 9, 59, 62
4, 144593, Note_on_c, 9, 59, 0
4, 145120, Note_on_c, 9, 59, 40
4, 145235, Note_on_c, 9, 59, 0
4, 145697, Note_on_c, 9, 59, 66
4, 146061, Note_on_c, 9, 59, 0
4, 146620, Note_on_c, 9, 59, 57
4, 146739, Note_on_c, 9, 59, 0
4, 147017, Note_on_c, 9, 59, 67
4, 147414, Note_on_c, 9, 59, 0
4, 148014, Note_on_c, 9, 59, 58
4, 148334, Note_on_c, 9, 59, 0
4, 148935, Note_on_c, 9, 59, 57
4, 149258, Note_on_c, 9, 59, 0
4, 149592, Note_on_c, 9, 59, 42
4, 149722, Note_on_c, 9, 59, 0
4, 149944, Note_on_c, 9, 59, 43
4, 150086, Note_on_c, 9, 59, 0
4, 150761, Note_on_c, 9, 59, 62
4, 151081, Note_on_c, 9, 59, 0
4, 151424, Note_on_c, 9, 59, 42
4, 151537, Note_on_c, 9, 59, 0
4, 151783, Note_on_c, 9, 59, 61
4, 152117, Note_on_c, 9, 59, 0
4, 152718, Note_on_c, 9, 59, 44
4, 152842, Note_on_c, 9, 59, 0
4, 153310, Note_on_c, 9, 59, 62
4, 153461, Note_on_c, 9, 59, 0
4, 154254, Note_on_c, 9, 59, 46
4, 154378, Note_on_c, 9, 59, 0
4, 154636, Note_on_c, 9, 59, 59
4, 154805, Note_on_c, 9, 59, 0
4, 156181, Note_on_c, 9, 59, 67
4, 156456, Note_on_c, 9, 59, 0
4, 157128, Note_on_c, 9, 59, 45
4, 157232, Note_on_c, 9, 59, 0
4, 157516, Note_on_c, 9, 59, 51
4, 157859, Note_on_c, 9, 59, 0
4, 158469, Note_on_c, 9, 59, 40
4, 158593, Note_on_c, 9, 59, 0
4, 159035, Note_on_c, 9, 59, 60
4, 159325, Note_on_c, 9, 59, 0
4, 160020, Note_on_c, 9, 59, 50
4, 160124, Note_on_c, 9, 59, 0
4, 160423, Note_on_c, 9, 59, 57
4, 160820, Note_on_c, 9, 59, 0
4, 161444, Note_on_c, 9, 59, 30
4, 161592, Note_on_c, 9, 59, 0
4, 162009, Note_on_c, 9, 59, 58
4, 162288, Note_on_c, 9, 59, 0
4, 163004, Note_on_c, 9, 59, 60
4, 163119, Note_on_c, 9, 59, 0
4, 163871, Note_on_c, 9, 59, 63
4, 164073, Note_on_c, 9, 59, 0
4, 164298, Note_on_c, 9, 59, 56
4, 164443, Note_on_c, 9, 59, 0
4, 164869, Note_on_c, 9, 59, 62
4, 164999, Note_on_c, 9, 59, 0
4, 165280, Note_on_c, 9, 59, 54
4, 165393, Note_on_c, 9, 59, 0
4, 166186, Note_on_c, 9, 59, 62
4, 166488, Note_on_c, 9, 59, 0
4, 166802, Note_on_c, 9, 59, 39
4, 166938, Note_on_c, 9, 59, 0
4, 167204, Note_on_c, 9, 59, 49
4, 167355, Note_on_c, 9, 59, 0
4, 168098, Note_on_c, 9, 59, 40
4, 168225, Note_on_c, 9, 59, 0
4, 168735, Note_on_c, 9, 59, 48
4, 168838, Note_on_c, 9, 59, 0
4, 169096, Note_on_c, 9, 59, 56
4, 169350, Note_on_c, 9, 59, 0
4, 170004, Note_on_c, 9, 59, 33
4, 170143, Note_on_c, 9, 59, 0
4, 170653, Note_on_c, 9, 59, 48
4, 170756, Note_on_c, 9, 59, 0
4, 170993, Note_on_c, 9, 59, 57
4, 171357, Note_on_c, 9, 59, 0
4, 171964, Note_on_c, 9, 59, 40
4, 172079, Note_on_c, 9, 59, 0
4, 172603, Note_on_c, 9, 59, 52
4, 172713, Note_on_c, 9, 59, 0
4, 172947, Note_on_c, 9, 59, 60
4, 173237, Note_on_c, 9, 59, 0
4, 173885, Note_on_c, 9, 59, 46
4, 174216, Note_on_c, 9, 59, 0
4, 174859, Note_on_c, 9, 59, 62
4, 175122, Note_on_c, 9, 59, 0
4, 175824, Note_on_c, 9, 59, 53
4, 175960, Note_on_c, 9, 59, 0
4, 176472, Note_on_c, 9, 59, 46
4, 176570, Note_on_c, 9, 59, 0
4, 176786, Note_on_c, 9, 59, 57
4, 177055, Note_on_c, 9, 59, 0
4, 177727, Note_on_c, 9, 59, 62
4, 177943, Note_on_c, 9, 59, 0
4, 178458, Note_on_c, 9, 59, 30
4, 178603, Note_on_c, 9, 59, 0
4, 178763, Note_on_c, 9, 59, 55
4, 179003, Note_on_c, 9, 59, 0
4, 179630, Note_on_c, 9, 59, 61
4, 179781, Note_on_c, 9, 59, 0
4, 180302, Note_on_c, 9, 59, 48
4, 180403, Note_on_c, 9, 59, 0
4, 180651, Note_on_c, 9, 59, 53
4, 180942, Note_on_c, 9, 59, 0
4, 181498, Note_on_c, 9, 59, 62
4, 181679, Note_on_c, 9, 59, 0
4, 182197, Note_on_c, 9, 59, 33
4, 182336, Note_on_c, 9, 59, 0
4, 182528, Note_on_c, 9, 59, 54
4, 182821, Note_on_c, 9, 59, 0
4, 183366, Note_on_c, 9, 59, 60
4, 183588, Note_on_c, 9, 59, 0
4, 184047, Note_on_c, 9, 59, 25
4, 184195, Note_on_c, 9, 59, 0
4, 184378, Note_on_c, 9, 59, 35
4, 184718, Note_on_c, 9, 59, 0
4, 185331, Note_on_c, 9, 59, 62
4, 185639, Note_on_c, 9, 59, 0
4, 185965, Note_on_c, 9, 59, 36
4, 186089, Note_on_c, 9, 59, 0
4, 186326, Note_on_c, 9, 59, 60
4, 186610, Note_on_c, 9, 59, 0
4, 187246, Note_on_c, 9, 59, 70
4, 187575, Note_on_c, 9, 59, 0
4, 187912, Note_on_c, 9, 59, 42
4, 188019, Note_on_c, 9, 59, 0
4, 188262, Note_on_c, 9, 59, 55
4, 188587, Note_on_c, 9, 59, 0
4, 189147, Note_on_c, 9, 59, 71
4, 189475, Note_on_c, 9, 59, 0
4, 189813, Note_on_c, 9, 59, 36
4, 189934, Note_on_c, 9, 59, 0
4, 190162, Note_on_c, 9, 59, 62
4, 190470, Note_on_c, 9, 59, 0
4, 191038, Note_on_c, 9, 59, 69
4, 191352, Note_on_c, 9, 59, 0
4, 191633, Note_on_c, 9, 59, 41
4, 191769, Note_on_c, 9, 59, 0
4, 192050, Note_on_c, 9, 59, 54
4, 192343, Note_on_c, 9, 59, 0
4, 192959, Note_on_c, 9, 59, 66
4, 193305, Note_on_c, 9, 59, 0
4, 193587, Note_on_c, 9, 59, 45
4, 193699, Note_on_c, 9, 59, 0
4, 193977, Note_on_c, 9, 59, 50
4, 194294, Note_on_c, 9, 59, 0
4, 194871, Note_on_c, 9, 59, 72
4, 195167, Note_on_c, 9, 59, 0
4, 195818, Note_on_c, 9, 59, 82
4, 196236, Note_on_c, 9, 59, 0
4, 196612, Note_on_c, 9, 59, 26
4, 196763, Note_on_c, 9, 59, 0
4, 197375, Note_on_c, 9, 59, 76
4, 197775, Note_on_c, 9, 59, 0
4, 198453, Note_on_c, 9, 59, 52
4, 198559, Note_on_c, 9, 59, 0
4, 198838, Note_on_c, 9, 59, 57
4, 199270, Note_on_c, 9, 59, 0
4, 199826, Note_on_c, 9, 59, 33
4, 199960, Note_on_c, 9, 59, 0
4, 200409, Note_on_c, 9, 59, 75
4, 200700, Note_on_c, 9, 59, 0
4, 201292, Note_on_c, 9, 59, 40
4, 201404, Note_on_c, 9, 59, 0
4, 201647, Note_on_c, 9, 59, 59
4, 202017, Note_on_c, 9, 59, 0
4, 202624, Note_on_c, 9, 59, 68
4, 202973, Note_on_c, 9, 59, 0
4, 203260, Note_on_c, 9, 59, 53
4, 203432, Note_on_c, 9, 59, 0
4, 203704, Note_on_c, 9, 59, 56
4, 203890, Note_on_c, 9, 59, 0
4, 204485, Note_on_c, 9, 59, 43
4, 204823, Note_on_c, 9, 59, 0
4, 205314, Note_on_c, 9, 59, 52
4, 205687, Note_on_c, 9, 59, 0
4, 206383, Note_on_c, 9, 59, 57
4, 206717, Note_on_c, 9, 59, 0
4, 207431, Note_on_c, 9, 59, 58
4, 207735, Note_on_c, 9, 59, 0
4, 208384, Note_on_c, 9, 59, 62
4, 208774, Note_on_c, 9, 59, 0
4, 209361, Note_on_c, 9, 59, 36
4, 209556, Note_on_c, 9, 59, 0
4, 210204, Note_on_c, 9, 59, 54
4, 210666, Note_on_c, 9, 59, 0
4, 211184, Note_on_c, 9, 59, 43
4, 211302, Note_on_c, 9, 59, 0
4, 212190, Note_on_c, 9, 59, 64
4, 212664, Note_on_c, 9, 59, 0
4, 213297, Note_on_c, 9, 59, 18
4, 213425, Note_on_c, 9, 59, 0
4, 214073, Note_on_c, 9, 59, 69
4, 214535, Note_on_c, 9, 59, 0
4, 215150, Note_on_c, 9, 59, 37
4, 215346, Note_on_c, 9, 59, 0
4, 215772, Note_on_c, 9, 59, 72
4, 216334, Note_on_c, 9, 59, 0
4, 217015, Note_on_c, 9, 59, 60
4, 217462, Note_on_c, 9, 59, 0
4, 217945, Note_on_c, 9, 59, 46
4, 218045, Note_on_c, 9, 59, 0
4, 218581, Note_on_c, 9, 59, 66
4, 218693, Note_on_c, 9, 59, 0
4, 218954, Note_on_c, 9, 59, 64
4, 219478, Note_on_c, 9, 59, 0
4, 219928, Note_on_c, 9, 59, 75
4, 220407, Note_on_c, 9, 59, 0
4, 220899, Note_on_c, 9, 59, 42
4, 221020, Note_on_c, 9, 59, 0
4, 221508, Note_on_c, 9, 59, 74
4, 221952, Note_on_c, 9, 59, 0
4, 222461, Note_on_c, 9, 59, 49
4, 222592, Note_on_c, 9, 59, 0
4, 222894, Note_on_c, 9, 59, 69
4, 223406, Note_on_c, 9, 59, 0
4, 223850, Note_on_c, 9, 59, 32
4, 223983, Note_on_c, 9, 59, 0
4, 224377, Note_on_c, 9, 59, 70
4, 224785, Note_on_c, 9, 59, 0
4, 225327, Note_on_c, 9, 59, 47
4, 225436, Note_on_c, 9, 59, 0
4, 225688, Note_on_c, 9, 59, 59
4, 226120, Note_on_c, 9, 59, 0
4, 226644, Note_on_c, 9, 59, 63
4, 227023, Note_on_c, 9, 59, 0
4, 227582, Note_on_c, 9, 59, 75
4, 228038, Note_on_c, 9, 59, 0
4, 228612, Note_on_c, 9, 59, 40
4, 228775, Note_on_c, 9, 59, 0
4, 229480, Note_on_c, 9, 59, 64
4, 229805, Note_on_c, 9, 59, 0
4, 230072, Note_on_c, 9, 59, 47
4, 230208, Note_on_c, 9, 59, 0
4, 230536, Note_on_c, 9, 59, 43
4, 230797, Note_on_c, 9, 59, 0
4, 231430, Note_on_c, 9, 59, 54
4, 231759, Note_on_c, 9, 59, 0
4, 232052, Note_on_c, 9, 59, 47
4, 232173, Note_on_c, 9, 59, 0
4, 232440, Note_on_c, 9, 59, 59
4, 232759, Note_on_c, 9, 59, 0
4, 233301, Note_on_c, 9, 59, 50
4, 233559, Note_on_c, 9, 59, 0
4, 234023, Note_on_c, 9, 59, 46
4, 234142, Note_on_c, 9, 59, 0
4, 234393, Note_on_c, 9, 59, 51
4, 234535, Note_on_c, 9, 59, 0
4, 235275, Note_on_c, 9, 59, 48
4, 235411, Note_on_c, 9, 59, 0
4, 236217, Note_on_c, 9, 59, 49
4, 236593, Note_on_c, 9, 59, 0
4, 237173, Note_on_c, 9, 59, 48
4, 237552, Note_on_c, 9, 59, 0
4, 237895, Note_on_c, 9, 59, 50
4, 238016, Note_on_c, 9, 59, 0
4, 238274, Note_on_c, 9, 59, 48
4, 238496, Note_on_c, 9, 59, 0
4, 239132, Note_on_c, 9, 59, 53
4, 239301, Note_on_c, 9, 59, 0
4, 239775, Note_on_c, 9, 59, 49
4, 239878, Note_on_c, 9, 59, 0
4, 240580, Note_on_c, 9, 59, 60
4, 240790, Note_on_c, 9, 59, 0
4, 240979, Note_on_c, 9, 59, 53
4, 241234, Note_on_c, 9, 59, 0
4, 242498, Note_on_c, 9, 59, 63
4, 242752, Note_on_c, 9, 59, 0
4, 243528, Note_on_c, 9, 59, 57
4, 243649, Note_on_c, 9, 59, 0
4, 243927, Note_on_c, 9, 59, 59
4, 244250, Note_on_c, 9, 59, 0
4, 244863, Note_on_c, 9, 59, 33
4, 244987, Note_on_c, 9, 59, 0
4, 245431, Note_on_c, 9, 59, 73
4, 245718, Note_on_c, 9, 59, 0
4, 246378, Note_on_c, 9, 59, 42
4, 246503, Note_on_c, 9, 59, 0
4, 246757, Note_on_c, 9, 59, 56
4, 246944, Note_on_c, 9, 59, 0
4, 247728, Note_on_c, 9, 59, 74
4, 248273, Note_on_c, 9, 59, 0
4, 248729, Note_on_c, 9, 59, 47
4, 249019, Note_on_c, 9, 59, 0
4, 249362, Note_on_c, 9, 59, 51
4, 249457, Note_on_c, 9, 59, 0
4, 249699, Note_on_c, 9, 59, 60
4, 250229, Note_on_c, 9, 59, 0
4, 250739, Note_on_c, 9, 59, 56
4, 251040, Note_on_c, 9, 59, 0
4, 251399, Note_on_c, 9, 59, 44
4, 251508, Note_on_c, 9, 59, 0
4, 251727, Note_on_c, 9, 59, 62
4, 252082, Note_on_c, 9, 59, 0
4, 252580, Note_on_c, 9, 59, 52
4, 252763, Note_on_c, 9, 59, 0
4, 253228, Note_on_c, 9, 59, 43
4, 253340, Note_on_c, 9, 59, 0
4, 253580, Note_on_c, 9, 59, 60
4, 253873, Note_on_c, 9, 59, 0
4, 254477, Note_on_c, 9, 59, 66
4, 254788, Note_on_c, 9, 59, 0
4, 255131, Note_on_c, 9, 59, 34
4, 255255, Note_on_c, 9, 59, 0
4, 255501, Note_on_c, 9, 59, 54
4, 255643, Note_on_c, 9, 59, 0
4, 256386, Note_on_c, 9, 59, 55
4, 256715, Note_on_c, 9, 59, 0
4, 257031, Note_on_c, 9, 59, 43
4, 257182, Note_on_c, 9, 59, 0
4, 257422, Note_on_c, 9, 59, 46
4, 257910, Note_on_c, 9, 59, 0
4, 258372, Note_on_c, 9, 59, 63
4, 258772, Note_on_c, 9, 59, 0
4, 259038, Note_on_c, 9, 59, 50
4, 259139, Note_on_c, 9, 59, 0
4, 259402, Note_on_c, 9, 59, 60
4, 259900, Note_on_c, 9, 59, 0
4, 260320, Note_on_c, 9, 59, 56
4, 260521, Note_on_c, 9, 59, 0
4, 261016, Note_on_c, 9, 59, 64
4, 261255, Note_on_c, 9, 59, 0
4, 261880, Note_on_c, 9, 59, 69
4, 262069, Note_on_c, 9, 59, 0
4, 262309, Note_on_c, 9, 59, 67
4, 262564, Note_on_c, 9, 59, 0
4, 263209, Note_on_c, 9, 59, 75
4, 263514, Note_on_c, 9, 59, 0
4, 263798, Note_on_c, 9, 59, 55
4, 263961, Note_on_c, 9, 59, 0
4, 264707, Note_on_c, 9, 59, 64
4, 264849, Note_on_c, 9, 59, 0
4, 265103, Note_on_c, 9, 59, 62
4, 265396, Note_on_c, 9, 59, 0
4, 266092, Note_on_c, 9, 59, 62
4, 266403, Note_on_c, 9, 59, 0
4, 267027, Note_on_c, 9, 59, 46
4, 267166, Note_on_c, 9, 59, 0
4, 267977, Note_on_c, 9, 59, 86
4, 268330, Note_on_c, 9, 59, 0
4, 268886, Note_on_c, 9, 59, 44
4, 269046, Note_on_c, 9, 59, 0
4, 269898, Note_on_c, 9, 59, 80
4, 270378, Note_on_c, 9, 59, 0
4, 270890, Note_on_c, 9, 59, 37
4, 271207, Note_on_c, 9, 59, 0
4, 271816, Note_on_c, 9, 59, 76
4, 272272, Note_on_c, 9, 59, 0
4, 272835, Note_on_c, 9, 59, 37
4, 273001, Note_on_c, 9, 59, 0
4, 273758, Note_on_c, 9, 59, 73
4, 274205, Note_on_c, 9, 59, 0
4, 274765, Note_on_c, 9, 59, 36
4, 274892, Note_on_c, 9, 59, 0
4, 275377, Note_on_c, 9, 59, 69
4, 275602, Note_on_c, 9, 59, 0
4, 276200, Note_on_c, 9, 59, 48
4, 276304, Note_on_c, 9, 59, 0
4, 276505, Note_on_c, 9, 59, 62
4, 276887, Note_on_c, 9, 59, 0
4, 277488, Note_on_c, 9, 59, 62
4, 277793, Note_on_c, 9, 59, 0
4, 278506, Note_on_c, 9, 59, 65
4, 278808, Note_on_c, 9, 59, 0
4, 279125, Note_on_c, 9, 59, 60
4, 279367, Note_on_c, 9, 59, 0
4, 280075, Note_on_c, 9, 59, 60
4, 280170, Note_on_c, 9, 59, 0
4, 280427, Note_on_c, 9, 59, 56
4, 280851, Note_on_c, 9, 59, 0
4, 281401, Note_on_c, 9, 59, 62
4, 281594, Note_on_c, 9, 59, 0
4, 281910, Note_on_c, 9, 59, 55
4, 282239, Note_on_c, 9, 59, 0
4, 282846, Note_on_c, 9, 59, 58
4, 283059, Note_on_c, 9, 59, 0
4, 283254, Note_on_c, 9, 59, 57
4, 283506, Note_on_c, 9, 59, 0
4, 284210, Note_on_c, 9, 59, 59
4, 284562, Note_on_c, 9, 59, 0
4, 285190, Note_on_c, 9, 59, 60
4, 285560, Note_on_c, 9, 59, 0
4, 286173, Note_on_c, 9, 59, 49
4, 286386, Note_on_c, 9, 59, 0
4, 286729, Note_on_c, 9, 59, 57
4, 286877, Note_on_c, 9, 59, 0
4, 287093, Note_on_c, 9, 59, 26
4, 287372, Note_on_c, 9, 59, 0
4, 287860, Note_on_c, 9, 59, 59
4, 287969, Note_on_c, 9, 59, 0
4, 288233, Note_on_c, 9, 59, 50
4, 288523, Note_on_c, 9, 59, 0
4, 289103, Note_on_c, 9, 59, 60
4, 289387, Note_on_c, 9, 59, 0
4, 290181, Note_on_c, 9, 59, 51
4, 290479, Note_on_c, 9, 59, 0
4, 291116, Note_on_c, 9, 59, 54
4, 291444, Note_on_c, 9, 59, 0
4, 291809, Note_on_c, 9, 59, 69
4, 291859, Note_on_c, 9, 53, 54
4, 292241, Note_on_c, 9, 59, 0
4, 292584, Note_on_c, 9, 53, 0
4, 293069, Note_on_c, 9, 53, 66
4, 293105, Note_on_c, 9, 59, 67
4, 293620, Note_on_c, 9, 59, 0
4, 293738, Note_on_c, 9, 53, 0
4, 294005, Note_on_c, 9, 59, 42
4, 294313, Note_on_c, 9, 59, 0
4, 294612, Note_on_c, 9, 59, 55
4, 294902, Note_on_c, 9, 59, 0
4, 295449, Note_on_c, 9, 59, 44
4, 295579, Note_on_c, 9, 59, 0
4, 295849, Note_on_c, 9, 59, 67
4, 296376, Note_on_c, 9, 59, 0
4, 296793, Note_on_c, 9, 59, 44
4, 296917, Note_on_c, 9, 59, 0
4, 297347, Note_on_c, 9, 59, 54
4, 297814, Note_on_c, 9, 59, 0
4, 298238, Note_on_c, 9, 59, 53
4, 298335, Note_on_c, 9, 59, 0
4, 298664, Note_on_c, 9, 59, 62
4, 298732, Note_on_c, 9, 53, 37
4, 299238, Note_on_c, 9, 59, 0
4, 299552, Note_on_c, 9, 59, 48
4, 299581, Note_on_c, 9, 53, 0
4, 299818, Note_on_c, 9, 59, 0
4, 300265, Note_on_c, 9, 59, 69
4, 300289, Note_on_c, 9, 53, 55
4, 300644, Note_on_c, 9, 53, 0
4, 300721, Note_on_c, 9, 59, 0
4, 301150, Note_on_c, 9, 59, 51
4, 301275, Note_on_c, 9, 59, 0
4, 301609, Note_on_c, 9, 53, 57
4, 301645, Note_on_c, 9, 59, 62
4, 302094, Note_on_c, 9, 53, 0
4, 302157, Note_on_c, 9, 59, 0
4, 302515, Note_on_c, 9, 59, 45
4, 302719, Note_on_c, 9, 59, 0
4, 303154, Note_on_c, 9, 59, 68
4, 303622, Note_on_c, 9, 59, 0
4, 304060, Note_on_c, 9, 59, 43
4, 304190, Note_on_c, 9, 59, 0
4, 304459, Note_on_c, 9, 59, 67
4, 304785, Note_on_c, 9, 59, 0
4, 305421, Note_on_c, 9, 59, 69
4, 305871, Note_on_c, 9, 59, 0
4, 306348, Note_on_c, 9, 59, 46
4, 306446, Note_on_c, 9, 59, 0
4, 307274, Note_on_c, 9, 59, 62
4, 307615, Note_on_c, 9, 59, 0
4, 308192, Note_on_c, 9, 59, 54
4, 308532, Note_on_c, 9, 59, 0
4, 309053, Note_on_c, 9, 59, 60
4, 309435, Note_on_c, 9, 59, 0
4, 310125, Note_on_c, 9, 59, 68
4, 310406, Note_on_c, 9, 59, 0
4, 310675, Note_on_c, 9, 59, 48
4, 310823, Note_on_c, 9, 59, 0
4, 311119, Note_on_c, 9, 59, 60
4, 311418, Note_on_c, 9, 59, 0
4, 312019, Note_on_c, 9, 59, 73
4, 312360, Note_on_c, 9, 59, 0
4, 312632, Note_on_c, 9, 59, 45
4, 312762, Note_on_c, 9, 59, 0
4, 313061, Note_on_c, 9, 59, 48
4, 313230, Note_on_c, 9, 59, 0
4, 313976, Note_on_c, 9, 59, 71
4, 314310, Note_on_c, 9, 59, 0
4, 314606, Note_on_c, 9, 59, 40
4, 314731, Note_on_c, 9, 59, 0
4, 314997, Note_on_c, 9, 59, 56
4, 315314, Note_on_c, 9, 59, 0
4, 315909, Note_on_c, 9, 59, 66
4, 316223, Note_on_c, 9, 59, 0
4, 316566, Note_on_c, 9, 59, 34
4, 316711, Note_on_c, 9, 59, 0
4, 317004, Note_on_c, 9, 59, 51
4, 317143, Note_on_c, 9, 59, 0
4, 317851, Note_on_c, 9, 59, 62
4, 318114, Note_on_c, 9, 59, 0
4, 318419, Note_on_c, 9, 59, 41
4, 318531, Note_on_c, 9, 59, 0
4, 318780, Note_on_c, 9, 59, 54
4, 319114, Note_on_c, 9, 59, 0
4, 319769, Note_on_c, 9, 59, 64
4, 320032, Note_on_c, 9, 59, 0
4, 320737, Note_on_c, 9, 59, 35
4, 320861, Note_on_c, 9, 59, 0
4, 321619, Note_on_c, 9, 59, 93
4, 322113, Note_on_c, 9, 59, 0
4, 322646, Note_on_c, 9, 59, 49
4, 322812, Note_on_c, 9, 59, 0
4, 323626, Note_on_c, 9, 59, 66
4, 324001, Note_on_c, 9, 59, 0
4, 324262, Note_on_c, 9, 59, 48
4, 324366, Note_on_c, 9, 59, 0
4, 324596, Note_on_c, 9, 59, 60
4, 324889, Note_on_c, 9, 59, 0
4, 325511, Note_on_c, 9, 59, 54
4, 325644, Note_on_c, 9, 59, 0
4, 326201, Note_on_c, 9, 59, 35
4, 326337, Note_on_c, 9, 59, 0
4, 326565, Note_on_c, 9, 59, 62
4, 326825, Note_on_c, 9, 59, 0
4, 327453, Note_on_c, 9, 59, 36
4, 327586, Note_on_c, 9, 59, 0
4, 328077, Note_on_c, 9, 59, 57
4, 328178, Note_on_c, 9, 59, 0
4, 328433, Note_on_c, 9, 59, 57
4, 328874, Note_on_c, 9, 59, 0
4, 329389, Note_on_c, 9, 59, 35
4, 329519, Note_on_c, 9, 59, 0
4, 330019, Note_on_c, 9, 59, 51
4, 330120, Note_on_c, 9, 59, 0
4, 330336, Note_on_c, 9, 59, 62
4, 330691, Note_on_c, 9, 59, 0
4, 331295, Note_on_c, 9, 59, 48
4, 331484, Note_on_c, 9, 59, 0
4, 332174, Note_on_c, 9, 59, 56
4, 332517, Note_on_c, 9, 59, 0
4, 333098, Note_on_c, 9, 59, 68
4, 333468, Note_on_c, 9, 59, 0
4, 333873, Note_on_c, 9, 59, 37
4, 333994, Note_on_c, 9, 59, 0
4, 334178, Note_on_c, 9, 59, 48
4, 334521, Note_on_c, 9, 59, 0
4, 335072, Note_on_c, 9, 59, 60
4, 335409, Note_on_c, 9, 59, 0
4, 335954, Note_on_c, 9, 59, 54
4, 336363, Note_on_c, 9, 59, 0
4, 336940, Note_on_c, 9, 59, 63
4, 337251, Note_on_c, 9, 59, 0
4, 337911, Note_on_c, 9, 59, 55
4, 338127, Note_on_c, 9, 59, 0
4, 338834, Note_on_c, 9, 59, 44
4, 338941, Note_on_c, 9, 59, 0
4, 339799, Note_on_c, 9, 59, 55
4, 339900, Note_on_c, 9, 59, 0
4, 340527, Note_on_c, 9, 53, 54
4, 340583, Note_on_c, 9, 59, 51
4, 340643, Note_on_c, 9, 53, 0
4, 340705, Note_on_c, 9, 59, 0
4, 341297, Note_on_c, 9, 59, 48
4, 341323, Note_on_c, 9, 53, 46
4, 341457, Note_on_c, 9, 59, 0
4, 341480, Note_on_c, 9, 53, 0
4, 341948, Note_on_c, 9, 59, 60
4, 341980, Note_on_c, 9, 53, 41
4, 342105, Note_on_c, 9, 53, 0
4, 342244, Note_on_c, 9, 59, 0
4, 342723, Note_on_c, 9, 59, 48
4, 342783, Note_on_c, 9, 53, 30
4, 342827, Note_on_c, 9, 59, 0
4, 342922, Note_on_c, 9, 53, 0
4, 343395, Note_on_c, 9, 59, 60
4, 343413, Note_on_c, 9, 53, 48
4, 343709, Note_on_c, 9, 59, 0
4, 343721, Note_on_c, 9, 53, 0
4, 344236, Note_on_c, 9, 59, 50
4, 344251, Note_on_c, 9, 53, 34
4, 344387, Note_on_c, 9, 59, 0
4, 344420, Note_on_c, 9, 53, 0
4, 344760, Note_on_c, 9, 59, 57
4, 344795, Note_on_c, 9, 53, 48
4, 345062, Note_on_c, 9, 59, 0
4, 345124, Note_on_c, 9, 53, 0
4, 345553, Note_on_c, 9, 53, 48
4, 345618, Note_on_c, 9, 59, 42
4, 345769, Note_on_c, 9, 59, 0
4, 345772, Note_on_c, 9, 53, 0
4, 346219, Note_on_c, 9, 59, 50
4, 346240, Note_on_c, 9, 53, 48
4, 346346, Note_on_c, 9, 59, 0
4, 346486, Note_on_c, 9, 53, 0
4, 347084, Note_on_c, 9, 59, 40
4, 347086, Note_on_c, 9, 53, 37
4, 347232, Note_on_c, 9, 59, 0
4, 347371, Note_on_c, 9, 53, 0
4, 347533, Note_on_c, 9, 59, 52
4, 347533, Note_on_c, 9, 53, 44
4, 347815, Note_on_c, 9, 59, 0
4, 347892, Note_on_c, 9, 53, 0
4, 348418, Note_on_c, 9, 53, 31
4, 348481, Note_on_c, 9, 59, 56
4, 348691, Note_on_c, 9, 53, 0
4, 348848, Note_on_c, 9, 59, 0
4, 349481, Note_on_c, 9, 59, 42
4, 349644, Note_on_c, 9, 59, 0
4, 350422, Note_on_c, 9, 59, 62
4, 350754, Note_on_c, 9, 59, 0
4, 351014, Note_on_c, 9, 59, 45
4, 351115, Note_on_c, 9, 59, 0
4, 351352, Note_on_c, 9, 59, 54
4, 351831, Note_on_c, 9, 59, 0
4, 352361, Note_on_c, 9, 59, 36
4, 352497, Note_on_c, 9, 59, 0
4, 352924, Note_on_c, 9, 59, 72
4, 353338, Note_on_c, 9, 59, 0
4, 353868, Note_on_c, 9, 59, 50
4, 353971, Note_on_c, 9, 59, 0
4, 354262, Note_on_c, 9, 59, 60
4, 354833, Note_on_c, 9, 59, 0
4, 355221, Note_on_c, 9, 59, 48
4, 355324, Note_on_c, 9, 59, 0
4, 355821, Note_on_c, 9, 59, 75
4, 356183, Note_on_c, 9, 59, 0
4, 356692, Note_on_c, 9, 59, 50
4, 356798, Note_on_c, 9, 59, 0
4, 357121, Note_on_c, 9, 59, 56
4, 357509, Note_on_c, 9, 59, 0
4, 358115, Note_on_c, 9, 59, 63
4, 358527, Note_on_c, 9, 59, 0
4, 359116, Note_on_c, 9, 59, 39
4, 359261, Note_on_c, 9, 59, 0
4, 359738, Note_on_c, 9, 59, 72
4, 360111, Note_on_c, 9, 59, 0
4, 360599, Note_on_c, 9, 59, 51
4, 360717, Note_on_c, 9, 59, 0
4, 361001, Note_on_c, 9, 59, 63
4, 361431, Note_on_c, 9, 59, 0
4, 362064, Note_on_c, 9, 59, 36
4, 362197, Note_on_c, 9, 59, 0
4, 362564, Note_on_c, 9, 59, 69
4, 362899, Note_on_c, 9, 59, 0
4, 363550, Note_on_c, 9, 59, 51
4, 363663, Note_on_c, 9, 59, 0
4, 363914, Note_on_c, 9, 59, 57
4, 364169, Note_on_c, 9, 59, 0
4, 364832, Note_on_c, 9, 59, 77
4, 365208, Note_on_c, 9, 59, 0
4, 365776, Note_on_c, 9, 53, 62
4, 365782, Note_on_c, 9, 59, 63
4, 366371, Note_on_c, 9, 59, 0
4, 366907, Note_on_c, 9, 53, 0
4, 367179, Note_on_c, 9, 59, 33
4, 367318, Note_on_c, 9, 59, 0
4, 367579, Note_on_c, 9, 59, 70
4, 367623, Note_on_c, 9, 53, 61
4, 367972, Note_on_c, 9, 59, 0
4, 367987, Note_on_c, 9, 53, 0
4, 368363, Note_on_c, 9, 59, 46
4, 368467, Note_on_c, 9, 59, 0
4, 368695, Note_on_c, 9, 53, 66
4, 368721, Note_on_c, 9, 59, 62
4, 369183, Note_on_c, 9, 59, 0
4, 369660, Note_on_c, 9, 59, 29
4, 369674, Note_on_c, 9, 53, 0
4, 369811, Note_on_c, 9, 59, 0
4, 370195, Note_on_c, 9, 59, 81
4, 370210, Note_on_c, 9, 53, 71
4, 370494, Note_on_c, 9, 59, 0
4, 370595, Note_on_c, 9, 53, 0
4, 371140, Note_on_c, 9, 53, 75
4, 371329, Note_on_c, 9, 53, 0
4, 371521, Note_on_c, 9, 53, 71
4, 371954, Note_on_c, 9, 53, 0
4, 372501, Note_on_c, 9, 51, 90
4, 373013, Note_on_c, 9, 51, 0
4, 373487, Note_on_c, 9, 51, 42
4, 373670, Note_on_c, 9, 51, 0
4, 374218, Note_on_c, 9, 51, 42
4, 374333, Note_on_c, 9, 51, 0
4, 374552, Note_on_c, 9, 51, 50
4, 374925, Note_on_c, 9, 51, 0
4, 375470, Note_on_c, 9, 51, 57
4, 375594, Note_on_c, 9, 51, 0
4, 376219, Note_on_c, 9, 51, 30
4, 376379, Note_on_c, 9, 51, 0
4, 376488, Note_on_c, 9, 51, 32
4, 376852, Note_on_c, 9, 51, 0
4, 377362, Note_on_c, 9, 51, 72
4, 377684, Note_on_c, 9, 51, 0
4, 378042, Note_on_c, 9, 51, 44
4, 378158, Note_on_c, 9, 51, 0
4, 378383, Note_on_c, 9, 51, 60
4, 378753, Note_on_c, 9, 51, 0
4, 379291, Note_on_c, 9, 51, 71
4, 379623, Note_on_c, 9, 51, 0
4, 379978, Note_on_c, 9, 51, 43
4, 380093, Note_on_c, 9, 51, 0
4, 380318, Note_on_c, 9, 51, 54
4, 380691, Note_on_c, 9, 51, 0
4, 381201, Note_on_c, 9, 51, 73
4, 381695, Note_on_c, 9, 51, 0
4, 382050, Note_on_c, 9, 51, 33
4, 382390, Note_on_c, 9, 51, 0
4, 383056, Note_on_c, 9, 51, 70
4, 383465, Note_on_c, 9, 51, 0
4, 384232, Note_on_c, 9, 51, 49
4, 384545, Note_on_c, 9, 51, 0
4, 385046, Note_on_c, 9, 51, 69
4, 385421, Note_on_c, 9, 51, 0
4, 385735, Note_on_c, 9, 51, 38
4, 385857, Note_on_c, 9, 51, 0
4, 386070, Note_on_c, 9, 51, 56
4, 386478, Note_on_c, 9, 51, 0
4, 387002, Note_on_c, 9, 51, 74
4, 387301, Note_on_c, 9, 51, 0
4, 387692, Note_on_c, 9, 51, 39
4, 387801, Note_on_c, 9, 51, 0
4, 387997, Note_on_c, 9, 51, 57
4, 388352, Note_on_c, 9, 51, 0
4, 388991, Note_on_c, 9, 51, 73
4, 389355, Note_on_c, 9, 51, 0
4, 390021, Note_on_c, 9, 51, 34
4, 390240, Note_on_c, 9, 51, 0
4, 390874, Note_on_c, 9, 51, 75
4, 391324, Note_on_c, 9, 51, 0
4, 391809, Note_on_c, 9, 51, 46
4, 391945, Note_on_c, 9, 51, 0
4, 392750, Note_on_c, 9, 51, 76
4, 393153, Note_on_c, 9, 51, 0
4, 393656, Note_on_c, 9, 51, 44
4, 393786, Note_on_c, 9, 51, 0
4, 394704, Note_on_c, 9, 51, 71
4, 395027, Note_on_c, 9, 51, 0
4, 395352, Note_on_c, 9, 51, 40
4, 395462, Note_on_c, 9, 51, 0
4, 395672, Note_on_c, 9, 51, 55
4, 396083, Note_on_c, 9, 51, 0
4, 396625, Note_on_c, 9, 51, 65
4, 396963, Note_on_c, 9, 51, 0
4, 397338, Note_on_c, 9, 51, 33
4, 397481, Note_on_c, 9, 51, 0
4, 397605, Note_on_c, 9, 51, 32
4, 397987, Note_on_c, 9, 51, 0
4, 398505, Note_on_c, 9, 51, 65
4, 398869, Note_on_c, 9, 51, 0
4, 399191, Note_on_c, 9, 51, 35
4, 399322, Note_on_c, 9, 51, 0
4, 399576, Note_on_c, 9, 51, 46
4, 399715, Note_on_c, 9, 51, 0
4, 400441, Note_on_c, 9, 51, 73
4, 400781, Note_on_c, 9, 51, 0
4, 401376, Note_on_c, 9, 51, 60
4, 401666, Note_on_c, 9, 51, 0
4, 402344, Note_on_c, 9, 51, 64
4, 402350, Note_on_c, 9, 53, 60
4, 402809, Note_on_c, 9, 51, 0
4, 403265, Note_on_c, 9, 53, 0
4, 403383, Note_on_c, 9, 51, 41
4, 403560, Note_on_c, 9, 51, 0
4, 404315, Note_on_c, 9, 51, 65
4, 404345, Note_on_c, 9, 53, 48
4, 404875, Note_on_c, 9, 51, 0
4, 405079, Note_on_c, 9, 53, 0
4, 405342, Note_on_c, 9, 51, 35
4, 405668, Note_on_c, 9, 51, 0
4, 406153, Note_on_c, 9, 51, 51
4, 406609, Note_on_c, 9, 51, 0
4, 407104, Note_on_c, 9, 51, 52
4, 407426, Note_on_c, 9, 51, 0
4, 408107, Note_on_c, 9, 51, 78
4, 408533, Note_on_c, 9, 51, 0
4, 409078, Note_on_c, 9, 51, 33
4, 409211, Note_on_c, 9, 51, 0
4, 409620, Note_on_c, 9, 51, 71
4, 409883, Note_on_c, 9, 51, 0
4, 410022, Note_on_c, 9, 51, 60
4, 410289, Note_on_c, 9, 51, 0
4, 410940, Note_on_c, 9, 51, 64
4, 411295, Note_on_c, 9, 51, 0
4, 411893, Note_on_c, 9, 51, 62
4, 412233, Note_on_c, 9, 51, 0
4, 412529, Note_on_c, 9, 51, 37
4, 412654, Note_on_c, 9, 51, 0
4, 412899, Note_on_c, 9, 51, 51
4, 413411, Note_on_c, 9, 51, 0
4, 413867, Note_on_c, 9, 51, 62
4, 414160, Note_on_c, 9, 51, 0
4, 414563, Note_on_c, 9, 51, 43
4, 414666, Note_on_c, 9, 51, 0
4, 414906, Note_on_c, 9, 51, 46
4, 415125, Note_on_c, 9, 51, 0
4, 415806, Note_on_c, 9, 51, 66
4, 416143, Note_on_c, 9, 51, 0
4, 416419, Note_on_c, 9, 51, 40
4, 416543, Note_on_c, 9, 51, 0
4, 416786, Note_on_c, 9, 51, 54
4, 417170, Note_on_c, 9, 51, 0
4, 417721, Note_on_c, 9, 51, 75
4, 418156, Note_on_c, 9, 51, 0
4, 418408, Note_on_c, 9, 51, 44
4, 418541, Note_on_c, 9, 51, 0
4, 418831, Note_on_c, 9, 51, 36
4, 418994, Note_on_c, 9, 51, 0
4, 419725, Note_on_c, 9, 51, 75
4, 420125, Note_on_c, 9, 51, 0
4, 420435, Note_on_c, 9, 51, 34
4, 420560, Note_on_c, 9, 51, 0
4, 420794, Note_on_c, 9, 51, 48
4, 420968, Note_on_c, 9, 51, 0
4, 421652, Note_on_c, 9, 51, 66
4, 421995, Note_on_c, 9, 51, 0
4, 422570, Note_on_c, 9, 51, 57
4, 422898, Note_on_c, 9, 51, 0
4, 423552, Note_on_c, 9, 51, 76
4, 424017, Note_on_c, 9, 51, 0
4, 424514, Note_on_c, 9, 51, 35
4, 424633, Note_on_c, 9, 51, 0
4, 425411, Note_on_c, 9, 51, 71
4, 425938, Note_on_c, 9, 51, 0
4, 426284, Note_on_c, 9, 51, 30
4, 426554, Note_on_c, 9, 51, 0
4, 427297, Note_on_c, 9, 51, 62
4, 427643, Note_on_c, 9, 51, 0
4, 427880, Note_on_c, 9, 51, 49
4, 427986, Note_on_c, 9, 51, 0
4, 428229, Note_on_c, 9, 51, 51
4, 428688, Note_on_c, 9, 51, 0
4, 429289, Note_on_c, 9, 51, 50
4, 429422, Note_on_c, 9, 51, 0
4, 429910, Note_on_c, 9, 51, 46
4, 430008, Note_on_c, 9, 51, 0
4, 430227, Note_on_c, 9, 51, 51
4, 430662, Note_on_c, 9, 51, 0
4, 431148, Note_on_c, 9, 51, 42
4, 431260, Note_on_c, 9, 51, 0
4, 431754, Note_on_c, 9, 51, 45
4, 431867, Note_on_c, 9, 51, 0
4, 432101, Note_on_c, 9, 51, 52
4, 432491, Note_on_c, 9, 51, 0
4, 433009, Note_on_c, 9, 51, 57
4, 433308, Note_on_c, 9, 51, 0
4, 433601, Note_on_c, 9, 51, 48
4, 433735, Note_on_c, 9, 51, 0
4, 433992, Note_on_c, 9, 51, 49
4, 434415, Note_on_c, 9, 51, 0
4, 434978, Note_on_c, 9, 51, 60
4, 435360, Note_on_c, 9, 51, 0
4, 435626, Note_on_c, 9, 51, 39
4, 435744, Note_on_c, 9, 51, 0
4, 435969, Note_on_c, 9, 51, 54
4, 436292, Note_on_c, 9, 51, 0
4, 436911, Note_on_c, 9, 51, 55
4, 437224, Note_on_c, 9, 51, 0
4, 437532, Note_on_c, 9, 51, 46
4, 437630, Note_on_c, 9, 51, 0
4, 437908, Note_on_c, 9, 51, 50
4, 438530, Note_on_c, 9, 51, 0
4, 438820, Note_on_c, 9, 51, 47
4, 438968, Note_on_c, 9, 51, 0
4, 439539, Note_on_c, 9, 51, 56
4, 439640, Note_on_c, 9, 51, 0
4, 439903, Note_on_c, 9, 51, 50
4, 440406, Note_on_c, 9, 51, 0
4, 440791, Note_on_c, 9, 51, 47
4, 440901, Note_on_c, 9, 51, 0
4, 441463, Note_on_c, 9, 51, 48
4, 441564, Note_on_c, 9, 51, 0
4, 441774, Note_on_c, 9, 51, 54
4, 442123, Note_on_c, 9, 51, 0
4, 442653, Note_on_c, 9, 51, 69
4, 442931, Note_on_c, 9, 51, 0
4, 443671, Note_on_c, 9, 51, 55
4, 443766, Note_on_c, 9, 51, 0
4, 444243, Note_on_c, 9, 51, 42
4, 444349, Note_on_c, 9, 51, 0
4, 444545, Note_on_c, 9, 51, 59
4, 445048, Note_on_c, 9, 51, 0
4, 445515, Note_on_c, 9, 51, 68
4, 445797, Note_on_c, 9, 51, 0
4, 446389, Note_on_c, 9, 51, 64
4, 446756, Note_on_c, 9, 51, 0
4, 447031, Note_on_c, 9, 51, 43
4, 447140, Note_on_c, 9, 51, 0
4, 447354, Note_on_c, 9, 51, 57
4, 447679, Note_on_c, 9, 51, 0
4, 448321, Note_on_c, 9, 51, 67
4, 448644, Note_on_c, 9, 51, 0
4, 448902, Note_on_c, 9, 51, 43
4, 449014, Note_on_c, 9, 51, 0
4, 449266, Note_on_c, 9, 51, 50
4, 449671, Note_on_c, 9, 51, 0
4, 450293, Note_on_c, 9, 51, 77
4, 450710, Note_on_c, 9, 51, 0
4, 450965, Note_on_c, 9, 51, 39
4, 451086, Note_on_c, 9, 51, 0
4, 451305, Note_on_c, 9, 51, 57
4, 451720, Note_on_c, 9, 51, 0
4, 452285, Note_on_c, 9, 51, 76
4, 452797, Note_on_c, 9, 51, 0
4, 453241, Note_on_c, 9, 51, 44
4, 453380, Note_on_c, 9, 51, 0
4, 453928, Note_on_c, 9, 51, 56
4, 454029, Note_on_c, 9, 51, 0
4, 454227, Note_on_c, 9, 51, 61
4, 454798, Note_on_c, 9, 51, 0
4, 455216, Note_on_c, 9, 51, 72
4, 455550, Note_on_c, 9, 51, 0
4, 456053, Note_on_c, 9, 51, 58
4, 456379, Note_on_c, 9, 51, 0
4, 456749, Note_on_c, 9, 51, 54
4, 456853, Note_on_c, 9, 51, 0
4, 457039, Note_on_c, 9, 51, 60
4, 457444, Note_on_c, 9, 51, 0
4, 458051, Note_on_c, 9, 51, 59
4, 458377, Note_on_c, 9, 51, 0
4, 458765, Note_on_c, 9, 51, 22
4, 458904, Note_on_c, 9, 51, 0
4, 459025, Note_on_c, 9, 51, 35
4, 459407, Note_on_c, 9, 51, 0
4, 459916, Note_on_c, 9, 51, 66
4, 460271, Note_on_c, 9, 51, 0
4, 460597, Note_on_c, 9, 51, 33
4, 460721, Note_on_c, 9, 51, 0
4, 460937, Note_on_c, 9, 51, 59
4, 461322, Note_on_c, 9, 51, 0
4, 461840, Note_on_c, 9, 51, 68
4, 462337, Note_on_c, 9, 51, 0
4, 462855, Note_on_c, 9, 51, 51
4, 463000, Note_on_c, 9, 51, 0
4, 463755, Note_on_c, 9, 51, 52
4, 464252, Note_on_c, 9, 51, 0
4, 464850, Note_on_c, 9, 51, 22
4, 465028, Note_on_c, 9, 51, 0
4, 465712, Note_on_c, 9, 51, 62
4, 465726, Note_on_c, 9, 53, 57
4, 466298, Note_on_c, 9, 51, 0
4, 466520, Note_on_c, 9, 53, 0
4, 466816, Note_on_c, 9, 51, 25
4, 467203, Note_on_c, 9, 51, 0
4, 467650, Note_on_c, 9, 53, 51
4, 467656, Note_on_c, 9, 51, 52
4, 468216, Note_on_c, 9, 51, 0
4, 468438, Note_on_c, 9, 53, 0
4, 468704, Note_on_c, 9, 51, 28
4, 468894, Note_on_c, 9, 51, 0
4, 469563, Note_on_c, 9, 51, 49
4, 470001, Note_on_c, 9, 51, 0
4, 470474, Note_on_c, 9, 51, 44
4, 470868, Note_on_c, 9, 51, 0
4, 471489, Note_on_c, 9, 51, 70
4, 471762, Note_on_c, 9, 51, 0
4, 472537, Note_on_c, 9, 51, 30
4, 472742, Note_on_c, 9, 51, 0
4, 473396, Note_on_c, 9, 51, 48
4, 473739, Note_on_c, 9, 51, 0
4, 473982, Note_on_c, 9, 51, 53
4, 474094, Note_on_c, 9, 51, 0
4, 474378, Note_on_c, 9, 51, 47
4, 474808, Note_on_c, 9, 51, 0
4, 475252, Note_on_c, 9, 51, 59
4, 475583, Note_on_c, 9, 51, 0
4, 476249, Note_on_c, 9, 51, 48
4, 476542, Note_on_c, 9, 51, 0
4, 477179, Note_on_c, 9, 51, 76
4, 477552, Note_on_c, 9, 51, 0
4, 478070, Note_on_c, 9, 51, 45
4, 478244, Note_on_c, 9, 51, 0
4, 478978, Note_on_c, 9, 51, 57
4, 479301, Note_on_c, 9, 51, 0
4, 480002, Note_on_c, 9, 51, 39
4, 480145, Note_on_c, 9, 51, 0
4, 480538, Note_on_c, 9, 51, 46
4, 480651, Note_on_c, 9, 51, 0
4, 480926, Note_on_c, 9, 51, 51
4, 481524, Note_on_c, 9, 51, 0
4, 481962, Note_on_c, 9, 51, 60
4, 482362, Note_on_c, 9, 51, 0
4, 482820, Note_on_c, 9, 51, 46
4, 483072, Note_on_c, 9, 51, 0
4, 483540, Note_on_c, 9, 51, 50
4, 483637, Note_on_c, 9, 51, 0
4, 483830, Note_on_c, 9, 51, 54
4, 484333, Note_on_c, 9, 51, 0
4, 484895, Note_on_c, 9, 51, 40
4, 485008, Note_on_c, 9, 51, 0
4, 485523, Note_on_c, 9, 51, 50
4, 485626, Note_on_c, 9, 51, 0
4, 485878, Note_on_c, 9, 51, 48
4, 486402, Note_on_c, 9, 51, 0
4, 486831, Note_on_c, 9, 51, 54
4, 486932, Note_on_c, 9, 51, 0
4, 487441, Note_on_c, 9, 51, 52
4, 487556, Note_on_c, 9, 51, 0
4, 487811, Note_on_c, 9, 51, 53
4, 488299, Note_on_c, 9, 51, 0
4, 488738, Note_on_c, 9, 51, 57
4, 488832, Note_on_c, 9, 51, 0
4, 489404, Note_on_c, 9, 51, 45
4, 489507, Note_on_c, 9, 51, 0
4, 489694, Note_on_c, 9, 51, 60
4, 490058, Note_on_c, 9, 51, 0
4, 490670, Note_on_c, 9, 51, 46
4, 490721, Note_on_c, 9, 53, 34
4, 490892, Note_on_c, 9, 53, 0
4, 490925, Note_on_c, 9, 51, 0
4, 491650, Note_on_c, 9, 53, 62
4, 491662, Note_on_c, 9, 51, 59
4, 492130, Note_on_c, 9, 51, 0
4, 492316, Note_on_c, 9, 53, 0
4, 492639, Note_on_c, 9, 51, 35
4, 492763, Note_on_c, 9, 51, 0
4, 493240, Note_on_c, 9, 51, 67
4, 493257, Note_on_c, 9, 53, 63
4, 493684, Note_on_c, 9, 51, 0
4, 493844, Note_on_c, 9, 53, 0
4, 494498, Note_on_c, 9, 53, 66
4, 494521, Note_on_c, 9, 51, 62
4, 494971, Note_on_c, 9, 53, 0
4, 495072, Note_on_c, 9, 51, 0
4, 495498, Note_on_c, 9, 51, 45
4, 495611, Note_on_c, 9, 51, 0
4, 496037, Note_on_c, 9, 51, 68
4, 496244, Note_on_c, 9, 51, 0
4, 496487, Note_on_c, 9, 51, 65
4, 496735, Note_on_c, 9, 51, 0
4, 497345, Note_on_c, 9, 51, 60
4, 497638, Note_on_c, 9, 51, 0
4, 498251, Note_on_c, 9, 51, 51
4, 498375, Note_on_c, 9, 51, 0
4, 498867, Note_on_c, 9, 51, 43
4, 498985, Note_on_c, 9, 51, 0
4, 499242, Note_on_c, 9, 51, 51
4, 499648, Note_on_c, 9, 51, 0
4, 500264, Note_on_c, 9, 51, 20
4, 500391, Note_on_c, 9, 51, 0
4, 500876, Note_on_c, 9, 51, 58
4, 500977, Note_on_c, 9, 51, 0
4, 501338, Note_on_c, 9, 51, 51
4, 501738, Note_on_c, 9, 51, 0
4, 502238, Note_on_c, 9, 51, 35
4, 502247, Note_on_c, 9, 53, 46
4, 502413, Note_on_c, 9, 51, 0
4, 502478, Note_on_c, 9, 53, 0
4, 502830, Note_on_c, 9, 53, 47
4, 502851, Note_on_c, 9, 51, 48
4, 503164, Note_on_c, 9, 51, 0
4, 503188, Note_on_c, 9, 53, 0
4, 503709, Note_on_c, 9, 51, 49
4, 503819, Note_on_c, 9, 51, 0
4, 504129, Note_on_c, 9, 53, 58
4, 504198, Note_on_c, 9, 51, 40
4, 504639, Note_on_c, 9, 51, 0
4, 504677, Note_on_c, 9, 53, 0
4, 505068, Note_on_c, 9, 51, 35
4, 505266, Note_on_c, 9, 51, 0
4, 505651, Note_on_c, 9, 53, 51
4, 505678, Note_on_c, 9, 51, 51
4, 506042, Note_on_c, 9, 51, 0
4, 506050, Note_on_c, 9, 53, 0
4, 506548, Note_on_c, 9, 51, 50
4, 506752, Note_on_c, 9, 51, 0
4, 507004, Note_on_c, 9, 51, 54
4, 507048, Note_on_c, 9, 53, 52
4, 507468, Note_on_c, 9, 51, 0
4, 507646, Note_on_c, 9, 53, 0
4, 507960, Note_on_c, 9, 51, 41
4, 508247, Note_on_c, 9, 51, 0
4, 508472, Note_on_c, 9, 51, 50
4, 508584, Note_on_c, 9, 51, 0
4, 509380, Note_on_c, 9, 51, 45
4, 509523, Note_on_c, 9, 51, 0
4, 509804, Note_on_c, 9, 51, 57
4, 510203, Note_on_c, 9, 51, 0
4, 510825, Note_on_c, 9, 51, 61
4, 511266, Note_on_c, 9, 51, 0
4, 511787, Note_on_c, 9, 51, 72
4, 512296, Note_on_c, 9, 51, 0
4, 512743, Note_on_c, 9, 51, 36
4, 512861, Note_on_c, 9, 51, 0
4, 513379, Note_on_c, 9, 51, 50
4, 513480, Note_on_c, 9, 51, 0
4, 513693, Note_on_c, 9, 51, 54
4, 514090, Note_on_c, 9, 51, 0
4, 514643, Note_on_c, 9, 51, 55
4, 515070, Note_on_c, 9, 51, 0
4, 515591, Note_on_c, 9, 51, 60
4, 515952, Note_on_c, 9, 51, 0
4, 516227, Note_on_c, 9, 51, 40
4, 516342, Note_on_c, 9, 51, 0
4, 516535, Note_on_c, 9, 51, 50
4, 517020, Note_on_c, 9, 51, 0
4, 517500, Note_on_c, 9, 51, 60
4, 517941, Note_on_c, 9, 51, 0
4, 518169, Note_on_c, 9, 51, 30
4, 518299, Note_on_c, 9, 51, 0
4, 518491, Note_on_c, 9, 51, 54
4, 518956, Note_on_c, 9, 51, 0
4, 519412, Note_on_c, 9, 51, 60
4, 519862, Note_on_c, 9, 51, 0
4, 520152, Note_on_c, 9, 51, 30
4, 520957, Note_on_c, 9, 51, 0
4, 521300, Note_on_c, 9, 51, 54
4, 521670, Note_on_c, 9, 51, 0
4, 521931, Note_on_c, 9, 51, 43
4, 522046, Note_on_c, 9, 51, 0
4, 522292, Note_on_c, 9, 51, 51
4, 522698, Note_on_c, 9, 51, 0
4, 523159, Note_on_c, 9, 51, 62
4, 523562, Note_on_c, 9, 51, 0
4, 523837, Note_on_c, 9, 51, 36
4, 523973, Note_on_c, 9, 51, 0
4, 524178, Note_on_c, 9, 51, 42
4, 524627, Note_on_c, 9, 51, 0
4, 525143, Note_on_c, 9, 51, 66
4, 525513, Note_on_c, 9, 51, 0
4, 525764, Note_on_c, 9, 51, 42
4, 525874, Note_on_c, 9, 51, 0
4, 526081, Note_on_c, 9, 51, 54
4, 526528, Note_on_c, 9, 51, 0
4, 527090, Note_on_c, 9, 51, 61
4, 527508, Note_on_c, 9, 51, 0
4, 527753, Note_on_c, 9, 51, 48
4, 527854, Note_on_c, 9, 51, 0
4, 528070, Note_on_c, 9, 51, 52
4, 528561, Note_on_c, 9, 51, 0
4, 529053, Note_on_c, 9, 51, 69
4, 529455, Note_on_c, 9, 51, 0
4, 529707, Note_on_c, 9, 51, 42
4, 529811, Note_on_c, 9, 51, 0
4, 530021, Note_on_c, 9, 51, 56
4, 530444, Note_on_c, 9, 51, 0
4, 530983, Note_on_c, 9, 51, 71
4, 531533, Note_on_c, 9, 51, 0
4, 532072, Note_on_c, 9, 51, 33
4, 532217, Note_on_c, 9, 51, 0
4, 532546, Note_on_c, 9, 51, 60
4, 532691, Note_on_c, 9, 51, 0
4, 532933, Note_on_c, 9, 51, 60
4, 533561, Note_on_c, 9, 51, 0
4, 533969, Note_on_c, 9, 51, 60
4, 534351, Note_on_c, 9, 51, 0
4, 534834, Note_on_c, 9, 51, 57
4, 535254, Note_on_c, 9, 51, 0
4, 535556, Note_on_c, 9, 51, 27
4, 535722, Note_on_c, 9, 51, 0
4, 535819, Note_on_c, 9, 51, 32
4, 536254, Note_on_c, 9, 51, 0
4, 536749, Note_on_c, 9, 51, 59
4, 537154, Note_on_c, 9, 51, 0
4, 537634, Note_on_c, 9, 51, 55
4, 538069, Note_on_c, 9, 51, 0
4, 538631, Note_on_c, 9, 51, 62
4, 539120, Note_on_c, 9, 51, 0
4, 539638, Note_on_c, 9, 51, 34
4, 539792, Note_on_c, 9, 51, 0
4, 540215, Note_on_c, 9, 51, 57
4, 540466, Note_on_c, 9, 51, 0
4, 540629, Note_on_c, 9, 51, 45
4, 540727, Note_on_c, 9, 51, 0
4, 541499, Note_on_c, 9, 51, 64
4, 541831, Note_on_c, 9, 51, 0
4, 542473, Note_on_c, 9, 51, 57
4, 542793, Note_on_c, 9, 51, 0
4, 543089, Note_on_c, 9, 51, 45
4, 543207, Note_on_c, 9, 51, 0
4, 543474, Note_on_c, 9, 51, 41
4, 543873, Note_on_c, 9, 51, 0
4, 544383, Note_on_c, 9, 51, 75
4, 544773, Note_on_c, 9, 51, 0
4, 545016, Note_on_c, 9, 51, 49
4, 545123, Note_on_c, 9, 51, 0
4, 545330, Note_on_c, 9, 51, 52
4, 545777, Note_on_c, 9, 51, 0
4, 546295, Note_on_c, 9, 51, 76
4, 546816, Note_on_c, 9, 51, 0
4, 547331, Note_on_c, 9, 51, 33
4, 547464, Note_on_c, 9, 51, 0
4, 547807, Note_on_c, 9, 51, 65
4, 548020, Note_on_c, 9, 51, 0
4, 548210, Note_on_c, 9, 51, 40
4, 548660, Note_on_c, 9, 51, 0
4, 549127, Note_on_c, 9, 51, 63
4, 549453, Note_on_c, 9, 51, 0
4, 550107, Note_on_c, 9, 51, 66
4, 550661, Note_on_c, 9, 51, 0
4, 551117, Note_on_c, 9, 51, 55
4, 551463, Note_on_c, 9, 51, 0
4, 552025, Note_on_c, 9, 51, 74
4, 552602, Note_on_c, 9, 51, 0
4, 553011, Note_on_c, 9, 51, 39
4, 553186, Note_on_c, 9, 51, 0
4, 553991, Note_on_c, 9, 51, 60
4, 554586, Note_on_c, 9, 51, 0
4, 554959, Note_on_c, 9, 51, 70
4, 554962, Note_on_c, 9, 59, 70
4, 555420, Note_on_c, 9, 51, 0
4, 555512, Note_on_c, 9, 59, 0
4, 555968, Note_on_c, 9, 51, 48
4, 556101, Note_on_c, 9, 51, 0
4, 556489, Note_on_c, 9, 51, 76
4, 556868, Note_on_c, 9, 51, 0
4, 557427, Note_on_c, 9, 51, 60
4, 557658, Note_on_c, 9, 51, 0
4, 557833, Note_on_c, 9, 51, 57
4, 558129, Note_on_c, 9, 51, 0
4, 558824, Note_on_c, 9, 51, 60
4, 559183, Note_on_c, 9, 51, 0
4, 559407, Note_on_c, 9, 51, 54
4, 559508, Note_on_c, 9, 51, 0
4, 560328, Note_on_c, 9, 51, 57
4, 560446, Note_on_c, 9, 51, 0
4, 560716, Note_on_c, 9, 51, 68
4, 561092, Note_on_c, 9, 51, 0
4, 561716, Note_on_c, 9, 51, 42
4, 561820, Note_on_c, 9, 51, 0
4, 562220, Note_on_c, 9, 51, 70
4, 562664, Note_on_c, 9, 51, 0
4, 563241, Note_on_c, 9, 51, 47
4, 563359, Note_on_c, 9, 51, 0
4, 563599, Note_on_c, 9, 51, 62
4, 564135, Note_on_c, 9, 51, 0
4, 564549, Note_on_c, 9, 51, 43
4, 564650, Note_on_c, 9, 51, 0
4, 565106, Note_on_c, 9, 51, 73
4, 565550, Note_on_c, 9, 51, 0
4, 566136, Note_on_c, 9, 51, 55
4, 566257, Note_on_c, 9, 51, 0
4, 566538, Note_on_c, 9, 51, 58
4, 567030, Note_on_c, 9, 51, 0
4, 567320, Note_on_c, 9, 51, 47
4, 567447, Note_on_c, 9, 51, 0
4, 567962, Note_on_c, 9, 51, 63
4, 568350, Note_on_c, 9, 51, 0
4, 568906, Note_on_c, 9, 51, 52
4, 569025, Note_on_c, 9, 51, 0
4, 569294, Note_on_c, 9, 51, 57
4, 569800, Note_on_c, 9, 51, 0
4, 570374, Note_on_c, 9, 51, 44
4, 570481, Note_on_c, 9, 51, 0
4, 570919, Note_on_c, 9, 51, 72
4, 571206, Note_on_c, 9, 51, 0
4, 571837, Note_on_c, 9, 51, 52
4, 571955, Note_on_c, 9, 51, 0
4, 572251, Note_on_c, 9, 51, 53
4, 572760, Note_on_c, 9, 51, 0
4, 573213, Note_on_c, 9, 51, 56
4, 573521, Note_on_c, 9, 51, 0
4, 574282, Note_on_c, 9, 51, 46
4, 574607, Note_on_c, 9, 51, 0
4, 575102, Note_on_c, 9, 51, 48
4, 575575, Note_on_c, 9, 51, 0
4, 575827, Note_on_c, 9, 51, 46
4, 575924, Note_on_c, 9, 51, 0
4, 576149, Note_on_c, 9, 51, 61
4, 576448, Note_on_c, 9, 51, 0
4, 577076, Note_on_c, 9, 51, 57
4, 577487, Note_on_c, 9, 51, 0
4, 577683, Note_on_c, 9, 51, 46
4, 577777, Note_on_c, 9, 51, 0
4, 577982, Note_on_c, 9, 51, 55
4, 578464, Note_on_c, 9, 51, 0
4, 578932, Note_on_c, 9, 51, 76
4, 579444, Note_on_c, 9, 51, 0
4, 579690, Note_on_c, 9, 51, 42
4, 579799, Note_on_c, 9, 51, 0
4, 580015, Note_on_c, 9, 51, 53
4, 580347, Note_on_c, 9, 51, 0
4, 580888, Note_on_c, 9, 51, 74
4, 581335, Note_on_c, 9, 51, 0
4, 581853, Note_on_c, 9, 51, 43
4, 582019, Note_on_c, 9, 51, 0
4, 582798, Note_on_c, 9, 51, 80
4, 583253, Note_on_c, 9, 51, 0
4, 583727, Note_on_c, 9, 51, 39
4, 583990, Note_on_c, 9, 51, 0
4, 584695, Note_on_c, 9, 51, 69
4, 585124, Note_on_c, 9, 51, 0
4, 585358, Note_on_c, 9, 51, 44
4, 585458, Note_on_c, 9, 51, 0
4, 585669, Note_on_c, 9, 51, 51
4, 586101, Note_on_c, 9, 51, 0
4, 586580, Note_on_c, 9, 51, 65
4, 587004, Note_on_c, 9, 51, 0
4, 587267, Note_on_c, 9, 51, 40
4, 587382, Note_on_c, 9, 51, 0
4, 587590, Note_on_c, 9, 51, 55
4, 587995, Note_on_c, 9, 51, 0
4, 588564, Note_on_c, 9, 51, 61
4, 588931, Note_on_c, 9, 51, 0
4, 589179, Note_on_c, 9, 51, 43
4, 589298, Note_on_c, 9, 51, 0
4, 589552, Note_on_c, 9, 51, 48
4, 589964, Note_on_c, 9, 51, 0
4, 590473, Note_on_c, 9, 51, 62
4, 590893, Note_on_c, 9, 51, 0
4, 591420, Note_on_c, 9, 51, 46
4, 591938, Note_on_c, 9, 51, 0
4, 592409, Note_on_c, 9, 51, 48
4, 592645, Note_on_c, 9, 51, 0
4, 593060, Note_on_c, 9, 51, 43
4, 593163, Note_on_c, 9, 51, 0
4, 593356, Note_on_c, 9, 51, 68
4, 593527, Note_on_c, 9, 51, 0
4, 594279, Note_on_c, 9, 51, 63
4, 594741, Note_on_c, 9, 51, 0
4, 595306, Note_on_c, 9, 51, 45
4, 595647, Note_on_c, 9, 51, 0
4, 596257, Note_on_c, 9, 51, 67
4, 596647, Note_on_c, 9, 51, 0
4, 596878, Note_on_c, 9, 51, 46
4, 596982, Note_on_c, 9, 51, 0
4, 597198, Note_on_c, 9, 51, 51
4, 597565, Note_on_c, 9, 51, 0
4, 598139, Note_on_c, 9, 51, 60
4, 598494, Note_on_c, 9, 51, 0
4, 598749, Note_on_c, 9, 51, 42
4, 598861, Note_on_c, 9, 51, 0
4, 599125, Note_on_c, 9, 51, 52
4, 599708, Note_on_c, 9, 51, 0
4, 600016, Note_on_c, 9, 51, 48
4, 600152, Note_on_c, 9, 51, 0
4, 600634, Note_on_c, 9, 51, 73
4, 600960, Note_on_c, 9, 51, 0
4, 601626, Note_on_c, 9, 51, 51
4, 601789, Note_on_c, 9, 51, 0
4, 602005, Note_on_c, 9, 51, 42
4, 602452, Note_on_c, 9, 51, 0
4, 603002, Note_on_c, 9, 51, 62
4, 603467, Note_on_c, 9, 51, 0
4, 603959, Note_on_c, 9, 51, 44
4, 604281, Note_on_c, 9, 51, 0
4, 604571, Note_on_c, 9, 51, 54
4, 604675, Note_on_c, 9, 51, 0
4, 605006, Note_on_c, 9, 51, 45
4, 605137, Note_on_c, 9, 51, 0
4, 605669, Note_on_c, 9, 51, 74
4, 605930, Note_on_c, 9, 51, 0
4, 606513, Note_on_c, 9, 51, 63
4, 606617, Note_on_c, 9, 51, 0
4, 606898, Note_on_c, 9, 51, 57
4, 607209, Note_on_c, 9, 51, 0
4, 607815, Note_on_c, 9, 51, 41
4, 607937, Note_on_c, 9, 51, 0
4, 608387, Note_on_c, 9, 51, 71
4, 608739, Note_on_c, 9, 51, 0
4, 609236, Note_on_c, 9, 51, 59
4, 609340, Note_on_c, 9, 51, 0
4, 609657, Note_on_c, 9, 51, 54
4, 609899, Note_on_c, 9, 51, 0
4, 610669, Note_on_c, 9, 51, 51
4, 610784, Note_on_c, 9, 51, 0
4, 611276, Note_on_c, 9, 53, 64
4, 611291, Note_on_c, 9, 51, 49
4, 611542, Note_on_c, 9, 53, 0
4, 611678, Note_on_c, 9, 51, 0
4, 612182, Note_on_c, 9, 51, 52
4, 612288, Note_on_c, 9, 51, 0
4, 612688, Note_on_c, 9, 53, 76
4, 612696, Note_on_c, 9, 51, 70
4, 613034, Note_on_c, 9, 53, 0
4, 613300, Note_on_c, 9, 51, 0
4, 613502, Note_on_c, 9, 51, 35
4, 613659, Note_on_c, 9, 53, 33
4, 613715, Note_on_c, 9, 51, 0
4, 613786, Note_on_c, 9, 53, 0
4, 614176, Note_on_c, 9, 51, 62
4, 614176, Note_on_c, 9, 53, 73
4, 614419, Note_on_c, 9, 53, 0
4, 614561, Note_on_c, 9, 51, 0
4, 615127, Note_on_c, 9, 51, 48
4, 615130, Note_on_c, 9, 53, 66
4, 615408, Note_on_c, 9, 53, 0
4, 615520, Note_on_c, 9, 53, 32
4, 615852, Note_on_c, 9, 53, 0
4, 616021, Note_on_c, 9, 51, 0
4, 616411, Note_on_c, 9, 51, 62
4, 616426, Note_on_c, 9, 53, 59
4, 616956, Note_on_c, 9, 53, 0
4, 617113, Note_on_c, 9, 51, 0
4, 617370, Note_on_c, 9, 59, 66
4, 617622, Note_on_c, 9, 59, 0
4, 618273, Note_on_c, 9, 59, 76
4, 619475, Note_on_c, 9, 59, 0
4, 619910, Note_on_c, 9, 59, 48
4, 620029, Note_on_c, 9, 59, 0
4, 620271, Note_on_c, 9, 59, 66
4, 621544, Note_on_c, 9, 59, 0
4, 621795, Note_on_c, 9, 59, 51
4, 621949, Note_on_c, 9, 59, 0
4, 622233, Note_on_c, 9, 59, 53
4, 623340, Note_on_c, 9, 59, 0
4, 623592, Note_on_c, 9, 59, 51
4, 623764, Note_on_c, 9, 59, 0
4, 624066, Note_on_c, 9, 59, 50
4, 624412, Note_on_c, 9, 59, 0
4, 625045, Note_on_c, 9, 59, 46
4, 625424, Note_on_c, 9, 59, 0
4, 626007, Note_on_c, 9, 59, 64
4, 626463, Note_on_c, 9, 59, 0
4, 627097, Note_on_c, 9, 59, 33
4, 627242, Note_on_c, 9, 59, 0
4, 627698, Note_on_c, 9, 59, 46
4, 627801, Note_on_c, 9, 59, 0
4, 628026, Note_on_c, 9, 59, 52
4, 628535, Note_on_c, 9, 59, 0
4, 629097, Note_on_c, 9, 59, 39
4, 629234, Note_on_c, 9, 59, 0
4, 629613, Note_on_c, 9, 59, 62
4, 629921, Note_on_c, 9, 59, 0
4, 630548, Note_on_c, 9, 59, 52
4, 630720, Note_on_c, 9, 59, 0
4, 630915, Note_on_c, 9, 59, 46
4, 631039, Note_on_c, 9, 59, 0
4, 631892, Note_on_c, 9, 59, 64
4, 632152, Note_on_c, 9, 59, 0
4, 632824, Note_on_c, 9, 59, 43
4, 632978, Note_on_c, 9, 59, 0
4, 633576, Note_on_c, 9, 59, 64
4, 633813, Note_on_c, 9, 59, 0
4, 634441, Note_on_c, 9, 59, 44
4, 634651, Note_on_c, 9, 59, 0
4, 635290, Note_on_c, 9, 59, 55
4, 635406, Note_on_c, 9, 59, 0
4, 635672, Note_on_c, 9, 59, 55
4, 636021, Note_on_c, 9, 59, 0
4, 636575, Note_on_c, 9, 59, 55
4, 636711, Note_on_c, 9, 59, 0
4, 637555, Note_on_c, 9, 59, 60
4, 637987, Note_on_c, 9, 59, 0
4, 638496, Note_on_c, 9, 59, 42
4, 638682, Note_on_c, 9, 59, 0
4, 639049, Note_on_c, 9, 59, 62
4, 639410, Note_on_c, 9, 59, 0
4, 640047, Note_on_c, 9, 59, 46
4, 640142, Note_on_c, 9, 59, 0
4, 640358, Note_on_c, 9, 59, 57
4, 640757, Note_on_c, 9, 59, 0
4, 641346, Note_on_c, 9, 59, 62
4, 641687, Note_on_c, 9, 59, 0
4, 642273, Note_on_c, 9, 59, 55
4, 642368, Note_on_c, 9, 59, 0
4, 642957, Note_on_c, 9, 59, 48
4, 643063, Note_on_c, 9, 59, 0
4, 643294, Note_on_c, 9, 59, 63
4, 643670, Note_on_c, 9, 59, 0
4, 644821, Note_on_c, 9, 59, 57
4, 644964, Note_on_c, 9, 59, 0
4, 645242, Note_on_c, 9, 59, 60
4, 645588, Note_on_c, 9, 59, 0
4, 646233, Note_on_c, 9, 59, 49
4, 646580, Note_on_c, 9, 59, 0
4, 647231, Note_on_c, 9, 59, 43
4, 647509, Note_on_c, 9, 59, 0
4, 648137, Note_on_c, 9, 59, 71
4, 648439, Note_on_c, 9, 59, 0
4, 648841, Note_on_c, 9, 59, 32
4, 648971, Note_on_c, 9, 59, 0
4, 649193, Note_on_c, 9, 59, 50
4, 649324, Note_on_c, 9, 59, 0
4, 650019, Note_on_c, 9, 59, 62
4, 650295, Note_on_c, 9, 59, 0
4, 650700, Note_on_c, 9, 59, 48
4, 650821, Note_on_c, 9, 59, 0
4, 651194, Note_on_c, 9, 59, 43
4, 651304, Note_on_c, 9, 59, 0
4, 652002, Note_on_c, 9, 59, 62
4, 652174, Note_on_c, 9, 59, 0
4, 652956, Note_on_c, 9, 59, 43
4, 653115, Note_on_c, 9, 59, 0
4, 653909, Note_on_c, 9, 59, 73
4, 654311, Note_on_c, 9, 59, 0
4, 655756, Note_on_c, 9, 59, 69
4, 656117, Note_on_c, 9, 59, 0
4, 656747, Note_on_c, 9, 59, 41
4, 656872, Note_on_c, 9, 59, 0
4, 657718, Note_on_c, 9, 59, 66
4, 658100, Note_on_c, 9, 59, 0
4, 658668, Note_on_c, 9, 59, 30
4, 658837, Note_on_c, 9, 59, 0
4, 659672, Note_on_c, 9, 59, 52
4, 660000, Note_on_c, 9, 59, 0
4, 660530, Note_on_c, 9, 59, 40
4, 660684, Note_on_c, 9, 59, 0
4, 661486, Note_on_c, 9, 59, 69
4, 661874, Note_on_c, 9, 59, 0
4, 662226, Note_on_c, 9, 59, 44
4, 662333, Note_on_c, 9, 59, 0
4, 663384, Note_on_c, 9, 59, 65
4, 663721, Note_on_c, 9, 59, 0
4, 664135, Note_on_c, 9, 59, 52
4, 664245, Note_on_c, 9, 59, 0
4, 664621, Note_on_c, 9, 59, 66
4, 664828, Note_on_c, 9, 59, 0
4, 665393, Note_on_c, 9, 59, 62
4, 665547, Note_on_c, 9, 59, 0
4, 666015, Note_on_c, 9, 59, 81
4, 666216, Note_on_c, 9, 59, 0
4, 666554, Note_on_c, 9, 59, 81
4, 667048, Note_on_c, 9, 59, 0
4, 667285, Note_on_c, 9, 59, 62
4, 667421, Note_on_c, 9, 59, 0
4, 667895, Note_on_c, 9, 59, 88
4, 668202, Note_on_c, 9, 59, 0
4, 668498, Note_on_c, 9, 59, 82
4, 669002, Note_on_c, 9, 59, 0
4, 669283, Note_on_c, 9, 59, 50
4, 669454, Note_on_c, 9, 59, 0
4, 669949, Note_on_c, 9, 59, 82
4, 670135, Note_on_c, 9, 52, 48
4, 670215, Note_on_c, 9, 59, 0
4, 670230, Note_on_c, 9, 52, 0
4, 670553, Note_on_c, 9, 59, 79
4, 670955, Note_on_c, 9, 59, 0
4, 671201, Note_on_c, 9, 59, 60
4, 671458, Note_on_c, 9, 59, 0
4, 671811, Note_on_c, 9, 59, 75
4, 671876, Note_on_c, 9, 53, 58
4, 672068, Note_on_c, 9, 59, 0
4, 672311, Note_on_c, 9, 59, 71
4, 672642, Note_on_c, 9, 53, 0
4, 672814, Note_on_c, 9, 59, 0
4, 673140, Note_on_c, 9, 59, 55
4, 673285, Note_on_c, 9, 59, 0
4, 673735, Note_on_c, 9, 59, 77
4, 673735, Note_on_c, 9, 53, 62
4, 673957, Note_on_c, 9, 59, 0
4, 674229, Note_on_c, 9, 59, 69
4, 674762, Note_on_c, 9, 53, 0
4, 674794, Note_on_c, 9, 59, 0
4, 675022, Note_on_c, 9, 59, 62
4, 675170, Note_on_c, 9, 59, 0
4, 675617, Note_on_c, 9, 59, 75
4, 675641, Note_on_c, 9, 53, 60
4, 675845, Note_on_c, 9, 59, 0
4, 676085, Note_on_c, 9, 59, 65
4, 676638, Note_on_c, 9, 59, 0
4, 676718, Note_on_c, 9, 53, 0
4, 676890, Note_on_c, 9, 59, 52
4, 677106, Note_on_c, 9, 59, 0
4, 677482, Note_on_c, 9, 53, 62
4, 677529, Note_on_c, 9, 59, 73
4, 677778, Note_on_c, 9, 59, 0
4, 677781, Note_on_c, 9, 53, 0
4, 677953, Note_on_c, 9, 53, 46
4, 677994, Note_on_c, 9, 59, 69
4, 678533, Note_on_c, 9, 59, 0
4, 678616, Note_on_c, 9, 53, 0
4, 678832, Note_on_c, 9, 59, 50
4, 679104, Note_on_c, 9, 59, 0
4, 679755, Note_on_c, 9, 59, 48
4, 680108, Note_on_c, 9, 59, 0
4, 680617, Note_on_c, 9, 59, 49
4, 680741, Note_on_c, 9, 59, 0
4, 681247, Note_on_c, 9, 59, 52
4, 681525, Note_on_c, 9, 59, 0
4, 681703, Note_on_c, 9, 59, 54
4, 681833, Note_on_c, 9, 59, 0
4, 682591, Note_on_c, 9, 59, 52
4, 682736, Note_on_c, 9, 59, 0
4, 683230, Note_on_c, 9, 59, 48
4, 683334, Note_on_c, 9, 59, 0
4, 683589, Note_on_c, 9, 59, 46
4, 683938, Note_on_c, 9, 59, 0
4, 684533, Note_on_c, 9, 59, 39
4, 684734, Note_on_c, 9, 59, 0
4, 685225, Note_on_c, 9, 59, 62
4, 685510, Note_on_c, 9, 59, 0
4, 686122, Note_on_c, 9, 59, 54
4, 686220, Note_on_c, 9, 59, 0
4, 686460, Note_on_c, 9, 59, 57
4, 686744, Note_on_c, 9, 59, 0
4, 687345, Note_on_c, 9, 59, 60
4, 687599, Note_on_c, 9, 59, 0
4, 688322, Note_on_c, 9, 59, 61
4, 688641, Note_on_c, 9, 59, 0
4, 688937, Note_on_c, 9, 59, 40
4, 689062, Note_on_c, 9, 59, 0
4, 689310, Note_on_c, 9, 59, 54
4, 689630, Note_on_c, 9, 59, 0
4, 690734, Note_on_c, 9, 59, 37
4, 690858, Note_on_c, 9, 59, 0
4, 691169, Note_on_c, 9, 59, 62
4, 691498, Note_on_c, 9, 59, 0
4, 692809, Note_on_c, 9, 59, 50
4, 692918, Note_on_c, 9, 59, 0
4, 693185, Note_on_c, 9, 59, 52
4, 693354, Note_on_c, 9, 59, 0
4, 694126, Note_on_c, 9, 59, 86
4, 694517, Note_on_c, 9, 59, 0
4, 695082, Note_on_c, 9, 59, 51
4, 695663, Note_on_c, 9, 59, 0
4, 696101, Note_on_c, 9, 59, 57
4, 696459, Note_on_c, 9, 59, 0
4, 696864, Note_on_c, 9, 59, 46
4, 696959, Note_on_c, 9, 59, 0
4, 697184, Note_on_c, 9, 59, 55
4, 697640, Note_on_c, 9, 59, 0
4, 698081, Note_on_c, 9, 59, 60
4, 698362, Note_on_c, 9, 59, 0
4, 698634, Note_on_c, 9, 59, 55
4, 698768, Note_on_c, 9, 59, 0
4, 699632, Note_on_c, 9, 59, 58
4, 699783, Note_on_c, 9, 59, 0
4, 700067, Note_on_c, 9, 59, 53
4, 700197, Note_on_c, 9, 59, 0
4, 700991, Note_on_c, 9, 59, 68
4, 701337, Note_on_c, 9, 59, 0
4, 701943, Note_on_c, 9, 59, 33
4, 702080, Note_on_c, 9, 59, 0
4, 702462, Note_on_c, 9, 59, 46
4, 702565, Note_on_c, 9, 59, 0
4, 702799, Note_on_c, 9, 59, 55
4, 703148, Note_on_c, 9, 59, 0
4, 703817, Note_on_c, 9, 59, 58
4, 703983, Note_on_c, 9, 59, 0
4, 704776, Note_on_c, 9, 59, 62
4, 704883, Note_on_c, 9, 59, 0
4, 705454, Note_on_c, 9, 59, 41
4, 705567, Note_on_c, 9, 59, 0
4, 706286, Note_on_c, 9, 59, 75
4, 706508, Note_on_c, 9, 59, 0
4, 707218, Note_on_c, 9, 59, 60
4, 707325, Note_on_c, 9, 59, 0
4, 707597, Note_on_c, 9, 59, 59
4, 707964, Note_on_c, 9, 59, 0
4, 708544, Note_on_c, 9, 59, 70
4, 708796, Note_on_c, 9, 59, 0
4, 709486, Note_on_c, 9, 59, 52
4, 709764, Note_on_c, 9, 59, 0
4, 710474, Note_on_c, 9, 59, 71
4, 710835, Note_on_c, 9, 59, 0
4, 711495, Note_on_c, 9, 59, 51
4, 711596, Note_on_c, 9, 59, 0
4, 712449, Note_on_c, 9, 59, 62
4, 712753, Note_on_c, 9, 59, 0
4, 713351, Note_on_c, 9, 59, 54
4, 713573, Note_on_c, 9, 59, 0
4, 714340, Note_on_c, 9, 59, 60
4, 714473, Note_on_c, 9, 59, 0
4, 715255, Note_on_c, 9, 59, 82
4, 715690, Note_on_c, 9, 59, 0
4, 716323, Note_on_c, 9, 59, 33
4, 716465, Note_on_c, 9, 59, 0
4, 717179, Note_on_c, 9, 59, 69
4, 717466, Note_on_c, 9, 59, 0
4, 718090, Note_on_c, 9, 59, 42
4, 718215, Note_on_c, 9, 59, 0
4, 719106, Note_on_c, 9, 59, 58
4, 719262, Note_on_c, 9, 59, 0
4, 719730, Note_on_c, 9, 59, 45
4, 719840, Note_on_c, 9, 59, 0
4, 720071, Note_on_c, 9, 59, 58
4, 720370, Note_on_c, 9, 59, 0
4, 721731, Note_on_c, 9, 59, 68
4, 722072, Note_on_c, 9, 59, 0
4, 722687, Note_on_c, 9, 59, 57
4, 722788, Note_on_c, 9, 59, 0
4, 722980, Note_on_c, 9, 59, 61
4, 723264, Note_on_c, 9, 59, 0
4, 724401, Note_on_c, 9, 59, 50
4, 724508, Note_on_c, 9, 59, 0
4, 724753, Note_on_c, 9, 59, 56
4, 724848, Note_on_c, 9, 59, 0
4, 725686, Note_on_c, 9, 59, 71
4, 725970, Note_on_c, 9, 59, 0
4, 726704, Note_on_c, 9, 59, 48
4, 726822, Note_on_c, 9, 59, 0
4, 727722, Note_on_c, 9, 59, 73
4, 728169, Note_on_c, 9, 59, 0
4, 729312, Note_on_c, 9, 59, 65
4, 729563, Note_on_c, 9, 59, 0
4, 730277, Note_on_c, 9, 59, 48
4, 730383, Note_on_c, 9, 59, 0
4, 730608, Note_on_c, 9, 59, 61
4, 730889, Note_on_c, 9, 59, 0
4, 731544, Note_on_c, 9, 59, 69
4, 731763, Note_on_c, 9, 59, 0
4, 732538, Note_on_c, 9, 59, 58
4, 732627, Note_on_c, 9, 59, 0
4, 733551, Note_on_c, 9, 59, 75
4, 733696, Note_on_c, 9, 59, 0
4, 734486, Note_on_c, 9, 59, 77
4, 734740, Note_on_c, 9, 59, 0
4, 735516, Note_on_c, 9, 59, 67
4, 735765, Note_on_c, 9, 59, 0
4, 736096, Note_on_c, 9, 59, 56
4, 736250, Note_on_c, 9, 59, 0
4, 737031, Note_on_c, 9, 59, 76
4, 737253, Note_on_c, 9, 59, 0
4, 737908, Note_on_c, 9, 59, 57
4, 738008, Note_on_c, 9, 59, 0
4, 738298, Note_on_c, 9, 59, 51
4, 738574, Note_on_c, 9, 59, 0
4, 739293, Note_on_c, 9, 59, 76
4, 739521, Note_on_c, 9, 59, 0
4, 740243, Note_on_c, 9, 59, 72
4, 740480, Note_on_c, 9, 59, 0
4, 740809, Note_on_c, 9, 59, 60
4, 740913, Note_on_c, 9, 59, 0
4, 741223, Note_on_c, 9, 59, 36
4, 741576, Note_on_c, 9, 59, 0
4, 742644, Note_on_c, 9, 59, 50
4, 742757, Note_on_c, 9, 59, 0
4, 743014, Note_on_c, 9, 59, 49
4, 743523, Note_on_c, 9, 59, 0
4, 744550, Note_on_c, 9, 59, 55
4, 744669, Note_on_c, 9, 59, 0
4, 744983, Note_on_c, 9, 59, 42
4, 745382, Note_on_c, 9, 59, 0
4, 745945, Note_on_c, 9, 59, 57
4, 746981, Note_on_c, 9, 59, 0
4, 747469, Note_on_c, 9, 59, 50
4, 747584, Note_on_c, 9, 59, 0
4, 747871, Note_on_c, 9, 59, 46
4, 748298, Note_on_c, 9, 59, 0
4, 748905, Note_on_c, 9, 59, 75
4, 749961, Note_on_c, 9, 59, 0
4, 750447, Note_on_c, 9, 59, 51
4, 750547, Note_on_c, 9, 59, 0
4, 750870, Note_on_c, 9, 59, 30
4, 751213, Note_on_c, 9, 59, 0
4, 751773, Note_on_c, 9, 53, 46
4, 751802, Note_on_c, 9, 59, 43
4, 752128, Note_on_c, 9, 59, 0
4, 752161, Note_on_c, 9, 53, 0
4, 752779, Note_on_c, 9, 59, 39
4, 753120, Note_on_c, 9, 59, 0
4, 753703, Note_on_c, 9, 59, 61
4, 753720, Note_on_c, 9, 53, 48
4, 754360, Note_on_c, 9, 59, 0
4, 754472, Note_on_c, 9, 53, 0
4, 754759, Note_on_c, 9, 59, 33
4, 755322, Note_on_c, 9, 59, 0
4, 755662, Note_on_c, 9, 53, 55
4, 755671, Note_on_c, 9, 59, 53
4, 756097, Note_on_c, 9, 53, 0
4, 756242, Note_on_c, 9, 59, 0
4, 758172, Note_on_c, 9, 59, 53
4, 758282, Note_on_c, 9, 59, 0
4, 758548, Note_on_c, 9, 59, 55
4, 759191, Note_on_c, 9, 59, 0
4, 760058, Note_on_c, 9, 59, 50
4, 760170, Note_on_c, 9, 59, 0
4, 760463, Note_on_c, 9, 59, 40
4, 760887, Note_on_c, 9, 59, 0
4, 761902, Note_on_c, 9, 59, 46
4, 762011, Note_on_c, 9, 59, 0
4, 762254, Note_on_c, 9, 59, 55
4, 762444, Note_on_c, 9, 59, 0
4, 763201, Note_on_c, 9, 59, 83
4, 763784, Note_on_c, 9, 59, 0
4, 764776, Note_on_c, 9, 59, 52
4, 764883, Note_on_c, 9, 59, 0
4, 765176, Note_on_c, 9, 59, 60
4, 765552, Note_on_c, 9, 59, 0
4, 766155, Note_on_c, 9, 59, 76
4, 766617, Note_on_c, 9, 59, 0
4, 767632, Note_on_c, 9, 59, 50
4, 767733, Note_on_c, 9, 59, 0
4, 767991, Note_on_c, 9, 59, 58
4, 768020, Note_on_c, 9, 53, 42
4, 768150, Note_on_c, 9, 53, 0
4, 768278, Note_on_c, 9, 59, 0
4, 768997, Note_on_c, 9, 59, 67
4, 769030, Note_on_c, 9, 53, 51
4, 769491, Note_on_c, 9, 59, 0
4, 769497, Note_on_c, 9, 53, 0
4, 770143, Note_on_c, 9, 59, 57
4, 770279, Note_on_c, 9, 59, 0
4, 770649, Note_on_c, 9, 59, 67
4, 770675, Note_on_c, 9, 53, 61
4, 770891, Note_on_c, 9, 59, 0
4, 770951, Note_on_c, 9, 53, 0
4, 771599, Note_on_c, 9, 59, 56
4, 771694, Note_on_c, 9, 59, 0
4, 771774, Note_on_c, 9, 53, 52
4, 771966, Note_on_c, 9, 59, 52
4, 772075, Note_on_c, 9, 53, 0
4, 772523, Note_on_c, 9, 59, 0
4, 773023, Note_on_c, 9, 59, 48
4, 773117, Note_on_c, 9, 59, 0
4, 773520, Note_on_c, 9, 59, 54
4, 773736, Note_on_c, 9, 59, 0
4, 774417, Note_on_c, 9, 59, 59
4, 774577, Note_on_c, 9, 59, 0
4, 774817, Note_on_c, 9, 59, 60
4, 774965, Note_on_c, 9, 59, 0
4, 775743, Note_on_c, 9, 59, 54
4, 775876, Note_on_c, 9, 59, 0
4, 776696, Note_on_c, 9, 59, 65
4, 777007, Note_on_c, 9, 59, 0
4, 777726, Note_on_c, 9, 59, 48
4, 777960, Note_on_c, 9, 59, 0
4, 778611, Note_on_c, 9, 59, 47
4, 778931, Note_on_c, 9, 59, 0
4, 780198, Note_on_c, 9, 59, 46
4, 780298, Note_on_c, 9, 59, 0
4, 780571, Note_on_c, 9, 59, 40
4, 780805, Note_on_c, 9, 59, 0
4, 781548, Note_on_c, 9, 59, 63
4, 782424, Note_on_c, 9, 59, 0
4, 783045, Note_on_c, 9, 59, 50
4, 783152, Note_on_c, 9, 59, 0
4, 783418, Note_on_c, 9, 59, 52
4, 783646, Note_on_c, 9, 59, 0
4, 784365, Note_on_c, 9, 59, 67
4, 784650, Note_on_c, 9, 59, 0
4, 785354, Note_on_c, 9, 59, 57
4, 785538, Note_on_c, 9, 59, 0
4, 786307, Note_on_c, 9, 59, 73
4, 786763, Note_on_c, 9, 59, 0
4, 787373, Note_on_c, 9, 59, 39
4, 787515, Note_on_c, 9, 59, 0
4, 788293, Note_on_c, 9, 59, 57
4, 788438, Note_on_c, 9, 59, 0
4, 788965, Note_on_c, 9, 59, 41
4, 789078, Note_on_c, 9, 59, 0
4, 789300, Note_on_c, 9, 59, 52
4, 789693, Note_on_c, 9, 59, 0
4, 790738, Note_on_c, 9, 59, 49
4, 790842, Note_on_c, 9, 59, 0
4, 791108, Note_on_c, 9, 59, 41
4, 791505, Note_on_c, 9, 59, 0
4, 792644, Note_on_c, 9, 59, 46
4, 792763, Note_on_c, 9, 59, 0
4, 793009, Note_on_c, 9, 59, 57
4, 793340, Note_on_c, 9, 59, 0
4, 794583, Note_on_c, 9, 59, 51
4, 794687, Note_on_c, 9, 59, 0
4, 794944, Note_on_c, 9, 59, 51
4, 795030, Note_on_c, 9, 53, 30
4, 795300, Note_on_c, 9, 59, 0
4, 795451, Note_on_c, 9, 53, 0
4, 796569, Note_on_c, 9, 59, 32
4, 796714, Note_on_c, 9, 59, 0
4, 796931, Note_on_c, 9, 53, 40
4, 796963, Note_on_c, 9, 59, 42
4, 797380, Note_on_c, 9, 59, 0
4, 797588, Note_on_c, 9, 53, 0
4, 798541, Note_on_c, 9, 59, 42
4, 798650, Note_on_c, 9, 59, 0
4, 798825, Note_on_c, 9, 53, 33
4, 798937, Note_on_c, 9, 59, 47
4, 799287, Note_on_c, 9, 59, 0
4, 799361, Note_on_c, 9, 53, 0
4, 800302, Note_on_c, 9, 59, 51
4, 800397, Note_on_c, 9, 53, 45
4, 800409, Note_on_c, 9, 59, 0
4, 800563, Note_on_c, 9, 53, 0
4, 800678, Note_on_c, 9, 59, 45
4, 800962, Note_on_c, 9, 59, 0
4, 801699, Note_on_c, 9, 59, 52
4, 801812, Note_on_c, 9, 59, 0
4, 802558, Note_on_c, 9, 59, 51
4, 802697, Note_on_c, 9, 59, 0
4, 803567, Note_on_c, 9, 59, 58
4, 803579, Note_on_c, 9, 53, 50
4, 803860, Note_on_c, 9, 59, 0
4, 804061, Note_on_c, 9, 53, 0
4, 804588, Note_on_c, 9, 59, 35
4, 804715, Note_on_c, 9, 59, 0
4, 805521, Note_on_c, 9, 53, 43
4, 805523, Note_on_c, 9, 59, 57
4, 805793, Note_on_c, 9, 59, 0
4, 805914, Note_on_c, 9, 53, 0
4, 807406, Note_on_c, 9, 53, 50
4, 807409, Note_on_c, 9, 59, 60
4, 807705, Note_on_c, 9, 53, 0
4, 807746, Note_on_c, 9, 59, 0
4, 808472, Note_on_c, 9, 59, 37
4, 808629, Note_on_c, 9, 59, 0
4, 809336, Note_on_c, 9, 53, 49
4, 809363, Note_on_c, 9, 59, 56
4, 809614, Note_on_c, 9, 53, 0
4, 809739, Note_on_c, 9, 59, 0
4, 810458, Note_on_c, 9, 59, 31
4, 810603, Note_on_c, 9, 59, 0
4, 811304, Note_on_c, 9, 59, 65
4, 811618, Note_on_c, 9, 59, 0
4, 812198, Note_on_c, 9, 59, 31
4, 812340, Note_on_c, 9, 59, 0
4, 813145, Note_on_c, 9, 59, 66
4, 813459, Note_on_c, 9, 59, 0
4, 814093, Note_on_c, 9, 59, 30
4, 814276, Note_on_c, 9, 59, 0
4, 815072, Note_on_c, 9, 59, 69
4, 815386, Note_on_c, 9, 59, 0
4, 816739, Note_on_c, 9, 59, 59
4, 816840, Note_on_c, 9, 59, 0
4, 817041, Note_on_c, 9, 59, 47
4, 817301, Note_on_c, 9, 59, 0
4, 818009, Note_on_c, 9, 59, 46
4, 818314, Note_on_c, 9, 59, 0
4, 819560, Note_on_c, 9, 59, 46
4, 819657, Note_on_c, 9, 59, 0
4, 819865, Note_on_c, 9, 59, 60
4, 820223, Note_on_c, 9, 59, 0
4, 821386, Note_on_c, 9, 59, 48
4, 821502, Note_on_c, 9, 59, 0
4, 821783, Note_on_c, 9, 59, 48
4, 822026, Note_on_c, 9, 59, 0
4, 822798, Note_on_c, 9, 59, 79
4, 823313, Note_on_c, 9, 59, 0
4, 823864, Note_on_c, 9, 59, 38
4, 823982, Note_on_c, 9, 59, 0
4, 824417, Note_on_c, 9, 59, 66
4, 824642, Note_on_c, 9, 59, 0
4, 824832, Note_on_c, 9, 59, 53
4, 825045, Note_on_c, 9, 59, 0
4, 825732, Note_on_c, 9, 59, 72
4, 826016, Note_on_c, 9, 59, 0
4, 826705, Note_on_c, 9, 59, 60
4, 826844, Note_on_c, 9, 59, 0
4, 828138, Note_on_c, 9, 59, 44
4, 828242, Note_on_c, 9, 59, 0
4, 828434, Note_on_c, 9, 59, 49
4, 828674, Note_on_c, 9, 59, 0
4, 829426, Note_on_c, 9, 59, 68
4, 829671, Note_on_c, 9, 59, 0
4, 830926, Note_on_c, 9, 59, 51
4, 831027, Note_on_c, 9, 59, 0
4, 831281, Note_on_c, 9, 59, 50
4, 831518, Note_on_c, 9, 59, 0
4, 832329, Note_on_c, 9, 59, 69
4, 832436, Note_on_c, 9, 59, 0
4, 833339, Note_on_c, 9, 59, 78
4, 833685, Note_on_c, 9, 59, 0
4, 834401, Note_on_c, 9, 59, 43
4, 834508, Note_on_c, 9, 59, 0
4, 835283, Note_on_c, 9, 59, 48
4, 835387, Note_on_c, 9, 59, 0
4, 836231, Note_on_c, 9, 59, 57
4, 836331, Note_on_c, 9, 59, 0
4, 837184, Note_on_c, 9, 59, 60
4, 837261, Note_on_c, 9, 53, 36
4, 837296, Note_on_c, 9, 59, 0
4, 837379, Note_on_c, 9, 53, 0
4, 838767, Note_on_c, 9, 59, 57
4, 839022, Note_on_c, 9, 59, 0
4, 839759, Note_on_c, 9, 59, 41
4, 839874, Note_on_c, 9, 59, 0
4, 840141, Note_on_c, 9, 59, 34
4, 840265, Note_on_c, 9, 59, 0
4, 841100, Note_on_c, 9, 59, 60
4, 841118, Note_on_c, 9, 53, 52
4, 841319, Note_on_c, 9, 53, 0
4, 841363, Note_on_c, 9, 59, 0
4, 841730, Note_on_c, 9, 59, 42
4, 841917, Note_on_c, 9, 59, 0
4, 842719, Note_on_c, 9, 53, 51
4, 842734, Note_on_c, 9, 59, 63
4, 842867, Note_on_c, 9, 53, 0
4, 843039, Note_on_c, 9, 59, 0
4, 843551, Note_on_c, 9, 59, 38
4, 843675, Note_on_c, 9, 59, 0
4, 843903, Note_on_c, 9, 59, 57
4, 843968, Note_on_c, 9, 53, 55
4, 844353, Note_on_c, 9, 59, 0
4, 844374, Note_on_c, 9, 53, 0
4, 844829, Note_on_c, 9, 59, 52
4, 844927, Note_on_c, 9, 59, 0
4, 845436, Note_on_c, 9, 59, 62
4, 845469, Note_on_c, 9, 53, 51
4, 845649, Note_on_c, 9, 59, 0
4, 845664, Note_on_c, 9, 53, 0
4, 846466, Note_on_c, 9, 59, 32
4, 846611, Note_on_c, 9, 59, 0
4, 846824, Note_on_c, 9, 53, 57
4, 846842, Note_on_c, 9, 59, 60
4, 847233, Note_on_c, 9, 59, 0
4, 847419, Note_on_c, 9, 53, 0
4, 847721, Note_on_c, 9, 59, 50
4, 847828, Note_on_c, 9, 59, 0
4, 848290, Note_on_c, 9, 53, 61
4, 848310, Note_on_c, 9, 59, 61
4, 848526, Note_on_c, 9, 53, 0
4, 848553, Note_on_c, 9, 59, 0
4, 849189, Note_on_c, 9, 59, 49
4, 849302, Note_on_c, 9, 59, 0
4, 849551, Note_on_c, 9, 59, 58
4, 849850, Note_on_c, 9, 59, 0
4, 850592, Note_on_c, 9, 59, 64
4, 850749, Note_on_c, 9, 59, 0
4, 851617, Note_on_c, 9, 59, 44
4, 851717, Note_on_c, 9, 59, 0
4, 852167, Note_on_c, 9, 59, 62
4, 852268, Note_on_c, 9, 59, 0
4, 852611, Note_on_c, 9, 59, 55
4, 852842, Note_on_c, 9, 59, 0
4, 854038, Note_on_c, 9, 59, 46
4, 854142, Note_on_c, 9, 59, 0
4, 854390, Note_on_c, 9, 59, 48
4, 854544, Note_on_c, 9, 59, 0
4, 855302, Note_on_c, 9, 59, 51
4, 855405, Note_on_c, 9, 59, 0
4, 856296, Note_on_c, 9, 51, 37
4, 856465, Note_on_c, 9, 51, 0
4, 857889, Note_on_c, 9, 51, 33
4, 858010, Note_on_c, 9, 51, 0
4, 858283, Note_on_c, 9, 59, 51
4, 858434, Note_on_c, 9, 59, 0
4, 858839, Note_on_c, 9, 59, 46
4, 859014, Note_on_c, 9, 59, 0
4, 859852, Note_on_c, 9, 59, 53
4, 859979, Note_on_c, 9, 59, 0
4, 860810, Note_on_c, 9, 59, 51
4, 860926, Note_on_c, 9, 59, 0
4, 861820, Note_on_c, 9, 59, 46
4, 861926, Note_on_c, 9, 59, 0
4, 862199, Note_on_c, 9, 59, 46
4, 862675, Note_on_c, 9, 59, 0
4, 865579, Note_on_c, 9, 59, 37
4, 865700, Note_on_c, 9, 59, 0
4, 865964, Note_on_c, 9, 59, 35
4, 866121, Note_on_c, 9, 59, 0
4, 866517, Note_on_c, 9, 59, 55
4, 866645, Note_on_c, 9, 59, 0
4, 867500, Note_on_c, 9, 59, 56
4, 867663, Note_on_c, 9, 59, 0
4, 868471, Note_on_c, 9, 59, 40
4, 868583, Note_on_c, 9, 59, 0
4, 868847, Note_on_c, 9, 59, 50
4, 868995, Note_on_c, 9, 59, 0
4, 869880, Note_on_c, 9, 53, 43
4, 870114, Note_on_c, 9, 53, 0
4, 870821, Note_on_c, 9, 53, 41
4, 871126, Note_on_c, 9, 53, 0
4, 871789, Note_on_c, 9, 59, 42
4, 872052, Note_on_c, 9, 59, 0
4, 873118, Note_on_c, 9, 59, 42
4, 873364, Note_on_c, 9, 59, 0
4, 873746, Note_on_c, 9, 59, 22
4, 873873, Note_on_c, 9, 59, 0
4, 874293, Note_on_c, 9, 59, 46
4, 874420, Note_on_c, 9, 59, 0
4, 875240, Note_on_c, 9, 59, 45
4, 875356, Note_on_c, 9, 59, 0
4, 876279, Note_on_c, 9, 59, 35
4, 876407, Note_on_c, 9, 59, 0
4, 876670, Note_on_c, 9, 59, 44
4, 876925, Note_on_c, 9, 59, 0
4, 877685, Note_on_c, 9, 59, 39
4, 877822, Note_on_c, 9, 59, 0
4, 878621, Note_on_c, 9, 59, 35
4, 878760, Note_on_c, 9, 59, 0
4, 879663, Note_on_c, 9, 59, 44
4, 879858, Note_on_c, 9, 59, 0
4, 881152, Note_on_c, 9, 59, 43
4, 881267, Note_on_c, 9, 59, 0
4, 881533, Note_on_c, 9, 59, 48
4, 881729, Note_on_c, 9, 59, 0
4, 882999, Note_on_c, 9, 59, 42
4, 883111, Note_on_c, 9, 59, 0
4, 883380, Note_on_c, 9, 59, 40
4, 883564, Note_on_c, 9, 59, 0
4, 884408, Note_on_c, 9, 59, 43
4, 885790, Note_on_c, 9, 59, 0
4, 885790, End_track
5, 0, Start_track
5, 0, Title_t, "Drum Hits"
5, 0, Control_c, 9, 0, 120
5, 0, Control_c, 9, 7, 97
5, 1, Control_c, 9, 32, 0
5, 2, Program_c, 9, 32
5, 3925, Note_on_c, 9, 36, 1
5, 4278, Note_on_c, 9, 36, 0
5, 5923, Note_on_c, 9, 36, 1
5, 6197, Note_on_c, 9, 36, 0
5, 7761, Note_on_c, 9, 36, 2
5, 8103, Note_on_c, 9, 36, 0
5, 8732, Note_on_c, 9, 44, 36
5, 8857, Note_on_c, 9, 44, 0
5, 9185, Note_on_c, 9, 36, 11
5, 9370, Note_on_c, 9, 36, 0
5, 10568, Note_on_c, 9, 44, 42
5, 10766, Note_on_c, 9, 44, 0
5, 11634, Note_on_c, 9, 36, 1
5, 11894, Note_on_c, 9, 36, 0
5, 12540, Note_on_c, 9, 44, 36
5, 12733, Note_on_c, 9, 44, 0
5, 13024, Note_on_c, 9, 36, 8
5, 13976, Note_on_c, 9, 36, 0
5, 14415, Note_on_c, 9, 44, 47
5, 14697, Note_on_c, 9, 44, 0
5, 15465, Note_on_c, 9, 36, 2
5, 15607, Note_on_c, 9, 36, 0
5, 16434, Note_on_c, 9, 44, 33
5, 16739, Note_on_c, 9, 44, 0
5, 16918, Note_on_c, 9, 36, 12
5, 17373, Note_on_c, 9, 36, 0
5, 18126, Note_on_c, 9, 36, 1
5, 18262, Note_on_c, 9, 36, 0
5, 18340, Note_on_c, 9, 44, 93
5, 18520, Note_on_c, 9, 36, 1
5, 18810, Note_on_c, 9, 36, 0
5, 18810, Note_on_c, 9, 44, 0
5, 19338, Note_on_c, 9, 36, 2
5, 19597, Note_on_c, 9, 36, 0
5, 20098, Note_on_c, 9, 36, 12
5, 20213, Note_on_c, 9, 36, 0
5, 20252, Note_on_c, 9, 46, 19
5, 20811, Note_on_c, 9, 36, 26
5, 21472, Note_on_c, 9, 36, 1
5, 21620, Note_on_c, 9, 36, 0
5, 21804, Note_on_c, 9, 36, 0
5, 22075, Note_on_c, 9, 46, 0
5, 22112, Note_on_c, 9, 36, 12
5, 22273, Note_on_c, 9, 44, 36
5, 22576, Note_on_c, 9, 36, 0
5, 22612, Note_on_c, 9, 44, 0
5, 23217, Note_on_c, 9, 36, 1
5, 23545, Note_on_c, 9, 36, 0
5, 24192, Note_on_c, 9, 44, 36
5, 24349, Note_on_c, 9, 44, 0
5, 25046, Note_on_c, 9, 36, 5
5, 25231, Note_on_c, 9, 36, 0
5, 25802, Note_on_c, 9, 38, 40
5, 25914, Note_on_c, 9, 38, 0
5, 26643, Note_on_c, 9, 36, 1
5, 26780, Note_on_c, 9, 36, 0
5, 27002, Note_on_c, 9, 36, 7
5, 27492, Note_on_c, 9, 36, 0
5, 27964, Note_on_c, 9, 44, 35
5, 28232, Note_on_c, 9, 44, 0
5, 28580, Note_on_c, 9, 36, 6
5, 28731, Note_on_c, 9, 36, 0
5, 28939, Note_on_c, 9, 36, 1
5, 29392, Note_on_c, 9, 36, 0
5, 29831, Note_on_c, 9, 46, 16
5, 30770, Note_on_c, 9, 36, 7
5, 31035, Note_on_c, 9, 36, 0
5, 31503, Note_on_c, 9, 46, 0
5, 32191, Note_on_c, 9, 36, 12
5, 32368, Note_on_c, 9, 36, 0
5, 33683, Note_on_c, 9, 44, 23
5, 33871, Note_on_c, 9, 44, 0
5, 34142, Note_on_c, 9, 36, 6
5, 34273, Note_on_c, 9, 36, 0
5, 34572, Note_on_c, 9, 36, 7
5, 35244, Note_on_c, 9, 36, 0
5, 35574, Note_on_c, 9, 44, 30
5, 35793, Note_on_c, 9, 44, 0
5, 36500, Note_on_c, 9, 36, 3
5, 37047, Note_on_c, 9, 36, 0
5, 37248, Note_on_c, 9, 38, 40
5, 37352, Note_on_c, 9, 38, 0
5, 37537, Note_on_c, 9, 44, 33
5, 37556, Note_on_c, 9, 38, 50
5, 37671, Note_on_c, 9, 38, 0
5, 37738, Note_on_c, 9, 44, 0
5, 38304, Note_on_c, 9, 36, 6
5, 38423, Note_on_c, 9, 36, 11
5, 38495, Note_on_c, 9, 36, 0
5, 39189, Note_on_c, 9, 36, 0
5, 39921, Note_on_c, 9, 36, 12
5, 40026, Note_on_c, 9, 36, 0
5, 40305, Note_on_c, 9, 36, 13
5, 40912, Note_on_c, 9, 36, 0
5, 41405, Note_on_c, 9, 44, 32
5, 41674, Note_on_c, 9, 44, 0
5, 42367, Note_on_c, 9, 36, 8
5, 42923, Note_on_c, 9, 36, 0
5, 42936, Note_on_c, 9, 38, 31
5, 43080, Note_on_c, 9, 38, 0
5, 43314, Note_on_c, 9, 44, 32
5, 43471, Note_on_c, 9, 44, 0
5, 43896, Note_on_c, 9, 36, 14
5, 44364, Note_on_c, 9, 36, 0
5, 45111, Note_on_c, 9, 46, 19
5, 45372, Note_on_c, 9, 46, 0
5, 46235, Note_on_c, 9, 36, 9
5, 46443, Note_on_c, 9, 36, 0
5, 46820, Note_on_c, 9, 38, 33
5, 46929, Note_on_c, 9, 38, 0
5, 47091, Note_on_c, 9, 44, 42
5, 47255, Note_on_c, 9, 44, 0
5, 47704, Note_on_c, 9, 36, 11
5, 47932, Note_on_c, 9, 36, 0
5, 48057, Note_on_c, 9, 36, 1
5, 48476, Note_on_c, 9, 36, 0
5, 49980, Note_on_c, 9, 36, 11
5, 50139, Note_on_c, 9, 36, 0
5, 51016, Note_on_c, 9, 44, 18
5, 51193, Note_on_c, 9, 44, 0
5, 51412, Note_on_c, 9, 36, 20
5, 51771, Note_on_c, 9, 36, 0
5, 52826, Note_on_c, 9, 44, 26
5, 53016, Note_on_c, 9, 44, 0
5, 53810, Note_on_c, 9, 36, 11
5, 53959, Note_on_c, 9, 36, 0
5, 54737, Note_on_c, 9, 44, 38
5, 55074, Note_on_c, 9, 44, 0
5, 55354, Note_on_c, 9, 36, 20
5, 55983, Note_on_c, 9, 36, 0
5, 56573, Note_on_c, 9, 36, 20
5, 56745, Note_on_c, 9, 44, 36
5, 56869, Note_on_c, 9, 36, 0
5, 56904, Note_on_c, 9, 44, 0
5, 57556, Note_on_c, 9, 36, 18
5, 57994, Note_on_c, 9, 36, 0
5, 58602, Note_on_c, 9, 44, 38
5, 58923, Note_on_c, 9, 44, 0
5, 58965, Note_on_c, 9, 36, 16
5, 59390, Note_on_c, 9, 36, 0
5, 60232, Note_on_c, 9, 38, 20
5, 60376, Note_on_c, 9, 38, 0
5, 60498, Note_on_c, 9, 44, 35
5, 60772, Note_on_c, 9, 44, 0
5, 61463, Note_on_c, 9, 36, 11
5, 61657, Note_on_c, 9, 36, 0
5, 62152, Note_on_c, 9, 38, 55
5, 62246, Note_on_c, 9, 38, 0
5, 62394, Note_on_c, 9, 44, 41
5, 62564, Note_on_c, 9, 44, 0
5, 62870, Note_on_c, 9, 36, 14
5, 62984, Note_on_c, 9, 36, 0
5, 63297, Note_on_c, 9, 36, 5
5, 63736, Note_on_c, 9, 36, 0
5, 64317, Note_on_c, 9, 46, 13
5, 64528, Note_on_c, 9, 46, 0
5, 65115, Note_on_c, 9, 38, 12
5, 65242, Note_on_c, 9, 38, 0
5, 65294, Note_on_c, 9, 36, 3
5, 65769, Note_on_c, 9, 36, 0
5, 66233, Note_on_c, 9, 44, 32
5, 66382, Note_on_c, 9, 44, 0
5, 66797, Note_on_c, 9, 36, 11
5, 66914, Note_on_c, 9, 36, 0
5, 67296, Note_on_c, 9, 36, 1
5, 67535, Note_on_c, 9, 36, 0
5, 68153, Note_on_c, 9, 44, 44
5, 68307, Note_on_c, 9, 44, 0
5, 68800, Note_on_c, 9, 36, 7
5, 68920, Note_on_c, 9, 36, 0
5, 69150, Note_on_c, 9, 36, 5
5, 69261, Note_on_c, 9, 57, 1
5, 69389, Note_on_c, 9, 36, 0
5, 69569, Note_on_c, 9, 57, 0
5, 70111, Note_on_c, 9, 44, 42
5, 70291, Note_on_c, 9, 44, 0
5, 70608, Note_on_c, 9, 36, 19
5, 70975, Note_on_c, 9, 36, 0
5, 72091, Note_on_c, 9, 44, 32
5, 72260, Note_on_c, 9, 44, 0
5, 73043, Note_on_c, 9, 36, 3
5, 73277, Note_on_c, 9, 36, 0
5, 73976, Note_on_c, 9, 44, 42
5, 74130, Note_on_c, 9, 44, 0
5, 74527, Note_on_c, 9, 36, 14
5, 74829, Note_on_c, 9, 36, 0
5, 75917, Note_on_c, 9, 44, 41
5, 76058, Note_on_c, 9, 44, 0
5, 76358, Note_on_c, 9, 36, 11
5, 76478, Note_on_c, 9, 36, 0
5, 76808, Note_on_c, 9, 36, 9
5, 77301, Note_on_c, 9, 36, 0
5, 77810, Note_on_c, 9, 44, 41
5, 77948, Note_on_c, 9, 44, 0
5, 78379, Note_on_c, 9, 38, 48
5, 78414, Note_on_c, 9, 36, 15
5, 78465, Note_on_c, 9, 38, 0
5, 78759, Note_on_c, 9, 36, 0
5, 78906, Note_on_c, 9, 38, 22
5, 79039, Note_on_c, 9, 38, 0
5, 79524, Note_on_c, 9, 36, 12
5, 79620, Note_on_c, 9, 36, 0
5, 79725, Note_on_c, 9, 44, 38
5, 79988, Note_on_c, 9, 44, 0
5, 80724, Note_on_c, 9, 36, 12
5, 80727, Note_on_c, 9, 36, 5
5, 80877, Note_on_c, 9, 36, 0
5, 81049, Note_on_c, 9, 36, 0
5, 81610, Note_on_c, 9, 44, 45
5, 81876, Note_on_c, 9, 44, 0
5, 82225, Note_on_c, 9, 36, 7
5, 82327, Note_on_c, 9, 36, 1
5, 82342, Note_on_c, 9, 36, 0
5, 82476, Note_on_c, 9, 36, 0
5, 82607, Note_on_c, 9, 36, 3
5, 82917, Note_on_c, 9, 36, 0
5, 83472, Note_on_c, 9, 44, 44
5, 83725, Note_on_c, 9, 44, 0
5, 84629, Note_on_c, 9, 36, 2
5, 84851, Note_on_c, 9, 36, 0
5, 85522, Note_on_c, 9, 44, 41
5, 85726, Note_on_c, 9, 44, 0
5, 86121, Note_on_c, 9, 36, 11
5, 86159, Note_on_c, 9, 38, 40
5, 86263, Note_on_c, 9, 38, 0
5, 86264, Note_on_c, 9, 36, 0
5, 86483, Note_on_c, 9, 36, 1
5, 86887, Note_on_c, 9, 36, 0
5, 87129, Note_on_c, 9, 38, 41
5, 87452, Note_on_c, 9, 38, 0
5, 87496, Note_on_c, 9, 44, 32
5, 87564, Note_on_c, 9, 36, 1
5, 87788, Note_on_c, 9, 44, 0
5, 87942, Note_on_c, 9, 36, 0
5, 88379, Note_on_c, 9, 36, 5
5, 88545, Note_on_c, 9, 36, 0
5, 89421, Note_on_c, 9, 44, 35
5, 89632, Note_on_c, 9, 44, 0
5, 89818, Note_on_c, 9, 36, 11
5, 90174, Note_on_c, 9, 36, 0
5, 91291, Note_on_c, 9, 44, 41
5, 91601, Note_on_c, 9, 44, 0
5, 92184, Note_on_c, 9, 36, 3
5, 92372, Note_on_c, 9, 36, 0
5, 93208, Note_on_c, 9, 44, 38
5, 93430, Note_on_c, 9, 44, 0
5, 93580, Note_on_c, 9, 36, 23
5, 94392, Note_on_c, 9, 36, 0
5, 95041, Note_on_c, 9, 46, 7
5, 95602, Note_on_c, 9, 46, 0
5, 96063, Note_on_c, 9, 36, 1
5, 96394, Note_on_c, 9, 36, 0
5, 97029, Note_on_c, 9, 44, 27
5, 97368, Note_on_c, 9, 44, 0
5, 97467, Note_on_c, 9, 36, 13
5, 97608, Note_on_c, 9, 38, 47
5, 97704, Note_on_c, 9, 38, 0
5, 97994, Note_on_c, 9, 36, 0
5, 98599, Note_on_c, 9, 38, 51
5, 98698, Note_on_c, 9, 38, 0
5, 98867, Note_on_c, 9, 44, 29
5, 99040, Note_on_c, 9, 44, 0
5, 99498, Note_on_c, 9, 36, 5
5, 99559, Note_on_c, 9, 36, 5
5, 99589, Note_on_c, 9, 57, 1
5, 99695, Note_on_c, 9, 36, 0
5, 99735, Note_on_c, 9, 57, 0
5, 99765, Note_on_c, 9, 36, 0
5, 99908, Note_on_c, 9, 36, 2
5, 100660, Note_on_c, 9, 36, 0
5, 100912, Note_on_c, 9, 44, 29
5, 101121, Note_on_c, 9, 44, 0
5, 101805, Note_on_c, 9, 36, 6
5, 102084, Note_on_c, 9, 36, 0
5, 102586, Note_on_c, 9, 36, 1
5, 102717, Note_on_c, 9, 36, 0
5, 102826, Note_on_c, 9, 44, 27
5, 102990, Note_on_c, 9, 44, 0
5, 103781, Note_on_c, 9, 36, 1
5, 104120, Note_on_c, 9, 36, 0
5, 104680, Note_on_c, 9, 46, 11
5, 104892, Note_on_c, 9, 46, 0
5, 105074, Note_on_c, 9, 36, 16
5, 105895, Note_on_c, 9, 36, 0
5, 106590, Note_on_c, 9, 44, 39
5, 106790, Note_on_c, 9, 44, 0
5, 107472, Note_on_c, 9, 36, 8
5, 107854, Note_on_c, 9, 36, 0
5, 108512, Note_on_c, 9, 44, 47
5, 108655, Note_on_c, 9, 44, 0
5, 109019, Note_on_c, 9, 36, 23
5, 109873, Note_on_c, 9, 36, 0
5, 110374, Note_on_c, 9, 44, 42
5, 110697, Note_on_c, 9, 44, 0
5, 111360, Note_on_c, 9, 36, 4
5, 111599, Note_on_c, 9, 36, 0
5, 112267, Note_on_c, 9, 44, 38
5, 112520, Note_on_c, 9, 44, 0
5, 112864, Note_on_c, 9, 36, 23
5, 113621, Note_on_c, 9, 36, 0
5, 114226, Note_on_c, 9, 44, 41
5, 114299, Note_on_c, 9, 36, 4
5, 114497, Note_on_c, 9, 44, 0
5, 114655, Note_on_c, 9, 36, 0
5, 115253, Note_on_c, 9, 36, 11
5, 115854, Note_on_c, 9, 36, 0
5, 116137, Note_on_c, 9, 44, 35
5, 116297, Note_on_c, 9, 44, 0
5, 116791, Note_on_c, 9, 36, 16
5, 116803, Note_on_c, 9, 36, 5
5, 116917, Note_on_c, 9, 36, 0
5, 117087, Note_on_c, 9, 36, 0
5, 117348, Note_on_c, 9, 36, 1
5, 117624, Note_on_c, 9, 36, 0
5, 118086, Note_on_c, 9, 44, 33
5, 118359, Note_on_c, 9, 44, 0
5, 118740, Note_on_c, 9, 36, 1
5, 118886, Note_on_c, 9, 36, 0
5, 119044, Note_on_c, 9, 36, 5
5, 119218, Note_on_c, 9, 36, 1
5, 119235, Note_on_c, 9, 36, 0
5, 119437, Note_on_c, 9, 36, 0
5, 120036, Note_on_c, 9, 44, 33
5, 120222, Note_on_c, 9, 44, 0
5, 120511, Note_on_c, 9, 36, 28
5, 120610, Note_on_c, 9, 36, 1
5, 120756, Note_on_c, 9, 36, 0
5, 120821, Note_on_c, 9, 36, 0
5, 121594, Note_on_c, 9, 38, 27
5, 121898, Note_on_c, 9, 46, 11
5, 121917, Note_on_c, 9, 38, 0
5, 122084, Note_on_c, 9, 46, 0
5, 122086, Note_on_c, 9, 36, 1
5, 122240, Note_on_c, 9, 36, 0
5, 122581, Note_on_c, 9, 36, 16
5, 122692, Note_on_c, 9, 36, 0
5, 122984, Note_on_c, 9, 36, 2
5, 122991, Note_on_c, 9, 36, 8
5, 123111, Note_on_c, 9, 36, 0
5, 123313, Note_on_c, 9, 36, 0
5, 123768, Note_on_c, 9, 44, 35
5, 123993, Note_on_c, 9, 44, 0
5, 124492, Note_on_c, 9, 36, 19
5, 124851, Note_on_c, 9, 36, 0
5, 125792, Note_on_c, 9, 44, 41
5, 125957, Note_on_c, 9, 44, 0
5, 126805, Note_on_c, 9, 36, 1
5, 127158, Note_on_c, 9, 36, 0
5, 127466, Note_on_c, 9, 38, 52
5, 127566, Note_on_c, 9, 38, 0
5, 127780, Note_on_c, 9, 44, 48
5, 128085, Note_on_c, 9, 44, 0
5, 128421, Note_on_c, 9, 38, 61
5, 128515, Note_on_c, 9, 38, 0
5, 128803, Note_on_c, 9, 36, 1
5, 129077, Note_on_c, 9, 36, 0
5, 129344, Note_on_c, 9, 38, 78
5, 129433, Note_on_c, 9, 38, 0
5, 129647, Note_on_c, 9, 44, 45
5, 129702, Note_on_c, 9, 38, 59
5, 129782, Note_on_c, 9, 44, 0
5, 129803, Note_on_c, 9, 38, 0
5, 130205, Note_on_c, 9, 38, 52
5, 130309, Note_on_c, 9, 38, 0
5, 130382, Note_on_c, 9, 38, 31
5, 130633, Note_on_c, 9, 38, 0
5, 130641, Note_on_c, 9, 36, 2
5, 130664, Note_on_c, 9, 36, 15
5, 130983, Note_on_c, 9, 36, 0
5, 131217, Note_on_c, 9, 36, 0
5, 131483, Note_on_c, 9, 44, 42
5, 131616, Note_on_c, 9, 44, 0
5, 132065, Note_on_c, 9, 36, 11
5, 132250, Note_on_c, 9, 36, 0
5, 133449, Note_on_c, 9, 44, 36
5, 133595, Note_on_c, 9, 44, 0
5, 134514, Note_on_c, 9, 36, 1
5, 134774, Note_on_c, 9, 36, 0
5, 135377, Note_on_c, 9, 44, 30
5, 135546, Note_on_c, 9, 44, 0
5, 135904, Note_on_c, 9, 36, 8
5, 136856, Note_on_c, 9, 36, 0
5, 137265, Note_on_c, 9, 44, 32
5, 137476, Note_on_c, 9, 44, 0
5, 138345, Note_on_c, 9, 36, 2
5, 138487, Note_on_c, 9, 36, 0
5, 139216, Note_on_c, 9, 44, 30
5, 139518, Note_on_c, 9, 44, 0
5, 139798, Note_on_c, 9, 36, 12
5, 139803, Note_on_c, 9, 38, 50
5, 139902, Note_on_c, 9, 38, 0
5, 140253, Note_on_c, 9, 36, 0
5, 140264, Note_on_c, 9, 38, 31
5, 140426, Note_on_c, 9, 38, 0
5, 140817, Note_on_c, 9, 36, 11
5, 140997, Note_on_c, 9, 36, 0
5, 141143, Note_on_c, 9, 44, 35
5, 141427, Note_on_c, 9, 44, 0
5, 142103, Note_on_c, 9, 36, 7
5, 142218, Note_on_c, 9, 36, 2
5, 142442, Note_on_c, 9, 36, 0
5, 142477, Note_on_c, 9, 36, 0
5, 143042, Note_on_c, 9, 44, 48
5, 143326, Note_on_c, 9, 44, 0
5, 143691, Note_on_c, 9, 36, 26
5, 144500, Note_on_c, 9, 36, 0
5, 144693, Note_on_c, 9, 38, 55
5, 144800, Note_on_c, 9, 38, 0
5, 144964, Note_on_c, 9, 44, 41
5, 144992, Note_on_c, 9, 36, 12
5, 145102, Note_on_c, 9, 44, 0
5, 145131, Note_on_c, 9, 36, 1
5, 145355, Note_on_c, 9, 36, 0
5, 145456, Note_on_c, 9, 36, 0
5, 146017, Note_on_c, 9, 36, 2
5, 146097, Note_on_c, 9, 36, 1
5, 146182, Note_on_c, 9, 36, 0
5, 146425, Note_on_c, 9, 36, 0
5, 146883, Note_on_c, 9, 44, 41
5, 147074, Note_on_c, 9, 44, 0
5, 147926, Note_on_c, 9, 36, 5
5, 148111, Note_on_c, 9, 36, 0
5, 148784, Note_on_c, 9, 44, 41
5, 149087, Note_on_c, 9, 44, 0
5, 149523, Note_on_c, 9, 36, 1
5, 149660, Note_on_c, 9, 36, 0
5, 149882, Note_on_c, 9, 36, 7
5, 150372, Note_on_c, 9, 36, 0
5, 150709, Note_on_c, 9, 44, 41
5, 151030, Note_on_c, 9, 44, 0
5, 151460, Note_on_c, 9, 36, 6
5, 151611, Note_on_c, 9, 36, 0
5, 151819, Note_on_c, 9, 36, 1
5, 152272, Note_on_c, 9, 36, 0
5, 152355, Note_on_c, 9, 36, 17
5, 152444, Note_on_c, 9, 36, 0
5, 152629, Note_on_c, 9, 44, 45
5, 152905, Note_on_c, 9, 44, 0
5, 153650, Note_on_c, 9, 36, 7
5, 153711, Note_on_c, 9, 36, 14
5, 153915, Note_on_c, 9, 36, 0
5, 153925, Note_on_c, 9, 36, 0
5, 154618, Note_on_c, 9, 44, 44
5, 154733, Note_on_c, 9, 44, 0
5, 155071, Note_on_c, 9, 36, 12
5, 155248, Note_on_c, 9, 36, 0
5, 155307, Note_on_c, 9, 36, 9
5, 155417, Note_on_c, 9, 36, 0
5, 156249, Note_on_c, 9, 38, 23
5, 156397, Note_on_c, 9, 38, 0
5, 156465, Note_on_c, 9, 46, 18
5, 157022, Note_on_c, 9, 36, 6
5, 157153, Note_on_c, 9, 36, 0
5, 157452, Note_on_c, 9, 36, 7
5, 158079, Note_on_c, 9, 46, 0
5, 158124, Note_on_c, 9, 36, 0
5, 158353, Note_on_c, 9, 44, 44
5, 158716, Note_on_c, 9, 44, 0
5, 159380, Note_on_c, 9, 36, 3
5, 159927, Note_on_c, 9, 36, 0
5, 159978, Note_on_c, 9, 38, 72
5, 160093, Note_on_c, 9, 38, 0
5, 160346, Note_on_c, 9, 44, 42
5, 160429, Note_on_c, 9, 38, 29
5, 160489, Note_on_c, 9, 44, 0
5, 160557, Note_on_c, 9, 38, 0
5, 161303, Note_on_c, 9, 36, 11
5, 161355, Note_on_c, 9, 36, 5
5, 161725, Note_on_c, 9, 36, 0
5, 161989, Note_on_c, 9, 36, 5
5, 162069, Note_on_c, 9, 36, 0
5, 162114, Note_on_c, 9, 36, 0
5, 162265, Note_on_c, 9, 44, 38
5, 162442, Note_on_c, 9, 44, 0
5, 162801, Note_on_c, 9, 36, 12
5, 162906, Note_on_c, 9, 36, 0
5, 163185, Note_on_c, 9, 36, 13
5, 163792, Note_on_c, 9, 36, 0
5, 164179, Note_on_c, 9, 44, 41
5, 164354, Note_on_c, 9, 44, 0
5, 165247, Note_on_c, 9, 36, 8
5, 165803, Note_on_c, 9, 36, 0
5, 166117, Note_on_c, 9, 44, 41
5, 166339, Note_on_c, 9, 44, 0
5, 166746, Note_on_c, 9, 38, 57
5, 166776, Note_on_c, 9, 36, 14
5, 166868, Note_on_c, 9, 38, 0
5, 167205, Note_on_c, 9, 36, 1
5, 167244, Note_on_c, 9, 36, 0
5, 167489, Note_on_c, 9, 36, 0
5, 167760, Note_on_c, 9, 36, 5
5, 167901, Note_on_c, 9, 36, 0
5, 167979, Note_on_c, 9, 44, 41
5, 168245, Note_on_c, 9, 44, 0
5, 168655, Note_on_c, 9, 38, 23
5, 168769, Note_on_c, 9, 38, 0
5, 169114, Note_on_c, 9, 36, 1
5, 169115, Note_on_c, 9, 36, 9
5, 169312, Note_on_c, 9, 36, 0
5, 169323, Note_on_c, 9, 36, 0
5, 169612, Note_on_c, 9, 36, 2
5, 169742, Note_on_c, 9, 36, 0
5, 169969, Note_on_c, 9, 44, 41
5, 170173, Note_on_c, 9, 44, 0
5, 170584, Note_on_c, 9, 36, 11
5, 170812, Note_on_c, 9, 36, 0
5, 170937, Note_on_c, 9, 36, 1
5, 171356, Note_on_c, 9, 36, 0
5, 171868, Note_on_c, 9, 44, 44
5, 172196, Note_on_c, 9, 44, 0
5, 172491, Note_on_c, 9, 36, 4
5, 172609, Note_on_c, 9, 36, 0
5, 172860, Note_on_c, 9, 36, 11
5, 172922, Note_on_c, 9, 36, 1
5, 173019, Note_on_c, 9, 36, 0
5, 173073, Note_on_c, 9, 36, 0
5, 173738, Note_on_c, 9, 44, 57
5, 174048, Note_on_c, 9, 44, 0
5, 174292, Note_on_c, 9, 36, 20
5, 174651, Note_on_c, 9, 36, 0
5, 175569, Note_on_c, 9, 46, 14
5, 175923, Note_on_c, 9, 46, 0
5, 176690, Note_on_c, 9, 36, 11
5, 176839, Note_on_c, 9, 36, 0
5, 177472, Note_on_c, 9, 44, 50
5, 177652, Note_on_c, 9, 44, 0
5, 178072, Note_on_c, 9, 36, 1
5, 178234, Note_on_c, 9, 36, 0
5, 178234, Note_on_c, 9, 36, 20
5, 178505, Note_on_c, 9, 59, 15
5, 178641, Note_on_c, 9, 59, 0
5, 178863, Note_on_c, 9, 36, 0
5, 179453, Note_on_c, 9, 36, 20
5, 179488, Note_on_c, 9, 44, 44
5, 179749, Note_on_c, 9, 36, 0
5, 179817, Note_on_c, 9, 44, 0
5, 180088, Note_on_c, 9, 36, 12
5, 180182, Note_on_c, 9, 36, 0
5, 180436, Note_on_c, 9, 36, 18
5, 180508, Note_on_c, 9, 59, 36
5, 180602, Note_on_c, 9, 59, 0
5, 180874, Note_on_c, 9, 36, 0
5, 181421, Note_on_c, 9, 44, 48
5, 181757, Note_on_c, 9, 44, 0
5, 181845, Note_on_c, 9, 36, 16
5, 181982, Note_on_c, 9, 36, 4
5, 182099, Note_on_c, 9, 36, 0
5, 182270, Note_on_c, 9, 36, 0
5, 182988, Note_on_c, 9, 36, 12
5, 183111, Note_on_c, 9, 36, 0
5, 183291, Note_on_c, 9, 44, 41
5, 183440, Note_on_c, 9, 38, 19
5, 183575, Note_on_c, 9, 44, 0
5, 183625, Note_on_c, 9, 38, 0
5, 184032, Note_on_c, 9, 36, 1
5, 184343, Note_on_c, 9, 36, 11
5, 184379, Note_on_c, 9, 36, 0
5, 184537, Note_on_c, 9, 36, 0
5, 185257, Note_on_c, 9, 44, 38
5, 185625, Note_on_c, 9, 44, 0
5, 185750, Note_on_c, 9, 36, 14
5, 185864, Note_on_c, 9, 36, 0
5, 186177, Note_on_c, 9, 36, 5
5, 186616, Note_on_c, 9, 36, 0
5, 186833, Note_on_c, 9, 38, 51
5, 186935, Note_on_c, 9, 38, 0
5, 187164, Note_on_c, 9, 44, 45
5, 187208, Note_on_c, 9, 38, 43
5, 187365, Note_on_c, 9, 38, 0
5, 187487, Note_on_c, 9, 44, 0
5, 187852, Note_on_c, 9, 36, 2
5, 188132, Note_on_c, 9, 36, 0
5, 188174, Note_on_c, 9, 36, 3
5, 188649, Note_on_c, 9, 36, 0
5, 188737, Note_on_c, 9, 38, 64
5, 189016, Note_on_c, 9, 38, 0
5, 189094, Note_on_c, 9, 44, 71
5, 189258, Note_on_c, 9, 38, 51
5, 189349, Note_on_c, 9, 38, 0
5, 189461, Note_on_c, 9, 44, 0
5, 189677, Note_on_c, 9, 36, 11
5, 189794, Note_on_c, 9, 36, 0
5, 189895, Note_on_c, 9, 36, 8
5, 190012, Note_on_c, 9, 36, 0
5, 190176, Note_on_c, 9, 36, 1
5, 190415, Note_on_c, 9, 36, 0
5, 190747, Note_on_c, 9, 38, 68
5, 190990, Note_on_c, 9, 38, 0
5, 191052, Note_on_c, 9, 44, 39
5, 191211, Note_on_c, 9, 38, 31
5, 191389, Note_on_c, 9, 38, 0
5, 191399, Note_on_c, 9, 44, 0
5, 191785, Note_on_c, 9, 36, 17
5, 191939, Note_on_c, 9, 36, 0
5, 192030, Note_on_c, 9, 36, 5
5, 192269, Note_on_c, 9, 36, 0
5, 193042, Note_on_c, 9, 44, 32
5, 193439, Note_on_c, 9, 44, 0
5, 193488, Note_on_c, 9, 36, 19
5, 193855, Note_on_c, 9, 36, 0
5, 194936, Note_on_c, 9, 44, 42
5, 195316, Note_on_c, 9, 44, 0
5, 195923, Note_on_c, 9, 36, 3
5, 196157, Note_on_c, 9, 36, 0
5, 196858, Note_on_c, 9, 44, 35
5, 197100, Note_on_c, 9, 44, 0
5, 197407, Note_on_c, 9, 36, 14
5, 197709, Note_on_c, 9, 36, 0
5, 198733, Note_on_c, 9, 44, 45
5, 199056, Note_on_c, 9, 44, 0
5, 199238, Note_on_c, 9, 36, 11
5, 199358, Note_on_c, 9, 36, 0
5, 199688, Note_on_c, 9, 36, 9
5, 200181, Note_on_c, 9, 36, 0
5, 200678, Note_on_c, 9, 44, 42
5, 201009, Note_on_c, 9, 44, 0
5, 201294, Note_on_c, 9, 36, 15
5, 201639, Note_on_c, 9, 36, 0
5, 202587, Note_on_c, 9, 44, 48
5, 202966, Note_on_c, 9, 44, 0
5, 203607, Note_on_c, 9, 36, 5
5, 203929, Note_on_c, 9, 36, 0
5, 204533, Note_on_c, 9, 44, 36
5, 204911, Note_on_c, 9, 44, 0
5, 205105, Note_on_c, 9, 36, 7
5, 205222, Note_on_c, 9, 36, 0
5, 205487, Note_on_c, 9, 36, 3
5, 205797, Note_on_c, 9, 36, 0
5, 206228, Note_on_c, 9, 38, 62
5, 206320, Note_on_c, 9, 38, 0
5, 206499, Note_on_c, 9, 44, 42
5, 206812, Note_on_c, 9, 44, 0
5, 207212, Note_on_c, 9, 38, 55
5, 207342, Note_on_c, 9, 38, 0
5, 207509, Note_on_c, 9, 36, 2
5, 207608, Note_on_c, 9, 36, 1
5, 207731, Note_on_c, 9, 36, 0
5, 208310, Note_on_c, 9, 36, 0
5, 208382, Note_on_c, 9, 44, 48
5, 208601, Note_on_c, 9, 44, 0
5, 209001, Note_on_c, 9, 36, 11
5, 209144, Note_on_c, 9, 36, 0
5, 209363, Note_on_c, 9, 36, 1
5, 209535, Note_on_c, 9, 36, 1
5, 209653, Note_on_c, 9, 36, 0
5, 209767, Note_on_c, 9, 36, 0
5, 210242, Note_on_c, 9, 46, 10
5, 210438, Note_on_c, 9, 46, 0
5, 210991, Note_on_c, 9, 36, 2
5, 211121, Note_on_c, 9, 36, 0
5, 211259, Note_on_c, 9, 36, 5
5, 211425, Note_on_c, 9, 36, 0
5, 212086, Note_on_c, 9, 44, 32
5, 212323, Note_on_c, 9, 44, 0
5, 212698, Note_on_c, 9, 36, 11
5, 212871, Note_on_c, 9, 36, 6
5, 212986, Note_on_c, 9, 36, 0
5, 213054, Note_on_c, 9, 36, 0
5, 214057, Note_on_c, 9, 44, 39
5, 214381, Note_on_c, 9, 44, 0
5, 215064, Note_on_c, 9, 36, 3
5, 215252, Note_on_c, 9, 36, 0
5, 215990, Note_on_c, 9, 44, 39
5, 216306, Note_on_c, 9, 44, 0
5, 216460, Note_on_c, 9, 36, 23
5, 217272, Note_on_c, 9, 36, 0
5, 217605, Note_on_c, 9, 36, 3
5, 217722, Note_on_c, 9, 36, 0
5, 217917, Note_on_c, 9, 44, 51
5, 218045, Note_on_c, 9, 36, 1
5, 218155, Note_on_c, 9, 44, 0
5, 218189, Note_on_c, 9, 36, 0
5, 218624, Note_on_c, 9, 36, 8
5, 218742, Note_on_c, 9, 36, 0
5, 218943, Note_on_c, 9, 36, 1
5, 219274, Note_on_c, 9, 36, 0
5, 219459, Note_on_c, 9, 38, 55
5, 219631, Note_on_c, 9, 38, 0
5, 219832, Note_on_c, 9, 44, 44
5, 219889, Note_on_c, 9, 36, 1
5, 220030, Note_on_c, 9, 36, 0
5, 220184, Note_on_c, 9, 44, 0
5, 220347, Note_on_c, 9, 36, 13
5, 220692, Note_on_c, 9, 36, 2
5, 220812, Note_on_c, 9, 36, 0
5, 220874, Note_on_c, 9, 36, 0
5, 221514, Note_on_c, 9, 36, 3
5, 221673, Note_on_c, 9, 36, 0
5, 221712, Note_on_c, 9, 44, 41
5, 221855, Note_on_c, 9, 44, 0
5, 222378, Note_on_c, 9, 36, 5
5, 222429, Note_on_c, 9, 36, 7
5, 222536, Note_on_c, 9, 36, 0
5, 222575, Note_on_c, 9, 36, 0
5, 222760, Note_on_c, 9, 57, 1
5, 222788, Note_on_c, 9, 36, 2
5, 222797, Note_on_c, 9, 36, 9
5, 222925, Note_on_c, 9, 36, 0
5, 223097, Note_on_c, 9, 57, 0
5, 223540, Note_on_c, 9, 36, 0
5, 224685, Note_on_c, 9, 36, 6
5, 224964, Note_on_c, 9, 36, 0
5, 225642, Note_on_c, 9, 44, 45
5, 225950, Note_on_c, 9, 44, 0
5, 226661, Note_on_c, 9, 36, 1
5, 227000, Note_on_c, 9, 36, 0
5, 227596, Note_on_c, 9, 44, 42
5, 227841, Note_on_c, 9, 44, 0
5, 227954, Note_on_c, 9, 36, 16
5, 228775, Note_on_c, 9, 36, 0
5, 229559, Note_on_c, 9, 44, 51
5, 229726, Note_on_c, 9, 44, 0
5, 230352, Note_on_c, 9, 36, 8
5, 230734, Note_on_c, 9, 36, 0
5, 231103, Note_on_c, 9, 38, 31
5, 231244, Note_on_c, 9, 38, 0
5, 231489, Note_on_c, 9, 44, 36
5, 231635, Note_on_c, 9, 44, 0
5, 231899, Note_on_c, 9, 36, 23
5, 232016, Note_on_c, 9, 38, 29
5, 232144, Note_on_c, 9, 38, 0
5, 232366, Note_on_c, 9, 38, 1
5, 232753, Note_on_c, 9, 36, 0
5, 232817, Note_on_c, 9, 38, 0
5, 233073, Note_on_c, 9, 36, 4
5, 233190, Note_on_c, 9, 36, 0
5, 233268, Note_on_c, 9, 44, 39
5, 233508, Note_on_c, 9, 44, 0
5, 234240, Note_on_c, 9, 36, 4
5, 234479, Note_on_c, 9, 36, 0
5, 235195, Note_on_c, 9, 44, 42
5, 235506, Note_on_c, 9, 44, 0
5, 235744, Note_on_c, 9, 36, 23
5, 235840, Note_on_c, 9, 38, 58
5, 235967, Note_on_c, 9, 38, 0
5, 236273, Note_on_c, 9, 38, 50
5, 236421, Note_on_c, 9, 38, 0
5, 236501, Note_on_c, 9, 36, 0
5, 236867, Note_on_c, 9, 36, 10
5, 237008, Note_on_c, 9, 36, 0
5, 237110, Note_on_c, 9, 44, 45
5, 237179, Note_on_c, 9, 36, 4
5, 237316, Note_on_c, 9, 44, 0
5, 237535, Note_on_c, 9, 36, 0
5, 238133, Note_on_c, 9, 36, 11
5, 238184, Note_on_c, 9, 36, 11
5, 238302, Note_on_c, 9, 36, 0
5, 238734, Note_on_c, 9, 36, 0
5, 239024, Note_on_c, 9, 44, 45
5, 239196, Note_on_c, 9, 44, 0
5, 239671, Note_on_c, 9, 36, 16
5, 239967, Note_on_c, 9, 36, 0
5, 240894, Note_on_c, 9, 44, 45
5, 241157, Note_on_c, 9, 44, 0
5, 241924, Note_on_c, 9, 36, 5
5, 242115, Note_on_c, 9, 36, 0
5, 242871, Note_on_c, 9, 44, 56
5, 242993, Note_on_c, 9, 44, 0
5, 243391, Note_on_c, 9, 36, 28
5, 243701, Note_on_c, 9, 36, 0
5, 243849, Note_on_c, 9, 36, 5
5, 244295, Note_on_c, 9, 36, 0
5, 244519, Note_on_c, 9, 38, 45
5, 244785, Note_on_c, 9, 44, 42
5, 244840, Note_on_c, 9, 38, 0
5, 245127, Note_on_c, 9, 44, 0
5, 245461, Note_on_c, 9, 36, 16
5, 245572, Note_on_c, 9, 36, 0
5, 245800, Note_on_c, 9, 38, 44
5, 245871, Note_on_c, 9, 36, 8
5, 246060, Note_on_c, 9, 38, 0
5, 246193, Note_on_c, 9, 36, 0
5, 246733, Note_on_c, 9, 44, 45
5, 246744, Note_on_c, 9, 36, 1
5, 246874, Note_on_c, 9, 36, 0
5, 246916, Note_on_c, 9, 44, 0
5, 247372, Note_on_c, 9, 36, 19
5, 247419, Note_on_c, 9, 36, 17
5, 247547, Note_on_c, 9, 36, 0
5, 247731, Note_on_c, 9, 36, 0
5, 248431, Note_on_c, 9, 36, 7
5, 248595, Note_on_c, 9, 36, 0
5, 248634, Note_on_c, 9, 44, 53
5, 248757, Note_on_c, 9, 44, 0
5, 249685, Note_on_c, 9, 36, 1
5, 250038, Note_on_c, 9, 36, 0
5, 250515, Note_on_c, 9, 46, 24
5, 250851, Note_on_c, 9, 46, 0
5, 251683, Note_on_c, 9, 36, 1
5, 251957, Note_on_c, 9, 36, 0
5, 252184, Note_on_c, 9, 38, 50
5, 252283, Note_on_c, 9, 38, 0
5, 252434, Note_on_c, 9, 44, 42
5, 252565, Note_on_c, 9, 44, 0
5, 253000, Note_on_c, 9, 38, 51
5, 253094, Note_on_c, 9, 38, 0
5, 253521, Note_on_c, 9, 36, 2
5, 253863, Note_on_c, 9, 36, 0
5, 254408, Note_on_c, 9, 44, 21
5, 254581, Note_on_c, 9, 44, 0
5, 254945, Note_on_c, 9, 36, 11
5, 255130, Note_on_c, 9, 36, 0
5, 256260, Note_on_c, 9, 44, 35
5, 256417, Note_on_c, 9, 44, 0
5, 257394, Note_on_c, 9, 36, 1
5, 257654, Note_on_c, 9, 36, 0
5, 258177, Note_on_c, 9, 44, 36
5, 258493, Note_on_c, 9, 44, 0
5, 258784, Note_on_c, 9, 36, 8
5, 259736, Note_on_c, 9, 36, 0
5, 260068, Note_on_c, 9, 44, 48
5, 260279, Note_on_c, 9, 44, 0
5, 261225, Note_on_c, 9, 36, 2
5, 261367, Note_on_c, 9, 36, 0
5, 262045, Note_on_c, 9, 44, 41
5, 262378, Note_on_c, 9, 44, 0
5, 262678, Note_on_c, 9, 36, 12
5, 263133, Note_on_c, 9, 36, 0
5, 263711, Note_on_c, 9, 38, 40
5, 263881, Note_on_c, 9, 38, 0
5, 264006, Note_on_c, 9, 44, 48
5, 264267, Note_on_c, 9, 44, 0
5, 265036, Note_on_c, 9, 36, 8
5, 265098, Note_on_c, 9, 36, 2
5, 265357, Note_on_c, 9, 36, 0
5, 265472, Note_on_c, 9, 36, 0
5, 265988, Note_on_c, 9, 44, 32
5, 266150, Note_on_c, 9, 44, 0
5, 266571, Note_on_c, 9, 36, 26
5, 267380, Note_on_c, 9, 36, 0
5, 267548, Note_on_c, 9, 38, 52
5, 267642, Note_on_c, 9, 38, 0
5, 267871, Note_on_c, 9, 44, 59
5, 267872, Note_on_c, 9, 36, 12
5, 268192, Note_on_c, 9, 44, 0
5, 268336, Note_on_c, 9, 36, 0
5, 268899, Note_on_c, 9, 38, 51
5, 268977, Note_on_c, 9, 36, 1
5, 269060, Note_on_c, 9, 38, 0
5, 269305, Note_on_c, 9, 36, 0
5, 269798, Note_on_c, 9, 44, 56
5, 269957, Note_on_c, 9, 36, 1
5, 270043, Note_on_c, 9, 44, 0
5, 270104, Note_on_c, 9, 36, 0
5, 270583, Note_on_c, 9, 36, 1
5, 270737, Note_on_c, 9, 36, 0
5, 270806, Note_on_c, 9, 36, 5
5, 270991, Note_on_c, 9, 36, 0
5, 271731, Note_on_c, 9, 44, 63
5, 272174, Note_on_c, 9, 44, 0
5, 272403, Note_on_c, 9, 36, 1
5, 272540, Note_on_c, 9, 36, 0
5, 272762, Note_on_c, 9, 36, 7
5, 273252, Note_on_c, 9, 36, 0
5, 273601, Note_on_c, 9, 44, 68
5, 274143, Note_on_c, 9, 44, 0
5, 274340, Note_on_c, 9, 36, 6
5, 274491, Note_on_c, 9, 36, 0
5, 274699, Note_on_c, 9, 36, 1
5, 275152, Note_on_c, 9, 36, 0
5, 275531, Note_on_c, 9, 44, 75
5, 276034, Note_on_c, 9, 44, 0
5, 276530, Note_on_c, 9, 36, 7
5, 276795, Note_on_c, 9, 36, 0
5, 277481, Note_on_c, 9, 44, 59
5, 277852, Note_on_c, 9, 44, 0
5, 277951, Note_on_c, 9, 36, 12
5, 278128, Note_on_c, 9, 36, 0
5, 279318, Note_on_c, 9, 46, 17
5, 279602, Note_on_c, 9, 46, 0
5, 279902, Note_on_c, 9, 36, 6
5, 279975, Note_on_c, 9, 38, 44
5, 280033, Note_on_c, 9, 36, 0
5, 280090, Note_on_c, 9, 38, 0
5, 280332, Note_on_c, 9, 36, 7
5, 280470, Note_on_c, 9, 38, 17
5, 280622, Note_on_c, 9, 38, 0
5, 281004, Note_on_c, 9, 36, 0
5, 281081, Note_on_c, 9, 36, 4
5, 281188, Note_on_c, 9, 36, 0
5, 281253, Note_on_c, 9, 44, 51
5, 281581, Note_on_c, 9, 44, 0
5, 282260, Note_on_c, 9, 36, 3
5, 282807, Note_on_c, 9, 36, 0
5, 282904, Note_on_c, 9, 38, 47
5, 283024, Note_on_c, 9, 38, 0
5, 283175, Note_on_c, 9, 44, 57
5, 283313, Note_on_c, 9, 38, 31
5, 283451, Note_on_c, 9, 38, 0
5, 283647, Note_on_c, 9, 44, 0
5, 283913, Note_on_c, 9, 36, 3
5, 284069, Note_on_c, 9, 36, 0
5, 284183, Note_on_c, 9, 36, 11
5, 284949, Note_on_c, 9, 36, 0
5, 285133, Note_on_c, 9, 44, 53
5, 285446, Note_on_c, 9, 44, 0
5, 285681, Note_on_c, 9, 36, 12
5, 285786, Note_on_c, 9, 36, 0
5, 286065, Note_on_c, 9, 36, 13
5, 286672, Note_on_c, 9, 36, 0
5, 287066, Note_on_c, 9, 44, 56
5, 287454, Note_on_c, 9, 44, 0
5, 288127, Note_on_c, 9, 36, 8
5, 288683, Note_on_c, 9, 36, 0
5, 288977, Note_on_c, 9, 44, 54
5, 289353, Note_on_c, 9, 44, 0
5, 289656, Note_on_c, 9, 36, 14
5, 290124, Note_on_c, 9, 36, 0
5, 290873, Note_on_c, 9, 44, 62
5, 291223, Note_on_c, 9, 44, 0
5, 291995, Note_on_c, 9, 36, 9
5, 292203, Note_on_c, 9, 36, 0
5, 292775, Note_on_c, 9, 44, 56
5, 293119, Note_on_c, 9, 44, 0
5, 293464, Note_on_c, 9, 36, 11
5, 293692, Note_on_c, 9, 36, 0
5, 293817, Note_on_c, 9, 36, 1
5, 294236, Note_on_c, 9, 36, 0
5, 294767, Note_on_c, 9, 44, 59
5, 295093, Note_on_c, 9, 44, 0
5, 295459, Note_on_c, 9, 38, 54
5, 295555, Note_on_c, 9, 38, 0
5, 295740, Note_on_c, 9, 36, 11
5, 295899, Note_on_c, 9, 36, 0
5, 296411, Note_on_c, 9, 38, 50
5, 296614, Note_on_c, 9, 38, 0
5, 296695, Note_on_c, 9, 44, 50
5, 296820, Note_on_c, 9, 36, 1
5, 297041, Note_on_c, 9, 44, 0
5, 297172, Note_on_c, 9, 36, 20
5, 297394, Note_on_c, 9, 36, 0
5, 297531, Note_on_c, 9, 36, 0
5, 297727, Note_on_c, 9, 36, 1
5, 298194, Note_on_c, 9, 36, 0
5, 298544, Note_on_c, 9, 44, 48
5, 298914, Note_on_c, 9, 44, 0
5, 299570, Note_on_c, 9, 36, 11
5, 299719, Note_on_c, 9, 36, 0
5, 300507, Note_on_c, 9, 44, 45
5, 300826, Note_on_c, 9, 44, 0
5, 301114, Note_on_c, 9, 36, 20
5, 301743, Note_on_c, 9, 36, 0
5, 302333, Note_on_c, 9, 36, 20
5, 302427, Note_on_c, 9, 44, 47
5, 302629, Note_on_c, 9, 36, 0
5, 302698, Note_on_c, 9, 44, 0
5, 303316, Note_on_c, 9, 36, 18
5, 303754, Note_on_c, 9, 36, 0
5, 304349, Note_on_c, 9, 44, 45
5, 304626, Note_on_c, 9, 44, 0
5, 304725, Note_on_c, 9, 36, 16
5, 305116, Note_on_c, 9, 36, 1
5, 305150, Note_on_c, 9, 36, 0
5, 305259, Note_on_c, 9, 36, 0
5, 305924, Note_on_c, 9, 36, 4
5, 306047, Note_on_c, 9, 36, 0
5, 306237, Note_on_c, 9, 38, 24
5, 306284, Note_on_c, 9, 44, 42
5, 306483, Note_on_c, 9, 38, 0
5, 306516, Note_on_c, 9, 44, 0
5, 306879, Note_on_c, 9, 36, 9
5, 307012, Note_on_c, 9, 36, 0
5, 307223, Note_on_c, 9, 36, 11
5, 307417, Note_on_c, 9, 36, 0
5, 308277, Note_on_c, 9, 44, 20
5, 308616, Note_on_c, 9, 44, 0
5, 308630, Note_on_c, 9, 36, 14
5, 308744, Note_on_c, 9, 36, 0
5, 309057, Note_on_c, 9, 36, 5
5, 309496, Note_on_c, 9, 36, 0
5, 309732, Note_on_c, 9, 38, 50
5, 309826, Note_on_c, 9, 38, 0
5, 310097, Note_on_c, 9, 46, 17
5, 310139, Note_on_c, 9, 38, 43
5, 310316, Note_on_c, 9, 38, 0
5, 310321, Note_on_c, 9, 46, 0
5, 310757, Note_on_c, 9, 36, 2
5, 310880, Note_on_c, 9, 36, 0
5, 311054, Note_on_c, 9, 36, 3
5, 311529, Note_on_c, 9, 36, 0
5, 311691, Note_on_c, 9, 38, 57
5, 311980, Note_on_c, 9, 38, 0
5, 311993, Note_on_c, 9, 46, 17
5, 312306, Note_on_c, 9, 46, 0
5, 312557, Note_on_c, 9, 36, 11
5, 312674, Note_on_c, 9, 36, 0
5, 312690, Note_on_c, 9, 38, 48
5, 312823, Note_on_c, 9, 38, 0
5, 313056, Note_on_c, 9, 36, 1
5, 313219, Note_on_c, 9, 38, 44
5, 313295, Note_on_c, 9, 36, 0
5, 313313, Note_on_c, 9, 38, 0
5, 314027, Note_on_c, 9, 46, 16
5, 314218, Note_on_c, 9, 46, 0
5, 314794, Note_on_c, 9, 36, 8
5, 314893, Note_on_c, 9, 36, 0
5, 314910, Note_on_c, 9, 36, 5
5, 315039, Note_on_c, 9, 57, 1
5, 315149, Note_on_c, 9, 36, 0
5, 315493, Note_on_c, 9, 57, 0
5, 315887, Note_on_c, 9, 44, 38
5, 316062, Note_on_c, 9, 44, 0
5, 316368, Note_on_c, 9, 36, 19
5, 316735, Note_on_c, 9, 36, 0
5, 317848, Note_on_c, 9, 44, 59
5, 318216, Note_on_c, 9, 44, 0
5, 318803, Note_on_c, 9, 36, 3
5, 319037, Note_on_c, 9, 36, 0
5, 319747, Note_on_c, 9, 44, 60
5, 320036, Note_on_c, 9, 44, 0
5, 320287, Note_on_c, 9, 36, 14
5, 320589, Note_on_c, 9, 36, 0
5, 321572, Note_on_c, 9, 44, 62
5, 321867, Note_on_c, 9, 44, 0
5, 322118, Note_on_c, 9, 36, 11
5, 322238, Note_on_c, 9, 36, 0
5, 322568, Note_on_c, 9, 36, 9
5, 323061, Note_on_c, 9, 36, 0
5, 323510, Note_on_c, 9, 44, 65
5, 323737, Note_on_c, 9, 44, 0
5, 324174, Note_on_c, 9, 36, 15
5, 324519, Note_on_c, 9, 36, 0
5, 325489, Note_on_c, 9, 44, 69
5, 325789, Note_on_c, 9, 44, 0
5, 326131, Note_on_c, 9, 36, 1
5, 326277, Note_on_c, 9, 36, 0
5, 326487, Note_on_c, 9, 36, 5
5, 326622, Note_on_c, 9, 36, 1
5, 326809, Note_on_c, 9, 36, 0
5, 326848, Note_on_c, 9, 36, 0
5, 327422, Note_on_c, 9, 44, 65
5, 327638, Note_on_c, 9, 44, 0
5, 327985, Note_on_c, 9, 36, 7
5, 328048, Note_on_c, 9, 36, 5
5, 328102, Note_on_c, 9, 36, 0
5, 328163, Note_on_c, 9, 36, 0
5, 328367, Note_on_c, 9, 36, 3
5, 328476, Note_on_c, 9, 36, 1
5, 328632, Note_on_c, 9, 36, 0
5, 328677, Note_on_c, 9, 36, 0
5, 329287, Note_on_c, 9, 46, 1
5, 329441, Note_on_c, 9, 46, 0
5, 329970, Note_on_c, 9, 36, 12
5, 330114, Note_on_c, 9, 36, 0
5, 330389, Note_on_c, 9, 36, 2
5, 330611, Note_on_c, 9, 36, 0
5, 331162, Note_on_c, 9, 44, 54
5, 331261, Note_on_c, 9, 36, 8
5, 331329, Note_on_c, 9, 44, 0
5, 331655, Note_on_c, 9, 36, 0
5, 331881, Note_on_c, 9, 36, 11
5, 332024, Note_on_c, 9, 36, 0
5, 332243, Note_on_c, 9, 36, 1
5, 332647, Note_on_c, 9, 36, 0
5, 333047, Note_on_c, 9, 44, 84
5, 333355, Note_on_c, 9, 44, 0
5, 334139, Note_on_c, 9, 36, 5
5, 334305, Note_on_c, 9, 36, 0
5, 334868, Note_on_c, 9, 44, 29
5, 335194, Note_on_c, 9, 44, 0
5, 335578, Note_on_c, 9, 36, 11
5, 335934, Note_on_c, 9, 36, 0
5, 336652, Note_on_c, 9, 38, 29
5, 336788, Note_on_c, 9, 38, 0
5, 336954, Note_on_c, 9, 44, 48
5, 337192, Note_on_c, 9, 44, 0
5, 337711, Note_on_c, 9, 36, 2
5, 337839, Note_on_c, 9, 36, 0
5, 337944, Note_on_c, 9, 36, 3
5, 338132, Note_on_c, 9, 36, 0
5, 338731, Note_on_c, 9, 36, 1
5, 338772, Note_on_c, 9, 44, 42
5, 338843, Note_on_c, 9, 36, 0
5, 339077, Note_on_c, 9, 44, 0
5, 339340, Note_on_c, 9, 36, 23
5, 340152, Note_on_c, 9, 36, 0
5, 340736, Note_on_c, 9, 44, 50
5, 340981, Note_on_c, 9, 44, 0
5, 341500, Note_on_c, 9, 36, 5
5, 341607, Note_on_c, 9, 36, 0
5, 341823, Note_on_c, 9, 36, 1
5, 342154, Note_on_c, 9, 36, 0
5, 342455, Note_on_c, 9, 36, 3
5, 342572, Note_on_c, 9, 36, 0
5, 342676, Note_on_c, 9, 44, 56
5, 342981, Note_on_c, 9, 44, 0
5, 343227, Note_on_c, 9, 36, 13
5, 343315, Note_on_c, 9, 38, 54
5, 343454, Note_on_c, 9, 38, 0
5, 343704, Note_on_c, 9, 36, 4
5, 343754, Note_on_c, 9, 36, 0
5, 344158, Note_on_c, 9, 36, 0
5, 344661, Note_on_c, 9, 44, 59
5, 344948, Note_on_c, 9, 44, 0
5, 345258, Note_on_c, 9, 36, 5
5, 345455, Note_on_c, 9, 36, 0
5, 345668, Note_on_c, 9, 36, 2
5, 346420, Note_on_c, 9, 36, 0
5, 346523, Note_on_c, 9, 44, 56
5, 346797, Note_on_c, 9, 44, 0
5, 347565, Note_on_c, 9, 36, 6
5, 347844, Note_on_c, 9, 36, 0
5, 348516, Note_on_c, 9, 44, 47
5, 348810, Note_on_c, 9, 44, 0
5, 349541, Note_on_c, 9, 36, 1
5, 349880, Note_on_c, 9, 36, 0
5, 350052, Note_on_c, 9, 38, 40
5, 350182, Note_on_c, 9, 38, 0
5, 350430, Note_on_c, 9, 36, 1
5, 350490, Note_on_c, 9, 44, 50
5, 350615, Note_on_c, 9, 36, 0
5, 350735, Note_on_c, 9, 44, 0
5, 350834, Note_on_c, 9, 36, 16
5, 351098, Note_on_c, 9, 36, 7
5, 351225, Note_on_c, 9, 36, 0
5, 351655, Note_on_c, 9, 36, 0
5, 352107, Note_on_c, 9, 36, 8
5, 352235, Note_on_c, 9, 36, 0
5, 352370, Note_on_c, 9, 44, 56
5, 352668, Note_on_c, 9, 44, 0
5, 352923, Note_on_c, 9, 38, 31
5, 353194, Note_on_c, 9, 38, 0
5, 353232, Note_on_c, 9, 36, 8
5, 353400, Note_on_c, 9, 36, 1
5, 353614, Note_on_c, 9, 36, 0
5, 353633, Note_on_c, 9, 36, 0
5, 354313, Note_on_c, 9, 44, 48
5, 354590, Note_on_c, 9, 44, 0
5, 354779, Note_on_c, 9, 36, 23
5, 355633, Note_on_c, 9, 36, 0
5, 356243, Note_on_c, 9, 44, 54
5, 356514, Note_on_c, 9, 44, 0
5, 357120, Note_on_c, 9, 36, 4
5, 357359, Note_on_c, 9, 36, 0
5, 358189, Note_on_c, 9, 46, 1
5, 358348, Note_on_c, 9, 46, 0
5, 358624, Note_on_c, 9, 36, 23
5, 359381, Note_on_c, 9, 36, 0
5, 359972, Note_on_c, 9, 44, 48
5, 360059, Note_on_c, 9, 36, 4
5, 360179, Note_on_c, 9, 44, 0
5, 360415, Note_on_c, 9, 36, 0
5, 360956, Note_on_c, 9, 36, 1
5, 361162, Note_on_c, 9, 36, 0
5, 361962, Note_on_c, 9, 44, 48
5, 362155, Note_on_c, 9, 44, 0
5, 362526, Note_on_c, 9, 36, 5
5, 362669, Note_on_c, 9, 36, 0
5, 362935, Note_on_c, 9, 36, 1
5, 363371, Note_on_c, 9, 36, 0
5, 363877, Note_on_c, 9, 44, 42
5, 364012, Note_on_c, 9, 44, 0
5, 364521, Note_on_c, 9, 36, 2
5, 364678, Note_on_c, 9, 36, 0
5, 366383, Note_on_c, 9, 36, 2
5, 366495, Note_on_c, 9, 36, 0
5, 366738, Note_on_c, 9, 36, 9
5, 367027, Note_on_c, 9, 36, 0
5, 368378, Note_on_c, 9, 36, 11
5, 368496, Note_on_c, 9, 36, 0
5, 368640, Note_on_c, 9, 49, 1
5, 370560, Note_on_c, 9, 49, 0
5, 372565, Note_on_c, 9, 36, 1
5, 372918, Note_on_c, 9, 36, 0
5, 374563, Note_on_c, 9, 36, 1
5, 374837, Note_on_c, 9, 36, 0
5, 376401, Note_on_c, 9, 36, 2
5, 376743, Note_on_c, 9, 36, 0
5, 377372, Note_on_c, 9, 44, 36
5, 377497, Note_on_c, 9, 44, 0
5, 377825, Note_on_c, 9, 36, 11
5, 378010, Note_on_c, 9, 36, 0
5, 379208, Note_on_c, 9, 44, 42
5, 379406, Note_on_c, 9, 44, 0
5, 380274, Note_on_c, 9, 36, 1
5, 380534, Note_on_c, 9, 36, 0
5, 381180, Note_on_c, 9, 44, 36
5, 381373, Note_on_c, 9, 44, 0
5, 381664, Note_on_c, 9, 36, 8
5, 382616, Note_on_c, 9, 36, 0
5, 383055, Note_on_c, 9, 44, 47
5, 383337, Note_on_c, 9, 44, 0
5, 384105, Note_on_c, 9, 36, 2
5, 384247, Note_on_c, 9, 36, 0
5, 385074, Note_on_c, 9, 44, 33
5, 385379, Note_on_c, 9, 44, 0
5, 385558, Note_on_c, 9, 36, 12
5, 386013, Note_on_c, 9, 36, 0
5, 386766, Note_on_c, 9, 36, 1
5, 386902, Note_on_c, 9, 36, 0
5, 386980, Note_on_c, 9, 44, 93
5, 387160, Note_on_c, 9, 36, 1
5, 387450, Note_on_c, 9, 36, 0
5, 387450, Note_on_c, 9, 44, 0
5, 387978, Note_on_c, 9, 36, 2
5, 388237, Note_on_c, 9, 36, 0
5, 388738, Note_on_c, 9, 36, 12
5, 388853, Note_on_c, 9, 36, 0
5, 388892, Note_on_c, 9, 46, 19
5, 389451, Note_on_c, 9, 36, 26
5, 390112, Note_on_c, 9, 36, 1
5, 390260, Note_on_c, 9, 36, 0
5, 390444, Note_on_c, 9, 36, 0
5, 390715, Note_on_c, 9, 46, 0
5, 390752, Note_on_c, 9, 36, 12
5, 390913, Note_on_c, 9, 44, 36
5, 391216, Note_on_c, 9, 36, 0
5, 391252, Note_on_c, 9, 44, 0
5, 391857, Note_on_c, 9, 36, 1
5, 392185, Note_on_c, 9, 36, 0
5, 392832, Note_on_c, 9, 44, 36
5, 392989, Note_on_c, 9, 44, 0
5, 393686, Note_on_c, 9, 36, 5
5, 393871, Note_on_c, 9, 36, 0
5, 394442, Note_on_c, 9, 38, 40
5, 394554, Note_on_c, 9, 38, 0
5, 395283, Note_on_c, 9, 36, 1
5, 395420, Note_on_c, 9, 36, 0
5, 395642, Note_on_c, 9, 36, 7
5, 396132, Note_on_c, 9, 36, 0
5, 396604, Note_on_c, 9, 44, 35
5, 396872, Note_on_c, 9, 44, 0
5, 397220, Note_on_c, 9, 36, 6
5, 397371, Note_on_c, 9, 36, 0
5, 397579, Note_on_c, 9, 36, 1
5, 398032, Note_on_c, 9, 36, 0
5, 398471, Note_on_c, 9, 46, 16
5, 399410, Note_on_c, 9, 36, 7
5, 399675, Note_on_c, 9, 36, 0
5, 400143, Note_on_c, 9, 46, 0
5, 400831, Note_on_c, 9, 36, 12
5, 401008, Note_on_c, 9, 36, 0
5, 402323, Note_on_c, 9, 44, 23
5, 402511, Note_on_c, 9, 44, 0
5, 402782, Note_on_c, 9, 36, 6
5, 402913, Note_on_c, 9, 36, 0
5, 403212, Note_on_c, 9, 36, 7
5, 403884, Note_on_c, 9, 36, 0
5, 404214, Note_on_c, 9, 44, 30
5, 404433, Note_on_c, 9, 44, 0
5, 405140, Note_on_c, 9, 36, 3
5, 405687, Note_on_c, 9, 36, 0
5, 405888, Note_on_c, 9, 38, 40
5, 405992, Note_on_c, 9, 38, 0
5, 406177, Note_on_c, 9, 44, 33
5, 406196, Note_on_c, 9, 38, 50
5, 406311, Note_on_c, 9, 38, 0
5, 406378, Note_on_c, 9, 44, 0
5, 406944, Note_on_c, 9, 36, 6
5, 407063, Note_on_c, 9, 36, 11
5, 407135, Note_on_c, 9, 36, 0
5, 407829, Note_on_c, 9, 36, 0
5, 408561, Note_on_c, 9, 36, 12
5, 408666, Note_on_c, 9, 36, 0
5, 408945, Note_on_c, 9, 36, 13
5, 409552, Note_on_c, 9, 36, 0
5, 410045, Note_on_c, 9, 44, 32
5, 410314, Note_on_c, 9, 44, 0
5, 411007, Note_on_c, 9, 36, 8
5, 411563, Note_on_c, 9, 36, 0
5, 411576, Note_on_c, 9, 38, 31
5, 411720, Note_on_c, 9, 38, 0
5, 411954, Note_on_c, 9, 44, 32
5, 412111, Note_on_c, 9, 44, 0
5, 412536, Note_on_c, 9, 36, 14
5, 413004, Note_on_c, 9, 36, 0
5, 413751, Note_on_c, 9, 46, 19
5, 414012, Note_on_c, 9, 46, 0
5, 414875, Note_on_c, 9, 36, 9
5, 415083, Note_on_c, 9, 36, 0
5, 415460, Note_on_c, 9, 38, 33
5, 415569, Note_on_c, 9, 38, 0
5, 415731, Note_on_c, 9, 44, 42
5, 415895, Note_on_c, 9, 44, 0
5, 416344, Note_on_c, 9, 36, 11
5, 416572, Note_on_c, 9, 36, 0
5, 416697, Note_on_c, 9, 36, 1
5, 417116, Note_on_c, 9, 36, 0
5, 418620, Note_on_c, 9, 36, 11
5, 418779, Note_on_c, 9, 36, 0
5, 419656, Note_on_c, 9, 44, 18
5, 419833, Note_on_c, 9, 44, 0
5, 420052, Note_on_c, 9, 36, 20
5, 420411, Note_on_c, 9, 36, 0
5, 421466, Note_on_c, 9, 44, 26
5, 421656, Note_on_c, 9, 44, 0
5, 422450, Note_on_c, 9, 36, 11
5, 422599, Note_on_c, 9, 36, 0
5, 423377, Note_on_c, 9, 44, 38
5, 423714, Note_on_c, 9, 44, 0
5, 423994, Note_on_c, 9, 36, 20
5, 424623, Note_on_c, 9, 36, 0
5, 425213, Note_on_c, 9, 36, 20
5, 425385, Note_on_c, 9, 44, 36
5, 425509, Note_on_c, 9, 36, 0
5, 425544, Note_on_c, 9, 44, 0
5, 426196, Note_on_c, 9, 36, 18
5, 426634, Note_on_c, 9, 36, 0
5, 427242, Note_on_c, 9, 44, 38
5, 427563, Note_on_c, 9, 44, 0
5, 427605, Note_on_c, 9, 36, 16
5, 428030, Note_on_c, 9, 36, 0
5, 428872, Note_on_c, 9, 38, 20
5, 429016, Note_on_c, 9, 38, 0
5, 429138, Note_on_c, 9, 44, 35
5, 429412, Note_on_c, 9, 44, 0
5, 430103, Note_on_c, 9, 36, 11
5, 430297, Note_on_c, 9, 36, 0
5, 430792, Note_on_c, 9, 38, 55
5, 430886, Note_on_c, 9, 38, 0
5, 431034, Note_on_c, 9, 44, 41
5, 431204, Note_on_c, 9, 44, 0
5, 431510, Note_on_c, 9, 36, 14
5, 431624, Note_on_c, 9, 36, 0
5, 431937, Note_on_c, 9, 36, 5
5, 432376, Note_on_c, 9, 36, 0
5, 432957, Note_on_c, 9, 46, 13
5, 433168, Note_on_c, 9, 46, 0
5, 433755, Note_on_c, 9, 38, 12
5, 433882, Note_on_c, 9, 38, 0
5, 433934, Note_on_c, 9, 36, 3
5, 434409, Note_on_c, 9, 36, 0
5, 434873, Note_on_c, 9, 44, 32
5, 435022, Note_on_c, 9, 44, 0
5, 435437, Note_on_c, 9, 36, 11
5, 435554, Note_on_c, 9, 36, 0
5, 435936, Note_on_c, 9, 36, 1
5, 436175, Note_on_c, 9, 36, 0
5, 436793, Note_on_c, 9, 44, 44
5, 436947, Note_on_c, 9, 44, 0
5, 437440, Note_on_c, 9, 36, 7
5, 437560, Note_on_c, 9, 36, 0
5, 437790, Note_on_c, 9, 36, 5
5, 437901, Note_on_c, 9, 57, 1
5, 438029, Note_on_c, 9, 36, 0
5, 438209, Note_on_c, 9, 57, 0
5, 438751, Note_on_c, 9, 44, 42
5, 438931, Note_on_c, 9, 44, 0
5, 439248, Note_on_c, 9, 36, 19
5, 439615, Note_on_c, 9, 36, 0
5, 440731, Note_on_c, 9, 44, 32
5, 440900, Note_on_c, 9, 44, 0
5, 441683, Note_on_c, 9, 36, 3
5, 441917, Note_on_c, 9, 36, 0
5, 442616, Note_on_c, 9, 44, 42
5, 442770, Note_on_c, 9, 44, 0
5, 443167, Note_on_c, 9, 36, 14
5, 443469, Note_on_c, 9, 36, 0
5, 444557, Note_on_c, 9, 44, 41
5, 444698, Note_on_c, 9, 44, 0
5, 444998, Note_on_c, 9, 36, 11
5, 445118, Note_on_c, 9, 36, 0
5, 445448, Note_on_c, 9, 36, 9
5, 445941, Note_on_c, 9, 36, 0
5, 446450, Note_on_c, 9, 44, 41
5, 446588, Note_on_c, 9, 44, 0
5, 447019, Note_on_c, 9, 38, 48
5, 447054, Note_on_c, 9, 36, 15
5, 447105, Note_on_c, 9, 38, 0
5, 447399, Note_on_c, 9, 36, 0
5, 447546, Note_on_c, 9, 38, 22
5, 447679, Note_on_c, 9, 38, 0
5, 448164, Note_on_c, 9, 36, 12
5, 448260, Note_on_c, 9, 36, 0
5, 448365, Note_on_c, 9, 44, 38
5, 448628, Note_on_c, 9, 44, 0
5, 449364, Note_on_c, 9, 36, 12
5, 449367, Note_on_c, 9, 36, 5
5, 449517, Note_on_c, 9, 36, 0
5, 449689, Note_on_c, 9, 36, 0
5, 450250, Note_on_c, 9, 44, 45
5, 450516, Note_on_c, 9, 44, 0
5, 450865, Note_on_c, 9, 36, 7
5, 450967, Note_on_c, 9, 36, 1
5, 450982, Note_on_c, 9, 36, 0
5, 451116, Note_on_c, 9, 36, 0
5, 451247, Note_on_c, 9, 36, 3
5, 451557, Note_on_c, 9, 36, 0
5, 452112, Note_on_c, 9, 44, 44
5, 452365, Note_on_c, 9, 44, 0
5, 453269, Note_on_c, 9, 36, 2
5, 453491, Note_on_c, 9, 36, 0
5, 454162, Note_on_c, 9, 44, 41
5, 454366, Note_on_c, 9, 44, 0
5, 454761, Note_on_c, 9, 36, 11
5, 454799, Note_on_c, 9, 38, 40
5, 454903, Note_on_c, 9, 38, 0
5, 454904, Note_on_c, 9, 36, 0
5, 455123, Note_on_c, 9, 36, 1
5, 455527, Note_on_c, 9, 36, 0
5, 455769, Note_on_c, 9, 38, 41
5, 456092, Note_on_c, 9, 38, 0
5, 456136, Note_on_c, 9, 44, 32
5, 456204, Note_on_c, 9, 36, 1
5, 456428, Note_on_c, 9, 44, 0
5, 456582, Note_on_c, 9, 36, 0
5, 457019, Note_on_c, 9, 36, 5
5, 457185, Note_on_c, 9, 36, 0
5, 458061, Note_on_c, 9, 44, 35
5, 458272, Note_on_c, 9, 44, 0
5, 458458, Note_on_c, 9, 36, 11
5, 458814, Note_on_c, 9, 36, 0
5, 459931, Note_on_c, 9, 44, 41
5, 460241, Note_on_c, 9, 44, 0
5, 460824, Note_on_c, 9, 36, 3
5, 461012, Note_on_c, 9, 36, 0
5, 461848, Note_on_c, 9, 44, 38
5, 462070, Note_on_c, 9, 44, 0
5, 462220, Note_on_c, 9, 36, 23
5, 463032, Note_on_c, 9, 36, 0
5, 463681, Note_on_c, 9, 46, 7
5, 464242, Note_on_c, 9, 46, 0
5, 464703, Note_on_c, 9, 36, 1
5, 465034, Note_on_c, 9, 36, 0
5, 465669, Note_on_c, 9, 44, 27
5, 466008, Note_on_c, 9, 44, 0
5, 466107, Note_on_c, 9, 36, 13
5, 466248, Note_on_c, 9, 38, 47
5, 466344, Note_on_c, 9, 38, 0
5, 466634, Note_on_c, 9, 36, 0
5, 467239, Note_on_c, 9, 38, 51
5, 467338, Note_on_c, 9, 38, 0
5, 467507, Note_on_c, 9, 44, 29
5, 467680, Note_on_c, 9, 44, 0
5, 468138, Note_on_c, 9, 36, 5
5, 468199, Note_on_c, 9, 36, 5
5, 468229, Note_on_c, 9, 57, 1
5, 468335, Note_on_c, 9, 36, 0
5, 468375, Note_on_c, 9, 57, 0
5, 468405, Note_on_c, 9, 36, 0
5, 468548, Note_on_c, 9, 36, 2
5, 469300, Note_on_c, 9, 36, 0
5, 469552, Note_on_c, 9, 44, 29
5, 469761, Note_on_c, 9, 44, 0
5, 470445, Note_on_c, 9, 36, 6
5, 470724, Note_on_c, 9, 36, 0
5, 471226, Note_on_c, 9, 36, 1
5, 471357, Note_on_c, 9, 36, 0
5, 471466, Note_on_c, 9, 44, 27
5, 471630, Note_on_c, 9, 44, 0
5, 472421, Note_on_c, 9, 36, 1
5, 472760, Note_on_c, 9, 36, 0
5, 473320, Note_on_c, 9, 46, 11
5, 473532, Note_on_c, 9, 46, 0
5, 473714, Note_on_c, 9, 36, 16
5, 474535, Note_on_c, 9, 36, 0
5, 475230, Note_on_c, 9, 44, 39
5, 475430, Note_on_c, 9, 44, 0
5, 476112, Note_on_c, 9, 36, 8
5, 476494, Note_on_c, 9, 36, 0
5, 477152, Note_on_c, 9, 44, 47
5, 477295, Note_on_c, 9, 44, 0
5, 477659, Note_on_c, 9, 36, 23
5, 478513, Note_on_c, 9, 36, 0
5, 479014, Note_on_c, 9, 44, 42
5, 479337, Note_on_c, 9, 44, 0
5, 480000, Note_on_c, 9, 36, 4
5, 480239, Note_on_c, 9, 36, 0
5, 480907, Note_on_c, 9, 44, 38
5, 481160, Note_on_c, 9, 44, 0
5, 481504, Note_on_c, 9, 36, 23
5, 482261, Note_on_c, 9, 36, 0
5, 482866, Note_on_c, 9, 44, 41
5, 482939, Note_on_c, 9, 36, 4
5, 483137, Note_on_c, 9, 44, 0
5, 483295, Note_on_c, 9, 36, 0
5, 483893, Note_on_c, 9, 36, 11
5, 484494, Note_on_c, 9, 36, 0
5, 484777, Note_on_c, 9, 44, 35
5, 484937, Note_on_c, 9, 44, 0
5, 485431, Note_on_c, 9, 36, 16
5, 485443, Note_on_c, 9, 36, 5
5, 485557, Note_on_c, 9, 36, 0
5, 485727, Note_on_c, 9, 36, 0
5, 485988, Note_on_c, 9, 36, 1
5, 486264, Note_on_c, 9, 36, 0
5, 486726, Note_on_c, 9, 44, 33
5, 486999, Note_on_c, 9, 44, 0
5, 487380, Note_on_c, 9, 36, 1
5, 487526, Note_on_c, 9, 36, 0
5, 487684, Note_on_c, 9, 36, 5
5, 487858, Note_on_c, 9, 36, 1
5, 487875, Note_on_c, 9, 36, 0
5, 488077, Note_on_c, 9, 36, 0
5, 488676, Note_on_c, 9, 44, 33
5, 488862, Note_on_c, 9, 44, 0
5, 489151, Note_on_c, 9, 36, 28
5, 489250, Note_on_c, 9, 36, 1
5, 489396, Note_on_c, 9, 36, 0
5, 489461, Note_on_c, 9, 36, 0
5, 490234, Note_on_c, 9, 38, 27
5, 490538, Note_on_c, 9, 46, 11
5, 490557, Note_on_c, 9, 38, 0
5, 490724, Note_on_c, 9, 46, 0
5, 490726, Note_on_c, 9, 36, 1
5, 490880, Note_on_c, 9, 36, 0
5, 491221, Note_on_c, 9, 36, 16
5, 491332, Note_on_c, 9, 36, 0
5, 491624, Note_on_c, 9, 36, 2
5, 491631, Note_on_c, 9, 36, 8
5, 491751, Note_on_c, 9, 36, 0
5, 491953, Note_on_c, 9, 36, 0
5, 492408, Note_on_c, 9, 44, 35
5, 492633, Note_on_c, 9, 44, 0
5, 493132, Note_on_c, 9, 36, 19
5, 493491, Note_on_c, 9, 36, 0
5, 494432, Note_on_c, 9, 44, 41
5, 494597, Note_on_c, 9, 44, 0
5, 495445, Note_on_c, 9, 36, 1
5, 495798, Note_on_c, 9, 36, 0
5, 496106, Note_on_c, 9, 38, 52
5, 496206, Note_on_c, 9, 38, 0
5, 496420, Note_on_c, 9, 44, 48
5, 496725, Note_on_c, 9, 44, 0
5, 497061, Note_on_c, 9, 38, 61
5, 497155, Note_on_c, 9, 38, 0
5, 497443, Note_on_c, 9, 36, 1
5, 497717, Note_on_c, 9, 36, 0
5, 497984, Note_on_c, 9, 38, 78
5, 498073, Note_on_c, 9, 38, 0
5, 498287, Note_on_c, 9, 44, 45
5, 498342, Note_on_c, 9, 38, 59
5, 498422, Note_on_c, 9, 44, 0
5, 498443, Note_on_c, 9, 38, 0
5, 498845, Note_on_c, 9, 38, 52
5, 498949, Note_on_c, 9, 38, 0
5, 499022, Note_on_c, 9, 38, 31
5, 499273, Note_on_c, 9, 38, 0
5, 499281, Note_on_c, 9, 36, 2
5, 499304, Note_on_c, 9, 36, 15
5, 499623, Note_on_c, 9, 36, 0
5, 499857, Note_on_c, 9, 36, 0
5, 500123, Note_on_c, 9, 44, 42
5, 500256, Note_on_c, 9, 44, 0
5, 500705, Note_on_c, 9, 36, 11
5, 500890, Note_on_c, 9, 36, 0
5, 502089, Note_on_c, 9, 44, 36
5, 502235, Note_on_c, 9, 44, 0
5, 503154, Note_on_c, 9, 36, 1
5, 503414, Note_on_c, 9, 36, 0
5, 504017, Note_on_c, 9, 44, 30
5, 504186, Note_on_c, 9, 44, 0
5, 504544, Note_on_c, 9, 36, 8
5, 505496, Note_on_c, 9, 36, 0
5, 505905, Note_on_c, 9, 44, 32
5, 506116, Note_on_c, 9, 44, 0
5, 506985, Note_on_c, 9, 36, 2
5, 507127, Note_on_c, 9, 36, 0
5, 507856, Note_on_c, 9, 44, 30
5, 508158, Note_on_c, 9, 44, 0
5, 508438, Note_on_c, 9, 36, 12
5, 508443, Note_on_c, 9, 38, 50
5, 508542, Note_on_c, 9, 38, 0
5, 508893, Note_on_c, 9, 36, 0
5, 508904, Note_on_c, 9, 38, 31
5, 509066, Note_on_c, 9, 38, 0
5, 509457, Note_on_c, 9, 36, 11
5, 509637, Note_on_c, 9, 36, 0
5, 509783, Note_on_c, 9, 44, 35
5, 510067, Note_on_c, 9, 44, 0
5, 510743, Note_on_c, 9, 36, 7
5, 510858, Note_on_c, 9, 36, 2
5, 511082, Note_on_c, 9, 36, 0
5, 511117, Note_on_c, 9, 36, 0
5, 511682, Note_on_c, 9, 44, 48
5, 511966, Note_on_c, 9, 44, 0
5, 512331, Note_on_c, 9, 36, 26
5, 513140, Note_on_c, 9, 36, 0
5, 513333, Note_on_c, 9, 38, 55
5, 513440, Note_on_c, 9, 38, 0
5, 513604, Note_on_c, 9, 44, 41
5, 513632, Note_on_c, 9, 36, 12
5, 513742, Note_on_c, 9, 44, 0
5, 513771, Note_on_c, 9, 36, 1
5, 513995, Note_on_c, 9, 36, 0
5, 514096, Note_on_c, 9, 36, 0
5, 514657, Note_on_c, 9, 36, 2
5, 514737, Note_on_c, 9, 36, 1
5, 514822, Note_on_c, 9, 36, 0
5, 515065, Note_on_c, 9, 36, 0
5, 515523, Note_on_c, 9, 44, 41
5, 515714, Note_on_c, 9, 44, 0
5, 516566, Note_on_c, 9, 36, 5
5, 516751, Note_on_c, 9, 36, 0
5, 517424, Note_on_c, 9, 44, 41
5, 517727, Note_on_c, 9, 44, 0
5, 518163, Note_on_c, 9, 36, 1
5, 518300, Note_on_c, 9, 36, 0
5, 518522, Note_on_c, 9, 36, 7
5, 519012, Note_on_c, 9, 36, 0
5, 519349, Note_on_c, 9, 44, 41
5, 519670, Note_on_c, 9, 44, 0
5, 520100, Note_on_c, 9, 36, 6
5, 520251, Note_on_c, 9, 36, 0
5, 520459, Note_on_c, 9, 36, 1
5, 520912, Note_on_c, 9, 36, 0
5, 520995, Note_on_c, 9, 36, 17
5, 521084, Note_on_c, 9, 36, 0
5, 521269, Note_on_c, 9, 44, 45
5, 521545, Note_on_c, 9, 44, 0
5, 522290, Note_on_c, 9, 36, 7
5, 522351, Note_on_c, 9, 36, 14
5, 522555, Note_on_c, 9, 36, 0
5, 522565, Note_on_c, 9, 36, 0
5, 523258, Note_on_c, 9, 44, 44
5, 523373, Note_on_c, 9, 44, 0
5, 523711, Note_on_c, 9, 36, 12
5, 523888, Note_on_c, 9, 36, 0
5, 523947, Note_on_c, 9, 36, 9
5, 524057, Note_on_c, 9, 36, 0
5, 524889, Note_on_c, 9, 38, 23
5, 525037, Note_on_c, 9, 38, 0
5, 525105, Note_on_c, 9, 46, 18
5, 525662, Note_on_c, 9, 36, 6
5, 525793, Note_on_c, 9, 36, 0
5, 526092, Note_on_c, 9, 36, 7
5, 526719, Note_on_c, 9, 46, 0
5, 526764, Note_on_c, 9, 36, 0
5, 526993, Note_on_c, 9, 44, 44
5, 527356, Note_on_c, 9, 44, 0
5, 528020, Note_on_c, 9, 36, 3
5, 528567, Note_on_c, 9, 36, 0
5, 528618, Note_on_c, 9, 38, 72
5, 528733, Note_on_c, 9, 38, 0
5, 528986, Note_on_c, 9, 44, 42
5, 529069, Note_on_c, 9, 38, 29
5, 529129, Note_on_c, 9, 44, 0
5, 529197, Note_on_c, 9, 38, 0
5, 529943, Note_on_c, 9, 36, 11
5, 529995, Note_on_c, 9, 36, 5
5, 530365, Note_on_c, 9, 36, 0
5, 530629, Note_on_c, 9, 36, 5
5, 530709, Note_on_c, 9, 36, 0
5, 530754, Note_on_c, 9, 36, 0
5, 530905, Note_on_c, 9, 44, 38
5, 531082, Note_on_c, 9, 44, 0
5, 531441, Note_on_c, 9, 36, 12
5, 531546, Note_on_c, 9, 36, 0
5, 531825, Note_on_c, 9, 36, 13
5, 532432, Note_on_c, 9, 36, 0
5, 532819, Note_on_c, 9, 44, 41
5, 532994, Note_on_c, 9, 44, 0
5, 533887, Note_on_c, 9, 36, 8
5, 534443, Note_on_c, 9, 36, 0
5, 534757, Note_on_c, 9, 44, 41
5, 534979, Note_on_c, 9, 44, 0
5, 535386, Note_on_c, 9, 38, 57
5, 535416, Note_on_c, 9, 36, 14
5, 535508, Note_on_c, 9, 38, 0
5, 535845, Note_on_c, 9, 36, 1
5, 535884, Note_on_c, 9, 36, 0
5, 536129, Note_on_c, 9, 36, 0
5, 536400, Note_on_c, 9, 36, 5
5, 536541, Note_on_c, 9, 36, 0
5, 536619, Note_on_c, 9, 44, 41
5, 536885, Note_on_c, 9, 44, 0
5, 537295, Note_on_c, 9, 38, 23
5, 537409, Note_on_c, 9, 38, 0
5, 537754, Note_on_c, 9, 36, 1
5, 537755, Note_on_c, 9, 36, 9
5, 537952, Note_on_c, 9, 36, 0
5, 537963, Note_on_c, 9, 36, 0
5, 538252, Note_on_c, 9, 36, 2
5, 538382, Note_on_c, 9, 36, 0
5, 538609, Note_on_c, 9, 44, 41
5, 538813, Note_on_c, 9, 44, 0
5, 539224, Note_on_c, 9, 36, 11
5, 539452, Note_on_c, 9, 36, 0
5, 539577, Note_on_c, 9, 36, 1
5, 539996, Note_on_c, 9, 36, 0
5, 540508, Note_on_c, 9, 44, 44
5, 540836, Note_on_c, 9, 44, 0
5, 541131, Note_on_c, 9, 36, 4
5, 541249, Note_on_c, 9, 36, 0
5, 541500, Note_on_c, 9, 36, 11
5, 541562, Note_on_c, 9, 36, 1
5, 541659, Note_on_c, 9, 36, 0
5, 541713, Note_on_c, 9, 36, 0
5, 542378, Note_on_c, 9, 44, 57
5, 542688, Note_on_c, 9, 44, 0
5, 542932, Note_on_c, 9, 36, 20
5, 543291, Note_on_c, 9, 36, 0
5, 544209, Note_on_c, 9, 46, 14
5, 544563, Note_on_c, 9, 46, 0
5, 545330, Note_on_c, 9, 36, 11
5, 545479, Note_on_c, 9, 36, 0
5, 546112, Note_on_c, 9, 44, 50
5, 546292, Note_on_c, 9, 44, 0
5, 546712, Note_on_c, 9, 36, 1
5, 546874, Note_on_c, 9, 36, 0
5, 546874, Note_on_c, 9, 36, 20
5, 547145, Note_on_c, 9, 59, 15
5, 547281, Note_on_c, 9, 59, 0
5, 547503, Note_on_c, 9, 36, 0
5, 548093, Note_on_c, 9, 36, 20
5, 548128, Note_on_c, 9, 44, 44
5, 548389, Note_on_c, 9, 36, 0
5, 548457, Note_on_c, 9, 44, 0
5, 548728, Note_on_c, 9, 36, 12
5, 548822, Note_on_c, 9, 36, 0
5, 549076, Note_on_c, 9, 36, 18
5, 549148, Note_on_c, 9, 59, 36
5, 549242, Note_on_c, 9, 59, 0
5, 549514, Note_on_c, 9, 36, 0
5, 550061, Note_on_c, 9, 44, 48
5, 550397, Note_on_c, 9, 44, 0
5, 550485, Note_on_c, 9, 36, 16
5, 550622, Note_on_c, 9, 36, 4
5, 550739, Note_on_c, 9, 36, 0
5, 550910, Note_on_c, 9, 36, 0
5, 551628, Note_on_c, 9, 36, 12
5, 551751, Note_on_c, 9, 36, 0
5, 551931, Note_on_c, 9, 44, 41
5, 552080, Note_on_c, 9, 38, 19
5, 552215, Note_on_c, 9, 44, 0
5, 552265, Note_on_c, 9, 38, 0
5, 552672, Note_on_c, 9, 36, 1
5, 552983, Note_on_c, 9, 36, 11
5, 553019, Note_on_c, 9, 36, 0
5, 553177, Note_on_c, 9, 36, 0
5, 553897, Note_on_c, 9, 44, 38
5, 554265, Note_on_c, 9, 44, 0
5, 554390, Note_on_c, 9, 36, 14
5, 554504, Note_on_c, 9, 36, 0
5, 554817, Note_on_c, 9, 36, 5
5, 555256, Note_on_c, 9, 36, 0
5, 555473, Note_on_c, 9, 38, 51
5, 555575, Note_on_c, 9, 38, 0
5, 555804, Note_on_c, 9, 44, 45
5, 555848, Note_on_c, 9, 38, 43
5, 556005, Note_on_c, 9, 38, 0
5, 556127, Note_on_c, 9, 44, 0
5, 556492, Note_on_c, 9, 36, 2
5, 556772, Note_on_c, 9, 36, 0
5, 556814, Note_on_c, 9, 36, 3
5, 557289, Note_on_c, 9, 36, 0
5, 557377, Note_on_c, 9, 38, 64
5, 557656, Note_on_c, 9, 38, 0
5, 557734, Note_on_c, 9, 44, 71
5, 557898, Note_on_c, 9, 38, 51
5, 557989, Note_on_c, 9, 38, 0
5, 558101, Note_on_c, 9, 44, 0
5, 558317, Note_on_c, 9, 36, 11
5, 558434, Note_on_c, 9, 36, 0
5, 558535, Note_on_c, 9, 36, 8
5, 558652, Note_on_c, 9, 36, 0
5, 558816, Note_on_c, 9, 36, 1
5, 559055, Note_on_c, 9, 36, 0
5, 559387, Note_on_c, 9, 38, 68
5, 559630, Note_on_c, 9, 38, 0
5, 559692, Note_on_c, 9, 44, 39
5, 559851, Note_on_c, 9, 38, 31
5, 560029, Note_on_c, 9, 38, 0
5, 560039, Note_on_c, 9, 44, 0
5, 560425, Note_on_c, 9, 36, 17
5, 560579, Note_on_c, 9, 36, 0
5, 560670, Note_on_c, 9, 36, 5
5, 560909, Note_on_c, 9, 36, 0
5, 561682, Note_on_c, 9, 44, 32
5, 562079, Note_on_c, 9, 44, 0
5, 562128, Note_on_c, 9, 36, 19
5, 562495, Note_on_c, 9, 36, 0
5, 563576, Note_on_c, 9, 44, 42
5, 563956, Note_on_c, 9, 44, 0
5, 564563, Note_on_c, 9, 36, 3
5, 564797, Note_on_c, 9, 36, 0
5, 565498, Note_on_c, 9, 44, 35
5, 565740, Note_on_c, 9, 44, 0
5, 566047, Note_on_c, 9, 36, 14
5, 566349, Note_on_c, 9, 36, 0
5, 567373, Note_on_c, 9, 44, 45
5, 567696, Note_on_c, 9, 44, 0
5, 567878, Note_on_c, 9, 36, 11
5, 567998, Note_on_c, 9, 36, 0
5, 568328, Note_on_c, 9, 36, 9
5, 568821, Note_on_c, 9, 36, 0
5, 569318, Note_on_c, 9, 44, 42
5, 569649, Note_on_c, 9, 44, 0
5, 569934, Note_on_c, 9, 36, 15
5, 570279, Note_on_c, 9, 36, 0
5, 571227, Note_on_c, 9, 44, 48
5, 571606, Note_on_c, 9, 44, 0
5, 572247, Note_on_c, 9, 36, 5
5, 572569, Note_on_c, 9, 36, 0
5, 573173, Note_on_c, 9, 44, 36
5, 573551, Note_on_c, 9, 44, 0
5, 573745, Note_on_c, 9, 36, 7
5, 573862, Note_on_c, 9, 36, 0
5, 574127, Note_on_c, 9, 36, 3
5, 574437, Note_on_c, 9, 36, 0
5, 574868, Note_on_c, 9, 38, 62
5, 574960, Note_on_c, 9, 38, 0
5, 575139, Note_on_c, 9, 44, 42
5, 575452, Note_on_c, 9, 44, 0
5, 575852, Note_on_c, 9, 38, 55
5, 575982, Note_on_c, 9, 38, 0
5, 576149, Note_on_c, 9, 36, 2
5, 576248, Note_on_c, 9, 36, 1
5, 576371, Note_on_c, 9, 36, 0
5, 576950, Note_on_c, 9, 36, 0
5, 577022, Note_on_c, 9, 44, 48
5, 577241, Note_on_c, 9, 44, 0
5, 577641, Note_on_c, 9, 36, 11
5, 577784, Note_on_c, 9, 36, 0
5, 578003, Note_on_c, 9, 36, 1
5, 578175, Note_on_c, 9, 36, 1
5, 578293, Note_on_c, 9, 36, 0
5, 578407, Note_on_c, 9, 36, 0
5, 578882, Note_on_c, 9, 46, 10
5, 579078, Note_on_c, 9, 46, 0
5, 579631, Note_on_c, 9, 36, 2
5, 579761, Note_on_c, 9, 36, 0
5, 579899, Note_on_c, 9, 36, 5
5, 580065, Note_on_c, 9, 36, 0
5, 580726, Note_on_c, 9, 44, 32
5, 580963, Note_on_c, 9, 44, 0
5, 581338, Note_on_c, 9, 36, 11
5, 581511, Note_on_c, 9, 36, 6
5, 581626, Note_on_c, 9, 36, 0
5, 581694, Note_on_c, 9, 36, 0
5, 582697, Note_on_c, 9, 44, 39
5, 583021, Note_on_c, 9, 44, 0
5, 583704, Note_on_c, 9, 36, 3
5, 583892, Note_on_c, 9, 36, 0
5, 584630, Note_on_c, 9, 44, 39
5, 584946, Note_on_c, 9, 44, 0
5, 585100, Note_on_c, 9, 36, 23
5, 585912, Note_on_c, 9, 36, 0
5, 586245, Note_on_c, 9, 36, 3
5, 586362, Note_on_c, 9, 36, 0
5, 586557, Note_on_c, 9, 44, 51
5, 586685, Note_on_c, 9, 36, 1
5, 586795, Note_on_c, 9, 44, 0
5, 586829, Note_on_c, 9, 36, 0
5, 587264, Note_on_c, 9, 36, 8
5, 587382, Note_on_c, 9, 36, 0
5, 587583, Note_on_c, 9, 36, 1
5, 587914, Note_on_c, 9, 36, 0
5, 588099, Note_on_c, 9, 38, 55
5, 588271, Note_on_c, 9, 38, 0
5, 588472, Note_on_c, 9, 44, 44
5, 588529, Note_on_c, 9, 36, 1
5, 588670, Note_on_c, 9, 36, 0
5, 588824, Note_on_c, 9, 44, 0
5, 588987, Note_on_c, 9, 36, 13
5, 589332, Note_on_c, 9, 36, 2
5, 589452, Note_on_c, 9, 36, 0
5, 589514, Note_on_c, 9, 36, 0
5, 590154, Note_on_c, 9, 36, 3
5, 590313, Note_on_c, 9, 36, 0
5, 590352, Note_on_c, 9, 44, 41
5, 590495, Note_on_c, 9, 44, 0
5, 591018, Note_on_c, 9, 36, 5
5, 591069, Note_on_c, 9, 36, 7
5, 591176, Note_on_c, 9, 36, 0
5, 591215, Note_on_c, 9, 36, 0
5, 591400, Note_on_c, 9, 57, 1
5, 591428, Note_on_c, 9, 36, 2
5, 591437, Note_on_c, 9, 36, 9
5, 591565, Note_on_c, 9, 36, 0
5, 591737, Note_on_c, 9, 57, 0
5, 592180, Note_on_c, 9, 36, 0
5, 593325, Note_on_c, 9, 36, 6
5, 593604, Note_on_c, 9, 36, 0
5, 594282, Note_on_c, 9, 44, 45
5, 594590, Note_on_c, 9, 44, 0
5, 595301, Note_on_c, 9, 36, 1
5, 595640, Note_on_c, 9, 36, 0
5, 596236, Note_on_c, 9, 44, 42
5, 596481, Note_on_c, 9, 44, 0
5, 596594, Note_on_c, 9, 36, 16
5, 597415, Note_on_c, 9, 36, 0
5, 598199, Note_on_c, 9, 44, 51
5, 598366, Note_on_c, 9, 44, 0
5, 598992, Note_on_c, 9, 36, 8
5, 599374, Note_on_c, 9, 36, 0
5, 599743, Note_on_c, 9, 38, 31
5, 599884, Note_on_c, 9, 38, 0
5, 600129, Note_on_c, 9, 44, 36
5, 600275, Note_on_c, 9, 44, 0
5, 600539, Note_on_c, 9, 36, 23
5, 600656, Note_on_c, 9, 38, 29
5, 600784, Note_on_c, 9, 38, 0
5, 601006, Note_on_c, 9, 38, 1
5, 601393, Note_on_c, 9, 36, 0
5, 601457, Note_on_c, 9, 38, 0
5, 601713, Note_on_c, 9, 36, 4
5, 601830, Note_on_c, 9, 36, 0
5, 601908, Note_on_c, 9, 44, 39
5, 602148, Note_on_c, 9, 44, 0
5, 602880, Note_on_c, 9, 36, 4
5, 603119, Note_on_c, 9, 36, 0
5, 603835, Note_on_c, 9, 44, 42
5, 604146, Note_on_c, 9, 44, 0
5, 604384, Note_on_c, 9, 36, 23
5, 604480, Note_on_c, 9, 38, 58
5, 604607, Note_on_c, 9, 38, 0
5, 604913, Note_on_c, 9, 38, 50
5, 605061, Note_on_c, 9, 38, 0
5, 605141, Note_on_c, 9, 36, 0
5, 605507, Note_on_c, 9, 36, 10
5, 605648, Note_on_c, 9, 36, 0
5, 605750, Note_on_c, 9, 44, 45
5, 605819, Note_on_c, 9, 36, 4
5, 605956, Note_on_c, 9, 44, 0
5, 606175, Note_on_c, 9, 36, 0
5, 606773, Note_on_c, 9, 36, 11
5, 606824, Note_on_c, 9, 36, 11
5, 606942, Note_on_c, 9, 36, 0
5, 607374, Note_on_c, 9, 36, 0
5, 607664, Note_on_c, 9, 44, 45
5, 607836, Note_on_c, 9, 44, 0
5, 608311, Note_on_c, 9, 36, 16
5, 608607, Note_on_c, 9, 36, 0
5, 609534, Note_on_c, 9, 44, 45
5, 609797, Note_on_c, 9, 44, 0
5, 610564, Note_on_c, 9, 36, 5
5, 610755, Note_on_c, 9, 36, 0
5, 611511, Note_on_c, 9, 44, 56
5, 611633, Note_on_c, 9, 44, 0
5, 612031, Note_on_c, 9, 36, 28
5, 612341, Note_on_c, 9, 36, 0
5, 612489, Note_on_c, 9, 36, 5
5, 612935, Note_on_c, 9, 36, 0
5, 613159, Note_on_c, 9, 38, 45
5, 613425, Note_on_c, 9, 44, 42
5, 613480, Note_on_c, 9, 38, 0
5, 613767, Note_on_c, 9, 44, 0
5, 614101, Note_on_c, 9, 36, 16
5, 614212, Note_on_c, 9, 36, 0
5, 614440, Note_on_c, 9, 38, 44
5, 614511, Note_on_c, 9, 36, 8
5, 614700, Note_on_c, 9, 38, 0
5, 614833, Note_on_c, 9, 36, 0
5, 615373, Note_on_c, 9, 44, 45
5, 615384, Note_on_c, 9, 36, 1
5, 615514, Note_on_c, 9, 36, 0
5, 615556, Note_on_c, 9, 44, 0
5, 616012, Note_on_c, 9, 36, 19
5, 616059, Note_on_c, 9, 36, 17
5, 616187, Note_on_c, 9, 36, 0
5, 616371, Note_on_c, 9, 36, 0
5, 617071, Note_on_c, 9, 36, 7
5, 617235, Note_on_c, 9, 36, 0
5, 617274, Note_on_c, 9, 44, 53
5, 617397, Note_on_c, 9, 44, 0
5, 618325, Note_on_c, 9, 36, 1
5, 618678, Note_on_c, 9, 36, 0
5, 619155, Note_on_c, 9, 46, 24
5, 619491, Note_on_c, 9, 46, 0
5, 620323, Note_on_c, 9, 36, 1
5, 620597, Note_on_c, 9, 36, 0
5, 620824, Note_on_c, 9, 38, 50
5, 620923, Note_on_c, 9, 38, 0
5, 621074, Note_on_c, 9, 44, 42
5, 621205, Note_on_c, 9, 44, 0
5, 621640, Note_on_c, 9, 38, 51
5, 621734, Note_on_c, 9, 38, 0
5, 622161, Note_on_c, 9, 36, 2
5, 622503, Note_on_c, 9, 36, 0
5, 623048, Note_on_c, 9, 44, 21
5, 623221, Note_on_c, 9, 44, 0
5, 623585, Note_on_c, 9, 36, 11
5, 623770, Note_on_c, 9, 36, 0
5, 624900, Note_on_c, 9, 44, 35
5, 625057, Note_on_c, 9, 44, 0
5, 626034, Note_on_c, 9, 36, 1
5, 626294, Note_on_c, 9, 36, 0
5, 626817, Note_on_c, 9, 44, 36
5, 627133, Note_on_c, 9, 44, 0
5, 627424, Note_on_c, 9, 36, 8
5, 628376, Note_on_c, 9, 36, 0
5, 628708, Note_on_c, 9, 44, 48
5, 628919, Note_on_c, 9, 44, 0
5, 629865, Note_on_c, 9, 36, 2
5, 630007, Note_on_c, 9, 36, 0
5, 630685, Note_on_c, 9, 44, 41
5, 631018, Note_on_c, 9, 44, 0
5, 631318, Note_on_c, 9, 36, 12
5, 631773, Note_on_c, 9, 36, 0
5, 632351, Note_on_c, 9, 38, 40
5, 632521, Note_on_c, 9, 38, 0
5, 632646, Note_on_c, 9, 44, 48
5, 632907, Note_on_c, 9, 44, 0
5, 633676, Note_on_c, 9, 36, 8
5, 633738, Note_on_c, 9, 36, 2
5, 633997, Note_on_c, 9, 36, 0
5, 634112, Note_on_c, 9, 36, 0
5, 634628, Note_on_c, 9, 44, 32
5, 634790, Note_on_c, 9, 44, 0
5, 635211, Note_on_c, 9, 36, 26
5, 636020, Note_on_c, 9, 36, 0
5, 636188, Note_on_c, 9, 38, 52
5, 636282, Note_on_c, 9, 38, 0
5, 636511, Note_on_c, 9, 44, 59
5, 636512, Note_on_c, 9, 36, 12
5, 636832, Note_on_c, 9, 44, 0
5, 636976, Note_on_c, 9, 36, 0
5, 637539, Note_on_c, 9, 38, 51
5, 637617, Note_on_c, 9, 36, 1
5, 637700, Note_on_c, 9, 38, 0
5, 637945, Note_on_c, 9, 36, 0
5, 638438, Note_on_c, 9, 44, 56
5, 638597, Note_on_c, 9, 36, 1
5, 638683, Note_on_c, 9, 44, 0
5, 638744, Note_on_c, 9, 36, 0
5, 639223, Note_on_c, 9, 36, 1
5, 639377, Note_on_c, 9, 36, 0
5, 639446, Note_on_c, 9, 36, 5
5, 639631, Note_on_c, 9, 36, 0
5, 640371, Note_on_c, 9, 44, 63
5, 640814, Note_on_c, 9, 44, 0
5, 641043, Note_on_c, 9, 36, 1
5, 641180, Note_on_c, 9, 36, 0
5, 641402, Note_on_c, 9, 36, 7
5, 641892, Note_on_c, 9, 36, 0
5, 642241, Note_on_c, 9, 44, 68
5, 642783, Note_on_c, 9, 44, 0
5, 642980, Note_on_c, 9, 36, 6
5, 643131, Note_on_c, 9, 36, 0
5, 643339, Note_on_c, 9, 36, 1
5, 643792, Note_on_c, 9, 36, 0
5, 644171, Note_on_c, 9, 44, 75
5, 644674, Note_on_c, 9, 44, 0
5, 645170, Note_on_c, 9, 36, 7
5, 645435, Note_on_c, 9, 36, 0
5, 646121, Note_on_c, 9, 44, 59
5, 646492, Note_on_c, 9, 44, 0
5, 646591, Note_on_c, 9, 36, 12
5, 646768, Note_on_c, 9, 36, 0
5, 647958, Note_on_c, 9, 46, 17
5, 648242, Note_on_c, 9, 46, 0
5, 648542, Note_on_c, 9, 36, 6
5, 648615, Note_on_c, 9, 38, 44
5, 648673, Note_on_c, 9, 36, 0
5, 648730, Note_on_c, 9, 38, 0
5, 648972, Note_on_c, 9, 36, 7
5, 649110, Note_on_c, 9, 38, 17
5, 649262, Note_on_c, 9, 38, 0
5, 649644, Note_on_c, 9, 36, 0
5, 649721, Note_on_c, 9, 36, 4
5, 649828, Note_on_c, 9, 36, 0
5, 649893, Note_on_c, 9, 44, 51
5, 650221, Note_on_c, 9, 44, 0
5, 650900, Note_on_c, 9, 36, 3
5, 651447, Note_on_c, 9, 36, 0
5, 651544, Note_on_c, 9, 38, 47
5, 651664, Note_on_c, 9, 38, 0
5, 651815, Note_on_c, 9, 44, 57
5, 651953, Note_on_c, 9, 38, 31
5, 652091, Note_on_c, 9, 38, 0
5, 652287, Note_on_c, 9, 44, 0
5, 652553, Note_on_c, 9, 36, 3
5, 652709, Note_on_c, 9, 36, 0
5, 652823, Note_on_c, 9, 36, 11
5, 653589, Note_on_c, 9, 36, 0
5, 653773, Note_on_c, 9, 44, 53
5, 654086, Note_on_c, 9, 44, 0
5, 654321, Note_on_c, 9, 36, 12
5, 654426, Note_on_c, 9, 36, 0
5, 654705, Note_on_c, 9, 36, 13
5, 655312, Note_on_c, 9, 36, 0
5, 655706, Note_on_c, 9, 44, 56
5, 656094, Note_on_c, 9, 44, 0
5, 656767, Note_on_c, 9, 36, 8
5, 657323, Note_on_c, 9, 36, 0
5, 657617, Note_on_c, 9, 44, 54
5, 657993, Note_on_c, 9, 44, 0
5, 658296, Note_on_c, 9, 36, 14
5, 658764, Note_on_c, 9, 36, 0
5, 659513, Note_on_c, 9, 44, 62
5, 659863, Note_on_c, 9, 44, 0
5, 660635, Note_on_c, 9, 36, 9
5, 660843, Note_on_c, 9, 36, 0
5, 661415, Note_on_c, 9, 44, 56
5, 661759, Note_on_c, 9, 44, 0
5, 662104, Note_on_c, 9, 36, 11
5, 662332, Note_on_c, 9, 36, 0
5, 662457, Note_on_c, 9, 36, 1
5, 662876, Note_on_c, 9, 36, 0
5, 663407, Note_on_c, 9, 44, 59
5, 663733, Note_on_c, 9, 44, 0
5, 664099, Note_on_c, 9, 38, 54
5, 664195, Note_on_c, 9, 38, 0
5, 664380, Note_on_c, 9, 36, 11
5, 664539, Note_on_c, 9, 36, 0
5, 665051, Note_on_c, 9, 38, 50
5, 665254, Note_on_c, 9, 38, 0
5, 665335, Note_on_c, 9, 44, 50
5, 665460, Note_on_c, 9, 36, 1
5, 665681, Note_on_c, 9, 44, 0
5, 665812, Note_on_c, 9, 36, 20
5, 666034, Note_on_c, 9, 36, 0
5, 666171, Note_on_c, 9, 36, 0
5, 666367, Note_on_c, 9, 36, 1
5, 666834, Note_on_c, 9, 36, 0
5, 667184, Note_on_c, 9, 44, 48
5, 667554, Note_on_c, 9, 44, 0
5, 668210, Note_on_c, 9, 36, 11
5, 668359, Note_on_c, 9, 36, 0
5, 669147, Note_on_c, 9, 44, 45
5, 669466, Note_on_c, 9, 44, 0
5, 669754, Note_on_c, 9, 36, 20
5, 670383, Note_on_c, 9, 36, 0
5, 670973, Note_on_c, 9, 36, 20
5, 671067, Note_on_c, 9, 44, 47
5, 671269, Note_on_c, 9, 36, 0
5, 671338, Note_on_c, 9, 44, 0
5, 671956, Note_on_c, 9, 36, 18
5, 672394, Note_on_c, 9, 36, 0
5, 672989, Note_on_c, 9, 44, 45
5, 673266, Note_on_c, 9, 44, 0
5, 673365, Note_on_c, 9, 36, 16
5, 673756, Note_on_c, 9, 36, 1
5, 673790, Note_on_c, 9, 36, 0
5, 673899, Note_on_c, 9, 36, 0
5, 674564, Note_on_c, 9, 36, 4
5, 674687, Note_on_c, 9, 36, 0
5, 674877, Note_on_c, 9, 38, 24
5, 674924, Note_on_c, 9, 44, 42
5, 675123, Note_on_c, 9, 38, 0
5, 675156, Note_on_c, 9, 44, 0
5, 675519, Note_on_c, 9, 36, 9
5, 675652, Note_on_c, 9, 36, 0
5, 675863, Note_on_c, 9, 36, 11
5, 676057, Note_on_c, 9, 36, 0
5, 676917, Note_on_c, 9, 44, 20
5, 677256, Note_on_c, 9, 44, 0
5, 677270, Note_on_c, 9, 36, 14
5, 677384, Note_on_c, 9, 36, 0
5, 677697, Note_on_c, 9, 36, 5
5, 678136, Note_on_c, 9, 36, 0
5, 678372, Note_on_c, 9, 38, 50
5, 678466, Note_on_c, 9, 38, 0
5, 678737, Note_on_c, 9, 46, 17
5, 678779, Note_on_c, 9, 38, 43
5, 678956, Note_on_c, 9, 38, 0
5, 678961, Note_on_c, 9, 46, 0
5, 679397, Note_on_c, 9, 36, 2
5, 679520, Note_on_c, 9, 36, 0
5, 679694, Note_on_c, 9, 36, 3
5, 680169, Note_on_c, 9, 36, 0
5, 680331, Note_on_c, 9, 38, 57
5, 680620, Note_on_c, 9, 38, 0
5, 680633, Note_on_c, 9, 46, 17
5, 680946, Note_on_c, 9, 46, 0
5, 681197, Note_on_c, 9, 36, 11
5, 681314, Note_on_c, 9, 36, 0
5, 681330, Note_on_c, 9, 38, 48
5, 681463, Note_on_c, 9, 38, 0
5, 681696, Note_on_c, 9, 36, 1
5, 681859, Note_on_c, 9, 38, 44
5, 681935, Note_on_c, 9, 36, 0
5, 681953, Note_on_c, 9, 38, 0
5, 682667, Note_on_c, 9, 46, 16
5, 682858, Note_on_c, 9, 46, 0
5, 683434, Note_on_c, 9, 36, 8
5, 683533, Note_on_c, 9, 36, 0
5, 683550, Note_on_c, 9, 36, 5
5, 683679, Note_on_c, 9, 57, 1
5, 683789, Note_on_c, 9, 36, 0
5, 684133, Note_on_c, 9, 57, 0
5, 684527, Note_on_c, 9, 44, 38
5, 684702, Note_on_c, 9, 44, 0
5, 685008, Note_on_c, 9, 36, 19
5, 685375, Note_on_c, 9, 36, 0
5, 686488, Note_on_c, 9, 44, 59
5, 686856, Note_on_c, 9, 44, 0
5, 687443, Note_on_c, 9, 36, 3
5, 687677, Note_on_c, 9, 36, 0
5, 688387, Note_on_c, 9, 44, 60
5, 688676, Note_on_c, 9, 44, 0
5, 688927, Note_on_c, 9, 36, 14
5, 689229, Note_on_c, 9, 36, 0
5, 690212, Note_on_c, 9, 44, 62
5, 690507, Note_on_c, 9, 44, 0
5, 690758, Note_on_c, 9, 36, 11
5, 690878, Note_on_c, 9, 36, 0
5, 691208, Note_on_c, 9, 36, 9
5, 691701, Note_on_c, 9, 36, 0
5, 692150, Note_on_c, 9, 44, 65
5, 692377, Note_on_c, 9, 44, 0
5, 692814, Note_on_c, 9, 36, 15
5, 693159, Note_on_c, 9, 36, 0
5, 694129, Note_on_c, 9, 44, 69
5, 694429, Note_on_c, 9, 44, 0
5, 694771, Note_on_c, 9, 36, 1
5, 694917, Note_on_c, 9, 36, 0
5, 695127, Note_on_c, 9, 36, 5
5, 695262, Note_on_c, 9, 36, 1
5, 695449, Note_on_c, 9, 36, 0
5, 695488, Note_on_c, 9, 36, 0
5, 696062, Note_on_c, 9, 44, 65
5, 696278, Note_on_c, 9, 44, 0
5, 696625, Note_on_c, 9, 36, 7
5, 696688, Note_on_c, 9, 36, 5
5, 696742, Note_on_c, 9, 36, 0
5, 696803, Note_on_c, 9, 36, 0
5, 697007, Note_on_c, 9, 36, 3
5, 697116, Note_on_c, 9, 36, 1
5, 697272, Note_on_c, 9, 36, 0
5, 697317, Note_on_c, 9, 36, 0
5, 697927, Note_on_c, 9, 46, 1
5, 698081, Note_on_c, 9, 46, 0
5, 698610, Note_on_c, 9, 36, 12
5, 698754, Note_on_c, 9, 36, 0
5, 699029, Note_on_c, 9, 36, 2
5, 699251, Note_on_c, 9, 36, 0
5, 699802, Note_on_c, 9, 44, 54
5, 699901, Note_on_c, 9, 36, 8
5, 699969, Note_on_c, 9, 44, 0
5, 700295, Note_on_c, 9, 36, 0
5, 700521, Note_on_c, 9, 36, 11
5, 700664, Note_on_c, 9, 36, 0
5, 700883, Note_on_c, 9, 36, 1
5, 701287, Note_on_c, 9, 36, 0
5, 701687, Note_on_c, 9, 44, 84
5, 701995, Note_on_c, 9, 44, 0
5, 702779, Note_on_c, 9, 36, 5
5, 702945, Note_on_c, 9, 36, 0
5, 703508, Note_on_c, 9, 44, 29
5, 703834, Note_on_c, 9, 44, 0
5, 704218, Note_on_c, 9, 36, 11
5, 704574, Note_on_c, 9, 36, 0
5, 705292, Note_on_c, 9, 38, 29
5, 705428, Note_on_c, 9, 38, 0
5, 705594, Note_on_c, 9, 44, 48
5, 705832, Note_on_c, 9, 44, 0
5, 706351, Note_on_c, 9, 36, 2
5, 706479, Note_on_c, 9, 36, 0
5, 706584, Note_on_c, 9, 36, 3
5, 706772, Note_on_c, 9, 36, 0
5, 707371, Note_on_c, 9, 36, 1
5, 707412, Note_on_c, 9, 44, 42
5, 707483, Note_on_c, 9, 36, 0
5, 707717, Note_on_c, 9, 44, 0
5, 707980, Note_on_c, 9, 36, 23
5, 708792, Note_on_c, 9, 36, 0
5, 709376, Note_on_c, 9, 44, 50
5, 709621, Note_on_c, 9, 44, 0
5, 710140, Note_on_c, 9, 36, 5
5, 710247, Note_on_c, 9, 36, 0
5, 710463, Note_on_c, 9, 36, 1
5, 710794, Note_on_c, 9, 36, 0
5, 711095, Note_on_c, 9, 36, 3
5, 711212, Note_on_c, 9, 36, 0
5, 711316, Note_on_c, 9, 44, 56
5, 711621, Note_on_c, 9, 44, 0
5, 711867, Note_on_c, 9, 36, 13
5, 711955, Note_on_c, 9, 38, 54
5, 712094, Note_on_c, 9, 38, 0
5, 712344, Note_on_c, 9, 36, 4
5, 712394, Note_on_c, 9, 36, 0
5, 712798, Note_on_c, 9, 36, 0
5, 713301, Note_on_c, 9, 44, 59
5, 713588, Note_on_c, 9, 44, 0
5, 713898, Note_on_c, 9, 36, 5
5, 714095, Note_on_c, 9, 36, 0
5, 714308, Note_on_c, 9, 36, 2
5, 715060, Note_on_c, 9, 36, 0
5, 715163, Note_on_c, 9, 44, 56
5, 715437, Note_on_c, 9, 44, 0
5, 716205, Note_on_c, 9, 36, 6
5, 716484, Note_on_c, 9, 36, 0
5, 717156, Note_on_c, 9, 44, 47
5, 717450, Note_on_c, 9, 44, 0
5, 718181, Note_on_c, 9, 36, 1
5, 718520, Note_on_c, 9, 36, 0
5, 718692, Note_on_c, 9, 38, 40
5, 718822, Note_on_c, 9, 38, 0
5, 719070, Note_on_c, 9, 36, 1
5, 719130, Note_on_c, 9, 44, 50
5, 719255, Note_on_c, 9, 36, 0
5, 719375, Note_on_c, 9, 44, 0
5, 719474, Note_on_c, 9, 36, 16
5, 719738, Note_on_c, 9, 36, 7
5, 719865, Note_on_c, 9, 36, 0
5, 720295, Note_on_c, 9, 36, 0
5, 720747, Note_on_c, 9, 36, 8
5, 720875, Note_on_c, 9, 36, 0
5, 721010, Note_on_c, 9, 44, 56
5, 721308, Note_on_c, 9, 44, 0
5, 721563, Note_on_c, 9, 38, 31
5, 721834, Note_on_c, 9, 38, 0
5, 721872, Note_on_c, 9, 36, 8
5, 722040, Note_on_c, 9, 36, 1
5, 722254, Note_on_c, 9, 36, 0
5, 722273, Note_on_c, 9, 36, 0
5, 722953, Note_on_c, 9, 44, 48
5, 723230, Note_on_c, 9, 44, 0
5, 723419, Note_on_c, 9, 36, 23
5, 724273, Note_on_c, 9, 36, 0
5, 724883, Note_on_c, 9, 44, 54
5, 725154, Note_on_c, 9, 44, 0
5, 725760, Note_on_c, 9, 36, 4
5, 725999, Note_on_c, 9, 36, 0
5, 726829, Note_on_c, 9, 46, 1
5, 726988, Note_on_c, 9, 46, 0
5, 727264, Note_on_c, 9, 36, 23
5, 728021, Note_on_c, 9, 36, 0
5, 728612, Note_on_c, 9, 44, 48
5, 728699, Note_on_c, 9, 36, 4
5, 728819, Note_on_c, 9, 44, 0
5, 729055, Note_on_c, 9, 36, 0
5, 729596, Note_on_c, 9, 36, 1
5, 729653, Note_on_c, 9, 36, 11
5, 729802, Note_on_c, 9, 36, 0
5, 730254, Note_on_c, 9, 36, 0
5, 730602, Note_on_c, 9, 44, 48
5, 730795, Note_on_c, 9, 44, 0
5, 731166, Note_on_c, 9, 36, 5
5, 731191, Note_on_c, 9, 36, 16
5, 731309, Note_on_c, 9, 36, 0
5, 731487, Note_on_c, 9, 36, 0
5, 731575, Note_on_c, 9, 36, 1
5, 732011, Note_on_c, 9, 36, 0
5, 732517, Note_on_c, 9, 44, 42
5, 732652, Note_on_c, 9, 44, 0
5, 733161, Note_on_c, 9, 36, 2
5, 733318, Note_on_c, 9, 36, 0
5, 733444, Note_on_c, 9, 36, 5
5, 733635, Note_on_c, 9, 36, 0
5, 734439, Note_on_c, 9, 46, 16
5, 734585, Note_on_c, 9, 46, 0
5, 734911, Note_on_c, 9, 36, 28
5, 735023, Note_on_c, 9, 36, 2
5, 735135, Note_on_c, 9, 36, 0
5, 735221, Note_on_c, 9, 36, 0
5, 735378, Note_on_c, 9, 36, 9
5, 735667, Note_on_c, 9, 36, 0
5, 736275, Note_on_c, 9, 46, 12
5, 736434, Note_on_c, 9, 46, 0
5, 736981, Note_on_c, 9, 36, 16
5, 737018, Note_on_c, 9, 36, 11
5, 737092, Note_on_c, 9, 36, 0
5, 737136, Note_on_c, 9, 36, 0
5, 737391, Note_on_c, 9, 36, 8
5, 737713, Note_on_c, 9, 36, 0
5, 738252, Note_on_c, 9, 46, 22
5, 738382, Note_on_c, 9, 46, 0
5, 742176, Note_on_c, 9, 44, 18
5, 742446, Note_on_c, 9, 44, 0
5, 743955, Note_on_c, 9, 44, 19
5, 744346, Note_on_c, 9, 44, 0
5, 745906, Note_on_c, 9, 44, 20
5, 746261, Note_on_c, 9, 44, 0
5, 747901, Note_on_c, 9, 46, 26
5, 748025, Note_on_c, 9, 46, 0
5, 749846, Note_on_c, 9, 44, 14
5, 749985, Note_on_c, 9, 44, 0
5, 751758, Note_on_c, 9, 44, 23
5, 752060, Note_on_c, 9, 44, 0
5, 753759, Note_on_c, 9, 44, 10
5, 753913, Note_on_c, 9, 44, 0
5, 757628, Note_on_c, 9, 44, 12
5, 757962, Note_on_c, 9, 44, 0
5, 759463, Note_on_c, 9, 44, 20
5, 759833, Note_on_c, 9, 44, 0
5, 761292, Note_on_c, 9, 44, 53
5, 761718, Note_on_c, 9, 44, 0
5, 763231, Note_on_c, 9, 44, 23
5, 763663, Note_on_c, 9, 44, 0
5, 765175, Note_on_c, 9, 44, 37
5, 765575, Note_on_c, 9, 44, 0
5, 767129, Note_on_c, 9, 44, 28
5, 767431, Note_on_c, 9, 44, 0
5, 768944, Note_on_c, 9, 46, 17
5, 769305, Note_on_c, 9, 46, 0
5, 770888, Note_on_c, 9, 44, 28
5, 771211, Note_on_c, 9, 44, 0
5, 772774, Note_on_c, 9, 44, 50
5, 773165, Note_on_c, 9, 44, 0
5, 774701, Note_on_c, 9, 44, 34
5, 775094, Note_on_c, 9, 44, 0
5, 776696, Note_on_c, 9, 44, 22
5, 777013, Note_on_c, 9, 44, 0
5, 778593, Note_on_c, 9, 44, 24
5, 778937, Note_on_c, 9, 44, 0
5, 780494, Note_on_c, 9, 44, 22
5, 780807, Note_on_c, 9, 44, 0
5, 782450, Note_on_c, 9, 44, 21
5, 782714, Note_on_c, 9, 44, 0
5, 784362, Note_on_c, 9, 44, 17
5, 784658, Note_on_c, 9, 44, 0
5, 786266, Note_on_c, 9, 44, 16
5, 786485, Note_on_c, 9, 44, 0
5, 788175, Note_on_c, 9, 44, 46
5, 788533, Note_on_c, 9, 44, 0
5, 790078, Note_on_c, 9, 44, 15
5, 790454, Note_on_c, 9, 44, 0
5, 792029, Note_on_c, 9, 44, 22
5, 792357, Note_on_c, 9, 44, 0
5, 793926, Note_on_c, 9, 46, 22
5, 794267, Note_on_c, 9, 46, 0
5, 795892, Note_on_c, 9, 44, 20
5, 796202, Note_on_c, 9, 44, 0
5, 797839, Note_on_c, 9, 44, 23
5, 798159, Note_on_c, 9, 44, 0
5, 799772, Note_on_c, 9, 44, 24
5, 800074, Note_on_c, 9, 44, 0
5, 801622, Note_on_c, 9, 46, 26
5, 801945, Note_on_c, 9, 46, 0
5, 803555, Note_on_c, 9, 44, 21
5, 803878, Note_on_c, 9, 44, 0
5, 805449, Note_on_c, 9, 44, 25
5, 805790, Note_on_c, 9, 44, 0
5, 807438, Note_on_c, 9, 44, 17
5, 807711, Note_on_c, 9, 44, 0
5, 809268, Note_on_c, 9, 44, 27
5, 809626, Note_on_c, 9, 44, 0
5, 811230, Note_on_c, 9, 44, 22
5, 811529, Note_on_c, 9, 44, 0
5, 813098, Note_on_c, 9, 44, 26
5, 813444, Note_on_c, 9, 44, 0
5, 814966, Note_on_c, 9, 44, 21
5, 815306, Note_on_c, 9, 44, 0
5, 816913, Note_on_c, 9, 44, 28
5, 817286, Note_on_c, 9, 44, 0
5, 818923, Note_on_c, 9, 44, 26
5, 819261, Note_on_c, 9, 44, 0
5, 820835, Note_on_c, 9, 44, 22
5, 821170, Note_on_c, 9, 44, 0
5, 822715, Note_on_c, 9, 46, 22
5, 823085, Note_on_c, 9, 46, 0
5, 824666, Note_on_c, 9, 44, 25
5, 825003, Note_on_c, 9, 44, 0
5, 828431, Note_on_c, 9, 44, 25
5, 828783, Note_on_c, 9, 44, 0
5, 830378, Note_on_c, 9, 44, 23
5, 830666, Note_on_c, 9, 44, 0
5, 832223, Note_on_c, 9, 46, 26
5, 832581, Note_on_c, 9, 46, 0
5, 834277, Note_on_c, 9, 44, 23
5, 834638, Note_on_c, 9, 44, 0
5, 836195, Note_on_c, 9, 44, 20
5, 836482, Note_on_c, 9, 44, 0
5, 838104, Note_on_c, 9, 44, 16
5, 838373, Note_on_c, 9, 44, 0
5, 839999, Note_on_c, 9, 44, 20
5, 840229, Note_on_c, 9, 44, 0
5, 841878, Note_on_c, 9, 44, 27
5, 842180, Note_on_c, 9, 44, 0
5, 843737, Note_on_c, 9, 46, 24
5, 844116, Note_on_c, 9, 46, 0
5, 845679, Note_on_c, 9, 44, 19
5, 846022, Note_on_c, 9, 44, 0
5, 847686, Note_on_c, 9, 44, 29
5, 847996, Note_on_c, 9, 44, 0
5, 849592, Note_on_c, 9, 44, 23
5, 849849, Note_on_c, 9, 44, 0
5, 851537, Note_on_c, 9, 44, 26
5, 851868, Note_on_c, 9, 44, 0
5, 853452, Note_on_c, 9, 44, 18
5, 853665, Note_on_c, 9, 44, 0
5, 855361, Note_on_c, 9, 44, 14
5, 855500, Note_on_c, 9, 44, 0
5, 857223, Note_on_c, 9, 44, 18
5, 857347, Note_on_c, 9, 44, 0
5, 858333, Note_on_c, 9, 46, 11
5, 858620, Note_on_c, 9, 46, 0
5, 863021, Note_on_c, 9, 44, 11
5, 863368, Note_on_c, 9, 44, 0
5, 865090, Note_on_c, 9, 44, 9
5, 865369, Note_on_c, 9, 44, 0
5, 868829, Note_on_c, 9, 44, 23
5, 869078, Note_on_c, 9, 44, 0
5, 870744, Note_on_c, 9, 44, 32
5, 871046, Note_on_c, 9, 44, 0
5, 872721, Note_on_c, 9, 44, 21
5, 873015, Note_on_c, 9, 44, 0
5, 876558, Note_on_c, 9, 44, 7
5, 876735, Note_on_c, 9, 44, 0
5, 878473, Note_on_c, 9, 44, 6
5, 878606, Note_on_c, 9, 44, 0
5, 879562, Note_on_c, 9, 46, 11
5, 879873, Note_on_c, 9, 46, 0
5, 879873, End_track
6, 0, Start_track
6, 0, Title_t, "VSC 1 Output 1"
6, 0, Control_c, 0, 7, 101
6, 0, Control_c, 0, 10, 64
6, 0, End_track
7, 0, Start_track
7, 0, Title_t, "VSC 1"
7, 0, End_track
8, 0, Start_track
8, 0, Title_t, "Cakewalk TTS-1 1 Output 1"
8, 0, Control_c, 0, 7, 101
8, 0, Control_c, 0, 10, 64
8, 0, End_track
9, 0, Start_track
9, 0, Title_t, "Cakewalk TTS-1 1"
9, 0, End_track
0, 0, End_of_file
