0, 0, Header, 1, 11, 120
1, 0, Start_track
1, 0, Title_t, "Baby It's Cold Outside"
1, 0, Text_t, "Frank Loesser"
1, 0, Text_t, "As sung by Ray Charles and Betty Carter (From the Real New Book Vol 2)\012"
1, 0, Time_signature, 4, 2, 24, 8
1, 0, Key_signature, -3, "major"
1, 0, Tempo, 769231
1, 0, Marker_t, "Baby its Cold outside"
1, 34080, Marker_t, "Coda"
1, 34080, End_track
2, 0, Start_track
2, 0, Title_t, "Piano"
2, 0, Program_c, 0, 0
2, 598, Note_on_c, 0, 51, 71
2, 598, Note_on_c, 0, 63, 78
2, 598, Note_on_c, 0, 56, 77
2, 600, Note_on_c, 0, 58, 76
2, 608, Note_on_c, 0, 56, 0
2, 623, Note_on_c, 0, 63, 0
2, 626, Note_on_c, 0, 58, 0
2, 631, Note_on_c, 0, 51, 0
2, 634, Note_on_c, 0, 49, 47
2, 668, Note_on_c, 0, 56, 64
2, 669, Note_on_c, 0, 63, 60
2, 670, Note_on_c, 0, 51, 62
2, 670, Note_on_c, 0, 58, 70
2, 671, Note_on_c, 0, 49, 0
2, 714, Note_on_c, 0, 56, 0
2, 717, Note_on_c, 0, 63, 0
2, 719, Note_on_c, 0, 58, 0
2, 723, Note_on_c, 0, 51, 0
2, 1086, Note_on_c, 0, 66, 84
2, 1086, Note_on_c, 0, 58, 93
2, 1087, Note_on_c, 0, 61, 79
2, 1088, Note_on_c, 0, 63, 67
2, 1089, Note_on_c, 0, 54, 71
2, 1099, Note_on_c, 0, 58, 0
2, 1104, Note_on_c, 0, 66, 0
2, 1105, Note_on_c, 0, 61, 0
2, 1107, Note_on_c, 0, 63, 0
2, 1109, Note_on_c, 0, 54, 0
2, 1121, Note_on_c, 0, 54, 70
2, 1122, Note_on_c, 0, 51, 60
2, 1123, Note_on_c, 0, 63, 32
2, 1123, Note_on_c, 0, 61, 38
2, 1125, Note_on_c, 0, 58, 39
2, 1130, Note_on_c, 0, 58, 0
2, 1132, Note_on_c, 0, 54, 0
2, 1134, Note_on_c, 0, 61, 0
2, 1136, Note_on_c, 0, 63, 0
2, 1154, Note_on_c, 0, 58, 53
2, 1154, Note_on_c, 0, 66, 48
2, 1155, Note_on_c, 0, 61, 49
2, 1156, Note_on_c, 0, 63, 56
2, 1158, Note_on_c, 0, 54, 60
2, 1160, Note_on_c, 0, 51, 0
2, 1183, Note_on_c, 0, 63, 0
2, 1186, Note_on_c, 0, 61, 0
2, 1186, Note_on_c, 0, 58, 0
2, 1190, Note_on_c, 0, 66, 0
2, 1194, Note_on_c, 0, 54, 0
2, 1519, Note_on_c, 0, 68, 81
2, 1520, Note_on_c, 0, 61, 90
2, 1520, Note_on_c, 0, 63, 80
2, 1522, Note_on_c, 0, 66, 67
2, 1522, Note_on_c, 0, 56, 81
2, 1618, Note_on_c, 0, 61, 0
2, 1619, Note_on_c, 0, 63, 0
2, 1622, Note_on_c, 0, 68, 0
2, 1624, Note_on_c, 0, 66, 0
2, 1633, Note_on_c, 0, 56, 0
2, 1635, Note_on_c, 0, 54, 61
2, 1635, Note_on_c, 0, 66, 61
2, 1636, Note_on_c, 0, 58, 69
2, 1637, Note_on_c, 0, 63, 52
2, 1638, Note_on_c, 0, 61, 63
2, 1680, Note_on_c, 0, 61, 0
2, 1681, Note_on_c, 0, 63, 0
2, 1682, Note_on_c, 0, 66, 0
2, 1686, Note_on_c, 0, 58, 0
2, 1698, Note_on_c, 0, 54, 0
2, 1710, Note_on_c, 0, 63, 60
2, 1711, Note_on_c, 0, 51, 48
2, 1711, Note_on_c, 0, 54, 56
2, 1713, Note_on_c, 0, 61, 52
2, 1731, Note_on_c, 0, 54, 0
2, 1736, Note_on_c, 0, 61, 0
2, 1736, Note_on_c, 0, 63, 0
2, 1743, Note_on_c, 0, 51, 0
2, 1745, Note_on_c, 0, 49, 45
2, 1779, Note_on_c, 0, 49, 0
2, 1782, Note_on_c, 0, 61, 54
2, 1783, Note_on_c, 0, 54, 47
2, 1783, Note_on_c, 0, 63, 36
2, 1783, Note_on_c, 0, 51, 59
2, 1785, Note_on_c, 0, 58, 50
2, 1795, Note_on_c, 0, 54, 0
2, 1802, Note_on_c, 0, 61, 0
2, 1802, Note_on_c, 0, 58, 0
2, 1805, Note_on_c, 0, 63, 0
2, 1806, Note_on_c, 0, 51, 0
2, 2000, Note_on_c, 0, 66, 85
2, 2000, Note_on_c, 0, 54, 75
2, 2000, Note_on_c, 0, 58, 93
2, 2000, Note_on_c, 0, 61, 80
2, 2000, Note_on_c, 0, 63, 62
2, 2040, Note_on_c, 0, 63, 0
2, 2040, Note_on_c, 0, 58, 0
2, 2040, Note_on_c, 0, 66, 0
2, 2040, Note_on_c, 0, 54, 0
2, 2040, Note_on_c, 0, 61, 0
2, 2040, Note_on_c, 0, 51, 63
2, 2040, Note_on_c, 0, 56, 58
2, 2040, Note_on_c, 0, 63, 52
2, 2080, Note_on_c, 0, 63, 0
2, 2080, Note_on_c, 0, 56, 0
2, 2080, Note_on_c, 0, 51, 0
2, 2080, Note_on_c, 0, 61, 44
2, 2080, Note_on_c, 0, 54, 34
2, 2080, Note_on_c, 0, 49, 59
2, 2120, Note_on_c, 0, 49, 0
2, 2120, Note_on_c, 0, 54, 0
2, 2120, Note_on_c, 0, 61, 0
2, 2120, Note_on_c, 0, 56, 14
2, 2120, Note_on_c, 0, 51, 43
2, 2120, Note_on_c, 0, 46, 40
2, 2120, Note_on_c, 0, 56, 35
2, 2160, Note_on_c, 0, 56, 0
2, 2160, Note_on_c, 0, 56, 0
2, 2160, Note_on_c, 0, 51, 0
2, 2160, Note_on_c, 0, 46, 0
2, 2160, Note_on_c, 0, 54, 61
2, 2160, Note_on_c, 0, 51, 64
2, 2160, Note_on_c, 0, 63, 51
2, 2160, Note_on_c, 0, 58, 59
2, 2160, Note_on_c, 0, 61, 55
2, 2200, Note_on_c, 0, 61, 0
2, 2200, Note_on_c, 0, 63, 0
2, 2200, Note_on_c, 0, 54, 0
2, 2200, Note_on_c, 0, 51, 0
2, 2200, Note_on_c, 0, 58, 0
2, 2240, Note_on_c, 0, 61, 61
2, 2240, Note_on_c, 0, 50, 63
2, 2240, Note_on_c, 0, 56, 57
2, 2240, Note_on_c, 0, 46, 55
2, 2240, Note_on_c, 0, 34, 52
2, 2360, Note_on_c, 0, 34, 0
2, 2360, Note_on_c, 0, 56, 0
2, 2360, Note_on_c, 0, 61, 0
2, 2360, Note_on_c, 0, 50, 0
2, 2360, Note_on_c, 0, 46, 0
2, 2484, Note_on_c, 0, 65, 40
2, 2487, Note_on_c, 0, 58, 32
2, 2487, Note_on_c, 0, 60, 49
2, 2487, Note_on_c, 0, 55, 37
2, 2498, Note_on_c, 0, 55, 0
2, 2499, Note_on_c, 0, 60, 0
2, 2499, Note_on_c, 0, 65, 0
2, 2502, Note_on_c, 0, 58, 0
2, 2643, Note_on_c, 0, 65, 35
2, 2647, Note_on_c, 0, 58, 30
2, 2647, Note_on_c, 0, 60, 49
2, 2647, Note_on_c, 0, 55, 40
2, 2881, Note_on_c, 0, 55, 0
2, 2885, Note_on_c, 0, 60, 0
2, 2895, Note_on_c, 0, 65, 0
2, 2897, Note_on_c, 0, 58, 0
2, 3201, Note_on_c, 0, 62, 62
2, 3201, Note_on_c, 0, 67, 60
2, 3201, Note_on_c, 0, 63, 48
2, 3203, Note_on_c, 0, 58, 49
2, 3292, Note_on_c, 0, 62, 0
2, 3327, Note_on_c, 0, 58, 0
2, 3336, Note_on_c, 0, 67, 0
2, 3348, Note_on_c, 0, 63, 0
2, 3917, Note_on_c, 0, 63, 39
2, 3917, Note_on_c, 0, 67, 57
2, 3919, Note_on_c, 0, 60, 62
2, 3920, Note_on_c, 0, 56, 34
2, 3932, Note_on_c, 0, 67, 0
2, 3938, Note_on_c, 0, 60, 0
2, 3939, Note_on_c, 0, 63, 0
2, 3945, Note_on_c, 0, 56, 0
2, 4078, Note_on_c, 0, 67, 34
2, 4080, Note_on_c, 0, 62, 45
2, 4080, Note_on_c, 0, 56, 32
2, 4082, Note_on_c, 0, 60, 44
2, 4111, Note_on_c, 0, 60, 0
2, 4114, Note_on_c, 0, 62, 0
2, 4116, Note_on_c, 0, 67, 0
2, 4123, Note_on_c, 0, 56, 0
2, 4201, Note_on_c, 0, 62, 56
2, 4201, Note_on_c, 0, 67, 43
2, 4203, Note_on_c, 0, 56, 32
2, 4206, Note_on_c, 0, 60, 49
2, 4227, Note_on_c, 0, 60, 0
2, 4231, Note_on_c, 0, 62, 0
2, 4233, Note_on_c, 0, 67, 0
2, 4253, Note_on_c, 0, 56, 0
2, 4325, Note_on_c, 0, 65, 24
2, 4325, Note_on_c, 0, 55, 37
2, 4327, Note_on_c, 0, 58, 25
2, 4327, Note_on_c, 0, 60, 45
2, 4369, Note_on_c, 0, 60, 0
2, 4376, Note_on_c, 0, 55, 0
2, 4381, Note_on_c, 0, 65, 0
2, 4382, Note_on_c, 0, 58, 0
2, 4405, Note_on_c, 0, 65, 52
2, 4407, Note_on_c, 0, 55, 37
2, 4408, Note_on_c, 0, 58, 26
2, 4408, Note_on_c, 0, 60, 47
2, 4419, Note_on_c, 0, 55, 0
2, 4420, Note_on_c, 0, 60, 0
2, 4423, Note_on_c, 0, 65, 0
2, 4428, Note_on_c, 0, 58, 0
2, 5164, Note_on_c, 0, 67, 80
2, 5164, Note_on_c, 0, 63, 60
2, 5165, Note_on_c, 0, 58, 60
2, 5165, Note_on_c, 0, 62, 64
2, 5230, Note_on_c, 0, 62, 0
2, 5246, Note_on_c, 0, 63, 0
2, 5259, Note_on_c, 0, 58, 0
2, 5260, Note_on_c, 0, 67, 0
2, 5287, Note_on_c, 0, 65, 46
2, 5289, Note_on_c, 0, 60, 44
2, 5290, Note_on_c, 0, 56, 34
2, 5291, Note_on_c, 0, 61, 30
2, 5342, Note_on_c, 0, 60, 0
2, 5344, Note_on_c, 0, 65, 0
2, 5347, Note_on_c, 0, 56, 0
2, 5351, Note_on_c, 0, 61, 0
2, 5368, Note_on_c, 0, 61, 25
2, 5368, Note_on_c, 0, 65, 47
2, 5370, Note_on_c, 0, 60, 50
2, 5371, Note_on_c, 0, 56, 33
2, 5389, Note_on_c, 0, 60, 0
2, 5392, Note_on_c, 0, 65, 0
2, 5395, Note_on_c, 0, 61, 0
2, 5398, Note_on_c, 0, 56, 0
2, 5524, Note_on_c, 0, 65, 37
2, 5524, Note_on_c, 0, 61, 32
2, 5525, Note_on_c, 0, 56, 30
2, 5528, Note_on_c, 0, 60, 37
2, 5537, Note_on_c, 0, 60, 0
2, 5542, Note_on_c, 0, 65, 0
2, 5545, Note_on_c, 0, 56, 0
2, 5545, Note_on_c, 0, 61, 0
2, 5765, Note_on_c, 0, 55, 43
2, 5765, Note_on_c, 0, 61, 28
2, 5766, Note_on_c, 0, 65, 31
2, 5795, Note_on_c, 0, 55, 0
2, 5802, Note_on_c, 0, 61, 0
2, 5804, Note_on_c, 0, 65, 0
2, 5959, Note_on_c, 0, 65, 61
2, 5960, Note_on_c, 0, 61, 34
2, 5961, Note_on_c, 0, 60, 35
2, 5966, Note_on_c, 0, 55, 24
2, 5972, Note_on_c, 0, 55, 0
2, 5972, Note_on_c, 0, 60, 0
2, 5973, Note_on_c, 0, 65, 0
2, 5974, Note_on_c, 0, 61, 0
2, 6481, Note_on_c, 0, 63, 46
2, 6484, Note_on_c, 0, 53, 47
2, 6485, Note_on_c, 0, 60, 52
2, 6486, Note_on_c, 0, 58, 47
2, 6512, Note_on_c, 0, 53, 0
2, 6513, Note_on_c, 0, 60, 0
2, 6517, Note_on_c, 0, 58, 0
2, 6522, Note_on_c, 0, 63, 0
2, 6724, Note_on_c, 0, 63, 40
2, 6728, Note_on_c, 0, 53, 35
2, 6728, Note_on_c, 0, 60, 45
2, 6730, Note_on_c, 0, 58, 33
2, 6776, Note_on_c, 0, 53, 0
2, 6784, Note_on_c, 0, 60, 0
2, 6785, Note_on_c, 0, 63, 0
2, 6790, Note_on_c, 0, 58, 0
2, 6801, Note_on_c, 0, 63, 55
2, 6806, Note_on_c, 0, 58, 36
2, 6806, Note_on_c, 0, 60, 53
2, 6808, Note_on_c, 0, 53, 28
2, 6812, Note_on_c, 0, 60, 0
2, 6814, Note_on_c, 0, 53, 0
2, 6814, Note_on_c, 0, 63, 0
2, 6821, Note_on_c, 0, 58, 0
2, 6921, Note_on_c, 0, 63, 57
2, 6924, Note_on_c, 0, 60, 58
2, 6925, Note_on_c, 0, 58, 38
2, 6926, Note_on_c, 0, 53, 32
2, 7120, Note_on_c, 0, 53, 0
2, 7149, Note_on_c, 0, 60, 0
2, 7168, Note_on_c, 0, 58, 0
2, 7171, Note_on_c, 0, 63, 0
2, 7272, Note_on_c, 0, 63, 60
2, 7274, Note_on_c, 0, 54, 47
2, 7274, Note_on_c, 0, 59, 71
2, 7274, Note_on_c, 0, 58, 57
2, 7291, Note_on_c, 0, 54, 0
2, 7292, Note_on_c, 0, 59, 0
2, 7293, Note_on_c, 0, 63, 0
2, 7296, Note_on_c, 0, 58, 0
2, 7433, Note_on_c, 0, 63, 46
2, 7436, Note_on_c, 0, 54, 35
2, 7437, Note_on_c, 0, 59, 54
2, 7438, Note_on_c, 0, 58, 48
2, 7622, Note_on_c, 0, 59, 0
2, 7633, Note_on_c, 0, 58, 0
2, 7653, Note_on_c, 0, 54, 0
2, 7653, Note_on_c, 0, 63, 0
2, 7883, Note_on_c, 0, 63, 59
2, 7884, Note_on_c, 0, 53, 57
2, 7885, Note_on_c, 0, 59, 58
2, 7888, Note_on_c, 0, 58, 42
2, 7909, Note_on_c, 0, 59, 0
2, 7909, Note_on_c, 0, 53, 0
2, 7910, Note_on_c, 0, 58, 0
2, 7914, Note_on_c, 0, 63, 0
2, 8001, Note_on_c, 0, 63, 55
2, 8002, Note_on_c, 0, 59, 58
2, 8003, Note_on_c, 0, 58, 45
2, 8097, Note_on_c, 0, 59, 0
2, 8128, Note_on_c, 0, 63, 0
2, 8152, Note_on_c, 0, 58, 0
2, 8165, Note_on_c, 0, 65, 39
2, 8167, Note_on_c, 0, 58, 8
2, 8170, Note_on_c, 0, 60, 37
2, 8171, Note_on_c, 0, 55, 26
2, 8187, Note_on_c, 0, 60, 0
2, 8188, Note_on_c, 0, 55, 0
2, 8188, Note_on_c, 0, 65, 0
2, 8194, Note_on_c, 0, 58, 0
2, 8277, Note_on_c, 0, 65, 43
2, 8280, Note_on_c, 0, 60, 44
2, 8282, Note_on_c, 0, 58, 25
2, 8283, Note_on_c, 0, 55, 27
2, 8295, Note_on_c, 0, 55, 0
2, 8303, Note_on_c, 0, 60, 0
2, 8306, Note_on_c, 0, 65, 0
2, 8308, Note_on_c, 0, 58, 0
2, 8715, Note_on_c, 0, 67, 64
2, 8716, Note_on_c, 0, 63, 43
2, 8716, Note_on_c, 0, 58, 54
2, 8716, Note_on_c, 0, 62, 61
2, 8743, Note_on_c, 0, 67, 0
2, 8744, Note_on_c, 0, 62, 0
2, 8745, Note_on_c, 0, 58, 0
2, 8746, Note_on_c, 0, 63, 0
2, 8763, Note_on_c, 0, 67, 43
2, 8764, Note_on_c, 0, 58, 37
2, 8764, Note_on_c, 0, 63, 35
2, 8764, Note_on_c, 0, 62, 45
2, 8819, Note_on_c, 0, 58, 0
2, 8824, Note_on_c, 0, 67, 0
2, 8824, Note_on_c, 0, 62, 0
2, 8825, Note_on_c, 0, 63, 0
2, 8839, Note_on_c, 0, 67, 54
2, 8840, Note_on_c, 0, 63, 39
2, 8840, Note_on_c, 0, 62, 64
2, 8842, Note_on_c, 0, 58, 51
2, 8970, Note_on_c, 0, 67, 0
2, 8971, Note_on_c, 0, 58, 0
2, 8975, Note_on_c, 0, 62, 0
2, 8975, Note_on_c, 0, 63, 0
2, 9001, Note_on_c, 0, 58, 33
2, 9001, Note_on_c, 0, 67, 41
2, 9003, Note_on_c, 0, 62, 50
2, 9003, Note_on_c, 0, 63, 31
2, 9059, Note_on_c, 0, 62, 0
2, 9064, Note_on_c, 0, 58, 0
2, 9074, Note_on_c, 0, 63, 0
2, 9083, Note_on_c, 0, 67, 0
2, 9121, Note_on_c, 0, 67, 41
2, 9122, Note_on_c, 0, 62, 33
2, 9122, Note_on_c, 0, 63, 36
2, 9125, Note_on_c, 0, 57, 37
2, 9182, Note_on_c, 0, 57, 0
2, 9188, Note_on_c, 0, 67, 0
2, 9189, Note_on_c, 0, 62, 0
2, 9191, Note_on_c, 0, 63, 0
2, 9202, Note_on_c, 0, 67, 55
2, 9203, Note_on_c, 0, 63, 29
2, 9204, Note_on_c, 0, 62, 29
2, 9212, Note_on_c, 0, 62, 0
2, 9213, Note_on_c, 0, 67, 0
2, 9215, Note_on_c, 0, 63, 0
2, 9600, Note_on_c, 0, 67, 88
2, 9600, Note_on_c, 0, 56, 75
2, 9601, Note_on_c, 0, 62, 81
2, 9602, Note_on_c, 0, 60, 77
2, 9632, Note_on_c, 0, 67, 0
2, 9633, Note_on_c, 0, 56, 0
2, 9636, Note_on_c, 0, 62, 0
2, 9637, Note_on_c, 0, 60, 0
2, 10160, Note_on_c, 0, 65, 40
2, 10163, Note_on_c, 0, 58, 32
2, 10163, Note_on_c, 0, 60, 49
2, 10163, Note_on_c, 0, 55, 37
2, 10174, Note_on_c, 0, 55, 0
2, 10175, Note_on_c, 0, 60, 0
2, 10175, Note_on_c, 0, 65, 0
2, 10178, Note_on_c, 0, 58, 0
2, 10319, Note_on_c, 0, 65, 35
2, 10323, Note_on_c, 0, 58, 30
2, 10323, Note_on_c, 0, 60, 49
2, 10323, Note_on_c, 0, 55, 40
2, 10557, Note_on_c, 0, 55, 0
2, 10561, Note_on_c, 0, 60, 0
2, 10571, Note_on_c, 0, 65, 0
2, 10573, Note_on_c, 0, 58, 0
2, 10877, Note_on_c, 0, 62, 62
2, 10877, Note_on_c, 0, 67, 60
2, 10877, Note_on_c, 0, 63, 48
2, 10879, Note_on_c, 0, 58, 49
2, 10968, Note_on_c, 0, 62, 0
2, 11003, Note_on_c, 0, 58, 0
2, 11012, Note_on_c, 0, 67, 0
2, 11024, Note_on_c, 0, 63, 0
2, 11593, Note_on_c, 0, 63, 39
2, 11593, Note_on_c, 0, 67, 57
2, 11595, Note_on_c, 0, 60, 62
2, 11596, Note_on_c, 0, 56, 34
2, 11608, Note_on_c, 0, 67, 0
2, 11614, Note_on_c, 0, 60, 0
2, 11615, Note_on_c, 0, 63, 0
2, 11621, Note_on_c, 0, 56, 0
2, 11754, Note_on_c, 0, 67, 34
2, 11756, Note_on_c, 0, 62, 45
2, 11756, Note_on_c, 0, 56, 32
2, 11758, Note_on_c, 0, 60, 44
2, 11787, Note_on_c, 0, 60, 0
2, 11790, Note_on_c, 0, 62, 0
2, 11792, Note_on_c, 0, 67, 0
2, 11799, Note_on_c, 0, 56, 0
2, 11877, Note_on_c, 0, 62, 56
2, 11877, Note_on_c, 0, 67, 43
2, 11879, Note_on_c, 0, 56, 32
2, 11882, Note_on_c, 0, 60, 49
2, 11903, Note_on_c, 0, 60, 0
2, 11907, Note_on_c, 0, 62, 0
2, 11909, Note_on_c, 0, 67, 0
2, 11929, Note_on_c, 0, 56, 0
2, 12001, Note_on_c, 0, 65, 24
2, 12001, Note_on_c, 0, 55, 37
2, 12003, Note_on_c, 0, 58, 25
2, 12003, Note_on_c, 0, 60, 45
2, 12045, Note_on_c, 0, 60, 0
2, 12052, Note_on_c, 0, 55, 0
2, 12057, Note_on_c, 0, 65, 0
2, 12058, Note_on_c, 0, 58, 0
2, 12081, Note_on_c, 0, 65, 52
2, 12083, Note_on_c, 0, 55, 37
2, 12084, Note_on_c, 0, 58, 26
2, 12084, Note_on_c, 0, 60, 47
2, 12095, Note_on_c, 0, 55, 0
2, 12096, Note_on_c, 0, 60, 0
2, 12099, Note_on_c, 0, 65, 0
2, 12104, Note_on_c, 0, 58, 0
2, 12840, Note_on_c, 0, 67, 80
2, 12840, Note_on_c, 0, 63, 60
2, 12841, Note_on_c, 0, 58, 60
2, 12841, Note_on_c, 0, 62, 64
2, 12906, Note_on_c, 0, 62, 0
2, 12922, Note_on_c, 0, 63, 0
2, 12935, Note_on_c, 0, 58, 0
2, 12936, Note_on_c, 0, 67, 0
2, 12963, Note_on_c, 0, 65, 46
2, 12965, Note_on_c, 0, 60, 44
2, 12966, Note_on_c, 0, 56, 34
2, 12967, Note_on_c, 0, 61, 30
2, 13018, Note_on_c, 0, 60, 0
2, 13020, Note_on_c, 0, 65, 0
2, 13023, Note_on_c, 0, 56, 0
2, 13027, Note_on_c, 0, 61, 0
2, 13044, Note_on_c, 0, 61, 25
2, 13044, Note_on_c, 0, 65, 47
2, 13046, Note_on_c, 0, 60, 50
2, 13047, Note_on_c, 0, 56, 33
2, 13065, Note_on_c, 0, 60, 0
2, 13068, Note_on_c, 0, 65, 0
2, 13071, Note_on_c, 0, 61, 0
2, 13074, Note_on_c, 0, 56, 0
2, 13200, Note_on_c, 0, 65, 37
2, 13200, Note_on_c, 0, 61, 32
2, 13201, Note_on_c, 0, 56, 30
2, 13204, Note_on_c, 0, 60, 37
2, 13213, Note_on_c, 0, 60, 0
2, 13218, Note_on_c, 0, 65, 0
2, 13221, Note_on_c, 0, 56, 0
2, 13221, Note_on_c, 0, 61, 0
2, 13441, Note_on_c, 0, 55, 43
2, 13441, Note_on_c, 0, 61, 28
2, 13442, Note_on_c, 0, 65, 31
2, 13471, Note_on_c, 0, 55, 0
2, 13478, Note_on_c, 0, 61, 0
2, 13480, Note_on_c, 0, 65, 0
2, 13635, Note_on_c, 0, 65, 61
2, 13636, Note_on_c, 0, 61, 34
2, 13637, Note_on_c, 0, 60, 35
2, 13642, Note_on_c, 0, 55, 24
2, 13648, Note_on_c, 0, 55, 0
2, 13648, Note_on_c, 0, 60, 0
2, 13649, Note_on_c, 0, 65, 0
2, 13650, Note_on_c, 0, 61, 0
2, 14157, Note_on_c, 0, 63, 46
2, 14160, Note_on_c, 0, 53, 47
2, 14161, Note_on_c, 0, 60, 52
2, 14162, Note_on_c, 0, 58, 47
2, 14188, Note_on_c, 0, 53, 0
2, 14189, Note_on_c, 0, 60, 0
2, 14193, Note_on_c, 0, 58, 0
2, 14198, Note_on_c, 0, 63, 0
2, 14400, Note_on_c, 0, 63, 40
2, 14404, Note_on_c, 0, 53, 35
2, 14404, Note_on_c, 0, 60, 45
2, 14406, Note_on_c, 0, 58, 33
2, 14452, Note_on_c, 0, 53, 0
2, 14460, Note_on_c, 0, 60, 0
2, 14461, Note_on_c, 0, 63, 0
2, 14466, Note_on_c, 0, 58, 0
2, 14477, Note_on_c, 0, 63, 55
2, 14482, Note_on_c, 0, 58, 36
2, 14482, Note_on_c, 0, 60, 53
2, 14484, Note_on_c, 0, 53, 28
2, 14488, Note_on_c, 0, 60, 0
2, 14490, Note_on_c, 0, 53, 0
2, 14490, Note_on_c, 0, 63, 0
2, 14497, Note_on_c, 0, 58, 0
2, 14597, Note_on_c, 0, 63, 57
2, 14600, Note_on_c, 0, 60, 58
2, 14601, Note_on_c, 0, 58, 38
2, 14602, Note_on_c, 0, 53, 32
2, 14796, Note_on_c, 0, 53, 0
2, 14825, Note_on_c, 0, 60, 0
2, 14844, Note_on_c, 0, 58, 0
2, 14847, Note_on_c, 0, 63, 0
2, 17878, Note_on_c, 0, 51, 71
2, 17878, Note_on_c, 0, 63, 78
2, 17878, Note_on_c, 0, 56, 77
2, 17880, Note_on_c, 0, 58, 76
2, 17888, Note_on_c, 0, 56, 0
2, 17903, Note_on_c, 0, 63, 0
2, 17906, Note_on_c, 0, 58, 0
2, 17911, Note_on_c, 0, 51, 0
2, 17914, Note_on_c, 0, 49, 47
2, 17948, Note_on_c, 0, 56, 64
2, 17949, Note_on_c, 0, 63, 60
2, 17950, Note_on_c, 0, 51, 62
2, 17950, Note_on_c, 0, 58, 70
2, 17951, Note_on_c, 0, 49, 0
2, 17994, Note_on_c, 0, 56, 0
2, 17997, Note_on_c, 0, 63, 0
2, 17999, Note_on_c, 0, 58, 0
2, 18003, Note_on_c, 0, 51, 0
2, 18366, Note_on_c, 0, 66, 84
2, 18366, Note_on_c, 0, 58, 93
2, 18367, Note_on_c, 0, 61, 79
2, 18368, Note_on_c, 0, 63, 67
2, 18369, Note_on_c, 0, 54, 71
2, 18379, Note_on_c, 0, 58, 0
2, 18384, Note_on_c, 0, 66, 0
2, 18385, Note_on_c, 0, 61, 0
2, 18387, Note_on_c, 0, 63, 0
2, 18389, Note_on_c, 0, 54, 0
2, 18401, Note_on_c, 0, 54, 70
2, 18402, Note_on_c, 0, 51, 60
2, 18403, Note_on_c, 0, 63, 32
2, 18403, Note_on_c, 0, 61, 38
2, 18405, Note_on_c, 0, 58, 39
2, 18410, Note_on_c, 0, 58, 0
2, 18412, Note_on_c, 0, 54, 0
2, 18414, Note_on_c, 0, 61, 0
2, 18416, Note_on_c, 0, 63, 0
2, 18434, Note_on_c, 0, 58, 53
2, 18434, Note_on_c, 0, 66, 48
2, 18435, Note_on_c, 0, 61, 49
2, 18436, Note_on_c, 0, 63, 56
2, 18438, Note_on_c, 0, 54, 60
2, 18440, Note_on_c, 0, 51, 0
2, 18463, Note_on_c, 0, 63, 0
2, 18466, Note_on_c, 0, 61, 0
2, 18466, Note_on_c, 0, 58, 0
2, 18470, Note_on_c, 0, 66, 0
2, 18474, Note_on_c, 0, 54, 0
2, 18799, Note_on_c, 0, 68, 81
2, 18800, Note_on_c, 0, 61, 90
2, 18800, Note_on_c, 0, 63, 80
2, 18802, Note_on_c, 0, 66, 67
2, 18802, Note_on_c, 0, 56, 81
2, 18898, Note_on_c, 0, 61, 0
2, 18899, Note_on_c, 0, 63, 0
2, 18902, Note_on_c, 0, 68, 0
2, 18904, Note_on_c, 0, 66, 0
2, 18913, Note_on_c, 0, 56, 0
2, 18915, Note_on_c, 0, 54, 61
2, 18915, Note_on_c, 0, 66, 61
2, 18916, Note_on_c, 0, 58, 69
2, 18917, Note_on_c, 0, 63, 52
2, 18918, Note_on_c, 0, 61, 63
2, 18960, Note_on_c, 0, 61, 0
2, 18961, Note_on_c, 0, 63, 0
2, 18962, Note_on_c, 0, 66, 0
2, 18966, Note_on_c, 0, 58, 0
2, 18978, Note_on_c, 0, 54, 0
2, 18990, Note_on_c, 0, 63, 60
2, 18991, Note_on_c, 0, 51, 48
2, 18991, Note_on_c, 0, 54, 56
2, 18993, Note_on_c, 0, 61, 52
2, 19011, Note_on_c, 0, 54, 0
2, 19016, Note_on_c, 0, 61, 0
2, 19016, Note_on_c, 0, 63, 0
2, 19023, Note_on_c, 0, 51, 0
2, 19025, Note_on_c, 0, 49, 45
2, 19059, Note_on_c, 0, 49, 0
2, 19062, Note_on_c, 0, 61, 54
2, 19063, Note_on_c, 0, 54, 47
2, 19063, Note_on_c, 0, 63, 36
2, 19063, Note_on_c, 0, 51, 59
2, 19065, Note_on_c, 0, 58, 50
2, 19075, Note_on_c, 0, 54, 0
2, 19082, Note_on_c, 0, 61, 0
2, 19082, Note_on_c, 0, 58, 0
2, 19085, Note_on_c, 0, 63, 0
2, 19086, Note_on_c, 0, 51, 0
2, 19280, Note_on_c, 0, 66, 85
2, 19280, Note_on_c, 0, 54, 75
2, 19280, Note_on_c, 0, 58, 93
2, 19280, Note_on_c, 0, 61, 80
2, 19280, Note_on_c, 0, 63, 62
2, 19320, Note_on_c, 0, 63, 0
2, 19320, Note_on_c, 0, 58, 0
2, 19320, Note_on_c, 0, 66, 0
2, 19320, Note_on_c, 0, 54, 0
2, 19320, Note_on_c, 0, 61, 0
2, 19320, Note_on_c, 0, 51, 63
2, 19320, Note_on_c, 0, 56, 58
2, 19320, Note_on_c, 0, 63, 52
2, 19360, Note_on_c, 0, 63, 0
2, 19360, Note_on_c, 0, 56, 0
2, 19360, Note_on_c, 0, 51, 0
2, 19360, Note_on_c, 0, 61, 44
2, 19360, Note_on_c, 0, 54, 34
2, 19360, Note_on_c, 0, 49, 59
2, 19400, Note_on_c, 0, 49, 0
2, 19400, Note_on_c, 0, 54, 0
2, 19400, Note_on_c, 0, 61, 0
2, 19400, Note_on_c, 0, 56, 14
2, 19400, Note_on_c, 0, 51, 43
2, 19400, Note_on_c, 0, 46, 40
2, 19400, Note_on_c, 0, 56, 35
2, 19440, Note_on_c, 0, 56, 0
2, 19440, Note_on_c, 0, 56, 0
2, 19440, Note_on_c, 0, 51, 0
2, 19440, Note_on_c, 0, 46, 0
2, 19440, Note_on_c, 0, 54, 61
2, 19440, Note_on_c, 0, 51, 64
2, 19440, Note_on_c, 0, 63, 51
2, 19440, Note_on_c, 0, 58, 59
2, 19440, Note_on_c, 0, 61, 55
2, 19480, Note_on_c, 0, 61, 0
2, 19480, Note_on_c, 0, 63, 0
2, 19480, Note_on_c, 0, 54, 0
2, 19480, Note_on_c, 0, 51, 0
2, 19480, Note_on_c, 0, 58, 0
2, 19520, Note_on_c, 0, 61, 61
2, 19520, Note_on_c, 0, 50, 63
2, 19520, Note_on_c, 0, 56, 57
2, 19520, Note_on_c, 0, 46, 55
2, 19520, Note_on_c, 0, 34, 52
2, 19640, Note_on_c, 0, 34, 0
2, 19640, Note_on_c, 0, 56, 0
2, 19640, Note_on_c, 0, 61, 0
2, 19640, Note_on_c, 0, 50, 0
2, 19640, Note_on_c, 0, 46, 0
2, 19764, Note_on_c, 0, 65, 40
2, 19767, Note_on_c, 0, 58, 32
2, 19767, Note_on_c, 0, 60, 49
2, 19767, Note_on_c, 0, 55, 37
2, 19778, Note_on_c, 0, 55, 0
2, 19779, Note_on_c, 0, 60, 0
2, 19779, Note_on_c, 0, 65, 0
2, 19782, Note_on_c, 0, 58, 0
2, 19923, Note_on_c, 0, 65, 35
2, 19927, Note_on_c, 0, 58, 30
2, 19927, Note_on_c, 0, 60, 49
2, 19927, Note_on_c, 0, 55, 40
2, 20161, Note_on_c, 0, 55, 0
2, 20165, Note_on_c, 0, 60, 0
2, 20175, Note_on_c, 0, 65, 0
2, 20177, Note_on_c, 0, 58, 0
2, 20481, Note_on_c, 0, 62, 62
2, 20481, Note_on_c, 0, 67, 60
2, 20481, Note_on_c, 0, 63, 48
2, 20483, Note_on_c, 0, 58, 49
2, 20572, Note_on_c, 0, 62, 0
2, 20607, Note_on_c, 0, 58, 0
2, 20616, Note_on_c, 0, 67, 0
2, 20628, Note_on_c, 0, 63, 0
2, 21197, Note_on_c, 0, 63, 39
2, 21197, Note_on_c, 0, 67, 57
2, 21199, Note_on_c, 0, 60, 62
2, 21200, Note_on_c, 0, 56, 34
2, 21212, Note_on_c, 0, 67, 0
2, 21218, Note_on_c, 0, 60, 0
2, 21219, Note_on_c, 0, 63, 0
2, 21225, Note_on_c, 0, 56, 0
2, 21358, Note_on_c, 0, 67, 34
2, 21360, Note_on_c, 0, 62, 45
2, 21360, Note_on_c, 0, 56, 32
2, 21362, Note_on_c, 0, 60, 44
2, 21391, Note_on_c, 0, 60, 0
2, 21394, Note_on_c, 0, 62, 0
2, 21396, Note_on_c, 0, 67, 0
2, 21403, Note_on_c, 0, 56, 0
2, 21481, Note_on_c, 0, 62, 56
2, 21481, Note_on_c, 0, 67, 43
2, 21483, Note_on_c, 0, 56, 32
2, 21486, Note_on_c, 0, 60, 49
2, 21507, Note_on_c, 0, 60, 0
2, 21511, Note_on_c, 0, 62, 0
2, 21513, Note_on_c, 0, 67, 0
2, 21533, Note_on_c, 0, 56, 0
2, 21605, Note_on_c, 0, 65, 24
2, 21605, Note_on_c, 0, 55, 37
2, 21607, Note_on_c, 0, 58, 25
2, 21607, Note_on_c, 0, 60, 45
2, 21649, Note_on_c, 0, 60, 0
2, 21656, Note_on_c, 0, 55, 0
2, 21661, Note_on_c, 0, 65, 0
2, 21662, Note_on_c, 0, 58, 0
2, 21685, Note_on_c, 0, 65, 52
2, 21687, Note_on_c, 0, 55, 37
2, 21688, Note_on_c, 0, 58, 26
2, 21688, Note_on_c, 0, 60, 47
2, 21699, Note_on_c, 0, 55, 0
2, 21700, Note_on_c, 0, 60, 0
2, 21703, Note_on_c, 0, 65, 0
2, 21708, Note_on_c, 0, 58, 0
2, 22444, Note_on_c, 0, 67, 80
2, 22444, Note_on_c, 0, 63, 60
2, 22445, Note_on_c, 0, 58, 60
2, 22445, Note_on_c, 0, 62, 64
2, 22510, Note_on_c, 0, 62, 0
2, 22526, Note_on_c, 0, 63, 0
2, 22539, Note_on_c, 0, 58, 0
2, 22540, Note_on_c, 0, 67, 0
2, 22567, Note_on_c, 0, 65, 46
2, 22569, Note_on_c, 0, 60, 44
2, 22570, Note_on_c, 0, 56, 34
2, 22571, Note_on_c, 0, 61, 30
2, 22622, Note_on_c, 0, 60, 0
2, 22624, Note_on_c, 0, 65, 0
2, 22627, Note_on_c, 0, 56, 0
2, 22631, Note_on_c, 0, 61, 0
2, 22648, Note_on_c, 0, 61, 25
2, 22648, Note_on_c, 0, 65, 47
2, 22650, Note_on_c, 0, 60, 50
2, 22651, Note_on_c, 0, 56, 33
2, 22669, Note_on_c, 0, 60, 0
2, 22672, Note_on_c, 0, 65, 0
2, 22675, Note_on_c, 0, 61, 0
2, 22678, Note_on_c, 0, 56, 0
2, 22804, Note_on_c, 0, 65, 37
2, 22804, Note_on_c, 0, 61, 32
2, 22805, Note_on_c, 0, 56, 30
2, 22808, Note_on_c, 0, 60, 37
2, 22817, Note_on_c, 0, 60, 0
2, 22822, Note_on_c, 0, 65, 0
2, 22825, Note_on_c, 0, 56, 0
2, 22825, Note_on_c, 0, 61, 0
2, 23045, Note_on_c, 0, 55, 43
2, 23045, Note_on_c, 0, 61, 28
2, 23046, Note_on_c, 0, 65, 31
2, 23075, Note_on_c, 0, 55, 0
2, 23082, Note_on_c, 0, 61, 0
2, 23084, Note_on_c, 0, 65, 0
2, 23239, Note_on_c, 0, 65, 61
2, 23240, Note_on_c, 0, 61, 34
2, 23241, Note_on_c, 0, 60, 35
2, 23246, Note_on_c, 0, 55, 24
2, 23252, Note_on_c, 0, 55, 0
2, 23252, Note_on_c, 0, 60, 0
2, 23253, Note_on_c, 0, 65, 0
2, 23254, Note_on_c, 0, 61, 0
2, 23761, Note_on_c, 0, 63, 46
2, 23764, Note_on_c, 0, 53, 47
2, 23765, Note_on_c, 0, 60, 52
2, 23766, Note_on_c, 0, 58, 47
2, 23792, Note_on_c, 0, 53, 0
2, 23793, Note_on_c, 0, 60, 0
2, 23797, Note_on_c, 0, 58, 0
2, 23802, Note_on_c, 0, 63, 0
2, 24004, Note_on_c, 0, 63, 40
2, 24008, Note_on_c, 0, 53, 35
2, 24008, Note_on_c, 0, 60, 45
2, 24010, Note_on_c, 0, 58, 33
2, 24056, Note_on_c, 0, 53, 0
2, 24064, Note_on_c, 0, 60, 0
2, 24065, Note_on_c, 0, 63, 0
2, 24070, Note_on_c, 0, 58, 0
2, 24081, Note_on_c, 0, 63, 55
2, 24086, Note_on_c, 0, 58, 36
2, 24086, Note_on_c, 0, 60, 53
2, 24088, Note_on_c, 0, 53, 28
2, 24092, Note_on_c, 0, 60, 0
2, 24094, Note_on_c, 0, 53, 0
2, 24094, Note_on_c, 0, 63, 0
2, 24101, Note_on_c, 0, 58, 0
2, 24201, Note_on_c, 0, 63, 57
2, 24204, Note_on_c, 0, 60, 58
2, 24205, Note_on_c, 0, 58, 38
2, 24206, Note_on_c, 0, 53, 32
2, 24400, Note_on_c, 0, 53, 0
2, 24429, Note_on_c, 0, 60, 0
2, 24448, Note_on_c, 0, 58, 0
2, 24451, Note_on_c, 0, 63, 0
2, 24552, Note_on_c, 0, 63, 60
2, 24554, Note_on_c, 0, 54, 47
2, 24554, Note_on_c, 0, 59, 71
2, 24554, Note_on_c, 0, 58, 57
2, 24571, Note_on_c, 0, 54, 0
2, 24572, Note_on_c, 0, 59, 0
2, 24573, Note_on_c, 0, 63, 0
2, 24576, Note_on_c, 0, 58, 0
2, 24713, Note_on_c, 0, 63, 46
2, 24716, Note_on_c, 0, 54, 35
2, 24717, Note_on_c, 0, 59, 54
2, 24718, Note_on_c, 0, 58, 48
2, 24902, Note_on_c, 0, 59, 0
2, 24913, Note_on_c, 0, 58, 0
2, 24933, Note_on_c, 0, 54, 0
2, 24933, Note_on_c, 0, 63, 0
2, 25163, Note_on_c, 0, 63, 59
2, 25164, Note_on_c, 0, 53, 57
2, 25165, Note_on_c, 0, 59, 58
2, 25168, Note_on_c, 0, 58, 42
2, 25189, Note_on_c, 0, 59, 0
2, 25189, Note_on_c, 0, 53, 0
2, 25190, Note_on_c, 0, 58, 0
2, 25194, Note_on_c, 0, 63, 0
2, 25281, Note_on_c, 0, 63, 55
2, 25282, Note_on_c, 0, 59, 58
2, 25283, Note_on_c, 0, 58, 45
2, 25377, Note_on_c, 0, 59, 0
2, 25408, Note_on_c, 0, 63, 0
2, 25432, Note_on_c, 0, 58, 0
2, 25445, Note_on_c, 0, 65, 39
2, 25447, Note_on_c, 0, 58, 8
2, 25450, Note_on_c, 0, 60, 37
2, 25451, Note_on_c, 0, 55, 26
2, 25467, Note_on_c, 0, 60, 0
2, 25468, Note_on_c, 0, 55, 0
2, 25468, Note_on_c, 0, 65, 0
2, 25474, Note_on_c, 0, 58, 0
2, 25557, Note_on_c, 0, 65, 43
2, 25560, Note_on_c, 0, 60, 44
2, 25562, Note_on_c, 0, 58, 25
2, 25563, Note_on_c, 0, 55, 27
2, 25575, Note_on_c, 0, 55, 0
2, 25583, Note_on_c, 0, 60, 0
2, 25586, Note_on_c, 0, 65, 0
2, 25588, Note_on_c, 0, 58, 0
2, 25995, Note_on_c, 0, 67, 64
2, 25996, Note_on_c, 0, 63, 43
2, 25996, Note_on_c, 0, 58, 54
2, 25996, Note_on_c, 0, 62, 61
2, 26023, Note_on_c, 0, 67, 0
2, 26024, Note_on_c, 0, 62, 0
2, 26025, Note_on_c, 0, 58, 0
2, 26026, Note_on_c, 0, 63, 0
2, 26043, Note_on_c, 0, 67, 43
2, 26044, Note_on_c, 0, 58, 37
2, 26044, Note_on_c, 0, 63, 35
2, 26044, Note_on_c, 0, 62, 45
2, 26099, Note_on_c, 0, 58, 0
2, 26104, Note_on_c, 0, 67, 0
2, 26104, Note_on_c, 0, 62, 0
2, 26105, Note_on_c, 0, 63, 0
2, 26119, Note_on_c, 0, 67, 54
2, 26120, Note_on_c, 0, 63, 39
2, 26120, Note_on_c, 0, 62, 64
2, 26122, Note_on_c, 0, 58, 51
2, 26250, Note_on_c, 0, 67, 0
2, 26251, Note_on_c, 0, 58, 0
2, 26255, Note_on_c, 0, 62, 0
2, 26255, Note_on_c, 0, 63, 0
2, 26281, Note_on_c, 0, 58, 33
2, 26281, Note_on_c, 0, 67, 41
2, 26283, Note_on_c, 0, 62, 50
2, 26283, Note_on_c, 0, 63, 31
2, 26339, Note_on_c, 0, 62, 0
2, 26344, Note_on_c, 0, 58, 0
2, 26354, Note_on_c, 0, 63, 0
2, 26363, Note_on_c, 0, 67, 0
2, 26401, Note_on_c, 0, 67, 41
2, 26402, Note_on_c, 0, 62, 33
2, 26402, Note_on_c, 0, 63, 36
2, 26405, Note_on_c, 0, 57, 37
2, 26462, Note_on_c, 0, 57, 0
2, 26468, Note_on_c, 0, 67, 0
2, 26469, Note_on_c, 0, 62, 0
2, 26471, Note_on_c, 0, 63, 0
2, 26482, Note_on_c, 0, 67, 55
2, 26483, Note_on_c, 0, 63, 29
2, 26484, Note_on_c, 0, 62, 29
2, 26492, Note_on_c, 0, 62, 0
2, 26493, Note_on_c, 0, 67, 0
2, 26495, Note_on_c, 0, 63, 0
2, 26880, Note_on_c, 0, 67, 88
2, 26880, Note_on_c, 0, 56, 75
2, 26881, Note_on_c, 0, 62, 81
2, 26882, Note_on_c, 0, 60, 77
2, 26912, Note_on_c, 0, 67, 0
2, 26913, Note_on_c, 0, 56, 0
2, 26916, Note_on_c, 0, 62, 0
2, 26917, Note_on_c, 0, 60, 0
2, 27440, Note_on_c, 0, 65, 40
2, 27443, Note_on_c, 0, 58, 32
2, 27443, Note_on_c, 0, 60, 49
2, 27443, Note_on_c, 0, 55, 37
2, 27454, Note_on_c, 0, 55, 0
2, 27455, Note_on_c, 0, 60, 0
2, 27455, Note_on_c, 0, 65, 0
2, 27458, Note_on_c, 0, 58, 0
2, 27599, Note_on_c, 0, 65, 35
2, 27603, Note_on_c, 0, 58, 30
2, 27603, Note_on_c, 0, 60, 49
2, 27603, Note_on_c, 0, 55, 40
2, 27837, Note_on_c, 0, 55, 0
2, 27841, Note_on_c, 0, 60, 0
2, 27851, Note_on_c, 0, 65, 0
2, 27853, Note_on_c, 0, 58, 0
2, 28157, Note_on_c, 0, 62, 62
2, 28157, Note_on_c, 0, 67, 60
2, 28157, Note_on_c, 0, 63, 48
2, 28159, Note_on_c, 0, 58, 49
2, 28248, Note_on_c, 0, 62, 0
2, 28283, Note_on_c, 0, 58, 0
2, 28292, Note_on_c, 0, 67, 0
2, 28304, Note_on_c, 0, 63, 0
2, 28873, Note_on_c, 0, 63, 39
2, 28873, Note_on_c, 0, 67, 57
2, 28875, Note_on_c, 0, 60, 62
2, 28876, Note_on_c, 0, 56, 34
2, 28888, Note_on_c, 0, 67, 0
2, 28894, Note_on_c, 0, 60, 0
2, 28895, Note_on_c, 0, 63, 0
2, 28901, Note_on_c, 0, 56, 0
2, 29034, Note_on_c, 0, 67, 34
2, 29036, Note_on_c, 0, 62, 45
2, 29036, Note_on_c, 0, 56, 32
2, 29038, Note_on_c, 0, 60, 44
2, 29067, Note_on_c, 0, 60, 0
2, 29070, Note_on_c, 0, 62, 0
2, 29072, Note_on_c, 0, 67, 0
2, 29079, Note_on_c, 0, 56, 0
2, 29157, Note_on_c, 0, 62, 56
2, 29157, Note_on_c, 0, 67, 43
2, 29159, Note_on_c, 0, 56, 32
2, 29162, Note_on_c, 0, 60, 49
2, 29183, Note_on_c, 0, 60, 0
2, 29187, Note_on_c, 0, 62, 0
2, 29189, Note_on_c, 0, 67, 0
2, 29209, Note_on_c, 0, 56, 0
2, 29281, Note_on_c, 0, 65, 24
2, 29281, Note_on_c, 0, 55, 37
2, 29283, Note_on_c, 0, 58, 25
2, 29283, Note_on_c, 0, 60, 45
2, 29325, Note_on_c, 0, 60, 0
2, 29332, Note_on_c, 0, 55, 0
2, 29337, Note_on_c, 0, 65, 0
2, 29338, Note_on_c, 0, 58, 0
2, 29361, Note_on_c, 0, 65, 52
2, 29363, Note_on_c, 0, 55, 37
2, 29364, Note_on_c, 0, 58, 26
2, 29364, Note_on_c, 0, 60, 47
2, 29375, Note_on_c, 0, 55, 0
2, 29376, Note_on_c, 0, 60, 0
2, 29379, Note_on_c, 0, 65, 0
2, 29384, Note_on_c, 0, 58, 0
2, 30120, Note_on_c, 0, 67, 80
2, 30120, Note_on_c, 0, 63, 60
2, 30121, Note_on_c, 0, 58, 60
2, 30121, Note_on_c, 0, 62, 64
2, 30186, Note_on_c, 0, 62, 0
2, 30202, Note_on_c, 0, 63, 0
2, 30215, Note_on_c, 0, 58, 0
2, 30216, Note_on_c, 0, 67, 0
2, 30243, Note_on_c, 0, 65, 46
2, 30245, Note_on_c, 0, 60, 44
2, 30246, Note_on_c, 0, 56, 34
2, 30247, Note_on_c, 0, 61, 30
2, 30298, Note_on_c, 0, 60, 0
2, 30300, Note_on_c, 0, 65, 0
2, 30303, Note_on_c, 0, 56, 0
2, 30307, Note_on_c, 0, 61, 0
2, 30324, Note_on_c, 0, 61, 25
2, 30324, Note_on_c, 0, 65, 47
2, 30326, Note_on_c, 0, 60, 50
2, 30327, Note_on_c, 0, 56, 33
2, 30345, Note_on_c, 0, 60, 0
2, 30348, Note_on_c, 0, 65, 0
2, 30351, Note_on_c, 0, 61, 0
2, 30354, Note_on_c, 0, 56, 0
2, 30480, Note_on_c, 0, 65, 37
2, 30480, Note_on_c, 0, 61, 32
2, 30481, Note_on_c, 0, 56, 30
2, 30484, Note_on_c, 0, 60, 37
2, 30493, Note_on_c, 0, 60, 0
2, 30498, Note_on_c, 0, 65, 0
2, 30501, Note_on_c, 0, 56, 0
2, 30501, Note_on_c, 0, 61, 0
2, 30721, Note_on_c, 0, 55, 43
2, 30721, Note_on_c, 0, 61, 28
2, 30722, Note_on_c, 0, 65, 31
2, 30751, Note_on_c, 0, 55, 0
2, 30758, Note_on_c, 0, 61, 0
2, 30760, Note_on_c, 0, 65, 0
2, 30915, Note_on_c, 0, 65, 61
2, 30916, Note_on_c, 0, 61, 34
2, 30917, Note_on_c, 0, 60, 35
2, 30922, Note_on_c, 0, 55, 24
2, 30928, Note_on_c, 0, 55, 0
2, 30928, Note_on_c, 0, 60, 0
2, 30929, Note_on_c, 0, 65, 0
2, 30930, Note_on_c, 0, 61, 0
2, 31437, Note_on_c, 0, 63, 46
2, 31440, Note_on_c, 0, 53, 47
2, 31441, Note_on_c, 0, 60, 52
2, 31442, Note_on_c, 0, 58, 47
2, 31468, Note_on_c, 0, 53, 0
2, 31469, Note_on_c, 0, 60, 0
2, 31473, Note_on_c, 0, 58, 0
2, 31478, Note_on_c, 0, 63, 0
2, 31680, Note_on_c, 0, 63, 40
2, 31684, Note_on_c, 0, 53, 35
2, 31684, Note_on_c, 0, 60, 45
2, 31686, Note_on_c, 0, 58, 33
2, 31732, Note_on_c, 0, 53, 0
2, 31740, Note_on_c, 0, 60, 0
2, 31741, Note_on_c, 0, 63, 0
2, 31746, Note_on_c, 0, 58, 0
2, 31757, Note_on_c, 0, 63, 55
2, 31762, Note_on_c, 0, 58, 36
2, 31762, Note_on_c, 0, 60, 53
2, 31764, Note_on_c, 0, 53, 28
2, 31768, Note_on_c, 0, 60, 0
2, 31770, Note_on_c, 0, 53, 0
2, 31770, Note_on_c, 0, 63, 0
2, 31777, Note_on_c, 0, 58, 0
2, 31877, Note_on_c, 0, 63, 57
2, 31880, Note_on_c, 0, 60, 58
2, 31881, Note_on_c, 0, 58, 38
2, 31882, Note_on_c, 0, 53, 32
2, 32076, Note_on_c, 0, 53, 0
2, 32105, Note_on_c, 0, 60, 0
2, 32124, Note_on_c, 0, 58, 0
2, 32127, Note_on_c, 0, 63, 0
2, 32237, Note_on_c, 0, 58, 75
2, 32237, Note_on_c, 0, 67, 80
2, 32237, Note_on_c, 0, 63, 64
2, 32238, Note_on_c, 0, 62, 74
2, 32354, Note_on_c, 0, 62, 0
2, 32373, Note_on_c, 0, 58, 0
2, 32380, Note_on_c, 0, 67, 0
2, 32390, Note_on_c, 0, 63, 0
2, 32403, Note_on_c, 0, 63, 32
2, 32403, Note_on_c, 0, 67, 65
2, 32406, Note_on_c, 0, 62, 64
2, 32407, Note_on_c, 0, 57, 48
2, 32431, Note_on_c, 0, 57, 0
2, 32434, Note_on_c, 0, 63, 0
2, 32435, Note_on_c, 0, 67, 0
2, 32439, Note_on_c, 0, 62, 0
2, 32513, Note_on_c, 0, 62, 57
2, 32514, Note_on_c, 0, 63, 54
2, 32514, Note_on_c, 0, 67, 64
2, 32515, Note_on_c, 0, 57, 63
2, 32545, Note_on_c, 0, 62, 0
2, 32546, Note_on_c, 0, 57, 0
2, 32548, Note_on_c, 0, 67, 0
2, 32550, Note_on_c, 0, 63, 0
2, 32715, Note_on_c, 0, 63, 71
2, 32715, Note_on_c, 0, 67, 89
2, 32716, Note_on_c, 0, 56, 75
2, 32717, Note_on_c, 0, 60, 74
2, 32861, Note_on_c, 0, 56, 0
2, 32862, Note_on_c, 0, 67, 0
2, 32865, Note_on_c, 0, 63, 0
2, 32868, Note_on_c, 0, 60, 0
2, 32885, Note_on_c, 0, 67, 59
2, 32888, Note_on_c, 0, 62, 53
2, 32890, Note_on_c, 0, 60, 33
2, 32891, Note_on_c, 0, 56, 33
2, 32937, Note_on_c, 0, 60, 0
2, 32941, Note_on_c, 0, 62, 0
2, 32946, Note_on_c, 0, 56, 0
2, 32947, Note_on_c, 0, 67, 0
2, 33000, Note_on_c, 0, 67, 50
2, 33003, Note_on_c, 0, 62, 54
2, 33004, Note_on_c, 0, 56, 30
2, 33007, Note_on_c, 0, 60, 49
2, 33038, Note_on_c, 0, 60, 0
2, 33045, Note_on_c, 0, 62, 0
2, 33053, Note_on_c, 0, 67, 0
2, 33066, Note_on_c, 0, 56, 0
2, 33115, Note_on_c, 0, 65, 31
2, 33118, Note_on_c, 0, 55, 36
2, 33118, Note_on_c, 0, 58, 33
2, 33118, Note_on_c, 0, 60, 54
2, 33181, Note_on_c, 0, 55, 0
2, 33184, Note_on_c, 0, 65, 0
2, 33184, Note_on_c, 0, 60, 0
2, 33188, Note_on_c, 0, 58, 0
2, 33198, Note_on_c, 0, 65, 69
2, 33199, Note_on_c, 0, 60, 62
2, 33200, Note_on_c, 0, 58, 49
2, 33207, Note_on_c, 0, 58, 0
2, 33207, Note_on_c, 0, 60, 0
2, 33208, Note_on_c, 0, 65, 0
2, 33441, Note_on_c, 0, 65, 64
2, 33441, Note_on_c, 0, 55, 61
2, 33442, Note_on_c, 0, 58, 45
2, 33442, Note_on_c, 0, 60, 61
2, 33539, Note_on_c, 0, 60, 0
2, 33539, Note_on_c, 0, 65, 0
2, 33549, Note_on_c, 0, 58, 0
2, 33550, Note_on_c, 0, 55, 0
2, 33680, Note_on_c, 0, 61, 92
2, 33681, Note_on_c, 0, 58, 86
2, 33681, Note_on_c, 0, 70, 88
2, 33681, Note_on_c, 0, 65, 92
2, 33800, Note_on_c, 0, 61, 0
2, 33802, Note_on_c, 0, 65, 0
2, 33816, Note_on_c, 0, 70, 0
2, 33846, Note_on_c, 0, 68, 74
2, 33846, Note_on_c, 0, 72, 68
2, 33846, Note_on_c, 0, 60, 71
2, 33847, Note_on_c, 0, 64, 72
2, 33853, Note_on_c, 0, 58, 0
2, 33914, Note_on_c, 0, 64, 0
2, 33914, Note_on_c, 0, 72, 0
2, 33918, Note_on_c, 0, 68, 0
2, 33921, Note_on_c, 0, 60, 0
2, 33925, Note_on_c, 0, 58, 56
2, 33953, Note_on_c, 0, 58, 0
2, 33956, Note_on_c, 0, 68, 77
2, 33957, Note_on_c, 0, 60, 68
2, 33958, Note_on_c, 0, 64, 78
2, 33958, Note_on_c, 0, 72, 65
2, 33977, Note_on_c, 0, 60, 0
2, 33994, Note_on_c, 0, 64, 0
2, 34017, Note_on_c, 0, 68, 0
2, 34028, Note_on_c, 0, 72, 0
2, 34162, Note_on_c, 0, 62, 83
2, 34162, Note_on_c, 0, 67, 81
2, 34163, Note_on_c, 0, 63, 65
2, 34164, Note_on_c, 0, 57, 70
2, 34291, Note_on_c, 0, 63, 0
2, 34292, Note_on_c, 0, 57, 0
2, 34294, Note_on_c, 0, 62, 0
2, 34296, Note_on_c, 0, 67, 0
2, 34335, Note_on_c, 0, 67, 68
2, 34335, Note_on_c, 0, 62, 64
2, 34337, Note_on_c, 0, 63, 49
2, 34337, Note_on_c, 0, 57, 47
2, 34349, Note_on_c, 0, 67, 0
2, 34353, Note_on_c, 0, 62, 0
2, 34355, Note_on_c, 0, 57, 0
2, 34357, Note_on_c, 0, 63, 0
2, 34453, Note_on_c, 0, 62, 45
2, 34453, Note_on_c, 0, 67, 53
2, 34455, Note_on_c, 0, 63, 46
2, 34456, Note_on_c, 0, 57, 37
2, 34470, Note_on_c, 0, 57, 0
2, 34470, Note_on_c, 0, 62, 0
2, 34470, Note_on_c, 0, 67, 0
2, 34473, Note_on_c, 0, 63, 0
2, 34553, Note_on_c, 0, 62, 55
2, 34554, Note_on_c, 0, 67, 62
2, 34555, Note_on_c, 0, 63, 44
2, 34557, Note_on_c, 0, 57, 45
2, 34695, Note_on_c, 0, 57, 0
2, 34699, Note_on_c, 0, 62, 0
2, 34699, Note_on_c, 0, 67, 0
2, 34703, Note_on_c, 0, 63, 0
2, 34755, Note_on_c, 0, 65, 68
2, 34755, Note_on_c, 0, 62, 62
2, 34755, Note_on_c, 0, 63, 53
2, 34758, Note_on_c, 0, 57, 54
2, 34899, Note_on_c, 0, 62, 0
2, 34900, Note_on_c, 0, 57, 0
2, 34903, Note_on_c, 0, 65, 0
2, 34910, Note_on_c, 0, 63, 0
2, 35231, Note_on_c, 0, 63, 80
2, 35233, Note_on_c, 0, 53, 73
2, 35234, Note_on_c, 0, 59, 73
2, 35234, Note_on_c, 0, 58, 62
2, 35262, Note_on_c, 0, 53, 0
2, 35266, Note_on_c, 0, 63, 0
2, 35268, Note_on_c, 0, 59, 0
2, 35273, Note_on_c, 0, 58, 0
2, 35278, Note_on_c, 0, 63, 59
2, 35280, Note_on_c, 0, 53, 61
2, 35280, Note_on_c, 0, 58, 29
2, 35281, Note_on_c, 0, 59, 72
2, 35334, Note_on_c, 0, 59, 0
2, 35335, Note_on_c, 0, 53, 0
2, 35339, Note_on_c, 0, 58, 0
2, 35340, Note_on_c, 0, 63, 0
2, 35356, Note_on_c, 0, 63, 71
2, 35359, Note_on_c, 0, 59, 68
2, 35360, Note_on_c, 0, 58, 50
2, 35360, Note_on_c, 0, 53, 62
2, 35377, Note_on_c, 0, 53, 0
2, 35380, Note_on_c, 0, 63, 0
2, 35381, Note_on_c, 0, 59, 0
2, 35382, Note_on_c, 0, 58, 0
2, 35516, Note_on_c, 0, 63, 64
2, 35519, Note_on_c, 0, 59, 61
2, 35520, Note_on_c, 0, 53, 54
2, 35520, Note_on_c, 0, 58, 52
2, 35565, Note_on_c, 0, 58, 0
2, 35565, Note_on_c, 0, 59, 0
2, 35566, Note_on_c, 0, 53, 0
2, 35576, Note_on_c, 0, 63, 0
2, 35712, Note_on_c, 0, 63, 74
2, 35715, Note_on_c, 0, 53, 54
2, 35716, Note_on_c, 0, 59, 66
2, 35718, Note_on_c, 0, 58, 50
2, 35874, Note_on_c, 0, 53, 0
2, 35883, Note_on_c, 0, 59, 0
2, 35887, Note_on_c, 0, 58, 0
2, 35902, Note_on_c, 0, 63, 0
2, 35958, Note_on_c, 0, 63, 84
2, 35959, Note_on_c, 0, 55, 83
2, 35960, Note_on_c, 0, 60, 80
2, 35961, Note_on_c, 0, 58, 72
2, 36156, Note_on_c, 0, 60, 0
2, 36159, Note_on_c, 0, 55, 0
2, 36160, Note_on_c, 0, 58, 0
2, 36166, Note_on_c, 0, 63, 0
2, 36202, Note_on_c, 0, 63, 76
2, 36205, Note_on_c, 0, 60, 72
2, 36206, Note_on_c, 0, 58, 61
2, 36206, Note_on_c, 0, 55, 64
2, 36225, Note_on_c, 0, 55, 0
2, 36226, Note_on_c, 0, 63, 0
2, 36231, Note_on_c, 0, 58, 0
2, 36231, Note_on_c, 0, 60, 0
2, 36246, Note_on_c, 0, 63, 62
2, 36250, Note_on_c, 0, 60, 60
2, 36251, Note_on_c, 0, 55, 60
2, 36253, Note_on_c, 0, 58, 47
2, 36279, Note_on_c, 0, 60, 0
2, 36281, Note_on_c, 0, 55, 0
2, 36282, Note_on_c, 0, 58, 0
2, 36292, Note_on_c, 0, 63, 0
2, 36363, Note_on_c, 0, 63, 69
2, 36366, Note_on_c, 0, 60, 62
2, 36367, Note_on_c, 0, 55, 57
2, 36367, Note_on_c, 0, 58, 55
2, 36389, Note_on_c, 0, 55, 0
2, 36392, Note_on_c, 0, 60, 0
2, 36398, Note_on_c, 0, 58, 0
2, 36403, Note_on_c, 0, 63, 0
2, 36479, Note_on_c, 0, 63, 69
2, 36481, Note_on_c, 0, 56, 67
2, 36481, Note_on_c, 0, 67, 81
2, 36482, Note_on_c, 0, 60, 73
2, 36598, Note_on_c, 0, 67, 0
2, 36600, Note_on_c, 0, 60, 0
2, 36605, Note_on_c, 0, 63, 0
2, 36611, Note_on_c, 0, 56, 0
2, 36675, Note_on_c, 0, 63, 91
2, 36676, Note_on_c, 0, 54, 74
2, 36677, Note_on_c, 0, 60, 80
2, 36678, Note_on_c, 0, 57, 75
2, 36805, Note_on_c, 0, 57, 0
2, 36825, Note_on_c, 0, 60, 0
2, 36836, Note_on_c, 0, 63, 0
2, 36839, Note_on_c, 0, 54, 0
2, 37040, Note_on_c, 0, 50, 65
2, 37040, Note_on_c, 0, 65, 74
2, 37040, Note_on_c, 0, 54, 74
2, 37040, Note_on_c, 0, 60, 74
2, 37101, Note_on_c, 0, 60, 0
2, 37106, Note_on_c, 0, 65, 0
2, 37111, Note_on_c, 0, 54, 0
2, 37117, Note_on_c, 0, 50, 0
2, 37120, Note_on_c, 0, 64, 60
2, 37120, Note_on_c, 0, 43, 53
2, 37120, Note_on_c, 0, 59, 62
2, 37120, Note_on_c, 0, 53, 51
2, 37155, Note_on_c, 0, 64, 0
2, 37166, Note_on_c, 0, 53, 0
2, 37166, Note_on_c, 0, 59, 0
2, 37198, Note_on_c, 0, 43, 0
2, 37200, Note_on_c, 0, 48, 57
2, 37200, Note_on_c, 0, 58, 71
2, 37200, Note_on_c, 0, 63, 59
2, 37200, Note_on_c, 0, 52, 64
2, 37237, Note_on_c, 0, 52, 0
2, 37247, Note_on_c, 0, 63, 0
2, 37256, Note_on_c, 0, 58, 0
2, 37269, Note_on_c, 0, 48, 0
2, 37280, Note_on_c, 0, 41, 62
2, 37280, Note_on_c, 0, 62, 64
2, 37280, Note_on_c, 0, 51, 58
2, 37280, Note_on_c, 0, 57, 70
2, 37312, Note_on_c, 0, 62, 0
2, 37321, Note_on_c, 0, 57, 0
2, 37329, Note_on_c, 0, 51, 0
2, 37360, Note_on_c, 0, 61, 63
2, 37360, Note_on_c, 0, 56, 67
2, 37360, Note_on_c, 0, 46, 55
2, 37360, Note_on_c, 0, 50, 67
2, 37365, Note_on_c, 0, 41, 0
2, 37379, Note_on_c, 0, 46, 0
2, 37409, Note_on_c, 0, 50, 0
2, 37413, Note_on_c, 0, 56, 0
2, 37413, Note_on_c, 0, 61, 0
2, 37440, Note_on_c, 0, 60, 61
2, 37440, Note_on_c, 0, 53, 68
2, 37440, Note_on_c, 0, 39, 48
2, 37440, Note_on_c, 0, 27, 57
2, 37440, Note_on_c, 0, 53, 20
2, 37456, Note_on_c, 0, 53, 0
2, 37770, Note_on_c, 0, 53, 0
2, 37802, Note_on_c, 0, 60, 0
2, 37802, Note_on_c, 0, 27, 0
2, 37803, Note_on_c, 0, 39, 0
2, 37803, End_track
3, 0, Start_track
3, 0, Title_t, "Bass"
3, 0, Program_c, 1, 32
3, 0, Control_c, 1, 7, 120
3, 360, Note_on_c, 1, 39, 64
3, 389, Note_on_c, 1, 39, 0
3, 400, Note_on_c, 1, 37, 58
3, 428, Note_on_c, 1, 37, 0
3, 440, Note_on_c, 1, 39, 92
3, 477, Note_on_c, 1, 39, 0
3, 840, Note_on_c, 1, 39, 83
3, 865, Note_on_c, 1, 39, 0
3, 880, Note_on_c, 1, 37, 60
3, 910, Note_on_c, 1, 37, 0
3, 920, Note_on_c, 1, 39, 88
3, 973, Note_on_c, 1, 39, 0
3, 1320, Note_on_c, 1, 39, 86
3, 1347, Note_on_c, 1, 39, 0
3, 1360, Note_on_c, 1, 37, 56
3, 1379, Note_on_c, 1, 37, 0
3, 1400, Note_on_c, 1, 39, 86
3, 1450, Note_on_c, 1, 39, 0
3, 1800, Note_on_c, 1, 39, 65
3, 1825, Note_on_c, 1, 39, 0
3, 1840, Note_on_c, 1, 37, 44
3, 1871, Note_on_c, 1, 37, 0
3, 1880, Note_on_c, 1, 39, 86
3, 1931, Note_on_c, 1, 39, 0
3, 2404, Note_on_c, 1, 39, 91
3, 2593, Note_on_c, 1, 39, 0
3, 2593, Note_on_c, 1, 33, 68
3, 2631, Note_on_c, 1, 33, 0
3, 2636, Note_on_c, 1, 34, 74
3, 2829, Note_on_c, 1, 34, 0
3, 2829, Note_on_c, 1, 38, 76
3, 2873, Note_on_c, 1, 39, 80
3, 2875, Note_on_c, 1, 38, 0
3, 3061, Note_on_c, 1, 39, 0
3, 3072, Note_on_c, 1, 37, 46
3, 3109, Note_on_c, 1, 37, 0
3, 3115, Note_on_c, 1, 36, 75
3, 3316, Note_on_c, 1, 34, 20
3, 3317, Note_on_c, 1, 42, 90
3, 3324, Note_on_c, 1, 36, 0
3, 3332, Note_on_c, 1, 34, 0
3, 3357, Note_on_c, 1, 42, 0
3, 3362, Note_on_c, 1, 41, 83
3, 3558, Note_on_c, 1, 36, 74
3, 3563, Note_on_c, 1, 41, 0
3, 3594, Note_on_c, 1, 36, 0
3, 3602, Note_on_c, 1, 34, 71
3, 3790, Note_on_c, 1, 40, 84
3, 3820, Note_on_c, 1, 34, 0
3, 3823, Note_on_c, 1, 40, 0
3, 3834, Note_on_c, 1, 41, 101
3, 3901, Note_on_c, 1, 41, 0
3, 3912, Note_on_c, 1, 41, 91
3, 4038, Note_on_c, 1, 35, 80
3, 4051, Note_on_c, 1, 41, 0
3, 4078, Note_on_c, 1, 35, 0
3, 4083, Note_on_c, 1, 34, 80
3, 4243, Note_on_c, 1, 36, 64
3, 4246, Note_on_c, 1, 34, 0
3, 4272, Note_on_c, 1, 36, 0
3, 4281, Note_on_c, 1, 38, 60
3, 4315, Note_on_c, 1, 38, 0
3, 4320, Note_on_c, 1, 39, 81
3, 4521, Note_on_c, 1, 33, 66
3, 4534, Note_on_c, 1, 39, 0
3, 4562, Note_on_c, 1, 34, 78
3, 4566, Note_on_c, 1, 33, 0
3, 4760, Note_on_c, 1, 38, 85
3, 4788, Note_on_c, 1, 34, 0
3, 4796, Note_on_c, 1, 38, 0
3, 4805, Note_on_c, 1, 39, 85
3, 4997, Note_on_c, 1, 38, 77
3, 5028, Note_on_c, 1, 38, 0
3, 5031, Note_on_c, 1, 39, 0
3, 5041, Note_on_c, 1, 36, 70
3, 5128, Note_on_c, 1, 32, 15
3, 5152, Note_on_c, 1, 32, 0
3, 5161, Note_on_c, 1, 36, 0
3, 5164, Note_on_c, 1, 35, 82
3, 5275, Note_on_c, 1, 35, 0
3, 5279, Note_on_c, 1, 34, 74
3, 5524, Note_on_c, 1, 41, 95
3, 5536, Note_on_c, 1, 34, 0
3, 5715, Note_on_c, 1, 40, 83
3, 5717, Note_on_c, 1, 41, 0
3, 5751, Note_on_c, 1, 40, 0
3, 5756, Note_on_c, 1, 39, 82
3, 5957, Note_on_c, 1, 34, 50
3, 5971, Note_on_c, 1, 34, 0
3, 5991, Note_on_c, 1, 39, 0
3, 5996, Note_on_c, 1, 41, 62
3, 6081, Note_on_c, 1, 34, 39
3, 6091, Note_on_c, 1, 34, 0
3, 6121, Note_on_c, 1, 41, 0
3, 6122, Note_on_c, 1, 43, 74
3, 6232, Note_on_c, 1, 43, 0
3, 6239, Note_on_c, 1, 44, 76
3, 6402, Note_on_c, 1, 37, 51
3, 6420, Note_on_c, 1, 37, 0
3, 6421, Note_on_c, 1, 44, 0
3, 6434, Note_on_c, 1, 38, 71
3, 6475, Note_on_c, 1, 38, 0
3, 6475, Note_on_c, 1, 39, 79
3, 6724, Note_on_c, 1, 32, 81
3, 6726, Note_on_c, 1, 39, 0
3, 6960, Note_on_c, 1, 39, 74
3, 6964, Note_on_c, 1, 32, 0
3, 7125, Note_on_c, 1, 42, 74
3, 7151, Note_on_c, 1, 39, 0
3, 7154, Note_on_c, 1, 42, 0
3, 7158, Note_on_c, 1, 43, 82
3, 7196, Note_on_c, 1, 43, 0
3, 7201, Note_on_c, 1, 44, 86
3, 7446, Note_on_c, 1, 39, 78
3, 7457, Note_on_c, 1, 44, 0
3, 7635, Note_on_c, 1, 35, 64
3, 7656, Note_on_c, 1, 39, 0
3, 7676, Note_on_c, 1, 35, 0
3, 7676, Note_on_c, 1, 32, 77
3, 7923, Note_on_c, 1, 37, 76
3, 7930, Note_on_c, 1, 32, 0
3, 8107, Note_on_c, 1, 37, 0
3, 8113, Note_on_c, 1, 38, 68
3, 8148, Note_on_c, 1, 38, 0
3, 8154, Note_on_c, 1, 39, 82
3, 8402, Note_on_c, 1, 39, 0
3, 8403, Note_on_c, 1, 34, 75
3, 8583, Note_on_c, 1, 34, 0
3, 8591, Note_on_c, 1, 35, 80
3, 8631, Note_on_c, 1, 35, 0
3, 8636, Note_on_c, 1, 36, 84
3, 8838, Note_on_c, 1, 36, 0
3, 8849, Note_on_c, 1, 36, 67
3, 8886, Note_on_c, 1, 36, 0
3, 8891, Note_on_c, 1, 43, 108
3, 9071, Note_on_c, 1, 43, 0
3, 9076, Note_on_c, 1, 42, 86
3, 9112, Note_on_c, 1, 42, 0
3, 9118, Note_on_c, 1, 41, 89
3, 9317, Note_on_c, 1, 36, 82
3, 9354, Note_on_c, 1, 36, 0
3, 9365, Note_on_c, 1, 41, 0
3, 9365, Note_on_c, 1, 36, 76
3, 9474, Note_on_c, 1, 36, 0
3, 9480, Note_on_c, 1, 33, 78
3, 9597, Note_on_c, 1, 33, 0
3, 9603, Note_on_c, 1, 34, 88
3, 9609, Note_on_c, 1, 33, 33
3, 9615, Note_on_c, 1, 33, 0
3, 9661, Note_on_c, 1, 34, 0
3, 10080, Note_on_c, 1, 39, 91
3, 10269, Note_on_c, 1, 39, 0
3, 10269, Note_on_c, 1, 33, 68
3, 10307, Note_on_c, 1, 33, 0
3, 10312, Note_on_c, 1, 34, 74
3, 10505, Note_on_c, 1, 34, 0
3, 10505, Note_on_c, 1, 38, 76
3, 10549, Note_on_c, 1, 39, 80
3, 10551, Note_on_c, 1, 38, 0
3, 10737, Note_on_c, 1, 39, 0
3, 10748, Note_on_c, 1, 37, 46
3, 10785, Note_on_c, 1, 37, 0
3, 10791, Note_on_c, 1, 36, 75
3, 10992, Note_on_c, 1, 34, 20
3, 10993, Note_on_c, 1, 42, 90
3, 11000, Note_on_c, 1, 36, 0
3, 11008, Note_on_c, 1, 34, 0
3, 11033, Note_on_c, 1, 42, 0
3, 11038, Note_on_c, 1, 41, 83
3, 11234, Note_on_c, 1, 36, 74
3, 11239, Note_on_c, 1, 41, 0
3, 11270, Note_on_c, 1, 36, 0
3, 11278, Note_on_c, 1, 34, 71
3, 11466, Note_on_c, 1, 40, 84
3, 11496, Note_on_c, 1, 34, 0
3, 11499, Note_on_c, 1, 40, 0
3, 11510, Note_on_c, 1, 41, 101
3, 11577, Note_on_c, 1, 41, 0
3, 11588, Note_on_c, 1, 41, 91
3, 11714, Note_on_c, 1, 35, 80
3, 11727, Note_on_c, 1, 41, 0
3, 11754, Note_on_c, 1, 35, 0
3, 11759, Note_on_c, 1, 34, 80
3, 11919, Note_on_c, 1, 36, 64
3, 11922, Note_on_c, 1, 34, 0
3, 11948, Note_on_c, 1, 36, 0
3, 11957, Note_on_c, 1, 38, 60
3, 11991, Note_on_c, 1, 38, 0
3, 11996, Note_on_c, 1, 39, 81
3, 12197, Note_on_c, 1, 33, 66
3, 12210, Note_on_c, 1, 39, 0
3, 12238, Note_on_c, 1, 34, 78
3, 12242, Note_on_c, 1, 33, 0
3, 12436, Note_on_c, 1, 38, 85
3, 12464, Note_on_c, 1, 34, 0
3, 12472, Note_on_c, 1, 38, 0
3, 12481, Note_on_c, 1, 39, 85
3, 12673, Note_on_c, 1, 38, 77
3, 12704, Note_on_c, 1, 38, 0
3, 12707, Note_on_c, 1, 39, 0
3, 12717, Note_on_c, 1, 36, 70
3, 12804, Note_on_c, 1, 32, 15
3, 12828, Note_on_c, 1, 32, 0
3, 12837, Note_on_c, 1, 36, 0
3, 12840, Note_on_c, 1, 35, 82
3, 12951, Note_on_c, 1, 35, 0
3, 12955, Note_on_c, 1, 34, 74
3, 13200, Note_on_c, 1, 41, 95
3, 13212, Note_on_c, 1, 34, 0
3, 13391, Note_on_c, 1, 40, 83
3, 13393, Note_on_c, 1, 41, 0
3, 13427, Note_on_c, 1, 40, 0
3, 13432, Note_on_c, 1, 39, 82
3, 13633, Note_on_c, 1, 34, 50
3, 13647, Note_on_c, 1, 34, 0
3, 13667, Note_on_c, 1, 39, 0
3, 13672, Note_on_c, 1, 41, 62
3, 13757, Note_on_c, 1, 34, 39
3, 13767, Note_on_c, 1, 34, 0
3, 13797, Note_on_c, 1, 41, 0
3, 13798, Note_on_c, 1, 43, 74
3, 13908, Note_on_c, 1, 43, 0
3, 13915, Note_on_c, 1, 44, 76
3, 14078, Note_on_c, 1, 37, 51
3, 14096, Note_on_c, 1, 37, 0
3, 14097, Note_on_c, 1, 44, 0
3, 14110, Note_on_c, 1, 38, 71
3, 14151, Note_on_c, 1, 38, 0
3, 14151, Note_on_c, 1, 39, 79
3, 14400, Note_on_c, 1, 32, 81
3, 14402, Note_on_c, 1, 39, 0
3, 14636, Note_on_c, 1, 39, 74
3, 14640, Note_on_c, 1, 32, 0
3, 14760, Note_on_c, 1, 35, 86
3, 14827, Note_on_c, 1, 39, 0
3, 14847, Note_on_c, 1, 35, 0
3, 14879, Note_on_c, 1, 36, 94
3, 14995, Note_on_c, 1, 36, 0
3, 15072, Note_on_c, 1, 40, 90
3, 15104, Note_on_c, 1, 40, 0
3, 15110, Note_on_c, 1, 41, 88
3, 15361, Note_on_c, 1, 29, 88
3, 15364, Note_on_c, 1, 41, 0
3, 15599, Note_on_c, 1, 29, 0
3, 15602, Note_on_c, 1, 34, 87
3, 15837, Note_on_c, 1, 34, 0
3, 15839, Note_on_c, 1, 39, 88
3, 16076, Note_on_c, 1, 34, 70
3, 16078, Note_on_c, 1, 39, 0
3, 16314, Note_on_c, 1, 34, 0
3, 16315, Note_on_c, 1, 43, 91
3, 16510, Note_on_c, 1, 43, 0
3, 16515, Note_on_c, 1, 35, 82
3, 16550, Note_on_c, 1, 35, 0
3, 16557, Note_on_c, 1, 36, 85
3, 16759, Note_on_c, 1, 42, 87
3, 16767, Note_on_c, 1, 36, 0
3, 16795, Note_on_c, 1, 42, 0
3, 16801, Note_on_c, 1, 41, 78
3, 17044, Note_on_c, 1, 34, 82
3, 17046, Note_on_c, 1, 41, 0
3, 17279, Note_on_c, 1, 39, 83
3, 17281, Note_on_c, 1, 34, 0
3, 17307, Note_on_c, 1, 39, 0
3, 17404, Note_on_c, 1, 39, 77
3, 17605, Note_on_c, 1, 46, 92
3, 17612, Note_on_c, 1, 39, 0
3, 17640, Note_on_c, 1, 39, 64
3, 17669, Note_on_c, 1, 39, 0
3, 17680, Note_on_c, 1, 37, 58
3, 17708, Note_on_c, 1, 37, 0
3, 17712, Note_on_c, 1, 46, 0
3, 17720, Note_on_c, 1, 39, 92
3, 17757, Note_on_c, 1, 39, 0
3, 18120, Note_on_c, 1, 39, 83
3, 18145, Note_on_c, 1, 39, 0
3, 18160, Note_on_c, 1, 37, 60
3, 18190, Note_on_c, 1, 37, 0
3, 18200, Note_on_c, 1, 39, 88
3, 18253, Note_on_c, 1, 39, 0
3, 18600, Note_on_c, 1, 39, 86
3, 18627, Note_on_c, 1, 39, 0
3, 18640, Note_on_c, 1, 37, 56
3, 18659, Note_on_c, 1, 37, 0
3, 18680, Note_on_c, 1, 39, 86
3, 18730, Note_on_c, 1, 39, 0
3, 19080, Note_on_c, 1, 39, 65
3, 19105, Note_on_c, 1, 39, 0
3, 19120, Note_on_c, 1, 37, 44
3, 19151, Note_on_c, 1, 37, 0
3, 19160, Note_on_c, 1, 39, 86
3, 19211, Note_on_c, 1, 39, 0
3, 19684, Note_on_c, 1, 39, 91
3, 19873, Note_on_c, 1, 39, 0
3, 19873, Note_on_c, 1, 33, 68
3, 19911, Note_on_c, 1, 33, 0
3, 19916, Note_on_c, 1, 34, 74
3, 20109, Note_on_c, 1, 34, 0
3, 20109, Note_on_c, 1, 38, 76
3, 20153, Note_on_c, 1, 39, 80
3, 20155, Note_on_c, 1, 38, 0
3, 20341, Note_on_c, 1, 39, 0
3, 20352, Note_on_c, 1, 37, 46
3, 20389, Note_on_c, 1, 37, 0
3, 20395, Note_on_c, 1, 36, 75
3, 20596, Note_on_c, 1, 34, 20
3, 20597, Note_on_c, 1, 42, 90
3, 20604, Note_on_c, 1, 36, 0
3, 20612, Note_on_c, 1, 34, 0
3, 20637, Note_on_c, 1, 42, 0
3, 20642, Note_on_c, 1, 41, 83
3, 20838, Note_on_c, 1, 36, 74
3, 20843, Note_on_c, 1, 41, 0
3, 20874, Note_on_c, 1, 36, 0
3, 20882, Note_on_c, 1, 34, 71
3, 21070, Note_on_c, 1, 40, 84
3, 21100, Note_on_c, 1, 34, 0
3, 21103, Note_on_c, 1, 40, 0
3, 21114, Note_on_c, 1, 41, 101
3, 21181, Note_on_c, 1, 41, 0
3, 21192, Note_on_c, 1, 41, 91
3, 21318, Note_on_c, 1, 35, 80
3, 21331, Note_on_c, 1, 41, 0
3, 21358, Note_on_c, 1, 35, 0
3, 21363, Note_on_c, 1, 34, 80
3, 21523, Note_on_c, 1, 36, 64
3, 21526, Note_on_c, 1, 34, 0
3, 21552, Note_on_c, 1, 36, 0
3, 21561, Note_on_c, 1, 38, 60
3, 21595, Note_on_c, 1, 38, 0
3, 21600, Note_on_c, 1, 39, 81
3, 21801, Note_on_c, 1, 33, 66
3, 21814, Note_on_c, 1, 39, 0
3, 21842, Note_on_c, 1, 34, 78
3, 21846, Note_on_c, 1, 33, 0
3, 22040, Note_on_c, 1, 38, 85
3, 22068, Note_on_c, 1, 34, 0
3, 22076, Note_on_c, 1, 38, 0
3, 22085, Note_on_c, 1, 39, 85
3, 22277, Note_on_c, 1, 38, 77
3, 22308, Note_on_c, 1, 38, 0
3, 22311, Note_on_c, 1, 39, 0
3, 22321, Note_on_c, 1, 36, 70
3, 22408, Note_on_c, 1, 32, 15
3, 22432, Note_on_c, 1, 32, 0
3, 22441, Note_on_c, 1, 36, 0
3, 22444, Note_on_c, 1, 35, 82
3, 22555, Note_on_c, 1, 35, 0
3, 22559, Note_on_c, 1, 34, 74
3, 22804, Note_on_c, 1, 41, 95
3, 22816, Note_on_c, 1, 34, 0
3, 22995, Note_on_c, 1, 40, 83
3, 22997, Note_on_c, 1, 41, 0
3, 23031, Note_on_c, 1, 40, 0
3, 23036, Note_on_c, 1, 39, 82
3, 23237, Note_on_c, 1, 34, 50
3, 23251, Note_on_c, 1, 34, 0
3, 23271, Note_on_c, 1, 39, 0
3, 23276, Note_on_c, 1, 41, 62
3, 23361, Note_on_c, 1, 34, 39
3, 23371, Note_on_c, 1, 34, 0
3, 23401, Note_on_c, 1, 41, 0
3, 23402, Note_on_c, 1, 43, 74
3, 23512, Note_on_c, 1, 43, 0
3, 23519, Note_on_c, 1, 44, 76
3, 23682, Note_on_c, 1, 37, 51
3, 23700, Note_on_c, 1, 37, 0
3, 23701, Note_on_c, 1, 44, 0
3, 23714, Note_on_c, 1, 38, 71
3, 23755, Note_on_c, 1, 38, 0
3, 23755, Note_on_c, 1, 39, 79
3, 24004, Note_on_c, 1, 32, 81
3, 24006, Note_on_c, 1, 39, 0
3, 24240, Note_on_c, 1, 39, 74
3, 24244, Note_on_c, 1, 32, 0
3, 24405, Note_on_c, 1, 42, 74
3, 24431, Note_on_c, 1, 39, 0
3, 24434, Note_on_c, 1, 42, 0
3, 24438, Note_on_c, 1, 43, 82
3, 24476, Note_on_c, 1, 43, 0
3, 24481, Note_on_c, 1, 44, 86
3, 24726, Note_on_c, 1, 39, 78
3, 24737, Note_on_c, 1, 44, 0
3, 24915, Note_on_c, 1, 35, 64
3, 24936, Note_on_c, 1, 39, 0
3, 24956, Note_on_c, 1, 35, 0
3, 24956, Note_on_c, 1, 32, 77
3, 25203, Note_on_c, 1, 37, 76
3, 25210, Note_on_c, 1, 32, 0
3, 25387, Note_on_c, 1, 37, 0
3, 25393, Note_on_c, 1, 38, 68
3, 25428, Note_on_c, 1, 38, 0
3, 25434, Note_on_c, 1, 39, 82
3, 25682, Note_on_c, 1, 39, 0
3, 25683, Note_on_c, 1, 34, 75
3, 25863, Note_on_c, 1, 34, 0
3, 25871, Note_on_c, 1, 35, 80
3, 25911, Note_on_c, 1, 35, 0
3, 25916, Note_on_c, 1, 36, 84
3, 26118, Note_on_c, 1, 36, 0
3, 26129, Note_on_c, 1, 36, 67
3, 26166, Note_on_c, 1, 36, 0
3, 26171, Note_on_c, 1, 43, 108
3, 26351, Note_on_c, 1, 43, 0
3, 26356, Note_on_c, 1, 42, 86
3, 26392, Note_on_c, 1, 42, 0
3, 26398, Note_on_c, 1, 41, 89
3, 26597, Note_on_c, 1, 36, 82
3, 26634, Note_on_c, 1, 36, 0
3, 26645, Note_on_c, 1, 41, 0
3, 26645, Note_on_c, 1, 36, 76
3, 26754, Note_on_c, 1, 36, 0
3, 26760, Note_on_c, 1, 33, 78
3, 26877, Note_on_c, 1, 33, 0
3, 26883, Note_on_c, 1, 34, 88
3, 26889, Note_on_c, 1, 33, 33
3, 26895, Note_on_c, 1, 33, 0
3, 26941, Note_on_c, 1, 34, 0
3, 27360, Note_on_c, 1, 39, 91
3, 27549, Note_on_c, 1, 39, 0
3, 27549, Note_on_c, 1, 33, 68
3, 27587, Note_on_c, 1, 33, 0
3, 27592, Note_on_c, 1, 34, 74
3, 27785, Note_on_c, 1, 34, 0
3, 27785, Note_on_c, 1, 38, 76
3, 27829, Note_on_c, 1, 39, 80
3, 27831, Note_on_c, 1, 38, 0
3, 28017, Note_on_c, 1, 39, 0
3, 28028, Note_on_c, 1, 37, 46
3, 28065, Note_on_c, 1, 37, 0
3, 28071, Note_on_c, 1, 36, 75
3, 28272, Note_on_c, 1, 34, 20
3, 28273, Note_on_c, 1, 42, 90
3, 28280, Note_on_c, 1, 36, 0
3, 28288, Note_on_c, 1, 34, 0
3, 28313, Note_on_c, 1, 42, 0
3, 28318, Note_on_c, 1, 41, 83
3, 28514, Note_on_c, 1, 36, 74
3, 28519, Note_on_c, 1, 41, 0
3, 28550, Note_on_c, 1, 36, 0
3, 28558, Note_on_c, 1, 34, 71
3, 28746, Note_on_c, 1, 40, 84
3, 28776, Note_on_c, 1, 34, 0
3, 28779, Note_on_c, 1, 40, 0
3, 28790, Note_on_c, 1, 41, 101
3, 28857, Note_on_c, 1, 41, 0
3, 28868, Note_on_c, 1, 41, 91
3, 28994, Note_on_c, 1, 35, 80
3, 29007, Note_on_c, 1, 41, 0
3, 29034, Note_on_c, 1, 35, 0
3, 29039, Note_on_c, 1, 34, 80
3, 29199, Note_on_c, 1, 36, 64
3, 29202, Note_on_c, 1, 34, 0
3, 29228, Note_on_c, 1, 36, 0
3, 29237, Note_on_c, 1, 38, 60
3, 29271, Note_on_c, 1, 38, 0
3, 29276, Note_on_c, 1, 39, 81
3, 29477, Note_on_c, 1, 33, 66
3, 29490, Note_on_c, 1, 39, 0
3, 29518, Note_on_c, 1, 34, 78
3, 29522, Note_on_c, 1, 33, 0
3, 29716, Note_on_c, 1, 38, 85
3, 29744, Note_on_c, 1, 34, 0
3, 29752, Note_on_c, 1, 38, 0
3, 29761, Note_on_c, 1, 39, 85
3, 29953, Note_on_c, 1, 38, 77
3, 29984, Note_on_c, 1, 38, 0
3, 29987, Note_on_c, 1, 39, 0
3, 29997, Note_on_c, 1, 36, 70
3, 30084, Note_on_c, 1, 32, 15
3, 30108, Note_on_c, 1, 32, 0
3, 30117, Note_on_c, 1, 36, 0
3, 30120, Note_on_c, 1, 35, 82
3, 30231, Note_on_c, 1, 35, 0
3, 30235, Note_on_c, 1, 34, 74
3, 30480, Note_on_c, 1, 41, 95
3, 30492, Note_on_c, 1, 34, 0
3, 30671, Note_on_c, 1, 40, 83
3, 30673, Note_on_c, 1, 41, 0
3, 30707, Note_on_c, 1, 40, 0
3, 30712, Note_on_c, 1, 39, 82
3, 30913, Note_on_c, 1, 34, 50
3, 30927, Note_on_c, 1, 34, 0
3, 30947, Note_on_c, 1, 39, 0
3, 30952, Note_on_c, 1, 41, 62
3, 31037, Note_on_c, 1, 34, 39
3, 31047, Note_on_c, 1, 34, 0
3, 31077, Note_on_c, 1, 41, 0
3, 31078, Note_on_c, 1, 43, 74
3, 31188, Note_on_c, 1, 43, 0
3, 31195, Note_on_c, 1, 44, 76
3, 31358, Note_on_c, 1, 37, 51
3, 31376, Note_on_c, 1, 37, 0
3, 31377, Note_on_c, 1, 44, 0
3, 31390, Note_on_c, 1, 38, 71
3, 31431, Note_on_c, 1, 38, 0
3, 31431, Note_on_c, 1, 39, 79
3, 31680, Note_on_c, 1, 32, 81
3, 31682, Note_on_c, 1, 39, 0
3, 31916, Note_on_c, 1, 39, 74
3, 31920, Note_on_c, 1, 32, 0
3, 32081, Note_on_c, 1, 42, 74
3, 32107, Note_on_c, 1, 39, 0
3, 32110, Note_on_c, 1, 42, 0
3, 32114, Note_on_c, 1, 43, 82
3, 32152, Note_on_c, 1, 43, 0
3, 32163, Note_on_c, 1, 36, 94
3, 32345, Note_on_c, 1, 36, 0
3, 32352, Note_on_c, 1, 40, 90
3, 32384, Note_on_c, 1, 40, 0
3, 32390, Note_on_c, 1, 41, 88
3, 32641, Note_on_c, 1, 29, 88
3, 32644, Note_on_c, 1, 41, 0
3, 32879, Note_on_c, 1, 29, 0
3, 32882, Note_on_c, 1, 34, 87
3, 33117, Note_on_c, 1, 34, 0
3, 33119, Note_on_c, 1, 39, 88
3, 33356, Note_on_c, 1, 34, 70
3, 33358, Note_on_c, 1, 39, 0
3, 33594, Note_on_c, 1, 34, 0
3, 33595, Note_on_c, 1, 43, 91
3, 33790, Note_on_c, 1, 43, 0
3, 33795, Note_on_c, 1, 35, 82
3, 33830, Note_on_c, 1, 35, 0
3, 33837, Note_on_c, 1, 36, 85
3, 34039, Note_on_c, 1, 42, 87
3, 34047, Note_on_c, 1, 36, 0
3, 34075, Note_on_c, 1, 42, 0
3, 34091, Note_on_c, 1, 41, 95
3, 34199, Note_on_c, 1, 41, 0
3, 34211, Note_on_c, 1, 41, 91
3, 34315, Note_on_c, 1, 41, 0
3, 34321, Note_on_c, 1, 36, 89
3, 34428, Note_on_c, 1, 36, 0
3, 34440, Note_on_c, 1, 36, 85
3, 34549, Note_on_c, 1, 36, 0
3, 34553, Note_on_c, 1, 29, 87
3, 34656, Note_on_c, 1, 29, 0
3, 34667, Note_on_c, 1, 29, 77
3, 34783, Note_on_c, 1, 29, 0
3, 34784, Note_on_c, 1, 36, 101
3, 34903, Note_on_c, 1, 36, 0
3, 34918, Note_on_c, 1, 36, 91
3, 35024, Note_on_c, 1, 36, 0
3, 35027, Note_on_c, 1, 32, 87
3, 35120, Note_on_c, 1, 32, 0
3, 35145, Note_on_c, 1, 32, 79
3, 35270, Note_on_c, 1, 32, 0
3, 35270, Note_on_c, 1, 44, 88
3, 35384, Note_on_c, 1, 44, 0
3, 35397, Note_on_c, 1, 44, 84
3, 35513, Note_on_c, 1, 44, 0
3, 35516, Note_on_c, 1, 37, 74
3, 35620, Note_on_c, 1, 37, 0
3, 35640, Note_on_c, 1, 37, 85
3, 35755, Note_on_c, 1, 37, 0
3, 35757, Note_on_c, 1, 44, 86
3, 35839, Note_on_c, 1, 37, 74
3, 35868, Note_on_c, 1, 44, 0
3, 35873, Note_on_c, 1, 37, 0
3, 35881, Note_on_c, 1, 38, 85
3, 35995, Note_on_c, 1, 38, 0
3, 36001, Note_on_c, 1, 39, 85
3, 36118, Note_on_c, 1, 39, 0
3, 36127, Note_on_c, 1, 39, 80
3, 36237, Note_on_c, 1, 39, 0
3, 36240, Note_on_c, 1, 34, 71
3, 36317, Note_on_c, 1, 34, 0
3, 36360, Note_on_c, 1, 34, 77
3, 36475, Note_on_c, 1, 34, 0
3, 36477, Note_on_c, 1, 41, 92
3, 36579, Note_on_c, 1, 41, 0
3, 36597, Note_on_c, 1, 41, 83
3, 36666, Note_on_c, 1, 41, 0
3, 36674, Note_on_c, 1, 42, 85
3, 36905, Note_on_c, 1, 42, 0
3, 36907, Note_on_c, 1, 41, 65
3, 36934, Note_on_c, 1, 41, 0
3, 37040, Note_on_c, 1, 38, 96
3, 37120, Note_on_c, 1, 38, 0
3, 37120, Note_on_c, 1, 31, 87
3, 37200, Note_on_c, 1, 36, 91
3, 37201, Note_on_c, 1, 31, 0
3, 37273, Note_on_c, 1, 36, 0
3, 37280, Note_on_c, 1, 29, 82
3, 37355, Note_on_c, 1, 29, 0
3, 37360, Note_on_c, 1, 34, 82
3, 37440, Note_on_c, 1, 39, 75
3, 37442, Note_on_c, 1, 34, 0
3, 37672, Note_on_c, 1, 39, 0
3, 37672, End_track
4, 0, Start_track
4, 0, Title_t, "Guitar"
4, 0, Program_c, 2, 24
4, 2403, Note_on_c, 2, 63, 23
4, 2404, Note_on_c, 2, 60, 35
4, 2405, Note_on_c, 2, 58, 25
4, 2407, Note_on_c, 2, 55, 22
4, 2492, Note_on_c, 2, 55, 0
4, 2499, Note_on_c, 2, 63, 0
4, 2499, Note_on_c, 2, 60, 0
4, 2507, Note_on_c, 2, 58, 0
4, 2522, Note_on_c, 2, 58, 59
4, 2522, Note_on_c, 2, 63, 63
4, 2523, Note_on_c, 2, 60, 62
4, 2524, Note_on_c, 2, 55, 70
4, 2541, Note_on_c, 2, 55, 0
4, 2553, Note_on_c, 2, 60, 0
4, 2554, Note_on_c, 2, 58, 0
4, 2561, Note_on_c, 2, 63, 0
4, 2640, Note_on_c, 2, 63, 30
4, 2641, Note_on_c, 2, 58, 35
4, 2643, Note_on_c, 2, 55, 35
4, 2645, Note_on_c, 2, 60, 36
4, 2724, Note_on_c, 2, 60, 0
4, 2727, Note_on_c, 2, 55, 0
4, 2731, Note_on_c, 2, 63, 0
4, 2733, Note_on_c, 2, 58, 0
4, 2756, Note_on_c, 2, 63, 56
4, 2757, Note_on_c, 2, 58, 56
4, 2758, Note_on_c, 2, 55, 62
4, 2759, Note_on_c, 2, 60, 60
4, 2775, Note_on_c, 2, 55, 0
4, 2785, Note_on_c, 2, 60, 0
4, 2796, Note_on_c, 2, 63, 0
4, 2798, Note_on_c, 2, 58, 0
4, 2878, Note_on_c, 2, 55, 41
4, 2879, Note_on_c, 2, 63, 25
4, 2880, Note_on_c, 2, 58, 30
4, 2883, Note_on_c, 2, 60, 20
4, 2956, Note_on_c, 2, 55, 0
4, 2961, Note_on_c, 2, 60, 0
4, 2966, Note_on_c, 2, 58, 0
4, 2967, Note_on_c, 2, 63, 0
4, 2998, Note_on_c, 2, 60, 60
4, 2998, Note_on_c, 2, 63, 38
4, 2998, Note_on_c, 2, 58, 46
4, 2999, Note_on_c, 2, 55, 55
4, 3030, Note_on_c, 2, 55, 0
4, 3030, Note_on_c, 2, 60, 0
4, 3036, Note_on_c, 2, 58, 0
4, 3042, Note_on_c, 2, 63, 0
4, 3072, Note_on_c, 2, 55, 26
4, 3079, Note_on_c, 2, 55, 0
4, 3118, Note_on_c, 2, 58, 64
4, 3118, Note_on_c, 2, 67, 68
4, 3120, Note_on_c, 2, 62, 69
4, 3122, Note_on_c, 2, 63, 46
4, 3219, Note_on_c, 2, 67, 0
4, 3220, Note_on_c, 2, 62, 0
4, 3226, Note_on_c, 2, 58, 0
4, 3229, Note_on_c, 2, 63, 0
4, 3242, Note_on_c, 2, 58, 61
4, 3244, Note_on_c, 2, 62, 71
4, 3244, Note_on_c, 2, 63, 38
4, 3244, Note_on_c, 2, 67, 60
4, 3258, Note_on_c, 2, 67, 0
4, 3264, Note_on_c, 2, 62, 0
4, 3267, Note_on_c, 2, 58, 0
4, 3271, Note_on_c, 2, 63, 0
4, 3319, Note_on_c, 2, 58, 37
4, 3336, Note_on_c, 2, 58, 0
4, 3356, Note_on_c, 2, 56, 49
4, 3357, Note_on_c, 2, 67, 53
4, 3360, Note_on_c, 2, 60, 60
4, 3363, Note_on_c, 2, 63, 29
4, 3451, Note_on_c, 2, 67, 0
4, 3454, Note_on_c, 2, 56, 0
4, 3455, Note_on_c, 2, 60, 0
4, 3457, Note_on_c, 2, 63, 0
4, 3479, Note_on_c, 2, 56, 59
4, 3479, Note_on_c, 2, 67, 64
4, 3481, Note_on_c, 2, 60, 66
4, 3482, Note_on_c, 2, 63, 42
4, 3498, Note_on_c, 2, 56, 0
4, 3500, Note_on_c, 2, 67, 0
4, 3500, Note_on_c, 2, 60, 0
4, 3504, Note_on_c, 2, 63, 0
4, 3601, Note_on_c, 2, 56, 54
4, 3604, Note_on_c, 2, 67, 51
4, 3604, Note_on_c, 2, 60, 62
4, 3607, Note_on_c, 2, 62, 50
4, 3702, Note_on_c, 2, 67, 0
4, 3706, Note_on_c, 2, 56, 0
4, 3707, Note_on_c, 2, 62, 0
4, 3708, Note_on_c, 2, 60, 0
4, 3723, Note_on_c, 2, 56, 62
4, 3724, Note_on_c, 2, 67, 55
4, 3724, Note_on_c, 2, 60, 64
4, 3725, Note_on_c, 2, 62, 70
4, 3735, Note_on_c, 2, 56, 0
4, 3740, Note_on_c, 2, 67, 0
4, 3743, Note_on_c, 2, 60, 0
4, 3743, Note_on_c, 2, 62, 0
4, 3800, Note_on_c, 2, 56, 18
4, 3813, Note_on_c, 2, 56, 0
4, 3837, Note_on_c, 2, 56, 42
4, 3838, Note_on_c, 2, 67, 49
4, 3839, Note_on_c, 2, 63, 37
4, 3840, Note_on_c, 2, 60, 61
4, 3939, Note_on_c, 2, 67, 0
4, 3942, Note_on_c, 2, 56, 0
4, 3942, Note_on_c, 2, 60, 0
4, 3945, Note_on_c, 2, 63, 0
4, 3955, Note_on_c, 2, 56, 48
4, 3955, Note_on_c, 2, 67, 54
4, 3957, Note_on_c, 2, 60, 60
4, 3957, Note_on_c, 2, 63, 49
4, 4002, Note_on_c, 2, 60, 0
4, 4002, Note_on_c, 2, 67, 0
4, 4009, Note_on_c, 2, 56, 0
4, 4021, Note_on_c, 2, 63, 0
4, 4078, Note_on_c, 2, 56, 35
4, 4079, Note_on_c, 2, 67, 49
4, 4081, Note_on_c, 2, 60, 50
4, 4083, Note_on_c, 2, 62, 49
4, 4175, Note_on_c, 2, 62, 0
4, 4175, Note_on_c, 2, 67, 0
4, 4176, Note_on_c, 2, 60, 0
4, 4181, Note_on_c, 2, 56, 0
4, 4197, Note_on_c, 2, 56, 56
4, 4199, Note_on_c, 2, 60, 65
4, 4199, Note_on_c, 2, 67, 48
4, 4201, Note_on_c, 2, 62, 53
4, 4251, Note_on_c, 2, 67, 0
4, 4256, Note_on_c, 2, 56, 0
4, 4265, Note_on_c, 2, 60, 0
4, 4273, Note_on_c, 2, 62, 0
4, 4277, Note_on_c, 2, 56, 39
4, 4296, Note_on_c, 2, 56, 0
4, 4323, Note_on_c, 2, 58, 34
4, 4323, Note_on_c, 2, 55, 57
4, 4324, Note_on_c, 2, 63, 37
4, 4329, Note_on_c, 2, 60, 14
4, 4415, Note_on_c, 2, 55, 0
4, 4420, Note_on_c, 2, 60, 0
4, 4422, Note_on_c, 2, 63, 0
4, 4425, Note_on_c, 2, 58, 0
4, 4442, Note_on_c, 2, 58, 42
4, 4442, Note_on_c, 2, 55, 55
4, 4443, Note_on_c, 2, 63, 45
4, 4444, Note_on_c, 2, 60, 57
4, 4467, Note_on_c, 2, 55, 0
4, 4477, Note_on_c, 2, 60, 0
4, 4481, Note_on_c, 2, 58, 0
4, 4484, Note_on_c, 2, 63, 0
4, 4561, Note_on_c, 2, 63, 36
4, 4561, Note_on_c, 2, 58, 31
4, 4562, Note_on_c, 2, 55, 37
4, 4563, Note_on_c, 2, 60, 43
4, 4645, Note_on_c, 2, 55, 0
4, 4651, Note_on_c, 2, 58, 0
4, 4652, Note_on_c, 2, 60, 0
4, 4654, Note_on_c, 2, 63, 0
4, 4683, Note_on_c, 2, 58, 56
4, 4685, Note_on_c, 2, 63, 50
4, 4686, Note_on_c, 2, 55, 58
4, 4688, Note_on_c, 2, 60, 41
4, 4698, Note_on_c, 2, 60, 0
4, 4710, Note_on_c, 2, 55, 0
4, 4720, Note_on_c, 2, 58, 0
4, 4725, Note_on_c, 2, 63, 0
4, 4801, Note_on_c, 2, 67, 63
4, 4802, Note_on_c, 2, 58, 39
4, 4803, Note_on_c, 2, 60, 60
4, 4804, Note_on_c, 2, 63, 39
4, 4887, Note_on_c, 2, 63, 0
4, 4890, Note_on_c, 2, 60, 0
4, 4891, Note_on_c, 2, 58, 0
4, 4893, Note_on_c, 2, 67, 0
4, 4924, Note_on_c, 2, 58, 53
4, 4925, Note_on_c, 2, 67, 55
4, 4927, Note_on_c, 2, 60, 55
4, 4927, Note_on_c, 2, 63, 45
4, 4949, Note_on_c, 2, 60, 0
4, 4967, Note_on_c, 2, 67, 0
4, 4984, Note_on_c, 2, 63, 0
4, 4989, Note_on_c, 2, 58, 0
4, 5043, Note_on_c, 2, 66, 61
4, 5044, Note_on_c, 2, 61, 57
4, 5044, Note_on_c, 2, 62, 66
4, 5044, Note_on_c, 2, 57, 62
4, 5109, Note_on_c, 2, 57, 0
4, 5116, Note_on_c, 2, 62, 0
4, 5120, Note_on_c, 2, 66, 0
4, 5132, Note_on_c, 2, 61, 0
4, 5160, Note_on_c, 2, 66, 61
4, 5161, Note_on_c, 2, 61, 57
4, 5161, Note_on_c, 2, 62, 66
4, 5161, Note_on_c, 2, 57, 62
4, 5226, Note_on_c, 2, 57, 0
4, 5233, Note_on_c, 2, 62, 0
4, 5237, Note_on_c, 2, 66, 0
4, 5249, Note_on_c, 2, 61, 0
4, 5280, Note_on_c, 2, 56, 62
4, 5280, Note_on_c, 2, 61, 55
4, 5281, Note_on_c, 2, 65, 64
4, 5364, Note_on_c, 2, 65, 0
4, 5371, Note_on_c, 2, 56, 0
4, 5377, Note_on_c, 2, 61, 0
4, 5397, Note_on_c, 2, 56, 51
4, 5398, Note_on_c, 2, 65, 55
4, 5400, Note_on_c, 2, 61, 38
4, 5400, Note_on_c, 2, 60, 60
4, 5417, Note_on_c, 2, 56, 0
4, 5419, Note_on_c, 2, 60, 0
4, 5422, Note_on_c, 2, 65, 0
4, 5432, Note_on_c, 2, 61, 0
4, 5515, Note_on_c, 2, 56, 50
4, 5517, Note_on_c, 2, 65, 47
4, 5519, Note_on_c, 2, 61, 37
4, 5520, Note_on_c, 2, 60, 56
4, 5606, Note_on_c, 2, 65, 0
4, 5606, Note_on_c, 2, 56, 0
4, 5608, Note_on_c, 2, 60, 0
4, 5613, Note_on_c, 2, 61, 0
4, 5641, Note_on_c, 2, 56, 53
4, 5644, Note_on_c, 2, 65, 45
4, 5645, Note_on_c, 2, 61, 43
4, 5645, Note_on_c, 2, 60, 60
4, 5657, Note_on_c, 2, 65, 0
4, 5658, Note_on_c, 2, 60, 0
4, 5666, Note_on_c, 2, 56, 0
4, 5671, Note_on_c, 2, 61, 0
4, 5762, Note_on_c, 2, 55, 51
4, 5763, Note_on_c, 2, 65, 38
4, 5764, Note_on_c, 2, 61, 30
4, 5765, Note_on_c, 2, 60, 52
4, 5842, Note_on_c, 2, 65, 0
4, 5847, Note_on_c, 2, 55, 0
4, 5849, Note_on_c, 2, 60, 0
4, 5852, Note_on_c, 2, 61, 0
4, 5884, Note_on_c, 2, 55, 70
4, 5884, Note_on_c, 2, 65, 61
4, 5885, Note_on_c, 2, 61, 46
4, 5885, Note_on_c, 2, 60, 65
4, 5918, Note_on_c, 2, 65, 0
4, 5919, Note_on_c, 2, 55, 0
4, 5919, Note_on_c, 2, 60, 0
4, 5923, Note_on_c, 2, 61, 0
4, 6001, Note_on_c, 2, 64, 56
4, 6004, Note_on_c, 2, 58, 62
4, 6005, Note_on_c, 2, 55, 35
4, 6008, Note_on_c, 2, 61, 25
4, 6088, Note_on_c, 2, 55, 0
4, 6088, Note_on_c, 2, 58, 0
4, 6092, Note_on_c, 2, 64, 0
4, 6094, Note_on_c, 2, 61, 0
4, 6117, Note_on_c, 2, 64, 59
4, 6118, Note_on_c, 2, 61, 49
4, 6119, Note_on_c, 2, 55, 55
4, 6119, Note_on_c, 2, 58, 60
4, 6135, Note_on_c, 2, 55, 0
4, 6138, Note_on_c, 2, 58, 0
4, 6146, Note_on_c, 2, 64, 0
4, 6147, Note_on_c, 2, 61, 0
4, 6189, Note_on_c, 2, 55, 50
4, 6196, Note_on_c, 2, 55, 0
4, 6236, Note_on_c, 2, 55, 69
4, 6237, Note_on_c, 2, 58, 47
4, 6237, Note_on_c, 2, 60, 47
4, 6238, Note_on_c, 2, 63, 25
4, 6317, Note_on_c, 2, 63, 0
4, 6319, Note_on_c, 2, 55, 0
4, 6327, Note_on_c, 2, 60, 0
4, 6328, Note_on_c, 2, 58, 0
4, 6357, Note_on_c, 2, 63, 58
4, 6358, Note_on_c, 2, 58, 57
4, 6358, Note_on_c, 2, 55, 65
4, 6360, Note_on_c, 2, 60, 61
4, 6397, Note_on_c, 2, 55, 0
4, 6409, Note_on_c, 2, 60, 0
4, 6424, Note_on_c, 2, 63, 0
4, 6427, Note_on_c, 2, 58, 0
4, 6435, Note_on_c, 2, 55, 40
4, 6442, Note_on_c, 2, 55, 0
4, 6477, Note_on_c, 2, 56, 50
4, 6479, Note_on_c, 2, 66, 37
4, 6480, Note_on_c, 2, 60, 53
4, 6563, Note_on_c, 2, 56, 0
4, 6564, Note_on_c, 2, 60, 0
4, 6564, Note_on_c, 2, 66, 0
4, 6597, Note_on_c, 2, 56, 55
4, 6598, Note_on_c, 2, 63, 48
4, 6598, Note_on_c, 2, 65, 54
4, 6599, Note_on_c, 2, 60, 62
4, 6634, Note_on_c, 2, 60, 0
4, 6635, Note_on_c, 2, 56, 0
4, 6643, Note_on_c, 2, 63, 0
4, 6647, Note_on_c, 2, 65, 0
4, 6719, Note_on_c, 2, 56, 52
4, 6721, Note_on_c, 2, 67, 62
4, 6722, Note_on_c, 2, 60, 55
4, 6723, Note_on_c, 2, 63, 38
4, 6811, Note_on_c, 2, 63, 0
4, 6812, Note_on_c, 2, 60, 0
4, 6814, Note_on_c, 2, 67, 0
4, 6814, Note_on_c, 2, 56, 0
4, 6843, Note_on_c, 2, 56, 60
4, 6844, Note_on_c, 2, 67, 60
4, 6846, Note_on_c, 2, 60, 63
4, 6847, Note_on_c, 2, 63, 46
4, 6889, Note_on_c, 2, 60, 0
4, 6892, Note_on_c, 2, 56, 0
4, 6894, Note_on_c, 2, 67, 0
4, 6899, Note_on_c, 2, 63, 0
4, 6923, Note_on_c, 2, 56, 26
4, 6936, Note_on_c, 2, 56, 0
4, 6963, Note_on_c, 2, 56, 50
4, 6967, Note_on_c, 2, 63, 42
4, 6967, Note_on_c, 2, 65, 51
4, 6968, Note_on_c, 2, 60, 56
4, 7047, Note_on_c, 2, 60, 0
4, 7050, Note_on_c, 2, 65, 0
4, 7053, Note_on_c, 2, 63, 0
4, 7053, Note_on_c, 2, 56, 0
4, 7085, Note_on_c, 2, 56, 57
4, 7087, Note_on_c, 2, 60, 68
4, 7088, Note_on_c, 2, 63, 50
4, 7088, Note_on_c, 2, 65, 53
4, 7121, Note_on_c, 2, 60, 0
4, 7123, Note_on_c, 2, 56, 0
4, 7131, Note_on_c, 2, 63, 0
4, 7135, Note_on_c, 2, 65, 0
4, 7163, Note_on_c, 2, 56, 19
4, 7184, Note_on_c, 2, 56, 0
4, 7198, Note_on_c, 2, 56, 46
4, 7200, Note_on_c, 2, 63, 49
4, 7202, Note_on_c, 2, 59, 62
4, 7284, Note_on_c, 2, 59, 0
4, 7285, Note_on_c, 2, 56, 0
4, 7288, Note_on_c, 2, 63, 0
4, 7317, Note_on_c, 2, 56, 57
4, 7319, Note_on_c, 2, 63, 49
4, 7320, Note_on_c, 2, 59, 61
4, 7352, Note_on_c, 2, 56, 0
4, 7364, Note_on_c, 2, 59, 0
4, 7388, Note_on_c, 2, 63, 0
4, 7399, Note_on_c, 2, 56, 40
4, 7412, Note_on_c, 2, 56, 0
4, 7435, Note_on_c, 2, 56, 48
4, 7435, Note_on_c, 2, 65, 63
4, 7436, Note_on_c, 2, 59, 62
4, 7437, Note_on_c, 2, 63, 25
4, 7521, Note_on_c, 2, 65, 0
4, 7522, Note_on_c, 2, 56, 0
4, 7524, Note_on_c, 2, 59, 0
4, 7532, Note_on_c, 2, 63, 0
4, 7557, Note_on_c, 2, 56, 52
4, 7558, Note_on_c, 2, 65, 55
4, 7559, Note_on_c, 2, 59, 63
4, 7561, Note_on_c, 2, 63, 35
4, 7593, Note_on_c, 2, 56, 0
4, 7594, Note_on_c, 2, 65, 0
4, 7596, Note_on_c, 2, 59, 0
4, 7610, Note_on_c, 2, 63, 0
4, 7638, Note_on_c, 2, 56, 18
4, 7650, Note_on_c, 2, 56, 0
4, 7680, Note_on_c, 2, 56, 42
4, 7680, Note_on_c, 2, 66, 44
4, 7681, Note_on_c, 2, 63, 48
4, 7682, Note_on_c, 2, 59, 61
4, 7768, Note_on_c, 2, 59, 0
4, 7770, Note_on_c, 2, 63, 0
4, 7770, Note_on_c, 2, 56, 0
4, 7773, Note_on_c, 2, 66, 0
4, 7801, Note_on_c, 2, 66, 53
4, 7801, Note_on_c, 2, 56, 61
4, 7803, Note_on_c, 2, 59, 64
4, 7805, Note_on_c, 2, 63, 43
4, 7836, Note_on_c, 2, 56, 0
4, 7844, Note_on_c, 2, 59, 0
4, 7849, Note_on_c, 2, 66, 0
4, 7852, Note_on_c, 2, 63, 0
4, 7921, Note_on_c, 2, 53, 57
4, 7922, Note_on_c, 2, 63, 40
4, 7923, Note_on_c, 2, 59, 55
4, 7923, Note_on_c, 2, 58, 47
4, 8017, Note_on_c, 2, 63, 0
4, 8017, Note_on_c, 2, 53, 0
4, 8019, Note_on_c, 2, 59, 0
4, 8021, Note_on_c, 2, 58, 0
4, 8041, Note_on_c, 2, 58, 53
4, 8041, Note_on_c, 2, 53, 60
4, 8042, Note_on_c, 2, 63, 48
4, 8043, Note_on_c, 2, 59, 56
4, 8091, Note_on_c, 2, 53, 0
4, 8106, Note_on_c, 2, 59, 0
4, 8118, Note_on_c, 2, 53, 47
4, 8139, Note_on_c, 2, 53, 0
4, 8139, Note_on_c, 2, 63, 0
4, 8145, Note_on_c, 2, 58, 0
4, 8159, Note_on_c, 2, 55, 63
4, 8161, Note_on_c, 2, 60, 53
4, 8162, Note_on_c, 2, 58, 33
4, 8162, Note_on_c, 2, 63, 35
4, 8224, Note_on_c, 2, 63, 0
4, 8241, Note_on_c, 2, 55, 0
4, 8242, Note_on_c, 2, 60, 0
4, 8245, Note_on_c, 2, 58, 0
4, 8278, Note_on_c, 2, 58, 44
4, 8279, Note_on_c, 2, 63, 39
4, 8279, Note_on_c, 2, 55, 51
4, 8279, Note_on_c, 2, 60, 53
4, 8315, Note_on_c, 2, 55, 0
4, 8317, Note_on_c, 2, 60, 0
4, 8321, Note_on_c, 2, 58, 0
4, 8325, Note_on_c, 2, 63, 0
4, 8357, Note_on_c, 2, 55, 32
4, 8363, Note_on_c, 2, 55, 0
4, 8398, Note_on_c, 2, 55, 39
4, 8398, Note_on_c, 2, 63, 34
4, 8399, Note_on_c, 2, 58, 47
4, 8401, Note_on_c, 2, 60, 54
4, 8487, Note_on_c, 2, 55, 0
4, 8491, Note_on_c, 2, 58, 0
4, 8492, Note_on_c, 2, 60, 0
4, 8494, Note_on_c, 2, 63, 0
4, 8520, Note_on_c, 2, 58, 74
4, 8520, Note_on_c, 2, 63, 65
4, 8521, Note_on_c, 2, 55, 77
4, 8522, Note_on_c, 2, 60, 72
4, 8545, Note_on_c, 2, 55, 0
4, 8550, Note_on_c, 2, 60, 0
4, 8557, Note_on_c, 2, 58, 0
4, 8566, Note_on_c, 2, 63, 0
4, 8599, Note_on_c, 2, 55, 38
4, 8610, Note_on_c, 2, 55, 0
4, 8638, Note_on_c, 2, 58, 73
4, 8638, Note_on_c, 2, 67, 69
4, 8640, Note_on_c, 2, 62, 66
4, 8641, Note_on_c, 2, 63, 43
4, 8732, Note_on_c, 2, 67, 0
4, 8736, Note_on_c, 2, 58, 0
4, 8738, Note_on_c, 2, 62, 0
4, 8749, Note_on_c, 2, 63, 0
4, 8758, Note_on_c, 2, 58, 70
4, 8759, Note_on_c, 2, 62, 71
4, 8759, Note_on_c, 2, 67, 66
4, 8761, Note_on_c, 2, 63, 31
4, 8780, Note_on_c, 2, 58, 0
4, 8783, Note_on_c, 2, 67, 0
4, 8788, Note_on_c, 2, 62, 0
4, 8810, Note_on_c, 2, 63, 0
4, 8880, Note_on_c, 2, 58, 51
4, 8881, Note_on_c, 2, 67, 56
4, 8883, Note_on_c, 2, 62, 59
4, 8884, Note_on_c, 2, 63, 34
4, 8966, Note_on_c, 2, 67, 0
4, 8966, Note_on_c, 2, 58, 0
4, 8970, Note_on_c, 2, 62, 0
4, 8975, Note_on_c, 2, 63, 0
4, 8998, Note_on_c, 2, 58, 64
4, 9000, Note_on_c, 2, 62, 68
4, 9000, Note_on_c, 2, 67, 55
4, 9001, Note_on_c, 2, 63, 37
4, 9025, Note_on_c, 2, 67, 0
4, 9027, Note_on_c, 2, 62, 0
4, 9034, Note_on_c, 2, 58, 0
4, 9061, Note_on_c, 2, 63, 0
4, 9081, Note_on_c, 2, 58, 37
4, 9102, Note_on_c, 2, 58, 0
4, 9120, Note_on_c, 2, 63, 36
4, 9121, Note_on_c, 2, 62, 63
4, 9121, Note_on_c, 2, 67, 53
4, 9122, Note_on_c, 2, 57, 49
4, 9197, Note_on_c, 2, 67, 0
4, 9199, Note_on_c, 2, 57, 0
4, 9201, Note_on_c, 2, 62, 0
4, 9207, Note_on_c, 2, 63, 0
4, 9241, Note_on_c, 2, 57, 57
4, 9241, Note_on_c, 2, 63, 46
4, 9242, Note_on_c, 2, 62, 64
4, 9242, Note_on_c, 2, 67, 54
4, 9280, Note_on_c, 2, 62, 0
4, 9283, Note_on_c, 2, 57, 0
4, 9287, Note_on_c, 2, 67, 0
4, 9293, Note_on_c, 2, 63, 0
4, 9360, Note_on_c, 2, 67, 56
4, 9361, Note_on_c, 2, 57, 50
4, 9362, Note_on_c, 2, 63, 27
4, 9362, Note_on_c, 2, 60, 63
4, 9436, Note_on_c, 2, 57, 0
4, 9443, Note_on_c, 2, 67, 0
4, 9444, Note_on_c, 2, 60, 0
4, 9446, Note_on_c, 2, 63, 0
4, 9484, Note_on_c, 2, 67, 56
4, 9485, Note_on_c, 2, 60, 64
4, 9485, Note_on_c, 2, 63, 45
4, 9485, Note_on_c, 2, 57, 53
4, 9513, Note_on_c, 2, 57, 0
4, 9526, Note_on_c, 2, 60, 0
4, 9534, Note_on_c, 2, 67, 0
4, 9540, Note_on_c, 2, 63, 0
4, 9598, Note_on_c, 2, 67, 76
4, 9598, Note_on_c, 2, 58, 72
4, 9598, Note_on_c, 2, 60, 79
4, 9599, Note_on_c, 2, 63, 53
4, 9626, Note_on_c, 2, 67, 0
4, 9627, Note_on_c, 2, 60, 0
4, 9632, Note_on_c, 2, 58, 0
4, 9632, Note_on_c, 2, 63, 0
4, 10079, Note_on_c, 2, 63, 23
4, 10080, Note_on_c, 2, 60, 35
4, 10081, Note_on_c, 2, 58, 25
4, 10083, Note_on_c, 2, 55, 22
4, 10168, Note_on_c, 2, 55, 0
4, 10175, Note_on_c, 2, 63, 0
4, 10175, Note_on_c, 2, 60, 0
4, 10183, Note_on_c, 2, 58, 0
4, 10198, Note_on_c, 2, 58, 59
4, 10198, Note_on_c, 2, 63, 63
4, 10199, Note_on_c, 2, 60, 62
4, 10200, Note_on_c, 2, 55, 70
4, 10217, Note_on_c, 2, 55, 0
4, 10229, Note_on_c, 2, 60, 0
4, 10230, Note_on_c, 2, 58, 0
4, 10237, Note_on_c, 2, 63, 0
4, 10316, Note_on_c, 2, 63, 30
4, 10317, Note_on_c, 2, 58, 35
4, 10319, Note_on_c, 2, 55, 35
4, 10321, Note_on_c, 2, 60, 36
4, 10400, Note_on_c, 2, 60, 0
4, 10403, Note_on_c, 2, 55, 0
4, 10407, Note_on_c, 2, 63, 0
4, 10409, Note_on_c, 2, 58, 0
4, 10432, Note_on_c, 2, 63, 56
4, 10433, Note_on_c, 2, 58, 56
4, 10434, Note_on_c, 2, 55, 62
4, 10435, Note_on_c, 2, 60, 60
4, 10451, Note_on_c, 2, 55, 0
4, 10461, Note_on_c, 2, 60, 0
4, 10472, Note_on_c, 2, 63, 0
4, 10474, Note_on_c, 2, 58, 0
4, 10554, Note_on_c, 2, 55, 41
4, 10555, Note_on_c, 2, 63, 25
4, 10556, Note_on_c, 2, 58, 30
4, 10559, Note_on_c, 2, 60, 20
4, 10632, Note_on_c, 2, 55, 0
4, 10637, Note_on_c, 2, 60, 0
4, 10642, Note_on_c, 2, 58, 0
4, 10643, Note_on_c, 2, 63, 0
4, 10674, Note_on_c, 2, 60, 60
4, 10674, Note_on_c, 2, 63, 38
4, 10674, Note_on_c, 2, 58, 46
4, 10675, Note_on_c, 2, 55, 55
4, 10706, Note_on_c, 2, 55, 0
4, 10706, Note_on_c, 2, 60, 0
4, 10712, Note_on_c, 2, 58, 0
4, 10718, Note_on_c, 2, 63, 0
4, 10748, Note_on_c, 2, 55, 26
4, 10755, Note_on_c, 2, 55, 0
4, 10794, Note_on_c, 2, 58, 64
4, 10794, Note_on_c, 2, 67, 68
4, 10796, Note_on_c, 2, 62, 69
4, 10798, Note_on_c, 2, 63, 46
4, 10895, Note_on_c, 2, 67, 0
4, 10896, Note_on_c, 2, 62, 0
4, 10902, Note_on_c, 2, 58, 0
4, 10905, Note_on_c, 2, 63, 0
4, 10918, Note_on_c, 2, 58, 61
4, 10920, Note_on_c, 2, 62, 71
4, 10920, Note_on_c, 2, 63, 38
4, 10920, Note_on_c, 2, 67, 60
4, 10934, Note_on_c, 2, 67, 0
4, 10940, Note_on_c, 2, 62, 0
4, 10943, Note_on_c, 2, 58, 0
4, 10947, Note_on_c, 2, 63, 0
4, 10995, Note_on_c, 2, 58, 37
4, 11012, Note_on_c, 2, 58, 0
4, 11032, Note_on_c, 2, 56, 49
4, 11033, Note_on_c, 2, 67, 53
4, 11036, Note_on_c, 2, 60, 60
4, 11039, Note_on_c, 2, 63, 29
4, 11127, Note_on_c, 2, 67, 0
4, 11130, Note_on_c, 2, 56, 0
4, 11131, Note_on_c, 2, 60, 0
4, 11133, Note_on_c, 2, 63, 0
4, 11155, Note_on_c, 2, 56, 59
4, 11155, Note_on_c, 2, 67, 64
4, 11157, Note_on_c, 2, 60, 66
4, 11158, Note_on_c, 2, 63, 42
4, 11174, Note_on_c, 2, 56, 0
4, 11176, Note_on_c, 2, 67, 0
4, 11176, Note_on_c, 2, 60, 0
4, 11180, Note_on_c, 2, 63, 0
4, 11277, Note_on_c, 2, 56, 54
4, 11280, Note_on_c, 2, 67, 51
4, 11280, Note_on_c, 2, 60, 62
4, 11283, Note_on_c, 2, 62, 50
4, 11378, Note_on_c, 2, 67, 0
4, 11382, Note_on_c, 2, 56, 0
4, 11383, Note_on_c, 2, 62, 0
4, 11384, Note_on_c, 2, 60, 0
4, 11399, Note_on_c, 2, 56, 62
4, 11400, Note_on_c, 2, 67, 55
4, 11400, Note_on_c, 2, 60, 64
4, 11401, Note_on_c, 2, 62, 70
4, 11411, Note_on_c, 2, 56, 0
4, 11416, Note_on_c, 2, 67, 0
4, 11419, Note_on_c, 2, 60, 0
4, 11419, Note_on_c, 2, 62, 0
4, 11476, Note_on_c, 2, 56, 18
4, 11489, Note_on_c, 2, 56, 0
4, 11513, Note_on_c, 2, 56, 42
4, 11514, Note_on_c, 2, 67, 49
4, 11515, Note_on_c, 2, 63, 37
4, 11516, Note_on_c, 2, 60, 61
4, 11615, Note_on_c, 2, 67, 0
4, 11618, Note_on_c, 2, 56, 0
4, 11618, Note_on_c, 2, 60, 0
4, 11621, Note_on_c, 2, 63, 0
4, 11631, Note_on_c, 2, 56, 48
4, 11631, Note_on_c, 2, 67, 54
4, 11633, Note_on_c, 2, 60, 60
4, 11633, Note_on_c, 2, 63, 49
4, 11678, Note_on_c, 2, 60, 0
4, 11678, Note_on_c, 2, 67, 0
4, 11685, Note_on_c, 2, 56, 0
4, 11697, Note_on_c, 2, 63, 0
4, 11754, Note_on_c, 2, 56, 35
4, 11755, Note_on_c, 2, 67, 49
4, 11757, Note_on_c, 2, 60, 50
4, 11759, Note_on_c, 2, 62, 49
4, 11851, Note_on_c, 2, 62, 0
4, 11851, Note_on_c, 2, 67, 0
4, 11852, Note_on_c, 2, 60, 0
4, 11857, Note_on_c, 2, 56, 0
4, 11873, Note_on_c, 2, 56, 56
4, 11875, Note_on_c, 2, 60, 65
4, 11875, Note_on_c, 2, 67, 48
4, 11877, Note_on_c, 2, 62, 53
4, 11927, Note_on_c, 2, 67, 0
4, 11932, Note_on_c, 2, 56, 0
4, 11941, Note_on_c, 2, 60, 0
4, 11949, Note_on_c, 2, 62, 0
4, 11953, Note_on_c, 2, 56, 39
4, 11972, Note_on_c, 2, 56, 0
4, 11999, Note_on_c, 2, 58, 34
4, 11999, Note_on_c, 2, 55, 57
4, 12000, Note_on_c, 2, 63, 37
4, 12005, Note_on_c, 2, 60, 14
4, 12091, Note_on_c, 2, 55, 0
4, 12096, Note_on_c, 2, 60, 0
4, 12098, Note_on_c, 2, 63, 0
4, 12101, Note_on_c, 2, 58, 0
4, 12118, Note_on_c, 2, 58, 42
4, 12118, Note_on_c, 2, 55, 55
4, 12119, Note_on_c, 2, 63, 45
4, 12120, Note_on_c, 2, 60, 57
4, 12143, Note_on_c, 2, 55, 0
4, 12153, Note_on_c, 2, 60, 0
4, 12157, Note_on_c, 2, 58, 0
4, 12160, Note_on_c, 2, 63, 0
4, 12237, Note_on_c, 2, 63, 36
4, 12237, Note_on_c, 2, 58, 31
4, 12238, Note_on_c, 2, 55, 37
4, 12239, Note_on_c, 2, 60, 43
4, 12321, Note_on_c, 2, 55, 0
4, 12327, Note_on_c, 2, 58, 0
4, 12328, Note_on_c, 2, 60, 0
4, 12330, Note_on_c, 2, 63, 0
4, 12359, Note_on_c, 2, 58, 56
4, 12361, Note_on_c, 2, 63, 50
4, 12362, Note_on_c, 2, 55, 58
4, 12364, Note_on_c, 2, 60, 41
4, 12374, Note_on_c, 2, 60, 0
4, 12386, Note_on_c, 2, 55, 0
4, 12396, Note_on_c, 2, 58, 0
4, 12401, Note_on_c, 2, 63, 0
4, 12477, Note_on_c, 2, 67, 63
4, 12478, Note_on_c, 2, 58, 39
4, 12479, Note_on_c, 2, 60, 60
4, 12480, Note_on_c, 2, 63, 39
4, 12563, Note_on_c, 2, 63, 0
4, 12566, Note_on_c, 2, 60, 0
4, 12567, Note_on_c, 2, 58, 0
4, 12569, Note_on_c, 2, 67, 0
4, 12600, Note_on_c, 2, 58, 53
4, 12601, Note_on_c, 2, 67, 55
4, 12603, Note_on_c, 2, 60, 55
4, 12603, Note_on_c, 2, 63, 45
4, 12625, Note_on_c, 2, 60, 0
4, 12643, Note_on_c, 2, 67, 0
4, 12660, Note_on_c, 2, 63, 0
4, 12665, Note_on_c, 2, 58, 0
4, 12719, Note_on_c, 2, 66, 61
4, 12720, Note_on_c, 2, 61, 57
4, 12720, Note_on_c, 2, 62, 66
4, 12720, Note_on_c, 2, 57, 62
4, 12785, Note_on_c, 2, 57, 0
4, 12792, Note_on_c, 2, 62, 0
4, 12796, Note_on_c, 2, 66, 0
4, 12808, Note_on_c, 2, 61, 0
4, 12956, Note_on_c, 2, 56, 62
4, 12956, Note_on_c, 2, 61, 55
4, 12957, Note_on_c, 2, 65, 64
4, 13040, Note_on_c, 2, 65, 0
4, 13047, Note_on_c, 2, 56, 0
4, 13053, Note_on_c, 2, 61, 0
4, 13073, Note_on_c, 2, 56, 51
4, 13074, Note_on_c, 2, 65, 55
4, 13076, Note_on_c, 2, 61, 38
4, 13076, Note_on_c, 2, 60, 60
4, 13093, Note_on_c, 2, 56, 0
4, 13095, Note_on_c, 2, 60, 0
4, 13098, Note_on_c, 2, 65, 0
4, 13108, Note_on_c, 2, 61, 0
4, 13191, Note_on_c, 2, 56, 50
4, 13193, Note_on_c, 2, 65, 47
4, 13195, Note_on_c, 2, 61, 37
4, 13196, Note_on_c, 2, 60, 56
4, 13282, Note_on_c, 2, 65, 0
4, 13282, Note_on_c, 2, 56, 0
4, 13284, Note_on_c, 2, 60, 0
4, 13289, Note_on_c, 2, 61, 0
4, 13317, Note_on_c, 2, 56, 53
4, 13320, Note_on_c, 2, 65, 45
4, 13321, Note_on_c, 2, 61, 43
4, 13321, Note_on_c, 2, 60, 60
4, 13333, Note_on_c, 2, 65, 0
4, 13334, Note_on_c, 2, 60, 0
4, 13342, Note_on_c, 2, 56, 0
4, 13347, Note_on_c, 2, 61, 0
4, 13438, Note_on_c, 2, 55, 51
4, 13439, Note_on_c, 2, 65, 38
4, 13440, Note_on_c, 2, 61, 30
4, 13441, Note_on_c, 2, 60, 52
4, 13518, Note_on_c, 2, 65, 0
4, 13523, Note_on_c, 2, 55, 0
4, 13525, Note_on_c, 2, 60, 0
4, 13528, Note_on_c, 2, 61, 0
4, 13560, Note_on_c, 2, 55, 70
4, 13560, Note_on_c, 2, 65, 61
4, 13561, Note_on_c, 2, 61, 46
4, 13561, Note_on_c, 2, 60, 65
4, 13594, Note_on_c, 2, 65, 0
4, 13595, Note_on_c, 2, 55, 0
4, 13595, Note_on_c, 2, 60, 0
4, 13599, Note_on_c, 2, 61, 0
4, 13677, Note_on_c, 2, 64, 56
4, 13680, Note_on_c, 2, 58, 62
4, 13681, Note_on_c, 2, 55, 35
4, 13684, Note_on_c, 2, 61, 25
4, 13764, Note_on_c, 2, 55, 0
4, 13764, Note_on_c, 2, 58, 0
4, 13768, Note_on_c, 2, 64, 0
4, 13770, Note_on_c, 2, 61, 0
4, 13793, Note_on_c, 2, 64, 59
4, 13794, Note_on_c, 2, 61, 49
4, 13795, Note_on_c, 2, 55, 55
4, 13795, Note_on_c, 2, 58, 60
4, 13811, Note_on_c, 2, 55, 0
4, 13814, Note_on_c, 2, 58, 0
4, 13822, Note_on_c, 2, 64, 0
4, 13823, Note_on_c, 2, 61, 0
4, 13865, Note_on_c, 2, 55, 50
4, 13872, Note_on_c, 2, 55, 0
4, 13912, Note_on_c, 2, 55, 69
4, 13913, Note_on_c, 2, 58, 47
4, 13913, Note_on_c, 2, 60, 47
4, 13914, Note_on_c, 2, 63, 25
4, 13993, Note_on_c, 2, 63, 0
4, 13995, Note_on_c, 2, 55, 0
4, 14003, Note_on_c, 2, 60, 0
4, 14004, Note_on_c, 2, 58, 0
4, 14033, Note_on_c, 2, 63, 58
4, 14034, Note_on_c, 2, 58, 57
4, 14034, Note_on_c, 2, 55, 65
4, 14036, Note_on_c, 2, 60, 61
4, 14073, Note_on_c, 2, 55, 0
4, 14085, Note_on_c, 2, 60, 0
4, 14100, Note_on_c, 2, 63, 0
4, 14103, Note_on_c, 2, 58, 0
4, 14111, Note_on_c, 2, 55, 40
4, 14118, Note_on_c, 2, 55, 0
4, 14153, Note_on_c, 2, 56, 50
4, 14155, Note_on_c, 2, 66, 37
4, 14156, Note_on_c, 2, 60, 53
4, 14239, Note_on_c, 2, 56, 0
4, 14240, Note_on_c, 2, 60, 0
4, 14240, Note_on_c, 2, 66, 0
4, 14273, Note_on_c, 2, 56, 55
4, 14274, Note_on_c, 2, 63, 48
4, 14274, Note_on_c, 2, 65, 54
4, 14275, Note_on_c, 2, 60, 62
4, 14310, Note_on_c, 2, 60, 0
4, 14311, Note_on_c, 2, 56, 0
4, 14319, Note_on_c, 2, 63, 0
4, 14323, Note_on_c, 2, 65, 0
4, 14395, Note_on_c, 2, 56, 52
4, 14397, Note_on_c, 2, 67, 62
4, 14398, Note_on_c, 2, 60, 55
4, 14399, Note_on_c, 2, 63, 38
4, 14487, Note_on_c, 2, 63, 0
4, 14488, Note_on_c, 2, 60, 0
4, 14490, Note_on_c, 2, 67, 0
4, 14490, Note_on_c, 2, 56, 0
4, 14519, Note_on_c, 2, 56, 60
4, 14520, Note_on_c, 2, 67, 60
4, 14522, Note_on_c, 2, 60, 63
4, 14523, Note_on_c, 2, 63, 46
4, 14565, Note_on_c, 2, 60, 0
4, 14568, Note_on_c, 2, 56, 0
4, 14570, Note_on_c, 2, 67, 0
4, 14575, Note_on_c, 2, 63, 0
4, 14599, Note_on_c, 2, 56, 26
4, 14612, Note_on_c, 2, 56, 0
4, 14639, Note_on_c, 2, 56, 50
4, 14643, Note_on_c, 2, 63, 42
4, 14643, Note_on_c, 2, 65, 51
4, 14644, Note_on_c, 2, 60, 56
4, 14723, Note_on_c, 2, 60, 0
4, 14726, Note_on_c, 2, 65, 0
4, 14729, Note_on_c, 2, 63, 0
4, 14729, Note_on_c, 2, 56, 0
4, 14761, Note_on_c, 2, 56, 57
4, 14763, Note_on_c, 2, 60, 68
4, 14764, Note_on_c, 2, 63, 50
4, 14764, Note_on_c, 2, 65, 53
4, 14797, Note_on_c, 2, 60, 0
4, 14799, Note_on_c, 2, 56, 0
4, 14807, Note_on_c, 2, 63, 0
4, 14811, Note_on_c, 2, 65, 0
4, 14839, Note_on_c, 2, 56, 19
4, 14860, Note_on_c, 2, 56, 0
4, 14889, Note_on_c, 2, 58, 45
4, 14890, Note_on_c, 2, 67, 55
4, 14892, Note_on_c, 2, 62, 50
4, 14894, Note_on_c, 2, 63, 31
4, 14968, Note_on_c, 2, 67, 0
4, 14976, Note_on_c, 2, 62, 0
4, 14977, Note_on_c, 2, 58, 0
4, 14978, Note_on_c, 2, 63, 0
4, 15008, Note_on_c, 2, 58, 52
4, 15008, Note_on_c, 2, 67, 57
4, 15009, Note_on_c, 2, 63, 44
4, 15011, Note_on_c, 2, 62, 59
4, 15068, Note_on_c, 2, 62, 0
4, 15075, Note_on_c, 2, 67, 0
4, 15083, Note_on_c, 2, 63, 0
4, 15084, Note_on_c, 2, 58, 0
4, 15122, Note_on_c, 2, 67, 52
4, 15122, Note_on_c, 2, 63, 44
4, 15123, Note_on_c, 2, 57, 37
4, 15189, Note_on_c, 2, 57, 0
4, 15194, Note_on_c, 2, 67, 0
4, 15196, Note_on_c, 2, 63, 0
4, 15235, Note_on_c, 2, 63, 62
4, 15235, Note_on_c, 2, 57, 76
4, 15235, Note_on_c, 2, 67, 70
4, 15270, Note_on_c, 2, 67, 0
4, 15280, Note_on_c, 2, 63, 0
4, 15282, Note_on_c, 2, 57, 0
4, 15358, Note_on_c, 2, 56, 44
4, 15358, Note_on_c, 2, 67, 53
4, 15362, Note_on_c, 2, 60, 54
4, 15363, Note_on_c, 2, 63, 32
4, 15425, Note_on_c, 2, 60, 0
4, 15431, Note_on_c, 2, 63, 0
4, 15433, Note_on_c, 2, 56, 0
4, 15435, Note_on_c, 2, 67, 0
4, 15481, Note_on_c, 2, 56, 70
4, 15482, Note_on_c, 2, 67, 71
4, 15483, Note_on_c, 2, 60, 70
4, 15484, Note_on_c, 2, 63, 48
4, 15538, Note_on_c, 2, 60, 0
4, 15540, Note_on_c, 2, 67, 0
4, 15543, Note_on_c, 2, 56, 0
4, 15549, Note_on_c, 2, 63, 0
4, 15600, Note_on_c, 2, 56, 45
4, 15603, Note_on_c, 2, 65, 51
4, 15604, Note_on_c, 2, 60, 53
4, 15604, Note_on_c, 2, 62, 55
4, 15677, Note_on_c, 2, 56, 0
4, 15683, Note_on_c, 2, 60, 0
4, 15685, Note_on_c, 2, 62, 0
4, 15686, Note_on_c, 2, 65, 0
4, 15721, Note_on_c, 2, 56, 71
4, 15722, Note_on_c, 2, 65, 64
4, 15723, Note_on_c, 2, 60, 74
4, 15723, Note_on_c, 2, 62, 73
4, 15767, Note_on_c, 2, 56, 0
4, 15780, Note_on_c, 2, 65, 0
4, 15786, Note_on_c, 2, 60, 0
4, 15790, Note_on_c, 2, 62, 0
4, 15802, Note_on_c, 2, 56, 46
4, 15813, Note_on_c, 2, 56, 0
4, 15834, Note_on_c, 2, 63, 51
4, 15836, Note_on_c, 2, 55, 62
4, 15838, Note_on_c, 2, 58, 42
4, 15839, Note_on_c, 2, 60, 35
4, 15902, Note_on_c, 2, 63, 0
4, 15922, Note_on_c, 2, 55, 0
4, 15923, Note_on_c, 2, 60, 0
4, 15932, Note_on_c, 2, 58, 0
4, 15960, Note_on_c, 2, 63, 54
4, 15960, Note_on_c, 2, 58, 59
4, 15962, Note_on_c, 2, 60, 66
4, 15962, Note_on_c, 2, 55, 66
4, 15984, Note_on_c, 2, 55, 0
4, 15993, Note_on_c, 2, 60, 0
4, 15993, Note_on_c, 2, 58, 0
4, 16001, Note_on_c, 2, 63, 0
4, 16071, Note_on_c, 2, 63, 31
4, 16075, Note_on_c, 2, 58, 31
4, 16076, Note_on_c, 2, 55, 26
4, 16076, Note_on_c, 2, 60, 37
4, 16147, Note_on_c, 2, 55, 0
4, 16149, Note_on_c, 2, 58, 0
4, 16151, Note_on_c, 2, 63, 0
4, 16151, Note_on_c, 2, 60, 0
4, 16195, Note_on_c, 2, 58, 73
4, 16195, Note_on_c, 2, 63, 68
4, 16195, Note_on_c, 2, 55, 80
4, 16196, Note_on_c, 2, 60, 70
4, 16233, Note_on_c, 2, 60, 0
4, 16236, Note_on_c, 2, 55, 0
4, 16240, Note_on_c, 2, 58, 0
4, 16246, Note_on_c, 2, 63, 0
4, 16320, Note_on_c, 2, 61, 50
4, 16321, Note_on_c, 2, 53, 48
4, 16321, Note_on_c, 2, 58, 50
4, 16406, Note_on_c, 2, 53, 0
4, 16409, Note_on_c, 2, 61, 0
4, 16411, Note_on_c, 2, 58, 0
4, 16439, Note_on_c, 2, 61, 80
4, 16440, Note_on_c, 2, 58, 79
4, 16441, Note_on_c, 2, 53, 80
4, 16485, Note_on_c, 2, 53, 0
4, 16489, Note_on_c, 2, 58, 0
4, 16495, Note_on_c, 2, 61, 0
4, 16560, Note_on_c, 2, 52, 46
4, 16560, Note_on_c, 2, 58, 38
4, 16562, Note_on_c, 2, 60, 50
4, 16642, Note_on_c, 2, 52, 0
4, 16643, Note_on_c, 2, 60, 0
4, 16650, Note_on_c, 2, 58, 0
4, 16675, Note_on_c, 2, 58, 71
4, 16676, Note_on_c, 2, 52, 64
4, 16676, Note_on_c, 2, 60, 73
4, 16700, Note_on_c, 2, 52, 0
4, 16710, Note_on_c, 2, 60, 0
4, 16719, Note_on_c, 2, 58, 0
4, 16797, Note_on_c, 2, 63, 38
4, 16797, Note_on_c, 2, 57, 50
4, 16798, Note_on_c, 2, 62, 60
4, 16887, Note_on_c, 2, 57, 0
4, 16889, Note_on_c, 2, 62, 0
4, 16891, Note_on_c, 2, 63, 0
4, 16923, Note_on_c, 2, 63, 77
4, 16923, Note_on_c, 2, 57, 88
4, 16924, Note_on_c, 2, 62, 92
4, 16949, Note_on_c, 2, 62, 0
4, 16957, Note_on_c, 2, 63, 0
4, 16963, Note_on_c, 2, 57, 0
4, 17041, Note_on_c, 2, 56, 42
4, 17044, Note_on_c, 2, 62, 60
4, 17045, Note_on_c, 2, 60, 56
4, 17047, Note_on_c, 2, 65, 26
4, 17067, Note_on_c, 2, 65, 0
4, 17128, Note_on_c, 2, 60, 0
4, 17131, Note_on_c, 2, 62, 0
4, 17132, Note_on_c, 2, 56, 0
4, 17159, Note_on_c, 2, 56, 64
4, 17161, Note_on_c, 2, 62, 68
4, 17161, Note_on_c, 2, 60, 68
4, 17189, Note_on_c, 2, 56, 0
4, 17196, Note_on_c, 2, 60, 0
4, 17203, Note_on_c, 2, 62, 0
4, 17233, Note_on_c, 2, 56, 29
4, 17242, Note_on_c, 2, 56, 0
4, 17275, Note_on_c, 2, 63, 38
4, 17275, Note_on_c, 2, 55, 62
4, 17276, Note_on_c, 2, 60, 55
4, 17277, Note_on_c, 2, 58, 43
4, 17516, Note_on_c, 2, 60, 0
4, 17519, Note_on_c, 2, 55, 0
4, 17527, Note_on_c, 2, 63, 0
4, 17530, Note_on_c, 2, 58, 0
4, 17606, Note_on_c, 2, 56, 61
4, 17606, Note_on_c, 2, 67, 68
4, 17606, Note_on_c, 2, 60, 73
4, 17607, Note_on_c, 2, 63, 51
4, 17698, Note_on_c, 2, 60, 0
4, 17700, Note_on_c, 2, 56, 0
4, 17702, Note_on_c, 2, 67, 0
4, 17704, Note_on_c, 2, 63, 0
4, 19683, Note_on_c, 2, 63, 23
4, 19684, Note_on_c, 2, 60, 35
4, 19685, Note_on_c, 2, 58, 25
4, 19687, Note_on_c, 2, 55, 22
4, 19772, Note_on_c, 2, 55, 0
4, 19779, Note_on_c, 2, 63, 0
4, 19779, Note_on_c, 2, 60, 0
4, 19787, Note_on_c, 2, 58, 0
4, 19802, Note_on_c, 2, 58, 59
4, 19802, Note_on_c, 2, 63, 63
4, 19803, Note_on_c, 2, 60, 62
4, 19804, Note_on_c, 2, 55, 70
4, 19821, Note_on_c, 2, 55, 0
4, 19833, Note_on_c, 2, 60, 0
4, 19834, Note_on_c, 2, 58, 0
4, 19841, Note_on_c, 2, 63, 0
4, 19920, Note_on_c, 2, 63, 30
4, 19921, Note_on_c, 2, 58, 35
4, 19923, Note_on_c, 2, 55, 35
4, 19925, Note_on_c, 2, 60, 36
4, 20004, Note_on_c, 2, 60, 0
4, 20007, Note_on_c, 2, 55, 0
4, 20011, Note_on_c, 2, 63, 0
4, 20013, Note_on_c, 2, 58, 0
4, 20036, Note_on_c, 2, 63, 56
4, 20037, Note_on_c, 2, 58, 56
4, 20038, Note_on_c, 2, 55, 62
4, 20039, Note_on_c, 2, 60, 60
4, 20055, Note_on_c, 2, 55, 0
4, 20065, Note_on_c, 2, 60, 0
4, 20076, Note_on_c, 2, 63, 0
4, 20078, Note_on_c, 2, 58, 0
4, 20158, Note_on_c, 2, 55, 41
4, 20159, Note_on_c, 2, 63, 25
4, 20160, Note_on_c, 2, 58, 30
4, 20163, Note_on_c, 2, 60, 20
4, 20236, Note_on_c, 2, 55, 0
4, 20241, Note_on_c, 2, 60, 0
4, 20246, Note_on_c, 2, 58, 0
4, 20247, Note_on_c, 2, 63, 0
4, 20278, Note_on_c, 2, 60, 60
4, 20278, Note_on_c, 2, 63, 38
4, 20278, Note_on_c, 2, 58, 46
4, 20279, Note_on_c, 2, 55, 55
4, 20310, Note_on_c, 2, 55, 0
4, 20310, Note_on_c, 2, 60, 0
4, 20316, Note_on_c, 2, 58, 0
4, 20322, Note_on_c, 2, 63, 0
4, 20352, Note_on_c, 2, 55, 26
4, 20359, Note_on_c, 2, 55, 0
4, 20398, Note_on_c, 2, 58, 64
4, 20398, Note_on_c, 2, 67, 68
4, 20400, Note_on_c, 2, 62, 69
4, 20402, Note_on_c, 2, 63, 46
4, 20499, Note_on_c, 2, 67, 0
4, 20500, Note_on_c, 2, 62, 0
4, 20506, Note_on_c, 2, 58, 0
4, 20509, Note_on_c, 2, 63, 0
4, 20522, Note_on_c, 2, 58, 61
4, 20524, Note_on_c, 2, 62, 71
4, 20524, Note_on_c, 2, 63, 38
4, 20524, Note_on_c, 2, 67, 60
4, 20538, Note_on_c, 2, 67, 0
4, 20544, Note_on_c, 2, 62, 0
4, 20547, Note_on_c, 2, 58, 0
4, 20551, Note_on_c, 2, 63, 0
4, 20599, Note_on_c, 2, 58, 37
4, 20616, Note_on_c, 2, 58, 0
4, 20636, Note_on_c, 2, 56, 49
4, 20637, Note_on_c, 2, 67, 53
4, 20640, Note_on_c, 2, 60, 60
4, 20643, Note_on_c, 2, 63, 29
4, 20731, Note_on_c, 2, 67, 0
4, 20734, Note_on_c, 2, 56, 0
4, 20735, Note_on_c, 2, 60, 0
4, 20737, Note_on_c, 2, 63, 0
4, 20759, Note_on_c, 2, 56, 59
4, 20759, Note_on_c, 2, 67, 64
4, 20761, Note_on_c, 2, 60, 66
4, 20762, Note_on_c, 2, 63, 42
4, 20778, Note_on_c, 2, 56, 0
4, 20780, Note_on_c, 2, 67, 0
4, 20780, Note_on_c, 2, 60, 0
4, 20784, Note_on_c, 2, 63, 0
4, 20881, Note_on_c, 2, 56, 54
4, 20884, Note_on_c, 2, 67, 51
4, 20884, Note_on_c, 2, 60, 62
4, 20887, Note_on_c, 2, 62, 50
4, 20982, Note_on_c, 2, 67, 0
4, 20986, Note_on_c, 2, 56, 0
4, 20987, Note_on_c, 2, 62, 0
4, 20988, Note_on_c, 2, 60, 0
4, 21003, Note_on_c, 2, 56, 62
4, 21004, Note_on_c, 2, 67, 55
4, 21004, Note_on_c, 2, 60, 64
4, 21005, Note_on_c, 2, 62, 70
4, 21015, Note_on_c, 2, 56, 0
4, 21020, Note_on_c, 2, 67, 0
4, 21023, Note_on_c, 2, 60, 0
4, 21023, Note_on_c, 2, 62, 0
4, 21080, Note_on_c, 2, 56, 18
4, 21093, Note_on_c, 2, 56, 0
4, 21117, Note_on_c, 2, 56, 42
4, 21118, Note_on_c, 2, 67, 49
4, 21119, Note_on_c, 2, 63, 37
4, 21120, Note_on_c, 2, 60, 61
4, 21219, Note_on_c, 2, 67, 0
4, 21222, Note_on_c, 2, 56, 0
4, 21222, Note_on_c, 2, 60, 0
4, 21225, Note_on_c, 2, 63, 0
4, 21235, Note_on_c, 2, 56, 48
4, 21235, Note_on_c, 2, 67, 54
4, 21237, Note_on_c, 2, 60, 60
4, 21237, Note_on_c, 2, 63, 49
4, 21282, Note_on_c, 2, 60, 0
4, 21282, Note_on_c, 2, 67, 0
4, 21289, Note_on_c, 2, 56, 0
4, 21301, Note_on_c, 2, 63, 0
4, 21358, Note_on_c, 2, 56, 35
4, 21359, Note_on_c, 2, 67, 49
4, 21361, Note_on_c, 2, 60, 50
4, 21363, Note_on_c, 2, 62, 49
4, 21455, Note_on_c, 2, 62, 0
4, 21455, Note_on_c, 2, 67, 0
4, 21456, Note_on_c, 2, 60, 0
4, 21461, Note_on_c, 2, 56, 0
4, 21477, Note_on_c, 2, 56, 56
4, 21479, Note_on_c, 2, 60, 65
4, 21479, Note_on_c, 2, 67, 48
4, 21481, Note_on_c, 2, 62, 53
4, 21531, Note_on_c, 2, 67, 0
4, 21536, Note_on_c, 2, 56, 0
4, 21545, Note_on_c, 2, 60, 0
4, 21553, Note_on_c, 2, 62, 0
4, 21557, Note_on_c, 2, 56, 39
4, 21576, Note_on_c, 2, 56, 0
4, 21603, Note_on_c, 2, 58, 34
4, 21603, Note_on_c, 2, 55, 57
4, 21604, Note_on_c, 2, 63, 37
4, 21609, Note_on_c, 2, 60, 14
4, 21695, Note_on_c, 2, 55, 0
4, 21700, Note_on_c, 2, 60, 0
4, 21702, Note_on_c, 2, 63, 0
4, 21705, Note_on_c, 2, 58, 0
4, 21722, Note_on_c, 2, 58, 42
4, 21722, Note_on_c, 2, 55, 55
4, 21723, Note_on_c, 2, 63, 45
4, 21724, Note_on_c, 2, 60, 57
4, 21747, Note_on_c, 2, 55, 0
4, 21757, Note_on_c, 2, 60, 0
4, 21761, Note_on_c, 2, 58, 0
4, 21764, Note_on_c, 2, 63, 0
4, 21841, Note_on_c, 2, 63, 36
4, 21841, Note_on_c, 2, 58, 31
4, 21842, Note_on_c, 2, 55, 37
4, 21843, Note_on_c, 2, 60, 43
4, 21925, Note_on_c, 2, 55, 0
4, 21931, Note_on_c, 2, 58, 0
4, 21932, Note_on_c, 2, 60, 0
4, 21934, Note_on_c, 2, 63, 0
4, 21963, Note_on_c, 2, 58, 56
4, 21965, Note_on_c, 2, 63, 50
4, 21966, Note_on_c, 2, 55, 58
4, 21968, Note_on_c, 2, 60, 41
4, 21978, Note_on_c, 2, 60, 0
4, 21990, Note_on_c, 2, 55, 0
4, 22000, Note_on_c, 2, 58, 0
4, 22005, Note_on_c, 2, 63, 0
4, 22081, Note_on_c, 2, 67, 63
4, 22082, Note_on_c, 2, 58, 39
4, 22083, Note_on_c, 2, 60, 60
4, 22084, Note_on_c, 2, 63, 39
4, 22167, Note_on_c, 2, 63, 0
4, 22170, Note_on_c, 2, 60, 0
4, 22171, Note_on_c, 2, 58, 0
4, 22173, Note_on_c, 2, 67, 0
4, 22204, Note_on_c, 2, 58, 53
4, 22205, Note_on_c, 2, 67, 55
4, 22207, Note_on_c, 2, 60, 55
4, 22207, Note_on_c, 2, 63, 45
4, 22229, Note_on_c, 2, 60, 0
4, 22247, Note_on_c, 2, 67, 0
4, 22264, Note_on_c, 2, 63, 0
4, 22269, Note_on_c, 2, 58, 0
4, 22323, Note_on_c, 2, 66, 61
4, 22324, Note_on_c, 2, 61, 57
4, 22324, Note_on_c, 2, 62, 66
4, 22324, Note_on_c, 2, 57, 62
4, 22389, Note_on_c, 2, 57, 0
4, 22396, Note_on_c, 2, 62, 0
4, 22400, Note_on_c, 2, 66, 0
4, 22412, Note_on_c, 2, 61, 0
4, 22440, Note_on_c, 2, 66, 61
4, 22441, Note_on_c, 2, 61, 57
4, 22441, Note_on_c, 2, 62, 66
4, 22441, Note_on_c, 2, 57, 62
4, 22506, Note_on_c, 2, 57, 0
4, 22513, Note_on_c, 2, 62, 0
4, 22517, Note_on_c, 2, 66, 0
4, 22529, Note_on_c, 2, 61, 0
4, 22560, Note_on_c, 2, 56, 62
4, 22560, Note_on_c, 2, 61, 55
4, 22561, Note_on_c, 2, 65, 64
4, 22644, Note_on_c, 2, 65, 0
4, 22651, Note_on_c, 2, 56, 0
4, 22657, Note_on_c, 2, 61, 0
4, 22677, Note_on_c, 2, 56, 51
4, 22678, Note_on_c, 2, 65, 55
4, 22680, Note_on_c, 2, 61, 38
4, 22680, Note_on_c, 2, 60, 60
4, 22697, Note_on_c, 2, 56, 0
4, 22699, Note_on_c, 2, 60, 0
4, 22702, Note_on_c, 2, 65, 0
4, 22712, Note_on_c, 2, 61, 0
4, 22795, Note_on_c, 2, 56, 50
4, 22797, Note_on_c, 2, 65, 47
4, 22799, Note_on_c, 2, 61, 37
4, 22800, Note_on_c, 2, 60, 56
4, 22886, Note_on_c, 2, 65, 0
4, 22886, Note_on_c, 2, 56, 0
4, 22888, Note_on_c, 2, 60, 0
4, 22893, Note_on_c, 2, 61, 0
4, 22921, Note_on_c, 2, 56, 53
4, 22924, Note_on_c, 2, 65, 45
4, 22925, Note_on_c, 2, 61, 43
4, 22925, Note_on_c, 2, 60, 60
4, 22937, Note_on_c, 2, 65, 0
4, 22938, Note_on_c, 2, 60, 0
4, 22946, Note_on_c, 2, 56, 0
4, 22951, Note_on_c, 2, 61, 0
4, 23042, Note_on_c, 2, 55, 51
4, 23043, Note_on_c, 2, 65, 38
4, 23044, Note_on_c, 2, 61, 30
4, 23045, Note_on_c, 2, 60, 52
4, 23122, Note_on_c, 2, 65, 0
4, 23127, Note_on_c, 2, 55, 0
4, 23129, Note_on_c, 2, 60, 0
4, 23132, Note_on_c, 2, 61, 0
4, 23164, Note_on_c, 2, 55, 70
4, 23164, Note_on_c, 2, 65, 61
4, 23165, Note_on_c, 2, 61, 46
4, 23165, Note_on_c, 2, 60, 65
4, 23198, Note_on_c, 2, 65, 0
4, 23199, Note_on_c, 2, 55, 0
4, 23199, Note_on_c, 2, 60, 0
4, 23203, Note_on_c, 2, 61, 0
4, 23281, Note_on_c, 2, 64, 56
4, 23284, Note_on_c, 2, 58, 62
4, 23285, Note_on_c, 2, 55, 35
4, 23288, Note_on_c, 2, 61, 25
4, 23368, Note_on_c, 2, 55, 0
4, 23368, Note_on_c, 2, 58, 0
4, 23372, Note_on_c, 2, 64, 0
4, 23374, Note_on_c, 2, 61, 0
4, 23397, Note_on_c, 2, 64, 59
4, 23398, Note_on_c, 2, 61, 49
4, 23399, Note_on_c, 2, 55, 55
4, 23399, Note_on_c, 2, 58, 60
4, 23415, Note_on_c, 2, 55, 0
4, 23418, Note_on_c, 2, 58, 0
4, 23426, Note_on_c, 2, 64, 0
4, 23427, Note_on_c, 2, 61, 0
4, 23469, Note_on_c, 2, 55, 50
4, 23476, Note_on_c, 2, 55, 0
4, 23516, Note_on_c, 2, 55, 69
4, 23517, Note_on_c, 2, 58, 47
4, 23517, Note_on_c, 2, 60, 47
4, 23518, Note_on_c, 2, 63, 25
4, 23597, Note_on_c, 2, 63, 0
4, 23599, Note_on_c, 2, 55, 0
4, 23607, Note_on_c, 2, 60, 0
4, 23608, Note_on_c, 2, 58, 0
4, 23637, Note_on_c, 2, 63, 58
4, 23638, Note_on_c, 2, 58, 57
4, 23638, Note_on_c, 2, 55, 65
4, 23640, Note_on_c, 2, 60, 61
4, 23677, Note_on_c, 2, 55, 0
4, 23689, Note_on_c, 2, 60, 0
4, 23704, Note_on_c, 2, 63, 0
4, 23707, Note_on_c, 2, 58, 0
4, 23715, Note_on_c, 2, 55, 40
4, 23722, Note_on_c, 2, 55, 0
4, 23757, Note_on_c, 2, 56, 50
4, 23759, Note_on_c, 2, 66, 37
4, 23760, Note_on_c, 2, 60, 53
4, 23843, Note_on_c, 2, 56, 0
4, 23844, Note_on_c, 2, 60, 0
4, 23844, Note_on_c, 2, 66, 0
4, 23877, Note_on_c, 2, 56, 55
4, 23878, Note_on_c, 2, 63, 48
4, 23878, Note_on_c, 2, 65, 54
4, 23879, Note_on_c, 2, 60, 62
4, 23914, Note_on_c, 2, 60, 0
4, 23915, Note_on_c, 2, 56, 0
4, 23923, Note_on_c, 2, 63, 0
4, 23927, Note_on_c, 2, 65, 0
4, 23999, Note_on_c, 2, 56, 52
4, 24001, Note_on_c, 2, 67, 62
4, 24002, Note_on_c, 2, 60, 55
4, 24003, Note_on_c, 2, 63, 38
4, 24091, Note_on_c, 2, 63, 0
4, 24092, Note_on_c, 2, 60, 0
4, 24094, Note_on_c, 2, 67, 0
4, 24094, Note_on_c, 2, 56, 0
4, 24123, Note_on_c, 2, 56, 60
4, 24124, Note_on_c, 2, 67, 60
4, 24126, Note_on_c, 2, 60, 63
4, 24127, Note_on_c, 2, 63, 46
4, 24169, Note_on_c, 2, 60, 0
4, 24172, Note_on_c, 2, 56, 0
4, 24174, Note_on_c, 2, 67, 0
4, 24179, Note_on_c, 2, 63, 0
4, 24203, Note_on_c, 2, 56, 26
4, 24216, Note_on_c, 2, 56, 0
4, 24243, Note_on_c, 2, 56, 50
4, 24247, Note_on_c, 2, 63, 42
4, 24247, Note_on_c, 2, 65, 51
4, 24248, Note_on_c, 2, 60, 56
4, 24327, Note_on_c, 2, 60, 0
4, 24330, Note_on_c, 2, 65, 0
4, 24333, Note_on_c, 2, 63, 0
4, 24333, Note_on_c, 2, 56, 0
4, 24365, Note_on_c, 2, 56, 57
4, 24367, Note_on_c, 2, 60, 68
4, 24368, Note_on_c, 2, 63, 50
4, 24368, Note_on_c, 2, 65, 53
4, 24401, Note_on_c, 2, 60, 0
4, 24403, Note_on_c, 2, 56, 0
4, 24411, Note_on_c, 2, 63, 0
4, 24415, Note_on_c, 2, 65, 0
4, 24443, Note_on_c, 2, 56, 19
4, 24464, Note_on_c, 2, 56, 0
4, 24478, Note_on_c, 2, 56, 46
4, 24480, Note_on_c, 2, 63, 49
4, 24482, Note_on_c, 2, 59, 62
4, 24564, Note_on_c, 2, 59, 0
4, 24565, Note_on_c, 2, 56, 0
4, 24568, Note_on_c, 2, 63, 0
4, 24597, Note_on_c, 2, 56, 57
4, 24599, Note_on_c, 2, 63, 49
4, 24600, Note_on_c, 2, 59, 61
4, 24632, Note_on_c, 2, 56, 0
4, 24644, Note_on_c, 2, 59, 0
4, 24668, Note_on_c, 2, 63, 0
4, 24679, Note_on_c, 2, 56, 40
4, 24692, Note_on_c, 2, 56, 0
4, 24715, Note_on_c, 2, 56, 48
4, 24715, Note_on_c, 2, 65, 63
4, 24716, Note_on_c, 2, 59, 62
4, 24717, Note_on_c, 2, 63, 25
4, 24801, Note_on_c, 2, 65, 0
4, 24802, Note_on_c, 2, 56, 0
4, 24804, Note_on_c, 2, 59, 0
4, 24812, Note_on_c, 2, 63, 0
4, 24837, Note_on_c, 2, 56, 52
4, 24838, Note_on_c, 2, 65, 55
4, 24839, Note_on_c, 2, 59, 63
4, 24841, Note_on_c, 2, 63, 35
4, 24873, Note_on_c, 2, 56, 0
4, 24874, Note_on_c, 2, 65, 0
4, 24876, Note_on_c, 2, 59, 0
4, 24890, Note_on_c, 2, 63, 0
4, 24918, Note_on_c, 2, 56, 18
4, 24930, Note_on_c, 2, 56, 0
4, 24960, Note_on_c, 2, 56, 42
4, 24960, Note_on_c, 2, 66, 44
4, 24961, Note_on_c, 2, 63, 48
4, 24962, Note_on_c, 2, 59, 61
4, 25048, Note_on_c, 2, 59, 0
4, 25050, Note_on_c, 2, 63, 0
4, 25050, Note_on_c, 2, 56, 0
4, 25053, Note_on_c, 2, 66, 0
4, 25081, Note_on_c, 2, 66, 53
4, 25081, Note_on_c, 2, 56, 61
4, 25083, Note_on_c, 2, 59, 64
4, 25085, Note_on_c, 2, 63, 43
4, 25116, Note_on_c, 2, 56, 0
4, 25124, Note_on_c, 2, 59, 0
4, 25129, Note_on_c, 2, 66, 0
4, 25132, Note_on_c, 2, 63, 0
4, 25201, Note_on_c, 2, 53, 57
4, 25202, Note_on_c, 2, 63, 40
4, 25203, Note_on_c, 2, 59, 55
4, 25203, Note_on_c, 2, 58, 47
4, 25297, Note_on_c, 2, 63, 0
4, 25297, Note_on_c, 2, 53, 0
4, 25299, Note_on_c, 2, 59, 0
4, 25301, Note_on_c, 2, 58, 0
4, 25321, Note_on_c, 2, 58, 53
4, 25321, Note_on_c, 2, 53, 60
4, 25322, Note_on_c, 2, 63, 48
4, 25323, Note_on_c, 2, 59, 56
4, 25371, Note_on_c, 2, 53, 0
4, 25386, Note_on_c, 2, 59, 0
4, 25398, Note_on_c, 2, 53, 47
4, 25419, Note_on_c, 2, 53, 0
4, 25419, Note_on_c, 2, 63, 0
4, 25425, Note_on_c, 2, 58, 0
4, 25439, Note_on_c, 2, 55, 63
4, 25441, Note_on_c, 2, 60, 53
4, 25442, Note_on_c, 2, 58, 33
4, 25442, Note_on_c, 2, 63, 35
4, 25504, Note_on_c, 2, 63, 0
4, 25521, Note_on_c, 2, 55, 0
4, 25522, Note_on_c, 2, 60, 0
4, 25525, Note_on_c, 2, 58, 0
4, 25558, Note_on_c, 2, 58, 44
4, 25559, Note_on_c, 2, 63, 39
4, 25559, Note_on_c, 2, 55, 51
4, 25559, Note_on_c, 2, 60, 53
4, 25595, Note_on_c, 2, 55, 0
4, 25597, Note_on_c, 2, 60, 0
4, 25601, Note_on_c, 2, 58, 0
4, 25605, Note_on_c, 2, 63, 0
4, 25637, Note_on_c, 2, 55, 32
4, 25643, Note_on_c, 2, 55, 0
4, 25678, Note_on_c, 2, 55, 39
4, 25678, Note_on_c, 2, 63, 34
4, 25679, Note_on_c, 2, 58, 47
4, 25681, Note_on_c, 2, 60, 54
4, 25767, Note_on_c, 2, 55, 0
4, 25771, Note_on_c, 2, 58, 0
4, 25772, Note_on_c, 2, 60, 0
4, 25774, Note_on_c, 2, 63, 0
4, 25800, Note_on_c, 2, 58, 74
4, 25800, Note_on_c, 2, 63, 65
4, 25801, Note_on_c, 2, 55, 77
4, 25802, Note_on_c, 2, 60, 72
4, 25825, Note_on_c, 2, 55, 0
4, 25830, Note_on_c, 2, 60, 0
4, 25837, Note_on_c, 2, 58, 0
4, 25846, Note_on_c, 2, 63, 0
4, 25879, Note_on_c, 2, 55, 38
4, 25890, Note_on_c, 2, 55, 0
4, 25918, Note_on_c, 2, 58, 73
4, 25918, Note_on_c, 2, 67, 69
4, 25920, Note_on_c, 2, 62, 66
4, 25921, Note_on_c, 2, 63, 43
4, 26012, Note_on_c, 2, 67, 0
4, 26016, Note_on_c, 2, 58, 0
4, 26018, Note_on_c, 2, 62, 0
4, 26029, Note_on_c, 2, 63, 0
4, 26038, Note_on_c, 2, 58, 70
4, 26039, Note_on_c, 2, 62, 71
4, 26039, Note_on_c, 2, 67, 66
4, 26041, Note_on_c, 2, 63, 31
4, 26060, Note_on_c, 2, 58, 0
4, 26063, Note_on_c, 2, 67, 0
4, 26068, Note_on_c, 2, 62, 0
4, 26090, Note_on_c, 2, 63, 0
4, 26160, Note_on_c, 2, 58, 51
4, 26161, Note_on_c, 2, 67, 56
4, 26163, Note_on_c, 2, 62, 59
4, 26164, Note_on_c, 2, 63, 34
4, 26246, Note_on_c, 2, 67, 0
4, 26246, Note_on_c, 2, 58, 0
4, 26250, Note_on_c, 2, 62, 0
4, 26255, Note_on_c, 2, 63, 0
4, 26278, Note_on_c, 2, 58, 64
4, 26280, Note_on_c, 2, 62, 68
4, 26280, Note_on_c, 2, 67, 55
4, 26281, Note_on_c, 2, 63, 37
4, 26305, Note_on_c, 2, 67, 0
4, 26307, Note_on_c, 2, 62, 0
4, 26314, Note_on_c, 2, 58, 0
4, 26341, Note_on_c, 2, 63, 0
4, 26361, Note_on_c, 2, 58, 37
4, 26382, Note_on_c, 2, 58, 0
4, 26400, Note_on_c, 2, 63, 36
4, 26401, Note_on_c, 2, 62, 63
4, 26401, Note_on_c, 2, 67, 53
4, 26402, Note_on_c, 2, 57, 49
4, 26477, Note_on_c, 2, 67, 0
4, 26479, Note_on_c, 2, 57, 0
4, 26481, Note_on_c, 2, 62, 0
4, 26487, Note_on_c, 2, 63, 0
4, 26521, Note_on_c, 2, 57, 57
4, 26521, Note_on_c, 2, 63, 46
4, 26522, Note_on_c, 2, 62, 64
4, 26522, Note_on_c, 2, 67, 54
4, 26560, Note_on_c, 2, 62, 0
4, 26563, Note_on_c, 2, 57, 0
4, 26567, Note_on_c, 2, 67, 0
4, 26573, Note_on_c, 2, 63, 0
4, 26640, Note_on_c, 2, 67, 56
4, 26641, Note_on_c, 2, 57, 50
4, 26642, Note_on_c, 2, 63, 27
4, 26642, Note_on_c, 2, 60, 63
4, 26716, Note_on_c, 2, 57, 0
4, 26723, Note_on_c, 2, 67, 0
4, 26724, Note_on_c, 2, 60, 0
4, 26726, Note_on_c, 2, 63, 0
4, 26764, Note_on_c, 2, 67, 56
4, 26765, Note_on_c, 2, 60, 64
4, 26765, Note_on_c, 2, 63, 45
4, 26765, Note_on_c, 2, 57, 53
4, 26793, Note_on_c, 2, 57, 0
4, 26806, Note_on_c, 2, 60, 0
4, 26814, Note_on_c, 2, 67, 0
4, 26820, Note_on_c, 2, 63, 0
4, 26878, Note_on_c, 2, 67, 76
4, 26878, Note_on_c, 2, 58, 72
4, 26878, Note_on_c, 2, 60, 79
4, 26879, Note_on_c, 2, 63, 53
4, 26906, Note_on_c, 2, 67, 0
4, 26907, Note_on_c, 2, 60, 0
4, 26912, Note_on_c, 2, 58, 0
4, 26912, Note_on_c, 2, 63, 0
4, 27359, Note_on_c, 2, 63, 23
4, 27360, Note_on_c, 2, 60, 35
4, 27361, Note_on_c, 2, 58, 25
4, 27363, Note_on_c, 2, 55, 22
4, 27448, Note_on_c, 2, 55, 0
4, 27455, Note_on_c, 2, 63, 0
4, 27455, Note_on_c, 2, 60, 0
4, 27463, Note_on_c, 2, 58, 0
4, 27478, Note_on_c, 2, 58, 59
4, 27478, Note_on_c, 2, 63, 63
4, 27479, Note_on_c, 2, 60, 62
4, 27480, Note_on_c, 2, 55, 70
4, 27497, Note_on_c, 2, 55, 0
4, 27509, Note_on_c, 2, 60, 0
4, 27510, Note_on_c, 2, 58, 0
4, 27517, Note_on_c, 2, 63, 0
4, 27596, Note_on_c, 2, 63, 30
4, 27597, Note_on_c, 2, 58, 35
4, 27599, Note_on_c, 2, 55, 35
4, 27601, Note_on_c, 2, 60, 36
4, 27680, Note_on_c, 2, 60, 0
4, 27683, Note_on_c, 2, 55, 0
4, 27687, Note_on_c, 2, 63, 0
4, 27689, Note_on_c, 2, 58, 0
4, 27712, Note_on_c, 2, 63, 56
4, 27713, Note_on_c, 2, 58, 56
4, 27714, Note_on_c, 2, 55, 62
4, 27715, Note_on_c, 2, 60, 60
4, 27731, Note_on_c, 2, 55, 0
4, 27741, Note_on_c, 2, 60, 0
4, 27752, Note_on_c, 2, 63, 0
4, 27754, Note_on_c, 2, 58, 0
4, 27834, Note_on_c, 2, 55, 41
4, 27835, Note_on_c, 2, 63, 25
4, 27836, Note_on_c, 2, 58, 30
4, 27839, Note_on_c, 2, 60, 20
4, 27912, Note_on_c, 2, 55, 0
4, 27917, Note_on_c, 2, 60, 0
4, 27922, Note_on_c, 2, 58, 0
4, 27923, Note_on_c, 2, 63, 0
4, 27954, Note_on_c, 2, 60, 60
4, 27954, Note_on_c, 2, 63, 38
4, 27954, Note_on_c, 2, 58, 46
4, 27955, Note_on_c, 2, 55, 55
4, 27986, Note_on_c, 2, 55, 0
4, 27986, Note_on_c, 2, 60, 0
4, 27992, Note_on_c, 2, 58, 0
4, 27998, Note_on_c, 2, 63, 0
4, 28028, Note_on_c, 2, 55, 26
4, 28035, Note_on_c, 2, 55, 0
4, 28074, Note_on_c, 2, 58, 64
4, 28074, Note_on_c, 2, 67, 68
4, 28076, Note_on_c, 2, 62, 69
4, 28078, Note_on_c, 2, 63, 46
4, 28175, Note_on_c, 2, 67, 0
4, 28176, Note_on_c, 2, 62, 0
4, 28182, Note_on_c, 2, 58, 0
4, 28185, Note_on_c, 2, 63, 0
4, 28198, Note_on_c, 2, 58, 61
4, 28200, Note_on_c, 2, 62, 71
4, 28200, Note_on_c, 2, 63, 38
4, 28200, Note_on_c, 2, 67, 60
4, 28214, Note_on_c, 2, 67, 0
4, 28220, Note_on_c, 2, 62, 0
4, 28223, Note_on_c, 2, 58, 0
4, 28227, Note_on_c, 2, 63, 0
4, 28275, Note_on_c, 2, 58, 37
4, 28292, Note_on_c, 2, 58, 0
4, 28312, Note_on_c, 2, 56, 49
4, 28313, Note_on_c, 2, 67, 53
4, 28316, Note_on_c, 2, 60, 60
4, 28319, Note_on_c, 2, 63, 29
4, 28407, Note_on_c, 2, 67, 0
4, 28410, Note_on_c, 2, 56, 0
4, 28411, Note_on_c, 2, 60, 0
4, 28413, Note_on_c, 2, 63, 0
4, 28435, Note_on_c, 2, 56, 59
4, 28435, Note_on_c, 2, 67, 64
4, 28437, Note_on_c, 2, 60, 66
4, 28438, Note_on_c, 2, 63, 42
4, 28454, Note_on_c, 2, 56, 0
4, 28456, Note_on_c, 2, 67, 0
4, 28456, Note_on_c, 2, 60, 0
4, 28460, Note_on_c, 2, 63, 0
4, 28557, Note_on_c, 2, 56, 54
4, 28560, Note_on_c, 2, 67, 51
4, 28560, Note_on_c, 2, 60, 62
4, 28563, Note_on_c, 2, 62, 50
4, 28658, Note_on_c, 2, 67, 0
4, 28662, Note_on_c, 2, 56, 0
4, 28663, Note_on_c, 2, 62, 0
4, 28664, Note_on_c, 2, 60, 0
4, 28679, Note_on_c, 2, 56, 62
4, 28680, Note_on_c, 2, 67, 55
4, 28680, Note_on_c, 2, 60, 64
4, 28681, Note_on_c, 2, 62, 70
4, 28691, Note_on_c, 2, 56, 0
4, 28696, Note_on_c, 2, 67, 0
4, 28699, Note_on_c, 2, 60, 0
4, 28699, Note_on_c, 2, 62, 0
4, 28756, Note_on_c, 2, 56, 18
4, 28769, Note_on_c, 2, 56, 0
4, 28793, Note_on_c, 2, 56, 42
4, 28794, Note_on_c, 2, 67, 49
4, 28795, Note_on_c, 2, 63, 37
4, 28796, Note_on_c, 2, 60, 61
4, 28895, Note_on_c, 2, 67, 0
4, 28898, Note_on_c, 2, 56, 0
4, 28898, Note_on_c, 2, 60, 0
4, 28901, Note_on_c, 2, 63, 0
4, 28911, Note_on_c, 2, 56, 48
4, 28911, Note_on_c, 2, 67, 54
4, 28913, Note_on_c, 2, 60, 60
4, 28913, Note_on_c, 2, 63, 49
4, 28958, Note_on_c, 2, 60, 0
4, 28958, Note_on_c, 2, 67, 0
4, 28965, Note_on_c, 2, 56, 0
4, 28977, Note_on_c, 2, 63, 0
4, 29034, Note_on_c, 2, 56, 35
4, 29035, Note_on_c, 2, 67, 49
4, 29037, Note_on_c, 2, 60, 50
4, 29039, Note_on_c, 2, 62, 49
4, 29131, Note_on_c, 2, 62, 0
4, 29131, Note_on_c, 2, 67, 0
4, 29132, Note_on_c, 2, 60, 0
4, 29137, Note_on_c, 2, 56, 0
4, 29153, Note_on_c, 2, 56, 56
4, 29155, Note_on_c, 2, 60, 65
4, 29155, Note_on_c, 2, 67, 48
4, 29157, Note_on_c, 2, 62, 53
4, 29207, Note_on_c, 2, 67, 0
4, 29212, Note_on_c, 2, 56, 0
4, 29221, Note_on_c, 2, 60, 0
4, 29229, Note_on_c, 2, 62, 0
4, 29233, Note_on_c, 2, 56, 39
4, 29252, Note_on_c, 2, 56, 0
4, 29279, Note_on_c, 2, 58, 34
4, 29279, Note_on_c, 2, 55, 57
4, 29280, Note_on_c, 2, 63, 37
4, 29285, Note_on_c, 2, 60, 14
4, 29371, Note_on_c, 2, 55, 0
4, 29376, Note_on_c, 2, 60, 0
4, 29378, Note_on_c, 2, 63, 0
4, 29381, Note_on_c, 2, 58, 0
4, 29398, Note_on_c, 2, 58, 42
4, 29398, Note_on_c, 2, 55, 55
4, 29399, Note_on_c, 2, 63, 45
4, 29400, Note_on_c, 2, 60, 57
4, 29423, Note_on_c, 2, 55, 0
4, 29433, Note_on_c, 2, 60, 0
4, 29437, Note_on_c, 2, 58, 0
4, 29440, Note_on_c, 2, 63, 0
4, 29517, Note_on_c, 2, 63, 36
4, 29517, Note_on_c, 2, 58, 31
4, 29518, Note_on_c, 2, 55, 37
4, 29519, Note_on_c, 2, 60, 43
4, 29601, Note_on_c, 2, 55, 0
4, 29607, Note_on_c, 2, 58, 0
4, 29608, Note_on_c, 2, 60, 0
4, 29610, Note_on_c, 2, 63, 0
4, 29639, Note_on_c, 2, 58, 56
4, 29641, Note_on_c, 2, 63, 50
4, 29642, Note_on_c, 2, 55, 58
4, 29644, Note_on_c, 2, 60, 41
4, 29654, Note_on_c, 2, 60, 0
4, 29666, Note_on_c, 2, 55, 0
4, 29676, Note_on_c, 2, 58, 0
4, 29681, Note_on_c, 2, 63, 0
4, 29757, Note_on_c, 2, 67, 63
4, 29758, Note_on_c, 2, 58, 39
4, 29759, Note_on_c, 2, 60, 60
4, 29760, Note_on_c, 2, 63, 39
4, 29843, Note_on_c, 2, 63, 0
4, 29846, Note_on_c, 2, 60, 0
4, 29847, Note_on_c, 2, 58, 0
4, 29849, Note_on_c, 2, 67, 0
4, 29880, Note_on_c, 2, 58, 53
4, 29881, Note_on_c, 2, 67, 55
4, 29883, Note_on_c, 2, 60, 55
4, 29883, Note_on_c, 2, 63, 45
4, 29905, Note_on_c, 2, 60, 0
4, 29923, Note_on_c, 2, 67, 0
4, 29940, Note_on_c, 2, 63, 0
4, 29945, Note_on_c, 2, 58, 0
4, 29999, Note_on_c, 2, 66, 61
4, 30000, Note_on_c, 2, 61, 57
4, 30000, Note_on_c, 2, 62, 66
4, 30000, Note_on_c, 2, 57, 62
4, 30065, Note_on_c, 2, 57, 0
4, 30072, Note_on_c, 2, 62, 0
4, 30076, Note_on_c, 2, 66, 0
4, 30088, Note_on_c, 2, 61, 0
4, 30236, Note_on_c, 2, 56, 62
4, 30236, Note_on_c, 2, 61, 55
4, 30237, Note_on_c, 2, 65, 64
4, 30320, Note_on_c, 2, 65, 0
4, 30327, Note_on_c, 2, 56, 0
4, 30333, Note_on_c, 2, 61, 0
4, 30353, Note_on_c, 2, 56, 51
4, 30354, Note_on_c, 2, 65, 55
4, 30356, Note_on_c, 2, 61, 38
4, 30356, Note_on_c, 2, 60, 60
4, 30373, Note_on_c, 2, 56, 0
4, 30375, Note_on_c, 2, 60, 0
4, 30378, Note_on_c, 2, 65, 0
4, 30388, Note_on_c, 2, 61, 0
4, 30471, Note_on_c, 2, 56, 50
4, 30473, Note_on_c, 2, 65, 47
4, 30475, Note_on_c, 2, 61, 37
4, 30476, Note_on_c, 2, 60, 56
4, 30562, Note_on_c, 2, 65, 0
4, 30562, Note_on_c, 2, 56, 0
4, 30564, Note_on_c, 2, 60, 0
4, 30569, Note_on_c, 2, 61, 0
4, 30597, Note_on_c, 2, 56, 53
4, 30600, Note_on_c, 2, 65, 45
4, 30601, Note_on_c, 2, 61, 43
4, 30601, Note_on_c, 2, 60, 60
4, 30613, Note_on_c, 2, 65, 0
4, 30614, Note_on_c, 2, 60, 0
4, 30622, Note_on_c, 2, 56, 0
4, 30627, Note_on_c, 2, 61, 0
4, 30718, Note_on_c, 2, 55, 51
4, 30719, Note_on_c, 2, 65, 38
4, 30720, Note_on_c, 2, 61, 30
4, 30721, Note_on_c, 2, 60, 52
4, 30798, Note_on_c, 2, 65, 0
4, 30803, Note_on_c, 2, 55, 0
4, 30805, Note_on_c, 2, 60, 0
4, 30808, Note_on_c, 2, 61, 0
4, 30840, Note_on_c, 2, 55, 70
4, 30840, Note_on_c, 2, 65, 61
4, 30841, Note_on_c, 2, 61, 46
4, 30841, Note_on_c, 2, 60, 65
4, 30874, Note_on_c, 2, 65, 0
4, 30875, Note_on_c, 2, 55, 0
4, 30875, Note_on_c, 2, 60, 0
4, 30879, Note_on_c, 2, 61, 0
4, 30957, Note_on_c, 2, 64, 56
4, 30960, Note_on_c, 2, 58, 62
4, 30961, Note_on_c, 2, 55, 35
4, 30964, Note_on_c, 2, 61, 25
4, 31044, Note_on_c, 2, 55, 0
4, 31044, Note_on_c, 2, 58, 0
4, 31048, Note_on_c, 2, 64, 0
4, 31050, Note_on_c, 2, 61, 0
4, 31073, Note_on_c, 2, 64, 59
4, 31074, Note_on_c, 2, 61, 49
4, 31075, Note_on_c, 2, 55, 55
4, 31075, Note_on_c, 2, 58, 60
4, 31091, Note_on_c, 2, 55, 0
4, 31094, Note_on_c, 2, 58, 0
4, 31102, Note_on_c, 2, 64, 0
4, 31103, Note_on_c, 2, 61, 0
4, 31145, Note_on_c, 2, 55, 50
4, 31152, Note_on_c, 2, 55, 0
4, 31192, Note_on_c, 2, 55, 69
4, 31193, Note_on_c, 2, 58, 47
4, 31193, Note_on_c, 2, 60, 47
4, 31194, Note_on_c, 2, 63, 25
4, 31273, Note_on_c, 2, 63, 0
4, 31275, Note_on_c, 2, 55, 0
4, 31283, Note_on_c, 2, 60, 0
4, 31284, Note_on_c, 2, 58, 0
4, 31313, Note_on_c, 2, 63, 58
4, 31314, Note_on_c, 2, 58, 57
4, 31314, Note_on_c, 2, 55, 65
4, 31316, Note_on_c, 2, 60, 61
4, 31353, Note_on_c, 2, 55, 0
4, 31365, Note_on_c, 2, 60, 0
4, 31380, Note_on_c, 2, 63, 0
4, 31383, Note_on_c, 2, 58, 0
4, 31391, Note_on_c, 2, 55, 40
4, 31398, Note_on_c, 2, 55, 0
4, 31433, Note_on_c, 2, 56, 50
4, 31435, Note_on_c, 2, 66, 37
4, 31436, Note_on_c, 2, 60, 53
4, 31519, Note_on_c, 2, 56, 0
4, 31520, Note_on_c, 2, 60, 0
4, 31520, Note_on_c, 2, 66, 0
4, 31553, Note_on_c, 2, 56, 55
4, 31554, Note_on_c, 2, 63, 48
4, 31554, Note_on_c, 2, 65, 54
4, 31555, Note_on_c, 2, 60, 62
4, 31590, Note_on_c, 2, 60, 0
4, 31591, Note_on_c, 2, 56, 0
4, 31599, Note_on_c, 2, 63, 0
4, 31603, Note_on_c, 2, 65, 0
4, 31675, Note_on_c, 2, 56, 52
4, 31677, Note_on_c, 2, 67, 62
4, 31678, Note_on_c, 2, 60, 55
4, 31679, Note_on_c, 2, 63, 38
4, 31767, Note_on_c, 2, 63, 0
4, 31768, Note_on_c, 2, 60, 0
4, 31770, Note_on_c, 2, 67, 0
4, 31770, Note_on_c, 2, 56, 0
4, 31799, Note_on_c, 2, 56, 60
4, 31800, Note_on_c, 2, 67, 60
4, 31802, Note_on_c, 2, 60, 63
4, 31803, Note_on_c, 2, 63, 46
4, 31845, Note_on_c, 2, 60, 0
4, 31848, Note_on_c, 2, 56, 0
4, 31850, Note_on_c, 2, 67, 0
4, 31855, Note_on_c, 2, 63, 0
4, 31879, Note_on_c, 2, 56, 26
4, 31892, Note_on_c, 2, 56, 0
4, 31919, Note_on_c, 2, 56, 50
4, 31923, Note_on_c, 2, 63, 42
4, 31923, Note_on_c, 2, 65, 51
4, 31924, Note_on_c, 2, 60, 56
4, 32003, Note_on_c, 2, 60, 0
4, 32006, Note_on_c, 2, 65, 0
4, 32009, Note_on_c, 2, 63, 0
4, 32009, Note_on_c, 2, 56, 0
4, 32041, Note_on_c, 2, 56, 57
4, 32043, Note_on_c, 2, 60, 68
4, 32044, Note_on_c, 2, 63, 50
4, 32044, Note_on_c, 2, 65, 53
4, 32077, Note_on_c, 2, 60, 0
4, 32079, Note_on_c, 2, 56, 0
4, 32087, Note_on_c, 2, 63, 0
4, 32091, Note_on_c, 2, 65, 0
4, 32119, Note_on_c, 2, 56, 19
4, 32140, Note_on_c, 2, 56, 0
4, 32169, Note_on_c, 2, 58, 45
4, 32170, Note_on_c, 2, 67, 55
4, 32174, Note_on_c, 2, 63, 31
4, 32248, Note_on_c, 2, 67, 0
4, 32257, Note_on_c, 2, 58, 0
4, 32258, Note_on_c, 2, 63, 0
4, 32288, Note_on_c, 2, 58, 52
4, 32288, Note_on_c, 2, 67, 57
4, 32289, Note_on_c, 2, 63, 44
4, 32291, Note_on_c, 2, 62, 59
4, 32348, Note_on_c, 2, 62, 0
4, 32355, Note_on_c, 2, 67, 0
4, 32363, Note_on_c, 2, 63, 0
4, 32364, Note_on_c, 2, 58, 0
4, 32402, Note_on_c, 2, 67, 52
4, 32402, Note_on_c, 2, 63, 44
4, 32403, Note_on_c, 2, 57, 37
4, 32469, Note_on_c, 2, 57, 0
4, 32474, Note_on_c, 2, 67, 0
4, 32476, Note_on_c, 2, 63, 0
4, 32515, Note_on_c, 2, 63, 62
4, 32515, Note_on_c, 2, 57, 76
4, 32515, Note_on_c, 2, 67, 70
4, 32550, Note_on_c, 2, 67, 0
4, 32560, Note_on_c, 2, 63, 0
4, 32562, Note_on_c, 2, 57, 0
4, 32638, Note_on_c, 2, 56, 44
4, 32638, Note_on_c, 2, 67, 53
4, 32642, Note_on_c, 2, 60, 54
4, 32643, Note_on_c, 2, 63, 32
4, 32705, Note_on_c, 2, 60, 0
4, 32711, Note_on_c, 2, 63, 0
4, 32713, Note_on_c, 2, 56, 0
4, 32715, Note_on_c, 2, 67, 0
4, 32761, Note_on_c, 2, 56, 70
4, 32762, Note_on_c, 2, 67, 71
4, 32763, Note_on_c, 2, 60, 70
4, 32764, Note_on_c, 2, 63, 48
4, 32818, Note_on_c, 2, 60, 0
4, 32820, Note_on_c, 2, 67, 0
4, 32823, Note_on_c, 2, 56, 0
4, 32829, Note_on_c, 2, 63, 0
4, 32880, Note_on_c, 2, 56, 45
4, 32883, Note_on_c, 2, 65, 51
4, 32884, Note_on_c, 2, 60, 53
4, 32884, Note_on_c, 2, 62, 55
4, 32957, Note_on_c, 2, 56, 0
4, 32963, Note_on_c, 2, 60, 0
4, 32965, Note_on_c, 2, 62, 0
4, 32966, Note_on_c, 2, 65, 0
4, 33001, Note_on_c, 2, 56, 71
4, 33002, Note_on_c, 2, 65, 64
4, 33003, Note_on_c, 2, 60, 74
4, 33003, Note_on_c, 2, 62, 73
4, 33047, Note_on_c, 2, 56, 0
4, 33060, Note_on_c, 2, 65, 0
4, 33066, Note_on_c, 2, 60, 0
4, 33070, Note_on_c, 2, 62, 0
4, 33082, Note_on_c, 2, 56, 46
4, 33093, Note_on_c, 2, 56, 0
4, 33114, Note_on_c, 2, 63, 51
4, 33116, Note_on_c, 2, 55, 62
4, 33118, Note_on_c, 2, 58, 42
4, 33119, Note_on_c, 2, 60, 35
4, 33182, Note_on_c, 2, 63, 0
4, 33202, Note_on_c, 2, 55, 0
4, 33203, Note_on_c, 2, 60, 0
4, 33212, Note_on_c, 2, 58, 0
4, 33240, Note_on_c, 2, 63, 54
4, 33240, Note_on_c, 2, 58, 59
4, 33242, Note_on_c, 2, 60, 66
4, 33242, Note_on_c, 2, 55, 66
4, 33264, Note_on_c, 2, 55, 0
4, 33273, Note_on_c, 2, 60, 0
4, 33273, Note_on_c, 2, 58, 0
4, 33281, Note_on_c, 2, 63, 0
4, 33351, Note_on_c, 2, 63, 31
4, 33355, Note_on_c, 2, 58, 31
4, 33356, Note_on_c, 2, 55, 26
4, 33356, Note_on_c, 2, 60, 37
4, 33427, Note_on_c, 2, 55, 0
4, 33429, Note_on_c, 2, 58, 0
4, 33431, Note_on_c, 2, 63, 0
4, 33431, Note_on_c, 2, 60, 0
4, 33475, Note_on_c, 2, 58, 73
4, 33475, Note_on_c, 2, 63, 68
4, 33475, Note_on_c, 2, 55, 80
4, 33476, Note_on_c, 2, 60, 70
4, 33513, Note_on_c, 2, 60, 0
4, 33516, Note_on_c, 2, 55, 0
4, 33520, Note_on_c, 2, 58, 0
4, 33526, Note_on_c, 2, 63, 0
4, 33600, Note_on_c, 2, 61, 50
4, 33601, Note_on_c, 2, 53, 48
4, 33601, Note_on_c, 2, 58, 50
4, 33686, Note_on_c, 2, 53, 0
4, 33689, Note_on_c, 2, 61, 0
4, 33691, Note_on_c, 2, 58, 0
4, 33719, Note_on_c, 2, 61, 80
4, 33720, Note_on_c, 2, 58, 79
4, 33721, Note_on_c, 2, 53, 80
4, 33765, Note_on_c, 2, 53, 0
4, 33769, Note_on_c, 2, 58, 0
4, 33775, Note_on_c, 2, 61, 0
4, 33840, Note_on_c, 2, 52, 46
4, 33840, Note_on_c, 2, 58, 38
4, 33842, Note_on_c, 2, 60, 50
4, 33922, Note_on_c, 2, 52, 0
4, 33923, Note_on_c, 2, 60, 0
4, 33930, Note_on_c, 2, 58, 0
4, 33955, Note_on_c, 2, 58, 71
4, 33956, Note_on_c, 2, 52, 64
4, 33956, Note_on_c, 2, 60, 73
4, 33980, Note_on_c, 2, 52, 0
4, 33990, Note_on_c, 2, 60, 0
4, 33999, Note_on_c, 2, 58, 0
4, 34077, Note_on_c, 2, 63, 38
4, 34077, Note_on_c, 2, 57, 50
4, 34078, Note_on_c, 2, 62, 60
4, 34167, Note_on_c, 2, 57, 0
4, 34169, Note_on_c, 2, 62, 0
4, 34171, Note_on_c, 2, 63, 0
4, 34171, End_track
5, 0, Start_track
5, 0, Title_t, "Mute Trumpet"
5, 0, Program_c, 3, 59
5, 0, Control_c, 3, 7, 127
5, 361, Note_on_c, 3, 75, 127
5, 384, Note_on_c, 3, 75, 0
5, 390, Note_on_c, 3, 73, 93
5, 402, Note_on_c, 3, 73, 0
5, 431, Note_on_c, 3, 75, 127
5, 468, Note_on_c, 3, 75, 0
5, 841, Note_on_c, 3, 75, 127
5, 870, Note_on_c, 3, 75, 0
5, 870, Note_on_c, 3, 73, 75
5, 891, Note_on_c, 3, 73, 0
5, 911, Note_on_c, 3, 75, 127
5, 950, Note_on_c, 3, 75, 0
5, 1318, Note_on_c, 3, 75, 127
5, 1348, Note_on_c, 3, 75, 0
5, 1350, Note_on_c, 3, 73, 127
5, 1372, Note_on_c, 3, 73, 0
5, 1391, Note_on_c, 3, 75, 127
5, 1434, Note_on_c, 3, 75, 0
5, 1801, Note_on_c, 3, 75, 127
5, 1829, Note_on_c, 3, 75, 0
5, 1835, Note_on_c, 3, 73, 76
5, 1861, Note_on_c, 3, 73, 0
5, 1872, Note_on_c, 3, 75, 127
5, 1909, Note_on_c, 3, 75, 0
5, 5637, Note_on_c, 3, 65, 114
5, 5696, Note_on_c, 3, 65, 0
5, 5759, Note_on_c, 3, 65, 123
5, 5835, Note_on_c, 3, 67, 108
5, 5837, Note_on_c, 3, 65, 0
5, 5874, Note_on_c, 3, 67, 0
5, 5882, Note_on_c, 3, 63, 96
5, 5956, Note_on_c, 3, 63, 0
5, 5957, Note_on_c, 3, 65, 98
5, 6203, Note_on_c, 3, 65, 0
5, 13313, Note_on_c, 3, 65, 114
5, 13372, Note_on_c, 3, 65, 0
5, 13435, Note_on_c, 3, 65, 123
5, 13511, Note_on_c, 3, 67, 108
5, 13513, Note_on_c, 3, 65, 0
5, 13550, Note_on_c, 3, 67, 0
5, 13558, Note_on_c, 3, 63, 96
5, 13632, Note_on_c, 3, 63, 0
5, 13633, Note_on_c, 3, 65, 98
5, 13879, Note_on_c, 3, 65, 0
5, 17641, Note_on_c, 3, 75, 127
5, 17664, Note_on_c, 3, 75, 0
5, 17670, Note_on_c, 3, 73, 93
5, 17682, Note_on_c, 3, 73, 0
5, 17711, Note_on_c, 3, 75, 127
5, 17748, Note_on_c, 3, 75, 0
5, 18121, Note_on_c, 3, 75, 127
5, 18150, Note_on_c, 3, 75, 0
5, 18150, Note_on_c, 3, 73, 75
5, 18171, Note_on_c, 3, 73, 0
5, 18191, Note_on_c, 3, 75, 127
5, 18230, Note_on_c, 3, 75, 0
5, 18598, Note_on_c, 3, 75, 127
5, 18628, Note_on_c, 3, 75, 0
5, 18630, Note_on_c, 3, 73, 127
5, 18652, Note_on_c, 3, 73, 0
5, 18671, Note_on_c, 3, 75, 127
5, 18714, Note_on_c, 3, 75, 0
5, 19081, Note_on_c, 3, 75, 127
5, 19109, Note_on_c, 3, 75, 0
5, 19115, Note_on_c, 3, 73, 76
5, 19141, Note_on_c, 3, 73, 0
5, 19152, Note_on_c, 3, 75, 127
5, 19189, Note_on_c, 3, 75, 0
5, 22917, Note_on_c, 3, 65, 114
5, 22976, Note_on_c, 3, 65, 0
5, 23039, Note_on_c, 3, 65, 123
5, 23115, Note_on_c, 3, 67, 108
5, 23117, Note_on_c, 3, 65, 0
5, 23154, Note_on_c, 3, 67, 0
5, 23162, Note_on_c, 3, 63, 96
5, 23236, Note_on_c, 3, 63, 0
5, 23237, Note_on_c, 3, 65, 98
5, 23483, Note_on_c, 3, 65, 0
5, 30593, Note_on_c, 3, 65, 114
5, 30652, Note_on_c, 3, 65, 0
5, 30715, Note_on_c, 3, 65, 123
5, 30791, Note_on_c, 3, 67, 108
5, 30793, Note_on_c, 3, 65, 0
5, 30830, Note_on_c, 3, 67, 0
5, 30838, Note_on_c, 3, 63, 96
5, 30912, Note_on_c, 3, 63, 0
5, 30913, Note_on_c, 3, 65, 98
5, 31159, Note_on_c, 3, 65, 0
5, 34166, Note_on_c, 3, 72, 91
5, 34207, Note_on_c, 3, 72, 0
5, 34212, Note_on_c, 3, 75, 96
5, 34232, Note_on_c, 3, 75, 0
5, 34282, Note_on_c, 3, 79, 108
5, 34310, Note_on_c, 3, 79, 0
5, 34326, Note_on_c, 3, 75, 87
5, 34369, Note_on_c, 3, 75, 0
5, 34433, Note_on_c, 3, 75, 104
5, 34469, Note_on_c, 3, 75, 0
5, 34513, Note_on_c, 3, 79, 116
5, 34542, Note_on_c, 3, 79, 0
5, 34556, Note_on_c, 3, 75, 86
5, 34607, Note_on_c, 3, 75, 0
5, 34676, Note_on_c, 3, 75, 104
5, 34727, Note_on_c, 3, 75, 0
5, 34790, Note_on_c, 3, 75, 119
5, 34860, Note_on_c, 3, 75, 0
5, 34864, Note_on_c, 3, 79, 106
5, 34902, Note_on_c, 3, 79, 0
5, 34907, Note_on_c, 3, 75, 119
5, 34969, Note_on_c, 3, 75, 0
5, 35113, Note_on_c, 3, 71, 121
5, 35148, Note_on_c, 3, 71, 0
5, 35159, Note_on_c, 3, 75, 99
5, 35196, Note_on_c, 3, 75, 0
5, 35235, Note_on_c, 3, 79, 114
5, 35268, Note_on_c, 3, 79, 0
5, 35279, Note_on_c, 3, 75, 93
5, 35332, Note_on_c, 3, 75, 0
5, 35391, Note_on_c, 3, 75, 113
5, 35460, Note_on_c, 3, 75, 0
5, 35466, Note_on_c, 3, 79, 106
5, 35485, Note_on_c, 3, 79, 0
5, 35515, Note_on_c, 3, 75, 107
5, 35542, Note_on_c, 3, 75, 0
5, 35639, Note_on_c, 3, 75, 111
5, 35680, Note_on_c, 3, 75, 0
5, 35760, Note_on_c, 3, 75, 127
5, 35809, Note_on_c, 3, 75, 0
5, 35831, Note_on_c, 3, 79, 127
5, 35851, Note_on_c, 3, 79, 0
5, 35882, Note_on_c, 3, 75, 127
5, 36002, Note_on_c, 3, 75, 0
5, 36077, Note_on_c, 3, 72, 115
5, 36107, Note_on_c, 3, 72, 0
5, 36121, Note_on_c, 3, 75, 104
5, 36158, Note_on_c, 3, 75, 0
5, 36199, Note_on_c, 3, 79, 110
5, 36220, Note_on_c, 3, 79, 0
5, 36242, Note_on_c, 3, 75, 97
5, 36280, Note_on_c, 3, 75, 0
5, 36362, Note_on_c, 3, 75, 114
5, 36424, Note_on_c, 3, 75, 0
5, 36429, Note_on_c, 3, 79, 100
5, 36465, Note_on_c, 3, 79, 0
5, 36480, Note_on_c, 3, 75, 102
5, 36518, Note_on_c, 3, 75, 0
5, 36597, Note_on_c, 3, 75, 109
5, 36648, Note_on_c, 3, 75, 0
5, 36675, Note_on_c, 3, 81, 124
5, 36750, Note_on_c, 3, 81, 0
5, 36759, Note_on_c, 3, 80, 101
5, 36788, Note_on_c, 3, 80, 0
5, 36796, Note_on_c, 3, 78, 99
5, 36826, Note_on_c, 3, 78, 0
5, 36838, Note_on_c, 3, 75, 99
5, 36883, Note_on_c, 3, 75, 0
5, 36908, Note_on_c, 3, 75, 123
5, 36935, Note_on_c, 3, 75, 0
5, 37040, Note_on_c, 3, 70, 127
5, 37120, Note_on_c, 3, 70, 0
5, 37120, Note_on_c, 3, 69, 127
5, 37200, Note_on_c, 3, 69, 0
5, 37200, Note_on_c, 3, 68, 123
5, 37280, Note_on_c, 3, 68, 0
5, 37280, Note_on_c, 3, 67, 123
5, 37360, Note_on_c, 3, 67, 0
5, 37360, Note_on_c, 3, 66, 120
5, 37440, Note_on_c, 3, 66, 0
5, 37440, Note_on_c, 3, 65, 127
5, 37840, Note_on_c, 3, 65, 0
5, 37840, End_track
6, 0, Start_track
6, 0, Title_t, "Alto"
6, 0, Program_c, 5, 65
6, 0, Control_c, 5, 7, 51
6, 361, Note_on_c, 5, 70, 87
6, 384, Note_on_c, 5, 70, 0
6, 390, Note_on_c, 5, 68, 53
6, 402, Note_on_c, 5, 68, 0
6, 431, Note_on_c, 5, 70, 94
6, 468, Note_on_c, 5, 70, 0
6, 841, Note_on_c, 5, 70, 95
6, 870, Note_on_c, 5, 70, 0
6, 870, Note_on_c, 5, 68, 35
6, 891, Note_on_c, 5, 68, 0
6, 911, Note_on_c, 5, 70, 97
6, 950, Note_on_c, 5, 70, 0
6, 1318, Note_on_c, 5, 70, 93
6, 1348, Note_on_c, 5, 70, 0
6, 1350, Note_on_c, 5, 68, 93
6, 1372, Note_on_c, 5, 68, 0
6, 1391, Note_on_c, 5, 70, 94
6, 1434, Note_on_c, 5, 70, 0
6, 1801, Note_on_c, 5, 70, 94
6, 1829, Note_on_c, 5, 70, 0
6, 1835, Note_on_c, 5, 68, 36
6, 1861, Note_on_c, 5, 68, 0
6, 1872, Note_on_c, 5, 70, 93
6, 1909, Note_on_c, 5, 70, 0
6, 5641, Note_on_c, 5, 61, 93
6, 5700, Note_on_c, 5, 61, 0
6, 5759, Note_on_c, 5, 61, 90
6, 5832, Note_on_c, 5, 61, 0
6, 5837, Note_on_c, 5, 63, 74
6, 5883, Note_on_c, 5, 60, 63
6, 5884, Note_on_c, 5, 63, 0
6, 5950, Note_on_c, 5, 60, 0
6, 5951, Note_on_c, 5, 61, 75
6, 6112, Note_on_c, 5, 61, 0
6, 6241, Note_on_c, 5, 63, 57
6, 6475, Note_on_c, 5, 65, 48
6, 6483, Note_on_c, 5, 63, 0
6, 6722, Note_on_c, 5, 67, 65
6, 6723, Note_on_c, 5, 65, 0
6, 6968, Note_on_c, 5, 67, 0
6, 6970, Note_on_c, 5, 65, 49
6, 7201, Note_on_c, 5, 65, 0
6, 7202, Note_on_c, 5, 63, 52
6, 7434, Note_on_c, 5, 65, 68
6, 7440, Note_on_c, 5, 63, 0
6, 7688, Note_on_c, 5, 65, 0
6, 7688, Note_on_c, 5, 66, 67
6, 7922, Note_on_c, 5, 66, 0
6, 7924, Note_on_c, 5, 65, 63
6, 8147, Note_on_c, 5, 65, 0
6, 13317, Note_on_c, 5, 61, 93
6, 13376, Note_on_c, 5, 61, 0
6, 13435, Note_on_c, 5, 61, 90
6, 13508, Note_on_c, 5, 61, 0
6, 13513, Note_on_c, 5, 63, 74
6, 13559, Note_on_c, 5, 60, 63
6, 13560, Note_on_c, 5, 63, 0
6, 13626, Note_on_c, 5, 60, 0
6, 13627, Note_on_c, 5, 61, 75
6, 13788, Note_on_c, 5, 61, 0
6, 13917, Note_on_c, 5, 63, 57
6, 14151, Note_on_c, 5, 65, 48
6, 14159, Note_on_c, 5, 63, 0
6, 14398, Note_on_c, 5, 67, 65
6, 14399, Note_on_c, 5, 65, 0
6, 14644, Note_on_c, 5, 67, 0
6, 14646, Note_on_c, 5, 68, 49
6, 14877, Note_on_c, 5, 68, 0
6, 14880, Note_on_c, 5, 70, 70
6, 15120, Note_on_c, 5, 70, 0
6, 15120, Note_on_c, 5, 69, 70
6, 15360, Note_on_c, 5, 69, 0
6, 15360, Note_on_c, 5, 68, 60
6, 15600, Note_on_c, 5, 68, 0
6, 15600, Note_on_c, 5, 68, 48
6, 15840, Note_on_c, 5, 68, 0
6, 17641, Note_on_c, 5, 70, 87
6, 17664, Note_on_c, 5, 70, 0
6, 17670, Note_on_c, 5, 68, 53
6, 17682, Note_on_c, 5, 68, 0
6, 17711, Note_on_c, 5, 70, 94
6, 17748, Note_on_c, 5, 70, 0
6, 18121, Note_on_c, 5, 70, 95
6, 18150, Note_on_c, 5, 70, 0
6, 18150, Note_on_c, 5, 68, 35
6, 18171, Note_on_c, 5, 68, 0
6, 18191, Note_on_c, 5, 70, 97
6, 18230, Note_on_c, 5, 70, 0
6, 18598, Note_on_c, 5, 70, 93
6, 18628, Note_on_c, 5, 70, 0
6, 18630, Note_on_c, 5, 68, 93
6, 18652, Note_on_c, 5, 68, 0
6, 18671, Note_on_c, 5, 70, 94
6, 18714, Note_on_c, 5, 70, 0
6, 19081, Note_on_c, 5, 70, 94
6, 19109, Note_on_c, 5, 70, 0
6, 19115, Note_on_c, 5, 68, 36
6, 19141, Note_on_c, 5, 68, 0
6, 19152, Note_on_c, 5, 70, 93
6, 19189, Note_on_c, 5, 70, 0
6, 22921, Note_on_c, 5, 61, 93
6, 22980, Note_on_c, 5, 61, 0
6, 23039, Note_on_c, 5, 61, 90
6, 23112, Note_on_c, 5, 61, 0
6, 23117, Note_on_c, 5, 63, 74
6, 23163, Note_on_c, 5, 60, 63
6, 23164, Note_on_c, 5, 63, 0
6, 23230, Note_on_c, 5, 60, 0
6, 23231, Note_on_c, 5, 61, 75
6, 23392, Note_on_c, 5, 61, 0
6, 23521, Note_on_c, 5, 63, 57
6, 23755, Note_on_c, 5, 65, 48
6, 23763, Note_on_c, 5, 63, 0
6, 24002, Note_on_c, 5, 67, 65
6, 24003, Note_on_c, 5, 65, 0
6, 24248, Note_on_c, 5, 67, 0
6, 24250, Note_on_c, 5, 65, 49
6, 24481, Note_on_c, 5, 65, 0
6, 24482, Note_on_c, 5, 63, 52
6, 24714, Note_on_c, 5, 65, 68
6, 24720, Note_on_c, 5, 63, 0
6, 24968, Note_on_c, 5, 65, 0
6, 24968, Note_on_c, 5, 66, 67
6, 25202, Note_on_c, 5, 66, 0
6, 25204, Note_on_c, 5, 65, 63
6, 25427, Note_on_c, 5, 65, 0
6, 30597, Note_on_c, 5, 61, 93
6, 30656, Note_on_c, 5, 61, 0
6, 30715, Note_on_c, 5, 61, 90
6, 30788, Note_on_c, 5, 61, 0
6, 30793, Note_on_c, 5, 63, 74
6, 30839, Note_on_c, 5, 60, 63
6, 30840, Note_on_c, 5, 63, 0
6, 30906, Note_on_c, 5, 60, 0
6, 30907, Note_on_c, 5, 61, 75
6, 31068, Note_on_c, 5, 61, 0
6, 31197, Note_on_c, 5, 63, 57
6, 31431, Note_on_c, 5, 65, 48
6, 31439, Note_on_c, 5, 63, 0
6, 31678, Note_on_c, 5, 67, 65
6, 31679, Note_on_c, 5, 65, 0
6, 31924, Note_on_c, 5, 67, 0
6, 31926, Note_on_c, 5, 68, 49
6, 32157, Note_on_c, 5, 68, 0
6, 32160, Note_on_c, 5, 70, 70
6, 32400, Note_on_c, 5, 70, 0
6, 32400, Note_on_c, 5, 69, 70
6, 32640, Note_on_c, 5, 69, 0
6, 32640, Note_on_c, 5, 68, 60
6, 32880, Note_on_c, 5, 68, 0
6, 32880, Note_on_c, 5, 68, 48
6, 33120, Note_on_c, 5, 68, 0
6, 34165, Note_on_c, 5, 69, 63
6, 34207, Note_on_c, 5, 69, 0
6, 34210, Note_on_c, 5, 72, 55
6, 34273, Note_on_c, 5, 72, 0
6, 34277, Note_on_c, 5, 75, 60
6, 34319, Note_on_c, 5, 75, 0
6, 34322, Note_on_c, 5, 72, 47
6, 34355, Note_on_c, 5, 72, 0
6, 34436, Note_on_c, 5, 72, 52
6, 34507, Note_on_c, 5, 72, 0
6, 34508, Note_on_c, 5, 75, 55
6, 34546, Note_on_c, 5, 75, 0
6, 34554, Note_on_c, 5, 72, 36
6, 34598, Note_on_c, 5, 72, 0
6, 34677, Note_on_c, 5, 72, 58
6, 34724, Note_on_c, 5, 72, 0
6, 34798, Note_on_c, 5, 72, 66
6, 34858, Note_on_c, 5, 72, 0
6, 34862, Note_on_c, 5, 75, 43
6, 34902, Note_on_c, 5, 75, 0
6, 34905, Note_on_c, 5, 72, 45
6, 34973, Note_on_c, 5, 72, 0
6, 35116, Note_on_c, 5, 68, 63
6, 35151, Note_on_c, 5, 68, 0
6, 35157, Note_on_c, 5, 71, 59
6, 35225, Note_on_c, 5, 71, 0
6, 35232, Note_on_c, 5, 75, 53
6, 35272, Note_on_c, 5, 75, 0
6, 35282, Note_on_c, 5, 71, 54
6, 35319, Note_on_c, 5, 71, 0
6, 35394, Note_on_c, 5, 71, 70
6, 35460, Note_on_c, 5, 71, 0
6, 35466, Note_on_c, 5, 75, 48
6, 35499, Note_on_c, 5, 75, 0
6, 35513, Note_on_c, 5, 71, 43
6, 35561, Note_on_c, 5, 71, 0
6, 35638, Note_on_c, 5, 71, 64
6, 35697, Note_on_c, 5, 71, 0
6, 35761, Note_on_c, 5, 71, 64
6, 35831, Note_on_c, 5, 71, 0
6, 35833, Note_on_c, 5, 75, 55
6, 35875, Note_on_c, 5, 75, 0
6, 35878, Note_on_c, 5, 71, 51
6, 35938, Note_on_c, 5, 71, 0
6, 36080, Note_on_c, 5, 70, 69
6, 36115, Note_on_c, 5, 70, 0
6, 36120, Note_on_c, 5, 72, 53
6, 36186, Note_on_c, 5, 72, 0
6, 36193, Note_on_c, 5, 75, 59
6, 36235, Note_on_c, 5, 75, 0
6, 36243, Note_on_c, 5, 72, 57
6, 36283, Note_on_c, 5, 72, 0
6, 36360, Note_on_c, 5, 72, 69
6, 36428, Note_on_c, 5, 72, 0
6, 36436, Note_on_c, 5, 75, 59
6, 36475, Note_on_c, 5, 75, 0
6, 36480, Note_on_c, 5, 72, 46
6, 36530, Note_on_c, 5, 72, 0
6, 36597, Note_on_c, 5, 72, 44
6, 36652, Note_on_c, 5, 72, 0
6, 36674, Note_on_c, 5, 78, 82
6, 36752, Note_on_c, 5, 78, 0
6, 36761, Note_on_c, 5, 77, 57
6, 36788, Note_on_c, 5, 77, 0
6, 36797, Note_on_c, 5, 75, 38
6, 36827, Note_on_c, 5, 75, 0
6, 36835, Note_on_c, 5, 72, 47
6, 36885, Note_on_c, 5, 72, 0
6, 36910, Note_on_c, 5, 72, 54
6, 36940, Note_on_c, 5, 72, 0
6, 37040, Note_on_c, 5, 65, 72
6, 37120, Note_on_c, 5, 65, 0
6, 37120, Note_on_c, 5, 64, 58
6, 37200, Note_on_c, 5, 64, 0
6, 37200, Note_on_c, 5, 63, 52
6, 37280, Note_on_c, 5, 63, 0
6, 37280, Note_on_c, 5, 62, 53
6, 37360, Note_on_c, 5, 62, 0
6, 37360, Note_on_c, 5, 61, 57
6, 37440, Note_on_c, 5, 61, 0
6, 37440, Note_on_c, 5, 60, 64
6, 37760, Note_on_c, 5, 60, 0
6, 37760, End_track
7, 0, Start_track
7, 0, Title_t, "Tenor"
7, 0, Program_c, 4, 66
7, 0, Control_c, 4, 7, 53
7, 361, Note_on_c, 4, 65, 87
7, 384, Note_on_c, 4, 65, 0
7, 390, Note_on_c, 4, 63, 53
7, 402, Note_on_c, 4, 63, 0
7, 431, Note_on_c, 4, 65, 94
7, 468, Note_on_c, 4, 65, 0
7, 841, Note_on_c, 4, 65, 95
7, 870, Note_on_c, 4, 65, 0
7, 870, Note_on_c, 4, 63, 35
7, 891, Note_on_c, 4, 63, 0
7, 911, Note_on_c, 4, 65, 97
7, 950, Note_on_c, 4, 65, 0
7, 1318, Note_on_c, 4, 65, 93
7, 1348, Note_on_c, 4, 65, 0
7, 1350, Note_on_c, 4, 63, 93
7, 1372, Note_on_c, 4, 63, 0
7, 1391, Note_on_c, 4, 65, 94
7, 1434, Note_on_c, 4, 65, 0
7, 1801, Note_on_c, 4, 65, 94
7, 1829, Note_on_c, 4, 65, 0
7, 1835, Note_on_c, 4, 63, 36
7, 1861, Note_on_c, 4, 63, 0
7, 1872, Note_on_c, 4, 65, 93
7, 1909, Note_on_c, 4, 65, 0
7, 5637, Note_on_c, 4, 56, 83
7, 5702, Note_on_c, 4, 56, 0
7, 5758, Note_on_c, 4, 56, 86
7, 5834, Note_on_c, 4, 58, 77
7, 5840, Note_on_c, 4, 56, 0
7, 5877, Note_on_c, 4, 58, 0
7, 5877, Note_on_c, 4, 56, 68
7, 5946, Note_on_c, 4, 56, 0
7, 5949, Note_on_c, 4, 55, 72
7, 6166, Note_on_c, 4, 55, 0
7, 6246, Note_on_c, 4, 60, 66
7, 6479, Note_on_c, 4, 61, 64
7, 6485, Note_on_c, 4, 60, 0
7, 6725, Note_on_c, 4, 63, 59
7, 6732, Note_on_c, 4, 61, 0
7, 6966, Note_on_c, 4, 61, 68
7, 6970, Note_on_c, 4, 63, 0
7, 7205, Note_on_c, 4, 59, 80
7, 7210, Note_on_c, 4, 61, 0
7, 7431, Note_on_c, 4, 59, 0
7, 7431, Note_on_c, 4, 61, 79
7, 7675, Note_on_c, 4, 63, 71
7, 7684, Note_on_c, 4, 61, 0
7, 7926, Note_on_c, 4, 61, 59
7, 7927, Note_on_c, 4, 63, 0
7, 8143, Note_on_c, 4, 61, 0
7, 13313, Note_on_c, 4, 56, 83
7, 13378, Note_on_c, 4, 56, 0
7, 13434, Note_on_c, 4, 56, 86
7, 13510, Note_on_c, 4, 58, 77
7, 13516, Note_on_c, 4, 56, 0
7, 13553, Note_on_c, 4, 58, 0
7, 13553, Note_on_c, 4, 56, 68
7, 13622, Note_on_c, 4, 56, 0
7, 13625, Note_on_c, 4, 55, 72
7, 13842, Note_on_c, 4, 55, 0
7, 13922, Note_on_c, 4, 60, 66
7, 14155, Note_on_c, 4, 61, 64
7, 14161, Note_on_c, 4, 60, 0
7, 14401, Note_on_c, 4, 63, 59
7, 14408, Note_on_c, 4, 61, 0
7, 14642, Note_on_c, 4, 65, 68
7, 14646, Note_on_c, 4, 63, 0
7, 14880, Note_on_c, 4, 67, 50
7, 14886, Note_on_c, 4, 65, 0
7, 15120, Note_on_c, 4, 67, 0
7, 15120, Note_on_c, 4, 65, 100
7, 15360, Note_on_c, 4, 65, 0
7, 15360, Note_on_c, 4, 63, 100
7, 15600, Note_on_c, 4, 63, 0
7, 15600, Note_on_c, 4, 62, 100
7, 15840, Note_on_c, 4, 62, 0
7, 17641, Note_on_c, 4, 65, 87
7, 17664, Note_on_c, 4, 65, 0
7, 17670, Note_on_c, 4, 63, 53
7, 17682, Note_on_c, 4, 63, 0
7, 17711, Note_on_c, 4, 65, 94
7, 17748, Note_on_c, 4, 65, 0
7, 18121, Note_on_c, 4, 65, 95
7, 18150, Note_on_c, 4, 65, 0
7, 18150, Note_on_c, 4, 63, 35
7, 18171, Note_on_c, 4, 63, 0
7, 18191, Note_on_c, 4, 65, 97
7, 18230, Note_on_c, 4, 65, 0
7, 18598, Note_on_c, 4, 65, 93
7, 18628, Note_on_c, 4, 65, 0
7, 18630, Note_on_c, 4, 63, 93
7, 18652, Note_on_c, 4, 63, 0
7, 18671, Note_on_c, 4, 65, 94
7, 18714, Note_on_c, 4, 65, 0
7, 19081, Note_on_c, 4, 65, 94
7, 19109, Note_on_c, 4, 65, 0
7, 19115, Note_on_c, 4, 63, 36
7, 19141, Note_on_c, 4, 63, 0
7, 19152, Note_on_c, 4, 65, 93
7, 19189, Note_on_c, 4, 65, 0
7, 22917, Note_on_c, 4, 56, 83
7, 22982, Note_on_c, 4, 56, 0
7, 23038, Note_on_c, 4, 56, 86
7, 23114, Note_on_c, 4, 58, 77
7, 23120, Note_on_c, 4, 56, 0
7, 23157, Note_on_c, 4, 58, 0
7, 23157, Note_on_c, 4, 56, 68
7, 23226, Note_on_c, 4, 56, 0
7, 23229, Note_on_c, 4, 55, 72
7, 23446, Note_on_c, 4, 55, 0
7, 23526, Note_on_c, 4, 60, 66
7, 23759, Note_on_c, 4, 61, 64
7, 23765, Note_on_c, 4, 60, 0
7, 24005, Note_on_c, 4, 63, 59
7, 24012, Note_on_c, 4, 61, 0
7, 24246, Note_on_c, 4, 61, 68
7, 24250, Note_on_c, 4, 63, 0
7, 24485, Note_on_c, 4, 59, 80
7, 24490, Note_on_c, 4, 61, 0
7, 24711, Note_on_c, 4, 59, 0
7, 24711, Note_on_c, 4, 61, 79
7, 24955, Note_on_c, 4, 63, 71
7, 24964, Note_on_c, 4, 61, 0
7, 25206, Note_on_c, 4, 61, 59
7, 25207, Note_on_c, 4, 63, 0
7, 25423, Note_on_c, 4, 61, 0
7, 30593, Note_on_c, 4, 56, 83
7, 30658, Note_on_c, 4, 56, 0
7, 30714, Note_on_c, 4, 56, 86
7, 30790, Note_on_c, 4, 58, 77
7, 30796, Note_on_c, 4, 56, 0
7, 30833, Note_on_c, 4, 58, 0
7, 30833, Note_on_c, 4, 56, 68
7, 30902, Note_on_c, 4, 56, 0
7, 30905, Note_on_c, 4, 55, 72
7, 31122, Note_on_c, 4, 55, 0
7, 31202, Note_on_c, 4, 60, 66
7, 31435, Note_on_c, 4, 61, 64
7, 31441, Note_on_c, 4, 60, 0
7, 31681, Note_on_c, 4, 63, 59
7, 31688, Note_on_c, 4, 61, 0
7, 31922, Note_on_c, 4, 65, 68
7, 31926, Note_on_c, 4, 63, 0
7, 32160, Note_on_c, 4, 67, 50
7, 32166, Note_on_c, 4, 65, 0
7, 32400, Note_on_c, 4, 67, 0
7, 32400, Note_on_c, 4, 65, 100
7, 32640, Note_on_c, 4, 65, 0
7, 32640, Note_on_c, 4, 63, 100
7, 32880, Note_on_c, 4, 63, 0
7, 32880, Note_on_c, 4, 62, 100
7, 33120, Note_on_c, 4, 62, 0
7, 34159, Note_on_c, 4, 63, 46
7, 34203, Note_on_c, 4, 63, 0
7, 34207, Note_on_c, 4, 65, 60
7, 34273, Note_on_c, 4, 65, 0
7, 34276, Note_on_c, 4, 69, 71
7, 34316, Note_on_c, 4, 69, 0
7, 34323, Note_on_c, 4, 65, 62
7, 34372, Note_on_c, 4, 65, 0
7, 34434, Note_on_c, 4, 65, 75
7, 34499, Note_on_c, 4, 65, 0
7, 34507, Note_on_c, 4, 69, 60
7, 34547, Note_on_c, 4, 69, 0
7, 34554, Note_on_c, 4, 65, 54
7, 34602, Note_on_c, 4, 65, 0
7, 34674, Note_on_c, 4, 65, 58
7, 34729, Note_on_c, 4, 65, 0
7, 34794, Note_on_c, 4, 65, 69
7, 34861, Note_on_c, 4, 65, 0
7, 34864, Note_on_c, 4, 69, 57
7, 34909, Note_on_c, 4, 65, 56
7, 34910, Note_on_c, 4, 69, 0
7, 34963, Note_on_c, 4, 65, 0
7, 35112, Note_on_c, 4, 63, 71
7, 35149, Note_on_c, 4, 63, 0
7, 35156, Note_on_c, 4, 65, 68
7, 35220, Note_on_c, 4, 65, 0
7, 35230, Note_on_c, 4, 68, 67
7, 35268, Note_on_c, 4, 68, 0
7, 35275, Note_on_c, 4, 65, 60
7, 35327, Note_on_c, 4, 65, 0
7, 35396, Note_on_c, 4, 65, 66
7, 35449, Note_on_c, 4, 65, 0
7, 35474, Note_on_c, 4, 68, 62
7, 35508, Note_on_c, 4, 68, 0
7, 35514, Note_on_c, 4, 65, 61
7, 35568, Note_on_c, 4, 65, 0
7, 35636, Note_on_c, 4, 65, 68
7, 35690, Note_on_c, 4, 65, 0
7, 35754, Note_on_c, 4, 65, 75
7, 35832, Note_on_c, 4, 65, 0
7, 35832, Note_on_c, 4, 68, 56
7, 35873, Note_on_c, 4, 68, 0
7, 35878, Note_on_c, 4, 65, 64
7, 35948, Note_on_c, 4, 65, 0
7, 36079, Note_on_c, 4, 63, 68
7, 36105, Note_on_c, 4, 63, 0
7, 36119, Note_on_c, 4, 67, 62
7, 36164, Note_on_c, 4, 67, 0
7, 36192, Note_on_c, 4, 70, 68
7, 36225, Note_on_c, 4, 70, 0
7, 36238, Note_on_c, 4, 67, 53
7, 36274, Note_on_c, 4, 67, 0
7, 36360, Note_on_c, 4, 63, 59
7, 36431, Note_on_c, 4, 63, 0
7, 36436, Note_on_c, 4, 67, 66
7, 36472, Note_on_c, 4, 67, 0
7, 36476, Note_on_c, 4, 63, 61
7, 36504, Note_on_c, 4, 63, 0
7, 36598, Note_on_c, 4, 63, 78
7, 36636, Note_on_c, 4, 63, 0
7, 36674, Note_on_c, 4, 63, 79
7, 36760, Note_on_c, 4, 60, 55
7, 36769, Note_on_c, 4, 63, 0
7, 36790, Note_on_c, 4, 60, 0
7, 36795, Note_on_c, 4, 58, 56
7, 36824, Note_on_c, 4, 58, 0
7, 36832, Note_on_c, 4, 56, 57
7, 36881, Note_on_c, 4, 56, 0
7, 36907, Note_on_c, 4, 56, 75
7, 36957, Note_on_c, 4, 56, 0
7, 37040, Note_on_c, 4, 60, 69
7, 37120, Note_on_c, 4, 60, 0
7, 37120, Note_on_c, 4, 59, 73
7, 37200, Note_on_c, 4, 59, 0
7, 37200, Note_on_c, 4, 58, 70
7, 37280, Note_on_c, 4, 58, 0
7, 37280, Note_on_c, 4, 57, 72
7, 37360, Note_on_c, 4, 57, 0
7, 37360, Note_on_c, 4, 56, 67
7, 37440, Note_on_c, 4, 56, 0
7, 37440, Note_on_c, 4, 55, 77
7, 37840, Note_on_c, 4, 55, 0
7, 37840, End_track
8, 0, Start_track
8, 0, Title_t, "Trombone"
8, 0, Program_c, 6, 57
8, 0, Control_c, 6, 7, 117
8, 361, Note_on_c, 6, 51, 102
8, 384, Note_on_c, 6, 51, 0
8, 390, Note_on_c, 6, 49, 68
8, 402, Note_on_c, 6, 49, 0
8, 431, Note_on_c, 6, 51, 109
8, 468, Note_on_c, 6, 51, 0
8, 841, Note_on_c, 6, 51, 110
8, 870, Note_on_c, 6, 51, 0
8, 870, Note_on_c, 6, 49, 50
8, 891, Note_on_c, 6, 49, 0
8, 911, Note_on_c, 6, 51, 112
8, 950, Note_on_c, 6, 51, 0
8, 1318, Note_on_c, 6, 51, 108
8, 1348, Note_on_c, 6, 51, 0
8, 1350, Note_on_c, 6, 49, 108
8, 1372, Note_on_c, 6, 49, 0
8, 1391, Note_on_c, 6, 51, 109
8, 1434, Note_on_c, 6, 51, 0
8, 1801, Note_on_c, 6, 51, 109
8, 1829, Note_on_c, 6, 51, 0
8, 1835, Note_on_c, 6, 49, 51
8, 1861, Note_on_c, 6, 49, 0
8, 1872, Note_on_c, 6, 51, 108
8, 1909, Note_on_c, 6, 51, 0
8, 5635, Note_on_c, 6, 58, 96
8, 5696, Note_on_c, 6, 58, 0
8, 5756, Note_on_c, 6, 51, 98
8, 5914, Note_on_c, 6, 51, 0
8, 5948, Note_on_c, 6, 51, 100
8, 6096, Note_on_c, 6, 51, 0
8, 6240, Note_on_c, 6, 44, 65
8, 6480, Note_on_c, 6, 44, 0
8, 6480, Note_on_c, 6, 51, 65
8, 6720, Note_on_c, 6, 51, 0
8, 6720, Note_on_c, 6, 56, 65
8, 6960, Note_on_c, 6, 56, 0
8, 6960, Note_on_c, 6, 51, 65
8, 7200, Note_on_c, 6, 51, 0
8, 7200, Note_on_c, 6, 44, 65
8, 7440, Note_on_c, 6, 44, 0
8, 7440, Note_on_c, 6, 51, 65
8, 7680, Note_on_c, 6, 51, 0
8, 7680, Note_on_c, 6, 54, 65
8, 7920, Note_on_c, 6, 54, 0
8, 7920, Note_on_c, 6, 49, 66
8, 8160, Note_on_c, 6, 49, 0
8, 13311, Note_on_c, 6, 58, 96
8, 13372, Note_on_c, 6, 58, 0
8, 13432, Note_on_c, 6, 51, 98
8, 13590, Note_on_c, 6, 51, 0
8, 13624, Note_on_c, 6, 51, 100
8, 13772, Note_on_c, 6, 51, 0
8, 17641, Note_on_c, 6, 51, 102
8, 17664, Note_on_c, 6, 51, 0
8, 17670, Note_on_c, 6, 49, 68
8, 17682, Note_on_c, 6, 49, 0
8, 17711, Note_on_c, 6, 51, 109
8, 17748, Note_on_c, 6, 51, 0
8, 18121, Note_on_c, 6, 51, 110
8, 18150, Note_on_c, 6, 51, 0
8, 18150, Note_on_c, 6, 49, 50
8, 18171, Note_on_c, 6, 49, 0
8, 18191, Note_on_c, 6, 51, 112
8, 18230, Note_on_c, 6, 51, 0
8, 18598, Note_on_c, 6, 51, 108
8, 18628, Note_on_c, 6, 51, 0
8, 18630, Note_on_c, 6, 49, 108
8, 18652, Note_on_c, 6, 49, 0
8, 18671, Note_on_c, 6, 51, 109
8, 18714, Note_on_c, 6, 51, 0
8, 19081, Note_on_c, 6, 51, 109
8, 19109, Note_on_c, 6, 51, 0
8, 19115, Note_on_c, 6, 49, 51
8, 19141, Note_on_c, 6, 49, 0
8, 19152, Note_on_c, 6, 51, 108
8, 19189, Note_on_c, 6, 51, 0
8, 22915, Note_on_c, 6, 58, 96
8, 22976, Note_on_c, 6, 58, 0
8, 23036, Note_on_c, 6, 51, 98
8, 23194, Note_on_c, 6, 51, 0
8, 23228, Note_on_c, 6, 51, 100
8, 23376, Note_on_c, 6, 51, 0
8, 23520, Note_on_c, 6, 44, 65
8, 23760, Note_on_c, 6, 44, 0
8, 23760, Note_on_c, 6, 51, 65
8, 24000, Note_on_c, 6, 51, 0
8, 24000, Note_on_c, 6, 56, 65
8, 24240, Note_on_c, 6, 56, 0
8, 24240, Note_on_c, 6, 51, 65
8, 24480, Note_on_c, 6, 51, 0
8, 24480, Note_on_c, 6, 48, 65
8, 24720, Note_on_c, 6, 48, 0
8, 24720, Note_on_c, 6, 53, 65
8, 24960, Note_on_c, 6, 53, 0
8, 24960, Note_on_c, 6, 53, 65
8, 25200, Note_on_c, 6, 53, 0
8, 25200, Note_on_c, 6, 46, 66
8, 25440, Note_on_c, 6, 46, 0
8, 30591, Note_on_c, 6, 58, 96
8, 30652, Note_on_c, 6, 58, 0
8, 30712, Note_on_c, 6, 51, 98
8, 30870, Note_on_c, 6, 51, 0
8, 30904, Note_on_c, 6, 51, 100
8, 31052, Note_on_c, 6, 51, 0
8, 31200, Note_on_c, 6, 44, 65
8, 31440, Note_on_c, 6, 44, 0
8, 31440, Note_on_c, 6, 51, 65
8, 31680, Note_on_c, 6, 51, 0
8, 31680, Note_on_c, 6, 56, 65
8, 31920, Note_on_c, 6, 56, 0
8, 31920, Note_on_c, 6, 51, 65
8, 32160, Note_on_c, 6, 51, 0
8, 32160, Note_on_c, 6, 48, 65
8, 32400, Note_on_c, 6, 48, 0
8, 32400, Note_on_c, 6, 53, 65
8, 32640, Note_on_c, 6, 53, 0
8, 32640, Note_on_c, 6, 53, 65
8, 32880, Note_on_c, 6, 53, 0
8, 32880, Note_on_c, 6, 46, 66
8, 33120, Note_on_c, 6, 46, 0
8, 34160, Note_on_c, 6, 53, 77
8, 34199, Note_on_c, 6, 53, 0
8, 34208, Note_on_c, 6, 57, 64
8, 34273, Note_on_c, 6, 57, 0
8, 34277, Note_on_c, 6, 60, 81
8, 34312, Note_on_c, 6, 60, 0
8, 34323, Note_on_c, 6, 57, 80
8, 34372, Note_on_c, 6, 57, 0
8, 34435, Note_on_c, 6, 57, 82
8, 34499, Note_on_c, 6, 57, 0
8, 34505, Note_on_c, 6, 60, 72
8, 34537, Note_on_c, 6, 60, 0
8, 34552, Note_on_c, 6, 57, 77
8, 34606, Note_on_c, 6, 57, 0
8, 34673, Note_on_c, 6, 57, 77
8, 34724, Note_on_c, 6, 57, 0
8, 34796, Note_on_c, 6, 57, 77
8, 34856, Note_on_c, 6, 57, 0
8, 34864, Note_on_c, 6, 60, 68
8, 34898, Note_on_c, 6, 60, 0
8, 34908, Note_on_c, 6, 57, 71
8, 34959, Note_on_c, 6, 57, 0
8, 35111, Note_on_c, 6, 51, 75
8, 35156, Note_on_c, 6, 51, 0
8, 35158, Note_on_c, 6, 53, 78
8, 35225, Note_on_c, 6, 53, 0
8, 35229, Note_on_c, 6, 56, 79
8, 35263, Note_on_c, 6, 56, 0
8, 35274, Note_on_c, 6, 53, 78
8, 35323, Note_on_c, 6, 53, 0
8, 35400, Note_on_c, 6, 53, 86
8, 35462, Note_on_c, 6, 53, 0
8, 35469, Note_on_c, 6, 56, 74
8, 35505, Note_on_c, 6, 56, 0
8, 35512, Note_on_c, 6, 53, 81
8, 35557, Note_on_c, 6, 53, 0
8, 35630, Note_on_c, 6, 53, 83
8, 35683, Note_on_c, 6, 53, 0
8, 35755, Note_on_c, 6, 53, 81
8, 35832, Note_on_c, 6, 53, 0
8, 35832, Note_on_c, 6, 56, 77
8, 35872, Note_on_c, 6, 56, 0
8, 35879, Note_on_c, 6, 53, 81
8, 35927, Note_on_c, 6, 53, 0
8, 36077, Note_on_c, 6, 51, 77
8, 36119, Note_on_c, 6, 51, 0
8, 36120, Note_on_c, 6, 55, 81
8, 36187, Note_on_c, 6, 55, 0
8, 36194, Note_on_c, 6, 58, 71
8, 36228, Note_on_c, 6, 58, 0
8, 36238, Note_on_c, 6, 55, 81
8, 36280, Note_on_c, 6, 55, 0
8, 36360, Note_on_c, 6, 55, 86
8, 36432, Note_on_c, 6, 55, 0
8, 36435, Note_on_c, 6, 58, 75
8, 36468, Note_on_c, 6, 58, 0
8, 36477, Note_on_c, 6, 56, 87
8, 36531, Note_on_c, 6, 56, 0
8, 36597, Note_on_c, 6, 56, 74
8, 36638, Note_on_c, 6, 56, 0
8, 37040, Note_on_c, 6, 50, 86
8, 37120, Note_on_c, 6, 50, 0
8, 37120, Note_on_c, 6, 43, 83
8, 37200, Note_on_c, 6, 43, 0
8, 37200, Note_on_c, 6, 48, 87
8, 37280, Note_on_c, 6, 48, 0
8, 37280, Note_on_c, 6, 41, 76
8, 37360, Note_on_c, 6, 41, 0
8, 37360, Note_on_c, 6, 46, 80
8, 37440, Note_on_c, 6, 46, 0
8, 37440, Note_on_c, 6, 51, 85
8, 37760, Note_on_c, 6, 51, 0
8, 37760, End_track
9, 0, Start_track
9, 0, Title_t, "He (Harmonica)"
9, 0, Program_c, 7, 22
9, 0, Control_c, 7, 7, 120
9, 2354, Note_on_c, 7, 58, 107
9, 2389, Note_on_c, 7, 58, 0
9, 2404, Note_on_c, 7, 67, 124
9, 2475, Note_on_c, 7, 67, 0
9, 2485, Note_on_c, 7, 65, 102
9, 2526, Note_on_c, 7, 65, 0
9, 2533, Note_on_c, 7, 63, 75
9, 2604, Note_on_c, 7, 63, 0
9, 2608, Note_on_c, 7, 70, 104
9, 3142, Note_on_c, 7, 70, 0
9, 3315, Note_on_c, 7, 58, 104
9, 3345, Note_on_c, 7, 58, 0
9, 3357, Note_on_c, 7, 68, 114
9, 3419, Note_on_c, 7, 68, 0
9, 3431, Note_on_c, 7, 67, 100
9, 3473, Note_on_c, 7, 67, 0
9, 3477, Note_on_c, 7, 65, 99
9, 3549, Note_on_c, 7, 65, 0
9, 3556, Note_on_c, 7, 70, 102
9, 4104, Note_on_c, 7, 70, 0
9, 4281, Note_on_c, 7, 58, 100
9, 4313, Note_on_c, 7, 58, 0
9, 4325, Note_on_c, 7, 67, 114
9, 4394, Note_on_c, 7, 67, 0
9, 4398, Note_on_c, 7, 65, 87
9, 4432, Note_on_c, 7, 65, 0
9, 4444, Note_on_c, 7, 63, 66
9, 4514, Note_on_c, 7, 63, 0
9, 4519, Note_on_c, 7, 70, 104
9, 4904, Note_on_c, 7, 70, 0
9, 4922, Note_on_c, 7, 70, 117
9, 5038, Note_on_c, 7, 70, 0
9, 5042, Note_on_c, 7, 67, 105
9, 5154, Note_on_c, 7, 67, 0
9, 5158, Note_on_c, 7, 63, 90
9, 5283, Note_on_c, 7, 65, 97
9, 5285, Note_on_c, 7, 63, 0
9, 5920, Note_on_c, 7, 65, 0
9, 6197, Note_on_c, 7, 63, 109
9, 6232, Note_on_c, 7, 63, 0
9, 6243, Note_on_c, 7, 72, 115
9, 6311, Note_on_c, 7, 72, 0
9, 6326, Note_on_c, 7, 63, 61
9, 6359, Note_on_c, 7, 63, 0
9, 6371, Note_on_c, 7, 63, 79
9, 6472, Note_on_c, 7, 63, 0
9, 6484, Note_on_c, 7, 63, 101
9, 6587, Note_on_c, 7, 63, 0
9, 6601, Note_on_c, 7, 63, 84
9, 6703, Note_on_c, 7, 63, 0
9, 6718, Note_on_c, 7, 63, 84
9, 6785, Note_on_c, 7, 63, 0
9, 6798, Note_on_c, 7, 63, 90
9, 7083, Note_on_c, 7, 63, 0
9, 7153, Note_on_c, 7, 63, 101
9, 7191, Note_on_c, 7, 63, 0
9, 7199, Note_on_c, 7, 71, 119
9, 7271, Note_on_c, 7, 71, 0
9, 7274, Note_on_c, 7, 63, 95
9, 7303, Note_on_c, 7, 63, 0
9, 7320, Note_on_c, 7, 63, 83
9, 7379, Note_on_c, 7, 63, 0
9, 7394, Note_on_c, 7, 63, 88
9, 7429, Note_on_c, 7, 63, 0
9, 7440, Note_on_c, 7, 63, 79
9, 7494, Note_on_c, 7, 63, 0
9, 7515, Note_on_c, 7, 63, 85
9, 7551, Note_on_c, 7, 63, 0
9, 7565, Note_on_c, 7, 63, 86
9, 7652, Note_on_c, 7, 63, 0
9, 7672, Note_on_c, 7, 63, 96
9, 8098, Note_on_c, 7, 63, 0
9, 8118, Note_on_c, 7, 63, 99
9, 8152, Note_on_c, 7, 63, 0
9, 8163, Note_on_c, 7, 72, 117
9, 8228, Note_on_c, 7, 72, 0
9, 8232, Note_on_c, 7, 63, 84
9, 8264, Note_on_c, 7, 63, 0
9, 8276, Note_on_c, 7, 63, 87
9, 8382, Note_on_c, 7, 63, 0
9, 8398, Note_on_c, 7, 63, 92
9, 8501, Note_on_c, 7, 63, 0
9, 8520, Note_on_c, 7, 63, 83
9, 8624, Note_on_c, 7, 63, 0
9, 8640, Note_on_c, 7, 63, 86
9, 8705, Note_on_c, 7, 63, 0
9, 8717, Note_on_c, 7, 63, 91
9, 9046, Note_on_c, 7, 63, 0
9, 9078, Note_on_c, 7, 63, 75
9, 9120, Note_on_c, 7, 63, 0
9, 9123, Note_on_c, 7, 72, 97
9, 9193, Note_on_c, 7, 72, 0
9, 9194, Note_on_c, 7, 65, 94
9, 9228, Note_on_c, 7, 65, 0
9, 9241, Note_on_c, 7, 65, 100
9, 9287, Note_on_c, 7, 65, 0
9, 9315, Note_on_c, 7, 65, 94
9, 9350, Note_on_c, 7, 65, 0
9, 9368, Note_on_c, 7, 65, 92
9, 9416, Note_on_c, 7, 65, 0
9, 9438, Note_on_c, 7, 65, 99
9, 9464, Note_on_c, 7, 65, 0
9, 9482, Note_on_c, 7, 65, 103
9, 9560, Note_on_c, 7, 65, 0
9, 9595, Note_on_c, 7, 65, 125
9, 9692, Note_on_c, 7, 65, 0
9, 10030, Note_on_c, 7, 58, 107
9, 10039, Note_on_c, 7, 58, 92
9, 10050, Note_on_c, 7, 58, 0
9, 10065, Note_on_c, 7, 58, 0
9, 10080, Note_on_c, 7, 67, 124
9, 10151, Note_on_c, 7, 67, 0
9, 10161, Note_on_c, 7, 65, 102
9, 10202, Note_on_c, 7, 65, 0
9, 10209, Note_on_c, 7, 63, 75
9, 10280, Note_on_c, 7, 63, 0
9, 10284, Note_on_c, 7, 70, 104
9, 10818, Note_on_c, 7, 70, 0
9, 10991, Note_on_c, 7, 58, 104
9, 11021, Note_on_c, 7, 58, 0
9, 11033, Note_on_c, 7, 68, 114
9, 11095, Note_on_c, 7, 68, 0
9, 11107, Note_on_c, 7, 67, 100
9, 11149, Note_on_c, 7, 67, 0
9, 11153, Note_on_c, 7, 65, 99
9, 11225, Note_on_c, 7, 65, 0
9, 11232, Note_on_c, 7, 70, 102
9, 11780, Note_on_c, 7, 70, 0
9, 11957, Note_on_c, 7, 58, 100
9, 11989, Note_on_c, 7, 58, 0
9, 12001, Note_on_c, 7, 67, 114
9, 12070, Note_on_c, 7, 67, 0
9, 12074, Note_on_c, 7, 65, 87
9, 12108, Note_on_c, 7, 65, 0
9, 12120, Note_on_c, 7, 63, 66
9, 12190, Note_on_c, 7, 63, 0
9, 12195, Note_on_c, 7, 70, 104
9, 12580, Note_on_c, 7, 70, 0
9, 12598, Note_on_c, 7, 70, 117
9, 12714, Note_on_c, 7, 70, 0
9, 12718, Note_on_c, 7, 67, 105
9, 12830, Note_on_c, 7, 67, 0
9, 12834, Note_on_c, 7, 63, 90
9, 12959, Note_on_c, 7, 65, 97
9, 12961, Note_on_c, 7, 63, 0
9, 13596, Note_on_c, 7, 65, 0
9, 13873, Note_on_c, 7, 63, 109
9, 13908, Note_on_c, 7, 63, 0
9, 13919, Note_on_c, 7, 72, 115
9, 13987, Note_on_c, 7, 72, 0
9, 14002, Note_on_c, 7, 63, 61
9, 14035, Note_on_c, 7, 63, 0
9, 14047, Note_on_c, 7, 63, 79
9, 14148, Note_on_c, 7, 63, 0
9, 14160, Note_on_c, 7, 63, 101
9, 14263, Note_on_c, 7, 63, 0
9, 14277, Note_on_c, 7, 63, 84
9, 14379, Note_on_c, 7, 63, 0
9, 14394, Note_on_c, 7, 63, 84
9, 14461, Note_on_c, 7, 63, 0
9, 14474, Note_on_c, 7, 63, 90
9, 14759, Note_on_c, 7, 63, 0
9, 14829, Note_on_c, 7, 63, 101
9, 14867, Note_on_c, 7, 63, 0
9, 14890, Note_on_c, 7, 72, 85
9, 14959, Note_on_c, 7, 72, 0
9, 14964, Note_on_c, 7, 65, 81
9, 14999, Note_on_c, 7, 65, 0
9, 15010, Note_on_c, 7, 65, 86
9, 15058, Note_on_c, 7, 65, 0
9, 15078, Note_on_c, 7, 65, 88
9, 15110, Note_on_c, 7, 65, 0
9, 15127, Note_on_c, 7, 65, 91
9, 15171, Note_on_c, 7, 65, 0
9, 15190, Note_on_c, 7, 65, 94
9, 15216, Note_on_c, 7, 65, 0
9, 15231, Note_on_c, 7, 65, 91
9, 15326, Note_on_c, 7, 65, 0
9, 15347, Note_on_c, 7, 65, 86
9, 15731, Note_on_c, 7, 65, 0
9, 15800, Note_on_c, 7, 58, 78
9, 15832, Note_on_c, 7, 58, 0
9, 15844, Note_on_c, 7, 67, 95
9, 15909, Note_on_c, 7, 67, 0
9, 15920, Note_on_c, 7, 65, 64
9, 15950, Note_on_c, 7, 65, 0
9, 15968, Note_on_c, 7, 63, 46
9, 16033, Note_on_c, 7, 63, 0
9, 16037, Note_on_c, 7, 70, 93
9, 16561, Note_on_c, 7, 70, 0
9, 16562, Note_on_c, 7, 67, 95
9, 16639, Note_on_c, 7, 68, 101
9, 16640, Note_on_c, 7, 67, 0
9, 16680, Note_on_c, 7, 68, 0
9, 16682, Note_on_c, 7, 70, 95
9, 16799, Note_on_c, 7, 70, 0
9, 16799, Note_on_c, 7, 72, 94
9, 17042, Note_on_c, 7, 72, 0
9, 17045, Note_on_c, 7, 62, 91
9, 17275, Note_on_c, 7, 62, 0
9, 17276, Note_on_c, 7, 63, 86
9, 17706, Note_on_c, 7, 63, 0
9, 19634, Note_on_c, 7, 58, 107
9, 19669, Note_on_c, 7, 58, 0
9, 19684, Note_on_c, 7, 67, 124
9, 19755, Note_on_c, 7, 67, 0
9, 19765, Note_on_c, 7, 65, 102
9, 19806, Note_on_c, 7, 65, 0
9, 19813, Note_on_c, 7, 63, 75
9, 19884, Note_on_c, 7, 63, 0
9, 19888, Note_on_c, 7, 70, 104
9, 20422, Note_on_c, 7, 70, 0
9, 20595, Note_on_c, 7, 58, 104
9, 20625, Note_on_c, 7, 58, 0
9, 20637, Note_on_c, 7, 68, 114
9, 20699, Note_on_c, 7, 68, 0
9, 20711, Note_on_c, 7, 67, 100
9, 20753, Note_on_c, 7, 67, 0
9, 20757, Note_on_c, 7, 65, 99
9, 20829, Note_on_c, 7, 65, 0
9, 20836, Note_on_c, 7, 70, 102
9, 21384, Note_on_c, 7, 70, 0
9, 21561, Note_on_c, 7, 58, 100
9, 21593, Note_on_c, 7, 58, 0
9, 21605, Note_on_c, 7, 67, 114
9, 21674, Note_on_c, 7, 67, 0
9, 21678, Note_on_c, 7, 65, 87
9, 21712, Note_on_c, 7, 65, 0
9, 21724, Note_on_c, 7, 63, 66
9, 21794, Note_on_c, 7, 63, 0
9, 21799, Note_on_c, 7, 70, 104
9, 22184, Note_on_c, 7, 70, 0
9, 22202, Note_on_c, 7, 70, 117
9, 22318, Note_on_c, 7, 70, 0
9, 22322, Note_on_c, 7, 67, 105
9, 22434, Note_on_c, 7, 67, 0
9, 22438, Note_on_c, 7, 63, 90
9, 22563, Note_on_c, 7, 65, 97
9, 22565, Note_on_c, 7, 63, 0
9, 23200, Note_on_c, 7, 65, 0
9, 23477, Note_on_c, 7, 63, 109
9, 23512, Note_on_c, 7, 63, 0
9, 23523, Note_on_c, 7, 72, 115
9, 23591, Note_on_c, 7, 72, 0
9, 23606, Note_on_c, 7, 63, 61
9, 23639, Note_on_c, 7, 63, 0
9, 23651, Note_on_c, 7, 63, 79
9, 23752, Note_on_c, 7, 63, 0
9, 23764, Note_on_c, 7, 63, 101
9, 23867, Note_on_c, 7, 63, 0
9, 23881, Note_on_c, 7, 63, 84
9, 23983, Note_on_c, 7, 63, 0
9, 23998, Note_on_c, 7, 63, 84
9, 24065, Note_on_c, 7, 63, 0
9, 24078, Note_on_c, 7, 63, 90
9, 24363, Note_on_c, 7, 63, 0
9, 24433, Note_on_c, 7, 63, 101
9, 24471, Note_on_c, 7, 63, 0
9, 24479, Note_on_c, 7, 71, 119
9, 24551, Note_on_c, 7, 71, 0
9, 24554, Note_on_c, 7, 63, 95
9, 24583, Note_on_c, 7, 63, 0
9, 24600, Note_on_c, 7, 63, 83
9, 24659, Note_on_c, 7, 63, 0
9, 24674, Note_on_c, 7, 63, 88
9, 24709, Note_on_c, 7, 63, 0
9, 24720, Note_on_c, 7, 63, 79
9, 24774, Note_on_c, 7, 63, 0
9, 24795, Note_on_c, 7, 63, 85
9, 24831, Note_on_c, 7, 63, 0
9, 24845, Note_on_c, 7, 63, 86
9, 24932, Note_on_c, 7, 63, 0
9, 24952, Note_on_c, 7, 63, 96
9, 25378, Note_on_c, 7, 63, 0
9, 25398, Note_on_c, 7, 63, 99
9, 25432, Note_on_c, 7, 63, 0
9, 25443, Note_on_c, 7, 72, 117
9, 25508, Note_on_c, 7, 72, 0
9, 25512, Note_on_c, 7, 63, 84
9, 25544, Note_on_c, 7, 63, 0
9, 25556, Note_on_c, 7, 63, 87
9, 25662, Note_on_c, 7, 63, 0
9, 25678, Note_on_c, 7, 63, 92
9, 25781, Note_on_c, 7, 63, 0
9, 25800, Note_on_c, 7, 63, 83
9, 25904, Note_on_c, 7, 63, 0
9, 25920, Note_on_c, 7, 63, 86
9, 25985, Note_on_c, 7, 63, 0
9, 25997, Note_on_c, 7, 63, 91
9, 26326, Note_on_c, 7, 63, 0
9, 26358, Note_on_c, 7, 63, 75
9, 26400, Note_on_c, 7, 63, 0
9, 26403, Note_on_c, 7, 72, 97
9, 26473, Note_on_c, 7, 72, 0
9, 26474, Note_on_c, 7, 65, 94
9, 26508, Note_on_c, 7, 65, 0
9, 26521, Note_on_c, 7, 65, 100
9, 26567, Note_on_c, 7, 65, 0
9, 26595, Note_on_c, 7, 65, 94
9, 26630, Note_on_c, 7, 65, 0
9, 26648, Note_on_c, 7, 65, 92
9, 26696, Note_on_c, 7, 65, 0
9, 26718, Note_on_c, 7, 65, 99
9, 26744, Note_on_c, 7, 65, 0
9, 26762, Note_on_c, 7, 65, 103
9, 26840, Note_on_c, 7, 65, 0
9, 26875, Note_on_c, 7, 65, 125
9, 26972, Note_on_c, 7, 65, 0
9, 27310, Note_on_c, 7, 58, 107
9, 27345, Note_on_c, 7, 58, 0
9, 27360, Note_on_c, 7, 67, 124
9, 27431, Note_on_c, 7, 67, 0
9, 27441, Note_on_c, 7, 65, 102
9, 27482, Note_on_c, 7, 65, 0
9, 27489, Note_on_c, 7, 63, 75
9, 27560, Note_on_c, 7, 63, 0
9, 27564, Note_on_c, 7, 70, 104
9, 28098, Note_on_c, 7, 70, 0
9, 28271, Note_on_c, 7, 58, 104
9, 28301, Note_on_c, 7, 58, 0
9, 28313, Note_on_c, 7, 68, 114
9, 28375, Note_on_c, 7, 68, 0
9, 28387, Note_on_c, 7, 67, 100
9, 28429, Note_on_c, 7, 67, 0
9, 28433, Note_on_c, 7, 65, 99
9, 28505, Note_on_c, 7, 65, 0
9, 28512, Note_on_c, 7, 70, 102
9, 29060, Note_on_c, 7, 70, 0
9, 29237, Note_on_c, 7, 58, 100
9, 29269, Note_on_c, 7, 58, 0
9, 29281, Note_on_c, 7, 67, 114
9, 29350, Note_on_c, 7, 67, 0
9, 29354, Note_on_c, 7, 65, 87
9, 29388, Note_on_c, 7, 65, 0
9, 29400, Note_on_c, 7, 63, 66
9, 29470, Note_on_c, 7, 63, 0
9, 29475, Note_on_c, 7, 70, 104
9, 29860, Note_on_c, 7, 70, 0
9, 29878, Note_on_c, 7, 70, 117
9, 29994, Note_on_c, 7, 70, 0
9, 29998, Note_on_c, 7, 67, 105
9, 30110, Note_on_c, 7, 67, 0
9, 30114, Note_on_c, 7, 63, 90
9, 30239, Note_on_c, 7, 65, 97
9, 30241, Note_on_c, 7, 63, 0
9, 30876, Note_on_c, 7, 65, 0
9, 31153, Note_on_c, 7, 63, 109
9, 31188, Note_on_c, 7, 63, 0
9, 31199, Note_on_c, 7, 72, 115
9, 31267, Note_on_c, 7, 72, 0
9, 31282, Note_on_c, 7, 63, 61
9, 31315, Note_on_c, 7, 63, 0
9, 31327, Note_on_c, 7, 63, 79
9, 31428, Note_on_c, 7, 63, 0
9, 31440, Note_on_c, 7, 63, 101
9, 31543, Note_on_c, 7, 63, 0
9, 31557, Note_on_c, 7, 63, 84
9, 31659, Note_on_c, 7, 63, 0
9, 31674, Note_on_c, 7, 63, 84
9, 31741, Note_on_c, 7, 63, 0
9, 31754, Note_on_c, 7, 63, 90
9, 32039, Note_on_c, 7, 63, 0
9, 32109, Note_on_c, 7, 63, 101
9, 32147, Note_on_c, 7, 63, 0
9, 32170, Note_on_c, 7, 72, 85
9, 32239, Note_on_c, 7, 72, 0
9, 32244, Note_on_c, 7, 65, 81
9, 32279, Note_on_c, 7, 65, 0
9, 32290, Note_on_c, 7, 65, 86
9, 32338, Note_on_c, 7, 65, 0
9, 32358, Note_on_c, 7, 65, 88
9, 32390, Note_on_c, 7, 65, 0
9, 32407, Note_on_c, 7, 65, 91
9, 32451, Note_on_c, 7, 65, 0
9, 32470, Note_on_c, 7, 65, 94
9, 32496, Note_on_c, 7, 65, 0
9, 32511, Note_on_c, 7, 65, 91
9, 32606, Note_on_c, 7, 65, 0
9, 32627, Note_on_c, 7, 65, 86
9, 33011, Note_on_c, 7, 65, 0
9, 33080, Note_on_c, 7, 58, 78
9, 33112, Note_on_c, 7, 58, 0
9, 33124, Note_on_c, 7, 67, 95
9, 33189, Note_on_c, 7, 67, 0
9, 33200, Note_on_c, 7, 65, 64
9, 33230, Note_on_c, 7, 65, 0
9, 33248, Note_on_c, 7, 63, 46
9, 33313, Note_on_c, 7, 63, 0
9, 33317, Note_on_c, 7, 70, 93
9, 33841, Note_on_c, 7, 70, 0
9, 33842, Note_on_c, 7, 67, 95
9, 33906, Note_on_c, 7, 68, 101
9, 33920, Note_on_c, 7, 67, 0
9, 33947, Note_on_c, 7, 68, 0
9, 33962, Note_on_c, 7, 70, 95
9, 34020, Note_on_c, 7, 69, 94
9, 34079, Note_on_c, 7, 70, 0
9, 34979, Note_on_c, 7, 69, 0
9, 35040, Note_on_c, 7, 68, 100
9, 36000, Note_on_c, 7, 68, 0
9, 36000, Note_on_c, 7, 67, 100
9, 36480, Note_on_c, 7, 67, 0
9, 36480, End_track
10, 0, Start_track
10, 0, Title_t, "She (Flute)"
10, 0, Program_c, 8, 73
10, 0, Control_c, 8, 7, 70
10, 2721, Note_on_c, 8, 58, 43
10, 2767, Note_on_c, 8, 58, 0
10, 2771, Note_on_c, 8, 67, 66
10, 2810, Note_on_c, 8, 65, 64
10, 2818, Note_on_c, 8, 67, 0
10, 2846, Note_on_c, 8, 65, 0
10, 2849, Note_on_c, 8, 63, 30
10, 2881, Note_on_c, 8, 63, 0
10, 2887, Note_on_c, 8, 67, 69
10, 2990, Note_on_c, 8, 67, 0
10, 2992, Note_on_c, 8, 63, 33
10, 3065, Note_on_c, 8, 63, 0
10, 3079, Note_on_c, 8, 63, 50
10, 3272, Note_on_c, 8, 63, 0
10, 3678, Note_on_c, 8, 58, 35
10, 3713, Note_on_c, 8, 58, 0
10, 3718, Note_on_c, 8, 68, 71
10, 3752, Note_on_c, 8, 68, 0
10, 3758, Note_on_c, 8, 67, 62
10, 3791, Note_on_c, 8, 67, 0
10, 3799, Note_on_c, 8, 65, 56
10, 3830, Note_on_c, 8, 65, 0
10, 3840, Note_on_c, 8, 68, 64
10, 3957, Note_on_c, 8, 68, 0
10, 3961, Note_on_c, 8, 65, 47
10, 4021, Note_on_c, 8, 65, 0
10, 4033, Note_on_c, 8, 65, 68
10, 4211, Note_on_c, 8, 65, 0
10, 4517, Note_on_c, 8, 58, 49
10, 4555, Note_on_c, 8, 58, 0
10, 4563, Note_on_c, 8, 67, 79
10, 4637, Note_on_c, 8, 65, 61
10, 4643, Note_on_c, 8, 67, 0
10, 4672, Note_on_c, 8, 65, 0
10, 4686, Note_on_c, 8, 63, 20
10, 4755, Note_on_c, 8, 63, 0
10, 4755, Note_on_c, 8, 67, 71
10, 4876, Note_on_c, 8, 63, 65
10, 4878, Note_on_c, 8, 67, 0
10, 4939, Note_on_c, 8, 63, 0
10, 4996, Note_on_c, 8, 63, 72
10, 5186, Note_on_c, 8, 63, 0
10, 5356, Note_on_c, 8, 72, 87
10, 5511, Note_on_c, 8, 72, 0
10, 5518, Note_on_c, 8, 70, 65
10, 5590, Note_on_c, 8, 70, 0
10, 5636, Note_on_c, 8, 65, 27
10, 5697, Note_on_c, 8, 65, 0
10, 5756, Note_on_c, 8, 72, 67
10, 5866, Note_on_c, 8, 72, 0
10, 5876, Note_on_c, 8, 70, 77
10, 5998, Note_on_c, 8, 65, 62
10, 6007, Note_on_c, 8, 70, 0
10, 6112, Note_on_c, 8, 65, 0
10, 6115, Note_on_c, 8, 67, 64
10, 6234, Note_on_c, 8, 67, 0
10, 6235, Note_on_c, 8, 68, 57
10, 6638, Note_on_c, 8, 68, 0
10, 6721, Note_on_c, 8, 72, 79
10, 6782, Note_on_c, 8, 72, 0
10, 6800, Note_on_c, 8, 63, 49
10, 6835, Note_on_c, 8, 63, 0
10, 6848, Note_on_c, 8, 63, 47
10, 6940, Note_on_c, 8, 63, 0
10, 6959, Note_on_c, 8, 63, 52
10, 7051, Note_on_c, 8, 63, 0
10, 7076, Note_on_c, 8, 63, 44
10, 7174, Note_on_c, 8, 63, 0
10, 7193, Note_on_c, 8, 63, 49
10, 7261, Note_on_c, 8, 63, 0
10, 7270, Note_on_c, 8, 63, 53
10, 7357, Note_on_c, 8, 63, 0
10, 7681, Note_on_c, 8, 71, 88
10, 7752, Note_on_c, 8, 71, 0
10, 7752, Note_on_c, 8, 63, 57
10, 7789, Note_on_c, 8, 63, 0
10, 7802, Note_on_c, 8, 63, 52
10, 7858, Note_on_c, 8, 63, 0
10, 7877, Note_on_c, 8, 63, 48
10, 7913, Note_on_c, 8, 63, 0
10, 7927, Note_on_c, 8, 63, 47
10, 7976, Note_on_c, 8, 63, 0
10, 7994, Note_on_c, 8, 63, 45
10, 8024, Note_on_c, 8, 63, 0
10, 8040, Note_on_c, 8, 63, 55
10, 8137, Note_on_c, 8, 63, 0
10, 8157, Note_on_c, 8, 63, 72
10, 8296, Note_on_c, 8, 63, 0
10, 8640, Note_on_c, 8, 72, 83
10, 8707, Note_on_c, 8, 72, 0
10, 8715, Note_on_c, 8, 63, 57
10, 8748, Note_on_c, 8, 63, 0
10, 8761, Note_on_c, 8, 63, 42
10, 8820, Note_on_c, 8, 63, 0
10, 8837, Note_on_c, 8, 63, 48
10, 8875, Note_on_c, 8, 63, 0
10, 8886, Note_on_c, 8, 63, 40
10, 8979, Note_on_c, 8, 63, 0
10, 9001, Note_on_c, 8, 63, 53
10, 9099, Note_on_c, 8, 63, 0
10, 9116, Note_on_c, 8, 63, 54
10, 9182, Note_on_c, 8, 63, 0
10, 9193, Note_on_c, 8, 63, 57
10, 9420, Note_on_c, 8, 63, 0
10, 9598, Note_on_c, 8, 72, 75
10, 9660, Note_on_c, 8, 72, 0
10, 9672, Note_on_c, 8, 60, 64
10, 9703, Note_on_c, 8, 60, 0
10, 9720, Note_on_c, 8, 60, 58
10, 9787, Note_on_c, 8, 60, 0
10, 9796, Note_on_c, 8, 58, 39
10, 9828, Note_on_c, 8, 58, 0
10, 9847, Note_on_c, 8, 60, 58
10, 9918, Note_on_c, 8, 60, 0
10, 9918, Note_on_c, 8, 58, 58
10, 9956, Note_on_c, 8, 58, 0
10, 9969, Note_on_c, 8, 60, 55
10, 10029, Note_on_c, 8, 60, 0
10, 10041, Note_on_c, 8, 63, 73
10, 10073, Note_on_c, 8, 63, 0
10, 10397, Note_on_c, 8, 58, 43
10, 10443, Note_on_c, 8, 58, 0
10, 10447, Note_on_c, 8, 67, 66
10, 10486, Note_on_c, 8, 65, 64
10, 10494, Note_on_c, 8, 67, 0
10, 10522, Note_on_c, 8, 65, 0
10, 10525, Note_on_c, 8, 63, 30
10, 10557, Note_on_c, 8, 63, 0
10, 10563, Note_on_c, 8, 67, 69
10, 10666, Note_on_c, 8, 67, 0
10, 10668, Note_on_c, 8, 63, 33
10, 10741, Note_on_c, 8, 63, 0
10, 10755, Note_on_c, 8, 63, 50
10, 10948, Note_on_c, 8, 63, 0
10, 11354, Note_on_c, 8, 58, 35
10, 11389, Note_on_c, 8, 58, 0
10, 11394, Note_on_c, 8, 68, 71
10, 11428, Note_on_c, 8, 68, 0
10, 11434, Note_on_c, 8, 67, 62
10, 11467, Note_on_c, 8, 67, 0
10, 11475, Note_on_c, 8, 65, 56
10, 11506, Note_on_c, 8, 65, 0
10, 11516, Note_on_c, 8, 68, 64
10, 11633, Note_on_c, 8, 68, 0
10, 11637, Note_on_c, 8, 65, 47
10, 11697, Note_on_c, 8, 65, 0
10, 11709, Note_on_c, 8, 65, 68
10, 11887, Note_on_c, 8, 65, 0
10, 12193, Note_on_c, 8, 58, 49
10, 12231, Note_on_c, 8, 58, 0
10, 12239, Note_on_c, 8, 67, 79
10, 12313, Note_on_c, 8, 65, 61
10, 12319, Note_on_c, 8, 67, 0
10, 12348, Note_on_c, 8, 65, 0
10, 12362, Note_on_c, 8, 63, 20
10, 12431, Note_on_c, 8, 63, 0
10, 12431, Note_on_c, 8, 67, 71
10, 12552, Note_on_c, 8, 63, 65
10, 12554, Note_on_c, 8, 67, 0
10, 12615, Note_on_c, 8, 63, 0
10, 12672, Note_on_c, 8, 63, 72
10, 12862, Note_on_c, 8, 63, 0
10, 13032, Note_on_c, 8, 72, 87
10, 13187, Note_on_c, 8, 72, 0
10, 13194, Note_on_c, 8, 70, 65
10, 13266, Note_on_c, 8, 70, 0
10, 13312, Note_on_c, 8, 65, 27
10, 13373, Note_on_c, 8, 65, 0
10, 13432, Note_on_c, 8, 72, 67
10, 13542, Note_on_c, 8, 72, 0
10, 13552, Note_on_c, 8, 70, 77
10, 13674, Note_on_c, 8, 65, 62
10, 13683, Note_on_c, 8, 70, 0
10, 13788, Note_on_c, 8, 65, 0
10, 13791, Note_on_c, 8, 67, 64
10, 13910, Note_on_c, 8, 67, 0
10, 13911, Note_on_c, 8, 68, 57
10, 14314, Note_on_c, 8, 68, 0
10, 14397, Note_on_c, 8, 72, 79
10, 14458, Note_on_c, 8, 72, 0
10, 14476, Note_on_c, 8, 63, 49
10, 14511, Note_on_c, 8, 63, 0
10, 14524, Note_on_c, 8, 63, 47
10, 14616, Note_on_c, 8, 63, 0
10, 14635, Note_on_c, 8, 63, 52
10, 14727, Note_on_c, 8, 63, 0
10, 14752, Note_on_c, 8, 63, 44
10, 14850, Note_on_c, 8, 63, 0
10, 14885, Note_on_c, 8, 63, 51
10, 14938, Note_on_c, 8, 63, 0
10, 14959, Note_on_c, 8, 63, 46
10, 15007, Note_on_c, 8, 63, 0
10, 15347, Note_on_c, 8, 72, 58
10, 15412, Note_on_c, 8, 72, 0
10, 15427, Note_on_c, 8, 60, 48
10, 15459, Note_on_c, 8, 60, 0
10, 15476, Note_on_c, 8, 60, 52
10, 15539, Note_on_c, 8, 60, 0
10, 15551, Note_on_c, 8, 58, 36
10, 15589, Note_on_c, 8, 58, 0
10, 15594, Note_on_c, 8, 60, 56
10, 15671, Note_on_c, 8, 60, 0
10, 15673, Note_on_c, 8, 58, 38
10, 15713, Note_on_c, 8, 58, 0
10, 15718, Note_on_c, 8, 60, 45
10, 15780, Note_on_c, 8, 63, 44
10, 15790, Note_on_c, 8, 60, 0
10, 16015, Note_on_c, 8, 63, 0
10, 16034, Note_on_c, 8, 58, 38
10, 16071, Note_on_c, 8, 58, 0
10, 16078, Note_on_c, 8, 67, 56
10, 16143, Note_on_c, 8, 67, 0
10, 16150, Note_on_c, 8, 68, 56
10, 16188, Note_on_c, 8, 68, 0
10, 16194, Note_on_c, 8, 70, 55
10, 16263, Note_on_c, 8, 70, 0
10, 16273, Note_on_c, 8, 73, 60
10, 16381, Note_on_c, 8, 73, 0
10, 16390, Note_on_c, 8, 72, 55
10, 16560, Note_on_c, 8, 67, 49
10, 16586, Note_on_c, 8, 72, 0
10, 16610, Note_on_c, 8, 67, 0
10, 16626, Note_on_c, 8, 68, 64
10, 16668, Note_on_c, 8, 68, 0
10, 16673, Note_on_c, 8, 70, 64
10, 16740, Note_on_c, 8, 69, 71
10, 16752, Note_on_c, 8, 70, 0
10, 17027, Note_on_c, 8, 69, 0
10, 17044, Note_on_c, 8, 68, 56
10, 17276, Note_on_c, 8, 68, 0
10, 17280, Note_on_c, 8, 67, 54
10, 17523, Note_on_c, 8, 67, 0
10, 20001, Note_on_c, 8, 58, 43
10, 20047, Note_on_c, 8, 58, 0
10, 20051, Note_on_c, 8, 67, 66
10, 20090, Note_on_c, 8, 65, 64
10, 20098, Note_on_c, 8, 67, 0
10, 20126, Note_on_c, 8, 65, 0
10, 20129, Note_on_c, 8, 63, 30
10, 20161, Note_on_c, 8, 63, 0
10, 20167, Note_on_c, 8, 67, 69
10, 20270, Note_on_c, 8, 67, 0
10, 20272, Note_on_c, 8, 63, 33
10, 20345, Note_on_c, 8, 63, 0
10, 20359, Note_on_c, 8, 63, 50
10, 20552, Note_on_c, 8, 63, 0
10, 20958, Note_on_c, 8, 58, 35
10, 20993, Note_on_c, 8, 58, 0
10, 20998, Note_on_c, 8, 68, 71
10, 21032, Note_on_c, 8, 68, 0
10, 21038, Note_on_c, 8, 67, 62
10, 21071, Note_on_c, 8, 67, 0
10, 21079, Note_on_c, 8, 65, 56
10, 21110, Note_on_c, 8, 65, 0
10, 21120, Note_on_c, 8, 68, 64
10, 21237, Note_on_c, 8, 68, 0
10, 21241, Note_on_c, 8, 65, 47
10, 21301, Note_on_c, 8, 65, 0
10, 21313, Note_on_c, 8, 65, 68
10, 21491, Note_on_c, 8, 65, 0
10, 21797, Note_on_c, 8, 58, 49
10, 21835, Note_on_c, 8, 58, 0
10, 21843, Note_on_c, 8, 67, 79
10, 21917, Note_on_c, 8, 65, 61
10, 21923, Note_on_c, 8, 67, 0
10, 21952, Note_on_c, 8, 65, 0
10, 21966, Note_on_c, 8, 63, 20
10, 22035, Note_on_c, 8, 63, 0
10, 22035, Note_on_c, 8, 67, 71
10, 22156, Note_on_c, 8, 63, 65
10, 22158, Note_on_c, 8, 67, 0
10, 22219, Note_on_c, 8, 63, 0
10, 22276, Note_on_c, 8, 63, 72
10, 22466, Note_on_c, 8, 63, 0
10, 22636, Note_on_c, 8, 72, 87
10, 22791, Note_on_c, 8, 72, 0
10, 22798, Note_on_c, 8, 70, 65
10, 22870, Note_on_c, 8, 70, 0
10, 22916, Note_on_c, 8, 65, 27
10, 22977, Note_on_c, 8, 65, 0
10, 23036, Note_on_c, 8, 72, 67
10, 23146, Note_on_c, 8, 72, 0
10, 23156, Note_on_c, 8, 70, 77
10, 23278, Note_on_c, 8, 65, 62
10, 23287, Note_on_c, 8, 70, 0
10, 23392, Note_on_c, 8, 65, 0
10, 23395, Note_on_c, 8, 67, 64
10, 23514, Note_on_c, 8, 67, 0
10, 23515, Note_on_c, 8, 68, 57
10, 23918, Note_on_c, 8, 68, 0
10, 24001, Note_on_c, 8, 72, 79
10, 24062, Note_on_c, 8, 72, 0
10, 24080, Note_on_c, 8, 63, 49
10, 24115, Note_on_c, 8, 63, 0
10, 24128, Note_on_c, 8, 63, 47
10, 24220, Note_on_c, 8, 63, 0
10, 24239, Note_on_c, 8, 63, 52
10, 24331, Note_on_c, 8, 63, 0
10, 24356, Note_on_c, 8, 63, 44
10, 24454, Note_on_c, 8, 63, 0
10, 24473, Note_on_c, 8, 63, 49
10, 24541, Note_on_c, 8, 63, 0
10, 24550, Note_on_c, 8, 63, 53
10, 24637, Note_on_c, 8, 63, 0
10, 24961, Note_on_c, 8, 71, 88
10, 25032, Note_on_c, 8, 71, 0
10, 25032, Note_on_c, 8, 63, 57
10, 25069, Note_on_c, 8, 63, 0
10, 25082, Note_on_c, 8, 63, 52
10, 25138, Note_on_c, 8, 63, 0
10, 25157, Note_on_c, 8, 63, 48
10, 25193, Note_on_c, 8, 63, 0
10, 25207, Note_on_c, 8, 63, 47
10, 25256, Note_on_c, 8, 63, 0
10, 25274, Note_on_c, 8, 63, 45
10, 25304, Note_on_c, 8, 63, 0
10, 25320, Note_on_c, 8, 63, 55
10, 25417, Note_on_c, 8, 63, 0
10, 25437, Note_on_c, 8, 63, 72
10, 25576, Note_on_c, 8, 63, 0
10, 25920, Note_on_c, 8, 72, 83
10, 25987, Note_on_c, 8, 72, 0
10, 25995, Note_on_c, 8, 63, 57
10, 26028, Note_on_c, 8, 63, 0
10, 26041, Note_on_c, 8, 63, 42
10, 26100, Note_on_c, 8, 63, 0
10, 26117, Note_on_c, 8, 63, 48
10, 26155, Note_on_c, 8, 63, 0
10, 26166, Note_on_c, 8, 63, 40
10, 26259, Note_on_c, 8, 63, 0
10, 26281, Note_on_c, 8, 63, 53
10, 26379, Note_on_c, 8, 63, 0
10, 26396, Note_on_c, 8, 63, 54
10, 26462, Note_on_c, 8, 63, 0
10, 26473, Note_on_c, 8, 63, 57
10, 26700, Note_on_c, 8, 63, 0
10, 26878, Note_on_c, 8, 72, 75
10, 26940, Note_on_c, 8, 72, 0
10, 26952, Note_on_c, 8, 60, 64
10, 26983, Note_on_c, 8, 60, 0
10, 27000, Note_on_c, 8, 60, 58
10, 27067, Note_on_c, 8, 60, 0
10, 27076, Note_on_c, 8, 58, 39
10, 27108, Note_on_c, 8, 58, 0
10, 27127, Note_on_c, 8, 60, 58
10, 27198, Note_on_c, 8, 60, 0
10, 27198, Note_on_c, 8, 58, 58
10, 27236, Note_on_c, 8, 58, 0
10, 27249, Note_on_c, 8, 60, 55
10, 27309, Note_on_c, 8, 60, 0
10, 27321, Note_on_c, 8, 63, 73
10, 27353, Note_on_c, 8, 63, 0
10, 27677, Note_on_c, 8, 58, 43
10, 27723, Note_on_c, 8, 58, 0
10, 27727, Note_on_c, 8, 67, 66
10, 27766, Note_on_c, 8, 65, 64
10, 27774, Note_on_c, 8, 67, 0
10, 27802, Note_on_c, 8, 65, 0
10, 27805, Note_on_c, 8, 63, 30
10, 27837, Note_on_c, 8, 63, 0
10, 27843, Note_on_c, 8, 67, 69
10, 27946, Note_on_c, 8, 67, 0
10, 27948, Note_on_c, 8, 63, 33
10, 28021, Note_on_c, 8, 63, 0
10, 28035, Note_on_c, 8, 63, 50
10, 28228, Note_on_c, 8, 63, 0
10, 28634, Note_on_c, 8, 58, 35
10, 28669, Note_on_c, 8, 58, 0
10, 28674, Note_on_c, 8, 68, 71
10, 28708, Note_on_c, 8, 68, 0
10, 28714, Note_on_c, 8, 67, 62
10, 28747, Note_on_c, 8, 67, 0
10, 28755, Note_on_c, 8, 65, 56
10, 28786, Note_on_c, 8, 65, 0
10, 28796, Note_on_c, 8, 68, 64
10, 28913, Note_on_c, 8, 68, 0
10, 28917, Note_on_c, 8, 65, 47
10, 28977, Note_on_c, 8, 65, 0
10, 28989, Note_on_c, 8, 65, 68
10, 29167, Note_on_c, 8, 65, 0
10, 29473, Note_on_c, 8, 58, 49
10, 29511, Note_on_c, 8, 58, 0
10, 29519, Note_on_c, 8, 67, 79
10, 29593, Note_on_c, 8, 65, 61
10, 29599, Note_on_c, 8, 67, 0
10, 29628, Note_on_c, 8, 65, 0
10, 29642, Note_on_c, 8, 63, 20
10, 29711, Note_on_c, 8, 63, 0
10, 29711, Note_on_c, 8, 67, 71
10, 29832, Note_on_c, 8, 63, 65
10, 29834, Note_on_c, 8, 67, 0
10, 29895, Note_on_c, 8, 63, 0
10, 29952, Note_on_c, 8, 63, 72
10, 30142, Note_on_c, 8, 63, 0
10, 30312, Note_on_c, 8, 72, 87
10, 30467, Note_on_c, 8, 72, 0
10, 30474, Note_on_c, 8, 70, 65
10, 30546, Note_on_c, 8, 70, 0
10, 30592, Note_on_c, 8, 65, 27
10, 30653, Note_on_c, 8, 65, 0
10, 30712, Note_on_c, 8, 72, 67
10, 30822, Note_on_c, 8, 72, 0
10, 30832, Note_on_c, 8, 70, 77
10, 30954, Note_on_c, 8, 65, 62
10, 30963, Note_on_c, 8, 70, 0
10, 31068, Note_on_c, 8, 65, 0
10, 31071, Note_on_c, 8, 67, 64
10, 31190, Note_on_c, 8, 67, 0
10, 31191, Note_on_c, 8, 68, 57
10, 31594, Note_on_c, 8, 68, 0
10, 31677, Note_on_c, 8, 72, 79
10, 31738, Note_on_c, 8, 72, 0
10, 31756, Note_on_c, 8, 63, 49
10, 31791, Note_on_c, 8, 63, 0
10, 31804, Note_on_c, 8, 63, 47
10, 31896, Note_on_c, 8, 63, 0
10, 31915, Note_on_c, 8, 63, 52
10, 32007, Note_on_c, 8, 63, 0
10, 32032, Note_on_c, 8, 63, 44
10, 32130, Note_on_c, 8, 63, 0
10, 32165, Note_on_c, 8, 63, 51
10, 32218, Note_on_c, 8, 63, 0
10, 32239, Note_on_c, 8, 63, 46
10, 32287, Note_on_c, 8, 63, 0
10, 32627, Note_on_c, 8, 72, 58
10, 32692, Note_on_c, 8, 72, 0
10, 32707, Note_on_c, 8, 60, 48
10, 32739, Note_on_c, 8, 60, 0
10, 32756, Note_on_c, 8, 60, 52
10, 32819, Note_on_c, 8, 60, 0
10, 32831, Note_on_c, 8, 58, 36
10, 32869, Note_on_c, 8, 58, 0
10, 32874, Note_on_c, 8, 60, 56
10, 32951, Note_on_c, 8, 60, 0
10, 32953, Note_on_c, 8, 58, 38
10, 32993, Note_on_c, 8, 58, 0
10, 32998, Note_on_c, 8, 60, 45
10, 33060, Note_on_c, 8, 63, 44
10, 33070, Note_on_c, 8, 60, 0
10, 33295, Note_on_c, 8, 63, 0
10, 33314, Note_on_c, 8, 58, 38
10, 33351, Note_on_c, 8, 58, 0
10, 33358, Note_on_c, 8, 67, 56
10, 33423, Note_on_c, 8, 67, 0
10, 33430, Note_on_c, 8, 68, 56
10, 33468, Note_on_c, 8, 68, 0
10, 33474, Note_on_c, 8, 70, 55
10, 33543, Note_on_c, 8, 70, 0
10, 33553, Note_on_c, 8, 73, 60
10, 33661, Note_on_c, 8, 73, 0
10, 33670, Note_on_c, 8, 72, 55
10, 33840, Note_on_c, 8, 67, 49
10, 33866, Note_on_c, 8, 72, 0
10, 33890, Note_on_c, 8, 67, 0
10, 33906, Note_on_c, 8, 68, 64
10, 33948, Note_on_c, 8, 68, 0
10, 33960, Note_on_c, 8, 70, 64
10, 34020, Note_on_c, 8, 72, 71
10, 34039, Note_on_c, 8, 70, 0
10, 34979, Note_on_c, 8, 72, 0
10, 35040, Note_on_c, 8, 71, 70
10, 36000, Note_on_c, 8, 71, 0
10, 36000, Note_on_c, 8, 70, 70
10, 36480, Note_on_c, 8, 70, 0
10, 36480, End_track
11, 0, Start_track
11, 0, Title_t, "Drums (Brushes then sticks)"
11, 0, Program_c, 9, 40
11, 0, Note_on_c, 9, 42, 47
11, 33, Note_on_c, 9, 42, 0
11, 117, Note_on_c, 9, 42, 36
11, 151, Note_on_c, 9, 42, 0
11, 236, Note_on_c, 9, 42, 39
11, 277, Note_on_c, 9, 42, 0
11, 358, Note_on_c, 9, 42, 39
11, 385, Note_on_c, 9, 42, 0
11, 481, Note_on_c, 9, 46, 60
11, 603, Note_on_c, 9, 46, 0
11, 604, Note_on_c, 9, 42, 55
11, 687, Note_on_c, 9, 46, 55
11, 705, Note_on_c, 9, 42, 0
11, 717, Note_on_c, 9, 46, 0
11, 727, Note_on_c, 9, 46, 60
11, 847, Note_on_c, 9, 42, 52
11, 848, Note_on_c, 9, 46, 0
11, 926, Note_on_c, 9, 46, 63
11, 950, Note_on_c, 9, 42, 0
11, 960, Note_on_c, 9, 46, 0
11, 971, Note_on_c, 9, 46, 59
11, 1084, Note_on_c, 9, 46, 0
11, 1085, Note_on_c, 9, 42, 53
11, 1160, Note_on_c, 9, 46, 71
11, 1183, Note_on_c, 9, 46, 0
11, 1197, Note_on_c, 9, 46, 56
11, 1204, Note_on_c, 9, 42, 0
11, 1313, Note_on_c, 9, 46, 0
11, 1319, Note_on_c, 9, 42, 54
11, 1398, Note_on_c, 9, 46, 59
11, 1402, Note_on_c, 9, 42, 0
11, 1424, Note_on_c, 9, 46, 0
11, 1440, Note_on_c, 9, 46, 58
11, 1560, Note_on_c, 9, 42, 61
11, 1562, Note_on_c, 9, 46, 0
11, 1641, Note_on_c, 9, 42, 0
11, 1643, Note_on_c, 9, 46, 71
11, 1675, Note_on_c, 9, 46, 0
11, 1685, Note_on_c, 9, 46, 45
11, 1801, Note_on_c, 9, 42, 56
11, 1802, Note_on_c, 9, 46, 0
11, 1881, Note_on_c, 9, 42, 0
11, 1881, Note_on_c, 9, 46, 46
11, 1913, Note_on_c, 9, 46, 0
11, 1928, Note_on_c, 9, 46, 59
11, 2049, Note_on_c, 9, 42, 60
11, 2050, Note_on_c, 9, 46, 0
11, 2066, Note_on_c, 9, 42, 0
11, 2122, Note_on_c, 9, 46, 64
11, 2148, Note_on_c, 9, 46, 0
11, 2167, Note_on_c, 9, 46, 61
11, 2287, Note_on_c, 9, 46, 0
11, 2287, Note_on_c, 9, 42, 51
11, 2362, Note_on_c, 9, 42, 0
11, 2362, Note_on_c, 9, 46, 60
11, 2378, Note_on_c, 9, 46, 0
11, 2403, Note_on_c, 9, 46, 57
11, 2403, Note_on_c, 9, 40, 66
11, 2413, Note_on_c, 9, 46, 0
11, 2506, Note_on_c, 9, 40, 0
11, 2519, Note_on_c, 9, 40, 62
11, 2531, Note_on_c, 9, 44, 62
11, 2560, Note_on_c, 9, 44, 0
11, 2614, Note_on_c, 9, 40, 0
11, 2631, Note_on_c, 9, 40, 44
11, 2742, Note_on_c, 9, 40, 0
11, 2759, Note_on_c, 9, 40, 53
11, 2759, Note_on_c, 9, 44, 64
11, 2805, Note_on_c, 9, 44, 0
11, 2834, Note_on_c, 9, 39, 56
11, 2836, Note_on_c, 9, 40, 0
11, 2861, Note_on_c, 9, 39, 0
11, 2872, Note_on_c, 9, 40, 41
11, 2969, Note_on_c, 9, 40, 0
11, 2997, Note_on_c, 9, 40, 62
11, 3001, Note_on_c, 9, 44, 61
11, 3037, Note_on_c, 9, 44, 0
11, 3094, Note_on_c, 9, 40, 0
11, 3116, Note_on_c, 9, 40, 54
11, 3190, Note_on_c, 9, 40, 0
11, 3196, Note_on_c, 9, 38, 53
11, 3217, Note_on_c, 9, 38, 0
11, 3231, Note_on_c, 9, 40, 53
11, 3238, Note_on_c, 9, 46, 37
11, 3256, Note_on_c, 9, 46, 0
11, 3308, Note_on_c, 9, 40, 0
11, 3309, Note_on_c, 9, 38, 75
11, 3340, Note_on_c, 9, 38, 0
11, 3351, Note_on_c, 9, 40, 40
11, 3422, Note_on_c, 9, 40, 0
11, 3435, Note_on_c, 9, 40, 50
11, 3470, Note_on_c, 9, 40, 0
11, 3480, Note_on_c, 9, 40, 57
11, 3481, Note_on_c, 9, 44, 51
11, 3503, Note_on_c, 9, 44, 0
11, 3587, Note_on_c, 9, 40, 0
11, 3603, Note_on_c, 9, 40, 52
11, 3673, Note_on_c, 9, 40, 0
11, 3675, Note_on_c, 9, 39, 54
11, 3700, Note_on_c, 9, 39, 0
11, 3717, Note_on_c, 9, 40, 33
11, 3718, Note_on_c, 9, 44, 50
11, 3740, Note_on_c, 9, 44, 0
11, 3778, Note_on_c, 9, 40, 0
11, 3794, Note_on_c, 9, 40, 74
11, 3825, Note_on_c, 9, 40, 0
11, 3837, Note_on_c, 9, 40, 58
11, 3950, Note_on_c, 9, 40, 0
11, 3959, Note_on_c, 9, 44, 46
11, 3961, Note_on_c, 9, 40, 68
11, 3987, Note_on_c, 9, 40, 0
11, 3989, Note_on_c, 9, 44, 0
11, 4006, Note_on_c, 9, 38, 56
11, 4031, Note_on_c, 9, 38, 0
11, 4036, Note_on_c, 9, 40, 55
11, 4070, Note_on_c, 9, 40, 0
11, 4079, Note_on_c, 9, 40, 52
11, 4196, Note_on_c, 9, 40, 0
11, 4199, Note_on_c, 9, 44, 59
11, 4208, Note_on_c, 9, 40, 66
11, 4220, Note_on_c, 9, 44, 0
11, 4313, Note_on_c, 9, 40, 0
11, 4326, Note_on_c, 9, 40, 68
11, 4431, Note_on_c, 9, 40, 0
11, 4442, Note_on_c, 9, 44, 53
11, 4444, Note_on_c, 9, 40, 62
11, 4464, Note_on_c, 9, 44, 0
11, 4521, Note_on_c, 9, 39, 71
11, 4533, Note_on_c, 9, 40, 0
11, 4538, Note_on_c, 9, 39, 0
11, 4555, Note_on_c, 9, 40, 63
11, 4665, Note_on_c, 9, 40, 0
11, 4680, Note_on_c, 9, 40, 68
11, 4681, Note_on_c, 9, 44, 56
11, 4700, Note_on_c, 9, 44, 0
11, 4783, Note_on_c, 9, 40, 0
11, 4801, Note_on_c, 9, 40, 63
11, 4908, Note_on_c, 9, 40, 0
11, 4920, Note_on_c, 9, 40, 62
11, 4926, Note_on_c, 9, 44, 52
11, 4943, Note_on_c, 9, 44, 0
11, 5000, Note_on_c, 9, 38, 63
11, 5015, Note_on_c, 9, 38, 0
11, 5017, Note_on_c, 9, 40, 0
11, 5035, Note_on_c, 9, 40, 48
11, 5143, Note_on_c, 9, 40, 0
11, 5157, Note_on_c, 9, 40, 65
11, 5162, Note_on_c, 9, 44, 63
11, 5180, Note_on_c, 9, 44, 0
11, 5237, Note_on_c, 9, 38, 79
11, 5240, Note_on_c, 9, 40, 0
11, 5260, Note_on_c, 9, 38, 0
11, 5271, Note_on_c, 9, 40, 53
11, 5378, Note_on_c, 9, 40, 0
11, 5393, Note_on_c, 9, 40, 66
11, 5402, Note_on_c, 9, 44, 57
11, 5417, Note_on_c, 9, 44, 0
11, 5475, Note_on_c, 9, 39, 55
11, 5482, Note_on_c, 9, 40, 0
11, 5496, Note_on_c, 9, 39, 0
11, 5509, Note_on_c, 9, 40, 51
11, 5615, Note_on_c, 9, 40, 0
11, 5635, Note_on_c, 9, 44, 64
11, 5641, Note_on_c, 9, 40, 64
11, 5652, Note_on_c, 9, 44, 0
11, 5737, Note_on_c, 9, 40, 0
11, 5756, Note_on_c, 9, 40, 66
11, 5860, Note_on_c, 9, 40, 0
11, 5879, Note_on_c, 9, 40, 58
11, 5881, Note_on_c, 9, 44, 58
11, 5898, Note_on_c, 9, 44, 0
11, 5956, Note_on_c, 9, 39, 78
11, 5968, Note_on_c, 9, 40, 0
11, 5991, Note_on_c, 9, 39, 0
11, 5999, Note_on_c, 9, 40, 39
11, 6075, Note_on_c, 9, 40, 0
11, 6075, Note_on_c, 9, 39, 53
11, 6095, Note_on_c, 9, 39, 0
11, 6116, Note_on_c, 9, 46, 43
11, 6117, Note_on_c, 9, 40, 32
11, 6133, Note_on_c, 9, 46, 0
11, 6178, Note_on_c, 9, 40, 0
11, 6195, Note_on_c, 9, 40, 71
11, 6224, Note_on_c, 9, 40, 0
11, 6237, Note_on_c, 9, 40, 57
11, 6341, Note_on_c, 9, 40, 0
11, 6359, Note_on_c, 9, 40, 58
11, 6360, Note_on_c, 9, 44, 58
11, 6375, Note_on_c, 9, 44, 0
11, 6457, Note_on_c, 9, 40, 0
11, 6475, Note_on_c, 9, 40, 58
11, 6584, Note_on_c, 9, 40, 0
11, 6599, Note_on_c, 9, 44, 70
11, 6600, Note_on_c, 9, 40, 56
11, 6621, Note_on_c, 9, 44, 0
11, 6683, Note_on_c, 9, 40, 0
11, 6683, Note_on_c, 9, 38, 52
11, 6699, Note_on_c, 9, 38, 0
11, 6717, Note_on_c, 9, 40, 49
11, 6817, Note_on_c, 9, 40, 0
11, 6839, Note_on_c, 9, 40, 66
11, 6843, Note_on_c, 9, 44, 67
11, 6868, Note_on_c, 9, 44, 0
11, 6937, Note_on_c, 9, 40, 0
11, 6962, Note_on_c, 9, 40, 57
11, 7056, Note_on_c, 9, 40, 0
11, 7076, Note_on_c, 9, 40, 56
11, 7083, Note_on_c, 9, 44, 71
11, 7101, Note_on_c, 9, 44, 0
11, 7114, Note_on_c, 9, 39, 61
11, 7159, Note_on_c, 9, 39, 0
11, 7172, Note_on_c, 9, 40, 0
11, 7195, Note_on_c, 9, 40, 69
11, 7295, Note_on_c, 9, 40, 0
11, 7317, Note_on_c, 9, 40, 62
11, 7325, Note_on_c, 9, 44, 59
11, 7342, Note_on_c, 9, 44, 0
11, 7356, Note_on_c, 9, 39, 61
11, 7368, Note_on_c, 9, 39, 0
11, 7383, Note_on_c, 9, 39, 45
11, 7405, Note_on_c, 9, 39, 0
11, 7407, Note_on_c, 9, 40, 0
11, 7428, Note_on_c, 9, 40, 57
11, 7538, Note_on_c, 9, 40, 0
11, 7554, Note_on_c, 9, 44, 62
11, 7562, Note_on_c, 9, 40, 64
11, 7575, Note_on_c, 9, 44, 0
11, 7661, Note_on_c, 9, 40, 0
11, 7681, Note_on_c, 9, 40, 59
11, 7718, Note_on_c, 9, 40, 0
11, 7719, Note_on_c, 9, 38, 49
11, 7747, Note_on_c, 9, 38, 0
11, 7757, Note_on_c, 9, 40, 48
11, 7791, Note_on_c, 9, 40, 0
11, 7800, Note_on_c, 9, 40, 73
11, 7804, Note_on_c, 9, 44, 62
11, 7823, Note_on_c, 9, 44, 0
11, 7902, Note_on_c, 9, 40, 0
11, 7921, Note_on_c, 9, 40, 41
11, 7958, Note_on_c, 9, 40, 0
11, 7960, Note_on_c, 9, 38, 68
11, 8026, Note_on_c, 9, 38, 0
11, 8037, Note_on_c, 9, 40, 68
11, 8041, Note_on_c, 9, 46, 31
11, 8056, Note_on_c, 9, 46, 0
11, 8103, Note_on_c, 9, 40, 0
11, 8113, Note_on_c, 9, 40, 53
11, 8140, Note_on_c, 9, 40, 0
11, 8152, Note_on_c, 9, 40, 59
11, 8254, Note_on_c, 9, 40, 0
11, 8272, Note_on_c, 9, 40, 58
11, 8274, Note_on_c, 9, 44, 57
11, 8296, Note_on_c, 9, 44, 0
11, 8380, Note_on_c, 9, 40, 0
11, 8395, Note_on_c, 9, 40, 51
11, 8496, Note_on_c, 9, 40, 0
11, 8519, Note_on_c, 9, 40, 68
11, 8520, Note_on_c, 9, 44, 64
11, 8542, Note_on_c, 9, 44, 0
11, 8550, Note_on_c, 9, 40, 0
11, 8555, Note_on_c, 9, 40, 51
11, 8620, Note_on_c, 9, 40, 0
11, 8636, Note_on_c, 9, 40, 66
11, 8738, Note_on_c, 9, 40, 0
11, 8757, Note_on_c, 9, 40, 61
11, 8761, Note_on_c, 9, 44, 64
11, 8782, Note_on_c, 9, 44, 0
11, 8846, Note_on_c, 9, 38, 13
11, 8854, Note_on_c, 9, 40, 0
11, 8861, Note_on_c, 9, 38, 0
11, 8877, Note_on_c, 9, 40, 61
11, 8921, Note_on_c, 9, 40, 0
11, 8924, Note_on_c, 9, 39, 58
11, 8947, Note_on_c, 9, 39, 0
11, 8959, Note_on_c, 9, 40, 52
11, 8996, Note_on_c, 9, 40, 0
11, 9002, Note_on_c, 9, 44, 71
11, 9004, Note_on_c, 9, 40, 57
11, 9022, Note_on_c, 9, 44, 0
11, 9064, Note_on_c, 9, 40, 0
11, 9079, Note_on_c, 9, 40, 50
11, 9108, Note_on_c, 9, 40, 0
11, 9119, Note_on_c, 9, 40, 66
11, 9218, Note_on_c, 9, 40, 0
11, 9241, Note_on_c, 9, 44, 64
11, 9243, Note_on_c, 9, 40, 67
11, 9262, Note_on_c, 9, 44, 0
11, 9305, Note_on_c, 9, 40, 0
11, 9322, Note_on_c, 9, 40, 42
11, 9343, Note_on_c, 9, 40, 0
11, 9361, Note_on_c, 9, 40, 49
11, 9387, Note_on_c, 9, 40, 0
11, 9434, Note_on_c, 9, 40, 62
11, 9463, Note_on_c, 9, 40, 0
11, 9480, Note_on_c, 9, 40, 41
11, 9480, Note_on_c, 9, 44, 68
11, 9499, Note_on_c, 9, 44, 0
11, 9547, Note_on_c, 9, 40, 0
11, 9554, Note_on_c, 9, 39, 54
11, 9579, Note_on_c, 9, 39, 0
11, 9596, Note_on_c, 9, 49, 65
11, 9597, Note_on_c, 9, 40, 49
11, 9612, Note_on_c, 9, 49, 0
11, 9628, Note_on_c, 9, 40, 0
11, 9722, Note_on_c, 9, 44, 55
11, 9735, Note_on_c, 9, 44, 0
11, 9957, Note_on_c, 9, 44, 68
11, 9975, Note_on_c, 9, 44, 0
11, 10079, Note_on_c, 9, 40, 66
11, 10182, Note_on_c, 9, 40, 0
11, 10195, Note_on_c, 9, 40, 62
11, 10207, Note_on_c, 9, 44, 62
11, 10236, Note_on_c, 9, 44, 0
11, 10290, Note_on_c, 9, 40, 0
11, 10307, Note_on_c, 9, 40, 44
11, 10418, Note_on_c, 9, 40, 0
11, 10435, Note_on_c, 9, 44, 64
11, 10435, Note_on_c, 9, 40, 53
11, 10481, Note_on_c, 9, 44, 0
11, 10510, Note_on_c, 9, 39, 56
11, 10512, Note_on_c, 9, 40, 0
11, 10537, Note_on_c, 9, 39, 0
11, 10548, Note_on_c, 9, 40, 41
11, 10645, Note_on_c, 9, 40, 0
11, 10673, Note_on_c, 9, 40, 62
11, 10677, Note_on_c, 9, 44, 61
11, 10713, Note_on_c, 9, 44, 0
11, 10770, Note_on_c, 9, 40, 0
11, 10792, Note_on_c, 9, 40, 54
11, 10866, Note_on_c, 9, 40, 0
11, 10872, Note_on_c, 9, 38, 53
11, 10893, Note_on_c, 9, 38, 0
11, 10907, Note_on_c, 9, 40, 53
11, 10914, Note_on_c, 9, 46, 37
11, 10932, Note_on_c, 9, 46, 0
11, 10984, Note_on_c, 9, 40, 0
11, 10985, Note_on_c, 9, 38, 75
11, 11016, Note_on_c, 9, 38, 0
11, 11027, Note_on_c, 9, 40, 40
11, 11098, Note_on_c, 9, 40, 0
11, 11111, Note_on_c, 9, 40, 50
11, 11146, Note_on_c, 9, 40, 0
11, 11156, Note_on_c, 9, 40, 57
11, 11157, Note_on_c, 9, 44, 51
11, 11179, Note_on_c, 9, 44, 0
11, 11263, Note_on_c, 9, 40, 0
11, 11279, Note_on_c, 9, 40, 52
11, 11349, Note_on_c, 9, 40, 0
11, 11351, Note_on_c, 9, 39, 54
11, 11376, Note_on_c, 9, 39, 0
11, 11393, Note_on_c, 9, 40, 33
11, 11394, Note_on_c, 9, 44, 50
11, 11416, Note_on_c, 9, 44, 0
11, 11454, Note_on_c, 9, 40, 0
11, 11470, Note_on_c, 9, 40, 74
11, 11501, Note_on_c, 9, 40, 0
11, 11513, Note_on_c, 9, 40, 58
11, 11626, Note_on_c, 9, 40, 0
11, 11635, Note_on_c, 9, 44, 46
11, 11637, Note_on_c, 9, 40, 68
11, 11663, Note_on_c, 9, 40, 0
11, 11665, Note_on_c, 9, 44, 0
11, 11682, Note_on_c, 9, 38, 56
11, 11707, Note_on_c, 9, 38, 0
11, 11712, Note_on_c, 9, 40, 55
11, 11746, Note_on_c, 9, 40, 0
11, 11755, Note_on_c, 9, 40, 52
11, 11872, Note_on_c, 9, 40, 0
11, 11875, Note_on_c, 9, 44, 59
11, 11884, Note_on_c, 9, 40, 66
11, 11896, Note_on_c, 9, 44, 0
11, 11989, Note_on_c, 9, 40, 0
11, 12002, Note_on_c, 9, 40, 68
11, 12107, Note_on_c, 9, 40, 0
11, 12118, Note_on_c, 9, 44, 53
11, 12120, Note_on_c, 9, 40, 62
11, 12140, Note_on_c, 9, 44, 0
11, 12197, Note_on_c, 9, 39, 71
11, 12209, Note_on_c, 9, 40, 0
11, 12214, Note_on_c, 9, 39, 0
11, 12231, Note_on_c, 9, 40, 63
11, 12341, Note_on_c, 9, 40, 0
11, 12356, Note_on_c, 9, 40, 68
11, 12357, Note_on_c, 9, 44, 56
11, 12376, Note_on_c, 9, 44, 0
11, 12459, Note_on_c, 9, 40, 0
11, 12477, Note_on_c, 9, 40, 63
11, 12584, Note_on_c, 9, 40, 0
11, 12596, Note_on_c, 9, 40, 62
11, 12602, Note_on_c, 9, 44, 52
11, 12619, Note_on_c, 9, 44, 0
11, 12676, Note_on_c, 9, 38, 63
11, 12691, Note_on_c, 9, 38, 0
11, 12693, Note_on_c, 9, 40, 0
11, 12711, Note_on_c, 9, 40, 48
11, 12819, Note_on_c, 9, 40, 0
11, 12833, Note_on_c, 9, 40, 65
11, 12838, Note_on_c, 9, 44, 63
11, 12856, Note_on_c, 9, 44, 0
11, 12913, Note_on_c, 9, 38, 79
11, 12916, Note_on_c, 9, 40, 0
11, 12936, Note_on_c, 9, 38, 0
11, 12947, Note_on_c, 9, 40, 53
11, 13054, Note_on_c, 9, 40, 0
11, 13069, Note_on_c, 9, 40, 66
11, 13078, Note_on_c, 9, 44, 57
11, 13093, Note_on_c, 9, 44, 0
11, 13151, Note_on_c, 9, 39, 55
11, 13158, Note_on_c, 9, 40, 0
11, 13172, Note_on_c, 9, 39, 0
11, 13185, Note_on_c, 9, 40, 51
11, 13291, Note_on_c, 9, 40, 0
11, 13311, Note_on_c, 9, 44, 64
11, 13317, Note_on_c, 9, 40, 64
11, 13328, Note_on_c, 9, 44, 0
11, 13413, Note_on_c, 9, 40, 0
11, 13432, Note_on_c, 9, 40, 66
11, 13536, Note_on_c, 9, 40, 0
11, 13555, Note_on_c, 9, 40, 58
11, 13557, Note_on_c, 9, 44, 58
11, 13574, Note_on_c, 9, 44, 0
11, 13632, Note_on_c, 9, 39, 78
11, 13644, Note_on_c, 9, 40, 0
11, 13667, Note_on_c, 9, 39, 0
11, 13675, Note_on_c, 9, 40, 39
11, 13751, Note_on_c, 9, 40, 0
11, 13751, Note_on_c, 9, 39, 53
11, 13771, Note_on_c, 9, 39, 0
11, 13792, Note_on_c, 9, 46, 43
11, 13793, Note_on_c, 9, 40, 32
11, 13809, Note_on_c, 9, 46, 0
11, 13854, Note_on_c, 9, 40, 0
11, 13871, Note_on_c, 9, 40, 71
11, 13900, Note_on_c, 9, 40, 0
11, 13913, Note_on_c, 9, 40, 57
11, 14017, Note_on_c, 9, 40, 0
11, 14035, Note_on_c, 9, 40, 58
11, 14036, Note_on_c, 9, 44, 58
11, 14051, Note_on_c, 9, 44, 0
11, 14133, Note_on_c, 9, 40, 0
11, 14151, Note_on_c, 9, 40, 58
11, 14260, Note_on_c, 9, 40, 0
11, 14275, Note_on_c, 9, 44, 70
11, 14276, Note_on_c, 9, 40, 56
11, 14297, Note_on_c, 9, 44, 0
11, 14359, Note_on_c, 9, 40, 0
11, 14359, Note_on_c, 9, 38, 52
11, 14375, Note_on_c, 9, 38, 0
11, 14393, Note_on_c, 9, 40, 49
11, 14493, Note_on_c, 9, 40, 0
11, 14515, Note_on_c, 9, 40, 66
11, 14519, Note_on_c, 9, 44, 67
11, 14544, Note_on_c, 9, 44, 0
11, 14613, Note_on_c, 9, 40, 0
11, 14638, Note_on_c, 9, 40, 57
11, 14732, Note_on_c, 9, 40, 0
11, 14752, Note_on_c, 9, 40, 56
11, 14759, Note_on_c, 9, 44, 71
11, 14777, Note_on_c, 9, 44, 0
11, 14790, Note_on_c, 9, 39, 61
11, 14835, Note_on_c, 9, 39, 0
11, 14848, Note_on_c, 9, 40, 0
11, 14871, Note_on_c, 9, 40, 69
11, 14971, Note_on_c, 9, 40, 0
11, 14993, Note_on_c, 9, 40, 62
11, 15001, Note_on_c, 9, 44, 59
11, 15018, Note_on_c, 9, 44, 0
11, 15032, Note_on_c, 9, 39, 61
11, 15044, Note_on_c, 9, 39, 0
11, 15059, Note_on_c, 9, 39, 45
11, 15081, Note_on_c, 9, 39, 0
11, 15083, Note_on_c, 9, 40, 0
11, 15104, Note_on_c, 9, 40, 57
11, 15214, Note_on_c, 9, 40, 0
11, 15230, Note_on_c, 9, 44, 62
11, 15238, Note_on_c, 9, 40, 64
11, 15251, Note_on_c, 9, 44, 0
11, 15337, Note_on_c, 9, 40, 0
11, 15357, Note_on_c, 9, 40, 59
11, 15394, Note_on_c, 9, 40, 0
11, 15395, Note_on_c, 9, 38, 49
11, 15423, Note_on_c, 9, 38, 0
11, 15433, Note_on_c, 9, 40, 48
11, 15467, Note_on_c, 9, 40, 0
11, 15476, Note_on_c, 9, 40, 73
11, 15480, Note_on_c, 9, 44, 62
11, 15499, Note_on_c, 9, 44, 0
11, 15578, Note_on_c, 9, 40, 0
11, 15597, Note_on_c, 9, 40, 41
11, 15634, Note_on_c, 9, 40, 0
11, 15636, Note_on_c, 9, 38, 68
11, 15702, Note_on_c, 9, 38, 0
11, 15713, Note_on_c, 9, 40, 68
11, 15717, Note_on_c, 9, 46, 31
11, 15732, Note_on_c, 9, 46, 0
11, 15779, Note_on_c, 9, 40, 0
11, 15789, Note_on_c, 9, 40, 53
11, 15816, Note_on_c, 9, 40, 0
11, 15828, Note_on_c, 9, 40, 59
11, 15930, Note_on_c, 9, 40, 0
11, 15948, Note_on_c, 9, 40, 58
11, 15950, Note_on_c, 9, 44, 57
11, 15972, Note_on_c, 9, 44, 0
11, 16056, Note_on_c, 9, 40, 0
11, 16071, Note_on_c, 9, 40, 51
11, 16172, Note_on_c, 9, 40, 0
11, 16195, Note_on_c, 9, 40, 68
11, 16196, Note_on_c, 9, 44, 64
11, 16218, Note_on_c, 9, 44, 0
11, 16226, Note_on_c, 9, 40, 0
11, 16231, Note_on_c, 9, 40, 51
11, 16296, Note_on_c, 9, 40, 0
11, 16312, Note_on_c, 9, 40, 66
11, 16414, Note_on_c, 9, 40, 0
11, 16433, Note_on_c, 9, 40, 61
11, 16437, Note_on_c, 9, 44, 64
11, 16458, Note_on_c, 9, 44, 0
11, 16522, Note_on_c, 9, 38, 13
11, 16530, Note_on_c, 9, 40, 0
11, 16537, Note_on_c, 9, 38, 0
11, 16553, Note_on_c, 9, 40, 61
11, 16597, Note_on_c, 9, 40, 0
11, 16600, Note_on_c, 9, 39, 58
11, 16623, Note_on_c, 9, 39, 0
11, 16635, Note_on_c, 9, 40, 52
11, 16672, Note_on_c, 9, 40, 0
11, 16678, Note_on_c, 9, 44, 71
11, 16680, Note_on_c, 9, 40, 57
11, 16698, Note_on_c, 9, 44, 0
11, 16740, Note_on_c, 9, 40, 0
11, 16755, Note_on_c, 9, 40, 50
11, 16784, Note_on_c, 9, 40, 0
11, 16795, Note_on_c, 9, 40, 66
11, 16894, Note_on_c, 9, 40, 0
11, 16917, Note_on_c, 9, 44, 64
11, 16919, Note_on_c, 9, 40, 67
11, 16938, Note_on_c, 9, 44, 0
11, 16981, Note_on_c, 9, 40, 0
11, 16998, Note_on_c, 9, 40, 42
11, 17019, Note_on_c, 9, 40, 0
11, 17037, Note_on_c, 9, 40, 49
11, 17063, Note_on_c, 9, 40, 0
11, 17110, Note_on_c, 9, 40, 62
11, 17139, Note_on_c, 9, 40, 0
11, 17156, Note_on_c, 9, 40, 41
11, 17156, Note_on_c, 9, 44, 68
11, 17175, Note_on_c, 9, 44, 0
11, 17223, Note_on_c, 9, 40, 0
11, 17230, Note_on_c, 9, 39, 54
11, 17255, Note_on_c, 9, 39, 0
11, 17272, Note_on_c, 9, 49, 65
11, 17273, Note_on_c, 9, 40, 49
11, 17280, Note_on_c, 9, 42, 47
11, 17288, Note_on_c, 9, 49, 0
11, 17304, Note_on_c, 9, 40, 0
11, 17313, Note_on_c, 9, 42, 0
11, 17397, Note_on_c, 9, 42, 36
11, 17398, Note_on_c, 9, 44, 55
11, 17411, Note_on_c, 9, 44, 0
11, 17431, Note_on_c, 9, 42, 0
11, 17516, Note_on_c, 9, 42, 39
11, 17557, Note_on_c, 9, 42, 0
11, 17633, Note_on_c, 9, 44, 68
11, 17638, Note_on_c, 9, 42, 39
11, 17651, Note_on_c, 9, 44, 0
11, 17665, Note_on_c, 9, 42, 0
11, 17761, Note_on_c, 9, 46, 60
11, 17883, Note_on_c, 9, 46, 0
11, 17884, Note_on_c, 9, 42, 55
11, 17967, Note_on_c, 9, 46, 55
11, 17985, Note_on_c, 9, 42, 0
11, 17997, Note_on_c, 9, 46, 0
11, 18007, Note_on_c, 9, 46, 60
11, 18127, Note_on_c, 9, 42, 52
11, 18128, Note_on_c, 9, 46, 0
11, 18206, Note_on_c, 9, 46, 63
11, 18230, Note_on_c, 9, 42, 0
11, 18240, Note_on_c, 9, 46, 0
11, 18251, Note_on_c, 9, 46, 59
11, 18364, Note_on_c, 9, 46, 0
11, 18365, Note_on_c, 9, 42, 53
11, 18440, Note_on_c, 9, 46, 71
11, 18463, Note_on_c, 9, 46, 0
11, 18477, Note_on_c, 9, 46, 56
11, 18484, Note_on_c, 9, 42, 0
11, 18593, Note_on_c, 9, 46, 0
11, 18599, Note_on_c, 9, 42, 54
11, 18678, Note_on_c, 9, 46, 59
11, 18682, Note_on_c, 9, 42, 0
11, 18704, Note_on_c, 9, 46, 0
11, 18720, Note_on_c, 9, 46, 58
11, 18840, Note_on_c, 9, 42, 61
11, 18842, Note_on_c, 9, 46, 0
11, 18921, Note_on_c, 9, 42, 0
11, 18923, Note_on_c, 9, 46, 71
11, 18955, Note_on_c, 9, 46, 0
11, 18965, Note_on_c, 9, 46, 45
11, 19081, Note_on_c, 9, 42, 56
11, 19082, Note_on_c, 9, 46, 0
11, 19161, Note_on_c, 9, 42, 0
11, 19161, Note_on_c, 9, 46, 46
11, 19193, Note_on_c, 9, 46, 0
11, 19208, Note_on_c, 9, 46, 59
11, 19329, Note_on_c, 9, 42, 60
11, 19330, Note_on_c, 9, 46, 0
11, 19346, Note_on_c, 9, 42, 0
11, 19402, Note_on_c, 9, 46, 64
11, 19428, Note_on_c, 9, 46, 0
11, 19447, Note_on_c, 9, 46, 61
11, 19567, Note_on_c, 9, 46, 0
11, 19567, Note_on_c, 9, 42, 51
11, 19642, Note_on_c, 9, 42, 0
11, 19642, Note_on_c, 9, 46, 60
11, 19658, Note_on_c, 9, 46, 0
11, 19680, Program_c, 9, 0
11, 19680, Note_on_c, 9, 59, 66
11, 19680, Note_on_c, 9, 59, 0
11, 19683, Note_on_c, 9, 46, 57
11, 19683, Note_on_c, 9, 59, 88
11, 19693, Note_on_c, 9, 46, 0
11, 19697, Note_on_c, 9, 59, 0
11, 19802, Note_on_c, 9, 59, 85
11, 19811, Note_on_c, 9, 44, 62
11, 19814, Note_on_c, 9, 59, 0
11, 19840, Note_on_c, 9, 44, 0
11, 19922, Note_on_c, 9, 59, 79
11, 19938, Note_on_c, 9, 59, 0
11, 20039, Note_on_c, 9, 44, 64
11, 20039, Note_on_c, 9, 59, 81
11, 20044, Note_on_c, 9, 38, 45
11, 20051, Note_on_c, 9, 38, 0
11, 20052, Note_on_c, 9, 59, 0
11, 20085, Note_on_c, 9, 44, 0
11, 20120, Note_on_c, 9, 38, 62
11, 20127, Note_on_c, 9, 59, 74
11, 20130, Note_on_c, 9, 38, 0
11, 20139, Note_on_c, 9, 59, 0
11, 20158, Note_on_c, 9, 59, 92
11, 20217, Note_on_c, 9, 59, 0
11, 20243, Note_on_c, 9, 36, 27
11, 20250, Note_on_c, 9, 36, 0
11, 20277, Note_on_c, 9, 59, 101
11, 20278, Note_on_c, 9, 36, 44
11, 20281, Note_on_c, 9, 44, 61
11, 20307, Note_on_c, 9, 59, 0
11, 20317, Note_on_c, 9, 44, 0
11, 20335, Note_on_c, 9, 36, 0
11, 20354, Note_on_c, 9, 36, 68
11, 20374, Note_on_c, 9, 36, 0
11, 20397, Note_on_c, 9, 59, 88
11, 20426, Note_on_c, 9, 59, 0
11, 20480, Note_on_c, 9, 59, 72
11, 20494, Note_on_c, 9, 59, 0
11, 20517, Note_on_c, 9, 59, 96
11, 20518, Note_on_c, 9, 46, 37
11, 20536, Note_on_c, 9, 46, 0
11, 20573, Note_on_c, 9, 59, 0
11, 20592, Note_on_c, 9, 38, 80
11, 20605, Note_on_c, 9, 59, 73
11, 20615, Note_on_c, 9, 59, 0
11, 20615, Note_on_c, 9, 38, 0
11, 20636, Note_on_c, 9, 59, 96
11, 20638, Note_on_c, 9, 36, 55
11, 20659, Note_on_c, 9, 36, 0
11, 20712, Note_on_c, 9, 36, 45
11, 20713, Note_on_c, 9, 59, 0
11, 20728, Note_on_c, 9, 36, 0
11, 20754, Note_on_c, 9, 59, 99
11, 20761, Note_on_c, 9, 44, 51
11, 20783, Note_on_c, 9, 44, 0
11, 20790, Note_on_c, 9, 59, 0
11, 20837, Note_on_c, 9, 59, 87
11, 20857, Note_on_c, 9, 59, 0
11, 20873, Note_on_c, 9, 59, 85
11, 20954, Note_on_c, 9, 59, 0
11, 20996, Note_on_c, 9, 59, 84
11, 20998, Note_on_c, 9, 44, 50
11, 21020, Note_on_c, 9, 44, 0
11, 21069, Note_on_c, 9, 59, 0
11, 21113, Note_on_c, 9, 59, 89
11, 21116, Note_on_c, 9, 36, 25
11, 21125, Note_on_c, 9, 36, 0
11, 21181, Note_on_c, 9, 59, 0
11, 21209, Note_on_c, 9, 59, 32
11, 21215, Note_on_c, 9, 59, 0
11, 21234, Note_on_c, 9, 59, 91
11, 21239, Note_on_c, 9, 44, 46
11, 21269, Note_on_c, 9, 44, 0
11, 21324, Note_on_c, 9, 59, 0
11, 21358, Note_on_c, 9, 59, 85
11, 21428, Note_on_c, 9, 59, 0
11, 21431, Note_on_c, 9, 53, 76
11, 21447, Note_on_c, 9, 53, 0
11, 21473, Note_on_c, 9, 59, 55
11, 21479, Note_on_c, 9, 44, 59
11, 21500, Note_on_c, 9, 44, 0
11, 21522, Note_on_c, 9, 59, 0
11, 21556, Note_on_c, 9, 59, 99
11, 21558, Note_on_c, 9, 36, 42
11, 21568, Note_on_c, 9, 36, 0
11, 21583, Note_on_c, 9, 59, 0
11, 21599, Note_on_c, 9, 36, 48
11, 21599, Note_on_c, 9, 59, 75
11, 21615, Note_on_c, 9, 36, 0
11, 21674, Note_on_c, 9, 59, 0
11, 21680, Note_on_c, 9, 36, 45
11, 21690, Note_on_c, 9, 36, 0
11, 21717, Note_on_c, 9, 59, 84
11, 21722, Note_on_c, 9, 44, 53
11, 21744, Note_on_c, 9, 44, 0
11, 21756, Note_on_c, 9, 59, 0
11, 21801, Note_on_c, 9, 59, 61
11, 21816, Note_on_c, 9, 59, 0
11, 21840, Note_on_c, 9, 59, 78
11, 21882, Note_on_c, 9, 59, 0
11, 21928, Note_on_c, 9, 59, 30
11, 21934, Note_on_c, 9, 59, 0
11, 21961, Note_on_c, 9, 44, 56
11, 21962, Note_on_c, 9, 59, 68
11, 21972, Note_on_c, 9, 59, 0
11, 21980, Note_on_c, 9, 44, 0
11, 22035, Note_on_c, 9, 38, 72
11, 22035, Note_on_c, 9, 59, 95
11, 22060, Note_on_c, 9, 59, 0
11, 22063, Note_on_c, 9, 38, 0
11, 22078, Note_on_c, 9, 59, 77
11, 22082, Note_on_c, 9, 36, 53
11, 22127, Note_on_c, 9, 36, 0
11, 22142, Note_on_c, 9, 59, 0
11, 22155, Note_on_c, 9, 36, 53
11, 22168, Note_on_c, 9, 59, 50
11, 22170, Note_on_c, 9, 36, 0
11, 22178, Note_on_c, 9, 59, 0
11, 22203, Note_on_c, 9, 59, 89
11, 22206, Note_on_c, 9, 44, 52
11, 22223, Note_on_c, 9, 44, 0
11, 22296, Note_on_c, 9, 59, 0
11, 22322, Note_on_c, 9, 59, 91
11, 22324, Note_on_c, 9, 38, 46
11, 22340, Note_on_c, 9, 38, 0
11, 22360, Note_on_c, 9, 38, 54
11, 22373, Note_on_c, 9, 38, 0
11, 22373, Note_on_c, 9, 59, 0
11, 22398, Note_on_c, 9, 59, 58
11, 22399, Note_on_c, 9, 36, 45
11, 22410, Note_on_c, 9, 59, 0
11, 22423, Note_on_c, 9, 36, 0
11, 22436, Note_on_c, 9, 59, 96
11, 22441, Note_on_c, 9, 38, 54
11, 22442, Note_on_c, 9, 44, 63
11, 22450, Note_on_c, 9, 38, 0
11, 22460, Note_on_c, 9, 44, 0
11, 22481, Note_on_c, 9, 36, 32
11, 22489, Note_on_c, 9, 36, 0
11, 22512, Note_on_c, 9, 59, 0
11, 22519, Note_on_c, 9, 36, 74
11, 22558, Note_on_c, 9, 36, 0
11, 22558, Note_on_c, 9, 59, 88
11, 22630, Note_on_c, 9, 59, 0
11, 22675, Note_on_c, 9, 59, 88
11, 22682, Note_on_c, 9, 44, 57
11, 22697, Note_on_c, 9, 44, 0
11, 22725, Note_on_c, 9, 59, 0
11, 22755, Note_on_c, 9, 36, 54
11, 22762, Note_on_c, 9, 36, 0
11, 22762, Note_on_c, 9, 59, 65
11, 22776, Note_on_c, 9, 59, 0
11, 22796, Note_on_c, 9, 59, 88
11, 22874, Note_on_c, 9, 59, 0
11, 22915, Note_on_c, 9, 44, 64
11, 22916, Note_on_c, 9, 59, 92
11, 22932, Note_on_c, 9, 44, 0
11, 22995, Note_on_c, 9, 59, 0
11, 23000, Note_on_c, 9, 36, 42
11, 23009, Note_on_c, 9, 36, 0
11, 23039, Note_on_c, 9, 36, 45
11, 23039, Note_on_c, 9, 59, 83
11, 23075, Note_on_c, 9, 36, 0
11, 23091, Note_on_c, 9, 59, 0
11, 23124, Note_on_c, 9, 59, 57
11, 23133, Note_on_c, 9, 59, 0
11, 23161, Note_on_c, 9, 44, 58
11, 23161, Note_on_c, 9, 59, 76
11, 23171, Note_on_c, 9, 59, 0
11, 23178, Note_on_c, 9, 44, 0
11, 23235, Note_on_c, 9, 59, 96
11, 23284, Note_on_c, 9, 38, 62
11, 23294, Note_on_c, 9, 38, 0
11, 23320, Note_on_c, 9, 36, 30
11, 23336, Note_on_c, 9, 36, 0
11, 23336, Note_on_c, 9, 59, 0
11, 23360, Note_on_c, 9, 59, 64
11, 23374, Note_on_c, 9, 59, 0
11, 23393, Note_on_c, 9, 38, 39
11, 23396, Note_on_c, 9, 46, 43
11, 23400, Note_on_c, 9, 38, 0
11, 23403, Note_on_c, 9, 59, 80
11, 23413, Note_on_c, 9, 46, 0
11, 23420, Note_on_c, 9, 59, 0
11, 23439, Note_on_c, 9, 36, 40
11, 23454, Note_on_c, 9, 36, 0
11, 23475, Note_on_c, 9, 36, 71
11, 23483, Note_on_c, 9, 59, 78
11, 23499, Note_on_c, 9, 59, 0
11, 23511, Note_on_c, 9, 36, 0
11, 23522, Note_on_c, 9, 59, 78
11, 23560, Note_on_c, 9, 59, 0
11, 23605, Note_on_c, 9, 59, 61
11, 23614, Note_on_c, 9, 59, 0
11, 23640, Note_on_c, 9, 44, 58
11, 23645, Note_on_c, 9, 59, 88
11, 23655, Note_on_c, 9, 44, 0
11, 23667, Note_on_c, 9, 59, 0
11, 23722, Note_on_c, 9, 59, 60
11, 23723, Note_on_c, 9, 36, 53
11, 23739, Note_on_c, 9, 59, 0
11, 23745, Note_on_c, 9, 36, 0
11, 23763, Note_on_c, 9, 36, 55
11, 23765, Note_on_c, 9, 59, 80
11, 23792, Note_on_c, 9, 36, 0
11, 23818, Note_on_c, 9, 59, 0
11, 23879, Note_on_c, 9, 44, 70
11, 23882, Note_on_c, 9, 59, 88
11, 23901, Note_on_c, 9, 44, 0
11, 23922, Note_on_c, 9, 59, 0
11, 23956, Note_on_c, 9, 36, 66
11, 23962, Note_on_c, 9, 59, 77
11, 23976, Note_on_c, 9, 36, 0
11, 23979, Note_on_c, 9, 59, 0
11, 24002, Note_on_c, 9, 59, 80
11, 24067, Note_on_c, 9, 59, 0
11, 24121, Note_on_c, 9, 59, 88
11, 24123, Note_on_c, 9, 44, 67
11, 24148, Note_on_c, 9, 44, 0
11, 24153, Note_on_c, 9, 59, 0
11, 24200, Note_on_c, 9, 38, 74
11, 24203, Note_on_c, 9, 59, 74
11, 24216, Note_on_c, 9, 38, 0
11, 24218, Note_on_c, 9, 59, 0
11, 24240, Note_on_c, 9, 59, 82
11, 24242, Note_on_c, 9, 36, 45
11, 24295, Note_on_c, 9, 36, 0
11, 24312, Note_on_c, 9, 59, 0
11, 24320, Note_on_c, 9, 36, 55
11, 24350, Note_on_c, 9, 36, 0
11, 24361, Note_on_c, 9, 59, 87
11, 24363, Note_on_c, 9, 44, 71
11, 24365, Note_on_c, 9, 36, 57
11, 24381, Note_on_c, 9, 44, 0
11, 24395, Note_on_c, 9, 59, 0
11, 24420, Note_on_c, 9, 36, 0
11, 24438, Note_on_c, 9, 36, 74
11, 24443, Note_on_c, 9, 59, 66
11, 24454, Note_on_c, 9, 59, 0
11, 24462, Note_on_c, 9, 36, 0
11, 24478, Note_on_c, 9, 59, 91
11, 24546, Note_on_c, 9, 59, 0
11, 24597, Note_on_c, 9, 59, 88
11, 24605, Note_on_c, 9, 44, 59
11, 24622, Note_on_c, 9, 44, 0
11, 24658, Note_on_c, 9, 59, 0
11, 24712, Note_on_c, 9, 59, 84
11, 24757, Note_on_c, 9, 59, 0
11, 24797, Note_on_c, 9, 59, 51
11, 24804, Note_on_c, 9, 59, 0
11, 24831, Note_on_c, 9, 59, 82
11, 24834, Note_on_c, 9, 44, 62
11, 24855, Note_on_c, 9, 44, 0
11, 24878, Note_on_c, 9, 38, 60
11, 24883, Note_on_c, 9, 38, 0
11, 24898, Note_on_c, 9, 59, 0
11, 24919, Note_on_c, 9, 36, 49
11, 24936, Note_on_c, 9, 36, 0
11, 24955, Note_on_c, 9, 59, 89
11, 24989, Note_on_c, 9, 59, 0
11, 25037, Note_on_c, 9, 59, 62
11, 25045, Note_on_c, 9, 59, 0
11, 25075, Note_on_c, 9, 59, 71
11, 25084, Note_on_c, 9, 44, 62
11, 25087, Note_on_c, 9, 59, 0
11, 25103, Note_on_c, 9, 44, 0
11, 25153, Note_on_c, 9, 59, 101
11, 25169, Note_on_c, 9, 59, 0
11, 25193, Note_on_c, 9, 59, 72
11, 25236, Note_on_c, 9, 59, 0
11, 25277, Note_on_c, 9, 59, 58
11, 25287, Note_on_c, 9, 59, 0
11, 25321, Note_on_c, 9, 46, 31
11, 25321, Note_on_c, 9, 59, 91
11, 25336, Note_on_c, 9, 46, 0
11, 25345, Note_on_c, 9, 59, 0
11, 25361, Note_on_c, 9, 38, 60
11, 25367, Note_on_c, 9, 38, 0
11, 25395, Note_on_c, 9, 36, 45
11, 25399, Note_on_c, 9, 59, 95
11, 25405, Note_on_c, 9, 36, 0
11, 25420, Note_on_c, 9, 59, 0
11, 25439, Note_on_c, 9, 59, 82
11, 25441, Note_on_c, 9, 36, 46
11, 25463, Note_on_c, 9, 36, 0
11, 25501, Note_on_c, 9, 59, 0
11, 25521, Note_on_c, 9, 59, 45
11, 25529, Note_on_c, 9, 59, 0
11, 25554, Note_on_c, 9, 44, 57
11, 25559, Note_on_c, 9, 59, 88
11, 25576, Note_on_c, 9, 44, 0
11, 25619, Note_on_c, 9, 59, 0
11, 25633, Note_on_c, 9, 36, 28
11, 25642, Note_on_c, 9, 36, 0
11, 25679, Note_on_c, 9, 59, 80
11, 25734, Note_on_c, 9, 59, 0
11, 25794, Note_on_c, 9, 59, 83
11, 25800, Note_on_c, 9, 44, 64
11, 25822, Note_on_c, 9, 44, 0
11, 25851, Note_on_c, 9, 59, 0
11, 25877, Note_on_c, 9, 38, 61
11, 25890, Note_on_c, 9, 38, 0
11, 25917, Note_on_c, 9, 59, 89
11, 25923, Note_on_c, 9, 36, 28
11, 25944, Note_on_c, 9, 36, 0
11, 25969, Note_on_c, 9, 59, 0
11, 25995, Note_on_c, 9, 36, 44
11, 25997, Note_on_c, 9, 59, 51
11, 26004, Note_on_c, 9, 36, 0
11, 26009, Note_on_c, 9, 59, 0
11, 26033, Note_on_c, 9, 59, 81
11, 26041, Note_on_c, 9, 44, 64
11, 26062, Note_on_c, 9, 44, 0
11, 26074, Note_on_c, 9, 59, 0
11, 26113, Note_on_c, 9, 59, 101
11, 26138, Note_on_c, 9, 59, 0
11, 26152, Note_on_c, 9, 59, 68
11, 26161, Note_on_c, 9, 38, 43
11, 26176, Note_on_c, 9, 38, 0
11, 26195, Note_on_c, 9, 38, 36
11, 26205, Note_on_c, 9, 38, 0
11, 26205, Note_on_c, 9, 59, 0
11, 26245, Note_on_c, 9, 59, 49
11, 26247, Note_on_c, 9, 36, 42
11, 26253, Note_on_c, 9, 59, 0
11, 26255, Note_on_c, 9, 36, 0
11, 26282, Note_on_c, 9, 44, 71
11, 26288, Note_on_c, 9, 59, 83
11, 26289, Note_on_c, 9, 38, 51
11, 26298, Note_on_c, 9, 38, 0
11, 26302, Note_on_c, 9, 44, 0
11, 26323, Note_on_c, 9, 38, 52
11, 26333, Note_on_c, 9, 59, 0
11, 26338, Note_on_c, 9, 38, 0
11, 26358, Note_on_c, 9, 59, 68
11, 26364, Note_on_c, 9, 36, 71
11, 26374, Note_on_c, 9, 59, 0
11, 26389, Note_on_c, 9, 36, 0
11, 26399, Note_on_c, 9, 59, 80
11, 26402, Note_on_c, 9, 36, 69
11, 26435, Note_on_c, 9, 36, 0
11, 26451, Note_on_c, 9, 59, 0
11, 26518, Note_on_c, 9, 59, 85
11, 26521, Note_on_c, 9, 44, 64
11, 26542, Note_on_c, 9, 44, 0
11, 26553, Note_on_c, 9, 59, 0
11, 26596, Note_on_c, 9, 38, 33
11, 26598, Note_on_c, 9, 59, 55
11, 26609, Note_on_c, 9, 38, 0
11, 26614, Note_on_c, 9, 59, 0
11, 26637, Note_on_c, 9, 38, 40
11, 26640, Note_on_c, 9, 59, 80
11, 26654, Note_on_c, 9, 38, 0
11, 26689, Note_on_c, 9, 59, 0
11, 26712, Note_on_c, 9, 38, 52
11, 26727, Note_on_c, 9, 38, 0
11, 26759, Note_on_c, 9, 59, 87
11, 26760, Note_on_c, 9, 44, 68
11, 26779, Note_on_c, 9, 44, 0
11, 26787, Note_on_c, 9, 59, 0
11, 26832, Note_on_c, 9, 49, 59
11, 26833, Note_on_c, 9, 59, 80
11, 26834, Note_on_c, 9, 36, 58
11, 26842, Note_on_c, 9, 49, 0
11, 26851, Note_on_c, 9, 59, 0
11, 26852, Note_on_c, 9, 36, 0
11, 26875, Note_on_c, 9, 59, 84
11, 26912, Note_on_c, 9, 59, 0
11, 27001, Note_on_c, 9, 59, 85
11, 27002, Note_on_c, 9, 44, 55
11, 27015, Note_on_c, 9, 44, 0
11, 27032, Note_on_c, 9, 59, 0
11, 27121, Note_on_c, 9, 38, 70
11, 27133, Note_on_c, 9, 38, 0
11, 27156, Note_on_c, 9, 38, 64
11, 27166, Note_on_c, 9, 38, 0
11, 27201, Note_on_c, 9, 59, 60
11, 27202, Note_on_c, 9, 36, 20
11, 27208, Note_on_c, 9, 36, 0
11, 27218, Note_on_c, 9, 59, 0
11, 27237, Note_on_c, 9, 44, 68
11, 27241, Note_on_c, 9, 38, 54
11, 27242, Note_on_c, 9, 59, 59
11, 27248, Note_on_c, 9, 38, 0
11, 27253, Note_on_c, 9, 59, 0
11, 27255, Note_on_c, 9, 44, 0
11, 27315, Note_on_c, 9, 38, 82
11, 27319, Note_on_c, 9, 59, 95
11, 27325, Note_on_c, 9, 38, 0
11, 27346, Note_on_c, 9, 59, 0
11, 27358, Note_on_c, 9, 36, 62
11, 27362, Note_on_c, 9, 59, 76
11, 27394, Note_on_c, 9, 36, 0
11, 27424, Note_on_c, 9, 59, 0
11, 27433, Note_on_c, 9, 36, 55
11, 27448, Note_on_c, 9, 36, 0
11, 27482, Note_on_c, 9, 59, 85
11, 27487, Note_on_c, 9, 44, 62
11, 27516, Note_on_c, 9, 44, 0
11, 27539, Note_on_c, 9, 59, 0
11, 27604, Note_on_c, 9, 59, 81
11, 27643, Note_on_c, 9, 59, 0
11, 27715, Note_on_c, 9, 44, 64
11, 27720, Note_on_c, 9, 59, 82
11, 27748, Note_on_c, 9, 59, 0
11, 27761, Note_on_c, 9, 44, 0
11, 27799, Note_on_c, 9, 59, 56
11, 27800, Note_on_c, 9, 36, 37
11, 27809, Note_on_c, 9, 36, 0
11, 27813, Note_on_c, 9, 59, 0
11, 27836, Note_on_c, 9, 59, 80
11, 27842, Note_on_c, 9, 36, 41
11, 27867, Note_on_c, 9, 59, 0
11, 27878, Note_on_c, 9, 36, 0
11, 27951, Note_on_c, 9, 59, 74
11, 27957, Note_on_c, 9, 44, 61
11, 27993, Note_on_c, 9, 44, 0
11, 27996, Note_on_c, 9, 59, 0
11, 28037, Note_on_c, 9, 59, 66
11, 28059, Note_on_c, 9, 59, 0
11, 28073, Note_on_c, 9, 59, 69
11, 28156, Note_on_c, 9, 59, 0
11, 28193, Note_on_c, 9, 59, 74
11, 28194, Note_on_c, 9, 46, 37
11, 28212, Note_on_c, 9, 46, 0
11, 28237, Note_on_c, 9, 38, 31
11, 28243, Note_on_c, 9, 59, 0
11, 28247, Note_on_c, 9, 38, 0
11, 28275, Note_on_c, 9, 36, 37
11, 28297, Note_on_c, 9, 36, 0
11, 28312, Note_on_c, 9, 59, 78
11, 28324, Note_on_c, 9, 36, 29
11, 28333, Note_on_c, 9, 36, 0
11, 28349, Note_on_c, 9, 59, 0
11, 28437, Note_on_c, 9, 44, 51
11, 28445, Note_on_c, 9, 59, 90
11, 28455, Note_on_c, 9, 59, 0
11, 28459, Note_on_c, 9, 44, 0
11, 28512, Note_on_c, 9, 38, 44
11, 28522, Note_on_c, 9, 38, 0
11, 28552, Note_on_c, 9, 38, 61
11, 28561, Note_on_c, 9, 59, 88
11, 28568, Note_on_c, 9, 38, 0
11, 28575, Note_on_c, 9, 59, 0
11, 28586, Note_on_c, 9, 38, 50
11, 28599, Note_on_c, 9, 38, 0
11, 28636, Note_on_c, 9, 36, 62
11, 28658, Note_on_c, 9, 36, 0
11, 28674, Note_on_c, 9, 44, 50
11, 28681, Note_on_c, 9, 59, 85
11, 28695, Note_on_c, 9, 59, 0
11, 28696, Note_on_c, 9, 44, 0
11, 28794, Note_on_c, 9, 59, 89
11, 28798, Note_on_c, 9, 38, 40
11, 28809, Note_on_c, 9, 59, 0
11, 28813, Note_on_c, 9, 38, 0
11, 28829, Note_on_c, 9, 38, 40
11, 28846, Note_on_c, 9, 38, 0
11, 28877, Note_on_c, 9, 59, 39
11, 28879, Note_on_c, 9, 36, 34
11, 28893, Note_on_c, 9, 59, 0
11, 28895, Note_on_c, 9, 36, 0
11, 28915, Note_on_c, 9, 59, 78
11, 28915, Note_on_c, 9, 44, 46
11, 28945, Note_on_c, 9, 44, 0
11, 28954, Note_on_c, 9, 59, 0
11, 28996, Note_on_c, 9, 59, 60
11, 29013, Note_on_c, 9, 59, 0
11, 29033, Note_on_c, 9, 59, 74
11, 29039, Note_on_c, 9, 38, 51
11, 29057, Note_on_c, 9, 38, 0
11, 29065, Note_on_c, 9, 59, 0
11, 29076, Note_on_c, 9, 38, 52
11, 29096, Note_on_c, 9, 38, 0
11, 29122, Note_on_c, 9, 36, 26
11, 29134, Note_on_c, 9, 36, 0
11, 29155, Note_on_c, 9, 44, 59
11, 29162, Note_on_c, 9, 59, 89
11, 29176, Note_on_c, 9, 44, 0
11, 29197, Note_on_c, 9, 59, 0
11, 29236, Note_on_c, 9, 36, 90
11, 29264, Note_on_c, 9, 36, 0
11, 29273, Note_on_c, 9, 59, 82
11, 29279, Note_on_c, 9, 36, 63
11, 29304, Note_on_c, 9, 36, 0
11, 29310, Note_on_c, 9, 59, 0
11, 29360, Note_on_c, 9, 59, 58
11, 29375, Note_on_c, 9, 59, 0
11, 29398, Note_on_c, 9, 44, 53
11, 29399, Note_on_c, 9, 59, 76
11, 29420, Note_on_c, 9, 44, 0
11, 29439, Note_on_c, 9, 59, 0
11, 29477, Note_on_c, 9, 59, 82
11, 29501, Note_on_c, 9, 59, 0
11, 29519, Note_on_c, 9, 59, 77
11, 29592, Note_on_c, 9, 59, 0
11, 29637, Note_on_c, 9, 44, 56
11, 29641, Note_on_c, 9, 59, 90
11, 29656, Note_on_c, 9, 44, 0
11, 29682, Note_on_c, 9, 59, 0
11, 29717, Note_on_c, 9, 36, 44
11, 29722, Note_on_c, 9, 59, 57
11, 29739, Note_on_c, 9, 59, 0
11, 29749, Note_on_c, 9, 36, 0
11, 29760, Note_on_c, 9, 59, 80
11, 29834, Note_on_c, 9, 59, 0
11, 29882, Note_on_c, 9, 44, 52
11, 29883, Note_on_c, 9, 59, 90
11, 29899, Note_on_c, 9, 44, 0
11, 29910, Note_on_c, 9, 59, 0
11, 29955, Note_on_c, 9, 38, 56
11, 29966, Note_on_c, 9, 59, 57
11, 29975, Note_on_c, 9, 59, 0
11, 29978, Note_on_c, 9, 38, 0
11, 30003, Note_on_c, 9, 38, 47
11, 30004, Note_on_c, 9, 59, 77
11, 30019, Note_on_c, 9, 59, 0
11, 30028, Note_on_c, 9, 38, 0
11, 30031, Note_on_c, 9, 59, 66
11, 30070, Note_on_c, 9, 59, 0
11, 30077, Note_on_c, 9, 36, 35
11, 30088, Note_on_c, 9, 36, 0
11, 30118, Note_on_c, 9, 44, 63
11, 30120, Note_on_c, 9, 59, 89
11, 30136, Note_on_c, 9, 44, 0
11, 30172, Note_on_c, 9, 59, 0
11, 30191, Note_on_c, 9, 36, 43
11, 30206, Note_on_c, 9, 59, 60
11, 30208, Note_on_c, 9, 36, 0
11, 30218, Note_on_c, 9, 59, 0
11, 30239, Note_on_c, 9, 59, 83
11, 30301, Note_on_c, 9, 59, 0
11, 30358, Note_on_c, 9, 44, 57
11, 30359, Note_on_c, 9, 59, 94
11, 30360, Note_on_c, 9, 38, 68
11, 30373, Note_on_c, 9, 44, 0
11, 30395, Note_on_c, 9, 38, 0
11, 30401, Note_on_c, 9, 59, 0
11, 30481, Note_on_c, 9, 59, 91
11, 30489, Note_on_c, 9, 38, 67
11, 30509, Note_on_c, 9, 38, 0
11, 30523, Note_on_c, 9, 59, 0
11, 30562, Note_on_c, 9, 59, 51
11, 30570, Note_on_c, 9, 59, 0
11, 30591, Note_on_c, 9, 44, 64
11, 30601, Note_on_c, 9, 59, 94
11, 30605, Note_on_c, 9, 38, 64
11, 30608, Note_on_c, 9, 44, 0
11, 30642, Note_on_c, 9, 38, 0
11, 30659, Note_on_c, 9, 59, 0
11, 30682, Note_on_c, 9, 36, 53
11, 30690, Note_on_c, 9, 36, 0
11, 30718, Note_on_c, 9, 59, 90
11, 30722, Note_on_c, 9, 38, 69
11, 30759, Note_on_c, 9, 38, 0
11, 30760, Note_on_c, 9, 59, 0
11, 30793, Note_on_c, 9, 38, 67
11, 30798, Note_on_c, 9, 59, 58
11, 30807, Note_on_c, 9, 59, 0
11, 30814, Note_on_c, 9, 38, 0
11, 30835, Note_on_c, 9, 59, 80
11, 30837, Note_on_c, 9, 38, 57
11, 30837, Note_on_c, 9, 44, 58
11, 30854, Note_on_c, 9, 44, 0
11, 30861, Note_on_c, 9, 59, 0
11, 30875, Note_on_c, 9, 38, 0
11, 30911, Note_on_c, 9, 38, 72
11, 30915, Note_on_c, 9, 59, 101
11, 30956, Note_on_c, 9, 38, 0
11, 30998, Note_on_c, 9, 59, 0
11, 31035, Note_on_c, 9, 36, 43
11, 31041, Note_on_c, 9, 59, 55
11, 31045, Note_on_c, 9, 36, 0
11, 31050, Note_on_c, 9, 59, 0
11, 31072, Note_on_c, 9, 46, 43
11, 31080, Note_on_c, 9, 36, 57
11, 31082, Note_on_c, 9, 59, 74
11, 31089, Note_on_c, 9, 46, 0
11, 31095, Note_on_c, 9, 59, 0
11, 31096, Note_on_c, 9, 36, 0
11, 31154, Note_on_c, 9, 36, 85
11, 31154, Note_on_c, 9, 59, 96
11, 31172, Note_on_c, 9, 59, 0
11, 31177, Note_on_c, 9, 36, 0
11, 31194, Note_on_c, 9, 59, 70
11, 31258, Note_on_c, 9, 59, 0
11, 31316, Note_on_c, 9, 44, 58
11, 31325, Note_on_c, 9, 59, 65
11, 31331, Note_on_c, 9, 44, 0
11, 31346, Note_on_c, 9, 59, 0
11, 31408, Note_on_c, 9, 59, 77
11, 31424, Note_on_c, 9, 59, 0
11, 31442, Note_on_c, 9, 59, 74
11, 31483, Note_on_c, 9, 59, 0
11, 31555, Note_on_c, 9, 44, 70
11, 31561, Note_on_c, 9, 59, 52
11, 31576, Note_on_c, 9, 59, 0
11, 31577, Note_on_c, 9, 44, 0
11, 31637, Note_on_c, 9, 36, 47
11, 31639, Note_on_c, 9, 59, 88
11, 31662, Note_on_c, 9, 36, 0
11, 31665, Note_on_c, 9, 59, 0
11, 31677, Note_on_c, 9, 59, 68
11, 31679, Note_on_c, 9, 36, 50
11, 31697, Note_on_c, 9, 36, 0
11, 31725, Note_on_c, 9, 59, 0
11, 31765, Note_on_c, 9, 59, 36
11, 31773, Note_on_c, 9, 59, 0
11, 31799, Note_on_c, 9, 44, 67
11, 31801, Note_on_c, 9, 38, 46
11, 31806, Note_on_c, 9, 59, 78
11, 31810, Note_on_c, 9, 38, 0
11, 31824, Note_on_c, 9, 44, 0
11, 31827, Note_on_c, 9, 59, 0
11, 31835, Note_on_c, 9, 38, 51
11, 31849, Note_on_c, 9, 38, 0
11, 31877, Note_on_c, 9, 36, 47
11, 31880, Note_on_c, 9, 59, 91
11, 31886, Note_on_c, 9, 36, 0
11, 31899, Note_on_c, 9, 59, 0
11, 31924, Note_on_c, 9, 59, 78
11, 31959, Note_on_c, 9, 59, 0
11, 32003, Note_on_c, 9, 59, 59
11, 32016, Note_on_c, 9, 59, 0
11, 32039, Note_on_c, 9, 44, 71
11, 32044, Note_on_c, 9, 38, 56
11, 32048, Note_on_c, 9, 59, 71
11, 32057, Note_on_c, 9, 44, 0
11, 32062, Note_on_c, 9, 38, 0
11, 32066, Note_on_c, 9, 59, 0
11, 32087, Note_on_c, 9, 36, 17
11, 32093, Note_on_c, 9, 36, 0
11, 32118, Note_on_c, 9, 36, 64
11, 32120, Note_on_c, 9, 59, 99
11, 32141, Note_on_c, 9, 59, 0
11, 32150, Note_on_c, 9, 36, 0
11, 32160, Note_on_c, 9, 36, 66
11, 32162, Note_on_c, 9, 59, 83
11, 32186, Note_on_c, 9, 36, 0
11, 32220, Note_on_c, 9, 59, 0
11, 32281, Note_on_c, 9, 44, 59
11, 32283, Note_on_c, 9, 59, 83
11, 32298, Note_on_c, 9, 44, 0
11, 32342, Note_on_c, 9, 59, 0
11, 32400, Note_on_c, 9, 59, 83
11, 32465, Note_on_c, 9, 59, 0
11, 32510, Note_on_c, 9, 44, 62
11, 32515, Note_on_c, 9, 59, 79
11, 32531, Note_on_c, 9, 44, 0
11, 32549, Note_on_c, 9, 59, 0
11, 32589, Note_on_c, 9, 36, 58
11, 32593, Note_on_c, 9, 59, 43
11, 32603, Note_on_c, 9, 36, 0
11, 32611, Note_on_c, 9, 59, 0
11, 32628, Note_on_c, 9, 59, 81
11, 32636, Note_on_c, 9, 36, 50
11, 32657, Note_on_c, 9, 36, 0
11, 32699, Note_on_c, 9, 59, 0
11, 32757, Note_on_c, 9, 59, 71
11, 32760, Note_on_c, 9, 44, 62
11, 32779, Note_on_c, 9, 44, 0
11, 32800, Note_on_c, 9, 59, 0
11, 32838, Note_on_c, 9, 59, 63
11, 32865, Note_on_c, 9, 59, 0
11, 32877, Note_on_c, 9, 59, 73
11, 32918, Note_on_c, 9, 59, 0
11, 32997, Note_on_c, 9, 59, 76
11, 32997, Note_on_c, 9, 46, 31
11, 33012, Note_on_c, 9, 46, 0
11, 33030, Note_on_c, 9, 59, 0
11, 33039, Note_on_c, 9, 38, 57
11, 33045, Note_on_c, 9, 38, 0
11, 33078, Note_on_c, 9, 59, 68
11, 33080, Note_on_c, 9, 36, 46
11, 33097, Note_on_c, 9, 59, 0
11, 33099, Note_on_c, 9, 36, 0
11, 33114, Note_on_c, 9, 59, 83
11, 33124, Note_on_c, 9, 36, 55
11, 33141, Note_on_c, 9, 59, 0
11, 33143, Note_on_c, 9, 36, 0
11, 33230, Note_on_c, 9, 44, 57
11, 33241, Note_on_c, 9, 59, 84
11, 33252, Note_on_c, 9, 44, 0
11, 33259, Note_on_c, 9, 59, 0
11, 33322, Note_on_c, 9, 36, 27
11, 33339, Note_on_c, 9, 36, 0
11, 33362, Note_on_c, 9, 36, 44
11, 33362, Note_on_c, 9, 59, 67
11, 33363, Note_on_c, 9, 60, 43
11, 33369, Note_on_c, 9, 60, 0
11, 33376, Note_on_c, 9, 59, 0
11, 33383, Note_on_c, 9, 36, 0
11, 33444, Note_on_c, 9, 59, 74
11, 33459, Note_on_c, 9, 59, 0
11, 33476, Note_on_c, 9, 44, 64
11, 33479, Note_on_c, 9, 59, 83
11, 33498, Note_on_c, 9, 44, 0
11, 33516, Note_on_c, 9, 59, 0
11, 33555, Note_on_c, 9, 36, 35
11, 33564, Note_on_c, 9, 36, 0
11, 33597, Note_on_c, 9, 36, 51
11, 33598, Note_on_c, 9, 59, 87
11, 33645, Note_on_c, 9, 36, 0
11, 33647, Note_on_c, 9, 59, 0
11, 33682, Note_on_c, 9, 59, 59
11, 33697, Note_on_c, 9, 59, 0
11, 33717, Note_on_c, 9, 44, 64
11, 33718, Note_on_c, 9, 59, 78
11, 33737, Note_on_c, 9, 59, 0
11, 33738, Note_on_c, 9, 44, 0
11, 33794, Note_on_c, 9, 36, 50
11, 33801, Note_on_c, 9, 59, 95
11, 33815, Note_on_c, 9, 36, 0
11, 33817, Note_on_c, 9, 59, 0
11, 33839, Note_on_c, 9, 36, 53
11, 33840, Note_on_c, 9, 59, 85
11, 33858, Note_on_c, 9, 36, 0
11, 33884, Note_on_c, 9, 59, 0
11, 33957, Note_on_c, 9, 59, 77
11, 33958, Note_on_c, 9, 44, 71
11, 33978, Note_on_c, 9, 44, 0
11, 33978, Note_on_c, 9, 59, 0
11, 34038, Note_on_c, 9, 36, 35
11, 34040, Note_on_c, 9, 59, 60
11, 34052, Note_on_c, 9, 59, 0
11, 34056, Note_on_c, 9, 36, 0
11, 34082, Note_on_c, 9, 36, 36
11, 34083, Note_on_c, 9, 59, 53
11, 34095, Note_on_c, 9, 36, 0
11, 34099, Note_on_c, 9, 59, 0
11, 34196, Note_on_c, 9, 38, 60
11, 34197, Note_on_c, 9, 44, 64
11, 34204, Note_on_c, 9, 59, 101
11, 34211, Note_on_c, 9, 38, 0
11, 34218, Note_on_c, 9, 59, 0
11, 34218, Note_on_c, 9, 44, 0
11, 34288, Note_on_c, 9, 38, 51
11, 34298, Note_on_c, 9, 59, 40
11, 34303, Note_on_c, 9, 38, 0
11, 34305, Note_on_c, 9, 59, 0
11, 34327, Note_on_c, 9, 59, 81
11, 34329, Note_on_c, 9, 38, 55
11, 34351, Note_on_c, 9, 38, 0
11, 34365, Note_on_c, 9, 59, 0
11, 34436, Note_on_c, 9, 38, 54
11, 34436, Note_on_c, 9, 44, 68
11, 34446, Note_on_c, 9, 59, 89
11, 34452, Note_on_c, 9, 38, 0
11, 34455, Note_on_c, 9, 44, 0
11, 34461, Note_on_c, 9, 59, 0
11, 34519, Note_on_c, 9, 38, 67
11, 34524, Note_on_c, 9, 59, 61
11, 34533, Note_on_c, 9, 38, 0
11, 34536, Note_on_c, 9, 59, 0
11, 34558, Note_on_c, 9, 59, 82
11, 34563, Note_on_c, 9, 38, 56
11, 34578, Note_on_c, 9, 38, 0
11, 34586, Note_on_c, 9, 59, 0
11, 34676, Note_on_c, 9, 38, 62
11, 34678, Note_on_c, 9, 44, 55
11, 34684, Note_on_c, 9, 59, 83
11, 34691, Note_on_c, 9, 44, 0
11, 34694, Note_on_c, 9, 38, 0
11, 34718, Note_on_c, 9, 59, 0
11, 34793, Note_on_c, 9, 38, 58
11, 34805, Note_on_c, 9, 59, 87
11, 34811, Note_on_c, 9, 38, 0
11, 34830, Note_on_c, 9, 59, 0
11, 34871, Note_on_c, 9, 38, 62
11, 34883, Note_on_c, 9, 59, 64
11, 34885, Note_on_c, 9, 38, 0
11, 34898, Note_on_c, 9, 59, 0
11, 34913, Note_on_c, 9, 44, 68
11, 34914, Note_on_c, 9, 38, 53
11, 34921, Note_on_c, 9, 59, 74
11, 34929, Note_on_c, 9, 38, 0
11, 34931, Note_on_c, 9, 44, 0
11, 34933, Note_on_c, 9, 59, 0
11, 34987, Note_on_c, 9, 36, 64
11, 35003, Note_on_c, 9, 59, 85
11, 35008, Note_on_c, 9, 36, 0
11, 35015, Note_on_c, 9, 59, 0
11, 35032, Note_on_c, 9, 36, 68
11, 35041, Note_on_c, 9, 59, 91
11, 35051, Note_on_c, 9, 36, 0
11, 35089, Note_on_c, 9, 59, 0
11, 35113, Note_on_c, 9, 38, 51
11, 35132, Note_on_c, 9, 38, 0
11, 35158, Note_on_c, 9, 38, 58
11, 35163, Note_on_c, 9, 59, 77
11, 35178, Note_on_c, 9, 38, 0
11, 35180, Note_on_c, 9, 59, 0
11, 35233, Note_on_c, 9, 38, 50
11, 35241, Note_on_c, 9, 59, 85
11, 35248, Note_on_c, 9, 38, 0
11, 35257, Note_on_c, 9, 59, 0
11, 35278, Note_on_c, 9, 38, 58
11, 35279, Note_on_c, 9, 59, 80
11, 35305, Note_on_c, 9, 59, 0
11, 35305, Note_on_c, 9, 38, 0
11, 35391, Note_on_c, 9, 38, 64
11, 35396, Note_on_c, 9, 59, 79
11, 35409, Note_on_c, 9, 38, 0
11, 35419, Note_on_c, 9, 59, 0
11, 35472, Note_on_c, 9, 59, 64
11, 35474, Note_on_c, 9, 38, 62
11, 35486, Note_on_c, 9, 59, 0
11, 35488, Note_on_c, 9, 38, 0
11, 35514, Note_on_c, 9, 59, 82
11, 35518, Note_on_c, 9, 38, 59
11, 35535, Note_on_c, 9, 59, 0
11, 35539, Note_on_c, 9, 38, 0
11, 35633, Note_on_c, 9, 38, 57
11, 35638, Note_on_c, 9, 59, 87
11, 35656, Note_on_c, 9, 38, 0
11, 35660, Note_on_c, 9, 59, 0
11, 35753, Note_on_c, 9, 38, 64
11, 35761, Note_on_c, 9, 59, 77
11, 35776, Note_on_c, 9, 38, 0
11, 35792, Note_on_c, 9, 59, 0
11, 35842, Note_on_c, 9, 38, 38
11, 35842, Note_on_c, 9, 59, 77
11, 35853, Note_on_c, 9, 59, 0
11, 35854, Note_on_c, 9, 38, 0
11, 35880, Note_on_c, 9, 38, 60
11, 35880, Note_on_c, 9, 59, 72
11, 35892, Note_on_c, 9, 59, 0
11, 35925, Note_on_c, 9, 38, 0
11, 35960, Note_on_c, 9, 59, 89
11, 35980, Note_on_c, 9, 59, 0
11, 35996, Note_on_c, 9, 36, 47
11, 36011, Note_on_c, 9, 36, 0
11, 36073, Note_on_c, 9, 38, 73
11, 36085, Note_on_c, 9, 59, 64
11, 36090, Note_on_c, 9, 38, 0
11, 36100, Note_on_c, 9, 59, 0
11, 36119, Note_on_c, 9, 38, 61
11, 36123, Note_on_c, 9, 59, 66
11, 36135, Note_on_c, 9, 59, 0
11, 36137, Note_on_c, 9, 38, 0
11, 36196, Note_on_c, 9, 38, 71
11, 36201, Note_on_c, 9, 59, 67
11, 36211, Note_on_c, 9, 38, 0
11, 36213, Note_on_c, 9, 59, 0
11, 36244, Note_on_c, 9, 59, 65
11, 36246, Note_on_c, 9, 38, 66
11, 36257, Note_on_c, 9, 59, 0
11, 36265, Note_on_c, 9, 38, 0
11, 36362, Note_on_c, 9, 38, 70
11, 36363, Note_on_c, 9, 59, 87
11, 36378, Note_on_c, 9, 59, 0
11, 36384, Note_on_c, 9, 38, 0
11, 36482, Note_on_c, 9, 38, 68
11, 36487, Note_on_c, 9, 59, 83
11, 36497, Note_on_c, 9, 59, 0
11, 36500, Note_on_c, 9, 38, 0
11, 36597, Note_on_c, 9, 38, 71
11, 36602, Note_on_c, 9, 59, 96
11, 36614, Note_on_c, 9, 38, 0
11, 36615, Note_on_c, 9, 59, 0
11, 36673, Note_on_c, 9, 38, 90
11, 36715, Note_on_c, 9, 59, 95
11, 36729, Note_on_c, 9, 59, 0
11, 36730, Note_on_c, 9, 38, 0
11, 36757, Note_on_c, 9, 38, 65
11, 36771, Note_on_c, 9, 38, 0
11, 36777, Note_on_c, 9, 59, 91
11, 36790, Note_on_c, 9, 38, 62
11, 36791, Note_on_c, 9, 59, 0
11, 36805, Note_on_c, 9, 59, 87
11, 36806, Note_on_c, 9, 38, 0
11, 36820, Note_on_c, 9, 59, 0
11, 36833, Note_on_c, 9, 38, 73
11, 36837, Note_on_c, 9, 59, 91
11, 36860, Note_on_c, 9, 59, 0
11, 36860, Note_on_c, 9, 38, 0
11, 36912, Note_on_c, 9, 38, 80
11, 36913, Note_on_c, 9, 59, 94
11, 36930, Note_on_c, 9, 38, 0
11, 36932, Note_on_c, 9, 59, 0
11, 37040, Note_on_c, 9, 38, 82
11, 37040, Note_on_c, 9, 59, 99
11, 37055, Note_on_c, 9, 38, 0
11, 37077, Note_on_c, 9, 59, 0
11, 37120, Note_on_c, 9, 38, 78
11, 37120, Note_on_c, 9, 59, 94
11, 37142, Note_on_c, 9, 38, 0
11, 37151, Note_on_c, 9, 59, 0
11, 37200, Note_on_c, 9, 38, 78
11, 37200, Note_on_c, 9, 59, 96
11, 37213, Note_on_c, 9, 38, 0
11, 37232, Note_on_c, 9, 59, 0
11, 37280, Note_on_c, 9, 38, 60
11, 37280, Note_on_c, 9, 59, 94
11, 37302, Note_on_c, 9, 38, 0
11, 37310, Note_on_c, 9, 59, 0
11, 37360, Note_on_c, 9, 38, 55
11, 37360, Note_on_c, 9, 59, 94
11, 37382, Note_on_c, 9, 38, 0
11, 37392, Note_on_c, 9, 59, 0
11, 37440, Note_on_c, 9, 57, 74
11, 37440, Note_on_c, 9, 36, 65
11, 37440, Note_on_c, 9, 38, 60
11, 37440, Note_on_c, 9, 59, 96
11, 37440, Note_on_c, 9, 57, 88
11, 37452, Note_on_c, 9, 57, 0
11, 37462, Note_on_c, 9, 36, 0
11, 37466, Note_on_c, 9, 38, 0
11, 37589, Note_on_c, 9, 57, 0
11, 37592, Note_on_c, 9, 59, 0
11, 37592, End_track
0, 0, End_of_file
