0, 0, Header, 1, 5, 960
1, 0, Start_track
1, 0, Title_t, "Bach Prelude  No 1 (Ave Maria  - Bach/Gounod)"
1, 0, Text_t, "dougmck@tpg.com.au\012"
1, 0, Time_signature, 4, 2, 24, 8
1, 0, Key_signature, 0, "major"
1, 0, Tempo, 750000
1, 68602, Marker_t, "Lots of 'ornaments' on melody notes"
1, 153374, Marker_t, "Melody is harmonised with notes a 10th below"
1, 180000, Marker_t, "In tempo - improv begins"
1, 180480, Marker_t, "Lhand plays more or less regular pattern - 'and 1 and, and 3 and';"
1, 224044, Marker_t, "On Cdim, a whole half dim scale stars on A"
1, 230415, Marker_t, "On Bbdim, a dim scale (whole/half) LH plays a minor 3rd below"
1, 241920, Marker_t, "Figure on Gm uses notes of Gm triad with upper and lower neighbors"
1, 258227, Marker_t, "A common lick on Maj9th chords - basically inversions of chord arpeggiated"
1, 262569, Marker_t, "On B dim, chromatic from B up to F - a tritone away"
1, 265781, Marker_t, "On Fm, patterns from Fm arpeggios"
1, 273411, Marker_t, "On C7, chord tones are sometimes connected to each other via a chromatic scale"
1, 280320, Marker_t, "On C7sus, a Gm pentatonic scale with damper pedal down"
1, 288000, Marker_t, "On Fdim/C again a mixture of chord tones with some connected chromatically"
1, 326429, Marker_t, "On this C7, a Half whole diminished scale"
1, 330304, Marker_t, "Runs like this arrive on the target note (F) right on the downbeat"
1, 334080, Marker_t, "On Dm , the figure begins with the 5th (A) surrounded then continues using triad tones"
1, 338008, Marker_t, "Again some G7 notes are 'surrounded' to start the figure"
1, 339815, Marker_t, "then an arpeggio finishes the phrase"
1, 341760, Marker_t, "Here, diatonic upper neighbors precede  triad chord tones"
1, 357208, Marker_t, "On this figure, lower neighbors of chord tones are chromatic"
1, 369942, Marker_t, "Nice little figure based on Bb Dim (whole/half) scale"
1, 385238, Marker_t, "Again triad with upper and lower neighbor tones"
1, 391942, Marker_t, "On F9, an easy run - Eb(3),G(5),Eb(3),C(2),A(1),Ab(3),G(1),Gb(3),F(2),E(1) etc"
1, 396269, Marker_t, "On BbMaj9, chord tones are connected chromatically"
1, 418604, Marker_t, "Gm pentatonic again"
1, 426951, Marker_t, "G/Ab, Bb/B, Db/D"
1, 446223, Marker_t, "Bb triad, with lower (chromatic) neighbor tones"
1, 466625, Marker_t, "Ascending C dim (whole half) scale on C7"
1, 476526, Marker_t, "On G7, again lower chromaric neighbors target chord tones"
1, 507113, Marker_t, "2 hands a minor 3rd apart play dim scale on Bbdim"
1, 507113, End_track
2, 0, Start_track
2, 0, Title_t, "Track 1"
2, 0, Control_c, 0, 7, 101
2, 0, Control_c, 0, 10, 64
2, 0, End_track
3, 0, Start_track
3, 0, Title_t, "Track 1"
3, 0, Control_c, 0, 0, 0
3, 0, Control_c, 0, 7, 91
3, 0, Control_c, 0, 91, 42
3, 0, Control_c, 0, 93, 0
3, 1, Control_c, 0, 32, 122
3, 2, Program_c, 0, 0
3, 110, Control_c, 0, 64, 127
3, 124, Note_on_c, 0, 81, 51
3, 131, Note_on_c, 0, 53, 22
3, 810, Note_on_c, 0, 60, 24
3, 812, Note_on_c, 0, 81, 0
3, 1445, Note_on_c, 0, 65, 24
3, 1656, Note_on_c, 0, 60, 0
3, 2033, Note_on_c, 0, 60, 32
3, 2687, Note_on_c, 0, 67, 55
3, 2926, Note_on_c, 0, 60, 0
3, 3182, Note_on_c, 0, 60, 32
3, 3547, Note_on_c, 0, 60, 0
3, 3607, Note_on_c, 0, 67, 0
3, 3639, Note_on_c, 0, 69, 70
3, 4068, Note_on_c, 0, 60, 36
3, 4124, Note_on_c, 0, 69, 0
3, 4142, Note_on_c, 0, 53, 0
3, 4540, Note_on_c, 0, 65, 0
3, 4616, Note_on_c, 0, 82, 78
3, 4653, Note_on_c, 0, 53, 38
3, 4673, Note_on_c, 0, 60, 0
3, 4714, Control_c, 0, 64, 0
3, 5022, Control_c, 0, 64, 127
3, 5249, Note_on_c, 0, 62, 29
3, 5723, Note_on_c, 0, 62, 0
3, 5795, Note_on_c, 0, 70, 45
3, 6360, Note_on_c, 0, 62, 30
3, 6636, Note_on_c, 0, 70, 0
3, 6975, Note_on_c, 0, 70, 31
3, 7003, Note_on_c, 0, 74, 31
3, 7009, Note_on_c, 0, 69, 37
3, 7510, Note_on_c, 0, 62, 0
3, 7695, Note_on_c, 0, 62, 24
3, 7781, Note_on_c, 0, 70, 0
3, 7985, Note_on_c, 0, 69, 0
3, 8347, Note_on_c, 0, 74, 0
3, 8362, Note_on_c, 0, 70, 35
3, 8388, Note_on_c, 0, 67, 24
3, 8841, Note_on_c, 0, 82, 0
3, 8876, Note_on_c, 0, 62, 0
3, 8942, Note_on_c, 0, 53, 0
3, 9274, Note_on_c, 0, 67, 0
3, 9381, Note_on_c, 0, 70, 0
3, 9399, Note_on_c, 0, 53, 28
3, 9407, Note_on_c, 0, 82, 60
3, 9759, Note_on_c, 0, 53, 0
3, 9836, Note_on_c, 0, 82, 0
3, 10464, Note_on_c, 0, 84, 60
3, 10476, Note_on_c, 0, 52, 25
3, 10487, Control_c, 0, 64, 0
3, 10705, Control_c, 0, 64, 127
3, 11026, Control_c, 0, 64, 0
3, 11076, Note_on_c, 0, 57, 41
3, 11168, Control_c, 0, 64, 127
3, 11391, Note_on_c, 0, 84, 0
3, 11515, Note_on_c, 0, 57, 0
3, 11533, Note_on_c, 0, 58, 52
3, 11872, Control_c, 0, 64, 0
3, 11898, Note_on_c, 0, 60, 48
3, 12065, Control_c, 0, 64, 127
3, 12264, Note_on_c, 0, 64, 51
3, 12664, Note_on_c, 0, 67, 47
3, 12942, Note_on_c, 0, 64, 0
3, 13156, Note_on_c, 0, 70, 39
3, 13242, Note_on_c, 0, 67, 0
3, 13569, Note_on_c, 0, 70, 0
3, 13578, Note_on_c, 0, 52, 0
3, 13600, Note_on_c, 0, 67, 37
3, 13942, Note_on_c, 0, 58, 0
3, 14053, Control_c, 0, 64, 0
3, 14061, Note_on_c, 0, 53, 19
3, 14062, Note_on_c, 0, 69, 42
3, 14065, Note_on_c, 0, 60, 0
3, 14071, Note_on_c, 0, 67, 0
3, 14310, Control_c, 0, 64, 127
3, 14492, Note_on_c, 0, 69, 0
3, 14533, Note_on_c, 0, 60, 29
3, 15084, Note_on_c, 0, 81, 44
3, 15116, Note_on_c, 0, 72, 36
3, 15122, Note_on_c, 0, 65, 25
3, 15260, Note_on_c, 0, 60, 0
3, 15354, Note_on_c, 0, 81, 0
3, 15372, Note_on_c, 0, 72, 0
3, 15835, Note_on_c, 0, 60, 27
3, 15852, Note_on_c, 0, 86, 50
3, 15908, Note_on_c, 0, 86, 0
3, 15990, Note_on_c, 0, 65, 0
3, 16489, Note_on_c, 0, 86, 66
3, 16530, Note_on_c, 0, 65, 30
3, 16648, Note_on_c, 0, 60, 0
3, 16815, Note_on_c, 0, 86, 0
3, 16955, Note_on_c, 0, 53, 0
3, 16958, Note_on_c, 0, 60, 27
3, 16984, Note_on_c, 0, 84, 55
3, 17354, Note_on_c, 0, 84, 0
3, 17436, Note_on_c, 0, 81, 64
3, 17495, Note_on_c, 0, 65, 0
3, 17921, Note_on_c, 0, 79, 51
3, 17923, Note_on_c, 0, 81, 0
3, 17929, Note_on_c, 0, 53, 26
3, 18115, Note_on_c, 0, 53, 0
3, 18355, Note_on_c, 0, 79, 0
3, 18506, Control_c, 0, 64, 0
3, 18508, Note_on_c, 0, 60, 0
3, 18511, Note_on_c, 0, 77, 49
3, 18522, Note_on_c, 0, 53, 27
3, 18814, Control_c, 0, 64, 127
3, 19224, Note_on_c, 0, 57, 39
3, 19301, Control_c, 0, 64, 0
3, 19468, Control_c, 0, 64, 127
3, 19756, Note_on_c, 0, 62, 33
3, 20088, Note_on_c, 0, 57, 0
3, 20246, Note_on_c, 0, 77, 0
3, 20271, Note_on_c, 0, 57, 37
3, 20277, Note_on_c, 0, 62, 0
3, 20836, Note_on_c, 0, 65, 30
3, 20850, Note_on_c, 0, 69, 29
3, 20855, Note_on_c, 0, 62, 28
3, 20977, Note_on_c, 0, 57, 0
3, 21438, Note_on_c, 0, 69, 0
3, 21464, Note_on_c, 0, 57, 36
3, 21545, Note_on_c, 0, 62, 0
3, 21695, Note_on_c, 0, 65, 0
3, 22020, Note_on_c, 0, 62, 47
3, 22021, Note_on_c, 0, 57, 0
3, 22518, Note_on_c, 0, 62, 0
3, 22591, Note_on_c, 0, 64, 65
3, 22632, Note_on_c, 0, 57, 33
3, 22783, Note_on_c, 0, 53, 0
3, 22858, Note_on_c, 0, 64, 0
3, 22902, Note_on_c, 0, 65, 80
3, 23217, Note_on_c, 0, 65, 0
3, 23302, Note_on_c, 0, 67, 77
3, 23323, Note_on_c, 0, 53, 43
3, 23332, Note_on_c, 0, 57, 0
3, 23356, Control_c, 0, 64, 0
3, 23689, Control_c, 0, 64, 127
3, 23740, Control_c, 0, 64, 0
3, 23798, Note_on_c, 0, 55, 41
3, 23982, Control_c, 0, 64, 127
3, 24261, Note_on_c, 0, 59, 47
3, 24328, Note_on_c, 0, 67, 0
3, 24766, Note_on_c, 0, 62, 32
3, 24812, Note_on_c, 0, 59, 0
3, 25265, Note_on_c, 0, 81, 53
3, 25274, Note_on_c, 0, 62, 0
3, 25288, Note_on_c, 0, 59, 28
3, 25344, Control_c, 0, 64, 0
3, 25356, Note_on_c, 0, 71, 25
3, 25512, Control_c, 0, 64, 127
3, 25902, Note_on_c, 0, 81, 0
3, 25916, Note_on_c, 0, 62, 17
3, 25996, Note_on_c, 0, 71, 0
3, 26033, Note_on_c, 0, 59, 0
3, 26474, Note_on_c, 0, 79, 38
3, 26495, Note_on_c, 0, 59, 27
3, 26508, Note_on_c, 0, 67, 26
3, 26598, Note_on_c, 0, 53, 0
3, 26908, Note_on_c, 0, 67, 0
3, 26948, Note_on_c, 0, 79, 0
3, 27149, Note_on_c, 0, 53, 16
3, 27507, Note_on_c, 0, 53, 0
3, 27541, Note_on_c, 0, 86, 64
3, 27676, Note_on_c, 0, 55, 0
3, 27809, Note_on_c, 0, 59, 0
3, 27862, Note_on_c, 0, 86, 0
3, 27875, Note_on_c, 0, 62, 0
3, 27907, Note_on_c, 0, 84, 50
3, 27910, Control_c, 0, 64, 0
3, 27931, Note_on_c, 0, 52, 34
3, 28077, Control_c, 0, 64, 127
3, 28282, Note_on_c, 0, 84, 0
3, 28469, Note_on_c, 0, 60, 25
3, 28964, Note_on_c, 0, 67, 40
3, 29007, Note_on_c, 0, 60, 0
3, 29523, Note_on_c, 0, 60, 26
3, 29635, Note_on_c, 0, 67, 0
3, 29705, Note_on_c, 0, 60, 0
3, 30112, Note_on_c, 0, 64, 48
3, 30116, Note_on_c, 0, 72, 36
3, 30134, Note_on_c, 0, 60, 32
3, 30354, Note_on_c, 0, 72, 0
3, 30486, Note_on_c, 0, 64, 0
3, 30542, Note_on_c, 0, 60, 0
3, 30806, Note_on_c, 0, 60, 71
3, 30920, Note_on_c, 0, 52, 0
3, 31113, Note_on_c, 0, 60, 0
3, 31374, Control_c, 0, 64, 0
3, 31379, Note_on_c, 0, 62, 94
3, 31384, Note_on_c, 0, 52, 37
3, 31553, Control_c, 0, 64, 127
3, 31922, Note_on_c, 0, 64, 77
3, 32003, Note_on_c, 0, 62, 0
3, 32145, Note_on_c, 0, 52, 0
3, 32224, Note_on_c, 0, 64, 0
3, 32485, Note_on_c, 0, 65, 73
3, 32499, Note_on_c, 0, 52, 49
3, 32503, Control_c, 0, 64, 0
3, 32901, Control_c, 0, 64, 127
3, 32929, Note_on_c, 0, 53, 48
3, 33285, Note_on_c, 0, 65, 0
3, 33386, Note_on_c, 0, 57, 59
3, 33836, Note_on_c, 0, 79, 79
3, 33845, Note_on_c, 0, 60, 45
3, 33864, Note_on_c, 0, 57, 0
3, 34147, Note_on_c, 0, 79, 0
3, 34325, Control_c, 0, 64, 0
3, 34350, Note_on_c, 0, 57, 40
3, 34363, Note_on_c, 0, 77, 74
3, 34387, Note_on_c, 0, 60, 0
3, 34556, Control_c, 0, 64, 127
3, 34879, Note_on_c, 0, 60, 29
3, 35131, Note_on_c, 0, 57, 0
3, 35423, Note_on_c, 0, 65, 40
3, 35505, Note_on_c, 0, 57, 25
3, 35548, Note_on_c, 0, 52, 0
3, 35799, Note_on_c, 0, 53, 0
3, 35900, Note_on_c, 0, 57, 0
3, 35964, Note_on_c, 0, 52, 26
3, 35968, Control_c, 0, 64, 0
3, 36058, Control_c, 0, 64, 127
3, 36287, Note_on_c, 0, 52, 0
3, 36342, Note_on_c, 0, 77, 0
3, 36533, Control_c, 0, 64, 0
3, 36534, Note_on_c, 0, 77, 54
3, 36538, Note_on_c, 0, 50, 42
3, 36539, Note_on_c, 0, 60, 0
3, 36827, Control_c, 0, 64, 127
3, 37106, Note_on_c, 0, 57, 34
3, 37203, Note_on_c, 0, 65, 0
3, 37655, Note_on_c, 0, 65, 35
3, 37691, Note_on_c, 0, 62, 26
3, 37692, Note_on_c, 0, 69, 35
3, 37902, Note_on_c, 0, 57, 0
3, 38216, Note_on_c, 0, 77, 0
3, 38298, Note_on_c, 0, 57, 37
3, 38316, Note_on_c, 0, 69, 0
3, 38322, Note_on_c, 0, 62, 0
3, 38337, Note_on_c, 0, 65, 0
3, 38837, Note_on_c, 0, 50, 0
3, 39398, Note_on_c, 0, 57, 0
3, 39624, Control_c, 0, 64, 0
3, 39631, Note_on_c, 0, 65, 58
3, 39648, Note_on_c, 0, 60, 60
3, 39649, Note_on_c, 0, 57, 62
3, 39681, Note_on_c, 0, 50, 32
3, 39777, Control_c, 0, 64, 127
3, 39840, Note_on_c, 0, 65, 0
3, 39919, Note_on_c, 0, 60, 0
3, 40013, Note_on_c, 0, 57, 0
3, 40188, Control_c, 0, 64, 0
3, 40192, Note_on_c, 0, 67, 59
3, 40209, Note_on_c, 0, 61, 57
3, 40211, Note_on_c, 0, 58, 57
3, 40236, Note_on_c, 0, 52, 41
3, 40266, Note_on_c, 0, 50, 0
3, 40369, Control_c, 0, 64, 127
3, 40397, Note_on_c, 0, 67, 0
3, 40444, Note_on_c, 0, 58, 0
3, 40503, Note_on_c, 0, 61, 0
3, 40638, Control_c, 0, 64, 0
3, 40650, Note_on_c, 0, 52, 0
3, 40663, Note_on_c, 0, 69, 68
3, 40690, Note_on_c, 0, 53, 24
3, 40705, Note_on_c, 0, 62, 62
3, 40791, Control_c, 0, 64, 127
3, 40804, Note_on_c, 0, 62, 0
3, 40876, Note_on_c, 0, 69, 0
3, 41100, Control_c, 0, 64, 0
3, 41114, Note_on_c, 0, 53, 0
3, 41120, Note_on_c, 0, 71, 54
3, 41135, Note_on_c, 0, 62, 50
3, 41160, Note_on_c, 0, 55, 32
3, 41316, Control_c, 0, 64, 127
3, 41606, Note_on_c, 0, 55, 0
3, 41610, Note_on_c, 0, 43, 31
3, 41713, Note_on_c, 0, 62, 0
3, 41906, Note_on_c, 0, 71, 0
3, 42099, Note_on_c, 0, 43, 0
3, 42142, Note_on_c, 0, 50, 25
3, 42197, Note_on_c, 0, 50, 0
3, 42654, Note_on_c, 0, 81, 43
3, 42662, Note_on_c, 0, 71, 35
3, 42673, Note_on_c, 0, 76, 43
3, 42712, Note_on_c, 0, 65, 17
3, 42858, Note_on_c, 0, 81, 0
3, 42865, Note_on_c, 0, 76, 0
3, 42926, Note_on_c, 0, 71, 0
3, 42942, Note_on_c, 0, 65, 0
3, 43217, Control_c, 0, 64, 0
3, 43258, Note_on_c, 0, 71, 32
3, 43260, Note_on_c, 0, 65, 34
3, 43262, Note_on_c, 0, 79, 36
3, 43265, Note_on_c, 0, 74, 37
3, 43409, Control_c, 0, 64, 127
3, 43822, Note_on_c, 0, 55, 19
3, 43893, Note_on_c, 0, 65, 0
3, 43923, Note_on_c, 0, 74, 0
3, 43982, Note_on_c, 0, 79, 0
3, 44187, Note_on_c, 0, 71, 0
3, 44401, Note_on_c, 0, 62, 24
3, 44771, Note_on_c, 0, 62, 0
3, 44933, Note_on_c, 0, 55, 0
3, 44937, Note_on_c, 0, 74, 46
3, 45567, Note_on_c, 0, 74, 0
3, 45705, Control_c, 0, 64, 0
3, 45710, Note_on_c, 0, 76, 36
3, 45722, Note_on_c, 0, 48, 22
3, 45924, Control_c, 0, 64, 127
3, 46033, Note_on_c, 0, 76, 0
3, 46189, Note_on_c, 0, 55, 18
3, 46588, Note_on_c, 0, 64, 55
3, 46726, Note_on_c, 0, 55, 0
3, 46950, Note_on_c, 0, 55, 24
3, 47346, Note_on_c, 0, 67, 48
3, 47355, Note_on_c, 0, 64, 0
3, 47369, Note_on_c, 0, 55, 0
3, 47387, Note_on_c, 0, 60, 20
3, 47749, Note_on_c, 0, 60, 0
3, 48032, Note_on_c, 0, 64, 43
3, 48405, Note_on_c, 0, 55, 15
3, 48553, Note_on_c, 0, 48, 0
3, 48703, Note_on_c, 0, 60, 34
3, 48712, Note_on_c, 0, 55, 0
3, 48735, Note_on_c, 0, 48, 29
3, 48746, Control_c, 0, 64, 0
3, 48790, Note_on_c, 0, 64, 0
3, 48964, Control_c, 0, 64, 127
3, 48982, Note_on_c, 0, 60, 0
3, 49106, Note_on_c, 0, 55, 22
3, 49284, Note_on_c, 0, 67, 0
3, 49439, Note_on_c, 0, 64, 35
3, 49450, Note_on_c, 0, 55, 0
3, 49459, Note_on_c, 0, 60, 32
3, 49790, Note_on_c, 0, 60, 0
3, 49854, Note_on_c, 0, 55, 19
3, 49924, Note_on_c, 0, 64, 0
3, 50208, Note_on_c, 0, 55, 0
3, 50216, Note_on_c, 0, 60, 24
3, 50220, Note_on_c, 0, 67, 33
3, 50583, Note_on_c, 0, 60, 0
3, 50651, Note_on_c, 0, 55, 16
3, 50911, Note_on_c, 0, 55, 0
3, 51008, Note_on_c, 0, 67, 0
3, 51064, Note_on_c, 0, 64, 33
3, 51505, Note_on_c, 0, 55, 15
3, 51660, Note_on_c, 0, 48, 0
3, 51934, Note_on_c, 0, 69, 50
3, 51936, Note_on_c, 0, 55, 0
3, 51963, Note_on_c, 0, 48, 32
3, 51982, Note_on_c, 0, 64, 0
3, 52005, Control_c, 0, 64, 0
3, 52376, Control_c, 0, 64, 127
3, 52990, Note_on_c, 0, 48, 0
3, 52990, Note_on_c, 0, 69, 0
3, 53276, Note_on_c, 0, 54, 45
3, 53354, Control_c, 0, 64, 0
3, 53546, Control_c, 0, 64, 127
3, 53828, Note_on_c, 0, 60, 31
3, 53842, Note_on_c, 0, 57, 33
3, 53846, Note_on_c, 0, 63, 36
3, 53852, Note_on_c, 0, 66, 46
3, 53894, Note_on_c, 0, 54, 0
3, 53894, Control_c, 0, 64, 0
3, 54112, Control_c, 0, 64, 127
3, 54153, Note_on_c, 0, 60, 0
3, 54228, Note_on_c, 0, 66, 0
3, 54240, Note_on_c, 0, 63, 0
3, 54268, Note_on_c, 0, 54, 35
3, 54328, Note_on_c, 0, 57, 0
3, 54620, Note_on_c, 0, 54, 0
3, 54713, Note_on_c, 0, 63, 44
3, 54725, Note_on_c, 0, 66, 46
3, 54729, Control_c, 0, 64, 0
3, 54742, Note_on_c, 0, 60, 31
3, 54744, Note_on_c, 0, 72, 38
3, 54867, Control_c, 0, 64, 127
3, 55113, Note_on_c, 0, 60, 0
3, 55167, Note_on_c, 0, 63, 0
3, 55231, Note_on_c, 0, 66, 0
3, 55256, Note_on_c, 0, 72, 0
3, 55312, Note_on_c, 0, 63, 52
3, 55318, Control_c, 0, 64, 0
3, 55321, Note_on_c, 0, 66, 51
3, 55323, Note_on_c, 0, 57, 48
3, 55324, Note_on_c, 0, 69, 59
3, 55446, Control_c, 0, 64, 127
3, 55673, Note_on_c, 0, 57, 0
3, 55727, Note_on_c, 0, 63, 0
3, 55798, Note_on_c, 0, 66, 0
3, 55804, Note_on_c, 0, 69, 0
3, 55832, Note_on_c, 0, 71, 61
3, 55847, Note_on_c, 0, 66, 34
3, 55850, Note_on_c, 0, 63, 51
3, 55853, Note_on_c, 0, 59, 55
3, 56027, Note_on_c, 0, 59, 0
3, 56129, Note_on_c, 0, 63, 0
3, 56253, Note_on_c, 0, 66, 0
3, 56304, Note_on_c, 0, 72, 58
3, 56310, Note_on_c, 0, 66, 26
3, 56313, Note_on_c, 0, 63, 60
3, 56316, Note_on_c, 0, 57, 53
3, 56482, Note_on_c, 0, 72, 0
3, 56519, Note_on_c, 0, 63, 0
3, 56530, Note_on_c, 0, 71, 0
3, 56549, Note_on_c, 0, 66, 0
3, 56585, Note_on_c, 0, 57, 0
3, 56895, Control_c, 0, 64, 0
3, 56906, Note_on_c, 0, 74, 62
3, 56924, Note_on_c, 0, 62, 47
3, 56948, Note_on_c, 0, 46, 45
3, 56953, Note_on_c, 0, 70, 40
3, 57165, Control_c, 0, 64, 127
3, 57376, Note_on_c, 0, 46, 0
3, 57423, Note_on_c, 0, 55, 41
3, 57652, Note_on_c, 0, 55, 0
3, 57657, Note_on_c, 0, 62, 0
3, 57889, Note_on_c, 0, 58, 51
3, 57912, Note_on_c, 0, 70, 0
3, 57929, Note_on_c, 0, 74, 0
3, 58373, Note_on_c, 0, 62, 35
3, 58909, Note_on_c, 0, 74, 57
3, 58937, Note_on_c, 0, 67, 30
3, 59150, Note_on_c, 0, 62, 0
3, 59380, Note_on_c, 0, 67, 0
3, 59467, Note_on_c, 0, 62, 28
3, 59821, Note_on_c, 0, 62, 0
3, 60050, Note_on_c, 0, 74, 0
3, 60088, Note_on_c, 0, 65, 34
3, 60170, Note_on_c, 0, 62, 17
3, 60371, Note_on_c, 0, 58, 0
3, 60723, Note_on_c, 0, 58, 33
3, 60768, Note_on_c, 0, 65, 0
3, 60799, Note_on_c, 0, 62, 0
3, 61592, Note_on_c, 0, 58, 0
3, 62194, Control_c, 0, 64, 0
3, 62228, Note_on_c, 0, 79, 50
3, 62241, Note_on_c, 0, 67, 34
3, 62250, Note_on_c, 0, 46, 33
3, 62413, Control_c, 0, 64, 127
3, 62785, Note_on_c, 0, 52, 35
3, 63197, Note_on_c, 0, 52, 0
3, 63228, Note_on_c, 0, 46, 0
3, 63234, Note_on_c, 0, 55, 31
3, 63652, Note_on_c, 0, 55, 0
3, 63718, Note_on_c, 0, 58, 39
3, 64004, Note_on_c, 0, 67, 0
3, 64299, Note_on_c, 0, 79, 0
3, 64335, Note_on_c, 0, 67, 27
3, 64352, Note_on_c, 0, 61, 34
3, 64724, Note_on_c, 0, 67, 0
3, 65491, Note_on_c, 0, 61, 0
3, 65514, Note_on_c, 0, 79, 49
3, 65520, Note_on_c, 0, 64, 40
3, 65541, Note_on_c, 0, 70, 51
3, 65734, Note_on_c, 0, 79, 0
3, 65816, Note_on_c, 0, 70, 0
3, 66103, Note_on_c, 0, 81, 62
3, 66105, Note_on_c, 0, 64, 0
3, 66108, Note_on_c, 0, 61, 34
3, 66127, Note_on_c, 0, 72, 58
3, 66276, Note_on_c, 0, 81, 0
3, 66355, Note_on_c, 0, 72, 0
3, 66597, Note_on_c, 0, 82, 67
3, 66598, Note_on_c, 0, 74, 57
3, 66643, Note_on_c, 0, 64, 24
3, 66818, Note_on_c, 0, 74, 0
3, 66848, Note_on_c, 0, 82, 0
3, 67076, Note_on_c, 0, 64, 0
3, 67095, Control_c, 0, 64, 0
3, 67141, Note_on_c, 0, 61, 0
3, 67145, Note_on_c, 0, 84, 54
3, 67147, Note_on_c, 0, 72, 48
3, 67149, Note_on_c, 0, 58, 0
3, 67158, Note_on_c, 0, 57, 53
3, 67300, Control_c, 0, 64, 127
3, 67686, Note_on_c, 0, 84, 0
3, 67810, Note_on_c, 0, 60, 29
3, 67856, Note_on_c, 0, 72, 0
3, 68476, Note_on_c, 0, 65, 33
3, 69061, Note_on_c, 0, 72, 57
3, 69339, Note_on_c, 0, 74, 47
3, 69341, Note_on_c, 0, 72, 0
3, 69483, Note_on_c, 0, 72, 44
3, 69527, Note_on_c, 0, 65, 0
3, 69533, Note_on_c, 0, 74, 0
3, 69647, Note_on_c, 0, 72, 0
3, 69679, Note_on_c, 0, 71, 54
3, 69880, Note_on_c, 0, 71, 0
3, 69922, Note_on_c, 0, 72, 57
3, 70030, Note_on_c, 0, 72, 0
3, 70295, Note_on_c, 0, 86, 81
3, 70304, Note_on_c, 0, 65, 31
3, 70410, Note_on_c, 0, 60, 0
3, 70731, Note_on_c, 0, 86, 0
3, 70786, Note_on_c, 0, 84, 64
3, 70813, Note_on_c, 0, 86, 32
3, 70815, Note_on_c, 0, 60, 22
3, 70871, Note_on_c, 0, 86, 0
3, 71149, Note_on_c, 0, 65, 0
3, 71229, Note_on_c, 0, 84, 0
3, 71291, Note_on_c, 0, 81, 66
3, 71335, Note_on_c, 0, 65, 32
3, 71489, Note_on_c, 0, 60, 0
3, 71879, Note_on_c, 0, 77, 58
3, 71890, Note_on_c, 0, 65, 0
3, 71903, Note_on_c, 0, 81, 0
3, 72107, Note_on_c, 0, 60, 1
3, 72228, Note_on_c, 0, 77, 0
3, 72379, Note_on_c, 0, 57, 0
3, 72462, Note_on_c, 0, 60, 0
3, 72760, Note_on_c, 0, 77, 56
3, 72781, Note_on_c, 0, 57, 40
3, 72818, Control_c, 0, 64, 0
3, 73035, Control_c, 0, 64, 127
3, 73317, Note_on_c, 0, 58, 43
3, 73897, Note_on_c, 0, 62, 28
3, 73907, Control_c, 0, 64, 0
3, 74009, Control_c, 0, 64, 127
3, 74455, Note_on_c, 0, 62, 0
3, 74477, Note_on_c, 0, 65, 41
3, 74680, Note_on_c, 0, 57, 0
3, 75028, Note_on_c, 0, 77, 0
3, 75030, Note_on_c, 0, 58, 0
3, 75096, Note_on_c, 0, 57, 52
3, 75154, Note_on_c, 0, 65, 0
3, 75764, Note_on_c, 0, 77, 64
3, 75767, Control_c, 0, 64, 0
3, 75771, Note_on_c, 0, 58, 56
3, 75781, Note_on_c, 0, 69, 54
3, 75935, Control_c, 0, 64, 127
3, 75993, Note_on_c, 0, 77, 0
3, 76088, Note_on_c, 0, 69, 0
3, 76340, Note_on_c, 0, 79, 60
3, 76366, Note_on_c, 0, 62, 37
3, 76372, Note_on_c, 0, 70, 47
3, 76502, Note_on_c, 0, 79, 0
3, 76557, Note_on_c, 0, 70, 0
3, 76810, Note_on_c, 0, 81, 68
3, 76816, Note_on_c, 0, 57, 0
3, 76832, Note_on_c, 0, 65, 46
3, 76983, Note_on_c, 0, 81, 0
3, 77215, Note_on_c, 0, 58, 0
3, 77290, Note_on_c, 0, 65, 0
3, 77308, Control_c, 0, 64, 0
3, 77316, Note_on_c, 0, 82, 53
3, 77327, Note_on_c, 0, 62, 0
3, 77340, Note_on_c, 0, 55, 28
3, 77346, Note_on_c, 0, 74, 40
3, 77360, Note_on_c, 0, 70, 35
3, 77590, Control_c, 0, 64, 127
3, 77807, Note_on_c, 0, 62, 32
3, 77823, Note_on_c, 0, 74, 0
3, 77835, Note_on_c, 0, 82, 0
3, 77917, Note_on_c, 0, 70, 0
3, 78363, Note_on_c, 0, 74, 33
3, 78378, Note_on_c, 0, 70, 31
3, 78404, Note_on_c, 0, 69, 20
3, 78461, Note_on_c, 0, 62, 0
3, 78797, Note_on_c, 0, 74, 0
3, 78861, Note_on_c, 0, 70, 0
3, 78927, Note_on_c, 0, 69, 0
3, 79124, Note_on_c, 0, 55, 0
3, 79566, Control_c, 0, 64, 0
3, 79567, Note_on_c, 0, 62, 29
3, 79577, Note_on_c, 0, 67, 31
3, 79583, Note_on_c, 0, 43, 24
3, 79783, Control_c, 0, 64, 127
3, 80150, Note_on_c, 0, 43, 0
3, 80191, Note_on_c, 0, 50, 29
3, 80194, Note_on_c, 0, 70, 53
3, 80669, Note_on_c, 0, 70, 0
3, 80691, Note_on_c, 0, 62, 0
3, 80741, Note_on_c, 0, 67, 0
3, 80786, Note_on_c, 0, 72, 52
3, 80825, Note_on_c, 0, 55, 27
3, 80834, Note_on_c, 0, 67, 33
3, 81049, Note_on_c, 0, 72, 0
3, 81063, Note_on_c, 0, 50, 0
3, 81396, Note_on_c, 0, 55, 0
3, 81400, Note_on_c, 0, 74, 43
3, 81474, Note_on_c, 0, 67, 0
3, 81597, Note_on_c, 0, 74, 0
3, 82154, Note_on_c, 0, 76, 55
3, 82187, Control_c, 0, 64, 0
3, 82190, Note_on_c, 0, 48, 26
3, 82457, Control_c, 0, 64, 127
3, 82904, Note_on_c, 0, 55, 11
3, 82981, Note_on_c, 0, 48, 0
3, 83497, Note_on_c, 0, 76, 0
3, 83539, Note_on_c, 0, 62, 31
3, 83860, Note_on_c, 0, 55, 0
3, 83944, Note_on_c, 0, 62, 0
3, 84409, Note_on_c, 0, 74, 58
3, 84778, Note_on_c, 0, 74, 0
3, 85229, Control_c, 0, 64, 0
3, 85276, Note_on_c, 0, 72, 41
3, 85281, Note_on_c, 0, 64, 43
3, 85294, Note_on_c, 0, 58, 31
3, 85375, Note_on_c, 0, 48, 17
3, 85459, Control_c, 0, 64, 127
3, 85936, Note_on_c, 0, 58, 0
3, 85944, Note_on_c, 0, 55, 31
3, 85976, Note_on_c, 0, 72, 0
3, 86167, Note_on_c, 0, 64, 0
3, 86571, Note_on_c, 0, 48, 0
3, 86597, Note_on_c, 0, 67, 41
3, 86615, Note_on_c, 0, 58, 27
3, 87209, Note_on_c, 0, 48, 28
3, 87333, Note_on_c, 0, 55, 0
3, 87455, Note_on_c, 0, 58, 0
3, 87508, Note_on_c, 0, 48, 0
3, 87550, Note_on_c, 0, 67, 0
3, 88052, Note_on_c, 0, 60, 37
3, 88056, Control_c, 0, 64, 0
3, 88067, Note_on_c, 0, 41, 29
3, 88085, Note_on_c, 0, 69, 24
3, 88324, Control_c, 0, 64, 127
3, 88694, Note_on_c, 0, 48, 34
3, 88908, Note_on_c, 0, 41, 0
3, 89086, Note_on_c, 0, 60, 0
3, 89284, Note_on_c, 0, 55, 38
3, 89295, Note_on_c, 0, 48, 0
3, 89694, Note_on_c, 0, 69, 0
3, 89762, Note_on_c, 0, 55, 0
3, 89763, Note_on_c, 0, 57, 57
3, 90247, Note_on_c, 0, 57, 0
3, 90276, Note_on_c, 0, 60, 40
3, 90604, Note_on_c, 0, 60, 0
3, 90819, Note_on_c, 0, 65, 46
3, 91344, Note_on_c, 0, 69, 40
3, 91353, Note_on_c, 0, 65, 0
3, 91901, Note_on_c, 0, 72, 47
3, 92190, Note_on_c, 0, 72, 0
3, 92364, Note_on_c, 0, 69, 0
3, 92580, Note_on_c, 0, 65, 43
3, 92628, Note_on_c, 0, 53, 24
3, 92661, Control_c, 0, 64, 0
3, 92904, Control_c, 0, 64, 127
3, 93032, Note_on_c, 0, 72, 58
3, 93178, Note_on_c, 0, 65, 0
3, 93415, Note_on_c, 0, 64, 60
3, 93446, Note_on_c, 0, 72, 0
3, 93506, Note_on_c, 0, 60, 16
3, 93775, Note_on_c, 0, 53, 0
3, 93789, Note_on_c, 0, 72, 49
3, 94024, Note_on_c, 0, 64, 0
3, 94212, Note_on_c, 0, 63, 64
3, 94246, Note_on_c, 0, 60, 0
3, 94256, Note_on_c, 0, 53, 29
3, 94302, Control_c, 0, 64, 0
3, 94342, Note_on_c, 0, 72, 0
3, 94534, Control_c, 0, 64, 127
3, 94703, Note_on_c, 0, 60, 32
3, 94987, Note_on_c, 0, 63, 0
3, 95204, Note_on_c, 0, 72, 22
3, 95215, Note_on_c, 0, 63, 27
3, 95218, Note_on_c, 0, 69, 40
3, 95328, Note_on_c, 0, 60, 0
3, 95702, Note_on_c, 0, 63, 0
3, 95711, Note_on_c, 0, 60, 30
3, 95762, Note_on_c, 0, 69, 0
3, 96071, Note_on_c, 0, 60, 0
3, 96228, Note_on_c, 0, 72, 0
3, 96300, Note_on_c, 0, 60, 38
3, 96603, Note_on_c, 0, 53, 0
3, 96800, Note_on_c, 0, 69, 39
3, 96811, Note_on_c, 0, 63, 50
3, 96822, Note_on_c, 0, 65, 37
3, 97073, Note_on_c, 0, 69, 0
3, 97282, Note_on_c, 0, 63, 0
3, 97356, Note_on_c, 0, 65, 0
3, 97394, Note_on_c, 0, 63, 46
3, 97402, Note_on_c, 0, 53, 31
3, 97406, Note_on_c, 0, 69, 48
3, 97515, Note_on_c, 0, 63, 0
3, 97534, Note_on_c, 0, 69, 0
3, 98120, Note_on_c, 0, 60, 0
3, 98217, Note_on_c, 0, 69, 50
3, 98265, Note_on_c, 0, 53, 0
3, 98489, Note_on_c, 0, 69, 0
3, 98838, Note_on_c, 0, 74, 60
3, 98868, Note_on_c, 0, 46, 37
3, 98872, Control_c, 0, 64, 0
3, 99140, Control_c, 0, 64, 127
3, 99355, Note_on_c, 0, 53, 36
3, 99384, Control_c, 0, 64, 0
3, 99486, Control_c, 0, 64, 127
3, 99851, Note_on_c, 0, 62, 39
3, 99852, Note_on_c, 0, 53, 0
3, 99871, Note_on_c, 0, 46, 0
3, 99899, Note_on_c, 0, 57, 35
3, 100512, Control_c, 0, 64, 0
3, 100514, Note_on_c, 0, 58, 36
3, 100585, Note_on_c, 0, 57, 0
3, 100666, Control_c, 0, 64, 127
3, 100697, Note_on_c, 0, 62, 0
3, 101096, Note_on_c, 0, 62, 46
3, 101663, Note_on_c, 0, 60, 48
3, 101731, Control_c, 0, 64, 0
3, 101976, Note_on_c, 0, 62, 0
3, 102116, Control_c, 0, 64, 127
3, 102266, Note_on_c, 0, 62, 32
3, 102279, Note_on_c, 0, 58, 0
3, 102872, Note_on_c, 0, 62, 0
3, 102880, Note_on_c, 0, 58, 37
3, 103400, Note_on_c, 0, 58, 0
3, 103458, Note_on_c, 0, 60, 0
3, 103506, Note_on_c, 0, 65, 30
3, 103517, Note_on_c, 0, 59, 37
3, 103527, Control_c, 0, 64, 0
3, 103733, Control_c, 0, 64, 127
3, 104043, Note_on_c, 0, 62, 36
3, 104104, Note_on_c, 0, 59, 0
3, 104184, Note_on_c, 0, 62, 0
3, 104552, Note_on_c, 0, 47, 53
3, 105032, Note_on_c, 0, 56, 68
3, 105035, Note_on_c, 0, 65, 0
3, 105058, Note_on_c, 0, 74, 0
3, 105529, Note_on_c, 0, 62, 51
3, 105536, Note_on_c, 0, 65, 58
3, 105543, Note_on_c, 0, 59, 48
3, 105676, Note_on_c, 0, 62, 0
3, 105739, Note_on_c, 0, 65, 0
3, 105760, Note_on_c, 0, 56, 0
3, 106214, Note_on_c, 0, 74, 79
3, 106220, Note_on_c, 0, 56, 55
3, 106258, Note_on_c, 0, 59, 0
3, 106466, Note_on_c, 0, 74, 0
3, 106832, Note_on_c, 0, 65, 66
3, 106863, Note_on_c, 0, 59, 35
3, 107128, Note_on_c, 0, 56, 0
3, 107259, Note_on_c, 0, 47, 0
3, 107423, Note_on_c, 0, 47, 55
3, 107683, Note_on_c, 0, 47, 0
3, 107759, Note_on_c, 0, 65, 0
3, 107792, Note_on_c, 0, 74, 74
3, 107815, Note_on_c, 0, 65, 24
3, 107885, Note_on_c, 0, 65, 0
3, 108013, Note_on_c, 0, 74, 0
3, 108250, Note_on_c, 0, 59, 0
3, 108250, Control_c, 0, 64, 0
3, 108286, Note_on_c, 0, 48, 55
3, 108296, Note_on_c, 0, 77, 84
3, 108480, Control_c, 0, 64, 127
3, 108862, Note_on_c, 0, 55, 48
3, 108925, Note_on_c, 0, 77, 0
3, 109286, Note_on_c, 0, 55, 0
3, 109502, Note_on_c, 0, 60, 32
3, 109507, Note_on_c, 0, 68, 39
3, 109508, Note_on_c, 0, 65, 37
3, 109519, Control_c, 0, 64, 0
3, 109536, Note_on_c, 0, 56, 31
3, 109827, Control_c, 0, 64, 127
3, 110034, Note_on_c, 0, 56, 0
3, 110171, Note_on_c, 0, 56, 37
3, 110262, Note_on_c, 0, 60, 0
3, 110406, Note_on_c, 0, 65, 0
3, 110599, Note_on_c, 0, 68, 0
3, 110769, Note_on_c, 0, 60, 37
3, 110783, Note_on_c, 0, 65, 42
3, 110910, Note_on_c, 0, 56, 0
3, 111158, Note_on_c, 0, 60, 0
3, 111332, Note_on_c, 0, 65, 0
3, 111362, Note_on_c, 0, 56, 38
3, 111728, Note_on_c, 0, 56, 0
3, 111960, Note_on_c, 0, 56, 55
3, 112344, Note_on_c, 0, 48, 0
3, 112541, Note_on_c, 0, 48, 48
3, 112566, Note_on_c, 0, 77, 75
3, 112580, Note_on_c, 0, 65, 75
3, 112797, Note_on_c, 0, 48, 0
3, 113063, Note_on_c, 0, 65, 0
3, 113077, Note_on_c, 0, 77, 0
3, 113243, Note_on_c, 0, 56, 0
3, 113279, Note_on_c, 0, 77, 72
3, 113282, Note_on_c, 0, 49, 52
3, 113291, Control_c, 0, 64, 0
3, 113298, Note_on_c, 0, 65, 77
3, 113574, Control_c, 0, 64, 127
3, 113804, Control_c, 0, 64, 0
3, 113814, Note_on_c, 0, 57, 77
3, 113972, Control_c, 0, 64, 127
3, 114266, Control_c, 0, 64, 0
3, 114285, Note_on_c, 0, 77, 0
3, 114340, Note_on_c, 0, 57, 0
3, 114363, Note_on_c, 0, 58, 77
3, 114383, Control_c, 0, 64, 127
3, 114408, Note_on_c, 0, 65, 0
3, 114907, Note_on_c, 0, 61, 82
3, 115409, Note_on_c, 0, 58, 0
3, 115491, Note_on_c, 0, 65, 74
3, 115547, Note_on_c, 0, 58, 25
3, 115849, Note_on_c, 0, 58, 0
3, 116041, Note_on_c, 0, 65, 0
3, 116099, Note_on_c, 0, 70, 38
3, 116103, Note_on_c, 0, 58, 30
3, 116249, Note_on_c, 0, 61, 0
3, 116295, Note_on_c, 0, 70, 0
3, 116536, Note_on_c, 0, 58, 0
3, 117448, Note_on_c, 0, 58, 30
3, 117808, Note_on_c, 0, 49, 0
3, 118052, Note_on_c, 0, 58, 0
3, 118202, Note_on_c, 0, 79, 41
3, 118252, Note_on_c, 0, 48, 32
3, 118296, Control_c, 0, 64, 0
3, 118526, Control_c, 0, 64, 127
3, 118827, Note_on_c, 0, 55, 22
3, 119410, Note_on_c, 0, 55, 0
3, 119460, Note_on_c, 0, 67, 29
3, 119509, Note_on_c, 0, 60, 26
3, 119536, Note_on_c, 0, 48, 0
3, 119774, Note_on_c, 0, 60, 0
3, 120143, Note_on_c, 0, 64, 32
3, 120399, Note_on_c, 0, 64, 0
3, 120877, Note_on_c, 0, 64, 30
3, 121188, Note_on_c, 0, 64, 0
3, 121565, Note_on_c, 0, 64, 31
3, 122102, Note_on_c, 0, 79, 0
3, 122107, Note_on_c, 0, 77, 54
3, 122325, Note_on_c, 0, 67, 0
3, 122680, Note_on_c, 0, 77, 0
3, 122692, Note_on_c, 0, 76, 37
3, 122915, Note_on_c, 0, 76, 0
3, 122992, Note_on_c, 0, 64, 0
3, 123483, Note_on_c, 0, 48, 42
3, 123495, Note_on_c, 0, 84, 47
3, 123569, Control_c, 0, 64, 0
3, 123760, Control_c, 0, 64, 127
3, 123948, Note_on_c, 0, 84, 0
3, 124045, Note_on_c, 0, 57, 36
3, 124564, Note_on_c, 0, 72, 50
3, 124568, Note_on_c, 0, 65, 57
3, 124614, Note_on_c, 0, 60, 22
3, 124690, Note_on_c, 0, 57, 0
3, 124949, Note_on_c, 0, 60, 0
3, 125032, Note_on_c, 0, 57, 43
3, 125131, Note_on_c, 0, 65, 0
3, 125401, Note_on_c, 0, 72, 0
3, 125405, Note_on_c, 0, 57, 0
3, 125451, Note_on_c, 0, 69, 48
3, 125944, Note_on_c, 0, 65, 46
3, 125945, Note_on_c, 0, 60, 32
3, 125949, Note_on_c, 0, 57, 36
3, 126019, Control_c, 0, 64, 0
3, 126173, Control_c, 0, 64, 127
3, 126370, Note_on_c, 0, 57, 0
3, 126649, Note_on_c, 0, 57, 43
3, 127035, Note_on_c, 0, 57, 0
3, 127291, Note_on_c, 0, 57, 49
3, 127442, Note_on_c, 0, 60, 0
3, 127490, Note_on_c, 0, 57, 0
3, 127637, Note_on_c, 0, 48, 0
3, 127656, Note_on_c, 0, 69, 0
3, 127733, Note_on_c, 0, 65, 0
3, 128409, Note_on_c, 0, 65, 41
3, 128422, Note_on_c, 0, 62, 35
3, 128431, Control_c, 0, 64, 0
3, 128442, Note_on_c, 0, 58, 35
3, 128496, Note_on_c, 0, 48, 32
3, 128648, Control_c, 0, 64, 127
3, 129146, Note_on_c, 0, 55, 27
3, 129167, Note_on_c, 0, 58, 0
3, 129347, Note_on_c, 0, 62, 0
3, 129432, Note_on_c, 0, 65, 0
3, 129913, Note_on_c, 0, 62, 26
3, 129914, Note_on_c, 0, 65, 34
3, 129955, Note_on_c, 0, 58, 23
3, 130069, Note_on_c, 0, 55, 0
3, 130074, Note_on_c, 0, 62, 0
3, 130142, Note_on_c, 0, 65, 0
3, 130577, Note_on_c, 0, 58, 0
3, 130944, Note_on_c, 0, 82, 63
3, 130992, Note_on_c, 0, 74, 57
3, 131038, Note_on_c, 0, 58, 25
3, 131276, Note_on_c, 0, 48, 0
3, 131737, Note_on_c, 0, 74, 0
3, 131823, Note_on_c, 0, 82, 0
3, 132281, Note_on_c, 0, 58, 0
3, 132319, Note_on_c, 0, 82, 68
3, 132331, Note_on_c, 0, 74, 56
3, 132332, Note_on_c, 0, 48, 32
3, 132789, Note_on_c, 0, 74, 0
3, 132847, Note_on_c, 0, 82, 0
3, 133062, Note_on_c, 0, 72, 42
3, 133067, Note_on_c, 0, 81, 59
3, 133323, Note_on_c, 0, 72, 0
3, 133414, Note_on_c, 0, 81, 0
3, 133730, Note_on_c, 0, 79, 41
3, 133750, Note_on_c, 0, 70, 35
3, 133926, Note_on_c, 0, 48, 0
3, 133963, Note_on_c, 0, 70, 0
3, 134038, Note_on_c, 0, 79, 0
3, 135161, Note_on_c, 0, 88, 41
3, 135165, Note_on_c, 0, 91, 57
3, 135166, Note_on_c, 0, 79, 44
3, 135193, Note_on_c, 0, 76, 30
3, 135421, Note_on_c, 0, 91, 0
3, 135455, Note_on_c, 0, 88, 0
3, 135533, Note_on_c, 0, 79, 0
3, 135680, Note_on_c, 0, 76, 0
3, 135911, Note_on_c, 0, 88, 49
3, 135921, Note_on_c, 0, 76, 44
3, 135939, Note_on_c, 0, 72, 29
3, 135954, Note_on_c, 0, 84, 30
3, 136114, Note_on_c, 0, 88, 0
3, 136189, Note_on_c, 0, 84, 0
3, 136265, Note_on_c, 0, 76, 0
3, 136427, Note_on_c, 0, 72, 0
3, 136738, Note_on_c, 0, 72, 35
3, 136745, Note_on_c, 0, 84, 27
3, 136802, Note_on_c, 0, 70, 31
3, 136850, Control_c, 0, 64, 0
3, 137018, Control_c, 0, 64, 127
3, 137257, Note_on_c, 0, 70, 0
3, 137339, Note_on_c, 0, 72, 0
3, 137479, Note_on_c, 0, 84, 0
3, 137901, Note_on_c, 0, 70, 43
3, 138353, Note_on_c, 0, 70, 0
3, 139555, Note_on_c, 0, 48, 13
3, 139995, Note_on_c, 0, 48, 0
3, 140313, Note_on_c, 0, 48, 33
3, 140800, Note_on_c, 0, 56, 36
3, 141117, Note_on_c, 0, 59, 38
3, 141369, Note_on_c, 0, 62, 34
3, 141579, Note_on_c, 0, 62, 0
3, 141629, Note_on_c, 0, 65, 45
3, 141798, Note_on_c, 0, 65, 0
3, 141876, Note_on_c, 0, 68, 52
3, 142029, Note_on_c, 0, 68, 0
3, 142121, Note_on_c, 0, 71, 60
3, 142279, Note_on_c, 0, 71, 0
3, 142366, Note_on_c, 0, 72, 61
3, 142621, Note_on_c, 0, 72, 0
3, 142701, Note_on_c, 0, 74, 74
3, 143710, Note_on_c, 0, 74, 0
3, 144199, Note_on_c, 0, 74, 62
3, 144240, Control_c, 0, 64, 0
3, 144242, Note_on_c, 0, 65, 58
3, 144318, Control_c, 0, 64, 127
3, 144529, Note_on_c, 0, 74, 0
3, 144537, Note_on_c, 0, 65, 0
3, 144744, Note_on_c, 0, 76, 71
3, 144765, Note_on_c, 0, 67, 55
3, 144998, Note_on_c, 0, 76, 0
3, 145009, Note_on_c, 0, 67, 0
3, 145315, Note_on_c, 0, 77, 60
3, 145330, Note_on_c, 0, 69, 48
3, 145580, Note_on_c, 0, 69, 0
3, 145608, Note_on_c, 0, 48, 0
3, 145643, Note_on_c, 0, 77, 0
3, 145650, Note_on_c, 0, 56, 0
3, 145704, Note_on_c, 0, 59, 0
3, 146320, Note_on_c, 0, 48, 39
3, 146406, Note_on_c, 0, 72, 55
3, 146441, Note_on_c, 0, 57, 47
3, 146448, Control_c, 0, 64, 0
3, 146496, Note_on_c, 0, 60, 47
3, 146526, Note_on_c, 0, 81, 71
3, 146678, Control_c, 0, 64, 127
3, 147262, Note_on_c, 0, 81, 0
3, 147328, Note_on_c, 0, 72, 0
3, 147720, Note_on_c, 0, 69, 33
3, 147734, Note_on_c, 0, 77, 53
3, 147852, Note_on_c, 0, 77, 0
3, 147949, Note_on_c, 0, 69, 0
3, 148373, Note_on_c, 0, 72, 41
3, 148388, Note_on_c, 0, 65, 42
3, 148469, Note_on_c, 0, 60, 0
3, 148662, Note_on_c, 0, 57, 0
3, 148707, Note_on_c, 0, 65, 0
3, 148776, Note_on_c, 0, 48, 0
3, 148785, Note_on_c, 0, 72, 0
3, 148926, Note_on_c, 0, 69, 41
3, 148935, Note_on_c, 0, 60, 40
3, 148954, Note_on_c, 0, 65, 29
3, 149142, Note_on_c, 0, 60, 0
3, 149161, Note_on_c, 0, 69, 0
3, 149246, Note_on_c, 0, 65, 0
3, 149718, Control_c, 0, 64, 0
3, 149750, Note_on_c, 0, 67, 30
3, 149752, Note_on_c, 0, 65, 41
3, 149757, Note_on_c, 0, 62, 27
3, 149787, Note_on_c, 0, 58, 26
3, 149805, Note_on_c, 0, 48, 28
3, 150052, Control_c, 0, 64, 127
3, 150578, Note_on_c, 0, 55, 24
3, 150680, Note_on_c, 0, 58, 0
3, 150833, Note_on_c, 0, 62, 0
3, 150892, Note_on_c, 0, 67, 0
3, 150918, Note_on_c, 0, 65, 0
3, 151465, Note_on_c, 0, 62, 20
3, 151473, Note_on_c, 0, 65, 19
3, 151486, Note_on_c, 0, 58, 25
3, 151549, Note_on_c, 0, 67, 5
3, 151567, Note_on_c, 0, 55, 0
3, 151729, Note_on_c, 0, 48, 0
3, 151730, Note_on_c, 0, 62, 0
3, 151864, Note_on_c, 0, 67, 0
3, 151880, Note_on_c, 0, 65, 0
3, 151920, Note_on_c, 0, 58, 0
3, 153503, Note_on_c, 0, 86, 73
3, 153510, Note_on_c, 0, 71, 62
3, 154033, Note_on_c, 0, 88, 74
3, 154050, Note_on_c, 0, 72, 58
3, 154069, Note_on_c, 0, 71, 0
3, 154074, Note_on_c, 0, 86, 0
3, 154552, Note_on_c, 0, 71, 53
3, 154555, Note_on_c, 0, 86, 68
3, 154621, Note_on_c, 0, 72, 0
3, 154631, Note_on_c, 0, 88, 0
3, 155244, Note_on_c, 0, 86, 0
3, 155249, Note_on_c, 0, 84, 60
3, 155294, Note_on_c, 0, 71, 0
3, 155312, Note_on_c, 0, 70, 42
3, 155325, Control_c, 0, 64, 0
3, 155492, Control_c, 0, 64, 127
3, 155851, Control_c, 0, 64, 0
3, 155897, Note_on_c, 0, 91, 73
3, 155920, Note_on_c, 0, 76, 45
3, 155951, Note_on_c, 0, 70, 0
3, 155952, Note_on_c, 0, 84, 0
3, 156031, Control_c, 0, 64, 127
3, 156337, Note_on_c, 0, 91, 0
3, 156372, Note_on_c, 0, 88, 64
3, 156395, Note_on_c, 0, 72, 45
3, 156442, Note_on_c, 0, 76, 0
3, 156771, Note_on_c, 0, 88, 0
3, 156784, Note_on_c, 0, 72, 0
3, 156788, Note_on_c, 0, 84, 62
3, 156793, Note_on_c, 0, 70, 46
3, 156945, Note_on_c, 0, 84, 0
3, 157168, Note_on_c, 0, 70, 0
3, 157211, Note_on_c, 0, 67, 39
3, 157222, Note_on_c, 0, 82, 56
3, 157225, Control_c, 0, 64, 0
3, 157339, Control_c, 0, 64, 127
3, 157657, Note_on_c, 0, 67, 0
3, 157672, Note_on_c, 0, 79, 35
3, 157672, Note_on_c, 0, 64, 37
3, 157675, Note_on_c, 0, 82, 0
3, 157961, Note_on_c, 0, 79, 0
3, 158174, Note_on_c, 0, 64, 0
3, 158200, Note_on_c, 0, 60, 32
3, 158205, Note_on_c, 0, 76, 41
3, 158852, Note_on_c, 0, 60, 0
3, 158856, Note_on_c, 0, 72, 32
3, 158896, Note_on_c, 0, 58, 34
3, 158983, Note_on_c, 0, 76, 0
3, 159480, Note_on_c, 0, 58, 0
3, 160939, Note_on_c, 0, 72, 0
3, 161007, Note_on_c, 0, 77, 36
3, 161008, Note_on_c, 0, 69, 22
3, 161041, Note_on_c, 0, 53, 22
3, 161099, Control_c, 0, 64, 0
3, 161342, Control_c, 0, 64, 127
3, 161615, Note_on_c, 0, 60, 24
3, 161726, Note_on_c, 0, 69, 0
3, 162196, Note_on_c, 0, 65, 24
3, 162228, Note_on_c, 0, 77, 0
3, 162500, Note_on_c, 0, 60, 0
3, 162810, Note_on_c, 0, 60, 31
3, 163097, Note_on_c, 0, 65, 0
3, 163520, Note_on_c, 0, 65, 32
3, 164216, Note_on_c, 0, 81, 72
3, 164360, Note_on_c, 0, 53, 0
3, 164735, Note_on_c, 0, 81, 0
3, 164772, Note_on_c, 0, 53, 29
3, 164781, Note_on_c, 0, 79, 64
3, 165268, Note_on_c, 0, 53, 0
3, 165287, Note_on_c, 0, 79, 0
3, 165332, Note_on_c, 0, 77, 64
3, 165936, Control_c, 0, 64, 0
3, 165937, Note_on_c, 0, 75, 62
3, 165938, Note_on_c, 0, 53, 33
3, 165952, Note_on_c, 0, 65, 0
3, 165954, Note_on_c, 0, 60, 0
3, 166232, Control_c, 0, 64, 127
3, 166417, Note_on_c, 0, 75, 0
3, 166439, Note_on_c, 0, 74, 51
3, 166462, Control_c, 0, 64, 0
3, 166485, Note_on_c, 0, 62, 20
3, 166617, Control_c, 0, 64, 127
3, 166961, Note_on_c, 0, 70, 45
3, 167026, Note_on_c, 0, 65, 24
3, 167312, Note_on_c, 0, 62, 0
3, 167529, Note_on_c, 0, 62, 24
3, 167537, Note_on_c, 0, 74, 0
3, 167555, Note_on_c, 0, 65, 0
3, 167606, Note_on_c, 0, 70, 0
3, 167885, Note_on_c, 0, 77, 0
3, 167984, Note_on_c, 0, 62, 0
3, 168122, Note_on_c, 0, 65, 38
3, 168377, Note_on_c, 0, 65, 0
3, 168487, Note_on_c, 0, 62, 1
3, 168699, Note_on_c, 0, 67, 54
3, 168735, Note_on_c, 0, 65, 27
3, 168736, Note_on_c, 0, 62, 0
3, 169315, Note_on_c, 0, 70, 48
3, 169396, Note_on_c, 0, 62, 14
3, 169649, Note_on_c, 0, 53, 0
3, 169885, Note_on_c, 0, 74, 54
3, 169915, Note_on_c, 0, 53, 24
3, 170051, Note_on_c, 0, 65, 0
3, 170240, Note_on_c, 0, 53, 0
3, 170461, Note_on_c, 0, 74, 0
3, 170471, Note_on_c, 0, 62, 0
3, 170514, Note_on_c, 0, 70, 0
3, 170518, Note_on_c, 0, 67, 0
3, 170525, Note_on_c, 0, 53, 29
3, 170549, Note_on_c, 0, 72, 50
3, 170555, Note_on_c, 0, 76, 31
3, 170592, Control_c, 0, 64, 0
3, 170824, Control_c, 0, 64, 127
3, 171070, Note_on_c, 0, 60, 24
3, 171492, Note_on_c, 0, 76, 0
3, 171509, Note_on_c, 0, 72, 0
3, 171533, Note_on_c, 0, 64, 26
3, 171542, Note_on_c, 0, 67, 36
3, 171629, Note_on_c, 0, 67, 0
3, 171675, Note_on_c, 0, 60, 0
3, 172032, Note_on_c, 0, 64, 0
3, 172072, Note_on_c, 0, 84, 67
3, 172082, Note_on_c, 0, 60, 31
3, 172329, Note_on_c, 0, 84, 0
3, 172400, Note_on_c, 0, 53, 0
3, 172685, Note_on_c, 0, 84, 46
3, 172725, Note_on_c, 0, 76, 40
3, 172743, Note_on_c, 0, 53, 18
3, 172788, Note_on_c, 0, 60, 0
3, 173255, Note_on_c, 0, 84, 0
3, 173261, Note_on_c, 0, 60, 26
3, 173392, Note_on_c, 0, 76, 0
3, 173918, Note_on_c, 0, 82, 39
3, 173919, Note_on_c, 0, 64, 34
3, 173924, Note_on_c, 0, 72, 34
3, 174092, Note_on_c, 0, 60, 0
3, 174584, Note_on_c, 0, 60, 24
3, 174719, Note_on_c, 0, 53, 0
3, 174768, Note_on_c, 0, 64, 0
3, 174975, Note_on_c, 0, 82, 0
3, 175000, Note_on_c, 0, 72, 0
3, 175430, Control_c, 0, 64, 0
3, 175463, Note_on_c, 0, 72, 32
3, 175472, Note_on_c, 0, 81, 36
3, 175476, Note_on_c, 0, 60, 0
3, 175486, Note_on_c, 0, 53, 16
3, 175634, Control_c, 0, 64, 127
3, 175988, Note_on_c, 0, 81, 0
3, 176048, Note_on_c, 0, 60, 24
3, 176186, Note_on_c, 0, 72, 0
3, 176658, Note_on_c, 0, 77, 32
3, 176689, Note_on_c, 0, 69, 16
3, 176696, Note_on_c, 0, 65, 18
3, 176784, Note_on_c, 0, 60, 0
3, 177328, Note_on_c, 0, 60, 32
3, 178075, Note_on_c, 0, 60, 0
3, 178598, Note_on_c, 0, 60, 27
3, 179138, Note_on_c, 0, 60, 0
3, 180015, Note_on_c, 0, 60, 24
3, 180506, Note_on_c, 0, 57, 46
3, 180514, Note_on_c, 0, 60, 41
3, 180532, Note_on_c, 0, 69, 71
3, 180535, Note_on_c, 0, 53, 29
3, 180579, Control_c, 0, 64, 127
3, 180625, Note_on_c, 0, 69, 0
3, 180696, Note_on_c, 0, 77, 0
3, 180911, Note_on_c, 0, 53, 0
3, 180930, Note_on_c, 0, 60, 0
3, 180957, Note_on_c, 0, 57, 0
3, 181115, Note_on_c, 0, 60, 0
3, 181131, Note_on_c, 0, 60, 25
3, 181143, Note_on_c, 0, 57, 27
3, 181144, Note_on_c, 0, 65, 0
3, 181160, Note_on_c, 0, 53, 0
3, 181168, Note_on_c, 0, 53, 27
3, 181501, Note_on_c, 0, 53, 0
3, 181525, Control_c, 0, 64, 0
3, 181548, Note_on_c, 0, 60, 0
3, 181625, Note_on_c, 0, 57, 0
3, 182032, Note_on_c, 0, 57, 36
3, 182046, Note_on_c, 0, 60, 25
3, 182208, Note_on_c, 0, 60, 0
3, 182250, Note_on_c, 0, 57, 0
3, 182524, Note_on_c, 0, 60, 30
3, 182542, Note_on_c, 0, 57, 36
3, 182568, Note_on_c, 0, 53, 24
3, 182781, Note_on_c, 0, 53, 0
3, 182853, Note_on_c, 0, 60, 0
3, 182863, Note_on_c, 0, 57, 0
3, 183059, Note_on_c, 0, 60, 35
3, 183068, Note_on_c, 0, 57, 35
3, 183073, Control_c, 0, 64, 0
3, 183105, Note_on_c, 0, 53, 25
3, 183340, Control_c, 0, 64, 127
3, 183520, Note_on_c, 0, 60, 0
3, 183558, Note_on_c, 0, 57, 0
3, 183559, Note_on_c, 0, 53, 0
3, 183919, Note_on_c, 0, 57, 53
3, 183929, Note_on_c, 0, 60, 36
3, 183971, Note_on_c, 0, 53, 26
3, 184266, Note_on_c, 0, 53, 0
3, 184273, Note_on_c, 0, 57, 0
3, 184300, Note_on_c, 0, 60, 0
3, 184328, Note_on_c, 0, 69, 0
3, 184416, Note_on_c, 0, 70, 79
3, 184419, Note_on_c, 0, 55, 54
3, 184423, Note_on_c, 0, 53, 35
3, 184426, Note_on_c, 0, 62, 63
3, 184433, Control_c, 0, 64, 0
3, 184441, Note_on_c, 0, 58, 67
3, 184810, Note_on_c, 0, 62, 0
3, 184858, Note_on_c, 0, 58, 0
3, 184864, Note_on_c, 0, 55, 0
3, 184880, Control_c, 0, 64, 127
3, 185011, Note_on_c, 0, 62, 41
3, 185040, Note_on_c, 0, 58, 48
3, 185062, Note_on_c, 0, 55, 29
3, 185313, Note_on_c, 0, 53, 0
3, 185333, Note_on_c, 0, 55, 0
3, 185342, Note_on_c, 0, 58, 0
3, 185377, Note_on_c, 0, 62, 0
3, 185825, Note_on_c, 0, 62, 41
3, 185852, Note_on_c, 0, 58, 32
3, 186160, Note_on_c, 0, 58, 0
3, 186164, Note_on_c, 0, 62, 0
3, 186777, Note_on_c, 0, 62, 31
3, 186792, Note_on_c, 0, 55, 22
3, 186816, Note_on_c, 0, 58, 37
3, 186832, Note_on_c, 0, 53, 17
3, 187219, Note_on_c, 0, 53, 0
3, 187270, Note_on_c, 0, 62, 0
3, 187312, Note_on_c, 0, 55, 0
3, 187313, Note_on_c, 0, 58, 0
3, 187358, Note_on_c, 0, 70, 0
3, 187650, Note_on_c, 0, 62, 33
3, 187662, Note_on_c, 0, 53, 27
3, 187664, Note_on_c, 0, 70, 76
3, 187671, Note_on_c, 0, 58, 38
3, 187918, Note_on_c, 0, 62, 0
3, 187927, Note_on_c, 0, 53, 0
3, 187975, Note_on_c, 0, 70, 0
3, 188028, Note_on_c, 0, 58, 0
3, 188142, Control_c, 0, 64, 0
3, 188195, Note_on_c, 0, 72, 74
3, 188198, Note_on_c, 0, 52, 57
3, 188207, Note_on_c, 0, 60, 50
3, 188213, Note_on_c, 0, 58, 44
3, 188477, Control_c, 0, 64, 127
3, 188597, Note_on_c, 0, 52, 0
3, 188602, Note_on_c, 0, 58, 0
3, 188606, Note_on_c, 0, 60, 0
3, 188771, Note_on_c, 0, 60, 32
3, 188791, Note_on_c, 0, 52, 31
3, 188794, Note_on_c, 0, 58, 44
3, 189003, Note_on_c, 0, 60, 0
3, 189004, Note_on_c, 0, 52, 0
3, 189006, Note_on_c, 0, 58, 0
3, 189646, Note_on_c, 0, 58, 34
3, 189648, Note_on_c, 0, 52, 24
3, 189651, Note_on_c, 0, 60, 24
3, 189985, Note_on_c, 0, 58, 0
3, 190004, Note_on_c, 0, 52, 0
3, 190033, Note_on_c, 0, 60, 0
3, 190659, Note_on_c, 0, 60, 32
3, 190677, Note_on_c, 0, 58, 36
3, 190682, Note_on_c, 0, 52, 22
3, 191210, Note_on_c, 0, 60, 0
3, 191226, Note_on_c, 0, 52, 0
3, 191230, Note_on_c, 0, 58, 0
3, 191319, Note_on_c, 0, 72, 0
3, 191549, Note_on_c, 0, 67, 95
3, 191569, Note_on_c, 0, 58, 52
3, 191572, Note_on_c, 0, 52, 40
3, 191587, Note_on_c, 0, 60, 45
3, 191746, Note_on_c, 0, 52, 0
3, 191863, Note_on_c, 0, 67, 0
3, 191891, Note_on_c, 0, 60, 0
3, 191957, Note_on_c, 0, 58, 0
3, 192010, Control_c, 0, 64, 0
3, 192057, Note_on_c, 0, 57, 59
3, 192060, Note_on_c, 0, 60, 40
3, 192064, Note_on_c, 0, 69, 92
3, 192089, Note_on_c, 0, 53, 30
3, 192259, Note_on_c, 0, 69, 0
3, 192282, Note_on_c, 0, 70, 64
3, 192436, Note_on_c, 0, 70, 0
3, 192494, Note_on_c, 0, 69, 63
3, 193030, Note_on_c, 0, 60, 0
3, 193076, Control_c, 0, 64, 127
3, 193077, Note_on_c, 0, 53, 0
3, 193077, Note_on_c, 0, 57, 0
3, 193482, Note_on_c, 0, 60, 31
3, 193486, Note_on_c, 0, 57, 39
3, 193523, Note_on_c, 0, 53, 24
3, 193785, Note_on_c, 0, 53, 0
3, 193808, Note_on_c, 0, 60, 0
3, 193813, Note_on_c, 0, 57, 0
3, 194545, Note_on_c, 0, 60, 24
3, 194557, Note_on_c, 0, 57, 29
3, 194603, Note_on_c, 0, 53, 22
3, 194941, Note_on_c, 0, 53, 0
3, 195027, Note_on_c, 0, 57, 0
3, 195029, Note_on_c, 0, 60, 0
3, 195409, Note_on_c, 0, 57, 34
3, 195444, Note_on_c, 0, 60, 18
3, 195631, Note_on_c, 0, 60, 0
3, 195656, Note_on_c, 0, 57, 0
3, 195898, Control_c, 0, 64, 0
3, 195928, Note_on_c, 0, 53, 37
3, 196403, Note_on_c, 0, 62, 43
3, 196427, Note_on_c, 0, 57, 40
3, 196642, Control_c, 0, 64, 127
3, 196838, Note_on_c, 0, 62, 0
3, 196855, Note_on_c, 0, 57, 0
3, 196875, Note_on_c, 0, 69, 0
3, 196890, Note_on_c, 0, 53, 0
3, 197319, Note_on_c, 0, 62, 44
3, 197340, Note_on_c, 0, 57, 45
3, 197352, Note_on_c, 0, 53, 28
3, 197450, Note_on_c, 0, 62, 0
3, 197587, Note_on_c, 0, 57, 0
3, 197616, Note_on_c, 0, 53, 0
3, 197822, Note_on_c, 0, 62, 84
3, 197857, Note_on_c, 0, 57, 58
3, 197864, Note_on_c, 0, 53, 31
3, 198100, Note_on_c, 0, 62, 0
3, 198342, Note_on_c, 0, 64, 103
3, 198355, Note_on_c, 0, 62, 54
3, 198438, Control_c, 0, 64, 0
3, 198592, Control_c, 0, 64, 127
3, 198759, Note_on_c, 0, 62, 0
3, 198769, Note_on_c, 0, 64, 0
3, 198817, Note_on_c, 0, 53, 0
3, 198855, Note_on_c, 0, 57, 0
3, 199018, Note_on_c, 0, 65, 101
3, 199048, Note_on_c, 0, 57, 53
3, 199054, Note_on_c, 0, 62, 39
3, 199066, Note_on_c, 0, 53, 29
3, 199335, Note_on_c, 0, 53, 0
3, 199399, Note_on_c, 0, 57, 0
3, 199407, Note_on_c, 0, 65, 0
3, 199411, Note_on_c, 0, 62, 0
3, 199674, Control_c, 0, 64, 0
3, 199700, Note_on_c, 0, 67, 89
3, 199703, Note_on_c, 0, 55, 38
3, 199713, Note_on_c, 0, 53, 37
3, 199715, Note_on_c, 0, 62, 48
3, 199718, Note_on_c, 0, 59, 47
3, 200185, Note_on_c, 0, 69, 54
3, 200207, Note_on_c, 0, 67, 0
3, 200332, Note_on_c, 0, 67, 54
3, 200362, Note_on_c, 0, 69, 0
3, 200512, Note_on_c, 0, 66, 53
3, 200579, Note_on_c, 0, 67, 0
3, 200601, Note_on_c, 0, 66, 0
3, 200732, Note_on_c, 0, 67, 65
3, 200855, Note_on_c, 0, 59, 0
3, 200883, Control_c, 0, 64, 127
3, 200976, Note_on_c, 0, 62, 0
3, 201164, Note_on_c, 0, 67, 0
3, 201205, Note_on_c, 0, 74, 68
3, 201235, Note_on_c, 0, 62, 26
3, 201397, Note_on_c, 0, 62, 0
3, 201614, Control_c, 0, 64, 0
3, 201637, Note_on_c, 0, 67, 50
3, 201807, Control_c, 0, 64, 127
3, 202131, Note_on_c, 0, 62, 30
3, 202177, Note_on_c, 0, 59, 15
3, 202333, Control_c, 0, 64, 0
3, 202440, Note_on_c, 0, 62, 0
3, 202457, Note_on_c, 0, 67, 0
3, 202576, Control_c, 0, 64, 127
3, 202735, Note_on_c, 0, 53, 0
3, 203055, Note_on_c, 0, 53, 26
3, 203260, Note_on_c, 0, 59, 0
3, 203330, Note_on_c, 0, 55, 0
3, 203349, Note_on_c, 0, 53, 0
3, 203537, Note_on_c, 0, 60, 30
3, 203550, Note_on_c, 0, 52, 26
3, 203553, Control_c, 0, 64, 0
3, 204020, Note_on_c, 0, 64, 46
3, 204221, Note_on_c, 0, 64, 0
3, 204231, Note_on_c, 0, 74, 0
3, 204293, Note_on_c, 0, 67, 45
3, 204414, Note_on_c, 0, 67, 0
3, 204488, Note_on_c, 0, 60, 0
3, 204544, Note_on_c, 0, 72, 60
3, 204551, Note_on_c, 0, 52, 0
3, 204709, Note_on_c, 0, 72, 0
3, 204974, Note_on_c, 0, 60, 54
3, 204976, Note_on_c, 0, 52, 42
3, 204995, Note_on_c, 0, 55, 38
3, 205323, Note_on_c, 0, 52, 0
3, 205374, Note_on_c, 0, 60, 0
3, 205388, Note_on_c, 0, 55, 0
3, 205479, Note_on_c, 0, 60, 55
3, 205492, Note_on_c, 0, 55, 45
3, 205495, Note_on_c, 0, 52, 43
3, 205930, Note_on_c, 0, 76, 54
3, 206074, Note_on_c, 0, 76, 0
3, 206204, Note_on_c, 0, 79, 44
3, 206286, Note_on_c, 0, 60, 0
3, 206312, Note_on_c, 0, 79, 0
3, 206383, Note_on_c, 0, 55, 0
3, 206497, Note_on_c, 0, 55, 24
3, 206501, Note_on_c, 0, 60, 54
3, 206515, Note_on_c, 0, 84, 94
3, 206682, Note_on_c, 0, 84, 0
3, 206915, Note_on_c, 0, 84, 89
3, 206981, Control_c, 0, 64, 127
3, 207055, Note_on_c, 0, 52, 0
3, 207141, Note_on_c, 0, 84, 0
3, 207239, Note_on_c, 0, 82, 79
3, 207242, Note_on_c, 0, 52, 32
3, 207372, Note_on_c, 0, 52, 0
3, 207456, Note_on_c, 0, 82, 0
3, 207480, Control_c, 0, 64, 0
3, 207496, Note_on_c, 0, 55, 0
3, 207566, Note_on_c, 0, 52, 62
3, 207578, Note_on_c, 0, 82, 80
3, 207781, Note_on_c, 0, 60, 0
3, 207919, Note_on_c, 0, 53, 35
3, 207924, Note_on_c, 0, 82, 0
3, 207942, Note_on_c, 0, 60, 34
3, 207946, Note_on_c, 0, 81, 71
3, 207952, Note_on_c, 0, 57, 55
3, 208222, Note_on_c, 0, 81, 0
3, 208413, Note_on_c, 0, 81, 79
3, 208652, Note_on_c, 0, 57, 0
3, 208835, Note_on_c, 0, 57, 35
3, 208862, Note_on_c, 0, 77, 59
3, 208865, Control_c, 0, 64, 127
3, 209031, Note_on_c, 0, 60, 0
3, 209213, Control_c, 0, 64, 0
3, 209342, Note_on_c, 0, 77, 0
3, 209360, Note_on_c, 0, 72, 48
3, 209379, Note_on_c, 0, 60, 33
3, 209731, Note_on_c, 0, 60, 0
3, 209882, Note_on_c, 0, 60, 32
3, 210010, Note_on_c, 0, 52, 0
3, 210251, Control_c, 0, 64, 127
3, 210424, Note_on_c, 0, 72, 0
3, 210457, Note_on_c, 0, 60, 0
3, 210533, Note_on_c, 0, 81, 0
3, 210540, Note_on_c, 0, 57, 0
3, 210561, Note_on_c, 0, 53, 0
3, 210741, Note_on_c, 0, 52, 38
3, 210901, Note_on_c, 0, 52, 0
3, 211201, Control_c, 0, 64, 0
3, 211243, Note_on_c, 0, 50, 32
3, 211279, Note_on_c, 0, 57, 20
3, 211317, Note_on_c, 0, 53, 15
3, 211701, Note_on_c, 0, 60, 31
3, 212035, Control_c, 0, 64, 127
3, 212385, Note_on_c, 0, 60, 0
3, 212399, Note_on_c, 0, 57, 0
3, 212654, Note_on_c, 0, 60, 30
3, 212656, Note_on_c, 0, 57, 36
3, 213099, Control_c, 0, 64, 0
3, 213318, Control_c, 0, 64, 127
3, 213355, Note_on_c, 0, 60, 0
3, 213434, Note_on_c, 0, 57, 0
3, 213498, Control_c, 0, 64, 0
3, 213632, Note_on_c, 0, 57, 32
3, 213658, Note_on_c, 0, 60, 32
3, 214132, Note_on_c, 0, 60, 0
3, 214196, Note_on_c, 0, 62, 37
3, 214246, Note_on_c, 0, 62, 0
3, 214419, Note_on_c, 0, 65, 76
3, 214525, Note_on_c, 0, 65, 0
3, 214662, Note_on_c, 0, 69, 94
3, 214698, Note_on_c, 0, 50, 0
3, 214859, Note_on_c, 0, 69, 0
3, 214862, Note_on_c, 0, 53, 0
3, 214908, Note_on_c, 0, 72, 78
3, 214951, Note_on_c, 0, 50, 45
3, 215025, Note_on_c, 0, 57, 0
3, 215115, Note_on_c, 0, 72, 0
3, 215179, Note_on_c, 0, 71, 73
3, 215239, Note_on_c, 0, 59, 24
3, 215340, Note_on_c, 0, 59, 0
3, 215580, Note_on_c, 0, 59, 36
3, 215598, Note_on_c, 0, 55, 24
3, 215644, Note_on_c, 0, 53, 29
3, 215971, Note_on_c, 0, 59, 0
3, 216075, Note_on_c, 0, 67, 44
3, 216079, Note_on_c, 0, 59, 24
3, 216192, Control_c, 0, 64, 127
3, 216244, Control_c, 0, 64, 0
3, 216307, Note_on_c, 0, 59, 0
3, 216386, Note_on_c, 0, 55, 0
3, 216552, Note_on_c, 0, 59, 35
3, 216572, Note_on_c, 0, 55, 17
3, 216642, Control_c, 0, 64, 127
3, 216730, Control_c, 0, 64, 0
3, 216770, Note_on_c, 0, 59, 0
3, 217003, Note_on_c, 0, 62, 32
3, 217235, Note_on_c, 0, 55, 0
3, 217469, Note_on_c, 0, 59, 33
3, 217480, Note_on_c, 0, 67, 0
3, 217495, Note_on_c, 0, 55, 24
3, 217523, Note_on_c, 0, 71, 0
3, 217836, Note_on_c, 0, 62, 0
3, 218455, Note_on_c, 0, 55, 0
3, 218465, Note_on_c, 0, 65, 87
3, 218512, Note_on_c, 0, 53, 0
3, 218562, Note_on_c, 0, 50, 0
3, 218652, Note_on_c, 0, 67, 56
3, 218688, Note_on_c, 0, 59, 0
3, 218711, Note_on_c, 0, 65, 0
3, 218782, Note_on_c, 0, 65, 46
3, 218837, Note_on_c, 0, 67, 0
3, 218964, Note_on_c, 0, 62, 47
3, 218970, Note_on_c, 0, 65, 0
3, 219000, Note_on_c, 0, 55, 29
3, 219025, Note_on_c, 0, 48, 37
3, 219104, Note_on_c, 0, 62, 0
3, 219130, Note_on_c, 0, 64, 57
3, 219631, Note_on_c, 0, 55, 0
3, 219829, Note_on_c, 0, 60, 49
3, 219848, Control_c, 0, 64, 127
3, 219988, Note_on_c, 0, 48, 0
3, 220307, Note_on_c, 0, 55, 28
3, 220318, Note_on_c, 0, 52, 24
3, 220335, Note_on_c, 0, 48, 29
3, 220574, Note_on_c, 0, 55, 0
3, 220597, Note_on_c, 0, 48, 0
3, 220629, Note_on_c, 0, 52, 0
3, 220759, Control_c, 0, 64, 0
3, 220849, Note_on_c, 0, 52, 29
3, 220855, Note_on_c, 0, 55, 31
3, 220867, Note_on_c, 0, 48, 31
3, 220977, Control_c, 0, 64, 127
3, 221121, Note_on_c, 0, 55, 0
3, 221157, Note_on_c, 0, 48, 0
3, 221182, Note_on_c, 0, 52, 0
3, 221382, Note_on_c, 0, 52, 34
3, 221393, Note_on_c, 0, 55, 36
3, 221408, Note_on_c, 0, 48, 35
3, 221413, Control_c, 0, 64, 0
3, 221747, Control_c, 0, 64, 127
3, 221908, Note_on_c, 0, 48, 0
3, 221912, Note_on_c, 0, 60, 0
3, 221943, Note_on_c, 0, 55, 0
3, 222074, Note_on_c, 0, 64, 0
3, 222078, Note_on_c, 0, 52, 0
3, 222307, Note_on_c, 0, 55, 35
3, 222320, Note_on_c, 0, 52, 25
3, 222352, Note_on_c, 0, 48, 34
3, 222455, Note_on_c, 0, 52, 0
3, 222544, Note_on_c, 0, 55, 0
3, 222572, Note_on_c, 0, 48, 0
3, 222762, Control_c, 0, 64, 0
3, 222785, Note_on_c, 0, 48, 46
3, 222786, Note_on_c, 0, 54, 49
3, 222792, Note_on_c, 0, 57, 46
3, 223111, Note_on_c, 0, 57, 0
3, 223157, Note_on_c, 0, 54, 0
3, 223166, Note_on_c, 0, 48, 0
3, 223316, Note_on_c, 0, 57, 53
3, 223317, Note_on_c, 0, 54, 42
3, 223335, Note_on_c, 0, 48, 36
3, 223569, Control_c, 0, 64, 127
3, 223692, Note_on_c, 0, 57, 0
3, 223778, Note_on_c, 0, 48, 0
3, 223800, Note_on_c, 0, 54, 0
3, 224204, Note_on_c, 0, 48, 46
3, 224212, Note_on_c, 0, 57, 62
3, 224213, Note_on_c, 0, 54, 40
3, 224371, Note_on_c, 0, 57, 0
3, 224448, Note_on_c, 0, 59, 74
3, 224544, Control_c, 0, 64, 0
3, 224623, Note_on_c, 0, 59, 0
3, 224686, Note_on_c, 0, 60, 76
3, 224706, Note_on_c, 0, 59, 44
3, 224765, Note_on_c, 0, 59, 0
3, 224801, Control_c, 0, 64, 127
3, 224807, Note_on_c, 0, 48, 0
3, 224880, Note_on_c, 0, 60, 0
3, 224907, Note_on_c, 0, 62, 67
3, 224971, Note_on_c, 0, 48, 35
3, 224981, Note_on_c, 0, 57, 36
3, 225054, Note_on_c, 0, 62, 0
3, 225071, Control_c, 0, 64, 0
3, 225144, Note_on_c, 0, 63, 70
3, 225286, Note_on_c, 0, 63, 0
3, 225351, Note_on_c, 0, 57, 0
3, 225364, Note_on_c, 0, 65, 75
3, 225495, Note_on_c, 0, 65, 0
3, 225542, Note_on_c, 0, 54, 0
3, 225552, Note_on_c, 0, 66, 71
3, 225584, Control_c, 0, 64, 127
3, 225751, Note_on_c, 0, 68, 70
3, 225798, Note_on_c, 0, 54, 33
3, 225802, Note_on_c, 0, 66, 0
3, 225812, Note_on_c, 0, 57, 36
3, 225840, Control_c, 0, 64, 0
3, 225896, Note_on_c, 0, 68, 0
3, 225904, Control_c, 0, 64, 127
3, 225936, Note_on_c, 0, 69, 63
3, 226069, Note_on_c, 0, 69, 0
3, 226105, Note_on_c, 0, 70, 65
3, 226169, Note_on_c, 0, 57, 0
3, 226240, Note_on_c, 0, 70, 0
3, 226280, Note_on_c, 0, 71, 66
3, 226309, Note_on_c, 0, 48, 0
3, 226397, Note_on_c, 0, 71, 0
3, 226472, Note_on_c, 0, 74, 47
3, 226594, Note_on_c, 0, 54, 0
3, 226624, Control_c, 0, 64, 0
3, 226652, Note_on_c, 0, 74, 0
3, 226677, Note_on_c, 0, 72, 50
3, 226682, Note_on_c, 0, 55, 43
3, 226696, Note_on_c, 0, 46, 44
3, 227127, Note_on_c, 0, 70, 61
3, 227328, Control_c, 0, 64, 127
3, 227467, Note_on_c, 0, 55, 0
3, 227568, Note_on_c, 0, 70, 0
3, 227589, Note_on_c, 0, 67, 49
3, 227594, Note_on_c, 0, 55, 19
3, 227681, Note_on_c, 0, 72, 0
3, 227895, Note_on_c, 0, 46, 0
3, 227966, Note_on_c, 0, 67, 0
3, 228066, Note_on_c, 0, 46, 36
3, 228139, Note_on_c, 0, 62, 36
3, 228190, Note_on_c, 0, 62, 0
3, 228345, Note_on_c, 0, 55, 0
3, 228448, Note_on_c, 0, 46, 0
3, 228546, Control_c, 0, 64, 0
3, 228576, Note_on_c, 0, 58, 28
3, 228583, Note_on_c, 0, 46, 31
3, 228609, Note_on_c, 0, 55, 16
3, 228791, Control_c, 0, 64, 127
3, 228864, Note_on_c, 0, 55, 0
3, 228954, Note_on_c, 0, 58, 0
3, 229030, Note_on_c, 0, 62, 40
3, 229057, Note_on_c, 0, 55, 20
3, 229265, Note_on_c, 0, 55, 0
3, 229296, Note_on_c, 0, 62, 0
3, 229504, Note_on_c, 0, 55, 39
3, 229756, Note_on_c, 0, 46, 0
3, 229959, Note_on_c, 0, 46, 55
3, 230188, Note_on_c, 0, 46, 0
3, 230284, Note_on_c, 0, 55, 0
3, 230420, Control_c, 0, 64, 0
3, 230432, Note_on_c, 0, 46, 58
3, 230639, Control_c, 0, 64, 127
3, 230919, Note_on_c, 0, 52, 60
3, 231178, Control_c, 0, 64, 0
3, 231210, Note_on_c, 0, 57, 62
3, 231408, Note_on_c, 0, 57, 0
3, 231418, Note_on_c, 0, 58, 69
3, 231541, Note_on_c, 0, 55, 40
3, 231564, Note_on_c, 0, 52, 0
3, 231599, Note_on_c, 0, 58, 0
3, 231617, Note_on_c, 0, 60, 64
3, 231637, Note_on_c, 0, 46, 0
3, 231776, Note_on_c, 0, 61, 72
3, 231793, Note_on_c, 0, 60, 0
3, 231833, Note_on_c, 0, 55, 0
3, 231837, Note_on_c, 0, 58, 55
3, 231948, Note_on_c, 0, 63, 65
3, 231965, Note_on_c, 0, 61, 0
3, 232070, Note_on_c, 0, 58, 0
3, 232079, Note_on_c, 0, 63, 0
3, 232089, Note_on_c, 0, 64, 65
3, 232116, Note_on_c, 0, 60, 50
3, 232224, Note_on_c, 0, 64, 0
3, 232264, Note_on_c, 0, 66, 71
3, 232296, Note_on_c, 0, 60, 0
3, 232311, Note_on_c, 0, 63, 35
3, 232353, Note_on_c, 0, 66, 0
3, 232417, Note_on_c, 0, 67, 63
3, 232456, Note_on_c, 0, 63, 0
3, 232523, Note_on_c, 0, 64, 17
3, 232556, Note_on_c, 0, 69, 65
3, 232576, Note_on_c, 0, 67, 0
3, 232727, Note_on_c, 0, 70, 67
3, 232728, Note_on_c, 0, 64, 0
3, 232729, Note_on_c, 0, 69, 0
3, 232732, Note_on_c, 0, 67, 48
3, 232810, Note_on_c, 0, 70, 0
3, 232857, Note_on_c, 0, 72, 67
3, 232971, Note_on_c, 0, 68, 39
3, 232981, Note_on_c, 0, 67, 0
3, 232993, Note_on_c, 0, 72, 0
3, 232997, Note_on_c, 0, 73, 63
3, 233140, Note_on_c, 0, 75, 63
3, 233153, Note_on_c, 0, 73, 0
3, 233219, Note_on_c, 0, 68, 0
3, 233223, Note_on_c, 0, 72, 27
3, 233273, Note_on_c, 0, 75, 0
3, 233278, Note_on_c, 0, 76, 66
3, 233358, Control_c, 0, 64, 127
3, 233434, Note_on_c, 0, 76, 0
3, 233451, Note_on_c, 0, 78, 63
3, 233501, Note_on_c, 0, 72, 0
3, 233568, Note_on_c, 0, 78, 0
3, 233633, Note_on_c, 0, 79, 62
3, 233794, Note_on_c, 0, 81, 65
3, 233817, Note_on_c, 0, 79, 0
3, 233981, Note_on_c, 0, 82, 68
3, 233982, Note_on_c, 0, 81, 0
3, 234133, Note_on_c, 0, 82, 0
3, 234172, Note_on_c, 0, 84, 69
3, 234469, Note_on_c, 0, 81, 59
3, 234488, Control_c, 0, 64, 0
3, 234528, Note_on_c, 0, 84, 0
3, 234584, Note_on_c, 0, 57, 33
3, 234835, Control_c, 0, 64, 127
3, 234912, Note_on_c, 0, 81, 0
3, 234924, Note_on_c, 0, 60, 40
3, 235325, Note_on_c, 0, 69, 49
3, 235357, Note_on_c, 0, 65, 30
3, 235603, Note_on_c, 0, 60, 0
3, 235765, Note_on_c, 0, 60, 25
3, 235770, Note_on_c, 0, 65, 0
3, 235777, Note_on_c, 0, 69, 0
3, 236207, Control_c, 0, 64, 0
3, 236268, Note_on_c, 0, 65, 31
3, 236320, Note_on_c, 0, 72, 49
3, 236451, Note_on_c, 0, 74, 58
3, 236468, Note_on_c, 0, 72, 0
3, 236569, Note_on_c, 0, 72, 39
3, 236622, Note_on_c, 0, 74, 0
3, 236682, Control_c, 0, 64, 127
3, 236732, Note_on_c, 0, 71, 67
3, 236756, Note_on_c, 0, 72, 0
3, 236802, Note_on_c, 0, 65, 0
3, 236995, Note_on_c, 0, 71, 0
3, 237039, Note_on_c, 0, 72, 74
3, 237082, Note_on_c, 0, 65, 37
3, 237175, Note_on_c, 0, 72, 0
3, 237376, Note_on_c, 0, 84, 92
3, 237456, Note_on_c, 0, 60, 0
3, 237711, Note_on_c, 0, 84, 0
3, 237802, Note_on_c, 0, 60, 29
3, 237808, Note_on_c, 0, 84, 76
3, 237863, Note_on_c, 0, 65, 0
3, 237972, Note_on_c, 0, 57, 0
3, 238105, Note_on_c, 0, 60, 0
3, 238158, Note_on_c, 0, 84, 0
3, 238234, Control_c, 0, 64, 0
3, 238252, Note_on_c, 0, 57, 52
3, 238254, Note_on_c, 0, 84, 73
3, 238648, Note_on_c, 0, 58, 49
3, 238650, Note_on_c, 0, 81, 68
3, 238668, Note_on_c, 0, 84, 0
3, 238759, Control_c, 0, 64, 127
3, 239008, Note_on_c, 0, 81, 0
3, 239042, Control_c, 0, 64, 0
3, 239078, Note_on_c, 0, 82, 64
3, 239111, Note_on_c, 0, 62, 33
3, 239520, Note_on_c, 0, 74, 54
3, 239525, Note_on_c, 0, 62, 0
3, 239550, Note_on_c, 0, 65, 33
3, 239663, Note_on_c, 0, 82, 0
3, 239747, Control_c, 0, 64, 127
3, 239946, Note_on_c, 0, 74, 0
3, 240007, Note_on_c, 0, 62, 33
3, 240015, Note_on_c, 0, 77, 47
3, 240070, Note_on_c, 0, 65, 0
3, 240460, Note_on_c, 0, 77, 0
3, 240519, Note_on_c, 0, 65, 28
3, 240528, Note_on_c, 0, 70, 33
3, 240739, Note_on_c, 0, 57, 0
3, 240980, Note_on_c, 0, 57, 52
3, 241140, Note_on_c, 0, 70, 0
3, 241166, Note_on_c, 0, 65, 0
3, 241268, Note_on_c, 0, 62, 0
3, 241296, Note_on_c, 0, 58, 0
3, 241365, Note_on_c, 0, 57, 0
3, 241486, Note_on_c, 0, 69, 48
3, 241711, Note_on_c, 0, 69, 0
3, 241890, Control_c, 0, 64, 0
3, 241964, Note_on_c, 0, 55, 27
3, 241981, Note_on_c, 0, 62, 30
3, 241986, Note_on_c, 0, 58, 34
3, 242014, Note_on_c, 0, 70, 42
3, 242158, Note_on_c, 0, 70, 0
3, 242179, Note_on_c, 0, 72, 53
3, 242309, Note_on_c, 0, 70, 48
3, 242360, Note_on_c, 0, 72, 0
3, 242460, Note_on_c, 0, 69, 58
3, 242484, Note_on_c, 0, 70, 0
3, 242634, Note_on_c, 0, 69, 0
3, 242711, Note_on_c, 0, 66, 57
3, 242730, Note_on_c, 0, 62, 0
3, 242996, Note_on_c, 0, 66, 0
3, 243038, Note_on_c, 0, 69, 73
3, 243112, Note_on_c, 0, 62, 19
3, 243260, Note_on_c, 0, 62, 0
3, 243280, Note_on_c, 0, 66, 55
3, 243306, Note_on_c, 0, 69, 0
3, 243420, Note_on_c, 0, 58, 0
3, 243449, Note_on_c, 0, 66, 0
3, 243495, Note_on_c, 0, 67, 71
3, 243704, Note_on_c, 0, 67, 0
3, 243728, Note_on_c, 0, 62, 60
3, 243856, Note_on_c, 0, 62, 0
3, 243947, Note_on_c, 0, 65, 75
3, 244153, Note_on_c, 0, 65, 0
3, 244189, Note_on_c, 0, 67, 41
3, 244256, Note_on_c, 0, 65, 56
3, 244331, Note_on_c, 0, 67, 0
3, 244416, Note_on_c, 0, 62, 43
3, 244456, Note_on_c, 0, 65, 0
3, 244665, Note_on_c, 0, 62, 0
3, 244692, Note_on_c, 0, 63, 71
3, 244829, Note_on_c, 0, 62, 18
3, 244851, Note_on_c, 0, 63, 0
3, 244924, Note_on_c, 0, 64, 53
3, 245098, Note_on_c, 0, 64, 0
3, 245162, Note_on_c, 0, 67, 66
3, 245290, Note_on_c, 0, 62, 0
3, 245294, Note_on_c, 0, 55, 0
3, 245315, Control_c, 0, 64, 127
3, 245326, Note_on_c, 0, 67, 0
3, 245395, Note_on_c, 0, 70, 65
3, 245579, Note_on_c, 0, 70, 0
3, 245639, Note_on_c, 0, 72, 55
3, 245804, Control_c, 0, 64, 0
3, 245841, Note_on_c, 0, 72, 0
3, 245861, Note_on_c, 0, 48, 38
3, 245904, Note_on_c, 0, 76, 68
3, 246252, Control_c, 0, 64, 127
3, 246336, Note_on_c, 0, 76, 0
3, 246352, Note_on_c, 0, 64, 54
3, 246671, Note_on_c, 0, 64, 0
3, 246766, Note_on_c, 0, 67, 47
3, 246963, Note_on_c, 0, 67, 0
3, 247530, Note_on_c, 0, 48, 0
3, 247690, Control_c, 0, 64, 0
3, 247744, Note_on_c, 0, 70, 83
3, 247745, Note_on_c, 0, 74, 79
3, 247747, Note_on_c, 0, 64, 90
3, 247750, Note_on_c, 0, 58, 64
3, 247933, Control_c, 0, 64, 127
3, 248138, Note_on_c, 0, 74, 0
3, 248208, Note_on_c, 0, 64, 0
3, 248244, Note_on_c, 0, 58, 0
3, 248256, Note_on_c, 0, 70, 0
3, 248357, Control_c, 0, 64, 0
3, 248369, Note_on_c, 0, 72, 54
3, 248373, Note_on_c, 0, 57, 62
3, 248375, Note_on_c, 0, 69, 64
3, 248381, Note_on_c, 0, 64, 58
3, 248569, Note_on_c, 0, 69, 0
3, 248628, Note_on_c, 0, 72, 0
3, 248640, Control_c, 0, 64, 127
3, 248692, Note_on_c, 0, 64, 0
3, 248945, Note_on_c, 0, 57, 0
3, 249071, Note_on_c, 0, 67, 53
3, 249079, Note_on_c, 0, 62, 37
3, 249080, Note_on_c, 0, 55, 27
3, 249168, Note_on_c, 0, 55, 0
3, 249278, Note_on_c, 0, 62, 0
3, 249514, Note_on_c, 0, 67, 0
3, 249575, Control_c, 0, 64, 0
3, 249671, Note_on_c, 0, 69, 54
3, 249681, Note_on_c, 0, 60, 33
3, 249683, Note_on_c, 0, 65, 38
3, 249693, Note_on_c, 0, 53, 38
3, 249940, Note_on_c, 0, 60, 0
3, 249948, Control_c, 0, 64, 127
3, 250188, Note_on_c, 0, 65, 0
3, 250666, Note_on_c, 0, 69, 0
3, 251050, Note_on_c, 0, 60, 26
3, 251590, Control_c, 0, 64, 0
3, 251594, Note_on_c, 0, 69, 74
3, 251787, Note_on_c, 0, 69, 0
3, 251806, Note_on_c, 0, 68, 58
3, 251975, Note_on_c, 0, 68, 0
3, 252021, Note_on_c, 0, 69, 60
3, 252289, Note_on_c, 0, 53, 0
3, 252368, Note_on_c, 0, 69, 0
3, 252504, Note_on_c, 0, 53, 28
3, 252512, Note_on_c, 0, 67, 61
3, 252748, Note_on_c, 0, 67, 0
3, 252761, Note_on_c, 0, 65, 44
3, 252916, Note_on_c, 0, 65, 0
3, 252976, Note_on_c, 0, 67, 61
3, 253194, Note_on_c, 0, 53, 0
3, 253335, Note_on_c, 0, 60, 0
3, 253372, Note_on_c, 0, 67, 0
3, 253454, Note_on_c, 0, 65, 49
3, 253483, Note_on_c, 0, 53, 32
3, 253697, Note_on_c, 0, 65, 0
3, 253984, Note_on_c, 0, 65, 57
3, 254328, Note_on_c, 0, 53, 0
3, 254464, Note_on_c, 0, 63, 60
3, 254467, Note_on_c, 0, 53, 24
3, 254513, Note_on_c, 0, 65, 0
3, 254606, Control_c, 0, 64, 127
3, 254607, Note_on_c, 0, 53, 0
3, 255349, Control_c, 0, 64, 0
3, 255397, Note_on_c, 0, 57, 50
3, 255447, Note_on_c, 0, 41, 27
3, 255824, Control_c, 0, 64, 127
3, 255914, Note_on_c, 0, 53, 17
3, 256193, Note_on_c, 0, 57, 0
3, 256249, Note_on_c, 0, 41, 0
3, 256320, Note_on_c, 0, 60, 33
3, 256384, Note_on_c, 0, 63, 0
3, 256389, Note_on_c, 0, 60, 0
3, 256550, Note_on_c, 0, 53, 0
3, 256834, Note_on_c, 0, 74, 60
3, 257222, Control_c, 0, 64, 0
3, 257237, Note_on_c, 0, 74, 0
3, 257285, Note_on_c, 0, 72, 47
3, 257286, Note_on_c, 0, 46, 30
3, 257402, Note_on_c, 0, 46, 0
3, 257469, Control_c, 0, 64, 127
3, 258286, Note_on_c, 0, 65, 25
3, 258306, Note_on_c, 0, 62, 26
3, 258337, Note_on_c, 0, 60, 25
3, 258419, Note_on_c, 0, 65, 0
3, 258645, Note_on_c, 0, 72, 0
3, 258677, Note_on_c, 0, 65, 29
3, 258764, Note_on_c, 0, 65, 0
3, 258860, Note_on_c, 0, 67, 41
3, 258881, Control_c, 0, 64, 0
3, 259005, Note_on_c, 0, 69, 64
3, 259031, Note_on_c, 0, 67, 0
3, 259112, Note_on_c, 0, 69, 0
3, 259155, Note_on_c, 0, 72, 73
3, 259307, Note_on_c, 0, 72, 0
3, 259321, Note_on_c, 0, 69, 38
3, 259402, Note_on_c, 0, 53, 25
3, 259444, Note_on_c, 0, 69, 0
3, 259480, Note_on_c, 0, 70, 54
3, 259566, Note_on_c, 0, 70, 0
3, 259656, Note_on_c, 0, 74, 66
3, 259759, Note_on_c, 0, 62, 0
3, 259769, Note_on_c, 0, 74, 0
3, 259784, Note_on_c, 0, 77, 53
3, 259799, Note_on_c, 0, 60, 0
3, 259943, Note_on_c, 0, 77, 0
3, 259948, Note_on_c, 0, 81, 57
3, 260048, Note_on_c, 0, 81, 0
3, 260115, Note_on_c, 0, 84, 85
3, 260253, Note_on_c, 0, 65, 37
3, 260259, Note_on_c, 0, 62, 32
3, 260280, Note_on_c, 0, 81, 72
3, 260305, Note_on_c, 0, 60, 22
3, 260331, Note_on_c, 0, 84, 0
3, 260444, Note_on_c, 0, 81, 0
3, 260564, Note_on_c, 0, 65, 0
3, 260646, Note_on_c, 0, 77, 74
3, 260677, Control_c, 0, 64, 127
3, 260723, Note_on_c, 0, 60, 0
3, 260739, Note_on_c, 0, 62, 0
3, 260870, Note_on_c, 0, 77, 0
3, 260884, Note_on_c, 0, 53, 0
3, 260921, Note_on_c, 0, 74, 49
3, 261210, Note_on_c, 0, 74, 0
3, 261267, Control_c, 0, 64, 0
3, 261364, Note_on_c, 0, 71, 36
3, 261684, Note_on_c, 0, 62, 34
3, 261688, Note_on_c, 0, 56, 36
3, 261702, Note_on_c, 0, 59, 38
3, 261985, Control_c, 0, 64, 127
3, 262191, Note_on_c, 0, 71, 0
3, 262238, Note_on_c, 0, 59, 0
3, 262250, Note_on_c, 0, 62, 0
3, 262357, Note_on_c, 0, 56, 0
3, 262568, Note_on_c, 0, 56, 36
3, 262992, Note_on_c, 0, 58, 48
3, 263024, Control_c, 0, 64, 0
3, 263109, Note_on_c, 0, 58, 0
3, 263139, Note_on_c, 0, 59, 57
3, 263271, Note_on_c, 0, 59, 0
3, 263287, Note_on_c, 0, 60, 48
3, 263426, Note_on_c, 0, 61, 58
3, 263434, Note_on_c, 0, 60, 0
3, 263550, Note_on_c, 0, 61, 0
3, 263578, Note_on_c, 0, 62, 58
3, 263685, Note_on_c, 0, 62, 0
3, 263740, Note_on_c, 0, 63, 53
3, 263859, Note_on_c, 0, 64, 45
3, 263869, Note_on_c, 0, 63, 0
3, 263989, Note_on_c, 0, 64, 0
3, 264039, Note_on_c, 0, 65, 85
3, 264066, Note_on_c, 0, 62, 39
3, 264264, Note_on_c, 0, 62, 0
3, 264513, Control_c, 0, 64, 127
3, 264770, Note_on_c, 0, 56, 0
3, 265077, Control_c, 0, 64, 0
3, 265181, Note_on_c, 0, 48, 24
3, 265478, Note_on_c, 0, 65, 0
3, 265479, Note_on_c, 0, 56, 48
3, 265975, Note_on_c, 0, 60, 46
3, 266110, Note_on_c, 0, 60, 0
3, 266233, Note_on_c, 0, 65, 66
3, 266347, Note_on_c, 0, 65, 0
3, 266429, Note_on_c, 0, 68, 78
3, 266592, Note_on_c, 0, 68, 0
3, 266682, Note_on_c, 0, 72, 75
3, 266730, Note_on_c, 0, 60, 30
3, 266899, Note_on_c, 0, 72, 0
3, 266910, Note_on_c, 0, 68, 48
3, 266982, Note_on_c, 0, 60, 0
3, 267057, Note_on_c, 0, 68, 0
3, 267065, Note_on_c, 0, 56, 0
3, 267224, Note_on_c, 0, 59, 22
3, 267280, Note_on_c, 0, 59, 0
3, 267306, Note_on_c, 0, 56, 30
3, 267402, Note_on_c, 0, 65, 46
3, 267584, Note_on_c, 0, 65, 0
3, 267626, Note_on_c, 0, 56, 0
3, 267651, Note_on_c, 0, 68, 68
3, 267820, Note_on_c, 0, 68, 0
3, 267889, Note_on_c, 0, 72, 75
3, 267897, Note_on_c, 0, 60, 28
3, 267909, Note_on_c, 0, 56, 34
3, 268104, Note_on_c, 0, 72, 0
3, 268180, Note_on_c, 0, 68, 42
3, 268188, Note_on_c, 0, 48, 0
3, 268194, Note_on_c, 0, 60, 0
3, 268313, Note_on_c, 0, 68, 0
3, 268395, Note_on_c, 0, 48, 47
3, 268396, Note_on_c, 0, 72, 75
3, 268477, Control_c, 0, 64, 127
3, 268613, Note_on_c, 0, 72, 0
3, 268628, Note_on_c, 0, 48, 0
3, 268654, Note_on_c, 0, 68, 40
3, 268789, Note_on_c, 0, 68, 0
3, 268862, Control_c, 0, 64, 0
3, 268866, Note_on_c, 0, 73, 62
3, 268929, Note_on_c, 0, 56, 0
3, 269255, Note_on_c, 0, 49, 38
3, 269440, Control_c, 0, 64, 127
3, 269556, Control_c, 0, 64, 0
3, 269724, Note_on_c, 0, 61, 40
3, 269765, Note_on_c, 0, 55, 38
3, 270028, Note_on_c, 0, 55, 0
3, 270219, Note_on_c, 0, 57, 62
3, 270414, Control_c, 0, 64, 127
3, 270530, Control_c, 0, 64, 0
3, 270645, Note_on_c, 0, 57, 0
3, 270698, Note_on_c, 0, 58, 56
3, 270941, Control_c, 0, 64, 127
3, 271025, Note_on_c, 0, 61, 0
3, 271212, Note_on_c, 0, 61, 43
3, 271251, Note_on_c, 0, 49, 0
3, 271509, Note_on_c, 0, 73, 0
3, 271660, Note_on_c, 0, 65, 46
3, 271769, Note_on_c, 0, 61, 0
3, 271819, Note_on_c, 0, 58, 0
3, 272113, Note_on_c, 0, 65, 0
3, 272145, Note_on_c, 0, 73, 37
3, 272296, Note_on_c, 0, 73, 0
3, 272570, Control_c, 0, 64, 0
3, 272602, Note_on_c, 0, 52, 37
3, 272814, Control_c, 0, 64, 127
3, 273130, Note_on_c, 0, 60, 37
3, 273560, Note_on_c, 0, 91, 50
3, 273616, Note_on_c, 0, 91, 0
3, 273664, Note_on_c, 0, 94, 61
3, 273820, Note_on_c, 0, 91, 47
3, 273854, Note_on_c, 0, 94, 0
3, 273884, Note_on_c, 0, 91, 0
3, 273930, Control_c, 0, 64, 0
3, 273949, Note_on_c, 0, 88, 52
3, 274054, Note_on_c, 0, 88, 0
3, 274149, Note_on_c, 0, 87, 38
3, 274240, Note_on_c, 0, 87, 0
3, 274245, Note_on_c, 0, 86, 62
3, 274352, Note_on_c, 0, 86, 0
3, 274383, Note_on_c, 0, 85, 32
3, 274455, Note_on_c, 0, 85, 0
3, 274469, Note_on_c, 0, 84, 33
3, 274571, Note_on_c, 0, 84, 0
3, 274590, Note_on_c, 0, 60, 0
3, 274631, Note_on_c, 0, 83, 41
3, 274695, Note_on_c, 0, 83, 0
3, 274784, Note_on_c, 0, 82, 45
3, 274913, Note_on_c, 0, 79, 40
3, 274924, Note_on_c, 0, 82, 0
3, 274972, Note_on_c, 0, 79, 0
3, 275046, Note_on_c, 0, 76, 40
3, 275159, Note_on_c, 0, 76, 0
3, 275198, Note_on_c, 0, 75, 48
3, 275284, Note_on_c, 0, 75, 0
3, 275311, Note_on_c, 0, 74, 47
3, 275445, Note_on_c, 0, 74, 0
3, 275450, Note_on_c, 0, 73, 44
3, 275550, Note_on_c, 0, 73, 0
3, 275595, Note_on_c, 0, 72, 28
3, 275718, Note_on_c, 0, 72, 0
3, 275726, Note_on_c, 0, 71, 53
3, 275777, Note_on_c, 0, 60, 26
3, 275865, Note_on_c, 0, 71, 0
3, 275889, Note_on_c, 0, 70, 39
3, 275991, Note_on_c, 0, 70, 0
3, 276039, Note_on_c, 0, 69, 34
3, 276188, Control_c, 0, 64, 127
3, 276227, Note_on_c, 0, 69, 0
3, 276253, Note_on_c, 0, 67, 36
3, 276336, Note_on_c, 0, 52, 0
3, 276459, Note_on_c, 0, 67, 0
3, 276496, Note_on_c, 0, 69, 55
3, 276522, Control_c, 0, 64, 0
3, 276761, Note_on_c, 0, 60, 0
3, 277061, Control_c, 0, 64, 127
3, 277957, Note_on_c, 0, 60, 40
3, 278210, Note_on_c, 0, 69, 0
3, 278368, Note_on_c, 0, 60, 0
3, 278430, Note_on_c, 0, 72, 70
3, 278899, Note_on_c, 0, 69, 60
3, 279365, Note_on_c, 0, 60, 52
3, 279831, Note_on_c, 0, 60, 0
3, 279842, Note_on_c, 0, 48, 57
3, 279943, Note_on_c, 0, 69, 0
3, 280006, Note_on_c, 0, 72, 0
3, 280281, Control_c, 0, 64, 0
3, 280294, Note_on_c, 0, 70, 72
3, 280304, Note_on_c, 0, 65, 76
3, 280307, Note_on_c, 0, 62, 71
3, 280325, Note_on_c, 0, 58, 52
3, 280334, Note_on_c, 0, 68, 37
3, 280384, Note_on_c, 0, 68, 0
3, 280601, Control_c, 0, 64, 127
3, 280739, Note_on_c, 0, 58, 0
3, 280785, Note_on_c, 0, 55, 58
3, 280942, Note_on_c, 0, 65, 0
3, 280952, Note_on_c, 0, 62, 0
3, 280971, Note_on_c, 0, 70, 0
3, 281093, Note_on_c, 0, 55, 0
3, 281313, Note_on_c, 0, 53, 54
3, 281488, Note_on_c, 0, 53, 0
3, 281556, Note_on_c, 0, 55, 59
3, 281707, Note_on_c, 0, 55, 0
3, 281768, Note_on_c, 0, 58, 77
3, 281888, Note_on_c, 0, 58, 0
3, 281957, Note_on_c, 0, 60, 74
3, 282090, Note_on_c, 0, 60, 0
3, 282145, Note_on_c, 0, 62, 44
3, 282236, Note_on_c, 0, 62, 0
3, 282319, Note_on_c, 0, 65, 62
3, 282352, Note_on_c, 0, 55, 1
3, 282475, Note_on_c, 0, 67, 48
3, 282493, Note_on_c, 0, 65, 0
3, 282615, Note_on_c, 0, 70, 56
3, 282618, Note_on_c, 0, 67, 0
3, 282704, Note_on_c, 0, 70, 0
3, 282757, Note_on_c, 0, 72, 58
3, 282885, Note_on_c, 0, 74, 66
3, 282903, Note_on_c, 0, 72, 0
3, 282987, Note_on_c, 0, 74, 0
3, 283064, Note_on_c, 0, 77, 66
3, 283217, Note_on_c, 0, 79, 47
3, 283220, Note_on_c, 0, 58, 31
3, 283221, Note_on_c, 0, 77, 0
3, 283334, Note_on_c, 0, 82, 68
3, 283386, Note_on_c, 0, 79, 0
3, 283503, Note_on_c, 0, 82, 0
3, 283531, Note_on_c, 0, 86, 75
3, 283663, Note_on_c, 0, 48, 0
3, 283891, Note_on_c, 0, 58, 0
3, 283895, Note_on_c, 0, 82, 67
3, 283941, Note_on_c, 0, 48, 40
3, 283944, Note_on_c, 0, 86, 0
3, 284112, Note_on_c, 0, 48, 0
3, 284170, Note_on_c, 0, 82, 0
3, 284197, Note_on_c, 0, 55, 0
3, 284202, Note_on_c, 0, 84, 66
3, 284232, Control_c, 0, 64, 0
3, 284258, Note_on_c, 0, 48, 38
3, 284541, Control_c, 0, 64, 127
3, 284638, Note_on_c, 0, 84, 0
3, 284640, Note_on_c, 0, 55, 35
3, 285121, Note_on_c, 0, 79, 48
3, 285131, Note_on_c, 0, 60, 37
3, 285134, Note_on_c, 0, 67, 27
3, 285135, Note_on_c, 0, 48, 0
3, 285144, Note_on_c, 0, 55, 0
3, 285342, Note_on_c, 0, 60, 0
3, 285596, Note_on_c, 0, 79, 0
3, 285647, Note_on_c, 0, 64, 42
3, 285768, Note_on_c, 0, 67, 0
3, 285935, Note_on_c, 0, 64, 0
3, 286147, Note_on_c, 0, 76, 55
3, 286159, Note_on_c, 0, 67, 37
3, 286170, Note_on_c, 0, 64, 35
3, 286496, Note_on_c, 0, 64, 0
3, 286648, Note_on_c, 0, 64, 40
3, 286709, Note_on_c, 0, 67, 0
3, 287137, Note_on_c, 0, 64, 0
3, 287161, Note_on_c, 0, 67, 32
3, 287400, Note_on_c, 0, 67, 0
3, 287623, Note_on_c, 0, 67, 37
3, 287715, Note_on_c, 0, 67, 0
3, 287833, Note_on_c, 0, 76, 0
3, 288017, Control_c, 0, 64, 0
3, 288067, Note_on_c, 0, 74, 55
3, 288069, Note_on_c, 0, 48, 39
3, 288076, Note_on_c, 0, 65, 37
3, 288104, Note_on_c, 0, 68, 34
3, 288326, Control_c, 0, 64, 127
3, 288496, Note_on_c, 0, 74, 0
3, 288537, Note_on_c, 0, 56, 75
3, 288552, Note_on_c, 0, 68, 0
3, 288573, Note_on_c, 0, 65, 0
3, 288917, Note_on_c, 0, 59, 74
3, 289125, Note_on_c, 0, 59, 0
3, 289253, Note_on_c, 0, 60, 74
3, 289495, Note_on_c, 0, 60, 0
3, 289533, Note_on_c, 0, 61, 75
3, 289647, Control_c, 0, 64, 0
3, 289754, Note_on_c, 0, 61, 0
3, 289775, Note_on_c, 0, 62, 80
3, 290027, Note_on_c, 0, 63, 74
3, 290028, Note_on_c, 0, 59, 42
3, 290049, Note_on_c, 0, 62, 0
3, 290227, Note_on_c, 0, 63, 0
3, 290270, Note_on_c, 0, 64, 70
3, 290470, Note_on_c, 0, 64, 0
3, 290492, Note_on_c, 0, 48, 0
3, 290497, Note_on_c, 0, 65, 62
3, 290666, Note_on_c, 0, 65, 0
3, 290744, Note_on_c, 0, 68, 64
3, 290909, Note_on_c, 0, 68, 0
3, 290992, Note_on_c, 0, 71, 68
3, 290996, Note_on_c, 0, 48, 36
3, 291162, Note_on_c, 0, 71, 0
3, 291269, Note_on_c, 0, 74, 62
3, 291445, Note_on_c, 0, 74, 0
3, 291522, Note_on_c, 0, 77, 71
3, 291648, Note_on_c, 0, 48, 0
3, 291660, Control_c, 0, 64, 127
3, 291735, Note_on_c, 0, 77, 0
3, 291782, Note_on_c, 0, 74, 61
3, 291973, Note_on_c, 0, 59, 0
3, 291985, Note_on_c, 0, 74, 0
3, 292084, Control_c, 0, 64, 0
3, 292089, Note_on_c, 0, 77, 61
3, 292130, Note_on_c, 0, 48, 36
3, 292131, Note_on_c, 0, 56, 0
3, 292136, Note_on_c, 0, 57, 48
3, 292281, Note_on_c, 0, 77, 0
3, 292465, Note_on_c, 0, 81, 66
3, 292610, Control_c, 0, 64, 127
3, 292642, Note_on_c, 0, 81, 0
3, 292765, Note_on_c, 0, 57, 0
3, 292880, Note_on_c, 0, 69, 41
3, 293364, Note_on_c, 0, 57, 49
3, 293379, Note_on_c, 0, 69, 0
3, 293776, Note_on_c, 0, 57, 0
3, 293862, Note_on_c, 0, 77, 72
3, 293872, Note_on_c, 0, 69, 74
3, 293875, Note_on_c, 0, 57, 13
3, 294091, Note_on_c, 0, 57, 0
3, 294319, Note_on_c, 0, 77, 0
3, 294341, Note_on_c, 0, 57, 49
3, 294406, Note_on_c, 0, 69, 0
3, 294933, Note_on_c, 0, 65, 55
3, 294935, Note_on_c, 0, 72, 51
3, 295032, Note_on_c, 0, 57, 0
3, 295317, Note_on_c, 0, 62, 44
3, 295319, Note_on_c, 0, 57, 43
3, 295427, Note_on_c, 0, 48, 0
3, 295461, Note_on_c, 0, 57, 0
3, 295592, Note_on_c, 0, 62, 0
3, 295594, Note_on_c, 0, 65, 0
3, 295690, Note_on_c, 0, 72, 0
3, 295781, Control_c, 0, 64, 0
3, 295787, Note_on_c, 0, 67, 46
3, 295788, Note_on_c, 0, 62, 34
3, 295802, Note_on_c, 0, 48, 40
3, 296152, Control_c, 0, 64, 127
3, 296253, Note_on_c, 0, 55, 19
3, 296394, Note_on_c, 0, 62, 0
3, 296697, Note_on_c, 0, 65, 46
3, 296698, Note_on_c, 0, 62, 36
3, 296884, Note_on_c, 0, 55, 0
3, 297038, Note_on_c, 0, 62, 0
3, 297155, Note_on_c, 0, 67, 0
3, 297180, Note_on_c, 0, 65, 0
3, 297182, Note_on_c, 0, 55, 17
3, 297461, Note_on_c, 0, 48, 0
3, 297614, Control_c, 0, 64, 0
3, 297657, Note_on_c, 0, 74, 56
3, 297669, Note_on_c, 0, 70, 55
3, 297711, Note_on_c, 0, 55, 0
3, 297717, Note_on_c, 0, 48, 28
3, 297729, Note_on_c, 0, 62, 22
3, 297758, Note_on_c, 0, 58, 17
3, 297896, Control_c, 0, 64, 127
3, 297975, Note_on_c, 0, 62, 0
3, 298007, Note_on_c, 0, 74, 0
3, 298165, Note_on_c, 0, 70, 0
3, 298214, Note_on_c, 0, 58, 0
3, 298283, Note_on_c, 0, 76, 67
3, 298295, Control_c, 0, 64, 0
3, 298302, Note_on_c, 0, 55, 20
3, 298525, Control_c, 0, 64, 127
3, 298927, Note_on_c, 0, 76, 0
3, 299065, Note_on_c, 0, 74, 55
3, 299200, Note_on_c, 0, 48, 0
3, 299219, Note_on_c, 0, 74, 0
3, 299253, Note_on_c, 0, 55, 0
3, 299513, Control_c, 0, 64, 0
3, 299594, Note_on_c, 0, 64, 51
3, 299595, Note_on_c, 0, 72, 40
3, 299599, Note_on_c, 0, 48, 35
3, 299718, Control_c, 0, 64, 127
3, 299719, Note_on_c, 0, 64, 0
3, 299777, Note_on_c, 0, 72, 0
3, 300107, Note_on_c, 0, 60, 33
3, 300117, Note_on_c, 0, 48, 0
3, 300229, Note_on_c, 0, 60, 0
3, 300555, Note_on_c, 0, 64, 57
3, 300561, Note_on_c, 0, 79, 77
3, 300573, Note_on_c, 0, 70, 77
3, 300766, Note_on_c, 0, 79, 0
3, 300848, Note_on_c, 0, 70, 0
3, 301182, Note_on_c, 0, 64, 0
3, 301454, Note_on_c, 0, 76, 54
3, 301470, Note_on_c, 0, 67, 59
3, 301486, Note_on_c, 0, 60, 30
3, 301568, Note_on_c, 0, 76, 0
3, 301617, Note_on_c, 0, 67, 0
3, 301903, Note_on_c, 0, 60, 0
3, 301967, Note_on_c, 0, 72, 42
3, 301975, Note_on_c, 0, 64, 55
3, 302008, Note_on_c, 0, 58, 36
3, 302126, Note_on_c, 0, 58, 0
3, 302216, Note_on_c, 0, 64, 0
3, 302225, Note_on_c, 0, 72, 0
3, 302434, Note_on_c, 0, 55, 29
3, 302437, Note_on_c, 0, 70, 40
3, 302754, Note_on_c, 0, 55, 0
3, 302762, Note_on_c, 0, 70, 0
3, 302894, Note_on_c, 0, 67, 45
3, 302910, Note_on_c, 0, 60, 31
3, 303124, Note_on_c, 0, 60, 0
3, 303257, Note_on_c, 0, 67, 0
3, 303322, Control_c, 0, 64, 0
3, 303362, Note_on_c, 0, 65, 42
3, 303371, Note_on_c, 0, 60, 32
3, 303409, Note_on_c, 0, 53, 24
3, 303651, Note_on_c, 0, 60, 0
3, 303773, Control_c, 0, 64, 127
3, 303828, Note_on_c, 0, 60, 24
3, 303877, Note_on_c, 0, 65, 0
3, 304336, Note_on_c, 0, 65, 37
3, 304650, Note_on_c, 0, 60, 0
3, 304853, Note_on_c, 0, 60, 25
3, 305145, Note_on_c, 0, 65, 0
3, 305326, Control_c, 0, 64, 0
3, 305388, Note_on_c, 0, 65, 27
3, 305408, Note_on_c, 0, 72, 36
3, 305553, Note_on_c, 0, 74, 47
3, 305556, Note_on_c, 0, 72, 0
3, 305642, Note_on_c, 0, 72, 24
3, 305697, Note_on_c, 0, 74, 0
3, 305824, Note_on_c, 0, 71, 52
3, 305847, Note_on_c, 0, 72, 0
3, 305975, Note_on_c, 0, 71, 0
3, 306049, Note_on_c, 0, 72, 54
3, 306213, Note_on_c, 0, 72, 0
3, 306228, Note_on_c, 0, 53, 0
3, 306319, Note_on_c, 0, 77, 71
3, 306342, Note_on_c, 0, 53, 33
3, 306595, Control_c, 0, 64, 127
3, 306771, Note_on_c, 0, 72, 45
3, 306804, Note_on_c, 0, 65, 0
3, 306885, Note_on_c, 0, 53, 0
3, 307077, Note_on_c, 0, 72, 0
3, 307179, Note_on_c, 0, 77, 0
3, 307224, Control_c, 0, 64, 0
3, 307242, Note_on_c, 0, 53, 32
3, 307246, Note_on_c, 0, 72, 39
3, 307262, Note_on_c, 0, 60, 0
3, 307271, Note_on_c, 0, 62, 34
3, 307744, Note_on_c, 0, 74, 53
3, 307814, Note_on_c, 0, 72, 0
3, 307878, Control_c, 0, 64, 127
3, 308058, Control_c, 0, 64, 0
3, 308194, Note_on_c, 0, 65, 48
3, 308263, Control_c, 0, 64, 127
3, 308472, Note_on_c, 0, 53, 0
3, 308660, Note_on_c, 0, 53, 25
3, 308748, Note_on_c, 0, 74, 0
3, 309109, Note_on_c, 0, 70, 72
3, 309162, Control_c, 0, 64, 0
3, 309169, Note_on_c, 0, 65, 0
3, 309328, Control_c, 0, 64, 127
3, 309601, Note_on_c, 0, 74, 71
3, 309640, Note_on_c, 0, 73, 34
3, 309690, Note_on_c, 0, 73, 0
3, 310005, Note_on_c, 0, 53, 0
3, 310021, Control_c, 0, 64, 0
3, 310051, Note_on_c, 0, 67, 71
3, 310251, Control_c, 0, 64, 127
3, 310571, Note_on_c, 0, 53, 30
3, 310594, Note_on_c, 0, 74, 0
3, 310638, Note_on_c, 0, 70, 0
3, 310702, Note_on_c, 0, 62, 0
3, 310726, Note_on_c, 0, 67, 0
3, 310872, Note_on_c, 0, 53, 0
3, 311047, Note_on_c, 0, 64, 79
3, 311060, Control_c, 0, 64, 0
3, 311086, Note_on_c, 0, 53, 39
3, 311505, Note_on_c, 0, 67, 74
3, 311509, Note_on_c, 0, 60, 54
3, 311573, Control_c, 0, 64, 127
3, 311596, Note_on_c, 0, 64, 0
3, 311906, Note_on_c, 0, 67, 0
3, 311997, Control_c, 0, 64, 0
3, 311998, Note_on_c, 0, 72, 71
3, 312007, Note_on_c, 0, 64, 55
3, 312008, Note_on_c, 0, 67, 76
3, 312240, Control_c, 0, 64, 127
3, 312307, Note_on_c, 0, 60, 0
3, 312485, Note_on_c, 0, 60, 34
3, 312494, Note_on_c, 0, 64, 0
3, 313036, Note_on_c, 0, 67, 0
3, 313168, Note_on_c, 0, 72, 0
3, 313239, Note_on_c, 0, 60, 0
3, 313484, Note_on_c, 0, 60, 36
3, 313895, Control_c, 0, 64, 0
3, 314013, Note_on_c, 0, 70, 60
3, 314106, Note_on_c, 0, 70, 0
3, 314122, Note_on_c, 0, 72, 48
3, 314242, Note_on_c, 0, 70, 37
3, 314327, Note_on_c, 0, 72, 0
3, 314416, Note_on_c, 0, 69, 62
3, 314479, Note_on_c, 0, 70, 0
3, 314708, Note_on_c, 0, 53, 0
3, 314718, Note_on_c, 0, 69, 0
3, 314780, Note_on_c, 0, 70, 73
3, 315041, Note_on_c, 0, 70, 0
3, 315077, Note_on_c, 0, 69, 58
3, 315091, Note_on_c, 0, 53, 31
3, 315205, Note_on_c, 0, 60, 0
3, 315485, Note_on_c, 0, 60, 31
3, 315496, Note_on_c, 0, 65, 51
3, 315567, Note_on_c, 0, 60, 0
3, 315846, Control_c, 0, 64, 127
3, 315938, Note_on_c, 0, 60, 44
3, 315998, Note_on_c, 0, 53, 0
3, 316295, Control_c, 0, 64, 0
3, 316346, Note_on_c, 0, 53, 27
3, 316558, Note_on_c, 0, 53, 0
3, 316864, Note_on_c, 0, 53, 29
3, 317210, Note_on_c, 0, 69, 0
3, 317223, Note_on_c, 0, 65, 0
3, 317250, Note_on_c, 0, 60, 0
3, 317310, Note_on_c, 0, 48, 37
3, 317602, Note_on_c, 0, 48, 0
3, 317824, Note_on_c, 0, 48, 30
3, 318022, Note_on_c, 0, 48, 0
3, 318105, Note_on_c, 0, 53, 0
3, 318759, Note_on_c, 0, 69, 49
3, 318787, Note_on_c, 0, 53, 29
3, 318799, Note_on_c, 0, 60, 20
3, 319048, Note_on_c, 0, 69, 0
3, 319054, Note_on_c, 0, 68, 34
3, 319184, Note_on_c, 0, 68, 0
3, 319242, Note_on_c, 0, 69, 40
3, 319607, Control_c, 0, 64, 127
3, 320294, Note_on_c, 0, 65, 24
3, 321077, Note_on_c, 0, 60, 0
3, 321207, Note_on_c, 0, 60, 35
3, 321434, Note_on_c, 0, 69, 0
3, 321726, Note_on_c, 0, 69, 87
3, 321808, Note_on_c, 0, 65, 0
3, 321957, Note_on_c, 0, 68, 69
3, 321982, Note_on_c, 0, 69, 0
3, 322087, Note_on_c, 0, 68, 0
3, 322135, Note_on_c, 0, 53, 0
3, 322170, Note_on_c, 0, 69, 74
3, 322316, Note_on_c, 0, 60, 0
3, 322348, Note_on_c, 0, 69, 0
3, 322408, Note_on_c, 0, 70, 81
3, 322571, Note_on_c, 0, 70, 0
3, 322639, Note_on_c, 0, 72, 68
3, 322645, Note_on_c, 0, 53, 29
3, 322648, Control_c, 0, 64, 0
3, 322650, Note_on_c, 0, 62, 33
3, 322659, Note_on_c, 0, 58, 49
3, 323111, Note_on_c, 0, 70, 51
3, 323267, Note_on_c, 0, 62, 0
3, 323276, Control_c, 0, 64, 127
3, 323543, Note_on_c, 0, 65, 43
3, 323549, Note_on_c, 0, 62, 41
3, 323585, Control_c, 0, 64, 0
3, 323811, Note_on_c, 0, 62, 0
3, 323866, Control_c, 0, 64, 127
3, 323889, Note_on_c, 0, 53, 0
3, 323900, Note_on_c, 0, 58, 0
3, 323983, Control_c, 0, 64, 0
3, 324064, Note_on_c, 0, 53, 33
3, 324067, Note_on_c, 0, 62, 31
3, 324078, Note_on_c, 0, 58, 37
3, 324226, Control_c, 0, 64, 127
3, 324421, Note_on_c, 0, 58, 0
3, 324423, Note_on_c, 0, 53, 0
3, 324426, Note_on_c, 0, 62, 0
3, 324444, Control_c, 0, 64, 0
3, 324572, Note_on_c, 0, 62, 29
3, 324581, Note_on_c, 0, 53, 29
3, 324588, Note_on_c, 0, 58, 42
3, 324803, Control_c, 0, 64, 127
3, 324894, Control_c, 0, 64, 0
3, 324919, Note_on_c, 0, 62, 0
3, 324922, Note_on_c, 0, 53, 0
3, 324928, Note_on_c, 0, 58, 0
3, 325056, Note_on_c, 0, 62, 36
3, 325066, Note_on_c, 0, 70, 0
3, 325072, Note_on_c, 0, 58, 51
3, 325073, Note_on_c, 0, 53, 32
3, 325103, Note_on_c, 0, 65, 0
3, 325240, Control_c, 0, 64, 127
3, 325262, Note_on_c, 0, 72, 0
3, 325592, Note_on_c, 0, 58, 0
3, 325675, Note_on_c, 0, 62, 0
3, 325798, Note_on_c, 0, 53, 0
3, 326005, Note_on_c, 0, 62, 38
3, 326013, Note_on_c, 0, 53, 29
3, 326049, Note_on_c, 0, 58, 45
3, 326236, Note_on_c, 0, 53, 0
3, 326241, Note_on_c, 0, 62, 0
3, 326328, Note_on_c, 0, 58, 0
3, 326382, Control_c, 0, 64, 0
3, 326462, Note_on_c, 0, 58, 26
3, 326464, Note_on_c, 0, 60, 29
3, 326474, Note_on_c, 0, 52, 33
3, 326755, Note_on_c, 0, 60, 0
3, 326768, Note_on_c, 0, 52, 0
3, 326801, Note_on_c, 0, 58, 0
3, 326923, Note_on_c, 0, 60, 49
3, 326928, Note_on_c, 0, 58, 42
3, 326929, Note_on_c, 0, 52, 37
3, 327063, Control_c, 0, 64, 127
3, 327191, Control_c, 0, 64, 0
3, 327257, Note_on_c, 0, 60, 0
3, 327352, Note_on_c, 0, 60, 55
3, 327484, Note_on_c, 0, 60, 0
3, 327509, Note_on_c, 0, 61, 64
3, 327650, Note_on_c, 0, 63, 72
3, 327669, Note_on_c, 0, 61, 0
3, 327737, Note_on_c, 0, 63, 0
3, 327783, Note_on_c, 0, 64, 74
3, 327891, Note_on_c, 0, 64, 0
3, 327900, Note_on_c, 0, 66, 73
3, 327985, Note_on_c, 0, 66, 0
3, 328049, Note_on_c, 0, 67, 66
3, 328154, Note_on_c, 0, 60, 31
3, 328185, Note_on_c, 0, 67, 0
3, 328186, Note_on_c, 0, 69, 40
3, 328309, Note_on_c, 0, 69, 0
3, 328321, Note_on_c, 0, 70, 69
3, 328371, Note_on_c, 0, 70, 0
3, 328472, Note_on_c, 0, 72, 50
3, 328528, Note_on_c, 0, 52, 0
3, 328552, Note_on_c, 0, 72, 0
3, 328584, Note_on_c, 0, 73, 50
3, 328680, Note_on_c, 0, 73, 0
3, 328719, Note_on_c, 0, 75, 56
3, 328764, Note_on_c, 0, 75, 0
3, 328820, Note_on_c, 0, 76, 62
3, 328871, Control_c, 0, 64, 127
3, 328930, Note_on_c, 0, 76, 0
3, 328971, Note_on_c, 0, 78, 46
3, 329015, Note_on_c, 0, 78, 0
3, 329050, Control_c, 0, 64, 0
3, 329095, Note_on_c, 0, 79, 44
3, 329130, Note_on_c, 0, 52, 29
3, 329235, Note_on_c, 0, 79, 0
3, 329237, Note_on_c, 0, 81, 64
3, 329372, Control_c, 0, 64, 127
3, 329395, Note_on_c, 0, 81, 0
3, 329423, Note_on_c, 0, 82, 37
3, 329466, Note_on_c, 0, 82, 0
3, 329533, Note_on_c, 0, 84, 62
3, 329635, Note_on_c, 0, 84, 0
3, 329696, Note_on_c, 0, 85, 54
3, 329880, Note_on_c, 0, 87, 43
3, 329896, Note_on_c, 0, 85, 0
3, 329966, Note_on_c, 0, 88, 57
3, 329992, Note_on_c, 0, 87, 0
3, 329995, Note_on_c, 0, 52, 0
3, 330101, Note_on_c, 0, 88, 0
3, 330129, Note_on_c, 0, 91, 80
3, 330183, Note_on_c, 0, 58, 0
3, 330231, Control_c, 0, 64, 0
3, 330259, Note_on_c, 0, 53, 39
3, 330304, Note_on_c, 0, 89, 60
3, 330332, Note_on_c, 0, 60, 0
3, 330380, Note_on_c, 0, 91, 0
3, 330548, Note_on_c, 0, 89, 0
3, 330654, Note_on_c, 0, 88, 64
3, 330851, Note_on_c, 0, 88, 0
3, 330924, Control_c, 0, 64, 127
3, 331024, Note_on_c, 0, 84, 58
3, 331052, Control_c, 0, 64, 0
3, 331068, Note_on_c, 0, 60, 17
3, 331214, Note_on_c, 0, 84, 0
3, 331287, Note_on_c, 0, 81, 49
3, 331308, Control_c, 0, 64, 127
3, 331553, Note_on_c, 0, 81, 0
3, 331554, Note_on_c, 0, 53, 0
3, 331691, Note_on_c, 0, 77, 48
3, 331735, Note_on_c, 0, 53, 16
3, 331737, Note_on_c, 0, 57, 33
3, 331796, Control_c, 0, 64, 0
3, 331873, Control_c, 0, 64, 127
3, 331905, Note_on_c, 0, 53, 0
3, 331916, Note_on_c, 0, 57, 0
3, 331989, Note_on_c, 0, 60, 0
3, 332092, Control_c, 0, 64, 0
3, 332202, Note_on_c, 0, 60, 28
3, 332221, Note_on_c, 0, 57, 34
3, 332224, Note_on_c, 0, 53, 24
3, 332476, Note_on_c, 0, 57, 0
3, 332481, Note_on_c, 0, 53, 0
3, 332488, Control_c, 0, 64, 127
3, 332497, Note_on_c, 0, 60, 0
3, 332683, Note_on_c, 0, 60, 30
3, 332711, Note_on_c, 0, 57, 34
3, 332734, Note_on_c, 0, 53, 24
3, 333236, Note_on_c, 0, 53, 0
3, 333409, Note_on_c, 0, 57, 0
3, 333533, Note_on_c, 0, 60, 0
3, 333619, Note_on_c, 0, 60, 13
3, 333640, Note_on_c, 0, 53, 33
3, 333868, Note_on_c, 0, 53, 0
3, 333894, Note_on_c, 0, 60, 0
3, 334007, Note_on_c, 0, 77, 0
3, 334101, Note_on_c, 0, 62, 35
3, 334119, Control_c, 0, 64, 0
3, 334137, Note_on_c, 0, 57, 40
3, 334147, Note_on_c, 0, 53, 24
3, 334618, Note_on_c, 0, 70, 83
3, 334876, Note_on_c, 0, 68, 67
3, 334935, Note_on_c, 0, 70, 0
3, 335038, Note_on_c, 0, 68, 0
3, 335112, Note_on_c, 0, 69, 46
3, 335142, Note_on_c, 0, 62, 0
3, 335293, Note_on_c, 0, 69, 0
3, 335363, Note_on_c, 0, 74, 78
3, 335372, Note_on_c, 0, 62, 32
3, 335502, Note_on_c, 0, 74, 0
3, 335587, Note_on_c, 0, 77, 94
3, 335759, Note_on_c, 0, 77, 0
3, 335782, Note_on_c, 0, 62, 0
3, 335837, Note_on_c, 0, 77, 80
3, 335997, Note_on_c, 0, 57, 0
3, 336002, Note_on_c, 0, 77, 0
3, 336080, Note_on_c, 0, 77, 80
3, 336084, Note_on_c, 0, 62, 36
3, 336089, Note_on_c, 0, 57, 15
3, 336503, Note_on_c, 0, 77, 0
3, 336529, Control_c, 0, 64, 127
3, 336532, Note_on_c, 0, 74, 75
3, 336538, Note_on_c, 0, 62, 0
3, 336670, Note_on_c, 0, 74, 0
3, 336796, Note_on_c, 0, 69, 68
3, 336851, Control_c, 0, 64, 0
3, 336974, Note_on_c, 0, 69, 0
3, 337040, Note_on_c, 0, 62, 27
3, 337063, Note_on_c, 0, 65, 48
3, 337269, Note_on_c, 0, 53, 0
3, 337313, Control_c, 0, 64, 127
3, 337387, Note_on_c, 0, 65, 0
3, 337489, Note_on_c, 0, 65, 51
3, 337491, Note_on_c, 0, 53, 38
3, 337735, Note_on_c, 0, 57, 0
3, 337743, Note_on_c, 0, 62, 0
3, 337768, Note_on_c, 0, 53, 0
3, 337911, Note_on_c, 0, 65, 0
3, 337941, Control_c, 0, 64, 0
3, 337944, Note_on_c, 0, 71, 66
3, 337966, Note_on_c, 0, 55, 30
3, 337967, Note_on_c, 0, 62, 34
3, 337977, Note_on_c, 0, 53, 22
3, 337987, Note_on_c, 0, 59, 37
3, 338439, Note_on_c, 0, 66, 77
3, 338478, Note_on_c, 0, 71, 0
3, 338635, Note_on_c, 0, 66, 0
3, 338690, Note_on_c, 0, 69, 57
3, 338832, Note_on_c, 0, 62, 0
3, 338842, Note_on_c, 0, 59, 0
3, 338918, Note_on_c, 0, 69, 0
3, 338926, Note_on_c, 0, 66, 67
3, 339019, Note_on_c, 0, 62, 22
3, 339036, Note_on_c, 0, 59, 18
3, 339137, Note_on_c, 0, 66, 0
3, 339169, Note_on_c, 0, 67, 68
3, 339365, Note_on_c, 0, 67, 0
3, 339404, Note_on_c, 0, 69, 66
3, 339550, Note_on_c, 0, 62, 0
3, 339613, Note_on_c, 0, 69, 0
3, 339655, Note_on_c, 0, 70, 75
3, 339840, Note_on_c, 0, 70, 0
3, 339861, Note_on_c, 0, 71, 70
3, 339874, Note_on_c, 0, 62, 35
3, 340070, Note_on_c, 0, 71, 0
3, 340075, Note_on_c, 0, 53, 0
3, 340110, Note_on_c, 0, 74, 68
3, 340236, Note_on_c, 0, 62, 0
3, 340259, Note_on_c, 0, 74, 0
3, 340328, Note_on_c, 0, 77, 64
3, 340482, Note_on_c, 0, 77, 0
3, 340811, Note_on_c, 0, 62, 36
3, 340816, Note_on_c, 0, 83, 76
3, 340817, Note_on_c, 0, 53, 30
3, 341059, Control_c, 0, 64, 127
3, 341120, Note_on_c, 0, 53, 0
3, 341145, Note_on_c, 0, 83, 0
3, 341326, Note_on_c, 0, 86, 85
3, 341331, Note_on_c, 0, 53, 31
3, 341544, Note_on_c, 0, 86, 0
3, 341658, Note_on_c, 0, 53, 0
3, 341660, Note_on_c, 0, 62, 0
3, 341662, Note_on_c, 0, 55, 0
3, 341724, Note_on_c, 0, 59, 0
3, 341788, Note_on_c, 0, 86, 84
3, 341804, Control_c, 0, 64, 0
3, 341808, Note_on_c, 0, 52, 47
3, 341840, Note_on_c, 0, 60, 32
3, 342115, Note_on_c, 0, 86, 0
3, 342247, Note_on_c, 0, 89, 80
3, 342368, Control_c, 0, 64, 127
3, 342548, Note_on_c, 0, 88, 67
3, 342584, Note_on_c, 0, 60, 0
3, 342652, Note_on_c, 0, 89, 0
3, 342662, Control_c, 0, 64, 0
3, 342787, Note_on_c, 0, 60, 36
3, 342805, Note_on_c, 0, 88, 0
3, 342864, Note_on_c, 0, 84, 69
3, 343101, Note_on_c, 0, 84, 0
3, 343119, Note_on_c, 0, 79, 46
3, 343317, Note_on_c, 0, 79, 0
3, 343389, Note_on_c, 0, 86, 80
3, 343631, Note_on_c, 0, 86, 0
3, 343669, Note_on_c, 0, 84, 68
3, 343920, Note_on_c, 0, 79, 59
3, 344007, Note_on_c, 0, 84, 0
3, 344136, Note_on_c, 0, 79, 0
3, 344188, Note_on_c, 0, 76, 35
3, 344215, Control_c, 0, 64, 127
3, 344369, Control_c, 0, 64, 0
3, 344394, Note_on_c, 0, 52, 0
3, 344421, Note_on_c, 0, 76, 0
3, 344497, Control_c, 0, 64, 127
3, 344505, Note_on_c, 0, 52, 34
3, 344506, Note_on_c, 0, 81, 68
3, 344732, Note_on_c, 0, 81, 0
3, 344775, Note_on_c, 0, 79, 63
3, 345031, Note_on_c, 0, 76, 66
3, 345176, Note_on_c, 0, 52, 0
3, 345276, Note_on_c, 0, 72, 48
3, 345287, Note_on_c, 0, 79, 0
3, 345524, Note_on_c, 0, 76, 0
3, 345614, Note_on_c, 0, 72, 0
3, 345713, Note_on_c, 0, 52, 51
3, 345716, Control_c, 0, 64, 0
3, 345740, Note_on_c, 0, 60, 0
3, 346151, Note_on_c, 0, 53, 35
3, 346585, Note_on_c, 0, 57, 53
3, 347065, Note_on_c, 0, 60, 54
3, 347632, Note_on_c, 0, 64, 41
3, 347875, Note_on_c, 0, 64, 0
3, 347892, Note_on_c, 0, 65, 66
3, 348072, Note_on_c, 0, 65, 0
3, 348276, Note_on_c, 0, 65, 101
3, 348515, Note_on_c, 0, 60, 0
3, 348526, Note_on_c, 0, 65, 0
3, 348590, Control_c, 0, 64, 127
3, 348627, Note_on_c, 0, 65, 88
3, 348647, Note_on_c, 0, 60, 33
3, 348796, Control_c, 0, 64, 0
3, 348903, Note_on_c, 0, 65, 0
3, 348945, Note_on_c, 0, 67, 77
3, 348971, Note_on_c, 0, 65, 41
3, 349031, Note_on_c, 0, 65, 0
3, 349053, Control_c, 0, 64, 127
3, 349276, Note_on_c, 0, 65, 85
3, 349340, Note_on_c, 0, 67, 0
3, 349491, Note_on_c, 0, 52, 0
3, 349533, Note_on_c, 0, 57, 0
3, 349542, Note_on_c, 0, 65, 0
3, 349548, Note_on_c, 0, 53, 0
3, 349610, Note_on_c, 0, 60, 0
3, 349616, Control_c, 0, 64, 0
3, 349628, Note_on_c, 0, 65, 76
3, 349939, Note_on_c, 0, 50, 36
3, 350440, Note_on_c, 0, 62, 44
3, 350465, Note_on_c, 0, 57, 31
3, 350593, Control_c, 0, 64, 127
3, 350862, Note_on_c, 0, 57, 0
3, 350933, Note_on_c, 0, 57, 26
3, 350982, Note_on_c, 0, 62, 0
3, 351253, Note_on_c, 0, 65, 0
3, 351370, Note_on_c, 0, 62, 40
3, 351683, Note_on_c, 0, 62, 0
3, 351784, Control_c, 0, 64, 0
3, 351814, Note_on_c, 0, 65, 37
3, 351884, Note_on_c, 0, 67, 59
3, 351891, Note_on_c, 0, 65, 0
3, 352000, Note_on_c, 0, 65, 61
3, 352046, Note_on_c, 0, 67, 0
3, 352142, Note_on_c, 0, 65, 0
3, 352156, Note_on_c, 0, 64, 54
3, 352336, Note_on_c, 0, 64, 0
3, 352412, Note_on_c, 0, 65, 83
3, 352611, Note_on_c, 0, 65, 0
3, 352757, Note_on_c, 0, 62, 33
3, 352768, Note_on_c, 0, 67, 89
3, 352798, Control_c, 0, 64, 127
3, 352953, Note_on_c, 0, 67, 0
3, 353035, Note_on_c, 0, 69, 80
3, 353049, Note_on_c, 0, 62, 0
3, 353250, Note_on_c, 0, 69, 0
3, 353253, Note_on_c, 0, 57, 0
3, 353364, Control_c, 0, 64, 0
3, 353370, Note_on_c, 0, 71, 78
3, 353390, Note_on_c, 0, 59, 40
3, 353411, Note_on_c, 0, 55, 18
3, 353740, Note_on_c, 0, 50, 0
3, 353786, Control_c, 0, 64, 127
3, 353831, Note_on_c, 0, 59, 0
3, 354306, Note_on_c, 0, 71, 0
3, 354312, Note_on_c, 0, 59, 27
3, 354325, Control_c, 0, 64, 0
3, 354373, Note_on_c, 0, 62, 27
3, 354384, Note_on_c, 0, 69, 59
3, 354506, Note_on_c, 0, 69, 0
3, 354535, Note_on_c, 0, 71, 60
3, 354682, Note_on_c, 0, 69, 55
3, 354713, Note_on_c, 0, 71, 0
3, 354721, Note_on_c, 0, 62, 0
3, 354851, Note_on_c, 0, 67, 33
3, 354862, Note_on_c, 0, 69, 0
3, 355107, Note_on_c, 0, 59, 0
3, 355169, Note_on_c, 0, 67, 0
3, 355247, Note_on_c, 0, 59, 22
3, 355262, Note_on_c, 0, 65, 58
3, 355633, Control_c, 0, 64, 127
3, 355768, Note_on_c, 0, 62, 33
3, 355779, Note_on_c, 0, 59, 0
3, 355784, Note_on_c, 0, 65, 0
3, 356072, Note_on_c, 0, 62, 0
3, 356253, Note_on_c, 0, 62, 43
3, 356270, Note_on_c, 0, 59, 24
3, 356375, Note_on_c, 0, 59, 0
3, 356567, Note_on_c, 0, 62, 0
3, 356727, Note_on_c, 0, 59, 40
3, 356773, Note_on_c, 0, 55, 0
3, 356898, Note_on_c, 0, 59, 0
3, 357018, Note_on_c, 0, 59, 40
3, 357186, Control_c, 0, 64, 0
3, 357187, Note_on_c, 0, 59, 0
3, 357248, Note_on_c, 0, 48, 24
3, 357254, Note_on_c, 0, 60, 40
3, 357596, Note_on_c, 0, 60, 0
3, 357704, Note_on_c, 0, 55, 18
3, 357825, Note_on_c, 0, 55, 0
3, 358064, Note_on_c, 0, 55, 18
3, 358172, Note_on_c, 0, 63, 51
3, 358336, Note_on_c, 0, 63, 0
3, 358416, Note_on_c, 0, 64, 58
3, 358549, Note_on_c, 0, 64, 0
3, 358645, Note_on_c, 0, 66, 46
3, 358771, Note_on_c, 0, 66, 0
3, 358892, Note_on_c, 0, 67, 56
3, 358922, Note_on_c, 0, 60, 22
3, 358992, Note_on_c, 0, 60, 0
3, 358997, Note_on_c, 0, 67, 0
3, 359087, Note_on_c, 0, 55, 0
3, 359095, Note_on_c, 0, 72, 54
3, 359214, Note_on_c, 0, 72, 0
3, 359335, Note_on_c, 0, 75, 72
3, 359444, Note_on_c, 0, 75, 0
3, 359549, Note_on_c, 0, 76, 75
3, 359662, Note_on_c, 0, 76, 0
3, 359816, Note_on_c, 0, 77, 74
3, 359851, Note_on_c, 0, 55, 28
3, 359873, Note_on_c, 0, 60, 28
3, 359907, Note_on_c, 0, 77, 0
3, 360000, Note_on_c, 0, 60, 0
3, 360046, Note_on_c, 0, 78, 62
3, 360089, Note_on_c, 0, 55, 0
3, 360177, Note_on_c, 0, 78, 0
3, 360304, Note_on_c, 0, 79, 74
3, 360382, Note_on_c, 0, 60, 27
3, 360422, Note_on_c, 0, 79, 0
3, 360552, Note_on_c, 0, 76, 50
3, 360567, Note_on_c, 0, 60, 0
3, 360645, Note_on_c, 0, 48, 0
3, 360715, Note_on_c, 0, 76, 0
3, 360780, Note_on_c, 0, 72, 57
3, 360957, Note_on_c, 0, 72, 0
3, 361018, Note_on_c, 0, 48, 44
3, 361043, Note_on_c, 0, 69, 38
3, 361173, Note_on_c, 0, 69, 0
3, 361282, Note_on_c, 0, 75, 73
3, 361450, Note_on_c, 0, 75, 0
3, 361492, Note_on_c, 0, 72, 30
3, 361651, Note_on_c, 0, 72, 0
3, 361719, Note_on_c, 0, 69, 59
3, 361812, Note_on_c, 0, 57, 33
3, 361867, Note_on_c, 0, 69, 0
3, 361954, Note_on_c, 0, 66, 23
3, 362122, Note_on_c, 0, 66, 0
3, 362193, Note_on_c, 0, 63, 63
3, 362246, Note_on_c, 0, 54, 32
3, 362352, Note_on_c, 0, 63, 0
3, 362421, Note_on_c, 0, 54, 0
3, 362428, Note_on_c, 0, 62, 34
3, 362602, Note_on_c, 0, 62, 0
3, 362684, Note_on_c, 0, 57, 0
3, 362685, Note_on_c, 0, 54, 40
3, 362874, Note_on_c, 0, 54, 0
3, 362894, Note_on_c, 0, 57, 39
3, 362999, Control_c, 0, 64, 127
3, 363272, Note_on_c, 0, 57, 0
3, 363357, Control_c, 0, 64, 0
3, 363363, Note_on_c, 0, 69, 57
3, 363377, Note_on_c, 0, 60, 60
3, 363385, Note_on_c, 0, 57, 47
3, 363512, Control_c, 0, 64, 127
3, 363534, Note_on_c, 0, 69, 0
3, 363616, Note_on_c, 0, 60, 0
3, 363694, Note_on_c, 0, 57, 0
3, 363782, Control_c, 0, 64, 0
3, 363870, Note_on_c, 0, 70, 69
3, 363874, Note_on_c, 0, 62, 59
3, 363883, Note_on_c, 0, 57, 60
3, 363923, Control_c, 0, 64, 127
3, 363987, Note_on_c, 0, 62, 0
3, 364034, Note_on_c, 0, 70, 0
3, 364166, Note_on_c, 0, 57, 0
3, 364257, Note_on_c, 0, 48, 0
3, 364280, Control_c, 0, 64, 0
3, 364350, Note_on_c, 0, 72, 61
3, 364357, Note_on_c, 0, 57, 58
3, 364376, Note_on_c, 0, 48, 46
3, 364486, Control_c, 0, 64, 127
3, 364535, Note_on_c, 0, 72, 0
3, 364542, Note_on_c, 0, 57, 0
3, 364746, Note_on_c, 0, 48, 0
3, 364820, Control_c, 0, 64, 0
3, 364856, Note_on_c, 0, 74, 69
3, 364867, Note_on_c, 0, 62, 55
3, 364871, Note_on_c, 0, 55, 36
3, 364872, Note_on_c, 0, 67, 49
3, 365167, Control_c, 0, 64, 127
3, 365222, Note_on_c, 0, 62, 0
3, 365273, Note_on_c, 0, 55, 0
3, 365333, Note_on_c, 0, 62, 43
3, 365342, Note_on_c, 0, 67, 0
3, 365524, Note_on_c, 0, 62, 0
3, 365838, Note_on_c, 0, 62, 32
3, 365876, Note_on_c, 0, 58, 37
3, 365907, Note_on_c, 0, 74, 0
3, 366321, Note_on_c, 0, 69, 34
3, 366334, Control_c, 0, 64, 0
3, 366455, Note_on_c, 0, 62, 0
3, 366476, Note_on_c, 0, 69, 0
3, 366510, Note_on_c, 0, 58, 0
3, 366571, Note_on_c, 0, 70, 46
3, 366653, Note_on_c, 0, 70, 0
3, 366794, Note_on_c, 0, 74, 55
3, 366800, Note_on_c, 0, 62, 28
3, 366819, Note_on_c, 0, 58, 35
3, 366897, Note_on_c, 0, 74, 0
3, 367042, Note_on_c, 0, 77, 70
3, 367096, Note_on_c, 0, 58, 0
3, 367141, Note_on_c, 0, 77, 0
3, 367142, Note_on_c, 0, 62, 0
3, 367252, Note_on_c, 0, 81, 90
3, 367279, Note_on_c, 0, 57, 1
3, 367325, Note_on_c, 0, 62, 20
3, 367400, Note_on_c, 0, 81, 0
3, 367491, Note_on_c, 0, 82, 75
3, 367587, Note_on_c, 0, 62, 0
3, 367640, Note_on_c, 0, 82, 0
3, 367722, Note_on_c, 0, 84, 84
3, 367756, Note_on_c, 0, 62, 22
3, 367868, Note_on_c, 0, 84, 0
3, 367974, Note_on_c, 0, 82, 71
3, 367978, Note_on_c, 0, 57, 0
3, 368042, Control_c, 0, 64, 127
3, 368106, Note_on_c, 0, 62, 0
3, 368139, Note_on_c, 0, 82, 0
3, 368197, Note_on_c, 0, 81, 64
3, 368386, Note_on_c, 0, 81, 0
3, 368440, Note_on_c, 0, 79, 59
3, 368586, Note_on_c, 0, 79, 0
3, 368632, Control_c, 0, 64, 0
3, 368654, Note_on_c, 0, 61, 27
3, 368665, Note_on_c, 0, 58, 35
3, 368669, Note_on_c, 0, 76, 60
3, 368670, Note_on_c, 0, 64, 33
3, 368701, Note_on_c, 0, 55, 27
3, 368952, Control_c, 0, 64, 127
3, 368976, Note_on_c, 0, 76, 0
3, 369012, Note_on_c, 0, 73, 49
3, 369203, Note_on_c, 0, 73, 0
3, 369226, Note_on_c, 0, 64, 0
3, 369250, Note_on_c, 0, 61, 0
3, 369347, Note_on_c, 0, 72, 53
3, 369400, Note_on_c, 0, 72, 0
3, 369656, Note_on_c, 0, 61, 44
3, 369670, Note_on_c, 0, 64, 39
3, 370069, Note_on_c, 0, 96, 88
3, 370132, Control_c, 0, 64, 0
3, 370246, Note_on_c, 0, 96, 0
3, 370265, Note_on_c, 0, 93, 76
3, 370286, Control_c, 0, 64, 127
3, 370321, Note_on_c, 0, 61, 0
3, 370366, Note_on_c, 0, 64, 0
3, 370384, Note_on_c, 0, 93, 0
3, 370443, Note_on_c, 0, 94, 56
3, 370515, Note_on_c, 0, 64, 32
3, 370529, Note_on_c, 0, 61, 35
3, 370583, Note_on_c, 0, 91, 57
3, 370639, Note_on_c, 0, 94, 0
3, 370755, Note_on_c, 0, 91, 0
3, 370759, Note_on_c, 0, 88, 56
3, 370851, Note_on_c, 0, 64, 0
3, 370904, Note_on_c, 0, 85, 46
3, 370932, Note_on_c, 0, 88, 0
3, 371018, Note_on_c, 0, 61, 0
3, 371040, Note_on_c, 0, 85, 0
3, 371068, Note_on_c, 0, 93, 78
3, 371082, Control_c, 0, 64, 0
3, 371129, Note_on_c, 0, 64, 33
3, 371216, Note_on_c, 0, 93, 0
3, 371238, Note_on_c, 0, 90, 51
3, 371361, Note_on_c, 0, 90, 0
3, 371389, Note_on_c, 0, 91, 61
3, 371402, Control_c, 0, 64, 127
3, 371534, Note_on_c, 0, 64, 0
3, 371572, Note_on_c, 0, 88, 36
3, 371578, Note_on_c, 0, 89, 35
3, 371603, Note_on_c, 0, 91, 0
3, 371637, Note_on_c, 0, 89, 0
3, 371704, Note_on_c, 0, 88, 0
3, 371713, Note_on_c, 0, 85, 39
3, 371763, Note_on_c, 0, 58, 0
3, 371857, Note_on_c, 0, 82, 46
3, 371971, Note_on_c, 0, 82, 0
3, 371973, Note_on_c, 0, 85, 0
3, 372010, Note_on_c, 0, 90, 67
3, 372083, Note_on_c, 0, 55, 0
3, 372189, Note_on_c, 0, 90, 0
3, 372300, Control_c, 0, 64, 0
3, 372311, Note_on_c, 0, 89, 62
3, 372953, Note_on_c, 0, 65, 46
3, 372968, Note_on_c, 0, 84, 49
3, 372993, Note_on_c, 0, 60, 35
3, 372994, Note_on_c, 0, 57, 32
3, 373235, Note_on_c, 0, 89, 0
3, 373255, Note_on_c, 0, 84, 0
3, 373263, Note_on_c, 0, 81, 54
3, 373276, Control_c, 0, 64, 127
3, 373424, Note_on_c, 0, 81, 0
3, 373556, Note_on_c, 0, 77, 24
3, 373610, Note_on_c, 0, 65, 0
3, 373710, Note_on_c, 0, 60, 0
3, 373941, Note_on_c, 0, 77, 0
3, 373981, Note_on_c, 0, 65, 34
3, 373984, Note_on_c, 0, 72, 45
3, 373992, Note_on_c, 0, 60, 27
3, 374229, Note_on_c, 0, 60, 0
3, 374237, Note_on_c, 0, 65, 0
3, 374371, Note_on_c, 0, 72, 0
3, 374417, Control_c, 0, 64, 0
3, 374458, Note_on_c, 0, 70, 47
3, 374480, Note_on_c, 0, 65, 29
3, 374516, Note_on_c, 0, 60, 24
3, 374867, Note_on_c, 0, 65, 0
3, 374918, Note_on_c, 0, 70, 0
3, 374928, Note_on_c, 0, 60, 0
3, 374963, Note_on_c, 0, 69, 44
3, 375160, Control_c, 0, 64, 127
3, 375312, Note_on_c, 0, 69, 0
3, 375447, Note_on_c, 0, 60, 32
3, 375457, Note_on_c, 0, 69, 39
3, 375464, Note_on_c, 0, 65, 29
3, 375637, Note_on_c, 0, 57, 0
3, 375920, Note_on_c, 0, 57, 38
3, 375987, Note_on_c, 0, 57, 0
3, 376005, Note_on_c, 0, 60, 0
3, 376044, Note_on_c, 0, 65, 0
3, 376354, Note_on_c, 0, 69, 0
3, 376398, Note_on_c, 0, 57, 55
3, 376405, Control_c, 0, 64, 0
3, 376858, Note_on_c, 0, 58, 47
3, 376881, Note_on_c, 0, 69, 54
3, 376899, Note_on_c, 0, 65, 30
3, 376920, Note_on_c, 0, 62, 35
3, 377052, Note_on_c, 0, 69, 0
3, 377104, Note_on_c, 0, 70, 61
3, 377221, Note_on_c, 0, 70, 0
3, 377239, Control_c, 0, 64, 127
3, 377317, Note_on_c, 0, 74, 73
3, 377486, Note_on_c, 0, 74, 0
3, 377539, Note_on_c, 0, 77, 73
3, 377547, Note_on_c, 0, 62, 0
3, 377698, Note_on_c, 0, 77, 0
3, 377699, Note_on_c, 0, 65, 0
3, 377781, Note_on_c, 0, 81, 85
3, 377920, Control_c, 0, 64, 0
3, 377943, Note_on_c, 0, 81, 0
3, 378018, Note_on_c, 0, 82, 77
3, 378036, Note_on_c, 0, 62, 27
3, 378045, Note_on_c, 0, 65, 34
3, 378208, Note_on_c, 0, 82, 0
3, 378257, Note_on_c, 0, 84, 78
3, 378341, Note_on_c, 0, 62, 0
3, 378458, Note_on_c, 0, 84, 0
3, 378502, Note_on_c, 0, 81, 70
3, 378543, Note_on_c, 0, 65, 0
3, 378639, Note_on_c, 0, 81, 0
3, 378730, Note_on_c, 0, 77, 64
3, 378731, Note_on_c, 0, 62, 17
3, 378757, Note_on_c, 0, 65, 20
3, 378865, Note_on_c, 0, 77, 0
3, 378947, Note_on_c, 0, 74, 49
3, 378996, Note_on_c, 0, 65, 0
3, 379097, Note_on_c, 0, 74, 0
3, 379217, Note_on_c, 0, 71, 31
3, 379339, Note_on_c, 0, 71, 0
3, 379436, Note_on_c, 0, 69, 30
3, 379569, Note_on_c, 0, 69, 0
3, 379676, Note_on_c, 0, 77, 60
3, 379705, Note_on_c, 0, 62, 0
3, 379836, Note_on_c, 0, 77, 0
3, 379842, Note_on_c, 0, 58, 0
3, 379900, Note_on_c, 0, 57, 0
3, 379930, Note_on_c, 0, 74, 41
3, 380065, Note_on_c, 0, 74, 0
3, 380158, Note_on_c, 0, 75, 64
3, 380328, Note_on_c, 0, 75, 0
3, 380404, Note_on_c, 0, 74, 57
3, 380592, Note_on_c, 0, 74, 0
3, 380642, Note_on_c, 0, 70, 53
3, 380654, Note_on_c, 0, 62, 35
3, 380693, Note_on_c, 0, 55, 24
3, 380697, Note_on_c, 0, 58, 29
3, 380792, Note_on_c, 0, 62, 0
3, 380817, Note_on_c, 0, 58, 0
3, 380839, Note_on_c, 0, 55, 0
3, 380887, Note_on_c, 0, 67, 51
3, 381032, Note_on_c, 0, 67, 0
3, 381043, Note_on_c, 0, 70, 0
3, 381141, Note_on_c, 0, 67, 49
3, 381150, Note_on_c, 0, 62, 37
3, 381169, Note_on_c, 0, 55, 28
3, 381178, Note_on_c, 0, 58, 30
3, 381196, Note_on_c, 0, 57, 35
3, 381413, Note_on_c, 0, 57, 0
3, 381432, Note_on_c, 0, 58, 0
3, 381445, Note_on_c, 0, 62, 0
3, 381483, Note_on_c, 0, 55, 0
3, 381651, Note_on_c, 0, 62, 35
3, 381667, Note_on_c, 0, 55, 19
3, 381676, Note_on_c, 0, 58, 37
3, 381683, Note_on_c, 0, 57, 33
3, 382200, Note_on_c, 0, 62, 0
3, 382208, Note_on_c, 0, 57, 0
3, 382254, Note_on_c, 0, 58, 0
3, 382266, Note_on_c, 0, 55, 0
3, 382607, Note_on_c, 0, 62, 26
3, 382631, Note_on_c, 0, 55, 25
3, 382635, Note_on_c, 0, 58, 32
3, 382643, Note_on_c, 0, 57, 28
3, 382873, Control_c, 0, 64, 127
3, 382947, Control_c, 0, 64, 0
3, 383000, Control_c, 0, 64, 127
3, 383107, Note_on_c, 0, 57, 0
3, 383142, Note_on_c, 0, 55, 0
3, 383153, Note_on_c, 0, 62, 0
3, 383169, Note_on_c, 0, 58, 0
3, 383365, Note_on_c, 0, 58, 36
3, 383377, Note_on_c, 0, 62, 29
3, 383394, Note_on_c, 0, 55, 25
3, 383500, Note_on_c, 0, 62, 0
3, 383513, Note_on_c, 0, 55, 0
3, 383528, Note_on_c, 0, 58, 0
3, 383800, Note_on_c, 0, 58, 36
3, 383888, Note_on_c, 0, 58, 0
3, 383959, Note_on_c, 0, 67, 0
3, 384014, Control_c, 0, 64, 0
3, 384065, Note_on_c, 0, 64, 45
3, 384090, Note_on_c, 0, 60, 41
3, 384098, Note_on_c, 0, 58, 37
3, 384540, Control_c, 0, 64, 127
3, 384674, Note_on_c, 0, 60, 0
3, 384697, Note_on_c, 0, 58, 0
3, 384730, Note_on_c, 0, 64, 0
3, 384957, Note_on_c, 0, 64, 39
3, 384981, Note_on_c, 0, 58, 36
3, 384993, Note_on_c, 0, 60, 33
3, 385002, Control_c, 0, 64, 0
3, 385436, Note_on_c, 0, 77, 103
3, 385696, Note_on_c, 0, 75, 70
3, 385716, Note_on_c, 0, 77, 0
3, 385756, Note_on_c, 0, 64, 0
3, 385879, Note_on_c, 0, 75, 0
3, 385896, Note_on_c, 0, 64, 41
3, 385920, Note_on_c, 0, 76, 53
3, 386342, Note_on_c, 0, 76, 0
3, 386385, Note_on_c, 0, 71, 71
3, 386571, Note_on_c, 0, 71, 0
3, 386707, Note_on_c, 0, 64, 0
3, 386856, Note_on_c, 0, 64, 40
3, 386871, Note_on_c, 0, 74, 91
3, 387032, Note_on_c, 0, 64, 0
3, 387138, Note_on_c, 0, 72, 52
3, 387201, Note_on_c, 0, 74, 0
3, 387203, Note_on_c, 0, 64, 19
3, 387334, Note_on_c, 0, 72, 0
3, 387395, Note_on_c, 0, 70, 55
3, 387426, Control_c, 0, 64, 127
3, 387427, Note_on_c, 0, 60, 0
3, 387432, Note_on_c, 0, 64, 0
3, 387512, Note_on_c, 0, 58, 0
3, 387622, Note_on_c, 0, 70, 0
3, 387665, Note_on_c, 0, 67, 48
3, 387747, Control_c, 0, 64, 0
3, 387793, Note_on_c, 0, 67, 0
3, 387838, Note_on_c, 0, 60, 26
3, 387857, Note_on_c, 0, 57, 31
3, 387866, Note_on_c, 0, 53, 20
3, 387905, Note_on_c, 0, 70, 62
3, 388151, Note_on_c, 0, 70, 0
3, 388190, Note_on_c, 0, 68, 34
3, 388307, Note_on_c, 0, 68, 0
3, 388395, Note_on_c, 0, 69, 43
3, 388628, Note_on_c, 0, 60, 0
3, 388648, Note_on_c, 0, 65, 49
3, 388729, Note_on_c, 0, 69, 0
3, 388797, Note_on_c, 0, 65, 0
3, 388861, Note_on_c, 0, 60, 37
3, 388940, Control_c, 0, 64, 127
3, 389190, Note_on_c, 0, 60, 0
3, 389313, Control_c, 0, 64, 0
3, 389335, Note_on_c, 0, 60, 37
3, 389415, Control_c, 0, 64, 127
3, 389665, Note_on_c, 0, 60, 0
3, 389736, Control_c, 0, 64, 0
3, 389830, Note_on_c, 0, 60, 37
3, 389890, Control_c, 0, 64, 127
3, 389960, Note_on_c, 0, 53, 0
3, 390197, Control_c, 0, 64, 0
3, 390283, Note_on_c, 0, 53, 27
3, 390365, Control_c, 0, 64, 127
3, 390396, Note_on_c, 0, 57, 0
3, 390616, Note_on_c, 0, 60, 0
3, 391138, Note_on_c, 0, 53, 0
3, 391226, Note_on_c, 0, 60, 24
3, 391400, Note_on_c, 0, 60, 0
3, 391662, Control_c, 0, 64, 0
3, 391706, Note_on_c, 0, 63, 34
3, 391732, Note_on_c, 0, 57, 46
3, 391764, Note_on_c, 0, 53, 22
3, 391968, Control_c, 0, 64, 127
3, 392033, Control_c, 0, 64, 0
3, 392211, Note_on_c, 0, 96, 72
3, 392360, Note_on_c, 0, 96, 0
3, 392401, Note_on_c, 0, 99, 73
3, 392469, Control_c, 0, 64, 127
3, 392570, Note_on_c, 0, 96, 63
3, 392628, Note_on_c, 0, 99, 0
3, 392696, Note_on_c, 0, 96, 0
3, 392733, Note_on_c, 0, 93, 59
3, 392834, Note_on_c, 0, 93, 0
3, 392892, Note_on_c, 0, 92, 48
3, 392956, Control_c, 0, 64, 0
3, 393013, Note_on_c, 0, 53, 0
3, 393027, Note_on_c, 0, 91, 60
3, 393050, Note_on_c, 0, 92, 0
3, 393102, Note_on_c, 0, 57, 0
3, 393150, Note_on_c, 0, 91, 0
3, 393172, Note_on_c, 0, 90, 56
3, 393273, Note_on_c, 0, 90, 0
3, 393285, Note_on_c, 0, 89, 45
3, 393296, Note_on_c, 0, 63, 0
3, 393410, Note_on_c, 0, 89, 0
3, 393459, Note_on_c, 0, 88, 59
3, 393568, Note_on_c, 0, 88, 0
3, 393616, Note_on_c, 0, 87, 46
3, 393715, Note_on_c, 0, 87, 0
3, 393740, Note_on_c, 0, 63, 31
3, 393800, Note_on_c, 0, 91, 46
3, 393804, Note_on_c, 0, 53, 17
3, 393890, Note_on_c, 0, 87, 45
3, 393912, Note_on_c, 0, 91, 0
3, 394018, Note_on_c, 0, 84, 45
3, 394030, Note_on_c, 0, 87, 0
3, 394096, Note_on_c, 0, 84, 0
3, 394137, Note_on_c, 0, 81, 42
3, 394246, Note_on_c, 0, 81, 0
3, 394311, Note_on_c, 0, 80, 38
3, 394394, Note_on_c, 0, 80, 0
3, 394414, Note_on_c, 0, 79, 40
3, 394529, Note_on_c, 0, 79, 0
3, 394542, Note_on_c, 0, 78, 56
3, 394644, Note_on_c, 0, 78, 0
3, 394670, Note_on_c, 0, 77, 46
3, 394768, Note_on_c, 0, 77, 0
3, 394790, Note_on_c, 0, 76, 46
3, 394842, Note_on_c, 0, 63, 0
3, 394859, Note_on_c, 0, 60, 20
3, 394912, Note_on_c, 0, 76, 0
3, 394923, Note_on_c, 0, 75, 51
3, 394958, Control_c, 0, 64, 127
3, 395020, Note_on_c, 0, 75, 0
3, 395047, Control_c, 0, 64, 0
3, 395074, Note_on_c, 0, 74, 36
3, 395125, Note_on_c, 0, 60, 0
3, 395157, Note_on_c, 0, 74, 0
3, 395176, Control_c, 0, 64, 127
3, 395260, Note_on_c, 0, 72, 19
3, 395358, Note_on_c, 0, 72, 0
3, 395390, Note_on_c, 0, 73, 35
3, 395496, Note_on_c, 0, 73, 0
3, 395509, Control_c, 0, 64, 0
3, 395520, Note_on_c, 0, 74, 52
3, 395636, Note_on_c, 0, 62, 24
3, 395671, Note_on_c, 0, 74, 0
3, 395705, Note_on_c, 0, 77, 74
3, 395714, Note_on_c, 0, 58, 35
3, 395962, Note_on_c, 0, 77, 0
3, 395994, Note_on_c, 0, 74, 68
3, 396139, Note_on_c, 0, 62, 0
3, 396220, Note_on_c, 0, 74, 0
3, 396317, Control_c, 0, 64, 127
3, 396340, Note_on_c, 0, 69, 25
3, 396346, Note_on_c, 0, 67, 24
3, 396437, Note_on_c, 0, 67, 0
3, 396654, Note_on_c, 0, 69, 0
3, 396711, Note_on_c, 0, 72, 58
3, 396728, Control_c, 0, 64, 0
3, 396874, Note_on_c, 0, 58, 0
3, 396926, Note_on_c, 0, 71, 51
3, 396928, Note_on_c, 0, 72, 0
3, 397064, Note_on_c, 0, 71, 0
3, 397070, Note_on_c, 0, 70, 43
3, 397178, Note_on_c, 0, 69, 36
3, 397200, Note_on_c, 0, 70, 0
3, 397204, Control_c, 0, 64, 127
3, 397240, Control_c, 0, 64, 0
3, 397297, Note_on_c, 0, 69, 0
3, 397352, Note_on_c, 0, 77, 73
3, 397377, Note_on_c, 0, 65, 28
3, 397383, Note_on_c, 0, 60, 29
3, 397397, Note_on_c, 0, 62, 27
3, 397566, Note_on_c, 0, 76, 48
3, 397583, Note_on_c, 0, 77, 0
3, 397672, Note_on_c, 0, 75, 45
3, 397713, Note_on_c, 0, 76, 0
3, 397800, Note_on_c, 0, 74, 51
3, 397807, Note_on_c, 0, 75, 0
3, 397909, Note_on_c, 0, 74, 0
3, 397971, Note_on_c, 0, 84, 68
3, 398009, Note_on_c, 0, 53, 0
3, 398179, Control_c, 0, 64, 127
3, 398414, Note_on_c, 0, 53, 37
3, 398609, Note_on_c, 0, 65, 0
3, 398663, Note_on_c, 0, 62, 0
3, 398670, Note_on_c, 0, 60, 0
3, 399078, Note_on_c, 0, 83, 58
3, 399179, Note_on_c, 0, 82, 51
3, 399207, Note_on_c, 0, 84, 0
3, 399248, Note_on_c, 0, 83, 0
3, 399320, Note_on_c, 0, 81, 46
3, 399395, Note_on_c, 0, 56, 25
3, 399406, Note_on_c, 0, 82, 0
3, 399421, Note_on_c, 0, 59, 32
3, 399424, Control_c, 0, 64, 0
3, 399426, Note_on_c, 0, 62, 32
3, 399448, Note_on_c, 0, 81, 0
3, 399507, Note_on_c, 0, 86, 67
3, 399745, Note_on_c, 0, 86, 0
3, 399805, Note_on_c, 0, 83, 70
3, 399932, Note_on_c, 0, 83, 0
3, 400030, Note_on_c, 0, 80, 60
3, 400183, Note_on_c, 0, 80, 0
3, 400216, Note_on_c, 0, 77, 58
3, 400330, Note_on_c, 0, 77, 0
3, 400439, Note_on_c, 0, 74, 50
3, 400624, Note_on_c, 0, 74, 0
3, 400689, Note_on_c, 0, 71, 45
3, 400805, Note_on_c, 0, 71, 0
3, 400874, Note_on_c, 0, 79, 64
3, 401082, Note_on_c, 0, 79, 0
3, 401094, Note_on_c, 0, 74, 50
3, 401177, Note_on_c, 0, 74, 0
3, 401280, Note_on_c, 0, 77, 70
3, 401460, Note_on_c, 0, 77, 0
3, 401524, Note_on_c, 0, 74, 61
3, 401670, Note_on_c, 0, 74, 0
3, 401739, Note_on_c, 0, 71, 29
3, 401914, Note_on_c, 0, 62, 0
3, 401943, Note_on_c, 0, 71, 0
3, 402195, Note_on_c, 0, 74, 72
3, 402215, Note_on_c, 0, 62, 33
3, 402397, Note_on_c, 0, 74, 0
3, 402598, Note_on_c, 0, 53, 0
3, 402680, Note_on_c, 0, 72, 60
3, 402848, Note_on_c, 0, 72, 0
3, 402899, Control_c, 0, 64, 127
3, 402981, Note_on_c, 0, 53, 30
3, 403073, Note_on_c, 0, 53, 0
3, 403089, Note_on_c, 0, 62, 0
3, 403095, Note_on_c, 0, 59, 0
3, 403096, Note_on_c, 0, 56, 0
3, 403143, Control_c, 0, 64, 0
3, 403178, Note_on_c, 0, 77, 71
3, 403210, Note_on_c, 0, 53, 22
3, 403688, Note_on_c, 0, 68, 46
3, 403708, Note_on_c, 0, 65, 24
3, 403724, Note_on_c, 0, 60, 30
3, 403797, Control_c, 0, 64, 127
3, 403942, Note_on_c, 0, 68, 0
3, 403947, Note_on_c, 0, 77, 0
3, 403978, Note_on_c, 0, 65, 0
3, 404044, Note_on_c, 0, 60, 0
3, 404172, Note_on_c, 0, 65, 42
3, 404186, Note_on_c, 0, 60, 24
3, 404476, Note_on_c, 0, 53, 0
3, 404619, Note_on_c, 0, 65, 0
3, 404656, Note_on_c, 0, 53, 28
3, 405021, Note_on_c, 0, 60, 0
3, 405132, Control_c, 0, 64, 0
3, 405139, Note_on_c, 0, 60, 38
3, 405162, Note_on_c, 0, 68, 91
3, 405178, Note_on_c, 0, 56, 46
3, 405359, Note_on_c, 0, 68, 0
3, 405414, Control_c, 0, 64, 127
3, 405425, Note_on_c, 0, 68, 64
3, 405564, Note_on_c, 0, 68, 0
3, 405633, Note_on_c, 0, 68, 62
3, 405712, Note_on_c, 0, 56, 0
3, 405780, Note_on_c, 0, 68, 0
3, 405830, Note_on_c, 0, 60, 0
3, 405926, Note_on_c, 0, 68, 70
3, 406050, Note_on_c, 0, 68, 0
3, 406106, Control_c, 0, 64, 0
3, 406151, Note_on_c, 0, 77, 85
3, 406161, Note_on_c, 0, 60, 42
3, 406181, Note_on_c, 0, 56, 45
3, 406307, Note_on_c, 0, 77, 0
3, 406325, Control_c, 0, 64, 127
3, 406428, Note_on_c, 0, 77, 73
3, 406485, Note_on_c, 0, 53, 0
3, 406556, Control_c, 0, 64, 0
3, 406589, Note_on_c, 0, 77, 0
3, 406641, Note_on_c, 0, 65, 64
3, 406690, Note_on_c, 0, 53, 24
3, 406698, Control_c, 0, 64, 127
3, 406796, Note_on_c, 0, 53, 0
3, 406808, Note_on_c, 0, 65, 0
3, 406906, Note_on_c, 0, 65, 67
3, 407034, Note_on_c, 0, 65, 0
3, 407083, Control_c, 0, 64, 0
3, 407124, Note_on_c, 0, 65, 73
3, 407153, Note_on_c, 0, 53, 40
3, 407164, Note_on_c, 0, 60, 0
3, 407343, Note_on_c, 0, 56, 0
3, 407403, Control_c, 0, 64, 127
3, 407479, Note_on_c, 0, 65, 0
3, 407493, Control_c, 0, 64, 0
3, 407560, Note_on_c, 0, 77, 71
3, 407566, Note_on_c, 0, 61, 56
3, 407567, Note_on_c, 0, 65, 68
3, 407575, Note_on_c, 0, 70, 64
3, 407586, Note_on_c, 0, 58, 53
3, 407592, Note_on_c, 0, 55, 22
3, 407705, Note_on_c, 0, 70, 0
3, 407733, Note_on_c, 0, 65, 0
3, 407735, Note_on_c, 0, 77, 0
3, 407746, Note_on_c, 0, 61, 0
3, 407783, Note_on_c, 0, 53, 0
3, 407800, Control_c, 0, 64, 127
3, 407823, Note_on_c, 0, 77, 64
3, 407829, Note_on_c, 0, 65, 74
3, 407851, Control_c, 0, 64, 0
3, 407854, Note_on_c, 0, 70, 56
3, 407873, Note_on_c, 0, 61, 31
3, 407929, Note_on_c, 0, 70, 0
3, 407953, Note_on_c, 0, 61, 0
3, 407960, Note_on_c, 0, 77, 0
3, 407960, Note_on_c, 0, 65, 0
3, 408006, Note_on_c, 0, 58, 0
3, 408057, Note_on_c, 0, 61, 67
3, 408061, Note_on_c, 0, 77, 66
3, 408080, Note_on_c, 0, 58, 35
3, 408087, Note_on_c, 0, 65, 75
3, 408120, Control_c, 0, 64, 127
3, 408276, Note_on_c, 0, 77, 0
3, 408371, Note_on_c, 0, 61, 0
3, 408401, Note_on_c, 0, 65, 0
3, 408416, Note_on_c, 0, 55, 0
3, 408440, Note_on_c, 0, 58, 0
3, 408506, Control_c, 0, 64, 0
3, 408510, Note_on_c, 0, 61, 52
3, 408526, Note_on_c, 0, 55, 38
3, 408529, Note_on_c, 0, 65, 47
3, 408531, Note_on_c, 0, 53, 42
3, 408542, Note_on_c, 0, 58, 45
3, 408552, Note_on_c, 0, 67, 60
3, 408805, Note_on_c, 0, 53, 0
3, 408837, Note_on_c, 0, 61, 0
3, 408856, Note_on_c, 0, 55, 0
3, 408857, Note_on_c, 0, 67, 0
3, 408896, Note_on_c, 0, 65, 0
3, 408897, Note_on_c, 0, 58, 0
3, 408998, Note_on_c, 0, 61, 51
3, 409009, Note_on_c, 0, 58, 42
3, 409012, Note_on_c, 0, 67, 55
3, 409020, Note_on_c, 0, 65, 49
3, 409021, Note_on_c, 0, 55, 26
3, 409022, Note_on_c, 0, 53, 40
3, 409173, Control_c, 0, 64, 127
3, 409301, Note_on_c, 0, 61, 0
3, 409354, Note_on_c, 0, 67, 0
3, 409378, Note_on_c, 0, 58, 0
3, 409390, Note_on_c, 0, 65, 0
3, 409468, Note_on_c, 0, 61, 56
3, 409507, Note_on_c, 0, 58, 37
3, 409616, Note_on_c, 0, 61, 0
3, 409632, Note_on_c, 0, 53, 0
3, 409652, Note_on_c, 0, 58, 0
3, 409667, Note_on_c, 0, 55, 0
3, 409725, Control_c, 0, 64, 0
3, 409728, Note_on_c, 0, 61, 71
3, 409730, Note_on_c, 0, 77, 74
3, 409733, Note_on_c, 0, 65, 82
3, 409743, Note_on_c, 0, 53, 50
3, 409745, Note_on_c, 0, 70, 62
3, 409754, Note_on_c, 0, 58, 67
3, 409760, Note_on_c, 0, 55, 48
3, 409853, Note_on_c, 0, 70, 0
3, 409876, Note_on_c, 0, 65, 0
3, 409886, Note_on_c, 0, 61, 0
3, 409889, Note_on_c, 0, 77, 0
3, 409890, Note_on_c, 0, 53, 0
3, 409913, Note_on_c, 0, 58, 0
3, 409934, Note_on_c, 0, 55, 0
3, 409996, Note_on_c, 0, 61, 76
3, 410000, Note_on_c, 0, 53, 50
3, 410008, Note_on_c, 0, 77, 70
3, 410013, Note_on_c, 0, 58, 61
3, 410018, Note_on_c, 0, 55, 58
3, 410019, Note_on_c, 0, 65, 83
3, 410023, Note_on_c, 0, 70, 75
3, 410085, Control_c, 0, 64, 127
3, 410254, Note_on_c, 0, 70, 0
3, 410259, Note_on_c, 0, 65, 0
3, 410261, Note_on_c, 0, 53, 0
3, 410266, Note_on_c, 0, 77, 0
3, 410284, Note_on_c, 0, 61, 0
3, 410305, Note_on_c, 0, 55, 0
3, 410342, Control_c, 0, 64, 0
3, 410350, Note_on_c, 0, 58, 0
3, 410434, Note_on_c, 0, 61, 73
3, 410439, Note_on_c, 0, 77, 74
3, 410444, Note_on_c, 0, 70, 82
3, 410447, Note_on_c, 0, 58, 50
3, 410448, Note_on_c, 0, 65, 85
3, 410453, Note_on_c, 0, 55, 39
3, 410455, Note_on_c, 0, 53, 54
3, 410547, Control_c, 0, 64, 127
3, 410638, Note_on_c, 0, 70, 0
3, 410641, Note_on_c, 0, 77, 0
3, 410643, Note_on_c, 0, 65, 0
3, 410652, Note_on_c, 0, 53, 0
3, 410676, Note_on_c, 0, 55, 0
3, 410716, Note_on_c, 0, 61, 0
3, 410764, Note_on_c, 0, 58, 0
3, 410803, Control_c, 0, 64, 0
3, 410900, Note_on_c, 0, 58, 61
3, 410906, Note_on_c, 0, 70, 88
3, 410910, Note_on_c, 0, 60, 66
3, 410912, Note_on_c, 0, 77, 77
3, 410918, Note_on_c, 0, 52, 61
3, 410919, Note_on_c, 0, 65, 78
3, 410942, Note_on_c, 0, 67, 58
3, 410982, Control_c, 0, 64, 127
3, 410984, Note_on_c, 0, 67, 0
3, 411173, Note_on_c, 0, 70, 0
3, 411202, Note_on_c, 0, 65, 0
3, 411225, Note_on_c, 0, 77, 0
3, 411229, Note_on_c, 0, 52, 0
3, 411260, Note_on_c, 0, 60, 0
3, 411304, Note_on_c, 0, 58, 0
3, 411354, Control_c, 0, 64, 0
3, 411399, Note_on_c, 0, 79, 74
3, 411403, Note_on_c, 0, 72, 68
3, 411409, Note_on_c, 0, 52, 62
3, 411411, Note_on_c, 0, 60, 50
3, 411415, Note_on_c, 0, 67, 68
3, 411420, Note_on_c, 0, 58, 39
3, 411482, Control_c, 0, 64, 127
3, 411735, Note_on_c, 0, 52, 0
3, 411735, Note_on_c, 0, 79, 0
3, 411736, Note_on_c, 0, 60, 0
3, 411737, Note_on_c, 0, 72, 0
3, 411742, Note_on_c, 0, 67, 0
3, 411770, Note_on_c, 0, 58, 0
3, 411804, Control_c, 0, 64, 0
3, 411898, Note_on_c, 0, 52, 39
3, 411907, Note_on_c, 0, 60, 37
3, 411911, Note_on_c, 0, 79, 64
3, 411912, Note_on_c, 0, 58, 44
3, 411915, Note_on_c, 0, 72, 64
3, 411925, Note_on_c, 0, 67, 54
3, 412048, Control_c, 0, 64, 127
3, 412171, Note_on_c, 0, 52, 0
3, 412358, Note_on_c, 0, 52, 53
3, 412422, Note_on_c, 0, 67, 0
3, 412454, Note_on_c, 0, 72, 0
3, 412477, Note_on_c, 0, 79, 0
3, 412545, Note_on_c, 0, 52, 0
3, 412567, Note_on_c, 0, 60, 0
3, 412627, Note_on_c, 0, 58, 0
3, 412830, Control_c, 0, 64, 0
3, 412880, Note_on_c, 0, 79, 74
3, 412889, Note_on_c, 0, 58, 54
3, 412893, Note_on_c, 0, 67, 77
3, 412894, Note_on_c, 0, 60, 52
3, 412896, Note_on_c, 0, 52, 54
3, 412897, Note_on_c, 0, 76, 54
3, 412899, Note_on_c, 0, 72, 68
3, 413052, Control_c, 0, 64, 127
3, 413162, Note_on_c, 0, 76, 0
3, 413204, Note_on_c, 0, 72, 0
3, 413209, Note_on_c, 0, 79, 0
3, 413267, Note_on_c, 0, 67, 0
3, 413269, Note_on_c, 0, 60, 0
3, 413493, Note_on_c, 0, 58, 0
3, 413565, Control_c, 0, 64, 0
3, 413580, Note_on_c, 0, 70, 67
3, 413587, Note_on_c, 0, 77, 63
3, 413589, Note_on_c, 0, 60, 37
3, 413591, Note_on_c, 0, 65, 68
3, 413594, Note_on_c, 0, 74, 54
3, 413603, Note_on_c, 0, 58, 36
3, 413760, Control_c, 0, 64, 127
3, 413876, Note_on_c, 0, 74, 0
3, 413905, Note_on_c, 0, 77, 0
3, 413916, Note_on_c, 0, 60, 0
3, 413921, Note_on_c, 0, 58, 0
3, 413936, Note_on_c, 0, 65, 0
3, 414035, Note_on_c, 0, 70, 0
3, 414122, Note_on_c, 0, 52, 0
3, 414268, Note_on_c, 0, 64, 55
3, 414273, Note_on_c, 0, 70, 47
3, 414280, Note_on_c, 0, 58, 37
3, 414282, Note_on_c, 0, 76, 29
3, 414295, Note_on_c, 0, 60, 30
3, 414314, Note_on_c, 0, 64, 0
3, 414382, Note_on_c, 0, 70, 0
3, 414419, Note_on_c, 0, 76, 0
3, 414439, Note_on_c, 0, 60, 0
3, 414540, Note_on_c, 0, 58, 0
3, 414786, Control_c, 0, 64, 0
3, 414805, Note_on_c, 0, 77, 62
3, 414807, Note_on_c, 0, 84, 62
3, 414812, Note_on_c, 0, 72, 57
3, 414813, Note_on_c, 0, 48, 55
3, 414828, Note_on_c, 0, 81, 48
3, 415159, Control_c, 0, 64, 127
3, 415274, Note_on_c, 0, 57, 49
3, 415311, Note_on_c, 0, 84, 0
3, 415313, Note_on_c, 0, 81, 0
3, 415325, Note_on_c, 0, 77, 0
3, 415392, Note_on_c, 0, 72, 0
3, 415732, Note_on_c, 0, 60, 38
3, 416065, Note_on_c, 0, 60, 0
3, 416222, Note_on_c, 0, 60, 28
3, 416225, Note_on_c, 0, 72, 38
3, 416235, Note_on_c, 0, 65, 44
3, 416399, Note_on_c, 0, 60, 0
3, 416532, Note_on_c, 0, 57, 0
3, 416593, Note_on_c, 0, 65, 0
3, 416605, Note_on_c, 0, 72, 0
3, 416730, Note_on_c, 0, 65, 28
3, 416732, Note_on_c, 0, 60, 34
3, 416734, Note_on_c, 0, 57, 36
3, 416737, Note_on_c, 0, 69, 43
3, 416748, Control_c, 0, 64, 0
3, 417006, Control_c, 0, 64, 127
3, 417084, Note_on_c, 0, 57, 0
3, 417191, Note_on_c, 0, 57, 28
3, 417446, Note_on_c, 0, 60, 0
3, 417706, Note_on_c, 0, 48, 0
3, 417781, Note_on_c, 0, 65, 0
3, 417899, Note_on_c, 0, 69, 0
3, 418112, Note_on_c, 0, 48, 46
3, 418174, Note_on_c, 0, 57, 0
3, 418341, Note_on_c, 0, 48, 0
3, 418612, Note_on_c, 0, 48, 40
3, 418673, Control_c, 0, 64, 0
3, 418878, Control_c, 0, 64, 127
3, 418947, Note_on_c, 0, 58, 49
3, 419256, Note_on_c, 0, 62, 61
3, 419508, Note_on_c, 0, 62, 0
3, 419578, Note_on_c, 0, 65, 77
3, 419811, Note_on_c, 0, 65, 0
3, 419846, Note_on_c, 0, 67, 73
3, 420011, Note_on_c, 0, 67, 0
3, 420087, Note_on_c, 0, 70, 71
3, 420218, Note_on_c, 0, 70, 0
3, 420304, Note_on_c, 0, 72, 71
3, 420442, Note_on_c, 0, 72, 0
3, 420503, Note_on_c, 0, 74, 68
3, 420592, Note_on_c, 0, 74, 0
3, 420684, Note_on_c, 0, 77, 66
3, 420851, Note_on_c, 0, 77, 0
3, 420855, Note_on_c, 0, 79, 40
3, 420890, Note_on_c, 0, 77, 22
3, 420942, Note_on_c, 0, 77, 0
3, 420976, Note_on_c, 0, 79, 0
3, 420983, Note_on_c, 0, 82, 69
3, 421075, Note_on_c, 0, 82, 0
3, 421154, Note_on_c, 0, 84, 62
3, 421214, Control_c, 0, 64, 0
3, 421265, Note_on_c, 0, 84, 0
3, 421277, Note_on_c, 0, 86, 50
3, 421342, Note_on_c, 0, 86, 0
3, 421445, Note_on_c, 0, 89, 60
3, 421583, Note_on_c, 0, 89, 0
3, 421589, Note_on_c, 0, 91, 41
3, 421649, Control_c, 0, 64, 127
3, 421738, Note_on_c, 0, 94, 48
3, 421747, Note_on_c, 0, 91, 0
3, 421893, Note_on_c, 0, 94, 0
3, 421945, Note_on_c, 0, 98, 68
3, 422173, Note_on_c, 0, 94, 49
3, 422206, Note_on_c, 0, 98, 0
3, 422263, Note_on_c, 0, 48, 0
3, 422283, Note_on_c, 0, 58, 0
3, 422357, Note_on_c, 0, 94, 0
3, 422401, Note_on_c, 0, 96, 58
3, 422420, Control_c, 0, 64, 0
3, 422447, Note_on_c, 0, 48, 40
3, 422791, Control_c, 0, 64, 127
3, 422881, Note_on_c, 0, 96, 0
3, 422932, Note_on_c, 0, 58, 27
3, 423384, Note_on_c, 0, 60, 35
3, 423719, Note_on_c, 0, 60, 0
3, 423907, Note_on_c, 0, 79, 42
3, 423914, Note_on_c, 0, 67, 38
3, 423916, Note_on_c, 0, 60, 32
3, 423974, Note_on_c, 0, 58, 0
3, 424039, Note_on_c, 0, 79, 0
3, 424120, Note_on_c, 0, 67, 0
3, 424149, Note_on_c, 0, 60, 0
3, 424369, Control_c, 0, 64, 0
3, 424428, Note_on_c, 0, 76, 36
3, 424430, Note_on_c, 0, 60, 25
3, 424431, Note_on_c, 0, 72, 36
3, 424436, Note_on_c, 0, 67, 29
3, 424614, Control_c, 0, 64, 127
3, 424866, Note_on_c, 0, 60, 0
3, 424872, Note_on_c, 0, 58, 23
3, 424939, Note_on_c, 0, 72, 0
3, 424951, Note_on_c, 0, 67, 0
3, 425283, Note_on_c, 0, 58, 0
3, 425320, Note_on_c, 0, 60, 25
3, 425323, Note_on_c, 0, 72, 38
3, 425332, Note_on_c, 0, 67, 27
3, 425448, Note_on_c, 0, 48, 0
3, 425601, Note_on_c, 0, 76, 0
3, 425702, Note_on_c, 0, 60, 0
3, 425756, Note_on_c, 0, 48, 39
3, 425795, Note_on_c, 0, 67, 0
3, 425797, Note_on_c, 0, 72, 0
3, 426205, Control_c, 0, 64, 0
3, 426233, Note_on_c, 0, 74, 47
3, 426238, Note_on_c, 0, 59, 36
3, 426241, Note_on_c, 0, 56, 36
3, 426243, Note_on_c, 0, 65, 34
3, 426248, Note_on_c, 0, 71, 40
3, 426254, Note_on_c, 0, 68, 33
3, 426462, Control_c, 0, 64, 127
3, 426580, Note_on_c, 0, 48, 0
3, 426752, Note_on_c, 0, 56, 0
3, 426757, Note_on_c, 0, 74, 0
3, 426771, Note_on_c, 0, 48, 47
3, 426782, Note_on_c, 0, 65, 0
3, 426791, Note_on_c, 0, 71, 0
3, 426814, Note_on_c, 0, 59, 0
3, 426817, Note_on_c, 0, 68, 0
3, 426940, Note_on_c, 0, 48, 0
3, 427129, Control_c, 0, 64, 0
3, 427165, Note_on_c, 0, 71, 63
3, 427170, Note_on_c, 0, 62, 60
3, 427175, Note_on_c, 0, 67, 64
3, 427196, Note_on_c, 0, 56, 50
3, 427257, Control_c, 0, 64, 127
3, 427308, Note_on_c, 0, 62, 0
3, 427411, Note_on_c, 0, 71, 0
3, 427450, Control_c, 0, 64, 0
3, 427452, Note_on_c, 0, 67, 0
3, 427516, Note_on_c, 0, 74, 73
3, 427532, Note_on_c, 0, 70, 67
3, 427539, Note_on_c, 0, 64, 62
3, 427541, Note_on_c, 0, 59, 64
3, 427546, Note_on_c, 0, 65, 53
3, 427590, Note_on_c, 0, 65, 0
3, 427623, Note_on_c, 0, 64, 0
3, 427655, Control_c, 0, 64, 127
3, 427667, Note_on_c, 0, 70, 0
3, 427699, Note_on_c, 0, 74, 0
3, 427822, Control_c, 0, 64, 0
3, 427883, Note_on_c, 0, 56, 0
3, 427891, Note_on_c, 0, 77, 84
3, 427893, Note_on_c, 0, 68, 81
3, 427904, Note_on_c, 0, 62, 65
3, 427920, Note_on_c, 0, 59, 0
3, 427989, Control_c, 0, 64, 127
3, 428048, Note_on_c, 0, 77, 0
3, 428087, Note_on_c, 0, 68, 0
3, 428143, Control_c, 0, 64, 0
3, 428207, Note_on_c, 0, 65, 67
3, 428226, Note_on_c, 0, 80, 72
3, 428232, Note_on_c, 0, 62, 0
3, 428271, Control_c, 0, 64, 127
3, 428357, Note_on_c, 0, 80, 0
3, 428464, Control_c, 0, 64, 0
3, 428567, Note_on_c, 0, 65, 0
3, 428573, Note_on_c, 0, 68, 62
3, 428618, Control_c, 0, 64, 127
3, 428771, Control_c, 0, 64, 0
3, 428884, Note_on_c, 0, 71, 66
3, 428893, Note_on_c, 0, 68, 0
3, 428912, Control_c, 0, 64, 127
3, 429053, Note_on_c, 0, 71, 0
3, 429105, Control_c, 0, 64, 0
3, 429181, Note_on_c, 0, 89, 53
3, 429203, Note_on_c, 0, 74, 57
3, 429205, Note_on_c, 0, 80, 58
3, 429209, Note_on_c, 0, 83, 62
3, 429246, Control_c, 0, 64, 127
3, 429520, Note_on_c, 0, 80, 0
3, 429536, Note_on_c, 0, 83, 0
3, 429551, Note_on_c, 0, 89, 0
3, 429574, Note_on_c, 0, 86, 61
3, 429592, Note_on_c, 0, 71, 46
3, 429605, Note_on_c, 0, 80, 25
3, 429642, Note_on_c, 0, 74, 0
3, 429712, Note_on_c, 0, 80, 0
3, 429811, Note_on_c, 0, 86, 0
3, 429852, Note_on_c, 0, 89, 57
3, 429858, Note_on_c, 0, 74, 44
3, 429867, Note_on_c, 0, 80, 49
3, 429916, Note_on_c, 0, 74, 0
3, 429958, Note_on_c, 0, 71, 0
3, 430022, Note_on_c, 0, 80, 0
3, 430037, Note_on_c, 0, 89, 0
3, 430105, Control_c, 0, 64, 0
3, 430137, Note_on_c, 0, 89, 53
3, 430161, Note_on_c, 0, 81, 58
3, 430297, Control_c, 0, 64, 127
3, 430480, Note_on_c, 0, 89, 0
3, 430540, Note_on_c, 0, 81, 0
3, 430574, Note_on_c, 0, 48, 41
3, 431079, Note_on_c, 0, 57, 51
3, 431543, Control_c, 0, 64, 0
3, 431575, Note_on_c, 0, 60, 46
3, 431591, Note_on_c, 0, 69, 49
3, 431599, Note_on_c, 0, 65, 35
3, 431714, Note_on_c, 0, 57, 0
3, 431850, Control_c, 0, 64, 127
3, 432012, Note_on_c, 0, 60, 0
3, 432029, Note_on_c, 0, 57, 50
3, 432056, Note_on_c, 0, 65, 0
3, 432102, Note_on_c, 0, 69, 0
3, 432504, Note_on_c, 0, 60, 47
3, 433013, Note_on_c, 0, 77, 82
3, 433143, Note_on_c, 0, 48, 0
3, 433291, Note_on_c, 0, 60, 0
3, 433294, Note_on_c, 0, 72, 63
3, 433454, Note_on_c, 0, 77, 0
3, 433463, Note_on_c, 0, 57, 0
3, 433466, Note_on_c, 0, 72, 0
3, 433497, Note_on_c, 0, 69, 52
3, 433648, Note_on_c, 0, 69, 0
3, 433733, Note_on_c, 0, 67, 64
3, 433916, Note_on_c, 0, 67, 0
3, 433980, Control_c, 0, 64, 0
3, 434013, Note_on_c, 0, 58, 39
3, 434022, Note_on_c, 0, 48, 45
3, 434036, Note_on_c, 0, 65, 69
3, 434065, Note_on_c, 0, 55, 17
3, 434741, Note_on_c, 0, 65, 0
3, 434764, Note_on_c, 0, 67, 40
3, 434824, Note_on_c, 0, 65, 57
3, 434896, Note_on_c, 0, 67, 0
3, 434974, Note_on_c, 0, 62, 36
3, 435023, Note_on_c, 0, 65, 0
3, 435329, Note_on_c, 0, 55, 0
3, 435439, Note_on_c, 0, 62, 0
3, 435472, Note_on_c, 0, 64, 59
3, 435480, Control_c, 0, 64, 127
3, 435700, Note_on_c, 0, 48, 0
3, 435720, Note_on_c, 0, 55, 1
3, 435857, Note_on_c, 0, 64, 0
3, 435947, Note_on_c, 0, 48, 41
3, 436296, Note_on_c, 0, 55, 0
3, 436417, Note_on_c, 0, 74, 71
3, 436460, Note_on_c, 0, 55, 9
3, 436595, Note_on_c, 0, 74, 0
3, 436701, Note_on_c, 0, 74, 58
3, 436714, Note_on_c, 0, 58, 0
3, 436867, Note_on_c, 0, 74, 0
3, 436954, Note_on_c, 0, 76, 71
3, 437140, Note_on_c, 0, 48, 0
3, 437254, Note_on_c, 0, 76, 0
3, 437382, Note_on_c, 0, 74, 60
3, 437429, Note_on_c, 0, 48, 37
3, 437438, Note_on_c, 0, 55, 0
3, 437781, Note_on_c, 0, 74, 0
3, 437790, Control_c, 0, 64, 0
3, 437847, Note_on_c, 0, 72, 58
3, 437879, Note_on_c, 0, 58, 28
3, 438040, Note_on_c, 0, 60, 1
3, 438150, Control_c, 0, 64, 127
3, 438266, Note_on_c, 0, 72, 0
3, 438429, Note_on_c, 0, 67, 10
3, 438568, Note_on_c, 0, 58, 0
3, 438592, Note_on_c, 0, 60, 0
3, 438831, Note_on_c, 0, 79, 57
3, 438854, Note_on_c, 0, 60, 26
3, 438860, Note_on_c, 0, 58, 21
3, 439130, Note_on_c, 0, 58, 0
3, 439312, Note_on_c, 0, 60, 0
3, 439339, Note_on_c, 0, 79, 0
3, 439417, Note_on_c, 0, 58, 6
3, 439458, Note_on_c, 0, 67, 0
3, 439745, Note_on_c, 0, 76, 56
3, 439751, Note_on_c, 0, 67, 41
3, 439761, Note_on_c, 0, 60, 30
3, 439841, Note_on_c, 0, 58, 0
3, 440186, Note_on_c, 0, 76, 0
3, 440230, Note_on_c, 0, 58, 23
3, 440248, Note_on_c, 0, 60, 0
3, 440497, Note_on_c, 0, 67, 0
3, 440707, Note_on_c, 0, 72, 43
3, 440711, Note_on_c, 0, 60, 24
3, 440867, Note_on_c, 0, 58, 0
3, 440884, Note_on_c, 0, 48, 0
3, 441094, Note_on_c, 0, 72, 0
3, 441218, Note_on_c, 0, 70, 43
3, 441445, Note_on_c, 0, 70, 0
3, 441480, Note_on_c, 0, 60, 0
3, 441652, Control_c, 0, 64, 0
3, 441684, Note_on_c, 0, 53, 25
3, 441698, Note_on_c, 0, 69, 56
3, 441742, Note_on_c, 0, 60, 28
3, 441909, Note_on_c, 0, 69, 0
3, 441925, Note_on_c, 0, 70, 40
3, 442037, Note_on_c, 0, 69, 40
3, 442092, Note_on_c, 0, 70, 0
3, 442188, Note_on_c, 0, 68, 42
3, 442190, Note_on_c, 0, 69, 0
3, 442289, Note_on_c, 0, 68, 0
3, 442411, Note_on_c, 0, 69, 36
3, 442571, Note_on_c, 0, 69, 0
3, 442736, Note_on_c, 0, 65, 24
3, 442746, Note_on_c, 0, 70, 42
3, 442812, Note_on_c, 0, 70, 0
3, 443128, Note_on_c, 0, 69, 57
3, 443488, Control_c, 0, 64, 127
3, 443633, Note_on_c, 0, 69, 0
3, 443968, Note_on_c, 0, 65, 0
3, 443978, Note_on_c, 0, 60, 0
3, 444065, Control_c, 0, 64, 0
3, 444090, Note_on_c, 0, 65, 49
3, 444412, Control_c, 0, 64, 127
3, 444476, Note_on_c, 0, 60, 33
3, 444646, Note_on_c, 0, 53, 0
3, 445000, Note_on_c, 0, 53, 29
3, 445255, Note_on_c, 0, 60, 0
3, 445338, Note_on_c, 0, 53, 0
3, 445484, Note_on_c, 0, 62, 32
3, 445504, Note_on_c, 0, 53, 16
3, 445542, Note_on_c, 0, 58, 30
3, 445565, Note_on_c, 0, 65, 0
3, 445925, Control_c, 0, 64, 0
3, 446444, Note_on_c, 0, 64, 51
3, 446574, Note_on_c, 0, 64, 0
3, 446694, Note_on_c, 0, 65, 62
3, 446808, Note_on_c, 0, 65, 0
3, 446928, Note_on_c, 0, 69, 73
3, 447083, Note_on_c, 0, 69, 0
3, 447183, Note_on_c, 0, 70, 69
3, 447289, Note_on_c, 0, 70, 0
3, 447435, Note_on_c, 0, 73, 58
3, 447569, Note_on_c, 0, 73, 0
3, 447683, Note_on_c, 0, 74, 60
3, 447795, Note_on_c, 0, 74, 0
3, 447888, Note_on_c, 0, 77, 60
3, 448016, Note_on_c, 0, 77, 0
3, 448139, Note_on_c, 0, 79, 55
3, 448267, Note_on_c, 0, 79, 0
3, 448391, Note_on_c, 0, 81, 58
3, 448572, Note_on_c, 0, 81, 0
3, 448638, Note_on_c, 0, 82, 53
3, 448760, Note_on_c, 0, 82, 0
3, 448857, Note_on_c, 0, 84, 58
3, 449012, Note_on_c, 0, 84, 0
3, 449067, Control_c, 0, 64, 127
3, 449112, Note_on_c, 0, 82, 59
3, 449191, Note_on_c, 0, 53, 0
3, 449251, Note_on_c, 0, 82, 0
3, 449286, Control_c, 0, 64, 0
3, 449328, Note_on_c, 0, 84, 60
3, 449468, Note_on_c, 0, 58, 0
3, 449539, Note_on_c, 0, 62, 0
3, 449562, Note_on_c, 0, 82, 56
3, 449649, Note_on_c, 0, 53, 17
3, 449664, Note_on_c, 0, 84, 0
3, 449728, Note_on_c, 0, 82, 0
3, 449798, Note_on_c, 0, 79, 51
3, 450001, Note_on_c, 0, 79, 0
3, 450050, Note_on_c, 0, 76, 54
3, 450179, Note_on_c, 0, 76, 0
3, 450272, Note_on_c, 0, 72, 50
3, 450312, Note_on_c, 0, 60, 19
3, 450662, Note_on_c, 0, 72, 0
3, 450672, Control_c, 0, 64, 127
3, 450716, Note_on_c, 0, 70, 26
3, 450740, Note_on_c, 0, 64, 28
3, 450824, Note_on_c, 0, 70, 0
3, 450896, Note_on_c, 0, 64, 0
3, 451056, Control_c, 0, 64, 0
3, 451152, Note_on_c, 0, 64, 38
3, 451153, Note_on_c, 0, 67, 41
3, 451484, Note_on_c, 0, 60, 0
3, 451558, Control_c, 0, 64, 127
3, 451663, Note_on_c, 0, 60, 17
3, 452012, Note_on_c, 0, 60, 0
3, 452084, Note_on_c, 0, 67, 0
3, 452143, Note_on_c, 0, 70, 50
3, 452163, Note_on_c, 0, 60, 24
3, 452308, Note_on_c, 0, 70, 0
3, 452340, Control_c, 0, 64, 0
3, 452367, Note_on_c, 0, 60, 0
3, 452401, Note_on_c, 0, 72, 53
3, 452552, Note_on_c, 0, 72, 0
3, 452622, Note_on_c, 0, 74, 57
3, 452654, Note_on_c, 0, 60, 20
3, 452816, Note_on_c, 0, 74, 0
3, 452896, Note_on_c, 0, 70, 36
3, 452920, Note_on_c, 0, 53, 0
3, 453030, Note_on_c, 0, 64, 0
3, 453058, Note_on_c, 0, 53, 22
3, 453085, Note_on_c, 0, 70, 0
3, 453127, Note_on_c, 0, 69, 50
3, 453777, Note_on_c, 0, 60, 0
3, 454088, Note_on_c, 0, 60, 24
3, 454097, Note_on_c, 0, 65, 48
3, 454822, Note_on_c, 0, 60, 0
3, 455064, Note_on_c, 0, 60, 31
3, 455070, Note_on_c, 0, 65, 0
3, 455235, Note_on_c, 0, 69, 0
3, 456061, Note_on_c, 0, 86, 72
3, 456062, Note_on_c, 0, 74, 69
3, 456177, Note_on_c, 0, 74, 0
3, 456213, Note_on_c, 0, 86, 0
3, 456339, Note_on_c, 0, 84, 33
3, 456428, Note_on_c, 0, 84, 0
3, 456523, Note_on_c, 0, 86, 66
3, 456540, Note_on_c, 0, 74, 42
3, 456582, Note_on_c, 0, 53, 0
3, 456707, Note_on_c, 0, 74, 0
3, 456734, Note_on_c, 0, 86, 0
3, 456748, Note_on_c, 0, 60, 0
3, 456844, Note_on_c, 0, 84, 24
3, 456938, Note_on_c, 0, 84, 0
3, 457004, Note_on_c, 0, 86, 55
3, 457009, Note_on_c, 0, 53, 22
3, 457015, Note_on_c, 0, 74, 38
3, 457020, Note_on_c, 0, 60, 30
3, 457359, Note_on_c, 0, 74, 0
3, 457377, Note_on_c, 0, 86, 0
3, 457464, Note_on_c, 0, 84, 38
3, 457681, Note_on_c, 0, 84, 0
3, 457937, Note_on_c, 0, 72, 43
3, 457976, Note_on_c, 0, 65, 24
3, 458434, Control_c, 0, 64, 127
3, 458553, Note_on_c, 0, 60, 0
3, 458688, Note_on_c, 0, 65, 0
3, 458940, Note_on_c, 0, 65, 33
3, 458956, Note_on_c, 0, 60, 32
3, 458963, Note_on_c, 0, 72, 0
3, 459964, Note_on_c, 0, 65, 0
3, 460098, Note_on_c, 0, 60, 0
3, 460276, Note_on_c, 0, 53, 0
3, 460807, Control_c, 0, 64, 0
3, 460810, Note_on_c, 0, 62, 26
3, 460814, Note_on_c, 0, 55, 24
3, 460824, Note_on_c, 0, 53, 18
3, 460826, Note_on_c, 0, 58, 35
3, 461342, Note_on_c, 0, 70, 36
3, 461441, Note_on_c, 0, 70, 0
3, 461452, Note_on_c, 0, 72, 57
3, 461573, Note_on_c, 0, 70, 46
3, 461626, Note_on_c, 0, 72, 0
3, 461704, Note_on_c, 0, 70, 0
3, 461715, Note_on_c, 0, 69, 47
3, 461780, Note_on_c, 0, 69, 0
3, 461854, Note_on_c, 0, 70, 64
3, 461980, Note_on_c, 0, 72, 57
3, 461981, Note_on_c, 0, 70, 0
3, 462087, Note_on_c, 0, 70, 43
3, 462104, Note_on_c, 0, 72, 0
3, 462192, Note_on_c, 0, 70, 0
3, 462245, Note_on_c, 0, 69, 34
3, 462306, Note_on_c, 0, 69, 0
3, 462353, Note_on_c, 0, 70, 57
3, 462478, Note_on_c, 0, 72, 51
3, 462481, Note_on_c, 0, 70, 0
3, 462604, Note_on_c, 0, 70, 34
3, 462606, Note_on_c, 0, 72, 0
3, 462704, Note_on_c, 0, 70, 0
3, 462730, Note_on_c, 0, 69, 34
3, 462803, Note_on_c, 0, 69, 0
3, 462850, Note_on_c, 0, 70, 50
3, 463921, Note_on_c, 0, 70, 0
3, 463925, Control_c, 0, 64, 127
3, 463970, Note_on_c, 0, 72, 42
3, 464014, Control_c, 0, 64, 0
3, 464060, Note_on_c, 0, 70, 48
3, 464098, Note_on_c, 0, 72, 0
3, 464199, Note_on_c, 0, 70, 0
3, 464212, Note_on_c, 0, 69, 33
3, 464312, Note_on_c, 0, 69, 0
3, 464345, Note_on_c, 0, 70, 52
3, 464381, Note_on_c, 0, 55, 0
3, 464401, Note_on_c, 0, 53, 0
3, 464440, Note_on_c, 0, 62, 0
3, 464528, Note_on_c, 0, 70, 0
3, 464533, Note_on_c, 0, 72, 62
3, 464590, Note_on_c, 0, 58, 0
3, 464675, Note_on_c, 0, 72, 0
3, 464695, Note_on_c, 0, 74, 54
3, 464784, Note_on_c, 0, 60, 30
3, 464796, Note_on_c, 0, 52, 20
3, 464802, Note_on_c, 0, 58, 14
3, 464885, Note_on_c, 0, 72, 47
3, 464922, Note_on_c, 0, 74, 0
3, 465748, Control_c, 0, 64, 127
3, 465893, Note_on_c, 0, 52, 0
3, 466100, Note_on_c, 0, 52, 53
3, 466112, Note_on_c, 0, 60, 0
3, 466135, Note_on_c, 0, 58, 0
3, 466289, Note_on_c, 0, 72, 0
3, 466563, Note_on_c, 0, 58, 51
3, 466671, Control_c, 0, 64, 0
3, 466824, Note_on_c, 0, 60, 54
3, 467018, Note_on_c, 0, 60, 0
3, 467031, Note_on_c, 0, 61, 67
3, 467212, Note_on_c, 0, 61, 0
3, 467219, Note_on_c, 0, 63, 72
3, 467344, Note_on_c, 0, 63, 0
3, 467365, Note_on_c, 0, 64, 68
3, 467488, Note_on_c, 0, 64, 0
3, 467537, Note_on_c, 0, 66, 68
3, 467563, Note_on_c, 0, 60, 30
3, 467648, Note_on_c, 0, 66, 0
3, 467726, Note_on_c, 0, 67, 51
3, 467873, Note_on_c, 0, 69, 48
3, 467877, Note_on_c, 0, 67, 0
3, 468023, Note_on_c, 0, 69, 0
3, 468037, Note_on_c, 0, 70, 54
3, 468080, Note_on_c, 0, 70, 0
3, 468120, Control_c, 0, 64, 127
3, 468134, Control_c, 0, 64, 0
3, 468147, Control_c, 0, 64, 127
3, 468161, Note_on_c, 0, 72, 54
3, 468185, Control_c, 0, 64, 0
3, 468186, Note_on_c, 0, 52, 0
3, 468247, Note_on_c, 0, 58, 0
3, 468302, Note_on_c, 0, 72, 0
3, 468312, Note_on_c, 0, 75, 42
3, 468430, Note_on_c, 0, 60, 0
3, 468492, Note_on_c, 0, 75, 0
3, 468512, Note_on_c, 0, 76, 44
3, 468544, Note_on_c, 0, 53, 28
3, 468561, Note_on_c, 0, 60, 27
3, 468657, Note_on_c, 0, 76, 0
3, 468706, Note_on_c, 0, 79, 57
3, 468908, Note_on_c, 0, 79, 0
3, 468970, Note_on_c, 0, 76, 38
3, 469080, Note_on_c, 0, 76, 0
3, 469143, Note_on_c, 0, 77, 52
3, 469327, Note_on_c, 0, 77, 0
3, 469350, Note_on_c, 0, 72, 43
3, 469501, Note_on_c, 0, 72, 0
3, 469556, Note_on_c, 0, 69, 25
3, 469729, Note_on_c, 0, 69, 0
3, 470080, Note_on_c, 0, 60, 0
3, 470174, Control_c, 0, 64, 127
3, 470412, Note_on_c, 0, 65, 36
3, 470421, Note_on_c, 0, 60, 32
3, 470826, Note_on_c, 0, 65, 0
3, 470840, Control_c, 0, 64, 0
3, 470917, Note_on_c, 0, 74, 99
3, 471086, Note_on_c, 0, 74, 0
3, 471166, Note_on_c, 0, 72, 60
3, 471285, Note_on_c, 0, 72, 0
3, 471381, Note_on_c, 0, 53, 0
3, 471398, Note_on_c, 0, 74, 89
3, 471568, Note_on_c, 0, 74, 0
3, 471628, Note_on_c, 0, 72, 64
3, 471668, Note_on_c, 0, 60, 0
3, 471811, Note_on_c, 0, 72, 0
3, 471836, Note_on_c, 0, 69, 58
3, 471956, Control_c, 0, 64, 127
3, 472039, Note_on_c, 0, 69, 0
3, 472078, Note_on_c, 0, 65, 58
3, 472200, Control_c, 0, 64, 0
3, 472241, Note_on_c, 0, 65, 0
3, 472322, Note_on_c, 0, 62, 43
3, 472376, Note_on_c, 0, 60, 26
3, 472404, Note_on_c, 0, 57, 22
3, 472483, Note_on_c, 0, 60, 0
3, 472533, Note_on_c, 0, 57, 0
3, 472802, Note_on_c, 0, 57, 35
3, 472805, Note_on_c, 0, 60, 35
3, 472814, Note_on_c, 0, 50, 25
3, 472823, Note_on_c, 0, 53, 26
3, 472924, Note_on_c, 0, 60, 0
3, 472981, Note_on_c, 0, 57, 0
3, 472997, Note_on_c, 0, 50, 0
3, 473007, Note_on_c, 0, 53, 0
3, 473318, Note_on_c, 0, 57, 35
3, 473324, Note_on_c, 0, 60, 30
3, 473331, Note_on_c, 0, 53, 25
3, 473365, Note_on_c, 0, 50, 15
3, 473429, Note_on_c, 0, 60, 0
3, 473454, Note_on_c, 0, 50, 0
3, 473472, Note_on_c, 0, 57, 0
3, 473510, Note_on_c, 0, 53, 0
3, 473981, Note_on_c, 0, 62, 0
3, 474312, Note_on_c, 0, 62, 35
3, 474319, Note_on_c, 0, 53, 26
3, 474327, Note_on_c, 0, 60, 32
3, 474328, Note_on_c, 0, 57, 47
3, 474457, Note_on_c, 0, 62, 0
3, 474488, Note_on_c, 0, 60, 0
3, 474526, Note_on_c, 0, 57, 0
3, 474538, Note_on_c, 0, 53, 0
3, 474781, Note_on_c, 0, 62, 36
3, 474786, Note_on_c, 0, 60, 36
3, 474799, Note_on_c, 0, 53, 25
3, 474800, Note_on_c, 0, 57, 45
3, 475267, Note_on_c, 0, 62, 0
3, 475302, Note_on_c, 0, 53, 0
3, 475331, Control_c, 0, 64, 127
3, 475333, Note_on_c, 0, 57, 0
3, 475334, Note_on_c, 0, 60, 0
3, 475738, Note_on_c, 0, 60, 31
3, 475744, Note_on_c, 0, 62, 32
3, 475755, Note_on_c, 0, 57, 32
3, 475793, Note_on_c, 0, 53, 15
3, 475879, Note_on_c, 0, 62, 0
3, 475902, Note_on_c, 0, 60, 0
3, 475948, Note_on_c, 0, 57, 0
3, 475971, Note_on_c, 0, 53, 0
3, 476177, Control_c, 0, 64, 0
3, 476225, Note_on_c, 0, 62, 37
3, 476234, Note_on_c, 0, 55, 29
3, 476256, Note_on_c, 0, 53, 20
3, 476258, Note_on_c, 0, 59, 36
3, 476627, Control_c, 0, 64, 127
3, 476637, Note_on_c, 0, 62, 0
3, 476779, Note_on_c, 0, 59, 0
3, 476912, Note_on_c, 0, 55, 0
3, 476952, Note_on_c, 0, 58, 67
3, 477050, Control_c, 0, 64, 0
3, 477104, Note_on_c, 0, 58, 0
3, 477180, Note_on_c, 0, 59, 51
3, 477331, Note_on_c, 0, 59, 0
3, 477392, Note_on_c, 0, 61, 75
3, 477425, Note_on_c, 0, 55, 26
3, 477443, Note_on_c, 0, 59, 40
3, 477530, Note_on_c, 0, 61, 0
3, 477616, Note_on_c, 0, 62, 43
3, 477770, Note_on_c, 0, 62, 0
3, 477838, Note_on_c, 0, 66, 72
3, 477876, Note_on_c, 0, 62, 40
3, 477958, Note_on_c, 0, 66, 0
3, 477959, Note_on_c, 0, 62, 0
3, 478048, Note_on_c, 0, 67, 64
3, 478182, Note_on_c, 0, 67, 0
3, 478263, Note_on_c, 0, 70, 67
3, 478298, Note_on_c, 0, 62, 31
3, 478346, Note_on_c, 0, 62, 0
3, 478378, Note_on_c, 0, 70, 0
3, 478494, Note_on_c, 0, 71, 44
3, 478604, Note_on_c, 0, 71, 0
3, 478631, Note_on_c, 0, 59, 0
3, 478723, Note_on_c, 0, 74, 71
3, 478739, Note_on_c, 0, 59, 19
3, 478776, Note_on_c, 0, 62, 33
3, 478822, Note_on_c, 0, 62, 0
3, 478835, Note_on_c, 0, 74, 0
3, 478856, Note_on_c, 0, 53, 0
3, 478945, Note_on_c, 0, 77, 67
3, 479036, Note_on_c, 0, 77, 0
3, 479115, Note_on_c, 0, 55, 0
3, 479188, Note_on_c, 0, 82, 71
3, 479212, Note_on_c, 0, 55, 18
3, 479216, Note_on_c, 0, 62, 40
3, 479308, Note_on_c, 0, 82, 0
3, 479412, Note_on_c, 0, 83, 71
3, 479548, Note_on_c, 0, 62, 0
3, 479554, Note_on_c, 0, 83, 0
3, 479667, Note_on_c, 0, 55, 0
3, 479701, Note_on_c, 0, 86, 88
3, 479824, Note_on_c, 0, 59, 0
3, 479877, Note_on_c, 0, 86, 0
3, 479936, Note_on_c, 0, 84, 78
3, 479973, Note_on_c, 0, 86, 33
3, 480002, Note_on_c, 0, 53, 30
3, 480029, Note_on_c, 0, 86, 0
3, 480129, Note_on_c, 0, 53, 0
3, 480412, Note_on_c, 0, 79, 49
3, 480426, Note_on_c, 0, 60, 34
3, 480440, Note_on_c, 0, 52, 24
3, 480614, Note_on_c, 0, 60, 0
3, 480778, Note_on_c, 0, 52, 0
3, 480874, Control_c, 0, 64, 127
3, 480881, Note_on_c, 0, 79, 0
3, 480898, Note_on_c, 0, 52, 28
3, 480904, Note_on_c, 0, 76, 45
3, 480910, Note_on_c, 0, 60, 31
3, 480952, Note_on_c, 0, 84, 0
3, 481264, Note_on_c, 0, 76, 0
3, 481294, Note_on_c, 0, 52, 0
3, 481386, Note_on_c, 0, 60, 0
3, 481395, Note_on_c, 0, 55, 27
3, 481437, Note_on_c, 0, 52, 7
3, 481939, Control_c, 0, 64, 0
3, 481945, Note_on_c, 0, 67, 43
3, 481957, Note_on_c, 0, 60, 33
3, 482182, Control_c, 0, 64, 127
3, 483116, Note_on_c, 0, 52, 0
3, 483372, Note_on_c, 0, 52, 24
3, 483617, Note_on_c, 0, 52, 0
3, 483797, Note_on_c, 0, 55, 0
3, 483825, Control_c, 0, 64, 0
3, 483859, Note_on_c, 0, 52, 34
3, 483886, Note_on_c, 0, 60, 0
3, 484244, Note_on_c, 0, 67, 0
3, 484318, Note_on_c, 0, 53, 28
3, 484811, Note_on_c, 0, 57, 44
3, 485303, Note_on_c, 0, 60, 38
3, 485756, Note_on_c, 0, 70, 80
3, 485977, Note_on_c, 0, 70, 0
3, 486018, Note_on_c, 0, 68, 55
3, 486163, Note_on_c, 0, 68, 0
3, 486251, Note_on_c, 0, 69, 66
3, 486467, Note_on_c, 0, 69, 0
3, 486551, Note_on_c, 0, 64, 61
3, 486684, Note_on_c, 0, 64, 0
3, 486754, Note_on_c, 0, 67, 71
3, 486908, Note_on_c, 0, 57, 0
3, 486969, Note_on_c, 0, 60, 0
3, 486973, Note_on_c, 0, 67, 0
3, 487036, Note_on_c, 0, 64, 54
3, 487066, Note_on_c, 0, 60, 28
3, 487088, Note_on_c, 0, 57, 26
3, 487166, Note_on_c, 0, 64, 0
3, 487243, Note_on_c, 0, 60, 0
3, 487248, Note_on_c, 0, 65, 68
3, 487367, Note_on_c, 0, 52, 0
3, 487377, Note_on_c, 0, 57, 0
3, 487393, Note_on_c, 0, 53, 0
3, 487507, Note_on_c, 0, 64, 77
3, 487560, Note_on_c, 0, 65, 0
3, 487646, Note_on_c, 0, 57, 39
3, 487692, Note_on_c, 0, 53, 27
3, 487704, Note_on_c, 0, 64, 0
3, 487728, Note_on_c, 0, 50, 22
3, 487769, Note_on_c, 0, 62, 45
3, 488092, Note_on_c, 0, 62, 0
3, 488181, Note_on_c, 0, 62, 64
3, 489381, Note_on_c, 0, 62, 0
3, 489587, Note_on_c, 0, 60, 36
3, 490117, Note_on_c, 0, 65, 88
3, 490202, Note_on_c, 0, 60, 0
3, 490353, Note_on_c, 0, 64, 68
3, 490396, Note_on_c, 0, 65, 0
3, 490501, Note_on_c, 0, 64, 0
3, 490589, Note_on_c, 0, 60, 20
3, 490616, Note_on_c, 0, 69, 83
3, 490773, Note_on_c, 0, 60, 0
3, 490894, Control_c, 0, 64, 127
3, 490977, Note_on_c, 0, 60, 29
3, 491018, Note_on_c, 0, 50, 0
3, 491054, Note_on_c, 0, 53, 0
3, 491066, Note_on_c, 0, 60, 0
3, 491116, Note_on_c, 0, 57, 0
3, 491381, Note_on_c, 0, 67, 60
3, 491456, Note_on_c, 0, 69, 0
3, 491567, Note_on_c, 0, 67, 0
3, 491613, Control_c, 0, 64, 0
3, 491653, Note_on_c, 0, 66, 62
3, 491664, Note_on_c, 0, 59, 24
3, 491673, Note_on_c, 0, 53, 24
3, 491674, Note_on_c, 0, 62, 18
3, 491677, Note_on_c, 0, 55, 24
3, 492020, Note_on_c, 0, 66, 0
3, 492066, Note_on_c, 0, 67, 57
3, 492451, Note_on_c, 0, 67, 0
3, 492524, Note_on_c, 0, 70, 59
3, 492573, Note_on_c, 0, 62, 0
3, 492629, Note_on_c, 0, 59, 0
3, 492924, Note_on_c, 0, 70, 0
3, 492997, Note_on_c, 0, 71, 57
3, 493863, Note_on_c, 0, 71, 0
3, 493927, Note_on_c, 0, 59, 19
3, 493945, Note_on_c, 0, 73, 38
3, 494082, Note_on_c, 0, 59, 0
3, 494113, Note_on_c, 0, 73, 0
3, 494224, Note_on_c, 0, 74, 50
3, 494256, Note_on_c, 0, 76, 34
3, 494320, Note_on_c, 0, 76, 0
3, 494330, Note_on_c, 0, 74, 0
3, 494483, Note_on_c, 0, 79, 38
3, 494590, Note_on_c, 0, 79, 0
3, 494712, Note_on_c, 0, 83, 87
3, 494796, Note_on_c, 0, 62, 32
3, 494803, Note_on_c, 0, 59, 30
3, 494846, Note_on_c, 0, 83, 0
3, 494915, Note_on_c, 0, 62, 0
3, 494944, Note_on_c, 0, 86, 91
3, 495137, Note_on_c, 0, 53, 0
3, 495141, Note_on_c, 0, 86, 0
3, 495176, Note_on_c, 0, 59, 0
3, 495191, Note_on_c, 0, 55, 0
3, 495247, Note_on_c, 0, 83, 24
3, 495317, Note_on_c, 0, 83, 0
3, 495459, Note_on_c, 0, 86, 90
3, 495496, Note_on_c, 0, 52, 39
3, 495537, Note_on_c, 0, 60, 17
3, 495782, Note_on_c, 0, 86, 0
3, 495872, Note_on_c, 0, 84, 72
3, 495874, Note_on_c, 0, 60, 0
3, 496092, Note_on_c, 0, 84, 0
3, 496133, Note_on_c, 0, 79, 61
3, 496285, Note_on_c, 0, 79, 0
3, 496353, Note_on_c, 0, 60, 24
3, 496364, Note_on_c, 0, 76, 45
3, 496372, Note_on_c, 0, 64, 20
3, 496588, Note_on_c, 0, 76, 0
3, 496643, Note_on_c, 0, 72, 41
3, 496764, Note_on_c, 0, 64, 0
3, 496838, Note_on_c, 0, 72, 0
3, 496885, Note_on_c, 0, 64, 28
3, 496902, Note_on_c, 0, 67, 36
3, 497192, Note_on_c, 0, 64, 0
3, 497216, Note_on_c, 0, 60, 0
3, 497335, Control_c, 0, 64, 127
3, 497370, Note_on_c, 0, 64, 28
3, 497376, Note_on_c, 0, 60, 26
3, 497614, Note_on_c, 0, 64, 0
3, 497679, Note_on_c, 0, 60, 0
3, 497852, Note_on_c, 0, 60, 29
3, 497854, Note_on_c, 0, 64, 32
3, 498060, Note_on_c, 0, 52, 0
3, 498064, Note_on_c, 0, 64, 0
3, 498712, Note_on_c, 0, 60, 0
3, 498758, Note_on_c, 0, 52, 31
3, 499130, Note_on_c, 0, 52, 0
3, 499258, Control_c, 0, 64, 0
3, 499735, Note_on_c, 0, 60, 34
3, 499744, Note_on_c, 0, 51, 36
3, 499768, Note_on_c, 0, 57, 47
3, 499776, Note_on_c, 0, 54, 33
3, 499915, Note_on_c, 0, 67, 0
3, 500224, Note_on_c, 0, 60, 0
3, 500339, Note_on_c, 0, 57, 0
3, 500453, Note_on_c, 0, 59, 37
3, 500542, Note_on_c, 0, 59, 0
3, 500604, Note_on_c, 0, 60, 57
3, 500742, Note_on_c, 0, 62, 53
3, 500814, Note_on_c, 0, 60, 0
3, 500871, Note_on_c, 0, 63, 72
3, 500892, Note_on_c, 0, 62, 0
3, 500971, Note_on_c, 0, 63, 0
3, 501031, Note_on_c, 0, 65, 71
3, 501100, Note_on_c, 0, 60, 11
3, 501160, Note_on_c, 0, 65, 0
3, 501171, Note_on_c, 0, 66, 62
3, 501303, Note_on_c, 0, 66, 0
3, 501332, Note_on_c, 0, 68, 48
3, 501383, Note_on_c, 0, 68, 0
3, 501446, Note_on_c, 0, 69, 59
3, 501450, Note_on_c, 0, 60, 0
3, 501573, Note_on_c, 0, 69, 0
3, 501589, Note_on_c, 0, 71, 58
3, 501722, Note_on_c, 0, 72, 60
3, 501724, Note_on_c, 0, 71, 0
3, 501879, Note_on_c, 0, 72, 0
3, 501900, Note_on_c, 0, 74, 54
3, 502018, Note_on_c, 0, 74, 0
3, 502283, Note_on_c, 0, 60, 28
3, 502329, Note_on_c, 0, 57, 19
3, 502717, Note_on_c, 0, 72, 30
3, 502854, Note_on_c, 0, 72, 0
3, 502872, Note_on_c, 0, 74, 57
3, 502912, Note_on_c, 0, 51, 0
3, 502914, Note_on_c, 0, 57, 0
3, 503024, Note_on_c, 0, 75, 57
3, 503027, Note_on_c, 0, 74, 0
3, 503051, Note_on_c, 0, 60, 0
3, 503054, Note_on_c, 0, 54, 0
3, 503088, Note_on_c, 0, 76, 59
3, 503112, Note_on_c, 0, 75, 0
3, 503202, Note_on_c, 0, 76, 0
3, 503276, Note_on_c, 0, 77, 82
3, 503578, Note_on_c, 0, 74, 68
3, 503660, Note_on_c, 0, 58, 25
3, 503664, Note_on_c, 0, 77, 0
3, 503672, Note_on_c, 0, 62, 17
3, 503744, Note_on_c, 0, 55, 10
3, 503747, Note_on_c, 0, 74, 0
3, 503863, Note_on_c, 0, 70, 49
3, 504049, Note_on_c, 0, 70, 0
3, 504083, Note_on_c, 0, 69, 33
3, 504170, Note_on_c, 0, 62, 0
3, 504234, Note_on_c, 0, 69, 0
3, 504235, Note_on_c, 0, 58, 0
3, 504293, Note_on_c, 0, 74, 58
3, 504364, Note_on_c, 0, 62, 22
3, 504491, Note_on_c, 0, 74, 0
3, 504513, Note_on_c, 0, 70, 35
3, 504619, Note_on_c, 0, 62, 0
3, 504624, Note_on_c, 0, 70, 0
3, 504695, Note_on_c, 0, 72, 49
3, 504814, Control_c, 0, 64, 127
3, 504829, Note_on_c, 0, 72, 0
3, 504916, Note_on_c, 0, 62, 38
3, 504930, Control_c, 0, 64, 0
3, 505059, Control_c, 0, 64, 127
3, 505066, Note_on_c, 0, 62, 0
3, 505191, Note_on_c, 0, 62, 40
3, 505231, Note_on_c, 0, 58, 27
3, 505400, Note_on_c, 0, 58, 0
3, 505415, Note_on_c, 0, 62, 0
3, 505578, Note_on_c, 0, 62, 34
3, 506022, Note_on_c, 0, 58, 36
3, 506240, Note_on_c, 0, 55, 0
3, 506423, Note_on_c, 0, 62, 0
3, 506487, Note_on_c, 0, 53, 22
3, 506599, Note_on_c, 0, 53, 0
3, 506919, Control_c, 0, 64, 0
3, 506920, Note_on_c, 0, 61, 40
3, 506924, Note_on_c, 0, 52, 32
3, 507226, Control_c, 0, 64, 127
3, 507248, Note_on_c, 0, 61, 0
3, 507409, Note_on_c, 0, 63, 55
3, 507452, Note_on_c, 0, 58, 0
3, 507463, Note_on_c, 0, 52, 0
3, 507466, Note_on_c, 0, 60, 29
3, 507521, Control_c, 0, 64, 0
3, 507536, Note_on_c, 0, 63, 0
3, 507616, Note_on_c, 0, 64, 57
3, 507674, Note_on_c, 0, 60, 0
3, 507685, Note_on_c, 0, 61, 56
3, 507699, Note_on_c, 0, 64, 0
3, 507796, Note_on_c, 0, 66, 52
3, 507875, Note_on_c, 0, 61, 0
3, 507888, Note_on_c, 0, 66, 0
3, 507893, Note_on_c, 0, 63, 67
3, 507956, Note_on_c, 0, 67, 54
3, 507982, Note_on_c, 0, 63, 0
3, 508043, Note_on_c, 0, 64, 36
3, 508078, Note_on_c, 0, 67, 0
3, 508111, Note_on_c, 0, 69, 56
3, 508156, Note_on_c, 0, 66, 58
3, 508166, Note_on_c, 0, 64, 0
3, 508250, Note_on_c, 0, 69, 0
3, 508273, Note_on_c, 0, 70, 60
3, 508309, Note_on_c, 0, 67, 48
3, 508325, Note_on_c, 0, 66, 0
3, 508358, Note_on_c, 0, 70, 0
3, 508404, Note_on_c, 0, 72, 62
3, 508410, Note_on_c, 0, 67, 0
3, 508487, Note_on_c, 0, 71, 29
3, 508510, Note_on_c, 0, 72, 0
3, 508535, Note_on_c, 0, 73, 55
3, 508563, Note_on_c, 0, 71, 0
3, 508645, Note_on_c, 0, 73, 0
3, 508659, Note_on_c, 0, 75, 56
3, 508753, Note_on_c, 0, 75, 0
3, 508771, Note_on_c, 0, 76, 62
3, 508783, Note_on_c, 0, 74, 34
3, 508889, Note_on_c, 0, 76, 0
3, 508910, Note_on_c, 0, 75, 58
3, 508916, Note_on_c, 0, 74, 0
3, 509079, Note_on_c, 0, 75, 0
3, 509089, Note_on_c, 0, 79, 35
3, 509100, Note_on_c, 0, 77, 30
3, 509203, Note_on_c, 0, 81, 55
3, 509204, Note_on_c, 0, 79, 0
3, 509286, Note_on_c, 0, 77, 0
3, 509345, Note_on_c, 0, 81, 0
3, 509369, Note_on_c, 0, 82, 56
3, 509447, Note_on_c, 0, 82, 0
3, 509507, Note_on_c, 0, 84, 50
3, 509528, Note_on_c, 0, 81, 13
3, 509633, Note_on_c, 0, 84, 0
3, 509652, Note_on_c, 0, 82, 34
3, 509657, Note_on_c, 0, 81, 0
3, 509676, Note_on_c, 0, 85, 34
3, 509777, Note_on_c, 0, 85, 0
3, 509792, Note_on_c, 0, 87, 47
3, 509896, Note_on_c, 0, 87, 0
3, 509936, Note_on_c, 0, 88, 60
3, 509949, Note_on_c, 0, 84, 36
3, 509953, Note_on_c, 0, 82, 0
3, 510064, Note_on_c, 0, 84, 0
3, 510081, Note_on_c, 0, 88, 0
3, 510108, Note_on_c, 0, 89, 53
3, 510256, Note_on_c, 0, 90, 59
3, 510261, Note_on_c, 0, 89, 0
3, 510402, Note_on_c, 0, 90, 0
3, 510444, Note_on_c, 0, 91, 32
3, 510624, Note_on_c, 0, 92, 60
3, 510641, Note_on_c, 0, 91, 0
3, 510782, Note_on_c, 0, 92, 0
3, 510824, Note_on_c, 0, 93, 59
3, 510860, Note_on_c, 0, 57, 35
3, 510872, Note_on_c, 0, 65, 31
3, 510881, Note_on_c, 0, 60, 43
3, 511114, Control_c, 0, 64, 127
3, 511188, Note_on_c, 0, 93, 0
3, 511205, Note_on_c, 0, 60, 0
3, 511223, Note_on_c, 0, 65, 0
3, 511261, Note_on_c, 0, 57, 0
3, 511343, Note_on_c, 0, 65, 51
3, 511345, Note_on_c, 0, 60, 32
3, 511361, Note_on_c, 0, 57, 26
3, 511623, Note_on_c, 0, 65, 0
3, 511644, Note_on_c, 0, 60, 0
3, 511692, Note_on_c, 0, 57, 0
3, 512295, Note_on_c, 0, 60, 41
3, 512302, Note_on_c, 0, 65, 22
3, 512303, Note_on_c, 0, 57, 33
3, 512398, Note_on_c, 0, 65, 0
3, 512505, Note_on_c, 0, 57, 0
3, 512524, Note_on_c, 0, 60, 0
3, 512746, Control_c, 0, 64, 0
3, 512778, Note_on_c, 0, 72, 66
3, 512779, Note_on_c, 0, 84, 72
3, 512800, Note_on_c, 0, 65, 48
3, 512806, Note_on_c, 0, 60, 35
3, 512808, Note_on_c, 0, 57, 49
3, 513080, Control_c, 0, 64, 127
3, 513127, Note_on_c, 0, 57, 0
3, 513134, Note_on_c, 0, 65, 0
3, 513173, Note_on_c, 0, 60, 0
3, 513322, Note_on_c, 0, 60, 34
3, 513329, Note_on_c, 0, 65, 51
3, 513336, Note_on_c, 0, 57, 49
3, 513701, Note_on_c, 0, 65, 0
3, 513763, Note_on_c, 0, 57, 0
3, 513820, Note_on_c, 0, 60, 0
3, 514154, Note_on_c, 0, 65, 56
3, 514190, Note_on_c, 0, 60, 32
3, 514200, Note_on_c, 0, 57, 39
3, 514293, Note_on_c, 0, 60, 0
3, 514324, Note_on_c, 0, 65, 0
3, 514453, Note_on_c, 0, 57, 0
3, 514659, Note_on_c, 0, 57, 33
3, 514662, Note_on_c, 0, 62, 58
3, 514685, Note_on_c, 0, 58, 74
3, 514696, Control_c, 0, 64, 0
3, 515066, Note_on_c, 0, 58, 0
3, 515082, Note_on_c, 0, 62, 0
3, 515105, Note_on_c, 0, 57, 0
3, 515120, Control_c, 0, 64, 127
3, 515210, Note_on_c, 0, 62, 52
3, 515214, Note_on_c, 0, 57, 55
3, 515225, Note_on_c, 0, 58, 69
3, 515253, Note_on_c, 0, 84, 0
3, 515272, Note_on_c, 0, 72, 0
3, 515683, Note_on_c, 0, 58, 0
3, 515703, Note_on_c, 0, 57, 0
3, 515724, Note_on_c, 0, 62, 0
3, 516002, Note_on_c, 0, 62, 63
3, 516003, Note_on_c, 0, 58, 69
3, 516006, Note_on_c, 0, 57, 66
3, 516032, Control_c, 0, 64, 0
3, 516107, Control_c, 0, 64, 127
3, 516316, Note_on_c, 0, 62, 0
3, 516341, Note_on_c, 0, 58, 0
3, 516344, Note_on_c, 0, 57, 0
3, 516480, Control_c, 0, 64, 0
3, 516490, Note_on_c, 0, 69, 110
3, 516504, Note_on_c, 0, 62, 47
3, 516506, Note_on_c, 0, 58, 67
3, 516518, Note_on_c, 0, 57, 54
3, 516718, Note_on_c, 0, 70, 72
3, 516780, Note_on_c, 0, 69, 0
3, 516849, Note_on_c, 0, 70, 0
3, 516857, Note_on_c, 0, 62, 0
3, 516881, Note_on_c, 0, 58, 0
3, 516926, Note_on_c, 0, 72, 78
3, 516954, Note_on_c, 0, 62, 65
3, 516972, Note_on_c, 0, 58, 72
3, 517201, Note_on_c, 0, 72, 0
3, 517294, Note_on_c, 0, 62, 0
3, 517340, Note_on_c, 0, 58, 0
3, 517432, Note_on_c, 0, 69, 54
3, 517450, Note_on_c, 0, 62, 32
3, 517464, Note_on_c, 0, 58, 51
3, 517571, Note_on_c, 0, 69, 0
3, 517626, Note_on_c, 0, 62, 0
3, 517672, Control_c, 0, 64, 127
3, 517675, Note_on_c, 0, 70, 59
3, 517806, Note_on_c, 0, 70, 0
3, 517822, Note_on_c, 0, 57, 0
3, 517914, Note_on_c, 0, 72, 70
3, 517953, Note_on_c, 0, 58, 0
3, 518342, Control_c, 0, 64, 0
3, 518374, Note_on_c, 0, 55, 32
3, 518375, Note_on_c, 0, 62, 35
3, 518380, Note_on_c, 0, 67, 52
3, 518405, Note_on_c, 0, 58, 40
3, 518639, Note_on_c, 0, 67, 0
3, 518649, Note_on_c, 0, 72, 0
3, 518666, Note_on_c, 0, 69, 35
3, 518795, Note_on_c, 0, 69, 0
3, 518880, Note_on_c, 0, 70, 67
3, 518910, Note_on_c, 0, 62, 0
3, 519056, Note_on_c, 0, 58, 0
3, 519206, Note_on_c, 0, 55, 0
3, 519248, Note_on_c, 0, 70, 0
3, 519347, Note_on_c, 0, 67, 42
3, 519354, Note_on_c, 0, 55, 10
3, 519360, Note_on_c, 0, 62, 19
3, 519388, Note_on_c, 0, 58, 30
3, 519393, Note_on_c, 0, 57, 17
3, 519516, Note_on_c, 0, 67, 0
3, 519627, Note_on_c, 0, 69, 30
3, 519742, Note_on_c, 0, 69, 0
3, 519788, Note_on_c, 0, 62, 0
3, 519820, Note_on_c, 0, 57, 0
3, 519823, Note_on_c, 0, 70, 65
3, 519975, Note_on_c, 0, 58, 0
3, 520188, Note_on_c, 0, 55, 0
3, 520279, Note_on_c, 0, 70, 0
3, 520334, Note_on_c, 0, 62, 41
3, 520337, Note_on_c, 0, 55, 17
3, 520392, Note_on_c, 0, 58, 25
3, 520394, Note_on_c, 0, 57, 24
3, 520528, Note_on_c, 0, 62, 0
3, 520647, Note_on_c, 0, 64, 48
3, 520779, Note_on_c, 0, 64, 0
3, 520837, Note_on_c, 0, 65, 54
3, 520876, Note_on_c, 0, 58, 0
3, 521002, Note_on_c, 0, 57, 0
3, 521148, Note_on_c, 0, 65, 0
3, 521210, Note_on_c, 0, 55, 0
3, 521309, Note_on_c, 0, 55, 22
3, 521340, Note_on_c, 0, 58, 34
3, 521342, Note_on_c, 0, 57, 24
3, 521344, Note_on_c, 0, 67, 55
3, 521354, Note_on_c, 0, 62, 20
3, 521553, Note_on_c, 0, 67, 0
3, 521576, Note_on_c, 0, 69, 54
3, 521733, Note_on_c, 0, 69, 0
3, 521808, Note_on_c, 0, 70, 67
3, 521825, Note_on_c, 0, 62, 0
3, 521876, Note_on_c, 0, 57, 0
3, 521927, Note_on_c, 0, 55, 0
3, 522168, Note_on_c, 0, 58, 0
3, 522219, Note_on_c, 0, 70, 0
3, 522279, Note_on_c, 0, 60, 33
3, 522280, Note_on_c, 0, 52, 32
3, 522288, Note_on_c, 0, 64, 53
3, 522300, Note_on_c, 0, 58, 25
3, 522502, Note_on_c, 0, 64, 0
3, 522560, Note_on_c, 0, 65, 39
3, 522698, Note_on_c, 0, 65, 0
3, 522777, Note_on_c, 0, 67, 52
3, 522823, Note_on_c, 0, 60, 0
3, 522945, Note_on_c, 0, 52, 0
3, 523043, Note_on_c, 0, 58, 0
3, 523070, Note_on_c, 0, 67, 0
3, 523217, Note_on_c, 0, 60, 39
3, 523252, Note_on_c, 0, 52, 18
3, 523256, Note_on_c, 0, 58, 27
3, 523432, Note_on_c, 0, 60, 0
3, 523498, Note_on_c, 0, 62, 36
3, 523545, Note_on_c, 0, 52, 0
3, 523649, Note_on_c, 0, 58, 0
3, 523704, Note_on_c, 0, 64, 48
3, 523736, Note_on_c, 0, 62, 0
3, 524000, Note_on_c, 0, 64, 0
3, 524142, Note_on_c, 0, 58, 43
3, 524188, Note_on_c, 0, 52, 24
3, 524385, Note_on_c, 0, 58, 0
3, 524400, Note_on_c, 0, 60, 38
3, 524573, Note_on_c, 0, 60, 0
3, 524625, Note_on_c, 0, 62, 35
3, 524698, Note_on_c, 0, 52, 0
3, 524929, Note_on_c, 0, 62, 0
3, 525084, Note_on_c, 0, 55, 30
3, 525116, Note_on_c, 0, 52, 17
3, 525315, Note_on_c, 0, 55, 0
3, 525318, Note_on_c, 0, 52, 0
3, 525332, Control_c, 0, 64, 127
3, 525347, Note_on_c, 0, 57, 61
3, 525396, Control_c, 0, 64, 0
3, 525488, Note_on_c, 0, 57, 0
3, 525560, Note_on_c, 0, 58, 60
3, 525666, Control_c, 0, 64, 127
3, 525984, Note_on_c, 0, 58, 0
3, 526013, Control_c, 0, 64, 0
3, 526072, Note_on_c, 0, 57, 58
3, 526076, Note_on_c, 0, 41, 33
3, 526100, Note_on_c, 0, 48, 26
3, 526254, Note_on_c, 0, 57, 0
3, 526269, Note_on_c, 0, 58, 46
3, 526392, Note_on_c, 0, 57, 50
3, 526425, Note_on_c, 0, 58, 0
3, 526507, Note_on_c, 0, 56, 59
3, 526551, Note_on_c, 0, 57, 0
3, 526622, Note_on_c, 0, 56, 0
3, 526662, Note_on_c, 0, 57, 67
3, 527115, Note_on_c, 0, 53, 26
3, 527432, Note_on_c, 0, 53, 0
3, 527576, Note_on_c, 0, 53, 34
3, 527616, Note_on_c, 0, 57, 0
3, 527655, Control_c, 0, 64, 127
3, 527831, Note_on_c, 0, 53, 0
3, 528084, Note_on_c, 0, 53, 25
3, 528085, Note_on_c, 0, 48, 0
3, 528596, Note_on_c, 0, 53, 0
3, 528600, Note_on_c, 0, 48, 30
3, 528669, Note_on_c, 0, 41, 0
3, 528729, Note_on_c, 0, 48, 0
3, 529516, Note_on_c, 0, 84, 83
3, 529694, Note_on_c, 0, 84, 0
3, 529774, Note_on_c, 0, 83, 62
3, 529888, Control_c, 0, 64, 0
3, 529931, Note_on_c, 0, 83, 0
3, 530007, Note_on_c, 0, 53, 31
3, 530018, Note_on_c, 0, 84, 72
3, 530448, Note_on_c, 0, 63, 33
3, 530877, Note_on_c, 0, 84, 0
3, 530960, Note_on_c, 0, 65, 32
3, 532213, Note_on_c, 0, 89, 90
3, 532364, Note_on_c, 0, 89, 0
3, 532591, Note_on_c, 0, 87, 80
3, 532737, Note_on_c, 0, 87, 0
3, 532907, Note_on_c, 0, 86, 79
3, 533056, Note_on_c, 0, 86, 0
3, 533232, Note_on_c, 0, 84, 72
3, 533404, Note_on_c, 0, 84, 0
3, 533436, Note_on_c, 0, 63, 0
3, 533551, Note_on_c, 0, 82, 65
3, 533552, Note_on_c, 0, 65, 0
3, 533708, Note_on_c, 0, 82, 0
3, 533771, Note_on_c, 0, 81, 64
3, 533817, Note_on_c, 0, 53, 0
3, 533856, Note_on_c, 0, 65, 34
3, 533862, Note_on_c, 0, 62, 27
3, 533867, Note_on_c, 0, 60, 29
3, 533926, Note_on_c, 0, 81, 0
3, 534026, Note_on_c, 0, 84, 67
3, 534227, Note_on_c, 0, 65, 0
3, 534234, Note_on_c, 0, 84, 0
3, 534282, Note_on_c, 0, 81, 68
3, 534408, Note_on_c, 0, 81, 0
3, 534487, Note_on_c, 0, 82, 69
3, 534519, Note_on_c, 0, 53, 26
3, 534690, Note_on_c, 0, 82, 0
3, 534722, Note_on_c, 0, 77, 54
3, 534784, Note_on_c, 0, 60, 0
3, 534887, Note_on_c, 0, 77, 0
3, 535057, Note_on_c, 0, 62, 0
3, 535176, Note_on_c, 0, 74, 59
3, 535335, Note_on_c, 0, 74, 0
3, 535436, Note_on_c, 0, 72, 51
3, 535553, Note_on_c, 0, 72, 0
3, 535667, Note_on_c, 0, 75, 75
3, 535735, Note_on_c, 0, 62, 25
3, 535737, Note_on_c, 0, 65, 22
3, 535833, Note_on_c, 0, 65, 0
3, 535854, Note_on_c, 0, 62, 0
3, 535891, Note_on_c, 0, 73, 43
3, 535902, Note_on_c, 0, 75, 0
3, 536010, Note_on_c, 0, 73, 0
3, 536102, Note_on_c, 0, 74, 75
3, 536154, Note_on_c, 0, 65, 29
3, 536239, Note_on_c, 0, 65, 0
3, 536340, Note_on_c, 0, 72, 62
3, 536448, Note_on_c, 0, 74, 0
3, 536499, Note_on_c, 0, 72, 0
3, 536565, Note_on_c, 0, 69, 61
3, 536591, Note_on_c, 0, 62, 38
3, 536622, Note_on_c, 0, 60, 36
3, 536792, Note_on_c, 0, 69, 0
3, 536796, Note_on_c, 0, 53, 0
3, 536832, Note_on_c, 0, 65, 45
3, 536974, Note_on_c, 0, 65, 0
3, 537067, Note_on_c, 0, 69, 58
3, 537080, Note_on_c, 0, 53, 40
3, 537112, Control_c, 0, 64, 127
3, 537140, Note_on_c, 0, 60, 0
3, 537177, Note_on_c, 0, 62, 0
3, 537283, Note_on_c, 0, 70, 62
3, 537309, Note_on_c, 0, 69, 0
3, 537434, Note_on_c, 0, 70, 0
3, 537478, Note_on_c, 0, 71, 48
3, 537585, Note_on_c, 0, 72, 59
3, 537616, Note_on_c, 0, 53, 0
3, 537633, Note_on_c, 0, 71, 0
3, 537675, Control_c, 0, 64, 0
3, 537720, Note_on_c, 0, 62, 36
3, 537751, Note_on_c, 0, 56, 28
3, 537771, Note_on_c, 0, 59, 31
3, 537797, Note_on_c, 0, 74, 71
3, 537879, Note_on_c, 0, 72, 0
3, 538056, Note_on_c, 0, 74, 0
3, 538184, Note_on_c, 0, 74, 51
3, 538351, Note_on_c, 0, 74, 0
3, 538499, Note_on_c, 0, 74, 62
3, 538625, Control_c, 0, 64, 127
3, 538780, Note_on_c, 0, 59, 0
3, 538897, Note_on_c, 0, 62, 0
3, 538960, Note_on_c, 0, 74, 0
3, 539022, Note_on_c, 0, 59, 29
3, 539038, Note_on_c, 0, 62, 27
3, 539264, Note_on_c, 0, 62, 0
3, 539432, Control_c, 0, 64, 0
3, 539470, Note_on_c, 0, 77, 33
3, 539526, Note_on_c, 0, 77, 0
3, 539532, Note_on_c, 0, 80, 69
3, 539650, Note_on_c, 0, 77, 36
3, 539726, Note_on_c, 0, 80, 0
3, 539751, Note_on_c, 0, 77, 0
3, 539787, Note_on_c, 0, 74, 46
3, 539898, Note_on_c, 0, 74, 0
3, 539907, Note_on_c, 0, 59, 0
3, 539929, Note_on_c, 0, 73, 46
3, 540035, Note_on_c, 0, 72, 51
3, 540097, Note_on_c, 0, 73, 0
3, 540145, Note_on_c, 0, 72, 0
3, 540195, Note_on_c, 0, 71, 49
3, 540386, Note_on_c, 0, 70, 35
3, 540387, Note_on_c, 0, 71, 0
3, 540473, Note_on_c, 0, 62, 35
3, 540483, Note_on_c, 0, 59, 26
3, 540524, Note_on_c, 0, 70, 0
3, 540824, Note_on_c, 0, 69, 68
3, 540928, Note_on_c, 0, 62, 0
3, 541002, Note_on_c, 0, 69, 0
3, 541049, Note_on_c, 0, 68, 56
3, 541168, Note_on_c, 0, 68, 0
3, 541217, Control_c, 0, 64, 127
3, 541323, Note_on_c, 0, 65, 35
3, 541382, Control_c, 0, 64, 0
3, 541383, Note_on_c, 0, 59, 0
3, 541443, Note_on_c, 0, 65, 0
3, 541492, Note_on_c, 0, 68, 68
3, 541507, Note_on_c, 0, 56, 0
3, 541891, Note_on_c, 0, 60, 62
3, 541930, Note_on_c, 0, 48, 41
3, 542165, Control_c, 0, 64, 127
3, 542202, Note_on_c, 0, 60, 0
3, 542237, Note_on_c, 0, 65, 66
3, 542289, Note_on_c, 0, 56, 32
3, 542319, Note_on_c, 0, 68, 0
3, 542448, Note_on_c, 0, 65, 0
3, 542524, Note_on_c, 0, 68, 74
3, 542572, Note_on_c, 0, 60, 45
3, 542795, Note_on_c, 0, 56, 0
3, 542816, Note_on_c, 0, 72, 63
3, 542836, Note_on_c, 0, 68, 0
3, 542942, Note_on_c, 0, 72, 0
3, 543092, Note_on_c, 0, 60, 0
3, 543128, Note_on_c, 0, 56, 36
3, 543129, Note_on_c, 0, 72, 61
3, 543141, Note_on_c, 0, 84, 70
3, 543187, Note_on_c, 0, 72, 0
3, 543239, Note_on_c, 0, 84, 0
3, 543445, Note_on_c, 0, 89, 77
3, 543450, Note_on_c, 0, 77, 79
3, 543457, Note_on_c, 0, 60, 38
3, 543493, Note_on_c, 0, 85, 32
3, 543559, Note_on_c, 0, 85, 0
3, 543658, Note_on_c, 0, 89, 0
3, 543659, Note_on_c, 0, 77, 0
3, 543664, Note_on_c, 0, 60, 0
3, 543687, Note_on_c, 0, 56, 0
3, 543837, Note_on_c, 0, 60, 44
3, 543842, Note_on_c, 0, 56, 43
3, 543854, Note_on_c, 0, 80, 63
3, 543861, Note_on_c, 0, 92, 59
3, 543960, Note_on_c, 0, 60, 0
3, 543982, Note_on_c, 0, 80, 0
3, 544014, Note_on_c, 0, 92, 0
3, 544034, Note_on_c, 0, 56, 0
3, 544165, Note_on_c, 0, 56, 37
3, 544166, Note_on_c, 0, 92, 60
3, 544167, Note_on_c, 0, 60, 44
3, 544168, Note_on_c, 0, 80, 58
3, 544249, Note_on_c, 0, 60, 0
3, 544277, Note_on_c, 0, 80, 0
3, 544291, Note_on_c, 0, 56, 0
3, 544302, Note_on_c, 0, 92, 0
3, 544448, Note_on_c, 0, 96, 66
3, 544449, Note_on_c, 0, 84, 78
3, 544450, Note_on_c, 0, 60, 52
3, 544453, Note_on_c, 0, 56, 46
3, 544481, Note_on_c, 0, 95, 30
3, 544528, Note_on_c, 0, 95, 0
3, 544554, Note_on_c, 0, 60, 0
3, 544596, Note_on_c, 0, 96, 0
3, 544604, Note_on_c, 0, 84, 0
3, 544619, Note_on_c, 0, 56, 0
3, 544721, Note_on_c, 0, 56, 48
3, 544738, Note_on_c, 0, 60, 47
3, 544744, Note_on_c, 0, 96, 52
3, 544757, Note_on_c, 0, 84, 64
3, 544823, Note_on_c, 0, 60, 0
3, 544870, Note_on_c, 0, 96, 0
3, 544876, Note_on_c, 0, 56, 0
3, 544878, Note_on_c, 0, 84, 0
3, 544966, Note_on_c, 0, 48, 0
3, 545027, Note_on_c, 0, 56, 57
3, 545054, Note_on_c, 0, 96, 69
3, 545058, Note_on_c, 0, 84, 62
3, 545180, Note_on_c, 0, 84, 0
3, 545217, Note_on_c, 0, 96, 0
3, 545300, Note_on_c, 0, 56, 0
3, 545388, Control_c, 0, 64, 0
3, 545405, Note_on_c, 0, 97, 83
3, 545411, Note_on_c, 0, 85, 87
3, 545413, Note_on_c, 0, 49, 77
3, 545620, Control_c, 0, 64, 127
3, 545704, Note_on_c, 0, 97, 0
3, 545788, Note_on_c, 0, 85, 0
3, 545891, Note_on_c, 0, 53, 38
3, 546288, Note_on_c, 0, 70, 59
3, 546298, Note_on_c, 0, 61, 51
3, 546301, Control_c, 0, 64, 0
3, 546304, Note_on_c, 0, 65, 61
3, 546310, Note_on_c, 0, 58, 61
3, 546493, Control_c, 0, 64, 127
3, 546707, Note_on_c, 0, 58, 0
3, 546716, Note_on_c, 0, 53, 0
3, 546831, Note_on_c, 0, 60, 79
3, 547066, Note_on_c, 0, 65, 0
3, 547155, Note_on_c, 0, 61, 0
3, 547207, Note_on_c, 0, 60, 0
3, 547276, Note_on_c, 0, 58, 59
3, 547283, Note_on_c, 0, 61, 65
3, 547293, Note_on_c, 0, 65, 58
3, 547301, Control_c, 0, 64, 0
3, 547511, Note_on_c, 0, 49, 0
3, 547699, Control_c, 0, 64, 127
3, 547740, Note_on_c, 0, 49, 71
3, 547998, Note_on_c, 0, 61, 0
3, 548244, Note_on_c, 0, 61, 56
3, 548259, Note_on_c, 0, 49, 0
3, 548693, Note_on_c, 0, 58, 0
3, 548711, Note_on_c, 0, 49, 64
3, 548746, Note_on_c, 0, 70, 0
3, 548752, Note_on_c, 0, 65, 0
3, 548784, Note_on_c, 0, 61, 0
3, 548894, Note_on_c, 0, 49, 0
3, 549173, Control_c, 0, 64, 0
3, 549198, Note_on_c, 0, 48, 70
3, 549203, Note_on_c, 0, 64, 73
3, 549205, Note_on_c, 0, 67, 67
3, 549210, Note_on_c, 0, 58, 77
3, 549373, Note_on_c, 0, 58, 0
3, 549418, Control_c, 0, 64, 127
3, 549550, Note_on_c, 0, 67, 0
3, 549605, Note_on_c, 0, 64, 0
3, 549667, Note_on_c, 0, 55, 54
3, 550106, Note_on_c, 0, 55, 0
3, 550128, Note_on_c, 0, 48, 0
3, 550150, Note_on_c, 0, 60, 56
3, 550260, Note_on_c, 0, 60, 0
3, 550663, Note_on_c, 0, 62, 20
3, 551060, Note_on_c, 0, 62, 0
3, 551129, Note_on_c, 0, 76, 66
3, 551138, Control_c, 0, 64, 0
3, 551139, Note_on_c, 0, 67, 62
3, 551141, Note_on_c, 0, 64, 43
3, 551142, Note_on_c, 0, 79, 57
3, 551407, Control_c, 0, 64, 127
3, 551436, Note_on_c, 0, 79, 0
3, 551504, Note_on_c, 0, 76, 0
3, 551523, Note_on_c, 0, 67, 0
3, 551584, Note_on_c, 0, 64, 0
3, 551671, Note_on_c, 0, 77, 57
3, 551672, Note_on_c, 0, 62, 41
3, 551673, Note_on_c, 0, 67, 41
3, 551676, Control_c, 0, 64, 0
3, 551765, Control_c, 0, 64, 127
3, 551822, Note_on_c, 0, 77, 0
3, 551873, Note_on_c, 0, 67, 0
3, 552232, Note_on_c, 0, 62, 0
3, 552510, Note_on_c, 0, 76, 56
3, 552527, Note_on_c, 0, 70, 61
3, 552547, Note_on_c, 0, 60, 28
3, 552609, Note_on_c, 0, 60, 0
3, 552647, Note_on_c, 0, 76, 0
3, 552674, Note_on_c, 0, 70, 0
3, 553009, Control_c, 0, 64, 0
3, 553027, Note_on_c, 0, 66, 52
3, 553038, Note_on_c, 0, 72, 53
3, 553043, Note_on_c, 0, 48, 34
3, 553066, Note_on_c, 0, 57, 36
3, 553068, Note_on_c, 0, 60, 43
3, 553075, Note_on_c, 0, 66, 0
3, 553086, Note_on_c, 0, 65, 55
3, 553451, Note_on_c, 0, 48, 0
3, 553459, Control_c, 0, 64, 127
3, 553546, Note_on_c, 0, 48, 49
3, 553556, Note_on_c, 0, 60, 0
3, 553702, Note_on_c, 0, 72, 0
3, 553751, Note_on_c, 0, 65, 0
3, 553824, Note_on_c, 0, 57, 0
3, 554448, Control_c, 0, 64, 0
3, 554471, Note_on_c, 0, 60, 49
3, 554478, Note_on_c, 0, 57, 40
3, 554487, Note_on_c, 0, 69, 50
3, 554574, Control_c, 0, 64, 127
3, 554670, Note_on_c, 0, 57, 0
3, 554677, Note_on_c, 0, 60, 0
3, 554877, Note_on_c, 0, 69, 0
3, 554909, Control_c, 0, 64, 0
3, 554960, Note_on_c, 0, 65, 40
3, 554979, Note_on_c, 0, 60, 44
3, 554987, Note_on_c, 0, 57, 36
3, 555128, Control_c, 0, 64, 127
3, 555185, Note_on_c, 0, 48, 0
3, 555313, Note_on_c, 0, 60, 0
3, 555409, Note_on_c, 0, 48, 44
3, 555576, Note_on_c, 0, 65, 0
3, 555763, Note_on_c, 0, 48, 0
3, 556224, Note_on_c, 0, 57, 0
3, 556326, Note_on_c, 0, 48, 51
3, 556728, Note_on_c, 0, 70, 50
3, 556782, Note_on_c, 0, 58, 25
3, 556796, Control_c, 0, 64, 0
3, 556808, Note_on_c, 0, 76, 64
3, 556821, Note_on_c, 0, 60, 45
3, 556892, Note_on_c, 0, 82, 65
3, 557090, Control_c, 0, 64, 127
3, 557378, Note_on_c, 0, 58, 0
3, 557551, Note_on_c, 0, 48, 0
3, 558227, Note_on_c, 0, 70, 0
3, 558236, Note_on_c, 0, 48, 40
3, 558283, Note_on_c, 0, 76, 0
3, 558310, Note_on_c, 0, 48, 0
3, 558325, Note_on_c, 0, 82, 0
3, 558385, Note_on_c, 0, 60, 0
3, 558745, Control_c, 0, 64, 0
3, 558748, Note_on_c, 0, 82, 83
3, 558754, Note_on_c, 0, 76, 80
3, 558755, Note_on_c, 0, 60, 58
3, 558757, Note_on_c, 0, 70, 82
3, 558759, Note_on_c, 0, 58, 69
3, 558992, Control_c, 0, 64, 127
3, 559174, Note_on_c, 0, 70, 0
3, 559188, Note_on_c, 0, 58, 0
3, 559206, Note_on_c, 0, 60, 0
3, 559210, Note_on_c, 0, 76, 0
3, 559239, Note_on_c, 0, 82, 0
3, 559454, Control_c, 0, 64, 0
3, 559464, Note_on_c, 0, 76, 66
3, 559471, Note_on_c, 0, 81, 66
3, 559480, Note_on_c, 0, 69, 62
3, 559484, Note_on_c, 0, 58, 57
3, 559490, Note_on_c, 0, 60, 36
3, 559516, Note_on_c, 0, 78, 28
3, 559564, Note_on_c, 0, 78, 0
3, 559710, Control_c, 0, 64, 127
3, 559737, Note_on_c, 0, 76, 0
3, 559783, Note_on_c, 0, 81, 0
3, 559845, Note_on_c, 0, 58, 0
3, 559848, Note_on_c, 0, 60, 0
3, 559880, Note_on_c, 0, 69, 0
3, 560154, Note_on_c, 0, 74, 38
3, 560162, Note_on_c, 0, 60, 36
3, 560166, Note_on_c, 0, 79, 22
3, 560172, Note_on_c, 0, 58, 37
3, 560238, Note_on_c, 0, 60, 0
3, 560247, Note_on_c, 0, 74, 0
3, 560295, Note_on_c, 0, 79, 0
3, 560296, Note_on_c, 0, 58, 0
3, 560698, Control_c, 0, 64, 0
3, 560737, Note_on_c, 0, 91, 58
3, 560744, Note_on_c, 0, 64, 44
3, 560748, Note_on_c, 0, 88, 51
3, 560750, Note_on_c, 0, 58, 45
3, 560759, Note_on_c, 0, 79, 35
3, 560967, Control_c, 0, 64, 127
3, 561073, Note_on_c, 0, 91, 0
3, 561075, Note_on_c, 0, 88, 0
3, 561112, Note_on_c, 0, 58, 0
3, 561136, Note_on_c, 0, 79, 0
3, 561256, Note_on_c, 0, 64, 0
3, 561546, Control_c, 0, 64, 0
3, 561547, Note_on_c, 0, 88, 52
3, 561562, Note_on_c, 0, 64, 48
3, 561569, Note_on_c, 0, 58, 38
3, 561571, Note_on_c, 0, 76, 30
3, 561580, Note_on_c, 0, 84, 32
3, 561596, Note_on_c, 0, 60, 33
3, 561678, Control_c, 0, 64, 127
3, 561922, Note_on_c, 0, 88, 0
3, 561950, Note_on_c, 0, 64, 0
3, 561994, Note_on_c, 0, 84, 0
3, 562072, Note_on_c, 0, 58, 0
3, 562077, Note_on_c, 0, 76, 0
3, 562086, Note_on_c, 0, 60, 0
3, 562579, Note_on_c, 0, 72, 46
3, 562581, Note_on_c, 0, 64, 38
3, 562592, Note_on_c, 0, 84, 35
3, 562607, Note_on_c, 0, 58, 32
3, 562613, Control_c, 0, 64, 0
3, 562630, Note_on_c, 0, 60, 32
3, 562741, Control_c, 0, 64, 127
3, 563139, Note_on_c, 0, 60, 0
3, 563150, Note_on_c, 0, 64, 0
3, 563173, Note_on_c, 0, 58, 0
3, 563276, Note_on_c, 0, 84, 0
3, 563477, Note_on_c, 0, 72, 0
3, 564446, Note_on_c, 0, 62, 36
3, 564450, Control_c, 0, 64, 0
3, 564476, Note_on_c, 0, 56, 35
3, 564492, Note_on_c, 0, 59, 36
3, 564506, Note_on_c, 0, 53, 22
3, 564666, Control_c, 0, 64, 127
3, 564751, Note_on_c, 0, 62, 0
3, 564766, Note_on_c, 0, 59, 0
3, 564884, Note_on_c, 0, 56, 0
3, 566014, Note_on_c, 0, 59, 34
3, 566021, Note_on_c, 0, 62, 29
3, 566283, Control_c, 0, 64, 0
3, 566306, Note_on_c, 0, 77, 35
3, 566360, Note_on_c, 0, 77, 0
3, 566400, Note_on_c, 0, 80, 63
3, 566516, Note_on_c, 0, 77, 51
3, 566603, Note_on_c, 0, 80, 0
3, 566631, Note_on_c, 0, 77, 0
3, 566636, Note_on_c, 0, 62, 0
3, 566670, Note_on_c, 0, 74, 54
3, 566776, Note_on_c, 0, 74, 0
3, 566818, Note_on_c, 0, 73, 37
3, 566913, Note_on_c, 0, 59, 0
3, 566918, Note_on_c, 0, 72, 37
3, 566958, Note_on_c, 0, 73, 0
3, 567009, Note_on_c, 0, 72, 0
3, 567054, Note_on_c, 0, 71, 49
3, 567147, Note_on_c, 0, 71, 0
3, 567196, Note_on_c, 0, 70, 37
3, 567307, Note_on_c, 0, 70, 0
3, 567352, Note_on_c, 0, 69, 31
3, 567462, Note_on_c, 0, 69, 0
3, 567470, Note_on_c, 0, 68, 53
3, 567631, Note_on_c, 0, 68, 0
3, 567664, Note_on_c, 0, 65, 49
3, 567778, Note_on_c, 0, 65, 0
3, 567831, Note_on_c, 0, 62, 34
3, 567960, Note_on_c, 0, 62, 0
3, 567992, Note_on_c, 0, 61, 25
3, 567994, Note_on_c, 0, 53, 0
3, 568060, Note_on_c, 0, 61, 0
3, 568322, Control_c, 0, 64, 127
3, 568334, Note_on_c, 0, 60, 26
3, 568386, Control_c, 0, 64, 0
3, 568391, Note_on_c, 0, 60, 0
3, 568456, Note_on_c, 0, 62, 46
3, 568865, Note_on_c, 0, 48, 29
3, 568885, Note_on_c, 0, 60, 45
3, 568944, Note_on_c, 0, 62, 0
3, 569182, Control_c, 0, 64, 127
3, 569346, Note_on_c, 0, 57, 56
3, 569598, Note_on_c, 0, 57, 0
3, 569655, Note_on_c, 0, 48, 0
3, 569689, Note_on_c, 0, 60, 0
3, 569845, Note_on_c, 0, 48, 45
3, 570293, Note_on_c, 0, 57, 49
3, 570699, Note_on_c, 0, 57, 0
3, 570780, Note_on_c, 0, 77, 79
3, 570785, Note_on_c, 0, 69, 80
3, 570810, Note_on_c, 0, 57, 42
3, 570993, Note_on_c, 0, 77, 0
3, 571037, Note_on_c, 0, 69, 0
3, 571082, Note_on_c, 0, 57, 0
3, 571261, Note_on_c, 0, 72, 53
3, 571284, Note_on_c, 0, 57, 43
3, 571505, Note_on_c, 0, 57, 0
3, 571569, Note_on_c, 0, 72, 0
3, 571592, Note_on_c, 0, 48, 0
3, 571712, Note_on_c, 0, 69, 55
3, 571751, Note_on_c, 0, 57, 26
3, 571759, Note_on_c, 0, 48, 37
3, 571875, Note_on_c, 0, 69, 0
3, 571879, Note_on_c, 0, 57, 0
3, 571892, Note_on_c, 0, 48, 0
3, 572243, Note_on_c, 0, 67, 58
3, 572244, Note_on_c, 0, 62, 49
3, 572264, Note_on_c, 0, 48, 42
3, 572273, Control_c, 0, 64, 0
3, 572280, Note_on_c, 0, 58, 38
3, 572672, Control_c, 0, 64, 127
3, 573126, Note_on_c, 0, 58, 0
3, 573184, Note_on_c, 0, 62, 0
3, 573440, Note_on_c, 0, 67, 0
3, 573475, Note_on_c, 0, 48, 0
3, 573756, Note_on_c, 0, 48, 42
3, 574174, Control_c, 0, 64, 0
3, 574183, Note_on_c, 0, 74, 64
3, 574214, Note_on_c, 0, 58, 42
3, 574223, Note_on_c, 0, 67, 49
3, 574227, Note_on_c, 0, 70, 50
3, 574228, Note_on_c, 0, 62, 49
3, 574392, Control_c, 0, 64, 127
3, 574411, Note_on_c, 0, 74, 0
3, 574414, Note_on_c, 0, 62, 0
3, 574544, Note_on_c, 0, 67, 0
3, 574568, Note_on_c, 0, 70, 0
3, 574588, Note_on_c, 0, 58, 0
3, 574853, Note_on_c, 0, 76, 79
3, 574874, Note_on_c, 0, 58, 33
3, 575255, Note_on_c, 0, 58, 0
3, 575262, Note_on_c, 0, 48, 0
3, 575339, Note_on_c, 0, 76, 0
3, 575563, Note_on_c, 0, 74, 66
3, 575595, Note_on_c, 0, 48, 34
3, 575703, Note_on_c, 0, 74, 0
3, 575745, Note_on_c, 0, 48, 0
3, 576034, Control_c, 0, 64, 0
3, 576094, Note_on_c, 0, 72, 49
3, 576101, Note_on_c, 0, 67, 50
3, 576104, Note_on_c, 0, 64, 46
3, 576116, Note_on_c, 0, 48, 29
3, 576160, Note_on_c, 0, 64, 0
3, 576189, Note_on_c, 0, 48, 0
3, 576213, Control_c, 0, 64, 127
3, 576215, Note_on_c, 0, 67, 0
3, 576227, Note_on_c, 0, 72, 0
3, 576624, Control_c, 0, 64, 0
3, 576633, Note_on_c, 0, 70, 59
3, 576640, Note_on_c, 0, 79, 63
3, 576656, Note_on_c, 0, 64, 41
3, 576741, Control_c, 0, 64, 127
3, 576800, Note_on_c, 0, 79, 0
3, 576838, Note_on_c, 0, 70, 0
3, 577157, Note_on_c, 0, 64, 0
3, 577201, Control_c, 0, 64, 0
3, 577255, Note_on_c, 0, 76, 51
3, 577273, Note_on_c, 0, 60, 40
3, 577278, Control_c, 0, 64, 127
3, 577280, Note_on_c, 0, 67, 51
3, 577384, Note_on_c, 0, 76, 0
3, 577440, Note_on_c, 0, 67, 0
3, 577809, Note_on_c, 0, 60, 0
3, 577817, Control_c, 0, 64, 0
3, 577875, Note_on_c, 0, 72, 50
3, 577877, Note_on_c, 0, 64, 61
3, 577880, Note_on_c, 0, 58, 46
3, 577971, Control_c, 0, 64, 127
3, 577985, Note_on_c, 0, 72, 0
3, 578007, Note_on_c, 0, 58, 0
3, 578045, Note_on_c, 0, 64, 0
3, 578405, Note_on_c, 0, 70, 37
3, 578407, Control_c, 0, 64, 0
3, 578435, Note_on_c, 0, 64, 53
3, 578440, Note_on_c, 0, 55, 39
3, 578510, Control_c, 0, 64, 127
3, 578552, Note_on_c, 0, 70, 0
3, 578574, Note_on_c, 0, 64, 0
3, 579038, Note_on_c, 0, 55, 0
3, 579151, Note_on_c, 0, 52, 26
3, 579164, Note_on_c, 0, 67, 51
3, 579182, Note_on_c, 0, 58, 35
3, 579191, Control_c, 0, 64, 0
3, 579279, Control_c, 0, 64, 127
3, 579284, Note_on_c, 0, 52, 0
3, 579301, Note_on_c, 0, 58, 0
3, 579322, Note_on_c, 0, 67, 0
3, 579386, Note_on_c, 0, 64, 43
3, 579426, Note_on_c, 0, 58, 21
3, 579494, Note_on_c, 0, 58, 0
3, 579530, Note_on_c, 0, 64, 0
3, 579782, Note_on_c, 0, 57, 51
3, 579795, Note_on_c, 0, 65, 31
3, 579796, Note_on_c, 0, 41, 28
3, 579805, Control_c, 0, 64, 0
3, 579836, Note_on_c, 0, 53, 15
3, 579897, Note_on_c, 0, 48, 18
3, 580256, Control_c, 0, 64, 127
3, 580577, Note_on_c, 0, 48, 0
3, 580876, Note_on_c, 0, 57, 0
3, 580920, Note_on_c, 0, 65, 0
3, 581120, Note_on_c, 0, 53, 0
3, 581160, Note_on_c, 0, 41, 0
3, 581809, Note_on_c, 0, 41, 31
3, 581854, Note_on_c, 0, 48, 19
3, 582680, Note_on_c, 0, 69, 74
3, 582891, Note_on_c, 0, 68, 58
3, 582894, Note_on_c, 0, 69, 0
3, 583100, Note_on_c, 0, 68, 0
3, 583101, Note_on_c, 0, 41, 0
3, 583127, Note_on_c, 0, 69, 62
3, 583165, Note_on_c, 0, 48, 0
3, 583316, Note_on_c, 0, 69, 0
3, 583360, Note_on_c, 0, 67, 39
3, 583398, Control_c, 0, 64, 0
3, 583475, Control_c, 0, 64, 127
3, 583530, Note_on_c, 0, 67, 0
3, 583576, Note_on_c, 0, 69, 54
3, 583782, Control_c, 0, 64, 0
3, 583783, Note_on_c, 0, 69, 0
3, 583810, Note_on_c, 0, 65, 54
3, 583866, Note_on_c, 0, 58, 25
3, 583869, Note_on_c, 0, 62, 26
3, 584089, Note_on_c, 0, 69, 48
3, 584096, Note_on_c, 0, 53, 1
3, 584122, Note_on_c, 0, 62, 0
3, 584249, Note_on_c, 0, 65, 0
3, 584261, Note_on_c, 0, 58, 0
3, 584267, Note_on_c, 0, 69, 0
3, 584348, Note_on_c, 0, 62, 33
3, 584501, Control_c, 0, 64, 127
3, 584564, Note_on_c, 0, 62, 0
3, 584693, Control_c, 0, 64, 0
3, 584801, Note_on_c, 0, 58, 59
3, 585155, Control_c, 0, 64, 127
3, 585303, Note_on_c, 0, 58, 0
3, 585649, Note_on_c, 0, 62, 31
3, 585664, Note_on_c, 0, 58, 37
3, 586144, Control_c, 0, 64, 0
3, 586278, Note_on_c, 0, 69, 83
3, 586490, Note_on_c, 0, 69, 0
3, 586516, Note_on_c, 0, 68, 62
3, 586520, Note_on_c, 0, 53, 0
3, 586654, Note_on_c, 0, 62, 0
3, 586671, Note_on_c, 0, 68, 0
3, 586748, Note_on_c, 0, 69, 56
3, 586758, Note_on_c, 0, 62, 31
3, 586923, Note_on_c, 0, 69, 0
3, 586946, Note_on_c, 0, 62, 0
3, 586973, Note_on_c, 0, 67, 51
3, 587132, Note_on_c, 0, 67, 0
3, 587202, Note_on_c, 0, 69, 65
3, 587264, Note_on_c, 0, 58, 0
3, 587398, Note_on_c, 0, 60, 34
3, 587408, Note_on_c, 0, 69, 0
3, 587409, Note_on_c, 0, 58, 21
3, 587427, Note_on_c, 0, 52, 26
3, 587686, Note_on_c, 0, 69, 63
3, 587836, Note_on_c, 0, 69, 0
3, 587898, Note_on_c, 0, 60, 0
3, 587907, Note_on_c, 0, 64, 58
3, 588106, Note_on_c, 0, 64, 0
3, 588108, Note_on_c, 0, 58, 0
3, 588148, Note_on_c, 0, 67, 54
3, 588330, Note_on_c, 0, 67, 0
3, 588417, Note_on_c, 0, 58, 27
3, 588442, Note_on_c, 0, 60, 25
3, 588456, Note_on_c, 0, 62, 22
3, 588537, Note_on_c, 0, 60, 0
3, 588588, Note_on_c, 0, 62, 0
3, 588656, Note_on_c, 0, 52, 0
3, 588669, Note_on_c, 0, 64, 43
3, 588762, Note_on_c, 0, 58, 0
3, 588837, Note_on_c, 0, 64, 0
3, 588906, Note_on_c, 0, 60, 42
3, 588920, Note_on_c, 0, 52, 25
3, 588922, Note_on_c, 0, 58, 21
3, 589255, Note_on_c, 0, 52, 0
3, 589314, Note_on_c, 0, 60, 0
3, 589431, Note_on_c, 0, 60, 47
3, 589441, Note_on_c, 0, 52, 33
3, 589788, Control_c, 0, 64, 127
3, 590108, Note_on_c, 0, 58, 0
3, 590421, Note_on_c, 0, 58, 39
3, 590595, Note_on_c, 0, 52, 0
3, 590899, Note_on_c, 0, 52, 37
3, 590929, Note_on_c, 0, 60, 0
3, 591104, Note_on_c, 0, 52, 0
3, 591185, Note_on_c, 0, 58, 0
3, 591377, Control_c, 0, 64, 0
3, 591413, Note_on_c, 0, 53, 27
3, 591418, Note_on_c, 0, 60, 52
3, 591564, Note_on_c, 0, 60, 0
3, 591598, Note_on_c, 0, 62, 35
3, 591683, Note_on_c, 0, 60, 40
3, 591741, Note_on_c, 0, 62, 0
3, 591831, Note_on_c, 0, 59, 54
3, 591865, Note_on_c, 0, 60, 0
3, 592088, Note_on_c, 0, 59, 0
3, 592124, Note_on_c, 0, 60, 59
3, 592241, Note_on_c, 0, 60, 0
3, 592322, Note_on_c, 0, 65, 76
3, 592583, Control_c, 0, 64, 127
3, 592687, Control_c, 0, 64, 0
3, 592719, Note_on_c, 0, 65, 0
3, 592746, Note_on_c, 0, 60, 25
3, 592785, Note_on_c, 0, 64, 62
3, 592961, Note_on_c, 0, 60, 0
3, 593073, Note_on_c, 0, 65, 64
3, 593079, Note_on_c, 0, 64, 0
3, 593168, Note_on_c, 0, 65, 0
3, 593168, Note_on_c, 0, 60, 17
3, 593277, Note_on_c, 0, 69, 72
3, 593315, Note_on_c, 0, 65, 37
3, 593701, Note_on_c, 0, 69, 0
3, 593707, Note_on_c, 0, 68, 46
3, 593789, Note_on_c, 0, 65, 0
3, 593920, Note_on_c, 0, 68, 0
3, 593943, Note_on_c, 0, 69, 43
3, 594106, Note_on_c, 0, 69, 0
3, 594169, Note_on_c, 0, 72, 53
3, 594172, Note_on_c, 0, 65, 37
3, 594428, Note_on_c, 0, 53, 0
3, 594667, Note_on_c, 0, 53, 36
3, 594691, Note_on_c, 0, 72, 0
3, 594855, Note_on_c, 0, 53, 0
3, 594881, Note_on_c, 0, 65, 0
3, 594896, Note_on_c, 0, 60, 0
3, 595178, Note_on_c, 0, 74, 93
3, 595202, Note_on_c, 0, 60, 43
3, 595205, Note_on_c, 0, 53, 47
3, 595219, Note_on_c, 0, 74, 0
3, 595677, Note_on_c, 0, 72, 68
3, 595718, Note_on_c, 0, 72, 0
3, 596168, Note_on_c, 0, 69, 70
3, 596211, Control_c, 0, 64, 24
3, 596231, Control_c, 0, 64, 40
3, 596252, Control_c, 0, 64, 56
3, 596267, Control_c, 0, 64, 72
3, 596293, Control_c, 0, 64, 88
3, 596323, Control_c, 0, 64, 104
3, 596354, Control_c, 0, 64, 127
3, 596605, Note_on_c, 0, 69, 0
3, 596636, Note_on_c, 0, 60, 0
3, 596661, Note_on_c, 0, 65, 53
3, 596774, Note_on_c, 0, 53, 0
3, 597085, Note_on_c, 0, 65, 0
3, 597155, Note_on_c, 0, 60, 50
3, 599037, Control_c, 0, 64, 104
3, 599047, Control_c, 0, 64, 88
3, 599054, Note_on_c, 0, 41, 49
3, 599064, Control_c, 0, 64, 72
3, 599078, Control_c, 0, 64, 56
3, 599093, Control_c, 0, 64, 40
3, 599134, Control_c, 0, 64, 24
3, 599182, Control_c, 0, 64, 40
3, 599411, Control_c, 0, 64, 56
3, 599482, Control_c, 0, 64, 72
3, 599518, Control_c, 0, 64, 88
3, 599550, Control_c, 0, 64, 104
3, 599580, Control_c, 0, 64, 127
3, 599685, Note_on_c, 0, 60, 0
3, 599989, Control_c, 0, 64, 104
3, 600000, Control_c, 0, 64, 88
3, 600010, Control_c, 0, 64, 72
3, 600020, Note_on_c, 0, 58, 92
3, 600021, Control_c, 0, 64, 56
3, 600037, Control_c, 0, 64, 40
3, 600051, Control_c, 0, 64, 24
3, 600078, Control_c, 0, 64, 0
3, 600285, Note_on_c, 0, 58, 0
3, 600295, Note_on_c, 0, 57, 55
3, 600410, Control_c, 0, 64, 24
3, 600424, Control_c, 0, 64, 40
3, 600435, Note_on_c, 0, 57, 0
3, 600446, Control_c, 0, 64, 56
3, 600462, Control_c, 0, 64, 72
3, 600481, Control_c, 0, 64, 88
3, 600513, Control_c, 0, 64, 104
3, 600518, Note_on_c, 0, 58, 46
3, 600544, Control_c, 0, 64, 127
3, 600609, Note_on_c, 0, 58, 0
3, 600753, Note_on_c, 0, 62, 63
3, 600890, Note_on_c, 0, 62, 0
3, 600906, Control_c, 0, 64, 104
3, 600916, Control_c, 0, 64, 88
3, 600928, Control_c, 0, 64, 72
3, 600938, Control_c, 0, 64, 56
3, 600952, Control_c, 0, 64, 40
3, 600972, Control_c, 0, 64, 24
3, 601012, Note_on_c, 0, 65, 40
3, 601013, Control_c, 0, 64, 0
3, 601026, Note_on_c, 0, 64, 31
3, 601045, Control_c, 0, 64, 24
3, 601099, Note_on_c, 0, 64, 0
3, 601105, Control_c, 0, 64, 40
3, 601131, Note_on_c, 0, 65, 0
3, 601148, Control_c, 0, 64, 56
3, 601182, Control_c, 0, 64, 72
3, 601264, Note_on_c, 0, 69, 76
3, 601364, Note_on_c, 0, 69, 0
3, 601388, Control_c, 0, 64, 56
3, 601404, Control_c, 0, 64, 40
3, 601424, Control_c, 0, 64, 24
3, 601433, Control_c, 0, 64, 0
3, 601455, Note_on_c, 0, 70, 91
3, 601699, Control_c, 0, 64, 24
3, 601721, Control_c, 0, 64, 40
3, 601817, Control_c, 0, 64, 24
3, 601839, Note_on_c, 0, 70, 0
3, 601852, Control_c, 0, 64, 40
3, 601879, Control_c, 0, 64, 56
3, 601895, Control_c, 0, 64, 72
3, 601913, Note_on_c, 0, 72, 88
3, 601914, Note_on_c, 0, 41, 0
3, 601916, Control_c, 0, 64, 88
3, 601941, Control_c, 0, 64, 104
3, 602017, Control_c, 0, 64, 127
3, 602397, Note_on_c, 0, 70, 72
3, 602419, Note_on_c, 0, 72, 0
3, 602823, Note_on_c, 0, 70, 0
3, 602888, Control_c, 0, 64, 104
3, 602891, Note_on_c, 0, 67, 45
3, 602894, Control_c, 0, 64, 88
3, 602904, Control_c, 0, 64, 72
3, 602913, Note_on_c, 0, 64, 48
3, 602914, Control_c, 0, 64, 56
3, 602918, Control_c, 0, 64, 40
3, 602929, Note_on_c, 0, 60, 38
3, 602931, Control_c, 0, 64, 24
3, 602944, Control_c, 0, 64, 0
3, 603109, Control_c, 0, 64, 24
3, 603129, Control_c, 0, 64, 40
3, 603148, Control_c, 0, 64, 56
3, 603165, Control_c, 0, 64, 72
3, 603184, Control_c, 0, 64, 88
3, 603211, Control_c, 0, 64, 104
3, 603240, Control_c, 0, 64, 127
3, 603384, Note_on_c, 0, 48, 44
3, 603390, Note_on_c, 0, 64, 0
3, 603450, Note_on_c, 0, 67, 0
3, 603857, Note_on_c, 0, 76, 71
3, 604102, Note_on_c, 0, 60, 0
3, 604288, Note_on_c, 0, 76, 0
3, 604357, Note_on_c, 0, 67, 47
3, 604514, Note_on_c, 0, 67, 0
3, 604869, Note_on_c, 0, 79, 64
3, 605355, Note_on_c, 0, 48, 0
3, 605886, Note_on_c, 0, 70, 53
3, 606315, Note_on_c, 0, 79, 0
3, 606577, Note_on_c, 0, 70, 0
3, 606821, Note_on_c, 0, 77, 46
3, 606858, Control_c, 0, 64, 104
3, 606862, Control_c, 0, 64, 88
3, 606865, Control_c, 0, 64, 72
3, 606869, Note_on_c, 0, 60, 30
3, 606877, Control_c, 0, 64, 56
3, 606882, Control_c, 0, 64, 40
3, 606888, Note_on_c, 0, 53, 35
3, 606892, Note_on_c, 0, 65, 35
3, 606895, Note_on_c, 0, 69, 41
3, 606900, Control_c, 0, 64, 0
3, 607130, Control_c, 0, 64, 24
3, 607146, Control_c, 0, 64, 40
3, 607161, Control_c, 0, 64, 56
3, 607171, Control_c, 0, 64, 72
3, 607182, Control_c, 0, 64, 88
3, 607192, Control_c, 0, 64, 104
3, 607202, Control_c, 0, 64, 127
3, 607788, Note_on_c, 0, 69, 0
3, 607928, Note_on_c, 0, 77, 0
3, 609006, Note_on_c, 0, 65, 0
3, 609043, Note_on_c, 0, 60, 0
3, 609093, Note_on_c, 0, 53, 0
3, 611482, Control_c, 0, 64, 104
3, 611498, Control_c, 0, 64, 88
3, 611513, Control_c, 0, 64, 72
3, 611528, Control_c, 0, 64, 56
3, 611544, Control_c, 0, 64, 40
3, 611558, Control_c, 0, 64, 24
3, 611575, Control_c, 0, 64, 0
3, 611575, End_track
4, 0, Start_track
4, 0, Title_t, "Bass"
4, 0, Control_c, 1, 0, 0
4, 0, Control_c, 1, 7, 88
4, 1, Control_c, 1, 32, 122
4, 2, Program_c, 1, 35
4, 180476, Note_on_c, 1, 29, 47
4, 183369, Note_on_c, 1, 41, 49
4, 183566, Note_on_c, 1, 41, 0
4, 183836, Note_on_c, 1, 43, 42
4, 183838, Note_on_c, 1, 41, 46
4, 183994, Note_on_c, 1, 43, 0
4, 184192, Note_on_c, 1, 29, 0
4, 184297, Note_on_c, 1, 41, 0
4, 184324, Note_on_c, 1, 29, 36
4, 187676, Note_on_c, 1, 43, 66
4, 188070, Note_on_c, 1, 29, 0
4, 188106, Note_on_c, 1, 43, 0
4, 188151, Note_on_c, 1, 40, 60
4, 188596, Note_on_c, 1, 40, 0
4, 188647, Note_on_c, 1, 28, 49
4, 189028, Note_on_c, 1, 28, 0
4, 189120, Note_on_c, 1, 28, 51
4, 191985, Note_on_c, 1, 28, 0
4, 191996, Note_on_c, 1, 29, 45
4, 192478, Note_on_c, 1, 43, 38
4, 192962, Note_on_c, 1, 45, 57
4, 193003, Note_on_c, 1, 43, 0
4, 195660, Note_on_c, 1, 29, 0
4, 195833, Note_on_c, 1, 29, 79
4, 195857, Note_on_c, 1, 45, 0
4, 196796, Note_on_c, 1, 38, 89
4, 198038, Note_on_c, 1, 29, 0
4, 199680, Note_on_c, 1, 38, 0
4, 199689, Note_on_c, 1, 31, 36
4, 199689, Note_on_c, 1, 29, 58
4, 199825, Note_on_c, 1, 31, 0
4, 200633, Note_on_c, 1, 35, 78
4, 200723, Note_on_c, 1, 29, 0
4, 203455, Note_on_c, 1, 35, 0
4, 203513, Note_on_c, 1, 40, 61
4, 204964, Note_on_c, 1, 38, 59
4, 204973, Note_on_c, 1, 40, 0
4, 205449, Note_on_c, 1, 36, 66
4, 205495, Note_on_c, 1, 38, 0
4, 208071, Note_on_c, 1, 29, 39
4, 208128, Note_on_c, 1, 36, 0
4, 209760, Note_on_c, 1, 40, 53
4, 210205, Note_on_c, 1, 40, 0
4, 210233, Note_on_c, 1, 41, 67
4, 210722, Note_on_c, 1, 40, 64
4, 210747, Note_on_c, 1, 41, 0
4, 210763, Note_on_c, 1, 29, 0
4, 211207, Note_on_c, 1, 38, 62
4, 211243, Note_on_c, 1, 40, 0
4, 214560, Note_on_c, 1, 33, 62
4, 214606, Note_on_c, 1, 38, 0
4, 215049, Note_on_c, 1, 31, 62
4, 215133, Note_on_c, 1, 33, 0
4, 216478, Note_on_c, 1, 45, 50
4, 216670, Note_on_c, 1, 45, 0
4, 216729, Note_on_c, 1, 46, 58
4, 216895, Note_on_c, 1, 46, 0
4, 216956, Note_on_c, 1, 47, 73
4, 218359, Note_on_c, 1, 47, 0
4, 218393, Note_on_c, 1, 43, 41
4, 218788, Note_on_c, 1, 31, 0
4, 218859, Note_on_c, 1, 43, 0
4, 218878, Note_on_c, 1, 36, 64
4, 220316, Note_on_c, 1, 50, 71
4, 220782, Note_on_c, 1, 50, 0
4, 220800, Note_on_c, 1, 48, 49
4, 222791, Note_on_c, 1, 48, 0
4, 223696, Note_on_c, 1, 36, 0
4, 224167, Note_on_c, 1, 36, 80
4, 224400, Note_on_c, 1, 38, 74
4, 224413, Note_on_c, 1, 36, 0
4, 224647, Note_on_c, 1, 39, 85
4, 224722, Note_on_c, 1, 38, 0
4, 226076, Note_on_c, 1, 42, 62
4, 226108, Note_on_c, 1, 39, 0
4, 226478, Note_on_c, 1, 42, 0
4, 226560, Note_on_c, 1, 43, 54
4, 227036, Note_on_c, 1, 43, 0
4, 227044, Note_on_c, 1, 46, 67
4, 227463, Note_on_c, 1, 46, 0
4, 227520, Note_on_c, 1, 46, 68
4, 228004, Note_on_c, 1, 34, 64
4, 228060, Note_on_c, 1, 46, 0
4, 228418, Note_on_c, 1, 34, 0
4, 228482, Note_on_c, 1, 34, 59
4, 231708, Note_on_c, 1, 34, 0
4, 231838, Note_on_c, 1, 33, 69
4, 232280, Note_on_c, 1, 33, 0
4, 232322, Note_on_c, 1, 34, 76
4, 233758, Note_on_c, 1, 32, 62
4, 233771, Note_on_c, 1, 34, 0
4, 234194, Note_on_c, 1, 32, 0
4, 234249, Note_on_c, 1, 33, 71
4, 236633, Note_on_c, 1, 41, 54
4, 237118, Note_on_c, 1, 45, 90
4, 237870, Note_on_c, 1, 33, 0
4, 238133, Note_on_c, 1, 45, 0
4, 238134, Note_on_c, 1, 41, 0
4, 238316, Note_on_c, 1, 33, 66
4, 238790, Note_on_c, 1, 33, 0
4, 238802, Note_on_c, 1, 34, 71
4, 240004, Note_on_c, 1, 45, 55
4, 240480, Note_on_c, 1, 46, 67
4, 240501, Note_on_c, 1, 45, 0
4, 241410, Note_on_c, 1, 34, 0
4, 241449, Note_on_c, 1, 45, 65
4, 241455, Note_on_c, 1, 46, 0
4, 241899, Note_on_c, 1, 45, 0
4, 241918, Note_on_c, 1, 43, 44
4, 244322, Note_on_c, 1, 38, 79
4, 244460, Note_on_c, 1, 43, 0
4, 244793, Note_on_c, 1, 38, 0
4, 244796, Note_on_c, 1, 31, 66
4, 245274, Note_on_c, 1, 31, 0
4, 245276, Note_on_c, 1, 35, 66
4, 245756, Note_on_c, 1, 36, 70
4, 245757, Note_on_c, 1, 35, 0
4, 246482, Note_on_c, 1, 50, 57
4, 246652, Note_on_c, 1, 50, 0
4, 246716, Note_on_c, 1, 48, 46
4, 249048, Note_on_c, 1, 36, 0
4, 249122, Note_on_c, 1, 40, 45
4, 249226, Note_on_c, 1, 48, 0
4, 249594, Note_on_c, 1, 40, 0
4, 249607, Note_on_c, 1, 41, 50
4, 250569, Note_on_c, 1, 29, 50
4, 250634, Note_on_c, 1, 41, 0
4, 253389, Note_on_c, 1, 29, 0
4, 253447, Note_on_c, 1, 41, 61
4, 255849, Note_on_c, 1, 29, 37
4, 256120, Note_on_c, 1, 29, 0
4, 256329, Note_on_c, 1, 29, 52
4, 257186, Note_on_c, 1, 29, 0
4, 257276, Note_on_c, 1, 34, 54
4, 257315, Note_on_c, 1, 41, 0
4, 259678, Note_on_c, 1, 50, 87
4, 260500, Note_on_c, 1, 50, 0
4, 260644, Note_on_c, 1, 48, 66
4, 261098, Note_on_c, 1, 48, 0
4, 261129, Note_on_c, 1, 47, 67
4, 261168, Note_on_c, 1, 34, 0
4, 262313, Note_on_c, 1, 44, 54
4, 262384, Note_on_c, 1, 47, 0
4, 262455, Note_on_c, 1, 44, 0
4, 262556, Note_on_c, 1, 41, 50
4, 263273, Note_on_c, 1, 38, 42
4, 263297, Note_on_c, 1, 41, 0
4, 263437, Note_on_c, 1, 38, 0
4, 263522, Note_on_c, 1, 35, 55
4, 264964, Note_on_c, 1, 36, 63
4, 265021, Note_on_c, 1, 35, 0
4, 266407, Note_on_c, 1, 44, 80
4, 266863, Note_on_c, 1, 44, 0
4, 266884, Note_on_c, 1, 48, 66
4, 268213, Note_on_c, 1, 36, 0
4, 268313, Note_on_c, 1, 44, 67
4, 268357, Note_on_c, 1, 48, 0
4, 268800, Note_on_c, 1, 37, 78
4, 268855, Note_on_c, 1, 44, 0
4, 270240, Note_on_c, 1, 46, 75
4, 270729, Note_on_c, 1, 49, 77
4, 270794, Note_on_c, 1, 46, 0
4, 271936, Note_on_c, 1, 37, 0
4, 272164, Note_on_c, 1, 37, 72
4, 272265, Note_on_c, 1, 49, 0
4, 272631, Note_on_c, 1, 37, 0
4, 272644, Note_on_c, 1, 36, 76
4, 275278, Note_on_c, 1, 50, 69
4, 275516, Note_on_c, 1, 48, 64
4, 275529, Note_on_c, 1, 50, 0
4, 275765, Note_on_c, 1, 36, 0
4, 276349, Note_on_c, 1, 48, 0
4, 276478, Note_on_c, 1, 45, 62
4, 276489, Note_on_c, 1, 46, 56
4, 276633, Note_on_c, 1, 46, 0
4, 277433, Note_on_c, 1, 36, 54
4, 278233, Note_on_c, 1, 36, 0
4, 278409, Note_on_c, 1, 45, 0
4, 278409, Note_on_c, 1, 36, 57
4, 280008, Note_on_c, 1, 36, 0
4, 280313, Note_on_c, 1, 36, 60
4, 281751, Note_on_c, 1, 41, 67
4, 282223, Note_on_c, 1, 41, 0
4, 282249, Note_on_c, 1, 43, 65
4, 282718, Note_on_c, 1, 46, 80
4, 283917, Note_on_c, 1, 36, 0
4, 284156, Note_on_c, 1, 36, 78
4, 284173, Note_on_c, 1, 46, 0
4, 284205, Note_on_c, 1, 43, 0
4, 285604, Note_on_c, 1, 50, 48
4, 285775, Note_on_c, 1, 50, 0
4, 285836, Note_on_c, 1, 51, 53
4, 286045, Note_on_c, 1, 51, 0
4, 286073, Note_on_c, 1, 52, 54
4, 287384, Note_on_c, 1, 36, 0
4, 287520, Note_on_c, 1, 36, 82
4, 287598, Note_on_c, 1, 52, 0
4, 287974, Note_on_c, 1, 36, 0
4, 288009, Note_on_c, 1, 36, 80
4, 289444, Note_on_c, 1, 44, 56
4, 289929, Note_on_c, 1, 50, 92
4, 291099, Note_on_c, 1, 36, 0
4, 291364, Note_on_c, 1, 36, 68
4, 291476, Note_on_c, 1, 44, 0
4, 291726, Note_on_c, 1, 36, 0
4, 291833, Note_on_c, 1, 36, 80
4, 291893, Note_on_c, 1, 50, 0
4, 293284, Note_on_c, 1, 48, 87
4, 293716, Note_on_c, 1, 48, 0
4, 293993, Note_on_c, 1, 48, 80
4, 295091, Note_on_c, 1, 36, 0
4, 295449, Note_on_c, 1, 36, 76
4, 295846, Note_on_c, 1, 36, 0
4, 295929, Note_on_c, 1, 36, 80
4, 297122, Note_on_c, 1, 41, 60
4, 297318, Note_on_c, 1, 48, 0
4, 297602, Note_on_c, 1, 46, 79
4, 297734, Note_on_c, 1, 41, 0
4, 299342, Note_on_c, 1, 36, 0
4, 299514, Note_on_c, 1, 46, 0
4, 299529, Note_on_c, 1, 36, 70
4, 301449, Note_on_c, 1, 52, 82
4, 302914, Note_on_c, 1, 36, 0
4, 303339, Note_on_c, 1, 52, 0
4, 303360, Note_on_c, 1, 41, 57
4, 303568, Note_on_c, 1, 41, 0
4, 303840, Note_on_c, 1, 36, 39
4, 304214, Note_on_c, 1, 36, 0
4, 304324, Note_on_c, 1, 29, 36
4, 307196, Note_on_c, 1, 41, 68
4, 307317, Note_on_c, 1, 41, 0
4, 307536, Note_on_c, 1, 29, 0
4, 307680, Note_on_c, 1, 34, 67
4, 308146, Note_on_c, 1, 34, 0
4, 308169, Note_on_c, 1, 29, 57
4, 311038, Note_on_c, 1, 40, 81
4, 311172, Note_on_c, 1, 40, 0
4, 311438, Note_on_c, 1, 29, 0
4, 311522, Note_on_c, 1, 36, 74
4, 311968, Note_on_c, 1, 36, 0
4, 311998, Note_on_c, 1, 29, 71
4, 314404, Note_on_c, 1, 36, 56
4, 314505, Note_on_c, 1, 29, 0
4, 314875, Note_on_c, 1, 36, 0
4, 314884, Note_on_c, 1, 29, 60
4, 318247, Note_on_c, 1, 36, 50
4, 318249, Note_on_c, 1, 29, 0
4, 318434, Note_on_c, 1, 36, 0
4, 318711, Note_on_c, 1, 41, 71
4, 319046, Note_on_c, 1, 41, 0
4, 319207, Note_on_c, 1, 36, 45
4, 319676, Note_on_c, 1, 36, 0
4, 319684, Note_on_c, 1, 29, 44
4, 322567, Note_on_c, 1, 43, 79
4, 322717, Note_on_c, 1, 29, 0
4, 323529, Note_on_c, 1, 29, 56
4, 323955, Note_on_c, 1, 29, 0
4, 323986, Note_on_c, 1, 43, 0
4, 324000, Note_on_c, 1, 29, 71
4, 325913, Note_on_c, 1, 41, 84
4, 325949, Note_on_c, 1, 29, 0
4, 326356, Note_on_c, 1, 41, 0
4, 326400, Note_on_c, 1, 40, 74
4, 328003, Note_on_c, 1, 40, 0
4, 328076, Note_on_c, 1, 38, 53
4, 328222, Note_on_c, 1, 38, 0
4, 328324, Note_on_c, 1, 36, 61
4, 330121, Note_on_c, 1, 36, 0
4, 330247, Note_on_c, 1, 41, 60
4, 333127, Note_on_c, 1, 45, 85
4, 333244, Note_on_c, 1, 41, 0
4, 333364, Note_on_c, 1, 43, 57
4, 333365, Note_on_c, 1, 45, 0
4, 333569, Note_on_c, 1, 43, 0
4, 333591, Note_on_c, 1, 41, 62
4, 334044, Note_on_c, 1, 41, 0
4, 334089, Note_on_c, 1, 40, 60
4, 334486, Note_on_c, 1, 40, 0
4, 334569, Note_on_c, 1, 41, 53
4, 334994, Note_on_c, 1, 41, 0
4, 335036, Note_on_c, 1, 38, 60
4, 337444, Note_on_c, 1, 29, 38
4, 337455, Note_on_c, 1, 38, 0
4, 337842, Note_on_c, 1, 29, 0
4, 337929, Note_on_c, 1, 29, 39
4, 339833, Note_on_c, 1, 29, 0
4, 339840, Note_on_c, 1, 35, 57
4, 340329, Note_on_c, 1, 41, 91
4, 340685, Note_on_c, 1, 41, 0
4, 340802, Note_on_c, 1, 41, 79
4, 340976, Note_on_c, 1, 35, 0
4, 341513, Note_on_c, 1, 40, 60
4, 341525, Note_on_c, 1, 41, 0
4, 341714, Note_on_c, 1, 40, 0
4, 341764, Note_on_c, 1, 38, 58
4, 341767, Note_on_c, 1, 40, 67
4, 341874, Note_on_c, 1, 38, 0
4, 342904, Note_on_c, 1, 40, 0
4, 342958, Note_on_c, 1, 38, 55
4, 343105, Note_on_c, 1, 38, 0
4, 343204, Note_on_c, 1, 36, 61
4, 345596, Note_on_c, 1, 29, 51
4, 345621, Note_on_c, 1, 36, 0
4, 347040, Note_on_c, 1, 41, 90
4, 347107, Note_on_c, 1, 29, 0
4, 347513, Note_on_c, 1, 40, 78
4, 347546, Note_on_c, 1, 41, 0
4, 348776, Note_on_c, 1, 40, 0
4, 348967, Note_on_c, 1, 40, 76
4, 349438, Note_on_c, 1, 38, 70
4, 349469, Note_on_c, 1, 40, 0
4, 351364, Note_on_c, 1, 33, 74
4, 351487, Note_on_c, 1, 38, 0
4, 351566, Note_on_c, 1, 33, 0
4, 351840, Note_on_c, 1, 33, 77
4, 353209, Note_on_c, 1, 33, 0
4, 353280, Note_on_c, 1, 31, 56
4, 353682, Note_on_c, 1, 31, 0
4, 353769, Note_on_c, 1, 31, 55
4, 354242, Note_on_c, 1, 43, 60
4, 354482, Note_on_c, 1, 42, 58
4, 354505, Note_on_c, 1, 43, 0
4, 354624, Note_on_c, 1, 42, 0
4, 354720, Note_on_c, 1, 43, 59
4, 355938, Note_on_c, 1, 43, 0
4, 356162, Note_on_c, 1, 47, 85
4, 356815, Note_on_c, 1, 47, 0
4, 356884, Note_on_c, 1, 50, 54
4, 357035, Note_on_c, 1, 50, 0
4, 357114, Note_on_c, 1, 31, 0
4, 357120, Note_on_c, 1, 48, 73
4, 358553, Note_on_c, 1, 43, 36
4, 358727, Note_on_c, 1, 48, 0
4, 359012, Note_on_c, 1, 43, 0
4, 359038, Note_on_c, 1, 40, 44
4, 360390, Note_on_c, 1, 40, 0
4, 360487, Note_on_c, 1, 36, 55
4, 361918, Note_on_c, 1, 48, 95
4, 361960, Note_on_c, 1, 36, 0
4, 363120, Note_on_c, 1, 45, 64
4, 363185, Note_on_c, 1, 48, 0
4, 363219, Note_on_c, 1, 45, 0
4, 363364, Note_on_c, 1, 39, 67
4, 364295, Note_on_c, 1, 39, 0
4, 364316, Note_on_c, 1, 36, 64
4, 364781, Note_on_c, 1, 36, 0
4, 364802, Note_on_c, 1, 46, 83
4, 366002, Note_on_c, 1, 43, 33
4, 366058, Note_on_c, 1, 46, 0
4, 366070, Note_on_c, 1, 43, 0
4, 366247, Note_on_c, 1, 38, 60
4, 366695, Note_on_c, 1, 38, 0
4, 366713, Note_on_c, 1, 34, 59
4, 370063, Note_on_c, 1, 34, 0
4, 370089, Note_on_c, 1, 40, 60
4, 370562, Note_on_c, 1, 43, 62
4, 370575, Note_on_c, 1, 40, 0
4, 371987, Note_on_c, 1, 43, 0
4, 372004, Note_on_c, 1, 46, 85
4, 372004, Note_on_c, 1, 40, 35
4, 372098, Note_on_c, 1, 40, 0
4, 372489, Note_on_c, 1, 45, 80
4, 372551, Note_on_c, 1, 46, 0
4, 373678, Note_on_c, 1, 41, 56
4, 373834, Note_on_c, 1, 41, 0
4, 373848, Note_on_c, 1, 45, 0
4, 373920, Note_on_c, 1, 36, 64
4, 374856, Note_on_c, 1, 36, 0
4, 374889, Note_on_c, 1, 33, 55
4, 376324, Note_on_c, 1, 46, 83
4, 376400, Note_on_c, 1, 33, 0
4, 376796, Note_on_c, 1, 45, 80
4, 376844, Note_on_c, 1, 46, 0
4, 378233, Note_on_c, 1, 41, 54
4, 378258, Note_on_c, 1, 45, 0
4, 378675, Note_on_c, 1, 41, 0
4, 378716, Note_on_c, 1, 34, 56
4, 379626, Note_on_c, 1, 34, 0
4, 379678, Note_on_c, 1, 33, 53
4, 380110, Note_on_c, 1, 33, 0
4, 380162, Note_on_c, 1, 31, 52
4, 382804, Note_on_c, 1, 38, 54
4, 382978, Note_on_c, 1, 38, 0
4, 383031, Note_on_c, 1, 46, 57
4, 383130, Note_on_c, 1, 46, 0
4, 383271, Note_on_c, 1, 46, 53
4, 383383, Note_on_c, 1, 46, 0
4, 383529, Note_on_c, 1, 50, 74
4, 383937, Note_on_c, 1, 50, 0
4, 383994, Note_on_c, 1, 31, 0
4, 384009, Note_on_c, 1, 48, 65
4, 384727, Note_on_c, 1, 46, 42
4, 384838, Note_on_c, 1, 48, 0
4, 384856, Note_on_c, 1, 46, 0
4, 384951, Note_on_c, 1, 45, 62
4, 386579, Note_on_c, 1, 45, 0
4, 386642, Note_on_c, 1, 43, 47
4, 386729, Note_on_c, 1, 43, 0
4, 386876, Note_on_c, 1, 40, 55
4, 387299, Note_on_c, 1, 40, 0
4, 387367, Note_on_c, 1, 36, 50
4, 387829, Note_on_c, 1, 36, 0
4, 387838, Note_on_c, 1, 41, 56
4, 388320, Note_on_c, 1, 36, 54
4, 388477, Note_on_c, 1, 41, 0
4, 388798, Note_on_c, 1, 29, 56
4, 388854, Note_on_c, 1, 36, 0
4, 391660, Note_on_c, 1, 29, 0
4, 391687, Note_on_c, 1, 41, 49
4, 394089, Note_on_c, 1, 29, 45
4, 394952, Note_on_c, 1, 29, 0
4, 395030, Note_on_c, 1, 41, 0
4, 395036, Note_on_c, 1, 36, 58
4, 395504, Note_on_c, 1, 36, 0
4, 395518, Note_on_c, 1, 34, 58
4, 397449, Note_on_c, 1, 51, 74
4, 397671, Note_on_c, 1, 49, 46
4, 397712, Note_on_c, 1, 51, 0
4, 397818, Note_on_c, 1, 49, 0
4, 397920, Note_on_c, 1, 50, 59
4, 398873, Note_on_c, 1, 46, 51
4, 398886, Note_on_c, 1, 50, 0
4, 399360, Note_on_c, 1, 47, 68
4, 399386, Note_on_c, 1, 46, 0
4, 399426, Note_on_c, 1, 34, 0
4, 400567, Note_on_c, 1, 44, 49
4, 400704, Note_on_c, 1, 47, 0
4, 400717, Note_on_c, 1, 44, 0
4, 400793, Note_on_c, 1, 41, 55
4, 401227, Note_on_c, 1, 41, 0
4, 401289, Note_on_c, 1, 35, 64
4, 401683, Note_on_c, 1, 35, 0
4, 401756, Note_on_c, 1, 35, 63
4, 403140, Note_on_c, 1, 35, 0
4, 403207, Note_on_c, 1, 36, 80
4, 404631, Note_on_c, 1, 48, 85
4, 404871, Note_on_c, 1, 47, 49
4, 404921, Note_on_c, 1, 48, 0
4, 405036, Note_on_c, 1, 47, 0
4, 405120, Note_on_c, 1, 48, 75
4, 405734, Note_on_c, 1, 36, 0
4, 406076, Note_on_c, 1, 36, 85
4, 406316, Note_on_c, 1, 35, 71
4, 406378, Note_on_c, 1, 36, 0
4, 406562, Note_on_c, 1, 36, 91
4, 406590, Note_on_c, 1, 35, 0
4, 407107, Note_on_c, 1, 48, 0
4, 407494, Note_on_c, 1, 36, 0
4, 407518, Note_on_c, 1, 37, 83
4, 407816, Note_on_c, 1, 37, 0
4, 407998, Note_on_c, 1, 36, 58
4, 408009, Note_on_c, 1, 37, 87
4, 408228, Note_on_c, 1, 36, 0
4, 408969, Note_on_c, 1, 49, 83
4, 409202, Note_on_c, 1, 48, 66
4, 409293, Note_on_c, 1, 49, 0
4, 409367, Note_on_c, 1, 48, 0
4, 409449, Note_on_c, 1, 49, 83
4, 410079, Note_on_c, 1, 37, 0
4, 410393, Note_on_c, 1, 37, 72
4, 410810, Note_on_c, 1, 37, 0
4, 410887, Note_on_c, 1, 36, 80
4, 410903, Note_on_c, 1, 49, 0
4, 412327, Note_on_c, 1, 48, 101
4, 412758, Note_on_c, 1, 48, 0
4, 412791, Note_on_c, 1, 48, 88
4, 414234, Note_on_c, 1, 48, 0
4, 414240, Note_on_c, 1, 46, 77
4, 414378, Note_on_c, 1, 36, 0
4, 414724, Note_on_c, 1, 45, 77
4, 414781, Note_on_c, 1, 46, 0
4, 415149, Note_on_c, 1, 45, 0
4, 415198, Note_on_c, 1, 41, 59
4, 415625, Note_on_c, 1, 41, 0
4, 415678, Note_on_c, 1, 36, 75
4, 418556, Note_on_c, 1, 48, 78
4, 418640, Note_on_c, 1, 36, 0
4, 419278, Note_on_c, 1, 46, 59
4, 419337, Note_on_c, 1, 48, 0
4, 419417, Note_on_c, 1, 46, 0
4, 419524, Note_on_c, 1, 41, 53
4, 419954, Note_on_c, 1, 41, 0
4, 420000, Note_on_c, 1, 36, 64
4, 420410, Note_on_c, 1, 36, 0
4, 420476, Note_on_c, 1, 36, 64
4, 422396, Note_on_c, 1, 48, 65
4, 423124, Note_on_c, 1, 43, 38
4, 423227, Note_on_c, 1, 36, 0
4, 423283, Note_on_c, 1, 43, 0
4, 423364, Note_on_c, 1, 40, 40
4, 423411, Note_on_c, 1, 48, 0
4, 423752, Note_on_c, 1, 40, 0
4, 423833, Note_on_c, 1, 36, 64
4, 426238, Note_on_c, 1, 47, 74
4, 426244, Note_on_c, 1, 36, 0
4, 427682, Note_on_c, 1, 41, 57
4, 428078, Note_on_c, 1, 47, 0
4, 428099, Note_on_c, 1, 41, 0
4, 428153, Note_on_c, 1, 36, 75
4, 428574, Note_on_c, 1, 36, 0
4, 428649, Note_on_c, 1, 36, 74
4, 430078, Note_on_c, 1, 45, 105
4, 430182, Note_on_c, 1, 36, 0
4, 431767, Note_on_c, 1, 41, 53
4, 431821, Note_on_c, 1, 45, 0
4, 431885, Note_on_c, 1, 41, 0
4, 431996, Note_on_c, 1, 36, 57
4, 432416, Note_on_c, 1, 36, 0
4, 432473, Note_on_c, 1, 36, 61
4, 434880, Note_on_c, 1, 46, 76
4, 434932, Note_on_c, 1, 36, 0
4, 436231, Note_on_c, 1, 46, 0
4, 436316, Note_on_c, 1, 48, 82
4, 436320, Note_on_c, 1, 36, 51
4, 436386, Note_on_c, 1, 36, 0
4, 437044, Note_on_c, 1, 36, 58
4, 437163, Note_on_c, 1, 36, 0
4, 437207, Note_on_c, 1, 48, 0
4, 437282, Note_on_c, 1, 46, 57
4, 437666, Note_on_c, 1, 46, 0
4, 437751, Note_on_c, 1, 36, 77
4, 439687, Note_on_c, 1, 48, 99
4, 439733, Note_on_c, 1, 36, 0
4, 440873, Note_on_c, 1, 36, 53
4, 440995, Note_on_c, 1, 36, 0
4, 441087, Note_on_c, 1, 48, 0
4, 441129, Note_on_c, 1, 46, 59
4, 441585, Note_on_c, 1, 46, 0
4, 441591, Note_on_c, 1, 45, 57
4, 441846, Note_on_c, 1, 45, 0
4, 442078, Note_on_c, 1, 43, 35
4, 442383, Note_on_c, 1, 43, 0
4, 442558, Note_on_c, 1, 41, 44
4, 443009, Note_on_c, 1, 41, 0
4, 443036, Note_on_c, 1, 29, 47
4, 443413, Note_on_c, 1, 29, 0
4, 443516, Note_on_c, 1, 29, 50
4, 445200, Note_on_c, 1, 41, 46
4, 445340, Note_on_c, 1, 29, 0
4, 445362, Note_on_c, 1, 41, 0
4, 445442, Note_on_c, 1, 46, 71
4, 445910, Note_on_c, 1, 46, 0
4, 445927, Note_on_c, 1, 48, 63
4, 446348, Note_on_c, 1, 48, 0
4, 446407, Note_on_c, 1, 46, 50
4, 446848, Note_on_c, 1, 46, 0
4, 446889, Note_on_c, 1, 41, 65
4, 447332, Note_on_c, 1, 41, 0
4, 447353, Note_on_c, 1, 29, 55
4, 447776, Note_on_c, 1, 29, 0
4, 447844, Note_on_c, 1, 29, 51
4, 449289, Note_on_c, 1, 48, 80
4, 449339, Note_on_c, 1, 29, 0
4, 449527, Note_on_c, 1, 46, 55
4, 449584, Note_on_c, 1, 48, 0
4, 449673, Note_on_c, 1, 46, 0
4, 449756, Note_on_c, 1, 43, 49
4, 450200, Note_on_c, 1, 43, 0
4, 450247, Note_on_c, 1, 40, 56
4, 450701, Note_on_c, 1, 40, 0
4, 450727, Note_on_c, 1, 29, 58
4, 451127, Note_on_c, 1, 29, 0
4, 451191, Note_on_c, 1, 29, 33
4, 452633, Note_on_c, 1, 46, 77
4, 452678, Note_on_c, 1, 29, 0
4, 453124, Note_on_c, 1, 45, 74
4, 453188, Note_on_c, 1, 46, 0
4, 454077, Note_on_c, 1, 45, 0
4, 454078, Note_on_c, 1, 41, 57
4, 455033, Note_on_c, 1, 36, 68
4, 455087, Note_on_c, 1, 41, 0
4, 455910, Note_on_c, 1, 36, 0
4, 456000, Note_on_c, 1, 33, 65
4, 456612, Note_on_c, 1, 33, 0
4, 456956, Note_on_c, 1, 29, 50
4, 458407, Note_on_c, 1, 36, 59
4, 458873, Note_on_c, 1, 36, 0
4, 458878, Note_on_c, 1, 41, 66
4, 459297, Note_on_c, 1, 41, 0
4, 459360, Note_on_c, 1, 41, 61
4, 460329, Note_on_c, 1, 36, 53
4, 460371, Note_on_c, 1, 29, 0
4, 460765, Note_on_c, 1, 36, 0
4, 460800, Note_on_c, 1, 29, 68
4, 463680, Note_on_c, 1, 36, 32
4, 463682, Note_on_c, 1, 46, 84
4, 463781, Note_on_c, 1, 36, 0
4, 464496, Note_on_c, 1, 41, 0
4, 464638, Note_on_c, 1, 45, 62
4, 464686, Note_on_c, 1, 46, 0
4, 464780, Note_on_c, 1, 45, 0
4, 464880, Note_on_c, 1, 43, 31
4, 465115, Note_on_c, 1, 29, 0
4, 465116, Note_on_c, 1, 40, 56
4, 465516, Note_on_c, 1, 43, 0
4, 465536, Note_on_c, 1, 40, 0
4, 465596, Note_on_c, 1, 40, 55
4, 468426, Note_on_c, 1, 40, 0
4, 468478, Note_on_c, 1, 29, 62
4, 471367, Note_on_c, 1, 41, 66
4, 471596, Note_on_c, 1, 43, 38
4, 471614, Note_on_c, 1, 29, 0
4, 471706, Note_on_c, 1, 43, 0
4, 471776, Note_on_c, 1, 41, 0
4, 471840, Note_on_c, 1, 45, 74
4, 472320, Note_on_c, 1, 45, 0
4, 472320, Note_on_c, 1, 38, 67
4, 472791, Note_on_c, 1, 38, 67
4, 472797, Note_on_c, 1, 38, 0
4, 477113, Note_on_c, 1, 41, 66
4, 477254, Note_on_c, 1, 41, 0
4, 477353, Note_on_c, 1, 43, 48
4, 477934, Note_on_c, 1, 43, 0
4, 478073, Note_on_c, 1, 47, 74
4, 478084, Note_on_c, 1, 38, 0
4, 479408, Note_on_c, 1, 47, 0
4, 479513, Note_on_c, 1, 43, 40
4, 479695, Note_on_c, 1, 43, 0
4, 479760, Note_on_c, 1, 40, 57
4, 482402, Note_on_c, 1, 36, 82
4, 482808, Note_on_c, 1, 36, 0
4, 482813, Note_on_c, 1, 40, 0
4, 482884, Note_on_c, 1, 36, 81
4, 483356, Note_on_c, 1, 40, 56
4, 483493, Note_on_c, 1, 40, 0
4, 483838, Note_on_c, 1, 40, 68
4, 484292, Note_on_c, 1, 36, 0
4, 484320, Note_on_c, 1, 41, 64
4, 484340, Note_on_c, 1, 40, 0
4, 484777, Note_on_c, 1, 41, 0
4, 484809, Note_on_c, 1, 29, 68
4, 486183, Note_on_c, 1, 29, 0
4, 486231, Note_on_c, 1, 28, 66
4, 487204, Note_on_c, 1, 40, 76
4, 487295, Note_on_c, 1, 28, 0
4, 487616, Note_on_c, 1, 40, 0
4, 487687, Note_on_c, 1, 38, 84
4, 490562, Note_on_c, 1, 52, 83
4, 490744, Note_on_c, 1, 52, 0
4, 490802, Note_on_c, 1, 50, 67
4, 490977, Note_on_c, 1, 50, 0
4, 491038, Note_on_c, 1, 48, 58
4, 491098, Note_on_c, 1, 38, 0
4, 491465, Note_on_c, 1, 48, 0
4, 491520, Note_on_c, 1, 47, 58
4, 492478, Note_on_c, 1, 43, 47
4, 492544, Note_on_c, 1, 47, 0
4, 493444, Note_on_c, 1, 38, 68
4, 493451, Note_on_c, 1, 43, 0
4, 494395, Note_on_c, 1, 38, 0
4, 494400, Note_on_c, 1, 31, 64
4, 495284, Note_on_c, 1, 31, 0
4, 495362, Note_on_c, 1, 36, 71
4, 496791, Note_on_c, 1, 50, 71
4, 497271, Note_on_c, 1, 48, 67
4, 497279, Note_on_c, 1, 50, 0
4, 499537, Note_on_c, 1, 36, 0
4, 499676, Note_on_c, 1, 36, 83
4, 499727, Note_on_c, 1, 48, 0
4, 500153, Note_on_c, 1, 45, 69
4, 500577, Note_on_c, 1, 45, 0
4, 500640, Note_on_c, 1, 48, 74
4, 501084, Note_on_c, 1, 48, 0
4, 501118, Note_on_c, 1, 51, 81
4, 502395, Note_on_c, 1, 36, 0
4, 502567, Note_on_c, 1, 36, 66
4, 502695, Note_on_c, 1, 36, 0
4, 503031, Note_on_c, 1, 34, 72
4, 503090, Note_on_c, 1, 51, 0
4, 505449, Note_on_c, 1, 50, 94
4, 506391, Note_on_c, 1, 48, 64
4, 506503, Note_on_c, 1, 50, 0
4, 506829, Note_on_c, 1, 48, 0
4, 506878, Note_on_c, 1, 46, 72
4, 506956, Note_on_c, 1, 34, 0
4, 507364, Note_on_c, 1, 43, 47
4, 507441, Note_on_c, 1, 46, 0
4, 507755, Note_on_c, 1, 43, 0
4, 507836, Note_on_c, 1, 40, 71
4, 510231, Note_on_c, 1, 34, 58
4, 510318, Note_on_c, 1, 40, 0
4, 510685, Note_on_c, 1, 34, 0
4, 510713, Note_on_c, 1, 33, 62
4, 512644, Note_on_c, 1, 45, 66
4, 512870, Note_on_c, 1, 45, 0
4, 512873, Note_on_c, 1, 44, 53
4, 513029, Note_on_c, 1, 44, 0
4, 513116, Note_on_c, 1, 45, 60
4, 513818, Note_on_c, 1, 33, 0
4, 514073, Note_on_c, 1, 33, 68
4, 514331, Note_on_c, 1, 33, 0
4, 514540, Note_on_c, 1, 45, 0
4, 514551, Note_on_c, 1, 33, 71
4, 515007, Note_on_c, 1, 33, 0
4, 515042, Note_on_c, 1, 34, 67
4, 517372, Note_on_c, 1, 34, 0
4, 517447, Note_on_c, 1, 41, 65
4, 517927, Note_on_c, 1, 46, 77
4, 518052, Note_on_c, 1, 41, 0
4, 518393, Note_on_c, 1, 46, 0
4, 518404, Note_on_c, 1, 43, 62
4, 519602, Note_on_c, 1, 38, 52
4, 519747, Note_on_c, 1, 38, 0
4, 519760, Note_on_c, 1, 43, 0
4, 519840, Note_on_c, 1, 34, 53
4, 520243, Note_on_c, 1, 34, 0
4, 520318, Note_on_c, 1, 31, 55
4, 521729, Note_on_c, 1, 31, 0
4, 521767, Note_on_c, 1, 35, 55
4, 522212, Note_on_c, 1, 35, 0
4, 522233, Note_on_c, 1, 36, 66
4, 523671, Note_on_c, 1, 50, 60
4, 523721, Note_on_c, 1, 50, 0
4, 524164, Note_on_c, 1, 48, 74
4, 524213, Note_on_c, 1, 48, 0
4, 524644, Note_on_c, 1, 48, 67
4, 524690, Note_on_c, 1, 48, 0
4, 525111, Note_on_c, 1, 48, 75
4, 525691, Note_on_c, 1, 36, 0
4, 525805, Note_on_c, 1, 48, 0
4, 525844, Note_on_c, 1, 46, 62
4, 525973, Note_on_c, 1, 46, 0
4, 526071, Note_on_c, 1, 45, 64
4, 526181, Note_on_c, 1, 45, 0
4, 526322, Note_on_c, 1, 43, 38
4, 526418, Note_on_c, 1, 43, 0
4, 526556, Note_on_c, 1, 41, 48
4, 527518, Note_on_c, 1, 36, 38
4, 527998, Note_on_c, 1, 29, 44
4, 528007, Note_on_c, 1, 36, 0
4, 528047, Note_on_c, 1, 41, 0
4, 529447, Note_on_c, 1, 40, 48
4, 529549, Note_on_c, 1, 40, 0
4, 529922, Note_on_c, 1, 39, 67
4, 529961, Note_on_c, 1, 29, 0
4, 530889, Note_on_c, 1, 29, 36
4, 530932, Note_on_c, 1, 39, 0
4, 531305, Note_on_c, 1, 29, 0
4, 531364, Note_on_c, 1, 29, 51
4, 532807, Note_on_c, 1, 39, 80
4, 532898, Note_on_c, 1, 29, 0
4, 533520, Note_on_c, 1, 29, 35
4, 533681, Note_on_c, 1, 29, 0
4, 533684, Note_on_c, 1, 39, 0
4, 533756, Note_on_c, 1, 38, 63
4, 534193, Note_on_c, 1, 38, 0
4, 534231, Note_on_c, 1, 34, 51
4, 534606, Note_on_c, 1, 34, 0
4, 534722, Note_on_c, 1, 34, 53
4, 537111, Note_on_c, 1, 46, 83
4, 537162, Note_on_c, 1, 34, 0
4, 537554, Note_on_c, 1, 46, 0
4, 537607, Note_on_c, 1, 47, 80
4, 538802, Note_on_c, 1, 41, 46
4, 538969, Note_on_c, 1, 41, 0
4, 539042, Note_on_c, 1, 35, 68
4, 539060, Note_on_c, 1, 47, 0
4, 541209, Note_on_c, 1, 47, 50
4, 541305, Note_on_c, 1, 35, 0
4, 541324, Note_on_c, 1, 47, 0
4, 541444, Note_on_c, 1, 48, 80
4, 542153, Note_on_c, 1, 44, 57
4, 542265, Note_on_c, 1, 48, 0
4, 542289, Note_on_c, 1, 44, 0
4, 542407, Note_on_c, 1, 36, 71
4, 545038, Note_on_c, 1, 48, 62
4, 545172, Note_on_c, 1, 48, 0
4, 545269, Note_on_c, 1, 36, 0
4, 545271, Note_on_c, 1, 49, 85
4, 546000, Note_on_c, 1, 46, 60
4, 546129, Note_on_c, 1, 49, 0
4, 546163, Note_on_c, 1, 46, 0
4, 546236, Note_on_c, 1, 37, 74
4, 548884, Note_on_c, 1, 49, 77
4, 549051, Note_on_c, 1, 49, 0
4, 549124, Note_on_c, 1, 48, 75
4, 549147, Note_on_c, 1, 37, 0
4, 549833, Note_on_c, 1, 46, 52
4, 549855, Note_on_c, 1, 48, 0
4, 549992, Note_on_c, 1, 46, 0
4, 550073, Note_on_c, 1, 43, 37
4, 550442, Note_on_c, 1, 43, 0
4, 550560, Note_on_c, 1, 36, 71
4, 550937, Note_on_c, 1, 36, 0
4, 551040, Note_on_c, 1, 36, 71
4, 552960, Note_on_c, 1, 48, 65
4, 553043, Note_on_c, 1, 36, 0
4, 554400, Note_on_c, 1, 45, 57
4, 554436, Note_on_c, 1, 48, 0
4, 555367, Note_on_c, 1, 36, 57
4, 555537, Note_on_c, 1, 36, 0
4, 555838, Note_on_c, 1, 36, 64
4, 555880, Note_on_c, 1, 45, 0
4, 556789, Note_on_c, 1, 36, 0
4, 556796, Note_on_c, 1, 46, 84
4, 557769, Note_on_c, 1, 42, 21
4, 557879, Note_on_c, 1, 42, 0
4, 558173, Note_on_c, 1, 46, 0
4, 558231, Note_on_c, 1, 41, 68
4, 558729, Note_on_c, 1, 36, 68
4, 558735, Note_on_c, 1, 41, 0
4, 559131, Note_on_c, 1, 36, 0
4, 559198, Note_on_c, 1, 36, 68
4, 560633, Note_on_c, 1, 48, 96
4, 561000, Note_on_c, 1, 36, 0
4, 562089, Note_on_c, 1, 36, 62
4, 562207, Note_on_c, 1, 36, 0
4, 562569, Note_on_c, 1, 36, 70
4, 564456, Note_on_c, 1, 48, 0
4, 564480, Note_on_c, 1, 47, 76
4, 564558, Note_on_c, 1, 36, 0
4, 565689, Note_on_c, 1, 41, 58
4, 565699, Note_on_c, 1, 47, 0
4, 565777, Note_on_c, 1, 41, 0
4, 565920, Note_on_c, 1, 38, 45
4, 565920, Note_on_c, 1, 36, 43
4, 566191, Note_on_c, 1, 38, 0
4, 566244, Note_on_c, 1, 36, 0
4, 566871, Note_on_c, 1, 36, 67
4, 568320, Note_on_c, 1, 45, 99
4, 568458, Note_on_c, 1, 36, 0
4, 569756, Note_on_c, 1, 41, 49
4, 569794, Note_on_c, 1, 45, 0
4, 570206, Note_on_c, 1, 41, 0
4, 570244, Note_on_c, 1, 36, 59
4, 570635, Note_on_c, 1, 36, 0
4, 570716, Note_on_c, 1, 36, 62
4, 572642, Note_on_c, 1, 46, 77
4, 572654, Note_on_c, 1, 36, 0
4, 573831, Note_on_c, 1, 41, 56
4, 573951, Note_on_c, 1, 41, 0
4, 574032, Note_on_c, 1, 46, 0
4, 574084, Note_on_c, 1, 36, 55
4, 574431, Note_on_c, 1, 36, 0
4, 574556, Note_on_c, 1, 36, 66
4, 575994, Note_on_c, 1, 36, 0
4, 576004, Note_on_c, 1, 46, 71
4, 577404, Note_on_c, 1, 46, 0
4, 577444, Note_on_c, 1, 43, 40
4, 577859, Note_on_c, 1, 43, 0
4, 577913, Note_on_c, 1, 40, 44
4, 578908, Note_on_c, 1, 40, 0
4, 579360, Note_on_c, 1, 36, 48
4, 579792, Note_on_c, 1, 36, 0
4, 579840, Note_on_c, 1, 29, 67
4, 581289, Note_on_c, 1, 41, 57
4, 581520, Note_on_c, 1, 43, 29
4, 581560, Note_on_c, 1, 41, 0
4, 581689, Note_on_c, 1, 43, 0
4, 581753, Note_on_c, 1, 41, 48
4, 583458, Note_on_c, 1, 29, 0
4, 583635, Note_on_c, 1, 41, 0
4, 583671, Note_on_c, 1, 29, 62
4, 585120, Note_on_c, 1, 41, 58
4, 585542, Note_on_c, 1, 41, 0
4, 585609, Note_on_c, 1, 46, 77
4, 586008, Note_on_c, 1, 46, 0
4, 586084, Note_on_c, 1, 46, 78
4, 587276, Note_on_c, 1, 41, 48
4, 587309, Note_on_c, 1, 46, 0
4, 587371, Note_on_c, 1, 29, 0
4, 587518, Note_on_c, 1, 43, 54
4, 587529, Note_on_c, 1, 29, 51
4, 587542, Note_on_c, 1, 41, 0
4, 588873, Note_on_c, 1, 43, 0
4, 588878, Note_on_c, 1, 29, 0
4, 588964, Note_on_c, 1, 40, 55
4, 589391, Note_on_c, 1, 40, 0
4, 589440, Note_on_c, 1, 29, 48
4, 589884, Note_on_c, 1, 29, 0
4, 589918, Note_on_c, 1, 29, 36
4, 591364, Note_on_c, 1, 41, 69
4, 591444, Note_on_c, 1, 29, 0
4, 591595, Note_on_c, 1, 41, 0
4, 591600, Note_on_c, 1, 40, 44
4, 591732, Note_on_c, 1, 40, 0
4, 591847, Note_on_c, 1, 41, 57
4, 592763, Note_on_c, 1, 41, 0
4, 592804, Note_on_c, 1, 36, 55
4, 593227, Note_on_c, 1, 36, 0
4, 593273, Note_on_c, 1, 29, 54
4, 593635, Note_on_c, 1, 29, 0
4, 593762, Note_on_c, 1, 29, 30
4, 594757, Note_on_c, 1, 29, 0
4, 595191, Note_on_c, 1, 41, 39
4, 595200, Note_on_c, 1, 41, 36
4, 595673, Note_on_c, 1, 48, 36
4, 596160, Note_on_c, 1, 53, 27
4, 596557, Note_on_c, 1, 53, 0
4, 596633, Note_on_c, 1, 53, 37
4, 597495, Note_on_c, 1, 48, 0
4, 597600, Note_on_c, 1, 48, 42
4, 598042, Note_on_c, 1, 41, 0
4, 598076, Note_on_c, 1, 41, 58
4, 598412, Note_on_c, 1, 41, 0
4, 598467, Note_on_c, 1, 41, 0
4, 598564, Note_on_c, 1, 41, 59
4, 598744, Note_on_c, 1, 48, 0
4, 599499, Note_on_c, 1, 53, 0
4, 599527, Note_on_c, 1, 46, 34
4, 600002, Note_on_c, 1, 50, 43
4, 600480, Note_on_c, 1, 53, 33
4, 600900, Note_on_c, 1, 53, 0
4, 600964, Note_on_c, 1, 55, 48
4, 602126, Note_on_c, 1, 41, 0
4, 602402, Note_on_c, 1, 41, 51
4, 602786, Note_on_c, 1, 41, 0
4, 602884, Note_on_c, 1, 41, 59
4, 602895, Note_on_c, 1, 50, 0
4, 602971, Note_on_c, 1, 46, 0
4, 603293, Note_on_c, 1, 55, 0
4, 603356, Note_on_c, 1, 48, 59
4, 603849, Note_on_c, 1, 52, 54
4, 604327, Note_on_c, 1, 58, 81
4, 604721, Note_on_c, 1, 58, 0
4, 604802, Note_on_c, 1, 58, 74
4, 606244, Note_on_c, 1, 55, 27
4, 606249, Note_on_c, 1, 58, 0
4, 606328, Note_on_c, 1, 41, 0
4, 606456, Note_on_c, 1, 52, 0
4, 606700, Note_on_c, 1, 55, 0
4, 606716, Note_on_c, 1, 41, 79
4, 606727, Note_on_c, 1, 57, 49
4, 606780, Note_on_c, 1, 48, 0
4, 611007, Note_on_c, 1, 57, 0
4, 611738, Note_on_c, 1, 41, 0
4, 611738, End_track
5, 0, Start_track
5, 0, Title_t, "Drums"
5, 0, Control_c, 9, 7, 67
5, 180480, Note_on_c, 9, 59, 54
5, 180616, Note_on_c, 9, 59, 0
5, 180960, Note_on_c, 9, 59, 62
5, 181133, Note_on_c, 9, 59, 0
5, 182167, Note_on_c, 9, 59, 47
5, 182242, Note_on_c, 9, 59, 0
5, 182402, Note_on_c, 9, 59, 55
5, 182647, Note_on_c, 9, 59, 0
5, 182876, Note_on_c, 9, 59, 53
5, 183159, Note_on_c, 9, 59, 0
5, 183836, Note_on_c, 9, 59, 65
5, 183941, Note_on_c, 9, 59, 0
5, 184311, Note_on_c, 9, 59, 65
5, 184778, Note_on_c, 9, 59, 0
5, 185287, Note_on_c, 9, 59, 45
5, 185359, Note_on_c, 9, 59, 0
5, 185518, Note_on_c, 9, 59, 56
5, 185577, Note_on_c, 9, 59, 0
5, 185764, Note_on_c, 9, 53, 43
5, 185955, Note_on_c, 9, 53, 0
5, 186240, Note_on_c, 9, 59, 50
5, 186420, Note_on_c, 9, 59, 0
5, 186729, Note_on_c, 9, 59, 62
5, 187018, Note_on_c, 9, 59, 0
5, 187916, Note_on_c, 9, 59, 41
5, 187980, Note_on_c, 9, 59, 0
5, 188153, Note_on_c, 9, 59, 60
5, 188329, Note_on_c, 9, 59, 0
5, 188631, Note_on_c, 9, 59, 59
5, 188767, Note_on_c, 9, 59, 0
5, 189118, Note_on_c, 9, 59, 68
5, 189397, Note_on_c, 9, 59, 0
5, 189842, Note_on_c, 9, 59, 34
5, 189922, Note_on_c, 9, 59, 0
5, 190073, Note_on_c, 9, 59, 58
5, 190254, Note_on_c, 9, 59, 0
5, 190558, Note_on_c, 9, 59, 66
5, 190758, Note_on_c, 9, 59, 0
5, 191038, Note_on_c, 9, 59, 66
5, 191349, Note_on_c, 9, 59, 0
5, 192000, Note_on_c, 9, 59, 41
5, 192118, Note_on_c, 9, 59, 0
5, 192236, Note_on_c, 9, 59, 47
5, 192376, Note_on_c, 9, 59, 0
5, 192480, Note_on_c, 9, 59, 49
5, 192609, Note_on_c, 9, 59, 0
5, 192958, Note_on_c, 9, 59, 70
5, 193258, Note_on_c, 9, 59, 0
5, 193678, Note_on_c, 9, 53, 54
5, 193787, Note_on_c, 9, 53, 0
5, 193927, Note_on_c, 9, 59, 28
5, 194214, Note_on_c, 9, 59, 0
5, 194640, Note_on_c, 9, 53, 45
5, 194749, Note_on_c, 9, 53, 0
5, 194884, Note_on_c, 9, 59, 40
5, 195100, Note_on_c, 9, 59, 0
5, 195358, Note_on_c, 9, 59, 62
5, 195512, Note_on_c, 9, 59, 0
5, 195847, Note_on_c, 9, 59, 68
5, 195966, Note_on_c, 9, 59, 0
5, 196073, Note_on_c, 9, 59, 38
5, 196150, Note_on_c, 9, 59, 0
5, 196327, Note_on_c, 9, 59, 66
5, 196486, Note_on_c, 9, 59, 0
5, 196807, Note_on_c, 9, 59, 70
5, 196969, Note_on_c, 9, 59, 0
5, 197282, Note_on_c, 9, 59, 74
5, 197620, Note_on_c, 9, 59, 0
5, 198713, Note_on_c, 9, 59, 51
5, 198720, Note_on_c, 9, 59, 59
5, 198816, Note_on_c, 9, 59, 0
5, 198900, Note_on_c, 9, 59, 0
5, 199200, Note_on_c, 9, 59, 78
5, 199594, Note_on_c, 9, 59, 0
5, 200404, Note_on_c, 9, 59, 39
5, 200518, Note_on_c, 9, 59, 0
5, 200633, Note_on_c, 9, 59, 27
5, 200843, Note_on_c, 9, 59, 0
5, 201122, Note_on_c, 9, 59, 74
5, 201343, Note_on_c, 9, 59, 0
5, 201598, Note_on_c, 9, 59, 60
5, 201750, Note_on_c, 9, 59, 0
5, 201842, Note_on_c, 9, 59, 37
5, 201928, Note_on_c, 9, 59, 0
5, 202080, Note_on_c, 9, 59, 66
5, 202380, Note_on_c, 9, 59, 0
5, 203049, Note_on_c, 9, 59, 63
5, 203238, Note_on_c, 9, 59, 0
5, 203524, Note_on_c, 9, 59, 76
5, 204004, Note_on_c, 9, 59, 0
5, 204244, Note_on_c, 9, 59, 41
5, 204342, Note_on_c, 9, 59, 0
5, 204471, Note_on_c, 9, 59, 73
5, 205102, Note_on_c, 9, 59, 0
5, 205673, Note_on_c, 9, 59, 58
5, 205800, Note_on_c, 9, 59, 0
5, 205916, Note_on_c, 9, 59, 71
5, 206178, Note_on_c, 9, 59, 0
5, 206396, Note_on_c, 9, 59, 61
5, 206864, Note_on_c, 9, 59, 0
5, 207364, Note_on_c, 9, 59, 58
5, 207677, Note_on_c, 9, 59, 0
5, 207833, Note_on_c, 9, 59, 58
5, 208241, Note_on_c, 9, 59, 0
5, 208804, Note_on_c, 9, 59, 65
5, 209015, Note_on_c, 9, 59, 0
5, 209284, Note_on_c, 9, 59, 68
5, 209567, Note_on_c, 9, 59, 0
5, 209762, Note_on_c, 9, 59, 58
5, 210145, Note_on_c, 9, 59, 0
5, 210711, Note_on_c, 9, 59, 64
5, 210922, Note_on_c, 9, 59, 0
5, 211204, Note_on_c, 9, 59, 71
5, 211485, Note_on_c, 9, 59, 0
5, 211689, Note_on_c, 9, 59, 72
5, 212028, Note_on_c, 9, 59, 0
5, 212640, Note_on_c, 9, 59, 66
5, 212878, Note_on_c, 9, 59, 0
5, 213118, Note_on_c, 9, 59, 71
5, 213356, Note_on_c, 9, 59, 0
5, 213600, Note_on_c, 9, 59, 71
5, 213986, Note_on_c, 9, 59, 0
5, 214556, Note_on_c, 9, 59, 56
5, 214674, Note_on_c, 9, 59, 0
5, 214800, Note_on_c, 9, 59, 64
5, 214913, Note_on_c, 9, 59, 0
5, 215042, Note_on_c, 9, 53, 38
5, 215259, Note_on_c, 9, 53, 0
5, 215513, Note_on_c, 9, 53, 53
5, 215765, Note_on_c, 9, 53, 0
5, 215996, Note_on_c, 9, 59, 60
5, 216121, Note_on_c, 9, 59, 0
5, 216238, Note_on_c, 9, 59, 55
5, 216351, Note_on_c, 9, 59, 0
5, 216480, Note_on_c, 9, 53, 52
5, 216760, Note_on_c, 9, 53, 0
5, 216960, Note_on_c, 9, 53, 66
5, 217238, Note_on_c, 9, 53, 0
5, 217924, Note_on_c, 9, 59, 70
5, 218093, Note_on_c, 9, 59, 0
5, 218640, Note_on_c, 9, 59, 54
5, 218745, Note_on_c, 9, 59, 0
5, 218884, Note_on_c, 9, 59, 68
5, 219093, Note_on_c, 9, 59, 0
5, 219356, Note_on_c, 9, 59, 84
5, 219861, Note_on_c, 9, 59, 0
5, 220073, Note_on_c, 9, 59, 42
5, 220166, Note_on_c, 9, 59, 0
5, 220329, Note_on_c, 9, 59, 69
5, 220538, Note_on_c, 9, 59, 0
5, 221289, Note_on_c, 9, 59, 59
5, 221435, Note_on_c, 9, 59, 0
5, 221520, Note_on_c, 9, 59, 54
5, 221652, Note_on_c, 9, 59, 0
5, 221762, Note_on_c, 9, 59, 60
5, 221957, Note_on_c, 9, 59, 0
5, 222473, Note_on_c, 9, 59, 46
5, 222564, Note_on_c, 9, 59, 0
5, 222727, Note_on_c, 9, 59, 67
5, 223047, Note_on_c, 9, 59, 0
5, 223924, Note_on_c, 9, 59, 54
5, 224032, Note_on_c, 9, 59, 0
5, 224158, Note_on_c, 9, 59, 62
5, 224336, Note_on_c, 9, 59, 0
5, 224644, Note_on_c, 9, 59, 74
5, 224838, Note_on_c, 9, 59, 0
5, 225120, Note_on_c, 9, 59, 75
5, 225275, Note_on_c, 9, 59, 0
5, 225831, Note_on_c, 9, 59, 60
5, 225897, Note_on_c, 9, 59, 0
5, 226078, Note_on_c, 9, 53, 40
5, 226271, Note_on_c, 9, 53, 0
5, 226562, Note_on_c, 9, 53, 41
5, 226801, Note_on_c, 9, 53, 0
5, 227040, Note_on_c, 9, 59, 39
5, 227189, Note_on_c, 9, 59, 0
5, 227529, Note_on_c, 9, 59, 53
5, 227774, Note_on_c, 9, 59, 0
5, 228473, Note_on_c, 9, 59, 42
5, 228579, Note_on_c, 9, 59, 0
5, 228716, Note_on_c, 9, 59, 59
5, 228831, Note_on_c, 9, 59, 0
5, 229680, Note_on_c, 9, 59, 49
5, 229687, Note_on_c, 9, 59, 53
5, 229756, Note_on_c, 9, 59, 0
5, 229802, Note_on_c, 9, 59, 0
5, 229929, Note_on_c, 9, 53, 35
5, 230136, Note_on_c, 9, 53, 0
5, 230878, Note_on_c, 9, 59, 33
5, 230960, Note_on_c, 9, 59, 0
5, 231129, Note_on_c, 9, 59, 40
5, 231247, Note_on_c, 9, 59, 0
5, 231356, Note_on_c, 9, 53, 22
5, 231570, Note_on_c, 9, 53, 0
5, 231842, Note_on_c, 9, 59, 32
5, 231906, Note_on_c, 9, 59, 0
5, 232089, Note_on_c, 9, 59, 52
5, 232166, Note_on_c, 9, 59, 0
5, 232320, Note_on_c, 9, 59, 64
5, 232437, Note_on_c, 9, 59, 0
5, 232807, Note_on_c, 9, 53, 44
5, 232975, Note_on_c, 9, 53, 0
5, 233284, Note_on_c, 9, 53, 38
5, 233492, Note_on_c, 9, 53, 0
5, 234007, Note_on_c, 9, 59, 46
5, 234106, Note_on_c, 9, 59, 0
5, 234242, Note_on_c, 9, 59, 60
5, 234498, Note_on_c, 9, 59, 0
5, 234722, Note_on_c, 9, 59, 65
5, 234953, Note_on_c, 9, 59, 0
5, 235207, Note_on_c, 9, 59, 62
5, 235328, Note_on_c, 9, 59, 0
5, 235438, Note_on_c, 9, 53, 44
5, 235554, Note_on_c, 9, 53, 0
5, 235689, Note_on_c, 9, 53, 45
5, 235867, Note_on_c, 9, 53, 0
5, 236167, Note_on_c, 9, 53, 48
5, 236368, Note_on_c, 9, 53, 0
5, 236882, Note_on_c, 9, 59, 47
5, 237012, Note_on_c, 9, 59, 0
5, 237129, Note_on_c, 9, 59, 51
5, 237319, Note_on_c, 9, 59, 0
5, 237607, Note_on_c, 9, 59, 73
5, 237978, Note_on_c, 9, 59, 0
5, 238802, Note_on_c, 9, 59, 60
5, 238908, Note_on_c, 9, 59, 0
5, 239036, Note_on_c, 9, 59, 69
5, 239243, Note_on_c, 9, 59, 0
5, 239522, Note_on_c, 9, 59, 75
5, 239782, Note_on_c, 9, 59, 0
5, 240238, Note_on_c, 9, 59, 44
5, 240331, Note_on_c, 9, 59, 0
5, 240476, Note_on_c, 9, 59, 64
5, 240684, Note_on_c, 9, 59, 0
5, 240951, Note_on_c, 9, 59, 76
5, 241260, Note_on_c, 9, 59, 0
5, 241680, Note_on_c, 9, 59, 51
5, 241747, Note_on_c, 9, 59, 0
5, 241913, Note_on_c, 9, 59, 57
5, 242069, Note_on_c, 9, 59, 0
5, 242393, Note_on_c, 9, 59, 55
5, 242659, Note_on_c, 9, 59, 0
5, 242884, Note_on_c, 9, 59, 57
5, 243424, Note_on_c, 9, 59, 0
5, 243840, Note_on_c, 9, 59, 53
5, 244364, Note_on_c, 9, 59, 0
5, 244560, Note_on_c, 9, 59, 49
5, 244625, Note_on_c, 9, 59, 0
5, 244793, Note_on_c, 9, 59, 58
5, 244999, Note_on_c, 9, 59, 0
5, 245271, Note_on_c, 9, 59, 58
5, 245584, Note_on_c, 9, 59, 0
5, 245760, Note_on_c, 9, 59, 58
5, 246493, Note_on_c, 9, 59, 0
5, 246713, Note_on_c, 9, 59, 62
5, 247186, Note_on_c, 9, 59, 0
5, 247447, Note_on_c, 9, 59, 34
5, 247550, Note_on_c, 9, 59, 0
5, 247682, Note_on_c, 9, 59, 62
5, 248359, Note_on_c, 9, 59, 0
5, 248402, Note_on_c, 9, 59, 44
5, 248534, Note_on_c, 9, 59, 0
5, 248631, Note_on_c, 9, 59, 43
5, 249082, Note_on_c, 9, 59, 0
5, 249116, Note_on_c, 9, 53, 40
5, 249314, Note_on_c, 9, 53, 0
5, 249600, Note_on_c, 9, 59, 37
5, 249667, Note_on_c, 9, 59, 0
5, 250322, Note_on_c, 9, 59, 51
5, 250432, Note_on_c, 9, 59, 0
5, 250553, Note_on_c, 9, 59, 51
5, 250775, Note_on_c, 9, 59, 0
5, 251049, Note_on_c, 9, 53, 45
5, 251407, Note_on_c, 9, 53, 0
5, 251762, Note_on_c, 9, 59, 49
5, 251880, Note_on_c, 9, 59, 0
5, 251991, Note_on_c, 9, 59, 48
5, 252172, Note_on_c, 9, 59, 0
5, 252478, Note_on_c, 9, 53, 42
5, 252741, Note_on_c, 9, 53, 0
5, 253191, Note_on_c, 9, 59, 54
5, 253295, Note_on_c, 9, 59, 0
5, 253433, Note_on_c, 9, 59, 53
5, 253570, Note_on_c, 9, 59, 0
5, 253673, Note_on_c, 9, 53, 38
5, 253785, Note_on_c, 9, 53, 0
5, 253918, Note_on_c, 9, 53, 54
5, 254083, Note_on_c, 9, 53, 0
5, 254402, Note_on_c, 9, 53, 44
5, 254590, Note_on_c, 9, 53, 0
5, 254889, Note_on_c, 9, 59, 51
5, 255030, Note_on_c, 9, 59, 0
5, 255360, Note_on_c, 9, 59, 68
5, 255459, Note_on_c, 9, 59, 0
5, 255596, Note_on_c, 9, 53, 43
5, 255741, Note_on_c, 9, 53, 0
5, 255836, Note_on_c, 9, 59, 67
5, 256096, Note_on_c, 9, 59, 0
5, 256327, Note_on_c, 9, 59, 71
5, 256584, Note_on_c, 9, 59, 0
5, 257036, Note_on_c, 9, 59, 45
5, 257136, Note_on_c, 9, 59, 0
5, 257276, Note_on_c, 9, 59, 65
5, 257565, Note_on_c, 9, 59, 0
5, 257758, Note_on_c, 9, 59, 62
5, 258001, Note_on_c, 9, 59, 0
5, 258233, Note_on_c, 9, 59, 66
5, 258628, Note_on_c, 9, 59, 0
5, 259442, Note_on_c, 9, 59, 43
5, 259538, Note_on_c, 9, 59, 0
5, 259920, Note_on_c, 9, 59, 68
5, 260051, Note_on_c, 9, 59, 0
5, 260160, Note_on_c, 9, 59, 60
5, 260447, Note_on_c, 9, 59, 0
5, 260649, Note_on_c, 9, 59, 64
5, 260772, Note_on_c, 9, 59, 0
5, 261113, Note_on_c, 9, 59, 75
5, 261522, Note_on_c, 9, 59, 0
5, 261849, Note_on_c, 9, 59, 47
5, 261930, Note_on_c, 9, 59, 0
5, 262073, Note_on_c, 9, 59, 57
5, 262256, Note_on_c, 9, 59, 0
5, 262802, Note_on_c, 9, 59, 51
5, 262915, Note_on_c, 9, 59, 0
5, 263047, Note_on_c, 9, 59, 58
5, 263186, Note_on_c, 9, 59, 0
5, 263529, Note_on_c, 9, 59, 71
5, 263646, Note_on_c, 9, 59, 0
5, 263993, Note_on_c, 9, 59, 71
5, 264429, Note_on_c, 9, 59, 0
5, 264960, Note_on_c, 9, 59, 62
5, 265097, Note_on_c, 9, 59, 0
5, 265202, Note_on_c, 9, 59, 36
5, 265290, Note_on_c, 9, 59, 0
5, 265442, Note_on_c, 9, 59, 53
5, 265605, Note_on_c, 9, 59, 0
5, 265920, Note_on_c, 9, 59, 67
5, 266217, Note_on_c, 9, 59, 0
5, 266884, Note_on_c, 9, 59, 64
5, 267007, Note_on_c, 9, 59, 0
5, 267369, Note_on_c, 9, 53, 36
5, 267476, Note_on_c, 9, 53, 0
5, 267847, Note_on_c, 9, 53, 39
5, 267984, Note_on_c, 9, 53, 0
5, 268802, Note_on_c, 9, 59, 65
5, 268990, Note_on_c, 9, 59, 0
5, 269282, Note_on_c, 9, 53, 33
5, 269408, Note_on_c, 9, 53, 0
5, 269762, Note_on_c, 9, 53, 34
5, 269905, Note_on_c, 9, 53, 0
5, 270720, Note_on_c, 9, 59, 67
5, 270967, Note_on_c, 9, 59, 0
5, 271207, Note_on_c, 9, 53, 35
5, 271337, Note_on_c, 9, 53, 0
5, 271680, Note_on_c, 9, 53, 38
5, 271842, Note_on_c, 9, 53, 0
5, 272640, Note_on_c, 9, 59, 64
5, 272867, Note_on_c, 9, 59, 0
5, 273111, Note_on_c, 9, 53, 32
5, 273223, Note_on_c, 9, 53, 0
5, 273600, Note_on_c, 9, 53, 40
5, 273751, Note_on_c, 9, 53, 0
5, 274556, Note_on_c, 9, 59, 64
5, 275055, Note_on_c, 9, 59, 0
5, 275529, Note_on_c, 9, 59, 68
5, 275720, Note_on_c, 9, 59, 0
5, 275998, Note_on_c, 9, 53, 32
5, 276154, Note_on_c, 9, 53, 0
5, 276489, Note_on_c, 9, 53, 35
5, 276654, Note_on_c, 9, 53, 0
5, 277927, Note_on_c, 9, 59, 42
5, 278033, Note_on_c, 9, 59, 0
5, 278162, Note_on_c, 9, 59, 50
5, 278282, Note_on_c, 9, 59, 0
5, 278407, Note_on_c, 9, 59, 57
5, 278499, Note_on_c, 9, 59, 0
5, 279120, Note_on_c, 9, 59, 46
5, 279206, Note_on_c, 9, 59, 0
5, 279358, Note_on_c, 9, 59, 58
5, 279551, Note_on_c, 9, 59, 0
5, 279849, Note_on_c, 9, 59, 71
5, 280047, Note_on_c, 9, 59, 0
5, 280313, Note_on_c, 9, 59, 66
5, 280760, Note_on_c, 9, 59, 0
5, 282002, Note_on_c, 9, 59, 36
5, 282125, Note_on_c, 9, 59, 0
5, 282231, Note_on_c, 9, 59, 58
5, 282445, Note_on_c, 9, 59, 0
5, 282967, Note_on_c, 9, 59, 32
5, 283063, Note_on_c, 9, 59, 0
5, 283209, Note_on_c, 9, 59, 57
5, 283562, Note_on_c, 9, 59, 0
5, 283927, Note_on_c, 9, 59, 35
5, 283996, Note_on_c, 9, 59, 0
5, 284167, Note_on_c, 9, 59, 51
5, 284391, Note_on_c, 9, 59, 0
5, 284644, Note_on_c, 9, 53, 36
5, 284768, Note_on_c, 9, 53, 0
5, 285129, Note_on_c, 9, 53, 34
5, 285290, Note_on_c, 9, 53, 0
5, 285593, Note_on_c, 9, 59, 22
5, 285671, Note_on_c, 9, 59, 0
5, 286082, Note_on_c, 9, 59, 57
5, 286205, Note_on_c, 9, 59, 0
5, 286560, Note_on_c, 9, 59, 65
5, 286698, Note_on_c, 9, 59, 0
5, 287047, Note_on_c, 9, 59, 62
5, 287196, Note_on_c, 9, 59, 0
5, 287520, Note_on_c, 9, 51, 54
5, 287522, Note_on_c, 9, 53, 33
5, 287755, Note_on_c, 9, 53, 0
5, 287838, Note_on_c, 9, 51, 0
5, 288489, Note_on_c, 9, 59, 53
5, 288654, Note_on_c, 9, 59, 0
5, 288953, Note_on_c, 9, 59, 62
5, 289124, Note_on_c, 9, 59, 0
5, 289920, Note_on_c, 9, 59, 58
5, 290097, Note_on_c, 9, 59, 0
5, 290393, Note_on_c, 9, 59, 66
5, 290599, Note_on_c, 9, 59, 0
5, 291351, Note_on_c, 9, 59, 53
5, 291536, Note_on_c, 9, 59, 0
5, 291836, Note_on_c, 9, 59, 61
5, 292158, Note_on_c, 9, 59, 0
5, 292800, Note_on_c, 9, 59, 60
5, 292935, Note_on_c, 9, 59, 0
5, 293047, Note_on_c, 9, 59, 43
5, 293168, Note_on_c, 9, 59, 0
5, 293276, Note_on_c, 9, 59, 49
5, 293376, Note_on_c, 9, 59, 0
5, 293760, Note_on_c, 9, 59, 68
5, 293919, Note_on_c, 9, 59, 0
5, 294238, Note_on_c, 9, 59, 66
5, 294933, Note_on_c, 9, 59, 0
5, 295209, Note_on_c, 9, 59, 51
5, 295325, Note_on_c, 9, 59, 0
5, 295680, Note_on_c, 9, 59, 68
5, 296400, Note_on_c, 9, 59, 0
5, 296636, Note_on_c, 9, 59, 65
5, 296798, Note_on_c, 9, 59, 0
5, 296871, Note_on_c, 9, 59, 57
5, 296968, Note_on_c, 9, 59, 0
5, 297124, Note_on_c, 9, 59, 50
5, 297245, Note_on_c, 9, 59, 0
5, 297596, Note_on_c, 9, 59, 71
5, 298260, Note_on_c, 9, 59, 0
5, 298558, Note_on_c, 9, 59, 64
5, 299176, Note_on_c, 9, 59, 0
5, 299529, Note_on_c, 9, 59, 61
5, 299660, Note_on_c, 9, 59, 0
5, 299758, Note_on_c, 9, 59, 40
5, 299839, Note_on_c, 9, 59, 0
5, 300004, Note_on_c, 9, 59, 44
5, 300105, Note_on_c, 9, 59, 0
5, 300478, Note_on_c, 9, 59, 68
5, 301079, Note_on_c, 9, 59, 0
5, 301191, Note_on_c, 9, 59, 52
5, 301287, Note_on_c, 9, 59, 0
5, 301442, Note_on_c, 9, 59, 62
5, 301621, Note_on_c, 9, 59, 0
5, 301924, Note_on_c, 9, 59, 78
5, 302427, Note_on_c, 9, 59, 0
5, 302873, Note_on_c, 9, 59, 48
5, 302960, Note_on_c, 9, 59, 0
5, 303129, Note_on_c, 9, 59, 50
5, 303240, Note_on_c, 9, 59, 0
5, 303353, Note_on_c, 9, 59, 49
5, 303453, Note_on_c, 9, 59, 0
5, 303833, Note_on_c, 9, 53, 44
5, 303975, Note_on_c, 9, 53, 0
5, 304324, Note_on_c, 9, 53, 40
5, 304510, Note_on_c, 9, 53, 0
5, 304809, Note_on_c, 9, 59, 47
5, 304977, Note_on_c, 9, 59, 0
5, 305271, Note_on_c, 9, 59, 49
5, 306235, Note_on_c, 9, 59, 0
5, 306729, Note_on_c, 9, 59, 31
5, 306806, Note_on_c, 9, 59, 0
5, 306956, Note_on_c, 9, 59, 46
5, 307065, Note_on_c, 9, 59, 0
5, 307198, Note_on_c, 9, 59, 55
5, 307311, Note_on_c, 9, 59, 0
5, 307678, Note_on_c, 9, 53, 33
5, 307817, Note_on_c, 9, 53, 0
5, 307918, Note_on_c, 9, 53, 51
5, 308041, Note_on_c, 9, 53, 0
5, 308153, Note_on_c, 9, 53, 42
5, 308360, Note_on_c, 9, 53, 0
5, 308633, Note_on_c, 9, 53, 41
5, 308837, Note_on_c, 9, 53, 0
5, 309111, Note_on_c, 9, 59, 50
5, 309235, Note_on_c, 9, 59, 0
5, 309362, Note_on_c, 9, 59, 44
5, 309479, Note_on_c, 9, 59, 0
5, 309604, Note_on_c, 9, 59, 60
5, 309772, Note_on_c, 9, 59, 0
5, 310089, Note_on_c, 9, 59, 67
5, 310225, Note_on_c, 9, 59, 0
5, 311049, Note_on_c, 9, 53, 36
5, 311135, Note_on_c, 9, 53, 0
5, 311520, Note_on_c, 9, 53, 36
5, 311654, Note_on_c, 9, 53, 0
5, 312004, Note_on_c, 9, 59, 64
5, 312130, Note_on_c, 9, 59, 0
5, 312722, Note_on_c, 9, 53, 38
5, 312826, Note_on_c, 9, 53, 0
5, 312969, Note_on_c, 9, 53, 41
5, 313124, Note_on_c, 9, 53, 0
5, 313431, Note_on_c, 9, 53, 35
5, 313579, Note_on_c, 9, 53, 0
5, 313913, Note_on_c, 9, 59, 54
5, 314045, Note_on_c, 9, 59, 0
5, 314151, Note_on_c, 9, 59, 57
5, 314261, Note_on_c, 9, 59, 0
5, 314402, Note_on_c, 9, 53, 36
5, 314572, Note_on_c, 9, 53, 0
5, 314887, Note_on_c, 9, 53, 32
5, 315065, Note_on_c, 9, 53, 0
5, 315362, Note_on_c, 9, 53, 30
5, 315574, Note_on_c, 9, 53, 0
5, 315844, Note_on_c, 9, 59, 48
5, 316465, Note_on_c, 9, 59, 0
5, 316551, Note_on_c, 9, 53, 48
5, 316656, Note_on_c, 9, 53, 0
5, 316793, Note_on_c, 9, 53, 51
5, 316952, Note_on_c, 9, 53, 0
5, 317289, Note_on_c, 9, 53, 43
5, 317486, Note_on_c, 9, 53, 0
5, 317753, Note_on_c, 9, 59, 66
5, 317977, Note_on_c, 9, 59, 0
5, 318247, Note_on_c, 9, 53, 36
5, 318412, Note_on_c, 9, 53, 0
5, 318722, Note_on_c, 9, 51, 60
5, 318727, Note_on_c, 9, 53, 48
5, 318820, Note_on_c, 9, 51, 0
5, 318849, Note_on_c, 9, 53, 0
5, 319438, Note_on_c, 9, 51, 54
5, 319497, Note_on_c, 9, 51, 0
5, 319678, Note_on_c, 9, 51, 52
5, 319942, Note_on_c, 9, 51, 0
5, 320400, Note_on_c, 9, 51, 49
5, 320460, Note_on_c, 9, 51, 0
5, 320636, Note_on_c, 9, 51, 57
5, 321097, Note_on_c, 9, 51, 0
5, 321356, Note_on_c, 9, 53, 47
5, 321498, Note_on_c, 9, 53, 0
5, 321602, Note_on_c, 9, 51, 36
5, 321919, Note_on_c, 9, 51, 0
5, 322082, Note_on_c, 9, 51, 43
5, 322244, Note_on_c, 9, 51, 0
5, 322560, Note_on_c, 9, 51, 61
5, 322691, Note_on_c, 9, 51, 0
5, 323280, Note_on_c, 9, 51, 51
5, 323394, Note_on_c, 9, 51, 0
5, 323527, Note_on_c, 9, 51, 50
5, 323619, Note_on_c, 9, 51, 0
5, 324249, Note_on_c, 9, 51, 52
5, 324337, Note_on_c, 9, 51, 0
5, 324471, Note_on_c, 9, 51, 48
5, 324642, Note_on_c, 9, 51, 0
5, 324960, Note_on_c, 9, 51, 40
5, 325003, Note_on_c, 9, 51, 0
5, 325200, Note_on_c, 9, 51, 44
5, 325253, Note_on_c, 9, 51, 0
5, 325444, Note_on_c, 9, 51, 40
5, 325654, Note_on_c, 9, 51, 0
5, 326169, Note_on_c, 9, 51, 69
5, 326254, Note_on_c, 9, 51, 0
5, 326402, Note_on_c, 9, 51, 57
5, 326526, Note_on_c, 9, 51, 0
5, 326887, Note_on_c, 9, 51, 64
5, 327028, Note_on_c, 9, 51, 0
5, 327356, Note_on_c, 9, 51, 64
5, 327499, Note_on_c, 9, 51, 0
5, 328071, Note_on_c, 9, 51, 46
5, 328172, Note_on_c, 9, 51, 0
5, 328318, Note_on_c, 9, 51, 58
5, 328571, Note_on_c, 9, 51, 0
5, 329036, Note_on_c, 9, 51, 52
5, 329146, Note_on_c, 9, 51, 0
5, 329280, Note_on_c, 9, 51, 55
5, 329408, Note_on_c, 9, 51, 0
5, 329756, Note_on_c, 9, 53, 66
5, 329960, Note_on_c, 9, 53, 0
5, 330236, Note_on_c, 9, 51, 46
5, 330404, Note_on_c, 9, 51, 0
5, 330718, Note_on_c, 9, 51, 50
5, 330833, Note_on_c, 9, 51, 0
5, 331196, Note_on_c, 9, 51, 63
5, 331352, Note_on_c, 9, 51, 0
5, 331913, Note_on_c, 9, 51, 52
5, 331978, Note_on_c, 9, 51, 0
5, 332158, Note_on_c, 9, 51, 49
5, 332383, Note_on_c, 9, 51, 0
5, 332647, Note_on_c, 9, 53, 59
5, 332946, Note_on_c, 9, 53, 0
5, 333113, Note_on_c, 9, 51, 37
5, 333222, Note_on_c, 9, 51, 0
5, 333607, Note_on_c, 9, 53, 66
5, 333896, Note_on_c, 9, 53, 0
5, 334078, Note_on_c, 9, 51, 37
5, 334363, Note_on_c, 9, 51, 0
5, 334553, Note_on_c, 9, 51, 43
5, 334646, Note_on_c, 9, 51, 0
5, 334800, Note_on_c, 9, 51, 33
5, 334854, Note_on_c, 9, 51, 0
5, 335040, Note_on_c, 9, 51, 48
5, 335228, Note_on_c, 9, 51, 0
5, 335518, Note_on_c, 9, 51, 37
5, 335564, Note_on_c, 9, 51, 0
5, 335767, Note_on_c, 9, 51, 50
5, 335828, Note_on_c, 9, 51, 0
5, 335991, Note_on_c, 9, 51, 48
5, 336141, Note_on_c, 9, 51, 0
5, 336713, Note_on_c, 9, 51, 43
5, 336784, Note_on_c, 9, 51, 0
5, 336969, Note_on_c, 9, 51, 43
5, 337112, Note_on_c, 9, 51, 0
5, 337433, Note_on_c, 9, 51, 71
5, 337438, Note_on_c, 9, 53, 47
5, 337696, Note_on_c, 9, 53, 0
5, 337716, Note_on_c, 9, 51, 0
5, 337922, Note_on_c, 9, 51, 36
5, 338042, Note_on_c, 9, 51, 0
5, 338167, Note_on_c, 9, 51, 38
5, 338226, Note_on_c, 9, 51, 0
5, 338398, Note_on_c, 9, 51, 44
5, 338603, Note_on_c, 9, 51, 0
5, 338878, Note_on_c, 9, 51, 55
5, 338985, Note_on_c, 9, 51, 0
5, 339353, Note_on_c, 9, 51, 74
5, 339360, Note_on_c, 9, 53, 68
5, 339602, Note_on_c, 9, 53, 0
5, 339657, Note_on_c, 9, 51, 0
5, 339844, Note_on_c, 9, 51, 39
5, 339995, Note_on_c, 9, 51, 0
5, 340073, Note_on_c, 9, 51, 53
5, 340147, Note_on_c, 9, 51, 0
5, 340320, Note_on_c, 9, 51, 55
5, 340444, Note_on_c, 9, 51, 0
5, 340796, Note_on_c, 9, 51, 69
5, 341000, Note_on_c, 9, 51, 0
5, 341287, Note_on_c, 9, 51, 85
5, 341289, Note_on_c, 9, 53, 63
5, 341530, Note_on_c, 9, 53, 0
5, 341573, Note_on_c, 9, 51, 0
5, 341756, Note_on_c, 9, 51, 46
5, 341898, Note_on_c, 9, 51, 0
5, 342236, Note_on_c, 9, 51, 42
5, 342352, Note_on_c, 9, 51, 0
5, 342718, Note_on_c, 9, 51, 50
5, 342816, Note_on_c, 9, 51, 0
5, 343200, Note_on_c, 9, 51, 34
5, 343247, Note_on_c, 9, 51, 0
5, 343433, Note_on_c, 9, 51, 56
5, 343502, Note_on_c, 9, 51, 0
5, 343684, Note_on_c, 9, 51, 64
5, 343859, Note_on_c, 9, 51, 0
5, 344153, Note_on_c, 9, 51, 67
5, 344246, Note_on_c, 9, 51, 0
5, 344647, Note_on_c, 9, 51, 58
5, 344698, Note_on_c, 9, 51, 0
5, 344880, Note_on_c, 9, 51, 59
5, 344959, Note_on_c, 9, 51, 0
5, 345113, Note_on_c, 9, 51, 60
5, 345356, Note_on_c, 9, 51, 0
5, 345593, Note_on_c, 9, 51, 71
5, 345732, Note_on_c, 9, 51, 0
5, 346071, Note_on_c, 9, 52, 50
5, 346073, Note_on_c, 9, 51, 42
5, 346084, Note_on_c, 9, 53, 60
5, 346139, Note_on_c, 9, 52, 0
5, 346161, Note_on_c, 9, 51, 0
5, 346274, Note_on_c, 9, 53, 0
5, 346562, Note_on_c, 9, 51, 50
5, 346695, Note_on_c, 9, 51, 0
5, 347038, Note_on_c, 9, 51, 53
5, 347172, Note_on_c, 9, 51, 0
5, 347520, Note_on_c, 9, 51, 59
5, 347615, Note_on_c, 9, 51, 0
5, 347760, Note_on_c, 9, 51, 44
5, 347852, Note_on_c, 9, 51, 0
5, 347991, Note_on_c, 9, 51, 67
5, 348091, Note_on_c, 9, 51, 0
5, 348729, Note_on_c, 9, 51, 53
5, 348825, Note_on_c, 9, 51, 0
5, 348969, Note_on_c, 9, 51, 54
5, 349125, Note_on_c, 9, 51, 0
5, 349440, Note_on_c, 9, 53, 48
5, 349442, Note_on_c, 9, 51, 61
5, 349939, Note_on_c, 9, 53, 0
5, 349941, Note_on_c, 9, 51, 0
5, 350167, Note_on_c, 9, 51, 56
5, 350279, Note_on_c, 9, 51, 0
5, 350396, Note_on_c, 9, 53, 44
5, 350407, Note_on_c, 9, 51, 51
5, 350875, Note_on_c, 9, 51, 0
5, 350886, Note_on_c, 9, 53, 0
5, 351129, Note_on_c, 9, 51, 55
5, 351221, Note_on_c, 9, 51, 0
5, 351364, Note_on_c, 9, 53, 47
5, 351369, Note_on_c, 9, 51, 46
5, 351949, Note_on_c, 9, 51, 0
5, 351968, Note_on_c, 9, 53, 0
5, 352089, Note_on_c, 9, 51, 47
5, 352158, Note_on_c, 9, 51, 0
5, 352311, Note_on_c, 9, 51, 47
5, 352322, Note_on_c, 9, 53, 45
5, 352540, Note_on_c, 9, 53, 0
5, 352561, Note_on_c, 9, 51, 0
5, 352809, Note_on_c, 9, 51, 72
5, 353068, Note_on_c, 9, 51, 0
5, 353280, Note_on_c, 9, 51, 75
5, 353810, Note_on_c, 9, 51, 0
5, 354000, Note_on_c, 9, 51, 57
5, 354099, Note_on_c, 9, 51, 0
5, 354233, Note_on_c, 9, 51, 54
5, 354244, Note_on_c, 9, 53, 48
5, 354831, Note_on_c, 9, 53, 0
5, 354839, Note_on_c, 9, 51, 0
5, 354951, Note_on_c, 9, 51, 38
5, 355032, Note_on_c, 9, 51, 0
5, 355202, Note_on_c, 9, 53, 34
5, 355209, Note_on_c, 9, 51, 53
5, 355362, Note_on_c, 9, 53, 0
5, 355387, Note_on_c, 9, 51, 0
5, 355680, Note_on_c, 9, 51, 70
5, 355689, Note_on_c, 9, 53, 50
5, 356039, Note_on_c, 9, 51, 0
5, 356049, Note_on_c, 9, 53, 0
5, 356393, Note_on_c, 9, 51, 58
5, 356489, Note_on_c, 9, 51, 0
5, 356633, Note_on_c, 9, 51, 48
5, 356644, Note_on_c, 9, 53, 43
5, 356811, Note_on_c, 9, 51, 0
5, 356817, Note_on_c, 9, 53, 0
5, 357116, Note_on_c, 9, 53, 50
5, 357116, Note_on_c, 9, 51, 67
5, 357307, Note_on_c, 9, 51, 0
5, 357307, Note_on_c, 9, 53, 0
5, 357600, Note_on_c, 9, 53, 48
5, 357602, Note_on_c, 9, 51, 61
5, 357829, Note_on_c, 9, 53, 0
5, 357868, Note_on_c, 9, 51, 0
5, 358087, Note_on_c, 9, 51, 62
5, 358253, Note_on_c, 9, 51, 0
5, 358551, Note_on_c, 9, 53, 44
5, 358567, Note_on_c, 9, 51, 67
5, 358760, Note_on_c, 9, 53, 0
5, 358780, Note_on_c, 9, 51, 0
5, 359031, Note_on_c, 9, 51, 65
5, 359049, Note_on_c, 9, 53, 43
5, 359276, Note_on_c, 9, 51, 0
5, 359280, Note_on_c, 9, 53, 0
5, 359769, Note_on_c, 9, 51, 40
5, 359819, Note_on_c, 9, 51, 0
5, 359996, Note_on_c, 9, 51, 48
5, 360000, Note_on_c, 9, 53, 41
5, 360300, Note_on_c, 9, 53, 0
5, 360326, Note_on_c, 9, 51, 0
5, 360718, Note_on_c, 9, 51, 52
5, 360821, Note_on_c, 9, 51, 0
5, 360960, Note_on_c, 9, 53, 43
5, 360962, Note_on_c, 9, 51, 46
5, 361215, Note_on_c, 9, 51, 0
5, 361231, Note_on_c, 9, 53, 0
5, 361671, Note_on_c, 9, 51, 51
5, 361767, Note_on_c, 9, 51, 0
5, 361913, Note_on_c, 9, 51, 55
5, 361927, Note_on_c, 9, 53, 40
5, 362087, Note_on_c, 9, 51, 0
5, 362120, Note_on_c, 9, 53, 0
5, 362391, Note_on_c, 9, 51, 57
5, 362393, Note_on_c, 9, 53, 32
5, 362582, Note_on_c, 9, 53, 0
5, 362594, Note_on_c, 9, 51, 0
5, 363351, Note_on_c, 9, 51, 55
5, 363367, Note_on_c, 9, 53, 38
5, 363534, Note_on_c, 9, 51, 0
5, 363549, Note_on_c, 9, 53, 0
5, 363833, Note_on_c, 9, 53, 42
5, 363849, Note_on_c, 9, 51, 56
5, 363993, Note_on_c, 9, 53, 0
5, 364026, Note_on_c, 9, 51, 0
5, 364329, Note_on_c, 9, 51, 52
5, 364443, Note_on_c, 9, 51, 0
5, 364802, Note_on_c, 9, 51, 76
5, 365030, Note_on_c, 9, 51, 0
5, 365273, Note_on_c, 9, 51, 31
5, 365331, Note_on_c, 9, 51, 0
5, 365764, Note_on_c, 9, 51, 52
5, 365996, Note_on_c, 9, 51, 0
5, 366236, Note_on_c, 9, 51, 31
5, 366309, Note_on_c, 9, 51, 0
5, 366476, Note_on_c, 9, 51, 48
5, 366565, Note_on_c, 9, 51, 0
5, 366724, Note_on_c, 9, 51, 50
5, 367002, Note_on_c, 9, 51, 0
5, 367442, Note_on_c, 9, 51, 44
5, 367526, Note_on_c, 9, 51, 0
5, 367684, Note_on_c, 9, 51, 51
5, 368018, Note_on_c, 9, 51, 0
5, 368404, Note_on_c, 9, 51, 42
5, 368482, Note_on_c, 9, 51, 0
5, 368640, Note_on_c, 9, 51, 48
5, 368936, Note_on_c, 9, 51, 0
5, 369118, Note_on_c, 9, 51, 47
5, 369287, Note_on_c, 9, 51, 0
5, 369600, Note_on_c, 9, 51, 61
5, 369765, Note_on_c, 9, 51, 0
5, 370311, Note_on_c, 9, 51, 50
5, 370395, Note_on_c, 9, 51, 0
5, 370562, Note_on_c, 9, 51, 50
5, 370816, Note_on_c, 9, 51, 0
5, 371278, Note_on_c, 9, 51, 46
5, 371325, Note_on_c, 9, 51, 0
5, 371527, Note_on_c, 9, 51, 53
5, 371788, Note_on_c, 9, 51, 0
5, 372244, Note_on_c, 9, 51, 52
5, 372333, Note_on_c, 9, 51, 0
5, 372489, Note_on_c, 9, 51, 56
5, 372832, Note_on_c, 9, 51, 0
5, 373209, Note_on_c, 9, 51, 55
5, 373279, Note_on_c, 9, 51, 0
5, 373431, Note_on_c, 9, 51, 56
5, 373662, Note_on_c, 9, 51, 0
5, 373918, Note_on_c, 9, 51, 37
5, 373920, Note_on_c, 9, 53, 36
5, 374166, Note_on_c, 9, 51, 0
5, 374233, Note_on_c, 9, 53, 0
5, 374398, Note_on_c, 9, 51, 52
5, 374400, Note_on_c, 9, 53, 44
5, 374638, Note_on_c, 9, 53, 0
5, 374686, Note_on_c, 9, 51, 0
5, 374871, Note_on_c, 9, 51, 38
5, 375000, Note_on_c, 9, 51, 0
5, 375362, Note_on_c, 9, 51, 64
5, 375688, Note_on_c, 9, 51, 0
5, 376071, Note_on_c, 9, 51, 38
5, 376126, Note_on_c, 9, 51, 0
5, 376318, Note_on_c, 9, 51, 45
5, 376607, Note_on_c, 9, 51, 0
5, 377031, Note_on_c, 9, 51, 38
5, 377111, Note_on_c, 9, 51, 0
5, 377287, Note_on_c, 9, 51, 54
5, 377501, Note_on_c, 9, 51, 0
5, 378009, Note_on_c, 9, 51, 43
5, 378070, Note_on_c, 9, 51, 0
5, 378233, Note_on_c, 9, 51, 50
5, 378452, Note_on_c, 9, 51, 0
5, 378711, Note_on_c, 9, 51, 54
5, 378720, Note_on_c, 9, 53, 35
5, 379407, Note_on_c, 9, 51, 0
5, 379437, Note_on_c, 9, 53, 0
5, 379689, Note_on_c, 9, 51, 53
5, 379944, Note_on_c, 9, 51, 0
5, 380153, Note_on_c, 9, 51, 55
5, 380391, Note_on_c, 9, 51, 0
5, 380638, Note_on_c, 9, 51, 45
5, 380760, Note_on_c, 9, 51, 0
5, 381120, Note_on_c, 9, 51, 70
5, 381761, Note_on_c, 9, 51, 0
5, 381838, Note_on_c, 9, 51, 53
5, 381916, Note_on_c, 9, 51, 0
5, 382071, Note_on_c, 9, 51, 57
5, 382729, Note_on_c, 9, 51, 0
5, 382802, Note_on_c, 9, 51, 44
5, 382857, Note_on_c, 9, 51, 0
5, 383036, Note_on_c, 9, 51, 52
5, 383244, Note_on_c, 9, 51, 0
5, 383529, Note_on_c, 9, 51, 69
5, 383722, Note_on_c, 9, 51, 0
5, 384002, Note_on_c, 9, 51, 69
5, 384609, Note_on_c, 9, 51, 0
5, 384951, Note_on_c, 9, 51, 69
5, 385550, Note_on_c, 9, 51, 0
5, 385916, Note_on_c, 9, 51, 59
5, 386017, Note_on_c, 9, 51, 0
5, 386162, Note_on_c, 9, 51, 39
5, 386290, Note_on_c, 9, 51, 0
5, 386398, Note_on_c, 9, 51, 48
5, 386510, Note_on_c, 9, 51, 0
5, 386884, Note_on_c, 9, 51, 63
5, 387052, Note_on_c, 9, 51, 0
5, 387356, Note_on_c, 9, 51, 55
5, 387467, Note_on_c, 9, 51, 0
5, 387833, Note_on_c, 9, 51, 63
5, 388371, Note_on_c, 9, 51, 0
5, 388804, Note_on_c, 9, 53, 54
5, 388992, Note_on_c, 9, 53, 0
5, 389280, Note_on_c, 9, 51, 50
5, 389430, Note_on_c, 9, 51, 0
5, 389762, Note_on_c, 9, 51, 50
5, 389923, Note_on_c, 9, 51, 0
5, 390249, Note_on_c, 9, 51, 60
5, 390532, Note_on_c, 9, 51, 0
5, 391200, Note_on_c, 9, 51, 55
5, 391301, Note_on_c, 9, 51, 0
5, 391671, Note_on_c, 9, 51, 51
5, 391816, Note_on_c, 9, 51, 0
5, 392162, Note_on_c, 9, 51, 62
5, 392322, Note_on_c, 9, 51, 0
5, 393116, Note_on_c, 9, 51, 67
5, 393258, Note_on_c, 9, 51, 0
5, 393593, Note_on_c, 9, 51, 59
5, 393756, Note_on_c, 9, 51, 0
5, 394082, Note_on_c, 9, 51, 64
5, 394089, Note_on_c, 9, 53, 50
5, 394366, Note_on_c, 9, 53, 0
5, 394377, Note_on_c, 9, 51, 0
5, 394553, Note_on_c, 9, 51, 30
5, 394603, Note_on_c, 9, 51, 0
5, 395042, Note_on_c, 9, 51, 51
5, 395174, Note_on_c, 9, 51, 0
5, 395522, Note_on_c, 9, 51, 42
5, 395644, Note_on_c, 9, 51, 0
5, 395996, Note_on_c, 9, 51, 67
5, 396509, Note_on_c, 9, 51, 0
5, 396711, Note_on_c, 9, 51, 50
5, 396809, Note_on_c, 9, 51, 0
5, 396960, Note_on_c, 9, 51, 56
5, 397118, Note_on_c, 9, 51, 0
5, 397438, Note_on_c, 9, 51, 62
5, 397634, Note_on_c, 9, 51, 0
5, 397913, Note_on_c, 9, 51, 60
5, 398047, Note_on_c, 9, 51, 0
5, 398402, Note_on_c, 9, 51, 69
5, 398407, Note_on_c, 9, 53, 57
5, 398697, Note_on_c, 9, 53, 0
5, 398713, Note_on_c, 9, 51, 0
5, 398873, Note_on_c, 9, 51, 52
5, 399041, Note_on_c, 9, 51, 0
5, 399356, Note_on_c, 9, 51, 54
5, 399528, Note_on_c, 9, 51, 0
5, 399847, Note_on_c, 9, 51, 57
5, 400212, Note_on_c, 9, 51, 0
5, 400800, Note_on_c, 9, 51, 56
5, 400970, Note_on_c, 9, 51, 0
5, 401284, Note_on_c, 9, 51, 60
5, 401425, Note_on_c, 9, 51, 0
5, 401767, Note_on_c, 9, 51, 69
5, 402131, Note_on_c, 9, 51, 0
5, 402233, Note_on_c, 9, 53, 52
5, 402249, Note_on_c, 9, 51, 51
5, 402542, Note_on_c, 9, 53, 0
5, 402559, Note_on_c, 9, 51, 0
5, 402729, Note_on_c, 9, 51, 58
5, 402999, Note_on_c, 9, 51, 0
5, 403680, Note_on_c, 9, 51, 61
5, 403785, Note_on_c, 9, 51, 0
5, 403920, Note_on_c, 9, 51, 49
5, 404030, Note_on_c, 9, 51, 0
5, 404151, Note_on_c, 9, 51, 59
5, 404318, Note_on_c, 9, 51, 0
5, 404638, Note_on_c, 9, 51, 72
5, 404642, Note_on_c, 9, 53, 57
5, 404934, Note_on_c, 9, 51, 0
5, 404970, Note_on_c, 9, 53, 0
5, 405120, Note_on_c, 9, 51, 43
5, 405205, Note_on_c, 9, 51, 0
5, 405358, Note_on_c, 9, 51, 42
5, 405441, Note_on_c, 9, 51, 0
5, 405593, Note_on_c, 9, 51, 72
5, 405850, Note_on_c, 9, 51, 0
5, 406082, Note_on_c, 9, 53, 49
5, 406084, Note_on_c, 9, 51, 71
5, 406463, Note_on_c, 9, 53, 0
5, 406477, Note_on_c, 9, 51, 0
5, 406800, Note_on_c, 9, 51, 54
5, 406909, Note_on_c, 9, 51, 0
5, 407049, Note_on_c, 9, 51, 57
5, 407251, Note_on_c, 9, 51, 0
5, 407518, Note_on_c, 9, 51, 67
5, 407710, Note_on_c, 9, 51, 0
5, 408004, Note_on_c, 9, 53, 41
5, 408009, Note_on_c, 9, 51, 60
5, 408485, Note_on_c, 9, 53, 0
5, 408592, Note_on_c, 9, 51, 0
5, 408956, Note_on_c, 9, 51, 55
5, 409171, Note_on_c, 9, 51, 0
5, 409444, Note_on_c, 9, 51, 50
5, 409691, Note_on_c, 9, 51, 0
5, 409918, Note_on_c, 9, 51, 68
5, 409927, Note_on_c, 9, 53, 45
5, 410182, Note_on_c, 9, 51, 0
5, 410228, Note_on_c, 9, 53, 0
5, 410633, Note_on_c, 9, 51, 59
5, 410730, Note_on_c, 9, 51, 0
5, 410873, Note_on_c, 9, 51, 58
5, 411207, Note_on_c, 9, 51, 0
5, 411602, Note_on_c, 9, 51, 47
5, 411753, Note_on_c, 9, 51, 0
5, 411840, Note_on_c, 9, 51, 57
5, 412014, Note_on_c, 9, 51, 0
5, 412316, Note_on_c, 9, 51, 74
5, 412566, Note_on_c, 9, 51, 0
5, 412798, Note_on_c, 9, 51, 71
5, 412995, Note_on_c, 9, 51, 0
5, 413287, Note_on_c, 9, 51, 76
5, 413768, Note_on_c, 9, 51, 0
5, 414231, Note_on_c, 9, 51, 69
5, 414376, Note_on_c, 9, 51, 0
5, 414711, Note_on_c, 9, 51, 69
5, 414881, Note_on_c, 9, 51, 0
5, 415209, Note_on_c, 9, 51, 72
5, 415437, Note_on_c, 9, 51, 0
5, 415671, Note_on_c, 9, 51, 68
5, 415682, Note_on_c, 9, 53, 50
5, 416379, Note_on_c, 9, 51, 0
5, 416388, Note_on_c, 9, 53, 0
5, 416640, Note_on_c, 9, 51, 55
5, 416770, Note_on_c, 9, 51, 0
5, 416876, Note_on_c, 9, 51, 48
5, 416981, Note_on_c, 9, 51, 0
5, 417111, Note_on_c, 9, 51, 51
5, 417116, Note_on_c, 9, 53, 51
5, 417428, Note_on_c, 9, 53, 0
5, 417428, Note_on_c, 9, 51, 0
5, 417596, Note_on_c, 9, 51, 52
5, 417845, Note_on_c, 9, 51, 0
5, 418082, Note_on_c, 9, 51, 71
5, 418298, Note_on_c, 9, 51, 0
5, 418553, Note_on_c, 9, 51, 68
5, 418783, Note_on_c, 9, 51, 0
5, 419036, Note_on_c, 9, 51, 67
5, 419237, Note_on_c, 9, 51, 0
5, 419518, Note_on_c, 9, 53, 43
5, 419522, Note_on_c, 9, 51, 65
5, 420094, Note_on_c, 9, 53, 0
5, 420157, Note_on_c, 9, 51, 0
5, 420489, Note_on_c, 9, 51, 69
5, 421139, Note_on_c, 9, 51, 0
5, 421440, Note_on_c, 9, 51, 57
5, 422064, Note_on_c, 9, 51, 0
5, 422153, Note_on_c, 9, 51, 49
5, 422249, Note_on_c, 9, 51, 0
5, 422407, Note_on_c, 9, 51, 55
5, 422881, Note_on_c, 9, 51, 0
5, 423362, Note_on_c, 9, 51, 65
5, 423963, Note_on_c, 9, 51, 0
5, 424329, Note_on_c, 9, 53, 37
5, 424329, Note_on_c, 9, 51, 60
5, 424434, Note_on_c, 9, 53, 0
5, 424446, Note_on_c, 9, 51, 0
5, 424796, Note_on_c, 9, 51, 60
5, 424802, Note_on_c, 9, 53, 44
5, 424949, Note_on_c, 9, 53, 0
5, 424965, Note_on_c, 9, 51, 0
5, 425287, Note_on_c, 9, 53, 47
5, 425289, Note_on_c, 9, 51, 59
5, 425525, Note_on_c, 9, 53, 0
5, 425543, Note_on_c, 9, 51, 0
5, 425998, Note_on_c, 9, 51, 53
5, 426087, Note_on_c, 9, 51, 0
5, 426238, Note_on_c, 9, 51, 54
5, 426430, Note_on_c, 9, 51, 0
5, 426718, Note_on_c, 9, 51, 60
5, 426889, Note_on_c, 9, 51, 0
5, 427202, Note_on_c, 9, 51, 63
5, 427774, Note_on_c, 9, 51, 0
5, 428151, Note_on_c, 9, 51, 60
5, 428380, Note_on_c, 9, 51, 0
5, 428642, Note_on_c, 9, 51, 59
5, 428784, Note_on_c, 9, 51, 0
5, 429122, Note_on_c, 9, 51, 67
5, 429714, Note_on_c, 9, 51, 0
5, 430080, Note_on_c, 9, 51, 51
5, 430087, Note_on_c, 9, 51, 68
5, 430185, Note_on_c, 9, 51, 0
5, 430370, Note_on_c, 9, 51, 0
5, 430551, Note_on_c, 9, 51, 67
5, 430830, Note_on_c, 9, 51, 0
5, 431047, Note_on_c, 9, 51, 70
5, 432163, Note_on_c, 9, 51, 0
5, 432487, Note_on_c, 9, 51, 55
5, 432609, Note_on_c, 9, 51, 0
5, 432724, Note_on_c, 9, 51, 40
5, 432778, Note_on_c, 9, 51, 0
5, 432962, Note_on_c, 9, 51, 60
5, 433169, Note_on_c, 9, 51, 0
5, 433444, Note_on_c, 9, 51, 57
5, 433618, Note_on_c, 9, 51, 0
5, 433916, Note_on_c, 9, 51, 69
5, 434464, Note_on_c, 9, 51, 0
5, 434649, Note_on_c, 9, 51, 43
5, 434738, Note_on_c, 9, 51, 0
5, 434873, Note_on_c, 9, 51, 47
5, 435097, Note_on_c, 9, 51, 0
5, 435847, Note_on_c, 9, 51, 40
5, 436097, Note_on_c, 9, 51, 0
5, 436320, Note_on_c, 9, 51, 46
5, 436533, Note_on_c, 9, 51, 0
5, 436796, Note_on_c, 9, 51, 39
5, 437115, Note_on_c, 9, 51, 0
5, 437282, Note_on_c, 9, 59, 68
5, 437598, Note_on_c, 9, 59, 0
5, 437767, Note_on_c, 9, 51, 39
5, 437958, Note_on_c, 9, 51, 0
5, 438231, Note_on_c, 9, 51, 44
5, 438381, Note_on_c, 9, 51, 0
5, 438727, Note_on_c, 9, 59, 50
5, 438727, Note_on_c, 9, 51, 64
5, 439004, Note_on_c, 9, 51, 0
5, 439015, Note_on_c, 9, 59, 0
5, 439193, Note_on_c, 9, 51, 43
5, 439294, Note_on_c, 9, 51, 0
5, 439433, Note_on_c, 9, 59, 55
5, 439449, Note_on_c, 9, 51, 73
5, 439523, Note_on_c, 9, 59, 0
5, 439545, Note_on_c, 9, 51, 0
5, 439673, Note_on_c, 9, 59, 45
5, 439684, Note_on_c, 9, 51, 57
5, 439951, Note_on_c, 9, 59, 0
5, 439976, Note_on_c, 9, 51, 0
5, 440164, Note_on_c, 9, 51, 45
5, 440292, Note_on_c, 9, 51, 0
5, 440649, Note_on_c, 9, 51, 62
5, 440961, Note_on_c, 9, 51, 0
5, 441113, Note_on_c, 9, 51, 36
5, 441168, Note_on_c, 9, 51, 0
5, 441353, Note_on_c, 9, 51, 47
5, 441428, Note_on_c, 9, 51, 0
5, 441593, Note_on_c, 9, 51, 68
5, 441790, Note_on_c, 9, 51, 0
5, 442082, Note_on_c, 9, 51, 62
5, 442087, Note_on_c, 9, 53, 44
5, 442257, Note_on_c, 9, 51, 0
5, 442259, Note_on_c, 9, 53, 0
5, 442562, Note_on_c, 9, 53, 40
5, 442569, Note_on_c, 9, 51, 57
5, 443256, Note_on_c, 9, 53, 0
5, 443270, Note_on_c, 9, 51, 0
5, 443520, Note_on_c, 9, 51, 49
5, 443705, Note_on_c, 9, 51, 0
5, 443991, Note_on_c, 9, 51, 55
5, 444364, Note_on_c, 9, 51, 0
5, 444711, Note_on_c, 9, 51, 53
5, 444821, Note_on_c, 9, 51, 0
5, 444960, Note_on_c, 9, 51, 47
5, 445128, Note_on_c, 9, 51, 0
5, 445440, Note_on_c, 9, 51, 67
5, 445647, Note_on_c, 9, 51, 0
5, 445913, Note_on_c, 9, 51, 63
5, 446081, Note_on_c, 9, 51, 0
5, 446407, Note_on_c, 9, 53, 41
5, 446409, Note_on_c, 9, 51, 68
5, 446687, Note_on_c, 9, 53, 0
5, 446690, Note_on_c, 9, 51, 0
5, 446889, Note_on_c, 9, 51, 46
5, 446993, Note_on_c, 9, 51, 0
5, 447604, Note_on_c, 9, 51, 53
5, 447700, Note_on_c, 9, 51, 0
5, 447833, Note_on_c, 9, 53, 55
5, 447840, Note_on_c, 9, 51, 60
5, 448102, Note_on_c, 9, 53, 0
5, 448133, Note_on_c, 9, 51, 0
5, 448324, Note_on_c, 9, 51, 58
5, 448553, Note_on_c, 9, 51, 0
5, 448796, Note_on_c, 9, 51, 69
5, 449019, Note_on_c, 9, 51, 0
5, 449273, Note_on_c, 9, 51, 69
5, 449563, Note_on_c, 9, 51, 0
5, 449753, Note_on_c, 9, 53, 37
5, 449762, Note_on_c, 9, 51, 44
5, 449930, Note_on_c, 9, 53, 0
5, 449959, Note_on_c, 9, 51, 0
5, 450242, Note_on_c, 9, 51, 61
5, 450244, Note_on_c, 9, 53, 40
5, 450476, Note_on_c, 9, 53, 0
5, 450491, Note_on_c, 9, 51, 0
5, 451196, Note_on_c, 9, 53, 37
5, 451204, Note_on_c, 9, 51, 59
5, 451311, Note_on_c, 9, 53, 0
5, 451326, Note_on_c, 9, 51, 0
5, 451676, Note_on_c, 9, 51, 59
5, 451678, Note_on_c, 9, 53, 40
5, 451934, Note_on_c, 9, 53, 0
5, 451966, Note_on_c, 9, 51, 0
5, 452636, Note_on_c, 9, 51, 51
5, 452732, Note_on_c, 9, 51, 0
5, 452889, Note_on_c, 9, 51, 48
5, 452985, Note_on_c, 9, 51, 0
5, 453127, Note_on_c, 9, 51, 51
5, 453350, Note_on_c, 9, 51, 0
5, 453598, Note_on_c, 9, 51, 55
5, 453982, Note_on_c, 9, 51, 0
5, 454311, Note_on_c, 9, 51, 42
5, 454422, Note_on_c, 9, 51, 0
5, 454569, Note_on_c, 9, 51, 43
5, 454840, Note_on_c, 9, 51, 0
5, 455042, Note_on_c, 9, 51, 51
5, 455235, Note_on_c, 9, 51, 0
5, 455511, Note_on_c, 9, 51, 52
5, 456095, Note_on_c, 9, 51, 0
5, 456480, Note_on_c, 9, 51, 57
5, 456625, Note_on_c, 9, 51, 0
5, 456953, Note_on_c, 9, 51, 60
5, 456964, Note_on_c, 9, 51, 64
5, 457051, Note_on_c, 9, 51, 0
5, 457100, Note_on_c, 9, 51, 0
5, 457687, Note_on_c, 9, 51, 54
5, 457746, Note_on_c, 9, 51, 0
5, 457911, Note_on_c, 9, 51, 52
5, 458175, Note_on_c, 9, 51, 0
5, 458631, Note_on_c, 9, 51, 49
5, 458691, Note_on_c, 9, 51, 0
5, 458878, Note_on_c, 9, 51, 57
5, 459339, Note_on_c, 9, 51, 0
5, 459604, Note_on_c, 9, 53, 47
5, 459746, Note_on_c, 9, 53, 0
5, 459840, Note_on_c, 9, 51, 36
5, 460157, Note_on_c, 9, 51, 0
5, 460311, Note_on_c, 9, 51, 43
5, 460473, Note_on_c, 9, 51, 0
5, 460809, Note_on_c, 9, 51, 61
5, 460940, Note_on_c, 9, 51, 0
5, 461527, Note_on_c, 9, 51, 51
5, 461641, Note_on_c, 9, 51, 0
5, 461767, Note_on_c, 9, 51, 50
5, 461859, Note_on_c, 9, 51, 0
5, 462482, Note_on_c, 9, 51, 52
5, 462570, Note_on_c, 9, 51, 0
5, 462711, Note_on_c, 9, 51, 48
5, 462882, Note_on_c, 9, 51, 0
5, 463202, Note_on_c, 9, 51, 40
5, 463245, Note_on_c, 9, 51, 0
5, 463440, Note_on_c, 9, 51, 44
5, 463493, Note_on_c, 9, 51, 0
5, 463676, Note_on_c, 9, 51, 40
5, 463886, Note_on_c, 9, 51, 0
5, 464407, Note_on_c, 9, 51, 69
5, 464492, Note_on_c, 9, 51, 0
5, 464642, Note_on_c, 9, 51, 57
5, 464766, Note_on_c, 9, 51, 0
5, 465124, Note_on_c, 9, 51, 64
5, 465265, Note_on_c, 9, 51, 0
5, 465604, Note_on_c, 9, 51, 64
5, 465747, Note_on_c, 9, 51, 0
5, 466318, Note_on_c, 9, 51, 46
5, 466419, Note_on_c, 9, 51, 0
5, 466562, Note_on_c, 9, 51, 58
5, 466815, Note_on_c, 9, 51, 0
5, 467273, Note_on_c, 9, 51, 52
5, 467383, Note_on_c, 9, 51, 0
5, 467520, Note_on_c, 9, 51, 55
5, 467648, Note_on_c, 9, 51, 0
5, 467996, Note_on_c, 9, 53, 66
5, 468200, Note_on_c, 9, 53, 0
5, 468471, Note_on_c, 9, 51, 46
5, 468639, Note_on_c, 9, 51, 0
5, 468967, Note_on_c, 9, 51, 50
5, 469082, Note_on_c, 9, 51, 0
5, 469440, Note_on_c, 9, 51, 63
5, 469596, Note_on_c, 9, 51, 0
5, 470160, Note_on_c, 9, 51, 52
5, 470225, Note_on_c, 9, 51, 0
5, 470391, Note_on_c, 9, 51, 49
5, 470616, Note_on_c, 9, 51, 0
5, 470873, Note_on_c, 9, 53, 59
5, 471172, Note_on_c, 9, 53, 0
5, 471353, Note_on_c, 9, 51, 37
5, 471462, Note_on_c, 9, 51, 0
5, 471840, Note_on_c, 9, 53, 66
5, 472129, Note_on_c, 9, 53, 0
5, 472327, Note_on_c, 9, 51, 37
5, 472612, Note_on_c, 9, 51, 0
5, 472798, Note_on_c, 9, 51, 43
5, 472891, Note_on_c, 9, 51, 0
5, 473047, Note_on_c, 9, 51, 33
5, 473101, Note_on_c, 9, 51, 0
5, 473276, Note_on_c, 9, 51, 48
5, 473464, Note_on_c, 9, 51, 0
5, 473758, Note_on_c, 9, 51, 37
5, 473804, Note_on_c, 9, 51, 0
5, 474009, Note_on_c, 9, 51, 50
5, 474070, Note_on_c, 9, 51, 0
5, 474244, Note_on_c, 9, 51, 48
5, 474394, Note_on_c, 9, 51, 0
5, 474960, Note_on_c, 9, 51, 43
5, 475031, Note_on_c, 9, 51, 0
5, 475209, Note_on_c, 9, 51, 43
5, 475352, Note_on_c, 9, 51, 0
5, 475680, Note_on_c, 9, 53, 47
5, 475680, Note_on_c, 9, 51, 71
5, 475938, Note_on_c, 9, 53, 0
5, 475963, Note_on_c, 9, 51, 0
5, 476162, Note_on_c, 9, 51, 36
5, 476282, Note_on_c, 9, 51, 0
5, 476407, Note_on_c, 9, 51, 38
5, 476466, Note_on_c, 9, 51, 0
5, 476649, Note_on_c, 9, 51, 44
5, 476854, Note_on_c, 9, 51, 0
5, 477111, Note_on_c, 9, 51, 55
5, 477218, Note_on_c, 9, 51, 0
5, 477607, Note_on_c, 9, 51, 74
5, 477607, Note_on_c, 9, 53, 68
5, 477849, Note_on_c, 9, 53, 0
5, 477911, Note_on_c, 9, 51, 0
5, 478076, Note_on_c, 9, 51, 39
5, 478227, Note_on_c, 9, 51, 0
5, 478320, Note_on_c, 9, 51, 53
5, 478394, Note_on_c, 9, 51, 0
5, 478558, Note_on_c, 9, 51, 55
5, 478682, Note_on_c, 9, 51, 0
5, 479033, Note_on_c, 9, 51, 69
5, 479237, Note_on_c, 9, 51, 0
5, 479511, Note_on_c, 9, 51, 85
5, 479529, Note_on_c, 9, 53, 63
5, 479770, Note_on_c, 9, 53, 0
5, 479797, Note_on_c, 9, 51, 0
5, 480009, Note_on_c, 9, 51, 46
5, 480151, Note_on_c, 9, 51, 0
5, 480478, Note_on_c, 9, 51, 42
5, 480594, Note_on_c, 9, 51, 0
5, 480960, Note_on_c, 9, 51, 50
5, 481058, Note_on_c, 9, 51, 0
5, 481431, Note_on_c, 9, 51, 34
5, 481478, Note_on_c, 9, 51, 0
5, 481684, Note_on_c, 9, 51, 56
5, 481753, Note_on_c, 9, 51, 0
5, 481922, Note_on_c, 9, 51, 64
5, 482097, Note_on_c, 9, 51, 0
5, 482393, Note_on_c, 9, 51, 67
5, 482486, Note_on_c, 9, 51, 0
5, 482884, Note_on_c, 9, 51, 58
5, 482935, Note_on_c, 9, 51, 0
5, 483122, Note_on_c, 9, 51, 59
5, 483201, Note_on_c, 9, 51, 0
5, 483356, Note_on_c, 9, 51, 60
5, 483599, Note_on_c, 9, 51, 0
5, 483842, Note_on_c, 9, 51, 71
5, 483981, Note_on_c, 9, 51, 0
5, 484311, Note_on_c, 9, 51, 42
5, 484318, Note_on_c, 9, 53, 60
5, 484320, Note_on_c, 9, 52, 50
5, 484388, Note_on_c, 9, 52, 0
5, 484399, Note_on_c, 9, 51, 0
5, 484508, Note_on_c, 9, 53, 0
5, 484791, Note_on_c, 9, 51, 50
5, 484924, Note_on_c, 9, 51, 0
5, 485278, Note_on_c, 9, 51, 53
5, 485412, Note_on_c, 9, 51, 0
5, 485764, Note_on_c, 9, 51, 59
5, 485859, Note_on_c, 9, 51, 0
5, 486000, Note_on_c, 9, 51, 44
5, 486092, Note_on_c, 9, 51, 0
5, 486242, Note_on_c, 9, 51, 67
5, 486342, Note_on_c, 9, 51, 0
5, 486951, Note_on_c, 9, 51, 53
5, 487047, Note_on_c, 9, 51, 0
5, 487204, Note_on_c, 9, 51, 54
5, 487360, Note_on_c, 9, 51, 0
5, 487671, Note_on_c, 9, 51, 61
5, 487676, Note_on_c, 9, 53, 48
5, 488170, Note_on_c, 9, 51, 0
5, 488175, Note_on_c, 9, 53, 0
5, 488391, Note_on_c, 9, 51, 56
5, 488503, Note_on_c, 9, 51, 0
5, 488638, Note_on_c, 9, 53, 44
5, 488642, Note_on_c, 9, 51, 51
5, 489110, Note_on_c, 9, 51, 0
5, 489128, Note_on_c, 9, 53, 0
5, 489364, Note_on_c, 9, 51, 55
5, 489456, Note_on_c, 9, 51, 0
5, 489598, Note_on_c, 9, 53, 47
5, 489600, Note_on_c, 9, 51, 46
5, 490180, Note_on_c, 9, 51, 0
5, 490202, Note_on_c, 9, 53, 0
5, 490313, Note_on_c, 9, 51, 47
5, 490382, Note_on_c, 9, 51, 0
5, 490551, Note_on_c, 9, 51, 47
5, 490562, Note_on_c, 9, 53, 45
5, 490780, Note_on_c, 9, 53, 0
5, 490801, Note_on_c, 9, 51, 0
5, 491040, Note_on_c, 9, 51, 72
5, 491299, Note_on_c, 9, 51, 0
5, 491529, Note_on_c, 9, 51, 75
5, 492059, Note_on_c, 9, 51, 0
5, 492231, Note_on_c, 9, 51, 57
5, 492330, Note_on_c, 9, 51, 0
5, 492476, Note_on_c, 9, 51, 54
5, 492478, Note_on_c, 9, 53, 48
5, 493065, Note_on_c, 9, 53, 0
5, 493082, Note_on_c, 9, 51, 0
5, 493198, Note_on_c, 9, 51, 38
5, 493279, Note_on_c, 9, 51, 0
5, 493436, Note_on_c, 9, 53, 34
5, 493438, Note_on_c, 9, 51, 53
5, 493596, Note_on_c, 9, 53, 0
5, 493616, Note_on_c, 9, 51, 0
5, 493920, Note_on_c, 9, 53, 50
5, 493927, Note_on_c, 9, 51, 70
5, 494280, Note_on_c, 9, 53, 0
5, 494286, Note_on_c, 9, 51, 0
5, 494642, Note_on_c, 9, 51, 58
5, 494738, Note_on_c, 9, 51, 0
5, 494876, Note_on_c, 9, 53, 43
5, 494878, Note_on_c, 9, 51, 48
5, 495049, Note_on_c, 9, 53, 0
5, 495056, Note_on_c, 9, 51, 0
5, 495362, Note_on_c, 9, 51, 67
5, 495367, Note_on_c, 9, 53, 50
5, 495553, Note_on_c, 9, 51, 0
5, 495558, Note_on_c, 9, 53, 0
5, 495840, Note_on_c, 9, 51, 61
5, 495849, Note_on_c, 9, 53, 48
5, 496078, Note_on_c, 9, 53, 0
5, 496106, Note_on_c, 9, 51, 0
5, 496320, Note_on_c, 9, 51, 62
5, 496486, Note_on_c, 9, 51, 0
5, 496791, Note_on_c, 9, 53, 44
5, 496798, Note_on_c, 9, 51, 67
5, 497000, Note_on_c, 9, 53, 0
5, 497011, Note_on_c, 9, 51, 0
5, 497282, Note_on_c, 9, 53, 43
5, 497287, Note_on_c, 9, 51, 65
5, 497513, Note_on_c, 9, 53, 0
5, 497532, Note_on_c, 9, 51, 0
5, 498004, Note_on_c, 9, 51, 40
5, 498054, Note_on_c, 9, 51, 0
5, 498236, Note_on_c, 9, 51, 48
5, 498238, Note_on_c, 9, 53, 41
5, 498538, Note_on_c, 9, 53, 0
5, 498566, Note_on_c, 9, 51, 0
5, 498958, Note_on_c, 9, 51, 52
5, 499061, Note_on_c, 9, 51, 0
5, 499191, Note_on_c, 9, 53, 43
5, 499202, Note_on_c, 9, 51, 46
5, 499455, Note_on_c, 9, 51, 0
5, 499462, Note_on_c, 9, 53, 0
5, 499920, Note_on_c, 9, 51, 51
5, 500016, Note_on_c, 9, 51, 0
5, 500169, Note_on_c, 9, 53, 40
5, 500169, Note_on_c, 9, 51, 55
5, 500343, Note_on_c, 9, 51, 0
5, 500362, Note_on_c, 9, 53, 0
5, 500636, Note_on_c, 9, 53, 32
5, 500636, Note_on_c, 9, 51, 57
5, 500825, Note_on_c, 9, 53, 0
5, 500839, Note_on_c, 9, 51, 0
5, 501600, Note_on_c, 9, 51, 55
5, 501607, Note_on_c, 9, 53, 38
5, 501783, Note_on_c, 9, 51, 0
5, 501789, Note_on_c, 9, 53, 0
5, 502080, Note_on_c, 9, 53, 42
5, 502087, Note_on_c, 9, 51, 56
5, 502240, Note_on_c, 9, 53, 0
5, 502264, Note_on_c, 9, 51, 0
5, 502560, Note_on_c, 9, 51, 52
5, 502674, Note_on_c, 9, 51, 0
5, 503049, Note_on_c, 9, 51, 76
5, 503277, Note_on_c, 9, 51, 0
5, 503511, Note_on_c, 9, 51, 31
5, 503569, Note_on_c, 9, 51, 0
5, 503993, Note_on_c, 9, 51, 52
5, 504225, Note_on_c, 9, 51, 0
5, 504476, Note_on_c, 9, 51, 31
5, 504549, Note_on_c, 9, 51, 0
5, 504729, Note_on_c, 9, 51, 48
5, 504818, Note_on_c, 9, 51, 0
5, 504960, Note_on_c, 9, 51, 50
5, 505238, Note_on_c, 9, 51, 0
5, 505680, Note_on_c, 9, 51, 44
5, 505764, Note_on_c, 9, 51, 0
5, 505927, Note_on_c, 9, 51, 51
5, 506261, Note_on_c, 9, 51, 0
5, 506638, Note_on_c, 9, 51, 42
5, 506716, Note_on_c, 9, 51, 0
5, 506887, Note_on_c, 9, 51, 48
5, 507183, Note_on_c, 9, 51, 0
5, 507356, Note_on_c, 9, 51, 47
5, 507525, Note_on_c, 9, 51, 0
5, 507833, Note_on_c, 9, 51, 61
5, 507998, Note_on_c, 9, 51, 0
5, 508562, Note_on_c, 9, 51, 50
5, 508646, Note_on_c, 9, 51, 0
5, 508793, Note_on_c, 9, 51, 50
5, 509047, Note_on_c, 9, 51, 0
5, 509524, Note_on_c, 9, 51, 46
5, 509571, Note_on_c, 9, 51, 0
5, 509760, Note_on_c, 9, 51, 53
5, 510021, Note_on_c, 9, 51, 0
5, 510489, Note_on_c, 9, 51, 52
5, 510578, Note_on_c, 9, 51, 0
5, 510711, Note_on_c, 9, 51, 56
5, 511054, Note_on_c, 9, 51, 0
5, 511444, Note_on_c, 9, 51, 55
5, 511514, Note_on_c, 9, 51, 0
5, 511680, Note_on_c, 9, 51, 56
5, 511911, Note_on_c, 9, 51, 0
5, 512156, Note_on_c, 9, 51, 37
5, 512158, Note_on_c, 9, 53, 36
5, 512404, Note_on_c, 9, 51, 0
5, 512471, Note_on_c, 9, 53, 0
5, 512633, Note_on_c, 9, 53, 44
5, 512640, Note_on_c, 9, 51, 52
5, 512871, Note_on_c, 9, 53, 0
5, 512928, Note_on_c, 9, 51, 0
5, 513118, Note_on_c, 9, 51, 38
5, 513247, Note_on_c, 9, 51, 0
5, 513607, Note_on_c, 9, 51, 64
5, 513933, Note_on_c, 9, 51, 0
5, 514329, Note_on_c, 9, 51, 38
5, 514384, Note_on_c, 9, 51, 0
5, 514560, Note_on_c, 9, 51, 45
5, 514849, Note_on_c, 9, 51, 0
5, 515278, Note_on_c, 9, 51, 38
5, 515358, Note_on_c, 9, 51, 0
5, 515524, Note_on_c, 9, 51, 54
5, 515738, Note_on_c, 9, 51, 0
5, 516233, Note_on_c, 9, 51, 43
5, 516294, Note_on_c, 9, 51, 0
5, 516478, Note_on_c, 9, 51, 50
5, 516697, Note_on_c, 9, 51, 0
5, 516967, Note_on_c, 9, 51, 54
5, 516969, Note_on_c, 9, 53, 35
5, 517663, Note_on_c, 9, 51, 0
5, 517686, Note_on_c, 9, 53, 0
5, 517929, Note_on_c, 9, 51, 53
5, 518184, Note_on_c, 9, 51, 0
5, 518396, Note_on_c, 9, 51, 55
5, 518634, Note_on_c, 9, 51, 0
5, 518884, Note_on_c, 9, 51, 45
5, 519006, Note_on_c, 9, 51, 0
5, 519353, Note_on_c, 9, 51, 70
5, 519994, Note_on_c, 9, 51, 0
5, 520089, Note_on_c, 9, 51, 53
5, 520167, Note_on_c, 9, 51, 0
5, 520322, Note_on_c, 9, 51, 57
5, 520980, Note_on_c, 9, 51, 0
5, 521049, Note_on_c, 9, 51, 44
5, 521104, Note_on_c, 9, 51, 0
5, 521280, Note_on_c, 9, 51, 52
5, 521488, Note_on_c, 9, 51, 0
5, 521764, Note_on_c, 9, 51, 69
5, 521957, Note_on_c, 9, 51, 0
5, 522231, Note_on_c, 9, 51, 69
5, 522838, Note_on_c, 9, 51, 0
5, 523204, Note_on_c, 9, 51, 69
5, 523803, Note_on_c, 9, 51, 0
5, 524156, Note_on_c, 9, 51, 59
5, 524257, Note_on_c, 9, 51, 0
5, 524398, Note_on_c, 9, 51, 39
5, 524526, Note_on_c, 9, 51, 0
5, 524636, Note_on_c, 9, 51, 48
5, 524748, Note_on_c, 9, 51, 0
5, 525124, Note_on_c, 9, 51, 63
5, 525292, Note_on_c, 9, 51, 0
5, 525602, Note_on_c, 9, 51, 55
5, 525713, Note_on_c, 9, 51, 0
5, 526087, Note_on_c, 9, 51, 63
5, 526625, Note_on_c, 9, 51, 0
5, 527040, Note_on_c, 9, 53, 54
5, 527228, Note_on_c, 9, 53, 0
5, 527529, Note_on_c, 9, 51, 50
5, 527679, Note_on_c, 9, 51, 0
5, 527993, Note_on_c, 9, 51, 50
5, 528154, Note_on_c, 9, 51, 0
5, 528471, Note_on_c, 9, 51, 60
5, 528754, Note_on_c, 9, 51, 0
5, 529449, Note_on_c, 9, 51, 55
5, 529550, Note_on_c, 9, 51, 0
5, 529916, Note_on_c, 9, 51, 51
5, 530061, Note_on_c, 9, 51, 0
5, 530393, Note_on_c, 9, 51, 62
5, 530553, Note_on_c, 9, 51, 0
5, 531360, Note_on_c, 9, 51, 67
5, 531502, Note_on_c, 9, 51, 0
5, 531847, Note_on_c, 9, 51, 59
5, 532010, Note_on_c, 9, 51, 0
5, 532311, Note_on_c, 9, 51, 64
5, 532320, Note_on_c, 9, 53, 50
5, 532597, Note_on_c, 9, 53, 0
5, 532606, Note_on_c, 9, 51, 0
5, 532791, Note_on_c, 9, 51, 30
5, 532841, Note_on_c, 9, 51, 0
5, 533284, Note_on_c, 9, 51, 51
5, 533416, Note_on_c, 9, 51, 0
5, 533760, Note_on_c, 9, 51, 42
5, 533882, Note_on_c, 9, 51, 0
5, 534233, Note_on_c, 9, 51, 67
5, 534746, Note_on_c, 9, 51, 0
5, 534953, Note_on_c, 9, 51, 50
5, 535051, Note_on_c, 9, 51, 0
5, 535207, Note_on_c, 9, 51, 56
5, 535365, Note_on_c, 9, 51, 0
5, 535689, Note_on_c, 9, 51, 62
5, 535885, Note_on_c, 9, 51, 0
5, 536153, Note_on_c, 9, 51, 60
5, 536287, Note_on_c, 9, 51, 0
5, 536636, Note_on_c, 9, 51, 69
5, 536649, Note_on_c, 9, 53, 57
5, 536939, Note_on_c, 9, 53, 0
5, 536947, Note_on_c, 9, 51, 0
5, 537113, Note_on_c, 9, 51, 52
5, 537281, Note_on_c, 9, 51, 0
5, 537600, Note_on_c, 9, 51, 54
5, 537772, Note_on_c, 9, 51, 0
5, 538076, Note_on_c, 9, 51, 57
5, 538441, Note_on_c, 9, 51, 0
5, 539044, Note_on_c, 9, 51, 56
5, 539214, Note_on_c, 9, 51, 0
5, 539511, Note_on_c, 9, 51, 60
5, 539652, Note_on_c, 9, 51, 0
5, 539991, Note_on_c, 9, 51, 69
5, 540355, Note_on_c, 9, 51, 0
5, 540482, Note_on_c, 9, 53, 52
5, 540487, Note_on_c, 9, 51, 51
5, 540791, Note_on_c, 9, 53, 0
5, 540797, Note_on_c, 9, 51, 0
5, 540951, Note_on_c, 9, 51, 58
5, 541221, Note_on_c, 9, 51, 0
5, 541922, Note_on_c, 9, 51, 61
5, 542027, Note_on_c, 9, 51, 0
5, 542169, Note_on_c, 9, 51, 49
5, 542279, Note_on_c, 9, 51, 0
5, 542398, Note_on_c, 9, 51, 59
5, 542565, Note_on_c, 9, 51, 0
5, 542871, Note_on_c, 9, 51, 72
5, 542889, Note_on_c, 9, 53, 57
5, 543167, Note_on_c, 9, 51, 0
5, 543217, Note_on_c, 9, 53, 0
5, 543369, Note_on_c, 9, 51, 43
5, 543454, Note_on_c, 9, 51, 0
5, 543596, Note_on_c, 9, 51, 42
5, 543679, Note_on_c, 9, 51, 0
5, 543842, Note_on_c, 9, 51, 72
5, 544099, Note_on_c, 9, 51, 0
5, 544318, Note_on_c, 9, 53, 49
5, 544327, Note_on_c, 9, 51, 71
5, 544699, Note_on_c, 9, 53, 0
5, 544720, Note_on_c, 9, 51, 0
5, 545040, Note_on_c, 9, 51, 54
5, 545149, Note_on_c, 9, 51, 0
5, 545280, Note_on_c, 9, 51, 57
5, 545482, Note_on_c, 9, 51, 0
5, 545769, Note_on_c, 9, 51, 67
5, 545961, Note_on_c, 9, 51, 0
5, 546236, Note_on_c, 9, 51, 60
5, 546238, Note_on_c, 9, 53, 41
5, 546719, Note_on_c, 9, 53, 0
5, 546819, Note_on_c, 9, 51, 0
5, 547193, Note_on_c, 9, 51, 55
5, 547408, Note_on_c, 9, 51, 0
5, 547682, Note_on_c, 9, 51, 50
5, 547929, Note_on_c, 9, 51, 0
5, 548160, Note_on_c, 9, 51, 68
5, 548162, Note_on_c, 9, 53, 45
5, 548424, Note_on_c, 9, 51, 0
5, 548463, Note_on_c, 9, 53, 0
5, 548871, Note_on_c, 9, 51, 59
5, 548968, Note_on_c, 9, 51, 0
5, 549118, Note_on_c, 9, 51, 58
5, 549452, Note_on_c, 9, 51, 0
5, 549840, Note_on_c, 9, 51, 47
5, 549991, Note_on_c, 9, 51, 0
5, 550089, Note_on_c, 9, 51, 57
5, 550263, Note_on_c, 9, 51, 0
5, 550562, Note_on_c, 9, 51, 74
5, 550812, Note_on_c, 9, 51, 0
5, 551033, Note_on_c, 9, 51, 71
5, 551230, Note_on_c, 9, 51, 0
5, 551511, Note_on_c, 9, 51, 76
5, 551992, Note_on_c, 9, 51, 0
5, 552482, Note_on_c, 9, 51, 69
5, 552627, Note_on_c, 9, 51, 0
5, 552956, Note_on_c, 9, 51, 69
5, 553126, Note_on_c, 9, 51, 0
5, 553438, Note_on_c, 9, 51, 72
5, 553666, Note_on_c, 9, 51, 0
5, 553920, Note_on_c, 9, 51, 68
5, 553927, Note_on_c, 9, 53, 50
5, 554628, Note_on_c, 9, 51, 0
5, 554633, Note_on_c, 9, 53, 0
5, 554884, Note_on_c, 9, 51, 55
5, 555014, Note_on_c, 9, 51, 0
5, 555113, Note_on_c, 9, 51, 48
5, 555218, Note_on_c, 9, 51, 0
5, 555353, Note_on_c, 9, 51, 51
5, 555364, Note_on_c, 9, 53, 51
5, 555670, Note_on_c, 9, 51, 0
5, 555676, Note_on_c, 9, 53, 0
5, 555831, Note_on_c, 9, 51, 52
5, 556080, Note_on_c, 9, 51, 0
5, 556329, Note_on_c, 9, 51, 71
5, 556545, Note_on_c, 9, 51, 0
5, 556804, Note_on_c, 9, 51, 68
5, 557034, Note_on_c, 9, 51, 0
5, 557289, Note_on_c, 9, 51, 67
5, 557490, Note_on_c, 9, 51, 0
5, 557753, Note_on_c, 9, 53, 43
5, 557767, Note_on_c, 9, 51, 65
5, 558329, Note_on_c, 9, 53, 0
5, 558402, Note_on_c, 9, 51, 0
5, 558718, Note_on_c, 9, 51, 69
5, 559368, Note_on_c, 9, 51, 0
5, 559678, Note_on_c, 9, 51, 57
5, 560302, Note_on_c, 9, 51, 0
5, 560409, Note_on_c, 9, 51, 49
5, 560505, Note_on_c, 9, 51, 0
5, 560633, Note_on_c, 9, 51, 55
5, 561107, Note_on_c, 9, 51, 0
5, 561591, Note_on_c, 9, 51, 65
5, 562192, Note_on_c, 9, 51, 0
5, 562558, Note_on_c, 9, 51, 60
5, 562564, Note_on_c, 9, 53, 37
5, 562669, Note_on_c, 9, 53, 0
5, 562675, Note_on_c, 9, 51, 0
5, 563031, Note_on_c, 9, 53, 44
5, 563044, Note_on_c, 9, 51, 60
5, 563178, Note_on_c, 9, 53, 0
5, 563213, Note_on_c, 9, 51, 0
5, 563513, Note_on_c, 9, 53, 47
5, 563516, Note_on_c, 9, 51, 59
5, 563751, Note_on_c, 9, 53, 0
5, 563770, Note_on_c, 9, 51, 0
5, 564236, Note_on_c, 9, 51, 53
5, 564325, Note_on_c, 9, 51, 0
5, 564484, Note_on_c, 9, 51, 54
5, 564676, Note_on_c, 9, 51, 0
5, 564962, Note_on_c, 9, 51, 60
5, 565133, Note_on_c, 9, 51, 0
5, 565449, Note_on_c, 9, 51, 63
5, 566021, Note_on_c, 9, 51, 0
5, 566398, Note_on_c, 9, 51, 60
5, 566627, Note_on_c, 9, 51, 0
5, 566882, Note_on_c, 9, 51, 59
5, 567024, Note_on_c, 9, 51, 0
5, 567364, Note_on_c, 9, 51, 67
5, 567956, Note_on_c, 9, 51, 0
5, 568316, Note_on_c, 9, 51, 51
5, 568327, Note_on_c, 9, 51, 68
5, 568425, Note_on_c, 9, 51, 0
5, 568606, Note_on_c, 9, 51, 0
5, 568791, Note_on_c, 9, 51, 67
5, 569070, Note_on_c, 9, 51, 0
5, 569273, Note_on_c, 9, 51, 70
5, 570389, Note_on_c, 9, 51, 0
5, 570729, Note_on_c, 9, 51, 55
5, 570851, Note_on_c, 9, 51, 0
5, 570964, Note_on_c, 9, 51, 40
5, 571018, Note_on_c, 9, 51, 0
5, 571202, Note_on_c, 9, 51, 60
5, 571409, Note_on_c, 9, 51, 0
5, 571671, Note_on_c, 9, 51, 57
5, 571845, Note_on_c, 9, 51, 0
5, 572151, Note_on_c, 9, 51, 69
5, 572699, Note_on_c, 9, 51, 0
5, 572880, Note_on_c, 9, 51, 43
5, 572969, Note_on_c, 9, 51, 0
5, 573127, Note_on_c, 9, 51, 47
5, 573351, Note_on_c, 9, 51, 0
5, 574078, Note_on_c, 9, 51, 40
5, 574328, Note_on_c, 9, 51, 0
5, 574567, Note_on_c, 9, 51, 46
5, 574780, Note_on_c, 9, 51, 0
5, 575042, Note_on_c, 9, 51, 39
5, 575361, Note_on_c, 9, 51, 0
5, 575527, Note_on_c, 9, 59, 68
5, 575843, Note_on_c, 9, 59, 0
5, 576004, Note_on_c, 9, 51, 39
5, 576195, Note_on_c, 9, 51, 0
5, 576471, Note_on_c, 9, 51, 44
5, 576621, Note_on_c, 9, 51, 0
5, 576958, Note_on_c, 9, 59, 50
5, 576967, Note_on_c, 9, 51, 64
5, 577244, Note_on_c, 9, 51, 0
5, 577246, Note_on_c, 9, 59, 0
5, 577440, Note_on_c, 9, 51, 43
5, 577541, Note_on_c, 9, 51, 0
5, 577678, Note_on_c, 9, 59, 55
5, 577689, Note_on_c, 9, 51, 73
5, 577768, Note_on_c, 9, 59, 0
5, 577785, Note_on_c, 9, 51, 0
5, 577918, Note_on_c, 9, 59, 45
5, 577922, Note_on_c, 9, 51, 57
5, 578196, Note_on_c, 9, 59, 0
5, 578214, Note_on_c, 9, 51, 0
5, 578396, Note_on_c, 9, 51, 45
5, 578524, Note_on_c, 9, 51, 0
5, 578887, Note_on_c, 9, 51, 62
5, 579199, Note_on_c, 9, 51, 0
5, 579362, Note_on_c, 9, 51, 36
5, 579417, Note_on_c, 9, 51, 0
5, 579607, Note_on_c, 9, 51, 47
5, 579682, Note_on_c, 9, 51, 0
5, 579838, Note_on_c, 9, 51, 68
5, 580035, Note_on_c, 9, 51, 0
5, 580322, Note_on_c, 9, 51, 62
5, 580329, Note_on_c, 9, 53, 44
5, 580497, Note_on_c, 9, 51, 0
5, 580501, Note_on_c, 9, 53, 0
5, 580807, Note_on_c, 9, 53, 40
5, 580807, Note_on_c, 9, 51, 57
5, 581501, Note_on_c, 9, 53, 0
5, 581508, Note_on_c, 9, 51, 0
5, 581760, Note_on_c, 9, 51, 49
5, 581945, Note_on_c, 9, 51, 0
5, 582236, Note_on_c, 9, 51, 55
5, 582609, Note_on_c, 9, 51, 0
5, 582953, Note_on_c, 9, 51, 53
5, 583063, Note_on_c, 9, 51, 0
5, 583196, Note_on_c, 9, 51, 47
5, 583364, Note_on_c, 9, 51, 0
5, 583684, Note_on_c, 9, 51, 67
5, 583891, Note_on_c, 9, 51, 0
5, 584151, Note_on_c, 9, 51, 63
5, 584319, Note_on_c, 9, 51, 0
5, 584638, Note_on_c, 9, 51, 68
5, 584642, Note_on_c, 9, 53, 41
5, 584919, Note_on_c, 9, 51, 0
5, 584922, Note_on_c, 9, 53, 0
5, 585122, Note_on_c, 9, 51, 46
5, 585226, Note_on_c, 9, 51, 0
5, 585842, Note_on_c, 9, 51, 53
5, 585938, Note_on_c, 9, 51, 0
5, 586071, Note_on_c, 9, 51, 60
5, 586082, Note_on_c, 9, 53, 55
5, 586351, Note_on_c, 9, 53, 0
5, 586364, Note_on_c, 9, 51, 0
5, 586560, Note_on_c, 9, 51, 58
5, 586789, Note_on_c, 9, 51, 0
5, 587038, Note_on_c, 9, 51, 69
5, 587261, Note_on_c, 9, 51, 0
5, 587529, Note_on_c, 9, 51, 69
5, 587819, Note_on_c, 9, 51, 0
5, 588000, Note_on_c, 9, 51, 44
5, 588009, Note_on_c, 9, 53, 37
5, 588186, Note_on_c, 9, 53, 0
5, 588197, Note_on_c, 9, 51, 0
5, 588478, Note_on_c, 9, 51, 61
5, 588480, Note_on_c, 9, 53, 40
5, 588712, Note_on_c, 9, 53, 0
5, 588727, Note_on_c, 9, 51, 0
5, 589431, Note_on_c, 9, 53, 37
5, 589438, Note_on_c, 9, 51, 59
5, 589546, Note_on_c, 9, 53, 0
5, 589560, Note_on_c, 9, 51, 0
5, 589916, Note_on_c, 9, 51, 59
5, 589918, Note_on_c, 9, 53, 40
5, 590174, Note_on_c, 9, 53, 0
5, 590206, Note_on_c, 9, 51, 0
5, 590884, Note_on_c, 9, 51, 51
5, 590980, Note_on_c, 9, 51, 0
5, 591124, Note_on_c, 9, 51, 48
5, 591220, Note_on_c, 9, 51, 0
5, 591364, Note_on_c, 9, 51, 51
5, 591587, Note_on_c, 9, 51, 0
5, 591836, Note_on_c, 9, 51, 55
5, 592220, Note_on_c, 9, 51, 0
5, 592564, Note_on_c, 9, 51, 42
5, 592675, Note_on_c, 9, 51, 0
5, 592807, Note_on_c, 9, 51, 43
5, 593078, Note_on_c, 9, 51, 0
5, 593273, Note_on_c, 9, 51, 51
5, 593466, Note_on_c, 9, 51, 0
5, 593767, Note_on_c, 9, 51, 52
5, 594351, Note_on_c, 9, 51, 0
5, 594713, Note_on_c, 9, 51, 57
5, 594858, Note_on_c, 9, 51, 0
5, 595191, Note_on_c, 9, 51, 64
5, 595327, Note_on_c, 9, 51, 0
5, 595327, End_track
0, 0, End_of_file
