0, 0, Header, 1, 6, 120
1, 0, Start_track
1, 0, Title_t, "BeautifulLove"
1, 0, Text_t, "Doug McKenzie\012"
1, 0, MIDI_port, 0
1, 0, System_exclusive, 5, 126, 127, 9, 1, 247
1, 0, MIDI_port, 0
1, 0, Time_signature, 4, 2, 24, 8
1, 0, Key_signature, -1, "major"
1, 0, Tempo, 487805
1, 480, Marker_t, "Beautiful Love (Vincent Young) - a favorite of Bill Evans."
1, 9090, Marker_t, "Solo Piano - then Trio Version at Bar 128"
1, 61440, Marker_t, "Trio version"
1, 61440, End_track
2, 0, Start_track
2, 0, MIDI_port, 0
2, 0, Title_t, "Sequenced by"
2, 122, Program_c, 0, 0
2, 123, Control_c, 0, 7, 100
2, 553, Note_on_c, 0, 62, 82
2, 556, Note_on_c, 0, 50, 68
2, 693, Note_on_c, 0, 62, 0
2, 706, Note_on_c, 0, 50, 0
2, 715, Note_on_c, 0, 64, 38
2, 719, Note_on_c, 0, 52, 35
2, 729, Note_on_c, 0, 52, 0
2, 730, Note_on_c, 0, 64, 0
2, 834, Control_c, 0, 64, 127
2, 838, Note_on_c, 0, 65, 51
2, 838, Note_on_c, 0, 53, 46
2, 844, Control_c, 0, 64, 0
2, 845, Note_on_c, 0, 53, 0
2, 850, Note_on_c, 0, 65, 0
2, 898, Control_c, 0, 64, 127
2, 951, Control_c, 0, 64, 0
2, 955, Note_on_c, 0, 62, 32
2, 956, Note_on_c, 0, 66, 44
2, 957, Note_on_c, 0, 69, 56
2, 959, Note_on_c, 0, 58, 19
2, 962, Note_on_c, 0, 57, 31
2, 962, Note_on_c, 0, 55, 35
2, 964, Control_c, 0, 64, 127
2, 1042, Note_on_c, 0, 58, 0
2, 1047, Note_on_c, 0, 66, 0
2, 1048, Note_on_c, 0, 62, 0
2, 1049, Note_on_c, 0, 57, 0
2, 1083, Note_on_c, 0, 55, 0
2, 1135, Note_on_c, 0, 69, 0
2, 1158, Note_on_c, 0, 66, 44
2, 1159, Note_on_c, 0, 62, 41
2, 1160, Note_on_c, 0, 58, 21
2, 1161, Note_on_c, 0, 57, 34
2, 1162, Note_on_c, 0, 55, 40
2, 1199, Note_on_c, 0, 62, 0
2, 1210, Note_on_c, 0, 66, 0
2, 1286, Note_on_c, 0, 79, 99
2, 1300, Note_on_c, 0, 79, 0
2, 1300, Note_on_c, 0, 57, 0
2, 1306, Note_on_c, 0, 58, 0
2, 1309, Note_on_c, 0, 55, 0
2, 1320, Note_on_c, 0, 79, 95
2, 1334, Note_on_c, 0, 79, 0
2, 1359, Note_on_c, 0, 79, 90
2, 1377, Note_on_c, 0, 79, 0
2, 1393, Note_on_c, 0, 76, 45
2, 1401, Note_on_c, 0, 76, 0
2, 1428, Note_on_c, 0, 77, 84
2, 1428, Note_on_c, 0, 55, 68
2, 1429, Note_on_c, 0, 66, 49
2, 1431, Note_on_c, 0, 61, 53
2, 1439, Control_c, 0, 64, 0
2, 1490, Control_c, 0, 64, 127
2, 1505, Note_on_c, 0, 66, 0
2, 1509, Note_on_c, 0, 55, 0
2, 1511, Note_on_c, 0, 61, 0
2, 1641, Note_on_c, 0, 45, 77
2, 1641, Note_on_c, 0, 52, 84
2, 1654, Control_c, 0, 64, 0
2, 1668, Control_c, 0, 64, 127
2, 1684, Note_on_c, 0, 45, 0
2, 1691, Note_on_c, 0, 52, 0
2, 1755, Note_on_c, 0, 77, 0
2, 1767, Note_on_c, 0, 76, 88
2, 1839, Note_on_c, 0, 76, 0
2, 1848, Note_on_c, 0, 74, 44
2, 1866, Note_on_c, 0, 74, 0
2, 1880, Note_on_c, 0, 76, 58
2, 1896, Note_on_c, 0, 76, 0
2, 1918, Note_on_c, 0, 77, 62
2, 1920, Note_on_c, 0, 69, 48
2, 1922, Control_c, 0, 64, 0
2, 1922, Note_on_c, 0, 72, 52
2, 1924, Note_on_c, 0, 61, 35
2, 1947, Control_c, 0, 64, 127
2, 1982, Note_on_c, 0, 72, 0
2, 1984, Note_on_c, 0, 77, 0
2, 1991, Note_on_c, 0, 69, 0
2, 1995, Note_on_c, 0, 61, 0
2, 2041, Note_on_c, 0, 76, 49
2, 2045, Note_on_c, 0, 65, 34
2, 2046, Note_on_c, 0, 69, 48
2, 2047, Control_c, 0, 64, 0
2, 2047, Note_on_c, 0, 60, 42
2, 2076, Control_c, 0, 64, 127
2, 2092, Note_on_c, 0, 76, 0
2, 2099, Note_on_c, 0, 69, 0
2, 2104, Note_on_c, 0, 65, 0
2, 2121, Note_on_c, 0, 60, 0
2, 2167, Control_c, 0, 64, 0
2, 2168, Note_on_c, 0, 72, 25
2, 2168, Note_on_c, 0, 69, 33
2, 2168, Note_on_c, 0, 57, 31
2, 2169, Note_on_c, 0, 65, 30
2, 2170, Note_on_c, 0, 62, 17
2, 2171, Note_on_c, 0, 64, 16
2, 2180, Control_c, 0, 64, 127
2, 2192, Note_on_c, 0, 57, 0
2, 2197, Note_on_c, 0, 62, 0
2, 2198, Note_on_c, 0, 69, 0
2, 2199, Note_on_c, 0, 72, 0
2, 2200, Note_on_c, 0, 65, 0
2, 2202, Note_on_c, 0, 64, 0
2, 2336, Note_on_c, 0, 57, 68
2, 2368, Note_on_c, 0, 56, 36
2, 2370, Note_on_c, 0, 57, 0
2, 2388, Note_on_c, 0, 55, 49
2, 2396, Note_on_c, 0, 56, 0
2, 2409, Note_on_c, 0, 55, 0
2, 2409, Note_on_c, 0, 54, 43
2, 2409, Control_c, 0, 64, 0
2, 2411, Note_on_c, 0, 38, 35
2, 2413, Note_on_c, 0, 26, 32
2, 2437, Control_c, 0, 64, 127
2, 2447, Note_on_c, 0, 54, 0
2, 2462, Note_on_c, 0, 26, 0
2, 2468, Note_on_c, 0, 38, 0
2, 2600, Note_on_c, 0, 65, 67
2, 2600, Note_on_c, 0, 56, 73
2, 2601, Note_on_c, 0, 61, 67
2, 2603, Note_on_c, 0, 51, 62
2, 2605, Control_c, 0, 64, 0
2, 2618, Control_c, 0, 64, 127
2, 2623, Note_on_c, 0, 65, 0
2, 2633, Note_on_c, 0, 61, 0
2, 2637, Note_on_c, 0, 56, 0
2, 2668, Note_on_c, 0, 67, 65
2, 2669, Control_c, 0, 64, 0
2, 2670, Note_on_c, 0, 63, 67
2, 2670, Note_on_c, 0, 58, 60
2, 2674, Note_on_c, 0, 53, 53
2, 2678, Note_on_c, 0, 51, 0
2, 2692, Control_c, 0, 64, 127
2, 2704, Note_on_c, 0, 67, 0
2, 2716, Note_on_c, 0, 58, 0
2, 2718, Note_on_c, 0, 63, 0
2, 2730, Note_on_c, 0, 53, 0
2, 2762, Control_c, 0, 64, 0
2, 2762, Note_on_c, 0, 69, 68
2, 2763, Note_on_c, 0, 60, 71
2, 2763, Note_on_c, 0, 65, 66
2, 2767, Note_on_c, 0, 55, 53
2, 2780, Control_c, 0, 64, 127
2, 2794, Note_on_c, 0, 60, 0
2, 2801, Note_on_c, 0, 65, 0
2, 2803, Note_on_c, 0, 55, 0
2, 2805, Note_on_c, 0, 69, 0
2, 2846, Note_on_c, 0, 62, 74
2, 2846, Note_on_c, 0, 72, 79
2, 2846, Note_on_c, 0, 58, 64
2, 2846, Note_on_c, 0, 69, 82
2, 2847, Note_on_c, 0, 65, 83
2, 2847, Note_on_c, 0, 60, 73
2, 2855, Control_c, 0, 64, 0
2, 2908, Control_c, 0, 64, 127
2, 2936, Note_on_c, 0, 60, 0
2, 2938, Note_on_c, 0, 62, 0
2, 2943, Note_on_c, 0, 58, 0
2, 2998, Note_on_c, 0, 65, 0
2, 3000, Note_on_c, 0, 43, 47
2, 3001, Note_on_c, 0, 69, 0
2, 3006, Note_on_c, 0, 43, 0
2, 3077, Note_on_c, 0, 65, 45
2, 3078, Note_on_c, 0, 62, 54
2, 3081, Note_on_c, 0, 57, 40
2, 3264, Note_on_c, 0, 57, 0
2, 3274, Note_on_c, 0, 72, 0
2, 3293, Note_on_c, 0, 65, 0
2, 3295, Note_on_c, 0, 62, 0
2, 3316, Note_on_c, 0, 70, 59
2, 3333, Note_on_c, 0, 70, 0
2, 3373, Control_c, 0, 64, 0
2, 3383, Control_c, 0, 64, 127
2, 3441, Note_on_c, 0, 55, 40
2, 3447, Note_on_c, 0, 69, 68
2, 3448, Note_on_c, 0, 61, 67
2, 3449, Note_on_c, 0, 55, 0
2, 3449, Note_on_c, 0, 58, 52
2, 3450, Note_on_c, 0, 64, 53
2, 3451, Note_on_c, 0, 57, 48
2, 3457, Control_c, 0, 64, 0
2, 3510, Control_c, 0, 64, 127
2, 3568, Note_on_c, 0, 48, 36
2, 3569, Note_on_c, 0, 64, 0
2, 3576, Note_on_c, 0, 57, 0
2, 3576, Note_on_c, 0, 69, 0
2, 3578, Note_on_c, 0, 61, 0
2, 3580, Note_on_c, 0, 58, 0
2, 3609, Control_c, 0, 64, 0
2, 3611, Note_on_c, 0, 61, 46
2, 3611, Note_on_c, 0, 58, 39
2, 3615, Note_on_c, 0, 67, 39
2, 3615, Note_on_c, 0, 55, 35
2, 3656, Note_on_c, 0, 58, 0
2, 3661, Note_on_c, 0, 61, 0
2, 3662, Control_c, 0, 64, 127
2, 3671, Note_on_c, 0, 67, 0
2, 3675, Note_on_c, 0, 55, 0
2, 3688, Note_on_c, 0, 65, 46
2, 3705, Control_c, 0, 64, 0
2, 3710, Note_on_c, 0, 65, 0
2, 3721, Note_on_c, 0, 48, 0
2, 3723, Control_c, 0, 64, 127
2, 3724, Note_on_c, 0, 58, 40
2, 3727, Note_on_c, 0, 67, 35
2, 3727, Note_on_c, 0, 61, 18
2, 3728, Note_on_c, 0, 55, 30
2, 3737, Note_on_c, 0, 55, 0
2, 3774, Note_on_c, 0, 58, 0
2, 3776, Note_on_c, 0, 67, 0
2, 3777, Note_on_c, 0, 61, 0
2, 3800, Note_on_c, 0, 48, 34
2, 3834, Control_c, 0, 64, 0
2, 3837, Note_on_c, 0, 57, 45
2, 3840, Note_on_c, 0, 69, 39
2, 3840, Note_on_c, 0, 64, 40
2, 3842, Note_on_c, 0, 41, 41
2, 3847, Note_on_c, 0, 48, 0
2, 3848, Control_c, 0, 64, 127
2, 3850, Note_on_c, 0, 41, 0
2, 3851, Note_on_c, 0, 57, 0
2, 3858, Note_on_c, 0, 64, 0
2, 3873, Note_on_c, 0, 69, 0
2, 4031, Note_on_c, 0, 76, 88
2, 4032, Note_on_c, 0, 57, 68
2, 4033, Note_on_c, 0, 67, 62
2, 4033, Note_on_c, 0, 72, 79
2, 4034, Note_on_c, 0, 62, 54
2, 4036, Control_c, 0, 64, 0
2, 4058, Control_c, 0, 64, 127
2, 4065, Note_on_c, 0, 57, 0
2, 4073, Note_on_c, 0, 62, 0
2, 4076, Note_on_c, 0, 76, 0
2, 4076, Note_on_c, 0, 67, 0
2, 4079, Note_on_c, 0, 72, 0
2, 4100, Note_on_c, 0, 77, 67
2, 4100, Note_on_c, 0, 73, 71
2, 4101, Note_on_c, 0, 58, 61
2, 4102, Note_on_c, 0, 68, 65
2, 4103, Control_c, 0, 64, 0
2, 4104, Note_on_c, 0, 63, 55
2, 4116, Control_c, 0, 64, 127
2, 4148, Note_on_c, 0, 68, 0
2, 4149, Note_on_c, 0, 58, 0
2, 4154, Note_on_c, 0, 63, 0
2, 4155, Note_on_c, 0, 73, 0
2, 4163, Note_on_c, 0, 77, 0
2, 4174, Control_c, 0, 64, 0
2, 4181, Note_on_c, 0, 72, 49
2, 4183, Note_on_c, 0, 76, 45
2, 4183, Note_on_c, 0, 62, 43
2, 4184, Control_c, 0, 64, 127
2, 4184, Note_on_c, 0, 67, 24
2, 4185, Note_on_c, 0, 57, 31
2, 4204, Note_on_c, 0, 72, 0
2, 4205, Note_on_c, 0, 62, 0
2, 4206, Note_on_c, 0, 67, 0
2, 4212, Note_on_c, 0, 57, 0
2, 4253, Note_on_c, 0, 76, 0
2, 4265, Note_on_c, 0, 70, 44
2, 4268, Note_on_c, 0, 60, 43
2, 4269, Note_on_c, 0, 74, 32
2, 4271, Note_on_c, 0, 55, 22
2, 4271, Note_on_c, 0, 65, 19
2, 4277, Note_on_c, 0, 55, 0
2, 4277, Note_on_c, 0, 60, 0
2, 4283, Note_on_c, 0, 65, 0
2, 4286, Note_on_c, 0, 74, 0
2, 4286, Note_on_c, 0, 70, 0
2, 4312, Control_c, 0, 64, 0
2, 4315, Note_on_c, 0, 67, 37
2, 4316, Note_on_c, 0, 57, 36
2, 4317, Note_on_c, 0, 76, 54
2, 4317, Note_on_c, 0, 72, 44
2, 4318, Note_on_c, 0, 62, 42
2, 4324, Note_on_c, 0, 62, 0
2, 4326, Note_on_c, 0, 67, 0
2, 4326, Note_on_c, 0, 72, 0
2, 4328, Note_on_c, 0, 76, 0
2, 4332, Note_on_c, 0, 57, 0
2, 4382, Control_c, 0, 64, 127
2, 4392, Control_c, 0, 64, 0
2, 4397, Note_on_c, 0, 58, 56
2, 4397, Note_on_c, 0, 62, 60
2, 4397, Note_on_c, 0, 64, 55
2, 4398, Note_on_c, 0, 69, 57
2, 4399, Note_on_c, 0, 57, 40
2, 4435, Control_c, 0, 64, 127
2, 4502, Note_on_c, 0, 62, 0
2, 4504, Note_on_c, 0, 58, 0
2, 4505, Note_on_c, 0, 64, 0
2, 4511, Note_on_c, 0, 69, 0
2, 4532, Note_on_c, 0, 57, 0
2, 4557, Control_c, 0, 64, 0
2, 4559, Note_on_c, 0, 66, 53
2, 4559, Note_on_c, 0, 71, 57
2, 4560, Note_on_c, 0, 63, 49
2, 4562, Note_on_c, 0, 60, 43
2, 4562, Note_on_c, 0, 59, 39
2, 4584, Note_on_c, 0, 59, 0
2, 4592, Note_on_c, 0, 60, 0
2, 4599, Note_on_c, 0, 63, 0
2, 4599, Note_on_c, 0, 66, 0
2, 4603, Note_on_c, 0, 71, 0
2, 4624, Control_c, 0, 64, 127
2, 4658, Control_c, 0, 64, 0
2, 4677, Note_on_c, 0, 73, 56
2, 4679, Note_on_c, 0, 68, 50
2, 4680, Note_on_c, 0, 64, 46
2, 4680, Note_on_c, 0, 70, 50
2, 4684, Control_c, 0, 64, 127
2, 4684, Note_on_c, 0, 51, 28
2, 4689, Note_on_c, 0, 51, 0
2, 4691, Note_on_c, 0, 64, 0
2, 4695, Note_on_c, 0, 70, 0
2, 4696, Note_on_c, 0, 68, 0
2, 4698, Note_on_c, 0, 73, 0
2, 4754, Note_on_c, 0, 76, 70
2, 4755, Note_on_c, 0, 61, 60
2, 4756, Note_on_c, 0, 51, 53
2, 4757, Note_on_c, 0, 70, 64
2, 4783, Note_on_c, 0, 61, 0
2, 4783, Note_on_c, 0, 76, 0
2, 4784, Note_on_c, 0, 70, 0
2, 4785, Note_on_c, 0, 51, 0
2, 4796, Control_c, 0, 64, 0
2, 4796, Note_on_c, 0, 79, 66
2, 4799, Note_on_c, 0, 60, 54
2, 4800, Note_on_c, 0, 50, 53
2, 4800, Note_on_c, 0, 69, 71
2, 4822, Control_c, 0, 64, 127
2, 4828, Note_on_c, 0, 60, 0
2, 4831, Note_on_c, 0, 77, 4
2, 4838, Note_on_c, 0, 79, 0
2, 4848, Note_on_c, 0, 77, 0
2, 4853, Note_on_c, 0, 69, 0
2, 4873, Note_on_c, 0, 77, 64
2, 4874, Note_on_c, 0, 61, 53
2, 4877, Note_on_c, 0, 69, 67
2, 4889, Note_on_c, 0, 77, 0
2, 4893, Note_on_c, 0, 69, 0
2, 4901, Note_on_c, 0, 61, 0
2, 4920, Note_on_c, 0, 69, 44
2, 4920, Note_on_c, 0, 60, 40
2, 4921, Control_c, 0, 64, 0
2, 4921, Note_on_c, 0, 65, 32
2, 4952, Control_c, 0, 64, 127
2, 4973, Note_on_c, 0, 50, 0
2, 4982, Note_on_c, 0, 69, 0
2, 4996, Note_on_c, 0, 50, 38
2, 4999, Note_on_c, 0, 60, 0
2, 5022, Note_on_c, 0, 65, 0
2, 5031, Note_on_c, 0, 67, 30
2, 5039, Note_on_c, 0, 60, 29
2, 5042, Control_c, 0, 64, 0
2, 5046, Note_on_c, 0, 68, 34
2, 5056, Note_on_c, 0, 67, 0
2, 5059, Note_on_c, 0, 68, 0
2, 5063, Note_on_c, 0, 69, 58
2, 5072, Note_on_c, 0, 69, 0
2, 5082, Note_on_c, 0, 74, 87
2, 5096, Note_on_c, 0, 60, 0
2, 5113, Note_on_c, 0, 74, 0
2, 5136, Control_c, 0, 64, 127
2, 5146, Control_c, 0, 64, 0
2, 5150, Note_on_c, 0, 68, 60
2, 5153, Note_on_c, 0, 60, 36
2, 5160, Note_on_c, 0, 68, 0
2, 5161, Note_on_c, 0, 60, 0
2, 5167, Note_on_c, 0, 67, 33
2, 5180, Note_on_c, 0, 67, 0
2, 5185, Note_on_c, 0, 50, 0
2, 5185, Note_on_c, 0, 65, 43
2, 5205, Note_on_c, 0, 65, 0
2, 5210, Note_on_c, 0, 62, 33
2, 5217, Note_on_c, 0, 62, 0
2, 5231, Note_on_c, 0, 65, 60
2, 5244, Control_c, 0, 64, 127
2, 5247, Note_on_c, 0, 65, 0
2, 5255, Note_on_c, 0, 67, 58
2, 5274, Note_on_c, 0, 67, 0
2, 5281, Control_c, 0, 64, 0
2, 5283, Note_on_c, 0, 50, 46
2, 5283, Note_on_c, 0, 65, 51
2, 5285, Note_on_c, 0, 43, 43
2, 5298, Control_c, 0, 64, 127
2, 5315, Note_on_c, 0, 43, 0
2, 5317, Note_on_c, 0, 50, 0
2, 5318, Note_on_c, 0, 65, 0
2, 5357, Note_on_c, 0, 65, 81
2, 5357, Note_on_c, 0, 69, 82
2, 5357, Note_on_c, 0, 58, 60
2, 5357, Note_on_c, 0, 62, 77
2, 5358, Note_on_c, 0, 72, 76
2, 5358, Note_on_c, 0, 60, 67
2, 5369, Control_c, 0, 64, 0
2, 5395, Control_c, 0, 64, 127
2, 5441, Note_on_c, 0, 62, 0
2, 5450, Note_on_c, 0, 60, 0
2, 5463, Note_on_c, 0, 58, 0
2, 5480, Note_on_c, 0, 65, 0
2, 5481, Note_on_c, 0, 69, 0
2, 5498, Note_on_c, 0, 72, 0
2, 5518, Note_on_c, 0, 70, 57
2, 5520, Note_on_c, 0, 57, 47
2, 5522, Note_on_c, 0, 62, 31
2, 5522, Note_on_c, 0, 67, 38
2, 5523, Control_c, 0, 64, 0
2, 5551, Control_c, 0, 64, 127
2, 5552, Note_on_c, 0, 57, 0
2, 5555, Note_on_c, 0, 67, 0
2, 5563, Note_on_c, 0, 70, 0
2, 5577, Note_on_c, 0, 62, 0
2, 5633, Note_on_c, 0, 62, 59
2, 5664, Note_on_c, 0, 62, 0
2, 5743, Control_c, 0, 64, 0
2, 5751, Note_on_c, 0, 34, 52
2, 5752, Note_on_c, 0, 64, 51
2, 5752, Note_on_c, 0, 55, 52
2, 5755, Note_on_c, 0, 60, 44
2, 5755, Note_on_c, 0, 46, 26
2, 5758, Note_on_c, 0, 55, 0
2, 5758, Control_c, 0, 64, 127
2, 5760, Note_on_c, 0, 60, 0
2, 5768, Note_on_c, 0, 64, 0
2, 5769, Note_on_c, 0, 34, 0
2, 5770, Note_on_c, 0, 46, 0
2, 5798, Note_on_c, 0, 67, 32
2, 5808, Note_on_c, 0, 67, 0
2, 5830, Note_on_c, 0, 72, 58
2, 5850, Note_on_c, 0, 72, 0
2, 5864, Note_on_c, 0, 79, 74
2, 5877, Note_on_c, 0, 79, 0
2, 5904, Note_on_c, 0, 84, 65
2, 5909, Note_on_c, 0, 84, 0
2, 5941, Note_on_c, 0, 88, 83
2, 5954, Note_on_c, 0, 88, 0
2, 5980, Note_on_c, 0, 91, 87
2, 5980, Note_on_c, 0, 67, 57
2, 5980, Note_on_c, 0, 56, 54
2, 5981, Note_on_c, 0, 62, 54
2, 5981, Note_on_c, 0, 79, 76
2, 5988, Control_c, 0, 64, 0
2, 5990, Note_on_c, 0, 67, 0
2, 5991, Note_on_c, 0, 62, 0
2, 5991, Note_on_c, 0, 91, 0
2, 5991, Note_on_c, 0, 79, 0
2, 5994, Note_on_c, 0, 56, 0
2, 6024, Note_on_c, 0, 56, 69
2, 6024, Note_on_c, 0, 67, 60
2, 6025, Note_on_c, 0, 91, 83
2, 6026, Note_on_c, 0, 79, 72
2, 6026, Note_on_c, 0, 62, 46
2, 6032, Control_c, 0, 64, 127
2, 6054, Note_on_c, 0, 79, 0
2, 6058, Note_on_c, 0, 91, 0
2, 6059, Note_on_c, 0, 67, 0
2, 6061, Note_on_c, 0, 56, 0
2, 6061, Note_on_c, 0, 62, 0
2, 6073, Note_on_c, 0, 67, 54
2, 6073, Note_on_c, 0, 56, 59
2, 6074, Note_on_c, 0, 62, 70
2, 6079, Note_on_c, 0, 88, 38
2, 6081, Note_on_c, 0, 76, 46
2, 6082, Note_on_c, 0, 86, 36
2, 6083, Control_c, 0, 64, 0
2, 6097, Control_c, 0, 64, 127
2, 6104, Note_on_c, 0, 86, 0
2, 6159, Note_on_c, 0, 56, 0
2, 6192, Note_on_c, 0, 76, 0
2, 6196, Note_on_c, 0, 56, 38
2, 6201, Note_on_c, 0, 88, 0
2, 6207, Note_on_c, 0, 62, 0
2, 6208, Note_on_c, 0, 67, 0
2, 6227, Note_on_c, 0, 56, 0
2, 6240, Note_on_c, 0, 89, 68
2, 6241, Note_on_c, 0, 81, 45
2, 6242, Note_on_c, 0, 65, 50
2, 6242, Note_on_c, 0, 55, 58
2, 6242, Note_on_c, 0, 77, 45
2, 6243, Control_c, 0, 64, 0
2, 6244, Note_on_c, 0, 61, 51
2, 6263, Note_on_c, 0, 65, 0
2, 6264, Control_c, 0, 64, 127
2, 6268, Note_on_c, 0, 89, 0
2, 6269, Note_on_c, 0, 55, 0
2, 6270, Note_on_c, 0, 61, 0
2, 6271, Note_on_c, 0, 81, 0
2, 6275, Note_on_c, 0, 77, 0
2, 6321, Note_on_c, 0, 45, 66
2, 6337, Note_on_c, 0, 45, 0
2, 6445, Note_on_c, 0, 64, 62
2, 6446, Note_on_c, 0, 45, 51
2, 6447, Note_on_c, 0, 61, 59
2, 6447, Note_on_c, 0, 55, 65
2, 6448, Note_on_c, 0, 58, 48
2, 6451, Note_on_c, 0, 52, 30
2, 6459, Note_on_c, 0, 64, 0
2, 6466, Note_on_c, 0, 61, 0
2, 6470, Note_on_c, 0, 55, 0
2, 6470, Note_on_c, 0, 58, 0
2, 6483, Note_on_c, 0, 52, 0
2, 6490, Note_on_c, 0, 58, 51
2, 6491, Control_c, 0, 64, 0
2, 6491, Note_on_c, 0, 65, 58
2, 6492, Note_on_c, 0, 61, 59
2, 6492, Note_on_c, 0, 55, 64
2, 6493, Note_on_c, 0, 53, 57
2, 6539, Control_c, 0, 64, 127
2, 6540, Note_on_c, 0, 55, 0
2, 6546, Note_on_c, 0, 61, 0
2, 6546, Note_on_c, 0, 65, 0
2, 6547, Note_on_c, 0, 58, 0
2, 6549, Note_on_c, 0, 53, 0
2, 6599, Control_c, 0, 64, 0
2, 6600, Note_on_c, 0, 67, 53
2, 6600, Note_on_c, 0, 58, 59
2, 6602, Note_on_c, 0, 61, 60
2, 6604, Note_on_c, 0, 64, 43
2, 6606, Note_on_c, 0, 55, 49
2, 6616, Note_on_c, 0, 45, 0
2, 6628, Control_c, 0, 64, 127
2, 6633, Note_on_c, 0, 55, 0
2, 6639, Note_on_c, 0, 64, 0
2, 6640, Note_on_c, 0, 58, 0
2, 6642, Note_on_c, 0, 67, 0
2, 6645, Note_on_c, 0, 61, 0
2, 6716, Note_on_c, 0, 69, 69
2, 6718, Note_on_c, 0, 64, 46
2, 6720, Note_on_c, 0, 65, 51
2, 6721, Note_on_c, 0, 61, 51
2, 6722, Control_c, 0, 64, 0
2, 6742, Note_on_c, 0, 64, 0
2, 6743, Control_c, 0, 64, 127
2, 6751, Note_on_c, 0, 65, 0
2, 6754, Note_on_c, 0, 69, 0
2, 6755, Note_on_c, 0, 61, 0
2, 6760, Note_on_c, 0, 60, 58
2, 6820, Note_on_c, 0, 60, 0
2, 6838, Note_on_c, 0, 76, 67
2, 6842, Note_on_c, 0, 69, 59
2, 6842, Note_on_c, 0, 65, 47
2, 6843, Note_on_c, 0, 59, 54
2, 6844, Control_c, 0, 64, 0
2, 6872, Control_c, 0, 64, 127
2, 6902, Note_on_c, 0, 69, 0
2, 6905, Note_on_c, 0, 76, 0
2, 6908, Note_on_c, 0, 65, 0
2, 6959, Note_on_c, 0, 65, 57
2, 6959, Note_on_c, 0, 60, 51
2, 6965, Control_c, 0, 64, 0
2, 6993, Control_c, 0, 64, 127
2, 7072, Note_on_c, 0, 59, 0
2, 7075, Note_on_c, 0, 57, 50
2, 7077, Note_on_c, 0, 60, 0
2, 7090, Note_on_c, 0, 65, 0
2, 7091, Note_on_c, 0, 57, 0
2, 7153, Note_on_c, 0, 50, 47
2, 7183, Control_c, 0, 64, 0
2, 7192, Note_on_c, 0, 69, 66
2, 7194, Note_on_c, 0, 64, 64
2, 7195, Note_on_c, 0, 43, 55
2, 7202, Control_c, 0, 64, 127
2, 7208, Note_on_c, 0, 43, 0
2, 7214, Note_on_c, 0, 50, 0
2, 7218, Note_on_c, 0, 64, 0
2, 7229, Note_on_c, 0, 69, 0
2, 7231, Note_on_c, 0, 73, 57
2, 7242, Note_on_c, 0, 73, 0
2, 7268, Note_on_c, 0, 88, 81
2, 7268, Note_on_c, 0, 83, 60
2, 7270, Note_on_c, 0, 81, 64
2, 7275, Note_on_c, 0, 81, 0
2, 7278, Note_on_c, 0, 83, 0
2, 7290, Note_on_c, 0, 81, 20
2, 7299, Note_on_c, 0, 88, 0
2, 7306, Note_on_c, 0, 85, 39
2, 7313, Note_on_c, 0, 76, 25
2, 7316, Note_on_c, 0, 81, 0
2, 7330, Note_on_c, 0, 85, 0
2, 7333, Note_on_c, 0, 76, 0
2, 7346, Note_on_c, 0, 64, 46
2, 7347, Note_on_c, 0, 76, 45
2, 7347, Note_on_c, 0, 59, 51
2, 7351, Note_on_c, 0, 81, 36
2, 7352, Note_on_c, 0, 53, 30
2, 7360, Note_on_c, 0, 81, 0
2, 7360, Note_on_c, 0, 59, 0
2, 7360, Note_on_c, 0, 76, 0
2, 7362, Note_on_c, 0, 64, 0
2, 7363, Note_on_c, 0, 53, 0
2, 7432, Note_on_c, 0, 64, 39
2, 7433, Note_on_c, 0, 76, 34
2, 7433, Note_on_c, 0, 59, 47
2, 7434, Note_on_c, 0, 81, 53
2, 7435, Note_on_c, 0, 53, 38
2, 7456, Note_on_c, 0, 64, 0
2, 7457, Note_on_c, 0, 53, 0
2, 7458, Note_on_c, 0, 59, 0
2, 7460, Note_on_c, 0, 76, 0
2, 7464, Note_on_c, 0, 81, 0
2, 7518, Note_on_c, 0, 76, 51
2, 7521, Note_on_c, 0, 59, 49
2, 7521, Note_on_c, 0, 81, 57
2, 7522, Note_on_c, 0, 64, 33
2, 7524, Note_on_c, 0, 53, 35
2, 7535, Note_on_c, 0, 64, 0
2, 7536, Note_on_c, 0, 76, 0
2, 7537, Note_on_c, 0, 53, 0
2, 7541, Note_on_c, 0, 59, 0
2, 7543, Note_on_c, 0, 81, 0
2, 7563, Note_on_c, 0, 64, 71
2, 7563, Note_on_c, 0, 53, 68
2, 7563, Note_on_c, 0, 59, 73
2, 7564, Note_on_c, 0, 86, 65
2, 7564, Note_on_c, 0, 74, 74
2, 7565, Note_on_c, 0, 84, 71
2, 7577, Note_on_c, 0, 84, 0
2, 7593, Note_on_c, 0, 53, 0
2, 7601, Note_on_c, 0, 59, 0
2, 7603, Note_on_c, 0, 86, 0
2, 7604, Note_on_c, 0, 64, 0
2, 7605, Note_on_c, 0, 74, 0
2, 7641, Note_on_c, 0, 74, 62
2, 7642, Note_on_c, 0, 86, 54
2, 7643, Note_on_c, 0, 64, 32
2, 7645, Note_on_c, 0, 59, 34
2, 7652, Note_on_c, 0, 59, 0
2, 7654, Note_on_c, 0, 74, 0
2, 7657, Note_on_c, 0, 86, 0
2, 7658, Note_on_c, 0, 64, 0
2, 7682, Note_on_c, 0, 67, 80
2, 7682, Note_on_c, 0, 56, 80
2, 7682, Note_on_c, 0, 88, 85
2, 7683, Note_on_c, 0, 62, 74
2, 7683, Note_on_c, 0, 76, 83
2, 7683, Note_on_c, 0, 84, 85
2, 7687, Control_c, 0, 64, 0
2, 7728, Note_on_c, 0, 76, 0
2, 7731, Note_on_c, 0, 88, 0
2, 7731, Note_on_c, 0, 84, 0
2, 7732, Note_on_c, 0, 67, 0
2, 7733, Note_on_c, 0, 56, 0
2, 7736, Note_on_c, 0, 62, 0
2, 7760, Control_c, 0, 64, 127
2, 7761, Note_on_c, 0, 88, 59
2, 7761, Note_on_c, 0, 76, 59
2, 7762, Note_on_c, 0, 84, 61
2, 7763, Note_on_c, 0, 56, 68
2, 7764, Note_on_c, 0, 67, 62
2, 7764, Note_on_c, 0, 62, 71
2, 7788, Note_on_c, 0, 76, 0
2, 7791, Note_on_c, 0, 88, 0
2, 7792, Note_on_c, 0, 67, 0
2, 7792, Note_on_c, 0, 84, 0
2, 7795, Note_on_c, 0, 56, 0
2, 7797, Note_on_c, 0, 62, 0
2, 7808, Note_on_c, 0, 56, 47
2, 7809, Note_on_c, 0, 67, 39
2, 7810, Note_on_c, 0, 76, 58
2, 7810, Note_on_c, 0, 88, 60
2, 7811, Note_on_c, 0, 84, 54
2, 7811, Note_on_c, 0, 62, 67
2, 7825, Note_on_c, 0, 76, 0
2, 7827, Note_on_c, 0, 84, 0
2, 7829, Note_on_c, 0, 62, 0
2, 7834, Note_on_c, 0, 88, 0
2, 7835, Note_on_c, 0, 67, 0
2, 7835, Note_on_c, 0, 56, 0
2, 7880, Note_on_c, 0, 68, 74
2, 7881, Note_on_c, 0, 57, 66
2, 7881, Note_on_c, 0, 89, 73
2, 7881, Note_on_c, 0, 63, 59
2, 7882, Note_on_c, 0, 85, 71
2, 7883, Note_on_c, 0, 77, 68
2, 7901, Note_on_c, 0, 89, 0
2, 7901, Note_on_c, 0, 57, 0
2, 7906, Note_on_c, 0, 68, 0
2, 7907, Note_on_c, 0, 77, 0
2, 7912, Note_on_c, 0, 85, 0
2, 7914, Control_c, 0, 64, 0
2, 7915, Note_on_c, 0, 63, 0
2, 7927, Note_on_c, 0, 88, 61
2, 7928, Note_on_c, 0, 62, 55
2, 7928, Note_on_c, 0, 67, 36
2, 7929, Note_on_c, 0, 56, 46
2, 7929, Note_on_c, 0, 76, 38
2, 7931, Note_on_c, 0, 84, 47
2, 7936, Note_on_c, 0, 67, 0
2, 7939, Note_on_c, 0, 84, 0
2, 7942, Note_on_c, 0, 62, 0
2, 7943, Note_on_c, 0, 88, 0
2, 7946, Note_on_c, 0, 76, 0
2, 7950, Control_c, 0, 64, 127
2, 7954, Note_on_c, 0, 56, 0
2, 7965, Note_on_c, 0, 74, 32
2, 7966, Note_on_c, 0, 86, 32
2, 7972, Note_on_c, 0, 74, 0
2, 7976, Note_on_c, 0, 86, 0
2, 7995, Control_c, 0, 64, 0
2, 7999, Note_on_c, 0, 88, 72
2, 7999, Note_on_c, 0, 67, 63
2, 7999, Note_on_c, 0, 76, 64
2, 8000, Note_on_c, 0, 62, 56
2, 8000, Note_on_c, 0, 56, 56
2, 8001, Note_on_c, 0, 84, 64
2, 8022, Control_c, 0, 64, 127
2, 8037, Note_on_c, 0, 67, 0
2, 8039, Note_on_c, 0, 88, 0
2, 8042, Note_on_c, 0, 62, 0
2, 8046, Note_on_c, 0, 84, 0
2, 8050, Note_on_c, 0, 56, 0
2, 8052, Note_on_c, 0, 76, 0
2, 8119, Note_on_c, 0, 46, 52
2, 8139, Note_on_c, 0, 46, 0
2, 8162, Note_on_c, 0, 45, 47
2, 8163, Control_c, 0, 64, 0
2, 8177, Control_c, 0, 64, 127
2, 8265, Note_on_c, 0, 45, 0
2, 8391, Control_c, 0, 64, 0
2, 8394, Note_on_c, 0, 86, 88
2, 8395, Note_on_c, 0, 74, 91
2, 8395, Note_on_c, 0, 60, 75
2, 8396, Note_on_c, 0, 61, 64
2, 8396, Note_on_c, 0, 65, 80
2, 8396, Note_on_c, 0, 81, 81
2, 8397, Note_on_c, 0, 55, 75
2, 8399, Note_on_c, 0, 58, 46
2, 8413, Control_c, 0, 64, 127
2, 8436, Note_on_c, 0, 55, 0
2, 8436, Note_on_c, 0, 74, 0
2, 8437, Note_on_c, 0, 86, 0
2, 8438, Note_on_c, 0, 65, 0
2, 8440, Note_on_c, 0, 60, 0
2, 8441, Note_on_c, 0, 58, 0
2, 8442, Note_on_c, 0, 81, 0
2, 8443, Note_on_c, 0, 61, 0
2, 8471, Note_on_c, 0, 61, 54
2, 8471, Note_on_c, 0, 65, 66
2, 8472, Note_on_c, 0, 60, 57
2, 8472, Note_on_c, 0, 88, 76
2, 8472, Note_on_c, 0, 76, 66
2, 8473, Note_on_c, 0, 81, 67
2, 8474, Note_on_c, 0, 55, 51
2, 8475, Note_on_c, 0, 58, 35
2, 8481, Note_on_c, 0, 55, 0
2, 8483, Note_on_c, 0, 65, 0
2, 8484, Note_on_c, 0, 58, 0
2, 8484, Note_on_c, 0, 81, 0
2, 8485, Note_on_c, 0, 76, 0
2, 8485, Note_on_c, 0, 60, 0
2, 8491, Note_on_c, 0, 88, 0
2, 8492, Note_on_c, 0, 61, 0
2, 8512, Control_c, 0, 64, 0
2, 8512, Note_on_c, 0, 61, 64
2, 8513, Note_on_c, 0, 65, 74
2, 8513, Note_on_c, 0, 60, 57
2, 8514, Note_on_c, 0, 77, 76
2, 8514, Note_on_c, 0, 89, 82
2, 8516, Note_on_c, 0, 55, 66
2, 8519, Note_on_c, 0, 58, 33
2, 8530, Control_c, 0, 64, 127
2, 8544, Note_on_c, 0, 60, 0
2, 8544, Note_on_c, 0, 65, 0
2, 8548, Note_on_c, 0, 77, 0
2, 8548, Note_on_c, 0, 61, 0
2, 8551, Note_on_c, 0, 55, 0
2, 8552, Note_on_c, 0, 58, 0
2, 8556, Note_on_c, 0, 89, 0
2, 8634, Note_on_c, 0, 93, 99
2, 8635, Note_on_c, 0, 81, 92
2, 8635, Note_on_c, 0, 57, 81
2, 8635, Note_on_c, 0, 86, 88
2, 8636, Note_on_c, 0, 62, 82
2, 8636, Note_on_c, 0, 58, 70
2, 8637, Note_on_c, 0, 52, 78
2, 8638, Control_c, 0, 64, 0
2, 8694, Control_c, 0, 64, 127
2, 8781, Note_on_c, 0, 93, 0
2, 8783, Note_on_c, 0, 86, 0
2, 8783, Note_on_c, 0, 52, 0
2, 8785, Note_on_c, 0, 57, 0
2, 8787, Note_on_c, 0, 58, 0
2, 8791, Note_on_c, 0, 62, 0
2, 8801, Note_on_c, 0, 81, 0
2, 8882, Note_on_c, 0, 62, 72
2, 8882, Note_on_c, 0, 67, 70
2, 8884, Note_on_c, 0, 56, 68
2, 8894, Control_c, 0, 64, 0
2, 8904, Control_c, 0, 64, 127
2, 9074, Note_on_c, 0, 67, 0
2, 9088, Note_on_c, 0, 62, 0
2, 9109, Note_on_c, 0, 56, 0
2, 9124, Note_on_c, 0, 55, 61
2, 9124, Note_on_c, 0, 65, 58
2, 9125, Note_on_c, 0, 61, 56
2, 9133, Control_c, 0, 64, 0
2, 9196, Control_c, 0, 64, 127
2, 9208, Note_on_c, 0, 79, 101
2, 9235, Note_on_c, 0, 65, 0
2, 9245, Note_on_c, 0, 79, 0
2, 9245, Note_on_c, 0, 61, 0
2, 9247, Note_on_c, 0, 55, 0
2, 9254, Note_on_c, 0, 77, 64
2, 9321, Note_on_c, 0, 45, 58
2, 9323, Note_on_c, 0, 77, 0
2, 9327, Note_on_c, 0, 45, 0
2, 9433, Note_on_c, 0, 61, 43
2, 9433, Note_on_c, 0, 69, 55
2, 9434, Note_on_c, 0, 65, 43
2, 9436, Note_on_c, 0, 55, 50
2, 9443, Control_c, 0, 64, 0
2, 9465, Control_c, 0, 64, 127
2, 9467, Note_on_c, 0, 72, 60
2, 9468, Note_on_c, 0, 65, 0
2, 9478, Note_on_c, 0, 69, 0
2, 9484, Note_on_c, 0, 72, 0
2, 9507, Note_on_c, 0, 76, 72
2, 9525, Note_on_c, 0, 55, 0
2, 9527, Note_on_c, 0, 76, 0
2, 9532, Note_on_c, 0, 61, 0
2, 9541, Note_on_c, 0, 79, 83
2, 9558, Note_on_c, 0, 79, 0
2, 9578, Note_on_c, 0, 77, 67
2, 9579, Note_on_c, 0, 69, 46
2, 9579, Note_on_c, 0, 50, 45
2, 9582, Control_c, 0, 64, 0
2, 9583, Note_on_c, 0, 57, 36
2, 9597, Note_on_c, 0, 77, 0
2, 9601, Note_on_c, 0, 69, 0
2, 9627, Note_on_c, 0, 76, 57
2, 9630, Note_on_c, 0, 69, 51
2, 9630, Note_on_c, 0, 65, 40
2, 9632, Note_on_c, 0, 61, 37
2, 9645, Control_c, 0, 64, 127
2, 9686, Note_on_c, 0, 69, 0
2, 9688, Note_on_c, 0, 65, 0
2, 9688, Note_on_c, 0, 61, 0
2, 9692, Note_on_c, 0, 57, 0
2, 9693, Note_on_c, 0, 76, 0
2, 9704, Note_on_c, 0, 65, 45
2, 9704, Control_c, 0, 64, 0
2, 9705, Note_on_c, 0, 60, 46
2, 9706, Note_on_c, 0, 74, 40
2, 9708, Note_on_c, 0, 69, 49
2, 9727, Control_c, 0, 64, 127
2, 9730, Note_on_c, 0, 74, 0
2, 9731, Note_on_c, 0, 69, 0
2, 9741, Note_on_c, 0, 65, 0
2, 9780, Note_on_c, 0, 60, 0
2, 9789, Note_on_c, 0, 69, 57
2, 9789, Note_on_c, 0, 64, 42
2, 9794, Note_on_c, 0, 57, 34
2, 9794, Note_on_c, 0, 65, 52
2, 9807, Control_c, 0, 64, 0
2, 9824, Control_c, 0, 64, 127
2, 9843, Note_on_c, 0, 57, 0
2, 9846, Note_on_c, 0, 69, 0
2, 9853, Note_on_c, 0, 65, 0
2, 9855, Note_on_c, 0, 50, 0
2, 9859, Note_on_c, 0, 64, 0
2, 9916, Note_on_c, 0, 50, 44
2, 9917, Note_on_c, 0, 49, 36
2, 9925, Note_on_c, 0, 49, 0
2, 9958, Note_on_c, 0, 55, 42
2, 9961, Note_on_c, 0, 57, 24
2, 9964, Control_c, 0, 64, 0
2, 9966, Note_on_c, 0, 57, 0
2, 9971, Note_on_c, 0, 55, 0
2, 10028, Control_c, 0, 64, 127
2, 10037, Note_on_c, 0, 45, 41
2, 10054, Control_c, 0, 64, 0
2, 10059, Note_on_c, 0, 45, 0
2, 10067, Note_on_c, 0, 50, 0
2, 10075, Control_c, 0, 64, 127
2, 10078, Note_on_c, 0, 38, 55
2, 10080, Note_on_c, 0, 54, 42
2, 10084, Note_on_c, 0, 38, 0
2, 10088, Note_on_c, 0, 54, 0
2, 10167, Note_on_c, 0, 50, 37
2, 10203, Note_on_c, 0, 60, 44
2, 10232, Note_on_c, 0, 60, 0
2, 10235, Note_on_c, 0, 50, 0
2, 10242, Note_on_c, 0, 61, 56
2, 10263, Note_on_c, 0, 61, 0
2, 10329, Note_on_c, 0, 56, 53
2, 10331, Note_on_c, 0, 61, 53
2, 10332, Note_on_c, 0, 65, 41
2, 10332, Note_on_c, 0, 50, 36
2, 10333, Control_c, 0, 64, 0
2, 10354, Control_c, 0, 64, 127
2, 10363, Note_on_c, 0, 65, 0
2, 10376, Note_on_c, 0, 61, 0
2, 10381, Note_on_c, 0, 56, 0
2, 10402, Note_on_c, 0, 50, 0
2, 10408, Note_on_c, 0, 67, 63
2, 10410, Note_on_c, 0, 58, 60
2, 10411, Note_on_c, 0, 61, 58
2, 10413, Note_on_c, 0, 52, 60
2, 10415, Control_c, 0, 64, 0
2, 10416, Note_on_c, 0, 64, 34
2, 10423, Control_c, 0, 64, 127
2, 10430, Note_on_c, 0, 67, 0
2, 10434, Note_on_c, 0, 64, 0
2, 10435, Note_on_c, 0, 58, 0
2, 10436, Note_on_c, 0, 61, 0
2, 10448, Control_c, 0, 64, 0
2, 10452, Note_on_c, 0, 52, 0
2, 10457, Note_on_c, 0, 60, 58
2, 10459, Note_on_c, 0, 65, 31
2, 10460, Note_on_c, 0, 69, 40
2, 10462, Note_on_c, 0, 53, 40
2, 10462, Note_on_c, 0, 62, 38
2, 10469, Note_on_c, 0, 62, 0
2, 10471, Note_on_c, 0, 60, 0
2, 10472, Note_on_c, 0, 53, 0
2, 10472, Control_c, 0, 64, 127
2, 10473, Note_on_c, 0, 65, 0
2, 10475, Note_on_c, 0, 69, 0
2, 10485, Control_c, 0, 64, 0
2, 10496, Note_on_c, 0, 54, 63
2, 10496, Note_on_c, 0, 72, 73
2, 10497, Control_c, 0, 64, 127
2, 10502, Note_on_c, 0, 72, 0
2, 10533, Note_on_c, 0, 44, 49
2, 10546, Note_on_c, 0, 54, 0
2, 10551, Note_on_c, 0, 44, 0
2, 10567, Control_c, 0, 64, 0
2, 10570, Note_on_c, 0, 43, 54
2, 10577, Note_on_c, 0, 43, 0
2, 10582, Control_c, 0, 64, 127
2, 10639, Note_on_c, 0, 62, 40
2, 10641, Note_on_c, 0, 58, 31
2, 10641, Note_on_c, 0, 60, 55
2, 10659, Control_c, 0, 64, 0
2, 10675, Control_c, 0, 64, 127
2, 10686, Note_on_c, 0, 69, 35
2, 10699, Note_on_c, 0, 69, 0
2, 10705, Note_on_c, 0, 60, 0
2, 10708, Note_on_c, 0, 70, 64
2, 10717, Note_on_c, 0, 70, 0
2, 10727, Note_on_c, 0, 62, 0
2, 10733, Note_on_c, 0, 74, 79
2, 10734, Note_on_c, 0, 58, 0
2, 10748, Note_on_c, 0, 74, 0
2, 10763, Note_on_c, 0, 77, 90
2, 10781, Note_on_c, 0, 77, 0
2, 10787, Control_c, 0, 64, 0
2, 10791, Note_on_c, 0, 62, 49
2, 10792, Note_on_c, 0, 58, 44
2, 10792, Note_on_c, 0, 84, 95
2, 10792, Note_on_c, 0, 57, 42
2, 10809, Control_c, 0, 64, 127
2, 10823, Note_on_c, 0, 84, 0
2, 10831, Note_on_c, 0, 82, 53
2, 10876, Note_on_c, 0, 62, 0
2, 10883, Note_on_c, 0, 57, 0
2, 10895, Note_on_c, 0, 58, 0
2, 10913, Note_on_c, 0, 62, 35
2, 10915, Note_on_c, 0, 58, 14
2, 10917, Control_c, 0, 64, 0
2, 10917, Note_on_c, 0, 55, 42
2, 10930, Control_c, 0, 64, 127
2, 10970, Note_on_c, 0, 82, 0
2, 10989, Note_on_c, 0, 55, 0
2, 10994, Note_on_c, 0, 53, 45
2, 11004, Note_on_c, 0, 62, 0
2, 11012, Note_on_c, 0, 53, 0
2, 11019, Note_on_c, 0, 58, 0
2, 11036, Control_c, 0, 64, 0
2, 11038, Note_on_c, 0, 62, 38
2, 11038, Note_on_c, 0, 58, 27
2, 11038, Note_on_c, 0, 69, 51
2, 11038, Note_on_c, 0, 81, 46
2, 11039, Note_on_c, 0, 73, 43
2, 11040, Note_on_c, 0, 52, 50
2, 11043, Note_on_c, 0, 76, 50
2, 11066, Control_c, 0, 64, 127
2, 11088, Note_on_c, 0, 52, 0
2, 11096, Note_on_c, 0, 69, 0
2, 11096, Note_on_c, 0, 58, 0
2, 11098, Note_on_c, 0, 62, 0
2, 11100, Note_on_c, 0, 81, 0
2, 11110, Note_on_c, 0, 76, 0
2, 11115, Note_on_c, 0, 73, 0
2, 11161, Note_on_c, 0, 81, 85
2, 11161, Note_on_c, 0, 70, 87
2, 11161, Note_on_c, 0, 73, 79
2, 11162, Note_on_c, 0, 69, 74
2, 11162, Control_c, 0, 64, 0
2, 11162, Note_on_c, 0, 76, 74
2, 11190, Control_c, 0, 64, 127
2, 11215, Note_on_c, 0, 81, 0
2, 11216, Note_on_c, 0, 69, 0
2, 11216, Note_on_c, 0, 70, 0
2, 11216, Note_on_c, 0, 73, 0
2, 11218, Note_on_c, 0, 76, 0
2, 11239, Note_on_c, 0, 79, 66
2, 11239, Note_on_c, 0, 70, 75
2, 11239, Note_on_c, 0, 67, 61
2, 11240, Note_on_c, 0, 76, 60
2, 11240, Note_on_c, 0, 73, 67
2, 11242, Control_c, 0, 64, 0
2, 11260, Note_on_c, 0, 79, 0
2, 11262, Note_on_c, 0, 76, 0
2, 11263, Control_c, 0, 64, 127
2, 11268, Note_on_c, 0, 73, 0
2, 11274, Note_on_c, 0, 70, 0
2, 11278, Note_on_c, 0, 67, 0
2, 11452, Note_on_c, 0, 77, 54
2, 11464, Note_on_c, 0, 77, 0
2, 11488, Note_on_c, 0, 79, 65
2, 11497, Note_on_c, 0, 79, 0
2, 11524, Note_on_c, 0, 81, 56
2, 11525, Control_c, 0, 64, 0
2, 11527, Note_on_c, 0, 64, 19
2, 11527, Note_on_c, 0, 74, 43
2, 11528, Note_on_c, 0, 69, 34
2, 11528, Note_on_c, 0, 76, 42
2, 11531, Note_on_c, 0, 60, 28
2, 11543, Control_c, 0, 64, 127
2, 11549, Note_on_c, 0, 60, 0
2, 11549, Note_on_c, 0, 64, 0
2, 11569, Note_on_c, 0, 81, 0
2, 11574, Note_on_c, 0, 74, 0
2, 11575, Note_on_c, 0, 76, 0
2, 11579, Note_on_c, 0, 69, 0
2, 11604, Note_on_c, 0, 48, 41
2, 11623, Note_on_c, 0, 48, 0
2, 11718, Note_on_c, 0, 51, 43
2, 11718, Note_on_c, 0, 56, 48
2, 11720, Note_on_c, 0, 61, 52
2, 11722, Note_on_c, 0, 67, 26
2, 11734, Note_on_c, 0, 67, 0
2, 11749, Note_on_c, 0, 51, 0
2, 11750, Note_on_c, 0, 61, 0
2, 11753, Note_on_c, 0, 56, 0
2, 11767, Note_on_c, 0, 55, 60
2, 11769, Note_on_c, 0, 60, 45
2, 11769, Note_on_c, 0, 65, 36
2, 11769, Note_on_c, 0, 50, 38
2, 11770, Control_c, 0, 64, 0
2, 11814, Control_c, 0, 64, 127
2, 11824, Note_on_c, 0, 55, 0
2, 11836, Note_on_c, 0, 60, 0
2, 11838, Note_on_c, 0, 41, 66
2, 11839, Note_on_c, 0, 50, 0
2, 11848, Note_on_c, 0, 65, 0
2, 11889, Note_on_c, 0, 41, 0
2, 11953, Note_on_c, 0, 69, 78
2, 11954, Note_on_c, 0, 40, 69
2, 11955, Control_c, 0, 64, 0
2, 11955, Note_on_c, 0, 58, 74
2, 11955, Note_on_c, 0, 62, 74
2, 11956, Note_on_c, 0, 52, 76
2, 11956, Note_on_c, 0, 64, 69
2, 11972, Note_on_c, 0, 58, 0
2, 11978, Note_on_c, 0, 62, 0
2, 11979, Note_on_c, 0, 40, 0
2, 11985, Control_c, 0, 64, 127
2, 11986, Note_on_c, 0, 64, 0
2, 11987, Note_on_c, 0, 52, 0
2, 11987, Note_on_c, 0, 69, 0
2, 12070, Note_on_c, 0, 81, 82
2, 12070, Note_on_c, 0, 57, 68
2, 12071, Note_on_c, 0, 62, 75
2, 12071, Note_on_c, 0, 76, 83
2, 12072, Note_on_c, 0, 69, 78
2, 12072, Note_on_c, 0, 58, 58
2, 12080, Control_c, 0, 64, 0
2, 12105, Control_c, 0, 64, 127
2, 12158, Note_on_c, 0, 57, 0
2, 12161, Note_on_c, 0, 69, 0
2, 12164, Note_on_c, 0, 58, 0
2, 12167, Note_on_c, 0, 62, 0
2, 12171, Note_on_c, 0, 81, 0
2, 12175, Note_on_c, 0, 76, 0
2, 12230, Note_on_c, 0, 83, 59
2, 12231, Note_on_c, 0, 55, 49
2, 12232, Note_on_c, 0, 65, 32
2, 12232, Note_on_c, 0, 61, 47
2, 12232, Note_on_c, 0, 76, 50
2, 12234, Note_on_c, 0, 71, 35
2, 12235, Control_c, 0, 64, 0
2, 12243, Note_on_c, 0, 65, 0
2, 12247, Note_on_c, 0, 55, 0
2, 12253, Note_on_c, 0, 71, 0
2, 12255, Note_on_c, 0, 61, 0
2, 12256, Note_on_c, 0, 76, 0
2, 12267, Note_on_c, 0, 83, 0
2, 12349, Note_on_c, 0, 66, 44
2, 12350, Note_on_c, 0, 61, 43
2, 12351, Note_on_c, 0, 85, 57
2, 12352, Note_on_c, 0, 55, 47
2, 12354, Control_c, 0, 64, 127
2, 12354, Note_on_c, 0, 73, 37
2, 12356, Note_on_c, 0, 80, 42
2, 12369, Note_on_c, 0, 66, 0
2, 12371, Note_on_c, 0, 55, 0
2, 12374, Note_on_c, 0, 61, 0
2, 12380, Note_on_c, 0, 73, 0
2, 12385, Note_on_c, 0, 85, 0
2, 12387, Note_on_c, 0, 80, 0
2, 12470, Note_on_c, 0, 88, 78
2, 12471, Note_on_c, 0, 50, 53
2, 12473, Note_on_c, 0, 81, 66
2, 12473, Note_on_c, 0, 76, 49
2, 12474, Note_on_c, 0, 61, 57
2, 12474, Control_c, 0, 64, 0
2, 12495, Control_c, 0, 64, 127
2, 12503, Note_on_c, 0, 88, 0
2, 12510, Note_on_c, 0, 81, 0
2, 12519, Note_on_c, 0, 76, 0
2, 12561, Note_on_c, 0, 61, 0
2, 12597, Note_on_c, 0, 65, 46
2, 12600, Note_on_c, 0, 60, 35
2, 12600, Note_on_c, 0, 69, 46
2, 12656, Note_on_c, 0, 69, 0
2, 12656, Note_on_c, 0, 65, 0
2, 12671, Note_on_c, 0, 60, 0
2, 12672, Note_on_c, 0, 76, 59
2, 12673, Note_on_c, 0, 65, 40
2, 12673, Note_on_c, 0, 69, 72
2, 12673, Note_on_c, 0, 57, 44
2, 12702, Note_on_c, 0, 76, 0
2, 12715, Note_on_c, 0, 69, 0
2, 12716, Note_on_c, 0, 65, 0
2, 12765, Note_on_c, 0, 74, 79
2, 12770, Note_on_c, 0, 57, 0
2, 12770, Note_on_c, 0, 65, 55
2, 12773, Control_c, 0, 64, 0
2, 12773, Note_on_c, 0, 60, 32
2, 12779, Note_on_c, 0, 60, 0
2, 12782, Note_on_c, 0, 65, 0
2, 12785, Note_on_c, 0, 74, 0
2, 12803, Note_on_c, 0, 68, 80
2, 12821, Control_c, 0, 64, 127
2, 12829, Note_on_c, 0, 68, 0
2, 12840, Note_on_c, 0, 69, 62
2, 12841, Note_on_c, 0, 60, 49
2, 12848, Note_on_c, 0, 60, 0
2, 12863, Note_on_c, 0, 69, 0
2, 12863, Note_on_c, 0, 50, 0
2, 12879, Note_on_c, 0, 65, 52
2, 12903, Note_on_c, 0, 65, 0
2, 12913, Note_on_c, 0, 62, 51
2, 12919, Note_on_c, 0, 44, 44
2, 12919, Note_on_c, 0, 54, 33
2, 12933, Note_on_c, 0, 54, 0
2, 12937, Note_on_c, 0, 44, 0
2, 12948, Note_on_c, 0, 62, 0
2, 12957, Control_c, 0, 64, 0
2, 12960, Note_on_c, 0, 53, 41
2, 12963, Note_on_c, 0, 43, 35
2, 12986, Control_c, 0, 64, 127
2, 12998, Note_on_c, 0, 43, 0
2, 13005, Note_on_c, 0, 53, 0
2, 13033, Note_on_c, 0, 56, 37
2, 13039, Note_on_c, 0, 57, 54
2, 13040, Note_on_c, 0, 72, 69
2, 13041, Note_on_c, 0, 62, 71
2, 13042, Note_on_c, 0, 65, 70
2, 13042, Note_on_c, 0, 69, 66
2, 13045, Note_on_c, 0, 56, 0
2, 13052, Control_c, 0, 64, 0
2, 13082, Control_c, 0, 64, 127
2, 13158, Note_on_c, 0, 69, 0
2, 13164, Note_on_c, 0, 65, 0
2, 13165, Note_on_c, 0, 62, 0
2, 13165, Note_on_c, 0, 72, 0
2, 13175, Note_on_c, 0, 57, 0
2, 13200, Note_on_c, 0, 70, 51
2, 13202, Note_on_c, 0, 55, 46
2, 13203, Note_on_c, 0, 62, 32
2, 13206, Note_on_c, 0, 65, 33
2, 13206, Control_c, 0, 64, 0
2, 13238, Note_on_c, 0, 65, 0
2, 13238, Note_on_c, 0, 62, 0
2, 13245, Note_on_c, 0, 55, 0
2, 13249, Note_on_c, 0, 70, 0
2, 13319, Note_on_c, 0, 62, 43
2, 13319, Note_on_c, 0, 50, 43
2, 13320, Control_c, 0, 64, 127
2, 13341, Note_on_c, 0, 50, 0
2, 13376, Note_on_c, 0, 62, 0
2, 13440, Note_on_c, 0, 60, 47
2, 13441, Note_on_c, 0, 64, 55
2, 13503, Note_on_c, 0, 60, 0
2, 13504, Note_on_c, 0, 64, 0
2, 13512, Note_on_c, 0, 28, 53
2, 13517, Note_on_c, 0, 28, 0
2, 13576, Note_on_c, 0, 56, 67
2, 13578, Note_on_c, 0, 76, 74
2, 13579, Note_on_c, 0, 67, 67
2, 13580, Note_on_c, 0, 72, 71
2, 13597, Note_on_c, 0, 67, 0
2, 13607, Note_on_c, 0, 72, 0
2, 13616, Note_on_c, 0, 76, 0
2, 13646, Note_on_c, 0, 84, 76
2, 13646, Note_on_c, 0, 91, 77
2, 13647, Note_on_c, 0, 62, 42
2, 13693, Note_on_c, 0, 84, 0
2, 13701, Note_on_c, 0, 91, 0
2, 13711, Note_on_c, 0, 88, 55
2, 13712, Note_on_c, 0, 79, 44
2, 13712, Note_on_c, 0, 67, 41
2, 13714, Note_on_c, 0, 84, 24
2, 13720, Note_on_c, 0, 84, 0
2, 13724, Note_on_c, 0, 79, 0
2, 13726, Note_on_c, 0, 88, 0
2, 13750, Note_on_c, 0, 56, 0
2, 13790, Note_on_c, 0, 67, 0
2, 13791, Note_on_c, 0, 56, 46
2, 13795, Note_on_c, 0, 62, 0
2, 13808, Note_on_c, 0, 56, 0
2, 13871, Note_on_c, 0, 45, 59
2, 13871, Note_on_c, 0, 52, 51
2, 13876, Control_c, 0, 64, 0
2, 13896, Note_on_c, 0, 45, 0
2, 13896, Control_c, 0, 64, 127
2, 13902, Note_on_c, 0, 52, 0
2, 13991, Note_on_c, 0, 60, 35
2, 13992, Note_on_c, 0, 65, 43
2, 13993, Note_on_c, 0, 61, 34
2, 13999, Note_on_c, 0, 55, 34
2, 14038, Note_on_c, 0, 65, 0
2, 14060, Note_on_c, 0, 61, 0
2, 14065, Note_on_c, 0, 60, 0
2, 14114, Note_on_c, 0, 76, 62
2, 14114, Note_on_c, 0, 64, 65
2, 14128, Note_on_c, 0, 64, 0
2, 14133, Note_on_c, 0, 76, 0
2, 14155, Note_on_c, 0, 55, 0
2, 14159, Note_on_c, 0, 65, 56
2, 14159, Note_on_c, 0, 77, 57
2, 14165, Note_on_c, 0, 65, 0
2, 14167, Note_on_c, 0, 77, 0
2, 14171, Control_c, 0, 64, 0
2, 14223, Control_c, 0, 64, 127
2, 14237, Note_on_c, 0, 77, 64
2, 14237, Note_on_c, 0, 65, 58
2, 14250, Note_on_c, 0, 65, 0
2, 14252, Note_on_c, 0, 77, 0
2, 14278, Note_on_c, 0, 79, 61
2, 14279, Note_on_c, 0, 67, 53
2, 14311, Note_on_c, 0, 67, 0
2, 14320, Note_on_c, 0, 79, 0
2, 14398, Control_c, 0, 64, 0
2, 14399, Note_on_c, 0, 81, 60
2, 14400, Note_on_c, 0, 69, 58
2, 14401, Note_on_c, 0, 77, 45
2, 14401, Note_on_c, 0, 60, 38
2, 14401, Note_on_c, 0, 57, 31
2, 14402, Note_on_c, 0, 50, 38
2, 14446, Note_on_c, 0, 81, 0
2, 14449, Note_on_c, 0, 69, 0
2, 14451, Note_on_c, 0, 57, 0
2, 14451, Note_on_c, 0, 77, 0
2, 14452, Note_on_c, 0, 60, 0
2, 14460, Note_on_c, 0, 50, 0
2, 14484, Control_c, 0, 64, 127
2, 14639, Note_on_c, 0, 73, 87
2, 14640, Note_on_c, 0, 68, 75
2, 14641, Note_on_c, 0, 63, 62
2, 14641, Note_on_c, 0, 57, 68
2, 14642, Control_c, 0, 64, 0
2, 14665, Control_c, 0, 64, 127
2, 14736, Note_on_c, 0, 57, 0
2, 14741, Note_on_c, 0, 68, 0
2, 14744, Note_on_c, 0, 63, 0
2, 14746, Note_on_c, 0, 73, 0
2, 14759, Control_c, 0, 64, 0
2, 14760, Note_on_c, 0, 68, 73
2, 14761, Note_on_c, 0, 63, 50
2, 14761, Note_on_c, 0, 57, 62
2, 14762, Note_on_c, 0, 74, 89
2, 14784, Control_c, 0, 64, 127
2, 14814, Note_on_c, 0, 74, 0
2, 14836, Note_on_c, 0, 57, 0
2, 14839, Note_on_c, 0, 68, 0
2, 14865, Note_on_c, 0, 63, 0
2, 14880, Note_on_c, 0, 74, 84
2, 14880, Note_on_c, 0, 77, 80
2, 14881, Note_on_c, 0, 56, 62
2, 14881, Note_on_c, 0, 62, 55
2, 14881, Note_on_c, 0, 67, 65
2, 14882, Control_c, 0, 64, 0
2, 14923, Control_c, 0, 64, 127
2, 15002, Note_on_c, 0, 67, 0
2, 15008, Note_on_c, 0, 62, 0
2, 15016, Note_on_c, 0, 77, 0
2, 15027, Note_on_c, 0, 74, 0
2, 15028, Note_on_c, 0, 56, 0
2, 15078, Note_on_c, 0, 76, 63
2, 15080, Note_on_c, 0, 55, 48
2, 15080, Note_on_c, 0, 65, 42
2, 15080, Note_on_c, 0, 61, 39
2, 15081, Note_on_c, 0, 73, 52
2, 15081, Note_on_c, 0, 67, 46
2, 15082, Note_on_c, 0, 70, 53
2, 15091, Control_c, 0, 64, 0
2, 15112, Note_on_c, 0, 67, 0
2, 15114, Note_on_c, 0, 73, 0
2, 15115, Note_on_c, 0, 76, 0
2, 15115, Note_on_c, 0, 70, 0
2, 15140, Note_on_c, 0, 65, 0
2, 15166, Note_on_c, 0, 74, 89
2, 15188, Note_on_c, 0, 74, 0
2, 15194, Note_on_c, 0, 61, 0
2, 15197, Note_on_c, 0, 68, 75
2, 15208, Note_on_c, 0, 55, 0
2, 15228, Note_on_c, 0, 68, 0
2, 15235, Note_on_c, 0, 67, 52
2, 15264, Note_on_c, 0, 67, 0
2, 15276, Note_on_c, 0, 62, 37
2, 15294, Note_on_c, 0, 62, 0
2, 15310, Note_on_c, 0, 67, 64
2, 15342, Note_on_c, 0, 67, 0
2, 15350, Note_on_c, 0, 26, 54
2, 15350, Note_on_c, 0, 38, 51
2, 15353, Note_on_c, 0, 65, 69
2, 15361, Note_on_c, 0, 65, 0
2, 15376, Note_on_c, 0, 26, 0
2, 15377, Note_on_c, 0, 38, 0
2, 15478, Note_on_c, 0, 56, 57
2, 15518, Note_on_c, 0, 56, 0
2, 15593, Note_on_c, 0, 55, 80
2, 15630, Note_on_c, 0, 55, 0
2, 15636, Note_on_c, 0, 56, 42
2, 15656, Note_on_c, 0, 55, 41
2, 15669, Note_on_c, 0, 56, 0
2, 15679, Note_on_c, 0, 55, 0
2, 15684, Note_on_c, 0, 53, 62
2, 15700, Note_on_c, 0, 53, 0
2, 15717, Note_on_c, 0, 52, 58
2, 15787, Note_on_c, 0, 52, 0
2, 15795, Note_on_c, 0, 55, 64
2, 15821, Note_on_c, 0, 55, 0
2, 15834, Note_on_c, 0, 53, 41
2, 15907, Note_on_c, 0, 53, 0
2, 15910, Note_on_c, 0, 50, 44
2, 16284, Note_on_c, 0, 44, 64
2, 16314, Note_on_c, 0, 44, 0
2, 16325, Note_on_c, 0, 50, 0
2, 16326, Note_on_c, 0, 45, 47
2, 16446, Note_on_c, 0, 58, 53
2, 16446, Note_on_c, 0, 69, 52
2, 16448, Note_on_c, 0, 62, 50
2, 16448, Control_c, 0, 64, 127
2, 16450, Note_on_c, 0, 64, 50
2, 16472, Note_on_c, 0, 45, 0
2, 16527, Note_on_c, 0, 57, 88
2, 16540, Control_c, 0, 64, 0
2, 16568, Note_on_c, 0, 62, 0
2, 16587, Note_on_c, 0, 69, 0
2, 16588, Note_on_c, 0, 58, 0
2, 16590, Note_on_c, 0, 64, 0
2, 16594, Control_c, 0, 64, 127
2, 16602, Note_on_c, 0, 58, 44
2, 16604, Note_on_c, 0, 69, 53
2, 16605, Note_on_c, 0, 62, 48
2, 16608, Note_on_c, 0, 64, 27
2, 16649, Note_on_c, 0, 62, 0
2, 16655, Note_on_c, 0, 58, 0
2, 16660, Note_on_c, 0, 64, 0
2, 16664, Note_on_c, 0, 69, 0
2, 16684, Control_c, 0, 64, 0
2, 16684, Note_on_c, 0, 45, 47
2, 16708, Control_c, 0, 64, 127
2, 16735, Note_on_c, 0, 57, 0
2, 16756, Note_on_c, 0, 70, 60
2, 16756, Note_on_c, 0, 61, 59
2, 16758, Note_on_c, 0, 66, 56
2, 16760, Note_on_c, 0, 55, 45
2, 16770, Control_c, 0, 64, 0
2, 16803, Control_c, 0, 64, 127
2, 16805, Note_on_c, 0, 61, 0
2, 16817, Note_on_c, 0, 66, 0
2, 16818, Note_on_c, 0, 70, 0
2, 16827, Note_on_c, 0, 45, 0
2, 16877, Note_on_c, 0, 45, 65
2, 16906, Note_on_c, 0, 45, 0
2, 16915, Note_on_c, 0, 55, 0
2, 16925, Note_on_c, 0, 84, 110
2, 16978, Note_on_c, 0, 84, 0
2, 16995, Note_on_c, 0, 60, 51
2, 16996, Note_on_c, 0, 65, 66
2, 16996, Note_on_c, 0, 61, 51
2, 16998, Note_on_c, 0, 82, 82
2, 17000, Note_on_c, 0, 55, 51
2, 17009, Control_c, 0, 64, 0
2, 17043, Note_on_c, 0, 82, 0
2, 17049, Note_on_c, 0, 65, 0
2, 17053, Note_on_c, 0, 60, 0
2, 17056, Note_on_c, 0, 61, 0
2, 17056, Note_on_c, 0, 81, 62
2, 17062, Note_on_c, 0, 55, 0
2, 17103, Note_on_c, 0, 81, 0
2, 17114, Note_on_c, 0, 52, 58
2, 17116, Note_on_c, 0, 45, 49
2, 17120, Note_on_c, 0, 77, 60
2, 17132, Note_on_c, 0, 52, 0
2, 17136, Note_on_c, 0, 45, 0
2, 17156, Note_on_c, 0, 77, 0
2, 17159, Control_c, 0, 64, 127
2, 17167, Note_on_c, 0, 73, 50
2, 17192, Note_on_c, 0, 73, 0
2, 17238, Note_on_c, 0, 76, 89
2, 17272, Note_on_c, 0, 38, 40
2, 17273, Note_on_c, 0, 76, 0
2, 17276, Note_on_c, 0, 45, 29
2, 17279, Control_c, 0, 64, 0
2, 17279, Note_on_c, 0, 53, 44
2, 17285, Note_on_c, 0, 74, 60
2, 17307, Note_on_c, 0, 74, 0
2, 17308, Note_on_c, 0, 38, 0
2, 17312, Note_on_c, 0, 45, 0
2, 17317, Note_on_c, 0, 69, 53
2, 17326, Note_on_c, 0, 53, 0
2, 17336, Note_on_c, 0, 69, 0
2, 17355, Note_on_c, 0, 68, 74
2, 17355, Note_on_c, 0, 74, 66
2, 17377, Control_c, 0, 64, 127
2, 17384, Note_on_c, 0, 68, 0
2, 17385, Control_c, 0, 64, 0
2, 17391, Note_on_c, 0, 67, 40
2, 17408, Note_on_c, 0, 74, 0
2, 17420, Note_on_c, 0, 67, 0
2, 17426, Note_on_c, 0, 65, 47
2, 17451, Note_on_c, 0, 65, 0
2, 17463, Note_on_c, 0, 64, 54
2, 17488, Note_on_c, 0, 64, 0
2, 17494, Note_on_c, 0, 67, 64
2, 17516, Note_on_c, 0, 67, 0
2, 17517, Note_on_c, 0, 60, 37
2, 17522, Note_on_c, 0, 57, 31
2, 17523, Note_on_c, 0, 50, 30
2, 17526, Note_on_c, 0, 53, 33
2, 17527, Note_on_c, 0, 65, 57
2, 17533, Note_on_c, 0, 60, 0
2, 17535, Note_on_c, 0, 53, 0
2, 17536, Note_on_c, 0, 57, 0
2, 17546, Note_on_c, 0, 50, 0
2, 17551, Note_on_c, 0, 65, 0
2, 17560, Note_on_c, 0, 59, 45
2, 17638, Note_on_c, 0, 50, 33
2, 17644, Note_on_c, 0, 50, 0
2, 17714, Control_c, 0, 64, 127
2, 17717, Note_on_c, 0, 45, 52
2, 17723, Note_on_c, 0, 45, 0
2, 17743, Control_c, 0, 64, 0
2, 17756, Note_on_c, 0, 38, 53
2, 17762, Note_on_c, 0, 38, 0
2, 17762, Control_c, 0, 64, 127
2, 17805, Note_on_c, 0, 59, 0
2, 17834, Note_on_c, 0, 60, 54
2, 17839, Note_on_c, 0, 54, 37
2, 17841, Note_on_c, 0, 50, 36
2, 17872, Control_c, 0, 64, 0
2, 17878, Note_on_c, 0, 62, 57
2, 17897, Note_on_c, 0, 62, 0
2, 17906, Note_on_c, 0, 63, 60
2, 17921, Note_on_c, 0, 63, 0
2, 17936, Note_on_c, 0, 65, 57
2, 17941, Control_c, 0, 64, 127
2, 17943, Note_on_c, 0, 50, 0
2, 17948, Note_on_c, 0, 54, 0
2, 17953, Note_on_c, 0, 60, 0
2, 17954, Note_on_c, 0, 65, 0
2, 17966, Note_on_c, 0, 66, 64
2, 17988, Note_on_c, 0, 66, 0
2, 17996, Control_c, 0, 64, 0
2, 17996, Note_on_c, 0, 68, 60
2, 17999, Note_on_c, 0, 54, 34
2, 17999, Note_on_c, 0, 60, 37
2, 18008, Note_on_c, 0, 68, 0
2, 18031, Control_c, 0, 64, 127
2, 18032, Note_on_c, 0, 60, 0
2, 18043, Note_on_c, 0, 54, 0
2, 18056, Note_on_c, 0, 75, 64
2, 18075, Note_on_c, 0, 75, 0
2, 18084, Note_on_c, 0, 77, 69
2, 18103, Note_on_c, 0, 77, 0
2, 18111, Note_on_c, 0, 80, 69
2, 18112, Note_on_c, 0, 60, 52
2, 18115, Note_on_c, 0, 54, 35
2, 18117, Note_on_c, 0, 50, 34
2, 18118, Note_on_c, 0, 60, 0
2, 18118, Control_c, 0, 64, 0
2, 18131, Note_on_c, 0, 80, 0
2, 18131, Note_on_c, 0, 54, 0
2, 18132, Note_on_c, 0, 50, 0
2, 18144, Note_on_c, 0, 82, 59
2, 18145, Control_c, 0, 64, 127
2, 18158, Note_on_c, 0, 82, 0
2, 18172, Note_on_c, 0, 84, 74
2, 18189, Note_on_c, 0, 84, 0
2, 18202, Note_on_c, 0, 86, 88
2, 18222, Note_on_c, 0, 86, 0
2, 18229, Note_on_c, 0, 43, 53
2, 18230, Control_c, 0, 64, 0
2, 18231, Note_on_c, 0, 50, 42
2, 18231, Note_on_c, 0, 84, 77
2, 18247, Note_on_c, 0, 43, 0
2, 18249, Control_c, 0, 64, 127
2, 18251, Note_on_c, 0, 84, 0
2, 18253, Note_on_c, 0, 50, 0
2, 18263, Note_on_c, 0, 81, 71
2, 18280, Note_on_c, 0, 81, 0
2, 18293, Note_on_c, 0, 77, 55
2, 18310, Note_on_c, 0, 77, 0
2, 18321, Note_on_c, 0, 74, 49
2, 18338, Note_on_c, 0, 74, 0
2, 18351, Note_on_c, 0, 62, 33
2, 18354, Note_on_c, 0, 58, 31
2, 18355, Control_c, 0, 64, 0
2, 18356, Note_on_c, 0, 60, 29
2, 18357, Note_on_c, 0, 70, 30
2, 18385, Note_on_c, 0, 70, 0
2, 18389, Note_on_c, 0, 69, 31
2, 18391, Control_c, 0, 64, 127
2, 18396, Note_on_c, 0, 60, 0
2, 18397, Note_on_c, 0, 69, 0
2, 18414, Note_on_c, 0, 74, 84
2, 18432, Note_on_c, 0, 62, 0
2, 18440, Note_on_c, 0, 74, 0
2, 18442, Note_on_c, 0, 58, 0
2, 18448, Note_on_c, 0, 72, 65
2, 18466, Note_on_c, 0, 72, 0
2, 18469, Note_on_c, 0, 62, 30
2, 18472, Control_c, 0, 64, 0
2, 18473, Note_on_c, 0, 58, 21
2, 18474, Note_on_c, 0, 57, 22
2, 18480, Note_on_c, 0, 69, 46
2, 18492, Control_c, 0, 64, 127
2, 18499, Note_on_c, 0, 62, 0
2, 18503, Note_on_c, 0, 57, 0
2, 18508, Note_on_c, 0, 58, 0
2, 18522, Note_on_c, 0, 69, 0
2, 18528, Note_on_c, 0, 65, 53
2, 18594, Note_on_c, 0, 58, 36
2, 18597, Note_on_c, 0, 62, 36
2, 18598, Note_on_c, 0, 65, 0
2, 18599, Note_on_c, 0, 50, 31
2, 18602, Control_c, 0, 64, 0
2, 18634, Note_on_c, 0, 63, 61
2, 18639, Note_on_c, 0, 62, 0
2, 18641, Control_c, 0, 64, 127
2, 18661, Note_on_c, 0, 63, 0
2, 18672, Note_on_c, 0, 64, 57
2, 18679, Note_on_c, 0, 51, 33
2, 18697, Note_on_c, 0, 50, 0
2, 18705, Note_on_c, 0, 51, 0
2, 18728, Control_c, 0, 64, 0
2, 18728, Note_on_c, 0, 52, 24
2, 18763, Control_c, 0, 64, 127
2, 18795, Note_on_c, 0, 52, 0
2, 18798, Note_on_c, 0, 48, 64
2, 18809, Note_on_c, 0, 48, 0
2, 18816, Note_on_c, 0, 58, 0
2, 18821, Note_on_c, 0, 64, 0
2, 18838, Note_on_c, 0, 58, 70
2, 18839, Note_on_c, 0, 72, 79
2, 18840, Note_on_c, 0, 64, 74
2, 18840, Note_on_c, 0, 68, 76
2, 18841, Control_c, 0, 64, 0
2, 18864, Control_c, 0, 64, 127
2, 18887, Note_on_c, 0, 68, 0
2, 18892, Note_on_c, 0, 72, 0
2, 18899, Note_on_c, 0, 58, 0
2, 18904, Note_on_c, 0, 64, 0
2, 18918, Note_on_c, 0, 58, 68
2, 18918, Note_on_c, 0, 73, 74
2, 18920, Note_on_c, 0, 64, 66
2, 18920, Note_on_c, 0, 68, 69
2, 18920, Note_on_c, 0, 70, 70
2, 18926, Control_c, 0, 64, 0
2, 18931, Control_c, 0, 64, 127
2, 18946, Note_on_c, 0, 64, 0
2, 18947, Note_on_c, 0, 58, 0
2, 18948, Note_on_c, 0, 68, 0
2, 18949, Note_on_c, 0, 73, 0
2, 18952, Note_on_c, 0, 70, 0
2, 18965, Note_on_c, 0, 61, 51
2, 18965, Note_on_c, 0, 70, 62
2, 18966, Note_on_c, 0, 68, 69
2, 18966, Note_on_c, 0, 75, 77
2, 18967, Note_on_c, 0, 64, 68
2, 18973, Control_c, 0, 64, 0
2, 18999, Control_c, 0, 64, 127
2, 19018, Note_on_c, 0, 68, 0
2, 19023, Note_on_c, 0, 61, 0
2, 19023, Note_on_c, 0, 64, 0
2, 19023, Note_on_c, 0, 70, 0
2, 19030, Note_on_c, 0, 75, 0
2, 19039, Note_on_c, 0, 73, 59
2, 19039, Note_on_c, 0, 70, 47
2, 19040, Note_on_c, 0, 64, 46
2, 19040, Note_on_c, 0, 58, 53
2, 19042, Note_on_c, 0, 68, 57
2, 19059, Note_on_c, 0, 73, 0
2, 19066, Note_on_c, 0, 64, 0
2, 19068, Note_on_c, 0, 68, 0
2, 19069, Note_on_c, 0, 58, 0
2, 19069, Control_c, 0, 64, 0
2, 19070, Note_on_c, 0, 70, 0
2, 19079, Control_c, 0, 64, 127
2, 19080, Note_on_c, 0, 57, 35
2, 19080, Note_on_c, 0, 72, 51
2, 19082, Note_on_c, 0, 64, 40
2, 19088, Note_on_c, 0, 57, 0
2, 19101, Note_on_c, 0, 64, 0
2, 19104, Note_on_c, 0, 72, 0
2, 19118, Note_on_c, 0, 70, 54
2, 19142, Note_on_c, 0, 70, 0
2, 19157, Note_on_c, 0, 72, 68
2, 19158, Note_on_c, 0, 64, 60
2, 19159, Note_on_c, 0, 69, 60
2, 19172, Control_c, 0, 64, 0
2, 19197, Note_on_c, 0, 48, 36
2, 19198, Note_on_c, 0, 41, 42
2, 19202, Control_c, 0, 64, 127
2, 19207, Note_on_c, 0, 64, 0
2, 19213, Note_on_c, 0, 41, 0
2, 19220, Note_on_c, 0, 48, 0
2, 19252, Note_on_c, 0, 69, 0
2, 19263, Note_on_c, 0, 72, 0
2, 19263, Note_on_c, 0, 64, 43
2, 19278, Note_on_c, 0, 64, 0
2, 19294, Note_on_c, 0, 65, 60
2, 19308, Note_on_c, 0, 65, 0
2, 19321, Control_c, 0, 64, 0
2, 19322, Note_on_c, 0, 64, 41
2, 19322, Note_on_c, 0, 53, 46
2, 19323, Note_on_c, 0, 69, 74
2, 19323, Note_on_c, 0, 59, 41
2, 19346, Note_on_c, 0, 69, 0
2, 19348, Control_c, 0, 64, 127
2, 19355, Note_on_c, 0, 72, 68
2, 19359, Note_on_c, 0, 59, 0
2, 19360, Note_on_c, 0, 53, 0
2, 19368, Note_on_c, 0, 72, 0
2, 19372, Note_on_c, 0, 64, 0
2, 19384, Note_on_c, 0, 68, 74
2, 19400, Note_on_c, 0, 68, 0
2, 19414, Note_on_c, 0, 69, 70
2, 19432, Note_on_c, 0, 69, 0
2, 19438, Control_c, 0, 64, 0
2, 19440, Note_on_c, 0, 73, 69
2, 19442, Note_on_c, 0, 65, 53
2, 19444, Note_on_c, 0, 54, 49
2, 19444, Note_on_c, 0, 60, 52
2, 19462, Control_c, 0, 64, 127
2, 19466, Note_on_c, 0, 73, 0
2, 19476, Note_on_c, 0, 76, 69
2, 19483, Note_on_c, 0, 54, 0
2, 19487, Note_on_c, 0, 60, 0
2, 19490, Note_on_c, 0, 76, 0
2, 19501, Note_on_c, 0, 65, 0
2, 19503, Note_on_c, 0, 72, 49
2, 19522, Note_on_c, 0, 72, 0
2, 19530, Note_on_c, 0, 73, 62
2, 19553, Control_c, 0, 64, 0
2, 19561, Note_on_c, 0, 77, 32
2, 19563, Note_on_c, 0, 66, 47
2, 19564, Note_on_c, 0, 76, 32
2, 19564, Note_on_c, 0, 56, 39
2, 19566, Note_on_c, 0, 61, 45
2, 19570, Note_on_c, 0, 73, 0
2, 19571, Note_on_c, 0, 76, 0
2, 19579, Control_c, 0, 64, 127
2, 19584, Note_on_c, 0, 77, 0
2, 19591, Note_on_c, 0, 80, 60
2, 19608, Note_on_c, 0, 80, 0
2, 19618, Note_on_c, 0, 76, 36
2, 19619, Note_on_c, 0, 56, 0
2, 19624, Note_on_c, 0, 66, 0
2, 19625, Note_on_c, 0, 61, 0
2, 19637, Note_on_c, 0, 76, 0
2, 19646, Note_on_c, 0, 77, 62
2, 19671, Control_c, 0, 64, 0
2, 19677, Note_on_c, 0, 81, 55
2, 19678, Note_on_c, 0, 67, 28
2, 19678, Note_on_c, 0, 62, 36
2, 19681, Note_on_c, 0, 57, 26
2, 19686, Note_on_c, 0, 77, 0
2, 19691, Note_on_c, 0, 67, 0
2, 19693, Control_c, 0, 64, 127
2, 19696, Note_on_c, 0, 62, 0
2, 19702, Note_on_c, 0, 81, 0
2, 19704, Note_on_c, 0, 57, 0
2, 19708, Note_on_c, 0, 84, 68
2, 19728, Note_on_c, 0, 84, 0
2, 19736, Note_on_c, 0, 81, 60
2, 19761, Note_on_c, 0, 81, 0
2, 19762, Note_on_c, 0, 82, 69
2, 19783, Note_on_c, 0, 82, 0
2, 19789, Note_on_c, 0, 57, 37
2, 19790, Note_on_c, 0, 58, 38
2, 19790, Note_on_c, 0, 62, 40
2, 19791, Control_c, 0, 64, 0
2, 19792, Note_on_c, 0, 84, 65
2, 19795, Note_on_c, 0, 52, 38
2, 19808, Control_c, 0, 64, 127
2, 19815, Note_on_c, 0, 84, 0
2, 19818, Note_on_c, 0, 62, 0
2, 19819, Note_on_c, 0, 85, 69
2, 19821, Note_on_c, 0, 57, 0
2, 19822, Note_on_c, 0, 58, 0
2, 19826, Note_on_c, 0, 52, 0
2, 19836, Note_on_c, 0, 85, 0
2, 19849, Note_on_c, 0, 87, 67
2, 19866, Note_on_c, 0, 87, 0
2, 19880, Note_on_c, 0, 88, 73
2, 19882, Note_on_c, 0, 52, 62
2, 19900, Note_on_c, 0, 88, 0
2, 19900, Control_c, 0, 64, 0
2, 19910, Note_on_c, 0, 90, 62
2, 19911, Note_on_c, 0, 45, 67
2, 19916, Note_on_c, 0, 52, 0
2, 19918, Note_on_c, 0, 45, 0
2, 19918, Control_c, 0, 64, 127
2, 19928, Note_on_c, 0, 90, 0
2, 19944, Note_on_c, 0, 91, 66
2, 19959, Note_on_c, 0, 91, 0
2, 19973, Note_on_c, 0, 93, 75
2, 19991, Note_on_c, 0, 93, 0
2, 20003, Note_on_c, 0, 94, 69
2, 20022, Note_on_c, 0, 94, 0
2, 20034, Note_on_c, 0, 61, 44
2, 20035, Note_on_c, 0, 58, 42
2, 20035, Note_on_c, 0, 96, 75
2, 20038, Note_on_c, 0, 64, 34
2, 20038, Control_c, 0, 64, 0
2, 20038, Note_on_c, 0, 55, 38
2, 20048, Note_on_c, 0, 96, 0
2, 20060, Control_c, 0, 64, 127
2, 20065, Note_on_c, 0, 97, 59
2, 20070, Note_on_c, 0, 64, 0
2, 20075, Note_on_c, 0, 61, 0
2, 20080, Note_on_c, 0, 55, 0
2, 20081, Note_on_c, 0, 58, 0
2, 20082, Note_on_c, 0, 97, 0
2, 20093, Note_on_c, 0, 99, 72
2, 20110, Note_on_c, 0, 99, 0
2, 20124, Note_on_c, 0, 100, 88
2, 20143, Note_on_c, 0, 100, 0
2, 20149, Control_c, 0, 64, 0
2, 20153, Note_on_c, 0, 57, 64
2, 20155, Note_on_c, 0, 103, 95
2, 20155, Note_on_c, 0, 50, 65
2, 20177, Note_on_c, 0, 103, 0
2, 20187, Note_on_c, 0, 101, 77
2, 20208, Note_on_c, 0, 101, 0
2, 20217, Note_on_c, 0, 97, 62
2, 20234, Note_on_c, 0, 97, 0
2, 20246, Note_on_c, 0, 100, 91
2, 20262, Note_on_c, 0, 50, 0
2, 20273, Note_on_c, 0, 98, 76
2, 20275, Note_on_c, 0, 61, 55
2, 20278, Note_on_c, 0, 50, 14
2, 20297, Note_on_c, 0, 100, 0
2, 20301, Note_on_c, 0, 98, 0
2, 20304, Note_on_c, 0, 95, 62
2, 20317, Note_on_c, 0, 95, 0
2, 20337, Note_on_c, 0, 61, 0
2, 20338, Note_on_c, 0, 93, 36
2, 20341, Note_on_c, 0, 91, 25
2, 20352, Control_c, 0, 64, 127
2, 20357, Note_on_c, 0, 91, 0
2, 20357, Note_on_c, 0, 93, 0
2, 20388, Control_c, 0, 64, 0
2, 20392, Note_on_c, 0, 60, 51
2, 20396, Note_on_c, 0, 93, 66
2, 20429, Note_on_c, 0, 50, 0
2, 20432, Control_c, 0, 64, 127
2, 20436, Note_on_c, 0, 93, 0
2, 20440, Note_on_c, 0, 89, 66
2, 20450, Note_on_c, 0, 89, 0
2, 20514, Note_on_c, 0, 50, 49
2, 20514, Control_c, 0, 64, 0
2, 20524, Control_c, 0, 64, 127
2, 20525, Note_on_c, 0, 60, 0
2, 20529, Note_on_c, 0, 57, 0
2, 20541, Note_on_c, 0, 50, 0
2, 20556, Control_c, 0, 64, 0
2, 20590, Control_c, 0, 64, 127
2, 20598, Note_on_c, 0, 50, 64
2, 20627, Note_on_c, 0, 50, 0
2, 20631, Control_c, 0, 64, 0
2, 20640, Note_on_c, 0, 43, 57
2, 20647, Note_on_c, 0, 43, 0
2, 20648, Control_c, 0, 64, 127
2, 20725, Note_on_c, 0, 74, 99
2, 20754, Note_on_c, 0, 74, 0
2, 20761, Note_on_c, 0, 62, 32
2, 20762, Note_on_c, 0, 60, 36
2, 20762, Note_on_c, 0, 69, 57
2, 20764, Note_on_c, 0, 58, 31
2, 20765, Control_c, 0, 64, 0
2, 20796, Note_on_c, 0, 69, 0
2, 20797, Control_c, 0, 64, 127
2, 20800, Note_on_c, 0, 72, 74
2, 20817, Note_on_c, 0, 60, 0
2, 20826, Note_on_c, 0, 72, 0
2, 20827, Note_on_c, 0, 62, 0
2, 20829, Note_on_c, 0, 58, 0
2, 20839, Note_on_c, 0, 70, 63
2, 20864, Note_on_c, 0, 70, 0
2, 20877, Note_on_c, 0, 62, 35
2, 20879, Note_on_c, 0, 58, 33
2, 20880, Note_on_c, 0, 57, 25
2, 20890, Control_c, 0, 64, 0
2, 20928, Note_on_c, 0, 65, 38
2, 20938, Note_on_c, 0, 65, 0
2, 20959, Note_on_c, 0, 62, 0
2, 20964, Note_on_c, 0, 69, 83
2, 20968, Control_c, 0, 64, 127
2, 20985, Note_on_c, 0, 57, 0
2, 20997, Note_on_c, 0, 69, 0
2, 20999, Note_on_c, 0, 62, 45
2, 21002, Control_c, 0, 64, 0
2, 21005, Note_on_c, 0, 67, 59
2, 21007, Note_on_c, 0, 62, 0
2, 21008, Note_on_c, 0, 55, 32
2, 21015, Note_on_c, 0, 58, 0
2, 21017, Note_on_c, 0, 55, 0
2, 21026, Control_c, 0, 64, 127
2, 21034, Note_on_c, 0, 67, 0
2, 21045, Note_on_c, 0, 62, 33
2, 21065, Note_on_c, 0, 62, 0
2, 21078, Note_on_c, 0, 53, 29
2, 21081, Note_on_c, 0, 63, 49
2, 21112, Note_on_c, 0, 63, 0
2, 21116, Note_on_c, 0, 53, 0
2, 21120, Note_on_c, 0, 46, 34
2, 21121, Control_c, 0, 64, 0
2, 21124, Note_on_c, 0, 56, 15
2, 21125, Note_on_c, 0, 64, 34
2, 21151, Control_c, 0, 64, 127
2, 21169, Note_on_c, 0, 64, 0
2, 21176, Note_on_c, 0, 46, 0
2, 21183, Note_on_c, 0, 56, 0
2, 21199, Note_on_c, 0, 67, 37
2, 21206, Note_on_c, 0, 67, 0
2, 21216, Note_on_c, 0, 68, 50
2, 21230, Note_on_c, 0, 70, 62
2, 21231, Note_on_c, 0, 68, 0
2, 21237, Note_on_c, 0, 70, 0
2, 21241, Control_c, 0, 64, 0
2, 21250, Note_on_c, 0, 71, 32
2, 21259, Note_on_c, 0, 71, 0
2, 21268, Note_on_c, 0, 73, 59
2, 21278, Note_on_c, 0, 73, 0
2, 21288, Note_on_c, 0, 74, 55
2, 21303, Note_on_c, 0, 74, 0
2, 21308, Note_on_c, 0, 76, 56
2, 21319, Note_on_c, 0, 76, 0
2, 21327, Note_on_c, 0, 77, 50
2, 21333, Note_on_c, 0, 77, 0
2, 21347, Note_on_c, 0, 79, 63
2, 21360, Note_on_c, 0, 79, 0
2, 21362, Note_on_c, 0, 56, 32
2, 21362, Note_on_c, 0, 67, 22
2, 21364, Note_on_c, 0, 62, 29
2, 21371, Note_on_c, 0, 80, 62
2, 21378, Note_on_c, 0, 67, 0
2, 21382, Note_on_c, 0, 62, 0
2, 21384, Note_on_c, 0, 80, 0
2, 21392, Note_on_c, 0, 56, 0
2, 21443, Note_on_c, 0, 46, 71
2, 21463, Note_on_c, 0, 46, 0
2, 21531, Note_on_c, 0, 56, 74
2, 21548, Note_on_c, 0, 56, 0
2, 21565, Note_on_c, 0, 52, 63
2, 21567, Control_c, 0, 64, 127
2, 21578, Control_c, 0, 64, 0
2, 21592, Note_on_c, 0, 52, 0
2, 21602, Note_on_c, 0, 45, 70
2, 21607, Control_c, 0, 64, 127
2, 21613, Note_on_c, 0, 45, 0
2, 21770, Control_c, 0, 64, 0
2, 21771, Note_on_c, 0, 76, 83
2, 21771, Note_on_c, 0, 84, 84
2, 21771, Note_on_c, 0, 72, 81
2, 21771, Note_on_c, 0, 73, 83
2, 21774, Note_on_c, 0, 82, 54
2, 21775, Note_on_c, 0, 79, 57
2, 21778, Note_on_c, 0, 80, 31
2, 21787, Note_on_c, 0, 80, 0
2, 21789, Note_on_c, 0, 84, 0
2, 21789, Note_on_c, 0, 79, 0
2, 21790, Note_on_c, 0, 82, 0
2, 21790, Control_c, 0, 64, 127
2, 21791, Note_on_c, 0, 76, 0
2, 21792, Note_on_c, 0, 72, 0
2, 21803, Note_on_c, 0, 73, 0
2, 21834, Note_on_c, 0, 81, 74
2, 21835, Control_c, 0, 64, 0
2, 21836, Note_on_c, 0, 70, 71
2, 21836, Note_on_c, 0, 73, 69
2, 21836, Note_on_c, 0, 69, 65
2, 21837, Note_on_c, 0, 76, 69
2, 21855, Control_c, 0, 64, 127
2, 21856, Note_on_c, 0, 81, 0
2, 21858, Note_on_c, 0, 69, 0
2, 21860, Note_on_c, 0, 76, 0
2, 21863, Note_on_c, 0, 73, 0
2, 21864, Note_on_c, 0, 70, 0
2, 21913, Note_on_c, 0, 78, 68
2, 21914, Note_on_c, 0, 64, 55
2, 21916, Note_on_c, 0, 73, 67
2, 21917, Note_on_c, 0, 70, 64
2, 21917, Note_on_c, 0, 67, 57
2, 21943, Note_on_c, 0, 73, 0
2, 21944, Note_on_c, 0, 67, 0
2, 21946, Note_on_c, 0, 70, 0
2, 21946, Note_on_c, 0, 78, 0
2, 21952, Note_on_c, 0, 64, 0
2, 21953, Control_c, 0, 64, 0
2, 21956, Note_on_c, 0, 76, 32
2, 21957, Note_on_c, 0, 61, 50
2, 21958, Note_on_c, 0, 67, 25
2, 21960, Note_on_c, 0, 73, 51
2, 21961, Note_on_c, 0, 70, 53
2, 21971, Control_c, 0, 64, 127
2, 21975, Note_on_c, 0, 61, 0
2, 22009, Note_on_c, 0, 76, 0
2, 22013, Note_on_c, 0, 67, 0
2, 22025, Note_on_c, 0, 70, 0
2, 22026, Note_on_c, 0, 73, 0
2, 22037, Note_on_c, 0, 51, 42
2, 22039, Note_on_c, 0, 61, 30
2, 22052, Note_on_c, 0, 61, 0
2, 22063, Note_on_c, 0, 51, 0
2, 22076, Note_on_c, 0, 77, 66
2, 22076, Note_on_c, 0, 69, 58
2, 22077, Control_c, 0, 64, 0
2, 22077, Note_on_c, 0, 65, 53
2, 22079, Note_on_c, 0, 60, 36
2, 22080, Note_on_c, 0, 72, 51
2, 22080, Note_on_c, 0, 50, 50
2, 22105, Control_c, 0, 64, 127
2, 22118, Note_on_c, 0, 60, 0
2, 22126, Note_on_c, 0, 77, 0
2, 22134, Note_on_c, 0, 65, 0
2, 22138, Note_on_c, 0, 69, 0
2, 22142, Note_on_c, 0, 72, 0
2, 22151, Control_c, 0, 64, 0
2, 22152, Note_on_c, 0, 61, 64
2, 22154, Note_on_c, 0, 76, 66
2, 22156, Note_on_c, 0, 69, 57
2, 22157, Note_on_c, 0, 65, 54
2, 22181, Note_on_c, 0, 61, 0
2, 22184, Note_on_c, 0, 65, 0
2, 22188, Note_on_c, 0, 69, 0
2, 22190, Note_on_c, 0, 76, 0
2, 22194, Note_on_c, 0, 74, 44
2, 22198, Note_on_c, 0, 60, 48
2, 22199, Note_on_c, 0, 69, 30
2, 22199, Note_on_c, 0, 65, 33
2, 22203, Control_c, 0, 64, 127
2, 22223, Note_on_c, 0, 69, 0
2, 22232, Note_on_c, 0, 74, 0
2, 22235, Note_on_c, 0, 65, 0
2, 22260, Note_on_c, 0, 60, 0
2, 22281, Note_on_c, 0, 57, 33
2, 22293, Note_on_c, 0, 50, 0
2, 22296, Note_on_c, 0, 57, 0
2, 22323, Note_on_c, 0, 64, 75
2, 22324, Note_on_c, 0, 65, 73
2, 22326, Note_on_c, 0, 50, 58
2, 22327, Note_on_c, 0, 57, 54
2, 22327, Note_on_c, 0, 60, 59
2, 22329, Note_on_c, 0, 68, 26
2, 22332, Control_c, 0, 64, 0
2, 22337, Note_on_c, 0, 68, 0
2, 22362, Note_on_c, 0, 65, 0
2, 22363, Note_on_c, 0, 64, 0
2, 22364, Note_on_c, 0, 60, 0
2, 22369, Note_on_c, 0, 57, 0
2, 22372, Note_on_c, 0, 50, 0
2, 22399, Note_on_c, 0, 64, 63
2, 22400, Note_on_c, 0, 50, 45
2, 22400, Note_on_c, 0, 65, 70
2, 22400, Note_on_c, 0, 60, 48
2, 22401, Note_on_c, 0, 57, 41
2, 22417, Note_on_c, 0, 60, 0
2, 22432, Note_on_c, 0, 64, 0
2, 22446, Note_on_c, 0, 62, 50
2, 22448, Note_on_c, 0, 50, 0
2, 22448, Control_c, 0, 64, 127
2, 22514, Note_on_c, 0, 62, 0
2, 22519, Note_on_c, 0, 50, 44
2, 22524, Note_on_c, 0, 57, 0
2, 22535, Note_on_c, 0, 50, 0
2, 22564, Note_on_c, 0, 47, 39
2, 22567, Control_c, 0, 64, 0
2, 22602, Control_c, 0, 64, 127
2, 22617, Note_on_c, 0, 47, 0
2, 22640, Note_on_c, 0, 47, 59
2, 22672, Control_c, 0, 64, 0
2, 22681, Note_on_c, 0, 61, 59
2, 22684, Note_on_c, 0, 65, 0
2, 22684, Note_on_c, 0, 59, 48
2, 22686, Note_on_c, 0, 57, 34
2, 22742, Control_c, 0, 64, 127
2, 22765, Note_on_c, 0, 57, 0
2, 22778, Note_on_c, 0, 59, 0
2, 22785, Note_on_c, 0, 61, 0
2, 22799, Note_on_c, 0, 62, 62
2, 22800, Note_on_c, 0, 59, 57
2, 22800, Note_on_c, 0, 57, 48
2, 22801, Control_c, 0, 64, 0
2, 22836, Control_c, 0, 64, 127
2, 22845, Note_on_c, 0, 47, 0
2, 22864, Note_on_c, 0, 59, 0
2, 22877, Note_on_c, 0, 63, 75
2, 22880, Note_on_c, 0, 59, 10
2, 22887, Note_on_c, 0, 62, 0
2, 22900, Note_on_c, 0, 59, 0
2, 22917, Note_on_c, 0, 63, 0
2, 22920, Note_on_c, 0, 47, 51
2, 22921, Note_on_c, 0, 62, 49
2, 22932, Note_on_c, 0, 57, 0
2, 22940, Note_on_c, 0, 47, 0
2, 22966, Note_on_c, 0, 62, 0
2, 23030, Control_c, 0, 64, 0
2, 23032, Note_on_c, 0, 64, 64
2, 23033, Note_on_c, 0, 60, 70
2, 23033, Note_on_c, 0, 55, 58
2, 23033, Note_on_c, 0, 40, 61
2, 23040, Note_on_c, 0, 55, 0
2, 23047, Note_on_c, 0, 40, 0
2, 23047, Note_on_c, 0, 60, 0
2, 23047, Control_c, 0, 64, 127
2, 23055, Note_on_c, 0, 64, 0
2, 23087, Note_on_c, 0, 77, 82
2, 23106, Note_on_c, 0, 77, 0
2, 23126, Note_on_c, 0, 67, 68
2, 23127, Note_on_c, 0, 75, 52
2, 23128, Note_on_c, 0, 62, 67
2, 23129, Note_on_c, 0, 56, 53
2, 23137, Note_on_c, 0, 75, 0
2, 23143, Control_c, 0, 64, 0
2, 23146, Control_c, 0, 64, 127
2, 23195, Note_on_c, 0, 67, 0
2, 23204, Note_on_c, 0, 72, 67
2, 23217, Note_on_c, 0, 62, 0
2, 23229, Note_on_c, 0, 72, 0
2, 23237, Note_on_c, 0, 79, 72
2, 23239, Note_on_c, 0, 62, 47
2, 23249, Note_on_c, 0, 79, 0
2, 23267, Note_on_c, 0, 62, 0
2, 23274, Control_c, 0, 64, 0
2, 23275, Note_on_c, 0, 62, 31
2, 23277, Note_on_c, 0, 67, 55
2, 23278, Note_on_c, 0, 91, 88
2, 23279, Note_on_c, 0, 84, 88
2, 23294, Control_c, 0, 64, 127
2, 23299, Note_on_c, 0, 67, 0
2, 23306, Note_on_c, 0, 62, 0
2, 23307, Note_on_c, 0, 84, 0
2, 23311, Note_on_c, 0, 91, 0
2, 23317, Note_on_c, 0, 79, 38
2, 23322, Note_on_c, 0, 88, 35
2, 23334, Note_on_c, 0, 79, 0
2, 23341, Note_on_c, 0, 88, 0
2, 23356, Note_on_c, 0, 91, 80
2, 23356, Note_on_c, 0, 84, 74
2, 23356, Note_on_c, 0, 62, 54
2, 23356, Note_on_c, 0, 67, 56
2, 23358, Control_c, 0, 64, 0
2, 23377, Control_c, 0, 64, 127
2, 23382, Note_on_c, 0, 91, 0
2, 23383, Note_on_c, 0, 84, 0
2, 23387, Note_on_c, 0, 56, 0
2, 23396, Note_on_c, 0, 79, 31
2, 23401, Note_on_c, 0, 88, 28
2, 23408, Note_on_c, 0, 79, 0
2, 23415, Note_on_c, 0, 88, 0
2, 23438, Note_on_c, 0, 56, 42
2, 23439, Note_on_c, 0, 84, 60
2, 23440, Note_on_c, 0, 79, 33
2, 23449, Note_on_c, 0, 84, 0
2, 23450, Note_on_c, 0, 56, 0
2, 23454, Note_on_c, 0, 79, 0
2, 23475, Note_on_c, 0, 56, 47
2, 23476, Note_on_c, 0, 88, 55
2, 23482, Note_on_c, 0, 67, 0
2, 23487, Note_on_c, 0, 62, 0
2, 23497, Note_on_c, 0, 56, 0
2, 23501, Note_on_c, 0, 88, 0
2, 23511, Control_c, 0, 64, 0
2, 23516, Note_on_c, 0, 60, 62
2, 23517, Note_on_c, 0, 65, 66
2, 23517, Note_on_c, 0, 91, 73
2, 23518, Note_on_c, 0, 61, 63
2, 23520, Note_on_c, 0, 79, 54
2, 23520, Note_on_c, 0, 84, 58
2, 23521, Note_on_c, 0, 88, 43
2, 23524, Note_on_c, 0, 55, 38
2, 23546, Note_on_c, 0, 91, 0
2, 23546, Note_on_c, 0, 65, 0
2, 23548, Note_on_c, 0, 88, 0
2, 23548, Control_c, 0, 64, 127
2, 23549, Note_on_c, 0, 55, 0
2, 23549, Note_on_c, 0, 79, 0
2, 23550, Note_on_c, 0, 60, 0
2, 23550, Note_on_c, 0, 84, 0
2, 23553, Note_on_c, 0, 61, 0
2, 23597, Control_c, 0, 64, 0
2, 23600, Note_on_c, 0, 60, 81
2, 23600, Note_on_c, 0, 86, 83
2, 23600, Note_on_c, 0, 61, 63
2, 23600, Note_on_c, 0, 74, 89
2, 23601, Note_on_c, 0, 65, 80
2, 23603, Note_on_c, 0, 58, 44
2, 23603, Note_on_c, 0, 55, 68
2, 23604, Control_c, 0, 64, 127
2, 23625, Note_on_c, 0, 55, 0
2, 23626, Note_on_c, 0, 86, 0
2, 23626, Note_on_c, 0, 65, 0
2, 23628, Note_on_c, 0, 74, 0
2, 23628, Note_on_c, 0, 61, 0
2, 23630, Note_on_c, 0, 58, 0
2, 23630, Note_on_c, 0, 60, 0
2, 23640, Control_c, 0, 64, 0
2, 23643, Note_on_c, 0, 61, 42
2, 23643, Note_on_c, 0, 65, 52
2, 23644, Note_on_c, 0, 86, 45
2, 23644, Note_on_c, 0, 60, 54
2, 23645, Note_on_c, 0, 55, 39
2, 23646, Note_on_c, 0, 74, 47
2, 23649, Note_on_c, 0, 58, 29
2, 23654, Note_on_c, 0, 65, 0
2, 23656, Note_on_c, 0, 55, 0
2, 23656, Note_on_c, 0, 58, 0
2, 23657, Note_on_c, 0, 60, 0
2, 23657, Note_on_c, 0, 74, 0
2, 23659, Note_on_c, 0, 61, 0
2, 23660, Note_on_c, 0, 86, 0
2, 23706, Control_c, 0, 64, 127
2, 23719, Note_on_c, 0, 86, 74
2, 23719, Note_on_c, 0, 60, 64
2, 23720, Note_on_c, 0, 61, 49
2, 23720, Note_on_c, 0, 74, 73
2, 23720, Note_on_c, 0, 65, 65
2, 23724, Note_on_c, 0, 58, 29
2, 23726, Note_on_c, 0, 55, 36
2, 23731, Note_on_c, 0, 65, 0
2, 23733, Note_on_c, 0, 55, 0
2, 23736, Note_on_c, 0, 74, 0
2, 23736, Note_on_c, 0, 60, 0
2, 23740, Note_on_c, 0, 86, 0
2, 23741, Note_on_c, 0, 58, 0
2, 23744, Note_on_c, 0, 61, 0
2, 23748, Control_c, 0, 64, 0
2, 23760, Note_on_c, 0, 65, 71
2, 23760, Note_on_c, 0, 61, 51
2, 23760, Note_on_c, 0, 76, 78
2, 23760, Note_on_c, 0, 60, 64
2, 23761, Note_on_c, 0, 88, 84
2, 23762, Note_on_c, 0, 55, 66
2, 23763, Note_on_c, 0, 58, 35
2, 23796, Control_c, 0, 64, 127
2, 23838, Note_on_c, 0, 55, 0
2, 23839, Note_on_c, 0, 88, 0
2, 23843, Note_on_c, 0, 65, 0
2, 23845, Note_on_c, 0, 60, 0
2, 23845, Note_on_c, 0, 61, 0
2, 23848, Note_on_c, 0, 58, 0
2, 23849, Note_on_c, 0, 76, 0
2, 23876, Control_c, 0, 64, 0
2, 23880, Note_on_c, 0, 65, 62
2, 23880, Note_on_c, 0, 61, 52
2, 23881, Note_on_c, 0, 86, 66
2, 23881, Note_on_c, 0, 60, 38
2, 23883, Note_on_c, 0, 55, 55
2, 23883, Note_on_c, 0, 74, 58
2, 23887, Note_on_c, 0, 58, 28
2, 23894, Control_c, 0, 64, 127
2, 23896, Note_on_c, 0, 60, 0
2, 23896, Note_on_c, 0, 65, 0
2, 23903, Note_on_c, 0, 61, 0
2, 23908, Note_on_c, 0, 55, 0
2, 23910, Note_on_c, 0, 58, 0
2, 24073, Note_on_c, 0, 40, 85
2, 24074, Note_on_c, 0, 86, 0
2, 24076, Note_on_c, 0, 74, 0
2, 24088, Control_c, 0, 64, 0
2, 24098, Control_c, 0, 64, 127
2, 24108, Note_on_c, 0, 40, 0
2, 24196, Note_on_c, 0, 62, 84
2, 24196, Note_on_c, 0, 57, 74
2, 24197, Note_on_c, 0, 58, 67
2, 24197, Note_on_c, 0, 52, 72
2, 24212, Control_c, 0, 64, 0
2, 24249, Note_on_c, 0, 79, 69
2, 24255, Note_on_c, 0, 80, 65
2, 24264, Note_on_c, 0, 79, 0
2, 24264, Note_on_c, 0, 81, 72
2, 24266, Note_on_c, 0, 80, 0
2, 24283, Note_on_c, 0, 81, 0
2, 24331, Note_on_c, 0, 84, 108
2, 24332, Control_c, 0, 64, 127
2, 24349, Note_on_c, 0, 84, 0
2, 24370, Note_on_c, 0, 80, 59
2, 24372, Control_c, 0, 64, 0
2, 24379, Note_on_c, 0, 80, 0
2, 24383, Note_on_c, 0, 79, 52
2, 24402, Note_on_c, 0, 79, 0
2, 24409, Control_c, 0, 64, 127
2, 24409, Note_on_c, 0, 77, 44
2, 24418, Note_on_c, 0, 62, 0
2, 24419, Note_on_c, 0, 57, 0
2, 24422, Note_on_c, 0, 58, 0
2, 24424, Note_on_c, 0, 77, 0
2, 24428, Note_on_c, 0, 52, 0
2, 24428, Note_on_c, 0, 74, 51
2, 24438, Note_on_c, 0, 74, 0
2, 24453, Note_on_c, 0, 77, 84
2, 24469, Note_on_c, 0, 77, 0
2, 24476, Note_on_c, 0, 79, 81
2, 24496, Control_c, 0, 64, 0
2, 24497, Note_on_c, 0, 79, 0
2, 24502, Note_on_c, 0, 45, 66
2, 24504, Note_on_c, 0, 77, 74
2, 24510, Control_c, 0, 64, 127
2, 24515, Note_on_c, 0, 45, 0
2, 24570, Note_on_c, 0, 65, 54
2, 24573, Note_on_c, 0, 60, 37
2, 24575, Note_on_c, 0, 61, 34
2, 24575, Note_on_c, 0, 55, 48
2, 24584, Control_c, 0, 64, 0
2, 24597, Control_c, 0, 64, 127
2, 24656, Note_on_c, 0, 77, 0
2, 24664, Note_on_c, 0, 84, 87
2, 24686, Note_on_c, 0, 84, 0
2, 24697, Note_on_c, 0, 81, 66
2, 24715, Note_on_c, 0, 60, 0
2, 24716, Note_on_c, 0, 81, 0
2, 24718, Note_on_c, 0, 65, 0
2, 24721, Note_on_c, 0, 61, 0
2, 24724, Note_on_c, 0, 55, 0
2, 24732, Note_on_c, 0, 72, 34
2, 24748, Note_on_c, 0, 72, 0
2, 24802, Note_on_c, 0, 66, 52
2, 24804, Note_on_c, 0, 61, 29
2, 24806, Note_on_c, 0, 55, 55
2, 24833, Note_on_c, 0, 66, 0
2, 24838, Note_on_c, 0, 55, 0
2, 24839, Note_on_c, 0, 61, 0
2, 24883, Note_on_c, 0, 69, 71
2, 24895, Note_on_c, 0, 69, 0
2, 24915, Note_on_c, 0, 72, 80
2, 24929, Note_on_c, 0, 72, 0
2, 24950, Control_c, 0, 64, 0
2, 24951, Note_on_c, 0, 38, 52
2, 24952, Note_on_c, 0, 45, 52
2, 24953, Note_on_c, 0, 76, 82
2, 24956, Note_on_c, 0, 70, 51
2, 24957, Note_on_c, 0, 38, 0
2, 24961, Note_on_c, 0, 70, 0
2, 24964, Note_on_c, 0, 45, 0
2, 24966, Control_c, 0, 64, 127
2, 24977, Note_on_c, 0, 76, 0
2, 25030, Note_on_c, 0, 79, 66
2, 25032, Note_on_c, 0, 69, 66
2, 25032, Note_on_c, 0, 73, 73
2, 25034, Note_on_c, 0, 64, 63
2, 25059, Note_on_c, 0, 79, 0
2, 25067, Note_on_c, 0, 73, 0
2, 25071, Note_on_c, 0, 69, 0
2, 25098, Note_on_c, 0, 64, 0
2, 25114, Note_on_c, 0, 77, 71
2, 25117, Note_on_c, 0, 69, 51
2, 25118, Note_on_c, 0, 62, 54
2, 25118, Control_c, 0, 64, 0
2, 25119, Note_on_c, 0, 72, 59
2, 25140, Control_c, 0, 64, 127
2, 25159, Note_on_c, 0, 77, 0
2, 25160, Note_on_c, 0, 72, 0
2, 25168, Note_on_c, 0, 69, 0
2, 25193, Note_on_c, 0, 62, 0
2, 25194, Note_on_c, 0, 76, 65
2, 25194, Note_on_c, 0, 61, 57
2, 25197, Control_c, 0, 64, 0
2, 25197, Note_on_c, 0, 65, 44
2, 25197, Note_on_c, 0, 69, 55
2, 25217, Control_c, 0, 64, 127
2, 25221, Note_on_c, 0, 69, 0
2, 25222, Note_on_c, 0, 76, 0
2, 25223, Note_on_c, 0, 61, 0
2, 25231, Note_on_c, 0, 65, 0
2, 25274, Note_on_c, 0, 72, 62
2, 25275, Note_on_c, 0, 57, 47
2, 25276, Note_on_c, 0, 62, 37
2, 25300, Note_on_c, 0, 62, 0
2, 25310, Note_on_c, 0, 72, 0
2, 25312, Note_on_c, 0, 69, 57
2, 25318, Note_on_c, 0, 57, 0
2, 25337, Note_on_c, 0, 69, 0
2, 25345, Note_on_c, 0, 65, 52
2, 25367, Note_on_c, 0, 65, 0
2, 25374, Note_on_c, 0, 62, 52
2, 25394, Note_on_c, 0, 62, 0
2, 25401, Note_on_c, 0, 45, 37
2, 25405, Note_on_c, 0, 63, 62
2, 25427, Note_on_c, 0, 45, 0
2, 25436, Note_on_c, 0, 38, 54
2, 25439, Note_on_c, 0, 63, 0
2, 25439, Control_c, 0, 64, 0
2, 25459, Note_on_c, 0, 38, 0
2, 25468, Control_c, 0, 64, 127
2, 25490, Note_on_c, 0, 60, 63
2, 25499, Note_on_c, 0, 60, 0
2, 25510, Note_on_c, 0, 62, 40
2, 25524, Note_on_c, 0, 62, 0
2, 25526, Note_on_c, 0, 63, 56
2, 25535, Note_on_c, 0, 63, 0
2, 25542, Note_on_c, 0, 65, 58
2, 25554, Note_on_c, 0, 60, 33
2, 25554, Control_c, 0, 64, 0
2, 25554, Note_on_c, 0, 50, 32
2, 25555, Note_on_c, 0, 65, 0
2, 25557, Note_on_c, 0, 54, 31
2, 25558, Note_on_c, 0, 66, 51
2, 25572, Note_on_c, 0, 66, 0
2, 25578, Note_on_c, 0, 68, 40
2, 25586, Note_on_c, 0, 68, 0
2, 25598, Note_on_c, 0, 69, 55
2, 25610, Note_on_c, 0, 69, 0
2, 25610, Note_on_c, 0, 50, 0
2, 25615, Note_on_c, 0, 54, 0
2, 25619, Note_on_c, 0, 60, 0
2, 25624, Note_on_c, 0, 71, 65
2, 25630, Note_on_c, 0, 71, 0
2, 25649, Note_on_c, 0, 72, 68
2, 25657, Control_c, 0, 64, 127
2, 25659, Note_on_c, 0, 72, 0
2, 25663, Control_c, 0, 64, 0
2, 25671, Note_on_c, 0, 74, 71
2, 25674, Note_on_c, 0, 65, 45
2, 25677, Note_on_c, 0, 54, 29
2, 25678, Note_on_c, 0, 60, 31
2, 25679, Note_on_c, 0, 74, 0
2, 25698, Note_on_c, 0, 75, 57
2, 25705, Note_on_c, 0, 65, 0
2, 25709, Note_on_c, 0, 75, 0
2, 25710, Note_on_c, 0, 60, 0
2, 25725, Note_on_c, 0, 54, 0
2, 25725, Note_on_c, 0, 76, 31
2, 25732, Note_on_c, 0, 76, 0
2, 25747, Note_on_c, 0, 78, 67
2, 25760, Note_on_c, 0, 78, 0
2, 25772, Note_on_c, 0, 80, 71
2, 25773, Control_c, 0, 64, 127
2, 25788, Note_on_c, 0, 80, 0
2, 25798, Control_c, 0, 64, 0
2, 25798, Note_on_c, 0, 82, 64
2, 25799, Note_on_c, 0, 60, 36
2, 25800, Note_on_c, 0, 50, 36
2, 25801, Note_on_c, 0, 54, 34
2, 25809, Note_on_c, 0, 82, 0
2, 25811, Note_on_c, 0, 60, 0
2, 25826, Note_on_c, 0, 84, 52
2, 25827, Note_on_c, 0, 54, 0
2, 25830, Note_on_c, 0, 50, 0
2, 25841, Note_on_c, 0, 84, 0
2, 25851, Note_on_c, 0, 86, 43
2, 25856, Control_c, 0, 64, 127
2, 25865, Note_on_c, 0, 86, 0
2, 25869, Note_on_c, 0, 87, 53
2, 25881, Note_on_c, 0, 87, 0
2, 25888, Note_on_c, 0, 88, 36
2, 25899, Note_on_c, 0, 88, 0
2, 25906, Note_on_c, 0, 89, 55
2, 25912, Note_on_c, 0, 43, 49
2, 25913, Control_c, 0, 64, 0
2, 25920, Note_on_c, 0, 89, 0
2, 25924, Note_on_c, 0, 43, 0
2, 25928, Note_on_c, 0, 86, 57
2, 25935, Control_c, 0, 64, 127
2, 25953, Note_on_c, 0, 86, 0
2, 25963, Note_on_c, 0, 81, 45
2, 25974, Note_on_c, 0, 81, 0
2, 25990, Note_on_c, 0, 84, 87
2, 26012, Note_on_c, 0, 84, 0
2, 26019, Note_on_c, 0, 82, 75
2, 26034, Note_on_c, 0, 82, 0
2, 26047, Note_on_c, 0, 62, 40
2, 26049, Note_on_c, 0, 58, 36
2, 26050, Note_on_c, 0, 60, 36
2, 26055, Control_c, 0, 64, 0
2, 26056, Note_on_c, 0, 78, 31
2, 26077, Note_on_c, 0, 78, 0
2, 26084, Note_on_c, 0, 81, 68
2, 26090, Control_c, 0, 64, 127
2, 26101, Note_on_c, 0, 60, 0
2, 26109, Note_on_c, 0, 81, 0
2, 26112, Note_on_c, 0, 79, 58
2, 26128, Note_on_c, 0, 62, 0
2, 26133, Note_on_c, 0, 79, 0
2, 26136, Note_on_c, 0, 58, 0
2, 26141, Note_on_c, 0, 74, 49
2, 26142, Note_on_c, 0, 76, 40
2, 26148, Note_on_c, 0, 76, 0
2, 26155, Note_on_c, 0, 74, 0
2, 26171, Note_on_c, 0, 62, 34
2, 26174, Note_on_c, 0, 58, 25
2, 26174, Note_on_c, 0, 57, 31
2, 26175, Control_c, 0, 64, 0
2, 26176, Note_on_c, 0, 72, 25
2, 26209, Control_c, 0, 64, 127
2, 26255, Note_on_c, 0, 62, 0
2, 26271, Note_on_c, 0, 57, 0
2, 26288, Note_on_c, 0, 70, 53
2, 26289, Note_on_c, 0, 62, 29
2, 26291, Note_on_c, 0, 55, 44
2, 26292, Control_c, 0, 64, 0
2, 26314, Note_on_c, 0, 72, 0
2, 26323, Control_c, 0, 64, 127
2, 26354, Note_on_c, 0, 55, 0
2, 26363, Note_on_c, 0, 53, 35
2, 26365, Note_on_c, 0, 70, 0
2, 26368, Note_on_c, 0, 62, 0
2, 26378, Note_on_c, 0, 58, 0
2, 26379, Note_on_c, 0, 53, 0
2, 26403, Control_c, 0, 64, 0
2, 26403, Note_on_c, 0, 69, 58
2, 26404, Note_on_c, 0, 52, 41
2, 26404, Note_on_c, 0, 64, 36
2, 26405, Note_on_c, 0, 60, 24
2, 26406, Note_on_c, 0, 58, 21
2, 26422, Control_c, 0, 64, 127
2, 26430, Note_on_c, 0, 60, 0
2, 26436, Note_on_c, 0, 58, 0
2, 26438, Note_on_c, 0, 52, 0
2, 26441, Note_on_c, 0, 69, 0
2, 26452, Note_on_c, 0, 64, 0
2, 26510, Note_on_c, 0, 55, 32
2, 26517, Note_on_c, 0, 58, 51
2, 26518, Note_on_c, 0, 67, 46
2, 26519, Note_on_c, 0, 55, 0
2, 26519, Note_on_c, 0, 57, 45
2, 26520, Note_on_c, 0, 61, 61
2, 26520, Note_on_c, 0, 64, 55
2, 26523, Control_c, 0, 64, 0
2, 26566, Control_c, 0, 64, 127
2, 26592, Note_on_c, 0, 64, 0
2, 26597, Note_on_c, 0, 57, 0
2, 26602, Note_on_c, 0, 48, 58
2, 26605, Note_on_c, 0, 58, 0
2, 26611, Note_on_c, 0, 61, 0
2, 26623, Note_on_c, 0, 67, 0
2, 26632, Control_c, 0, 64, 0
2, 26641, Note_on_c, 0, 65, 57
2, 26641, Note_on_c, 0, 55, 43
2, 26642, Note_on_c, 0, 58, 32
2, 26643, Note_on_c, 0, 61, 38
2, 26660, Note_on_c, 0, 55, 0
2, 26667, Control_c, 0, 64, 127
2, 26700, Note_on_c, 0, 61, 0
2, 26710, Note_on_c, 0, 65, 0
2, 26719, Note_on_c, 0, 58, 0
2, 26748, Control_c, 0, 64, 0
2, 26751, Note_on_c, 0, 58, 61
2, 26752, Note_on_c, 0, 56, 40
2, 26752, Note_on_c, 0, 68, 52
2, 26753, Note_on_c, 0, 63, 50
2, 26755, Note_on_c, 0, 61, 49
2, 26760, Note_on_c, 0, 56, 0
2, 26762, Control_c, 0, 64, 127
2, 26784, Note_on_c, 0, 58, 0
2, 26787, Note_on_c, 0, 61, 0
2, 26800, Note_on_c, 0, 63, 0
2, 26800, Note_on_c, 0, 68, 0
2, 26832, Note_on_c, 0, 60, 61
2, 26832, Note_on_c, 0, 57, 55
2, 26832, Note_on_c, 0, 64, 58
2, 26833, Note_on_c, 0, 69, 56
2, 26839, Note_on_c, 0, 57, 0
2, 26847, Control_c, 0, 64, 0
2, 26852, Note_on_c, 0, 48, 0
2, 26915, Note_on_c, 0, 47, 47
2, 26938, Note_on_c, 0, 47, 0
2, 26952, Note_on_c, 0, 48, 65
2, 26982, Note_on_c, 0, 48, 0
2, 26996, Note_on_c, 0, 48, 50
2, 27033, Control_c, 0, 64, 127
2, 27074, Note_on_c, 0, 36, 48
2, 27088, Note_on_c, 0, 36, 0
2, 27109, Control_c, 0, 64, 0
2, 27119, Note_on_c, 0, 36, 56
2, 27130, Note_on_c, 0, 48, 0
2, 27137, Note_on_c, 0, 36, 0
2, 27163, Control_c, 0, 64, 127
2, 27195, Note_on_c, 0, 48, 68
2, 27223, Note_on_c, 0, 60, 0
2, 27235, Note_on_c, 0, 64, 0
2, 27235, Note_on_c, 0, 48, 0
2, 27238, Note_on_c, 0, 36, 67
2, 27241, Note_on_c, 0, 69, 0
2, 27243, Note_on_c, 0, 36, 0
2, 27316, Note_on_c, 0, 76, 87
2, 27316, Note_on_c, 0, 84, 84
2, 27317, Note_on_c, 0, 79, 77
2, 27318, Note_on_c, 0, 72, 82
2, 27319, Note_on_c, 0, 56, 82
2, 27319, Note_on_c, 0, 67, 88
2, 27319, Note_on_c, 0, 62, 81
2, 27320, Control_c, 0, 64, 0
2, 27324, Note_on_c, 0, 83, 34
2, 27348, Control_c, 0, 64, 127
2, 27379, Note_on_c, 0, 72, 0
2, 27384, Note_on_c, 0, 76, 0
2, 27390, Note_on_c, 0, 83, 0
2, 27390, Note_on_c, 0, 79, 0
2, 27392, Note_on_c, 0, 84, 0
2, 27397, Note_on_c, 0, 67, 0
2, 27401, Note_on_c, 0, 62, 0
2, 27407, Note_on_c, 0, 56, 0
2, 27423, Note_on_c, 0, 90, 25
2, 27428, Note_on_c, 0, 90, 0
2, 27438, Note_on_c, 0, 93, 91
2, 27438, Note_on_c, 0, 56, 85
2, 27439, Note_on_c, 0, 67, 92
2, 27439, Note_on_c, 0, 62, 89
2, 27439, Note_on_c, 0, 81, 85
2, 27439, Note_on_c, 0, 88, 84
2, 27445, Control_c, 0, 64, 0
2, 27473, Control_c, 0, 64, 127
2, 27551, Note_on_c, 0, 62, 0
2, 27557, Note_on_c, 0, 67, 0
2, 27557, Note_on_c, 0, 93, 0
2, 27564, Note_on_c, 0, 81, 0
2, 27567, Note_on_c, 0, 88, 0
2, 27577, Note_on_c, 0, 56, 0
2, 27600, Note_on_c, 0, 65, 57
2, 27601, Note_on_c, 0, 95, 66
2, 27601, Note_on_c, 0, 60, 46
2, 27602, Note_on_c, 0, 61, 35
2, 27602, Note_on_c, 0, 83, 53
2, 27603, Control_c, 0, 64, 0
2, 27604, Note_on_c, 0, 88, 58
2, 27605, Note_on_c, 0, 55, 45
2, 27608, Note_on_c, 0, 58, 25
2, 27635, Note_on_c, 0, 55, 0
2, 27635, Note_on_c, 0, 60, 0
2, 27636, Note_on_c, 0, 65, 0
2, 27638, Note_on_c, 0, 88, 0
2, 27639, Note_on_c, 0, 83, 0
2, 27640, Note_on_c, 0, 61, 0
2, 27642, Note_on_c, 0, 58, 0
2, 27645, Note_on_c, 0, 95, 0
2, 27715, Control_c, 0, 64, 127
2, 27716, Note_on_c, 0, 60, 37
2, 27716, Note_on_c, 0, 61, 46
2, 27716, Note_on_c, 0, 65, 49
2, 27718, Note_on_c, 0, 97, 58
2, 27719, Note_on_c, 0, 85, 46
2, 27721, Note_on_c, 0, 55, 41
2, 27721, Note_on_c, 0, 92, 53
2, 27737, Note_on_c, 0, 65, 0
2, 27740, Note_on_c, 0, 60, 0
2, 27744, Note_on_c, 0, 61, 0
2, 27750, Note_on_c, 0, 55, 0
2, 27756, Note_on_c, 0, 85, 0
2, 27758, Note_on_c, 0, 92, 0
2, 27758, Note_on_c, 0, 97, 0
2, 27835, Control_c, 0, 64, 0
2, 27841, Note_on_c, 0, 100, 70
2, 27843, Note_on_c, 0, 50, 64
2, 27844, Note_on_c, 0, 88, 52
2, 27845, Note_on_c, 0, 93, 56
2, 27855, Control_c, 0, 64, 127
2, 27861, Note_on_c, 0, 100, 0
2, 27865, Note_on_c, 0, 93, 0
2, 27869, Note_on_c, 0, 88, 0
2, 27922, Note_on_c, 0, 61, 71
2, 27922, Note_on_c, 0, 76, 64
2, 27925, Note_on_c, 0, 65, 58
2, 27925, Note_on_c, 0, 69, 57
2, 27928, Control_c, 0, 64, 0
2, 27953, Note_on_c, 0, 61, 0
2, 27955, Note_on_c, 0, 65, 0
2, 27960, Note_on_c, 0, 69, 0
2, 27962, Note_on_c, 0, 76, 0
2, 27968, Control_c, 0, 64, 127
2, 27970, Note_on_c, 0, 74, 43
2, 27972, Note_on_c, 0, 60, 36
2, 27973, Note_on_c, 0, 69, 34
2, 27973, Note_on_c, 0, 65, 31
2, 27993, Note_on_c, 0, 65, 0
2, 27995, Note_on_c, 0, 69, 0
2, 28002, Note_on_c, 0, 50, 0
2, 28002, Note_on_c, 0, 74, 0
2, 28007, Note_on_c, 0, 60, 0
2, 28045, Note_on_c, 0, 79, 65
2, 28046, Note_on_c, 0, 69, 62
2, 28046, Note_on_c, 0, 76, 54
2, 28047, Note_on_c, 0, 72, 62
2, 28049, Note_on_c, 0, 64, 36
2, 28050, Control_c, 0, 64, 0
2, 28051, Note_on_c, 0, 62, 34
2, 28059, Note_on_c, 0, 62, 0
2, 28081, Control_c, 0, 64, 127
2, 28095, Note_on_c, 0, 79, 0
2, 28097, Note_on_c, 0, 64, 0
2, 28097, Note_on_c, 0, 76, 0
2, 28098, Note_on_c, 0, 69, 0
2, 28100, Note_on_c, 0, 72, 0
2, 28111, Control_c, 0, 64, 0
2, 28114, Note_on_c, 0, 77, 57
2, 28116, Note_on_c, 0, 62, 46
2, 28116, Note_on_c, 0, 69, 48
2, 28116, Note_on_c, 0, 72, 52
2, 28129, Control_c, 0, 64, 127
2, 28145, Note_on_c, 0, 77, 0
2, 28146, Note_on_c, 0, 72, 0
2, 28154, Note_on_c, 0, 69, 0
2, 28154, Note_on_c, 0, 62, 0
2, 28197, Note_on_c, 0, 60, 38
2, 28198, Control_c, 0, 64, 0
2, 28199, Note_on_c, 0, 69, 45
2, 28200, Note_on_c, 0, 65, 30
2, 28213, Control_c, 0, 64, 127
2, 28215, Note_on_c, 0, 60, 0
2, 28235, Note_on_c, 0, 69, 0
2, 28246, Note_on_c, 0, 65, 0
2, 28276, Note_on_c, 0, 50, 46
2, 28299, Note_on_c, 0, 50, 0
2, 28310, Control_c, 0, 64, 0
2, 28318, Note_on_c, 0, 43, 45
2, 28322, Control_c, 0, 64, 127
2, 28324, Note_on_c, 0, 43, 0
2, 28397, Note_on_c, 0, 69, 62
2, 28399, Note_on_c, 0, 62, 38
2, 28400, Note_on_c, 0, 58, 30
2, 28401, Note_on_c, 0, 57, 25
2, 28410, Control_c, 0, 64, 0
2, 28426, Control_c, 0, 64, 127
2, 28434, Note_on_c, 0, 69, 0
2, 28434, Note_on_c, 0, 70, 51
2, 28447, Note_on_c, 0, 70, 0
2, 28466, Note_on_c, 0, 74, 66
2, 28480, Note_on_c, 0, 74, 0
2, 28494, Note_on_c, 0, 62, 0
2, 28496, Note_on_c, 0, 77, 68
2, 28498, Note_on_c, 0, 58, 0
2, 28511, Note_on_c, 0, 77, 0
2, 28525, Note_on_c, 0, 81, 94
2, 28543, Note_on_c, 0, 81, 0
2, 28549, Control_c, 0, 64, 0
2, 28553, Note_on_c, 0, 84, 94
2, 28554, Note_on_c, 0, 62, 39
2, 28554, Note_on_c, 0, 58, 40
2, 28578, Note_on_c, 0, 84, 0
2, 28585, Note_on_c, 0, 82, 62
2, 28604, Note_on_c, 0, 62, 0
2, 28606, Note_on_c, 0, 82, 0
2, 28619, Note_on_c, 0, 77, 34
2, 28620, Control_c, 0, 64, 127
2, 28625, Note_on_c, 0, 58, 0
2, 28637, Note_on_c, 0, 77, 0
2, 28644, Note_on_c, 0, 81, 87
2, 28668, Note_on_c, 0, 81, 0
2, 28671, Control_c, 0, 64, 0
2, 28674, Note_on_c, 0, 62, 40
2, 28675, Note_on_c, 0, 79, 69
2, 28676, Note_on_c, 0, 58, 38
2, 28684, Note_on_c, 0, 62, 0
2, 28688, Note_on_c, 0, 57, 0
2, 28692, Note_on_c, 0, 58, 0
2, 28694, Control_c, 0, 64, 127
2, 28699, Note_on_c, 0, 79, 0
2, 28705, Note_on_c, 0, 74, 60
2, 28720, Note_on_c, 0, 74, 0
2, 28735, Note_on_c, 0, 72, 48
2, 28760, Note_on_c, 0, 72, 0
2, 28768, Note_on_c, 0, 69, 49
2, 28780, Note_on_c, 0, 69, 0
2, 28795, Note_on_c, 0, 62, 30
2, 28795, Note_on_c, 0, 76, 62
2, 28796, Control_c, 0, 64, 0
2, 28797, Note_on_c, 0, 72, 58
2, 28798, Note_on_c, 0, 56, 52
2, 28831, Note_on_c, 0, 67, 34
2, 28833, Note_on_c, 0, 72, 0
2, 28840, Control_c, 0, 64, 127
2, 28850, Note_on_c, 0, 76, 0
2, 28855, Note_on_c, 0, 67, 0
2, 28887, Note_on_c, 0, 62, 0
2, 28916, Note_on_c, 0, 79, 74
2, 28917, Note_on_c, 0, 67, 49
2, 28919, Note_on_c, 0, 72, 71
2, 28923, Note_on_c, 0, 62, 34
2, 28924, Note_on_c, 0, 67, 0
2, 28932, Note_on_c, 0, 62, 0
2, 28939, Note_on_c, 0, 72, 0
2, 28941, Note_on_c, 0, 79, 0
2, 28954, Note_on_c, 0, 76, 45
2, 28954, Note_on_c, 0, 67, 48
2, 28992, Note_on_c, 0, 67, 0
2, 29008, Note_on_c, 0, 56, 0
2, 29118, Note_on_c, 0, 56, 47
2, 29120, Note_on_c, 0, 67, 34
2, 29121, Note_on_c, 0, 62, 40
2, 29134, Note_on_c, 0, 67, 0
2, 29137, Note_on_c, 0, 62, 0
2, 29141, Note_on_c, 0, 56, 0
2, 29161, Note_on_c, 0, 76, 0
2, 29163, Note_on_c, 0, 56, 43
2, 29164, Note_on_c, 0, 67, 36
2, 29167, Note_on_c, 0, 62, 34
2, 29197, Note_on_c, 0, 62, 0
2, 29197, Note_on_c, 0, 67, 0
2, 29210, Note_on_c, 0, 56, 0
2, 29226, Note_on_c, 0, 65, 57
2, 29227, Note_on_c, 0, 84, 91
2, 29227, Note_on_c, 0, 60, 55
2, 29228, Note_on_c, 0, 61, 52
2, 29228, Note_on_c, 0, 77, 90
2, 29229, Note_on_c, 0, 55, 53
2, 29250, Note_on_c, 0, 84, 0
2, 29252, Control_c, 0, 64, 0
2, 29254, Note_on_c, 0, 77, 0
2, 29257, Note_on_c, 0, 72, 48
2, 29258, Note_on_c, 0, 82, 47
2, 29280, Note_on_c, 0, 72, 0
2, 29281, Note_on_c, 0, 82, 0
2, 29292, Note_on_c, 0, 84, 77
2, 29292, Note_on_c, 0, 77, 66
2, 29310, Control_c, 0, 64, 127
2, 29316, Note_on_c, 0, 84, 0
2, 29322, Note_on_c, 0, 77, 0
2, 29325, Note_on_c, 0, 82, 50
2, 29328, Note_on_c, 0, 72, 44
2, 29335, Note_on_c, 0, 61, 0
2, 29368, Note_on_c, 0, 65, 0
2, 29371, Note_on_c, 0, 60, 0
2, 29402, Note_on_c, 0, 80, 14
2, 29405, Note_on_c, 0, 65, 37
2, 29406, Note_on_c, 0, 60, 35
2, 29408, Note_on_c, 0, 61, 35
2, 29435, Note_on_c, 0, 80, 0
2, 29437, Note_on_c, 0, 82, 0
2, 29446, Note_on_c, 0, 72, 0
2, 29466, Note_on_c, 0, 65, 0
2, 29473, Note_on_c, 0, 60, 0
2, 29483, Note_on_c, 0, 61, 0
2, 29506, Note_on_c, 0, 55, 0
2, 29526, Note_on_c, 0, 76, 49
2, 29526, Note_on_c, 0, 55, 30
2, 29527, Note_on_c, 0, 60, 37
2, 29528, Note_on_c, 0, 64, 35
2, 29528, Note_on_c, 0, 61, 25
2, 29540, Note_on_c, 0, 64, 0
2, 29541, Note_on_c, 0, 76, 0
2, 29542, Note_on_c, 0, 60, 0
2, 29543, Note_on_c, 0, 55, 0
2, 29544, Note_on_c, 0, 61, 0
2, 29561, Note_on_c, 0, 61, 50
2, 29561, Note_on_c, 0, 77, 78
2, 29562, Note_on_c, 0, 65, 70
2, 29562, Note_on_c, 0, 60, 53
2, 29563, Note_on_c, 0, 55, 54
2, 29565, Control_c, 0, 64, 0
2, 29586, Control_c, 0, 64, 127
2, 29616, Note_on_c, 0, 65, 0
2, 29620, Note_on_c, 0, 77, 0
2, 29622, Note_on_c, 0, 55, 0
2, 29622, Note_on_c, 0, 60, 0
2, 29627, Note_on_c, 0, 61, 0
2, 29642, Note_on_c, 0, 55, 38
2, 29643, Note_on_c, 0, 61, 37
2, 29643, Note_on_c, 0, 79, 60
2, 29644, Note_on_c, 0, 67, 52
2, 29645, Note_on_c, 0, 60, 37
2, 29645, Note_on_c, 0, 65, 42
2, 29677, Note_on_c, 0, 65, 0
2, 29680, Note_on_c, 0, 60, 0
2, 29682, Note_on_c, 0, 61, 0
2, 29688, Note_on_c, 0, 55, 0
2, 29700, Note_on_c, 0, 67, 0
2, 29712, Note_on_c, 0, 79, 0
2, 29727, Note_on_c, 0, 57, 35
2, 29736, Note_on_c, 0, 57, 0
2, 29765, Note_on_c, 0, 60, 64
2, 29765, Note_on_c, 0, 81, 66
2, 29766, Note_on_c, 0, 77, 65
2, 29767, Note_on_c, 0, 69, 62
2, 29767, Note_on_c, 0, 57, 42
2, 29767, Control_c, 0, 64, 0
2, 29768, Note_on_c, 0, 50, 36
2, 29770, Note_on_c, 0, 53, 37
2, 29806, Control_c, 0, 64, 127
2, 29812, Note_on_c, 0, 57, 0
2, 29820, Note_on_c, 0, 53, 0
2, 29823, Note_on_c, 0, 60, 0
2, 29829, Note_on_c, 0, 69, 0
2, 29830, Note_on_c, 0, 77, 0
2, 29834, Note_on_c, 0, 81, 0
2, 29887, Note_on_c, 0, 60, 56
2, 29891, Note_on_c, 0, 57, 36
2, 29893, Note_on_c, 0, 53, 34
2, 29914, Note_on_c, 0, 53, 0
2, 29914, Note_on_c, 0, 57, 0
2, 29919, Note_on_c, 0, 50, 0
2, 29924, Note_on_c, 0, 60, 0
2, 30000, Note_on_c, 0, 68, 75
2, 30001, Note_on_c, 0, 73, 98
2, 30001, Note_on_c, 0, 57, 60
2, 30002, Note_on_c, 0, 63, 58
2, 30002, Note_on_c, 0, 61, 53
2, 30006, Control_c, 0, 64, 0
2, 30033, Control_c, 0, 64, 127
2, 30092, Note_on_c, 0, 63, 0
2, 30093, Note_on_c, 0, 57, 0
2, 30096, Note_on_c, 0, 61, 0
2, 30098, Note_on_c, 0, 68, 0
2, 30103, Note_on_c, 0, 73, 0
2, 30122, Note_on_c, 0, 68, 72
2, 30123, Note_on_c, 0, 74, 96
2, 30124, Note_on_c, 0, 63, 54
2, 30124, Note_on_c, 0, 61, 50
2, 30125, Note_on_c, 0, 57, 53
2, 30125, Control_c, 0, 64, 0
2, 30147, Control_c, 0, 64, 127
2, 30178, Note_on_c, 0, 74, 0
2, 30184, Note_on_c, 0, 68, 0
2, 30188, Note_on_c, 0, 57, 0
2, 30230, Note_on_c, 0, 61, 0
2, 30231, Note_on_c, 0, 63, 0
2, 30238, Note_on_c, 0, 77, 90
2, 30238, Note_on_c, 0, 67, 68
2, 30239, Note_on_c, 0, 62, 48
2, 30239, Note_on_c, 0, 56, 54
2, 30244, Control_c, 0, 64, 0
2, 30285, Note_on_c, 0, 76, 48
2, 30297, Note_on_c, 0, 75, 44
2, 30306, Note_on_c, 0, 76, 0
2, 30307, Note_on_c, 0, 67, 0
2, 30317, Note_on_c, 0, 77, 0
2, 30317, Note_on_c, 0, 75, 0
2, 30318, Note_on_c, 0, 74, 35
2, 30326, Control_c, 0, 64, 127
2, 30336, Note_on_c, 0, 74, 0
2, 30340, Note_on_c, 0, 62, 0
2, 30343, Note_on_c, 0, 56, 0
2, 30358, Control_c, 0, 64, 0
2, 30371, Note_on_c, 0, 56, 37
2, 30372, Note_on_c, 0, 67, 34
2, 30372, Note_on_c, 0, 62, 37
2, 30391, Control_c, 0, 64, 127
2, 30418, Note_on_c, 0, 67, 0
2, 30419, Note_on_c, 0, 62, 0
2, 30438, Note_on_c, 0, 56, 0
2, 30451, Note_on_c, 0, 60, 53
2, 30452, Note_on_c, 0, 61, 60
2, 30452, Note_on_c, 0, 65, 68
2, 30453, Note_on_c, 0, 55, 68
2, 30458, Note_on_c, 0, 58, 27
2, 30462, Control_c, 0, 64, 0
2, 30532, Note_on_c, 0, 88, 79
2, 30533, Note_on_c, 0, 76, 71
2, 30547, Note_on_c, 0, 76, 0
2, 30550, Note_on_c, 0, 88, 0
2, 30571, Note_on_c, 0, 87, 42
2, 30576, Control_c, 0, 64, 127
2, 30581, Note_on_c, 0, 65, 0
2, 30581, Control_c, 0, 64, 0
2, 30583, Note_on_c, 0, 87, 0
2, 30586, Note_on_c, 0, 60, 0
2, 30589, Note_on_c, 0, 61, 0
2, 30595, Control_c, 0, 64, 127
2, 30597, Note_on_c, 0, 58, 0
2, 30600, Note_on_c, 0, 55, 0
2, 30604, Note_on_c, 0, 88, 83
2, 30606, Note_on_c, 0, 76, 69
2, 30641, Note_on_c, 0, 76, 0
2, 30654, Note_on_c, 0, 88, 0
2, 30674, Note_on_c, 0, 45, 91
2, 30676, Note_on_c, 0, 38, 85
2, 30680, Control_c, 0, 64, 0
2, 30696, Control_c, 0, 64, 127
2, 30715, Note_on_c, 0, 38, 0
2, 30720, Note_on_c, 0, 45, 0
2, 30844, Note_on_c, 0, 55, 87
2, 30844, Note_on_c, 0, 60, 80
2, 30845, Note_on_c, 0, 65, 82
2, 30848, Control_c, 0, 64, 0
2, 30864, Control_c, 0, 64, 127
2, 30976, Note_on_c, 0, 65, 0
2, 30980, Note_on_c, 0, 60, 0
2, 30986, Note_on_c, 0, 55, 0
2, 31068, Control_c, 0, 64, 0
2, 31069, Note_on_c, 0, 45, 81
2, 31070, Note_on_c, 0, 38, 80
2, 31073, Control_c, 0, 64, 127
2, 31085, Note_on_c, 0, 38, 0
2, 31091, Note_on_c, 0, 45, 0
2, 31147, Note_on_c, 0, 85, 33
2, 31154, Note_on_c, 0, 85, 0
2, 31188, Control_c, 0, 64, 0
2, 31197, Note_on_c, 0, 86, 88
2, 31197, Note_on_c, 0, 74, 92
2, 31198, Note_on_c, 0, 65, 89
2, 31198, Note_on_c, 0, 55, 92
2, 31198, Note_on_c, 0, 81, 78
2, 31199, Note_on_c, 0, 60, 77
2, 31205, Control_c, 0, 64, 127
2, 31246, Note_on_c, 0, 60, 0
2, 31247, Note_on_c, 0, 74, 0
2, 31248, Note_on_c, 0, 55, 0
2, 31249, Note_on_c, 0, 86, 0
2, 31252, Note_on_c, 0, 81, 0
2, 31254, Note_on_c, 0, 65, 0
2, 31278, Note_on_c, 0, 88, 91
2, 31279, Note_on_c, 0, 57, 83
2, 31279, Note_on_c, 0, 76, 85
2, 31280, Note_on_c, 0, 81, 83
2, 31280, Note_on_c, 0, 62, 83
2, 31280, Note_on_c, 0, 67, 84
2, 31309, Note_on_c, 0, 81, 0
2, 31309, Note_on_c, 0, 88, 0
2, 31310, Note_on_c, 0, 76, 0
2, 31311, Note_on_c, 0, 57, 0
2, 31313, Note_on_c, 0, 67, 0
2, 31318, Note_on_c, 0, 62, 0
2, 31322, Control_c, 0, 64, 0
2, 31322, Note_on_c, 0, 57, 68
2, 31323, Note_on_c, 0, 88, 71
2, 31323, Note_on_c, 0, 62, 43
2, 31324, Note_on_c, 0, 76, 68
2, 31324, Note_on_c, 0, 67, 79
2, 31325, Note_on_c, 0, 81, 74
2, 31348, Control_c, 0, 64, 127
2, 31358, Note_on_c, 0, 88, 0
2, 31360, Note_on_c, 0, 62, 0
2, 31366, Note_on_c, 0, 57, 0
2, 31367, Note_on_c, 0, 67, 0
2, 31372, Note_on_c, 0, 81, 0
2, 31372, Note_on_c, 0, 76, 0
2, 31400, Note_on_c, 0, 65, 65
2, 31400, Note_on_c, 0, 86, 70
2, 31400, Note_on_c, 0, 55, 62
2, 31401, Note_on_c, 0, 74, 66
2, 31401, Note_on_c, 0, 60, 61
2, 31402, Note_on_c, 0, 81, 66
2, 31413, Note_on_c, 0, 74, 0
2, 31417, Note_on_c, 0, 55, 0
2, 31417, Note_on_c, 0, 65, 0
2, 31418, Note_on_c, 0, 86, 0
2, 31418, Note_on_c, 0, 81, 0
2, 31420, Note_on_c, 0, 60, 0
2, 31438, Control_c, 0, 64, 0
2, 31442, Note_on_c, 0, 88, 84
2, 31443, Note_on_c, 0, 62, 85
2, 31443, Note_on_c, 0, 81, 83
2, 31443, Note_on_c, 0, 76, 78
2, 31443, Note_on_c, 0, 67, 82
2, 31445, Note_on_c, 0, 57, 78
2, 31478, Note_on_c, 0, 67, 0
2, 31479, Note_on_c, 0, 62, 0
2, 31480, Note_on_c, 0, 76, 0
2, 31480, Note_on_c, 0, 81, 0
2, 31481, Note_on_c, 0, 57, 0
2, 31487, Note_on_c, 0, 88, 0
2, 31490, Control_c, 0, 64, 127
2, 31518, Note_on_c, 0, 55, 80
2, 31518, Note_on_c, 0, 65, 74
2, 31518, Note_on_c, 0, 89, 81
2, 31519, Note_on_c, 0, 60, 77
2, 31519, Note_on_c, 0, 77, 81
2, 31520, Note_on_c, 0, 84, 75
2, 31540, Note_on_c, 0, 77, 0
2, 31545, Note_on_c, 0, 65, 0
2, 31545, Note_on_c, 0, 55, 0
2, 31545, Note_on_c, 0, 84, 0
2, 31547, Note_on_c, 0, 89, 0
2, 31548, Note_on_c, 0, 60, 0
2, 31560, Note_on_c, 0, 55, 68
2, 31561, Note_on_c, 0, 60, 75
2, 31562, Note_on_c, 0, 65, 64
2, 31562, Note_on_c, 0, 91, 78
2, 31564, Note_on_c, 0, 79, 69
2, 31564, Note_on_c, 0, 86, 73
2, 31577, Note_on_c, 0, 65, 0
2, 31580, Note_on_c, 0, 60, 0
2, 31584, Note_on_c, 0, 79, 0
2, 31585, Note_on_c, 0, 55, 0
2, 31590, Note_on_c, 0, 86, 0
2, 31590, Note_on_c, 0, 91, 0
2, 31638, Note_on_c, 0, 93, 94
2, 31638, Note_on_c, 0, 62, 95
2, 31638, Note_on_c, 0, 57, 82
2, 31638, Note_on_c, 0, 58, 77
2, 31639, Note_on_c, 0, 81, 94
2, 31639, Note_on_c, 0, 86, 88
2, 31639, Note_on_c, 0, 52, 85
2, 31641, Control_c, 0, 64, 0
2, 31671, Control_c, 0, 64, 127
2, 31691, Note_on_c, 0, 93, 0
2, 31696, Note_on_c, 0, 86, 0
2, 31706, Note_on_c, 0, 81, 0
2, 31715, Note_on_c, 0, 52, 0
2, 31716, Note_on_c, 0, 57, 0
2, 31720, Note_on_c, 0, 58, 0
2, 31724, Note_on_c, 0, 62, 0
2, 31757, Note_on_c, 0, 81, 82
2, 31758, Note_on_c, 0, 70, 88
2, 31759, Note_on_c, 0, 74, 81
2, 31759, Note_on_c, 0, 69, 94
2, 31760, Note_on_c, 0, 76, 71
2, 31766, Control_c, 0, 64, 0
2, 31783, Note_on_c, 0, 81, 0
2, 31784, Note_on_c, 0, 70, 0
2, 31787, Note_on_c, 0, 69, 0
2, 31787, Note_on_c, 0, 74, 0
2, 31787, Note_on_c, 0, 76, 0
2, 31794, Note_on_c, 0, 69, 68
2, 31795, Note_on_c, 0, 81, 71
2, 31796, Control_c, 0, 64, 127
2, 31797, Note_on_c, 0, 70, 52
2, 31799, Note_on_c, 0, 74, 76
2, 31800, Note_on_c, 0, 76, 64
2, 31816, Note_on_c, 0, 76, 0
2, 31816, Note_on_c, 0, 74, 0
2, 31818, Note_on_c, 0, 70, 0
2, 31818, Note_on_c, 0, 69, 0
2, 31820, Note_on_c, 0, 81, 0
2, 31843, Note_on_c, 0, 70, 62
2, 31845, Note_on_c, 0, 76, 57
2, 31846, Note_on_c, 0, 74, 54
2, 31849, Control_c, 0, 64, 0
2, 31853, Note_on_c, 0, 74, 0
2, 31857, Note_on_c, 0, 70, 0
2, 31859, Note_on_c, 0, 76, 0
2, 31861, Control_c, 0, 64, 127
2, 31882, Note_on_c, 0, 70, 63
2, 31883, Note_on_c, 0, 74, 76
2, 31899, Note_on_c, 0, 70, 0
2, 31906, Note_on_c, 0, 74, 0
2, 31919, Note_on_c, 0, 69, 78
2, 31919, Note_on_c, 0, 70, 86
2, 31920, Note_on_c, 0, 74, 72
2, 31920, Note_on_c, 0, 79, 79
2, 31923, Control_c, 0, 64, 0
2, 31945, Control_c, 0, 64, 127
2, 31948, Note_on_c, 0, 79, 0
2, 31952, Note_on_c, 0, 70, 0
2, 31956, Note_on_c, 0, 74, 0
2, 31961, Note_on_c, 0, 70, 45
2, 31963, Note_on_c, 0, 79, 53
2, 31965, Note_on_c, 0, 74, 27
2, 31970, Note_on_c, 0, 79, 0
2, 31970, Note_on_c, 0, 69, 0
2, 31972, Note_on_c, 0, 74, 0
2, 31977, Note_on_c, 0, 70, 0
2, 32008, Note_on_c, 0, 62, 37
2, 32016, Note_on_c, 0, 62, 0
2, 32047, Note_on_c, 0, 67, 49
2, 32048, Note_on_c, 0, 62, 41
2, 32048, Note_on_c, 0, 74, 44
2, 32063, Note_on_c, 0, 67, 0
2, 32070, Note_on_c, 0, 74, 0
2, 32073, Note_on_c, 0, 62, 0
2, 32088, Note_on_c, 0, 65, 66
2, 32089, Note_on_c, 0, 74, 65
2, 32090, Note_on_c, 0, 67, 81
2, 32090, Note_on_c, 0, 70, 71
2, 32091, Note_on_c, 0, 77, 72
2, 32103, Note_on_c, 0, 65, 0
2, 32108, Note_on_c, 0, 70, 0
2, 32110, Note_on_c, 0, 67, 0
2, 32112, Note_on_c, 0, 74, 0
2, 32113, Note_on_c, 0, 77, 0
2, 32128, Note_on_c, 0, 77, 54
2, 32130, Note_on_c, 0, 67, 44
2, 32130, Note_on_c, 0, 70, 57
2, 32140, Note_on_c, 0, 77, 0
2, 32144, Note_on_c, 0, 67, 0
2, 32147, Note_on_c, 0, 70, 0
2, 32164, Control_c, 0, 64, 0
2, 32166, Note_on_c, 0, 61, 58
2, 32166, Note_on_c, 0, 55, 62
2, 32169, Note_on_c, 0, 67, 35
2, 32170, Note_on_c, 0, 73, 40
2, 32170, Note_on_c, 0, 70, 36
2, 32182, Note_on_c, 0, 70, 0
2, 32182, Note_on_c, 0, 61, 0
2, 32183, Note_on_c, 0, 67, 0
2, 32188, Note_on_c, 0, 55, 0
2, 32188, Note_on_c, 0, 73, 0
2, 32189, Control_c, 0, 64, 127
2, 32208, Note_on_c, 0, 73, 31
2, 32223, Note_on_c, 0, 73, 0
2, 32244, Note_on_c, 0, 76, 84
2, 32245, Note_on_c, 0, 70, 80
2, 32245, Note_on_c, 0, 45, 68
2, 32245, Note_on_c, 0, 67, 80
2, 32247, Control_c, 0, 64, 0
2, 32248, Note_on_c, 0, 55, 62
2, 32262, Control_c, 0, 64, 127
2, 32264, Note_on_c, 0, 67, 0
2, 32265, Note_on_c, 0, 76, 0
2, 32267, Note_on_c, 0, 45, 0
2, 32268, Note_on_c, 0, 70, 0
2, 32276, Note_on_c, 0, 55, 0
2, 32287, Note_on_c, 0, 67, 57
2, 32288, Note_on_c, 0, 76, 25
2, 32294, Note_on_c, 0, 76, 0
2, 32298, Note_on_c, 0, 67, 0
2, 32327, Note_on_c, 0, 69, 68
2, 32328, Note_on_c, 0, 61, 67
2, 32329, Note_on_c, 0, 65, 68
2, 32332, Note_on_c, 0, 57, 38
2, 32336, Control_c, 0, 64, 0
2, 32348, Control_c, 0, 64, 127
2, 32349, Note_on_c, 0, 61, 0
2, 32352, Note_on_c, 0, 65, 0
2, 32353, Note_on_c, 0, 69, 0
2, 32367, Note_on_c, 0, 69, 54
2, 32368, Note_on_c, 0, 61, 52
2, 32370, Note_on_c, 0, 65, 38
2, 32377, Note_on_c, 0, 65, 0
2, 32377, Note_on_c, 0, 69, 0
2, 32381, Note_on_c, 0, 57, 0
2, 32382, Note_on_c, 0, 61, 0
2, 32403, Note_on_c, 0, 72, 71
2, 32404, Note_on_c, 0, 61, 72
2, 32404, Control_c, 0, 64, 0
2, 32405, Note_on_c, 0, 65, 70
2, 32405, Note_on_c, 0, 55, 57
2, 32406, Note_on_c, 0, 69, 65
2, 32425, Note_on_c, 0, 72, 0
2, 32427, Note_on_c, 0, 69, 0
2, 32427, Note_on_c, 0, 65, 0
2, 32428, Note_on_c, 0, 61, 0
2, 32438, Control_c, 0, 64, 127
2, 32443, Note_on_c, 0, 72, 32
2, 32444, Note_on_c, 0, 61, 37
2, 32449, Note_on_c, 0, 72, 0
2, 32458, Note_on_c, 0, 61, 0
2, 32475, Note_on_c, 0, 55, 0
2, 32480, Note_on_c, 0, 61, 60
2, 32481, Control_c, 0, 64, 0
2, 32481, Note_on_c, 0, 58, 53
2, 32482, Note_on_c, 0, 64, 60
2, 32483, Note_on_c, 0, 45, 47
2, 32499, Control_c, 0, 64, 127
2, 32503, Note_on_c, 0, 64, 0
2, 32503, Note_on_c, 0, 61, 0
2, 32508, Note_on_c, 0, 58, 0
2, 32521, Note_on_c, 0, 45, 0
2, 32522, Note_on_c, 0, 58, 38
2, 32525, Note_on_c, 0, 64, 43
2, 32527, Note_on_c, 0, 61, 35
2, 32533, Note_on_c, 0, 61, 0
2, 32536, Note_on_c, 0, 58, 0
2, 32544, Note_on_c, 0, 64, 0
2, 32564, Note_on_c, 0, 58, 63
2, 32565, Note_on_c, 0, 67, 54
2, 32566, Note_on_c, 0, 61, 61
2, 32567, Note_on_c, 0, 64, 46
2, 32568, Note_on_c, 0, 49, 54
2, 32579, Control_c, 0, 64, 0
2, 32582, Note_on_c, 0, 67, 0
2, 32583, Note_on_c, 0, 49, 0
2, 32585, Control_c, 0, 64, 127
2, 32587, Note_on_c, 0, 58, 0
2, 32588, Note_on_c, 0, 64, 0
2, 32589, Note_on_c, 0, 61, 0
2, 32602, Note_on_c, 0, 58, 44
2, 32603, Note_on_c, 0, 67, 39
2, 32604, Note_on_c, 0, 61, 55
2, 32611, Note_on_c, 0, 67, 0
2, 32619, Note_on_c, 0, 58, 0
2, 32622, Note_on_c, 0, 61, 0
2, 32641, Note_on_c, 0, 38, 47
2, 32641, Note_on_c, 0, 50, 34
2, 32642, Control_c, 0, 64, 0
2, 32644, Note_on_c, 0, 60, 43
2, 32645, Note_on_c, 0, 57, 29
2, 32645, Note_on_c, 0, 45, 27
2, 32654, Note_on_c, 0, 57, 0
2, 32655, Note_on_c, 0, 50, 0
2, 32659, Note_on_c, 0, 60, 0
2, 32671, Control_c, 0, 64, 127
2, 32685, Note_on_c, 0, 60, 48
2, 32685, Note_on_c, 0, 57, 39
2, 32690, Note_on_c, 0, 60, 0
2, 32695, Note_on_c, 0, 57, 0
2, 32704, Note_on_c, 0, 45, 0
2, 32724, Note_on_c, 0, 64, 75
2, 32724, Note_on_c, 0, 49, 52
2, 32725, Note_on_c, 0, 53, 72
2, 32725, Note_on_c, 0, 57, 67
2, 32732, Control_c, 0, 64, 0
2, 32747, Note_on_c, 0, 64, 0
2, 32749, Note_on_c, 0, 57, 0
2, 32750, Note_on_c, 0, 53, 0
2, 32763, Note_on_c, 0, 64, 48
2, 32784, Note_on_c, 0, 64, 0
2, 32785, Note_on_c, 0, 49, 0
2, 32797, Control_c, 0, 64, 127
2, 32802, Note_on_c, 0, 57, 54
2, 32803, Note_on_c, 0, 53, 45
2, 32806, Note_on_c, 0, 48, 49
2, 32812, Control_c, 0, 64, 0
2, 32817, Note_on_c, 0, 53, 0
2, 32822, Note_on_c, 0, 57, 0
2, 32839, Note_on_c, 0, 57, 43
2, 32840, Control_c, 0, 64, 127
2, 32856, Note_on_c, 0, 57, 0
2, 32866, Note_on_c, 0, 48, 0
2, 32873, Control_c, 0, 64, 0
2, 32877, Note_on_c, 0, 53, 48
2, 32877, Note_on_c, 0, 62, 51
2, 32877, Note_on_c, 0, 57, 54
2, 32878, Note_on_c, 0, 45, 46
2, 32883, Note_on_c, 0, 38, 0
2, 32896, Note_on_c, 0, 53, 0
2, 32896, Note_on_c, 0, 62, 0
2, 32898, Note_on_c, 0, 57, 0
2, 32912, Note_on_c, 0, 62, 38
2, 32913, Control_c, 0, 64, 127
2, 32936, Note_on_c, 0, 62, 0
2, 32951, Note_on_c, 0, 38, 71
2, 32952, Note_on_c, 0, 53, 48
2, 32955, Note_on_c, 0, 57, 43
2, 32966, Note_on_c, 0, 45, 0
2, 32967, Note_on_c, 0, 57, 0
2, 32968, Note_on_c, 0, 53, 0
2, 32978, Note_on_c, 0, 38, 0
2, 32991, Note_on_c, 0, 57, 51
2, 33012, Note_on_c, 0, 57, 0
2, 33031, Note_on_c, 0, 58, 60
2, 33055, Note_on_c, 0, 58, 0
2, 33065, Note_on_c, 0, 60, 64
2, 33097, Note_on_c, 0, 60, 0
2, 33105, Control_c, 0, 64, 0
2, 33107, Note_on_c, 0, 62, 62
2, 33109, Note_on_c, 0, 50, 41
2, 33110, Note_on_c, 0, 54, 46
2, 33110, Note_on_c, 0, 60, 26
2, 33130, Note_on_c, 0, 62, 0
2, 33136, Note_on_c, 0, 63, 57
2, 33142, Control_c, 0, 64, 127
2, 33147, Note_on_c, 0, 63, 0
2, 33152, Control_c, 0, 64, 0
2, 33158, Note_on_c, 0, 65, 50
2, 33167, Note_on_c, 0, 65, 0
2, 33174, Note_on_c, 0, 66, 49
2, 33175, Note_on_c, 0, 50, 0
2, 33181, Note_on_c, 0, 54, 0
2, 33185, Note_on_c, 0, 66, 0
2, 33188, Note_on_c, 0, 68, 49
2, 33189, Note_on_c, 0, 60, 0
2, 33193, Note_on_c, 0, 68, 0
2, 33201, Note_on_c, 0, 69, 50
2, 33212, Note_on_c, 0, 69, 0
2, 33213, Control_c, 0, 64, 127
2, 33221, Note_on_c, 0, 71, 55
2, 33226, Note_on_c, 0, 71, 0
2, 33232, Control_c, 0, 64, 0
2, 33252, Note_on_c, 0, 72, 68
2, 33257, Note_on_c, 0, 72, 0
2, 33285, Note_on_c, 0, 74, 74
2, 33296, Note_on_c, 0, 74, 0
2, 33312, Note_on_c, 0, 75, 72
2, 33324, Note_on_c, 0, 75, 0
2, 33339, Note_on_c, 0, 77, 77
2, 33351, Note_on_c, 0, 77, 0
2, 33368, Note_on_c, 0, 78, 74
2, 33372, Note_on_c, 0, 65, 48
2, 33374, Note_on_c, 0, 54, 36
2, 33374, Note_on_c, 0, 60, 52
2, 33385, Note_on_c, 0, 78, 0
2, 33400, Note_on_c, 0, 80, 59
2, 33417, Note_on_c, 0, 80, 0
2, 33419, Note_on_c, 0, 65, 0
2, 33426, Control_c, 0, 64, 127
2, 33427, Note_on_c, 0, 81, 60
2, 33443, Note_on_c, 0, 81, 0
2, 33454, Note_on_c, 0, 82, 57
2, 33469, Note_on_c, 0, 82, 0
2, 33481, Note_on_c, 0, 83, 63
2, 33485, Note_on_c, 0, 64, 49
2, 33495, Control_c, 0, 64, 0
2, 33497, Note_on_c, 0, 64, 0
2, 33497, Note_on_c, 0, 83, 0
2, 33503, Note_on_c, 0, 60, 0
2, 33506, Note_on_c, 0, 54, 0
2, 33510, Note_on_c, 0, 84, 64
2, 33513, Control_c, 0, 64, 127
2, 33524, Note_on_c, 0, 84, 0
2, 33537, Note_on_c, 0, 85, 69
2, 33550, Note_on_c, 0, 85, 0
2, 33566, Note_on_c, 0, 86, 68
2, 33582, Note_on_c, 0, 86, 0
2, 33588, Control_c, 0, 64, 0
2, 33595, Note_on_c, 0, 43, 60
2, 33596, Note_on_c, 0, 89, 83
2, 33596, Note_on_c, 0, 50, 43
2, 33606, Note_on_c, 0, 43, 0
2, 33606, Control_c, 0, 64, 127
2, 33614, Note_on_c, 0, 50, 0
2, 33623, Note_on_c, 0, 89, 0
2, 33633, Note_on_c, 0, 84, 34
2, 33643, Note_on_c, 0, 84, 0
2, 33660, Note_on_c, 0, 86, 87
2, 33664, Note_on_c, 0, 65, 70
2, 33665, Note_on_c, 0, 55, 63
2, 33667, Note_on_c, 0, 60, 54
2, 33728, Note_on_c, 0, 81, 63
2, 33729, Note_on_c, 0, 86, 0
2, 33772, Note_on_c, 0, 65, 0
2, 33775, Note_on_c, 0, 60, 0
2, 33780, Note_on_c, 0, 81, 0
2, 33783, Note_on_c, 0, 55, 0
2, 33799, Note_on_c, 0, 84, 75
2, 33823, Note_on_c, 0, 84, 0
2, 33835, Control_c, 0, 64, 0
2, 33840, Note_on_c, 0, 43, 55
2, 33840, Note_on_c, 0, 82, 59
2, 33841, Note_on_c, 0, 50, 42
2, 33842, Note_on_c, 0, 72, 41
2, 33850, Control_c, 0, 64, 127
2, 33859, Note_on_c, 0, 43, 0
2, 33862, Note_on_c, 0, 82, 0
2, 33867, Note_on_c, 0, 50, 0
2, 33869, Note_on_c, 0, 72, 0
2, 33911, Note_on_c, 0, 70, 68
2, 33911, Note_on_c, 0, 74, 76
2, 33912, Note_on_c, 0, 65, 65
2, 33913, Note_on_c, 0, 55, 64
2, 33914, Note_on_c, 0, 60, 58
2, 33917, Control_c, 0, 64, 0
2, 33920, Control_c, 0, 64, 127
2, 33932, Note_on_c, 0, 60, 0
2, 33932, Note_on_c, 0, 55, 0
2, 33939, Note_on_c, 0, 65, 0
2, 33944, Note_on_c, 0, 70, 0
2, 33952, Note_on_c, 0, 74, 0
2, 33960, Note_on_c, 0, 57, 61
2, 33961, Note_on_c, 0, 76, 68
2, 33962, Control_c, 0, 64, 0
2, 33962, Note_on_c, 0, 67, 41
2, 33962, Note_on_c, 0, 72, 68
2, 33963, Note_on_c, 0, 62, 48
2, 33981, Control_c, 0, 64, 127
2, 33992, Note_on_c, 0, 57, 0
2, 33995, Note_on_c, 0, 62, 0
2, 34002, Note_on_c, 0, 67, 0
2, 34008, Note_on_c, 0, 76, 0
2, 34009, Note_on_c, 0, 72, 0
2, 34030, Note_on_c, 0, 58, 54
2, 34032, Note_on_c, 0, 73, 73
2, 34032, Control_c, 0, 64, 0
2, 34033, Note_on_c, 0, 77, 67
2, 34034, Note_on_c, 0, 68, 47
2, 34035, Note_on_c, 0, 63, 49
2, 34045, Control_c, 0, 64, 127
2, 34057, Note_on_c, 0, 77, 0
2, 34060, Note_on_c, 0, 73, 0
2, 34064, Note_on_c, 0, 58, 0
2, 34067, Note_on_c, 0, 63, 0
2, 34078, Note_on_c, 0, 68, 0
2, 34109, Control_c, 0, 64, 0
2, 34110, Note_on_c, 0, 79, 68
2, 34111, Note_on_c, 0, 75, 68
2, 34111, Note_on_c, 0, 60, 55
2, 34112, Note_on_c, 0, 70, 55
2, 34114, Note_on_c, 0, 65, 51
2, 34126, Control_c, 0, 64, 127
2, 34137, Note_on_c, 0, 75, 0
2, 34138, Note_on_c, 0, 79, 0
2, 34138, Note_on_c, 0, 65, 0
2, 34143, Note_on_c, 0, 60, 0
2, 34154, Note_on_c, 0, 70, 0
2, 34185, Control_c, 0, 64, 0
2, 34187, Note_on_c, 0, 76, 54
2, 34187, Note_on_c, 0, 80, 62
2, 34189, Note_on_c, 0, 71, 54
2, 34191, Note_on_c, 0, 66, 47
2, 34192, Note_on_c, 0, 61, 31
2, 34202, Control_c, 0, 64, 127
2, 34216, Note_on_c, 0, 61, 0
2, 34216, Note_on_c, 0, 66, 0
2, 34217, Note_on_c, 0, 71, 0
2, 34232, Note_on_c, 0, 76, 0
2, 34245, Note_on_c, 0, 80, 0
2, 34262, Note_on_c, 0, 73, 46
2, 34263, Note_on_c, 0, 63, 51
2, 34264, Note_on_c, 0, 82, 56
2, 34266, Note_on_c, 0, 68, 50
2, 34266, Note_on_c, 0, 78, 52
2, 34268, Control_c, 0, 64, 0
2, 34291, Control_c, 0, 64, 127
2, 34296, Note_on_c, 0, 68, 0
2, 34296, Note_on_c, 0, 63, 0
2, 34305, Note_on_c, 0, 78, 0
2, 34306, Note_on_c, 0, 82, 0
2, 34309, Note_on_c, 0, 73, 0
2, 34337, Note_on_c, 0, 75, 52
2, 34339, Control_c, 0, 64, 0
2, 34340, Note_on_c, 0, 84, 64
2, 34340, Note_on_c, 0, 80, 56
2, 34340, Note_on_c, 0, 64, 36
2, 34342, Note_on_c, 0, 70, 46
2, 34343, Control_c, 0, 64, 127
2, 34350, Note_on_c, 0, 75, 0
2, 34353, Note_on_c, 0, 70, 0
2, 34360, Note_on_c, 0, 64, 0
2, 34363, Note_on_c, 0, 84, 0
2, 34365, Note_on_c, 0, 80, 0
2, 34418, Control_c, 0, 64, 0
2, 34421, Note_on_c, 0, 85, 59
2, 34422, Note_on_c, 0, 42, 45
2, 34423, Note_on_c, 0, 49, 33
2, 34424, Note_on_c, 0, 80, 40
2, 34424, Note_on_c, 0, 52, 27
2, 34428, Note_on_c, 0, 82, 36
2, 34429, Control_c, 0, 64, 127
2, 34433, Note_on_c, 0, 49, 0
2, 34437, Note_on_c, 0, 52, 0
2, 34438, Note_on_c, 0, 42, 0
2, 34443, Note_on_c, 0, 85, 0
2, 34445, Note_on_c, 0, 82, 0
2, 34448, Note_on_c, 0, 80, 0
2, 34496, Note_on_c, 0, 41, 34
2, 34498, Note_on_c, 0, 48, 30
2, 34501, Note_on_c, 0, 88, 52
2, 34502, Note_on_c, 0, 76, 59
2, 34503, Note_on_c, 0, 81, 59
2, 34503, Note_on_c, 0, 84, 58
2, 34507, Note_on_c, 0, 57, 41
2, 34508, Control_c, 0, 64, 0
2, 34527, Control_c, 0, 64, 127
2, 34528, Note_on_c, 0, 76, 0
2, 34530, Note_on_c, 0, 41, 0
2, 34531, Note_on_c, 0, 81, 0
2, 34532, Note_on_c, 0, 84, 0
2, 34534, Note_on_c, 0, 48, 0
2, 34537, Note_on_c, 0, 88, 0
2, 34543, Note_on_c, 0, 57, 0
2, 34575, Note_on_c, 0, 91, 68
2, 34576, Note_on_c, 0, 64, 63
2, 34578, Note_on_c, 0, 60, 43
2, 34578, Note_on_c, 0, 79, 54
2, 34578, Note_on_c, 0, 84, 57
2, 34578, Note_on_c, 0, 88, 61
2, 34579, Note_on_c, 0, 53, 49
2, 34579, Note_on_c, 0, 57, 44
2, 34598, Note_on_c, 0, 88, 0
2, 34602, Note_on_c, 0, 91, 0
2, 34602, Note_on_c, 0, 84, 0
2, 34608, Note_on_c, 0, 79, 0
2, 34612, Note_on_c, 0, 60, 0
2, 34614, Note_on_c, 0, 64, 0
2, 34619, Note_on_c, 0, 57, 0
2, 34676, Note_on_c, 0, 88, 55
2, 34677, Note_on_c, 0, 76, 55
2, 34678, Note_on_c, 0, 64, 47
2, 34679, Note_on_c, 0, 81, 54
2, 34679, Note_on_c, 0, 57, 38
2, 34679, Note_on_c, 0, 84, 52
2, 34680, Note_on_c, 0, 60, 40
2, 34718, Note_on_c, 0, 88, 0
2, 34721, Note_on_c, 0, 84, 0
2, 34726, Note_on_c, 0, 81, 0
2, 34729, Note_on_c, 0, 64, 0
2, 34734, Note_on_c, 0, 76, 0
2, 34754, Note_on_c, 0, 60, 0
2, 34754, Note_on_c, 0, 57, 0
2, 34797, Note_on_c, 0, 84, 55
2, 34798, Note_on_c, 0, 64, 47
2, 34798, Note_on_c, 0, 72, 49
2, 34798, Note_on_c, 0, 81, 54
2, 34800, Note_on_c, 0, 60, 40
2, 34800, Note_on_c, 0, 57, 33
2, 34824, Note_on_c, 0, 84, 0
2, 34831, Note_on_c, 0, 81, 0
2, 34833, Note_on_c, 0, 53, 0
2, 34842, Note_on_c, 0, 72, 0
2, 34880, Note_on_c, 0, 53, 58
2, 34941, Note_on_c, 0, 53, 0
2, 34955, Note_on_c, 0, 57, 0
2, 34991, Note_on_c, 0, 60, 0
2, 34994, Note_on_c, 0, 53, 41
2, 34999, Note_on_c, 0, 64, 0
2, 35010, Note_on_c, 0, 53, 0
2, 35034, Note_on_c, 0, 62, 49
2, 35034, Note_on_c, 0, 57, 42
2, 35035, Note_on_c, 0, 69, 79
2, 35036, Note_on_c, 0, 58, 31
2, 35037, Note_on_c, 0, 52, 50
2, 35040, Control_c, 0, 64, 0
2, 35066, Note_on_c, 0, 69, 0
2, 35068, Note_on_c, 0, 70, 57
2, 35085, Note_on_c, 0, 69, 49
2, 35086, Note_on_c, 0, 70, 0
2, 35096, Note_on_c, 0, 62, 0
2, 35102, Note_on_c, 0, 69, 0
2, 35103, Note_on_c, 0, 58, 0
2, 35109, Note_on_c, 0, 67, 24
2, 35126, Note_on_c, 0, 67, 0
2, 35134, Note_on_c, 0, 57, 0
2, 35150, Note_on_c, 0, 62, 33
2, 35151, Note_on_c, 0, 58, 37
2, 35154, Note_on_c, 0, 69, 68
2, 35159, Note_on_c, 0, 62, 0
2, 35168, Note_on_c, 0, 58, 0
2, 35170, Note_on_c, 0, 52, 0
2, 35173, Note_on_c, 0, 69, 0
2, 35173, Note_on_c, 0, 70, 60
2, 35194, Note_on_c, 0, 69, 40
2, 35202, Note_on_c, 0, 70, 0
2, 35211, Control_c, 0, 64, 127
2, 35215, Note_on_c, 0, 69, 0
2, 35223, Note_on_c, 0, 67, 46
2, 35236, Note_on_c, 0, 52, 34
2, 35240, Note_on_c, 0, 67, 0
2, 35253, Note_on_c, 0, 52, 0
2, 35260, Control_c, 0, 64, 0
2, 35264, Note_on_c, 0, 55, 55
2, 35264, Note_on_c, 0, 69, 68
2, 35273, Note_on_c, 0, 55, 0
2, 35293, Note_on_c, 0, 69, 0
2, 35299, Note_on_c, 0, 70, 59
2, 35316, Note_on_c, 0, 70, 0
2, 35329, Note_on_c, 0, 72, 60
2, 35334, Control_c, 0, 64, 127
2, 35348, Note_on_c, 0, 72, 0
2, 35362, Note_on_c, 0, 73, 60
2, 35386, Note_on_c, 0, 73, 0
2, 35388, Note_on_c, 0, 55, 45
2, 35390, Note_on_c, 0, 61, 36
2, 35390, Control_c, 0, 64, 0
2, 35392, Note_on_c, 0, 75, 55
2, 35405, Note_on_c, 0, 55, 0
2, 35408, Note_on_c, 0, 61, 0
2, 35409, Note_on_c, 0, 75, 0
2, 35424, Note_on_c, 0, 76, 50
2, 35444, Note_on_c, 0, 76, 0
2, 35455, Note_on_c, 0, 77, 49
2, 35472, Control_c, 0, 64, 127
2, 35475, Note_on_c, 0, 77, 0
2, 35484, Note_on_c, 0, 51, 54
2, 35484, Note_on_c, 0, 61, 46
2, 35491, Note_on_c, 0, 79, 54
2, 35499, Note_on_c, 0, 79, 0
2, 35501, Note_on_c, 0, 61, 0
2, 35510, Note_on_c, 0, 51, 0
2, 35522, Control_c, 0, 64, 0
2, 35522, Note_on_c, 0, 86, 84
2, 35525, Note_on_c, 0, 57, 35
2, 35526, Note_on_c, 0, 50, 43
2, 35528, Note_on_c, 0, 60, 24
2, 35535, Note_on_c, 0, 60, 0
2, 35543, Note_on_c, 0, 86, 0
2, 35557, Note_on_c, 0, 80, 56
2, 35564, Note_on_c, 0, 57, 0
2, 35572, Note_on_c, 0, 80, 0
2, 35591, Note_on_c, 0, 79, 59
2, 35608, Note_on_c, 0, 79, 0
2, 35620, Note_on_c, 0, 74, 51
2, 35628, Note_on_c, 0, 74, 0
2, 35639, Note_on_c, 0, 57, 24
2, 35643, Note_on_c, 0, 60, 13
2, 35650, Note_on_c, 0, 77, 80
2, 35676, Note_on_c, 0, 77, 0
2, 35682, Note_on_c, 0, 60, 0
2, 35682, Note_on_c, 0, 50, 0
2, 35683, Note_on_c, 0, 79, 55
2, 35694, Note_on_c, 0, 77, 50
2, 35704, Note_on_c, 0, 79, 0
2, 35713, Control_c, 0, 64, 127
2, 35717, Note_on_c, 0, 77, 0
2, 35718, Note_on_c, 0, 74, 44
2, 35724, Note_on_c, 0, 57, 0
2, 35745, Note_on_c, 0, 74, 0
2, 35762, Control_c, 0, 64, 0
2, 35763, Note_on_c, 0, 50, 45
2, 35765, Note_on_c, 0, 60, 36
2, 35765, Note_on_c, 0, 57, 35
2, 35767, Note_on_c, 0, 72, 49
2, 35798, Note_on_c, 0, 60, 0
2, 35799, Control_c, 0, 64, 127
2, 35833, Note_on_c, 0, 72, 0
2, 35835, Note_on_c, 0, 69, 55
2, 35877, Note_on_c, 0, 61, 60
2, 35889, Note_on_c, 0, 57, 0
2, 35891, Control_c, 0, 64, 0
2, 35892, Note_on_c, 0, 61, 0
2, 35897, Control_c, 0, 64, 127
2, 35906, Note_on_c, 0, 50, 0
2, 35910, Note_on_c, 0, 69, 0
2, 35916, Note_on_c, 0, 68, 63
2, 35931, Note_on_c, 0, 68, 0
2, 35950, Note_on_c, 0, 67, 53
2, 35952, Note_on_c, 0, 50, 45
2, 35984, Control_c, 0, 64, 0
2, 35986, Note_on_c, 0, 67, 0
2, 35991, Note_on_c, 0, 43, 47
2, 35995, Note_on_c, 0, 65, 54
2, 35999, Note_on_c, 0, 43, 0
2, 36001, Control_c, 0, 64, 127
2, 36007, Note_on_c, 0, 50, 0
2, 36073, Note_on_c, 0, 62, 51
2, 36074, Note_on_c, 0, 58, 48
2, 36075, Note_on_c, 0, 57, 47
2, 36127, Note_on_c, 0, 62, 0
2, 36138, Note_on_c, 0, 58, 0
2, 36141, Note_on_c, 0, 57, 0
2, 36188, Note_on_c, 0, 65, 0
2, 36199, Note_on_c, 0, 56, 46
2, 36200, Note_on_c, 0, 62, 44
2, 36206, Note_on_c, 0, 62, 0
2, 36228, Note_on_c, 0, 56, 0
2, 36238, Note_on_c, 0, 57, 73
2, 36239, Note_on_c, 0, 72, 80
2, 36239, Note_on_c, 0, 65, 85
2, 36239, Note_on_c, 0, 62, 84
2, 36240, Note_on_c, 0, 69, 66
2, 36242, Control_c, 0, 64, 0
2, 36267, Note_on_c, 0, 69, 0
2, 36269, Control_c, 0, 64, 127
2, 36272, Note_on_c, 0, 72, 0
2, 36275, Note_on_c, 0, 65, 0
2, 36277, Note_on_c, 0, 56, 42
2, 36282, Note_on_c, 0, 57, 0
2, 36284, Note_on_c, 0, 62, 0
2, 36301, Note_on_c, 0, 56, 0
2, 36309, Note_on_c, 0, 55, 43
2, 36319, Note_on_c, 0, 55, 0
2, 36320, Note_on_c, 0, 54, 39
2, 36332, Note_on_c, 0, 54, 0
2, 36341, Note_on_c, 0, 58, 68
2, 36341, Note_on_c, 0, 62, 68
2, 36342, Note_on_c, 0, 69, 72
2, 36343, Note_on_c, 0, 53, 63
2, 36343, Control_c, 0, 64, 0
2, 36343, Note_on_c, 0, 65, 60
2, 36388, Control_c, 0, 64, 127
2, 36410, Note_on_c, 0, 62, 0
2, 36418, Note_on_c, 0, 58, 0
2, 36424, Note_on_c, 0, 69, 0
2, 36424, Note_on_c, 0, 62, 57
2, 36433, Note_on_c, 0, 53, 0
2, 36442, Note_on_c, 0, 65, 0
2, 36454, Note_on_c, 0, 58, 49
2, 36456, Note_on_c, 0, 62, 0
2, 36468, Note_on_c, 0, 58, 0
2, 36488, Control_c, 0, 64, 0
2, 36489, Note_on_c, 0, 64, 48
2, 36491, Note_on_c, 0, 55, 41
2, 36491, Note_on_c, 0, 46, 49
2, 36492, Note_on_c, 0, 60, 55
2, 36501, Note_on_c, 0, 55, 0
2, 36505, Note_on_c, 0, 46, 0
2, 36508, Note_on_c, 0, 60, 0
2, 36508, Control_c, 0, 64, 127
2, 36518, Note_on_c, 0, 64, 0
2, 36565, Note_on_c, 0, 56, 45
2, 36566, Note_on_c, 0, 72, 66
2, 36566, Note_on_c, 0, 79, 69
2, 36595, Note_on_c, 0, 72, 0
2, 36596, Note_on_c, 0, 79, 0
2, 36607, Note_on_c, 0, 76, 49
2, 36608, Note_on_c, 0, 67, 34
2, 36611, Note_on_c, 0, 62, 34
2, 36611, Note_on_c, 0, 72, 32
2, 36619, Note_on_c, 0, 72, 0
2, 36620, Note_on_c, 0, 67, 0
2, 36631, Note_on_c, 0, 76, 0
2, 36655, Note_on_c, 0, 62, 0
2, 36660, Note_on_c, 0, 56, 0
2, 36674, Note_on_c, 0, 84, 80
2, 36675, Note_on_c, 0, 91, 77
2, 36676, Note_on_c, 0, 56, 39
2, 36677, Note_on_c, 0, 67, 55
2, 36680, Note_on_c, 0, 62, 46
2, 36726, Note_on_c, 0, 91, 0
2, 36731, Note_on_c, 0, 84, 0
2, 36760, Note_on_c, 0, 62, 0
2, 36761, Note_on_c, 0, 56, 0
2, 36762, Note_on_c, 0, 67, 0
2, 36836, Note_on_c, 0, 84, 46
2, 36836, Note_on_c, 0, 56, 42
2, 36837, Note_on_c, 0, 62, 40
2, 36838, Note_on_c, 0, 79, 42
2, 36842, Note_on_c, 0, 74, 24
2, 36847, Note_on_c, 0, 62, 0
2, 36854, Note_on_c, 0, 84, 0
2, 36855, Note_on_c, 0, 74, 0
2, 36858, Note_on_c, 0, 79, 0
2, 36858, Note_on_c, 0, 56, 0
2, 36912, Note_on_c, 0, 52, 65
2, 36933, Note_on_c, 0, 52, 0
2, 36955, Note_on_c, 0, 45, 36
2, 36965, Note_on_c, 0, 45, 0
2, 36971, Control_c, 0, 64, 0
2, 37046, Note_on_c, 0, 45, 39
2, 37047, Note_on_c, 0, 49, 65
2, 37077, Note_on_c, 0, 49, 0
2, 37083, Note_on_c, 0, 45, 0
2, 37084, Note_on_c, 0, 46, 43
2, 37085, Note_on_c, 0, 51, 51
2, 37109, Note_on_c, 0, 51, 0
2, 37112, Note_on_c, 0, 46, 0
2, 37118, Note_on_c, 0, 52, 55
2, 37120, Note_on_c, 0, 48, 40
2, 37132, Note_on_c, 0, 52, 0
2, 37142, Note_on_c, 0, 48, 0
2, 37157, Note_on_c, 0, 54, 51
2, 37159, Note_on_c, 0, 49, 38
2, 37179, Note_on_c, 0, 54, 0
2, 37190, Note_on_c, 0, 55, 56
2, 37198, Note_on_c, 0, 51, 27
2, 37208, Note_on_c, 0, 55, 0
2, 37215, Note_on_c, 0, 49, 0
2, 37219, Note_on_c, 0, 51, 0
2, 37228, Note_on_c, 0, 57, 62
2, 37229, Note_on_c, 0, 52, 37
2, 37245, Note_on_c, 0, 52, 0
2, 37248, Note_on_c, 0, 57, 0
2, 37260, Note_on_c, 0, 58, 57
2, 37268, Note_on_c, 0, 55, 24
2, 37281, Note_on_c, 0, 58, 0
2, 37285, Note_on_c, 0, 55, 0
2, 37291, Note_on_c, 0, 60, 68
2, 37293, Note_on_c, 0, 57, 50
2, 37306, Note_on_c, 0, 60, 0
2, 37308, Note_on_c, 0, 57, 0
2, 37320, Note_on_c, 0, 61, 72
2, 37328, Note_on_c, 0, 57, 31
2, 37340, Note_on_c, 0, 61, 0
2, 37350, Note_on_c, 0, 63, 53
2, 37359, Note_on_c, 0, 51, 30
2, 37361, Note_on_c, 0, 63, 0
2, 37367, Control_c, 0, 64, 127
2, 37373, Note_on_c, 0, 61, 8
2, 37377, Note_on_c, 0, 57, 0
2, 37380, Note_on_c, 0, 64, 66
2, 37395, Note_on_c, 0, 64, 0
2, 37401, Note_on_c, 0, 61, 0
2, 37404, Note_on_c, 0, 51, 0
2, 37408, Note_on_c, 0, 67, 74
2, 37422, Note_on_c, 0, 57, 22
2, 37425, Note_on_c, 0, 67, 0
2, 37426, Control_c, 0, 64, 0
2, 37429, Note_on_c, 0, 50, 45
2, 37439, Note_on_c, 0, 65, 51
2, 37459, Note_on_c, 0, 65, 0
2, 37460, Control_c, 0, 64, 127
2, 37471, Note_on_c, 0, 60, 44
2, 37479, Note_on_c, 0, 60, 0
2, 37504, Note_on_c, 0, 69, 75
2, 37532, Note_on_c, 0, 69, 0
2, 37557, Note_on_c, 0, 62, 50
2, 37570, Note_on_c, 0, 57, 0
2, 37587, Note_on_c, 0, 65, 53
2, 37605, Note_on_c, 0, 65, 0
2, 37621, Note_on_c, 0, 62, 0
2, 37627, Note_on_c, 0, 69, 72
2, 37631, Note_on_c, 0, 57, 41
2, 37640, Note_on_c, 0, 50, 0
2, 37646, Note_on_c, 0, 57, 0
2, 37646, Note_on_c, 0, 69, 0
2, 37670, Note_on_c, 0, 79, 82
2, 37670, Note_on_c, 0, 72, 71
2, 37671, Note_on_c, 0, 69, 66
2, 37671, Note_on_c, 0, 64, 65
2, 37676, Control_c, 0, 64, 0
2, 37697, Control_c, 0, 64, 127
2, 37757, Note_on_c, 0, 79, 0
2, 37771, Note_on_c, 0, 64, 0
2, 37771, Note_on_c, 0, 69, 0
2, 37773, Note_on_c, 0, 72, 0
2, 37791, Note_on_c, 0, 77, 57
2, 37792, Note_on_c, 0, 69, 57
2, 37793, Note_on_c, 0, 72, 57
2, 37795, Note_on_c, 0, 62, 50
2, 37801, Control_c, 0, 64, 0
2, 37814, Control_c, 0, 64, 127
2, 37833, Note_on_c, 0, 62, 0
2, 37849, Note_on_c, 0, 69, 0
2, 37851, Note_on_c, 0, 72, 0
2, 37858, Note_on_c, 0, 77, 0
2, 37917, Note_on_c, 0, 43, 78
2, 37925, Control_c, 0, 64, 0
2, 37954, Control_c, 0, 64, 127
2, 37964, Note_on_c, 0, 64, 80
2, 37967, Note_on_c, 0, 53, 49
2, 37971, Note_on_c, 0, 43, 0
2, 37973, Note_on_c, 0, 53, 0
2, 37992, Note_on_c, 0, 64, 0
2, 37997, Note_on_c, 0, 69, 77
2, 38032, Note_on_c, 0, 69, 0
2, 38032, Note_on_c, 0, 73, 74
2, 38033, Note_on_c, 0, 64, 40
2, 38036, Note_on_c, 0, 53, 31
2, 38039, Note_on_c, 0, 59, 35
2, 38040, Note_on_c, 0, 64, 0
2, 38044, Note_on_c, 0, 73, 0
2, 38045, Note_on_c, 0, 53, 0
2, 38047, Note_on_c, 0, 59, 0
2, 38075, Note_on_c, 0, 81, 57
2, 38076, Note_on_c, 0, 79, 69
2, 38079, Note_on_c, 0, 59, 42
2, 38081, Note_on_c, 0, 79, 0
2, 38089, Note_on_c, 0, 59, 0
2, 38090, Note_on_c, 0, 81, 0
2, 38109, Note_on_c, 0, 85, 64
2, 38112, Note_on_c, 0, 59, 55
2, 38113, Note_on_c, 0, 64, 54
2, 38113, Note_on_c, 0, 53, 55
2, 38131, Note_on_c, 0, 64, 0
2, 38132, Note_on_c, 0, 53, 0
2, 38143, Note_on_c, 0, 59, 0
2, 38144, Note_on_c, 0, 85, 0
2, 38155, Note_on_c, 0, 59, 68
2, 38155, Note_on_c, 0, 88, 82
2, 38156, Note_on_c, 0, 76, 75
2, 38156, Note_on_c, 0, 53, 75
2, 38156, Note_on_c, 0, 64, 69
2, 38158, Control_c, 0, 64, 0
2, 38158, Note_on_c, 0, 81, 66
2, 38160, Note_on_c, 0, 85, 29
2, 38180, Control_c, 0, 64, 127
2, 38219, Note_on_c, 0, 64, 0
2, 38226, Note_on_c, 0, 53, 0
2, 38232, Note_on_c, 0, 59, 0
2, 38237, Note_on_c, 0, 81, 0
2, 38247, Note_on_c, 0, 85, 0
2, 38258, Note_on_c, 0, 76, 0
2, 38266, Note_on_c, 0, 88, 0
2, 38357, Note_on_c, 0, 64, 54
2, 38357, Note_on_c, 0, 53, 54
2, 38358, Note_on_c, 0, 59, 56
2, 38358, Note_on_c, 0, 86, 74
2, 38359, Note_on_c, 0, 74, 66
2, 38360, Note_on_c, 0, 81, 68
2, 38368, Note_on_c, 0, 53, 0
2, 38375, Note_on_c, 0, 74, 0
2, 38375, Note_on_c, 0, 59, 0
2, 38384, Note_on_c, 0, 81, 0
2, 38384, Note_on_c, 0, 86, 0
2, 38386, Note_on_c, 0, 64, 0
2, 38537, Note_on_c, 0, 56, 73
2, 38537, Note_on_c, 0, 84, 85
2, 38537, Note_on_c, 0, 88, 83
2, 38537, Note_on_c, 0, 67, 75
2, 38538, Note_on_c, 0, 76, 80
2, 38538, Note_on_c, 0, 62, 68
2, 38541, Note_on_c, 0, 60, 58
2, 38543, Control_c, 0, 64, 0
2, 38547, Note_on_c, 0, 60, 0
2, 38562, Control_c, 0, 64, 127
2, 38578, Note_on_c, 0, 76, 0
2, 38582, Note_on_c, 0, 67, 0
2, 38582, Note_on_c, 0, 84, 0
2, 38583, Note_on_c, 0, 88, 0
2, 38584, Note_on_c, 0, 56, 0
2, 38588, Note_on_c, 0, 62, 0
2, 38608, Note_on_c, 0, 56, 75
2, 38608, Note_on_c, 0, 67, 79
2, 38608, Note_on_c, 0, 88, 78
2, 38609, Note_on_c, 0, 62, 61
2, 38609, Note_on_c, 0, 76, 77
2, 38609, Note_on_c, 0, 84, 79
2, 38635, Note_on_c, 0, 76, 0
2, 38636, Note_on_c, 0, 56, 0
2, 38637, Note_on_c, 0, 67, 0
2, 38637, Note_on_c, 0, 88, 0
2, 38640, Note_on_c, 0, 84, 0
2, 38643, Note_on_c, 0, 62, 0
2, 38650, Control_c, 0, 64, 0
2, 38655, Note_on_c, 0, 67, 44
2, 38655, Note_on_c, 0, 56, 67
2, 38655, Note_on_c, 0, 88, 71
2, 38656, Note_on_c, 0, 76, 64
2, 38656, Note_on_c, 0, 84, 57
2, 38657, Note_on_c, 0, 62, 65
2, 38661, Control_c, 0, 64, 127
2, 38677, Note_on_c, 0, 76, 0
2, 38678, Note_on_c, 0, 84, 0
2, 38684, Note_on_c, 0, 67, 0
2, 38686, Note_on_c, 0, 88, 0
2, 38686, Note_on_c, 0, 62, 0
2, 38687, Note_on_c, 0, 56, 0
2, 38726, Note_on_c, 0, 89, 74
2, 38727, Note_on_c, 0, 56, 65
2, 38728, Note_on_c, 0, 77, 66
2, 38728, Note_on_c, 0, 67, 54
2, 38728, Note_on_c, 0, 62, 62
2, 38730, Note_on_c, 0, 84, 65
2, 38740, Note_on_c, 0, 67, 0
2, 38744, Note_on_c, 0, 89, 0
2, 38745, Note_on_c, 0, 56, 0
2, 38748, Note_on_c, 0, 62, 0
2, 38748, Note_on_c, 0, 77, 0
2, 38749, Note_on_c, 0, 84, 0
2, 38762, Control_c, 0, 64, 0
2, 38769, Note_on_c, 0, 56, 53
2, 38770, Note_on_c, 0, 62, 50
2, 38770, Control_c, 0, 64, 127
2, 38771, Note_on_c, 0, 88, 64
2, 38771, Note_on_c, 0, 67, 29
2, 38773, Note_on_c, 0, 76, 54
2, 38784, Note_on_c, 0, 67, 0
2, 38785, Note_on_c, 0, 62, 0
2, 38785, Note_on_c, 0, 76, 0
2, 38789, Note_on_c, 0, 88, 0
2, 38806, Note_on_c, 0, 56, 0
2, 38843, Note_on_c, 0, 61, 69
2, 38844, Note_on_c, 0, 55, 75
2, 38845, Note_on_c, 0, 65, 48
2, 38851, Control_c, 0, 64, 0
2, 38864, Note_on_c, 0, 65, 0
2, 38870, Control_c, 0, 64, 127
2, 38874, Note_on_c, 0, 55, 0
2, 38874, Note_on_c, 0, 61, 0
2, 38953, Note_on_c, 0, 45, 66
2, 38961, Note_on_c, 0, 45, 0
2, 39083, Note_on_c, 0, 61, 73
2, 39084, Note_on_c, 0, 60, 81
2, 39084, Note_on_c, 0, 65, 83
2, 39084, Note_on_c, 0, 86, 87
2, 39084, Note_on_c, 0, 74, 90
2, 39086, Note_on_c, 0, 58, 47
2, 39087, Note_on_c, 0, 55, 68
2, 39092, Note_on_c, 0, 55, 0
2, 39101, Note_on_c, 0, 74, 0
2, 39103, Note_on_c, 0, 65, 0
2, 39106, Note_on_c, 0, 58, 0
2, 39107, Note_on_c, 0, 86, 0
2, 39108, Note_on_c, 0, 61, 0
2, 39110, Note_on_c, 0, 60, 0
2, 39126, Note_on_c, 0, 60, 56
2, 39126, Note_on_c, 0, 61, 54
2, 39127, Note_on_c, 0, 88, 77
2, 39128, Note_on_c, 0, 76, 71
2, 39128, Note_on_c, 0, 65, 68
2, 39129, Note_on_c, 0, 55, 62
2, 39133, Note_on_c, 0, 65, 0
2, 39133, Control_c, 0, 64, 0
2, 39135, Note_on_c, 0, 55, 0
2, 39138, Note_on_c, 0, 60, 0
2, 39139, Note_on_c, 0, 76, 0
2, 39140, Note_on_c, 0, 88, 0
2, 39140, Note_on_c, 0, 61, 0
2, 39175, Control_c, 0, 64, 127
2, 39203, Note_on_c, 0, 60, 74
2, 39203, Note_on_c, 0, 61, 61
2, 39205, Note_on_c, 0, 88, 79
2, 39205, Note_on_c, 0, 76, 73
2, 39205, Note_on_c, 0, 65, 68
2, 39210, Note_on_c, 0, 65, 0
2, 39212, Note_on_c, 0, 55, 22
2, 39216, Note_on_c, 0, 60, 0
2, 39217, Note_on_c, 0, 76, 0
2, 39218, Note_on_c, 0, 61, 0
2, 39218, Note_on_c, 0, 55, 0
2, 39223, Note_on_c, 0, 88, 0
2, 39240, Control_c, 0, 64, 0
2, 39244, Note_on_c, 0, 60, 74
2, 39245, Note_on_c, 0, 61, 67
2, 39245, Note_on_c, 0, 65, 75
2, 39246, Note_on_c, 0, 89, 82
2, 39246, Note_on_c, 0, 77, 79
2, 39246, Note_on_c, 0, 55, 75
2, 39248, Note_on_c, 0, 58, 42
2, 39252, Control_c, 0, 64, 127
2, 39271, Note_on_c, 0, 65, 0
2, 39272, Note_on_c, 0, 60, 0
2, 39275, Note_on_c, 0, 61, 0
2, 39279, Note_on_c, 0, 55, 0
2, 39280, Note_on_c, 0, 58, 0
2, 39281, Note_on_c, 0, 77, 0
2, 39288, Note_on_c, 0, 89, 0
2, 39366, Control_c, 0, 64, 0
2, 39368, Note_on_c, 0, 86, 94
2, 39368, Note_on_c, 0, 93, 95
2, 39368, Note_on_c, 0, 81, 94
2, 39368, Note_on_c, 0, 89, 83
2, 39369, Note_on_c, 0, 57, 83
2, 39370, Note_on_c, 0, 58, 74
2, 39370, Note_on_c, 0, 62, 91
2, 39372, Note_on_c, 0, 52, 73
2, 39378, Note_on_c, 0, 81, 0
2, 39388, Note_on_c, 0, 86, 0
2, 39391, Control_c, 0, 64, 127
2, 39392, Note_on_c, 0, 89, 0
2, 39398, Note_on_c, 0, 81, 60
2, 39400, Note_on_c, 0, 58, 0
2, 39401, Note_on_c, 0, 57, 0
2, 39406, Note_on_c, 0, 89, 62
2, 39411, Note_on_c, 0, 93, 0
2, 39415, Note_on_c, 0, 81, 0
2, 39430, Note_on_c, 0, 86, 31
2, 39436, Note_on_c, 0, 89, 0
2, 39436, Note_on_c, 0, 81, 63
2, 39438, Note_on_c, 0, 86, 0
2, 39439, Note_on_c, 0, 58, 33
2, 39440, Note_on_c, 0, 57, 36
2, 39440, Note_on_c, 0, 93, 56
2, 39454, Note_on_c, 0, 81, 0
2, 39454, Note_on_c, 0, 86, 51
2, 39455, Note_on_c, 0, 52, 0
2, 39456, Note_on_c, 0, 89, 55
2, 39458, Note_on_c, 0, 58, 0
2, 39458, Note_on_c, 0, 62, 0
2, 39460, Note_on_c, 0, 93, 0
2, 39464, Note_on_c, 0, 57, 0
2, 39465, Note_on_c, 0, 89, 0
2, 39474, Control_c, 0, 64, 0
2, 39478, Note_on_c, 0, 57, 50
2, 39480, Note_on_c, 0, 62, 50
2, 39480, Note_on_c, 0, 79, 58
2, 39480, Note_on_c, 0, 58, 54
2, 39481, Note_on_c, 0, 52, 60
2, 39481, Note_on_c, 0, 91, 49
2, 39506, Note_on_c, 0, 58, 0
2, 39507, Note_on_c, 0, 57, 0
2, 39508, Note_on_c, 0, 62, 0
2, 39508, Note_on_c, 0, 91, 0
2, 39509, Note_on_c, 0, 52, 0
2, 39511, Note_on_c, 0, 79, 0
2, 39517, Note_on_c, 0, 86, 0
2, 39552, Note_on_c, 0, 62, 80
2, 39553, Note_on_c, 0, 58, 62
2, 39553, Note_on_c, 0, 57, 63
2, 39554, Note_on_c, 0, 52, 66
2, 39555, Note_on_c, 0, 81, 75
2, 39555, Note_on_c, 0, 93, 80
2, 39555, Note_on_c, 0, 89, 69
2, 39555, Note_on_c, 0, 86, 66
2, 39576, Note_on_c, 0, 81, 0
2, 39576, Note_on_c, 0, 62, 0
2, 39578, Note_on_c, 0, 86, 0
2, 39578, Note_on_c, 0, 52, 0
2, 39579, Note_on_c, 0, 93, 0
2, 39580, Note_on_c, 0, 89, 0
2, 39581, Note_on_c, 0, 57, 0
2, 39584, Note_on_c, 0, 58, 0
2, 39607, Control_c, 0, 64, 127
2, 39642, Note_on_c, 0, 57, 64
2, 39642, Note_on_c, 0, 62, 68
2, 39643, Note_on_c, 0, 58, 45
2, 39644, Note_on_c, 0, 91, 74
2, 39645, Note_on_c, 0, 79, 68
2, 39645, Note_on_c, 0, 86, 66
2, 39649, Note_on_c, 0, 52, 36
2, 39655, Note_on_c, 0, 79, 0
2, 39656, Note_on_c, 0, 62, 0
2, 39658, Note_on_c, 0, 58, 0
2, 39658, Note_on_c, 0, 91, 0
2, 39658, Note_on_c, 0, 86, 0
2, 39658, Note_on_c, 0, 52, 0
2, 39659, Note_on_c, 0, 57, 0
2, 39674, Note_on_c, 0, 62, 60
2, 39675, Note_on_c, 0, 57, 53
2, 39676, Note_on_c, 0, 91, 69
2, 39676, Note_on_c, 0, 58, 54
2, 39677, Note_on_c, 0, 79, 71
2, 39677, Note_on_c, 0, 86, 62
2, 39678, Note_on_c, 0, 52, 60
2, 39689, Note_on_c, 0, 79, 0
2, 39690, Note_on_c, 0, 62, 0
2, 39692, Note_on_c, 0, 52, 0
2, 39693, Note_on_c, 0, 57, 0
2, 39695, Note_on_c, 0, 58, 0
2, 39695, Note_on_c, 0, 91, 0
2, 39696, Note_on_c, 0, 86, 0
2, 39703, Control_c, 0, 64, 0
2, 39713, Note_on_c, 0, 62, 74
2, 39714, Note_on_c, 0, 52, 74
2, 39715, Note_on_c, 0, 57, 60
2, 39715, Note_on_c, 0, 93, 84
2, 39715, Note_on_c, 0, 58, 59
2, 39716, Note_on_c, 0, 86, 68
2, 39717, Note_on_c, 0, 81, 66
2, 39719, Note_on_c, 0, 89, 54
2, 39722, Control_c, 0, 64, 127
2, 39734, Note_on_c, 0, 81, 0
2, 39734, Note_on_c, 0, 57, 0
2, 39735, Note_on_c, 0, 62, 0
2, 39737, Note_on_c, 0, 89, 0
2, 39737, Note_on_c, 0, 93, 0
2, 39738, Note_on_c, 0, 58, 0
2, 39739, Note_on_c, 0, 86, 0
2, 39753, Note_on_c, 0, 62, 59
2, 39753, Note_on_c, 0, 91, 66
2, 39754, Note_on_c, 0, 86, 54
2, 39754, Note_on_c, 0, 58, 49
2, 39755, Note_on_c, 0, 57, 48
2, 39755, Note_on_c, 0, 79, 61
2, 39761, Note_on_c, 0, 79, 0
2, 39761, Note_on_c, 0, 57, 0
2, 39764, Note_on_c, 0, 52, 0
2, 39766, Note_on_c, 0, 86, 0
2, 39766, Note_on_c, 0, 62, 0
2, 39768, Note_on_c, 0, 58, 0
2, 39769, Note_on_c, 0, 91, 0
2, 39833, Control_c, 0, 64, 0
2, 39834, Note_on_c, 0, 61, 71
2, 39835, Note_on_c, 0, 60, 80
2, 39835, Note_on_c, 0, 65, 85
2, 39836, Note_on_c, 0, 58, 50
2, 39836, Note_on_c, 0, 55, 78
2, 39837, Note_on_c, 0, 96, 94
2, 39837, Note_on_c, 0, 84, 92
2, 39838, Note_on_c, 0, 93, 74
2, 39839, Note_on_c, 0, 89, 79
2, 39856, Note_on_c, 0, 89, 0
2, 39863, Note_on_c, 0, 84, 0
2, 39865, Note_on_c, 0, 96, 0
2, 39866, Note_on_c, 0, 65, 0
2, 39867, Note_on_c, 0, 55, 0
2, 39868, Note_on_c, 0, 60, 0
2, 39869, Note_on_c, 0, 58, 0
2, 39870, Note_on_c, 0, 93, 0
2, 39871, Control_c, 0, 64, 127
2, 39872, Note_on_c, 0, 61, 0
2, 39884, Note_on_c, 0, 96, 76
2, 39885, Note_on_c, 0, 65, 67
2, 39885, Note_on_c, 0, 61, 49
2, 39885, Note_on_c, 0, 60, 60
2, 39887, Note_on_c, 0, 55, 58
2, 39887, Note_on_c, 0, 84, 64
2, 39889, Note_on_c, 0, 58, 33
2, 39890, Note_on_c, 0, 89, 64
2, 39892, Note_on_c, 0, 93, 31
2, 39899, Note_on_c, 0, 93, 0
2, 39902, Note_on_c, 0, 84, 0
2, 39904, Note_on_c, 0, 96, 0
2, 39908, Note_on_c, 0, 55, 0
2, 39908, Note_on_c, 0, 89, 0
2, 39909, Note_on_c, 0, 65, 0
2, 39911, Note_on_c, 0, 58, 0
2, 39911, Note_on_c, 0, 60, 0
2, 39913, Note_on_c, 0, 61, 0
2, 39927, Note_on_c, 0, 60, 62
2, 39927, Note_on_c, 0, 65, 55
2, 39928, Note_on_c, 0, 61, 39
2, 39929, Note_on_c, 0, 93, 43
2, 39929, Note_on_c, 0, 81, 42
2, 39929, Note_on_c, 0, 95, 45
2, 39937, Note_on_c, 0, 81, 0
2, 39940, Note_on_c, 0, 65, 0
2, 39942, Note_on_c, 0, 60, 0
2, 39942, Note_on_c, 0, 95, 0
2, 39945, Note_on_c, 0, 93, 0
2, 39946, Note_on_c, 0, 61, 0
2, 39961, Control_c, 0, 64, 0
2, 39971, Note_on_c, 0, 65, 73
2, 39971, Note_on_c, 0, 60, 68
2, 39971, Note_on_c, 0, 84, 66
2, 39972, Note_on_c, 0, 96, 68
2, 39972, Note_on_c, 0, 61, 53
2, 39976, Note_on_c, 0, 93, 35
2, 39976, Note_on_c, 0, 55, 49
2, 39977, Note_on_c, 0, 58, 23
2, 39978, Note_on_c, 0, 89, 26
2, 39982, Note_on_c, 0, 55, 0
2, 39983, Note_on_c, 0, 58, 0
2, 39984, Note_on_c, 0, 89, 0
2, 39985, Note_on_c, 0, 65, 0
2, 39986, Note_on_c, 0, 60, 0
2, 39988, Note_on_c, 0, 84, 0
2, 39988, Note_on_c, 0, 93, 0
2, 39989, Note_on_c, 0, 96, 0
2, 39991, Note_on_c, 0, 61, 0
2, 39993, Control_c, 0, 64, 127
2, 40044, Note_on_c, 0, 84, 74
2, 40044, Note_on_c, 0, 96, 77
2, 40046, Note_on_c, 0, 60, 73
2, 40046, Note_on_c, 0, 61, 62
2, 40047, Note_on_c, 0, 65, 70
2, 40048, Note_on_c, 0, 89, 51
2, 40050, Note_on_c, 0, 58, 33
2, 40052, Note_on_c, 0, 65, 0
2, 40052, Note_on_c, 0, 55, 38
2, 40053, Note_on_c, 0, 89, 0
2, 40056, Note_on_c, 0, 84, 0
2, 40058, Note_on_c, 0, 55, 0
2, 40059, Note_on_c, 0, 60, 0
2, 40060, Note_on_c, 0, 96, 0
2, 40061, Note_on_c, 0, 58, 0
2, 40065, Note_on_c, 0, 61, 0
2, 40080, Control_c, 0, 64, 0
2, 40091, Note_on_c, 0, 60, 66
2, 40093, Note_on_c, 0, 65, 66
2, 40093, Note_on_c, 0, 61, 60
2, 40094, Note_on_c, 0, 55, 66
2, 40097, Control_c, 0, 64, 127
2, 40098, Note_on_c, 0, 58, 28
2, 40146, Note_on_c, 0, 101, 94
2, 40153, Note_on_c, 0, 65, 0
2, 40160, Note_on_c, 0, 61, 0
2, 40166, Note_on_c, 0, 60, 0
2, 40170, Note_on_c, 0, 101, 0
2, 40182, Note_on_c, 0, 96, 88
2, 40211, Note_on_c, 0, 96, 0
2, 40212, Note_on_c, 0, 61, 46
2, 40216, Note_on_c, 0, 93, 77
2, 40223, Note_on_c, 0, 61, 0
2, 40228, Note_on_c, 0, 58, 0
2, 40229, Note_on_c, 0, 55, 0
2, 40248, Note_on_c, 0, 93, 0
2, 40256, Note_on_c, 0, 89, 58
2, 40265, Note_on_c, 0, 89, 0
2, 40295, Note_on_c, 0, 57, 76
2, 40296, Note_on_c, 0, 50, 74
2, 40299, Control_c, 0, 64, 0
2, 40324, Control_c, 0, 64, 127
2, 40344, Note_on_c, 0, 100, 94
2, 40352, Note_on_c, 0, 50, 0
2, 40357, Note_on_c, 0, 57, 0
2, 40367, Note_on_c, 0, 100, 0
2, 40380, Note_on_c, 0, 97, 77
2, 40409, Note_on_c, 0, 97, 0
2, 40418, Note_on_c, 0, 93, 74
2, 40441, Note_on_c, 0, 93, 0
2, 40505, Note_on_c, 0, 93, 84
2, 40526, Note_on_c, 0, 93, 0
2, 40538, Note_on_c, 0, 89, 68
2, 40563, Note_on_c, 0, 89, 0
2, 40575, Note_on_c, 0, 60, 51
2, 40575, Note_on_c, 0, 50, 53
2, 40582, Control_c, 0, 64, 0
2, 40606, Control_c, 0, 64, 127
2, 40611, Note_on_c, 0, 83, 47
2, 40619, Note_on_c, 0, 60, 0
2, 40623, Note_on_c, 0, 83, 0
2, 40649, Note_on_c, 0, 88, 91
2, 40655, Note_on_c, 0, 50, 0
2, 40677, Note_on_c, 0, 88, 0
2, 40690, Note_on_c, 0, 91, 87
2, 40715, Note_on_c, 0, 91, 0
2, 40723, Note_on_c, 0, 89, 75
2, 40746, Note_on_c, 0, 89, 0
2, 40762, Note_on_c, 0, 87, 70
2, 40763, Note_on_c, 0, 54, 50
2, 40763, Note_on_c, 0, 65, 56
2, 40764, Note_on_c, 0, 60, 49
2, 40769, Control_c, 0, 64, 0
2, 40795, Control_c, 0, 64, 127
2, 40816, Note_on_c, 0, 60, 0
2, 40816, Note_on_c, 0, 65, 0
2, 40829, Note_on_c, 0, 54, 0
2, 40925, Control_c, 0, 64, 0
2, 40932, Note_on_c, 0, 54, 40
2, 40934, Note_on_c, 0, 60, 36
2, 40936, Note_on_c, 0, 50, 35
2, 40952, Control_c, 0, 64, 127
2, 40981, Note_on_c, 0, 50, 0
2, 40985, Note_on_c, 0, 54, 0
2, 40989, Note_on_c, 0, 60, 0
2, 41016, Note_on_c, 0, 87, 0
2, 41048, Note_on_c, 0, 65, 44
2, 41049, Note_on_c, 0, 86, 66
2, 41049, Note_on_c, 0, 54, 43
2, 41050, Note_on_c, 0, 60, 46
2, 41055, Control_c, 0, 64, 0
2, 41061, Note_on_c, 0, 86, 0
2, 41062, Note_on_c, 0, 65, 0
2, 41062, Note_on_c, 0, 87, 67
2, 41077, Note_on_c, 0, 86, 45
2, 41089, Note_on_c, 0, 87, 0
2, 41094, Note_on_c, 0, 86, 0
2, 41095, Note_on_c, 0, 84, 63
2, 41107, Note_on_c, 0, 84, 0
2, 41125, Note_on_c, 0, 60, 0
2, 41128, Note_on_c, 0, 83, 53
2, 41129, Note_on_c, 0, 81, 45
2, 41136, Note_on_c, 0, 81, 0
2, 41143, Note_on_c, 0, 83, 0
2, 41155, Note_on_c, 0, 81, 55
2, 41160, Note_on_c, 0, 64, 31
2, 41161, Note_on_c, 0, 60, 37
2, 41169, Note_on_c, 0, 81, 0
2, 41186, Note_on_c, 0, 80, 52
2, 41193, Note_on_c, 0, 64, 0
2, 41194, Note_on_c, 0, 60, 0
2, 41209, Note_on_c, 0, 80, 0
2, 41212, Note_on_c, 0, 54, 0
2, 41217, Note_on_c, 0, 78, 47
2, 41220, Control_c, 0, 64, 127
2, 41244, Note_on_c, 0, 78, 0
2, 41245, Note_on_c, 0, 77, 58
2, 41264, Note_on_c, 0, 77, 0
2, 41273, Note_on_c, 0, 62, 32
2, 41273, Note_on_c, 0, 75, 54
2, 41274, Note_on_c, 0, 58, 36
2, 41280, Note_on_c, 0, 62, 0
2, 41280, Control_c, 0, 64, 0
2, 41287, Note_on_c, 0, 58, 0
2, 41294, Note_on_c, 0, 75, 0
2, 41310, Note_on_c, 0, 74, 50
2, 41326, Note_on_c, 0, 74, 0
2, 41336, Note_on_c, 0, 77, 72
2, 41353, Control_c, 0, 64, 127
2, 41359, Note_on_c, 0, 77, 0
2, 41371, Note_on_c, 0, 72, 50
2, 41385, Note_on_c, 0, 72, 0
2, 41395, Control_c, 0, 64, 0
2, 41396, Note_on_c, 0, 74, 66
2, 41400, Note_on_c, 0, 50, 26
2, 41401, Note_on_c, 0, 43, 27
2, 41411, Note_on_c, 0, 43, 0
2, 41421, Note_on_c, 0, 50, 0
2, 41423, Note_on_c, 0, 74, 0
2, 41456, Control_c, 0, 64, 127
2, 41459, Note_on_c, 0, 72, 66
2, 41482, Note_on_c, 0, 72, 0
2, 41496, Note_on_c, 0, 70, 58
2, 41520, Note_on_c, 0, 70, 0
2, 41524, Note_on_c, 0, 62, 36
2, 41525, Note_on_c, 0, 58, 37
2, 41527, Control_c, 0, 64, 0
2, 41527, Note_on_c, 0, 65, 32
2, 41557, Note_on_c, 0, 62, 0
2, 41564, Note_on_c, 0, 65, 0
2, 41568, Control_c, 0, 64, 127
2, 41573, Note_on_c, 0, 58, 0
2, 41596, Note_on_c, 0, 65, 71
2, 41597, Note_on_c, 0, 60, 65
2, 41598, Note_on_c, 0, 55, 68
2, 41608, Control_c, 0, 64, 0
2, 41629, Control_c, 0, 64, 127
2, 41646, Note_on_c, 0, 65, 0
2, 41651, Note_on_c, 0, 60, 0
2, 41656, Note_on_c, 0, 55, 0
2, 41674, Note_on_c, 0, 69, 67
2, 41693, Note_on_c, 0, 69, 0
2, 41710, Note_on_c, 0, 65, 56
2, 41744, Note_on_c, 0, 65, 0
2, 41749, Note_on_c, 0, 58, 47
2, 41750, Control_c, 0, 64, 0
2, 41751, Note_on_c, 0, 48, 53
2, 41754, Note_on_c, 0, 67, 50
2, 41774, Control_c, 0, 64, 127
2, 41854, Note_on_c, 0, 58, 0
2, 41877, Note_on_c, 0, 63, 69
2, 41879, Note_on_c, 0, 58, 43
2, 41918, Note_on_c, 0, 48, 0
2, 41954, Note_on_c, 0, 48, 60
2, 41967, Note_on_c, 0, 58, 0
2, 41967, Note_on_c, 0, 63, 0
2, 41984, Note_on_c, 0, 67, 0
2, 41996, Note_on_c, 0, 58, 40
2, 41997, Note_on_c, 0, 64, 51
2, 41998, Control_c, 0, 64, 0
2, 41998, Note_on_c, 0, 60, 48
2, 42013, Note_on_c, 0, 60, 0
2, 42013, Control_c, 0, 64, 127
2, 42017, Note_on_c, 0, 64, 0
2, 42021, Note_on_c, 0, 48, 0
2, 42033, Note_on_c, 0, 58, 0
2, 42071, Note_on_c, 0, 63, 61
2, 42071, Note_on_c, 0, 75, 74
2, 42072, Note_on_c, 0, 68, 71
2, 42073, Note_on_c, 0, 64, 74
2, 42075, Note_on_c, 0, 72, 57
2, 42080, Control_c, 0, 64, 0
2, 42093, Note_on_c, 0, 72, 0
2, 42095, Note_on_c, 0, 63, 0
2, 42098, Note_on_c, 0, 75, 0
2, 42099, Note_on_c, 0, 64, 0
2, 42106, Note_on_c, 0, 73, 68
2, 42106, Note_on_c, 0, 61, 49
2, 42109, Note_on_c, 0, 64, 26
2, 42112, Control_c, 0, 64, 127
2, 42125, Note_on_c, 0, 64, 0
2, 42126, Note_on_c, 0, 68, 0
2, 42127, Note_on_c, 0, 73, 0
2, 42132, Note_on_c, 0, 61, 0
2, 42136, Control_c, 0, 64, 0
2, 42143, Note_on_c, 0, 60, 53
2, 42146, Note_on_c, 0, 72, 55
2, 42148, Note_on_c, 0, 62, 48
2, 42149, Note_on_c, 0, 67, 43
2, 42150, Note_on_c, 0, 60, 0
2, 42159, Note_on_c, 0, 72, 0
2, 42160, Note_on_c, 0, 67, 0
2, 42164, Note_on_c, 0, 62, 0
2, 42177, Note_on_c, 0, 58, 32
2, 42178, Note_on_c, 0, 70, 38
2, 42179, Control_c, 0, 64, 127
2, 42200, Note_on_c, 0, 70, 0
2, 42214, Note_on_c, 0, 58, 0
2, 42217, Note_on_c, 0, 72, 67
2, 42218, Control_c, 0, 64, 0
2, 42218, Note_on_c, 0, 62, 53
2, 42219, Note_on_c, 0, 67, 58
2, 42223, Note_on_c, 0, 57, 47
2, 42240, Note_on_c, 0, 57, 0
2, 42240, Note_on_c, 0, 72, 0
2, 42242, Note_on_c, 0, 67, 0
2, 42242, Control_c, 0, 64, 127
2, 42253, Note_on_c, 0, 62, 0
2, 42287, Note_on_c, 0, 69, 64
2, 42288, Note_on_c, 0, 60, 60
2, 42289, Note_on_c, 0, 64, 60
2, 42291, Note_on_c, 0, 52, 38
2, 42293, Control_c, 0, 64, 0
2, 42312, Control_c, 0, 64, 127
2, 42322, Note_on_c, 0, 69, 0
2, 42328, Note_on_c, 0, 64, 0
2, 42339, Note_on_c, 0, 60, 0
2, 42344, Note_on_c, 0, 52, 0
2, 42365, Note_on_c, 0, 62, 45
2, 42367, Note_on_c, 0, 57, 36
2, 42369, Note_on_c, 0, 48, 48
2, 42372, Control_c, 0, 64, 0
2, 42394, Control_c, 0, 64, 127
2, 42399, Note_on_c, 0, 62, 0
2, 42409, Note_on_c, 0, 57, 0
2, 42423, Note_on_c, 0, 48, 0
2, 42437, Note_on_c, 0, 64, 48
2, 42438, Note_on_c, 0, 67, 52
2, 42438, Note_on_c, 0, 57, 57
2, 42439, Note_on_c, 0, 52, 58
2, 42441, Note_on_c, 0, 60, 66
2, 42450, Control_c, 0, 64, 0
2, 42479, Control_c, 0, 64, 127
2, 42485, Note_on_c, 0, 64, 0
2, 42493, Note_on_c, 0, 67, 0
2, 42496, Note_on_c, 0, 60, 0
2, 42497, Note_on_c, 0, 57, 0
2, 42504, Note_on_c, 0, 52, 0
2, 42522, Note_on_c, 0, 60, 56
2, 42522, Note_on_c, 0, 65, 48
2, 42523, Control_c, 0, 64, 0
2, 42524, Note_on_c, 0, 57, 36
2, 42525, Note_on_c, 0, 50, 42
2, 42542, Control_c, 0, 64, 127
2, 42549, Note_on_c, 0, 60, 0
2, 42553, Note_on_c, 0, 65, 0
2, 42553, Note_on_c, 0, 57, 0
2, 42569, Note_on_c, 0, 50, 0
2, 42598, Control_c, 0, 64, 0
2, 42602, Note_on_c, 0, 60, 41
2, 42603, Note_on_c, 0, 53, 30
2, 42603, Note_on_c, 0, 57, 33
2, 42604, Note_on_c, 0, 48, 29
2, 42606, Note_on_c, 0, 41, 32
2, 42616, Control_c, 0, 64, 127
2, 42624, Note_on_c, 0, 48, 0
2, 42624, Note_on_c, 0, 53, 0
2, 42625, Note_on_c, 0, 57, 0
2, 42626, Note_on_c, 0, 60, 0
2, 42630, Note_on_c, 0, 41, 0
2, 42679, Note_on_c, 0, 58, 50
2, 42681, Control_c, 0, 64, 0
2, 42682, Note_on_c, 0, 40, 51
2, 42683, Note_on_c, 0, 62, 46
2, 42683, Note_on_c, 0, 64, 55
2, 42686, Note_on_c, 0, 47, 33
2, 42715, Control_c, 0, 64, 127
2, 42722, Note_on_c, 0, 58, 0
2, 42728, Note_on_c, 0, 40, 0
2, 42732, Note_on_c, 0, 47, 0
2, 42752, Note_on_c, 0, 62, 0
2, 42782, Note_on_c, 0, 64, 0
2, 42972, Control_c, 0, 64, 0
2, 42974, Note_on_c, 0, 69, 74
2, 42974, Note_on_c, 0, 65, 73
2, 42975, Note_on_c, 0, 60, 78
2, 42976, Note_on_c, 0, 55, 77
2, 42993, Control_c, 0, 64, 127
2, 43003, Note_on_c, 0, 60, 0
2, 43008, Note_on_c, 0, 69, 0
2, 43010, Note_on_c, 0, 65, 0
2, 43053, Note_on_c, 0, 55, 0
2, 43054, Note_on_c, 0, 71, 71
2, 43055, Note_on_c, 0, 62, 74
2, 43055, Control_c, 0, 64, 0
2, 43056, Note_on_c, 0, 57, 62
2, 43056, Note_on_c, 0, 67, 62
2, 43069, Note_on_c, 0, 67, 0
2, 43070, Note_on_c, 0, 62, 0
2, 43075, Note_on_c, 0, 71, 0
2, 43076, Control_c, 0, 64, 127
2, 43123, Note_on_c, 0, 73, 67
2, 43125, Note_on_c, 0, 69, 66
2, 43126, Note_on_c, 0, 57, 0
2, 43126, Note_on_c, 0, 64, 56
2, 43126, Note_on_c, 0, 59, 56
2, 43147, Note_on_c, 0, 64, 0
2, 43154, Note_on_c, 0, 69, 0
2, 43164, Note_on_c, 0, 73, 0
2, 43179, Note_on_c, 0, 59, 0
2, 43196, Note_on_c, 0, 61, 58
2, 43197, Note_on_c, 0, 76, 73
2, 43198, Control_c, 0, 64, 0
2, 43198, Note_on_c, 0, 69, 70
2, 43200, Note_on_c, 0, 65, 53
2, 43219, Control_c, 0, 64, 127
2, 43221, Note_on_c, 0, 65, 0
2, 43224, Note_on_c, 0, 69, 0
2, 43231, Note_on_c, 0, 76, 0
2, 43238, Note_on_c, 0, 61, 0
2, 43276, Note_on_c, 0, 79, 67
2, 43277, Note_on_c, 0, 73, 67
2, 43278, Note_on_c, 0, 64, 62
2, 43279, Note_on_c, 0, 69, 60
2, 43286, Control_c, 0, 64, 0
2, 43305, Control_c, 0, 64, 127
2, 43319, Note_on_c, 0, 79, 0
2, 43333, Note_on_c, 0, 73, 0
2, 43334, Note_on_c, 0, 69, 0
2, 43336, Note_on_c, 0, 64, 0
2, 43349, Control_c, 0, 64, 0
2, 43355, Note_on_c, 0, 77, 61
2, 43356, Note_on_c, 0, 69, 50
2, 43357, Note_on_c, 0, 62, 40
2, 43358, Note_on_c, 0, 72, 59
2, 43367, Control_c, 0, 64, 127
2, 43386, Note_on_c, 0, 77, 0
2, 43389, Note_on_c, 0, 72, 0
2, 43399, Note_on_c, 0, 69, 0
2, 43403, Note_on_c, 0, 62, 0
2, 43436, Note_on_c, 0, 65, 41
2, 43437, Note_on_c, 0, 69, 66
2, 43437, Note_on_c, 0, 60, 55
2, 43440, Control_c, 0, 64, 0
2, 43467, Control_c, 0, 64, 127
2, 43501, Note_on_c, 0, 60, 0
2, 43515, Note_on_c, 0, 57, 59
2, 43523, Note_on_c, 0, 57, 0
2, 43526, Note_on_c, 0, 69, 0
2, 43531, Note_on_c, 0, 65, 0
2, 43556, Note_on_c, 0, 44, 53
2, 43558, Note_on_c, 0, 54, 35
2, 43604, Note_on_c, 0, 54, 0
2, 43610, Note_on_c, 0, 44, 0
2, 43632, Note_on_c, 0, 58, 53
2, 43633, Note_on_c, 0, 43, 48
2, 43634, Note_on_c, 0, 57, 40
2, 43639, Control_c, 0, 64, 0
2, 43640, Note_on_c, 0, 50, 34
2, 43640, Note_on_c, 0, 53, 30
2, 43654, Note_on_c, 0, 57, 0
2, 43664, Note_on_c, 0, 58, 0
2, 43666, Control_c, 0, 64, 127
2, 43672, Note_on_c, 0, 50, 0
2, 43673, Note_on_c, 0, 43, 0
2, 43678, Note_on_c, 0, 53, 0
2, 43732, Note_on_c, 0, 84, 81
2, 43734, Note_on_c, 0, 72, 68
2, 43746, Note_on_c, 0, 72, 0
2, 43751, Note_on_c, 0, 84, 0
2, 43771, Note_on_c, 0, 81, 33
2, 43779, Note_on_c, 0, 81, 0
2, 43800, Control_c, 0, 64, 0
2, 43802, Note_on_c, 0, 62, 37
2, 43804, Note_on_c, 0, 84, 80
2, 43806, Note_on_c, 0, 58, 32
2, 43807, Note_on_c, 0, 72, 64
2, 43808, Note_on_c, 0, 57, 18
2, 43827, Control_c, 0, 64, 127
2, 43867, Note_on_c, 0, 84, 0
2, 43870, Note_on_c, 0, 62, 0
2, 43877, Note_on_c, 0, 57, 0
2, 43883, Note_on_c, 0, 58, 0
2, 43887, Note_on_c, 0, 82, 65
2, 43908, Note_on_c, 0, 72, 0
2, 43920, Control_c, 0, 64, 0
2, 43921, Note_on_c, 0, 62, 26
2, 43923, Note_on_c, 0, 55, 43
2, 43923, Note_on_c, 0, 58, 25
2, 43944, Control_c, 0, 64, 127
2, 43969, Note_on_c, 0, 62, 0
2, 43984, Note_on_c, 0, 55, 0
2, 44018, Note_on_c, 0, 58, 0
2, 44040, Note_on_c, 0, 54, 36
2, 44042, Control_c, 0, 64, 0
2, 44042, Note_on_c, 0, 58, 26
2, 44048, Note_on_c, 0, 62, 16
2, 44063, Control_c, 0, 64, 127
2, 44072, Note_on_c, 0, 82, 0
2, 44097, Note_on_c, 0, 54, 0
2, 44098, Note_on_c, 0, 62, 0
2, 44105, Note_on_c, 0, 58, 0
2, 44116, Note_on_c, 0, 74, 52
2, 44142, Note_on_c, 0, 74, 0
2, 44156, Control_c, 0, 64, 0
2, 44159, Note_on_c, 0, 76, 56
2, 44160, Note_on_c, 0, 62, 45
2, 44163, Note_on_c, 0, 56, 28
2, 44163, Note_on_c, 0, 52, 34
2, 44172, Note_on_c, 0, 52, 0
2, 44176, Control_c, 0, 64, 127
2, 44182, Note_on_c, 0, 56, 0
2, 44186, Note_on_c, 0, 62, 0
2, 44228, Note_on_c, 0, 76, 0
2, 44277, Note_on_c, 0, 67, 43
2, 44278, Note_on_c, 0, 56, 48
2, 44279, Note_on_c, 0, 62, 37
2, 44308, Note_on_c, 0, 62, 0
2, 44314, Note_on_c, 0, 56, 0
2, 44324, Note_on_c, 0, 67, 0
2, 44395, Note_on_c, 0, 69, 53
2, 44401, Control_c, 0, 64, 0
2, 44405, Note_on_c, 0, 64, 19
2, 44407, Note_on_c, 0, 58, 34
2, 44428, Note_on_c, 0, 64, 0
2, 44432, Note_on_c, 0, 69, 0
2, 44433, Control_c, 0, 64, 127
2, 44443, Note_on_c, 0, 58, 0
2, 44476, Note_on_c, 0, 91, 92
2, 44477, Note_on_c, 0, 79, 90
2, 44504, Note_on_c, 0, 91, 0
2, 44507, Control_c, 0, 64, 0
2, 44508, Note_on_c, 0, 67, 32
2, 44510, Note_on_c, 0, 62, 32
2, 44511, Note_on_c, 0, 79, 0
2, 44511, Note_on_c, 0, 56, 27
2, 44528, Control_c, 0, 64, 127
2, 44557, Note_on_c, 0, 91, 72
2, 44559, Note_on_c, 0, 79, 60
2, 44572, Note_on_c, 0, 62, 0
2, 44573, Note_on_c, 0, 79, 0
2, 44574, Note_on_c, 0, 67, 0
2, 44582, Note_on_c, 0, 91, 0
2, 44594, Note_on_c, 0, 56, 0
2, 44626, Control_c, 0, 64, 0
2, 44630, Note_on_c, 0, 91, 70
2, 44632, Note_on_c, 0, 66, 55
2, 44632, Note_on_c, 0, 85, 59
2, 44632, Note_on_c, 0, 88, 46
2, 44634, Note_on_c, 0, 79, 47
2, 44636, Note_on_c, 0, 61, 36
2, 44637, Note_on_c, 0, 55, 36
2, 44645, Control_c, 0, 64, 127
2, 44646, Note_on_c, 0, 66, 0
2, 44648, Note_on_c, 0, 61, 0
2, 44649, Note_on_c, 0, 55, 0
2, 44652, Note_on_c, 0, 79, 0
2, 44653, Note_on_c, 0, 85, 0
2, 44655, Note_on_c, 0, 88, 0
2, 44656, Note_on_c, 0, 91, 0
2, 44714, Note_on_c, 0, 45, 58
2, 44748, Control_c, 0, 64, 0
2, 44757, Note_on_c, 0, 88, 68
2, 44757, Note_on_c, 0, 85, 62
2, 44758, Note_on_c, 0, 82, 62
2, 44758, Note_on_c, 0, 76, 65
2, 44760, Note_on_c, 0, 55, 56
2, 44772, Control_c, 0, 64, 127
2, 44773, Note_on_c, 0, 45, 0
2, 44775, Note_on_c, 0, 88, 0
2, 44776, Note_on_c, 0, 85, 0
2, 44779, Note_on_c, 0, 82, 0
2, 44781, Note_on_c, 0, 55, 0
2, 44783, Note_on_c, 0, 76, 0
2, 44838, Note_on_c, 0, 79, 82
2, 44839, Note_on_c, 0, 70, 86
2, 44840, Note_on_c, 0, 73, 73
2, 44840, Note_on_c, 0, 64, 80
2, 44844, Note_on_c, 0, 76, 35
2, 44849, Control_c, 0, 64, 0
2, 44870, Control_c, 0, 64, 127
2, 44888, Note_on_c, 0, 76, 0
2, 44898, Note_on_c, 0, 79, 0
2, 44906, Note_on_c, 0, 70, 0
2, 44910, Note_on_c, 0, 73, 0
2, 45001, Note_on_c, 0, 76, 58
2, 45002, Note_on_c, 0, 61, 53
2, 45003, Control_c, 0, 64, 0
2, 45003, Note_on_c, 0, 73, 55
2, 45004, Note_on_c, 0, 70, 53
2, 45004, Note_on_c, 0, 67, 46
2, 45005, Note_on_c, 0, 64, 0
2, 45024, Note_on_c, 0, 61, 0
2, 45024, Control_c, 0, 64, 127
2, 45069, Note_on_c, 0, 67, 0
2, 45104, Note_on_c, 0, 70, 0
2, 45109, Note_on_c, 0, 73, 0
2, 45120, Note_on_c, 0, 69, 57
2, 45121, Note_on_c, 0, 65, 45
2, 45126, Note_on_c, 0, 60, 32
2, 45128, Control_c, 0, 64, 0
2, 45203, Note_on_c, 0, 50, 71
2, 45233, Note_on_c, 0, 50, 0
2, 45253, Control_c, 0, 64, 127
2, 45254, Note_on_c, 0, 50, 56
2, 45271, Control_c, 0, 64, 0
2, 45272, Note_on_c, 0, 50, 0
2, 45278, Note_on_c, 0, 60, 0
2, 45300, Control_c, 0, 64, 127
2, 45306, Note_on_c, 0, 76, 0
2, 45309, Note_on_c, 0, 69, 0
2, 45316, Note_on_c, 0, 65, 0
2, 45324, Note_on_c, 0, 50, 64
2, 45342, Note_on_c, 0, 50, 0
2, 45372, Note_on_c, 0, 47, 46
2, 45378, Control_c, 0, 64, 0
2, 45409, Control_c, 0, 64, 127
2, 45444, Note_on_c, 0, 61, 55
2, 45446, Note_on_c, 0, 54, 37
2, 45447, Note_on_c, 0, 57, 40
2, 45468, Control_c, 0, 64, 0
2, 45473, Note_on_c, 0, 61, 0
2, 45477, Note_on_c, 0, 57, 0
2, 45490, Note_on_c, 0, 62, 36
2, 45498, Note_on_c, 0, 47, 0
2, 45524, Note_on_c, 0, 62, 0
2, 45548, Control_c, 0, 64, 127
2, 45560, Note_on_c, 0, 47, 41
2, 45573, Note_on_c, 0, 54, 0
2, 45575, Note_on_c, 0, 47, 0
2, 45596, Control_c, 0, 64, 0
2, 45600, Note_on_c, 0, 56, 37
2, 45602, Note_on_c, 0, 65, 49
2, 45603, Note_on_c, 0, 60, 55
2, 45604, Note_on_c, 0, 46, 46
2, 45606, Note_on_c, 0, 62, 41
2, 45625, Control_c, 0, 64, 127
2, 45632, Note_on_c, 0, 56, 0
2, 45683, Note_on_c, 0, 56, 60
2, 45688, Note_on_c, 0, 60, 0
2, 45706, Note_on_c, 0, 46, 0
2, 45715, Control_c, 0, 64, 0
2, 45725, Control_c, 0, 64, 127
2, 45752, Note_on_c, 0, 65, 0
2, 45757, Note_on_c, 0, 62, 0
2, 45791, Note_on_c, 0, 56, 0
2, 45804, Note_on_c, 0, 46, 33
2, 45823, Note_on_c, 0, 46, 0
2, 45842, Note_on_c, 0, 45, 38
2, 45842, Note_on_c, 0, 61, 42
2, 45843, Note_on_c, 0, 55, 33
2, 45843, Control_c, 0, 64, 0
2, 45844, Note_on_c, 0, 64, 43
2, 45846, Note_on_c, 0, 58, 35
2, 45855, Note_on_c, 0, 55, 0
2, 45863, Note_on_c, 0, 58, 0
2, 45866, Note_on_c, 0, 61, 0
2, 45867, Note_on_c, 0, 64, 0
2, 45920, Control_c, 0, 64, 127
2, 45923, Note_on_c, 0, 74, 91
2, 45943, Note_on_c, 0, 74, 0
2, 45949, Control_c, 0, 64, 0
2, 45961, Note_on_c, 0, 68, 48
2, 45980, Note_on_c, 0, 68, 0
2, 45981, Note_on_c, 0, 45, 0
2, 45985, Note_on_c, 0, 67, 33
2, 45996, Note_on_c, 0, 67, 0
2, 45997, Note_on_c, 0, 65, 51
2, 46020, Note_on_c, 0, 65, 0
2, 46023, Note_on_c, 0, 62, 47
2, 46030, Note_on_c, 0, 62, 0
2, 46052, Note_on_c, 0, 65, 76
2, 46071, Note_on_c, 0, 65, 0
2, 46082, Note_on_c, 0, 67, 68
2, 46101, Note_on_c, 0, 67, 0
2, 46113, Note_on_c, 0, 65, 66
2, 46144, Control_c, 0, 64, 127
2, 46150, Note_on_c, 0, 62, 68
2, 46154, Note_on_c, 0, 65, 0
2, 46163, Note_on_c, 0, 62, 0
2, 46179, Control_c, 0, 64, 0
2, 46203, Note_on_c, 0, 56, 75
2, 46203, Note_on_c, 0, 62, 62
2, 46213, Note_on_c, 0, 56, 0
2, 46218, Note_on_c, 0, 55, 45
2, 46292, Note_on_c, 0, 55, 0
2, 46296, Note_on_c, 0, 62, 0
2, 46311, Note_on_c, 0, 55, 71
2, 46311, Note_on_c, 0, 62, 41
2, 46380, Note_on_c, 0, 62, 0
2, 46391, Note_on_c, 0, 55, 0
2, 46391, Control_c, 0, 64, 127
2, 46392, Note_on_c, 0, 53, 64
2, 46420, Note_on_c, 0, 53, 0
2, 46429, Control_c, 0, 64, 0
2, 46438, Note_on_c, 0, 50, 39
2, 46501, Note_on_c, 0, 50, 0
2, 46512, Note_on_c, 0, 50, 74
2, 46523, Note_on_c, 0, 50, 0
2, 46632, Note_on_c, 0, 50, 74
2, 46633, Note_on_c, 0, 74, 76
2, 46634, Note_on_c, 0, 62, 58
2, 46638, Note_on_c, 0, 64, 44
2, 46644, Note_on_c, 0, 64, 0
2, 46657, Note_on_c, 0, 74, 0
2, 46661, Note_on_c, 0, 62, 0
2, 46664, Note_on_c, 0, 50, 0
2, 46676, Note_on_c, 0, 74, 33
2, 46677, Note_on_c, 0, 62, 44
2, 46678, Note_on_c, 0, 50, 50
2, 46742, Control_c, 0, 64, 127
2, 46754, Note_on_c, 0, 74, 0
2, 46764, Note_on_c, 0, 62, 0
2, 46792, Control_c, 0, 64, 0
2, 46801, Note_on_c, 0, 50, 0
2, 46801, Note_on_c, 0, 64, 52
2, 46802, Note_on_c, 0, 76, 46
2, 46802, Note_on_c, 0, 52, 60
2, 46829, Note_on_c, 0, 52, 0
2, 46833, Note_on_c, 0, 64, 0
2, 46834, Note_on_c, 0, 76, 0
2, 46923, Note_on_c, 0, 53, 49
2, 46925, Note_on_c, 0, 77, 60
2, 46927, Note_on_c, 0, 65, 43
2, 46937, Note_on_c, 0, 53, 0
2, 46944, Note_on_c, 0, 65, 0
2, 46962, Note_on_c, 0, 77, 0
2, 46992, Control_c, 0, 64, 127
2, 47040, Control_c, 0, 64, 0
2, 47041, Note_on_c, 0, 81, 54
2, 47041, Note_on_c, 0, 57, 33
2, 47042, Note_on_c, 0, 74, 49
2, 47043, Note_on_c, 0, 62, 39
2, 47043, Note_on_c, 0, 69, 43
2, 47043, Note_on_c, 0, 52, 43
2, 47043, Note_on_c, 0, 77, 50
2, 47046, Note_on_c, 0, 58, 33
2, 47053, Control_c, 0, 64, 127
2, 47055, Note_on_c, 0, 62, 0
2, 47057, Note_on_c, 0, 57, 0
2, 47060, Note_on_c, 0, 58, 0
2, 47065, Note_on_c, 0, 52, 0
2, 47236, Note_on_c, 0, 45, 83
2, 47237, Note_on_c, 0, 52, 88
2, 47246, Control_c, 0, 64, 0
2, 47256, Control_c, 0, 64, 127
2, 47349, Note_on_c, 0, 45, 0
2, 47351, Note_on_c, 0, 69, 0
2, 47354, Note_on_c, 0, 81, 0
2, 47358, Note_on_c, 0, 77, 0
2, 47358, Note_on_c, 0, 52, 0
2, 47363, Note_on_c, 0, 74, 0
2, 47396, Note_on_c, 0, 79, 60
2, 47397, Note_on_c, 0, 67, 51
2, 47398, Note_on_c, 0, 74, 64
2, 47423, Note_on_c, 0, 74, 0
2, 47427, Note_on_c, 0, 67, 0
2, 47427, Note_on_c, 0, 79, 0
2, 47471, Note_on_c, 0, 69, 69
2, 47471, Note_on_c, 0, 77, 68
2, 47472, Note_on_c, 0, 72, 66
2, 47472, Note_on_c, 0, 61, 72
2, 47472, Note_on_c, 0, 66, 74
2, 47473, Note_on_c, 0, 55, 78
2, 47474, Note_on_c, 0, 65, 63
2, 47474, Note_on_c, 0, 67, 62
2, 47485, Control_c, 0, 64, 0
2, 47510, Note_on_c, 0, 67, 0
2, 47517, Control_c, 0, 64, 127
2, 47533, Note_on_c, 0, 66, 0
2, 47537, Note_on_c, 0, 55, 0
2, 47540, Note_on_c, 0, 61, 0
2, 47642, Note_on_c, 0, 45, 58
2, 47645, Note_on_c, 0, 52, 55
2, 47690, Note_on_c, 0, 45, 0
2, 47692, Note_on_c, 0, 52, 0
2, 47715, Note_on_c, 0, 52, 90
2, 47716, Note_on_c, 0, 45, 89
2, 47722, Control_c, 0, 64, 0
2, 47738, Control_c, 0, 64, 127
2, 47753, Note_on_c, 0, 45, 0
2, 47760, Note_on_c, 0, 52, 0
2, 47778, Note_on_c, 0, 77, 0
2, 47797, Note_on_c, 0, 65, 0
2, 47811, Note_on_c, 0, 69, 0
2, 47816, Note_on_c, 0, 72, 0
2, 47838, Note_on_c, 0, 55, 74
2, 47838, Note_on_c, 0, 61, 73
2, 47841, Note_on_c, 0, 76, 74
2, 47842, Note_on_c, 0, 69, 77
2, 47842, Note_on_c, 0, 64, 70
2, 47843, Note_on_c, 0, 72, 69
2, 47855, Control_c, 0, 64, 0
2, 47871, Note_on_c, 0, 76, 0
2, 47873, Note_on_c, 0, 64, 0
2, 47875, Note_on_c, 0, 72, 0
2, 47878, Control_c, 0, 64, 127
2, 47884, Note_on_c, 0, 69, 0
2, 47890, Note_on_c, 0, 74, 38
2, 47893, Note_on_c, 0, 62, 55
2, 47896, Note_on_c, 0, 69, 18
2, 47909, Note_on_c, 0, 62, 0
2, 47909, Note_on_c, 0, 74, 0
2, 47913, Note_on_c, 0, 55, 0
2, 47919, Note_on_c, 0, 61, 0
2, 47920, Note_on_c, 0, 69, 0
2, 47965, Note_on_c, 0, 55, 50
2, 47965, Note_on_c, 0, 76, 60
2, 47967, Note_on_c, 0, 64, 57
2, 47968, Note_on_c, 0, 69, 48
2, 47971, Note_on_c, 0, 55, 0
2, 47978, Note_on_c, 0, 76, 0
2, 47979, Note_on_c, 0, 64, 0
2, 47985, Note_on_c, 0, 69, 0
2, 48006, Note_on_c, 0, 69, 56
2, 48008, Note_on_c, 0, 77, 51
2, 48008, Note_on_c, 0, 65, 53
2, 48008, Note_on_c, 0, 72, 54
2, 48010, Note_on_c, 0, 76, 38
2, 48011, Control_c, 0, 64, 0
2, 48046, Control_c, 0, 64, 127
2, 48082, Note_on_c, 0, 45, 58
2, 48084, Note_on_c, 0, 52, 60
2, 48114, Note_on_c, 0, 45, 0
2, 48115, Control_c, 0, 64, 0
2, 48120, Note_on_c, 0, 52, 0
2, 48128, Control_c, 0, 64, 127
2, 48129, Note_on_c, 0, 45, 56
2, 48133, Note_on_c, 0, 52, 61
2, 48144, Note_on_c, 0, 45, 0
2, 48148, Note_on_c, 0, 52, 0
2, 48149, Note_on_c, 0, 76, 0
2, 48155, Note_on_c, 0, 77, 0
2, 48167, Note_on_c, 0, 65, 0
2, 48173, Note_on_c, 0, 69, 0
2, 48173, Note_on_c, 0, 72, 0
2, 48203, Note_on_c, 0, 65, 55
2, 48203, Note_on_c, 0, 69, 64
2, 48203, Note_on_c, 0, 50, 51
2, 48204, Note_on_c, 0, 60, 49
2, 48210, Note_on_c, 0, 57, 22
2, 48211, Control_c, 0, 64, 0
2, 48222, Note_on_c, 0, 57, 0
2, 48237, Control_c, 0, 64, 127
2, 48269, Note_on_c, 0, 65, 0
2, 48283, Note_on_c, 0, 69, 0
2, 48283, Note_on_c, 0, 57, 54
2, 48376, Note_on_c, 0, 57, 0
2, 48379, Note_on_c, 0, 50, 0
2, 48389, Note_on_c, 0, 60, 0
2, 48435, Note_on_c, 0, 65, 60
2, 48435, Note_on_c, 0, 54, 60
2, 48436, Note_on_c, 0, 60, 62
2, 48446, Control_c, 0, 64, 0
2, 48468, Control_c, 0, 64, 127
2, 48522, Note_on_c, 0, 89, 92
2, 48542, Note_on_c, 0, 65, 0
2, 48544, Note_on_c, 0, 60, 0
2, 48557, Note_on_c, 0, 54, 0
2, 48603, Control_c, 0, 64, 0
2, 48606, Note_on_c, 0, 60, 64
2, 48607, Note_on_c, 0, 50, 55
2, 48608, Note_on_c, 0, 54, 34
2, 48611, Note_on_c, 0, 60, 0
2, 48616, Note_on_c, 0, 50, 0
2, 48617, Control_c, 0, 64, 127
2, 48626, Note_on_c, 0, 54, 0
2, 48686, Note_on_c, 0, 60, 64
2, 48686, Note_on_c, 0, 54, 69
2, 48686, Note_on_c, 0, 65, 70
2, 48699, Control_c, 0, 64, 0
2, 48722, Note_on_c, 0, 89, 0
2, 48729, Note_on_c, 0, 78, 50
2, 48748, Note_on_c, 0, 78, 0
2, 48765, Note_on_c, 0, 77, 53
2, 48784, Note_on_c, 0, 77, 0
2, 48788, Note_on_c, 0, 65, 0
2, 48805, Control_c, 0, 64, 127
2, 48843, Control_c, 0, 64, 0
2, 48851, Note_on_c, 0, 75, 72
2, 48871, Note_on_c, 0, 60, 0
2, 48872, Note_on_c, 0, 75, 0
2, 48883, Note_on_c, 0, 54, 0
2, 48883, Note_on_c, 0, 74, 62
2, 48898, Note_on_c, 0, 74, 0
2, 48911, Note_on_c, 0, 73, 53
2, 48928, Control_c, 0, 64, 127
2, 48931, Note_on_c, 0, 73, 0
2, 48957, Control_c, 0, 64, 0
2, 48972, Note_on_c, 0, 72, 57
2, 48973, Note_on_c, 0, 43, 58
2, 48980, Note_on_c, 0, 43, 0
2, 48988, Control_c, 0, 64, 127
2, 49026, Note_on_c, 0, 72, 0
2, 49093, Note_on_c, 0, 65, 33
2, 49093, Note_on_c, 0, 62, 29
2, 49140, Note_on_c, 0, 62, 0
2, 49141, Note_on_c, 0, 65, 0
2, 49152, Note_on_c, 0, 58, 19
2, 49158, Note_on_c, 0, 58, 0
2, 49158, Note_on_c, 0, 59, 71
2, 49164, Note_on_c, 0, 65, 67
2, 49164, Note_on_c, 0, 72, 67
2, 49164, Note_on_c, 0, 62, 66
2, 49165, Note_on_c, 0, 69, 63
2, 49166, Note_on_c, 0, 60, 64
2, 49175, Note_on_c, 0, 59, 0
2, 49180, Control_c, 0, 64, 0
2, 49238, Control_c, 0, 64, 127
2, 49280, Note_on_c, 0, 62, 0
2, 49284, Note_on_c, 0, 65, 0
2, 49288, Note_on_c, 0, 69, 0
2, 49296, Note_on_c, 0, 72, 0
2, 49306, Note_on_c, 0, 60, 0
2, 49307, Note_on_c, 0, 70, 79
2, 49307, Note_on_c, 0, 58, 60
2, 49307, Note_on_c, 0, 62, 69
2, 49307, Note_on_c, 0, 65, 57
2, 49323, Control_c, 0, 64, 0
2, 49357, Note_on_c, 0, 62, 0
2, 49364, Note_on_c, 0, 65, 0
2, 49369, Note_on_c, 0, 70, 0
2, 49383, Note_on_c, 0, 58, 0
2, 49386, Note_on_c, 0, 69, 17
2, 49394, Note_on_c, 0, 69, 0
2, 49397, Control_c, 0, 64, 127
2, 49412, Note_on_c, 0, 62, 54
2, 49412, Note_on_c, 0, 70, 36
2, 49413, Note_on_c, 0, 58, 56
2, 49417, Note_on_c, 0, 70, 0
2, 49425, Note_on_c, 0, 62, 0
2, 49437, Note_on_c, 0, 58, 0
2, 49448, Note_on_c, 0, 58, 59
2, 49451, Note_on_c, 0, 69, 54
2, 49451, Note_on_c, 0, 61, 47
2, 49452, Note_on_c, 0, 57, 45
2, 49453, Control_c, 0, 64, 0
2, 49457, Note_on_c, 0, 64, 20
2, 49480, Control_c, 0, 64, 127
2, 49505, Note_on_c, 0, 69, 0
2, 49512, Note_on_c, 0, 58, 0
2, 49514, Note_on_c, 0, 48, 68
2, 49520, Note_on_c, 0, 48, 0
2, 49521, Note_on_c, 0, 64, 0
2, 49522, Note_on_c, 0, 61, 0
2, 49528, Note_on_c, 0, 57, 0
2, 49607, Note_on_c, 0, 81, 79
2, 49609, Note_on_c, 0, 70, 72
2, 49610, Note_on_c, 0, 73, 69
2, 49610, Note_on_c, 0, 76, 69
2, 49613, Note_on_c, 0, 69, 70
2, 49621, Note_on_c, 0, 70, 0
2, 49624, Note_on_c, 0, 81, 0
2, 49625, Note_on_c, 0, 73, 0
2, 49630, Note_on_c, 0, 76, 0
2, 49634, Note_on_c, 0, 69, 0
2, 49644, Note_on_c, 0, 68, 45
2, 49664, Note_on_c, 0, 68, 0
2, 49668, Control_c, 0, 64, 0
2, 49674, Note_on_c, 0, 79, 68
2, 49675, Note_on_c, 0, 70, 65
2, 49676, Note_on_c, 0, 73, 63
2, 49676, Note_on_c, 0, 67, 47
2, 49679, Note_on_c, 0, 76, 39
2, 49694, Control_c, 0, 64, 127
2, 49711, Note_on_c, 0, 76, 0
2, 49714, Note_on_c, 0, 79, 0
2, 49721, Note_on_c, 0, 70, 0
2, 49724, Note_on_c, 0, 73, 0
2, 49724, Note_on_c, 0, 67, 0
2, 49752, Note_on_c, 0, 77, 66
2, 49752, Note_on_c, 0, 70, 63
2, 49753, Note_on_c, 0, 67, 52
2, 49754, Note_on_c, 0, 74, 55
2, 49755, Note_on_c, 0, 65, 61
2, 49766, Control_c, 0, 64, 0
2, 49789, Control_c, 0, 64, 127
2, 49809, Note_on_c, 0, 74, 0
2, 49814, Note_on_c, 0, 67, 0
2, 49821, Note_on_c, 0, 77, 0
2, 49825, Note_on_c, 0, 70, 0
2, 49837, Note_on_c, 0, 65, 0
2, 49838, Note_on_c, 0, 76, 42
2, 49839, Note_on_c, 0, 64, 48
2, 49856, Note_on_c, 0, 76, 0
2, 49863, Note_on_c, 0, 64, 0
2, 49869, Note_on_c, 0, 77, 57
2, 49870, Note_on_c, 0, 70, 33
2, 49873, Note_on_c, 0, 65, 47
2, 49874, Note_on_c, 0, 67, 22
2, 49878, Note_on_c, 0, 70, 0
2, 49880, Note_on_c, 0, 67, 0
2, 49880, Note_on_c, 0, 65, 0
2, 49886, Note_on_c, 0, 77, 0
2, 49909, Control_c, 0, 64, 0
2, 49910, Note_on_c, 0, 81, 71
2, 49912, Note_on_c, 0, 76, 37
2, 49912, Note_on_c, 0, 74, 47
2, 49913, Note_on_c, 0, 64, 43
2, 49916, Note_on_c, 0, 69, 20
2, 49936, Control_c, 0, 64, 127
2, 49963, Note_on_c, 0, 81, 0
2, 49968, Note_on_c, 0, 64, 0
2, 49971, Note_on_c, 0, 69, 0
2, 49977, Note_on_c, 0, 74, 0
2, 49979, Note_on_c, 0, 76, 0
2, 50101, Note_on_c, 0, 63, 53
2, 50104, Note_on_c, 0, 69, 49
2, 50106, Note_on_c, 0, 72, 44
2, 50106, Note_on_c, 0, 53, 39
2, 50108, Note_on_c, 0, 58, 33
2, 50112, Note_on_c, 0, 53, 0
2, 50128, Note_on_c, 0, 58, 0
2, 50129, Note_on_c, 0, 63, 0
2, 50134, Note_on_c, 0, 69, 0
2, 50139, Note_on_c, 0, 72, 0
2, 50149, Note_on_c, 0, 70, 64
2, 50150, Control_c, 0, 64, 0
2, 50150, Note_on_c, 0, 74, 60
2, 50150, Note_on_c, 0, 65, 55
2, 50151, Note_on_c, 0, 55, 60
2, 50154, Note_on_c, 0, 60, 42
2, 50180, Control_c, 0, 64, 127
2, 50181, Note_on_c, 0, 55, 0
2, 50189, Note_on_c, 0, 65, 0
2, 50190, Note_on_c, 0, 60, 0
2, 50202, Note_on_c, 0, 74, 0
2, 50207, Note_on_c, 0, 70, 0
2, 50229, Note_on_c, 0, 69, 50
2, 50230, Note_on_c, 0, 53, 56
2, 50231, Note_on_c, 0, 63, 42
2, 50231, Note_on_c, 0, 72, 47
2, 50236, Note_on_c, 0, 63, 0
2, 50236, Control_c, 0, 64, 0
2, 50237, Note_on_c, 0, 53, 0
2, 50238, Note_on_c, 0, 69, 0
2, 50238, Note_on_c, 0, 72, 0
2, 50297, Control_c, 0, 64, 127
2, 50319, Note_on_c, 0, 69, 49
2, 50320, Note_on_c, 0, 65, 46
2, 50324, Note_on_c, 0, 48, 47
2, 50325, Note_on_c, 0, 69, 0
2, 50328, Note_on_c, 0, 65, 0
2, 50344, Note_on_c, 0, 48, 0
2, 50355, Note_on_c, 0, 41, 51
2, 50361, Note_on_c, 0, 41, 0
2, 50387, Control_c, 0, 64, 0
2, 50394, Note_on_c, 0, 67, 44
2, 50394, Note_on_c, 0, 58, 40
2, 50396, Note_on_c, 0, 57, 35
2, 50398, Note_on_c, 0, 62, 41
2, 50399, Note_on_c, 0, 64, 40
2, 50414, Control_c, 0, 64, 127
2, 50447, Note_on_c, 0, 62, 0
2, 50448, Note_on_c, 0, 58, 0
2, 50453, Note_on_c, 0, 64, 0
2, 50457, Note_on_c, 0, 67, 0
2, 50470, Note_on_c, 0, 57, 0
2, 50470, Note_on_c, 0, 58, 57
2, 50471, Note_on_c, 0, 69, 44
2, 50472, Note_on_c, 0, 55, 51
2, 50472, Note_on_c, 0, 64, 60
2, 50473, Note_on_c, 0, 62, 44
2, 50477, Note_on_c, 0, 55, 0
2, 50489, Control_c, 0, 64, 0
2, 50494, Note_on_c, 0, 58, 0
2, 50497, Note_on_c, 0, 69, 0
2, 50502, Note_on_c, 0, 62, 0
2, 50508, Note_on_c, 0, 64, 0
2, 50512, Control_c, 0, 64, 127
2, 50514, Note_on_c, 0, 46, 44
2, 50542, Note_on_c, 0, 46, 0
2, 50589, Note_on_c, 0, 45, 64
2, 50594, Note_on_c, 0, 45, 0
2, 50595, Control_c, 0, 64, 0
2, 50612, Control_c, 0, 64, 127
2, 50634, Note_on_c, 0, 83, 78
2, 50634, Note_on_c, 0, 55, 45
2, 50636, Note_on_c, 0, 71, 71
2, 50637, Note_on_c, 0, 61, 46
2, 50638, Note_on_c, 0, 57, 31
2, 50639, Note_on_c, 0, 65, 41
2, 50648, Note_on_c, 0, 57, 0
2, 50676, Note_on_c, 0, 71, 0
2, 50679, Note_on_c, 0, 83, 0
2, 50688, Note_on_c, 0, 65, 0
2, 50694, Note_on_c, 0, 61, 0
2, 50696, Note_on_c, 0, 55, 0
2, 50710, Note_on_c, 0, 85, 62
2, 50711, Note_on_c, 0, 55, 66
2, 50711, Note_on_c, 0, 61, 44
2, 50712, Note_on_c, 0, 73, 33
2, 50713, Note_on_c, 0, 64, 44
2, 50716, Note_on_c, 0, 75, 28
2, 50717, Note_on_c, 0, 86, 36
2, 50722, Note_on_c, 0, 75, 0
2, 50722, Note_on_c, 0, 64, 0
2, 50723, Note_on_c, 0, 86, 0
2, 50724, Note_on_c, 0, 55, 0
2, 50727, Note_on_c, 0, 73, 0
2, 50729, Note_on_c, 0, 85, 0
2, 50732, Note_on_c, 0, 61, 0
2, 50737, Control_c, 0, 64, 0
2, 50753, Note_on_c, 0, 51, 57
2, 50754, Note_on_c, 0, 61, 32
2, 50759, Note_on_c, 0, 86, 34
2, 50760, Note_on_c, 0, 74, 26
2, 50765, Note_on_c, 0, 74, 0
2, 50767, Note_on_c, 0, 86, 0
2, 50767, Control_c, 0, 64, 127
2, 50831, Note_on_c, 0, 57, 51
2, 50835, Note_on_c, 0, 89, 78
2, 50835, Note_on_c, 0, 77, 77
2, 50835, Note_on_c, 0, 91, 73
2, 50836, Note_on_c, 0, 79, 72
2, 50842, Note_on_c, 0, 79, 0
2, 50843, Note_on_c, 0, 61, 0
2, 50847, Note_on_c, 0, 91, 0
2, 50857, Note_on_c, 0, 89, 0
2, 50857, Note_on_c, 0, 51, 0
2, 50864, Note_on_c, 0, 77, 0
2, 50873, Note_on_c, 0, 50, 29
2, 50875, Control_c, 0, 64, 0
2, 50879, Note_on_c, 0, 53, 42
2, 50880, Note_on_c, 0, 60, 31
2, 50884, Note_on_c, 0, 89, 44
2, 50885, Note_on_c, 0, 60, 0
2, 50890, Note_on_c, 0, 77, 17
2, 50897, Note_on_c, 0, 89, 0
2, 50899, Note_on_c, 0, 77, 0
2, 50909, Control_c, 0, 64, 127
2, 50926, Note_on_c, 0, 53, 0
2, 50929, Note_on_c, 0, 50, 0
2, 50931, Note_on_c, 0, 57, 0
2, 50998, Note_on_c, 0, 88, 71
2, 51001, Note_on_c, 0, 76, 58
2, 51002, Control_c, 0, 64, 0
2, 51002, Note_on_c, 0, 81, 52
2, 51002, Note_on_c, 0, 84, 48
2, 51004, Note_on_c, 0, 64, 42
2, 51024, Control_c, 0, 64, 127
2, 51044, Note_on_c, 0, 64, 0
2, 51056, Note_on_c, 0, 88, 0
2, 51060, Note_on_c, 0, 76, 0
2, 51063, Note_on_c, 0, 84, 0
2, 51080, Note_on_c, 0, 81, 0
2, 51117, Note_on_c, 0, 86, 46
2, 51119, Note_on_c, 0, 60, 36
2, 51119, Control_c, 0, 64, 0
2, 51120, Note_on_c, 0, 74, 36
2, 51120, Note_on_c, 0, 57, 25
2, 51120, Note_on_c, 0, 81, 40
2, 51122, Note_on_c, 0, 50, 28
2, 51140, Note_on_c, 0, 86, 0
2, 51140, Control_c, 0, 64, 127
2, 51144, Note_on_c, 0, 81, 0
2, 51155, Note_on_c, 0, 57, 0
2, 51158, Note_on_c, 0, 60, 0
2, 51159, Note_on_c, 0, 74, 0
2, 51168, Note_on_c, 0, 50, 0
2, 51206, Note_on_c, 0, 50, 37
2, 51235, Note_on_c, 0, 44, 46
2, 51236, Note_on_c, 0, 54, 36
2, 51238, Control_c, 0, 64, 0
2, 51238, Note_on_c, 0, 69, 54
2, 51238, Note_on_c, 0, 62, 42
2, 51244, Note_on_c, 0, 65, 28
2, 51247, Note_on_c, 0, 50, 0
2, 51265, Control_c, 0, 64, 127
2, 51274, Note_on_c, 0, 65, 0
2, 51278, Note_on_c, 0, 69, 0
2, 51288, Note_on_c, 0, 62, 0
2, 51318, Note_on_c, 0, 54, 0
2, 51326, Note_on_c, 0, 50, 36
2, 51327, Note_on_c, 0, 44, 0
2, 51346, Note_on_c, 0, 50, 0
2, 51353, Control_c, 0, 64, 0
2, 51361, Note_on_c, 0, 43, 39
2, 51363, Note_on_c, 0, 62, 48
2, 51365, Note_on_c, 0, 58, 36
2, 51366, Note_on_c, 0, 53, 26
2, 51369, Control_c, 0, 64, 127
2, 51379, Note_on_c, 0, 43, 0
2, 51383, Note_on_c, 0, 62, 0
2, 51383, Note_on_c, 0, 58, 0
2, 51388, Note_on_c, 0, 53, 0
2, 51441, Note_on_c, 0, 72, 85
2, 51442, Note_on_c, 0, 65, 88
2, 51476, Note_on_c, 0, 65, 0
2, 51479, Note_on_c, 0, 72, 0
2, 51480, Control_c, 0, 64, 0
2, 51484, Note_on_c, 0, 62, 57
2, 51485, Note_on_c, 0, 58, 33
2, 51487, Note_on_c, 0, 69, 46
2, 51487, Note_on_c, 0, 65, 24
2, 51507, Note_on_c, 0, 58, 0
2, 51507, Control_c, 0, 64, 127
2, 51512, Note_on_c, 0, 69, 0
2, 51516, Note_on_c, 0, 65, 0
2, 51527, Note_on_c, 0, 62, 0
2, 51559, Note_on_c, 0, 70, 72
2, 51560, Note_on_c, 0, 62, 69
2, 51560, Note_on_c, 0, 58, 65
2, 51563, Note_on_c, 0, 65, 55
2, 51585, Control_c, 0, 64, 0
2, 51649, Note_on_c, 0, 57, 69
2, 51664, Note_on_c, 0, 57, 0
2, 51688, Note_on_c, 0, 56, 63
2, 51719, Note_on_c, 0, 56, 0
2, 51733, Note_on_c, 0, 55, 47
2, 51780, Control_c, 0, 64, 127
2, 51796, Note_on_c, 0, 55, 0
2, 51799, Control_c, 0, 64, 0
2, 51799, Note_on_c, 0, 54, 64
2, 51816, Note_on_c, 0, 54, 0
2, 51829, Note_on_c, 0, 53, 63
2, 51836, Control_c, 0, 64, 127
2, 51844, Note_on_c, 0, 53, 0
2, 51850, Control_c, 0, 64, 0
2, 51863, Note_on_c, 0, 52, 62
2, 51882, Control_c, 0, 64, 127
2, 51901, Note_on_c, 0, 65, 0
2, 51905, Note_on_c, 0, 58, 0
2, 51912, Note_on_c, 0, 62, 0
2, 51928, Note_on_c, 0, 70, 0
2, 51960, Note_on_c, 0, 52, 0
2, 52006, Note_on_c, 0, 67, 67
2, 52025, Note_on_c, 0, 67, 0
2, 52035, Note_on_c, 0, 72, 76
2, 52049, Note_on_c, 0, 72, 0
2, 52067, Note_on_c, 0, 79, 90
2, 52097, Note_on_c, 0, 56, 42
2, 52100, Note_on_c, 0, 76, 71
2, 52103, Note_on_c, 0, 62, 14
2, 52104, Note_on_c, 0, 67, 43
2, 52106, Note_on_c, 0, 69, 37
2, 52108, Note_on_c, 0, 79, 0
2, 52112, Note_on_c, 0, 69, 0
2, 52131, Note_on_c, 0, 62, 0
2, 52143, Note_on_c, 0, 56, 0
2, 52171, Note_on_c, 0, 67, 0
2, 52191, Note_on_c, 0, 76, 0
2, 52200, Note_on_c, 0, 67, 53
2, 52201, Note_on_c, 0, 56, 33
2, 52201, Note_on_c, 0, 46, 37
2, 52223, Note_on_c, 0, 67, 0
2, 52257, Note_on_c, 0, 56, 0
2, 52267, Note_on_c, 0, 46, 0
2, 52274, Note_on_c, 0, 61, 56
2, 52279, Note_on_c, 0, 64, 57
2, 52282, Note_on_c, 0, 55, 51
2, 52285, Note_on_c, 0, 45, 46
2, 52287, Control_c, 0, 64, 0
2, 52301, Control_c, 0, 64, 127
2, 52318, Note_on_c, 0, 61, 0
2, 52327, Note_on_c, 0, 45, 0
2, 52328, Note_on_c, 0, 64, 0
2, 52336, Note_on_c, 0, 55, 0
2, 52442, Note_on_c, 0, 70, 87
2, 52442, Note_on_c, 0, 73, 77
2, 52442, Note_on_c, 0, 76, 84
2, 52443, Note_on_c, 0, 67, 84
2, 52443, Note_on_c, 0, 64, 89
2, 52450, Control_c, 0, 64, 0
2, 52484, Control_c, 0, 64, 127
2, 52516, Note_on_c, 0, 63, 74
2, 52520, Note_on_c, 0, 64, 0
2, 52520, Note_on_c, 0, 76, 0
2, 52530, Note_on_c, 0, 73, 0
2, 52532, Note_on_c, 0, 70, 0
2, 52536, Note_on_c, 0, 67, 0
2, 52562, Note_on_c, 0, 63, 0
2, 52563, Note_on_c, 0, 67, 71
2, 52564, Note_on_c, 0, 73, 67
2, 52564, Note_on_c, 0, 77, 67
2, 52564, Note_on_c, 0, 70, 68
2, 52565, Control_c, 0, 64, 0
2, 52566, Note_on_c, 0, 62, 64
2, 52597, Control_c, 0, 64, 127
2, 52620, Note_on_c, 0, 70, 0
2, 52622, Note_on_c, 0, 67, 0
2, 52623, Note_on_c, 0, 73, 0
2, 52630, Note_on_c, 0, 77, 0
2, 52673, Control_c, 0, 64, 0
2, 52675, Note_on_c, 0, 79, 63
2, 52676, Note_on_c, 0, 76, 58
2, 52676, Note_on_c, 0, 73, 59
2, 52677, Note_on_c, 0, 61, 62
2, 52677, Note_on_c, 0, 67, 56
2, 52683, Note_on_c, 0, 62, 0
2, 52697, Control_c, 0, 64, 127
2, 52736, Note_on_c, 0, 67, 0
2, 52745, Note_on_c, 0, 79, 0
2, 52751, Note_on_c, 0, 76, 0
2, 52754, Note_on_c, 0, 73, 0
2, 52791, Note_on_c, 0, 61, 0
2, 52793, Note_on_c, 0, 81, 62
2, 52794, Note_on_c, 0, 62, 64
2, 52795, Note_on_c, 0, 69, 51
2, 52796, Note_on_c, 0, 77, 49
2, 52797, Control_c, 0, 64, 0
2, 52826, Control_c, 0, 64, 127
2, 52833, Note_on_c, 0, 81, 0
2, 52835, Note_on_c, 0, 62, 0
2, 52835, Note_on_c, 0, 77, 0
2, 52836, Note_on_c, 0, 50, 46
2, 52843, Note_on_c, 0, 69, 0
2, 52876, Note_on_c, 0, 61, 63
2, 52911, Note_on_c, 0, 61, 0
2, 52917, Note_on_c, 0, 76, 51
2, 52919, Note_on_c, 0, 65, 44
2, 52919, Note_on_c, 0, 69, 58
2, 52921, Note_on_c, 0, 60, 57
2, 52928, Control_c, 0, 64, 0
2, 52952, Control_c, 0, 64, 127
2, 52965, Note_on_c, 0, 76, 0
2, 52972, Note_on_c, 0, 69, 0
2, 52979, Note_on_c, 0, 65, 0
2, 52995, Note_on_c, 0, 60, 0
2, 53031, Control_c, 0, 64, 0
2, 53036, Note_on_c, 0, 60, 51
2, 53037, Note_on_c, 0, 69, 52
2, 53038, Note_on_c, 0, 65, 50
2, 53039, Note_on_c, 0, 57, 37
2, 53076, Control_c, 0, 64, 127
2, 53087, Note_on_c, 0, 50, 0
2, 53114, Note_on_c, 0, 50, 80
2, 53128, Control_c, 0, 64, 0
2, 53132, Control_c, 0, 64, 127
2, 53136, Note_on_c, 0, 60, 0
2, 53150, Note_on_c, 0, 65, 0
2, 53162, Note_on_c, 0, 69, 0
2, 53194, Note_on_c, 0, 50, 0
2, 53197, Note_on_c, 0, 57, 0
2, 53276, Note_on_c, 0, 73, 68
2, 53276, Note_on_c, 0, 43, 70
2, 53277, Note_on_c, 0, 71, 74
2, 53278, Note_on_c, 0, 65, 48
2, 53280, Control_c, 0, 64, 0
2, 53295, Note_on_c, 0, 43, 0
2, 53305, Control_c, 0, 64, 127
2, 53357, Note_on_c, 0, 53, 53
2, 53359, Note_on_c, 0, 59, 38
2, 53382, Note_on_c, 0, 65, 0
2, 53400, Note_on_c, 0, 71, 0
2, 53415, Note_on_c, 0, 73, 0
2, 53450, Note_on_c, 0, 65, 54
2, 53458, Note_on_c, 0, 65, 0
2, 53479, Note_on_c, 0, 71, 67
2, 53503, Note_on_c, 0, 71, 0
2, 53509, Note_on_c, 0, 73, 34
2, 53515, Note_on_c, 0, 73, 0
2, 53541, Note_on_c, 0, 88, 88
2, 53580, Note_on_c, 0, 85, 64
2, 53586, Note_on_c, 0, 87, 30
2, 53592, Note_on_c, 0, 87, 0
2, 53597, Note_on_c, 0, 88, 0
2, 53604, Note_on_c, 0, 85, 0
2, 53634, Note_on_c, 0, 63, 43
2, 53635, Note_on_c, 0, 81, 71
2, 53660, Note_on_c, 0, 81, 0
2, 53677, Note_on_c, 0, 53, 0
2, 53678, Note_on_c, 0, 79, 17
2, 53682, Note_on_c, 0, 63, 0
2, 53685, Note_on_c, 0, 59, 0
2, 53696, Note_on_c, 0, 79, 0
2, 53748, Note_on_c, 0, 76, 49
2, 53749, Note_on_c, 0, 52, 55
2, 53751, Note_on_c, 0, 62, 34
2, 53752, Control_c, 0, 64, 0
2, 53769, Note_on_c, 0, 52, 0
2, 53774, Control_c, 0, 64, 127
2, 53788, Note_on_c, 0, 62, 0
2, 53826, Note_on_c, 0, 67, 46
2, 53826, Note_on_c, 0, 56, 43
2, 53827, Note_on_c, 0, 62, 38
2, 53843, Note_on_c, 0, 76, 0
2, 53877, Note_on_c, 0, 67, 0
2, 53885, Note_on_c, 0, 62, 0
2, 53895, Note_on_c, 0, 56, 0
2, 53995, Note_on_c, 0, 62, 48
2, 53997, Note_on_c, 0, 67, 51
2, 53998, Note_on_c, 0, 72, 48
2, 54001, Note_on_c, 0, 62, 0
2, 54003, Control_c, 0, 64, 0
2, 54005, Note_on_c, 0, 72, 0
2, 54006, Note_on_c, 0, 67, 0
2, 54043, Control_c, 0, 64, 127
2, 54074, Note_on_c, 0, 64, 64
2, 54075, Note_on_c, 0, 62, 58
2, 54095, Note_on_c, 0, 62, 0
2, 54099, Note_on_c, 0, 64, 0
2, 54108, Control_c, 0, 64, 0
2, 54113, Note_on_c, 0, 56, 32
2, 54113, Note_on_c, 0, 46, 35
2, 54169, Note_on_c, 0, 56, 0
2, 54186, Control_c, 0, 64, 127
2, 54191, Note_on_c, 0, 52, 48
2, 54202, Note_on_c, 0, 46, 0
2, 54211, Note_on_c, 0, 52, 0
2, 54229, Note_on_c, 0, 61, 57
2, 54232, Note_on_c, 0, 45, 39
2, 54234, Control_c, 0, 64, 0
2, 54240, Note_on_c, 0, 45, 0
2, 54249, Note_on_c, 0, 61, 0
2, 54305, Note_on_c, 0, 45, 47
2, 54306, Control_c, 0, 64, 127
2, 54307, Note_on_c, 0, 61, 52
2, 54311, Note_on_c, 0, 55, 49
2, 54328, Note_on_c, 0, 55, 0
2, 54335, Note_on_c, 0, 61, 0
2, 54341, Note_on_c, 0, 45, 0
2, 54350, Note_on_c, 0, 47, 48
2, 54351, Note_on_c, 0, 55, 44
2, 54351, Note_on_c, 0, 62, 49
2, 54356, Control_c, 0, 64, 0
2, 54404, Control_c, 0, 64, 127
2, 54428, Note_on_c, 0, 55, 0
2, 54437, Note_on_c, 0, 62, 0
2, 54474, Note_on_c, 0, 47, 0
2, 54477, Note_on_c, 0, 63, 57
2, 54478, Control_c, 0, 64, 0
2, 54479, Note_on_c, 0, 55, 53
2, 54481, Note_on_c, 0, 48, 39
2, 54510, Control_c, 0, 64, 127
2, 54563, Note_on_c, 0, 55, 0
2, 54586, Note_on_c, 0, 63, 0
2, 54590, Note_on_c, 0, 48, 0
2, 54597, Note_on_c, 0, 55, 54
2, 54598, Note_on_c, 0, 64, 59
2, 54598, Note_on_c, 0, 49, 37
2, 54599, Control_c, 0, 64, 0
2, 54624, Control_c, 0, 64, 127
2, 54642, Note_on_c, 0, 49, 0
2, 54669, Note_on_c, 0, 55, 0
2, 54675, Note_on_c, 0, 50, 55
2, 54676, Note_on_c, 0, 64, 0
2, 54691, Note_on_c, 0, 50, 0
2, 54698, Note_on_c, 0, 51, 74
2, 54710, Note_on_c, 0, 51, 0
2, 54722, Note_on_c, 0, 52, 68
2, 54724, Note_on_c, 0, 58, 75
2, 54725, Note_on_c, 0, 69, 71
2, 54726, Note_on_c, 0, 62, 63
2, 54727, Control_c, 0, 64, 0
2, 54728, Note_on_c, 0, 64, 56
2, 54772, Control_c, 0, 64, 127
2, 54801, Note_on_c, 0, 62, 0
2, 54803, Note_on_c, 0, 64, 0
2, 54804, Note_on_c, 0, 52, 0
2, 54809, Note_on_c, 0, 58, 0
2, 54840, Note_on_c, 0, 58, 47
2, 54843, Note_on_c, 0, 62, 40
2, 54845, Note_on_c, 0, 64, 36
2, 54881, Note_on_c, 0, 57, 91
2, 54897, Control_c, 0, 64, 0
2, 54908, Control_c, 0, 64, 127
2, 54921, Note_on_c, 0, 62, 0
2, 54930, Note_on_c, 0, 58, 0
2, 54935, Note_on_c, 0, 64, 0
2, 54942, Note_on_c, 0, 69, 0
2, 54960, Note_on_c, 0, 69, 50
2, 54960, Note_on_c, 0, 58, 34
2, 54961, Control_c, 0, 64, 0
2, 54963, Note_on_c, 0, 62, 36
2, 54967, Note_on_c, 0, 64, 33
2, 55036, Note_on_c, 0, 45, 61
2, 55055, Note_on_c, 0, 62, 0
2, 55061, Note_on_c, 0, 58, 0
2, 55063, Note_on_c, 0, 64, 0
2, 55073, Control_c, 0, 64, 127
2, 55087, Note_on_c, 0, 58, 50
2, 55088, Note_on_c, 0, 62, 51
2, 55090, Note_on_c, 0, 64, 37
2, 55097, Note_on_c, 0, 57, 0
2, 55124, Note_on_c, 0, 45, 0
2, 55126, Note_on_c, 0, 57, 90
2, 55170, Note_on_c, 0, 62, 0
2, 55179, Note_on_c, 0, 58, 0
2, 55182, Note_on_c, 0, 64, 0
2, 55187, Note_on_c, 0, 69, 0
2, 55198, Control_c, 0, 64, 0
2, 55202, Note_on_c, 0, 58, 43
2, 55204, Note_on_c, 0, 62, 55
2, 55204, Note_on_c, 0, 67, 46
2, 55233, Control_c, 0, 64, 127
2, 55264, Note_on_c, 0, 58, 0
2, 55268, Note_on_c, 0, 62, 0
2, 55273, Note_on_c, 0, 45, 80
2, 55296, Control_c, 0, 64, 0
2, 55311, Note_on_c, 0, 67, 0
2, 55323, Note_on_c, 0, 57, 0
2, 55325, Note_on_c, 0, 65, 49
2, 55325, Note_on_c, 0, 58, 25
2, 55325, Note_on_c, 0, 62, 26
2, 55330, Control_c, 0, 64, 127
2, 55363, Note_on_c, 0, 57, 99
2, 55377, Note_on_c, 0, 62, 0
2, 55398, Note_on_c, 0, 65, 0
2, 55413, Note_on_c, 0, 58, 0
2, 55414, Control_c, 0, 64, 0
2, 55433, Note_on_c, 0, 58, 36
2, 55435, Note_on_c, 0, 61, 46
2, 55438, Note_on_c, 0, 64, 40
2, 55439, Control_c, 0, 64, 127
2, 55455, Note_on_c, 0, 45, 0
2, 55506, Note_on_c, 0, 45, 74
2, 55524, Note_on_c, 0, 61, 0
2, 55525, Note_on_c, 0, 58, 0
2, 55528, Control_c, 0, 64, 0
2, 55538, Note_on_c, 0, 64, 0
2, 55545, Note_on_c, 0, 57, 0
2, 55549, Note_on_c, 0, 58, 28
2, 55551, Note_on_c, 0, 62, 46
2, 55556, Control_c, 0, 64, 127
2, 55572, Note_on_c, 0, 58, 0
2, 55579, Note_on_c, 0, 62, 0
2, 55587, Note_on_c, 0, 64, 62
2, 55588, Note_on_c, 0, 58, 49
2, 55608, Control_c, 0, 64, 0
2, 55611, Note_on_c, 0, 58, 0
2, 55622, Note_on_c, 0, 57, 85
2, 55635, Control_c, 0, 64, 127
2, 55667, Control_c, 0, 64, 0
2, 55667, Note_on_c, 0, 65, 66
2, 55667, Note_on_c, 0, 60, 68
2, 55697, Note_on_c, 0, 45, 0
2, 55717, Control_c, 0, 64, 127
2, 55732, Note_on_c, 0, 57, 0
2, 55738, Note_on_c, 0, 45, 62
2, 55759, Control_c, 0, 64, 0
2, 55766, Note_on_c, 0, 60, 0
2, 55778, Note_on_c, 0, 65, 0
2, 55780, Note_on_c, 0, 64, 0
2, 55784, Control_c, 0, 64, 127
2, 55784, Note_on_c, 0, 57, 50
2, 55784, Note_on_c, 0, 62, 50
2, 55792, Note_on_c, 0, 57, 0
2, 55805, Note_on_c, 0, 62, 0
2, 55861, Note_on_c, 0, 57, 89
2, 55893, Control_c, 0, 64, 0
2, 55901, Note_on_c, 0, 76, 60
2, 55904, Note_on_c, 0, 65, 38
2, 55905, Note_on_c, 0, 69, 57
2, 55915, Note_on_c, 0, 45, 0
2, 55916, Note_on_c, 0, 65, 0
2, 55921, Note_on_c, 0, 69, 0
2, 55928, Control_c, 0, 64, 127
2, 55932, Note_on_c, 0, 76, 0
2, 55940, Note_on_c, 0, 45, 64
2, 55973, Note_on_c, 0, 57, 0
2, 55980, Note_on_c, 0, 79, 78
2, 55982, Note_on_c, 0, 72, 82
2, 55982, Note_on_c, 0, 69, 75
2, 55988, Control_c, 0, 64, 0
2, 56007, Control_c, 0, 64, 127
2, 56050, Note_on_c, 0, 79, 0
2, 56056, Note_on_c, 0, 72, 0
2, 56070, Note_on_c, 0, 69, 0
2, 56106, Note_on_c, 0, 76, 40
2, 56109, Note_on_c, 0, 65, 47
2, 56112, Note_on_c, 0, 69, 49
2, 56112, Note_on_c, 0, 72, 36
2, 56124, Note_on_c, 0, 72, 0
2, 56125, Note_on_c, 0, 76, 0
2, 56128, Note_on_c, 0, 69, 0
2, 56136, Note_on_c, 0, 65, 0
2, 56227, Note_on_c, 0, 57, 50
2, 56228, Note_on_c, 0, 65, 63
2, 56231, Note_on_c, 0, 60, 49
2, 56243, Note_on_c, 0, 45, 0
2, 56256, Note_on_c, 0, 57, 0
2, 56267, Note_on_c, 0, 45, 54
2, 56284, Note_on_c, 0, 45, 0
2, 56295, Note_on_c, 0, 60, 0
2, 56331, Note_on_c, 0, 65, 0
2, 56384, Control_c, 0, 64, 0
2, 56389, Note_on_c, 0, 63, 40
2, 56389, Note_on_c, 0, 26, 45
2, 56390, Note_on_c, 0, 54, 45
2, 56392, Note_on_c, 0, 60, 51
2, 56392, Note_on_c, 0, 56, 42
2, 56402, Control_c, 0, 64, 127
2, 56403, Note_on_c, 0, 26, 0
2, 56410, Note_on_c, 0, 54, 0
2, 56417, Note_on_c, 0, 60, 0
2, 56418, Note_on_c, 0, 56, 0
2, 56430, Note_on_c, 0, 63, 0
2, 56514, Note_on_c, 0, 72, 64
2, 56516, Note_on_c, 0, 68, 47
2, 56516, Note_on_c, 0, 54, 46
2, 56518, Note_on_c, 0, 66, 50
2, 56519, Note_on_c, 0, 60, 40
2, 56519, Note_on_c, 0, 64, 34
2, 56525, Note_on_c, 0, 60, 0
2, 56534, Note_on_c, 0, 54, 0
2, 56548, Note_on_c, 0, 72, 0
2, 56553, Note_on_c, 0, 66, 0
2, 56554, Note_on_c, 0, 68, 0
2, 56559, Note_on_c, 0, 64, 0
2, 56599, Note_on_c, 0, 50, 42
2, 56608, Note_on_c, 0, 50, 0
2, 56636, Control_c, 0, 64, 0
2, 56639, Note_on_c, 0, 43, 55
2, 56641, Note_on_c, 0, 62, 35
2, 56641, Note_on_c, 0, 65, 45
2, 56643, Note_on_c, 0, 58, 23
2, 56648, Note_on_c, 0, 58, 0
2, 56650, Note_on_c, 0, 62, 0
2, 56652, Note_on_c, 0, 65, 0
2, 56652, Note_on_c, 0, 43, 0
2, 56654, Control_c, 0, 64, 127
2, 56724, Note_on_c, 0, 84, 75
2, 56724, Note_on_c, 0, 72, 79
2, 56725, Note_on_c, 0, 86, 71
2, 56725, Note_on_c, 0, 78, 50
2, 56730, Note_on_c, 0, 78, 0
2, 56730, Note_on_c, 0, 86, 0
2, 56740, Note_on_c, 0, 72, 0
2, 56742, Note_on_c, 0, 84, 0
2, 56765, Note_on_c, 0, 84, 74
2, 56765, Note_on_c, 0, 62, 51
2, 56767, Note_on_c, 0, 72, 57
2, 56768, Control_c, 0, 64, 0
2, 56768, Note_on_c, 0, 60, 39
2, 56769, Note_on_c, 0, 58, 37
2, 56781, Note_on_c, 0, 72, 0
2, 56786, Note_on_c, 0, 84, 0
2, 56807, Note_on_c, 0, 82, 38
2, 56811, Note_on_c, 0, 60, 0
2, 56823, Note_on_c, 0, 82, 0
2, 56828, Control_c, 0, 64, 127
2, 56846, Note_on_c, 0, 84, 80
2, 56847, Note_on_c, 0, 72, 68
2, 56855, Note_on_c, 0, 58, 0
2, 56856, Note_on_c, 0, 62, 0
2, 56863, Note_on_c, 0, 72, 0
2, 56866, Note_on_c, 0, 84, 0
2, 56885, Note_on_c, 0, 84, 73
2, 56886, Note_on_c, 0, 55, 51
2, 56887, Note_on_c, 0, 62, 44
2, 56888, Note_on_c, 0, 72, 59
2, 56888, Note_on_c, 0, 58, 37
2, 56893, Control_c, 0, 64, 0
2, 56903, Note_on_c, 0, 72, 0
2, 56907, Note_on_c, 0, 84, 0
2, 56929, Note_on_c, 0, 82, 30
2, 56937, Note_on_c, 0, 82, 0
2, 56945, Control_c, 0, 64, 127
2, 56946, Note_on_c, 0, 62, 0
2, 56964, Note_on_c, 0, 84, 80
2, 56965, Note_on_c, 0, 72, 72
2, 56974, Note_on_c, 0, 55, 0
2, 56995, Note_on_c, 0, 84, 0
2, 56996, Note_on_c, 0, 58, 0
2, 57003, Note_on_c, 0, 54, 63
2, 57005, Note_on_c, 0, 62, 50
2, 57008, Note_on_c, 0, 58, 27
2, 57009, Note_on_c, 0, 72, 0
2, 57044, Note_on_c, 0, 82, 70
2, 57045, Note_on_c, 0, 70, 67
2, 57073, Note_on_c, 0, 70, 0
2, 57073, Note_on_c, 0, 82, 0
2, 57080, Note_on_c, 0, 62, 0
2, 57081, Note_on_c, 0, 54, 0
2, 57093, Note_on_c, 0, 58, 0
2, 57124, Control_c, 0, 64, 0
2, 57124, Note_on_c, 0, 81, 59
2, 57126, Note_on_c, 0, 76, 46
2, 57126, Note_on_c, 0, 69, 47
2, 57126, Note_on_c, 0, 53, 46
2, 57127, Note_on_c, 0, 62, 44
2, 57127, Note_on_c, 0, 73, 43
2, 57127, Note_on_c, 0, 58, 38
2, 57144, Control_c, 0, 64, 127
2, 57147, Note_on_c, 0, 62, 0
2, 57147, Note_on_c, 0, 53, 0
2, 57155, Note_on_c, 0, 58, 0
2, 57157, Note_on_c, 0, 81, 0
2, 57162, Note_on_c, 0, 76, 0
2, 57168, Note_on_c, 0, 69, 0
2, 57168, Note_on_c, 0, 73, 0
2, 57245, Note_on_c, 0, 64, 47
2, 57246, Note_on_c, 0, 58, 35
2, 57246, Note_on_c, 0, 61, 50
2, 57248, Note_on_c, 0, 57, 35
2, 57249, Note_on_c, 0, 48, 32
2, 57257, Control_c, 0, 64, 0
2, 57286, Control_c, 0, 64, 127
2, 57315, Note_on_c, 0, 57, 0
2, 57317, Note_on_c, 0, 58, 0
2, 57328, Note_on_c, 0, 61, 0
2, 57331, Note_on_c, 0, 64, 0
2, 57351, Note_on_c, 0, 55, 52
2, 57359, Note_on_c, 0, 55, 0
2, 57367, Note_on_c, 0, 57, 71
2, 57367, Note_on_c, 0, 58, 81
2, 57368, Note_on_c, 0, 61, 74
2, 57368, Note_on_c, 0, 69, 77
2, 57368, Note_on_c, 0, 64, 66
2, 57370, Control_c, 0, 64, 0
2, 57400, Control_c, 0, 64, 127
2, 57424, Note_on_c, 0, 57, 0
2, 57426, Note_on_c, 0, 69, 0
2, 57426, Note_on_c, 0, 58, 0
2, 57427, Note_on_c, 0, 61, 0
2, 57434, Note_on_c, 0, 64, 0
2, 57446, Note_on_c, 0, 67, 56
2, 57446, Note_on_c, 0, 58, 59
2, 57446, Note_on_c, 0, 55, 52
2, 57446, Note_on_c, 0, 61, 49
2, 57473, Note_on_c, 0, 61, 0
2, 57474, Note_on_c, 0, 58, 0
2, 57483, Note_on_c, 0, 67, 0
2, 57485, Note_on_c, 0, 55, 0
2, 57494, Note_on_c, 0, 65, 47
2, 57503, Note_on_c, 0, 48, 0
2, 57515, Note_on_c, 0, 65, 0
2, 57528, Note_on_c, 0, 67, 37
2, 57529, Note_on_c, 0, 58, 31
2, 57551, Note_on_c, 0, 67, 0
2, 57555, Note_on_c, 0, 58, 0
2, 57564, Note_on_c, 0, 48, 44
2, 57572, Note_on_c, 0, 48, 0
2, 57606, Note_on_c, 0, 57, 53
2, 57608, Note_on_c, 0, 64, 48
2, 57608, Note_on_c, 0, 41, 55
2, 57608, Control_c, 0, 64, 0
2, 57608, Note_on_c, 0, 69, 43
2, 57610, Note_on_c, 0, 48, 34
2, 57620, Note_on_c, 0, 41, 0
2, 57620, Note_on_c, 0, 57, 0
2, 57624, Control_c, 0, 64, 127
2, 57626, Note_on_c, 0, 48, 0
2, 57629, Note_on_c, 0, 64, 0
2, 57638, Note_on_c, 0, 69, 0
2, 57689, Note_on_c, 0, 72, 78
2, 57689, Note_on_c, 0, 69, 76
2, 57692, Note_on_c, 0, 53, 64
2, 57693, Note_on_c, 0, 63, 64
2, 57694, Note_on_c, 0, 58, 58
2, 57706, Control_c, 0, 64, 0
2, 57728, Control_c, 0, 64, 127
2, 57794, Note_on_c, 0, 53, 0
2, 57805, Note_on_c, 0, 58, 0
2, 57806, Note_on_c, 0, 63, 0
2, 57812, Note_on_c, 0, 69, 0
2, 57816, Note_on_c, 0, 72, 0
2, 57846, Note_on_c, 0, 65, 53
2, 57849, Note_on_c, 0, 55, 44
2, 57851, Note_on_c, 0, 60, 46
2, 57853, Control_c, 0, 64, 0
2, 57854, Note_on_c, 0, 69, 47
2, 57857, Note_on_c, 0, 60, 0
2, 57871, Note_on_c, 0, 55, 0
2, 57873, Control_c, 0, 64, 127
2, 57885, Note_on_c, 0, 69, 0
2, 57890, Note_on_c, 0, 65, 0
2, 57925, Note_on_c, 0, 66, 25
2, 57927, Note_on_c, 0, 48, 46
2, 57934, Note_on_c, 0, 66, 0
2, 57936, Note_on_c, 0, 48, 0
2, 57967, Note_on_c, 0, 57, 36
2, 57968, Note_on_c, 0, 52, 47
2, 57968, Note_on_c, 0, 62, 37
2, 57974, Control_c, 0, 64, 0
2, 57998, Control_c, 0, 64, 127
2, 58024, Note_on_c, 0, 52, 0
2, 58026, Note_on_c, 0, 57, 0
2, 58034, Note_on_c, 0, 62, 0
2, 58038, Note_on_c, 0, 41, 58
2, 58052, Note_on_c, 0, 41, 0
2, 58082, Note_on_c, 0, 57, 78
2, 58083, Note_on_c, 0, 58, 76
2, 58083, Note_on_c, 0, 69, 76
2, 58084, Note_on_c, 0, 62, 66
2, 58085, Note_on_c, 0, 64, 64
2, 58086, Control_c, 0, 64, 0
2, 58124, Control_c, 0, 64, 127
2, 58144, Note_on_c, 0, 58, 0
2, 58146, Note_on_c, 0, 57, 0
2, 58146, Note_on_c, 0, 69, 0
2, 58150, Note_on_c, 0, 62, 0
2, 58154, Note_on_c, 0, 64, 0
2, 58160, Note_on_c, 0, 57, 62
2, 58160, Note_on_c, 0, 69, 76
2, 58161, Note_on_c, 0, 58, 67
2, 58163, Note_on_c, 0, 62, 74
2, 58163, Note_on_c, 0, 64, 46
2, 58184, Note_on_c, 0, 58, 0
2, 58185, Note_on_c, 0, 57, 0
2, 58185, Control_c, 0, 64, 0
2, 58187, Note_on_c, 0, 69, 0
2, 58189, Note_on_c, 0, 62, 0
2, 58192, Note_on_c, 0, 64, 0
2, 58208, Note_on_c, 0, 57, 48
2, 58209, Note_on_c, 0, 62, 35
2, 58209, Note_on_c, 0, 69, 34
2, 58210, Note_on_c, 0, 64, 40
2, 58217, Control_c, 0, 64, 127
2, 58218, Note_on_c, 0, 64, 0
2, 58218, Note_on_c, 0, 57, 0
2, 58219, Note_on_c, 0, 69, 0
2, 58219, Note_on_c, 0, 62, 0
2, 58274, Note_on_c, 0, 62, 64
2, 58275, Note_on_c, 0, 58, 52
2, 58277, Note_on_c, 0, 57, 64
2, 58278, Note_on_c, 0, 69, 35
2, 58282, Note_on_c, 0, 58, 0
2, 58285, Note_on_c, 0, 62, 0
2, 58288, Note_on_c, 0, 69, 0
2, 58293, Note_on_c, 0, 57, 0
2, 58315, Control_c, 0, 64, 0
2, 58322, Note_on_c, 0, 71, 47
2, 58322, Note_on_c, 0, 59, 66
2, 58327, Note_on_c, 0, 64, 36
2, 58327, Note_on_c, 0, 67, 32
2, 58330, Note_on_c, 0, 60, 24
2, 58336, Note_on_c, 0, 60, 0
2, 58343, Control_c, 0, 64, 127
2, 58348, Note_on_c, 0, 59, 0
2, 58349, Note_on_c, 0, 64, 0
2, 58351, Note_on_c, 0, 67, 0
2, 58358, Note_on_c, 0, 71, 0
2, 58431, Control_c, 0, 64, 0
2, 58434, Note_on_c, 0, 73, 57
2, 58436, Note_on_c, 0, 64, 41
2, 58437, Note_on_c, 0, 51, 53
2, 58438, Note_on_c, 0, 69, 40
2, 58453, Control_c, 0, 64, 127
2, 58466, Note_on_c, 0, 51, 0
2, 58481, Note_on_c, 0, 64, 0
2, 58497, Note_on_c, 0, 69, 0
2, 58539, Note_on_c, 0, 73, 0
2, 58556, Control_c, 0, 64, 0
2, 58557, Note_on_c, 0, 76, 45
2, 58559, Note_on_c, 0, 60, 45
2, 58559, Note_on_c, 0, 65, 29
2, 58560, Note_on_c, 0, 69, 43
2, 58565, Note_on_c, 0, 50, 44
2, 58588, Control_c, 0, 64, 127
2, 58621, Note_on_c, 0, 60, 0
2, 58643, Note_on_c, 0, 65, 0
2, 58644, Note_on_c, 0, 69, 0
2, 58668, Note_on_c, 0, 76, 0
2, 58680, Note_on_c, 0, 74, 45
2, 58680, Note_on_c, 0, 60, 40
2, 58680, Note_on_c, 0, 65, 36
2, 58682, Note_on_c, 0, 69, 44
2, 58701, Note_on_c, 0, 69, 0
2, 58704, Note_on_c, 0, 74, 0
2, 58707, Note_on_c, 0, 65, 0
2, 58715, Note_on_c, 0, 60, 0
2, 58731, Note_on_c, 0, 50, 0
2, 58804, Note_on_c, 0, 69, 42
2, 58804, Note_on_c, 0, 65, 41
2, 58805, Note_on_c, 0, 57, 36
2, 58806, Note_on_c, 0, 60, 34
2, 58807, Note_on_c, 0, 50, 34
2, 58849, Note_on_c, 0, 69, 0
2, 58855, Note_on_c, 0, 65, 0
2, 58861, Note_on_c, 0, 60, 0
2, 58924, Note_on_c, 0, 62, 89
2, 58925, Note_on_c, 0, 57, 0
2, 58938, Note_on_c, 0, 50, 0
2, 58984, Note_on_c, 0, 61, 45
2, 58992, Note_on_c, 0, 62, 0
2, 59001, Note_on_c, 0, 60, 53
2, 59009, Note_on_c, 0, 61, 0
2, 59020, Note_on_c, 0, 60, 0
2, 59022, Note_on_c, 0, 59, 44
2, 59040, Note_on_c, 0, 59, 0
2, 59044, Note_on_c, 0, 53, 39
2, 59045, Note_on_c, 0, 43, 37
2, 59046, Note_on_c, 0, 58, 53
2, 59048, Control_c, 0, 64, 0
2, 59090, Control_c, 0, 64, 127
2, 59104, Note_on_c, 0, 43, 0
2, 59105, Note_on_c, 0, 58, 0
2, 59110, Note_on_c, 0, 53, 0
2, 59220, Note_on_c, 0, 72, 66
2, 59222, Note_on_c, 0, 65, 79
2, 59223, Note_on_c, 0, 69, 55
2, 59224, Note_on_c, 0, 57, 60
2, 59224, Note_on_c, 0, 62, 78
2, 59253, Note_on_c, 0, 65, 0
2, 59259, Note_on_c, 0, 62, 0
2, 59262, Note_on_c, 0, 72, 0
2, 59265, Note_on_c, 0, 69, 0
2, 59280, Control_c, 0, 64, 0
2, 59281, Note_on_c, 0, 57, 0
2, 59282, Note_on_c, 0, 70, 60
2, 59283, Note_on_c, 0, 62, 32
2, 59285, Note_on_c, 0, 65, 44
2, 59286, Note_on_c, 0, 55, 51
2, 59307, Control_c, 0, 64, 127
2, 59326, Note_on_c, 0, 62, 0
2, 59347, Note_on_c, 0, 55, 0
2, 59352, Note_on_c, 0, 65, 0
2, 59466, Note_on_c, 0, 62, 44
2, 59472, Note_on_c, 0, 70, 0
2, 59482, Note_on_c, 0, 62, 0
2, 59517, Note_on_c, 0, 46, 37
2, 59519, Note_on_c, 0, 60, 52
2, 59521, Note_on_c, 0, 56, 45
2, 59522, Control_c, 0, 64, 0
2, 59530, Note_on_c, 0, 64, 31
2, 59532, Note_on_c, 0, 60, 0
2, 59544, Control_c, 0, 64, 127
2, 59547, Note_on_c, 0, 64, 0
2, 59547, Note_on_c, 0, 56, 0
2, 59548, Note_on_c, 0, 60, 47
2, 59559, Note_on_c, 0, 46, 0
2, 59560, Note_on_c, 0, 60, 0
2, 59566, Note_on_c, 0, 64, 36
2, 59576, Note_on_c, 0, 64, 0
2, 59577, Note_on_c, 0, 60, 42
2, 59583, Note_on_c, 0, 46, 32
2, 59591, Note_on_c, 0, 60, 0
2, 59599, Note_on_c, 0, 64, 30
2, 59603, Note_on_c, 0, 46, 0
2, 59608, Note_on_c, 0, 64, 0
2, 59608, Note_on_c, 0, 60, 48
2, 59613, Note_on_c, 0, 56, 21
2, 59622, Note_on_c, 0, 56, 0
2, 59622, Note_on_c, 0, 60, 0
2, 59625, Note_on_c, 0, 46, 46
2, 59630, Note_on_c, 0, 64, 36
2, 59638, Note_on_c, 0, 64, 0
2, 59640, Note_on_c, 0, 60, 51
2, 59642, Note_on_c, 0, 46, 0
2, 59643, Note_on_c, 0, 56, 33
2, 59654, Note_on_c, 0, 60, 0
2, 59657, Note_on_c, 0, 56, 0
2, 59660, Note_on_c, 0, 64, 50
2, 59661, Note_on_c, 0, 46, 54
2, 59668, Note_on_c, 0, 64, 0
2, 59669, Note_on_c, 0, 60, 53
2, 59677, Note_on_c, 0, 56, 40
2, 59679, Note_on_c, 0, 46, 0
2, 59684, Note_on_c, 0, 60, 0
2, 59688, Note_on_c, 0, 64, 54
2, 59692, Note_on_c, 0, 56, 0
2, 59698, Note_on_c, 0, 46, 56
2, 59699, Note_on_c, 0, 64, 0
2, 59699, Note_on_c, 0, 60, 53
2, 59712, Note_on_c, 0, 56, 43
2, 59713, Note_on_c, 0, 60, 0
2, 59715, Note_on_c, 0, 46, 0
2, 59716, Note_on_c, 0, 64, 51
2, 59728, Note_on_c, 0, 64, 0
2, 59728, Note_on_c, 0, 60, 57
2, 59734, Note_on_c, 0, 56, 0
2, 59736, Note_on_c, 0, 46, 67
2, 59746, Note_on_c, 0, 60, 0
2, 59747, Note_on_c, 0, 64, 49
2, 59751, Note_on_c, 0, 56, 45
2, 59755, Note_on_c, 0, 46, 0
2, 59757, Note_on_c, 0, 64, 0
2, 59759, Note_on_c, 0, 60, 64
2, 59772, Note_on_c, 0, 60, 0
2, 59774, Note_on_c, 0, 64, 54
2, 59776, Note_on_c, 0, 56, 0
2, 59776, Note_on_c, 0, 46, 52
2, 59785, Control_c, 0, 64, 0
2, 59786, Note_on_c, 0, 64, 0
2, 59786, Note_on_c, 0, 60, 57
2, 59800, Note_on_c, 0, 60, 0
2, 59802, Note_on_c, 0, 46, 0
2, 59804, Note_on_c, 0, 64, 36
2, 59808, Note_on_c, 0, 56, 13
2, 59810, Note_on_c, 0, 64, 0
2, 59817, Note_on_c, 0, 56, 0
2, 59868, Control_c, 0, 64, 127
2, 59949, Note_on_c, 0, 64, 43
2, 59949, Note_on_c, 0, 46, 35
2, 59951, Note_on_c, 0, 56, 32
2, 59957, Note_on_c, 0, 64, 0
2, 59968, Note_on_c, 0, 56, 0
2, 59980, Note_on_c, 0, 46, 0
2, 59998, Control_c, 0, 64, 0
2, 59998, Note_on_c, 0, 58, 46
2, 59998, Note_on_c, 0, 64, 47
2, 60000, Note_on_c, 0, 45, 49
2, 60002, Note_on_c, 0, 55, 45
2, 60004, Note_on_c, 0, 61, 36
2, 60032, Control_c, 0, 64, 127
2, 60036, Note_on_c, 0, 55, 0
2, 60053, Note_on_c, 0, 45, 0
2, 60055, Note_on_c, 0, 58, 0
2, 60056, Note_on_c, 0, 61, 0
2, 60058, Note_on_c, 0, 64, 0
2, 60076, Note_on_c, 0, 45, 73
2, 60076, Note_on_c, 0, 64, 67
2, 60077, Note_on_c, 0, 55, 80
2, 60078, Note_on_c, 0, 61, 63
2, 60078, Note_on_c, 0, 58, 62
2, 60101, Control_c, 0, 64, 0
2, 60102, Note_on_c, 0, 55, 0
2, 60104, Note_on_c, 0, 45, 0
2, 60107, Note_on_c, 0, 58, 0
2, 60107, Note_on_c, 0, 64, 0
2, 60112, Note_on_c, 0, 61, 0
2, 60125, Note_on_c, 0, 45, 40
2, 60128, Note_on_c, 0, 55, 48
2, 60128, Note_on_c, 0, 64, 47
2, 60129, Note_on_c, 0, 61, 37
2, 60129, Note_on_c, 0, 58, 36
2, 60142, Note_on_c, 0, 58, 0
2, 60143, Note_on_c, 0, 55, 0
2, 60143, Note_on_c, 0, 61, 0
2, 60144, Note_on_c, 0, 45, 0
2, 60148, Note_on_c, 0, 64, 0
2, 60194, Control_c, 0, 64, 127
2, 60197, Note_on_c, 0, 45, 57
2, 60197, Note_on_c, 0, 64, 55
2, 60198, Note_on_c, 0, 55, 60
2, 60199, Note_on_c, 0, 58, 36
2, 60214, Note_on_c, 0, 58, 0
2, 60218, Note_on_c, 0, 55, 0
2, 60222, Note_on_c, 0, 64, 0
2, 60234, Note_on_c, 0, 45, 0
2, 60239, Control_c, 0, 64, 0
2, 60247, Note_on_c, 0, 58, 44
2, 60248, Note_on_c, 0, 65, 49
2, 60248, Note_on_c, 0, 55, 54
2, 60249, Note_on_c, 0, 61, 43
2, 60250, Note_on_c, 0, 49, 45
2, 60271, Control_c, 0, 64, 127
2, 60278, Note_on_c, 0, 65, 0
2, 60280, Note_on_c, 0, 55, 0
2, 60288, Note_on_c, 0, 61, 0
2, 60289, Note_on_c, 0, 58, 0
2, 60359, Control_c, 0, 64, 0
2, 60361, Note_on_c, 0, 67, 49
2, 60363, Note_on_c, 0, 58, 47
2, 60363, Note_on_c, 0, 61, 55
2, 60364, Note_on_c, 0, 52, 54
2, 60368, Note_on_c, 0, 64, 30
2, 60376, Note_on_c, 0, 49, 0
2, 60382, Note_on_c, 0, 52, 0
2, 60388, Control_c, 0, 64, 127
2, 60392, Note_on_c, 0, 64, 0
2, 60395, Note_on_c, 0, 58, 0
2, 60396, Note_on_c, 0, 67, 0
2, 60404, Note_on_c, 0, 61, 0
2, 60476, Control_c, 0, 64, 0
2, 60481, Note_on_c, 0, 69, 46
2, 60482, Note_on_c, 0, 65, 48
2, 60482, Note_on_c, 0, 60, 49
2, 60482, Note_on_c, 0, 50, 46
2, 60482, Note_on_c, 0, 62, 49
2, 60483, Note_on_c, 0, 57, 36
2, 60516, Control_c, 0, 64, 127
2, 60566, Note_on_c, 0, 57, 0
2, 60583, Note_on_c, 0, 50, 0
2, 60596, Note_on_c, 0, 69, 0
2, 60600, Note_on_c, 0, 60, 0
2, 60601, Note_on_c, 0, 65, 0
2, 60604, Note_on_c, 0, 62, 0
2, 60723, Control_c, 0, 64, 0
2, 60727, Note_on_c, 0, 61, 48
2, 60727, Note_on_c, 0, 47, 55
2, 60728, Note_on_c, 0, 59, 56
2, 60729, Note_on_c, 0, 57, 50
2, 60729, Note_on_c, 0, 54, 37
2, 60760, Control_c, 0, 64, 127
2, 60789, Note_on_c, 0, 47, 0
2, 60792, Note_on_c, 0, 57, 0
2, 60795, Note_on_c, 0, 54, 0
2, 60800, Note_on_c, 0, 61, 0
2, 60801, Note_on_c, 0, 59, 0
2, 60804, Note_on_c, 0, 62, 64
2, 60808, Note_on_c, 0, 47, 43
2, 60808, Note_on_c, 0, 54, 27
2, 60829, Note_on_c, 0, 47, 0
2, 60835, Note_on_c, 0, 54, 0
2, 60841, Note_on_c, 0, 62, 0
2, 60922, Note_on_c, 0, 56, 54
2, 60923, Note_on_c, 0, 65, 53
2, 60924, Note_on_c, 0, 46, 42
2, 60925, Note_on_c, 0, 34, 44
2, 60927, Note_on_c, 0, 62, 44
2, 60927, Note_on_c, 0, 60, 55
2, 60936, Control_c, 0, 64, 0
2, 61068, Control_c, 0, 64, 127
2, 61088, Note_on_c, 0, 46, 0
2, 61093, Note_on_c, 0, 62, 0
2, 61093, Note_on_c, 0, 34, 0
2, 61095, Note_on_c, 0, 56, 0
2, 61098, Note_on_c, 0, 60, 0
2, 61146, Note_on_c, 0, 65, 0
2, 61205, Note_on_c, 0, 64, 28
2, 61206, Note_on_c, 0, 45, 36
2, 61206, Note_on_c, 0, 61, 35
2, 61207, Note_on_c, 0, 55, 36
2, 61208, Note_on_c, 0, 33, 34
2, 61208, Note_on_c, 0, 58, 31
2, 61209, Control_c, 0, 64, 0
2, 61215, Note_on_c, 0, 55, 0
2, 61222, Note_on_c, 0, 58, 0
2, 61224, Note_on_c, 0, 61, 0
2, 61228, Note_on_c, 0, 64, 0
2, 61238, Control_c, 0, 64, 127
2, 61286, Note_on_c, 0, 74, 87
2, 61289, Note_on_c, 0, 33, 0
2, 61298, Note_on_c, 0, 45, 0
2, 61306, Note_on_c, 0, 74, 0
2, 61307, Control_c, 0, 64, 0
2, 61325, Note_on_c, 0, 67, 24
2, 61327, Note_on_c, 0, 68, 56
2, 61335, Note_on_c, 0, 67, 0
2, 61341, Note_on_c, 0, 68, 0
2, 61344, Note_on_c, 0, 69, 53
2, 61351, Note_on_c, 0, 69, 0
2, 61401, Note_on_c, 0, 62, 38
2, 61417, Control_c, 0, 64, 127
2, 61422, Control_c, 0, 64, 0
2, 61429, Note_on_c, 0, 62, 0
2, 61462, Note_on_c, 0, 65, 53
2, 61476, Control_c, 0, 64, 127
2, 61511, Note_on_c, 0, 65, 0
2, 62000, Note_on_c, 0, 62, 74
2, 62006, Note_on_c, 0, 50, 53
2, 62150, Note_on_c, 0, 50, 0
2, 62153, Note_on_c, 0, 62, 0
2, 62159, Note_on_c, 0, 52, 43
2, 62162, Note_on_c, 0, 64, 50
2, 62191, Note_on_c, 0, 52, 0
2, 62196, Note_on_c, 0, 64, 0
2, 62278, Note_on_c, 0, 53, 41
2, 62278, Note_on_c, 0, 65, 53
2, 62287, Note_on_c, 0, 53, 0
2, 62287, Control_c, 0, 64, 127
2, 62303, Note_on_c, 0, 65, 0
2, 62400, Note_on_c, 0, 66, 56
2, 62400, Note_on_c, 0, 62, 51
2, 62402, Note_on_c, 0, 69, 58
2, 62402, Note_on_c, 0, 57, 47
2, 62405, Note_on_c, 0, 58, 33
2, 62406, Control_c, 0, 64, 0
2, 62411, Note_on_c, 0, 55, 32
2, 62527, Control_c, 0, 64, 127
2, 62662, Note_on_c, 0, 62, 0
2, 62678, Note_on_c, 0, 66, 0
2, 62688, Note_on_c, 0, 69, 0
2, 62727, Note_on_c, 0, 57, 0
2, 62734, Note_on_c, 0, 55, 0
2, 62736, Note_on_c, 0, 58, 0
2, 62835, Note_on_c, 0, 67, 78
2, 62881, Note_on_c, 0, 67, 0
2, 62892, Control_c, 0, 64, 0
2, 62896, Note_on_c, 0, 61, 37
2, 62900, Note_on_c, 0, 55, 36
2, 62900, Note_on_c, 0, 65, 32
2, 62927, Control_c, 0, 64, 127
2, 62975, Note_on_c, 0, 77, 67
2, 62994, Note_on_c, 0, 65, 0
2, 63013, Note_on_c, 0, 77, 0
2, 63015, Note_on_c, 0, 55, 0
2, 63036, Note_on_c, 0, 61, 0
2, 63196, Note_on_c, 0, 88, 79
2, 63197, Note_on_c, 0, 76, 71
2, 63198, Note_on_c, 0, 61, 49
2, 63198, Note_on_c, 0, 55, 52
2, 63199, Note_on_c, 0, 66, 48
2, 63243, Note_on_c, 0, 88, 0
2, 63251, Note_on_c, 0, 76, 0
2, 63251, Note_on_c, 0, 66, 0
2, 63255, Note_on_c, 0, 55, 0
2, 63262, Note_on_c, 0, 61, 0
2, 63282, Note_on_c, 0, 86, 61
2, 63283, Note_on_c, 0, 74, 58
2, 63303, Note_on_c, 0, 74, 0
2, 63311, Note_on_c, 0, 86, 0
2, 63364, Note_on_c, 0, 60, 32
2, 63366, Note_on_c, 0, 91, 44
2, 63366, Note_on_c, 0, 57, 33
2, 63366, Note_on_c, 0, 50, 30
2, 63368, Note_on_c, 0, 79, 53
2, 63369, Note_on_c, 0, 53, 36
2, 63370, Control_c, 0, 64, 0
2, 63431, Control_c, 0, 64, 127
2, 63494, Note_on_c, 0, 91, 0
2, 63497, Note_on_c, 0, 60, 0
2, 63500, Note_on_c, 0, 79, 0
2, 63507, Note_on_c, 0, 53, 0
2, 63509, Note_on_c, 0, 57, 0
2, 63560, Note_on_c, 0, 89, 48
2, 63563, Note_on_c, 0, 60, 40
2, 63565, Note_on_c, 0, 77, 35
2, 63565, Note_on_c, 0, 57, 31
2, 63568, Note_on_c, 0, 53, 27
2, 63574, Control_c, 0, 64, 0
2, 63630, Control_c, 0, 64, 127
2, 63698, Note_on_c, 0, 89, 0
2, 63715, Note_on_c, 0, 53, 0
2, 63723, Note_on_c, 0, 57, 0
2, 63724, Note_on_c, 0, 50, 0
2, 63738, Note_on_c, 0, 77, 0
2, 63742, Note_on_c, 0, 60, 0
2, 64165, Note_on_c, 0, 65, 68
2, 64166, Note_on_c, 0, 56, 67
2, 64166, Note_on_c, 0, 61, 67
2, 64169, Note_on_c, 0, 49, 56
2, 64179, Control_c, 0, 64, 0
2, 64195, Note_on_c, 0, 65, 0
2, 64206, Note_on_c, 0, 56, 0
2, 64209, Note_on_c, 0, 61, 0
2, 64231, Control_c, 0, 64, 127
2, 64232, Note_on_c, 0, 49, 0
2, 64232, Note_on_c, 0, 58, 63
2, 64233, Note_on_c, 0, 67, 66
2, 64236, Note_on_c, 0, 51, 56
2, 64236, Note_on_c, 0, 63, 42
2, 64260, Note_on_c, 0, 67, 0
2, 64269, Note_on_c, 0, 58, 0
2, 64273, Note_on_c, 0, 63, 0
2, 64292, Control_c, 0, 64, 0
2, 64293, Note_on_c, 0, 63, 15
2, 64295, Note_on_c, 0, 68, 62
2, 64297, Note_on_c, 0, 59, 58
2, 64300, Note_on_c, 0, 64, 60
2, 64303, Control_c, 0, 64, 127
2, 64304, Note_on_c, 0, 53, 59
2, 64308, Note_on_c, 0, 51, 0
2, 64311, Note_on_c, 0, 63, 0
2, 64312, Note_on_c, 0, 59, 0
2, 64315, Note_on_c, 0, 64, 0
2, 64324, Note_on_c, 0, 68, 0
2, 64326, Note_on_c, 0, 53, 0
2, 64360, Control_c, 0, 64, 0
2, 64377, Note_on_c, 0, 62, 51
2, 64378, Note_on_c, 0, 65, 60
2, 64378, Note_on_c, 0, 72, 54
2, 64379, Note_on_c, 0, 69, 60
2, 64381, Note_on_c, 0, 57, 62
2, 64424, Control_c, 0, 64, 127
2, 64433, Note_on_c, 0, 65, 0
2, 64439, Note_on_c, 0, 69, 0
2, 64440, Note_on_c, 0, 62, 0
2, 64443, Note_on_c, 0, 72, 0
2, 64444, Control_c, 0, 64, 0
2, 64461, Note_on_c, 0, 70, 55
2, 64462, Note_on_c, 0, 62, 46
2, 64465, Note_on_c, 0, 57, 0
2, 64466, Note_on_c, 0, 65, 28
2, 64469, Note_on_c, 0, 55, 48
2, 64473, Control_c, 0, 64, 127
2, 64475, Note_on_c, 0, 65, 0
2, 64481, Note_on_c, 0, 70, 0
2, 64484, Note_on_c, 0, 62, 0
2, 64516, Note_on_c, 0, 55, 0
2, 64538, Note_on_c, 0, 58, 56
2, 64540, Note_on_c, 0, 62, 41
2, 64542, Note_on_c, 0, 53, 46
2, 64543, Note_on_c, 0, 65, 45
2, 64546, Control_c, 0, 64, 0
2, 64587, Control_c, 0, 64, 127
2, 64658, Note_on_c, 0, 53, 0
2, 64669, Note_on_c, 0, 62, 0
2, 64673, Note_on_c, 0, 58, 0
2, 64680, Note_on_c, 0, 65, 0
2, 64758, Note_on_c, 0, 70, 74
2, 64781, Note_on_c, 0, 70, 0
2, 64808, Note_on_c, 0, 58, 48
2, 64809, Note_on_c, 0, 48, 49
2, 64809, Note_on_c, 0, 69, 55
2, 64810, Note_on_c, 0, 61, 49
2, 64813, Note_on_c, 0, 64, 45
2, 64813, Control_c, 0, 64, 0
2, 64819, Note_on_c, 0, 57, 24
2, 64912, Control_c, 0, 64, 127
2, 64932, Note_on_c, 0, 68, 9
2, 64933, Note_on_c, 0, 57, 0
2, 64933, Note_on_c, 0, 58, 0
2, 64947, Note_on_c, 0, 64, 0
2, 64961, Note_on_c, 0, 61, 0
2, 64970, Note_on_c, 0, 69, 0
2, 64975, Note_on_c, 0, 68, 0
2, 65003, Note_on_c, 0, 67, 44
2, 65005, Note_on_c, 0, 61, 44
2, 65006, Note_on_c, 0, 55, 52
2, 65007, Note_on_c, 0, 64, 48
2, 65008, Control_c, 0, 64, 0
2, 65008, Note_on_c, 0, 58, 29
2, 65010, Note_on_c, 0, 54, 9
2, 65030, Note_on_c, 0, 54, 0
2, 65057, Control_c, 0, 64, 127
2, 65074, Note_on_c, 0, 48, 0
2, 65092, Note_on_c, 0, 55, 0
2, 65128, Note_on_c, 0, 58, 0
2, 65140, Note_on_c, 0, 64, 0
2, 65156, Note_on_c, 0, 61, 0
2, 65187, Note_on_c, 0, 67, 0
2, 65268, Note_on_c, 0, 41, 26
2, 65272, Note_on_c, 0, 48, 29
2, 65278, Control_c, 0, 64, 0
2, 65278, Note_on_c, 0, 69, 41
2, 65279, Note_on_c, 0, 62, 45
2, 65279, Note_on_c, 0, 57, 44
2, 65319, Note_on_c, 0, 62, 0
2, 65321, Control_c, 0, 64, 127
2, 65331, Note_on_c, 0, 69, 0
2, 65374, Note_on_c, 0, 41, 0
2, 65385, Note_on_c, 0, 48, 0
2, 65401, Note_on_c, 0, 57, 0
2, 65478, Note_on_c, 0, 81, 56
2, 65481, Note_on_c, 0, 74, 50
2, 65484, Note_on_c, 0, 64, 30
2, 65485, Note_on_c, 0, 69, 40
2, 65487, Note_on_c, 0, 60, 32
2, 65489, Note_on_c, 0, 57, 33
2, 65492, Note_on_c, 0, 53, 34
2, 65504, Control_c, 0, 64, 0
2, 65518, Control_c, 0, 64, 127
2, 65544, Note_on_c, 0, 76, 53
2, 65617, Note_on_c, 0, 60, 0
2, 65628, Note_on_c, 0, 64, 0
2, 65631, Note_on_c, 0, 57, 0
2, 65639, Note_on_c, 0, 53, 0
2, 65642, Note_on_c, 0, 69, 0
2, 65648, Note_on_c, 0, 74, 0
2, 65696, Note_on_c, 0, 81, 0
2, 65704, Note_on_c, 0, 76, 0
2, 65721, Note_on_c, 0, 69, 45
2, 65723, Note_on_c, 0, 62, 31
2, 65724, Note_on_c, 0, 58, 32
2, 65725, Note_on_c, 0, 74, 34
2, 65726, Note_on_c, 0, 57, 29
2, 65735, Control_c, 0, 64, 0
2, 65736, Note_on_c, 0, 52, 48
2, 65781, Control_c, 0, 64, 127
2, 65842, Note_on_c, 0, 69, 0
2, 65853, Note_on_c, 0, 74, 0
2, 65856, Note_on_c, 0, 52, 0
2, 65862, Note_on_c, 0, 57, 0
2, 65872, Note_on_c, 0, 58, 0
2, 65872, Note_on_c, 0, 62, 0
2, 65885, Note_on_c, 0, 84, 62
2, 65915, Note_on_c, 0, 84, 0
2, 65976, Note_on_c, 0, 73, 69
2, 65982, Note_on_c, 0, 66, 58
2, 65985, Note_on_c, 0, 61, 55
2, 65988, Note_on_c, 0, 55, 49
2, 65994, Control_c, 0, 64, 0
2, 66044, Control_c, 0, 64, 127
2, 66115, Note_on_c, 0, 66, 0
2, 66125, Note_on_c, 0, 55, 0
2, 66134, Note_on_c, 0, 61, 0
2, 66140, Note_on_c, 0, 73, 0
2, 66168, Note_on_c, 0, 72, 46
2, 66191, Note_on_c, 0, 72, 0
2, 66208, Note_on_c, 0, 70, 27
2, 66215, Note_on_c, 0, 70, 0
2, 66223, Note_on_c, 0, 69, 45
2, 66230, Note_on_c, 0, 69, 0
2, 66243, Note_on_c, 0, 60, 34
2, 66244, Note_on_c, 0, 57, 34
2, 66245, Note_on_c, 0, 76, 60
2, 66245, Note_on_c, 0, 50, 32
2, 66247, Control_c, 0, 64, 0
2, 66248, Note_on_c, 0, 53, 35
2, 66365, Control_c, 0, 64, 127
2, 66370, Note_on_c, 0, 60, 0
2, 66393, Note_on_c, 0, 76, 0
2, 66439, Note_on_c, 0, 61, 51
2, 66440, Note_on_c, 0, 74, 53
2, 66449, Note_on_c, 0, 65, 27
2, 66453, Note_on_c, 0, 53, 0
2, 66475, Note_on_c, 0, 65, 0
2, 66476, Note_on_c, 0, 57, 0
2, 66477, Note_on_c, 0, 61, 0
2, 66493, Note_on_c, 0, 74, 0
2, 66496, Control_c, 0, 64, 0
2, 66498, Note_on_c, 0, 65, 31
2, 66500, Note_on_c, 0, 60, 32
2, 66501, Note_on_c, 0, 69, 42
2, 66551, Control_c, 0, 64, 127
2, 66609, Note_on_c, 0, 50, 0
2, 66621, Note_on_c, 0, 60, 0
2, 66648, Note_on_c, 0, 65, 0
2, 66650, Note_on_c, 0, 69, 0
2, 66725, Note_on_c, 0, 72, 82
2, 66727, Note_on_c, 0, 58, 35
2, 66732, Note_on_c, 0, 60, 57
2, 66736, Note_on_c, 0, 65, 67
2, 66737, Note_on_c, 0, 69, 62
2, 66739, Control_c, 0, 64, 0
2, 66743, Note_on_c, 0, 62, 65
2, 66834, Control_c, 0, 64, 127
2, 66853, Note_on_c, 0, 69, 0
2, 66857, Note_on_c, 0, 62, 0
2, 66861, Note_on_c, 0, 72, 0
2, 66912, Note_on_c, 0, 65, 0
2, 66925, Note_on_c, 0, 70, 71
2, 66933, Note_on_c, 0, 60, 0
2, 66944, Note_on_c, 0, 58, 0
2, 67005, Note_on_c, 0, 62, 57
2, 67053, Note_on_c, 0, 62, 0
2, 67054, Note_on_c, 0, 70, 0
2, 67091, Note_on_c, 0, 62, 43
2, 67117, Note_on_c, 0, 62, 0
2, 67176, Note_on_c, 0, 60, 37
2, 67177, Note_on_c, 0, 64, 44
2, 67179, Note_on_c, 0, 56, 27
2, 67183, Note_on_c, 0, 46, 29
2, 67185, Control_c, 0, 64, 0
2, 67215, Note_on_c, 0, 60, 0
2, 67216, Control_c, 0, 64, 127
2, 67222, Note_on_c, 0, 64, 0
2, 67287, Note_on_c, 0, 46, 0
2, 67301, Note_on_c, 0, 56, 0
2, 67439, Note_on_c, 0, 67, 35
2, 67442, Note_on_c, 0, 56, 32
2, 67445, Note_on_c, 0, 62, 33
2, 67545, Note_on_c, 0, 67, 0
2, 67547, Note_on_c, 0, 62, 0
2, 67582, Note_on_c, 0, 56, 0
2, 67756, Note_on_c, 0, 76, 80
2, 67757, Note_on_c, 0, 64, 72
2, 67777, Note_on_c, 0, 64, 0
2, 67794, Note_on_c, 0, 76, 0
2, 67913, Note_on_c, 0, 77, 80
2, 67920, Note_on_c, 0, 72, 74
2, 67922, Note_on_c, 0, 55, 61
2, 67922, Note_on_c, 0, 61, 58
2, 67922, Note_on_c, 0, 69, 75
2, 67923, Note_on_c, 0, 76, 53
2, 67925, Control_c, 0, 64, 0
2, 67927, Note_on_c, 0, 66, 58
2, 67934, Note_on_c, 0, 65, 36
2, 67973, Control_c, 0, 64, 127
2, 68009, Note_on_c, 0, 65, 0
2, 68015, Note_on_c, 0, 69, 0
2, 68018, Note_on_c, 0, 72, 0
2, 68019, Note_on_c, 0, 66, 0
2, 68024, Note_on_c, 0, 77, 0
2, 68025, Note_on_c, 0, 76, 0
2, 68027, Note_on_c, 0, 55, 0
2, 68040, Note_on_c, 0, 61, 0
2, 68091, Note_on_c, 0, 79, 62
2, 68098, Note_on_c, 0, 76, 62
2, 68103, Note_on_c, 0, 72, 58
2, 68109, Note_on_c, 0, 67, 33
2, 68123, Note_on_c, 0, 67, 0
2, 68128, Note_on_c, 0, 72, 0
2, 68140, Note_on_c, 0, 76, 0
2, 68143, Note_on_c, 0, 79, 0
2, 68168, Note_on_c, 0, 81, 68
2, 68175, Note_on_c, 0, 77, 56
2, 68176, Control_c, 0, 64, 0
2, 68181, Note_on_c, 0, 74, 51
2, 68181, Note_on_c, 0, 50, 35
2, 68182, Note_on_c, 0, 57, 29
2, 68182, Note_on_c, 0, 60, 37
2, 68185, Note_on_c, 0, 53, 34
2, 68190, Note_on_c, 0, 69, 32
2, 68263, Control_c, 0, 64, 127
2, 68314, Note_on_c, 0, 57, 0
2, 68413, Note_on_c, 0, 81, 0
2, 68427, Note_on_c, 0, 77, 0
2, 68428, Note_on_c, 0, 69, 0
2, 68444, Note_on_c, 0, 74, 0
2, 68450, Note_on_c, 0, 53, 0
2, 68458, Note_on_c, 0, 50, 0
2, 68474, Note_on_c, 0, 60, 0
2, 68639, Note_on_c, 0, 71, 70
2, 68639, Note_on_c, 0, 73, 55
2, 68642, Note_on_c, 0, 63, 36
2, 68646, Note_on_c, 0, 59, 38
2, 68648, Note_on_c, 0, 53, 35
2, 68653, Control_c, 0, 64, 0
2, 68671, Note_on_c, 0, 71, 0
2, 68673, Note_on_c, 0, 73, 0
2, 68675, Note_on_c, 0, 69, 45
2, 68696, Note_on_c, 0, 69, 0
2, 68714, Note_on_c, 0, 73, 59
2, 68714, Note_on_c, 0, 71, 54
2, 68744, Note_on_c, 0, 71, 0
2, 68745, Note_on_c, 0, 73, 0
2, 68758, Note_on_c, 0, 69, 28
2, 68774, Note_on_c, 0, 69, 0
2, 68791, Note_on_c, 0, 73, 42
2, 68792, Note_on_c, 0, 71, 36
2, 68817, Note_on_c, 0, 71, 0
2, 68820, Note_on_c, 0, 73, 0
2, 68829, Note_on_c, 0, 69, 32
2, 68860, Note_on_c, 0, 69, 0
2, 68873, Note_on_c, 0, 73, 46
2, 68877, Note_on_c, 0, 71, 36
2, 68929, Control_c, 0, 64, 127
2, 68987, Note_on_c, 0, 59, 0
2, 68992, Note_on_c, 0, 53, 0
2, 69007, Note_on_c, 0, 63, 0
2, 69099, Note_on_c, 0, 71, 0
2, 69117, Note_on_c, 0, 73, 0
2, 69117, Note_on_c, 0, 56, 33
2, 69119, Control_c, 0, 64, 0
2, 69120, Note_on_c, 0, 67, 28
2, 69121, Note_on_c, 0, 62, 34
2, 69178, Control_c, 0, 64, 127
2, 69205, Control_c, 0, 64, 0
2, 69238, Note_on_c, 0, 74, 47
2, 69241, Note_on_c, 0, 70, 38
2, 69242, Note_on_c, 0, 72, 36
2, 69267, Note_on_c, 0, 72, 0
2, 69267, Note_on_c, 0, 67, 0
2, 69269, Note_on_c, 0, 70, 0
2, 69270, Note_on_c, 0, 74, 0
2, 69276, Note_on_c, 0, 68, 46
2, 69296, Note_on_c, 0, 68, 0
2, 69310, Note_on_c, 0, 70, 61
2, 69312, Note_on_c, 0, 74, 66
2, 69313, Note_on_c, 0, 72, 55
2, 69344, Note_on_c, 0, 72, 0
2, 69344, Note_on_c, 0, 74, 0
2, 69345, Note_on_c, 0, 68, 47
2, 69346, Note_on_c, 0, 70, 0
2, 69363, Note_on_c, 0, 68, 0
2, 69380, Note_on_c, 0, 70, 56
2, 69381, Note_on_c, 0, 74, 58
2, 69384, Note_on_c, 0, 72, 53
2, 69398, Control_c, 0, 64, 127
2, 69410, Note_on_c, 0, 74, 0
2, 69411, Note_on_c, 0, 72, 0
2, 69415, Note_on_c, 0, 70, 0
2, 69418, Note_on_c, 0, 68, 55
2, 69438, Note_on_c, 0, 68, 0
2, 69462, Note_on_c, 0, 70, 47
2, 69462, Note_on_c, 0, 74, 48
2, 69465, Note_on_c, 0, 72, 44
2, 69466, Control_c, 0, 64, 0
2, 69509, Control_c, 0, 64, 127
2, 69511, Note_on_c, 0, 62, 0
2, 69522, Note_on_c, 0, 72, 0
2, 69567, Note_on_c, 0, 70, 0
2, 69572, Note_on_c, 0, 56, 0
2, 69591, Note_on_c, 0, 74, 0
2, 69604, Note_on_c, 0, 73, 42
2, 69606, Note_on_c, 0, 61, 34
2, 69606, Control_c, 0, 64, 0
2, 69607, Note_on_c, 0, 55, 33
2, 69607, Note_on_c, 0, 64, 26
2, 69608, Note_on_c, 0, 69, 25
2, 69643, Control_c, 0, 64, 127
2, 69703, Note_on_c, 0, 64, 0
2, 69711, Note_on_c, 0, 69, 0
2, 69712, Note_on_c, 0, 61, 0
2, 69724, Note_on_c, 0, 55, 0
2, 69724, Note_on_c, 0, 73, 0
2, 69807, Note_on_c, 0, 50, 55
2, 69808, Note_on_c, 0, 74, 62
2, 69808, Note_on_c, 0, 62, 67
2, 69830, Note_on_c, 0, 62, 0
2, 69831, Note_on_c, 0, 74, 0
2, 69849, Note_on_c, 0, 50, 0
2, 69853, Control_c, 0, 64, 0
2, 69853, Note_on_c, 0, 64, 80
2, 69854, Note_on_c, 0, 52, 87
2, 69854, Note_on_c, 0, 76, 82
2, 69896, Control_c, 0, 64, 127
2, 69924, Note_on_c, 0, 64, 0
2, 69928, Note_on_c, 0, 76, 0
2, 69946, Control_c, 0, 64, 0
2, 69964, Note_on_c, 0, 53, 71
2, 69965, Note_on_c, 0, 77, 79
2, 69965, Note_on_c, 0, 65, 79
2, 69970, Note_on_c, 0, 52, 0
2, 69981, Note_on_c, 0, 53, 0
2, 69986, Control_c, 0, 64, 127
2, 70002, Note_on_c, 0, 65, 0
2, 70013, Note_on_c, 0, 77, 0
2, 70081, Note_on_c, 0, 57, 53
2, 70086, Note_on_c, 0, 81, 88
2, 70086, Note_on_c, 0, 52, 64
2, 70086, Note_on_c, 0, 58, 69
2, 70086, Note_on_c, 0, 77, 76
2, 70087, Note_on_c, 0, 74, 81
2, 70091, Note_on_c, 0, 69, 75
2, 70092, Note_on_c, 0, 62, 75
2, 70093, Control_c, 0, 64, 0
2, 70193, Control_c, 0, 64, 127
2, 70240, Note_on_c, 0, 58, 0
2, 70254, Note_on_c, 0, 62, 0
2, 70266, Note_on_c, 0, 74, 0
2, 70273, Note_on_c, 0, 69, 0
2, 70320, Note_on_c, 0, 77, 0
2, 70320, Note_on_c, 0, 69, 44
2, 70320, Note_on_c, 0, 62, 26
2, 70323, Note_on_c, 0, 58, 27
2, 70324, Note_on_c, 0, 74, 36
2, 70351, Note_on_c, 0, 81, 0
2, 70418, Note_on_c, 0, 52, 0
2, 70431, Note_on_c, 0, 57, 0
2, 70443, Note_on_c, 0, 58, 0
2, 70449, Note_on_c, 0, 62, 0
2, 70489, Note_on_c, 0, 69, 0
2, 70496, Note_on_c, 0, 74, 0
2, 70529, Note_on_c, 0, 79, 60
2, 70555, Note_on_c, 0, 79, 0
2, 70570, Note_on_c, 0, 77, 46
2, 70572, Note_on_c, 0, 69, 38
2, 70574, Note_on_c, 0, 72, 36
2, 70574, Note_on_c, 0, 66, 35
2, 70575, Note_on_c, 0, 61, 35
2, 70576, Note_on_c, 0, 55, 44
2, 70581, Control_c, 0, 64, 0
2, 70644, Control_c, 0, 64, 127
2, 70663, Note_on_c, 0, 69, 0
2, 70677, Note_on_c, 0, 72, 0
2, 70681, Note_on_c, 0, 55, 0
2, 70683, Note_on_c, 0, 66, 0
2, 70691, Note_on_c, 0, 77, 0
2, 70696, Note_on_c, 0, 61, 0
2, 70796, Note_on_c, 0, 61, 54
2, 70797, Note_on_c, 0, 55, 68
2, 70798, Note_on_c, 0, 64, 60
2, 70798, Note_on_c, 0, 88, 84
2, 70800, Note_on_c, 0, 76, 74
2, 70801, Note_on_c, 0, 83, 69
2, 70853, Note_on_c, 0, 83, 0
2, 70854, Note_on_c, 0, 88, 0
2, 70855, Note_on_c, 0, 76, 0
2, 70858, Note_on_c, 0, 55, 0
2, 70861, Note_on_c, 0, 64, 0
2, 70869, Note_on_c, 0, 61, 0
2, 70888, Note_on_c, 0, 61, 45
2, 70888, Note_on_c, 0, 86, 55
2, 70889, Note_on_c, 0, 55, 60
2, 70892, Note_on_c, 0, 81, 61
2, 70892, Note_on_c, 0, 64, 48
2, 70892, Note_on_c, 0, 74, 50
2, 70905, Control_c, 0, 64, 0
2, 70910, Note_on_c, 0, 74, 0
2, 70910, Note_on_c, 0, 64, 0
2, 70912, Control_c, 0, 64, 127
2, 70915, Note_on_c, 0, 55, 0
2, 70916, Note_on_c, 0, 81, 0
2, 70920, Note_on_c, 0, 61, 0
2, 70922, Note_on_c, 0, 86, 0
2, 70968, Note_on_c, 0, 61, 51
2, 70969, Note_on_c, 0, 55, 54
2, 70970, Note_on_c, 0, 88, 46
2, 70971, Note_on_c, 0, 76, 45
2, 70972, Note_on_c, 0, 83, 49
2, 70972, Note_on_c, 0, 64, 29
2, 70978, Note_on_c, 0, 55, 0
2, 70981, Note_on_c, 0, 64, 0
2, 70983, Note_on_c, 0, 61, 0
2, 70990, Note_on_c, 0, 76, 0
2, 70994, Note_on_c, 0, 83, 0
2, 70998, Note_on_c, 0, 88, 0
2, 71048, Note_on_c, 0, 50, 35
2, 71048, Note_on_c, 0, 60, 42
2, 71049, Note_on_c, 0, 89, 44
2, 71049, Control_c, 0, 64, 0
2, 71050, Note_on_c, 0, 57, 36
2, 71050, Note_on_c, 0, 77, 35
2, 71051, Note_on_c, 0, 84, 53
2, 71051, Note_on_c, 0, 53, 56
2, 71089, Control_c, 0, 64, 127
2, 71111, Note_on_c, 0, 89, 0
2, 71121, Note_on_c, 0, 84, 0
2, 71141, Note_on_c, 0, 77, 0
2, 71199, Note_on_c, 0, 53, 0
2, 71207, Note_on_c, 0, 50, 0
2, 71207, Note_on_c, 0, 57, 0
2, 71217, Note_on_c, 0, 60, 0
2, 71315, Control_c, 0, 64, 0
2, 71318, Note_on_c, 0, 61, 58
2, 71318, Note_on_c, 0, 69, 67
2, 71318, Note_on_c, 0, 76, 66
2, 71322, Note_on_c, 0, 73, 56
2, 71340, Note_on_c, 0, 69, 0
2, 71350, Note_on_c, 0, 76, 0
2, 71351, Note_on_c, 0, 73, 0
2, 71360, Note_on_c, 0, 79, 81
2, 71360, Note_on_c, 0, 64, 64
2, 71362, Note_on_c, 0, 61, 0
2, 71362, Note_on_c, 0, 73, 56
2, 71362, Note_on_c, 0, 69, 61
2, 71371, Control_c, 0, 64, 127
2, 71385, Note_on_c, 0, 64, 0
2, 71386, Control_c, 0, 64, 0
2, 71388, Note_on_c, 0, 79, 0
2, 71388, Note_on_c, 0, 69, 0
2, 71392, Note_on_c, 0, 73, 0
2, 71406, Note_on_c, 0, 77, 80
2, 71407, Note_on_c, 0, 69, 71
2, 71407, Note_on_c, 0, 62, 66
2, 71435, Control_c, 0, 64, 127
2, 71455, Note_on_c, 0, 69, 0
2, 71456, Note_on_c, 0, 77, 0
2, 71462, Note_on_c, 0, 62, 0
2, 71482, Note_on_c, 0, 72, 59
2, 71486, Note_on_c, 0, 65, 55
2, 71487, Note_on_c, 0, 60, 56
2, 71490, Control_c, 0, 64, 0
2, 71491, Note_on_c, 0, 69, 53
2, 71516, Note_on_c, 0, 69, 0
2, 71517, Note_on_c, 0, 72, 0
2, 71524, Control_c, 0, 64, 127
2, 71525, Note_on_c, 0, 65, 0
2, 71544, Note_on_c, 0, 60, 0
2, 71561, Note_on_c, 0, 69, 52
2, 71562, Control_c, 0, 64, 0
2, 71563, Note_on_c, 0, 66, 43
2, 71564, Note_on_c, 0, 64, 34
2, 71568, Note_on_c, 0, 57, 41
2, 71578, Control_c, 0, 64, 127
2, 71591, Note_on_c, 0, 69, 0
2, 71599, Note_on_c, 0, 66, 0
2, 71605, Note_on_c, 0, 64, 0
2, 71635, Note_on_c, 0, 57, 0
2, 71643, Note_on_c, 0, 66, 46
2, 71644, Control_c, 0, 64, 0
2, 71645, Note_on_c, 0, 60, 31
2, 71648, Note_on_c, 0, 54, 45
2, 71651, Note_on_c, 0, 64, 28
2, 71664, Control_c, 0, 64, 127
2, 71667, Note_on_c, 0, 54, 0
2, 71673, Note_on_c, 0, 64, 0
2, 71681, Note_on_c, 0, 66, 0
2, 71692, Note_on_c, 0, 60, 0
2, 71732, Note_on_c, 0, 50, 48
2, 71745, Note_on_c, 0, 65, 12
2, 71745, Control_c, 0, 64, 0
2, 71787, Control_c, 0, 64, 127
2, 71788, Note_on_c, 0, 65, 0
2, 71801, Note_on_c, 0, 54, 35
2, 71809, Note_on_c, 0, 60, 46
2, 71815, Note_on_c, 0, 62, 16
2, 71827, Note_on_c, 0, 62, 0
2, 71839, Note_on_c, 0, 60, 0
2, 71853, Note_on_c, 0, 54, 0
2, 71882, Note_on_c, 0, 54, 27
2, 71886, Note_on_c, 0, 61, 37
2, 71890, Note_on_c, 0, 44, 34
2, 71891, Note_on_c, 0, 58, 31
2, 71912, Note_on_c, 0, 50, 0
2, 71927, Note_on_c, 0, 54, 0
2, 71932, Note_on_c, 0, 61, 0
2, 71933, Note_on_c, 0, 58, 0
2, 71944, Note_on_c, 0, 44, 0
2, 71970, Control_c, 0, 64, 0
2, 71971, Note_on_c, 0, 60, 49
2, 71976, Note_on_c, 0, 43, 41
2, 71977, Note_on_c, 0, 57, 34
2, 71978, Note_on_c, 0, 53, 29
2, 71979, Note_on_c, 0, 50, 28
2, 71997, Note_on_c, 0, 53, 0
2, 72002, Note_on_c, 0, 57, 0
2, 72008, Note_on_c, 0, 60, 0
2, 72009, Control_c, 0, 64, 127
2, 72018, Note_on_c, 0, 50, 0
2, 72019, Note_on_c, 0, 43, 0
2, 72176, Note_on_c, 0, 84, 67
2, 72179, Note_on_c, 0, 72, 47
2, 72179, Note_on_c, 0, 62, 55
2, 72182, Note_on_c, 0, 58, 36
2, 72184, Note_on_c, 0, 60, 41
2, 72185, Control_c, 0, 64, 0
2, 72186, Note_on_c, 0, 84, 0
2, 72187, Note_on_c, 0, 72, 0
2, 72191, Note_on_c, 0, 60, 0
2, 72191, Note_on_c, 0, 62, 0
2, 72197, Note_on_c, 0, 58, 0
2, 72208, Note_on_c, 0, 84, 65
2, 72209, Note_on_c, 0, 72, 48
2, 72210, Note_on_c, 0, 58, 27
2, 72211, Note_on_c, 0, 62, 59
2, 72213, Note_on_c, 0, 60, 40
2, 72213, Note_on_c, 0, 77, 48
2, 72214, Note_on_c, 0, 81, 36
2, 72222, Note_on_c, 0, 77, 0
2, 72222, Note_on_c, 0, 60, 0
2, 72224, Note_on_c, 0, 81, 0
2, 72226, Note_on_c, 0, 72, 0
2, 72227, Note_on_c, 0, 62, 0
2, 72228, Note_on_c, 0, 84, 0
2, 72233, Note_on_c, 0, 58, 0
2, 72249, Note_on_c, 0, 84, 78
2, 72252, Note_on_c, 0, 58, 71
2, 72252, Note_on_c, 0, 62, 72
2, 72252, Note_on_c, 0, 72, 77
2, 72253, Note_on_c, 0, 77, 78
2, 72253, Note_on_c, 0, 60, 80
2, 72254, Note_on_c, 0, 81, 72
2, 72284, Note_on_c, 0, 77, 0
2, 72286, Note_on_c, 0, 72, 0
2, 72287, Note_on_c, 0, 84, 0
2, 72290, Note_on_c, 0, 60, 0
2, 72290, Note_on_c, 0, 81, 0
2, 72291, Note_on_c, 0, 62, 0
2, 72297, Note_on_c, 0, 84, 58
2, 72297, Note_on_c, 0, 62, 48
2, 72301, Note_on_c, 0, 72, 64
2, 72301, Note_on_c, 0, 60, 65
2, 72301, Note_on_c, 0, 77, 71
2, 72303, Note_on_c, 0, 81, 58
2, 72318, Note_on_c, 0, 77, 0
2, 72318, Note_on_c, 0, 72, 0
2, 72323, Note_on_c, 0, 60, 0
2, 72323, Note_on_c, 0, 81, 0
2, 72324, Note_on_c, 0, 84, 0
2, 72324, Note_on_c, 0, 62, 0
2, 72328, Note_on_c, 0, 58, 0
2, 72379, Note_on_c, 0, 58, 63
2, 72379, Note_on_c, 0, 62, 73
2, 72380, Note_on_c, 0, 60, 68
2, 72382, Note_on_c, 0, 84, 77
2, 72382, Note_on_c, 0, 72, 74
2, 72384, Note_on_c, 0, 81, 52
2, 72385, Note_on_c, 0, 77, 53
2, 72394, Note_on_c, 0, 81, 0
2, 72395, Note_on_c, 0, 77, 0
2, 72397, Note_on_c, 0, 62, 0
2, 72399, Note_on_c, 0, 72, 0
2, 72401, Note_on_c, 0, 60, 0
2, 72403, Note_on_c, 0, 84, 0
2, 72411, Note_on_c, 0, 58, 0
2, 72456, Note_on_c, 0, 82, 73
2, 72458, Note_on_c, 0, 70, 69
2, 72459, Note_on_c, 0, 58, 59
2, 72461, Note_on_c, 0, 62, 55
2, 72463, Note_on_c, 0, 75, 34
2, 72464, Note_on_c, 0, 60, 48
2, 72471, Note_on_c, 0, 60, 0
2, 72471, Note_on_c, 0, 62, 0
2, 72471, Note_on_c, 0, 75, 0
2, 72480, Note_on_c, 0, 70, 0
2, 72482, Note_on_c, 0, 82, 0
2, 72483, Note_on_c, 0, 58, 0
2, 72523, Note_on_c, 0, 81, 64
2, 72524, Note_on_c, 0, 69, 61
2, 72527, Note_on_c, 0, 73, 39
2, 72528, Note_on_c, 0, 58, 43
2, 72528, Note_on_c, 0, 62, 54
2, 72529, Note_on_c, 0, 52, 58
2, 72529, Note_on_c, 0, 76, 44
2, 72548, Control_c, 0, 64, 127
2, 72565, Note_on_c, 0, 81, 0
2, 72566, Note_on_c, 0, 62, 0
2, 72567, Note_on_c, 0, 69, 0
2, 72568, Note_on_c, 0, 58, 0
2, 72570, Note_on_c, 0, 76, 0
2, 72571, Note_on_c, 0, 52, 0
2, 72574, Note_on_c, 0, 73, 0
2, 72582, Control_c, 0, 64, 0
2, 72604, Note_on_c, 0, 73, 55
2, 72606, Note_on_c, 0, 79, 45
2, 72608, Note_on_c, 0, 67, 44
2, 72608, Note_on_c, 0, 58, 39
2, 72609, Note_on_c, 0, 76, 44
2, 72609, Note_on_c, 0, 52, 49
2, 72611, Note_on_c, 0, 62, 39
2, 72616, Control_c, 0, 64, 127
2, 72727, Note_on_c, 0, 76, 0
2, 72731, Note_on_c, 0, 79, 0
2, 72733, Note_on_c, 0, 73, 0
2, 72734, Note_on_c, 0, 62, 0
2, 72737, Note_on_c, 0, 67, 0
2, 72740, Note_on_c, 0, 52, 0
2, 72761, Note_on_c, 0, 58, 0
2, 72796, Note_on_c, 0, 73, 30
2, 72797, Note_on_c, 0, 77, 36
2, 72799, Control_c, 0, 64, 0
2, 72800, Note_on_c, 0, 58, 31
2, 72800, Note_on_c, 0, 52, 37
2, 72800, Note_on_c, 0, 65, 35
2, 72801, Note_on_c, 0, 70, 39
2, 72803, Note_on_c, 0, 60, 34
2, 72818, Note_on_c, 0, 70, 0
2, 72821, Note_on_c, 0, 65, 0
2, 72822, Note_on_c, 0, 73, 0
2, 72822, Note_on_c, 0, 60, 0
2, 72826, Note_on_c, 0, 52, 0
2, 72831, Note_on_c, 0, 77, 0
2, 72833, Note_on_c, 0, 58, 0
2, 72834, Control_c, 0, 64, 127
2, 72875, Note_on_c, 0, 58, 35
2, 72880, Note_on_c, 0, 67, 36
2, 72884, Note_on_c, 0, 58, 0
2, 72889, Note_on_c, 0, 67, 0
2, 72908, Note_on_c, 0, 58, 43
2, 72910, Note_on_c, 0, 80, 71
2, 72911, Note_on_c, 0, 68, 67
2, 72912, Note_on_c, 0, 52, 36
2, 72912, Note_on_c, 0, 60, 48
2, 72921, Note_on_c, 0, 52, 0
2, 72929, Note_on_c, 0, 60, 0
2, 72931, Note_on_c, 0, 68, 0
2, 72933, Note_on_c, 0, 58, 0
2, 72937, Note_on_c, 0, 80, 0
2, 72957, Note_on_c, 0, 77, 62
2, 72958, Note_on_c, 0, 69, 67
2, 72958, Control_c, 0, 64, 0
2, 72959, Note_on_c, 0, 53, 44
2, 72959, Note_on_c, 0, 81, 60
2, 72959, Note_on_c, 0, 74, 56
2, 72960, Note_on_c, 0, 57, 42
2, 72961, Note_on_c, 0, 60, 53
2, 72961, Note_on_c, 0, 64, 43
2, 73059, Control_c, 0, 64, 127
2, 73103, Note_on_c, 0, 81, 0
2, 73105, Note_on_c, 0, 77, 0
2, 73107, Note_on_c, 0, 69, 0
2, 73110, Note_on_c, 0, 57, 0
2, 73110, Note_on_c, 0, 60, 0
2, 73112, Note_on_c, 0, 53, 0
2, 73112, Note_on_c, 0, 74, 0
2, 73114, Note_on_c, 0, 64, 0
2, 73409, Note_on_c, 0, 76, 84
2, 73410, Note_on_c, 0, 72, 85
2, 73414, Note_on_c, 0, 62, 73
2, 73415, Control_c, 0, 64, 0
2, 73415, Note_on_c, 0, 67, 74
2, 73416, Note_on_c, 0, 57, 70
2, 73460, Control_c, 0, 64, 127
2, 73473, Note_on_c, 0, 67, 0
2, 73474, Note_on_c, 0, 57, 0
2, 73486, Note_on_c, 0, 62, 0
2, 73488, Note_on_c, 0, 72, 0
2, 73498, Note_on_c, 0, 76, 0
2, 73512, Control_c, 0, 64, 0
2, 73523, Note_on_c, 0, 58, 60
2, 73525, Note_on_c, 0, 77, 75
2, 73527, Note_on_c, 0, 73, 77
2, 73528, Note_on_c, 0, 63, 57
2, 73530, Note_on_c, 0, 68, 48
2, 73547, Note_on_c, 0, 68, 0
2, 73563, Note_on_c, 0, 58, 0
2, 73563, Note_on_c, 0, 77, 0
2, 73566, Note_on_c, 0, 63, 0
2, 73568, Note_on_c, 0, 73, 0
2, 73580, Note_on_c, 0, 67, 41
2, 73582, Note_on_c, 0, 72, 33
2, 73584, Note_on_c, 0, 62, 39
2, 73585, Note_on_c, 0, 76, 47
2, 73586, Note_on_c, 0, 57, 30
2, 73590, Note_on_c, 0, 67, 0
2, 73593, Note_on_c, 0, 62, 0
2, 73597, Note_on_c, 0, 76, 0
2, 73598, Note_on_c, 0, 57, 0
2, 73599, Note_on_c, 0, 72, 0
2, 73653, Note_on_c, 0, 70, 59
2, 73653, Note_on_c, 0, 74, 57
2, 73659, Note_on_c, 0, 60, 28
2, 73667, Note_on_c, 0, 60, 0
2, 73671, Note_on_c, 0, 70, 0
2, 73677, Note_on_c, 0, 74, 0
2, 73693, Note_on_c, 0, 61, 51
2, 73695, Note_on_c, 0, 76, 62
2, 73698, Note_on_c, 0, 72, 60
2, 73704, Note_on_c, 0, 65, 31
2, 73706, Note_on_c, 0, 61, 0
2, 73712, Note_on_c, 0, 65, 0
2, 73714, Control_c, 0, 64, 127
2, 73742, Note_on_c, 0, 72, 0
2, 73795, Control_c, 0, 64, 0
2, 73804, Note_on_c, 0, 70, 56
2, 73806, Note_on_c, 0, 62, 38
2, 73809, Control_c, 0, 64, 127
2, 73809, Note_on_c, 0, 58, 30
2, 73810, Note_on_c, 0, 65, 40
2, 73812, Note_on_c, 0, 76, 0
2, 73812, Note_on_c, 0, 52, 29
2, 73818, Note_on_c, 0, 62, 0
2, 73827, Note_on_c, 0, 58, 0
2, 73828, Note_on_c, 0, 52, 0
2, 73855, Note_on_c, 0, 70, 0
2, 73862, Note_on_c, 0, 65, 0
2, 73919, Note_on_c, 0, 69, 45
2, 73920, Control_c, 0, 64, 0
2, 73922, Note_on_c, 0, 65, 35
2, 73924, Note_on_c, 0, 57, 27
2, 73925, Note_on_c, 0, 60, 29
2, 73979, Control_c, 0, 64, 127
2, 73990, Control_c, 0, 64, 0
2, 74026, Control_c, 0, 64, 127
2, 74038, Note_on_c, 0, 69, 0
2, 74049, Note_on_c, 0, 65, 0
2, 74052, Note_on_c, 0, 60, 0
2, 74110, Note_on_c, 0, 50, 61
2, 74123, Note_on_c, 0, 57, 0
2, 74133, Note_on_c, 0, 50, 0
2, 74175, Note_on_c, 0, 76, 87
2, 74176, Control_c, 0, 64, 0
2, 74176, Note_on_c, 0, 61, 77
2, 74177, Note_on_c, 0, 69, 80
2, 74177, Note_on_c, 0, 65, 80
2, 74203, Control_c, 0, 64, 127
2, 74233, Note_on_c, 0, 76, 0
2, 74247, Note_on_c, 0, 65, 0
2, 74254, Note_on_c, 0, 61, 0
2, 74260, Control_c, 0, 64, 0
2, 74260, Note_on_c, 0, 74, 65
2, 74264, Note_on_c, 0, 65, 64
2, 74264, Note_on_c, 0, 60, 59
2, 74289, Control_c, 0, 64, 127
2, 74306, Note_on_c, 0, 69, 0
2, 74315, Note_on_c, 0, 60, 0
2, 74318, Note_on_c, 0, 65, 0
2, 74323, Note_on_c, 0, 74, 0
2, 74341, Note_on_c, 0, 67, 40
2, 74342, Note_on_c, 0, 57, 31
2, 74343, Note_on_c, 0, 65, 60
2, 74361, Note_on_c, 0, 65, 0
2, 74362, Note_on_c, 0, 67, 0
2, 74363, Note_on_c, 0, 57, 0
2, 74408, Note_on_c, 0, 72, 76
2, 74409, Note_on_c, 0, 65, 71
2, 74411, Note_on_c, 0, 62, 63
2, 74414, Control_c, 0, 64, 0
2, 74414, Note_on_c, 0, 58, 39
2, 74441, Control_c, 0, 64, 127
2, 74472, Note_on_c, 0, 72, 0
2, 74474, Note_on_c, 0, 62, 0
2, 74486, Note_on_c, 0, 58, 0
2, 74491, Note_on_c, 0, 70, 61
2, 74491, Control_c, 0, 64, 0
2, 74495, Note_on_c, 0, 62, 44
2, 74495, Note_on_c, 0, 57, 44
2, 74512, Note_on_c, 0, 65, 0
2, 74515, Control_c, 0, 64, 127
2, 74518, Note_on_c, 0, 70, 0
2, 74531, Note_on_c, 0, 62, 0
2, 74540, Note_on_c, 0, 57, 0
2, 74562, Note_on_c, 0, 61, 33
2, 74570, Note_on_c, 0, 61, 0
2, 74575, Note_on_c, 0, 52, 54
2, 74576, Note_on_c, 0, 62, 34
2, 74593, Note_on_c, 0, 52, 0
2, 74612, Note_on_c, 0, 62, 0
2, 74647, Note_on_c, 0, 69, 59
2, 74649, Control_c, 0, 64, 0
2, 74651, Note_on_c, 0, 58, 39
2, 74651, Note_on_c, 0, 62, 50
2, 74652, Note_on_c, 0, 54, 34
2, 74697, Control_c, 0, 64, 127
2, 74711, Note_on_c, 0, 54, 0
2, 74714, Note_on_c, 0, 69, 0
2, 74717, Note_on_c, 0, 58, 0
2, 74729, Control_c, 0, 64, 0
2, 74730, Note_on_c, 0, 58, 27
2, 74732, Note_on_c, 0, 67, 50
2, 74740, Note_on_c, 0, 53, 33
2, 74767, Control_c, 0, 64, 127
2, 74785, Note_on_c, 0, 62, 0
2, 74788, Note_on_c, 0, 53, 0
2, 74808, Note_on_c, 0, 67, 0
2, 74809, Note_on_c, 0, 62, 47
2, 74841, Note_on_c, 0, 62, 0
2, 74841, Note_on_c, 0, 58, 0
2, 74890, Control_c, 0, 64, 0
2, 74919, Control_c, 0, 64, 127
2, 74946, Control_c, 0, 64, 0
2, 74957, Note_on_c, 0, 46, 45
2, 75013, Note_on_c, 0, 55, 40
2, 75014, Control_c, 0, 64, 127
2, 75020, Note_on_c, 0, 55, 0
2, 75047, Note_on_c, 0, 46, 0
2, 75050, Note_on_c, 0, 60, 54
2, 75072, Note_on_c, 0, 60, 0
2, 75081, Note_on_c, 0, 64, 66
2, 75092, Note_on_c, 0, 64, 0
2, 75123, Note_on_c, 0, 72, 54
2, 75131, Note_on_c, 0, 72, 0
2, 75160, Note_on_c, 0, 76, 68
2, 75178, Note_on_c, 0, 76, 0
2, 75196, Note_on_c, 0, 79, 85
2, 75197, Note_on_c, 0, 56, 49
2, 75199, Note_on_c, 0, 62, 49
2, 75199, Note_on_c, 0, 72, 80
2, 75199, Note_on_c, 0, 67, 34
2, 75206, Control_c, 0, 64, 0
2, 75228, Note_on_c, 0, 67, 0
2, 75229, Note_on_c, 0, 72, 0
2, 75235, Note_on_c, 0, 79, 0
2, 75237, Note_on_c, 0, 62, 0
2, 75241, Note_on_c, 0, 77, 62
2, 75243, Control_c, 0, 64, 127
2, 75255, Note_on_c, 0, 62, 42
2, 75257, Note_on_c, 0, 67, 19
2, 75272, Note_on_c, 0, 67, 0
2, 75294, Note_on_c, 0, 62, 0
2, 75323, Note_on_c, 0, 56, 0
2, 75338, Note_on_c, 0, 77, 0
2, 75348, Note_on_c, 0, 72, 49
2, 75351, Note_on_c, 0, 55, 32
2, 75352, Note_on_c, 0, 65, 33
2, 75356, Note_on_c, 0, 61, 46
2, 75358, Note_on_c, 0, 67, 25
2, 75363, Control_c, 0, 64, 0
2, 75405, Control_c, 0, 64, 127
2, 75456, Note_on_c, 0, 67, 0
2, 75458, Note_on_c, 0, 65, 0
2, 75461, Note_on_c, 0, 72, 0
2, 75506, Note_on_c, 0, 61, 0
2, 75517, Note_on_c, 0, 55, 0
2, 75808, Note_on_c, 0, 86, 80
2, 75831, Note_on_c, 0, 86, 0
2, 75846, Note_on_c, 0, 80, 54
2, 75850, Control_c, 0, 64, 0
2, 75853, Note_on_c, 0, 60, 29
2, 75854, Note_on_c, 0, 57, 24
2, 75857, Note_on_c, 0, 80, 0
2, 75857, Note_on_c, 0, 53, 35
2, 75857, Note_on_c, 0, 50, 25
2, 75863, Note_on_c, 0, 79, 41
2, 75892, Note_on_c, 0, 79, 0
2, 75905, Note_on_c, 0, 77, 36
2, 75918, Control_c, 0, 64, 127
2, 75931, Note_on_c, 0, 77, 0
2, 75937, Note_on_c, 0, 74, 41
2, 75945, Control_c, 0, 64, 0
2, 75949, Note_on_c, 0, 74, 0
2, 75973, Note_on_c, 0, 77, 73
2, 76020, Control_c, 0, 64, 127
2, 76036, Note_on_c, 0, 77, 0
2, 76039, Note_on_c, 0, 50, 0
2, 76039, Note_on_c, 0, 53, 0
2, 76043, Note_on_c, 0, 79, 65
2, 76044, Note_on_c, 0, 57, 0
2, 76054, Note_on_c, 0, 60, 0
2, 76073, Note_on_c, 0, 79, 0
2, 76087, Note_on_c, 0, 77, 48
2, 76163, Note_on_c, 0, 74, 58
2, 76164, Note_on_c, 0, 63, 48
2, 76165, Note_on_c, 0, 68, 48
2, 76166, Note_on_c, 0, 57, 44
2, 76172, Control_c, 0, 64, 0
2, 76178, Note_on_c, 0, 77, 0
2, 76210, Control_c, 0, 64, 127
2, 76264, Note_on_c, 0, 57, 0
2, 76276, Note_on_c, 0, 68, 0
2, 76299, Note_on_c, 0, 63, 0
2, 76302, Note_on_c, 0, 74, 0
2, 76320, Note_on_c, 0, 77, 45
2, 76322, Note_on_c, 0, 67, 37
2, 76322, Note_on_c, 0, 62, 38
2, 76324, Note_on_c, 0, 56, 30
2, 76326, Control_c, 0, 64, 0
2, 76390, Note_on_c, 0, 77, 0
2, 76399, Note_on_c, 0, 79, 44
2, 76417, Note_on_c, 0, 77, 43
2, 76423, Note_on_c, 0, 79, 0
2, 76446, Note_on_c, 0, 74, 32
2, 76449, Note_on_c, 0, 62, 0
2, 76449, Note_on_c, 0, 77, 0
2, 76462, Note_on_c, 0, 67, 0
2, 76483, Control_c, 0, 64, 127
2, 76487, Note_on_c, 0, 74, 0
2, 76511, Note_on_c, 0, 56, 0
2, 76522, Note_on_c, 0, 77, 75
2, 76525, Note_on_c, 0, 65, 40
2, 76525, Note_on_c, 0, 55, 47
2, 76526, Note_on_c, 0, 61, 44
2, 76528, Control_c, 0, 64, 0
2, 76599, Control_c, 0, 64, 127
2, 76623, Note_on_c, 0, 77, 0
2, 76635, Note_on_c, 0, 79, 43
2, 76644, Note_on_c, 0, 65, 0
2, 76651, Note_on_c, 0, 77, 38
2, 76652, Note_on_c, 0, 79, 0
2, 76664, Note_on_c, 0, 61, 0
2, 76673, Note_on_c, 0, 77, 0
2, 76673, Note_on_c, 0, 74, 53
2, 76676, Note_on_c, 0, 55, 0
2, 76691, Note_on_c, 0, 74, 0
2, 76713, Note_on_c, 0, 77, 36
2, 76780, Note_on_c, 0, 77, 0
2, 76793, Control_c, 0, 64, 0
2, 76798, Note_on_c, 0, 49, 50
2, 76806, Note_on_c, 0, 49, 0
2, 76807, Note_on_c, 0, 79, 60
2, 76808, Note_on_c, 0, 50, 50
2, 76813, Note_on_c, 0, 79, 0
2, 76861, Note_on_c, 0, 50, 0
2, 76885, Note_on_c, 0, 65, 53
2, 76895, Note_on_c, 0, 65, 0
2, 76920, Note_on_c, 0, 74, 51
2, 76920, Note_on_c, 0, 68, 55
2, 76950, Note_on_c, 0, 74, 0
2, 76953, Note_on_c, 0, 68, 0
2, 77040, Note_on_c, 0, 67, 67
2, 77041, Note_on_c, 0, 74, 68
2, 77093, Note_on_c, 0, 74, 0
2, 77117, Note_on_c, 0, 67, 0
2, 77241, Note_on_c, 0, 62, 58
2, 77249, Note_on_c, 0, 62, 0
2, 77281, Note_on_c, 0, 65, 64
2, 77300, Note_on_c, 0, 65, 0
2, 77310, Note_on_c, 0, 67, 45
2, 77339, Note_on_c, 0, 65, 38
2, 77341, Note_on_c, 0, 67, 0
2, 77363, Note_on_c, 0, 65, 0
2, 77370, Note_on_c, 0, 62, 42
2, 77388, Note_on_c, 0, 62, 0
2, 77405, Note_on_c, 0, 61, 38
2, 77471, Note_on_c, 0, 61, 0
2, 77481, Note_on_c, 0, 64, 78
2, 77508, Note_on_c, 0, 64, 0
2, 77529, Note_on_c, 0, 62, 33
2, 77589, Note_on_c, 0, 62, 0
2, 77596, Note_on_c, 0, 57, 54
2, 77617, Note_on_c, 0, 57, 0
2, 77640, Note_on_c, 0, 55, 47
2, 77717, Note_on_c, 0, 55, 0
2, 77730, Note_on_c, 0, 52, 26
2, 77737, Note_on_c, 0, 52, 0
2, 77762, Note_on_c, 0, 55, 60
2, 77820, Note_on_c, 0, 55, 0
2, 77830, Note_on_c, 0, 57, 38
2, 77848, Note_on_c, 0, 57, 0
2, 77856, Note_on_c, 0, 55, 49
2, 77862, Note_on_c, 0, 54, 53
2, 77864, Note_on_c, 0, 55, 0
2, 77873, Note_on_c, 0, 54, 0
2, 77886, Note_on_c, 0, 55, 62
2, 78202, Note_on_c, 0, 55, 0
2, 78218, Control_c, 0, 64, 127
2, 78231, Control_c, 0, 64, 0
2, 78235, Note_on_c, 0, 52, 22
2, 78243, Note_on_c, 0, 52, 0
2, 78254, Note_on_c, 0, 58, 67
2, 78277, Note_on_c, 0, 58, 0
2, 78285, Note_on_c, 0, 57, 46
2, 78303, Note_on_c, 0, 57, 0
2, 78314, Note_on_c, 0, 58, 47
2, 78335, Note_on_c, 0, 58, 0
2, 78350, Note_on_c, 0, 60, 55
2, 78366, Note_on_c, 0, 60, 0
2, 78374, Note_on_c, 0, 61, 56
2, 78404, Note_on_c, 0, 61, 0
2, 78415, Note_on_c, 0, 63, 50
2, 78424, Note_on_c, 0, 63, 0
2, 78436, Note_on_c, 0, 64, 58
2, 78456, Note_on_c, 0, 64, 0
2, 78471, Note_on_c, 0, 66, 45
2, 78478, Note_on_c, 0, 66, 0
2, 78489, Note_on_c, 0, 67, 56
2, 78510, Note_on_c, 0, 67, 0
2, 78520, Note_on_c, 0, 69, 73
2, 78541, Note_on_c, 0, 69, 0
2, 78546, Control_c, 0, 64, 127
2, 78554, Note_on_c, 0, 70, 74
2, 78567, Note_on_c, 0, 70, 0
2, 78583, Control_c, 0, 64, 0
2, 78584, Note_on_c, 0, 72, 68
2, 78602, Note_on_c, 0, 72, 0
2, 78603, Note_on_c, 0, 61, 51
2, 78605, Note_on_c, 0, 66, 53
2, 78610, Note_on_c, 0, 55, 44
2, 78613, Note_on_c, 0, 73, 54
2, 78640, Note_on_c, 0, 73, 0
2, 78646, Control_c, 0, 64, 127
2, 78646, Note_on_c, 0, 75, 49
2, 78652, Note_on_c, 0, 66, 0
2, 78654, Note_on_c, 0, 75, 0
2, 78663, Note_on_c, 0, 55, 0
2, 78664, Note_on_c, 0, 61, 0
2, 78666, Note_on_c, 0, 76, 62
2, 78687, Note_on_c, 0, 76, 0
2, 78696, Note_on_c, 0, 78, 53
2, 78716, Note_on_c, 0, 78, 0
2, 78716, Control_c, 0, 64, 0
2, 78724, Note_on_c, 0, 57, 41
2, 78725, Note_on_c, 0, 60, 20
2, 78727, Note_on_c, 0, 50, 25
2, 78729, Note_on_c, 0, 79, 47
2, 78729, Note_on_c, 0, 53, 47
2, 78733, Note_on_c, 0, 60, 0
2, 78738, Note_on_c, 0, 53, 0
2, 78742, Note_on_c, 0, 57, 0
2, 78744, Note_on_c, 0, 50, 0
2, 78752, Note_on_c, 0, 79, 0
2, 78759, Note_on_c, 0, 81, 71
2, 78787, Note_on_c, 0, 81, 0
2, 78800, Note_on_c, 0, 76, 78
2, 78816, Note_on_c, 0, 76, 0
2, 78836, Note_on_c, 0, 79, 85
2, 78861, Note_on_c, 0, 79, 0
2, 78880, Note_on_c, 0, 77, 74
2, 78897, Note_on_c, 0, 77, 0
2, 78921, Note_on_c, 0, 73, 69
2, 78927, Control_c, 0, 64, 127
2, 78942, Note_on_c, 0, 73, 0
2, 78944, Control_c, 0, 64, 0
2, 78960, Note_on_c, 0, 76, 77
2, 78984, Note_on_c, 0, 76, 0
2, 79001, Note_on_c, 0, 74, 71
2, 79024, Note_on_c, 0, 74, 0
2, 79039, Note_on_c, 0, 69, 58
2, 79043, Control_c, 0, 64, 127
2, 79046, Note_on_c, 0, 60, 37
2, 79051, Note_on_c, 0, 57, 29
2, 79054, Note_on_c, 0, 53, 29
2, 79055, Note_on_c, 0, 60, 0
2, 79061, Note_on_c, 0, 69, 0
2, 79066, Note_on_c, 0, 57, 0
2, 79068, Note_on_c, 0, 53, 0
2, 79072, Control_c, 0, 64, 0
2, 79083, Note_on_c, 0, 67, 55
2, 79135, Control_c, 0, 64, 127
2, 79150, Note_on_c, 0, 67, 0
2, 79160, Note_on_c, 0, 65, 55
2, 79173, Control_c, 0, 64, 0
2, 79197, Note_on_c, 0, 60, 36
2, 79200, Note_on_c, 0, 54, 42
2, 79203, Note_on_c, 0, 50, 22
2, 79222, Control_c, 0, 64, 127
2, 79316, Note_on_c, 0, 50, 0
2, 79316, Note_on_c, 0, 66, 37
2, 79325, Note_on_c, 0, 54, 0
2, 79328, Note_on_c, 0, 65, 0
2, 79331, Note_on_c, 0, 60, 0
2, 79345, Note_on_c, 0, 66, 0
2, 79349, Note_on_c, 0, 68, 58
2, 79375, Note_on_c, 0, 68, 0
2, 79382, Note_on_c, 0, 70, 67
2, 79389, Control_c, 0, 64, 0
2, 79390, Note_on_c, 0, 70, 0
2, 79412, Note_on_c, 0, 72, 57
2, 79421, Note_on_c, 0, 60, 45
2, 79422, Note_on_c, 0, 54, 35
2, 79430, Note_on_c, 0, 72, 0
2, 79442, Note_on_c, 0, 75, 37
2, 79453, Note_on_c, 0, 75, 0
2, 79470, Note_on_c, 0, 77, 55
2, 79490, Note_on_c, 0, 77, 0
2, 79499, Note_on_c, 0, 80, 59
2, 79526, Note_on_c, 0, 80, 0
2, 79531, Note_on_c, 0, 64, 30
2, 79532, Note_on_c, 0, 82, 67
2, 79554, Note_on_c, 0, 82, 0
2, 79554, Note_on_c, 0, 64, 0
2, 79560, Note_on_c, 0, 60, 0
2, 79562, Note_on_c, 0, 84, 76
2, 79583, Note_on_c, 0, 84, 0
2, 79597, Note_on_c, 0, 80, 72
2, 79610, Note_on_c, 0, 54, 0
2, 79630, Note_on_c, 0, 80, 0
2, 79630, Note_on_c, 0, 81, 80
2, 79651, Note_on_c, 0, 81, 0
2, 79661, Note_on_c, 0, 82, 77
2, 79677, Note_on_c, 0, 62, 42
2, 79678, Note_on_c, 0, 57, 36
2, 79682, Note_on_c, 0, 58, 33
2, 79692, Note_on_c, 0, 82, 0
2, 79696, Note_on_c, 0, 81, 60
2, 79731, Note_on_c, 0, 81, 0
2, 79751, Note_on_c, 0, 55, 1
2, 79764, Note_on_c, 0, 77, 58
2, 79784, Note_on_c, 0, 77, 0
2, 79811, Note_on_c, 0, 74, 44
2, 79825, Note_on_c, 0, 62, 0
2, 79837, Note_on_c, 0, 58, 0
2, 79847, Control_c, 0, 64, 127
2, 79849, Note_on_c, 0, 57, 0
2, 79865, Note_on_c, 0, 74, 0
2, 79891, Note_on_c, 0, 77, 66
2, 79896, Note_on_c, 0, 62, 34
2, 79900, Note_on_c, 0, 58, 26
2, 79913, Note_on_c, 0, 77, 0
2, 79915, Control_c, 0, 64, 0
2, 79916, Note_on_c, 0, 62, 0
2, 79925, Note_on_c, 0, 58, 0
2, 79934, Note_on_c, 0, 70, 43
2, 79972, Note_on_c, 0, 70, 0
2, 79985, Control_c, 0, 64, 127
2, 80030, Control_c, 0, 64, 0
2, 80059, Control_c, 0, 64, 127
2, 80073, Note_on_c, 0, 55, 0
2, 80132, Note_on_c, 0, 74, 88
2, 80155, Note_on_c, 0, 52, 37
2, 80156, Note_on_c, 0, 58, 18
2, 80163, Note_on_c, 0, 74, 0
2, 80173, Control_c, 0, 64, 0
2, 80179, Note_on_c, 0, 69, 55
2, 80233, Note_on_c, 0, 69, 0
2, 80236, Control_c, 0, 64, 127
2, 80246, Note_on_c, 0, 58, 0
2, 80249, Note_on_c, 0, 72, 74
2, 80275, Control_c, 0, 64, 0
2, 80278, Note_on_c, 0, 58, 19
2, 80286, Note_on_c, 0, 72, 0
2, 80301, Note_on_c, 0, 70, 46
2, 80325, Note_on_c, 0, 52, 0
2, 80325, Control_c, 0, 64, 127
2, 80339, Note_on_c, 0, 58, 0
2, 80365, Note_on_c, 0, 70, 0
2, 80375, Note_on_c, 0, 66, 37
2, 80395, Note_on_c, 0, 66, 0
2, 80400, Note_on_c, 0, 58, 23
2, 80400, Control_c, 0, 64, 0
2, 80412, Note_on_c, 0, 69, 85
2, 80455, Note_on_c, 0, 58, 0
2, 80468, Control_c, 0, 64, 127
2, 80493, Note_on_c, 0, 58, 32
2, 80496, Note_on_c, 0, 52, 31
2, 80501, Note_on_c, 0, 58, 0
2, 80504, Note_on_c, 0, 69, 0
2, 80507, Note_on_c, 0, 52, 0
2, 80527, Control_c, 0, 64, 0
2, 80536, Note_on_c, 0, 67, 45
2, 80549, Note_on_c, 0, 67, 0
2, 80555, Note_on_c, 0, 69, 54
2, 80582, Note_on_c, 0, 67, 42
2, 80584, Note_on_c, 0, 69, 0
2, 80607, Note_on_c, 0, 67, 0
2, 80609, Note_on_c, 0, 66, 42
2, 80624, Control_c, 0, 64, 127
2, 80633, Note_on_c, 0, 66, 0
2, 80643, Note_on_c, 0, 64, 42
2, 80649, Control_c, 0, 64, 0
2, 80667, Note_on_c, 0, 64, 0
2, 80725, Note_on_c, 0, 63, 56
2, 80741, Note_on_c, 0, 48, 18
2, 80755, Note_on_c, 0, 63, 0
2, 80759, Note_on_c, 0, 48, 0
2, 80780, Note_on_c, 0, 61, 31
2, 80815, Note_on_c, 0, 61, 0
2, 80851, Note_on_c, 0, 60, 56
2, 80854, Note_on_c, 0, 48, 51
2, 80862, Note_on_c, 0, 48, 0
2, 80872, Note_on_c, 0, 60, 0
2, 80900, Note_on_c, 0, 58, 46
2, 80959, Note_on_c, 0, 58, 0
2, 80967, Note_on_c, 0, 56, 45
2, 80993, Note_on_c, 0, 56, 0
2, 81008, Note_on_c, 0, 57, 50
2, 81041, Note_on_c, 0, 57, 0
2, 81084, Note_on_c, 0, 48, 66
2, 81093, Note_on_c, 0, 48, 0
2, 81143, Control_c, 0, 64, 127
2, 81207, Note_on_c, 0, 62, 59
2, 81207, Note_on_c, 0, 58, 42
2, 81209, Control_c, 0, 64, 0
2, 81210, Note_on_c, 0, 57, 51
2, 81214, Note_on_c, 0, 62, 0
2, 81220, Note_on_c, 0, 57, 0
2, 81222, Note_on_c, 0, 58, 0
2, 81252, Control_c, 0, 64, 127
2, 81254, Note_on_c, 0, 67, 58
2, 81262, Note_on_c, 0, 67, 0
2, 81328, Note_on_c, 0, 61, 72
2, 81329, Note_on_c, 0, 55, 66
2, 81331, Note_on_c, 0, 65, 62
2, 81331, Note_on_c, 0, 58, 39
2, 81332, Note_on_c, 0, 69, 78
2, 81332, Note_on_c, 0, 81, 74
2, 81337, Note_on_c, 0, 65, 0
2, 81337, Note_on_c, 0, 55, 0
2, 81338, Note_on_c, 0, 58, 0
2, 81338, Note_on_c, 0, 80, 37
2, 81339, Note_on_c, 0, 69, 0
2, 81340, Note_on_c, 0, 81, 0
2, 81344, Note_on_c, 0, 61, 0
2, 81345, Control_c, 0, 64, 0
2, 81346, Note_on_c, 0, 80, 0
2, 81369, Note_on_c, 0, 70, 56
2, 81371, Note_on_c, 0, 61, 65
2, 81372, Note_on_c, 0, 82, 47
2, 81375, Note_on_c, 0, 58, 31
2, 81376, Note_on_c, 0, 70, 0
2, 81380, Note_on_c, 0, 61, 0
2, 81380, Note_on_c, 0, 82, 0
2, 81383, Note_on_c, 0, 58, 0
2, 81424, Control_c, 0, 64, 127
2, 81449, Control_c, 0, 64, 0
2, 81449, Note_on_c, 0, 61, 71
2, 81452, Note_on_c, 0, 55, 61
2, 81453, Note_on_c, 0, 84, 64
2, 81454, Note_on_c, 0, 86, 48
2, 81454, Note_on_c, 0, 64, 39
2, 81457, Note_on_c, 0, 72, 32
2, 81460, Note_on_c, 0, 55, 0
2, 81461, Note_on_c, 0, 84, 0
2, 81463, Note_on_c, 0, 86, 0
2, 81463, Note_on_c, 0, 64, 0
2, 81465, Note_on_c, 0, 72, 0
2, 81465, Note_on_c, 0, 61, 0
2, 81487, Note_on_c, 0, 70, 62
2, 81488, Note_on_c, 0, 61, 49
2, 81489, Note_on_c, 0, 55, 53
2, 81491, Note_on_c, 0, 64, 39
2, 81491, Note_on_c, 0, 82, 35
2, 81492, Control_c, 0, 64, 127
2, 81493, Note_on_c, 0, 58, 37
2, 81500, Note_on_c, 0, 64, 0
2, 81510, Note_on_c, 0, 61, 0
2, 81512, Note_on_c, 0, 55, 0
2, 81513, Note_on_c, 0, 58, 0
2, 81554, Note_on_c, 0, 82, 0
2, 81564, Note_on_c, 0, 70, 0
2, 81594, Control_c, 0, 64, 0
2, 81603, Note_on_c, 0, 50, 36
2, 81604, Note_on_c, 0, 81, 52
2, 81604, Note_on_c, 0, 60, 43
2, 81604, Note_on_c, 0, 53, 42
2, 81605, Note_on_c, 0, 57, 34
2, 81605, Note_on_c, 0, 69, 40
2, 81637, Control_c, 0, 64, 127
2, 81675, Note_on_c, 0, 69, 0
2, 81700, Note_on_c, 0, 60, 0
2, 81700, Note_on_c, 0, 53, 0
2, 81702, Note_on_c, 0, 81, 0
2, 81703, Note_on_c, 0, 57, 0
2, 81707, Note_on_c, 0, 50, 0
2, 81811, Note_on_c, 0, 60, 57
2, 81811, Note_on_c, 0, 64, 57
2, 81814, Note_on_c, 0, 57, 52
2, 81815, Note_on_c, 0, 76, 72
2, 81815, Note_on_c, 0, 88, 76
2, 81818, Note_on_c, 0, 83, 46
2, 81820, Note_on_c, 0, 64, 0
2, 81821, Note_on_c, 0, 53, 19
2, 81823, Note_on_c, 0, 76, 0
2, 81827, Note_on_c, 0, 60, 0
2, 81827, Note_on_c, 0, 83, 0
2, 81829, Note_on_c, 0, 53, 0
2, 81832, Note_on_c, 0, 88, 0
2, 81834, Note_on_c, 0, 57, 0
2, 81859, Control_c, 0, 64, 0
2, 81859, Note_on_c, 0, 57, 58
2, 81860, Note_on_c, 0, 60, 70
2, 81860, Note_on_c, 0, 91, 83
2, 81860, Note_on_c, 0, 53, 71
2, 81860, Note_on_c, 0, 64, 75
2, 81861, Note_on_c, 0, 79, 75
2, 81862, Note_on_c, 0, 93, 64
2, 81862, Note_on_c, 0, 86, 62
2, 81864, Note_on_c, 0, 81, 62
2, 81868, Note_on_c, 0, 93, 0
2, 81871, Note_on_c, 0, 81, 0
2, 81893, Control_c, 0, 64, 127
2, 81916, Note_on_c, 0, 79, 0
2, 81916, Note_on_c, 0, 91, 0
2, 81918, Note_on_c, 0, 64, 0
2, 81918, Note_on_c, 0, 86, 0
2, 81919, Note_on_c, 0, 53, 0
2, 81925, Note_on_c, 0, 57, 0
2, 81925, Note_on_c, 0, 60, 0
2, 81940, Note_on_c, 0, 89, 63
2, 81941, Note_on_c, 0, 53, 57
2, 81942, Note_on_c, 0, 57, 57
2, 81943, Note_on_c, 0, 64, 54
2, 81944, Note_on_c, 0, 60, 67
2, 81944, Note_on_c, 0, 84, 72
2, 81945, Control_c, 0, 64, 0
2, 81945, Note_on_c, 0, 77, 58
2, 81979, Control_c, 0, 64, 127
2, 81997, Note_on_c, 0, 89, 0
2, 82004, Note_on_c, 0, 84, 0
2, 82006, Note_on_c, 0, 77, 0
2, 82010, Note_on_c, 0, 60, 0
2, 82018, Note_on_c, 0, 64, 0
2, 82021, Note_on_c, 0, 57, 0
2, 82044, Note_on_c, 0, 53, 0
2, 82079, Control_c, 0, 64, 0
2, 82083, Note_on_c, 0, 62, 38
2, 82085, Note_on_c, 0, 53, 24
2, 82085, Note_on_c, 0, 58, 38
2, 82087, Note_on_c, 0, 84, 57
2, 82087, Note_on_c, 0, 57, 31
2, 82087, Note_on_c, 0, 72, 47
2, 82094, Note_on_c, 0, 79, 36
2, 82105, Note_on_c, 0, 57, 0
2, 82105, Note_on_c, 0, 62, 0
2, 82107, Note_on_c, 0, 53, 0
2, 82108, Note_on_c, 0, 72, 0
2, 82110, Note_on_c, 0, 58, 0
2, 82112, Note_on_c, 0, 79, 0
2, 82117, Note_on_c, 0, 84, 0
2, 82162, Note_on_c, 0, 86, 61
2, 82164, Note_on_c, 0, 58, 58
2, 82164, Note_on_c, 0, 62, 68
2, 82165, Note_on_c, 0, 53, 64
2, 82166, Note_on_c, 0, 57, 52
2, 82166, Note_on_c, 0, 74, 58
2, 82166, Note_on_c, 0, 79, 54
2, 82188, Note_on_c, 0, 62, 0
2, 82190, Note_on_c, 0, 86, 0
2, 82194, Note_on_c, 0, 57, 0
2, 82194, Note_on_c, 0, 53, 0
2, 82196, Note_on_c, 0, 74, 0
2, 82199, Note_on_c, 0, 58, 0
2, 82199, Note_on_c, 0, 79, 0
2, 82213, Control_c, 0, 64, 127
2, 82215, Note_on_c, 0, 84, 51
2, 82216, Note_on_c, 0, 53, 20
2, 82216, Note_on_c, 0, 62, 33
2, 82218, Note_on_c, 0, 58, 37
2, 82219, Note_on_c, 0, 57, 25
2, 82223, Note_on_c, 0, 79, 36
2, 82226, Note_on_c, 0, 72, 29
2, 82238, Note_on_c, 0, 84, 0
2, 82241, Note_on_c, 0, 79, 0
2, 82245, Note_on_c, 0, 72, 0
2, 82255, Note_on_c, 0, 62, 0
2, 82260, Note_on_c, 0, 58, 0
2, 82266, Note_on_c, 0, 57, 0
2, 82267, Note_on_c, 0, 53, 0
2, 82288, Note_on_c, 0, 81, 53
2, 82292, Note_on_c, 0, 69, 50
2, 82296, Note_on_c, 0, 62, 31
2, 82296, Note_on_c, 0, 58, 37
2, 82298, Note_on_c, 0, 53, 30
2, 82299, Note_on_c, 0, 57, 26
2, 82301, Control_c, 0, 64, 0
2, 82348, Control_c, 0, 64, 127
2, 82449, Note_on_c, 0, 53, 0
2, 82450, Note_on_c, 0, 57, 0
2, 82458, Note_on_c, 0, 58, 0
2, 82462, Note_on_c, 0, 62, 0
2, 82546, Note_on_c, 0, 69, 0
2, 82562, Note_on_c, 0, 67, 39
2, 82564, Control_c, 0, 64, 0
2, 82564, Note_on_c, 0, 56, 36
2, 82566, Note_on_c, 0, 62, 34
2, 82570, Note_on_c, 0, 81, 0
2, 82620, Note_on_c, 0, 62, 0
2, 82646, Note_on_c, 0, 62, 24
2, 82648, Note_on_c, 0, 88, 59
2, 82668, Note_on_c, 0, 88, 0
2, 82693, Note_on_c, 0, 91, 70
2, 82712, Note_on_c, 0, 91, 0
2, 82712, Note_on_c, 0, 62, 0
2, 82712, Note_on_c, 0, 67, 0
2, 82734, Note_on_c, 0, 89, 75
2, 82759, Note_on_c, 0, 89, 0
2, 82772, Note_on_c, 0, 85, 64
2, 82777, Note_on_c, 0, 62, 42
2, 82781, Note_on_c, 0, 67, 18
2, 82797, Note_on_c, 0, 85, 0
2, 82801, Note_on_c, 0, 67, 0
2, 82812, Note_on_c, 0, 88, 69
2, 82841, Note_on_c, 0, 88, 0
2, 82841, Note_on_c, 0, 62, 0
2, 82888, Note_on_c, 0, 86, 74
2, 82891, Note_on_c, 0, 62, 40
2, 82893, Note_on_c, 0, 67, 29
2, 82916, Note_on_c, 0, 67, 0
2, 82920, Note_on_c, 0, 86, 0
2, 82937, Note_on_c, 0, 81, 46
2, 82942, Note_on_c, 0, 62, 0
2, 82996, Note_on_c, 0, 81, 0
2, 82999, Note_on_c, 0, 56, 0
2, 83007, Note_on_c, 0, 84, 72
2, 83036, Note_on_c, 0, 84, 0
2, 83037, Note_on_c, 0, 66, 38
2, 83041, Note_on_c, 0, 61, 34
2, 83048, Note_on_c, 0, 55, 38
2, 83067, Note_on_c, 0, 82, 30
2, 83078, Note_on_c, 0, 82, 0
2, 83087, Note_on_c, 0, 84, 58
2, 83092, Note_on_c, 0, 61, 0
2, 83107, Note_on_c, 0, 66, 0
2, 83110, Note_on_c, 0, 82, 39
2, 83113, Note_on_c, 0, 84, 0
2, 83132, Note_on_c, 0, 82, 0
2, 83136, Note_on_c, 0, 81, 60
2, 83139, Note_on_c, 0, 61, 25
2, 83158, Note_on_c, 0, 81, 0
2, 83178, Note_on_c, 0, 79, 58
2, 83204, Note_on_c, 0, 61, 0
2, 83249, Note_on_c, 0, 79, 0
2, 83251, Note_on_c, 0, 77, 65
2, 83253, Note_on_c, 0, 61, 32
2, 83280, Note_on_c, 0, 77, 0
2, 83287, Note_on_c, 0, 61, 0
2, 83302, Note_on_c, 0, 76, 18
2, 83371, Note_on_c, 0, 74, 57
2, 83372, Note_on_c, 0, 76, 0
2, 83376, Note_on_c, 0, 61, 33
2, 83397, Note_on_c, 0, 61, 0
2, 83406, Note_on_c, 0, 74, 0
2, 83406, Note_on_c, 0, 55, 0
2, 83419, Note_on_c, 0, 73, 49
2, 83478, Note_on_c, 0, 73, 0
2, 83489, Note_on_c, 0, 60, 55
2, 83490, Note_on_c, 0, 76, 74
2, 83493, Note_on_c, 0, 57, 46
2, 83495, Note_on_c, 0, 53, 55
2, 83497, Note_on_c, 0, 60, 0
2, 83501, Note_on_c, 0, 50, 20
2, 83511, Note_on_c, 0, 57, 0
2, 83513, Note_on_c, 0, 50, 0
2, 83516, Note_on_c, 0, 53, 0
2, 83523, Note_on_c, 0, 76, 0
2, 83538, Note_on_c, 0, 74, 42
2, 83602, Note_on_c, 0, 74, 0
2, 83610, Note_on_c, 0, 69, 65
2, 83631, Note_on_c, 0, 69, 0
2, 83650, Note_on_c, 0, 67, 54
2, 83727, Note_on_c, 0, 67, 0
2, 83757, Note_on_c, 0, 65, 69
2, 83809, Note_on_c, 0, 65, 0
2, 83823, Note_on_c, 0, 67, 38
2, 83842, Note_on_c, 0, 65, 49
2, 83847, Note_on_c, 0, 67, 0
2, 83863, Note_on_c, 0, 65, 0
2, 83869, Note_on_c, 0, 64, 41
2, 83941, Note_on_c, 0, 64, 0
2, 83963, Note_on_c, 0, 65, 79
2, 84027, Control_c, 0, 64, 127
2, 84035, Note_on_c, 0, 65, 0
2, 84043, Note_on_c, 0, 67, 36
2, 84071, Note_on_c, 0, 65, 49
2, 84072, Note_on_c, 0, 67, 0
2, 84095, Note_on_c, 0, 65, 0
2, 84098, Note_on_c, 0, 64, 53
2, 84111, Note_on_c, 0, 64, 0
2, 84127, Control_c, 0, 64, 0
2, 84131, Note_on_c, 0, 65, 80
2, 84193, Note_on_c, 0, 65, 0
2, 84198, Note_on_c, 0, 67, 44
2, 84219, Note_on_c, 0, 65, 46
2, 84228, Note_on_c, 0, 47, 35
2, 84230, Note_on_c, 0, 67, 0
2, 84233, Note_on_c, 0, 57, 29
2, 84250, Note_on_c, 0, 65, 0
2, 84254, Note_on_c, 0, 57, 0
2, 84254, Note_on_c, 0, 47, 0
2, 84259, Note_on_c, 0, 64, 34
2, 84322, Note_on_c, 0, 64, 0
2, 84334, Note_on_c, 0, 65, 58
2, 84394, Note_on_c, 0, 65, 0
2, 84399, Control_c, 0, 64, 127
2, 84403, Note_on_c, 0, 67, 38
2, 84429, Note_on_c, 0, 65, 39
2, 84430, Note_on_c, 0, 67, 0
2, 84453, Note_on_c, 0, 65, 0
2, 84458, Note_on_c, 0, 64, 34
2, 84476, Note_on_c, 0, 56, 42
2, 84478, Note_on_c, 0, 64, 0
2, 84478, Note_on_c, 0, 46, 34
2, 84478, Control_c, 0, 64, 0
2, 84487, Note_on_c, 0, 46, 0
2, 84492, Note_on_c, 0, 56, 0
2, 84493, Note_on_c, 0, 65, 58
2, 84510, Control_c, 0, 64, 127
2, 84551, Note_on_c, 0, 65, 0
2, 84570, Note_on_c, 0, 67, 58
2, 84573, Note_on_c, 0, 62, 36
2, 84574, Note_on_c, 0, 56, 25
2, 84587, Control_c, 0, 64, 0
2, 84590, Note_on_c, 0, 56, 0
2, 84591, Note_on_c, 0, 62, 0
2, 84599, Note_on_c, 0, 67, 0
2, 84612, Control_c, 0, 64, 127
2, 84614, Note_on_c, 0, 56, 32
2, 84620, Note_on_c, 0, 68, 56
2, 84622, Note_on_c, 0, 62, 32
2, 84639, Note_on_c, 0, 56, 0
2, 84655, Note_on_c, 0, 62, 0
2, 84666, Note_on_c, 0, 68, 0
2, 84689, Note_on_c, 0, 56, 54
2, 84689, Note_on_c, 0, 70, 58
2, 84690, Note_on_c, 0, 67, 55
2, 84691, Note_on_c, 0, 62, 48
2, 84698, Note_on_c, 0, 68, 29
2, 84703, Note_on_c, 0, 67, 0
2, 84708, Note_on_c, 0, 68, 0
2, 84712, Note_on_c, 0, 70, 0
2, 84713, Note_on_c, 0, 62, 0
2, 84716, Control_c, 0, 64, 0
2, 84718, Note_on_c, 0, 56, 0
2, 84734, Note_on_c, 0, 56, 23
2, 84735, Note_on_c, 0, 74, 43
2, 84739, Control_c, 0, 64, 127
2, 84740, Note_on_c, 0, 62, 46
2, 84742, Note_on_c, 0, 67, 27
2, 84748, Note_on_c, 0, 74, 0
2, 84759, Note_on_c, 0, 67, 0
2, 84759, Note_on_c, 0, 74, 16
2, 84770, Note_on_c, 0, 62, 0
2, 84775, Note_on_c, 0, 56, 0
2, 84786, Note_on_c, 0, 74, 0
2, 84806, Note_on_c, 0, 77, 65
2, 84812, Note_on_c, 0, 62, 58
2, 84814, Note_on_c, 0, 56, 39
2, 84817, Note_on_c, 0, 67, 30
2, 84823, Note_on_c, 0, 56, 0
2, 84825, Note_on_c, 0, 67, 0
2, 84827, Control_c, 0, 64, 0
2, 84829, Note_on_c, 0, 77, 0
2, 84830, Note_on_c, 0, 62, 0
2, 84848, Note_on_c, 0, 81, 72
2, 84849, Note_on_c, 0, 62, 60
2, 84850, Control_c, 0, 64, 127
2, 84851, Note_on_c, 0, 56, 44
2, 84853, Note_on_c, 0, 67, 20
2, 84868, Note_on_c, 0, 67, 0
2, 84874, Note_on_c, 0, 81, 0
2, 84875, Note_on_c, 0, 56, 0
2, 84887, Note_on_c, 0, 62, 0
2, 84919, Note_on_c, 0, 56, 60
2, 84919, Note_on_c, 0, 62, 41
2, 84924, Note_on_c, 0, 84, 77
2, 84925, Note_on_c, 0, 72, 68
2, 84930, Note_on_c, 0, 62, 0
2, 84940, Note_on_c, 0, 84, 0
2, 84942, Note_on_c, 0, 72, 0
2, 84949, Note_on_c, 0, 56, 0
2, 84961, Control_c, 0, 64, 0
2, 84969, Note_on_c, 0, 55, 66
2, 84971, Note_on_c, 0, 65, 52
2, 84972, Note_on_c, 0, 85, 74
2, 84973, Note_on_c, 0, 73, 65
2, 84973, Note_on_c, 0, 61, 57
2, 84988, Control_c, 0, 64, 127
2, 85019, Note_on_c, 0, 73, 0
2, 85019, Note_on_c, 0, 55, 0
2, 85021, Note_on_c, 0, 85, 0
2, 85022, Note_on_c, 0, 65, 0
2, 85031, Note_on_c, 0, 61, 0
2, 85045, Note_on_c, 0, 75, 64
2, 85045, Note_on_c, 0, 87, 75
2, 85047, Note_on_c, 0, 61, 58
2, 85048, Note_on_c, 0, 55, 66
2, 85050, Note_on_c, 0, 65, 55
2, 85058, Note_on_c, 0, 65, 0
2, 85060, Control_c, 0, 64, 0
2, 85064, Note_on_c, 0, 55, 0
2, 85069, Note_on_c, 0, 61, 0
2, 85069, Note_on_c, 0, 75, 0
2, 85071, Note_on_c, 0, 87, 0
2, 85085, Note_on_c, 0, 55, 61
2, 85088, Note_on_c, 0, 88, 66
2, 85090, Control_c, 0, 64, 127
2, 85090, Note_on_c, 0, 61, 38
2, 85090, Note_on_c, 0, 76, 42
2, 85092, Note_on_c, 0, 65, 61
2, 85114, Note_on_c, 0, 76, 0
2, 85118, Note_on_c, 0, 65, 0
2, 85120, Note_on_c, 0, 88, 0
2, 85122, Note_on_c, 0, 55, 0
2, 85138, Note_on_c, 0, 61, 0
2, 85164, Note_on_c, 0, 90, 77
2, 85165, Note_on_c, 0, 78, 74
2, 85171, Note_on_c, 0, 61, 70
2, 85171, Control_c, 0, 64, 0
2, 85172, Note_on_c, 0, 58, 60
2, 85174, Note_on_c, 0, 55, 71
2, 85174, Note_on_c, 0, 64, 66
2, 85203, Control_c, 0, 64, 127
2, 85210, Note_on_c, 0, 64, 0
2, 85210, Note_on_c, 0, 55, 0
2, 85216, Note_on_c, 0, 61, 0
2, 85216, Note_on_c, 0, 78, 0
2, 85217, Note_on_c, 0, 58, 0
2, 85220, Note_on_c, 0, 90, 0
2, 85242, Note_on_c, 0, 55, 64
2, 85242, Note_on_c, 0, 61, 54
2, 85243, Note_on_c, 0, 64, 62
2, 85244, Note_on_c, 0, 91, 68
2, 85245, Note_on_c, 0, 58, 51
2, 85246, Note_on_c, 0, 79, 70
2, 85286, Note_on_c, 0, 79, 0
2, 85287, Note_on_c, 0, 55, 0
2, 85287, Note_on_c, 0, 64, 0
2, 85288, Note_on_c, 0, 91, 0
2, 85297, Note_on_c, 0, 58, 0
2, 85299, Note_on_c, 0, 61, 0
2, 85314, Control_c, 0, 64, 0
2, 85322, Note_on_c, 0, 61, 53
2, 85325, Note_on_c, 0, 58, 57
2, 85325, Note_on_c, 0, 64, 58
2, 85325, Note_on_c, 0, 55, 62
2, 85326, Note_on_c, 0, 81, 82
2, 85327, Note_on_c, 0, 93, 83
2, 85330, Control_c, 0, 64, 127
2, 85334, Note_on_c, 0, 64, 0
2, 85341, Note_on_c, 0, 61, 0
2, 85343, Note_on_c, 0, 55, 0
2, 85350, Note_on_c, 0, 58, 0
2, 85357, Note_on_c, 0, 93, 0
2, 85359, Note_on_c, 0, 81, 0
2, 85405, Control_c, 0, 64, 0
2, 85409, Note_on_c, 0, 58, 48
2, 85409, Note_on_c, 0, 57, 57
2, 85409, Note_on_c, 0, 94, 80
2, 85409, Note_on_c, 0, 62, 65
2, 85409, Note_on_c, 0, 82, 80
2, 85414, Note_on_c, 0, 52, 58
2, 85433, Control_c, 0, 64, 127
2, 85449, Note_on_c, 0, 52, 0
2, 85450, Note_on_c, 0, 62, 0
2, 85451, Note_on_c, 0, 82, 0
2, 85452, Note_on_c, 0, 58, 0
2, 85453, Note_on_c, 0, 57, 0
2, 85456, Note_on_c, 0, 94, 0
2, 85485, Note_on_c, 0, 96, 80
2, 85485, Note_on_c, 0, 84, 75
2, 85487, Note_on_c, 0, 57, 56
2, 85488, Note_on_c, 0, 58, 49
2, 85489, Note_on_c, 0, 62, 66
2, 85490, Note_on_c, 0, 52, 55
2, 85527, Note_on_c, 0, 96, 0
2, 85528, Note_on_c, 0, 62, 0
2, 85529, Note_on_c, 0, 84, 0
2, 85531, Note_on_c, 0, 52, 0
2, 85533, Note_on_c, 0, 58, 0
2, 85535, Note_on_c, 0, 57, 0
2, 85538, Control_c, 0, 64, 0
2, 85557, Note_on_c, 0, 57, 52
2, 85558, Note_on_c, 0, 62, 58
2, 85559, Note_on_c, 0, 58, 57
2, 85560, Note_on_c, 0, 98, 73
2, 85560, Note_on_c, 0, 52, 62
2, 85564, Note_on_c, 0, 86, 63
2, 85604, Note_on_c, 0, 86, 0
2, 85605, Note_on_c, 0, 98, 0
2, 85608, Note_on_c, 0, 52, 0
2, 85611, Note_on_c, 0, 62, 0
2, 85615, Note_on_c, 0, 57, 0
2, 85616, Note_on_c, 0, 58, 0
2, 85641, Note_on_c, 0, 62, 67
2, 85643, Note_on_c, 0, 58, 61
2, 85643, Note_on_c, 0, 57, 58
2, 85643, Note_on_c, 0, 100, 77
2, 85645, Note_on_c, 0, 88, 44
2, 85646, Note_on_c, 0, 89, 53
2, 85647, Note_on_c, 0, 52, 57
2, 85654, Note_on_c, 0, 89, 0
2, 85654, Note_on_c, 0, 88, 0
2, 85655, Note_on_c, 0, 52, 0
2, 85663, Note_on_c, 0, 100, 0
2, 85669, Note_on_c, 0, 62, 0
2, 85678, Note_on_c, 0, 57, 0
2, 85678, Note_on_c, 0, 58, 0
2, 85887, Note_on_c, 0, 72, 64
2, 85888, Note_on_c, 0, 65, 70
2, 85889, Note_on_c, 0, 60, 76
2, 85890, Note_on_c, 0, 69, 57
2, 85891, Note_on_c, 0, 61, 82
2, 85898, Note_on_c, 0, 71, 36
2, 85908, Note_on_c, 0, 71, 0
2, 85911, Note_on_c, 0, 60, 0
2, 85915, Note_on_c, 0, 69, 0
2, 85917, Note_on_c, 0, 72, 0
2, 85919, Note_on_c, 0, 65, 0
2, 85931, Note_on_c, 0, 61, 0
2, 85957, Note_on_c, 0, 69, 75
2, 85960, Note_on_c, 0, 58, 55
2, 85961, Note_on_c, 0, 57, 44
2, 85965, Note_on_c, 0, 61, 36
2, 85970, Control_c, 0, 64, 127
2, 86004, Note_on_c, 0, 57, 0
2, 86014, Note_on_c, 0, 61, 0
2, 86020, Note_on_c, 0, 69, 0
2, 86022, Note_on_c, 0, 58, 0
2, 86035, Control_c, 0, 64, 0
2, 86039, Note_on_c, 0, 64, 39
2, 86041, Note_on_c, 0, 58, 42
2, 86044, Control_c, 0, 64, 127
2, 86047, Note_on_c, 0, 61, 31
2, 86083, Note_on_c, 0, 61, 0
2, 86088, Note_on_c, 0, 58, 0
2, 86095, Note_on_c, 0, 64, 0
2, 86127, Note_on_c, 0, 61, 55
2, 86128, Note_on_c, 0, 67, 54
2, 86130, Note_on_c, 0, 58, 51
2, 86131, Control_c, 0, 64, 0
2, 86132, Note_on_c, 0, 52, 49
2, 86135, Note_on_c, 0, 64, 32
2, 86165, Note_on_c, 0, 64, 0
2, 86168, Note_on_c, 0, 67, 0
2, 86176, Note_on_c, 0, 58, 0
2, 86181, Note_on_c, 0, 61, 0
2, 86193, Control_c, 0, 64, 127
2, 86201, Note_on_c, 0, 66, 54
2, 86205, Note_on_c, 0, 52, 0
2, 86205, Note_on_c, 0, 61, 39
2, 86206, Note_on_c, 0, 58, 34
2, 86208, Note_on_c, 0, 51, 44
2, 86214, Note_on_c, 0, 63, 35
2, 86248, Note_on_c, 0, 58, 0
2, 86250, Note_on_c, 0, 63, 0
2, 86261, Note_on_c, 0, 61, 0
2, 86264, Note_on_c, 0, 66, 0
2, 86266, Control_c, 0, 64, 0
2, 86276, Note_on_c, 0, 51, 0
2, 86285, Note_on_c, 0, 58, 37
2, 86290, Control_c, 0, 64, 127
2, 86291, Note_on_c, 0, 49, 36
2, 86304, Note_on_c, 0, 58, 0
2, 86358, Note_on_c, 0, 49, 0
2, 86365, Note_on_c, 0, 65, 53
2, 86367, Note_on_c, 0, 57, 43
2, 86368, Note_on_c, 0, 60, 52
2, 86368, Note_on_c, 0, 50, 46
2, 86370, Control_c, 0, 64, 0
2, 86398, Note_on_c, 0, 65, 0
2, 86413, Note_on_c, 0, 57, 0
2, 86413, Note_on_c, 0, 60, 0
2, 86424, Note_on_c, 0, 50, 0
2, 86433, Note_on_c, 0, 38, 48
2, 86436, Control_c, 0, 64, 127
2, 86436, Note_on_c, 0, 64, 40
2, 86489, Note_on_c, 0, 64, 0
2, 86505, Control_c, 0, 64, 0
2, 86522, Note_on_c, 0, 49, 39
2, 86525, Note_on_c, 0, 57, 26
2, 86531, Control_c, 0, 64, 127
2, 86551, Note_on_c, 0, 49, 0
2, 86559, Note_on_c, 0, 57, 0
2, 86604, Note_on_c, 0, 62, 37
2, 86606, Control_c, 0, 64, 0
2, 86607, Note_on_c, 0, 57, 44
2, 86608, Note_on_c, 0, 53, 41
2, 86612, Note_on_c, 0, 38, 0
2, 86613, Note_on_c, 0, 48, 46
2, 86641, Control_c, 0, 64, 127
2, 86648, Note_on_c, 0, 53, 0
2, 86682, Note_on_c, 0, 57, 0
2, 86718, Note_on_c, 0, 62, 0
2, 86722, Note_on_c, 0, 38, 60
2, 86730, Note_on_c, 0, 38, 0
2, 86737, Note_on_c, 0, 48, 0
2, 86881, Note_on_c, 0, 60, 30
2, 86882, Note_on_c, 0, 50, 31
2, 86882, Control_c, 0, 64, 0
2, 86884, Note_on_c, 0, 54, 33
2, 86926, Note_on_c, 0, 62, 54
2, 86940, Note_on_c, 0, 62, 0
2, 86964, Note_on_c, 0, 63, 55
2, 86986, Control_c, 0, 64, 127
2, 86987, Note_on_c, 0, 63, 0
2, 86992, Note_on_c, 0, 50, 0
2, 86997, Note_on_c, 0, 54, 0
2, 87002, Note_on_c, 0, 65, 51
2, 87013, Note_on_c, 0, 60, 0
2, 87021, Note_on_c, 0, 65, 0
2, 87043, Note_on_c, 0, 66, 59
2, 87062, Note_on_c, 0, 66, 0
2, 87082, Note_on_c, 0, 68, 82
2, 87083, Note_on_c, 0, 54, 57
2, 87085, Note_on_c, 0, 60, 57
2, 87086, Note_on_c, 0, 65, 51
2, 87088, Control_c, 0, 64, 0
2, 87095, Note_on_c, 0, 65, 0
2, 87111, Note_on_c, 0, 68, 0
2, 87113, Note_on_c, 0, 60, 0
2, 87129, Note_on_c, 0, 69, 37
2, 87145, Note_on_c, 0, 69, 0
2, 87147, Control_c, 0, 64, 127
2, 87157, Note_on_c, 0, 54, 0
2, 87167, Note_on_c, 0, 70, 68
2, 87189, Note_on_c, 0, 70, 0
2, 87204, Note_on_c, 0, 72, 73
2, 87205, Note_on_c, 0, 54, 58
2, 87207, Note_on_c, 0, 60, 58
2, 87224, Note_on_c, 0, 72, 0
2, 87227, Control_c, 0, 64, 0
2, 87228, Note_on_c, 0, 60, 0
2, 87244, Note_on_c, 0, 75, 38
2, 87249, Note_on_c, 0, 54, 0
2, 87251, Note_on_c, 0, 75, 0
2, 87251, Note_on_c, 0, 76, 45
2, 87260, Note_on_c, 0, 76, 0
2, 87280, Note_on_c, 0, 80, 55
2, 87308, Note_on_c, 0, 80, 0
2, 87317, Control_c, 0, 64, 127
2, 87325, Note_on_c, 0, 84, 87
2, 87329, Note_on_c, 0, 72, 89
2, 87332, Note_on_c, 0, 83, 55
2, 87344, Note_on_c, 0, 57, 32
2, 87344, Note_on_c, 0, 62, 20
2, 87350, Note_on_c, 0, 58, 23
2, 87352, Note_on_c, 0, 55, 37
2, 87353, Control_c, 0, 64, 0
2, 87356, Note_on_c, 0, 83, 0
2, 87357, Note_on_c, 0, 72, 0
2, 87360, Note_on_c, 0, 84, 0
2, 87380, Note_on_c, 0, 81, 57
2, 87415, Control_c, 0, 64, 127
2, 87416, Note_on_c, 0, 58, 0
2, 87427, Note_on_c, 0, 62, 0
2, 87427, Note_on_c, 0, 81, 0
2, 87430, Note_on_c, 0, 57, 0
2, 87439, Note_on_c, 0, 55, 0
2, 87446, Note_on_c, 0, 84, 82
2, 87448, Note_on_c, 0, 72, 70
2, 87453, Note_on_c, 0, 62, 31
2, 87454, Note_on_c, 0, 58, 36
2, 87455, Control_c, 0, 64, 0
2, 87457, Note_on_c, 0, 55, 18
2, 87459, Note_on_c, 0, 57, 20
2, 87478, Note_on_c, 0, 72, 0
2, 87479, Note_on_c, 0, 84, 0
2, 87495, Note_on_c, 0, 81, 48
2, 87510, Control_c, 0, 64, 127
2, 87522, Note_on_c, 0, 62, 0
2, 87530, Note_on_c, 0, 81, 0
2, 87533, Note_on_c, 0, 58, 0
2, 87533, Note_on_c, 0, 57, 0
2, 87537, Note_on_c, 0, 55, 0
2, 87568, Note_on_c, 0, 84, 73
2, 87572, Note_on_c, 0, 62, 37
2, 87572, Note_on_c, 0, 58, 42
2, 87574, Note_on_c, 0, 72, 68
2, 87575, Note_on_c, 0, 57, 34
2, 87579, Note_on_c, 0, 55, 33
2, 87581, Note_on_c, 0, 72, 0
2, 87584, Note_on_c, 0, 84, 0
2, 87587, Note_on_c, 0, 62, 0
2, 87588, Note_on_c, 0, 57, 0
2, 87590, Note_on_c, 0, 55, 0
2, 87598, Note_on_c, 0, 58, 0
2, 87603, Control_c, 0, 64, 0
2, 87616, Note_on_c, 0, 68, 53
2, 87617, Note_on_c, 0, 80, 36
2, 87617, Note_on_c, 0, 62, 27
2, 87620, Note_on_c, 0, 58, 39
2, 87624, Note_on_c, 0, 57, 22
2, 87626, Note_on_c, 0, 55, 33
2, 87646, Note_on_c, 0, 81, 17
2, 87649, Note_on_c, 0, 68, 0
2, 87652, Note_on_c, 0, 69, 37
2, 87655, Note_on_c, 0, 80, 0
2, 87662, Note_on_c, 0, 74, 24
2, 87666, Control_c, 0, 64, 127
2, 87670, Note_on_c, 0, 58, 0
2, 87677, Note_on_c, 0, 81, 0
2, 87679, Note_on_c, 0, 57, 0
2, 87684, Note_on_c, 0, 69, 0
2, 87685, Note_on_c, 0, 62, 0
2, 87686, Note_on_c, 0, 55, 0
2, 87688, Note_on_c, 0, 74, 0
2, 87693, Control_c, 0, 64, 0
2, 87727, Note_on_c, 0, 77, 51
2, 87729, Note_on_c, 0, 62, 25
2, 87731, Note_on_c, 0, 65, 39
2, 87732, Note_on_c, 0, 55, 32
2, 87733, Note_on_c, 0, 58, 28
2, 87735, Note_on_c, 0, 57, 26
2, 87742, Control_c, 0, 64, 127
2, 87762, Note_on_c, 0, 65, 0
2, 87765, Note_on_c, 0, 57, 0
2, 87768, Note_on_c, 0, 58, 0
2, 87768, Note_on_c, 0, 62, 0
2, 87775, Note_on_c, 0, 77, 0
2, 87782, Note_on_c, 0, 55, 0
2, 87933, Control_c, 0, 64, 0
2, 87934, Note_on_c, 0, 58, 59
2, 87934, Note_on_c, 0, 88, 87
2, 87934, Note_on_c, 0, 64, 54
2, 87935, Note_on_c, 0, 76, 74
2, 87955, Note_on_c, 0, 64, 0
2, 87958, Note_on_c, 0, 88, 0
2, 87959, Note_on_c, 0, 87, 25
2, 87960, Note_on_c, 0, 76, 0
2, 87966, Note_on_c, 0, 87, 0
2, 87974, Note_on_c, 0, 58, 0
2, 87976, Control_c, 0, 64, 127
2, 87996, Note_on_c, 0, 85, 63
2, 87998, Note_on_c, 0, 58, 35
2, 87999, Note_on_c, 0, 73, 57
2, 88002, Note_on_c, 0, 61, 35
2, 88039, Note_on_c, 0, 73, 0
2, 88042, Note_on_c, 0, 61, 0
2, 88044, Note_on_c, 0, 58, 0
2, 88045, Note_on_c, 0, 85, 0
2, 88080, Control_c, 0, 64, 0
2, 88093, Control_c, 0, 64, 127
2, 88192, Control_c, 0, 64, 0
2, 88202, Note_on_c, 0, 87, 79
2, 88203, Note_on_c, 0, 61, 47
2, 88204, Note_on_c, 0, 64, 50
2, 88204, Note_on_c, 0, 75, 62
2, 88206, Note_on_c, 0, 58, 34
2, 88215, Note_on_c, 0, 64, 0
2, 88220, Note_on_c, 0, 75, 0
2, 88220, Note_on_c, 0, 61, 0
2, 88221, Note_on_c, 0, 87, 0
2, 88221, Note_on_c, 0, 58, 0
2, 88228, Control_c, 0, 64, 127
2, 88245, Note_on_c, 0, 85, 53
2, 88255, Note_on_c, 0, 85, 0
2, 88282, Note_on_c, 0, 61, 59
2, 88282, Note_on_c, 0, 87, 79
2, 88283, Note_on_c, 0, 58, 44
2, 88285, Note_on_c, 0, 75, 72
2, 88287, Note_on_c, 0, 64, 56
2, 88315, Control_c, 0, 64, 0
2, 88323, Note_on_c, 0, 64, 0
2, 88326, Note_on_c, 0, 87, 0
2, 88328, Note_on_c, 0, 75, 0
2, 88348, Note_on_c, 0, 58, 0
2, 88353, Note_on_c, 0, 61, 0
2, 88369, Note_on_c, 0, 88, 69
2, 88369, Note_on_c, 0, 76, 68
2, 88373, Note_on_c, 0, 64, 38
2, 88375, Note_on_c, 0, 60, 40
2, 88375, Note_on_c, 0, 53, 39
2, 88376, Note_on_c, 0, 57, 37
2, 88382, Control_c, 0, 64, 127
2, 88387, Note_on_c, 0, 88, 0
2, 88390, Note_on_c, 0, 76, 0
2, 88411, Note_on_c, 0, 60, 0
2, 88414, Note_on_c, 0, 53, 0
2, 88414, Note_on_c, 0, 64, 0
2, 88414, Control_c, 0, 64, 0
2, 88415, Note_on_c, 0, 57, 0
2, 88416, Note_on_c, 0, 84, 36
2, 88432, Note_on_c, 0, 84, 0
2, 88448, Note_on_c, 0, 64, 55
2, 88449, Note_on_c, 0, 88, 81
2, 88450, Note_on_c, 0, 60, 43
2, 88451, Note_on_c, 0, 76, 66
2, 88451, Note_on_c, 0, 57, 45
2, 88451, Note_on_c, 0, 53, 51
2, 88454, Control_c, 0, 64, 127
2, 88480, Note_on_c, 0, 53, 0
2, 88485, Note_on_c, 0, 60, 0
2, 88486, Note_on_c, 0, 57, 0
2, 88493, Note_on_c, 0, 76, 0
2, 88500, Note_on_c, 0, 64, 0
2, 88508, Note_on_c, 0, 88, 0
2, 88552, Control_c, 0, 64, 0
2, 88561, Note_on_c, 0, 67, 42
2, 88562, Note_on_c, 0, 57, 41
2, 88562, Note_on_c, 0, 62, 46
2, 88564, Note_on_c, 0, 91, 62
2, 88566, Note_on_c, 0, 79, 51
2, 88573, Note_on_c, 0, 67, 0
2, 88574, Note_on_c, 0, 57, 0
2, 88574, Note_on_c, 0, 62, 0
2, 88580, Note_on_c, 0, 79, 0
2, 88584, Note_on_c, 0, 91, 0
2, 88588, Control_c, 0, 64, 127
2, 88605, Note_on_c, 0, 88, 32
2, 88622, Control_c, 0, 64, 0
2, 88628, Note_on_c, 0, 88, 0
2, 88644, Note_on_c, 0, 62, 56
2, 88645, Note_on_c, 0, 57, 63
2, 88646, Note_on_c, 0, 67, 58
2, 88646, Note_on_c, 0, 91, 80
2, 88648, Note_on_c, 0, 79, 74
2, 88665, Note_on_c, 0, 67, 0
2, 88670, Control_c, 0, 64, 127
2, 88671, Note_on_c, 0, 62, 0
2, 88681, Note_on_c, 0, 57, 0
2, 88692, Note_on_c, 0, 79, 0
2, 88693, Note_on_c, 0, 91, 0
2, 88734, Note_on_c, 0, 93, 73
2, 88737, Note_on_c, 0, 62, 52
2, 88737, Note_on_c, 0, 81, 62
2, 88738, Note_on_c, 0, 57, 46
2, 88739, Note_on_c, 0, 58, 35
2, 88739, Note_on_c, 0, 91, 42
2, 88748, Note_on_c, 0, 91, 0
2, 88755, Note_on_c, 0, 93, 0
2, 88756, Note_on_c, 0, 62, 0
2, 88756, Note_on_c, 0, 81, 0
2, 88759, Note_on_c, 0, 57, 0
2, 88762, Note_on_c, 0, 58, 0
2, 88780, Control_c, 0, 64, 0
2, 88807, Note_on_c, 0, 62, 44
2, 88809, Control_c, 0, 64, 127
2, 88809, Note_on_c, 0, 57, 45
2, 88812, Note_on_c, 0, 58, 45
2, 88814, Note_on_c, 0, 52, 39
2, 88815, Note_on_c, 0, 81, 58
2, 88816, Note_on_c, 0, 93, 68
2, 88827, Note_on_c, 0, 93, 0
2, 88828, Note_on_c, 0, 81, 0
2, 88847, Note_on_c, 0, 58, 0
2, 88858, Control_c, 0, 64, 0
2, 88893, Note_on_c, 0, 58, 38
2, 88917, Note_on_c, 0, 52, 0
2, 88921, Note_on_c, 0, 96, 91
2, 88929, Note_on_c, 0, 57, 0
2, 88937, Note_on_c, 0, 58, 0
2, 88937, Note_on_c, 0, 62, 0
2, 88941, Note_on_c, 0, 96, 0
2, 88957, Note_on_c, 0, 94, 55
2, 88974, Note_on_c, 0, 94, 0
2, 88988, Note_on_c, 0, 96, 87
2, 89016, Note_on_c, 0, 94, 69
2, 89023, Note_on_c, 0, 66, 48
2, 89024, Note_on_c, 0, 61, 46
2, 89030, Note_on_c, 0, 96, 0
2, 89048, Note_on_c, 0, 89, 66
2, 89056, Note_on_c, 0, 66, 0
2, 89057, Note_on_c, 0, 94, 0
2, 89060, Note_on_c, 0, 55, 1
2, 89078, Note_on_c, 0, 89, 0
2, 89082, Note_on_c, 0, 85, 57
2, 89098, Note_on_c, 0, 85, 0
2, 89107, Note_on_c, 0, 84, 46
2, 89138, Note_on_c, 0, 84, 0
2, 89148, Note_on_c, 0, 82, 50
2, 89166, Note_on_c, 0, 82, 0
2, 89171, Note_on_c, 0, 55, 0
2, 89173, Note_on_c, 0, 61, 0
2, 89181, Note_on_c, 0, 84, 68
2, 89224, Note_on_c, 0, 84, 0
2, 89244, Note_on_c, 0, 81, 28
2, 89249, Note_on_c, 0, 53, 34
2, 89249, Note_on_c, 0, 57, 27
2, 89252, Note_on_c, 0, 81, 0
2, 89253, Note_on_c, 0, 50, 20
2, 89290, Note_on_c, 0, 81, 55
2, 89297, Note_on_c, 0, 57, 0
2, 89299, Note_on_c, 0, 53, 0
2, 89340, Note_on_c, 0, 81, 0
2, 89368, Note_on_c, 0, 76, 52
2, 89383, Note_on_c, 0, 50, 0
2, 89385, Note_on_c, 0, 76, 0
2, 89407, Note_on_c, 0, 79, 76
2, 89461, Note_on_c, 0, 79, 0
2, 89488, Note_on_c, 0, 79, 80
2, 89495, Note_on_c, 0, 57, 32
2, 89518, Note_on_c, 0, 79, 0
2, 89525, Note_on_c, 0, 57, 0
2, 89563, Note_on_c, 0, 79, 66
2, 89588, Note_on_c, 0, 77, 57
2, 89590, Control_c, 0, 64, 127
2, 89595, Note_on_c, 0, 79, 0
2, 89620, Note_on_c, 0, 76, 51
2, 89622, Note_on_c, 0, 77, 0
2, 89633, Note_on_c, 0, 57, 28
2, 89642, Note_on_c, 0, 76, 0
2, 89648, Control_c, 0, 64, 0
2, 89657, Note_on_c, 0, 57, 0
2, 89665, Note_on_c, 0, 73, 42
2, 89717, Control_c, 0, 64, 127
2, 89730, Note_on_c, 0, 73, 0
2, 89736, Note_on_c, 0, 76, 66
2, 89737, Note_on_c, 0, 58, 37
2, 89737, Note_on_c, 0, 62, 38
2, 89743, Note_on_c, 0, 57, 34
2, 89753, Note_on_c, 0, 53, 18
2, 89756, Control_c, 0, 64, 0
2, 89765, Note_on_c, 0, 62, 0
2, 89766, Note_on_c, 0, 53, 0
2, 89770, Note_on_c, 0, 76, 0
2, 89778, Note_on_c, 0, 58, 0
2, 89786, Note_on_c, 0, 74, 40
2, 89794, Note_on_c, 0, 76, 24
2, 89807, Note_on_c, 0, 57, 0
2, 89849, Note_on_c, 0, 74, 0
2, 89851, Note_on_c, 0, 76, 0
2, 89852, Control_c, 0, 64, 127
2, 89857, Note_on_c, 0, 69, 63
2, 89868, Note_on_c, 0, 58, 25
2, 89873, Control_c, 0, 64, 0
2, 89886, Note_on_c, 0, 69, 0
2, 89888, Note_on_c, 0, 58, 0
2, 89902, Note_on_c, 0, 67, 31
2, 89959, Control_c, 0, 64, 127
2, 89970, Note_on_c, 0, 67, 0
2, 89981, Note_on_c, 0, 65, 36
2, 89982, Control_c, 0, 64, 0
2, 89991, Note_on_c, 0, 65, 0
2, 89993, Note_on_c, 0, 58, 30
2, 90015, Note_on_c, 0, 58, 0
2, 90021, Note_on_c, 0, 67, 51
2, 90063, Note_on_c, 0, 67, 0
2, 90074, Note_on_c, 0, 69, 42
2, 90093, Note_on_c, 0, 67, 34
2, 90101, Note_on_c, 0, 69, 0
2, 90121, Note_on_c, 0, 67, 0
2, 90130, Note_on_c, 0, 65, 30
2, 90175, Control_c, 0, 64, 127
2, 90188, Note_on_c, 0, 65, 0
2, 90208, Note_on_c, 0, 67, 62
2, 90214, Note_on_c, 0, 62, 25
2, 90214, Note_on_c, 0, 56, 30
2, 90227, Control_c, 0, 64, 0
2, 90233, Note_on_c, 0, 62, 0
2, 90236, Note_on_c, 0, 56, 0
2, 90254, Note_on_c, 0, 67, 0
2, 90273, Note_on_c, 0, 68, 56
2, 90317, Control_c, 0, 64, 127
2, 90328, Note_on_c, 0, 68, 0
2, 90337, Note_on_c, 0, 70, 61
2, 90346, Note_on_c, 0, 62, 35
2, 90357, Note_on_c, 0, 56, 20
2, 90365, Note_on_c, 0, 70, 0
2, 90365, Control_c, 0, 64, 0
2, 90373, Note_on_c, 0, 56, 0
2, 90385, Note_on_c, 0, 68, 38
2, 90416, Note_on_c, 0, 62, 0
2, 90446, Note_on_c, 0, 68, 0
2, 90457, Note_on_c, 0, 65, 30
2, 90467, Note_on_c, 0, 65, 0
2, 90492, Control_c, 0, 64, 127
2, 90494, Note_on_c, 0, 67, 44
2, 90549, Note_on_c, 0, 67, 0
2, 90569, Note_on_c, 0, 62, 54
2, 90573, Control_c, 0, 64, 0
2, 90574, Note_on_c, 0, 56, 26
2, 90577, Note_on_c, 0, 62, 0
2, 90590, Note_on_c, 0, 56, 0
2, 90635, Control_c, 0, 64, 127
2, 90687, Control_c, 0, 64, 0
2, 90690, Note_on_c, 0, 56, 59
2, 90692, Note_on_c, 0, 62, 63
2, 90692, Note_on_c, 0, 69, 64
2, 90693, Note_on_c, 0, 81, 69
2, 90698, Note_on_c, 0, 62, 0
2, 90699, Note_on_c, 0, 69, 0
2, 90702, Note_on_c, 0, 81, 0
2, 90707, Note_on_c, 0, 56, 0
2, 90730, Control_c, 0, 64, 127
2, 90784, Control_c, 0, 64, 0
2, 90805, Note_on_c, 0, 60, 71
2, 90805, Note_on_c, 0, 61, 58
2, 90807, Note_on_c, 0, 65, 56
2, 90808, Note_on_c, 0, 72, 66
2, 90809, Note_on_c, 0, 84, 68
2, 90810, Note_on_c, 0, 58, 26
2, 90812, Note_on_c, 0, 60, 0
2, 90814, Note_on_c, 0, 61, 0
2, 90815, Note_on_c, 0, 65, 0
2, 90816, Note_on_c, 0, 72, 0
2, 90816, Note_on_c, 0, 84, 0
2, 90818, Note_on_c, 0, 58, 0
2, 90844, Note_on_c, 0, 61, 58
2, 90845, Note_on_c, 0, 60, 58
2, 90846, Note_on_c, 0, 85, 77
2, 90846, Note_on_c, 0, 73, 67
2, 90847, Note_on_c, 0, 65, 64
2, 90848, Note_on_c, 0, 55, 58
2, 90850, Control_c, 0, 64, 127
2, 90851, Note_on_c, 0, 58, 33
2, 90898, Note_on_c, 0, 65, 0
2, 90899, Note_on_c, 0, 55, 0
2, 90901, Note_on_c, 0, 85, 0
2, 90902, Note_on_c, 0, 73, 0
2, 90904, Note_on_c, 0, 61, 0
2, 90907, Note_on_c, 0, 58, 0
2, 90909, Note_on_c, 0, 60, 0
2, 90928, Note_on_c, 0, 87, 74
2, 90928, Note_on_c, 0, 60, 71
2, 90929, Note_on_c, 0, 75, 71
2, 90933, Note_on_c, 0, 65, 52
2, 90933, Note_on_c, 0, 61, 50
2, 90936, Note_on_c, 0, 58, 25
2, 90941, Note_on_c, 0, 65, 0
2, 90946, Note_on_c, 0, 75, 0
2, 90947, Note_on_c, 0, 87, 0
2, 90947, Control_c, 0, 64, 0
2, 90951, Note_on_c, 0, 58, 0
2, 90951, Note_on_c, 0, 61, 0
2, 90957, Note_on_c, 0, 60, 0
2, 90966, Note_on_c, 0, 85, 60
2, 90968, Note_on_c, 0, 60, 18
2, 90968, Note_on_c, 0, 73, 51
2, 90970, Note_on_c, 0, 65, 37
2, 90970, Note_on_c, 0, 61, 56
2, 90973, Note_on_c, 0, 55, 38
2, 90984, Control_c, 0, 64, 127
2, 91022, Note_on_c, 0, 65, 0
2, 91025, Note_on_c, 0, 85, 0
2, 91026, Note_on_c, 0, 55, 0
2, 91032, Note_on_c, 0, 73, 0
2, 91035, Note_on_c, 0, 60, 0
2, 91037, Note_on_c, 0, 61, 0
2, 91049, Control_c, 0, 64, 0
2, 91073, Note_on_c, 0, 61, 48
2, 91079, Note_on_c, 0, 65, 32
2, 91079, Note_on_c, 0, 84, 64
2, 91082, Note_on_c, 0, 72, 57
2, 91083, Note_on_c, 0, 55, 25
2, 91087, Note_on_c, 0, 65, 0
2, 91089, Control_c, 0, 64, 127
2, 91098, Note_on_c, 0, 55, 0
2, 91099, Note_on_c, 0, 61, 0
2, 91103, Note_on_c, 0, 84, 0
2, 91121, Note_on_c, 0, 72, 0
2, 91194, Control_c, 0, 64, 0
2, 91203, Note_on_c, 0, 60, 35
2, 91204, Note_on_c, 0, 81, 48
2, 91204, Note_on_c, 0, 76, 42
2, 91205, Note_on_c, 0, 57, 29
2, 91206, Note_on_c, 0, 69, 44
2, 91206, Note_on_c, 0, 50, 30
2, 91207, Note_on_c, 0, 53, 41
2, 91228, Note_on_c, 0, 76, 0
2, 91228, Note_on_c, 0, 81, 0
2, 91240, Control_c, 0, 64, 127
2, 91241, Note_on_c, 0, 69, 0
2, 91271, Note_on_c, 0, 60, 0
2, 91288, Control_c, 0, 64, 0
2, 91317, Note_on_c, 0, 60, 10
2, 91323, Note_on_c, 0, 77, 58
2, 91325, Note_on_c, 0, 65, 42
2, 91327, Note_on_c, 0, 72, 48
2, 91335, Note_on_c, 0, 57, 0
2, 91335, Note_on_c, 0, 53, 0
2, 91336, Note_on_c, 0, 50, 0
2, 91355, Note_on_c, 0, 60, 0
2, 91460, Control_c, 0, 64, 127
2, 91485, Note_on_c, 0, 65, 0
2, 91550, Control_c, 0, 64, 0
2, 91562, Note_on_c, 0, 68, 74
2, 91563, Note_on_c, 0, 61, 51
2, 91565, Note_on_c, 0, 63, 55
2, 91566, Note_on_c, 0, 57, 50
2, 91645, Note_on_c, 0, 57, 0
2, 91663, Note_on_c, 0, 68, 0
2, 91670, Note_on_c, 0, 63, 0
2, 91677, Note_on_c, 0, 72, 0
2, 91678, Note_on_c, 0, 61, 0
2, 91685, Note_on_c, 0, 67, 55
2, 91687, Note_on_c, 0, 77, 0
2, 91690, Note_on_c, 0, 56, 40
2, 91691, Note_on_c, 0, 62, 41
2, 91739, Note_on_c, 0, 62, 0
2, 91757, Control_c, 0, 64, 127
2, 91777, Note_on_c, 0, 62, 30
2, 91787, Note_on_c, 0, 67, 0
2, 91789, Control_c, 0, 64, 0
2, 91795, Note_on_c, 0, 72, 38
2, 91816, Note_on_c, 0, 62, 0
2, 91818, Note_on_c, 0, 73, 46
2, 91832, Note_on_c, 0, 73, 0
2, 91833, Note_on_c, 0, 72, 0
2, 91839, Note_on_c, 0, 74, 41
2, 91873, Note_on_c, 0, 74, 0
2, 91877, Note_on_c, 0, 56, 0
2, 91889, Note_on_c, 0, 65, 54
2, 91890, Note_on_c, 0, 77, 85
2, 91891, Note_on_c, 0, 61, 53
2, 91891, Note_on_c, 0, 55, 61
2, 91925, Note_on_c, 0, 77, 0
2, 91967, Note_on_c, 0, 65, 0
2, 91970, Note_on_c, 0, 74, 73
2, 91974, Control_c, 0, 64, 127
2, 91979, Note_on_c, 0, 61, 0
2, 92002, Note_on_c, 0, 74, 0
2, 92013, Note_on_c, 0, 61, 53
2, 92032, Note_on_c, 0, 61, 0
2, 92044, Control_c, 0, 64, 0
2, 92045, Note_on_c, 0, 65, 57
2, 92050, Note_on_c, 0, 55, 0
2, 92113, Note_on_c, 0, 65, 0
2, 92122, Note_on_c, 0, 68, 69
2, 92123, Note_on_c, 0, 74, 65
2, 92127, Note_on_c, 0, 50, 66
2, 92129, Note_on_c, 0, 49, 44
2, 92138, Note_on_c, 0, 49, 0
2, 92148, Note_on_c, 0, 74, 0
2, 92151, Note_on_c, 0, 68, 0
2, 92203, Note_on_c, 0, 74, 68
2, 92203, Note_on_c, 0, 67, 58
2, 92242, Note_on_c, 0, 67, 0
2, 92247, Note_on_c, 0, 74, 0
2, 92289, Note_on_c, 0, 65, 60
2, 92350, Note_on_c, 0, 65, 0
2, 92369, Note_on_c, 0, 62, 66
2, 92392, Note_on_c, 0, 62, 0
2, 92410, Note_on_c, 0, 57, 47
2, 92466, Note_on_c, 0, 57, 0
2, 92487, Note_on_c, 0, 57, 48
2, 92508, Note_on_c, 0, 57, 0
2, 92543, Note_on_c, 0, 55, 75
2, 92590, Note_on_c, 0, 55, 0
2, 92599, Note_on_c, 0, 49, 35
2, 92607, Note_on_c, 0, 49, 0
2, 92641, Note_on_c, 0, 53, 70
2, 92700, Note_on_c, 0, 53, 0
2, 92724, Note_on_c, 0, 53, 53
2, 92731, Note_on_c, 0, 50, 0
2, 92743, Note_on_c, 0, 53, 0
2, 92764, Note_on_c, 0, 50, 32
2, 92769, Note_on_c, 0, 48, 27
2, 92776, Note_on_c, 0, 48, 0
2, 92843, Note_on_c, 0, 49, 39
2, 92850, Note_on_c, 0, 49, 0
2, 92864, Note_on_c, 0, 50, 0
2, 92877, Note_on_c, 0, 52, 66
2, 92921, Control_c, 0, 64, 127
2, 92944, Note_on_c, 0, 52, 0
2, 92957, Note_on_c, 0, 53, 67
2, 92958, Note_on_c, 0, 50, 47
2, 92968, Note_on_c, 0, 50, 0
2, 92985, Control_c, 0, 64, 0
2, 92993, Note_on_c, 0, 53, 0
2, 93013, Note_on_c, 0, 55, 50
2, 93069, Note_on_c, 0, 55, 0
2, 93080, Note_on_c, 0, 57, 65
2, 93113, Note_on_c, 0, 57, 0
2, 93133, Note_on_c, 0, 58, 51
2, 93141, Control_c, 0, 64, 127
2, 93180, Note_on_c, 0, 58, 0
2, 93204, Note_on_c, 0, 62, 71
2, 93215, Note_on_c, 0, 57, 30
2, 93226, Note_on_c, 0, 57, 0
2, 93231, Note_on_c, 0, 62, 0
2, 93232, Control_c, 0, 64, 0
2, 93250, Note_on_c, 0, 65, 50
2, 93250, Note_on_c, 0, 57, 35
2, 93258, Note_on_c, 0, 58, 25
2, 93267, Note_on_c, 0, 58, 0
2, 93275, Control_c, 0, 64, 127
2, 93277, Note_on_c, 0, 57, 0
2, 93305, Note_on_c, 0, 65, 0
2, 93323, Note_on_c, 0, 69, 78
2, 93327, Note_on_c, 0, 57, 39
2, 93328, Note_on_c, 0, 62, 39
2, 93328, Note_on_c, 0, 58, 42
2, 93338, Note_on_c, 0, 62, 0
2, 93339, Note_on_c, 0, 57, 0
2, 93346, Note_on_c, 0, 58, 0
2, 93349, Control_c, 0, 64, 0
2, 93351, Note_on_c, 0, 69, 0
2, 93362, Note_on_c, 0, 57, 65
2, 93364, Note_on_c, 0, 62, 68
2, 93364, Note_on_c, 0, 58, 71
2, 93365, Note_on_c, 0, 70, 88
2, 93376, Note_on_c, 0, 69, 68
2, 93379, Control_c, 0, 64, 127
2, 93417, Note_on_c, 0, 69, 0
2, 93420, Note_on_c, 0, 70, 0
2, 93425, Note_on_c, 0, 58, 0
2, 93425, Note_on_c, 0, 62, 0
2, 93443, Note_on_c, 0, 72, 83
2, 93446, Note_on_c, 0, 62, 62
2, 93447, Note_on_c, 0, 58, 69
2, 93449, Control_c, 0, 64, 0
2, 93462, Note_on_c, 0, 62, 0
2, 93474, Note_on_c, 0, 72, 0
2, 93488, Control_c, 0, 64, 127
2, 93489, Note_on_c, 0, 62, 44
2, 93489, Note_on_c, 0, 70, 63
2, 93507, Note_on_c, 0, 57, 0
2, 93514, Note_on_c, 0, 58, 0
2, 93551, Note_on_c, 0, 70, 0
2, 93555, Note_on_c, 0, 62, 0
2, 93564, Note_on_c, 0, 61, 58
2, 93565, Note_on_c, 0, 69, 70
2, 93565, Note_on_c, 0, 55, 56
2, 93579, Control_c, 0, 64, 0
2, 93608, Control_c, 0, 64, 127
2, 93639, Note_on_c, 0, 55, 0
2, 93645, Note_on_c, 0, 61, 0
2, 93669, Note_on_c, 0, 69, 0
2, 93686, Note_on_c, 0, 61, 50
2, 93704, Note_on_c, 0, 61, 0
2, 93709, Control_c, 0, 64, 0
2, 93719, Note_on_c, 0, 54, 63
2, 93721, Note_on_c, 0, 61, 57
2, 93723, Note_on_c, 0, 73, 81
2, 93725, Note_on_c, 0, 66, 73
2, 93730, Note_on_c, 0, 54, 0
2, 93741, Control_c, 0, 64, 127
2, 93743, Note_on_c, 0, 55, 19
2, 93769, Note_on_c, 0, 55, 0
2, 93782, Note_on_c, 0, 66, 0
2, 93787, Note_on_c, 0, 61, 0
2, 93794, Note_on_c, 0, 73, 0
2, 93801, Note_on_c, 0, 75, 78
2, 93803, Note_on_c, 0, 66, 46
2, 93805, Note_on_c, 0, 61, 53
2, 93808, Note_on_c, 0, 55, 51
2, 93814, Control_c, 0, 64, 0
2, 93819, Note_on_c, 0, 55, 0
2, 93823, Note_on_c, 0, 66, 0
2, 93835, Note_on_c, 0, 61, 0
2, 93843, Control_c, 0, 64, 127
2, 93847, Note_on_c, 0, 66, 46
2, 93847, Note_on_c, 0, 61, 37
2, 93849, Note_on_c, 0, 73, 56
2, 93851, Note_on_c, 0, 55, 47
2, 93857, Note_on_c, 0, 75, 0
2, 93873, Note_on_c, 0, 55, 0
2, 93888, Note_on_c, 0, 66, 0
2, 93897, Note_on_c, 0, 61, 0
2, 93912, Note_on_c, 0, 73, 0
2, 93922, Note_on_c, 0, 61, 45
2, 93926, Note_on_c, 0, 72, 58
2, 93926, Note_on_c, 0, 55, 60
2, 93936, Control_c, 0, 64, 0
2, 93966, Control_c, 0, 64, 127
2, 93987, Note_on_c, 0, 55, 0
2, 93993, Note_on_c, 0, 61, 0
2, 94013, Note_on_c, 0, 72, 0
2, 94063, Control_c, 0, 64, 0
2, 94078, Note_on_c, 0, 67, 58
2, 94078, Note_on_c, 0, 61, 67
2, 94078, Note_on_c, 0, 72, 56
2, 94079, Note_on_c, 0, 79, 65
2, 94080, Note_on_c, 0, 76, 49
2, 94094, Control_c, 0, 64, 127
2, 94121, Note_on_c, 0, 67, 0
2, 94128, Note_on_c, 0, 79, 0
2, 94137, Note_on_c, 0, 72, 0
2, 94138, Note_on_c, 0, 61, 0
2, 94145, Note_on_c, 0, 76, 0
2, 94162, Note_on_c, 0, 81, 79
2, 94165, Note_on_c, 0, 72, 37
2, 94165, Note_on_c, 0, 60, 54
2, 94165, Note_on_c, 0, 76, 55
2, 94167, Note_on_c, 0, 69, 46
2, 94171, Note_on_c, 0, 71, 45
2, 94178, Note_on_c, 0, 71, 0
2, 94179, Control_c, 0, 64, 0
2, 94180, Note_on_c, 0, 69, 0
2, 94182, Note_on_c, 0, 72, 0
2, 94184, Note_on_c, 0, 81, 0
2, 94184, Note_on_c, 0, 60, 0
2, 94188, Note_on_c, 0, 76, 0
2, 94203, Note_on_c, 0, 79, 37
2, 94204, Note_on_c, 0, 60, 13
2, 94205, Note_on_c, 0, 57, 40
2, 94210, Control_c, 0, 64, 127
2, 94226, Note_on_c, 0, 67, 15
2, 94230, Note_on_c, 0, 79, 0
2, 94245, Note_on_c, 0, 67, 0
2, 94262, Note_on_c, 0, 60, 0
2, 94283, Note_on_c, 0, 77, 52
2, 94286, Note_on_c, 0, 72, 57
2, 94287, Note_on_c, 0, 65, 52
2, 94288, Note_on_c, 0, 50, 43
2, 94290, Control_c, 0, 64, 0
2, 94291, Note_on_c, 0, 60, 40
2, 94306, Note_on_c, 0, 57, 0
2, 94324, Control_c, 0, 64, 127
2, 94355, Note_on_c, 0, 65, 0
2, 94384, Note_on_c, 0, 72, 0
2, 94396, Note_on_c, 0, 57, 66
2, 94408, Note_on_c, 0, 77, 0
2, 94412, Control_c, 0, 64, 0
2, 94416, Control_c, 0, 64, 127
2, 94421, Note_on_c, 0, 60, 0
2, 94426, Note_on_c, 0, 50, 0
2, 94428, Note_on_c, 0, 57, 0
2, 94563, Note_on_c, 0, 65, 44
2, 94564, Note_on_c, 0, 60, 45
2, 94566, Note_on_c, 0, 54, 35
2, 94568, Note_on_c, 0, 58, 34
2, 94575, Control_c, 0, 64, 0
2, 94693, Note_on_c, 0, 95, 80
2, 94714, Note_on_c, 0, 95, 0
2, 94719, Note_on_c, 0, 65, 0
2, 94731, Note_on_c, 0, 98, 89
2, 94741, Note_on_c, 0, 60, 0
2, 94764, Note_on_c, 0, 98, 0
2, 94777, Note_on_c, 0, 58, 0
2, 94777, Note_on_c, 0, 96, 80
2, 94785, Note_on_c, 0, 60, 38
2, 94785, Note_on_c, 0, 64, 40
2, 94808, Note_on_c, 0, 96, 0
2, 94823, Note_on_c, 0, 92, 68
2, 94839, Note_on_c, 0, 64, 0
2, 94897, Note_on_c, 0, 64, 40
2, 94911, Note_on_c, 0, 64, 0
2, 94914, Note_on_c, 0, 60, 0
2, 94945, Note_on_c, 0, 54, 0
2, 95002, Note_on_c, 0, 58, 45
2, 95003, Note_on_c, 0, 88, 59
2, 95004, Note_on_c, 0, 92, 0
2, 95004, Note_on_c, 0, 53, 51
2, 95004, Note_on_c, 0, 62, 51
2, 95006, Note_on_c, 0, 57, 36
2, 95040, Note_on_c, 0, 88, 0
2, 95063, Note_on_c, 0, 85, 35
2, 95092, Note_on_c, 0, 85, 0
2, 95099, Note_on_c, 0, 86, 51
2, 95125, Note_on_c, 0, 86, 0
2, 95133, Note_on_c, 0, 89, 74
2, 95160, Note_on_c, 0, 89, 0
2, 95170, Note_on_c, 0, 57, 0
2, 95176, Note_on_c, 0, 62, 0
2, 95177, Note_on_c, 0, 86, 64
2, 95191, Note_on_c, 0, 53, 0
2, 95201, Note_on_c, 0, 58, 0
2, 95242, Note_on_c, 0, 86, 0
2, 95254, Note_on_c, 0, 62, 40
2, 95254, Note_on_c, 0, 81, 52
2, 95254, Note_on_c, 0, 58, 29
2, 95272, Note_on_c, 0, 81, 0
2, 95293, Note_on_c, 0, 84, 76
2, 95324, Note_on_c, 0, 55, 1
2, 95328, Note_on_c, 0, 58, 0
2, 95359, Note_on_c, 0, 84, 0
2, 95374, Note_on_c, 0, 62, 0
2, 95377, Note_on_c, 0, 57, 16
2, 95403, Note_on_c, 0, 82, 74
2, 95405, Note_on_c, 0, 57, 0
2, 95418, Note_on_c, 0, 55, 0
2, 95467, Note_on_c, 0, 82, 0
2, 95483, Note_on_c, 0, 78, 27
2, 95489, Note_on_c, 0, 58, 28
2, 95492, Note_on_c, 0, 78, 0
2, 95526, Note_on_c, 0, 79, 68
2, 95538, Note_on_c, 0, 58, 0
2, 95542, Note_on_c, 0, 79, 0
2, 95549, Note_on_c, 0, 81, 47
2, 95574, Note_on_c, 0, 79, 48
2, 95579, Note_on_c, 0, 81, 0
2, 95600, Note_on_c, 0, 79, 0
2, 95604, Note_on_c, 0, 78, 38
2, 95630, Note_on_c, 0, 78, 0
2, 95639, Note_on_c, 0, 76, 26
2, 95662, Note_on_c, 0, 76, 0
2, 95728, Note_on_c, 0, 61, 46
2, 95729, Note_on_c, 0, 58, 49
2, 95737, Note_on_c, 0, 61, 0
2, 95751, Note_on_c, 0, 58, 0
2, 95759, Note_on_c, 0, 87, 65
2, 95777, Note_on_c, 0, 85, 55
2, 95787, Note_on_c, 0, 82, 56
2, 95790, Note_on_c, 0, 87, 0
2, 95803, Note_on_c, 0, 80, 40
2, 95805, Note_on_c, 0, 85, 0
2, 95817, Note_on_c, 0, 82, 0
2, 95828, Note_on_c, 0, 80, 0
2, 95839, Note_on_c, 0, 76, 24
2, 95849, Note_on_c, 0, 76, 0
2, 95858, Note_on_c, 0, 75, 52
2, 95871, Note_on_c, 0, 58, 30
2, 95872, Note_on_c, 0, 52, 34
2, 95881, Note_on_c, 0, 75, 0
2, 95900, Note_on_c, 0, 73, 54
2, 95926, Note_on_c, 0, 52, 0
2, 95928, Note_on_c, 0, 73, 0
2, 95933, Note_on_c, 0, 72, 40
2, 95942, Note_on_c, 0, 58, 0
2, 95943, Note_on_c, 0, 72, 0
2, 95958, Note_on_c, 0, 70, 54
2, 95973, Note_on_c, 0, 70, 0
2, 95980, Note_on_c, 0, 69, 40
2, 95995, Note_on_c, 0, 69, 0
2, 96005, Note_on_c, 0, 68, 55
2, 96013, Note_on_c, 0, 53, 24
2, 96023, Note_on_c, 0, 68, 0
2, 96033, Note_on_c, 0, 70, 74
2, 96034, Note_on_c, 0, 53, 0
2, 96066, Note_on_c, 0, 70, 0
2, 96070, Note_on_c, 0, 68, 56
2, 96078, Note_on_c, 0, 68, 0
2, 96093, Note_on_c, 0, 69, 71
2, 96121, Note_on_c, 0, 69, 0
2, 96140, Note_on_c, 0, 64, 67
2, 96154, Note_on_c, 0, 64, 0
2, 96192, Note_on_c, 0, 60, 55
2, 96204, Note_on_c, 0, 60, 0
2, 96230, Note_on_c, 0, 58, 47
2, 96252, Note_on_c, 0, 58, 0
2, 96263, Note_on_c, 0, 57, 37
2, 96299, Note_on_c, 0, 57, 0
2, 96334, Note_on_c, 0, 57, 71
2, 96352, Note_on_c, 0, 57, 0
2, 96385, Note_on_c, 0, 57, 57
2, 96407, Note_on_c, 0, 57, 0
2, 96454, Note_on_c, 0, 57, 70
2, 96474, Note_on_c, 0, 57, 0
2, 96533, Control_c, 0, 64, 127
2, 96583, Control_c, 0, 64, 0
2, 96590, Control_c, 0, 64, 127
2, 96658, Note_on_c, 0, 76, 80
2, 96658, Note_on_c, 0, 84, 78
2, 96661, Note_on_c, 0, 73, 70
2, 96662, Note_on_c, 0, 82, 48
2, 96663, Note_on_c, 0, 72, 78
2, 96667, Note_on_c, 0, 79, 37
2, 96676, Note_on_c, 0, 79, 0
2, 96676, Note_on_c, 0, 76, 0
2, 96677, Note_on_c, 0, 84, 0
2, 96679, Note_on_c, 0, 72, 0
2, 96681, Note_on_c, 0, 82, 0
2, 96683, Control_c, 0, 64, 0
2, 96689, Note_on_c, 0, 73, 0
2, 96714, Note_on_c, 0, 82, 30
2, 96722, Note_on_c, 0, 82, 0
2, 96732, Note_on_c, 0, 70, 73
2, 96733, Note_on_c, 0, 73, 63
2, 96733, Note_on_c, 0, 81, 60
2, 96737, Note_on_c, 0, 76, 60
2, 96737, Note_on_c, 0, 69, 64
2, 96744, Control_c, 0, 64, 127
2, 96765, Note_on_c, 0, 81, 0
2, 96774, Note_on_c, 0, 76, 0
2, 96777, Note_on_c, 0, 73, 0
2, 96781, Note_on_c, 0, 70, 0
2, 96790, Note_on_c, 0, 69, 0
2, 96807, Note_on_c, 0, 78, 70
2, 96812, Note_on_c, 0, 66, 47
2, 96813, Note_on_c, 0, 70, 67
2, 96814, Note_on_c, 0, 67, 45
2, 96818, Note_on_c, 0, 69, 49
2, 96825, Note_on_c, 0, 69, 0
2, 96828, Control_c, 0, 64, 0
2, 96839, Note_on_c, 0, 70, 0
2, 96843, Note_on_c, 0, 67, 0
2, 96844, Note_on_c, 0, 66, 0
2, 96851, Note_on_c, 0, 78, 0
2, 96856, Note_on_c, 0, 63, 30
2, 96866, Note_on_c, 0, 67, 26
2, 96875, Note_on_c, 0, 67, 0
2, 96904, Control_c, 0, 64, 127
2, 96926, Note_on_c, 0, 63, 0
2, 96930, Note_on_c, 0, 79, 71
2, 96931, Note_on_c, 0, 64, 60
2, 96932, Note_on_c, 0, 73, 71
2, 96932, Note_on_c, 0, 69, 71
2, 96953, Note_on_c, 0, 64, 0
2, 96953, Control_c, 0, 64, 0
2, 96955, Note_on_c, 0, 79, 0
2, 96961, Note_on_c, 0, 69, 0
2, 96965, Note_on_c, 0, 73, 0
2, 96978, Note_on_c, 0, 77, 51
2, 96981, Note_on_c, 0, 69, 39
2, 96983, Note_on_c, 0, 62, 36
2, 96983, Note_on_c, 0, 72, 52
2, 97008, Note_on_c, 0, 77, 0
2, 97011, Note_on_c, 0, 72, 0
2, 97023, Note_on_c, 0, 69, 0
2, 97027, Control_c, 0, 64, 127
2, 97052, Note_on_c, 0, 62, 0
2, 97054, Note_on_c, 0, 76, 69
2, 97059, Note_on_c, 0, 61, 47
2, 97060, Note_on_c, 0, 69, 62
2, 97061, Note_on_c, 0, 65, 49
2, 97076, Control_c, 0, 64, 0
2, 97081, Note_on_c, 0, 65, 0
2, 97083, Note_on_c, 0, 76, 0
2, 97088, Note_on_c, 0, 69, 0
2, 97094, Note_on_c, 0, 61, 0
2, 97101, Note_on_c, 0, 74, 38
2, 97101, Note_on_c, 0, 60, 40
2, 97111, Note_on_c, 0, 65, 32
2, 97124, Note_on_c, 0, 74, 0
2, 97135, Note_on_c, 0, 65, 0
2, 97154, Control_c, 0, 64, 127
2, 97159, Note_on_c, 0, 60, 0
2, 97171, Note_on_c, 0, 57, 40
2, 97173, Note_on_c, 0, 69, 55
2, 97175, Note_on_c, 0, 62, 50
2, 97176, Note_on_c, 0, 65, 51
2, 97188, Control_c, 0, 64, 0
2, 97198, Note_on_c, 0, 65, 0
2, 97200, Note_on_c, 0, 62, 0
2, 97207, Note_on_c, 0, 57, 0
2, 97217, Note_on_c, 0, 53, 40
2, 97221, Note_on_c, 0, 69, 0
2, 97223, Note_on_c, 0, 62, 36
2, 97228, Note_on_c, 0, 65, 16
2, 97231, Control_c, 0, 64, 127
2, 97238, Note_on_c, 0, 53, 0
2, 97251, Note_on_c, 0, 65, 0
2, 97282, Note_on_c, 0, 62, 0
2, 97297, Note_on_c, 0, 50, 38
2, 97311, Control_c, 0, 64, 0
2, 97327, Note_on_c, 0, 54, 44
2, 97330, Note_on_c, 0, 44, 38
2, 97332, Note_on_c, 0, 59, 43
2, 97340, Control_c, 0, 64, 127
2, 97351, Note_on_c, 0, 50, 0
2, 97385, Note_on_c, 0, 59, 0
2, 97389, Note_on_c, 0, 54, 0
2, 97395, Note_on_c, 0, 50, 44
2, 97397, Note_on_c, 0, 44, 0
2, 97404, Note_on_c, 0, 58, 56
2, 97415, Control_c, 0, 64, 0
2, 97417, Note_on_c, 0, 50, 0
2, 97419, Note_on_c, 0, 53, 32
2, 97422, Note_on_c, 0, 43, 38
2, 97496, Control_c, 0, 64, 127
2, 97519, Note_on_c, 0, 58, 0
2, 97521, Note_on_c, 0, 57, 57
2, 97526, Note_on_c, 0, 50, 36
2, 97533, Note_on_c, 0, 43, 0
2, 97539, Note_on_c, 0, 53, 0
2, 97542, Note_on_c, 0, 57, 0
2, 97544, Note_on_c, 0, 50, 0
2, 97544, Control_c, 0, 64, 0
2, 97565, Note_on_c, 0, 58, 34
2, 97573, Note_on_c, 0, 58, 0
2, 97600, Note_on_c, 0, 62, 54
2, 97620, Note_on_c, 0, 62, 0
2, 97638, Note_on_c, 0, 65, 66
2, 97652, Note_on_c, 0, 57, 31
2, 97659, Note_on_c, 0, 65, 0
2, 97682, Note_on_c, 0, 69, 79
2, 97684, Note_on_c, 0, 62, 40
2, 97691, Note_on_c, 0, 58, 25
2, 97697, Note_on_c, 0, 62, 0
2, 97699, Note_on_c, 0, 58, 0
2, 97701, Note_on_c, 0, 69, 0
2, 97709, Note_on_c, 0, 57, 0
2, 97718, Note_on_c, 0, 70, 76
2, 97719, Note_on_c, 0, 57, 17
2, 97721, Note_on_c, 0, 62, 43
2, 97740, Note_on_c, 0, 62, 0
2, 97741, Note_on_c, 0, 70, 0
2, 97746, Control_c, 0, 64, 127
2, 97760, Note_on_c, 0, 69, 74
2, 97762, Note_on_c, 0, 62, 44
2, 97769, Note_on_c, 0, 58, 30
2, 97779, Note_on_c, 0, 58, 0
2, 97779, Note_on_c, 0, 62, 0
2, 97787, Note_on_c, 0, 69, 0
2, 97791, Note_on_c, 0, 57, 0
2, 97791, Control_c, 0, 64, 0
2, 97806, Note_on_c, 0, 57, 24
2, 97808, Note_on_c, 0, 65, 53
2, 97812, Note_on_c, 0, 58, 31
2, 97825, Note_on_c, 0, 58, 0
2, 97834, Control_c, 0, 64, 127
2, 97850, Note_on_c, 0, 57, 0
2, 97878, Note_on_c, 0, 65, 0
2, 97883, Note_on_c, 0, 57, 36
2, 97886, Note_on_c, 0, 62, 51
2, 97894, Note_on_c, 0, 62, 0
2, 97895, Control_c, 0, 64, 0
2, 97897, Note_on_c, 0, 57, 0
2, 97958, Control_c, 0, 64, 127
2, 98029, Control_c, 0, 64, 0
2, 98044, Note_on_c, 0, 62, 57
2, 98044, Note_on_c, 0, 67, 59
2, 98045, Note_on_c, 0, 56, 53
2, 98045, Note_on_c, 0, 72, 83
2, 98062, Note_on_c, 0, 67, 0
2, 98070, Note_on_c, 0, 62, 0
2, 98071, Note_on_c, 0, 72, 0
2, 98082, Note_on_c, 0, 74, 74
2, 98091, Note_on_c, 0, 62, 24
2, 98102, Control_c, 0, 64, 127
2, 98103, Note_on_c, 0, 62, 0
2, 98103, Note_on_c, 0, 56, 0
2, 98110, Note_on_c, 0, 74, 0
2, 98122, Note_on_c, 0, 56, 36
2, 98122, Note_on_c, 0, 72, 68
2, 98123, Note_on_c, 0, 62, 57
2, 98125, Note_on_c, 0, 67, 35
2, 98135, Note_on_c, 0, 67, 0
2, 98142, Note_on_c, 0, 56, 0
2, 98145, Note_on_c, 0, 62, 0
2, 98147, Control_c, 0, 64, 0
2, 98149, Note_on_c, 0, 72, 0
2, 98168, Note_on_c, 0, 62, 39
2, 98170, Note_on_c, 0, 70, 56
2, 98170, Note_on_c, 0, 56, 31
2, 98176, Note_on_c, 0, 67, 24
2, 98187, Note_on_c, 0, 67, 0
2, 98195, Control_c, 0, 64, 127
2, 98197, Note_on_c, 0, 62, 0
2, 98202, Note_on_c, 0, 56, 0
2, 98246, Note_on_c, 0, 68, 62
2, 98247, Note_on_c, 0, 62, 49
2, 98249, Note_on_c, 0, 70, 0
2, 98249, Note_on_c, 0, 56, 46
2, 98256, Control_c, 0, 64, 0
2, 98261, Note_on_c, 0, 68, 0
2, 98268, Note_on_c, 0, 62, 0
2, 98287, Control_c, 0, 64, 127
2, 98331, Note_on_c, 0, 56, 0
2, 98351, Note_on_c, 0, 76, 92
2, 98352, Note_on_c, 0, 61, 72
2, 98352, Note_on_c, 0, 66, 74
2, 98353, Note_on_c, 0, 55, 74
2, 98367, Control_c, 0, 64, 0
2, 98376, Note_on_c, 0, 76, 0
2, 98387, Note_on_c, 0, 77, 80
2, 98416, Note_on_c, 0, 55, 0
2, 98417, Note_on_c, 0, 61, 0
2, 98421, Control_c, 0, 64, 127
2, 98422, Note_on_c, 0, 77, 0
2, 98429, Note_on_c, 0, 76, 69
2, 98432, Note_on_c, 0, 55, 20
2, 98433, Note_on_c, 0, 61, 55
2, 98471, Note_on_c, 0, 61, 0
2, 98480, Note_on_c, 0, 76, 0
2, 98481, Note_on_c, 0, 66, 0
2, 98482, Note_on_c, 0, 55, 0
2, 98494, Note_on_c, 0, 55, 22
2, 98494, Note_on_c, 0, 61, 37
2, 98496, Note_on_c, 0, 73, 75
2, 98505, Control_c, 0, 64, 0
2, 98537, Note_on_c, 0, 73, 0
2, 98543, Note_on_c, 0, 64, 37
2, 98549, Note_on_c, 0, 72, 28
2, 98555, Control_c, 0, 64, 127
2, 98565, Note_on_c, 0, 64, 0
2, 98579, Note_on_c, 0, 61, 0
2, 98596, Note_on_c, 0, 72, 0
2, 98615, Note_on_c, 0, 70, 72
2, 98616, Note_on_c, 0, 61, 51
2, 98619, Note_on_c, 0, 64, 48
2, 98630, Note_on_c, 0, 64, 0
2, 98636, Control_c, 0, 64, 0
2, 98645, Note_on_c, 0, 70, 0
2, 98648, Note_on_c, 0, 61, 0
2, 98650, Note_on_c, 0, 55, 0
2, 98664, Note_on_c, 0, 69, 48
2, 98670, Control_c, 0, 64, 127
2, 98720, Note_on_c, 0, 69, 0
2, 98729, Note_on_c, 0, 67, 60
2, 98734, Note_on_c, 0, 57, 15
2, 98754, Control_c, 0, 64, 0
2, 98767, Note_on_c, 0, 67, 0
2, 98775, Note_on_c, 0, 65, 34
2, 98788, Control_c, 0, 64, 127
2, 98789, Note_on_c, 0, 51, 28
2, 98791, Note_on_c, 0, 61, 12
2, 98810, Note_on_c, 0, 57, 0
2, 98840, Note_on_c, 0, 65, 0
2, 98846, Note_on_c, 0, 61, 0
2, 98849, Note_on_c, 0, 64, 38
2, 98852, Note_on_c, 0, 57, 32
2, 98866, Note_on_c, 0, 51, 0
2, 98871, Note_on_c, 0, 57, 0
2, 98871, Note_on_c, 0, 64, 0
2, 98875, Control_c, 0, 64, 0
2, 98884, Note_on_c, 0, 67, 66
2, 98885, Note_on_c, 0, 60, 38
2, 98898, Note_on_c, 0, 50, 20
2, 98901, Note_on_c, 0, 60, 0
2, 98911, Note_on_c, 0, 50, 0
2, 98958, Control_c, 0, 64, 127
2, 98967, Control_c, 0, 64, 0
2, 98972, Note_on_c, 0, 64, 58
2, 98974, Note_on_c, 0, 67, 0
2, 98990, Note_on_c, 0, 64, 0
2, 99010, Note_on_c, 0, 65, 56
2, 99012, Control_c, 0, 64, 127
2, 99088, Note_on_c, 0, 45, 38
2, 99090, Note_on_c, 0, 57, 57
2, 99093, Note_on_c, 0, 38, 36
2, 99094, Control_c, 0, 64, 0
2, 99100, Note_on_c, 0, 45, 0
2, 99101, Note_on_c, 0, 38, 0
2, 99130, Control_c, 0, 64, 127
2, 99152, Note_on_c, 0, 65, 0
2, 99187, Note_on_c, 0, 57, 0
2, 99206, Note_on_c, 0, 62, 53
2, 99228, Note_on_c, 0, 62, 0
2, 99228, Control_c, 0, 64, 0
2, 99248, Note_on_c, 0, 65, 54
2, 99251, Control_c, 0, 64, 127
2, 99302, Note_on_c, 0, 65, 0
2, 99332, Note_on_c, 0, 70, 67
2, 99352, Control_c, 0, 64, 0
2, 99370, Note_on_c, 0, 70, 0
2, 99382, Control_c, 0, 64, 127
2, 99399, Note_on_c, 0, 71, 51
2, 99447, Note_on_c, 0, 71, 0
2, 99450, Note_on_c, 0, 63, 62
2, 99452, Note_on_c, 0, 59, 59
2, 99453, Note_on_c, 0, 73, 69
2, 99456, Note_on_c, 0, 53, 48
2, 99462, Note_on_c, 0, 59, 0
2, 99466, Note_on_c, 0, 53, 0
2, 99466, Control_c, 0, 64, 0
2, 99473, Note_on_c, 0, 63, 0
2, 99485, Note_on_c, 0, 73, 0
2, 99495, Control_c, 0, 64, 127
2, 99510, Note_on_c, 0, 76, 44
2, 99549, Note_on_c, 0, 76, 0
2, 99569, Note_on_c, 0, 81, 70
2, 99570, Control_c, 0, 64, 0
2, 99612, Note_on_c, 0, 81, 0
2, 99620, Note_on_c, 0, 85, 56
2, 99645, Note_on_c, 0, 85, 0
2, 99685, Note_on_c, 0, 59, 50
2, 99686, Note_on_c, 0, 63, 56
2, 99687, Note_on_c, 0, 88, 61
2, 99705, Note_on_c, 0, 63, 0
2, 99714, Note_on_c, 0, 59, 0
2, 99732, Note_on_c, 0, 53, 24
2, 99735, Note_on_c, 0, 93, 47
2, 99746, Note_on_c, 0, 88, 0
2, 99747, Note_on_c, 0, 53, 0
2, 99786, Note_on_c, 0, 93, 0
2, 99808, Note_on_c, 0, 97, 52
2, 99828, Note_on_c, 0, 97, 0
2, 99970, Note_on_c, 0, 103, 84
2, 99972, Note_on_c, 0, 91, 75
2, 99973, Note_on_c, 0, 67, 73
2, 99974, Note_on_c, 0, 56, 71
2, 99975, Note_on_c, 0, 96, 66
2, 99979, Note_on_c, 0, 62, 64
2, 99982, Note_on_c, 0, 96, 0
2, 99996, Note_on_c, 0, 91, 0
2, 100006, Note_on_c, 0, 103, 0
2, 100006, Note_on_c, 0, 62, 0
2, 100007, Note_on_c, 0, 56, 0
2, 100010, Note_on_c, 0, 67, 0
2, 100012, Note_on_c, 0, 100, 50
2, 100032, Note_on_c, 0, 100, 0
2, 100050, Note_on_c, 0, 103, 81
2, 100052, Note_on_c, 0, 56, 74
2, 100052, Note_on_c, 0, 67, 78
2, 100053, Note_on_c, 0, 62, 68
2, 100053, Note_on_c, 0, 91, 74
2, 100053, Note_on_c, 0, 96, 77
2, 100094, Note_on_c, 0, 103, 0
2, 100099, Note_on_c, 0, 96, 0
2, 100105, Note_on_c, 0, 91, 0
2, 100116, Note_on_c, 0, 56, 0
2, 100116, Note_on_c, 0, 67, 0
2, 100119, Note_on_c, 0, 62, 0
2, 100134, Note_on_c, 0, 100, 71
2, 100136, Note_on_c, 0, 67, 43
2, 100137, Note_on_c, 0, 62, 68
2, 100137, Note_on_c, 0, 56, 55
2, 100138, Note_on_c, 0, 88, 60
2, 100165, Note_on_c, 0, 67, 0
2, 100168, Note_on_c, 0, 100, 0
2, 100172, Note_on_c, 0, 62, 0
2, 100179, Note_on_c, 0, 88, 0
2, 100179, Note_on_c, 0, 96, 57
2, 100180, Note_on_c, 0, 56, 0
2, 100198, Note_on_c, 0, 96, 0
2, 100209, Note_on_c, 0, 56, 67
2, 100210, Note_on_c, 0, 62, 66
2, 100211, Note_on_c, 0, 67, 62
2, 100212, Note_on_c, 0, 100, 74
2, 100215, Note_on_c, 0, 88, 74
2, 100220, Note_on_c, 0, 94, 29
2, 100228, Note_on_c, 0, 94, 0
2, 100256, Note_on_c, 0, 100, 0
2, 100265, Note_on_c, 0, 67, 0
2, 100265, Note_on_c, 0, 62, 0
2, 100273, Note_on_c, 0, 88, 0
2, 100276, Note_on_c, 0, 56, 0
2, 100287, Note_on_c, 0, 60, 56
2, 100288, Note_on_c, 0, 65, 66
2, 100288, Note_on_c, 0, 98, 64
2, 100288, Note_on_c, 0, 96, 74
2, 100290, Note_on_c, 0, 61, 53
2, 100292, Note_on_c, 0, 84, 69
2, 100296, Note_on_c, 0, 98, 0
2, 100298, Note_on_c, 0, 58, 27
2, 100298, Note_on_c, 0, 55, 43
2, 100315, Note_on_c, 0, 65, 0
2, 100318, Note_on_c, 0, 60, 0
2, 100320, Note_on_c, 0, 96, 0
2, 100325, Note_on_c, 0, 61, 0
2, 100325, Note_on_c, 0, 84, 0
2, 100325, Note_on_c, 0, 55, 0
2, 100329, Note_on_c, 0, 58, 0
2, 100334, Note_on_c, 0, 93, 46
2, 100348, Note_on_c, 0, 93, 0
2, 100368, Note_on_c, 0, 61, 61
2, 100368, Note_on_c, 0, 96, 88
2, 100369, Note_on_c, 0, 60, 50
2, 100369, Note_on_c, 0, 65, 74
2, 100370, Note_on_c, 0, 84, 77
2, 100373, Note_on_c, 0, 55, 67
2, 100375, Note_on_c, 0, 58, 37
2, 100406, Note_on_c, 0, 96, 0
2, 100418, Note_on_c, 0, 55, 0
2, 100420, Note_on_c, 0, 84, 0
2, 100423, Note_on_c, 0, 65, 0
2, 100426, Note_on_c, 0, 58, 0
2, 100429, Note_on_c, 0, 61, 0
2, 100429, Note_on_c, 0, 60, 0
2, 100445, Note_on_c, 0, 93, 69
2, 100445, Note_on_c, 0, 61, 58
2, 100445, Note_on_c, 0, 65, 58
2, 100449, Note_on_c, 0, 60, 47
2, 100450, Note_on_c, 0, 81, 58
2, 100453, Note_on_c, 0, 55, 57
2, 100455, Note_on_c, 0, 58, 29
2, 100467, Note_on_c, 0, 60, 0
2, 100480, Note_on_c, 0, 93, 0
2, 100490, Note_on_c, 0, 81, 0
2, 100491, Note_on_c, 0, 65, 0
2, 100495, Note_on_c, 0, 88, 28
2, 100498, Note_on_c, 0, 55, 0
2, 100505, Note_on_c, 0, 58, 0
2, 100508, Note_on_c, 0, 88, 0
2, 100510, Note_on_c, 0, 61, 0
2, 100529, Note_on_c, 0, 61, 58
2, 100529, Note_on_c, 0, 55, 66
2, 100531, Note_on_c, 0, 93, 88
2, 100532, Note_on_c, 0, 64, 70
2, 100532, Note_on_c, 0, 81, 83
2, 100541, Note_on_c, 0, 88, 40
2, 100575, Note_on_c, 0, 93, 0
2, 100577, Note_on_c, 0, 81, 0
2, 100578, Note_on_c, 0, 64, 0
2, 100581, Note_on_c, 0, 88, 0
2, 100585, Note_on_c, 0, 61, 0
2, 100585, Note_on_c, 0, 55, 0
2, 100602, Note_on_c, 0, 91, 54
2, 100605, Note_on_c, 0, 79, 64
2, 100605, Note_on_c, 0, 55, 66
2, 100607, Note_on_c, 0, 61, 53
2, 100608, Note_on_c, 0, 64, 62
2, 100644, Note_on_c, 0, 91, 0
2, 100646, Note_on_c, 0, 88, 33
2, 100650, Note_on_c, 0, 79, 0
2, 100652, Note_on_c, 0, 64, 0
2, 100659, Note_on_c, 0, 55, 0
2, 100667, Note_on_c, 0, 61, 0
2, 100668, Note_on_c, 0, 88, 0
2, 100684, Note_on_c, 0, 61, 69
2, 100685, Note_on_c, 0, 55, 68
2, 100687, Note_on_c, 0, 64, 68
2, 100687, Note_on_c, 0, 91, 84
2, 100689, Note_on_c, 0, 79, 77
2, 100689, Note_on_c, 0, 85, 73
2, 100713, Note_on_c, 0, 64, 0
2, 100719, Note_on_c, 0, 55, 0
2, 100723, Note_on_c, 0, 61, 0
2, 100743, Note_on_c, 0, 91, 0
2, 100746, Note_on_c, 0, 85, 0
2, 100747, Note_on_c, 0, 79, 0
2, 100761, Note_on_c, 0, 89, 63
2, 100764, Note_on_c, 0, 91, 49
2, 100764, Note_on_c, 0, 62, 62
2, 100765, Note_on_c, 0, 77, 59
2, 100769, Note_on_c, 0, 79, 47
2, 100770, Note_on_c, 0, 60, 52
2, 100771, Note_on_c, 0, 52, 58
2, 100773, Note_on_c, 0, 91, 0
2, 100778, Note_on_c, 0, 79, 0
2, 100778, Note_on_c, 0, 60, 0
2, 100779, Note_on_c, 0, 52, 0
2, 100787, Note_on_c, 0, 62, 0
2, 100797, Note_on_c, 0, 89, 0
2, 100811, Note_on_c, 0, 77, 0
2, 100811, Note_on_c, 0, 86, 29
2, 100824, Note_on_c, 0, 86, 0
2, 100846, Note_on_c, 0, 89, 84
2, 100849, Note_on_c, 0, 62, 68
2, 100849, Note_on_c, 0, 58, 62
2, 100849, Note_on_c, 0, 52, 71
2, 100849, Note_on_c, 0, 77, 81
2, 100884, Note_on_c, 0, 89, 0
2, 100896, Note_on_c, 0, 52, 0
2, 100896, Note_on_c, 0, 77, 0
2, 100900, Note_on_c, 0, 62, 0
2, 100905, Note_on_c, 0, 58, 0
2, 100917, Note_on_c, 0, 86, 64
2, 100920, Note_on_c, 0, 62, 58
2, 100922, Note_on_c, 0, 58, 39
2, 100923, Note_on_c, 0, 74, 59
2, 100924, Note_on_c, 0, 52, 34
2, 100940, Note_on_c, 0, 52, 0
2, 100947, Note_on_c, 0, 62, 0
2, 100953, Note_on_c, 0, 86, 0
2, 100957, Note_on_c, 0, 74, 0
2, 100961, Note_on_c, 0, 58, 0
2, 100967, Note_on_c, 0, 82, 37
2, 100978, Note_on_c, 0, 82, 0
2, 100998, Note_on_c, 0, 62, 66
2, 100999, Note_on_c, 0, 86, 74
2, 100999, Note_on_c, 0, 58, 62
2, 101000, Note_on_c, 0, 52, 71
2, 101001, Note_on_c, 0, 74, 78
2, 101031, Note_on_c, 0, 86, 0
2, 101040, Note_on_c, 0, 74, 0
2, 101053, Note_on_c, 0, 52, 0
2, 101058, Note_on_c, 0, 62, 0
2, 101060, Note_on_c, 0, 58, 0
2, 101071, Note_on_c, 0, 82, 60
2, 101076, Note_on_c, 0, 70, 64
2, 101078, Note_on_c, 0, 62, 55
2, 101079, Note_on_c, 0, 52, 36
2, 101080, Note_on_c, 0, 58, 53
2, 101103, Note_on_c, 0, 70, 0
2, 101106, Note_on_c, 0, 82, 0
2, 101109, Note_on_c, 0, 58, 0
2, 101117, Note_on_c, 0, 62, 0
2, 101119, Note_on_c, 0, 79, 36
2, 101136, Note_on_c, 0, 52, 0
2, 101141, Note_on_c, 0, 79, 0
2, 101154, Note_on_c, 0, 52, 32
2, 101156, Note_on_c, 0, 82, 69
2, 101156, Note_on_c, 0, 58, 64
2, 101159, Note_on_c, 0, 70, 77
2, 101160, Note_on_c, 0, 62, 63
2, 101189, Note_on_c, 0, 52, 0
2, 101205, Note_on_c, 0, 82, 0
2, 101207, Note_on_c, 0, 58, 0
2, 101211, Note_on_c, 0, 70, 0
2, 101215, Note_on_c, 0, 62, 0
2, 101239, Note_on_c, 0, 81, 71
2, 101240, Note_on_c, 0, 55, 73
2, 101242, Note_on_c, 0, 61, 56
2, 101244, Note_on_c, 0, 69, 62
2, 101244, Note_on_c, 0, 64, 46
2, 101247, Note_on_c, 0, 76, 49
2, 101253, Note_on_c, 0, 64, 0
2, 101270, Note_on_c, 0, 81, 0
2, 101277, Note_on_c, 0, 69, 0
2, 101280, Note_on_c, 0, 76, 0
2, 101309, Note_on_c, 0, 79, 69
2, 101310, Note_on_c, 0, 73, 68
2, 101310, Note_on_c, 0, 69, 68
2, 101311, Note_on_c, 0, 67, 40
2, 101312, Note_on_c, 0, 76, 57
2, 101312, Note_on_c, 0, 65, 44
2, 101327, Note_on_c, 0, 67, 0
2, 101343, Control_c, 0, 64, 127
2, 101354, Note_on_c, 0, 65, 0
2, 101362, Note_on_c, 0, 79, 0
2, 101363, Note_on_c, 0, 76, 0
2, 101368, Note_on_c, 0, 73, 0
2, 101379, Note_on_c, 0, 69, 0
2, 101405, Control_c, 0, 64, 0
2, 101405, Note_on_c, 0, 77, 69
2, 101406, Note_on_c, 0, 69, 74
2, 101408, Note_on_c, 0, 64, 63
2, 101410, Note_on_c, 0, 73, 59
2, 101413, Note_on_c, 0, 61, 0
2, 101430, Control_c, 0, 64, 127
2, 101437, Note_on_c, 0, 73, 0
2, 101441, Note_on_c, 0, 77, 0
2, 101452, Note_on_c, 0, 64, 0
2, 101452, Note_on_c, 0, 69, 0
2, 101466, Note_on_c, 0, 55, 0
2, 101490, Note_on_c, 0, 76, 66
2, 101492, Note_on_c, 0, 63, 75
2, 101493, Note_on_c, 0, 73, 61
2, 101494, Note_on_c, 0, 70, 65
2, 101494, Note_on_c, 0, 67, 55
2, 101502, Control_c, 0, 64, 0
2, 101529, Note_on_c, 0, 67, 0
2, 101529, Note_on_c, 0, 73, 0
2, 101529, Note_on_c, 0, 70, 0
2, 101529, Note_on_c, 0, 63, 0
2, 101540, Note_on_c, 0, 76, 0
2, 101543, Control_c, 0, 64, 127
2, 101546, Note_on_c, 0, 62, 58
2, 101552, Note_on_c, 0, 74, 36
2, 101552, Note_on_c, 0, 67, 43
2, 101602, Note_on_c, 0, 67, 0
2, 101614, Note_on_c, 0, 62, 0
2, 101625, Note_on_c, 0, 74, 0
2, 101625, Note_on_c, 0, 57, 31
2, 101644, Control_c, 0, 64, 0
2, 101644, Note_on_c, 0, 68, 52
2, 101644, Note_on_c, 0, 61, 51
2, 101647, Note_on_c, 0, 65, 40
2, 101650, Note_on_c, 0, 51, 35
2, 101658, Control_c, 0, 64, 127
2, 101685, Note_on_c, 0, 57, 0
2, 101700, Note_on_c, 0, 65, 0
2, 101702, Note_on_c, 0, 61, 0
2, 101705, Note_on_c, 0, 68, 0
2, 101720, Note_on_c, 0, 51, 0
2, 101727, Note_on_c, 0, 60, 57
2, 101731, Note_on_c, 0, 65, 49
2, 101732, Note_on_c, 0, 50, 46
2, 101732, Note_on_c, 0, 69, 60
2, 101744, Control_c, 0, 64, 0
2, 101749, Note_on_c, 0, 65, 0
2, 101753, Note_on_c, 0, 69, 0
2, 101756, Note_on_c, 0, 60, 0
2, 101781, Note_on_c, 0, 64, 34
2, 101782, Note_on_c, 0, 57, 43
2, 101783, Note_on_c, 0, 67, 55
2, 101786, Control_c, 0, 64, 127
2, 101833, Note_on_c, 0, 57, 0
2, 101844, Note_on_c, 0, 64, 0
2, 101850, Note_on_c, 0, 67, 0
2, 101881, Note_on_c, 0, 57, 41
2, 101881, Note_on_c, 0, 62, 44
2, 101884, Note_on_c, 0, 65, 41
2, 101889, Control_c, 0, 64, 0
2, 101905, Control_c, 0, 64, 127
2, 101936, Note_on_c, 0, 65, 0
2, 101941, Note_on_c, 0, 57, 0
2, 101948, Note_on_c, 0, 62, 0
2, 101956, Note_on_c, 0, 50, 0
2, 101967, Note_on_c, 0, 64, 39
2, 101969, Note_on_c, 0, 61, 52
2, 101971, Note_on_c, 0, 50, 30
2, 101972, Note_on_c, 0, 57, 42
2, 101991, Note_on_c, 0, 64, 0
2, 101993, Note_on_c, 0, 61, 0
2, 101998, Control_c, 0, 64, 0
2, 102016, Note_on_c, 0, 65, 35
2, 102036, Note_on_c, 0, 65, 0
2, 102048, Note_on_c, 0, 57, 0
2, 102068, Control_c, 0, 64, 127
2, 102092, Note_on_c, 0, 57, 34
2, 102101, Control_c, 0, 64, 0
2, 102106, Note_on_c, 0, 57, 0
2, 102107, Note_on_c, 0, 50, 0
2, 102129, Note_on_c, 0, 64, 50
2, 102132, Note_on_c, 0, 50, 34
2, 102134, Note_on_c, 0, 57, 24
2, 102153, Control_c, 0, 64, 127
2, 102172, Note_on_c, 0, 50, 0
2, 102201, Note_on_c, 0, 64, 0
2, 102205, Note_on_c, 0, 60, 57
2, 102209, Note_on_c, 0, 50, 45
2, 102223, Control_c, 0, 64, 0
2, 102233, Note_on_c, 0, 60, 0
2, 102280, Note_on_c, 0, 62, 32
2, 102297, Note_on_c, 0, 62, 0
2, 102302, Note_on_c, 0, 63, 57
2, 102308, Note_on_c, 0, 57, 0
2, 102311, Note_on_c, 0, 63, 0
2, 102316, Note_on_c, 0, 60, 24
2, 102323, Note_on_c, 0, 65, 62
2, 102338, Note_on_c, 0, 65, 0
2, 102342, Note_on_c, 0, 66, 51
2, 102346, Note_on_c, 0, 50, 0
2, 102356, Note_on_c, 0, 68, 53
2, 102357, Note_on_c, 0, 66, 0
2, 102360, Note_on_c, 0, 60, 0
2, 102363, Note_on_c, 0, 68, 0
2, 102376, Note_on_c, 0, 69, 59
2, 102397, Note_on_c, 0, 69, 0
2, 102404, Note_on_c, 0, 71, 32
2, 102414, Note_on_c, 0, 71, 0
2, 102418, Note_on_c, 0, 72, 57
2, 102428, Note_on_c, 0, 72, 0
2, 102448, Note_on_c, 0, 74, 72
2, 102467, Note_on_c, 0, 74, 0
2, 102482, Note_on_c, 0, 75, 65
2, 102503, Note_on_c, 0, 75, 0
2, 102514, Note_on_c, 0, 77, 62
2, 102534, Note_on_c, 0, 77, 0
2, 102546, Note_on_c, 0, 78, 68
2, 102580, Note_on_c, 0, 78, 0
2, 102583, Note_on_c, 0, 80, 57
2, 102600, Note_on_c, 0, 54, 43
2, 102600, Note_on_c, 0, 60, 32
2, 102603, Note_on_c, 0, 80, 0
2, 102615, Note_on_c, 0, 81, 57
2, 102619, Note_on_c, 0, 60, 0
2, 102631, Note_on_c, 0, 81, 0
2, 102649, Note_on_c, 0, 54, 0
2, 102652, Note_on_c, 0, 82, 26
2, 102670, Note_on_c, 0, 82, 0
2, 102677, Note_on_c, 0, 83, 54
2, 102694, Note_on_c, 0, 83, 0
2, 102708, Note_on_c, 0, 84, 66
2, 102722, Note_on_c, 0, 84, 0
2, 102731, Note_on_c, 0, 55, 39
2, 102747, Note_on_c, 0, 55, 0
2, 102785, Note_on_c, 0, 81, 71
2, 102812, Note_on_c, 0, 81, 0
2, 102822, Note_on_c, 0, 43, 33
2, 102823, Note_on_c, 0, 77, 61
2, 102826, Note_on_c, 0, 50, 24
2, 102832, Note_on_c, 0, 43, 0
2, 102838, Note_on_c, 0, 77, 0
2, 102857, Note_on_c, 0, 50, 0
2, 102857, Note_on_c, 0, 74, 47
2, 102890, Note_on_c, 0, 74, 0
2, 102920, Note_on_c, 0, 70, 67
2, 102931, Note_on_c, 0, 58, 45
2, 102954, Note_on_c, 0, 70, 0
2, 102969, Note_on_c, 0, 58, 0
2, 102972, Note_on_c, 0, 69, 31
2, 103000, Note_on_c, 0, 69, 0
2, 103043, Note_on_c, 0, 74, 75
2, 103047, Note_on_c, 0, 62, 46
2, 103052, Note_on_c, 0, 58, 26
2, 103056, Note_on_c, 0, 62, 0
2, 103064, Note_on_c, 0, 58, 0
2, 103067, Note_on_c, 0, 74, 0
2, 103090, Note_on_c, 0, 72, 64
2, 103127, Note_on_c, 0, 72, 0
2, 103165, Note_on_c, 0, 58, 49
2, 103166, Note_on_c, 0, 70, 71
2, 103173, Note_on_c, 0, 52, 36
2, 103184, Note_on_c, 0, 52, 0
2, 103184, Note_on_c, 0, 70, 0
2, 103197, Note_on_c, 0, 58, 0
2, 103242, Note_on_c, 0, 69, 57
2, 103271, Note_on_c, 0, 69, 0
2, 103279, Note_on_c, 0, 70, 43
2, 103299, Note_on_c, 0, 69, 54
2, 103302, Note_on_c, 0, 70, 0
2, 103322, Note_on_c, 0, 58, 35
2, 103327, Note_on_c, 0, 48, 27
2, 103328, Note_on_c, 0, 69, 0
2, 103336, Note_on_c, 0, 67, 37
2, 103344, Note_on_c, 0, 58, 0
2, 103363, Note_on_c, 0, 48, 0
2, 103390, Note_on_c, 0, 67, 0
2, 103412, Note_on_c, 0, 65, 66
2, 103447, Note_on_c, 0, 65, 0
2, 103463, Note_on_c, 0, 64, 38
2, 103528, Note_on_c, 0, 52, 35
2, 103528, Note_on_c, 0, 58, 35
2, 103529, Note_on_c, 0, 67, 52
2, 103530, Note_on_c, 0, 64, 0
2, 103541, Note_on_c, 0, 58, 0
2, 103542, Note_on_c, 0, 52, 0
2, 103553, Note_on_c, 0, 67, 0
2, 103574, Note_on_c, 0, 68, 59
2, 103627, Note_on_c, 0, 68, 0
2, 103645, Note_on_c, 0, 69, 60
2, 103646, Note_on_c, 0, 41, 55
2, 103647, Note_on_c, 0, 48, 49
2, 103671, Note_on_c, 0, 41, 0
2, 103683, Note_on_c, 0, 48, 0
2, 103704, Control_c, 0, 64, 127
2, 103766, Note_on_c, 0, 62, 60
2, 103770, Note_on_c, 0, 52, 48
2, 103771, Note_on_c, 0, 57, 48
2, 103772, Note_on_c, 0, 69, 0
2, 103791, Control_c, 0, 64, 0
2, 103822, Control_c, 0, 64, 127
2, 103916, Note_on_c, 0, 62, 0
2, 103927, Note_on_c, 0, 64, 48
2, 103927, Control_c, 0, 64, 0
2, 103935, Note_on_c, 0, 64, 0
2, 103948, Note_on_c, 0, 57, 0
2, 103949, Note_on_c, 0, 52, 0
2, 103956, Note_on_c, 0, 69, 65
2, 103974, Note_on_c, 0, 69, 0
2, 103990, Note_on_c, 0, 74, 68
2, 103992, Control_c, 0, 64, 127
2, 104011, Note_on_c, 0, 74, 0
2, 104019, Control_c, 0, 64, 0
2, 104023, Note_on_c, 0, 76, 83
2, 104044, Note_on_c, 0, 48, 44
2, 104048, Note_on_c, 0, 47, 27
2, 104054, Note_on_c, 0, 76, 0
2, 104055, Note_on_c, 0, 74, 62
2, 104057, Note_on_c, 0, 47, 0
2, 104106, Note_on_c, 0, 74, 0
2, 104127, Note_on_c, 0, 36, 32
2, 104135, Note_on_c, 0, 36, 0
2, 104138, Note_on_c, 0, 48, 0
2, 104167, Control_c, 0, 64, 127
2, 104243, Note_on_c, 0, 62, 57
2, 104243, Note_on_c, 0, 58, 39
2, 104244, Note_on_c, 0, 57, 44
2, 104249, Note_on_c, 0, 62, 0
2, 104257, Note_on_c, 0, 57, 0
2, 104259, Note_on_c, 0, 58, 0
2, 104262, Control_c, 0, 64, 0
2, 104287, Note_on_c, 0, 72, 61
2, 104299, Note_on_c, 0, 72, 0
2, 104321, Control_c, 0, 64, 127
2, 104321, Note_on_c, 0, 77, 60
2, 104336, Note_on_c, 0, 77, 0
2, 104354, Note_on_c, 0, 82, 86
2, 104360, Note_on_c, 0, 61, 72
2, 104361, Control_c, 0, 64, 0
2, 104362, Note_on_c, 0, 66, 71
2, 104363, Note_on_c, 0, 55, 76
2, 104370, Note_on_c, 0, 55, 0
2, 104374, Note_on_c, 0, 66, 0
2, 104377, Note_on_c, 0, 82, 0
2, 104389, Note_on_c, 0, 55, 36
2, 104392, Note_on_c, 0, 84, 95
2, 104393, Note_on_c, 0, 66, 61
2, 104411, Control_c, 0, 64, 127
2, 104427, Note_on_c, 0, 82, 71
2, 104442, Note_on_c, 0, 84, 0
2, 104469, Note_on_c, 0, 66, 0
2, 104472, Note_on_c, 0, 61, 0
2, 104486, Note_on_c, 0, 77, 79
2, 104490, Note_on_c, 0, 80, 38
2, 104491, Note_on_c, 0, 61, 52
2, 104492, Note_on_c, 0, 65, 46
2, 104498, Note_on_c, 0, 80, 0
2, 104502, Note_on_c, 0, 65, 0
2, 104502, Control_c, 0, 64, 0
2, 104518, Note_on_c, 0, 82, 0
2, 104521, Note_on_c, 0, 55, 0
2, 104521, Note_on_c, 0, 61, 0
2, 104522, Note_on_c, 0, 77, 0
2, 104527, Control_c, 0, 64, 127
2, 104534, Note_on_c, 0, 72, 40
2, 104582, Note_on_c, 0, 72, 0
2, 104601, Note_on_c, 0, 73, 70
2, 104606, Note_on_c, 0, 57, 34
2, 104610, Note_on_c, 0, 60, 42
2, 104613, Note_on_c, 0, 50, 31
2, 104618, Note_on_c, 0, 60, 0
2, 104628, Note_on_c, 0, 73, 0
2, 104629, Note_on_c, 0, 57, 0
2, 104644, Note_on_c, 0, 60, 33
2, 104644, Note_on_c, 0, 76, 72
2, 104648, Control_c, 0, 64, 0
2, 104711, Note_on_c, 0, 60, 0
2, 104720, Note_on_c, 0, 76, 0
2, 104725, Note_on_c, 0, 73, 37
2, 104725, Note_on_c, 0, 57, 36
2, 104737, Note_on_c, 0, 73, 0
2, 104739, Note_on_c, 0, 57, 0
2, 104758, Note_on_c, 0, 74, 72
2, 104760, Note_on_c, 0, 60, 55
2, 104768, Control_c, 0, 64, 127
2, 104821, Note_on_c, 0, 60, 0
2, 104833, Note_on_c, 0, 74, 0
2, 104835, Note_on_c, 0, 50, 0
2, 104845, Note_on_c, 0, 69, 62
2, 104865, Control_c, 0, 64, 0
2, 104870, Note_on_c, 0, 69, 0
2, 104892, Note_on_c, 0, 65, 36
2, 104943, Note_on_c, 0, 65, 0
2, 104968, Note_on_c, 0, 65, 40
2, 104991, Note_on_c, 0, 65, 0
2, 105006, Note_on_c, 0, 67, 65
2, 105078, Note_on_c, 0, 67, 0
2, 105090, Note_on_c, 0, 58, 37
2, 105091, Note_on_c, 0, 62, 40
2, 105091, Note_on_c, 0, 64, 41
2, 105094, Note_on_c, 0, 57, 26
2, 105099, Note_on_c, 0, 62, 0
2, 105100, Note_on_c, 0, 64, 0
2, 105105, Note_on_c, 0, 57, 0
2, 105112, Note_on_c, 0, 58, 0
2, 105123, Note_on_c, 0, 67, 46
2, 105136, Note_on_c, 0, 68, 48
2, 105148, Note_on_c, 0, 67, 0
2, 105162, Note_on_c, 0, 68, 0
2, 105168, Note_on_c, 0, 69, 38
2, 105202, Note_on_c, 0, 69, 0
2, 105214, Note_on_c, 0, 57, 27
2, 105214, Note_on_c, 0, 58, 25
2, 105222, Note_on_c, 0, 58, 0
2, 105242, Note_on_c, 0, 57, 0
2, 105243, Note_on_c, 0, 67, 53
2, 105256, Note_on_c, 0, 68, 40
2, 105273, Note_on_c, 0, 67, 0
2, 105296, Note_on_c, 0, 68, 0
2, 105298, Note_on_c, 0, 69, 42
2, 105326, Note_on_c, 0, 69, 0
2, 105331, Note_on_c, 0, 62, 24
2, 105331, Note_on_c, 0, 57, 37
2, 105336, Note_on_c, 0, 58, 33
2, 105339, Note_on_c, 0, 62, 0
2, 105343, Note_on_c, 0, 58, 0
2, 105346, Note_on_c, 0, 57, 0
2, 105360, Note_on_c, 0, 67, 51
2, 105377, Note_on_c, 0, 68, 33
2, 105391, Note_on_c, 0, 67, 0
2, 105393, Note_on_c, 0, 68, 0
2, 105413, Note_on_c, 0, 69, 28
2, 105427, Note_on_c, 0, 69, 0
2, 105441, Note_on_c, 0, 74, 80
2, 105459, Note_on_c, 0, 56, 25
2, 105470, Note_on_c, 0, 56, 0
2, 105472, Note_on_c, 0, 74, 0
2, 105559, Note_on_c, 0, 62, 64
2, 105566, Note_on_c, 0, 56, 31
2, 105571, Note_on_c, 0, 62, 0
2, 105577, Note_on_c, 0, 56, 0
2, 105685, Note_on_c, 0, 74, 77
2, 105687, Note_on_c, 0, 68, 79
2, 105692, Note_on_c, 0, 62, 36
2, 105699, Note_on_c, 0, 56, 18
2, 105704, Note_on_c, 0, 62, 0
2, 105709, Note_on_c, 0, 56, 0
2, 105721, Note_on_c, 0, 68, 0
2, 105726, Note_on_c, 0, 62, 16
2, 105735, Note_on_c, 0, 67, 27
2, 105759, Note_on_c, 0, 62, 0
2, 105805, Note_on_c, 0, 67, 0
2, 105806, Note_on_c, 0, 74, 0
2, 105817, Note_on_c, 0, 65, 36
2, 105826, Note_on_c, 0, 65, 0
2, 105847, Note_on_c, 0, 67, 60
2, 105850, Note_on_c, 0, 74, 68
2, 105905, Note_on_c, 0, 67, 0
2, 105913, Note_on_c, 0, 74, 0
2, 105916, Note_on_c, 0, 68, 43
2, 105940, Note_on_c, 0, 68, 0
2, 105941, Note_on_c, 0, 67, 48
2, 105956, Note_on_c, 0, 56, 23
2, 105968, Note_on_c, 0, 67, 0
2, 105973, Note_on_c, 0, 65, 38
2, 106010, Note_on_c, 0, 56, 0
2, 106027, Note_on_c, 0, 65, 0
2, 106046, Note_on_c, 0, 67, 68
2, 106050, Note_on_c, 0, 61, 51
2, 106053, Note_on_c, 0, 55, 54
2, 106071, Note_on_c, 0, 61, 0
2, 106081, Note_on_c, 0, 55, 0
2, 106091, Note_on_c, 0, 67, 0
2, 106103, Note_on_c, 0, 69, 50
2, 106127, Note_on_c, 0, 67, 33
2, 106133, Note_on_c, 0, 69, 0
2, 106151, Note_on_c, 0, 67, 0
2, 106154, Note_on_c, 0, 65, 62
2, 106173, Note_on_c, 0, 65, 0
2, 106192, Note_on_c, 0, 64, 58
2, 106226, Note_on_c, 0, 64, 0
2, 106265, Note_on_c, 0, 62, 55
2, 106294, Note_on_c, 0, 62, 0
2, 106337, Note_on_c, 0, 61, 64
2, 106356, Note_on_c, 0, 61, 0
2, 106369, Note_on_c, 0, 64, 53
2, 106405, Note_on_c, 0, 64, 0
2, 106414, Note_on_c, 0, 55, 35
2, 106423, Note_on_c, 0, 55, 0
2, 106443, Note_on_c, 0, 57, 45
2, 106500, Note_on_c, 0, 57, 0
2, 106518, Note_on_c, 0, 57, 54
2, 106563, Note_on_c, 0, 57, 0
2, 106564, Note_on_c, 0, 62, 59
2, 106594, Note_on_c, 0, 62, 0
2, 106644, Note_on_c, 0, 38, 43
2, 106644, Note_on_c, 0, 65, 62
2, 106654, Note_on_c, 0, 38, 0
2, 106667, Note_on_c, 0, 65, 0
2, 106683, Note_on_c, 0, 67, 40
2, 106751, Note_on_c, 0, 67, 0
2, 106768, Note_on_c, 0, 65, 37
2, 106777, Note_on_c, 0, 65, 0
2, 106805, Note_on_c, 0, 68, 67
2, 106888, Note_on_c, 0, 68, 0
2, 106922, Note_on_c, 0, 67, 68
2, 107025, Note_on_c, 0, 67, 0
2, 107039, Note_on_c, 0, 56, 37
2, 107039, Note_on_c, 0, 65, 62
2, 107045, Note_on_c, 0, 46, 21
2, 107054, Note_on_c, 0, 46, 0
2, 107060, Note_on_c, 0, 56, 0
2, 107095, Note_on_c, 0, 65, 0
2, 107115, Note_on_c, 0, 67, 24
2, 107128, Note_on_c, 0, 65, 38
2, 107144, Note_on_c, 0, 67, 0
2, 107157, Note_on_c, 0, 65, 0
2, 107181, Note_on_c, 0, 62, 25
2, 107204, Note_on_c, 0, 62, 0
2, 107240, Note_on_c, 0, 65, 69
2, 107245, Note_on_c, 0, 55, 46
2, 107246, Note_on_c, 0, 45, 45
2, 107254, Note_on_c, 0, 55, 0
2, 107261, Note_on_c, 0, 45, 0
2, 107277, Note_on_c, 0, 65, 0
2, 107308, Note_on_c, 0, 64, 33
2, 107367, Note_on_c, 0, 64, 0
2, 107399, Note_on_c, 0, 61, 44
2, 107405, Note_on_c, 0, 49, 25
2, 107426, Note_on_c, 0, 61, 0
2, 107478, Note_on_c, 0, 49, 0
2, 107483, Note_on_c, 0, 67, 54
2, 107483, Note_on_c, 0, 52, 56
2, 107484, Note_on_c, 0, 61, 60
2, 107487, Note_on_c, 0, 57, 45
2, 107505, Note_on_c, 0, 67, 0
2, 107507, Note_on_c, 0, 52, 0
2, 107517, Note_on_c, 0, 57, 0
2, 107518, Note_on_c, 0, 61, 0
2, 107533, Note_on_c, 0, 57, 28
2, 107533, Note_on_c, 0, 65, 44
2, 107537, Note_on_c, 0, 50, 33
2, 107539, Note_on_c, 0, 60, 37
2, 107616, Note_on_c, 0, 60, 0
2, 107620, Note_on_c, 0, 57, 0
2, 107624, Note_on_c, 0, 65, 0
2, 107644, Note_on_c, 0, 50, 0
2, 107646, Note_on_c, 0, 57, 32
2, 107649, Note_on_c, 0, 49, 32
2, 107652, Note_on_c, 0, 64, 26
2, 107670, Control_c, 0, 64, 127
2, 107699, Note_on_c, 0, 57, 0
2, 107705, Note_on_c, 0, 64, 0
2, 107725, Note_on_c, 0, 65, 55
2, 107726, Note_on_c, 0, 57, 50
2, 107728, Note_on_c, 0, 49, 0
2, 107729, Control_c, 0, 64, 0
2, 107732, Note_on_c, 0, 50, 41
2, 107795, Control_c, 0, 64, 127
2, 107847, Note_on_c, 0, 57, 0
2, 107847, Control_c, 0, 64, 0
2, 107855, Note_on_c, 0, 65, 0
2, 107862, Note_on_c, 0, 50, 0
2, 107875, Note_on_c, 0, 49, 29
2, 107876, Control_c, 0, 64, 127
2, 107885, Note_on_c, 0, 64, 19
2, 107910, Note_on_c, 0, 64, 0
2, 107962, Note_on_c, 0, 49, 0
2, 107962, Note_on_c, 0, 57, 63
2, 107962, Note_on_c, 0, 65, 66
2, 107963, Note_on_c, 0, 50, 51
2, 107965, Note_on_c, 0, 61, 49
2, 107973, Control_c, 0, 64, 0
2, 107984, Note_on_c, 0, 57, 0
2, 107985, Note_on_c, 0, 50, 0
2, 107992, Control_c, 0, 64, 127
2, 107998, Note_on_c, 0, 61, 0
2, 108002, Note_on_c, 0, 65, 0
2, 108089, Note_on_c, 0, 74, 87
2, 108090, Note_on_c, 0, 65, 89
2, 108091, Note_on_c, 0, 69, 88
2, 108092, Note_on_c, 0, 64, 80
2, 108109, Control_c, 0, 64, 0
2, 108141, Control_c, 0, 64, 127
2, 108158, Note_on_c, 0, 63, 83
2, 108172, Note_on_c, 0, 64, 0
2, 108208, Note_on_c, 0, 74, 0
2, 108216, Note_on_c, 0, 65, 0
2, 108225, Note_on_c, 0, 69, 0
2, 108241, Control_c, 0, 64, 0
2, 108241, Note_on_c, 0, 76, 83
2, 108242, Note_on_c, 0, 69, 68
2, 108243, Note_on_c, 0, 65, 69
2, 108245, Note_on_c, 0, 62, 68
2, 108248, Note_on_c, 0, 63, 0
2, 108268, Control_c, 0, 64, 127
2, 108326, Note_on_c, 0, 61, 80
2, 108336, Note_on_c, 0, 62, 0
2, 108336, Control_c, 0, 64, 0
2, 108347, Note_on_c, 0, 69, 0
2, 108353, Note_on_c, 0, 76, 0
2, 108361, Control_c, 0, 64, 127
2, 108362, Note_on_c, 0, 65, 0
2, 108397, Note_on_c, 0, 61, 0
2, 108402, Note_on_c, 0, 60, 65
2, 108404, Note_on_c, 0, 77, 62
2, 108406, Note_on_c, 0, 65, 53
2, 108407, Note_on_c, 0, 72, 53
2, 108420, Note_on_c, 0, 65, 0
2, 108428, Note_on_c, 0, 72, 0
2, 108429, Note_on_c, 0, 77, 0
2, 108447, Note_on_c, 0, 58, 46
2, 108458, Note_on_c, 0, 60, 0
2, 108476, Note_on_c, 0, 58, 0
2, 108500, Note_on_c, 0, 57, 51
2, 108502, Note_on_c, 0, 81, 62
2, 108503, Note_on_c, 0, 69, 58
2, 108504, Note_on_c, 0, 74, 60
2, 108508, Control_c, 0, 64, 0
2, 108563, Control_c, 0, 64, 127
2, 108594, Note_on_c, 0, 57, 0
2, 108646, Note_on_c, 0, 74, 0
2, 108656, Note_on_c, 0, 69, 0
2, 108692, Note_on_c, 0, 62, 38
2, 108694, Note_on_c, 0, 57, 29
2, 108695, Note_on_c, 0, 69, 44
2, 108696, Note_on_c, 0, 74, 34
2, 108699, Note_on_c, 0, 52, 31
2, 108714, Note_on_c, 0, 81, 0
2, 108726, Note_on_c, 0, 74, 0
2, 108732, Note_on_c, 0, 62, 0
2, 108734, Note_on_c, 0, 69, 0
2, 108734, Note_on_c, 0, 57, 0
2, 108766, Note_on_c, 0, 52, 0
2, 108835, Note_on_c, 0, 58, 53
2, 108837, Note_on_c, 0, 62, 71
2, 108838, Note_on_c, 0, 69, 73
2, 108838, Note_on_c, 0, 66, 68
2, 108840, Note_on_c, 0, 57, 47
2, 108841, Note_on_c, 0, 55, 58
2, 108841, Control_c, 0, 64, 0
2, 108877, Control_c, 0, 64, 127
2, 108915, Note_on_c, 0, 69, 0
2, 108925, Note_on_c, 0, 70, 64
2, 108941, Note_on_c, 0, 58, 0
2, 108943, Note_on_c, 0, 57, 0
2, 108943, Note_on_c, 0, 62, 0
2, 108945, Note_on_c, 0, 55, 0
2, 108956, Note_on_c, 0, 66, 0
2, 108958, Note_on_c, 0, 70, 0
2, 109010, Note_on_c, 0, 72, 70
2, 109012, Note_on_c, 0, 65, 69
2, 109013, Note_on_c, 0, 61, 64
2, 109014, Control_c, 0, 64, 0
2, 109014, Note_on_c, 0, 69, 57
2, 109017, Note_on_c, 0, 60, 69
2, 109042, Control_c, 0, 64, 127
2, 109046, Note_on_c, 0, 65, 0
2, 109050, Note_on_c, 0, 61, 0
2, 109051, Note_on_c, 0, 72, 0
2, 109054, Note_on_c, 0, 69, 0
2, 109097, Note_on_c, 0, 60, 0
2, 109104, Note_on_c, 0, 76, 53
2, 109106, Note_on_c, 0, 74, 50
2, 109114, Note_on_c, 0, 74, 0
2, 109119, Note_on_c, 0, 76, 0
2, 109183, Control_c, 0, 64, 0
2, 109186, Note_on_c, 0, 79, 59
2, 109187, Note_on_c, 0, 76, 55
2, 109187, Note_on_c, 0, 73, 57
2, 109188, Note_on_c, 0, 67, 54
2, 109190, Note_on_c, 0, 55, 60
2, 109190, Note_on_c, 0, 61, 55
2, 109214, Note_on_c, 0, 67, 0
2, 109215, Control_c, 0, 64, 127
2, 109220, Note_on_c, 0, 79, 0
2, 109224, Note_on_c, 0, 76, 0
2, 109230, Note_on_c, 0, 73, 0
2, 109240, Note_on_c, 0, 61, 0
2, 109261, Note_on_c, 0, 81, 68
2, 109263, Note_on_c, 0, 61, 37
2, 109263, Note_on_c, 0, 69, 58
2, 109266, Note_on_c, 0, 64, 33
2, 109275, Note_on_c, 0, 64, 0
2, 109277, Note_on_c, 0, 69, 0
2, 109279, Note_on_c, 0, 55, 0
2, 109285, Note_on_c, 0, 61, 0
2, 109285, Note_on_c, 0, 81, 0
2, 109335, Note_on_c, 0, 51, 46
2, 109337, Note_on_c, 0, 61, 37
2, 109339, Note_on_c, 0, 84, 66
2, 109340, Note_on_c, 0, 58, 44
2, 109341, Note_on_c, 0, 72, 45
2, 109349, Note_on_c, 0, 72, 0
2, 109358, Note_on_c, 0, 61, 0
2, 109360, Note_on_c, 0, 84, 0
2, 109382, Note_on_c, 0, 51, 0
2, 109394, Note_on_c, 0, 58, 0
2, 109408, Control_c, 0, 64, 0
2, 109412, Note_on_c, 0, 60, 45
2, 109412, Note_on_c, 0, 91, 62
2, 109413, Note_on_c, 0, 79, 66
2, 109415, Note_on_c, 0, 57, 37
2, 109418, Note_on_c, 0, 88, 52
2, 109420, Note_on_c, 0, 53, 34
2, 109421, Note_on_c, 0, 50, 36
2, 109428, Note_on_c, 0, 88, 0
2, 109437, Note_on_c, 0, 79, 0
2, 109440, Note_on_c, 0, 91, 0
2, 109445, Note_on_c, 0, 60, 0
2, 109446, Note_on_c, 0, 57, 0
2, 109446, Note_on_c, 0, 50, 0
2, 109447, Note_on_c, 0, 53, 0
2, 109449, Control_c, 0, 64, 127
2, 109472, Control_c, 0, 64, 0
2, 109483, Note_on_c, 0, 88, 57
2, 109485, Note_on_c, 0, 76, 50
2, 109486, Note_on_c, 0, 84, 56
2, 109487, Note_on_c, 0, 57, 35
2, 109487, Note_on_c, 0, 60, 42
2, 109488, Note_on_c, 0, 50, 33
2, 109492, Note_on_c, 0, 53, 33
2, 109509, Control_c, 0, 64, 127
2, 109515, Note_on_c, 0, 88, 0
2, 109516, Note_on_c, 0, 84, 0
2, 109525, Note_on_c, 0, 76, 0
2, 109528, Note_on_c, 0, 60, 0
2, 109529, Note_on_c, 0, 50, 0
2, 109533, Note_on_c, 0, 53, 0
2, 109535, Note_on_c, 0, 57, 0
2, 109562, Note_on_c, 0, 84, 54
2, 109564, Note_on_c, 0, 81, 57
2, 109565, Note_on_c, 0, 60, 45
2, 109568, Note_on_c, 0, 57, 30
2, 109568, Note_on_c, 0, 72, 44
2, 109570, Note_on_c, 0, 50, 28
2, 109570, Note_on_c, 0, 53, 36
2, 109585, Note_on_c, 0, 81, 0
2, 109587, Note_on_c, 0, 84, 0
2, 109592, Note_on_c, 0, 72, 0
2, 109597, Note_on_c, 0, 60, 0
2, 109601, Note_on_c, 0, 57, 0
2, 109602, Note_on_c, 0, 53, 0
2, 109608, Note_on_c, 0, 50, 0
2, 109644, Note_on_c, 0, 81, 49
2, 109648, Note_on_c, 0, 76, 50
2, 109649, Note_on_c, 0, 69, 45
2, 109651, Note_on_c, 0, 60, 37
2, 109653, Note_on_c, 0, 57, 36
2, 109653, Control_c, 0, 64, 0
2, 109654, Note_on_c, 0, 50, 26
2, 109655, Note_on_c, 0, 53, 36
2, 109698, Control_c, 0, 64, 127
2, 109814, Note_on_c, 0, 50, 0
2, 109817, Note_on_c, 0, 81, 0
2, 109818, Note_on_c, 0, 76, 0
2, 109818, Note_on_c, 0, 53, 0
2, 109822, Note_on_c, 0, 57, 0
2, 109825, Note_on_c, 0, 60, 0
2, 109831, Note_on_c, 0, 69, 0
2, 109930, Note_on_c, 0, 74, 78
2, 109934, Note_on_c, 0, 70, 82
2, 109935, Note_on_c, 0, 60, 51
2, 109936, Note_on_c, 0, 54, 53
2, 109937, Note_on_c, 0, 73, 52
2, 109945, Note_on_c, 0, 73, 0
2, 109948, Control_c, 0, 64, 0
2, 109951, Note_on_c, 0, 65, 14
2, 109974, Note_on_c, 0, 65, 0
2, 109978, Control_c, 0, 64, 127
2, 109983, Note_on_c, 0, 70, 0
2, 109984, Note_on_c, 0, 74, 0
2, 110018, Note_on_c, 0, 86, 83
2, 110109, Note_on_c, 0, 60, 0
2, 110128, Note_on_c, 0, 86, 0
2, 110135, Note_on_c, 0, 60, 13
2, 110176, Note_on_c, 0, 60, 0
2, 110204, Note_on_c, 0, 54, 0
2, 110239, Note_on_c, 0, 54, 38
2, 110241, Note_on_c, 0, 60, 43
2, 110242, Note_on_c, 0, 64, 36
2, 110262, Note_on_c, 0, 64, 0
2, 110270, Note_on_c, 0, 60, 0
2, 110277, Note_on_c, 0, 54, 0
2, 110331, Note_on_c, 0, 81, 35
2, 110341, Note_on_c, 0, 81, 0
2, 110360, Note_on_c, 0, 84, 80
2, 110391, Note_on_c, 0, 84, 0
2, 110402, Note_on_c, 0, 77, 37
2, 110403, Note_on_c, 0, 62, 37
2, 110404, Note_on_c, 0, 81, 68
2, 110404, Note_on_c, 0, 58, 42
2, 110406, Note_on_c, 0, 60, 40
2, 110406, Control_c, 0, 64, 0
2, 110416, Note_on_c, 0, 60, 0
2, 110416, Note_on_c, 0, 77, 0
2, 110421, Note_on_c, 0, 62, 0
2, 110423, Note_on_c, 0, 81, 0
2, 110430, Note_on_c, 0, 58, 0
2, 110484, Note_on_c, 0, 65, 44
2, 110484, Note_on_c, 0, 72, 59
2, 110488, Note_on_c, 0, 69, 42
2, 110489, Note_on_c, 0, 58, 38
2, 110489, Note_on_c, 0, 60, 49
2, 110490, Note_on_c, 0, 62, 40
2, 110496, Note_on_c, 0, 69, 0
2, 110497, Note_on_c, 0, 60, 0
2, 110500, Note_on_c, 0, 62, 0
2, 110501, Note_on_c, 0, 65, 0
2, 110505, Note_on_c, 0, 72, 0
2, 110507, Note_on_c, 0, 58, 0
2, 110535, Note_on_c, 0, 65, 48
2, 110535, Note_on_c, 0, 62, 34
2, 110535, Note_on_c, 0, 72, 44
2, 110537, Note_on_c, 0, 58, 25
2, 110538, Note_on_c, 0, 60, 42
2, 110538, Note_on_c, 0, 69, 42
2, 110545, Note_on_c, 0, 60, 0
2, 110547, Note_on_c, 0, 69, 0
2, 110548, Note_on_c, 0, 65, 0
2, 110548, Note_on_c, 0, 62, 0
2, 110551, Note_on_c, 0, 72, 0
2, 110552, Note_on_c, 0, 58, 0
2, 110603, Control_c, 0, 64, 127
2, 110609, Note_on_c, 0, 58, 55
2, 110612, Note_on_c, 0, 72, 65
2, 110612, Note_on_c, 0, 60, 54
2, 110612, Note_on_c, 0, 65, 65
2, 110613, Note_on_c, 0, 69, 66
2, 110614, Note_on_c, 0, 62, 33
2, 110619, Control_c, 0, 64, 0
2, 110620, Note_on_c, 0, 60, 0
2, 110622, Note_on_c, 0, 69, 0
2, 110623, Note_on_c, 0, 65, 0
2, 110623, Note_on_c, 0, 62, 0
2, 110626, Note_on_c, 0, 72, 0
2, 110630, Note_on_c, 0, 58, 0
2, 110656, Note_on_c, 0, 58, 48
2, 110661, Note_on_c, 0, 62, 45
2, 110661, Note_on_c, 0, 72, 60
2, 110663, Note_on_c, 0, 69, 48
2, 110668, Note_on_c, 0, 62, 0
2, 110670, Note_on_c, 0, 72, 0
2, 110671, Note_on_c, 0, 69, 0
2, 110674, Note_on_c, 0, 58, 0
2, 110727, Note_on_c, 0, 66, 75
2, 110728, Note_on_c, 0, 70, 69
2, 110729, Note_on_c, 0, 73, 55
2, 110731, Note_on_c, 0, 58, 40
2, 110731, Note_on_c, 0, 62, 35
2, 110734, Note_on_c, 0, 61, 27
2, 110741, Note_on_c, 0, 62, 0
2, 110743, Note_on_c, 0, 61, 0
2, 110744, Note_on_c, 0, 66, 0
2, 110746, Note_on_c, 0, 70, 0
2, 110750, Note_on_c, 0, 73, 0
2, 110751, Note_on_c, 0, 58, 0
2, 110773, Note_on_c, 0, 69, 63
2, 110774, Note_on_c, 0, 65, 60
2, 110775, Note_on_c, 0, 58, 43
2, 110776, Note_on_c, 0, 72, 56
2, 110777, Note_on_c, 0, 62, 40
2, 110783, Note_on_c, 0, 60, 33
2, 110789, Control_c, 0, 64, 127
2, 110791, Note_on_c, 0, 60, 0
2, 110795, Note_on_c, 0, 62, 0
2, 110813, Note_on_c, 0, 58, 0
2, 110836, Note_on_c, 0, 69, 0
2, 110844, Note_on_c, 0, 65, 0
2, 110874, Note_on_c, 0, 72, 0
2, 110877, Control_c, 0, 64, 0
2, 110889, Note_on_c, 0, 58, 47
2, 110890, Note_on_c, 0, 68, 56
2, 110895, Note_on_c, 0, 52, 49
2, 110898, Note_on_c, 0, 64, 26
2, 110899, Control_c, 0, 64, 127
2, 110945, Note_on_c, 0, 64, 0
2, 110966, Note_on_c, 0, 68, 0
2, 110977, Note_on_c, 0, 52, 0
2, 110995, Note_on_c, 0, 58, 0
2, 111132, Note_on_c, 0, 87, 80
2, 111136, Note_on_c, 0, 75, 59
2, 111140, Control_c, 0, 64, 0
2, 111165, Note_on_c, 0, 75, 0
2, 111165, Control_c, 0, 64, 127
2, 111166, Note_on_c, 0, 87, 0
2, 111166, Note_on_c, 0, 85, 58
2, 111190, Note_on_c, 0, 85, 0
2, 111201, Control_c, 0, 64, 0
2, 111204, Note_on_c, 0, 87, 83
2, 111209, Note_on_c, 0, 75, 52
2, 111211, Note_on_c, 0, 63, 39
2, 111213, Note_on_c, 0, 58, 36
2, 111214, Note_on_c, 0, 52, 37
2, 111219, Note_on_c, 0, 63, 0
2, 111231, Note_on_c, 0, 58, 0
2, 111236, Note_on_c, 0, 75, 0
2, 111240, Note_on_c, 0, 52, 0
2, 111242, Note_on_c, 0, 85, 62
2, 111246, Control_c, 0, 64, 127
2, 111259, Note_on_c, 0, 87, 0
2, 111297, Note_on_c, 0, 85, 0
2, 111321, Note_on_c, 0, 75, 43
2, 111337, Control_c, 0, 64, 0
2, 111338, Note_on_c, 0, 75, 0
2, 111344, Note_on_c, 0, 48, 40
2, 111349, Note_on_c, 0, 41, 33
2, 111356, Note_on_c, 0, 48, 0
2, 111358, Note_on_c, 0, 41, 0
2, 111364, Control_c, 0, 64, 127
2, 111370, Note_on_c, 0, 88, 82
2, 111372, Note_on_c, 0, 76, 62
2, 111391, Note_on_c, 0, 76, 0
2, 111396, Note_on_c, 0, 88, 0
2, 111412, Note_on_c, 0, 86, 62
2, 111432, Note_on_c, 0, 86, 0
2, 111449, Note_on_c, 0, 88, 87
2, 111450, Note_on_c, 0, 76, 74
2, 111454, Control_c, 0, 64, 0
2, 111455, Note_on_c, 0, 57, 64
2, 111456, Note_on_c, 0, 62, 62
2, 111457, Note_on_c, 0, 67, 53
2, 111480, Note_on_c, 0, 76, 0
2, 111496, Note_on_c, 0, 86, 64
2, 111500, Control_c, 0, 64, 127
2, 111508, Note_on_c, 0, 88, 0
2, 111534, Note_on_c, 0, 81, 64
2, 111535, Note_on_c, 0, 86, 0
2, 111566, Note_on_c, 0, 81, 0
2, 111567, Note_on_c, 0, 62, 0
2, 111568, Note_on_c, 0, 67, 0
2, 111576, Note_on_c, 0, 76, 50
2, 111577, Note_on_c, 0, 57, 0
2, 111588, Note_on_c, 0, 76, 0
2, 111600, Control_c, 0, 64, 0
2, 111612, Note_on_c, 0, 64, 30
2, 111612, Note_on_c, 0, 86, 63
2, 111614, Note_on_c, 0, 74, 60
2, 111616, Note_on_c, 0, 53, 18
2, 111618, Note_on_c, 0, 60, 52
2, 111650, Control_c, 0, 64, 127
2, 111668, Control_c, 0, 64, 0
2, 111673, Note_on_c, 0, 86, 0
2, 111679, Note_on_c, 0, 74, 0
2, 111711, Note_on_c, 0, 64, 0
2, 111720, Note_on_c, 0, 53, 0
2, 111730, Note_on_c, 0, 84, 58
2, 111733, Note_on_c, 0, 72, 44
2, 111740, Note_on_c, 0, 60, 0
2, 111752, Note_on_c, 0, 84, 0
2, 111761, Note_on_c, 0, 72, 0
2, 111799, Note_on_c, 0, 53, 54
2, 111813, Note_on_c, 0, 53, 0
2, 111843, Control_c, 0, 64, 127
2, 111920, Note_on_c, 0, 57, 75
2, 111920, Note_on_c, 0, 81, 79
2, 111921, Note_on_c, 0, 74, 80
2, 111921, Note_on_c, 0, 58, 67
2, 111922, Note_on_c, 0, 62, 81
2, 111922, Note_on_c, 0, 77, 70
2, 111923, Note_on_c, 0, 69, 80
2, 111923, Note_on_c, 0, 52, 76
2, 111927, Control_c, 0, 64, 0
2, 111965, Control_c, 0, 64, 127
2, 112003, Note_on_c, 0, 69, 0
2, 112006, Note_on_c, 0, 74, 0
2, 112007, Note_on_c, 0, 52, 0
2, 112008, Note_on_c, 0, 77, 0
2, 112014, Note_on_c, 0, 57, 0
2, 112016, Note_on_c, 0, 81, 0
2, 112020, Note_on_c, 0, 62, 0
2, 112021, Note_on_c, 0, 58, 0
2, 112074, Control_c, 0, 64, 0
2, 112082, Note_on_c, 0, 66, 70
2, 112082, Note_on_c, 0, 75, 60
2, 112083, Note_on_c, 0, 78, 57
2, 112083, Note_on_c, 0, 83, 66
2, 112084, Note_on_c, 0, 61, 57
2, 112085, Note_on_c, 0, 71, 66
2, 112085, Note_on_c, 0, 55, 67
2, 112118, Note_on_c, 0, 71, 0
2, 112121, Note_on_c, 0, 66, 0
2, 112124, Note_on_c, 0, 75, 0
2, 112125, Note_on_c, 0, 78, 0
2, 112129, Note_on_c, 0, 55, 0
2, 112129, Control_c, 0, 64, 127
2, 112131, Note_on_c, 0, 83, 0
2, 112134, Note_on_c, 0, 61, 0
2, 112153, Control_c, 0, 64, 0
2, 112199, Note_on_c, 0, 85, 67
2, 112199, Note_on_c, 0, 73, 56
2, 112203, Note_on_c, 0, 55, 62
2, 112203, Note_on_c, 0, 80, 47
2, 112204, Note_on_c, 0, 64, 56
2, 112205, Note_on_c, 0, 61, 40
2, 112205, Control_c, 0, 64, 127
2, 112208, Note_on_c, 0, 58, 34
2, 112218, Note_on_c, 0, 64, 0
2, 112226, Note_on_c, 0, 61, 0
2, 112228, Note_on_c, 0, 55, 0
2, 112229, Note_on_c, 0, 58, 0
2, 112232, Note_on_c, 0, 73, 0
2, 112233, Note_on_c, 0, 80, 0
2, 112235, Note_on_c, 0, 85, 0
2, 112335, Note_on_c, 0, 76, 84
2, 112335, Note_on_c, 0, 64, 78
2, 112337, Note_on_c, 0, 69, 73
2, 112337, Note_on_c, 0, 65, 61
2, 112337, Control_c, 0, 64, 0
2, 112343, Note_on_c, 0, 67, 35
2, 112351, Note_on_c, 0, 67, 0
2, 112419, Control_c, 0, 64, 127
2, 112467, Note_on_c, 0, 69, 0
2, 112482, Note_on_c, 0, 65, 0
2, 112502, Note_on_c, 0, 76, 0
2, 112516, Note_on_c, 0, 64, 0
2, 112518, Note_on_c, 0, 73, 55
2, 112522, Note_on_c, 0, 61, 44
2, 112523, Note_on_c, 0, 65, 30
2, 112539, Note_on_c, 0, 73, 0
2, 112541, Note_on_c, 0, 65, 0
2, 112553, Note_on_c, 0, 61, 0
2, 112560, Note_on_c, 0, 62, 55
2, 112563, Note_on_c, 0, 74, 60
2, 112566, Note_on_c, 0, 65, 38
2, 112579, Note_on_c, 0, 65, 0
2, 112580, Note_on_c, 0, 74, 0
2, 112583, Note_on_c, 0, 62, 0
2, 112591, Control_c, 0, 64, 0
2, 112609, Note_on_c, 0, 72, 60
2, 112609, Note_on_c, 0, 65, 62
2, 112610, Note_on_c, 0, 60, 60
2, 112655, Control_c, 0, 64, 127
2, 112667, Note_on_c, 0, 65, 0
2, 112668, Control_c, 0, 64, 0
2, 112672, Note_on_c, 0, 60, 0
2, 112675, Note_on_c, 0, 72, 0
2, 112676, Note_on_c, 0, 62, 46
2, 112679, Note_on_c, 0, 65, 24
2, 112683, Note_on_c, 0, 69, 49
2, 112683, Note_on_c, 0, 57, 41
2, 112706, Note_on_c, 0, 69, 0
2, 112706, Note_on_c, 0, 65, 0
2, 112709, Control_c, 0, 64, 127
2, 112720, Note_on_c, 0, 62, 0
2, 112728, Note_on_c, 0, 57, 0
2, 112745, Note_on_c, 0, 53, 47
2, 112745, Note_on_c, 0, 62, 51
2, 112752, Note_on_c, 0, 53, 0
2, 112765, Note_on_c, 0, 62, 0
2, 112782, Note_on_c, 0, 54, 55
2, 112791, Note_on_c, 0, 54, 0
2, 112810, Control_c, 0, 64, 0
2, 112816, Note_on_c, 0, 58, 61
2, 112823, Note_on_c, 0, 53, 50
2, 112831, Note_on_c, 0, 43, 41
2, 112877, Control_c, 0, 64, 127
2, 112907, Note_on_c, 0, 43, 0
2, 112913, Note_on_c, 0, 58, 0
2, 112921, Note_on_c, 0, 53, 0
2, 113004, Note_on_c, 0, 57, 72
2, 113005, Note_on_c, 0, 65, 82
2, 113006, Note_on_c, 0, 72, 80
2, 113007, Note_on_c, 0, 62, 79
2, 113042, Note_on_c, 0, 62, 0
2, 113044, Control_c, 0, 64, 0
2, 113052, Note_on_c, 0, 65, 0
2, 113055, Note_on_c, 0, 72, 0
2, 113068, Note_on_c, 0, 57, 0
2, 113072, Note_on_c, 0, 70, 60
2, 113074, Control_c, 0, 64, 127
2, 113074, Note_on_c, 0, 62, 41
2, 113075, Note_on_c, 0, 55, 49
2, 113078, Note_on_c, 0, 65, 24
2, 113099, Note_on_c, 0, 65, 0
2, 113114, Note_on_c, 0, 70, 0
2, 113129, Note_on_c, 0, 62, 0
2, 113149, Note_on_c, 0, 55, 0
2, 113172, Note_on_c, 0, 50, 30
2, 113184, Note_on_c, 0, 50, 0
2, 113255, Note_on_c, 0, 55, 40
2, 113256, Note_on_c, 0, 64, 43
2, 113256, Note_on_c, 0, 60, 52
2, 113260, Note_on_c, 0, 56, 37
2, 113262, Note_on_c, 0, 46, 33
2, 113264, Control_c, 0, 64, 0
2, 113288, Note_on_c, 0, 55, 0
2, 113297, Control_c, 0, 64, 127
2, 113303, Note_on_c, 0, 60, 0
2, 113311, Note_on_c, 0, 64, 0
2, 113326, Note_on_c, 0, 46, 0
2, 113337, Note_on_c, 0, 56, 0
2, 113364, Note_on_c, 0, 79, 49
2, 113367, Note_on_c, 0, 72, 41
2, 113386, Note_on_c, 0, 72, 0
2, 113401, Note_on_c, 0, 79, 0
2, 113410, Note_on_c, 0, 76, 34
2, 113413, Note_on_c, 0, 67, 37
2, 113420, Note_on_c, 0, 72, 12
2, 113466, Note_on_c, 0, 67, 0
2, 113467, Note_on_c, 0, 72, 0
2, 113481, Note_on_c, 0, 76, 0
2, 113488, Note_on_c, 0, 79, 48
2, 113496, Note_on_c, 0, 72, 51
2, 113513, Control_c, 0, 64, 0
2, 113517, Note_on_c, 0, 72, 0
2, 113519, Note_on_c, 0, 79, 0
2, 113531, Note_on_c, 0, 76, 33
2, 113531, Note_on_c, 0, 56, 30
2, 113538, Note_on_c, 0, 67, 25
2, 113547, Control_c, 0, 64, 127
2, 113580, Note_on_c, 0, 67, 0
2, 113589, Note_on_c, 0, 76, 0
2, 113593, Note_on_c, 0, 56, 0
2, 113608, Note_on_c, 0, 79, 70
2, 113614, Note_on_c, 0, 72, 49
2, 113615, Note_on_c, 0, 62, 33
2, 113636, Control_c, 0, 64, 0
2, 113649, Note_on_c, 0, 79, 0
2, 113658, Control_c, 0, 64, 127
2, 113668, Note_on_c, 0, 56, 25
2, 113691, Note_on_c, 0, 72, 0
2, 113710, Note_on_c, 0, 62, 0
2, 113715, Note_on_c, 0, 56, 0
2, 113732, Note_on_c, 0, 79, 57
2, 113735, Note_on_c, 0, 72, 51
2, 113735, Note_on_c, 0, 67, 44
2, 113740, Note_on_c, 0, 61, 45
2, 113743, Note_on_c, 0, 72, 0
2, 113745, Note_on_c, 0, 79, 0
2, 113745, Note_on_c, 0, 67, 0
2, 113745, Control_c, 0, 64, 0
2, 113747, Note_on_c, 0, 55, 24
2, 113751, Note_on_c, 0, 61, 0
2, 113756, Note_on_c, 0, 55, 0
2, 113785, Control_c, 0, 64, 127
2, 113862, Control_c, 0, 64, 0
2, 113914, Control_c, 0, 64, 127
2, 113966, Control_c, 0, 64, 0
2, 113967, Note_on_c, 0, 64, 48
2, 113967, Note_on_c, 0, 49, 51
2, 113970, Note_on_c, 0, 58, 47
2, 113971, Note_on_c, 0, 61, 44
2, 113972, Note_on_c, 0, 55, 53
2, 113988, Note_on_c, 0, 64, 0
2, 113990, Note_on_c, 0, 55, 0
2, 113993, Note_on_c, 0, 61, 0
2, 113996, Note_on_c, 0, 58, 0
2, 114003, Note_on_c, 0, 49, 0
2, 114021, Note_on_c, 0, 58, 23
2, 114022, Note_on_c, 0, 61, 33
2, 114023, Note_on_c, 0, 50, 34
2, 114023, Note_on_c, 0, 65, 37
2, 114024, Note_on_c, 0, 55, 30
2, 114036, Note_on_c, 0, 55, 0
2, 114045, Note_on_c, 0, 58, 0
2, 114046, Note_on_c, 0, 61, 0
2, 114048, Note_on_c, 0, 65, 0
2, 114054, Note_on_c, 0, 50, 0
2, 114123, Note_on_c, 0, 58, 45
2, 114125, Note_on_c, 0, 67, 34
2, 114125, Note_on_c, 0, 61, 45
2, 114126, Note_on_c, 0, 64, 35
2, 114128, Note_on_c, 0, 52, 33
2, 114150, Note_on_c, 0, 67, 0
2, 114153, Note_on_c, 0, 64, 0
2, 114155, Note_on_c, 0, 58, 0
2, 114163, Note_on_c, 0, 52, 0
2, 114169, Note_on_c, 0, 61, 0
2, 114243, Note_on_c, 0, 69, 52
2, 114244, Note_on_c, 0, 60, 49
2, 114244, Note_on_c, 0, 65, 50
2, 114246, Note_on_c, 0, 53, 31
2, 114429, Control_c, 0, 64, 127
2, 114499, Note_on_c, 0, 60, 0
2, 114514, Note_on_c, 0, 65, 0
2, 114525, Note_on_c, 0, 53, 0
2, 114577, Note_on_c, 0, 69, 0
2, 114721, Note_on_c, 0, 63, 46
2, 114722, Note_on_c, 0, 73, 62
2, 114723, Control_c, 0, 64, 0
2, 114724, Note_on_c, 0, 71, 67
2, 114724, Note_on_c, 0, 59, 52
2, 114725, Note_on_c, 0, 53, 41
2, 114814, Control_c, 0, 64, 127
2, 114863, Note_on_c, 0, 59, 0
2, 114895, Note_on_c, 0, 53, 0
2, 114898, Note_on_c, 0, 63, 0
2, 114936, Note_on_c, 0, 73, 0
2, 114951, Note_on_c, 0, 71, 0
2, 114955, Note_on_c, 0, 63, 43
2, 114961, Note_on_c, 0, 74, 53
2, 114964, Note_on_c, 0, 59, 40
2, 114969, Control_c, 0, 64, 0
2, 115000, Control_c, 0, 64, 127
2, 115019, Note_on_c, 0, 59, 0
2, 115059, Note_on_c, 0, 63, 0
2, 115086, Note_on_c, 0, 74, 0
2, 115158, Note_on_c, 0, 76, 66
2, 115160, Note_on_c, 0, 62, 49
2, 115161, Note_on_c, 0, 72, 61
2, 115161, Note_on_c, 0, 67, 53
2, 115163, Note_on_c, 0, 56, 46
2, 115167, Control_c, 0, 64, 0
2, 115184, Note_on_c, 0, 67, 0
2, 115192, Note_on_c, 0, 72, 0
2, 115195, Control_c, 0, 64, 127
2, 115204, Note_on_c, 0, 76, 0
2, 115232, Note_on_c, 0, 84, 81
2, 115281, Note_on_c, 0, 56, 0
2, 115288, Note_on_c, 0, 62, 0
2, 115310, Note_on_c, 0, 84, 0
2, 115316, Note_on_c, 0, 79, 60
2, 115318, Note_on_c, 0, 62, 45
2, 115318, Note_on_c, 0, 76, 54
2, 115319, Control_c, 0, 64, 0
2, 115319, Note_on_c, 0, 67, 40
2, 115321, Note_on_c, 0, 56, 39
2, 115362, Control_c, 0, 64, 127
2, 115444, Note_on_c, 0, 76, 0
2, 115451, Note_on_c, 0, 79, 0
2, 115471, Note_on_c, 0, 67, 0
2, 115472, Note_on_c, 0, 62, 0
2, 115492, Note_on_c, 0, 56, 0
2, 115601, Note_on_c, 0, 93, 76
2, 115604, Note_on_c, 0, 81, 65
2, 115612, Note_on_c, 0, 81, 0
2, 115619, Note_on_c, 0, 93, 0
2, 115640, Note_on_c, 0, 82, 70
2, 115641, Note_on_c, 0, 94, 77
2, 115646, Note_on_c, 0, 61, 34
2, 115654, Note_on_c, 0, 82, 0
2, 115655, Note_on_c, 0, 61, 0
2, 115658, Note_on_c, 0, 94, 0
2, 115675, Control_c, 0, 64, 0
2, 115679, Note_on_c, 0, 61, 51
2, 115679, Note_on_c, 0, 60, 62
2, 115679, Note_on_c, 0, 65, 58
2, 115682, Note_on_c, 0, 55, 66
2, 115683, Note_on_c, 0, 95, 76
2, 115683, Note_on_c, 0, 83, 71
2, 115687, Note_on_c, 0, 58, 28
2, 115692, Note_on_c, 0, 83, 0
2, 115694, Note_on_c, 0, 55, 0
2, 115695, Note_on_c, 0, 58, 0
2, 115698, Note_on_c, 0, 65, 0
2, 115699, Note_on_c, 0, 61, 0
2, 115699, Note_on_c, 0, 60, 0
2, 115699, Note_on_c, 0, 95, 0
2, 115721, Note_on_c, 0, 61, 61
2, 115721, Note_on_c, 0, 60, 67
2, 115721, Note_on_c, 0, 96, 88
2, 115722, Note_on_c, 0, 84, 81
2, 115722, Note_on_c, 0, 55, 63
2, 115723, Note_on_c, 0, 65, 66
2, 115728, Note_on_c, 0, 58, 44
2, 115768, Control_c, 0, 64, 127
2, 115777, Note_on_c, 0, 96, 0
2, 115778, Note_on_c, 0, 55, 0
2, 115778, Note_on_c, 0, 65, 0
2, 115780, Note_on_c, 0, 58, 0
2, 115782, Note_on_c, 0, 84, 0
2, 115783, Note_on_c, 0, 61, 0
2, 115785, Note_on_c, 0, 60, 0
2, 115801, Note_on_c, 0, 61, 64
2, 115801, Note_on_c, 0, 65, 59
2, 115802, Note_on_c, 0, 60, 58
2, 115803, Note_on_c, 0, 55, 53
2, 115805, Note_on_c, 0, 93, 68
2, 115805, Note_on_c, 0, 95, 65
2, 115806, Note_on_c, 0, 81, 69
2, 115808, Note_on_c, 0, 58, 31
2, 115809, Note_on_c, 0, 83, 53
2, 115813, Note_on_c, 0, 95, 0
2, 115817, Note_on_c, 0, 83, 0
2, 115857, Note_on_c, 0, 93, 0
2, 115872, Note_on_c, 0, 81, 0
2, 115883, Note_on_c, 0, 55, 0
2, 115887, Note_on_c, 0, 65, 0
2, 115891, Note_on_c, 0, 58, 0
2, 115891, Note_on_c, 0, 60, 0
2, 115900, Note_on_c, 0, 61, 0
2, 115995, Note_on_c, 0, 87, 60
2, 115996, Note_on_c, 0, 75, 57
2, 115997, Note_on_c, 0, 61, 48
2, 115999, Note_on_c, 0, 65, 49
2, 116001, Note_on_c, 0, 60, 30
2, 116005, Note_on_c, 0, 55, 33
2, 116005, Control_c, 0, 64, 0
2, 116034, Control_c, 0, 64, 127
2, 116050, Note_on_c, 0, 55, 0
2, 116052, Note_on_c, 0, 65, 0
2, 116054, Note_on_c, 0, 60, 0
2, 116055, Note_on_c, 0, 75, 0
2, 116056, Note_on_c, 0, 87, 0
2, 116060, Note_on_c, 0, 61, 0
2, 116075, Note_on_c, 0, 88, 61
2, 116076, Note_on_c, 0, 76, 57
2, 116084, Note_on_c, 0, 76, 0
2, 116085, Note_on_c, 0, 88, 0
2, 116109, Note_on_c, 0, 61, 40
2, 116115, Note_on_c, 0, 89, 71
2, 116116, Note_on_c, 0, 77, 59
2, 116118, Note_on_c, 0, 55, 30
2, 116124, Note_on_c, 0, 61, 0
2, 116126, Note_on_c, 0, 55, 0
2, 116126, Note_on_c, 0, 77, 0
2, 116132, Note_on_c, 0, 89, 0
2, 116164, Control_c, 0, 64, 0
2, 116222, Note_on_c, 0, 62, 37
2, 116222, Note_on_c, 0, 93, 68
2, 116222, Note_on_c, 0, 57, 37
2, 116223, Note_on_c, 0, 58, 26
2, 116225, Note_on_c, 0, 81, 50
2, 116235, Note_on_c, 0, 81, 0
2, 116237, Note_on_c, 0, 62, 0
2, 116237, Note_on_c, 0, 57, 0
2, 116237, Note_on_c, 0, 93, 0
2, 116238, Note_on_c, 0, 58, 0
2, 116259, Note_on_c, 0, 62, 36
2, 116261, Note_on_c, 0, 57, 38
2, 116269, Note_on_c, 0, 62, 0
2, 116272, Note_on_c, 0, 57, 0
2, 116298, Note_on_c, 0, 93, 83
2, 116299, Note_on_c, 0, 62, 72
2, 116301, Note_on_c, 0, 57, 62
2, 116301, Note_on_c, 0, 58, 60
2, 116301, Note_on_c, 0, 81, 68
2, 116303, Note_on_c, 0, 52, 55
2, 116303, Note_on_c, 0, 86, 55
2, 116312, Note_on_c, 0, 89, 24
2, 116324, Note_on_c, 0, 89, 0
2, 116360, Note_on_c, 0, 86, 0
2, 116360, Note_on_c, 0, 58, 0
2, 116362, Note_on_c, 0, 52, 0
2, 116363, Note_on_c, 0, 57, 0
2, 116363, Note_on_c, 0, 81, 0
2, 116364, Note_on_c, 0, 62, 0
2, 116365, Note_on_c, 0, 93, 0
2, 116396, Note_on_c, 0, 58, 44
2, 116396, Note_on_c, 0, 62, 45
2, 116398, Note_on_c, 0, 57, 35
2, 116402, Note_on_c, 0, 81, 34
2, 116402, Note_on_c, 0, 93, 30
2, 116405, Note_on_c, 0, 62, 0
2, 116408, Note_on_c, 0, 57, 0
2, 116410, Note_on_c, 0, 58, 0
2, 116410, Note_on_c, 0, 81, 0
2, 116410, Note_on_c, 0, 93, 0
2, 116416, Control_c, 0, 64, 127
2, 116441, Note_on_c, 0, 79, 36
2, 116444, Note_on_c, 0, 58, 26
2, 116449, Note_on_c, 0, 79, 0
2, 116452, Note_on_c, 0, 58, 0
2, 116454, Control_c, 0, 64, 0
2, 116473, Note_on_c, 0, 93, 88
2, 116473, Note_on_c, 0, 62, 77
2, 116474, Note_on_c, 0, 58, 69
2, 116474, Note_on_c, 0, 81, 78
2, 116476, Note_on_c, 0, 57, 57
2, 116476, Note_on_c, 0, 86, 66
2, 116478, Note_on_c, 0, 52, 70
2, 116478, Note_on_c, 0, 89, 54
2, 116509, Control_c, 0, 64, 127
2, 116531, Note_on_c, 0, 93, 0
2, 116532, Note_on_c, 0, 81, 0
2, 116534, Note_on_c, 0, 52, 0
2, 116536, Note_on_c, 0, 89, 0
2, 116536, Note_on_c, 0, 58, 0
2, 116537, Note_on_c, 0, 62, 0
2, 116537, Note_on_c, 0, 57, 0
2, 116537, Note_on_c, 0, 86, 0
2, 116565, Note_on_c, 0, 91, 69
2, 116568, Note_on_c, 0, 62, 61
2, 116568, Note_on_c, 0, 58, 56
2, 116569, Note_on_c, 0, 86, 69
2, 116570, Note_on_c, 0, 57, 61
2, 116570, Note_on_c, 0, 79, 65
2, 116572, Note_on_c, 0, 52, 45
2, 116604, Note_on_c, 0, 52, 0
2, 116604, Note_on_c, 0, 86, 0
2, 116608, Note_on_c, 0, 57, 0
2, 116611, Note_on_c, 0, 91, 0
2, 116612, Note_on_c, 0, 58, 0
2, 116614, Note_on_c, 0, 62, 0
2, 116616, Note_on_c, 0, 79, 0
2, 116646, Note_on_c, 0, 89, 74
2, 116646, Note_on_c, 0, 55, 76
2, 116648, Note_on_c, 0, 77, 56
2, 116649, Note_on_c, 0, 61, 59
2, 116650, Note_on_c, 0, 58, 56
2, 116650, Note_on_c, 0, 65, 56
2, 116650, Note_on_c, 0, 82, 60
2, 116650, Note_on_c, 0, 85, 62
2, 116652, Control_c, 0, 64, 0
2, 116656, Note_on_c, 0, 64, 31
2, 116664, Note_on_c, 0, 64, 0
2, 116702, Control_c, 0, 64, 127
2, 116713, Control_c, 0, 64, 0
2, 116757, Note_on_c, 0, 77, 0
2, 116761, Control_c, 0, 64, 127
2, 116762, Note_on_c, 0, 65, 0
2, 116763, Note_on_c, 0, 89, 0
2, 116782, Note_on_c, 0, 61, 0
2, 116788, Note_on_c, 0, 85, 0
2, 116793, Note_on_c, 0, 58, 0
2, 116793, Note_on_c, 0, 82, 0
2, 116794, Note_on_c, 0, 55, 0
2, 116840, Note_on_c, 0, 88, 66
2, 116841, Note_on_c, 0, 61, 57
2, 116841, Note_on_c, 0, 82, 67
2, 116843, Note_on_c, 0, 65, 55
2, 116843, Note_on_c, 0, 58, 42
2, 116843, Note_on_c, 0, 55, 53
2, 116844, Note_on_c, 0, 76, 63
2, 116851, Note_on_c, 0, 85, 25
2, 116853, Note_on_c, 0, 55, 0
2, 116853, Note_on_c, 0, 65, 0
2, 116858, Note_on_c, 0, 85, 0
2, 116860, Note_on_c, 0, 88, 0
2, 116863, Note_on_c, 0, 58, 0
2, 116863, Note_on_c, 0, 76, 0
2, 116864, Control_c, 0, 64, 0
2, 116866, Note_on_c, 0, 61, 0
2, 116876, Note_on_c, 0, 82, 0
2, 116888, Note_on_c, 0, 55, 46
2, 116888, Note_on_c, 0, 61, 38
2, 116890, Note_on_c, 0, 58, 35
2, 116891, Note_on_c, 0, 86, 41
2, 116893, Note_on_c, 0, 74, 53
2, 116894, Note_on_c, 0, 65, 30
2, 116899, Control_c, 0, 64, 127
2, 116933, Note_on_c, 0, 74, 0
2, 116935, Note_on_c, 0, 86, 0
2, 116936, Note_on_c, 0, 65, 0
2, 116941, Note_on_c, 0, 55, 0
2, 116944, Note_on_c, 0, 58, 0
2, 116958, Note_on_c, 0, 61, 0
2, 116989, Note_on_c, 0, 61, 45
2, 116997, Note_on_c, 0, 58, 35
2, 117004, Note_on_c, 0, 76, 57
2, 117005, Note_on_c, 0, 88, 41
2, 117008, Note_on_c, 0, 58, 0
2, 117008, Note_on_c, 0, 86, 35
2, 117010, Note_on_c, 0, 61, 0
2, 117016, Note_on_c, 0, 76, 0
2, 117022, Note_on_c, 0, 86, 0
2, 117024, Note_on_c, 0, 88, 0
2, 117080, Note_on_c, 0, 50, 36
2, 117082, Note_on_c, 0, 89, 51
2, 117083, Note_on_c, 0, 77, 40
2, 117084, Note_on_c, 0, 57, 30
2, 117084, Note_on_c, 0, 53, 48
2, 117086, Note_on_c, 0, 86, 46
2, 117087, Note_on_c, 0, 60, 39
2, 117089, Control_c, 0, 64, 0
2, 117111, Note_on_c, 0, 60, 0
2, 117116, Note_on_c, 0, 57, 0
2, 117116, Control_c, 0, 64, 127
2, 117121, Note_on_c, 0, 53, 0
2, 117133, Note_on_c, 0, 50, 0
2, 117194, Note_on_c, 0, 49, 59
2, 117220, Control_c, 0, 64, 0
2, 117231, Note_on_c, 0, 49, 0
2, 117243, Note_on_c, 0, 50, 69
2, 117258, Note_on_c, 0, 89, 0
2, 117275, Control_c, 0, 64, 127
2, 117292, Note_on_c, 0, 86, 0
2, 117309, Control_c, 0, 64, 0
2, 117317, Note_on_c, 0, 38, 85
2, 117335, Note_on_c, 0, 77, 0
2, 117347, Control_c, 0, 64, 127
2, 117394, Note_on_c, 0, 38, 0
2, 117435, Note_on_c, 0, 38, 84
2, 117445, Control_c, 0, 64, 0
2, 117459, Control_c, 0, 64, 127
2, 117479, Note_on_c, 0, 38, 0
2, 117552, Note_on_c, 0, 38, 89
2, 117563, Control_c, 0, 64, 0
2, 117584, Note_on_c, 0, 38, 0
2, 117585, Control_c, 0, 64, 127
2, 117593, Note_on_c, 0, 50, 0
2, 117676, Note_on_c, 0, 77, 89
2, 117677, Note_on_c, 0, 68, 97
2, 117677, Note_on_c, 0, 73, 86
2, 117679, Note_on_c, 0, 63, 82
2, 117687, Control_c, 0, 64, 0
2, 117714, Control_c, 0, 64, 127
2, 117763, Note_on_c, 0, 77, 0
2, 117780, Note_on_c, 0, 73, 0
2, 117784, Note_on_c, 0, 68, 0
2, 117837, Control_c, 0, 64, 0
2, 117838, Note_on_c, 0, 79, 77
2, 117839, Note_on_c, 0, 75, 76
2, 117840, Note_on_c, 0, 70, 81
2, 117844, Note_on_c, 0, 65, 74
2, 117855, Control_c, 0, 64, 127
2, 117858, Note_on_c, 0, 63, 0
2, 117872, Note_on_c, 0, 79, 0
2, 117886, Note_on_c, 0, 70, 0
2, 117887, Note_on_c, 0, 75, 0
2, 117953, Note_on_c, 0, 67, 69
2, 117955, Control_c, 0, 64, 0
2, 117956, Note_on_c, 0, 81, 78
2, 117957, Note_on_c, 0, 77, 79
2, 117958, Note_on_c, 0, 65, 0
2, 117958, Note_on_c, 0, 72, 80
2, 117969, Note_on_c, 0, 67, 0
2, 117975, Control_c, 0, 64, 127
2, 118005, Note_on_c, 0, 72, 0
2, 118007, Note_on_c, 0, 81, 0
2, 118007, Note_on_c, 0, 77, 0
2, 118076, Note_on_c, 0, 84, 83
2, 118076, Note_on_c, 0, 57, 54
2, 118078, Note_on_c, 0, 77, 72
2, 118079, Note_on_c, 0, 72, 66
2, 118080, Note_on_c, 0, 81, 66
2, 118080, Note_on_c, 0, 62, 59
2, 118080, Note_on_c, 0, 58, 62
2, 118084, Control_c, 0, 64, 0
2, 118113, Control_c, 0, 64, 127
2, 118236, Note_on_c, 0, 84, 0
2, 118240, Note_on_c, 0, 81, 0
2, 118244, Note_on_c, 0, 62, 0
2, 118246, Note_on_c, 0, 72, 0
2, 118262, Note_on_c, 0, 57, 0
2, 118266, Note_on_c, 0, 77, 0
2, 118268, Note_on_c, 0, 58, 0
2, 118321, Note_on_c, 0, 82, 56
2, 118325, Note_on_c, 0, 70, 50
2, 118326, Note_on_c, 0, 62, 40
2, 118328, Note_on_c, 0, 57, 32
2, 118331, Note_on_c, 0, 58, 35
2, 118331, Note_on_c, 0, 77, 49
2, 118332, Note_on_c, 0, 55, 48
2, 118333, Control_c, 0, 64, 0
2, 118376, Control_c, 0, 64, 127
2, 118439, Note_on_c, 0, 57, 0
2, 118445, Note_on_c, 0, 55, 0
2, 118448, Note_on_c, 0, 62, 0
2, 118448, Note_on_c, 0, 77, 0
2, 118453, Note_on_c, 0, 70, 0
2, 118458, Note_on_c, 0, 82, 0
2, 118459, Note_on_c, 0, 58, 0
2, 118553, Note_on_c, 0, 58, 50
2, 118567, Note_on_c, 0, 69, 68
2, 118571, Note_on_c, 0, 73, 73
2, 118572, Note_on_c, 0, 61, 51
2, 118576, Control_c, 0, 64, 0
2, 118577, Note_on_c, 0, 76, 66
2, 118580, Note_on_c, 0, 64, 60
2, 118584, Note_on_c, 0, 81, 74
2, 118637, Control_c, 0, 64, 127
2, 118698, Note_on_c, 0, 58, 0
2, 118700, Note_on_c, 0, 64, 0
2, 118700, Note_on_c, 0, 81, 0
2, 118709, Note_on_c, 0, 61, 0
2, 118711, Note_on_c, 0, 69, 0
2, 118724, Note_on_c, 0, 73, 0
2, 118735, Note_on_c, 0, 76, 0
2, 118777, Note_on_c, 0, 58, 50
2, 118793, Note_on_c, 0, 67, 66
2, 118799, Note_on_c, 0, 73, 74
2, 118801, Note_on_c, 0, 61, 44
2, 118806, Note_on_c, 0, 76, 62
2, 118809, Note_on_c, 0, 64, 66
2, 118810, Control_c, 0, 64, 0
2, 118821, Note_on_c, 0, 79, 65
2, 118850, Control_c, 0, 64, 127
2, 118946, Note_on_c, 0, 64, 0
2, 118954, Note_on_c, 0, 67, 0
2, 118965, Note_on_c, 0, 61, 0
2, 118966, Note_on_c, 0, 79, 0
2, 118976, Note_on_c, 0, 58, 0
2, 118979, Note_on_c, 0, 76, 0
2, 118980, Note_on_c, 0, 73, 0
2, 119017, Note_on_c, 0, 53, 36
2, 119029, Note_on_c, 0, 57, 36
2, 119033, Note_on_c, 0, 69, 45
2, 119043, Note_on_c, 0, 72, 62
2, 119045, Control_c, 0, 64, 0
2, 119045, Note_on_c, 0, 60, 35
2, 119047, Note_on_c, 0, 76, 48
2, 119052, Note_on_c, 0, 64, 50
2, 119062, Note_on_c, 0, 81, 66
2, 119103, Control_c, 0, 64, 127
2, 119140, Note_on_c, 0, 81, 0
2, 119143, Note_on_c, 0, 60, 0
2, 119147, Note_on_c, 0, 53, 0
2, 119150, Note_on_c, 0, 57, 0
2, 119152, Note_on_c, 0, 69, 0
2, 119157, Note_on_c, 0, 76, 0
2, 119158, Note_on_c, 0, 64, 0
2, 119166, Note_on_c, 0, 72, 0
2, 119276, Note_on_c, 0, 76, 74
2, 119279, Note_on_c, 0, 72, 75
2, 119281, Note_on_c, 0, 67, 62
2, 119283, Note_on_c, 0, 62, 56
2, 119283, Note_on_c, 0, 57, 53
2, 119291, Control_c, 0, 64, 0
2, 119337, Control_c, 0, 64, 127
2, 119417, Note_on_c, 0, 62, 0
2, 119418, Note_on_c, 0, 67, 0
2, 119430, Note_on_c, 0, 57, 0
2, 119442, Note_on_c, 0, 72, 0
2, 119444, Note_on_c, 0, 76, 0
2, 119601, Note_on_c, 0, 74, 82
2, 119676, Note_on_c, 0, 74, 0
2, 119683, Note_on_c, 0, 69, 60
2, 119713, Note_on_c, 0, 69, 0
2, 119763, Note_on_c, 0, 62, 40
2, 119763, Note_on_c, 0, 57, 29
2, 119763, Note_on_c, 0, 70, 71
2, 119764, Note_on_c, 0, 58, 33
2, 119765, Control_c, 0, 64, 0
2, 119766, Note_on_c, 0, 52, 46
2, 119808, Control_c, 0, 64, 127
2, 119839, Note_on_c, 0, 62, 0
2, 119846, Note_on_c, 0, 57, 0
2, 119846, Note_on_c, 0, 70, 0
2, 119850, Note_on_c, 0, 58, 0
2, 119857, Note_on_c, 0, 67, 42
2, 119858, Note_on_c, 0, 52, 0
2, 119879, Note_on_c, 0, 67, 0
2, 119935, Note_on_c, 0, 66, 40
2, 119937, Note_on_c, 0, 61, 46
2, 119938, Note_on_c, 0, 55, 36
2, 119941, Note_on_c, 0, 45, 31
2, 119967, Note_on_c, 0, 55, 0
2, 119993, Note_on_c, 0, 66, 0
2, 119997, Note_on_c, 0, 61, 0
2, 120000, Note_on_c, 0, 45, 0
2, 120010, Control_c, 0, 64, 0
2, 120015, Note_on_c, 0, 60, 47
2, 120016, Note_on_c, 0, 50, 41
2, 120017, Note_on_c, 0, 65, 41
2, 120050, Control_c, 0, 64, 127
2, 120087, Note_on_c, 0, 60, 0
2, 120101, Note_on_c, 0, 65, 0
2, 120114, Note_on_c, 0, 50, 0
2, 120195, Note_on_c, 0, 76, 81
2, 120197, Note_on_c, 0, 64, 60
2, 120198, Note_on_c, 0, 69, 77
2, 120199, Note_on_c, 0, 65, 70
2, 120200, Control_c, 0, 64, 0
2, 120232, Control_c, 0, 64, 127
2, 120250, Note_on_c, 0, 76, 0
2, 120254, Note_on_c, 0, 64, 0
2, 120257, Note_on_c, 0, 65, 0
2, 120259, Note_on_c, 0, 69, 0
2, 120278, Note_on_c, 0, 74, 64
2, 120280, Note_on_c, 0, 65, 44
2, 120280, Note_on_c, 0, 69, 48
2, 120281, Note_on_c, 0, 62, 44
2, 120307, Note_on_c, 0, 69, 0
2, 120322, Note_on_c, 0, 65, 0
2, 120340, Note_on_c, 0, 74, 0
2, 120342, Note_on_c, 0, 62, 0
2, 120365, Note_on_c, 0, 60, 26
2, 120365, Note_on_c, 0, 65, 44
2, 120366, Note_on_c, 0, 69, 40
2, 120372, Note_on_c, 0, 60, 0
2, 120377, Note_on_c, 0, 69, 0
2, 120379, Note_on_c, 0, 65, 0
2, 120449, Note_on_c, 0, 72, 63
2, 120452, Note_on_c, 0, 65, 53
2, 120454, Note_on_c, 0, 60, 55
2, 120454, Control_c, 0, 64, 0
2, 120458, Note_on_c, 0, 50, 40
2, 120462, Note_on_c, 0, 43, 40
2, 120490, Control_c, 0, 64, 127
2, 120501, Note_on_c, 0, 43, 0
2, 120501, Note_on_c, 0, 65, 0
2, 120502, Note_on_c, 0, 72, 0
2, 120506, Note_on_c, 0, 60, 0
2, 120571, Note_on_c, 0, 62, 56
2, 120572, Note_on_c, 0, 58, 47
2, 120577, Note_on_c, 0, 57, 38
2, 120587, Control_c, 0, 64, 0
2, 120605, Control_c, 0, 64, 127
2, 120613, Note_on_c, 0, 50, 0
2, 120641, Note_on_c, 0, 58, 0
2, 120642, Note_on_c, 0, 57, 0
2, 120643, Note_on_c, 0, 62, 0
2, 120689, Note_on_c, 0, 70, 68
2, 120691, Note_on_c, 0, 58, 56
2, 120692, Note_on_c, 0, 62, 50
2, 120694, Note_on_c, 0, 57, 54
2, 120699, Note_on_c, 0, 65, 36
2, 120715, Note_on_c, 0, 57, 0
2, 120723, Note_on_c, 0, 70, 0
2, 120724, Note_on_c, 0, 62, 0
2, 120725, Note_on_c, 0, 58, 0
2, 120727, Note_on_c, 0, 65, 0
2, 120744, Note_on_c, 0, 58, 35
2, 120745, Note_on_c, 0, 55, 41
2, 120745, Note_on_c, 0, 69, 49
2, 120746, Control_c, 0, 64, 0
2, 120748, Note_on_c, 0, 62, 40
2, 120755, Note_on_c, 0, 65, 24
2, 120793, Control_c, 0, 64, 127
2, 120811, Note_on_c, 0, 62, 0
2, 120815, Note_on_c, 0, 58, 0
2, 120816, Control_c, 0, 64, 0
2, 120817, Note_on_c, 0, 69, 0
2, 120835, Note_on_c, 0, 65, 0
2, 120838, Note_on_c, 0, 55, 0
2, 120847, Note_on_c, 0, 50, 43
2, 120848, Note_on_c, 0, 62, 43
2, 120849, Note_on_c, 0, 58, 34
2, 120850, Control_c, 0, 64, 127
2, 120866, Note_on_c, 0, 50, 0
2, 120879, Note_on_c, 0, 58, 0
2, 120889, Note_on_c, 0, 62, 0
2, 120940, Note_on_c, 0, 53, 26
2, 120953, Note_on_c, 0, 53, 0
2, 120966, Note_on_c, 0, 67, 44
2, 120968, Note_on_c, 0, 64, 50
2, 120968, Note_on_c, 0, 46, 31
2, 120969, Note_on_c, 0, 60, 39
2, 120972, Note_on_c, 0, 56, 23
2, 120975, Control_c, 0, 64, 0
2, 121026, Note_on_c, 0, 64, 0
2, 121032, Note_on_c, 0, 60, 0
2, 121042, Note_on_c, 0, 67, 0
2, 121043, Note_on_c, 0, 56, 0
2, 121055, Note_on_c, 0, 53, 37
2, 121082, Note_on_c, 0, 53, 0
2, 121088, Note_on_c, 0, 56, 38
2, 121091, Note_on_c, 0, 67, 37
2, 121091, Note_on_c, 0, 60, 37
2, 121092, Note_on_c, 0, 64, 47
2, 121158, Note_on_c, 0, 60, 0
2, 121161, Note_on_c, 0, 67, 0
2, 121163, Note_on_c, 0, 64, 0
2, 121164, Note_on_c, 0, 56, 0
2, 121203, Note_on_c, 0, 56, 34
2, 121204, Control_c, 0, 64, 127
2, 121204, Note_on_c, 0, 67, 41
2, 121210, Note_on_c, 0, 64, 36
2, 121212, Note_on_c, 0, 60, 31
2, 121227, Note_on_c, 0, 67, 0
2, 121234, Note_on_c, 0, 60, 0
2, 121240, Note_on_c, 0, 64, 0
2, 121242, Note_on_c, 0, 46, 0
2, 121244, Note_on_c, 0, 56, 0
2, 121284, Note_on_c, 0, 68, 60
2, 121286, Note_on_c, 0, 61, 49
2, 121291, Note_on_c, 0, 46, 43
2, 121316, Control_c, 0, 64, 0
2, 121317, Note_on_c, 0, 68, 0
2, 121320, Note_on_c, 0, 61, 0
2, 121336, Note_on_c, 0, 56, 28
2, 121338, Note_on_c, 0, 67, 33
2, 121347, Note_on_c, 0, 60, 27
2, 121358, Control_c, 0, 64, 127
2, 121359, Note_on_c, 0, 60, 0
2, 121373, Note_on_c, 0, 67, 0
2, 121391, Note_on_c, 0, 56, 0
2, 121409, Note_on_c, 0, 46, 0
2, 121414, Note_on_c, 0, 58, 33
2, 121414, Note_on_c, 0, 64, 47
2, 121414, Note_on_c, 0, 61, 49
2, 121419, Note_on_c, 0, 55, 32
2, 121421, Note_on_c, 0, 45, 40
2, 121424, Control_c, 0, 64, 0
2, 121464, Control_c, 0, 64, 127
2, 121530, Note_on_c, 0, 58, 0
2, 121540, Note_on_c, 0, 61, 0
2, 121542, Note_on_c, 0, 64, 0
2, 121626, Note_on_c, 0, 55, 0
2, 121641, Note_on_c, 0, 45, 0
2, 121645, Note_on_c, 0, 76, 55
2, 121646, Note_on_c, 0, 64, 62
2, 121654, Note_on_c, 0, 64, 0
2, 121660, Note_on_c, 0, 76, 0
2, 121677, Control_c, 0, 64, 0
2, 121686, Note_on_c, 0, 65, 57
2, 121687, Note_on_c, 0, 77, 51
2, 121694, Note_on_c, 0, 65, 0
2, 121698, Note_on_c, 0, 77, 0
2, 121754, Control_c, 0, 64, 127
2, 121766, Control_c, 0, 64, 0
2, 121768, Note_on_c, 0, 77, 58
2, 121768, Note_on_c, 0, 65, 55
2, 121776, Note_on_c, 0, 65, 0
2, 121778, Note_on_c, 0, 77, 0
2, 121805, Note_on_c, 0, 67, 51
2, 121806, Note_on_c, 0, 79, 58
2, 121825, Note_on_c, 0, 67, 0
2, 121835, Note_on_c, 0, 79, 0
2, 121849, Control_c, 0, 64, 127
2, 121904, Control_c, 0, 64, 0
2, 121928, Note_on_c, 0, 60, 38
2, 121929, Note_on_c, 0, 81, 59
2, 121931, Note_on_c, 0, 57, 31
2, 121931, Note_on_c, 0, 50, 29
2, 121932, Note_on_c, 0, 69, 40
2, 121952, Control_c, 0, 64, 127
2, 122007, Note_on_c, 0, 50, 0
2, 122008, Note_on_c, 0, 57, 0
2, 122019, Note_on_c, 0, 60, 0
2, 122082, Note_on_c, 0, 81, 0
2, 122082, Note_on_c, 0, 69, 0
2, 122161, Note_on_c, 0, 67, 37
2, 122163, Note_on_c, 0, 62, 35
2, 122165, Note_on_c, 0, 56, 34
2, 122169, Control_c, 0, 64, 0
2, 122216, Control_c, 0, 64, 127
2, 122242, Note_on_c, 0, 73, 53
2, 122254, Control_c, 0, 64, 0
2, 122264, Note_on_c, 0, 73, 0
2, 122282, Control_c, 0, 64, 127
2, 122282, Note_on_c, 0, 74, 64
2, 122299, Note_on_c, 0, 67, 0
2, 122305, Note_on_c, 0, 62, 0
2, 122314, Note_on_c, 0, 74, 0
2, 122342, Note_on_c, 0, 56, 0
2, 122363, Note_on_c, 0, 77, 108
2, 122365, Note_on_c, 0, 66, 76
2, 122366, Note_on_c, 0, 55, 74
2, 122366, Note_on_c, 0, 61, 62
2, 122377, Control_c, 0, 64, 0
2, 122513, Control_c, 0, 64, 127
2, 122547, Note_on_c, 0, 55, 0
2, 122565, Note_on_c, 0, 66, 0
2, 122586, Note_on_c, 0, 61, 0
2, 122633, Note_on_c, 0, 77, 0
2, 122641, Note_on_c, 0, 61, 38
2, 122643, Control_c, 0, 64, 0
2, 122643, Note_on_c, 0, 65, 40
2, 122643, Note_on_c, 0, 55, 48
2, 122646, Note_on_c, 0, 76, 50
2, 122688, Control_c, 0, 64, 127
2, 122741, Note_on_c, 0, 65, 0
2, 122752, Note_on_c, 0, 76, 0
2, 122760, Note_on_c, 0, 61, 0
2, 122764, Note_on_c, 0, 55, 0
2, 122848, Note_on_c, 0, 74, 81
2, 122870, Note_on_c, 0, 50, 32
2, 122873, Note_on_c, 0, 74, 0
2, 122883, Note_on_c, 0, 50, 0
2, 122885, Note_on_c, 0, 68, 50
2, 122898, Control_c, 0, 64, 0
2, 122917, Note_on_c, 0, 68, 0
2, 122930, Note_on_c, 0, 67, 24
2, 122959, Note_on_c, 0, 67, 0
2, 122969, Note_on_c, 0, 65, 49
2, 122987, Note_on_c, 0, 65, 0
2, 123003, Note_on_c, 0, 62, 41
2, 123047, Note_on_c, 0, 62, 0
2, 123122, Note_on_c, 0, 60, 48
2, 123150, Note_on_c, 0, 60, 0
2, 123247, Note_on_c, 0, 62, 61
2, 123250, Note_on_c, 0, 56, 62
2, 123276, Note_on_c, 0, 56, 0
2, 123288, Note_on_c, 0, 55, 43
2, 123300, Note_on_c, 0, 62, 0
2, 123321, Note_on_c, 0, 55, 0
2, 123334, Note_on_c, 0, 53, 27
2, 123354, Note_on_c, 0, 53, 0
2, 123369, Note_on_c, 0, 50, 45
2, 123445, Note_on_c, 0, 50, 0
2, 123491, Note_on_c, 0, 53, 45
2, 123539, Note_on_c, 0, 53, 0
2, 123604, Note_on_c, 0, 43, 40
2, 123608, Note_on_c, 0, 55, 68
2, 123654, Note_on_c, 0, 43, 0
2, 123673, Note_on_c, 0, 55, 0
2, 123698, Note_on_c, 0, 38, 50
2, 123712, Note_on_c, 0, 38, 0
2, 123726, Note_on_c, 0, 53, 57
2, 123730, Note_on_c, 0, 41, 36
2, 123760, Note_on_c, 0, 53, 0
2, 123778, Note_on_c, 0, 41, 0
2, 123806, Note_on_c, 0, 37, 32
2, 123808, Note_on_c, 0, 49, 39
2, 123824, Note_on_c, 0, 49, 0
2, 123826, Note_on_c, 0, 37, 0
2, 123841, Note_on_c, 0, 40, 30
2, 123846, Note_on_c, 0, 52, 53
2, 123904, Note_on_c, 0, 52, 0
2, 123911, Note_on_c, 0, 40, 0
2, 123920, Note_on_c, 0, 37, 35
2, 123920, Note_on_c, 0, 49, 29
2, 123939, Note_on_c, 0, 49, 0
2, 123944, Note_on_c, 0, 37, 0
2, 123958, Note_on_c, 0, 38, 26
2, 123959, Note_on_c, 0, 50, 40
2, 124023, Note_on_c, 0, 50, 0
2, 124032, Note_on_c, 0, 38, 0
2, 124043, Note_on_c, 0, 33, 36
2, 124045, Note_on_c, 0, 45, 24
2, 124325, Note_on_c, 0, 45, 0
2, 124374, Control_c, 0, 64, 127
2, 124408, Note_on_c, 0, 62, 62
2, 124426, Control_c, 0, 64, 0
2, 124430, Note_on_c, 0, 62, 0
2, 124431, Note_on_c, 0, 33, 0
2, 124447, Note_on_c, 0, 56, 51
2, 124467, Note_on_c, 0, 56, 0
2, 124481, Note_on_c, 0, 55, 36
2, 124515, Note_on_c, 0, 55, 0
2, 124531, Note_on_c, 0, 53, 46
2, 124550, Note_on_c, 0, 53, 0
2, 124575, Note_on_c, 0, 55, 62
2, 124621, Note_on_c, 0, 55, 0
2, 124642, Note_on_c, 0, 53, 55
2, 124670, Note_on_c, 0, 53, 0
2, 124686, Note_on_c, 0, 50, 32
2, 124747, Note_on_c, 0, 50, 0
2, 124752, Control_c, 0, 64, 127
2, 124760, Note_on_c, 0, 49, 28
2, 124781, Note_on_c, 0, 49, 0
2, 124786, Control_c, 0, 64, 0
2, 124797, Note_on_c, 0, 52, 53
2, 124877, Note_on_c, 0, 52, 0
2, 124922, Note_on_c, 0, 50, 39
2, 124940, Control_c, 0, 64, 127
2, 125014, Note_on_c, 0, 26, 41
2, 125026, Control_c, 0, 64, 0
2, 125093, Control_c, 0, 64, 127
2, 125166, Note_on_c, 0, 26, 0
2, 125167, Note_on_c, 0, 50, 0
2, 125367, Note_on_c, 0, 57, 35
2, 125403, Note_on_c, 0, 61, 46
2, 125418, Note_on_c, 0, 64, 36
2, 125441, Note_on_c, 0, 64, 0
2, 125444, Note_on_c, 0, 69, 49
2, 125465, Note_on_c, 0, 69, 0
2, 125468, Note_on_c, 0, 73, 52
2, 125475, Note_on_c, 0, 73, 0
2, 125496, Note_on_c, 0, 74, 34
2, 125498, Note_on_c, 0, 76, 38
2, 125506, Note_on_c, 0, 74, 0
2, 125510, Note_on_c, 0, 76, 0
2, 125525, Note_on_c, 0, 81, 44
2, 125544, Note_on_c, 0, 81, 0
2, 125558, Note_on_c, 0, 88, 28
2, 125565, Note_on_c, 0, 88, 0
2, 125579, Note_on_c, 0, 88, 46
2, 125603, Note_on_c, 0, 93, 49
2, 125615, Note_on_c, 0, 61, 0
2, 125626, Note_on_c, 0, 88, 0
2, 125636, Note_on_c, 0, 100, 62
2, 125656, Note_on_c, 0, 93, 0
2, 125681, Note_on_c, 0, 100, 0
2, 125681, Note_on_c, 0, 97, 50
2, 125705, Note_on_c, 0, 97, 0
2, 125728, Note_on_c, 0, 105, 57
2, 125730, Note_on_c, 0, 103, 50
2, 125777, Note_on_c, 0, 105, 0
2, 125779, Note_on_c, 0, 103, 0
2, 125788, Note_on_c, 0, 100, 51
2, 125824, Note_on_c, 0, 100, 0
2, 125846, Note_on_c, 0, 107, 67
2, 125880, Note_on_c, 0, 107, 0
2, 125910, Note_on_c, 0, 108, 46
2, 125920, Note_on_c, 0, 108, 0
2, 126011, Note_on_c, 0, 57, 0
2, 126241, Control_c, 0, 64, 0
2, 126241, End_track
3, 0, Start_track
3, 0, MIDI_port, 0
3, 0, Title_t, "DougMcKenzie"
3, 127, Program_c, 1, 32
3, 128, Control_c, 1, 7, 123
3, 61528, Note_on_c, 1, 45, 58
3, 61888, Note_on_c, 1, 33, 56
3, 61891, Note_on_c, 1, 45, 0
3, 61920, Note_on_c, 1, 45, 0
3, 61920, Note_on_c, 1, 45, 0
3, 61920, Note_on_c, 1, 45, 0
3, 61920, Note_on_c, 1, 45, 0
3, 61920, Note_on_c, 1, 45, 0
3, 61920, Note_on_c, 1, 45, 0
3, 61920, Note_on_c, 1, 45, 0
3, 61920, Note_on_c, 1, 45, 0
3, 62040, Note_on_c, 1, 45, 0
3, 62040, Note_on_c, 1, 45, 0
3, 62040, Note_on_c, 1, 45, 0
3, 62040, Note_on_c, 1, 45, 0
3, 62040, Note_on_c, 1, 45, 0
3, 62040, Note_on_c, 1, 45, 0
3, 62040, Note_on_c, 1, 45, 0
3, 62040, Note_on_c, 1, 45, 0
3, 62327, Note_on_c, 1, 33, 0
3, 62520, Note_on_c, 1, 45, 71
3, 62560, Note_on_c, 1, 45, 0
3, 62600, Note_on_c, 1, 46, 60
3, 62640, Note_on_c, 1, 46, 0
3, 62640, Note_on_c, 1, 45, 50
3, 62720, Note_on_c, 1, 33, 80
3, 62760, Note_on_c, 1, 45, 0
3, 62960, Note_on_c, 1, 40, 44
3, 63000, Note_on_c, 1, 40, 0
3, 63000, Note_on_c, 1, 45, 67
3, 63040, Note_on_c, 1, 45, 0
3, 63080, Note_on_c, 1, 46, 57
3, 63120, Note_on_c, 1, 46, 0
3, 63120, Note_on_c, 1, 33, 0
3, 63120, Note_on_c, 1, 45, 74
3, 63160, Note_on_c, 1, 45, 0
3, 63200, Note_on_c, 1, 40, 62
3, 63240, Note_on_c, 1, 40, 0
3, 63240, Note_on_c, 1, 33, 70
3, 63440, Note_on_c, 1, 33, 0
3, 63440, Note_on_c, 1, 40, 57
3, 63480, Note_on_c, 1, 40, 0
3, 63480, Note_on_c, 1, 45, 74
3, 63520, Note_on_c, 1, 45, 0
3, 63560, Note_on_c, 1, 46, 76
3, 63600, Note_on_c, 1, 46, 0
3, 63600, Note_on_c, 1, 45, 66
3, 63640, Note_on_c, 1, 45, 0
3, 63680, Note_on_c, 1, 40, 53
3, 63720, Note_on_c, 1, 40, 0
3, 63720, Note_on_c, 1, 33, 71
3, 63920, Note_on_c, 1, 49, 81
3, 63960, Note_on_c, 1, 49, 0
3, 63960, Note_on_c, 1, 33, 0
3, 63960, Note_on_c, 1, 50, 45
3, 64040, Note_on_c, 1, 50, 0
3, 64040, Note_on_c, 1, 47, 45
3, 64080, Note_on_c, 1, 47, 0
3, 64080, Note_on_c, 1, 48, 70
3, 64160, Note_on_c, 1, 45, 45
3, 64160, Note_on_c, 1, 39, 29
3, 64200, Note_on_c, 1, 39, 0
3, 64200, Note_on_c, 1, 45, 0
3, 64200, Note_on_c, 1, 48, 0
3, 64200, Note_on_c, 1, 46, 61
3, 64240, Note_on_c, 1, 46, 0
3, 64240, Note_on_c, 1, 41, 58
3, 64280, Note_on_c, 1, 41, 0
3, 64280, Note_on_c, 1, 42, 73
3, 64320, Note_on_c, 1, 42, 0
3, 64320, Note_on_c, 1, 43, 62
3, 64640, Note_on_c, 1, 43, 0
3, 64640, Note_on_c, 1, 38, 68
3, 64680, Note_on_c, 1, 38, 0
3, 64680, Note_on_c, 1, 31, 73
3, 64920, Note_on_c, 1, 31, 0
3, 64920, Note_on_c, 1, 36, 73
3, 65040, Note_on_c, 1, 48, 62
3, 65080, Note_on_c, 1, 48, 0
3, 65080, Note_on_c, 1, 36, 0
3, 65080, Note_on_c, 1, 48, 75
3, 65280, Note_on_c, 1, 48, 0
3, 65320, Note_on_c, 1, 36, 80
3, 65480, Note_on_c, 1, 48, 66
3, 65520, Note_on_c, 1, 48, 0
3, 65520, Note_on_c, 1, 48, 77
3, 65560, Note_on_c, 1, 48, 0
3, 65560, Note_on_c, 1, 48, 92
3, 65640, Note_on_c, 1, 36, 0
3, 65720, Note_on_c, 1, 36, 65
3, 65760, Note_on_c, 1, 36, 0
3, 65760, Note_on_c, 1, 36, 74
3, 65960, Note_on_c, 1, 36, 0
3, 65960, Note_on_c, 1, 48, 0
3, 65960, Note_on_c, 1, 46, 64
3, 66000, Note_on_c, 1, 46, 0
3, 66000, Note_on_c, 1, 45, 58
3, 66080, Note_on_c, 1, 40, 65
3, 66120, Note_on_c, 1, 40, 0
3, 66120, Note_on_c, 1, 45, 0
3, 66120, Note_on_c, 1, 39, 55
3, 66200, Note_on_c, 1, 39, 0
3, 66200, Note_on_c, 1, 37, 51
3, 66240, Note_on_c, 1, 37, 0
3, 66240, Note_on_c, 1, 38, 67
3, 66520, Note_on_c, 1, 52, 62
3, 66560, Note_on_c, 1, 52, 0
3, 66560, Note_on_c, 1, 38, 0
3, 66560, Note_on_c, 1, 51, 59
3, 66600, Note_on_c, 1, 51, 0
3, 66600, Note_on_c, 1, 50, 65
3, 66640, Note_on_c, 1, 50, 0
3, 66640, Note_on_c, 1, 48, 61
3, 66680, Note_on_c, 1, 48, 0
3, 66680, Note_on_c, 1, 42, 69
3, 66720, Note_on_c, 1, 42, 0
3, 66720, Note_on_c, 1, 43, 59
3, 66960, Note_on_c, 1, 43, 0
3, 66960, Note_on_c, 1, 38, 74
3, 67200, Note_on_c, 1, 38, 0
3, 67200, Note_on_c, 1, 34, 63
3, 67640, Note_on_c, 1, 46, 77
3, 67680, Note_on_c, 1, 46, 0
3, 67680, Note_on_c, 1, 34, 0
3, 67680, Note_on_c, 1, 45, 62
3, 67880, Note_on_c, 1, 45, 0
3, 67880, Note_on_c, 1, 40, 54
3, 67920, Note_on_c, 1, 40, 0
3, 67920, Note_on_c, 1, 37, 57
3, 68120, Note_on_c, 1, 37, 0
3, 68120, Note_on_c, 1, 37, 53
3, 68160, Note_on_c, 1, 37, 0
3, 68160, Note_on_c, 1, 38, 56
3, 68320, Note_on_c, 1, 38, 0
3, 68320, Note_on_c, 1, 39, 55
3, 68360, Note_on_c, 1, 39, 0
3, 68360, Note_on_c, 1, 40, 48
3, 68400, Note_on_c, 1, 40, 0
3, 68400, Note_on_c, 1, 41, 66
3, 68600, Note_on_c, 1, 41, 0
3, 68600, Note_on_c, 1, 38, 29
3, 68640, Note_on_c, 1, 38, 0
3, 68640, Note_on_c, 1, 43, 60
3, 68800, Note_on_c, 1, 55, 60
3, 68840, Note_on_c, 1, 55, 0
3, 68840, Note_on_c, 1, 55, 95
3, 69040, Note_on_c, 1, 43, 0
3, 69080, Note_on_c, 1, 43, 56
3, 69120, Note_on_c, 1, 43, 0
3, 69120, Note_on_c, 1, 55, 0
3, 69120, Note_on_c, 1, 52, 66
3, 69160, Note_on_c, 1, 52, 0
3, 69160, Note_on_c, 1, 52, 83
3, 69360, Note_on_c, 1, 52, 0
3, 69360, Note_on_c, 1, 40, 64
3, 69400, Note_on_c, 1, 40, 0
3, 69400, Note_on_c, 1, 40, 79
3, 69480, Note_on_c, 1, 40, 0
3, 69480, Note_on_c, 1, 52, 68
3, 69520, Note_on_c, 1, 52, 0
3, 69520, Note_on_c, 1, 52, 89
3, 69600, Note_on_c, 1, 52, 0
3, 69600, Note_on_c, 1, 45, 71
3, 69640, Note_on_c, 1, 45, 0
3, 69640, Note_on_c, 1, 45, 66
3, 69720, Note_on_c, 1, 33, 53
3, 69760, Note_on_c, 1, 33, 0
3, 69760, Note_on_c, 1, 33, 82
3, 69800, Note_on_c, 1, 45, 0
3, 69840, Note_on_c, 1, 45, 53
3, 69880, Note_on_c, 1, 45, 0
3, 69880, Note_on_c, 1, 45, 91
3, 69960, Note_on_c, 1, 33, 0
3, 70040, Note_on_c, 1, 45, 0
3, 70040, Note_on_c, 1, 33, 48
3, 70080, Note_on_c, 1, 33, 0
3, 70080, Note_on_c, 1, 45, 74
3, 70200, Note_on_c, 1, 33, 61
3, 70240, Note_on_c, 1, 33, 0
3, 70280, Note_on_c, 1, 33, 92
3, 70440, Note_on_c, 1, 45, 0
3, 70680, Note_on_c, 1, 45, 72
3, 70720, Note_on_c, 1, 45, 0
3, 70720, Note_on_c, 1, 46, 74
3, 70760, Note_on_c, 1, 46, 0
3, 70760, Note_on_c, 1, 45, 96
3, 70840, Note_on_c, 1, 33, 0
3, 70920, Note_on_c, 1, 45, 0
3, 70920, Note_on_c, 1, 33, 74
3, 71120, Note_on_c, 1, 33, 0
3, 71120, Note_on_c, 1, 33, 31
3, 71160, Note_on_c, 1, 33, 0
3, 71160, Note_on_c, 1, 45, 70
3, 71200, Note_on_c, 1, 45, 0
3, 71200, Note_on_c, 1, 46, 74
3, 71240, Note_on_c, 1, 46, 0
3, 71240, Note_on_c, 1, 45, 92
3, 71480, Note_on_c, 1, 45, 0
3, 71480, Note_on_c, 1, 33, 65
3, 71680, Note_on_c, 1, 33, 0
3, 71680, Note_on_c, 1, 36, 58
3, 71720, Note_on_c, 1, 36, 0
3, 71720, Note_on_c, 1, 37, 74
3, 71760, Note_on_c, 1, 37, 0
3, 71760, Note_on_c, 1, 38, 71
3, 71920, Note_on_c, 1, 44, 73
3, 71960, Note_on_c, 1, 44, 0
3, 71960, Note_on_c, 1, 42, 71
3, 72000, Note_on_c, 1, 42, 0
3, 72000, Note_on_c, 1, 38, 0
3, 72000, Note_on_c, 1, 43, 58
3, 72080, Note_on_c, 1, 43, 0
3, 72080, Note_on_c, 1, 45, 60
3, 72120, Note_on_c, 1, 45, 0
3, 72120, Note_on_c, 1, 46, 65
3, 72320, Note_on_c, 1, 46, 0
3, 72320, Note_on_c, 1, 47, 64
3, 72320, Note_on_c, 1, 50, 82
3, 72360, Note_on_c, 1, 50, 0
3, 72360, Note_on_c, 1, 47, 0
3, 72360, Note_on_c, 1, 48, 85
3, 72560, Note_on_c, 1, 48, 0
3, 72560, Note_on_c, 1, 43, 67
3, 72600, Note_on_c, 1, 43, 0
3, 72600, Note_on_c, 1, 36, 76
3, 72920, Note_on_c, 1, 36, 0
3, 72920, Note_on_c, 1, 43, 62
3, 72960, Note_on_c, 1, 43, 0
3, 72960, Note_on_c, 1, 41, 58
3, 73280, Note_on_c, 1, 55, 89
3, 73320, Note_on_c, 1, 55, 0
3, 73320, Note_on_c, 1, 41, 0
3, 73320, Note_on_c, 1, 53, 77
3, 73520, Note_on_c, 1, 53, 0
3, 73520, Note_on_c, 1, 48, 74
3, 73560, Note_on_c, 1, 48, 0
3, 73560, Note_on_c, 1, 40, 61
3, 73720, Note_on_c, 1, 40, 0
3, 73760, Note_on_c, 1, 40, 47
3, 73800, Note_on_c, 1, 40, 0
3, 73800, Note_on_c, 1, 45, 61
3, 73840, Note_on_c, 1, 45, 0
3, 73880, Note_on_c, 1, 40, 52
3, 73920, Note_on_c, 1, 40, 0
3, 73920, Note_on_c, 1, 38, 53
3, 74280, Note_on_c, 1, 38, 0
3, 74280, Note_on_c, 1, 44, 78
3, 74400, Note_on_c, 1, 44, 0
3, 74400, Note_on_c, 1, 43, 64
3, 74600, Note_on_c, 1, 38, 47
3, 74640, Note_on_c, 1, 38, 0
3, 74640, Note_on_c, 1, 43, 0
3, 74640, Note_on_c, 1, 34, 48
3, 74840, Note_on_c, 1, 34, 0
3, 74840, Note_on_c, 1, 39, 47
3, 74880, Note_on_c, 1, 39, 0
3, 74880, Note_on_c, 1, 40, 61
3, 75000, Note_on_c, 1, 52, 69
3, 75040, Note_on_c, 1, 52, 0
3, 75040, Note_on_c, 1, 52, 70
3, 75080, Note_on_c, 1, 52, 0
3, 75120, Note_on_c, 1, 52, 66
3, 75160, Note_on_c, 1, 52, 0
3, 75160, Note_on_c, 1, 53, 65
3, 75200, Note_on_c, 1, 53, 0
3, 75200, Note_on_c, 1, 52, 78
3, 75280, Note_on_c, 1, 40, 0
3, 75440, Note_on_c, 1, 45, 59
3, 75480, Note_on_c, 1, 45, 0
3, 75480, Note_on_c, 1, 40, 62
3, 75640, Note_on_c, 1, 52, 0
3, 75680, Note_on_c, 1, 40, 0
3, 75680, Note_on_c, 1, 37, 60
3, 75720, Note_on_c, 1, 37, 0
3, 75720, Note_on_c, 1, 38, 58
3, 75840, Note_on_c, 1, 38, 0
3, 75840, Note_on_c, 1, 38, 64
3, 76160, Note_on_c, 1, 38, 0
3, 76160, Note_on_c, 1, 36, 45
3, 76200, Note_on_c, 1, 36, 0
3, 76200, Note_on_c, 1, 47, 95
3, 76320, Note_on_c, 1, 47, 0
3, 76320, Note_on_c, 1, 46, 76
3, 76520, Note_on_c, 1, 46, 0
3, 76520, Note_on_c, 1, 34, 59
3, 76520, Note_on_c, 1, 50, 66
3, 76560, Note_on_c, 1, 50, 0
3, 76560, Note_on_c, 1, 34, 0
3, 76560, Note_on_c, 1, 49, 51
3, 76560, Note_on_c, 1, 33, 50
3, 76720, Note_on_c, 1, 33, 0
3, 76760, Note_on_c, 1, 49, 0
3, 76760, Note_on_c, 1, 37, 72
3, 76800, Note_on_c, 1, 37, 0
3, 76800, Note_on_c, 1, 38, 85
3, 76840, Note_on_c, 1, 38, 0
3, 77720, Note_on_c, 1, 51, 80
3, 77760, Note_on_c, 1, 51, 0
3, 77760, Note_on_c, 1, 52, 57
3, 77880, Note_on_c, 1, 52, 0
3, 77880, Note_on_c, 1, 50, 51
3, 78000, Note_on_c, 1, 50, 0
3, 78000, Note_on_c, 1, 46, 59
3, 78120, Note_on_c, 1, 46, 0
3, 78120, Note_on_c, 1, 44, 71
3, 78240, Note_on_c, 1, 44, 0
3, 78240, Note_on_c, 1, 45, 61
3, 78280, Note_on_c, 1, 45, 0
3, 78320, Note_on_c, 1, 40, 66
3, 78360, Note_on_c, 1, 40, 0
3, 78360, Note_on_c, 1, 37, 56
3, 78480, Note_on_c, 1, 37, 0
3, 78480, Note_on_c, 1, 34, 52
3, 78600, Note_on_c, 1, 34, 0
3, 78600, Note_on_c, 1, 33, 58
3, 78720, Note_on_c, 1, 33, 0
3, 78720, Note_on_c, 1, 38, 58
3, 78880, Note_on_c, 1, 45, 44
3, 78920, Note_on_c, 1, 45, 0
3, 78920, Note_on_c, 1, 48, 62
3, 78960, Note_on_c, 1, 48, 0
3, 78960, Note_on_c, 1, 52, 90
3, 79080, Note_on_c, 1, 52, 0
3, 79080, Note_on_c, 1, 38, 0
3, 79080, Note_on_c, 1, 50, 60
3, 79200, Note_on_c, 1, 42, 56
3, 79240, Note_on_c, 1, 50, 0
3, 79320, Note_on_c, 1, 42, 0
3, 79320, Note_on_c, 1, 38, 58
3, 79440, Note_on_c, 1, 38, 0
3, 79440, Note_on_c, 1, 33, 57
3, 79560, Note_on_c, 1, 33, 0
3, 79560, Note_on_c, 1, 30, 65
3, 79680, Note_on_c, 1, 30, 0
3, 79680, Note_on_c, 1, 31, 68
3, 79800, Note_on_c, 1, 31, 0
3, 79800, Note_on_c, 1, 33, 79
3, 79920, Note_on_c, 1, 33, 0
3, 79920, Note_on_c, 1, 34, 76
3, 80040, Note_on_c, 1, 34, 0
3, 80040, Note_on_c, 1, 35, 71
3, 80160, Note_on_c, 1, 35, 0
3, 80160, Note_on_c, 1, 36, 72
3, 80280, Note_on_c, 1, 36, 0
3, 80280, Note_on_c, 1, 34, 29
3, 80280, Note_on_c, 1, 50, 103
3, 80320, Note_on_c, 1, 34, 0
3, 80400, Note_on_c, 1, 50, 0
3, 80400, Note_on_c, 1, 48, 62
3, 80440, Note_on_c, 1, 48, 0
3, 80480, Note_on_c, 1, 39, 61
3, 80520, Note_on_c, 1, 39, 0
3, 80520, Note_on_c, 1, 40, 64
3, 80640, Note_on_c, 1, 40, 0
3, 80640, Note_on_c, 1, 41, 62
3, 80760, Note_on_c, 1, 41, 0
3, 80760, Note_on_c, 1, 35, 69
3, 80880, Note_on_c, 1, 35, 0
3, 80880, Note_on_c, 1, 36, 74
3, 81000, Note_on_c, 1, 36, 0
3, 81000, Note_on_c, 1, 29, 77
3, 81120, Note_on_c, 1, 29, 0
3, 81120, Note_on_c, 1, 34, 77
3, 81240, Note_on_c, 1, 50, 69
3, 81360, Note_on_c, 1, 50, 0
3, 81360, Note_on_c, 1, 34, 0
3, 81360, Note_on_c, 1, 49, 71
3, 81480, Note_on_c, 1, 49, 0
3, 81480, Note_on_c, 1, 45, 64
3, 81560, Note_on_c, 1, 45, 0
3, 81560, Note_on_c, 1, 37, 56
3, 81600, Note_on_c, 1, 37, 0
3, 81600, Note_on_c, 1, 38, 63
3, 81720, Note_on_c, 1, 38, 0
3, 81720, Note_on_c, 1, 38, 80
3, 81800, Note_on_c, 1, 37, 46
3, 81840, Note_on_c, 1, 37, 0
3, 81840, Note_on_c, 1, 38, 0
3, 81840, Note_on_c, 1, 50, 92
3, 82000, Note_on_c, 1, 41, 50
3, 82040, Note_on_c, 1, 41, 0
3, 82040, Note_on_c, 1, 50, 0
3, 82040, Note_on_c, 1, 42, 77
3, 82080, Note_on_c, 1, 42, 0
3, 82080, Note_on_c, 1, 43, 62
3, 82160, Note_on_c, 1, 43, 0
3, 82160, Note_on_c, 1, 38, 57
3, 82200, Note_on_c, 1, 38, 0
3, 82200, Note_on_c, 1, 34, 67
3, 82320, Note_on_c, 1, 34, 0
3, 82320, Note_on_c, 1, 31, 65
3, 82440, Note_on_c, 1, 31, 0
3, 82440, Note_on_c, 1, 39, 74
3, 82560, Note_on_c, 1, 39, 0
3, 82560, Note_on_c, 1, 40, 69
3, 82680, Note_on_c, 1, 40, 0
3, 82680, Note_on_c, 1, 40, 64
3, 82800, Note_on_c, 1, 40, 0
3, 82800, Note_on_c, 1, 35, 61
3, 82920, Note_on_c, 1, 35, 0
3, 82920, Note_on_c, 1, 32, 69
3, 83040, Note_on_c, 1, 32, 0
3, 83040, Note_on_c, 1, 33, 66
3, 83160, Note_on_c, 1, 33, 0
3, 83160, Note_on_c, 1, 35, 78
3, 83280, Note_on_c, 1, 35, 0
3, 83280, Note_on_c, 1, 36, 82
3, 83400, Note_on_c, 1, 36, 0
3, 83400, Note_on_c, 1, 37, 75
3, 83520, Note_on_c, 1, 37, 0
3, 83520, Note_on_c, 1, 38, 72
3, 83600, Note_on_c, 1, 38, 0
3, 83600, Note_on_c, 1, 35, 82
3, 83640, Note_on_c, 1, 35, 0
3, 83640, Note_on_c, 1, 36, 74
3, 83720, Note_on_c, 1, 36, 0
3, 83720, Note_on_c, 1, 34, 71
3, 83760, Note_on_c, 1, 34, 0
3, 83760, Note_on_c, 1, 35, 74
3, 83880, Note_on_c, 1, 35, 0
3, 83880, Note_on_c, 1, 35, 73
3, 84000, Note_on_c, 1, 35, 0
3, 84000, Note_on_c, 1, 47, 71
3, 84120, Note_on_c, 1, 47, 0
3, 84120, Note_on_c, 1, 42, 73
3, 84240, Note_on_c, 1, 42, 0
3, 84240, Note_on_c, 1, 35, 60
3, 84320, Note_on_c, 1, 35, 0
3, 84320, Note_on_c, 1, 38, 59
3, 84360, Note_on_c, 1, 38, 0
3, 84360, Note_on_c, 1, 39, 81
3, 84480, Note_on_c, 1, 39, 0
3, 84480, Note_on_c, 1, 40, 62
3, 84520, Note_on_c, 1, 40, 0
3, 84560, Note_on_c, 1, 37, 77
3, 84600, Note_on_c, 1, 37, 0
3, 84600, Note_on_c, 1, 38, 64
3, 84640, Note_on_c, 1, 38, 0
3, 84680, Note_on_c, 1, 35, 68
3, 84720, Note_on_c, 1, 35, 0
3, 84720, Note_on_c, 1, 36, 68
3, 84800, Note_on_c, 1, 36, 0
3, 84800, Note_on_c, 1, 34, 53
3, 84840, Note_on_c, 1, 34, 0
3, 84840, Note_on_c, 1, 35, 60
3, 84880, Note_on_c, 1, 35, 0
3, 84920, Note_on_c, 1, 32, 74
3, 84960, Note_on_c, 1, 32, 0
3, 84960, Note_on_c, 1, 33, 64
3, 85040, Note_on_c, 1, 33, 0
3, 85040, Note_on_c, 1, 32, 36
3, 85040, Note_on_c, 1, 44, 81
3, 85080, Note_on_c, 1, 44, 0
3, 85080, Note_on_c, 1, 32, 0
3, 85080, Note_on_c, 1, 45, 77
3, 85120, Note_on_c, 1, 45, 0
3, 85160, Note_on_c, 1, 42, 76
3, 85200, Note_on_c, 1, 42, 0
3, 85200, Note_on_c, 1, 43, 66
3, 85240, Note_on_c, 1, 43, 0
3, 85280, Note_on_c, 1, 38, 41
3, 85280, Note_on_c, 1, 40, 57
3, 85320, Note_on_c, 1, 40, 0
3, 85320, Note_on_c, 1, 38, 0
3, 85320, Note_on_c, 1, 41, 63
3, 85360, Note_on_c, 1, 41, 0
3, 85400, Note_on_c, 1, 39, 71
3, 85440, Note_on_c, 1, 39, 0
3, 85440, Note_on_c, 1, 40, 69
3, 85480, Note_on_c, 1, 40, 0
3, 85520, Note_on_c, 1, 37, 74
3, 85560, Note_on_c, 1, 37, 0
3, 85560, Note_on_c, 1, 38, 74
3, 85680, Note_on_c, 1, 38, 0
3, 85680, Note_on_c, 1, 34, 77
3, 85800, Note_on_c, 1, 34, 0
3, 85800, Note_on_c, 1, 32, 72
3, 85920, Note_on_c, 1, 32, 0
3, 85920, Note_on_c, 1, 33, 74
3, 86040, Note_on_c, 1, 33, 0
3, 86040, Note_on_c, 1, 46, 83
3, 86040, Note_on_c, 1, 44, 37
3, 86080, Note_on_c, 1, 44, 0
3, 86160, Note_on_c, 1, 46, 0
3, 86160, Note_on_c, 1, 45, 67
3, 86280, Note_on_c, 1, 45, 0
3, 86280, Note_on_c, 1, 38, 47
3, 86280, Note_on_c, 1, 33, 84
3, 86320, Note_on_c, 1, 38, 0
3, 86360, Note_on_c, 1, 38, 28
3, 86400, Note_on_c, 1, 38, 0
3, 86400, Note_on_c, 1, 33, 0
3, 86400, Note_on_c, 1, 46, 91
3, 86520, Note_on_c, 1, 46, 0
3, 86520, Note_on_c, 1, 45, 72
3, 86600, Note_on_c, 1, 38, 56
3, 86640, Note_on_c, 1, 38, 0
3, 86640, Note_on_c, 1, 45, 0
3, 86640, Note_on_c, 1, 33, 68
3, 86720, Note_on_c, 1, 33, 0
3, 86720, Note_on_c, 1, 38, 51
3, 86760, Note_on_c, 1, 38, 0
3, 86760, Note_on_c, 1, 46, 92
3, 86880, Note_on_c, 1, 46, 0
3, 86880, Note_on_c, 1, 45, 70
3, 86960, Note_on_c, 1, 45, 0
3, 86960, Note_on_c, 1, 32, 57
3, 87000, Note_on_c, 1, 32, 0
3, 87000, Note_on_c, 1, 33, 79
3, 87080, Note_on_c, 1, 33, 0
3, 87080, Note_on_c, 1, 38, 43
3, 87120, Note_on_c, 1, 38, 0
3, 87120, Note_on_c, 1, 46, 82
3, 87200, Note_on_c, 1, 33, 54
3, 87240, Note_on_c, 1, 33, 0
3, 87240, Note_on_c, 1, 46, 0
3, 87240, Note_on_c, 1, 44, 81
3, 87360, Note_on_c, 1, 44, 0
3, 87360, Note_on_c, 1, 43, 62
3, 87440, Note_on_c, 1, 38, 54
3, 87480, Note_on_c, 1, 38, 0
3, 87480, Note_on_c, 1, 43, 0
3, 87480, Note_on_c, 1, 34, 60
3, 87600, Note_on_c, 1, 34, 0
3, 87600, Note_on_c, 1, 31, 53
3, 87720, Note_on_c, 1, 35, 60
3, 87760, Note_on_c, 1, 31, 0
3, 87840, Note_on_c, 1, 35, 0
3, 87840, Note_on_c, 1, 36, 67
3, 87960, Note_on_c, 1, 36, 0
3, 87960, Note_on_c, 1, 50, 108
3, 88080, Note_on_c, 1, 50, 0
3, 88080, Note_on_c, 1, 48, 68
3, 88200, Note_on_c, 1, 48, 0
3, 88200, Note_on_c, 1, 46, 77
3, 88320, Note_on_c, 1, 46, 0
3, 88320, Note_on_c, 1, 45, 62
3, 88360, Note_on_c, 1, 45, 0
3, 88400, Note_on_c, 1, 45, 69
3, 88440, Note_on_c, 1, 45, 0
3, 88440, Note_on_c, 1, 43, 60
3, 88560, Note_on_c, 1, 43, 0
3, 88560, Note_on_c, 1, 41, 49
3, 88600, Note_on_c, 1, 41, 0
3, 88640, Note_on_c, 1, 40, 71
3, 88680, Note_on_c, 1, 40, 0
3, 88680, Note_on_c, 1, 41, 61
3, 88720, Note_on_c, 1, 41, 0
3, 88760, Note_on_c, 1, 39, 67
3, 88800, Note_on_c, 1, 39, 0
3, 88800, Note_on_c, 1, 40, 67
3, 88840, Note_on_c, 1, 40, 0
3, 88880, Note_on_c, 1, 37, 64
3, 88920, Note_on_c, 1, 37, 0
3, 88920, Note_on_c, 1, 38, 66
3, 88960, Note_on_c, 1, 38, 0
3, 89000, Note_on_c, 1, 36, 49
3, 89040, Note_on_c, 1, 36, 0
3, 89040, Note_on_c, 1, 37, 48
3, 89120, Note_on_c, 1, 37, 0
3, 89120, Note_on_c, 1, 33, 49
3, 89160, Note_on_c, 1, 33, 0
3, 89160, Note_on_c, 1, 34, 71
3, 89200, Note_on_c, 1, 34, 0
3, 89240, Note_on_c, 1, 37, 68
3, 89280, Note_on_c, 1, 37, 0
3, 89280, Note_on_c, 1, 38, 68
3, 89400, Note_on_c, 1, 38, 0
3, 89400, Note_on_c, 1, 41, 70
3, 89480, Note_on_c, 1, 39, 42
3, 89520, Note_on_c, 1, 39, 0
3, 89520, Note_on_c, 1, 41, 0
3, 89520, Note_on_c, 1, 40, 24
3, 89520, Note_on_c, 1, 50, 53
3, 89560, Note_on_c, 1, 40, 0
3, 89640, Note_on_c, 1, 50, 0
3, 89640, Note_on_c, 1, 44, 65
3, 89760, Note_on_c, 1, 44, 0
3, 89760, Note_on_c, 1, 43, 52
3, 89840, Note_on_c, 1, 43, 0
3, 89840, Note_on_c, 1, 38, 63
3, 89880, Note_on_c, 1, 38, 0
3, 89880, Note_on_c, 1, 34, 60
3, 90000, Note_on_c, 1, 34, 0
3, 90000, Note_on_c, 1, 31, 65
3, 90120, Note_on_c, 1, 31, 0
3, 90120, Note_on_c, 1, 34, 63
3, 90240, Note_on_c, 1, 34, 0
3, 90240, Note_on_c, 1, 34, 63
3, 90360, Note_on_c, 1, 34, 0
3, 90360, Note_on_c, 1, 46, 85
3, 90480, Note_on_c, 1, 46, 0
3, 90480, Note_on_c, 1, 40, 54
3, 90600, Note_on_c, 1, 40, 0
3, 90600, Note_on_c, 1, 34, 70
3, 90640, Note_on_c, 1, 34, 0
3, 90680, Note_on_c, 1, 34, 73
3, 90720, Note_on_c, 1, 34, 0
3, 90720, Note_on_c, 1, 33, 68
3, 90840, Note_on_c, 1, 40, 60
3, 90880, Note_on_c, 1, 40, 0
3, 90920, Note_on_c, 1, 40, 53
3, 90960, Note_on_c, 1, 40, 0
3, 90960, Note_on_c, 1, 33, 0
3, 90960, Note_on_c, 1, 45, 80
3, 91080, Note_on_c, 1, 45, 0
3, 91080, Note_on_c, 1, 40, 66
3, 91160, Note_on_c, 1, 40, 0
3, 91160, Note_on_c, 1, 37, 59
3, 91200, Note_on_c, 1, 37, 0
3, 91200, Note_on_c, 1, 38, 74
3, 91280, Note_on_c, 1, 37, 49
3, 91320, Note_on_c, 1, 37, 0
3, 91320, Note_on_c, 1, 38, 0
3, 91320, Note_on_c, 1, 50, 101
3, 91400, Note_on_c, 1, 37, 35
3, 91440, Note_on_c, 1, 37, 0
3, 91440, Note_on_c, 1, 50, 0
3, 91440, Note_on_c, 1, 47, 72
3, 91560, Note_on_c, 1, 47, 0
3, 91560, Note_on_c, 1, 35, 77
3, 91680, Note_on_c, 1, 35, 0
3, 91680, Note_on_c, 1, 34, 74
3, 91800, Note_on_c, 1, 34, 0
3, 91800, Note_on_c, 1, 46, 87
3, 91920, Note_on_c, 1, 46, 0
3, 91920, Note_on_c, 1, 45, 73
3, 92000, Note_on_c, 1, 38, 66
3, 92040, Note_on_c, 1, 38, 0
3, 92040, Note_on_c, 1, 45, 0
3, 92040, Note_on_c, 1, 32, 71
3, 92120, Note_on_c, 1, 32, 0
3, 92120, Note_on_c, 1, 33, 74
3, 92160, Note_on_c, 1, 33, 0
3, 92160, Note_on_c, 1, 38, 78
3, 92280, Note_on_c, 1, 52, 88
3, 92400, Note_on_c, 1, 52, 0
3, 92400, Note_on_c, 1, 38, 0
3, 92400, Note_on_c, 1, 50, 74
3, 92520, Note_on_c, 1, 50, 0
3, 92520, Note_on_c, 1, 38, 95
3, 92600, Note_on_c, 1, 37, 35
3, 92640, Note_on_c, 1, 37, 0
3, 92640, Note_on_c, 1, 38, 0
3, 92640, Note_on_c, 1, 52, 110
3, 92720, Note_on_c, 1, 37, 57
3, 92760, Note_on_c, 1, 37, 0
3, 92760, Note_on_c, 1, 52, 0
3, 92760, Note_on_c, 1, 50, 76
3, 92840, Note_on_c, 1, 50, 0
3, 92840, Note_on_c, 1, 38, 78
3, 92880, Note_on_c, 1, 38, 0
3, 92880, Note_on_c, 1, 38, 78
3, 92960, Note_on_c, 1, 38, 0
3, 92960, Note_on_c, 1, 35, 78
3, 93000, Note_on_c, 1, 35, 0
3, 93000, Note_on_c, 1, 34, 75
3, 93120, Note_on_c, 1, 34, 0
3, 93120, Note_on_c, 1, 33, 76
3, 93240, Note_on_c, 1, 33, 0
3, 93240, Note_on_c, 1, 40, 78
3, 93360, Note_on_c, 1, 40, 0
3, 93360, Note_on_c, 1, 46, 87
3, 93440, Note_on_c, 1, 40, 43
3, 93480, Note_on_c, 1, 40, 0
3, 93480, Note_on_c, 1, 46, 0
3, 93480, Note_on_c, 1, 44, 79
3, 93600, Note_on_c, 1, 44, 0
3, 93600, Note_on_c, 1, 45, 68
3, 93640, Note_on_c, 1, 45, 0
3, 93640, Note_on_c, 1, 40, 63
3, 93680, Note_on_c, 1, 40, 0
3, 93680, Note_on_c, 1, 34, 71
3, 93720, Note_on_c, 1, 34, 0
3, 93720, Note_on_c, 1, 33, 68
3, 93840, Note_on_c, 1, 33, 0
3, 93840, Note_on_c, 1, 35, 73
3, 93920, Note_on_c, 1, 35, 0
3, 93920, Note_on_c, 1, 36, 65
3, 93960, Note_on_c, 1, 36, 0
3, 93960, Note_on_c, 1, 37, 71
3, 94080, Note_on_c, 1, 37, 0
3, 94080, Note_on_c, 1, 38, 64
3, 94160, Note_on_c, 1, 38, 0
3, 94160, Note_on_c, 1, 37, 46
3, 94200, Note_on_c, 1, 37, 0
3, 94200, Note_on_c, 1, 52, 113
3, 94320, Note_on_c, 1, 52, 0
3, 94320, Note_on_c, 1, 50, 59
3, 94440, Note_on_c, 1, 50, 0
3, 94440, Note_on_c, 1, 45, 64
3, 94520, Note_on_c, 1, 37, 49
3, 94560, Note_on_c, 1, 37, 0
3, 94560, Note_on_c, 1, 45, 0
3, 94560, Note_on_c, 1, 38, 66
3, 94680, Note_on_c, 1, 38, 0
3, 94680, Note_on_c, 1, 37, 35
3, 94680, Note_on_c, 1, 41, 64
3, 94720, Note_on_c, 1, 37, 0
3, 94800, Note_on_c, 1, 41, 0
3, 94800, Note_on_c, 1, 42, 67
3, 94920, Note_on_c, 1, 42, 0
3, 94920, Note_on_c, 1, 44, 72
3, 95040, Note_on_c, 1, 44, 0
3, 95040, Note_on_c, 1, 43, 69
3, 95120, Note_on_c, 1, 38, 53
3, 95160, Note_on_c, 1, 38, 0
3, 95160, Note_on_c, 1, 43, 0
3, 95160, Note_on_c, 1, 53, 77
3, 95280, Note_on_c, 1, 53, 0
3, 95280, Note_on_c, 1, 50, 71
3, 95360, Note_on_c, 1, 50, 0
3, 95360, Note_on_c, 1, 46, 64
3, 95400, Note_on_c, 1, 46, 0
3, 95400, Note_on_c, 1, 43, 60
3, 95440, Note_on_c, 1, 43, 0
3, 95480, Note_on_c, 1, 41, 80
3, 95520, Note_on_c, 1, 41, 0
3, 95520, Note_on_c, 1, 40, 58
3, 95560, Note_on_c, 1, 40, 0
3, 95600, Note_on_c, 1, 36, 80
3, 95640, Note_on_c, 1, 36, 0
3, 95640, Note_on_c, 1, 48, 83
3, 95760, Note_on_c, 1, 48, 0
3, 95760, Note_on_c, 1, 46, 62
3, 95840, Note_on_c, 1, 46, 0
3, 95840, Note_on_c, 1, 39, 55
3, 95880, Note_on_c, 1, 39, 0
3, 95880, Note_on_c, 1, 40, 65
3, 95960, Note_on_c, 1, 40, 0
3, 96000, Note_on_c, 1, 41, 64
3, 96120, Note_on_c, 1, 41, 0
3, 96120, Note_on_c, 1, 50, 83
3, 96240, Note_on_c, 1, 50, 0
3, 96240, Note_on_c, 1, 48, 72
3, 96360, Note_on_c, 1, 48, 0
3, 96360, Note_on_c, 1, 45, 65
3, 96400, Note_on_c, 1, 45, 0
3, 96400, Note_on_c, 1, 38, 60
3, 96440, Note_on_c, 1, 38, 0
3, 96440, Note_on_c, 1, 39, 62
3, 96480, Note_on_c, 1, 39, 0
3, 96480, Note_on_c, 1, 40, 69
3, 96560, Note_on_c, 1, 38, 43
3, 96600, Note_on_c, 1, 38, 0
3, 96600, Note_on_c, 1, 40, 0
3, 96600, Note_on_c, 1, 46, 71
3, 96720, Note_on_c, 1, 46, 0
3, 96720, Note_on_c, 1, 49, 68
3, 96760, Note_on_c, 1, 49, 0
3, 96800, Note_on_c, 1, 52, 95
3, 96880, Note_on_c, 1, 52, 0
3, 96880, Note_on_c, 1, 49, 55
3, 96920, Note_on_c, 1, 49, 0
3, 96920, Note_on_c, 1, 52, 95
3, 96960, Note_on_c, 1, 52, 0
3, 96960, Note_on_c, 1, 50, 71
3, 97000, Note_on_c, 1, 50, 0
3, 97040, Note_on_c, 1, 45, 71
3, 97080, Note_on_c, 1, 45, 0
3, 97080, Note_on_c, 1, 43, 62
3, 97200, Note_on_c, 1, 43, 0
3, 97200, Note_on_c, 1, 41, 62
3, 97280, Note_on_c, 1, 38, 53
3, 97320, Note_on_c, 1, 38, 0
3, 97320, Note_on_c, 1, 41, 0
3, 97320, Note_on_c, 1, 32, 64
3, 97440, Note_on_c, 1, 32, 0
3, 97440, Note_on_c, 1, 31, 66
3, 97560, Note_on_c, 1, 31, 0
3, 97560, Note_on_c, 1, 43, 95
3, 97680, Note_on_c, 1, 43, 0
3, 97680, Note_on_c, 1, 38, 69
3, 97800, Note_on_c, 1, 38, 0
3, 97800, Note_on_c, 1, 34, 59
3, 97920, Note_on_c, 1, 34, 0
3, 97920, Note_on_c, 1, 46, 80
3, 98040, Note_on_c, 1, 46, 0
3, 98040, Note_on_c, 1, 40, 58
3, 98080, Note_on_c, 1, 40, 0
3, 98120, Note_on_c, 1, 40, 55
3, 98160, Note_on_c, 1, 40, 0
3, 98160, Note_on_c, 1, 34, 60
3, 98280, Note_on_c, 1, 46, 74
3, 98320, Note_on_c, 1, 46, 0
3, 98320, Note_on_c, 1, 34, 0
3, 98360, Note_on_c, 1, 41, 54
3, 98400, Note_on_c, 1, 41, 0
3, 98400, Note_on_c, 1, 45, 78
3, 98520, Note_on_c, 1, 45, 0
3, 98520, Note_on_c, 1, 40, 68
3, 98640, Note_on_c, 1, 40, 0
3, 98640, Note_on_c, 1, 33, 64
3, 98720, Note_on_c, 1, 33, 0
3, 98720, Note_on_c, 1, 40, 71
3, 98760, Note_on_c, 1, 40, 0
3, 98760, Note_on_c, 1, 39, 67
3, 98840, Note_on_c, 1, 39, 0
3, 98840, Note_on_c, 1, 37, 60
3, 98880, Note_on_c, 1, 37, 0
3, 98880, Note_on_c, 1, 38, 67
3, 98960, Note_on_c, 1, 38, 0
3, 99000, Note_on_c, 1, 41, 70
3, 99080, Note_on_c, 1, 41, 0
3, 99080, Note_on_c, 1, 41, 56
3, 99120, Note_on_c, 1, 41, 0
3, 99120, Note_on_c, 1, 50, 84
3, 99240, Note_on_c, 1, 50, 0
3, 99240, Note_on_c, 1, 48, 79
3, 99320, Note_on_c, 1, 48, 0
3, 99320, Note_on_c, 1, 44, 36
3, 99360, Note_on_c, 1, 44, 0
3, 99360, Note_on_c, 1, 47, 69
3, 99480, Note_on_c, 1, 47, 0
3, 99480, Note_on_c, 1, 42, 71
3, 99600, Note_on_c, 1, 42, 0
3, 99600, Note_on_c, 1, 43, 65
3, 99680, Note_on_c, 1, 38, 58
3, 99720, Note_on_c, 1, 38, 0
3, 99720, Note_on_c, 1, 31, 74
3, 99760, Note_on_c, 1, 43, 0
3, 99800, Note_on_c, 1, 31, 0
3, 99800, Note_on_c, 1, 34, 46
3, 99840, Note_on_c, 1, 34, 0
3, 99840, Note_on_c, 1, 40, 62
3, 99840, Note_on_c, 1, 38, 67
3, 99880, Note_on_c, 1, 38, 0
3, 99920, Note_on_c, 1, 34, 35
3, 99960, Note_on_c, 1, 34, 0
3, 99960, Note_on_c, 1, 40, 0
3, 99960, Note_on_c, 1, 52, 95
3, 100080, Note_on_c, 1, 52, 0
3, 100080, Note_on_c, 1, 52, 95
3, 100200, Note_on_c, 1, 52, 0
3, 100200, Note_on_c, 1, 40, 87
3, 100320, Note_on_c, 1, 40, 0
3, 100320, Note_on_c, 1, 37, 37
3, 100320, Note_on_c, 1, 45, 87
3, 100360, Note_on_c, 1, 37, 0
3, 100440, Note_on_c, 1, 45, 0
3, 100440, Note_on_c, 1, 45, 83
3, 100560, Note_on_c, 1, 45, 0
3, 100560, Note_on_c, 1, 33, 68
3, 100600, Note_on_c, 1, 33, 0
3, 100640, Note_on_c, 1, 33, 73
3, 100680, Note_on_c, 1, 33, 0
3, 100680, Note_on_c, 1, 51, 81
3, 100760, Note_on_c, 1, 51, 0
3, 100760, Note_on_c, 1, 33, 62
3, 100800, Note_on_c, 1, 33, 0
3, 100800, Note_on_c, 1, 52, 94
3, 100880, Note_on_c, 1, 52, 0
3, 100880, Note_on_c, 1, 49, 78
3, 100920, Note_on_c, 1, 49, 0
3, 100920, Note_on_c, 1, 50, 89
3, 101120, Note_on_c, 1, 50, 0
3, 101120, Note_on_c, 1, 47, 62
3, 101160, Note_on_c, 1, 47, 0
3, 101160, Note_on_c, 1, 48, 83
3, 101240, Note_on_c, 1, 48, 0
3, 101240, Note_on_c, 1, 44, 44
3, 101280, Note_on_c, 1, 44, 0
3, 101280, Note_on_c, 1, 49, 77
3, 101360, Note_on_c, 1, 49, 0
3, 101360, Note_on_c, 1, 44, 46
3, 101400, Note_on_c, 1, 44, 0
3, 101400, Note_on_c, 1, 46, 76
3, 101520, Note_on_c, 1, 46, 0
3, 101520, Note_on_c, 1, 47, 66
3, 101600, Note_on_c, 1, 39, 56
3, 101640, Note_on_c, 1, 39, 0
3, 101640, Note_on_c, 1, 47, 0
3, 101640, Note_on_c, 1, 44, 65
3, 101720, Note_on_c, 1, 39, 35
3, 101760, Note_on_c, 1, 39, 0
3, 101760, Note_on_c, 1, 44, 0
3, 101760, Note_on_c, 1, 45, 67
3, 101800, Note_on_c, 1, 45, 0
3, 101840, Note_on_c, 1, 41, 70
3, 101880, Note_on_c, 1, 41, 0
3, 101920, Note_on_c, 1, 37, 53
3, 102000, Note_on_c, 1, 37, 0
3, 102000, Note_on_c, 1, 40, 67
3, 102120, Note_on_c, 1, 40, 0
3, 102120, Note_on_c, 1, 37, 56
3, 102120, Note_on_c, 1, 38, 79
3, 102160, Note_on_c, 1, 37, 0
3, 102240, Note_on_c, 1, 40, 69
3, 102280, Note_on_c, 1, 38, 0
3, 102360, Note_on_c, 1, 41, 74
3, 102400, Note_on_c, 1, 40, 0
3, 102480, Note_on_c, 1, 42, 76
3, 102520, Note_on_c, 1, 41, 0
3, 102600, Note_on_c, 1, 42, 0
3, 102600, Note_on_c, 1, 44, 67
3, 102640, Note_on_c, 1, 44, 0
3, 102680, Note_on_c, 1, 42, 69
3, 102720, Note_on_c, 1, 42, 0
3, 102720, Note_on_c, 1, 43, 68
3, 102800, Note_on_c, 1, 43, 0
3, 102800, Note_on_c, 1, 38, 65
3, 102840, Note_on_c, 1, 38, 0
3, 102840, Note_on_c, 1, 34, 70
3, 102960, Note_on_c, 1, 34, 0
3, 102960, Note_on_c, 1, 33, 66
3, 103080, Note_on_c, 1, 33, 0
3, 103080, Note_on_c, 1, 31, 70
3, 103160, Note_on_c, 1, 31, 0
3, 103160, Note_on_c, 1, 34, 30
3, 103160, Note_on_c, 1, 33, 24
3, 103200, Note_on_c, 1, 33, 0
3, 103200, Note_on_c, 1, 34, 0
3, 103200, Note_on_c, 1, 36, 80
3, 103280, Note_on_c, 1, 36, 0
3, 103280, Note_on_c, 1, 34, 46
3, 103320, Note_on_c, 1, 34, 0
3, 103320, Note_on_c, 1, 50, 110
3, 103440, Note_on_c, 1, 50, 0
3, 103440, Note_on_c, 1, 48, 74
3, 103520, Note_on_c, 1, 48, 0
3, 103520, Note_on_c, 1, 43, 66
3, 103560, Note_on_c, 1, 43, 0
3, 103560, Note_on_c, 1, 40, 70
3, 103680, Note_on_c, 1, 40, 0
3, 103680, Note_on_c, 1, 41, 64
3, 103760, Note_on_c, 1, 41, 0
3, 103760, Note_on_c, 1, 39, 30
3, 103800, Note_on_c, 1, 39, 0
3, 103800, Note_on_c, 1, 43, 72
3, 103920, Note_on_c, 1, 43, 0
3, 103920, Note_on_c, 1, 45, 63
3, 104040, Note_on_c, 1, 45, 0
3, 104040, Note_on_c, 1, 48, 71
3, 104160, Note_on_c, 1, 48, 0
3, 104240, Note_on_c, 1, 52, 89
3, 104280, Note_on_c, 1, 52, 0
3, 104280, Note_on_c, 1, 46, 57
3, 104360, Note_on_c, 1, 44, 30
3, 104400, Note_on_c, 1, 44, 0
3, 104400, Note_on_c, 1, 46, 0
3, 104400, Note_on_c, 1, 45, 70
3, 104480, Note_on_c, 1, 45, 0
3, 104480, Note_on_c, 1, 40, 55
3, 104520, Note_on_c, 1, 40, 0
3, 104520, Note_on_c, 1, 37, 60
3, 104640, Note_on_c, 1, 37, 0
3, 104640, Note_on_c, 1, 38, 62
3, 104760, Note_on_c, 1, 38, 0
3, 104760, Note_on_c, 1, 45, 67
3, 104880, Note_on_c, 1, 45, 0
3, 104880, Note_on_c, 1, 52, 79
3, 105000, Note_on_c, 1, 52, 0
3, 105000, Note_on_c, 1, 50, 71
3, 105200, Note_on_c, 1, 50, 0
3, 105200, Note_on_c, 1, 42, 71
3, 105200, Note_on_c, 1, 41, 40
3, 105240, Note_on_c, 1, 41, 0
3, 105240, Note_on_c, 1, 42, 0
3, 105240, Note_on_c, 1, 43, 47
3, 105320, Note_on_c, 1, 43, 0
3, 105320, Note_on_c, 1, 38, 59
3, 105360, Note_on_c, 1, 38, 0
3, 105360, Note_on_c, 1, 34, 53
3, 105480, Note_on_c, 1, 34, 0
3, 105480, Note_on_c, 1, 35, 37
3, 105560, Note_on_c, 1, 35, 0
3, 105560, Note_on_c, 1, 39, 69
3, 105600, Note_on_c, 1, 39, 0
3, 105600, Note_on_c, 1, 40, 55
3, 105680, Note_on_c, 1, 39, 50
3, 105720, Note_on_c, 1, 39, 0
3, 105720, Note_on_c, 1, 40, 0
3, 105720, Note_on_c, 1, 52, 90
3, 105840, Note_on_c, 1, 52, 0
3, 105840, Note_on_c, 1, 50, 60
3, 105960, Note_on_c, 1, 50, 0
3, 105960, Note_on_c, 1, 44, 64
3, 106080, Note_on_c, 1, 44, 0
3, 106080, Note_on_c, 1, 45, 53
3, 106160, Note_on_c, 1, 45, 0
3, 106160, Note_on_c, 1, 42, 86
3, 106200, Note_on_c, 1, 42, 0
3, 106200, Note_on_c, 1, 43, 57
3, 106240, Note_on_c, 1, 43, 0
3, 106280, Note_on_c, 1, 40, 79
3, 106320, Note_on_c, 1, 40, 0
3, 106320, Note_on_c, 1, 41, 55
3, 106360, Note_on_c, 1, 41, 0
3, 106400, Note_on_c, 1, 38, 64
3, 106440, Note_on_c, 1, 38, 0
3, 106440, Note_on_c, 1, 40, 47
3, 106480, Note_on_c, 1, 40, 0
3, 106520, Note_on_c, 1, 37, 61
3, 106560, Note_on_c, 1, 37, 0
3, 106560, Note_on_c, 1, 38, 54
3, 106640, Note_on_c, 1, 38, 0
3, 106640, Note_on_c, 1, 37, 46
3, 106680, Note_on_c, 1, 37, 0
3, 106680, Note_on_c, 1, 50, 91
3, 106840, Note_on_c, 1, 50, 0
3, 106840, Note_on_c, 1, 49, 59
3, 106880, Note_on_c, 1, 49, 0
3, 106880, Note_on_c, 1, 48, 70
3, 106920, Note_on_c, 1, 48, 0
3, 106920, Note_on_c, 1, 47, 60
3, 107000, Note_on_c, 1, 35, 53
3, 107040, Note_on_c, 1, 35, 0
3, 107040, Note_on_c, 1, 47, 0
3, 107040, Note_on_c, 1, 34, 67
3, 107120, Note_on_c, 1, 36, 64
3, 107160, Note_on_c, 1, 36, 0
3, 107160, Note_on_c, 1, 34, 0
3, 107160, Note_on_c, 1, 46, 78
3, 107280, Note_on_c, 1, 45, 70
3, 107320, Note_on_c, 1, 45, 0
3, 107320, Note_on_c, 1, 46, 0
3, 107320, Note_on_c, 1, 40, 64
3, 107360, Note_on_c, 1, 40, 0
3, 107360, Note_on_c, 1, 34, 59
3, 107400, Note_on_c, 1, 34, 0
3, 107400, Note_on_c, 1, 33, 61
3, 107440, Note_on_c, 1, 33, 0
3, 107440, Note_on_c, 1, 39, 74
3, 107480, Note_on_c, 1, 39, 0
3, 107480, Note_on_c, 1, 37, 58
3, 107520, Note_on_c, 1, 37, 0
3, 107520, Note_on_c, 1, 38, 64
3, 107600, Note_on_c, 1, 38, 0
3, 107600, Note_on_c, 1, 37, 36
3, 107640, Note_on_c, 1, 37, 0
3, 107640, Note_on_c, 1, 45, 95
3, 107840, Note_on_c, 1, 38, 50
3, 107880, Note_on_c, 1, 38, 0
3, 107880, Note_on_c, 1, 45, 0
3, 107880, Note_on_c, 1, 52, 81
3, 108000, Note_on_c, 1, 52, 0
3, 108000, Note_on_c, 1, 50, 77
3, 108080, Note_on_c, 1, 38, 50
3, 108120, Note_on_c, 1, 38, 0
3, 108120, Note_on_c, 1, 50, 0
3, 108120, Note_on_c, 1, 45, 74
3, 108320, Note_on_c, 1, 45, 0
3, 108320, Note_on_c, 1, 38, 53
3, 108360, Note_on_c, 1, 38, 0
3, 108360, Note_on_c, 1, 39, 58
3, 108440, Note_on_c, 1, 39, 0
3, 108440, Note_on_c, 1, 41, 64
3, 108480, Note_on_c, 1, 41, 0
3, 108480, Note_on_c, 1, 40, 51
3, 108680, Note_on_c, 1, 40, 0
3, 108680, Note_on_c, 1, 34, 56
3, 108720, Note_on_c, 1, 34, 0
3, 108720, Note_on_c, 1, 34, 74
3, 108880, Note_on_c, 1, 34, 0
3, 108880, Note_on_c, 1, 32, 69
3, 108920, Note_on_c, 1, 32, 0
3, 108920, Note_on_c, 1, 32, 62
3, 108960, Note_on_c, 1, 32, 0
3, 108960, Note_on_c, 1, 33, 65
3, 109120, Note_on_c, 1, 47, 46
3, 109160, Note_on_c, 1, 47, 0
3, 109160, Note_on_c, 1, 48, 72
3, 109200, Note_on_c, 1, 48, 0
3, 109200, Note_on_c, 1, 49, 72
3, 109360, Note_on_c, 1, 33, 0
3, 109400, Note_on_c, 1, 33, 60
3, 109440, Note_on_c, 1, 33, 0
3, 109440, Note_on_c, 1, 49, 0
3, 109440, Note_on_c, 1, 33, 66
3, 109560, Note_on_c, 1, 45, 53
3, 109600, Note_on_c, 1, 45, 0
3, 109640, Note_on_c, 1, 40, 20
3, 109680, Note_on_c, 1, 40, 0
3, 109680, Note_on_c, 1, 33, 0
3, 109680, Note_on_c, 1, 50, 70
3, 109760, Note_on_c, 1, 45, 54
3, 109800, Note_on_c, 1, 45, 0
3, 109840, Note_on_c, 1, 45, 53
3, 109880, Note_on_c, 1, 45, 0
3, 109880, Note_on_c, 1, 37, 63
3, 109920, Note_on_c, 1, 37, 0
3, 109920, Note_on_c, 1, 50, 0
3, 109920, Note_on_c, 1, 38, 73
3, 110120, Note_on_c, 1, 38, 0
3, 110120, Note_on_c, 1, 45, 55
3, 110160, Note_on_c, 1, 45, 0
3, 110160, Note_on_c, 1, 50, 71
3, 110240, Note_on_c, 1, 50, 0
3, 110240, Note_on_c, 1, 42, 38
3, 110280, Note_on_c, 1, 42, 0
3, 110280, Note_on_c, 1, 44, 62
3, 110360, Note_on_c, 1, 42, 25
3, 110400, Note_on_c, 1, 42, 0
3, 110400, Note_on_c, 1, 44, 0
3, 110400, Note_on_c, 1, 43, 55
3, 110560, Note_on_c, 1, 36, 57
3, 110600, Note_on_c, 1, 36, 0
3, 110600, Note_on_c, 1, 43, 0
3, 110600, Note_on_c, 1, 37, 56
3, 110640, Note_on_c, 1, 37, 0
3, 110640, Note_on_c, 1, 38, 66
3, 110720, Note_on_c, 1, 38, 0
3, 110720, Note_on_c, 1, 32, 60
3, 110760, Note_on_c, 1, 32, 0
3, 110760, Note_on_c, 1, 31, 66
3, 110960, Note_on_c, 1, 31, 0
3, 110960, Note_on_c, 1, 36, 62
3, 111000, Note_on_c, 1, 36, 0
3, 111000, Note_on_c, 1, 48, 78
3, 111120, Note_on_c, 1, 48, 0
3, 111120, Note_on_c, 1, 46, 60
3, 111280, Note_on_c, 1, 46, 0
3, 111280, Note_on_c, 1, 43, 44
3, 111320, Note_on_c, 1, 43, 0
3, 111320, Note_on_c, 1, 44, 67
3, 111360, Note_on_c, 1, 44, 0
3, 111360, Note_on_c, 1, 45, 64
3, 111440, Note_on_c, 1, 45, 0
3, 111440, Note_on_c, 1, 45, 70
3, 111440, Note_on_c, 1, 43, 70
3, 111480, Note_on_c, 1, 45, 0
3, 111560, Note_on_c, 1, 43, 0
3, 111560, Note_on_c, 1, 40, 42
3, 111600, Note_on_c, 1, 40, 0
3, 111600, Note_on_c, 1, 41, 61
3, 111760, Note_on_c, 1, 41, 0
3, 111760, Note_on_c, 1, 36, 51
3, 111800, Note_on_c, 1, 36, 0
3, 111800, Note_on_c, 1, 38, 82
3, 111840, Note_on_c, 1, 38, 0
3, 111840, Note_on_c, 1, 40, 77
3, 111960, Note_on_c, 1, 40, 0
3, 111960, Note_on_c, 1, 34, 70
3, 112080, Note_on_c, 1, 34, 0
3, 112080, Note_on_c, 1, 33, 45
3, 112120, Note_on_c, 1, 33, 0
3, 112160, Note_on_c, 1, 40, 68
3, 112200, Note_on_c, 1, 40, 0
3, 112200, Note_on_c, 1, 49, 81
3, 112280, Note_on_c, 1, 49, 0
3, 112320, Note_on_c, 1, 50, 61
3, 112400, Note_on_c, 1, 50, 0
3, 112400, Note_on_c, 1, 45, 50
3, 112440, Note_on_c, 1, 45, 0
3, 112440, Note_on_c, 1, 38, 64
3, 112600, Note_on_c, 1, 38, 0
3, 112600, Note_on_c, 1, 50, 48
3, 112640, Note_on_c, 1, 50, 0
3, 112640, Note_on_c, 1, 47, 37
3, 112640, Note_on_c, 1, 45, 44
3, 112680, Note_on_c, 1, 45, 0
3, 112680, Note_on_c, 1, 47, 0
3, 112680, Note_on_c, 1, 38, 67
3, 112680, Note_on_c, 1, 36, 73
3, 112720, Note_on_c, 1, 36, 0
3, 112720, Note_on_c, 1, 38, 0
3, 112760, Note_on_c, 1, 44, 72
3, 112800, Note_on_c, 1, 44, 0
3, 112800, Note_on_c, 1, 43, 66
3, 112840, Note_on_c, 1, 43, 0
3, 112880, Note_on_c, 1, 38, 71
3, 112920, Note_on_c, 1, 38, 0
3, 112920, Note_on_c, 1, 34, 63
3, 113080, Note_on_c, 1, 34, 0
3, 113080, Note_on_c, 1, 38, 58
3, 113120, Note_on_c, 1, 38, 0
3, 113120, Note_on_c, 1, 34, 59
3, 113160, Note_on_c, 1, 34, 0
3, 113160, Note_on_c, 1, 33, 76
3, 113240, Note_on_c, 1, 33, 0
3, 113240, Note_on_c, 1, 32, 69
3, 113280, Note_on_c, 1, 32, 0
3, 113360, Note_on_c, 1, 34, 68
3, 113400, Note_on_c, 1, 34, 0
3, 113400, Note_on_c, 1, 34, 64
3, 113480, Note_on_c, 1, 46, 85
3, 113640, Note_on_c, 1, 34, 0
3, 113720, Note_on_c, 1, 46, 0
3, 113720, Note_on_c, 1, 40, 45
3, 113760, Note_on_c, 1, 40, 0
3, 113760, Note_on_c, 1, 45, 68
3, 113960, Note_on_c, 1, 45, 0
3, 113960, Note_on_c, 1, 40, 55
3, 114000, Note_on_c, 1, 40, 0
3, 114000, Note_on_c, 1, 37, 55
3, 114200, Note_on_c, 1, 37, 0
3, 114200, Note_on_c, 1, 40, 53
3, 114240, Note_on_c, 1, 40, 0
3, 114240, Note_on_c, 1, 38, 61
3, 114360, Note_on_c, 1, 38, 0
3, 114360, Note_on_c, 1, 52, 80
3, 114360, Note_on_c, 1, 38, 14
3, 114440, Note_on_c, 1, 52, 0
3, 114480, Note_on_c, 1, 50, 67
3, 114640, Note_on_c, 1, 50, 0
3, 114640, Note_on_c, 1, 38, 0
3, 114640, Note_on_c, 1, 45, 54
3, 114680, Note_on_c, 1, 45, 0
3, 114680, Note_on_c, 1, 44, 68
3, 114720, Note_on_c, 1, 44, 0
3, 114720, Note_on_c, 1, 43, 59
3, 115000, Note_on_c, 1, 57, 58
3, 115040, Note_on_c, 1, 57, 0
3, 115040, Note_on_c, 1, 56, 65
3, 115080, Note_on_c, 1, 56, 0
3, 115080, Note_on_c, 1, 55, 71
3, 115120, Note_on_c, 1, 43, 0
3, 115400, Note_on_c, 1, 55, 0
3, 115440, Note_on_c, 1, 58, 79
3, 115640, Note_on_c, 1, 58, 0
3, 115640, Note_on_c, 1, 56, 76
3, 115680, Note_on_c, 1, 56, 0
3, 115680, Note_on_c, 1, 57, 74
3, 115720, Note_on_c, 1, 57, 0
3, 115760, Note_on_c, 1, 54, 80
3, 115800, Note_on_c, 1, 54, 0
3, 115800, Note_on_c, 1, 55, 61
3, 115880, Note_on_c, 1, 55, 0
3, 115880, Note_on_c, 1, 52, 62
3, 115920, Note_on_c, 1, 52, 0
3, 115920, Note_on_c, 1, 53, 71
3, 116000, Note_on_c, 1, 53, 0
3, 116000, Note_on_c, 1, 50, 33
3, 116040, Note_on_c, 1, 50, 0
3, 116040, Note_on_c, 1, 52, 71
3, 116240, Note_on_c, 1, 52, 0
3, 116240, Note_on_c, 1, 51, 69
3, 116280, Note_on_c, 1, 51, 0
3, 116280, Note_on_c, 1, 52, 72
3, 116360, Note_on_c, 1, 46, 73
3, 116400, Note_on_c, 1, 46, 0
3, 116400, Note_on_c, 1, 52, 0
3, 116400, Note_on_c, 1, 45, 71
3, 116480, Note_on_c, 1, 33, 88
3, 116520, Note_on_c, 1, 33, 0
3, 116520, Note_on_c, 1, 33, 71
3, 116640, Note_on_c, 1, 45, 0
3, 116680, Note_on_c, 1, 45, 60
3, 116720, Note_on_c, 1, 45, 0
3, 116720, Note_on_c, 1, 45, 71
3, 116760, Note_on_c, 1, 45, 0
3, 116760, Note_on_c, 1, 45, 84
3, 116800, Note_on_c, 1, 33, 0
3, 116800, Note_on_c, 1, 33, 70
3, 116880, Note_on_c, 1, 33, 0
3, 116880, Note_on_c, 1, 33, 76
3, 116960, Note_on_c, 1, 45, 0
3, 117000, Note_on_c, 1, 45, 90
3, 117040, Note_on_c, 1, 45, 0
3, 117040, Note_on_c, 1, 45, 95
3, 117080, Note_on_c, 1, 45, 0
3, 117120, Note_on_c, 1, 45, 92
3, 117160, Note_on_c, 1, 33, 0
3, 117200, Note_on_c, 1, 33, 75
3, 117240, Note_on_c, 1, 33, 0
3, 117240, Note_on_c, 1, 33, 81
3, 117320, Note_on_c, 1, 45, 0
3, 117400, Note_on_c, 1, 45, 71
3, 117400, Note_on_c, 1, 45, 80
3, 117440, Note_on_c, 1, 45, 0
3, 117440, Note_on_c, 1, 45, 0
3, 117480, Note_on_c, 1, 45, 105
3, 117520, Note_on_c, 1, 33, 0
3, 117560, Note_on_c, 1, 33, 80
3, 117600, Note_on_c, 1, 33, 0
3, 117600, Note_on_c, 1, 33, 71
3, 117640, Note_on_c, 1, 45, 0
3, 117800, Note_on_c, 1, 45, 69
3, 117840, Note_on_c, 1, 45, 0
3, 117840, Note_on_c, 1, 45, 67
3, 117880, Note_on_c, 1, 45, 0
3, 117920, Note_on_c, 1, 33, 0
3, 117920, Note_on_c, 1, 45, 80
3, 117960, Note_on_c, 1, 45, 0
3, 117960, Note_on_c, 1, 36, 58
3, 118040, Note_on_c, 1, 36, 0
3, 118040, Note_on_c, 1, 37, 49
3, 118080, Note_on_c, 1, 37, 0
3, 118080, Note_on_c, 1, 38, 55
3, 118160, Note_on_c, 1, 38, 0
3, 118160, Note_on_c, 1, 38, 69
3, 118200, Note_on_c, 1, 38, 0
3, 118200, Note_on_c, 1, 40, 44
3, 118360, Note_on_c, 1, 40, 0
3, 118360, Note_on_c, 1, 41, 60
3, 118400, Note_on_c, 1, 41, 0
3, 118400, Note_on_c, 1, 42, 74
3, 118440, Note_on_c, 1, 42, 0
3, 118440, Note_on_c, 1, 44, 72
3, 118480, Note_on_c, 1, 44, 0
3, 118480, Note_on_c, 1, 42, 48
3, 118520, Note_on_c, 1, 42, 0
3, 118520, Note_on_c, 1, 43, 64
3, 118600, Note_on_c, 1, 43, 0
3, 118600, Note_on_c, 1, 50, 67
3, 118640, Note_on_c, 1, 50, 0
3, 118640, Note_on_c, 1, 49, 65
3, 118680, Note_on_c, 1, 49, 0
3, 118680, Note_on_c, 1, 48, 71
3, 118760, Note_on_c, 1, 43, 51
3, 118800, Note_on_c, 1, 43, 0
3, 118800, Note_on_c, 1, 48, 0
3, 118800, Note_on_c, 1, 36, 63
3, 119000, Note_on_c, 1, 36, 0
3, 119000, Note_on_c, 1, 43, 55
3, 119040, Note_on_c, 1, 43, 0
3, 119040, Note_on_c, 1, 41, 59
3, 119240, Note_on_c, 1, 48, 53
3, 119280, Note_on_c, 1, 48, 0
3, 119280, Note_on_c, 1, 53, 94
3, 119480, Note_on_c, 1, 41, 0
3, 119480, Note_on_c, 1, 48, 40
3, 119520, Note_on_c, 1, 48, 0
3, 119520, Note_on_c, 1, 41, 40
3, 119560, Note_on_c, 1, 41, 0
3, 119600, Note_on_c, 1, 53, 0
3, 119600, Note_on_c, 1, 40, 66
3, 119680, Note_on_c, 1, 50, 45
3, 119720, Note_on_c, 1, 50, 0
3, 119720, Note_on_c, 1, 40, 0
3, 119720, Note_on_c, 1, 46, 62
3, 119760, Note_on_c, 1, 46, 0
3, 119760, Note_on_c, 1, 45, 62
3, 119920, Note_on_c, 1, 45, 0
3, 119920, Note_on_c, 1, 40, 41
3, 119960, Note_on_c, 1, 40, 0
3, 119960, Note_on_c, 1, 37, 62
3, 120000, Note_on_c, 1, 37, 0
3, 120000, Note_on_c, 1, 38, 64
3, 120240, Note_on_c, 1, 38, 0
3, 120240, Note_on_c, 1, 50, 101
3, 120240, Note_on_c, 1, 38, 51
3, 120280, Note_on_c, 1, 38, 0
3, 120360, Note_on_c, 1, 50, 0
3, 120360, Note_on_c, 1, 45, 58
3, 120400, Note_on_c, 1, 45, 0
3, 120400, Note_on_c, 1, 44, 70
3, 120440, Note_on_c, 1, 44, 0
3, 120440, Note_on_c, 1, 42, 67
3, 120480, Note_on_c, 1, 42, 0
3, 120480, Note_on_c, 1, 43, 72
3, 120720, Note_on_c, 1, 43, 0
3, 120720, Note_on_c, 1, 38, 74
3, 120960, Note_on_c, 1, 38, 0
3, 120960, Note_on_c, 1, 34, 80
3, 121200, Note_on_c, 1, 46, 95
3, 121440, Note_on_c, 1, 46, 0
3, 121440, Note_on_c, 1, 34, 0
3, 121440, Note_on_c, 1, 45, 77
3, 121680, Note_on_c, 1, 45, 0
3, 121680, Note_on_c, 1, 33, 78
3, 121880, Note_on_c, 1, 34, 37
3, 121920, Note_on_c, 1, 34, 0
3, 121920, Note_on_c, 1, 33, 0
3, 121920, Note_on_c, 1, 38, 78
3, 122080, Note_on_c, 1, 38, 0
3, 122080, Note_on_c, 1, 37, 53
3, 122120, Note_on_c, 1, 37, 0
3, 122120, Note_on_c, 1, 36, 66
3, 122160, Note_on_c, 1, 36, 0
3, 122160, Note_on_c, 1, 35, 66
3, 122400, Note_on_c, 1, 35, 0
3, 122400, Note_on_c, 1, 34, 48
3, 122520, Note_on_c, 1, 46, 81
3, 122560, Note_on_c, 1, 34, 0
3, 122600, Note_on_c, 1, 34, 45
3, 122640, Note_on_c, 1, 34, 0
3, 122640, Note_on_c, 1, 46, 0
3, 122640, Note_on_c, 1, 45, 45
3, 122680, Note_on_c, 1, 45, 0
3, 122720, Note_on_c, 1, 32, 56
3, 122760, Note_on_c, 1, 32, 0
3, 122760, Note_on_c, 1, 33, 47
3, 122800, Note_on_c, 1, 33, 0
3, 122840, Note_on_c, 1, 33, 51
3, 122880, Note_on_c, 1, 33, 0
3, 122880, Note_on_c, 1, 38, 58
3, 123800, Note_on_c, 1, 38, 0
3, 123800, Note_on_c, 1, 33, 49
3, 123840, Note_on_c, 1, 33, 0
3, 123840, Note_on_c, 1, 38, 60
3, 124440, Note_on_c, 1, 38, 0
3, 124440, End_track
4, 0, Start_track
4, 0, MIDI_port, 0
4, 0, Title_t, "dougmck@"
4, 167, Program_c, 9, 32
4, 168, Control_c, 9, 7, 100
4, 61421, Note_on_c, 9, 35, 24
4, 61434, Note_on_c, 9, 35, 0
4, 61459, Note_on_c, 9, 35, 22
4, 61487, Note_on_c, 9, 35, 0
4, 61529, Note_on_c, 9, 59, 37
4, 61548, Note_on_c, 9, 59, 0
4, 61689, Note_on_c, 9, 59, 42
4, 61836, Note_on_c, 9, 59, 0
4, 61928, Note_on_c, 9, 59, 54
4, 61940, Note_on_c, 9, 59, 0
4, 62035, Note_on_c, 9, 44, 27
4, 62042, Note_on_c, 9, 59, 71
4, 62057, Note_on_c, 9, 44, 0
4, 62265, Note_on_c, 9, 44, 48
4, 62294, Note_on_c, 9, 44, 0
4, 62306, Note_on_c, 9, 59, 0
4, 62359, Note_on_c, 9, 35, 9
4, 62371, Note_on_c, 9, 35, 0
4, 62400, Note_on_c, 9, 59, 59
4, 62404, Note_on_c, 9, 35, 1
4, 62464, Note_on_c, 9, 35, 0
4, 62560, Note_on_c, 9, 59, 0
4, 62600, Note_on_c, 9, 59, 66
4, 62605, Note_on_c, 9, 35, 4
4, 62625, Note_on_c, 9, 35, 0
4, 62640, Note_on_c, 9, 59, 0
4, 62640, Note_on_c, 9, 59, 73
4, 62650, Note_on_c, 9, 35, 8
4, 62739, Note_on_c, 9, 35, 0
4, 62800, Note_on_c, 9, 59, 0
4, 62840, Note_on_c, 9, 59, 89
4, 62844, Note_on_c, 9, 35, 21
4, 62865, Note_on_c, 9, 35, 0
4, 62920, Note_on_c, 9, 59, 0
4, 62960, Note_on_c, 9, 59, 50
4, 63000, Note_on_c, 9, 59, 0
4, 63000, Note_on_c, 9, 59, 80
4, 63090, Note_on_c, 9, 35, 11
4, 63102, Note_on_c, 9, 35, 0
4, 63132, Note_on_c, 9, 35, 11
4, 63188, Note_on_c, 9, 35, 0
4, 63200, Note_on_c, 9, 59, 0
4, 63200, Note_on_c, 9, 59, 62
4, 63240, Note_on_c, 9, 59, 0
4, 63240, Note_on_c, 9, 59, 82
4, 63324, Note_on_c, 9, 35, 21
4, 63334, Note_on_c, 9, 35, 0
4, 63363, Note_on_c, 9, 35, 27
4, 63385, Note_on_c, 9, 35, 0
4, 63440, Note_on_c, 9, 59, 0
4, 63480, Note_on_c, 9, 59, 87
4, 63564, Note_on_c, 9, 35, 18
4, 63574, Note_on_c, 9, 35, 0
4, 63601, Note_on_c, 9, 35, 15
4, 63633, Note_on_c, 9, 35, 0
4, 63680, Note_on_c, 9, 59, 0
4, 63680, Note_on_c, 9, 59, 57
4, 63720, Note_on_c, 9, 59, 0
4, 63720, Note_on_c, 9, 59, 72
4, 63800, Note_on_c, 9, 59, 0
4, 63800, Note_on_c, 9, 59, 84
4, 63801, Note_on_c, 9, 35, 21
4, 63812, Note_on_c, 9, 35, 0
4, 63845, Note_on_c, 9, 35, 18
4, 63893, Note_on_c, 9, 35, 0
4, 64000, Note_on_c, 9, 59, 0
4, 64040, Note_on_c, 9, 59, 46
4, 64042, Note_on_c, 9, 35, 19
4, 64053, Note_on_c, 9, 35, 0
4, 64080, Note_on_c, 9, 59, 0
4, 64080, Note_on_c, 9, 59, 66
4, 64093, Note_on_c, 9, 35, 1
4, 64135, Note_on_c, 9, 35, 0
4, 64160, Note_on_c, 9, 59, 0
4, 64161, Note_on_c, 9, 44, 30
4, 64169, Note_on_c, 9, 53, 72
4, 64178, Note_on_c, 9, 53, 0
4, 64183, Note_on_c, 9, 44, 0
4, 64200, Note_on_c, 9, 59, 55
4, 64211, Note_on_c, 9, 44, 28
4, 64257, Note_on_c, 9, 44, 0
4, 64280, Note_on_c, 9, 59, 0
4, 64283, Note_on_c, 9, 53, 77
4, 64285, Note_on_c, 9, 35, 26
4, 64299, Note_on_c, 9, 53, 0
4, 64303, Note_on_c, 9, 35, 0
4, 64320, Note_on_c, 9, 59, 46
4, 64398, Note_on_c, 9, 44, 34
4, 64400, Note_on_c, 9, 59, 0
4, 64425, Note_on_c, 9, 44, 0
4, 64440, Note_on_c, 9, 59, 69
4, 64516, Note_on_c, 9, 35, 16
4, 64526, Note_on_c, 9, 35, 0
4, 64568, Note_on_c, 9, 44, 23
4, 64585, Note_on_c, 9, 44, 0
4, 64600, Note_on_c, 9, 59, 0
4, 64639, Note_on_c, 9, 35, 18
4, 64640, Note_on_c, 9, 59, 52
4, 64650, Note_on_c, 9, 35, 0
4, 64680, Note_on_c, 9, 59, 0
4, 64680, Note_on_c, 9, 59, 77
4, 64683, Note_on_c, 9, 44, 32
4, 64708, Note_on_c, 9, 44, 0
4, 64755, Note_on_c, 9, 35, 15
4, 64765, Note_on_c, 9, 35, 0
4, 64800, Note_on_c, 9, 59, 0
4, 64806, Note_on_c, 9, 35, 1
4, 64821, Note_on_c, 9, 35, 0
4, 64880, Note_on_c, 9, 35, 52
4, 64880, Note_on_c, 9, 59, 65
4, 64903, Note_on_c, 9, 35, 0
4, 64920, Note_on_c, 9, 59, 0
4, 64920, Note_on_c, 9, 59, 91
4, 64923, Note_on_c, 9, 35, 36
4, 64977, Note_on_c, 9, 35, 0
4, 65040, Note_on_c, 9, 59, 0
4, 65120, Note_on_c, 9, 59, 60
4, 65160, Note_on_c, 9, 59, 0
4, 65160, Note_on_c, 9, 59, 80
4, 65320, Note_on_c, 9, 59, 0
4, 65360, Note_on_c, 9, 59, 49
4, 65400, Note_on_c, 9, 59, 0
4, 65400, Note_on_c, 9, 59, 50
4, 65480, Note_on_c, 9, 59, 0
4, 65550, Note_on_c, 9, 37, 3
4, 65558, Note_on_c, 9, 37, 0
4, 65642, Note_on_c, 9, 37, 3
4, 65651, Note_on_c, 9, 37, 0
4, 65718, Note_on_c, 9, 37, 7
4, 65720, Note_on_c, 9, 59, 52
4, 65726, Note_on_c, 9, 37, 0
4, 65760, Note_on_c, 9, 59, 0
4, 65760, Note_on_c, 9, 59, 58
4, 65796, Note_on_c, 9, 37, 25
4, 65800, Note_on_c, 9, 59, 0
4, 65812, Note_on_c, 9, 37, 0
4, 65840, Note_on_c, 9, 59, 65
4, 65880, Note_on_c, 9, 59, 0
4, 65880, Note_on_c, 9, 59, 81
4, 65891, Note_on_c, 9, 37, 28
4, 65901, Note_on_c, 9, 37, 0
4, 65920, Note_on_c, 9, 59, 0
4, 65960, Note_on_c, 9, 59, 84
4, 65973, Note_on_c, 9, 37, 26
4, 65983, Note_on_c, 9, 37, 0
4, 66000, Note_on_c, 9, 59, 0
4, 66000, Note_on_c, 9, 59, 72
4, 66000, Note_on_c, 9, 59, 0
4, 66037, Note_on_c, 9, 53, 58
4, 66045, Note_on_c, 9, 37, 27
4, 66051, Note_on_c, 9, 53, 0
4, 66060, Note_on_c, 9, 37, 0
4, 66084, Note_on_c, 9, 35, 23
4, 66103, Note_on_c, 9, 35, 0
4, 66120, Note_on_c, 9, 59, 71
4, 66132, Note_on_c, 9, 34, 40
4, 66160, Note_on_c, 9, 59, 0
4, 66164, Note_on_c, 9, 53, 66
4, 66172, Note_on_c, 9, 53, 0
4, 66186, Note_on_c, 9, 34, 0
4, 66208, Note_on_c, 9, 35, 45
4, 66229, Note_on_c, 9, 35, 0
4, 66240, Note_on_c, 9, 59, 80
4, 66249, Note_on_c, 9, 35, 30
4, 66290, Note_on_c, 9, 35, 0
4, 66320, Note_on_c, 9, 59, 0
4, 66439, Note_on_c, 9, 35, 21
4, 66440, Note_on_c, 9, 59, 60
4, 66449, Note_on_c, 9, 35, 0
4, 66480, Note_on_c, 9, 59, 0
4, 66480, Note_on_c, 9, 59, 53
4, 66560, Note_on_c, 9, 59, 0
4, 66720, Note_on_c, 9, 59, 38
4, 66760, Note_on_c, 9, 59, 0
4, 66760, Note_on_c, 9, 46, 1
4, 66800, Note_on_c, 9, 46, 0
4, 66840, Note_on_c, 9, 46, 18
4, 66840, Note_on_c, 9, 59, 62
4, 66880, Note_on_c, 9, 59, 0
4, 66880, Note_on_c, 9, 46, 0
4, 66920, Note_on_c, 9, 46, 26
4, 66920, Note_on_c, 9, 59, 69
4, 66934, Note_on_c, 9, 35, 1
4, 66943, Note_on_c, 9, 35, 0
4, 66960, Note_on_c, 9, 59, 0
4, 66960, Note_on_c, 9, 46, 0
4, 67000, Note_on_c, 9, 46, 39
4, 67000, Note_on_c, 9, 59, 80
4, 67040, Note_on_c, 9, 59, 0
4, 67040, Note_on_c, 9, 46, 0
4, 67080, Note_on_c, 9, 46, 49
4, 67080, Note_on_c, 9, 59, 84
4, 67120, Note_on_c, 9, 59, 0
4, 67120, Note_on_c, 9, 46, 0
4, 67160, Note_on_c, 9, 46, 57
4, 67160, Note_on_c, 9, 59, 90
4, 67200, Note_on_c, 9, 59, 0
4, 67200, Note_on_c, 9, 46, 0
4, 67240, Note_on_c, 9, 59, 58
4, 67280, Note_on_c, 9, 59, 0
4, 67320, Note_on_c, 9, 59, 61
4, 67360, Note_on_c, 9, 59, 0
4, 67400, Note_on_c, 9, 59, 60
4, 67440, Note_on_c, 9, 59, 0
4, 67485, Note_on_c, 9, 44, 26
4, 67498, Note_on_c, 9, 44, 0
4, 67524, Note_on_c, 9, 44, 15
4, 67533, Note_on_c, 9, 44, 0
4, 67562, Note_on_c, 9, 44, 39
4, 67577, Note_on_c, 9, 44, 0
4, 67639, Note_on_c, 9, 35, 31
4, 67640, Note_on_c, 9, 59, 61
4, 67650, Note_on_c, 9, 35, 0
4, 67680, Note_on_c, 9, 59, 0
4, 67680, Note_on_c, 9, 59, 43
4, 67682, Note_on_c, 9, 35, 30
4, 67714, Note_on_c, 9, 35, 0
4, 67720, Note_on_c, 9, 59, 0
4, 67879, Note_on_c, 9, 35, 18
4, 67880, Note_on_c, 9, 59, 53
4, 67889, Note_on_c, 9, 35, 0
4, 67920, Note_on_c, 9, 59, 0
4, 67920, Note_on_c, 9, 59, 58
4, 67960, Note_on_c, 9, 59, 0
4, 67965, Note_on_c, 9, 53, 68
4, 67977, Note_on_c, 9, 53, 0
4, 68009, Note_on_c, 9, 44, 54
4, 68038, Note_on_c, 9, 44, 0
4, 68120, Note_on_c, 9, 59, 60
4, 68160, Note_on_c, 9, 59, 0
4, 68160, Note_on_c, 9, 59, 68
4, 68200, Note_on_c, 9, 59, 0
4, 68218, Note_on_c, 9, 53, 37
4, 68227, Note_on_c, 9, 53, 0
4, 68280, Note_on_c, 9, 59, 57
4, 68320, Note_on_c, 9, 59, 0
4, 68320, Note_on_c, 9, 59, 57
4, 68348, Note_on_c, 9, 44, 36
4, 68360, Note_on_c, 9, 59, 0
4, 68364, Note_on_c, 9, 44, 0
4, 68370, Note_on_c, 9, 53, 43
4, 68384, Note_on_c, 9, 53, 0
4, 68474, Note_on_c, 9, 35, 7
4, 68480, Note_on_c, 9, 59, 62
4, 68480, Note_on_c, 9, 59, 58
4, 68486, Note_on_c, 9, 35, 0
4, 68520, Note_on_c, 9, 59, 0
4, 68520, Note_on_c, 9, 59, 0
4, 68532, Note_on_c, 9, 53, 57
4, 68541, Note_on_c, 9, 53, 0
4, 68640, Note_on_c, 9, 59, 59
4, 68680, Note_on_c, 9, 59, 0
4, 68680, Note_on_c, 9, 59, 45
4, 68708, Note_on_c, 9, 53, 65
4, 68710, Note_on_c, 9, 35, 19
4, 68720, Note_on_c, 9, 59, 0
4, 68722, Note_on_c, 9, 35, 0
4, 68728, Note_on_c, 9, 53, 0
4, 68757, Note_on_c, 9, 35, 6
4, 68772, Note_on_c, 9, 35, 0
4, 68800, Note_on_c, 9, 59, 60
4, 68833, Note_on_c, 9, 35, 27
4, 68840, Note_on_c, 9, 59, 0
4, 68840, Note_on_c, 9, 59, 61
4, 68844, Note_on_c, 9, 35, 0
4, 68865, Note_on_c, 9, 53, 60
4, 68880, Note_on_c, 9, 59, 0
4, 68885, Note_on_c, 9, 53, 0
4, 68993, Note_on_c, 9, 44, 1
4, 69000, Note_on_c, 9, 59, 66
4, 69028, Note_on_c, 9, 44, 0
4, 69028, Note_on_c, 9, 44, 3
4, 69040, Note_on_c, 9, 59, 0
4, 69043, Note_on_c, 9, 44, 0
4, 69064, Note_on_c, 9, 44, 25
4, 69077, Note_on_c, 9, 44, 0
4, 69080, Note_on_c, 9, 59, 66
4, 69120, Note_on_c, 9, 59, 0
4, 69120, Note_on_c, 9, 59, 83
4, 69172, Note_on_c, 9, 44, 19
4, 69181, Note_on_c, 9, 44, 0
4, 69200, Note_on_c, 9, 59, 0
4, 69209, Note_on_c, 9, 44, 22
4, 69231, Note_on_c, 9, 44, 0
4, 69245, Note_on_c, 9, 44, 36
4, 69257, Note_on_c, 9, 44, 0
4, 69320, Note_on_c, 9, 59, 59
4, 69360, Note_on_c, 9, 59, 0
4, 69360, Note_on_c, 9, 59, 67
4, 69440, Note_on_c, 9, 59, 0
4, 69444, Note_on_c, 9, 35, 1
4, 69456, Note_on_c, 9, 35, 0
4, 69482, Note_on_c, 9, 35, 21
4, 69519, Note_on_c, 9, 35, 0
4, 69558, Note_on_c, 9, 35, 52
4, 69596, Note_on_c, 9, 35, 0
4, 69680, Note_on_c, 9, 59, 49
4, 69720, Note_on_c, 9, 59, 0
4, 69800, Note_on_c, 9, 59, 59
4, 69803, Note_on_c, 9, 35, 26
4, 69815, Note_on_c, 9, 35, 0
4, 69840, Note_on_c, 9, 59, 0
4, 69840, Note_on_c, 9, 59, 59
4, 69880, Note_on_c, 9, 59, 0
4, 69880, Note_on_c, 9, 59, 46
4, 69920, Note_on_c, 9, 59, 0
4, 69928, Note_on_c, 9, 35, 18
4, 69931, Note_on_c, 9, 53, 51
4, 69939, Note_on_c, 9, 35, 0
4, 69940, Note_on_c, 9, 53, 0
4, 70033, Note_on_c, 9, 34, 44
4, 70055, Note_on_c, 9, 34, 0
4, 70080, Note_on_c, 9, 35, 23
4, 70080, Note_on_c, 9, 59, 65
4, 70085, Note_on_c, 9, 57, 25
4, 70085, Note_on_c, 9, 57, 0
4, 70117, Note_on_c, 9, 35, 0
4, 70120, Note_on_c, 9, 59, 0
4, 70280, Note_on_c, 9, 59, 66
4, 70286, Note_on_c, 9, 35, 16
4, 70297, Note_on_c, 9, 35, 0
4, 70320, Note_on_c, 9, 59, 0
4, 70360, Note_on_c, 9, 59, 72
4, 70365, Note_on_c, 9, 44, 7
4, 70376, Note_on_c, 9, 44, 0
4, 70400, Note_on_c, 9, 59, 0
4, 70400, Note_on_c, 9, 59, 63
4, 70407, Note_on_c, 9, 44, 12
4, 70430, Note_on_c, 9, 44, 0
4, 70440, Note_on_c, 9, 59, 0
4, 70448, Note_on_c, 9, 57, 45
4, 70449, Note_on_c, 9, 44, 39
4, 70466, Note_on_c, 9, 44, 0
4, 70471, Note_on_c, 9, 57, 0
4, 70539, Note_on_c, 9, 35, 18
4, 70549, Note_on_c, 9, 35, 0
4, 70680, Note_on_c, 9, 59, 43
4, 70720, Note_on_c, 9, 59, 0
4, 70760, Note_on_c, 9, 59, 77
4, 70800, Note_on_c, 9, 59, 0
4, 70800, Note_on_c, 9, 59, 70
4, 70808, Note_on_c, 9, 35, 22
4, 70830, Note_on_c, 9, 35, 0
4, 70880, Note_on_c, 9, 59, 0
4, 71000, Note_on_c, 9, 59, 59
4, 71004, Note_on_c, 9, 35, 2
4, 71018, Note_on_c, 9, 35, 0
4, 71040, Note_on_c, 9, 59, 0
4, 71040, Note_on_c, 9, 59, 71
4, 71120, Note_on_c, 9, 59, 0
4, 71329, Note_on_c, 9, 37, 24
4, 71347, Note_on_c, 9, 37, 0
4, 71360, Note_on_c, 9, 59, 52
4, 71371, Note_on_c, 9, 37, 18
4, 71389, Note_on_c, 9, 37, 0
4, 71400, Note_on_c, 9, 59, 0
4, 71400, Note_on_c, 9, 59, 76
4, 71417, Note_on_c, 9, 37, 40
4, 71432, Note_on_c, 9, 37, 0
4, 71480, Note_on_c, 9, 59, 0
4, 71494, Note_on_c, 9, 35, 33
4, 71514, Note_on_c, 9, 35, 0
4, 71600, Note_on_c, 9, 59, 49
4, 71640, Note_on_c, 9, 59, 0
4, 71640, Note_on_c, 9, 59, 75
4, 71720, Note_on_c, 9, 59, 0
4, 71727, Note_on_c, 9, 35, 4
4, 71739, Note_on_c, 9, 35, 0
4, 71760, Note_on_c, 9, 59, 88
4, 71763, Note_on_c, 9, 35, 21
4, 71786, Note_on_c, 9, 35, 0
4, 71840, Note_on_c, 9, 59, 0
4, 71960, Note_on_c, 9, 59, 74
4, 71967, Note_on_c, 9, 35, 3
4, 71977, Note_on_c, 9, 35, 0
4, 72000, Note_on_c, 9, 59, 0
4, 72000, Note_on_c, 9, 59, 89
4, 72003, Note_on_c, 9, 35, 13
4, 72023, Note_on_c, 9, 35, 0
4, 72080, Note_on_c, 9, 59, 0
4, 72200, Note_on_c, 9, 59, 61
4, 72240, Note_on_c, 9, 59, 0
4, 72280, Note_on_c, 9, 59, 84
4, 72296, Note_on_c, 9, 40, 5
4, 72306, Note_on_c, 9, 40, 0
4, 72320, Note_on_c, 9, 59, 0
4, 72360, Note_on_c, 9, 59, 99
4, 72373, Note_on_c, 9, 40, 1
4, 72383, Note_on_c, 9, 40, 0
4, 72400, Note_on_c, 9, 59, 0
4, 72440, Note_on_c, 9, 59, 92
4, 72480, Note_on_c, 9, 59, 0
4, 72520, Note_on_c, 9, 59, 53
4, 72560, Note_on_c, 9, 59, 0
4, 72564, Note_on_c, 9, 35, 1
4, 72573, Note_on_c, 9, 35, 0
4, 72600, Note_on_c, 9, 59, 55
4, 72613, Note_on_c, 9, 35, 20
4, 72631, Note_on_c, 9, 35, 0
4, 72640, Note_on_c, 9, 59, 0
4, 72685, Note_on_c, 9, 35, 57
4, 72720, Note_on_c, 9, 59, 46
4, 72742, Note_on_c, 9, 35, 0
4, 72760, Note_on_c, 9, 59, 0
4, 72800, Note_on_c, 9, 59, 57
4, 72840, Note_on_c, 9, 59, 0
4, 72840, Note_on_c, 9, 59, 71
4, 72880, Note_on_c, 9, 59, 0
4, 72935, Note_on_c, 9, 35, 1
4, 72950, Note_on_c, 9, 35, 0
4, 72960, Note_on_c, 9, 59, 70
4, 73004, Note_on_c, 9, 38, 1
4, 73015, Note_on_c, 9, 38, 0
4, 73040, Note_on_c, 9, 59, 0
4, 73041, Note_on_c, 9, 38, 8
4, 73051, Note_on_c, 9, 38, 0
4, 73080, Note_on_c, 9, 59, 62
4, 73090, Note_on_c, 9, 38, 1
4, 73099, Note_on_c, 9, 38, 0
4, 73156, Note_on_c, 9, 35, 34
4, 73160, Note_on_c, 9, 59, 0
4, 73175, Note_on_c, 9, 35, 0
4, 73200, Note_on_c, 9, 59, 69
4, 73207, Note_on_c, 9, 35, 20
4, 73232, Note_on_c, 9, 35, 0
4, 73240, Note_on_c, 9, 59, 0
4, 73278, Note_on_c, 9, 35, 24
4, 73280, Note_on_c, 9, 59, 53
4, 73298, Note_on_c, 9, 35, 0
4, 73320, Note_on_c, 9, 59, 0
4, 73320, Note_on_c, 9, 59, 74
4, 73400, Note_on_c, 9, 59, 0
4, 73440, Note_on_c, 9, 59, 75
4, 73514, Note_on_c, 9, 38, 31
4, 73520, Note_on_c, 9, 59, 0
4, 73520, Note_on_c, 9, 59, 51
4, 73523, Note_on_c, 9, 38, 0
4, 73560, Note_on_c, 9, 59, 0
4, 73560, Note_on_c, 9, 59, 83
4, 73568, Note_on_c, 9, 35, 1
4, 73584, Note_on_c, 9, 35, 0
4, 73634, Note_on_c, 9, 38, 14
4, 73640, Note_on_c, 9, 59, 0
4, 73648, Note_on_c, 9, 38, 0
4, 73672, Note_on_c, 9, 35, 1
4, 73680, Note_on_c, 9, 59, 74
4, 73689, Note_on_c, 9, 35, 0
4, 73753, Note_on_c, 9, 38, 20
4, 73760, Note_on_c, 9, 59, 0
4, 73762, Note_on_c, 9, 38, 0
4, 73800, Note_on_c, 9, 35, 1
4, 73800, Note_on_c, 9, 59, 76
4, 73824, Note_on_c, 9, 35, 0
4, 73871, Note_on_c, 9, 38, 30
4, 73880, Note_on_c, 9, 38, 0
4, 73880, Note_on_c, 9, 59, 0
4, 73913, Note_on_c, 9, 35, 13
4, 73920, Note_on_c, 9, 59, 57
4, 73937, Note_on_c, 9, 35, 0
4, 73993, Note_on_c, 9, 35, 17
4, 74000, Note_on_c, 9, 59, 0
4, 74007, Note_on_c, 9, 35, 0
4, 74026, Note_on_c, 9, 51, 30
4, 74038, Note_on_c, 9, 51, 0
4, 74039, Note_on_c, 9, 35, 17
4, 74056, Note_on_c, 9, 35, 0
4, 74116, Note_on_c, 9, 35, 59
4, 74148, Note_on_c, 9, 35, 0
4, 74160, Note_on_c, 9, 59, 58
4, 74200, Note_on_c, 9, 59, 0
4, 74280, Note_on_c, 9, 59, 84
4, 74360, Note_on_c, 9, 59, 0
4, 74400, Note_on_c, 9, 59, 71
4, 74480, Note_on_c, 9, 59, 0
4, 74520, Note_on_c, 9, 59, 76
4, 74560, Note_on_c, 9, 59, 0
4, 74600, Note_on_c, 9, 59, 66
4, 74607, Note_on_c, 9, 35, 10
4, 74619, Note_on_c, 9, 35, 0
4, 74640, Note_on_c, 9, 59, 0
4, 74640, Note_on_c, 9, 59, 75
4, 74720, Note_on_c, 9, 59, 0
4, 74760, Note_on_c, 9, 59, 64
4, 74840, Note_on_c, 9, 59, 0
4, 74840, Note_on_c, 9, 59, 51
4, 74850, Note_on_c, 9, 35, 7
4, 74862, Note_on_c, 9, 35, 0
4, 74880, Note_on_c, 9, 59, 0
4, 74960, Note_on_c, 9, 59, 57
4, 75000, Note_on_c, 9, 59, 0
4, 75000, Note_on_c, 9, 59, 74
4, 75034, Note_on_c, 9, 44, 39
4, 75040, Note_on_c, 9, 59, 0
4, 75040, Note_on_c, 9, 59, 80
4, 75049, Note_on_c, 9, 44, 0
4, 75080, Note_on_c, 9, 59, 0
4, 75120, Note_on_c, 9, 59, 47
4, 75127, Note_on_c, 9, 44, 39
4, 75141, Note_on_c, 9, 44, 0
4, 75160, Note_on_c, 9, 59, 0
4, 75200, Note_on_c, 9, 59, 60
4, 75209, Note_on_c, 9, 44, 34
4, 75225, Note_on_c, 9, 44, 0
4, 75240, Note_on_c, 9, 59, 0
4, 75280, Note_on_c, 9, 59, 62
4, 75283, Note_on_c, 9, 44, 41
4, 75300, Note_on_c, 9, 44, 0
4, 75311, Note_on_c, 9, 34, 31
4, 75320, Note_on_c, 9, 59, 0
4, 75320, Note_on_c, 9, 46, 13
4, 75331, Note_on_c, 9, 34, 0
4, 75360, Note_on_c, 9, 46, 0
4, 75360, Note_on_c, 9, 59, 64
4, 75364, Note_on_c, 9, 35, 38
4, 75369, Note_on_c, 9, 36, 4
4, 75378, Note_on_c, 9, 36, 0
4, 75424, Note_on_c, 9, 35, 0
4, 75436, Note_on_c, 9, 44, 24
4, 75440, Note_on_c, 9, 59, 0
4, 75449, Note_on_c, 9, 44, 0
4, 75480, Note_on_c, 9, 59, 62
4, 75520, Note_on_c, 9, 59, 0
4, 75560, Note_on_c, 9, 35, 14
4, 75560, Note_on_c, 9, 59, 61
4, 75576, Note_on_c, 9, 35, 0
4, 75600, Note_on_c, 9, 59, 0
4, 75603, Note_on_c, 9, 35, 23
4, 75633, Note_on_c, 9, 35, 0
4, 75640, Note_on_c, 9, 59, 65
4, 75680, Note_on_c, 9, 59, 0
4, 75720, Note_on_c, 9, 59, 71
4, 75760, Note_on_c, 9, 59, 0
4, 75800, Note_on_c, 9, 59, 64
4, 75802, Note_on_c, 9, 35, 15
4, 75812, Note_on_c, 9, 35, 0
4, 75838, Note_on_c, 9, 35, 26
4, 75840, Note_on_c, 9, 59, 0
4, 75840, Note_on_c, 9, 59, 62
4, 75869, Note_on_c, 9, 35, 0
4, 75880, Note_on_c, 9, 59, 0
4, 75960, Note_on_c, 9, 59, 65
4, 76000, Note_on_c, 9, 59, 0
4, 76040, Note_on_c, 9, 59, 35
4, 76050, Note_on_c, 9, 35, 1
4, 76060, Note_on_c, 9, 35, 0
4, 76080, Note_on_c, 9, 59, 0
4, 76080, Note_on_c, 9, 59, 63
4, 76083, Note_on_c, 9, 35, 13
4, 76109, Note_on_c, 9, 35, 0
4, 76160, Note_on_c, 9, 59, 0
4, 76200, Note_on_c, 9, 59, 67
4, 76240, Note_on_c, 9, 59, 0
4, 76280, Note_on_c, 9, 59, 53
4, 76284, Note_on_c, 9, 34, 9
4, 76294, Note_on_c, 9, 34, 0
4, 76320, Note_on_c, 9, 59, 0
4, 76320, Note_on_c, 9, 59, 71
4, 76350, Note_on_c, 9, 35, 22
4, 76350, Note_on_c, 9, 35, 0
4, 76400, Note_on_c, 9, 59, 0
4, 76520, Note_on_c, 9, 59, 55
4, 76526, Note_on_c, 9, 35, 16
4, 76539, Note_on_c, 9, 35, 0
4, 76560, Note_on_c, 9, 59, 0
4, 76560, Note_on_c, 9, 59, 62
4, 76600, Note_on_c, 9, 59, 0
4, 76648, Note_on_c, 9, 34, 5
4, 76659, Note_on_c, 9, 34, 0
4, 76680, Note_on_c, 9, 59, 48
4, 76720, Note_on_c, 9, 59, 0
4, 76754, Note_on_c, 9, 57, 48
4, 76760, Note_on_c, 9, 46, 29
4, 76760, Note_on_c, 9, 59, 90
4, 76789, Note_on_c, 9, 57, 0
4, 76799, Note_on_c, 9, 35, 64
4, 76800, Note_on_c, 9, 59, 0
4, 76800, Note_on_c, 9, 46, 0
4, 76824, Note_on_c, 9, 35, 0
4, 77161, Note_on_c, 9, 38, 12
4, 77194, Note_on_c, 9, 38, 0
4, 77246, Note_on_c, 9, 38, 1
4, 77258, Note_on_c, 9, 38, 0
4, 77478, Note_on_c, 9, 35, 6
4, 77489, Note_on_c, 9, 35, 0
4, 77513, Note_on_c, 9, 40, 31
4, 77583, Note_on_c, 9, 40, 0
4, 77641, Note_on_c, 9, 40, 38
4, 77659, Note_on_c, 9, 40, 0
4, 77714, Note_on_c, 9, 34, 42
4, 77718, Note_on_c, 9, 57, 40
4, 77719, Note_on_c, 9, 51, 75
4, 77720, Note_on_c, 9, 59, 55
4, 77740, Note_on_c, 9, 34, 0
4, 77758, Note_on_c, 9, 35, 40
4, 77760, Note_on_c, 9, 59, 0
4, 77761, Note_on_c, 9, 45, 35
4, 77763, Note_on_c, 9, 57, 0
4, 77832, Note_on_c, 9, 45, 0
4, 77855, Note_on_c, 9, 51, 0
4, 77890, Note_on_c, 9, 51, 88
4, 77983, Note_on_c, 9, 51, 0
4, 78008, Note_on_c, 9, 51, 71
4, 78032, Note_on_c, 9, 35, 0
4, 78085, Note_on_c, 9, 51, 0
4, 78086, Note_on_c, 9, 34, 37
4, 78104, Note_on_c, 9, 34, 0
4, 78120, Note_on_c, 9, 51, 81
4, 78130, Note_on_c, 9, 35, 9
4, 78189, Note_on_c, 9, 51, 0
4, 78190, Note_on_c, 9, 35, 0
4, 78208, Note_on_c, 9, 35, 30
4, 78209, Note_on_c, 9, 51, 53
4, 78225, Note_on_c, 9, 51, 0
4, 78225, Note_on_c, 9, 35, 0
4, 78239, Note_on_c, 9, 51, 83
4, 78325, Note_on_c, 9, 51, 0
4, 78354, Note_on_c, 9, 51, 83
4, 78430, Note_on_c, 9, 51, 0
4, 78451, Note_on_c, 9, 51, 45
4, 78465, Note_on_c, 9, 51, 0
4, 78480, Note_on_c, 9, 51, 80
4, 78566, Note_on_c, 9, 51, 0
4, 78599, Note_on_c, 9, 51, 77
4, 78681, Note_on_c, 9, 51, 0
4, 78720, Note_on_c, 9, 51, 75
4, 78803, Note_on_c, 9, 51, 0
4, 78839, Note_on_c, 9, 51, 78
4, 78893, Note_on_c, 9, 51, 0
4, 78925, Note_on_c, 9, 51, 47
4, 78934, Note_on_c, 9, 51, 0
4, 78955, Note_on_c, 9, 51, 62
4, 78957, Note_on_c, 9, 40, 3
4, 78969, Note_on_c, 9, 40, 0
4, 79030, Note_on_c, 9, 40, 12
4, 79040, Note_on_c, 9, 40, 0
4, 79041, Note_on_c, 9, 51, 0
4, 79075, Note_on_c, 9, 51, 76
4, 79087, Note_on_c, 9, 40, 30
4, 79123, Note_on_c, 9, 40, 0
4, 79152, Note_on_c, 9, 51, 0
4, 79168, Note_on_c, 9, 51, 57
4, 79182, Note_on_c, 9, 51, 0
4, 79198, Note_on_c, 9, 51, 73
4, 79207, Note_on_c, 9, 35, 6
4, 79218, Note_on_c, 9, 35, 0
4, 79273, Note_on_c, 9, 35, 32
4, 79282, Note_on_c, 9, 51, 0
4, 79287, Note_on_c, 9, 35, 0
4, 79321, Note_on_c, 9, 51, 83
4, 79328, Note_on_c, 9, 35, 18
4, 79365, Note_on_c, 9, 35, 0
4, 79389, Note_on_c, 9, 51, 0
4, 79439, Note_on_c, 9, 51, 77
4, 79457, Note_on_c, 9, 51, 0
4, 79469, Note_on_c, 9, 51, 77
4, 79489, Note_on_c, 9, 51, 0
4, 79565, Note_on_c, 9, 51, 83
4, 79643, Note_on_c, 9, 51, 0
4, 79682, Note_on_c, 9, 51, 84
4, 79757, Note_on_c, 9, 51, 0
4, 79804, Note_on_c, 9, 51, 84
4, 79880, Note_on_c, 9, 51, 0
4, 79924, Note_on_c, 9, 51, 82
4, 79959, Note_on_c, 9, 40, 20
4, 79970, Note_on_c, 9, 40, 0
4, 79986, Note_on_c, 9, 40, 29
4, 79987, Note_on_c, 9, 51, 0
4, 80000, Note_on_c, 9, 40, 0
4, 80011, Note_on_c, 9, 51, 53
4, 80029, Note_on_c, 9, 51, 0
4, 80035, Note_on_c, 9, 35, 25
4, 80039, Note_on_c, 9, 51, 74
4, 80060, Note_on_c, 9, 35, 0
4, 80127, Note_on_c, 9, 51, 0
4, 80158, Note_on_c, 9, 51, 82
4, 80245, Note_on_c, 9, 51, 0
4, 80282, Note_on_c, 9, 51, 83
4, 80353, Note_on_c, 9, 51, 0
4, 80375, Note_on_c, 9, 51, 46
4, 80393, Note_on_c, 9, 51, 0
4, 80403, Note_on_c, 9, 51, 65
4, 80496, Note_on_c, 9, 51, 0
4, 80524, Note_on_c, 9, 51, 82
4, 80527, Note_on_c, 9, 44, 1
4, 80536, Note_on_c, 9, 44, 0
4, 80590, Note_on_c, 9, 51, 0
4, 80590, Note_on_c, 9, 44, 42
4, 80612, Note_on_c, 9, 51, 44
4, 80613, Note_on_c, 9, 44, 0
4, 80631, Note_on_c, 9, 51, 0
4, 80639, Note_on_c, 9, 51, 56
4, 80677, Note_on_c, 9, 44, 31
4, 80698, Note_on_c, 9, 44, 0
4, 80730, Note_on_c, 9, 51, 0
4, 80766, Note_on_c, 9, 51, 79
4, 80768, Note_on_c, 9, 44, 39
4, 80788, Note_on_c, 9, 44, 0
4, 80838, Note_on_c, 9, 51, 0
4, 80853, Note_on_c, 9, 44, 29
4, 80859, Note_on_c, 9, 51, 37
4, 80870, Note_on_c, 9, 51, 0
4, 80874, Note_on_c, 9, 44, 0
4, 80886, Note_on_c, 9, 51, 74
4, 80928, Note_on_c, 9, 44, 29
4, 80950, Note_on_c, 9, 44, 0
4, 80954, Note_on_c, 9, 40, 30
4, 80974, Note_on_c, 9, 51, 0
4, 80981, Note_on_c, 9, 40, 0
4, 80992, Note_on_c, 9, 34, 31
4, 81006, Note_on_c, 9, 51, 80
4, 81017, Note_on_c, 9, 34, 0
4, 81031, Note_on_c, 9, 35, 25
4, 81040, Note_on_c, 9, 35, 0
4, 81085, Note_on_c, 9, 51, 0
4, 81094, Note_on_c, 9, 35, 22
4, 81104, Note_on_c, 9, 35, 0
4, 81125, Note_on_c, 9, 51, 80
4, 81203, Note_on_c, 9, 51, 0
4, 81244, Note_on_c, 9, 51, 78
4, 81307, Note_on_c, 9, 51, 0
4, 81327, Note_on_c, 9, 51, 42
4, 81346, Note_on_c, 9, 51, 0
4, 81360, Note_on_c, 9, 51, 77
4, 81451, Note_on_c, 9, 51, 0
4, 81486, Note_on_c, 9, 51, 79
4, 81552, Note_on_c, 9, 51, 0
4, 81565, Note_on_c, 9, 35, 47
4, 81574, Note_on_c, 9, 51, 44
4, 81588, Note_on_c, 9, 35, 0
4, 81592, Note_on_c, 9, 51, 0
4, 81603, Note_on_c, 9, 51, 72
4, 81604, Note_on_c, 9, 35, 31
4, 81639, Note_on_c, 9, 35, 0
4, 81684, Note_on_c, 9, 51, 0
4, 81722, Note_on_c, 9, 51, 80
4, 81807, Note_on_c, 9, 51, 0
4, 81840, Note_on_c, 9, 51, 71
4, 81910, Note_on_c, 9, 51, 0
4, 81924, Note_on_c, 9, 53, 61
4, 81946, Note_on_c, 9, 53, 0
4, 81965, Note_on_c, 9, 51, 28
4, 82057, Note_on_c, 9, 51, 0
4, 82078, Note_on_c, 9, 51, 74
4, 82175, Note_on_c, 9, 51, 0
4, 82201, Note_on_c, 9, 40, 20
4, 82206, Note_on_c, 9, 51, 77
4, 82228, Note_on_c, 9, 40, 0
4, 82238, Note_on_c, 9, 38, 10
4, 82252, Note_on_c, 9, 38, 0
4, 82276, Note_on_c, 9, 51, 0
4, 82286, Note_on_c, 9, 35, 20
4, 82292, Note_on_c, 9, 51, 54
4, 82307, Note_on_c, 9, 35, 0
4, 82309, Note_on_c, 9, 51, 0
4, 82323, Note_on_c, 9, 51, 77
4, 82416, Note_on_c, 9, 51, 0
4, 82442, Note_on_c, 9, 51, 78
4, 82516, Note_on_c, 9, 51, 0
4, 82533, Note_on_c, 9, 51, 42
4, 82549, Note_on_c, 9, 51, 0
4, 82563, Note_on_c, 9, 51, 77
4, 82619, Note_on_c, 9, 40, 25
4, 82630, Note_on_c, 9, 40, 0
4, 82651, Note_on_c, 9, 51, 0
4, 82662, Note_on_c, 9, 35, 29
4, 82681, Note_on_c, 9, 35, 0
4, 82683, Note_on_c, 9, 51, 77
4, 82756, Note_on_c, 9, 51, 0
4, 82772, Note_on_c, 9, 51, 53
4, 82789, Note_on_c, 9, 51, 0
4, 82803, Note_on_c, 9, 51, 75
4, 82894, Note_on_c, 9, 51, 0
4, 82925, Note_on_c, 9, 51, 77
4, 82999, Note_on_c, 9, 51, 0
4, 83012, Note_on_c, 9, 51, 50
4, 83030, Note_on_c, 9, 51, 0
4, 83042, Note_on_c, 9, 51, 71
4, 83089, Note_on_c, 9, 40, 18
4, 83110, Note_on_c, 9, 40, 0
4, 83137, Note_on_c, 9, 51, 0
4, 83148, Note_on_c, 9, 35, 19
4, 83162, Note_on_c, 9, 35, 0
4, 83162, Note_on_c, 9, 51, 74
4, 83253, Note_on_c, 9, 51, 0
4, 83288, Note_on_c, 9, 51, 75
4, 83309, Note_on_c, 9, 51, 0
4, 83316, Note_on_c, 9, 51, 62
4, 83368, Note_on_c, 9, 51, 0
4, 83404, Note_on_c, 9, 51, 74
4, 83466, Note_on_c, 9, 40, 25
4, 83479, Note_on_c, 9, 40, 0
4, 83485, Note_on_c, 9, 51, 0
4, 83496, Note_on_c, 9, 40, 5
4, 83498, Note_on_c, 9, 51, 62
4, 83508, Note_on_c, 9, 40, 0
4, 83513, Note_on_c, 9, 51, 0
4, 83528, Note_on_c, 9, 51, 85
4, 83534, Note_on_c, 9, 35, 13
4, 83546, Note_on_c, 9, 35, 0
4, 83625, Note_on_c, 9, 51, 0
4, 83638, Note_on_c, 9, 51, 71
4, 83716, Note_on_c, 9, 51, 0
4, 83723, Note_on_c, 9, 35, 21
4, 83732, Note_on_c, 9, 51, 71
4, 83733, Note_on_c, 9, 35, 0
4, 83751, Note_on_c, 9, 51, 0
4, 83763, Note_on_c, 9, 35, 17
4, 83763, Note_on_c, 9, 51, 78
4, 83793, Note_on_c, 9, 35, 0
4, 83856, Note_on_c, 9, 51, 0
4, 83879, Note_on_c, 9, 51, 69
4, 83966, Note_on_c, 9, 51, 0
4, 83998, Note_on_c, 9, 51, 63
4, 84060, Note_on_c, 9, 51, 0
4, 84077, Note_on_c, 9, 34, 22
4, 84086, Note_on_c, 9, 51, 61
4, 84096, Note_on_c, 9, 34, 0
4, 84103, Note_on_c, 9, 51, 0
4, 84148, Note_on_c, 9, 51, 71
4, 84204, Note_on_c, 9, 35, 19
4, 84211, Note_on_c, 9, 51, 0
4, 84215, Note_on_c, 9, 35, 0
4, 84238, Note_on_c, 9, 51, 74
4, 84323, Note_on_c, 9, 34, 24
4, 84324, Note_on_c, 9, 51, 0
4, 84340, Note_on_c, 9, 34, 0
4, 84361, Note_on_c, 9, 51, 77
4, 84372, Note_on_c, 9, 35, 1
4, 84385, Note_on_c, 9, 35, 0
4, 84424, Note_on_c, 9, 51, 0
4, 84445, Note_on_c, 9, 35, 19
4, 84448, Note_on_c, 9, 51, 36
4, 84455, Note_on_c, 9, 35, 0
4, 84465, Note_on_c, 9, 51, 0
4, 84483, Note_on_c, 9, 51, 69
4, 84562, Note_on_c, 9, 51, 0
4, 84599, Note_on_c, 9, 51, 73
4, 84675, Note_on_c, 9, 51, 0
4, 84724, Note_on_c, 9, 51, 71
4, 84811, Note_on_c, 9, 51, 0
4, 84840, Note_on_c, 9, 51, 67
4, 84912, Note_on_c, 9, 51, 0
4, 84936, Note_on_c, 9, 51, 70
4, 84958, Note_on_c, 9, 40, 28
4, 84979, Note_on_c, 9, 40, 0
4, 84989, Note_on_c, 9, 51, 0
4, 84998, Note_on_c, 9, 40, 18
4, 85012, Note_on_c, 9, 53, 64
4, 85018, Note_on_c, 9, 40, 0
4, 85035, Note_on_c, 9, 53, 0
4, 85043, Note_on_c, 9, 35, 32
4, 85053, Note_on_c, 9, 35, 0
4, 85089, Note_on_c, 9, 53, 74
4, 85094, Note_on_c, 9, 54, 33
4, 85135, Note_on_c, 9, 54, 0
4, 85136, Note_on_c, 9, 40, 38
4, 85142, Note_on_c, 9, 53, 0
4, 85155, Note_on_c, 9, 40, 0
4, 85164, Note_on_c, 9, 51, 71
4, 85169, Note_on_c, 9, 40, 36
4, 85186, Note_on_c, 9, 40, 0
4, 85199, Note_on_c, 9, 51, 0
4, 85215, Note_on_c, 9, 35, 28
4, 85237, Note_on_c, 9, 51, 69
4, 85240, Note_on_c, 9, 35, 0
4, 85275, Note_on_c, 9, 51, 0
4, 85298, Note_on_c, 9, 35, 1
4, 85319, Note_on_c, 9, 57, 62
4, 85320, Note_on_c, 9, 51, 60
4, 85321, Note_on_c, 9, 35, 0
4, 85326, Note_on_c, 9, 40, 27
4, 85338, Note_on_c, 9, 40, 0
4, 85346, Note_on_c, 9, 57, 0
4, 85358, Note_on_c, 9, 51, 0
4, 85363, Note_on_c, 9, 40, 37
4, 85381, Note_on_c, 9, 40, 0
4, 85407, Note_on_c, 9, 35, 49
4, 85411, Note_on_c, 9, 51, 82
4, 85443, Note_on_c, 9, 51, 0
4, 85461, Note_on_c, 9, 35, 0
4, 85483, Note_on_c, 9, 51, 67
4, 85485, Note_on_c, 9, 40, 38
4, 85506, Note_on_c, 9, 40, 0
4, 85516, Note_on_c, 9, 51, 0
4, 85524, Note_on_c, 9, 40, 40
4, 85542, Note_on_c, 9, 40, 0
4, 85566, Note_on_c, 9, 35, 32
4, 85570, Note_on_c, 9, 51, 78
4, 85613, Note_on_c, 9, 51, 0
4, 85618, Note_on_c, 9, 35, 0
4, 85651, Note_on_c, 9, 51, 61
4, 85671, Note_on_c, 9, 51, 0
4, 85691, Note_on_c, 9, 51, 58
4, 85772, Note_on_c, 9, 51, 0
4, 85808, Note_on_c, 9, 51, 70
4, 85851, Note_on_c, 9, 51, 0
4, 85896, Note_on_c, 9, 51, 52
4, 85913, Note_on_c, 9, 51, 0
4, 85929, Note_on_c, 9, 51, 73
4, 86020, Note_on_c, 9, 51, 0
4, 86055, Note_on_c, 9, 51, 76
4, 86121, Note_on_c, 9, 51, 0
4, 86137, Note_on_c, 9, 51, 57
4, 86155, Note_on_c, 9, 51, 0
4, 86170, Note_on_c, 9, 51, 65
4, 86220, Note_on_c, 9, 40, 17
4, 86231, Note_on_c, 9, 40, 0
4, 86252, Note_on_c, 9, 38, 11
4, 86256, Note_on_c, 9, 51, 0
4, 86263, Note_on_c, 9, 38, 0
4, 86284, Note_on_c, 9, 51, 77
4, 86290, Note_on_c, 9, 35, 18
4, 86322, Note_on_c, 9, 35, 0
4, 86349, Note_on_c, 9, 51, 0
4, 86368, Note_on_c, 9, 51, 50
4, 86387, Note_on_c, 9, 51, 0
4, 86417, Note_on_c, 9, 51, 59
4, 86537, Note_on_c, 9, 51, 0
4, 86537, Note_on_c, 9, 51, 75
4, 86657, Note_on_c, 9, 51, 0
4, 86657, Note_on_c, 9, 35, 14
4, 86657, Note_on_c, 9, 35, 13
4, 86657, Note_on_c, 9, 51, 73
4, 86777, Note_on_c, 9, 51, 0
4, 86777, Note_on_c, 9, 35, 0
4, 86777, Note_on_c, 9, 35, 0
4, 86777, Note_on_c, 9, 51, 71
4, 86875, Note_on_c, 9, 51, 74
4, 86897, Note_on_c, 9, 51, 0
4, 86948, Note_on_c, 9, 51, 0
4, 86995, Note_on_c, 9, 51, 73
4, 87042, Note_on_c, 9, 35, 11
4, 87051, Note_on_c, 9, 51, 0
4, 87053, Note_on_c, 9, 35, 0
4, 87080, Note_on_c, 9, 51, 44
4, 87098, Note_on_c, 9, 51, 0
4, 87113, Note_on_c, 9, 51, 67
4, 87128, Note_on_c, 9, 35, 13
4, 87139, Note_on_c, 9, 35, 0
4, 87187, Note_on_c, 9, 51, 0
4, 87213, Note_on_c, 9, 35, 23
4, 87224, Note_on_c, 9, 35, 0
4, 87228, Note_on_c, 9, 51, 76
4, 87295, Note_on_c, 9, 51, 0
4, 87325, Note_on_c, 9, 51, 44
4, 87335, Note_on_c, 9, 51, 0
4, 87377, Note_on_c, 9, 51, 57
4, 87497, Note_on_c, 9, 51, 0
4, 87497, Note_on_c, 9, 51, 77
4, 87617, Note_on_c, 9, 51, 0
4, 87617, Note_on_c, 9, 51, 77
4, 87737, Note_on_c, 9, 51, 0
4, 87737, Note_on_c, 9, 51, 76
4, 87814, Note_on_c, 9, 51, 52
4, 87816, Note_on_c, 9, 35, 1
4, 87830, Note_on_c, 9, 51, 0
4, 87831, Note_on_c, 9, 35, 0
4, 87842, Note_on_c, 9, 51, 59
4, 87857, Note_on_c, 9, 51, 0
4, 87885, Note_on_c, 9, 44, 5
4, 87896, Note_on_c, 9, 44, 0
4, 87918, Note_on_c, 9, 51, 0
4, 87960, Note_on_c, 9, 51, 74
4, 87971, Note_on_c, 9, 44, 27
4, 87980, Note_on_c, 9, 44, 0
4, 88016, Note_on_c, 9, 51, 0
4, 88050, Note_on_c, 9, 44, 47
4, 88065, Note_on_c, 9, 44, 0
4, 88085, Note_on_c, 9, 51, 69
4, 88121, Note_on_c, 9, 35, 31
4, 88134, Note_on_c, 9, 51, 0
4, 88147, Note_on_c, 9, 35, 0
4, 88203, Note_on_c, 9, 51, 75
4, 88207, Note_on_c, 9, 35, 36
4, 88236, Note_on_c, 9, 35, 0
4, 88246, Note_on_c, 9, 51, 0
4, 88287, Note_on_c, 9, 35, 46
4, 88294, Note_on_c, 9, 51, 38
4, 88303, Note_on_c, 9, 51, 0
4, 88321, Note_on_c, 9, 35, 0
4, 88322, Note_on_c, 9, 51, 64
4, 88384, Note_on_c, 9, 51, 0
4, 88432, Note_on_c, 9, 51, 76
4, 88445, Note_on_c, 9, 44, 46
4, 88492, Note_on_c, 9, 44, 0
4, 88492, Note_on_c, 9, 51, 0
4, 88550, Note_on_c, 9, 51, 71
4, 88616, Note_on_c, 9, 51, 0
4, 88686, Note_on_c, 9, 51, 76
4, 88725, Note_on_c, 9, 51, 0
4, 88764, Note_on_c, 9, 51, 56
4, 88769, Note_on_c, 9, 35, 1
4, 88778, Note_on_c, 9, 51, 0
4, 88779, Note_on_c, 9, 35, 0
4, 88797, Note_on_c, 9, 51, 57
4, 88863, Note_on_c, 9, 51, 0
4, 88885, Note_on_c, 9, 35, 8
4, 88897, Note_on_c, 9, 35, 0
4, 88917, Note_on_c, 9, 51, 83
4, 88924, Note_on_c, 9, 44, 56
4, 88957, Note_on_c, 9, 51, 0
4, 88978, Note_on_c, 9, 44, 0
4, 89009, Note_on_c, 9, 51, 52
4, 89021, Note_on_c, 9, 51, 0
4, 89040, Note_on_c, 9, 51, 69
4, 89111, Note_on_c, 9, 51, 0
4, 89121, Note_on_c, 9, 35, 16
4, 89130, Note_on_c, 9, 35, 0
4, 89158, Note_on_c, 9, 44, 49
4, 89162, Note_on_c, 9, 51, 84
4, 89201, Note_on_c, 9, 51, 0
4, 89204, Note_on_c, 9, 44, 0
4, 89237, Note_on_c, 9, 44, 43
4, 89252, Note_on_c, 9, 51, 55
4, 89264, Note_on_c, 9, 44, 0
4, 89267, Note_on_c, 9, 51, 0
4, 89283, Note_on_c, 9, 51, 72
4, 89352, Note_on_c, 9, 51, 0
4, 89403, Note_on_c, 9, 51, 82
4, 89404, Note_on_c, 9, 35, 29
4, 89429, Note_on_c, 9, 35, 0
4, 89470, Note_on_c, 9, 51, 0
4, 89527, Note_on_c, 9, 51, 77
4, 89571, Note_on_c, 9, 51, 0
4, 89612, Note_on_c, 9, 51, 51
4, 89621, Note_on_c, 9, 51, 0
4, 89643, Note_on_c, 9, 51, 73
4, 89723, Note_on_c, 9, 51, 0
4, 89759, Note_on_c, 9, 51, 78
4, 89825, Note_on_c, 9, 51, 0
4, 89875, Note_on_c, 9, 51, 78
4, 89879, Note_on_c, 9, 44, 50
4, 89920, Note_on_c, 9, 51, 0
4, 89950, Note_on_c, 9, 44, 0
4, 89965, Note_on_c, 9, 51, 60
4, 89982, Note_on_c, 9, 51, 0
4, 89996, Note_on_c, 9, 51, 76
4, 90075, Note_on_c, 9, 51, 0
4, 90114, Note_on_c, 9, 51, 78
4, 90123, Note_on_c, 9, 44, 41
4, 90136, Note_on_c, 9, 44, 0
4, 90178, Note_on_c, 9, 51, 0
4, 90193, Note_on_c, 9, 35, 33
4, 90210, Note_on_c, 9, 35, 0
4, 90236, Note_on_c, 9, 51, 88
4, 90293, Note_on_c, 9, 51, 0
4, 90331, Note_on_c, 9, 51, 44
4, 90341, Note_on_c, 9, 51, 0
4, 90361, Note_on_c, 9, 51, 49
4, 90383, Note_on_c, 9, 51, 0
4, 90453, Note_on_c, 9, 51, 84
4, 90466, Note_on_c, 9, 51, 0
4, 90483, Note_on_c, 9, 51, 71
4, 90563, Note_on_c, 9, 40, 30
4, 90573, Note_on_c, 9, 51, 0
4, 90584, Note_on_c, 9, 40, 0
4, 90606, Note_on_c, 9, 51, 49
4, 90609, Note_on_c, 9, 35, 5
4, 90626, Note_on_c, 9, 35, 0
4, 90644, Note_on_c, 9, 51, 0
4, 90685, Note_on_c, 9, 40, 22
4, 90686, Note_on_c, 9, 51, 78
4, 90694, Note_on_c, 9, 40, 0
4, 90706, Note_on_c, 9, 51, 0
4, 90725, Note_on_c, 9, 35, 1
4, 90725, Note_on_c, 9, 51, 67
4, 90740, Note_on_c, 9, 35, 0
4, 90805, Note_on_c, 9, 51, 0
4, 90840, Note_on_c, 9, 51, 69
4, 90891, Note_on_c, 9, 51, 0
4, 90931, Note_on_c, 9, 51, 78
4, 90973, Note_on_c, 9, 51, 0
4, 91008, Note_on_c, 9, 51, 48
4, 91009, Note_on_c, 9, 40, 11
4, 91018, Note_on_c, 9, 51, 0
4, 91025, Note_on_c, 9, 40, 0
4, 91040, Note_on_c, 9, 40, 13
4, 91049, Note_on_c, 9, 51, 75
4, 91057, Note_on_c, 9, 40, 0
4, 91071, Note_on_c, 9, 51, 0
4, 91083, Note_on_c, 9, 35, 21
4, 91088, Note_on_c, 9, 51, 59
4, 91111, Note_on_c, 9, 35, 0
4, 91149, Note_on_c, 9, 51, 0
4, 91207, Note_on_c, 9, 51, 34
4, 91208, Note_on_c, 9, 40, 18
4, 91219, Note_on_c, 9, 51, 0
4, 91231, Note_on_c, 9, 40, 0
4, 91251, Note_on_c, 9, 51, 37
4, 91252, Note_on_c, 9, 40, 29
4, 91262, Note_on_c, 9, 51, 0
4, 91274, Note_on_c, 9, 40, 0
4, 91289, Note_on_c, 9, 51, 79
4, 91299, Note_on_c, 9, 35, 19
4, 91313, Note_on_c, 9, 35, 0
4, 91347, Note_on_c, 9, 51, 0
4, 91390, Note_on_c, 9, 40, 19
4, 91401, Note_on_c, 9, 40, 0
4, 91406, Note_on_c, 9, 51, 46
4, 91422, Note_on_c, 9, 51, 0
4, 91425, Note_on_c, 9, 40, 12
4, 91435, Note_on_c, 9, 40, 0
4, 91453, Note_on_c, 9, 51, 77
4, 91462, Note_on_c, 9, 35, 23
4, 91491, Note_on_c, 9, 35, 0
4, 91531, Note_on_c, 9, 51, 0
4, 91561, Note_on_c, 9, 40, 28
4, 91566, Note_on_c, 9, 51, 28
4, 91580, Note_on_c, 9, 40, 0
4, 91589, Note_on_c, 9, 51, 0
4, 91606, Note_on_c, 9, 40, 15
4, 91617, Note_on_c, 9, 40, 0
4, 91647, Note_on_c, 9, 51, 60
4, 91656, Note_on_c, 9, 35, 26
4, 91665, Note_on_c, 9, 51, 0
4, 91677, Note_on_c, 9, 35, 0
4, 91692, Note_on_c, 9, 51, 52
4, 91731, Note_on_c, 9, 51, 0
4, 91740, Note_on_c, 9, 40, 29
4, 91748, Note_on_c, 9, 40, 0
4, 91772, Note_on_c, 9, 51, 42
4, 91773, Note_on_c, 9, 40, 31
4, 91780, Note_on_c, 9, 51, 0
4, 91784, Note_on_c, 9, 40, 0
4, 91810, Note_on_c, 9, 51, 39
4, 91813, Note_on_c, 9, 40, 26
4, 91819, Note_on_c, 9, 51, 0
4, 91826, Note_on_c, 9, 40, 0
4, 91888, Note_on_c, 9, 51, 90
4, 91901, Note_on_c, 9, 40, 36
4, 91910, Note_on_c, 9, 51, 0
4, 91911, Note_on_c, 9, 40, 0
4, 91932, Note_on_c, 9, 51, 49
4, 91991, Note_on_c, 9, 40, 42
4, 91994, Note_on_c, 9, 51, 0
4, 92008, Note_on_c, 9, 40, 0
4, 92054, Note_on_c, 9, 51, 76
4, 92065, Note_on_c, 9, 40, 31
4, 92079, Note_on_c, 9, 40, 0
4, 92092, Note_on_c, 9, 51, 0
4, 92135, Note_on_c, 9, 34, 24
4, 92135, Note_on_c, 9, 51, 48
4, 92145, Note_on_c, 9, 51, 0
4, 92151, Note_on_c, 9, 34, 0
4, 92172, Note_on_c, 9, 51, 80
4, 92174, Note_on_c, 9, 35, 34
4, 92174, Note_on_c, 9, 53, 75
4, 92178, Note_on_c, 9, 54, 39
4, 92187, Note_on_c, 9, 54, 0
4, 92204, Note_on_c, 9, 35, 0
4, 92208, Note_on_c, 9, 53, 0
4, 92208, Note_on_c, 9, 51, 0
4, 92482, Note_on_c, 9, 35, 28
4, 92486, Note_on_c, 9, 51, 55
4, 92494, Note_on_c, 9, 35, 0
4, 92495, Note_on_c, 9, 51, 0
4, 92518, Note_on_c, 9, 35, 30
4, 92526, Note_on_c, 9, 51, 74
4, 92549, Note_on_c, 9, 35, 0
4, 92576, Note_on_c, 9, 51, 0
4, 92964, Note_on_c, 9, 51, 80
4, 92985, Note_on_c, 9, 51, 0
4, 93000, Note_on_c, 9, 59, 95
4, 93080, Note_on_c, 9, 59, 0
4, 93086, Note_on_c, 9, 35, 19
4, 93097, Note_on_c, 9, 35, 0
4, 93120, Note_on_c, 9, 46, 26
4, 93120, Note_on_c, 9, 59, 82
4, 93124, Note_on_c, 9, 35, 25
4, 93163, Note_on_c, 9, 35, 0
4, 93200, Note_on_c, 9, 59, 0
4, 93200, Note_on_c, 9, 46, 0
4, 93240, Note_on_c, 9, 46, 13
4, 93240, Note_on_c, 9, 59, 78
4, 93320, Note_on_c, 9, 59, 0
4, 93320, Note_on_c, 9, 46, 0
4, 93360, Note_on_c, 9, 46, 21
4, 93360, Note_on_c, 9, 59, 68
4, 93440, Note_on_c, 9, 59, 0
4, 93440, Note_on_c, 9, 46, 0
4, 93480, Note_on_c, 9, 46, 18
4, 93480, Note_on_c, 9, 59, 74
4, 93482, Note_on_c, 9, 37, 63
4, 93520, Note_on_c, 9, 37, 0
4, 93560, Note_on_c, 9, 59, 0
4, 93560, Note_on_c, 9, 46, 0
4, 93560, Note_on_c, 9, 59, 62
4, 93600, Note_on_c, 9, 59, 0
4, 93600, Note_on_c, 9, 46, 20
4, 93600, Note_on_c, 9, 59, 72
4, 93608, Note_on_c, 9, 35, 11
4, 93651, Note_on_c, 9, 35, 0
4, 93680, Note_on_c, 9, 59, 0
4, 93720, Note_on_c, 9, 46, 0
4, 93720, Note_on_c, 9, 46, 16
4, 93720, Note_on_c, 9, 59, 68
4, 93800, Note_on_c, 9, 59, 0
4, 93840, Note_on_c, 9, 46, 0
4, 93840, Note_on_c, 9, 46, 15
4, 93840, Note_on_c, 9, 59, 60
4, 93920, Note_on_c, 9, 59, 0
4, 93920, Note_on_c, 9, 46, 0
4, 93927, Note_on_c, 9, 35, 4
4, 93937, Note_on_c, 9, 35, 0
4, 93960, Note_on_c, 9, 46, 19
4, 93960, Note_on_c, 9, 59, 68
4, 93962, Note_on_c, 9, 37, 67
4, 94028, Note_on_c, 9, 37, 0
4, 94040, Note_on_c, 9, 59, 0
4, 94040, Note_on_c, 9, 46, 0
4, 94040, Note_on_c, 9, 46, 26
4, 94040, Note_on_c, 9, 59, 62
4, 94080, Note_on_c, 9, 59, 0
4, 94080, Note_on_c, 9, 46, 0
4, 94080, Note_on_c, 9, 46, 31
4, 94080, Note_on_c, 9, 59, 69
4, 94109, Note_on_c, 9, 39, 1
4, 94125, Note_on_c, 9, 39, 0
4, 94160, Note_on_c, 9, 59, 0
4, 94160, Note_on_c, 9, 46, 0
4, 94167, Note_on_c, 9, 35, 12
4, 94177, Note_on_c, 9, 35, 0
4, 94200, Note_on_c, 9, 46, 20
4, 94200, Note_on_c, 9, 59, 64
4, 94280, Note_on_c, 9, 59, 0
4, 94280, Note_on_c, 9, 46, 0
4, 94320, Note_on_c, 9, 46, 22
4, 94320, Note_on_c, 9, 59, 65
4, 94400, Note_on_c, 9, 59, 0
4, 94400, Note_on_c, 9, 46, 0
4, 94439, Note_on_c, 9, 37, 60
4, 94440, Note_on_c, 9, 46, 17
4, 94440, Note_on_c, 9, 59, 68
4, 94492, Note_on_c, 9, 37, 0
4, 94520, Note_on_c, 9, 59, 0
4, 94520, Note_on_c, 9, 46, 0
4, 94520, Note_on_c, 9, 59, 64
4, 94560, Note_on_c, 9, 59, 0
4, 94560, Note_on_c, 9, 46, 1
4, 94560, Note_on_c, 9, 46, 21
4, 94560, Note_on_c, 9, 59, 64
4, 94600, Note_on_c, 9, 46, 0
4, 94640, Note_on_c, 9, 59, 0
4, 94640, Note_on_c, 9, 46, 0
4, 94680, Note_on_c, 9, 46, 32
4, 94680, Note_on_c, 9, 59, 68
4, 94760, Note_on_c, 9, 59, 0
4, 94760, Note_on_c, 9, 46, 0
4, 94800, Note_on_c, 9, 46, 28
4, 94800, Note_on_c, 9, 59, 71
4, 94880, Note_on_c, 9, 59, 0
4, 94880, Note_on_c, 9, 46, 0
4, 94920, Note_on_c, 9, 46, 29
4, 94920, Note_on_c, 9, 59, 70
4, 95000, Note_on_c, 9, 59, 0
4, 95000, Note_on_c, 9, 46, 0
4, 95002, Note_on_c, 9, 35, 52
4, 95019, Note_on_c, 9, 35, 0
4, 95040, Note_on_c, 9, 46, 27
4, 95040, Note_on_c, 9, 59, 66
4, 95043, Note_on_c, 9, 37, 6
4, 95058, Note_on_c, 9, 37, 0
4, 95120, Note_on_c, 9, 59, 0
4, 95120, Note_on_c, 9, 46, 0
4, 95160, Note_on_c, 9, 46, 34
4, 95160, Note_on_c, 9, 59, 71
4, 95240, Note_on_c, 9, 59, 0
4, 95240, Note_on_c, 9, 46, 0
4, 95280, Note_on_c, 9, 46, 19
4, 95280, Note_on_c, 9, 59, 60
4, 95360, Note_on_c, 9, 59, 0
4, 95360, Note_on_c, 9, 46, 0
4, 95370, Note_on_c, 9, 35, 5
4, 95380, Note_on_c, 9, 35, 0
4, 95400, Note_on_c, 9, 46, 23
4, 95400, Note_on_c, 9, 59, 72
4, 95440, Note_on_c, 9, 59, 0
4, 95440, Note_on_c, 9, 37, 55
4, 95452, Note_on_c, 9, 37, 0
4, 95480, Note_on_c, 9, 46, 0
4, 95480, Note_on_c, 9, 46, 17
4, 95480, Note_on_c, 9, 59, 48
4, 95520, Note_on_c, 9, 59, 0
4, 95520, Note_on_c, 9, 46, 0
4, 95520, Note_on_c, 9, 46, 29
4, 95520, Note_on_c, 9, 59, 64
4, 95600, Note_on_c, 9, 59, 0
4, 95600, Note_on_c, 9, 46, 0
4, 95640, Note_on_c, 9, 46, 29
4, 95640, Note_on_c, 9, 59, 71
4, 95720, Note_on_c, 9, 59, 0
4, 95720, Note_on_c, 9, 46, 0
4, 95720, Note_on_c, 9, 35, 10
4, 95731, Note_on_c, 9, 35, 0
4, 95751, Note_on_c, 9, 35, 26
4, 95760, Note_on_c, 9, 46, 25
4, 95760, Note_on_c, 9, 59, 71
4, 95812, Note_on_c, 9, 35, 0
4, 95840, Note_on_c, 9, 59, 0
4, 95840, Note_on_c, 9, 46, 0
4, 95880, Note_on_c, 9, 46, 27
4, 95880, Note_on_c, 9, 59, 67
4, 95920, Note_on_c, 9, 59, 0
4, 95920, Note_on_c, 9, 46, 0
4, 95960, Note_on_c, 9, 59, 55
4, 96000, Note_on_c, 9, 59, 0
4, 96000, Note_on_c, 9, 46, 32
4, 96000, Note_on_c, 9, 59, 68
4, 96080, Note_on_c, 9, 59, 0
4, 96080, Note_on_c, 9, 46, 0
4, 96120, Note_on_c, 9, 46, 32
4, 96120, Note_on_c, 9, 59, 72
4, 96125, Note_on_c, 9, 37, 64
4, 96174, Note_on_c, 9, 37, 0
4, 96200, Note_on_c, 9, 59, 0
4, 96200, Note_on_c, 9, 46, 0
4, 96240, Note_on_c, 9, 46, 27
4, 96240, Note_on_c, 9, 59, 68
4, 96320, Note_on_c, 9, 59, 0
4, 96320, Note_on_c, 9, 46, 0
4, 96360, Note_on_c, 9, 46, 23
4, 96360, Note_on_c, 9, 59, 65
4, 96400, Note_on_c, 9, 59, 0
4, 96400, Note_on_c, 9, 46, 0
4, 96440, Note_on_c, 9, 59, 62
4, 96480, Note_on_c, 9, 59, 0
4, 96480, Note_on_c, 9, 46, 33
4, 96480, Note_on_c, 9, 59, 66
4, 96560, Note_on_c, 9, 59, 0
4, 96560, Note_on_c, 9, 46, 0
4, 96600, Note_on_c, 9, 46, 26
4, 96600, Note_on_c, 9, 59, 67
4, 96680, Note_on_c, 9, 59, 0
4, 96680, Note_on_c, 9, 46, 0
4, 96680, Note_on_c, 9, 59, 72
4, 96720, Note_on_c, 9, 59, 0
4, 96720, Note_on_c, 9, 46, 43
4, 96720, Note_on_c, 9, 59, 80
4, 96800, Note_on_c, 9, 59, 0
4, 96800, Note_on_c, 9, 46, 0
4, 96836, Note_on_c, 9, 37, 67
4, 96840, Note_on_c, 9, 46, 20
4, 96840, Note_on_c, 9, 59, 71
4, 96880, Note_on_c, 9, 59, 0
4, 96894, Note_on_c, 9, 37, 0
4, 96920, Note_on_c, 9, 46, 0
4, 96959, Note_on_c, 9, 35, 2
4, 96960, Note_on_c, 9, 46, 27
4, 96960, Note_on_c, 9, 59, 68
4, 96974, Note_on_c, 9, 35, 0
4, 97040, Note_on_c, 9, 59, 0
4, 97040, Note_on_c, 9, 46, 0
4, 97080, Note_on_c, 9, 46, 23
4, 97080, Note_on_c, 9, 59, 62
4, 97120, Note_on_c, 9, 59, 0
4, 97160, Note_on_c, 9, 46, 0
4, 97160, Note_on_c, 9, 46, 30
4, 97160, Note_on_c, 9, 59, 69
4, 97200, Note_on_c, 9, 59, 0
4, 97200, Note_on_c, 9, 46, 0
4, 97200, Note_on_c, 9, 46, 29
4, 97200, Note_on_c, 9, 59, 68
4, 97206, Note_on_c, 9, 35, 26
4, 97259, Note_on_c, 9, 35, 0
4, 97280, Note_on_c, 9, 59, 0
4, 97280, Note_on_c, 9, 46, 0
4, 97281, Note_on_c, 9, 35, 12
4, 97294, Note_on_c, 9, 35, 0
4, 97320, Note_on_c, 9, 46, 23
4, 97320, Note_on_c, 9, 59, 63
4, 97400, Note_on_c, 9, 59, 0
4, 97400, Note_on_c, 9, 46, 0
4, 97440, Note_on_c, 9, 46, 29
4, 97440, Note_on_c, 9, 59, 66
4, 97520, Note_on_c, 9, 59, 0
4, 97520, Note_on_c, 9, 46, 0
4, 97560, Note_on_c, 9, 46, 18
4, 97560, Note_on_c, 9, 59, 63
4, 97640, Note_on_c, 9, 59, 0
4, 97640, Note_on_c, 9, 46, 0
4, 97680, Note_on_c, 9, 46, 12
4, 97680, Note_on_c, 9, 59, 26
4, 97720, Note_on_c, 9, 59, 0
4, 97720, Note_on_c, 9, 46, 0
4, 97720, Note_on_c, 9, 46, 38
4, 97720, Note_on_c, 9, 59, 80
4, 97761, Note_on_c, 9, 35, 7
4, 97773, Note_on_c, 9, 35, 0
4, 97800, Note_on_c, 9, 59, 0
4, 97800, Note_on_c, 9, 46, 0
4, 97800, Note_on_c, 9, 46, 22
4, 97800, Note_on_c, 9, 59, 62
4, 97802, Note_on_c, 9, 37, 63
4, 97840, Note_on_c, 9, 59, 0
4, 97847, Note_on_c, 9, 37, 0
4, 97880, Note_on_c, 9, 46, 0
4, 97880, Note_on_c, 9, 46, 47
4, 97880, Note_on_c, 9, 59, 85
4, 97903, Note_on_c, 9, 35, 1
4, 97914, Note_on_c, 9, 35, 0
4, 98000, Note_on_c, 9, 59, 0
4, 98000, Note_on_c, 9, 46, 0
4, 98000, Note_on_c, 9, 59, 56
4, 98005, Note_on_c, 9, 35, 25
4, 98028, Note_on_c, 9, 35, 0
4, 98040, Note_on_c, 9, 59, 0
4, 98040, Note_on_c, 9, 46, 33
4, 98040, Note_on_c, 9, 59, 67
4, 98120, Note_on_c, 9, 59, 0
4, 98120, Note_on_c, 9, 46, 0
4, 98160, Note_on_c, 9, 46, 21
4, 98160, Note_on_c, 9, 59, 62
4, 98240, Note_on_c, 9, 59, 0
4, 98240, Note_on_c, 9, 46, 0
4, 98251, Note_on_c, 9, 35, 8
4, 98263, Note_on_c, 9, 35, 0
4, 98280, Note_on_c, 9, 46, 22
4, 98280, Note_on_c, 9, 59, 55
4, 98320, Note_on_c, 9, 59, 0
4, 98320, Note_on_c, 9, 46, 0
4, 98335, Note_on_c, 9, 40, 32
4, 98343, Note_on_c, 9, 40, 0
4, 98360, Note_on_c, 9, 40, 32
4, 98360, Note_on_c, 9, 46, 13
4, 98360, Note_on_c, 9, 59, 54
4, 98369, Note_on_c, 9, 40, 0
4, 98400, Note_on_c, 9, 59, 0
4, 98400, Note_on_c, 9, 46, 0
4, 98400, Note_on_c, 9, 46, 22
4, 98400, Note_on_c, 9, 59, 62
4, 98401, Note_on_c, 9, 35, 18
4, 98412, Note_on_c, 9, 35, 0
4, 98480, Note_on_c, 9, 59, 0
4, 98480, Note_on_c, 9, 46, 0
4, 98520, Note_on_c, 9, 46, 27
4, 98520, Note_on_c, 9, 59, 62
4, 98600, Note_on_c, 9, 59, 0
4, 98600, Note_on_c, 9, 46, 0
4, 98609, Note_on_c, 9, 35, 11
4, 98620, Note_on_c, 9, 35, 0
4, 98640, Note_on_c, 9, 46, 17
4, 98640, Note_on_c, 9, 59, 58
4, 98680, Note_on_c, 9, 59, 0
4, 98680, Note_on_c, 9, 46, 0
4, 98721, Note_on_c, 9, 35, 18
4, 98730, Note_on_c, 9, 35, 0
4, 98757, Note_on_c, 9, 37, 65
4, 98760, Note_on_c, 9, 46, 29
4, 98760, Note_on_c, 9, 59, 66
4, 98800, Note_on_c, 9, 59, 0
4, 98800, Note_on_c, 9, 46, 0
4, 98801, Note_on_c, 9, 37, 0
4, 98840, Note_on_c, 9, 46, 17
4, 98840, Note_on_c, 9, 59, 52
4, 98846, Note_on_c, 9, 35, 1
4, 98856, Note_on_c, 9, 35, 0
4, 98880, Note_on_c, 9, 59, 0
4, 98880, Note_on_c, 9, 46, 0
4, 98880, Note_on_c, 9, 46, 21
4, 98880, Note_on_c, 9, 59, 63
4, 98883, Note_on_c, 9, 35, 13
4, 98897, Note_on_c, 9, 35, 0
4, 98960, Note_on_c, 9, 59, 0
4, 98960, Note_on_c, 9, 46, 0
4, 99000, Note_on_c, 9, 46, 29
4, 99000, Note_on_c, 9, 59, 71
4, 99080, Note_on_c, 9, 59, 0
4, 99080, Note_on_c, 9, 46, 0
4, 99087, Note_on_c, 9, 35, 17
4, 99098, Note_on_c, 9, 35, 0
4, 99120, Note_on_c, 9, 46, 23
4, 99120, Note_on_c, 9, 59, 66
4, 99160, Note_on_c, 9, 59, 0
4, 99160, Note_on_c, 9, 46, 0
4, 99240, Note_on_c, 9, 46, 25
4, 99240, Note_on_c, 9, 59, 66
4, 99280, Note_on_c, 9, 59, 0
4, 99280, Note_on_c, 9, 46, 0
4, 99320, Note_on_c, 9, 46, 26
4, 99320, Note_on_c, 9, 59, 60
4, 99360, Note_on_c, 9, 59, 0
4, 99360, Note_on_c, 9, 46, 0
4, 99360, Note_on_c, 9, 46, 28
4, 99360, Note_on_c, 9, 59, 65
4, 99440, Note_on_c, 9, 59, 0
4, 99440, Note_on_c, 9, 46, 0
4, 99480, Note_on_c, 9, 46, 23
4, 99480, Note_on_c, 9, 59, 65
4, 99560, Note_on_c, 9, 59, 0
4, 99560, Note_on_c, 9, 46, 0
4, 99575, Note_on_c, 9, 35, 1
4, 99588, Note_on_c, 9, 35, 0
4, 99600, Note_on_c, 9, 46, 29
4, 99600, Note_on_c, 9, 59, 68
4, 99636, Note_on_c, 9, 44, 24
4, 99640, Note_on_c, 9, 59, 0
4, 99640, Note_on_c, 9, 46, 0
4, 99649, Note_on_c, 9, 44, 0
4, 99717, Note_on_c, 9, 44, 28
4, 99720, Note_on_c, 9, 46, 29
4, 99720, Note_on_c, 9, 59, 68
4, 99735, Note_on_c, 9, 44, 0
4, 99760, Note_on_c, 9, 59, 0
4, 99760, Note_on_c, 9, 46, 0
4, 99800, Note_on_c, 9, 46, 25
4, 99800, Note_on_c, 9, 59, 62
4, 99804, Note_on_c, 9, 44, 41
4, 99822, Note_on_c, 9, 44, 0
4, 99840, Note_on_c, 9, 59, 0
4, 99840, Note_on_c, 9, 46, 0
4, 99840, Note_on_c, 9, 46, 37
4, 99840, Note_on_c, 9, 59, 69
4, 99891, Note_on_c, 9, 44, 32
4, 99904, Note_on_c, 9, 44, 0
4, 99920, Note_on_c, 9, 59, 0
4, 99920, Note_on_c, 9, 46, 0
4, 99960, Note_on_c, 9, 46, 30
4, 99960, Note_on_c, 9, 59, 65
4, 99973, Note_on_c, 9, 44, 33
4, 99992, Note_on_c, 9, 44, 0
4, 100040, Note_on_c, 9, 59, 0
4, 100040, Note_on_c, 9, 46, 0
4, 100044, Note_on_c, 9, 44, 36
4, 100063, Note_on_c, 9, 44, 0
4, 100080, Note_on_c, 9, 46, 33
4, 100080, Note_on_c, 9, 59, 64
4, 100125, Note_on_c, 9, 44, 31
4, 100143, Note_on_c, 9, 44, 0
4, 100160, Note_on_c, 9, 59, 0
4, 100160, Note_on_c, 9, 46, 0
4, 100200, Note_on_c, 9, 46, 46
4, 100200, Note_on_c, 9, 59, 83
4, 100206, Note_on_c, 9, 44, 37
4, 100227, Note_on_c, 9, 44, 0
4, 100280, Note_on_c, 9, 59, 0
4, 100280, Note_on_c, 9, 46, 0
4, 100281, Note_on_c, 9, 34, 31
4, 100298, Note_on_c, 9, 34, 0
4, 100320, Note_on_c, 9, 46, 16
4, 100320, Note_on_c, 9, 59, 43
4, 100326, Note_on_c, 9, 35, 19
4, 100360, Note_on_c, 9, 59, 0
4, 100360, Note_on_c, 9, 46, 0
4, 100367, Note_on_c, 9, 35, 0
4, 100440, Note_on_c, 9, 46, 49
4, 100440, Note_on_c, 9, 59, 85
4, 100520, Note_on_c, 9, 59, 0
4, 100520, Note_on_c, 9, 46, 0
4, 100560, Note_on_c, 9, 46, 52
4, 100560, Note_on_c, 9, 59, 87
4, 100595, Note_on_c, 9, 37, 24
4, 100603, Note_on_c, 9, 37, 0
4, 100633, Note_on_c, 9, 37, 31
4, 100640, Note_on_c, 9, 59, 0
4, 100640, Note_on_c, 9, 46, 0
4, 100641, Note_on_c, 9, 37, 0
4, 100680, Note_on_c, 9, 46, 3
4, 100720, Note_on_c, 9, 46, 0
4, 100749, Note_on_c, 9, 37, 36
4, 100762, Note_on_c, 9, 37, 0
4, 100784, Note_on_c, 9, 37, 28
4, 100793, Note_on_c, 9, 37, 0
4, 100800, Note_on_c, 9, 46, 50
4, 100800, Note_on_c, 9, 59, 90
4, 100870, Note_on_c, 9, 37, 35
4, 100880, Note_on_c, 9, 59, 0
4, 100880, Note_on_c, 9, 46, 0
4, 100887, Note_on_c, 9, 37, 0
4, 100904, Note_on_c, 9, 37, 33
4, 100918, Note_on_c, 9, 37, 0
4, 100920, Note_on_c, 9, 46, 50
4, 100920, Note_on_c, 9, 59, 87
4, 101000, Note_on_c, 9, 59, 0
4, 101000, Note_on_c, 9, 46, 0
4, 101011, Note_on_c, 9, 35, 23
4, 101020, Note_on_c, 9, 35, 0
4, 101040, Note_on_c, 9, 46, 1
4, 101040, Note_on_c, 9, 59, 44
4, 101080, Note_on_c, 9, 59, 0
4, 101080, Note_on_c, 9, 46, 0
4, 101160, Note_on_c, 9, 46, 48
4, 101160, Note_on_c, 9, 59, 89
4, 101236, Note_on_c, 9, 35, 32
4, 101240, Note_on_c, 9, 59, 0
4, 101240, Note_on_c, 9, 46, 0
4, 101249, Note_on_c, 9, 35, 0
4, 101277, Note_on_c, 9, 35, 20
4, 101280, Note_on_c, 9, 46, 47
4, 101307, Note_on_c, 9, 35, 0
4, 101320, Note_on_c, 9, 59, 88
4, 101360, Note_on_c, 9, 59, 0
4, 101360, Note_on_c, 9, 46, 0
4, 101400, Note_on_c, 9, 46, 22
4, 101400, Note_on_c, 9, 59, 60
4, 101440, Note_on_c, 9, 59, 0
4, 101440, Note_on_c, 9, 46, 0
4, 101520, Note_on_c, 9, 59, 48
4, 101560, Note_on_c, 9, 59, 0
4, 101560, Note_on_c, 9, 46, 13
4, 101600, Note_on_c, 9, 46, 0
4, 101606, Note_on_c, 9, 35, 30
4, 101617, Note_on_c, 9, 35, 0
4, 101640, Note_on_c, 9, 46, 23
4, 101640, Note_on_c, 9, 59, 62
4, 101651, Note_on_c, 9, 35, 9
4, 101666, Note_on_c, 9, 35, 0
4, 101680, Note_on_c, 9, 59, 0
4, 101680, Note_on_c, 9, 46, 0
4, 101720, Note_on_c, 9, 59, 58
4, 101760, Note_on_c, 9, 59, 0
4, 101760, Note_on_c, 9, 46, 21
4, 101760, Note_on_c, 9, 59, 56
4, 101840, Note_on_c, 9, 59, 0
4, 101840, Note_on_c, 9, 46, 0
4, 101880, Note_on_c, 9, 46, 26
4, 101880, Note_on_c, 9, 59, 66
4, 101960, Note_on_c, 9, 59, 0
4, 101960, Note_on_c, 9, 46, 0
4, 102000, Note_on_c, 9, 46, 20
4, 102000, Note_on_c, 9, 59, 62
4, 102080, Note_on_c, 9, 59, 0
4, 102080, Note_on_c, 9, 46, 0
4, 102120, Note_on_c, 9, 46, 29
4, 102120, Note_on_c, 9, 59, 66
4, 102160, Note_on_c, 9, 59, 0
4, 102160, Note_on_c, 9, 46, 0
4, 102200, Note_on_c, 9, 46, 30
4, 102200, Note_on_c, 9, 59, 64
4, 102212, Note_on_c, 9, 35, 26
4, 102227, Note_on_c, 9, 35, 0
4, 102240, Note_on_c, 9, 59, 0
4, 102240, Note_on_c, 9, 46, 0
4, 102240, Note_on_c, 9, 46, 32
4, 102240, Note_on_c, 9, 59, 61
4, 102251, Note_on_c, 9, 35, 30
4, 102285, Note_on_c, 9, 35, 0
4, 102320, Note_on_c, 9, 59, 0
4, 102320, Note_on_c, 9, 46, 0
4, 102360, Note_on_c, 9, 46, 30
4, 102400, Note_on_c, 9, 59, 67
4, 102440, Note_on_c, 9, 59, 0
4, 102440, Note_on_c, 9, 46, 0
4, 102446, Note_on_c, 9, 37, 33
4, 102462, Note_on_c, 9, 37, 0
4, 102480, Note_on_c, 9, 46, 33
4, 102480, Note_on_c, 9, 59, 71
4, 102486, Note_on_c, 9, 35, 21
4, 102502, Note_on_c, 9, 35, 0
4, 102560, Note_on_c, 9, 59, 0
4, 102560, Note_on_c, 9, 46, 0
4, 102600, Note_on_c, 9, 46, 33
4, 102600, Note_on_c, 9, 59, 70
4, 102640, Note_on_c, 9, 59, 0
4, 102640, Note_on_c, 9, 46, 0
4, 102680, Note_on_c, 9, 46, 26
4, 102680, Note_on_c, 9, 59, 49
4, 102720, Note_on_c, 9, 59, 0
4, 102720, Note_on_c, 9, 46, 0
4, 102720, Note_on_c, 9, 46, 30
4, 102720, Note_on_c, 9, 59, 63
4, 102800, Note_on_c, 9, 59, 0
4, 102800, Note_on_c, 9, 46, 0
4, 102840, Note_on_c, 9, 46, 30
4, 102840, Note_on_c, 9, 59, 67
4, 102920, Note_on_c, 9, 59, 0
4, 102920, Note_on_c, 9, 46, 0
4, 102960, Note_on_c, 9, 46, 30
4, 102960, Note_on_c, 9, 59, 69
4, 103040, Note_on_c, 9, 59, 0
4, 103040, Note_on_c, 9, 46, 0
4, 103080, Note_on_c, 9, 46, 28
4, 103080, Note_on_c, 9, 59, 62
4, 103120, Note_on_c, 9, 59, 0
4, 103120, Note_on_c, 9, 46, 0
4, 103160, Note_on_c, 9, 46, 25
4, 103160, Note_on_c, 9, 59, 64
4, 103163, Note_on_c, 9, 35, 32
4, 103174, Note_on_c, 9, 35, 0
4, 103200, Note_on_c, 9, 59, 0
4, 103200, Note_on_c, 9, 46, 0
4, 103200, Note_on_c, 9, 46, 23
4, 103200, Note_on_c, 9, 59, 64
4, 103202, Note_on_c, 9, 35, 10
4, 103231, Note_on_c, 9, 35, 0
4, 103280, Note_on_c, 9, 59, 0
4, 103280, Note_on_c, 9, 46, 0
4, 103320, Note_on_c, 9, 46, 29
4, 103320, Note_on_c, 9, 59, 68
4, 103399, Note_on_c, 9, 35, 33
4, 103400, Note_on_c, 9, 59, 0
4, 103400, Note_on_c, 9, 46, 0
4, 103407, Note_on_c, 9, 35, 0
4, 103440, Note_on_c, 9, 46, 25
4, 103440, Note_on_c, 9, 59, 69
4, 103520, Note_on_c, 9, 59, 0
4, 103520, Note_on_c, 9, 46, 0
4, 103560, Note_on_c, 9, 46, 26
4, 103600, Note_on_c, 9, 46, 0
4, 103600, Note_on_c, 9, 59, 71
4, 103640, Note_on_c, 9, 59, 0
4, 103640, Note_on_c, 9, 46, 9
4, 103640, Note_on_c, 9, 59, 64
4, 103680, Note_on_c, 9, 59, 0
4, 103680, Note_on_c, 9, 46, 0
4, 103680, Note_on_c, 9, 46, 19
4, 103680, Note_on_c, 9, 59, 60
4, 103760, Note_on_c, 9, 59, 0
4, 103760, Note_on_c, 9, 46, 0
4, 103800, Note_on_c, 9, 46, 32
4, 103800, Note_on_c, 9, 59, 68
4, 103840, Note_on_c, 9, 59, 0
4, 103840, Note_on_c, 9, 46, 0
4, 103920, Note_on_c, 9, 46, 25
4, 103920, Note_on_c, 9, 59, 65
4, 103960, Note_on_c, 9, 59, 0
4, 103960, Note_on_c, 9, 46, 0
4, 104040, Note_on_c, 9, 46, 29
4, 104040, Note_on_c, 9, 59, 67
4, 104080, Note_on_c, 9, 59, 0
4, 104080, Note_on_c, 9, 46, 0
4, 104120, Note_on_c, 9, 46, 29
4, 104120, Note_on_c, 9, 59, 57
4, 104122, Note_on_c, 9, 35, 32
4, 104132, Note_on_c, 9, 35, 0
4, 104160, Note_on_c, 9, 59, 0
4, 104160, Note_on_c, 9, 46, 0
4, 104160, Note_on_c, 9, 46, 34
4, 104160, Note_on_c, 9, 59, 64
4, 104240, Note_on_c, 9, 59, 0
4, 104240, Note_on_c, 9, 46, 0
4, 104280, Note_on_c, 9, 46, 26
4, 104280, Note_on_c, 9, 59, 65
4, 104320, Note_on_c, 9, 59, 0
4, 104320, Note_on_c, 9, 46, 0
4, 104361, Note_on_c, 9, 35, 31
4, 104370, Note_on_c, 9, 35, 0
4, 104400, Note_on_c, 9, 46, 31
4, 104400, Note_on_c, 9, 59, 69
4, 104440, Note_on_c, 9, 59, 0
4, 104440, Note_on_c, 9, 46, 0
4, 104520, Note_on_c, 9, 46, 29
4, 104520, Note_on_c, 9, 59, 68
4, 104560, Note_on_c, 9, 59, 0
4, 104560, Note_on_c, 9, 46, 0
4, 104640, Note_on_c, 9, 46, 29
4, 104640, Note_on_c, 9, 59, 70
4, 104680, Note_on_c, 9, 59, 0
4, 104680, Note_on_c, 9, 46, 0
4, 104720, Note_on_c, 9, 46, 20
4, 104720, Note_on_c, 9, 59, 63
4, 104760, Note_on_c, 9, 59, 0
4, 104760, Note_on_c, 9, 46, 0
4, 104760, Note_on_c, 9, 46, 28
4, 104760, Note_on_c, 9, 59, 64
4, 104800, Note_on_c, 9, 59, 0
4, 104800, Note_on_c, 9, 46, 0
4, 104880, Note_on_c, 9, 46, 29
4, 104880, Note_on_c, 9, 59, 71
4, 104920, Note_on_c, 9, 59, 0
4, 104920, Note_on_c, 9, 46, 0
4, 104960, Note_on_c, 9, 46, 21
4, 104960, Note_on_c, 9, 59, 62
4, 104998, Note_on_c, 9, 37, 66
4, 105000, Note_on_c, 9, 59, 0
4, 105000, Note_on_c, 9, 46, 0
4, 105000, Note_on_c, 9, 46, 27
4, 105000, Note_on_c, 9, 59, 67
4, 105040, Note_on_c, 9, 59, 0
4, 105040, Note_on_c, 9, 37, 0
4, 105080, Note_on_c, 9, 46, 0
4, 105086, Note_on_c, 9, 35, 2
4, 105100, Note_on_c, 9, 35, 0
4, 105120, Note_on_c, 9, 46, 29
4, 105120, Note_on_c, 9, 59, 71
4, 105124, Note_on_c, 9, 35, 18
4, 105160, Note_on_c, 9, 59, 0
4, 105160, Note_on_c, 9, 46, 0
4, 105175, Note_on_c, 9, 35, 0
4, 105240, Note_on_c, 9, 46, 30
4, 105240, Note_on_c, 9, 59, 72
4, 105280, Note_on_c, 9, 59, 0
4, 105280, Note_on_c, 9, 46, 0
4, 105320, Note_on_c, 9, 46, 23
4, 105320, Note_on_c, 9, 59, 54
4, 105360, Note_on_c, 9, 59, 0
4, 105360, Note_on_c, 9, 46, 0
4, 105360, Note_on_c, 9, 46, 29
4, 105360, Note_on_c, 9, 59, 62
4, 105440, Note_on_c, 9, 59, 0
4, 105440, Note_on_c, 9, 46, 0
4, 105480, Note_on_c, 9, 46, 34
4, 105480, Note_on_c, 9, 59, 68
4, 105483, Note_on_c, 9, 37, 66
4, 105520, Note_on_c, 9, 59, 0
4, 105520, Note_on_c, 9, 46, 0
4, 105526, Note_on_c, 9, 37, 0
4, 105560, Note_on_c, 9, 46, 22
4, 105560, Note_on_c, 9, 59, 56
4, 105578, Note_on_c, 9, 35, 6
4, 105590, Note_on_c, 9, 35, 0
4, 105600, Note_on_c, 9, 59, 0
4, 105600, Note_on_c, 9, 46, 0
4, 105600, Note_on_c, 9, 46, 30
4, 105600, Note_on_c, 9, 59, 62
4, 105640, Note_on_c, 9, 59, 0
4, 105640, Note_on_c, 9, 46, 0
4, 105720, Note_on_c, 9, 46, 32
4, 105720, Note_on_c, 9, 59, 74
4, 105760, Note_on_c, 9, 59, 0
4, 105760, Note_on_c, 9, 46, 0
4, 105800, Note_on_c, 9, 46, 21
4, 105800, Note_on_c, 9, 59, 48
4, 105811, Note_on_c, 9, 35, 7
4, 105825, Note_on_c, 9, 35, 0
4, 105840, Note_on_c, 9, 59, 0
4, 105840, Note_on_c, 9, 46, 0
4, 105840, Note_on_c, 9, 46, 22
4, 105840, Note_on_c, 9, 59, 57
4, 105845, Note_on_c, 9, 35, 34
4, 105880, Note_on_c, 9, 59, 0
4, 105904, Note_on_c, 9, 35, 0
4, 105920, Note_on_c, 9, 46, 0
4, 105928, Note_on_c, 9, 35, 15
4, 105945, Note_on_c, 9, 35, 0
4, 105960, Note_on_c, 9, 46, 30
4, 105960, Note_on_c, 9, 59, 73
4, 106000, Note_on_c, 9, 59, 0
4, 106000, Note_on_c, 9, 46, 0
4, 106080, Note_on_c, 9, 46, 33
4, 106080, Note_on_c, 9, 59, 73
4, 106120, Note_on_c, 9, 59, 0
4, 106120, Note_on_c, 9, 46, 0
4, 106200, Note_on_c, 9, 46, 33
4, 106200, Note_on_c, 9, 59, 76
4, 106240, Note_on_c, 9, 59, 0
4, 106240, Note_on_c, 9, 46, 0
4, 106280, Note_on_c, 9, 46, 20
4, 106280, Note_on_c, 9, 59, 62
4, 106320, Note_on_c, 9, 59, 0
4, 106320, Note_on_c, 9, 46, 0
4, 106320, Note_on_c, 9, 46, 27
4, 106320, Note_on_c, 9, 59, 66
4, 106360, Note_on_c, 9, 59, 0
4, 106360, Note_on_c, 9, 46, 0
4, 106410, Note_on_c, 9, 35, 6
4, 106420, Note_on_c, 9, 35, 0
4, 106440, Note_on_c, 9, 46, 31
4, 106440, Note_on_c, 9, 59, 70
4, 106441, Note_on_c, 9, 37, 63
4, 106480, Note_on_c, 9, 59, 0
4, 106480, Note_on_c, 9, 46, 0
4, 106488, Note_on_c, 9, 37, 0
4, 106520, Note_on_c, 9, 46, 24
4, 106520, Note_on_c, 9, 59, 46
4, 106521, Note_on_c, 9, 35, 1
4, 106531, Note_on_c, 9, 35, 0
4, 106560, Note_on_c, 9, 59, 0
4, 106560, Note_on_c, 9, 46, 0
4, 106560, Note_on_c, 9, 46, 34
4, 106560, Note_on_c, 9, 59, 66
4, 106600, Note_on_c, 9, 59, 0
4, 106640, Note_on_c, 9, 46, 0
4, 106680, Note_on_c, 9, 46, 32
4, 106680, Note_on_c, 9, 59, 76
4, 106720, Note_on_c, 9, 59, 0
4, 106720, Note_on_c, 9, 46, 0
4, 106800, Note_on_c, 9, 46, 25
4, 106800, Note_on_c, 9, 59, 71
4, 106840, Note_on_c, 9, 59, 0
4, 106840, Note_on_c, 9, 46, 0
4, 106880, Note_on_c, 9, 46, 21
4, 106880, Note_on_c, 9, 59, 37
4, 106881, Note_on_c, 9, 37, 39
4, 106897, Note_on_c, 9, 37, 0
4, 106920, Note_on_c, 9, 59, 0
4, 106920, Note_on_c, 9, 46, 0
4, 106920, Note_on_c, 9, 46, 44
4, 106920, Note_on_c, 9, 59, 75
4, 106926, Note_on_c, 9, 35, 8
4, 106940, Note_on_c, 9, 35, 0
4, 107000, Note_on_c, 9, 59, 0
4, 107000, Note_on_c, 9, 46, 0
4, 107003, Note_on_c, 9, 35, 30
4, 107026, Note_on_c, 9, 35, 0
4, 107040, Note_on_c, 9, 46, 46
4, 107040, Note_on_c, 9, 59, 83
4, 107080, Note_on_c, 9, 59, 0
4, 107080, Note_on_c, 9, 46, 0
4, 107160, Note_on_c, 9, 46, 1
4, 107200, Note_on_c, 9, 46, 0
4, 107240, Note_on_c, 9, 46, 29
4, 107240, Note_on_c, 9, 59, 55
4, 107247, Note_on_c, 9, 37, 46
4, 107266, Note_on_c, 9, 37, 0
4, 107280, Note_on_c, 9, 59, 0
4, 107280, Note_on_c, 9, 46, 0
4, 107280, Note_on_c, 9, 46, 44
4, 107280, Note_on_c, 9, 59, 79
4, 107290, Note_on_c, 9, 35, 8
4, 107305, Note_on_c, 9, 35, 0
4, 107360, Note_on_c, 9, 59, 0
4, 107360, Note_on_c, 9, 46, 0
4, 107366, Note_on_c, 9, 35, 22
4, 107379, Note_on_c, 9, 35, 0
4, 107480, Note_on_c, 9, 46, 56
4, 107480, Note_on_c, 9, 59, 95
4, 107484, Note_on_c, 9, 34, 19
4, 107493, Note_on_c, 9, 57, 83
4, 107505, Note_on_c, 9, 34, 0
4, 107520, Note_on_c, 9, 46, 0
4, 107520, Note_on_c, 9, 59, 0
4, 107523, Note_on_c, 9, 57, 0
4, 107523, Note_on_c, 9, 45, 34
4, 107527, Note_on_c, 9, 35, 16
4, 107538, Note_on_c, 9, 45, 0
4, 107545, Note_on_c, 9, 35, 0
4, 107960, Note_on_c, 9, 59, 40
4, 108000, Note_on_c, 9, 59, 0
4, 108000, Note_on_c, 9, 59, 71
4, 108080, Note_on_c, 9, 59, 0
4, 108291, Note_on_c, 9, 38, 33
4, 108299, Note_on_c, 9, 38, 0
4, 108333, Note_on_c, 9, 38, 41
4, 108341, Note_on_c, 9, 38, 0
4, 108375, Note_on_c, 9, 38, 46
4, 108383, Note_on_c, 9, 38, 0
4, 108443, Note_on_c, 9, 51, 58
4, 108447, Note_on_c, 9, 34, 40
4, 108452, Note_on_c, 9, 51, 0
4, 108474, Note_on_c, 9, 34, 0
4, 108483, Note_on_c, 9, 51, 49
4, 108494, Note_on_c, 9, 35, 36
4, 108503, Note_on_c, 9, 51, 0
4, 108553, Note_on_c, 9, 35, 0
4, 108610, Note_on_c, 9, 51, 92
4, 108665, Note_on_c, 9, 51, 0
4, 108812, Note_on_c, 9, 34, 19
4, 108812, Note_on_c, 9, 51, 60
4, 108829, Note_on_c, 9, 51, 0
4, 108836, Note_on_c, 9, 34, 0
4, 108854, Note_on_c, 9, 51, 80
4, 108858, Note_on_c, 9, 35, 23
4, 108918, Note_on_c, 9, 35, 0
4, 108941, Note_on_c, 9, 51, 0
4, 109042, Note_on_c, 9, 53, 74
4, 109063, Note_on_c, 9, 53, 0
4, 109085, Note_on_c, 9, 51, 48
4, 109167, Note_on_c, 9, 51, 0
4, 109173, Note_on_c, 9, 35, 8
4, 109189, Note_on_c, 9, 35, 0
4, 109205, Note_on_c, 9, 51, 74
4, 109240, Note_on_c, 9, 44, 24
4, 109265, Note_on_c, 9, 44, 0
4, 109268, Note_on_c, 9, 51, 0
4, 109277, Note_on_c, 9, 44, 9
4, 109296, Note_on_c, 9, 44, 0
4, 109297, Note_on_c, 9, 51, 50
4, 109310, Note_on_c, 9, 51, 0
4, 109327, Note_on_c, 9, 44, 31
4, 109332, Note_on_c, 9, 51, 63
4, 109347, Note_on_c, 9, 44, 0
4, 109408, Note_on_c, 9, 35, 30
4, 109411, Note_on_c, 9, 51, 0
4, 109426, Note_on_c, 9, 35, 0
4, 109489, Note_on_c, 9, 35, 27
4, 109511, Note_on_c, 9, 35, 0
4, 109525, Note_on_c, 9, 51, 52
4, 109542, Note_on_c, 9, 51, 0
4, 109563, Note_on_c, 9, 51, 65
4, 109576, Note_on_c, 9, 35, 28
4, 109593, Note_on_c, 9, 35, 0
4, 109622, Note_on_c, 9, 51, 0
4, 109648, Note_on_c, 9, 51, 78
4, 109660, Note_on_c, 9, 35, 20
4, 109675, Note_on_c, 9, 35, 0
4, 109687, Note_on_c, 9, 51, 0
4, 109768, Note_on_c, 9, 51, 39
4, 109776, Note_on_c, 9, 51, 0
4, 109808, Note_on_c, 9, 51, 80
4, 109885, Note_on_c, 9, 51, 0
4, 110002, Note_on_c, 9, 51, 42
4, 110018, Note_on_c, 9, 51, 0
4, 110040, Note_on_c, 9, 51, 75
4, 110121, Note_on_c, 9, 37, 25
4, 110124, Note_on_c, 9, 51, 0
4, 110130, Note_on_c, 9, 37, 0
4, 110170, Note_on_c, 9, 51, 32
4, 110170, Note_on_c, 9, 51, 0
4, 110198, Note_on_c, 9, 37, 40
4, 110216, Note_on_c, 9, 37, 0
4, 110238, Note_on_c, 9, 51, 52
4, 110255, Note_on_c, 9, 51, 0
4, 110276, Note_on_c, 9, 51, 74
4, 110288, Note_on_c, 9, 37, 42
4, 110303, Note_on_c, 9, 37, 0
4, 110362, Note_on_c, 9, 34, 24
4, 110363, Note_on_c, 9, 51, 0
4, 110384, Note_on_c, 9, 34, 0
4, 110405, Note_on_c, 9, 51, 64
4, 110406, Note_on_c, 9, 35, 16
4, 110418, Note_on_c, 9, 35, 0
4, 110483, Note_on_c, 9, 37, 10
4, 110487, Note_on_c, 9, 51, 0
4, 110492, Note_on_c, 9, 37, 0
4, 110531, Note_on_c, 9, 51, 79
4, 110535, Note_on_c, 9, 37, 3
4, 110544, Note_on_c, 9, 37, 0
4, 110598, Note_on_c, 9, 51, 0
4, 110627, Note_on_c, 9, 51, 56
4, 110643, Note_on_c, 9, 51, 0
4, 110662, Note_on_c, 9, 51, 48
4, 110687, Note_on_c, 9, 37, 4
4, 110696, Note_on_c, 9, 37, 0
4, 110726, Note_on_c, 9, 51, 0
4, 110850, Note_on_c, 9, 51, 47
4, 110862, Note_on_c, 9, 51, 0
4, 110889, Note_on_c, 9, 51, 60
4, 110962, Note_on_c, 9, 51, 0
4, 111012, Note_on_c, 9, 51, 68
4, 111045, Note_on_c, 9, 51, 0
4, 111090, Note_on_c, 9, 51, 59
4, 111110, Note_on_c, 9, 51, 0
4, 111151, Note_on_c, 9, 51, 50
4, 111153, Note_on_c, 9, 40, 6
4, 111166, Note_on_c, 9, 40, 0
4, 111169, Note_on_c, 9, 51, 0
4, 111181, Note_on_c, 9, 53, 75
4, 111212, Note_on_c, 9, 53, 0
4, 111244, Note_on_c, 9, 40, 7
4, 111258, Note_on_c, 9, 40, 0
4, 111261, Note_on_c, 9, 51, 70
4, 111271, Note_on_c, 9, 40, 2
4, 111291, Note_on_c, 9, 40, 0
4, 111297, Note_on_c, 9, 51, 0
4, 111315, Note_on_c, 9, 40, 1
4, 111323, Note_on_c, 9, 40, 0
4, 111338, Note_on_c, 9, 51, 68
4, 111362, Note_on_c, 9, 51, 0
4, 111398, Note_on_c, 9, 40, 21
4, 111411, Note_on_c, 9, 40, 0
4, 111411, Note_on_c, 9, 51, 60
4, 111440, Note_on_c, 9, 51, 0
4, 111488, Note_on_c, 9, 51, 77
4, 111503, Note_on_c, 9, 40, 13
4, 111514, Note_on_c, 9, 40, 0
4, 111520, Note_on_c, 9, 51, 0
4, 111540, Note_on_c, 9, 40, 5
4, 111550, Note_on_c, 9, 40, 0
4, 111567, Note_on_c, 9, 51, 57
4, 111585, Note_on_c, 9, 51, 0
4, 111604, Note_on_c, 9, 51, 63
4, 111647, Note_on_c, 9, 40, 21
4, 111656, Note_on_c, 9, 40, 0
4, 111675, Note_on_c, 9, 40, 27
4, 111680, Note_on_c, 9, 51, 0
4, 111685, Note_on_c, 9, 40, 0
4, 111714, Note_on_c, 9, 51, 76
4, 111749, Note_on_c, 9, 51, 0
4, 111801, Note_on_c, 9, 51, 56
4, 111820, Note_on_c, 9, 51, 0
4, 111835, Note_on_c, 9, 51, 74
4, 111899, Note_on_c, 9, 51, 0
4, 111924, Note_on_c, 9, 35, 1
4, 111935, Note_on_c, 9, 35, 0
4, 111953, Note_on_c, 9, 51, 76
4, 111987, Note_on_c, 9, 40, 6
4, 111997, Note_on_c, 9, 51, 0
4, 112001, Note_on_c, 9, 40, 0
4, 112030, Note_on_c, 9, 35, 32
4, 112044, Note_on_c, 9, 35, 0
4, 112048, Note_on_c, 9, 51, 38
4, 112058, Note_on_c, 9, 51, 0
4, 112079, Note_on_c, 9, 51, 57
4, 112118, Note_on_c, 9, 40, 26
4, 112126, Note_on_c, 9, 40, 0
4, 112138, Note_on_c, 9, 51, 0
4, 112150, Note_on_c, 9, 40, 19
4, 112164, Note_on_c, 9, 40, 0
4, 112191, Note_on_c, 9, 35, 20
4, 112195, Note_on_c, 9, 51, 82
4, 112204, Note_on_c, 9, 35, 0
4, 112240, Note_on_c, 9, 51, 0
4, 112303, Note_on_c, 9, 40, 1
4, 112313, Note_on_c, 9, 40, 0
4, 112320, Note_on_c, 9, 51, 75
4, 112334, Note_on_c, 9, 51, 0
4, 112417, Note_on_c, 9, 51, 68
4, 112426, Note_on_c, 9, 51, 0
4, 112460, Note_on_c, 9, 51, 65
4, 112463, Note_on_c, 9, 51, 0
4, 112562, Note_on_c, 9, 51, 72
4, 112586, Note_on_c, 9, 51, 0
4, 112682, Note_on_c, 9, 51, 76
4, 112706, Note_on_c, 9, 51, 0
4, 112774, Note_on_c, 9, 51, 31
4, 112782, Note_on_c, 9, 51, 0
4, 112804, Note_on_c, 9, 51, 68
4, 112849, Note_on_c, 9, 40, 27
4, 112857, Note_on_c, 9, 40, 0
4, 112865, Note_on_c, 9, 51, 0
4, 112923, Note_on_c, 9, 51, 75
4, 112929, Note_on_c, 9, 40, 8
4, 112950, Note_on_c, 9, 51, 0
4, 112951, Note_on_c, 9, 40, 0
4, 113003, Note_on_c, 9, 40, 36
4, 113013, Note_on_c, 9, 51, 55
4, 113019, Note_on_c, 9, 40, 0
4, 113025, Note_on_c, 9, 51, 0
4, 113051, Note_on_c, 9, 51, 50
4, 113059, Note_on_c, 9, 51, 0
4, 113083, Note_on_c, 9, 51, 68
4, 113088, Note_on_c, 9, 40, 27
4, 113097, Note_on_c, 9, 40, 0
4, 113100, Note_on_c, 9, 51, 0
4, 113169, Note_on_c, 9, 51, 79
4, 113177, Note_on_c, 9, 40, 23
4, 113187, Note_on_c, 9, 40, 0
4, 113225, Note_on_c, 9, 51, 0
4, 113258, Note_on_c, 9, 51, 42
4, 113267, Note_on_c, 9, 51, 0
4, 113292, Note_on_c, 9, 51, 67
4, 113356, Note_on_c, 9, 51, 0
4, 113403, Note_on_c, 9, 51, 78
4, 113446, Note_on_c, 9, 51, 0
4, 113492, Note_on_c, 9, 51, 64
4, 113501, Note_on_c, 9, 51, 0
4, 113526, Note_on_c, 9, 51, 73
4, 113600, Note_on_c, 9, 51, 0
4, 113640, Note_on_c, 9, 51, 79
4, 113696, Note_on_c, 9, 51, 0
4, 113760, Note_on_c, 9, 51, 74
4, 113794, Note_on_c, 9, 40, 12
4, 113804, Note_on_c, 9, 40, 0
4, 113808, Note_on_c, 9, 51, 0
4, 113875, Note_on_c, 9, 40, 11
4, 113885, Note_on_c, 9, 40, 0
4, 113885, Note_on_c, 9, 51, 77
4, 113915, Note_on_c, 9, 51, 0
4, 113977, Note_on_c, 9, 51, 52
4, 113995, Note_on_c, 9, 51, 0
4, 114010, Note_on_c, 9, 51, 64
4, 114050, Note_on_c, 9, 40, 19
4, 114061, Note_on_c, 9, 40, 0
4, 114078, Note_on_c, 9, 51, 0
4, 114131, Note_on_c, 9, 51, 78
4, 114135, Note_on_c, 9, 40, 4
4, 114149, Note_on_c, 9, 40, 0
4, 114168, Note_on_c, 9, 51, 0
4, 114183, Note_on_c, 9, 35, 30
4, 114216, Note_on_c, 9, 35, 0
4, 114216, Note_on_c, 9, 40, 19
4, 114219, Note_on_c, 9, 51, 43
4, 114225, Note_on_c, 9, 40, 0
4, 114227, Note_on_c, 9, 51, 0
4, 114248, Note_on_c, 9, 51, 55
4, 114294, Note_on_c, 9, 51, 0
4, 114364, Note_on_c, 9, 51, 80
4, 114399, Note_on_c, 9, 51, 0
4, 114450, Note_on_c, 9, 35, 2
4, 114463, Note_on_c, 9, 35, 0
4, 114484, Note_on_c, 9, 51, 71
4, 114514, Note_on_c, 9, 51, 0
4, 114542, Note_on_c, 9, 40, 1
4, 114551, Note_on_c, 9, 40, 0
4, 114575, Note_on_c, 9, 35, 6
4, 114589, Note_on_c, 9, 35, 0
4, 114601, Note_on_c, 9, 51, 77
4, 114607, Note_on_c, 9, 40, 16
4, 114618, Note_on_c, 9, 40, 0
4, 114628, Note_on_c, 9, 51, 0
4, 114686, Note_on_c, 9, 40, 30
4, 114689, Note_on_c, 9, 51, 39
4, 114694, Note_on_c, 9, 40, 0
4, 114700, Note_on_c, 9, 51, 0
4, 114719, Note_on_c, 9, 51, 61
4, 114759, Note_on_c, 9, 51, 0
4, 114773, Note_on_c, 9, 35, 7
4, 114785, Note_on_c, 9, 35, 0
4, 114832, Note_on_c, 9, 51, 71
4, 114865, Note_on_c, 9, 51, 0
4, 114920, Note_on_c, 9, 53, 77
4, 114926, Note_on_c, 9, 35, 1
4, 114938, Note_on_c, 9, 35, 0
4, 114940, Note_on_c, 9, 53, 0
4, 114961, Note_on_c, 9, 51, 56
4, 114999, Note_on_c, 9, 37, 21
4, 115010, Note_on_c, 9, 37, 0
4, 115019, Note_on_c, 9, 51, 0
4, 115030, Note_on_c, 9, 37, 19
4, 115071, Note_on_c, 9, 37, 0
4, 115076, Note_on_c, 9, 51, 67
4, 115096, Note_on_c, 9, 51, 0
4, 115161, Note_on_c, 9, 51, 75
4, 115174, Note_on_c, 9, 51, 0
4, 115197, Note_on_c, 9, 51, 71
4, 115258, Note_on_c, 9, 51, 0
4, 115279, Note_on_c, 9, 35, 3
4, 115291, Note_on_c, 9, 35, 0
4, 115312, Note_on_c, 9, 51, 60
4, 115321, Note_on_c, 9, 51, 0
4, 115391, Note_on_c, 9, 40, 19
4, 115394, Note_on_c, 9, 51, 86
4, 115401, Note_on_c, 9, 40, 0
4, 115415, Note_on_c, 9, 51, 0
4, 115482, Note_on_c, 9, 51, 48
4, 115490, Note_on_c, 9, 51, 0
4, 115523, Note_on_c, 9, 35, 1
4, 115523, Note_on_c, 9, 51, 70
4, 115534, Note_on_c, 9, 35, 0
4, 115540, Note_on_c, 9, 51, 0
4, 115562, Note_on_c, 9, 51, 70
4, 115618, Note_on_c, 9, 51, 0
4, 115649, Note_on_c, 9, 35, 15
4, 115661, Note_on_c, 9, 35, 0
4, 115719, Note_on_c, 9, 51, 49
4, 115731, Note_on_c, 9, 51, 0
4, 115758, Note_on_c, 9, 35, 9
4, 115762, Note_on_c, 9, 51, 76
4, 115770, Note_on_c, 9, 35, 0
4, 115780, Note_on_c, 9, 51, 0
4, 115803, Note_on_c, 9, 44, 24
4, 115815, Note_on_c, 9, 51, 83
4, 115816, Note_on_c, 9, 44, 0
4, 115838, Note_on_c, 9, 51, 0
4, 115880, Note_on_c, 9, 44, 51
4, 115896, Note_on_c, 9, 44, 0
4, 115956, Note_on_c, 9, 44, 55
4, 115963, Note_on_c, 9, 51, 65
4, 115975, Note_on_c, 9, 44, 0
4, 115980, Note_on_c, 9, 51, 0
4, 115997, Note_on_c, 9, 51, 71
4, 116013, Note_on_c, 9, 51, 0
4, 116039, Note_on_c, 9, 51, 70
4, 116058, Note_on_c, 9, 44, 54
4, 116060, Note_on_c, 9, 44, 0
4, 116069, Note_on_c, 9, 51, 0
4, 116116, Note_on_c, 9, 34, 21
4, 116124, Note_on_c, 9, 34, 0
4, 116125, Note_on_c, 9, 51, 56
4, 116133, Note_on_c, 9, 51, 0
4, 116158, Note_on_c, 9, 51, 74
4, 116163, Note_on_c, 9, 35, 16
4, 116176, Note_on_c, 9, 35, 0
4, 116192, Note_on_c, 9, 51, 0
4, 116245, Note_on_c, 9, 44, 16
4, 116252, Note_on_c, 9, 35, 10
4, 116253, Note_on_c, 9, 44, 0
4, 116261, Note_on_c, 9, 35, 0
4, 116359, Note_on_c, 9, 51, 55
4, 116377, Note_on_c, 9, 51, 0
4, 116404, Note_on_c, 9, 51, 49
4, 116463, Note_on_c, 9, 51, 0
4, 116609, Note_on_c, 9, 51, 36
4, 116618, Note_on_c, 9, 51, 0
4, 116645, Note_on_c, 9, 51, 39
4, 116681, Note_on_c, 9, 40, 18
4, 116690, Note_on_c, 9, 40, 0
4, 116696, Note_on_c, 9, 51, 0
4, 116721, Note_on_c, 9, 40, 6
4, 116739, Note_on_c, 9, 40, 0
4, 116762, Note_on_c, 9, 40, 17
4, 116772, Note_on_c, 9, 40, 0
4, 116841, Note_on_c, 9, 35, 34
4, 116846, Note_on_c, 9, 51, 46
4, 116856, Note_on_c, 9, 51, 0
4, 116862, Note_on_c, 9, 35, 0
4, 116889, Note_on_c, 9, 51, 52
4, 116905, Note_on_c, 9, 35, 22
4, 116930, Note_on_c, 9, 35, 0
4, 116945, Note_on_c, 9, 51, 0
4, 116997, Note_on_c, 9, 35, 17
4, 117014, Note_on_c, 9, 35, 0
4, 117084, Note_on_c, 9, 51, 43
4, 117089, Note_on_c, 9, 35, 6
4, 117092, Note_on_c, 9, 51, 0
4, 117105, Note_on_c, 9, 35, 0
4, 117117, Note_on_c, 9, 51, 53
4, 117145, Note_on_c, 9, 51, 0
4, 117160, Note_on_c, 9, 40, 12
4, 117173, Note_on_c, 9, 40, 0
4, 117195, Note_on_c, 9, 53, 60
4, 117200, Note_on_c, 9, 40, 9
4, 117217, Note_on_c, 9, 53, 0
4, 117223, Note_on_c, 9, 40, 0
4, 117248, Note_on_c, 9, 40, 6
4, 117261, Note_on_c, 9, 40, 0
4, 117424, Note_on_c, 9, 53, 73
4, 117448, Note_on_c, 9, 53, 0
4, 117466, Note_on_c, 9, 51, 43
4, 117487, Note_on_c, 9, 51, 0
4, 117668, Note_on_c, 9, 53, 72
4, 117671, Note_on_c, 9, 40, 25
4, 117680, Note_on_c, 9, 40, 0
4, 117692, Note_on_c, 9, 53, 0
4, 117710, Note_on_c, 9, 35, 17
4, 117711, Note_on_c, 9, 51, 53
4, 117740, Note_on_c, 9, 35, 0
4, 117769, Note_on_c, 9, 51, 0
4, 117844, Note_on_c, 9, 40, 29
4, 117852, Note_on_c, 9, 40, 0
4, 117913, Note_on_c, 9, 51, 59
4, 117917, Note_on_c, 9, 35, 21
4, 117930, Note_on_c, 9, 51, 0
4, 117936, Note_on_c, 9, 35, 0
4, 117955, Note_on_c, 9, 51, 48
4, 118004, Note_on_c, 9, 51, 0
4, 118037, Note_on_c, 9, 40, 35
4, 118047, Note_on_c, 9, 40, 0
4, 118084, Note_on_c, 9, 35, 7
4, 118110, Note_on_c, 9, 35, 0
4, 118168, Note_on_c, 9, 51, 43
4, 118184, Note_on_c, 9, 51, 0
4, 118204, Note_on_c, 9, 51, 57
4, 118265, Note_on_c, 9, 51, 0
4, 118447, Note_on_c, 9, 51, 74
4, 118485, Note_on_c, 9, 51, 0
4, 118564, Note_on_c, 9, 51, 77
4, 118627, Note_on_c, 9, 51, 0
4, 118687, Note_on_c, 9, 51, 76
4, 118744, Note_on_c, 9, 51, 0
4, 118811, Note_on_c, 9, 51, 78
4, 118879, Note_on_c, 9, 51, 0
4, 118891, Note_on_c, 9, 40, 1
4, 118899, Note_on_c, 9, 40, 0
4, 118928, Note_on_c, 9, 35, 25
4, 118942, Note_on_c, 9, 35, 0
4, 119012, Note_on_c, 9, 35, 40
4, 119017, Note_on_c, 9, 51, 51
4, 119036, Note_on_c, 9, 51, 0
4, 119040, Note_on_c, 9, 35, 0
4, 119057, Note_on_c, 9, 51, 51
4, 119062, Note_on_c, 9, 35, 20
4, 119090, Note_on_c, 9, 51, 0
4, 119095, Note_on_c, 9, 35, 0
4, 119240, Note_on_c, 9, 51, 51
4, 119260, Note_on_c, 9, 51, 0
4, 119316, Note_on_c, 9, 51, 50
4, 119319, Note_on_c, 9, 51, 0
4, 119360, Note_on_c, 9, 40, 22
4, 119369, Note_on_c, 9, 40, 0
4, 119395, Note_on_c, 9, 35, 7
4, 119411, Note_on_c, 9, 35, 0
4, 119481, Note_on_c, 9, 51, 51
4, 119496, Note_on_c, 9, 51, 0
4, 119496, Note_on_c, 9, 40, 11
4, 119507, Note_on_c, 9, 40, 0
4, 119525, Note_on_c, 9, 51, 53
4, 119541, Note_on_c, 9, 35, 1
4, 119550, Note_on_c, 9, 35, 0
4, 119558, Note_on_c, 9, 51, 0
4, 119724, Note_on_c, 9, 51, 45
4, 119739, Note_on_c, 9, 51, 0
4, 119766, Note_on_c, 9, 51, 62
4, 119788, Note_on_c, 9, 51, 0
4, 119807, Note_on_c, 9, 40, 23
4, 119817, Note_on_c, 9, 40, 0
4, 119843, Note_on_c, 9, 40, 6
4, 119855, Note_on_c, 9, 40, 0
4, 119886, Note_on_c, 9, 35, 11
4, 119899, Note_on_c, 9, 35, 0
4, 119931, Note_on_c, 9, 40, 1
4, 119940, Note_on_c, 9, 40, 0
4, 119955, Note_on_c, 9, 40, 25
4, 119961, Note_on_c, 9, 51, 62
4, 119970, Note_on_c, 9, 40, 0
4, 119979, Note_on_c, 9, 51, 0
4, 120002, Note_on_c, 9, 51, 54
4, 120043, Note_on_c, 9, 51, 0
4, 120048, Note_on_c, 9, 40, 14
4, 120058, Note_on_c, 9, 40, 0
4, 120075, Note_on_c, 9, 40, 25
4, 120086, Note_on_c, 9, 40, 0
4, 120114, Note_on_c, 9, 35, 17
4, 120116, Note_on_c, 9, 51, 76
4, 120146, Note_on_c, 9, 35, 0
4, 120172, Note_on_c, 9, 51, 0
4, 120243, Note_on_c, 9, 51, 71
4, 120261, Note_on_c, 9, 51, 0
4, 120329, Note_on_c, 9, 51, 39
4, 120340, Note_on_c, 9, 51, 0
4, 120360, Note_on_c, 9, 51, 64
4, 120413, Note_on_c, 9, 51, 0
4, 120440, Note_on_c, 9, 51, 85
4, 120446, Note_on_c, 9, 35, 61
4, 120476, Note_on_c, 9, 35, 0
4, 120488, Note_on_c, 9, 35, 38
4, 120494, Note_on_c, 9, 51, 0
4, 120553, Note_on_c, 9, 35, 0
4, 120560, Note_on_c, 9, 51, 46
4, 120575, Note_on_c, 9, 51, 0
4, 120604, Note_on_c, 9, 51, 78
4, 120671, Note_on_c, 9, 51, 0
4, 120803, Note_on_c, 9, 51, 51
4, 120804, Note_on_c, 9, 40, 29
4, 120812, Note_on_c, 9, 40, 0
4, 120818, Note_on_c, 9, 51, 0
4, 120842, Note_on_c, 9, 51, 74
4, 120844, Note_on_c, 9, 35, 1
4, 120862, Note_on_c, 9, 35, 0
4, 120899, Note_on_c, 9, 51, 0
4, 120921, Note_on_c, 9, 40, 15
4, 120931, Note_on_c, 9, 40, 0
4, 120957, Note_on_c, 9, 35, 8
4, 120962, Note_on_c, 9, 51, 81
4, 120969, Note_on_c, 9, 35, 0
4, 121019, Note_on_c, 9, 51, 0
4, 121084, Note_on_c, 9, 51, 81
4, 121138, Note_on_c, 9, 51, 0
4, 121205, Note_on_c, 9, 51, 80
4, 121236, Note_on_c, 9, 51, 0
4, 121410, Note_on_c, 9, 51, 50
4, 121427, Note_on_c, 9, 51, 0
4, 121448, Note_on_c, 9, 51, 64
4, 121463, Note_on_c, 9, 51, 0
4, 121525, Note_on_c, 9, 53, 85
4, 121545, Note_on_c, 9, 53, 0
4, 121569, Note_on_c, 9, 51, 56
4, 121625, Note_on_c, 9, 51, 0
4, 121643, Note_on_c, 9, 35, 21
4, 121655, Note_on_c, 9, 35, 0
4, 121761, Note_on_c, 9, 51, 58
4, 121774, Note_on_c, 9, 51, 0
4, 121808, Note_on_c, 9, 51, 59
4, 121828, Note_on_c, 9, 51, 0
4, 121885, Note_on_c, 9, 35, 27
4, 121897, Note_on_c, 9, 35, 0
4, 121920, Note_on_c, 9, 46, 30
4, 121930, Note_on_c, 9, 51, 62
4, 121960, Note_on_c, 9, 46, 0
4, 121961, Note_on_c, 9, 51, 0
4, 122126, Note_on_c, 9, 51, 56
4, 122134, Note_on_c, 9, 51, 0
4, 122177, Note_on_c, 9, 51, 75
4, 122215, Note_on_c, 9, 51, 0
4, 122362, Note_on_c, 9, 40, 27
4, 122365, Note_on_c, 9, 51, 45
4, 122370, Note_on_c, 9, 40, 0
4, 122378, Note_on_c, 9, 51, 0
4, 122401, Note_on_c, 9, 35, 16
4, 122404, Note_on_c, 9, 51, 63
4, 122420, Note_on_c, 9, 35, 0
4, 122452, Note_on_c, 9, 51, 0
4, 122605, Note_on_c, 9, 40, 2
4, 122615, Note_on_c, 9, 40, 0
4, 122649, Note_on_c, 9, 51, 58
4, 122693, Note_on_c, 9, 51, 0
4, 122725, Note_on_c, 9, 53, 65
4, 122748, Note_on_c, 9, 53, 0
4, 122771, Note_on_c, 9, 51, 29
4, 122809, Note_on_c, 9, 51, 0
4, 122843, Note_on_c, 9, 51, 69
4, 122860, Note_on_c, 9, 51, 0
4, 122892, Note_on_c, 9, 51, 57
4, 122916, Note_on_c, 9, 51, 0
4, 123086, Note_on_c, 9, 51, 45
4, 123104, Note_on_c, 9, 51, 0
4, 123126, Note_on_c, 9, 51, 46
4, 123160, Note_on_c, 9, 51, 0
4, 123324, Note_on_c, 9, 51, 47
4, 123339, Note_on_c, 9, 51, 0
4, 123359, Note_on_c, 9, 51, 50
4, 123402, Note_on_c, 9, 51, 0
4, 123562, Note_on_c, 9, 51, 46
4, 123575, Note_on_c, 9, 51, 0
4, 123601, Note_on_c, 9, 51, 48
4, 123631, Note_on_c, 9, 51, 0
4, 123680, Note_on_c, 9, 53, 71
4, 123703, Note_on_c, 9, 53, 0
4, 123724, Note_on_c, 9, 51, 46
4, 123750, Note_on_c, 9, 51, 0
4, 123799, Note_on_c, 9, 34, 8
4, 123804, Note_on_c, 9, 51, 55
4, 123822, Note_on_c, 9, 51, 0
4, 123823, Note_on_c, 9, 34, 0
4, 123846, Note_on_c, 9, 40, 19
4, 123847, Note_on_c, 9, 35, 23
4, 123853, Note_on_c, 9, 51, 36
4, 123896, Note_on_c, 9, 51, 0
4, 124003, Note_on_c, 9, 35, 0
4, 124036, Note_on_c, 9, 51, 44
4, 124052, Note_on_c, 9, 51, 0
4, 124082, Note_on_c, 9, 51, 35
4, 124114, Note_on_c, 9, 51, 0
4, 124212, Note_on_c, 9, 40, 0
4, 124277, Note_on_c, 9, 51, 37
4, 124292, Note_on_c, 9, 51, 0
4, 124317, Note_on_c, 9, 51, 34
4, 124355, Note_on_c, 9, 40, 13
4, 124371, Note_on_c, 9, 51, 0
4, 124373, Note_on_c, 9, 40, 0
4, 124394, Note_on_c, 9, 40, 26
4, 124404, Note_on_c, 9, 40, 0
4, 124443, Note_on_c, 9, 40, 40
4, 124515, Note_on_c, 9, 51, 36
4, 124524, Note_on_c, 9, 40, 0
4, 124531, Note_on_c, 9, 51, 0
4, 124558, Note_on_c, 9, 51, 40
4, 124579, Note_on_c, 9, 40, 1
4, 124588, Note_on_c, 9, 40, 0
4, 124614, Note_on_c, 9, 40, 30
4, 124636, Note_on_c, 9, 40, 0
4, 124656, Note_on_c, 9, 40, 41
4, 124709, Note_on_c, 9, 40, 0
4, 124738, Note_on_c, 9, 40, 19
4, 124758, Note_on_c, 9, 40, 0
4, 124782, Note_on_c, 9, 40, 18
4, 124797, Note_on_c, 9, 40, 0
4, 124818, Note_on_c, 9, 40, 42
4, 124868, Note_on_c, 9, 40, 0
4, 124936, Note_on_c, 9, 51, 0
4, 125416, Note_on_c, 9, 40, 1
4, 125466, Note_on_c, 9, 34, 46
4, 125475, Note_on_c, 9, 40, 0
4, 125492, Note_on_c, 9, 34, 0
4, 125513, Note_on_c, 9, 35, 36
4, 125515, Note_on_c, 9, 57, 34
4, 125588, Note_on_c, 9, 57, 0
4, 125642, Note_on_c, 9, 35, 0
4, 125642, End_track
5, 0, Start_track
5, 0, MIDI_port, 0
5, 0, Title_t, "pipeline.com.au"
5, 0, End_track
6, 0, Start_track
6, 0, MIDI_port, 0
6, 0, End_track
0, 0, End_of_file
