0, 0, Header, 1, 2, 384
1, 0, Start_track
1, 0, Title_t, "Begin The Beguine"
1, 0, Text_t, "dougmck@pipeline.com.au -             \012"
1, 0, System_exclusive, 5, 126, 127, 9, 1, 247
1, 0, System_exclusive, 8, 67, 115, 1, 17, 15, 89, 3, 247
1, 0, Time_signature, 4, 2, 24, 8
1, 0, Key_signature, 0, "major"
1, 0, Tempo, 352941
1, 0, Marker_t, "Ostinato Bass in LH"
1, 3072, Marker_t, "Db scalar figure over ostinato bass"
1, 15360, Marker_t, "4 note Block chords - easy in this key."
1, 27648, Marker_t, "Chords(Bb13,a13,ab13,g13)in LH contrary motion to melody in RH"
1, 29952, Marker_t, "Change of register for contrast"
1, 31196, Marker_t, "Diminished block chords on Upper & lower  neighbours to Dm7"
1, 35530, Marker_t, "On G7b9 a diminished scale figure"
1, 77076, Marker_t, "On Abdim, drop 2 blocks harmonize melody with diminished chords"
1, 81414, Marker_t, "4ths used in this figure"
1, 159744, Marker_t, "This phrase targets the 3rd of Dm7b5. Chromatic tones from b5th down to lower neighbour  of m3rd- then use surround tones "
1, 159744, End_track
2, 0, Start_track
2, 42, Note_on_c, 0, 36, 40
2, 230, Note_on_c, 0, 43, 27
2, 240, Note_on_c, 0, 42, 42
2, 292, Note_on_c, 0, 42, 0
2, 364, Note_on_c, 0, 43, 0
2, 602, Note_on_c, 0, 43, 30
2, 610, Note_on_c, 0, 42, 29
2, 654, Note_on_c, 0, 42, 0
2, 738, Note_on_c, 0, 43, 0
2, 962, Note_on_c, 0, 42, 33
2, 968, Note_on_c, 0, 43, 29
2, 1040, Note_on_c, 0, 42, 0
2, 1084, Note_on_c, 0, 43, 0
2, 1338, Note_on_c, 0, 43, 27
2, 1340, Note_on_c, 0, 42, 26
2, 1358, Note_on_c, 0, 36, 0
2, 1450, Note_on_c, 0, 42, 0
2, 1488, Note_on_c, 0, 43, 0
2, 1534, Note_on_c, 0, 36, 36
2, 1738, Note_on_c, 0, 43, 29
2, 1758, Note_on_c, 0, 42, 32
2, 1798, Note_on_c, 0, 42, 0
2, 1826, Note_on_c, 0, 43, 0
2, 2108, Note_on_c, 0, 42, 34
2, 2110, Note_on_c, 0, 43, 33
2, 2172, Note_on_c, 0, 42, 0
2, 2248, Note_on_c, 0, 43, 0
2, 2476, Note_on_c, 0, 42, 29
2, 2492, Note_on_c, 0, 43, 35
2, 2544, Note_on_c, 0, 42, 0
2, 2602, Note_on_c, 0, 43, 0
2, 2860, Note_on_c, 0, 42, 29
2, 2890, Note_on_c, 0, 43, 20
2, 2892, Note_on_c, 0, 36, 0
2, 2952, Note_on_c, 0, 42, 0
2, 3062, Note_on_c, 0, 53, 67
2, 3114, Note_on_c, 0, 36, 22
2, 3148, Note_on_c, 0, 51, 50
2, 3170, Note_on_c, 0, 53, 0
2, 3180, Note_on_c, 0, 43, 0
2, 3258, Note_on_c, 0, 49, 57
2, 3262, Note_on_c, 0, 51, 0
2, 3488, Note_on_c, 0, 43, 25
2, 3560, Note_on_c, 0, 43, 0
2, 3736, Note_on_c, 0, 43, 39
2, 3746, Note_on_c, 0, 42, 30
2, 3774, Note_on_c, 0, 42, 0
2, 3874, Note_on_c, 0, 43, 0
2, 4084, Note_on_c, 0, 43, 29
2, 4088, Note_on_c, 0, 42, 32
2, 4150, Note_on_c, 0, 42, 0
2, 4172, Note_on_c, 0, 43, 0
2, 4434, Note_on_c, 0, 43, 35
2, 4452, Note_on_c, 0, 36, 0
2, 4452, Note_on_c, 0, 42, 18
2, 4546, Note_on_c, 0, 42, 0
2, 4556, Note_on_c, 0, 49, 0
2, 4590, Note_on_c, 0, 43, 0
2, 4630, Note_on_c, 0, 36, 41
2, 4636, Note_on_c, 0, 53, 62
2, 4700, Note_on_c, 0, 51, 53
2, 4732, Note_on_c, 0, 53, 0
2, 4822, Note_on_c, 0, 49, 55
2, 4856, Note_on_c, 0, 51, 0
2, 4926, Note_on_c, 0, 43, 22
2, 4992, Note_on_c, 0, 43, 0
2, 5182, Note_on_c, 0, 42, 40
2, 5182, Note_on_c, 0, 43, 43
2, 5218, Note_on_c, 0, 42, 0
2, 5292, Note_on_c, 0, 43, 0
2, 5538, Note_on_c, 0, 43, 38
2, 5540, Note_on_c, 0, 42, 36
2, 5582, Note_on_c, 0, 42, 0
2, 5662, Note_on_c, 0, 43, 0
2, 5946, Note_on_c, 0, 42, 27
2, 5956, Note_on_c, 0, 43, 20
2, 5976, Note_on_c, 0, 36, 0
2, 6014, Note_on_c, 0, 42, 0
2, 6084, Note_on_c, 0, 43, 0
2, 6112, Note_on_c, 0, 49, 0
2, 6122, Note_on_c, 0, 48, 54
2, 6142, Note_on_c, 0, 36, 36
2, 6332, Note_on_c, 0, 43, 33
2, 6346, Note_on_c, 0, 42, 25
2, 6378, Note_on_c, 0, 42, 0
2, 6418, Note_on_c, 0, 43, 0
2, 6682, Note_on_c, 0, 42, 36
2, 6688, Note_on_c, 0, 43, 33
2, 6756, Note_on_c, 0, 42, 0
2, 6840, Note_on_c, 0, 43, 0
2, 7108, Note_on_c, 0, 42, 34
2, 7108, Note_on_c, 0, 43, 32
2, 7184, Note_on_c, 0, 42, 0
2, 7276, Note_on_c, 0, 43, 0
2, 7502, Note_on_c, 0, 43, 31
2, 7504, Note_on_c, 0, 42, 29
2, 7510, Note_on_c, 0, 36, 0
2, 7626, Note_on_c, 0, 42, 0
2, 7670, Note_on_c, 0, 43, 0
2, 7708, Note_on_c, 0, 36, 33
2, 7900, Note_on_c, 0, 43, 22
2, 7912, Note_on_c, 0, 42, 32
2, 7970, Note_on_c, 0, 42, 0
2, 8000, Note_on_c, 0, 43, 0
2, 8288, Note_on_c, 0, 42, 31
2, 8298, Note_on_c, 0, 43, 34
2, 8316, Note_on_c, 0, 42, 0
2, 8404, Note_on_c, 0, 43, 0
2, 8664, Note_on_c, 0, 42, 33
2, 8676, Note_on_c, 0, 43, 36
2, 8698, Note_on_c, 0, 42, 0
2, 8762, Note_on_c, 0, 43, 0
2, 8766, Note_on_c, 0, 48, 0
2, 9030, Note_on_c, 0, 42, 31
2, 9058, Note_on_c, 0, 43, 33
2, 9112, Note_on_c, 0, 42, 0
2, 9160, Note_on_c, 0, 36, 0
2, 9250, Note_on_c, 0, 58, 59
2, 9284, Note_on_c, 0, 36, 32
2, 9290, Note_on_c, 0, 43, 0
2, 9338, Note_on_c, 0, 56, 49
2, 9458, Note_on_c, 0, 56, 0
2, 9468, Note_on_c, 0, 53, 57
2, 9802, Note_on_c, 0, 43, 33
2, 9866, Note_on_c, 0, 43, 0
2, 10170, Note_on_c, 0, 42, 35
2, 10186, Note_on_c, 0, 43, 37
2, 10196, Note_on_c, 0, 42, 0
2, 10328, Note_on_c, 0, 36, 0
2, 10564, Note_on_c, 0, 36, 30
2, 10610, Note_on_c, 0, 36, 0
2, 10724, Note_on_c, 0, 58, 0
2, 10736, Note_on_c, 0, 53, 0
2, 10760, Note_on_c, 0, 56, 52
2, 10778, Note_on_c, 0, 43, 0
2, 10784, Note_on_c, 0, 36, 32
2, 10854, Note_on_c, 0, 55, 44
2, 10952, Note_on_c, 0, 56, 0
2, 10958, Note_on_c, 0, 55, 0
2, 10968, Note_on_c, 0, 53, 55
2, 11320, Note_on_c, 0, 42, 39
2, 11326, Note_on_c, 0, 43, 40
2, 11352, Note_on_c, 0, 42, 0
2, 11470, Note_on_c, 0, 43, 0
2, 11722, Note_on_c, 0, 42, 38
2, 11736, Note_on_c, 0, 43, 35
2, 11758, Note_on_c, 0, 42, 0
2, 11828, Note_on_c, 0, 43, 0
2, 12074, Note_on_c, 0, 42, 33
2, 12104, Control_c, 0, 64, 127
2, 12106, Note_on_c, 0, 43, 32
2, 12140, Note_on_c, 0, 36, 0
2, 12182, Control_c, 0, 64, 0
2, 12184, Note_on_c, 0, 42, 0
2, 12254, Note_on_c, 0, 53, 0
2, 12270, Note_on_c, 0, 52, 52
2, 12284, Note_on_c, 0, 43, 0
2, 12288, Note_on_c, 0, 36, 49
2, 12496, Note_on_c, 0, 43, 22
2, 12506, Note_on_c, 0, 42, 25
2, 12540, Note_on_c, 0, 42, 0
2, 12574, Note_on_c, 0, 43, 0
2, 12870, Note_on_c, 0, 42, 33
2, 12872, Note_on_c, 0, 43, 33
2, 12904, Note_on_c, 0, 42, 0
2, 12998, Note_on_c, 0, 43, 0
2, 13246, Note_on_c, 0, 42, 33
2, 13254, Note_on_c, 0, 43, 34
2, 13326, Note_on_c, 0, 42, 0
2, 13380, Note_on_c, 0, 43, 0
2, 13634, Note_on_c, 0, 42, 36
2, 13644, Note_on_c, 0, 43, 31
2, 13684, Note_on_c, 0, 36, 0
2, 13748, Note_on_c, 0, 42, 0
2, 13796, Note_on_c, 0, 43, 0
2, 13832, Note_on_c, 0, 36, 37
2, 14046, Note_on_c, 0, 42, 28
2, 14048, Note_on_c, 0, 43, 24
2, 14076, Note_on_c, 0, 42, 0
2, 14122, Note_on_c, 0, 43, 0
2, 14396, Note_on_c, 0, 42, 34
2, 14408, Note_on_c, 0, 43, 36
2, 14422, Note_on_c, 0, 42, 0
2, 14460, Note_on_c, 0, 52, 0
2, 14514, Note_on_c, 0, 43, 0
2, 14796, Note_on_c, 0, 42, 37
2, 14806, Note_on_c, 0, 43, 37
2, 14822, Note_on_c, 0, 42, 0
2, 14906, Note_on_c, 0, 43, 0
2, 15172, Control_c, 0, 64, 127
2, 15192, Note_on_c, 0, 42, 31
2, 15200, Note_on_c, 0, 43, 24
2, 15226, Note_on_c, 0, 36, 0
2, 15288, Control_c, 0, 64, 0
2, 15308, Note_on_c, 0, 42, 0
2, 15360, Note_on_c, 0, 57, 30
2, 15366, Note_on_c, 0, 52, 54
2, 15368, Note_on_c, 0, 43, 0
2, 15376, Note_on_c, 0, 55, 53
2, 15378, Note_on_c, 0, 60, 36
2, 15386, Note_on_c, 0, 36, 38
2, 15458, Note_on_c, 0, 52, 0
2, 15488, Note_on_c, 0, 60, 0
2, 15498, Note_on_c, 0, 55, 0
2, 15552, Note_on_c, 0, 57, 0
2, 15552, Note_on_c, 0, 53, 40
2, 15578, Control_c, 0, 64, 127
2, 15592, Note_on_c, 0, 62, 51
2, 15596, Note_on_c, 0, 57, 37
2, 15622, Note_on_c, 0, 59, 39
2, 15650, Control_c, 0, 64, 0
2, 15662, Note_on_c, 0, 57, 0
2, 15664, Note_on_c, 0, 62, 0
2, 15672, Note_on_c, 0, 59, 0
2, 15744, Note_on_c, 0, 53, 0
2, 15760, Note_on_c, 0, 64, 49
2, 15768, Note_on_c, 0, 55, 47
2, 15768, Note_on_c, 0, 60, 46
2, 15774, Note_on_c, 0, 59, 60
2, 15844, Control_c, 0, 64, 127
2, 15850, Note_on_c, 0, 55, 0
2, 15872, Note_on_c, 0, 64, 0
2, 15880, Note_on_c, 0, 59, 0
2, 15880, Note_on_c, 0, 60, 0
2, 15946, Note_on_c, 0, 42, 32
2, 15970, Control_c, 0, 64, 0
2, 15996, Note_on_c, 0, 67, 69
2, 16002, Note_on_c, 0, 59, 69
2, 16008, Note_on_c, 0, 62, 67
2, 16014, Note_on_c, 0, 42, 0
2, 16020, Note_on_c, 0, 64, 57
2, 16026, Note_on_c, 0, 43, 39
2, 16152, Note_on_c, 0, 43, 0
2, 16352, Note_on_c, 0, 43, 45
2, 16430, Note_on_c, 0, 43, 0
2, 16724, Note_on_c, 0, 42, 36
2, 16736, Note_on_c, 0, 43, 33
2, 16770, Note_on_c, 0, 36, 0
2, 16824, Note_on_c, 0, 42, 0
2, 16874, Note_on_c, 0, 43, 0
2, 16918, Note_on_c, 0, 36, 44
2, 17042, Control_c, 0, 64, 127
2, 17126, Note_on_c, 0, 43, 20
2, 17128, Control_c, 0, 64, 0
2, 17130, Note_on_c, 0, 42, 30
2, 17156, Note_on_c, 0, 42, 0
2, 17172, Note_on_c, 0, 64, 0
2, 17182, Note_on_c, 0, 67, 0
2, 17194, Note_on_c, 0, 62, 0
2, 17238, Note_on_c, 0, 59, 0
2, 17280, Note_on_c, 0, 43, 0
2, 17332, Control_c, 0, 64, 127
2, 17442, Control_c, 0, 64, 0
2, 17450, Note_on_c, 0, 42, 27
2, 17468, Note_on_c, 0, 59, 45
2, 17474, Note_on_c, 0, 55, 37
2, 17474, Note_on_c, 0, 64, 44
2, 17478, Note_on_c, 0, 42, 0
2, 17478, Note_on_c, 0, 43, 39
2, 17482, Note_on_c, 0, 60, 33
2, 17532, Note_on_c, 0, 55, 0
2, 17540, Note_on_c, 0, 59, 0
2, 17546, Note_on_c, 0, 64, 0
2, 17552, Note_on_c, 0, 60, 0
2, 17574, Note_on_c, 0, 43, 0
2, 17826, Note_on_c, 0, 62, 57
2, 17828, Note_on_c, 0, 57, 49
2, 17834, Note_on_c, 0, 43, 36
2, 17838, Note_on_c, 0, 53, 39
2, 17856, Note_on_c, 0, 59, 40
2, 17896, Note_on_c, 0, 62, 0
2, 17914, Note_on_c, 0, 57, 0
2, 17944, Note_on_c, 0, 53, 0
2, 18022, Note_on_c, 0, 60, 24
2, 18048, Note_on_c, 0, 59, 0
2, 18048, Note_on_c, 0, 52, 24
2, 18136, Note_on_c, 0, 52, 0
2, 18176, Note_on_c, 0, 43, 0
2, 18178, Note_on_c, 0, 60, 0
2, 18220, Note_on_c, 0, 42, 31
2, 18264, Control_c, 0, 64, 127
2, 18278, Control_c, 0, 64, 0
2, 18282, Note_on_c, 0, 36, 0
2, 18348, Note_on_c, 0, 42, 0
2, 18384, Note_on_c, 0, 64, 44
2, 18390, Note_on_c, 0, 55, 38
2, 18394, Note_on_c, 0, 59, 43
2, 18402, Note_on_c, 0, 36, 34
2, 18404, Note_on_c, 0, 60, 30
2, 18624, Note_on_c, 0, 43, 33
2, 18738, Note_on_c, 0, 43, 0
2, 19008, Note_on_c, 0, 43, 44
2, 19014, Note_on_c, 0, 42, 42
2, 19084, Note_on_c, 0, 42, 0
2, 19218, Note_on_c, 0, 43, 0
2, 19234, Control_c, 0, 64, 127
2, 19274, Control_c, 0, 64, 0
2, 19388, Note_on_c, 0, 42, 37
2, 19392, Note_on_c, 0, 43, 43
2, 19474, Note_on_c, 0, 36, 0
2, 19498, Note_on_c, 0, 42, 0
2, 19760, Note_on_c, 0, 36, 57
2, 19802, Note_on_c, 0, 36, 0
2, 19964, Note_on_c, 0, 43, 0
2, 19964, Note_on_c, 0, 36, 55
2, 20188, Note_on_c, 0, 43, 44
2, 20194, Note_on_c, 0, 42, 25
2, 20220, Note_on_c, 0, 42, 0
2, 20326, Note_on_c, 0, 43, 0
2, 20338, Control_c, 0, 64, 127
2, 20462, Note_on_c, 0, 59, 0
2, 20466, Note_on_c, 0, 64, 0
2, 20474, Note_on_c, 0, 60, 0
2, 20500, Note_on_c, 0, 55, 0
2, 20550, Note_on_c, 0, 43, 57
2, 20554, Note_on_c, 0, 42, 39
2, 20580, Control_c, 0, 64, 0
2, 20592, Note_on_c, 0, 42, 0
2, 20720, Control_c, 0, 64, 127
2, 20766, Note_on_c, 0, 43, 0
2, 20894, Control_c, 0, 64, 0
2, 20922, Note_on_c, 0, 60, 46
2, 20926, Note_on_c, 0, 55, 52
2, 20928, Note_on_c, 0, 52, 50
2, 20930, Note_on_c, 0, 42, 27
2, 20930, Note_on_c, 0, 57, 55
2, 20934, Note_on_c, 0, 43, 46
2, 20958, Note_on_c, 0, 42, 0
2, 20986, Note_on_c, 0, 52, 0
2, 21012, Note_on_c, 0, 60, 0
2, 21036, Note_on_c, 0, 57, 0
2, 21038, Note_on_c, 0, 55, 0
2, 21176, Note_on_c, 0, 43, 0
2, 21256, Note_on_c, 0, 60, 41
2, 21264, Note_on_c, 0, 52, 47
2, 21266, Note_on_c, 0, 55, 53
2, 21272, Note_on_c, 0, 42, 34
2, 21280, Note_on_c, 0, 57, 44
2, 21290, Note_on_c, 0, 43, 50
2, 21316, Control_c, 0, 64, 127
2, 21336, Note_on_c, 0, 36, 0
2, 21360, Note_on_c, 0, 42, 0
2, 21370, Note_on_c, 0, 60, 0
2, 21394, Note_on_c, 0, 52, 0
2, 21394, Control_c, 0, 64, 0
2, 21400, Note_on_c, 0, 55, 0
2, 21414, Note_on_c, 0, 57, 0
2, 21480, Note_on_c, 0, 36, 61
2, 21484, Note_on_c, 0, 52, 38
2, 21486, Note_on_c, 0, 60, 39
2, 21490, Note_on_c, 0, 55, 41
2, 21502, Note_on_c, 0, 43, 0
2, 21504, Note_on_c, 0, 57, 45
2, 21550, Control_c, 0, 64, 127
2, 21560, Note_on_c, 0, 52, 0
2, 21568, Note_on_c, 0, 60, 0
2, 21594, Note_on_c, 0, 59, 19
2, 21600, Note_on_c, 0, 55, 0
2, 21628, Note_on_c, 0, 59, 0
2, 21696, Note_on_c, 0, 57, 0
2, 21696, Note_on_c, 0, 59, 40
2, 21710, Note_on_c, 0, 53, 41
2, 21712, Note_on_c, 0, 62, 55
2, 21714, Control_c, 0, 64, 0
2, 21716, Note_on_c, 0, 57, 39
2, 21756, Note_on_c, 0, 53, 0
2, 21778, Note_on_c, 0, 62, 0
2, 21792, Note_on_c, 0, 57, 0
2, 21878, Note_on_c, 0, 59, 43
2, 21878, Note_on_c, 0, 55, 42
2, 21880, Note_on_c, 0, 64, 50
2, 21888, Note_on_c, 0, 59, 0
2, 21894, Note_on_c, 0, 60, 48
2, 21910, Control_c, 0, 64, 127
2, 21918, Note_on_c, 0, 55, 0
2, 21938, Note_on_c, 0, 60, 0
2, 21944, Note_on_c, 0, 59, 0
2, 21952, Note_on_c, 0, 64, 0
2, 22106, Control_c, 0, 64, 0
2, 22130, Note_on_c, 0, 69, 74
2, 22132, Note_on_c, 0, 43, 62
2, 22134, Note_on_c, 0, 63, 56
2, 22140, Note_on_c, 0, 57, 55
2, 22144, Note_on_c, 0, 59, 66
2, 22150, Note_on_c, 0, 65, 59
2, 22170, Note_on_c, 0, 67, 27
2, 22298, Note_on_c, 0, 59, 0
2, 22322, Note_on_c, 0, 43, 0
2, 22404, Control_c, 0, 64, 127
2, 22506, Control_c, 0, 64, 0
2, 22516, Note_on_c, 0, 43, 51
2, 22540, Note_on_c, 0, 42, 39
2, 22568, Note_on_c, 0, 42, 0
2, 22618, Note_on_c, 0, 43, 0
2, 22692, Control_c, 0, 64, 127
2, 22756, Control_c, 0, 64, 0
2, 22842, Control_c, 0, 64, 127
2, 22878, Note_on_c, 0, 43, 41
2, 22882, Note_on_c, 0, 42, 37
2, 22938, Note_on_c, 0, 36, 0
2, 22974, Control_c, 0, 64, 0
2, 22992, Note_on_c, 0, 42, 0
2, 23042, Note_on_c, 0, 43, 0
2, 23058, Note_on_c, 0, 36, 60
2, 23124, Control_c, 0, 64, 127
2, 23142, Note_on_c, 0, 57, 0
2, 23168, Note_on_c, 0, 69, 0
2, 23202, Note_on_c, 0, 65, 0
2, 23204, Note_on_c, 0, 67, 0
2, 23280, Control_c, 0, 64, 0
2, 23288, Note_on_c, 0, 59, 57
2, 23290, Note_on_c, 0, 67, 47
2, 23300, Note_on_c, 0, 62, 57
2, 23310, Note_on_c, 0, 64, 45
2, 23334, Note_on_c, 0, 43, 32
2, 23416, Note_on_c, 0, 43, 0
2, 23452, Control_c, 0, 64, 127
2, 23476, Note_on_c, 0, 64, 0
2, 23502, Note_on_c, 0, 62, 0
2, 23508, Note_on_c, 0, 59, 0
2, 23518, Note_on_c, 0, 63, 0
2, 23542, Note_on_c, 0, 67, 0
2, 23608, Control_c, 0, 64, 0
2, 23634, Note_on_c, 0, 67, 55
2, 23634, Note_on_c, 0, 42, 32
2, 23642, Note_on_c, 0, 62, 68
2, 23644, Note_on_c, 0, 59, 63
2, 23644, Note_on_c, 0, 64, 59
2, 23654, Note_on_c, 0, 43, 54
2, 23664, Note_on_c, 0, 42, 0
2, 23758, Note_on_c, 0, 64, 0
2, 23772, Note_on_c, 0, 62, 0
2, 23780, Control_c, 0, 64, 127
2, 23794, Note_on_c, 0, 67, 0
2, 23826, Note_on_c, 0, 59, 0
2, 23924, Note_on_c, 0, 43, 0
2, 23956, Note_on_c, 0, 42, 32
2, 24006, Note_on_c, 0, 65, 56
2, 24008, Note_on_c, 0, 61, 52
2, 24010, Note_on_c, 0, 58, 61
2, 24020, Note_on_c, 0, 55, 57
2, 24024, Note_on_c, 0, 42, 0
2, 24024, Control_c, 0, 64, 0
2, 24034, Note_on_c, 0, 43, 46
2, 24194, Note_on_c, 0, 64, 45
2, 24204, Control_c, 0, 64, 127
2, 24212, Note_on_c, 0, 55, 0
2, 24224, Note_on_c, 0, 65, 0
2, 24250, Control_c, 0, 64, 0
2, 24290, Note_on_c, 0, 58, 0
2, 24308, Note_on_c, 0, 36, 0
2, 24348, Note_on_c, 0, 61, 0
2, 24360, Control_c, 0, 64, 127
2, 24380, Note_on_c, 0, 36, 38
2, 24406, Note_on_c, 0, 42, 25
2, 24434, Note_on_c, 0, 64, 0
2, 24452, Note_on_c, 0, 43, 0
2, 24468, Note_on_c, 0, 36, 0
2, 24520, Note_on_c, 0, 42, 0
2, 24532, Control_c, 0, 64, 0
2, 24568, Note_on_c, 0, 65, 59
2, 24570, Note_on_c, 0, 57, 66
2, 24580, Note_on_c, 0, 60, 53
2, 24580, Note_on_c, 0, 38, 67
2, 24584, Note_on_c, 0, 62, 54
2, 24682, Note_on_c, 0, 62, 0
2, 24748, Note_on_c, 0, 60, 0
2, 24752, Control_c, 0, 64, 127
2, 24780, Note_on_c, 0, 65, 0
2, 24792, Note_on_c, 0, 57, 0
2, 24830, Control_c, 0, 64, 0
2, 24936, Note_on_c, 0, 62, 46
2, 24948, Note_on_c, 0, 53, 35
2, 24962, Note_on_c, 0, 57, 34
2, 24994, Control_c, 0, 64, 127
2, 25076, Note_on_c, 0, 53, 0
2, 25082, Note_on_c, 0, 57, 0
2, 25126, Control_c, 0, 64, 0
2, 25142, Note_on_c, 0, 57, 28
2, 25144, Note_on_c, 0, 53, 20
2, 25170, Note_on_c, 0, 45, 64
2, 25390, Note_on_c, 0, 45, 0
2, 25520, Note_on_c, 0, 44, 44
2, 25526, Note_on_c, 0, 45, 51
2, 25596, Note_on_c, 0, 44, 0
2, 25652, Note_on_c, 0, 45, 0
2, 25706, Control_c, 0, 64, 127
2, 25754, Control_c, 0, 64, 0
2, 25896, Note_on_c, 0, 45, 46
2, 25902, Control_c, 0, 64, 127
2, 25902, Note_on_c, 0, 44, 38
2, 25990, Note_on_c, 0, 44, 0
2, 26004, Control_c, 0, 64, 0
2, 26006, Note_on_c, 0, 45, 0
2, 26092, Note_on_c, 0, 38, 0
2, 26102, Note_on_c, 0, 43, 41
2, 26134, Note_on_c, 0, 53, 0
2, 26142, Note_on_c, 0, 57, 0
2, 26168, Control_c, 0, 64, 127
2, 26254, Control_c, 0, 64, 0
2, 26322, Note_on_c, 0, 53, 46
2, 26330, Note_on_c, 0, 57, 48
2, 26340, Note_on_c, 0, 60, 26
2, 26426, Control_c, 0, 64, 127
2, 26440, Note_on_c, 0, 53, 0
2, 26452, Note_on_c, 0, 57, 0
2, 26468, Note_on_c, 0, 60, 0
2, 26488, Note_on_c, 0, 43, 0
2, 26580, Note_on_c, 0, 62, 0
2, 26660, Control_c, 0, 64, 0
2, 26672, Note_on_c, 0, 61, 50
2, 26676, Note_on_c, 0, 58, 55
2, 26678, Note_on_c, 0, 55, 49
2, 26694, Note_on_c, 0, 45, 44
2, 26840, Control_c, 0, 64, 127
2, 26938, Note_on_c, 0, 55, 0
2, 26966, Note_on_c, 0, 58, 0
2, 26968, Note_on_c, 0, 45, 0
2, 26978, Note_on_c, 0, 61, 0
2, 27052, Control_c, 0, 64, 0
2, 27056, Note_on_c, 0, 64, 66
2, 27060, Note_on_c, 0, 61, 57
2, 27060, Note_on_c, 0, 58, 64
2, 27068, Note_on_c, 0, 55, 58
2, 27070, Note_on_c, 0, 45, 55
2, 27162, Note_on_c, 0, 55, 0
2, 27178, Note_on_c, 0, 45, 0
2, 27180, Control_c, 0, 64, 127
2, 27216, Note_on_c, 0, 58, 0
2, 27230, Note_on_c, 0, 61, 0
2, 27260, Note_on_c, 0, 64, 0
2, 27602, Control_c, 0, 64, 0
2, 27650, Note_on_c, 0, 74, 54
2, 27654, Note_on_c, 0, 67, 33
2, 27658, Note_on_c, 0, 56, 40
2, 27664, Note_on_c, 0, 62, 47
2, 27750, Control_c, 0, 64, 127
2, 27790, Note_on_c, 0, 67, 0
2, 27804, Note_on_c, 0, 62, 0
2, 27858, Note_on_c, 0, 56, 0
2, 27884, Control_c, 0, 64, 0
2, 27926, Note_on_c, 0, 66, 42
2, 27932, Note_on_c, 0, 76, 57
2, 27934, Note_on_c, 0, 61, 43
2, 27936, Note_on_c, 0, 55, 37
2, 27982, Note_on_c, 0, 74, 0
2, 27986, Control_c, 0, 64, 127
2, 28032, Note_on_c, 0, 55, 0
2, 28060, Note_on_c, 0, 66, 0
2, 28118, Control_c, 0, 64, 0
2, 28152, Note_on_c, 0, 76, 0
2, 28174, Note_on_c, 0, 61, 0
2, 28186, Note_on_c, 0, 65, 44
2, 28192, Note_on_c, 0, 77, 47
2, 28200, Note_on_c, 0, 54, 38
2, 28206, Note_on_c, 0, 60, 36
2, 28228, Control_c, 0, 64, 127
2, 28264, Note_on_c, 0, 77, 0
2, 28264, Note_on_c, 0, 65, 0
2, 28286, Note_on_c, 0, 60, 0
2, 28376, Note_on_c, 0, 54, 0
2, 28768, Control_c, 0, 64, 0
2, 28784, Note_on_c, 0, 86, 77
2, 28790, Note_on_c, 0, 64, 71
2, 28792, Note_on_c, 0, 74, 74
2, 28794, Note_on_c, 0, 53, 68
2, 28800, Note_on_c, 0, 59, 58
2, 28980, Control_c, 0, 64, 127
2, 29186, Note_on_c, 0, 86, 0
2, 29262, Note_on_c, 0, 59, 0
2, 29278, Note_on_c, 0, 74, 0
2, 29280, Note_on_c, 0, 64, 0
2, 29294, Note_on_c, 0, 53, 0
2, 29882, Note_on_c, 0, 67, 38
2, 29920, Control_c, 0, 64, 0
2, 29944, Note_on_c, 0, 74, 47
2, 29946, Note_on_c, 0, 67, 0
2, 29948, Note_on_c, 0, 69, 38
2, 29952, Note_on_c, 0, 77, 38
2, 29958, Note_on_c, 0, 84, 38
2, 29964, Note_on_c, 0, 81, 40
2, 30110, Note_on_c, 0, 84, 0
2, 30120, Note_on_c, 0, 81, 0
2, 30136, Note_on_c, 0, 74, 0
2, 30150, Note_on_c, 0, 69, 0
2, 30168, Note_on_c, 0, 67, 35
2, 30170, Note_on_c, 0, 77, 0
2, 30184, Note_on_c, 0, 83, 51
2, 30290, Note_on_c, 0, 83, 0
2, 30290, Note_on_c, 0, 67, 0
2, 30328, Note_on_c, 0, 65, 32
2, 30368, Note_on_c, 0, 81, 27
2, 30520, Note_on_c, 0, 81, 0
2, 30536, Note_on_c, 0, 65, 0
2, 30550, Note_on_c, 0, 84, 60
2, 30568, Note_on_c, 0, 69, 40
2, 30572, Note_on_c, 0, 77, 39
2, 30580, Note_on_c, 0, 74, 32
2, 30612, Note_on_c, 0, 77, 0
2, 30624, Note_on_c, 0, 84, 0
2, 30624, Note_on_c, 0, 69, 0
2, 30632, Note_on_c, 0, 74, 0
2, 30918, Note_on_c, 0, 81, 43
2, 30932, Note_on_c, 0, 72, 32
2, 30936, Note_on_c, 0, 65, 43
2, 30950, Note_on_c, 0, 77, 34
2, 30958, Note_on_c, 0, 74, 22
2, 31094, Note_on_c, 0, 77, 0
2, 31096, Note_on_c, 0, 74, 0
2, 31104, Note_on_c, 0, 72, 0
2, 31110, Note_on_c, 0, 81, 0
2, 31114, Note_on_c, 0, 65, 0
2, 31258, Control_c, 0, 64, 127
2, 31298, Note_on_c, 0, 61, 38
2, 31302, Note_on_c, 0, 76, 40
2, 31310, Note_on_c, 0, 73, 31
2, 31314, Note_on_c, 0, 69, 34
2, 31408, Control_c, 0, 64, 0
2, 31420, Note_on_c, 0, 73, 0
2, 31424, Note_on_c, 0, 69, 0
2, 31442, Note_on_c, 0, 76, 0
2, 31460, Note_on_c, 0, 61, 0
2, 31482, Note_on_c, 0, 79, 50
2, 31488, Note_on_c, 0, 73, 21
2, 31494, Note_on_c, 0, 64, 36
2, 31508, Note_on_c, 0, 69, 24
2, 31604, Note_on_c, 0, 79, 0
2, 31654, Note_on_c, 0, 73, 0
2, 31654, Note_on_c, 0, 69, 0
2, 31714, Note_on_c, 0, 77, 52
2, 31718, Note_on_c, 0, 69, 34
2, 31722, Note_on_c, 0, 64, 0
2, 31724, Note_on_c, 0, 72, 41
2, 31744, Note_on_c, 0, 62, 39
2, 31776, Note_on_c, 0, 72, 0
2, 31780, Note_on_c, 0, 62, 0
2, 31784, Note_on_c, 0, 69, 0
2, 31790, Note_on_c, 0, 77, 0
2, 32070, Note_on_c, 0, 76, 46
2, 32074, Note_on_c, 0, 65, 45
2, 32078, Note_on_c, 0, 61, 39
2, 32086, Note_on_c, 0, 69, 44
2, 32090, Note_on_c, 0, 73, 29
2, 32130, Note_on_c, 0, 73, 0
2, 32136, Note_on_c, 0, 65, 0
2, 32136, Note_on_c, 0, 69, 0
2, 32158, Note_on_c, 0, 61, 0
2, 32160, Note_on_c, 0, 76, 0
2, 32442, Note_on_c, 0, 74, 33
2, 32446, Note_on_c, 0, 65, 38
2, 32450, Note_on_c, 0, 60, 31
2, 32456, Control_c, 0, 64, 127
2, 32492, Note_on_c, 0, 74, 0
2, 32516, Note_on_c, 0, 65, 0
2, 32534, Control_c, 0, 64, 0
2, 32590, Note_on_c, 0, 60, 0
2, 32624, Note_on_c, 0, 72, 37
2, 32646, Note_on_c, 0, 57, 39
2, 32648, Note_on_c, 0, 62, 31
2, 32654, Note_on_c, 0, 65, 25
2, 32674, Note_on_c, 0, 69, 17
2, 32720, Control_c, 0, 64, 127
2, 32766, Note_on_c, 0, 69, 0
2, 32788, Note_on_c, 0, 72, 0
2, 32788, Note_on_c, 0, 65, 0
2, 32820, Note_on_c, 0, 62, 0
2, 32918, Control_c, 0, 64, 0
2, 32956, Note_on_c, 0, 57, 0
2, 32980, Note_on_c, 0, 69, 49
2, 33002, Note_on_c, 0, 53, 30
2, 33004, Note_on_c, 0, 65, 29
2, 33026, Note_on_c, 0, 62, 18
2, 33036, Control_c, 0, 64, 127
2, 33050, Note_on_c, 0, 65, 0
2, 33058, Note_on_c, 0, 62, 0
2, 33064, Note_on_c, 0, 53, 0
2, 33074, Note_on_c, 0, 69, 0
2, 33332, Control_c, 0, 64, 0
2, 33372, Note_on_c, 0, 43, 46
2, 33378, Note_on_c, 0, 53, 37
2, 33384, Note_on_c, 0, 50, 38
2, 33390, Note_on_c, 0, 62, 43
2, 33394, Note_on_c, 0, 57, 32
2, 33404, Note_on_c, 0, 60, 34
2, 33510, Note_on_c, 0, 43, 0
2, 33520, Note_on_c, 0, 53, 0
2, 33530, Note_on_c, 0, 62, 0
2, 33538, Note_on_c, 0, 57, 0
2, 33540, Note_on_c, 0, 60, 0
2, 33598, Note_on_c, 0, 53, 47
2, 33604, Note_on_c, 0, 62, 38
2, 33606, Note_on_c, 0, 43, 42
2, 33612, Note_on_c, 0, 57, 44
2, 33618, Note_on_c, 0, 60, 46
2, 33724, Note_on_c, 0, 53, 0
2, 33734, Note_on_c, 0, 50, 0
2, 33742, Note_on_c, 0, 57, 0
2, 33742, Note_on_c, 0, 43, 0
2, 33744, Note_on_c, 0, 62, 0
2, 33756, Note_on_c, 0, 60, 0
2, 33980, Note_on_c, 0, 43, 49
2, 33984, Note_on_c, 0, 50, 48
2, 33986, Note_on_c, 0, 62, 55
2, 33988, Note_on_c, 0, 53, 33
2, 33990, Note_on_c, 0, 60, 42
2, 33992, Note_on_c, 0, 57, 41
2, 34154, Control_c, 0, 64, 127
2, 34328, Note_on_c, 0, 43, 0
2, 34346, Note_on_c, 0, 53, 0
2, 34354, Note_on_c, 0, 57, 0
2, 34358, Note_on_c, 0, 50, 0
2, 34370, Note_on_c, 0, 60, 0
2, 34388, Note_on_c, 0, 62, 0
2, 34460, Control_c, 0, 64, 0
2, 34522, Note_on_c, 0, 53, 45
2, 34536, Note_on_c, 0, 43, 40
2, 34540, Note_on_c, 0, 50, 39
2, 34556, Note_on_c, 0, 64, 18
2, 34602, Note_on_c, 0, 53, 0
2, 34616, Note_on_c, 0, 43, 0
2, 34616, Note_on_c, 0, 50, 0
2, 34630, Note_on_c, 0, 64, 0
2, 34882, Note_on_c, 0, 65, 38
2, 34896, Note_on_c, 0, 60, 45
2, 34900, Note_on_c, 0, 57, 37
2, 34920, Note_on_c, 0, 50, 40
2, 34926, Note_on_c, 0, 43, 36
2, 34954, Note_on_c, 0, 57, 0
2, 34986, Note_on_c, 0, 60, 0
2, 34996, Note_on_c, 0, 65, 0
2, 35002, Note_on_c, 0, 43, 0
2, 35006, Control_c, 0, 64, 127
2, 35010, Note_on_c, 0, 50, 0
2, 35168, Note_on_c, 0, 67, 57
2, 35172, Control_c, 0, 64, 0
2, 35178, Note_on_c, 0, 57, 51
2, 35186, Note_on_c, 0, 60, 51
2, 35186, Note_on_c, 0, 53, 51
2, 35192, Note_on_c, 0, 43, 42
2, 35202, Note_on_c, 0, 63, 30
2, 35266, Note_on_c, 0, 53, 0
2, 35278, Note_on_c, 0, 67, 0
2, 35292, Note_on_c, 0, 63, 0
2, 35296, Note_on_c, 0, 60, 0
2, 35300, Note_on_c, 0, 57, 0
2, 35314, Control_c, 0, 64, 127
2, 35332, Note_on_c, 0, 43, 0
2, 35624, Note_on_c, 0, 44, 33
2, 35658, Control_c, 0, 64, 0
2, 35708, Note_on_c, 0, 58, 79
2, 35712, Note_on_c, 0, 46, 55
2, 35734, Note_on_c, 0, 44, 0
2, 35786, Note_on_c, 0, 58, 0
2, 35820, Note_on_c, 0, 59, 47
2, 35824, Note_on_c, 0, 46, 0
2, 35848, Note_on_c, 0, 58, 48
2, 35872, Note_on_c, 0, 59, 0
2, 35926, Note_on_c, 0, 56, 31
2, 35962, Note_on_c, 0, 56, 0
2, 35962, Note_on_c, 0, 58, 0
2, 36000, Note_on_c, 0, 55, 29
2, 36036, Note_on_c, 0, 55, 0
2, 36100, Note_on_c, 0, 52, 60
2, 36108, Note_on_c, 0, 64, 68
2, 36286, Note_on_c, 0, 64, 0
2, 36286, Note_on_c, 0, 52, 0
2, 36318, Note_on_c, 0, 49, 38
2, 36326, Note_on_c, 0, 61, 42
2, 36438, Note_on_c, 0, 61, 0
2, 36450, Note_on_c, 0, 49, 0
2, 36474, Note_on_c, 0, 50, 53
2, 36486, Note_on_c, 0, 62, 66
2, 36658, Note_on_c, 0, 50, 0
2, 36678, Note_on_c, 0, 62, 0
2, 36710, Note_on_c, 0, 59, 34
2, 36720, Note_on_c, 0, 36, 47
2, 36802, Note_on_c, 0, 59, 0
2, 36874, Note_on_c, 0, 60, 54
2, 37056, Note_on_c, 0, 52, 36
2, 37080, Note_on_c, 0, 60, 0
2, 37092, Note_on_c, 0, 55, 42
2, 37176, Note_on_c, 0, 52, 0
2, 37222, Note_on_c, 0, 55, 0
2, 37266, Note_on_c, 0, 53, 24
2, 37420, Note_on_c, 0, 36, 0
2, 37442, Note_on_c, 0, 53, 0
2, 37454, Note_on_c, 0, 43, 57
2, 37460, Note_on_c, 0, 52, 50
2, 37496, Note_on_c, 0, 42, 28
2, 37528, Note_on_c, 0, 42, 0
2, 37846, Note_on_c, 0, 31, 62
2, 37848, Control_c, 0, 64, 127
2, 37942, Note_on_c, 0, 31, 0
2, 37942, Control_c, 0, 64, 0
2, 38036, Note_on_c, 0, 31, 24
2, 38148, Note_on_c, 0, 31, 0
2, 38238, Note_on_c, 0, 31, 48
2, 38240, Control_c, 0, 64, 127
2, 38306, Note_on_c, 0, 52, 0
2, 38326, Control_c, 0, 64, 0
2, 38352, Note_on_c, 0, 43, 0
2, 38360, Note_on_c, 0, 31, 0
2, 38434, Note_on_c, 0, 36, 47
2, 38536, Control_c, 0, 64, 127
2, 38600, Control_c, 0, 64, 0
2, 38654, Note_on_c, 0, 50, 47
2, 38658, Note_on_c, 0, 60, 38
2, 38662, Note_on_c, 0, 55, 43
2, 38708, Note_on_c, 0, 50, 0
2, 38736, Note_on_c, 0, 55, 0
2, 38744, Note_on_c, 0, 60, 0
2, 38996, Note_on_c, 0, 64, 57
2, 38998, Note_on_c, 0, 57, 52
2, 39006, Note_on_c, 0, 53, 37
2, 39008, Note_on_c, 0, 43, 48
2, 39026, Note_on_c, 0, 60, 22
2, 39042, Note_on_c, 0, 36, 0
2, 39054, Note_on_c, 0, 53, 0
2, 39070, Note_on_c, 0, 57, 0
2, 39072, Note_on_c, 0, 60, 0
2, 39088, Note_on_c, 0, 43, 0
2, 39100, Note_on_c, 0, 64, 0
2, 39140, Control_c, 0, 64, 127
2, 39194, Control_c, 0, 64, 0
2, 39238, Note_on_c, 0, 63, 57
2, 39242, Note_on_c, 0, 59, 62
2, 39244, Note_on_c, 0, 67, 56
2, 39246, Note_on_c, 0, 53, 45
2, 39352, Control_c, 0, 64, 127
2, 39446, Control_c, 0, 64, 0
2, 39484, Note_on_c, 0, 59, 0
2, 39486, Note_on_c, 0, 67, 0
2, 39488, Note_on_c, 0, 63, 0
2, 39552, Note_on_c, 0, 43, 40
2, 39558, Note_on_c, 0, 67, 52
2, 39564, Note_on_c, 0, 59, 43
2, 39566, Note_on_c, 0, 63, 50
2, 39586, Control_c, 0, 64, 127
2, 39610, Note_on_c, 0, 43, 0
2, 39638, Note_on_c, 0, 53, 0
2, 39698, Note_on_c, 0, 59, 0
2, 39720, Note_on_c, 0, 67, 0
2, 39768, Note_on_c, 0, 63, 0
2, 39798, Note_on_c, 0, 67, 52
2, 39804, Control_c, 0, 64, 0
2, 39816, Note_on_c, 0, 62, 60
2, 39818, Note_on_c, 0, 57, 48
2, 39822, Note_on_c, 0, 36, 57
2, 39878, Note_on_c, 0, 62, 0
2, 39908, Note_on_c, 0, 67, 0
2, 39966, Note_on_c, 0, 57, 0
2, 40032, Control_c, 0, 64, 127
2, 40180, Note_on_c, 0, 60, 55
2, 40194, Note_on_c, 0, 57, 49
2, 40228, Control_c, 0, 64, 0
2, 40280, Note_on_c, 0, 57, 0
2, 40372, Note_on_c, 0, 62, 44
2, 40402, Note_on_c, 0, 60, 0
2, 40516, Note_on_c, 0, 62, 0
2, 40560, Note_on_c, 0, 64, 53
2, 40584, Note_on_c, 0, 43, 25
2, 40596, Control_c, 0, 64, 127
2, 40628, Note_on_c, 0, 36, 0
2, 40652, Note_on_c, 0, 43, 0
2, 40654, Note_on_c, 0, 64, 0
2, 40698, Control_c, 0, 64, 0
2, 40752, Note_on_c, 0, 67, 29
2, 40756, Note_on_c, 0, 55, 36
2, 40766, Note_on_c, 0, 60, 30
2, 40944, Note_on_c, 0, 43, 52
2, 40962, Note_on_c, 0, 42, 46
2, 41046, Note_on_c, 0, 42, 0
2, 41138, Note_on_c, 0, 43, 0
2, 41280, Note_on_c, 0, 43, 38
2, 41288, Note_on_c, 0, 42, 26
2, 41354, Note_on_c, 0, 42, 0
2, 41450, Note_on_c, 0, 43, 0
2, 41472, Note_on_c, 0, 55, 0
2, 41472, Note_on_c, 0, 36, 57
2, 41504, Note_on_c, 0, 60, 0
2, 41558, Control_c, 0, 64, 127
2, 41660, Control_c, 0, 64, 0
2, 41694, Note_on_c, 0, 43, 42
2, 41720, Note_on_c, 0, 42, 28
2, 41750, Note_on_c, 0, 42, 0
2, 41764, Note_on_c, 0, 67, 0
2, 41792, Note_on_c, 0, 43, 0
2, 42046, Note_on_c, 0, 43, 45
2, 42056, Note_on_c, 0, 42, 44
2, 42124, Note_on_c, 0, 42, 0
2, 42154, Note_on_c, 0, 43, 0
2, 42232, Note_on_c, 0, 43, 36
2, 42234, Note_on_c, 0, 55, 54
2, 42240, Note_on_c, 0, 64, 50
2, 42248, Note_on_c, 0, 57, 49
2, 42252, Note_on_c, 0, 60, 34
2, 42340, Note_on_c, 0, 60, 0
2, 42342, Note_on_c, 0, 64, 0
2, 42352, Note_on_c, 0, 57, 0
2, 42368, Note_on_c, 0, 36, 0
2, 42372, Note_on_c, 0, 55, 0
2, 42472, Note_on_c, 0, 62, 62
2, 42484, Note_on_c, 0, 53, 43
2, 42494, Note_on_c, 0, 56, 49
2, 42572, Note_on_c, 0, 53, 0
2, 42580, Note_on_c, 0, 62, 0
2, 42610, Note_on_c, 0, 56, 0
2, 42666, Note_on_c, 0, 31, 37
2, 42678, Note_on_c, 0, 60, 13
2, 42702, Note_on_c, 0, 31, 0
2, 42770, Note_on_c, 0, 60, 0
2, 42872, Note_on_c, 0, 55, 55
2, 42874, Note_on_c, 0, 60, 41
2, 42876, Note_on_c, 0, 57, 52
2, 42878, Note_on_c, 0, 64, 58
2, 42922, Note_on_c, 0, 43, 0
2, 42948, Note_on_c, 0, 36, 39
2, 43252, Note_on_c, 0, 43, 44
2, 43262, Note_on_c, 0, 42, 38
2, 43320, Note_on_c, 0, 42, 0
2, 43360, Note_on_c, 0, 43, 0
2, 43594, Note_on_c, 0, 43, 40
2, 43600, Note_on_c, 0, 42, 43
2, 43674, Note_on_c, 0, 42, 0
2, 43756, Note_on_c, 0, 43, 0
2, 43940, Note_on_c, 0, 42, 28
2, 43970, Note_on_c, 0, 43, 48
2, 43974, Note_on_c, 0, 42, 0
2, 43978, Note_on_c, 0, 36, 0
2, 44160, Note_on_c, 0, 31, 31
2, 44198, Note_on_c, 0, 31, 0
2, 44336, Note_on_c, 0, 31, 44
2, 44376, Note_on_c, 0, 31, 0
2, 44392, Control_c, 0, 64, 127
2, 44454, Control_c, 0, 64, 0
2, 44456, Note_on_c, 0, 43, 0
2, 44524, Note_on_c, 0, 36, 49
2, 44720, Note_on_c, 0, 55, 0
2, 44738, Note_on_c, 0, 42, 34
2, 44740, Note_on_c, 0, 43, 46
2, 44778, Note_on_c, 0, 42, 0
2, 44836, Note_on_c, 0, 57, 0
2, 44870, Note_on_c, 0, 60, 0
2, 44882, Note_on_c, 0, 43, 0
2, 44900, Note_on_c, 0, 64, 0
2, 44938, Control_c, 0, 64, 127
2, 45048, Control_c, 0, 64, 0
2, 45118, Note_on_c, 0, 64, 49
2, 45118, Note_on_c, 0, 53, 48
2, 45120, Note_on_c, 0, 56, 48
2, 45128, Note_on_c, 0, 59, 44
2, 45134, Note_on_c, 0, 43, 45
2, 45276, Note_on_c, 0, 43, 0
2, 45302, Control_c, 0, 64, 127
2, 45476, Note_on_c, 0, 43, 66
2, 45490, Note_on_c, 0, 42, 50
2, 45528, Control_c, 0, 64, 0
2, 45534, Note_on_c, 0, 42, 0
2, 45558, Note_on_c, 0, 53, 0
2, 45642, Note_on_c, 0, 53, 38
2, 45726, Note_on_c, 0, 64, 0
2, 45752, Note_on_c, 0, 59, 0
2, 45792, Note_on_c, 0, 43, 0
2, 45820, Note_on_c, 0, 56, 0
2, 45842, Note_on_c, 0, 53, 0
2, 45856, Note_on_c, 0, 42, 42
2, 45864, Control_c, 0, 64, 127
2, 45928, Note_on_c, 0, 36, 0
2, 45944, Note_on_c, 0, 42, 0
2, 45966, Control_c, 0, 64, 0
2, 46032, Note_on_c, 0, 52, 52
2, 46036, Note_on_c, 0, 36, 56
2, 46038, Note_on_c, 0, 55, 53
2, 46040, Note_on_c, 0, 60, 34
2, 46114, Note_on_c, 0, 52, 0
2, 46122, Note_on_c, 0, 60, 0
2, 46130, Control_c, 0, 64, 127
2, 46160, Note_on_c, 0, 55, 0
2, 46216, Control_c, 0, 64, 0
2, 46268, Note_on_c, 0, 43, 35
2, 46270, Note_on_c, 0, 53, 33
2, 46270, Note_on_c, 0, 62, 40
2, 46288, Note_on_c, 0, 36, 0
2, 46290, Note_on_c, 0, 55, 32
2, 46318, Control_c, 0, 64, 127
2, 46344, Note_on_c, 0, 53, 0
2, 46350, Note_on_c, 0, 43, 0
2, 46352, Note_on_c, 0, 62, 0
2, 46358, Note_on_c, 0, 55, 0
2, 46450, Note_on_c, 0, 64, 53
2, 46522, Note_on_c, 0, 64, 0
2, 46658, Note_on_c, 0, 41, 33
2, 46670, Control_c, 0, 64, 0
2, 46684, Note_on_c, 0, 63, 81
2, 46696, Note_on_c, 0, 69, 69
2, 46842, Control_c, 0, 64, 127
2, 47044, Note_on_c, 0, 57, 36
2, 47068, Note_on_c, 0, 48, 27
2, 47080, Note_on_c, 0, 63, 0
2, 47100, Control_c, 0, 64, 0
2, 47132, Note_on_c, 0, 57, 0
2, 47156, Note_on_c, 0, 69, 0
2, 47164, Note_on_c, 0, 48, 0
2, 47188, Control_c, 0, 64, 127
2, 47222, Note_on_c, 0, 63, 29
2, 47242, Note_on_c, 0, 41, 0
2, 47246, Note_on_c, 0, 59, 31
2, 47386, Note_on_c, 0, 59, 0
2, 47410, Note_on_c, 0, 63, 0
2, 47414, Control_c, 0, 64, 0
2, 47424, Note_on_c, 0, 62, 66
2, 47426, Note_on_c, 0, 40, 49
2, 47434, Note_on_c, 0, 67, 58
2, 47586, Control_c, 0, 64, 127
2, 47748, Note_on_c, 0, 62, 0
2, 47794, Note_on_c, 0, 55, 44
2, 47802, Note_on_c, 0, 47, 25
2, 47828, Control_c, 0, 64, 0
2, 47858, Note_on_c, 0, 40, 0
2, 47888, Note_on_c, 0, 55, 0
2, 47894, Note_on_c, 0, 67, 0
2, 47914, Note_on_c, 0, 47, 0
2, 48172, Note_on_c, 0, 65, 50
2, 48176, Note_on_c, 0, 61, 46
2, 48178, Note_on_c, 0, 55, 44
2, 48180, Note_on_c, 0, 58, 53
2, 48186, Note_on_c, 0, 45, 50
2, 48206, Note_on_c, 0, 53, 29
2, 48330, Control_c, 0, 64, 127
2, 48454, Note_on_c, 0, 55, 0
2, 48508, Note_on_c, 0, 65, 0
2, 48510, Note_on_c, 0, 61, 0
2, 48510, Note_on_c, 0, 53, 0
2, 48542, Note_on_c, 0, 55, 45
2, 48548, Note_on_c, 0, 64, 47
2, 48560, Note_on_c, 0, 52, 35
2, 48564, Control_c, 0, 64, 0
2, 48616, Note_on_c, 0, 55, 0
2, 48638, Note_on_c, 0, 45, 0
2, 48660, Note_on_c, 0, 64, 0
2, 48662, Note_on_c, 0, 52, 0
2, 48672, Note_on_c, 0, 58, 0
2, 48740, Note_on_c, 0, 49, 29
2, 48824, Control_c, 0, 64, 127
2, 48870, Control_c, 0, 64, 0
2, 48956, Note_on_c, 0, 60, 54
2, 48962, Note_on_c, 0, 65, 48
2, 48964, Note_on_c, 0, 57, 53
2, 48966, Note_on_c, 0, 49, 0
2, 48970, Note_on_c, 0, 62, 57
2, 48980, Note_on_c, 0, 50, 60
2, 49056, Note_on_c, 0, 62, 0
2, 49074, Note_on_c, 0, 65, 0
2, 49082, Note_on_c, 0, 60, 0
2, 49114, Note_on_c, 0, 57, 0
2, 49346, Note_on_c, 0, 50, 0
2, 49350, Note_on_c, 0, 53, 43
2, 49354, Note_on_c, 0, 45, 51
2, 49356, Note_on_c, 0, 62, 51
2, 49358, Note_on_c, 0, 57, 39
2, 49360, Note_on_c, 0, 60, 37
2, 49448, Note_on_c, 0, 45, 0
2, 49540, Note_on_c, 0, 41, 40
2, 49628, Note_on_c, 0, 41, 0
2, 49754, Note_on_c, 0, 45, 77
2, 49800, Note_on_c, 0, 38, 37
2, 49820, Note_on_c, 0, 53, 0
2, 49826, Note_on_c, 0, 57, 0
2, 49840, Note_on_c, 0, 38, 0
2, 49842, Note_on_c, 0, 60, 0
2, 49876, Note_on_c, 0, 62, 0
2, 50000, Note_on_c, 0, 53, 59
2, 50068, Note_on_c, 0, 53, 0
2, 50208, Note_on_c, 0, 45, 0
2, 50238, Note_on_c, 0, 41, 27
2, 50304, Note_on_c, 0, 41, 0
2, 50350, Note_on_c, 0, 61, 35
2, 50352, Note_on_c, 0, 56, 40
2, 50354, Note_on_c, 0, 58, 40
2, 50358, Note_on_c, 0, 53, 34
2, 50360, Note_on_c, 0, 42, 59
2, 50452, Control_c, 0, 64, 127
2, 50520, Note_on_c, 0, 53, 0
2, 50552, Control_c, 0, 64, 0
2, 50554, Note_on_c, 0, 58, 0
2, 50554, Note_on_c, 0, 56, 0
2, 50560, Note_on_c, 0, 42, 0
2, 50562, Note_on_c, 0, 61, 0
2, 50596, Note_on_c, 0, 53, 54
2, 50604, Note_on_c, 0, 57, 57
2, 50612, Note_on_c, 0, 59, 46
2, 50612, Note_on_c, 0, 62, 60
2, 50614, Note_on_c, 0, 43, 58
2, 50668, Note_on_c, 0, 53, 0
2, 50718, Note_on_c, 0, 57, 0
2, 50740, Control_c, 0, 64, 127
2, 50742, Note_on_c, 0, 59, 0
2, 50768, Note_on_c, 0, 62, 0
2, 50780, Note_on_c, 0, 43, 0
2, 50974, Note_on_c, 0, 71, 66
2, 50984, Note_on_c, 0, 72, 38
2, 51026, Note_on_c, 0, 72, 0
2, 51034, Note_on_c, 0, 71, 0
2, 51148, Note_on_c, 0, 77, 71
2, 51158, Note_on_c, 0, 76, 63
2, 51188, Note_on_c, 0, 76, 0
2, 51266, Note_on_c, 0, 77, 0
2, 51342, Note_on_c, 0, 61, 69
2, 51346, Note_on_c, 0, 66, 83
2, 51346, Note_on_c, 0, 55, 73
2, 51352, Note_on_c, 0, 84, 94
2, 51360, Control_c, 0, 64, 0
2, 51538, Control_c, 0, 64, 127
2, 51570, Note_on_c, 0, 84, 0
2, 51658, Note_on_c, 0, 66, 0
2, 51712, Note_on_c, 0, 82, 76
2, 51716, Note_on_c, 0, 65, 71
2, 51720, Note_on_c, 0, 73, 73
2, 51844, Control_c, 0, 64, 0
2, 51848, Note_on_c, 0, 65, 0
2, 51858, Note_on_c, 0, 73, 0
2, 51904, Note_on_c, 0, 82, 0
2, 51908, Note_on_c, 0, 72, 46
2, 51952, Control_c, 0, 64, 127
2, 52062, Note_on_c, 0, 72, 0
2, 52094, Note_on_c, 0, 64, 47
2, 52124, Note_on_c, 0, 55, 0
2, 52152, Note_on_c, 0, 64, 0
2, 52192, Note_on_c, 0, 61, 0
2, 52218, Control_c, 0, 64, 0
2, 52250, Note_on_c, 0, 67, 54
2, 52258, Note_on_c, 0, 62, 59
2, 52258, Note_on_c, 0, 74, 54
2, 52262, Note_on_c, 0, 72, 44
2, 52272, Note_on_c, 0, 56, 43
2, 52410, Note_on_c, 0, 67, 0
2, 52412, Note_on_c, 0, 72, 0
2, 52438, Control_c, 0, 64, 127
2, 52440, Note_on_c, 0, 62, 0
2, 52440, Note_on_c, 0, 72, 20
2, 52464, Note_on_c, 0, 76, 51
2, 52498, Note_on_c, 0, 74, 0
2, 52518, Note_on_c, 0, 56, 0
2, 52530, Note_on_c, 0, 72, 0
2, 52564, Control_c, 0, 64, 0
2, 52590, Note_on_c, 0, 76, 0
2, 52614, Note_on_c, 0, 66, 59
2, 52622, Note_on_c, 0, 61, 46
2, 52626, Note_on_c, 0, 55, 53
2, 52632, Note_on_c, 0, 77, 50
2, 52636, Note_on_c, 0, 72, 42
2, 52714, Note_on_c, 0, 55, 0
2, 52720, Control_c, 0, 64, 127
2, 52730, Note_on_c, 0, 72, 0
2, 52738, Note_on_c, 0, 66, 0
2, 52748, Note_on_c, 0, 77, 0
2, 52854, Note_on_c, 0, 54, 42
2, 52856, Note_on_c, 0, 65, 27
2, 52864, Note_on_c, 0, 60, 34
2, 52888, Note_on_c, 0, 65, 0
2, 52902, Note_on_c, 0, 61, 0
2, 52906, Note_on_c, 0, 60, 0
2, 52938, Note_on_c, 0, 54, 0
2, 52956, Control_c, 0, 64, 0
2, 53004, Note_on_c, 0, 86, 76
2, 53008, Note_on_c, 0, 74, 74
2, 53010, Note_on_c, 0, 64, 63
2, 53010, Note_on_c, 0, 53, 60
2, 53020, Note_on_c, 0, 59, 64
2, 53138, Control_c, 0, 64, 127
2, 53234, Note_on_c, 0, 64, 0
2, 53248, Note_on_c, 0, 59, 0
2, 53280, Note_on_c, 0, 53, 0
2, 53336, Note_on_c, 0, 86, 0
2, 53400, Note_on_c, 0, 74, 0
2, 53608, Note_on_c, 0, 43, 74
2, 53622, Control_c, 0, 64, 0
2, 53644, Note_on_c, 0, 50, 32
2, 53696, Note_on_c, 0, 50, 0
2, 53754, Control_c, 0, 64, 127
2, 53768, Note_on_c, 0, 43, 0
2, 54084, Note_on_c, 0, 54, 27
2, 54114, Note_on_c, 0, 56, 29
2, 54132, Control_c, 0, 64, 0
2, 54146, Note_on_c, 0, 57, 58
2, 54150, Note_on_c, 0, 56, 0
2, 54162, Note_on_c, 0, 72, 35
2, 54166, Note_on_c, 0, 62, 35
2, 54172, Note_on_c, 0, 65, 41
2, 54174, Note_on_c, 0, 69, 44
2, 54206, Note_on_c, 0, 54, 0
2, 54312, Note_on_c, 0, 62, 0
2, 54314, Note_on_c, 0, 65, 0
2, 54316, Note_on_c, 0, 57, 0
2, 54318, Note_on_c, 0, 72, 0
2, 54332, Note_on_c, 0, 54, 33
2, 54348, Note_on_c, 0, 69, 0
2, 54416, Note_on_c, 0, 56, 39
2, 54416, Note_on_c, 0, 72, 45
2, 54424, Note_on_c, 0, 62, 44
2, 54428, Note_on_c, 0, 57, 57
2, 54430, Note_on_c, 0, 65, 41
2, 54436, Note_on_c, 0, 69, 32
2, 54454, Note_on_c, 0, 54, 0
2, 54476, Note_on_c, 0, 56, 0
2, 54576, Note_on_c, 0, 72, 0
2, 54580, Note_on_c, 0, 69, 0
2, 54596, Note_on_c, 0, 62, 0
2, 54600, Control_c, 0, 64, 127
2, 54628, Note_on_c, 0, 65, 0
2, 54708, Note_on_c, 0, 57, 0
2, 54762, Note_on_c, 0, 71, 54
2, 54762, Note_on_c, 0, 55, 40
2, 54770, Note_on_c, 0, 65, 43
2, 54776, Note_on_c, 0, 62, 38
2, 54836, Control_c, 0, 64, 0
2, 54946, Note_on_c, 0, 62, 0
2, 54972, Note_on_c, 0, 65, 0
2, 54980, Note_on_c, 0, 71, 0
2, 55006, Note_on_c, 0, 55, 0
2, 55036, Note_on_c, 0, 69, 47
2, 55046, Note_on_c, 0, 65, 22
2, 55054, Note_on_c, 0, 62, 17
2, 55076, Note_on_c, 0, 53, 24
2, 55086, Control_c, 0, 64, 127
2, 55094, Note_on_c, 0, 65, 0
2, 55110, Note_on_c, 0, 62, 0
2, 55118, Note_on_c, 0, 69, 0
2, 55242, Control_c, 0, 64, 0
2, 55264, Note_on_c, 0, 53, 0
2, 55268, Note_on_c, 0, 55, 40
2, 55300, Note_on_c, 0, 72, 40
2, 55302, Note_on_c, 0, 57, 40
2, 55304, Note_on_c, 0, 55, 0
2, 55308, Note_on_c, 0, 65, 46
2, 55310, Note_on_c, 0, 69, 46
2, 55318, Note_on_c, 0, 62, 37
2, 55414, Control_c, 0, 64, 127
2, 55622, Note_on_c, 0, 69, 0
2, 55646, Note_on_c, 0, 72, 0
2, 55656, Note_on_c, 0, 65, 0
2, 55688, Note_on_c, 0, 62, 0
2, 55788, Note_on_c, 0, 57, 0
2, 55884, Control_c, 0, 64, 0
2, 55904, Note_on_c, 0, 69, 45
2, 55910, Note_on_c, 0, 60, 32
2, 55912, Note_on_c, 0, 65, 37
2, 55914, Note_on_c, 0, 62, 49
2, 55950, Note_on_c, 0, 53, 29
2, 56026, Note_on_c, 0, 65, 0
2, 56034, Control_c, 0, 64, 127
2, 56040, Note_on_c, 0, 69, 0
2, 56042, Note_on_c, 0, 53, 0
2, 56048, Note_on_c, 0, 62, 0
2, 56080, Note_on_c, 0, 60, 0
2, 56272, Note_on_c, 0, 65, 48
2, 56276, Note_on_c, 0, 60, 48
2, 56282, Note_on_c, 0, 57, 36
2, 56288, Note_on_c, 0, 52, 31
2, 56350, Note_on_c, 0, 60, 0
2, 56360, Note_on_c, 0, 65, 0
2, 56368, Note_on_c, 0, 57, 0
2, 56424, Control_c, 0, 64, 0
2, 56426, Note_on_c, 0, 52, 0
2, 56456, Note_on_c, 0, 61, 39
2, 56486, Note_on_c, 0, 49, 31
2, 56502, Note_on_c, 0, 53, 31
2, 56604, Note_on_c, 0, 53, 0
2, 56676, Note_on_c, 0, 64, 62
2, 56682, Note_on_c, 0, 49, 0
2, 56688, Note_on_c, 0, 58, 36
2, 56692, Note_on_c, 0, 55, 40
2, 56694, Note_on_c, 0, 52, 45
2, 56902, Note_on_c, 0, 55, 0
2, 56910, Control_c, 0, 64, 127
2, 56912, Note_on_c, 0, 58, 0
2, 56924, Note_on_c, 0, 61, 0
2, 56962, Note_on_c, 0, 64, 0
2, 57006, Note_on_c, 0, 52, 0
2, 57026, Control_c, 0, 64, 0
2, 57054, Note_on_c, 0, 57, 37
2, 57058, Note_on_c, 0, 53, 28
2, 57062, Note_on_c, 0, 50, 48
2, 57064, Note_on_c, 0, 62, 52
2, 57128, Note_on_c, 0, 50, 0
2, 57276, Control_c, 0, 64, 127
2, 57292, Note_on_c, 0, 53, 0
2, 57308, Note_on_c, 0, 57, 0
2, 57384, Note_on_c, 0, 62, 0
2, 57386, Control_c, 0, 64, 0
2, 57436, Note_on_c, 0, 53, 33
2, 57444, Note_on_c, 0, 48, 42
2, 57444, Note_on_c, 0, 57, 31
2, 57446, Note_on_c, 0, 60, 37
2, 57606, Control_c, 0, 64, 127
2, 57694, Note_on_c, 0, 57, 0
2, 57702, Note_on_c, 0, 53, 0
2, 57768, Note_on_c, 0, 48, 0
2, 57792, Note_on_c, 0, 60, 0
2, 57832, Note_on_c, 0, 45, 40
2, 57834, Note_on_c, 0, 57, 33
2, 57910, Control_c, 0, 64, 0
2, 57946, Note_on_c, 0, 57, 0
2, 57954, Note_on_c, 0, 45, 0
2, 58008, Note_on_c, 0, 53, 40
2, 58014, Note_on_c, 0, 57, 26
2, 58016, Note_on_c, 0, 48, 37
2, 58018, Note_on_c, 0, 60, 38
2, 58078, Note_on_c, 0, 53, 0
2, 58096, Note_on_c, 0, 57, 0
2, 58124, Note_on_c, 0, 60, 0
2, 58128, Note_on_c, 0, 48, 0
2, 58218, Note_on_c, 0, 45, 35
2, 58232, Control_c, 0, 64, 127
2, 58252, Note_on_c, 0, 45, 0
2, 58342, Control_c, 0, 64, 0
2, 58368, Note_on_c, 0, 43, 65
2, 58374, Note_on_c, 0, 57, 71
2, 58376, Note_on_c, 0, 62, 68
2, 58378, Note_on_c, 0, 53, 71
2, 58382, Note_on_c, 0, 60, 57
2, 58608, Note_on_c, 0, 43, 0
2, 58608, Control_c, 0, 64, 127
2, 58622, Note_on_c, 0, 53, 0
2, 58748, Control_c, 0, 64, 0
2, 58780, Control_c, 0, 64, 127
2, 58866, Note_on_c, 0, 62, 0
2, 58890, Note_on_c, 0, 60, 0
2, 58902, Note_on_c, 0, 57, 0
2, 59122, Note_on_c, 0, 41, 22
2, 59126, Control_c, 0, 64, 0
2, 59144, Note_on_c, 0, 58, 87
2, 59170, Note_on_c, 0, 41, 0
2, 59270, Note_on_c, 0, 59, 51
2, 59314, Note_on_c, 0, 59, 0
2, 59372, Note_on_c, 0, 56, 46
2, 59402, Note_on_c, 0, 58, 0
2, 59442, Note_on_c, 0, 56, 0
2, 59462, Note_on_c, 0, 55, 27
2, 59490, Note_on_c, 0, 55, 0
2, 59550, Note_on_c, 0, 61, 83
2, 59700, Note_on_c, 0, 62, 44
2, 59760, Note_on_c, 0, 62, 0
2, 59816, Note_on_c, 0, 59, 29
2, 59850, Note_on_c, 0, 59, 0
2, 59850, Note_on_c, 0, 58, 61
2, 59862, Note_on_c, 0, 61, 0
2, 59906, Note_on_c, 0, 58, 0
2, 59974, Note_on_c, 0, 64, 82
2, 59986, Note_on_c, 0, 62, 57
2, 60012, Note_on_c, 0, 62, 0
2, 60126, Note_on_c, 0, 64, 0
2, 60212, Note_on_c, 0, 43, 80
2, 60216, Note_on_c, 0, 41, 87
2, 60220, Note_on_c, 0, 42, 72
2, 60242, Note_on_c, 0, 41, 0
2, 60368, Note_on_c, 0, 42, 0
2, 60558, Note_on_c, 0, 62, 99
2, 60882, Note_on_c, 0, 62, 0
2, 60902, Note_on_c, 0, 59, 62
2, 61030, Note_on_c, 0, 59, 0
2, 61078, Note_on_c, 0, 62, 57
2, 61280, Note_on_c, 0, 62, 0
2, 61288, Note_on_c, 0, 59, 33
2, 61372, Note_on_c, 0, 59, 0
2, 61428, Note_on_c, 0, 60, 57
2, 61430, Note_on_c, 0, 43, 0
2, 61526, Control_c, 0, 64, 127
2, 61614, Note_on_c, 0, 60, 0
2, 61630, Note_on_c, 0, 55, 49
2, 61646, Note_on_c, 0, 36, 34
2, 61684, Control_c, 0, 64, 0
2, 61722, Note_on_c, 0, 55, 0
2, 61792, Note_on_c, 0, 53, 33
2, 61994, Note_on_c, 0, 53, 0
2, 62026, Note_on_c, 0, 52, 46
2, 62370, Note_on_c, 0, 43, 40
2, 62396, Note_on_c, 0, 42, 34
2, 62416, Note_on_c, 0, 36, 0
2, 62422, Note_on_c, 0, 42, 0
2, 62624, Note_on_c, 0, 43, 0
2, 62758, Note_on_c, 0, 43, 37
2, 62904, Control_c, 0, 64, 127
2, 62968, Note_on_c, 0, 43, 0
2, 62996, Note_on_c, 0, 52, 0
2, 63128, Note_on_c, 0, 43, 51
2, 63140, Control_c, 0, 64, 0
2, 63288, Control_c, 0, 64, 127
2, 63392, Note_on_c, 0, 43, 0
2, 63530, Note_on_c, 0, 42, 29
2, 63648, Control_c, 0, 64, 0
2, 63656, Note_on_c, 0, 42, 0
2, 63692, Note_on_c, 0, 43, 46
2, 63706, Note_on_c, 0, 72, 63
2, 63708, Note_on_c, 0, 64, 64
2, 63812, Control_c, 0, 64, 127
2, 63988, Note_on_c, 0, 64, 0
2, 64018, Note_on_c, 0, 43, 0
2, 64242, Note_on_c, 0, 72, 0
2, 64318, Note_on_c, 0, 55, 40
2, 64382, Note_on_c, 0, 55, 0
2, 64422, Control_c, 0, 64, 0
2, 64492, Note_on_c, 0, 55, 27
2, 64500, Note_on_c, 0, 72, 35
2, 64500, Note_on_c, 0, 63, 30
2, 64504, Note_on_c, 0, 48, 48
2, 64516, Note_on_c, 0, 67, 34
2, 64556, Control_c, 0, 64, 127
2, 64586, Note_on_c, 0, 72, 0
2, 64676, Note_on_c, 0, 63, 0
2, 64766, Note_on_c, 0, 74, 61
2, 64772, Note_on_c, 0, 55, 0
2, 64772, Note_on_c, 0, 63, 39
2, 64786, Note_on_c, 0, 59, 34
2, 64794, Note_on_c, 0, 48, 0
2, 64864, Note_on_c, 0, 74, 0
2, 64888, Note_on_c, 0, 59, 0
2, 64932, Note_on_c, 0, 63, 0
2, 64974, Note_on_c, 0, 67, 0
2, 65010, Note_on_c, 0, 75, 53
2, 65018, Note_on_c, 0, 63, 32
2, 65112, Note_on_c, 0, 63, 0
2, 65158, Note_on_c, 0, 75, 0
2, 65250, Note_on_c, 0, 73, 32
2, 65260, Control_c, 0, 64, 0
2, 65290, Note_on_c, 0, 63, 49
2, 65290, Note_on_c, 0, 69, 49
2, 65294, Note_on_c, 0, 79, 39
2, 65344, Note_on_c, 0, 73, 0
2, 65448, Control_c, 0, 64, 127
2, 65566, Note_on_c, 0, 79, 0
2, 65580, Note_on_c, 0, 63, 0
2, 65602, Note_on_c, 0, 69, 0
2, 65838, Note_on_c, 0, 53, 32
2, 65918, Note_on_c, 0, 53, 0
2, 66050, Note_on_c, 0, 67, 40
2, 66056, Note_on_c, 0, 51, 40
2, 66056, Note_on_c, 0, 57, 41
2, 66060, Control_c, 0, 64, 0
2, 66060, Note_on_c, 0, 62, 49
2, 66096, Note_on_c, 0, 41, 34
2, 66286, Note_on_c, 0, 57, 0
2, 66342, Note_on_c, 0, 57, 25
2, 66348, Note_on_c, 0, 51, 0
2, 66378, Note_on_c, 0, 62, 0
2, 66414, Note_on_c, 0, 67, 0
2, 66418, Control_c, 0, 64, 127
2, 66442, Note_on_c, 0, 57, 0
2, 66664, Note_on_c, 0, 69, 65
2, 66676, Note_on_c, 0, 57, 57
2, 66680, Note_on_c, 0, 62, 65
2, 66682, Note_on_c, 0, 51, 47
2, 66684, Control_c, 0, 64, 0
2, 66880, Control_c, 0, 64, 127
2, 66962, Note_on_c, 0, 57, 0
2, 66972, Note_on_c, 0, 69, 0
2, 67030, Note_on_c, 0, 67, 50
2, 67038, Note_on_c, 0, 51, 0
2, 67068, Note_on_c, 0, 48, 20
2, 67100, Note_on_c, 0, 62, 0
2, 67106, Note_on_c, 0, 48, 0
2, 67134, Note_on_c, 0, 41, 0
2, 67146, Control_c, 0, 64, 0
2, 67170, Note_on_c, 0, 67, 0
2, 67214, Note_on_c, 0, 65, 43
2, 67216, Note_on_c, 0, 41, 30
2, 67290, Note_on_c, 0, 41, 0
2, 67314, Note_on_c, 0, 65, 0
2, 67336, Control_c, 0, 64, 127
2, 67594, Control_c, 0, 64, 0
2, 67596, Note_on_c, 0, 70, 61
2, 67604, Note_on_c, 0, 46, 46
2, 67794, Note_on_c, 0, 54, 38
2, 67904, Note_on_c, 0, 70, 0
2, 67962, Note_on_c, 0, 58, 40
2, 67982, Note_on_c, 0, 62, 49
2, 68070, Note_on_c, 0, 54, 0
2, 68184, Note_on_c, 0, 69, 50
2, 68188, Note_on_c, 0, 57, 44
2, 68244, Control_c, 0, 64, 127
2, 68268, Note_on_c, 0, 57, 0
2, 68308, Note_on_c, 0, 62, 0
2, 68312, Note_on_c, 0, 69, 0
2, 68322, Note_on_c, 0, 58, 0
2, 68330, Control_c, 0, 64, 0
2, 68376, Note_on_c, 0, 58, 23
2, 68378, Note_on_c, 0, 67, 47
2, 68380, Note_on_c, 0, 55, 48
2, 68392, Note_on_c, 0, 62, 37
2, 68510, Control_c, 0, 64, 127
2, 68562, Note_on_c, 0, 62, 0
2, 68566, Note_on_c, 0, 58, 0
2, 68608, Note_on_c, 0, 55, 0
2, 68678, Note_on_c, 0, 67, 0
2, 68714, Control_c, 0, 64, 0
2, 68754, Note_on_c, 0, 54, 39
2, 68762, Note_on_c, 0, 58, 33
2, 68776, Note_on_c, 0, 66, 36
2, 68778, Note_on_c, 0, 62, 42
2, 68896, Note_on_c, 0, 58, 0
2, 68900, Control_c, 0, 64, 127
2, 68926, Note_on_c, 0, 54, 0
2, 68968, Note_on_c, 0, 58, 34
2, 68972, Note_on_c, 0, 62, 0
2, 68982, Note_on_c, 0, 66, 0
2, 69002, Control_c, 0, 64, 0
2, 69068, Note_on_c, 0, 58, 0
2, 69198, Control_c, 0, 64, 127
2, 69332, Control_c, 0, 64, 0
2, 69332, Note_on_c, 0, 58, 56
2, 69350, Note_on_c, 0, 52, 44
2, 69354, Note_on_c, 0, 64, 49
2, 69370, Note_on_c, 0, 62, 35
2, 69508, Note_on_c, 0, 52, 0
2, 69530, Note_on_c, 0, 55, 37
2, 69546, Note_on_c, 0, 67, 43
2, 69566, Control_c, 0, 64, 127
2, 69646, Note_on_c, 0, 67, 0
2, 69698, Note_on_c, 0, 55, 0
2, 69706, Note_on_c, 0, 64, 0
2, 69708, Note_on_c, 0, 62, 0
2, 69708, Note_on_c, 0, 58, 0
2, 69760, Note_on_c, 0, 52, 33
2, 69770, Control_c, 0, 64, 0
2, 69882, Note_on_c, 0, 52, 0
2, 69906, Note_on_c, 0, 58, 42
2, 69906, Note_on_c, 0, 53, 43
2, 69910, Note_on_c, 0, 65, 51
2, 69918, Note_on_c, 0, 62, 42
2, 69958, Control_c, 0, 64, 127
2, 69972, Note_on_c, 0, 46, 0
2, 70088, Note_on_c, 0, 58, 0
2, 70114, Note_on_c, 0, 46, 60
2, 70122, Control_c, 0, 64, 0
2, 70204, Note_on_c, 0, 62, 0
2, 70270, Control_c, 0, 64, 127
2, 70306, Note_on_c, 0, 58, 30
2, 70332, Note_on_c, 0, 53, 0
2, 70370, Note_on_c, 0, 58, 0
2, 70378, Note_on_c, 0, 46, 0
2, 70424, Note_on_c, 0, 65, 0
2, 70442, Control_c, 0, 64, 0
2, 70482, Note_on_c, 0, 46, 45
2, 70512, Note_on_c, 0, 56, 52
2, 70560, Note_on_c, 0, 46, 0
2, 70566, Note_on_c, 0, 56, 0
2, 70598, Control_c, 0, 64, 127
2, 70700, Note_on_c, 0, 70, 65
2, 70722, Note_on_c, 0, 65, 52
2, 70736, Note_on_c, 0, 56, 33
2, 70738, Note_on_c, 0, 61, 34
2, 70744, Note_on_c, 0, 60, 40
2, 70786, Control_c, 0, 64, 0
2, 70794, Note_on_c, 0, 70, 0
2, 70804, Note_on_c, 0, 72, 51
2, 70872, Note_on_c, 0, 70, 35
2, 70896, Note_on_c, 0, 72, 0
2, 70958, Note_on_c, 0, 65, 0
2, 70980, Note_on_c, 0, 70, 0
2, 71036, Note_on_c, 0, 69, 45
2, 71046, Note_on_c, 0, 61, 0
2, 71098, Note_on_c, 0, 69, 0
2, 71116, Note_on_c, 0, 60, 0
2, 71140, Note_on_c, 0, 70, 60
2, 71146, Control_c, 0, 64, 127
2, 71250, Note_on_c, 0, 70, 0
2, 71322, Note_on_c, 0, 77, 77
2, 71656, Note_on_c, 0, 61, 48
2, 71660, Note_on_c, 0, 65, 53
2, 71672, Control_c, 0, 64, 0
2, 71684, Note_on_c, 0, 70, 34
2, 71728, Note_on_c, 0, 56, 0
2, 71856, Note_on_c, 0, 70, 0
2, 71858, Control_c, 0, 64, 127
2, 72040, Note_on_c, 0, 56, 64
2, 72120, Note_on_c, 0, 65, 0
2, 72142, Control_c, 0, 64, 0
2, 72168, Note_on_c, 0, 61, 0
2, 72176, Note_on_c, 0, 56, 0
2, 72208, Note_on_c, 0, 67, 47
2, 72266, Control_c, 0, 64, 127
2, 72398, Note_on_c, 0, 27, 64
2, 72400, Note_on_c, 0, 77, 0
2, 72414, Control_c, 0, 64, 0
2, 72464, Note_on_c, 0, 27, 0
2, 72532, Control_c, 0, 64, 127
2, 72560, Note_on_c, 0, 67, 0
2, 72598, Note_on_c, 0, 67, 30
2, 72660, Note_on_c, 0, 67, 0
2, 72764, Note_on_c, 0, 61, 54
2, 72776, Note_on_c, 0, 55, 43
2, 72826, Note_on_c, 0, 61, 0
2, 72830, Note_on_c, 0, 55, 0
2, 72908, Control_c, 0, 64, 0
2, 72950, Note_on_c, 0, 61, 43
2, 72950, Note_on_c, 0, 59, 49
2, 72964, Note_on_c, 0, 63, 33
2, 72964, Note_on_c, 0, 64, 52
2, 72996, Note_on_c, 0, 63, 0
2, 73156, Note_on_c, 0, 52, 44
2, 73184, Note_on_c, 0, 59, 0
2, 73252, Note_on_c, 0, 64, 0
2, 73354, Control_c, 0, 64, 127
2, 73462, Note_on_c, 0, 52, 0
2, 73530, Note_on_c, 0, 45, 39
2, 73572, Note_on_c, 0, 45, 0
2, 73652, Control_c, 0, 64, 0
2, 73688, Note_on_c, 0, 61, 0
2, 73700, Note_on_c, 0, 58, 51
2, 73708, Note_on_c, 0, 44, 43
2, 73712, Note_on_c, 0, 55, 39
2, 73736, Note_on_c, 0, 51, 25
2, 73744, Note_on_c, 0, 55, 0
2, 73784, Note_on_c, 0, 58, 0
2, 73800, Control_c, 0, 64, 127
2, 73826, Note_on_c, 0, 44, 0
2, 73826, Note_on_c, 0, 51, 0
2, 74104, Control_c, 0, 64, 0
2, 74134, Note_on_c, 0, 75, 79
2, 74138, Note_on_c, 0, 70, 79
2, 74140, Note_on_c, 0, 65, 77
2, 74146, Note_on_c, 0, 60, 71
2, 74178, Note_on_c, 0, 58, 33
2, 74322, Note_on_c, 0, 75, 0
2, 74328, Note_on_c, 0, 65, 0
2, 74330, Note_on_c, 0, 60, 0
2, 74356, Note_on_c, 0, 70, 0
2, 74360, Note_on_c, 0, 58, 0
2, 74378, Note_on_c, 0, 75, 52
2, 74386, Note_on_c, 0, 70, 49
2, 74392, Note_on_c, 0, 65, 65
2, 74392, Note_on_c, 0, 60, 57
2, 74536, Control_c, 0, 64, 127
2, 74558, Note_on_c, 0, 75, 0
2, 74572, Note_on_c, 0, 70, 0
2, 74574, Note_on_c, 0, 65, 0
2, 74692, Note_on_c, 0, 60, 0
2, 74716, Control_c, 0, 64, 0
2, 74724, Note_on_c, 0, 70, 59
2, 74726, Note_on_c, 0, 65, 68
2, 74732, Note_on_c, 0, 58, 61
2, 74734, Note_on_c, 0, 74, 49
2, 74780, Note_on_c, 0, 74, 0
2, 74820, Note_on_c, 0, 70, 0
2, 74836, Note_on_c, 0, 65, 0
2, 74908, Note_on_c, 0, 58, 0
2, 74948, Note_on_c, 0, 72, 48
2, 74952, Note_on_c, 0, 62, 58
2, 74952, Note_on_c, 0, 67, 55
2, 74962, Note_on_c, 0, 56, 49
2, 74990, Control_c, 0, 64, 127
2, 75024, Note_on_c, 0, 67, 0
2, 75032, Note_on_c, 0, 72, 0
2, 75076, Note_on_c, 0, 62, 0
2, 75134, Note_on_c, 0, 56, 0
2, 75140, Control_c, 0, 64, 0
2, 75202, Note_on_c, 0, 65, 55
2, 75202, Note_on_c, 0, 70, 55
2, 75208, Note_on_c, 0, 55, 55
2, 75212, Note_on_c, 0, 60, 42
2, 75290, Note_on_c, 0, 70, 0
2, 75294, Note_on_c, 0, 65, 0
2, 75326, Note_on_c, 0, 60, 0
2, 75326, Control_c, 0, 64, 127
2, 75424, Note_on_c, 0, 55, 0
2, 75474, Control_c, 0, 64, 0
2, 75498, Note_on_c, 0, 68, 48
2, 75502, Note_on_c, 0, 63, 57
2, 75512, Note_on_c, 0, 60, 55
2, 75522, Note_on_c, 0, 51, 46
2, 75546, Note_on_c, 0, 60, 0
2, 75566, Note_on_c, 0, 68, 0
2, 75572, Note_on_c, 0, 63, 0
2, 75664, Note_on_c, 0, 51, 0
2, 75670, Control_c, 0, 64, 127
2, 75756, Control_c, 0, 64, 0
2, 75856, Note_on_c, 0, 65, 57
2, 75868, Note_on_c, 0, 48, 51
2, 75872, Note_on_c, 0, 55, 45
2, 75876, Note_on_c, 0, 60, 44
2, 75882, Control_c, 0, 64, 127
2, 75958, Note_on_c, 0, 55, 0
2, 75990, Note_on_c, 0, 65, 0
2, 75998, Control_c, 0, 64, 0
2, 76046, Note_on_c, 0, 55, 52
2, 76056, Note_on_c, 0, 63, 46
2, 76060, Note_on_c, 0, 51, 37
2, 76076, Note_on_c, 0, 48, 0
2, 76102, Control_c, 0, 64, 127
2, 76166, Note_on_c, 0, 51, 0
2, 76358, Control_c, 0, 64, 0
2, 76416, Note_on_c, 0, 45, 90
2, 76602, Control_c, 0, 64, 127
2, 76672, Note_on_c, 0, 55, 0
2, 76728, Note_on_c, 0, 60, 0
2, 76762, Note_on_c, 0, 63, 0
2, 76788, Note_on_c, 0, 45, 0
2, 77134, Control_c, 0, 64, 0
2, 77166, Note_on_c, 0, 72, 66
2, 77174, Note_on_c, 0, 66, 69
2, 77174, Note_on_c, 0, 63, 64
2, 77196, Note_on_c, 0, 57, 61
2, 77260, Control_c, 0, 64, 127
2, 77278, Note_on_c, 0, 72, 0
2, 77344, Note_on_c, 0, 63, 0
2, 77362, Note_on_c, 0, 66, 0
2, 77368, Control_c, 0, 64, 0
2, 77396, Note_on_c, 0, 57, 0
2, 77402, Note_on_c, 0, 71, 45
2, 77408, Note_on_c, 0, 68, 50
2, 77412, Note_on_c, 0, 65, 55
2, 77418, Note_on_c, 0, 74, 76
2, 77428, Note_on_c, 0, 59, 73
2, 77518, Control_c, 0, 64, 127
2, 77520, Note_on_c, 0, 68, 0
2, 77526, Note_on_c, 0, 71, 0
2, 77532, Note_on_c, 0, 74, 0
2, 77542, Note_on_c, 0, 65, 0
2, 77586, Note_on_c, 0, 59, 0
2, 77616, Note_on_c, 0, 58, 21
2, 77644, Control_c, 0, 64, 0
2, 77668, Note_on_c, 0, 59, 60
2, 77676, Note_on_c, 0, 58, 0
2, 77680, Note_on_c, 0, 75, 61
2, 77680, Note_on_c, 0, 60, 53
2, 77690, Note_on_c, 0, 66, 57
2, 77692, Note_on_c, 0, 72, 54
2, 77696, Note_on_c, 0, 69, 55
2, 77734, Note_on_c, 0, 59, 0
2, 77838, Control_c, 0, 64, 127
2, 77872, Note_on_c, 0, 75, 0
2, 77876, Note_on_c, 0, 66, 0
2, 77882, Note_on_c, 0, 60, 0
2, 77886, Note_on_c, 0, 69, 0
2, 77886, Control_c, 0, 64, 0
2, 77890, Note_on_c, 0, 72, 0
2, 77896, Note_on_c, 0, 57, 44
2, 77900, Note_on_c, 0, 58, 42
2, 77934, Note_on_c, 0, 57, 0
2, 77952, Note_on_c, 0, 75, 60
2, 77954, Note_on_c, 0, 59, 55
2, 77956, Note_on_c, 0, 58, 0
2, 77964, Note_on_c, 0, 60, 62
2, 77966, Note_on_c, 0, 72, 47
2, 77966, Note_on_c, 0, 66, 64
2, 77974, Note_on_c, 0, 69, 54
2, 77986, Note_on_c, 0, 59, 0
2, 78050, Control_c, 0, 64, 127
2, 78114, Note_on_c, 0, 66, 0
2, 78130, Note_on_c, 0, 69, 0
2, 78132, Note_on_c, 0, 75, 0
2, 78148, Note_on_c, 0, 72, 0
2, 78150, Note_on_c, 0, 58, 53
2, 78152, Note_on_c, 0, 60, 0
2, 78152, Note_on_c, 0, 57, 37
2, 78160, Control_c, 0, 64, 0
2, 78192, Note_on_c, 0, 57, 0
2, 78194, Note_on_c, 0, 59, 58
2, 78206, Note_on_c, 0, 58, 0
2, 78218, Note_on_c, 0, 75, 63
2, 78232, Note_on_c, 0, 72, 46
2, 78236, Note_on_c, 0, 60, 43
2, 78236, Note_on_c, 0, 69, 59
2, 78238, Note_on_c, 0, 66, 57
2, 78276, Note_on_c, 0, 59, 0
2, 78340, Control_c, 0, 64, 127
2, 78446, Note_on_c, 0, 66, 0
2, 78496, Note_on_c, 0, 75, 0
2, 78502, Note_on_c, 0, 72, 0
2, 78570, Note_on_c, 0, 66, 34
2, 78580, Note_on_c, 0, 74, 48
2, 78618, Note_on_c, 0, 66, 0
2, 78618, Note_on_c, 0, 58, 28
2, 78628, Note_on_c, 0, 60, 0
2, 78646, Control_c, 0, 64, 0
2, 78648, Note_on_c, 0, 58, 0
2, 78690, Note_on_c, 0, 74, 0
2, 78698, Note_on_c, 0, 69, 0
2, 78740, Note_on_c, 0, 58, 55
2, 78756, Note_on_c, 0, 72, 45
2, 78832, Control_c, 0, 64, 127
2, 78878, Note_on_c, 0, 72, 0
2, 78910, Control_c, 0, 64, 0
2, 78928, Note_on_c, 0, 58, 0
2, 78956, Note_on_c, 0, 75, 69
2, 78962, Note_on_c, 0, 60, 57
2, 78966, Note_on_c, 0, 69, 67
2, 78966, Note_on_c, 0, 66, 64
2, 78968, Note_on_c, 0, 59, 52
2, 78974, Note_on_c, 0, 72, 44
2, 78994, Note_on_c, 0, 59, 0
2, 79114, Control_c, 0, 64, 127
2, 79188, Note_on_c, 0, 72, 0
2, 79354, Note_on_c, 0, 66, 0
2, 79404, Control_c, 0, 64, 0
2, 79412, Note_on_c, 0, 69, 0
2, 79438, Note_on_c, 0, 75, 0
2, 79454, Note_on_c, 0, 60, 0
2, 79460, Note_on_c, 0, 57, 42
2, 79466, Note_on_c, 0, 63, 37
2, 79472, Note_on_c, 0, 72, 38
2, 79536, Control_c, 0, 64, 127
2, 79540, Note_on_c, 0, 63, 0
2, 79562, Note_on_c, 0, 72, 0
2, 79694, Control_c, 0, 64, 0
2, 79704, Note_on_c, 0, 74, 74
2, 79712, Note_on_c, 0, 57, 0
2, 79712, Note_on_c, 0, 59, 46
2, 79714, Note_on_c, 0, 62, 71
2, 79714, Note_on_c, 0, 71, 61
2, 79734, Note_on_c, 0, 64, 45
2, 79764, Note_on_c, 0, 64, 0
2, 79806, Note_on_c, 0, 59, 0
2, 79896, Note_on_c, 0, 71, 0
2, 79900, Note_on_c, 0, 74, 0
2, 79910, Note_on_c, 0, 62, 0
2, 80002, Note_on_c, 0, 74, 32
2, 80022, Note_on_c, 0, 71, 53
2, 80066, Note_on_c, 0, 67, 46
2, 80088, Note_on_c, 0, 74, 0
2, 80118, Note_on_c, 0, 71, 0
2, 80130, Note_on_c, 0, 67, 0
2, 80152, Note_on_c, 0, 62, 66
2, 80206, Note_on_c, 0, 62, 0
2, 80252, Note_on_c, 0, 60, 29
2, 80258, Note_on_c, 0, 67, 20
2, 80414, Note_on_c, 0, 67, 0
2, 80472, Note_on_c, 0, 60, 0
2, 80474, Note_on_c, 0, 58, 64
2, 80558, Note_on_c, 0, 58, 0
2, 80624, Note_on_c, 0, 67, 34
2, 80628, Note_on_c, 0, 59, 41
2, 80768, Note_on_c, 0, 59, 0
2, 80828, Note_on_c, 0, 50, 67
2, 80832, Note_on_c, 0, 67, 0
2, 80836, Note_on_c, 0, 49, 48
2, 80962, Note_on_c, 0, 49, 0
2, 80992, Note_on_c, 0, 59, 40
2, 81102, Control_c, 0, 64, 127
2, 81188, Note_on_c, 0, 59, 0
2, 81210, Note_on_c, 0, 55, 48
2, 81212, Control_c, 0, 64, 0
2, 81230, Note_on_c, 0, 44, 62
2, 81238, Note_on_c, 0, 51, 62
2, 81250, Note_on_c, 0, 50, 0
2, 81352, Control_c, 0, 64, 127
2, 81396, Note_on_c, 0, 55, 0
2, 81422, Note_on_c, 0, 44, 0
2, 81442, Note_on_c, 0, 51, 0
2, 81624, Note_on_c, 0, 53, 64
2, 81628, Note_on_c, 0, 65, 50
2, 81640, Note_on_c, 0, 63, 70
2, 81642, Control_c, 0, 64, 0
2, 81644, Note_on_c, 0, 58, 59
2, 81656, Note_on_c, 0, 65, 0
2, 81814, Control_c, 0, 64, 127
2, 81816, Note_on_c, 0, 70, 67
2, 81904, Note_on_c, 0, 53, 0
2, 81958, Note_on_c, 0, 58, 0
2, 81960, Note_on_c, 0, 63, 0
2, 81986, Note_on_c, 0, 67, 57
2, 81994, Note_on_c, 0, 70, 0
2, 82018, Control_c, 0, 64, 0
2, 82018, Note_on_c, 0, 65, 75
2, 82030, Note_on_c, 0, 60, 45
2, 82032, Note_on_c, 0, 55, 55
2, 82172, Note_on_c, 0, 67, 0
2, 82196, Note_on_c, 0, 72, 50
2, 82198, Control_c, 0, 64, 127
2, 82242, Note_on_c, 0, 55, 0
2, 82282, Note_on_c, 0, 65, 0
2, 82300, Note_on_c, 0, 60, 0
2, 82368, Note_on_c, 0, 72, 0
2, 82384, Note_on_c, 0, 67, 77
2, 82394, Control_c, 0, 64, 0
2, 82396, Note_on_c, 0, 56, 66
2, 82402, Note_on_c, 0, 77, 51
2, 82404, Note_on_c, 0, 62, 51
2, 82514, Note_on_c, 0, 77, 0
2, 82550, Control_c, 0, 64, 127
2, 82616, Note_on_c, 0, 67, 0
2, 82644, Note_on_c, 0, 56, 0
2, 82652, Note_on_c, 0, 62, 0
2, 82756, Note_on_c, 0, 82, 56
2, 82864, Control_c, 0, 64, 0
2, 82902, Note_on_c, 0, 82, 0
2, 82920, Note_on_c, 0, 43, 49
2, 82930, Note_on_c, 0, 50, 54
2, 82930, Note_on_c, 0, 74, 65
2, 82934, Note_on_c, 0, 86, 69
2, 82996, Note_on_c, 0, 43, 0
2, 82996, Control_c, 0, 64, 127
2, 83026, Note_on_c, 0, 50, 0
2, 83124, Note_on_c, 0, 74, 0
2, 83130, Note_on_c, 0, 86, 0
2, 83198, Note_on_c, 0, 83, 75
2, 83250, Note_on_c, 0, 54, 46
2, 83252, Note_on_c, 0, 64, 50
2, 83286, Note_on_c, 0, 59, 36
2, 83304, Note_on_c, 0, 83, 0
2, 83592, Control_c, 0, 64, 0
2, 83652, Note_on_c, 0, 59, 0
2, 83668, Note_on_c, 0, 64, 0
2, 83676, Control_c, 0, 64, 127
2, 83724, Note_on_c, 0, 54, 0
2, 83908, Note_on_c, 0, 62, 67
2, 83920, Note_on_c, 0, 57, 48
2, 83922, Note_on_c, 0, 52, 45
2, 83928, Control_c, 0, 64, 0
2, 84084, Control_c, 0, 64, 127
2, 84212, Note_on_c, 0, 79, 63
2, 84224, Note_on_c, 0, 57, 0
2, 84232, Note_on_c, 0, 71, 34
2, 84246, Note_on_c, 0, 52, 0
2, 84288, Note_on_c, 0, 71, 0
2, 84290, Note_on_c, 0, 62, 0
2, 84298, Note_on_c, 0, 79, 0
2, 84328, Note_on_c, 0, 76, 50
2, 84390, Note_on_c, 0, 76, 0
2, 84452, Control_c, 0, 64, 0
2, 84462, Note_on_c, 0, 72, 55
2, 84464, Note_on_c, 0, 77, 61
2, 84466, Note_on_c, 0, 68, 67
2, 84474, Note_on_c, 0, 69, 63
2, 84498, Note_on_c, 0, 74, 38
2, 84742, Note_on_c, 0, 69, 0
2, 84840, Note_on_c, 0, 67, 47
2, 84844, Control_c, 0, 64, 127
2, 85046, Control_c, 0, 64, 0
2, 85106, Note_on_c, 0, 65, 58
2, 85108, Note_on_c, 0, 67, 0
2, 85146, Note_on_c, 0, 77, 0
2, 85146, Note_on_c, 0, 74, 0
2, 85162, Note_on_c, 0, 72, 0
2, 85188, Control_c, 0, 64, 127
2, 85220, Note_on_c, 0, 68, 0
2, 85250, Note_on_c, 0, 65, 0
2, 85446, Note_on_c, 0, 68, 62
2, 85456, Note_on_c, 0, 62, 32
2, 85492, Control_c, 0, 64, 0
2, 85516, Note_on_c, 0, 62, 0
2, 85624, Note_on_c, 0, 65, 52
2, 85646, Note_on_c, 0, 68, 0
2, 85664, Control_c, 0, 64, 127
2, 85708, Note_on_c, 0, 65, 0
2, 85810, Note_on_c, 0, 44, 36
2, 85920, Note_on_c, 0, 44, 0
2, 85978, Control_c, 0, 64, 0
2, 86002, Note_on_c, 0, 57, 45
2, 86008, Note_on_c, 0, 60, 44
2, 86008, Note_on_c, 0, 67, 37
2, 86016, Note_on_c, 0, 55, 38
2, 86020, Note_on_c, 0, 43, 31
2, 86034, Note_on_c, 0, 65, 33
2, 86308, Note_on_c, 0, 57, 0
2, 86318, Note_on_c, 0, 60, 0
2, 86332, Note_on_c, 0, 65, 0
2, 86342, Note_on_c, 0, 55, 0
2, 86342, Note_on_c, 0, 67, 0
2, 86378, Note_on_c, 0, 50, 48
2, 86386, Control_c, 0, 64, 127
2, 86478, Note_on_c, 0, 50, 0
2, 86542, Note_on_c, 0, 43, 0
2, 86610, Note_on_c, 0, 53, 40
2, 86614, Note_on_c, 0, 57, 38
2, 86624, Note_on_c, 0, 60, 32
2, 86628, Control_c, 0, 64, 0
2, 86690, Control_c, 0, 64, 127
2, 86862, Control_c, 0, 64, 0
2, 86948, Control_c, 0, 64, 127
2, 86966, Note_on_c, 0, 53, 0
2, 86984, Note_on_c, 0, 57, 0
2, 86990, Note_on_c, 0, 31, 45
2, 87022, Note_on_c, 0, 31, 0
2, 87030, Note_on_c, 0, 60, 0
2, 87152, Control_c, 0, 64, 0
2, 87180, Note_on_c, 0, 55, 62
2, 87182, Note_on_c, 0, 56, 59
2, 87184, Note_on_c, 0, 60, 50
2, 87190, Note_on_c, 0, 43, 54
2, 87192, Note_on_c, 0, 52, 42
2, 87532, Note_on_c, 0, 52, 0
2, 87616, Note_on_c, 0, 55, 0
2, 87622, Control_c, 0, 64, 127
2, 87634, Note_on_c, 0, 43, 0
2, 87662, Note_on_c, 0, 56, 0
2, 87678, Note_on_c, 0, 60, 0
2, 87794, Note_on_c, 0, 56, 49
2, 87794, Control_c, 0, 64, 0
2, 87796, Note_on_c, 0, 60, 48
2, 87798, Note_on_c, 0, 55, 49
2, 87808, Note_on_c, 0, 53, 54
2, 87810, Note_on_c, 0, 43, 47
2, 88068, Note_on_c, 0, 43, 0
2, 88188, Note_on_c, 0, 55, 0
2, 88192, Control_c, 0, 64, 127
2, 88200, Note_on_c, 0, 43, 59
2, 88204, Note_on_c, 0, 53, 0
2, 88262, Note_on_c, 0, 60, 0
2, 88272, Note_on_c, 0, 56, 0
2, 88318, Control_c, 0, 64, 0
2, 88374, Note_on_c, 0, 56, 62
2, 88380, Note_on_c, 0, 60, 58
2, 88380, Note_on_c, 0, 55, 61
2, 88390, Note_on_c, 0, 53, 62
2, 88490, Control_c, 0, 64, 127
2, 88550, Note_on_c, 0, 55, 0
2, 88580, Note_on_c, 0, 53, 0
2, 88610, Note_on_c, 0, 56, 0
2, 88624, Note_on_c, 0, 60, 0
2, 88646, Note_on_c, 0, 43, 0
2, 88710, Control_c, 0, 64, 0
2, 88746, Note_on_c, 0, 56, 60
2, 88760, Note_on_c, 0, 55, 54
2, 88768, Note_on_c, 0, 60, 34
2, 88780, Control_c, 0, 64, 127
2, 88800, Note_on_c, 0, 60, 0
2, 88824, Note_on_c, 0, 55, 0
2, 88842, Note_on_c, 0, 56, 0
2, 88958, Note_on_c, 0, 43, 35
2, 89030, Control_c, 0, 64, 0
2, 89034, Note_on_c, 0, 43, 0
2, 89120, Note_on_c, 0, 55, 35
2, 89122, Note_on_c, 0, 52, 34
2, 89124, Note_on_c, 0, 60, 27
2, 89224, Note_on_c, 0, 60, 0
2, 89234, Note_on_c, 0, 55, 0
2, 89236, Note_on_c, 0, 52, 0
2, 89320, Note_on_c, 0, 36, 1
2, 89336, Control_c, 0, 64, 127
2, 89398, Control_c, 0, 64, 0
2, 89510, Note_on_c, 0, 64, 34
2, 89578, Note_on_c, 0, 64, 0
2, 89610, Control_c, 0, 64, 127
2, 89696, Control_c, 0, 64, 0
2, 89720, Note_on_c, 0, 67, 48
2, 89726, Note_on_c, 0, 62, 50
2, 89728, Note_on_c, 0, 59, 45
2, 89730, Note_on_c, 0, 36, 0
2, 89734, Note_on_c, 0, 45, 38
2, 89738, Note_on_c, 0, 64, 49
2, 89812, Note_on_c, 0, 45, 0
2, 90072, Note_on_c, 0, 45, 60
2, 90106, Note_on_c, 0, 45, 0
2, 90438, Note_on_c, 0, 43, 44
2, 90580, Note_on_c, 0, 43, 0
2, 90630, Note_on_c, 0, 36, 45
2, 90832, Note_on_c, 0, 64, 0
2, 90834, Note_on_c, 0, 62, 0
2, 90842, Note_on_c, 0, 67, 0
2, 90860, Note_on_c, 0, 59, 0
2, 91002, Control_c, 0, 64, 127
2, 91166, Control_c, 0, 64, 0
2, 91218, Note_on_c, 0, 64, 40
2, 91224, Note_on_c, 0, 43, 45
2, 91230, Note_on_c, 0, 55, 45
2, 91238, Note_on_c, 0, 59, 48
2, 91240, Note_on_c, 0, 60, 37
2, 91348, Note_on_c, 0, 64, 0
2, 91358, Note_on_c, 0, 60, 0
2, 91360, Note_on_c, 0, 59, 0
2, 91392, Note_on_c, 0, 55, 0
2, 91400, Note_on_c, 0, 43, 0
2, 91584, Note_on_c, 0, 56, 53
2, 91588, Note_on_c, 0, 62, 50
2, 91598, Note_on_c, 0, 43, 41
2, 91598, Note_on_c, 0, 53, 41
2, 91676, Control_c, 0, 64, 127
2, 91704, Note_on_c, 0, 62, 0
2, 91714, Control_c, 0, 64, 0
2, 91720, Note_on_c, 0, 53, 0
2, 91730, Note_on_c, 0, 56, 0
2, 91734, Note_on_c, 0, 43, 0
2, 91788, Note_on_c, 0, 60, 29
2, 91796, Note_on_c, 0, 55, 34
2, 91810, Note_on_c, 0, 52, 24
2, 91936, Note_on_c, 0, 52, 0
2, 91972, Note_on_c, 0, 55, 0
2, 91972, Note_on_c, 0, 60, 0
2, 91996, Control_c, 0, 64, 127
2, 92004, Note_on_c, 0, 43, 20
2, 92004, Note_on_c, 0, 42, 19
2, 92050, Note_on_c, 0, 43, 0
2, 92052, Note_on_c, 0, 36, 0
2, 92114, Control_c, 0, 64, 0
2, 92116, Note_on_c, 0, 42, 0
2, 92158, Note_on_c, 0, 57, 52
2, 92160, Note_on_c, 0, 55, 45
2, 92162, Note_on_c, 0, 60, 40
2, 92170, Note_on_c, 0, 64, 38
2, 92170, Note_on_c, 0, 36, 45
2, 92418, Note_on_c, 0, 43, 36
2, 92438, Note_on_c, 0, 42, 28
2, 92464, Note_on_c, 0, 42, 0
2, 92512, Note_on_c, 0, 43, 0
2, 92754, Note_on_c, 0, 55, 0
2, 92788, Note_on_c, 0, 57, 0
2, 92790, Note_on_c, 0, 43, 48
2, 92798, Note_on_c, 0, 42, 35
2, 92808, Note_on_c, 0, 64, 0
2, 92810, Note_on_c, 0, 60, 0
2, 92824, Note_on_c, 0, 42, 0
2, 92858, Control_c, 0, 64, 127
2, 92904, Note_on_c, 0, 43, 0
2, 93154, Note_on_c, 0, 43, 51
2, 93286, Note_on_c, 0, 43, 0
2, 93514, Note_on_c, 0, 43, 41
2, 93588, Note_on_c, 0, 36, 0
2, 93670, Note_on_c, 0, 43, 0
2, 93680, Control_c, 0, 64, 0
2, 93740, Note_on_c, 0, 36, 58
2, 93836, Control_c, 0, 64, 127
2, 93946, Control_c, 0, 64, 0
2, 93948, Note_on_c, 0, 43, 50
2, 93964, Note_on_c, 0, 42, 33
2, 93990, Note_on_c, 0, 42, 0
2, 94062, Control_c, 0, 64, 127
2, 94114, Note_on_c, 0, 43, 0
2, 94290, Control_c, 0, 64, 0
2, 94304, Note_on_c, 0, 56, 51
2, 94304, Note_on_c, 0, 64, 51
2, 94306, Note_on_c, 0, 43, 47
2, 94308, Note_on_c, 0, 60, 44
2, 94310, Note_on_c, 0, 55, 42
2, 94466, Note_on_c, 0, 43, 0
2, 94494, Control_c, 0, 64, 127
2, 94660, Note_on_c, 0, 43, 74
2, 94666, Note_on_c, 0, 42, 56
2, 94754, Note_on_c, 0, 43, 0
2, 94764, Note_on_c, 0, 42, 0
2, 94820, Note_on_c, 0, 64, 0
2, 94856, Note_on_c, 0, 60, 0
2, 94924, Note_on_c, 0, 56, 0
2, 94924, Control_c, 0, 64, 0
2, 94952, Note_on_c, 0, 55, 0
2, 94970, Control_c, 0, 64, 127
2, 95024, Note_on_c, 0, 42, 43
2, 95028, Note_on_c, 0, 43, 50
2, 95088, Note_on_c, 0, 42, 0
2, 95090, Note_on_c, 0, 36, 0
2, 95142, Control_c, 0, 64, 0
2, 95216, Note_on_c, 0, 52, 54
2, 95216, Note_on_c, 0, 60, 43
2, 95224, Note_on_c, 0, 55, 49
2, 95226, Note_on_c, 0, 36, 54
2, 95302, Note_on_c, 0, 52, 0
2, 95304, Note_on_c, 0, 43, 0
2, 95322, Note_on_c, 0, 60, 0
2, 95330, Note_on_c, 0, 55, 0
2, 95346, Control_c, 0, 64, 127
2, 95436, Note_on_c, 0, 62, 45
2, 95448, Control_c, 0, 64, 0
2, 95454, Note_on_c, 0, 57, 27
2, 95488, Note_on_c, 0, 62, 0
2, 95490, Note_on_c, 0, 57, 0
2, 95612, Note_on_c, 0, 57, 53
2, 95616, Note_on_c, 0, 64, 45
2, 95648, Note_on_c, 0, 57, 0
2, 95666, Control_c, 0, 64, 127
2, 95690, Note_on_c, 0, 64, 0
2, 95836, Note_on_c, 0, 43, 66
2, 95838, Control_c, 0, 64, 0
2, 96028, Note_on_c, 0, 43, 0
2, 96034, Control_c, 0, 64, 127
2, 96176, Control_c, 0, 64, 0
2, 96210, Note_on_c, 0, 43, 56
2, 96210, Note_on_c, 0, 69, 58
2, 96212, Note_on_c, 0, 59, 60
2, 96214, Note_on_c, 0, 63, 52
2, 96220, Note_on_c, 0, 65, 49
2, 96418, Control_c, 0, 64, 127
2, 96428, Note_on_c, 0, 43, 0
2, 96504, Control_c, 0, 64, 0
2, 96566, Note_on_c, 0, 36, 0
2, 96578, Note_on_c, 0, 43, 57
2, 96598, Control_c, 0, 64, 127
2, 96618, Note_on_c, 0, 42, 23
2, 96662, Note_on_c, 0, 42, 0
2, 96716, Control_c, 0, 64, 0
2, 96768, Note_on_c, 0, 36, 66
2, 96812, Note_on_c, 0, 43, 0
2, 96834, Note_on_c, 0, 59, 0
2, 96846, Note_on_c, 0, 69, 0
2, 96848, Note_on_c, 0, 65, 0
2, 96856, Control_c, 0, 64, 127
2, 96934, Note_on_c, 0, 63, 0
2, 97100, Control_c, 0, 64, 0
2, 97200, Control_c, 0, 64, 127
2, 97390, Note_on_c, 0, 43, 60
2, 97392, Note_on_c, 0, 67, 61
2, 97392, Note_on_c, 0, 65, 58
2, 97394, Note_on_c, 0, 57, 67
2, 97396, Control_c, 0, 64, 0
2, 97400, Note_on_c, 0, 60, 64
2, 97406, Note_on_c, 0, 42, 39
2, 97432, Note_on_c, 0, 42, 0
2, 97560, Control_c, 0, 64, 127
2, 97610, Note_on_c, 0, 60, 0
2, 97614, Note_on_c, 0, 67, 0
2, 97628, Note_on_c, 0, 57, 0
2, 97638, Note_on_c, 0, 43, 0
2, 97646, Note_on_c, 0, 65, 0
2, 97752, Note_on_c, 0, 65, 61
2, 97762, Note_on_c, 0, 43, 46
2, 97764, Note_on_c, 0, 57, 58
2, 97766, Note_on_c, 0, 60, 61
2, 97826, Control_c, 0, 64, 0
2, 97842, Note_on_c, 0, 36, 0
2, 97870, Note_on_c, 0, 65, 0
2, 97892, Note_on_c, 0, 60, 0
2, 97924, Note_on_c, 0, 57, 0
2, 97976, Control_c, 0, 64, 127
2, 98148, Note_on_c, 0, 36, 55
2, 98218, Note_on_c, 0, 43, 0
2, 98226, Note_on_c, 0, 36, 0
2, 98234, Control_c, 0, 64, 0
2, 98304, Note_on_c, 0, 65, 65
2, 98308, Note_on_c, 0, 57, 58
2, 98312, Note_on_c, 0, 60, 50
2, 98318, Note_on_c, 0, 53, 48
2, 98422, Control_c, 0, 64, 127
2, 98544, Note_on_c, 0, 53, 0
2, 98550, Note_on_c, 0, 65, 0
2, 98566, Note_on_c, 0, 57, 0
2, 98584, Note_on_c, 0, 60, 0
2, 98610, Control_c, 0, 64, 0
2, 98664, Note_on_c, 0, 65, 64
2, 98672, Note_on_c, 0, 57, 38
2, 98674, Note_on_c, 0, 60, 17
2, 98684, Note_on_c, 0, 64, 37
2, 98704, Control_c, 0, 64, 127
2, 98832, Note_on_c, 0, 65, 0
2, 98838, Note_on_c, 0, 60, 0
2, 98846, Note_on_c, 0, 57, 0
2, 98910, Note_on_c, 0, 53, 45
2, 98914, Control_c, 0, 64, 0
2, 98988, Note_on_c, 0, 53, 0
2, 99030, Note_on_c, 0, 64, 0
2, 99032, Control_c, 0, 64, 127
2, 99134, Control_c, 0, 64, 0
2, 99216, Note_on_c, 0, 57, 61
2, 99220, Note_on_c, 0, 60, 51
2, 99280, Note_on_c, 0, 62, 33
2, 99306, Control_c, 0, 64, 127
2, 99412, Note_on_c, 0, 60, 0
2, 99414, Note_on_c, 0, 57, 0
2, 99418, Note_on_c, 0, 62, 0
2, 99470, Note_on_c, 0, 64, 46
2, 99494, Note_on_c, 0, 57, 44
2, 99496, Note_on_c, 0, 60, 34
2, 99498, Note_on_c, 0, 53, 32
2, 99592, Note_on_c, 0, 53, 0
2, 99610, Note_on_c, 0, 57, 0
2, 99632, Note_on_c, 0, 60, 0
2, 99662, Note_on_c, 0, 64, 0
2, 99746, Note_on_c, 0, 64, 48
2, 99750, Note_on_c, 0, 56, 53
2, 99754, Note_on_c, 0, 53, 44
2, 99754, Note_on_c, 0, 59, 54
2, 99776, Control_c, 0, 64, 0
2, 99794, Note_on_c, 0, 62, 24
2, 99924, Control_c, 0, 64, 127
2, 99990, Note_on_c, 0, 62, 0
2, 100048, Note_on_c, 0, 53, 0
2, 100082, Note_on_c, 0, 59, 0
2, 100086, Note_on_c, 0, 64, 0
2, 100108, Note_on_c, 0, 53, 34
2, 100108, Note_on_c, 0, 62, 43
2, 100142, Note_on_c, 0, 59, 32
2, 100174, Control_c, 0, 64, 0
2, 100206, Control_c, 0, 64, 127
2, 100286, Note_on_c, 0, 59, 0
2, 100294, Note_on_c, 0, 53, 0
2, 100320, Note_on_c, 0, 56, 0
2, 100366, Note_on_c, 0, 62, 0
2, 100402, Control_c, 0, 64, 0
2, 100436, Note_on_c, 0, 56, 61
2, 100438, Note_on_c, 0, 62, 36
2, 100452, Note_on_c, 0, 53, 58
2, 100458, Note_on_c, 0, 59, 59
2, 100644, Control_c, 0, 64, 127
2, 100778, Control_c, 0, 64, 0
2, 100780, Note_on_c, 0, 43, 79
2, 100788, Note_on_c, 0, 42, 61
2, 100858, Note_on_c, 0, 53, 0
2, 100866, Note_on_c, 0, 42, 0
2, 100962, Note_on_c, 0, 53, 19
2, 101020, Control_c, 0, 64, 127
2, 101142, Note_on_c, 0, 59, 0
2, 101208, Note_on_c, 0, 53, 0
2, 101240, Note_on_c, 0, 56, 0
2, 101240, Note_on_c, 0, 62, 0
2, 101242, Note_on_c, 0, 42, 37
2, 101246, Note_on_c, 0, 43, 0
2, 101326, Control_c, 0, 64, 0
2, 101336, Note_on_c, 0, 42, 0
2, 101356, Note_on_c, 0, 53, 52
2, 101358, Note_on_c, 0, 43, 59
2, 101366, Note_on_c, 0, 62, 44
2, 101376, Note_on_c, 0, 57, 35
2, 101380, Note_on_c, 0, 60, 38
2, 101552, Control_c, 0, 64, 127
2, 101554, Note_on_c, 0, 62, 0
2, 101582, Note_on_c, 0, 60, 0
2, 101598, Note_on_c, 0, 64, 55
2, 101628, Note_on_c, 0, 53, 0
2, 101654, Note_on_c, 0, 57, 0
2, 101704, Note_on_c, 0, 64, 0
2, 101856, Note_on_c, 0, 65, 54
2, 101894, Note_on_c, 0, 43, 0
2, 101928, Control_c, 0, 64, 0
2, 101980, Note_on_c, 0, 65, 0
2, 101984, Control_c, 0, 64, 127
2, 102398, Note_on_c, 0, 76, 68
2, 102408, Note_on_c, 0, 72, 63
2, 102410, Note_on_c, 0, 68, 67
2, 102414, Note_on_c, 0, 64, 82
2, 102416, Note_on_c, 0, 65, 69
2, 102420, Control_c, 0, 64, 0
2, 102586, Control_c, 0, 64, 127
2, 102678, Control_c, 0, 64, 0
2, 102684, Note_on_c, 0, 62, 70
2, 102712, Note_on_c, 0, 64, 0
2, 102742, Control_c, 0, 64, 127
2, 102830, Note_on_c, 0, 65, 0
2, 102846, Note_on_c, 0, 72, 0
2, 102856, Note_on_c, 0, 68, 0
2, 102876, Note_on_c, 0, 76, 0
2, 102898, Control_c, 0, 64, 0
2, 102916, Note_on_c, 0, 62, 0
2, 102944, Note_on_c, 0, 65, 47
2, 102946, Note_on_c, 0, 74, 51
2, 102946, Note_on_c, 0, 68, 43
2, 102952, Note_on_c, 0, 60, 53
2, 103026, Control_c, 0, 64, 127
2, 103042, Note_on_c, 0, 74, 0
2, 103070, Note_on_c, 0, 68, 0
2, 103090, Note_on_c, 0, 65, 0
2, 103174, Control_c, 0, 64, 0
2, 103192, Note_on_c, 0, 65, 57
2, 103198, Note_on_c, 0, 72, 47
2, 103208, Note_on_c, 0, 56, 53
2, 103218, Note_on_c, 0, 60, 0
2, 103308, Control_c, 0, 64, 127
2, 103350, Note_on_c, 0, 65, 0
2, 103382, Note_on_c, 0, 72, 0
2, 103458, Note_on_c, 0, 68, 37
2, 103460, Note_on_c, 0, 56, 0
2, 103478, Note_on_c, 0, 53, 32
2, 103482, Note_on_c, 0, 65, 34
2, 103578, Note_on_c, 0, 65, 0
2, 103622, Note_on_c, 0, 68, 0
2, 103648, Note_on_c, 0, 53, 0
2, 103660, Control_c, 0, 64, 0
2, 103688, Note_on_c, 0, 60, 57
2, 103688, Note_on_c, 0, 72, 53
2, 103690, Note_on_c, 0, 65, 61
2, 103700, Note_on_c, 0, 68, 46
2, 103776, Control_c, 0, 64, 127
2, 103838, Note_on_c, 0, 72, 0
2, 103872, Note_on_c, 0, 68, 0
2, 103886, Note_on_c, 0, 60, 0
2, 103890, Note_on_c, 0, 65, 0
2, 103914, Note_on_c, 0, 56, 51
2, 103948, Note_on_c, 0, 65, 17
2, 103952, Note_on_c, 0, 70, 36
2, 103974, Note_on_c, 0, 60, 17
2, 104044, Note_on_c, 0, 60, 0
2, 104082, Note_on_c, 0, 65, 0
2, 104122, Note_on_c, 0, 70, 0
2, 104148, Note_on_c, 0, 56, 0
2, 104174, Note_on_c, 0, 53, 41
2, 104180, Note_on_c, 0, 60, 30
2, 104250, Note_on_c, 0, 60, 0
2, 104338, Note_on_c, 0, 53, 0
2, 104380, Control_c, 0, 64, 0
2, 104388, Note_on_c, 0, 56, 60
2, 104398, Note_on_c, 0, 72, 54
2, 104402, Note_on_c, 0, 65, 55
2, 104406, Note_on_c, 0, 60, 55
2, 104410, Note_on_c, 0, 68, 33
2, 104516, Note_on_c, 0, 72, 0
2, 104528, Control_c, 0, 64, 127
2, 104546, Note_on_c, 0, 68, 0
2, 104570, Note_on_c, 0, 65, 0
2, 104592, Note_on_c, 0, 60, 0
2, 104624, Note_on_c, 0, 56, 0
2, 104702, Note_on_c, 0, 68, 57
2, 104708, Control_c, 0, 64, 0
2, 104714, Note_on_c, 0, 60, 49
2, 104716, Note_on_c, 0, 53, 43
2, 104848, Control_c, 0, 64, 127
2, 104910, Note_on_c, 0, 53, 0
2, 104942, Note_on_c, 0, 68, 0
2, 104948, Note_on_c, 0, 60, 0
2, 105208, Control_c, 0, 64, 0
2, 105222, Note_on_c, 0, 56, 52
2, 105226, Note_on_c, 0, 52, 37
2, 105232, Note_on_c, 0, 60, 43
2, 105236, Note_on_c, 0, 64, 33
2, 105368, Note_on_c, 0, 64, 0
2, 105372, Note_on_c, 0, 56, 0
2, 105390, Note_on_c, 0, 52, 0
2, 105426, Note_on_c, 0, 67, 51
2, 105426, Note_on_c, 0, 56, 52
2, 105438, Note_on_c, 0, 55, 55
2, 105522, Note_on_c, 0, 67, 0
2, 105536, Note_on_c, 0, 56, 0
2, 105538, Note_on_c, 0, 60, 0
2, 105556, Note_on_c, 0, 54, 46
2, 105576, Note_on_c, 0, 55, 0
2, 105624, Control_c, 0, 64, 127
2, 105650, Note_on_c, 0, 54, 0
2, 105752, Note_on_c, 0, 52, 32
2, 105804, Control_c, 0, 64, 0
2, 105858, Note_on_c, 0, 52, 0
2, 105874, Note_on_c, 0, 56, 55
2, 105876, Note_on_c, 0, 67, 58
2, 105880, Note_on_c, 0, 60, 47
2, 105888, Note_on_c, 0, 55, 54
2, 106024, Control_c, 0, 64, 127
2, 106044, Note_on_c, 0, 55, 0
2, 106076, Note_on_c, 0, 56, 0
2, 106100, Note_on_c, 0, 60, 0
2, 106122, Note_on_c, 0, 67, 0
2, 106184, Note_on_c, 0, 48, 36
2, 106250, Control_c, 0, 64, 0
2, 106266, Note_on_c, 0, 48, 0
2, 106318, Note_on_c, 0, 65, 52
2, 106324, Note_on_c, 0, 60, 43
2, 106328, Note_on_c, 0, 56, 34
2, 106340, Note_on_c, 0, 53, 38
2, 106414, Control_c, 0, 64, 127
2, 106438, Note_on_c, 0, 60, 0
2, 106478, Note_on_c, 0, 56, 0
2, 106524, Control_c, 0, 64, 0
2, 106570, Note_on_c, 0, 56, 45
2, 106574, Note_on_c, 0, 60, 51
2, 106602, Note_on_c, 0, 48, 44
2, 106610, Note_on_c, 0, 53, 0
2, 106680, Control_c, 0, 64, 127
2, 106704, Note_on_c, 0, 48, 0
2, 106930, Note_on_c, 0, 44, 59
2, 106938, Note_on_c, 0, 65, 0
2, 106946, Control_c, 0, 64, 0
2, 106956, Note_on_c, 0, 56, 0
2, 106958, Note_on_c, 0, 60, 0
2, 107110, Control_c, 0, 64, 127
2, 107268, Note_on_c, 0, 44, 0
2, 107480, Control_c, 0, 64, 0
2, 107514, Note_on_c, 0, 43, 34
2, 107518, Note_on_c, 0, 62, 52
2, 107524, Note_on_c, 0, 53, 24
2, 107538, Note_on_c, 0, 50, 28
2, 107544, Note_on_c, 0, 57, 19
2, 107650, Control_c, 0, 64, 127
2, 107702, Note_on_c, 0, 53, 0
2, 107772, Note_on_c, 0, 57, 0
2, 107844, Note_on_c, 0, 50, 0
2, 108008, Note_on_c, 0, 62, 0
2, 108074, Control_c, 0, 64, 0
2, 108120, Note_on_c, 0, 64, 50
2, 108128, Note_on_c, 0, 49, 38
2, 108130, Note_on_c, 0, 58, 50
2, 108132, Note_on_c, 0, 55, 42
2, 108138, Note_on_c, 0, 61, 34
2, 108248, Note_on_c, 0, 64, 0
2, 108272, Note_on_c, 0, 61, 0
2, 108276, Control_c, 0, 64, 127
2, 108282, Note_on_c, 0, 58, 0
2, 108310, Note_on_c, 0, 55, 0
2, 108374, Note_on_c, 0, 49, 0
2, 108402, Control_c, 0, 64, 0
2, 108490, Note_on_c, 0, 65, 57
2, 108492, Note_on_c, 0, 58, 46
2, 108500, Note_on_c, 0, 50, 50
2, 108514, Note_on_c, 0, 55, 28
2, 108566, Control_c, 0, 64, 127
2, 108570, Note_on_c, 0, 55, 0
2, 108582, Note_on_c, 0, 58, 0
2, 108602, Note_on_c, 0, 65, 0
2, 108652, Control_c, 0, 64, 0
2, 108708, Note_on_c, 0, 50, 0
2, 108732, Note_on_c, 0, 67, 43
2, 108736, Note_on_c, 0, 52, 52
2, 108736, Note_on_c, 0, 57, 49
2, 108738, Note_on_c, 0, 60, 51
2, 108852, Note_on_c, 0, 60, 0
2, 108862, Note_on_c, 0, 57, 0
2, 108880, Control_c, 0, 64, 127
2, 108906, Note_on_c, 0, 52, 0
2, 108966, Note_on_c, 0, 67, 0
2, 109076, Control_c, 0, 64, 0
2, 109090, Note_on_c, 0, 56, 53
2, 109100, Note_on_c, 0, 53, 44
2, 109108, Note_on_c, 0, 59, 49
2, 109118, Note_on_c, 0, 62, 52
2, 109228, Note_on_c, 0, 43, 0
2, 109262, Control_c, 0, 64, 127
2, 109342, Note_on_c, 0, 43, 54
2, 109344, Note_on_c, 0, 56, 0
2, 109382, Note_on_c, 0, 59, 0
2, 109396, Note_on_c, 0, 62, 0
2, 109420, Note_on_c, 0, 53, 0
2, 109424, Note_on_c, 0, 43, 0
2, 109834, Control_c, 0, 64, 0
2, 109856, Note_on_c, 0, 64, 64
2, 109864, Note_on_c, 0, 77, 89
2, 109866, Note_on_c, 0, 53, 41
2, 109872, Note_on_c, 0, 59, 49
2, 109964, Note_on_c, 0, 77, 0
2, 110002, Note_on_c, 0, 64, 0
2, 110072, Note_on_c, 0, 70, 52
2, 110102, Note_on_c, 0, 59, 0
2, 110186, Note_on_c, 0, 53, 0
2, 110228, Note_on_c, 0, 70, 0
2, 110246, Note_on_c, 0, 67, 34
2, 110428, Note_on_c, 0, 74, 68
2, 110446, Note_on_c, 0, 62, 55
2, 110460, Note_on_c, 0, 67, 0
2, 110474, Note_on_c, 0, 57, 35
2, 110476, Note_on_c, 0, 52, 32
2, 110496, Note_on_c, 0, 62, 0
2, 110518, Note_on_c, 0, 57, 0
2, 110572, Note_on_c, 0, 52, 0
2, 110738, Note_on_c, 0, 74, 0
2, 110776, Note_on_c, 0, 71, 62
2, 110794, Note_on_c, 0, 55, 64
2, 110798, Note_on_c, 0, 54, 53
2, 110876, Note_on_c, 0, 54, 0
2, 110898, Note_on_c, 0, 71, 0
2, 110956, Note_on_c, 0, 72, 44
2, 111086, Note_on_c, 0, 72, 0
2, 111138, Note_on_c, 0, 67, 55
2, 111140, Note_on_c, 0, 55, 0
2, 111242, Note_on_c, 0, 67, 0
2, 111322, Note_on_c, 0, 64, 29
2, 111444, Note_on_c, 0, 64, 0
2, 111448, Control_c, 0, 64, 127
2, 111530, Note_on_c, 0, 62, 34
2, 111532, Note_on_c, 0, 43, 45
2, 111544, Note_on_c, 0, 42, 27
2, 111548, Control_c, 0, 64, 0
2, 111570, Note_on_c, 0, 43, 0
2, 111594, Note_on_c, 0, 42, 0
2, 111632, Note_on_c, 0, 62, 0
2, 111692, Note_on_c, 0, 60, 30
2, 111810, Note_on_c, 0, 60, 0
2, 111872, Control_c, 0, 64, 127
2, 111908, Note_on_c, 0, 42, 45
2, 112020, Control_c, 0, 64, 0
2, 112030, Note_on_c, 0, 42, 0
2, 112086, Note_on_c, 0, 43, 40
2, 112090, Note_on_c, 0, 53, 51
2, 112096, Note_on_c, 0, 60, 43
2, 112360, Note_on_c, 0, 43, 0
2, 112468, Note_on_c, 0, 43, 45
2, 112544, Control_c, 0, 64, 127
2, 112546, Note_on_c, 0, 43, 0
2, 112700, Control_c, 0, 64, 0
2, 112704, Note_on_c, 0, 50, 41
2, 112708, Note_on_c, 0, 53, 0
2, 112710, Note_on_c, 0, 43, 46
2, 112764, Note_on_c, 0, 60, 0
2, 112810, Note_on_c, 0, 43, 0
2, 112976, Note_on_c, 0, 50, 0
2, 113086, Note_on_c, 0, 43, 36
2, 113088, Note_on_c, 0, 51, 35
2, 113092, Control_c, 0, 64, 127
2, 113194, Control_c, 0, 64, 0
2, 113248, Note_on_c, 0, 51, 0
2, 113250, Note_on_c, 0, 43, 0
2, 113282, Note_on_c, 0, 52, 37
2, 113360, Note_on_c, 0, 52, 0
2, 113374, Control_c, 0, 64, 127
2, 113488, Note_on_c, 0, 36, 46
2, 113522, Note_on_c, 0, 36, 0
2, 113664, Note_on_c, 0, 76, 68
2, 113704, Note_on_c, 0, 64, 30
2, 113942, Note_on_c, 0, 76, 0
2, 113946, Note_on_c, 0, 64, 0
2, 114008, Control_c, 0, 64, 0
2, 114028, Note_on_c, 0, 55, 51
2, 114028, Note_on_c, 0, 76, 44
2, 114034, Note_on_c, 0, 48, 60
2, 114036, Note_on_c, 0, 64, 57
2, 114156, Control_c, 0, 64, 127
2, 114246, Note_on_c, 0, 64, 0
2, 114250, Note_on_c, 0, 76, 0
2, 114266, Note_on_c, 0, 48, 0
2, 114308, Note_on_c, 0, 64, 61
2, 114310, Note_on_c, 0, 76, 60
2, 114312, Control_c, 0, 64, 0
2, 114316, Note_on_c, 0, 68, 56
2, 114320, Note_on_c, 0, 72, 53
2, 114328, Note_on_c, 0, 56, 67
2, 114330, Note_on_c, 0, 48, 53
2, 114356, Note_on_c, 0, 55, 0
2, 114470, Control_c, 0, 64, 127
2, 114600, Note_on_c, 0, 64, 0
2, 114608, Note_on_c, 0, 48, 0
2, 114612, Note_on_c, 0, 76, 0
2, 114634, Note_on_c, 0, 68, 0
2, 114640, Note_on_c, 0, 56, 0
2, 114648, Note_on_c, 0, 72, 0
2, 114686, Note_on_c, 0, 76, 50
2, 114692, Note_on_c, 0, 68, 46
2, 114698, Note_on_c, 0, 64, 63
2, 114700, Note_on_c, 0, 56, 62
2, 114708, Note_on_c, 0, 48, 57
2, 114710, Note_on_c, 0, 72, 58
2, 114712, Control_c, 0, 64, 0
2, 114836, Control_c, 0, 64, 127
2, 114850, Note_on_c, 0, 48, 0
2, 114870, Note_on_c, 0, 64, 0
2, 114882, Note_on_c, 0, 72, 0
2, 114884, Note_on_c, 0, 76, 0
2, 114884, Note_on_c, 0, 56, 0
2, 114890, Note_on_c, 0, 68, 0
2, 115064, Control_c, 0, 64, 0
2, 115076, Note_on_c, 0, 76, 74
2, 115078, Note_on_c, 0, 64, 90
2, 115080, Note_on_c, 0, 69, 79
2, 115080, Note_on_c, 0, 72, 67
2, 115082, Note_on_c, 0, 57, 89
2, 115086, Note_on_c, 0, 48, 81
2, 115228, Control_c, 0, 64, 127
2, 115362, Note_on_c, 0, 48, 0
2, 115366, Note_on_c, 0, 64, 0
2, 115388, Note_on_c, 0, 57, 0
2, 115392, Note_on_c, 0, 76, 0
2, 115392, Note_on_c, 0, 69, 0
2, 115402, Note_on_c, 0, 72, 0
2, 115456, Note_on_c, 0, 57, 70
2, 115458, Note_on_c, 0, 48, 73
2, 115460, Note_on_c, 0, 76, 53
2, 115468, Note_on_c, 0, 72, 55
2, 115470, Note_on_c, 0, 64, 71
2, 115474, Note_on_c, 0, 69, 60
2, 115534, Control_c, 0, 64, 0
2, 115570, Note_on_c, 0, 48, 0
2, 115578, Note_on_c, 0, 57, 0
2, 115580, Note_on_c, 0, 64, 0
2, 115580, Note_on_c, 0, 76, 0
2, 115582, Note_on_c, 0, 69, 0
2, 115592, Note_on_c, 0, 72, 0
2, 115640, Note_on_c, 0, 76, 47
2, 115644, Control_c, 0, 64, 127
2, 115646, Note_on_c, 0, 57, 47
2, 115648, Note_on_c, 0, 48, 46
2, 115648, Note_on_c, 0, 64, 53
2, 115656, Note_on_c, 0, 72, 49
2, 115662, Note_on_c, 0, 69, 42
2, 115728, Note_on_c, 0, 48, 0
2, 115732, Note_on_c, 0, 57, 0
2, 115744, Note_on_c, 0, 64, 0
2, 115756, Note_on_c, 0, 76, 0
2, 115758, Note_on_c, 0, 69, 0
2, 115770, Note_on_c, 0, 72, 0
2, 115846, Note_on_c, 0, 48, 54
2, 115848, Note_on_c, 0, 57, 56
2, 115850, Note_on_c, 0, 76, 48
2, 115854, Note_on_c, 0, 72, 48
2, 115862, Note_on_c, 0, 69, 61
2, 115862, Note_on_c, 0, 64, 61
2, 115916, Note_on_c, 0, 48, 0
2, 115918, Note_on_c, 0, 57, 0
2, 115932, Note_on_c, 0, 76, 0
2, 115942, Note_on_c, 0, 64, 0
2, 115962, Note_on_c, 0, 72, 0
2, 115966, Note_on_c, 0, 69, 0
2, 115980, Control_c, 0, 64, 0
2, 116024, Note_on_c, 0, 74, 49
2, 116026, Note_on_c, 0, 56, 51
2, 116028, Note_on_c, 0, 69, 50
2, 116030, Note_on_c, 0, 48, 49
2, 116040, Note_on_c, 0, 64, 35
2, 116080, Note_on_c, 0, 48, 0
2, 116094, Note_on_c, 0, 56, 0
2, 116094, Note_on_c, 0, 64, 0
2, 116118, Note_on_c, 0, 69, 0
2, 116128, Note_on_c, 0, 74, 0
2, 116364, Note_on_c, 0, 72, 50
2, 116366, Note_on_c, 0, 56, 53
2, 116368, Note_on_c, 0, 67, 53
2, 116380, Note_on_c, 0, 64, 35
2, 116386, Note_on_c, 0, 48, 42
2, 116388, Control_c, 0, 64, 127
2, 116430, Note_on_c, 0, 64, 0
2, 116446, Note_on_c, 0, 67, 0
2, 116462, Note_on_c, 0, 72, 0
2, 116466, Note_on_c, 0, 48, 0
2, 116486, Note_on_c, 0, 56, 0
2, 116732, Control_c, 0, 64, 0
2, 116750, Note_on_c, 0, 76, 74
2, 116754, Note_on_c, 0, 71, 80
2, 116756, Note_on_c, 0, 64, 82
2, 116760, Note_on_c, 0, 55, 77
2, 116762, Note_on_c, 0, 48, 79
2, 116904, Control_c, 0, 64, 127
2, 117024, Note_on_c, 0, 64, 0
2, 117026, Note_on_c, 0, 48, 0
2, 117116, Note_on_c, 0, 71, 0
2, 117130, Note_on_c, 0, 64, 40
2, 117130, Note_on_c, 0, 48, 61
2, 117220, Note_on_c, 0, 64, 0
2, 117292, Note_on_c, 0, 55, 0
2, 117294, Note_on_c, 0, 76, 0
2, 117348, Note_on_c, 0, 68, 60
2, 117356, Note_on_c, 0, 64, 57
2, 117358, Control_c, 0, 64, 0
2, 117360, Note_on_c, 0, 56, 62
2, 117500, Control_c, 0, 64, 127
2, 117586, Note_on_c, 0, 48, 0
2, 117734, Note_on_c, 0, 48, 56
2, 117744, Note_on_c, 0, 64, 0
2, 117772, Note_on_c, 0, 68, 0
2, 117878, Note_on_c, 0, 56, 0
2, 118088, Note_on_c, 0, 64, 57
2, 118090, Note_on_c, 0, 60, 47
2, 118092, Note_on_c, 0, 67, 54
2, 118110, Note_on_c, 0, 57, 58
2, 118112, Control_c, 0, 64, 0
2, 118282, Note_on_c, 0, 48, 0
2, 118408, Control_c, 0, 64, 127
2, 118468, Note_on_c, 0, 48, 73
2, 118534, Note_on_c, 0, 60, 0
2, 118572, Control_c, 0, 64, 0
2, 118586, Note_on_c, 0, 57, 0
2, 118616, Note_on_c, 0, 64, 0
2, 118646, Note_on_c, 0, 60, 30
2, 118650, Control_c, 0, 64, 127
2, 118758, Note_on_c, 0, 60, 0
2, 118814, Note_on_c, 0, 48, 0
2, 118850, Note_on_c, 0, 67, 0
2, 118850, Note_on_c, 0, 48, 28
2, 118864, Note_on_c, 0, 56, 81
2, 118924, Control_c, 0, 64, 0
2, 119022, Note_on_c, 0, 64, 66
2, 119026, Note_on_c, 0, 72, 46
2, 119026, Note_on_c, 0, 67, 57
2, 119104, Control_c, 0, 64, 127
2, 119154, Note_on_c, 0, 48, 0
2, 119200, Note_on_c, 0, 72, 0
2, 119232, Note_on_c, 0, 64, 0
2, 119236, Note_on_c, 0, 67, 0
2, 119270, Note_on_c, 0, 48, 55
2, 119284, Note_on_c, 0, 56, 0
2, 119370, Control_c, 0, 64, 0
2, 119416, Note_on_c, 0, 74, 62
2, 119416, Note_on_c, 0, 67, 68
2, 119428, Note_on_c, 0, 64, 63
2, 119432, Note_on_c, 0, 56, 60
2, 119520, Note_on_c, 0, 48, 0
2, 119550, Control_c, 0, 64, 127
2, 119562, Note_on_c, 0, 64, 0
2, 119592, Note_on_c, 0, 67, 0
2, 119606, Note_on_c, 0, 56, 0
2, 119610, Note_on_c, 0, 74, 0
2, 119670, Note_on_c, 0, 48, 51
2, 119756, Note_on_c, 0, 48, 0
2, 119770, Control_c, 0, 64, 0
2, 119816, Note_on_c, 0, 48, 39
2, 119818, Note_on_c, 0, 76, 71
2, 119820, Note_on_c, 0, 55, 65
2, 119822, Note_on_c, 0, 64, 80
2, 119822, Note_on_c, 0, 72, 70
2, 119858, Note_on_c, 0, 74, 26
2, 119900, Note_on_c, 0, 74, 0
2, 119942, Control_c, 0, 64, 127
2, 119976, Note_on_c, 0, 76, 0
2, 119976, Note_on_c, 0, 64, 0
2, 120012, Note_on_c, 0, 72, 0
2, 120042, Note_on_c, 0, 76, 35
2, 120052, Note_on_c, 0, 64, 58
2, 120066, Note_on_c, 0, 72, 48
2, 120128, Note_on_c, 0, 64, 0
2, 120140, Note_on_c, 0, 76, 0
2, 120148, Note_on_c, 0, 72, 0
2, 120218, Note_on_c, 0, 76, 42
2, 120230, Note_on_c, 0, 64, 42
2, 120236, Note_on_c, 0, 72, 26
2, 120328, Note_on_c, 0, 76, 0
2, 120330, Note_on_c, 0, 64, 0
2, 120340, Note_on_c, 0, 72, 0
2, 120356, Note_on_c, 0, 55, 0
2, 120356, Note_on_c, 0, 48, 0
2, 120458, Control_c, 0, 64, 0
2, 120460, Note_on_c, 0, 76, 60
2, 120466, Note_on_c, 0, 55, 50
2, 120468, Note_on_c, 0, 48, 53
2, 120472, Note_on_c, 0, 64, 58
2, 120478, Note_on_c, 0, 71, 42
2, 120534, Note_on_c, 0, 71, 0
2, 120576, Note_on_c, 0, 64, 0
2, 120584, Control_c, 0, 64, 127
2, 120610, Note_on_c, 0, 76, 0
2, 120612, Note_on_c, 0, 48, 0
2, 120642, Note_on_c, 0, 55, 0
2, 120832, Note_on_c, 0, 76, 57
2, 120838, Note_on_c, 0, 55, 36
2, 120846, Note_on_c, 0, 64, 41
2, 120848, Note_on_c, 0, 71, 55
2, 120914, Note_on_c, 0, 55, 0
2, 120926, Note_on_c, 0, 64, 0
2, 121098, Note_on_c, 0, 71, 0
2, 121140, Note_on_c, 0, 76, 0
2, 121230, Note_on_c, 0, 47, 41
2, 121234, Control_c, 0, 64, 0
2, 121234, Note_on_c, 0, 40, 49
2, 121240, Note_on_c, 0, 76, 60
2, 121244, Note_on_c, 0, 55, 51
2, 121246, Note_on_c, 0, 71, 69
2, 121246, Note_on_c, 0, 67, 67
2, 121374, Control_c, 0, 64, 127
2, 121486, Note_on_c, 0, 40, 0
2, 121504, Note_on_c, 0, 76, 0
2, 121542, Note_on_c, 0, 55, 0
2, 121546, Note_on_c, 0, 71, 0
2, 121550, Note_on_c, 0, 67, 0
2, 121554, Note_on_c, 0, 47, 0
2, 121758, Note_on_c, 0, 74, 82
2, 121930, Note_on_c, 0, 74, 0
2, 122028, Note_on_c, 0, 39, 67
2, 122030, Note_on_c, 0, 54, 64
2, 122042, Note_on_c, 0, 74, 48
2, 122056, Control_c, 0, 64, 0
2, 122188, Control_c, 0, 64, 127
2, 122316, Note_on_c, 0, 74, 0
2, 122368, Note_on_c, 0, 39, 0
2, 122384, Note_on_c, 0, 72, 55
2, 122388, Note_on_c, 0, 63, 56
2, 122410, Note_on_c, 0, 66, 33
2, 122448, Note_on_c, 0, 54, 0
2, 122504, Note_on_c, 0, 72, 0
2, 122600, Note_on_c, 0, 63, 0
2, 122612, Note_on_c, 0, 66, 0
2, 122644, Note_on_c, 0, 71, 54
2, 122798, Note_on_c, 0, 71, 0
2, 122828, Note_on_c, 0, 69, 47
2, 122884, Control_c, 0, 64, 0
2, 122918, Note_on_c, 0, 55, 40
2, 123008, Note_on_c, 0, 71, 59
2, 123016, Note_on_c, 0, 69, 0
2, 123018, Note_on_c, 0, 62, 40
2, 123024, Note_on_c, 0, 67, 45
2, 123080, Control_c, 0, 64, 127
2, 123100, Note_on_c, 0, 67, 0
2, 123102, Note_on_c, 0, 71, 0
2, 123142, Note_on_c, 0, 62, 0
2, 123142, Control_c, 0, 64, 0
2, 123292, Control_c, 0, 64, 127
2, 123450, Note_on_c, 0, 67, 36
2, 123458, Note_on_c, 0, 55, 0
2, 123468, Note_on_c, 0, 62, 41
2, 123470, Note_on_c, 0, 59, 36
2, 123472, Control_c, 0, 64, 0
2, 123494, Note_on_c, 0, 50, 38
2, 123580, Note_on_c, 0, 62, 0
2, 123584, Note_on_c, 0, 67, 0
2, 123588, Note_on_c, 0, 59, 0
2, 123596, Note_on_c, 0, 50, 0
2, 123652, Control_c, 0, 64, 127
2, 123662, Note_on_c, 0, 67, 33
2, 123678, Note_on_c, 0, 62, 33
2, 123682, Note_on_c, 0, 50, 32
2, 123684, Note_on_c, 0, 59, 32
2, 123734, Note_on_c, 0, 50, 0
2, 123964, Control_c, 0, 64, 0
2, 124004, Note_on_c, 0, 43, 26
2, 124146, Note_on_c, 0, 43, 0
2, 124162, Note_on_c, 0, 67, 0
2, 124200, Note_on_c, 0, 67, 20
2, 124220, Note_on_c, 0, 43, 41
2, 124270, Note_on_c, 0, 62, 0
2, 124324, Note_on_c, 0, 59, 0
2, 124356, Control_c, 0, 64, 127
2, 124458, Note_on_c, 0, 67, 0
2, 124614, Control_c, 0, 64, 0
2, 124632, Note_on_c, 0, 59, 33
2, 124632, Note_on_c, 0, 62, 36
2, 124714, Note_on_c, 0, 59, 0
2, 124756, Note_on_c, 0, 62, 0
2, 124942, Control_c, 0, 64, 127
2, 125004, Note_on_c, 0, 31, 47
2, 125036, Control_c, 0, 64, 0
2, 125044, Note_on_c, 0, 31, 0
2, 125092, Note_on_c, 0, 43, 0
2, 125198, Note_on_c, 0, 69, 39
2, 125208, Control_c, 0, 64, 127
2, 125280, Note_on_c, 0, 69, 0
2, 125380, Note_on_c, 0, 69, 40
2, 125500, Note_on_c, 0, 69, 0
2, 125514, Control_c, 0, 64, 0
2, 125558, Note_on_c, 0, 71, 50
2, 125646, Control_c, 0, 64, 127
2, 125662, Note_on_c, 0, 71, 0
2, 125850, Control_c, 0, 64, 0
2, 125922, Note_on_c, 0, 42, 42
2, 125940, Note_on_c, 0, 64, 47
2, 125948, Note_on_c, 0, 69, 34
2, 125952, Note_on_c, 0, 72, 33
2, 125962, Note_on_c, 0, 42, 0
2, 126030, Control_c, 0, 64, 127
2, 126088, Note_on_c, 0, 64, 0
2, 126182, Note_on_c, 0, 60, 31
2, 126184, Note_on_c, 0, 54, 45
2, 126234, Note_on_c, 0, 60, 0
2, 126234, Control_c, 0, 64, 0
2, 126258, Note_on_c, 0, 69, 0
2, 126266, Note_on_c, 0, 54, 0
2, 126316, Note_on_c, 0, 72, 0
2, 126384, Control_c, 0, 64, 127
2, 126524, Control_c, 0, 64, 0
2, 126542, Note_on_c, 0, 64, 52
2, 126546, Note_on_c, 0, 69, 45
2, 126550, Note_on_c, 0, 60, 30
2, 126558, Note_on_c, 0, 52, 60
2, 126604, Note_on_c, 0, 60, 0
2, 126612, Note_on_c, 0, 64, 0
2, 126638, Note_on_c, 0, 69, 0
2, 126642, Note_on_c, 0, 52, 0
2, 126720, Note_on_c, 0, 42, 39
2, 126906, Control_c, 0, 64, 127
2, 127022, Note_on_c, 0, 42, 0
2, 127026, Control_c, 0, 64, 0
2, 127098, Note_on_c, 0, 41, 60
2, 127432, Control_c, 0, 64, 127
2, 127446, Note_on_c, 0, 41, 0
2, 127730, Note_on_c, 0, 62, 62
2, 127732, Note_on_c, 0, 51, 45
2, 127738, Note_on_c, 0, 57, 53
2, 127776, Control_c, 0, 64, 0
2, 127932, Control_c, 0, 64, 127
2, 128034, Control_c, 0, 64, 0
2, 128036, Note_on_c, 0, 62, 0
2, 128050, Note_on_c, 0, 67, 105
2, 128052, Note_on_c, 0, 72, 85
2, 128066, Control_c, 0, 64, 127
2, 128120, Note_on_c, 0, 57, 0
2, 128276, Note_on_c, 0, 72, 0
2, 128308, Control_c, 0, 64, 0
2, 128320, Note_on_c, 0, 62, 71
2, 128322, Note_on_c, 0, 71, 67
2, 128330, Note_on_c, 0, 57, 45
2, 128368, Note_on_c, 0, 57, 0
2, 128418, Note_on_c, 0, 51, 0
2, 128418, Control_c, 0, 64, 127
2, 128516, Note_on_c, 0, 62, 0
2, 128532, Note_on_c, 0, 67, 0
2, 128596, Note_on_c, 0, 69, 55
2, 128634, Note_on_c, 0, 71, 0
2, 128824, Note_on_c, 0, 69, 0
2, 128878, Note_on_c, 0, 47, 36
2, 128884, Note_on_c, 0, 67, 62
2, 128896, Control_c, 0, 64, 0
2, 128898, Note_on_c, 0, 62, 45
2, 128910, Note_on_c, 0, 55, 32
2, 128916, Note_on_c, 0, 40, 12
2, 128966, Note_on_c, 0, 40, 0
2, 129026, Note_on_c, 0, 47, 0
2, 129052, Control_c, 0, 64, 127
2, 129070, Note_on_c, 0, 55, 0
2, 129100, Note_on_c, 0, 62, 0
2, 129174, Note_on_c, 0, 67, 0
2, 129234, Note_on_c, 0, 62, 46
2, 129320, Note_on_c, 0, 62, 0
2, 129388, Control_c, 0, 64, 0
2, 129428, Note_on_c, 0, 64, 50
2, 129506, Control_c, 0, 64, 127
2, 129548, Note_on_c, 0, 64, 0
2, 129614, Note_on_c, 0, 64, 67
2, 129644, Note_on_c, 0, 62, 57
2, 129654, Control_c, 0, 64, 0
2, 129676, Note_on_c, 0, 59, 24
2, 129692, Note_on_c, 0, 64, 0
2, 129696, Note_on_c, 0, 55, 22
2, 129716, Note_on_c, 0, 62, 0
2, 129730, Note_on_c, 0, 55, 0
2, 129734, Note_on_c, 0, 59, 0
2, 129788, Control_c, 0, 64, 127
2, 130004, Note_on_c, 0, 67, 66
2, 130006, Control_c, 0, 64, 0
2, 130010, Note_on_c, 0, 62, 60
2, 130010, Note_on_c, 0, 56, 64
2, 130156, Control_c, 0, 64, 127
2, 130438, Note_on_c, 0, 62, 0
2, 130460, Note_on_c, 0, 67, 0
2, 130564, Note_on_c, 0, 56, 0
2, 130726, Note_on_c, 0, 66, 57
2, 130730, Note_on_c, 0, 55, 54
2, 130740, Note_on_c, 0, 61, 49
2, 130780, Control_c, 0, 64, 0
2, 130944, Note_on_c, 0, 66, 0
2, 130962, Note_on_c, 0, 84, 91
2, 130962, Note_on_c, 0, 72, 81
2, 131000, Control_c, 0, 64, 127
2, 131018, Note_on_c, 0, 55, 0
2, 131024, Note_on_c, 0, 61, 0
2, 131070, Control_c, 0, 64, 0
2, 131102, Control_c, 0, 64, 127
2, 131104, Note_on_c, 0, 84, 0
2, 131166, Note_on_c, 0, 82, 61
2, 131290, Note_on_c, 0, 82, 0
2, 131290, Note_on_c, 0, 72, 0
2, 131306, Control_c, 0, 64, 0
2, 131332, Note_on_c, 0, 55, 46
2, 131340, Note_on_c, 0, 45, 36
2, 131358, Note_on_c, 0, 81, 54
2, 131464, Note_on_c, 0, 81, 0
2, 131722, Note_on_c, 0, 45, 0
2, 131736, Note_on_c, 0, 72, 28
2, 131760, Control_c, 0, 64, 127
2, 131796, Note_on_c, 0, 55, 0
2, 131920, Note_on_c, 0, 72, 0
2, 131932, Note_on_c, 0, 79, 70
2, 131956, Note_on_c, 0, 50, 45
2, 131964, Note_on_c, 0, 57, 38
2, 131974, Note_on_c, 0, 60, 24
2, 131980, Control_c, 0, 64, 0
2, 132204, Note_on_c, 0, 79, 0
2, 132206, Control_c, 0, 64, 127
2, 132304, Note_on_c, 0, 77, 68
2, 132432, Control_c, 0, 64, 0
2, 132440, Note_on_c, 0, 77, 0
2, 132502, Note_on_c, 0, 73, 33
2, 132596, Control_c, 0, 64, 127
2, 132644, Note_on_c, 0, 73, 0
2, 132678, Note_on_c, 0, 76, 62
2, 132714, Control_c, 0, 64, 0
2, 132798, Note_on_c, 0, 76, 0
2, 132842, Note_on_c, 0, 60, 0
2, 132856, Note_on_c, 0, 74, 45
2, 132886, Control_c, 0, 64, 127
2, 132954, Note_on_c, 0, 57, 0
2, 133032, Note_on_c, 0, 74, 0
2, 133052, Note_on_c, 0, 72, 49
2, 133122, Note_on_c, 0, 57, 17
2, 133204, Note_on_c, 0, 72, 0
2, 133208, Control_c, 0, 64, 0
2, 133230, Note_on_c, 0, 57, 0
2, 133230, Note_on_c, 0, 69, 52
2, 133262, Note_on_c, 0, 69, 0
2, 133270, Control_c, 0, 64, 127
2, 133300, Note_on_c, 0, 50, 0
2, 133570, Note_on_c, 0, 44, 25
2, 133600, Note_on_c, 0, 46, 35
2, 133604, Note_on_c, 0, 44, 0
2, 133614, Control_c, 0, 64, 0
2, 133616, Note_on_c, 0, 58, 47
2, 133652, Note_on_c, 0, 58, 0
2, 133674, Note_on_c, 0, 47, 29
2, 133680, Note_on_c, 0, 46, 0
2, 133692, Note_on_c, 0, 59, 53
2, 133734, Note_on_c, 0, 58, 46
2, 133762, Note_on_c, 0, 59, 0
2, 133768, Note_on_c, 0, 47, 0
2, 133802, Note_on_c, 0, 56, 40
2, 133834, Note_on_c, 0, 44, 25
2, 133844, Note_on_c, 0, 58, 0
2, 133866, Note_on_c, 0, 44, 0
2, 133870, Note_on_c, 0, 56, 0
2, 133888, Note_on_c, 0, 55, 44
2, 133940, Note_on_c, 0, 55, 0
2, 133942, Control_c, 0, 64, 127
2, 133996, Note_on_c, 0, 61, 72
2, 134006, Note_on_c, 0, 49, 55
2, 134006, Control_c, 0, 64, 0
2, 134170, Note_on_c, 0, 61, 0
2, 134178, Note_on_c, 0, 49, 0
2, 134214, Note_on_c, 0, 62, 80
2, 134218, Note_on_c, 0, 50, 47
2, 134332, Note_on_c, 0, 50, 0
2, 134346, Note_on_c, 0, 62, 0
2, 134380, Note_on_c, 0, 49, 37
2, 134414, Note_on_c, 0, 61, 33
2, 134522, Note_on_c, 0, 49, 0
2, 134526, Note_on_c, 0, 61, 0
2, 134592, Note_on_c, 0, 59, 62
2, 134592, Note_on_c, 0, 47, 40
2, 134692, Note_on_c, 0, 59, 0
2, 134698, Note_on_c, 0, 47, 0
2, 134772, Note_on_c, 0, 56, 33
2, 134920, Note_on_c, 0, 56, 0
2, 134968, Note_on_c, 0, 43, 24
2, 134972, Note_on_c, 0, 53, 18
2, 135050, Note_on_c, 0, 53, 0
2, 135068, Note_on_c, 0, 43, 0
2, 135156, Note_on_c, 0, 52, 24
2, 135240, Note_on_c, 0, 36, 4
2, 135340, Note_on_c, 0, 52, 0
2, 135362, Control_c, 0, 64, 127
2, 135370, Note_on_c, 0, 48, 35
2, 135416, Note_on_c, 0, 48, 0
2, 135456, Control_c, 0, 64, 0
2, 135536, Note_on_c, 0, 52, 38
2, 135682, Note_on_c, 0, 36, 0
2, 135702, Note_on_c, 0, 52, 0
2, 135732, Note_on_c, 0, 43, 59
2, 135736, Note_on_c, 0, 42, 40
2, 135764, Note_on_c, 0, 55, 42
2, 135782, Note_on_c, 0, 42, 0
2, 135858, Note_on_c, 0, 55, 0
2, 135962, Note_on_c, 0, 57, 33
2, 136080, Control_c, 0, 64, 127
2, 136090, Note_on_c, 0, 57, 0
2, 136166, Note_on_c, 0, 60, 76
2, 136180, Note_on_c, 0, 31, 55
2, 136184, Control_c, 0, 64, 0
2, 136340, Note_on_c, 0, 31, 0
2, 136402, Control_c, 0, 64, 127
2, 136414, Note_on_c, 0, 43, 0
2, 136520, Control_c, 0, 64, 0
2, 136528, Note_on_c, 0, 53, 58
2, 136538, Note_on_c, 0, 52, 48
2, 136538, Note_on_c, 0, 43, 54
2, 136560, Note_on_c, 0, 42, 37
2, 136592, Note_on_c, 0, 42, 0
2, 136662, Note_on_c, 0, 43, 0
2, 136906, Note_on_c, 0, 43, 82
2, 136920, Note_on_c, 0, 42, 50
2, 136932, Note_on_c, 0, 52, 0
2, 136984, Note_on_c, 0, 42, 0
2, 137004, Note_on_c, 0, 53, 0
2, 137082, Note_on_c, 0, 52, 38
2, 137140, Note_on_c, 0, 43, 0
2, 137148, Note_on_c, 0, 52, 0
2, 137192, Control_c, 0, 64, 127
2, 137298, Note_on_c, 0, 43, 70
2, 137328, Note_on_c, 0, 60, 0
2, 137366, Control_c, 0, 64, 0
2, 137388, Note_on_c, 0, 43, 0
2, 137472, Note_on_c, 0, 43, 75
2, 137506, Control_c, 0, 64, 127
2, 137598, Note_on_c, 0, 43, 0
2, 137692, Note_on_c, 0, 72, 51
2, 137772, Note_on_c, 0, 72, 0
2, 137818, Control_c, 0, 64, 0
2, 137846, Note_on_c, 0, 59, 40
2, 137858, Note_on_c, 0, 74, 72
2, 137860, Note_on_c, 0, 53, 35
2, 137862, Note_on_c, 0, 65, 71
2, 137864, Note_on_c, 0, 68, 59
2, 137976, Control_c, 0, 64, 127
2, 138000, Note_on_c, 0, 59, 0
2, 138004, Note_on_c, 0, 68, 0
2, 138052, Note_on_c, 0, 65, 0
2, 138062, Note_on_c, 0, 53, 0
2, 138070, Note_on_c, 0, 74, 0
2, 138186, Control_c, 0, 64, 0
2, 138226, Note_on_c, 0, 76, 74
2, 138232, Note_on_c, 0, 72, 66
2, 138236, Note_on_c, 0, 62, 76
2, 138236, Note_on_c, 0, 67, 72
2, 138238, Note_on_c, 0, 69, 67
2, 138238, Note_on_c, 0, 52, 68
2, 138240, Note_on_c, 0, 57, 68
2, 138366, Control_c, 0, 64, 127
2, 138400, Note_on_c, 0, 76, 0
2, 138424, Note_on_c, 0, 67, 0
2, 138452, Note_on_c, 0, 72, 0
2, 138452, Note_on_c, 0, 69, 0
2, 138478, Note_on_c, 0, 76, 40
2, 138486, Note_on_c, 0, 67, 62
2, 138488, Note_on_c, 0, 72, 32
2, 138492, Note_on_c, 0, 69, 40
2, 138566, Note_on_c, 0, 67, 0
2, 138586, Note_on_c, 0, 76, 0
2, 138606, Note_on_c, 0, 72, 0
2, 138606, Note_on_c, 0, 69, 0
2, 138668, Note_on_c, 0, 76, 36
2, 138714, Note_on_c, 0, 62, 0
2, 138730, Note_on_c, 0, 57, 0
2, 138748, Note_on_c, 0, 52, 0
2, 138780, Note_on_c, 0, 76, 0
2, 138868, Control_c, 0, 64, 0
2, 138876, Note_on_c, 0, 76, 60
2, 138876, Note_on_c, 0, 68, 64
2, 138882, Note_on_c, 0, 64, 71
2, 138882, Note_on_c, 0, 72, 57
2, 138884, Note_on_c, 0, 56, 62
2, 138886, Note_on_c, 0, 48, 68
2, 139040, Control_c, 0, 64, 127
2, 139112, Note_on_c, 0, 64, 0
2, 139134, Note_on_c, 0, 68, 0
2, 139148, Note_on_c, 0, 72, 0
2, 139148, Note_on_c, 0, 76, 0
2, 139200, Note_on_c, 0, 56, 0
2, 139244, Note_on_c, 0, 76, 33
2, 139246, Note_on_c, 0, 68, 55
2, 139254, Note_on_c, 0, 64, 54
2, 139254, Note_on_c, 0, 56, 46
2, 139258, Note_on_c, 0, 72, 38
2, 139266, Note_on_c, 0, 60, 50
2, 139274, Control_c, 0, 64, 0
2, 139310, Note_on_c, 0, 64, 0
2, 139326, Note_on_c, 0, 60, 0
2, 139328, Note_on_c, 0, 68, 0
2, 139332, Note_on_c, 0, 76, 0
2, 139336, Note_on_c, 0, 72, 0
2, 139416, Control_c, 0, 64, 127
2, 139562, Note_on_c, 0, 48, 0
2, 139602, Control_c, 0, 64, 0
2, 139622, Note_on_c, 0, 76, 67
2, 139630, Note_on_c, 0, 64, 82
2, 139632, Note_on_c, 0, 69, 69
2, 139632, Note_on_c, 0, 72, 58
2, 139640, Note_on_c, 0, 48, 54
2, 139640, Note_on_c, 0, 57, 78
2, 139684, Note_on_c, 0, 56, 0
2, 139760, Control_c, 0, 64, 127
2, 139914, Note_on_c, 0, 64, 0
2, 139922, Note_on_c, 0, 48, 0
2, 139932, Note_on_c, 0, 57, 0
2, 139936, Note_on_c, 0, 56, 27
2, 139946, Note_on_c, 0, 76, 0
2, 139958, Note_on_c, 0, 69, 0
2, 139966, Note_on_c, 0, 72, 0
2, 140006, Note_on_c, 0, 57, 67
2, 140010, Note_on_c, 0, 76, 55
2, 140012, Note_on_c, 0, 64, 66
2, 140016, Note_on_c, 0, 69, 56
2, 140020, Note_on_c, 0, 72, 37
2, 140024, Note_on_c, 0, 48, 48
2, 140048, Control_c, 0, 64, 0
2, 140064, Note_on_c, 0, 56, 0
2, 140126, Note_on_c, 0, 64, 0
2, 140126, Note_on_c, 0, 76, 0
2, 140144, Note_on_c, 0, 72, 0
2, 140182, Control_c, 0, 64, 127
2, 140188, Note_on_c, 0, 64, 45
2, 140190, Note_on_c, 0, 76, 28
2, 140200, Note_on_c, 0, 72, 15
2, 140280, Note_on_c, 0, 57, 0
2, 140336, Note_on_c, 0, 48, 0
2, 140374, Note_on_c, 0, 69, 0
2, 140380, Note_on_c, 0, 72, 0
2, 140392, Note_on_c, 0, 57, 61
2, 140404, Note_on_c, 0, 76, 0
2, 140416, Note_on_c, 0, 48, 36
2, 140426, Note_on_c, 0, 64, 0
2, 140460, Note_on_c, 0, 48, 0
2, 140480, Note_on_c, 0, 57, 0
2, 140504, Control_c, 0, 64, 0
2, 140548, Note_on_c, 0, 76, 68
2, 140550, Note_on_c, 0, 68, 71
2, 140552, Note_on_c, 0, 72, 62
2, 140556, Note_on_c, 0, 56, 81
2, 140558, Note_on_c, 0, 64, 79
2, 140564, Note_on_c, 0, 48, 77
2, 140652, Control_c, 0, 64, 127
2, 140690, Note_on_c, 0, 76, 0
2, 140720, Note_on_c, 0, 72, 0
2, 140726, Note_on_c, 0, 64, 0
2, 140736, Note_on_c, 0, 56, 0
2, 140764, Note_on_c, 0, 74, 48
2, 140770, Note_on_c, 0, 64, 20
2, 140792, Note_on_c, 0, 56, 48
2, 140862, Note_on_c, 0, 64, 0
2, 140876, Note_on_c, 0, 74, 0
2, 140878, Note_on_c, 0, 56, 0
2, 140906, Note_on_c, 0, 48, 0
2, 140910, Control_c, 0, 64, 0
2, 140922, Note_on_c, 0, 68, 0
2, 140934, Note_on_c, 0, 56, 34
2, 140942, Note_on_c, 0, 74, 24
2, 140958, Note_on_c, 0, 48, 17
2, 140968, Note_on_c, 0, 72, 27
2, 140974, Control_c, 0, 64, 127
2, 141022, Note_on_c, 0, 74, 0
2, 141036, Note_on_c, 0, 72, 0
2, 141072, Note_on_c, 0, 48, 0
2, 141146, Note_on_c, 0, 56, 0
2, 141146, Control_c, 0, 64, 0
2, 141160, Note_on_c, 0, 76, 65
2, 141164, Note_on_c, 0, 71, 70
2, 141170, Note_on_c, 0, 64, 68
2, 141178, Note_on_c, 0, 55, 64
2, 141186, Note_on_c, 0, 48, 54
2, 141252, Note_on_c, 0, 55, 0
2, 141270, Control_c, 0, 64, 127
2, 141276, Note_on_c, 0, 76, 0
2, 141292, Note_on_c, 0, 71, 0
2, 141310, Note_on_c, 0, 64, 0
2, 141312, Note_on_c, 0, 48, 0
2, 141922, Note_on_c, 0, 36, 36
2, 141962, Note_on_c, 0, 43, 36
2, 142038, Note_on_c, 0, 43, 0
2, 142082, Note_on_c, 0, 52, 34
2, 142086, Note_on_c, 0, 59, 31
2, 142090, Note_on_c, 0, 48, 40
2, 142092, Control_c, 0, 64, 0
2, 142100, Note_on_c, 0, 47, 52
2, 142108, Note_on_c, 0, 55, 39
2, 142400, Note_on_c, 0, 48, 0
2, 142438, Note_on_c, 0, 47, 0
2, 142474, Note_on_c, 0, 52, 0
2, 142480, Note_on_c, 0, 43, 31
2, 142494, Note_on_c, 0, 55, 0
2, 142528, Note_on_c, 0, 59, 0
2, 142530, Control_c, 0, 64, 127
2, 142672, Control_c, 0, 64, 0
2, 142692, Note_on_c, 0, 43, 0
2, 142712, Note_on_c, 0, 48, 60
2, 142716, Note_on_c, 0, 57, 51
2, 142720, Note_on_c, 0, 45, 50
2, 142720, Note_on_c, 0, 52, 44
2, 142730, Note_on_c, 0, 36, 0
2, 142752, Note_on_c, 0, 48, 0
2, 142776, Note_on_c, 0, 52, 0
2, 142794, Note_on_c, 0, 45, 0
2, 142816, Note_on_c, 0, 57, 0
2, 142836, Control_c, 0, 64, 127
2, 143074, Note_on_c, 0, 72, 54
2, 143074, Note_on_c, 0, 62, 67
2, 143078, Control_c, 0, 64, 0
2, 143082, Note_on_c, 0, 69, 52
2, 143084, Note_on_c, 0, 65, 59
2, 143094, Note_on_c, 0, 60, 48
2, 143124, Note_on_c, 0, 60, 0
2, 143154, Note_on_c, 0, 62, 0
2, 143172, Note_on_c, 0, 65, 0
2, 143198, Note_on_c, 0, 69, 0
2, 143210, Note_on_c, 0, 72, 0
2, 143218, Control_c, 0, 64, 127
2, 143452, Note_on_c, 0, 72, 55
2, 143460, Note_on_c, 0, 64, 71
2, 143462, Control_c, 0, 64, 0
2, 143464, Note_on_c, 0, 62, 72
2, 143466, Note_on_c, 0, 69, 49
2, 143468, Note_on_c, 0, 67, 42
2, 143496, Note_on_c, 0, 71, 32
2, 143558, Note_on_c, 0, 67, 0
2, 143582, Note_on_c, 0, 64, 0
2, 143626, Control_c, 0, 64, 127
2, 143628, Note_on_c, 0, 72, 0
2, 143628, Note_on_c, 0, 71, 0
2, 143632, Note_on_c, 0, 69, 0
2, 143756, Note_on_c, 0, 62, 0
2, 143832, Note_on_c, 0, 74, 63
2, 143832, Note_on_c, 0, 60, 56
2, 143840, Note_on_c, 0, 69, 61
2, 143842, Note_on_c, 0, 65, 58
2, 143846, Control_c, 0, 64, 0
2, 144018, Control_c, 0, 64, 127
2, 144138, Note_on_c, 0, 60, 0
2, 144162, Note_on_c, 0, 65, 0
2, 144172, Note_on_c, 0, 69, 0
2, 144182, Note_on_c, 0, 74, 0
2, 144206, Note_on_c, 0, 60, 54
2, 144266, Note_on_c, 0, 60, 0
2, 144346, Control_c, 0, 64, 0
2, 144368, Note_on_c, 0, 76, 66
2, 144370, Note_on_c, 0, 67, 66
2, 144372, Note_on_c, 0, 71, 70
2, 144376, Note_on_c, 0, 59, 54
2, 144550, Control_c, 0, 64, 127
2, 144590, Note_on_c, 0, 67, 0
2, 144602, Note_on_c, 0, 76, 0
2, 144604, Note_on_c, 0, 71, 0
2, 144606, Note_on_c, 0, 59, 0
2, 145160, Control_c, 0, 64, 0
2, 145192, Note_on_c, 0, 71, 60
2, 145194, Note_on_c, 0, 76, 64
2, 145194, Note_on_c, 0, 59, 45
2, 145196, Note_on_c, 0, 67, 67
2, 145198, Note_on_c, 0, 62, 55
2, 145204, Note_on_c, 0, 55, 45
2, 145302, Control_c, 0, 64, 127
2, 145342, Note_on_c, 0, 76, 0
2, 145426, Note_on_c, 0, 67, 0
2, 145430, Note_on_c, 0, 59, 0
2, 145448, Note_on_c, 0, 76, 57
2, 145450, Note_on_c, 0, 62, 0
2, 145500, Note_on_c, 0, 55, 0
2, 145602, Note_on_c, 0, 76, 0
2, 145608, Note_on_c, 0, 71, 0
2, 145770, Note_on_c, 0, 71, 60
2, 145772, Control_c, 0, 64, 0
2, 145774, Note_on_c, 0, 76, 59
2, 145774, Note_on_c, 0, 67, 60
2, 145780, Note_on_c, 0, 62, 56
2, 145790, Note_on_c, 0, 57, 46
2, 145802, Note_on_c, 0, 52, 24
2, 145806, Note_on_c, 0, 62, 0
2, 145824, Note_on_c, 0, 57, 0
2, 145838, Note_on_c, 0, 67, 0
2, 145848, Note_on_c, 0, 52, 0
2, 145878, Note_on_c, 0, 71, 0
2, 145892, Note_on_c, 0, 76, 0
2, 145958, Control_c, 0, 64, 127
2, 146156, Note_on_c, 0, 39, 59
2, 146158, Note_on_c, 0, 77, 68
2, 146160, Note_on_c, 0, 54, 53
2, 146162, Control_c, 0, 64, 0
2, 146164, Note_on_c, 0, 70, 62
2, 146168, Note_on_c, 0, 73, 49
2, 146172, Note_on_c, 0, 65, 54
2, 146310, Control_c, 0, 64, 127
2, 146382, Note_on_c, 0, 39, 0
2, 146470, Note_on_c, 0, 54, 0
2, 146476, Note_on_c, 0, 77, 0
2, 146512, Note_on_c, 0, 65, 0
2, 146582, Note_on_c, 0, 73, 0
2, 146584, Note_on_c, 0, 70, 0
2, 146648, Control_c, 0, 64, 0
2, 146678, Note_on_c, 0, 76, 56
2, 146678, Note_on_c, 0, 70, 60
2, 146692, Note_on_c, 0, 64, 51
2, 146694, Note_on_c, 0, 60, 43
2, 146704, Note_on_c, 0, 54, 35
2, 146712, Note_on_c, 0, 73, 21
2, 146740, Note_on_c, 0, 60, 0
2, 146748, Control_c, 0, 64, 127
2, 146802, Note_on_c, 0, 54, 0
2, 146866, Note_on_c, 0, 64, 0
2, 146880, Note_on_c, 0, 73, 0
2, 146898, Note_on_c, 0, 76, 0
2, 146920, Note_on_c, 0, 70, 0
2, 146970, Note_on_c, 0, 74, 55
2, 146998, Note_on_c, 0, 64, 18
2, 147042, Note_on_c, 0, 46, 25
2, 147060, Note_on_c, 0, 64, 0
2, 147072, Note_on_c, 0, 46, 0
2, 147156, Note_on_c, 0, 74, 0
2, 147224, Note_on_c, 0, 72, 53
2, 147294, Note_on_c, 0, 72, 0
2, 147486, Note_on_c, 0, 67, 38
2, 147486, Note_on_c, 0, 62, 33
2, 147496, Note_on_c, 0, 71, 39
2, 147498, Note_on_c, 0, 72, 34
2, 147500, Control_c, 0, 64, 0
2, 147552, Note_on_c, 0, 72, 0
2, 147578, Note_on_c, 0, 62, 0
2, 147676, Note_on_c, 0, 62, 49
2, 147758, Note_on_c, 0, 62, 0
2, 147854, Note_on_c, 0, 60, 32
2, 147884, Note_on_c, 0, 67, 0
2, 148014, Note_on_c, 0, 60, 0
2, 148038, Note_on_c, 0, 67, 53
2, 148048, Note_on_c, 0, 62, 42
2, 148078, Note_on_c, 0, 59, 24
2, 148224, Note_on_c, 0, 67, 0
2, 148228, Control_c, 0, 64, 127
2, 148300, Note_on_c, 0, 62, 0
2, 148310, Note_on_c, 0, 71, 0
2, 148352, Note_on_c, 0, 59, 0
2, 148412, Note_on_c, 0, 55, 43
2, 148522, Note_on_c, 0, 55, 0
2, 148760, Control_c, 0, 64, 0
2, 148780, Note_on_c, 0, 50, 29
2, 148782, Note_on_c, 0, 62, 42
2, 148786, Note_on_c, 0, 59, 30
2, 148878, Note_on_c, 0, 59, 0
2, 148882, Note_on_c, 0, 62, 0
2, 148900, Control_c, 0, 64, 127
2, 148962, Control_c, 0, 64, 0
2, 149006, Note_on_c, 0, 60, 56
2, 149020, Note_on_c, 0, 57, 45
2, 149032, Note_on_c, 0, 44, 25
2, 149050, Note_on_c, 0, 54, 25
2, 149088, Control_c, 0, 64, 127
2, 149122, Note_on_c, 0, 50, 0
2, 149206, Note_on_c, 0, 57, 0
2, 149246, Note_on_c, 0, 60, 0
2, 149256, Note_on_c, 0, 54, 0
2, 149306, Note_on_c, 0, 44, 0
2, 149338, Control_c, 0, 64, 0
2, 149370, Note_on_c, 0, 59, 41
2, 149376, Note_on_c, 0, 55, 38
2, 149384, Note_on_c, 0, 53, 25
2, 149396, Note_on_c, 0, 43, 25
2, 149480, Control_c, 0, 64, 127
2, 149568, Note_on_c, 0, 55, 0
2, 149632, Note_on_c, 0, 59, 0
2, 149908, Note_on_c, 0, 43, 0
2, 149966, Note_on_c, 0, 53, 0
2, 149974, Note_on_c, 0, 69, 63
2, 150076, Note_on_c, 0, 69, 0
2, 150246, Note_on_c, 0, 71, 69
2, 150406, Note_on_c, 0, 71, 0
2, 150498, Control_c, 0, 64, 0
2, 150502, Note_on_c, 0, 72, 44
2, 150514, Note_on_c, 0, 69, 38
2, 150514, Note_on_c, 0, 60, 26
2, 150516, Note_on_c, 0, 54, 40
2, 150520, Note_on_c, 0, 64, 35
2, 150654, Control_c, 0, 64, 127
2, 150704, Note_on_c, 0, 72, 0
2, 150778, Note_on_c, 0, 72, 46
2, 150816, Note_on_c, 0, 64, 0
2, 150856, Note_on_c, 0, 69, 0
2, 150912, Note_on_c, 0, 72, 0
2, 150940, Note_on_c, 0, 60, 0
2, 151076, Note_on_c, 0, 72, 51
2, 151080, Note_on_c, 0, 64, 30
2, 151094, Note_on_c, 0, 60, 33
2, 151168, Note_on_c, 0, 72, 0
2, 151348, Note_on_c, 0, 84, 92
2, 151418, Note_on_c, 0, 64, 0
2, 151442, Note_on_c, 0, 60, 0
2, 151500, Note_on_c, 0, 54, 0
2, 151626, Note_on_c, 0, 72, 28
2, 151684, Note_on_c, 0, 84, 0
2, 151710, Note_on_c, 0, 72, 0
2, 151872, Note_on_c, 0, 72, 38
2, 151942, Note_on_c, 0, 72, 0
2, 152070, Control_c, 0, 64, 0
2, 152088, Note_on_c, 0, 41, 43
2, 152110, Note_on_c, 0, 57, 51
2, 152166, Note_on_c, 0, 41, 0
2, 152188, Control_c, 0, 64, 127
2, 152216, Note_on_c, 0, 57, 0
2, 152358, Note_on_c, 0, 86, 79
2, 152362, Note_on_c, 0, 79, 75
2, 152548, Note_on_c, 0, 79, 0
2, 152550, Note_on_c, 0, 86, 0
2, 152604, Note_on_c, 0, 83, 57
2, 152620, Note_on_c, 0, 74, 37
2, 152730, Note_on_c, 0, 74, 0
2, 152772, Note_on_c, 0, 83, 0
2, 152858, Note_on_c, 0, 64, 48
2, 152890, Note_on_c, 0, 60, 24
2, 152896, Note_on_c, 0, 57, 28
2, 152952, Note_on_c, 0, 64, 0
2, 152962, Note_on_c, 0, 57, 0
2, 152964, Note_on_c, 0, 60, 0
2, 153460, Note_on_c, 0, 91, 92
2, 153464, Note_on_c, 0, 86, 94
2, 153576, Note_on_c, 0, 86, 0
2, 153604, Note_on_c, 0, 91, 0
2, 153652, Note_on_c, 0, 40, 35
2, 153668, Control_c, 0, 64, 0
2, 153668, Note_on_c, 0, 47, 31
2, 153682, Note_on_c, 0, 86, 66
2, 153684, Note_on_c, 0, 79, 49
2, 153686, Note_on_c, 0, 55, 32
2, 153772, Note_on_c, 0, 40, 0
2, 153800, Control_c, 0, 64, 127
2, 153810, Note_on_c, 0, 47, 0
2, 153868, Note_on_c, 0, 55, 0
2, 153890, Note_on_c, 0, 86, 0
2, 153930, Note_on_c, 0, 79, 0
2, 154246, Note_on_c, 0, 79, 41
2, 154246, Note_on_c, 0, 76, 40
2, 154252, Note_on_c, 0, 62, 42
2, 154262, Control_c, 0, 64, 0
2, 154272, Note_on_c, 0, 59, 26
2, 154274, Note_on_c, 0, 52, 27
2, 154278, Note_on_c, 0, 55, 33
2, 154396, Control_c, 0, 64, 127
2, 154424, Note_on_c, 0, 76, 0
2, 154496, Note_on_c, 0, 79, 0
2, 154742, Note_on_c, 0, 52, 0
2, 154754, Note_on_c, 0, 55, 0
2, 154764, Note_on_c, 0, 59, 0
2, 154776, Note_on_c, 0, 62, 0
2, 154802, Control_c, 0, 64, 0
2, 154806, Note_on_c, 0, 82, 67
2, 154848, Note_on_c, 0, 84, 64
2, 154860, Note_on_c, 0, 82, 0
2, 154928, Note_on_c, 0, 82, 49
2, 154948, Note_on_c, 0, 84, 0
2, 155002, Note_on_c, 0, 81, 51
2, 155008, Note_on_c, 0, 82, 0
2, 155084, Note_on_c, 0, 81, 0
2, 155140, Note_on_c, 0, 79, 70
2, 155214, Note_on_c, 0, 79, 0
2, 155322, Note_on_c, 0, 77, 66
2, 155398, Note_on_c, 0, 77, 0
2, 155492, Note_on_c, 0, 76, 49
2, 155500, Note_on_c, 0, 66, 45
2, 155514, Note_on_c, 0, 61, 37
2, 155644, Note_on_c, 0, 76, 0
2, 155682, Note_on_c, 0, 74, 41
2, 155760, Note_on_c, 0, 74, 0
2, 155842, Note_on_c, 0, 55, 1
2, 155866, Note_on_c, 0, 73, 46
2, 155982, Note_on_c, 0, 73, 0
2, 156028, Note_on_c, 0, 66, 0
2, 156056, Note_on_c, 0, 76, 45
2, 156116, Control_c, 0, 64, 127
2, 156172, Control_c, 0, 64, 0
2, 156210, Note_on_c, 0, 76, 0
2, 156260, Note_on_c, 0, 73, 30
2, 156328, Control_c, 0, 64, 127
2, 156358, Note_on_c, 0, 73, 0
2, 156452, Note_on_c, 0, 55, 0
2, 156452, Note_on_c, 0, 61, 0
2, 156454, Control_c, 0, 64, 0
2, 156472, Note_on_c, 0, 74, 49
2, 156488, Note_on_c, 0, 64, 36
2, 156582, Note_on_c, 0, 74, 0
2, 156642, Note_on_c, 0, 74, 51
2, 156662, Note_on_c, 0, 65, 34
2, 156684, Note_on_c, 0, 69, 35
2, 156696, Control_c, 0, 64, 127
2, 156804, Note_on_c, 0, 69, 0
2, 156804, Note_on_c, 0, 65, 0
2, 156830, Control_c, 0, 64, 0
2, 156868, Note_on_c, 0, 76, 43
2, 156870, Note_on_c, 0, 65, 40
2, 156882, Note_on_c, 0, 64, 0
2, 156902, Note_on_c, 0, 62, 25
2, 156922, Control_c, 0, 64, 127
2, 156946, Control_c, 0, 64, 0
2, 156952, Note_on_c, 0, 65, 0
2, 156960, Note_on_c, 0, 74, 0
2, 156970, Note_on_c, 0, 76, 0
2, 156996, Note_on_c, 0, 62, 0
2, 157048, Note_on_c, 0, 61, 36
2, 157056, Note_on_c, 0, 77, 65
2, 157102, Control_c, 0, 64, 127
2, 157220, Control_c, 0, 64, 0
2, 157236, Note_on_c, 0, 61, 0
2, 157248, Note_on_c, 0, 77, 0
2, 157258, Note_on_c, 0, 79, 47
2, 157266, Note_on_c, 0, 60, 32
2, 157278, Note_on_c, 0, 76, 29
2, 157292, Note_on_c, 0, 72, 27
2, 157356, Note_on_c, 0, 79, 0
2, 157362, Note_on_c, 0, 76, 0
2, 157370, Note_on_c, 0, 72, 0
2, 157378, Control_c, 0, 64, 127
2, 157498, Note_on_c, 0, 60, 0
2, 157622, Note_on_c, 0, 50, 36
2, 157800, Control_c, 0, 64, 0
2, 157820, Note_on_c, 0, 67, 40
2, 157822, Note_on_c, 0, 57, 36
2, 157828, Note_on_c, 0, 60, 32
2, 157830, Note_on_c, 0, 64, 45
2, 157852, Note_on_c, 0, 53, 28
2, 157874, Note_on_c, 0, 55, 24
2, 157956, Control_c, 0, 64, 127
2, 157982, Note_on_c, 0, 57, 0
2, 157994, Note_on_c, 0, 55, 0
2, 158002, Note_on_c, 0, 60, 0
2, 158014, Note_on_c, 0, 64, 0
2, 158028, Note_on_c, 0, 67, 0
2, 158042, Control_c, 0, 64, 0
2, 158044, Note_on_c, 0, 53, 0
2, 158076, Note_on_c, 0, 57, 42
2, 158086, Note_on_c, 0, 60, 40
2, 158088, Note_on_c, 0, 64, 55
2, 158090, Note_on_c, 0, 67, 44
2, 158094, Note_on_c, 0, 55, 45
2, 158100, Note_on_c, 0, 53, 13
2, 158198, Control_c, 0, 64, 127
2, 158248, Note_on_c, 0, 55, 0
2, 158260, Note_on_c, 0, 57, 0
2, 158284, Note_on_c, 0, 64, 0
2, 158286, Note_on_c, 0, 60, 0
2, 158300, Note_on_c, 0, 53, 0
2, 158314, Note_on_c, 0, 67, 0
2, 158442, Control_c, 0, 64, 0
2, 158442, Note_on_c, 0, 67, 61
2, 158448, Note_on_c, 0, 57, 57
2, 158450, Note_on_c, 0, 60, 60
2, 158452, Note_on_c, 0, 64, 67
2, 158460, Note_on_c, 0, 55, 53
2, 158464, Note_on_c, 0, 53, 34
2, 158598, Control_c, 0, 64, 127
2, 158604, Note_on_c, 0, 57, 0
2, 158610, Note_on_c, 0, 55, 0
2, 158630, Note_on_c, 0, 60, 0
2, 158646, Note_on_c, 0, 53, 0
2, 158662, Note_on_c, 0, 64, 0
2, 158668, Note_on_c, 0, 67, 0
2, 158792, Control_c, 0, 64, 0
2, 158818, Note_on_c, 0, 57, 64
2, 158820, Note_on_c, 0, 67, 68
2, 158820, Note_on_c, 0, 64, 76
2, 158822, Note_on_c, 0, 60, 69
2, 158836, Note_on_c, 0, 55, 50
2, 158838, Note_on_c, 0, 53, 38
2, 158974, Control_c, 0, 64, 127
2, 159010, Note_on_c, 0, 57, 0
2, 159012, Note_on_c, 0, 55, 0
2, 159020, Note_on_c, 0, 60, 0
2, 159044, Note_on_c, 0, 64, 0
2, 159058, Note_on_c, 0, 53, 0
2, 159062, Note_on_c, 0, 67, 0
2, 159066, Note_on_c, 0, 50, 0
2, 159184, Control_c, 0, 64, 0
2, 159198, Note_on_c, 0, 50, 56
2, 159198, Note_on_c, 0, 67, 67
2, 159198, Note_on_c, 0, 64, 73
2, 159204, Note_on_c, 0, 60, 58
2, 159206, Note_on_c, 0, 57, 53
2, 159222, Note_on_c, 0, 55, 45
2, 159226, Note_on_c, 0, 53, 35
2, 159348, Control_c, 0, 64, 127
2, 159368, Note_on_c, 0, 50, 0
2, 159394, Note_on_c, 0, 60, 0
2, 159398, Note_on_c, 0, 55, 0
2, 159416, Note_on_c, 0, 53, 0
2, 159444, Note_on_c, 0, 57, 0
2, 159482, Note_on_c, 0, 64, 0
2, 159508, Note_on_c, 0, 67, 0
2, 159554, Note_on_c, 0, 50, 40
2, 159640, Note_on_c, 0, 50, 0
2, 159756, Note_on_c, 0, 68, 82
2, 159764, Control_c, 0, 64, 0
2, 159772, Note_on_c, 0, 56, 61
2, 159774, Note_on_c, 0, 50, 61
2, 159782, Note_on_c, 0, 60, 35
2, 159860, Note_on_c, 0, 68, 0
2, 159874, Note_on_c, 0, 67, 43
2, 159962, Note_on_c, 0, 66, 42
2, 159964, Note_on_c, 0, 60, 0
2, 159970, Note_on_c, 0, 67, 0
2, 160014, Note_on_c, 0, 65, 63
2, 160046, Note_on_c, 0, 66, 0
2, 160104, Note_on_c, 0, 64, 58
2, 160108, Note_on_c, 0, 65, 0
2, 160160, Note_on_c, 0, 64, 0
2, 160188, Note_on_c, 0, 67, 77
2, 160412, Note_on_c, 0, 67, 0
2, 160432, Note_on_c, 0, 64, 34
2, 160440, Note_on_c, 0, 60, 24
2, 160496, Note_on_c, 0, 64, 0
2, 160498, Note_on_c, 0, 60, 0
2, 160534, Note_on_c, 0, 65, 69
2, 160624, Control_c, 0, 64, 127
2, 160640, Note_on_c, 0, 56, 0
2, 160668, Note_on_c, 0, 50, 0
2, 160740, Note_on_c, 0, 60, 52
2, 160756, Note_on_c, 0, 50, 31
2, 160778, Note_on_c, 0, 65, 0
2, 160780, Control_c, 0, 64, 0
2, 160834, Note_on_c, 0, 60, 0
2, 160836, Note_on_c, 0, 50, 0
2, 160894, Note_on_c, 0, 56, 25
2, 160976, Control_c, 0, 64, 127
2, 161072, Note_on_c, 0, 56, 0
2, 161092, Note_on_c, 0, 55, 40
2, 161126, Note_on_c, 0, 48, 25
2, 161180, Control_c, 0, 64, 0
2, 161182, Note_on_c, 0, 55, 0
2, 161204, Note_on_c, 0, 48, 0
2, 161234, Note_on_c, 0, 56, 43
2, 161240, Note_on_c, 0, 58, 48
2, 161246, Note_on_c, 0, 50, 36
2, 161398, Note_on_c, 0, 50, 0
2, 161418, Note_on_c, 0, 56, 0
2, 161422, Note_on_c, 0, 58, 0
2, 161500, Note_on_c, 0, 56, 46
2, 161506, Note_on_c, 0, 58, 37
2, 161520, Note_on_c, 0, 50, 36
2, 161630, Note_on_c, 0, 50, 0
2, 161656, Note_on_c, 0, 56, 0
2, 161664, Note_on_c, 0, 58, 0
2, 161682, Control_c, 0, 64, 127
2, 161846, Control_c, 0, 64, 0
2, 161860, Note_on_c, 0, 55, 55
2, 161890, Note_on_c, 0, 50, 36
2, 162010, Control_c, 0, 64, 127
2, 162074, Note_on_c, 0, 55, 0
2, 162236, Note_on_c, 0, 38, 58
2, 162252, Control_c, 0, 64, 0
2, 162300, Note_on_c, 0, 38, 0
2, 162322, Note_on_c, 0, 50, 0
2, 162332, Control_c, 0, 64, 127
2, 162746, Control_c, 0, 64, 0
2, 162784, Note_on_c, 0, 67, 49
2, 162786, Note_on_c, 0, 56, 57
2, 162788, Note_on_c, 0, 81, 59
2, 162792, Note_on_c, 0, 86, 61
2, 162792, Note_on_c, 0, 62, 55
2, 162794, Note_on_c, 0, 74, 56
2, 162870, Note_on_c, 0, 67, 0
2, 162892, Note_on_c, 0, 74, 0
2, 162902, Note_on_c, 0, 62, 0
2, 162908, Note_on_c, 0, 81, 0
2, 162918, Control_c, 0, 64, 127
2, 162920, Note_on_c, 0, 86, 0
2, 162940, Note_on_c, 0, 56, 0
2, 162974, Control_c, 0, 64, 0
2, 163048, Note_on_c, 0, 66, 65
2, 163054, Note_on_c, 0, 55, 54
2, 163064, Note_on_c, 0, 76, 63
2, 163066, Note_on_c, 0, 61, 42
2, 163070, Note_on_c, 0, 88, 57
2, 163070, Note_on_c, 0, 83, 61
2, 163114, Control_c, 0, 64, 127
2, 163130, Note_on_c, 0, 76, 0
2, 163132, Note_on_c, 0, 55, 0
2, 163136, Note_on_c, 0, 83, 0
2, 163144, Note_on_c, 0, 88, 0
2, 163162, Note_on_c, 0, 66, 0
2, 163192, Control_c, 0, 64, 0
2, 163232, Note_on_c, 0, 61, 0
2, 163316, Note_on_c, 0, 65, 64
2, 163316, Note_on_c, 0, 54, 67
2, 163320, Note_on_c, 0, 77, 65
2, 163322, Note_on_c, 0, 89, 66
2, 163324, Note_on_c, 0, 84, 70
2, 163332, Note_on_c, 0, 60, 45
2, 163350, Control_c, 0, 64, 127
2, 163420, Note_on_c, 0, 77, 0
2, 163428, Note_on_c, 0, 84, 0
2, 163440, Note_on_c, 0, 65, 0
2, 163440, Note_on_c, 0, 60, 0
2, 163452, Note_on_c, 0, 89, 0
2, 163504, Note_on_c, 0, 54, 0
2, 163554, Control_c, 0, 64, 0
2, 163582, Note_on_c, 0, 53, 74
2, 163584, Note_on_c, 0, 64, 74
2, 163584, Note_on_c, 0, 59, 68
2, 163588, Note_on_c, 0, 91, 74
2, 163594, Note_on_c, 0, 86, 74
2, 163594, Note_on_c, 0, 79, 68
2, 163696, Control_c, 0, 64, 127
2, 163778, Note_on_c, 0, 91, 0
2, 163802, Note_on_c, 0, 86, 0
2, 163804, Note_on_c, 0, 64, 0
2, 163812, Note_on_c, 0, 79, 0
2, 163814, Note_on_c, 0, 59, 0
2, 163856, Note_on_c, 0, 53, 0
2, 163922, Control_c, 0, 64, 0
2, 164086, Control_c, 0, 64, 127
2, 164180, Control_c, 0, 64, 0
2, 164200, Note_on_c, 0, 67, 41
2, 164208, Note_on_c, 0, 59, 37
2, 164212, Note_on_c, 0, 61, 37
2, 164220, Note_on_c, 0, 53, 46
2, 164220, Note_on_c, 0, 63, 40
2, 164234, Note_on_c, 0, 43, 34
2, 164360, Control_c, 0, 64, 127
2, 164666, Note_on_c, 0, 67, 0
2, 164800, Note_on_c, 0, 59, 0
2, 164846, Note_on_c, 0, 43, 0
2, 164864, Note_on_c, 0, 61, 0
2, 164968, Note_on_c, 0, 63, 0
2, 164968, Note_on_c, 0, 53, 0
2, 164980, Note_on_c, 0, 43, 24
2, 165080, Control_c, 0, 64, 0
2, 165110, Note_on_c, 0, 56, 39
2, 165118, Note_on_c, 0, 65, 33
2, 165128, Note_on_c, 0, 53, 39
2, 165142, Note_on_c, 0, 59, 30
2, 165204, Note_on_c, 0, 43, 0
2, 165210, Note_on_c, 0, 56, 0
2, 165214, Note_on_c, 0, 59, 0
2, 165218, Note_on_c, 0, 53, 0
2, 165268, Note_on_c, 0, 65, 0
2, 165468, Note_on_c, 0, 56, 42
2, 165476, Note_on_c, 0, 43, 36
2, 165492, Note_on_c, 0, 64, 36
2, 165560, Note_on_c, 0, 43, 0
2, 165620, Note_on_c, 0, 64, 0
2, 165628, Note_on_c, 0, 56, 0
2, 165666, Control_c, 0, 64, 127
2, 165814, Control_c, 0, 64, 0
2, 165860, Note_on_c, 0, 36, 38
2, 166118, Note_on_c, 0, 60, 20
2, 166120, Note_on_c, 0, 52, 20
2, 166122, Note_on_c, 0, 55, 25
2, 166458, Note_on_c, 0, 43, 36
2, 166468, Note_on_c, 0, 42, 34
2, 166528, Note_on_c, 0, 42, 0
2, 166544, Note_on_c, 0, 43, 0
2, 166666, Note_on_c, 0, 43, 30
2, 166728, Note_on_c, 0, 36, 0
2, 167004, Note_on_c, 0, 31, 37
2, 167334, Note_on_c, 0, 43, 0
2, 167352, Note_on_c, 0, 31, 0
2, 167404, Note_on_c, 0, 36, 28
2, 167422, Note_on_c, 0, 52, 0
2, 167456, Note_on_c, 0, 55, 0
2, 167496, Note_on_c, 0, 60, 0
2, 167648, Note_on_c, 0, 52, 37
2, 167668, Note_on_c, 0, 55, 20
2, 167712, Note_on_c, 0, 36, 0
2, 167742, Note_on_c, 0, 60, 1
2, 167986, Note_on_c, 0, 43, 53
2, 167990, Note_on_c, 0, 42, 44
2, 168092, Note_on_c, 0, 42, 0
2, 168380, Note_on_c, 0, 31, 41
2, 168416, Note_on_c, 0, 31, 0
2, 168416, Note_on_c, 0, 52, 0
2, 168544, Note_on_c, 0, 31, 47
2, 168556, Note_on_c, 0, 55, 0
2, 168580, Note_on_c, 0, 60, 0
2, 168608, Note_on_c, 0, 31, 0
2, 168750, Note_on_c, 0, 31, 55
2, 168840, Note_on_c, 0, 43, 0
2, 168872, Note_on_c, 0, 31, 0
2, 168956, Note_on_c, 0, 53, 69
2, 168962, Note_on_c, 0, 43, 49
2, 169066, Note_on_c, 0, 51, 56
2, 169100, Note_on_c, 0, 53, 0
2, 169178, Note_on_c, 0, 43, 0
2, 169186, Note_on_c, 0, 49, 71
2, 169194, Note_on_c, 0, 51, 0
2, 169552, Note_on_c, 0, 43, 35
2, 169574, Note_on_c, 0, 42, 38
2, 169660, Note_on_c, 0, 42, 0
2, 169776, Note_on_c, 0, 43, 0
2, 169946, Note_on_c, 0, 43, 38
2, 170160, Note_on_c, 0, 31, 29
2, 170208, Note_on_c, 0, 31, 0
2, 170338, Note_on_c, 0, 31, 44
2, 170380, Note_on_c, 0, 31, 0
2, 170532, Note_on_c, 0, 36, 50
2, 170574, Note_on_c, 0, 43, 0
2, 171040, Note_on_c, 0, 49, 0
2, 171092, Note_on_c, 0, 42, 40
2, 171096, Note_on_c, 0, 36, 0
2, 171104, Note_on_c, 0, 43, 41
2, 171104, Note_on_c, 0, 53, 64
2, 171152, Note_on_c, 0, 42, 0
2, 171354, Note_on_c, 0, 51, 42
2, 171396, Note_on_c, 0, 53, 0
2, 171494, Note_on_c, 0, 49, 35
2, 171554, Note_on_c, 0, 43, 0
2, 171572, Note_on_c, 0, 51, 0
2, 171598, Note_on_c, 0, 49, 0
2, 171652, Note_on_c, 0, 53, 45
2, 171670, Note_on_c, 0, 43, 25
2, 171754, Note_on_c, 0, 53, 0
2, 171756, Note_on_c, 0, 51, 36
2, 171842, Note_on_c, 0, 42, 25
2, 171866, Note_on_c, 0, 49, 43
2, 171938, Note_on_c, 0, 51, 0
2, 171964, Note_on_c, 0, 42, 0
2, 171982, Note_on_c, 0, 43, 0
2, 171990, Note_on_c, 0, 49, 0
2, 172008, Note_on_c, 0, 48, 42
2, 172026, Note_on_c, 0, 36, 28
2, 172586, Note_on_c, 0, 43, 35
2, 172598, Note_on_c, 0, 42, 33
2, 172624, Note_on_c, 0, 42, 0
2, 172826, Note_on_c, 0, 43, 0
2, 172956, Note_on_c, 0, 42, 39
2, 172980, Note_on_c, 0, 43, 43
2, 173076, Note_on_c, 0, 42, 0
2, 173112, Note_on_c, 0, 36, 0
2, 173210, Control_c, 0, 64, 127
2, 173274, Control_c, 0, 64, 0
2, 173324, Note_on_c, 0, 31, 40
2, 173336, Control_c, 0, 64, 127
2, 173408, Note_on_c, 0, 43, 0
2, 173412, Note_on_c, 0, 31, 0
2, 173414, Control_c, 0, 64, 0
2, 173550, Note_on_c, 0, 36, 55
2, 173916, Control_c, 0, 64, 127
2, 174120, Control_c, 0, 64, 0
2, 174124, Note_on_c, 0, 43, 54
2, 174134, Note_on_c, 0, 42, 38
2, 174198, Note_on_c, 0, 42, 0
2, 174280, Note_on_c, 0, 48, 0
2, 174316, Note_on_c, 0, 43, 0
2, 174322, Control_c, 0, 64, 127
2, 174500, Note_on_c, 0, 42, 46
2, 174514, Note_on_c, 0, 43, 57
2, 174558, Control_c, 0, 64, 0
2, 174568, Note_on_c, 0, 42, 0
2, 174658, Note_on_c, 0, 36, 0
2, 174728, Control_c, 0, 64, 127
2, 174808, Control_c, 0, 64, 0
2, 174892, Note_on_c, 0, 31, 53
2, 174950, Control_c, 0, 64, 127
2, 174962, Note_on_c, 0, 31, 0
2, 175014, Note_on_c, 0, 43, 0
2, 175066, Control_c, 0, 64, 0
2, 175106, Note_on_c, 0, 43, 66
2, 175132, Note_on_c, 0, 42, 55
2, 175160, Note_on_c, 0, 42, 0
2, 175520, Control_c, 0, 64, 127
2, 175604, Note_on_c, 0, 43, 0
2, 175694, Note_on_c, 0, 61, 81
2, 175704, Note_on_c, 0, 43, 38
2, 175770, Control_c, 0, 64, 0
2, 175880, Note_on_c, 0, 61, 0
2, 175882, Note_on_c, 0, 56, 35
2, 176058, Note_on_c, 0, 56, 0
2, 176060, Note_on_c, 0, 55, 53
2, 176150, Note_on_c, 0, 55, 0
2, 176242, Note_on_c, 0, 60, 48
2, 176300, Note_on_c, 0, 43, 0
2, 176438, Note_on_c, 0, 55, 45
2, 176444, Note_on_c, 0, 43, 42
2, 176564, Note_on_c, 0, 55, 0
2, 176570, Note_on_c, 0, 60, 0
2, 176652, Note_on_c, 0, 53, 24
2, 176800, Note_on_c, 0, 53, 0
2, 176802, Note_on_c, 0, 43, 0
2, 176830, Note_on_c, 0, 51, 39
2, 176948, Note_on_c, 0, 51, 0
2, 177000, Note_on_c, 0, 53, 59
2, 177002, Note_on_c, 0, 43, 43
2, 177188, Note_on_c, 0, 53, 0
2, 177250, Note_on_c, 0, 48, 22
2, 177332, Note_on_c, 0, 48, 0
2, 177384, Note_on_c, 0, 31, 41
2, 177386, Note_on_c, 0, 51, 52
2, 177486, Note_on_c, 0, 31, 0
2, 177606, Note_on_c, 0, 31, 36
2, 177646, Note_on_c, 0, 43, 0
2, 177682, Note_on_c, 0, 51, 0
2, 177772, Note_on_c, 0, 43, 36
2, 177796, Note_on_c, 0, 50, 42
2, 177834, Note_on_c, 0, 43, 0
2, 177906, Note_on_c, 0, 31, 0
2, 177992, Note_on_c, 0, 50, 0
2, 178014, Note_on_c, 0, 48, 59
2, 178028, Note_on_c, 0, 36, 45
2, 178048, Note_on_c, 0, 24, 33
2, 178144, Note_on_c, 0, 48, 0
2, 178230, Note_on_c, 0, 24, 0
2, 178250, Note_on_c, 0, 36, 0
2, 178250, End_track
0, 0, End_of_file
