0, 0, Header, 0, 1, 120
1, 0, Start_track
1, 0, Title_t, "Hello"
1, 0, Text_t, "Dougmck"
1, 0, Time_signature, 4, 2, 24, 8
1, 0, Key_signature, 0, "major"
1, 0, Tempo, 681818
1, 0, Program_c, 1, 0
1, 0, Program_c, 0, 0
1, 5, Control_c, 0, 64, 127
1, 143, Note_on_c, 0, 82, 52
1, 151, Note_on_c, 0, 65, 30
1, 156, Note_on_c, 0, 62, 17
1, 157, Control_c, 0, 64, 0
1, 162, Note_on_c, 0, 70, 17
1, 167, Note_on_c, 0, 60, 8
1, 202, Control_c, 0, 64, 127
1, 210, Note_on_c, 0, 65, 0
1, 274, Note_on_c, 0, 53, 32
1, 321, Note_on_c, 0, 60, 0
1, 324, Note_on_c, 0, 62, 0
1, 458, Note_on_c, 0, 70, 0
1, 459, Note_on_c, 0, 82, 0
1, 518, Note_on_c, 0, 62, 29
1, 523, Note_on_c, 0, 55, 25
1, 523, Note_on_c, 0, 58, 32
1, 594, Note_on_c, 0, 74, 91
1, 608, Note_on_c, 0, 62, 0
1, 621, Note_on_c, 0, 58, 0
1, 622, Note_on_c, 0, 55, 0
1, 626, Note_on_c, 0, 53, 0
1, 647, Note_on_c, 0, 74, 0
1, 680, Note_on_c, 0, 65, 74
1, 680, Note_on_c, 0, 48, 36
1, 680, Note_on_c, 0, 58, 43
1, 682, Note_on_c, 0, 55, 41
1, 692, Control_c, 0, 64, 0
1, 736, Control_c, 0, 64, 127
1, 800, Note_on_c, 0, 55, 0
1, 821, Note_on_c, 0, 48, 0
1, 830, Note_on_c, 0, 67, 42
1, 833, Note_on_c, 0, 58, 0
1, 839, Note_on_c, 0, 65, 0
1, 876, Note_on_c, 0, 67, 0
1, 1032, Note_on_c, 0, 70, 47
1, 1043, Note_on_c, 0, 68, 37
1, 1044, Note_on_c, 0, 63, 33
1, 1044, Note_on_c, 0, 57, 36
1, 1045, Control_c, 0, 64, 0
1, 1051, Note_on_c, 0, 70, 0
1, 1104, Control_c, 0, 64, 127
1, 1166, Note_on_c, 0, 57, 0
1, 1169, Note_on_c, 0, 63, 0
1, 1179, Note_on_c, 0, 68, 0
1, 1193, Note_on_c, 0, 67, 47
1, 1242, Note_on_c, 0, 67, 0
1, 1257, Note_on_c, 0, 46, 35
1, 1258, Note_on_c, 0, 65, 33
1, 1264, Control_c, 0, 64, 0
1, 1288, Control_c, 0, 64, 127
1, 1301, Note_on_c, 0, 65, 0
1, 1309, Note_on_c, 0, 53, 34
1, 1359, Note_on_c, 0, 65, 51
1, 1362, Note_on_c, 0, 57, 23
1, 1369, Note_on_c, 0, 53, 0
1, 1374, Note_on_c, 0, 46, 0
1, 1385, Note_on_c, 0, 57, 0
1, 1418, Note_on_c, 0, 77, 71
1, 1425, Note_on_c, 0, 65, 0
1, 1445, Note_on_c, 0, 77, 0
1, 1486, Note_on_c, 0, 79, 50
1, 1488, Note_on_c, 0, 70, 46
1, 1488, Note_on_c, 0, 76, 37
1, 1488, Note_on_c, 0, 74, 38
1, 1490, Note_on_c, 0, 71, 48
1, 1494, Control_c, 0, 64, 0
1, 1524, Control_c, 0, 64, 127
1, 1546, Note_on_c, 0, 79, 0
1, 1562, Note_on_c, 0, 70, 0
1, 1577, Note_on_c, 0, 76, 0
1, 1578, Note_on_c, 0, 79, 38
1, 1589, Note_on_c, 0, 74, 0
1, 1592, Note_on_c, 0, 79, 0
1, 1599, Note_on_c, 0, 71, 0
1, 1686, Note_on_c, 0, 67, 24
1, 1687, Note_on_c, 0, 62, 29
1, 1689, Note_on_c, 0, 59, 27
1, 1689, Note_on_c, 0, 46, 31
1, 1689, Note_on_c, 0, 64, 33
1, 1691, Note_on_c, 0, 56, 20
1, 1780, Note_on_c, 0, 64, 0
1, 1784, Note_on_c, 0, 59, 0
1, 1790, Note_on_c, 0, 62, 0
1, 1792, Note_on_c, 0, 67, 0
1, 1896, Note_on_c, 0, 82, 63
1, 1903, Note_on_c, 0, 70, 60
1, 1945, Note_on_c, 0, 82, 0
1, 1958, Note_on_c, 0, 70, 0
1, 1983, Note_on_c, 0, 56, 0
1, 2012, Note_on_c, 0, 46, 0
1, 2169, Note_on_c, 0, 70, 47
1, 2170, Note_on_c, 0, 39, 34
1, 2181, Control_c, 0, 64, 0
1, 2201, Control_c, 0, 64, 127
1, 2228, Note_on_c, 0, 46, 38
1, 2230, Note_on_c, 0, 39, 0
1, 2269, Note_on_c, 0, 46, 0
1, 2282, Note_on_c, 0, 55, 46
1, 2283, Note_on_c, 0, 65, 41
1, 2287, Note_on_c, 0, 60, 27
1, 2311, Note_on_c, 0, 60, 0
1, 2324, Note_on_c, 0, 65, 0
1, 2327, Note_on_c, 0, 70, 0
1, 2333, Note_on_c, 0, 55, 0
1, 2338, Note_on_c, 0, 58, 44
1, 2392, Note_on_c, 0, 70, 51
1, 2394, Note_on_c, 0, 62, 36
1, 2437, Note_on_c, 0, 70, 0
1, 2439, Note_on_c, 0, 62, 0
1, 2441, Note_on_c, 0, 67, 40
1, 2442, Note_on_c, 0, 77, 62
1, 2457, Note_on_c, 0, 77, 0
1, 2489, Note_on_c, 0, 77, 58
1, 2490, Note_on_c, 0, 62, 54
1, 2498, Note_on_c, 0, 58, 0
1, 2511, Note_on_c, 0, 67, 0
1, 2529, Note_on_c, 0, 77, 0
1, 2539, Note_on_c, 0, 86, 59
1, 2542, Note_on_c, 0, 62, 0
1, 2545, Note_on_c, 0, 58, 31
1, 2550, Note_on_c, 0, 58, 0
1, 2561, Note_on_c, 0, 86, 0
1, 2595, Note_on_c, 0, 89, 52
1, 2596, Note_on_c, 0, 44, 53
1, 2598, Note_on_c, 0, 82, 52
1, 2599, Control_c, 0, 64, 0
1, 2626, Control_c, 0, 64, 127
1, 2653, Note_on_c, 0, 89, 0
1, 2658, Note_on_c, 0, 86, 46
1, 2660, Note_on_c, 0, 77, 30
1, 2660, Note_on_c, 0, 54, 32
1, 2665, Note_on_c, 0, 44, 0
1, 2667, Note_on_c, 0, 82, 0
1, 2668, Note_on_c, 0, 77, 0
1, 2672, Note_on_c, 0, 54, 0
1, 2673, Note_on_c, 0, 86, 0
1, 2725, Note_on_c, 0, 94, 33
1, 2725, Note_on_c, 0, 101, 38
1, 2730, Note_on_c, 0, 60, 43
1, 2778, Note_on_c, 0, 94, 0
1, 2790, Note_on_c, 0, 101, 0
1, 2797, Note_on_c, 0, 98, 50
1, 2801, Note_on_c, 0, 89, 34
1, 2802, Note_on_c, 0, 65, 36
1, 2811, Note_on_c, 0, 98, 0
1, 2824, Note_on_c, 0, 89, 0
1, 2836, Note_on_c, 0, 65, 0
1, 2891, Note_on_c, 0, 94, 34
1, 2892, Note_on_c, 0, 65, 34
1, 2894, Note_on_c, 0, 84, 19
1, 2896, Note_on_c, 0, 89, 17
1, 2936, Note_on_c, 0, 89, 0
1, 2940, Note_on_c, 0, 94, 0
1, 2947, Note_on_c, 0, 84, 0
1, 2968, Note_on_c, 0, 60, 0
1, 3057, Note_on_c, 0, 65, 0
1, 3060, Note_on_c, 0, 82, 76
1, 3062, Note_on_c, 0, 60, 27
1, 3119, Note_on_c, 0, 82, 0
1, 3144, Note_on_c, 0, 70, 43
1, 3197, Note_on_c, 0, 60, 0
1, 3214, Note_on_c, 0, 70, 0
1, 3217, Note_on_c, 0, 72, 64
1, 3275, Note_on_c, 0, 72, 0
1, 3282, Note_on_c, 0, 65, 40
1, 3282, Note_on_c, 0, 73, 62
1, 3282, Note_on_c, 0, 62, 34
1, 3287, Control_c, 0, 64, 0
1, 3287, Note_on_c, 0, 60, 45
1, 3311, Control_c, 0, 64, 127
1, 3312, Note_on_c, 0, 65, 0
1, 3322, Note_on_c, 0, 73, 0
1, 3322, Note_on_c, 0, 74, 55
1, 3342, Note_on_c, 0, 74, 0
1, 3362, Control_c, 0, 64, 0
1, 3363, Note_on_c, 0, 77, 74
1, 3363, Note_on_c, 0, 53, 37
1, 3391, Control_c, 0, 64, 127
1, 3392, Note_on_c, 0, 60, 0
1, 3399, Note_on_c, 0, 53, 0
1, 3402, Note_on_c, 0, 62, 0
1, 3407, Note_on_c, 0, 73, 55
1, 3408, Note_on_c, 0, 77, 0
1, 3446, Note_on_c, 0, 73, 0
1, 3452, Note_on_c, 0, 74, 45
1, 3457, Note_on_c, 0, 55, 32
1, 3460, Control_c, 0, 64, 0
1, 3504, Note_on_c, 0, 74, 0
1, 3508, Note_on_c, 0, 79, 51
1, 3508, Note_on_c, 0, 65, 26
1, 3509, Note_on_c, 0, 58, 29
1, 3509, Note_on_c, 0, 62, 28
1, 3533, Control_c, 0, 64, 127
1, 3563, Note_on_c, 0, 73, 45
1, 3572, Note_on_c, 0, 79, 0
1, 3588, Note_on_c, 0, 62, 0
1, 3592, Note_on_c, 0, 65, 0
1, 3604, Note_on_c, 0, 55, 0
1, 3608, Note_on_c, 0, 73, 0
1, 3608, Note_on_c, 0, 58, 0
1, 3613, Note_on_c, 0, 74, 51
1, 3630, Note_on_c, 0, 74, 0
1, 3672, Note_on_c, 0, 81, 68
1, 3673, Note_on_c, 0, 78, 60
1, 3675, Note_on_c, 0, 74, 70
1, 3677, Note_on_c, 0, 52, 60
1, 3678, Control_c, 0, 64, 0
1, 3679, Note_on_c, 0, 62, 41
1, 3680, Note_on_c, 0, 69, 62
1, 3714, Control_c, 0, 64, 127
1, 3727, Note_on_c, 0, 81, 0
1, 3739, Note_on_c, 0, 78, 0
1, 3744, Note_on_c, 0, 62, 0
1, 3746, Note_on_c, 0, 81, 76
1, 3746, Note_on_c, 0, 58, 63
1, 3748, Note_on_c, 0, 78, 28
1, 3776, Note_on_c, 0, 69, 0
1, 3781, Note_on_c, 0, 74, 0
1, 3784, Note_on_c, 0, 81, 0
1, 3787, Note_on_c, 0, 78, 0
1, 3811, Note_on_c, 0, 78, 47
1, 3812, Note_on_c, 0, 81, 59
1, 3812, Note_on_c, 0, 74, 54
1, 3813, Note_on_c, 0, 62, 51
1, 3814, Note_on_c, 0, 69, 53
1, 3818, Note_on_c, 0, 62, 0
1, 3837, Note_on_c, 0, 58, 0
1, 3841, Note_on_c, 0, 52, 0
1, 3853, Note_on_c, 0, 81, 0
1, 3869, Note_on_c, 0, 69, 0
1, 3875, Note_on_c, 0, 78, 0
1, 3875, Note_on_c, 0, 74, 0
1, 3882, Note_on_c, 0, 81, 70
1, 3885, Note_on_c, 0, 78, 33
1, 3886, Note_on_c, 0, 74, 30
1, 3893, Note_on_c, 0, 74, 0
1, 3902, Note_on_c, 0, 78, 0
1, 3925, Note_on_c, 0, 81, 0
1, 3953, Note_on_c, 0, 39, 55
1, 3954, Note_on_c, 0, 81, 65
1, 3954, Note_on_c, 0, 27, 51
1, 3955, Control_c, 0, 64, 0
1, 3958, Note_on_c, 0, 77, 43
1, 3971, Note_on_c, 0, 27, 0
1, 3973, Note_on_c, 0, 39, 0
1, 3973, Control_c, 0, 64, 127
1, 4008, Note_on_c, 0, 77, 0
1, 4013, Note_on_c, 0, 81, 0
1, 4045, Note_on_c, 0, 81, 67
1, 4046, Note_on_c, 0, 61, 37
1, 4046, Note_on_c, 0, 65, 57
1, 4047, Note_on_c, 0, 55, 41
1, 4047, Note_on_c, 0, 77, 59
1, 4047, Note_on_c, 0, 72, 60
1, 4049, Note_on_c, 0, 60, 64
1, 4052, Note_on_c, 0, 58, 33
1, 4102, Note_on_c, 0, 55, 0
1, 4102, Note_on_c, 0, 65, 0
1, 4103, Note_on_c, 0, 60, 0
1, 4104, Note_on_c, 0, 61, 0
1, 4110, Note_on_c, 0, 58, 0
1, 4110, Note_on_c, 0, 72, 0
1, 4111, Note_on_c, 0, 77, 0
1, 4117, Note_on_c, 0, 81, 0
1, 4139, Note_on_c, 0, 81, 62
1, 4140, Note_on_c, 0, 65, 58
1, 4140, Note_on_c, 0, 77, 53
1, 4140, Note_on_c, 0, 61, 38
1, 4141, Note_on_c, 0, 60, 33
1, 4142, Note_on_c, 0, 55, 38
1, 4142, Note_on_c, 0, 72, 51
1, 4174, Note_on_c, 0, 77, 0
1, 4177, Note_on_c, 0, 81, 0
1, 4180, Note_on_c, 0, 65, 0
1, 4181, Note_on_c, 0, 72, 0
1, 4182, Note_on_c, 0, 55, 0
1, 4183, Note_on_c, 0, 60, 0
1, 4191, Note_on_c, 0, 61, 0
1, 4226, Note_on_c, 0, 82, 59
1, 4228, Note_on_c, 0, 65, 62
1, 4228, Note_on_c, 0, 75, 64
1, 4229, Note_on_c, 0, 61, 37
1, 4230, Note_on_c, 0, 70, 49
1, 4230, Note_on_c, 0, 55, 47
1, 4231, Note_on_c, 0, 60, 46
1, 4243, Note_on_c, 0, 65, 0
1, 4247, Note_on_c, 0, 60, 0
1, 4252, Note_on_c, 0, 70, 0
1, 4252, Note_on_c, 0, 55, 0
1, 4253, Note_on_c, 0, 61, 0
1, 4254, Note_on_c, 0, 75, 0
1, 4258, Note_on_c, 0, 82, 0
1, 4308, Note_on_c, 0, 84, 77
1, 4308, Control_c, 0, 64, 0
1, 4309, Note_on_c, 0, 77, 73
1, 4309, Note_on_c, 0, 50, 60
1, 4310, Note_on_c, 0, 60, 67
1, 4310, Note_on_c, 0, 81, 66
1, 4310, Note_on_c, 0, 72, 74
1, 4326, Control_c, 0, 64, 127
1, 4355, Note_on_c, 0, 84, 0
1, 4359, Note_on_c, 0, 81, 0
1, 4365, Note_on_c, 0, 77, 0
1, 4369, Note_on_c, 0, 72, 0
1, 4369, Note_on_c, 0, 57, 64
1, 4376, Note_on_c, 0, 60, 0
1, 4429, Note_on_c, 0, 72, 85
1, 4429, Note_on_c, 0, 60, 70
1, 4430, Note_on_c, 0, 65, 103
1, 4441, Note_on_c, 0, 50, 0
1, 4457, Note_on_c, 0, 60, 0
1, 4490, Note_on_c, 0, 50, 68
1, 4509, Note_on_c, 0, 57, 0
1, 4514, Note_on_c, 0, 50, 0
1, 4519, Note_on_c, 0, 65, 0
1, 4527, Note_on_c, 0, 72, 0
1, 4561, Note_on_c, 0, 72, 70
1, 4561, Note_on_c, 0, 49, 70
1, 4561, Note_on_c, 0, 65, 81
1, 4563, Note_on_c, 0, 60, 80
1, 4567, Control_c, 0, 64, 0
1, 4612, Control_c, 0, 64, 127
1, 4632, Note_on_c, 0, 56, 49
1, 4642, Note_on_c, 0, 56, 0
1, 4644, Note_on_c, 0, 49, 0
1, 4651, Note_on_c, 0, 65, 0
1, 4653, Note_on_c, 0, 60, 0
1, 4706, Note_on_c, 0, 65, 62
1, 4707, Note_on_c, 0, 44, 30
1, 4707, Note_on_c, 0, 54, 38
1, 4708, Note_on_c, 0, 60, 46
1, 4716, Control_c, 0, 64, 0
1, 4730, Control_c, 0, 64, 127
1, 4765, Note_on_c, 0, 44, 0
1, 4779, Note_on_c, 0, 51, 50
1, 4781, Note_on_c, 0, 54, 0
1, 4787, Note_on_c, 0, 72, 0
1, 4791, Note_on_c, 0, 65, 0
1, 4793, Note_on_c, 0, 51, 0
1, 4806, Note_on_c, 0, 60, 0
1, 4859, Note_on_c, 0, 65, 56
1, 4860, Note_on_c, 0, 37, 51
1, 4861, Note_on_c, 0, 60, 62
1, 4865, Control_c, 0, 64, 0
1, 4888, Control_c, 0, 64, 127
1, 4919, Note_on_c, 0, 37, 0
1, 4920, Note_on_c, 0, 44, 50
1, 4923, Note_on_c, 0, 60, 0
1, 4926, Note_on_c, 0, 65, 0
1, 4947, Note_on_c, 0, 46, 25
1, 4983, Note_on_c, 0, 46, 0
1, 4994, Note_on_c, 0, 53, 62
1, 5078, Note_on_c, 0, 65, 54
1, 5079, Note_on_c, 0, 60, 41
1, 5092, Note_on_c, 0, 44, 0
1, 5095, Note_on_c, 0, 53, 0
1, 5118, Note_on_c, 0, 65, 0
1, 5131, Note_on_c, 0, 60, 0
1, 5247, Note_on_c, 0, 68, 37
1, 5248, Note_on_c, 0, 61, 42
1, 5250, Note_on_c, 0, 57, 26
1, 5251, Note_on_c, 0, 41, 43
1, 5252, Control_c, 0, 64, 0
1, 5252, Note_on_c, 0, 63, 36
1, 5291, Control_c, 0, 64, 127
1, 5357, Note_on_c, 0, 54, 38
1, 5429, Note_on_c, 0, 54, 0
1, 5438, Note_on_c, 0, 57, 0
1, 5481, Note_on_c, 0, 61, 0
1, 5487, Note_on_c, 0, 63, 0
1, 5516, Note_on_c, 0, 68, 0
1, 5521, Note_on_c, 0, 66, 30
1, 5523, Note_on_c, 0, 53, 34
1, 5523, Note_on_c, 0, 57, 25
1, 5524, Note_on_c, 0, 61, 28
1, 5525, Note_on_c, 0, 63, 25
1, 5531, Control_c, 0, 64, 0
1, 5556, Control_c, 0, 64, 127
1, 5656, Note_on_c, 0, 66, 0
1, 5661, Note_on_c, 0, 57, 0
1, 5667, Note_on_c, 0, 41, 0
1, 5677, Note_on_c, 0, 61, 0
1, 5678, Note_on_c, 0, 63, 0
1, 5692, Note_on_c, 0, 53, 0
1, 5697, Note_on_c, 0, 65, 36
1, 5764, Note_on_c, 0, 65, 0
1, 5888, Note_on_c, 0, 82, 79
1, 5893, Note_on_c, 0, 70, 77
1, 5895, Note_on_c, 0, 65, 54
1, 5897, Note_on_c, 0, 62, 29
1, 5901, Control_c, 0, 64, 0
1, 5902, Note_on_c, 0, 60, 34
1, 5923, Control_c, 0, 64, 127
1, 5926, Note_on_c, 0, 65, 0
1, 6000, Note_on_c, 0, 53, 29
1, 6010, Note_on_c, 0, 60, 0
1, 6011, Note_on_c, 0, 62, 0
1, 6026, Note_on_c, 0, 53, 0
1, 6148, Note_on_c, 0, 43, 36
1, 6150, Control_c, 0, 64, 0
1, 6160, Control_c, 0, 64, 127
1, 6183, Note_on_c, 0, 43, 0
1, 6272, Note_on_c, 0, 62, 22
1, 6278, Note_on_c, 0, 57, 24
1, 6279, Note_on_c, 0, 53, 26
1, 6279, Note_on_c, 0, 58, 33
1, 6290, Note_on_c, 0, 70, 0
1, 6301, Note_on_c, 0, 82, 0
1, 6357, Note_on_c, 0, 86, 80
1, 6374, Note_on_c, 0, 62, 0
1, 6380, Note_on_c, 0, 57, 0
1, 6380, Note_on_c, 0, 86, 0
1, 6385, Note_on_c, 0, 58, 0
1, 6386, Note_on_c, 0, 53, 0
1, 6467, Note_on_c, 0, 77, 46
1, 6470, Note_on_c, 0, 70, 51
1, 6475, Note_on_c, 0, 65, 51
1, 6475, Note_on_c, 0, 58, 28
1, 6475, Note_on_c, 0, 48, 30
1, 6485, Control_c, 0, 64, 0
1, 6514, Control_c, 0, 64, 127
1, 6559, Note_on_c, 0, 55, 31
1, 6560, Note_on_c, 0, 65, 0
1, 6572, Note_on_c, 0, 58, 0
1, 6617, Note_on_c, 0, 70, 0
1, 6624, Note_on_c, 0, 77, 0
1, 6632, Note_on_c, 0, 58, 25
1, 6679, Note_on_c, 0, 48, 0
1, 6680, Note_on_c, 0, 55, 0
1, 6762, Note_on_c, 0, 79, 41
1, 6769, Note_on_c, 0, 58, 0
1, 6803, Note_on_c, 0, 79, 0
1, 6888, Note_on_c, 0, 82, 46
1, 6896, Note_on_c, 0, 61, 29
1, 6897, Note_on_c, 0, 80, 34
1, 6897, Note_on_c, 0, 63, 30
1, 6897, Note_on_c, 0, 57, 27
1, 6899, Note_on_c, 0, 68, 18
1, 6903, Note_on_c, 0, 82, 0
1, 6942, Note_on_c, 0, 80, 0
1, 6947, Note_on_c, 0, 68, 0
1, 6948, Note_on_c, 0, 61, 0
1, 6949, Note_on_c, 0, 57, 0
1, 6949, Note_on_c, 0, 63, 0
1, 7133, Control_c, 0, 64, 0
1, 7136, Control_c, 0, 64, 127
1, 7150, Note_on_c, 0, 79, 58
1, 7189, Note_on_c, 0, 79, 0
1, 7197, Note_on_c, 0, 77, 52
1, 7197, Note_on_c, 0, 65, 28
1, 7203, Note_on_c, 0, 62, 24
1, 7203, Note_on_c, 0, 60, 30
1, 7223, Note_on_c, 0, 65, 0
1, 7247, Note_on_c, 0, 53, 41
1, 7261, Note_on_c, 0, 77, 0
1, 7290, Note_on_c, 0, 65, 61
1, 7302, Note_on_c, 0, 53, 0
1, 7313, Note_on_c, 0, 65, 0
1, 7324, Note_on_c, 0, 77, 66
1, 7325, Note_on_c, 0, 60, 0
1, 7335, Note_on_c, 0, 62, 0
1, 7352, Note_on_c, 0, 77, 0
1, 7359, Note_on_c, 0, 55, 36
1, 7360, Note_on_c, 0, 74, 44
1, 7370, Control_c, 0, 64, 0
1, 7391, Control_c, 0, 64, 127
1, 7395, Note_on_c, 0, 74, 0
1, 7395, Note_on_c, 0, 62, 40
1, 7438, Note_on_c, 0, 65, 42
1, 7444, Note_on_c, 0, 62, 0
1, 7457, Note_on_c, 0, 55, 0
1, 7469, Note_on_c, 0, 65, 0
1, 7475, Note_on_c, 0, 74, 41
1, 7506, Note_on_c, 0, 74, 0
1, 7516, Note_on_c, 0, 52, 38
1, 7518, Note_on_c, 0, 69, 48
1, 7528, Control_c, 0, 64, 0
1, 7547, Control_c, 0, 64, 127
1, 7566, Note_on_c, 0, 69, 0
1, 7567, Note_on_c, 0, 58, 39
1, 7610, Note_on_c, 0, 62, 44
1, 7633, Note_on_c, 0, 58, 0
1, 7640, Note_on_c, 0, 52, 0
1, 7656, Note_on_c, 0, 62, 0
1, 7657, Note_on_c, 0, 69, 48
1, 7690, Note_on_c, 0, 69, 0
1, 7715, Note_on_c, 0, 64, 32
1, 7716, Note_on_c, 0, 62, 31
1, 7719, Note_on_c, 0, 45, 29
1, 7721, Note_on_c, 0, 55, 24
1, 7729, Control_c, 0, 64, 0
1, 7764, Control_c, 0, 64, 127
1, 7786, Note_on_c, 0, 52, 28
1, 7800, Note_on_c, 0, 55, 0
1, 7808, Note_on_c, 0, 62, 0
1, 7855, Note_on_c, 0, 64, 0
1, 7876, Note_on_c, 0, 55, 24
1, 7877, Note_on_c, 0, 61, 30
1, 7879, Note_on_c, 0, 57, 19
1, 7883, Control_c, 0, 64, 0
1, 7908, Control_c, 0, 64, 127
1, 7956, Note_on_c, 0, 57, 0
1, 7976, Note_on_c, 0, 61, 0
1, 8086, Note_on_c, 0, 69, 43
1, 8126, Note_on_c, 0, 69, 0
1, 8154, Note_on_c, 0, 69, 70
1, 8160, Note_on_c, 0, 45, 0
1, 8162, Note_on_c, 0, 52, 0
1, 8183, Note_on_c, 0, 55, 0
1, 8187, Note_on_c, 0, 69, 0
1, 8203, Note_on_c, 0, 69, 75
1, 8229, Note_on_c, 0, 69, 0
1, 8253, Note_on_c, 0, 69, 79
1, 8288, Note_on_c, 0, 69, 0
1, 8303, Note_on_c, 0, 69, 56
1, 8315, Note_on_c, 0, 69, 0
1, 8372, Note_on_c, 0, 50, 34
1, 8373, Note_on_c, 0, 83, 54
1, 8384, Control_c, 0, 64, 0
1, 8414, Control_c, 0, 64, 127
1, 8456, Note_on_c, 0, 57, 17
1, 8534, Note_on_c, 0, 83, 0
1, 8536, Note_on_c, 0, 76, 24
1, 8541, Note_on_c, 0, 62, 22
1, 8541, Note_on_c, 0, 71, 20
1, 8595, Note_on_c, 0, 81, 75
1, 8636, Note_on_c, 0, 71, 0
1, 8636, Note_on_c, 0, 76, 0
1, 8637, Note_on_c, 0, 81, 0
1, 8644, Note_on_c, 0, 79, 75
1, 8650, Note_on_c, 0, 81, 34
1, 8654, Note_on_c, 0, 50, 0
1, 8655, Note_on_c, 0, 81, 0
1, 8658, Note_on_c, 0, 57, 0
1, 8667, Note_on_c, 0, 79, 0
1, 8671, Note_on_c, 0, 62, 0
1, 8695, Note_on_c, 0, 78, 73
1, 8740, Note_on_c, 0, 78, 0
1, 8761, Note_on_c, 0, 76, 40
1, 8770, Note_on_c, 0, 59, 33
1, 8770, Note_on_c, 0, 77, 53
1, 8772, Note_on_c, 0, 64, 33
1, 8774, Note_on_c, 0, 53, 34
1, 8775, Note_on_c, 0, 76, 0
1, 8776, Control_c, 0, 64, 0
1, 8833, Control_c, 0, 64, 127
1, 8856, Note_on_c, 0, 74, 37
1, 8861, Note_on_c, 0, 77, 0
1, 8862, Note_on_c, 0, 64, 0
1, 8868, Note_on_c, 0, 59, 0
1, 8870, Note_on_c, 0, 53, 0
1, 8918, Note_on_c, 0, 74, 0
1, 8922, Note_on_c, 0, 76, 34
1, 8924, Note_on_c, 0, 43, 31
1, 8952, Note_on_c, 0, 43, 0
1, 8980, Note_on_c, 0, 74, 73
1, 8986, Note_on_c, 0, 76, 0
1, 9013, Note_on_c, 0, 74, 0
1, 9036, Note_on_c, 0, 76, 89
1, 9036, Note_on_c, 0, 53, 37
1, 9036, Note_on_c, 0, 59, 52
1, 9037, Note_on_c, 0, 64, 53
1, 9077, Note_on_c, 0, 76, 0
1, 9090, Note_on_c, 0, 76, 82
1, 9123, Note_on_c, 0, 76, 0
1, 9130, Note_on_c, 0, 64, 0
1, 9134, Note_on_c, 0, 74, 83
1, 9137, Note_on_c, 0, 76, 44
1, 9141, Note_on_c, 0, 76, 0
1, 9143, Note_on_c, 0, 59, 0
1, 9155, Note_on_c, 0, 53, 0
1, 9161, Note_on_c, 0, 74, 0
1, 9174, Note_on_c, 0, 74, 68
1, 9197, Note_on_c, 0, 74, 0
1, 9218, Note_on_c, 0, 78, 70
1, 9222, Note_on_c, 0, 50, 38
1, 9230, Control_c, 0, 64, 0
1, 9260, Control_c, 0, 64, 127
1, 9270, Note_on_c, 0, 57, 43
1, 9322, Note_on_c, 0, 66, 57
1, 9324, Note_on_c, 0, 62, 48
1, 9356, Note_on_c, 0, 66, 0
1, 9362, Note_on_c, 0, 50, 0
1, 9373, Note_on_c, 0, 78, 0
1, 9373, Note_on_c, 0, 62, 0
1, 9387, Note_on_c, 0, 50, 57
1, 9388, Note_on_c, 0, 74, 68
1, 9398, Note_on_c, 0, 57, 0
1, 9401, Note_on_c, 0, 50, 0
1, 9408, Note_on_c, 0, 74, 0
1, 9470, Note_on_c, 0, 61, 48
1, 9470, Note_on_c, 0, 73, 76
1, 9471, Note_on_c, 0, 70, 80
1, 9471, Note_on_c, 0, 66, 82
1, 9472, Note_on_c, 0, 59, 57
1, 9472, Note_on_c, 0, 62, 58
1, 9479, Control_c, 0, 64, 0
1, 9503, Control_c, 0, 64, 127
1, 9531, Note_on_c, 0, 59, 0
1, 9533, Note_on_c, 0, 62, 0
1, 9537, Note_on_c, 0, 61, 0
1, 9538, Note_on_c, 0, 66, 0
1, 9539, Note_on_c, 0, 70, 0
1, 9539, Note_on_c, 0, 73, 0
1, 9567, Note_on_c, 0, 61, 39
1, 9567, Note_on_c, 0, 62, 40
1, 9568, Note_on_c, 0, 73, 49
1, 9568, Note_on_c, 0, 70, 61
1, 9568, Note_on_c, 0, 66, 48
1, 9569, Note_on_c, 0, 59, 41
1, 9603, Note_on_c, 0, 62, 0
1, 9606, Note_on_c, 0, 59, 0
1, 9608, Note_on_c, 0, 61, 0
1, 9614, Note_on_c, 0, 70, 0
1, 9616, Note_on_c, 0, 66, 0
1, 9618, Note_on_c, 0, 73, 0
1, 9643, Note_on_c, 0, 61, 34
1, 9643, Note_on_c, 0, 73, 42
1, 9643, Note_on_c, 0, 66, 48
1, 9644, Note_on_c, 0, 70, 53
1, 9645, Note_on_c, 0, 59, 36
1, 9645, Note_on_c, 0, 62, 35
1, 9670, Note_on_c, 0, 62, 0
1, 9675, Note_on_c, 0, 61, 0
1, 9676, Note_on_c, 0, 59, 0
1, 9678, Note_on_c, 0, 73, 0
1, 9680, Note_on_c, 0, 66, 0
1, 9680, Note_on_c, 0, 70, 0
1, 9706, Note_on_c, 0, 61, 49
1, 9709, Note_on_c, 0, 59, 39
1, 9709, Note_on_c, 0, 62, 44
1, 9709, Note_on_c, 0, 70, 61
1, 9710, Note_on_c, 0, 66, 51
1, 9710, Note_on_c, 0, 73, 46
1, 9717, Note_on_c, 0, 62, 0
1, 9724, Note_on_c, 0, 59, 0
1, 9729, Note_on_c, 0, 61, 0
1, 9742, Note_on_c, 0, 66, 0
1, 9752, Note_on_c, 0, 70, 0
1, 9755, Note_on_c, 0, 73, 0
1, 9781, Control_c, 0, 64, 0
1, 9781, Note_on_c, 0, 73, 48
1, 9782, Note_on_c, 0, 64, 62
1, 9782, Note_on_c, 0, 69, 64
1, 9783, Note_on_c, 0, 53, 45
1, 9783, Note_on_c, 0, 59, 46
1, 9801, Control_c, 0, 64, 127
1, 9839, Note_on_c, 0, 64, 0
1, 9840, Note_on_c, 0, 53, 0
1, 9840, Note_on_c, 0, 69, 0
1, 9842, Note_on_c, 0, 73, 0
1, 9843, Note_on_c, 0, 59, 0
1, 9869, Note_on_c, 0, 73, 38
1, 9870, Note_on_c, 0, 69, 55
1, 9870, Note_on_c, 0, 59, 32
1, 9871, Note_on_c, 0, 64, 44
1, 9872, Note_on_c, 0, 53, 36
1, 9880, Note_on_c, 0, 59, 0
1, 9885, Note_on_c, 0, 53, 0
1, 9987, Note_on_c, 0, 37, 60
1, 10100, Note_on_c, 0, 64, 0
1, 10113, Note_on_c, 0, 69, 0
1, 10130, Note_on_c, 0, 73, 0
1, 10184, Note_on_c, 0, 37, 0
1, 10192, Note_on_c, 0, 73, 46
1, 10301, Note_on_c, 0, 73, 0
1, 10564, Control_c, 0, 64, 127
1, 10641, Note_on_c, 0, 63, 28
1, 10641, Note_on_c, 0, 61, 47
1, 10642, Note_on_c, 0, 75, 56
1, 10643, Control_c, 0, 64, 0
1, 10721, Note_on_c, 0, 54, 29
1, 10726, Control_c, 0, 64, 127
1, 10751, Note_on_c, 0, 61, 0
1, 10761, Note_on_c, 0, 63, 0
1, 10805, Note_on_c, 0, 75, 0
1, 10830, Note_on_c, 0, 63, 39
1, 10830, Note_on_c, 0, 73, 81
1, 10833, Note_on_c, 0, 61, 36
1, 10875, Note_on_c, 0, 73, 0
1, 10882, Note_on_c, 0, 63, 0
1, 10886, Note_on_c, 0, 71, 78
1, 10910, Note_on_c, 0, 61, 0
1, 10916, Note_on_c, 0, 71, 0
1, 10928, Note_on_c, 0, 54, 0
1, 10946, Note_on_c, 0, 70, 70
1, 10968, Note_on_c, 0, 70, 0
1, 11036, Note_on_c, 0, 69, 64
1, 11039, Note_on_c, 0, 63, 44
1, 11040, Note_on_c, 0, 47, 32
1, 11042, Control_c, 0, 64, 0
1, 11042, Note_on_c, 0, 57, 32
1, 11121, Note_on_c, 0, 69, 0
1, 11124, Note_on_c, 0, 66, 45
1, 11125, Control_c, 0, 64, 127
1, 11131, Note_on_c, 0, 54, 31
1, 11209, Note_on_c, 0, 68, 52
1, 11216, Note_on_c, 0, 66, 0
1, 11259, Note_on_c, 0, 63, 0
1, 11264, Note_on_c, 0, 47, 0
1, 11298, Note_on_c, 0, 66, 52
1, 11299, Note_on_c, 0, 47, 31
1, 11308, Note_on_c, 0, 68, 0
1, 11320, Note_on_c, 0, 57, 0
1, 11334, Note_on_c, 0, 54, 0
1, 11365, Note_on_c, 0, 66, 0
1, 11428, Note_on_c, 0, 69, 76
1, 11430, Note_on_c, 0, 49, 35
1, 11431, Note_on_c, 0, 59, 36
1, 11432, Control_c, 0, 64, 0
1, 11435, Note_on_c, 0, 64, 50
1, 11453, Control_c, 0, 64, 127
1, 11485, Note_on_c, 0, 69, 0
1, 11517, Note_on_c, 0, 69, 58
1, 11518, Note_on_c, 0, 47, 0
1, 11529, Note_on_c, 0, 59, 0
1, 11538, Note_on_c, 0, 49, 0
1, 11555, Note_on_c, 0, 64, 0
1, 11752, Note_on_c, 0, 69, 0
1, 11776, Note_on_c, 0, 68, 38
1, 11779, Note_on_c, 0, 49, 25
1, 11780, Note_on_c, 0, 64, 49
1, 11781, Note_on_c, 0, 59, 24
1, 11782, Note_on_c, 0, 53, 40
1, 11788, Control_c, 0, 64, 0
1, 11823, Control_c, 0, 64, 127
1, 11853, Note_on_c, 0, 68, 0
1, 11873, Note_on_c, 0, 59, 0
1, 11876, Note_on_c, 0, 68, 40
1, 11880, Note_on_c, 0, 53, 0
1, 11889, Note_on_c, 0, 49, 0
1, 11898, Note_on_c, 0, 64, 0
1, 11902, Note_on_c, 0, 68, 0
1, 11975, Note_on_c, 0, 66, 45
1, 11976, Note_on_c, 0, 42, 33
1, 11984, Control_c, 0, 64, 0
1, 12021, Control_c, 0, 64, 127
1, 12024, Note_on_c, 0, 49, 34
1, 12065, Note_on_c, 0, 61, 58
1, 12067, Note_on_c, 0, 54, 25
1, 12068, Note_on_c, 0, 58, 52
1, 12079, Note_on_c, 0, 66, 0
1, 12094, Note_on_c, 0, 54, 0
1, 12108, Note_on_c, 0, 58, 0
1, 12112, Note_on_c, 0, 66, 69
1, 12119, Note_on_c, 0, 61, 0
1, 12137, Note_on_c, 0, 42, 0
1, 12157, Note_on_c, 0, 66, 0
1, 12159, Note_on_c, 0, 49, 0
1, 12170, Note_on_c, 0, 41, 56
1, 12171, Note_on_c, 0, 66, 70
1, 12181, Control_c, 0, 64, 0
1, 12221, Control_c, 0, 64, 127
1, 12231, Note_on_c, 0, 53, 62
1, 12248, Note_on_c, 0, 53, 0
1, 12267, Note_on_c, 0, 41, 0
1, 12283, Note_on_c, 0, 66, 0
1, 12293, Note_on_c, 0, 54, 67
1, 12294, Note_on_c, 0, 66, 52
1, 12295, Note_on_c, 0, 57, 66
1, 12296, Note_on_c, 0, 61, 62
1, 12297, Note_on_c, 0, 63, 56
1, 12301, Control_c, 0, 64, 0
1, 12310, Control_c, 0, 64, 127
1, 12339, Note_on_c, 0, 54, 0
1, 12358, Note_on_c, 0, 53, 30
1, 12373, Note_on_c, 0, 57, 0
1, 12381, Note_on_c, 0, 63, 0
1, 12385, Note_on_c, 0, 61, 0
1, 12392, Note_on_c, 0, 66, 0
1, 12395, Note_on_c, 0, 53, 0
1, 12421, Note_on_c, 0, 40, 64
1, 12423, Control_c, 0, 64, 0
1, 12423, Note_on_c, 0, 66, 35
1, 12423, Note_on_c, 0, 62, 58
1, 12423, Note_on_c, 0, 69, 59
1, 12429, Note_on_c, 0, 57, 29
1, 12430, Note_on_c, 0, 55, 36
1, 12436, Note_on_c, 0, 55, 0
1, 12448, Control_c, 0, 64, 127
1, 12451, Note_on_c, 0, 57, 0
1, 12460, Note_on_c, 0, 62, 0
1, 12469, Note_on_c, 0, 66, 0
1, 12470, Note_on_c, 0, 69, 0
1, 12473, Note_on_c, 0, 47, 61
1, 12507, Note_on_c, 0, 40, 0
1, 12525, Note_on_c, 0, 78, 68
1, 12525, Note_on_c, 0, 74, 69
1, 12526, Note_on_c, 0, 81, 72
1, 12526, Note_on_c, 0, 69, 79
1, 12528, Note_on_c, 0, 55, 58
1, 12536, Note_on_c, 0, 47, 0
1, 12546, Note_on_c, 0, 55, 0
1, 12648, Note_on_c, 0, 69, 0
1, 12657, Note_on_c, 0, 45, 91
1, 12659, Control_c, 0, 64, 0
1, 12660, Note_on_c, 0, 74, 0
1, 12680, Control_c, 0, 64, 127
1, 12686, Note_on_c, 0, 78, 0
1, 12687, Note_on_c, 0, 45, 0
1, 12688, Note_on_c, 0, 81, 0
1, 12820, Note_on_c, 0, 84, 42
1, 12821, Note_on_c, 0, 61, 33
1, 12822, Note_on_c, 0, 55, 44
1, 12823, Note_on_c, 0, 77, 33
1, 12823, Note_on_c, 0, 65, 45
1, 12823, Note_on_c, 0, 81, 43
1, 12825, Note_on_c, 0, 72, 24
1, 12844, Note_on_c, 0, 72, 0
1, 12846, Note_on_c, 0, 77, 0
1, 12846, Note_on_c, 0, 81, 0
1, 12856, Note_on_c, 0, 84, 0
1, 12891, Note_on_c, 0, 65, 0
1, 13002, Note_on_c, 0, 61, 0
1, 13004, Note_on_c, 0, 55, 0
1, 13123, Note_on_c, 0, 38, 77
1, 13123, Note_on_c, 0, 26, 75
1, 13127, Control_c, 0, 64, 0
1, 13149, Control_c, 0, 64, 127
1, 13164, Note_on_c, 0, 26, 0
1, 13173, Note_on_c, 0, 38, 0
1, 13314, Note_on_c, 0, 54, 46
1, 13315, Note_on_c, 0, 86, 71
1, 13317, Note_on_c, 0, 64, 39
1, 13317, Note_on_c, 0, 59, 51
1, 13318, Note_on_c, 0, 74, 65
1, 13318, Note_on_c, 0, 60, 51
1, 13382, Note_on_c, 0, 64, 0
1, 13383, Note_on_c, 0, 59, 0
1, 13385, Note_on_c, 0, 60, 0
1, 13386, Note_on_c, 0, 54, 0
1, 13389, Note_on_c, 0, 86, 0
1, 13399, Note_on_c, 0, 74, 0
1, 13483, Note_on_c, 0, 54, 35
1, 13483, Note_on_c, 0, 66, 35
1, 13484, Note_on_c, 0, 62, 46
1, 13487, Note_on_c, 0, 47, 37
1, 13487, Note_on_c, 0, 57, 28
1, 13489, Control_c, 0, 64, 0
1, 13510, Control_c, 0, 64, 127
1, 13516, Note_on_c, 0, 47, 0
1, 13520, Note_on_c, 0, 57, 0
1, 13526, Note_on_c, 0, 54, 0
1, 13533, Note_on_c, 0, 62, 0
1, 13544, Note_on_c, 0, 66, 0
1, 13642, Note_on_c, 0, 78, 79
1, 13644, Note_on_c, 0, 74, 75
1, 13645, Note_on_c, 0, 66, 47
1, 13645, Note_on_c, 0, 62, 49
1, 13645, Note_on_c, 0, 57, 51
1, 13646, Note_on_c, 0, 69, 81
1, 13646, Note_on_c, 0, 61, 48
1, 13699, Note_on_c, 0, 62, 0
1, 13702, Note_on_c, 0, 66, 0
1, 13703, Note_on_c, 0, 57, 0
1, 13706, Note_on_c, 0, 61, 0
1, 13735, Note_on_c, 0, 69, 0
1, 13743, Note_on_c, 0, 74, 0
1, 13754, Note_on_c, 0, 78, 0
1, 13808, Note_on_c, 0, 81, 69
1, 13809, Note_on_c, 0, 78, 64
1, 13809, Note_on_c, 0, 52, 59
1, 13811, Note_on_c, 0, 74, 69
1, 13811, Note_on_c, 0, 62, 56
1, 13813, Note_on_c, 0, 69, 71
1, 13819, Control_c, 0, 64, 0
1, 13858, Control_c, 0, 64, 127
1, 13881, Note_on_c, 0, 59, 68
1, 13886, Note_on_c, 0, 62, 0
1, 13911, Note_on_c, 0, 74, 0
1, 13916, Note_on_c, 0, 69, 0
1, 13935, Note_on_c, 0, 81, 0
1, 13942, Note_on_c, 0, 74, 50
1, 13943, Note_on_c, 0, 69, 66
1, 13944, Note_on_c, 0, 62, 59
1, 13968, Note_on_c, 0, 69, 0
1, 13971, Note_on_c, 0, 74, 0
1, 13986, Note_on_c, 0, 78, 0
1, 13987, Note_on_c, 0, 52, 0
1, 13996, Note_on_c, 0, 59, 0
1, 13997, Note_on_c, 0, 62, 0
1, 14002, Note_on_c, 0, 83, 88
1, 14005, Note_on_c, 0, 81, 60
1, 14019, Note_on_c, 0, 81, 0
1, 14027, Note_on_c, 0, 83, 0
1, 14102, Note_on_c, 0, 86, 64
1, 14112, Note_on_c, 0, 55, 52
1, 14112, Note_on_c, 0, 85, 68
1, 14113, Note_on_c, 0, 61, 45
1, 14113, Note_on_c, 0, 66, 35
1, 14118, Note_on_c, 0, 86, 0
1, 14119, Note_on_c, 0, 84, 64
1, 14121, Control_c, 0, 64, 0
1, 14122, Note_on_c, 0, 85, 0
1, 14189, Control_c, 0, 64, 127
1, 14279, Note_on_c, 0, 66, 0
1, 14292, Note_on_c, 0, 61, 0
1, 14332, Note_on_c, 0, 61, 11
1, 14336, Note_on_c, 0, 65, 27
1, 14425, Note_on_c, 0, 84, 0
1, 14464, Note_on_c, 0, 55, 0
1, 14469, Note_on_c, 0, 65, 0
1, 14479, Note_on_c, 0, 83, 44
1, 14496, Note_on_c, 0, 83, 0
1, 14525, Note_on_c, 0, 61, 0
1, 14540, Note_on_c, 0, 81, 44
1, 14541, Note_on_c, 0, 54, 33
1, 14548, Control_c, 0, 64, 0
1, 14563, Control_c, 0, 64, 127
1, 14586, Note_on_c, 0, 61, 27
1, 14624, Note_on_c, 0, 81, 0
1, 14631, Note_on_c, 0, 69, 42
1, 14636, Note_on_c, 0, 61, 0
1, 14639, Note_on_c, 0, 54, 0
1, 14662, Note_on_c, 0, 69, 0
1, 14670, Note_on_c, 0, 81, 48
1, 14686, Note_on_c, 0, 81, 0
1, 14711, Note_on_c, 0, 44, 49
1, 14714, Note_on_c, 0, 77, 53
1, 14717, Control_c, 0, 64, 0
1, 14738, Control_c, 0, 64, 127
1, 14758, Note_on_c, 0, 54, 33
1, 14762, Note_on_c, 0, 44, 0
1, 14769, Note_on_c, 0, 54, 0
1, 14808, Note_on_c, 0, 77, 0
1, 14814, Note_on_c, 0, 65, 40
1, 14814, Note_on_c, 0, 70, 26
1, 14820, Note_on_c, 0, 60, 19
1, 14863, Note_on_c, 0, 70, 0
1, 14865, Note_on_c, 0, 65, 0
1, 14869, Note_on_c, 0, 74, 52
1, 14872, Note_on_c, 0, 60, 0
1, 14924, Note_on_c, 0, 74, 0
1, 14931, Note_on_c, 0, 62, 41
1, 14933, Note_on_c, 0, 43, 31
1, 14934, Control_c, 0, 64, 0
1, 14950, Control_c, 0, 64, 127
1, 14976, Note_on_c, 0, 62, 0
1, 14982, Note_on_c, 0, 50, 42
1, 15033, Note_on_c, 0, 59, 52
1, 15042, Note_on_c, 0, 59, 0
1, 15067, Note_on_c, 0, 43, 0
1, 15074, Note_on_c, 0, 50, 0
1, 15090, Note_on_c, 0, 74, 83
1, 15134, Note_on_c, 0, 74, 0
1, 15160, Note_on_c, 0, 74, 38
1, 15163, Note_on_c, 0, 67, 44
1, 15165, Note_on_c, 0, 62, 36
1, 15165, Note_on_c, 0, 48, 32
1, 15165, Note_on_c, 0, 58, 27
1, 15167, Control_c, 0, 64, 0
1, 15223, Control_c, 0, 64, 127
1, 15232, Note_on_c, 0, 55, 33
1, 15237, Note_on_c, 0, 58, 0
1, 15272, Note_on_c, 0, 62, 0
1, 15309, Note_on_c, 0, 74, 0
1, 15309, Note_on_c, 0, 67, 0
1, 15311, Note_on_c, 0, 62, 48
1, 15313, Note_on_c, 0, 58, 26
1, 15350, Note_on_c, 0, 58, 0
1, 15365, Note_on_c, 0, 62, 0
1, 15384, Note_on_c, 0, 48, 0
1, 15402, Note_on_c, 0, 55, 0
1, 15411, Note_on_c, 0, 64, 46
1, 15411, Note_on_c, 0, 60, 38
1, 15447, Note_on_c, 0, 58, 1
1, 15511, Note_on_c, 0, 58, 0
1, 15513, Note_on_c, 0, 60, 0
1, 15534, Note_on_c, 0, 64, 0
1, 15603, Note_on_c, 0, 65, 51
1, 15604, Note_on_c, 0, 45, 41
1, 15606, Control_c, 0, 64, 0
1, 15624, Control_c, 0, 64, 127
1, 15644, Note_on_c, 0, 66, 64
1, 15651, Note_on_c, 0, 65, 0
1, 15674, Note_on_c, 0, 66, 0
1, 15687, Note_on_c, 0, 69, 78
1, 15692, Note_on_c, 0, 57, 36
1, 15741, Note_on_c, 0, 65, 45
1, 15758, Note_on_c, 0, 45, 0
1, 15786, Note_on_c, 0, 57, 0
1, 15787, Note_on_c, 0, 65, 0
1, 15789, Note_on_c, 0, 69, 0
1, 15795, Note_on_c, 0, 66, 52
1, 15798, Note_on_c, 0, 45, 37
1, 15802, Control_c, 0, 64, 0
1, 15824, Control_c, 0, 64, 127
1, 15851, Note_on_c, 0, 66, 0
1, 15852, Note_on_c, 0, 71, 47
1, 15857, Note_on_c, 0, 57, 25
1, 15923, Note_on_c, 0, 65, 45
1, 15925, Note_on_c, 0, 54, 34
1, 15938, Note_on_c, 0, 57, 0
1, 15960, Note_on_c, 0, 45, 0
1, 15979, Note_on_c, 0, 54, 0
1, 15986, Note_on_c, 0, 65, 0
1, 15988, Note_on_c, 0, 71, 0
1, 15988, Note_on_c, 0, 45, 45
1, 15991, Note_on_c, 0, 66, 39
1, 16000, Note_on_c, 0, 45, 0
1, 16013, Note_on_c, 0, 66, 0
1, 16108, Note_on_c, 0, 62, 41
1, 16109, Note_on_c, 0, 73, 42
1, 16109, Note_on_c, 0, 66, 32
1, 16109, Note_on_c, 0, 61, 35
1, 16109, Note_on_c, 0, 70, 48
1, 16110, Note_on_c, 0, 59, 37
1, 16119, Control_c, 0, 64, 0
1, 16151, Control_c, 0, 64, 127
1, 16168, Note_on_c, 0, 73, 0
1, 16183, Note_on_c, 0, 73, 45
1, 16221, Note_on_c, 0, 73, 0
1, 16242, Note_on_c, 0, 73, 71
1, 16252, Note_on_c, 0, 70, 0
1, 16255, Note_on_c, 0, 62, 0
1, 16281, Note_on_c, 0, 59, 0
1, 16283, Note_on_c, 0, 73, 0
1, 16290, Note_on_c, 0, 61, 0
1, 16302, Note_on_c, 0, 73, 62
1, 16312, Note_on_c, 0, 66, 0
1, 16336, Note_on_c, 0, 73, 0
1, 16362, Note_on_c, 0, 73, 44
1, 16364, Control_c, 0, 64, 0
1, 16367, Note_on_c, 0, 69, 49
1, 16368, Note_on_c, 0, 59, 28
1, 16368, Note_on_c, 0, 64, 44
1, 16369, Note_on_c, 0, 53, 35
1, 16382, Control_c, 0, 64, 127
1, 16390, Note_on_c, 0, 59, 0
1, 16392, Note_on_c, 0, 53, 0
1, 16451, Note_on_c, 0, 31, 41
1, 16517, Note_on_c, 0, 31, 0
1, 16540, Note_on_c, 0, 31, 52
1, 16551, Note_on_c, 0, 31, 0
1, 16602, Note_on_c, 0, 73, 0
1, 16608, Note_on_c, 0, 74, 61
1, 16613, Note_on_c, 0, 73, 29
1, 16621, Note_on_c, 0, 64, 0
1, 16629, Note_on_c, 0, 69, 0
1, 16633, Note_on_c, 0, 74, 0
1, 16633, Note_on_c, 0, 73, 0
1, 16677, Note_on_c, 0, 76, 46
1, 16679, Note_on_c, 0, 54, 32
1, 16682, Note_on_c, 0, 69, 48
1, 16683, Control_c, 0, 64, 0
1, 16706, Control_c, 0, 64, 127
1, 16730, Note_on_c, 0, 61, 35
1, 16732, Note_on_c, 0, 69, 0
1, 16743, Note_on_c, 0, 76, 0
1, 16793, Note_on_c, 0, 64, 36
1, 16859, Note_on_c, 0, 54, 0
1, 17010, Note_on_c, 0, 64, 0
1, 17025, Note_on_c, 0, 76, 28
1, 17026, Note_on_c, 0, 61, 0
1, 17053, Note_on_c, 0, 76, 0
1, 17120, Note_on_c, 0, 74, 39
1, 17126, Note_on_c, 0, 58, 21
1, 17128, Note_on_c, 0, 48, 29
1, 17136, Control_c, 0, 64, 0
1, 17163, Control_c, 0, 64, 127
1, 17174, Note_on_c, 0, 58, 0
1, 17176, Note_on_c, 0, 55, 33
1, 17211, Note_on_c, 0, 55, 0
1, 17217, Note_on_c, 0, 74, 0
1, 17217, Note_on_c, 0, 67, 46
1, 17218, Note_on_c, 0, 62, 43
1, 17221, Note_on_c, 0, 58, 37
1, 17229, Note_on_c, 0, 58, 0
1, 17230, Note_on_c, 0, 48, 0
1, 17253, Note_on_c, 0, 62, 0
1, 17257, Note_on_c, 0, 67, 0
1, 17260, Note_on_c, 0, 74, 52
1, 17283, Note_on_c, 0, 74, 0
1, 17306, Note_on_c, 0, 41, 50
1, 17307, Note_on_c, 0, 69, 41
1, 17307, Note_on_c, 0, 76, 33
1, 17318, Control_c, 0, 64, 0
1, 17345, Control_c, 0, 64, 127
1, 17350, Note_on_c, 0, 48, 48
1, 17371, Note_on_c, 0, 41, 0
1, 17382, Note_on_c, 0, 69, 0
1, 17391, Note_on_c, 0, 76, 0
1, 17393, Note_on_c, 0, 48, 0
1, 17394, Note_on_c, 0, 69, 40
1, 17395, Note_on_c, 0, 64, 46
1, 17395, Note_on_c, 0, 57, 40
1, 17413, Note_on_c, 0, 57, 0
1, 17434, Note_on_c, 0, 64, 0
1, 17443, Note_on_c, 0, 76, 43
1, 17447, Note_on_c, 0, 69, 0
1, 17485, Note_on_c, 0, 76, 0
1, 17500, Note_on_c, 0, 76, 38
1, 17503, Note_on_c, 0, 61, 36
1, 17514, Control_c, 0, 64, 0
1, 17539, Control_c, 0, 64, 127
1, 17565, Note_on_c, 0, 67, 37
1, 17576, Note_on_c, 0, 67, 0
1, 17594, Note_on_c, 0, 61, 0
1, 17638, Note_on_c, 0, 70, 39
1, 17639, Note_on_c, 0, 67, 24
1, 17640, Note_on_c, 0, 61, 26
1, 17641, Note_on_c, 0, 76, 0
1, 17641, Note_on_c, 0, 45, 31
1, 17643, Note_on_c, 0, 64, 24
1, 17649, Control_c, 0, 64, 0
1, 17678, Control_c, 0, 64, 127
1, 17722, Note_on_c, 0, 77, 41
1, 17761, Note_on_c, 0, 64, 0
1, 17772, Note_on_c, 0, 45, 0
1, 17773, Note_on_c, 0, 61, 0
1, 17814, Note_on_c, 0, 70, 0
1, 17814, Note_on_c, 0, 77, 0
1, 17815, Note_on_c, 0, 67, 0
1, 17815, Note_on_c, 0, 74, 33
1, 17818, Note_on_c, 0, 50, 42
1, 17831, Control_c, 0, 64, 0
1, 17843, Control_c, 0, 64, 127
1, 17866, Note_on_c, 0, 74, 0
1, 17869, Note_on_c, 0, 57, 48
1, 17914, Note_on_c, 0, 62, 42
1, 17918, Note_on_c, 0, 69, 58
1, 17923, Note_on_c, 0, 62, 0
1, 17935, Note_on_c, 0, 57, 0
1, 17942, Note_on_c, 0, 50, 0
1, 17960, Note_on_c, 0, 69, 0
1, 17964, Note_on_c, 0, 78, 76
1, 17981, Note_on_c, 0, 78, 0
1, 18021, Note_on_c, 0, 86, 81
1, 18024, Note_on_c, 0, 47, 64
1, 18030, Control_c, 0, 64, 0
1, 18069, Control_c, 0, 64, 127
1, 18080, Note_on_c, 0, 54, 50
1, 18083, Note_on_c, 0, 47, 0
1, 18091, Note_on_c, 0, 54, 0
1, 18136, Note_on_c, 0, 86, 0
1, 18138, Note_on_c, 0, 74, 42
1, 18142, Note_on_c, 0, 62, 38
1, 18150, Note_on_c, 0, 74, 0
1, 18199, Note_on_c, 0, 66, 39
1, 18201, Note_on_c, 0, 90, 67
1, 18205, Note_on_c, 0, 78, 62
1, 18210, Note_on_c, 0, 66, 0
1, 18210, Note_on_c, 0, 62, 0
1, 18212, Note_on_c, 0, 78, 0
1, 18214, Note_on_c, 0, 90, 0
1, 18277, Note_on_c, 0, 81, 61
1, 18278, Note_on_c, 0, 74, 71
1, 18279, Note_on_c, 0, 79, 64
1, 18279, Note_on_c, 0, 52, 62
1, 18279, Note_on_c, 0, 62, 58
1, 18281, Note_on_c, 0, 67, 68
1, 18282, Note_on_c, 0, 69, 62
1, 18284, Note_on_c, 0, 79, 0
1, 18284, Control_c, 0, 64, 0
1, 18287, Note_on_c, 0, 67, 0
1, 18311, Control_c, 0, 64, 127
1, 18340, Note_on_c, 0, 59, 60
1, 18341, Note_on_c, 0, 62, 0
1, 18373, Note_on_c, 0, 69, 0
1, 18374, Note_on_c, 0, 74, 0
1, 18395, Note_on_c, 0, 81, 0
1, 18398, Note_on_c, 0, 69, 68
1, 18403, Note_on_c, 0, 62, 44
1, 18427, Note_on_c, 0, 69, 0
1, 18453, Note_on_c, 0, 52, 0
1, 18522, Note_on_c, 0, 83, 105
1, 18523, Note_on_c, 0, 59, 0
1, 18529, Note_on_c, 0, 62, 0
1, 18545, Note_on_c, 0, 83, 0
1, 18586, Note_on_c, 0, 86, 71
1, 18597, Note_on_c, 0, 85, 74
1, 18601, Note_on_c, 0, 86, 0
1, 18605, Note_on_c, 0, 61, 47
1, 18606, Note_on_c, 0, 55, 38
1, 18606, Note_on_c, 0, 66, 36
1, 18608, Control_c, 0, 64, 0
1, 18611, Note_on_c, 0, 85, 0
1, 18613, Note_on_c, 0, 84, 62
1, 18635, Control_c, 0, 64, 127
1, 18670, Note_on_c, 0, 84, 0
1, 18684, Note_on_c, 0, 55, 0
1, 18689, Note_on_c, 0, 61, 0
1, 18695, Note_on_c, 0, 66, 0
1, 18750, Note_on_c, 0, 71, 48
1, 18752, Note_on_c, 0, 66, 34
1, 18753, Note_on_c, 0, 55, 34
1, 18754, Note_on_c, 0, 61, 34
1, 18755, Control_c, 0, 64, 0
1, 18761, Control_c, 0, 64, 127
1, 18830, Note_on_c, 0, 55, 0
1, 18837, Note_on_c, 0, 66, 0
1, 18869, Note_on_c, 0, 61, 0
1, 18892, Note_on_c, 0, 71, 0
1, 18899, Note_on_c, 0, 61, 23
1, 18899, Note_on_c, 0, 54, 36
1, 18901, Note_on_c, 0, 64, 34
1, 18902, Note_on_c, 0, 69, 52
1, 18903, Control_c, 0, 64, 0
1, 18919, Note_on_c, 0, 59, 3
1, 18939, Control_c, 0, 64, 127
1, 18965, Note_on_c, 0, 81, 75
1, 18994, Note_on_c, 0, 81, 0
1, 19003, Note_on_c, 0, 64, 0
1, 19006, Note_on_c, 0, 59, 0
1, 19008, Note_on_c, 0, 69, 0
1, 19012, Note_on_c, 0, 61, 0
1, 19014, Note_on_c, 0, 81, 82
1, 19016, Note_on_c, 0, 69, 44
1, 19021, Note_on_c, 0, 54, 0
1, 19023, Note_on_c, 0, 69, 0
1, 19036, Note_on_c, 0, 81, 0
1, 19056, Note_on_c, 0, 81, 81
1, 19098, Note_on_c, 0, 81, 0
1, 19113, Note_on_c, 0, 78, 71
1, 19115, Note_on_c, 0, 47, 53
1, 19118, Control_c, 0, 64, 0
1, 19158, Control_c, 0, 64, 127
1, 19178, Note_on_c, 0, 54, 36
1, 19181, Note_on_c, 0, 78, 0
1, 19259, Note_on_c, 0, 66, 38
1, 19259, Note_on_c, 0, 62, 44
1, 19263, Note_on_c, 0, 59, 32
1, 19350, Note_on_c, 0, 62, 0
1, 19367, Note_on_c, 0, 62, 75
1, 19377, Note_on_c, 0, 66, 0
1, 19404, Note_on_c, 0, 47, 0
1, 19412, Note_on_c, 0, 54, 0
1, 19413, Note_on_c, 0, 59, 0
1, 19414, Note_on_c, 0, 62, 0
1, 19491, Note_on_c, 0, 61, 59
1, 19492, Note_on_c, 0, 73, 76
1, 19492, Note_on_c, 0, 66, 86
1, 19493, Note_on_c, 0, 70, 81
1, 19493, Note_on_c, 0, 59, 57
1, 19493, Note_on_c, 0, 62, 73
1, 19503, Control_c, 0, 64, 0
1, 19534, Control_c, 0, 64, 127
1, 19555, Note_on_c, 0, 73, 0
1, 19560, Note_on_c, 0, 74, 61
1, 19588, Note_on_c, 0, 74, 0
1, 19618, Note_on_c, 0, 73, 65
1, 19656, Note_on_c, 0, 73, 0
1, 19671, Note_on_c, 0, 62, 0
1, 19675, Note_on_c, 0, 59, 0
1, 19675, Note_on_c, 0, 66, 0
1, 19677, Note_on_c, 0, 70, 0
1, 19679, Note_on_c, 0, 74, 45
1, 19680, Note_on_c, 0, 61, 0
1, 19707, Note_on_c, 0, 74, 0
1, 19751, Note_on_c, 0, 73, 37
1, 19752, Note_on_c, 0, 64, 44
1, 19752, Note_on_c, 0, 69, 50
1, 19755, Note_on_c, 0, 53, 36
1, 19755, Note_on_c, 0, 59, 27
1, 19757, Control_c, 0, 64, 0
1, 19786, Control_c, 0, 64, 127
1, 19807, Note_on_c, 0, 59, 0
1, 19810, Note_on_c, 0, 53, 0
1, 19936, Note_on_c, 0, 25, 47
1, 19936, Note_on_c, 0, 37, 39
1, 20057, Note_on_c, 0, 25, 0
1, 20064, Note_on_c, 0, 37, 0
1, 20126, Note_on_c, 0, 64, 0
1, 20153, Note_on_c, 0, 69, 0
1, 20167, Note_on_c, 0, 73, 0
1, 20225, Note_on_c, 0, 73, 93
1, 20230, Note_on_c, 0, 75, 35
1, 20235, Note_on_c, 0, 75, 0
1, 20654, Note_on_c, 0, 73, 0
1, 20655, Note_on_c, 0, 75, 46
1, 20655, Note_on_c, 0, 61, 28
1, 20659, Note_on_c, 0, 56, 34
1, 20662, Note_on_c, 0, 58, 33
1, 20669, Control_c, 0, 64, 0
1, 20691, Control_c, 0, 64, 127
1, 20701, Note_on_c, 0, 61, 0
1, 20730, Note_on_c, 0, 49, 36
1, 20767, Note_on_c, 0, 49, 0
1, 20796, Note_on_c, 0, 49, 39
1, 20802, Note_on_c, 0, 56, 0
1, 20821, Note_on_c, 0, 58, 0
1, 20857, Note_on_c, 0, 75, 0
1, 20860, Note_on_c, 0, 73, 46
1, 20904, Note_on_c, 0, 73, 0
1, 20922, Note_on_c, 0, 59, 33
1, 20925, Note_on_c, 0, 75, 52
1, 20926, Note_on_c, 0, 53, 32
1, 20933, Control_c, 0, 64, 0
1, 20968, Note_on_c, 0, 49, 0
1, 20968, Control_c, 0, 64, 127
1, 20988, Note_on_c, 0, 73, 60
1, 20992, Note_on_c, 0, 49, 49
1, 20996, Note_on_c, 0, 75, 0
1, 21026, Note_on_c, 0, 49, 0
1, 21056, Note_on_c, 0, 49, 55
1, 21096, Note_on_c, 0, 49, 0
1, 21115, Note_on_c, 0, 53, 0
1, 21121, Note_on_c, 0, 49, 57
1, 21125, Note_on_c, 0, 59, 0
1, 21180, Note_on_c, 0, 49, 0
1, 21202, Note_on_c, 0, 61, 37
1, 21203, Note_on_c, 0, 58, 57
1, 21204, Note_on_c, 0, 56, 39
1, 21207, Control_c, 0, 64, 0
1, 21233, Control_c, 0, 64, 127
1, 21247, Note_on_c, 0, 61, 0
1, 21256, Note_on_c, 0, 73, 0
1, 21266, Note_on_c, 0, 78, 84
1, 21268, Note_on_c, 0, 49, 74
1, 21271, Note_on_c, 0, 56, 0
1, 21280, Note_on_c, 0, 58, 0
1, 21329, Note_on_c, 0, 78, 0
1, 21336, Note_on_c, 0, 75, 77
1, 21394, Note_on_c, 0, 75, 0
1, 21397, Note_on_c, 0, 58, 53
1, 21398, Note_on_c, 0, 73, 58
1, 21400, Note_on_c, 0, 61, 32
1, 21403, Note_on_c, 0, 56, 26
1, 21411, Note_on_c, 0, 56, 0
1, 21411, Note_on_c, 0, 61, 0
1, 21418, Note_on_c, 0, 58, 0
1, 21456, Note_on_c, 0, 73, 0
1, 21465, Note_on_c, 0, 59, 47
1, 21466, Note_on_c, 0, 53, 51
1, 21466, Note_on_c, 0, 75, 77
1, 21473, Control_c, 0, 64, 0
1, 21511, Note_on_c, 0, 49, 0
1, 21511, Control_c, 0, 64, 127
1, 21534, Note_on_c, 0, 49, 59
1, 21586, Note_on_c, 0, 49, 0
1, 21604, Note_on_c, 0, 49, 74
1, 21611, Note_on_c, 0, 53, 0
1, 21629, Note_on_c, 0, 75, 0
1, 21630, Note_on_c, 0, 59, 0
1, 21678, Note_on_c, 0, 59, 62
1, 21678, Note_on_c, 0, 73, 75
1, 21679, Note_on_c, 0, 53, 43
1, 21689, Note_on_c, 0, 53, 0
1, 21690, Note_on_c, 0, 49, 0
1, 21706, Note_on_c, 0, 73, 0
1, 21712, Note_on_c, 0, 59, 0
1, 21760, Note_on_c, 0, 71, 67
1, 21761, Note_on_c, 0, 51, 59
1, 21761, Note_on_c, 0, 66, 68
1, 21762, Note_on_c, 0, 63, 67
1, 21764, Note_on_c, 0, 59, 57
1, 21771, Control_c, 0, 64, 0
1, 21813, Control_c, 0, 64, 127
1, 21822, Note_on_c, 0, 51, 0
1, 21832, Note_on_c, 0, 51, 50
1, 21850, Note_on_c, 0, 59, 0
1, 21861, Note_on_c, 0, 63, 0
1, 21876, Note_on_c, 0, 66, 0
1, 21893, Note_on_c, 0, 71, 0
1, 21901, Note_on_c, 0, 70, 67
1, 21902, Note_on_c, 0, 66, 59
1, 21902, Note_on_c, 0, 63, 58
1, 21905, Note_on_c, 0, 58, 50
1, 21924, Note_on_c, 0, 51, 0
1, 21971, Note_on_c, 0, 51, 46
1, 21976, Note_on_c, 0, 58, 0
1, 21986, Note_on_c, 0, 66, 0
1, 21988, Note_on_c, 0, 51, 0
1, 21999, Note_on_c, 0, 63, 0
1, 22008, Note_on_c, 0, 70, 0
1, 22049, Note_on_c, 0, 71, 74
1, 22049, Note_on_c, 0, 63, 81
1, 22050, Note_on_c, 0, 29, 67
1, 22050, Note_on_c, 0, 41, 70
1, 22051, Note_on_c, 0, 68, 71
1, 22051, Control_c, 0, 64, 0
1, 22064, Note_on_c, 0, 29, 0
1, 22073, Note_on_c, 0, 41, 0
1, 22077, Control_c, 0, 64, 127
1, 22108, Note_on_c, 0, 68, 0
1, 22113, Note_on_c, 0, 63, 0
1, 22122, Note_on_c, 0, 71, 0
1, 22132, Note_on_c, 0, 58, 68
1, 22132, Note_on_c, 0, 63, 78
1, 22133, Note_on_c, 0, 70, 75
1, 22134, Note_on_c, 0, 68, 65
1, 22164, Note_on_c, 0, 58, 0
1, 22165, Note_on_c, 0, 68, 0
1, 22165, Note_on_c, 0, 70, 0
1, 22167, Note_on_c, 0, 63, 0
1, 22234, Note_on_c, 0, 64, 56
1, 22235, Note_on_c, 0, 62, 46
1, 22235, Note_on_c, 0, 56, 35
1, 22235, Note_on_c, 0, 59, 41
1, 22237, Note_on_c, 0, 46, 37
1, 22242, Control_c, 0, 64, 0
1, 22284, Control_c, 0, 64, 127
1, 22408, Note_on_c, 0, 64, 0
1, 22417, Note_on_c, 0, 65, 53
1, 22525, Note_on_c, 0, 59, 0
1, 22529, Note_on_c, 0, 56, 0
1, 22530, Note_on_c, 0, 46, 0
1, 22539, Note_on_c, 0, 62, 0
1, 22570, Note_on_c, 0, 65, 0
1, 22645, Note_on_c, 0, 39, 35
1, 22645, Note_on_c, 0, 54, 38
1, 22646, Note_on_c, 0, 61, 39
1, 22647, Control_c, 0, 64, 0
1, 22648, Note_on_c, 0, 46, 31
1, 22665, Control_c, 0, 64, 127
1, 22682, Note_on_c, 0, 54, 0
1, 22684, Note_on_c, 0, 39, 0
1, 22688, Note_on_c, 0, 46, 0
1, 22697, Note_on_c, 0, 61, 0
1, 22762, Note_on_c, 0, 61, 50
1, 22762, Note_on_c, 0, 75, 83
1, 22763, Note_on_c, 0, 54, 52
1, 22766, Note_on_c, 0, 58, 55
1, 22820, Note_on_c, 0, 75, 0
1, 22837, Note_on_c, 0, 70, 83
1, 22838, Note_on_c, 0, 51, 49
1, 22859, Note_on_c, 0, 61, 0
1, 22903, Note_on_c, 0, 70, 0
1, 22911, Note_on_c, 0, 58, 0
1, 22921, Note_on_c, 0, 66, 67
1, 22923, Note_on_c, 0, 54, 0
1, 22926, Note_on_c, 0, 51, 0
1, 22949, Note_on_c, 0, 66, 0
1, 23034, Note_on_c, 0, 65, 68
1, 23038, Note_on_c, 0, 54, 53
1, 23038, Note_on_c, 0, 60, 62
1, 23040, Note_on_c, 0, 38, 24
1, 23041, Note_on_c, 0, 26, 25
1, 23044, Control_c, 0, 64, 0
1, 23098, Control_c, 0, 64, 127
1, 23146, Note_on_c, 0, 26, 0
1, 23158, Note_on_c, 0, 26, 58
1, 23267, Note_on_c, 0, 54, 0
1, 23286, Note_on_c, 0, 65, 0
1, 23291, Note_on_c, 0, 54, 32
1, 23332, Note_on_c, 0, 54, 0
1, 23355, Note_on_c, 0, 26, 0
1, 23383, Note_on_c, 0, 60, 0
1, 23411, Note_on_c, 0, 38, 0
1, 23415, Note_on_c, 0, 26, 53
1, 23419, Note_on_c, 0, 66, 51
1, 23429, Note_on_c, 0, 26, 0
1, 23454, Note_on_c, 0, 66, 0
1, 23668, Note_on_c, 0, 61, 57
1, 23668, Note_on_c, 0, 78, 80
1, 23671, Note_on_c, 0, 56, 59
1, 23671, Note_on_c, 0, 58, 76
1, 23677, Control_c, 0, 64, 0
1, 23698, Control_c, 0, 64, 127
1, 23709, Note_on_c, 0, 61, 0
1, 23742, Note_on_c, 0, 49, 75
1, 23762, Note_on_c, 0, 56, 0
1, 23805, Note_on_c, 0, 78, 0
1, 23815, Note_on_c, 0, 66, 68
1, 23844, Note_on_c, 0, 49, 0
1, 23902, Note_on_c, 0, 49, 59
1, 23914, Note_on_c, 0, 58, 0
1, 23964, Note_on_c, 0, 49, 0
1, 24017, Note_on_c, 0, 58, 57
1, 24018, Note_on_c, 0, 48, 30
1, 24018, Note_on_c, 0, 51, 40
1, 24021, Note_on_c, 0, 54, 60
1, 24026, Control_c, 0, 64, 0
1, 24067, Control_c, 0, 64, 127
1, 24088, Note_on_c, 0, 54, 0
1, 24120, Note_on_c, 0, 54, 47
1, 24122, Note_on_c, 0, 66, 0
1, 24137, Note_on_c, 0, 58, 0
1, 24326, Note_on_c, 0, 82, 65
1, 24334, Note_on_c, 0, 70, 53
1, 24337, Note_on_c, 0, 58, 23
1, 24411, Note_on_c, 0, 82, 0
1, 24431, Note_on_c, 0, 48, 0
1, 24436, Note_on_c, 0, 70, 0
1, 24441, Note_on_c, 0, 54, 0
1, 24446, Note_on_c, 0, 51, 0
1, 24453, Note_on_c, 0, 58, 0
1, 24547, Note_on_c, 0, 59, 34
1, 24547, Note_on_c, 0, 73, 48
1, 24547, Note_on_c, 0, 53, 38
1, 24549, Note_on_c, 0, 65, 48
1, 24549, Note_on_c, 0, 71, 39
1, 24560, Control_c, 0, 64, 0
1, 24589, Control_c, 0, 64, 127
1, 24643, Note_on_c, 0, 75, 75
1, 24705, Note_on_c, 0, 65, 0
1, 24711, Note_on_c, 0, 71, 0
1, 24717, Note_on_c, 0, 75, 0
1, 24718, Note_on_c, 0, 73, 0
1, 24746, Note_on_c, 0, 59, 0
1, 24757, Note_on_c, 0, 53, 0
1, 24766, Note_on_c, 0, 78, 56
1, 24775, Note_on_c, 0, 76, 40
1, 24780, Note_on_c, 0, 59, 29
1, 24781, Note_on_c, 0, 64, 31
1, 24782, Note_on_c, 0, 53, 19
1, 24786, Note_on_c, 0, 78, 0
1, 24787, Control_c, 0, 64, 0
1, 24823, Control_c, 0, 64, 127
1, 24982, Note_on_c, 0, 64, 0
1, 25015, Note_on_c, 0, 76, 0
1, 25024, Note_on_c, 0, 74, 26
1, 25036, Note_on_c, 0, 53, 0
1, 25045, Note_on_c, 0, 59, 0
1, 25079, Note_on_c, 0, 74, 0
1, 25143, Note_on_c, 0, 73, 51
1, 25148, Note_on_c, 0, 49, 33
1, 25154, Control_c, 0, 64, 0
1, 25175, Control_c, 0, 64, 127
1, 25205, Note_on_c, 0, 58, 44
1, 25266, Note_on_c, 0, 68, 38
1, 25267, Note_on_c, 0, 70, 44
1, 25279, Note_on_c, 0, 73, 0
1, 25342, Note_on_c, 0, 73, 57
1, 25384, Note_on_c, 0, 49, 0
1, 25408, Note_on_c, 0, 58, 0
1, 25416, Note_on_c, 0, 68, 0
1, 25427, Note_on_c, 0, 49, 63
1, 25446, Note_on_c, 0, 49, 0
1, 25511, Note_on_c, 0, 70, 0
1, 25628, Note_on_c, 0, 70, 23
1, 25630, Note_on_c, 0, 63, 27
1, 25630, Note_on_c, 0, 66, 35
1, 25634, Note_on_c, 0, 60, 27
1, 25740, Note_on_c, 0, 73, 0
1, 25828, Note_on_c, 0, 82, 59
1, 25846, Note_on_c, 0, 82, 0
1, 25878, Note_on_c, 0, 70, 0
1, 25912, Note_on_c, 0, 60, 0
1, 25921, Note_on_c, 0, 63, 0
1, 25924, Note_on_c, 0, 66, 0
1, 26081, Note_on_c, 0, 73, 54
1, 26082, Note_on_c, 0, 64, 33
1, 26083, Note_on_c, 0, 58, 37
1, 26084, Note_on_c, 0, 53, 33
1, 26086, Note_on_c, 0, 59, 35
1, 26093, Control_c, 0, 64, 0
1, 26121, Control_c, 0, 64, 127
1, 26185, Note_on_c, 0, 73, 0
1, 26242, Note_on_c, 0, 75, 86
1, 26281, Note_on_c, 0, 64, 0
1, 26281, Note_on_c, 0, 59, 0
1, 26289, Note_on_c, 0, 75, 0
1, 26291, Note_on_c, 0, 53, 0
1, 26294, Note_on_c, 0, 58, 0
1, 26328, Note_on_c, 0, 76, 35
1, 26329, Note_on_c, 0, 53, 34
1, 26331, Note_on_c, 0, 73, 33
1, 26332, Note_on_c, 0, 69, 53
1, 26334, Note_on_c, 0, 64, 37
1, 26334, Note_on_c, 0, 59, 27
1, 26340, Control_c, 0, 64, 0
1, 26365, Note_on_c, 0, 59, 0
1, 26368, Control_c, 0, 64, 127
1, 26400, Note_on_c, 0, 59, 43
1, 26415, Note_on_c, 0, 64, 0
1, 26428, Note_on_c, 0, 69, 0
1, 26466, Note_on_c, 0, 76, 0
1, 26470, Note_on_c, 0, 69, 45
1, 26471, Note_on_c, 0, 64, 24
1, 26484, Note_on_c, 0, 73, 0
1, 26766, Note_on_c, 0, 75, 44
1, 26782, Note_on_c, 0, 64, 0
1, 26803, Note_on_c, 0, 59, 0
1, 26812, Note_on_c, 0, 53, 0
1, 26824, Note_on_c, 0, 75, 0
1, 26825, Note_on_c, 0, 69, 0
1, 26901, Note_on_c, 0, 73, 40
1, 26901, Note_on_c, 0, 68, 46
1, 26901, Note_on_c, 0, 61, 25
1, 26902, Note_on_c, 0, 70, 45
1, 26907, Note_on_c, 0, 58, 34
1, 26910, Note_on_c, 0, 56, 23
1, 26911, Control_c, 0, 64, 0
1, 26935, Control_c, 0, 64, 127
1, 26942, Note_on_c, 0, 68, 0
1, 26976, Note_on_c, 0, 70, 0
1, 26978, Note_on_c, 0, 61, 0
1, 27076, Note_on_c, 0, 66, 37
1, 27117, Note_on_c, 0, 66, 0
1, 27157, Note_on_c, 0, 66, 50
1, 27208, Note_on_c, 0, 66, 0
1, 27233, Note_on_c, 0, 66, 37
1, 27235, Note_on_c, 0, 58, 0
1, 27236, Note_on_c, 0, 73, 0
1, 27238, Note_on_c, 0, 56, 0
1, 27297, Note_on_c, 0, 66, 0
1, 27304, Note_on_c, 0, 73, 51
1, 27304, Note_on_c, 0, 46, 47
1, 27316, Control_c, 0, 64, 0
1, 27335, Control_c, 0, 64, 127
1, 27372, Note_on_c, 0, 66, 50
1, 27375, Note_on_c, 0, 61, 29
1, 27375, Note_on_c, 0, 56, 25
1, 27421, Note_on_c, 0, 66, 0
1, 27431, Note_on_c, 0, 61, 0
1, 27437, Note_on_c, 0, 73, 0
1, 27440, Note_on_c, 0, 66, 57
1, 27443, Note_on_c, 0, 61, 20
1, 27473, Note_on_c, 0, 66, 0
1, 27476, Note_on_c, 0, 61, 0
1, 27483, Note_on_c, 0, 46, 0
1, 27490, Note_on_c, 0, 66, 59
1, 27504, Note_on_c, 0, 46, 6
1, 27527, Note_on_c, 0, 46, 0
1, 27532, Note_on_c, 0, 66, 0
1, 27532, Note_on_c, 0, 56, 0
1, 27542, Note_on_c, 0, 73, 68
1, 27546, Control_c, 0, 64, 0
1, 27548, Note_on_c, 0, 47, 46
1, 27567, Control_c, 0, 64, 127
1, 27572, Note_on_c, 0, 73, 0
1, 27600, Note_on_c, 0, 78, 71
1, 27602, Note_on_c, 0, 66, 50
1, 27607, Note_on_c, 0, 54, 28
1, 27639, Note_on_c, 0, 66, 0
1, 27646, Note_on_c, 0, 78, 0
1, 27677, Note_on_c, 0, 78, 57
1, 27681, Note_on_c, 0, 59, 30
1, 27684, Note_on_c, 0, 66, 26
1, 27720, Note_on_c, 0, 47, 0
1, 27732, Note_on_c, 0, 54, 0
1, 27737, Note_on_c, 0, 78, 0
1, 27760, Note_on_c, 0, 78, 49
1, 27830, Note_on_c, 0, 78, 0
1, 27924, Note_on_c, 0, 66, 0
1, 27932, Note_on_c, 0, 73, 40
1, 27937, Note_on_c, 0, 52, 45
1, 27940, Note_on_c, 0, 59, 0
1, 27948, Control_c, 0, 64, 0
1, 27970, Control_c, 0, 64, 127
1, 28051, Note_on_c, 0, 66, 31
1, 28126, Note_on_c, 0, 66, 0
1, 28152, Note_on_c, 0, 62, 30
1, 28153, Note_on_c, 0, 66, 28
1, 28154, Note_on_c, 0, 56, 18
1, 28154, Note_on_c, 0, 59, 27
1, 28254, Note_on_c, 0, 66, 0
1, 28273, Note_on_c, 0, 66, 28
1, 28294, Note_on_c, 0, 62, 0
1, 28310, Note_on_c, 0, 59, 0
1, 28348, Note_on_c, 0, 52, 0
1, 28359, Note_on_c, 0, 73, 0
1, 28390, Note_on_c, 0, 56, 0
1, 28563, Note_on_c, 0, 66, 0
1, 28563, Note_on_c, 0, 54, 47
1, 28564, Note_on_c, 0, 73, 53
1, 28573, Control_c, 0, 64, 0
1, 28593, Control_c, 0, 64, 127
1, 28623, Note_on_c, 0, 61, 31
1, 28624, Note_on_c, 0, 66, 49
1, 28661, Note_on_c, 0, 66, 0
1, 28676, Note_on_c, 0, 66, 44
1, 28695, Note_on_c, 0, 73, 0
1, 28696, Note_on_c, 0, 61, 0
1, 28702, Note_on_c, 0, 54, 0
1, 28708, Note_on_c, 0, 66, 0
1, 28721, Note_on_c, 0, 66, 30
1, 28768, Note_on_c, 0, 66, 0
1, 28773, Note_on_c, 0, 73, 49
1, 28774, Note_on_c, 0, 46, 31
1, 28787, Control_c, 0, 64, 0
1, 28808, Control_c, 0, 64, 127
1, 28834, Note_on_c, 0, 66, 44
1, 28837, Note_on_c, 0, 56, 23
1, 28871, Note_on_c, 0, 66, 0
1, 28889, Note_on_c, 0, 73, 0
1, 28892, Note_on_c, 0, 66, 53
1, 28952, Note_on_c, 0, 66, 0
1, 28957, Note_on_c, 0, 66, 21
1, 28972, Note_on_c, 0, 66, 0
1, 28997, Note_on_c, 0, 46, 0
1, 29004, Note_on_c, 0, 56, 0
1, 29011, Note_on_c, 0, 73, 72
1, 29012, Note_on_c, 0, 47, 48
1, 29020, Control_c, 0, 64, 0
1, 29046, Control_c, 0, 64, 127
1, 29072, Note_on_c, 0, 73, 0
1, 29098, Note_on_c, 0, 78, 53
1, 29099, Note_on_c, 0, 66, 36
1, 29101, Note_on_c, 0, 58, 25
1, 29160, Note_on_c, 0, 66, 0
1, 29163, Note_on_c, 0, 78, 0
1, 29186, Note_on_c, 0, 78, 46
1, 29190, Note_on_c, 0, 66, 20
1, 29212, Note_on_c, 0, 47, 0
1, 29239, Note_on_c, 0, 78, 0
1, 29249, Note_on_c, 0, 66, 0
1, 29251, Note_on_c, 0, 58, 0
1, 29265, Note_on_c, 0, 78, 46
1, 29265, Note_on_c, 0, 47, 30
1, 29265, Note_on_c, 0, 66, 25
1, 29272, Note_on_c, 0, 47, 0
1, 29279, Note_on_c, 0, 66, 0
1, 29284, Note_on_c, 0, 78, 0
1, 29359, Note_on_c, 0, 52, 45
1, 29360, Note_on_c, 0, 85, 53
1, 29366, Note_on_c, 0, 73, 20
1, 29366, Control_c, 0, 64, 0
1, 29381, Control_c, 0, 64, 127
1, 29412, Note_on_c, 0, 85, 0
1, 29416, Note_on_c, 0, 73, 0
1, 29436, Note_on_c, 0, 59, 25
1, 29445, Note_on_c, 0, 78, 38
1, 29463, Note_on_c, 0, 78, 0
1, 29530, Note_on_c, 0, 78, 44
1, 29535, Note_on_c, 0, 64, 24
1, 29536, Note_on_c, 0, 66, 25
1, 29577, Note_on_c, 0, 52, 0
1, 29602, Note_on_c, 0, 64, 0
1, 29611, Note_on_c, 0, 78, 0
1, 29620, Note_on_c, 0, 66, 0
1, 29649, Note_on_c, 0, 52, 36
1, 29650, Note_on_c, 0, 78, 27
1, 29655, Note_on_c, 0, 66, 14
1, 29670, Note_on_c, 0, 78, 0
1, 29677, Note_on_c, 0, 59, 0
1, 29680, Note_on_c, 0, 52, 0
1, 29731, Note_on_c, 0, 66, 0
1, 29786, Note_on_c, 0, 73, 67
1, 29789, Note_on_c, 0, 49, 47
1, 29801, Control_c, 0, 64, 0
1, 29826, Control_c, 0, 64, 127
1, 30014, Note_on_c, 0, 66, 40
1, 30032, Note_on_c, 0, 58, 7
1, 30068, Note_on_c, 0, 68, 63
1, 30070, Note_on_c, 0, 56, 1
1, 30075, Note_on_c, 0, 73, 0
1, 30077, Note_on_c, 0, 49, 0
1, 30149, Note_on_c, 0, 68, 0
1, 30157, Note_on_c, 0, 66, 0
1, 30175, Note_on_c, 0, 71, 43
1, 30181, Note_on_c, 0, 58, 0
1, 30187, Note_on_c, 0, 51, 37
1, 30187, Note_on_c, 0, 69, 48
1, 30191, Note_on_c, 0, 71, 0
1, 30192, Note_on_c, 0, 56, 0
1, 30201, Control_c, 0, 64, 0
1, 30248, Note_on_c, 0, 69, 0
1, 30252, Note_on_c, 0, 68, 42
1, 30254, Control_c, 0, 64, 127
1, 30265, Note_on_c, 0, 61, 14
1, 30266, Note_on_c, 0, 58, 23
1, 30307, Note_on_c, 0, 66, 39
1, 30315, Note_on_c, 0, 51, 0
1, 30351, Note_on_c, 0, 68, 0
1, 30396, Note_on_c, 0, 61, 0
1, 30400, Note_on_c, 0, 73, 48
1, 30402, Note_on_c, 0, 58, 0
1, 30403, Note_on_c, 0, 52, 56
1, 30410, Note_on_c, 0, 66, 0
1, 30410, Control_c, 0, 64, 0
1, 30428, Control_c, 0, 64, 127
1, 30437, Note_on_c, 0, 66, 5
1, 30443, Note_on_c, 0, 73, 0
1, 30470, Note_on_c, 0, 78, 67
1, 30471, Note_on_c, 0, 63, 34
1, 30476, Note_on_c, 0, 59, 28
1, 30480, Note_on_c, 0, 56, 18
1, 30506, Note_on_c, 0, 63, 0
1, 30507, Note_on_c, 0, 52, 0
1, 30558, Note_on_c, 0, 78, 0
1, 30569, Note_on_c, 0, 56, 0
1, 30614, Note_on_c, 0, 59, 0
1, 30624, Note_on_c, 0, 78, 38
1, 30628, Note_on_c, 0, 51, 29
1, 30636, Control_c, 0, 64, 0
1, 30666, Control_c, 0, 64, 127
1, 30690, Note_on_c, 0, 78, 0
1, 30694, Note_on_c, 0, 66, 0
1, 30717, Note_on_c, 0, 78, 35
1, 30720, Note_on_c, 0, 66, 21
1, 30721, Note_on_c, 0, 61, 21
1, 30749, Note_on_c, 0, 61, 0
1, 30758, Note_on_c, 0, 51, 0
1, 30767, Note_on_c, 0, 66, 0
1, 30861, Note_on_c, 0, 78, 0
1, 30861, Note_on_c, 0, 49, 36
1, 30864, Note_on_c, 0, 73, 34
1, 30872, Control_c, 0, 64, 0
1, 30891, Control_c, 0, 64, 127
1, 30925, Note_on_c, 0, 73, 0
1, 30932, Note_on_c, 0, 78, 73
1, 30934, Note_on_c, 0, 58, 35
1, 30963, Note_on_c, 0, 78, 0
1, 30975, Note_on_c, 0, 80, 73
1, 31002, Note_on_c, 0, 80, 0
1, 31019, Note_on_c, 0, 58, 0
1, 31024, Note_on_c, 0, 49, 0
1, 31064, Note_on_c, 0, 83, 57
1, 31070, Note_on_c, 0, 48, 42
1, 31074, Note_on_c, 0, 58, 21
1, 31079, Note_on_c, 0, 81, 54
1, 31082, Note_on_c, 0, 83, 0
1, 31089, Control_c, 0, 64, 0
1, 31128, Control_c, 0, 64, 127
1, 31167, Note_on_c, 0, 80, 39
1, 31168, Note_on_c, 0, 81, 0
1, 31171, Note_on_c, 0, 54, 28
1, 31233, Note_on_c, 0, 78, 45
1, 31243, Note_on_c, 0, 48, 0
1, 31251, Note_on_c, 0, 58, 0
1, 31265, Note_on_c, 0, 80, 0
1, 31297, Note_on_c, 0, 78, 0
1, 31387, Note_on_c, 0, 47, 38
1, 31388, Note_on_c, 0, 73, 29
1, 31397, Control_c, 0, 64, 0
1, 31414, Note_on_c, 0, 54, 0
1, 31418, Control_c, 0, 64, 127
1, 31432, Note_on_c, 0, 73, 0
1, 31506, Note_on_c, 0, 66, 59
1, 31510, Note_on_c, 0, 57, 35
1, 31580, Note_on_c, 0, 66, 0
1, 31617, Note_on_c, 0, 57, 0
1, 31624, Note_on_c, 0, 47, 0
1, 31686, Note_on_c, 0, 66, 46
1, 31688, Note_on_c, 0, 46, 33
1, 31689, Note_on_c, 0, 61, 44
1, 31689, Note_on_c, 0, 56, 21
1, 31698, Control_c, 0, 64, 0
1, 31725, Control_c, 0, 64, 127
1, 31767, Note_on_c, 0, 56, 0
1, 31782, Note_on_c, 0, 61, 0
1, 31787, Note_on_c, 0, 66, 0
1, 31810, Note_on_c, 0, 61, 48
1, 31812, Note_on_c, 0, 56, 25
1, 31812, Note_on_c, 0, 66, 31
1, 31841, Note_on_c, 0, 61, 0
1, 31843, Note_on_c, 0, 56, 0
1, 31850, Note_on_c, 0, 46, 0
1, 31852, Note_on_c, 0, 66, 0
1, 31947, Note_on_c, 0, 77, 70
1, 31949, Note_on_c, 0, 66, 69
1, 31950, Note_on_c, 0, 38, 58
1, 31950, Note_on_c, 0, 72, 63
1, 31951, Note_on_c, 0, 50, 53
1, 31953, Control_c, 0, 64, 0
1, 31978, Control_c, 0, 64, 127
1, 31983, Note_on_c, 0, 38, 0
1, 31993, Note_on_c, 0, 50, 0
1, 32039, Note_on_c, 0, 66, 0
1, 32043, Note_on_c, 0, 72, 0
1, 32052, Note_on_c, 0, 77, 0
1, 32072, Note_on_c, 0, 75, 78
1, 32072, Note_on_c, 0, 65, 69
1, 32073, Note_on_c, 0, 66, 76
1, 32074, Note_on_c, 0, 72, 77
1, 32108, Note_on_c, 0, 65, 0
1, 32134, Note_on_c, 0, 72, 0
1, 32144, Note_on_c, 0, 75, 0
1, 32159, Note_on_c, 0, 66, 0
1, 32193, Note_on_c, 0, 74, 49
1, 32194, Note_on_c, 0, 66, 37
1, 32194, Note_on_c, 0, 62, 38
1, 32196, Note_on_c, 0, 69, 57
1, 32208, Control_c, 0, 64, 0
1, 32217, Control_c, 0, 64, 127
1, 32339, Note_on_c, 0, 74, 0
1, 32346, Note_on_c, 0, 62, 0
1, 32370, Note_on_c, 0, 69, 0
1, 32386, Note_on_c, 0, 66, 0
1, 32415, Note_on_c, 0, 73, 32
1, 32415, Note_on_c, 0, 66, 23
1, 32416, Note_on_c, 0, 70, 37
1, 32426, Note_on_c, 0, 61, 8
1, 32489, Note_on_c, 0, 61, 0
1, 32562, Note_on_c, 0, 70, 0
1, 32565, Note_on_c, 0, 73, 0
1, 32577, Note_on_c, 0, 66, 0
1, 32659, Note_on_c, 0, 39, 34
1, 32660, Note_on_c, 0, 77, 44
1, 32661, Note_on_c, 0, 67, 42
1, 32661, Note_on_c, 0, 27, 52
1, 32662, Note_on_c, 0, 72, 48
1, 32665, Control_c, 0, 64, 0
1, 32688, Control_c, 0, 64, 127
1, 32689, Note_on_c, 0, 27, 0
1, 32694, Note_on_c, 0, 39, 0
1, 32735, Note_on_c, 0, 67, 0
1, 32773, Note_on_c, 0, 72, 0
1, 32823, Note_on_c, 0, 77, 0
1, 32887, Note_on_c, 0, 75, 86
1, 32888, Note_on_c, 0, 55, 62
1, 32888, Note_on_c, 0, 65, 62
1, 32888, Note_on_c, 0, 61, 55
1, 32923, Note_on_c, 0, 65, 0
1, 32950, Note_on_c, 0, 55, 0
1, 32960, Note_on_c, 0, 75, 0
1, 32965, Note_on_c, 0, 61, 0
1, 32999, Note_on_c, 0, 74, 47
1, 33001, Note_on_c, 0, 70, 51
1, 33001, Note_on_c, 0, 65, 55
1, 33002, Note_on_c, 0, 54, 47
1, 33006, Note_on_c, 0, 60, 29
1, 33011, Control_c, 0, 64, 0
1, 33036, Control_c, 0, 64, 127
1, 33076, Note_on_c, 0, 60, 0
1, 33096, Note_on_c, 0, 74, 0
1, 33109, Note_on_c, 0, 65, 0
1, 33110, Note_on_c, 0, 54, 0
1, 33135, Note_on_c, 0, 70, 0
1, 33246, Note_on_c, 0, 73, 31
1, 33246, Note_on_c, 0, 64, 33
1, 33247, Note_on_c, 0, 53, 32
1, 33248, Note_on_c, 0, 69, 38
1, 33249, Note_on_c, 0, 59, 24
1, 33258, Control_c, 0, 64, 0
1, 33280, Control_c, 0, 64, 127
1, 33374, Note_on_c, 0, 59, 0
1, 33375, Note_on_c, 0, 64, 0
1, 33381, Note_on_c, 0, 53, 0
1, 33391, Note_on_c, 0, 69, 0
1, 33408, Note_on_c, 0, 73, 0
1, 33545, Note_on_c, 0, 78, 56
1, 33550, Note_on_c, 0, 70, 39
1, 33550, Note_on_c, 0, 30, 38
1, 33551, Note_on_c, 0, 42, 32
1, 33567, Note_on_c, 0, 30, 0
1, 33574, Note_on_c, 0, 42, 0
1, 33653, Note_on_c, 0, 63, 30
1, 33657, Note_on_c, 0, 58, 40
1, 33658, Note_on_c, 0, 61, 30
1, 33689, Note_on_c, 0, 58, 0
1, 33698, Note_on_c, 0, 63, 0
1, 33700, Note_on_c, 0, 61, 0
1, 33743, Note_on_c, 0, 70, 0
1, 33747, Note_on_c, 0, 63, 39
1, 33748, Note_on_c, 0, 61, 42
1, 33753, Note_on_c, 0, 58, 43
1, 33763, Note_on_c, 0, 63, 0
1, 33769, Note_on_c, 0, 61, 0
1, 33771, Note_on_c, 0, 58, 0
1, 33772, Note_on_c, 0, 78, 0
1, 33864, Note_on_c, 0, 82, 80
1, 33868, Note_on_c, 0, 75, 80
1, 33868, Note_on_c, 0, 58, 70
1, 33868, Note_on_c, 0, 48, 62
1, 33868, Note_on_c, 0, 70, 80
1, 33872, Control_c, 0, 64, 0
1, 33893, Control_c, 0, 64, 127
1, 33942, Note_on_c, 0, 82, 0
1, 33950, Note_on_c, 0, 75, 0
1, 33953, Note_on_c, 0, 70, 0
1, 33957, Note_on_c, 0, 48, 0
1, 33978, Note_on_c, 0, 58, 0
1, 34107, Note_on_c, 0, 73, 48
1, 34111, Note_on_c, 0, 59, 40
1, 34112, Note_on_c, 0, 47, 45
1, 34113, Note_on_c, 0, 69, 39
1, 34115, Note_on_c, 0, 53, 49
1, 34120, Control_c, 0, 64, 0
1, 34149, Control_c, 0, 64, 127
1, 34183, Note_on_c, 0, 59, 0
1, 34187, Note_on_c, 0, 73, 0
1, 34191, Note_on_c, 0, 69, 0
1, 34200, Note_on_c, 0, 53, 37
1, 34204, Note_on_c, 0, 75, 77
1, 34235, Note_on_c, 0, 53, 0
1, 34258, Note_on_c, 0, 47, 0
1, 34282, Note_on_c, 0, 75, 0
1, 34292, Note_on_c, 0, 53, 0
1, 34350, Note_on_c, 0, 61, 50
1, 34355, Note_on_c, 0, 76, 33
1, 34357, Note_on_c, 0, 64, 40
1, 34358, Note_on_c, 0, 73, 27
1, 34358, Note_on_c, 0, 69, 41
1, 34360, Note_on_c, 0, 47, 39
1, 34365, Control_c, 0, 64, 0
1, 34406, Control_c, 0, 64, 127
1, 34470, Note_on_c, 0, 61, 0
1, 34516, Note_on_c, 0, 76, 0
1, 34526, Note_on_c, 0, 69, 0
1, 34526, Note_on_c, 0, 64, 0
1, 34538, Note_on_c, 0, 73, 0
1, 34547, Note_on_c, 0, 75, 50
1, 34549, Note_on_c, 0, 64, 42
1, 34551, Note_on_c, 0, 69, 48
1, 34552, Note_on_c, 0, 59, 27
1, 34574, Note_on_c, 0, 59, 0
1, 34584, Note_on_c, 0, 69, 0
1, 34586, Note_on_c, 0, 75, 0
1, 34591, Note_on_c, 0, 64, 0
1, 34592, Note_on_c, 0, 47, 0
1, 34690, Note_on_c, 0, 73, 27
1, 34797, Note_on_c, 0, 73, 0
1, 34820, Note_on_c, 0, 73, 45
1, 34826, Note_on_c, 0, 46, 31
1, 34826, Note_on_c, 0, 56, 20
1, 34827, Note_on_c, 0, 65, 41
1, 34828, Note_on_c, 0, 61, 15
1, 34833, Control_c, 0, 64, 0
1, 34861, Control_c, 0, 64, 127
1, 34883, Note_on_c, 0, 56, 0
1, 34892, Note_on_c, 0, 56, 37
1, 34898, Note_on_c, 0, 65, 0
1, 34899, Note_on_c, 0, 61, 0
1, 34950, Note_on_c, 0, 73, 0
1, 34953, Note_on_c, 0, 61, 52
1, 34956, Note_on_c, 0, 56, 0
1, 34963, Note_on_c, 0, 46, 0
1, 35008, Note_on_c, 0, 61, 0
1, 35021, Note_on_c, 0, 65, 51
1, 35022, Note_on_c, 0, 61, 19
1, 35052, Note_on_c, 0, 61, 0
1, 35058, Note_on_c, 0, 65, 0
1, 35113, Control_c, 0, 64, 0
1, 35113, Note_on_c, 0, 30, 46
1, 35114, Note_on_c, 0, 42, 36
1, 35125, Control_c, 0, 64, 127
1, 35138, Note_on_c, 0, 30, 0
1, 35146, Note_on_c, 0, 42, 0
1, 35187, Note_on_c, 0, 76, 41
1, 35192, Note_on_c, 0, 78, 75
1, 35201, Note_on_c, 0, 76, 0
1, 35261, Note_on_c, 0, 78, 0
1, 35294, Note_on_c, 0, 66, 31
1, 35295, Note_on_c, 0, 52, 40
1, 35298, Note_on_c, 0, 58, 33
1, 35351, Note_on_c, 0, 52, 0
1, 35358, Note_on_c, 0, 66, 0
1, 35361, Note_on_c, 0, 58, 0
1, 35384, Note_on_c, 0, 66, 37
1, 35397, Note_on_c, 0, 66, 0
1, 35487, Note_on_c, 0, 66, 39
1, 35490, Note_on_c, 0, 63, 40
1, 35490, Note_on_c, 0, 58, 29
1, 35491, Note_on_c, 0, 47, 29
1, 35492, Note_on_c, 0, 54, 29
1, 35496, Control_c, 0, 64, 0
1, 35531, Control_c, 0, 64, 127
1, 35577, Note_on_c, 0, 54, 0
1, 35659, Note_on_c, 0, 58, 0
1, 35700, Note_on_c, 0, 63, 0
1, 35702, Note_on_c, 0, 66, 0
1, 35712, Note_on_c, 0, 68, 63
1, 35716, Note_on_c, 0, 56, 25
1, 35761, Note_on_c, 0, 68, 0
1, 35778, Note_on_c, 0, 47, 0
1, 35787, Note_on_c, 0, 56, 0
1, 35832, Note_on_c, 0, 71, 38
1, 35846, Note_on_c, 0, 71, 0
1, 35846, Note_on_c, 0, 70, 46
1, 35861, Note_on_c, 0, 70, 0
1, 35865, Note_on_c, 0, 50, 34
1, 35867, Note_on_c, 0, 69, 40
1, 35870, Note_on_c, 0, 57, 32
1, 35871, Control_c, 0, 64, 0
1, 35872, Note_on_c, 0, 60, 32
1, 35923, Control_c, 0, 64, 127
1, 36096, Note_on_c, 0, 68, 47
1, 36098, Note_on_c, 0, 69, 0
1, 36185, Note_on_c, 0, 50, 0
1, 36193, Note_on_c, 0, 60, 0
1, 36194, Note_on_c, 0, 57, 0
1, 36245, Note_on_c, 0, 68, 0
1, 36332, Note_on_c, 0, 73, 74
1, 36334, Note_on_c, 0, 49, 53
1, 36343, Control_c, 0, 64, 0
1, 36366, Control_c, 0, 64, 127
1, 36398, Note_on_c, 0, 66, 58
1, 36398, Note_on_c, 0, 63, 64
1, 36400, Note_on_c, 0, 58, 35
1, 36440, Note_on_c, 0, 63, 0
1, 36440, Note_on_c, 0, 66, 0
1, 36452, Note_on_c, 0, 73, 0
1, 36455, Note_on_c, 0, 66, 67
1, 36494, Note_on_c, 0, 66, 0
1, 36506, Note_on_c, 0, 73, 67
1, 36540, Note_on_c, 0, 73, 0
1, 36564, Note_on_c, 0, 49, 0
1, 36567, Note_on_c, 0, 73, 59
1, 36568, Note_on_c, 0, 52, 53
1, 36570, Note_on_c, 0, 58, 0
1, 36578, Control_c, 0, 64, 0
1, 36603, Control_c, 0, 64, 127
1, 36640, Note_on_c, 0, 66, 37
1, 36640, Note_on_c, 0, 64, 37
1, 36647, Note_on_c, 0, 58, 14
1, 36672, Note_on_c, 0, 64, 0
1, 36686, Note_on_c, 0, 66, 0
1, 36715, Note_on_c, 0, 66, 38
1, 36717, Note_on_c, 0, 64, 34
1, 36745, Note_on_c, 0, 66, 0
1, 36747, Note_on_c, 0, 52, 0
1, 36752, Note_on_c, 0, 64, 0
1, 36796, Note_on_c, 0, 52, 41
1, 36804, Note_on_c, 0, 52, 0
1, 36810, Note_on_c, 0, 58, 0
1, 36817, Note_on_c, 0, 73, 0
1, 36915, Note_on_c, 0, 73, 48
1, 36919, Note_on_c, 0, 47, 38
1, 36919, Note_on_c, 0, 66, 49
1, 36922, Note_on_c, 0, 58, 23
1, 36927, Control_c, 0, 64, 0
1, 36949, Control_c, 0, 64, 127
1, 36974, Note_on_c, 0, 73, 0
1, 36977, Note_on_c, 0, 66, 0
1, 36996, Note_on_c, 0, 58, 0
1, 36999, Note_on_c, 0, 78, 68
1, 37005, Note_on_c, 0, 54, 29
1, 37035, Note_on_c, 0, 78, 0
1, 37073, Note_on_c, 0, 78, 74
1, 37078, Note_on_c, 0, 58, 40
1, 37080, Note_on_c, 0, 66, 63
1, 37108, Note_on_c, 0, 47, 0
1, 37160, Note_on_c, 0, 66, 0
1, 37165, Note_on_c, 0, 78, 0
1, 37182, Note_on_c, 0, 58, 0
1, 37191, Note_on_c, 0, 78, 52
1, 37192, Note_on_c, 0, 47, 37
1, 37194, Note_on_c, 0, 66, 31
1, 37211, Note_on_c, 0, 54, 0
1, 37220, Note_on_c, 0, 47, 0
1, 37231, Note_on_c, 0, 78, 0
1, 37260, Note_on_c, 0, 66, 0
1, 37357, Note_on_c, 0, 66, 36
1, 37357, Note_on_c, 0, 73, 39
1, 37358, Note_on_c, 0, 70, 43
1, 37360, Note_on_c, 0, 59, 38
1, 37361, Note_on_c, 0, 62, 29
1, 37361, Note_on_c, 0, 61, 21
1, 37365, Control_c, 0, 64, 0
1, 37395, Control_c, 0, 64, 127
1, 37462, Note_on_c, 0, 66, 0
1, 37494, Note_on_c, 0, 66, 33
1, 37555, Note_on_c, 0, 66, 0
1, 37558, Note_on_c, 0, 62, 0
1, 37564, Note_on_c, 0, 59, 0
1, 37570, Note_on_c, 0, 61, 0
1, 37600, Note_on_c, 0, 70, 0
1, 37628, Note_on_c, 0, 62, 30
1, 37630, Note_on_c, 0, 61, 15
1, 37631, Note_on_c, 0, 59, 18
1, 37634, Note_on_c, 0, 66, 17
1, 37694, Note_on_c, 0, 59, 0
1, 37700, Note_on_c, 0, 62, 0
1, 37702, Note_on_c, 0, 61, 0
1, 37723, Note_on_c, 0, 66, 0
1, 37727, Note_on_c, 0, 73, 0
1, 37789, Note_on_c, 0, 62, 30
1, 37790, Note_on_c, 0, 66, 23
1, 37792, Note_on_c, 0, 59, 19
1, 37792, Note_on_c, 0, 61, 18
1, 37854, Note_on_c, 0, 62, 0
1, 37856, Note_on_c, 0, 59, 0
1, 37878, Note_on_c, 0, 61, 0
1, 37958, Note_on_c, 0, 66, 0
1, 38417, Control_c, 0, 64, 0
1, 38425, Control_c, 0, 64, 127
1, 38438, Note_on_c, 0, 61, 32
1, 38611, Note_on_c, 0, 63, 44
1, 38615, Control_c, 0, 64, 127
1, 38664, Note_on_c, 0, 61, 0
1, 38945, Note_on_c, 0, 65, 49
1, 38952, Note_on_c, 0, 63, 0
1, 38954, Note_on_c, 0, 64, 54
1, 38958, Note_on_c, 0, 49, 29
1, 38960, Note_on_c, 0, 53, 44
1, 38960, Note_on_c, 0, 59, 22
1, 38961, Note_on_c, 0, 65, 0
1, 38965, Control_c, 0, 64, 0
1, 39088, Control_c, 0, 64, 127
1, 39267, Note_on_c, 0, 64, 0
1, 39267, Note_on_c, 0, 63, 48
1, 39327, Note_on_c, 0, 59, 0
1, 39331, Note_on_c, 0, 49, 0
1, 39335, Note_on_c, 0, 53, 0
1, 39635, Note_on_c, 0, 63, 0
1, 39642, Note_on_c, 0, 61, 32
1, 39643, Note_on_c, 0, 42, 29
1, 39643, Note_on_c, 0, 56, 21
1, 39645, Note_on_c, 0, 58, 46
1, 39645, Note_on_c, 0, 30, 26
1, 39645, Control_c, 0, 64, 0
1, 39712, Control_c, 0, 64, 127
1, 39733, Note_on_c, 0, 56, 0
1, 39738, Note_on_c, 0, 58, 0
1, 39744, Note_on_c, 0, 61, 0
1, 39745, Note_on_c, 0, 30, 0
1, 39749, Note_on_c, 0, 42, 0
1, 39891, Note_on_c, 0, 80, 25
1, 39898, Note_on_c, 0, 56, 20
1, 39926, Note_on_c, 0, 80, 0
1, 39978, Note_on_c, 0, 85, 39
1, 39980, Note_on_c, 0, 56, 0
1, 39983, Note_on_c, 0, 58, 29
1, 40012, Note_on_c, 0, 85, 0
1, 40046, Note_on_c, 0, 58, 0
1, 40049, Note_on_c, 0, 61, 33
1, 40053, Note_on_c, 0, 87, 34
1, 40055, Note_on_c, 0, 75, 23
1, 40065, Note_on_c, 0, 75, 0
1, 40068, Note_on_c, 0, 87, 0
1, 40119, Note_on_c, 0, 61, 0
1, 40126, Note_on_c, 0, 90, 39
1, 40128, Note_on_c, 0, 66, 26
1, 40128, Note_on_c, 0, 78, 29
1, 40142, Note_on_c, 0, 78, 0
1, 40148, Note_on_c, 0, 90, 0
1, 40208, Note_on_c, 0, 94, 51
1, 40209, Note_on_c, 0, 70, 27
1, 40213, Note_on_c, 0, 82, 29
1, 40216, Note_on_c, 0, 66, 0
1, 40241, Note_on_c, 0, 94, 0
1, 40252, Note_on_c, 0, 82, 0
1, 40279, Note_on_c, 0, 70, 0
1, 40282, Note_on_c, 0, 68, 31
1, 40283, Note_on_c, 0, 80, 31
1, 40284, Note_on_c, 0, 92, 29
1, 40295, Note_on_c, 0, 80, 0
1, 40299, Note_on_c, 0, 92, 0
1, 40365, Note_on_c, 0, 99, 43
1, 40367, Note_on_c, 0, 87, 29
1, 40368, Note_on_c, 0, 73, 20
1, 40369, Note_on_c, 0, 68, 0
1, 40382, Note_on_c, 0, 87, 0
1, 40388, Note_on_c, 0, 99, 0
1, 40454, Note_on_c, 0, 73, 0
1, 40455, Note_on_c, 0, 102, 30
1, 40457, Note_on_c, 0, 87, 29
1, 40457, Note_on_c, 0, 75, 27
1, 40472, Note_on_c, 0, 102, 0
1, 40478, Note_on_c, 0, 87, 0
1, 40548, Note_on_c, 0, 75, 0
1, 40548, Note_on_c, 0, 104, 25
1, 40550, Note_on_c, 0, 78, 27
1, 40572, Note_on_c, 0, 104, 0
1, 40650, Note_on_c, 0, 82, 27
1, 40651, Note_on_c, 0, 106, 27
1, 40656, Note_on_c, 0, 92, 20
1, 40675, Note_on_c, 0, 82, 0
1, 40678, Note_on_c, 0, 78, 0
1, 40701, Note_on_c, 0, 92, 0
1, 40706, Note_on_c, 0, 106, 0
1, 40827, Note_on_c, 0, 30, 28
1, 40874, Note_on_c, 0, 30, 0
1, 41314, Control_c, 0, 64, 0
1, 41314, End_track
0, 0, End_of_file
