0, 0, Header, 1, 5, 120
1, 0, Start_track
1, 0, Title_t, "Blame It on My Youth"
1, 0, Text_t, "dougmck@pipeline.com.au. This needs a good acoustic bass sound with lots of 'rattle' on the hard plucked low strings. If you have a Creative Live sound card, Email me for a soundfont I did sampling vibrating low notes from a Ray Brown CD that is excellen\012"
1, 0, Time_signature, 4, 2, 24, 8
1, 0, Key_signature, -3, "major"
1, 0, Tempo, 983607
1, 0, Marker_t, "Blame it on My Youth"
1, 0, End_track
2, 0, Start_track
2, 0, Title_t, "Piano"
2, 10, Note_on_c, 0, 60, 39
2, 10, Note_on_c, 0, 55, 34
2, 11, Note_on_c, 0, 51, 21
2, 11, Note_on_c, 0, 44, 28
2, 78, Control_c, 0, 64, 127
2, 100, Note_on_c, 0, 51, 0
2, 104, Note_on_c, 0, 60, 0
2, 106, Note_on_c, 0, 55, 0
2, 130, Control_c, 0, 64, 0
2, 130, Note_on_c, 0, 55, 47
2, 131, Note_on_c, 0, 60, 54
2, 131, Note_on_c, 0, 51, 25
2, 168, Control_c, 0, 64, 127
2, 191, Note_on_c, 0, 60, 0
2, 194, Note_on_c, 0, 55, 0
2, 199, Note_on_c, 0, 51, 0
2, 203, Note_on_c, 0, 44, 0
2, 245, Control_c, 0, 64, 0
2, 248, Note_on_c, 0, 67, 63
2, 251, Note_on_c, 0, 63, 45
2, 252, Note_on_c, 0, 60, 50
2, 252, Note_on_c, 0, 46, 37
2, 253, Note_on_c, 0, 56, 30
2, 369, Control_c, 0, 64, 127
2, 415, Note_on_c, 0, 67, 0
2, 430, Note_on_c, 0, 65, 60
2, 435, Note_on_c, 0, 46, 0
2, 439, Note_on_c, 0, 60, 0
2, 447, Note_on_c, 0, 63, 0
2, 451, Note_on_c, 0, 56, 0
2, 453, Note_on_c, 0, 65, 0
2, 517, Control_c, 0, 64, 0
2, 551, Note_on_c, 0, 70, 55
2, 552, Note_on_c, 0, 43, 34
2, 554, Note_on_c, 0, 63, 43
2, 555, Note_on_c, 0, 53, 31
2, 555, Note_on_c, 0, 67, 51
2, 557, Note_on_c, 0, 59, 39
2, 609, Control_c, 0, 64, 127
2, 644, Note_on_c, 0, 67, 0
2, 672, Note_on_c, 0, 70, 0
2, 673, Note_on_c, 0, 43, 0
2, 673, Note_on_c, 0, 68, 45
2, 688, Note_on_c, 0, 53, 0
2, 690, Note_on_c, 0, 59, 0
2, 701, Note_on_c, 0, 68, 0
2, 702, Note_on_c, 0, 63, 0
2, 734, Note_on_c, 0, 58, 36
2, 735, Note_on_c, 0, 67, 46
2, 736, Control_c, 0, 64, 0
2, 737, Note_on_c, 0, 63, 34
2, 737, Note_on_c, 0, 48, 32
2, 786, Control_c, 0, 64, 127
2, 801, Note_on_c, 0, 67, 0
2, 808, Note_on_c, 0, 63, 0
2, 813, Note_on_c, 0, 58, 0
2, 858, Note_on_c, 0, 63, 44
2, 860, Note_on_c, 0, 55, 36
2, 862, Note_on_c, 0, 58, 27
2, 884, Note_on_c, 0, 48, 0
2, 912, Note_on_c, 0, 55, 0
2, 920, Note_on_c, 0, 58, 0
2, 941, Note_on_c, 0, 63, 0
2, 971, Note_on_c, 0, 60, 55
2, 972, Note_on_c, 0, 56, 33
2, 972, Control_c, 0, 64, 0
2, 973, Note_on_c, 0, 51, 34
2, 973, Note_on_c, 0, 53, 35
2, 983, Note_on_c, 0, 51, 0
2, 1014, Control_c, 0, 64, 127
2, 1052, Note_on_c, 0, 53, 0
2, 1061, Note_on_c, 0, 60, 0
2, 1062, Note_on_c, 0, 56, 0
2, 1139, Note_on_c, 0, 63, 53
2, 1156, Note_on_c, 0, 63, 0
2, 1202, Note_on_c, 0, 67, 64
2, 1205, Note_on_c, 0, 56, 35
2, 1205, Note_on_c, 0, 51, 32
2, 1206, Note_on_c, 0, 63, 32
2, 1207, Note_on_c, 0, 60, 41
2, 1207, Control_c, 0, 64, 0
2, 1272, Control_c, 0, 64, 127
2, 1365, Note_on_c, 0, 67, 0
2, 1377, Note_on_c, 0, 60, 0
2, 1379, Note_on_c, 0, 56, 0
2, 1380, Note_on_c, 0, 65, 55
2, 1384, Note_on_c, 0, 63, 0
2, 1394, Control_c, 0, 64, 0
2, 1423, Note_on_c, 0, 65, 0
2, 1431, Note_on_c, 0, 51, 0
2, 1443, Note_on_c, 0, 64, 72
2, 1443, Note_on_c, 0, 67, 70
2, 1444, Note_on_c, 0, 59, 68
2, 1445, Note_on_c, 0, 53, 44
2, 1445, Note_on_c, 0, 43, 48
2, 1446, Control_c, 0, 64, 0
2, 1486, Control_c, 0, 64, 127
2, 1570, Note_on_c, 0, 64, 0
2, 1571, Note_on_c, 0, 63, 74
2, 1577, Control_c, 0, 64, 0
2, 1601, Control_c, 0, 64, 127
2, 1616, Note_on_c, 0, 43, 0
2, 1626, Note_on_c, 0, 53, 0
2, 1648, Note_on_c, 0, 59, 0
2, 1673, Note_on_c, 0, 63, 0
2, 1684, Note_on_c, 0, 62, 48
2, 1685, Note_on_c, 0, 48, 40
2, 1685, Note_on_c, 0, 58, 37
2, 1688, Control_c, 0, 64, 0
2, 1730, Control_c, 0, 64, 127
2, 1777, Note_on_c, 0, 62, 0
2, 1798, Note_on_c, 0, 58, 0
2, 1804, Note_on_c, 0, 61, 52
2, 1805, Note_on_c, 0, 58, 18
2, 1813, Note_on_c, 0, 48, 0
2, 1869, Note_on_c, 0, 67, 0
2, 1871, Note_on_c, 0, 58, 0
2, 1890, Note_on_c, 0, 61, 0
2, 1919, Note_on_c, 0, 60, 51
2, 1919, Note_on_c, 0, 51, 28
2, 1920, Note_on_c, 0, 56, 30
2, 1920, Note_on_c, 0, 41, 38
2, 1921, Control_c, 0, 64, 0
2, 1940, Control_c, 0, 64, 127
2, 1945, Note_on_c, 0, 56, 0
2, 1948, Note_on_c, 0, 41, 0
2, 1948, Note_on_c, 0, 60, 0
2, 1960, Note_on_c, 0, 51, 0
2, 2047, Note_on_c, 0, 63, 25
2, 2049, Note_on_c, 0, 56, 35
2, 2052, Note_on_c, 0, 60, 31
2, 2055, Note_on_c, 0, 53, 14
2, 2095, Note_on_c, 0, 53, 0
2, 2100, Note_on_c, 0, 60, 0
2, 2104, Note_on_c, 0, 56, 0
2, 2106, Note_on_c, 0, 63, 0
2, 2113, Note_on_c, 0, 80, 83
2, 2113, Note_on_c, 0, 68, 87
2, 2127, Note_on_c, 0, 68, 0
2, 2132, Note_on_c, 0, 80, 0
2, 2171, Note_on_c, 0, 82, 84
2, 2171, Control_c, 0, 64, 0
2, 2172, Note_on_c, 0, 58, 71
2, 2174, Note_on_c, 0, 70, 93
2, 2175, Note_on_c, 0, 64, 66
2, 2191, Control_c, 0, 64, 127
2, 2202, Note_on_c, 0, 70, 0
2, 2206, Note_on_c, 0, 82, 0
2, 2212, Note_on_c, 0, 64, 0
2, 2214, Note_on_c, 0, 58, 0
2, 2233, Note_on_c, 0, 84, 77
2, 2234, Note_on_c, 0, 72, 68
2, 2235, Note_on_c, 0, 58, 64
2, 2236, Note_on_c, 0, 64, 60
2, 2249, Note_on_c, 0, 84, 0
2, 2256, Note_on_c, 0, 72, 0
2, 2268, Note_on_c, 0, 64, 0
2, 2269, Note_on_c, 0, 58, 0
2, 2295, Control_c, 0, 64, 0
2, 2295, Note_on_c, 0, 80, 60
2, 2296, Note_on_c, 0, 64, 51
2, 2297, Note_on_c, 0, 68, 53
2, 2297, Note_on_c, 0, 58, 49
2, 2308, Control_c, 0, 64, 127
2, 2318, Note_on_c, 0, 68, 0
2, 2322, Note_on_c, 0, 64, 0
2, 2323, Note_on_c, 0, 80, 0
2, 2324, Note_on_c, 0, 58, 0
2, 2352, Note_on_c, 0, 82, 63
2, 2353, Note_on_c, 0, 64, 47
2, 2353, Note_on_c, 0, 70, 49
2, 2354, Note_on_c, 0, 58, 35
2, 2364, Note_on_c, 0, 58, 0
2, 2364, Note_on_c, 0, 70, 0
2, 2367, Note_on_c, 0, 64, 0
2, 2369, Note_on_c, 0, 82, 0
2, 2403, Note_on_c, 0, 56, 47
2, 2406, Note_on_c, 0, 72, 62
2, 2408, Note_on_c, 0, 60, 55
2, 2409, Note_on_c, 0, 77, 66
2, 2411, Note_on_c, 0, 63, 38
2, 2411, Control_c, 0, 64, 0
2, 2412, Note_on_c, 0, 67, 57
2, 2413, Note_on_c, 0, 80, 42
2, 2417, Note_on_c, 0, 84, 75
2, 2442, Control_c, 0, 64, 127
2, 2455, Note_on_c, 0, 84, 0
2, 2476, Note_on_c, 0, 84, 63
2, 2488, Note_on_c, 0, 67, 0
2, 2491, Note_on_c, 0, 63, 0
2, 2492, Note_on_c, 0, 60, 0
2, 2513, Note_on_c, 0, 84, 0
2, 2529, Note_on_c, 0, 84, 52
2, 2530, Note_on_c, 0, 67, 36
2, 2531, Note_on_c, 0, 60, 37
2, 2532, Note_on_c, 0, 63, 23
2, 2559, Note_on_c, 0, 84, 0
2, 2589, Note_on_c, 0, 84, 53
2, 2602, Note_on_c, 0, 67, 0
2, 2605, Note_on_c, 0, 56, 0
2, 2608, Note_on_c, 0, 72, 0
2, 2610, Note_on_c, 0, 77, 0
2, 2611, Note_on_c, 0, 63, 0
2, 2611, Note_on_c, 0, 80, 0
2, 2612, Note_on_c, 0, 84, 0
2, 2624, Note_on_c, 0, 60, 0
2, 2647, Note_on_c, 0, 86, 80
2, 2647, Note_on_c, 0, 66, 62
2, 2648, Note_on_c, 0, 74, 74
2, 2648, Note_on_c, 0, 56, 59
2, 2649, Note_on_c, 0, 62, 64
2, 2650, Control_c, 0, 64, 0
2, 2650, Note_on_c, 0, 79, 58
2, 2677, Control_c, 0, 64, 127
2, 2699, Note_on_c, 0, 86, 0
2, 2712, Note_on_c, 0, 86, 62
2, 2739, Note_on_c, 0, 66, 0
2, 2741, Note_on_c, 0, 62, 0
2, 2748, Note_on_c, 0, 79, 0
2, 2751, Note_on_c, 0, 74, 0
2, 2755, Note_on_c, 0, 86, 0
2, 2772, Note_on_c, 0, 86, 61
2, 2773, Note_on_c, 0, 66, 33
2, 2775, Note_on_c, 0, 79, 44
2, 2776, Note_on_c, 0, 62, 32
2, 2777, Note_on_c, 0, 74, 24
2, 2817, Note_on_c, 0, 86, 0
2, 2825, Note_on_c, 0, 66, 0
2, 2830, Note_on_c, 0, 62, 0
2, 2832, Note_on_c, 0, 86, 51
2, 2839, Note_on_c, 0, 79, 0
2, 2840, Note_on_c, 0, 74, 0
2, 2841, Note_on_c, 0, 56, 0
2, 2859, Note_on_c, 0, 86, 0
2, 2891, Control_c, 0, 64, 0
2, 2892, Note_on_c, 0, 86, 61
2, 2893, Note_on_c, 0, 62, 29
2, 2893, Note_on_c, 0, 79, 48
2, 2893, Note_on_c, 0, 65, 35
2, 2894, Note_on_c, 0, 60, 38
2, 2895, Note_on_c, 0, 55, 41
2, 2895, Note_on_c, 0, 74, 32
2, 2908, Control_c, 0, 64, 127
2, 2921, Note_on_c, 0, 74, 0
2, 2921, Note_on_c, 0, 79, 0
2, 2928, Note_on_c, 0, 86, 0
2, 2950, Note_on_c, 0, 91, 66
2, 2962, Note_on_c, 0, 65, 0
2, 2963, Note_on_c, 0, 91, 0
2, 2969, Note_on_c, 0, 62, 0
2, 2980, Note_on_c, 0, 60, 0
2, 3011, Note_on_c, 0, 86, 57
2, 3012, Note_on_c, 0, 60, 24
2, 3013, Note_on_c, 0, 65, 25
2, 3014, Note_on_c, 0, 62, 25
2, 3016, Note_on_c, 0, 74, 43
2, 3097, Note_on_c, 0, 60, 0
2, 3099, Note_on_c, 0, 65, 0
2, 3112, Note_on_c, 0, 62, 0
2, 3156, Note_on_c, 0, 86, 0
2, 3175, Note_on_c, 0, 74, 0
2, 3191, Note_on_c, 0, 62, 33
2, 3191, Note_on_c, 0, 65, 27
2, 3194, Note_on_c, 0, 60, 34
2, 3279, Note_on_c, 0, 60, 0
2, 3287, Note_on_c, 0, 65, 0
2, 3288, Note_on_c, 0, 62, 0
2, 3288, Note_on_c, 0, 55, 0
2, 3305, Note_on_c, 0, 74, 108
2, 3326, Note_on_c, 0, 74, 0
2, 3337, Note_on_c, 0, 79, 87
2, 3365, Note_on_c, 0, 72, 68
2, 3366, Note_on_c, 0, 63, 36
2, 3366, Note_on_c, 0, 68, 30
2, 3367, Note_on_c, 0, 58, 39
2, 3369, Control_c, 0, 64, 0
2, 3370, Note_on_c, 0, 60, 39
2, 3410, Control_c, 0, 64, 127
2, 3509, Note_on_c, 0, 72, 0
2, 3512, Note_on_c, 0, 79, 0
2, 3548, Note_on_c, 0, 86, 84
2, 3555, Note_on_c, 0, 68, 0
2, 3563, Note_on_c, 0, 63, 0
2, 3567, Note_on_c, 0, 60, 0
2, 3572, Note_on_c, 0, 86, 0
2, 3573, Note_on_c, 0, 58, 0
2, 3607, Note_on_c, 0, 78, 45
2, 3608, Note_on_c, 0, 74, 50
2, 3608, Note_on_c, 0, 83, 51
2, 3611, Note_on_c, 0, 67, 36
2, 3611, Note_on_c, 0, 62, 37
2, 3612, Note_on_c, 0, 56, 29
2, 3613, Control_c, 0, 64, 0
2, 3618, Note_on_c, 0, 78, 0
2, 3624, Note_on_c, 0, 79, 25
2, 3653, Control_c, 0, 64, 127
2, 3720, Note_on_c, 0, 67, 0
2, 3724, Note_on_c, 0, 56, 0
2, 3726, Note_on_c, 0, 62, 0
2, 3743, Note_on_c, 0, 74, 0
2, 3743, Note_on_c, 0, 79, 0
2, 3747, Note_on_c, 0, 83, 0
2, 3799, Control_c, 0, 64, 0
2, 3840, Control_c, 0, 64, 127
2, 3844, Note_on_c, 0, 79, 71
2, 3849, Note_on_c, 0, 74, 55
2, 3849, Note_on_c, 0, 65, 41
2, 3850, Note_on_c, 0, 60, 38
2, 3851, Note_on_c, 0, 62, 32
2, 3852, Note_on_c, 0, 55, 39
2, 3852, Control_c, 0, 64, 0
2, 3852, Note_on_c, 0, 67, 32
2, 3882, Control_c, 0, 64, 127
2, 3920, Note_on_c, 0, 65, 0
2, 3929, Note_on_c, 0, 60, 0
2, 3930, Note_on_c, 0, 62, 0
2, 3936, Note_on_c, 0, 74, 0
2, 3948, Note_on_c, 0, 67, 0
2, 3975, Note_on_c, 0, 67, 41
2, 3975, Note_on_c, 0, 60, 32
2, 3976, Note_on_c, 0, 65, 32
2, 3976, Note_on_c, 0, 74, 36
2, 3977, Note_on_c, 0, 62, 22
2, 4019, Note_on_c, 0, 67, 0
2, 4022, Note_on_c, 0, 62, 0
2, 4030, Note_on_c, 0, 60, 0
2, 4033, Note_on_c, 0, 55, 0
2, 4035, Note_on_c, 0, 65, 0
2, 4059, Note_on_c, 0, 74, 0
2, 4068, Note_on_c, 0, 79, 0
2, 4092, Note_on_c, 0, 63, 42
2, 4092, Note_on_c, 0, 67, 36
2, 4093, Note_on_c, 0, 56, 29
2, 4095, Control_c, 0, 64, 0
2, 4095, Note_on_c, 0, 60, 53
2, 4119, Control_c, 0, 64, 127
2, 4163, Note_on_c, 0, 80, 95
2, 4183, Note_on_c, 0, 80, 0
2, 4190, Note_on_c, 0, 67, 0
2, 4194, Note_on_c, 0, 60, 0
2, 4195, Note_on_c, 0, 63, 0
2, 4195, Note_on_c, 0, 80, 92
2, 4219, Note_on_c, 0, 80, 0
2, 4220, Note_on_c, 0, 63, 38
2, 4222, Note_on_c, 0, 60, 42
2, 4223, Note_on_c, 0, 67, 40
2, 4229, Control_c, 0, 64, 0
2, 4231, Note_on_c, 0, 82, 90
2, 4247, Control_c, 0, 64, 127
2, 4254, Note_on_c, 0, 82, 0
2, 4266, Note_on_c, 0, 82, 81
2, 4275, Note_on_c, 0, 60, 0
2, 4276, Note_on_c, 0, 67, 0
2, 4282, Note_on_c, 0, 63, 0
2, 4290, Note_on_c, 0, 56, 0
2, 4296, Note_on_c, 0, 79, 73
2, 4313, Note_on_c, 0, 82, 0
2, 4315, Note_on_c, 0, 79, 0
2, 4320, Note_on_c, 0, 80, 62
2, 4332, Note_on_c, 0, 80, 0
2, 4347, Note_on_c, 0, 53, 54
2, 4347, Note_on_c, 0, 82, 57
2, 4348, Note_on_c, 0, 63, 60
2, 4349, Note_on_c, 0, 59, 62
2, 4349, Note_on_c, 0, 80, 55
2, 4351, Note_on_c, 0, 75, 60
2, 4353, Control_c, 0, 64, 0
2, 4354, Note_on_c, 0, 71, 51
2, 4368, Note_on_c, 0, 80, 0
2, 4403, Control_c, 0, 64, 127
2, 4421, Note_on_c, 0, 63, 0
2, 4428, Note_on_c, 0, 59, 0
2, 4439, Note_on_c, 0, 75, 0
2, 4440, Note_on_c, 0, 71, 0
2, 4458, Note_on_c, 0, 82, 0
2, 4459, Note_on_c, 0, 75, 46
2, 4460, Note_on_c, 0, 71, 55
2, 4460, Note_on_c, 0, 79, 43
2, 4462, Note_on_c, 0, 63, 28
2, 4465, Note_on_c, 0, 59, 34
2, 4479, Note_on_c, 0, 79, 0
2, 4487, Note_on_c, 0, 75, 0
2, 4508, Note_on_c, 0, 71, 0
2, 4533, Note_on_c, 0, 53, 0
2, 4533, Note_on_c, 0, 63, 0
2, 4533, Note_on_c, 0, 59, 0
2, 4578, Note_on_c, 0, 70, 48
2, 4579, Note_on_c, 0, 67, 45
2, 4580, Note_on_c, 0, 58, 36
2, 4580, Note_on_c, 0, 64, 39
2, 4583, Control_c, 0, 64, 0
2, 4610, Control_c, 0, 64, 127
2, 4635, Note_on_c, 0, 67, 0
2, 4639, Note_on_c, 0, 70, 0
2, 4639, Note_on_c, 0, 74, 71
2, 4649, Note_on_c, 0, 64, 0
2, 4656, Note_on_c, 0, 74, 0
2, 4683, Note_on_c, 0, 58, 0
2, 4755, Note_on_c, 0, 72, 67
2, 4781, Note_on_c, 0, 72, 0
2, 4792, Note_on_c, 0, 75, 74
2, 4807, Note_on_c, 0, 75, 0
2, 4825, Note_on_c, 0, 79, 50
2, 4827, Note_on_c, 0, 75, 52
2, 4828, Note_on_c, 0, 72, 57
2, 4829, Note_on_c, 0, 53, 37
2, 4831, Note_on_c, 0, 68, 37
2, 4831, Note_on_c, 0, 63, 32
2, 4832, Note_on_c, 0, 60, 35
2, 4832, Control_c, 0, 64, 0
2, 4837, Note_on_c, 0, 79, 0
2, 4863, Control_c, 0, 64, 127
2, 4878, Note_on_c, 0, 77, 43
2, 4889, Note_on_c, 0, 75, 0
2, 4889, Note_on_c, 0, 72, 0
2, 4897, Note_on_c, 0, 68, 0
2, 4911, Note_on_c, 0, 63, 0
2, 4914, Note_on_c, 0, 60, 0
2, 4928, Note_on_c, 0, 77, 0
2, 4942, Note_on_c, 0, 63, 39
2, 4945, Note_on_c, 0, 68, 25
2, 4945, Note_on_c, 0, 77, 35
2, 4946, Note_on_c, 0, 72, 33
2, 4947, Note_on_c, 0, 60, 36
2, 4966, Note_on_c, 0, 63, 0
2, 4975, Note_on_c, 0, 53, 0
2, 4982, Note_on_c, 0, 60, 0
2, 4988, Note_on_c, 0, 77, 0
2, 4988, Note_on_c, 0, 72, 0
2, 4996, Note_on_c, 0, 68, 0
2, 5051, Note_on_c, 0, 64, 68
2, 5051, Note_on_c, 0, 61, 62
2, 5052, Note_on_c, 0, 58, 58
2, 5052, Note_on_c, 0, 52, 66
2, 5057, Control_c, 0, 64, 0
2, 5083, Control_c, 0, 64, 127
2, 5104, Note_on_c, 0, 58, 0
2, 5106, Note_on_c, 0, 64, 0
2, 5108, Note_on_c, 0, 61, 0
2, 5120, Note_on_c, 0, 67, 80
2, 5120, Note_on_c, 0, 58, 78
2, 5121, Note_on_c, 0, 61, 60
2, 5121, Note_on_c, 0, 64, 75
2, 5121, Note_on_c, 0, 55, 79
2, 5130, Note_on_c, 0, 52, 0
2, 5130, Control_c, 0, 64, 0
2, 5152, Control_c, 0, 64, 127
2, 5161, Note_on_c, 0, 67, 0
2, 5169, Note_on_c, 0, 64, 0
2, 5175, Note_on_c, 0, 55, 0
2, 5177, Note_on_c, 0, 61, 0
2, 5177, Note_on_c, 0, 58, 0
2, 5187, Note_on_c, 0, 68, 71
2, 5188, Note_on_c, 0, 61, 68
2, 5189, Note_on_c, 0, 58, 75
2, 5189, Note_on_c, 0, 64, 71
2, 5189, Note_on_c, 0, 56, 67
2, 5193, Control_c, 0, 64, 0
2, 5213, Control_c, 0, 64, 127
2, 5223, Note_on_c, 0, 64, 0
2, 5231, Note_on_c, 0, 58, 0
2, 5231, Note_on_c, 0, 56, 0
2, 5232, Note_on_c, 0, 61, 0
2, 5234, Note_on_c, 0, 68, 0
2, 5270, Control_c, 0, 64, 0
2, 5271, Note_on_c, 0, 65, 50
2, 5272, Note_on_c, 0, 61, 31
2, 5272, Note_on_c, 0, 53, 47
2, 5273, Note_on_c, 0, 58, 31
2, 5285, Note_on_c, 0, 58, 0
2, 5288, Note_on_c, 0, 65, 0
2, 5289, Control_c, 0, 64, 127
2, 5291, Note_on_c, 0, 53, 0
2, 5293, Note_on_c, 0, 67, 61
2, 5295, Note_on_c, 0, 55, 42
2, 5302, Note_on_c, 0, 61, 0
2, 5303, Note_on_c, 0, 55, 0
2, 5303, Note_on_c, 0, 67, 0
2, 5323, Control_c, 0, 64, 0
2, 5323, Note_on_c, 0, 56, 42
2, 5324, Note_on_c, 0, 60, 57
2, 5324, Note_on_c, 0, 65, 56
2, 5324, Note_on_c, 0, 68, 35
2, 5325, Note_on_c, 0, 63, 33
2, 5355, Control_c, 0, 64, 127
2, 5392, Note_on_c, 0, 65, 0
2, 5392, Note_on_c, 0, 60, 0
2, 5397, Note_on_c, 0, 68, 0
2, 5401, Note_on_c, 0, 63, 0
2, 5412, Note_on_c, 0, 56, 0
2, 5478, Note_on_c, 0, 75, 57
2, 5492, Note_on_c, 0, 75, 0
2, 5502, Note_on_c, 0, 82, 71
2, 5523, Note_on_c, 0, 82, 0
2, 5532, Note_on_c, 0, 79, 51
2, 5532, Note_on_c, 0, 66, 39
2, 5533, Note_on_c, 0, 74, 43
2, 5535, Note_on_c, 0, 62, 33
2, 5536, Control_c, 0, 64, 0
2, 5537, Note_on_c, 0, 56, 30
2, 5555, Note_on_c, 0, 79, 0
2, 5555, Control_c, 0, 64, 127
2, 5565, Note_on_c, 0, 74, 0
2, 5568, Note_on_c, 0, 86, 83
2, 5612, Note_on_c, 0, 66, 0
2, 5614, Note_on_c, 0, 62, 0
2, 5684, Note_on_c, 0, 86, 0
2, 5698, Note_on_c, 0, 79, 40
2, 5703, Note_on_c, 0, 79, 0
2, 5726, Note_on_c, 0, 56, 0
2, 5736, Note_on_c, 0, 93, 64
2, 5737, Note_on_c, 0, 91, 51
2, 5741, Note_on_c, 0, 91, 0
2, 5764, Note_on_c, 0, 93, 0
2, 5772, Note_on_c, 0, 67, 37
2, 5773, Note_on_c, 0, 92, 70
2, 5773, Note_on_c, 0, 63, 34
2, 5773, Note_on_c, 0, 56, 33
2, 5776, Note_on_c, 0, 60, 48
2, 5778, Control_c, 0, 64, 0
2, 5809, Control_c, 0, 64, 127
2, 5830, Note_on_c, 0, 84, 43
2, 5848, Note_on_c, 0, 60, 0
2, 5851, Note_on_c, 0, 67, 0
2, 5861, Note_on_c, 0, 63, 0
2, 5866, Note_on_c, 0, 84, 0
2, 5889, Note_on_c, 0, 63, 31
2, 5891, Note_on_c, 0, 67, 33
2, 5893, Note_on_c, 0, 84, 40
2, 5894, Note_on_c, 0, 60, 37
2, 5903, Note_on_c, 0, 92, 0
2, 5928, Note_on_c, 0, 84, 0
2, 5949, Note_on_c, 0, 67, 0
2, 5951, Note_on_c, 0, 60, 0
2, 5955, Note_on_c, 0, 63, 0
2, 5968, Note_on_c, 0, 56, 0
2, 6011, Note_on_c, 0, 61, 80
2, 6011, Note_on_c, 0, 58, 77
2, 6012, Note_on_c, 0, 64, 84
2, 6012, Note_on_c, 0, 82, 87
2, 6012, Note_on_c, 0, 55, 80
2, 6012, Note_on_c, 0, 70, 95
2, 6014, Control_c, 0, 64, 0
2, 6015, Note_on_c, 0, 80, 49
2, 6020, Note_on_c, 0, 80, 0
2, 6035, Control_c, 0, 64, 127
2, 6046, Note_on_c, 0, 55, 0
2, 6049, Note_on_c, 0, 82, 0
2, 6049, Note_on_c, 0, 64, 0
2, 6049, Note_on_c, 0, 70, 0
2, 6050, Note_on_c, 0, 61, 0
2, 6050, Note_on_c, 0, 58, 0
2, 6073, Note_on_c, 0, 61, 77
2, 6073, Note_on_c, 0, 64, 82
2, 6073, Note_on_c, 0, 58, 69
2, 6074, Note_on_c, 0, 84, 85
2, 6074, Note_on_c, 0, 55, 80
2, 6074, Note_on_c, 0, 72, 83
2, 6077, Control_c, 0, 64, 0
2, 6090, Control_c, 0, 64, 127
2, 6095, Note_on_c, 0, 84, 0
2, 6104, Note_on_c, 0, 72, 0
2, 6111, Note_on_c, 0, 55, 0
2, 6114, Note_on_c, 0, 64, 0
2, 6116, Note_on_c, 0, 58, 0
2, 6117, Note_on_c, 0, 61, 0
2, 6131, Note_on_c, 0, 80, 72
2, 6131, Note_on_c, 0, 61, 60
2, 6131, Note_on_c, 0, 64, 71
2, 6132, Note_on_c, 0, 58, 60
2, 6132, Note_on_c, 0, 68, 75
2, 6132, Note_on_c, 0, 55, 68
2, 6134, Control_c, 0, 64, 0
2, 6149, Control_c, 0, 64, 127
2, 6158, Note_on_c, 0, 80, 0
2, 6165, Note_on_c, 0, 68, 0
2, 6169, Note_on_c, 0, 58, 0
2, 6169, Note_on_c, 0, 55, 0
2, 6171, Note_on_c, 0, 64, 0
2, 6172, Note_on_c, 0, 61, 0
2, 6197, Note_on_c, 0, 55, 66
2, 6197, Note_on_c, 0, 61, 49
2, 6198, Note_on_c, 0, 64, 39
2, 6199, Control_c, 0, 64, 0
2, 6200, Note_on_c, 0, 58, 31
2, 6206, Note_on_c, 0, 64, 0
2, 6209, Control_c, 0, 64, 127
2, 6212, Note_on_c, 0, 58, 0
2, 6212, Note_on_c, 0, 61, 0
2, 6214, Note_on_c, 0, 55, 0
2, 6220, Note_on_c, 0, 70, 74
2, 6220, Note_on_c, 0, 55, 35
2, 6220, Note_on_c, 0, 82, 69
2, 6222, Note_on_c, 0, 61, 53
2, 6223, Note_on_c, 0, 58, 31
2, 6223, Note_on_c, 0, 64, 35
2, 6227, Note_on_c, 0, 55, 0
2, 6228, Note_on_c, 0, 64, 0
2, 6232, Note_on_c, 0, 70, 0
2, 6237, Note_on_c, 0, 82, 0
2, 6239, Note_on_c, 0, 58, 0
2, 6242, Note_on_c, 0, 61, 0
2, 6254, Note_on_c, 0, 60, 66
2, 6255, Note_on_c, 0, 72, 75
2, 6255, Note_on_c, 0, 53, 55
2, 6255, Note_on_c, 0, 84, 78
2, 6256, Note_on_c, 0, 63, 62
2, 6258, Note_on_c, 0, 58, 32
2, 6258, Control_c, 0, 64, 0
2, 6270, Note_on_c, 0, 58, 0
2, 6275, Note_on_c, 0, 56, 25
2, 6282, Control_c, 0, 64, 127
2, 6305, Note_on_c, 0, 63, 0
2, 6306, Note_on_c, 0, 84, 0
2, 6306, Note_on_c, 0, 56, 0
2, 6314, Note_on_c, 0, 72, 0
2, 6328, Note_on_c, 0, 60, 0
2, 6367, Note_on_c, 0, 63, 35
2, 6370, Note_on_c, 0, 72, 45
2, 6370, Note_on_c, 0, 67, 46
2, 6372, Note_on_c, 0, 60, 34
2, 6373, Note_on_c, 0, 56, 23
2, 6400, Note_on_c, 0, 67, 0
2, 6412, Note_on_c, 0, 72, 0
2, 6424, Note_on_c, 0, 60, 0
2, 6427, Note_on_c, 0, 53, 0
2, 6432, Note_on_c, 0, 79, 83
2, 6437, Note_on_c, 0, 63, 0
2, 6437, Note_on_c, 0, 56, 0
2, 6484, Note_on_c, 0, 79, 0
2, 6489, Note_on_c, 0, 74, 50
2, 6489, Note_on_c, 0, 71, 46
2, 6489, Control_c, 0, 64, 0
2, 6490, Note_on_c, 0, 56, 39
2, 6490, Note_on_c, 0, 67, 45
2, 6491, Note_on_c, 0, 62, 38
2, 6506, Control_c, 0, 64, 127
2, 6519, Note_on_c, 0, 71, 0
2, 6522, Note_on_c, 0, 74, 0
2, 6532, Note_on_c, 0, 67, 0
2, 6536, Note_on_c, 0, 56, 0
2, 6537, Note_on_c, 0, 62, 0
2, 6550, Note_on_c, 0, 86, 91
2, 6551, Note_on_c, 0, 79, 85
2, 6553, Note_on_c, 0, 56, 44
2, 6554, Note_on_c, 0, 62, 47
2, 6558, Control_c, 0, 64, 0
2, 6567, Control_c, 0, 64, 127
2, 6591, Note_on_c, 0, 56, 0
2, 6599, Note_on_c, 0, 86, 0
2, 6600, Note_on_c, 0, 79, 0
2, 6607, Note_on_c, 0, 56, 37
2, 6607, Note_on_c, 0, 66, 53
2, 6610, Control_c, 0, 64, 0
2, 6611, Note_on_c, 0, 79, 42
2, 6611, Note_on_c, 0, 83, 55
2, 6612, Note_on_c, 0, 74, 51
2, 6619, Control_c, 0, 64, 127
2, 6627, Note_on_c, 0, 74, 0
2, 6628, Note_on_c, 0, 66, 0
2, 6628, Note_on_c, 0, 79, 0
2, 6634, Note_on_c, 0, 83, 0
2, 6647, Note_on_c, 0, 56, 0
2, 6660, Note_on_c, 0, 62, 0
2, 6669, Note_on_c, 0, 56, 67
2, 6669, Note_on_c, 0, 62, 38
2, 6670, Note_on_c, 0, 91, 82
2, 6670, Note_on_c, 0, 66, 71
2, 6670, Note_on_c, 0, 85, 81
2, 6671, Note_on_c, 0, 79, 70
2, 6671, Control_c, 0, 64, 0
2, 6688, Control_c, 0, 64, 127
2, 6693, Note_on_c, 0, 85, 0
2, 6693, Note_on_c, 0, 86, 53
2, 6697, Note_on_c, 0, 66, 0
2, 6698, Note_on_c, 0, 62, 0
2, 6699, Note_on_c, 0, 86, 0
2, 6704, Note_on_c, 0, 91, 0
2, 6705, Note_on_c, 0, 79, 0
2, 6712, Note_on_c, 0, 56, 0
2, 6737, Note_on_c, 0, 65, 64
2, 6738, Note_on_c, 0, 62, 49
2, 6740, Note_on_c, 0, 60, 55
2, 6740, Note_on_c, 0, 72, 48
2, 6740, Note_on_c, 0, 55, 51
2, 6741, Control_c, 0, 64, 0
2, 6741, Note_on_c, 0, 74, 54
2, 6742, Note_on_c, 0, 86, 61
2, 6742, Note_on_c, 0, 84, 46
2, 6748, Note_on_c, 0, 84, 0
2, 6753, Note_on_c, 0, 72, 0
2, 6773, Control_c, 0, 64, 127
2, 6789, Note_on_c, 0, 60, 0
2, 6789, Note_on_c, 0, 65, 0
2, 6792, Note_on_c, 0, 62, 0
2, 6794, Note_on_c, 0, 86, 0
2, 6795, Note_on_c, 0, 74, 0
2, 6800, Note_on_c, 0, 65, 44
2, 6802, Note_on_c, 0, 86, 54
2, 6802, Note_on_c, 0, 62, 34
2, 6803, Note_on_c, 0, 74, 37
2, 6805, Note_on_c, 0, 60, 38
2, 6815, Note_on_c, 0, 86, 0
2, 6817, Note_on_c, 0, 65, 0
2, 6819, Note_on_c, 0, 60, 0
2, 6820, Note_on_c, 0, 74, 0
2, 6823, Note_on_c, 0, 62, 0
2, 6827, Note_on_c, 0, 55, 0
2, 6858, Note_on_c, 0, 82, 44
2, 6860, Note_on_c, 0, 62, 36
2, 6860, Note_on_c, 0, 70, 36
2, 6860, Note_on_c, 0, 65, 40
2, 6861, Control_c, 0, 64, 0
2, 6861, Note_on_c, 0, 60, 46
2, 6862, Note_on_c, 0, 55, 37
2, 6865, Note_on_c, 0, 77, 27
2, 6890, Control_c, 0, 64, 127
2, 6924, Note_on_c, 0, 60, 0
2, 6926, Note_on_c, 0, 77, 0
2, 6930, Note_on_c, 0, 62, 0
2, 6933, Note_on_c, 0, 65, 0
2, 6942, Note_on_c, 0, 70, 0
2, 6971, Note_on_c, 0, 70, 39
2, 6971, Note_on_c, 0, 62, 33
2, 6971, Note_on_c, 0, 65, 32
2, 6972, Note_on_c, 0, 77, 30
2, 6973, Note_on_c, 0, 60, 43
2, 7035, Note_on_c, 0, 60, 0
2, 7039, Note_on_c, 0, 82, 0
2, 7039, Note_on_c, 0, 65, 0
2, 7041, Note_on_c, 0, 77, 0
2, 7042, Note_on_c, 0, 62, 0
2, 7048, Note_on_c, 0, 70, 0
2, 7088, Note_on_c, 0, 65, 32
2, 7089, Note_on_c, 0, 62, 32
2, 7090, Note_on_c, 0, 60, 40
2, 7123, Note_on_c, 0, 62, 0
2, 7141, Note_on_c, 0, 65, 0
2, 7144, Note_on_c, 0, 60, 0
2, 7147, Note_on_c, 0, 55, 0
2, 7207, Note_on_c, 0, 56, 64
2, 7208, Note_on_c, 0, 61, 67
2, 7208, Note_on_c, 0, 65, 72
2, 7209, Note_on_c, 0, 80, 77
2, 7209, Note_on_c, 0, 60, 69
2, 7209, Note_on_c, 0, 68, 82
2, 7210, Control_c, 0, 64, 0
2, 7210, Note_on_c, 0, 75, 73
2, 7231, Note_on_c, 0, 75, 0
2, 7231, Control_c, 0, 64, 127
2, 7242, Note_on_c, 0, 80, 0
2, 7243, Note_on_c, 0, 68, 0
2, 7252, Note_on_c, 0, 65, 0
2, 7252, Note_on_c, 0, 60, 0
2, 7255, Note_on_c, 0, 56, 0
2, 7260, Note_on_c, 0, 61, 0
2, 7269, Note_on_c, 0, 56, 61
2, 7270, Note_on_c, 0, 82, 79
2, 7270, Note_on_c, 0, 65, 67
2, 7271, Note_on_c, 0, 61, 64
2, 7271, Note_on_c, 0, 60, 72
2, 7271, Note_on_c, 0, 70, 83
2, 7275, Control_c, 0, 64, 0
2, 7287, Control_c, 0, 64, 127
2, 7292, Note_on_c, 0, 82, 0
2, 7296, Note_on_c, 0, 70, 0
2, 7309, Note_on_c, 0, 65, 0
2, 7311, Note_on_c, 0, 60, 0
2, 7312, Note_on_c, 0, 61, 0
2, 7314, Note_on_c, 0, 56, 0
2, 7328, Note_on_c, 0, 56, 64
2, 7329, Note_on_c, 0, 65, 67
2, 7329, Note_on_c, 0, 61, 55
2, 7330, Control_c, 0, 64, 0
2, 7330, Note_on_c, 0, 79, 70
2, 7330, Note_on_c, 0, 67, 79
2, 7331, Note_on_c, 0, 60, 64
2, 7333, Note_on_c, 0, 77, 48
2, 7339, Note_on_c, 0, 77, 0
2, 7346, Control_c, 0, 64, 127
2, 7353, Note_on_c, 0, 79, 0
2, 7360, Note_on_c, 0, 67, 0
2, 7365, Note_on_c, 0, 65, 0
2, 7366, Note_on_c, 0, 56, 0
2, 7367, Note_on_c, 0, 60, 0
2, 7371, Note_on_c, 0, 61, 0
2, 7385, Note_on_c, 0, 56, 67
2, 7386, Note_on_c, 0, 61, 56
2, 7386, Note_on_c, 0, 80, 70
2, 7386, Note_on_c, 0, 68, 73
2, 7386, Note_on_c, 0, 65, 60
2, 7396, Control_c, 0, 64, 0
2, 7401, Control_c, 0, 64, 127
2, 7405, Note_on_c, 0, 65, 0
2, 7407, Note_on_c, 0, 68, 0
2, 7410, Note_on_c, 0, 80, 0
2, 7412, Note_on_c, 0, 61, 0
2, 7420, Note_on_c, 0, 56, 0
2, 7443, Note_on_c, 0, 61, 71
2, 7444, Note_on_c, 0, 55, 75
2, 7445, Control_c, 0, 64, 0
2, 7445, Note_on_c, 0, 82, 78
2, 7445, Note_on_c, 0, 64, 67
2, 7445, Note_on_c, 0, 70, 87
2, 7447, Note_on_c, 0, 75, 56
2, 7451, Note_on_c, 0, 75, 0
2, 7463, Control_c, 0, 64, 127
2, 7471, Note_on_c, 0, 70, 0
2, 7474, Note_on_c, 0, 82, 0
2, 7483, Note_on_c, 0, 64, 0
2, 7483, Note_on_c, 0, 55, 0
2, 7487, Note_on_c, 0, 61, 0
2, 7508, Note_on_c, 0, 61, 65
2, 7508, Note_on_c, 0, 84, 79
2, 7508, Note_on_c, 0, 55, 71
2, 7509, Note_on_c, 0, 64, 56
2, 7509, Note_on_c, 0, 72, 72
2, 7510, Control_c, 0, 64, 0
2, 7524, Control_c, 0, 64, 127
2, 7528, Note_on_c, 0, 84, 0
2, 7533, Note_on_c, 0, 72, 0
2, 7542, Note_on_c, 0, 64, 0
2, 7547, Note_on_c, 0, 55, 0
2, 7550, Note_on_c, 0, 61, 0
2, 7569, Note_on_c, 0, 81, 54
2, 7569, Note_on_c, 0, 61, 50
2, 7569, Note_on_c, 0, 69, 62
2, 7570, Note_on_c, 0, 55, 56
2, 7570, Note_on_c, 0, 64, 44
2, 7571, Control_c, 0, 64, 0
2, 7588, Control_c, 0, 64, 127
2, 7589, Note_on_c, 0, 81, 0
2, 7594, Note_on_c, 0, 69, 0
2, 7598, Note_on_c, 0, 64, 0
2, 7601, Note_on_c, 0, 55, 0
2, 7610, Note_on_c, 0, 61, 0
2, 7625, Note_on_c, 0, 61, 53
2, 7627, Note_on_c, 0, 82, 51
2, 7628, Control_c, 0, 64, 0
2, 7629, Note_on_c, 0, 55, 36
2, 7629, Note_on_c, 0, 70, 48
2, 7629, Note_on_c, 0, 64, 27
2, 7632, Control_c, 0, 64, 127
2, 7634, Note_on_c, 0, 64, 0
2, 7634, Note_on_c, 0, 55, 0
2, 7644, Note_on_c, 0, 61, 0
2, 7647, Note_on_c, 0, 82, 0
2, 7647, Note_on_c, 0, 70, 0
2, 7685, Note_on_c, 0, 63, 39
2, 7686, Note_on_c, 0, 84, 60
2, 7687, Control_c, 0, 64, 0
2, 7687, Note_on_c, 0, 60, 42
2, 7687, Note_on_c, 0, 72, 44
2, 7688, Note_on_c, 0, 53, 33
2, 7691, Note_on_c, 0, 58, 28
2, 7711, Control_c, 0, 64, 127
2, 7739, Note_on_c, 0, 63, 0
2, 7741, Note_on_c, 0, 84, 0
2, 7753, Note_on_c, 0, 72, 0
2, 7761, Note_on_c, 0, 60, 0
2, 7770, Note_on_c, 0, 58, 0
2, 7799, Note_on_c, 0, 53, 0
2, 7818, Note_on_c, 0, 58, 28
2, 7819, Note_on_c, 0, 53, 29
2, 7850, Note_on_c, 0, 60, 30
2, 7854, Note_on_c, 0, 58, 0
2, 7859, Note_on_c, 0, 60, 0
2, 7861, Note_on_c, 0, 53, 0
2, 7878, Note_on_c, 0, 64, 71
2, 7892, Note_on_c, 0, 64, 0
2, 7911, Note_on_c, 0, 72, 88
2, 7930, Note_on_c, 0, 72, 0
2, 7946, Note_on_c, 0, 60, 71
2, 7947, Note_on_c, 0, 56, 37
2, 7947, Note_on_c, 0, 46, 36
2, 7950, Control_c, 0, 64, 0
2, 7974, Control_c, 0, 64, 127
2, 7994, Note_on_c, 0, 62, 87
2, 7998, Note_on_c, 0, 60, 0
2, 8011, Note_on_c, 0, 56, 0
2, 8027, Note_on_c, 0, 46, 0
2, 8035, Note_on_c, 0, 62, 0
2, 8047, Note_on_c, 0, 54, 56
2, 8047, Note_on_c, 0, 62, 83
2, 8048, Note_on_c, 0, 44, 59
2, 8053, Control_c, 0, 64, 0
2, 8080, Control_c, 0, 64, 127
2, 8091, Note_on_c, 0, 62, 0
2, 8124, Note_on_c, 0, 54, 0
2, 8130, Note_on_c, 0, 72, 82
2, 8133, Note_on_c, 0, 44, 0
2, 8143, Note_on_c, 0, 72, 0
2, 8170, Note_on_c, 0, 70, 55
2, 8173, Note_on_c, 0, 62, 58
2, 8174, Note_on_c, 0, 43, 49
2, 8174, Control_c, 0, 64, 0
2, 8174, Note_on_c, 0, 58, 44
2, 8174, Note_on_c, 0, 53, 39
2, 8213, Control_c, 0, 64, 127
2, 8238, Note_on_c, 0, 53, 0
2, 8239, Note_on_c, 0, 58, 0
2, 8256, Note_on_c, 0, 62, 0
2, 8293, Note_on_c, 0, 70, 0
2, 8298, Note_on_c, 0, 53, 39
2, 8298, Note_on_c, 0, 62, 43
2, 8299, Note_on_c, 0, 58, 30
2, 8313, Note_on_c, 0, 58, 0
2, 8313, Note_on_c, 0, 62, 0
2, 8339, Note_on_c, 0, 43, 0
2, 8348, Note_on_c, 0, 53, 0
2, 8350, Note_on_c, 0, 67, 76
2, 8364, Note_on_c, 0, 67, 0
2, 8381, Note_on_c, 0, 74, 82
2, 8403, Note_on_c, 0, 74, 0
2, 8417, Note_on_c, 0, 74, 53
2, 8418, Note_on_c, 0, 48, 46
2, 8420, Control_c, 0, 64, 0
2, 8420, Note_on_c, 0, 63, 49
2, 8420, Note_on_c, 0, 67, 63
2, 8421, Note_on_c, 0, 59, 37
2, 8443, Control_c, 0, 64, 127
2, 8445, Note_on_c, 0, 74, 0
2, 8454, Note_on_c, 0, 63, 0
2, 8457, Note_on_c, 0, 75, 67
2, 8461, Note_on_c, 0, 59, 0
2, 8462, Note_on_c, 0, 67, 0
2, 8521, Note_on_c, 0, 75, 0
2, 8533, Note_on_c, 0, 67, 52
2, 8534, Note_on_c, 0, 63, 33
2, 8534, Note_on_c, 0, 72, 38
2, 8535, Note_on_c, 0, 58, 32
2, 8537, Control_c, 0, 64, 0
2, 8554, Control_c, 0, 64, 127
2, 8575, Note_on_c, 0, 67, 0
2, 8576, Note_on_c, 0, 48, 0
2, 8578, Note_on_c, 0, 63, 0
2, 8580, Note_on_c, 0, 58, 0
2, 8592, Note_on_c, 0, 72, 0
2, 8596, Note_on_c, 0, 67, 48
2, 8606, Note_on_c, 0, 67, 0
2, 8648, Note_on_c, 0, 80, 52
2, 8648, Note_on_c, 0, 67, 42
2, 8650, Note_on_c, 0, 68, 47
2, 8650, Note_on_c, 0, 63, 30
2, 8652, Note_on_c, 0, 56, 27
2, 8652, Control_c, 0, 64, 0
2, 8653, Note_on_c, 0, 60, 41
2, 8682, Control_c, 0, 64, 127
2, 8706, Note_on_c, 0, 67, 0
2, 8707, Note_on_c, 0, 60, 0
2, 8712, Note_on_c, 0, 68, 0
2, 8721, Note_on_c, 0, 80, 0
2, 8724, Note_on_c, 0, 63, 0
2, 8764, Note_on_c, 0, 67, 47
2, 8765, Note_on_c, 0, 63, 33
2, 8767, Note_on_c, 0, 60, 43
2, 8777, Note_on_c, 0, 67, 0
2, 8781, Note_on_c, 0, 56, 0
2, 8781, Note_on_c, 0, 60, 0
2, 8782, Note_on_c, 0, 63, 0
2, 8829, Note_on_c, 0, 56, 68
2, 8829, Note_on_c, 0, 63, 77
2, 8829, Note_on_c, 0, 60, 82
2, 8829, Note_on_c, 0, 90, 91
2, 8830, Note_on_c, 0, 67, 89
2, 8830, Note_on_c, 0, 96, 91
2, 8830, Note_on_c, 0, 84, 92
2, 8831, Control_c, 0, 64, 0
2, 8832, Note_on_c, 0, 94, 55
2, 8836, Note_on_c, 0, 94, 0
2, 8849, Control_c, 0, 64, 127
2, 8857, Note_on_c, 0, 90, 0
2, 8857, Note_on_c, 0, 91, 39
2, 8862, Note_on_c, 0, 91, 0
2, 8866, Note_on_c, 0, 96, 0
2, 8868, Note_on_c, 0, 56, 0
2, 8868, Note_on_c, 0, 84, 0
2, 8870, Note_on_c, 0, 67, 0
2, 8871, Note_on_c, 0, 60, 0
2, 8872, Note_on_c, 0, 63, 0
2, 8892, Note_on_c, 0, 56, 73
2, 8892, Note_on_c, 0, 82, 71
2, 8892, Note_on_c, 0, 94, 77
2, 8892, Note_on_c, 0, 67, 81
2, 8893, Note_on_c, 0, 62, 76
2, 8893, Note_on_c, 0, 89, 71
2, 8894, Control_c, 0, 64, 0
2, 8922, Control_c, 0, 64, 127
2, 8975, Note_on_c, 0, 67, 0
2, 8990, Note_on_c, 0, 62, 0
2, 9011, Note_on_c, 0, 89, 0
2, 9014, Note_on_c, 0, 56, 0
2, 9015, Note_on_c, 0, 94, 0
2, 9021, Note_on_c, 0, 82, 0
2, 9068, Note_on_c, 0, 56, 44
2, 9068, Note_on_c, 0, 62, 39
2, 9068, Note_on_c, 0, 92, 63
2, 9070, Note_on_c, 0, 80, 51
2, 9071, Note_on_c, 0, 87, 46
2, 9074, Note_on_c, 0, 62, 0
2, 9075, Note_on_c, 0, 87, 0
2, 9080, Note_on_c, 0, 80, 0
2, 9080, Note_on_c, 0, 92, 0
2, 9082, Note_on_c, 0, 56, 0
2, 9132, Note_on_c, 0, 83, 61
2, 9132, Note_on_c, 0, 91, 65
2, 9133, Note_on_c, 0, 51, 51
2, 9133, Note_on_c, 0, 86, 62
2, 9133, Note_on_c, 0, 79, 52
2, 9134, Control_c, 0, 64, 0
2, 9153, Control_c, 0, 64, 127
2, 9157, Note_on_c, 0, 91, 0
2, 9163, Note_on_c, 0, 86, 0
2, 9165, Note_on_c, 0, 83, 0
2, 9170, Note_on_c, 0, 79, 0
2, 9199, Note_on_c, 0, 67, 80
2, 9200, Note_on_c, 0, 59, 60
2, 9242, Note_on_c, 0, 67, 0
2, 9258, Note_on_c, 0, 74, 76
2, 9258, Note_on_c, 0, 67, 85
2, 9259, Note_on_c, 0, 63, 74
2, 9260, Note_on_c, 0, 62, 72
2, 9263, Control_c, 0, 64, 0
2, 9267, Note_on_c, 0, 59, 0
2, 9294, Control_c, 0, 64, 127
2, 9344, Note_on_c, 0, 62, 0
2, 9349, Note_on_c, 0, 59, 42
2, 9350, Note_on_c, 0, 63, 0
2, 9350, Note_on_c, 0, 74, 0
2, 9351, Note_on_c, 0, 67, 0
2, 9379, Note_on_c, 0, 59, 0
2, 9382, Note_on_c, 0, 60, 59
2, 9384, Note_on_c, 0, 63, 50
2, 9384, Note_on_c, 0, 72, 50
2, 9384, Note_on_c, 0, 67, 61
2, 9385, Control_c, 0, 64, 0
2, 9411, Control_c, 0, 64, 127
2, 9454, Note_on_c, 0, 67, 0
2, 9461, Note_on_c, 0, 63, 0
2, 9498, Note_on_c, 0, 72, 0
2, 9498, Note_on_c, 0, 63, 37
2, 9498, Note_on_c, 0, 67, 51
2, 9513, Note_on_c, 0, 63, 0
2, 9548, Note_on_c, 0, 67, 0
2, 9563, Note_on_c, 0, 60, 0
2, 9563, Note_on_c, 0, 51, 0
2, 9575, Note_on_c, 0, 67, 63
2, 9600, Note_on_c, 0, 68, 75
2, 9602, Note_on_c, 0, 67, 0
2, 9611, Note_on_c, 0, 68, 0
2, 9628, Note_on_c, 0, 56, 35
2, 9628, Note_on_c, 0, 60, 42
2, 9628, Note_on_c, 0, 50, 36
2, 9628, Control_c, 0, 64, 0
2, 9630, Note_on_c, 0, 72, 53
2, 9649, Note_on_c, 0, 72, 0
2, 9654, Note_on_c, 0, 77, 63
2, 9668, Note_on_c, 0, 77, 0
2, 9678, Note_on_c, 0, 79, 66
2, 9688, Note_on_c, 0, 79, 0
2, 9701, Note_on_c, 0, 80, 64
2, 9720, Note_on_c, 0, 80, 0
2, 9731, Note_on_c, 0, 79, 62
2, 9760, Control_c, 0, 64, 127
2, 9785, Note_on_c, 0, 50, 0
2, 9790, Note_on_c, 0, 56, 0
2, 9797, Note_on_c, 0, 60, 0
2, 9806, Note_on_c, 0, 79, 0
2, 9812, Note_on_c, 0, 77, 59
2, 9829, Note_on_c, 0, 77, 0
2, 9831, Note_on_c, 0, 75, 57
2, 9849, Note_on_c, 0, 75, 0
2, 9853, Note_on_c, 0, 74, 57
2, 9859, Note_on_c, 0, 59, 45
2, 9859, Note_on_c, 0, 64, 38
2, 9862, Note_on_c, 0, 53, 29
2, 9863, Control_c, 0, 64, 0
2, 9866, Note_on_c, 0, 74, 0
2, 9898, Note_on_c, 0, 74, 82
2, 9925, Note_on_c, 0, 73, 35
2, 9928, Note_on_c, 0, 74, 0
2, 9934, Note_on_c, 0, 72, 50
2, 9942, Note_on_c, 0, 73, 0
2, 9951, Note_on_c, 0, 71, 54
2, 9953, Note_on_c, 0, 72, 0
2, 9978, Note_on_c, 0, 64, 0
2, 9989, Note_on_c, 0, 64, 47
2, 9993, Control_c, 0, 64, 127
2, 10021, Note_on_c, 0, 64, 0
2, 10025, Note_on_c, 0, 71, 0
2, 10027, Note_on_c, 0, 59, 0
2, 10029, Note_on_c, 0, 68, 34
2, 10039, Note_on_c, 0, 53, 0
2, 10050, Note_on_c, 0, 68, 0
2, 10054, Note_on_c, 0, 67, 64
2, 10070, Note_on_c, 0, 67, 0
2, 10077, Note_on_c, 0, 65, 26
2, 10088, Note_on_c, 0, 65, 0
2, 10095, Note_on_c, 0, 48, 43
2, 10097, Note_on_c, 0, 67, 62
2, 10098, Control_c, 0, 64, 0
2, 10100, Note_on_c, 0, 55, 25
2, 10125, Control_c, 0, 64, 127
2, 10157, Note_on_c, 0, 55, 0
2, 10157, Note_on_c, 0, 48, 0
2, 10197, Note_on_c, 0, 67, 0
2, 10209, Note_on_c, 0, 47, 50
2, 10209, Note_on_c, 0, 67, 62
2, 10210, Note_on_c, 0, 57, 65
2, 10210, Note_on_c, 0, 62, 68
2, 10213, Control_c, 0, 64, 0
2, 10240, Control_c, 0, 64, 127
2, 10249, Note_on_c, 0, 67, 0
2, 10276, Note_on_c, 0, 67, 79
2, 10277, Note_on_c, 0, 47, 0
2, 10283, Note_on_c, 0, 62, 0
2, 10285, Note_on_c, 0, 57, 0
2, 10317, Note_on_c, 0, 67, 0
2, 10332, Note_on_c, 0, 67, 72
2, 10334, Note_on_c, 0, 61, 73
2, 10334, Note_on_c, 0, 56, 65
2, 10335, Note_on_c, 0, 46, 59
2, 10337, Control_c, 0, 64, 0
2, 10366, Control_c, 0, 64, 127
2, 10376, Note_on_c, 0, 67, 0
2, 10397, Note_on_c, 0, 67, 72
2, 10418, Note_on_c, 0, 56, 0
2, 10419, Note_on_c, 0, 67, 0
2, 10429, Note_on_c, 0, 61, 0
2, 10445, Note_on_c, 0, 46, 0
2, 10456, Note_on_c, 0, 67, 68
2, 10457, Note_on_c, 0, 60, 73
2, 10457, Note_on_c, 0, 45, 56
2, 10458, Note_on_c, 0, 55, 66
2, 10461, Control_c, 0, 64, 0
2, 10487, Control_c, 0, 64, 127
2, 10499, Note_on_c, 0, 45, 0
2, 10502, Note_on_c, 0, 67, 0
2, 10520, Note_on_c, 0, 67, 74
2, 10524, Note_on_c, 0, 55, 0
2, 10527, Note_on_c, 0, 60, 0
2, 10536, Note_on_c, 0, 67, 0
2, 10580, Note_on_c, 0, 64, 74
2, 10580, Note_on_c, 0, 72, 66
2, 10582, Note_on_c, 0, 44, 54
2, 10582, Note_on_c, 0, 60, 78
2, 10582, Note_on_c, 0, 52, 57
2, 10586, Control_c, 0, 64, 0
2, 10620, Control_c, 0, 64, 127
2, 10663, Note_on_c, 0, 64, 0
2, 10679, Note_on_c, 0, 60, 0
2, 10695, Note_on_c, 0, 52, 0
2, 10699, Note_on_c, 0, 53, 43
2, 10700, Note_on_c, 0, 65, 48
2, 10702, Note_on_c, 0, 60, 38
2, 10706, Control_c, 0, 64, 0
2, 10727, Control_c, 0, 64, 127
2, 10747, Note_on_c, 0, 44, 0
2, 10760, Note_on_c, 0, 72, 0
2, 10769, Note_on_c, 0, 53, 0
2, 10776, Note_on_c, 0, 65, 0
2, 10776, Note_on_c, 0, 60, 0
2, 10820, Note_on_c, 0, 64, 43
2, 10820, Note_on_c, 0, 67, 48
2, 10821, Note_on_c, 0, 58, 28
2, 10823, Note_on_c, 0, 48, 32
2, 10824, Note_on_c, 0, 55, 37
2, 10826, Control_c, 0, 64, 0
2, 10858, Control_c, 0, 64, 127
2, 10881, Note_on_c, 0, 55, 0
2, 10908, Note_on_c, 0, 58, 0
2, 10937, Note_on_c, 0, 55, 33
2, 10965, Note_on_c, 0, 67, 0
2, 10972, Note_on_c, 0, 64, 0
2, 10974, Note_on_c, 0, 55, 0
2, 10979, Note_on_c, 0, 48, 0
2, 10998, Note_on_c, 0, 72, 61
2, 11035, Note_on_c, 0, 72, 0
2, 11049, Note_on_c, 0, 61, 37
2, 11050, Note_on_c, 0, 51, 37
2, 11051, Note_on_c, 0, 68, 42
2, 11052, Note_on_c, 0, 65, 52
2, 11053, Note_on_c, 0, 57, 33
2, 11053, Note_on_c, 0, 47, 30
2, 11054, Control_c, 0, 64, 0
2, 11094, Control_c, 0, 64, 127
2, 11128, Note_on_c, 0, 57, 0
2, 11142, Note_on_c, 0, 61, 0
2, 11147, Note_on_c, 0, 51, 0
2, 11154, Note_on_c, 0, 65, 0
2, 11163, Note_on_c, 0, 68, 0
2, 11173, Note_on_c, 0, 51, 34
2, 11173, Note_on_c, 0, 57, 33
2, 11192, Note_on_c, 0, 47, 0
2, 11195, Note_on_c, 0, 51, 0
2, 11200, Note_on_c, 0, 57, 0
2, 11213, Note_on_c, 0, 79, 79
2, 11243, Note_on_c, 0, 79, 0
2, 11251, Note_on_c, 0, 75, 64
2, 11286, Note_on_c, 0, 75, 0
2, 11293, Note_on_c, 0, 73, 35
2, 11293, Note_on_c, 0, 66, 39
2, 11295, Note_on_c, 0, 62, 30
2, 11298, Note_on_c, 0, 56, 30
2, 11299, Control_c, 0, 64, 0
2, 11324, Control_c, 0, 64, 127
2, 11329, Note_on_c, 0, 73, 0
2, 11338, Note_on_c, 0, 82, 57
2, 11380, Note_on_c, 0, 66, 0
2, 11382, Note_on_c, 0, 62, 0
2, 11388, Note_on_c, 0, 82, 0
2, 11408, Note_on_c, 0, 78, 42
2, 11408, Note_on_c, 0, 66, 39
2, 11410, Note_on_c, 0, 73, 23
2, 11411, Note_on_c, 0, 62, 35
2, 11437, Note_on_c, 0, 73, 0
2, 11443, Note_on_c, 0, 78, 0
2, 11449, Note_on_c, 0, 85, 67
2, 11469, Note_on_c, 0, 85, 0
2, 11472, Note_on_c, 0, 66, 0
2, 11477, Note_on_c, 0, 62, 0
2, 11490, Note_on_c, 0, 56, 0
2, 11526, Note_on_c, 0, 91, 74
2, 11530, Note_on_c, 0, 55, 57
2, 11530, Note_on_c, 0, 86, 89
2, 11530, Note_on_c, 0, 62, 49
2, 11531, Note_on_c, 0, 60, 57
2, 11531, Note_on_c, 0, 65, 54
2, 11533, Note_on_c, 0, 79, 59
2, 11533, Control_c, 0, 64, 0
2, 11554, Control_c, 0, 64, 127
2, 11569, Note_on_c, 0, 60, 0
2, 11570, Note_on_c, 0, 55, 0
2, 11572, Note_on_c, 0, 91, 0
2, 11572, Note_on_c, 0, 79, 0
2, 11573, Note_on_c, 0, 86, 0
2, 11573, Note_on_c, 0, 65, 0
2, 11575, Note_on_c, 0, 62, 0
2, 11591, Note_on_c, 0, 91, 63
2, 11596, Note_on_c, 0, 65, 55
2, 11596, Note_on_c, 0, 60, 57
2, 11596, Note_on_c, 0, 86, 82
2, 11597, Note_on_c, 0, 62, 46
2, 11597, Note_on_c, 0, 55, 55
2, 11598, Note_on_c, 0, 79, 51
2, 11625, Note_on_c, 0, 55, 0
2, 11625, Note_on_c, 0, 65, 0
2, 11626, Note_on_c, 0, 60, 0
2, 11627, Note_on_c, 0, 86, 0
2, 11627, Note_on_c, 0, 62, 0
2, 11631, Note_on_c, 0, 79, 0
2, 11631, Note_on_c, 0, 91, 0
2, 11652, Note_on_c, 0, 91, 49
2, 11655, Note_on_c, 0, 65, 46
2, 11656, Note_on_c, 0, 62, 43
2, 11656, Note_on_c, 0, 60, 48
2, 11657, Note_on_c, 0, 55, 46
2, 11658, Note_on_c, 0, 86, 75
2, 11658, Control_c, 0, 64, 0
2, 11660, Note_on_c, 0, 79, 47
2, 11670, Control_c, 0, 64, 127
2, 11679, Note_on_c, 0, 60, 0
2, 11682, Note_on_c, 0, 65, 0
2, 11682, Note_on_c, 0, 91, 0
2, 11684, Note_on_c, 0, 55, 0
2, 11684, Note_on_c, 0, 62, 0
2, 11684, Note_on_c, 0, 86, 0
2, 11686, Note_on_c, 0, 79, 0
2, 11712, Note_on_c, 0, 91, 53
2, 11716, Note_on_c, 0, 65, 49
2, 11716, Note_on_c, 0, 55, 39
2, 11716, Note_on_c, 0, 86, 77
2, 11717, Note_on_c, 0, 60, 51
2, 11717, Note_on_c, 0, 62, 41
2, 11717, Note_on_c, 0, 79, 60
2, 11734, Note_on_c, 0, 91, 0
2, 11736, Note_on_c, 0, 86, 0
2, 11736, Note_on_c, 0, 62, 0
2, 11739, Note_on_c, 0, 79, 0
2, 11739, Note_on_c, 0, 55, 0
2, 11744, Note_on_c, 0, 60, 0
2, 11746, Note_on_c, 0, 65, 0
2, 11771, Note_on_c, 0, 92, 80
2, 11772, Control_c, 0, 64, 0
2, 11773, Note_on_c, 0, 56, 62
2, 11774, Note_on_c, 0, 87, 80
2, 11774, Note_on_c, 0, 60, 71
2, 11774, Note_on_c, 0, 63, 62
2, 11775, Note_on_c, 0, 67, 70
2, 11775, Note_on_c, 0, 80, 71
2, 11793, Control_c, 0, 64, 127
2, 11803, Note_on_c, 0, 80, 0
2, 11806, Note_on_c, 0, 92, 0
2, 11809, Note_on_c, 0, 60, 0
2, 11810, Note_on_c, 0, 87, 0
2, 11813, Note_on_c, 0, 67, 0
2, 11814, Note_on_c, 0, 56, 0
2, 11817, Note_on_c, 0, 63, 0
2, 11832, Note_on_c, 0, 56, 55
2, 11832, Note_on_c, 0, 94, 77
2, 11832, Note_on_c, 0, 67, 67
2, 11833, Note_on_c, 0, 63, 57
2, 11833, Note_on_c, 0, 60, 65
2, 11834, Note_on_c, 0, 87, 77
2, 11834, Note_on_c, 0, 82, 60
2, 11850, Note_on_c, 0, 94, 0
2, 11856, Note_on_c, 0, 87, 0
2, 11857, Note_on_c, 0, 82, 0
2, 11860, Note_on_c, 0, 60, 0
2, 11867, Note_on_c, 0, 56, 0
2, 11868, Note_on_c, 0, 67, 0
2, 11870, Note_on_c, 0, 63, 0
2, 11887, Note_on_c, 0, 56, 51
2, 11888, Note_on_c, 0, 91, 68
2, 11889, Note_on_c, 0, 67, 58
2, 11889, Note_on_c, 0, 63, 45
2, 11889, Note_on_c, 0, 86, 74
2, 11889, Note_on_c, 0, 79, 63
2, 11889, Control_c, 0, 64, 0
2, 11891, Note_on_c, 0, 60, 58
2, 11900, Control_c, 0, 64, 127
2, 11910, Note_on_c, 0, 91, 0
2, 11914, Note_on_c, 0, 79, 0
2, 11919, Note_on_c, 0, 86, 0
2, 11919, Note_on_c, 0, 56, 0
2, 11920, Note_on_c, 0, 67, 0
2, 11920, Note_on_c, 0, 60, 0
2, 11926, Note_on_c, 0, 63, 0
2, 11944, Note_on_c, 0, 56, 55
2, 11945, Note_on_c, 0, 63, 36
2, 11946, Note_on_c, 0, 67, 38
2, 11947, Note_on_c, 0, 92, 71
2, 11948, Note_on_c, 0, 80, 53
2, 11948, Note_on_c, 0, 86, 72
2, 11955, Note_on_c, 0, 67, 0
2, 11959, Note_on_c, 0, 80, 0
2, 11959, Note_on_c, 0, 63, 0
2, 11962, Note_on_c, 0, 86, 0
2, 11965, Note_on_c, 0, 56, 0
2, 11966, Note_on_c, 0, 92, 0
2, 12006, Note_on_c, 0, 63, 48
2, 12006, Note_on_c, 0, 94, 62
2, 12008, Note_on_c, 0, 87, 60
2, 12008, Note_on_c, 0, 59, 52
2, 12008, Note_on_c, 0, 53, 38
2, 12009, Note_on_c, 0, 83, 40
2, 12009, Control_c, 0, 64, 0
2, 12028, Control_c, 0, 64, 127
2, 12039, Note_on_c, 0, 94, 0
2, 12044, Note_on_c, 0, 87, 0
2, 12045, Note_on_c, 0, 59, 0
2, 12046, Note_on_c, 0, 63, 0
2, 12046, Note_on_c, 0, 53, 0
2, 12048, Note_on_c, 0, 83, 0
2, 12132, Note_on_c, 0, 70, 50
2, 12134, Note_on_c, 0, 63, 46
2, 12134, Note_on_c, 0, 53, 43
2, 12134, Note_on_c, 0, 67, 54
2, 12135, Note_on_c, 0, 59, 51
2, 12181, Note_on_c, 0, 53, 0
2, 12195, Note_on_c, 0, 67, 0
2, 12207, Note_on_c, 0, 59, 0
2, 12214, Note_on_c, 0, 70, 0
2, 12219, Note_on_c, 0, 63, 0
2, 12253, Note_on_c, 0, 48, 36
2, 12296, Control_c, 0, 64, 0
2, 12309, Control_c, 0, 64, 127
2, 12310, Note_on_c, 0, 58, 70
2, 12332, Note_on_c, 0, 48, 0
2, 12341, Note_on_c, 0, 58, 0
2, 12373, Note_on_c, 0, 48, 44
2, 12374, Control_c, 0, 64, 0
2, 12374, Note_on_c, 0, 55, 54
2, 12374, Note_on_c, 0, 60, 59
2, 12376, Note_on_c, 0, 58, 39
2, 12389, Control_c, 0, 64, 127
2, 12413, Note_on_c, 0, 60, 0
2, 12415, Note_on_c, 0, 58, 0
2, 12416, Note_on_c, 0, 55, 0
2, 12429, Note_on_c, 0, 48, 0
2, 12432, Note_on_c, 0, 63, 50
2, 12433, Note_on_c, 0, 51, 48
2, 12433, Note_on_c, 0, 55, 55
2, 12434, Note_on_c, 0, 58, 46
2, 12435, Note_on_c, 0, 60, 53
2, 12436, Control_c, 0, 64, 0
2, 12457, Control_c, 0, 64, 127
2, 12462, Note_on_c, 0, 60, 0
2, 12466, Note_on_c, 0, 55, 0
2, 12470, Note_on_c, 0, 58, 0
2, 12470, Note_on_c, 0, 63, 0
2, 12496, Note_on_c, 0, 53, 51
2, 12497, Note_on_c, 0, 65, 53
2, 12497, Note_on_c, 0, 56, 44
2, 12497, Control_c, 0, 64, 0
2, 12498, Note_on_c, 0, 51, 0
2, 12498, Note_on_c, 0, 63, 35
2, 12499, Note_on_c, 0, 60, 55
2, 12545, Note_on_c, 0, 41, 57
2, 12552, Note_on_c, 0, 60, 0
2, 12552, Note_on_c, 0, 56, 0
2, 12557, Note_on_c, 0, 65, 0
2, 12560, Note_on_c, 0, 63, 0
2, 12610, Note_on_c, 0, 41, 0
2, 12622, Note_on_c, 0, 53, 0
2, 12664, Note_on_c, 0, 56, 45
2, 12676, Control_c, 0, 64, 127
2, 12717, Note_on_c, 0, 56, 0
2, 12722, Note_on_c, 0, 55, 71
2, 12723, Note_on_c, 0, 49, 47
2, 12728, Control_c, 0, 64, 0
2, 12756, Control_c, 0, 64, 127
2, 12783, Note_on_c, 0, 55, 0
2, 12787, Note_on_c, 0, 58, 75
2, 12804, Note_on_c, 0, 58, 0
2, 12848, Note_on_c, 0, 64, 77
2, 12848, Note_on_c, 0, 58, 71
2, 12848, Note_on_c, 0, 61, 69
2, 12851, Control_c, 0, 64, 0
2, 12852, Note_on_c, 0, 52, 38
2, 12855, Note_on_c, 0, 49, 0
2, 12868, Control_c, 0, 64, 127
2, 12869, Note_on_c, 0, 64, 0
2, 12871, Note_on_c, 0, 58, 0
2, 12872, Note_on_c, 0, 61, 0
2, 12883, Note_on_c, 0, 52, 0
2, 12906, Note_on_c, 0, 61, 69
2, 12906, Note_on_c, 0, 67, 71
2, 12907, Note_on_c, 0, 70, 63
2, 12907, Note_on_c, 0, 64, 71
2, 12908, Note_on_c, 0, 55, 51
2, 12909, Control_c, 0, 64, 0
2, 12918, Control_c, 0, 64, 127
2, 12921, Note_on_c, 0, 55, 0
2, 12931, Note_on_c, 0, 67, 0
2, 12931, Note_on_c, 0, 64, 0
2, 12936, Note_on_c, 0, 61, 0
2, 12948, Note_on_c, 0, 70, 0
2, 12962, Control_c, 0, 64, 0
2, 12966, Note_on_c, 0, 63, 65
2, 12966, Note_on_c, 0, 53, 50
2, 12967, Note_on_c, 0, 68, 59
2, 12968, Note_on_c, 0, 60, 66
2, 12981, Note_on_c, 0, 60, 0
2, 12982, Control_c, 0, 64, 127
2, 12986, Note_on_c, 0, 63, 0
2, 12987, Note_on_c, 0, 68, 0
2, 13010, Note_on_c, 0, 53, 0
2, 13024, Control_c, 0, 64, 0
2, 13025, Note_on_c, 0, 56, 57
2, 13025, Note_on_c, 0, 75, 63
2, 13026, Note_on_c, 0, 68, 59
2, 13026, Note_on_c, 0, 72, 56
2, 13026, Note_on_c, 0, 65, 69
2, 13033, Control_c, 0, 64, 127
2, 13041, Note_on_c, 0, 65, 0
2, 13044, Note_on_c, 0, 72, 0
2, 13045, Note_on_c, 0, 68, 0
2, 13047, Note_on_c, 0, 75, 0
2, 13048, Note_on_c, 0, 56, 0
2, 13083, Control_c, 0, 64, 0
2, 13085, Note_on_c, 0, 72, 57
2, 13085, Note_on_c, 0, 79, 67
2, 13085, Note_on_c, 0, 75, 50
2, 13086, Note_on_c, 0, 63, 59
2, 13087, Note_on_c, 0, 68, 42
2, 13103, Control_c, 0, 64, 127
2, 13120, Note_on_c, 0, 63, 0
2, 13124, Note_on_c, 0, 68, 0
2, 13132, Note_on_c, 0, 72, 0
2, 13134, Note_on_c, 0, 75, 0
2, 13135, Note_on_c, 0, 79, 0
2, 13143, Note_on_c, 0, 63, 36
2, 13145, Note_on_c, 0, 68, 40
2, 13145, Note_on_c, 0, 72, 36
2, 13146, Note_on_c, 0, 77, 54
2, 13147, Note_on_c, 0, 75, 30
2, 13150, Note_on_c, 0, 68, 0
2, 13153, Note_on_c, 0, 72, 0
2, 13158, Note_on_c, 0, 75, 0
2, 13158, Note_on_c, 0, 63, 0
2, 13162, Note_on_c, 0, 77, 0
2, 13264, Note_on_c, 0, 67, 42
2, 13264, Note_on_c, 0, 56, 32
2, 13265, Note_on_c, 0, 83, 60
2, 13265, Control_c, 0, 64, 0
2, 13266, Note_on_c, 0, 62, 40
2, 13266, Note_on_c, 0, 71, 54
2, 13268, Note_on_c, 0, 79, 45
2, 13284, Control_c, 0, 64, 127
2, 13302, Note_on_c, 0, 71, 0
2, 13304, Note_on_c, 0, 79, 0
2, 13307, Note_on_c, 0, 62, 0
2, 13310, Note_on_c, 0, 83, 0
2, 13312, Note_on_c, 0, 67, 0
2, 13314, Note_on_c, 0, 56, 0
2, 13390, Note_on_c, 0, 67, 37
2, 13391, Note_on_c, 0, 62, 44
2, 13392, Note_on_c, 0, 56, 31
2, 13392, Note_on_c, 0, 86, 70
2, 13392, Note_on_c, 0, 74, 56
2, 13399, Note_on_c, 0, 74, 0
2, 13402, Note_on_c, 0, 56, 0
2, 13402, Note_on_c, 0, 67, 0
2, 13403, Note_on_c, 0, 62, 0
2, 13406, Note_on_c, 0, 86, 0
2, 13448, Control_c, 0, 64, 0
2, 13449, Note_on_c, 0, 63, 38
2, 13449, Note_on_c, 0, 67, 57
2, 13450, Note_on_c, 0, 56, 33
2, 13451, Note_on_c, 0, 60, 57
2, 13453, Note_on_c, 0, 92, 71
2, 13453, Note_on_c, 0, 80, 59
2, 13456, Control_c, 0, 64, 127
2, 13472, Note_on_c, 0, 80, 0
2, 13474, Note_on_c, 0, 56, 0
2, 13474, Note_on_c, 0, 92, 0
2, 13476, Note_on_c, 0, 67, 0
2, 13476, Note_on_c, 0, 60, 0
2, 13477, Note_on_c, 0, 63, 0
2, 13487, Note_on_c, 0, 94, 74
2, 13488, Note_on_c, 0, 67, 43
2, 13488, Note_on_c, 0, 56, 35
2, 13489, Note_on_c, 0, 82, 53
2, 13489, Note_on_c, 0, 63, 32
2, 13489, Note_on_c, 0, 60, 49
2, 13502, Note_on_c, 0, 94, 0
2, 13503, Note_on_c, 0, 82, 0
2, 13504, Note_on_c, 0, 67, 0
2, 13507, Note_on_c, 0, 56, 0
2, 13507, Note_on_c, 0, 60, 0
2, 13507, Note_on_c, 0, 63, 0
2, 13517, Control_c, 0, 64, 0
2, 13518, Note_on_c, 0, 92, 44
2, 13518, Note_on_c, 0, 67, 31
2, 13520, Note_on_c, 0, 63, 35
2, 13520, Note_on_c, 0, 60, 44
2, 13521, Note_on_c, 0, 80, 27
2, 13522, Note_on_c, 0, 56, 15
2, 13532, Note_on_c, 0, 80, 0
2, 13532, Note_on_c, 0, 92, 0
2, 13533, Note_on_c, 0, 67, 0
2, 13535, Note_on_c, 0, 60, 0
2, 13535, Note_on_c, 0, 56, 0
2, 13535, Note_on_c, 0, 63, 0
2, 13538, Control_c, 0, 64, 127
2, 13550, Note_on_c, 0, 94, 59
2, 13552, Note_on_c, 0, 82, 44
2, 13553, Note_on_c, 0, 67, 44
2, 13554, Note_on_c, 0, 63, 36
2, 13555, Note_on_c, 0, 56, 20
2, 13555, Note_on_c, 0, 60, 44
2, 13563, Note_on_c, 0, 94, 0
2, 13564, Note_on_c, 0, 82, 0
2, 13564, Note_on_c, 0, 67, 0
2, 13567, Note_on_c, 0, 63, 0
2, 13568, Note_on_c, 0, 60, 0
2, 13570, Note_on_c, 0, 56, 0
2, 13571, Control_c, 0, 64, 0
2, 13580, Note_on_c, 0, 92, 46
2, 13582, Note_on_c, 0, 67, 29
2, 13582, Note_on_c, 0, 56, 21
2, 13583, Note_on_c, 0, 60, 34
2, 13584, Note_on_c, 0, 63, 23
2, 13586, Note_on_c, 0, 80, 21
2, 13594, Note_on_c, 0, 80, 0
2, 13596, Note_on_c, 0, 67, 0
2, 13596, Note_on_c, 0, 63, 0
2, 13597, Note_on_c, 0, 60, 0
2, 13598, Note_on_c, 0, 56, 0
2, 13598, Note_on_c, 0, 92, 0
2, 13635, Control_c, 0, 64, 127
2, 13669, Note_on_c, 0, 63, 47
2, 13671, Note_on_c, 0, 56, 48
2, 13671, Note_on_c, 0, 92, 74
2, 13672, Note_on_c, 0, 67, 36
2, 13673, Note_on_c, 0, 80, 67
2, 13677, Note_on_c, 0, 67, 0
2, 13677, Note_on_c, 0, 90, 34
2, 13682, Note_on_c, 0, 90, 0
2, 13682, Note_on_c, 0, 63, 0
2, 13687, Note_on_c, 0, 80, 0
2, 13690, Note_on_c, 0, 92, 0
2, 13690, Note_on_c, 0, 56, 0
2, 13697, Note_on_c, 0, 64, 45
2, 13698, Control_c, 0, 64, 0
2, 13699, Note_on_c, 0, 55, 37
2, 13700, Note_on_c, 0, 58, 23
2, 13700, Note_on_c, 0, 61, 31
2, 13701, Note_on_c, 0, 91, 50
2, 13701, Note_on_c, 0, 79, 56
2, 13707, Note_on_c, 0, 64, 0
2, 13708, Note_on_c, 0, 61, 0
2, 13709, Note_on_c, 0, 55, 0
2, 13709, Note_on_c, 0, 79, 0
2, 13710, Note_on_c, 0, 91, 0
2, 13711, Note_on_c, 0, 58, 0
2, 13735, Note_on_c, 0, 80, 56
2, 13735, Note_on_c, 0, 92, 65
2, 13735, Note_on_c, 0, 64, 43
2, 13736, Note_on_c, 0, 58, 28
2, 13736, Note_on_c, 0, 61, 34
2, 13741, Note_on_c, 0, 64, 0
2, 13743, Note_on_c, 0, 80, 0
2, 13743, Note_on_c, 0, 92, 0
2, 13745, Note_on_c, 0, 58, 0
2, 13746, Note_on_c, 0, 61, 0
2, 13757, Note_on_c, 0, 58, 34
2, 13757, Note_on_c, 0, 61, 40
2, 13757, Note_on_c, 0, 64, 31
2, 13759, Note_on_c, 0, 82, 52
2, 13759, Note_on_c, 0, 94, 62
2, 13760, Note_on_c, 0, 55, 27
2, 13763, Control_c, 0, 64, 127
2, 13774, Note_on_c, 0, 94, 0
2, 13779, Note_on_c, 0, 82, 0
2, 13780, Note_on_c, 0, 61, 0
2, 13782, Note_on_c, 0, 58, 0
2, 13784, Note_on_c, 0, 55, 0
2, 13784, Note_on_c, 0, 64, 0
2, 13809, Control_c, 0, 64, 0
2, 13813, Note_on_c, 0, 79, 37
2, 13813, Note_on_c, 0, 91, 45
2, 13814, Note_on_c, 0, 61, 32
2, 13815, Note_on_c, 0, 64, 36
2, 13816, Note_on_c, 0, 55, 32
2, 13816, Note_on_c, 0, 58, 30
2, 13832, Control_c, 0, 64, 127
2, 13878, Note_on_c, 0, 64, 0
2, 13880, Note_on_c, 0, 55, 0
2, 13884, Note_on_c, 0, 61, 0
2, 13885, Note_on_c, 0, 58, 0
2, 13897, Note_on_c, 0, 91, 0
2, 13898, Note_on_c, 0, 79, 0
2, 13910, Note_on_c, 0, 87, 77
2, 13927, Note_on_c, 0, 87, 0
2, 13934, Note_on_c, 0, 63, 43
2, 13934, Note_on_c, 0, 60, 54
2, 13936, Control_c, 0, 64, 0
2, 13936, Note_on_c, 0, 53, 36
2, 13936, Note_on_c, 0, 89, 68
2, 13939, Note_on_c, 0, 58, 27
2, 13956, Note_on_c, 0, 89, 0
2, 13973, Note_on_c, 0, 91, 68
2, 13983, Note_on_c, 0, 91, 0
2, 13998, Note_on_c, 0, 84, 58
2, 14005, Note_on_c, 0, 84, 0
2, 14035, Note_on_c, 0, 85, 60
2, 14043, Note_on_c, 0, 85, 0
2, 14090, Note_on_c, 0, 84, 58
2, 14105, Note_on_c, 0, 84, 0
2, 14110, Note_on_c, 0, 86, 84
2, 14121, Note_on_c, 0, 86, 0
2, 14130, Note_on_c, 0, 87, 73
2, 14133, Note_on_c, 0, 53, 0
2, 14134, Note_on_c, 0, 60, 0
2, 14136, Note_on_c, 0, 58, 0
2, 14142, Note_on_c, 0, 63, 0
2, 14144, Note_on_c, 0, 87, 0
2, 14166, Control_c, 0, 64, 127
2, 14176, Control_c, 0, 64, 0
2, 14178, Note_on_c, 0, 80, 59
2, 14179, Note_on_c, 0, 67, 48
2, 14180, Note_on_c, 0, 63, 32
2, 14181, Note_on_c, 0, 60, 53
2, 14183, Note_on_c, 0, 56, 25
2, 14193, Note_on_c, 0, 80, 0
2, 14199, Note_on_c, 0, 82, 58
2, 14212, Note_on_c, 0, 82, 0
2, 14218, Note_on_c, 0, 84, 63
2, 14229, Note_on_c, 0, 84, 0
2, 14263, Note_on_c, 0, 77, 45
2, 14275, Note_on_c, 0, 77, 0
2, 14281, Note_on_c, 0, 79, 57
2, 14289, Note_on_c, 0, 67, 0
2, 14292, Note_on_c, 0, 79, 0
2, 14294, Note_on_c, 0, 56, 0
2, 14295, Note_on_c, 0, 63, 0
2, 14299, Note_on_c, 0, 80, 59
2, 14300, Note_on_c, 0, 60, 0
2, 14309, Note_on_c, 0, 80, 0
2, 14354, Control_c, 0, 64, 127
2, 14376, Note_on_c, 0, 81, 65
2, 14390, Note_on_c, 0, 81, 0
2, 14407, Note_on_c, 0, 82, 59
2, 14408, Note_on_c, 0, 65, 37
2, 14408, Control_c, 0, 64, 0
2, 14409, Note_on_c, 0, 58, 36
2, 14409, Note_on_c, 0, 62, 39
2, 14410, Note_on_c, 0, 55, 29
2, 14435, Control_c, 0, 64, 127
2, 14466, Note_on_c, 0, 70, 46
2, 14475, Note_on_c, 0, 65, 0
2, 14485, Note_on_c, 0, 62, 0
2, 14485, Note_on_c, 0, 58, 0
2, 14507, Note_on_c, 0, 70, 0
2, 14527, Note_on_c, 0, 70, 47
2, 14527, Note_on_c, 0, 65, 39
2, 14531, Note_on_c, 0, 58, 26
2, 14532, Note_on_c, 0, 62, 24
2, 14546, Note_on_c, 0, 82, 0
2, 14552, Note_on_c, 0, 55, 0
2, 14556, Note_on_c, 0, 65, 0
2, 14558, Note_on_c, 0, 70, 0
2, 14580, Note_on_c, 0, 62, 0
2, 14585, Note_on_c, 0, 55, 62
2, 14592, Note_on_c, 0, 58, 0
2, 14601, Note_on_c, 0, 55, 0
2, 14647, Note_on_c, 0, 53, 53
2, 14648, Note_on_c, 0, 68, 71
2, 14649, Note_on_c, 0, 63, 79
2, 14649, Note_on_c, 0, 60, 78
2, 14653, Control_c, 0, 64, 0
2, 14676, Control_c, 0, 64, 127
2, 14689, Note_on_c, 0, 68, 0
2, 14694, Note_on_c, 0, 60, 0
2, 14701, Note_on_c, 0, 63, 0
2, 14707, Note_on_c, 0, 53, 0
2, 14709, Note_on_c, 0, 63, 53
2, 14709, Note_on_c, 0, 70, 70
2, 14711, Note_on_c, 0, 55, 46
2, 14712, Note_on_c, 0, 60, 62
2, 14726, Note_on_c, 0, 55, 0
2, 14730, Note_on_c, 0, 70, 0
2, 14734, Note_on_c, 0, 60, 0
2, 14737, Note_on_c, 0, 63, 0
2, 14769, Note_on_c, 0, 63, 55
2, 14769, Note_on_c, 0, 67, 66
2, 14772, Note_on_c, 0, 59, 52
2, 14773, Control_c, 0, 64, 0
2, 14773, Note_on_c, 0, 56, 35
2, 14794, Control_c, 0, 64, 127
2, 14799, Note_on_c, 0, 67, 0
2, 14820, Note_on_c, 0, 59, 0
2, 14822, Note_on_c, 0, 63, 0
2, 14827, Note_on_c, 0, 46, 45
2, 14827, Note_on_c, 0, 68, 67
2, 14841, Note_on_c, 0, 56, 0
2, 14848, Note_on_c, 0, 46, 0
2, 14853, Note_on_c, 0, 68, 0
2, 14945, Note_on_c, 0, 55, 57
2, 14945, Note_on_c, 0, 60, 62
2, 14946, Note_on_c, 0, 70, 60
2, 14947, Note_on_c, 0, 65, 65
2, 14950, Control_c, 0, 64, 0
2, 14976, Control_c, 0, 64, 127
2, 14995, Note_on_c, 0, 70, 0
2, 15010, Note_on_c, 0, 70, 72
2, 15023, Note_on_c, 0, 60, 0
2, 15030, Note_on_c, 0, 70, 0
2, 15031, Note_on_c, 0, 55, 0
2, 15032, Note_on_c, 0, 65, 0
2, 15061, Note_on_c, 0, 75, 77
2, 15089, Note_on_c, 0, 75, 0
2, 15123, Note_on_c, 0, 75, 47
2, 15124, Note_on_c, 0, 61, 42
2, 15125, Note_on_c, 0, 67, 54
2, 15126, Control_c, 0, 64, 0
2, 15127, Note_on_c, 0, 55, 42
2, 15128, Note_on_c, 0, 45, 35
2, 15161, Control_c, 0, 64, 127
2, 15178, Note_on_c, 0, 73, 1
2, 15183, Note_on_c, 0, 67, 0
2, 15186, Note_on_c, 0, 55, 0
2, 15203, Note_on_c, 0, 61, 0
2, 15208, Note_on_c, 0, 75, 0
2, 15228, Note_on_c, 0, 73, 0
2, 15247, Note_on_c, 0, 61, 32
2, 15248, Note_on_c, 0, 67, 39
2, 15250, Note_on_c, 0, 55, 27
2, 15261, Note_on_c, 0, 61, 0
2, 15263, Note_on_c, 0, 67, 0
2, 15287, Note_on_c, 0, 55, 0
2, 15298, Note_on_c, 0, 45, 0
2, 15310, Note_on_c, 0, 85, 55
2, 15328, Note_on_c, 0, 85, 0
2, 15368, Note_on_c, 0, 60, 60
2, 15368, Note_on_c, 0, 55, 62
2, 15368, Note_on_c, 0, 58, 49
2, 15452, Control_c, 0, 64, 127
2, 15478, Note_on_c, 0, 55, 0
2, 15480, Note_on_c, 0, 60, 0
2, 15484, Note_on_c, 0, 58, 0
2, 15495, Note_on_c, 0, 58, 48
2, 15496, Note_on_c, 0, 55, 62
2, 15496, Note_on_c, 0, 60, 58
2, 15498, Control_c, 0, 64, 0
2, 15539, Control_c, 0, 64, 127
2, 15583, Note_on_c, 0, 55, 0
2, 15596, Note_on_c, 0, 58, 0
2, 15603, Note_on_c, 0, 60, 0
2, 15611, Note_on_c, 0, 56, 56
2, 15612, Note_on_c, 0, 58, 53
2, 15612, Note_on_c, 0, 62, 59
2, 15615, Control_c, 0, 64, 0
2, 15673, Control_c, 0, 64, 127
2, 15711, Note_on_c, 0, 56, 0
2, 15714, Note_on_c, 0, 58, 0
2, 15716, Note_on_c, 0, 62, 0
2, 15736, Note_on_c, 0, 56, 39
2, 15737, Note_on_c, 0, 62, 55
2, 15737, Note_on_c, 0, 58, 42
2, 15781, Note_on_c, 0, 56, 0
2, 15792, Note_on_c, 0, 62, 0
2, 15800, Note_on_c, 0, 58, 0
2, 15848, Note_on_c, 0, 62, 55
2, 15849, Note_on_c, 0, 53, 48
2, 15849, Note_on_c, 0, 55, 57
2, 15849, Note_on_c, 0, 58, 50
2, 15849, Control_c, 0, 64, 0
2, 15893, Control_c, 0, 64, 127
2, 15918, Note_on_c, 0, 55, 0
2, 15922, Note_on_c, 0, 53, 0
2, 15924, Note_on_c, 0, 62, 0
2, 15929, Note_on_c, 0, 58, 0
2, 15971, Note_on_c, 0, 58, 62
2, 15971, Note_on_c, 0, 65, 65
2, 15971, Note_on_c, 0, 62, 64
2, 15972, Note_on_c, 0, 55, 68
2, 16025, Note_on_c, 0, 62, 0
2, 16030, Note_on_c, 0, 55, 0
2, 16030, Note_on_c, 0, 65, 0
2, 16039, Note_on_c, 0, 58, 0
2, 16080, Control_c, 0, 64, 0
2, 16084, Note_on_c, 0, 63, 43
2, 16086, Note_on_c, 0, 55, 39
2, 16086, Note_on_c, 0, 60, 53
2, 16087, Note_on_c, 0, 58, 34
2, 16139, Control_c, 0, 64, 127
2, 16156, Note_on_c, 0, 60, 0
2, 16160, Note_on_c, 0, 55, 0
2, 16162, Note_on_c, 0, 58, 0
2, 16200, Note_on_c, 0, 55, 55
2, 16200, Note_on_c, 0, 58, 39
2, 16202, Control_c, 0, 64, 0
2, 16203, Note_on_c, 0, 60, 49
2, 16223, Control_c, 0, 64, 127
2, 16265, Note_on_c, 0, 55, 0
2, 16276, Note_on_c, 0, 60, 0
2, 16280, Note_on_c, 0, 58, 0
2, 16301, Note_on_c, 0, 63, 0
2, 16320, Control_c, 0, 64, 0
2, 16320, Note_on_c, 0, 56, 54
2, 16320, Note_on_c, 0, 63, 46
2, 16321, Note_on_c, 0, 60, 65
2, 16366, Control_c, 0, 64, 127
2, 16387, Note_on_c, 0, 56, 0
2, 16392, Note_on_c, 0, 60, 0
2, 16416, Note_on_c, 0, 63, 0
2, 16441, Note_on_c, 0, 63, 49
2, 16442, Note_on_c, 0, 60, 68
2, 16442, Note_on_c, 0, 56, 56
2, 16443, Note_on_c, 0, 55, 66
2, 16451, Control_c, 0, 64, 0
2, 16500, Control_c, 0, 64, 127
2, 16516, Note_on_c, 0, 55, 0
2, 16517, Note_on_c, 0, 60, 0
2, 16519, Note_on_c, 0, 56, 0
2, 16526, Note_on_c, 0, 63, 0
2, 16566, Note_on_c, 0, 67, 80
2, 16567, Note_on_c, 0, 63, 57
2, 16568, Note_on_c, 0, 60, 74
2, 16568, Note_on_c, 0, 56, 58
2, 16571, Control_c, 0, 64, 0
2, 16610, Control_c, 0, 64, 127
2, 16657, Note_on_c, 0, 56, 0
2, 16658, Note_on_c, 0, 63, 0
2, 16659, Note_on_c, 0, 60, 0
2, 16668, Note_on_c, 0, 67, 0
2, 16690, Note_on_c, 0, 56, 46
2, 16691, Note_on_c, 0, 65, 55
2, 16691, Note_on_c, 0, 60, 52
2, 16692, Control_c, 0, 64, 0
2, 16695, Note_on_c, 0, 63, 26
2, 16715, Control_c, 0, 64, 127
2, 16733, Note_on_c, 0, 56, 0
2, 16735, Note_on_c, 0, 60, 0
2, 16751, Note_on_c, 0, 63, 0
2, 16776, Note_on_c, 0, 65, 0
2, 16806, Note_on_c, 0, 64, 54
2, 16806, Note_on_c, 0, 59, 48
2, 16806, Note_on_c, 0, 67, 45
2, 16807, Note_on_c, 0, 53, 37
2, 16809, Control_c, 0, 64, 0
2, 16852, Control_c, 0, 64, 127
2, 16904, Note_on_c, 0, 59, 0
2, 16924, Note_on_c, 0, 64, 0
2, 16927, Note_on_c, 0, 59, 58
2, 16928, Note_on_c, 0, 63, 47
2, 16934, Control_c, 0, 64, 0
2, 16957, Control_c, 0, 64, 127
2, 17011, Note_on_c, 0, 59, 0
2, 17030, Note_on_c, 0, 63, 0
2, 17037, Note_on_c, 0, 67, 0
2, 17037, Note_on_c, 0, 53, 0
2, 17048, Note_on_c, 0, 67, 24
2, 17049, Note_on_c, 0, 62, 55
2, 17049, Note_on_c, 0, 58, 44
2, 17050, Control_c, 0, 64, 0
2, 17051, Note_on_c, 0, 48, 34
2, 17098, Control_c, 0, 64, 127
2, 17140, Note_on_c, 0, 62, 0
2, 17145, Note_on_c, 0, 58, 0
2, 17153, Note_on_c, 0, 48, 0
2, 17166, Note_on_c, 0, 58, 42
2, 17167, Note_on_c, 0, 61, 52
2, 17167, Note_on_c, 0, 48, 34
2, 17173, Control_c, 0, 64, 0
2, 17195, Control_c, 0, 64, 127
2, 17258, Note_on_c, 0, 67, 0
2, 17260, Control_c, 0, 64, 0
2, 17268, Note_on_c, 0, 48, 0
2, 17271, Note_on_c, 0, 58, 0
2, 17274, Note_on_c, 0, 61, 0
2, 17294, Note_on_c, 0, 65, 35
2, 17295, Control_c, 0, 64, 0
2, 17295, Note_on_c, 0, 68, 46
2, 17297, Note_on_c, 0, 63, 23
2, 17298, Note_on_c, 0, 56, 25
2, 17300, Note_on_c, 0, 53, 20
2, 17300, Note_on_c, 0, 60, 35
2, 17341, Control_c, 0, 64, 127
2, 17368, Note_on_c, 0, 63, 0
2, 17374, Note_on_c, 0, 60, 0
2, 17380, Note_on_c, 0, 56, 0
2, 17416, Note_on_c, 0, 63, 30
2, 17418, Note_on_c, 0, 60, 38
2, 17419, Note_on_c, 0, 56, 25
2, 17427, Note_on_c, 0, 65, 0
2, 17439, Note_on_c, 0, 68, 0
2, 17442, Note_on_c, 0, 60, 0
2, 17447, Note_on_c, 0, 63, 0
2, 17448, Note_on_c, 0, 53, 0
2, 17450, Note_on_c, 0, 56, 0
2, 17531, Note_on_c, 0, 82, 77
2, 17533, Note_on_c, 0, 58, 62
2, 17534, Control_c, 0, 64, 0
2, 17535, Note_on_c, 0, 76, 73
2, 17535, Note_on_c, 0, 70, 80
2, 17535, Note_on_c, 0, 64, 51
2, 17555, Control_c, 0, 64, 127
2, 17560, Note_on_c, 0, 76, 0
2, 17565, Note_on_c, 0, 70, 0
2, 17567, Note_on_c, 0, 82, 0
2, 17592, Note_on_c, 0, 84, 80
2, 17595, Note_on_c, 0, 64, 0
2, 17605, Note_on_c, 0, 84, 0
2, 17649, Note_on_c, 0, 80, 56
2, 17650, Note_on_c, 0, 64, 44
2, 17651, Note_on_c, 0, 68, 34
2, 17668, Note_on_c, 0, 64, 0
2, 17670, Note_on_c, 0, 58, 0
2, 17672, Note_on_c, 0, 68, 0
2, 17677, Note_on_c, 0, 80, 0
2, 17708, Note_on_c, 0, 82, 57
2, 17710, Note_on_c, 0, 70, 37
2, 17710, Note_on_c, 0, 64, 41
2, 17711, Note_on_c, 0, 58, 34
2, 17718, Note_on_c, 0, 64, 0
2, 17719, Note_on_c, 0, 58, 0
2, 17722, Note_on_c, 0, 70, 0
2, 17729, Note_on_c, 0, 82, 0
2, 17769, Note_on_c, 0, 84, 57
2, 17770, Note_on_c, 0, 80, 32
2, 17770, Control_c, 0, 64, 0
2, 17771, Note_on_c, 0, 67, 40
2, 17771, Note_on_c, 0, 56, 23
2, 17772, Note_on_c, 0, 63, 34
2, 17772, Note_on_c, 0, 77, 39
2, 17773, Note_on_c, 0, 72, 30
2, 17773, Note_on_c, 0, 60, 46
2, 17821, Control_c, 0, 64, 127
2, 17833, Control_c, 0, 64, 0
2, 17888, Control_c, 0, 64, 127
2, 17916, Note_on_c, 0, 60, 0
2, 17920, Note_on_c, 0, 63, 0
2, 17921, Note_on_c, 0, 67, 0
2, 17924, Note_on_c, 0, 56, 0
2, 17947, Note_on_c, 0, 72, 0
2, 17949, Note_on_c, 0, 77, 0
2, 17949, Note_on_c, 0, 67, 35
2, 17952, Note_on_c, 0, 80, 0
2, 17952, Note_on_c, 0, 60, 42
2, 17952, Note_on_c, 0, 63, 23
2, 17955, Note_on_c, 0, 56, 14
2, 17957, Note_on_c, 0, 84, 0
2, 17961, Note_on_c, 0, 67, 0
2, 17968, Note_on_c, 0, 63, 0
2, 17975, Note_on_c, 0, 56, 0
2, 17981, Note_on_c, 0, 60, 0
2, 18013, Note_on_c, 0, 62, 68
2, 18014, Note_on_c, 0, 66, 74
2, 18014, Note_on_c, 0, 86, 94
2, 18014, Control_c, 0, 64, 0
2, 18014, Note_on_c, 0, 56, 69
2, 18014, Note_on_c, 0, 79, 84
2, 18014, Note_on_c, 0, 74, 81
2, 18034, Control_c, 0, 64, 127
2, 18048, Note_on_c, 0, 74, 0
2, 18048, Note_on_c, 0, 86, 0
2, 18056, Note_on_c, 0, 66, 0
2, 18057, Note_on_c, 0, 56, 0
2, 18059, Note_on_c, 0, 79, 0
2, 18065, Note_on_c, 0, 62, 0
2, 18074, Note_on_c, 0, 66, 61
2, 18074, Note_on_c, 0, 87, 81
2, 18074, Note_on_c, 0, 56, 61
2, 18074, Note_on_c, 0, 62, 48
2, 18075, Note_on_c, 0, 75, 74
2, 18076, Note_on_c, 0, 79, 75
2, 18096, Note_on_c, 0, 87, 0
2, 18099, Note_on_c, 0, 75, 0
2, 18104, Note_on_c, 0, 79, 0
2, 18107, Note_on_c, 0, 66, 0
2, 18110, Note_on_c, 0, 56, 0
2, 18115, Note_on_c, 0, 62, 0
2, 18132, Control_c, 0, 64, 0
2, 18132, Note_on_c, 0, 66, 67
2, 18133, Note_on_c, 0, 84, 73
2, 18133, Note_on_c, 0, 56, 63
2, 18134, Note_on_c, 0, 79, 65
2, 18134, Note_on_c, 0, 72, 62
2, 18134, Note_on_c, 0, 62, 58
2, 18145, Control_c, 0, 64, 127
2, 18160, Note_on_c, 0, 84, 0
2, 18164, Note_on_c, 0, 72, 0
2, 18166, Note_on_c, 0, 56, 0
2, 18167, Note_on_c, 0, 79, 0
2, 18168, Note_on_c, 0, 66, 0
2, 18178, Note_on_c, 0, 62, 0
2, 18191, Note_on_c, 0, 66, 61
2, 18191, Note_on_c, 0, 56, 61
2, 18191, Note_on_c, 0, 86, 80
2, 18191, Note_on_c, 0, 79, 68
2, 18193, Note_on_c, 0, 62, 47
2, 18193, Note_on_c, 0, 74, 65
2, 18214, Note_on_c, 0, 74, 0
2, 18215, Note_on_c, 0, 66, 0
2, 18216, Note_on_c, 0, 79, 0
2, 18217, Note_on_c, 0, 86, 0
2, 18219, Note_on_c, 0, 62, 0
2, 18221, Note_on_c, 0, 56, 0
2, 18245, Control_c, 0, 64, 0
2, 18249, Note_on_c, 0, 62, 47
2, 18250, Note_on_c, 0, 65, 66
2, 18250, Note_on_c, 0, 87, 74
2, 18251, Note_on_c, 0, 60, 59
2, 18251, Note_on_c, 0, 75, 76
2, 18251, Note_on_c, 0, 82, 74
2, 18252, Note_on_c, 0, 55, 61
2, 18262, Control_c, 0, 64, 127
2, 18277, Note_on_c, 0, 82, 0
2, 18280, Note_on_c, 0, 87, 0
2, 18282, Note_on_c, 0, 75, 0
2, 18285, Note_on_c, 0, 60, 0
2, 18285, Note_on_c, 0, 55, 0
2, 18288, Note_on_c, 0, 65, 0
2, 18291, Note_on_c, 0, 62, 0
2, 18309, Note_on_c, 0, 62, 53
2, 18309, Note_on_c, 0, 65, 64
2, 18309, Note_on_c, 0, 60, 66
2, 18310, Note_on_c, 0, 89, 77
2, 18310, Note_on_c, 0, 55, 64
2, 18311, Note_on_c, 0, 77, 66
2, 18311, Note_on_c, 0, 84, 72
2, 18313, Note_on_c, 0, 87, 37
2, 18318, Note_on_c, 0, 87, 0
2, 18330, Note_on_c, 0, 89, 0
2, 18331, Note_on_c, 0, 84, 0
2, 18337, Note_on_c, 0, 77, 0
2, 18343, Note_on_c, 0, 60, 0
2, 18343, Note_on_c, 0, 55, 0
2, 18349, Note_on_c, 0, 65, 0
2, 18350, Note_on_c, 0, 62, 0
2, 18365, Control_c, 0, 64, 0
2, 18365, Note_on_c, 0, 86, 73
2, 18365, Note_on_c, 0, 65, 66
2, 18365, Note_on_c, 0, 62, 65
2, 18365, Note_on_c, 0, 55, 66
2, 18366, Note_on_c, 0, 60, 67
2, 18366, Note_on_c, 0, 81, 73
2, 18367, Note_on_c, 0, 74, 69
2, 18379, Control_c, 0, 64, 127
2, 18390, Note_on_c, 0, 86, 0
2, 18394, Note_on_c, 0, 74, 0
2, 18399, Note_on_c, 0, 60, 0
2, 18401, Note_on_c, 0, 81, 0
2, 18402, Note_on_c, 0, 55, 0
2, 18403, Note_on_c, 0, 65, 0
2, 18408, Note_on_c, 0, 62, 0
2, 18425, Note_on_c, 0, 87, 76
2, 18425, Note_on_c, 0, 62, 64
2, 18425, Note_on_c, 0, 65, 67
2, 18425, Note_on_c, 0, 75, 68
2, 18426, Note_on_c, 0, 81, 74
2, 18426, Note_on_c, 0, 55, 68
2, 18427, Note_on_c, 0, 60, 68
2, 18445, Note_on_c, 0, 81, 0
2, 18449, Note_on_c, 0, 75, 0
2, 18453, Note_on_c, 0, 87, 0
2, 18454, Note_on_c, 0, 60, 0
2, 18455, Note_on_c, 0, 55, 0
2, 18459, Note_on_c, 0, 62, 0
2, 18461, Note_on_c, 0, 65, 0
2, 18483, Control_c, 0, 64, 0
2, 18484, Note_on_c, 0, 62, 70
2, 18484, Note_on_c, 0, 89, 82
2, 18484, Note_on_c, 0, 60, 68
2, 18484, Note_on_c, 0, 55, 71
2, 18485, Note_on_c, 0, 84, 85
2, 18485, Note_on_c, 0, 65, 64
2, 18485, Note_on_c, 0, 77, 76
2, 18502, Control_c, 0, 64, 127
2, 18520, Note_on_c, 0, 77, 0
2, 18521, Note_on_c, 0, 89, 0
2, 18523, Note_on_c, 0, 55, 0
2, 18525, Note_on_c, 0, 84, 0
2, 18525, Note_on_c, 0, 60, 0
2, 18526, Note_on_c, 0, 65, 0
2, 18528, Note_on_c, 0, 62, 0
2, 18541, Note_on_c, 0, 65, 56
2, 18541, Note_on_c, 0, 91, 68
2, 18542, Note_on_c, 0, 62, 44
2, 18542, Note_on_c, 0, 55, 47
2, 18543, Note_on_c, 0, 84, 61
2, 18544, Note_on_c, 0, 60, 53
2, 18544, Note_on_c, 0, 79, 51
2, 18556, Note_on_c, 0, 91, 0
2, 18558, Note_on_c, 0, 84, 0
2, 18560, Note_on_c, 0, 79, 0
2, 18565, Note_on_c, 0, 60, 0
2, 18570, Note_on_c, 0, 55, 0
2, 18573, Note_on_c, 0, 62, 0
2, 18576, Note_on_c, 0, 65, 0
2, 18601, Note_on_c, 0, 65, 54
2, 18602, Note_on_c, 0, 87, 59
2, 18603, Note_on_c, 0, 62, 47
2, 18603, Note_on_c, 0, 75, 52
2, 18604, Note_on_c, 0, 60, 52
2, 18604, Note_on_c, 0, 55, 41
2, 18605, Control_c, 0, 64, 0
2, 18618, Control_c, 0, 64, 127
2, 18624, Note_on_c, 0, 60, 0
2, 18627, Note_on_c, 0, 87, 0
2, 18628, Note_on_c, 0, 75, 0
2, 18632, Note_on_c, 0, 65, 0
2, 18633, Note_on_c, 0, 62, 0
2, 18634, Note_on_c, 0, 55, 0
2, 18661, Note_on_c, 0, 55, 45
2, 18661, Note_on_c, 0, 89, 54
2, 18661, Note_on_c, 0, 62, 44
2, 18662, Note_on_c, 0, 77, 38
2, 18663, Note_on_c, 0, 65, 48
2, 18668, Note_on_c, 0, 60, 20
2, 18676, Note_on_c, 0, 62, 0
2, 18677, Note_on_c, 0, 55, 0
2, 18680, Note_on_c, 0, 77, 0
2, 18680, Note_on_c, 0, 89, 0
2, 18681, Note_on_c, 0, 60, 0
2, 18683, Note_on_c, 0, 65, 0
2, 18714, Control_c, 0, 64, 0
2, 18718, Note_on_c, 0, 56, 36
2, 18719, Note_on_c, 0, 91, 54
2, 18720, Note_on_c, 0, 63, 36
2, 18720, Note_on_c, 0, 67, 46
2, 18721, Note_on_c, 0, 79, 33
2, 18722, Note_on_c, 0, 60, 51
2, 18722, Note_on_c, 0, 84, 36
2, 18723, Note_on_c, 0, 87, 30
2, 18736, Control_c, 0, 64, 127
2, 18747, Note_on_c, 0, 91, 0
2, 18751, Note_on_c, 0, 79, 0
2, 18753, Note_on_c, 0, 60, 0
2, 18753, Note_on_c, 0, 87, 0
2, 18753, Note_on_c, 0, 84, 0
2, 18756, Note_on_c, 0, 63, 0
2, 18758, Note_on_c, 0, 67, 0
2, 18759, Note_on_c, 0, 56, 0
2, 18780, Note_on_c, 0, 92, 55
2, 18781, Note_on_c, 0, 67, 35
2, 18782, Note_on_c, 0, 56, 26
2, 18782, Note_on_c, 0, 63, 31
2, 18783, Note_on_c, 0, 87, 34
2, 18785, Note_on_c, 0, 80, 15
2, 18785, Note_on_c, 0, 84, 27
2, 18788, Note_on_c, 0, 60, 17
2, 18795, Note_on_c, 0, 84, 0
2, 18796, Note_on_c, 0, 92, 0
2, 18800, Note_on_c, 0, 87, 0
2, 18801, Note_on_c, 0, 60, 0
2, 18801, Note_on_c, 0, 63, 0
2, 18803, Note_on_c, 0, 80, 0
2, 18807, Note_on_c, 0, 67, 0
2, 18809, Note_on_c, 0, 56, 0
2, 18840, Note_on_c, 0, 89, 38
2, 18842, Note_on_c, 0, 67, 29
2, 18843, Note_on_c, 0, 56, 20
2, 18843, Note_on_c, 0, 77, 27
2, 18843, Note_on_c, 0, 63, 25
2, 18845, Note_on_c, 0, 84, 35
2, 18845, Note_on_c, 0, 60, 38
2, 18864, Note_on_c, 0, 84, 0
2, 18865, Note_on_c, 0, 89, 0
2, 18866, Note_on_c, 0, 63, 0
2, 18866, Note_on_c, 0, 77, 0
2, 18866, Note_on_c, 0, 60, 0
2, 18869, Note_on_c, 0, 67, 0
2, 18873, Note_on_c, 0, 56, 0
2, 18905, Note_on_c, 0, 63, 27
2, 18905, Note_on_c, 0, 67, 29
2, 18906, Note_on_c, 0, 91, 34
2, 18907, Note_on_c, 0, 79, 30
2, 18907, Note_on_c, 0, 56, 20
2, 18908, Note_on_c, 0, 60, 43
2, 18908, Note_on_c, 0, 84, 37
2, 18921, Note_on_c, 0, 84, 0
2, 18926, Note_on_c, 0, 79, 0
2, 18927, Note_on_c, 0, 91, 0
2, 18929, Note_on_c, 0, 63, 0
2, 18930, Note_on_c, 0, 67, 0
2, 18936, Note_on_c, 0, 56, 0
2, 18936, Note_on_c, 0, 60, 0
2, 18966, Note_on_c, 0, 92, 51
2, 18967, Control_c, 0, 64, 0
2, 18967, Note_on_c, 0, 87, 46
2, 18968, Note_on_c, 0, 67, 43
2, 18968, Note_on_c, 0, 60, 43
2, 18970, Note_on_c, 0, 80, 21
2, 18973, Note_on_c, 0, 56, 17
2, 18983, Control_c, 0, 64, 127
2, 18994, Note_on_c, 0, 92, 0
2, 18995, Note_on_c, 0, 80, 0
2, 18996, Note_on_c, 0, 60, 0
2, 18997, Note_on_c, 0, 87, 0
2, 18999, Note_on_c, 0, 56, 0
2, 19000, Note_on_c, 0, 67, 0
2, 19024, Note_on_c, 0, 94, 56
2, 19025, Note_on_c, 0, 67, 41
2, 19025, Note_on_c, 0, 63, 33
2, 19026, Note_on_c, 0, 87, 40
2, 19026, Note_on_c, 0, 82, 28
2, 19027, Note_on_c, 0, 56, 19
2, 19030, Note_on_c, 0, 60, 33
2, 19043, Note_on_c, 0, 67, 0
2, 19046, Note_on_c, 0, 82, 0
2, 19046, Note_on_c, 0, 87, 0
2, 19048, Note_on_c, 0, 94, 0
2, 19049, Note_on_c, 0, 63, 0
2, 19055, Note_on_c, 0, 60, 0
2, 19058, Note_on_c, 0, 56, 0
2, 19083, Note_on_c, 0, 66, 36
2, 19084, Control_c, 0, 64, 0
2, 19085, Note_on_c, 0, 95, 33
2, 19086, Note_on_c, 0, 88, 45
2, 19086, Note_on_c, 0, 56, 20
2, 19087, Note_on_c, 0, 83, 36
2, 19087, Note_on_c, 0, 62, 28
2, 19092, Control_c, 0, 64, 127
2, 19102, Note_on_c, 0, 83, 0
2, 19102, Note_on_c, 0, 88, 0
2, 19107, Note_on_c, 0, 95, 0
2, 19110, Note_on_c, 0, 62, 0
2, 19124, Note_on_c, 0, 66, 0
2, 19125, Note_on_c, 0, 56, 0
2, 19146, Note_on_c, 0, 66, 43
2, 19149, Note_on_c, 0, 56, 27
2, 19167, Note_on_c, 0, 66, 0
2, 19182, Note_on_c, 0, 56, 0
2, 19185, Note_on_c, 0, 101, 39
2, 19196, Note_on_c, 0, 101, 0
2, 19326, Note_on_c, 0, 79, 77
2, 19327, Note_on_c, 0, 67, 84
2, 19356, Note_on_c, 0, 79, 0
2, 19358, Note_on_c, 0, 67, 0
2, 19365, Note_on_c, 0, 79, 49
2, 19365, Note_on_c, 0, 67, 60
2, 19377, Note_on_c, 0, 79, 0
2, 19378, Note_on_c, 0, 67, 0
2, 19445, Control_c, 0, 64, 127
2, 19446, Note_on_c, 0, 67, 34
2, 19446, Note_on_c, 0, 63, 32
2, 19447, Note_on_c, 0, 80, 47
2, 19447, Note_on_c, 0, 56, 25
2, 19450, Note_on_c, 0, 68, 39
2, 19451, Note_on_c, 0, 60, 36
2, 19472, Note_on_c, 0, 68, 0
2, 19475, Note_on_c, 0, 56, 0
2, 19475, Note_on_c, 0, 80, 0
2, 19475, Note_on_c, 0, 60, 0
2, 19477, Note_on_c, 0, 67, 0
2, 19478, Note_on_c, 0, 63, 0
2, 19492, Note_on_c, 0, 82, 54
2, 19492, Note_on_c, 0, 70, 39
2, 19492, Note_on_c, 0, 67, 30
2, 19494, Note_on_c, 0, 63, 21
2, 19496, Note_on_c, 0, 56, 15
2, 19497, Note_on_c, 0, 60, 35
2, 19527, Note_on_c, 0, 82, 0
2, 19534, Note_on_c, 0, 67, 0
2, 19535, Note_on_c, 0, 70, 0
2, 19548, Note_on_c, 0, 60, 0
2, 19553, Note_on_c, 0, 63, 0
2, 19611, Note_on_c, 0, 79, 51
2, 19612, Note_on_c, 0, 67, 55
2, 19622, Note_on_c, 0, 67, 0
2, 19624, Note_on_c, 0, 79, 0
2, 19624, Note_on_c, 0, 56, 0
2, 19649, Note_on_c, 0, 80, 56
2, 19650, Note_on_c, 0, 68, 53
2, 19658, Note_on_c, 0, 68, 0
2, 19662, Note_on_c, 0, 80, 0
2, 19691, Note_on_c, 0, 82, 54
2, 19694, Note_on_c, 0, 79, 62
2, 19695, Note_on_c, 0, 53, 37
2, 19696, Note_on_c, 0, 59, 38
2, 19697, Control_c, 0, 64, 0
2, 19697, Note_on_c, 0, 75, 59
2, 19698, Note_on_c, 0, 63, 21
2, 19706, Note_on_c, 0, 71, 18
2, 19732, Control_c, 0, 64, 127
2, 19792, Note_on_c, 0, 79, 0
2, 19797, Note_on_c, 0, 71, 0
2, 19802, Note_on_c, 0, 75, 0
2, 19805, Note_on_c, 0, 82, 0
2, 19846, Note_on_c, 0, 59, 0
2, 19847, Note_on_c, 0, 53, 0
2, 19850, Note_on_c, 0, 84, 90
2, 19857, Note_on_c, 0, 63, 0
2, 19872, Note_on_c, 0, 84, 0
2, 19924, Note_on_c, 0, 87, 77
2, 19926, Note_on_c, 0, 75, 74
2, 19926, Note_on_c, 0, 80, 74
2, 19927, Note_on_c, 0, 82, 69
2, 19927, Note_on_c, 0, 76, 82
2, 19933, Control_c, 0, 64, 0
2, 19955, Control_c, 0, 64, 127
2, 19975, Note_on_c, 0, 87, 0
2, 19979, Note_on_c, 0, 82, 0
2, 19984, Note_on_c, 0, 85, 76
2, 19985, Note_on_c, 0, 75, 0
2, 19985, Note_on_c, 0, 73, 42
2, 19996, Note_on_c, 0, 73, 0
2, 19996, Note_on_c, 0, 80, 0
2, 20000, Note_on_c, 0, 85, 0
2, 20001, Note_on_c, 0, 76, 0
2, 20045, Note_on_c, 0, 84, 67
2, 20046, Control_c, 0, 64, 0
2, 20046, Note_on_c, 0, 76, 58
2, 20047, Note_on_c, 0, 79, 44
2, 20047, Note_on_c, 0, 73, 33
2, 20049, Note_on_c, 0, 82, 30
2, 20050, Note_on_c, 0, 69, 24
2, 20059, Note_on_c, 0, 69, 0
2, 20059, Note_on_c, 0, 84, 0
2, 20061, Control_c, 0, 64, 127
2, 20062, Note_on_c, 0, 76, 0
2, 20062, Note_on_c, 0, 79, 0
2, 20063, Note_on_c, 0, 82, 0
2, 20076, Note_on_c, 0, 73, 0
2, 20142, Note_on_c, 0, 76, 61
2, 20157, Note_on_c, 0, 76, 0
2, 20173, Note_on_c, 0, 67, 29
2, 20173, Note_on_c, 0, 63, 31
2, 20174, Note_on_c, 0, 56, 23
2, 20175, Note_on_c, 0, 79, 55
2, 20176, Note_on_c, 0, 60, 44
2, 20178, Control_c, 0, 64, 0
2, 20179, Note_on_c, 0, 75, 37
2, 20179, Note_on_c, 0, 72, 31
2, 20194, Note_on_c, 0, 72, 0
2, 20195, Note_on_c, 0, 79, 0
2, 20195, Note_on_c, 0, 75, 0
2, 20219, Note_on_c, 0, 79, 52
2, 20220, Note_on_c, 0, 75, 42
2, 20221, Note_on_c, 0, 72, 47
2, 20240, Note_on_c, 0, 72, 0
2, 20240, Note_on_c, 0, 79, 0
2, 20242, Note_on_c, 0, 75, 0
2, 20249, Control_c, 0, 64, 127
2, 20252, Note_on_c, 0, 77, 49
2, 20258, Note_on_c, 0, 67, 0
2, 20263, Note_on_c, 0, 63, 0
2, 20270, Note_on_c, 0, 60, 0
2, 20271, Note_on_c, 0, 77, 0
2, 20287, Control_c, 0, 64, 0
2, 20287, Note_on_c, 0, 75, 38
2, 20288, Note_on_c, 0, 63, 33
2, 20288, Note_on_c, 0, 67, 43
2, 20288, Note_on_c, 0, 79, 46
2, 20289, Note_on_c, 0, 72, 44
2, 20290, Note_on_c, 0, 60, 29
2, 20307, Control_c, 0, 64, 127
2, 20322, Note_on_c, 0, 67, 0
2, 20326, Note_on_c, 0, 60, 0
2, 20331, Note_on_c, 0, 63, 0
2, 20347, Note_on_c, 0, 56, 0
2, 20384, Note_on_c, 0, 72, 0
2, 20392, Note_on_c, 0, 79, 0
2, 20392, Note_on_c, 0, 75, 0
2, 20402, Note_on_c, 0, 63, 32
2, 20404, Note_on_c, 0, 52, 37
2, 20405, Control_c, 0, 64, 0
2, 20406, Note_on_c, 0, 58, 33
2, 20449, Note_on_c, 0, 87, 88
2, 20468, Note_on_c, 0, 87, 0
2, 20473, Note_on_c, 0, 82, 56
2, 20486, Note_on_c, 0, 82, 0
2, 20491, Note_on_c, 0, 76, 43
2, 20503, Note_on_c, 0, 76, 0
2, 20510, Note_on_c, 0, 75, 57
2, 20515, Note_on_c, 0, 63, 0
2, 20523, Note_on_c, 0, 75, 0
2, 20527, Note_on_c, 0, 58, 0
2, 20531, Note_on_c, 0, 73, 42
2, 20538, Note_on_c, 0, 63, 25
2, 20546, Note_on_c, 0, 73, 0
2, 20571, Note_on_c, 0, 70, 71
2, 20572, Note_on_c, 0, 58, 1
2, 20583, Note_on_c, 0, 70, 0
2, 20598, Note_on_c, 0, 52, 0
2, 20603, Note_on_c, 0, 58, 0
2, 20603, Note_on_c, 0, 68, 33
2, 20610, Note_on_c, 0, 63, 0
2, 20615, Note_on_c, 0, 68, 0
2, 20631, Note_on_c, 0, 67, 62
2, 20632, Note_on_c, 0, 63, 31
2, 20639, Note_on_c, 0, 53, 22
2, 20640, Note_on_c, 0, 60, 28
2, 20642, Note_on_c, 0, 56, 20
2, 20646, Note_on_c, 0, 67, 0
2, 20656, Note_on_c, 0, 68, 59
2, 20689, Note_on_c, 0, 68, 0
2, 20691, Note_on_c, 0, 64, 48
2, 20697, Note_on_c, 0, 64, 0
2, 20708, Note_on_c, 0, 67, 88
2, 20746, Note_on_c, 0, 65, 84
2, 20749, Note_on_c, 0, 63, 0
2, 20752, Note_on_c, 0, 67, 0
2, 20762, Note_on_c, 0, 60, 0
2, 20763, Note_on_c, 0, 65, 0
2, 20776, Note_on_c, 0, 60, 31
2, 20790, Note_on_c, 0, 56, 0
2, 20812, Note_on_c, 0, 60, 0
2, 20815, Note_on_c, 0, 53, 0
2, 20901, Control_c, 0, 64, 127
2, 20941, Control_c, 0, 64, 0
2, 20943, Note_on_c, 0, 58, 87
2, 20948, Note_on_c, 0, 59, 35
2, 20952, Note_on_c, 0, 59, 0
2, 20979, Control_c, 0, 64, 127
2, 20981, Note_on_c, 0, 58, 0
2, 20981, Note_on_c, 0, 56, 50
2, 20989, Note_on_c, 0, 53, 10
2, 21000, Note_on_c, 0, 56, 0
2, 21005, Control_c, 0, 64, 0
2, 21007, Note_on_c, 0, 59, 84
2, 21027, Control_c, 0, 64, 127
2, 21045, Note_on_c, 0, 59, 0
2, 21046, Note_on_c, 0, 57, 50
2, 21060, Note_on_c, 0, 57, 0
2, 21068, Note_on_c, 0, 60, 80
2, 21072, Control_c, 0, 64, 0
2, 21083, Note_on_c, 0, 53, 0
2, 21098, Control_c, 0, 64, 127
2, 21118, Note_on_c, 0, 60, 0
2, 21128, Note_on_c, 0, 62, 69
2, 21129, Note_on_c, 0, 46, 33
2, 21129, Note_on_c, 0, 56, 31
2, 21129, Control_c, 0, 64, 0
2, 21155, Note_on_c, 0, 56, 0
2, 21160, Control_c, 0, 64, 127
2, 21190, Note_on_c, 0, 62, 0
2, 21190, Note_on_c, 0, 60, 57
2, 21190, Note_on_c, 0, 56, 29
2, 21210, Note_on_c, 0, 60, 0
2, 21214, Note_on_c, 0, 56, 0
2, 21247, Note_on_c, 0, 63, 65
2, 21247, Note_on_c, 0, 60, 77
2, 21248, Note_on_c, 0, 56, 39
2, 21254, Control_c, 0, 64, 0
2, 21271, Note_on_c, 0, 56, 0
2, 21276, Note_on_c, 0, 60, 0
2, 21279, Control_c, 0, 64, 127
2, 21283, Note_on_c, 0, 46, 0
2, 21302, Note_on_c, 0, 46, 39
2, 21324, Note_on_c, 0, 46, 0
2, 21337, Note_on_c, 0, 60, 66
2, 21351, Note_on_c, 0, 63, 0
2, 21355, Note_on_c, 0, 60, 0
2, 21366, Note_on_c, 0, 64, 74
2, 21366, Note_on_c, 0, 58, 64
2, 21366, Note_on_c, 0, 52, 62
2, 21367, Note_on_c, 0, 61, 61
2, 21369, Control_c, 0, 64, 0
2, 21401, Control_c, 0, 64, 127
2, 21405, Note_on_c, 0, 61, 0
2, 21422, Note_on_c, 0, 61, 70
2, 21426, Note_on_c, 0, 49, 48
2, 21427, Note_on_c, 0, 52, 0
2, 21429, Note_on_c, 0, 64, 0
2, 21450, Note_on_c, 0, 58, 0
2, 21458, Note_on_c, 0, 61, 0
2, 21480, Note_on_c, 0, 67, 71
2, 21481, Note_on_c, 0, 64, 68
2, 21481, Note_on_c, 0, 61, 68
2, 21481, Note_on_c, 0, 58, 69
2, 21482, Control_c, 0, 64, 0
2, 21482, Note_on_c, 0, 55, 71
2, 21503, Note_on_c, 0, 49, 0
2, 21538, Control_c, 0, 64, 127
2, 21542, Note_on_c, 0, 64, 0
2, 21552, Note_on_c, 0, 55, 0
2, 21571, Note_on_c, 0, 58, 0
2, 21576, Note_on_c, 0, 61, 0
2, 21577, Note_on_c, 0, 67, 0
2, 21581, Note_on_c, 0, 64, 60
2, 21593, Note_on_c, 0, 64, 0
2, 21610, Note_on_c, 0, 70, 60
2, 21611, Note_on_c, 0, 63, 49
2, 21612, Note_on_c, 0, 60, 47
2, 21613, Note_on_c, 0, 44, 37
2, 21615, Note_on_c, 0, 55, 38
2, 21615, Control_c, 0, 64, 0
2, 21656, Control_c, 0, 64, 127
2, 21678, Note_on_c, 0, 55, 0
2, 21704, Note_on_c, 0, 60, 0
2, 21705, Note_on_c, 0, 63, 0
2, 21717, Note_on_c, 0, 70, 0
2, 21729, Note_on_c, 0, 68, 46
2, 21730, Note_on_c, 0, 60, 43
2, 21731, Note_on_c, 0, 53, 34
2, 21731, Note_on_c, 0, 63, 34
2, 21735, Control_c, 0, 64, 0
2, 21754, Control_c, 0, 64, 127
2, 21776, Note_on_c, 0, 44, 0
2, 21789, Note_on_c, 0, 53, 0
2, 21803, Note_on_c, 0, 68, 0
2, 21813, Note_on_c, 0, 60, 0
2, 21815, Note_on_c, 0, 63, 0
2, 21843, Note_on_c, 0, 46, 28
2, 21843, Control_c, 0, 64, 0
2, 21844, Note_on_c, 0, 56, 25
2, 21844, Note_on_c, 0, 63, 32
2, 21845, Note_on_c, 0, 60, 35
2, 21866, Control_c, 0, 64, 127
2, 21925, Note_on_c, 0, 56, 0
2, 21932, Note_on_c, 0, 60, 0
2, 21940, Note_on_c, 0, 63, 0
2, 21963, Note_on_c, 0, 56, 33
2, 21989, Note_on_c, 0, 46, 0
2, 21994, Note_on_c, 0, 56, 0
2, 22028, Note_on_c, 0, 62, 36
2, 22033, Note_on_c, 0, 62, 0
2, 22047, Note_on_c, 0, 67, 62
2, 22055, Note_on_c, 0, 67, 0
2, 22066, Note_on_c, 0, 70, 77
2, 22078, Note_on_c, 0, 70, 0
2, 22086, Note_on_c, 0, 74, 71
2, 22087, Note_on_c, 0, 62, 31
2, 22087, Control_c, 0, 64, 0
2, 22088, Note_on_c, 0, 51, 23
2, 22089, Note_on_c, 0, 58, 30
2, 22090, Note_on_c, 0, 55, 40
2, 22102, Note_on_c, 0, 74, 0
2, 22107, Note_on_c, 0, 69, 62
2, 22120, Note_on_c, 0, 69, 0
2, 22126, Note_on_c, 0, 70, 64
2, 22135, Note_on_c, 0, 70, 0
2, 22148, Note_on_c, 0, 74, 52
2, 22157, Note_on_c, 0, 74, 0
2, 22164, Note_on_c, 0, 78, 38
2, 22177, Note_on_c, 0, 78, 0
2, 22185, Note_on_c, 0, 81, 74
2, 22199, Note_on_c, 0, 81, 0
2, 22207, Note_on_c, 0, 86, 84
2, 22221, Note_on_c, 0, 86, 0
2, 22229, Note_on_c, 0, 81, 45
2, 22236, Note_on_c, 0, 62, 0
2, 22238, Note_on_c, 0, 81, 0
2, 22250, Note_on_c, 0, 84, 75
2, 22261, Note_on_c, 0, 84, 0
2, 22269, Note_on_c, 0, 58, 0
2, 22273, Note_on_c, 0, 82, 47
2, 22283, Note_on_c, 0, 55, 0
2, 22284, Note_on_c, 0, 82, 0
2, 22292, Note_on_c, 0, 51, 0
2, 22308, Note_on_c, 0, 79, 47
2, 22314, Note_on_c, 0, 79, 0
2, 22445, Note_on_c, 0, 65, 30
2, 22446, Note_on_c, 0, 60, 39
2, 22446, Note_on_c, 0, 56, 30
2, 22449, Note_on_c, 0, 61, 25
2, 22463, Note_on_c, 0, 61, 0
2, 22463, Note_on_c, 0, 65, 0
2, 22463, Note_on_c, 0, 60, 0
2, 22469, Note_on_c, 0, 56, 0
2, 22512, Control_c, 0, 64, 127
2, 22546, Note_on_c, 0, 85, 69
2, 22557, Note_on_c, 0, 85, 0
2, 22563, Control_c, 0, 64, 0
2, 22570, Note_on_c, 0, 86, 74
2, 22575, Note_on_c, 0, 86, 0
2, 22606, Note_on_c, 0, 89, 80
2, 22619, Note_on_c, 0, 89, 0
2, 22683, Note_on_c, 0, 65, 36
2, 22684, Note_on_c, 0, 60, 44
2, 22685, Note_on_c, 0, 62, 32
2, 22688, Note_on_c, 0, 55, 25
2, 22691, Note_on_c, 0, 62, 0
2, 22691, Note_on_c, 0, 65, 0
2, 22693, Note_on_c, 0, 55, 0
2, 22694, Note_on_c, 0, 60, 0
2, 22745, Note_on_c, 0, 86, 88
2, 22756, Note_on_c, 0, 86, 0
2, 22781, Note_on_c, 0, 84, 80
2, 22792, Note_on_c, 0, 84, 0
2, 22805, Note_on_c, 0, 65, 33
2, 22805, Note_on_c, 0, 56, 31
2, 22807, Note_on_c, 0, 60, 36
2, 22807, Note_on_c, 0, 82, 60
2, 22809, Note_on_c, 0, 61, 25
2, 22819, Note_on_c, 0, 82, 0
2, 22822, Note_on_c, 0, 60, 0
2, 22822, Note_on_c, 0, 65, 0
2, 22824, Note_on_c, 0, 61, 0
2, 22827, Note_on_c, 0, 56, 0
2, 22864, Note_on_c, 0, 80, 67
2, 22876, Note_on_c, 0, 80, 0
2, 22921, Note_on_c, 0, 79, 58
2, 22921, Note_on_c, 0, 61, 27
2, 22922, Note_on_c, 0, 64, 28
2, 22924, Note_on_c, 0, 55, 32
2, 22931, Note_on_c, 0, 79, 0
2, 22935, Note_on_c, 0, 55, 0
2, 22936, Note_on_c, 0, 64, 0
2, 22938, Note_on_c, 0, 61, 0
2, 22986, Note_on_c, 0, 76, 58
2, 22990, Control_c, 0, 64, 127
2, 23005, Note_on_c, 0, 76, 0
2, 23036, Control_c, 0, 64, 0
2, 23044, Note_on_c, 0, 44, 27
2, 23045, Note_on_c, 0, 51, 28
2, 23045, Note_on_c, 0, 67, 44
2, 23046, Note_on_c, 0, 72, 32
2, 23047, Note_on_c, 0, 55, 30
2, 23059, Control_c, 0, 64, 127
2, 23089, Note_on_c, 0, 72, 0
2, 23099, Note_on_c, 0, 67, 0
2, 23120, Note_on_c, 0, 55, 0
2, 23142, Note_on_c, 0, 51, 0
2, 23169, Note_on_c, 0, 51, 34
2, 23173, Note_on_c, 0, 51, 0
2, 23193, Note_on_c, 0, 48, 55
2, 23203, Note_on_c, 0, 48, 0
2, 23203, Control_c, 0, 64, 0
2, 23206, Note_on_c, 0, 51, 52
2, 23225, Note_on_c, 0, 51, 0
2, 23228, Note_on_c, 0, 55, 51
2, 23242, Note_on_c, 0, 55, 0
2, 23248, Note_on_c, 0, 58, 67
2, 23260, Note_on_c, 0, 44, 0
2, 23261, Note_on_c, 0, 58, 0
2, 23289, Note_on_c, 0, 56, 56
2, 23306, Note_on_c, 0, 56, 0
2, 23309, Note_on_c, 0, 58, 52
2, 23323, Note_on_c, 0, 58, 0
2, 23328, Note_on_c, 0, 60, 73
2, 23342, Note_on_c, 0, 60, 0
2, 23352, Note_on_c, 0, 62, 87
2, 23375, Note_on_c, 0, 62, 0
2, 23388, Note_on_c, 0, 63, 87
2, 23408, Note_on_c, 0, 63, 0
2, 23415, Note_on_c, 0, 46, 33
2, 23416, Note_on_c, 0, 65, 74
2, 23417, Note_on_c, 0, 56, 27
2, 23429, Note_on_c, 0, 56, 0
2, 23435, Note_on_c, 0, 46, 0
2, 23439, Note_on_c, 0, 65, 0
2, 23447, Note_on_c, 0, 67, 66
2, 23450, Note_on_c, 0, 65, 36
2, 23457, Note_on_c, 0, 65, 0
2, 23459, Note_on_c, 0, 67, 0
2, 23473, Note_on_c, 0, 69, 66
2, 23475, Control_c, 0, 64, 127
2, 23482, Control_c, 0, 64, 0
2, 23483, Note_on_c, 0, 69, 0
2, 23488, Control_c, 0, 64, 127
2, 23503, Note_on_c, 0, 54, 33
2, 23503, Note_on_c, 0, 72, 73
2, 23503, Note_on_c, 0, 44, 40
2, 23514, Note_on_c, 0, 72, 0
2, 23515, Note_on_c, 0, 54, 0
2, 23523, Note_on_c, 0, 44, 0
2, 23526, Control_c, 0, 64, 0
2, 23530, Note_on_c, 0, 70, 56
2, 23531, Note_on_c, 0, 53, 35
2, 23531, Note_on_c, 0, 58, 43
2, 23536, Note_on_c, 0, 43, 29
2, 23561, Note_on_c, 0, 53, 0
2, 23563, Note_on_c, 0, 70, 0
2, 23564, Note_on_c, 0, 58, 0
2, 23582, Note_on_c, 0, 70, 56
2, 23584, Note_on_c, 0, 62, 47
2, 23585, Note_on_c, 0, 53, 25
2, 23586, Note_on_c, 0, 58, 26
2, 23591, Control_c, 0, 64, 127
2, 23635, Note_on_c, 0, 62, 0
2, 23637, Note_on_c, 0, 58, 0
2, 23644, Note_on_c, 0, 70, 0
2, 23650, Note_on_c, 0, 43, 0
2, 23652, Note_on_c, 0, 53, 0
2, 23735, Note_on_c, 0, 58, 69
2, 23736, Note_on_c, 0, 86, 94
2, 23736, Note_on_c, 0, 67, 74
2, 23737, Note_on_c, 0, 63, 68
2, 23737, Note_on_c, 0, 62, 73
2, 23737, Note_on_c, 0, 79, 83
2, 23737, Note_on_c, 0, 74, 91
2, 23737, Note_on_c, 0, 82, 68
2, 23756, Note_on_c, 0, 74, 0
2, 23758, Note_on_c, 0, 79, 0
2, 23758, Note_on_c, 0, 67, 0
2, 23758, Note_on_c, 0, 58, 0
2, 23759, Note_on_c, 0, 86, 0
2, 23760, Note_on_c, 0, 82, 0
2, 23760, Note_on_c, 0, 62, 0
2, 23762, Note_on_c, 0, 63, 0
2, 23765, Control_c, 0, 64, 0
2, 23767, Note_on_c, 0, 86, 80
2, 23767, Note_on_c, 0, 67, 73
2, 23767, Note_on_c, 0, 58, 68
2, 23768, Note_on_c, 0, 79, 60
2, 23769, Note_on_c, 0, 82, 53
2, 23769, Note_on_c, 0, 63, 60
2, 23769, Note_on_c, 0, 74, 67
2, 23769, Note_on_c, 0, 62, 69
2, 23784, Control_c, 0, 64, 127
2, 23793, Note_on_c, 0, 86, 0
2, 23795, Note_on_c, 0, 74, 0
2, 23798, Note_on_c, 0, 67, 0
2, 23798, Note_on_c, 0, 58, 0
2, 23799, Note_on_c, 0, 79, 0
2, 23800, Note_on_c, 0, 62, 0
2, 23800, Note_on_c, 0, 63, 0
2, 23803, Note_on_c, 0, 82, 0
2, 23809, Note_on_c, 0, 79, 40
2, 23809, Note_on_c, 0, 58, 34
2, 23810, Note_on_c, 0, 84, 63
2, 23810, Note_on_c, 0, 82, 46
2, 23810, Note_on_c, 0, 67, 57
2, 23811, Note_on_c, 0, 63, 44
2, 23811, Note_on_c, 0, 62, 38
2, 23812, Note_on_c, 0, 72, 36
2, 23813, Control_c, 0, 64, 0
2, 23818, Control_c, 0, 64, 127
2, 23825, Note_on_c, 0, 72, 0
2, 23830, Note_on_c, 0, 79, 0
2, 23832, Note_on_c, 0, 63, 0
2, 23832, Note_on_c, 0, 84, 0
2, 23833, Note_on_c, 0, 82, 0
2, 23833, Note_on_c, 0, 67, 0
2, 23835, Note_on_c, 0, 62, 0
2, 23837, Note_on_c, 0, 58, 0
2, 23859, Note_on_c, 0, 91, 77
2, 23860, Note_on_c, 0, 86, 87
2, 23860, Note_on_c, 0, 79, 71
2, 23860, Note_on_c, 0, 67, 80
2, 23860, Note_on_c, 0, 58, 69
2, 23860, Note_on_c, 0, 63, 59
2, 23860, Note_on_c, 0, 62, 70
2, 23879, Note_on_c, 0, 58, 0
2, 23879, Note_on_c, 0, 86, 0
2, 23880, Note_on_c, 0, 79, 0
2, 23881, Note_on_c, 0, 91, 0
2, 23881, Note_on_c, 0, 62, 0
2, 23882, Note_on_c, 0, 67, 0
2, 23883, Note_on_c, 0, 63, 0
2, 23883, Control_c, 0, 64, 0
2, 23890, Note_on_c, 0, 91, 57
2, 23890, Note_on_c, 0, 58, 47
2, 23891, Note_on_c, 0, 67, 62
2, 23891, Note_on_c, 0, 63, 49
2, 23892, Note_on_c, 0, 62, 47
2, 23892, Note_on_c, 0, 86, 71
2, 23893, Note_on_c, 0, 79, 59
2, 23898, Control_c, 0, 64, 127
2, 23912, Note_on_c, 0, 86, 0
2, 23914, Note_on_c, 0, 91, 0
2, 23915, Note_on_c, 0, 79, 0
2, 23917, Note_on_c, 0, 63, 0
2, 23919, Note_on_c, 0, 62, 0
2, 23919, Note_on_c, 0, 67, 0
2, 23923, Note_on_c, 0, 58, 0
2, 23929, Note_on_c, 0, 58, 21
2, 23930, Note_on_c, 0, 89, 60
2, 23930, Note_on_c, 0, 67, 57
2, 23931, Note_on_c, 0, 63, 44
2, 23931, Note_on_c, 0, 77, 51
2, 23932, Note_on_c, 0, 84, 62
2, 23933, Note_on_c, 0, 62, 37
2, 23959, Note_on_c, 0, 77, 0
2, 23960, Note_on_c, 0, 84, 0
2, 23961, Note_on_c, 0, 89, 0
2, 23962, Note_on_c, 0, 67, 0
2, 23962, Note_on_c, 0, 62, 0
2, 23963, Note_on_c, 0, 63, 0
2, 23967, Note_on_c, 0, 58, 0
2, 23985, Note_on_c, 0, 58, 37
2, 23988, Note_on_c, 0, 63, 26
2, 23993, Note_on_c, 0, 58, 0
2, 23995, Note_on_c, 0, 63, 0
2, 24006, Control_c, 0, 64, 0
2, 24007, Note_on_c, 0, 92, 64
2, 24007, Note_on_c, 0, 67, 66
2, 24008, Note_on_c, 0, 87, 65
2, 24009, Note_on_c, 0, 56, 48
2, 24009, Note_on_c, 0, 63, 37
2, 24009, Note_on_c, 0, 80, 36
2, 24010, Note_on_c, 0, 60, 55
2, 24025, Control_c, 0, 64, 127
2, 24029, Note_on_c, 0, 80, 0
2, 24031, Note_on_c, 0, 87, 0
2, 24032, Note_on_c, 0, 92, 0
2, 24045, Note_on_c, 0, 60, 0
2, 24049, Note_on_c, 0, 56, 0
2, 24051, Note_on_c, 0, 67, 0
2, 24052, Note_on_c, 0, 63, 0
2, 24063, Note_on_c, 0, 96, 78
2, 24063, Note_on_c, 0, 67, 70
2, 24064, Note_on_c, 0, 92, 62
2, 24064, Note_on_c, 0, 56, 62
2, 24064, Note_on_c, 0, 89, 66
2, 24065, Note_on_c, 0, 63, 56
2, 24065, Note_on_c, 0, 84, 64
2, 24065, Note_on_c, 0, 60, 72
2, 24100, Note_on_c, 0, 56, 0
2, 24101, Note_on_c, 0, 67, 0
2, 24101, Note_on_c, 0, 84, 0
2, 24103, Note_on_c, 0, 60, 0
2, 24103, Note_on_c, 0, 89, 0
2, 24105, Note_on_c, 0, 96, 0
2, 24105, Note_on_c, 0, 63, 0
2, 24106, Note_on_c, 0, 92, 0
2, 24120, Note_on_c, 0, 56, 59
2, 24121, Control_c, 0, 64, 0
2, 24121, Note_on_c, 0, 67, 66
2, 24122, Note_on_c, 0, 63, 47
2, 24122, Note_on_c, 0, 92, 59
2, 24122, Note_on_c, 0, 96, 66
2, 24122, Note_on_c, 0, 60, 56
2, 24123, Note_on_c, 0, 89, 61
2, 24124, Note_on_c, 0, 84, 49
2, 24127, Control_c, 0, 64, 127
2, 24157, Note_on_c, 0, 89, 0
2, 24158, Note_on_c, 0, 84, 0
2, 24158, Note_on_c, 0, 56, 0
2, 24158, Note_on_c, 0, 60, 0
2, 24159, Note_on_c, 0, 67, 0
2, 24160, Note_on_c, 0, 92, 0
2, 24161, Note_on_c, 0, 63, 0
2, 24162, Note_on_c, 0, 96, 0
2, 24183, Note_on_c, 0, 63, 47
2, 24183, Note_on_c, 0, 67, 60
2, 24183, Note_on_c, 0, 96, 55
2, 24183, Note_on_c, 0, 92, 49
2, 24185, Note_on_c, 0, 56, 33
2, 24185, Note_on_c, 0, 84, 44
2, 24186, Note_on_c, 0, 89, 44
2, 24186, Note_on_c, 0, 60, 54
2, 24197, Note_on_c, 0, 96, 0
2, 24197, Note_on_c, 0, 67, 0
2, 24198, Note_on_c, 0, 56, 0
2, 24202, Note_on_c, 0, 84, 0
2, 24203, Note_on_c, 0, 63, 0
2, 24204, Note_on_c, 0, 92, 0
2, 24204, Note_on_c, 0, 89, 0
2, 24207, Note_on_c, 0, 60, 0
2, 24244, Note_on_c, 0, 94, 61
2, 24245, Control_c, 0, 64, 0
2, 24245, Note_on_c, 0, 56, 55
2, 24245, Note_on_c, 0, 62, 50
2, 24246, Note_on_c, 0, 67, 56
2, 24246, Note_on_c, 0, 89, 60
2, 24247, Note_on_c, 0, 82, 42
2, 24273, Control_c, 0, 64, 127
2, 24313, Note_on_c, 0, 67, 0
2, 24321, Note_on_c, 0, 56, 0
2, 24328, Note_on_c, 0, 62, 0
2, 24359, Note_on_c, 0, 94, 0
2, 24359, Note_on_c, 0, 89, 0
2, 24363, Note_on_c, 0, 67, 47
2, 24363, Note_on_c, 0, 56, 37
2, 24365, Note_on_c, 0, 82, 0
2, 24365, Note_on_c, 0, 62, 43
2, 24409, Note_on_c, 0, 67, 0
2, 24421, Note_on_c, 0, 56, 0
2, 24426, Note_on_c, 0, 62, 0
2, 24428, Note_on_c, 0, 92, 74
2, 24429, Note_on_c, 0, 80, 58
2, 24437, Note_on_c, 0, 80, 0
2, 24440, Note_on_c, 0, 92, 0
2, 24482, Control_c, 0, 64, 0
2, 24482, Note_on_c, 0, 91, 69
2, 24482, Note_on_c, 0, 83, 71
2, 24483, Note_on_c, 0, 86, 75
2, 24484, Note_on_c, 0, 79, 65
2, 24485, Note_on_c, 0, 55, 71
2, 24498, Control_c, 0, 64, 127
2, 24512, Note_on_c, 0, 91, 0
2, 24519, Note_on_c, 0, 86, 0
2, 24520, Note_on_c, 0, 83, 0
2, 24524, Note_on_c, 0, 79, 0
2, 24543, Note_on_c, 0, 62, 74
2, 24604, Note_on_c, 0, 71, 67
2, 24604, Note_on_c, 0, 74, 64
2, 24604, Note_on_c, 0, 67, 57
2, 24605, Note_on_c, 0, 65, 64
2, 24658, Note_on_c, 0, 65, 0
2, 24671, Note_on_c, 0, 55, 0
2, 24671, Note_on_c, 0, 62, 0
2, 24671, Note_on_c, 0, 79, 63
2, 24697, Note_on_c, 0, 67, 0
2, 24698, Note_on_c, 0, 71, 0
2, 24702, Note_on_c, 0, 74, 0
2, 24702, Note_on_c, 0, 79, 0
2, 24726, Note_on_c, 0, 77, 56
2, 24727, Note_on_c, 0, 51, 48
2, 24728, Note_on_c, 0, 70, 48
2, 24728, Note_on_c, 0, 67, 48
2, 24728, Note_on_c, 0, 74, 57
2, 24729, Note_on_c, 0, 62, 41
2, 24730, Control_c, 0, 64, 0
2, 24751, Control_c, 0, 64, 127
2, 24771, Note_on_c, 0, 74, 0
2, 24773, Note_on_c, 0, 62, 0
2, 24777, Note_on_c, 0, 70, 0
2, 24777, Note_on_c, 0, 67, 0
2, 24782, Note_on_c, 0, 77, 0
2, 24789, Note_on_c, 0, 75, 58
2, 24789, Control_c, 0, 64, 0
2, 24789, Note_on_c, 0, 67, 53
2, 24790, Note_on_c, 0, 70, 50
2, 24792, Note_on_c, 0, 60, 45
2, 24809, Control_c, 0, 64, 127
2, 24836, Note_on_c, 0, 67, 0
2, 24842, Note_on_c, 0, 70, 0
2, 24842, Note_on_c, 0, 60, 0
2, 24845, Note_on_c, 0, 75, 0
2, 24848, Note_on_c, 0, 74, 68
2, 24849, Control_c, 0, 64, 0
2, 24849, Note_on_c, 0, 70, 51
2, 24850, Note_on_c, 0, 59, 55
2, 24850, Note_on_c, 0, 67, 58
2, 24875, Control_c, 0, 64, 127
2, 24892, Note_on_c, 0, 67, 0
2, 24896, Note_on_c, 0, 74, 0
2, 24897, Note_on_c, 0, 70, 0
2, 24898, Note_on_c, 0, 59, 0
2, 24904, Note_on_c, 0, 70, 71
2, 24905, Note_on_c, 0, 75, 69
2, 24906, Note_on_c, 0, 67, 64
2, 24907, Note_on_c, 0, 60, 57
2, 24921, Note_on_c, 0, 51, 0
2, 24929, Note_on_c, 0, 67, 0
2, 24929, Note_on_c, 0, 75, 0
2, 24931, Note_on_c, 0, 70, 0
2, 24936, Note_on_c, 0, 60, 0
2, 24968, Note_on_c, 0, 68, 46
2, 24968, Note_on_c, 0, 60, 75
2, 24968, Note_on_c, 0, 65, 66
2, 24972, Note_on_c, 0, 50, 49
2, 24972, Note_on_c, 0, 56, 36
2, 24974, Control_c, 0, 64, 0
2, 24991, Note_on_c, 0, 56, 0
2, 25001, Control_c, 0, 64, 127
2, 25005, Note_on_c, 0, 60, 0
2, 25011, Note_on_c, 0, 65, 0
2, 25016, Note_on_c, 0, 68, 0
2, 25031, Note_on_c, 0, 50, 0
2, 25033, Note_on_c, 0, 72, 78
2, 25061, Note_on_c, 0, 72, 0
2, 25086, Note_on_c, 0, 79, 72
2, 25088, Note_on_c, 0, 72, 83
2, 25089, Note_on_c, 0, 68, 77
2, 25089, Note_on_c, 0, 67, 80
2, 25090, Control_c, 0, 64, 0
2, 25116, Control_c, 0, 64, 127
2, 25119, Note_on_c, 0, 79, 0
2, 25130, Note_on_c, 0, 68, 0
2, 25135, Note_on_c, 0, 68, 31
2, 25135, Note_on_c, 0, 79, 80
2, 25136, Note_on_c, 0, 67, 0
2, 25140, Note_on_c, 0, 75, 25
2, 25145, Note_on_c, 0, 75, 0
2, 25161, Note_on_c, 0, 79, 0
2, 25169, Note_on_c, 0, 68, 0
2, 25169, Note_on_c, 0, 72, 0
2, 25173, Note_on_c, 0, 77, 58
2, 25186, Note_on_c, 0, 77, 0
2, 25209, Note_on_c, 0, 82, 46
2, 25211, Note_on_c, 0, 53, 47
2, 25211, Note_on_c, 0, 59, 38
2, 25211, Note_on_c, 0, 75, 55
2, 25212, Note_on_c, 0, 63, 39
2, 25212, Note_on_c, 0, 71, 56
2, 25214, Control_c, 0, 64, 0
2, 25246, Note_on_c, 0, 82, 0
2, 25259, Note_on_c, 0, 82, 51
2, 25261, Control_c, 0, 64, 127
2, 25296, Note_on_c, 0, 80, 55
2, 25302, Note_on_c, 0, 82, 0
2, 25305, Note_on_c, 0, 63, 0
2, 25314, Note_on_c, 0, 59, 0
2, 25320, Note_on_c, 0, 80, 0
2, 25328, Note_on_c, 0, 71, 0
2, 25334, Note_on_c, 0, 71, 28
2, 25335, Note_on_c, 0, 63, 28
2, 25335, Note_on_c, 0, 79, 50
2, 25335, Note_on_c, 0, 59, 27
2, 25338, Control_c, 0, 64, 0
2, 25345, Control_c, 0, 64, 127
2, 25360, Note_on_c, 0, 79, 0
2, 25377, Note_on_c, 0, 63, 0
2, 25382, Note_on_c, 0, 75, 0
2, 25386, Note_on_c, 0, 71, 0
2, 25388, Note_on_c, 0, 59, 0
2, 25404, Note_on_c, 0, 53, 0
2, 25453, Note_on_c, 0, 67, 55
2, 25454, Note_on_c, 0, 63, 48
2, 25455, Note_on_c, 0, 48, 38
2, 25457, Note_on_c, 0, 55, 24
2, 25459, Control_c, 0, 64, 0
2, 25483, Note_on_c, 0, 67, 0
2, 25490, Control_c, 0, 64, 127
2, 25494, Note_on_c, 0, 63, 0
2, 25497, Note_on_c, 0, 67, 60
2, 25527, Note_on_c, 0, 67, 0
2, 25531, Note_on_c, 0, 48, 0
2, 25545, Note_on_c, 0, 55, 0
2, 25573, Note_on_c, 0, 47, 29
2, 25577, Control_c, 0, 64, 0
2, 25609, Note_on_c, 0, 47, 0
2, 25619, Control_c, 0, 64, 127
2, 25621, Note_on_c, 0, 67, 66
2, 25622, Note_on_c, 0, 47, 41
2, 25623, Note_on_c, 0, 58, 46
2, 25624, Note_on_c, 0, 63, 49
2, 25650, Note_on_c, 0, 47, 0
2, 25653, Note_on_c, 0, 58, 0
2, 25660, Note_on_c, 0, 67, 0
2, 25668, Note_on_c, 0, 63, 0
2, 25678, Note_on_c, 0, 67, 77
2, 25679, Note_on_c, 0, 46, 50
2, 25679, Note_on_c, 0, 56, 67
2, 25679, Note_on_c, 0, 61, 72
2, 25681, Control_c, 0, 64, 0
2, 25711, Control_c, 0, 64, 127
2, 25712, Note_on_c, 0, 67, 0
2, 25721, Note_on_c, 0, 56, 0
2, 25729, Note_on_c, 0, 61, 0
2, 25739, Note_on_c, 0, 70, 77
2, 25744, Note_on_c, 0, 71, 53
2, 25749, Note_on_c, 0, 46, 0
2, 25754, Note_on_c, 0, 71, 0
2, 25761, Note_on_c, 0, 70, 0
2, 25858, Control_c, 0, 64, 0
2, 25858, Note_on_c, 0, 64, 58
2, 25858, Note_on_c, 0, 61, 50
2, 25860, Note_on_c, 0, 55, 48
2, 25860, Note_on_c, 0, 45, 42
2, 25861, Note_on_c, 0, 59, 56
2, 25863, Note_on_c, 0, 52, 33
2, 25881, Control_c, 0, 64, 127
2, 25887, Note_on_c, 0, 64, 0
2, 25890, Note_on_c, 0, 52, 0
2, 25892, Note_on_c, 0, 59, 0
2, 25894, Note_on_c, 0, 45, 0
2, 25894, Note_on_c, 0, 55, 0
2, 25896, Note_on_c, 0, 61, 0
2, 25919, Control_c, 0, 64, 0
2, 25922, Note_on_c, 0, 63, 42
2, 25923, Note_on_c, 0, 44, 39
2, 25923, Note_on_c, 0, 51, 43
2, 25924, Note_on_c, 0, 60, 48
2, 25925, Note_on_c, 0, 58, 46
2, 25925, Note_on_c, 0, 55, 44
2, 25939, Control_c, 0, 64, 127
2, 25941, Note_on_c, 0, 55, 0
2, 25943, Note_on_c, 0, 60, 0
2, 25948, Note_on_c, 0, 58, 0
2, 25950, Note_on_c, 0, 63, 0
2, 25982, Note_on_c, 0, 72, 75
2, 25990, Note_on_c, 0, 51, 0
2, 25996, Note_on_c, 0, 44, 0
2, 26008, Note_on_c, 0, 72, 0
2, 26013, Note_on_c, 0, 44, 19
2, 26040, Note_on_c, 0, 72, 60
2, 26041, Note_on_c, 0, 67, 62
2, 26043, Note_on_c, 0, 55, 36
2, 26044, Note_on_c, 0, 60, 50
2, 26078, Note_on_c, 0, 72, 0
2, 26083, Note_on_c, 0, 44, 0
2, 26102, Note_on_c, 0, 55, 0
2, 26106, Note_on_c, 0, 72, 60
2, 26114, Note_on_c, 0, 67, 0
2, 26121, Note_on_c, 0, 72, 0
2, 26124, Note_on_c, 0, 60, 0
2, 26163, Note_on_c, 0, 67, 38
2, 26163, Note_on_c, 0, 60, 36
2, 26165, Note_on_c, 0, 64, 40
2, 26165, Note_on_c, 0, 48, 35
2, 26167, Note_on_c, 0, 58, 25
2, 26167, Control_c, 0, 64, 0
2, 26198, Control_c, 0, 64, 127
2, 26233, Note_on_c, 0, 58, 0
2, 26239, Note_on_c, 0, 64, 0
2, 26241, Note_on_c, 0, 60, 0
2, 26287, Note_on_c, 0, 58, 31
2, 26288, Note_on_c, 0, 64, 41
2, 26289, Note_on_c, 0, 60, 34
2, 26312, Note_on_c, 0, 60, 0
2, 26314, Note_on_c, 0, 64, 0
2, 26315, Note_on_c, 0, 67, 0
2, 26346, Note_on_c, 0, 48, 0
2, 26348, Note_on_c, 0, 58, 0
2, 26377, Note_on_c, 0, 80, 71
2, 26398, Note_on_c, 0, 80, 0
2, 26407, Note_on_c, 0, 73, 36
2, 26407, Note_on_c, 0, 47, 34
2, 26408, Note_on_c, 0, 68, 43
2, 26408, Note_on_c, 0, 57, 36
2, 26409, Note_on_c, 0, 77, 49
2, 26411, Control_c, 0, 64, 0
2, 26438, Control_c, 0, 64, 127
2, 26454, Note_on_c, 0, 77, 0
2, 26459, Note_on_c, 0, 73, 0
2, 26465, Note_on_c, 0, 68, 0
2, 26485, Note_on_c, 0, 57, 0
2, 26530, Note_on_c, 0, 61, 29
2, 26531, Note_on_c, 0, 57, 29
2, 26532, Note_on_c, 0, 65, 46
2, 26582, Note_on_c, 0, 47, 0
2, 26584, Note_on_c, 0, 65, 0
2, 26588, Note_on_c, 0, 68, 63
2, 26595, Note_on_c, 0, 57, 0
2, 26599, Note_on_c, 0, 61, 0
2, 26606, Note_on_c, 0, 68, 0
2, 26647, Note_on_c, 0, 67, 54
2, 26647, Control_c, 0, 64, 0
2, 26648, Note_on_c, 0, 59, 44
2, 26648, Note_on_c, 0, 62, 46
2, 26649, Note_on_c, 0, 64, 35
2, 26650, Note_on_c, 0, 46, 33
2, 26650, Note_on_c, 0, 56, 29
2, 26674, Control_c, 0, 64, 127
2, 26694, Note_on_c, 0, 46, 0
2, 26710, Note_on_c, 0, 59, 0
2, 26710, Note_on_c, 0, 46, 56
2, 26738, Note_on_c, 0, 62, 0
2, 26738, Note_on_c, 0, 56, 0
2, 26744, Note_on_c, 0, 64, 0
2, 26768, Note_on_c, 0, 67, 0
2, 26772, Note_on_c, 0, 62, 67
2, 26772, Note_on_c, 0, 59, 70
2, 26773, Note_on_c, 0, 56, 50
2, 26779, Control_c, 0, 64, 0
2, 26804, Control_c, 0, 64, 127
2, 26811, Note_on_c, 0, 46, 0
2, 26819, Control_c, 0, 64, 127
2, 26826, Note_on_c, 0, 56, 0
2, 26832, Note_on_c, 0, 46, 50
2, 26835, Note_on_c, 0, 59, 0
2, 26838, Note_on_c, 0, 62, 0
2, 26847, Note_on_c, 0, 46, 0
2, 26857, Control_c, 0, 64, 0
2, 26888, Note_on_c, 0, 55, 48
2, 26891, Note_on_c, 0, 67, 71
2, 26891, Note_on_c, 0, 60, 50
2, 26895, Note_on_c, 0, 62, 58
2, 26896, Control_c, 0, 64, 0
2, 26896, Note_on_c, 0, 74, 64
2, 26898, Note_on_c, 0, 65, 71
2, 26901, Note_on_c, 0, 79, 71
2, 26948, Control_c, 0, 64, 127
2, 26981, Note_on_c, 0, 65, 0
2, 26982, Note_on_c, 0, 60, 0
2, 26983, Note_on_c, 0, 62, 0
2, 27014, Note_on_c, 0, 62, 41
2, 27015, Note_on_c, 0, 65, 34
2, 27017, Note_on_c, 0, 60, 38
2, 27063, Note_on_c, 0, 67, 0
2, 27069, Note_on_c, 0, 79, 0
2, 27070, Note_on_c, 0, 62, 0
2, 27073, Note_on_c, 0, 74, 0
2, 27074, Note_on_c, 0, 65, 0
2, 27075, Note_on_c, 0, 55, 0
2, 27081, Note_on_c, 0, 60, 0
2, 27128, Note_on_c, 0, 56, 73
2, 27128, Note_on_c, 0, 63, 70
2, 27128, Note_on_c, 0, 67, 83
2, 27128, Note_on_c, 0, 80, 80
2, 27129, Note_on_c, 0, 60, 76
2, 27129, Note_on_c, 0, 75, 81
2, 27129, Note_on_c, 0, 68, 86
2, 27132, Control_c, 0, 64, 0
2, 27146, Control_c, 0, 64, 127
2, 27159, Note_on_c, 0, 80, 0
2, 27160, Note_on_c, 0, 68, 0
2, 27183, Note_on_c, 0, 82, 81
2, 27200, Note_on_c, 0, 67, 0
2, 27205, Note_on_c, 0, 63, 0
2, 27206, Note_on_c, 0, 60, 0
2, 27239, Note_on_c, 0, 63, 37
2, 27241, Note_on_c, 0, 67, 36
2, 27242, Note_on_c, 0, 60, 45
2, 27277, Note_on_c, 0, 82, 0
2, 27281, Note_on_c, 0, 75, 0
2, 27286, Note_on_c, 0, 67, 0
2, 27287, Note_on_c, 0, 79, 74
2, 27298, Note_on_c, 0, 63, 0
2, 27303, Note_on_c, 0, 60, 0
2, 27316, Note_on_c, 0, 79, 0
2, 27317, Note_on_c, 0, 56, 0
2, 27323, Note_on_c, 0, 80, 67
2, 27354, Note_on_c, 0, 80, 0
2, 27364, Note_on_c, 0, 75, 47
2, 27365, Control_c, 0, 64, 0
2, 27365, Note_on_c, 0, 82, 46
2, 27365, Note_on_c, 0, 63, 32
2, 27365, Note_on_c, 0, 79, 46
2, 27366, Note_on_c, 0, 59, 44
2, 27367, Note_on_c, 0, 71, 48
2, 27368, Note_on_c, 0, 53, 29
2, 27406, Control_c, 0, 64, 127
2, 27448, Note_on_c, 0, 63, 0
2, 27449, Note_on_c, 0, 59, 0
2, 27464, Note_on_c, 0, 79, 0
2, 27472, Note_on_c, 0, 82, 0
2, 27479, Note_on_c, 0, 75, 0
2, 27487, Note_on_c, 0, 63, 25
2, 27492, Note_on_c, 0, 59, 33
2, 27498, Note_on_c, 0, 71, 0
2, 27542, Note_on_c, 0, 63, 0
2, 27543, Note_on_c, 0, 53, 0
2, 27547, Note_on_c, 0, 59, 0
2, 27549, Note_on_c, 0, 70, 80
2, 27586, Note_on_c, 0, 70, 0
2, 27606, Note_on_c, 0, 72, 65
2, 27607, Note_on_c, 0, 63, 77
2, 27607, Note_on_c, 0, 67, 74
2, 27608, Note_on_c, 0, 70, 57
2, 27609, Note_on_c, 0, 60, 63
2, 27612, Control_c, 0, 64, 0
2, 27647, Control_c, 0, 64, 127
2, 27668, Note_on_c, 0, 60, 0
2, 27669, Note_on_c, 0, 48, 72
2, 27680, Note_on_c, 0, 67, 0
2, 27684, Note_on_c, 0, 48, 0
2, 27684, Note_on_c, 0, 63, 0
2, 27686, Note_on_c, 0, 72, 0
2, 27691, Note_on_c, 0, 70, 0
2, 27729, Note_on_c, 0, 75, 73
2, 27731, Note_on_c, 0, 72, 71
2, 27731, Note_on_c, 0, 68, 78
2, 27732, Note_on_c, 0, 63, 78
2, 27732, Note_on_c, 0, 64, 83
2, 27740, Control_c, 0, 64, 0
2, 27772, Control_c, 0, 64, 127
2, 27798, Note_on_c, 0, 60, 40
2, 27799, Note_on_c, 0, 64, 0
2, 27799, Note_on_c, 0, 63, 0
2, 27804, Note_on_c, 0, 60, 0
2, 27812, Note_on_c, 0, 72, 0
2, 27812, Note_on_c, 0, 68, 0
2, 27817, Note_on_c, 0, 75, 0
2, 27854, Note_on_c, 0, 79, 62
2, 27855, Note_on_c, 0, 53, 56
2, 27855, Note_on_c, 0, 75, 49
2, 27855, Note_on_c, 0, 72, 53
2, 27856, Note_on_c, 0, 68, 39
2, 27857, Note_on_c, 0, 63, 37
2, 27858, Control_c, 0, 64, 0
2, 27891, Control_c, 0, 64, 127
2, 27913, Note_on_c, 0, 63, 0
2, 27949, Note_on_c, 0, 68, 0
2, 27950, Note_on_c, 0, 72, 0
2, 27951, Note_on_c, 0, 79, 0
2, 27955, Note_on_c, 0, 75, 0
2, 27963, Note_on_c, 0, 63, 34
2, 27964, Note_on_c, 0, 68, 44
2, 27964, Note_on_c, 0, 75, 44
2, 27966, Note_on_c, 0, 77, 53
2, 27966, Note_on_c, 0, 72, 36
2, 27973, Note_on_c, 0, 60, 22
2, 28013, Note_on_c, 0, 60, 0
2, 28014, Note_on_c, 0, 53, 0
2, 28020, Note_on_c, 0, 63, 0
2, 28024, Note_on_c, 0, 72, 0
2, 28027, Note_on_c, 0, 68, 0
2, 28035, Note_on_c, 0, 75, 0
2, 28058, Note_on_c, 0, 77, 0
2, 28062, Note_on_c, 0, 55, 65
2, 28068, Note_on_c, 0, 58, 58
2, 28074, Note_on_c, 0, 61, 39
2, 28076, Note_on_c, 0, 67, 64
2, 28078, Note_on_c, 0, 73, 52
2, 28079, Note_on_c, 0, 76, 80
2, 28079, Note_on_c, 0, 64, 71
2, 28082, Note_on_c, 0, 79, 73
2, 28083, Control_c, 0, 64, 0
2, 28105, Control_c, 0, 64, 127
2, 28131, Note_on_c, 0, 79, 0
2, 28134, Note_on_c, 0, 64, 0
2, 28137, Note_on_c, 0, 76, 0
2, 28177, Note_on_c, 0, 61, 0
2, 28177, Note_on_c, 0, 67, 0
2, 28182, Note_on_c, 0, 58, 0
2, 28194, Note_on_c, 0, 73, 0
2, 28205, Note_on_c, 0, 61, 37
2, 28206, Note_on_c, 0, 58, 25
2, 28207, Note_on_c, 0, 64, 33
2, 28245, Note_on_c, 0, 80, 79
2, 28289, Note_on_c, 0, 77, 54
2, 28290, Note_on_c, 0, 61, 0
2, 28291, Note_on_c, 0, 64, 0
2, 28295, Note_on_c, 0, 55, 0
2, 28295, Note_on_c, 0, 58, 0
2, 28300, Note_on_c, 0, 80, 0
2, 28314, Note_on_c, 0, 79, 63
2, 28321, Note_on_c, 0, 77, 0
2, 28333, Note_on_c, 0, 79, 0
2, 28340, Note_on_c, 0, 80, 70
2, 28343, Control_c, 0, 64, 0
2, 28388, Note_on_c, 0, 63, 31
2, 28388, Note_on_c, 0, 75, 56
2, 28389, Note_on_c, 0, 72, 40
2, 28390, Note_on_c, 0, 53, 22
2, 28397, Control_c, 0, 64, 127
2, 28427, Note_on_c, 0, 75, 0
2, 28427, Note_on_c, 0, 80, 0
2, 28431, Note_on_c, 0, 72, 0
2, 28448, Note_on_c, 0, 68, 49
2, 28449, Note_on_c, 0, 63, 0
2, 28458, Note_on_c, 0, 60, 19
2, 28492, Note_on_c, 0, 68, 0
2, 28504, Note_on_c, 0, 63, 36
2, 28505, Note_on_c, 0, 68, 37
2, 28507, Note_on_c, 0, 72, 40
2, 28512, Note_on_c, 0, 60, 0
2, 28515, Note_on_c, 0, 53, 0
2, 28517, Note_on_c, 0, 63, 0
2, 28519, Note_on_c, 0, 72, 0
2, 28521, Note_on_c, 0, 68, 0
2, 28567, Note_on_c, 0, 67, 49
2, 28568, Note_on_c, 0, 62, 42
2, 28570, Note_on_c, 0, 56, 33
2, 28571, Note_on_c, 0, 46, 29
2, 28576, Control_c, 0, 64, 0
2, 28603, Control_c, 0, 64, 127
2, 28616, Note_on_c, 0, 46, 0
2, 28620, Note_on_c, 0, 56, 0
2, 28622, Note_on_c, 0, 62, 0
2, 28627, Note_on_c, 0, 71, 58
2, 28631, Note_on_c, 0, 67, 0
2, 28640, Note_on_c, 0, 71, 0
2, 28687, Note_on_c, 0, 86, 65
2, 28687, Note_on_c, 0, 67, 44
2, 28688, Note_on_c, 0, 83, 45
2, 28689, Note_on_c, 0, 79, 54
2, 28689, Note_on_c, 0, 62, 33
2, 28691, Note_on_c, 0, 74, 45
2, 28691, Note_on_c, 0, 56, 25
2, 28698, Note_on_c, 0, 62, 0
2, 28701, Note_on_c, 0, 67, 0
2, 28706, Note_on_c, 0, 86, 0
2, 28707, Note_on_c, 0, 74, 0
2, 28707, Note_on_c, 0, 56, 0
2, 28709, Note_on_c, 0, 79, 0
2, 28712, Note_on_c, 0, 83, 0
2, 28782, Note_on_c, 0, 91, 66
2, 28783, Note_on_c, 0, 79, 55
2, 28791, Note_on_c, 0, 79, 0
2, 28792, Note_on_c, 0, 91, 0
2, 28812, Note_on_c, 0, 56, 39
2, 28812, Note_on_c, 0, 67, 58
2, 28813, Note_on_c, 0, 60, 64
2, 28813, Note_on_c, 0, 63, 46
2, 28813, Note_on_c, 0, 92, 72
2, 28814, Control_c, 0, 64, 0
2, 28815, Note_on_c, 0, 80, 43
2, 28816, Note_on_c, 0, 87, 57
2, 28830, Control_c, 0, 64, 127
2, 28851, Note_on_c, 0, 87, 0
2, 28852, Note_on_c, 0, 92, 0
2, 28852, Note_on_c, 0, 60, 0
2, 28852, Note_on_c, 0, 80, 0
2, 28853, Note_on_c, 0, 56, 0
2, 28854, Note_on_c, 0, 67, 0
2, 28856, Note_on_c, 0, 63, 0
2, 28872, Note_on_c, 0, 92, 72
2, 28873, Note_on_c, 0, 63, 59
2, 28873, Note_on_c, 0, 67, 71
2, 28873, Note_on_c, 0, 56, 63
2, 28874, Note_on_c, 0, 60, 71
2, 28874, Note_on_c, 0, 80, 56
2, 28875, Note_on_c, 0, 87, 69
2, 28878, Control_c, 0, 64, 0
2, 28893, Control_c, 0, 64, 127
2, 28914, Note_on_c, 0, 56, 0
2, 28915, Note_on_c, 0, 60, 0
2, 28915, Note_on_c, 0, 80, 0
2, 28916, Note_on_c, 0, 67, 0
2, 28916, Note_on_c, 0, 87, 0
2, 28916, Note_on_c, 0, 92, 0
2, 28917, Note_on_c, 0, 63, 0
2, 28934, Note_on_c, 0, 56, 58
2, 28934, Note_on_c, 0, 67, 68
2, 28934, Note_on_c, 0, 92, 69
2, 28934, Note_on_c, 0, 63, 52
2, 28935, Note_on_c, 0, 60, 61
2, 28935, Note_on_c, 0, 87, 70
2, 28936, Note_on_c, 0, 80, 48
2, 28938, Control_c, 0, 64, 0
2, 28952, Control_c, 0, 64, 127
2, 28978, Note_on_c, 0, 60, 0
2, 28979, Note_on_c, 0, 87, 0
2, 28980, Note_on_c, 0, 63, 0
2, 28980, Note_on_c, 0, 67, 0
2, 28981, Note_on_c, 0, 80, 0
2, 28982, Note_on_c, 0, 92, 0
2, 28983, Note_on_c, 0, 56, 0
2, 29025, Note_on_c, 0, 92, 75
2, 29026, Note_on_c, 0, 80, 71
2, 29026, Note_on_c, 0, 87, 73
2, 29027, Note_on_c, 0, 63, 67
2, 29027, Note_on_c, 0, 67, 75
2, 29027, Note_on_c, 0, 56, 62
2, 29032, Note_on_c, 0, 67, 0
2, 29033, Note_on_c, 0, 80, 0
2, 29037, Note_on_c, 0, 63, 0
2, 29037, Note_on_c, 0, 87, 0
2, 29039, Note_on_c, 0, 92, 0
2, 29042, Note_on_c, 0, 56, 0
2, 29053, Note_on_c, 0, 61, 71
2, 29054, Note_on_c, 0, 55, 75
2, 29054, Note_on_c, 0, 64, 77
2, 29054, Note_on_c, 0, 58, 59
2, 29055, Note_on_c, 0, 94, 83
2, 29055, Note_on_c, 0, 82, 75
2, 29055, Note_on_c, 0, 87, 81
2, 29056, Control_c, 0, 64, 0
2, 29069, Control_c, 0, 64, 127
2, 29075, Note_on_c, 0, 87, 0
2, 29082, Note_on_c, 0, 82, 0
2, 29084, Note_on_c, 0, 94, 0
2, 29086, Note_on_c, 0, 55, 0
2, 29088, Note_on_c, 0, 64, 0
2, 29089, Note_on_c, 0, 61, 0
2, 29091, Note_on_c, 0, 58, 0
2, 29096, Note_on_c, 0, 96, 68
2, 29098, Note_on_c, 0, 61, 62
2, 29098, Note_on_c, 0, 84, 66
2, 29098, Note_on_c, 0, 64, 60
2, 29098, Note_on_c, 0, 58, 48
2, 29098, Note_on_c, 0, 55, 46
2, 29102, Control_c, 0, 64, 0
2, 29116, Control_c, 0, 64, 127
2, 29126, Note_on_c, 0, 96, 0
2, 29135, Note_on_c, 0, 84, 0
2, 29143, Note_on_c, 0, 64, 0
2, 29145, Note_on_c, 0, 58, 0
2, 29148, Note_on_c, 0, 55, 0
2, 29148, Note_on_c, 0, 61, 0
2, 29163, Note_on_c, 0, 92, 56
2, 29165, Note_on_c, 0, 80, 37
2, 29166, Note_on_c, 0, 61, 51
2, 29167, Note_on_c, 0, 55, 44
2, 29167, Note_on_c, 0, 64, 44
2, 29167, Note_on_c, 0, 58, 39
2, 29168, Control_c, 0, 64, 0
2, 29169, Note_on_c, 0, 87, 37
2, 29175, Control_c, 0, 64, 127
2, 29193, Note_on_c, 0, 80, 0
2, 29196, Note_on_c, 0, 92, 0
2, 29196, Note_on_c, 0, 87, 0
2, 29198, Note_on_c, 0, 64, 0
2, 29199, Note_on_c, 0, 58, 0
2, 29201, Note_on_c, 0, 55, 0
2, 29203, Note_on_c, 0, 61, 0
2, 29225, Note_on_c, 0, 94, 64
2, 29225, Note_on_c, 0, 61, 46
2, 29226, Note_on_c, 0, 82, 47
2, 29226, Note_on_c, 0, 64, 53
2, 29227, Note_on_c, 0, 58, 39
2, 29232, Note_on_c, 0, 55, 19
2, 29233, Note_on_c, 0, 64, 0
2, 29239, Note_on_c, 0, 61, 0
2, 29239, Note_on_c, 0, 55, 0
2, 29241, Note_on_c, 0, 82, 0
2, 29243, Note_on_c, 0, 58, 0
2, 29245, Note_on_c, 0, 94, 0
2, 29286, Control_c, 0, 64, 0
2, 29286, Note_on_c, 0, 44, 53
2, 29287, Note_on_c, 0, 96, 70
2, 29287, Note_on_c, 0, 55, 63
2, 29288, Note_on_c, 0, 91, 62
2, 29288, Note_on_c, 0, 84, 55
2, 29304, Note_on_c, 0, 96, 0
2, 29305, Control_c, 0, 64, 127
2, 29309, Note_on_c, 0, 91, 0
2, 29316, Note_on_c, 0, 84, 0
2, 29350, Note_on_c, 0, 51, 72
2, 29354, Note_on_c, 0, 55, 0
2, 29407, Note_on_c, 0, 63, 60
2, 29407, Note_on_c, 0, 53, 62
2, 29408, Note_on_c, 0, 60, 64
2, 29411, Note_on_c, 0, 51, 0
2, 29415, Control_c, 0, 64, 0
2, 29430, Control_c, 0, 64, 127
2, 29444, Note_on_c, 0, 53, 0
2, 29465, Note_on_c, 0, 55, 83
2, 29484, Note_on_c, 0, 44, 0
2, 29494, Note_on_c, 0, 60, 0
2, 29501, Note_on_c, 0, 55, 0
2, 29503, Note_on_c, 0, 63, 0
2, 29522, Note_on_c, 0, 65, 82
2, 29523, Note_on_c, 0, 46, 51
2, 29523, Note_on_c, 0, 56, 68
2, 29524, Note_on_c, 0, 63, 79
2, 29524, Note_on_c, 0, 60, 80
2, 29528, Control_c, 0, 64, 0
2, 29560, Control_c, 0, 64, 127
2, 29575, Note_on_c, 0, 46, 0
2, 29586, Note_on_c, 0, 46, 67
2, 29618, Note_on_c, 0, 60, 0
2, 29619, Note_on_c, 0, 65, 0
2, 29626, Note_on_c, 0, 63, 0
2, 29629, Note_on_c, 0, 56, 0
2, 29646, Note_on_c, 0, 56, 64
2, 29647, Note_on_c, 0, 62, 115
2, 29679, Note_on_c, 0, 62, 0
2, 29689, Note_on_c, 0, 65, 89
2, 29707, Note_on_c, 0, 65, 0
2, 29714, Note_on_c, 0, 56, 0
2, 29724, Note_on_c, 0, 46, 0
2, 29726, Note_on_c, 0, 72, 90
2, 29742, Note_on_c, 0, 72, 0
2, 29765, Note_on_c, 0, 70, 71
2, 29767, Note_on_c, 0, 43, 54
2, 29773, Control_c, 0, 64, 0
2, 29797, Control_c, 0, 64, 127
2, 29827, Note_on_c, 0, 62, 51
2, 29827, Note_on_c, 0, 58, 45
2, 29829, Note_on_c, 0, 53, 43
2, 29864, Note_on_c, 0, 53, 0
2, 29869, Note_on_c, 0, 62, 0
2, 29872, Note_on_c, 0, 58, 0
2, 29886, Note_on_c, 0, 62, 47
2, 29887, Note_on_c, 0, 58, 37
2, 29887, Note_on_c, 0, 53, 44
2, 29918, Note_on_c, 0, 43, 0
2, 29945, Note_on_c, 0, 43, 51
2, 29949, Note_on_c, 0, 62, 0
2, 29951, Note_on_c, 0, 43, 0
2, 29955, Note_on_c, 0, 58, 0
2, 29958, Note_on_c, 0, 53, 0
2, 29970, Note_on_c, 0, 70, 0
2, 30006, Note_on_c, 0, 68, 78
2, 30006, Note_on_c, 0, 63, 87
2, 30007, Note_on_c, 0, 60, 89
2, 30011, Note_on_c, 0, 58, 59
2, 30014, Control_c, 0, 64, 0
2, 30044, Control_c, 0, 64, 127
2, 30063, Note_on_c, 0, 68, 0
2, 30069, Note_on_c, 0, 70, 67
2, 30072, Note_on_c, 0, 68, 32
2, 30084, Note_on_c, 0, 58, 0
2, 30089, Note_on_c, 0, 60, 0
2, 30092, Note_on_c, 0, 70, 0
2, 30096, Note_on_c, 0, 68, 0
2, 30100, Note_on_c, 0, 63, 0
2, 30128, Note_on_c, 0, 62, 62
2, 30128, Note_on_c, 0, 56, 46
2, 30128, Note_on_c, 0, 67, 62
2, 30128, Note_on_c, 0, 59, 58
2, 30129, Note_on_c, 0, 46, 37
2, 30132, Control_c, 0, 64, 0
2, 30157, Control_c, 0, 64, 127
2, 30179, Note_on_c, 0, 67, 0
2, 30181, Note_on_c, 0, 59, 0
2, 30186, Note_on_c, 0, 68, 70
2, 30191, Note_on_c, 0, 62, 0
2, 30191, Note_on_c, 0, 56, 0
2, 30205, Note_on_c, 0, 68, 0
2, 30207, Note_on_c, 0, 46, 0
2, 30243, Note_on_c, 0, 70, 81
2, 30243, Note_on_c, 0, 65, 80
2, 30243, Note_on_c, 0, 60, 83
2, 30244, Note_on_c, 0, 55, 74
2, 30247, Control_c, 0, 64, 0
2, 30283, Control_c, 0, 64, 127
2, 30297, Note_on_c, 0, 55, 0
2, 30310, Note_on_c, 0, 55, 94
2, 30331, Note_on_c, 0, 65, 0
2, 30332, Note_on_c, 0, 60, 0
2, 30362, Note_on_c, 0, 70, 0
2, 30366, Note_on_c, 0, 70, 23
2, 30367, Note_on_c, 0, 65, 69
2, 30367, Note_on_c, 0, 60, 71
2, 30433, Note_on_c, 0, 60, 0
2, 30440, Note_on_c, 0, 65, 0
2, 30446, Note_on_c, 0, 55, 0
2, 30447, Note_on_c, 0, 70, 0
2, 30483, Control_c, 0, 64, 0
2, 30485, Note_on_c, 0, 45, 76
2, 30495, Note_on_c, 0, 45, 0
2, 30498, Control_c, 0, 64, 127
2, 30550, Note_on_c, 0, 65, 46
2, 30550, Note_on_c, 0, 60, 36
2, 30550, Note_on_c, 0, 84, 56
2, 30550, Note_on_c, 0, 77, 45
2, 30551, Note_on_c, 0, 81, 49
2, 30552, Note_on_c, 0, 61, 37
2, 30552, Note_on_c, 0, 72, 34
2, 30553, Note_on_c, 0, 55, 47
2, 30581, Note_on_c, 0, 61, 0
2, 30586, Note_on_c, 0, 55, 0
2, 30587, Note_on_c, 0, 65, 0
2, 30588, Note_on_c, 0, 77, 0
2, 30588, Note_on_c, 0, 72, 0
2, 30589, Note_on_c, 0, 60, 0
2, 30589, Note_on_c, 0, 84, 0
2, 30593, Note_on_c, 0, 81, 0
2, 30613, Note_on_c, 0, 84, 48
2, 30614, Note_on_c, 0, 65, 49
2, 30614, Note_on_c, 0, 77, 50
2, 30614, Note_on_c, 0, 60, 45
2, 30614, Note_on_c, 0, 72, 36
2, 30615, Note_on_c, 0, 81, 42
2, 30616, Note_on_c, 0, 61, 35
2, 30617, Note_on_c, 0, 55, 35
2, 30634, Note_on_c, 0, 65, 0
2, 30636, Note_on_c, 0, 60, 0
2, 30637, Note_on_c, 0, 61, 0
2, 30641, Note_on_c, 0, 84, 0
2, 30644, Note_on_c, 0, 55, 0
2, 30646, Note_on_c, 0, 72, 0
2, 30646, Note_on_c, 0, 77, 0
2, 30647, Note_on_c, 0, 81, 0
2, 30731, Note_on_c, 0, 51, 35
2, 30731, Note_on_c, 0, 60, 36
2, 30732, Note_on_c, 0, 55, 29
2, 30733, Note_on_c, 0, 58, 34
2, 30733, Note_on_c, 0, 44, 35
2, 30738, Control_c, 0, 64, 0
2, 30789, Control_c, 0, 64, 127
2, 30822, Note_on_c, 0, 55, 0
2, 30822, Note_on_c, 0, 60, 0
2, 30828, Note_on_c, 0, 58, 0
2, 30856, Note_on_c, 0, 58, 30
2, 30857, Note_on_c, 0, 60, 34
2, 30858, Note_on_c, 0, 55, 22
2, 30904, Note_on_c, 0, 44, 0
2, 30913, Note_on_c, 0, 51, 0
2, 30913, Note_on_c, 0, 55, 0
2, 30924, Note_on_c, 0, 58, 0
2, 30929, Note_on_c, 0, 60, 0
2, 30969, Note_on_c, 0, 58, 45
2, 30970, Note_on_c, 0, 56, 27
2, 30970, Note_on_c, 0, 46, 36
2, 30970, Note_on_c, 0, 62, 46
2, 30972, Note_on_c, 0, 53, 33
2, 30976, Control_c, 0, 64, 0
2, 31012, Control_c, 0, 64, 127
2, 31114, Note_on_c, 0, 58, 0
2, 31115, Note_on_c, 0, 53, 0
2, 31118, Note_on_c, 0, 56, 0
2, 31135, Note_on_c, 0, 46, 0
2, 31146, Note_on_c, 0, 58, 55
2, 31147, Note_on_c, 0, 62, 0
2, 31187, Note_on_c, 0, 58, 0
2, 31209, Note_on_c, 0, 53, 46
2, 31213, Control_c, 0, 64, 0
2, 31213, Note_on_c, 0, 50, 32
2, 31213, Note_on_c, 0, 43, 40
2, 31239, Control_c, 0, 64, 127
2, 31261, Note_on_c, 0, 53, 0
2, 31290, Note_on_c, 0, 50, 0
2, 31339, Note_on_c, 0, 53, 36
2, 31388, Note_on_c, 0, 43, 0
2, 31390, Note_on_c, 0, 65, 81
2, 31400, Note_on_c, 0, 53, 0
2, 31409, Note_on_c, 0, 65, 0
2, 31448, Note_on_c, 0, 67, 64
2, 31450, Note_on_c, 0, 63, 54
2, 31450, Note_on_c, 0, 48, 33
2, 31451, Control_c, 0, 64, 0
2, 31451, Note_on_c, 0, 58, 55
2, 31454, Note_on_c, 0, 55, 48
2, 31485, Control_c, 0, 64, 127
2, 31505, Note_on_c, 0, 55, 0
2, 31518, Note_on_c, 0, 67, 0
2, 31525, Note_on_c, 0, 58, 0
2, 31530, Note_on_c, 0, 63, 0
2, 31551, Note_on_c, 0, 48, 0
2, 31567, Note_on_c, 0, 63, 40
2, 31569, Note_on_c, 0, 58, 46
2, 31570, Note_on_c, 0, 48, 34
2, 31570, Note_on_c, 0, 55, 39
2, 31585, Note_on_c, 0, 48, 0
2, 31630, Note_on_c, 0, 55, 0
2, 31636, Note_on_c, 0, 58, 0
2, 31658, Note_on_c, 0, 63, 0
2, 31685, Note_on_c, 0, 53, 44
2, 31685, Note_on_c, 0, 60, 60
2, 31686, Note_on_c, 0, 56, 37
2, 31687, Note_on_c, 0, 51, 34
2, 31688, Control_c, 0, 64, 0
2, 31731, Control_c, 0, 64, 127
2, 31772, Note_on_c, 0, 56, 0
2, 31773, Note_on_c, 0, 53, 0
2, 31778, Note_on_c, 0, 60, 0
2, 31804, Note_on_c, 0, 56, 36
2, 31806, Note_on_c, 0, 53, 41
2, 31815, Note_on_c, 0, 51, 0
2, 31826, Note_on_c, 0, 53, 0
2, 31835, Note_on_c, 0, 56, 0
2, 31867, Note_on_c, 0, 70, 59
2, 31886, Note_on_c, 0, 70, 0
2, 31926, Note_on_c, 0, 70, 50
2, 31928, Note_on_c, 0, 56, 38
2, 31929, Note_on_c, 0, 60, 39
2, 31929, Note_on_c, 0, 63, 30
2, 31930, Note_on_c, 0, 46, 33
2, 31930, Note_on_c, 0, 67, 32
2, 31931, Control_c, 0, 64, 0
2, 31970, Control_c, 0, 64, 127
2, 31998, Note_on_c, 0, 67, 0
2, 31998, Note_on_c, 0, 60, 0
2, 32004, Note_on_c, 0, 56, 0
2, 32013, Note_on_c, 0, 63, 0
2, 32032, Note_on_c, 0, 70, 0
2, 32045, Note_on_c, 0, 68, 43
2, 32047, Note_on_c, 0, 63, 37
2, 32047, Note_on_c, 0, 60, 42
2, 32047, Note_on_c, 0, 56, 32
2, 32064, Note_on_c, 0, 56, 0
2, 32074, Note_on_c, 0, 46, 0
2, 32102, Note_on_c, 0, 68, 0
2, 32110, Note_on_c, 0, 60, 0
2, 32123, Note_on_c, 0, 63, 0
2, 32168, Note_on_c, 0, 64, 58
2, 32169, Note_on_c, 0, 59, 58
2, 32169, Note_on_c, 0, 67, 58
2, 32169, Note_on_c, 0, 53, 44
2, 32170, Note_on_c, 0, 43, 46
2, 32172, Control_c, 0, 64, 0
2, 32206, Control_c, 0, 64, 127
2, 32294, Note_on_c, 0, 63, 82
2, 32298, Note_on_c, 0, 64, 0
2, 32337, Note_on_c, 0, 43, 0
2, 32360, Note_on_c, 0, 53, 0
2, 32398, Note_on_c, 0, 59, 0
2, 32410, Note_on_c, 0, 63, 0
2, 32413, Note_on_c, 0, 62, 60
2, 32414, Note_on_c, 0, 48, 43
2, 32415, Note_on_c, 0, 58, 55
2, 32421, Control_c, 0, 64, 0
2, 32453, Control_c, 0, 64, 127
2, 32475, Note_on_c, 0, 62, 0
2, 32480, Note_on_c, 0, 58, 0
2, 32534, Note_on_c, 0, 61, 60
2, 32534, Note_on_c, 0, 58, 47
2, 32545, Control_c, 0, 64, 0
2, 32568, Control_c, 0, 64, 127
2, 32589, Note_on_c, 0, 48, 0
2, 32621, Note_on_c, 0, 58, 0
2, 32627, Note_on_c, 0, 67, 0
2, 32632, Note_on_c, 0, 61, 0
2, 32657, Note_on_c, 0, 56, 43
2, 32658, Note_on_c, 0, 60, 59
2, 32659, Note_on_c, 0, 51, 34
2, 32660, Control_c, 0, 64, 0
2, 32661, Note_on_c, 0, 41, 36
2, 32681, Control_c, 0, 64, 127
2, 32720, Note_on_c, 0, 56, 0
2, 32726, Note_on_c, 0, 60, 0
2, 32759, Note_on_c, 0, 51, 0
2, 32776, Note_on_c, 0, 41, 0
2, 32781, Note_on_c, 0, 68, 80
2, 32782, Note_on_c, 0, 63, 83
2, 32783, Note_on_c, 0, 60, 80
2, 32833, Note_on_c, 0, 60, 0
2, 32841, Note_on_c, 0, 68, 0
2, 32846, Note_on_c, 0, 63, 0
2, 32908, Note_on_c, 0, 64, 83
2, 32908, Note_on_c, 0, 70, 81
2, 32909, Note_on_c, 0, 61, 84
2, 32910, Control_c, 0, 64, 0
2, 32910, Note_on_c, 0, 48, 49
2, 32911, Note_on_c, 0, 58, 61
2, 32921, Control_c, 0, 64, 127
2, 32943, Note_on_c, 0, 61, 0
2, 32944, Note_on_c, 0, 64, 0
2, 32948, Note_on_c, 0, 70, 0
2, 32969, Note_on_c, 0, 72, 87
2, 32970, Note_on_c, 0, 58, 0
2, 33009, Note_on_c, 0, 72, 0
2, 33033, Note_on_c, 0, 68, 79
2, 33036, Note_on_c, 0, 58, 38
2, 33053, Note_on_c, 0, 48, 0
2, 33059, Note_on_c, 0, 58, 0
2, 33093, Note_on_c, 0, 68, 0
2, 33100, Note_on_c, 0, 70, 83
2, 33135, Note_on_c, 0, 70, 0
2, 33172, Note_on_c, 0, 65, 87
2, 33173, Control_c, 0, 64, 0
2, 33173, Note_on_c, 0, 72, 78
2, 33173, Note_on_c, 0, 41, 60
2, 33190, Control_c, 0, 64, 127
2, 33193, Note_on_c, 0, 41, 0
2, 33248, Note_on_c, 0, 56, 52
2, 33256, Note_on_c, 0, 65, 0
2, 33269, Note_on_c, 0, 72, 0
2, 33321, Note_on_c, 0, 68, 45
2, 33321, Note_on_c, 0, 63, 38
2, 33322, Note_on_c, 0, 65, 39
2, 33394, Note_on_c, 0, 63, 0
2, 33404, Note_on_c, 0, 75, 52
2, 33405, Note_on_c, 0, 60, 27
2, 33421, Note_on_c, 0, 60, 0
2, 33430, Note_on_c, 0, 56, 0
2, 33449, Note_on_c, 0, 65, 0
2, 33459, Note_on_c, 0, 75, 0
2, 33481, Note_on_c, 0, 68, 0
2, 33524, Note_on_c, 0, 34, 50
2, 33524, Note_on_c, 0, 74, 75
2, 33525, Note_on_c, 0, 46, 40
2, 33525, Note_on_c, 0, 71, 74
2, 33526, Note_on_c, 0, 67, 77
2, 33527, Note_on_c, 0, 62, 76
2, 33529, Control_c, 0, 64, 0
2, 33544, Control_c, 0, 64, 127
2, 33563, Note_on_c, 0, 34, 0
2, 33565, Note_on_c, 0, 62, 0
2, 33568, Note_on_c, 0, 74, 0
2, 33570, Note_on_c, 0, 46, 0
2, 33575, Note_on_c, 0, 71, 0
2, 33575, Note_on_c, 0, 67, 0
2, 33634, Note_on_c, 0, 75, 59
2, 33637, Note_on_c, 0, 71, 61
2, 33637, Note_on_c, 0, 67, 35
2, 33638, Note_on_c, 0, 62, 40
2, 33640, Note_on_c, 0, 56, 32
2, 33670, Note_on_c, 0, 62, 0
2, 33681, Note_on_c, 0, 56, 0
2, 33692, Note_on_c, 0, 75, 0
2, 33692, Note_on_c, 0, 71, 0
2, 33697, Note_on_c, 0, 67, 0
2, 33743, Note_on_c, 0, 67, 42
2, 33743, Note_on_c, 0, 72, 32
2, 33745, Note_on_c, 0, 60, 33
2, 33779, Note_on_c, 0, 60, 0
2, 33787, Note_on_c, 0, 67, 0
2, 33788, Note_on_c, 0, 72, 0
2, 33851, Note_on_c, 0, 74, 57
2, 33919, Note_on_c, 0, 74, 0
2, 34091, Note_on_c, 0, 75, 63
2, 34093, Note_on_c, 0, 39, 50
2, 34101, Control_c, 0, 64, 0
2, 34110, Control_c, 0, 64, 127
2, 34137, Note_on_c, 0, 39, 0
2, 34138, Note_on_c, 0, 46, 46
2, 34181, Note_on_c, 0, 46, 0
2, 34187, Note_on_c, 0, 55, 53
2, 34190, Note_on_c, 0, 75, 0
2, 34232, Note_on_c, 0, 55, 0
2, 34234, Note_on_c, 0, 58, 35
2, 34235, Note_on_c, 0, 82, 53
2, 34285, Note_on_c, 0, 74, 50
2, 34285, Note_on_c, 0, 79, 48
2, 34286, Note_on_c, 0, 62, 39
2, 34312, Note_on_c, 0, 82, 0
2, 34335, Note_on_c, 0, 67, 40
2, 34340, Note_on_c, 0, 62, 0
2, 34390, Note_on_c, 0, 86, 79
2, 34391, Note_on_c, 0, 62, 39
2, 34407, Note_on_c, 0, 58, 0
2, 34420, Note_on_c, 0, 79, 0
2, 34448, Note_on_c, 0, 82, 46
2, 34451, Note_on_c, 0, 58, 23
2, 34458, Note_on_c, 0, 62, 0
2, 34460, Note_on_c, 0, 67, 0
2, 34460, Note_on_c, 0, 58, 0
2, 34470, Note_on_c, 0, 86, 0
2, 34495, Note_on_c, 0, 74, 0
2, 34507, Note_on_c, 0, 82, 0
2, 34508, Note_on_c, 0, 80, 55
2, 34510, Note_on_c, 0, 68, 38
2, 34511, Note_on_c, 0, 63, 39
2, 34513, Note_on_c, 0, 60, 36
2, 34521, Control_c, 0, 64, 0
2, 34535, Control_c, 0, 64, 127
2, 34574, Note_on_c, 0, 82, 55
2, 34576, Note_on_c, 0, 60, 0
2, 34577, Note_on_c, 0, 58, 31
2, 34584, Note_on_c, 0, 80, 0
2, 34590, Note_on_c, 0, 68, 0
2, 34594, Note_on_c, 0, 63, 0
2, 34601, Note_on_c, 0, 58, 0
2, 34673, Note_on_c, 0, 34, 44
2, 34722, Note_on_c, 0, 34, 0
2, 34751, Note_on_c, 0, 34, 44
2, 34759, Note_on_c, 0, 34, 0
2, 34777, Note_on_c, 0, 82, 0
2, 34827, Note_on_c, 0, 75, 52
2, 34828, Note_on_c, 0, 68, 35
2, 34828, Note_on_c, 0, 72, 49
2, 34830, Note_on_c, 0, 60, 43
2, 34830, Note_on_c, 0, 63, 34
2, 34888, Note_on_c, 0, 68, 0
2, 34892, Note_on_c, 0, 60, 0
2, 34892, Note_on_c, 0, 79, 63
2, 34893, Note_on_c, 0, 72, 0
2, 34894, Note_on_c, 0, 63, 0
2, 34920, Note_on_c, 0, 75, 0
2, 34959, Note_on_c, 0, 34, 39
2, 34992, Note_on_c, 0, 34, 0
2, 35017, Note_on_c, 0, 79, 0
2, 35044, Note_on_c, 0, 34, 44
2, 35066, Note_on_c, 0, 34, 0
2, 35255, Note_on_c, 0, 39, 57
2, 35266, Note_on_c, 0, 47, 54
2, 35277, Note_on_c, 0, 55, 60
2, 35284, Note_on_c, 0, 59, 66
2, 35285, Note_on_c, 0, 50, 47
2, 35289, Note_on_c, 0, 62, 66
2, 35295, Note_on_c, 0, 67, 80
2, 35303, Control_c, 0, 64, 0
2, 35328, Control_c, 0, 64, 127
2, 35436, Note_on_c, 0, 67, 0
2, 35452, Note_on_c, 0, 65, 57
2, 35508, Note_on_c, 0, 65, 0
2, 35540, Note_on_c, 0, 63, 59
2, 35541, Note_on_c, 0, 62, 0
2, 35606, Note_on_c, 0, 63, 0
2, 35610, Note_on_c, 0, 50, 0
2, 35610, Note_on_c, 0, 62, 52
2, 35617, Note_on_c, 0, 47, 0
2, 35653, Note_on_c, 0, 39, 0
2, 35697, Note_on_c, 0, 55, 0
2, 35698, Note_on_c, 0, 59, 0
2, 35708, Note_on_c, 0, 62, 0
2, 35901, Note_on_c, 0, 39, 34
2, 35901, Note_on_c, 0, 65, 36
2, 35902, Note_on_c, 0, 46, 33
2, 35902, Note_on_c, 0, 53, 33
2, 35902, Note_on_c, 0, 58, 36
2, 35902, Note_on_c, 0, 55, 35
2, 35914, Control_c, 0, 64, 0
2, 35949, Control_c, 0, 64, 127
2, 35979, Note_on_c, 0, 46, 0
2, 35988, Note_on_c, 0, 39, 0
2, 36087, Note_on_c, 0, 58, 0
2, 36133, Note_on_c, 0, 58, 26
2, 36200, Note_on_c, 0, 53, 0
2, 36200, Note_on_c, 0, 55, 0
2, 36209, Note_on_c, 0, 58, 0
2, 36224, Note_on_c, 0, 27, 40
2, 36239, Note_on_c, 0, 65, 0
2, 36246, Note_on_c, 0, 27, 0
2, 36577, Control_c, 0, 64, 0
2, 36577, End_track
3, 0, Start_track
3, 0, Title_t, "A good 'growly' accoustic bass"
3, 0, Program_c, 1, 32
3, 1, Note_on_c, 1, 48, 96
3, 186, Note_on_c, 1, 41, 67
3, 190, Note_on_c, 1, 41, 0
3, 239, Note_on_c, 1, 48, 0
3, 248, Note_on_c, 1, 48, 94
3, 310, Note_on_c, 1, 50, 90
3, 318, Note_on_c, 1, 48, 0
3, 433, Note_on_c, 1, 53, 92
3, 441, Note_on_c, 1, 50, 0
3, 489, Note_on_c, 1, 58, 93
3, 490, Note_on_c, 1, 53, 0
3, 550, Note_on_c, 1, 58, 0
3, 556, Note_on_c, 1, 58, 97
3, 611, Note_on_c, 1, 58, 0
3, 617, Note_on_c, 1, 58, 83
3, 675, Note_on_c, 1, 58, 0
3, 679, Note_on_c, 1, 58, 56
3, 730, Note_on_c, 1, 58, 0
3, 736, Note_on_c, 1, 58, 73
3, 904, Note_on_c, 1, 43, 96
3, 956, Note_on_c, 1, 58, 0
3, 971, Note_on_c, 1, 43, 0
3, 973, Note_on_c, 1, 44, 93
3, 1081, Note_on_c, 1, 51, 94
3, 1106, Note_on_c, 1, 44, 0
3, 1198, Note_on_c, 1, 51, 0
3, 1199, Note_on_c, 1, 48, 88
3, 1382, Note_on_c, 1, 44, 93
3, 1391, Note_on_c, 1, 48, 0
3, 1438, Note_on_c, 1, 44, 0
3, 1446, Note_on_c, 1, 43, 96
3, 1450, Note_on_c, 1, 41, 34
3, 1455, Note_on_c, 1, 41, 0
3, 1618, Note_on_c, 1, 37, 56
3, 1634, Note_on_c, 1, 43, 0
3, 1636, Note_on_c, 1, 37, 0
3, 1644, Note_on_c, 1, 35, 64
3, 1676, Note_on_c, 1, 35, 0
3, 1677, Note_on_c, 1, 36, 74
3, 1911, Note_on_c, 1, 36, 0
3, 1929, Note_on_c, 1, 29, 88
3, 2164, Note_on_c, 1, 29, 0
3, 2169, Note_on_c, 1, 31, 103
3, 2346, Note_on_c, 1, 36, 91
3, 2353, Note_on_c, 1, 31, 0
3, 2402, Note_on_c, 1, 36, 0
3, 2405, Note_on_c, 1, 29, 88
3, 2642, Note_on_c, 1, 29, 0
3, 2642, Note_on_c, 1, 34, 88
3, 2764, Note_on_c, 1, 46, 91
3, 2889, Note_on_c, 1, 39, 85
3, 2892, Note_on_c, 1, 46, 0
3, 2895, Note_on_c, 1, 34, 0
3, 3360, Note_on_c, 1, 46, 90
3, 3365, Note_on_c, 1, 43, 39
3, 3370, Note_on_c, 1, 43, 0
3, 3413, Note_on_c, 1, 39, 0
3, 3485, Note_on_c, 1, 34, 83
3, 3587, Note_on_c, 1, 46, 0
3, 3801, Note_on_c, 1, 34, 0
3, 3845, Note_on_c, 1, 39, 92
3, 4088, Note_on_c, 1, 41, 99
3, 4094, Note_on_c, 1, 39, 0
3, 4330, Note_on_c, 1, 43, 115
3, 4333, Note_on_c, 1, 41, 0
3, 4537, Note_on_c, 1, 35, 55
3, 4567, Note_on_c, 1, 36, 91
3, 4568, Note_on_c, 1, 35, 0
3, 4570, Note_on_c, 1, 43, 0
3, 4814, Note_on_c, 1, 41, 108
3, 4840, Note_on_c, 1, 36, 0
3, 4988, Note_on_c, 1, 36, 92
3, 5040, Note_on_c, 1, 36, 0
3, 5051, Note_on_c, 1, 36, 94
3, 5058, Note_on_c, 1, 41, 0
3, 5281, Note_on_c, 1, 36, 0
3, 5284, Note_on_c, 1, 29, 92
3, 5522, Note_on_c, 1, 34, 84
3, 5526, Note_on_c, 1, 29, 0
3, 5707, Note_on_c, 1, 43, 113
3, 5769, Note_on_c, 1, 43, 0
3, 5773, Note_on_c, 1, 41, 99
3, 5777, Note_on_c, 1, 34, 0
3, 6005, Note_on_c, 1, 40, 92
3, 6008, Note_on_c, 1, 41, 0
3, 6168, Note_on_c, 1, 40, 0
3, 6168, Note_on_c, 1, 41, 78
3, 6200, Note_on_c, 1, 41, 0
3, 6203, Note_on_c, 1, 43, 87
3, 6204, Note_on_c, 1, 41, 52
3, 6210, Note_on_c, 1, 41, 0
3, 6236, Note_on_c, 1, 43, 0
3, 6242, Note_on_c, 1, 44, 82
3, 6396, Note_on_c, 1, 39, 56
3, 6409, Note_on_c, 1, 39, 0
3, 6428, Note_on_c, 1, 32, 77
3, 6484, Note_on_c, 1, 32, 0
3, 6484, Note_on_c, 1, 34, 86
3, 6486, Note_on_c, 1, 44, 0
3, 6610, Note_on_c, 1, 46, 87
3, 6744, Note_on_c, 1, 34, 0
3, 6793, Note_on_c, 1, 34, 77
3, 6800, Note_on_c, 1, 46, 0
3, 6907, Note_on_c, 1, 46, 87
3, 6958, Note_on_c, 1, 46, 0
3, 6965, Note_on_c, 1, 46, 81
3, 7122, Note_on_c, 1, 34, 0
3, 7143, Note_on_c, 1, 34, 52
3, 7200, Note_on_c, 1, 46, 0
3, 7203, Note_on_c, 1, 39, 79
3, 7207, Note_on_c, 1, 34, 0
3, 7443, Note_on_c, 1, 39, 0
3, 7445, Note_on_c, 1, 33, 85
3, 7665, Note_on_c, 1, 33, 0
3, 7690, Note_on_c, 1, 32, 95
3, 7926, Note_on_c, 1, 34, 92
3, 7931, Note_on_c, 1, 32, 0
3, 7937, Note_on_c, 1, 33, 11
3, 7943, Note_on_c, 1, 33, 0
3, 8049, Note_on_c, 1, 32, 92
3, 8057, Note_on_c, 1, 34, 0
3, 8165, Note_on_c, 1, 32, 0
3, 8170, Note_on_c, 1, 31, 79
3, 8332, Note_on_c, 1, 43, 88
3, 8365, Note_on_c, 1, 43, 0
3, 8365, Note_on_c, 1, 31, 0
3, 8369, Note_on_c, 1, 35, 82
3, 8409, Note_on_c, 1, 35, 0
3, 8410, Note_on_c, 1, 36, 90
3, 8584, Note_on_c, 1, 43, 105
3, 8601, Note_on_c, 1, 36, 0
3, 8641, Note_on_c, 1, 41, 92
3, 8643, Note_on_c, 1, 43, 0
3, 8882, Note_on_c, 1, 34, 86
3, 8895, Note_on_c, 1, 41, 0
3, 9132, Note_on_c, 1, 39, 97
3, 9189, Note_on_c, 1, 39, 0
3, 9195, Note_on_c, 1, 39, 84
3, 9196, Note_on_c, 1, 34, 0
3, 9605, Note_on_c, 1, 38, 103
3, 9612, Note_on_c, 1, 39, 0
3, 9963, Note_on_c, 1, 31, 90
3, 9972, Note_on_c, 1, 38, 0
3, 10085, Note_on_c, 1, 31, 0
3, 10086, Note_on_c, 1, 36, 105
3, 10213, Note_on_c, 1, 35, 96
3, 10219, Note_on_c, 1, 36, 0
3, 10329, Note_on_c, 1, 35, 0
3, 10333, Note_on_c, 1, 34, 83
3, 10454, Note_on_c, 1, 34, 0
3, 10455, Note_on_c, 1, 33, 78
3, 10573, Note_on_c, 1, 33, 0
3, 10574, Note_on_c, 1, 32, 84
3, 10744, Note_on_c, 1, 32, 0
3, 10750, Note_on_c, 1, 35, 87
3, 10806, Note_on_c, 1, 35, 0
3, 10808, Note_on_c, 1, 36, 101
3, 10926, Note_on_c, 1, 48, 108
3, 10997, Note_on_c, 1, 36, 0
3, 11036, Note_on_c, 1, 36, 40
3, 11042, Note_on_c, 1, 36, 0
3, 11048, Note_on_c, 1, 48, 0
3, 11049, Note_on_c, 1, 47, 91
3, 11282, Note_on_c, 1, 47, 0
3, 11285, Note_on_c, 1, 46, 77
3, 11527, Note_on_c, 1, 39, 94
3, 11562, Note_on_c, 1, 46, 0
3, 11762, Note_on_c, 1, 41, 101
3, 11768, Note_on_c, 1, 39, 0
3, 12005, Note_on_c, 1, 43, 110
3, 12009, Note_on_c, 1, 41, 0
3, 12252, Note_on_c, 1, 36, 92
3, 12253, Note_on_c, 1, 36, 85
3, 12265, Note_on_c, 1, 43, 0
3, 12361, Note_on_c, 1, 36, 0
3, 12424, Note_on_c, 1, 36, 0
3, 12428, Note_on_c, 1, 31, 87
3, 12488, Note_on_c, 1, 29, 81
3, 12490, Note_on_c, 1, 31, 0
3, 12723, Note_on_c, 1, 29, 0
3, 12728, Note_on_c, 1, 28, 90
3, 12956, Note_on_c, 1, 28, 0
3, 12958, Note_on_c, 1, 29, 92
3, 12960, Note_on_c, 1, 28, 36
3, 12965, Note_on_c, 1, 28, 0
3, 13120, Note_on_c, 1, 36, 71
3, 13129, Note_on_c, 1, 36, 0
3, 13162, Note_on_c, 1, 35, 82
3, 13169, Note_on_c, 1, 29, 0
3, 13204, Note_on_c, 1, 34, 74
3, 13205, Note_on_c, 1, 35, 0
3, 13442, Note_on_c, 1, 41, 92
3, 13443, Note_on_c, 1, 34, 0
3, 13686, Note_on_c, 1, 40, 88
3, 13692, Note_on_c, 1, 41, 0
3, 13936, Note_on_c, 1, 41, 94
3, 13943, Note_on_c, 1, 40, 0
3, 14163, Note_on_c, 1, 34, 87
3, 14165, Note_on_c, 1, 41, 0
3, 14283, Note_on_c, 1, 46, 83
3, 14292, Note_on_c, 1, 34, 0
3, 14407, Note_on_c, 1, 46, 0
3, 14408, Note_on_c, 1, 43, 83
3, 14646, Note_on_c, 1, 41, 94
3, 14651, Note_on_c, 1, 43, 0
3, 14828, Note_on_c, 1, 34, 74
3, 14832, Note_on_c, 1, 41, 0
3, 14887, Note_on_c, 1, 39, 91
3, 14894, Note_on_c, 1, 34, 0
3, 15131, Note_on_c, 1, 33, 81
3, 15138, Note_on_c, 1, 39, 0
3, 15371, Note_on_c, 1, 48, 115
3, 15376, Note_on_c, 1, 33, 0
3, 15546, Note_on_c, 1, 48, 0
3, 15552, Note_on_c, 1, 48, 99
3, 15608, Note_on_c, 1, 48, 0
3, 15615, Note_on_c, 1, 48, 89
3, 15674, Note_on_c, 1, 50, 88
3, 15685, Note_on_c, 1, 48, 0
3, 15733, Note_on_c, 1, 50, 0
3, 15736, Note_on_c, 1, 50, 63
3, 15790, Note_on_c, 1, 53, 67
3, 15793, Note_on_c, 1, 50, 0
3, 15846, Note_on_c, 1, 53, 0
3, 15848, Note_on_c, 1, 46, 74
3, 15899, Pitch_bend_c, 1, 8192
3, 15901, Pitch_bend_c, 1, 8192
3, 15902, Pitch_bend_c, 1, 8192
3, 15904, Pitch_bend_c, 1, 7680
3, 15906, Pitch_bend_c, 1, 7424
3, 15908, Pitch_bend_c, 1, 7296
3, 15909, Pitch_bend_c, 1, 7168
3, 15910, Pitch_bend_c, 1, 7040
3, 15911, Pitch_bend_c, 1, 6784
3, 15913, Pitch_bend_c, 1, 6656
3, 15916, Pitch_bend_c, 1, 6528
3, 15922, Pitch_bend_c, 1, 6400
3, 15924, Pitch_bend_c, 1, 6272
3, 15926, Pitch_bend_c, 1, 6144
3, 15942, Pitch_bend_c, 1, 6400
3, 15942, Pitch_bend_c, 1, 6656
3, 15943, Pitch_bend_c, 1, 6912
3, 15944, Pitch_bend_c, 1, 7424
3, 15945, Pitch_bend_c, 1, 8192
3, 15946, Pitch_bend_c, 1, 8192
3, 16203, Note_on_c, 1, 43, 91
3, 16211, Note_on_c, 1, 46, 0
3, 16325, Note_on_c, 1, 44, 81
3, 16326, Note_on_c, 1, 43, 0
3, 16495, Note_on_c, 1, 44, 0
3, 16503, Note_on_c, 1, 51, 87
3, 16562, Note_on_c, 1, 51, 0
3, 16567, Note_on_c, 1, 48, 80
3, 16624, Note_on_c, 1, 48, 0
3, 16630, Note_on_c, 1, 48, 89
3, 16688, Note_on_c, 1, 48, 0
3, 16688, Note_on_c, 1, 44, 77
3, 16746, Note_on_c, 1, 44, 0
3, 16753, Note_on_c, 1, 44, 83
3, 16809, Note_on_c, 1, 44, 0
3, 16812, Note_on_c, 1, 43, 88
3, 16932, Note_on_c, 1, 37, 83
3, 16955, Note_on_c, 1, 43, 0
3, 17053, Note_on_c, 1, 37, 0
3, 17054, Note_on_c, 1, 36, 94
3, 17170, Note_on_c, 1, 30, 91
3, 17177, Note_on_c, 1, 36, 0
3, 17282, Note_on_c, 1, 30, 0
3, 17285, Note_on_c, 1, 29, 80
3, 17529, Note_on_c, 1, 31, 95
3, 17535, Note_on_c, 1, 29, 0
3, 17765, Note_on_c, 1, 32, 93
3, 17772, Note_on_c, 1, 31, 0
3, 18008, Note_on_c, 1, 34, 84
3, 18013, Note_on_c, 1, 32, 0
3, 18128, Note_on_c, 1, 46, 91
3, 18181, Note_on_c, 1, 34, 0
3, 18365, Note_on_c, 1, 34, 74
3, 18368, Note_on_c, 1, 46, 0
3, 18477, Note_on_c, 1, 34, 0
3, 18484, Note_on_c, 1, 34, 71
3, 18791, Note_on_c, 1, 46, 84
3, 18800, Note_on_c, 1, 34, 0
3, 18906, Note_on_c, 1, 34, 78
3, 18911, Note_on_c, 1, 46, 0
3, 18954, Note_on_c, 1, 34, 0
3, 18962, Note_on_c, 1, 34, 70
3, 19140, Note_on_c, 1, 34, 0
3, 19141, Note_on_c, 1, 38, 74
3, 19201, Note_on_c, 1, 38, 0
3, 19202, Note_on_c, 1, 39, 78
3, 19444, Note_on_c, 1, 41, 95
3, 19451, Note_on_c, 1, 39, 0
3, 19684, Note_on_c, 1, 43, 89
3, 19686, Note_on_c, 1, 41, 0
3, 19869, Note_on_c, 1, 36, 91
3, 19907, Note_on_c, 1, 43, 0
3, 19999, Note_on_c, 1, 52, 90
3, 20098, Note_on_c, 1, 36, 0
3, 20110, Note_on_c, 1, 36, 74
3, 20165, Note_on_c, 1, 36, 0
3, 20166, Note_on_c, 1, 41, 90
3, 20167, Note_on_c, 1, 52, 0
3, 20395, Note_on_c, 1, 41, 0
3, 20398, Note_on_c, 1, 40, 74
3, 20638, Note_on_c, 1, 41, 92
3, 20640, Note_on_c, 1, 40, 0
3, 20822, Note_on_c, 1, 34, 83
3, 20824, Note_on_c, 1, 41, 0
3, 20950, Note_on_c, 1, 46, 94
3, 21017, Note_on_c, 1, 34, 0
3, 21092, Note_on_c, 1, 39, 43
3, 21105, Note_on_c, 1, 46, 0
3, 21108, Note_on_c, 1, 39, 0
3, 21114, Note_on_c, 1, 40, 62
3, 21132, Note_on_c, 1, 41, 82
3, 21136, Note_on_c, 1, 40, 0
3, 21337, Note_on_c, 1, 41, 0
3, 21339, Note_on_c, 1, 39, 57
3, 21355, Note_on_c, 1, 39, 0
3, 21359, Note_on_c, 1, 40, 62
3, 21483, Note_on_c, 1, 37, 52
3, 21486, Note_on_c, 1, 40, 0
3, 21603, Note_on_c, 1, 37, 0
3, 21603, Note_on_c, 1, 32, 67
3, 21701, Note_on_c, 1, 39, 38
3, 21716, Note_on_c, 1, 32, 0
3, 21719, Note_on_c, 1, 39, 0
3, 21720, Note_on_c, 1, 44, 82
3, 21726, Note_on_c, 1, 32, 27
3, 21730, Note_on_c, 1, 32, 0
3, 21823, Note_on_c, 1, 34, 37
3, 21835, Note_on_c, 1, 34, 0
3, 21835, Note_on_c, 1, 44, 0
3, 21842, Note_on_c, 1, 46, 83
3, 22000, Note_on_c, 1, 41, 65
3, 22011, Note_on_c, 1, 41, 0
3, 22018, Note_on_c, 1, 46, 0
3, 22023, Note_on_c, 1, 38, 64
3, 22082, Note_on_c, 1, 38, 0
3, 22082, Note_on_c, 1, 39, 77
3, 22258, Note_on_c, 1, 34, 78
3, 22261, Note_on_c, 1, 39, 0
3, 22382, Note_on_c, 1, 46, 91
3, 22444, Note_on_c, 1, 34, 0
3, 22621, Note_on_c, 1, 34, 79
3, 22633, Note_on_c, 1, 46, 0
3, 22798, Note_on_c, 1, 45, 96
3, 22825, Note_on_c, 1, 34, 0
3, 22963, Note_on_c, 1, 33, 62
3, 22973, Note_on_c, 1, 33, 0
3, 22980, Note_on_c, 1, 45, 0
3, 22984, Note_on_c, 1, 31, 67
3, 23048, Note_on_c, 1, 31, 0
3, 23048, Note_on_c, 1, 32, 68
3, 23160, Note_on_c, 1, 32, 0
3, 23162, Note_on_c, 1, 39, 59
3, 23259, Note_on_c, 1, 32, 37
3, 23272, Note_on_c, 1, 32, 0
3, 23278, Note_on_c, 1, 39, 0
3, 23278, Note_on_c, 1, 46, 75
3, 23380, Note_on_c, 1, 39, 50
3, 23389, Note_on_c, 1, 39, 0
3, 23395, Note_on_c, 1, 46, 0
3, 23400, Note_on_c, 1, 44, 74
3, 23520, Note_on_c, 1, 44, 0
3, 23523, Note_on_c, 1, 43, 64
3, 23527, Note_on_c, 1, 43, 0
3, 23561, Note_on_c, 1, 38, 50
3, 23574, Note_on_c, 1, 38, 0
3, 23579, Note_on_c, 1, 32, 71
3, 23636, Note_on_c, 1, 32, 0
3, 23640, Note_on_c, 1, 31, 72
3, 23760, Note_on_c, 1, 31, 0
3, 23760, Note_on_c, 1, 36, 91
3, 23942, Note_on_c, 1, 30, 86
3, 23948, Note_on_c, 1, 36, 0
3, 24000, Note_on_c, 1, 29, 73
3, 24011, Note_on_c, 1, 30, 0
3, 24183, Note_on_c, 1, 36, 95
3, 24188, Note_on_c, 1, 29, 0
3, 24242, Note_on_c, 1, 34, 83
3, 24244, Note_on_c, 1, 36, 0
3, 24357, Note_on_c, 1, 38, 84
3, 24365, Note_on_c, 1, 34, 0
3, 24476, Note_on_c, 1, 39, 90
3, 24479, Note_on_c, 1, 38, 0
3, 24714, Note_on_c, 1, 34, 82
3, 24722, Note_on_c, 1, 39, 0
3, 24879, Note_on_c, 1, 39, 91
3, 24906, Note_on_c, 1, 34, 0
3, 24919, Note_on_c, 1, 39, 0
3, 24923, Note_on_c, 1, 41, 68
3, 24937, Note_on_c, 1, 41, 0
3, 24945, Note_on_c, 1, 39, 72
3, 24962, Note_on_c, 1, 39, 0
3, 24969, Note_on_c, 1, 38, 80
3, 25088, Note_on_c, 1, 32, 84
3, 25096, Note_on_c, 1, 38, 0
3, 25200, Note_on_c, 1, 32, 0
3, 25204, Note_on_c, 1, 31, 88
3, 25378, Note_on_c, 1, 31, 0
3, 25382, Note_on_c, 1, 35, 66
3, 25393, Note_on_c, 1, 35, 0
3, 25419, Note_on_c, 1, 38, 75
3, 25438, Note_on_c, 1, 38, 0
3, 25443, Note_on_c, 1, 36, 88
3, 25499, Note_on_c, 1, 48, 85
3, 25550, Note_on_c, 1, 48, 0
3, 25558, Note_on_c, 1, 47, 68
3, 25559, Note_on_c, 1, 48, 65
3, 25563, Note_on_c, 1, 48, 0
3, 25570, Note_on_c, 1, 36, 0
3, 25615, Note_on_c, 1, 35, 89
3, 25674, Note_on_c, 1, 35, 0
3, 25679, Note_on_c, 1, 34, 84
3, 25682, Note_on_c, 1, 47, 0
3, 25739, Note_on_c, 1, 46, 91
3, 25797, Note_on_c, 1, 46, 0
3, 25799, Note_on_c, 1, 34, 0
3, 25800, Note_on_c, 1, 45, 91
3, 25862, Note_on_c, 1, 33, 87
3, 25872, Note_on_c, 1, 45, 0
3, 25915, Note_on_c, 1, 33, 0
3, 25919, Note_on_c, 1, 32, 86
3, 26156, Note_on_c, 1, 32, 0
3, 26162, Note_on_c, 1, 31, 79
3, 26164, Note_on_c, 1, 32, 61
3, 26169, Note_on_c, 1, 32, 0
3, 26283, Note_on_c, 1, 36, 89
3, 26289, Note_on_c, 1, 31, 0
3, 26401, Note_on_c, 1, 36, 0
3, 26403, Note_on_c, 1, 35, 91
3, 26404, Note_on_c, 1, 36, 32
3, 26417, Note_on_c, 1, 36, 0
3, 26520, Note_on_c, 1, 41, 95
3, 26521, Note_on_c, 1, 35, 0
3, 26644, Note_on_c, 1, 41, 0
3, 26645, Note_on_c, 1, 34, 83
3, 26882, Note_on_c, 1, 39, 84
3, 26886, Note_on_c, 1, 34, 0
3, 26893, Note_on_c, 1, 39, 82
3, 27069, Note_on_c, 1, 39, 0
3, 27122, Note_on_c, 1, 41, 91
3, 27128, Note_on_c, 1, 39, 0
3, 27366, Note_on_c, 1, 43, 108
3, 27370, Note_on_c, 1, 41, 0
3, 27486, Note_on_c, 1, 37, 83
3, 27495, Note_on_c, 1, 43, 0
3, 27603, Note_on_c, 1, 37, 0
3, 27604, Note_on_c, 1, 36, 87
3, 27779, Note_on_c, 1, 36, 0
3, 27780, Note_on_c, 1, 30, 84
3, 27834, Note_on_c, 1, 30, 0
3, 27839, Note_on_c, 1, 29, 82
3, 28087, Note_on_c, 1, 40, 99
3, 28129, Note_on_c, 1, 29, 0
3, 28204, Note_on_c, 1, 28, 87
3, 28210, Note_on_c, 1, 40, 0
3, 28327, Note_on_c, 1, 28, 0
3, 28330, Note_on_c, 1, 29, 85
3, 28564, Note_on_c, 1, 34, 93
3, 28575, Note_on_c, 1, 29, 0
3, 28802, Note_on_c, 1, 41, 92
3, 28809, Note_on_c, 1, 34, 0
3, 29042, Note_on_c, 1, 43, 113
3, 29044, Note_on_c, 1, 41, 0
3, 29159, Note_on_c, 1, 31, 101
3, 29175, Note_on_c, 1, 43, 0
3, 29279, Note_on_c, 1, 32, 93
3, 29284, Note_on_c, 1, 31, 0
3, 29457, Note_on_c, 1, 32, 0
3, 29460, Note_on_c, 1, 33, 85
3, 29508, Note_on_c, 1, 33, 0
3, 29519, Note_on_c, 1, 34, 83
3, 29761, Note_on_c, 1, 43, 92
3, 29765, Note_on_c, 1, 39, 45
3, 29769, Note_on_c, 1, 39, 0
3, 29785, Note_on_c, 1, 34, 0
3, 29993, Note_on_c, 1, 43, 0
3, 30002, Note_on_c, 1, 41, 82
3, 30120, Note_on_c, 1, 34, 80
3, 30121, Note_on_c, 1, 41, 0
3, 30243, Note_on_c, 1, 39, 84
3, 30244, Note_on_c, 1, 34, 0
3, 30485, Note_on_c, 1, 33, 63
3, 30487, Note_on_c, 1, 39, 0
3, 30663, Note_on_c, 1, 33, 0
3, 30705, Pitch_bend_c, 1, 8192
3, 30705, Pitch_bend_c, 1, 8192
3, 30706, Pitch_bend_c, 1, 8192
3, 30708, Pitch_bend_c, 1, 7552
3, 30709, Pitch_bend_c, 1, 7424
3, 30709, Pitch_bend_c, 1, 7168
3, 30710, Pitch_bend_c, 1, 6912
3, 30711, Pitch_bend_c, 1, 6784
3, 30712, Pitch_bend_c, 1, 6656
3, 30714, Pitch_bend_c, 1, 6400
3, 30715, Pitch_bend_c, 1, 6272
3, 30716, Pitch_bend_c, 1, 6016
3, 30717, Pitch_bend_c, 1, 5888
3, 30718, Pitch_bend_c, 1, 5760
3, 30719, Pitch_bend_c, 1, 5632
3, 30720, Pitch_bend_c, 1, 5504
3, 30721, Pitch_bend_c, 1, 5376
3, 30722, Pitch_bend_c, 1, 5120
3, 30723, Pitch_bend_c, 1, 4864
3, 30723, Pitch_bend_c, 1, 4736
3, 30724, Pitch_bend_c, 1, 4608
3, 30725, Pitch_bend_c, 1, 4352
3, 30726, Pitch_bend_c, 1, 4224
3, 30727, Note_on_c, 1, 48, 76
3, 30727, Pitch_bend_c, 1, 4096
3, 30731, Pitch_bend_c, 1, 4352
3, 30731, Pitch_bend_c, 1, 4480
3, 30732, Pitch_bend_c, 1, 4736
3, 30733, Pitch_bend_c, 1, 4864
3, 30734, Pitch_bend_c, 1, 5120
3, 30735, Pitch_bend_c, 1, 5504
3, 30736, Pitch_bend_c, 1, 5632
3, 30737, Pitch_bend_c, 1, 5888
3, 30738, Pitch_bend_c, 1, 6016
3, 30740, Pitch_bend_c, 1, 6144
3, 30742, Pitch_bend_c, 1, 6272
3, 30744, Pitch_bend_c, 1, 6400
3, 30745, Pitch_bend_c, 1, 6528
3, 30746, Pitch_bend_c, 1, 6656
3, 30747, Pitch_bend_c, 1, 6784
3, 30748, Pitch_bend_c, 1, 6912
3, 30748, Pitch_bend_c, 1, 7168
3, 30749, Pitch_bend_c, 1, 7424
3, 30750, Pitch_bend_c, 1, 7552
3, 30751, Pitch_bend_c, 1, 7680
3, 30752, Pitch_bend_c, 1, 8192
3, 30752, Pitch_bend_c, 1, 8192
3, 30754, Pitch_bend_c, 1, 8192
3, 30755, Pitch_bend_c, 1, 8192
3, 30958, Note_on_c, 1, 48, 0
3, 30965, Note_on_c, 1, 48, 96
3, 31023, Note_on_c, 1, 48, 0
3, 31026, Note_on_c, 1, 50, 89
3, 31029, Note_on_c, 1, 48, 44
3, 31034, Note_on_c, 1, 48, 0
3, 31084, Note_on_c, 1, 50, 0
3, 31089, Note_on_c, 1, 50, 78
3, 31151, Note_on_c, 1, 53, 76
3, 31154, Note_on_c, 1, 50, 0
3, 31208, Note_on_c, 1, 53, 0
3, 31212, Note_on_c, 1, 46, 65
3, 31268, Note_on_c, 1, 46, 0
3, 31275, Note_on_c, 1, 46, 69
3, 31370, Pitch_bend_c, 1, 8192
3, 31376, Pitch_bend_c, 1, 8192
3, 31381, Pitch_bend_c, 1, 8192
3, 31386, Pitch_bend_c, 1, 8192
3, 31391, Pitch_bend_c, 1, 7680
3, 31409, Pitch_bend_c, 1, 8192
3, 31411, Pitch_bend_c, 1, 8192
3, 31412, Pitch_bend_c, 1, 8192
3, 31414, Pitch_bend_c, 1, 8192
3, 31621, Note_on_c, 1, 43, 94
3, 31629, Note_on_c, 1, 46, 0
3, 31680, Note_on_c, 1, 43, 0
3, 31682, Note_on_c, 1, 44, 90
3, 31804, Note_on_c, 1, 51, 97
3, 31859, Note_on_c, 1, 51, 0
3, 31867, Note_on_c, 1, 51, 83
3, 31918, Note_on_c, 1, 44, 0
3, 31921, Note_on_c, 1, 51, 0
3, 31925, Note_on_c, 1, 48, 81
3, 31982, Note_on_c, 1, 48, 0
3, 31989, Note_on_c, 1, 48, 81
3, 32049, Note_on_c, 1, 48, 0
3, 32049, Note_on_c, 1, 44, 88
3, 32101, Note_on_c, 1, 44, 0
3, 32106, Note_on_c, 1, 44, 72
3, 32167, Note_on_c, 1, 44, 0
3, 32167, Note_on_c, 1, 43, 94
3, 32373, Note_on_c, 1, 37, 75
3, 32378, Note_on_c, 1, 43, 0
3, 32413, Note_on_c, 1, 36, 73
3, 32420, Note_on_c, 1, 37, 0
3, 32637, Note_on_c, 1, 36, 0
3, 32639, Note_on_c, 1, 29, 92
3, 32959, Note_on_c, 1, 29, 0
3, 32959, End_track
4, 0, Start_track
4, 0, Title_t, "Brush kit with long samples"
4, 0, Program_c, 9, 40
4, 2, Note_on_c, 9, 59, 49
4, 17, Note_on_c, 9, 59, 0
4, 60, Note_on_c, 9, 59, 57
4, 144, Note_on_c, 9, 59, 0
4, 182, Note_on_c, 9, 59, 51
4, 201, Note_on_c, 9, 59, 0
4, 305, Note_on_c, 9, 59, 50
4, 321, Note_on_c, 9, 59, 0
4, 367, Note_on_c, 9, 59, 49
4, 368, Note_on_c, 9, 53, 51
4, 384, Note_on_c, 9, 53, 0
4, 385, Note_on_c, 9, 59, 0
4, 488, Note_on_c, 9, 59, 40
4, 503, Note_on_c, 9, 59, 0
4, 544, Note_on_c, 9, 59, 65
4, 586, Note_on_c, 9, 59, 0
4, 606, Note_on_c, 9, 59, 65
4, 664, Note_on_c, 9, 59, 0
4, 727, Note_on_c, 9, 59, 70
4, 816, Note_on_c, 9, 59, 0
4, 845, Note_on_c, 9, 59, 67
4, 852, Note_on_c, 9, 44, 37
4, 867, Note_on_c, 9, 44, 0
4, 907, Note_on_c, 9, 53, 56
4, 939, Note_on_c, 9, 59, 0
4, 966, Note_on_c, 9, 59, 47
4, 1003, Note_on_c, 9, 59, 0
4, 1026, Note_on_c, 9, 59, 60
4, 1064, Note_on_c, 9, 59, 0
4, 1085, Note_on_c, 9, 59, 92
4, 1088, Note_on_c, 9, 44, 34
4, 1103, Note_on_c, 9, 53, 0
4, 1105, Note_on_c, 9, 44, 0
4, 1142, Note_on_c, 9, 53, 44
4, 1159, Note_on_c, 9, 59, 0
4, 1206, Note_on_c, 9, 59, 31
4, 1210, Note_on_c, 9, 59, 0
4, 1259, Note_on_c, 9, 59, 66
4, 1278, Note_on_c, 9, 53, 0
4, 1291, Note_on_c, 9, 59, 0
4, 1318, Note_on_c, 9, 59, 56
4, 1318, Note_on_c, 9, 44, 32
4, 1333, Note_on_c, 9, 44, 0
4, 1361, Note_on_c, 9, 59, 0
4, 1384, Note_on_c, 9, 59, 29
4, 1399, Note_on_c, 9, 59, 0
4, 1440, Note_on_c, 9, 46, 33
4, 1448, Note_on_c, 9, 59, 63
4, 1449, Note_on_c, 9, 46, 0
4, 1450, Note_on_c, 9, 51, 38
4, 1460, Note_on_c, 9, 59, 0
4, 1461, Note_on_c, 9, 51, 0
4, 1573, Note_on_c, 9, 59, 51
4, 1640, Note_on_c, 9, 59, 0
4, 1680, Note_on_c, 9, 59, 50
4, 1781, Note_on_c, 9, 59, 0
4, 1802, Note_on_c, 9, 59, 51
4, 1867, Note_on_c, 9, 44, 31
4, 1873, Note_on_c, 9, 44, 0
4, 1886, Note_on_c, 9, 59, 0
4, 1928, Note_on_c, 9, 59, 57
4, 1932, Note_on_c, 9, 59, 0
4, 1986, Note_on_c, 9, 59, 58
4, 2132, Note_on_c, 9, 59, 0
4, 2148, Note_on_c, 9, 59, 58
4, 2157, Note_on_c, 9, 59, 0
4, 2172, Note_on_c, 9, 59, 82
4, 2223, Note_on_c, 9, 59, 0
4, 2233, Note_on_c, 9, 59, 69
4, 2380, Note_on_c, 9, 59, 0
4, 2404, Note_on_c, 9, 59, 64
4, 2411, Note_on_c, 9, 36, 39
4, 2421, Note_on_c, 9, 36, 0
4, 2445, Note_on_c, 9, 59, 0
4, 2467, Note_on_c, 9, 59, 69
4, 2471, Note_on_c, 9, 36, 27
4, 2491, Note_on_c, 9, 36, 0
4, 2531, Note_on_c, 9, 44, 25
4, 2546, Note_on_c, 9, 44, 0
4, 2627, Note_on_c, 9, 59, 0
4, 2650, Note_on_c, 9, 59, 70
4, 2772, Note_on_c, 9, 44, 31
4, 2786, Note_on_c, 9, 44, 0
4, 2805, Note_on_c, 9, 59, 0
4, 2826, Note_on_c, 9, 59, 74
4, 2939, Note_on_c, 9, 59, 0
4, 2948, Note_on_c, 9, 59, 66
4, 2986, Note_on_c, 9, 36, 33
4, 3002, Note_on_c, 9, 36, 0
4, 3006, Note_on_c, 9, 59, 0
4, 3010, Note_on_c, 9, 44, 30
4, 3014, Note_on_c, 9, 59, 78
4, 3022, Note_on_c, 9, 44, 0
4, 3070, Note_on_c, 9, 44, 36
4, 3087, Note_on_c, 9, 44, 0
4, 3285, Note_on_c, 9, 59, 0
4, 3301, Note_on_c, 9, 59, 65
4, 3311, Note_on_c, 9, 36, 32
4, 3320, Note_on_c, 9, 36, 0
4, 3344, Note_on_c, 9, 59, 0
4, 3366, Note_on_c, 9, 59, 76
4, 3370, Note_on_c, 9, 36, 33
4, 3378, Note_on_c, 9, 36, 0
4, 3402, Note_on_c, 9, 59, 0
4, 3425, Note_on_c, 9, 59, 66
4, 3482, Note_on_c, 9, 44, 33
4, 3495, Note_on_c, 9, 44, 0
4, 3544, Note_on_c, 9, 59, 0
4, 3548, Note_on_c, 9, 59, 36
4, 3584, Note_on_c, 9, 59, 0
4, 3608, Note_on_c, 9, 59, 62
4, 3714, Note_on_c, 9, 59, 0
4, 3726, Note_on_c, 9, 59, 55
4, 3787, Note_on_c, 9, 36, 17
4, 3794, Note_on_c, 9, 36, 0
4, 3835, Note_on_c, 9, 59, 0
4, 3842, Note_on_c, 9, 40, 35
4, 3842, Note_on_c, 9, 38, 51
4, 3845, Note_on_c, 9, 57, 29
4, 3845, Note_on_c, 9, 36, 24
4, 3854, Note_on_c, 9, 57, 0
4, 3855, Note_on_c, 9, 36, 0
4, 3941, Note_on_c, 9, 40, 0
4, 3945, Note_on_c, 9, 38, 0
4, 3959, Note_on_c, 9, 40, 44
4, 3960, Note_on_c, 9, 38, 50
4, 3960, Note_on_c, 9, 44, 73
4, 4015, Note_on_c, 9, 38, 0
4, 4023, Note_on_c, 9, 38, 75
4, 4070, Note_on_c, 9, 40, 0
4, 4072, Note_on_c, 9, 38, 0
4, 4083, Note_on_c, 9, 38, 55
4, 4084, Note_on_c, 9, 40, 38
4, 4092, Note_on_c, 9, 44, 0
4, 4184, Note_on_c, 9, 40, 0
4, 4190, Note_on_c, 9, 38, 0
4, 4200, Note_on_c, 9, 44, 77
4, 4207, Note_on_c, 9, 38, 41
4, 4207, Note_on_c, 9, 40, 45
4, 4289, Note_on_c, 9, 38, 0
4, 4303, Note_on_c, 9, 38, 62
4, 4305, Note_on_c, 9, 40, 0
4, 4313, Note_on_c, 9, 38, 0
4, 4325, Note_on_c, 9, 40, 34
4, 4326, Note_on_c, 9, 38, 47
4, 4338, Note_on_c, 9, 44, 0
4, 4426, Note_on_c, 9, 40, 0
4, 4431, Note_on_c, 9, 38, 0
4, 4440, Note_on_c, 9, 44, 70
4, 4446, Note_on_c, 9, 38, 45
4, 4446, Note_on_c, 9, 40, 43
4, 4544, Note_on_c, 9, 40, 0
4, 4554, Note_on_c, 9, 38, 0
4, 4555, Note_on_c, 9, 44, 0
4, 4572, Note_on_c, 9, 40, 45
4, 4572, Note_on_c, 9, 38, 38
4, 4660, Note_on_c, 9, 38, 0
4, 4661, Note_on_c, 9, 40, 0
4, 4661, Note_on_c, 9, 39, 46
4, 4675, Note_on_c, 9, 39, 0
4, 4680, Note_on_c, 9, 46, 39
4, 4685, Note_on_c, 9, 40, 34
4, 4685, Note_on_c, 9, 38, 47
4, 4686, Note_on_c, 9, 46, 0
4, 4725, Note_on_c, 9, 40, 0
4, 4733, Note_on_c, 9, 38, 0
4, 4748, Note_on_c, 9, 40, 36
4, 4751, Note_on_c, 9, 38, 30
4, 4788, Note_on_c, 9, 40, 0
4, 4791, Note_on_c, 9, 38, 0
4, 4803, Note_on_c, 9, 38, 52
4, 4804, Note_on_c, 9, 40, 39
4, 4910, Note_on_c, 9, 40, 0
4, 4916, Note_on_c, 9, 38, 0
4, 4920, Note_on_c, 9, 44, 52
4, 4930, Note_on_c, 9, 38, 50
4, 4930, Note_on_c, 9, 40, 43
4, 4946, Note_on_c, 9, 44, 0
4, 5026, Note_on_c, 9, 40, 0
4, 5030, Note_on_c, 9, 38, 0
4, 5051, Note_on_c, 9, 38, 40
4, 5052, Note_on_c, 9, 40, 36
4, 5090, Note_on_c, 9, 38, 0
4, 5104, Note_on_c, 9, 38, 36
4, 5132, Note_on_c, 9, 38, 0
4, 5149, Note_on_c, 9, 40, 0
4, 5160, Note_on_c, 9, 44, 61
4, 5164, Note_on_c, 9, 38, 40
4, 5164, Note_on_c, 9, 40, 36
4, 5198, Note_on_c, 9, 44, 0
4, 5207, Note_on_c, 9, 38, 0
4, 5225, Note_on_c, 9, 38, 50
4, 5231, Note_on_c, 9, 38, 0
4, 5255, Note_on_c, 9, 40, 0
4, 5281, Note_on_c, 9, 40, 32
4, 5281, Note_on_c, 9, 38, 45
4, 5391, Note_on_c, 9, 40, 0
4, 5396, Note_on_c, 9, 38, 0
4, 5400, Note_on_c, 9, 44, 62
4, 5407, Note_on_c, 9, 40, 36
4, 5407, Note_on_c, 9, 38, 40
4, 5419, Note_on_c, 9, 44, 0
4, 5507, Note_on_c, 9, 40, 0
4, 5511, Note_on_c, 9, 38, 0
4, 5523, Note_on_c, 9, 38, 47
4, 5523, Note_on_c, 9, 40, 37
4, 5577, Note_on_c, 9, 40, 0
4, 5580, Note_on_c, 9, 38, 0
4, 5582, Note_on_c, 9, 40, 33
4, 5585, Note_on_c, 9, 38, 40
4, 5604, Note_on_c, 9, 38, 0
4, 5613, Note_on_c, 9, 40, 0
4, 5640, Note_on_c, 9, 40, 46
4, 5640, Note_on_c, 9, 44, 51
4, 5642, Note_on_c, 9, 38, 53
4, 5671, Note_on_c, 9, 44, 0
4, 5694, Note_on_c, 9, 40, 0
4, 5724, Note_on_c, 9, 38, 0
4, 5735, Note_on_c, 9, 36, 27
4, 5738, Note_on_c, 9, 38, 43
4, 5740, Note_on_c, 9, 36, 0
4, 5750, Note_on_c, 9, 38, 0
4, 5762, Note_on_c, 9, 38, 57
4, 5763, Note_on_c, 9, 40, 53
4, 5867, Note_on_c, 9, 40, 0
4, 5872, Note_on_c, 9, 38, 0
4, 5880, Note_on_c, 9, 44, 52
4, 5887, Note_on_c, 9, 38, 46
4, 5888, Note_on_c, 9, 40, 36
4, 5900, Note_on_c, 9, 44, 0
4, 5981, Note_on_c, 9, 36, 33
4, 5986, Note_on_c, 9, 36, 0
4, 5986, Note_on_c, 9, 40, 0
4, 5988, Note_on_c, 9, 38, 0
4, 6009, Note_on_c, 9, 38, 55
4, 6010, Note_on_c, 9, 40, 53
4, 6054, Note_on_c, 9, 38, 0
4, 6066, Note_on_c, 9, 38, 45
4, 6112, Note_on_c, 9, 38, 0
4, 6112, Note_on_c, 9, 40, 0
4, 6120, Note_on_c, 9, 44, 55
4, 6127, Note_on_c, 9, 38, 45
4, 6129, Note_on_c, 9, 40, 48
4, 6139, Note_on_c, 9, 44, 0
4, 6185, Note_on_c, 9, 39, 46
4, 6216, Note_on_c, 9, 39, 0
4, 6217, Note_on_c, 9, 38, 0
4, 6226, Note_on_c, 9, 38, 65
4, 6232, Note_on_c, 9, 40, 0
4, 6237, Note_on_c, 9, 38, 0
4, 6247, Note_on_c, 9, 38, 52
4, 6248, Note_on_c, 9, 40, 35
4, 6348, Note_on_c, 9, 40, 0
4, 6354, Note_on_c, 9, 38, 0
4, 6360, Note_on_c, 9, 44, 56
4, 6364, Note_on_c, 9, 40, 38
4, 6364, Note_on_c, 9, 38, 55
4, 6375, Note_on_c, 9, 44, 0
4, 6456, Note_on_c, 9, 36, 30
4, 6466, Note_on_c, 9, 40, 0
4, 6470, Note_on_c, 9, 36, 0
4, 6471, Note_on_c, 9, 38, 0
4, 6485, Note_on_c, 9, 40, 39
4, 6485, Note_on_c, 9, 38, 44
4, 6486, Note_on_c, 9, 36, 36
4, 6486, Note_on_c, 9, 59, 34
4, 6494, Note_on_c, 9, 36, 0
4, 6496, Note_on_c, 9, 59, 0
4, 6531, Note_on_c, 9, 38, 0
4, 6543, Note_on_c, 9, 38, 52
4, 6545, Note_on_c, 9, 59, 38
4, 6545, Note_on_c, 9, 36, 32
4, 6559, Note_on_c, 9, 59, 0
4, 6560, Note_on_c, 9, 36, 0
4, 6589, Note_on_c, 9, 40, 0
4, 6591, Note_on_c, 9, 38, 0
4, 6600, Note_on_c, 9, 46, 25
4, 6603, Note_on_c, 9, 38, 39
4, 6603, Note_on_c, 9, 40, 44
4, 6615, Note_on_c, 9, 46, 0
4, 6700, Note_on_c, 9, 40, 0
4, 6709, Note_on_c, 9, 38, 0
4, 6721, Note_on_c, 9, 40, 52
4, 6722, Note_on_c, 9, 38, 49
4, 6723, Note_on_c, 9, 40, 43
4, 6723, Note_on_c, 9, 38, 49
4, 6810, Note_on_c, 9, 40, 0
4, 6811, Note_on_c, 9, 38, 0
4, 6815, Note_on_c, 9, 40, 0
4, 6815, Note_on_c, 9, 38, 0
4, 6840, Note_on_c, 9, 44, 69
4, 6842, Note_on_c, 9, 40, 49
4, 6842, Note_on_c, 9, 38, 51
4, 6874, Note_on_c, 9, 44, 0
4, 6898, Note_on_c, 9, 38, 0
4, 6899, Note_on_c, 9, 39, 62
4, 6902, Note_on_c, 9, 40, 0
4, 6954, Note_on_c, 9, 39, 0
4, 6959, Note_on_c, 9, 40, 42
4, 6960, Note_on_c, 9, 38, 49
4, 7052, Note_on_c, 9, 38, 0
4, 7052, Note_on_c, 9, 40, 0
4, 7080, Note_on_c, 9, 44, 53
4, 7081, Note_on_c, 9, 40, 40
4, 7082, Note_on_c, 9, 38, 45
4, 7109, Note_on_c, 9, 44, 0
4, 7176, Note_on_c, 9, 40, 0
4, 7176, Note_on_c, 9, 36, 48
4, 7180, Note_on_c, 9, 38, 0
4, 7181, Note_on_c, 9, 36, 0
4, 7200, Note_on_c, 9, 59, 40
4, 7200, Note_on_c, 9, 40, 37
4, 7201, Note_on_c, 9, 36, 35
4, 7202, Note_on_c, 9, 38, 43
4, 7216, Note_on_c, 9, 59, 0
4, 7219, Note_on_c, 9, 36, 0
4, 7250, Note_on_c, 9, 38, 0
4, 7263, Note_on_c, 9, 38, 53
4, 7309, Note_on_c, 9, 38, 0
4, 7309, Note_on_c, 9, 40, 0
4, 7320, Note_on_c, 9, 44, 71
4, 7321, Note_on_c, 9, 38, 50
4, 7322, Note_on_c, 9, 40, 35
4, 7340, Note_on_c, 9, 44, 0
4, 7414, Note_on_c, 9, 40, 0
4, 7419, Note_on_c, 9, 38, 0
4, 7440, Note_on_c, 9, 38, 54
4, 7441, Note_on_c, 9, 40, 45
4, 7445, Note_on_c, 9, 36, 32
4, 7454, Note_on_c, 9, 36, 0
4, 7506, Note_on_c, 9, 36, 35
4, 7535, Note_on_c, 9, 36, 0
4, 7539, Note_on_c, 9, 40, 0
4, 7547, Note_on_c, 9, 38, 0
4, 7559, Note_on_c, 9, 38, 41
4, 7559, Note_on_c, 9, 40, 44
4, 7560, Note_on_c, 9, 46, 55
4, 7569, Note_on_c, 9, 46, 0
4, 7606, Note_on_c, 9, 36, 60
4, 7608, Note_on_c, 9, 38, 0
4, 7614, Note_on_c, 9, 36, 0
4, 7616, Note_on_c, 9, 40, 0
4, 7618, Note_on_c, 9, 38, 49
4, 7630, Note_on_c, 9, 36, 47
4, 7630, Note_on_c, 9, 59, 26
4, 7635, Note_on_c, 9, 59, 0
4, 7636, Note_on_c, 9, 36, 0
4, 7664, Note_on_c, 9, 38, 0
4, 7672, Note_on_c, 9, 38, 35
4, 7674, Note_on_c, 9, 40, 48
4, 7685, Note_on_c, 9, 36, 47
4, 7685, Note_on_c, 9, 59, 54
4, 7691, Note_on_c, 9, 59, 0
4, 7692, Note_on_c, 9, 36, 0
4, 7750, Note_on_c, 9, 59, 61
4, 7751, Note_on_c, 9, 36, 32
4, 7761, Note_on_c, 9, 59, 0
4, 7776, Note_on_c, 9, 36, 0
4, 7793, Note_on_c, 9, 40, 0
4, 7799, Note_on_c, 9, 38, 0
4, 7800, Note_on_c, 9, 44, 45
4, 7806, Note_on_c, 9, 40, 40
4, 7808, Note_on_c, 9, 38, 54
4, 7817, Note_on_c, 9, 44, 0
4, 7889, Note_on_c, 9, 38, 0
4, 7889, Note_on_c, 9, 40, 0
4, 7898, Note_on_c, 9, 38, 46
4, 7913, Note_on_c, 9, 38, 0
4, 7923, Note_on_c, 9, 38, 58
4, 7925, Note_on_c, 9, 40, 48
4, 8026, Note_on_c, 9, 40, 0
4, 8032, Note_on_c, 9, 38, 0
4, 8040, Note_on_c, 9, 44, 70
4, 8043, Note_on_c, 9, 40, 32
4, 8044, Note_on_c, 9, 38, 54
4, 8072, Note_on_c, 9, 44, 0
4, 8095, Note_on_c, 9, 38, 0
4, 8106, Note_on_c, 9, 38, 65
4, 8152, Note_on_c, 9, 40, 0
4, 8154, Note_on_c, 9, 38, 0
4, 8166, Note_on_c, 9, 38, 53
4, 8166, Note_on_c, 9, 40, 54
4, 8266, Note_on_c, 9, 40, 0
4, 8273, Note_on_c, 9, 38, 0
4, 8280, Note_on_c, 9, 44, 75
4, 8290, Note_on_c, 9, 40, 34
4, 8290, Note_on_c, 9, 38, 41
4, 8315, Note_on_c, 9, 44, 0
4, 8375, Note_on_c, 9, 40, 0
4, 8380, Note_on_c, 9, 38, 0
4, 8397, Note_on_c, 9, 40, 32
4, 8397, Note_on_c, 9, 38, 51
4, 8499, Note_on_c, 9, 40, 0
4, 8507, Note_on_c, 9, 38, 0
4, 8520, Note_on_c, 9, 44, 69
4, 8520, Note_on_c, 9, 40, 34
4, 8521, Note_on_c, 9, 38, 46
4, 8555, Note_on_c, 9, 44, 0
4, 8558, Note_on_c, 9, 39, 56
4, 8559, Note_on_c, 9, 38, 0
4, 8566, Note_on_c, 9, 40, 0
4, 8607, Note_on_c, 9, 39, 0
4, 8616, Note_on_c, 9, 40, 41
4, 8616, Note_on_c, 9, 38, 39
4, 8629, Note_on_c, 9, 40, 0
4, 8632, Note_on_c, 9, 38, 0
4, 8642, Note_on_c, 9, 38, 45
4, 8642, Note_on_c, 9, 40, 26
4, 8739, Note_on_c, 9, 40, 0
4, 8744, Note_on_c, 9, 38, 0
4, 8757, Note_on_c, 9, 38, 43
4, 8758, Note_on_c, 9, 40, 35
4, 8760, Note_on_c, 9, 44, 69
4, 8797, Note_on_c, 9, 44, 0
4, 8858, Note_on_c, 9, 40, 0
4, 8866, Note_on_c, 9, 38, 0
4, 8879, Note_on_c, 9, 40, 38
4, 8879, Note_on_c, 9, 38, 51
4, 8944, Note_on_c, 9, 39, 50
4, 8945, Note_on_c, 9, 38, 0
4, 8984, Note_on_c, 9, 40, 0
4, 8998, Note_on_c, 9, 39, 0
4, 9000, Note_on_c, 9, 44, 70
4, 9004, Note_on_c, 9, 40, 31
4, 9005, Note_on_c, 9, 38, 31
4, 9030, Note_on_c, 9, 44, 0
4, 9048, Note_on_c, 9, 40, 0
4, 9054, Note_on_c, 9, 38, 0
4, 9063, Note_on_c, 9, 40, 32
4, 9063, Note_on_c, 9, 38, 40
4, 9105, Note_on_c, 9, 40, 0
4, 9110, Note_on_c, 9, 38, 0
4, 9121, Note_on_c, 9, 40, 40
4, 9123, Note_on_c, 9, 38, 45
4, 9228, Note_on_c, 9, 40, 0
4, 9237, Note_on_c, 9, 38, 0
4, 9240, Note_on_c, 9, 44, 62
4, 9249, Note_on_c, 9, 40, 35
4, 9250, Note_on_c, 9, 38, 34
4, 9256, Note_on_c, 9, 37, 25
4, 9261, Note_on_c, 9, 37, 0
4, 9267, Note_on_c, 9, 44, 0
4, 9293, Note_on_c, 9, 38, 0
4, 9305, Note_on_c, 9, 38, 50
4, 9348, Note_on_c, 9, 40, 0
4, 9350, Note_on_c, 9, 38, 0
4, 9364, Note_on_c, 9, 38, 35
4, 9365, Note_on_c, 9, 40, 35
4, 9456, Note_on_c, 9, 40, 0
4, 9460, Note_on_c, 9, 38, 0
4, 9480, Note_on_c, 9, 44, 64
4, 9480, Note_on_c, 9, 40, 50
4, 9480, Note_on_c, 9, 38, 45
4, 9503, Note_on_c, 9, 44, 0
4, 9555, Note_on_c, 9, 38, 0
4, 9572, Note_on_c, 9, 38, 55
4, 9578, Note_on_c, 9, 38, 0
4, 9588, Note_on_c, 9, 40, 0
4, 9591, Note_on_c, 9, 36, 37
4, 9595, Note_on_c, 9, 38, 33
4, 9597, Note_on_c, 9, 40, 42
4, 9599, Note_on_c, 9, 36, 0
4, 9618, Note_on_c, 9, 36, 32
4, 9639, Note_on_c, 9, 36, 0
4, 9675, Note_on_c, 9, 59, 60
4, 9677, Note_on_c, 9, 36, 35
4, 9680, Note_on_c, 9, 59, 0
4, 9693, Note_on_c, 9, 36, 0
4, 9695, Note_on_c, 9, 40, 0
4, 9715, Note_on_c, 9, 38, 0
4, 9720, Note_on_c, 9, 44, 55
4, 9722, Note_on_c, 9, 38, 38
4, 9725, Note_on_c, 9, 40, 42
4, 9731, Note_on_c, 9, 44, 0
4, 9787, Note_on_c, 9, 38, 0
4, 9812, Note_on_c, 9, 38, 60
4, 9819, Note_on_c, 9, 40, 0
4, 9824, Note_on_c, 9, 38, 0
4, 9833, Note_on_c, 9, 38, 31
4, 9835, Note_on_c, 9, 40, 51
4, 9948, Note_on_c, 9, 40, 0
4, 9951, Note_on_c, 9, 38, 0
4, 9953, Note_on_c, 9, 39, 68
4, 9960, Note_on_c, 9, 44, 74
4, 9981, Note_on_c, 9, 44, 0
4, 10008, Note_on_c, 9, 39, 0
4, 10017, Note_on_c, 9, 40, 37
4, 10018, Note_on_c, 9, 38, 40
4, 10057, Note_on_c, 9, 40, 0
4, 10058, Note_on_c, 9, 38, 0
4, 10078, Note_on_c, 9, 40, 42
4, 10079, Note_on_c, 9, 38, 45
4, 10119, Note_on_c, 9, 40, 0
4, 10124, Note_on_c, 9, 38, 0
4, 10145, Note_on_c, 9, 40, 45
4, 10146, Note_on_c, 9, 38, 40
4, 10200, Note_on_c, 9, 44, 75
4, 10200, Note_on_c, 9, 44, 70
4, 10200, Note_on_c, 9, 44, 58
4, 10213, Note_on_c, 9, 44, 0
4, 10219, Note_on_c, 9, 44, 0
4, 10239, Note_on_c, 9, 38, 0
4, 10247, Note_on_c, 9, 44, 0
4, 10267, Note_on_c, 9, 38, 53
4, 10298, Note_on_c, 9, 38, 0
4, 10298, Note_on_c, 9, 40, 0
4, 10325, Note_on_c, 9, 40, 50
4, 10325, Note_on_c, 9, 38, 55
4, 10425, Note_on_c, 9, 40, 0
4, 10432, Note_on_c, 9, 38, 0
4, 10440, Note_on_c, 9, 44, 54
4, 10440, Note_on_c, 9, 44, 55
4, 10449, Note_on_c, 9, 40, 41
4, 10449, Note_on_c, 9, 38, 43
4, 10456, Note_on_c, 9, 44, 0
4, 10494, Note_on_c, 9, 44, 0
4, 10547, Note_on_c, 9, 40, 0
4, 10553, Note_on_c, 9, 38, 0
4, 10570, Note_on_c, 9, 38, 45
4, 10570, Note_on_c, 9, 40, 42
4, 10621, Note_on_c, 9, 38, 0
4, 10634, Note_on_c, 9, 38, 47
4, 10673, Note_on_c, 9, 40, 0
4, 10680, Note_on_c, 9, 44, 56
4, 10680, Note_on_c, 9, 44, 60
4, 10682, Note_on_c, 9, 38, 0
4, 10691, Note_on_c, 9, 40, 40
4, 10693, Note_on_c, 9, 38, 59
4, 10695, Note_on_c, 9, 44, 0
4, 10699, Note_on_c, 9, 36, 29
4, 10704, Note_on_c, 9, 36, 0
4, 10720, Note_on_c, 9, 44, 0
4, 10738, Note_on_c, 9, 40, 0
4, 10738, Note_on_c, 9, 38, 0
4, 10752, Note_on_c, 9, 38, 59
4, 10752, Note_on_c, 9, 40, 44
4, 10794, Note_on_c, 9, 40, 0
4, 10799, Note_on_c, 9, 38, 0
4, 10810, Note_on_c, 9, 40, 45
4, 10810, Note_on_c, 9, 38, 58
4, 10872, Note_on_c, 9, 36, 27
4, 10903, Note_on_c, 9, 40, 0
4, 10909, Note_on_c, 9, 36, 0
4, 10909, Note_on_c, 9, 38, 0
4, 10920, Note_on_c, 9, 44, 51
4, 10920, Note_on_c, 9, 44, 62
4, 10923, Note_on_c, 9, 40, 38
4, 10923, Note_on_c, 9, 38, 49
4, 10930, Note_on_c, 9, 44, 0
4, 10953, Note_on_c, 9, 44, 0
4, 11023, Note_on_c, 9, 40, 0
4, 11027, Note_on_c, 9, 38, 0
4, 11044, Note_on_c, 9, 38, 44
4, 11045, Note_on_c, 9, 40, 40
4, 11096, Note_on_c, 9, 38, 0
4, 11107, Note_on_c, 9, 38, 51
4, 11159, Note_on_c, 9, 40, 0
4, 11160, Note_on_c, 9, 38, 0
4, 11160, Note_on_c, 9, 44, 58
4, 11160, Note_on_c, 9, 44, 60
4, 11169, Note_on_c, 9, 44, 0
4, 11171, Note_on_c, 9, 40, 38
4, 11173, Note_on_c, 9, 38, 42
4, 11193, Note_on_c, 9, 44, 0
4, 11233, Note_on_c, 9, 36, 28
4, 11243, Note_on_c, 9, 36, 0
4, 11263, Note_on_c, 9, 38, 0
4, 11264, Note_on_c, 9, 40, 0
4, 11283, Note_on_c, 9, 40, 44
4, 11283, Note_on_c, 9, 38, 45
4, 11347, Note_on_c, 9, 38, 0
4, 11350, Note_on_c, 9, 39, 36
4, 11388, Note_on_c, 9, 40, 0
4, 11400, Note_on_c, 9, 46, 44
4, 11400, Note_on_c, 9, 46, 34
4, 11401, Note_on_c, 9, 39, 0
4, 11407, Note_on_c, 9, 46, 0
4, 11407, Note_on_c, 9, 40, 37
4, 11408, Note_on_c, 9, 38, 37
4, 11435, Note_on_c, 9, 46, 0
4, 11465, Note_on_c, 9, 38, 0
4, 11469, Note_on_c, 9, 39, 35
4, 11490, Note_on_c, 9, 40, 0
4, 11499, Note_on_c, 9, 36, 31
4, 11502, Note_on_c, 9, 39, 0
4, 11508, Note_on_c, 9, 36, 0
4, 11508, Note_on_c, 9, 38, 47
4, 11516, Note_on_c, 9, 40, 26
4, 11517, Note_on_c, 9, 38, 0
4, 11520, Note_on_c, 9, 40, 0
4, 11528, Note_on_c, 9, 36, 37
4, 11530, Note_on_c, 9, 59, 40
4, 11531, Note_on_c, 9, 40, 35
4, 11531, Note_on_c, 9, 38, 43
4, 11555, Note_on_c, 9, 36, 0
4, 11558, Note_on_c, 9, 59, 0
4, 11589, Note_on_c, 9, 36, 37
4, 11590, Note_on_c, 9, 59, 31
4, 11613, Note_on_c, 9, 59, 0
4, 11614, Note_on_c, 9, 36, 0
4, 11627, Note_on_c, 9, 40, 0
4, 11632, Note_on_c, 9, 38, 0
4, 11640, Note_on_c, 9, 44, 79
4, 11640, Note_on_c, 9, 44, 34
4, 11641, Note_on_c, 9, 40, 33
4, 11643, Note_on_c, 9, 38, 57
4, 11674, Note_on_c, 9, 44, 0
4, 11674, Note_on_c, 9, 44, 0
4, 11741, Note_on_c, 9, 40, 0
4, 11747, Note_on_c, 9, 38, 0
4, 11757, Note_on_c, 9, 38, 58
4, 11758, Note_on_c, 9, 40, 36
4, 11850, Note_on_c, 9, 40, 0
4, 11856, Note_on_c, 9, 38, 0
4, 11873, Note_on_c, 9, 40, 44
4, 11874, Note_on_c, 9, 38, 46
4, 11880, Note_on_c, 9, 44, 55
4, 11880, Note_on_c, 9, 44, 50
4, 11897, Note_on_c, 9, 44, 0
4, 11914, Note_on_c, 9, 44, 0
4, 11973, Note_on_c, 9, 38, 0
4, 11973, Note_on_c, 9, 39, 53
4, 11979, Note_on_c, 9, 40, 0
4, 11986, Note_on_c, 9, 39, 0
4, 11995, Note_on_c, 9, 38, 45
4, 11996, Note_on_c, 9, 40, 49
4, 12043, Note_on_c, 9, 40, 0
4, 12046, Note_on_c, 9, 38, 0
4, 12059, Note_on_c, 9, 40, 37
4, 12060, Note_on_c, 9, 38, 47
4, 12120, Note_on_c, 9, 44, 57
4, 12120, Note_on_c, 9, 44, 44
4, 12131, Note_on_c, 9, 44, 0
4, 12158, Note_on_c, 9, 44, 0
4, 12164, Note_on_c, 9, 40, 0
4, 12168, Note_on_c, 9, 38, 0
4, 12180, Note_on_c, 9, 40, 37
4, 12180, Note_on_c, 9, 38, 46
4, 12225, Note_on_c, 9, 40, 0
4, 12228, Note_on_c, 9, 38, 0
4, 12237, Note_on_c, 9, 40, 50
4, 12238, Note_on_c, 9, 38, 43
4, 12308, Note_on_c, 9, 39, 32
4, 12336, Note_on_c, 9, 40, 0
4, 12345, Note_on_c, 9, 38, 0
4, 12357, Note_on_c, 9, 39, 0
4, 12360, Note_on_c, 9, 44, 58
4, 12360, Note_on_c, 9, 44, 48
4, 12366, Note_on_c, 9, 40, 35
4, 12366, Note_on_c, 9, 38, 28
4, 12385, Note_on_c, 9, 44, 0
4, 12391, Note_on_c, 9, 44, 0
4, 12406, Note_on_c, 9, 40, 0
4, 12410, Note_on_c, 9, 38, 0
4, 12460, Note_on_c, 9, 36, 31
4, 12466, Note_on_c, 9, 36, 0
4, 12487, Note_on_c, 9, 36, 24
4, 12517, Note_on_c, 9, 36, 0
4, 12600, Note_on_c, 9, 44, 61
4, 12600, Note_on_c, 9, 44, 44
4, 12617, Note_on_c, 9, 44, 0
4, 12629, Note_on_c, 9, 44, 0
4, 12840, Note_on_c, 9, 44, 69
4, 12840, Note_on_c, 9, 44, 49
4, 12844, Note_on_c, 9, 40, 28
4, 12847, Note_on_c, 9, 38, 30
4, 12854, Note_on_c, 9, 38, 0
4, 12856, Note_on_c, 9, 40, 0
4, 12864, Note_on_c, 9, 44, 0
4, 12876, Note_on_c, 9, 44, 0
4, 12964, Note_on_c, 9, 40, 28
4, 12964, Note_on_c, 9, 38, 37
4, 12974, Note_on_c, 9, 38, 0
4, 12982, Note_on_c, 9, 40, 0
4, 13080, Note_on_c, 9, 44, 69
4, 13080, Note_on_c, 9, 44, 52
4, 13084, Note_on_c, 9, 40, 27
4, 13086, Note_on_c, 9, 38, 32
4, 13093, Note_on_c, 9, 38, 0
4, 13099, Note_on_c, 9, 40, 0
4, 13108, Note_on_c, 9, 44, 0
4, 13112, Note_on_c, 9, 44, 0
4, 13206, Note_on_c, 9, 40, 15
4, 13233, Note_on_c, 9, 40, 0
4, 13262, Note_on_c, 9, 39, 32
4, 13281, Note_on_c, 9, 39, 0
4, 13320, Note_on_c, 9, 44, 74
4, 13320, Note_on_c, 9, 44, 45
4, 13322, Note_on_c, 9, 40, 33
4, 13323, Note_on_c, 9, 38, 32
4, 13332, Note_on_c, 9, 38, 0
4, 13337, Note_on_c, 9, 40, 0
4, 13354, Note_on_c, 9, 44, 0
4, 13354, Note_on_c, 9, 44, 0
4, 13440, Note_on_c, 9, 40, 44
4, 13440, Note_on_c, 9, 38, 57
4, 13444, Note_on_c, 9, 38, 34
4, 13445, Note_on_c, 9, 40, 24
4, 13450, Note_on_c, 9, 38, 0
4, 13457, Note_on_c, 9, 40, 0
4, 13538, Note_on_c, 9, 38, 0
4, 13542, Note_on_c, 9, 40, 0
4, 13560, Note_on_c, 9, 44, 71
4, 13560, Note_on_c, 9, 44, 50
4, 13562, Note_on_c, 9, 40, 46
4, 13563, Note_on_c, 9, 38, 60
4, 13584, Note_on_c, 9, 44, 0
4, 13586, Note_on_c, 9, 44, 0
4, 13646, Note_on_c, 9, 38, 0
4, 13660, Note_on_c, 9, 40, 0
4, 13684, Note_on_c, 9, 40, 39
4, 13684, Note_on_c, 9, 38, 44
4, 13735, Note_on_c, 9, 38, 0
4, 13746, Note_on_c, 9, 38, 48
4, 13784, Note_on_c, 9, 40, 0
4, 13788, Note_on_c, 9, 38, 0
4, 13800, Note_on_c, 9, 46, 39
4, 13804, Note_on_c, 9, 38, 42
4, 13805, Note_on_c, 9, 40, 36
4, 13814, Note_on_c, 9, 46, 0
4, 13855, Note_on_c, 9, 40, 0
4, 13868, Note_on_c, 9, 40, 19
4, 13880, Note_on_c, 9, 40, 0
4, 13881, Note_on_c, 9, 38, 0
4, 13900, Note_on_c, 9, 38, 48
4, 13907, Note_on_c, 9, 36, 22
4, 13913, Note_on_c, 9, 36, 0
4, 13913, Note_on_c, 9, 38, 0
4, 13924, Note_on_c, 9, 40, 53
4, 13925, Note_on_c, 9, 38, 48
4, 13994, Note_on_c, 9, 36, 31
4, 14009, Note_on_c, 9, 36, 0
4, 14028, Note_on_c, 9, 40, 0
4, 14033, Note_on_c, 9, 38, 0
4, 14040, Note_on_c, 9, 44, 46
4, 14048, Note_on_c, 9, 40, 44
4, 14049, Note_on_c, 9, 38, 41
4, 14070, Note_on_c, 9, 44, 0
4, 14085, Note_on_c, 9, 36, 38
4, 14091, Note_on_c, 9, 36, 0
4, 14136, Note_on_c, 9, 38, 0
4, 14137, Note_on_c, 9, 40, 0
4, 14140, Note_on_c, 9, 39, 64
4, 14148, Note_on_c, 9, 39, 0
4, 14160, Note_on_c, 9, 36, 37
4, 14163, Note_on_c, 9, 38, 49
4, 14163, Note_on_c, 9, 40, 34
4, 14176, Note_on_c, 9, 36, 0
4, 14210, Note_on_c, 9, 38, 0
4, 14211, Note_on_c, 9, 40, 0
4, 14225, Note_on_c, 9, 40, 44
4, 14225, Note_on_c, 9, 38, 51
4, 14280, Note_on_c, 9, 44, 55
4, 14306, Note_on_c, 9, 44, 0
4, 14321, Note_on_c, 9, 40, 0
4, 14329, Note_on_c, 9, 38, 0
4, 14343, Note_on_c, 9, 38, 39
4, 14344, Note_on_c, 9, 40, 31
4, 14388, Note_on_c, 9, 40, 0
4, 14392, Note_on_c, 9, 38, 0
4, 14405, Note_on_c, 9, 38, 35
4, 14405, Note_on_c, 9, 40, 43
4, 14505, Note_on_c, 9, 40, 0
4, 14511, Note_on_c, 9, 38, 0
4, 14520, Note_on_c, 9, 44, 53
4, 14526, Note_on_c, 9, 38, 37
4, 14526, Note_on_c, 9, 40, 35
4, 14552, Note_on_c, 9, 44, 0
4, 14610, Note_on_c, 9, 40, 0
4, 14610, Note_on_c, 9, 38, 0
4, 14626, Note_on_c, 9, 38, 49
4, 14636, Note_on_c, 9, 38, 0
4, 14647, Note_on_c, 9, 38, 44
4, 14648, Note_on_c, 9, 40, 55
4, 14743, Note_on_c, 9, 40, 0
4, 14748, Note_on_c, 9, 38, 0
4, 14760, Note_on_c, 9, 44, 53
4, 14763, Note_on_c, 9, 40, 41
4, 14763, Note_on_c, 9, 38, 46
4, 14794, Note_on_c, 9, 44, 0
4, 14822, Note_on_c, 9, 39, 53
4, 14828, Note_on_c, 9, 38, 0
4, 14829, Note_on_c, 9, 40, 0
4, 14859, Note_on_c, 9, 39, 0
4, 14859, Note_on_c, 9, 53, 43
4, 14865, Note_on_c, 9, 38, 40
4, 14867, Note_on_c, 9, 53, 0
4, 14877, Note_on_c, 9, 38, 0
4, 14885, Note_on_c, 9, 53, 35
4, 14886, Note_on_c, 9, 40, 48
4, 14888, Note_on_c, 9, 38, 54
4, 14909, Note_on_c, 9, 53, 0
4, 14935, Note_on_c, 9, 40, 0
4, 14939, Note_on_c, 9, 38, 0
4, 14949, Note_on_c, 9, 40, 41
4, 14950, Note_on_c, 9, 38, 44
4, 14981, Note_on_c, 9, 53, 49
4, 14993, Note_on_c, 9, 53, 0
4, 15000, Note_on_c, 9, 44, 62
4, 15007, Note_on_c, 9, 53, 37
4, 15026, Note_on_c, 9, 53, 0
4, 15040, Note_on_c, 9, 44, 0
4, 15044, Note_on_c, 9, 40, 0
4, 15053, Note_on_c, 9, 38, 0
4, 15061, Note_on_c, 9, 40, 46
4, 15062, Note_on_c, 9, 38, 35
4, 15064, Note_on_c, 9, 36, 39
4, 15071, Note_on_c, 9, 36, 0
4, 15097, Note_on_c, 9, 53, 45
4, 15104, Note_on_c, 9, 53, 0
4, 15107, Note_on_c, 9, 40, 0
4, 15114, Note_on_c, 9, 38, 0
4, 15120, Note_on_c, 9, 53, 44
4, 15123, Note_on_c, 9, 38, 39
4, 15123, Note_on_c, 9, 40, 36
4, 15135, Note_on_c, 9, 53, 0
4, 15183, Note_on_c, 9, 59, 48
4, 15188, Note_on_c, 9, 59, 0
4, 15223, Note_on_c, 9, 40, 0
4, 15228, Note_on_c, 9, 38, 0
4, 15240, Note_on_c, 9, 44, 63
4, 15241, Note_on_c, 9, 40, 49
4, 15243, Note_on_c, 9, 38, 44
4, 15280, Note_on_c, 9, 44, 0
4, 15334, Note_on_c, 9, 53, 30
4, 15344, Note_on_c, 9, 53, 0
4, 15344, Note_on_c, 9, 40, 0
4, 15349, Note_on_c, 9, 38, 0
4, 15361, Note_on_c, 9, 36, 44
4, 15362, Note_on_c, 9, 40, 42
4, 15363, Note_on_c, 9, 38, 48
4, 15363, Note_on_c, 9, 59, 60
4, 15367, Note_on_c, 9, 57, 34
4, 15374, Note_on_c, 9, 59, 0
4, 15381, Note_on_c, 9, 36, 0
4, 15382, Note_on_c, 9, 57, 0
4, 15423, Note_on_c, 9, 59, 66
4, 15434, Note_on_c, 9, 59, 0
4, 15464, Note_on_c, 9, 40, 0
4, 15470, Note_on_c, 9, 38, 0
4, 15480, Note_on_c, 9, 44, 61
4, 15486, Note_on_c, 9, 40, 41
4, 15486, Note_on_c, 9, 59, 79
4, 15487, Note_on_c, 9, 38, 55
4, 15529, Note_on_c, 9, 44, 0
4, 15531, Note_on_c, 9, 38, 0
4, 15578, Note_on_c, 9, 40, 0
4, 15599, Note_on_c, 9, 59, 0
4, 15615, Note_on_c, 9, 59, 41
4, 15616, Note_on_c, 9, 53, 24
4, 15624, Note_on_c, 9, 59, 0
4, 15626, Note_on_c, 9, 53, 0
4, 15720, Note_on_c, 9, 44, 60
4, 15732, Note_on_c, 9, 59, 55
4, 15733, Note_on_c, 9, 44, 37
4, 15737, Note_on_c, 9, 53, 53
4, 15743, Note_on_c, 9, 44, 0
4, 15744, Note_on_c, 9, 59, 0
4, 15754, Note_on_c, 9, 53, 0
4, 15782, Note_on_c, 9, 44, 0
4, 15830, Note_on_c, 9, 59, 57
4, 15835, Note_on_c, 9, 59, 0
4, 15853, Note_on_c, 9, 59, 57
4, 15875, Note_on_c, 9, 59, 0
4, 15910, Note_on_c, 9, 59, 54
4, 15911, Note_on_c, 9, 53, 30
4, 15926, Note_on_c, 9, 59, 0
4, 15927, Note_on_c, 9, 53, 0
4, 15960, Note_on_c, 9, 44, 46
4, 15970, Note_on_c, 9, 53, 38
4, 15972, Note_on_c, 9, 59, 39
4, 15982, Note_on_c, 9, 53, 0
4, 15986, Note_on_c, 9, 59, 0
4, 16006, Note_on_c, 9, 44, 0
4, 16034, Note_on_c, 9, 59, 46
4, 16045, Note_on_c, 9, 59, 0
4, 16094, Note_on_c, 9, 59, 65
4, 16099, Note_on_c, 9, 59, 0
4, 16150, Note_on_c, 9, 59, 53
4, 16182, Note_on_c, 9, 59, 0
4, 16200, Note_on_c, 9, 44, 56
4, 16209, Note_on_c, 9, 53, 41
4, 16219, Note_on_c, 9, 53, 0
4, 16232, Note_on_c, 9, 44, 0
4, 16239, Note_on_c, 9, 59, 56
4, 16252, Note_on_c, 9, 59, 0
4, 16295, Note_on_c, 9, 36, 26
4, 16308, Note_on_c, 9, 36, 0
4, 16320, Note_on_c, 9, 53, 39
4, 16320, Note_on_c, 9, 59, 47
4, 16321, Note_on_c, 9, 36, 49
4, 16331, Note_on_c, 9, 53, 0
4, 16332, Note_on_c, 9, 59, 0
4, 16355, Note_on_c, 9, 36, 0
4, 16381, Note_on_c, 9, 36, 34
4, 16407, Note_on_c, 9, 36, 0
4, 16440, Note_on_c, 9, 44, 56
4, 16441, Note_on_c, 9, 59, 47
4, 16445, Note_on_c, 9, 59, 0
4, 16495, Note_on_c, 9, 44, 0
4, 16499, Note_on_c, 9, 59, 49
4, 16502, Note_on_c, 9, 53, 31
4, 16506, Note_on_c, 9, 59, 0
4, 16508, Note_on_c, 9, 53, 0
4, 16562, Note_on_c, 9, 53, 50
4, 16562, Note_on_c, 9, 59, 48
4, 16572, Note_on_c, 9, 59, 0
4, 16572, Note_on_c, 9, 53, 0
4, 16680, Note_on_c, 9, 44, 56
4, 16686, Note_on_c, 9, 59, 45
4, 16687, Note_on_c, 9, 53, 41
4, 16693, Note_on_c, 9, 53, 0
4, 16696, Note_on_c, 9, 59, 0
4, 16720, Note_on_c, 9, 44, 0
4, 16748, Note_on_c, 9, 59, 29
4, 16752, Note_on_c, 9, 59, 0
4, 16807, Note_on_c, 9, 59, 55
4, 16807, Note_on_c, 9, 44, 47
4, 16807, Note_on_c, 9, 53, 49
4, 16815, Note_on_c, 9, 53, 0
4, 16817, Note_on_c, 9, 59, 0
4, 16818, Note_on_c, 9, 44, 0
4, 16872, Note_on_c, 9, 59, 34
4, 16880, Note_on_c, 9, 59, 0
4, 16920, Note_on_c, 9, 44, 50
4, 16930, Note_on_c, 9, 46, 45
4, 16931, Note_on_c, 9, 59, 57
4, 16933, Note_on_c, 9, 53, 43
4, 16941, Note_on_c, 9, 53, 0
4, 16941, Note_on_c, 9, 46, 0
4, 16944, Note_on_c, 9, 59, 0
4, 16946, Note_on_c, 9, 44, 0
4, 16995, Note_on_c, 9, 59, 44
4, 17004, Note_on_c, 9, 59, 0
4, 17050, Note_on_c, 9, 59, 51
4, 17051, Note_on_c, 9, 53, 41
4, 17051, Note_on_c, 9, 46, 32
4, 17062, Note_on_c, 9, 46, 0
4, 17063, Note_on_c, 9, 53, 0
4, 17065, Note_on_c, 9, 59, 0
4, 17116, Note_on_c, 9, 59, 24
4, 17121, Note_on_c, 9, 59, 0
4, 17160, Note_on_c, 9, 46, 43
4, 17167, Note_on_c, 9, 46, 29
4, 17167, Note_on_c, 9, 59, 43
4, 17168, Note_on_c, 9, 53, 31
4, 17176, Note_on_c, 9, 53, 0
4, 17176, Note_on_c, 9, 46, 0
4, 17176, Note_on_c, 9, 46, 0
4, 17178, Note_on_c, 9, 59, 0
4, 17227, Note_on_c, 9, 53, 40
4, 17227, Note_on_c, 9, 59, 32
4, 17229, Note_on_c, 9, 59, 45
4, 17233, Note_on_c, 9, 59, 0
4, 17233, Note_on_c, 9, 38, 44
4, 17241, Note_on_c, 9, 38, 0
4, 17246, Note_on_c, 9, 53, 0
4, 17251, Note_on_c, 9, 59, 0
4, 17261, Note_on_c, 9, 38, 57
4, 17274, Note_on_c, 9, 38, 0
4, 17285, Note_on_c, 9, 59, 50
4, 17289, Note_on_c, 9, 38, 51
4, 17290, Note_on_c, 9, 40, 50
4, 17292, Note_on_c, 9, 59, 0
4, 17293, Note_on_c, 9, 53, 38
4, 17294, Note_on_c, 9, 59, 54
4, 17312, Note_on_c, 9, 59, 0
4, 17319, Note_on_c, 9, 53, 0
4, 17324, Note_on_c, 9, 40, 0
4, 17326, Note_on_c, 9, 38, 0
4, 17350, Note_on_c, 9, 40, 48
4, 17350, Note_on_c, 9, 38, 50
4, 17400, Note_on_c, 9, 44, 54
4, 17430, Note_on_c, 9, 44, 0
4, 17435, Note_on_c, 9, 40, 0
4, 17443, Note_on_c, 9, 38, 0
4, 17468, Note_on_c, 9, 40, 43
4, 17468, Note_on_c, 9, 38, 54
4, 17511, Note_on_c, 9, 40, 0
4, 17515, Note_on_c, 9, 38, 0
4, 17530, Note_on_c, 9, 38, 42
4, 17531, Note_on_c, 9, 40, 31
4, 17628, Note_on_c, 9, 40, 0
4, 17634, Note_on_c, 9, 38, 0
4, 17640, Note_on_c, 9, 44, 55
4, 17646, Note_on_c, 9, 40, 44
4, 17647, Note_on_c, 9, 38, 45
4, 17649, Note_on_c, 9, 53, 36
4, 17651, Note_on_c, 9, 59, 32
4, 17671, Note_on_c, 9, 53, 0
4, 17672, Note_on_c, 9, 59, 0
4, 17673, Note_on_c, 9, 44, 0
4, 17736, Note_on_c, 9, 40, 0
4, 17743, Note_on_c, 9, 59, 40
4, 17746, Note_on_c, 9, 38, 0
4, 17750, Note_on_c, 9, 59, 0
4, 17760, Note_on_c, 9, 40, 45
4, 17761, Note_on_c, 9, 38, 40
4, 17777, Note_on_c, 9, 59, 34
4, 17778, Note_on_c, 9, 53, 25
4, 17797, Note_on_c, 9, 53, 0
4, 17801, Note_on_c, 9, 59, 0
4, 17837, Note_on_c, 9, 53, 29
4, 17838, Note_on_c, 9, 59, 30
4, 17861, Note_on_c, 9, 40, 0
4, 17862, Note_on_c, 9, 53, 0
4, 17866, Note_on_c, 9, 38, 0
4, 17867, Note_on_c, 9, 59, 0
4, 17879, Note_on_c, 9, 40, 49
4, 17880, Note_on_c, 9, 44, 49
4, 17880, Note_on_c, 9, 38, 34
4, 17907, Note_on_c, 9, 44, 0
4, 17976, Note_on_c, 9, 40, 0
4, 17984, Note_on_c, 9, 38, 0
4, 17998, Note_on_c, 9, 40, 38
4, 18000, Note_on_c, 9, 38, 34
4, 18105, Note_on_c, 9, 40, 0
4, 18108, Note_on_c, 9, 38, 0
4, 18120, Note_on_c, 9, 44, 50
4, 18124, Note_on_c, 9, 40, 32
4, 18125, Note_on_c, 9, 38, 40
4, 18150, Note_on_c, 9, 44, 0
4, 18174, Note_on_c, 9, 38, 0
4, 18187, Note_on_c, 9, 38, 53
4, 18192, Note_on_c, 9, 59, 33
4, 18197, Note_on_c, 9, 59, 0
4, 18230, Note_on_c, 9, 38, 0
4, 18234, Note_on_c, 9, 40, 0
4, 18248, Note_on_c, 9, 38, 52
4, 18249, Note_on_c, 9, 40, 36
4, 18310, Note_on_c, 9, 53, 60
4, 18311, Note_on_c, 9, 59, 52
4, 18335, Note_on_c, 9, 53, 0
4, 18336, Note_on_c, 9, 59, 0
4, 18348, Note_on_c, 9, 40, 0
4, 18352, Note_on_c, 9, 38, 0
4, 18360, Note_on_c, 9, 44, 55
4, 18364, Note_on_c, 9, 40, 32
4, 18364, Note_on_c, 9, 38, 51
4, 18373, Note_on_c, 9, 59, 56
4, 18373, Note_on_c, 9, 53, 53
4, 18405, Note_on_c, 9, 59, 0
4, 18408, Note_on_c, 9, 44, 0
4, 18408, Note_on_c, 9, 53, 0
4, 18486, Note_on_c, 9, 59, 56
4, 18487, Note_on_c, 9, 53, 48
4, 18503, Note_on_c, 9, 53, 0
4, 18505, Note_on_c, 9, 59, 0
4, 18528, Note_on_c, 9, 40, 0
4, 18532, Note_on_c, 9, 38, 0
4, 18543, Note_on_c, 9, 40, 32
4, 18543, Note_on_c, 9, 38, 62
4, 18546, Note_on_c, 9, 53, 52
4, 18546, Note_on_c, 9, 59, 50
4, 18584, Note_on_c, 9, 59, 0
4, 18586, Note_on_c, 9, 53, 0
4, 18600, Note_on_c, 9, 36, 50
4, 18600, Note_on_c, 9, 44, 51
4, 18619, Note_on_c, 9, 36, 0
4, 18640, Note_on_c, 9, 44, 0
4, 18648, Note_on_c, 9, 38, 0
4, 18660, Note_on_c, 9, 38, 57
4, 18662, Note_on_c, 9, 59, 51
4, 18663, Note_on_c, 9, 53, 33
4, 18683, Note_on_c, 9, 53, 0
4, 18684, Note_on_c, 9, 59, 0
4, 18685, Note_on_c, 9, 40, 0
4, 18696, Note_on_c, 9, 38, 0
4, 18718, Note_on_c, 9, 40, 49
4, 18718, Note_on_c, 9, 38, 51
4, 18721, Note_on_c, 9, 59, 39
4, 18723, Note_on_c, 9, 53, 34
4, 18737, Note_on_c, 9, 59, 0
4, 18743, Note_on_c, 9, 53, 0
4, 18784, Note_on_c, 9, 36, 24
4, 18801, Note_on_c, 9, 36, 0
4, 18818, Note_on_c, 9, 40, 0
4, 18822, Note_on_c, 9, 38, 0
4, 18840, Note_on_c, 9, 46, 45
4, 18844, Note_on_c, 9, 53, 25
4, 18846, Note_on_c, 9, 59, 27
4, 18847, Note_on_c, 9, 40, 43
4, 18847, Note_on_c, 9, 38, 40
4, 18857, Note_on_c, 9, 53, 0
4, 18859, Note_on_c, 9, 59, 0
4, 18870, Note_on_c, 9, 46, 0
4, 18890, Note_on_c, 9, 38, 0
4, 18901, Note_on_c, 9, 59, 35
4, 18902, Note_on_c, 9, 38, 45
4, 18903, Note_on_c, 9, 53, 26
4, 18918, Note_on_c, 9, 59, 0
4, 18922, Note_on_c, 9, 53, 0
4, 18948, Note_on_c, 9, 40, 0
4, 18950, Note_on_c, 9, 38, 0
4, 18964, Note_on_c, 9, 36, 34
4, 18965, Note_on_c, 9, 38, 43
4, 18965, Note_on_c, 9, 40, 49
4, 18979, Note_on_c, 9, 36, 0
4, 19025, Note_on_c, 9, 53, 31
4, 19026, Note_on_c, 9, 59, 34
4, 19036, Note_on_c, 9, 53, 0
4, 19038, Note_on_c, 9, 59, 0
4, 19064, Note_on_c, 9, 40, 0
4, 19071, Note_on_c, 9, 38, 0
4, 19080, Note_on_c, 9, 46, 43
4, 19083, Note_on_c, 9, 38, 45
4, 19083, Note_on_c, 9, 40, 43
4, 19087, Note_on_c, 9, 53, 20
4, 19088, Note_on_c, 9, 59, 30
4, 19104, Note_on_c, 9, 46, 0
4, 19125, Note_on_c, 9, 38, 0
4, 19140, Note_on_c, 9, 38, 48
4, 19152, Note_on_c, 9, 40, 0
4, 19164, Note_on_c, 9, 59, 0
4, 19164, Note_on_c, 9, 53, 0
4, 19175, Note_on_c, 9, 36, 72
4, 19178, Note_on_c, 9, 38, 0
4, 19188, Note_on_c, 9, 36, 0
4, 19199, Note_on_c, 9, 40, 44
4, 19200, Note_on_c, 9, 38, 48
4, 19203, Note_on_c, 9, 36, 29
4, 19212, Note_on_c, 9, 59, 25
4, 19215, Note_on_c, 9, 36, 0
4, 19218, Note_on_c, 9, 59, 0
4, 19296, Note_on_c, 9, 40, 0
4, 19299, Note_on_c, 9, 38, 0
4, 19319, Note_on_c, 9, 38, 50
4, 19319, Note_on_c, 9, 40, 35
4, 19320, Note_on_c, 9, 44, 60
4, 19321, Note_on_c, 9, 59, 39
4, 19330, Note_on_c, 9, 59, 0
4, 19367, Note_on_c, 9, 44, 0
4, 19382, Note_on_c, 9, 38, 0
4, 19422, Note_on_c, 9, 38, 65
4, 19425, Note_on_c, 9, 40, 0
4, 19428, Note_on_c, 9, 38, 0
4, 19447, Note_on_c, 9, 40, 55
4, 19448, Note_on_c, 9, 38, 56
4, 19539, Note_on_c, 9, 40, 0
4, 19545, Note_on_c, 9, 38, 0
4, 19559, Note_on_c, 9, 38, 41
4, 19559, Note_on_c, 9, 40, 37
4, 19560, Note_on_c, 9, 44, 62
4, 19602, Note_on_c, 9, 44, 0
4, 19612, Note_on_c, 9, 38, 0
4, 19622, Note_on_c, 9, 38, 60
4, 19657, Note_on_c, 9, 38, 0
4, 19658, Note_on_c, 9, 40, 0
4, 19680, Note_on_c, 9, 40, 35
4, 19681, Note_on_c, 9, 38, 58
4, 19773, Note_on_c, 9, 40, 0
4, 19783, Note_on_c, 9, 38, 0
4, 19800, Note_on_c, 9, 44, 53
4, 19801, Note_on_c, 9, 38, 44
4, 19803, Note_on_c, 9, 40, 41
4, 19836, Note_on_c, 9, 44, 0
4, 19853, Note_on_c, 9, 38, 0
4, 19861, Note_on_c, 9, 38, 37
4, 19872, Note_on_c, 9, 40, 0
4, 19910, Note_on_c, 9, 38, 0
4, 19923, Note_on_c, 9, 40, 35
4, 19924, Note_on_c, 9, 38, 51
4, 20022, Note_on_c, 9, 40, 0
4, 20030, Note_on_c, 9, 38, 0
4, 20040, Note_on_c, 9, 44, 61
4, 20045, Note_on_c, 9, 40, 34
4, 20045, Note_on_c, 9, 38, 39
4, 20077, Note_on_c, 9, 44, 0
4, 20114, Note_on_c, 9, 38, 0
4, 20138, Note_on_c, 9, 38, 41
4, 20139, Note_on_c, 9, 40, 0
4, 20155, Note_on_c, 9, 38, 0
4, 20165, Note_on_c, 9, 40, 31
4, 20169, Note_on_c, 9, 38, 42
4, 20259, Note_on_c, 9, 40, 0
4, 20267, Note_on_c, 9, 38, 0
4, 20280, Note_on_c, 9, 44, 58
4, 20280, Note_on_c, 9, 40, 28
4, 20281, Note_on_c, 9, 38, 41
4, 20323, Note_on_c, 9, 44, 0
4, 20360, Note_on_c, 9, 38, 0
4, 20378, Note_on_c, 9, 38, 40
4, 20382, Note_on_c, 9, 40, 0
4, 20388, Note_on_c, 9, 38, 0
4, 20401, Note_on_c, 9, 38, 57
4, 20402, Note_on_c, 9, 40, 20
4, 20497, Note_on_c, 9, 40, 0
4, 20504, Note_on_c, 9, 38, 0
4, 20517, Note_on_c, 9, 38, 45
4, 20518, Note_on_c, 9, 40, 46
4, 20520, Note_on_c, 9, 44, 69
4, 20572, Note_on_c, 9, 44, 0
4, 20599, Note_on_c, 9, 38, 0
4, 20621, Note_on_c, 9, 38, 51
4, 20624, Note_on_c, 9, 40, 0
4, 20626, Note_on_c, 9, 38, 0
4, 20642, Note_on_c, 9, 40, 57
4, 20643, Note_on_c, 9, 38, 62
4, 20741, Note_on_c, 9, 40, 0
4, 20745, Note_on_c, 9, 38, 0
4, 20759, Note_on_c, 9, 38, 46
4, 20760, Note_on_c, 9, 44, 62
4, 20760, Note_on_c, 9, 40, 45
4, 20803, Note_on_c, 9, 44, 0
4, 20859, Note_on_c, 9, 38, 0
4, 20862, Note_on_c, 9, 39, 46
4, 20864, Note_on_c, 9, 40, 0
4, 20876, Note_on_c, 9, 39, 0
4, 20885, Note_on_c, 9, 40, 35
4, 20886, Note_on_c, 9, 38, 36
4, 20912, Note_on_c, 9, 40, 0
4, 20917, Note_on_c, 9, 38, 0
4, 20925, Note_on_c, 9, 40, 43
4, 20926, Note_on_c, 9, 38, 46
4, 20977, Note_on_c, 9, 38, 0
4, 20982, Note_on_c, 9, 40, 0
4, 20983, Note_on_c, 9, 39, 43
4, 20996, Note_on_c, 9, 39, 0
4, 21000, Note_on_c, 9, 44, 63
4, 21003, Note_on_c, 9, 38, 29
4, 21004, Note_on_c, 9, 40, 47
4, 21030, Note_on_c, 9, 40, 0
4, 21035, Note_on_c, 9, 38, 0
4, 21043, Note_on_c, 9, 40, 38
4, 21043, Note_on_c, 9, 38, 39
4, 21047, Note_on_c, 9, 44, 0
4, 21091, Note_on_c, 9, 40, 0
4, 21094, Note_on_c, 9, 38, 0
4, 21101, Note_on_c, 9, 39, 44
4, 21102, Note_on_c, 9, 36, 43
4, 21112, Note_on_c, 9, 39, 0
4, 21113, Note_on_c, 9, 36, 0
4, 21117, Note_on_c, 9, 38, 34
4, 21119, Note_on_c, 9, 40, 44
4, 21130, Note_on_c, 9, 36, 27
4, 21137, Note_on_c, 9, 36, 0
4, 21165, Note_on_c, 9, 40, 0
4, 21169, Note_on_c, 9, 38, 0
4, 21173, Note_on_c, 9, 36, 40
4, 21179, Note_on_c, 9, 36, 0
4, 21179, Note_on_c, 9, 40, 49
4, 21181, Note_on_c, 9, 38, 47
4, 21223, Note_on_c, 9, 40, 0
4, 21228, Note_on_c, 9, 38, 0
4, 21240, Note_on_c, 9, 44, 67
4, 21241, Note_on_c, 9, 38, 49
4, 21242, Note_on_c, 9, 40, 45
4, 21244, Note_on_c, 9, 36, 42
4, 21250, Note_on_c, 9, 36, 0
4, 21291, Note_on_c, 9, 38, 0
4, 21292, Note_on_c, 9, 44, 0
4, 21301, Note_on_c, 9, 38, 70
4, 21343, Note_on_c, 9, 40, 0
4, 21346, Note_on_c, 9, 38, 0
4, 21359, Note_on_c, 9, 38, 46
4, 21359, Note_on_c, 9, 40, 45
4, 21400, Note_on_c, 9, 36, 34
4, 21402, Note_on_c, 9, 40, 0
4, 21406, Note_on_c, 9, 36, 0
4, 21406, Note_on_c, 9, 38, 0
4, 21420, Note_on_c, 9, 40, 52
4, 21420, Note_on_c, 9, 38, 52
4, 21478, Note_on_c, 9, 36, 36
4, 21480, Note_on_c, 9, 44, 68
4, 21485, Note_on_c, 9, 36, 0
4, 21504, Note_on_c, 9, 38, 0
4, 21511, Note_on_c, 9, 40, 0
4, 21519, Note_on_c, 9, 39, 33
4, 21524, Note_on_c, 9, 44, 0
4, 21538, Note_on_c, 9, 39, 0
4, 21544, Note_on_c, 9, 38, 36
4, 21544, Note_on_c, 9, 40, 50
4, 21565, Note_on_c, 9, 40, 0
4, 21570, Note_on_c, 9, 38, 0
4, 21583, Note_on_c, 9, 38, 51
4, 21584, Note_on_c, 9, 40, 52
4, 21597, Note_on_c, 9, 40, 0
4, 21602, Note_on_c, 9, 38, 0
4, 21608, Note_on_c, 9, 40, 38
4, 21609, Note_on_c, 9, 38, 36
4, 21643, Note_on_c, 9, 36, 24
4, 21650, Note_on_c, 9, 36, 0
4, 21691, Note_on_c, 9, 40, 0
4, 21696, Note_on_c, 9, 38, 0
4, 21715, Note_on_c, 9, 38, 47
4, 21717, Note_on_c, 9, 40, 36
4, 21720, Note_on_c, 9, 44, 70
4, 21742, Note_on_c, 9, 38, 0
4, 21755, Note_on_c, 9, 38, 48
4, 21761, Note_on_c, 9, 44, 0
4, 21771, Note_on_c, 9, 40, 0
4, 21785, Note_on_c, 9, 40, 36
4, 21791, Note_on_c, 9, 40, 0
4, 21796, Note_on_c, 9, 38, 0
4, 21813, Note_on_c, 9, 40, 58
4, 21813, Note_on_c, 9, 38, 62
4, 21816, Note_on_c, 9, 36, 60
4, 21821, Note_on_c, 9, 36, 0
4, 21824, Note_on_c, 9, 40, 0
4, 21828, Note_on_c, 9, 38, 0
4, 21838, Note_on_c, 9, 40, 41
4, 21839, Note_on_c, 9, 38, 57
4, 21886, Note_on_c, 9, 40, 0
4, 21891, Note_on_c, 9, 38, 0
4, 21899, Note_on_c, 9, 40, 44
4, 21899, Note_on_c, 9, 38, 49
4, 21926, Note_on_c, 9, 38, 0
4, 21937, Note_on_c, 9, 38, 52
4, 21940, Note_on_c, 9, 40, 0
4, 21960, Note_on_c, 9, 44, 65
4, 21962, Note_on_c, 9, 40, 54
4, 21996, Note_on_c, 9, 40, 0
4, 21997, Note_on_c, 9, 38, 0
4, 22001, Note_on_c, 9, 44, 0
4, 22019, Note_on_c, 9, 40, 43
4, 22020, Note_on_c, 9, 38, 40
4, 22045, Note_on_c, 9, 38, 0
4, 22050, Note_on_c, 9, 40, 0
4, 22056, Note_on_c, 9, 36, 35
4, 22061, Note_on_c, 9, 38, 52
4, 22064, Note_on_c, 9, 36, 0
4, 22070, Note_on_c, 9, 38, 0
4, 22080, Note_on_c, 9, 38, 57
4, 22080, Note_on_c, 9, 40, 54
4, 22115, Note_on_c, 9, 40, 0
4, 22121, Note_on_c, 9, 38, 0
4, 22141, Note_on_c, 9, 40, 51
4, 22142, Note_on_c, 9, 38, 34
4, 22173, Note_on_c, 9, 40, 0
4, 22178, Note_on_c, 9, 38, 0
4, 22200, Note_on_c, 9, 44, 60
4, 22203, Note_on_c, 9, 40, 47
4, 22203, Note_on_c, 9, 38, 43
4, 22239, Note_on_c, 9, 44, 0
4, 22242, Note_on_c, 9, 38, 0
4, 22242, Note_on_c, 9, 40, 0
4, 22242, Note_on_c, 9, 39, 46
4, 22259, Note_on_c, 9, 39, 0
4, 22267, Note_on_c, 9, 40, 50
4, 22267, Note_on_c, 9, 38, 32
4, 22281, Note_on_c, 9, 40, 0
4, 22289, Note_on_c, 9, 38, 0
4, 22300, Note_on_c, 9, 38, 49
4, 22302, Note_on_c, 9, 40, 35
4, 22313, Note_on_c, 9, 40, 0
4, 22317, Note_on_c, 9, 38, 0
4, 22324, Note_on_c, 9, 40, 42
4, 22326, Note_on_c, 9, 38, 44
4, 22419, Note_on_c, 9, 40, 0
4, 22425, Note_on_c, 9, 38, 0
4, 22440, Note_on_c, 9, 44, 68
4, 22440, Note_on_c, 9, 38, 51
4, 22440, Note_on_c, 9, 40, 38
4, 22476, Note_on_c, 9, 39, 47
4, 22479, Note_on_c, 9, 38, 0
4, 22482, Note_on_c, 9, 40, 0
4, 22489, Note_on_c, 9, 44, 0
4, 22495, Note_on_c, 9, 39, 0
4, 22501, Note_on_c, 9, 38, 29
4, 22502, Note_on_c, 9, 40, 39
4, 22519, Note_on_c, 9, 40, 0
4, 22525, Note_on_c, 9, 38, 0
4, 22537, Note_on_c, 9, 36, 46
4, 22544, Note_on_c, 9, 36, 0
4, 22559, Note_on_c, 9, 38, 50
4, 22559, Note_on_c, 9, 40, 46
4, 22651, Note_on_c, 9, 40, 0
4, 22655, Note_on_c, 9, 38, 0
4, 22680, Note_on_c, 9, 44, 65
4, 22680, Note_on_c, 9, 40, 40
4, 22681, Note_on_c, 9, 38, 35
4, 22721, Note_on_c, 9, 44, 0
4, 22721, Note_on_c, 9, 36, 31
4, 22726, Note_on_c, 9, 36, 0
4, 22762, Note_on_c, 9, 38, 0
4, 22773, Note_on_c, 9, 40, 0
4, 22785, Note_on_c, 9, 38, 34
4, 22792, Note_on_c, 9, 38, 0
4, 22806, Note_on_c, 9, 38, 46
4, 22808, Note_on_c, 9, 40, 40
4, 22848, Note_on_c, 9, 40, 0
4, 22850, Note_on_c, 9, 38, 0
4, 22865, Note_on_c, 9, 40, 48
4, 22866, Note_on_c, 9, 38, 51
4, 22904, Note_on_c, 9, 39, 51
4, 22907, Note_on_c, 9, 38, 0
4, 22910, Note_on_c, 9, 40, 0
4, 22919, Note_on_c, 9, 39, 0
4, 22920, Note_on_c, 9, 44, 64
4, 22926, Note_on_c, 9, 38, 28
4, 22928, Note_on_c, 9, 40, 51
4, 22948, Note_on_c, 9, 40, 0
4, 22954, Note_on_c, 9, 38, 0
4, 22962, Note_on_c, 9, 40, 56
4, 22965, Note_on_c, 9, 38, 63
4, 22968, Note_on_c, 9, 44, 0
4, 22981, Note_on_c, 9, 39, 30
4, 22986, Note_on_c, 9, 40, 0
4, 22986, Note_on_c, 9, 39, 62
4, 22988, Note_on_c, 9, 38, 0
4, 22998, Note_on_c, 9, 39, 0
4, 23010, Note_on_c, 9, 39, 0
4, 23019, Note_on_c, 9, 39, 58
4, 23021, Note_on_c, 9, 38, 42
4, 23022, Note_on_c, 9, 40, 36
4, 23027, Note_on_c, 9, 39, 0
4, 23034, Note_on_c, 9, 40, 0
4, 23034, Note_on_c, 9, 38, 0
4, 23047, Note_on_c, 9, 40, 47
4, 23048, Note_on_c, 9, 38, 52
4, 23078, Note_on_c, 9, 40, 0
4, 23083, Note_on_c, 9, 38, 0
4, 23086, Note_on_c, 9, 36, 24
4, 23094, Note_on_c, 9, 36, 0
4, 23101, Note_on_c, 9, 38, 51
4, 23102, Note_on_c, 9, 40, 44
4, 23109, Note_on_c, 9, 36, 38
4, 23119, Note_on_c, 9, 36, 0
4, 23147, Note_on_c, 9, 40, 0
4, 23149, Note_on_c, 9, 36, 41
4, 23151, Note_on_c, 9, 38, 0
4, 23156, Note_on_c, 9, 36, 0
4, 23160, Note_on_c, 9, 44, 71
4, 23161, Note_on_c, 9, 40, 34
4, 23162, Note_on_c, 9, 38, 53
4, 23204, Note_on_c, 9, 44, 0
4, 23210, Note_on_c, 9, 40, 0
4, 23216, Note_on_c, 9, 38, 0
4, 23227, Note_on_c, 9, 38, 30
4, 23228, Note_on_c, 9, 40, 30
4, 23236, Note_on_c, 9, 40, 0
4, 23240, Note_on_c, 9, 38, 0
4, 23267, Note_on_c, 9, 38, 60
4, 23281, Note_on_c, 9, 38, 0
4, 23289, Note_on_c, 9, 40, 65
4, 23289, Note_on_c, 9, 38, 54
4, 23387, Note_on_c, 9, 40, 0
4, 23395, Note_on_c, 9, 38, 0
4, 23400, Note_on_c, 9, 44, 70
4, 23402, Note_on_c, 9, 40, 48
4, 23404, Note_on_c, 9, 38, 66
4, 23438, Note_on_c, 9, 44, 0
4, 23441, Note_on_c, 9, 39, 43
4, 23442, Note_on_c, 9, 39, 60
4, 23444, Note_on_c, 9, 38, 0
4, 23445, Note_on_c, 9, 39, 0
4, 23447, Note_on_c, 9, 40, 0
4, 23458, Note_on_c, 9, 39, 0
4, 23466, Note_on_c, 9, 40, 39
4, 23467, Note_on_c, 9, 38, 24
4, 23487, Note_on_c, 9, 40, 0
4, 23494, Note_on_c, 9, 38, 0
4, 23505, Note_on_c, 9, 40, 34
4, 23505, Note_on_c, 9, 38, 51
4, 23506, Note_on_c, 9, 36, 33
4, 23510, Note_on_c, 9, 36, 0
4, 23514, Note_on_c, 9, 40, 0
4, 23517, Note_on_c, 9, 38, 0
4, 23528, Note_on_c, 9, 40, 33
4, 23529, Note_on_c, 9, 38, 46
4, 23617, Note_on_c, 9, 40, 0
4, 23623, Note_on_c, 9, 38, 0
4, 23640, Note_on_c, 9, 44, 69
4, 23642, Note_on_c, 9, 40, 36
4, 23643, Note_on_c, 9, 38, 36
4, 23678, Note_on_c, 9, 44, 0
4, 23679, Note_on_c, 9, 39, 45
4, 23683, Note_on_c, 9, 39, 0
4, 23687, Note_on_c, 9, 40, 0
4, 23693, Note_on_c, 9, 38, 0
4, 23701, Note_on_c, 9, 40, 37
4, 23703, Note_on_c, 9, 38, 61
4, 23739, Note_on_c, 9, 36, 44
4, 23747, Note_on_c, 9, 40, 0
4, 23749, Note_on_c, 9, 36, 0
4, 23750, Note_on_c, 9, 38, 0
4, 23762, Note_on_c, 9, 38, 50
4, 23762, Note_on_c, 9, 40, 46
4, 23764, Note_on_c, 9, 36, 36
4, 23771, Note_on_c, 9, 36, 0
4, 23801, Note_on_c, 9, 36, 56
4, 23811, Note_on_c, 9, 36, 0
4, 23815, Note_on_c, 9, 40, 0
4, 23815, Note_on_c, 9, 38, 0
4, 23821, Note_on_c, 9, 40, 24
4, 23830, Note_on_c, 9, 38, 70
4, 23836, Note_on_c, 9, 40, 0
4, 23842, Note_on_c, 9, 40, 28
4, 23868, Note_on_c, 9, 38, 0
4, 23870, Note_on_c, 9, 40, 0
4, 23880, Note_on_c, 9, 44, 64
4, 23886, Note_on_c, 9, 39, 29
4, 23887, Note_on_c, 9, 40, 43
4, 23887, Note_on_c, 9, 38, 47
4, 23891, Note_on_c, 9, 39, 0
4, 23921, Note_on_c, 9, 39, 60
4, 23923, Note_on_c, 9, 38, 0
4, 23925, Note_on_c, 9, 40, 0
4, 23927, Note_on_c, 9, 44, 0
4, 23928, Note_on_c, 9, 39, 0
4, 23941, Note_on_c, 9, 38, 44
4, 23941, Note_on_c, 9, 40, 39
4, 23944, Note_on_c, 9, 36, 30
4, 23951, Note_on_c, 9, 36, 0
4, 23969, Note_on_c, 9, 38, 0
4, 23978, Note_on_c, 9, 40, 0
4, 23983, Note_on_c, 9, 36, 44
4, 23984, Note_on_c, 9, 38, 58
4, 23994, Note_on_c, 9, 38, 0
4, 23994, Note_on_c, 9, 36, 0
4, 24004, Note_on_c, 9, 40, 58
4, 24004, Note_on_c, 9, 38, 60
4, 24010, Note_on_c, 9, 36, 31
4, 24018, Note_on_c, 9, 36, 0
4, 24109, Note_on_c, 9, 40, 0
4, 24112, Note_on_c, 9, 38, 0
4, 24120, Note_on_c, 9, 44, 73
4, 24123, Note_on_c, 9, 40, 37
4, 24124, Note_on_c, 9, 38, 56
4, 24154, Note_on_c, 9, 44, 0
4, 24159, Note_on_c, 9, 36, 39
4, 24160, Note_on_c, 9, 38, 0
4, 24164, Note_on_c, 9, 36, 0
4, 24180, Note_on_c, 9, 38, 44
4, 24225, Note_on_c, 9, 38, 0
4, 24228, Note_on_c, 9, 40, 0
4, 24239, Note_on_c, 9, 38, 47
4, 24239, Note_on_c, 9, 40, 37
4, 24242, Note_on_c, 9, 36, 35
4, 24248, Note_on_c, 9, 36, 0
4, 24280, Note_on_c, 9, 38, 0
4, 24297, Note_on_c, 9, 38, 44
4, 24310, Note_on_c, 9, 40, 0
4, 24346, Note_on_c, 9, 38, 0
4, 24357, Note_on_c, 9, 40, 43
4, 24358, Note_on_c, 9, 38, 46
4, 24360, Note_on_c, 9, 44, 67
4, 24395, Note_on_c, 9, 38, 0
4, 24401, Note_on_c, 9, 44, 0
4, 24401, Note_on_c, 9, 40, 0
4, 24417, Note_on_c, 9, 40, 32
4, 24417, Note_on_c, 9, 38, 51
4, 24439, Note_on_c, 9, 38, 0
4, 24442, Note_on_c, 9, 40, 0
4, 24475, Note_on_c, 9, 40, 38
4, 24476, Note_on_c, 9, 38, 49
4, 24483, Note_on_c, 9, 59, 58
4, 24484, Note_on_c, 9, 53, 60
4, 24494, Note_on_c, 9, 53, 0
4, 24505, Note_on_c, 9, 59, 0
4, 24519, Note_on_c, 9, 39, 44
4, 24521, Note_on_c, 9, 38, 0
4, 24524, Note_on_c, 9, 40, 0
4, 24532, Note_on_c, 9, 39, 0
4, 24539, Note_on_c, 9, 59, 59
4, 24542, Note_on_c, 9, 40, 37
4, 24543, Note_on_c, 9, 53, 50
4, 24543, Note_on_c, 9, 38, 30
4, 24555, Note_on_c, 9, 53, 0
4, 24557, Note_on_c, 9, 59, 0
4, 24584, Note_on_c, 9, 40, 0
4, 24589, Note_on_c, 9, 38, 0
4, 24600, Note_on_c, 9, 44, 59
4, 24602, Note_on_c, 9, 36, 37
4, 24602, Note_on_c, 9, 40, 40
4, 24603, Note_on_c, 9, 38, 49
4, 24609, Note_on_c, 9, 36, 0
4, 24646, Note_on_c, 9, 44, 0
4, 24660, Note_on_c, 9, 36, 46
4, 24670, Note_on_c, 9, 36, 0
4, 24692, Note_on_c, 9, 38, 0
4, 24707, Note_on_c, 9, 40, 0
4, 24720, Note_on_c, 9, 59, 62
4, 24722, Note_on_c, 9, 53, 55
4, 24723, Note_on_c, 9, 40, 39
4, 24725, Note_on_c, 9, 38, 53
4, 24741, Note_on_c, 9, 59, 0
4, 24745, Note_on_c, 9, 53, 0
4, 24779, Note_on_c, 9, 59, 60
4, 24782, Note_on_c, 9, 53, 53
4, 24791, Note_on_c, 9, 59, 0
4, 24799, Note_on_c, 9, 53, 0
4, 24802, Note_on_c, 9, 38, 0
4, 24819, Note_on_c, 9, 38, 56
4, 24821, Note_on_c, 9, 40, 0
4, 24837, Note_on_c, 9, 38, 0
4, 24840, Note_on_c, 9, 44, 63
4, 24848, Note_on_c, 9, 36, 31
4, 24848, Note_on_c, 9, 40, 30
4, 24849, Note_on_c, 9, 38, 49
4, 24854, Note_on_c, 9, 36, 0
4, 24885, Note_on_c, 9, 44, 0
4, 24890, Note_on_c, 9, 40, 0
4, 24894, Note_on_c, 9, 38, 0
4, 24902, Note_on_c, 9, 40, 48
4, 24903, Note_on_c, 9, 38, 68
4, 24942, Note_on_c, 9, 36, 44
4, 24947, Note_on_c, 9, 36, 0
4, 24949, Note_on_c, 9, 40, 0
4, 24955, Note_on_c, 9, 38, 0
4, 24965, Note_on_c, 9, 40, 46
4, 24966, Note_on_c, 9, 38, 53
4, 25063, Note_on_c, 9, 40, 0
4, 25068, Note_on_c, 9, 38, 0
4, 25080, Note_on_c, 9, 44, 60
4, 25083, Note_on_c, 9, 40, 38
4, 25084, Note_on_c, 9, 38, 38
4, 25122, Note_on_c, 9, 44, 0
4, 25125, Note_on_c, 9, 38, 0
4, 25142, Note_on_c, 9, 38, 49
4, 25181, Note_on_c, 9, 39, 63
4, 25188, Note_on_c, 9, 38, 0
4, 25189, Note_on_c, 9, 39, 0
4, 25192, Note_on_c, 9, 40, 0
4, 25202, Note_on_c, 9, 40, 52
4, 25202, Note_on_c, 9, 38, 55
4, 25204, Note_on_c, 9, 36, 24
4, 25213, Note_on_c, 9, 36, 0
4, 25252, Note_on_c, 9, 38, 0
4, 25262, Note_on_c, 9, 38, 66
4, 25312, Note_on_c, 9, 40, 0
4, 25313, Note_on_c, 9, 38, 0
4, 25320, Note_on_c, 9, 44, 59
4, 25322, Note_on_c, 9, 53, 54
4, 25323, Note_on_c, 9, 40, 44
4, 25323, Note_on_c, 9, 38, 62
4, 25326, Note_on_c, 9, 53, 0
4, 25369, Note_on_c, 9, 44, 0
4, 25381, Note_on_c, 9, 40, 0
4, 25381, Note_on_c, 9, 38, 0
4, 25387, Note_on_c, 9, 38, 24
4, 25391, Note_on_c, 9, 40, 19
4, 25397, Note_on_c, 9, 40, 0
4, 25406, Note_on_c, 9, 38, 0
4, 25417, Note_on_c, 9, 38, 56
4, 25429, Note_on_c, 9, 38, 0
4, 25439, Note_on_c, 9, 39, 33
4, 25440, Note_on_c, 9, 38, 63
4, 25440, Note_on_c, 9, 40, 45
4, 25457, Note_on_c, 9, 39, 0
4, 25478, Note_on_c, 9, 39, 43
4, 25483, Note_on_c, 9, 39, 0
4, 25511, Note_on_c, 9, 40, 0
4, 25527, Note_on_c, 9, 38, 0
4, 25540, Note_on_c, 9, 38, 32
4, 25556, Note_on_c, 9, 38, 0
4, 25560, Note_on_c, 9, 44, 62
4, 25561, Note_on_c, 9, 59, 65
4, 25561, Note_on_c, 9, 53, 60
4, 25567, Note_on_c, 9, 40, 47
4, 25567, Note_on_c, 9, 38, 53
4, 25569, Note_on_c, 9, 53, 0
4, 25572, Note_on_c, 9, 59, 0
4, 25600, Note_on_c, 9, 38, 0
4, 25605, Note_on_c, 9, 44, 0
4, 25615, Note_on_c, 9, 40, 0
4, 25620, Note_on_c, 9, 38, 33
4, 25637, Note_on_c, 9, 38, 0
4, 25654, Note_on_c, 9, 38, 39
4, 25655, Note_on_c, 9, 40, 49
4, 25675, Note_on_c, 9, 38, 0
4, 25675, Note_on_c, 9, 39, 42
4, 25683, Note_on_c, 9, 38, 53
4, 25690, Note_on_c, 9, 39, 0
4, 25721, Note_on_c, 9, 38, 0
4, 25729, Note_on_c, 9, 40, 0
4, 25739, Note_on_c, 9, 38, 41
4, 25770, Note_on_c, 9, 38, 0
4, 25775, Note_on_c, 9, 36, 44
4, 25780, Note_on_c, 9, 36, 0
4, 25798, Note_on_c, 9, 40, 45
4, 25799, Note_on_c, 9, 38, 38
4, 25800, Note_on_c, 9, 53, 56
4, 25800, Note_on_c, 9, 44, 67
4, 25801, Note_on_c, 9, 59, 58
4, 25825, Note_on_c, 9, 53, 0
4, 25826, Note_on_c, 9, 59, 0
4, 25834, Note_on_c, 9, 39, 59
4, 25835, Note_on_c, 9, 40, 0
4, 25840, Note_on_c, 9, 38, 0
4, 25850, Note_on_c, 9, 39, 0
4, 25855, Note_on_c, 9, 38, 19
4, 25858, Note_on_c, 9, 44, 0
4, 25858, Note_on_c, 9, 59, 62
4, 25858, Note_on_c, 9, 40, 40
4, 25859, Note_on_c, 9, 53, 62
4, 25867, Note_on_c, 9, 53, 0
4, 25867, Note_on_c, 9, 59, 0
4, 25876, Note_on_c, 9, 40, 0
4, 25878, Note_on_c, 9, 38, 0
4, 25892, Note_on_c, 9, 40, 36
4, 25893, Note_on_c, 9, 38, 42
4, 25897, Note_on_c, 9, 36, 41
4, 25902, Note_on_c, 9, 36, 0
4, 25903, Note_on_c, 9, 40, 0
4, 25904, Note_on_c, 9, 38, 0
4, 25916, Note_on_c, 9, 38, 51
4, 25916, Note_on_c, 9, 40, 38
4, 25970, Note_on_c, 9, 40, 0
4, 25970, Note_on_c, 9, 38, 0
4, 25982, Note_on_c, 9, 40, 43
4, 25984, Note_on_c, 9, 38, 44
4, 26032, Note_on_c, 9, 40, 0
4, 26036, Note_on_c, 9, 38, 0
4, 26040, Note_on_c, 9, 44, 64
4, 26047, Note_on_c, 9, 40, 34
4, 26048, Note_on_c, 9, 38, 46
4, 26085, Note_on_c, 9, 44, 0
4, 26103, Note_on_c, 9, 38, 0
4, 26104, Note_on_c, 9, 39, 35
4, 26105, Note_on_c, 9, 40, 0
4, 26120, Note_on_c, 9, 39, 0
4, 26134, Note_on_c, 9, 38, 38
4, 26136, Note_on_c, 9, 39, 48
4, 26136, Note_on_c, 9, 40, 47
4, 26140, Note_on_c, 9, 39, 0
4, 26148, Note_on_c, 9, 40, 0
4, 26152, Note_on_c, 9, 38, 0
4, 26163, Note_on_c, 9, 40, 51
4, 26165, Note_on_c, 9, 38, 44
4, 26208, Note_on_c, 9, 40, 0
4, 26211, Note_on_c, 9, 38, 0
4, 26223, Note_on_c, 9, 40, 38
4, 26224, Note_on_c, 9, 38, 58
4, 26258, Note_on_c, 9, 39, 55
4, 26263, Note_on_c, 9, 39, 0
4, 26269, Note_on_c, 9, 40, 0
4, 26275, Note_on_c, 9, 38, 0
4, 26280, Note_on_c, 9, 44, 48
4, 26286, Note_on_c, 9, 40, 50
4, 26287, Note_on_c, 9, 38, 47
4, 26316, Note_on_c, 9, 44, 0
4, 26317, Note_on_c, 9, 39, 47
4, 26321, Note_on_c, 9, 39, 0
4, 26345, Note_on_c, 9, 39, 46
4, 26349, Note_on_c, 9, 38, 0
4, 26355, Note_on_c, 9, 40, 0
4, 26359, Note_on_c, 9, 39, 0
4, 26375, Note_on_c, 9, 39, 47
4, 26382, Note_on_c, 9, 38, 69
4, 26384, Note_on_c, 9, 39, 0
4, 26386, Note_on_c, 9, 40, 47
4, 26390, Note_on_c, 9, 38, 0
4, 26399, Note_on_c, 9, 40, 0
4, 26399, Note_on_c, 9, 36, 40
4, 26407, Note_on_c, 9, 36, 0
4, 26407, Note_on_c, 9, 40, 40
4, 26409, Note_on_c, 9, 38, 65
4, 26454, Note_on_c, 9, 40, 0
4, 26460, Note_on_c, 9, 38, 0
4, 26465, Note_on_c, 9, 40, 51
4, 26468, Note_on_c, 9, 38, 48
4, 26508, Note_on_c, 9, 40, 0
4, 26516, Note_on_c, 9, 38, 0
4, 26520, Note_on_c, 9, 44, 57
4, 26527, Note_on_c, 9, 38, 48
4, 26527, Note_on_c, 9, 40, 44
4, 26559, Note_on_c, 9, 44, 0
4, 26575, Note_on_c, 9, 38, 0
4, 26585, Note_on_c, 9, 38, 66
4, 26620, Note_on_c, 9, 53, 29
4, 26625, Note_on_c, 9, 53, 0
4, 26627, Note_on_c, 9, 40, 0
4, 26630, Note_on_c, 9, 38, 0
4, 26644, Note_on_c, 9, 38, 54
4, 26644, Note_on_c, 9, 40, 51
4, 26649, Note_on_c, 9, 53, 48
4, 26649, Note_on_c, 9, 59, 44
4, 26675, Note_on_c, 9, 59, 0
4, 26675, Note_on_c, 9, 53, 0
4, 26697, Note_on_c, 9, 40, 0
4, 26698, Note_on_c, 9, 38, 0
4, 26708, Note_on_c, 9, 40, 42
4, 26709, Note_on_c, 9, 38, 65
4, 26711, Note_on_c, 9, 53, 50
4, 26712, Note_on_c, 9, 59, 47
4, 26730, Note_on_c, 9, 59, 0
4, 26730, Note_on_c, 9, 53, 0
4, 26751, Note_on_c, 9, 40, 0
4, 26756, Note_on_c, 9, 38, 0
4, 26760, Note_on_c, 9, 46, 44
4, 26767, Note_on_c, 9, 40, 47
4, 26767, Note_on_c, 9, 38, 62
4, 26783, Note_on_c, 9, 46, 0
4, 26813, Note_on_c, 9, 38, 0
4, 26824, Note_on_c, 9, 38, 64
4, 26827, Note_on_c, 9, 40, 0
4, 26832, Note_on_c, 9, 59, 66
4, 26842, Note_on_c, 9, 59, 0
4, 26863, Note_on_c, 9, 38, 0
4, 26888, Note_on_c, 9, 53, 62
4, 26888, Note_on_c, 9, 40, 31
4, 26889, Note_on_c, 9, 59, 58
4, 26889, Note_on_c, 9, 38, 42
4, 26894, Note_on_c, 9, 59, 0
4, 26894, Note_on_c, 9, 53, 0
4, 26979, Note_on_c, 9, 38, 0
4, 26983, Note_on_c, 9, 40, 0
4, 27005, Note_on_c, 9, 38, 37
4, 27007, Note_on_c, 9, 40, 20
4, 27014, Note_on_c, 9, 44, 58
4, 27043, Note_on_c, 9, 44, 0
4, 27064, Note_on_c, 9, 38, 0
4, 27068, Note_on_c, 9, 39, 44
4, 27084, Note_on_c, 9, 40, 0
4, 27097, Note_on_c, 9, 39, 0
4, 27102, Note_on_c, 9, 38, 45
4, 27117, Note_on_c, 9, 38, 0
4, 27124, Note_on_c, 9, 40, 38
4, 27129, Note_on_c, 9, 38, 38
4, 27224, Note_on_c, 9, 40, 0
4, 27231, Note_on_c, 9, 38, 0
4, 27241, Note_on_c, 9, 40, 34
4, 27243, Note_on_c, 9, 38, 46
4, 27246, Note_on_c, 9, 44, 54
4, 27283, Note_on_c, 9, 44, 0
4, 27343, Note_on_c, 9, 40, 0
4, 27350, Note_on_c, 9, 38, 0
4, 27360, Note_on_c, 9, 40, 36
4, 27361, Note_on_c, 9, 38, 48
4, 27467, Note_on_c, 9, 40, 0
4, 27478, Note_on_c, 9, 38, 0
4, 27484, Note_on_c, 9, 44, 52
4, 27488, Note_on_c, 9, 40, 44
4, 27489, Note_on_c, 9, 38, 39
4, 27522, Note_on_c, 9, 44, 0
4, 27592, Note_on_c, 9, 40, 0
4, 27597, Note_on_c, 9, 38, 0
4, 27610, Note_on_c, 9, 38, 38
4, 27611, Note_on_c, 9, 40, 31
4, 27710, Note_on_c, 9, 40, 0
4, 27713, Note_on_c, 9, 38, 0
4, 27723, Note_on_c, 9, 46, 38
4, 27726, Note_on_c, 9, 38, 40
4, 27727, Note_on_c, 9, 40, 34
4, 27745, Note_on_c, 9, 46, 0
4, 27758, Note_on_c, 9, 38, 0
4, 27773, Note_on_c, 9, 38, 54
4, 27778, Note_on_c, 9, 38, 0
4, 27794, Note_on_c, 9, 38, 48
4, 27820, Note_on_c, 9, 38, 0
4, 27830, Note_on_c, 9, 40, 0
4, 27847, Note_on_c, 9, 38, 44
4, 27847, Note_on_c, 9, 40, 27
4, 27890, Note_on_c, 9, 40, 0
4, 27895, Note_on_c, 9, 38, 0
4, 27905, Note_on_c, 9, 38, 38
4, 27905, Note_on_c, 9, 40, 33
4, 27957, Note_on_c, 9, 44, 46
4, 27959, Note_on_c, 9, 40, 0
4, 27968, Note_on_c, 9, 40, 53
4, 27986, Note_on_c, 9, 44, 0
4, 28007, Note_on_c, 9, 38, 0
4, 28020, Note_on_c, 9, 38, 28
4, 28057, Note_on_c, 9, 40, 0
4, 28064, Note_on_c, 9, 38, 0
4, 28078, Note_on_c, 9, 38, 40
4, 28079, Note_on_c, 9, 40, 49
4, 28129, Note_on_c, 9, 40, 0
4, 28134, Note_on_c, 9, 38, 0
4, 28145, Note_on_c, 9, 40, 35
4, 28145, Note_on_c, 9, 38, 30
4, 28197, Note_on_c, 9, 38, 0
4, 28204, Note_on_c, 9, 44, 46
4, 28210, Note_on_c, 9, 38, 62
4, 28222, Note_on_c, 9, 38, 0
4, 28228, Note_on_c, 9, 38, 24
4, 28240, Note_on_c, 9, 38, 0
4, 28242, Note_on_c, 9, 44, 0
4, 28263, Note_on_c, 9, 38, 57
4, 28291, Note_on_c, 9, 38, 0
4, 28301, Note_on_c, 9, 40, 0
4, 28304, Note_on_c, 9, 38, 51
4, 28314, Note_on_c, 9, 38, 0
4, 28322, Note_on_c, 9, 40, 53
4, 28325, Note_on_c, 9, 38, 62
4, 28422, Note_on_c, 9, 40, 0
4, 28432, Note_on_c, 9, 38, 0
4, 28445, Note_on_c, 9, 44, 57
4, 28446, Note_on_c, 9, 38, 34
4, 28446, Note_on_c, 9, 40, 40
4, 28482, Note_on_c, 9, 40, 0
4, 28482, Note_on_c, 9, 44, 0
4, 28482, Note_on_c, 9, 39, 42
4, 28489, Note_on_c, 9, 38, 0
4, 28494, Note_on_c, 9, 39, 0
4, 28503, Note_on_c, 9, 38, 28
4, 28504, Note_on_c, 9, 40, 33
4, 28523, Note_on_c, 9, 40, 0
4, 28525, Note_on_c, 9, 38, 0
4, 28539, Note_on_c, 9, 40, 30
4, 28539, Note_on_c, 9, 38, 37
4, 28549, Note_on_c, 9, 40, 0
4, 28553, Note_on_c, 9, 38, 0
4, 28562, Note_on_c, 9, 38, 28
4, 28563, Note_on_c, 9, 40, 31
4, 28601, Note_on_c, 9, 40, 0
4, 28602, Note_on_c, 9, 38, 0
4, 28603, Note_on_c, 9, 39, 48
4, 28616, Note_on_c, 9, 39, 0
4, 28624, Note_on_c, 9, 40, 29
4, 28624, Note_on_c, 9, 38, 29
4, 28670, Note_on_c, 9, 40, 0
4, 28679, Note_on_c, 9, 38, 0
4, 28680, Note_on_c, 9, 44, 53
4, 28687, Note_on_c, 9, 40, 40
4, 28688, Note_on_c, 9, 38, 29
4, 28720, Note_on_c, 9, 40, 0
4, 28721, Note_on_c, 9, 44, 0
4, 28722, Note_on_c, 9, 38, 0
4, 28722, Note_on_c, 9, 39, 55
4, 28741, Note_on_c, 9, 39, 0
4, 28745, Note_on_c, 9, 38, 24
4, 28745, Note_on_c, 9, 40, 42
4, 28766, Note_on_c, 9, 40, 0
4, 28770, Note_on_c, 9, 38, 0
4, 28781, Note_on_c, 9, 38, 49
4, 28782, Note_on_c, 9, 36, 24
4, 28783, Note_on_c, 9, 40, 48
4, 28788, Note_on_c, 9, 36, 0
4, 28793, Note_on_c, 9, 40, 0
4, 28803, Note_on_c, 9, 40, 44
4, 28804, Note_on_c, 9, 36, 40
4, 28815, Note_on_c, 9, 36, 0
4, 28842, Note_on_c, 9, 40, 0
4, 28851, Note_on_c, 9, 38, 0
4, 28865, Note_on_c, 9, 36, 37
4, 28869, Note_on_c, 9, 38, 34
4, 28870, Note_on_c, 9, 40, 38
4, 28880, Note_on_c, 9, 36, 0
4, 28918, Note_on_c, 9, 40, 0
4, 28920, Note_on_c, 9, 44, 52
4, 28923, Note_on_c, 9, 38, 0
4, 28932, Note_on_c, 9, 38, 41
4, 28933, Note_on_c, 9, 40, 34
4, 28954, Note_on_c, 9, 44, 0
4, 29029, Note_on_c, 9, 40, 0
4, 29036, Note_on_c, 9, 38, 0
4, 29047, Note_on_c, 9, 40, 39
4, 29048, Note_on_c, 9, 38, 32
4, 29144, Note_on_c, 9, 40, 0
4, 29149, Note_on_c, 9, 38, 0
4, 29162, Note_on_c, 9, 44, 58
4, 29163, Note_on_c, 9, 40, 42
4, 29164, Note_on_c, 9, 38, 40
4, 29203, Note_on_c, 9, 44, 0
4, 29203, Note_on_c, 9, 39, 53
4, 29207, Note_on_c, 9, 38, 0
4, 29208, Note_on_c, 9, 39, 0
4, 29224, Note_on_c, 9, 38, 66
4, 29265, Note_on_c, 9, 39, 40
4, 29269, Note_on_c, 9, 38, 0
4, 29269, Note_on_c, 9, 40, 0
4, 29270, Note_on_c, 9, 39, 0
4, 29284, Note_on_c, 9, 38, 41
4, 29285, Note_on_c, 9, 40, 45
4, 29347, Note_on_c, 9, 36, 31
4, 29355, Note_on_c, 9, 36, 0
4, 29377, Note_on_c, 9, 40, 0
4, 29383, Note_on_c, 9, 38, 0
4, 29398, Note_on_c, 9, 40, 36
4, 29399, Note_on_c, 9, 38, 40
4, 29401, Note_on_c, 9, 44, 57
4, 29441, Note_on_c, 9, 44, 0
4, 29448, Note_on_c, 9, 38, 0
4, 29458, Note_on_c, 9, 38, 63
4, 29466, Note_on_c, 9, 40, 0
4, 29505, Note_on_c, 9, 38, 0
4, 29518, Note_on_c, 9, 38, 47
4, 29518, Note_on_c, 9, 40, 44
4, 29568, Note_on_c, 9, 40, 0
4, 29574, Note_on_c, 9, 38, 0
4, 29584, Note_on_c, 9, 38, 41
4, 29585, Note_on_c, 9, 40, 35
4, 29634, Note_on_c, 9, 46, 46
4, 29635, Note_on_c, 9, 40, 0
4, 29642, Note_on_c, 9, 38, 0
4, 29645, Note_on_c, 9, 40, 40
4, 29655, Note_on_c, 9, 46, 0
4, 29677, Note_on_c, 9, 39, 31
4, 29679, Note_on_c, 9, 59, 37
4, 29684, Note_on_c, 9, 59, 0
4, 29687, Note_on_c, 9, 39, 0
4, 29705, Note_on_c, 9, 38, 44
4, 29731, Note_on_c, 9, 39, 44
4, 29738, Note_on_c, 9, 40, 0
4, 29743, Note_on_c, 9, 39, 0
4, 29743, Note_on_c, 9, 38, 0
4, 29759, Note_on_c, 9, 36, 34
4, 29766, Note_on_c, 9, 38, 46
4, 29766, Note_on_c, 9, 40, 47
4, 29776, Note_on_c, 9, 36, 0
4, 29820, Note_on_c, 9, 36, 26
4, 29827, Note_on_c, 9, 36, 0
4, 29863, Note_on_c, 9, 40, 0
4, 29869, Note_on_c, 9, 38, 0
4, 29880, Note_on_c, 9, 44, 47
4, 29884, Note_on_c, 9, 40, 41
4, 29886, Note_on_c, 9, 38, 40
4, 29924, Note_on_c, 9, 44, 0
4, 29930, Note_on_c, 9, 38, 0
4, 29941, Note_on_c, 9, 38, 56
4, 29957, Note_on_c, 9, 40, 0
4, 29968, Note_on_c, 9, 38, 0
4, 29978, Note_on_c, 9, 59, 39
4, 29985, Note_on_c, 9, 59, 0
4, 29999, Note_on_c, 9, 40, 56
4, 30000, Note_on_c, 9, 38, 61
4, 30006, Note_on_c, 9, 59, 29
4, 30030, Note_on_c, 9, 59, 0
4, 30067, Note_on_c, 9, 59, 34
4, 30078, Note_on_c, 9, 59, 0
4, 30101, Note_on_c, 9, 40, 0
4, 30109, Note_on_c, 9, 38, 0
4, 30123, Note_on_c, 9, 40, 44
4, 30123, Note_on_c, 9, 38, 44
4, 30123, Note_on_c, 9, 44, 48
4, 30155, Note_on_c, 9, 44, 0
4, 30172, Note_on_c, 9, 39, 57
4, 30174, Note_on_c, 9, 38, 0
4, 30176, Note_on_c, 9, 40, 0
4, 30185, Note_on_c, 9, 39, 0
4, 30216, Note_on_c, 9, 40, 45
4, 30218, Note_on_c, 9, 38, 45
4, 30227, Note_on_c, 9, 40, 0
4, 30230, Note_on_c, 9, 38, 0
4, 30243, Note_on_c, 9, 38, 42
4, 30243, Note_on_c, 9, 40, 44
4, 30304, Note_on_c, 9, 36, 49
4, 30340, Note_on_c, 9, 40, 0
4, 30349, Note_on_c, 9, 38, 0
4, 30350, Note_on_c, 9, 36, 0
4, 30360, Note_on_c, 9, 44, 42
4, 30365, Note_on_c, 9, 38, 33
4, 30365, Note_on_c, 9, 40, 40
4, 30399, Note_on_c, 9, 44, 0
4, 30413, Note_on_c, 9, 40, 0
4, 30423, Note_on_c, 9, 40, 28
4, 30425, Note_on_c, 9, 59, 44
4, 30428, Note_on_c, 9, 36, 37
4, 30429, Note_on_c, 9, 59, 0
4, 30441, Note_on_c, 9, 36, 0
4, 30458, Note_on_c, 9, 40, 0
4, 30464, Note_on_c, 9, 38, 0
4, 30482, Note_on_c, 9, 40, 37
4, 30482, Note_on_c, 9, 59, 47
4, 30482, Note_on_c, 9, 38, 33
4, 30520, Note_on_c, 9, 40, 0
4, 30523, Note_on_c, 9, 38, 0
4, 30547, Note_on_c, 9, 40, 48
4, 30548, Note_on_c, 9, 38, 50
4, 30552, Note_on_c, 9, 59, 0
4, 30584, Note_on_c, 9, 39, 57
4, 30598, Note_on_c, 9, 39, 0
4, 30603, Note_on_c, 9, 44, 38
4, 30607, Note_on_c, 9, 59, 62
4, 30609, Note_on_c, 9, 39, 44
4, 30622, Note_on_c, 9, 39, 0
4, 30625, Note_on_c, 9, 44, 0
4, 30628, Note_on_c, 9, 40, 0
4, 30635, Note_on_c, 9, 38, 0
4, 30644, Note_on_c, 9, 36, 39
4, 30651, Note_on_c, 9, 36, 0
4, 30666, Note_on_c, 9, 40, 37
4, 30667, Note_on_c, 9, 38, 33
4, 30670, Note_on_c, 9, 36, 34
4, 30676, Note_on_c, 9, 36, 0
4, 30679, Note_on_c, 9, 40, 0
4, 30684, Note_on_c, 9, 38, 0
4, 30701, Note_on_c, 9, 36, 38
4, 30702, Note_on_c, 9, 53, 57
4, 30705, Note_on_c, 9, 59, 0
4, 30708, Note_on_c, 9, 53, 0
4, 30708, Note_on_c, 9, 36, 0
4, 30731, Note_on_c, 9, 36, 39
4, 30732, Note_on_c, 9, 59, 87
4, 30743, Note_on_c, 9, 36, 0
4, 30773, Note_on_c, 9, 59, 0
4, 30790, Note_on_c, 9, 59, 82
4, 30792, Note_on_c, 9, 36, 38
4, 30813, Note_on_c, 9, 36, 0
4, 30894, Note_on_c, 9, 59, 0
4, 30910, Note_on_c, 9, 59, 62
4, 30928, Note_on_c, 9, 59, 0
4, 30940, Note_on_c, 9, 59, 60
4, 30954, Note_on_c, 9, 59, 0
4, 30964, Note_on_c, 9, 59, 87
4, 31012, Note_on_c, 9, 59, 0
4, 31025, Note_on_c, 9, 59, 68
4, 31068, Note_on_c, 9, 59, 0
4, 31083, Note_on_c, 9, 53, 55
4, 31148, Note_on_c, 9, 59, 35
4, 31150, Note_on_c, 9, 53, 0
4, 31159, Note_on_c, 9, 59, 0
4, 31177, Note_on_c, 9, 59, 49
4, 31195, Note_on_c, 9, 59, 0
4, 31205, Note_on_c, 9, 59, 77
4, 31235, Note_on_c, 9, 59, 0
4, 31239, Note_on_c, 9, 53, 35
4, 31248, Note_on_c, 9, 53, 0
4, 31268, Note_on_c, 9, 59, 57
4, 31283, Note_on_c, 9, 59, 0
4, 31298, Note_on_c, 9, 59, 53
4, 31314, Note_on_c, 9, 59, 0
4, 31326, Note_on_c, 9, 59, 79
4, 31331, Note_on_c, 9, 36, 29
4, 31335, Note_on_c, 9, 36, 0
4, 31374, Note_on_c, 9, 59, 0
4, 31393, Note_on_c, 9, 36, 27
4, 31394, Note_on_c, 9, 59, 49
4, 31398, Note_on_c, 9, 36, 0
4, 31405, Note_on_c, 9, 59, 0
4, 31451, Note_on_c, 9, 59, 71
4, 31461, Note_on_c, 9, 59, 0
4, 31507, Note_on_c, 9, 59, 91
4, 31510, Note_on_c, 9, 36, 32
4, 31526, Note_on_c, 9, 36, 0
4, 31538, Note_on_c, 9, 59, 0
4, 31562, Note_on_c, 9, 46, 42
4, 31564, Note_on_c, 9, 59, 84
4, 31567, Note_on_c, 9, 36, 36
4, 31584, Note_on_c, 9, 46, 0
4, 31587, Note_on_c, 9, 36, 0
4, 31628, Note_on_c, 9, 59, 0
4, 31628, Note_on_c, 9, 36, 30
4, 31651, Note_on_c, 9, 36, 0
4, 31655, Note_on_c, 9, 53, 38
4, 31661, Note_on_c, 9, 53, 0
4, 31683, Note_on_c, 9, 53, 38
4, 31684, Note_on_c, 9, 59, 55
4, 31712, Note_on_c, 9, 53, 0
4, 31714, Note_on_c, 9, 59, 0
4, 31794, Note_on_c, 9, 53, 47
4, 31800, Note_on_c, 9, 36, 26
4, 31801, Note_on_c, 9, 59, 63
4, 31814, Note_on_c, 9, 36, 0
4, 31816, Note_on_c, 9, 53, 0
4, 31827, Note_on_c, 9, 59, 0
4, 31896, Note_on_c, 9, 36, 38
4, 31902, Note_on_c, 9, 36, 0
4, 31923, Note_on_c, 9, 36, 27
4, 31928, Note_on_c, 9, 59, 58
4, 31928, Note_on_c, 9, 53, 36
4, 31932, Note_on_c, 9, 36, 0
4, 31937, Note_on_c, 9, 53, 0
4, 31938, Note_on_c, 9, 59, 0
4, 31982, Note_on_c, 9, 59, 42
4, 31983, Note_on_c, 9, 53, 35
4, 31986, Note_on_c, 9, 36, 33
4, 31990, Note_on_c, 9, 59, 0
4, 31991, Note_on_c, 9, 53, 0
4, 31994, Note_on_c, 9, 36, 0
4, 32047, Note_on_c, 9, 44, 34
4, 32052, Note_on_c, 9, 44, 0
4, 32106, Note_on_c, 9, 53, 31
4, 32107, Note_on_c, 9, 59, 47
4, 32108, Note_on_c, 9, 36, 19
4, 32113, Note_on_c, 9, 59, 0
4, 32114, Note_on_c, 9, 53, 0
4, 32123, Note_on_c, 9, 36, 0
4, 32166, Note_on_c, 9, 53, 58
4, 32166, Note_on_c, 9, 46, 40
4, 32167, Note_on_c, 9, 59, 70
4, 32168, Note_on_c, 9, 36, 34
4, 32180, Note_on_c, 9, 36, 0
4, 32190, Note_on_c, 9, 59, 0
4, 32190, Note_on_c, 9, 53, 0
4, 32195, Note_on_c, 9, 46, 0
4, 32229, Note_on_c, 9, 36, 34
4, 32229, Note_on_c, 9, 53, 63
4, 32230, Note_on_c, 9, 59, 74
4, 32248, Note_on_c, 9, 36, 0
4, 32260, Note_on_c, 9, 59, 0
4, 32263, Note_on_c, 9, 53, 0
4, 32289, Note_on_c, 9, 53, 64
4, 32293, Note_on_c, 9, 59, 70
4, 32293, Note_on_c, 9, 46, 34
4, 32321, Note_on_c, 9, 53, 0
4, 32322, Note_on_c, 9, 59, 0
4, 32328, Note_on_c, 9, 46, 0
4, 32347, Note_on_c, 9, 53, 64
4, 32348, Note_on_c, 9, 59, 67
4, 32373, Note_on_c, 9, 59, 0
4, 32373, Note_on_c, 9, 53, 0
4, 32386, Note_on_c, 9, 36, 39
4, 32399, Note_on_c, 9, 36, 0
4, 32404, Note_on_c, 9, 53, 75
4, 32405, Note_on_c, 9, 59, 83
4, 32411, Note_on_c, 9, 36, 45
4, 32428, Note_on_c, 9, 36, 0
4, 32435, Note_on_c, 9, 53, 0
4, 32437, Note_on_c, 9, 59, 0
4, 32465, Note_on_c, 9, 53, 71
4, 32466, Note_on_c, 9, 36, 47
4, 32466, Note_on_c, 9, 59, 79
4, 32501, Note_on_c, 9, 59, 0
4, 32501, Note_on_c, 9, 53, 0
4, 32514, Note_on_c, 9, 36, 0
4, 32523, Note_on_c, 9, 46, 35
4, 32529, Note_on_c, 9, 53, 59
4, 32529, Note_on_c, 9, 59, 73
4, 32562, Note_on_c, 9, 46, 0
4, 32568, Note_on_c, 9, 59, 0
4, 32570, Note_on_c, 9, 53, 0
4, 32589, Note_on_c, 9, 36, 36
4, 32592, Note_on_c, 9, 59, 69
4, 32592, Note_on_c, 9, 53, 51
4, 32599, Note_on_c, 9, 36, 0
4, 32609, Note_on_c, 9, 53, 0
4, 32618, Note_on_c, 9, 59, 0
4, 32653, Note_on_c, 9, 46, 50
4, 32654, Note_on_c, 9, 36, 35
4, 32654, Note_on_c, 9, 57, 77
4, 32656, Note_on_c, 9, 59, 62
4, 32658, Note_on_c, 9, 59, 61
4, 32660, Note_on_c, 9, 36, 0
4, 32661, Note_on_c, 9, 59, 0
4, 32669, Note_on_c, 9, 57, 0
4, 32672, Note_on_c, 9, 59, 0
4, 32677, Note_on_c, 9, 46, 0
4, 32721, Note_on_c, 9, 59, 49
4, 32761, Note_on_c, 9, 59, 0
4, 32845, Note_on_c, 9, 59, 53
4, 32860, Note_on_c, 9, 59, 0
4, 32907, Note_on_c, 9, 59, 78
4, 32938, Note_on_c, 9, 59, 0
4, 32979, Note_on_c, 9, 59, 70
4, 33003, Note_on_c, 9, 59, 0
4, 33039, Note_on_c, 9, 59, 62
4, 33070, Note_on_c, 9, 59, 0
4, 33162, Note_on_c, 9, 59, 54
4, 33163, Note_on_c, 9, 53, 56
4, 33172, Note_on_c, 9, 36, 36
4, 33180, Note_on_c, 9, 59, 0
4, 33182, Note_on_c, 9, 53, 0
4, 33187, Note_on_c, 9, 36, 0
4, 33234, Note_on_c, 9, 59, 38
4, 33236, Note_on_c, 9, 36, 45
4, 33262, Note_on_c, 9, 59, 0
4, 33300, Note_on_c, 9, 59, 60
4, 33309, Note_on_c, 9, 36, 0
4, 33323, Note_on_c, 9, 59, 0
4, 33371, Note_on_c, 9, 59, 45
4, 33380, Note_on_c, 9, 59, 0
4, 33547, Note_on_c, 9, 46, 59
4, 33547, Note_on_c, 9, 59, 70
4, 33548, Note_on_c, 9, 53, 57
4, 33559, Note_on_c, 9, 36, 28
4, 33569, Note_on_c, 9, 53, 0
4, 33570, Note_on_c, 9, 59, 0
4, 33572, Note_on_c, 9, 46, 0
4, 33589, Note_on_c, 9, 36, 0
4, 33731, Note_on_c, 9, 53, 43
4, 33732, Note_on_c, 9, 59, 33
4, 33769, Note_on_c, 9, 53, 0
4, 33771, Note_on_c, 9, 59, 0
4, 33857, Note_on_c, 9, 59, 48
4, 33892, Note_on_c, 9, 59, 0
4, 34113, Note_on_c, 9, 59, 53
4, 34114, Note_on_c, 9, 53, 45
4, 34126, Note_on_c, 9, 53, 0
4, 34129, Note_on_c, 9, 59, 0
4, 34246, Note_on_c, 9, 59, 46
4, 34258, Note_on_c, 9, 59, 0
4, 34306, Note_on_c, 9, 59, 44
4, 34318, Note_on_c, 9, 59, 0
4, 34398, Note_on_c, 9, 59, 50
4, 34413, Note_on_c, 9, 59, 0
4, 34451, Note_on_c, 9, 59, 36
4, 34474, Note_on_c, 9, 59, 0
4, 34502, Note_on_c, 9, 53, 34
4, 34518, Note_on_c, 9, 53, 0
4, 34564, Note_on_c, 9, 59, 43
4, 34573, Note_on_c, 9, 59, 0
4, 34674, Note_on_c, 9, 59, 37
4, 34688, Note_on_c, 9, 59, 0
4, 34733, Note_on_c, 9, 59, 27
4, 34748, Note_on_c, 9, 59, 0
4, 34789, Note_on_c, 9, 59, 30
4, 34816, Note_on_c, 9, 59, 0
4, 34967, Note_on_c, 9, 59, 34
4, 34996, Note_on_c, 9, 59, 0
4, 35234, Note_on_c, 9, 59, 29
4, 35253, Note_on_c, 9, 59, 0
4, 35318, Note_on_c, 9, 53, 54
4, 35319, Note_on_c, 9, 59, 26
4, 35408, Note_on_c, 9, 53, 0
4, 35413, Note_on_c, 9, 59, 0
4, 35447, Note_on_c, 9, 53, 38
4, 35462, Note_on_c, 9, 53, 0
4, 35496, Note_on_c, 9, 53, 49
4, 35519, Note_on_c, 9, 53, 0
4, 35543, Note_on_c, 9, 59, 22
4, 35553, Note_on_c, 9, 59, 0
4, 35584, Note_on_c, 9, 53, 28
4, 35587, Note_on_c, 9, 59, 36
4, 35606, Note_on_c, 9, 59, 0
4, 35606, Note_on_c, 9, 53, 0
4, 35640, Note_on_c, 9, 53, 45
4, 35655, Note_on_c, 9, 53, 0
4, 35694, Note_on_c, 9, 53, 35
4, 35697, Note_on_c, 9, 59, 31
4, 35717, Note_on_c, 9, 53, 0
4, 35719, Note_on_c, 9, 59, 0
4, 35744, Note_on_c, 9, 53, 49
4, 35761, Note_on_c, 9, 53, 0
4, 35805, Note_on_c, 9, 53, 29
4, 35805, Note_on_c, 9, 59, 27
4, 35908, Note_on_c, 9, 53, 0
4, 35910, Note_on_c, 9, 59, 0
4, 36259, Note_on_c, 9, 39, 42
4, 36278, Note_on_c, 9, 39, 0
4, 36288, Note_on_c, 9, 36, 40
4, 36293, Note_on_c, 9, 36, 0
4, 36319, Note_on_c, 9, 57, 46
4, 36320, Note_on_c, 9, 36, 40
4, 36350, Note_on_c, 9, 57, 0
4, 36365, Note_on_c, 9, 36, 0
4, 36365, End_track
5, 0, Start_track
5, 0, Title_t, "Bowed Double Bass"
5, 0, Program_c, 2, 43
5, 32904, Note_on_c, 2, 36, 84
5, 33161, Note_on_c, 2, 41, 103
5, 33163, Note_on_c, 2, 36, 0
5, 33506, Note_on_c, 2, 34, 79
5, 33529, Note_on_c, 2, 41, 0
5, 33747, Note_on_c, 2, 46, 72
5, 33804, Note_on_c, 2, 34, 0
5, 34123, Note_on_c, 2, 39, 78
5, 34127, Note_on_c, 2, 46, 0
5, 34529, Note_on_c, 2, 46, 65
5, 34543, Note_on_c, 2, 39, 0
5, 34842, Note_on_c, 2, 34, 48
5, 34854, Note_on_c, 2, 46, 0
5, 35279, Note_on_c, 2, 39, 60
5, 35286, Note_on_c, 2, 34, 0
5, 36225, Control_c, 2, 1, 87
5, 36225, Control_c, 2, 1, 86
5, 36227, Control_c, 2, 1, 84
5, 36228, Control_c, 2, 1, 83
5, 36229, Control_c, 2, 1, 81
5, 36229, Control_c, 2, 1, 80
5, 36230, Control_c, 2, 1, 78
5, 36232, Control_c, 2, 1, 76
5, 36233, Control_c, 2, 1, 74
5, 36233, Control_c, 2, 1, 73
5, 36235, Control_c, 2, 1, 70
5, 36236, Control_c, 2, 1, 67
5, 36236, Control_c, 2, 1, 66
5, 36237, Control_c, 2, 1, 65
5, 36237, Control_c, 2, 1, 64
5, 36238, Control_c, 2, 1, 63
5, 36238, Control_c, 2, 1, 62
5, 36239, Control_c, 2, 1, 61
5, 36239, Control_c, 2, 1, 59
5, 36239, Control_c, 2, 1, 58
5, 36240, Control_c, 2, 1, 56
5, 36240, Control_c, 2, 1, 55
5, 36241, Control_c, 2, 1, 54
5, 36241, Control_c, 2, 1, 53
5, 36242, Control_c, 2, 1, 51
5, 36242, Control_c, 2, 1, 50
5, 36243, Control_c, 2, 1, 48
5, 36243, Control_c, 2, 1, 47
5, 36244, Control_c, 2, 1, 46
5, 36244, Control_c, 2, 1, 44
5, 36245, Control_c, 2, 1, 43
5, 36245, Control_c, 2, 1, 41
5, 36245, Control_c, 2, 1, 40
5, 36246, Control_c, 2, 1, 38
5, 36246, Control_c, 2, 1, 37
5, 36247, Control_c, 2, 1, 35
5, 36247, Control_c, 2, 1, 34
5, 36248, Control_c, 2, 1, 33
5, 36248, Control_c, 2, 1, 32
5, 36249, Control_c, 2, 1, 30
5, 36249, Control_c, 2, 1, 29
5, 36250, Control_c, 2, 1, 27
5, 36250, Control_c, 2, 1, 26
5, 36250, Control_c, 2, 1, 24
5, 36251, Control_c, 2, 1, 23
5, 36251, Control_c, 2, 1, 22
5, 36252, Control_c, 2, 1, 21
5, 36252, Control_c, 2, 1, 20
5, 36253, Control_c, 2, 1, 19
5, 36253, Control_c, 2, 1, 17
5, 36254, Control_c, 2, 1, 16
5, 36254, Control_c, 2, 1, 15
5, 36254, Control_c, 2, 1, 14
5, 36255, Control_c, 2, 1, 13
5, 36255, Control_c, 2, 1, 11
5, 36256, Control_c, 2, 1, 10
5, 36257, Control_c, 2, 1, 8
5, 36258, Control_c, 2, 1, 7
5, 36258, Control_c, 2, 1, 6
5, 36259, Control_c, 2, 1, 5
5, 36259, Control_c, 2, 1, 4
5, 36259, Control_c, 2, 1, 3
5, 36260, Control_c, 2, 1, 2
5, 36261, Control_c, 2, 1, 1
5, 36602, Note_on_c, 2, 39, 0
5, 36602, End_track
0, 0, End_of_file
