0, 0, Header, 1, 11, 384
1, 0, Start_track
1, 0, Title_t, "8intro brsh/ride"
1, 0, System_exclusive, 5, 126, 127, 9, 1, 247
1, 1, System_exclusive, 8, 67, 16, 76, 0, 0, 126, 0, 247
1, 1, System_exclusive, 8, 67, 16, 76, 8, 15, 0, 1, 247
1, 1, System_exclusive, 8, 67, 16, 76, 8, 14, 0, 1, 247
1, 1, System_exclusive, 8, 67, 16, 76, 8, 13, 0, 1, 247
1, 1, System_exclusive, 8, 67, 16, 76, 8, 12, 0, 1, 247
1, 1, System_exclusive, 8, 67, 16, 76, 8, 11, 0, 1, 247
1, 1, System_exclusive, 8, 67, 16, 76, 8, 10, 0, 1, 247
1, 1, System_exclusive, 8, 67, 16, 76, 8, 9, 0, 0, 247
1, 1, System_exclusive, 8, 67, 16, 76, 8, 8, 0, 1, 247
1, 1, System_exclusive, 8, 67, 16, 76, 8, 7, 0, 1, 247
1, 1, System_exclusive, 8, 67, 16, 76, 8, 6, 0, 1, 247
1, 1, System_exclusive, 8, 67, 16, 76, 8, 5, 0, 1, 247
1, 1, System_exclusive, 8, 67, 16, 76, 8, 4, 0, 2, 247
1, 1, System_exclusive, 8, 67, 16, 76, 8, 3, 0, 2, 247
1, 1, System_exclusive, 8, 67, 16, 76, 8, 2, 0, 4, 247
1, 1, System_exclusive, 8, 67, 16, 76, 8, 1, 0, 4, 247
1, 1, System_exclusive, 8, 67, 16, 76, 8, 0, 0, 8, 247
1, 1, System_exclusive, 8, 67, 16, 76, 8, 0, 7, 0, 247
1, 1, System_exclusive, 8, 67, 16, 76, 8, 1, 7, 0, 247
1, 1, System_exclusive, 8, 67, 16, 76, 8, 2, 7, 0, 247
1, 1, System_exclusive, 8, 67, 16, 76, 8, 3, 7, 0, 247
1, 1, System_exclusive, 8, 67, 16, 76, 8, 4, 7, 0, 247
1, 1, System_exclusive, 8, 67, 16, 76, 8, 5, 7, 0, 247
1, 1, System_exclusive, 8, 67, 16, 76, 8, 6, 7, 0, 247
1, 1, System_exclusive, 8, 67, 16, 76, 8, 7, 7, 0, 247
1, 1, System_exclusive, 8, 67, 16, 76, 8, 8, 7, 0, 247
1, 1, System_exclusive, 8, 67, 16, 76, 8, 9, 7, 2, 247
1, 1, System_exclusive, 8, 67, 16, 76, 8, 10, 7, 0, 247
1, 1, System_exclusive, 8, 67, 16, 76, 8, 11, 7, 0, 247
1, 1, System_exclusive, 8, 67, 16, 76, 8, 12, 7, 0, 247
1, 1, System_exclusive, 8, 67, 16, 76, 8, 13, 7, 0, 247
1, 1, System_exclusive, 8, 67, 16, 76, 8, 14, 7, 0, 247
1, 1, System_exclusive, 8, 67, 16, 76, 8, 15, 7, 0, 247
1, 1, System_exclusive, 9, 67, 16, 76, 2, 1, 0, 2, 17, 247
1, 1, System_exclusive, 9, 67, 16, 76, 2, 1, 32, 65, 8, 247
1, 1, System_exclusive, 9, 67, 16, 76, 2, 1, 64, 5, 0, 247
1, 1, System_exclusive, 8, 67, 16, 76, 8, 9, 32, 16, 247
1, 1, System_exclusive, 8, 67, 16, 76, 8, 1, 114, 64, 247
1, 1, System_exclusive, 8, 67, 16, 76, 8, 1, 115, 64, 247
1, 1, System_exclusive, 8, 67, 16, 76, 8, 1, 119, 46, 247
1, 1, System_exclusive, 8, 67, 16, 76, 8, 1, 12, 64, 247
1, 1, System_exclusive, 8, 67, 16, 76, 8, 1, 13, 64, 247
1, 1, System_exclusive, 9, 67, 16, 76, 3, 0, 0, 3, 18, 247
1, 1, System_exclusive, 8, 67, 16, 76, 3, 0, 11, 5, 247
1, 1, System_exclusive, 8, 67, 16, 76, 3, 0, 12, 0, 247
1, 1, System_exclusive, 8, 67, 16, 76, 8, 0, 114, 64, 247
1, 1, System_exclusive, 8, 67, 16, 76, 8, 0, 115, 95, 247
1, 1, System_exclusive, 8, 67, 16, 76, 8, 0, 119, 46, 247
1, 1, Time_signature, 4, 2, 24, 8
1, 1, Key_signature, 0, "major"
1, 1, Tempo, 600000
1, 1, Sequencer_specific, 21, 67, 115, 10, 0, 5, 75, 90, 79, 79, 79, 79, 79, 79, 79, 90, 79, 79, 79, 79, 79, 79
1, 1, Sequencer_specific, 6, 67, 115, 10, 0, 4, 1
1, 1, Sequencer_specific, 9, 67, 123, 0, 88, 70, 48, 50, 0, 0
1, 1537, Tempo, 342857
1, 1537, End_track
2, 0, Start_track
2, 0, Title_t, "Track 1"
2, 384, Control_c, 0, 0, 0
2, 384, Control_c, 0, 32, 0
2, 384, Program_c, 0, 0
2, 385, Control_c, 0, 7, 107
2, 385, Control_c, 0, 10, 64
2, 385, Control_c, 0, 91, 0
2, 385, Control_c, 0, 93, 0
2, 1556, Note_on_c, 0, 79, 117
2, 2176, Note_on_c, 0, 79, 0
2, 2216, Note_on_c, 0, 77, 85
2, 2220, Note_on_c, 0, 67, 67
2, 2232, Note_on_c, 0, 62, 58
2, 2232, Note_on_c, 0, 79, 31
2, 2232, Note_on_c, 0, 63, 49
2, 2256, Note_on_c, 0, 67, 0
2, 2284, Note_on_c, 0, 79, 0
2, 2284, Note_on_c, 0, 63, 0
2, 2284, Note_on_c, 0, 62, 0
2, 2364, Note_on_c, 0, 75, 72
2, 2396, Note_on_c, 0, 77, 0
2, 2640, Note_on_c, 0, 75, 0
2, 2748, Note_on_c, 0, 74, 56
2, 2952, Note_on_c, 0, 74, 0
2, 3076, Note_on_c, 0, 67, 43
2, 3084, Note_on_c, 0, 63, 41
2, 3100, Note_on_c, 0, 58, 31
2, 3120, Note_on_c, 0, 62, 27
2, 3132, Note_on_c, 0, 72, 48
2, 3136, Note_on_c, 0, 67, 0
2, 3168, Note_on_c, 0, 63, 0
2, 3176, Note_on_c, 0, 58, 0
2, 3220, Note_on_c, 0, 62, 0
2, 3336, Note_on_c, 0, 72, 0
2, 3768, Note_on_c, 0, 67, 48
2, 3776, Note_on_c, 0, 62, 41
2, 3776, Note_on_c, 0, 63, 48
2, 3816, Note_on_c, 0, 67, 0
2, 3832, Note_on_c, 0, 63, 0
2, 3832, Note_on_c, 0, 62, 0
2, 4512, Note_on_c, 0, 70, 90
2, 4556, Note_on_c, 0, 62, 60
2, 4560, Note_on_c, 0, 60, 58
2, 4564, Note_on_c, 0, 56, 55
2, 4592, Note_on_c, 0, 62, 0
2, 4664, Note_on_c, 0, 56, 0
2, 4668, Note_on_c, 0, 60, 0
2, 4672, Note_on_c, 0, 70, 0
2, 4692, Note_on_c, 0, 68, 71
2, 4932, Note_on_c, 0, 68, 0
2, 4932, Note_on_c, 0, 60, 42
2, 5004, Note_on_c, 0, 60, 0
2, 5052, Note_on_c, 0, 68, 68
2, 5296, Note_on_c, 0, 68, 0
2, 5320, Note_on_c, 0, 56, 43
2, 5328, Note_on_c, 0, 60, 39
2, 5408, Note_on_c, 0, 60, 0
2, 5428, Note_on_c, 0, 79, 78
2, 5448, Note_on_c, 0, 56, 0
2, 5640, Note_on_c, 0, 79, 0
2, 5788, Note_on_c, 0, 79, 84
2, 6012, Note_on_c, 0, 79, 0
2, 6056, Note_on_c, 0, 77, 70
2, 6068, Note_on_c, 0, 62, 48
2, 6088, Note_on_c, 0, 60, 46
2, 6088, Note_on_c, 0, 56, 41
2, 6172, Note_on_c, 0, 62, 0
2, 6212, Note_on_c, 0, 56, 0
2, 6212, Note_on_c, 0, 60, 0
2, 6380, Note_on_c, 0, 77, 0
2, 6444, Note_on_c, 0, 68, 42
2, 6508, Note_on_c, 0, 68, 0
2, 6800, Note_on_c, 0, 62, 51
2, 6816, Note_on_c, 0, 60, 47
2, 6816, Note_on_c, 0, 56, 43
2, 6852, Note_on_c, 0, 62, 0
2, 6860, Note_on_c, 0, 60, 0
2, 6876, Note_on_c, 0, 56, 0
2, 7736, Note_on_c, 0, 56, 55
2, 7740, Note_on_c, 0, 65, 70
2, 7744, Note_on_c, 0, 55, 66
2, 7752, Note_on_c, 0, 89, 72
2, 7756, Note_on_c, 0, 60, 63
2, 7756, Note_on_c, 0, 77, 73
2, 7756, Note_on_c, 0, 84, 50
2, 8236, Note_on_c, 0, 89, 0
2, 8264, Note_on_c, 0, 60, 0
2, 8276, Note_on_c, 0, 65, 0
2, 8280, Note_on_c, 0, 55, 0
2, 8292, Note_on_c, 0, 77, 0
2, 8304, Note_on_c, 0, 84, 0
2, 8328, Note_on_c, 0, 56, 0
2, 8504, Note_on_c, 0, 87, 87
2, 8508, Note_on_c, 0, 75, 89
2, 8508, Note_on_c, 0, 56, 66
2, 8516, Note_on_c, 0, 65, 80
2, 8520, Note_on_c, 0, 82, 82
2, 8536, Note_on_c, 0, 60, 63
2, 8540, Note_on_c, 0, 55, 62
2, 8684, Note_on_c, 0, 55, 0
2, 8684, Note_on_c, 0, 75, 0
2, 8684, Note_on_c, 0, 65, 0
2, 8696, Note_on_c, 0, 82, 0
2, 8700, Note_on_c, 0, 87, 0
2, 8716, Note_on_c, 0, 60, 0
2, 8740, Note_on_c, 0, 56, 0
2, 8776, Note_on_c, 0, 86, 74
2, 8796, Note_on_c, 0, 65, 63
2, 8804, Note_on_c, 0, 56, 46
2, 8804, Note_on_c, 0, 74, 71
2, 8804, Note_on_c, 0, 81, 64
2, 8816, Note_on_c, 0, 55, 43
2, 8836, Note_on_c, 0, 60, 52
2, 8848, Note_on_c, 0, 81, 0
2, 8876, Note_on_c, 0, 74, 0
2, 8888, Note_on_c, 0, 60, 0
2, 8892, Note_on_c, 0, 86, 0
2, 8932, Note_on_c, 0, 84, 8
2, 8968, Note_on_c, 0, 72, 46
2, 8968, Note_on_c, 0, 60, 16
2, 9016, Note_on_c, 0, 72, 0
2, 9028, Note_on_c, 0, 65, 0
2, 9032, Note_on_c, 0, 60, 0
2, 9048, Note_on_c, 0, 84, 0
2, 9060, Note_on_c, 0, 55, 0
2, 9100, Note_on_c, 0, 56, 0
2, 9180, Note_on_c, 0, 82, 85
2, 9184, Note_on_c, 0, 70, 82
2, 9188, Note_on_c, 0, 63, 84
2, 9200, Note_on_c, 0, 59, 69
2, 9220, Note_on_c, 0, 53, 66
2, 9236, Note_on_c, 0, 56, 24
2, 9248, Note_on_c, 0, 80, 31
2, 9304, Note_on_c, 0, 56, 0
2, 9628, Note_on_c, 0, 80, 0
2, 10104, Note_on_c, 0, 59, 0
2, 10212, Note_on_c, 0, 70, 0
2, 10220, Note_on_c, 0, 82, 0
2, 10232, Note_on_c, 0, 63, 0
2, 10376, Note_on_c, 0, 63, 66
2, 10400, Note_on_c, 0, 80, 72
2, 10400, Note_on_c, 0, 68, 69
2, 10416, Note_on_c, 0, 75, 66
2, 10504, Note_on_c, 0, 53, 0
2, 10512, Note_on_c, 0, 63, 0
2, 10564, Note_on_c, 0, 68, 0
2, 10588, Note_on_c, 0, 80, 0
2, 10644, Note_on_c, 0, 75, 0
2, 10724, Control_c, 0, 64, 127
2, 10752, Note_on_c, 0, 62, 53
2, 10760, Note_on_c, 0, 51, 48
2, 10772, Note_on_c, 0, 67, 63
2, 10776, Note_on_c, 0, 79, 66
2, 10784, Note_on_c, 0, 57, 56
2, 10792, Note_on_c, 0, 74, 58
2, 11288, Note_on_c, 0, 67, 0
2, 11440, Note_on_c, 0, 74, 0
2, 11472, Note_on_c, 0, 57, 0
2, 11508, Note_on_c, 0, 79, 0
2, 11572, Note_on_c, 0, 51, 0
2, 11688, Note_on_c, 0, 62, 0
2, 11840, Note_on_c, 0, 57, 42
2, 11864, Control_c, 0, 64, 0
2, 11920, Note_on_c, 0, 51, 55
2, 11928, Note_on_c, 0, 62, 58
2, 11928, Note_on_c, 0, 89, 72
2, 11952, Note_on_c, 0, 77, 57
2, 11984, Note_on_c, 0, 84, 48
2, 12004, Control_c, 0, 64, 127
2, 12044, Control_c, 0, 64, 0
2, 12068, Note_on_c, 0, 89, 0
2, 12112, Note_on_c, 0, 77, 0
2, 12124, Note_on_c, 0, 51, 0
2, 12136, Note_on_c, 0, 62, 0
2, 12164, Note_on_c, 0, 84, 0
2, 12168, Note_on_c, 0, 57, 0
2, 12216, Note_on_c, 0, 51, 56
2, 12216, Note_on_c, 0, 87, 66
2, 12224, Note_on_c, 0, 62, 57
2, 12232, Note_on_c, 0, 75, 60
2, 12244, Note_on_c, 0, 57, 50
2, 12272, Note_on_c, 0, 75, 0
2, 12288, Note_on_c, 0, 57, 0
2, 12304, Note_on_c, 0, 62, 0
2, 12312, Note_on_c, 0, 87, 0
2, 12316, Note_on_c, 0, 51, 0
2, 12664, Control_c, 0, 64, 127
2, 12956, Note_on_c, 0, 57, 64
2, 12964, Note_on_c, 0, 62, 57
2, 12968, Control_c, 0, 64, 0
2, 12972, Note_on_c, 0, 51, 49
2, 13004, Note_on_c, 0, 62, 0
2, 13008, Note_on_c, 0, 51, 0
2, 13048, Note_on_c, 0, 57, 0
2, 13348, Note_on_c, 0, 57, 75
2, 13348, Note_on_c, 0, 62, 84
2, 13360, Note_on_c, 0, 51, 66
2, 13388, Note_on_c, 0, 62, 0
2, 13396, Note_on_c, 0, 51, 0
2, 13416, Note_on_c, 0, 57, 0
2, 13496, Control_c, 0, 64, 127
2, 13608, Control_c, 0, 64, 0
2, 13728, Note_on_c, 0, 87, 99
2, 13728, Note_on_c, 0, 75, 115
2, 13728, Note_on_c, 0, 82, 98
2, 13736, Note_on_c, 0, 54, 78
2, 13736, Note_on_c, 0, 61, 80
2, 13744, Note_on_c, 0, 65, 81
2, 13768, Note_on_c, 0, 54, 0
2, 13768, Note_on_c, 0, 59, 58
2, 13792, Note_on_c, 0, 55, 57
2, 13876, Note_on_c, 0, 59, 0
2, 13876, Control_c, 0, 64, 127
2, 13932, Note_on_c, 0, 55, 0
2, 14028, Note_on_c, 0, 61, 0
2, 14100, Note_on_c, 0, 87, 0
2, 14136, Note_on_c, 0, 65, 0
2, 14148, Note_on_c, 0, 75, 0
2, 14160, Note_on_c, 0, 82, 0
2, 14204, Control_c, 0, 64, 0
2, 14244, Note_on_c, 0, 65, 63
2, 14260, Note_on_c, 0, 85, 68
2, 14268, Note_on_c, 0, 61, 57
2, 14272, Note_on_c, 0, 73, 60
2, 14272, Note_on_c, 0, 54, 48
2, 14272, Note_on_c, 0, 58, 55
2, 14284, Note_on_c, 0, 80, 66
2, 14336, Note_on_c, 0, 58, 0
2, 14384, Note_on_c, 0, 65, 0
2, 14384, Note_on_c, 0, 54, 0
2, 14420, Note_on_c, 0, 61, 0
2, 14436, Note_on_c, 0, 73, 0
2, 14456, Note_on_c, 0, 80, 0
2, 14468, Note_on_c, 0, 85, 0
2, 14672, Note_on_c, 0, 65, 51
2, 14676, Note_on_c, 0, 84, 49
2, 14676, Note_on_c, 0, 78, 51
2, 14680, Note_on_c, 0, 72, 53
2, 14684, Note_on_c, 0, 61, 44
2, 14692, Note_on_c, 0, 58, 40
2, 14704, Note_on_c, 0, 54, 33
2, 14748, Note_on_c, 0, 58, 0
2, 14748, Note_on_c, 0, 84, 0
2, 14756, Note_on_c, 0, 65, 0
2, 14764, Note_on_c, 0, 61, 0
2, 14772, Note_on_c, 0, 54, 0
2, 14792, Note_on_c, 0, 72, 0
2, 14828, Note_on_c, 0, 78, 0
2, 15028, Control_c, 0, 64, 127
2, 15060, Note_on_c, 0, 65, 56
2, 15060, Note_on_c, 0, 82, 64
2, 15068, Note_on_c, 0, 61, 51
2, 15072, Note_on_c, 0, 54, 42
2, 15072, Note_on_c, 0, 70, 66
2, 15076, Note_on_c, 0, 58, 49
2, 15136, Note_on_c, 0, 65, 0
2, 15172, Note_on_c, 0, 54, 0
2, 15196, Note_on_c, 0, 70, 0
2, 15204, Note_on_c, 0, 82, 0
2, 15212, Note_on_c, 0, 61, 0
2, 15312, Note_on_c, 0, 58, 0
2, 15396, Control_c, 0, 64, 0
2, 15464, Note_on_c, 0, 80, 61
2, 15468, Note_on_c, 0, 64, 52
2, 15468, Note_on_c, 0, 68, 56
2, 15476, Note_on_c, 0, 60, 54
2, 15476, Note_on_c, 0, 54, 46
2, 15488, Note_on_c, 0, 75, 55
2, 15688, Control_c, 0, 64, 127
2, 15936, Note_on_c, 0, 68, 0
2, 15944, Note_on_c, 0, 80, 0
2, 15944, Note_on_c, 0, 64, 0
2, 15968, Note_on_c, 0, 75, 0
2, 15972, Note_on_c, 0, 54, 0
2, 15984, Note_on_c, 0, 60, 0
2, 16200, Note_on_c, 0, 66, 52
2, 16200, Note_on_c, 0, 78, 54
2, 16208, Note_on_c, 0, 64, 50
2, 16212, Note_on_c, 0, 54, 49
2, 16216, Control_c, 0, 64, 0
2, 16216, Note_on_c, 0, 60, 49
2, 16236, Note_on_c, 0, 73, 50
2, 16548, Control_c, 0, 64, 127
2, 16556, Note_on_c, 0, 64, 0
2, 16660, Note_on_c, 0, 66, 0
2, 16660, Note_on_c, 0, 73, 0
2, 16676, Note_on_c, 0, 54, 0
2, 16700, Note_on_c, 0, 78, 0
2, 16748, Note_on_c, 0, 60, 0
2, 16776, Control_c, 0, 64, 0
2, 16824, Note_on_c, 0, 78, 61
2, 16828, Note_on_c, 0, 66, 63
2, 16832, Note_on_c, 0, 60, 31
2, 16832, Note_on_c, 0, 63, 56
2, 16852, Note_on_c, 0, 73, 59
2, 16880, Note_on_c, 0, 53, 32
2, 16908, Note_on_c, 0, 56, 32
2, 16960, Control_c, 0, 64, 127
2, 17084, Note_on_c, 0, 60, 0
2, 17156, Note_on_c, 0, 66, 0
2, 17160, Note_on_c, 0, 73, 0
2, 17184, Note_on_c, 0, 78, 0
2, 17232, Note_on_c, 0, 63, 0
2, 17240, Note_on_c, 0, 60, 36
2, 17304, Control_c, 0, 64, 0
2, 17344, Note_on_c, 0, 77, 60
2, 17348, Note_on_c, 0, 65, 56
2, 17388, Note_on_c, 0, 72, 54
2, 17436, Note_on_c, 0, 65, 0
2, 17440, Note_on_c, 0, 72, 0
2, 17452, Note_on_c, 0, 60, 0
2, 17464, Note_on_c, 0, 77, 0
2, 17616, Note_on_c, 0, 53, 0
2, 17720, Note_on_c, 0, 60, 29
2, 17744, Note_on_c, 0, 63, 61
2, 17744, Note_on_c, 0, 70, 73
2, 17744, Note_on_c, 0, 82, 78
2, 17768, Note_on_c, 0, 75, 56
2, 17816, Note_on_c, 0, 60, 0
2, 18004, Note_on_c, 0, 70, 0
2, 18016, Note_on_c, 0, 75, 0
2, 18024, Note_on_c, 0, 82, 0
2, 18028, Note_on_c, 0, 56, 0
2, 18032, Note_on_c, 0, 63, 0
2, 18104, Control_c, 0, 64, 127
2, 18160, Note_on_c, 0, 53, 31
2, 18220, Control_c, 0, 64, 0
2, 18276, Note_on_c, 0, 53, 0
2, 18348, Note_on_c, 0, 80, 72
2, 18364, Note_on_c, 0, 63, 56
2, 18364, Note_on_c, 0, 68, 58
2, 18384, Note_on_c, 0, 75, 54
2, 18400, Note_on_c, 0, 60, 49
2, 18408, Note_on_c, 0, 53, 26
2, 18408, Note_on_c, 0, 56, 45
2, 18464, Control_c, 0, 64, 127
2, 18716, Note_on_c, 0, 63, 0
2, 18812, Note_on_c, 0, 53, 0
2, 18872, Note_on_c, 0, 60, 0
2, 18876, Note_on_c, 0, 56, 0
2, 19036, Control_c, 0, 64, 0
2, 19064, Note_on_c, 0, 68, 0
2, 19096, Note_on_c, 0, 63, 61
2, 19116, Note_on_c, 0, 60, 56
2, 19136, Note_on_c, 0, 53, 37
2, 19144, Note_on_c, 0, 56, 47
2, 19196, Note_on_c, 0, 80, 0
2, 19224, Note_on_c, 0, 75, 0
2, 19248, Control_c, 0, 64, 127
2, 19484, Note_on_c, 0, 53, 0
2, 19536, Note_on_c, 0, 56, 0
2, 19552, Note_on_c, 0, 63, 0
2, 19556, Note_on_c, 0, 60, 0
2, 19756, Control_c, 0, 64, 0
2, 19864, Note_on_c, 0, 65, 63
2, 19876, Note_on_c, 0, 56, 53
2, 19884, Note_on_c, 0, 60, 57
2, 19900, Note_on_c, 0, 55, 49
2, 20256, Note_on_c, 0, 80, 63
2, 20340, Note_on_c, 0, 65, 0
2, 20424, Note_on_c, 0, 80, 0
2, 20472, Note_on_c, 0, 79, 45
2, 20488, Note_on_c, 0, 60, 0
2, 20612, Note_on_c, 0, 79, 0
2, 20680, Note_on_c, 0, 65, 27
2, 20708, Note_on_c, 0, 60, 48
2, 20732, Note_on_c, 0, 65, 0
2, 20788, Note_on_c, 0, 60, 0
2, 20796, Note_on_c, 0, 82, 117
2, 20824, Note_on_c, 0, 55, 0
2, 20856, Note_on_c, 0, 56, 0
2, 21064, Note_on_c, 0, 65, 58
2, 21104, Note_on_c, 0, 65, 0
2, 21104, Note_on_c, 0, 60, 46
2, 21108, Note_on_c, 0, 56, 32
2, 21156, Note_on_c, 0, 58, 24
2, 21164, Note_on_c, 0, 60, 0
2, 21200, Note_on_c, 0, 56, 0
2, 21224, Note_on_c, 0, 58, 0
2, 21372, Note_on_c, 0, 82, 0
2, 21408, Note_on_c, 0, 80, 75
2, 21444, Note_on_c, 0, 63, 66
2, 21460, Note_on_c, 0, 59, 59
2, 21492, Note_on_c, 0, 58, 39
2, 21508, Note_on_c, 0, 53, 31
2, 21588, Note_on_c, 0, 80, 0
2, 21656, Note_on_c, 0, 59, 0
2, 21664, Note_on_c, 0, 79, 55
2, 21792, Note_on_c, 0, 63, 0
2, 21832, Note_on_c, 0, 59, 34
2, 21856, Note_on_c, 0, 79, 0
2, 21956, Note_on_c, 0, 53, 0
2, 21980, Note_on_c, 0, 77, 66
2, 22032, Note_on_c, 0, 59, 0
2, 22044, Note_on_c, 0, 58, 0
2, 22160, Note_on_c, 0, 77, 0
2, 22212, Note_on_c, 0, 63, 41
2, 22216, Note_on_c, 0, 75, 63
2, 22224, Note_on_c, 0, 59, 48
2, 22252, Note_on_c, 0, 58, 31
2, 22264, Note_on_c, 0, 63, 0
2, 22360, Note_on_c, 0, 75, 0
2, 22376, Note_on_c, 0, 59, 0
2, 22412, Note_on_c, 0, 58, 0
2, 22420, Note_on_c, 0, 74, 47
2, 22548, Note_on_c, 0, 63, 53
2, 22556, Note_on_c, 0, 74, 0
2, 22592, Note_on_c, 0, 77, 82
2, 22600, Note_on_c, 0, 63, 0
2, 22600, Note_on_c, 0, 59, 42
2, 22644, Note_on_c, 0, 59, 0
2, 22760, Note_on_c, 0, 77, 0
2, 22764, Note_on_c, 0, 75, 52
2, 22932, Note_on_c, 0, 75, 0
2, 22956, Note_on_c, 0, 62, 43
2, 22976, Note_on_c, 0, 51, 38
2, 22980, Note_on_c, 0, 67, 54
2, 23000, Note_on_c, 0, 57, 49
2, 23020, Note_on_c, 0, 67, 0
2, 23120, Note_on_c, 0, 74, 75
2, 23164, Note_on_c, 0, 57, 0
2, 23344, Note_on_c, 0, 74, 0
2, 23348, Note_on_c, 0, 67, 39
2, 23356, Note_on_c, 0, 57, 48
2, 23364, Note_on_c, 0, 62, 0
2, 23400, Note_on_c, 0, 67, 0
2, 23452, Note_on_c, 0, 51, 0
2, 23468, Note_on_c, 0, 71, 46
2, 23516, Note_on_c, 0, 57, 0
2, 23628, Note_on_c, 0, 71, 0
2, 23676, Note_on_c, 0, 74, 79
2, 23708, Note_on_c, 0, 51, 48
2, 23820, Note_on_c, 0, 51, 0
2, 23820, Note_on_c, 0, 74, 0
2, 23876, Note_on_c, 0, 72, 50
2, 24024, Note_on_c, 0, 72, 0
2, 24072, Note_on_c, 0, 54, 66
2, 24092, Note_on_c, 0, 55, 66
2, 24092, Note_on_c, 0, 67, 62
2, 24176, Note_on_c, 0, 67, 0
2, 24240, Note_on_c, 0, 54, 0
2, 24648, Control_c, 0, 64, 127
2, 24720, Control_c, 0, 64, 0
2, 24892, Note_on_c, 0, 54, 48
2, 24936, Note_on_c, 0, 54, 0
2, 24960, Note_on_c, 0, 62, 76
2, 25152, Note_on_c, 0, 62, 0
2, 25216, Note_on_c, 0, 63, 71
2, 25256, Note_on_c, 0, 54, 23
2, 25312, Note_on_c, 0, 54, 0
2, 25320, Note_on_c, 0, 63, 0
2, 25364, Note_on_c, 0, 65, 85
2, 25544, Note_on_c, 0, 65, 0
2, 25592, Note_on_c, 0, 63, 70
2, 25644, Note_on_c, 0, 54, 28
2, 25688, Note_on_c, 0, 63, 0
2, 25708, Note_on_c, 0, 55, 0
2, 25720, Note_on_c, 0, 54, 0
2, 25748, Note_on_c, 0, 62, 41
2, 25956, Note_on_c, 0, 62, 0
2, 26020, Note_on_c, 0, 59, 56
2, 26056, Note_on_c, 0, 57, 29
2, 26068, Note_on_c, 0, 51, 23
2, 26084, Note_on_c, 0, 59, 0
2, 26132, Note_on_c, 0, 51, 0
2, 26132, Note_on_c, 0, 62, 74
2, 26156, Note_on_c, 0, 57, 0
2, 26360, Note_on_c, 0, 57, 38
2, 26384, Note_on_c, 0, 62, 0
2, 26476, Note_on_c, 0, 59, 49
2, 26480, Note_on_c, 0, 57, 0
2, 26668, Note_on_c, 0, 59, 0
2, 26748, Note_on_c, 0, 60, 54
2, 27048, Note_on_c, 0, 60, 0
2, 27144, Note_on_c, 0, 62, 66
2, 27184, Note_on_c, 0, 57, 47
2, 27216, Note_on_c, 0, 51, 32
2, 27244, Note_on_c, 0, 57, 0
2, 27244, Note_on_c, 0, 62, 0
2, 27272, Note_on_c, 0, 51, 0
2, 27348, Note_on_c, 0, 63, 47
2, 27452, Note_on_c, 0, 63, 0
2, 27536, Note_on_c, 0, 67, 82
2, 27572, Note_on_c, 0, 57, 53
2, 27576, Note_on_c, 0, 62, 31
2, 27632, Note_on_c, 0, 62, 0
2, 27632, Note_on_c, 0, 57, 0
2, 27660, Note_on_c, 0, 67, 0
2, 27712, Note_on_c, 0, 70, 71
2, 27824, Note_on_c, 0, 70, 0
2, 27912, Note_on_c, 0, 71, 107
2, 27972, Note_on_c, 0, 62, 41
2, 27984, Note_on_c, 0, 57, 52
2, 28016, Note_on_c, 0, 62, 0
2, 28040, Note_on_c, 0, 71, 0
2, 28048, Note_on_c, 0, 57, 0
2, 28084, Note_on_c, 0, 74, 94
2, 28276, Note_on_c, 0, 74, 0
2, 28308, Note_on_c, 0, 71, 63
2, 28344, Note_on_c, 0, 62, 47
2, 28356, Note_on_c, 0, 71, 0
2, 28356, Note_on_c, 0, 57, 52
2, 28388, Note_on_c, 0, 62, 0
2, 28448, Note_on_c, 0, 57, 0
2, 28448, Note_on_c, 0, 72, 57
2, 28620, Note_on_c, 0, 72, 0
2, 28692, Note_on_c, 0, 74, 77
2, 28800, Note_on_c, 0, 74, 0
2, 28848, Note_on_c, 0, 75, 63
2, 29052, Note_on_c, 0, 75, 0
2, 29064, Note_on_c, 0, 76, 73
2, 29088, Note_on_c, 0, 64, 66
2, 29088, Note_on_c, 0, 60, 60
2, 29104, Note_on_c, 0, 56, 49
2, 29124, Note_on_c, 0, 64, 0
2, 29180, Note_on_c, 0, 76, 0
2, 29208, Note_on_c, 0, 60, 0
2, 29216, Note_on_c, 0, 56, 0
2, 29232, Note_on_c, 0, 79, 85
2, 29404, Note_on_c, 0, 79, 0
2, 29508, Note_on_c, 0, 76, 39
2, 29560, Note_on_c, 0, 76, 0
2, 29624, Note_on_c, 0, 77, 64
2, 29760, Control_c, 0, 64, 127
2, 29812, Control_c, 0, 64, 0
2, 29836, Note_on_c, 0, 77, 0
2, 29872, Note_on_c, 0, 72, 63
2, 29904, Note_on_c, 0, 67, 51
2, 29908, Note_on_c, 0, 64, 49
2, 29940, Note_on_c, 0, 56, 22
2, 29960, Note_on_c, 0, 60, 35
2, 30000, Note_on_c, 0, 72, 0
2, 30064, Note_on_c, 0, 68, 36
2, 30244, Note_on_c, 0, 68, 0
2, 30328, Note_on_c, 0, 60, 0
2, 30348, Note_on_c, 0, 67, 0
2, 30368, Note_on_c, 0, 68, 57
2, 30396, Note_on_c, 0, 64, 0
2, 30404, Note_on_c, 0, 56, 0
2, 30404, Control_c, 0, 64, 127
2, 30552, Note_on_c, 0, 68, 0
2, 30664, Control_c, 0, 64, 0
2, 30756, Note_on_c, 0, 64, 38
2, 30768, Note_on_c, 0, 68, 49
2, 30772, Note_on_c, 0, 67, 34
2, 30788, Note_on_c, 0, 60, 44
2, 30844, Note_on_c, 0, 56, 16
2, 30928, Note_on_c, 0, 67, 0
2, 30948, Note_on_c, 0, 64, 0
2, 30948, Note_on_c, 0, 68, 0
2, 30984, Note_on_c, 0, 60, 0
2, 31060, Note_on_c, 0, 56, 0
2, 31136, Note_on_c, 0, 64, 57
2, 31156, Note_on_c, 0, 68, 46
2, 31168, Note_on_c, 0, 72, 35
2, 31228, Note_on_c, 0, 72, 0
2, 31252, Note_on_c, 0, 68, 0
2, 31384, Note_on_c, 0, 64, 0
2, 31404, Note_on_c, 0, 79, 86
2, 31408, Note_on_c, 0, 68, 78
2, 31408, Note_on_c, 0, 67, 81
2, 31408, Note_on_c, 0, 72, 75
2, 31528, Note_on_c, 0, 68, 0
2, 31532, Note_on_c, 0, 67, 0
2, 31556, Note_on_c, 0, 79, 0
2, 31572, Note_on_c, 0, 72, 0
2, 31616, Note_on_c, 0, 77, 68
2, 31628, Note_on_c, 0, 65, 70
2, 31632, Note_on_c, 0, 68, 49
2, 31672, Note_on_c, 0, 72, 52
2, 31780, Note_on_c, 0, 68, 0
2, 31780, Note_on_c, 0, 65, 0
2, 31796, Note_on_c, 0, 72, 0
2, 31892, Note_on_c, 0, 77, 0
2, 31920, Control_c, 0, 64, 127
2, 31940, Note_on_c, 0, 68, 43
2, 31944, Note_on_c, 0, 72, 50
2, 32052, Note_on_c, 0, 72, 0
2, 32056, Note_on_c, 0, 68, 0
2, 32160, Control_c, 0, 64, 0
2, 32704, Control_c, 0, 64, 127
2, 32868, Control_c, 0, 64, 0
2, 32948, Note_on_c, 0, 74, 67
2, 32960, Note_on_c, 0, 62, 60
2, 32960, Note_on_c, 0, 65, 50
2, 32968, Note_on_c, 0, 68, 51
2, 33004, Note_on_c, 0, 68, 0
2, 33004, Note_on_c, 0, 65, 0
2, 33004, Note_on_c, 0, 62, 0
2, 33056, Note_on_c, 0, 74, 0
2, 33316, Note_on_c, 0, 67, 83
2, 33316, Note_on_c, 0, 72, 81
2, 33316, Note_on_c, 0, 68, 85
2, 33316, Note_on_c, 0, 79, 88
2, 33332, Note_on_c, 0, 78, 36
2, 33412, Note_on_c, 0, 78, 0
2, 33424, Note_on_c, 0, 79, 0
2, 33448, Note_on_c, 0, 67, 0
2, 33452, Note_on_c, 0, 68, 0
2, 33460, Note_on_c, 0, 66, 56
2, 33472, Note_on_c, 0, 72, 0
2, 33660, Note_on_c, 0, 66, 0
2, 33768, Note_on_c, 0, 63, 46
2, 33820, Note_on_c, 0, 63, 0
2, 33844, Note_on_c, 0, 76, 72
2, 33860, Note_on_c, 0, 65, 63
2, 33876, Note_on_c, 0, 64, 72
2, 33904, Note_on_c, 0, 72, 54
2, 33908, Note_on_c, 0, 69, 53
2, 34068, Note_on_c, 0, 72, 0
2, 34084, Note_on_c, 0, 65, 0
2, 34100, Note_on_c, 0, 76, 0
2, 34112, Note_on_c, 0, 69, 0
2, 34132, Note_on_c, 0, 64, 0
2, 34236, Note_on_c, 0, 65, 64
2, 34268, Note_on_c, 0, 72, 40
2, 34300, Note_on_c, 0, 60, 35
2, 34332, Note_on_c, 0, 72, 0
2, 34476, Note_on_c, 0, 65, 0
2, 34508, Note_on_c, 0, 60, 0
2, 34620, Note_on_c, 0, 75, 63
2, 34640, Note_on_c, 0, 68, 60
2, 34644, Note_on_c, 0, 65, 54
2, 34660, Note_on_c, 0, 71, 52
2, 34660, Note_on_c, 0, 73, 30
2, 34784, Note_on_c, 0, 65, 0
2, 34800, Note_on_c, 0, 71, 0
2, 34840, Note_on_c, 0, 75, 0
2, 34860, Note_on_c, 0, 68, 0
2, 34868, Note_on_c, 0, 73, 0
2, 34904, Note_on_c, 0, 53, 64
2, 34920, Note_on_c, 0, 63, 56
2, 34964, Note_on_c, 0, 63, 0
2, 35024, Note_on_c, 0, 65, 52
2, 35036, Note_on_c, 0, 68, 52
2, 35048, Note_on_c, 0, 71, 57
2, 35072, Note_on_c, 0, 53, 0
2, 35204, Note_on_c, 0, 65, 0
2, 35216, Note_on_c, 0, 71, 0
2, 35272, Note_on_c, 0, 68, 0
2, 35280, Note_on_c, 0, 51, 58
2, 35288, Note_on_c, 0, 62, 57
2, 35292, Note_on_c, 0, 67, 63
2, 35292, Note_on_c, 0, 74, 76
2, 35320, Note_on_c, 0, 57, 57
2, 35508, Note_on_c, 0, 57, 0
2, 35588, Note_on_c, 0, 67, 0
2, 35616, Note_on_c, 0, 74, 0
2, 35636, Note_on_c, 0, 62, 0
2, 35708, Note_on_c, 0, 51, 0
2, 35756, Note_on_c, 0, 72, 60
2, 35760, Note_on_c, 0, 67, 45
2, 35948, Note_on_c, 0, 67, 0
2, 35956, Note_on_c, 0, 72, 0
2, 35992, Note_on_c, 0, 54, 63
2, 36028, Note_on_c, 0, 55, 60
2, 36076, Note_on_c, 0, 60, 23
2, 36160, Note_on_c, 0, 60, 0
2, 36208, Note_on_c, 0, 54, 0
2, 36524, Control_c, 0, 64, 127
2, 36588, Note_on_c, 0, 55, 0
2, 36760, Control_c, 0, 64, 24
2, 36764, Control_c, 0, 64, 0
2, 36784, Note_on_c, 0, 55, 59
2, 36796, Note_on_c, 0, 54, 46
2, 36838, Note_on_c, 0, 54, 0
2, 37144, Note_on_c, 0, 60, 55
2, 37308, Note_on_c, 0, 60, 0
2, 37348, Note_on_c, 0, 55, 0
2, 37356, Note_on_c, 0, 61, 35
2, 37496, Note_on_c, 0, 61, 0
2, 37544, Note_on_c, 0, 65, 73
2, 37548, Note_on_c, 0, 55, 54
2, 37564, Note_on_c, 0, 54, 40
2, 37592, Note_on_c, 0, 55, 0
2, 37608, Note_on_c, 0, 54, 0
2, 37676, Note_on_c, 0, 65, 0
2, 37720, Note_on_c, 0, 62, 52
2, 37900, Note_on_c, 0, 62, 0
2, 37932, Note_on_c, 0, 54, 42
2, 37944, Note_on_c, 0, 63, 74
2, 37972, Note_on_c, 0, 54, 0
2, 38092, Note_on_c, 0, 66, 75
2, 38152, Note_on_c, 0, 63, 0
2, 38312, Note_on_c, 0, 66, 0
2, 38312, Note_on_c, 0, 64, 54
2, 38344, Note_on_c, 0, 61, 36
2, 38348, Note_on_c, 0, 54, 27
2, 38360, Note_on_c, 0, 58, 34
2, 38408, Note_on_c, 0, 54, 0
2, 38432, Note_on_c, 0, 58, 0
2, 38460, Note_on_c, 0, 61, 0
2, 38480, Note_on_c, 0, 64, 0
2, 38500, Note_on_c, 0, 65, 42
2, 38656, Note_on_c, 0, 65, 0
2, 38692, Note_on_c, 0, 68, 81
2, 38728, Note_on_c, 0, 61, 42
2, 38780, Note_on_c, 0, 61, 0
2, 38852, Note_on_c, 0, 68, 0
2, 38856, Note_on_c, 0, 65, 44
2, 39044, Note_on_c, 0, 65, 0
2, 39076, Note_on_c, 0, 66, 70
2, 39124, Note_on_c, 0, 61, 48
2, 39132, Note_on_c, 0, 58, 41
2, 39168, Note_on_c, 0, 61, 0
2, 39180, Note_on_c, 0, 58, 0
2, 39196, Note_on_c, 0, 66, 0
2, 39232, Note_on_c, 0, 70, 77
2, 39452, Note_on_c, 0, 61, 45
2, 39472, Note_on_c, 0, 67, 42
2, 39484, Note_on_c, 0, 70, 0
2, 39492, Note_on_c, 0, 58, 24
2, 39536, Note_on_c, 0, 67, 0
2, 39544, Note_on_c, 0, 61, 0
2, 39564, Note_on_c, 0, 58, 0
2, 39664, Note_on_c, 0, 68, 38
2, 39808, Note_on_c, 0, 68, 0
2, 39852, Note_on_c, 0, 72, 62
2, 39872, Note_on_c, 0, 60, 66
2, 39872, Note_on_c, 0, 64, 71
2, 39888, Note_on_c, 0, 54, 60
2, 39984, Note_on_c, 0, 72, 0
2, 40028, Note_on_c, 0, 69, 49
2, 40276, Note_on_c, 0, 70, 60
2, 40280, Note_on_c, 0, 69, 0
2, 40360, Note_on_c, 0, 64, 0
2, 40380, Note_on_c, 0, 73, 66
2, 40444, Note_on_c, 0, 54, 0
2, 40468, Note_on_c, 0, 60, 0
2, 40556, Note_on_c, 0, 70, 0
2, 40604, Note_on_c, 0, 73, 0
2, 40616, Note_on_c, 0, 60, 49
2, 40624, Note_on_c, 0, 64, 39
2, 40636, Note_on_c, 0, 54, 35
2, 40652, Note_on_c, 0, 71, 45
2, 40680, Note_on_c, 0, 64, 0
2, 40704, Note_on_c, 0, 54, 0
2, 40712, Note_on_c, 0, 71, 0
2, 40772, Note_on_c, 0, 60, 0
2, 40796, Note_on_c, 0, 72, 36
2, 40964, Note_on_c, 0, 72, 0
2, 40996, Note_on_c, 0, 75, 80
2, 41016, Note_on_c, 0, 64, 65
2, 41016, Note_on_c, 0, 60, 63
2, 41016, Note_on_c, 0, 54, 66
2, 41120, Note_on_c, 0, 64, 0
2, 41160, Note_on_c, 0, 60, 0
2, 41184, Note_on_c, 0, 75, 0
2, 41188, Note_on_c, 0, 72, 38
2, 41260, Note_on_c, 0, 54, 0
2, 41368, Note_on_c, 0, 72, 0
2, 41372, Note_on_c, 0, 73, 58
2, 41464, Note_on_c, 0, 73, 0
2, 41516, Note_on_c, 0, 63, 67
2, 41528, Note_on_c, 0, 77, 76
2, 41536, Note_on_c, 0, 58, 58
2, 41540, Note_on_c, 0, 53, 57
2, 41696, Note_on_c, 0, 77, 0
2, 41780, Note_on_c, 0, 74, 46
2, 41816, Note_on_c, 0, 63, 0
2, 41844, Note_on_c, 0, 74, 0
2, 41920, Note_on_c, 0, 53, 0
2, 41924, Note_on_c, 0, 75, 45
2, 41992, Note_on_c, 0, 58, 0
2, 42120, Note_on_c, 0, 75, 0
2, 42144, Note_on_c, 0, 78, 79
2, 42148, Note_on_c, 0, 63, 71
2, 42160, Note_on_c, 0, 58, 58
2, 42168, Note_on_c, 0, 53, 55
2, 42220, Note_on_c, 0, 53, 0
2, 42252, Note_on_c, 0, 63, 0
2, 42280, Note_on_c, 0, 78, 0
2, 42692, Note_on_c, 0, 58, 0
2, 42696, Control_c, 0, 64, 127
2, 42884, Note_on_c, 0, 63, 72
2, 42904, Note_on_c, 0, 58, 58
2, 42908, Control_c, 0, 64, 0
2, 42944, Note_on_c, 0, 53, 31
2, 42952, Note_on_c, 0, 63, 0
2, 43004, Note_on_c, 0, 53, 0
2, 43064, Note_on_c, 0, 58, 0
2, 43088, Note_on_c, 0, 77, 50
2, 43208, Note_on_c, 0, 77, 0
2, 43300, Note_on_c, 0, 79, 75
2, 43328, Note_on_c, 0, 58, 54
2, 43384, Note_on_c, 0, 58, 0
2, 43416, Note_on_c, 0, 79, 0
2, 43428, Control_c, 0, 64, 127
2, 43460, Note_on_c, 0, 80, 67
2, 43608, Note_on_c, 0, 80, 0
2, 43676, Note_on_c, 0, 63, 83
2, 43676, Note_on_c, 0, 83, 84
2, 43684, Note_on_c, 0, 58, 66
2, 43688, Note_on_c, 0, 53, 64
2, 43692, Control_c, 0, 64, 0
2, 43792, Note_on_c, 0, 83, 0
2, 43852, Note_on_c, 0, 87, 63
2, 43940, Note_on_c, 0, 63, 0
2, 44016, Note_on_c, 0, 87, 0
2, 44068, Note_on_c, 0, 88, 98
2, 44076, Note_on_c, 0, 63, 79
2, 44180, Note_on_c, 0, 88, 0
2, 44196, Note_on_c, 0, 53, 0
2, 44228, Note_on_c, 0, 91, 122
2, 44264, Note_on_c, 0, 63, 0
2, 44292, Note_on_c, 0, 58, 0
2, 44412, Note_on_c, 0, 91, 0
2, 44448, Note_on_c, 0, 89, 88
2, 44508, Note_on_c, 0, 65, 57
2, 44536, Note_on_c, 0, 60, 54
2, 44540, Note_on_c, 0, 55, 41
2, 44548, Note_on_c, 0, 56, 44
2, 44632, Note_on_c, 0, 89, 0
2, 44636, Note_on_c, 0, 84, 43
2, 44772, Note_on_c, 0, 84, 0
2, 44852, Note_on_c, 0, 80, 63
2, 44896, Note_on_c, 0, 65, 0
2, 44984, Note_on_c, 0, 80, 0
2, 45032, Note_on_c, 0, 55, 0
2, 45032, Note_on_c, 0, 60, 0
2, 45040, Note_on_c, 0, 56, 0
2, 45044, Note_on_c, 0, 79, 46
2, 45172, Note_on_c, 0, 79, 0
2, 45204, Note_on_c, 0, 65, 40
2, 45256, Note_on_c, 0, 65, 0
2, 45256, Note_on_c, 0, 60, 44
2, 45312, Note_on_c, 0, 60, 0
2, 45356, Note_on_c, 0, 91, 76
2, 45388, Note_on_c, 0, 79, 75
2, 45500, Note_on_c, 0, 79, 0
2, 45516, Note_on_c, 0, 91, 0
2, 45576, Note_on_c, 0, 65, 47
2, 45604, Note_on_c, 0, 60, 49
2, 45612, Note_on_c, 0, 56, 29
2, 45620, Note_on_c, 0, 65, 0
2, 45692, Note_on_c, 0, 60, 0
2, 45716, Note_on_c, 0, 91, 76
2, 45732, Note_on_c, 0, 79, 70
2, 45736, Control_c, 0, 64, 127
2, 45776, Note_on_c, 0, 56, 0
2, 45896, Note_on_c, 0, 91, 0
2, 45904, Note_on_c, 0, 79, 0
2, 46040, Control_c, 0, 64, 0
2, 46088, Note_on_c, 0, 63, 63
2, 46104, Note_on_c, 0, 92, 77
2, 46116, Note_on_c, 0, 59, 52
2, 46128, Note_on_c, 0, 80, 62
2, 46140, Note_on_c, 0, 58, 37
2, 46144, Note_on_c, 0, 53, 37
2, 46316, Note_on_c, 0, 80, 0
2, 46344, Note_on_c, 0, 92, 0
2, 46376, Note_on_c, 0, 63, 0
2, 46484, Control_c, 0, 64, 127
2, 46496, Note_on_c, 0, 53, 0
2, 46508, Note_on_c, 0, 94, 77
2, 46520, Note_on_c, 0, 82, 70
2, 46604, Note_on_c, 0, 59, 0
2, 46612, Note_on_c, 0, 58, 0
2, 46656, Control_c, 0, 64, 0
2, 46664, Note_on_c, 0, 82, 0
2, 46668, Note_on_c, 0, 94, 0
2, 46752, Note_on_c, 0, 94, 67
2, 46764, Note_on_c, 0, 63, 69
2, 46772, Note_on_c, 0, 82, 63
2, 46796, Note_on_c, 0, 59, 50
2, 46820, Note_on_c, 0, 53, 36
2, 46820, Note_on_c, 0, 58, 30
2, 46904, Control_c, 0, 64, 127
2, 46960, Note_on_c, 0, 63, 0
2, 46968, Note_on_c, 0, 82, 0
2, 46992, Note_on_c, 0, 94, 0
2, 47088, Note_on_c, 0, 63, 48
2, 47124, Note_on_c, 0, 92, 65
2, 47128, Note_on_c, 0, 56, 1
2, 47136, Note_on_c, 0, 80, 61
2, 47140, Note_on_c, 0, 63, 0
2, 47164, Control_c, 0, 64, 0
2, 47176, Note_on_c, 0, 59, 0
2, 47200, Note_on_c, 0, 58, 0
2, 47228, Note_on_c, 0, 53, 0
2, 47272, Note_on_c, 0, 92, 0
2, 47280, Note_on_c, 0, 56, 0
2, 47280, Note_on_c, 0, 80, 0
2, 47492, Note_on_c, 0, 91, 82
2, 47504, Note_on_c, 0, 79, 78
2, 47504, Note_on_c, 0, 62, 69
2, 47520, Note_on_c, 0, 57, 55
2, 47540, Note_on_c, 0, 51, 49
2, 47552, Note_on_c, 0, 55, 42
2, 47836, Note_on_c, 0, 91, 0
2, 47864, Note_on_c, 0, 79, 0
2, 47944, Note_on_c, 0, 57, 0
2, 47948, Control_c, 0, 64, 127
2, 47964, Note_on_c, 0, 62, 0
2, 47964, Note_on_c, 0, 55, 0
2, 48044, Note_on_c, 0, 89, 55
2, 48056, Note_on_c, 0, 91, 43
2, 48056, Note_on_c, 0, 77, 44
2, 48100, Note_on_c, 0, 91, 0
2, 48132, Control_c, 0, 64, 0
2, 48152, Note_on_c, 0, 89, 0
2, 48156, Note_on_c, 0, 51, 0
2, 48160, Note_on_c, 0, 77, 0
2, 48260, Note_on_c, 0, 53, 52
2, 48280, Note_on_c, 0, 87, 46
2, 48296, Note_on_c, 0, 54, 52
2, 48308, Note_on_c, 0, 53, 0
2, 48320, Note_on_c, 0, 55, 56
2, 48332, Note_on_c, 0, 87, 0
2, 48432, Note_on_c, 0, 89, 68
2, 48444, Note_on_c, 0, 54, 0
2, 48456, Note_on_c, 0, 77, 50
2, 48588, Note_on_c, 0, 77, 0
2, 48616, Note_on_c, 0, 89, 0
2, 48704, Note_on_c, 0, 87, 56
2, 48748, Note_on_c, 0, 87, 0
2, 48772, Control_c, 0, 64, 127
2, 48832, Control_c, 0, 64, 0
2, 48952, Note_on_c, 0, 55, 0
2, 49032, Note_on_c, 0, 43, 73
2, 49060, Note_on_c, 0, 55, 27
2, 49080, Note_on_c, 0, 43, 0
2, 49132, Note_on_c, 0, 55, 0
2, 49432, Note_on_c, 0, 63, 82
2, 49436, Note_on_c, 0, 58, 73
2, 49436, Note_on_c, 0, 53, 72
2, 49768, Note_on_c, 0, 58, 0
2, 49844, Note_on_c, 0, 58, 50
2, 49880, Note_on_c, 0, 63, 0
2, 49928, Note_on_c, 0, 89, 122
2, 50076, Note_on_c, 0, 89, 0
2, 50124, Note_on_c, 0, 58, 0
2, 50180, Note_on_c, 0, 87, 57
2, 50192, Note_on_c, 0, 63, 48
2, 50224, Note_on_c, 0, 58, 53
2, 50236, Note_on_c, 0, 63, 0
2, 50272, Note_on_c, 0, 87, 0
2, 50332, Note_on_c, 0, 89, 92
2, 50356, Note_on_c, 0, 53, 0
2, 50376, Note_on_c, 0, 56, 33
2, 50464, Note_on_c, 0, 56, 0
2, 50488, Note_on_c, 0, 89, 0
2, 50500, Note_on_c, 0, 58, 0
2, 50564, Note_on_c, 0, 87, 85
2, 50596, Note_on_c, 0, 62, 57
2, 50604, Note_on_c, 0, 51, 51
2, 50612, Note_on_c, 0, 57, 57
2, 50728, Note_on_c, 0, 87, 0
2, 50756, Note_on_c, 0, 84, 64
2, 50988, Note_on_c, 0, 84, 0
2, 51120, Note_on_c, 0, 84, 77
2, 51196, Note_on_c, 0, 62, 0
2, 51256, Note_on_c, 0, 57, 0
2, 51332, Note_on_c, 0, 84, 0
2, 51356, Note_on_c, 0, 62, 54
2, 51364, Note_on_c, 0, 57, 56
2, 51372, Note_on_c, 0, 79, 76
2, 51488, Note_on_c, 0, 79, 0
2, 51552, Note_on_c, 0, 62, 0
2, 51596, Note_on_c, 0, 79, 66
2, 51604, Note_on_c, 0, 57, 0
2, 51736, Note_on_c, 0, 57, 49
2, 51764, Note_on_c, 0, 62, 23
2, 51776, Note_on_c, 0, 79, 0
2, 51816, Note_on_c, 0, 62, 0
2, 51828, Control_c, 0, 64, 127
2, 51856, Note_on_c, 0, 51, 0
2, 51880, Note_on_c, 0, 77, 74
2, 51952, Note_on_c, 0, 57, 0
2, 52060, Note_on_c, 0, 77, 0
2, 52120, Control_c, 0, 64, 0
2, 52148, Note_on_c, 0, 51, 57
2, 52148, Note_on_c, 0, 77, 81
2, 52156, Note_on_c, 0, 62, 47
2, 52172, Note_on_c, 0, 57, 57
2, 52388, Note_on_c, 0, 57, 0
2, 52400, Note_on_c, 0, 77, 0
2, 52516, Note_on_c, 0, 57, 48
2, 52520, Note_on_c, 0, 75, 74
2, 52584, Note_on_c, 0, 62, 0
2, 52652, Note_on_c, 0, 51, 0
2, 52652, Note_on_c, 0, 75, 0
2, 52684, Note_on_c, 0, 72, 49
2, 52732, Note_on_c, 0, 57, 0
2, 52908, Note_on_c, 0, 62, 45
2, 52912, Note_on_c, 0, 51, 45
2, 52932, Note_on_c, 0, 57, 56
2, 52956, Note_on_c, 0, 62, 0
2, 52976, Note_on_c, 0, 51, 0
2, 52984, Note_on_c, 0, 72, 0
2, 53060, Note_on_c, 0, 82, 83
2, 53080, Note_on_c, 0, 57, 0
2, 53300, Note_on_c, 0, 82, 0
2, 53324, Note_on_c, 0, 62, 39
2, 53328, Note_on_c, 0, 57, 37
2, 53344, Note_on_c, 0, 77, 40
2, 53376, Note_on_c, 0, 62, 0
2, 53380, Note_on_c, 0, 57, 0
2, 53472, Note_on_c, 0, 77, 0
2, 53540, Note_on_c, 0, 80, 25
2, 53628, Note_on_c, 0, 80, 0
2, 53716, Note_on_c, 0, 60, 53
2, 53724, Note_on_c, 0, 56, 48
2, 53736, Note_on_c, 0, 62, 40
2, 53736, Note_on_c, 0, 53, 49
2, 54144, Note_on_c, 0, 60, 0
2, 54168, Note_on_c, 0, 62, 0
2, 54192, Control_c, 0, 64, 127
2, 54228, Note_on_c, 0, 53, 0
2, 54260, Note_on_c, 0, 56, 0
2, 54364, Control_c, 0, 64, 0
2, 54436, Note_on_c, 0, 64, 68
2, 54452, Note_on_c, 0, 60, 60
2, 54456, Note_on_c, 0, 53, 58
2, 54456, Note_on_c, 0, 56, 52
2, 54952, Control_c, 0, 64, 127
2, 54984, Note_on_c, 0, 64, 0
2, 55012, Note_on_c, 0, 53, 0
2, 55020, Note_on_c, 0, 60, 0
2, 55060, Note_on_c, 0, 56, 0
2, 55168, Control_c, 0, 64, 0
2, 55192, Note_on_c, 0, 91, 86
2, 55204, Note_on_c, 0, 84, 73
2, 55204, Note_on_c, 0, 79, 75
2, 55204, Note_on_c, 0, 64, 75
2, 55204, Note_on_c, 0, 53, 61
2, 55224, Note_on_c, 0, 60, 63
2, 55224, Note_on_c, 0, 56, 58
2, 55224, Note_on_c, 0, 88, 57
2, 55344, Control_c, 0, 64, 127
2, 55440, Note_on_c, 0, 84, 0
2, 55440, Note_on_c, 0, 91, 0
2, 55480, Note_on_c, 0, 88, 0
2, 55480, Note_on_c, 0, 79, 0
2, 55504, Note_on_c, 0, 53, 0
2, 55508, Note_on_c, 0, 64, 0
2, 55520, Note_on_c, 0, 60, 0
2, 55552, Note_on_c, 0, 56, 0
2, 55596, Note_on_c, 0, 80, 85
2, 55596, Note_on_c, 0, 64, 72
2, 55596, Note_on_c, 0, 53, 65
2, 55604, Note_on_c, 0, 92, 82
2, 55612, Note_on_c, 0, 60, 74
2, 55612, Note_on_c, 0, 56, 55
2, 55616, Note_on_c, 0, 87, 75
2, 55712, Note_on_c, 0, 90, 17
2, 55776, Note_on_c, 0, 87, 0
2, 55792, Note_on_c, 0, 53, 0
2, 55792, Note_on_c, 0, 64, 0
2, 55804, Note_on_c, 0, 80, 0
2, 55832, Note_on_c, 0, 92, 0
2, 55856, Note_on_c, 0, 60, 0
2, 55860, Note_on_c, 0, 56, 0
2, 55864, Note_on_c, 0, 90, 0
2, 55880, Control_c, 0, 64, 0
2, 55972, Note_on_c, 0, 94, 84
2, 55980, Note_on_c, 0, 82, 80
2, 55980, Note_on_c, 0, 87, 79
2, 55996, Note_on_c, 0, 60, 68
2, 55996, Note_on_c, 0, 64, 79
2, 56000, Note_on_c, 0, 56, 58
2, 56004, Note_on_c, 0, 53, 71
2, 56016, Control_c, 0, 64, 127
2, 56144, Note_on_c, 0, 64, 0
2, 56144, Note_on_c, 0, 87, 0
2, 56168, Note_on_c, 0, 53, 0
2, 56176, Note_on_c, 0, 82, 0
2, 56192, Note_on_c, 0, 60, 0
2, 56212, Note_on_c, 0, 56, 0
2, 56216, Note_on_c, 0, 94, 0
2, 56312, Control_c, 0, 64, 0
2, 56364, Note_on_c, 0, 96, 86
2, 56368, Note_on_c, 0, 84, 84
2, 56376, Note_on_c, 0, 60, 71
2, 56376, Note_on_c, 0, 64, 77
2, 56380, Note_on_c, 0, 56, 59
2, 56380, Note_on_c, 0, 53, 74
2, 56444, Control_c, 0, 64, 127
2, 56496, Note_on_c, 0, 53, 0
2, 56508, Note_on_c, 0, 84, 0
2, 56512, Note_on_c, 0, 56, 0
2, 56532, Note_on_c, 0, 64, 0
2, 56536, Note_on_c, 0, 96, 0
2, 56544, Note_on_c, 0, 60, 0
2, 56696, Control_c, 0, 64, 0
2, 56744, Note_on_c, 0, 56, 62
2, 56744, Note_on_c, 0, 65, 75
2, 56744, Note_on_c, 0, 55, 72
2, 56744, Note_on_c, 0, 98, 85
2, 56744, Note_on_c, 0, 86, 85
2, 56744, Note_on_c, 0, 60, 64
2, 56860, Control_c, 0, 64, 127
2, 56932, Note_on_c, 0, 86, 0
2, 56980, Note_on_c, 0, 55, 0
2, 56988, Note_on_c, 0, 98, 0
2, 56996, Note_on_c, 0, 65, 0
2, 57000, Note_on_c, 0, 60, 0
2, 57020, Note_on_c, 0, 56, 0
2, 57092, Control_c, 0, 64, 0
2, 57140, Note_on_c, 0, 101, 81
2, 57144, Note_on_c, 0, 89, 74
2, 57152, Note_on_c, 0, 56, 54
2, 57156, Note_on_c, 0, 65, 72
2, 57164, Note_on_c, 0, 96, 57
2, 57172, Note_on_c, 0, 55, 56
2, 57180, Note_on_c, 0, 60, 56
2, 57248, Control_c, 0, 64, 127
2, 57368, Note_on_c, 0, 89, 0
2, 57404, Note_on_c, 0, 96, 0
2, 57404, Note_on_c, 0, 101, 0
2, 57440, Note_on_c, 0, 55, 0
2, 57440, Note_on_c, 0, 60, 0
2, 57448, Note_on_c, 0, 65, 0
2, 57484, Note_on_c, 0, 56, 0
2, 57640, Control_c, 0, 64, 0
2, 57676, Note_on_c, 0, 65, 61
2, 57688, Note_on_c, 0, 56, 43
2, 57688, Note_on_c, 0, 94, 66
2, 57692, Note_on_c, 0, 104, 67
2, 57708, Note_on_c, 0, 55, 45
2, 57708, Note_on_c, 0, 60, 50
2, 57812, Note_on_c, 0, 55, 0
2, 57832, Note_on_c, 0, 65, 0
2, 57840, Note_on_c, 0, 104, 0
2, 57856, Note_on_c, 0, 94, 0
2, 57868, Note_on_c, 0, 56, 0
2, 57868, Note_on_c, 0, 60, 0
2, 58060, Note_on_c, 0, 103, 58
2, 58060, Note_on_c, 0, 65, 58
2, 58060, Note_on_c, 0, 91, 66
2, 58076, Note_on_c, 0, 56, 48
2, 58100, Note_on_c, 0, 55, 41
2, 58120, Note_on_c, 0, 60, 35
2, 58136, Note_on_c, 0, 65, 0
2, 58156, Note_on_c, 0, 55, 0
2, 58172, Note_on_c, 0, 60, 0
2, 58196, Note_on_c, 0, 103, 0
2, 58232, Note_on_c, 0, 56, 0
2, 58324, Note_on_c, 0, 91, 0
2, 58440, Note_on_c, 0, 63, 60
2, 58476, Note_on_c, 0, 58, 36
2, 58480, Note_on_c, 0, 59, 45
2, 58492, Note_on_c, 0, 53, 42
2, 58796, Note_on_c, 0, 63, 0
2, 58920, Note_on_c, 0, 53, 0
2, 59008, Note_on_c, 0, 59, 0
2, 59040, Note_on_c, 0, 58, 0
2, 59136, Note_on_c, 0, 63, 68
2, 59160, Note_on_c, 0, 59, 48
2, 59172, Note_on_c, 0, 58, 36
2, 59184, Note_on_c, 0, 63, 0
2, 59212, Note_on_c, 0, 94, 90
2, 59372, Note_on_c, 0, 94, 0
2, 59432, Note_on_c, 0, 56, 35
2, 59464, Note_on_c, 0, 92, 78
2, 59484, Note_on_c, 0, 53, 11
2, 59508, Note_on_c, 0, 59, 0
2, 59536, Note_on_c, 0, 58, 0
2, 59552, Note_on_c, 0, 53, 0
2, 59596, Note_on_c, 0, 56, 0
2, 59632, Note_on_c, 0, 92, 0
2, 59652, Note_on_c, 0, 87, 42
2, 59864, Note_on_c, 0, 87, 0
2, 59864, Note_on_c, 0, 83, 52
2, 59868, Note_on_c, 0, 57, 46
2, 59888, Note_on_c, 0, 62, 31
2, 59900, Note_on_c, 0, 51, 40
2, 59908, Note_on_c, 0, 83, 0
2, 59980, Note_on_c, 0, 91, 78
2, 60036, Note_on_c, 0, 57, 0
2, 60172, Note_on_c, 0, 57, 39
2, 60180, Note_on_c, 0, 91, 0
2, 60276, Note_on_c, 0, 62, 0
2, 60280, Note_on_c, 0, 51, 0
2, 60356, Note_on_c, 0, 89, 75
2, 60392, Note_on_c, 0, 57, 0
2, 60548, Note_on_c, 0, 89, 0
2, 60600, Note_on_c, 0, 51, 48
2, 60604, Note_on_c, 0, 57, 56
2, 60684, Note_on_c, 0, 51, 0
2, 60740, Note_on_c, 0, 87, 61
2, 60784, Note_on_c, 0, 57, 0
2, 60912, Note_on_c, 0, 87, 0
2, 60968, Note_on_c, 0, 57, 52
2, 60972, Note_on_c, 0, 62, 31
2, 60992, Note_on_c, 0, 89, 66
2, 61032, Note_on_c, 0, 62, 0
2, 61092, Note_on_c, 0, 89, 0
2, 61100, Note_on_c, 0, 57, 0
2, 61352, Note_on_c, 0, 62, 66
2, 61356, Note_on_c, 0, 51, 61
2, 61372, Note_on_c, 0, 57, 61
2, 61924, Note_on_c, 0, 62, 0
2, 61976, Note_on_c, 0, 57, 0
2, 61980, Note_on_c, 0, 51, 0
2, 62112, Note_on_c, 0, 62, 68
2, 62112, Note_on_c, 0, 51, 63
2, 62120, Note_on_c, 0, 57, 59
2, 62472, Note_on_c, 0, 57, 0
2, 62524, Note_on_c, 0, 62, 0
2, 62560, Note_on_c, 0, 57, 61
2, 62684, Note_on_c, 0, 62, 50
2, 62692, Note_on_c, 0, 73, 61
2, 62692, Note_on_c, 0, 85, 58
2, 62720, Note_on_c, 0, 57, 0
2, 62736, Note_on_c, 0, 51, 0
2, 62788, Note_on_c, 0, 73, 0
2, 62792, Control_c, 0, 64, 127
2, 62812, Note_on_c, 0, 62, 0
2, 62812, Note_on_c, 0, 85, 0
2, 62860, Control_c, 0, 64, 0
2, 62944, Control_c, 0, 64, 127
2, 62948, Note_on_c, 0, 54, 57
2, 62948, Note_on_c, 0, 87, 72
2, 62952, Note_on_c, 0, 65, 49
2, 62952, Note_on_c, 0, 61, 56
2, 62958, Note_on_c, 0, 75, 61
2, 62964, Note_on_c, 0, 58, 48
2, 62976, Note_on_c, 0, 82, 57
2, 63196, Note_on_c, 0, 82, 0
2, 63224, Note_on_c, 0, 75, 0
2, 63232, Note_on_c, 0, 65, 0
2, 63256, Note_on_c, 0, 54, 0
2, 63256, Note_on_c, 0, 58, 0
2, 63268, Note_on_c, 0, 61, 0
2, 63276, Note_on_c, 0, 87, 0
2, 63336, Control_c, 0, 64, 0
2, 63408, Note_on_c, 0, 82, 63
2, 63416, Note_on_c, 0, 89, 57
2, 63424, Note_on_c, 0, 77, 66
2, 63424, Control_c, 0, 64, 127
2, 63428, Note_on_c, 0, 65, 60
2, 63428, Note_on_c, 0, 54, 50
2, 63428, Note_on_c, 0, 61, 61
2, 63436, Note_on_c, 0, 58, 52
2, 63536, Note_on_c, 0, 77, 0
2, 63536, Note_on_c, 0, 89, 0
2, 63560, Note_on_c, 0, 65, 0
2, 63568, Note_on_c, 0, 54, 0
2, 63592, Note_on_c, 0, 82, 0
2, 63604, Note_on_c, 0, 58, 0
2, 63620, Control_c, 0, 64, 0
2, 63624, Note_on_c, 0, 61, 0
2, 63676, Note_on_c, 0, 90, 82
2, 63680, Note_on_c, 0, 78, 81
2, 63692, Note_on_c, 0, 54, 66
2, 63692, Note_on_c, 0, 65, 73
2, 63692, Note_on_c, 0, 58, 63
2, 63700, Note_on_c, 0, 85, 68
2, 63700, Note_on_c, 0, 61, 68
2, 63792, Control_c, 0, 64, 127
2, 63932, Note_on_c, 0, 58, 0
2, 63932, Note_on_c, 0, 65, 0
2, 63940, Note_on_c, 0, 54, 0
2, 63940, Note_on_c, 0, 61, 0
2, 63980, Note_on_c, 0, 85, 0
2, 63996, Note_on_c, 0, 78, 0
2, 64016, Note_on_c, 0, 90, 0
2, 64064, Note_on_c, 0, 61, 54
2, 64068, Note_on_c, 0, 58, 53
2, 64076, Note_on_c, 0, 54, 34
2, 64088, Control_c, 0, 64, 0
2, 64116, Note_on_c, 0, 58, 0
2, 64116, Note_on_c, 0, 61, 0
2, 64132, Note_on_c, 0, 54, 0
2, 64188, Note_on_c, 0, 92, 83
2, 64192, Note_on_c, 0, 80, 79
2, 64204, Control_c, 0, 64, 127
2, 64212, Note_on_c, 0, 54, 64
2, 64212, Note_on_c, 0, 61, 65
2, 64216, Note_on_c, 0, 65, 74
2, 64228, Note_on_c, 0, 58, 56
2, 64276, Note_on_c, 0, 90, 23
2, 64332, Note_on_c, 0, 65, 0
2, 64344, Note_on_c, 0, 80, 0
2, 64372, Note_on_c, 0, 54, 0
2, 64376, Note_on_c, 0, 90, 0
2, 64380, Note_on_c, 0, 92, 0
2, 64412, Control_c, 0, 64, 72
2, 64416, Control_c, 0, 64, 0
2, 64428, Note_on_c, 0, 61, 0
2, 64480, Note_on_c, 0, 93, 79
2, 64480, Note_on_c, 0, 81, 81
2, 64484, Note_on_c, 0, 87, 68
2, 64488, Note_on_c, 0, 54, 57
2, 64488, Note_on_c, 0, 64, 79
2, 64500, Note_on_c, 0, 60, 74
2, 64512, Note_on_c, 0, 90, 36
2, 64588, Control_c, 0, 64, 127
2, 64828, Note_on_c, 0, 60, 0
2, 64932, Note_on_c, 0, 60, 31
2, 64996, Note_on_c, 0, 54, 0
2, 65008, Note_on_c, 0, 81, 0
2, 65020, Note_on_c, 0, 64, 0
2, 65032, Note_on_c, 0, 93, 0
2, 65060, Note_on_c, 0, 90, 0
2, 65080, Note_on_c, 0, 60, 0
2, 65100, Note_on_c, 0, 58, 0
2, 65100, Note_on_c, 0, 87, 0
2, 65200, Control_c, 0, 64, 0
2, 65232, Note_on_c, 0, 94, 83
2, 65236, Note_on_c, 0, 82, 82
2, 65244, Note_on_c, 0, 64, 80
2, 65244, Note_on_c, 0, 87, 75
2, 65256, Note_on_c, 0, 60, 70
2, 65256, Note_on_c, 0, 58, 60
2, 65256, Note_on_c, 0, 54, 57
2, 65284, Note_on_c, 0, 87, 0
2, 65300, Note_on_c, 0, 64, 0
2, 65304, Note_on_c, 0, 82, 0
2, 65312, Note_on_c, 0, 60, 0
2, 65316, Note_on_c, 0, 54, 0
2, 65316, Note_on_c, 0, 58, 0
2, 65340, Note_on_c, 0, 94, 0
2, 65592, Note_on_c, 0, 87, 85
2, 65592, Note_on_c, 0, 95, 83
2, 65596, Note_on_c, 0, 83, 80
2, 65600, Note_on_c, 0, 64, 82
2, 65604, Note_on_c, 0, 54, 73
2, 65604, Note_on_c, 0, 58, 59
2, 65616, Note_on_c, 0, 60, 61
2, 65636, Note_on_c, 0, 83, 0
2, 65652, Note_on_c, 0, 60, 0
2, 65664, Note_on_c, 0, 58, 0
2, 65668, Note_on_c, 0, 64, 0
2, 65668, Note_on_c, 0, 95, 0
2, 65676, Note_on_c, 0, 87, 0
2, 65740, Control_c, 0, 64, 127
2, 65756, Note_on_c, 0, 96, 94
2, 65760, Note_on_c, 0, 64, 76
2, 65760, Note_on_c, 0, 84, 82
2, 65760, Note_on_c, 0, 60, 63
2, 65760, Note_on_c, 0, 90, 72
2, 65772, Note_on_c, 0, 58, 56
2, 65884, Note_on_c, 0, 64, 0
2, 65892, Note_on_c, 0, 90, 0
2, 65916, Note_on_c, 0, 58, 0
2, 65920, Note_on_c, 0, 96, 0
2, 65940, Note_on_c, 0, 84, 0
2, 65988, Note_on_c, 0, 54, 0
2, 66016, Note_on_c, 0, 60, 0
2, 66040, Control_c, 0, 64, 0
2, 66108, Note_on_c, 0, 60, 75
2, 66116, Note_on_c, 0, 63, 83
2, 66116, Note_on_c, 0, 53, 72
2, 66132, Note_on_c, 0, 97, 92
2, 66136, Note_on_c, 0, 56, 60
2, 66136, Note_on_c, 0, 85, 96
2, 66172, Note_on_c, 0, 90, 56
2, 66376, Control_c, 0, 64, 127
2, 66512, Note_on_c, 0, 90, 0
2, 66520, Note_on_c, 0, 97, 0
2, 66528, Note_on_c, 0, 63, 0
2, 66540, Note_on_c, 0, 53, 0
2, 66564, Note_on_c, 0, 56, 0
2, 66568, Note_on_c, 0, 85, 0
2, 66576, Note_on_c, 0, 60, 0
2, 66724, Control_c, 0, 64, 0
2, 66768, Note_on_c, 0, 92, 68
2, 66776, Note_on_c, 0, 80, 63
2, 66788, Note_on_c, 0, 63, 61
2, 66788, Note_on_c, 0, 87, 61
2, 66804, Note_on_c, 0, 60, 57
2, 66816, Note_on_c, 0, 53, 48
2, 66820, Note_on_c, 0, 56, 52
2, 66892, Control_c, 0, 64, 127
2, 67152, Note_on_c, 0, 63, 0
2, 67176, Note_on_c, 0, 87, 0
2, 67204, Note_on_c, 0, 92, 0
2, 67256, Note_on_c, 0, 80, 0
2, 67256, Note_on_c, 0, 53, 0
2, 67348, Note_on_c, 0, 56, 0
2, 67368, Note_on_c, 0, 60, 0
2, 67444, Control_c, 0, 64, 0
2, 67496, Note_on_c, 0, 89, 67
2, 67500, Note_on_c, 0, 77, 61
2, 67500, Note_on_c, 0, 63, 67
2, 67500, Note_on_c, 0, 84, 56
2, 67500, Note_on_c, 0, 60, 53
2, 67528, Note_on_c, 0, 53, 45
2, 67544, Note_on_c, 0, 56, 48
2, 67612, Control_c, 0, 64, 127
2, 67852, Note_on_c, 0, 89, 0
2, 67868, Note_on_c, 0, 63, 0
2, 67904, Note_on_c, 0, 84, 0
2, 68004, Note_on_c, 0, 53, 0
2, 68044, Note_on_c, 0, 77, 0
2, 68048, Note_on_c, 0, 60, 0
2, 68052, Note_on_c, 0, 56, 0
2, 68220, Control_c, 0, 64, 0
2, 68244, Note_on_c, 0, 63, 75
2, 68260, Note_on_c, 0, 60, 61
2, 68284, Note_on_c, 0, 53, 40
2, 68288, Note_on_c, 0, 56, 45
2, 68336, Note_on_c, 0, 53, 0
2, 68352, Note_on_c, 0, 56, 0
2, 68360, Control_c, 0, 64, 127
2, 68364, Note_on_c, 0, 60, 0
2, 68400, Note_on_c, 0, 63, 0
2, 68640, Note_on_c, 0, 68, 81
2, 68644, Note_on_c, 0, 67, 75
2, 68652, Note_on_c, 0, 79, 66
2, 68660, Note_on_c, 0, 72, 57
2, 68696, Note_on_c, 0, 72, 0
2, 68700, Note_on_c, 0, 79, 0
2, 68704, Control_c, 0, 64, 0
2, 68708, Note_on_c, 0, 68, 0
2, 68736, Note_on_c, 0, 67, 0
2, 68772, Note_on_c, 0, 65, 54
2, 68880, Note_on_c, 0, 79, 77
2, 68888, Note_on_c, 0, 72, 64
2, 68888, Note_on_c, 0, 67, 85
2, 68908, Note_on_c, 0, 65, 0
2, 68920, Note_on_c, 0, 68, 38
2, 68928, Note_on_c, 0, 75, 44
2, 68932, Note_on_c, 0, 69, 36
2, 68988, Note_on_c, 0, 69, 0
2, 69068, Note_on_c, 0, 68, 0
2, 69128, Note_on_c, 0, 75, 0
2, 69136, Note_on_c, 0, 67, 0
2, 69140, Note_on_c, 0, 72, 0
2, 69148, Note_on_c, 0, 79, 0
2, 69208, Note_on_c, 0, 65, 79
2, 69220, Note_on_c, 0, 77, 72
2, 69228, Note_on_c, 0, 68, 58
2, 69232, Note_on_c, 0, 72, 76
2, 69276, Control_c, 0, 64, 127
2, 69328, Control_c, 0, 64, 56
2, 69332, Control_c, 0, 64, 0
2, 69396, Control_c, 0, 64, 127
2, 69500, Note_on_c, 0, 72, 0
2, 69520, Note_on_c, 0, 77, 0
2, 69544, Note_on_c, 0, 65, 0
2, 69576, Note_on_c, 0, 68, 0
2, 69724, Control_c, 0, 64, 0
2, 69776, Note_on_c, 0, 65, 56
2, 69788, Note_on_c, 0, 68, 60
2, 69792, Note_on_c, 0, 72, 61
2, 69808, Note_on_c, 0, 63, 53
2, 69880, Control_c, 0, 64, 127
2, 69944, Note_on_c, 0, 63, 0
2, 70068, Note_on_c, 0, 65, 0
2, 70128, Note_on_c, 0, 72, 0
2, 70148, Note_on_c, 0, 68, 0
2, 70272, Note_on_c, 0, 56, 53
2, 70324, Note_on_c, 0, 56, 0
2, 70500, Control_c, 0, 64, 0
2, 70536, Note_on_c, 0, 82, 98
2, 70548, Note_on_c, 0, 64, 61
2, 70564, Note_on_c, 0, 59, 50
2, 70572, Note_on_c, 0, 53, 58
2, 70776, Note_on_c, 0, 82, 0
2, 70820, Note_on_c, 0, 59, 0
2, 70892, Note_on_c, 0, 80, 79
2, 70896, Note_on_c, 0, 64, 0
2, 70896, Note_on_c, 0, 59, 46
2, 70988, Note_on_c, 0, 53, 0
2, 71056, Note_on_c, 0, 80, 0
2, 71084, Note_on_c, 0, 59, 0
2, 71096, Note_on_c, 0, 75, 61
2, 71260, Note_on_c, 0, 75, 0
2, 71280, Note_on_c, 0, 59, 43
2, 71288, Note_on_c, 0, 71, 72
2, 71296, Note_on_c, 0, 63, 47
2, 71340, Note_on_c, 0, 63, 0
2, 71380, Note_on_c, 0, 71, 0
2, 71484, Note_on_c, 0, 59, 0
2, 71656, Note_on_c, 0, 63, 58
2, 71660, Note_on_c, 0, 59, 54
2, 71664, Note_on_c, 0, 53, 50
2, 71676, Note_on_c, 0, 68, 82
2, 71684, Note_on_c, 0, 56, 50
2, 71696, Note_on_c, 0, 63, 0
2, 71708, Note_on_c, 0, 59, 0
2, 71792, Note_on_c, 0, 53, 0
2, 71836, Note_on_c, 0, 68, 0
2, 71880, Note_on_c, 0, 67, 55
2, 71948, Note_on_c, 0, 56, 0
2, 71964, Note_on_c, 0, 67, 0
2, 72040, Note_on_c, 0, 66, 84
2, 72064, Note_on_c, 0, 57, 63
2, 72064, Note_on_c, 0, 51, 51
2, 72068, Note_on_c, 0, 62, 39
2, 72120, Note_on_c, 0, 62, 0
2, 72176, Note_on_c, 0, 66, 0
2, 72196, Note_on_c, 0, 57, 0
2, 72216, Note_on_c, 0, 65, 42
2, 72360, Note_on_c, 0, 65, 0
2, 72416, Note_on_c, 0, 57, 59
2, 72440, Note_on_c, 0, 62, 60
2, 72492, Note_on_c, 0, 62, 0
2, 72566, Note_on_c, 0, 65, 66
2, 72596, Note_on_c, 0, 57, 0
2, 72596, Note_on_c, 0, 51, 0
2, 72764, Note_on_c, 0, 65, 0
2, 72792, Note_on_c, 0, 62, 57
2, 72820, Note_on_c, 0, 57, 51
2, 72892, Note_on_c, 0, 62, 0
2, 72956, Note_on_c, 0, 57, 0
2, 72960, Note_on_c, 0, 63, 60
2, 73248, Note_on_c, 0, 60, 75
2, 73312, Note_on_c, 0, 63, 0
2, 73324, Note_on_c, 0, 60, 0
2, 73620, Note_on_c, 0, 55, 81
2, 73624, Note_on_c, 0, 54, 66
2, 73732, Note_on_c, 0, 54, 0
2, 74000, Note_on_c, 0, 54, 48
2, 74052, Note_on_c, 0, 54, 0
2, 74084, Note_on_c, 0, 55, 0
2, 74084, Note_on_c, 0, 53, 49
2, 74124, Note_on_c, 0, 53, 0
2, 74124, Note_on_c, 0, 72, 85
2, 74124, Note_on_c, 0, 65, 99
2, 74272, Note_on_c, 0, 72, 0
2, 74360, Note_on_c, 0, 65, 0
2, 74384, Note_on_c, 0, 63, 63
2, 74424, Note_on_c, 0, 63, 0
2, 74532, Note_on_c, 0, 65, 78
2, 74548, Note_on_c, 0, 72, 68
2, 74656, Note_on_c, 0, 72, 0
2, 74680, Note_on_c, 0, 65, 0
2, 74752, Note_on_c, 0, 72, 62
2, 74752, Note_on_c, 0, 65, 79
2, 74760, Note_on_c, 0, 63, 66
2, 74792, Note_on_c, 0, 53, 42
2, 74796, Note_on_c, 0, 59, 56
2, 74800, Note_on_c, 0, 63, 0
2, 74836, Note_on_c, 0, 56, 37
2, 74844, Note_on_c, 0, 59, 0
2, 74852, Note_on_c, 0, 72, 0
2, 74932, Note_on_c, 0, 63, 50
2, 74976, Note_on_c, 0, 56, 0
2, 74976, Note_on_c, 0, 53, 0
2, 74988, Note_on_c, 0, 65, 0
2, 75012, Note_on_c, 0, 63, 0
2, 75140, Note_on_c, 0, 63, 68
2, 75232, Note_on_c, 0, 63, 0
2, 75232, Note_on_c, 0, 62, 35
2, 75232, Note_on_c, 0, 57, 51
2, 75232, Note_on_c, 0, 51, 39
2, 75288, Note_on_c, 0, 62, 0
2, 75300, Note_on_c, 0, 65, 68
2, 75304, Note_on_c, 0, 72, 68
2, 75356, Note_on_c, 0, 51, 0
2, 75424, Note_on_c, 0, 57, 0
2, 75432, Note_on_c, 0, 72, 0
2, 75448, Note_on_c, 0, 65, 0
2, 75528, Note_on_c, 0, 65, 74
2, 75528, Note_on_c, 0, 72, 57
2, 75540, Note_on_c, 0, 57, 60
2, 75540, Note_on_c, 0, 51, 24
2, 75604, Note_on_c, 0, 51, 0
2, 75680, Note_on_c, 0, 65, 0
2, 75692, Note_on_c, 0, 57, 0
2, 75692, Note_on_c, 0, 63, 50
2, 75740, Note_on_c, 0, 63, 0
2, 75780, Note_on_c, 0, 72, 0
2, 75896, Note_on_c, 0, 51, 50
2, 75904, Note_on_c, 0, 57, 58
2, 75924, Note_on_c, 0, 63, 66
2, 75932, Note_on_c, 0, 72, 49
2, 75960, Note_on_c, 0, 63, 0
2, 75960, Note_on_c, 0, 51, 0
2, 75980, Note_on_c, 0, 72, 0
2, 76008, Note_on_c, 0, 57, 0
2, 76076, Note_on_c, 0, 60, 66
2, 76276, Note_on_c, 0, 57, 57
2, 76380, Note_on_c, 0, 60, 0
2, 76392, Note_on_c, 0, 57, 0
2, 76428, Note_on_c, 0, 58, 58
2, 76640, Note_on_c, 0, 57, 41
2, 76680, Note_on_c, 0, 58, 0
2, 76720, Note_on_c, 0, 60, 66
2, 76788, Note_on_c, 0, 57, 0
2, 76872, Control_c, 0, 64, 127
2, 77048, Note_on_c, 0, 60, 0
2, 77104, Note_on_c, 0, 63, 56
2, 77124, Note_on_c, 0, 57, 59
2, 77132, Note_on_c, 0, 51, 44
2, 77144, Control_c, 0, 64, 0
2, 77164, Note_on_c, 0, 63, 0
2, 77180, Note_on_c, 0, 51, 0
2, 77204, Note_on_c, 0, 57, 0
2, 77280, Note_on_c, 0, 65, 51
2, 77428, Note_on_c, 0, 65, 0
2, 77476, Note_on_c, 0, 70, 70
2, 77496, Note_on_c, 0, 57, 54
2, 77580, Note_on_c, 0, 57, 0
2, 77596, Note_on_c, 0, 70, 0
2, 77620, Note_on_c, 0, 75, 63
2, 77808, Note_on_c, 0, 75, 0
2, 77856, Note_on_c, 0, 72, 63
2, 77892, Note_on_c, 0, 57, 39
2, 77936, Note_on_c, 0, 57, 0
2, 77940, Note_on_c, 0, 72, 0
2, 78028, Note_on_c, 0, 77, 56
2, 78220, Note_on_c, 0, 82, 82
2, 78220, Note_on_c, 0, 62, 75
2, 78224, Note_on_c, 0, 77, 0
2, 78232, Note_on_c, 0, 60, 58
2, 78252, Note_on_c, 0, 56, 43
2, 78268, Note_on_c, 0, 53, 51
2, 78328, Note_on_c, 0, 62, 0
2, 78368, Note_on_c, 0, 82, 0
2, 78376, Note_on_c, 0, 53, 0
2, 78388, Note_on_c, 0, 60, 0
2, 78400, Note_on_c, 0, 84, 87
2, 78408, Note_on_c, 0, 56, 0
2, 78624, Note_on_c, 0, 84, 0
2, 78632, Note_on_c, 0, 79, 63
2, 78740, Note_on_c, 0, 79, 0
2, 78792, Note_on_c, 0, 80, 66
2, 78960, Note_on_c, 0, 80, 0
2, 78992, Note_on_c, 0, 77, 66
2, 79020, Note_on_c, 0, 64, 54
2, 79060, Note_on_c, 0, 77, 0
2, 79156, Note_on_c, 0, 76, 35
2, 79168, Note_on_c, 0, 64, 0
2, 79288, Note_on_c, 0, 76, 0
2, 79360, Note_on_c, 0, 79, 90
2, 79364, Note_on_c, 0, 64, 38
2, 79420, Note_on_c, 0, 64, 0
2, 79552, Note_on_c, 0, 77, 51
2, 79592, Note_on_c, 0, 79, 0
2, 79684, Note_on_c, 0, 77, 0
2, 79732, Note_on_c, 0, 72, 61
2, 79784, Note_on_c, 0, 62, 38
2, 79788, Note_on_c, 0, 60, 45
2, 79792, Note_on_c, 0, 56, 43
2, 79820, Note_on_c, 0, 72, 0
2, 79836, Note_on_c, 0, 62, 0
2, 79892, Note_on_c, 0, 68, 55
2, 79904, Note_on_c, 0, 60, 0
2, 79932, Note_on_c, 0, 56, 0
2, 80100, Note_on_c, 0, 68, 0
2, 80148, Note_on_c, 0, 60, 36
2, 80156, Note_on_c, 0, 67, 36
2, 80204, Note_on_c, 0, 60, 0
2, 80212, Note_on_c, 0, 67, 0
2, 80268, Note_on_c, 0, 70, 63
2, 80476, Note_on_c, 0, 70, 0
2, 80528, Note_on_c, 0, 67, 56
2, 80544, Note_on_c, 0, 56, 37
2, 80556, Note_on_c, 0, 60, 31
2, 80564, Note_on_c, 0, 67, 0
2, 80608, Note_on_c, 0, 56, 0
2, 80616, Note_on_c, 0, 60, 0
2, 80664, Note_on_c, 0, 68, 51
2, 80820, Note_on_c, 0, 68, 0
2, 80880, Note_on_c, 0, 70, 55
2, 80896, Note_on_c, 0, 56, 45
2, 80940, Note_on_c, 0, 68, 58
2, 80996, Note_on_c, 0, 70, 0
2, 81000, Note_on_c, 0, 56, 0
2, 81068, Note_on_c, 0, 67, 50
2, 81100, Note_on_c, 0, 68, 0
2, 81208, Note_on_c, 0, 67, 0
2, 81296, Note_on_c, 0, 65, 72
2, 81328, Note_on_c, 0, 56, 43
2, 81376, Note_on_c, 0, 50, 31
2, 81432, Note_on_c, 0, 65, 0
2, 81436, Note_on_c, 0, 50, 0
2, 81468, Note_on_c, 0, 56, 0
2, 81480, Note_on_c, 0, 64, 47
2, 81628, Note_on_c, 0, 64, 0
2, 81688, Note_on_c, 0, 67, 68
2, 81748, Note_on_c, 0, 56, 33
2, 81804, Note_on_c, 0, 56, 0
2, 81808, Note_on_c, 0, 67, 0
2, 81892, Note_on_c, 0, 60, 68
2, 81988, Note_on_c, 0, 60, 0
2, 82108, Note_on_c, 0, 56, 36
2, 82160, Note_on_c, 0, 56, 0
2, 82172, Note_on_c, 0, 60, 66
2, 82368, Note_on_c, 0, 60, 0
2, 82460, Note_on_c, 0, 60, 72
2, 82496, Note_on_c, 0, 56, 42
2, 82512, Note_on_c, 0, 50, 39
2, 82556, Note_on_c, 0, 56, 0
2, 82564, Note_on_c, 0, 50, 0
2, 82604, Note_on_c, 0, 60, 0
2, 82704, Note_on_c, 0, 60, 63
2, 82872, Note_on_c, 0, 60, 0
2, 82980, Note_on_c, 0, 60, 66
2, 83148, Note_on_c, 0, 60, 0
2, 83292, Note_on_c, 0, 63, 66
2, 83312, Note_on_c, 0, 59, 60
2, 83320, Note_on_c, 0, 53, 47
2, 83324, Note_on_c, 0, 56, 46
2, 83608, Control_c, 0, 64, 127
2, 83780, Note_on_c, 0, 63, 0
2, 83836, Note_on_c, 0, 53, 0
2, 83852, Note_on_c, 0, 59, 0
2, 83852, Note_on_c, 0, 56, 0
2, 84020, Note_on_c, 0, 63, 67
2, 84044, Note_on_c, 0, 59, 59
2, 84060, Note_on_c, 0, 63, 0
2, 84064, Note_on_c, 0, 53, 30
2, 84064, Note_on_c, 0, 56, 43
2, 84084, Note_on_c, 0, 59, 0
2, 84084, Control_c, 0, 64, 0
2, 84122, Note_on_c, 0, 53, 0
2, 84156, Note_on_c, 0, 85, 43
2, 84208, Note_on_c, 0, 56, 0
2, 84236, Note_on_c, 0, 85, 0
2, 84424, Note_on_c, 0, 62, 62
2, 84424, Note_on_c, 0, 86, 72
2, 84424, Note_on_c, 0, 74, 72
2, 84432, Note_on_c, 0, 51, 53
2, 84436, Note_on_c, 0, 57, 60
2, 84624, Control_c, 0, 64, 127
2, 84968, Note_on_c, 0, 57, 0
2, 84996, Note_on_c, 0, 51, 0
2, 85012, Note_on_c, 0, 62, 0
2, 85068, Note_on_c, 0, 74, 0
2, 85092, Note_on_c, 0, 86, 0
2, 85156, Note_on_c, 0, 51, 56
2, 85172, Note_on_c, 0, 57, 59
2, 85204, Note_on_c, 0, 51, 0
2, 85212, Note_on_c, 0, 57, 0
2, 85236, Control_c, 0, 64, 0
2, 85564, Note_on_c, 0, 62, 58
2, 85572, Note_on_c, 0, 87, 62
2, 85572, Note_on_c, 0, 51, 54
2, 85572, Note_on_c, 0, 75, 56
2, 85580, Note_on_c, 0, 57, 59
2, 85604, Note_on_c, 0, 62, 0
2, 85612, Note_on_c, 0, 75, 0
2, 85612, Note_on_c, 0, 87, 0
2, 85620, Note_on_c, 0, 51, 0
2, 85628, Note_on_c, 0, 57, 0
2, 86048, Control_c, 0, 64, 127
2, 86352, Control_c, 0, 64, 0
2, 86408, Control_c, 0, 64, 127
2, 86716, Note_on_c, 0, 57, 43
2, 86720, Note_on_c, 0, 62, 35
2, 86760, Note_on_c, 0, 57, 0
2, 86768, Control_c, 0, 64, 0
2, 86776, Note_on_c, 0, 62, 0
2, 86812, Note_on_c, 0, 91, 122
2, 86824, Note_on_c, 0, 79, 122
2, 86832, Note_on_c, 0, 62, 80
2, 86836, Note_on_c, 0, 51, 83
2, 86840, Note_on_c, 0, 57, 79
2, 86996, Note_on_c, 0, 90, 40
2, 87004, Note_on_c, 0, 79, 0
2, 87028, Note_on_c, 0, 91, 0
2, 87028, Note_on_c, 0, 62, 0
2, 87044, Note_on_c, 0, 51, 0
2, 87048, Note_on_c, 0, 90, 0
2, 87096, Note_on_c, 0, 57, 0
2, 87180, Note_on_c, 0, 51, 68
2, 87188, Note_on_c, 0, 90, 96
2, 87192, Note_on_c, 0, 62, 75
2, 87192, Note_on_c, 0, 57, 73
2, 87192, Note_on_c, 0, 78, 99
2, 87324, Note_on_c, 0, 51, 0
2, 87336, Note_on_c, 0, 57, 0
2, 87376, Note_on_c, 0, 62, 0
2, 87404, Note_on_c, 0, 78, 0
2, 87436, Note_on_c, 0, 90, 0
2, 87580, Note_on_c, 0, 54, 66
2, 87584, Note_on_c, 0, 61, 65
2, 87592, Control_c, 0, 64, 127
2, 87592, Note_on_c, 0, 89, 88
2, 87596, Note_on_c, 0, 65, 51
2, 87596, Note_on_c, 0, 82, 78
2, 87596, Note_on_c, 0, 85, 75
2, 87596, Note_on_c, 0, 77, 83
2, 87596, Note_on_c, 0, 58, 56
2, 87612, Note_on_c, 0, 64, 60
2, 87732, Note_on_c, 0, 64, 0
2, 88016, Note_on_c, 0, 54, 0
2, 88028, Note_on_c, 0, 89, 0
2, 88044, Note_on_c, 0, 65, 0
2, 88068, Note_on_c, 0, 77, 0
2, 88084, Note_on_c, 0, 58, 0
2, 88100, Note_on_c, 0, 61, 0
2, 88104, Note_on_c, 0, 85, 0
2, 88104, Note_on_c, 0, 82, 0
2, 88212, Control_c, 0, 64, 0
2, 88216, Note_on_c, 0, 87, 68
2, 88224, Note_on_c, 0, 75, 71
2, 88224, Note_on_c, 0, 82, 64
2, 88244, Note_on_c, 0, 85, 48
2, 88248, Note_on_c, 0, 65, 72
2, 88256, Note_on_c, 0, 54, 60
2, 88256, Note_on_c, 0, 61, 66
2, 88256, Note_on_c, 0, 58, 55
2, 88372, Control_c, 0, 64, 127
2, 88532, Note_on_c, 0, 75, 0
2, 88592, Note_on_c, 0, 82, 0
2, 88600, Note_on_c, 0, 85, 0
2, 88772, Note_on_c, 0, 87, 0
2, 88872, Note_on_c, 0, 65, 0
2, 88884, Note_on_c, 0, 54, 0
2, 88912, Note_on_c, 0, 61, 0
2, 88956, Note_on_c, 0, 58, 0
2, 89092, Control_c, 0, 64, 0
2, 89132, Note_on_c, 0, 92, 92
2, 89132, Note_on_c, 0, 87, 96
2, 89132, Note_on_c, 0, 80, 90
2, 89132, Note_on_c, 0, 54, 83
2, 89132, Note_on_c, 0, 64, 88
2, 89152, Note_on_c, 0, 60, 75
2, 89212, Note_on_c, 0, 80, 0
2, 89280, Note_on_c, 0, 64, 0
2, 89280, Note_on_c, 0, 92, 0
2, 89300, Note_on_c, 0, 87, 0
2, 89308, Note_on_c, 0, 54, 0
2, 89312, Note_on_c, 0, 60, 0
2, 89520, Note_on_c, 0, 90, 87
2, 89524, Note_on_c, 0, 64, 81
2, 89524, Note_on_c, 0, 54, 81
2, 89524, Note_on_c, 0, 60, 75
2, 89524, Note_on_c, 0, 78, 87
2, 89524, Note_on_c, 0, 85, 85
2, 89728, Note_on_c, 0, 64, 0
2, 89740, Note_on_c, 0, 54, 0
2, 89780, Note_on_c, 0, 85, 0
2, 89796, Note_on_c, 0, 78, 0
2, 89800, Note_on_c, 0, 60, 0
2, 89800, Note_on_c, 0, 90, 0
2, 89892, Control_c, 0, 64, 127
2, 89920, Note_on_c, 0, 89, 72
2, 89924, Note_on_c, 0, 54, 68
2, 89924, Note_on_c, 0, 64, 72
2, 89924, Note_on_c, 0, 60, 59
2, 89932, Note_on_c, 0, 84, 71
2, 89936, Note_on_c, 0, 77, 67
2, 90044, Note_on_c, 0, 89, 0
2, 90060, Note_on_c, 0, 77, 0
2, 90088, Note_on_c, 0, 64, 0
2, 90128, Note_on_c, 0, 84, 0
2, 90128, Note_on_c, 0, 54, 0
2, 90152, Note_on_c, 0, 60, 0
2, 90180, Control_c, 0, 64, 0
2, 90208, Note_on_c, 0, 64, 57
2, 90212, Note_on_c, 0, 75, 64
2, 90212, Note_on_c, 0, 87, 61
2, 90212, Note_on_c, 0, 54, 62
2, 90224, Note_on_c, 0, 60, 42
2, 90240, Note_on_c, 0, 82, 41
2, 90248, Note_on_c, 0, 75, 0
2, 90276, Note_on_c, 0, 64, 0
2, 90284, Note_on_c, 0, 82, 0
2, 90304, Note_on_c, 0, 87, 0
2, 90344, Note_on_c, 0, 60, 0
2, 90344, Note_on_c, 0, 54, 0
2, 90540, Note_on_c, 0, 94, 98
2, 90540, Note_on_c, 0, 60, 78
2, 90540, Note_on_c, 0, 63, 85
2, 90540, Note_on_c, 0, 82, 102
2, 90552, Note_on_c, 0, 53, 72
2, 90556, Note_on_c, 0, 56, 64
2, 90564, Note_on_c, 0, 87, 68
2, 90604, Note_on_c, 0, 87, 0
2, 90676, Control_c, 0, 64, 127
2, 90912, Note_on_c, 0, 63, 0
2, 90916, Note_on_c, 0, 53, 0
2, 90932, Note_on_c, 0, 94, 0
2, 90936, Note_on_c, 0, 60, 0
2, 90936, Note_on_c, 0, 82, 0
2, 90956, Note_on_c, 0, 56, 0
2, 90988, Control_c, 0, 64, 0
2, 91028, Note_on_c, 0, 63, 61
2, 91048, Note_on_c, 0, 92, 74
2, 91052, Note_on_c, 0, 56, 57
2, 91052, Note_on_c, 0, 53, 48
2, 91052, Note_on_c, 0, 60, 59
2, 91052, Note_on_c, 0, 80, 68
2, 91052, Note_on_c, 0, 87, 70
2, 91192, Control_c, 0, 64, 127
2, 91220, Note_on_c, 0, 53, 0
2, 91236, Note_on_c, 0, 63, 0
2, 91236, Note_on_c, 0, 87, 0
2, 91240, Note_on_c, 0, 92, 0
2, 91256, Note_on_c, 0, 60, 0
2, 91260, Note_on_c, 0, 80, 0
2, 91288, Note_on_c, 0, 56, 0
2, 91320, Control_c, 0, 64, 0
2, 91428, Note_on_c, 0, 63, 66
2, 91428, Note_on_c, 0, 89, 78
2, 91432, Control_c, 0, 64, 127
2, 91446, Note_on_c, 0, 77, 66
2, 91456, Note_on_c, 0, 60, 55
2, 91464, Note_on_c, 0, 56, 51
2, 91464, Note_on_c, 0, 84, 57
2, 91468, Note_on_c, 0, 53, 43
2, 91584, Note_on_c, 0, 89, 0
2, 91600, Note_on_c, 0, 77, 0
2, 91608, Note_on_c, 0, 84, 0
2, 91612, Note_on_c, 0, 63, 0
2, 91628, Note_on_c, 0, 53, 0
2, 91652, Note_on_c, 0, 60, 0
2, 91660, Note_on_c, 0, 56, 0
2, 91676, Control_c, 0, 64, 0
2, 91816, Note_on_c, 0, 63, 55
2, 91824, Note_on_c, 0, 87, 66
2, 91828, Note_on_c, 0, 75, 69
2, 91836, Note_on_c, 0, 60, 52
2, 91844, Note_on_c, 0, 56, 52
2, 91844, Note_on_c, 0, 53, 41
2, 91848, Note_on_c, 0, 82, 58
2, 91940, Note_on_c, 0, 63, 0
2, 91960, Note_on_c, 0, 53, 0
2, 91996, Note_on_c, 0, 60, 0
2, 91996, Note_on_c, 0, 87, 0
2, 92008, Note_on_c, 0, 56, 0
2, 92008, Note_on_c, 0, 75, 0
2, 92020, Note_on_c, 0, 82, 0
2, 92188, Control_c, 0, 64, 127
2, 92196, Note_on_c, 0, 63, 60
2, 92196, Note_on_c, 0, 85, 65
2, 92204, Note_on_c, 0, 73, 60
2, 92208, Note_on_c, 0, 60, 56
2, 92212, Note_on_c, 0, 56, 55
2, 92220, Note_on_c, 0, 80, 61
2, 92232, Note_on_c, 0, 53, 45
2, 92244, Control_c, 0, 64, 0
2, 92312, Control_c, 0, 64, 127
2, 92412, Control_c, 0, 64, 0
2, 92436, Note_on_c, 0, 85, 0
2, 92436, Note_on_c, 0, 63, 0
2, 92444, Note_on_c, 0, 60, 0
2, 92460, Note_on_c, 0, 73, 0
2, 92460, Note_on_c, 0, 80, 0
2, 92532, Note_on_c, 0, 60, 24
2, 92536, Control_c, 0, 64, 127
2, 92572, Note_on_c, 0, 84, 69
2, 92592, Note_on_c, 0, 72, 69
2, 92624, Note_on_c, 0, 53, 0
2, 92664, Note_on_c, 0, 60, 0
2, 92700, Note_on_c, 0, 56, 0
2, 92724, Note_on_c, 0, 84, 0
2, 92756, Note_on_c, 0, 72, 0
2, 92828, Note_on_c, 0, 63, 42
2, 92836, Note_on_c, 0, 60, 46
2, 92836, Note_on_c, 0, 56, 33
2, 92852, Note_on_c, 0, 53, 31
2, 92876, Note_on_c, 0, 63, 0
2, 92876, Control_c, 0, 64, 0
2, 92916, Note_on_c, 0, 53, 0
2, 92952, Note_on_c, 0, 82, 66
2, 92976, Note_on_c, 0, 70, 68
2, 92984, Note_on_c, 0, 60, 0
2, 93016, Note_on_c, 0, 56, 0
2, 93112, Note_on_c, 0, 82, 0
2, 93164, Note_on_c, 0, 70, 0
2, 93196, Note_on_c, 0, 56, 43
2, 93212, Note_on_c, 0, 60, 31
2, 93268, Note_on_c, 0, 60, 0
2, 93316, Control_c, 0, 64, 127
2, 93328, Note_on_c, 0, 56, 0
2, 93336, Note_on_c, 0, 80, 57
2, 93348, Note_on_c, 0, 68, 68
2, 93428, Note_on_c, 0, 80, 0
2, 93444, Note_on_c, 0, 68, 0
2, 93572, Note_on_c, 0, 50, 57
2, 93572, Note_on_c, 0, 60, 54
2, 93576, Note_on_c, 0, 78, 58
2, 93580, Note_on_c, 0, 56, 50
2, 93616, Note_on_c, 0, 66, 70
2, 93628, Note_on_c, 0, 60, 0
2, 93640, Control_c, 0, 64, 0
2, 93680, Note_on_c, 0, 50, 0
2, 93708, Note_on_c, 0, 56, 0
2, 93756, Note_on_c, 0, 78, 0
2, 93800, Note_on_c, 0, 66, 0
2, 93820, Note_on_c, 0, 67, 46
2, 93932, Note_on_c, 0, 67, 0
2, 93964, Note_on_c, 0, 79, 61
2, 94052, Note_on_c, 0, 67, 45
2, 94068, Note_on_c, 0, 79, 0
2, 94196, Note_on_c, 0, 67, 0
2, 94200, Note_on_c, 0, 79, 51
2, 94324, Note_on_c, 0, 67, 46
2, 94340, Note_on_c, 0, 79, 0
2, 94488, Note_on_c, 0, 79, 52
2, 94496, Note_on_c, 0, 67, 0
2, 94568, Note_on_c, 0, 75, 32
2, 94576, Note_on_c, 0, 72, 16
2, 94592, Note_on_c, 0, 79, 0
2, 94688, Note_on_c, 0, 75, 0
2, 94716, Note_on_c, 0, 68, 71
2, 94732, Note_on_c, 0, 79, 59
2, 94784, Note_on_c, 0, 67, 86
2, 94792, Note_on_c, 0, 68, 0
2, 94876, Note_on_c, 0, 79, 0
2, 94888, Note_on_c, 0, 68, 52
2, 94944, Note_on_c, 0, 72, 0
2, 95028, Note_on_c, 0, 68, 0
2, 95052, Note_on_c, 0, 72, 50
2, 95064, Note_on_c, 0, 79, 20
2, 95132, Note_on_c, 0, 68, 52
2, 95136, Note_on_c, 0, 79, 0
2, 95176, Note_on_c, 0, 72, 0
2, 95208, Note_on_c, 0, 67, 0
2, 95260, Note_on_c, 0, 68, 0
2, 95272, Note_on_c, 0, 72, 42
2, 95292, Note_on_c, 0, 79, 55
2, 95400, Note_on_c, 0, 68, 68
2, 95424, Note_on_c, 0, 72, 0
2, 95428, Note_on_c, 0, 79, 0
2, 95520, Note_on_c, 0, 57, 66
2, 95520, Note_on_c, 0, 55, 66
2, 95532, Note_on_c, 0, 68, 0
2, 95532, Note_on_c, 0, 72, 61
2, 95532, Note_on_c, 0, 43, 55
2, 95560, Note_on_c, 0, 79, 41
2, 95560, Note_on_c, 0, 45, 39
2, 95568, Note_on_c, 0, 57, 0
2, 95616, Note_on_c, 0, 45, 0
2, 95656, Note_on_c, 0, 68, 63
2, 95672, Note_on_c, 0, 72, 0
2, 95688, Note_on_c, 0, 79, 0
2, 95776, Note_on_c, 0, 43, 0
2, 95784, Note_on_c, 0, 72, 46
2, 95796, Note_on_c, 0, 68, 0
2, 95824, Note_on_c, 0, 55, 0
2, 95832, Note_on_c, 0, 79, 24
2, 95936, Note_on_c, 0, 75, 37
2, 95948, Note_on_c, 0, 68, 66
2, 95956, Note_on_c, 0, 72, 0
2, 95968, Note_on_c, 0, 79, 0
2, 96024, Note_on_c, 0, 75, 0
2, 96044, Note_on_c, 0, 59, 72
2, 96056, Note_on_c, 0, 53, 68
2, 96060, Note_on_c, 0, 63, 81
2, 96088, Note_on_c, 0, 68, 0
2, 96092, Note_on_c, 0, 71, 61
2, 96100, Note_on_c, 0, 75, 26
2, 96104, Note_on_c, 0, 56, 37
2, 96240, Note_on_c, 0, 68, 66
2, 96256, Note_on_c, 0, 71, 0
2, 96300, Note_on_c, 0, 75, 0
2, 96372, Note_on_c, 0, 68, 0
2, 96384, Note_on_c, 0, 71, 45
2, 96408, Note_on_c, 0, 59, 0
2, 96408, Note_on_c, 0, 75, 57
2, 96428, Control_c, 0, 64, 127
2, 96444, Note_on_c, 0, 71, 0
2, 96460, Note_on_c, 0, 63, 0
2, 96492, Note_on_c, 0, 53, 0
2, 96504, Note_on_c, 0, 68, 66
2, 96556, Note_on_c, 0, 68, 0
2, 96560, Note_on_c, 0, 75, 0
2, 96584, Note_on_c, 0, 56, 0
2, 96676, Control_c, 0, 64, 0
2, 96696, Note_on_c, 0, 62, 89
2, 96700, Note_on_c, 0, 57, 75
2, 96700, Note_on_c, 0, 51, 82
2, 96720, Note_on_c, 0, 67, 52
2, 96744, Note_on_c, 0, 74, 48
2, 96748, Note_on_c, 0, 79, 27
2, 96792, Note_on_c, 0, 62, 0
2, 96820, Note_on_c, 0, 67, 0
2, 96856, Note_on_c, 0, 57, 0
2, 96900, Control_c, 0, 64, 88
2, 96908, Control_c, 0, 64, 127
2, 96912, Note_on_c, 0, 51, 0
2, 96924, Note_on_c, 0, 67, 60
2, 96928, Note_on_c, 0, 79, 0
2, 96984, Note_on_c, 0, 74, 0
2, 97036, Control_c, 0, 64, 0
2, 97068, Note_on_c, 0, 79, 62
2, 97072, Note_on_c, 0, 67, 0
2, 97084, Note_on_c, 0, 74, 72
2, 97112, Note_on_c, 0, 55, 96
2, 97112, Note_on_c, 0, 54, 82
2, 97204, Note_on_c, 0, 67, 57
2, 97212, Note_on_c, 0, 79, 0
2, 97224, Note_on_c, 0, 74, 0
2, 97308, Note_on_c, 0, 54, 0
2, 97324, Note_on_c, 0, 67, 0
2, 97336, Note_on_c, 0, 79, 55
2, 97344, Note_on_c, 0, 74, 55
2, 97436, Note_on_c, 0, 79, 0
2, 97452, Note_on_c, 0, 67, 55
2, 97480, Note_on_c, 0, 74, 0
2, 97576, Control_c, 0, 64, 127
2, 97584, Note_on_c, 0, 67, 0
2, 97596, Note_on_c, 0, 74, 60
2, 97604, Note_on_c, 0, 79, 52
2, 97708, Note_on_c, 0, 79, 0
2, 97736, Note_on_c, 0, 67, 64
2, 97760, Note_on_c, 0, 74, 0
2, 97824, Control_c, 0, 64, 0
2, 97844, Note_on_c, 0, 43, 92
2, 97856, Note_on_c, 0, 79, 58
2, 97868, Note_on_c, 0, 74, 61
2, 97880, Note_on_c, 0, 67, 0
2, 97952, Note_on_c, 0, 43, 0
2, 97976, Note_on_c, 0, 55, 0
2, 97980, Control_c, 0, 64, 127
2, 97984, Note_on_c, 0, 67, 59
2, 98000, Note_on_c, 0, 79, 0
2, 98008, Note_on_c, 0, 74, 0
2, 98120, Note_on_c, 0, 79, 25
2, 98132, Note_on_c, 0, 74, 58
2, 98152, Note_on_c, 0, 67, 0
2, 98272, Note_on_c, 0, 79, 0
2, 98272, Control_c, 0, 64, 0
2, 98284, Note_on_c, 0, 67, 69
2, 98300, Note_on_c, 0, 59, 80
2, 98304, Note_on_c, 0, 63, 88
2, 98316, Note_on_c, 0, 74, 0
2, 98316, Note_on_c, 0, 56, 57
2, 98316, Note_on_c, 0, 53, 72
2, 98352, Note_on_c, 0, 54, 39
2, 98416, Note_on_c, 0, 54, 0
2, 98436, Note_on_c, 0, 79, 53
2, 98720, Note_on_c, 0, 67, 0
2, 98720, Control_c, 0, 64, 40
2, 98724, Control_c, 0, 64, 127
2, 98744, Note_on_c, 0, 79, 0
2, 98812, Note_on_c, 0, 63, 0
2, 98816, Note_on_c, 0, 53, 0
2, 98876, Note_on_c, 0, 59, 0
2, 98904, Note_on_c, 0, 56, 0
2, 98964, Note_on_c, 0, 63, 76
2, 98976, Note_on_c, 0, 59, 63
2, 98988, Note_on_c, 0, 53, 56
2, 99000, Note_on_c, 0, 56, 55
2, 99004, Note_on_c, 0, 63, 0
2, 99024, Note_on_c, 0, 53, 0
2, 99032, Control_c, 0, 64, 72
2, 99040, Control_c, 0, 64, 0
2, 99108, Note_on_c, 0, 70, 67
2, 99120, Note_on_c, 0, 82, 52
2, 99172, Note_on_c, 0, 59, 0
2, 99176, Note_on_c, 0, 56, 0
2, 99188, Note_on_c, 0, 76, 40
2, 99228, Note_on_c, 0, 82, 0
2, 99236, Note_on_c, 0, 70, 0
2, 99252, Note_on_c, 0, 71, 46
2, 99272, Note_on_c, 0, 79, 22
2, 99300, Note_on_c, 0, 71, 0
2, 99312, Note_on_c, 0, 83, 21
2, 99352, Note_on_c, 0, 79, 0
2, 99360, Note_on_c, 0, 83, 0
2, 99360, Note_on_c, 0, 76, 0
2, 99364, Note_on_c, 0, 63, 80
2, 99376, Note_on_c, 0, 53, 63
2, 99384, Note_on_c, 0, 56, 55
2, 99388, Note_on_c, 0, 59, 65
2, 99452, Note_on_c, 0, 63, 0
2, 99496, Note_on_c, 0, 85, 68
2, 99508, Note_on_c, 0, 78, 56
2, 99512, Note_on_c, 0, 59, 0
2, 99516, Note_on_c, 0, 53, 0
2, 99516, Note_on_c, 0, 73, 54
2, 99564, Note_on_c, 0, 82, 42
2, 99580, Note_on_c, 0, 56, 0
2, 99596, Note_on_c, 0, 78, 0
2, 99596, Note_on_c, 0, 86, 74
2, 99612, Note_on_c, 0, 74, 72
2, 99616, Note_on_c, 0, 73, 0
2, 99620, Note_on_c, 0, 85, 0
2, 99620, Note_on_c, 0, 79, 56
2, 99636, Note_on_c, 0, 84, 43
2, 99700, Note_on_c, 0, 84, 0
2, 99716, Note_on_c, 0, 74, 0
2, 99724, Note_on_c, 0, 86, 0
2, 99748, Note_on_c, 0, 79, 0
2, 99772, Note_on_c, 0, 62, 69
2, 99776, Note_on_c, 0, 82, 0
2, 99776, Note_on_c, 0, 51, 60
2, 99796, Note_on_c, 0, 57, 60
2, 99816, Note_on_c, 0, 55, 49
2, 99880, Note_on_c, 0, 51, 0
2, 99888, Note_on_c, 0, 62, 0
2, 99908, Note_on_c, 0, 70, 49
2, 99908, Note_on_c, 0, 75, 53
2, 99908, Note_on_c, 0, 82, 48
2, 99956, Note_on_c, 0, 55, 0
2, 99976, Note_on_c, 0, 57, 0
2, 99988, Note_on_c, 0, 80, 31
2, 100004, Note_on_c, 0, 75, 0
2, 100040, Note_on_c, 0, 76, 54
2, 100052, Note_on_c, 0, 79, 46
2, 100068, Note_on_c, 0, 70, 0
2, 100080, Note_on_c, 0, 71, 42
2, 100096, Note_on_c, 0, 82, 0
2, 100096, Note_on_c, 0, 79, 0
2, 100120, Note_on_c, 0, 80, 0
2, 100136, Note_on_c, 0, 71, 0
2, 100136, Note_on_c, 0, 62, 67
2, 100156, Note_on_c, 0, 51, 41
2, 100160, Note_on_c, 0, 57, 57
2, 100180, Note_on_c, 0, 62, 0
2, 100180, Note_on_c, 0, 76, 0
2, 100188, Note_on_c, 0, 55, 45
2, 100200, Note_on_c, 0, 51, 0
2, 100264, Note_on_c, 0, 55, 0
2, 100272, Note_on_c, 0, 78, 64
2, 100276, Note_on_c, 0, 57, 0
2, 100280, Note_on_c, 0, 66, 64
2, 100368, Note_on_c, 0, 66, 0
2, 100372, Note_on_c, 0, 79, 55
2, 100380, Note_on_c, 0, 67, 61
2, 100404, Note_on_c, 0, 78, 0
2, 100440, Note_on_c, 0, 74, 43
2, 100480, Note_on_c, 0, 67, 0
2, 100488, Note_on_c, 0, 79, 0
2, 100508, Note_on_c, 0, 62, 56
2, 100512, Note_on_c, 0, 51, 52
2, 100528, Note_on_c, 0, 57, 60
2, 100544, Note_on_c, 0, 74, 0
2, 100552, Note_on_c, 0, 55, 45
2, 100560, Note_on_c, 0, 51, 0
2, 100596, Note_on_c, 0, 62, 0
2, 100648, Note_on_c, 0, 82, 66
2, 100652, Note_on_c, 0, 70, 59
2, 100684, Note_on_c, 0, 55, 0
2, 100688, Note_on_c, 0, 57, 0
2, 100776, Note_on_c, 0, 83, 37
2, 100788, Note_on_c, 0, 70, 0
2, 100800, Note_on_c, 0, 76, 37
2, 100816, Note_on_c, 0, 71, 33
2, 100828, Note_on_c, 0, 83, 0
2, 100860, Note_on_c, 0, 82, 0
2, 100860, Note_on_c, 0, 79, 41
2, 100884, Note_on_c, 0, 71, 0
2, 100884, Note_on_c, 0, 62, 48
2, 100884, Note_on_c, 0, 51, 55
2, 100900, Note_on_c, 0, 57, 57
2, 100904, Note_on_c, 0, 79, 0
2, 100924, Note_on_c, 0, 51, 0
2, 100924, Note_on_c, 0, 76, 0
2, 100924, Note_on_c, 0, 55, 48
2, 100968, Note_on_c, 0, 62, 0
2, 101032, Note_on_c, 0, 85, 68
2, 101044, Note_on_c, 0, 78, 63
2, 101056, Note_on_c, 0, 73, 54
2, 101064, Note_on_c, 0, 57, 0
2, 101080, Note_on_c, 0, 55, 0
2, 101160, Note_on_c, 0, 86, 56
2, 101164, Note_on_c, 0, 85, 0
2, 101168, Note_on_c, 0, 73, 0
2, 101168, Note_on_c, 0, 84, 60
2, 101176, Note_on_c, 0, 74, 57
2, 101184, Note_on_c, 0, 82, 40
2, 101204, Note_on_c, 0, 79, 50
2, 101256, Note_on_c, 0, 86, 0
2, 101272, Note_on_c, 0, 62, 61
2, 101276, Note_on_c, 0, 74, 0
2, 101280, Note_on_c, 0, 51, 55
2, 101288, Note_on_c, 0, 84, 0
2, 101288, Note_on_c, 0, 79, 0
2, 101292, Note_on_c, 0, 78, 0
2, 101292, Note_on_c, 0, 57, 66
2, 101312, Note_on_c, 0, 55, 49
2, 101316, Note_on_c, 0, 82, 0
2, 101320, Note_on_c, 0, 51, 0
2, 101368, Note_on_c, 0, 62, 0
2, 101460, Note_on_c, 0, 75, 54
2, 101468, Note_on_c, 0, 57, 0
2, 101468, Note_on_c, 0, 80, 54
2, 101472, Note_on_c, 0, 55, 0
2, 101472, Note_on_c, 0, 70, 39
2, 101480, Note_on_c, 0, 78, 42
2, 101524, Note_on_c, 0, 81, 45
2, 101604, Note_on_c, 0, 78, 0
2, 101604, Note_on_c, 0, 70, 0
2, 101608, Note_on_c, 0, 71, 47
2, 101612, Note_on_c, 0, 81, 0
2, 101620, Note_on_c, 0, 76, 72
2, 101624, Note_on_c, 0, 75, 0
2, 101636, Note_on_c, 0, 79, 40
2, 101660, Note_on_c, 0, 71, 0
2, 101664, Note_on_c, 0, 62, 62
2, 101680, Note_on_c, 0, 79, 0
2, 101680, Note_on_c, 0, 51, 47
2, 101684, Note_on_c, 0, 57, 59
2, 101688, Note_on_c, 0, 80, 0
2, 101708, Note_on_c, 0, 55, 46
2, 101716, Note_on_c, 0, 76, 0
2, 101724, Note_on_c, 0, 51, 0
2, 101752, Note_on_c, 0, 62, 0
2, 101824, Note_on_c, 0, 66, 74
2, 101832, Note_on_c, 0, 78, 60
2, 101844, Note_on_c, 0, 73, 52
2, 101852, Note_on_c, 0, 57, 0
2, 101852, Note_on_c, 0, 55, 0
2, 101908, Note_on_c, 0, 66, 0
2, 101916, Note_on_c, 0, 67, 71
2, 101924, Note_on_c, 0, 78, 0
2, 101932, Note_on_c, 0, 79, 54
2, 101980, Note_on_c, 0, 73, 0
2, 101988, Note_on_c, 0, 74, 48
2, 102012, Note_on_c, 0, 67, 0
2, 102012, Note_on_c, 0, 77, 29
2, 102032, Note_on_c, 0, 79, 0
2, 102044, Note_on_c, 0, 74, 0
2, 102052, Note_on_c, 0, 51, 56
2, 102052, Note_on_c, 0, 62, 57
2, 102064, Note_on_c, 0, 57, 58
2, 102072, Note_on_c, 0, 77, 0
2, 102092, Note_on_c, 0, 55, 43
2, 102096, Note_on_c, 0, 51, 0
2, 102148, Note_on_c, 0, 62, 0
2, 102200, Note_on_c, 0, 55, 0
2, 102200, Note_on_c, 0, 82, 79
2, 102200, Note_on_c, 0, 70, 77
2, 102232, Note_on_c, 0, 57, 0
2, 102312, Note_on_c, 0, 82, 0
2, 102312, Note_on_c, 0, 76, 48
2, 102332, Note_on_c, 0, 70, 0
2, 102352, Note_on_c, 0, 71, 39
2, 102352, Note_on_c, 0, 79, 48
2, 102412, Note_on_c, 0, 71, 0
2, 102444, Note_on_c, 0, 51, 72
2, 102448, Note_on_c, 0, 62, 78
2, 102456, Note_on_c, 0, 76, 0
2, 102456, Note_on_c, 0, 57, 72
2, 102460, Note_on_c, 0, 79, 0
2, 102480, Note_on_c, 0, 55, 51
2, 102536, Note_on_c, 0, 51, 0
2, 102548, Note_on_c, 0, 62, 0
2, 102556, Note_on_c, 0, 55, 0
2, 102600, Note_on_c, 0, 78, 77
2, 102600, Note_on_c, 0, 85, 75
2, 102604, Note_on_c, 0, 73, 68
2, 102612, Note_on_c, 0, 57, 0
2, 102656, Note_on_c, 0, 82, 57
2, 102676, Note_on_c, 0, 85, 0
2, 102676, Note_on_c, 0, 86, 76
2, 102684, Note_on_c, 0, 79, 63
2, 102692, Note_on_c, 0, 73, 0
2, 102692, Note_on_c, 0, 78, 0
2, 102696, Note_on_c, 0, 74, 70
2, 102740, Note_on_c, 0, 76, 37
2, 102760, Note_on_c, 0, 84, 27
2, 102792, Note_on_c, 0, 76, 0
2, 102800, Note_on_c, 0, 61, 68
2, 102808, Note_on_c, 0, 54, 61
2, 102832, Note_on_c, 0, 62, 70
2, 102836, Note_on_c, 0, 86, 0
2, 102836, Note_on_c, 0, 56, 56
2, 102840, Note_on_c, 0, 61, 0
2, 102844, Note_on_c, 0, 74, 0
2, 102844, Note_on_c, 0, 54, 0
2, 102844, Note_on_c, 0, 79, 0
2, 102848, Note_on_c, 0, 84, 0
2, 102868, Note_on_c, 0, 60, 60
2, 102880, Note_on_c, 0, 82, 0
2, 102884, Note_on_c, 0, 53, 50
2, 102920, Note_on_c, 0, 62, 0
2, 102964, Note_on_c, 0, 56, 0
2, 102968, Note_on_c, 0, 53, 0
2, 102968, Note_on_c, 0, 84, 76
2, 102988, Note_on_c, 0, 72, 81
2, 103008, Note_on_c, 0, 60, 0
2, 103020, Note_on_c, 0, 78, 47
2, 103068, Note_on_c, 0, 78, 0
2, 103188, Note_on_c, 0, 62, 54
2, 103200, Note_on_c, 0, 84, 0
2, 103224, Note_on_c, 0, 62, 0
2, 103224, Note_on_c, 0, 72, 0
2, 103224, Note_on_c, 0, 60, 57
2, 103224, Note_on_c, 0, 56, 44
2, 103268, Note_on_c, 0, 56, 0
2, 103312, Note_on_c, 0, 60, 0
2, 103348, Note_on_c, 0, 80, 66
2, 103396, Note_on_c, 0, 82, 34
2, 103460, Note_on_c, 0, 82, 0
2, 103508, Note_on_c, 0, 80, 0
2, 103580, Note_on_c, 0, 62, 52
2, 103580, Note_on_c, 0, 77, 63
2, 103604, Note_on_c, 0, 60, 50
2, 103604, Note_on_c, 0, 56, 36
2, 103620, Note_on_c, 0, 62, 0
2, 103660, Note_on_c, 0, 56, 0
2, 103660, Note_on_c, 0, 60, 0
2, 103692, Note_on_c, 0, 77, 0
2, 103784, Note_on_c, 0, 72, 46
2, 103892, Note_on_c, 0, 72, 0
2, 103972, Note_on_c, 0, 68, 72
2, 103980, Note_on_c, 0, 60, 39
2, 104060, Note_on_c, 0, 60, 0
2, 104136, Note_on_c, 0, 68, 0
2, 104356, Note_on_c, 0, 56, 50
2, 104356, Note_on_c, 0, 62, 52
2, 104364, Note_on_c, 0, 60, 57
2, 104380, Note_on_c, 0, 65, 67
2, 104396, Note_on_c, 0, 62, 0
2, 104432, Note_on_c, 0, 56, 0
2, 104448, Note_on_c, 0, 60, 0
2, 104464, Note_on_c, 0, 65, 0
2, 104504, Note_on_c, 0, 70, 82
2, 104684, Note_on_c, 0, 60, 63
2, 104716, Note_on_c, 0, 70, 0
2, 104752, Note_on_c, 0, 65, 50
2, 104772, Note_on_c, 0, 60, 0
2, 104792, Note_on_c, 0, 65, 0
2, 104868, Note_on_c, 0, 68, 68
2, 105020, Note_on_c, 0, 68, 0
2, 105076, Note_on_c, 0, 70, 80
2, 105120, Note_on_c, 0, 60, 42
2, 105184, Note_on_c, 0, 60, 0
2, 105184, Note_on_c, 0, 68, 46
2, 105196, Note_on_c, 0, 70, 0
2, 105304, Note_on_c, 0, 68, 0
2, 105308, Note_on_c, 0, 67, 73
2, 105440, Note_on_c, 0, 67, 0
2, 105492, Note_on_c, 0, 65, 75
2, 105524, Note_on_c, 0, 56, 57
2, 105540, Note_on_c, 0, 60, 49
2, 105576, Note_on_c, 0, 60, 0
2, 105596, Note_on_c, 0, 65, 0
2, 105640, Note_on_c, 0, 56, 0
2, 105696, Note_on_c, 0, 63, 42
2, 105872, Note_on_c, 0, 63, 0
2, 105888, Note_on_c, 0, 60, 49
2, 105936, Note_on_c, 0, 50, 31
2, 105980, Note_on_c, 0, 60, 0
2, 106004, Note_on_c, 0, 50, 0
2, 106048, Note_on_c, 0, 62, 78
2, 106216, Note_on_c, 0, 62, 0
2, 106260, Note_on_c, 0, 56, 43
2, 106292, Note_on_c, 0, 63, 61
2, 106332, Note_on_c, 0, 56, 0
2, 106428, Note_on_c, 0, 63, 0
2, 106432, Note_on_c, 0, 62, 56
2, 106580, Note_on_c, 0, 62, 0
2, 106644, Note_on_c, 0, 56, 53
2, 106652, Note_on_c, 0, 60, 39
2, 106700, Note_on_c, 0, 60, 0
2, 106760, Note_on_c, 0, 56, 0
2, 106808, Note_on_c, 0, 62, 70
2, 107016, Note_on_c, 0, 56, 63
2, 107044, Note_on_c, 0, 62, 0
2, 107060, Note_on_c, 0, 56, 0
2, 107060, Note_on_c, 0, 50, 45
2, 107124, Note_on_c, 0, 50, 0
2, 107168, Note_on_c, 0, 60, 68
2, 107248, Control_c, 0, 64, 56
2, 107252, Control_c, 0, 64, 127
2, 107264, Note_on_c, 0, 60, 0
2, 107308, Control_c, 0, 64, 0
2, 107428, Note_on_c, 0, 56, 75
2, 107448, Note_on_c, 0, 65, 56
2, 107448, Note_on_c, 0, 60, 64
2, 107448, Note_on_c, 0, 55, 75
2, 107884, Note_on_c, 0, 55, 0
2, 107912, Note_on_c, 0, 60, 0
2, 107912, Note_on_c, 0, 56, 0
2, 107924, Note_on_c, 0, 65, 0
2, 107924, Note_on_c, 0, 43, 76
2, 108216, Note_on_c, 0, 63, 75
2, 108216, Note_on_c, 0, 59, 76
2, 108236, Note_on_c, 0, 66, 57
2, 108240, Note_on_c, 0, 53, 72
2, 108256, Note_on_c, 0, 67, 51
2, 108360, Note_on_c, 0, 67, 0
2, 108360, Note_on_c, 0, 43, 0
2, 108596, Note_on_c, 0, 59, 0
2, 108648, Note_on_c, 0, 43, 68
2, 108660, Note_on_c, 0, 63, 0
2, 108672, Note_on_c, 0, 53, 0
2, 108684, Note_on_c, 0, 66, 0
2, 108804, Control_c, 0, 64, 127
2, 108836, Control_c, 0, 64, 0
2, 108880, Note_on_c, 0, 43, 0
2, 108940, Note_on_c, 0, 67, 79
2, 108952, Note_on_c, 0, 58, 75
2, 108964, Note_on_c, 0, 55, 72
2, 108968, Note_on_c, 0, 62, 70
2, 109096, Control_c, 0, 64, 127
2, 109292, Note_on_c, 0, 58, 0
2, 109332, Note_on_c, 0, 67, 0
2, 109372, Control_c, 0, 64, 0
2, 109376, Note_on_c, 0, 62, 0
2, 109434, Note_on_c, 0, 55, 0
2, 109440, Note_on_c, 0, 48, 67
2, 109456, Control_c, 0, 64, 127
2, 109672, Control_c, 0, 64, 0
2, 109720, Note_on_c, 0, 74, 85
2, 109724, Note_on_c, 0, 63, 82
2, 109724, Note_on_c, 0, 67, 77
2, 109740, Note_on_c, 0, 59, 81
2, 110016, Control_c, 0, 64, 127
2, 110088, Note_on_c, 0, 63, 0
2, 110164, Note_on_c, 0, 67, 0
2, 110172, Note_on_c, 0, 59, 0
2, 110204, Note_on_c, 0, 55, 66
2, 110204, Note_on_c, 0, 63, 45
2, 110220, Note_on_c, 0, 48, 0
2, 110232, Note_on_c, 0, 74, 0
2, 110276, Note_on_c, 0, 63, 0
2, 110336, Control_c, 0, 64, 0
2, 110468, Note_on_c, 0, 72, 76
2, 110476, Note_on_c, 0, 55, 0
2, 110476, Note_on_c, 0, 60, 78
2, 110476, Note_on_c, 0, 63, 74
2, 110476, Note_on_c, 0, 67, 74
2, 110600, Control_c, 0, 64, 127
2, 110676, Note_on_c, 0, 63, 0
2, 110688, Note_on_c, 0, 67, 0
2, 110740, Note_on_c, 0, 72, 0
2, 110860, Note_on_c, 0, 60, 0
2, 110908, Note_on_c, 0, 58, 34
2, 110956, Control_c, 0, 64, 0
2, 110980, Note_on_c, 0, 58, 0
2, 111004, Note_on_c, 0, 75, 83
2, 111008, Note_on_c, 0, 67, 77
2, 111012, Note_on_c, 0, 70, 81
2, 111024, Note_on_c, 0, 63, 71
2, 111076, Note_on_c, 0, 61, 29
2, 111124, Note_on_c, 0, 61, 0
2, 111324, Note_on_c, 0, 67, 0
2, 111324, Note_on_c, 0, 63, 0
2, 111328, Control_c, 0, 64, 127
2, 111356, Note_on_c, 0, 70, 0
2, 111364, Note_on_c, 0, 75, 0
2, 111604, Control_c, 0, 64, 0
2, 111624, Note_on_c, 0, 82, 74
2, 111628, Note_on_c, 0, 77, 81
2, 111632, Note_on_c, 0, 89, 65
2, 111632, Note_on_c, 0, 63, 81
2, 111632, Note_on_c, 0, 88, 68
2, 111656, Note_on_c, 0, 60, 65
2, 111656, Note_on_c, 0, 87, 50
2, 111656, Note_on_c, 0, 85, 53
2, 111748, Control_c, 0, 64, 127
2, 111824, Note_on_c, 0, 60, 0
2, 111932, Note_on_c, 0, 88, 0
2, 111940, Note_on_c, 0, 77, 0
2, 111948, Note_on_c, 0, 89, 0
2, 111960, Note_on_c, 0, 82, 0
2, 111976, Note_on_c, 0, 85, 0
2, 111988, Note_on_c, 0, 87, 0
2, 111996, Note_on_c, 0, 63, 0
2, 112120, Control_c, 0, 64, 0
2, 112168, Note_on_c, 0, 65, 76
2, 112176, Note_on_c, 0, 90, 75
2, 112184, Note_on_c, 0, 54, 58
2, 112184, Note_on_c, 0, 61, 58
2, 112184, Note_on_c, 0, 58, 57
2, 112184, Note_on_c, 0, 78, 68
2, 112184, Note_on_c, 0, 85, 70
2, 112424, Note_on_c, 0, 78, 0
2, 112440, Note_on_c, 0, 54, 0
2, 112448, Note_on_c, 0, 65, 0
2, 112448, Note_on_c, 0, 90, 0
2, 112460, Note_on_c, 0, 85, 0
2, 112488, Note_on_c, 0, 58, 0
2, 112488, Note_on_c, 0, 61, 0
2, 112556, Note_on_c, 0, 54, 54
2, 112556, Note_on_c, 0, 65, 63
2, 112564, Note_on_c, 0, 92, 77
2, 112568, Note_on_c, 0, 61, 68
2, 112572, Note_on_c, 0, 87, 72
2, 112572, Note_on_c, 0, 58, 68
2, 112572, Note_on_c, 0, 80, 63
2, 112584, Control_c, 0, 64, 127
2, 112804, Note_on_c, 0, 92, 0
2, 112832, Note_on_c, 0, 87, 0
2, 112844, Note_on_c, 0, 80, 0
2, 112904, Note_on_c, 0, 54, 0
2, 112944, Note_on_c, 0, 65, 0
2, 113016, Note_on_c, 0, 58, 0
2, 113028, Note_on_c, 0, 61, 0
2, 113136, Control_c, 0, 64, 0
2, 113184, Note_on_c, 0, 77, 76
2, 113184, Note_on_c, 0, 89, 61
2, 113184, Note_on_c, 0, 54, 60
2, 113184, Note_on_c, 0, 58, 56
2, 113184, Note_on_c, 0, 65, 57
2, 113184, Note_on_c, 0, 61, 57
2, 113276, Note_on_c, 0, 65, 0
2, 113296, Note_on_c, 0, 89, 0
2, 113304, Note_on_c, 0, 77, 0
2, 113312, Note_on_c, 0, 54, 0
2, 113340, Note_on_c, 0, 61, 0
2, 113348, Control_c, 0, 64, 127
2, 113360, Note_on_c, 0, 58, 0
2, 113436, Note_on_c, 0, 65, 68
2, 113440, Note_on_c, 0, 54, 43
2, 113444, Note_on_c, 0, 61, 52
2, 113452, Note_on_c, 0, 78, 68
2, 113452, Note_on_c, 0, 90, 69
2, 113452, Note_on_c, 0, 58, 60
2, 113464, Note_on_c, 0, 85, 66
2, 113534, Note_on_c, 0, 65, 0
2, 113572, Note_on_c, 0, 90, 0
2, 113588, Note_on_c, 0, 54, 0
2, 113588, Note_on_c, 0, 78, 0
2, 113592, Note_on_c, 0, 85, 0
2, 113652, Note_on_c, 0, 61, 0
2, 113656, Control_c, 0, 64, 0
2, 113740, Note_on_c, 0, 87, 59
2, 113748, Note_on_c, 0, 75, 53
2, 113756, Note_on_c, 0, 82, 60
2, 113760, Note_on_c, 0, 64, 63
2, 113768, Note_on_c, 0, 60, 61
2, 113768, Note_on_c, 0, 54, 48
2, 114056, Control_c, 0, 64, 127
2, 114140, Note_on_c, 0, 64, 0
2, 114148, Note_on_c, 0, 54, 0
2, 114160, Note_on_c, 0, 75, 0
2, 114172, Note_on_c, 0, 82, 0
2, 114184, Note_on_c, 0, 87, 0
2, 114184, Note_on_c, 0, 60, 0
2, 114204, Note_on_c, 0, 58, 0
2, 114284, Control_c, 0, 64, 0
2, 114344, Note_on_c, 0, 87, 62
2, 114352, Note_on_c, 0, 64, 68
2, 114356, Note_on_c, 0, 58, 47
2, 114360, Note_on_c, 0, 54, 55
2, 114360, Note_on_c, 0, 75, 57
2, 114360, Note_on_c, 0, 82, 61
2, 114360, Note_on_c, 0, 60, 58
2, 114476, Control_c, 0, 64, 127
2, 114588, Note_on_c, 0, 60, 0
2, 114592, Note_on_c, 0, 64, 0
2, 114600, Note_on_c, 0, 54, 0
2, 114624, Note_on_c, 0, 58, 0
2, 114700, Control_c, 0, 64, 0
2, 114736, Note_on_c, 0, 58, 52
2, 114736, Note_on_c, 0, 54, 58
2, 114736, Note_on_c, 0, 64, 63
2, 114760, Note_on_c, 0, 60, 55
2, 114768, Note_on_c, 0, 75, 0
2, 114792, Note_on_c, 0, 64, 0
2, 114800, Note_on_c, 0, 82, 0
2, 114804, Note_on_c, 0, 60, 0
2, 114812, Note_on_c, 0, 87, 0
2, 114828, Control_c, 0, 64, 127
2, 114844, Note_on_c, 0, 58, 0
2, 114908, Note_on_c, 0, 54, 0
2, 115028, Control_c, 0, 64, 0
2, 115092, Note_on_c, 0, 63, 82
2, 115096, Note_on_c, 0, 82, 83
2, 115096, Note_on_c, 0, 60, 70
2, 115096, Note_on_c, 0, 89, 79
2, 115096, Note_on_c, 0, 53, 69
2, 115108, Note_on_c, 0, 77, 74
2, 115112, Note_on_c, 0, 56, 58
2, 115120, Note_on_c, 0, 85, 56
2, 115220, Control_c, 0, 64, 127
2, 115376, Note_on_c, 0, 77, 0
2, 115396, Note_on_c, 0, 89, 0
2, 115408, Note_on_c, 0, 53, 0
2, 115416, Note_on_c, 0, 82, 0
2, 115428, Note_on_c, 0, 63, 0
2, 115436, Note_on_c, 0, 85, 0
2, 115456, Note_on_c, 0, 60, 0
2, 115472, Note_on_c, 0, 56, 0
2, 115564, Control_c, 0, 64, 0
2, 115612, Note_on_c, 0, 63, 79
2, 115616, Note_on_c, 0, 92, 85
2, 115620, Note_on_c, 0, 53, 63
2, 115620, Note_on_c, 0, 87, 86
2, 115620, Note_on_c, 0, 80, 83
2, 115620, Note_on_c, 0, 60, 68
2, 115620, Note_on_c, 0, 56, 60
2, 115952, Note_on_c, 0, 87, 0
2, 115956, Control_c, 0, 64, 127
2, 115968, Note_on_c, 0, 92, 0
2, 116004, Note_on_c, 0, 80, 0
2, 116004, Note_on_c, 0, 53, 0
2, 116020, Note_on_c, 0, 63, 0
2, 116064, Note_on_c, 0, 60, 0
2, 116072, Note_on_c, 0, 56, 0
2, 116244, Note_on_c, 0, 63, 75
2, 116252, Note_on_c, 0, 89, 50
2, 116264, Note_on_c, 0, 60, 57
2, 116268, Note_on_c, 0, 77, 66
2, 116268, Note_on_c, 0, 56, 48
2, 116284, Note_on_c, 0, 87, 46
2, 116292, Note_on_c, 0, 89, 0
2, 116300, Note_on_c, 0, 63, 0
2, 116300, Note_on_c, 0, 53, 29
2, 116304, Note_on_c, 0, 77, 0
2, 116304, Note_on_c, 0, 60, 0
2, 116320, Control_c, 0, 64, 0
2, 116324, Note_on_c, 0, 56, 0
2, 116332, Note_on_c, 0, 87, 0
2, 116352, Note_on_c, 0, 53, 0
2, 116420, Note_on_c, 0, 63, 61
2, 116440, Note_on_c, 0, 73, 66
2, 116444, Note_on_c, 0, 85, 61
2, 116456, Note_on_c, 0, 60, 42
2, 116464, Note_on_c, 0, 56, 56
2, 116464, Note_on_c, 0, 53, 52
2, 116576, Note_on_c, 0, 63, 0
2, 116604, Note_on_c, 0, 53, 0
2, 116632, Note_on_c, 0, 73, 0
2, 116640, Note_on_c, 0, 60, 0
2, 116648, Note_on_c, 0, 85, 0
2, 116656, Note_on_c, 0, 56, 0
2, 116800, Note_on_c, 0, 63, 60
2, 116812, Note_on_c, 0, 72, 57
2, 116812, Note_on_c, 0, 84, 58
2, 116820, Note_on_c, 0, 56, 49
2, 116820, Note_on_c, 0, 53, 41
2, 116820, Note_on_c, 0, 80, 50
2, 116820, Note_on_c, 0, 60, 52
2, 116876, Note_on_c, 0, 78, 35
2, 116956, Note_on_c, 0, 78, 0
2, 117060, Note_on_c, 0, 84, 0
2, 117076, Note_on_c, 0, 63, 0
2, 117100, Control_c, 0, 64, 127
2, 117112, Note_on_c, 0, 80, 0
2, 117140, Note_on_c, 0, 72, 0
2, 117172, Note_on_c, 0, 53, 0
2, 117228, Note_on_c, 0, 60, 0
2, 117240, Note_on_c, 0, 56, 0
2, 117336, Control_c, 0, 64, 0
2, 117392, Note_on_c, 0, 80, 62
2, 117408, Note_on_c, 0, 63, 67
2, 117416, Note_on_c, 0, 75, 62
2, 117420, Note_on_c, 0, 68, 44
2, 117428, Note_on_c, 0, 60, 55
2, 117432, Note_on_c, 0, 53, 49
2, 117440, Note_on_c, 0, 56, 45
2, 117508, Control_c, 0, 64, 127
2, 117572, Note_on_c, 0, 63, 0
2, 117608, Note_on_c, 0, 53, 0
2, 117708, Note_on_c, 0, 56, 0
2, 117720, Note_on_c, 0, 60, 0
2, 117816, Note_on_c, 0, 68, 0
2, 117836, Note_on_c, 0, 80, 0
2, 117852, Note_on_c, 0, 75, 0
2, 118128, Control_c, 0, 64, 0
2, 118164, Note_on_c, 0, 56, 68
2, 118168, Note_on_c, 0, 50, 63
2, 118172, Note_on_c, 0, 60, 61
2, 118656, Note_on_c, 0, 50, 0
2, 118672, Note_on_c, 0, 77, 92
2, 118708, Note_on_c, 0, 56, 0
2, 118724, Note_on_c, 0, 60, 0
2, 118920, Note_on_c, 0, 78, 77
2, 118936, Note_on_c, 0, 77, 0
2, 119060, Note_on_c, 0, 78, 0
2, 119080, Note_on_c, 0, 65, 44
2, 119084, Note_on_c, 0, 60, 50
2, 119084, Note_on_c, 0, 54, 42
2, 119100, Note_on_c, 0, 77, 60
2, 119252, Note_on_c, 0, 77, 0
2, 119328, Note_on_c, 0, 75, 69
2, 119364, Note_on_c, 0, 65, 0
2, 119420, Note_on_c, 0, 60, 0
2, 119468, Note_on_c, 0, 75, 0
2, 119488, Note_on_c, 0, 72, 46
2, 119616, Note_on_c, 0, 72, 0
2, 119632, Note_on_c, 0, 54, 0
2, 119728, Note_on_c, 0, 59, 39
2, 119780, Note_on_c, 0, 59, 0
2, 120056, Note_on_c, 0, 64, 60
2, 120072, Note_on_c, 0, 59, 55
2, 120072, Note_on_c, 0, 53, 57
2, 120296, Note_on_c, 0, 53, 0
2, 120312, Note_on_c, 0, 64, 0
2, 120416, Note_on_c, 0, 59, 0
2, 120464, Note_on_c, 0, 53, 56
2, 120480, Note_on_c, 0, 59, 46
2, 120484, Note_on_c, 0, 56, 54
2, 120492, Note_on_c, 0, 63, 47
2, 120536, Note_on_c, 0, 63, 0
2, 120536, Note_on_c, 0, 53, 0
2, 120644, Note_on_c, 0, 84, 64
2, 120648, Note_on_c, 0, 78, 73
2, 120652, Note_on_c, 0, 59, 0
2, 120696, Note_on_c, 0, 56, 0
2, 120848, Note_on_c, 0, 84, 0
2, 120848, Note_on_c, 0, 78, 0
2, 120860, Note_on_c, 0, 63, 60
2, 120868, Note_on_c, 0, 79, 48
2, 120892, Note_on_c, 0, 53, 35
2, 120900, Note_on_c, 0, 63, 0
2, 120904, Note_on_c, 0, 79, 0
2, 120904, Note_on_c, 0, 59, 56
2, 120908, Note_on_c, 0, 56, 41
2, 120964, Note_on_c, 0, 59, 0
2, 120968, Note_on_c, 0, 53, 0
2, 121048, Note_on_c, 0, 56, 0
2, 121252, Note_on_c, 0, 51, 67
2, 121252, Note_on_c, 0, 62, 66
2, 121272, Note_on_c, 0, 57, 63
2, 121500, Note_on_c, 0, 57, 0
2, 121668, Note_on_c, 0, 62, 0
2, 121716, Note_on_c, 0, 51, 0
2, 121780, Note_on_c, 0, 77, 77
2, 121784, Note_on_c, 0, 84, 68
2, 121820, Note_on_c, 0, 78, 57
2, 121884, Note_on_c, 0, 77, 0
2, 121968, Note_on_c, 0, 78, 0
2, 121980, Note_on_c, 0, 54, 70
2, 121996, Note_on_c, 0, 79, 41
2, 122004, Note_on_c, 0, 55, 68
2, 122008, Note_on_c, 0, 84, 0
2, 122040, Note_on_c, 0, 79, 0
2, 122124, Note_on_c, 0, 54, 0
2, 122376, Note_on_c, 0, 43, 84
2, 122464, Note_on_c, 0, 43, 0
2, 122532, Note_on_c, 0, 55, 0
2, 122668, Control_c, 0, 64, 127
2, 122776, Note_on_c, 0, 59, 81
2, 122780, Note_on_c, 0, 63, 87
2, 122780, Note_on_c, 0, 53, 82
2, 122848, Control_c, 0, 64, 0
2, 123036, Control_c, 0, 64, 127
2, 123084, Note_on_c, 0, 59, 0
2, 123184, Note_on_c, 0, 59, 58
2, 123208, Control_c, 0, 64, 0
2, 123220, Note_on_c, 0, 63, 0
2, 123312, Note_on_c, 0, 84, 122
2, 123384, Note_on_c, 0, 53, 0
2, 123420, Note_on_c, 0, 59, 0
2, 123436, Note_on_c, 0, 84, 0
2, 123528, Note_on_c, 0, 59, 66
2, 123532, Note_on_c, 0, 63, 41
2, 123532, Note_on_c, 0, 53, 38
2, 123564, Note_on_c, 0, 84, 94
2, 123580, Note_on_c, 0, 63, 0
2, 123684, Note_on_c, 0, 84, 0
2, 123704, Note_on_c, 0, 53, 0
2, 123756, Note_on_c, 0, 84, 90
2, 123780, Note_on_c, 0, 59, 0
2, 123912, Note_on_c, 0, 63, 63
2, 123912, Note_on_c, 0, 59, 58
2, 123916, Note_on_c, 0, 84, 0
2, 123916, Note_on_c, 0, 53, 50
2, 123944, Note_on_c, 0, 56, 50
2, 123952, Note_on_c, 0, 63, 0
2, 124032, Note_on_c, 0, 59, 0
2, 124048, Note_on_c, 0, 82, 82
2, 124056, Note_on_c, 0, 53, 0
2, 124120, Note_on_c, 0, 56, 0
2, 124188, Note_on_c, 0, 82, 0
2, 124292, Note_on_c, 0, 82, 84
2, 124316, Note_on_c, 0, 51, 63
2, 124316, Note_on_c, 0, 62, 60
2, 124348, Note_on_c, 0, 57, 57
2, 124428, Note_on_c, 0, 82, 0
2, 124520, Note_on_c, 0, 57, 0
2, 124524, Note_on_c, 0, 82, 67
2, 124652, Note_on_c, 0, 57, 41
2, 124732, Note_on_c, 0, 62, 0
2, 124736, Note_on_c, 0, 82, 0
2, 124764, Note_on_c, 0, 51, 0
2, 124844, Note_on_c, 0, 79, 81
2, 124844, Note_on_c, 0, 78, 42
2, 124892, Note_on_c, 0, 57, 0
2, 124896, Note_on_c, 0, 78, 0
2, 124980, Note_on_c, 0, 79, 0
2, 125060, Note_on_c, 0, 51, 58
2, 125076, Note_on_c, 0, 79, 82
2, 125080, Note_on_c, 0, 62, 46
2, 125080, Note_on_c, 0, 57, 59
2, 125188, Note_on_c, 0, 62, 0
2, 125188, Note_on_c, 0, 51, 0
2, 125224, Note_on_c, 0, 79, 0
2, 125316, Note_on_c, 0, 57, 0
2, 125320, Note_on_c, 0, 79, 77
2, 125468, Note_on_c, 0, 51, 51
2, 125468, Note_on_c, 0, 62, 49
2, 125484, Note_on_c, 0, 79, 0
2, 125484, Note_on_c, 0, 57, 58
2, 125512, Note_on_c, 0, 51, 0
2, 125516, Note_on_c, 0, 62, 0
2, 125604, Note_on_c, 0, 77, 75
2, 125620, Note_on_c, 0, 57, 0
2, 125624, Control_c, 0, 64, 127
2, 125708, Control_c, 0, 64, 0
2, 125740, Note_on_c, 0, 77, 0
2, 125830, Note_on_c, 0, 51, 56
2, 125830, Note_on_c, 0, 62, 50
2, 125844, Note_on_c, 0, 77, 84
2, 125844, Note_on_c, 0, 57, 61
2, 125876, Note_on_c, 0, 51, 0
2, 125892, Note_on_c, 0, 62, 0
2, 125968, Note_on_c, 0, 77, 0
2, 126024, Note_on_c, 0, 57, 0
2, 126052, Note_on_c, 0, 77, 80
2, 126244, Note_on_c, 0, 77, 0
2, 126252, Note_on_c, 0, 57, 61
2, 126252, Note_on_c, 0, 62, 45
2, 126296, Note_on_c, 0, 62, 0
2, 126360, Note_on_c, 0, 57, 0
2, 126364, Note_on_c, 0, 75, 79
2, 126504, Note_on_c, 0, 75, 0
2, 126584, Note_on_c, 0, 62, 66
2, 126588, Note_on_c, 0, 57, 64
2, 126592, Note_on_c, 0, 75, 82
2, 126608, Note_on_c, 0, 51, 41
2, 126616, Note_on_c, 0, 62, 0
2, 126652, Note_on_c, 0, 51, 0
2, 126696, Note_on_c, 0, 75, 0
2, 126744, Note_on_c, 0, 57, 0
2, 126764, Note_on_c, 0, 75, 81
2, 126936, Note_on_c, 0, 75, 0
2, 126968, Note_on_c, 0, 72, 75
2, 126980, Note_on_c, 0, 57, 66
2, 126988, Note_on_c, 0, 62, 58
2, 127008, Note_on_c, 0, 51, 33
2, 127024, Note_on_c, 0, 62, 0
2, 127064, Note_on_c, 0, 51, 0
2, 127090, Note_on_c, 0, 57, 0
2, 127090, Note_on_c, 0, 72, 0
2, 127148, Note_on_c, 0, 67, 50
2, 127296, Note_on_c, 0, 67, 0
2, 127376, Note_on_c, 0, 62, 37
2, 127404, Note_on_c, 0, 56, 45
2, 127404, Note_on_c, 0, 60, 46
2, 127432, Note_on_c, 0, 62, 0
2, 127484, Note_on_c, 0, 60, 0
2, 127492, Note_on_c, 0, 70, 71
2, 127520, Note_on_c, 0, 56, 0
2, 127692, Note_on_c, 0, 70, 0
2, 127740, Note_on_c, 0, 60, 41
2, 127740, Note_on_c, 0, 67, 52
2, 127808, Note_on_c, 0, 67, 0
2, 127812, Note_on_c, 0, 60, 0
2, 127904, Note_on_c, 0, 68, 72
2, 128052, Note_on_c, 0, 68, 0
2, 128128, Note_on_c, 0, 62, 45
2, 128136, Note_on_c, 0, 67, 63
2, 128136, Note_on_c, 0, 60, 50
2, 128148, Note_on_c, 0, 56, 41
2, 128172, Note_on_c, 0, 62, 0
2, 128232, Note_on_c, 0, 60, 0
2, 128244, Note_on_c, 0, 67, 0
2, 128260, Note_on_c, 0, 56, 0
2, 128292, Note_on_c, 0, 65, 48
2, 128480, Note_on_c, 0, 65, 0
2, 128536, Note_on_c, 0, 64, 52
2, 128540, Note_on_c, 0, 60, 34
2, 128560, Note_on_c, 0, 56, 26
2, 128616, Note_on_c, 0, 60, 0
2, 128616, Note_on_c, 0, 64, 0
2, 128628, Note_on_c, 0, 56, 0
2, 128680, Note_on_c, 0, 67, 68
2, 128844, Note_on_c, 0, 67, 0
2, 128908, Note_on_c, 0, 64, 56
2, 128920, Note_on_c, 0, 60, 36
2, 128940, Note_on_c, 0, 56, 26
2, 129004, Note_on_c, 0, 60, 0
2, 129008, Note_on_c, 0, 64, 0
2, 129016, Note_on_c, 0, 56, 0
2, 129092, Note_on_c, 0, 65, 46
2, 129212, Note_on_c, 0, 65, 0
2, 129272, Note_on_c, 0, 66, 74
2, 129304, Note_on_c, 0, 60, 46
2, 129324, Note_on_c, 0, 56, 31
2, 129352, Note_on_c, 0, 60, 0
2, 129380, Note_on_c, 0, 56, 0
2, 129392, Note_on_c, 0, 66, 0
2, 129472, Note_on_c, 0, 68, 55
2, 129636, Note_on_c, 0, 68, 0
2, 129668, Note_on_c, 0, 60, 56
2, 129696, Note_on_c, 0, 56, 35
2, 129704, Note_on_c, 0, 68, 70
2, 129724, Note_on_c, 0, 60, 0
2, 129748, Note_on_c, 0, 56, 0
2, 129768, Note_on_c, 0, 68, 0
2, 129884, Note_on_c, 0, 71, 78
2, 129972, Note_on_c, 0, 71, 0
2, 130048, Note_on_c, 0, 72, 75
2, 130092, Note_on_c, 0, 60, 64
2, 130104, Note_on_c, 0, 56, 46
2, 130144, Note_on_c, 0, 56, 0
2, 130164, Note_on_c, 0, 60, 0
2, 130184, Note_on_c, 0, 72, 0
2, 130236, Note_on_c, 0, 73, 61
2, 130392, Note_on_c, 0, 73, 0
2, 130452, Note_on_c, 0, 74, 89
2, 130464, Note_on_c, 0, 65, 87
2, 130476, Note_on_c, 0, 56, 50
2, 130480, Note_on_c, 0, 60, 63
2, 130484, Note_on_c, 0, 55, 54
2, 130520, Note_on_c, 0, 55, 0
2, 130532, Note_on_c, 0, 56, 0
2, 130536, Note_on_c, 0, 65, 0
2, 130572, Note_on_c, 0, 74, 0
2, 130576, Note_on_c, 0, 60, 0
2, 130616, Note_on_c, 0, 75, 56
2, 130824, Note_on_c, 0, 76, 71
2, 130836, Note_on_c, 0, 75, 0
2, 130924, Note_on_c, 0, 76, 0
2, 130976, Note_on_c, 0, 65, 76
2, 130984, Note_on_c, 0, 56, 59
2, 130988, Note_on_c, 0, 79, 111
2, 130996, Note_on_c, 0, 60, 72
2, 131012, Note_on_c, 0, 55, 56
2, 131204, Note_on_c, 0, 79, 0
2, 131236, Note_on_c, 0, 77, 70
2, 131296, Note_on_c, 0, 65, 0
2, 131384, Note_on_c, 0, 55, 0
2, 131388, Note_on_c, 0, 72, 39
2, 131404, Note_on_c, 0, 60, 0
2, 131416, Note_on_c, 0, 77, 0
2, 131428, Note_on_c, 0, 56, 0
2, 131608, Note_on_c, 0, 65, 63
2, 131624, Note_on_c, 0, 72, 0
2, 131632, Note_on_c, 0, 68, 57
2, 131636, Note_on_c, 0, 56, 42
2, 131644, Note_on_c, 0, 60, 52
2, 131668, Note_on_c, 0, 55, 35
2, 131680, Note_on_c, 0, 65, 0
2, 131712, Note_on_c, 0, 60, 0
2, 131720, Note_on_c, 0, 55, 0
2, 131740, Note_on_c, 0, 68, 0
2, 131748, Control_c, 0, 64, 127
2, 131788, Note_on_c, 0, 56, 0
2, 131880, Control_c, 0, 64, 0
2, 131972, Note_on_c, 0, 63, 81
2, 131980, Note_on_c, 0, 59, 67
2, 131980, Note_on_c, 0, 67, 66
2, 131992, Note_on_c, 0, 53, 61
2, 132164, Note_on_c, 0, 67, 0
2, 132252, Note_on_c, 0, 59, 0
2, 132360, Note_on_c, 0, 59, 51
2, 132372, Note_on_c, 0, 63, 0
2, 132488, Note_on_c, 0, 82, 89
2, 132556, Note_on_c, 0, 53, 0
2, 132640, Note_on_c, 0, 59, 0
2, 132704, Note_on_c, 0, 82, 0
2, 132740, Note_on_c, 0, 80, 58
2, 132748, Note_on_c, 0, 59, 54
2, 132812, Note_on_c, 0, 80, 0
2, 132816, Note_on_c, 0, 56, 27
2, 132904, Note_on_c, 0, 82, 86
2, 132920, Note_on_c, 0, 56, 0
2, 132928, Note_on_c, 0, 59, 0
2, 133064, Note_on_c, 0, 82, 0
2, 133112, Note_on_c, 0, 63, 60
2, 133124, Note_on_c, 0, 59, 57
2, 133132, Note_on_c, 0, 80, 74
2, 133144, Note_on_c, 0, 56, 42
2, 133164, Note_on_c, 0, 63, 0
2, 133188, Note_on_c, 0, 59, 0
2, 133248, Control_c, 0, 64, 127
2, 133296, Note_on_c, 0, 75, 43
2, 133304, Note_on_c, 0, 80, 0
2, 133372, Note_on_c, 0, 56, 0
2, 133520, Note_on_c, 0, 71, 60
2, 133564, Control_c, 0, 64, 0
2, 133568, Note_on_c, 0, 71, 0
2, 133568, Note_on_c, 0, 75, 0
2, 133600, Note_on_c, 0, 62, 42
2, 133624, Note_on_c, 0, 57, 48
2, 133642, Note_on_c, 0, 51, 55
2, 133680, Note_on_c, 0, 79, 68
2, 133716, Note_on_c, 0, 74, 48
2, 133716, Note_on_c, 0, 67, 48
2, 133812, Note_on_c, 0, 74, 0
2, 133820, Note_on_c, 0, 67, 0
2, 133824, Note_on_c, 0, 62, 0
2, 133828, Note_on_c, 0, 51, 0
2, 133832, Note_on_c, 0, 79, 0
2, 133852, Note_on_c, 0, 57, 0
2, 133928, Note_on_c, 0, 67, 60
2, 133932, Note_on_c, 0, 51, 54
2, 133932, Note_on_c, 0, 79, 68
2, 133936, Note_on_c, 0, 62, 55
2, 133940, Note_on_c, 0, 74, 54
2, 133952, Note_on_c, 0, 57, 68
2, 134060, Note_on_c, 0, 62, 0
2, 134064, Note_on_c, 0, 79, 0
2, 134068, Note_on_c, 0, 67, 0
2, 134072, Note_on_c, 0, 74, 0
2, 134092, Note_on_c, 0, 57, 0
2, 134096, Note_on_c, 0, 51, 0
2, 134280, Note_on_c, 0, 79, 73
2, 134280, Note_on_c, 0, 51, 68
2, 134284, Note_on_c, 0, 62, 72
2, 134288, Note_on_c, 0, 74, 75
2, 134288, Note_on_c, 0, 67, 73
2, 134300, Note_on_c, 0, 57, 61
2, 134400, Control_c, 0, 64, 127
2, 134520, Note_on_c, 0, 67, 0
2, 134564, Note_on_c, 0, 74, 0
2, 134592, Note_on_c, 0, 79, 0
2, 134592, Note_on_c, 0, 57, 0
2, 134604, Note_on_c, 0, 62, 0
2, 134608, Note_on_c, 0, 51, 0
2, 134752, Control_c, 0, 64, 0
2, 134812, Note_on_c, 0, 83, 72
2, 134824, Note_on_c, 0, 71, 64
2, 134828, Note_on_c, 0, 57, 66
2, 134832, Note_on_c, 0, 51, 48
2, 134896, Control_c, 0, 64, 127
2, 134956, Control_c, 0, 64, 0
2, 134960, Note_on_c, 0, 71, 0
2, 134960, Note_on_c, 0, 83, 0
2, 134964, Note_on_c, 0, 51, 0
2, 134988, Note_on_c, 0, 57, 0
2, 135068, Note_on_c, 0, 83, 72
2, 135080, Note_on_c, 0, 71, 63
2, 135080, Note_on_c, 0, 51, 63
2, 135080, Note_on_c, 0, 62, 71
2, 135084, Note_on_c, 0, 57, 72
2, 135092, Note_on_c, 0, 76, 68
2, 135160, Control_c, 0, 64, 127
2, 135224, Note_on_c, 0, 71, 0
2, 135236, Note_on_c, 0, 76, 0
2, 135240, Note_on_c, 0, 62, 0
2, 135276, Note_on_c, 0, 51, 0
2, 135284, Note_on_c, 0, 83, 0
2, 135284, Note_on_c, 0, 57, 0
2, 135444, Note_on_c, 0, 62, 79
2, 135448, Note_on_c, 0, 51, 67
2, 135448, Note_on_c, 0, 86, 75
2, 135452, Note_on_c, 0, 74, 79
2, 135456, Note_on_c, 0, 57, 71
2, 135464, Note_on_c, 0, 82, 54
2, 135464, Note_on_c, 0, 79, 67
2, 135476, Control_c, 0, 64, 0
2, 135508, Note_on_c, 0, 79, 0
2, 135508, Note_on_c, 0, 82, 0
2, 135532, Note_on_c, 0, 62, 0
2, 135544, Note_on_c, 0, 74, 0
2, 135544, Note_on_c, 0, 51, 0
2, 135548, Note_on_c, 0, 86, 0
2, 135588, Note_on_c, 0, 57, 0
2, 135636, Note_on_c, 0, 62, 66
2, 135644, Note_on_c, 0, 51, 62
2, 135648, Note_on_c, 0, 86, 72
2, 135652, Control_c, 0, 64, 127
2, 135652, Note_on_c, 0, 57, 54
2, 135660, Note_on_c, 0, 74, 57
2, 135664, Note_on_c, 0, 79, 66
2, 135816, Note_on_c, 0, 74, 0
2, 135820, Note_on_c, 0, 79, 0
2, 135832, Note_on_c, 0, 86, 0
2, 135860, Note_on_c, 0, 62, 0
2, 135880, Note_on_c, 0, 51, 0
2, 135892, Note_on_c, 0, 57, 0
2, 135932, Control_c, 0, 64, 0
2, 135992, Note_on_c, 0, 51, 56
2, 135996, Note_on_c, 0, 62, 66
2, 136004, Note_on_c, 0, 57, 63
2, 136024, Note_on_c, 0, 87, 82
2, 136024, Note_on_c, 0, 75, 82
2, 136028, Control_c, 0, 64, 127
2, 136064, Note_on_c, 0, 85, 37
2, 136156, Note_on_c, 0, 62, 0
2, 136156, Control_c, 0, 64, 0
2, 136164, Note_on_c, 0, 87, 0
2, 136168, Note_on_c, 0, 75, 0
2, 136200, Note_on_c, 0, 85, 0
2, 136208, Note_on_c, 0, 57, 0
2, 136220, Note_on_c, 0, 51, 0
2, 136272, Note_on_c, 0, 51, 22
2, 136288, Note_on_c, 0, 62, 65
2, 136304, Note_on_c, 0, 75, 68
2, 136304, Note_on_c, 0, 87, 74
2, 136316, Note_on_c, 0, 57, 50
2, 136332, Control_c, 0, 64, 127
2, 136344, Note_on_c, 0, 75, 0
2, 136356, Note_on_c, 0, 57, 0
2, 136368, Note_on_c, 0, 51, 0
2, 136416, Note_on_c, 0, 87, 0
2, 136424, Note_on_c, 0, 62, 0
2, 136544, Control_c, 0, 64, 0
2, 136616, Note_on_c, 0, 89, 86
2, 136616, Note_on_c, 0, 54, 72
2, 136616, Note_on_c, 0, 65, 82
2, 136616, Note_on_c, 0, 82, 79
2, 136616, Note_on_c, 0, 61, 66
2, 136616, Note_on_c, 0, 77, 81
2, 136616, Note_on_c, 0, 58, 59
2, 136640, Note_on_c, 0, 85, 51
2, 136744, Note_on_c, 0, 82, 0
2, 136764, Note_on_c, 0, 85, 0
2, 136764, Control_c, 0, 64, 127
2, 136796, Note_on_c, 0, 77, 0
2, 136808, Note_on_c, 0, 54, 0
2, 136816, Note_on_c, 0, 89, 0
2, 136816, Note_on_c, 0, 65, 0
2, 136836, Note_on_c, 0, 61, 0
2, 136872, Note_on_c, 0, 58, 0
2, 136892, Note_on_c, 0, 89, 51
2, 136896, Note_on_c, 0, 77, 61
2, 136908, Note_on_c, 0, 65, 68
2, 136908, Note_on_c, 0, 54, 49
2, 136916, Note_on_c, 0, 82, 63
2, 136928, Note_on_c, 0, 61, 65
2, 136932, Note_on_c, 0, 85, 54
2, 136932, Note_on_c, 0, 58, 31
2, 137004, Note_on_c, 0, 54, 0
2, 137004, Note_on_c, 0, 77, 0
2, 137004, Note_on_c, 0, 89, 0
2, 137008, Note_on_c, 0, 65, 0
2, 137044, Note_on_c, 0, 82, 0
2, 137064, Note_on_c, 0, 85, 0
2, 137072, Note_on_c, 0, 61, 0
2, 137080, Note_on_c, 0, 58, 0
2, 137168, Note_on_c, 0, 61, 52
2, 137168, Note_on_c, 0, 65, 66
2, 137176, Note_on_c, 0, 90, 75
2, 137176, Note_on_c, 0, 58, 56
2, 137176, Note_on_c, 0, 54, 49
2, 137188, Note_on_c, 0, 78, 63
2, 137220, Note_on_c, 0, 82, 45
2, 137244, Note_on_c, 0, 54, 0
2, 137264, Note_on_c, 0, 82, 0
2, 137268, Note_on_c, 0, 65, 0
2, 137292, Note_on_c, 0, 78, 0
2, 137300, Note_on_c, 0, 90, 0
2, 137308, Note_on_c, 0, 58, 0
2, 137308, Note_on_c, 0, 61, 0
2, 137328, Control_c, 0, 64, 0
2, 137404, Note_on_c, 0, 90, 68
2, 137424, Note_on_c, 0, 78, 63
2, 137428, Note_on_c, 0, 61, 58
2, 137436, Note_on_c, 0, 58, 55
2, 137436, Note_on_c, 0, 65, 70
2, 137436, Note_on_c, 0, 54, 57
2, 137436, Note_on_c, 0, 82, 53
2, 137456, Note_on_c, 0, 85, 49
2, 137560, Note_on_c, 0, 82, 0
2, 137564, Control_c, 0, 64, 127
2, 137580, Note_on_c, 0, 65, 0
2, 137600, Note_on_c, 0, 85, 0
2, 137604, Note_on_c, 0, 78, 0
2, 137608, Note_on_c, 0, 54, 0
2, 137620, Note_on_c, 0, 58, 0
2, 137640, Note_on_c, 0, 61, 0
2, 137660, Note_on_c, 0, 90, 0
2, 137692, Control_c, 0, 64, 0
2, 137740, Note_on_c, 0, 91, 82
2, 137748, Note_on_c, 0, 79, 70
2, 137748, Note_on_c, 0, 61, 63
2, 137748, Note_on_c, 0, 65, 76
2, 137760, Note_on_c, 0, 54, 64
2, 137760, Note_on_c, 0, 58, 63
2, 137760, Note_on_c, 0, 87, 56
2, 137824, Note_on_c, 0, 87, 0
2, 137832, Note_on_c, 0, 65, 0
2, 137852, Note_on_c, 0, 79, 0
2, 137860, Control_c, 0, 64, 127
2, 137868, Note_on_c, 0, 54, 0
2, 137880, Note_on_c, 0, 91, 0
2, 137896, Note_on_c, 0, 58, 0
2, 137896, Note_on_c, 0, 61, 0
2, 137924, Note_on_c, 0, 91, 40
2, 137932, Note_on_c, 0, 54, 45
2, 137936, Note_on_c, 0, 79, 68
2, 137944, Note_on_c, 0, 65, 59
2, 137952, Note_on_c, 0, 61, 50
2, 137964, Note_on_c, 0, 58, 48
2, 137964, Note_on_c, 0, 87, 45
2, 138096, Note_on_c, 0, 91, 0
2, 138116, Note_on_c, 0, 79, 0
2, 138128, Note_on_c, 0, 65, 0
2, 138132, Note_on_c, 0, 54, 0
2, 138152, Note_on_c, 0, 87, 0
2, 138168, Control_c, 0, 64, 24
2, 138172, Control_c, 0, 64, 0
2, 138212, Note_on_c, 0, 61, 0
2, 138268, Note_on_c, 0, 92, 64
2, 138268, Note_on_c, 0, 54, 57
2, 138272, Note_on_c, 0, 64, 65
2, 138280, Note_on_c, 0, 87, 46
2, 138284, Note_on_c, 0, 80, 53
2, 138292, Note_on_c, 0, 60, 58
2, 138312, Note_on_c, 0, 84, 50
2, 138392, Note_on_c, 0, 80, 0
2, 138404, Note_on_c, 0, 84, 0
2, 138404, Note_on_c, 0, 64, 0
2, 138420, Note_on_c, 0, 92, 0
2, 138436, Note_on_c, 0, 87, 0
2, 138436, Note_on_c, 0, 60, 0
2, 138440, Note_on_c, 0, 54, 0
2, 138476, Note_on_c, 0, 58, 0
2, 138540, Note_on_c, 0, 92, 60
2, 138548, Note_on_c, 0, 54, 55
2, 138552, Note_on_c, 0, 64, 58
2, 138560, Note_on_c, 0, 80, 54
2, 138564, Note_on_c, 0, 60, 54
2, 138582, Note_on_c, 0, 58, 49
2, 138604, Control_c, 0, 64, 127
2, 138616, Note_on_c, 0, 87, 32
2, 138644, Note_on_c, 0, 84, 22
2, 138660, Note_on_c, 0, 64, 0
2, 138688, Note_on_c, 0, 54, 0
2, 138692, Note_on_c, 0, 84, 0
2, 138692, Note_on_c, 0, 60, 0
2, 138700, Note_on_c, 0, 58, 0
2, 138704, Note_on_c, 0, 92, 0
2, 138704, Note_on_c, 0, 80, 0
2, 138724, Note_on_c, 0, 87, 0
2, 138840, Control_c, 0, 64, 0
2, 138872, Note_on_c, 0, 64, 58
2, 138880, Note_on_c, 0, 91, 57
2, 138884, Note_on_c, 0, 54, 47
2, 138888, Note_on_c, 0, 87, 40
2, 138888, Note_on_c, 0, 60, 57
2, 138892, Note_on_c, 0, 58, 48
2, 138896, Note_on_c, 0, 79, 39
2, 138912, Note_on_c, 0, 84, 47
2, 138984, Note_on_c, 0, 64, 0
2, 138996, Note_on_c, 0, 91, 0
2, 139004, Note_on_c, 0, 79, 0
2, 139012, Note_on_c, 0, 54, 0
2, 139020, Control_c, 0, 64, 127
2, 139024, Note_on_c, 0, 60, 0
2, 139024, Note_on_c, 0, 84, 0
2, 139032, Note_on_c, 0, 87, 0
2, 139048, Note_on_c, 0, 58, 0
2, 139108, Note_on_c, 0, 91, 64
2, 139112, Note_on_c, 0, 64, 49
2, 139116, Note_on_c, 0, 54, 44
2, 139136, Note_on_c, 0, 60, 56
2, 139136, Note_on_c, 0, 58, 41
2, 139144, Note_on_c, 0, 87, 46
2, 139152, Note_on_c, 0, 79, 33
2, 139152, Note_on_c, 0, 84, 54
2, 139224, Note_on_c, 0, 79, 0
2, 139228, Note_on_c, 0, 91, 0
2, 139264, Note_on_c, 0, 64, 0
2, 139292, Note_on_c, 0, 84, 0
2, 139292, Note_on_c, 0, 54, 0
2, 139316, Note_on_c, 0, 87, 0
2, 139328, Control_c, 0, 64, 0
2, 139336, Note_on_c, 0, 60, 0
2, 139340, Note_on_c, 0, 58, 0
2, 139408, Control_c, 0, 64, 127
2, 139436, Note_on_c, 0, 92, 54
2, 139444, Note_on_c, 0, 54, 42
2, 139448, Note_on_c, 0, 64, 48
2, 139448, Note_on_c, 0, 80, 43
2, 139464, Note_on_c, 0, 60, 52
2, 139472, Note_on_c, 0, 84, 40
2, 139480, Note_on_c, 0, 87, 26
2, 139492, Note_on_c, 0, 64, 0
2, 139492, Note_on_c, 0, 58, 34
2, 139548, Note_on_c, 0, 80, 0
2, 139548, Note_on_c, 0, 84, 0
2, 139552, Note_on_c, 0, 58, 0
2, 139556, Note_on_c, 0, 92, 0
2, 139560, Note_on_c, 0, 87, 0
2, 139576, Note_on_c, 0, 54, 0
2, 139584, Note_on_c, 0, 60, 0
2, 139624, Control_c, 0, 64, 0
2, 139696, Note_on_c, 0, 92, 57
2, 139704, Note_on_c, 0, 60, 63
2, 139708, Note_on_c, 0, 80, 46
2, 139716, Note_on_c, 0, 63, 58
2, 139732, Note_on_c, 0, 87, 35
2, 139736, Note_on_c, 0, 84, 35
2, 139736, Note_on_c, 0, 56, 42
2, 139788, Note_on_c, 0, 84, 0
2, 139808, Control_c, 0, 64, 127
2, 139832, Note_on_c, 0, 63, 0
2, 139848, Note_on_c, 0, 87, 0
2, 139864, Note_on_c, 0, 80, 0
2, 139880, Note_on_c, 0, 56, 0
2, 139916, Note_on_c, 0, 60, 0
2, 139944, Note_on_c, 0, 92, 0
2, 140040, Note_on_c, 0, 93, 76
2, 140052, Note_on_c, 0, 63, 64
2, 140056, Note_on_c, 0, 60, 54
2, 140056, Note_on_c, 0, 81, 68
2, 140076, Note_on_c, 0, 56, 52
2, 140076, Note_on_c, 0, 53, 45
2, 140084, Note_on_c, 0, 90, 36
2, 140144, Note_on_c, 0, 53, 0
2, 140144, Note_on_c, 0, 63, 0
2, 140180, Note_on_c, 0, 81, 0
2, 140188, Note_on_c, 0, 93, 0
2, 140192, Note_on_c, 0, 90, 0
2, 140196, Note_on_c, 0, 56, 0
2, 140204, Note_on_c, 0, 60, 0
2, 140252, Note_on_c, 0, 93, 58
2, 140252, Note_on_c, 0, 63, 58
2, 140268, Note_on_c, 0, 87, 48
2, 140268, Note_on_c, 0, 60, 42
2, 140276, Note_on_c, 0, 81, 52
2, 140292, Note_on_c, 0, 56, 49
2, 140292, Note_on_c, 0, 53, 36
2, 140432, Note_on_c, 0, 93, 0
2, 140440, Note_on_c, 0, 63, 0
2, 140444, Note_on_c, 0, 81, 0
2, 140452, Note_on_c, 0, 53, 0
2, 140488, Note_on_c, 0, 56, 0
2, 140500, Note_on_c, 0, 60, 0
2, 140508, Note_on_c, 0, 87, 0
2, 140600, Note_on_c, 0, 63, 64
2, 140600, Note_on_c, 0, 94, 66
2, 140620, Note_on_c, 0, 60, 50
2, 140620, Note_on_c, 0, 87, 46
2, 140628, Note_on_c, 0, 82, 48
2, 140628, Note_on_c, 0, 56, 42
2, 140640, Note_on_c, 0, 53, 39
2, 140696, Note_on_c, 0, 53, 0
2, 140712, Note_on_c, 0, 63, 0
2, 140744, Note_on_c, 0, 82, 0
2, 140756, Note_on_c, 0, 94, 0
2, 140764, Note_on_c, 0, 87, 0
2, 140776, Note_on_c, 0, 60, 0
2, 140788, Note_on_c, 0, 56, 0
2, 140796, Control_c, 0, 64, 0
2, 140872, Note_on_c, 0, 94, 60
2, 140884, Note_on_c, 0, 63, 68
2, 140892, Note_on_c, 0, 82, 56
2, 140892, Note_on_c, 0, 60, 52
2, 140892, Note_on_c, 0, 87, 47
2, 140892, Note_on_c, 0, 56, 44
2, 140944, Note_on_c, 0, 53, 30
2, 140948, Control_c, 0, 64, 127
2, 140952, Note_on_c, 0, 87, 0
2, 140968, Note_on_c, 0, 60, 0
2, 140980, Note_on_c, 0, 63, 0
2, 140996, Note_on_c, 0, 53, 0
2, 141004, Note_on_c, 0, 82, 0
2, 141032, Note_on_c, 0, 94, 0
2, 141036, Note_on_c, 0, 56, 0
2, 141140, Control_c, 0, 64, 0
2, 141188, Note_on_c, 0, 95, 72
2, 141188, Note_on_c, 0, 87, 68
2, 141204, Note_on_c, 0, 83, 72
2, 141204, Note_on_c, 0, 63, 77
2, 141212, Note_on_c, 0, 60, 68
2, 141216, Note_on_c, 0, 56, 56
2, 141228, Note_on_c, 0, 53, 56
2, 141252, Note_on_c, 0, 92, 33
2, 141316, Control_c, 0, 64, 127
2, 141320, Note_on_c, 0, 53, 0
2, 141324, Note_on_c, 0, 63, 0
2, 141340, Note_on_c, 0, 92, 0
2, 141340, Note_on_c, 0, 83, 0
2, 141340, Note_on_c, 0, 95, 0
2, 141380, Note_on_c, 0, 56, 0
2, 141380, Note_on_c, 0, 60, 0
2, 141384, Note_on_c, 0, 87, 0
2, 141436, Note_on_c, 0, 95, 64
2, 141440, Note_on_c, 0, 63, 58
2, 141456, Note_on_c, 0, 87, 55
2, 141460, Note_on_c, 0, 83, 46
2, 141464, Note_on_c, 0, 60, 52
2, 141488, Note_on_c, 0, 56, 55
2, 141496, Note_on_c, 0, 53, 26
2, 141560, Note_on_c, 0, 83, 0
2, 141568, Note_on_c, 0, 53, 0
2, 141572, Note_on_c, 0, 87, 0
2, 141584, Note_on_c, 0, 63, 0
2, 141612, Note_on_c, 0, 95, 0
2, 141640, Note_on_c, 0, 60, 0
2, 141644, Note_on_c, 0, 56, 0
2, 141740, Note_on_c, 0, 96, 78
2, 141748, Note_on_c, 0, 63, 68
2, 141748, Note_on_c, 0, 90, 61
2, 141748, Note_on_c, 0, 60, 61
2, 141748, Note_on_c, 0, 84, 66
2, 141748, Note_on_c, 0, 56, 49
2, 141748, Note_on_c, 0, 53, 57
2, 141844, Note_on_c, 0, 63, 0
2, 141864, Note_on_c, 0, 90, 0
2, 141872, Note_on_c, 0, 53, 0
2, 141876, Note_on_c, 0, 84, 0
2, 141888, Control_c, 0, 64, 0
2, 141904, Note_on_c, 0, 96, 0
2, 141908, Note_on_c, 0, 60, 0
2, 141916, Note_on_c, 0, 56, 0
2, 141992, Note_on_c, 0, 96, 74
2, 142012, Note_on_c, 0, 84, 66
2, 142012, Note_on_c, 0, 60, 65
2, 142012, Note_on_c, 0, 90, 61
2, 142012, Note_on_c, 0, 63, 62
2, 142012, Note_on_c, 0, 56, 54
2, 142012, Note_on_c, 0, 53, 51
2, 142040, Control_c, 0, 64, 127
2, 142072, Note_on_c, 0, 63, 0
2, 142104, Note_on_c, 0, 84, 0
2, 142124, Note_on_c, 0, 90, 0
2, 142140, Note_on_c, 0, 53, 0
2, 142148, Note_on_c, 0, 96, 0
2, 142156, Note_on_c, 0, 60, 0
2, 142172, Note_on_c, 0, 56, 0
2, 142288, Control_c, 0, 64, 0
2, 142324, Note_on_c, 0, 98, 80
2, 142340, Note_on_c, 0, 97, 64
2, 142340, Note_on_c, 0, 86, 60
2, 142340, Note_on_c, 0, 92, 50
2, 142352, Note_on_c, 0, 60, 68
2, 142360, Note_on_c, 0, 63, 67
2, 142372, Note_on_c, 0, 53, 55
2, 142376, Note_on_c, 0, 56, 46
2, 142380, Note_on_c, 0, 86, 0
2, 142380, Note_on_c, 0, 98, 0
2, 142388, Note_on_c, 0, 92, 0
2, 142408, Note_on_c, 0, 53, 0
2, 142432, Note_on_c, 0, 97, 0
2, 142444, Control_c, 0, 64, 127
2, 142500, Note_on_c, 0, 87, 78
2, 142500, Note_on_c, 0, 99, 80
2, 142516, Note_on_c, 0, 60, 0
2, 142540, Note_on_c, 0, 63, 0
2, 142572, Note_on_c, 0, 56, 0
2, 142692, Note_on_c, 0, 87, 0
2, 142724, Note_on_c, 0, 99, 0
2, 142808, Control_c, 0, 64, 0
2, 142880, Note_on_c, 0, 101, 99
2, 142884, Note_on_c, 0, 60, 75
2, 142884, Note_on_c, 0, 89, 92
2, 142892, Note_on_c, 0, 50, 66
2, 142892, Note_on_c, 0, 56, 72
2, 143136, Note_on_c, 0, 101, 0
2, 143160, Note_on_c, 0, 89, 0
2, 143272, Note_on_c, 0, 99, 81
2, 143332, Note_on_c, 0, 60, 0
2, 143364, Note_on_c, 0, 50, 0
2, 143376, Note_on_c, 0, 56, 0
2, 143500, Note_on_c, 0, 99, 0
2, 143500, Note_on_c, 0, 96, 72
2, 143520, Note_on_c, 0, 56, 52
2, 143520, Note_on_c, 0, 60, 53
2, 143528, Note_on_c, 0, 50, 48
2, 143612, Note_on_c, 0, 60, 0
2, 143640, Note_on_c, 0, 96, 0
2, 143692, Note_on_c, 0, 92, 63
2, 143696, Note_on_c, 0, 50, 0
2, 143704, Note_on_c, 0, 56, 0
2, 143864, Note_on_c, 0, 92, 0
2, 143920, Note_on_c, 0, 56, 66
2, 143932, Note_on_c, 0, 50, 49
2, 143940, Note_on_c, 0, 60, 49
2, 143948, Note_on_c, 0, 91, 76
2, 143968, Note_on_c, 0, 50, 0
2, 144016, Note_on_c, 0, 56, 0
2, 144016, Note_on_c, 0, 60, 0
2, 144084, Note_on_c, 0, 91, 0
2, 144284, Note_on_c, 0, 94, 102
2, 144296, Note_on_c, 0, 63, 86
2, 144304, Note_on_c, 0, 53, 73
2, 144316, Note_on_c, 0, 59, 68
2, 144316, Note_on_c, 0, 58, 59
2, 144684, Note_on_c, 0, 63, 0
2, 144700, Note_on_c, 0, 94, 0
2, 144796, Note_on_c, 0, 92, 83
2, 144864, Note_on_c, 0, 53, 0
2, 144912, Note_on_c, 0, 58, 0
2, 144932, Note_on_c, 0, 59, 0
2, 144964, Note_on_c, 0, 92, 0
2, 145044, Note_on_c, 0, 87, 82
2, 145044, Note_on_c, 0, 59, 57
2, 145052, Note_on_c, 0, 63, 69
2, 145072, Note_on_c, 0, 58, 45
2, 145088, Note_on_c, 0, 63, 0
2, 145176, Note_on_c, 0, 87, 0
2, 145224, Note_on_c, 0, 83, 48
2, 145232, Note_on_c, 0, 59, 0
2, 145232, Note_on_c, 0, 58, 0
2, 145384, Note_on_c, 0, 83, 0
2, 145424, Note_on_c, 0, 63, 71
2, 145432, Note_on_c, 0, 59, 55
2, 145448, Note_on_c, 0, 58, 42
2, 145464, Note_on_c, 0, 63, 0
2, 145468, Note_on_c, 0, 82, 57
2, 145480, Note_on_c, 0, 59, 0
2, 145500, Note_on_c, 0, 58, 0
2, 145580, Note_on_c, 0, 82, 0
2, 145792, Note_on_c, 0, 80, 88
2, 145812, Note_on_c, 0, 62, 73
2, 145816, Note_on_c, 0, 51, 61
2, 145832, Note_on_c, 0, 57, 63
2, 145904, Note_on_c, 0, 80, 0
2, 146040, Note_on_c, 0, 57, 0
2, 146132, Note_on_c, 0, 84, 80
2, 146140, Note_on_c, 0, 78, 88
2, 146144, Note_on_c, 0, 57, 50
2, 146312, Note_on_c, 0, 84, 0
2, 146336, Note_on_c, 0, 62, 0
2, 146344, Note_on_c, 0, 78, 0
2, 146440, Note_on_c, 0, 57, 0
2, 146492, Note_on_c, 0, 78, 89
2, 146496, Note_on_c, 0, 84, 70
2, 146540, Note_on_c, 0, 82, 42
2, 146592, Note_on_c, 0, 82, 0
2, 146644, Note_on_c, 0, 62, 48
2, 146660, Note_on_c, 0, 57, 57
2, 146676, Note_on_c, 0, 79, 68
2, 146688, Note_on_c, 0, 62, 0
2, 146688, Note_on_c, 0, 78, 0
2, 146716, Note_on_c, 0, 84, 0
2, 146744, Note_on_c, 0, 57, 0
2, 146796, Note_on_c, 0, 79, 0
2, 146808, Note_on_c, 0, 51, 0
2, 146832, Note_on_c, 0, 72, 71
2, 146944, Note_on_c, 0, 72, 0
2, 147036, Note_on_c, 0, 55, 81
2, 147036, Note_on_c, 0, 54, 71
2, 147176, Note_on_c, 0, 54, 0
2, 147380, Note_on_c, 0, 43, 78
2, 147404, Control_c, 0, 64, 127
2, 147568, Note_on_c, 0, 43, 0
2, 147716, Note_on_c, 0, 55, 0
2, 147752, Note_on_c, 0, 55, 36
2, 147760, Note_on_c, 0, 43, 87
2, 147832, Note_on_c, 0, 43, 0
2, 147880, Note_on_c, 0, 55, 0
2, 148080, Control_c, 0, 64, 0
2, 148132, Note_on_c, 0, 63, 88
2, 148132, Note_on_c, 0, 59, 81
2, 148136, Note_on_c, 0, 53, 75
2, 148152, Note_on_c, 0, 56, 51
2, 148572, Note_on_c, 0, 59, 0
2, 148696, Note_on_c, 0, 53, 0
2, 148792, Note_on_c, 0, 63, 0
2, 148832, Note_on_c, 0, 56, 0
2, 148920, Note_on_c, 0, 62, 80
2, 148932, Note_on_c, 0, 57, 67
2, 148936, Note_on_c, 0, 55, 66
2, 148940, Note_on_c, 0, 51, 56
2, 149188, Note_on_c, 0, 57, 0
2, 149304, Note_on_c, 0, 57, 51
2, 149328, Note_on_c, 0, 74, 51
2, 149400, Note_on_c, 0, 62, 0
2, 149424, Note_on_c, 0, 74, 0
2, 149476, Note_on_c, 0, 77, 88
2, 149504, Note_on_c, 0, 57, 0
2, 149688, Note_on_c, 0, 77, 0
2, 149688, Note_on_c, 0, 57, 56
2, 149696, Note_on_c, 0, 74, 65
2, 149768, Note_on_c, 0, 51, 0
2, 149840, Note_on_c, 0, 74, 0
2, 149848, Note_on_c, 0, 57, 0
2, 149876, Note_on_c, 0, 75, 56
2, 149932, Note_on_c, 0, 55, 0
2, 150052, Note_on_c, 0, 75, 0
2, 150080, Note_on_c, 0, 76, 79
2, 150100, Note_on_c, 0, 57, 58
2, 150136, Note_on_c, 0, 55, 27
2, 150176, Note_on_c, 0, 57, 0
2, 150196, Note_on_c, 0, 55, 0
2, 150204, Note_on_c, 0, 76, 0
2, 150252, Note_on_c, 0, 78, 66
2, 150444, Note_on_c, 0, 80, 72
2, 150468, Note_on_c, 0, 78, 0
2, 150544, Note_on_c, 0, 80, 0
2, 150632, Note_on_c, 0, 83, 66
2, 150768, Note_on_c, 0, 83, 0
2, 150800, Note_on_c, 0, 85, 84
2, 150844, Note_on_c, 0, 59, 68
2, 150844, Note_on_c, 0, 63, 75
2, 150844, Note_on_c, 0, 53, 58
2, 150944, Note_on_c, 0, 85, 0
2, 150976, Note_on_c, 0, 88, 72
2, 151100, Note_on_c, 0, 56, 1
2, 151148, Note_on_c, 0, 88, 0
2, 151188, Note_on_c, 0, 86, 53
2, 151216, Note_on_c, 0, 53, 0
2, 151228, Note_on_c, 0, 86, 0
2, 151228, Note_on_c, 0, 63, 0
2, 151248, Note_on_c, 0, 64, 45
2, 151268, Note_on_c, 0, 62, 32
2, 151284, Note_on_c, 0, 56, 0
2, 151324, Note_on_c, 0, 62, 0
2, 151344, Note_on_c, 0, 86, 44
2, 151348, Note_on_c, 0, 64, 0
2, 151388, Note_on_c, 0, 86, 0
2, 151400, Note_on_c, 0, 59, 0
2, 151552, Note_on_c, 0, 64, 85
2, 151556, Note_on_c, 0, 54, 77
2, 151556, Note_on_c, 0, 59, 77
2, 151576, Note_on_c, 0, 87, 82
2, 151724, Note_on_c, 0, 87, 0
2, 151744, Note_on_c, 0, 88, 68
2, 151824, Note_on_c, 0, 59, 0
2, 151848, Note_on_c, 0, 64, 0
2, 151864, Note_on_c, 0, 88, 0
2, 151936, Note_on_c, 0, 89, 92
2, 151940, Note_on_c, 0, 61, 83
2, 151968, Note_on_c, 0, 64, 67
2, 151972, Note_on_c, 0, 62, 66
2, 151980, Note_on_c, 0, 53, 70
2, 151984, Note_on_c, 0, 56, 56
2, 152000, Note_on_c, 0, 61, 0
2, 152000, Note_on_c, 0, 54, 0
2, 152008, Note_on_c, 0, 60, 80
2, 152080, Note_on_c, 0, 89, 0
2, 152104, Note_on_c, 0, 64, 0
2, 152132, Note_on_c, 0, 90, 83
2, 152264, Note_on_c, 0, 90, 0
2, 152324, Note_on_c, 0, 91, 85
2, 152380, Note_on_c, 0, 62, 0
2, 152420, Note_on_c, 0, 91, 0
2, 152476, Note_on_c, 0, 92, 85
2, 152488, Note_on_c, 0, 90, 41
2, 152508, Note_on_c, 0, 56, 0
2, 152512, Note_on_c, 0, 53, 0
2, 152524, Note_on_c, 0, 60, 0
2, 152536, Note_on_c, 0, 90, 0
2, 152692, Note_on_c, 0, 89, 82
2, 152712, Note_on_c, 0, 60, 57
2, 152736, Note_on_c, 0, 56, 41
2, 152744, Note_on_c, 0, 92, 0
2, 152784, Note_on_c, 0, 56, 0
2, 152808, Note_on_c, 0, 89, 0
2, 152844, Note_on_c, 0, 60, 0
2, 152864, Note_on_c, 0, 84, 60
2, 153000, Note_on_c, 0, 84, 0
2, 153080, Note_on_c, 0, 80, 74
2, 153096, Note_on_c, 0, 60, 48
2, 153204, Note_on_c, 0, 80, 0
2, 153240, Note_on_c, 0, 60, 0
2, 153296, Note_on_c, 0, 79, 25
2, 153468, Note_on_c, 0, 79, 0
2, 153480, Note_on_c, 0, 60, 48
2, 153600, Note_on_c, 0, 60, 0
2, 153628, Note_on_c, 0, 82, 74
2, 153776, Note_on_c, 0, 82, 0
2, 153836, Note_on_c, 0, 60, 51
2, 153860, Note_on_c, 0, 62, 32
2, 153864, Note_on_c, 0, 56, 34
2, 153888, Note_on_c, 0, 79, 65
2, 153916, Note_on_c, 0, 62, 0
2, 153960, Note_on_c, 0, 60, 0
2, 153960, Note_on_c, 0, 56, 0
2, 153980, Note_on_c, 0, 79, 0
2, 154016, Note_on_c, 0, 80, 50
2, 154168, Note_on_c, 0, 80, 0
2, 154236, Note_on_c, 0, 82, 81
2, 154268, Note_on_c, 0, 56, 52
2, 154268, Note_on_c, 0, 62, 56
2, 154268, Note_on_c, 0, 60, 54
2, 154312, Note_on_c, 0, 62, 0
2, 154320, Note_on_c, 0, 60, 0
2, 154368, Note_on_c, 0, 82, 0
2, 154380, Note_on_c, 0, 80, 31
2, 154388, Note_on_c, 0, 56, 0
2, 154472, Note_on_c, 0, 80, 0
2, 154600, Note_on_c, 0, 79, 86
2, 154624, Note_on_c, 0, 56, 49
2, 154644, Note_on_c, 0, 62, 36
2, 154696, Note_on_c, 0, 56, 0
2, 154704, Note_on_c, 0, 62, 0
2, 154704, Note_on_c, 0, 79, 0
2, 154768, Note_on_c, 0, 77, 72
2, 154832, Note_on_c, 0, 77, 0
2, 154972, Note_on_c, 0, 75, 81
2, 155008, Note_on_c, 0, 56, 55
2, 155016, Note_on_c, 0, 60, 58
2, 155024, Note_on_c, 0, 62, 45
2, 155056, Note_on_c, 0, 60, 0
2, 155056, Note_on_c, 0, 75, 0
2, 155072, Note_on_c, 0, 62, 0
2, 155096, Note_on_c, 0, 56, 0
2, 155120, Note_on_c, 0, 74, 68
2, 155204, Note_on_c, 0, 74, 0
2, 155512, Note_on_c, 0, 68, 72
2, 155528, Note_on_c, 0, 67, 71
2, 155538, Note_on_c, 0, 77, 50
2, 155538, Note_on_c, 0, 72, 57
2, 155564, Note_on_c, 0, 74, 50
2, 155672, Note_on_c, 0, 68, 0
2, 155684, Note_on_c, 0, 72, 0
2, 155684, Note_on_c, 0, 74, 0
2, 155688, Note_on_c, 0, 67, 0
2, 155696, Note_on_c, 0, 77, 0
2, 155912, Note_on_c, 0, 68, 69
2, 155924, Note_on_c, 0, 77, 57
2, 155924, Note_on_c, 0, 67, 65
2, 155940, Note_on_c, 0, 72, 56
2, 155972, Note_on_c, 0, 74, 39
2, 156076, Note_on_c, 0, 74, 0
2, 156084, Note_on_c, 0, 68, 0
2, 156100, Note_on_c, 0, 72, 0
2, 156136, Note_on_c, 0, 77, 0
2, 156168, Note_on_c, 0, 67, 0
2, 156312, Note_on_c, 0, 65, 62
2, 156536, Note_on_c, 0, 65, 0
2, 156572, Note_on_c, 0, 68, 67
2, 156572, Note_on_c, 0, 77, 65
2, 156576, Note_on_c, 0, 74, 57
2, 156588, Note_on_c, 0, 67, 68
2, 156596, Note_on_c, 0, 72, 56
2, 156640, Note_on_c, 0, 72, 0
2, 156684, Note_on_c, 0, 68, 0
2, 156700, Note_on_c, 0, 67, 0
2, 156708, Note_on_c, 0, 74, 0
2, 156732, Note_on_c, 0, 77, 0
2, 156808, Note_on_c, 0, 67, 57
2, 156808, Note_on_c, 0, 68, 62
2, 156824, Note_on_c, 0, 77, 61
2, 156836, Note_on_c, 0, 72, 60
2, 156968, Note_on_c, 0, 68, 0
2, 156984, Note_on_c, 0, 72, 0
2, 156988, Note_on_c, 0, 67, 0
2, 157000, Note_on_c, 0, 77, 0
2, 157120, Note_on_c, 0, 55, 62
2, 157136, Control_c, 0, 64, 127
2, 157216, Note_on_c, 0, 55, 0
2, 157232, Control_c, 0, 64, 0
2, 157360, Note_on_c, 0, 77, 79
2, 157372, Note_on_c, 0, 68, 71
2, 157376, Note_on_c, 0, 67, 69
2, 157384, Note_on_c, 0, 71, 61
2, 157408, Note_on_c, 0, 74, 48
2, 157476, Note_on_c, 0, 74, 0
2, 157492, Note_on_c, 0, 68, 0
2, 157504, Note_on_c, 0, 77, 0
2, 157512, Note_on_c, 0, 67, 0
2, 157520, Note_on_c, 0, 71, 0
2, 157616, Note_on_c, 0, 77, 57
2, 157620, Note_on_c, 0, 68, 58
2, 157624, Note_on_c, 0, 71, 57
2, 157628, Note_on_c, 0, 67, 56
2, 157668, Note_on_c, 0, 74, 39
2, 157744, Note_on_c, 0, 74, 0
2, 157748, Note_on_c, 0, 77, 0
2, 157776, Note_on_c, 0, 68, 0
2, 157788, Note_on_c, 0, 67, 0
2, 157800, Note_on_c, 0, 71, 0
2, 157896, Note_on_c, 0, 55, 57
2, 157948, Note_on_c, 0, 55, 0
2, 158112, Note_on_c, 0, 77, 78
2, 158120, Note_on_c, 0, 70, 75
2, 158120, Note_on_c, 0, 67, 78
2, 158120, Note_on_c, 0, 65, 75
2, 158128, Note_on_c, 0, 74, 68
2, 158240, Note_on_c, 0, 77, 0
2, 158244, Note_on_c, 0, 65, 0
2, 158252, Note_on_c, 0, 67, 0
2, 158280, Note_on_c, 0, 70, 0
2, 158292, Note_on_c, 0, 74, 0
2, 158340, Note_on_c, 0, 77, 70
2, 158348, Note_on_c, 0, 67, 58
2, 158348, Note_on_c, 0, 65, 59
2, 158348, Note_on_c, 0, 70, 66
2, 158368, Note_on_c, 0, 74, 54
2, 158496, Note_on_c, 0, 77, 0
2, 158512, Note_on_c, 0, 67, 0
2, 158520, Note_on_c, 0, 74, 0
2, 158560, Note_on_c, 0, 65, 0
2, 158592, Note_on_c, 0, 70, 0
2, 158632, Note_on_c, 0, 70, 39
2, 158632, Note_on_c, 0, 63, 57
2, 158648, Note_on_c, 0, 75, 57
2, 158652, Note_on_c, 0, 67, 46
2, 158748, Note_on_c, 0, 67, 0
2, 158820, Note_on_c, 0, 70, 0
2, 158820, Note_on_c, 0, 63, 0
2, 158820, Note_on_c, 0, 75, 0
2, 158900, Note_on_c, 0, 70, 54
2, 158904, Note_on_c, 0, 67, 60
2, 158908, Note_on_c, 0, 62, 39
2, 158912, Note_on_c, 0, 74, 57
2, 158936, Note_on_c, 0, 75, 41
2, 159004, Note_on_c, 0, 75, 0
2, 159004, Note_on_c, 0, 67, 0
2, 159024, Note_on_c, 0, 62, 0
2, 159032, Note_on_c, 0, 74, 0
2, 159048, Note_on_c, 0, 70, 0
2, 159220, Note_on_c, 0, 77, 81
2, 159232, Note_on_c, 0, 65, 58
2, 159248, Note_on_c, 0, 70, 67
2, 159252, Note_on_c, 0, 67, 63
2, 159316, Note_on_c, 0, 67, 0
2, 159332, Note_on_c, 0, 65, 0
2, 159356, Note_on_c, 0, 77, 0
2, 159392, Note_on_c, 0, 62, 65
2, 159400, Note_on_c, 0, 67, 35
2, 159412, Note_on_c, 0, 74, 56
2, 159520, Note_on_c, 0, 67, 0
2, 159552, Note_on_c, 0, 74, 0
2, 159596, Note_on_c, 0, 70, 0
2, 159644, Note_on_c, 0, 62, 0
2, 159660, Note_on_c, 0, 75, 79
2, 159664, Note_on_c, 0, 63, 74
2, 159664, Note_on_c, 0, 70, 77
2, 159676, Note_on_c, 0, 67, 72
2, 159708, Control_c, 0, 64, 127
2, 159780, Note_on_c, 0, 67, 0
2, 159784, Note_on_c, 0, 70, 0
2, 159792, Note_on_c, 0, 75, 0
2, 159816, Note_on_c, 0, 63, 0
2, 159980, Control_c, 0, 64, 0
2, 160024, Note_on_c, 0, 73, 32
2, 160028, Note_on_c, 0, 74, 81
2, 160032, Note_on_c, 0, 63, 70
2, 160040, Note_on_c, 0, 70, 64
2, 160044, Note_on_c, 0, 67, 64
2, 160052, Note_on_c, 0, 62, 71
2, 160164, Control_c, 0, 64, 127
2, 160544, Note_on_c, 0, 62, 0
2, 160548, Note_on_c, 0, 67, 0
2, 160560, Note_on_c, 0, 70, 0
2, 160584, Note_on_c, 0, 63, 0
2, 160584, Note_on_c, 0, 74, 0
2, 160608, Note_on_c, 0, 73, 0
2, 160684, Control_c, 0, 64, 0
2, 160772, Note_on_c, 0, 72, 65
2, 160772, Note_on_c, 0, 60, 77
2, 160772, Note_on_c, 0, 63, 68
2, 160780, Note_on_c, 0, 70, 63
2, 160784, Note_on_c, 0, 67, 61
2, 160852, Control_c, 0, 64, 127
2, 160936, Note_on_c, 0, 60, 0
2, 160980, Note_on_c, 0, 67, 0
2, 160984, Note_on_c, 0, 72, 0
2, 161008, Note_on_c, 0, 70, 0
2, 161024, Note_on_c, 0, 63, 0
2, 161292, Note_on_c, 0, 66, 27
2, 161340, Note_on_c, 0, 66, 0
2, 161480, Control_c, 0, 64, 0
2, 161532, Note_on_c, 0, 65, 72
2, 161552, Note_on_c, 0, 54, 60
2, 161552, Note_on_c, 0, 58, 64
2, 161552, Note_on_c, 0, 53, 54
2, 161564, Note_on_c, 0, 61, 54
2, 161608, Note_on_c, 0, 54, 0
2, 161648, Note_on_c, 0, 65, 0
2, 161652, Note_on_c, 0, 53, 0
2, 161652, Note_on_c, 0, 51, 46
2, 161676, Note_on_c, 0, 58, 0
2, 161684, Note_on_c, 0, 61, 0
2, 161984, Note_on_c, 0, 49, 46
2, 162072, Note_on_c, 0, 65, 61
2, 162076, Note_on_c, 0, 53, 60
2, 162084, Note_on_c, 0, 51, 0
2, 162092, Note_on_c, 0, 58, 60
2, 162092, Note_on_c, 0, 54, 57
2, 162108, Note_on_c, 0, 61, 52
2, 162132, Note_on_c, 0, 49, 0
2, 162204, Note_on_c, 0, 54, 0
2, 162220, Note_on_c, 0, 65, 0
2, 162264, Note_on_c, 0, 58, 0
2, 162272, Note_on_c, 0, 61, 0
2, 162284, Note_on_c, 0, 53, 0
2, 162456, Note_on_c, 0, 56, 68
2, 162472, Note_on_c, 0, 68, 75
2, 162480, Note_on_c, 0, 58, 66
2, 162484, Note_on_c, 0, 61, 63
2, 162536, Note_on_c, 0, 61, 0
2, 162540, Note_on_c, 0, 58, 0
2, 162552, Note_on_c, 0, 68, 0
2, 162552, Note_on_c, 0, 56, 0
2, 162856, Note_on_c, 0, 54, 61
2, 162864, Note_on_c, 0, 65, 75
2, 162864, Note_on_c, 0, 44, 60
2, 162872, Note_on_c, 0, 61, 64
2, 163212, Control_c, 0, 64, 127
2, 163324, Note_on_c, 0, 61, 0
2, 163332, Note_on_c, 0, 65, 0
2, 163396, Note_on_c, 0, 44, 0
2, 163472, Note_on_c, 0, 54, 0
2, 163532, Control_c, 0, 64, 0
2, 163652, Note_on_c, 0, 54, 62
2, 163656, Note_on_c, 0, 64, 71
2, 163656, Note_on_c, 0, 60, 75
2, 163664, Note_on_c, 0, 44, 57
2, 163724, Note_on_c, 0, 66, 28
2, 163960, Note_on_c, 0, 54, 0
2, 164004, Note_on_c, 0, 44, 0
2, 164008, Note_on_c, 0, 60, 0
2, 164016, Control_c, 0, 64, 127
2, 164036, Control_c, 0, 64, 0
2, 164148, Note_on_c, 0, 64, 0
2, 164212, Note_on_c, 0, 66, 0
2, 164240, Note_on_c, 0, 63, 66
2, 164252, Note_on_c, 0, 37, 63
2, 164252, Note_on_c, 0, 60, 64
2, 164308, Control_c, 0, 64, 127
2, 164544, Note_on_c, 0, 37, 0
2, 164572, Note_on_c, 0, 60, 0
2, 164592, Note_on_c, 0, 63, 0
2, 164624, Note_on_c, 0, 44, 69
2, 164708, Control_c, 0, 64, 0
2, 164768, Note_on_c, 0, 44, 0
2, 164804, Note_on_c, 0, 53, 66
2, 164828, Control_c, 0, 64, 127
2, 164940, Note_on_c, 0, 53, 0
2, 164996, Control_c, 0, 64, 0
2, 165040, Note_on_c, 0, 56, 82
2, 165052, Note_on_c, 0, 70, 79
2, 165052, Note_on_c, 0, 63, 79
2, 165064, Note_on_c, 0, 60, 77
2, 165076, Note_on_c, 0, 65, 63
2, 165228, Control_c, 0, 64, 127
2, 165448, Note_on_c, 0, 60, 0
2, 165468, Note_on_c, 0, 70, 0
2, 165488, Control_c, 0, 64, 0
2, 165496, Note_on_c, 0, 65, 0
2, 165500, Note_on_c, 0, 63, 0
2, 165560, Note_on_c, 0, 63, 47
2, 165560, Note_on_c, 0, 68, 66
2, 165560, Note_on_c, 0, 58, 65
2, 165560, Note_on_c, 0, 60, 64
2, 165588, Note_on_c, 0, 56, 0
2, 165640, Control_c, 0, 64, 127
2, 165660, Note_on_c, 0, 56, 22
2, 165692, Note_on_c, 0, 60, 0
2, 165760, Note_on_c, 0, 63, 0
2, 165768, Note_on_c, 0, 58, 0
2, 165800, Note_on_c, 0, 68, 0
2, 165824, Note_on_c, 0, 56, 0
2, 165932, Control_c, 0, 64, 0
2, 165944, Note_on_c, 0, 75, 86
2, 165952, Note_on_c, 0, 63, 84
2, 165952, Note_on_c, 0, 68, 79
2, 165960, Note_on_c, 0, 65, 77
2, 165992, Note_on_c, 0, 72, 45
2, 166212, Note_on_c, 0, 65, 0
2, 166232, Note_on_c, 0, 75, 0
2, 166240, Note_on_c, 0, 72, 0
2, 166256, Note_on_c, 0, 68, 0
2, 166260, Note_on_c, 0, 63, 0
2, 166308, Control_c, 0, 64, 127
2, 166316, Note_on_c, 0, 61, 66
2, 166328, Note_on_c, 0, 68, 81
2, 166332, Note_on_c, 0, 73, 71
2, 166348, Note_on_c, 0, 65, 59
2, 166456, Control_c, 0, 64, 0
2, 166564, Note_on_c, 0, 65, 0
2, 166584, Note_on_c, 0, 73, 0
2, 166644, Note_on_c, 0, 68, 0
2, 166656, Note_on_c, 0, 61, 0
2, 166696, Control_c, 0, 64, 127
2, 166704, Note_on_c, 0, 72, 73
2, 166708, Note_on_c, 0, 65, 68
2, 166708, Note_on_c, 0, 60, 62
2, 166756, Note_on_c, 0, 68, 28
2, 166820, Note_on_c, 0, 68, 0
2, 166896, Control_c, 0, 64, 0
2, 166920, Note_on_c, 0, 60, 0
2, 166932, Note_on_c, 0, 65, 0
2, 166980, Note_on_c, 0, 72, 0
2, 167068, Note_on_c, 0, 70, 72
2, 167068, Note_on_c, 0, 51, 58
2, 167072, Control_c, 0, 64, 127
2, 167096, Note_on_c, 0, 65, 36
2, 167100, Note_on_c, 0, 60, 48
2, 167112, Note_on_c, 0, 56, 50
2, 167156, Note_on_c, 0, 65, 0
2, 167212, Control_c, 0, 64, 0
2, 167220, Note_on_c, 0, 60, 0
2, 167280, Note_on_c, 0, 51, 0
2, 167296, Note_on_c, 0, 56, 0
2, 167312, Note_on_c, 0, 70, 0
2, 167340, Note_on_c, 0, 68, 68
2, 167372, Note_on_c, 0, 50, 57
2, 167384, Note_on_c, 0, 60, 52
2, 167396, Note_on_c, 0, 56, 54
2, 167404, Control_c, 0, 64, 127
2, 167460, Note_on_c, 0, 56, 0
2, 167468, Note_on_c, 0, 68, 0
2, 167504, Note_on_c, 0, 60, 0
2, 167748, Note_on_c, 0, 56, 64
2, 167784, Control_c, 0, 64, 0
2, 167816, Note_on_c, 0, 79, 117
2, 167816, Note_on_c, 0, 72, 99
2, 167824, Note_on_c, 0, 67, 86
2, 167824, Note_on_c, 0, 60, 86
2, 167824, Note_on_c, 0, 75, 75
2, 167856, Note_on_c, 0, 69, 55
2, 167896, Note_on_c, 0, 69, 0
2, 168084, Note_on_c, 0, 67, 0
2, 168108, Note_on_c, 0, 79, 0
2, 168124, Note_on_c, 0, 60, 0
2, 168136, Note_on_c, 0, 56, 0
2, 168140, Control_c, 0, 64, 127
2, 168164, Note_on_c, 0, 72, 0
2, 168168, Note_on_c, 0, 75, 0
2, 168216, Note_on_c, 0, 77, 77
2, 168220, Note_on_c, 0, 72, 48
2, 168220, Note_on_c, 0, 60, 68
2, 168224, Note_on_c, 0, 56, 57
2, 168236, Note_on_c, 0, 65, 61
2, 168244, Note_on_c, 0, 75, 40
2, 168372, Note_on_c, 0, 60, 0
2, 168376, Note_on_c, 0, 77, 0
2, 168416, Note_on_c, 0, 56, 0
2, 168456, Note_on_c, 0, 65, 0
2, 168468, Note_on_c, 0, 75, 0
2, 168488, Note_on_c, 0, 72, 0
2, 168500, Control_c, 0, 64, 0
2, 168548, Note_on_c, 0, 56, 38
2, 168580, Note_on_c, 0, 60, 66
2, 168596, Note_on_c, 0, 75, 57
2, 168612, Control_c, 0, 64, 127
2, 168624, Note_on_c, 0, 63, 56
2, 168656, Note_on_c, 0, 70, 42
2, 168688, Note_on_c, 0, 60, 0
2, 168720, Note_on_c, 0, 70, 0
2, 168764, Note_on_c, 0, 50, 0
2, 168776, Note_on_c, 0, 75, 0
2, 168792, Note_on_c, 0, 63, 0
2, 168792, Note_on_c, 0, 56, 0
2, 168856, Control_c, 0, 64, 0
2, 168892, Note_on_c, 0, 74, 61
2, 168904, Note_on_c, 0, 62, 51
2, 168928, Note_on_c, 0, 59, 63
2, 168940, Note_on_c, 0, 62, 0
2, 168964, Note_on_c, 0, 59, 0
2, 168992, Control_c, 0, 64, 127
2, 169020, Note_on_c, 0, 74, 0
2, 169196, Control_c, 0, 64, 0
2, 169232, Note_on_c, 0, 82, 107
2, 169240, Note_on_c, 0, 70, 99
2, 169244, Note_on_c, 0, 53, 86
2, 169244, Note_on_c, 0, 63, 99
2, 169244, Note_on_c, 0, 75, 83
2, 169244, Note_on_c, 0, 59, 85
2, 169296, Note_on_c, 0, 56, 32
2, 169384, Note_on_c, 0, 56, 0
2, 169440, Control_c, 0, 64, 127
2, 169640, Note_on_c, 0, 53, 0
2, 169656, Note_on_c, 0, 63, 0
2, 169668, Note_on_c, 0, 82, 0
2, 169692, Note_on_c, 0, 70, 0
2, 169720, Note_on_c, 0, 75, 0
2, 169736, Note_on_c, 0, 63, 68
2, 169740, Note_on_c, 0, 53, 66
2, 169760, Note_on_c, 0, 75, 47
2, 169760, Note_on_c, 0, 80, 66
2, 169776, Note_on_c, 0, 68, 66
2, 169920, Note_on_c, 0, 63, 0
2, 169940, Note_on_c, 0, 53, 0
2, 169988, Control_c, 0, 64, 0
2, 170008, Note_on_c, 0, 80, 0
2, 170048, Note_on_c, 0, 68, 0
2, 170052, Note_on_c, 0, 75, 0
2, 170072, Note_on_c, 0, 59, 0
2, 170140, Note_on_c, 0, 63, 69
2, 170144, Note_on_c, 0, 79, 63
2, 170152, Note_on_c, 0, 74, 65
2, 170156, Note_on_c, 0, 59, 31
2, 170156, Note_on_c, 0, 53, 52
2, 170156, Note_on_c, 0, 67, 54
2, 170164, Control_c, 0, 64, 127
2, 170208, Note_on_c, 0, 59, 0
2, 170224, Note_on_c, 0, 56, 33
2, 170284, Note_on_c, 0, 53, 0
2, 170308, Note_on_c, 0, 79, 0
2, 170316, Note_on_c, 0, 74, 0
2, 170320, Note_on_c, 0, 63, 0
2, 170328, Note_on_c, 0, 67, 0
2, 170364, Control_c, 0, 64, 0
2, 170368, Note_on_c, 0, 56, 0
2, 170420, Note_on_c, 0, 77, 57
2, 170432, Note_on_c, 0, 65, 60
2, 170444, Note_on_c, 0, 62, 60
2, 170448, Note_on_c, 0, 51, 59
2, 170464, Note_on_c, 0, 57, 54
2, 170464, Note_on_c, 0, 73, 26
2, 170472, Note_on_c, 0, 65, 0
2, 170520, Note_on_c, 0, 73, 0
2, 170540, Control_c, 0, 64, 127
2, 170548, Note_on_c, 0, 62, 0
2, 170556, Note_on_c, 0, 77, 0
2, 170588, Note_on_c, 0, 57, 0
2, 170588, Note_on_c, 0, 51, 0
2, 170720, Control_c, 0, 64, 0
2, 170772, Note_on_c, 0, 86, 99
2, 170772, Note_on_c, 0, 81, 96
2, 170772, Note_on_c, 0, 74, 98
2, 170784, Note_on_c, 0, 51, 85
2, 170788, Note_on_c, 0, 62, 92
2, 170792, Note_on_c, 0, 57, 82
2, 170792, Note_on_c, 0, 85, 61
2, 170832, Note_on_c, 0, 85, 0
2, 170956, Control_c, 0, 64, 127
2, 171164, Control_c, 0, 64, 72
2, 171172, Note_on_c, 0, 86, 0
2, 171172, Control_c, 0, 64, 0
2, 171176, Note_on_c, 0, 62, 0
2, 171180, Note_on_c, 0, 51, 0
2, 171184, Note_on_c, 0, 74, 0
2, 171224, Note_on_c, 0, 57, 0
2, 171228, Note_on_c, 0, 81, 0
2, 171288, Note_on_c, 0, 62, 61
2, 171288, Note_on_c, 0, 51, 49
2, 171308, Note_on_c, 0, 57, 57
2, 171324, Note_on_c, 0, 84, 48
2, 171364, Note_on_c, 0, 84, 0
2, 171392, Note_on_c, 0, 62, 0
2, 171468, Note_on_c, 0, 51, 0
2, 171484, Note_on_c, 0, 57, 0
2, 171688, Note_on_c, 0, 80, 77
2, 171688, Note_on_c, 0, 68, 82
2, 171732, Note_on_c, 0, 57, 68
2, 171732, Note_on_c, 0, 81, 40
2, 171732, Note_on_c, 0, 70, 35
2, 171732, Note_on_c, 0, 54, 82
2, 171732, Note_on_c, 0, 55, 84
2, 171812, Note_on_c, 0, 54, 0
2, 171836, Note_on_c, 0, 57, 0
2, 171876, Note_on_c, 0, 68, 0
2, 171948, Note_on_c, 0, 81, 0
2, 171996, Note_on_c, 0, 80, 0
2, 172016, Note_on_c, 0, 70, 0
2, 172084, Note_on_c, 0, 43, 84
2, 172312, Control_c, 0, 64, 127
2, 172400, Note_on_c, 0, 43, 0
2, 172468, Note_on_c, 0, 55, 0
2, 172648, Control_c, 0, 64, 0
2, 172700, Note_on_c, 0, 63, 81
2, 172716, Note_on_c, 0, 53, 68
2, 172732, Note_on_c, 0, 56, 60
2, 172740, Note_on_c, 0, 59, 61
2, 173100, Note_on_c, 0, 59, 0
2, 173100, Control_c, 0, 64, 127
2, 173220, Note_on_c, 0, 53, 0
2, 173328, Note_on_c, 0, 63, 0
2, 173392, Control_c, 0, 64, 0
2, 173504, Note_on_c, 0, 56, 0
2, 173540, Note_on_c, 0, 51, 50
2, 173568, Note_on_c, 0, 57, 50
2, 173600, Note_on_c, 0, 62, 28
2, 173616, Note_on_c, 0, 87, 55
2, 173628, Note_on_c, 0, 91, 56
2, 173792, Note_on_c, 0, 91, 0
2, 173836, Note_on_c, 0, 87, 0
2, 173856, Note_on_c, 0, 62, 0
2, 173860, Note_on_c, 0, 51, 0
2, 174000, Note_on_c, 0, 57, 0
2, 174008, Note_on_c, 0, 89, 66
2, 174020, Note_on_c, 0, 86, 54
2, 174184, Note_on_c, 0, 86, 0
2, 174260, Note_on_c, 0, 89, 0
2, 174268, Note_on_c, 0, 57, 40
2, 174332, Note_on_c, 0, 57, 0
2, 174392, Note_on_c, 0, 84, 43
2, 174396, Note_on_c, 0, 87, 55
2, 174520, Note_on_c, 0, 84, 0
2, 174616, Note_on_c, 0, 87, 0
2, 174616, Note_on_c, 0, 57, 40
2, 174696, Note_on_c, 0, 57, 0
2, 174752, Note_on_c, 0, 82, 55
2, 174784, Note_on_c, 0, 86, 55
2, 174928, Note_on_c, 0, 82, 0
2, 175008, Note_on_c, 0, 57, 46
2, 175064, Note_on_c, 0, 86, 0
2, 175128, Note_on_c, 0, 57, 0
2, 175180, Note_on_c, 0, 84, 61
2, 175188, Note_on_c, 0, 80, 49
2, 175308, Note_on_c, 0, 80, 0
2, 175324, Note_on_c, 0, 84, 0
2, 175408, Note_on_c, 0, 57, 50
2, 175500, Note_on_c, 0, 57, 0
2, 175760, Note_on_c, 0, 57, 57
2, 175764, Note_on_c, 0, 62, 48
2, 175768, Note_on_c, 0, 51, 43
2, 175972, Note_on_c, 0, 62, 0
2, 176080, Note_on_c, 0, 57, 0
2, 176140, Note_on_c, 0, 82, 74
2, 176156, Note_on_c, 0, 79, 70
2, 176180, Note_on_c, 0, 51, 0
2, 176180, Note_on_c, 0, 62, 45
2, 176416, Note_on_c, 0, 62, 0
2, 176600, Note_on_c, 0, 82, 0
2, 176608, Note_on_c, 0, 79, 0
2, 176648, Note_on_c, 0, 62, 36
2, 176648, Note_on_c, 0, 56, 50
2, 176680, Note_on_c, 0, 77, 55
2, 176680, Note_on_c, 0, 60, 44
2, 176680, Note_on_c, 0, 53, 36
2, 176700, Note_on_c, 0, 80, 50
2, 176916, Control_c, 0, 64, 127
2, 176924, Note_on_c, 0, 77, 0
2, 176952, Note_on_c, 0, 80, 0
2, 177012, Note_on_c, 0, 62, 0
2, 177052, Note_on_c, 0, 60, 0
2, 177090, Note_on_c, 0, 56, 0
2, 177128, Note_on_c, 0, 53, 0
2, 177340, Control_c, 0, 64, 72
2, 177344, Control_c, 0, 64, 0
2, 177444, Note_on_c, 0, 91, 70
2, 177456, Note_on_c, 0, 62, 41
2, 177460, Note_on_c, 0, 56, 46
2, 177460, Note_on_c, 0, 79, 50
2, 177468, Note_on_c, 0, 84, 50
2, 177468, Note_on_c, 0, 60, 43
2, 177476, Note_on_c, 0, 53, 43
2, 177836, Control_c, 0, 64, 127
2, 177860, Note_on_c, 0, 62, 0
2, 177860, Note_on_c, 0, 91, 0
2, 177868, Note_on_c, 0, 53, 0
2, 177876, Note_on_c, 0, 60, 0
2, 177888, Note_on_c, 0, 79, 0
2, 177888, Note_on_c, 0, 56, 0
2, 177936, Note_on_c, 0, 84, 0
2, 178060, Control_c, 0, 64, 0
2, 178076, Note_on_c, 0, 89, 60
2, 178076, Note_on_c, 0, 62, 55
2, 178092, Note_on_c, 0, 77, 49
2, 178092, Note_on_c, 0, 84, 44
2, 178092, Note_on_c, 0, 60, 52
2, 178100, Note_on_c, 0, 56, 44
2, 178128, Note_on_c, 0, 53, 31
2, 178140, Note_on_c, 0, 77, 0
2, 178144, Note_on_c, 0, 60, 0
2, 178152, Note_on_c, 0, 84, 0
2, 178160, Note_on_c, 0, 56, 0
2, 178164, Note_on_c, 0, 62, 0
2, 178184, Note_on_c, 0, 53, 0
2, 178196, Note_on_c, 0, 89, 0
2, 178600, Note_on_c, 0, 62, 54
2, 178616, Note_on_c, 0, 60, 52
2, 178616, Note_on_c, 0, 56, 40
2, 178628, Note_on_c, 0, 53, 44
2, 178984, Note_on_c, 0, 62, 0
2, 179008, Note_on_c, 0, 56, 0
2, 179012, Note_on_c, 0, 53, 0
2, 179028, Note_on_c, 0, 60, 0
2, 179156, Control_c, 0, 64, 127
2, 179216, Note_on_c, 0, 60, 63
2, 179220, Note_on_c, 0, 62, 60
2, 179248, Note_on_c, 0, 56, 39
2, 179260, Note_on_c, 0, 62, 0
2, 179300, Note_on_c, 0, 56, 0
2, 179332, Note_on_c, 0, 60, 0
2, 179644, Control_c, 0, 64, 24
2, 179648, Control_c, 0, 64, 0
2, 179716, Note_on_c, 0, 65, 58
2, 179724, Note_on_c, 0, 55, 55
2, 179728, Note_on_c, 0, 56, 50
2, 179744, Note_on_c, 0, 60, 61
2, 179744, Note_on_c, 0, 89, 64
2, 179752, Note_on_c, 0, 77, 48
2, 179752, Note_on_c, 0, 84, 55
2, 180092, Control_c, 0, 64, 127
2, 180144, Note_on_c, 0, 89, 0
2, 180156, Note_on_c, 0, 77, 0
2, 180184, Note_on_c, 0, 65, 0
2, 180188, Note_on_c, 0, 55, 0
2, 180216, Note_on_c, 0, 56, 0
2, 180220, Note_on_c, 0, 60, 0
2, 180220, Note_on_c, 0, 84, 0
2, 180374, Note_on_c, 0, 87, 81
2, 180380, Note_on_c, 0, 75, 81
2, 180388, Note_on_c, 0, 82, 77
2, 180396, Note_on_c, 0, 56, 60
2, 180396, Note_on_c, 0, 65, 76
2, 180400, Note_on_c, 0, 60, 68
2, 180420, Note_on_c, 0, 55, 61
2, 180432, Control_c, 0, 64, 0
2, 180500, Note_on_c, 0, 55, 0
2, 180520, Note_on_c, 0, 65, 0
2, 180536, Note_on_c, 0, 75, 0
2, 180560, Note_on_c, 0, 87, 0
2, 180564, Note_on_c, 0, 56, 0
2, 180568, Note_on_c, 0, 82, 0
2, 180580, Note_on_c, 0, 60, 0
2, 180612, Note_on_c, 0, 86, 73
2, 180620, Note_on_c, 0, 65, 63
2, 180624, Note_on_c, 0, 74, 58
2, 180624, Note_on_c, 0, 56, 45
2, 180628, Note_on_c, 0, 60, 41
2, 180632, Note_on_c, 0, 55, 57
2, 180652, Note_on_c, 0, 85, 49
2, 180664, Note_on_c, 0, 81, 47
2, 180736, Note_on_c, 0, 81, 0
2, 180748, Note_on_c, 0, 86, 0
2, 180752, Note_on_c, 0, 65, 0
2, 180756, Note_on_c, 0, 55, 0
2, 180776, Note_on_c, 0, 85, 0
2, 180776, Note_on_c, 0, 74, 0
2, 180860, Note_on_c, 0, 65, 56
2, 180872, Note_on_c, 0, 84, 63
2, 180884, Note_on_c, 0, 72, 58
2, 180912, Note_on_c, 0, 65, 0
2, 180968, Note_on_c, 0, 84, 0
2, 180976, Note_on_c, 0, 60, 0
2, 180984, Note_on_c, 0, 72, 0
2, 181012, Note_on_c, 0, 56, 0
2, 181172, Note_on_c, 0, 63, 67
2, 181176, Note_on_c, 0, 82, 68
2, 181176, Note_on_c, 0, 70, 66
2, 181176, Note_on_c, 0, 58, 46
2, 181200, Note_on_c, 0, 75, 51
2, 181204, Note_on_c, 0, 59, 54
2, 181228, Note_on_c, 0, 53, 45
2, 181464, Note_on_c, 0, 75, 0
2, 181480, Note_on_c, 0, 59, 0
2, 181500, Note_on_c, 0, 71, 47
2, 181512, Note_on_c, 0, 70, 0
2, 181572, Note_on_c, 0, 59, 40
2, 181580, Note_on_c, 0, 71, 0
2, 181596, Note_on_c, 0, 63, 0
2, 181604, Note_on_c, 0, 82, 0
2, 181728, Note_on_c, 0, 53, 0
2, 181780, Note_on_c, 0, 59, 0
2, 181812, Note_on_c, 0, 58, 0
2, 181928, Note_on_c, 0, 80, 66
2, 181940, Note_on_c, 0, 68, 64
2, 181940, Note_on_c, 0, 75, 66
2, 181944, Note_on_c, 0, 63, 68
2, 181960, Note_on_c, 0, 59, 61
2, 181968, Note_on_c, 0, 58, 39
2, 181972, Note_on_c, 0, 53, 45
2, 182088, Control_c, 0, 64, 127
2, 182328, Note_on_c, 0, 59, 0
2, 182372, Note_on_c, 0, 58, 0
2, 182400, Note_on_c, 0, 63, 0
2, 182408, Note_on_c, 0, 53, 0
2, 182536, Note_on_c, 0, 68, 0
2, 182544, Note_on_c, 0, 80, 0
2, 182580, Note_on_c, 0, 75, 0
2, 182584, Control_c, 0, 64, 0
2, 182672, Note_on_c, 0, 62, 60
2, 182680, Note_on_c, 0, 79, 60
2, 182692, Note_on_c, 0, 67, 49
2, 182692, Note_on_c, 0, 57, 55
2, 182692, Note_on_c, 0, 74, 58
2, 182692, Note_on_c, 0, 51, 44
2, 182708, Note_on_c, 0, 55, 48
2, 182816, Control_c, 0, 64, 127
2, 183076, Note_on_c, 0, 57, 0
2, 183112, Note_on_c, 0, 55, 0
2, 183120, Note_on_c, 0, 67, 0
2, 183180, Note_on_c, 0, 51, 0
2, 183200, Note_on_c, 0, 74, 0
2, 183220, Note_on_c, 0, 62, 0
2, 183232, Note_on_c, 0, 79, 0
2, 183824, Control_c, 0, 64, 104
2, 183828, Control_c, 0, 64, 0
2, 183872, Note_on_c, 0, 89, 78
2, 183876, Note_on_c, 0, 74, 78
2, 183884, Note_on_c, 0, 62, 79
2, 183884, Note_on_c, 0, 82, 56
2, 183896, Note_on_c, 0, 79, 57
2, 183896, Note_on_c, 0, 51, 54
2, 183896, Note_on_c, 0, 57, 64
2, 183916, Note_on_c, 0, 74, 0
2, 183924, Note_on_c, 0, 82, 0
2, 183924, Note_on_c, 0, 62, 0
2, 183924, Note_on_c, 0, 55, 39
2, 183932, Note_on_c, 0, 79, 0
2, 183936, Note_on_c, 0, 57, 0
2, 183936, Note_on_c, 0, 51, 0
2, 183948, Note_on_c, 0, 89, 0
2, 183968, Note_on_c, 0, 55, 0
2, 184380, Control_c, 0, 64, 127
2, 184580, Control_c, 0, 64, 0
2, 184612, Note_on_c, 0, 89, 73
2, 184620, Note_on_c, 0, 77, 63
2, 184632, Note_on_c, 0, 62, 55
2, 184636, Note_on_c, 0, 84, 50
2, 184644, Note_on_c, 0, 51, 38
2, 184652, Note_on_c, 0, 89, 0
2, 184652, Note_on_c, 0, 57, 48
2, 184656, Note_on_c, 0, 77, 0
2, 184668, Note_on_c, 0, 62, 0
2, 184672, Note_on_c, 0, 84, 0
2, 184688, Note_on_c, 0, 57, 0
2, 184700, Note_on_c, 0, 51, 0
2, 185116, Note_on_c, 0, 62, 68
2, 185122, Note_on_c, 0, 87, 61
2, 185128, Note_on_c, 0, 51, 55
2, 185132, Note_on_c, 0, 82, 60
2, 185132, Note_on_c, 0, 75, 52
2, 185148, Note_on_c, 0, 57, 56
2, 185176, Note_on_c, 0, 55, 39
2, 185292, Control_c, 0, 64, 127
2, 185384, Note_on_c, 0, 57, 0
2, 185396, Note_on_c, 0, 55, 0
2, 185432, Note_on_c, 0, 51, 0
2, 185484, Note_on_c, 0, 62, 0
2, 185564, Note_on_c, 0, 75, 0
2, 185584, Note_on_c, 0, 82, 0
2, 185620, Note_on_c, 0, 87, 0
2, 185760, Control_c, 0, 64, 0
2, 185884, Note_on_c, 0, 87, 66
2, 185888, Note_on_c, 0, 65, 55
2, 185888, Note_on_c, 0, 54, 50
2, 185900, Note_on_c, 0, 58, 56
2, 185900, Note_on_c, 0, 82, 58
2, 185900, Note_on_c, 0, 61, 54
2, 185900, Note_on_c, 0, 75, 49
2, 186244, Control_c, 0, 64, 127
2, 186256, Note_on_c, 0, 75, 0
2, 186304, Note_on_c, 0, 65, 0
2, 186308, Note_on_c, 0, 54, 0
2, 186324, Note_on_c, 0, 82, 0
2, 186332, Note_on_c, 0, 87, 0
2, 186332, Note_on_c, 0, 58, 0
2, 186360, Note_on_c, 0, 61, 0
2, 186504, Control_c, 0, 64, 0
2, 186512, Note_on_c, 0, 85, 84
2, 186548, Note_on_c, 0, 58, 58
2, 186548, Note_on_c, 0, 61, 58
2, 186548, Note_on_c, 0, 65, 66
2, 186548, Note_on_c, 0, 54, 55
2, 186660, Note_on_c, 0, 85, 0
2, 186744, Note_on_c, 0, 84, 63
2, 186884, Note_on_c, 0, 84, 0
2, 186968, Note_on_c, 0, 82, 67
2, 187052, Note_on_c, 0, 65, 0
2, 187064, Note_on_c, 0, 54, 0
2, 187068, Note_on_c, 0, 82, 0
2, 187144, Note_on_c, 0, 61, 0
2, 187192, Note_on_c, 0, 58, 0
2, 187288, Note_on_c, 0, 80, 85
2, 187300, Note_on_c, 0, 64, 66
2, 187300, Note_on_c, 0, 54, 61
2, 187300, Note_on_c, 0, 60, 64
2, 187892, Note_on_c, 0, 60, 0
2, 188016, Note_on_c, 0, 64, 0
2, 188092, Note_on_c, 0, 54, 0
2, 188120, Note_on_c, 0, 80, 0
2, 188180, Note_on_c, 0, 78, 62
2, 188188, Note_on_c, 0, 54, 56
2, 188188, Note_on_c, 0, 60, 21
2, 188192, Note_on_c, 0, 64, 52
2, 188320, Note_on_c, 0, 64, 0
2, 188336, Note_on_c, 0, 78, 0
2, 188384, Note_on_c, 0, 54, 0
2, 188404, Note_on_c, 0, 60, 0
2, 188552, Note_on_c, 0, 54, 51
2, 188568, Note_on_c, 0, 79, 60
2, 188576, Note_on_c, 0, 64, 38
2, 188584, Note_on_c, 0, 60, 46
2, 188636, Note_on_c, 0, 64, 0
2, 188732, Note_on_c, 0, 79, 0
2, 188744, Note_on_c, 0, 54, 0
2, 188860, Note_on_c, 0, 60, 0
2, 188932, Note_on_c, 0, 60, 22
2, 188952, Note_on_c, 0, 63, 49
2, 188972, Note_on_c, 0, 79, 68
2, 188984, Note_on_c, 0, 53, 36
2, 188984, Note_on_c, 0, 56, 44
2, 189176, Note_on_c, 0, 79, 0
2, 189232, Note_on_c, 0, 80, 57
2, 189252, Note_on_c, 0, 63, 0
2, 189356, Note_on_c, 0, 53, 0
2, 189376, Note_on_c, 0, 56, 0
2, 189380, Note_on_c, 0, 60, 0
2, 189416, Note_on_c, 0, 80, 0
2, 189588, Note_on_c, 0, 63, 50
2, 189592, Note_on_c, 0, 77, 66
2, 189604, Note_on_c, 0, 60, 46
2, 189624, Note_on_c, 0, 56, 44
2, 189680, Note_on_c, 0, 53, 16
2, 189856, Note_on_c, 0, 60, 0
2, 189960, Note_on_c, 0, 77, 0
2, 189980, Note_on_c, 0, 60, 45
2, 189984, Note_on_c, 0, 63, 0
2, 190100, Note_on_c, 0, 73, 68
2, 190156, Note_on_c, 0, 60, 0
2, 190276, Note_on_c, 0, 56, 0
2, 190288, Note_on_c, 0, 73, 0
2, 190424, Note_on_c, 0, 60, 41
2, 190444, Note_on_c, 0, 56, 34
2, 190484, Note_on_c, 0, 72, 68
2, 190500, Note_on_c, 0, 60, 0
2, 190544, Note_on_c, 0, 56, 0
2, 190720, Note_on_c, 0, 53, 0
2, 190724, Note_on_c, 0, 56, 29
2, 190736, Note_on_c, 0, 60, 36
2, 190740, Note_on_c, 0, 72, 0
2, 190868, Note_on_c, 0, 68, 68
2, 190900, Note_on_c, 0, 60, 0
2, 190936, Note_on_c, 0, 56, 0
2, 191152, Note_on_c, 0, 60, 41
2, 191176, Note_on_c, 0, 68, 0
2, 191196, Note_on_c, 0, 56, 27
2, 191260, Note_on_c, 0, 65, 59
2, 191280, Note_on_c, 0, 60, 0
2, 191284, Note_on_c, 0, 56, 0
2, 191504, Note_on_c, 0, 65, 0
2, 191520, Control_c, 0, 64, 127
2, 191552, Note_on_c, 0, 60, 56
2, 191576, Note_on_c, 0, 56, 38
2, 191620, Note_on_c, 0, 60, 0
2, 191664, Note_on_c, 0, 56, 0
2, 191712, Control_c, 0, 64, 0
2, 191888, Note_on_c, 0, 68, 66
2, 191896, Note_on_c, 0, 65, 65
2, 191896, Note_on_c, 0, 74, 60
2, 191904, Note_on_c, 0, 62, 57
2, 191904, Note_on_c, 0, 72, 58
2, 191960, Note_on_c, 0, 65, 0
2, 192000, Note_on_c, 0, 68, 0
2, 192008, Note_on_c, 0, 74, 0
2, 192032, Note_on_c, 0, 62, 0
2, 192032, Note_on_c, 0, 72, 0
2, 192272, Note_on_c, 0, 74, 64
2, 192276, Note_on_c, 0, 68, 68
2, 192292, Note_on_c, 0, 65, 64
2, 192292, Note_on_c, 0, 62, 60
2, 192376, Note_on_c, 0, 65, 0
2, 192404, Note_on_c, 0, 74, 0
2, 192412, Note_on_c, 0, 62, 0
2, 192420, Note_on_c, 0, 68, 0
2, 192668, Note_on_c, 0, 60, 49
2, 192784, Note_on_c, 0, 60, 0
2, 192788, Control_c, 0, 64, 127
2, 192804, Note_on_c, 0, 74, 66
2, 192804, Note_on_c, 0, 68, 62
2, 192812, Note_on_c, 0, 65, 57
2, 192816, Note_on_c, 0, 62, 61
2, 193076, Note_on_c, 0, 65, 0
2, 193096, Note_on_c, 0, 74, 0
2, 193128, Note_on_c, 0, 62, 0
2, 193180, Note_on_c, 0, 72, 53
2, 193240, Note_on_c, 0, 68, 0
2, 193300, Control_c, 0, 64, 0
2, 193368, Note_on_c, 0, 72, 0
2, 193444, Note_on_c, 0, 63, 49
2, 193448, Note_on_c, 0, 70, 52
2, 193452, Note_on_c, 0, 67, 52
2, 193456, Note_on_c, 0, 59, 52
2, 193456, Note_on_c, 0, 53, 46
2, 193516, Control_c, 0, 64, 127
2, 193680, Note_on_c, 0, 63, 0
2, 193708, Note_on_c, 0, 53, 0
2, 193728, Note_on_c, 0, 59, 0
2, 193772, Note_on_c, 0, 67, 0
2, 193808, Note_on_c, 0, 70, 0
2, 194144, Note_on_c, 0, 43, 49
2, 194148, Control_c, 0, 64, 0
2, 194324, Note_on_c, 0, 68, 57
2, 194336, Note_on_c, 0, 63, 50
2, 194344, Note_on_c, 0, 53, 51
2, 194344, Note_on_c, 0, 59, 48
2, 194360, Control_c, 0, 64, 127
2, 194468, Note_on_c, 0, 43, 0
2, 194580, Note_on_c, 0, 53, 0
2, 194584, Note_on_c, 0, 59, 0
2, 194732, Note_on_c, 0, 68, 0
2, 194756, Note_on_c, 0, 63, 0
2, 194864, Control_c, 0, 64, 0
2, 194948, Note_on_c, 0, 62, 42
2, 194960, Note_on_c, 0, 67, 58
2, 194964, Note_on_c, 0, 63, 46
2, 194968, Note_on_c, 0, 48, 46
2, 194968, Note_on_c, 0, 57, 44
2, 195036, Note_on_c, 0, 63, 0
2, 195040, Note_on_c, 0, 62, 0
2, 195064, Note_on_c, 0, 57, 0
2, 195100, Note_on_c, 0, 67, 0
2, 195336, Note_on_c, 0, 67, 52
2, 195344, Note_on_c, 0, 63, 50
2, 195344, Note_on_c, 0, 62, 49
2, 195368, Note_on_c, 0, 57, 47
2, 195452, Note_on_c, 0, 62, 0
2, 195512, Note_on_c, 0, 57, 0
2, 195516, Note_on_c, 0, 67, 0
2, 195528, Note_on_c, 0, 63, 0
2, 195728, Note_on_c, 0, 55, 26
2, 195788, Note_on_c, 0, 55, 0
2, 195840, Note_on_c, 0, 57, 50
2, 195848, Note_on_c, 0, 67, 50
2, 195852, Note_on_c, 0, 63, 43
2, 195860, Note_on_c, 0, 62, 45
2, 196212, Note_on_c, 0, 57, 0
2, 196316, Note_on_c, 0, 48, 0
2, 196524, Note_on_c, 0, 55, 51
2, 196524, Note_on_c, 0, 54, 49
2, 196572, Note_on_c, 0, 54, 0
2, 196600, Note_on_c, 0, 55, 0
2, 196920, Note_on_c, 0, 55, 54
2, 196920, Note_on_c, 0, 54, 43
2, 196976, Note_on_c, 0, 54, 0
2, 197056, Note_on_c, 0, 55, 0
2, 197296, Note_on_c, 0, 54, 50
2, 197452, Note_on_c, 0, 55, 55
2, 197464, Note_on_c, 0, 54, 0
2, 197752, Control_c, 0, 64, 127
2, 198028, Note_on_c, 0, 55, 0
2, 198220, Note_on_c, 0, 62, 0
2, 198316, Note_on_c, 0, 63, 0
2, 198356, Note_on_c, 0, 67, 0
2, 198692, Control_c, 0, 64, 24
2, 198696, Control_c, 0, 64, 0
2, 199176, Note_on_c, 0, 68, 57
2, 199192, Note_on_c, 0, 63, 48
2, 199212, Note_on_c, 0, 60, 31
2, 199216, Note_on_c, 0, 65, 42
2, 199264, Note_on_c, 0, 65, 0
2, 199264, Note_on_c, 0, 60, 0
2, 199282, Note_on_c, 0, 63, 0
2, 199282, Note_on_c, 0, 68, 0
2, 199484, Note_on_c, 0, 54, 44
2, 199488, Note_on_c, 0, 65, 34
2, 199536, Note_on_c, 0, 54, 0
2, 199584, Note_on_c, 0, 65, 0
2, 199736, Note_on_c, 0, 59, 58
2, 199736, Note_on_c, 0, 70, 57
2, 199736, Note_on_c, 0, 65, 43
2, 199736, Note_on_c, 0, 55, 59
2, 199748, Note_on_c, 0, 63, 45
2, 200096, Note_on_c, 0, 55, 0
2, 200156, Note_on_c, 0, 59, 0
2, 200196, Note_on_c, 0, 63, 0
2, 200212, Note_on_c, 0, 65, 0
2, 200236, Note_on_c, 0, 70, 0
2, 200344, Note_on_c, 0, 68, 50
2, 200356, Note_on_c, 0, 59, 46
2, 200356, Note_on_c, 0, 53, 44
2, 200360, Note_on_c, 0, 63, 41
2, 200376, Note_on_c, 0, 65, 32
2, 200392, Control_c, 0, 64, 127
2, 200796, Note_on_c, 0, 59, 0
2, 200816, Note_on_c, 0, 43, 30
2, 200844, Note_on_c, 0, 53, 0
2, 200868, Note_on_c, 0, 43, 0
2, 200912, Note_on_c, 0, 68, 0
2, 200924, Note_on_c, 0, 63, 0
2, 200936, Note_on_c, 0, 65, 0
2, 201000, Control_c, 0, 64, 0
2, 201108, Note_on_c, 0, 63, 37
2, 201108, Note_on_c, 0, 67, 43
2, 201124, Note_on_c, 0, 62, 31
2, 201132, Note_on_c, 0, 48, 40
2, 201140, Note_on_c, 0, 57, 23
2, 201164, Note_on_c, 0, 55, 30
2, 201200, Control_c, 0, 64, 127
2, 201284, Note_on_c, 0, 62, 0
2, 201348, Note_on_c, 0, 63, 0
2, 201352, Note_on_c, 0, 67, 0
2, 201356, Note_on_c, 0, 55, 0
2, 201380, Note_on_c, 0, 57, 0
2, 201768, Note_on_c, 0, 48, 0
2, 201844, Control_c, 0, 64, 0
2, 201852, Note_on_c, 0, 86, 50
2, 201880, Note_on_c, 0, 74, 45
2, 201880, Note_on_c, 0, 55, 34
2, 201972, Control_c, 0, 64, 127
2, 202116, Note_on_c, 0, 74, 0
2, 202140, Note_on_c, 0, 55, 0
2, 202160, Note_on_c, 0, 86, 0
2, 202656, Control_c, 0, 64, 0
2, 202664, Note_on_c, 0, 89, 46
2, 202668, Note_on_c, 0, 91, 46
2, 202668, Note_on_c, 0, 77, 44
2, 202704, Note_on_c, 0, 60, 38
2, 202716, Note_on_c, 0, 91, 0
2, 202760, Control_c, 0, 64, 104
2, 202764, Control_c, 0, 64, 127
2, 203276, Note_on_c, 0, 89, 0
2, 203344, Note_on_c, 0, 77, 0
2, 203352, Control_c, 0, 64, 0
2, 203396, Note_on_c, 0, 60, 0
2, 203400, Note_on_c, 0, 87, 42
2, 203416, Note_on_c, 0, 58, 34
2, 203432, Control_c, 0, 64, 127
2, 203664, Note_on_c, 0, 58, 0
2, 204212, Note_on_c, 0, 87, 0
2, 204284, Control_c, 0, 64, 0
2, 204300, Note_on_c, 0, 63, 25
2, 204312, Note_on_c, 0, 53, 22
2, 204324, Note_on_c, 0, 80, 32
2, 204324, Note_on_c, 0, 60, 26
2, 204332, Note_on_c, 0, 56, 25
2, 204600, Control_c, 0, 64, 127
2, 204756, Note_on_c, 0, 53, 0
2, 204764, Note_on_c, 0, 63, 0
2, 204800, Note_on_c, 0, 60, 0
2, 204800, Note_on_c, 0, 56, 0
2, 204936, Note_on_c, 0, 80, 0
2, 204936, Note_on_c, 0, 79, 31
2, 204960, Note_on_c, 0, 63, 24
2, 204964, Control_c, 0, 64, 88
2, 204968, Control_c, 0, 64, 0
2, 204992, Note_on_c, 0, 60, 21
2, 205000, Note_on_c, 0, 56, 20
2, 205032, Note_on_c, 0, 53, 13
2, 205036, Note_on_c, 0, 79, 0
2, 205156, Note_on_c, 0, 80, 26
2, 205388, Control_c, 0, 64, 127
2, 205412, Note_on_c, 0, 60, 0
2, 205436, Note_on_c, 0, 53, 0
2, 205472, Note_on_c, 0, 56, 0
2, 205488, Note_on_c, 0, 63, 0
2, 205636, Control_c, 0, 64, 72
2, 205640, Control_c, 0, 64, 0
2, 205680, Note_on_c, 0, 63, 24
2, 205716, Note_on_c, 0, 59, 25
2, 205716, Note_on_c, 0, 58, 23
2, 205748, Note_on_c, 0, 53, 19
2, 206012, Note_on_c, 0, 80, 0
2, 206064, Note_on_c, 0, 82, 27
2, 206240, Note_on_c, 0, 82, 0
2, 206356, Note_on_c, 0, 80, 21
2, 206392, Note_on_c, 0, 63, 0
2, 206408, Note_on_c, 0, 53, 0
2, 206408, Note_on_c, 0, 59, 0
2, 206440, Note_on_c, 0, 58, 0
2, 206552, Note_on_c, 0, 80, 0
2, 206568, Control_c, 0, 64, 127
2, 206576, Note_on_c, 0, 63, 20
2, 206604, Note_on_c, 0, 58, 13
2, 206612, Note_on_c, 0, 82, 25
2, 206620, Note_on_c, 0, 59, 16
2, 206812, Note_on_c, 0, 59, 0
2, 206872, Note_on_c, 0, 58, 0
2, 206904, Note_on_c, 0, 63, 0
2, 207188, Note_on_c, 0, 82, 0
2, 207240, Control_c, 0, 64, 0
2, 207324, Note_on_c, 0, 62, 16
2, 207328, Note_on_c, 0, 79, 21
2, 207328, Note_on_c, 0, 74, 14
2, 207336, Note_on_c, 0, 51, 14
2, 207360, Note_on_c, 0, 57, 15
2, 207460, Control_c, 0, 64, 127
2, 207772, Note_on_c, 0, 74, 0
2, 207808, Note_on_c, 0, 86, 19
2, 207828, Note_on_c, 0, 79, 0
2, 208328, Note_on_c, 0, 86, 0
2, 208628, Note_on_c, 0, 91, 15
2, 208884, Note_on_c, 0, 91, 0
2, 209108, Note_on_c, 0, 95, 14
2, 209252, Note_on_c, 0, 95, 0
2, 209516, Note_on_c, 0, 98, 13
2, 209664, Note_on_c, 0, 98, 0
2, 209916, Note_on_c, 0, 103, 11
2, 210132, Note_on_c, 0, 57, 0
2, 210144, Note_on_c, 0, 62, 0
2, 210264, Note_on_c, 0, 51, 0
2, 210312, Note_on_c, 0, 103, 0
2, 211140, System_exclusive, 9, 67, 16, 76, 3, 0, 0, 64, 0, 247
2, 211140, System_exclusive, 8, 67, 16, 76, 3, 0, 12, 127, 247
2, 211140, Control_c, 0, 64, 0
2, 211140, End_track
3, 0, Start_track
3, 0, Title_t, "Track 2"
3, 386, Control_c, 1, 0, 0
3, 386, Program_c, 1, 35
3, 387, Control_c, 1, 7, 103
3, 387, Control_c, 1, 10, 64
3, 387, Control_c, 1, 91, 0
3, 387, Control_c, 1, 93, 40
3, 1556, Note_on_c, 1, 48, 71
3, 1856, Note_on_c, 1, 48, 0
3, 1956, Note_on_c, 1, 43, 42
3, 2264, Note_on_c, 1, 43, 0
3, 2336, Note_on_c, 1, 39, 42
3, 2644, Note_on_c, 1, 39, 0
3, 2688, Note_on_c, 1, 38, 52
3, 3092, Note_on_c, 1, 38, 0
3, 3108, Note_on_c, 1, 36, 57
3, 3476, Note_on_c, 1, 39, 58
3, 3480, Note_on_c, 1, 36, 0
3, 3780, Note_on_c, 1, 39, 0
3, 3888, Note_on_c, 1, 43, 73
3, 4052, Note_on_c, 1, 43, 0
3, 4116, Note_on_c, 1, 39, 55
3, 4232, Note_on_c, 1, 39, 0
3, 4264, Note_on_c, 1, 42, 74
3, 4600, Note_on_c, 1, 42, 0
3, 4640, Note_on_c, 1, 41, 63
3, 4748, Note_on_c, 1, 41, 0
3, 4900, Note_on_c, 1, 36, 73
3, 5004, Note_on_c, 1, 36, 0
3, 5024, Note_on_c, 1, 32, 74
3, 5416, Note_on_c, 1, 32, 0
3, 5428, Note_on_c, 1, 31, 60
3, 5752, Note_on_c, 1, 31, 0
3, 5760, Note_on_c, 1, 30, 60
3, 6116, Note_on_c, 1, 30, 0
3, 6152, Note_on_c, 1, 29, 68
3, 6496, Note_on_c, 1, 29, 0
3, 6528, Note_on_c, 1, 40, 96
3, 6912, Note_on_c, 1, 40, 0
3, 6916, Note_on_c, 1, 37, 70
3, 7240, Note_on_c, 1, 37, 0
3, 7284, Note_on_c, 1, 39, 88
3, 7640, Note_on_c, 1, 39, 0
3, 7688, Note_on_c, 1, 38, 66
3, 7968, Note_on_c, 1, 37, 68
3, 8024, Note_on_c, 1, 38, 0
3, 8068, Note_on_c, 1, 44, 88
3, 8084, Note_on_c, 1, 37, 0
3, 8440, Note_on_c, 1, 44, 0
3, 8476, Note_on_c, 1, 48, 81
3, 8840, Note_on_c, 1, 44, 81
3, 8864, Note_on_c, 1, 48, 0
3, 9240, Note_on_c, 1, 44, 0
3, 9252, Note_on_c, 1, 43, 64
3, 9512, Note_on_c, 1, 38, 59
3, 9560, Note_on_c, 1, 43, 0
3, 9620, Note_on_c, 1, 50, 102
3, 9624, Note_on_c, 1, 38, 0
3, 9980, Note_on_c, 1, 50, 0
3, 10000, Note_on_c, 1, 47, 74
3, 10252, Note_on_c, 1, 47, 0
3, 10256, Note_on_c, 1, 38, 72
3, 10356, Note_on_c, 1, 38, 0
3, 10392, Note_on_c, 1, 35, 67
3, 10756, Note_on_c, 1, 35, 0
3, 10784, Note_on_c, 1, 36, 64
3, 11008, Note_on_c, 1, 36, 0
3, 11036, Note_on_c, 1, 34, 49
3, 11076, Note_on_c, 1, 34, 0
3, 11080, Note_on_c, 1, 36, 60
3, 11152, Note_on_c, 1, 51, 87
3, 11208, Note_on_c, 1, 36, 0
3, 11496, Note_on_c, 1, 51, 0
3, 11560, Note_on_c, 1, 50, 50
3, 11880, Note_on_c, 1, 50, 0
3, 11912, Note_on_c, 1, 48, 71
3, 12224, Note_on_c, 1, 43, 53
3, 12244, Note_on_c, 1, 48, 0
3, 12272, Note_on_c, 1, 43, 0
3, 12324, Note_on_c, 1, 51, 82
3, 12716, Note_on_c, 1, 50, 65
3, 12920, Note_on_c, 1, 51, 0
3, 13044, Note_on_c, 1, 50, 0
3, 13088, Note_on_c, 1, 38, 99
3, 13476, Note_on_c, 1, 40, 83
3, 13516, Note_on_c, 1, 38, 0
3, 13752, Note_on_c, 1, 40, 0
3, 13752, Note_on_c, 1, 38, 72
3, 13832, Note_on_c, 1, 38, 0
3, 13912, Note_on_c, 1, 39, 82
3, 14260, Note_on_c, 1, 46, 66
3, 14284, Note_on_c, 1, 39, 0
3, 14592, Note_on_c, 1, 46, 0
3, 14652, Note_on_c, 1, 51, 70
3, 14896, Note_on_c, 1, 42, 66
3, 14928, Note_on_c, 1, 51, 0
3, 14972, Note_on_c, 1, 42, 0
3, 15020, Note_on_c, 1, 45, 68
3, 15048, Note_on_c, 1, 46, 42
3, 15112, Note_on_c, 1, 46, 0
3, 15280, Note_on_c, 1, 39, 31
3, 15340, Note_on_c, 1, 39, 0
3, 15364, Note_on_c, 1, 45, 0
3, 15392, Note_on_c, 1, 44, 64
3, 15772, Note_on_c, 1, 44, 0
3, 15776, Note_on_c, 1, 39, 61
3, 16124, Note_on_c, 1, 39, 0
3, 16160, Note_on_c, 1, 32, 56
3, 16504, Note_on_c, 1, 32, 0
3, 16536, Note_on_c, 1, 36, 64
3, 16872, Note_on_c, 1, 36, 0
3, 16932, Note_on_c, 1, 37, 60
3, 17288, Note_on_c, 1, 44, 61
3, 17300, Note_on_c, 1, 37, 0
3, 17572, Note_on_c, 1, 44, 0
3, 17588, Note_on_c, 1, 37, 56
3, 17680, Note_on_c, 1, 37, 0
3, 17680, Note_on_c, 1, 54, 36
3, 17692, Note_on_c, 1, 53, 66
3, 17940, Note_on_c, 1, 54, 0
3, 17968, Note_on_c, 1, 37, 37
3, 17992, Note_on_c, 1, 53, 0
3, 18040, Note_on_c, 1, 37, 0
3, 18080, Note_on_c, 1, 51, 74
3, 18356, Note_on_c, 1, 42, 31
3, 18428, Note_on_c, 1, 42, 0
3, 18440, Note_on_c, 1, 51, 0
3, 18476, Note_on_c, 1, 49, 57
3, 18764, Note_on_c, 1, 49, 0
3, 18840, Note_on_c, 1, 48, 56
3, 19080, Note_on_c, 1, 44, 45
3, 19132, Note_on_c, 1, 44, 0
3, 19180, Note_on_c, 1, 48, 0
3, 19228, Note_on_c, 1, 49, 64
3, 19536, Note_on_c, 1, 44, 59
3, 19564, Note_on_c, 1, 49, 0
3, 19592, Note_on_c, 1, 44, 0
3, 19616, Note_on_c, 1, 50, 96
3, 19996, Note_on_c, 1, 44, 62
3, 20004, Note_on_c, 1, 50, 0
3, 20368, Note_on_c, 1, 38, 64
3, 20388, Note_on_c, 1, 44, 0
3, 20772, Note_on_c, 1, 38, 0
3, 20772, Note_on_c, 1, 44, 73
3, 21116, Note_on_c, 1, 44, 0
3, 21140, Note_on_c, 1, 42, 59
3, 21464, Note_on_c, 1, 42, 0
3, 21500, Note_on_c, 1, 43, 65
3, 21872, Note_on_c, 1, 43, 0
3, 21900, Note_on_c, 1, 38, 77
3, 22252, Note_on_c, 1, 38, 0
3, 22296, Note_on_c, 1, 35, 61
3, 22556, Note_on_c, 1, 38, 72
3, 22560, Note_on_c, 1, 35, 0
3, 22648, Note_on_c, 1, 38, 0
3, 22672, Note_on_c, 1, 50, 80
3, 23008, Note_on_c, 1, 50, 0
3, 23056, Note_on_c, 1, 48, 74
3, 23400, Note_on_c, 1, 48, 0
3, 23436, Note_on_c, 1, 42, 85
3, 23782, Note_on_c, 1, 42, 0
3, 23820, Note_on_c, 1, 43, 73
3, 24188, Note_on_c, 1, 43, 0
3, 24196, Note_on_c, 1, 38, 69
3, 24572, Note_on_c, 1, 38, 0
3, 24596, Note_on_c, 1, 31, 86
3, 25200, Note_on_c, 1, 34, 87
3, 25228, Note_on_c, 1, 31, 0
3, 25596, Note_on_c, 1, 35, 72
3, 25616, Note_on_c, 1, 34, 0
3, 25764, Note_on_c, 1, 36, 72
3, 25788, Note_on_c, 1, 35, 0
3, 26444, Note_on_c, 1, 34, 52
3, 26516, Note_on_c, 1, 36, 0
3, 26520, Note_on_c, 1, 43, 63
3, 26568, Note_on_c, 1, 34, 0
3, 26852, Note_on_c, 1, 43, 0
3, 26912, Note_on_c, 1, 51, 65
3, 26952, Note_on_c, 1, 51, 0
3, 27228, Note_on_c, 1, 41, 37
3, 27264, Note_on_c, 1, 50, 67
3, 27284, Note_on_c, 1, 41, 0
3, 27600, Note_on_c, 1, 41, 23
3, 27624, Note_on_c, 1, 50, 0
3, 27640, Note_on_c, 1, 41, 0
3, 27712, Note_on_c, 1, 48, 49
3, 27728, Note_on_c, 1, 49, 39
3, 27796, Note_on_c, 1, 49, 0
3, 27972, Note_on_c, 1, 39, 56
3, 28016, Note_on_c, 1, 39, 0
3, 28024, Note_on_c, 1, 48, 0
3, 28072, Note_on_c, 1, 43, 59
3, 28388, Note_on_c, 1, 43, 0
3, 28460, Note_on_c, 1, 42, 61
3, 28732, Note_on_c, 1, 42, 0
3, 28816, Note_on_c, 1, 40, 67
3, 29140, Note_on_c, 1, 40, 0
3, 29192, Note_on_c, 1, 41, 46
3, 29260, Note_on_c, 1, 41, 0
3, 29468, Note_on_c, 1, 41, 62
3, 29568, Note_on_c, 1, 41, 0
3, 29584, Note_on_c, 1, 36, 75
3, 29976, Note_on_c, 1, 32, 70
3, 30000, Note_on_c, 1, 36, 0
3, 30316, Note_on_c, 1, 32, 0
3, 30352, Note_on_c, 1, 31, 68
3, 30692, Note_on_c, 1, 31, 0
3, 30752, Note_on_c, 1, 29, 74
3, 31096, Note_on_c, 1, 29, 0
3, 31128, Note_on_c, 1, 31, 55
3, 31496, Note_on_c, 1, 31, 0
3, 31528, Note_on_c, 1, 32, 63
3, 31800, Note_on_c, 1, 32, 0
3, 31832, Note_on_c, 1, 39, 89
3, 31860, Note_on_c, 1, 37, 61
3, 31988, Note_on_c, 1, 37, 0
3, 32264, Note_on_c, 1, 39, 0
3, 32332, Note_on_c, 1, 38, 68
3, 32620, Note_on_c, 1, 34, 39
3, 32628, Note_on_c, 1, 32, 34
3, 32648, Note_on_c, 1, 38, 0
3, 32672, Note_on_c, 1, 44, 88
3, 32680, Note_on_c, 1, 34, 0
3, 32692, Note_on_c, 1, 32, 0
3, 33072, Note_on_c, 1, 41, 61
3, 33128, Note_on_c, 1, 44, 0
3, 33232, Note_on_c, 1, 41, 0
3, 33304, Note_on_c, 1, 38, 72
3, 33404, Note_on_c, 1, 38, 0
3, 33428, Note_on_c, 1, 32, 72
3, 33776, Note_on_c, 1, 32, 0
3, 33828, Note_on_c, 1, 31, 66
3, 34104, Note_on_c, 1, 35, 68
3, 34140, Note_on_c, 1, 31, 0
3, 34204, Note_on_c, 1, 47, 92
3, 34208, Note_on_c, 1, 35, 0
3, 34560, Note_on_c, 1, 47, 0
3, 34604, Note_on_c, 1, 43, 57
3, 34612, Note_on_c, 1, 44, 28
3, 34660, Note_on_c, 1, 44, 0
3, 34952, Note_on_c, 1, 43, 0
3, 34956, Note_on_c, 1, 35, 75
3, 35280, Note_on_c, 1, 35, 0
3, 35292, Note_on_c, 1, 36, 77
3, 35656, Note_on_c, 1, 34, 63
3, 35728, Note_on_c, 1, 48, 77
3, 35732, Note_on_c, 1, 36, 0
3, 35760, Note_on_c, 1, 34, 0
3, 36012, Note_on_c, 1, 42, 48
3, 36064, Note_on_c, 1, 42, 0
3, 36068, Note_on_c, 1, 48, 0
3, 36124, Note_on_c, 1, 51, 85
3, 36452, Note_on_c, 1, 43, 44
3, 36484, Note_on_c, 1, 51, 0
3, 36504, Note_on_c, 1, 43, 0
3, 36504, Note_on_c, 1, 50, 62
3, 36864, Note_on_c, 1, 50, 0
3, 36900, Note_on_c, 1, 48, 53
3, 37196, Note_on_c, 1, 43, 58
3, 37200, Note_on_c, 1, 48, 0
3, 37244, Note_on_c, 1, 43, 0
3, 37264, Note_on_c, 1, 53, 63
3, 37604, Note_on_c, 1, 43, 41
3, 37652, Note_on_c, 1, 43, 0
3, 37656, Note_on_c, 1, 52, 61
3, 37668, Note_on_c, 1, 53, 0
3, 37960, Note_on_c, 1, 43, 49
3, 37984, Note_on_c, 1, 52, 0
3, 38012, Note_on_c, 1, 43, 0
3, 38036, Note_on_c, 1, 50, 65
3, 38308, Note_on_c, 1, 43, 46
3, 38352, Note_on_c, 1, 43, 0
3, 38372, Note_on_c, 1, 50, 0
3, 38420, Note_on_c, 1, 51, 77
3, 38664, Note_on_c, 1, 46, 46
3, 38724, Note_on_c, 1, 46, 0
3, 38792, Note_on_c, 1, 51, 0
3, 38812, Note_on_c, 1, 49, 74
3, 39168, Note_on_c, 1, 49, 0
3, 39180, Note_on_c, 1, 46, 84
3, 39504, Note_on_c, 1, 46, 0
3, 39548, Note_on_c, 1, 45, 76
3, 39916, Note_on_c, 1, 45, 0
3, 39968, Note_on_c, 1, 44, 68
3, 40216, Note_on_c, 1, 42, 67
3, 40240, Note_on_c, 1, 44, 0
3, 40336, Note_on_c, 1, 42, 0
3, 40336, Note_on_c, 1, 51, 90
3, 40584, Note_on_c, 1, 44, 39
3, 40644, Note_on_c, 1, 44, 0
3, 40720, Note_on_c, 1, 49, 66
3, 40944, Note_on_c, 1, 51, 0
3, 40964, Note_on_c, 1, 44, 72
3, 40972, Note_on_c, 1, 49, 0
3, 41092, Note_on_c, 1, 48, 75
3, 41116, Note_on_c, 1, 44, 0
3, 41364, Note_on_c, 1, 44, 56
3, 41404, Note_on_c, 1, 44, 0
3, 41432, Note_on_c, 1, 48, 0
3, 41488, Note_on_c, 1, 49, 81
3, 41872, Note_on_c, 1, 49, 0
3, 41892, Note_on_c, 1, 44, 72
3, 42220, Note_on_c, 1, 44, 0
3, 42260, Note_on_c, 1, 37, 63
3, 42540, Note_on_c, 1, 44, 56
3, 42576, Note_on_c, 1, 37, 0
3, 42588, Note_on_c, 1, 44, 0
3, 42632, Note_on_c, 1, 53, 102
3, 42924, Note_on_c, 1, 44, 48
3, 42968, Note_on_c, 1, 44, 0
3, 42992, Note_on_c, 1, 53, 0
3, 43032, Note_on_c, 1, 49, 67
3, 43404, Note_on_c, 1, 44, 77
3, 43432, Note_on_c, 1, 49, 0
3, 43752, Note_on_c, 1, 44, 0
3, 43788, Note_on_c, 1, 36, 61
3, 44136, Note_on_c, 1, 36, 0
3, 44168, Note_on_c, 1, 37, 79
3, 44568, Note_on_c, 1, 37, 0
3, 44568, Note_on_c, 1, 38, 75
3, 44860, Note_on_c, 1, 37, 60
3, 44904, Note_on_c, 1, 38, 0
3, 44936, Note_on_c, 1, 44, 89
3, 44984, Note_on_c, 1, 37, 0
3, 45212, Note_on_c, 1, 37, 38
3, 45264, Note_on_c, 1, 37, 0
3, 45596, Note_on_c, 1, 37, 57
3, 45632, Note_on_c, 1, 37, 0
3, 45636, Note_on_c, 1, 44, 0
3, 45644, Note_on_c, 1, 41, 82
3, 45732, Note_on_c, 1, 42, 68
3, 45748, Note_on_c, 1, 41, 0
3, 46008, Note_on_c, 1, 37, 46
3, 46048, Note_on_c, 1, 37, 0
3, 46128, Note_on_c, 1, 43, 78
3, 46132, Note_on_c, 1, 42, 0
3, 46396, Note_on_c, 1, 38, 87
3, 46408, Note_on_c, 1, 43, 0
3, 46536, Note_on_c, 1, 35, 84
3, 46588, Note_on_c, 1, 38, 0
3, 47100, Note_on_c, 1, 35, 0
3, 47120, Note_on_c, 1, 38, 82
3, 47136, Note_on_c, 1, 31, 78
3, 47200, Note_on_c, 1, 38, 0
3, 47296, Note_on_c, 1, 35, 61
3, 47590, Note_on_c, 1, 35, 0
3, 47616, Note_on_c, 1, 36, 79
3, 47644, Note_on_c, 1, 31, 0
3, 47936, Note_on_c, 1, 34, 60
3, 47980, Note_on_c, 1, 36, 0
3, 48004, Note_on_c, 1, 39, 77
3, 48040, Note_on_c, 1, 34, 0
3, 48336, Note_on_c, 1, 36, 46
3, 48344, Note_on_c, 1, 39, 0
3, 48384, Note_on_c, 1, 36, 0
3, 48404, Note_on_c, 1, 43, 72
3, 48684, Note_on_c, 1, 36, 52
3, 48732, Note_on_c, 1, 36, 0
3, 48736, Note_on_c, 1, 43, 0
3, 48780, Note_on_c, 1, 42, 66
3, 49032, Note_on_c, 1, 37, 35
3, 49092, Note_on_c, 1, 37, 0
3, 49176, Note_on_c, 1, 42, 0
3, 49192, Note_on_c, 1, 43, 75
3, 49556, Note_on_c, 1, 43, 0
3, 49568, Note_on_c, 1, 31, 81
3, 49960, Note_on_c, 1, 38, 81
3, 50080, Note_on_c, 1, 31, 0
3, 50264, Note_on_c, 1, 38, 0
3, 50328, Note_on_c, 1, 35, 75
3, 50688, Note_on_c, 1, 35, 0
3, 50736, Note_on_c, 1, 36, 68
3, 50960, Note_on_c, 1, 36, 0
3, 50996, Note_on_c, 1, 34, 75
3, 51052, Note_on_c, 1, 34, 0
3, 51104, Note_on_c, 1, 43, 72
3, 51408, Note_on_c, 1, 42, 48
3, 51440, Note_on_c, 1, 43, 0
3, 51472, Note_on_c, 1, 42, 0
3, 51512, Note_on_c, 1, 51, 75
3, 51804, Note_on_c, 1, 42, 39
3, 51832, Note_on_c, 1, 51, 0
3, 51860, Note_on_c, 1, 42, 0
3, 51884, Note_on_c, 1, 50, 60
3, 52128, Note_on_c, 1, 42, 45
3, 52184, Note_on_c, 1, 42, 0
3, 52212, Note_on_c, 1, 50, 0
3, 52268, Note_on_c, 1, 48, 63
3, 52612, Note_on_c, 1, 48, 0
3, 52632, Note_on_c, 1, 42, 69
3, 52992, Note_on_c, 1, 42, 0
3, 53028, Note_on_c, 1, 43, 76
3, 53388, Note_on_c, 1, 43, 0
3, 53412, Note_on_c, 1, 40, 75
3, 53748, Note_on_c, 1, 40, 0
3, 53796, Note_on_c, 1, 41, 69
3, 54132, Note_on_c, 1, 41, 0
3, 54168, Note_on_c, 1, 36, 68
3, 54510, Note_on_c, 1, 36, 0
3, 54572, Note_on_c, 1, 32, 60
3, 54672, Note_on_c, 1, 32, 0
3, 54804, Note_on_c, 1, 32, 54
3, 54952, Note_on_c, 1, 31, 65
3, 54984, Note_on_c, 1, 32, 0
3, 55276, Note_on_c, 1, 31, 0
3, 55312, Note_on_c, 1, 29, 70
3, 55640, Note_on_c, 1, 29, 0
3, 55712, Note_on_c, 1, 41, 72
3, 55720, Note_on_c, 1, 40, 74
3, 56016, Note_on_c, 1, 41, 0
3, 56036, Note_on_c, 1, 40, 0
3, 56096, Note_on_c, 1, 37, 67
3, 56392, Note_on_c, 1, 37, 0
3, 56460, Note_on_c, 1, 37, 78
3, 56820, Note_on_c, 1, 37, 0
3, 56856, Note_on_c, 1, 38, 75
3, 57148, Note_on_c, 1, 37, 52
3, 57192, Note_on_c, 1, 38, 0
3, 57196, Note_on_c, 1, 37, 0
3, 57268, Note_on_c, 1, 44, 84
3, 57516, Note_on_c, 1, 39, 43
3, 57560, Note_on_c, 1, 39, 0
3, 57596, Note_on_c, 1, 44, 0
3, 57640, Note_on_c, 1, 48, 77
3, 58032, Note_on_c, 1, 42, 79
3, 58036, Note_on_c, 1, 48, 0
3, 58368, Note_on_c, 1, 42, 0
3, 58412, Note_on_c, 1, 43, 72
3, 58752, Note_on_c, 1, 43, 0
3, 58788, Note_on_c, 1, 47, 85
3, 59108, Note_on_c, 1, 38, 28
3, 59120, Note_on_c, 1, 47, 0
3, 59176, Note_on_c, 1, 53, 77
3, 59200, Note_on_c, 1, 38, 0
3, 59444, Note_on_c, 1, 38, 59
3, 59484, Note_on_c, 1, 53, 0
3, 59544, Note_on_c, 1, 38, 0
3, 59552, Note_on_c, 1, 51, 81
3, 59852, Note_on_c, 1, 38, 42
3, 59884, Note_on_c, 1, 51, 0
3, 59904, Note_on_c, 1, 38, 0
3, 59952, Note_on_c, 1, 50, 59
3, 59980, Note_on_c, 1, 51, 39
3, 60044, Note_on_c, 1, 51, 0
3, 60216, Note_on_c, 1, 38, 52
3, 60244, Note_on_c, 1, 50, 0
3, 60264, Note_on_c, 1, 38, 0
3, 60304, Note_on_c, 1, 49, 75
3, 60648, Note_on_c, 1, 49, 0
3, 60712, Note_on_c, 1, 48, 66
3, 61040, Note_on_c, 1, 48, 0
3, 61068, Note_on_c, 1, 43, 75
3, 61448, Note_on_c, 1, 43, 0
3, 61468, Note_on_c, 1, 39, 80
3, 61792, Note_on_c, 1, 39, 0
3, 61828, Note_on_c, 1, 38, 72
3, 62180, Note_on_c, 1, 38, 0
3, 62228, Note_on_c, 1, 36, 64
3, 62552, Note_on_c, 1, 36, 0
3, 62608, Note_on_c, 1, 38, 78
3, 62896, Note_on_c, 1, 38, 0
3, 63000, Note_on_c, 1, 39, 71
3, 63384, Note_on_c, 1, 51, 86
3, 63428, Note_on_c, 1, 39, 0
3, 63728, Note_on_c, 1, 51, 0
3, 63824, Note_on_c, 1, 48, 31
3, 63876, Note_on_c, 1, 48, 0
3, 64116, Note_on_c, 1, 44, 70
3, 64460, Note_on_c, 1, 44, 0
3, 64556, Note_on_c, 1, 44, 79
3, 64932, Note_on_c, 1, 32, 54
3, 65160, Note_on_c, 1, 44, 0
3, 65312, Note_on_c, 1, 44, 81
3, 65416, Note_on_c, 1, 44, 0
3, 65724, Note_on_c, 1, 44, 84
3, 66060, Note_on_c, 1, 44, 0
3, 66492, Note_on_c, 1, 44, 83
3, 66664, Note_on_c, 1, 44, 0
3, 66872, Note_on_c, 1, 44, 90
3, 67056, Note_on_c, 1, 32, 0
3, 67256, Note_on_c, 1, 32, 80
3, 67292, Note_on_c, 1, 44, 0
3, 67628, Note_on_c, 1, 44, 82
3, 67736, Note_on_c, 1, 44, 0
3, 68028, Note_on_c, 1, 44, 90
3, 68404, Note_on_c, 1, 51, 87
3, 68456, Note_on_c, 1, 44, 0
3, 68524, Note_on_c, 1, 32, 0
3, 68760, Note_on_c, 1, 51, 0
3, 68776, Note_on_c, 1, 49, 78
3, 68988, Note_on_c, 1, 49, 0
3, 69024, Note_on_c, 1, 50, 92
3, 69316, Note_on_c, 1, 50, 0
3, 69380, Note_on_c, 1, 44, 90
3, 69484, Note_on_c, 1, 44, 0
3, 69536, Note_on_c, 1, 41, 68
3, 69804, Note_on_c, 1, 41, 0
3, 69884, Note_on_c, 1, 38, 72
3, 70224, Note_on_c, 1, 38, 0
3, 70260, Note_on_c, 1, 42, 72
3, 70592, Note_on_c, 1, 42, 0
3, 70644, Note_on_c, 1, 43, 81
3, 70808, Note_on_c, 1, 43, 0
3, 70896, Note_on_c, 1, 43, 68
3, 71012, Note_on_c, 1, 38, 78
3, 71032, Note_on_c, 1, 43, 0
3, 71396, Note_on_c, 1, 38, 0
3, 71440, Note_on_c, 1, 35, 60
3, 71764, Note_on_c, 1, 35, 0
3, 71796, Note_on_c, 1, 38, 69
3, 72144, Note_on_c, 1, 38, 0
3, 72196, Note_on_c, 1, 36, 67
3, 72460, Note_on_c, 1, 34, 51
3, 72496, Note_on_c, 1, 34, 0
3, 72560, Note_on_c, 1, 43, 73
3, 72580, Note_on_c, 1, 36, 0
3, 72816, Note_on_c, 1, 36, 48
3, 72872, Note_on_c, 1, 36, 0
3, 72892, Note_on_c, 1, 43, 0
3, 72972, Note_on_c, 1, 51, 71
3, 73364, Note_on_c, 1, 51, 0
3, 73364, Note_on_c, 1, 42, 78
3, 73704, Note_on_c, 1, 42, 0
3, 73752, Note_on_c, 1, 43, 76
3, 74000, Note_on_c, 1, 42, 53
3, 74048, Note_on_c, 1, 43, 0
3, 74124, Note_on_c, 1, 42, 0
3, 74124, Note_on_c, 1, 47, 74
3, 74384, Note_on_c, 1, 44, 50
3, 74424, Note_on_c, 1, 44, 0
3, 74468, Note_on_c, 1, 47, 0
3, 74524, Note_on_c, 1, 50, 73
3, 74812, Note_on_c, 1, 50, 0
3, 74816, Note_on_c, 1, 43, 63
3, 74904, Note_on_c, 1, 43, 0
3, 74904, Note_on_c, 1, 53, 85
3, 75224, Note_on_c, 1, 43, 48
3, 75232, Note_on_c, 1, 53, 0
3, 75272, Note_on_c, 1, 43, 0
3, 75300, Note_on_c, 1, 51, 84
3, 75580, Note_on_c, 1, 43, 57
3, 75620, Note_on_c, 1, 51, 0
3, 75632, Note_on_c, 1, 43, 0
3, 75692, Note_on_c, 1, 50, 98
3, 76032, Note_on_c, 1, 50, 0
3, 76076, Note_on_c, 1, 48, 81
3, 76412, Note_on_c, 1, 48, 0
3, 76456, Note_on_c, 1, 42, 75
3, 76812, Note_on_c, 1, 42, 0
3, 76852, Note_on_c, 1, 43, 68
3, 77200, Note_on_c, 1, 43, 0
3, 77216, Note_on_c, 1, 39, 80
3, 77572, Note_on_c, 1, 39, 0
3, 77608, Note_on_c, 1, 36, 66
3, 77980, Note_on_c, 1, 36, 0
3, 77988, Note_on_c, 1, 40, 89
3, 78336, Note_on_c, 1, 40, 0
3, 78372, Note_on_c, 1, 41, 81
3, 78612, Note_on_c, 1, 36, 73
3, 78640, Note_on_c, 1, 41, 0
3, 78740, Note_on_c, 1, 36, 0
3, 78740, Note_on_c, 1, 32, 80
3, 79080, Note_on_c, 1, 32, 0
3, 79100, Note_on_c, 1, 31, 66
3, 79396, Note_on_c, 1, 32, 25
3, 79404, Note_on_c, 1, 31, 0
3, 79456, Note_on_c, 1, 32, 0
3, 79468, Note_on_c, 1, 30, 68
3, 79820, Note_on_c, 1, 30, 0
3, 79884, Note_on_c, 1, 29, 65
3, 80272, Note_on_c, 1, 36, 80
3, 80284, Note_on_c, 1, 29, 0
3, 80648, Note_on_c, 1, 36, 0
3, 80692, Note_on_c, 1, 41, 79
3, 81012, Note_on_c, 1, 41, 0
3, 81056, Note_on_c, 1, 37, 76
3, 81408, Note_on_c, 1, 37, 0
3, 81432, Note_on_c, 1, 38, 73
3, 81808, Note_on_c, 1, 38, 0
3, 81828, Note_on_c, 1, 32, 74
3, 82192, Note_on_c, 1, 32, 0
3, 82212, Note_on_c, 1, 29, 75
3, 82532, Note_on_c, 1, 29, 0
3, 82576, Note_on_c, 1, 30, 89
3, 82936, Note_on_c, 1, 30, 0
3, 82960, Note_on_c, 1, 31, 78
3, 83340, Note_on_c, 1, 31, 0
3, 83360, Note_on_c, 1, 32, 85
3, 83760, Note_on_c, 1, 33, 85
3, 83784, Note_on_c, 1, 32, 0
3, 84108, Note_on_c, 1, 33, 0
3, 84122, Note_on_c, 1, 35, 80
3, 84502, Note_on_c, 1, 35, 0
3, 84512, Note_on_c, 1, 36, 70
3, 84820, Note_on_c, 1, 34, 49
3, 84876, Note_on_c, 1, 34, 0
3, 84876, Note_on_c, 1, 36, 0
3, 84888, Note_on_c, 1, 38, 57
3, 84924, Note_on_c, 1, 40, 36
3, 84980, Note_on_c, 1, 40, 0
3, 85208, Note_on_c, 1, 36, 52
3, 85228, Note_on_c, 1, 38, 0
3, 85264, Note_on_c, 1, 36, 0
3, 85280, Note_on_c, 1, 39, 81
3, 85592, Note_on_c, 1, 36, 56
3, 85628, Note_on_c, 1, 39, 0
3, 85656, Note_on_c, 1, 36, 0
3, 85688, Note_on_c, 1, 43, 80
3, 85944, Note_on_c, 1, 43, 0
3, 85956, Note_on_c, 1, 36, 64
3, 86068, Note_on_c, 1, 36, 0
3, 86068, Note_on_c, 1, 52, 81
3, 86340, Note_on_c, 1, 52, 0
3, 86384, Note_on_c, 1, 41, 38
3, 86436, Note_on_c, 1, 41, 0
3, 86436, Note_on_c, 1, 49, 59
3, 86736, Note_on_c, 1, 42, 41
3, 86784, Note_on_c, 1, 49, 0
3, 86800, Note_on_c, 1, 42, 0
3, 86804, Note_on_c, 1, 48, 68
3, 87104, Note_on_c, 1, 48, 0
3, 87148, Note_on_c, 1, 38, 36
3, 87176, Note_on_c, 1, 45, 63
3, 87204, Note_on_c, 1, 38, 0
3, 87456, Note_on_c, 1, 45, 0
3, 87456, Note_on_c, 1, 39, 48
3, 87568, Note_on_c, 1, 51, 77
3, 87584, Note_on_c, 1, 39, 0
3, 87892, Note_on_c, 1, 51, 0
3, 87900, Note_on_c, 1, 41, 36
3, 87952, Note_on_c, 1, 41, 0
3, 87964, Note_on_c, 1, 51, 81
3, 88248, Note_on_c, 1, 41, 49
3, 88292, Note_on_c, 1, 41, 0
3, 88312, Note_on_c, 1, 51, 0
3, 88340, Note_on_c, 1, 46, 65
3, 88652, Note_on_c, 1, 41, 46
3, 88680, Note_on_c, 1, 46, 0
3, 88692, Note_on_c, 1, 41, 0
3, 88732, Note_on_c, 1, 45, 69
3, 88984, Note_on_c, 1, 39, 36
3, 89044, Note_on_c, 1, 39, 0
3, 89068, Note_on_c, 1, 45, 0
3, 89096, Note_on_c, 1, 44, 68
3, 89476, Note_on_c, 1, 44, 0
3, 89484, Note_on_c, 1, 39, 72
3, 89864, Note_on_c, 1, 39, 0
3, 89868, Note_on_c, 1, 32, 78
3, 90212, Note_on_c, 1, 32, 0
3, 90248, Note_on_c, 1, 36, 74
3, 90592, Note_on_c, 1, 36, 0
3, 90640, Note_on_c, 1, 37, 81
3, 90940, Note_on_c, 1, 37, 0
3, 91024, Note_on_c, 1, 37, 72
3, 91336, Note_on_c, 1, 37, 0
3, 91432, Note_on_c, 1, 39, 84
3, 91728, Note_on_c, 1, 39, 0
3, 91792, Note_on_c, 1, 39, 84
3, 92088, Note_on_c, 1, 39, 0
3, 92176, Note_on_c, 1, 41, 81
3, 92496, Note_on_c, 1, 41, 0
3, 92564, Note_on_c, 1, 41, 82
3, 92896, Note_on_c, 1, 41, 0
3, 92940, Note_on_c, 1, 37, 73
3, 93252, Note_on_c, 1, 37, 0
3, 93320, Note_on_c, 1, 37, 75
3, 93676, Note_on_c, 1, 37, 0
3, 93712, Note_on_c, 1, 38, 66
3, 93976, Note_on_c, 1, 37, 66
3, 94000, Note_on_c, 1, 38, 0
3, 94012, Note_on_c, 1, 37, 0
3, 94100, Note_on_c, 1, 41, 68
3, 94440, Note_on_c, 1, 41, 0
3, 94472, Note_on_c, 1, 44, 78
3, 94808, Note_on_c, 1, 38, 34
3, 94824, Note_on_c, 1, 44, 0
3, 94856, Note_on_c, 1, 42, 69
3, 94868, Note_on_c, 1, 38, 0
3, 95224, Note_on_c, 1, 42, 0
3, 95260, Note_on_c, 1, 43, 66
3, 95576, Note_on_c, 1, 43, 0
3, 95636, Note_on_c, 1, 35, 84
3, 96012, Note_on_c, 1, 35, 0
3, 96040, Note_on_c, 1, 38, 80
3, 96360, Note_on_c, 1, 38, 0
3, 96408, Note_on_c, 1, 35, 73
3, 96760, Note_on_c, 1, 35, 0
3, 96808, Note_on_c, 1, 36, 70
3, 97088, Note_on_c, 1, 34, 48
3, 97108, Note_on_c, 1, 36, 0
3, 97136, Note_on_c, 1, 34, 0
3, 97140, Note_on_c, 1, 43, 66
3, 97464, Note_on_c, 1, 36, 52
3, 97516, Note_on_c, 1, 36, 0
3, 97532, Note_on_c, 1, 43, 0
3, 97584, Note_on_c, 1, 51, 72
3, 97936, Note_on_c, 1, 51, 0
3, 97956, Note_on_c, 1, 43, 63
3, 98212, Note_on_c, 1, 43, 0
3, 98324, Note_on_c, 1, 43, 73
3, 98684, Note_on_c, 1, 43, 0
3, 98720, Note_on_c, 1, 42, 64
3, 99048, Note_on_c, 1, 42, 0
3, 99100, Note_on_c, 1, 43, 63
3, 99284, Note_on_c, 1, 43, 0
3, 99360, Note_on_c, 1, 38, 81
3, 99408, Note_on_c, 1, 38, 0
3, 99480, Note_on_c, 1, 35, 72
3, 99840, Note_on_c, 1, 35, 0
3, 99872, Note_on_c, 1, 36, 68
3, 100152, Note_on_c, 1, 34, 71
3, 100192, Note_on_c, 1, 36, 0
3, 100240, Note_on_c, 1, 51, 83
3, 100264, Note_on_c, 1, 34, 0
3, 100676, Note_on_c, 1, 43, 36
3, 100688, Note_on_c, 1, 51, 0
3, 100888, Note_on_c, 1, 43, 0
3, 100904, Note_on_c, 1, 39, 73
3, 101004, Note_on_c, 1, 39, 0
3, 101040, Note_on_c, 1, 43, 59
3, 101348, Note_on_c, 1, 43, 0
3, 101364, Note_on_c, 1, 36, 34
3, 101396, Note_on_c, 1, 51, 79
3, 101428, Note_on_c, 1, 36, 0
3, 101516, Note_on_c, 1, 52, 28
3, 101588, Note_on_c, 1, 52, 0
3, 101620, Note_on_c, 1, 51, 0
3, 101692, Note_on_c, 1, 37, 33
3, 101752, Note_on_c, 1, 37, 0
3, 101812, Note_on_c, 1, 43, 70
3, 102116, Note_on_c, 1, 36, 73
3, 102124, Note_on_c, 1, 43, 0
3, 102456, Note_on_c, 1, 36, 0
3, 102524, Note_on_c, 1, 40, 72
3, 102900, Note_on_c, 1, 40, 0
3, 102948, Note_on_c, 1, 41, 57
3, 103092, Note_on_c, 1, 41, 0
3, 103192, Note_on_c, 1, 41, 81
3, 103272, Note_on_c, 1, 41, 0
3, 103316, Note_on_c, 1, 44, 65
3, 103604, Note_on_c, 1, 36, 36
3, 103668, Note_on_c, 1, 36, 0
3, 103676, Note_on_c, 1, 44, 0
3, 103724, Note_on_c, 1, 48, 57
3, 103980, Note_on_c, 1, 36, 60
3, 104032, Note_on_c, 1, 48, 0
3, 104048, Note_on_c, 1, 36, 0
3, 104076, Note_on_c, 1, 43, 73
3, 104104, Note_on_c, 1, 44, 50
3, 104148, Note_on_c, 1, 44, 0
3, 104372, Note_on_c, 1, 36, 30
3, 104432, Note_on_c, 1, 36, 0
3, 104452, Note_on_c, 1, 43, 0
3, 104488, Note_on_c, 1, 41, 71
3, 104816, Note_on_c, 1, 41, 0
3, 104860, Note_on_c, 1, 36, 80
3, 105212, Note_on_c, 1, 36, 0
3, 105244, Note_on_c, 1, 32, 73
3, 105548, Note_on_c, 1, 32, 0
3, 105616, Note_on_c, 1, 32, 81
3, 105948, Note_on_c, 1, 32, 0
3, 106004, Note_on_c, 1, 34, 81
3, 106300, Note_on_c, 1, 34, 0
3, 106372, Note_on_c, 1, 34, 81
3, 106656, Note_on_c, 1, 34, 0
3, 106764, Note_on_c, 1, 43, 57
3, 106780, Note_on_c, 1, 42, 36
3, 106976, Note_on_c, 1, 42, 0
3, 106984, Note_on_c, 1, 43, 0
3, 107136, Note_on_c, 1, 37, 81
3, 107488, Note_on_c, 1, 37, 0
3, 107504, Note_on_c, 1, 44, 85
3, 107832, Note_on_c, 1, 38, 43
3, 107872, Note_on_c, 1, 44, 0
3, 107884, Note_on_c, 1, 38, 0
3, 107912, Note_on_c, 1, 43, 65
3, 108308, Note_on_c, 1, 35, 72
3, 108328, Note_on_c, 1, 43, 0
3, 108580, Note_on_c, 1, 35, 0
3, 108672, Note_on_c, 1, 35, 66
3, 109056, Note_on_c, 1, 35, 0
3, 109084, Note_on_c, 1, 36, 72
3, 109260, Note_on_c, 1, 36, 0
3, 109344, Note_on_c, 1, 36, 68
3, 109460, Note_on_c, 1, 36, 0
3, 109464, Note_on_c, 1, 43, 65
3, 109600, Note_on_c, 1, 43, 0
3, 109828, Note_on_c, 1, 51, 75
3, 110124, Note_on_c, 1, 51, 0
3, 110140, Note_on_c, 1, 41, 58
3, 110208, Note_on_c, 1, 41, 0
3, 110228, Note_on_c, 1, 50, 71
3, 110512, Note_on_c, 1, 41, 37
3, 110576, Note_on_c, 1, 41, 0
3, 110588, Note_on_c, 1, 50, 0
3, 110626, Note_on_c, 1, 48, 63
3, 111004, Note_on_c, 1, 48, 0
3, 111008, Note_on_c, 1, 41, 80
3, 111404, Note_on_c, 1, 38, 68
3, 111416, Note_on_c, 1, 41, 0
3, 111652, Note_on_c, 1, 38, 0
3, 111772, Note_on_c, 1, 38, 63
3, 112128, Note_on_c, 1, 38, 0
3, 112176, Note_on_c, 1, 39, 68
3, 112560, Note_on_c, 1, 46, 63
3, 112584, Note_on_c, 1, 39, 0
3, 112840, Note_on_c, 1, 39, 49
3, 112900, Note_on_c, 1, 46, 0
3, 112916, Note_on_c, 1, 39, 0
3, 112952, Note_on_c, 1, 51, 65
3, 113208, Note_on_c, 1, 51, 0
3, 113216, Note_on_c, 1, 39, 44
3, 113288, Note_on_c, 1, 39, 0
3, 113304, Note_on_c, 1, 45, 66
3, 113580, Note_on_c, 1, 39, 42
3, 113644, Note_on_c, 1, 39, 0
3, 113692, Note_on_c, 1, 44, 68
3, 113696, Note_on_c, 1, 45, 0
3, 113988, Note_on_c, 1, 39, 48
3, 114040, Note_on_c, 1, 39, 0
3, 114044, Note_on_c, 1, 44, 0
3, 114068, Note_on_c, 1, 51, 66
3, 114368, Note_on_c, 1, 39, 32
3, 114412, Note_on_c, 1, 51, 0
3, 114444, Note_on_c, 1, 39, 0
3, 114468, Note_on_c, 1, 44, 66
3, 114744, Note_on_c, 1, 39, 53
3, 114760, Note_on_c, 1, 44, 0
3, 114832, Note_on_c, 1, 39, 0
3, 114832, Note_on_c, 1, 50, 62
3, 115124, Note_on_c, 1, 39, 54
3, 115152, Note_on_c, 1, 50, 0
3, 115200, Note_on_c, 1, 39, 0
3, 115216, Note_on_c, 1, 49, 68
3, 115504, Note_on_c, 1, 39, 45
3, 115580, Note_on_c, 1, 39, 0
3, 115608, Note_on_c, 1, 44, 73
3, 115612, Note_on_c, 1, 49, 0
3, 115992, Note_on_c, 1, 44, 0
3, 115992, Note_on_c, 1, 41, 66
3, 116336, Note_on_c, 1, 41, 0
3, 116380, Note_on_c, 1, 44, 69
3, 116732, Note_on_c, 1, 44, 0
3, 116768, Note_on_c, 1, 36, 67
3, 117148, Note_on_c, 1, 36, 0
3, 117148, Note_on_c, 1, 37, 73
3, 117468, Note_on_c, 1, 37, 0
3, 117552, Note_on_c, 1, 41, 66
3, 117844, Note_on_c, 1, 41, 0
3, 117908, Note_on_c, 1, 37, 76
3, 118240, Note_on_c, 1, 37, 0
3, 118268, Note_on_c, 1, 38, 77
3, 118640, Note_on_c, 1, 38, 0
3, 118656, Note_on_c, 1, 44, 86
3, 119036, Note_on_c, 1, 32, 85
3, 119080, Note_on_c, 1, 44, 0
3, 119332, Note_on_c, 1, 32, 0
3, 119396, Note_on_c, 1, 30, 65
3, 119748, Note_on_c, 1, 30, 0
3, 119824, Note_on_c, 1, 31, 75
3, 120188, Note_on_c, 1, 31, 0
3, 120224, Note_on_c, 1, 47, 68
3, 120560, Note_on_c, 1, 47, 0
3, 120616, Note_on_c, 1, 43, 67
3, 120968, Note_on_c, 1, 43, 0
3, 120972, Note_on_c, 1, 35, 75
3, 121356, Note_on_c, 1, 35, 0
3, 121372, Note_on_c, 1, 36, 74
3, 121684, Note_on_c, 1, 34, 57
3, 121728, Note_on_c, 1, 36, 0
3, 121748, Note_on_c, 1, 43, 68
3, 121804, Note_on_c, 1, 34, 0
3, 122064, Note_on_c, 1, 36, 38
3, 122096, Note_on_c, 1, 43, 0
3, 122124, Note_on_c, 1, 36, 0
3, 122148, Note_on_c, 1, 51, 66
3, 122436, Note_on_c, 1, 51, 0
3, 122516, Note_on_c, 1, 50, 68
3, 122784, Note_on_c, 1, 42, 44
3, 122828, Note_on_c, 1, 42, 0
3, 122872, Note_on_c, 1, 50, 0
3, 122916, Note_on_c, 1, 48, 66
3, 123268, Note_on_c, 1, 48, 0
3, 123292, Note_on_c, 1, 42, 67
3, 123652, Note_on_c, 1, 42, 0
3, 123672, Note_on_c, 1, 43, 68
3, 123936, Note_on_c, 1, 42, 66
3, 124004, Note_on_c, 1, 43, 0
3, 124048, Note_on_c, 1, 53, 84
3, 124108, Note_on_c, 1, 42, 0
3, 124400, Note_on_c, 1, 53, 0
3, 124440, Note_on_c, 1, 51, 73
3, 124772, Note_on_c, 1, 51, 0
3, 124836, Note_on_c, 1, 50, 60
3, 125160, Note_on_c, 1, 50, 0
3, 125200, Note_on_c, 1, 48, 63
3, 125568, Note_on_c, 1, 48, 0
3, 125576, Note_on_c, 1, 43, 75
3, 125968, Note_on_c, 1, 43, 0
3, 125972, Note_on_c, 1, 51, 81
3, 126284, Note_on_c, 1, 43, 58
3, 126316, Note_on_c, 1, 51, 0
3, 126332, Note_on_c, 1, 43, 0
3, 126368, Note_on_c, 1, 50, 72
3, 126684, Note_on_c, 1, 50, 0
3, 126744, Note_on_c, 1, 48, 72
3, 127080, Note_on_c, 1, 48, 0
3, 127116, Note_on_c, 1, 40, 82
3, 127456, Note_on_c, 1, 40, 0
3, 127492, Note_on_c, 1, 41, 63
3, 127632, Note_on_c, 1, 41, 0
3, 127752, Note_on_c, 1, 41, 71
3, 127824, Note_on_c, 1, 41, 0
3, 127856, Note_on_c, 1, 44, 76
3, 128172, Note_on_c, 1, 36, 35
3, 128232, Note_on_c, 1, 36, 0
3, 128232, Note_on_c, 1, 44, 0
3, 128276, Note_on_c, 1, 46, 65
3, 128568, Note_on_c, 1, 36, 48
3, 128596, Note_on_c, 1, 46, 0
3, 128624, Note_on_c, 1, 36, 0
3, 128648, Note_on_c, 1, 43, 66
3, 128888, Note_on_c, 1, 36, 48
3, 128948, Note_on_c, 1, 36, 0
3, 129008, Note_on_c, 1, 43, 0
3, 129040, Note_on_c, 1, 41, 66
3, 129396, Note_on_c, 1, 41, 0
3, 129408, Note_on_c, 1, 36, 67
3, 129792, Note_on_c, 1, 36, 0
3, 129800, Note_on_c, 1, 32, 62
3, 130168, Note_on_c, 1, 32, 0
3, 130192, Note_on_c, 1, 39, 87
3, 130584, Note_on_c, 1, 39, 0
3, 130588, Note_on_c, 1, 38, 69
3, 130924, Note_on_c, 1, 38, 0
3, 130964, Note_on_c, 1, 32, 73
3, 131324, Note_on_c, 1, 32, 0
3, 131336, Note_on_c, 1, 41, 73
3, 131660, Note_on_c, 1, 32, 60
3, 131700, Note_on_c, 1, 41, 0
3, 131736, Note_on_c, 1, 44, 82
3, 131748, Note_on_c, 1, 32, 0
3, 132124, Note_on_c, 1, 43, 66
3, 132452, Note_on_c, 1, 44, 0
3, 132480, Note_on_c, 1, 43, 0
3, 132508, Note_on_c, 1, 31, 85
3, 132892, Note_on_c, 1, 47, 90
3, 132924, Note_on_c, 1, 31, 0
3, 133200, Note_on_c, 1, 47, 0
3, 133220, Note_on_c, 1, 38, 39
3, 133276, Note_on_c, 1, 38, 0
3, 133284, Note_on_c, 1, 50, 82
3, 133580, Note_on_c, 1, 36, 52
3, 133600, Note_on_c, 1, 50, 0
3, 133624, Note_on_c, 1, 36, 0
3, 133672, Note_on_c, 1, 48, 70
3, 133936, Note_on_c, 1, 48, 0
3, 133944, Note_on_c, 1, 36, 61
3, 134032, Note_on_c, 1, 36, 0
3, 134040, Note_on_c, 1, 50, 72
3, 134388, Note_on_c, 1, 50, 0
3, 134432, Note_on_c, 1, 51, 78
3, 134784, Note_on_c, 1, 51, 0
3, 134820, Note_on_c, 1, 48, 70
3, 134864, Note_on_c, 1, 49, 25
3, 134908, Note_on_c, 1, 49, 0
3, 135128, Note_on_c, 1, 48, 0
3, 135192, Note_on_c, 1, 43, 72
3, 135488, Note_on_c, 1, 43, 0
3, 135496, Note_on_c, 1, 37, 43
3, 135544, Note_on_c, 1, 37, 0
3, 135584, Note_on_c, 1, 51, 77
3, 135884, Note_on_c, 1, 51, 0
3, 135964, Note_on_c, 1, 43, 67
3, 136316, Note_on_c, 1, 43, 0
3, 136332, Note_on_c, 1, 38, 82
3, 136704, Note_on_c, 1, 38, 0
3, 136736, Note_on_c, 1, 39, 77
3, 136900, Note_on_c, 1, 39, 0
3, 136976, Note_on_c, 1, 39, 72
3, 137100, Note_on_c, 1, 41, 80
3, 137124, Note_on_c, 1, 39, 0
3, 137456, Note_on_c, 1, 41, 0
3, 137468, Note_on_c, 1, 42, 72
3, 137864, Note_on_c, 1, 43, 77
3, 137868, Note_on_c, 1, 42, 0
3, 138136, Note_on_c, 1, 39, 59
3, 138148, Note_on_c, 1, 43, 0
3, 138242, Note_on_c, 1, 39, 0
3, 138248, Note_on_c, 1, 44, 74
3, 138632, Note_on_c, 1, 46, 61
3, 138748, Note_on_c, 1, 44, 0
3, 138936, Note_on_c, 1, 44, 47
3, 138968, Note_on_c, 1, 46, 0
3, 138980, Note_on_c, 1, 44, 0
3, 139044, Note_on_c, 1, 48, 63
3, 139056, Note_on_c, 1, 49, 55
3, 139308, Note_on_c, 1, 41, 57
3, 139324, Note_on_c, 1, 49, 0
3, 139344, Note_on_c, 1, 48, 0
3, 139416, Note_on_c, 1, 41, 0
3, 139432, Note_on_c, 1, 48, 76
3, 139736, Note_on_c, 1, 41, 45
3, 139752, Note_on_c, 1, 48, 0
3, 139784, Note_on_c, 1, 41, 0
3, 139808, Note_on_c, 1, 49, 81
3, 140160, Note_on_c, 1, 49, 0
3, 140196, Note_on_c, 1, 44, 69
3, 140572, Note_on_c, 1, 41, 69
3, 140696, Note_on_c, 1, 44, 0
3, 140836, Note_on_c, 1, 41, 0
3, 140860, Note_on_c, 1, 37, 68
3, 140960, Note_on_c, 1, 49, 72
3, 140972, Note_on_c, 1, 37, 0
3, 141312, Note_on_c, 1, 49, 0
3, 141340, Note_on_c, 1, 44, 72
3, 141668, Note_on_c, 1, 44, 0
3, 141740, Note_on_c, 1, 41, 63
3, 142104, Note_on_c, 1, 36, 82
3, 142108, Note_on_c, 1, 41, 0
3, 142464, Note_on_c, 1, 36, 0
3, 142484, Note_on_c, 1, 37, 75
3, 142824, Note_on_c, 1, 37, 0
3, 142848, Note_on_c, 1, 38, 77
3, 143192, Note_on_c, 1, 38, 0
3, 143196, Note_on_c, 1, 37, 24
3, 143248, Note_on_c, 1, 44, 85
3, 143256, Note_on_c, 1, 37, 0
3, 143524, Note_on_c, 1, 39, 48
3, 143564, Note_on_c, 1, 44, 0
3, 143576, Note_on_c, 1, 39, 0
3, 143632, Note_on_c, 1, 48, 72
3, 143872, Note_on_c, 1, 39, 65
3, 143884, Note_on_c, 1, 48, 0
3, 143984, Note_on_c, 1, 39, 0
3, 143992, Note_on_c, 1, 44, 85
3, 144288, Note_on_c, 1, 38, 39
3, 144340, Note_on_c, 1, 38, 0
3, 144364, Note_on_c, 1, 44, 0
3, 144396, Note_on_c, 1, 43, 75
3, 144756, Note_on_c, 1, 38, 71
3, 145044, Note_on_c, 1, 43, 0
3, 145092, Note_on_c, 1, 38, 0
3, 145164, Note_on_c, 1, 35, 81
3, 145544, Note_on_c, 1, 50, 86
3, 145580, Note_on_c, 1, 35, 0
3, 145876, Note_on_c, 1, 50, 0
3, 145936, Note_on_c, 1, 48, 81
3, 146236, Note_on_c, 1, 38, 50
3, 146264, Note_on_c, 1, 48, 0
3, 146280, Note_on_c, 1, 38, 0
3, 146316, Note_on_c, 1, 46, 77
3, 146628, Note_on_c, 1, 40, 35
3, 146636, Note_on_c, 1, 46, 0
3, 146688, Note_on_c, 1, 40, 0
3, 146704, Note_on_c, 1, 45, 74
3, 146732, Note_on_c, 1, 46, 44
3, 146888, Note_on_c, 1, 46, 0
3, 147008, Note_on_c, 1, 40, 53
3, 147028, Note_on_c, 1, 45, 0
3, 147060, Note_on_c, 1, 40, 0
3, 147076, Note_on_c, 1, 44, 77
3, 147432, Note_on_c, 1, 44, 0
3, 147472, Note_on_c, 1, 43, 66
3, 147652, Note_on_c, 1, 43, 0
3, 147736, Note_on_c, 1, 38, 77
3, 147840, Note_on_c, 1, 38, 0
3, 147880, Note_on_c, 1, 35, 82
3, 148220, Note_on_c, 1, 35, 0
3, 148244, Note_on_c, 1, 38, 79
3, 148572, Note_on_c, 1, 38, 0
3, 148608, Note_on_c, 1, 35, 79
3, 148952, Note_on_c, 1, 35, 0
3, 149020, Note_on_c, 1, 36, 79
3, 149236, Note_on_c, 1, 36, 0
3, 149376, Note_on_c, 1, 43, 76
3, 149688, Note_on_c, 1, 36, 45
3, 149732, Note_on_c, 1, 43, 0
3, 149740, Note_on_c, 1, 36, 0
3, 149796, Note_on_c, 1, 51, 75
3, 150144, Note_on_c, 1, 51, 0
3, 150152, Note_on_c, 1, 43, 72
3, 150516, Note_on_c, 1, 43, 0
3, 150548, Note_on_c, 1, 36, 75
3, 150760, Note_on_c, 1, 36, 0
3, 150820, Note_on_c, 1, 36, 75
3, 150924, Note_on_c, 1, 43, 73
3, 150956, Note_on_c, 1, 36, 0
3, 151288, Note_on_c, 1, 51, 75
3, 151348, Note_on_c, 1, 43, 0
3, 151560, Note_on_c, 1, 39, 65
3, 151576, Note_on_c, 1, 51, 0
3, 151632, Note_on_c, 1, 39, 0
3, 151684, Note_on_c, 1, 40, 72
3, 151980, Note_on_c, 1, 39, 42
3, 152028, Note_on_c, 1, 39, 0
3, 152040, Note_on_c, 1, 40, 0
3, 152068, Note_on_c, 1, 41, 69
3, 152248, Note_on_c, 1, 41, 0
3, 152328, Note_on_c, 1, 41, 81
3, 152416, Note_on_c, 1, 41, 0
3, 152460, Note_on_c, 1, 48, 76
3, 152472, Note_on_c, 1, 50, 81
3, 152504, Note_on_c, 1, 50, 0
3, 152832, Note_on_c, 1, 48, 0
3, 152852, Note_on_c, 1, 44, 72
3, 153140, Note_on_c, 1, 36, 60
3, 153212, Note_on_c, 1, 44, 0
3, 153232, Note_on_c, 1, 36, 0
3, 153240, Note_on_c, 1, 41, 77
3, 153624, Note_on_c, 1, 41, 0
3, 153640, Note_on_c, 1, 36, 62
3, 153908, Note_on_c, 1, 36, 0
3, 154000, Note_on_c, 1, 30, 68
3, 154136, Note_on_c, 1, 31, 31
3, 154240, Note_on_c, 1, 31, 0
3, 154256, Note_on_c, 1, 30, 0
3, 154408, Note_on_c, 1, 29, 74
3, 154712, Note_on_c, 1, 29, 0
3, 154776, Note_on_c, 1, 37, 75
3, 155152, Note_on_c, 1, 37, 0
3, 155156, Note_on_c, 1, 38, 72
3, 155444, Note_on_c, 1, 37, 63
3, 155500, Note_on_c, 1, 38, 0
3, 155560, Note_on_c, 1, 44, 83
3, 155576, Note_on_c, 1, 37, 0
3, 155828, Note_on_c, 1, 37, 42
3, 155892, Note_on_c, 1, 37, 0
3, 155940, Note_on_c, 1, 41, 72
3, 155996, Note_on_c, 1, 44, 0
3, 156216, Note_on_c, 1, 37, 68
3, 156224, Note_on_c, 1, 41, 0
3, 156328, Note_on_c, 1, 37, 0
3, 156332, Note_on_c, 1, 42, 75
3, 156608, Note_on_c, 1, 37, 47
3, 156660, Note_on_c, 1, 37, 0
3, 156688, Note_on_c, 1, 42, 0
3, 156708, Note_on_c, 1, 43, 75
3, 157000, Note_on_c, 1, 43, 0
3, 157000, Note_on_c, 1, 38, 98
3, 157488, Note_on_c, 1, 35, 63
3, 157500, Note_on_c, 1, 38, 0
3, 157772, Note_on_c, 1, 35, 0
3, 157832, Note_on_c, 1, 31, 66
3, 158236, Note_on_c, 1, 36, 71
3, 158324, Note_on_c, 1, 31, 0
3, 158416, Note_on_c, 1, 36, 0
3, 158500, Note_on_c, 1, 36, 72
3, 158604, Note_on_c, 1, 43, 73
3, 158628, Note_on_c, 1, 36, 0
3, 158916, Note_on_c, 1, 43, 0
3, 158924, Note_on_c, 1, 38, 45
3, 158976, Note_on_c, 1, 38, 0
3, 159024, Note_on_c, 1, 51, 66
3, 159280, Note_on_c, 1, 51, 0
3, 159324, Note_on_c, 1, 43, 35
3, 159376, Note_on_c, 1, 50, 68
3, 159384, Note_on_c, 1, 43, 0
3, 159632, Note_on_c, 1, 43, 49
3, 159660, Note_on_c, 1, 42, 41
3, 159672, Note_on_c, 1, 43, 0
3, 159700, Note_on_c, 1, 50, 0
3, 159712, Note_on_c, 1, 42, 0
3, 159756, Note_on_c, 1, 48, 65
3, 160108, Note_on_c, 1, 48, 0
3, 160128, Note_on_c, 1, 43, 72
3, 160180, Note_on_c, 1, 49, 29
3, 160368, Note_on_c, 1, 43, 0
3, 160452, Note_on_c, 1, 49, 0
3, 160504, Note_on_c, 1, 40, 90
3, 160868, Note_on_c, 1, 40, 0
3, 160896, Note_on_c, 1, 38, 73
3, 161224, Note_on_c, 1, 38, 0
3, 161280, Note_on_c, 1, 39, 84
3, 161920, Note_on_c, 1, 34, 83
3, 161936, Note_on_c, 1, 39, 0
3, 162400, Note_on_c, 1, 34, 0
3, 162440, Note_on_c, 1, 33, 82
3, 162776, Note_on_c, 1, 33, 0
3, 162832, Note_on_c, 1, 32, 76
3, 163200, Note_on_c, 1, 44, 85
3, 163268, Note_on_c, 1, 32, 0
3, 163432, Note_on_c, 1, 39, 50
3, 163548, Note_on_c, 1, 44, 0
3, 163588, Note_on_c, 1, 39, 0
3, 163600, Note_on_c, 1, 48, 74
3, 163840, Note_on_c, 1, 36, 107
3, 163928, Note_on_c, 1, 48, 0
3, 164404, Note_on_c, 1, 36, 0
3, 164404, Note_on_c, 1, 37, 79
3, 164768, Note_on_c, 1, 44, 69
3, 164816, Note_on_c, 1, 37, 0
3, 165012, Note_on_c, 1, 37, 52
3, 165076, Note_on_c, 1, 44, 0
3, 165128, Note_on_c, 1, 37, 0
3, 165144, Note_on_c, 1, 51, 68
3, 165396, Note_on_c, 1, 37, 49
3, 165440, Note_on_c, 1, 51, 0
3, 165496, Note_on_c, 1, 37, 0
3, 165528, Note_on_c, 1, 49, 66
3, 165812, Note_on_c, 1, 49, 0
3, 165812, Note_on_c, 1, 37, 45
3, 165872, Note_on_c, 1, 37, 0
3, 165888, Note_on_c, 1, 48, 57
3, 166184, Note_on_c, 1, 37, 54
3, 166224, Note_on_c, 1, 48, 0
3, 166304, Note_on_c, 1, 37, 0
3, 166304, Note_on_c, 1, 49, 80
3, 166680, Note_on_c, 1, 49, 0
3, 166696, Note_on_c, 1, 44, 64
3, 166928, Note_on_c, 1, 44, 0
3, 166948, Note_on_c, 1, 39, 88
3, 167360, Note_on_c, 1, 37, 57
3, 167396, Note_on_c, 1, 39, 0
3, 167444, Note_on_c, 1, 38, 73
3, 167456, Note_on_c, 1, 37, 0
3, 168104, Note_on_c, 1, 37, 58
3, 168184, Note_on_c, 1, 38, 0
3, 168216, Note_on_c, 1, 44, 94
3, 168244, Note_on_c, 1, 37, 0
3, 168860, Note_on_c, 1, 38, 68
3, 168904, Note_on_c, 1, 38, 0
3, 168944, Note_on_c, 1, 44, 0
3, 168972, Note_on_c, 1, 43, 81
3, 169568, Note_on_c, 1, 38, 70
3, 169648, Note_on_c, 1, 43, 0
3, 169672, Note_on_c, 1, 38, 0
3, 169720, Note_on_c, 1, 35, 82
3, 170372, Note_on_c, 1, 35, 0
3, 170400, Note_on_c, 1, 36, 96
3, 171212, Note_on_c, 1, 34, 52
3, 171300, Note_on_c, 1, 48, 88
3, 171312, Note_on_c, 1, 36, 0
3, 171376, Note_on_c, 1, 34, 0
3, 171960, Note_on_c, 1, 36, 55
3, 172008, Note_on_c, 1, 48, 0
3, 172056, Note_on_c, 1, 36, 0
3, 172060, Note_on_c, 1, 51, 83
3, 172708, Note_on_c, 1, 50, 79
3, 173032, Note_on_c, 1, 51, 0
3, 173044, Note_on_c, 1, 50, 0
3, 173096, Note_on_c, 1, 46, 58
3, 173216, Note_on_c, 1, 46, 0
3, 173220, Note_on_c, 1, 47, 73
3, 173552, Note_on_c, 1, 47, 0
3, 173604, Note_on_c, 1, 48, 70
3, 173908, Note_on_c, 1, 48, 0
3, 173992, Note_on_c, 1, 42, 55
3, 174304, Note_on_c, 1, 42, 0
3, 174356, Note_on_c, 1, 43, 56
3, 174720, Note_on_c, 1, 43, 0
3, 174736, Note_on_c, 1, 39, 60
3, 175068, Note_on_c, 1, 39, 0
3, 175112, Note_on_c, 1, 38, 56
3, 175472, Note_on_c, 1, 38, 0
3, 175496, Note_on_c, 1, 37, 59
3, 175824, Note_on_c, 1, 37, 0
3, 175880, Note_on_c, 1, 36, 58
3, 176264, Note_on_c, 1, 36, 0
3, 176264, Note_on_c, 1, 30, 80
3, 176628, Note_on_c, 1, 30, 0
3, 176640, Note_on_c, 1, 29, 66
3, 177004, Note_on_c, 1, 29, 0
3, 177040, Note_on_c, 1, 36, 80
3, 177392, Note_on_c, 1, 36, 0
3, 177420, Note_on_c, 1, 44, 84
3, 177696, Note_on_c, 1, 36, 58
3, 177716, Note_on_c, 1, 44, 0
3, 177776, Note_on_c, 1, 36, 0
3, 177784, Note_on_c, 1, 43, 83
3, 178072, Note_on_c, 1, 36, 41
3, 178128, Note_on_c, 1, 36, 0
3, 178164, Note_on_c, 1, 43, 0
3, 178204, Note_on_c, 1, 41, 68
3, 178548, Note_on_c, 1, 41, 0
3, 178584, Note_on_c, 1, 36, 72
3, 178940, Note_on_c, 1, 36, 0
3, 178972, Note_on_c, 1, 40, 72
3, 179324, Note_on_c, 1, 40, 0
3, 179360, Note_on_c, 1, 39, 69
3, 179708, Note_on_c, 1, 39, 0
3, 179724, Note_on_c, 1, 38, 75
3, 180072, Note_on_c, 1, 37, 49
3, 180084, Note_on_c, 1, 38, 0
3, 180116, Note_on_c, 1, 37, 0
3, 180116, Note_on_c, 1, 44, 81
3, 180468, Note_on_c, 1, 44, 0
3, 180520, Note_on_c, 1, 48, 72
3, 180884, Note_on_c, 1, 42, 78
3, 180928, Note_on_c, 1, 48, 0
3, 181236, Note_on_c, 1, 42, 0
3, 181260, Note_on_c, 1, 43, 76
3, 181652, Note_on_c, 1, 43, 0
3, 181656, Note_on_c, 1, 53, 117
3, 182000, Note_on_c, 1, 53, 0
3, 182040, Note_on_c, 1, 51, 75
3, 182344, Note_on_c, 1, 47, 58
3, 182368, Note_on_c, 1, 51, 0
3, 182392, Note_on_c, 1, 47, 0
3, 182420, Note_on_c, 1, 50, 74
3, 182460, Note_on_c, 1, 51, 39
3, 182516, Note_on_c, 1, 51, 0
3, 182776, Note_on_c, 1, 50, 0
3, 182824, Note_on_c, 1, 48, 74
3, 183144, Note_on_c, 1, 48, 0
3, 183212, Note_on_c, 1, 42, 78
3, 183556, Note_on_c, 1, 42, 0
3, 183584, Note_on_c, 1, 43, 69
3, 183904, Note_on_c, 1, 43, 0
3, 183956, Note_on_c, 1, 39, 75
3, 184280, Note_on_c, 1, 39, 0
3, 184328, Note_on_c, 1, 38, 71
3, 184688, Note_on_c, 1, 38, 0
3, 184716, Note_on_c, 1, 36, 69
3, 185096, Note_on_c, 1, 36, 0
3, 185116, Note_on_c, 1, 38, 75
3, 185472, Note_on_c, 1, 38, 0
3, 185488, Note_on_c, 1, 40, 80
3, 185864, Note_on_c, 1, 40, 0
3, 185888, Note_on_c, 1, 39, 70
3, 186240, Note_on_c, 1, 44, 71
3, 186316, Note_on_c, 1, 39, 0
3, 186628, Note_on_c, 1, 44, 0
3, 186628, Note_on_c, 1, 51, 81
3, 186968, Note_on_c, 1, 51, 0
3, 187028, Note_on_c, 1, 50, 65
3, 187272, Note_on_c, 1, 44, 48
3, 187350, Note_on_c, 1, 44, 0
3, 187380, Note_on_c, 1, 50, 0
3, 187428, Note_on_c, 1, 49, 63
3, 187680, Note_on_c, 1, 44, 48
3, 187736, Note_on_c, 1, 44, 0
3, 187800, Note_on_c, 1, 49, 0
3, 187800, Note_on_c, 1, 48, 71
3, 188176, Note_on_c, 1, 44, 60
3, 188228, Note_on_c, 1, 48, 0
3, 188512, Note_on_c, 1, 44, 0
3, 188556, Note_on_c, 1, 39, 65
3, 188928, Note_on_c, 1, 39, 0
3, 188972, Note_on_c, 1, 37, 64
3, 189104, Note_on_c, 1, 37, 0
3, 189212, Note_on_c, 1, 37, 70
3, 189340, Note_on_c, 1, 44, 80
3, 189356, Note_on_c, 1, 37, 0
3, 189704, Note_on_c, 1, 53, 71
3, 190012, Note_on_c, 1, 37, 52
3, 190024, Note_on_c, 1, 44, 0
3, 190056, Note_on_c, 1, 53, 0
3, 190068, Note_on_c, 1, 37, 0
3, 190120, Note_on_c, 1, 51, 66
3, 190484, Note_on_c, 1, 51, 0
3, 190508, Note_on_c, 1, 49, 75
3, 190764, Note_on_c, 1, 44, 48
3, 190852, Note_on_c, 1, 44, 0
3, 190880, Note_on_c, 1, 48, 75
3, 190896, Note_on_c, 1, 49, 0
3, 191164, Note_on_c, 1, 44, 54
3, 191212, Note_on_c, 1, 44, 0
3, 191212, Note_on_c, 1, 48, 0
3, 191276, Note_on_c, 1, 49, 73
3, 191572, Note_on_c, 1, 44, 50
3, 191600, Note_on_c, 1, 49, 0
3, 191616, Note_on_c, 1, 44, 0
3, 191672, Note_on_c, 1, 50, 82
3, 191936, Note_on_c, 1, 50, 0
3, 192008, Note_on_c, 1, 44, 70
3, 192292, Note_on_c, 1, 44, 0
3, 192380, Note_on_c, 1, 44, 69
3, 192748, Note_on_c, 1, 44, 0
3, 192776, Note_on_c, 1, 41, 70
3, 193064, Note_on_c, 1, 38, 59
3, 193080, Note_on_c, 1, 41, 0
3, 193156, Note_on_c, 1, 38, 0
3, 193168, Note_on_c, 1, 42, 66
3, 193508, Note_on_c, 1, 42, 0
3, 193544, Note_on_c, 1, 43, 73
3, 193872, Note_on_c, 1, 43, 0
3, 193952, Note_on_c, 1, 31, 73
3, 194348, Note_on_c, 1, 38, 65
3, 194420, Note_on_c, 1, 31, 0
3, 194660, Note_on_c, 1, 38, 0
3, 194700, Note_on_c, 1, 35, 72
3, 195040, Note_on_c, 1, 35, 0
3, 195112, Note_on_c, 1, 36, 61
3, 195208, Note_on_c, 1, 36, 0
3, 195324, Note_on_c, 1, 36, 68
3, 195444, Note_on_c, 1, 36, 0
3, 195456, Note_on_c, 1, 43, 71
3, 195812, Note_on_c, 1, 43, 0
3, 195864, Note_on_c, 1, 51, 74
3, 196160, Note_on_c, 1, 36, 50
3, 196216, Note_on_c, 1, 36, 0
3, 196244, Note_on_c, 1, 43, 74
3, 196300, Note_on_c, 1, 51, 0
3, 196868, Note_on_c, 1, 43, 0
3, 196912, Note_on_c, 1, 36, 63
3, 196964, Note_on_c, 1, 36, 0
3, 197012, Note_on_c, 1, 43, 78
3, 197640, Note_on_c, 1, 43, 0
3, 197672, Note_on_c, 1, 36, 64
3, 197736, Note_on_c, 1, 36, 0
3, 197768, Note_on_c, 1, 43, 73
3, 198068, Note_on_c, 1, 36, 45
3, 198092, Note_on_c, 1, 43, 0
3, 198116, Note_on_c, 1, 36, 0
3, 198168, Note_on_c, 1, 43, 77
3, 200704, Note_on_c, 1, 36, 43
3, 200716, Note_on_c, 1, 43, 0
3, 200752, Note_on_c, 1, 36, 0
3, 200832, Note_on_c, 1, 43, 57
3, 201480, Note_on_c, 1, 43, 0
3, 201492, Note_on_c, 1, 36, 39
3, 201544, Note_on_c, 1, 36, 0
3, 201588, Note_on_c, 1, 43, 52
3, 201916, Note_on_c, 1, 43, 0
3, 202008, Note_on_c, 1, 43, 53
3, 202660, Note_on_c, 1, 43, 0
3, 202664, Note_on_c, 1, 36, 25
3, 202724, Note_on_c, 1, 36, 0
3, 202768, Note_on_c, 1, 43, 46
3, 203264, Note_on_c, 1, 43, 0
3, 203388, Note_on_c, 1, 43, 40
3, 203764, Note_on_c, 1, 43, 0
3, 203792, Note_on_c, 1, 36, 28
3, 203848, Note_on_c, 1, 36, 0
3, 203912, Note_on_c, 1, 43, 41
3, 204528, Note_on_c, 1, 43, 0
3, 204528, Note_on_c, 1, 36, 26
3, 204600, Note_on_c, 1, 36, 0
3, 204648, Note_on_c, 1, 43, 30
3, 204940, Note_on_c, 1, 43, 0
3, 205068, Note_on_c, 1, 43, 24
3, 205774, Note_on_c, 1, 43, 0
3, 205888, Note_on_c, 1, 43, 17
3, 206372, Note_on_c, 1, 43, 0
3, 206496, Note_on_c, 1, 43, 18
3, 206932, Note_on_c, 1, 43, 0
3, 207036, Note_on_c, 1, 43, 12
3, 207636, Note_on_c, 1, 43, 0
3, 207712, Note_on_c, 1, 43, 11
3, 208000, Note_on_c, 1, 43, 0
3, 208180, Note_on_c, 1, 43, 11
3, 208624, Note_on_c, 1, 43, 0
3, 208760, Note_on_c, 1, 43, 8
3, 209384, Note_on_c, 1, 43, 0
3, 209520, Note_on_c, 1, 43, 7
3, 209940, Note_on_c, 1, 43, 0
3, 210072, Note_on_c, 1, 43, 8
3, 212808, Note_on_c, 1, 43, 0
3, 212808, End_track
4, 0, Start_track
4, 0, Title_t, "Track 3"
4, 0, End_track
5, 0, Start_track
5, 0, Title_t, "Track 4"
5, 0, End_track
6, 0, Start_track
6, 0, Title_t, "Track 5"
6, 0, End_track
7, 0, Start_track
7, 0, Title_t, "Track 6"
7, 0, End_track
8, 0, Start_track
8, 0, Title_t, "Track 7"
8, 0, End_track
9, 0, Start_track
9, 0, Title_t, "Track 8"
9, 0, End_track
10, 0, Start_track
10, 0, Title_t, "Track 9"
10, 0, End_track
11, 0, Start_track
11, 0, Title_t, "Track 10"
11, 402, Program_c, 9, 40
11, 403, Control_c, 9, 7, 92
11, 1536, Note_on_c, 9, 42, 10
11, 1536, Note_on_c, 9, 36, 35
11, 1536, Note_on_c, 9, 40, 37
11, 1622, Note_on_c, 9, 40, 0
11, 1622, Note_on_c, 9, 42, 0
11, 1894, Note_on_c, 9, 40, 35
11, 1920, Note_on_c, 9, 36, 0
11, 1928, Note_on_c, 9, 44, 127
11, 2070, Note_on_c, 9, 44, 0
11, 2274, Note_on_c, 9, 40, 0
11, 2302, Note_on_c, 9, 40, 28
11, 2662, Note_on_c, 9, 40, 25
11, 2682, Note_on_c, 9, 40, 0
11, 2696, Note_on_c, 9, 44, 127
11, 2848, Note_on_c, 9, 44, 0
11, 3042, Note_on_c, 9, 40, 0
11, 3046, Note_on_c, 9, 40, 32
11, 3426, Note_on_c, 9, 40, 0
11, 3430, Note_on_c, 9, 40, 35
11, 3464, Note_on_c, 9, 44, 127
11, 3602, Note_on_c, 9, 44, 0
11, 3810, Note_on_c, 9, 40, 0
11, 3814, Note_on_c, 9, 40, 28
11, 4080, Note_on_c, 9, 39, 110
11, 4166, Note_on_c, 9, 39, 0
11, 4194, Note_on_c, 9, 40, 0
11, 4198, Note_on_c, 9, 40, 25
11, 4232, Note_on_c, 9, 44, 127
11, 4400, Note_on_c, 9, 44, 0
11, 4578, Note_on_c, 9, 40, 0
11, 4582, Note_on_c, 9, 40, 32
11, 4962, Note_on_c, 9, 40, 0
11, 4966, Note_on_c, 9, 40, 35
11, 5000, Note_on_c, 9, 44, 127
11, 5154, Note_on_c, 9, 44, 0
11, 5346, Note_on_c, 9, 40, 0
11, 5350, Note_on_c, 9, 40, 28
11, 5730, Note_on_c, 9, 40, 0
11, 5734, Note_on_c, 9, 40, 25
11, 5768, Note_on_c, 9, 44, 127
11, 5910, Note_on_c, 9, 44, 0
11, 6114, Note_on_c, 9, 40, 0
11, 6118, Note_on_c, 9, 40, 32
11, 6498, Note_on_c, 9, 40, 0
11, 6502, Note_on_c, 9, 40, 35
11, 6536, Note_on_c, 9, 44, 127
11, 6678, Note_on_c, 9, 40, 0
11, 6764, Note_on_c, 9, 39, 113
11, 6860, Note_on_c, 9, 39, 0
11, 6880, Note_on_c, 9, 44, 0
11, 6886, Note_on_c, 9, 40, 28
11, 7266, Note_on_c, 9, 40, 0
11, 7270, Note_on_c, 9, 40, 25
11, 7304, Note_on_c, 9, 44, 127
11, 7446, Note_on_c, 9, 40, 0
11, 7628, Note_on_c, 9, 44, 0
11, 7654, Note_on_c, 9, 40, 32
11, 8034, Note_on_c, 9, 40, 0
11, 8038, Note_on_c, 9, 40, 35
11, 8072, Note_on_c, 9, 44, 127
11, 8214, Note_on_c, 9, 40, 0
11, 8408, Note_on_c, 9, 44, 0
11, 8422, Note_on_c, 9, 40, 28
11, 8802, Note_on_c, 9, 40, 0
11, 8806, Note_on_c, 9, 40, 25
11, 8840, Note_on_c, 9, 44, 127
11, 8982, Note_on_c, 9, 40, 0
11, 9168, Note_on_c, 9, 44, 0
11, 9190, Note_on_c, 9, 40, 32
11, 9570, Note_on_c, 9, 40, 0
11, 9574, Note_on_c, 9, 40, 35
11, 9608, Note_on_c, 9, 44, 127
11, 9750, Note_on_c, 9, 40, 0
11, 9944, Note_on_c, 9, 44, 0
11, 9958, Note_on_c, 9, 40, 28
11, 10338, Note_on_c, 9, 40, 0
11, 10342, Note_on_c, 9, 40, 25
11, 10376, Note_on_c, 9, 44, 127
11, 10518, Note_on_c, 9, 40, 0
11, 10706, Note_on_c, 9, 44, 0
11, 10726, Note_on_c, 9, 40, 32
11, 11106, Note_on_c, 9, 40, 0
11, 11110, Note_on_c, 9, 40, 35
11, 11144, Note_on_c, 9, 44, 127
11, 11286, Note_on_c, 9, 40, 0
11, 11472, Note_on_c, 9, 44, 0
11, 11494, Note_on_c, 9, 40, 28
11, 11874, Note_on_c, 9, 40, 0
11, 11878, Note_on_c, 9, 40, 25
11, 11912, Note_on_c, 9, 44, 127
11, 12054, Note_on_c, 9, 40, 0
11, 12140, Note_on_c, 9, 39, 82
11, 12210, Note_on_c, 9, 39, 0
11, 12252, Note_on_c, 9, 44, 0
11, 12262, Note_on_c, 9, 40, 32
11, 12642, Note_on_c, 9, 40, 0
11, 12646, Note_on_c, 9, 40, 35
11, 12680, Note_on_c, 9, 44, 127
11, 13024, Note_on_c, 9, 44, 0
11, 13026, Note_on_c, 9, 40, 0
11, 13030, Note_on_c, 9, 40, 28
11, 13296, Note_on_c, 9, 39, 120
11, 13410, Note_on_c, 9, 40, 0
11, 13448, Note_on_c, 9, 44, 127
11, 13472, Note_on_c, 9, 39, 0
11, 13680, Note_on_c, 9, 35, 49
11, 13766, Note_on_c, 9, 35, 0
11, 13792, Note_on_c, 9, 44, 0
11, 13798, Note_on_c, 9, 40, 32
11, 13952, Note_on_c, 9, 39, 60
11, 13974, Note_on_c, 9, 40, 0
11, 14076, Note_on_c, 9, 35, 34
11, 14120, Note_on_c, 9, 39, 0
11, 14162, Note_on_c, 9, 35, 0
11, 14182, Note_on_c, 9, 40, 35
11, 14216, Note_on_c, 9, 44, 127
11, 14552, Note_on_c, 9, 44, 0
11, 14562, Note_on_c, 9, 40, 0
11, 14566, Note_on_c, 9, 40, 28
11, 14946, Note_on_c, 9, 40, 0
11, 14950, Note_on_c, 9, 40, 25
11, 14984, Note_on_c, 9, 44, 111
11, 15330, Note_on_c, 9, 40, 0
11, 15334, Note_on_c, 9, 40, 32
11, 15340, Note_on_c, 9, 44, 0
11, 15714, Note_on_c, 9, 40, 0
11, 15718, Note_on_c, 9, 40, 35
11, 15752, Note_on_c, 9, 44, 125
11, 15894, Note_on_c, 9, 40, 0
11, 16096, Note_on_c, 9, 44, 0
11, 16102, Note_on_c, 9, 40, 28
11, 16482, Note_on_c, 9, 40, 0
11, 16486, Note_on_c, 9, 40, 25
11, 16520, Note_on_c, 9, 44, 111
11, 16658, Note_on_c, 9, 44, 0
11, 16662, Note_on_c, 9, 40, 0
11, 16704, Note_on_c, 9, 46, 48
11, 16870, Note_on_c, 9, 40, 32
11, 16896, Note_on_c, 9, 46, 0
11, 17250, Note_on_c, 9, 40, 0
11, 17254, Note_on_c, 9, 40, 35
11, 17288, Note_on_c, 9, 44, 127
11, 17430, Note_on_c, 9, 40, 0
11, 17634, Note_on_c, 9, 44, 0
11, 17638, Note_on_c, 9, 40, 28
11, 18018, Note_on_c, 9, 40, 0
11, 18022, Note_on_c, 9, 40, 25
11, 18056, Note_on_c, 9, 44, 127
11, 18198, Note_on_c, 9, 40, 0
11, 18406, Note_on_c, 9, 40, 32
11, 18408, Note_on_c, 9, 44, 0
11, 18786, Note_on_c, 9, 40, 0
11, 18790, Note_on_c, 9, 40, 35
11, 18824, Note_on_c, 9, 44, 127
11, 19084, Note_on_c, 9, 35, 35
11, 19164, Note_on_c, 9, 44, 0
11, 19170, Note_on_c, 9, 35, 0
11, 19170, Note_on_c, 9, 40, 0
11, 19174, Note_on_c, 9, 40, 28
11, 19208, Note_on_c, 9, 44, 113
11, 19330, Note_on_c, 9, 44, 0
11, 19350, Note_on_c, 9, 40, 0
11, 19392, Note_on_c, 9, 46, 67
11, 19436, Note_on_c, 9, 39, 117
11, 19548, Note_on_c, 9, 39, 0
11, 19558, Note_on_c, 9, 40, 25
11, 19680, Note_on_c, 9, 46, 0
11, 19824, Note_on_c, 9, 39, 110
11, 19824, Note_on_c, 9, 35, 53
11, 19910, Note_on_c, 9, 35, 0
11, 19938, Note_on_c, 9, 40, 0
11, 19942, Note_on_c, 9, 40, 32
11, 19968, Note_on_c, 9, 39, 0
11, 20322, Note_on_c, 9, 40, 0
11, 20326, Note_on_c, 9, 40, 35
11, 20360, Note_on_c, 9, 44, 127
11, 20502, Note_on_c, 9, 40, 0
11, 20678, Note_on_c, 9, 44, 0
11, 20710, Note_on_c, 9, 40, 28
11, 21090, Note_on_c, 9, 40, 0
11, 21094, Note_on_c, 9, 40, 25
11, 21128, Note_on_c, 9, 44, 127
11, 21270, Note_on_c, 9, 40, 0
11, 21474, Note_on_c, 9, 44, 0
11, 21478, Note_on_c, 9, 40, 32
11, 21858, Note_on_c, 9, 40, 0
11, 21862, Note_on_c, 9, 40, 35
11, 21896, Note_on_c, 9, 44, 122
11, 22038, Note_on_c, 9, 40, 0
11, 22242, Note_on_c, 9, 44, 0
11, 22246, Note_on_c, 9, 40, 28
11, 22626, Note_on_c, 9, 40, 0
11, 22630, Note_on_c, 9, 40, 25
11, 22664, Note_on_c, 9, 44, 127
11, 22806, Note_on_c, 9, 40, 0
11, 23014, Note_on_c, 9, 40, 32
11, 23026, Note_on_c, 9, 44, 0
11, 23394, Note_on_c, 9, 40, 0
11, 23398, Note_on_c, 9, 40, 35
11, 23432, Note_on_c, 9, 44, 127
11, 23574, Note_on_c, 9, 40, 0
11, 23782, Note_on_c, 9, 40, 28
11, 23784, Note_on_c, 9, 44, 0
11, 24162, Note_on_c, 9, 40, 0
11, 24166, Note_on_c, 9, 40, 25
11, 24200, Note_on_c, 9, 44, 111
11, 24540, Note_on_c, 9, 44, 0
11, 24546, Note_on_c, 9, 40, 0
11, 24550, Note_on_c, 9, 40, 32
11, 24726, Note_on_c, 9, 40, 0
11, 24832, Note_on_c, 9, 39, 120
11, 24880, Note_on_c, 9, 39, 0
11, 25216, Note_on_c, 9, 35, 35
11, 25264, Note_on_c, 9, 35, 0
11, 25472, Note_on_c, 9, 39, 110
11, 25520, Note_on_c, 9, 39, 0
11, 25968, Note_on_c, 9, 39, 127
11, 26016, Note_on_c, 9, 39, 0
11, 26040, Note_on_c, 9, 35, 44
11, 26056, Note_on_c, 9, 51, 50
11, 26086, Note_on_c, 9, 40, 32
11, 26104, Note_on_c, 9, 51, 0
11, 26126, Note_on_c, 9, 35, 0
11, 26466, Note_on_c, 9, 40, 0
11, 26470, Note_on_c, 9, 40, 35
11, 26504, Note_on_c, 9, 44, 127
11, 26646, Note_on_c, 9, 40, 0
11, 26824, Note_on_c, 9, 44, 0
11, 26854, Note_on_c, 9, 40, 28
11, 27030, Note_on_c, 9, 40, 0
11, 27238, Note_on_c, 9, 40, 25
11, 27264, Note_on_c, 9, 46, 82
11, 27414, Note_on_c, 9, 40, 0
11, 27554, Note_on_c, 9, 46, 0
11, 27622, Note_on_c, 9, 40, 32
11, 28002, Note_on_c, 9, 40, 0
11, 28006, Note_on_c, 9, 40, 35
11, 28040, Note_on_c, 9, 44, 127
11, 28182, Note_on_c, 9, 40, 0
11, 28370, Note_on_c, 9, 44, 0
11, 28390, Note_on_c, 9, 40, 28
11, 28566, Note_on_c, 9, 40, 0
11, 28652, Note_on_c, 9, 39, 97
11, 28722, Note_on_c, 9, 39, 0
11, 28774, Note_on_c, 9, 40, 25
11, 28808, Note_on_c, 9, 44, 127
11, 28950, Note_on_c, 9, 40, 0
11, 29152, Note_on_c, 9, 44, 0
11, 29158, Note_on_c, 9, 40, 32
11, 29538, Note_on_c, 9, 40, 0
11, 29542, Note_on_c, 9, 40, 35
11, 29576, Note_on_c, 9, 44, 127
11, 29718, Note_on_c, 9, 40, 0
11, 29852, Note_on_c, 9, 44, 0
11, 29926, Note_on_c, 9, 40, 28
11, 30102, Note_on_c, 9, 40, 0
11, 30310, Note_on_c, 9, 40, 25
11, 30344, Note_on_c, 9, 44, 127
11, 30674, Note_on_c, 9, 44, 0
11, 30690, Note_on_c, 9, 40, 0
11, 30694, Note_on_c, 9, 40, 32
11, 31074, Note_on_c, 9, 40, 0
11, 31078, Note_on_c, 9, 40, 35
11, 31112, Note_on_c, 9, 44, 127
11, 31448, Note_on_c, 9, 44, 0
11, 31458, Note_on_c, 9, 40, 0
11, 31462, Note_on_c, 9, 40, 28
11, 31842, Note_on_c, 9, 40, 0
11, 31846, Note_on_c, 9, 40, 25
11, 31880, Note_on_c, 9, 44, 127
11, 32208, Note_on_c, 9, 44, 0
11, 32226, Note_on_c, 9, 40, 0
11, 32230, Note_on_c, 9, 40, 32
11, 32256, Note_on_c, 9, 35, 53
11, 32610, Note_on_c, 9, 40, 0
11, 32614, Note_on_c, 9, 40, 35
11, 32648, Note_on_c, 9, 44, 127
11, 32668, Note_on_c, 9, 35, 0
11, 32790, Note_on_c, 9, 40, 0
11, 32988, Note_on_c, 9, 44, 0
11, 32998, Note_on_c, 9, 40, 28
11, 33378, Note_on_c, 9, 40, 0
11, 33382, Note_on_c, 9, 40, 25
11, 33416, Note_on_c, 9, 44, 127
11, 33558, Note_on_c, 9, 40, 0
11, 33746, Note_on_c, 9, 44, 0
11, 33766, Note_on_c, 9, 40, 32
11, 34146, Note_on_c, 9, 40, 0
11, 34150, Note_on_c, 9, 40, 35
11, 34178, Note_on_c, 9, 53, 100
11, 34184, Note_on_c, 9, 44, 127
11, 34226, Note_on_c, 9, 53, 0
11, 34326, Note_on_c, 9, 40, 0
11, 34502, Note_on_c, 9, 44, 0
11, 34534, Note_on_c, 9, 40, 28
11, 34914, Note_on_c, 9, 40, 0
11, 34918, Note_on_c, 9, 40, 25
11, 34952, Note_on_c, 9, 44, 127
11, 35094, Note_on_c, 9, 40, 0
11, 35264, Note_on_c, 9, 44, 0
11, 35302, Note_on_c, 9, 40, 32
11, 35682, Note_on_c, 9, 40, 0
11, 35686, Note_on_c, 9, 40, 35
11, 35720, Note_on_c, 9, 44, 127
11, 36044, Note_on_c, 9, 44, 0
11, 36066, Note_on_c, 9, 40, 0
11, 36070, Note_on_c, 9, 40, 28
11, 36246, Note_on_c, 9, 40, 0
11, 36454, Note_on_c, 9, 40, 25
11, 36488, Note_on_c, 9, 44, 127
11, 36800, Note_on_c, 9, 44, 0
11, 36834, Note_on_c, 9, 40, 0
11, 36838, Note_on_c, 9, 40, 32
11, 37014, Note_on_c, 9, 40, 0
11, 37100, Note_on_c, 9, 39, 117
11, 37184, Note_on_c, 9, 39, 0
11, 37222, Note_on_c, 9, 40, 35
11, 37256, Note_on_c, 9, 44, 120
11, 37602, Note_on_c, 9, 40, 0
11, 37606, Note_on_c, 9, 40, 28
11, 37724, Note_on_c, 9, 44, 0
11, 37782, Note_on_c, 9, 40, 0
11, 37868, Note_on_c, 9, 39, 115
11, 37952, Note_on_c, 9, 39, 0
11, 37990, Note_on_c, 9, 40, 25
11, 38016, Note_on_c, 9, 46, 63
11, 38166, Note_on_c, 9, 40, 0
11, 38306, Note_on_c, 9, 46, 0
11, 38374, Note_on_c, 9, 40, 32
11, 38400, Note_on_c, 9, 35, 53
11, 38400, Note_on_c, 9, 53, 80
11, 38408, Note_on_c, 9, 44, 95
11, 38684, Note_on_c, 9, 53, 0
11, 38754, Note_on_c, 9, 40, 0
11, 38758, Note_on_c, 9, 40, 35
11, 38792, Note_on_c, 9, 44, 127
11, 38812, Note_on_c, 9, 35, 0
11, 38860, Note_on_c, 9, 44, 0
11, 39100, Note_on_c, 9, 44, 0
11, 39138, Note_on_c, 9, 40, 0
11, 39142, Note_on_c, 9, 40, 28
11, 39522, Note_on_c, 9, 40, 0
11, 39526, Note_on_c, 9, 40, 25
11, 39560, Note_on_c, 9, 44, 127
11, 39702, Note_on_c, 9, 40, 0
11, 39896, Note_on_c, 9, 44, 0
11, 39910, Note_on_c, 9, 40, 32
11, 40290, Note_on_c, 9, 40, 0
11, 40294, Note_on_c, 9, 40, 35
11, 40328, Note_on_c, 9, 44, 127
11, 40672, Note_on_c, 9, 44, 0
11, 40674, Note_on_c, 9, 40, 0
11, 40678, Note_on_c, 9, 40, 28
11, 40944, Note_on_c, 9, 39, 110
11, 41030, Note_on_c, 9, 39, 0
11, 41058, Note_on_c, 9, 40, 0
11, 41062, Note_on_c, 9, 40, 25
11, 41096, Note_on_c, 9, 44, 127
11, 41238, Note_on_c, 9, 40, 0
11, 41426, Note_on_c, 9, 44, 0
11, 41446, Note_on_c, 9, 40, 32
11, 41826, Note_on_c, 9, 40, 0
11, 41830, Note_on_c, 9, 40, 35
11, 41864, Note_on_c, 9, 44, 127
11, 42200, Note_on_c, 9, 44, 0
11, 42210, Note_on_c, 9, 40, 0
11, 42214, Note_on_c, 9, 40, 28
11, 42594, Note_on_c, 9, 40, 0
11, 42598, Note_on_c, 9, 40, 25
11, 42632, Note_on_c, 9, 44, 127
11, 42774, Note_on_c, 9, 40, 0
11, 42968, Note_on_c, 9, 44, 0
11, 42982, Note_on_c, 9, 40, 32
11, 43362, Note_on_c, 9, 40, 0
11, 43366, Note_on_c, 9, 40, 35
11, 43400, Note_on_c, 9, 44, 127
11, 43542, Note_on_c, 9, 40, 0
11, 43728, Note_on_c, 9, 44, 0
11, 43750, Note_on_c, 9, 40, 28
11, 44130, Note_on_c, 9, 40, 0
11, 44134, Note_on_c, 9, 40, 25
11, 44168, Note_on_c, 9, 44, 127
11, 44290, Note_on_c, 9, 44, 0
11, 44310, Note_on_c, 9, 40, 0
11, 44396, Note_on_c, 9, 39, 120
11, 44472, Note_on_c, 9, 39, 0
11, 44518, Note_on_c, 9, 40, 32
11, 44898, Note_on_c, 9, 40, 0
11, 44902, Note_on_c, 9, 40, 35
11, 44936, Note_on_c, 9, 44, 127
11, 45232, Note_on_c, 9, 44, 0
11, 45282, Note_on_c, 9, 40, 0
11, 45286, Note_on_c, 9, 40, 28
11, 45666, Note_on_c, 9, 40, 0
11, 45670, Note_on_c, 9, 40, 25
11, 45704, Note_on_c, 9, 44, 127
11, 45846, Note_on_c, 9, 40, 0
11, 46016, Note_on_c, 9, 44, 0
11, 46054, Note_on_c, 9, 40, 32
11, 46434, Note_on_c, 9, 40, 0
11, 46438, Note_on_c, 9, 40, 35
11, 46472, Note_on_c, 9, 44, 127
11, 46802, Note_on_c, 9, 44, 0
11, 46818, Note_on_c, 9, 40, 0
11, 46822, Note_on_c, 9, 40, 28
11, 47202, Note_on_c, 9, 40, 0
11, 47206, Note_on_c, 9, 40, 25
11, 47240, Note_on_c, 9, 44, 127
11, 47382, Note_on_c, 9, 40, 0
11, 47564, Note_on_c, 9, 44, 0
11, 47590, Note_on_c, 9, 40, 32
11, 47856, Note_on_c, 9, 39, 110
11, 47942, Note_on_c, 9, 39, 0
11, 47970, Note_on_c, 9, 40, 0
11, 47974, Note_on_c, 9, 40, 35
11, 48008, Note_on_c, 9, 44, 127
11, 48326, Note_on_c, 9, 44, 0
11, 48354, Note_on_c, 9, 40, 0
11, 48358, Note_on_c, 9, 40, 28
11, 48384, Note_on_c, 9, 35, 53
11, 48674, Note_on_c, 9, 35, 0
11, 48738, Note_on_c, 9, 40, 0
11, 48742, Note_on_c, 9, 40, 25
11, 48776, Note_on_c, 9, 44, 127
11, 48918, Note_on_c, 9, 40, 0
11, 49008, Note_on_c, 9, 35, 44
11, 49088, Note_on_c, 9, 44, 0
11, 49094, Note_on_c, 9, 35, 0
11, 49126, Note_on_c, 9, 40, 32
11, 49506, Note_on_c, 9, 40, 0
11, 49510, Note_on_c, 9, 40, 35
11, 49544, Note_on_c, 9, 44, 127
11, 49776, Note_on_c, 9, 39, 110
11, 49862, Note_on_c, 9, 39, 0
11, 49864, Note_on_c, 9, 44, 0
11, 49890, Note_on_c, 9, 40, 0
11, 49894, Note_on_c, 9, 40, 28
11, 50160, Note_on_c, 9, 39, 110
11, 50246, Note_on_c, 9, 39, 0
11, 50274, Note_on_c, 9, 40, 0
11, 50278, Note_on_c, 9, 40, 25
11, 50312, Note_on_c, 9, 44, 127
11, 50416, Note_on_c, 9, 44, 0
11, 50658, Note_on_c, 9, 40, 0
11, 50688, Note_on_c, 9, 40, 37
11, 50696, Note_on_c, 9, 42, 10
11, 50774, Note_on_c, 9, 40, 0
11, 50782, Note_on_c, 9, 42, 0
11, 51054, Note_on_c, 9, 40, 35
11, 51088, Note_on_c, 9, 44, 127
11, 51230, Note_on_c, 9, 44, 0
11, 51434, Note_on_c, 9, 40, 0
11, 51462, Note_on_c, 9, 40, 28
11, 51822, Note_on_c, 9, 40, 25
11, 51842, Note_on_c, 9, 40, 0
11, 51856, Note_on_c, 9, 44, 127
11, 52008, Note_on_c, 9, 44, 0
11, 52202, Note_on_c, 9, 40, 0
11, 52206, Note_on_c, 9, 40, 32
11, 52586, Note_on_c, 9, 40, 0
11, 52590, Note_on_c, 9, 40, 35
11, 52624, Note_on_c, 9, 44, 127
11, 52762, Note_on_c, 9, 44, 0
11, 52970, Note_on_c, 9, 40, 0
11, 52974, Note_on_c, 9, 40, 28
11, 53240, Note_on_c, 9, 39, 110
11, 53326, Note_on_c, 9, 39, 0
11, 53354, Note_on_c, 9, 40, 0
11, 53358, Note_on_c, 9, 40, 25
11, 53392, Note_on_c, 9, 44, 127
11, 53560, Note_on_c, 9, 44, 0
11, 53738, Note_on_c, 9, 40, 0
11, 53742, Note_on_c, 9, 40, 32
11, 54122, Note_on_c, 9, 40, 0
11, 54126, Note_on_c, 9, 40, 35
11, 54160, Note_on_c, 9, 44, 127
11, 54314, Note_on_c, 9, 44, 0
11, 54506, Note_on_c, 9, 40, 0
11, 54510, Note_on_c, 9, 40, 28
11, 54890, Note_on_c, 9, 40, 0
11, 54894, Note_on_c, 9, 40, 25
11, 54928, Note_on_c, 9, 44, 127
11, 55070, Note_on_c, 9, 44, 0
11, 55274, Note_on_c, 9, 40, 0
11, 55278, Note_on_c, 9, 40, 32
11, 55658, Note_on_c, 9, 40, 0
11, 55662, Note_on_c, 9, 40, 35
11, 55696, Note_on_c, 9, 44, 127
11, 55838, Note_on_c, 9, 40, 0
11, 55924, Note_on_c, 9, 39, 113
11, 56020, Note_on_c, 9, 39, 0
11, 56040, Note_on_c, 9, 44, 0
11, 56046, Note_on_c, 9, 40, 28
11, 56426, Note_on_c, 9, 40, 0
11, 56430, Note_on_c, 9, 40, 25
11, 56464, Note_on_c, 9, 44, 127
11, 56606, Note_on_c, 9, 40, 0
11, 56788, Note_on_c, 9, 44, 0
11, 56814, Note_on_c, 9, 40, 32
11, 57194, Note_on_c, 9, 40, 0
11, 57198, Note_on_c, 9, 40, 35
11, 57232, Note_on_c, 9, 44, 127
11, 57374, Note_on_c, 9, 40, 0
11, 57568, Note_on_c, 9, 44, 0
11, 57582, Note_on_c, 9, 40, 28
11, 57962, Note_on_c, 9, 40, 0
11, 57966, Note_on_c, 9, 40, 25
11, 58000, Note_on_c, 9, 44, 127
11, 58142, Note_on_c, 9, 40, 0
11, 58328, Note_on_c, 9, 44, 0
11, 58350, Note_on_c, 9, 40, 32
11, 58730, Note_on_c, 9, 40, 0
11, 58734, Note_on_c, 9, 40, 35
11, 58768, Note_on_c, 9, 44, 127
11, 58910, Note_on_c, 9, 40, 0
11, 59104, Note_on_c, 9, 44, 0
11, 59118, Note_on_c, 9, 40, 28
11, 59498, Note_on_c, 9, 40, 0
11, 59502, Note_on_c, 9, 40, 25
11, 59536, Note_on_c, 9, 44, 127
11, 59678, Note_on_c, 9, 40, 0
11, 59866, Note_on_c, 9, 44, 0
11, 59886, Note_on_c, 9, 40, 32
11, 60266, Note_on_c, 9, 40, 0
11, 60270, Note_on_c, 9, 40, 35
11, 60304, Note_on_c, 9, 44, 127
11, 60446, Note_on_c, 9, 40, 0
11, 60632, Note_on_c, 9, 44, 0
11, 60654, Note_on_c, 9, 40, 28
11, 61034, Note_on_c, 9, 40, 0
11, 61038, Note_on_c, 9, 40, 25
11, 61072, Note_on_c, 9, 44, 127
11, 61214, Note_on_c, 9, 40, 0
11, 61300, Note_on_c, 9, 39, 82
11, 61370, Note_on_c, 9, 39, 0
11, 61412, Note_on_c, 9, 44, 0
11, 61422, Note_on_c, 9, 40, 32
11, 61802, Note_on_c, 9, 40, 0
11, 61806, Note_on_c, 9, 40, 35
11, 61840, Note_on_c, 9, 44, 127
11, 62184, Note_on_c, 9, 44, 0
11, 62186, Note_on_c, 9, 40, 0
11, 62190, Note_on_c, 9, 40, 28
11, 62456, Note_on_c, 9, 39, 120
11, 62570, Note_on_c, 9, 40, 0
11, 62608, Note_on_c, 9, 44, 127
11, 62632, Note_on_c, 9, 39, 0
11, 62840, Note_on_c, 9, 35, 49
11, 62926, Note_on_c, 9, 35, 0
11, 62952, Note_on_c, 9, 44, 0
11, 62958, Note_on_c, 9, 40, 32
11, 62978, Note_on_c, 9, 51, 72
11, 63070, Note_on_c, 9, 51, 0
11, 63134, Note_on_c, 9, 40, 0
11, 63134, Program_c, 9, 0
11, 63360, Note_on_c, 9, 44, 110
11, 63378, Note_on_c, 9, 51, 55
11, 63464, Note_on_c, 9, 51, 0
11, 63540, Note_on_c, 9, 44, 0
11, 63676, Note_on_c, 9, 36, 29
11, 63686, Note_on_c, 9, 51, 52
11, 63724, Note_on_c, 9, 51, 0
11, 63748, Note_on_c, 9, 36, 0
11, 63804, Note_on_c, 9, 36, 26
11, 63804, Note_on_c, 9, 51, 38
11, 63874, Note_on_c, 9, 51, 0
11, 63930, Note_on_c, 9, 36, 0
11, 64128, Note_on_c, 9, 44, 112
11, 64154, Note_on_c, 9, 51, 74
11, 64230, Note_on_c, 9, 51, 0
11, 64272, Note_on_c, 9, 44, 0
11, 64516, Note_on_c, 9, 51, 67
11, 64596, Note_on_c, 9, 51, 0
11, 64896, Note_on_c, 9, 44, 106
11, 64904, Note_on_c, 9, 51, 87
11, 64994, Note_on_c, 9, 51, 0
11, 65028, Note_on_c, 9, 44, 0
11, 65182, Note_on_c, 9, 36, 42
11, 65220, Note_on_c, 9, 36, 0
11, 65280, Note_on_c, 9, 51, 54
11, 65392, Note_on_c, 9, 51, 0
11, 65664, Note_on_c, 9, 44, 107
11, 65680, Note_on_c, 9, 51, 85
11, 65772, Note_on_c, 9, 51, 0
11, 65788, Note_on_c, 9, 44, 0
11, 65948, Note_on_c, 9, 51, 64
11, 66020, Note_on_c, 9, 51, 0
11, 66074, Note_on_c, 9, 51, 70
11, 66192, Note_on_c, 9, 51, 0
11, 66432, Note_on_c, 9, 44, 112
11, 66442, Note_on_c, 9, 51, 86
11, 66546, Note_on_c, 9, 44, 0
11, 66562, Note_on_c, 9, 51, 0
11, 66728, Note_on_c, 9, 36, 17
11, 66768, Note_on_c, 9, 36, 0
11, 66808, Note_on_c, 9, 40, 37
11, 66822, Note_on_c, 9, 51, 55
11, 66928, Note_on_c, 9, 51, 0
11, 66956, Note_on_c, 9, 40, 0
11, 67190, Note_on_c, 9, 40, 41
11, 67200, Note_on_c, 9, 44, 110
11, 67220, Note_on_c, 9, 51, 81
11, 67306, Note_on_c, 9, 44, 0
11, 67322, Note_on_c, 9, 51, 0
11, 67420, Note_on_c, 9, 40, 0
11, 67470, Note_on_c, 9, 51, 44
11, 67534, Note_on_c, 9, 51, 0
11, 67584, Note_on_c, 9, 51, 51
11, 67612, Note_on_c, 9, 36, 26
11, 67680, Note_on_c, 9, 36, 0
11, 67720, Note_on_c, 9, 51, 0
11, 67846, Note_on_c, 9, 36, 49
11, 67968, Note_on_c, 9, 44, 103
11, 67980, Note_on_c, 9, 51, 87
11, 68016, Note_on_c, 9, 36, 0
11, 68072, Note_on_c, 9, 44, 0
11, 68120, Note_on_c, 9, 51, 0
11, 68332, Note_on_c, 9, 51, 46
11, 68392, Note_on_c, 9, 36, 43
11, 68434, Note_on_c, 9, 51, 0
11, 68538, Note_on_c, 9, 36, 0
11, 68730, Note_on_c, 9, 51, 87
11, 68736, Note_on_c, 9, 44, 106
11, 68840, Note_on_c, 9, 44, 0
11, 68916, Note_on_c, 9, 51, 0
11, 69010, Note_on_c, 9, 36, 44
11, 69084, Note_on_c, 9, 36, 0
11, 69112, Note_on_c, 9, 51, 50
11, 69214, Note_on_c, 9, 51, 0
11, 69504, Note_on_c, 9, 44, 105
11, 69508, Note_on_c, 9, 51, 83
11, 69584, Note_on_c, 9, 51, 0
11, 69610, Note_on_c, 9, 44, 0
11, 69928, Note_on_c, 9, 51, 43
11, 70108, Note_on_c, 9, 51, 0
11, 70272, Note_on_c, 9, 51, 58
11, 70272, Note_on_c, 9, 44, 107
11, 70376, Note_on_c, 9, 44, 0
11, 70474, Note_on_c, 9, 51, 0
11, 70684, Note_on_c, 9, 51, 33
11, 70820, Note_on_c, 9, 51, 0
11, 71014, Note_on_c, 9, 51, 72
11, 71040, Note_on_c, 9, 44, 112
11, 71138, Note_on_c, 9, 44, 0
11, 71202, Note_on_c, 9, 51, 0
11, 71304, Note_on_c, 9, 36, 32
11, 71348, Note_on_c, 9, 36, 0
11, 71392, Note_on_c, 9, 51, 42
11, 71566, Note_on_c, 9, 51, 0
11, 71764, Note_on_c, 9, 51, 69
11, 71808, Note_on_c, 9, 44, 110
11, 71908, Note_on_c, 9, 44, 0
11, 71938, Note_on_c, 9, 51, 0
11, 72170, Note_on_c, 9, 51, 46
11, 72330, Note_on_c, 9, 51, 0
11, 72566, Note_on_c, 9, 51, 80
11, 72576, Note_on_c, 9, 44, 107
11, 72680, Note_on_c, 9, 44, 0
11, 72734, Note_on_c, 9, 51, 0
11, 72954, Note_on_c, 9, 51, 56
11, 73072, Note_on_c, 9, 51, 0
11, 73338, Note_on_c, 9, 51, 71
11, 73344, Note_on_c, 9, 44, 108
11, 73450, Note_on_c, 9, 51, 0
11, 73454, Note_on_c, 9, 44, 0
11, 73722, Note_on_c, 9, 51, 62
11, 73806, Note_on_c, 9, 51, 0
11, 73988, Note_on_c, 9, 36, 25
11, 74036, Note_on_c, 9, 36, 0
11, 74112, Note_on_c, 9, 44, 108
11, 74114, Note_on_c, 9, 51, 83
11, 74200, Note_on_c, 9, 51, 0
11, 74226, Note_on_c, 9, 44, 0
11, 74416, Note_on_c, 9, 51, 46
11, 74456, Note_on_c, 9, 51, 0
11, 74514, Note_on_c, 9, 51, 74
11, 74618, Note_on_c, 9, 51, 0
11, 74880, Note_on_c, 9, 44, 117
11, 74886, Note_on_c, 9, 51, 92
11, 74972, Note_on_c, 9, 44, 0
11, 75000, Note_on_c, 9, 51, 0
11, 75132, Note_on_c, 9, 36, 47
11, 75166, Note_on_c, 9, 51, 52
11, 75194, Note_on_c, 9, 36, 0
11, 75220, Note_on_c, 9, 51, 0
11, 75278, Note_on_c, 9, 51, 67
11, 75284, Note_on_c, 9, 36, 51
11, 75420, Note_on_c, 9, 51, 0
11, 75422, Program_c, 9, 0
11, 75556, Note_on_c, 9, 36, 0
11, 75648, Note_on_c, 9, 44, 110
11, 75666, Note_on_c, 9, 51, 90
11, 75772, Note_on_c, 9, 51, 0
11, 75828, Note_on_c, 9, 44, 0
11, 75944, Note_on_c, 9, 51, 52
11, 76152, Note_on_c, 9, 51, 0
11, 76322, Note_on_c, 9, 36, 62
11, 76416, Note_on_c, 9, 44, 112
11, 76422, Note_on_c, 9, 51, 81
11, 76524, Note_on_c, 9, 51, 0
11, 76560, Note_on_c, 9, 44, 0
11, 76566, Note_on_c, 9, 36, 0
11, 76796, Note_on_c, 9, 53, 91
11, 76924, Note_on_c, 9, 53, 0
11, 77184, Note_on_c, 9, 44, 106
11, 77192, Note_on_c, 9, 51, 49
11, 77306, Note_on_c, 9, 51, 0
11, 77316, Note_on_c, 9, 44, 0
11, 77434, Note_on_c, 9, 51, 71
11, 77586, Note_on_c, 9, 51, 0
11, 77818, Note_on_c, 9, 51, 25
11, 77858, Note_on_c, 9, 51, 0
11, 77944, Note_on_c, 9, 51, 72
11, 77952, Note_on_c, 9, 44, 107
11, 78076, Note_on_c, 9, 44, 0
11, 78210, Note_on_c, 9, 51, 0
11, 78356, Note_on_c, 9, 51, 67
11, 78460, Note_on_c, 9, 51, 0
11, 78600, Note_on_c, 9, 51, 72
11, 78720, Note_on_c, 9, 44, 112
11, 78744, Note_on_c, 9, 51, 0
11, 78834, Note_on_c, 9, 44, 0
11, 78958, Note_on_c, 9, 51, 85
11, 79170, Note_on_c, 9, 51, 0
11, 79358, Note_on_c, 9, 51, 57
11, 79434, Note_on_c, 9, 51, 0
11, 79488, Note_on_c, 9, 44, 110
11, 79488, Note_on_c, 9, 51, 75
11, 79594, Note_on_c, 9, 44, 0
11, 79724, Note_on_c, 9, 51, 0
11, 79888, Note_on_c, 9, 51, 86
11, 80096, Note_on_c, 9, 51, 0
11, 80256, Note_on_c, 9, 44, 103
11, 80262, Note_on_c, 9, 51, 78
11, 80360, Note_on_c, 9, 44, 0
11, 80436, Note_on_c, 9, 51, 0
11, 80532, Note_on_c, 9, 51, 43
11, 80584, Note_on_c, 9, 51, 0
11, 80640, Note_on_c, 9, 51, 76
11, 80816, Note_on_c, 9, 51, 0
11, 80864, Note_on_c, 9, 36, 42
11, 81024, Note_on_c, 9, 44, 106
11, 81028, Note_on_c, 9, 51, 91
11, 81066, Note_on_c, 9, 36, 0
11, 81128, Note_on_c, 9, 44, 0
11, 81228, Note_on_c, 9, 51, 0
11, 81322, Note_on_c, 9, 51, 45
11, 81388, Note_on_c, 9, 51, 0
11, 81418, Note_on_c, 9, 36, 39
11, 81422, Note_on_c, 9, 51, 62
11, 81598, Note_on_c, 9, 36, 0
11, 81620, Note_on_c, 9, 51, 0
11, 81792, Note_on_c, 9, 44, 105
11, 81814, Note_on_c, 9, 51, 97
11, 81898, Note_on_c, 9, 44, 0
11, 82024, Note_on_c, 9, 51, 0
11, 82220, Note_on_c, 9, 51, 63
11, 82354, Note_on_c, 9, 51, 0
11, 82560, Note_on_c, 9, 44, 107
11, 82590, Note_on_c, 9, 51, 91
11, 82664, Note_on_c, 9, 44, 0
11, 82778, Note_on_c, 9, 51, 0
11, 82870, Note_on_c, 9, 51, 46
11, 82994, Note_on_c, 9, 40, 32
11, 83044, Note_on_c, 9, 40, 0
11, 83118, Note_on_c, 9, 40, 39
11, 83156, Note_on_c, 9, 40, 0
11, 83156, Note_on_c, 9, 51, 0
11, 83328, Note_on_c, 9, 44, 112
11, 83332, Note_on_c, 9, 51, 90
11, 83368, Note_on_c, 9, 36, 32
11, 83426, Note_on_c, 9, 44, 0
11, 83494, Note_on_c, 9, 51, 0
11, 83530, Note_on_c, 9, 36, 0
11, 83622, Note_on_c, 9, 51, 33
11, 83656, Note_on_c, 9, 36, 40
11, 83680, Note_on_c, 9, 51, 0
11, 83736, Note_on_c, 9, 51, 64
11, 83848, Note_on_c, 9, 36, 0
11, 83936, Note_on_c, 9, 51, 0
11, 84096, Note_on_c, 9, 44, 110
11, 84122, Note_on_c, 9, 51, 90
11, 84196, Note_on_c, 9, 44, 0
11, 84260, Note_on_c, 9, 51, 0
11, 84384, Note_on_c, 9, 51, 51
11, 84456, Note_on_c, 9, 51, 0
11, 84502, Note_on_c, 9, 51, 62
11, 84654, Note_on_c, 9, 51, 0
11, 84864, Note_on_c, 9, 44, 107
11, 84866, Note_on_c, 9, 51, 87
11, 84920, Note_on_c, 9, 36, 72
11, 84968, Note_on_c, 9, 44, 0
11, 85040, Note_on_c, 9, 51, 0
11, 85180, Note_on_c, 9, 36, 0
11, 85252, Note_on_c, 9, 51, 60
11, 85414, Note_on_c, 9, 51, 0
11, 85632, Note_on_c, 9, 44, 108
11, 85636, Note_on_c, 9, 51, 83
11, 85742, Note_on_c, 9, 44, 0
11, 85788, Note_on_c, 9, 51, 0
11, 85904, Note_on_c, 9, 36, 37
11, 85948, Note_on_c, 9, 36, 0
11, 86022, Note_on_c, 9, 51, 48
11, 86048, Note_on_c, 9, 36, 30
11, 86156, Note_on_c, 9, 51, 0
11, 86270, Note_on_c, 9, 36, 0
11, 86396, Note_on_c, 9, 51, 87
11, 86400, Note_on_c, 9, 44, 108
11, 86514, Note_on_c, 9, 44, 0
11, 86546, Note_on_c, 9, 51, 0
11, 86638, Note_on_c, 9, 36, 33
11, 86688, Note_on_c, 9, 36, 0
11, 86776, Note_on_c, 9, 51, 39
11, 86910, Note_on_c, 9, 51, 0
11, 87148, Note_on_c, 9, 51, 83
11, 87168, Note_on_c, 9, 36, 25
11, 87168, Note_on_c, 9, 44, 117
11, 87234, Note_on_c, 9, 36, 0
11, 87260, Note_on_c, 9, 44, 0
11, 87304, Note_on_c, 9, 51, 0
11, 87414, Note_on_c, 9, 51, 34
11, 87472, Note_on_c, 9, 51, 0
11, 87528, Note_on_c, 9, 51, 59
11, 87696, Note_on_c, 9, 51, 0
11, 87710, Program_c, 9, 0
11, 87930, Note_on_c, 9, 51, 84
11, 87936, Note_on_c, 9, 44, 110
11, 88078, Note_on_c, 9, 51, 0
11, 88116, Note_on_c, 9, 44, 0
11, 88194, Note_on_c, 9, 51, 35
11, 88252, Note_on_c, 9, 51, 0
11, 88326, Note_on_c, 9, 51, 64
11, 88462, Note_on_c, 9, 51, 0
11, 88690, Note_on_c, 9, 51, 87
11, 88704, Note_on_c, 9, 44, 112
11, 88848, Note_on_c, 9, 44, 0
11, 88854, Note_on_c, 9, 51, 0
11, 88962, Note_on_c, 9, 36, 25
11, 88964, Note_on_c, 9, 51, 36
11, 89038, Note_on_c, 9, 51, 0
11, 89082, Note_on_c, 9, 51, 52
11, 89116, Note_on_c, 9, 36, 0
11, 89224, Note_on_c, 9, 51, 0
11, 89464, Note_on_c, 9, 51, 88
11, 89472, Note_on_c, 9, 44, 106
11, 89598, Note_on_c, 9, 51, 0
11, 89604, Note_on_c, 9, 44, 0
11, 89708, Note_on_c, 9, 36, 32
11, 89766, Note_on_c, 9, 36, 0
11, 89822, Note_on_c, 9, 36, 14
11, 89842, Note_on_c, 9, 51, 76
11, 89960, Note_on_c, 9, 51, 0
11, 90032, Note_on_c, 9, 36, 0
11, 90102, Note_on_c, 9, 51, 47
11, 90154, Note_on_c, 9, 51, 0
11, 90240, Note_on_c, 9, 51, 62
11, 90240, Note_on_c, 9, 44, 107
11, 90328, Note_on_c, 9, 51, 0
11, 90364, Note_on_c, 9, 44, 0
11, 90494, Note_on_c, 9, 51, 92
11, 90742, Note_on_c, 9, 51, 0
11, 90852, Note_on_c, 9, 36, 44
11, 90866, Note_on_c, 9, 51, 51
11, 90938, Note_on_c, 9, 36, 0
11, 90944, Note_on_c, 9, 51, 0
11, 91008, Note_on_c, 9, 44, 112
11, 91016, Note_on_c, 9, 51, 77
11, 91122, Note_on_c, 9, 44, 0
11, 91244, Note_on_c, 9, 51, 0
11, 91388, Note_on_c, 9, 51, 79
11, 91446, Note_on_c, 9, 36, 37
11, 91558, Note_on_c, 9, 51, 0
11, 91568, Note_on_c, 9, 36, 0
11, 91762, Note_on_c, 9, 51, 92
11, 91776, Note_on_c, 9, 44, 110
11, 91882, Note_on_c, 9, 44, 0
11, 91972, Note_on_c, 9, 51, 0
11, 92112, Note_on_c, 9, 51, 44
11, 92244, Note_on_c, 9, 51, 0
11, 92544, Note_on_c, 9, 44, 103
11, 92546, Note_on_c, 9, 51, 83
11, 92648, Note_on_c, 9, 44, 0
11, 92702, Note_on_c, 9, 51, 0
11, 92794, Note_on_c, 9, 51, 43
11, 92856, Note_on_c, 9, 36, 17
11, 92876, Note_on_c, 9, 51, 0
11, 92896, Note_on_c, 9, 36, 0
11, 92932, Note_on_c, 9, 40, 37
11, 92940, Note_on_c, 9, 51, 74
11, 93126, Note_on_c, 9, 51, 0
11, 93156, Note_on_c, 9, 40, 0
11, 93312, Note_on_c, 9, 44, 106
11, 93312, Note_on_c, 9, 51, 87
11, 93324, Note_on_c, 9, 40, 55
11, 93416, Note_on_c, 9, 44, 0
11, 93498, Note_on_c, 9, 51, 0
11, 93584, Note_on_c, 9, 40, 0
11, 93586, Note_on_c, 9, 51, 33
11, 93652, Note_on_c, 9, 51, 0
11, 93712, Note_on_c, 9, 51, 68
11, 93728, Note_on_c, 9, 36, 26
11, 93820, Note_on_c, 9, 36, 0
11, 93850, Note_on_c, 9, 51, 0
11, 93956, Note_on_c, 9, 36, 33
11, 94080, Note_on_c, 9, 44, 105
11, 94094, Note_on_c, 9, 36, 0
11, 94096, Note_on_c, 9, 51, 87
11, 94186, Note_on_c, 9, 44, 0
11, 94258, Note_on_c, 9, 51, 0
11, 94346, Note_on_c, 9, 51, 51
11, 94442, Note_on_c, 9, 51, 0
11, 94480, Note_on_c, 9, 51, 58
11, 94504, Note_on_c, 9, 36, 32
11, 94556, Note_on_c, 9, 36, 0
11, 94630, Note_on_c, 9, 51, 0
11, 94848, Note_on_c, 9, 44, 107
11, 94856, Note_on_c, 9, 51, 93
11, 94952, Note_on_c, 9, 44, 0
11, 95054, Note_on_c, 9, 51, 0
11, 95240, Note_on_c, 9, 51, 71
11, 95342, Note_on_c, 9, 51, 0
11, 95604, Note_on_c, 9, 51, 67
11, 95616, Note_on_c, 9, 44, 112
11, 95714, Note_on_c, 9, 44, 0
11, 95760, Note_on_c, 9, 51, 0
11, 96012, Note_on_c, 9, 51, 55
11, 96176, Note_on_c, 9, 51, 0
11, 96374, Note_on_c, 9, 51, 63
11, 96384, Note_on_c, 9, 44, 110
11, 96408, Note_on_c, 9, 36, 39
11, 96484, Note_on_c, 9, 44, 0
11, 96540, Note_on_c, 9, 36, 0
11, 96590, Note_on_c, 9, 51, 0
11, 96656, Note_on_c, 9, 36, 47
11, 96754, Note_on_c, 9, 51, 45
11, 96916, Note_on_c, 9, 36, 0
11, 97046, Note_on_c, 9, 51, 0
11, 97132, Note_on_c, 9, 51, 68
11, 97152, Note_on_c, 9, 44, 107
11, 97256, Note_on_c, 9, 44, 0
11, 97344, Note_on_c, 9, 51, 0
11, 97522, Note_on_c, 9, 51, 33
11, 97748, Note_on_c, 9, 51, 0
11, 97902, Note_on_c, 9, 51, 70
11, 97920, Note_on_c, 9, 44, 108
11, 98030, Note_on_c, 9, 44, 0
11, 98076, Note_on_c, 9, 51, 0
11, 98154, Note_on_c, 9, 51, 55
11, 98174, Note_on_c, 9, 40, 44
11, 98228, Note_on_c, 9, 40, 0
11, 98250, Note_on_c, 9, 51, 0
11, 98300, Note_on_c, 9, 51, 53
11, 98394, Note_on_c, 9, 36, 27
11, 98440, Note_on_c, 9, 36, 0
11, 98574, Note_on_c, 9, 51, 0
11, 98582, Note_on_c, 9, 36, 56
11, 98676, Note_on_c, 9, 51, 63
11, 98688, Note_on_c, 9, 44, 108
11, 98802, Note_on_c, 9, 44, 0
11, 98832, Note_on_c, 9, 51, 0
11, 98874, Note_on_c, 9, 36, 0
11, 98940, Note_on_c, 9, 51, 43
11, 99024, Note_on_c, 9, 51, 0
11, 99086, Note_on_c, 9, 51, 76
11, 99126, Note_on_c, 9, 36, 47
11, 99302, Note_on_c, 9, 51, 0
11, 99320, Note_on_c, 9, 36, 0
11, 99446, Note_on_c, 9, 51, 88
11, 99456, Note_on_c, 9, 44, 117
11, 99548, Note_on_c, 9, 44, 0
11, 99672, Note_on_c, 9, 51, 0
11, 99848, Note_on_c, 9, 51, 49
11, 99998, Program_c, 9, 0
11, 100006, Note_on_c, 9, 51, 0
11, 100132, Note_on_c, 9, 51, 46
11, 100192, Note_on_c, 9, 51, 0
11, 100224, Note_on_c, 9, 44, 110
11, 100240, Note_on_c, 9, 51, 72
11, 100404, Note_on_c, 9, 44, 0
11, 100512, Note_on_c, 9, 51, 0
11, 100616, Note_on_c, 9, 51, 62
11, 100868, Note_on_c, 9, 36, 44
11, 100876, Note_on_c, 9, 51, 0
11, 100912, Note_on_c, 9, 36, 0
11, 100974, Note_on_c, 9, 51, 76
11, 100992, Note_on_c, 9, 44, 112
11, 101136, Note_on_c, 9, 44, 0
11, 101152, Note_on_c, 9, 51, 0
11, 101376, Note_on_c, 9, 51, 57
11, 101422, Note_on_c, 9, 36, 34
11, 101498, Note_on_c, 9, 51, 0
11, 101500, Note_on_c, 9, 36, 0
11, 101634, Note_on_c, 9, 51, 84
11, 101760, Note_on_c, 9, 44, 106
11, 101862, Note_on_c, 9, 51, 0
11, 101892, Note_on_c, 9, 44, 0
11, 101998, Note_on_c, 9, 36, 39
11, 102018, Note_on_c, 9, 51, 58
11, 102046, Note_on_c, 9, 36, 0
11, 102098, Note_on_c, 9, 51, 0
11, 102170, Note_on_c, 9, 51, 83
11, 102432, Note_on_c, 9, 51, 0
11, 102528, Note_on_c, 9, 44, 107
11, 102548, Note_on_c, 9, 51, 50
11, 102550, Note_on_c, 9, 36, 37
11, 102640, Note_on_c, 9, 51, 0
11, 102652, Note_on_c, 9, 44, 0
11, 102688, Note_on_c, 9, 36, 0
11, 102784, Note_on_c, 9, 51, 91
11, 103020, Note_on_c, 9, 51, 0
11, 103180, Note_on_c, 9, 51, 55
11, 103220, Note_on_c, 9, 51, 0
11, 103296, Note_on_c, 9, 44, 112
11, 103316, Note_on_c, 9, 51, 72
11, 103410, Note_on_c, 9, 44, 0
11, 103584, Note_on_c, 9, 51, 0
11, 103682, Note_on_c, 9, 51, 64
11, 103948, Note_on_c, 9, 51, 0
11, 104048, Note_on_c, 9, 51, 76
11, 104064, Note_on_c, 9, 44, 110
11, 104170, Note_on_c, 9, 44, 0
11, 104216, Note_on_c, 9, 51, 0
11, 104346, Note_on_c, 9, 51, 65
11, 104428, Note_on_c, 9, 51, 0
11, 104470, Note_on_c, 9, 51, 73
11, 104688, Note_on_c, 9, 37, 51
11, 104690, Note_on_c, 9, 51, 0
11, 104726, Note_on_c, 9, 37, 0
11, 104832, Note_on_c, 9, 44, 103
11, 104834, Note_on_c, 9, 51, 82
11, 104936, Note_on_c, 9, 44, 0
11, 105036, Note_on_c, 9, 51, 0
11, 105202, Note_on_c, 9, 51, 59
11, 105242, Note_on_c, 9, 37, 71
11, 105394, Note_on_c, 9, 37, 0
11, 105456, Note_on_c, 9, 51, 0
11, 105586, Note_on_c, 9, 51, 80
11, 105600, Note_on_c, 9, 44, 106
11, 105644, Note_on_c, 9, 36, 23
11, 105704, Note_on_c, 9, 44, 0
11, 105708, Note_on_c, 9, 36, 0
11, 105798, Note_on_c, 9, 51, 0
11, 105844, Note_on_c, 9, 36, 56
11, 105974, Note_on_c, 9, 51, 60
11, 106104, Note_on_c, 9, 36, 0
11, 106236, Note_on_c, 9, 51, 0
11, 106336, Note_on_c, 9, 51, 71
11, 106368, Note_on_c, 9, 44, 105
11, 106474, Note_on_c, 9, 44, 0
11, 106500, Note_on_c, 9, 51, 0
11, 106728, Note_on_c, 9, 51, 67
11, 106884, Note_on_c, 9, 51, 0
11, 107126, Note_on_c, 9, 51, 80
11, 107136, Note_on_c, 9, 44, 107
11, 107240, Note_on_c, 9, 44, 0
11, 107250, Note_on_c, 9, 51, 0
11, 107548, Note_on_c, 9, 51, 83
11, 107628, Note_on_c, 9, 51, 0
11, 107800, Note_on_c, 9, 36, 23
11, 107856, Note_on_c, 9, 36, 0
11, 107904, Note_on_c, 9, 44, 112
11, 107960, Note_on_c, 9, 51, 62
11, 108002, Note_on_c, 9, 44, 0
11, 108004, Note_on_c, 9, 51, 0
11, 108178, Note_on_c, 9, 36, 42
11, 108186, Note_on_c, 9, 51, 54
11, 108220, Note_on_c, 9, 36, 0
11, 108260, Note_on_c, 9, 51, 0
11, 108314, Note_on_c, 9, 36, 50
11, 108320, Note_on_c, 9, 51, 60
11, 108420, Note_on_c, 9, 51, 0
11, 108534, Note_on_c, 9, 36, 0
11, 108672, Note_on_c, 9, 44, 110
11, 108688, Note_on_c, 9, 51, 92
11, 108772, Note_on_c, 9, 44, 0
11, 108790, Note_on_c, 9, 51, 0
11, 108954, Note_on_c, 9, 51, 53
11, 108976, Note_on_c, 9, 36, 28
11, 109008, Note_on_c, 9, 51, 0
11, 109028, Note_on_c, 9, 36, 0
11, 109074, Note_on_c, 9, 51, 64
11, 109192, Note_on_c, 9, 51, 0
11, 109434, Note_on_c, 9, 51, 83
11, 109440, Note_on_c, 9, 44, 107
11, 109536, Note_on_c, 9, 51, 0
11, 109544, Note_on_c, 9, 44, 0
11, 109698, Note_on_c, 9, 51, 54
11, 109738, Note_on_c, 9, 51, 0
11, 109776, Note_on_c, 9, 36, 27
11, 109788, Note_on_c, 9, 51, 25
11, 109840, Note_on_c, 9, 36, 0
11, 109896, Note_on_c, 9, 51, 0
11, 110024, Note_on_c, 9, 44, 66
11, 110052, Note_on_c, 9, 53, 83
11, 110072, Note_on_c, 9, 44, 0
11, 110180, Note_on_c, 9, 53, 0
11, 110208, Note_on_c, 9, 44, 108
11, 110280, Note_on_c, 9, 44, 66
11, 110318, Note_on_c, 9, 44, 0
11, 110342, Note_on_c, 9, 44, 0
11, 110480, Note_on_c, 9, 51, 52
11, 110518, Note_on_c, 9, 51, 0
11, 110534, Note_on_c, 9, 36, 43
11, 110626, Note_on_c, 9, 51, 53
11, 110662, Note_on_c, 9, 36, 0
11, 110832, Note_on_c, 9, 51, 0
11, 110976, Note_on_c, 9, 44, 108
11, 110986, Note_on_c, 9, 51, 78
11, 111090, Note_on_c, 9, 44, 0
11, 111146, Note_on_c, 9, 51, 0
11, 111258, Note_on_c, 9, 36, 39
11, 111264, Note_on_c, 9, 51, 31
11, 111308, Note_on_c, 9, 36, 0
11, 111314, Note_on_c, 9, 51, 0
11, 111392, Note_on_c, 9, 51, 63
11, 111510, Note_on_c, 9, 51, 0
11, 111744, Note_on_c, 9, 44, 117
11, 111752, Note_on_c, 9, 51, 90
11, 111780, Note_on_c, 9, 36, 51
11, 111836, Note_on_c, 9, 44, 0
11, 111902, Note_on_c, 9, 36, 0
11, 111908, Note_on_c, 9, 51, 0
11, 112004, Note_on_c, 9, 51, 44
11, 112052, Note_on_c, 9, 51, 0
11, 112148, Note_on_c, 9, 51, 63
11, 112282, Note_on_c, 9, 51, 0
11, 112286, Program_c, 9, 0
11, 112512, Note_on_c, 9, 44, 110
11, 112518, Note_on_c, 9, 51, 91
11, 112652, Note_on_c, 9, 51, 0
11, 112692, Note_on_c, 9, 44, 0
11, 112778, Note_on_c, 9, 51, 47
11, 112866, Note_on_c, 9, 51, 0
11, 112924, Note_on_c, 9, 51, 59
11, 113040, Note_on_c, 9, 51, 0
11, 113276, Note_on_c, 9, 51, 92
11, 113280, Note_on_c, 9, 44, 112
11, 113404, Note_on_c, 9, 51, 0
11, 113424, Note_on_c, 9, 44, 0
11, 113534, Note_on_c, 9, 46, 51
11, 113580, Note_on_c, 9, 46, 0
11, 113650, Note_on_c, 9, 51, 70
11, 113810, Note_on_c, 9, 51, 0
11, 113916, Note_on_c, 9, 51, 38
11, 113952, Note_on_c, 9, 36, 34
11, 113978, Note_on_c, 9, 51, 0
11, 114000, Note_on_c, 9, 36, 0
11, 114048, Note_on_c, 9, 44, 106
11, 114060, Note_on_c, 9, 51, 73
11, 114088, Note_on_c, 9, 36, 37
11, 114180, Note_on_c, 9, 44, 0
11, 114228, Note_on_c, 9, 51, 0
11, 114272, Note_on_c, 9, 36, 0
11, 114318, Note_on_c, 9, 36, 42
11, 114434, Note_on_c, 9, 51, 83
11, 114532, Note_on_c, 9, 36, 0
11, 114614, Note_on_c, 9, 51, 0
11, 114816, Note_on_c, 9, 44, 107
11, 114820, Note_on_c, 9, 51, 80
11, 114940, Note_on_c, 9, 44, 0
11, 114964, Note_on_c, 9, 51, 0
11, 115194, Note_on_c, 9, 51, 74
11, 115324, Note_on_c, 9, 51, 0
11, 115584, Note_on_c, 9, 44, 112
11, 115588, Note_on_c, 9, 51, 87
11, 115698, Note_on_c, 9, 44, 0
11, 115728, Note_on_c, 9, 51, 0
11, 115884, Note_on_c, 9, 51, 53
11, 115944, Note_on_c, 9, 51, 0
11, 116004, Note_on_c, 9, 51, 71
11, 116144, Note_on_c, 9, 51, 0
11, 116352, Note_on_c, 9, 44, 110
11, 116352, Note_on_c, 9, 51, 86
11, 116458, Note_on_c, 9, 44, 0
11, 116496, Note_on_c, 9, 51, 0
11, 116616, Note_on_c, 9, 51, 36
11, 116674, Note_on_c, 9, 51, 0
11, 116738, Note_on_c, 9, 51, 71
11, 116864, Note_on_c, 9, 51, 0
11, 116996, Note_on_c, 9, 40, 25
11, 117096, Note_on_c, 9, 40, 0
11, 117110, Note_on_c, 9, 51, 86
11, 117120, Note_on_c, 9, 44, 103
11, 117200, Note_on_c, 9, 51, 0
11, 117224, Note_on_c, 9, 44, 0
11, 117364, Note_on_c, 9, 51, 60
11, 117376, Note_on_c, 9, 40, 39
11, 117408, Note_on_c, 9, 51, 0
11, 117484, Note_on_c, 9, 40, 0
11, 117496, Note_on_c, 9, 51, 53
11, 117574, Note_on_c, 9, 51, 0
11, 117746, Note_on_c, 9, 40, 42
11, 117756, Note_on_c, 9, 51, 91
11, 117860, Note_on_c, 9, 40, 0
11, 117876, Note_on_c, 9, 51, 0
11, 117888, Note_on_c, 9, 44, 106
11, 117950, Note_on_c, 9, 51, 51
11, 117992, Note_on_c, 9, 51, 0
11, 117992, Note_on_c, 9, 44, 0
11, 118104, Note_on_c, 9, 40, 42
11, 118192, Note_on_c, 9, 40, 0
11, 118244, Note_on_c, 9, 46, 41
11, 118268, Note_on_c, 9, 36, 46
11, 118298, Note_on_c, 9, 51, 85
11, 118360, Note_on_c, 9, 46, 0
11, 118386, Note_on_c, 9, 36, 0
11, 118420, Note_on_c, 9, 51, 0
11, 118656, Note_on_c, 9, 44, 105
11, 118672, Note_on_c, 9, 51, 58
11, 118722, Note_on_c, 9, 51, 0
11, 118762, Note_on_c, 9, 44, 0
11, 118904, Note_on_c, 9, 51, 84
11, 119056, Note_on_c, 9, 51, 0
11, 119262, Note_on_c, 9, 51, 47
11, 119274, Note_on_c, 9, 40, 37
11, 119322, Note_on_c, 9, 40, 0
11, 119332, Note_on_c, 9, 51, 0
11, 119424, Note_on_c, 9, 44, 107
11, 119424, Note_on_c, 9, 36, 55
11, 119440, Note_on_c, 9, 51, 80
11, 119528, Note_on_c, 9, 44, 0
11, 119600, Note_on_c, 9, 51, 0
11, 119680, Note_on_c, 9, 36, 0
11, 119798, Note_on_c, 9, 51, 42
11, 119882, Note_on_c, 9, 51, 0
11, 120066, Note_on_c, 9, 51, 85
11, 120192, Note_on_c, 9, 44, 112
11, 120208, Note_on_c, 9, 51, 0
11, 120290, Note_on_c, 9, 44, 0
11, 120432, Note_on_c, 9, 51, 48
11, 120476, Note_on_c, 9, 51, 0
11, 120592, Note_on_c, 9, 51, 80
11, 120780, Note_on_c, 9, 51, 0
11, 120960, Note_on_c, 9, 44, 110
11, 120976, Note_on_c, 9, 51, 76
11, 121060, Note_on_c, 9, 44, 0
11, 121094, Note_on_c, 9, 51, 0
11, 121246, Note_on_c, 9, 51, 29
11, 121288, Note_on_c, 9, 51, 0
11, 121350, Note_on_c, 9, 51, 74
11, 121488, Note_on_c, 9, 51, 0
11, 121588, Note_on_c, 9, 36, 34
11, 121638, Note_on_c, 9, 36, 0
11, 121728, Note_on_c, 9, 44, 107
11, 121736, Note_on_c, 9, 51, 87
11, 121738, Note_on_c, 9, 36, 35
11, 121832, Note_on_c, 9, 44, 0
11, 121850, Note_on_c, 9, 51, 0
11, 121880, Note_on_c, 9, 36, 0
11, 121992, Note_on_c, 9, 51, 37
11, 122040, Note_on_c, 9, 51, 0
11, 122110, Note_on_c, 9, 51, 68
11, 122254, Note_on_c, 9, 51, 0
11, 122496, Note_on_c, 9, 44, 108
11, 122496, Note_on_c, 9, 51, 83
11, 122606, Note_on_c, 9, 44, 0
11, 122642, Note_on_c, 9, 51, 0
11, 122854, Note_on_c, 9, 51, 53
11, 122948, Note_on_c, 9, 51, 0
11, 123132, Note_on_c, 9, 51, 81
11, 123264, Note_on_c, 9, 44, 108
11, 123266, Note_on_c, 9, 51, 0
11, 123378, Note_on_c, 9, 44, 0
11, 123508, Note_on_c, 9, 51, 46
11, 123556, Note_on_c, 9, 51, 0
11, 123646, Note_on_c, 9, 51, 72
11, 123824, Note_on_c, 9, 51, 0
11, 124032, Note_on_c, 9, 44, 117
11, 124040, Note_on_c, 9, 51, 70
11, 124110, Note_on_c, 9, 51, 0
11, 124124, Note_on_c, 9, 44, 0
11, 124256, Note_on_c, 9, 51, 90
11, 124392, Note_on_c, 9, 51, 0
11, 124574, Program_c, 9, 0
11, 124658, Note_on_c, 9, 51, 33
11, 124700, Note_on_c, 9, 51, 0
11, 124796, Note_on_c, 9, 51, 76
11, 124800, Note_on_c, 9, 44, 110
11, 124952, Note_on_c, 9, 51, 0
11, 124980, Note_on_c, 9, 44, 0
11, 124998, Note_on_c, 9, 36, 34
11, 125092, Note_on_c, 9, 36, 0
11, 125188, Note_on_c, 9, 51, 88
11, 125356, Note_on_c, 9, 51, 0
11, 125554, Note_on_c, 9, 36, 38
11, 125568, Note_on_c, 9, 44, 112
11, 125604, Note_on_c, 9, 51, 73
11, 125628, Note_on_c, 9, 36, 0
11, 125680, Note_on_c, 9, 51, 0
11, 125712, Note_on_c, 9, 44, 0
11, 125830, Note_on_c, 9, 51, 71
11, 125874, Note_on_c, 9, 51, 0
11, 125964, Note_on_c, 9, 51, 75
11, 126118, Note_on_c, 9, 51, 0
11, 126336, Note_on_c, 9, 44, 106
11, 126338, Note_on_c, 9, 51, 87
11, 126468, Note_on_c, 9, 44, 0
11, 126474, Note_on_c, 9, 51, 0
11, 126608, Note_on_c, 9, 51, 49
11, 126652, Note_on_c, 9, 51, 0
11, 126726, Note_on_c, 9, 51, 64
11, 126844, Note_on_c, 9, 51, 0
11, 127060, Note_on_c, 9, 36, 35
11, 127090, Note_on_c, 9, 51, 88
11, 127104, Note_on_c, 9, 44, 107
11, 127196, Note_on_c, 9, 36, 0
11, 127218, Note_on_c, 9, 51, 0
11, 127228, Note_on_c, 9, 44, 0
11, 127376, Note_on_c, 9, 51, 50
11, 127414, Note_on_c, 9, 51, 0
11, 127476, Note_on_c, 9, 51, 51
11, 127490, Note_on_c, 9, 36, 43
11, 127582, Note_on_c, 9, 51, 0
11, 127652, Note_on_c, 9, 36, 0
11, 127856, Note_on_c, 9, 51, 81
11, 127872, Note_on_c, 9, 44, 112
11, 127970, Note_on_c, 9, 51, 0
11, 127986, Note_on_c, 9, 44, 0
11, 128136, Note_on_c, 9, 51, 48
11, 128176, Note_on_c, 9, 51, 0
11, 128254, Note_on_c, 9, 51, 61
11, 128372, Note_on_c, 9, 51, 0
11, 128640, Note_on_c, 9, 44, 110
11, 128648, Note_on_c, 9, 51, 77
11, 128746, Note_on_c, 9, 44, 0
11, 128790, Note_on_c, 9, 51, 0
11, 129016, Note_on_c, 9, 40, 38
11, 129038, Note_on_c, 9, 51, 62
11, 129052, Note_on_c, 9, 40, 0
11, 129128, Note_on_c, 9, 40, 40
11, 129158, Note_on_c, 9, 51, 0
11, 129166, Note_on_c, 9, 40, 0
11, 129382, Note_on_c, 9, 36, 46
11, 129408, Note_on_c, 9, 44, 103
11, 129420, Note_on_c, 9, 51, 86
11, 129506, Note_on_c, 9, 50, 27
11, 129512, Note_on_c, 9, 44, 0
11, 129550, Note_on_c, 9, 36, 0
11, 129552, Note_on_c, 9, 51, 0
11, 129552, Note_on_c, 9, 50, 0
11, 129816, Note_on_c, 9, 51, 49
11, 129928, Note_on_c, 9, 51, 0
11, 130086, Note_on_c, 9, 36, 43
11, 130176, Note_on_c, 9, 44, 106
11, 130184, Note_on_c, 9, 51, 86
11, 130200, Note_on_c, 9, 36, 0
11, 130280, Note_on_c, 9, 44, 0
11, 130336, Note_on_c, 9, 51, 0
11, 130592, Note_on_c, 9, 51, 71
11, 130598, Note_on_c, 9, 36, 42
11, 130672, Note_on_c, 9, 51, 0
11, 130752, Note_on_c, 9, 36, 0
11, 130944, Note_on_c, 9, 44, 105
11, 130948, Note_on_c, 9, 51, 88
11, 131050, Note_on_c, 9, 44, 0
11, 131066, Note_on_c, 9, 51, 0
11, 131216, Note_on_c, 9, 51, 60
11, 131254, Note_on_c, 9, 51, 0
11, 131332, Note_on_c, 9, 51, 67
11, 131456, Note_on_c, 9, 51, 0
11, 131584, Note_on_c, 9, 36, 32
11, 131636, Note_on_c, 9, 36, 0
11, 131712, Note_on_c, 9, 44, 107
11, 131740, Note_on_c, 9, 51, 82
11, 131816, Note_on_c, 9, 44, 0
11, 131830, Note_on_c, 9, 51, 0
11, 132116, Note_on_c, 9, 36, 35
11, 132152, Note_on_c, 9, 51, 45
11, 132194, Note_on_c, 9, 36, 0
11, 132224, Note_on_c, 9, 51, 0
11, 132480, Note_on_c, 9, 44, 112
11, 132578, Note_on_c, 9, 44, 0
11, 132880, Note_on_c, 9, 51, 56
11, 133126, Note_on_c, 9, 51, 0
11, 133248, Note_on_c, 9, 44, 110
11, 133266, Note_on_c, 9, 51, 74
11, 133348, Note_on_c, 9, 44, 0
11, 133490, Note_on_c, 9, 51, 0
11, 133642, Note_on_c, 9, 51, 40
11, 133864, Note_on_c, 9, 51, 0
11, 134012, Note_on_c, 9, 51, 80
11, 134016, Note_on_c, 9, 44, 107
11, 134120, Note_on_c, 9, 44, 0
11, 134200, Note_on_c, 9, 51, 0
11, 134404, Note_on_c, 9, 51, 45
11, 134582, Note_on_c, 9, 51, 0
11, 134764, Note_on_c, 9, 51, 71
11, 134784, Note_on_c, 9, 44, 108
11, 134894, Note_on_c, 9, 44, 0
11, 134900, Note_on_c, 9, 51, 0
11, 135030, Note_on_c, 9, 51, 48
11, 135112, Note_on_c, 9, 51, 0
11, 135178, Note_on_c, 9, 51, 67
11, 135394, Note_on_c, 9, 51, 0
11, 135534, Note_on_c, 9, 51, 75
11, 135552, Note_on_c, 9, 44, 108
11, 135666, Note_on_c, 9, 44, 0
11, 135692, Note_on_c, 9, 51, 0
11, 135810, Note_on_c, 9, 51, 45
11, 135888, Note_on_c, 9, 51, 0
11, 135960, Note_on_c, 9, 51, 72
11, 136172, Note_on_c, 9, 51, 0
11, 136312, Note_on_c, 9, 51, 76
11, 136320, Note_on_c, 9, 44, 117
11, 136412, Note_on_c, 9, 44, 0
11, 136512, Note_on_c, 9, 51, 0
11, 136668, Note_on_c, 9, 57, 18
11, 136688, Note_on_c, 9, 51, 55
11, 136694, Note_on_c, 9, 36, 56
11, 136774, Note_on_c, 9, 57, 0
11, 136862, Program_c, 9, 0
11, 136908, Note_on_c, 9, 51, 0
11, 136920, Note_on_c, 9, 36, 0
11, 137066, Note_on_c, 9, 51, 51
11, 137088, Note_on_c, 9, 44, 110
11, 137192, Note_on_c, 9, 51, 0
11, 137268, Note_on_c, 9, 44, 0
11, 137360, Note_on_c, 9, 51, 59
11, 137472, Note_on_c, 9, 51, 0
11, 137530, Note_on_c, 9, 51, 69
11, 137748, Note_on_c, 9, 51, 0
11, 137842, Note_on_c, 9, 51, 71
11, 137856, Note_on_c, 9, 44, 112
11, 138000, Note_on_c, 9, 44, 0
11, 138018, Note_on_c, 9, 51, 0
11, 138102, Note_on_c, 9, 51, 53
11, 138200, Note_on_c, 9, 51, 0
11, 138242, Note_on_c, 9, 51, 64
11, 138472, Note_on_c, 9, 51, 0
11, 138482, Note_on_c, 9, 36, 34
11, 138526, Note_on_c, 9, 36, 0
11, 138616, Note_on_c, 9, 51, 83
11, 138624, Note_on_c, 9, 44, 106
11, 138756, Note_on_c, 9, 44, 0
11, 138784, Note_on_c, 9, 51, 0
11, 138904, Note_on_c, 9, 51, 46
11, 139028, Note_on_c, 9, 36, 27
11, 139088, Note_on_c, 9, 36, 0
11, 139228, Note_on_c, 9, 51, 0
11, 139382, Note_on_c, 9, 51, 77
11, 139392, Note_on_c, 9, 44, 107
11, 139516, Note_on_c, 9, 44, 0
11, 139542, Note_on_c, 9, 51, 0
11, 139622, Note_on_c, 9, 36, 28
11, 139680, Note_on_c, 9, 36, 0
11, 139680, Note_on_c, 9, 51, 62
11, 139758, Note_on_c, 9, 51, 0
11, 139810, Note_on_c, 9, 51, 68
11, 140042, Note_on_c, 9, 51, 0
11, 140160, Note_on_c, 9, 44, 112
11, 140166, Note_on_c, 9, 51, 75
11, 140274, Note_on_c, 9, 44, 0
11, 140398, Note_on_c, 9, 51, 0
11, 140552, Note_on_c, 9, 51, 72
11, 140772, Note_on_c, 9, 51, 0
11, 140928, Note_on_c, 9, 44, 110
11, 140930, Note_on_c, 9, 51, 75
11, 141028, Note_on_c, 9, 51, 0
11, 141034, Note_on_c, 9, 44, 0
11, 141294, Note_on_c, 9, 51, 76
11, 141364, Note_on_c, 9, 51, 0
11, 141546, Note_on_c, 9, 36, 27
11, 141658, Note_on_c, 9, 51, 75
11, 141692, Note_on_c, 9, 36, 0
11, 141696, Note_on_c, 9, 44, 103
11, 141756, Note_on_c, 9, 51, 0
11, 141800, Note_on_c, 9, 44, 0
11, 141936, Note_on_c, 9, 51, 59
11, 142002, Note_on_c, 9, 51, 0
11, 142072, Note_on_c, 9, 51, 74
11, 142086, Note_on_c, 9, 36, 23
11, 142150, Note_on_c, 9, 36, 0
11, 142222, Note_on_c, 9, 51, 0
11, 142452, Note_on_c, 9, 51, 84
11, 142464, Note_on_c, 9, 44, 106
11, 142568, Note_on_c, 9, 44, 0
11, 142580, Note_on_c, 9, 51, 0
11, 142724, Note_on_c, 9, 51, 42
11, 142776, Note_on_c, 9, 51, 0
11, 142836, Note_on_c, 9, 51, 67
11, 142960, Note_on_c, 9, 51, 0
11, 143208, Note_on_c, 9, 51, 88
11, 143232, Note_on_c, 9, 44, 105
11, 143336, Note_on_c, 9, 51, 0
11, 143338, Note_on_c, 9, 44, 0
11, 143532, Note_on_c, 9, 51, 33
11, 143572, Note_on_c, 9, 51, 0
11, 143632, Note_on_c, 9, 51, 74
11, 143766, Note_on_c, 9, 51, 0
11, 143992, Note_on_c, 9, 51, 88
11, 144000, Note_on_c, 9, 44, 107
11, 144104, Note_on_c, 9, 44, 0
11, 144118, Note_on_c, 9, 51, 0
11, 144324, Note_on_c, 9, 36, 21
11, 144366, Note_on_c, 9, 51, 51
11, 144390, Note_on_c, 9, 36, 0
11, 144482, Note_on_c, 9, 51, 0
11, 144488, Note_on_c, 9, 36, 44
11, 144656, Note_on_c, 9, 36, 0
11, 144660, Note_on_c, 9, 51, 50
11, 144744, Note_on_c, 9, 51, 0
11, 144768, Note_on_c, 9, 44, 112
11, 144774, Note_on_c, 9, 51, 53
11, 144866, Note_on_c, 9, 44, 0
11, 144914, Note_on_c, 9, 51, 0
11, 145144, Note_on_c, 9, 51, 84
11, 145294, Note_on_c, 9, 51, 0
11, 145456, Note_on_c, 9, 51, 46
11, 145524, Note_on_c, 9, 51, 0
11, 145536, Note_on_c, 9, 44, 110
11, 145546, Note_on_c, 9, 36, 23
11, 145636, Note_on_c, 9, 44, 0
11, 145798, Note_on_c, 9, 51, 88
11, 145820, Note_on_c, 9, 36, 0
11, 145932, Note_on_c, 9, 51, 0
11, 145944, Note_on_c, 9, 36, 28
11, 146090, Note_on_c, 9, 36, 0
11, 146174, Note_on_c, 9, 51, 47
11, 146236, Note_on_c, 9, 51, 0
11, 146304, Note_on_c, 9, 44, 107
11, 146314, Note_on_c, 9, 51, 78
11, 146408, Note_on_c, 9, 44, 0
11, 146516, Note_on_c, 9, 51, 0
11, 146696, Note_on_c, 9, 51, 84
11, 146880, Note_on_c, 9, 51, 0
11, 147072, Note_on_c, 9, 44, 108
11, 147076, Note_on_c, 9, 51, 87
11, 147182, Note_on_c, 9, 44, 0
11, 147250, Note_on_c, 9, 51, 0
11, 147342, Note_on_c, 9, 51, 35
11, 147402, Note_on_c, 9, 51, 0
11, 147454, Note_on_c, 9, 51, 62
11, 147614, Note_on_c, 9, 51, 0
11, 147832, Note_on_c, 9, 51, 85
11, 147840, Note_on_c, 9, 44, 108
11, 147954, Note_on_c, 9, 44, 0
11, 148010, Note_on_c, 9, 51, 0
11, 148090, Note_on_c, 9, 36, 30
11, 148098, Note_on_c, 9, 51, 40
11, 148144, Note_on_c, 9, 36, 0
11, 148152, Note_on_c, 9, 51, 0
11, 148226, Note_on_c, 9, 51, 70
11, 148386, Note_on_c, 9, 51, 0
11, 148604, Note_on_c, 9, 51, 88
11, 148608, Note_on_c, 9, 44, 117
11, 148632, Note_on_c, 9, 36, 40
11, 148700, Note_on_c, 9, 44, 0
11, 148756, Note_on_c, 9, 36, 0
11, 148778, Note_on_c, 9, 51, 0
11, 148864, Note_on_c, 9, 51, 36
11, 148930, Note_on_c, 9, 51, 0
11, 148986, Note_on_c, 9, 51, 64
11, 149124, Note_on_c, 9, 51, 0
11, 149150, Program_c, 9, 0
11, 149358, Note_on_c, 9, 51, 86
11, 149376, Note_on_c, 9, 44, 110
11, 149492, Note_on_c, 9, 51, 0
11, 149556, Note_on_c, 9, 44, 0
11, 149750, Note_on_c, 9, 51, 76
11, 149918, Note_on_c, 9, 51, 0
11, 150004, Note_on_c, 9, 51, 42
11, 150072, Note_on_c, 9, 51, 0
11, 150142, Note_on_c, 9, 51, 75
11, 150144, Note_on_c, 9, 44, 112
11, 150288, Note_on_c, 9, 44, 0
11, 150290, Note_on_c, 9, 51, 0
11, 150514, Note_on_c, 9, 51, 78
11, 150686, Note_on_c, 9, 51, 0
11, 150888, Note_on_c, 9, 51, 72
11, 150912, Note_on_c, 9, 44, 106
11, 151032, Note_on_c, 9, 51, 0
11, 151044, Note_on_c, 9, 44, 0
11, 151156, Note_on_c, 9, 51, 38
11, 151216, Note_on_c, 9, 51, 0
11, 151288, Note_on_c, 9, 51, 75
11, 151438, Note_on_c, 9, 51, 0
11, 151660, Note_on_c, 9, 51, 91
11, 151680, Note_on_c, 9, 44, 107
11, 151800, Note_on_c, 9, 51, 0
11, 151804, Note_on_c, 9, 44, 0
11, 151914, Note_on_c, 9, 51, 54
11, 151936, Note_on_c, 9, 40, 28
11, 151984, Note_on_c, 9, 40, 0
11, 151994, Note_on_c, 9, 51, 0
11, 152060, Note_on_c, 9, 51, 75
11, 152088, Note_on_c, 9, 40, 28
11, 152136, Note_on_c, 9, 40, 0
11, 152200, Note_on_c, 9, 51, 0
11, 152314, Note_on_c, 9, 36, 39
11, 152440, Note_on_c, 9, 36, 0
11, 152440, Note_on_c, 9, 51, 86
11, 152448, Note_on_c, 9, 44, 112
11, 152562, Note_on_c, 9, 44, 0
11, 152562, Note_on_c, 9, 51, 0
11, 152712, Note_on_c, 9, 51, 48
11, 152766, Note_on_c, 9, 51, 0
11, 152832, Note_on_c, 9, 51, 69
11, 152948, Note_on_c, 9, 51, 0
11, 153082, Note_on_c, 9, 40, 30
11, 153126, Note_on_c, 9, 40, 0
11, 153186, Note_on_c, 9, 51, 80
11, 153206, Note_on_c, 9, 40, 44
11, 153216, Note_on_c, 9, 44, 110
11, 153292, Note_on_c, 9, 40, 0
11, 153322, Note_on_c, 9, 44, 0
11, 153328, Note_on_c, 9, 51, 0
11, 153452, Note_on_c, 9, 51, 44
11, 153490, Note_on_c, 9, 51, 0
11, 153586, Note_on_c, 9, 51, 59
11, 153616, Note_on_c, 9, 36, 31
11, 153740, Note_on_c, 9, 36, 0
11, 153740, Note_on_c, 9, 51, 0
11, 153836, Note_on_c, 9, 36, 44
11, 153962, Note_on_c, 9, 51, 83
11, 153972, Note_on_c, 9, 36, 0
11, 153984, Note_on_c, 9, 44, 103
11, 153992, Note_on_c, 9, 53, 46
11, 154088, Note_on_c, 9, 44, 0
11, 154096, Note_on_c, 9, 53, 0
11, 154134, Note_on_c, 9, 51, 0
11, 154364, Note_on_c, 9, 51, 60
11, 154374, Note_on_c, 9, 40, 42
11, 154482, Note_on_c, 9, 40, 0
11, 154492, Note_on_c, 9, 51, 0
11, 154554, Note_on_c, 9, 40, 37
11, 154636, Note_on_c, 9, 51, 83
11, 154648, Note_on_c, 9, 40, 0
11, 154648, Note_on_c, 9, 53, 84
11, 154716, Note_on_c, 9, 36, 39
11, 154752, Note_on_c, 9, 44, 106
11, 154826, Note_on_c, 9, 51, 0
11, 154844, Note_on_c, 9, 53, 0
11, 154856, Note_on_c, 9, 44, 0
11, 154910, Note_on_c, 9, 36, 0
11, 155008, Note_on_c, 9, 51, 70
11, 155086, Note_on_c, 9, 51, 0
11, 155192, Note_on_c, 9, 51, 78
11, 155202, Note_on_c, 9, 53, 71
11, 155372, Note_on_c, 9, 51, 0
11, 155416, Note_on_c, 9, 53, 0
11, 155520, Note_on_c, 9, 44, 105
11, 155542, Note_on_c, 9, 51, 59
11, 155626, Note_on_c, 9, 44, 0
11, 155628, Note_on_c, 9, 51, 0
11, 155768, Note_on_c, 9, 51, 91
11, 155784, Note_on_c, 9, 53, 70
11, 155940, Note_on_c, 9, 51, 0
11, 156002, Note_on_c, 9, 53, 0
11, 156138, Note_on_c, 9, 40, 37
11, 156144, Note_on_c, 9, 51, 67
11, 156186, Note_on_c, 9, 40, 0
11, 156228, Note_on_c, 9, 51, 0
11, 156278, Note_on_c, 9, 51, 71
11, 156288, Note_on_c, 9, 44, 107
11, 156302, Note_on_c, 9, 53, 79
11, 156392, Note_on_c, 9, 44, 0
11, 156506, Note_on_c, 9, 51, 0
11, 156564, Note_on_c, 9, 53, 0
11, 156708, Note_on_c, 9, 51, 68
11, 156820, Note_on_c, 9, 51, 0
11, 156928, Note_on_c, 9, 40, 35
11, 156944, Note_on_c, 9, 51, 80
11, 156968, Note_on_c, 9, 40, 0
11, 157056, Note_on_c, 9, 44, 112
11, 157148, Note_on_c, 9, 51, 0
11, 157154, Note_on_c, 9, 44, 0
11, 157324, Note_on_c, 9, 51, 38
11, 157366, Note_on_c, 9, 51, 0
11, 157416, Note_on_c, 9, 40, 15
11, 157438, Note_on_c, 9, 51, 74
11, 157612, Note_on_c, 9, 40, 0
11, 157668, Note_on_c, 9, 51, 0
11, 157824, Note_on_c, 9, 44, 110
11, 157836, Note_on_c, 9, 51, 77
11, 157844, Note_on_c, 9, 40, 38
11, 157888, Note_on_c, 9, 40, 0
11, 157924, Note_on_c, 9, 44, 0
11, 158004, Note_on_c, 9, 51, 0
11, 158052, Note_on_c, 9, 40, 35
11, 158102, Note_on_c, 9, 51, 44
11, 158156, Note_on_c, 9, 40, 0
11, 158188, Note_on_c, 9, 51, 0
11, 158226, Note_on_c, 9, 51, 60
11, 158420, Note_on_c, 9, 51, 0
11, 158432, Note_on_c, 9, 36, 26
11, 158504, Note_on_c, 9, 36, 0
11, 158580, Note_on_c, 9, 51, 87
11, 158592, Note_on_c, 9, 44, 107
11, 158696, Note_on_c, 9, 44, 0
11, 158756, Note_on_c, 9, 51, 0
11, 158852, Note_on_c, 9, 51, 45
11, 158934, Note_on_c, 9, 51, 0
11, 158984, Note_on_c, 9, 51, 70
11, 159158, Note_on_c, 9, 51, 0
11, 159360, Note_on_c, 9, 51, 91
11, 159360, Note_on_c, 9, 44, 108
11, 159470, Note_on_c, 9, 44, 0
11, 159536, Note_on_c, 9, 51, 0
11, 159734, Note_on_c, 9, 51, 65
11, 159878, Note_on_c, 9, 51, 0
11, 159964, Note_on_c, 9, 40, 31
11, 160110, Note_on_c, 9, 51, 83
11, 160128, Note_on_c, 9, 44, 108
11, 160182, Note_on_c, 9, 40, 0
11, 160242, Note_on_c, 9, 44, 0
11, 160246, Note_on_c, 9, 51, 0
11, 160498, Note_on_c, 9, 51, 75
11, 160508, Note_on_c, 9, 40, 38
11, 160614, Note_on_c, 9, 40, 0
11, 160622, Note_on_c, 9, 51, 0
11, 160874, Note_on_c, 9, 51, 85
11, 160896, Note_on_c, 9, 44, 117
11, 160988, Note_on_c, 9, 44, 0
11, 160992, Note_on_c, 9, 51, 0
11, 161272, Note_on_c, 9, 51, 83
11, 161384, Note_on_c, 9, 51, 0
11, 161438, Program_c, 9, 0
11, 161658, Note_on_c, 9, 51, 91
11, 161664, Note_on_c, 9, 44, 110
11, 161810, Note_on_c, 9, 51, 0
11, 161844, Note_on_c, 9, 44, 0
11, 162028, Note_on_c, 9, 51, 72
11, 162058, Note_on_c, 9, 40, 34
11, 162124, Note_on_c, 9, 40, 0
11, 162134, Note_on_c, 9, 51, 0
11, 162288, Note_on_c, 9, 51, 59
11, 162296, Note_on_c, 9, 40, 33
11, 162338, Note_on_c, 9, 40, 0
11, 162348, Note_on_c, 9, 51, 0
11, 162418, Note_on_c, 9, 51, 81
11, 162432, Note_on_c, 9, 44, 112
11, 162434, Note_on_c, 9, 36, 25
11, 162576, Note_on_c, 9, 44, 0
11, 162616, Note_on_c, 9, 51, 0
11, 162672, Note_on_c, 9, 36, 0
11, 162798, Note_on_c, 9, 36, 39
11, 162808, Note_on_c, 9, 51, 83
11, 162954, Note_on_c, 9, 36, 0
11, 163004, Note_on_c, 9, 51, 0
11, 163200, Note_on_c, 9, 44, 106
11, 163206, Note_on_c, 9, 51, 84
11, 163332, Note_on_c, 9, 44, 0
11, 163338, Note_on_c, 9, 51, 0
11, 163418, Note_on_c, 9, 36, 31
11, 163472, Note_on_c, 9, 51, 83
11, 163484, Note_on_c, 9, 53, 78
11, 163526, Note_on_c, 9, 36, 0
11, 163672, Note_on_c, 9, 53, 0
11, 163688, Note_on_c, 9, 51, 0
11, 163788, Note_on_c, 9, 36, 30
11, 163838, Note_on_c, 9, 36, 0
11, 163862, Note_on_c, 9, 51, 63
11, 163932, Note_on_c, 9, 51, 0
11, 163932, Note_on_c, 9, 40, 43
11, 163968, Note_on_c, 9, 44, 107
11, 164008, Note_on_c, 9, 51, 76
11, 164016, Note_on_c, 9, 53, 74
11, 164084, Note_on_c, 9, 40, 0
11, 164092, Note_on_c, 9, 44, 0
11, 164196, Note_on_c, 9, 36, 44
11, 164246, Note_on_c, 9, 51, 0
11, 164256, Note_on_c, 9, 53, 0
11, 164380, Note_on_c, 9, 51, 56
11, 164450, Note_on_c, 9, 36, 0
11, 164492, Note_on_c, 9, 51, 0
11, 164636, Note_on_c, 9, 51, 86
11, 164736, Note_on_c, 9, 44, 112
11, 164776, Note_on_c, 9, 36, 37
11, 164814, Note_on_c, 9, 51, 0
11, 164850, Note_on_c, 9, 44, 0
11, 164898, Note_on_c, 9, 36, 0
11, 164976, Note_on_c, 9, 51, 52
11, 165066, Note_on_c, 9, 51, 0
11, 165130, Note_on_c, 9, 51, 79
11, 165362, Note_on_c, 9, 51, 0
11, 165504, Note_on_c, 9, 44, 110
11, 165508, Note_on_c, 9, 51, 80
11, 165610, Note_on_c, 9, 44, 0
11, 165690, Note_on_c, 9, 51, 0
11, 165772, Note_on_c, 9, 51, 51
11, 165846, Note_on_c, 9, 51, 0
11, 165912, Note_on_c, 9, 51, 78
11, 166102, Note_on_c, 9, 51, 0
11, 166272, Note_on_c, 9, 44, 103
11, 166290, Note_on_c, 9, 51, 86
11, 166376, Note_on_c, 9, 44, 0
11, 166472, Note_on_c, 9, 51, 0
11, 166550, Note_on_c, 9, 51, 55
11, 166632, Note_on_c, 9, 51, 0
11, 166688, Note_on_c, 9, 51, 76
11, 166868, Note_on_c, 9, 51, 0
11, 167040, Note_on_c, 9, 44, 106
11, 167046, Note_on_c, 9, 51, 91
11, 167144, Note_on_c, 9, 44, 0
11, 167220, Note_on_c, 9, 51, 0
11, 167310, Note_on_c, 9, 51, 54
11, 167396, Note_on_c, 9, 51, 0
11, 167430, Note_on_c, 9, 51, 57
11, 167606, Note_on_c, 9, 51, 0
11, 167676, Note_on_c, 9, 36, 23
11, 167726, Note_on_c, 9, 36, 0
11, 167808, Note_on_c, 9, 51, 88
11, 167808, Note_on_c, 9, 44, 105
11, 167914, Note_on_c, 9, 44, 0
11, 167978, Note_on_c, 9, 51, 0
11, 168060, Note_on_c, 9, 51, 52
11, 168144, Note_on_c, 9, 51, 0
11, 168196, Note_on_c, 9, 51, 64
11, 168384, Note_on_c, 9, 51, 0
11, 168574, Note_on_c, 9, 51, 86
11, 168576, Note_on_c, 9, 44, 107
11, 168680, Note_on_c, 9, 44, 0
11, 168744, Note_on_c, 9, 51, 0
11, 168820, Note_on_c, 9, 51, 50
11, 168898, Note_on_c, 9, 51, 0
11, 168968, Note_on_c, 9, 51, 77
11, 169132, Note_on_c, 9, 51, 0
11, 169344, Note_on_c, 9, 51, 83
11, 169344, Note_on_c, 9, 44, 112
11, 169442, Note_on_c, 9, 44, 0
11, 169544, Note_on_c, 9, 51, 0
11, 169722, Note_on_c, 9, 51, 86
11, 169952, Note_on_c, 9, 51, 0
11, 170106, Note_on_c, 9, 51, 76
11, 170112, Note_on_c, 9, 44, 110
11, 170126, Note_on_c, 9, 37, 69
11, 170212, Note_on_c, 9, 44, 0
11, 170216, Note_on_c, 9, 51, 0
11, 170308, Note_on_c, 9, 37, 0
11, 170372, Note_on_c, 9, 51, 50
11, 170424, Note_on_c, 9, 51, 0
11, 170498, Note_on_c, 9, 51, 79
11, 170688, Note_on_c, 9, 51, 0
11, 170874, Note_on_c, 9, 51, 90
11, 170880, Note_on_c, 9, 44, 107
11, 170984, Note_on_c, 9, 44, 0
11, 171066, Note_on_c, 9, 51, 0
11, 171140, Note_on_c, 9, 51, 54
11, 171218, Note_on_c, 9, 51, 0
11, 171270, Note_on_c, 9, 51, 76
11, 171442, Note_on_c, 9, 51, 0
11, 171644, Note_on_c, 9, 51, 92
11, 171648, Note_on_c, 9, 44, 108
11, 171672, Note_on_c, 9, 36, 28
11, 171688, Note_on_c, 9, 37, 45
11, 171758, Note_on_c, 9, 44, 0
11, 171840, Note_on_c, 9, 36, 0
11, 171870, Note_on_c, 9, 37, 0
11, 171880, Note_on_c, 9, 51, 0
11, 172018, Note_on_c, 9, 51, 40
11, 172128, Note_on_c, 9, 51, 0
11, 172294, Note_on_c, 9, 51, 60
11, 172376, Note_on_c, 9, 51, 0
11, 172402, Note_on_c, 9, 51, 52
11, 172416, Note_on_c, 9, 44, 108
11, 172530, Note_on_c, 9, 44, 0
11, 172616, Note_on_c, 9, 51, 0
11, 172802, Note_on_c, 9, 51, 87
11, 173044, Note_on_c, 9, 51, 0
11, 173160, Note_on_c, 9, 51, 38
11, 173184, Note_on_c, 9, 44, 117
11, 173202, Note_on_c, 9, 37, 53
11, 173212, Note_on_c, 9, 36, 39
11, 173268, Note_on_c, 9, 51, 0
11, 173276, Note_on_c, 9, 44, 0
11, 173370, Note_on_c, 9, 37, 0
11, 173396, Note_on_c, 9, 36, 0
11, 173438, Note_on_c, 9, 51, 48
11, 173504, Note_on_c, 9, 51, 0
11, 173566, Note_on_c, 9, 51, 83
11, 173726, Program_c, 9, 0
11, 173760, Note_on_c, 9, 51, 0
11, 173952, Note_on_c, 9, 44, 110
11, 173968, Note_on_c, 9, 51, 68
11, 174040, Note_on_c, 9, 51, 0
11, 174132, Note_on_c, 9, 44, 0
11, 174192, Note_on_c, 9, 51, 90
11, 174404, Note_on_c, 9, 51, 0
11, 174592, Note_on_c, 9, 51, 58
11, 174662, Note_on_c, 9, 51, 0
11, 174720, Note_on_c, 9, 44, 112
11, 174750, Note_on_c, 9, 37, 57
11, 174752, Note_on_c, 9, 51, 85
11, 174756, Note_on_c, 9, 36, 39
11, 174864, Note_on_c, 9, 44, 0
11, 174888, Note_on_c, 9, 36, 0
11, 174938, Note_on_c, 9, 37, 0
11, 174954, Note_on_c, 9, 51, 0
11, 175132, Note_on_c, 9, 51, 62
11, 175212, Note_on_c, 9, 51, 0
11, 175324, Note_on_c, 9, 37, 37
11, 175358, Note_on_c, 9, 51, 92
11, 175364, Note_on_c, 9, 37, 0
11, 175484, Note_on_c, 9, 51, 0
11, 175488, Note_on_c, 9, 44, 106
11, 175620, Note_on_c, 9, 44, 0
11, 175736, Note_on_c, 9, 51, 59
11, 175782, Note_on_c, 9, 51, 0
11, 175872, Note_on_c, 9, 51, 77
11, 176056, Note_on_c, 9, 51, 0
11, 176240, Note_on_c, 9, 37, 57
11, 176254, Note_on_c, 9, 51, 65
11, 176256, Note_on_c, 9, 44, 107
11, 176268, Note_on_c, 9, 36, 35
11, 176380, Note_on_c, 9, 44, 0
11, 176380, Note_on_c, 9, 51, 0
11, 176408, Note_on_c, 9, 36, 0
11, 176444, Note_on_c, 9, 37, 0
11, 176648, Note_on_c, 9, 51, 50
11, 176724, Note_on_c, 9, 51, 0
11, 176800, Note_on_c, 9, 51, 74
11, 176898, Note_on_c, 9, 51, 0
11, 177024, Note_on_c, 9, 44, 112
11, 177090, Note_on_c, 9, 51, 91
11, 177138, Note_on_c, 9, 44, 0
11, 177220, Note_on_c, 9, 51, 0
11, 177444, Note_on_c, 9, 51, 85
11, 177644, Note_on_c, 9, 51, 0
11, 177786, Note_on_c, 9, 51, 76
11, 177792, Note_on_c, 9, 44, 110
11, 177834, Note_on_c, 9, 37, 38
11, 177842, Note_on_c, 9, 36, 31
11, 177888, Note_on_c, 9, 51, 0
11, 177898, Note_on_c, 9, 44, 0
11, 177988, Note_on_c, 9, 36, 0
11, 177998, Note_on_c, 9, 37, 0
11, 178044, Note_on_c, 9, 51, 71
11, 178112, Note_on_c, 9, 51, 0
11, 178162, Note_on_c, 9, 51, 69
11, 178352, Note_on_c, 9, 51, 0
11, 178548, Note_on_c, 9, 51, 84
11, 178560, Note_on_c, 9, 44, 103
11, 178664, Note_on_c, 9, 44, 0
11, 178696, Note_on_c, 9, 51, 0
11, 178856, Note_on_c, 9, 51, 39
11, 178898, Note_on_c, 9, 51, 0
11, 178960, Note_on_c, 9, 51, 77
11, 179122, Note_on_c, 9, 51, 0
11, 179328, Note_on_c, 9, 44, 106
11, 179338, Note_on_c, 9, 51, 92
11, 179432, Note_on_c, 9, 44, 0
11, 179478, Note_on_c, 9, 51, 0
11, 179618, Note_on_c, 9, 51, 64
11, 179686, Note_on_c, 9, 51, 0
11, 179738, Note_on_c, 9, 51, 64
11, 179870, Note_on_c, 9, 51, 0
11, 180096, Note_on_c, 9, 44, 105
11, 180100, Note_on_c, 9, 51, 88
11, 180202, Note_on_c, 9, 44, 0
11, 180218, Note_on_c, 9, 51, 0
11, 180374, Note_on_c, 9, 51, 62
11, 180444, Note_on_c, 9, 51, 0
11, 180492, Note_on_c, 9, 51, 63
11, 180634, Note_on_c, 9, 51, 0
11, 180864, Note_on_c, 9, 44, 107
11, 180876, Note_on_c, 9, 51, 86
11, 180968, Note_on_c, 9, 44, 0
11, 181008, Note_on_c, 9, 51, 0
11, 181082, Note_on_c, 9, 40, 55
11, 181158, Note_on_c, 9, 51, 39
11, 181160, Note_on_c, 9, 40, 0
11, 181196, Note_on_c, 9, 51, 0
11, 181260, Note_on_c, 9, 51, 67
11, 181370, Note_on_c, 9, 40, 53
11, 181382, Note_on_c, 9, 51, 0
11, 181462, Note_on_c, 9, 40, 0
11, 181632, Note_on_c, 9, 44, 112
11, 181640, Note_on_c, 9, 51, 86
11, 181730, Note_on_c, 9, 44, 0
11, 181758, Note_on_c, 9, 51, 0
11, 181914, Note_on_c, 9, 51, 64
11, 181986, Note_on_c, 9, 51, 0
11, 182056, Note_on_c, 9, 51, 76
11, 182148, Note_on_c, 9, 51, 0
11, 182400, Note_on_c, 9, 44, 110
11, 182400, Note_on_c, 9, 51, 86
11, 182436, Note_on_c, 9, 36, 35
11, 182500, Note_on_c, 9, 44, 0
11, 182520, Note_on_c, 9, 51, 0
11, 182622, Note_on_c, 9, 36, 0
11, 182680, Note_on_c, 9, 51, 50
11, 182698, Note_on_c, 9, 36, 52
11, 182720, Note_on_c, 9, 51, 0
11, 182784, Note_on_c, 9, 51, 64
11, 182868, Note_on_c, 9, 36, 0
11, 182892, Note_on_c, 9, 51, 0
11, 183168, Note_on_c, 9, 44, 107
11, 183168, Note_on_c, 9, 51, 90
11, 183272, Note_on_c, 9, 44, 0
11, 183288, Note_on_c, 9, 51, 0
11, 183428, Note_on_c, 9, 51, 47
11, 183472, Note_on_c, 9, 51, 0
11, 183544, Note_on_c, 9, 51, 68
11, 183662, Note_on_c, 9, 51, 0
11, 183936, Note_on_c, 9, 44, 108
11, 183938, Note_on_c, 9, 51, 90
11, 184046, Note_on_c, 9, 44, 0
11, 184056, Note_on_c, 9, 51, 0
11, 184182, Note_on_c, 9, 51, 46
11, 184234, Note_on_c, 9, 51, 0
11, 184316, Note_on_c, 9, 51, 67
11, 184422, Note_on_c, 9, 51, 0
11, 184694, Note_on_c, 9, 51, 86
11, 184704, Note_on_c, 9, 44, 108
11, 184818, Note_on_c, 9, 44, 0
11, 184834, Note_on_c, 9, 51, 0
11, 184950, Note_on_c, 9, 36, 37
11, 185000, Note_on_c, 9, 36, 0
11, 185018, Note_on_c, 9, 51, 62
11, 185058, Note_on_c, 9, 51, 0
11, 185122, Note_on_c, 9, 51, 62
11, 185134, Note_on_c, 9, 36, 35
11, 185218, Note_on_c, 9, 51, 0
11, 185306, Note_on_c, 9, 36, 0
11, 185410, Note_on_c, 9, 36, 38
11, 185472, Note_on_c, 9, 44, 117
11, 185472, Note_on_c, 9, 51, 87
11, 185528, Note_on_c, 9, 36, 0
11, 185564, Note_on_c, 9, 44, 0
11, 185610, Note_on_c, 9, 51, 0
11, 185752, Note_on_c, 9, 36, 39
11, 185848, Note_on_c, 9, 51, 81
11, 185878, Note_on_c, 9, 36, 0
11, 185992, Note_on_c, 9, 51, 0
11, 186014, Program_c, 9, 0
11, 186228, Note_on_c, 9, 51, 85
11, 186240, Note_on_c, 9, 44, 110
11, 186374, Note_on_c, 9, 51, 0
11, 186420, Note_on_c, 9, 44, 0
11, 186522, Note_on_c, 9, 51, 46
11, 186564, Note_on_c, 9, 51, 0
11, 186630, Note_on_c, 9, 51, 75
11, 186784, Note_on_c, 9, 51, 0
11, 187008, Note_on_c, 9, 44, 112
11, 187008, Note_on_c, 9, 51, 92
11, 187152, Note_on_c, 9, 44, 0
11, 187172, Note_on_c, 9, 51, 0
11, 187270, Note_on_c, 9, 51, 43
11, 187350, Note_on_c, 9, 51, 0
11, 187394, Note_on_c, 9, 51, 58
11, 187562, Note_on_c, 9, 51, 0
11, 187776, Note_on_c, 9, 44, 106
11, 187780, Note_on_c, 9, 51, 90
11, 187908, Note_on_c, 9, 44, 0
11, 187960, Note_on_c, 9, 51, 0
11, 188170, Note_on_c, 9, 51, 70
11, 188304, Note_on_c, 9, 51, 0
11, 188544, Note_on_c, 9, 44, 107
11, 188556, Note_on_c, 9, 51, 87
11, 188668, Note_on_c, 9, 44, 0
11, 188700, Note_on_c, 9, 51, 0
11, 188814, Note_on_c, 9, 51, 42
11, 188874, Note_on_c, 9, 51, 0
11, 188930, Note_on_c, 9, 51, 71
11, 189086, Note_on_c, 9, 51, 0
11, 189312, Note_on_c, 9, 44, 112
11, 189312, Note_on_c, 9, 51, 86
11, 189426, Note_on_c, 9, 44, 0
11, 189476, Note_on_c, 9, 51, 0
11, 189560, Note_on_c, 9, 51, 50
11, 189636, Note_on_c, 9, 51, 0
11, 189686, Note_on_c, 9, 51, 67
11, 189840, Note_on_c, 9, 51, 0
11, 190064, Note_on_c, 9, 51, 88
11, 190080, Note_on_c, 9, 44, 110
11, 190186, Note_on_c, 9, 44, 0
11, 190240, Note_on_c, 9, 51, 0
11, 190332, Note_on_c, 9, 51, 47
11, 190404, Note_on_c, 9, 51, 0
11, 190460, Note_on_c, 9, 51, 74
11, 190598, Note_on_c, 9, 51, 0
11, 190838, Note_on_c, 9, 51, 91
11, 190848, Note_on_c, 9, 44, 103
11, 190952, Note_on_c, 9, 44, 0
11, 191024, Note_on_c, 9, 51, 0
11, 191104, Note_on_c, 9, 51, 53
11, 191180, Note_on_c, 9, 51, 0
11, 191220, Note_on_c, 9, 36, 25
11, 191230, Note_on_c, 9, 51, 69
11, 191338, Note_on_c, 9, 36, 0
11, 191364, Note_on_c, 9, 51, 0
11, 191598, Note_on_c, 9, 51, 87
11, 191616, Note_on_c, 9, 44, 106
11, 191628, Note_on_c, 9, 36, 35
11, 191720, Note_on_c, 9, 44, 0
11, 191802, Note_on_c, 9, 51, 0
11, 191820, Note_on_c, 9, 36, 0
11, 192000, Note_on_c, 9, 51, 80
11, 192142, Note_on_c, 9, 51, 0
11, 192384, Note_on_c, 9, 51, 85
11, 192384, Note_on_c, 9, 44, 105
11, 192490, Note_on_c, 9, 44, 0
11, 192554, Note_on_c, 9, 51, 0
11, 192638, Note_on_c, 9, 51, 51
11, 192722, Note_on_c, 9, 51, 0
11, 192766, Note_on_c, 9, 51, 52
11, 192918, Note_on_c, 9, 51, 0
11, 193128, Note_on_c, 9, 51, 87
11, 193152, Note_on_c, 9, 44, 107
11, 193256, Note_on_c, 9, 44, 0
11, 193296, Note_on_c, 9, 51, 0
11, 193480, Note_on_c, 9, 40, 27
11, 193522, Note_on_c, 9, 51, 84
11, 193552, Note_on_c, 9, 40, 0
11, 193688, Note_on_c, 9, 51, 0
11, 193916, Note_on_c, 9, 51, 77
11, 193920, Note_on_c, 9, 44, 107
11, 193920, Note_on_c, 9, 53, 71
11, 194018, Note_on_c, 9, 44, 0
11, 194096, Note_on_c, 9, 53, 0
11, 194108, Note_on_c, 9, 51, 0
11, 194136, Note_on_c, 9, 40, 29
11, 194270, Note_on_c, 9, 40, 0
11, 194306, Note_on_c, 9, 51, 55
11, 194440, Note_on_c, 9, 51, 0
11, 194456, Note_on_c, 9, 40, 22
11, 194552, Note_on_c, 9, 40, 0
11, 194684, Note_on_c, 9, 51, 75
11, 194688, Note_on_c, 9, 53, 69
11, 194688, Note_on_c, 9, 44, 101
11, 194704, Note_on_c, 9, 36, 32
11, 194788, Note_on_c, 9, 44, 0
11, 194824, Note_on_c, 9, 36, 0
11, 194872, Note_on_c, 9, 53, 0
11, 194908, Note_on_c, 9, 51, 0
11, 194948, Note_on_c, 9, 36, 37
11, 195070, Note_on_c, 9, 51, 60
11, 195172, Note_on_c, 9, 36, 0
11, 195202, Note_on_c, 9, 51, 0
11, 195444, Note_on_c, 9, 51, 76
11, 195456, Note_on_c, 9, 44, 93
11, 195560, Note_on_c, 9, 44, 0
11, 195628, Note_on_c, 9, 51, 0
11, 195852, Note_on_c, 9, 51, 38
11, 195972, Note_on_c, 9, 51, 0
11, 196224, Note_on_c, 9, 44, 88
11, 196226, Note_on_c, 9, 46, 50
11, 196228, Note_on_c, 9, 51, 62
11, 196334, Note_on_c, 9, 44, 0
11, 196360, Note_on_c, 9, 46, 0
11, 196376, Note_on_c, 9, 51, 0
11, 196444, Note_on_c, 9, 36, 24
11, 196500, Note_on_c, 9, 36, 0
11, 196602, Note_on_c, 9, 36, 21
11, 196798, Note_on_c, 9, 36, 0
11, 196992, Note_on_c, 9, 44, 84
11, 197004, Note_on_c, 9, 51, 53
11, 197106, Note_on_c, 9, 44, 0
11, 197148, Note_on_c, 9, 51, 0
11, 197260, Note_on_c, 9, 51, 38
11, 197316, Note_on_c, 9, 51, 0
11, 197398, Note_on_c, 9, 51, 48
11, 197590, Note_on_c, 9, 51, 0
11, 197624, Note_on_c, 9, 36, 34
11, 197760, Note_on_c, 9, 44, 85
11, 197778, Note_on_c, 9, 51, 60
11, 197804, Note_on_c, 9, 36, 0
11, 197852, Note_on_c, 9, 44, 0
11, 197940, Note_on_c, 9, 51, 0
11, 198028, Note_on_c, 9, 51, 26
11, 198084, Note_on_c, 9, 51, 0
11, 198152, Note_on_c, 9, 51, 36
11, 198190, Note_on_c, 9, 36, 34
11, 198302, Program_c, 9, 0
11, 198322, Note_on_c, 9, 51, 0
11, 198376, Note_on_c, 9, 36, 0
11, 198528, Note_on_c, 9, 44, 74
11, 198528, Note_on_c, 9, 51, 56
11, 198698, Note_on_c, 9, 51, 0
11, 198708, Note_on_c, 9, 44, 0
11, 198772, Note_on_c, 9, 51, 35
11, 198858, Note_on_c, 9, 51, 0
11, 198908, Note_on_c, 9, 51, 31
11, 199072, Note_on_c, 9, 51, 0
11, 199282, Note_on_c, 9, 51, 52
11, 199296, Note_on_c, 9, 44, 71
11, 199440, Note_on_c, 9, 44, 0
11, 199454, Note_on_c, 9, 51, 0
11, 199536, Note_on_c, 9, 51, 29
11, 199616, Note_on_c, 9, 51, 0
11, 199682, Note_on_c, 9, 51, 35
11, 199682, Note_on_c, 9, 36, 15
11, 199836, Note_on_c, 9, 51, 0
11, 199844, Note_on_c, 9, 36, 0
11, 199932, Note_on_c, 9, 36, 15
11, 200052, Note_on_c, 9, 36, 0
11, 200056, Note_on_c, 9, 51, 49
11, 200064, Note_on_c, 9, 44, 62
11, 200196, Note_on_c, 9, 44, 0
11, 200208, Note_on_c, 9, 51, 0
11, 200312, Note_on_c, 9, 51, 19
11, 200360, Note_on_c, 9, 51, 0
11, 200432, Note_on_c, 9, 51, 34
11, 200460, Note_on_c, 9, 36, 20
11, 200514, Note_on_c, 9, 53, 56
11, 200560, Note_on_c, 9, 51, 0
11, 200560, Note_on_c, 9, 53, 0
11, 200570, Note_on_c, 9, 36, 0
11, 200816, Note_on_c, 9, 51, 45
11, 200832, Note_on_c, 9, 44, 57
11, 200956, Note_on_c, 9, 44, 0
11, 200980, Note_on_c, 9, 51, 0
11, 201206, Note_on_c, 9, 51, 42
11, 201384, Note_on_c, 9, 51, 0
11, 201600, Note_on_c, 9, 44, 56
11, 201614, Note_on_c, 9, 51, 38
11, 201714, Note_on_c, 9, 44, 0
11, 201750, Note_on_c, 9, 51, 0
11, 201832, Note_on_c, 9, 51, 28
11, 201914, Note_on_c, 9, 51, 0
11, 201978, Note_on_c, 9, 51, 32
11, 202126, Note_on_c, 9, 51, 0
11, 202356, Note_on_c, 9, 51, 37
11, 202368, Note_on_c, 9, 44, 49
11, 202474, Note_on_c, 9, 44, 0
11, 202514, Note_on_c, 9, 51, 0
11, 202614, Note_on_c, 9, 51, 17
11, 202684, Note_on_c, 9, 51, 0
11, 202740, Note_on_c, 9, 51, 25
11, 202896, Note_on_c, 9, 51, 0
11, 203120, Note_on_c, 9, 51, 34
11, 203136, Note_on_c, 9, 44, 42
11, 203154, Note_on_c, 9, 36, 6
11, 203240, Note_on_c, 9, 44, 0
11, 203276, Note_on_c, 9, 36, 0
11, 203282, Note_on_c, 9, 51, 0
11, 203360, Note_on_c, 9, 51, 19
11, 203436, Note_on_c, 9, 51, 0
11, 203500, Note_on_c, 9, 51, 26
11, 203546, Note_on_c, 9, 36, 13
11, 203648, Note_on_c, 9, 51, 0
11, 203694, Note_on_c, 9, 36, 0
11, 203788, Note_on_c, 9, 36, 14
11, 203872, Note_on_c, 9, 36, 0
11, 203882, Note_on_c, 9, 51, 29
11, 203904, Note_on_c, 9, 44, 38
11, 204008, Note_on_c, 9, 44, 0
11, 204046, Note_on_c, 9, 51, 0
11, 204130, Note_on_c, 9, 51, 16
11, 204202, Note_on_c, 9, 51, 0
11, 204276, Note_on_c, 9, 36, 14
11, 204282, Note_on_c, 9, 51, 24
11, 204388, Note_on_c, 9, 36, 0
11, 204420, Note_on_c, 9, 51, 0
11, 204672, Note_on_c, 9, 44, 32
11, 204672, Note_on_c, 9, 51, 26
11, 204778, Note_on_c, 9, 44, 0
11, 204838, Note_on_c, 9, 51, 0
11, 205058, Note_on_c, 9, 51, 19
11, 205218, Note_on_c, 9, 51, 0
11, 205440, Note_on_c, 9, 44, 28
11, 205458, Note_on_c, 9, 51, 21
11, 205544, Note_on_c, 9, 44, 0
11, 205588, Note_on_c, 9, 51, 0
11, 205720, Note_on_c, 9, 51, 14
11, 205958, Note_on_c, 9, 51, 0
11, 206208, Note_on_c, 9, 51, 18
11, 206208, Note_on_c, 9, 44, 24
11, 206306, Note_on_c, 9, 44, 0
11, 206364, Note_on_c, 9, 51, 0
11, 206590, Note_on_c, 9, 51, 16
11, 206744, Note_on_c, 9, 51, 0
11, 206976, Note_on_c, 9, 44, 18
11, 206984, Note_on_c, 9, 51, 14
11, 207076, Note_on_c, 9, 44, 0
11, 207112, Note_on_c, 9, 51, 0
11, 207242, Note_on_c, 9, 51, 11
11, 207456, Note_on_c, 9, 51, 0
11, 207744, Note_on_c, 9, 44, 13
11, 207758, Note_on_c, 9, 51, 10
11, 207848, Note_on_c, 9, 44, 0
11, 207884, Note_on_c, 9, 51, 0
11, 208144, Note_on_c, 9, 51, 8
11, 208252, Note_on_c, 9, 51, 0
11, 208512, Note_on_c, 9, 44, 8
11, 208622, Note_on_c, 9, 44, 0
11, 209280, Note_on_c, 9, 44, 3
11, 209394, Note_on_c, 9, 44, 0
11, 209394, End_track
0, 0, End_of_file
