0, 0, Header, 1, 11, 384
1, 0, Start_track
1, 0, Title_t, "Blue Bossa (matches video)  Yamaha XG version"
1, 0, Text_t, "dougmck@tpg.com.au\012"
1, 0, System_exclusive, 5, 126, 127, 9, 1, 247
1, 1, System_exclusive, 8, 67, 16, 76, 0, 0, 126, 0, 247
1, 1, System_exclusive, 8, 67, 16, 76, 8, 15, 0, 1, 247
1, 1, System_exclusive, 8, 67, 16, 76, 8, 14, 0, 1, 247
1, 1, System_exclusive, 8, 67, 16, 76, 8, 13, 0, 1, 247
1, 1, System_exclusive, 8, 67, 16, 76, 8, 12, 0, 1, 247
1, 1, System_exclusive, 8, 67, 16, 76, 8, 11, 0, 1, 247
1, 1, System_exclusive, 8, 67, 16, 76, 8, 10, 0, 1, 247
1, 1, System_exclusive, 8, 67, 16, 76, 8, 9, 0, 0, 247
1, 1, System_exclusive, 8, 67, 16, 76, 8, 8, 0, 1, 247
1, 1, System_exclusive, 8, 67, 16, 76, 8, 7, 0, 1, 247
1, 1, System_exclusive, 8, 67, 16, 76, 8, 6, 0, 1, 247
1, 1, System_exclusive, 8, 67, 16, 76, 8, 5, 0, 1, 247
1, 1, System_exclusive, 8, 67, 16, 76, 8, 4, 0, 2, 247
1, 1, System_exclusive, 8, 67, 16, 76, 8, 3, 0, 2, 247
1, 1, System_exclusive, 8, 67, 16, 76, 8, 2, 0, 4, 247
1, 1, System_exclusive, 8, 67, 16, 76, 8, 1, 0, 4, 247
1, 1, System_exclusive, 8, 67, 16, 76, 8, 0, 0, 8, 247
1, 1, System_exclusive, 8, 67, 16, 76, 8, 0, 7, 0, 247
1, 1, System_exclusive, 8, 67, 16, 76, 8, 1, 7, 0, 247
1, 1, System_exclusive, 8, 67, 16, 76, 8, 2, 7, 0, 247
1, 1, System_exclusive, 8, 67, 16, 76, 8, 3, 7, 0, 247
1, 1, System_exclusive, 8, 67, 16, 76, 8, 4, 7, 0, 247
1, 1, System_exclusive, 8, 67, 16, 76, 8, 5, 7, 0, 247
1, 1, System_exclusive, 8, 67, 16, 76, 8, 6, 7, 0, 247
1, 1, System_exclusive, 8, 67, 16, 76, 8, 7, 7, 0, 247
1, 1, System_exclusive, 8, 67, 16, 76, 8, 8, 7, 0, 247
1, 1, System_exclusive, 8, 67, 16, 76, 8, 9, 7, 2, 247
1, 1, System_exclusive, 8, 67, 16, 76, 8, 10, 7, 0, 247
1, 1, System_exclusive, 8, 67, 16, 76, 8, 11, 7, 0, 247
1, 1, System_exclusive, 8, 67, 16, 76, 8, 12, 7, 0, 247
1, 1, System_exclusive, 8, 67, 16, 76, 8, 13, 7, 0, 247
1, 1, System_exclusive, 8, 67, 16, 76, 8, 14, 7, 0, 247
1, 1, System_exclusive, 8, 67, 16, 76, 8, 15, 7, 0, 247
1, 1, System_exclusive, 9, 67, 16, 76, 2, 1, 0, 2, 17, 247
1, 1, System_exclusive, 9, 67, 16, 76, 2, 1, 32, 65, 8, 247
1, 1, System_exclusive, 9, 67, 16, 76, 2, 1, 64, 5, 0, 247
1, 1, System_exclusive, 8, 67, 16, 76, 8, 9, 32, 16, 247
1, 1, System_exclusive, 8, 67, 16, 76, 8, 1, 114, 64, 247
1, 1, System_exclusive, 8, 67, 16, 76, 8, 1, 115, 64, 247
1, 1, System_exclusive, 8, 67, 16, 76, 8, 1, 119, 46, 247
1, 1, System_exclusive, 8, 67, 16, 76, 8, 1, 12, 64, 247
1, 1, System_exclusive, 8, 67, 16, 76, 8, 1, 13, 64, 247
1, 1, System_exclusive, 9, 67, 16, 76, 3, 0, 0, 3, 18, 247
1, 1, System_exclusive, 8, 67, 16, 76, 3, 0, 11, 5, 247
1, 1, System_exclusive, 8, 67, 16, 76, 3, 0, 12, 0, 247
1, 1, System_exclusive, 8, 67, 16, 76, 8, 0, 114, 64, 247
1, 1, System_exclusive, 8, 67, 16, 76, 8, 0, 115, 95, 247
1, 1, System_exclusive, 8, 67, 16, 76, 8, 0, 119, 46, 247
1, 1, Time_signature, 4, 2, 24, 8
1, 1, Key_signature, 0, "major"
1, 1, Tempo, 342857
1, 1, Sequencer_specific, 21, 67, 115, 10, 0, 5, 75, 90, 79, 79, 79, 79, 79, 79, 79, 90, 79, 79, 79, 79, 79, 79
1, 1, Sequencer_specific, 6, 67, 115, 10, 0, 4, 1
1, 1, Sequencer_specific, 9, 67, 123, 0, 88, 70, 48, 50, 0, 0
1, 1, End_track
2, 0, Start_track
2, 0, Title_t, "Track 1"
2, 385, Control_c, 0, 7, 94
2, 385, Control_c, 0, 10, 64
2, 385, Control_c, 0, 91, 10
2, 385, Control_c, 0, 93, 0
2, 1990, Note_on_c, 0, 67, 42
2, 1994, Note_on_c, 0, 63, 46
2, 1998, Note_on_c, 0, 58, 46
2, 2006, Note_on_c, 0, 79, 92
2, 2018, Note_on_c, 0, 62, 43
2, 2110, Note_on_c, 0, 79, 0
2, 2174, Note_on_c, 0, 58, 0
2, 2178, Note_on_c, 0, 62, 0
2, 2190, Note_on_c, 0, 63, 0
2, 2190, Note_on_c, 0, 67, 0
2, 2654, Note_on_c, 0, 77, 90
2, 2682, Note_on_c, 0, 67, 46
2, 2698, Note_on_c, 0, 63, 47
2, 2762, Note_on_c, 0, 63, 0
2, 2762, Note_on_c, 0, 67, 0
2, 2794, Note_on_c, 0, 77, 0
2, 2862, Note_on_c, 0, 75, 66
2, 3042, Note_on_c, 0, 75, 0
2, 3118, Note_on_c, 0, 74, 55
2, 3186, Note_on_c, 0, 74, 0
2, 3442, Note_on_c, 0, 72, 54
2, 3470, Note_on_c, 0, 67, 40
2, 3474, Note_on_c, 0, 63, 43
2, 3498, Note_on_c, 0, 58, 34
2, 3502, Note_on_c, 0, 62, 37
2, 4338, Note_on_c, 0, 67, 0
2, 4398, Note_on_c, 0, 63, 0
2, 4422, Note_on_c, 0, 72, 0
2, 4470, Note_on_c, 0, 62, 0
2, 4602, Note_on_c, 0, 63, 52
2, 4602, Note_on_c, 0, 67, 40
2, 4650, Note_on_c, 0, 63, 0
2, 4658, Note_on_c, 0, 67, 0
2, 4702, Note_on_c, 0, 70, 69
2, 4706, Note_on_c, 0, 58, 0
2, 4942, Note_on_c, 0, 70, 0
2, 5086, Note_on_c, 0, 62, 27
2, 5086, Note_on_c, 0, 68, 58
2, 5098, Note_on_c, 0, 56, 40
2, 5114, Note_on_c, 0, 60, 33
2, 5114, Note_on_c, 0, 53, 41
2, 5510, Note_on_c, 0, 60, 0
2, 5534, Note_on_c, 0, 62, 0
2, 5698, Note_on_c, 0, 68, 0
2, 5754, Note_on_c, 0, 60, 36
2, 5838, Note_on_c, 0, 60, 0
2, 5858, Note_on_c, 0, 79, 99
2, 5878, Note_on_c, 0, 53, 0
2, 5922, Note_on_c, 0, 56, 0
2, 6486, Note_on_c, 0, 79, 0
2, 6498, Note_on_c, 0, 77, 69
2, 6530, Note_on_c, 0, 62, 36
2, 6546, Note_on_c, 0, 77, 0
2, 6550, Note_on_c, 0, 56, 33
2, 6614, Note_on_c, 0, 62, 0
2, 6650, Note_on_c, 0, 56, 0
2, 7014, Note_on_c, 0, 62, 58
2, 7038, Note_on_c, 0, 56, 50
2, 7042, Note_on_c, 0, 60, 56
2, 7058, Note_on_c, 0, 53, 44
2, 7182, Note_on_c, 0, 60, 0
2, 7190, Note_on_c, 0, 53, 0
2, 7194, Note_on_c, 0, 62, 0
2, 7198, Note_on_c, 0, 56, 0
2, 7282, Note_on_c, 0, 62, 62
2, 7298, Note_on_c, 0, 56, 56
2, 7310, Note_on_c, 0, 60, 55
2, 7310, Note_on_c, 0, 53, 47
2, 7346, Note_on_c, 0, 60, 0
2, 7358, Note_on_c, 0, 53, 0
2, 7378, Note_on_c, 0, 62, 0
2, 7382, Note_on_c, 0, 56, 0
2, 7446, Note_on_c, 0, 62, 34
2, 7466, Note_on_c, 0, 56, 40
2, 7486, Note_on_c, 0, 60, 39
2, 7498, Note_on_c, 0, 53, 17
2, 7538, Note_on_c, 0, 62, 0
2, 7542, Note_on_c, 0, 60, 0
2, 7554, Note_on_c, 0, 53, 0
2, 7610, Note_on_c, 0, 53, 26
2, 7618, Note_on_c, 0, 62, 43
2, 7642, Note_on_c, 0, 60, 56
2, 7686, Note_on_c, 0, 60, 0
2, 7702, Note_on_c, 0, 53, 0
2, 7726, Note_on_c, 0, 62, 0
2, 7730, Note_on_c, 0, 56, 0
2, 7962, Note_on_c, 0, 56, 64
2, 7990, Note_on_c, 0, 55, 62
2, 8006, Note_on_c, 0, 60, 58
2, 8078, Note_on_c, 0, 65, 11
2, 8590, Note_on_c, 0, 60, 0
2, 8698, Note_on_c, 0, 65, 0
2, 8746, Note_on_c, 0, 60, 39
2, 8842, Note_on_c, 0, 65, 44
2, 8874, Note_on_c, 0, 79, 88
2, 9014, Note_on_c, 0, 79, 0
2, 9254, Note_on_c, 0, 65, 0
2, 9270, Note_on_c, 0, 60, 0
2, 9282, Note_on_c, 0, 55, 0
2, 9374, Note_on_c, 0, 56, 0
2, 9642, Note_on_c, 0, 59, 39
2, 9646, Note_on_c, 0, 63, 43
2, 9674, Note_on_c, 0, 53, 50
2, 9738, Note_on_c, 0, 77, 111
2, 9870, Note_on_c, 0, 59, 0
2, 9942, Note_on_c, 0, 63, 0
2, 9978, Note_on_c, 0, 75, 67
2, 10010, Note_on_c, 0, 59, 43
2, 10026, Note_on_c, 0, 77, 0
2, 10138, Note_on_c, 0, 53, 0
2, 10158, Note_on_c, 0, 75, 0
2, 10158, Note_on_c, 0, 59, 0
2, 10170, Note_on_c, 0, 74, 58
2, 10322, Note_on_c, 0, 74, 0
2, 10350, Note_on_c, 0, 72, 76
2, 10390, Note_on_c, 0, 63, 50
2, 10398, Note_on_c, 0, 59, 32
2, 10474, Note_on_c, 0, 72, 0
2, 10490, Note_on_c, 0, 53, 31
2, 10518, Note_on_c, 0, 59, 0
2, 10582, Note_on_c, 0, 71, 40
2, 10686, Note_on_c, 0, 59, 35
2, 10730, Note_on_c, 0, 63, 0
2, 10754, Note_on_c, 0, 59, 0
2, 10794, Note_on_c, 0, 71, 0
2, 10846, Note_on_c, 0, 53, 0
2, 10858, Note_on_c, 0, 74, 84
2, 11070, Note_on_c, 0, 62, 51
2, 11078, Note_on_c, 0, 51, 48
2, 11106, Note_on_c, 0, 74, 0
2, 11118, Note_on_c, 0, 57, 45
2, 11242, Note_on_c, 0, 72, 69
2, 11402, Note_on_c, 0, 72, 0
2, 11482, Note_on_c, 0, 62, 0
2, 11482, Note_on_c, 0, 67, 46
2, 11550, Note_on_c, 0, 67, 0
2, 11618, Note_on_c, 0, 57, 0
2, 11630, Note_on_c, 0, 65, 52
2, 11838, Note_on_c, 0, 65, 0
2, 11850, Note_on_c, 0, 63, 56
2, 11886, Note_on_c, 0, 60, 36
2, 11890, Note_on_c, 0, 57, 45
2, 11954, Note_on_c, 0, 60, 0
2, 11998, Note_on_c, 0, 63, 0
2, 12030, Note_on_c, 0, 57, 0
2, 12062, Note_on_c, 0, 51, 0
2, 12078, Note_on_c, 0, 62, 45
2, 12266, Note_on_c, 0, 57, 45
2, 12308, Note_on_c, 0, 62, 0
2, 12366, Note_on_c, 0, 63, 49
2, 12378, Note_on_c, 0, 57, 0
2, 12542, Note_on_c, 0, 57, 32
2, 12598, Note_on_c, 0, 63, 0
2, 12622, Note_on_c, 0, 60, 55
2, 12682, Note_on_c, 0, 57, 0
2, 12686, Note_on_c, 0, 60, 0
2, 12998, Note_on_c, 0, 57, 49
2, 13002, Note_on_c, 0, 51, 34
2, 13054, Note_on_c, 0, 57, 0
2, 13066, Note_on_c, 0, 51, 0
2, 13526, Note_on_c, 0, 62, 49
2, 13542, Note_on_c, 0, 57, 49
2, 13546, Note_on_c, 0, 51, 39
2, 13594, Note_on_c, 0, 57, 0
2, 13606, Note_on_c, 0, 51, 0
2, 13610, Note_on_c, 0, 62, 0
2, 14202, Note_on_c, 0, 87, 86
2, 14202, Note_on_c, 0, 65, 72
2, 14206, Note_on_c, 0, 61, 64
2, 14206, Note_on_c, 0, 75, 72
2, 14206, Note_on_c, 0, 58, 61
2, 14206, Note_on_c, 0, 54, 58
2, 14206, Note_on_c, 0, 82, 76
2, 14406, Control_c, 0, 64, 127
2, 14746, Note_on_c, 0, 87, 0
2, 14786, Note_on_c, 0, 75, 0
2, 14794, Note_on_c, 0, 82, 0
2, 14798, Note_on_c, 0, 65, 0
2, 14810, Note_on_c, 0, 54, 0
2, 14834, Note_on_c, 0, 58, 0
2, 14850, Note_on_c, 0, 61, 0
2, 14958, Note_on_c, 0, 85, 77
2, 14966, Note_on_c, 0, 73, 74
2, 14986, Note_on_c, 0, 65, 67
2, 14986, Note_on_c, 0, 80, 70
2, 14994, Note_on_c, 0, 58, 62
2, 14998, Note_on_c, 0, 61, 53
2, 15006, Note_on_c, 0, 54, 39
2, 15046, Control_c, 0, 64, 24
2, 15050, Control_c, 0, 64, 0
2, 15054, Note_on_c, 0, 61, 0
2, 15062, Note_on_c, 0, 65, 0
2, 15062, Note_on_c, 0, 73, 0
2, 15062, Note_on_c, 0, 54, 0
2, 15082, Note_on_c, 0, 85, 0
2, 15138, Note_on_c, 0, 80, 0
2, 15154, Note_on_c, 0, 54, 44
2, 15154, Note_on_c, 0, 84, 64
2, 15170, Note_on_c, 0, 72, 64
2, 15178, Note_on_c, 0, 65, 50
2, 15186, Note_on_c, 0, 61, 50
2, 15258, Note_on_c, 0, 61, 0
2, 15258, Note_on_c, 0, 84, 0
2, 15266, Note_on_c, 0, 65, 0
2, 15274, Note_on_c, 0, 72, 0
2, 15274, Note_on_c, 0, 54, 0
2, 15306, Note_on_c, 0, 58, 0
2, 15394, Note_on_c, 0, 82, 66
2, 15406, Note_on_c, 0, 70, 73
2, 15422, Note_on_c, 0, 58, 51
2, 15426, Note_on_c, 0, 65, 55
2, 15438, Note_on_c, 0, 61, 50
2, 15466, Note_on_c, 0, 70, 0
2, 15470, Note_on_c, 0, 65, 0
2, 15490, Note_on_c, 0, 82, 0
2, 15494, Note_on_c, 0, 61, 0
2, 15566, Note_on_c, 0, 58, 0
2, 15726, Note_on_c, 0, 68, 68
2, 15730, Note_on_c, 0, 80, 64
2, 15742, Note_on_c, 0, 58, 60
2, 15754, Note_on_c, 0, 75, 57
2, 15754, Note_on_c, 0, 64, 65
2, 15774, Note_on_c, 0, 60, 58
2, 15806, Note_on_c, 0, 54, 44
2, 15842, Control_c, 0, 64, 127
2, 16598, Note_on_c, 0, 75, 0
2, 16626, Note_on_c, 0, 80, 0
2, 16630, Note_on_c, 0, 68, 0
2, 16702, Note_on_c, 0, 64, 0
2, 16746, Note_on_c, 0, 60, 0
2, 16790, Note_on_c, 0, 54, 0
2, 16802, Note_on_c, 0, 58, 0
2, 16982, Note_on_c, 0, 64, 53
2, 16994, Note_on_c, 0, 66, 56
2, 16994, Note_on_c, 0, 78, 55
2, 17010, Note_on_c, 0, 58, 46
2, 17010, Note_on_c, 0, 54, 35
2, 17014, Control_c, 0, 64, 0
2, 17022, Note_on_c, 0, 60, 49
2, 17030, Note_on_c, 0, 73, 45
2, 17054, Note_on_c, 0, 66, 0
2, 17070, Note_on_c, 0, 60, 0
2, 17078, Note_on_c, 0, 54, 0
2, 17082, Note_on_c, 0, 73, 0
2, 17086, Note_on_c, 0, 78, 0
2, 17090, Note_on_c, 0, 58, 0
2, 17094, Note_on_c, 0, 64, 0
2, 17402, Note_on_c, 0, 78, 69
2, 17410, Note_on_c, 0, 54, 54
2, 17414, Note_on_c, 0, 64, 53
2, 17422, Note_on_c, 0, 66, 53
2, 17430, Note_on_c, 0, 73, 57
2, 17430, Note_on_c, 0, 58, 42
2, 17462, Note_on_c, 0, 60, 43
2, 17614, Note_on_c, 0, 73, 0
2, 17626, Note_on_c, 0, 60, 0
2, 17630, Note_on_c, 0, 78, 0
2, 17650, Note_on_c, 0, 66, 0
2, 17734, Note_on_c, 0, 64, 0
2, 17762, Note_on_c, 0, 58, 0
2, 17786, Control_c, 0, 64, 127
2, 17826, Note_on_c, 0, 77, 47
2, 17838, Note_on_c, 0, 65, 45
2, 17886, Note_on_c, 0, 65, 0
2, 17886, Note_on_c, 0, 54, 0
2, 17910, Note_on_c, 0, 77, 0
2, 18002, Control_c, 0, 64, 0
2, 18066, Note_on_c, 0, 63, 66
2, 18070, Note_on_c, 0, 60, 56
2, 18102, Note_on_c, 0, 70, 65
2, 18110, Note_on_c, 0, 82, 72
2, 18118, Note_on_c, 0, 56, 46
2, 18138, Note_on_c, 0, 70, 0
2, 18146, Note_on_c, 0, 82, 0
2, 18154, Note_on_c, 0, 63, 0
2, 18174, Note_on_c, 0, 56, 0
2, 18190, Note_on_c, 0, 60, 0
2, 18506, Control_c, 0, 64, 127
2, 18810, Note_on_c, 0, 77, 55
2, 18850, Note_on_c, 0, 77, 0
2, 18866, Control_c, 0, 64, 0
2, 18978, Note_on_c, 0, 63, 60
2, 18982, Note_on_c, 0, 68, 73
2, 18986, Note_on_c, 0, 80, 77
2, 18986, Note_on_c, 0, 56, 52
2, 19002, Note_on_c, 0, 60, 64
2, 19030, Note_on_c, 0, 53, 44
2, 19222, Control_c, 0, 64, 127
2, 19282, Note_on_c, 0, 53, 0
2, 19318, Note_on_c, 0, 60, 0
2, 19338, Note_on_c, 0, 63, 0
2, 19338, Note_on_c, 0, 56, 0
2, 19342, Note_on_c, 0, 68, 0
2, 19350, Note_on_c, 0, 80, 0
2, 19418, Control_c, 0, 64, 0
2, 19534, Note_on_c, 0, 80, 70
2, 19542, Note_on_c, 0, 63, 70
2, 19550, Note_on_c, 0, 68, 61
2, 19574, Note_on_c, 0, 60, 51
2, 19590, Note_on_c, 0, 68, 0
2, 19602, Note_on_c, 0, 56, 35
2, 19618, Note_on_c, 0, 63, 0
2, 19622, Note_on_c, 0, 60, 0
2, 19646, Note_on_c, 0, 80, 0
2, 19658, Note_on_c, 0, 56, 0
2, 19994, Control_c, 0, 64, 127
2, 20234, Control_c, 0, 64, 0
2, 20294, Note_on_c, 0, 56, 61
2, 20294, Note_on_c, 0, 68, 91
2, 20294, Note_on_c, 0, 80, 90
2, 20302, Note_on_c, 0, 75, 80
2, 20306, Note_on_c, 0, 60, 70
2, 20306, Note_on_c, 0, 65, 75
2, 20326, Note_on_c, 0, 55, 60
2, 20414, Control_c, 0, 64, 127
2, 20674, Note_on_c, 0, 65, 0
2, 20682, Note_on_c, 0, 55, 0
2, 20694, Note_on_c, 0, 60, 0
2, 20710, Note_on_c, 0, 75, 0
2, 20718, Note_on_c, 0, 80, 0
2, 20718, Note_on_c, 0, 68, 0
2, 20734, Note_on_c, 0, 56, 0
2, 20822, Note_on_c, 0, 56, 55
2, 20822, Note_on_c, 0, 65, 59
2, 20826, Note_on_c, 0, 67, 76
2, 20826, Note_on_c, 0, 60, 59
2, 20826, Note_on_c, 0, 55, 53
2, 20838, Note_on_c, 0, 79, 54
2, 20850, Note_on_c, 0, 74, 64
2, 20862, Control_c, 0, 64, 0
2, 20914, Note_on_c, 0, 67, 0
2, 20922, Note_on_c, 0, 79, 0
2, 20930, Note_on_c, 0, 65, 0
2, 20942, Note_on_c, 0, 55, 0
2, 20958, Note_on_c, 0, 74, 0
2, 20966, Note_on_c, 0, 60, 0
2, 21002, Note_on_c, 0, 56, 0
2, 21186, Control_c, 0, 64, 127
2, 21214, Note_on_c, 0, 82, 95
2, 21214, Note_on_c, 0, 56, 60
2, 21214, Note_on_c, 0, 70, 91
2, 21222, Note_on_c, 0, 65, 67
2, 21242, Note_on_c, 0, 60, 60
2, 21242, Note_on_c, 0, 75, 58
2, 21250, Note_on_c, 0, 55, 55
2, 21294, Note_on_c, 0, 75, 0
2, 21406, Note_on_c, 0, 82, 0
2, 21446, Note_on_c, 0, 70, 0
2, 21534, Note_on_c, 0, 55, 0
2, 21574, Note_on_c, 0, 65, 0
2, 21602, Note_on_c, 0, 60, 0
2, 21602, Note_on_c, 0, 80, 68
2, 21626, Note_on_c, 0, 68, 51
2, 21642, Note_on_c, 0, 56, 0
2, 21770, Note_on_c, 0, 68, 0
2, 21786, Note_on_c, 0, 80, 0
2, 21946, Control_c, 0, 64, 0
2, 21966, Note_on_c, 0, 63, 61
2, 21986, Note_on_c, 0, 58, 50
2, 21998, Note_on_c, 0, 59, 58
2, 21998, Note_on_c, 0, 53, 53
2, 22002, Note_on_c, 0, 80, 76
2, 22014, Note_on_c, 0, 68, 67
2, 22292, Note_on_c, 0, 80, 0
2, 22318, Control_c, 0, 64, 127
2, 22326, Note_on_c, 0, 68, 0
2, 22370, Note_on_c, 0, 53, 0
2, 22402, Note_on_c, 0, 63, 0
2, 22422, Note_on_c, 0, 59, 0
2, 22446, Note_on_c, 0, 58, 0
2, 22554, Note_on_c, 0, 63, 67
2, 22554, Note_on_c, 0, 79, 70
2, 22574, Note_on_c, 0, 67, 63
2, 22578, Note_on_c, 0, 58, 43
2, 22590, Note_on_c, 0, 53, 45
2, 22590, Note_on_c, 0, 59, 43
2, 22630, Note_on_c, 0, 67, 0
2, 22646, Note_on_c, 0, 53, 0
2, 22654, Note_on_c, 0, 79, 0
2, 22670, Note_on_c, 0, 59, 0
2, 22674, Note_on_c, 0, 63, 0
2, 22726, Note_on_c, 0, 58, 0
2, 22738, Control_c, 0, 64, 0
2, 22822, Note_on_c, 0, 63, 62
2, 22834, Note_on_c, 0, 82, 81
2, 22846, Note_on_c, 0, 70, 67
2, 22846, Note_on_c, 0, 59, 49
2, 22854, Note_on_c, 0, 58, 51
2, 22938, Note_on_c, 0, 82, 0
2, 22962, Note_on_c, 0, 70, 0
2, 22966, Note_on_c, 0, 63, 0
2, 23026, Note_on_c, 0, 59, 0
2, 23070, Note_on_c, 0, 58, 0
2, 23090, Control_c, 0, 64, 127
2, 23094, Note_on_c, 0, 63, 57
2, 23118, Note_on_c, 0, 80, 64
2, 23134, Note_on_c, 0, 68, 56
2, 23186, Note_on_c, 0, 63, 0
2, 23234, Note_on_c, 0, 80, 0
2, 23250, Note_on_c, 0, 68, 0
2, 23282, Control_c, 0, 64, 0
2, 23390, Note_on_c, 0, 62, 62
2, 23394, Note_on_c, 0, 51, 47
2, 23402, Note_on_c, 0, 67, 60
2, 23402, Note_on_c, 0, 79, 55
2, 23442, Note_on_c, 0, 57, 55
2, 23450, Control_c, 0, 64, 127
2, 23454, Note_on_c, 0, 55, 45
2, 23586, Note_on_c, 0, 62, 0
2, 23594, Note_on_c, 0, 57, 0
2, 23598, Note_on_c, 0, 55, 0
2, 23694, Note_on_c, 0, 51, 0
2, 23902, Note_on_c, 0, 54, 55
2, 23906, Note_on_c, 0, 55, 58
2, 23918, Control_c, 0, 64, 0
2, 23930, Note_on_c, 0, 53, 46
2, 23978, Note_on_c, 0, 53, 0
2, 24014, Note_on_c, 0, 54, 0
2, 24214, Control_c, 0, 64, 127
2, 24454, Control_c, 0, 64, 0
2, 24494, Note_on_c, 0, 43, 68
2, 24602, Control_c, 0, 64, 127
2, 24634, Note_on_c, 0, 55, 0
2, 24650, Note_on_c, 0, 43, 0
2, 25114, Note_on_c, 0, 67, 0
2, 25410, Note_on_c, 0, 79, 0
2, 25430, Note_on_c, 0, 63, 63
2, 25450, Note_on_c, 0, 59, 56
2, 25454, Note_on_c, 0, 58, 48
2, 25474, Control_c, 0, 64, 0
2, 25474, Note_on_c, 0, 53, 43
2, 25754, Control_c, 0, 64, 127
2, 26062, Note_on_c, 0, 59, 0
2, 26066, Note_on_c, 0, 71, 42
2, 26078, Note_on_c, 0, 63, 0
2, 26090, Note_on_c, 0, 58, 0
2, 26126, Note_on_c, 0, 53, 0
2, 26222, Control_c, 0, 64, 0
2, 26242, Note_on_c, 0, 71, 0
2, 26290, Note_on_c, 0, 74, 48
2, 26422, Note_on_c, 0, 74, 0
2, 26470, Note_on_c, 0, 77, 99
2, 26506, Note_on_c, 0, 51, 52
2, 26514, Note_on_c, 0, 62, 43
2, 26534, Note_on_c, 0, 57, 56
2, 26614, Note_on_c, 0, 77, 0
2, 26634, Note_on_c, 0, 75, 57
2, 26910, Note_on_c, 0, 75, 0
2, 26966, Note_on_c, 0, 67, 48
2, 27030, Note_on_c, 0, 67, 0
2, 27294, Note_on_c, 0, 62, 0
2, 27338, Note_on_c, 0, 67, 53
2, 27354, Note_on_c, 0, 57, 0
2, 27460, Note_on_c, 0, 67, 0
2, 27514, Note_on_c, 0, 51, 0
2, 28158, Note_on_c, 0, 57, 42
2, 28214, Note_on_c, 0, 57, 0
2, 28762, Note_on_c, 0, 62, 40
2, 28770, Note_on_c, 0, 57, 53
2, 28818, Note_on_c, 0, 62, 0
2, 28830, Note_on_c, 0, 57, 0
2, 28914, Note_on_c, 0, 72, 44
2, 28990, Note_on_c, 0, 72, 0
2, 29142, Note_on_c, 0, 74, 86
2, 29226, Note_on_c, 0, 74, 0
2, 29306, Note_on_c, 0, 75, 93
2, 29446, Note_on_c, 0, 75, 0
2, 29518, Note_on_c, 0, 77, 97
2, 29558, Note_on_c, 0, 60, 59
2, 29558, Note_on_c, 0, 62, 55
2, 29566, Note_on_c, 0, 56, 51
2, 29602, Note_on_c, 0, 62, 0
2, 29654, Note_on_c, 0, 77, 0
2, 29658, Note_on_c, 0, 60, 0
2, 29694, Note_on_c, 0, 75, 64
2, 29706, Note_on_c, 0, 56, 0
2, 29862, Note_on_c, 0, 75, 0
2, 29918, Note_on_c, 0, 74, 61
2, 30030, Note_on_c, 0, 74, 0
2, 30054, Note_on_c, 0, 72, 54
2, 30194, Note_on_c, 0, 72, 0
2, 30286, Note_on_c, 0, 71, 47
2, 30306, Note_on_c, 0, 60, 41
2, 30306, Note_on_c, 0, 56, 37
2, 30346, Note_on_c, 0, 71, 0
2, 30382, Note_on_c, 0, 60, 0
2, 30418, Note_on_c, 0, 74, 70
2, 30438, Note_on_c, 0, 56, 0
2, 30634, Note_on_c, 0, 74, 0
2, 30670, Note_on_c, 0, 71, 35
2, 30754, Note_on_c, 0, 71, 0
2, 30802, Note_on_c, 0, 72, 50
2, 30962, Note_on_c, 0, 72, 0
2, 31166, Note_on_c, 0, 67, 49
2, 31178, Note_on_c, 0, 62, 25
2, 31194, Note_on_c, 0, 56, 36
2, 31206, Note_on_c, 0, 60, 34
2, 31250, Note_on_c, 0, 67, 0
2, 31274, Note_on_c, 0, 60, 0
2, 31306, Note_on_c, 0, 62, 0
2, 31326, Note_on_c, 0, 56, 0
2, 31822, Note_on_c, 0, 56, 46
2, 31822, Note_on_c, 0, 62, 39
2, 31842, Note_on_c, 0, 60, 43
2, 31890, Note_on_c, 0, 60, 0
2, 31906, Note_on_c, 0, 62, 0
2, 31962, Note_on_c, 0, 56, 0
2, 32734, Note_on_c, 0, 60, 56
2, 32742, Note_on_c, 0, 56, 50
2, 32750, Note_on_c, 0, 50, 42
2, 32794, Note_on_c, 0, 60, 0
2, 32810, Note_on_c, 0, 50, 0
2, 32818, Note_on_c, 0, 56, 0
2, 33362, Note_on_c, 0, 56, 67
2, 33362, Note_on_c, 0, 60, 69
2, 33398, Note_on_c, 0, 60, 0
2, 33442, Note_on_c, 0, 56, 0
2, 33510, Note_on_c, 0, 74, 69
2, 33642, Note_on_c, 0, 74, 0
2, 33718, Note_on_c, 0, 75, 84
2, 33842, Note_on_c, 0, 75, 0
2, 33894, Note_on_c, 0, 76, 88
2, 34030, Note_on_c, 0, 76, 0
2, 34110, Note_on_c, 0, 77, 98
2, 34126, Note_on_c, 0, 63, 76
2, 34146, Note_on_c, 0, 58, 51
2, 34146, Note_on_c, 0, 59, 64
2, 34162, Note_on_c, 0, 53, 47
2, 34274, Note_on_c, 0, 77, 0
2, 34298, Note_on_c, 0, 75, 68
2, 34434, Note_on_c, 0, 63, 0
2, 34498, Note_on_c, 0, 75, 0
2, 34550, Note_on_c, 0, 53, 0
2, 34642, Note_on_c, 0, 59, 0
2, 34658, Note_on_c, 0, 58, 0
2, 34894, Note_on_c, 0, 63, 56
2, 34894, Note_on_c, 0, 59, 60
2, 34914, Note_on_c, 0, 58, 43
2, 35070, Note_on_c, 0, 74, 111
2, 35086, Note_on_c, 0, 63, 0
2, 35110, Note_on_c, 0, 59, 0
2, 35134, Note_on_c, 0, 58, 0
2, 35266, Note_on_c, 0, 75, 92
2, 35310, Note_on_c, 0, 74, 0
2, 35430, Note_on_c, 0, 75, 0
2, 35438, Note_on_c, 0, 76, 62
2, 35554, Note_on_c, 0, 76, 0
2, 35642, Note_on_c, 0, 77, 102
2, 35658, Note_on_c, 0, 51, 59
2, 35662, Note_on_c, 0, 57, 60
2, 35674, Note_on_c, 0, 62, 48
2, 35758, Note_on_c, 0, 77, 0
2, 36010, Note_on_c, 0, 74, 113
2, 36086, Note_on_c, 0, 62, 0
2, 36126, Note_on_c, 0, 51, 0
2, 36214, Note_on_c, 0, 57, 0
2, 36218, Note_on_c, 0, 73, 57
2, 36226, Note_on_c, 0, 74, 0
2, 36354, Note_on_c, 0, 73, 0
2, 36362, Note_on_c, 0, 72, 40
2, 36426, Note_on_c, 0, 72, 0
2, 36430, Note_on_c, 0, 71, 59
2, 36438, Note_on_c, 0, 57, 49
2, 36506, Note_on_c, 0, 71, 0
2, 36582, Note_on_c, 0, 57, 0
2, 36586, Note_on_c, 0, 74, 91
2, 36802, Note_on_c, 0, 74, 0
2, 36830, Note_on_c, 0, 71, 37
2, 36882, Note_on_c, 0, 71, 0
2, 36958, Note_on_c, 0, 72, 63
2, 37130, Note_on_c, 0, 72, 0
2, 37178, Note_on_c, 0, 67, 60
2, 37206, Note_on_c, 0, 62, 56
2, 37226, Note_on_c, 0, 57, 60
2, 37254, Note_on_c, 0, 62, 0
2, 37286, Note_on_c, 0, 67, 0
2, 37330, Note_on_c, 0, 63, 63
2, 37334, Note_on_c, 0, 57, 0
2, 37378, Note_on_c, 0, 63, 0
2, 37594, Note_on_c, 0, 60, 52
2, 37610, Note_on_c, 0, 57, 30
2, 37642, Note_on_c, 0, 60, 0
2, 37674, Note_on_c, 0, 57, 0
2, 37726, Note_on_c, 0, 62, 65
2, 37926, Note_on_c, 0, 62, 0
2, 37954, Note_on_c, 0, 63, 64
2, 37982, Note_on_c, 0, 57, 60
2, 37986, Note_on_c, 0, 51, 39
2, 38042, Note_on_c, 0, 51, 0
2, 38098, Note_on_c, 0, 63, 0
2, 38106, Note_on_c, 0, 57, 0
2, 38154, Note_on_c, 0, 65, 48
2, 38294, Note_on_c, 0, 65, 0
2, 38342, Note_on_c, 0, 66, 70
2, 38450, Note_on_c, 0, 66, 0
2, 38518, Note_on_c, 0, 68, 64
2, 38654, Note_on_c, 0, 68, 0
2, 38718, Note_on_c, 0, 70, 78
2, 38730, Note_on_c, 0, 65, 67
2, 38742, Note_on_c, 0, 61, 56
2, 38750, Note_on_c, 0, 58, 49
2, 38750, Note_on_c, 0, 54, 43
2, 38834, Note_on_c, 0, 70, 0
2, 38930, Note_on_c, 0, 72, 59
2, 38986, Note_on_c, 0, 72, 0
2, 39102, Note_on_c, 0, 73, 68
2, 39158, Note_on_c, 0, 73, 0
2, 39286, Note_on_c, 0, 75, 63
2, 39322, Note_on_c, 0, 75, 0
2, 39342, Note_on_c, 0, 65, 0
2, 39394, Note_on_c, 0, 54, 0
2, 39410, Note_on_c, 0, 61, 0
2, 39414, Note_on_c, 0, 58, 0
2, 39474, Note_on_c, 0, 77, 68
2, 39510, Note_on_c, 0, 77, 0
2, 39562, Note_on_c, 0, 65, 51
2, 39574, Note_on_c, 0, 61, 42
2, 39594, Note_on_c, 0, 58, 40
2, 39622, Note_on_c, 0, 65, 0
2, 39638, Note_on_c, 0, 78, 56
2, 39678, Note_on_c, 0, 78, 0
2, 39754, Note_on_c, 0, 58, 0
2, 39778, Note_on_c, 0, 61, 0
2, 39842, Note_on_c, 0, 80, 55
2, 39882, Note_on_c, 0, 80, 0
2, 40010, Note_on_c, 0, 82, 62
2, 40050, Note_on_c, 0, 82, 0
2, 40198, Note_on_c, 0, 84, 75
2, 40302, Note_on_c, 0, 84, 0
2, 40334, Note_on_c, 0, 64, 40
2, 40358, Note_on_c, 0, 54, 37
2, 40374, Note_on_c, 0, 60, 44
2, 40390, Note_on_c, 0, 81, 53
2, 40510, Note_on_c, 0, 81, 0
2, 40642, Note_on_c, 0, 60, 0
2, 40706, Note_on_c, 0, 54, 0
2, 40706, Note_on_c, 0, 64, 0
2, 40746, Note_on_c, 0, 81, 55
2, 40870, Note_on_c, 0, 81, 0
2, 41026, Note_on_c, 0, 54, 44
2, 41030, Note_on_c, 0, 64, 39
2, 41054, Note_on_c, 0, 60, 46
2, 41110, Note_on_c, 0, 81, 60
2, 41154, Note_on_c, 0, 64, 0
2, 41190, Note_on_c, 0, 60, 0
2, 41338, Note_on_c, 0, 81, 0
2, 41358, Note_on_c, 0, 82, 57
2, 41442, Note_on_c, 0, 82, 0
2, 41466, Note_on_c, 0, 83, 44
2, 41562, Note_on_c, 0, 84, 77
2, 41574, Note_on_c, 0, 83, 0
2, 41590, Note_on_c, 0, 54, 0
2, 41702, Note_on_c, 0, 84, 0
2, 41810, Note_on_c, 0, 63, 54
2, 41814, Note_on_c, 0, 80, 67
2, 41818, Note_on_c, 0, 60, 53
2, 41854, Note_on_c, 0, 56, 44
2, 41874, Note_on_c, 0, 63, 0
2, 41878, Note_on_c, 0, 60, 0
2, 41910, Note_on_c, 0, 56, 0
2, 41938, Note_on_c, 0, 80, 0
2, 42046, Note_on_c, 0, 80, 51
2, 42174, Note_on_c, 0, 80, 0
2, 42334, Note_on_c, 0, 80, 60
2, 42470, Note_on_c, 0, 80, 0
2, 42602, Note_on_c, 0, 63, 37
2, 42618, Note_on_c, 0, 80, 51
2, 42618, Note_on_c, 0, 60, 45
2, 42630, Note_on_c, 0, 56, 45
2, 42702, Note_on_c, 0, 63, 0
2, 42726, Note_on_c, 0, 60, 0
2, 42810, Note_on_c, 0, 56, 0
2, 42838, Note_on_c, 0, 80, 0
2, 43402, Note_on_c, 0, 63, 47
2, 43422, Note_on_c, 0, 60, 50
2, 43462, Note_on_c, 0, 56, 39
2, 43486, Note_on_c, 0, 60, 0
2, 43502, Note_on_c, 0, 63, 0
2, 43534, Note_on_c, 0, 56, 0
2, 44110, Note_on_c, 0, 60, 53
2, 44110, Note_on_c, 0, 63, 44
2, 44138, Note_on_c, 0, 56, 43
2, 44166, Note_on_c, 0, 63, 0
2, 44166, Note_on_c, 0, 60, 0
2, 44194, Note_on_c, 0, 56, 0
2, 44262, Note_on_c, 0, 79, 62
2, 44434, Note_on_c, 0, 79, 0
2, 44486, Note_on_c, 0, 80, 73
2, 44574, Note_on_c, 0, 80, 0
2, 44662, Note_on_c, 0, 84, 89
2, 44750, Note_on_c, 0, 84, 0
2, 44862, Note_on_c, 0, 87, 102
2, 44890, Note_on_c, 0, 65, 71
2, 44894, Note_on_c, 0, 55, 58
2, 44894, Note_on_c, 0, 56, 57
2, 44902, Note_on_c, 0, 60, 61
2, 45046, Note_on_c, 0, 88, 105
2, 45058, Note_on_c, 0, 65, 0
2, 45082, Note_on_c, 0, 87, 0
2, 45182, Note_on_c, 0, 60, 0
2, 45186, Note_on_c, 0, 88, 0
2, 45214, Note_on_c, 0, 55, 0
2, 45246, Note_on_c, 0, 56, 0
2, 45250, Note_on_c, 0, 91, 123
2, 45422, Note_on_c, 0, 89, 85
2, 45442, Note_on_c, 0, 91, 0
2, 45578, Note_on_c, 0, 89, 0
2, 45642, Note_on_c, 0, 87, 65
2, 45642, Note_on_c, 0, 65, 45
2, 45658, Note_on_c, 0, 60, 56
2, 45694, Note_on_c, 0, 65, 0
2, 45778, Note_on_c, 0, 87, 0
2, 45782, Note_on_c, 0, 60, 0
2, 45834, Note_on_c, 0, 88, 62
2, 45970, Note_on_c, 0, 88, 0
2, 46038, Note_on_c, 0, 89, 71
2, 46050, Note_on_c, 0, 65, 45
2, 46070, Note_on_c, 0, 60, 54
2, 46074, Note_on_c, 0, 56, 42
2, 46098, Note_on_c, 0, 65, 0
2, 46114, Note_on_c, 0, 60, 0
2, 46146, Note_on_c, 0, 89, 0
2, 46154, Note_on_c, 0, 56, 0
2, 46254, Note_on_c, 0, 91, 68
2, 46358, Note_on_c, 0, 91, 0
2, 46438, Note_on_c, 0, 92, 101
2, 46478, Note_on_c, 0, 59, 63
2, 46486, Note_on_c, 0, 64, 57
2, 46506, Note_on_c, 0, 53, 46
2, 46570, Note_on_c, 0, 92, 0
2, 46646, Note_on_c, 0, 94, 105
2, 46782, Note_on_c, 0, 64, 0
2, 46802, Note_on_c, 0, 94, 0
2, 46894, Note_on_c, 0, 94, 92
2, 46910, Note_on_c, 0, 53, 0
2, 47070, Note_on_c, 0, 94, 0
2, 47098, Note_on_c, 0, 59, 0
2, 47150, Note_on_c, 0, 92, 80
2, 47162, Note_on_c, 0, 59, 44
2, 47170, Note_on_c, 0, 63, 68
2, 47194, Note_on_c, 0, 56, 50
2, 47202, Note_on_c, 0, 53, 44
2, 47282, Note_on_c, 0, 63, 0
2, 47294, Note_on_c, 0, 92, 0
2, 47342, Note_on_c, 0, 53, 0
2, 47406, Note_on_c, 0, 94, 99
2, 47426, Note_on_c, 0, 56, 0
2, 47426, Note_on_c, 0, 59, 0
2, 47566, Note_on_c, 0, 94, 0
2, 47610, Note_on_c, 0, 56, 53
2, 47642, Note_on_c, 0, 59, 37
2, 47670, Note_on_c, 0, 92, 83
2, 47698, Note_on_c, 0, 59, 0
2, 47778, Note_on_c, 0, 56, 0
2, 47822, Note_on_c, 0, 92, 0
2, 47934, Note_on_c, 0, 62, 55
2, 47934, Note_on_c, 0, 51, 53
2, 47946, Note_on_c, 0, 91, 79
2, 47954, Note_on_c, 0, 57, 47
2, 48234, Note_on_c, 0, 91, 0
2, 48298, Note_on_c, 0, 84, 51
2, 48350, Note_on_c, 0, 84, 0
2, 48458, Note_on_c, 0, 84, 66
2, 48594, Note_on_c, 0, 62, 0
2, 48606, Note_on_c, 0, 84, 0
2, 48658, Note_on_c, 0, 57, 0
2, 48706, Note_on_c, 0, 51, 0
2, 48710, Note_on_c, 0, 84, 76
2, 48822, Note_on_c, 0, 84, 0
2, 48902, Note_on_c, 0, 96, 89
2, 49054, Note_on_c, 0, 96, 0
2, 49158, Note_on_c, 0, 54, 43
2, 49170, Note_on_c, 0, 55, 50
2, 49198, Note_on_c, 0, 96, 83
2, 49206, Note_on_c, 0, 54, 0
2, 49350, Note_on_c, 0, 96, 0
2, 49418, Note_on_c, 0, 55, 0
2, 49462, Note_on_c, 0, 43, 64
2, 49534, Note_on_c, 0, 43, 0
2, 50206, Note_on_c, 0, 63, 62
2, 50214, Note_on_c, 0, 59, 56
2, 50230, Note_on_c, 0, 53, 54
2, 50286, Note_on_c, 0, 63, 0
2, 50386, Note_on_c, 0, 89, 107
2, 50562, Note_on_c, 0, 89, 0
2, 50602, Note_on_c, 0, 59, 0
2, 50602, Note_on_c, 0, 90, 86
2, 50702, Note_on_c, 0, 53, 0
2, 50774, Note_on_c, 0, 90, 0
2, 50794, Note_on_c, 0, 89, 60
2, 50962, Note_on_c, 0, 89, 0
2, 50998, Note_on_c, 0, 87, 70
2, 51006, Note_on_c, 0, 62, 56
2, 51018, Note_on_c, 0, 51, 46
2, 51026, Note_on_c, 0, 57, 51
2, 51058, Note_on_c, 0, 62, 0
2, 51094, Note_on_c, 0, 57, 0
2, 51130, Note_on_c, 0, 51, 0
2, 51162, Note_on_c, 0, 87, 0
2, 51422, Note_on_c, 0, 81, 55
2, 51422, Note_on_c, 0, 57, 33
2, 51458, Note_on_c, 0, 81, 0
2, 51490, Note_on_c, 0, 57, 0
2, 51578, Note_on_c, 0, 88, 76
2, 51726, Note_on_c, 0, 88, 0
2, 51806, Note_on_c, 0, 90, 101
2, 51834, Note_on_c, 0, 57, 68
2, 51898, Note_on_c, 0, 57, 0
2, 51962, Note_on_c, 0, 90, 0
2, 51970, Note_on_c, 0, 89, 75
2, 52146, Note_on_c, 0, 89, 0
2, 52166, Note_on_c, 0, 87, 77
2, 52186, Note_on_c, 0, 57, 55
2, 52234, Note_on_c, 0, 57, 0
2, 52318, Note_on_c, 0, 87, 0
2, 52342, Note_on_c, 0, 84, 60
2, 52418, Note_on_c, 0, 84, 0
2, 52630, Note_on_c, 0, 57, 57
2, 52718, Note_on_c, 0, 57, 0
2, 52726, Note_on_c, 0, 89, 87
2, 52858, Note_on_c, 0, 89, 0
2, 52914, Note_on_c, 0, 90, 92
2, 52990, Note_on_c, 0, 57, 50
2, 53030, Note_on_c, 0, 57, 0
2, 53066, Note_on_c, 0, 89, 76
2, 53070, Note_on_c, 0, 90, 0
2, 53250, Note_on_c, 0, 89, 0
2, 53286, Note_on_c, 0, 87, 76
2, 53318, Note_on_c, 0, 62, 56
2, 53322, Note_on_c, 0, 57, 65
2, 53362, Note_on_c, 0, 62, 0
2, 53398, Note_on_c, 0, 57, 0
2, 53446, Note_on_c, 0, 87, 0
2, 53486, Note_on_c, 0, 84, 51
2, 53602, Note_on_c, 0, 84, 0
2, 53682, Note_on_c, 0, 82, 70
2, 53718, Note_on_c, 0, 62, 45
2, 53726, Note_on_c, 0, 57, 50
2, 53766, Note_on_c, 0, 82, 0
2, 53770, Note_on_c, 0, 62, 0
2, 53774, Note_on_c, 0, 57, 0
2, 54070, Note_on_c, 0, 62, 80
2, 54094, Note_on_c, 0, 56, 46
2, 54102, Note_on_c, 0, 60, 58
2, 54142, Note_on_c, 0, 53, 48
2, 54446, Note_on_c, 0, 60, 0
2, 54538, Note_on_c, 0, 62, 0
2, 54594, Note_on_c, 0, 60, 34
2, 54602, Note_on_c, 0, 87, 98
2, 54614, Note_on_c, 0, 53, 0
2, 54650, Note_on_c, 0, 60, 0
2, 54674, Note_on_c, 0, 56, 0
2, 54846, Note_on_c, 0, 87, 0
2, 54878, Note_on_c, 0, 84, 48
2, 54926, Note_on_c, 0, 84, 0
2, 55026, Note_on_c, 0, 87, 93
2, 55190, Note_on_c, 0, 87, 0
2, 55254, Note_on_c, 0, 84, 75
2, 55286, Note_on_c, 0, 56, 35
2, 55366, Note_on_c, 0, 56, 0
2, 55366, Note_on_c, 0, 84, 0
2, 55606, Note_on_c, 0, 82, 91
2, 55942, Note_on_c, 0, 82, 0
2, 56018, Note_on_c, 0, 80, 47
2, 56050, Note_on_c, 0, 60, 45
2, 56062, Note_on_c, 0, 80, 0
2, 56126, Note_on_c, 0, 56, 23
2, 56138, Note_on_c, 0, 60, 0
2, 56162, Note_on_c, 0, 82, 83
2, 56198, Note_on_c, 0, 56, 0
2, 56382, Note_on_c, 0, 63, 55
2, 56386, Note_on_c, 0, 82, 0
2, 56398, Note_on_c, 0, 60, 55
2, 56422, Note_on_c, 0, 63, 0
2, 56422, Note_on_c, 0, 80, 70
2, 56426, Note_on_c, 0, 56, 41
2, 56526, Note_on_c, 0, 60, 0
2, 56534, Note_on_c, 0, 80, 0
2, 56582, Note_on_c, 0, 56, 0
2, 56802, Note_on_c, 0, 77, 94
2, 56860, Note_on_c, 0, 60, 40
2, 56918, Note_on_c, 0, 60, 0
2, 57078, Note_on_c, 0, 77, 0
2, 57170, Note_on_c, 0, 60, 49
2, 57182, Note_on_c, 0, 56, 34
2, 57206, Note_on_c, 0, 75, 53
2, 57226, Note_on_c, 0, 60, 0
2, 57258, Note_on_c, 0, 75, 0
2, 57258, Note_on_c, 0, 56, 0
2, 57354, Note_on_c, 0, 77, 70
2, 57366, Note_on_c, 0, 76, 62
2, 57406, Note_on_c, 0, 76, 0
2, 57518, Note_on_c, 0, 77, 0
2, 57578, Note_on_c, 0, 75, 79
2, 57594, Note_on_c, 0, 65, 48
2, 57602, Note_on_c, 0, 60, 61
2, 57602, Note_on_c, 0, 56, 40
2, 57630, Note_on_c, 0, 55, 41
2, 57686, Note_on_c, 0, 75, 0
2, 57758, Note_on_c, 0, 74, 58
2, 57770, Note_on_c, 0, 65, 0
2, 57814, Note_on_c, 0, 60, 0
2, 57910, Note_on_c, 0, 74, 0
2, 58018, Note_on_c, 0, 72, 40
2, 58034, Note_on_c, 0, 60, 23
2, 58110, Note_on_c, 0, 60, 0
2, 58126, Note_on_c, 0, 55, 0
2, 58142, Note_on_c, 0, 56, 0
2, 58154, Note_on_c, 0, 72, 0
2, 58186, Note_on_c, 0, 74, 90
2, 58430, Note_on_c, 0, 65, 46
2, 58438, Note_on_c, 0, 60, 58
2, 58446, Note_on_c, 0, 74, 0
2, 58450, Note_on_c, 0, 56, 44
2, 58478, Note_on_c, 0, 65, 0
2, 58486, Note_on_c, 0, 60, 0
2, 58502, Note_on_c, 0, 72, 51
2, 58562, Note_on_c, 0, 56, 0
2, 58702, Note_on_c, 0, 72, 0
2, 58766, Note_on_c, 0, 64, 58
2, 58774, Note_on_c, 0, 59, 50
2, 58810, Note_on_c, 0, 53, 50
2, 59230, Note_on_c, 0, 53, 0
2, 59230, Note_on_c, 0, 64, 0
2, 59362, Note_on_c, 0, 59, 0
2, 59454, Note_on_c, 0, 63, 68
2, 59478, Note_on_c, 0, 59, 62
2, 59490, Note_on_c, 0, 56, 46
2, 59606, Note_on_c, 0, 53, 8
2, 59746, Note_on_c, 0, 59, 0
2, 59890, Note_on_c, 0, 63, 0
2, 59906, Note_on_c, 0, 59, 45
2, 60022, Note_on_c, 0, 71, 61
2, 60062, Note_on_c, 0, 59, 0
2, 60194, Note_on_c, 0, 71, 0
2, 60202, Note_on_c, 0, 53, 0
2, 60262, Note_on_c, 0, 74, 83
2, 60266, Note_on_c, 0, 59, 39
2, 60282, Note_on_c, 0, 71, 44
2, 60290, Note_on_c, 0, 62, 73
2, 60294, Note_on_c, 0, 68, 61
2, 60310, Note_on_c, 0, 65, 40
2, 60330, Note_on_c, 0, 72, 30
2, 60334, Note_on_c, 0, 59, 0
2, 60530, Note_on_c, 0, 72, 0
2, 60630, Note_on_c, 0, 71, 0
2, 60746, Note_on_c, 0, 74, 0
2, 60778, Note_on_c, 0, 71, 53
2, 60786, Note_on_c, 0, 56, 0
2, 60790, Note_on_c, 0, 59, 62
2, 60814, Note_on_c, 0, 62, 0
2, 60946, Note_on_c, 0, 71, 0
2, 60986, Note_on_c, 0, 65, 0
2, 61042, Note_on_c, 0, 68, 0
2, 61178, Note_on_c, 0, 59, 0
2, 61186, Note_on_c, 0, 72, 62
2, 61194, Note_on_c, 0, 60, 58
2, 61222, Note_on_c, 0, 63, 50
2, 61246, Note_on_c, 0, 67, 39
2, 61334, Note_on_c, 0, 63, 0
2, 61366, Note_on_c, 0, 67, 0
2, 61390, Note_on_c, 0, 60, 0
2, 61454, Note_on_c, 0, 72, 0
2, 61554, Note_on_c, 0, 62, 56
2, 61562, Note_on_c, 0, 74, 64
2, 61562, Note_on_c, 0, 67, 60
2, 61562, Note_on_c, 0, 63, 58
2, 61582, Note_on_c, 0, 73, 39
2, 61626, Note_on_c, 0, 70, 40
2, 61678, Note_on_c, 0, 73, 0
2, 61718, Note_on_c, 0, 63, 0
2, 61726, Note_on_c, 0, 74, 0
2, 61730, Note_on_c, 0, 67, 0
2, 61798, Note_on_c, 0, 70, 0
2, 61962, Note_on_c, 0, 66, 52
2, 61966, Note_on_c, 0, 62, 0
2, 61970, Note_on_c, 0, 75, 53
2, 61978, Note_on_c, 0, 63, 53
2, 61978, Note_on_c, 0, 70, 53
2, 62082, Note_on_c, 0, 75, 0
2, 62094, Note_on_c, 0, 66, 0
2, 62102, Note_on_c, 0, 70, 0
2, 62254, Note_on_c, 0, 79, 55
2, 62258, Note_on_c, 0, 65, 44
2, 62266, Note_on_c, 0, 77, 39
2, 62270, Note_on_c, 0, 63, 0
2, 62294, Note_on_c, 0, 79, 0
2, 62314, Note_on_c, 0, 65, 0
2, 62322, Note_on_c, 0, 77, 0
2, 62934, Note_on_c, 0, 66, 88
2, 62942, Note_on_c, 0, 65, 72
2, 62946, Note_on_c, 0, 77, 78
2, 62946, Note_on_c, 0, 70, 68
2, 62966, Note_on_c, 0, 73, 50
2, 62994, Note_on_c, 0, 70, 0
2, 63010, Note_on_c, 0, 73, 0
2, 63034, Note_on_c, 0, 77, 0
2, 63058, Note_on_c, 0, 66, 0
2, 63078, Note_on_c, 0, 63, 49
2, 63086, Note_on_c, 0, 65, 0
2, 63322, Note_on_c, 0, 63, 0
2, 63326, Note_on_c, 0, 77, 94
2, 63330, Note_on_c, 0, 70, 73
2, 63330, Note_on_c, 0, 66, 75
2, 63342, Note_on_c, 0, 65, 65
2, 63366, Note_on_c, 0, 73, 44
2, 63398, Note_on_c, 0, 66, 0
2, 63418, Note_on_c, 0, 73, 0
2, 63418, Note_on_c, 0, 70, 0
2, 63422, Note_on_c, 0, 77, 0
2, 63446, Note_on_c, 0, 65, 0
2, 63510, Note_on_c, 0, 77, 86
2, 63518, Note_on_c, 0, 65, 67
2, 63522, Note_on_c, 0, 66, 70
2, 63558, Note_on_c, 0, 70, 38
2, 63770, Note_on_c, 0, 70, 0
2, 63770, Note_on_c, 0, 77, 0
2, 63778, Note_on_c, 0, 66, 0
2, 63838, Note_on_c, 0, 65, 0
2, 63854, Note_on_c, 0, 63, 53
2, 63870, Note_on_c, 0, 75, 61
2, 63890, Note_on_c, 0, 66, 40
2, 63950, Note_on_c, 0, 66, 0
2, 63998, Note_on_c, 0, 75, 0
2, 64086, Note_on_c, 0, 63, 0
2, 64094, Note_on_c, 0, 77, 85
2, 64098, Note_on_c, 0, 66, 76
2, 64102, Note_on_c, 0, 65, 70
2, 64107, Note_on_c, 0, 70, 69
2, 64150, Note_on_c, 0, 73, 36
2, 64190, Note_on_c, 0, 66, 0
2, 64198, Note_on_c, 0, 77, 0
2, 64202, Note_on_c, 0, 70, 0
2, 64202, Note_on_c, 0, 65, 0
2, 64202, Note_on_c, 0, 73, 0
2, 64290, Note_on_c, 0, 66, 62
2, 64290, Note_on_c, 0, 77, 80
2, 64302, Note_on_c, 0, 70, 71
2, 64322, Note_on_c, 0, 65, 50
2, 64354, Note_on_c, 0, 73, 30
2, 64430, Note_on_c, 0, 73, 0
2, 64494, Note_on_c, 0, 70, 0
2, 64498, Note_on_c, 0, 77, 0
2, 64502, Note_on_c, 0, 66, 0
2, 64538, Note_on_c, 0, 63, 60
2, 64570, Note_on_c, 0, 65, 0
2, 64582, Note_on_c, 0, 63, 0
2, 64606, Note_on_c, 0, 75, 55
2, 64606, Note_on_c, 0, 66, 42
2, 64634, Note_on_c, 0, 70, 40
2, 64678, Note_on_c, 0, 66, 0
2, 64694, Note_on_c, 0, 70, 0
2, 64794, Note_on_c, 0, 75, 0
2, 64846, Note_on_c, 0, 54, 60
2, 64846, Note_on_c, 0, 64, 67
2, 64862, Note_on_c, 0, 66, 69
2, 64866, Note_on_c, 0, 77, 77
2, 64882, Note_on_c, 0, 69, 70
2, 64882, Note_on_c, 0, 72, 63
2, 64890, Note_on_c, 0, 60, 62
2, 64906, Note_on_c, 0, 75, 44
2, 65374, Control_c, 0, 64, 127
2, 65534, Note_on_c, 0, 77, 0
2, 65546, Note_on_c, 0, 66, 0
2, 65550, Note_on_c, 0, 69, 0
2, 65566, Note_on_c, 0, 75, 0
2, 65578, Note_on_c, 0, 64, 0
2, 65602, Note_on_c, 0, 72, 0
2, 65626, Note_on_c, 0, 54, 0
2, 65690, Note_on_c, 0, 60, 0
2, 65746, Control_c, 0, 64, 0
2, 65778, Note_on_c, 0, 66, 73
2, 65786, Note_on_c, 0, 75, 67
2, 65794, Note_on_c, 0, 69, 65
2, 65794, Note_on_c, 0, 64, 66
2, 65794, Note_on_c, 0, 54, 62
2, 65806, Note_on_c, 0, 72, 55
2, 65810, Note_on_c, 0, 60, 52
2, 66070, Control_c, 0, 64, 127
2, 66086, Note_on_c, 0, 64, 0
2, 66102, Note_on_c, 0, 69, 0
2, 66146, Note_on_c, 0, 72, 0
2, 66190, Note_on_c, 0, 66, 0
2, 66194, Note_on_c, 0, 54, 0
2, 66226, Note_on_c, 0, 75, 0
2, 66234, Note_on_c, 0, 60, 0
2, 66326, Control_c, 0, 64, 0
2, 66398, Note_on_c, 0, 60, 48
2, 66402, Note_on_c, 0, 68, 60
2, 66410, Note_on_c, 0, 63, 57
2, 66410, Note_on_c, 0, 65, 56
2, 66434, Note_on_c, 0, 56, 51
2, 66438, Note_on_c, 0, 72, 57
2, 66462, Note_on_c, 0, 53, 35
2, 66898, Control_c, 0, 64, 127
2, 66914, Note_on_c, 0, 53, 0
2, 66946, Note_on_c, 0, 60, 0
2, 66974, Note_on_c, 0, 65, 0
2, 66990, Note_on_c, 0, 63, 0
2, 67018, Note_on_c, 0, 56, 0
2, 67130, Note_on_c, 0, 72, 0
2, 67134, Note_on_c, 0, 68, 0
2, 67370, Control_c, 0, 64, 0
2, 67554, Note_on_c, 0, 61, 76
2, 67570, Note_on_c, 0, 75, 107
2, 67570, Note_on_c, 0, 68, 107
2, 67574, Note_on_c, 0, 63, 97
2, 67574, Note_on_c, 0, 65, 111
2, 67574, Note_on_c, 0, 72, 87
2, 67694, Note_on_c, 0, 61, 0
2, 67974, Note_on_c, 0, 75, 0
2, 67994, Note_on_c, 0, 65, 0
2, 68010, Note_on_c, 0, 68, 0
2, 68038, Note_on_c, 0, 72, 0
2, 68094, Note_on_c, 0, 63, 0
2, 68106, Note_on_c, 0, 61, 60
2, 68106, Note_on_c, 0, 68, 65
2, 68106, Note_on_c, 0, 73, 74
2, 68106, Note_on_c, 0, 65, 70
2, 68258, Note_on_c, 0, 65, 0
2, 68286, Note_on_c, 0, 68, 0
2, 68318, Note_on_c, 0, 73, 0
2, 68418, Note_on_c, 0, 61, 0
2, 68486, Note_on_c, 0, 68, 70
2, 68486, Note_on_c, 0, 60, 61
2, 68486, Note_on_c, 0, 72, 70
2, 68486, Note_on_c, 0, 65, 73
2, 68638, Note_on_c, 0, 72, 0
2, 68662, Note_on_c, 0, 65, 0
2, 68706, Note_on_c, 0, 68, 0
2, 68822, Note_on_c, 0, 60, 0
2, 68874, Note_on_c, 0, 58, 58
2, 68894, Note_on_c, 0, 65, 52
2, 68894, Note_on_c, 0, 70, 65
2, 68906, Note_on_c, 0, 68, 47
2, 69022, Note_on_c, 0, 65, 0
2, 69058, Note_on_c, 0, 68, 0
2, 69098, Note_on_c, 0, 70, 0
2, 69158, Note_on_c, 0, 72, 61
2, 69162, Note_on_c, 0, 65, 51
2, 69174, Note_on_c, 0, 58, 0
2, 69174, Note_on_c, 0, 60, 46
2, 69186, Note_on_c, 0, 68, 40
2, 69186, Control_c, 0, 64, 127
2, 69218, Note_on_c, 0, 65, 0
2, 69234, Note_on_c, 0, 68, 0
2, 69238, Note_on_c, 0, 60, 0
2, 69266, Note_on_c, 0, 72, 0
2, 69414, Control_c, 0, 64, 0
2, 69486, Note_on_c, 0, 68, 62
2, 69494, Note_on_c, 0, 60, 49
2, 69498, Note_on_c, 0, 56, 56
2, 69506, Note_on_c, 0, 65, 56
2, 69526, Note_on_c, 0, 50, 44
2, 69874, Control_c, 0, 64, 127
2, 69882, Note_on_c, 0, 60, 0
2, 69942, Note_on_c, 0, 65, 0
2, 69958, Note_on_c, 0, 56, 0
2, 69966, Note_on_c, 0, 50, 0
2, 69998, Note_on_c, 0, 68, 0
2, 70574, Control_c, 0, 64, 0
2, 70582, Note_on_c, 0, 67, 76
2, 70598, Note_on_c, 0, 65, 53
2, 70602, Note_on_c, 0, 56, 50
2, 70618, Note_on_c, 0, 60, 52
2, 70638, Note_on_c, 0, 65, 0
2, 70666, Note_on_c, 0, 60, 0
2, 70682, Note_on_c, 0, 67, 0
2, 70686, Note_on_c, 0, 68, 70
2, 70726, Note_on_c, 0, 56, 0
2, 70734, Note_on_c, 0, 68, 0
2, 70866, Note_on_c, 0, 72, 64
2, 70934, Note_on_c, 0, 72, 0
2, 70966, Note_on_c, 0, 75, 51
2, 71022, Note_on_c, 0, 75, 0
2, 71046, Note_on_c, 0, 76, 76
2, 71134, Note_on_c, 0, 76, 0
2, 71178, Note_on_c, 0, 63, 76
2, 71182, Note_on_c, 0, 53, 76
2, 71182, Note_on_c, 0, 59, 68
2, 71190, Note_on_c, 0, 79, 125
2, 71414, Note_on_c, 0, 79, 0
2, 71486, Note_on_c, 0, 77, 91
2, 71538, Note_on_c, 0, 63, 0
2, 71622, Note_on_c, 0, 53, 0
2, 71630, Note_on_c, 0, 77, 0
2, 71682, Note_on_c, 0, 59, 0
2, 71750, Note_on_c, 0, 72, 73
2, 71818, Note_on_c, 0, 59, 55
2, 71823, Note_on_c, 0, 63, 51
2, 71842, Note_on_c, 0, 53, 42
2, 71862, Note_on_c, 0, 72, 0
2, 71866, Note_on_c, 0, 63, 0
2, 71902, Note_on_c, 0, 53, 0
2, 71954, Note_on_c, 0, 68, 58
2, 72022, Note_on_c, 0, 59, 0
2, 72106, Note_on_c, 0, 68, 0
2, 72158, Note_on_c, 0, 67, 60
2, 72194, Note_on_c, 0, 59, 60
2, 72218, Note_on_c, 0, 63, 34
2, 72226, Note_on_c, 0, 53, 36
2, 72246, Note_on_c, 0, 59, 0
2, 72266, Note_on_c, 0, 67, 0
2, 72270, Note_on_c, 0, 63, 0
2, 72306, Note_on_c, 0, 53, 0
2, 72350, Note_on_c, 0, 65, 42
2, 72498, Note_on_c, 0, 65, 0
2, 72530, Note_on_c, 0, 63, 66
2, 72562, Note_on_c, 0, 51, 52
2, 72562, Note_on_c, 0, 57, 53
2, 72638, Note_on_c, 0, 63, 0
2, 72686, Note_on_c, 0, 51, 0
2, 72722, Note_on_c, 0, 62, 47
2, 72758, Note_on_c, 0, 57, 0
2, 72910, Note_on_c, 0, 62, 0
2, 72910, Note_on_c, 0, 57, 50
2, 73022, Note_on_c, 0, 65, 64
2, 73050, Note_on_c, 0, 57, 0
2, 73218, Note_on_c, 0, 65, 0
2, 73242, Note_on_c, 0, 57, 55
2, 73298, Note_on_c, 0, 57, 0
2, 73430, Note_on_c, 0, 63, 65
2, 73618, Note_on_c, 0, 63, 0
2, 73666, Note_on_c, 0, 55, 69
2, 73774, Note_on_c, 0, 55, 0
2, 74026, Note_on_c, 0, 43, 72
2, 74070, Note_on_c, 0, 43, 0
2, 74410, Note_on_c, 0, 63, 80
2, 74418, Note_on_c, 0, 58, 55
2, 74430, Note_on_c, 0, 59, 64
2, 74450, Note_on_c, 0, 53, 62
2, 74930, Note_on_c, 0, 63, 0
2, 74950, Note_on_c, 0, 67, 51
2, 74994, Note_on_c, 0, 67, 0
2, 75050, Note_on_c, 0, 59, 0
2, 75078, Note_on_c, 0, 58, 0
2, 75174, Note_on_c, 0, 70, 79
2, 75182, Note_on_c, 0, 59, 48
2, 75234, Note_on_c, 0, 59, 0
2, 75262, Note_on_c, 0, 70, 0
2, 75298, Note_on_c, 0, 53, 0
2, 75362, Note_on_c, 0, 71, 71
2, 75446, Note_on_c, 0, 71, 0
2, 75582, Note_on_c, 0, 74, 90
2, 75602, Note_on_c, 0, 51, 50
2, 75606, Note_on_c, 0, 62, 46
2, 75630, Note_on_c, 0, 57, 56
2, 75666, Note_on_c, 0, 62, 0
2, 75670, Note_on_c, 0, 51, 0
2, 75698, Note_on_c, 0, 74, 0
2, 75698, Note_on_c, 0, 57, 0
2, 75774, Note_on_c, 0, 71, 52
2, 75922, Note_on_c, 0, 71, 0
2, 76002, Note_on_c, 0, 57, 40
2, 76070, Note_on_c, 0, 57, 0
2, 76130, Note_on_c, 0, 71, 65
2, 76282, Note_on_c, 0, 71, 0
2, 76394, Note_on_c, 0, 57, 48
2, 76454, Note_on_c, 0, 57, 0
2, 76502, Note_on_c, 0, 71, 70
2, 76766, Note_on_c, 0, 71, 0
2, 77114, Note_on_c, 0, 71, 97
2, 77142, Note_on_c, 0, 51, 58
2, 77146, Note_on_c, 0, 62, 58
2, 77154, Note_on_c, 0, 57, 61
2, 77190, Note_on_c, 0, 62, 0
2, 77266, Note_on_c, 0, 51, 0
2, 77310, Note_on_c, 0, 57, 0
2, 77318, Note_on_c, 0, 72, 58
2, 77370, Note_on_c, 0, 71, 0
2, 77442, Note_on_c, 0, 73, 68
2, 77486, Note_on_c, 0, 72, 0
2, 77570, Note_on_c, 0, 73, 0
2, 77610, Note_on_c, 0, 74, 86
2, 77622, Note_on_c, 0, 57, 38
2, 77698, Note_on_c, 0, 57, 0
2, 77874, Note_on_c, 0, 74, 0
2, 77942, Note_on_c, 0, 71, 99
2, 78194, Note_on_c, 0, 72, 61
2, 78202, Note_on_c, 0, 71, 0
2, 78294, Note_on_c, 0, 57, 57
2, 78326, Note_on_c, 0, 72, 0
2, 78326, Note_on_c, 0, 73, 71
2, 78338, Note_on_c, 0, 57, 0
2, 78430, Note_on_c, 0, 73, 0
2, 78462, Note_on_c, 0, 74, 75
2, 78546, Note_on_c, 0, 74, 0
2, 78666, Note_on_c, 0, 75, 93
2, 78714, Note_on_c, 0, 60, 33
2, 78750, Note_on_c, 0, 56, 28
2, 78786, Note_on_c, 0, 60, 0
2, 78818, Note_on_c, 0, 56, 0
2, 78822, Note_on_c, 0, 75, 0
2, 78866, Note_on_c, 0, 76, 70
2, 78998, Note_on_c, 0, 76, 0
2, 79062, Note_on_c, 0, 79, 109
2, 79118, Note_on_c, 0, 56, 36
2, 79118, Note_on_c, 0, 60, 43
2, 79182, Note_on_c, 0, 60, 0
2, 79206, Note_on_c, 0, 79, 0
2, 79218, Note_on_c, 0, 56, 0
2, 79254, Note_on_c, 0, 76, 59
2, 79370, Note_on_c, 0, 76, 0
2, 79434, Note_on_c, 0, 77, 98
2, 79446, Note_on_c, 0, 56, 29
2, 79554, Note_on_c, 0, 56, 0
2, 79618, Note_on_c, 0, 77, 0
2, 79626, Note_on_c, 0, 76, 68
2, 79758, Note_on_c, 0, 76, 0
2, 79826, Note_on_c, 0, 56, 40
2, 79842, Note_on_c, 0, 60, 37
2, 79902, Note_on_c, 0, 60, 0
2, 79958, Note_on_c, 0, 72, 53
2, 79966, Note_on_c, 0, 56, 0
2, 80146, Note_on_c, 0, 72, 0
2, 80202, Note_on_c, 0, 68, 51
2, 80214, Note_on_c, 0, 60, 33
2, 80282, Note_on_c, 0, 60, 0
2, 80326, Note_on_c, 0, 68, 0
2, 80374, Note_on_c, 0, 67, 38
2, 80526, Note_on_c, 0, 67, 0
2, 80566, Note_on_c, 0, 70, 68
2, 80622, Note_on_c, 0, 60, 33
2, 80626, Note_on_c, 0, 56, 31
2, 80678, Note_on_c, 0, 70, 0
2, 80686, Note_on_c, 0, 60, 0
2, 80710, Note_on_c, 0, 68, 48
2, 80742, Note_on_c, 0, 56, 0
2, 80934, Note_on_c, 0, 68, 0
2, 80978, Note_on_c, 0, 56, 24
2, 80990, Note_on_c, 0, 64, 40
2, 81046, Note_on_c, 0, 64, 0
2, 81118, Note_on_c, 0, 56, 0
2, 81118, Note_on_c, 0, 67, 60
2, 81298, Note_on_c, 0, 67, 0
2, 81382, Note_on_c, 0, 64, 46
2, 81394, Note_on_c, 0, 60, 47
2, 81398, Note_on_c, 0, 56, 39
2, 81438, Note_on_c, 0, 64, 0
2, 81442, Note_on_c, 0, 60, 0
2, 81458, Note_on_c, 0, 56, 0
2, 81522, Note_on_c, 0, 65, 58
2, 81682, Note_on_c, 0, 65, 0
2, 81762, Note_on_c, 0, 67, 70
2, 81846, Note_on_c, 0, 67, 0
2, 81850, Note_on_c, 0, 60, 35
2, 81910, Note_on_c, 0, 60, 0
2, 81922, Note_on_c, 0, 68, 64
2, 82030, Note_on_c, 0, 68, 0
2, 82118, Note_on_c, 0, 68, 67
2, 82222, Note_on_c, 0, 68, 0
2, 82302, Note_on_c, 0, 68, 56
2, 82406, Note_on_c, 0, 68, 0
2, 82490, Note_on_c, 0, 68, 69
2, 82542, Note_on_c, 0, 60, 38
2, 82554, Note_on_c, 0, 56, 29
2, 82598, Note_on_c, 0, 68, 0
2, 82626, Note_on_c, 0, 60, 0
2, 82634, Note_on_c, 0, 56, 0
2, 82682, Note_on_c, 0, 68, 65
2, 82802, Note_on_c, 0, 68, 0
2, 82894, Note_on_c, 0, 70, 80
2, 82902, Note_on_c, 0, 65, 28
2, 82910, Note_on_c, 0, 56, 40
2, 82942, Note_on_c, 0, 60, 34
2, 82946, Note_on_c, 0, 65, 0
2, 82998, Note_on_c, 0, 60, 0
2, 83010, Note_on_c, 0, 56, 0
2, 83018, Note_on_c, 0, 70, 0
2, 83078, Note_on_c, 0, 68, 70
2, 83174, Note_on_c, 0, 68, 0
2, 83286, Note_on_c, 0, 59, 65
2, 83318, Note_on_c, 0, 68, 76
2, 83338, Note_on_c, 0, 53, 36
2, 83398, Note_on_c, 0, 68, 0
2, 83410, Note_on_c, 0, 53, 0
2, 83450, Note_on_c, 0, 59, 0
2, 83498, Note_on_c, 0, 67, 80
2, 83582, Note_on_c, 0, 67, 0
2, 83682, Note_on_c, 0, 67, 75
2, 83770, Note_on_c, 0, 67, 0
2, 83874, Note_on_c, 0, 67, 65
2, 83958, Note_on_c, 0, 67, 0
2, 84058, Note_on_c, 0, 59, 60
2, 84078, Note_on_c, 0, 64, 38
2, 84078, Note_on_c, 0, 67, 71
2, 84142, Note_on_c, 0, 64, 0
2, 84166, Note_on_c, 0, 67, 0
2, 84206, Note_on_c, 0, 59, 0
2, 84270, Note_on_c, 0, 67, 68
2, 84386, Note_on_c, 0, 67, 0
2, 84458, Note_on_c, 0, 68, 84
2, 84490, Note_on_c, 0, 63, 55
2, 84494, Note_on_c, 0, 59, 53
2, 84522, Note_on_c, 0, 53, 33
2, 84538, Note_on_c, 0, 63, 0
2, 84542, Note_on_c, 0, 59, 0
2, 84574, Note_on_c, 0, 68, 0
2, 84586, Note_on_c, 0, 53, 0
2, 84654, Note_on_c, 0, 67, 70
2, 84774, Note_on_c, 0, 67, 0
2, 84838, Note_on_c, 0, 65, 80
2, 84862, Note_on_c, 0, 62, 62
2, 84866, Note_on_c, 0, 51, 60
2, 84890, Note_on_c, 0, 57, 56
2, 84910, Note_on_c, 0, 62, 0
2, 84922, Note_on_c, 0, 51, 0
2, 84950, Note_on_c, 0, 65, 0
2, 85014, Note_on_c, 0, 57, 0
2, 85046, Note_on_c, 0, 63, 61
2, 85110, Note_on_c, 0, 63, 0
2, 85174, Note_on_c, 0, 57, 52
2, 85222, Note_on_c, 0, 63, 71
2, 85294, Note_on_c, 0, 57, 0
2, 85314, Note_on_c, 0, 63, 0
2, 85394, Note_on_c, 0, 63, 70
2, 85470, Note_on_c, 0, 63, 0
2, 85574, Note_on_c, 0, 63, 67
2, 85594, Note_on_c, 0, 51, 55
2, 85594, Note_on_c, 0, 57, 60
2, 85666, Note_on_c, 0, 63, 0
2, 85718, Note_on_c, 0, 57, 0
2, 85718, Note_on_c, 0, 51, 0
2, 85766, Note_on_c, 0, 63, 66
2, 85874, Note_on_c, 0, 63, 0
2, 85958, Note_on_c, 0, 65, 78
2, 85998, Note_on_c, 0, 57, 64
2, 86022, Note_on_c, 0, 51, 40
2, 86078, Note_on_c, 0, 51, 0
2, 86082, Note_on_c, 0, 65, 0
2, 86110, Note_on_c, 0, 57, 0
2, 86138, Note_on_c, 0, 63, 62
2, 86186, Note_on_c, 0, 63, 0
2, 86334, Note_on_c, 0, 62, 75
2, 86366, Note_on_c, 0, 57, 61
2, 86434, Note_on_c, 0, 57, 0
2, 86458, Note_on_c, 0, 62, 0
2, 86526, Note_on_c, 0, 60, 58
2, 86702, Note_on_c, 0, 60, 0
2, 86722, Note_on_c, 0, 57, 39
2, 86814, Note_on_c, 0, 57, 0
2, 86874, Note_on_c, 0, 60, 75
2, 87074, Note_on_c, 0, 57, 48
2, 87166, Note_on_c, 0, 57, 0
2, 87254, Note_on_c, 0, 60, 0
2, 87270, Note_on_c, 0, 59, 57
2, 87298, Note_on_c, 0, 60, 34
2, 87330, Note_on_c, 0, 59, 0
2, 87354, Note_on_c, 0, 60, 0
2, 87494, Note_on_c, 0, 57, 62
2, 87550, Note_on_c, 0, 57, 0
2, 87670, Note_on_c, 0, 59, 76
2, 87886, Note_on_c, 0, 59, 0
2, 87890, Note_on_c, 0, 60, 67
2, 88022, Note_on_c, 0, 60, 0
2, 88078, Note_on_c, 0, 61, 55
2, 88230, Note_on_c, 0, 61, 0
2, 88290, Note_on_c, 0, 63, 60
2, 88402, Note_on_c, 0, 63, 0
2, 88454, Note_on_c, 0, 64, 52
2, 88598, Note_on_c, 0, 64, 0
2, 88642, Note_on_c, 0, 66, 80
2, 88694, Note_on_c, 0, 64, 62
2, 88714, Note_on_c, 0, 54, 39
2, 88714, Note_on_c, 0, 59, 53
2, 88782, Note_on_c, 0, 66, 0
2, 88806, Note_on_c, 0, 68, 60
2, 88954, Note_on_c, 0, 68, 0
2, 89014, Note_on_c, 0, 71, 79
2, 89126, Note_on_c, 0, 71, 0
2, 89170, Note_on_c, 0, 64, 0
2, 89178, Note_on_c, 0, 59, 0
2, 89182, Note_on_c, 0, 73, 64
2, 89318, Note_on_c, 0, 54, 0
2, 89350, Note_on_c, 0, 73, 0
2, 89386, Note_on_c, 0, 75, 78
2, 89518, Note_on_c, 0, 75, 0
2, 89578, Note_on_c, 0, 76, 60
2, 89694, Note_on_c, 0, 76, 0
2, 89746, Note_on_c, 0, 78, 44
2, 89802, Note_on_c, 0, 78, 0
2, 89930, Note_on_c, 0, 78, 58
2, 89974, Note_on_c, 0, 78, 0
2, 90150, Note_on_c, 0, 63, 76
2, 90158, Note_on_c, 0, 58, 68
2, 90166, Note_on_c, 0, 53, 65
2, 90670, Note_on_c, 0, 53, 0
2, 90710, Note_on_c, 0, 58, 0
2, 90710, Note_on_c, 0, 63, 0
2, 90926, Note_on_c, 0, 56, 72
2, 90934, Note_on_c, 0, 50, 76
2, 90934, Note_on_c, 0, 60, 76
2, 90934, Note_on_c, 0, 62, 67
2, 90970, Note_on_c, 0, 62, 0
2, 91326, Note_on_c, 0, 56, 0
2, 91362, Note_on_c, 0, 60, 0
2, 91362, Note_on_c, 0, 50, 0
2, 91438, Note_on_c, 0, 84, 102
2, 91458, Note_on_c, 0, 72, 86
2, 91634, Note_on_c, 0, 84, 0
2, 91654, Note_on_c, 0, 72, 0
2, 93778, Note_on_c, 0, 89, 102
2, 93782, Note_on_c, 0, 56, 60
2, 93782, Note_on_c, 0, 55, 60
2, 93782, Note_on_c, 0, 77, 95
2, 93782, Note_on_c, 0, 65, 69
2, 93790, Note_on_c, 0, 84, 76
2, 93802, Note_on_c, 0, 87, 57
2, 93806, Note_on_c, 0, 60, 62
2, 93838, Note_on_c, 0, 87, 0
2, 93894, Note_on_c, 0, 65, 0
2, 93910, Note_on_c, 0, 77, 0
2, 93930, Note_on_c, 0, 55, 0
2, 93930, Note_on_c, 0, 84, 0
2, 93946, Note_on_c, 0, 60, 0
2, 93946, Note_on_c, 0, 89, 0
2, 93970, Note_on_c, 0, 56, 0
2, 94174, Note_on_c, 0, 87, 75
2, 94182, Note_on_c, 0, 91, 78
2, 94182, Note_on_c, 0, 84, 69
2, 94182, Note_on_c, 0, 65, 83
2, 94182, Note_on_c, 0, 56, 64
2, 94182, Note_on_c, 0, 79, 68
2, 94182, Note_on_c, 0, 55, 73
2, 94182, Note_on_c, 0, 60, 67
2, 94206, Note_on_c, 0, 89, 52
2, 94210, Note_on_c, 0, 77, 53
2, 94250, Note_on_c, 0, 77, 0
2, 94250, Note_on_c, 0, 89, 0
2, 94566, Control_c, 0, 64, 127
2, 94586, Note_on_c, 0, 79, 0
2, 94614, Note_on_c, 0, 91, 0
2, 94654, Note_on_c, 0, 65, 0
2, 94654, Note_on_c, 0, 55, 0
2, 94662, Note_on_c, 0, 60, 0
2, 94678, Note_on_c, 0, 84, 0
2, 94698, Note_on_c, 0, 87, 0
2, 94698, Note_on_c, 0, 56, 0
2, 94822, Note_on_c, 0, 56, 57
2, 94822, Note_on_c, 0, 92, 89
2, 94830, Note_on_c, 0, 80, 74
2, 94838, Note_on_c, 0, 84, 67
2, 94838, Note_on_c, 0, 65, 79
2, 94842, Note_on_c, 0, 87, 62
2, 94850, Note_on_c, 0, 55, 67
2, 94858, Note_on_c, 0, 60, 68
2, 94978, Note_on_c, 0, 55, 0
2, 95010, Note_on_c, 0, 84, 0
2, 95014, Note_on_c, 0, 65, 0
2, 95026, Note_on_c, 0, 80, 0
2, 95038, Note_on_c, 0, 92, 0
2, 95046, Note_on_c, 0, 60, 0
2, 95070, Note_on_c, 0, 87, 0
2, 95086, Note_on_c, 0, 56, 0
2, 95338, Control_c, 0, 64, 0
2, 95342, Note_on_c, 0, 94, 111
2, 95342, Note_on_c, 0, 82, 101
2, 95350, Note_on_c, 0, 63, 88
2, 95350, Note_on_c, 0, 87, 92
2, 95358, Note_on_c, 0, 58, 60
2, 95362, Note_on_c, 0, 59, 67
2, 95374, Note_on_c, 0, 53, 64
2, 95390, Note_on_c, 0, 87, 0
2, 95426, Note_on_c, 0, 87, 37
2, 95654, Control_c, 0, 64, 127
2, 95710, Note_on_c, 0, 53, 0
2, 95738, Note_on_c, 0, 63, 0
2, 95738, Note_on_c, 0, 94, 0
2, 95754, Note_on_c, 0, 59, 0
2, 95762, Note_on_c, 0, 58, 0
2, 95766, Note_on_c, 0, 82, 0
2, 95786, Note_on_c, 0, 87, 0
2, 95854, Control_c, 0, 64, 40
2, 95858, Control_c, 0, 64, 0
2, 95934, Note_on_c, 0, 92, 98
2, 95942, Note_on_c, 0, 80, 94
2, 95942, Note_on_c, 0, 63, 91
2, 95946, Note_on_c, 0, 87, 87
2, 95954, Note_on_c, 0, 59, 64
2, 95954, Note_on_c, 0, 58, 55
2, 95966, Note_on_c, 0, 53, 61
2, 96310, Note_on_c, 0, 53, 0
2, 96318, Note_on_c, 0, 92, 0
2, 96322, Note_on_c, 0, 87, 0
2, 96350, Note_on_c, 0, 63, 0
2, 96354, Note_on_c, 0, 80, 0
2, 96354, Note_on_c, 0, 59, 0
2, 96390, Note_on_c, 0, 58, 0
2, 96466, Note_on_c, 0, 63, 77
2, 96474, Note_on_c, 0, 91, 90
2, 96478, Note_on_c, 0, 59, 61
2, 96490, Note_on_c, 0, 86, 81
2, 96490, Note_on_c, 0, 79, 66
2, 96490, Note_on_c, 0, 53, 60
2, 96490, Note_on_c, 0, 58, 59
2, 96790, Note_on_c, 0, 59, 0
2, 96814, Note_on_c, 0, 86, 0
2, 96818, Note_on_c, 0, 91, 0
2, 96822, Note_on_c, 0, 58, 0
2, 96850, Note_on_c, 0, 53, 0
2, 96878, Note_on_c, 0, 63, 0
2, 96898, Note_on_c, 0, 79, 0
2, 97066, Note_on_c, 0, 51, 56
2, 97074, Note_on_c, 0, 62, 67
2, 97086, Note_on_c, 0, 89, 91
2, 97102, Note_on_c, 0, 57, 58
2, 97106, Note_on_c, 0, 77, 82
2, 97398, Note_on_c, 0, 77, 0
2, 97410, Note_on_c, 0, 89, 0
2, 97478, Note_on_c, 0, 85, 69
2, 97622, Note_on_c, 0, 85, 0
2, 97630, Note_on_c, 0, 62, 0
2, 97642, Note_on_c, 0, 57, 0
2, 97654, Note_on_c, 0, 86, 66
2, 97774, Note_on_c, 0, 86, 0
2, 97814, Note_on_c, 0, 57, 51
2, 97846, Note_on_c, 0, 89, 102
2, 97962, Note_on_c, 0, 57, 0
2, 98026, Note_on_c, 0, 89, 0
2, 98038, Note_on_c, 0, 86, 64
2, 98154, Note_on_c, 0, 86, 0
2, 98182, Note_on_c, 0, 57, 44
2, 98246, Note_on_c, 0, 57, 0
2, 98290, Note_on_c, 0, 51, 0
2, 98402, Note_on_c, 0, 77, 64
2, 98534, Note_on_c, 0, 77, 0
2, 98582, Note_on_c, 0, 53, 44
2, 98626, Note_on_c, 0, 53, 0
2, 98634, Note_on_c, 0, 54, 62
2, 98658, Note_on_c, 0, 55, 72
2, 98681, Note_on_c, 0, 54, 0
2, 99002, Note_on_c, 0, 43, 74
2, 99486, Note_on_c, 0, 43, 0
2, 99622, Note_on_c, 0, 55, 0
2, 100182, Note_on_c, 0, 86, 118
2, 100190, Note_on_c, 0, 62, 101
2, 100422, Note_on_c, 0, 85, 61
2, 100434, Note_on_c, 0, 86, 0
2, 100522, Note_on_c, 0, 84, 60
2, 100526, Note_on_c, 0, 62, 0
2, 100606, Note_on_c, 0, 85, 0
2, 100626, Note_on_c, 0, 59, 47
2, 100642, Note_on_c, 0, 84, 0
2, 100690, Note_on_c, 0, 83, 55
2, 100702, Note_on_c, 0, 59, 0
2, 100810, Note_on_c, 0, 83, 0
2, 100946, Note_on_c, 0, 89, 109
2, 100954, Note_on_c, 0, 65, 89
2, 101218, Note_on_c, 0, 65, 0
2, 101242, Note_on_c, 0, 89, 0
2, 101330, Note_on_c, 0, 86, 94
2, 101346, Note_on_c, 0, 62, 56
2, 101502, Note_on_c, 0, 86, 0
2, 101570, Note_on_c, 0, 62, 0
2, 101678, Note_on_c, 0, 87, 99
2, 101678, Note_on_c, 0, 63, 72
2, 101818, Note_on_c, 0, 63, 0
2, 101838, Note_on_c, 0, 87, 0
2, 101890, Note_on_c, 0, 83, 51
2, 101934, Note_on_c, 0, 59, 33
2, 102034, Note_on_c, 0, 83, 0
2, 102054, Note_on_c, 0, 59, 0
2, 102094, Note_on_c, 0, 62, 76
2, 102098, Note_on_c, 0, 86, 91
2, 102210, Note_on_c, 0, 62, 0
2, 102246, Note_on_c, 0, 60, 60
2, 102266, Note_on_c, 0, 86, 0
2, 102282, Note_on_c, 0, 84, 67
2, 102402, Note_on_c, 0, 60, 0
2, 102414, Note_on_c, 0, 84, 0
2, 102850, Note_on_c, 0, 79, 85
2, 102850, Note_on_c, 0, 55, 70
2, 102962, Note_on_c, 0, 79, 0
2, 102978, Note_on_c, 0, 55, 0
2, 103030, Note_on_c, 0, 78, 62
2, 103078, Note_on_c, 0, 78, 0
2, 103242, Note_on_c, 0, 52, 53
2, 103250, Note_on_c, 0, 76, 50
2, 103298, Note_on_c, 0, 76, 0
2, 103362, Note_on_c, 0, 52, 0
2, 103386, Note_on_c, 0, 79, 86
2, 103402, Note_on_c, 0, 55, 73
2, 103954, Note_on_c, 0, 79, 0
2, 103962, Note_on_c, 0, 78, 67
2, 103974, Note_on_c, 0, 55, 0
2, 104018, Note_on_c, 0, 77, 70
2, 104094, Note_on_c, 0, 78, 0
2, 104154, Note_on_c, 0, 77, 0
2, 104170, Note_on_c, 0, 52, 47
2, 104174, Note_on_c, 0, 76, 56
2, 104286, Note_on_c, 0, 76, 0
2, 104358, Note_on_c, 0, 52, 0
2, 104382, Note_on_c, 0, 79, 90
2, 104406, Note_on_c, 0, 55, 62
2, 104530, Note_on_c, 0, 79, 0
2, 104546, Note_on_c, 0, 55, 0
2, 104550, Note_on_c, 0, 76, 61
2, 104626, Note_on_c, 0, 52, 44
2, 104678, Note_on_c, 0, 76, 0
2, 104766, Note_on_c, 0, 52, 0
2, 104766, Note_on_c, 0, 77, 87
2, 104814, Note_on_c, 0, 53, 71
2, 104894, Note_on_c, 0, 77, 0
2, 104978, Note_on_c, 0, 53, 0
2, 104986, Note_on_c, 0, 79, 57
2, 105074, Note_on_c, 0, 79, 0
2, 105190, Note_on_c, 0, 80, 88
2, 105194, Note_on_c, 0, 56, 67
2, 105294, Note_on_c, 0, 80, 0
2, 105370, Note_on_c, 0, 82, 73
2, 105414, Note_on_c, 0, 58, 65
2, 105426, Note_on_c, 0, 56, 0
2, 105454, Note_on_c, 0, 82, 0
2, 105530, Note_on_c, 0, 58, 0
2, 105574, Note_on_c, 0, 84, 92
2, 105586, Note_on_c, 0, 60, 68
2, 105622, Note_on_c, 0, 84, 0
2, 105750, Note_on_c, 0, 87, 62
2, 105766, Note_on_c, 0, 63, 58
2, 105786, Note_on_c, 0, 60, 0
2, 105894, Note_on_c, 0, 87, 0
2, 105938, Note_on_c, 0, 63, 0
2, 105946, Note_on_c, 0, 88, 82
2, 105970, Note_on_c, 0, 64, 67
2, 106026, Note_on_c, 0, 88, 0
2, 106074, Note_on_c, 0, 64, 0
2, 106090, Note_on_c, 0, 91, 118
2, 106102, Note_on_c, 0, 67, 62
2, 106142, Note_on_c, 0, 65, 36
2, 106198, Note_on_c, 0, 65, 0
2, 106218, Note_on_c, 0, 67, 0
2, 106246, Note_on_c, 0, 91, 0
2, 106298, Note_on_c, 0, 64, 55
2, 106330, Note_on_c, 0, 88, 80
2, 106426, Note_on_c, 0, 88, 0
2, 106426, Note_on_c, 0, 64, 0
2, 106466, Note_on_c, 0, 65, 67
2, 106498, Note_on_c, 0, 89, 98
2, 106622, Note_on_c, 0, 65, 0
2, 106638, Note_on_c, 0, 89, 0
2, 106694, Note_on_c, 0, 84, 79
2, 106714, Note_on_c, 0, 60, 50
2, 106798, Note_on_c, 0, 60, 0
2, 106806, Note_on_c, 0, 84, 0
2, 106854, Note_on_c, 0, 80, 41
2, 106994, Note_on_c, 0, 80, 0
2, 107058, Note_on_c, 0, 79, 51
2, 107062, Note_on_c, 0, 53, 60
2, 107110, Note_on_c, 0, 79, 0
2, 107166, Note_on_c, 0, 53, 0
2, 107202, Note_on_c, 0, 82, 90
2, 107242, Note_on_c, 0, 58, 77
2, 107358, Note_on_c, 0, 82, 0
2, 107414, Note_on_c, 0, 58, 0
2, 107458, Note_on_c, 0, 79, 40
2, 107502, Note_on_c, 0, 79, 0
2, 107590, Note_on_c, 0, 54, 56
2, 107598, Note_on_c, 0, 80, 81
2, 107614, Note_on_c, 0, 56, 50
2, 107718, Note_on_c, 0, 54, 0
2, 107722, Note_on_c, 0, 56, 0
2, 107758, Note_on_c, 0, 80, 0
2, 107822, Note_on_c, 0, 56, 60
2, 107838, Note_on_c, 0, 79, 94
2, 107858, Note_on_c, 0, 56, 0
2, 107878, Note_on_c, 0, 55, 70
2, 108026, Note_on_c, 0, 79, 0
2, 108098, Note_on_c, 0, 80, 51
2, 108158, Note_on_c, 0, 79, 70
2, 108186, Note_on_c, 0, 56, 43
2, 108206, Note_on_c, 0, 80, 0
2, 108242, Note_on_c, 0, 56, 0
2, 108262, Note_on_c, 0, 79, 0
2, 108262, Note_on_c, 0, 77, 74
2, 108298, Note_on_c, 0, 55, 0
2, 108306, Note_on_c, 0, 77, 0
2, 108390, Note_on_c, 0, 76, 66
2, 108402, Note_on_c, 0, 52, 51
2, 108610, Note_on_c, 0, 76, 0
2, 108622, Note_on_c, 0, 52, 0
2, 108646, Note_on_c, 0, 79, 90
2, 108650, Note_on_c, 0, 55, 70
2, 108806, Note_on_c, 0, 53, 52
2, 108814, Note_on_c, 0, 55, 0
2, 108814, Note_on_c, 0, 77, 64
2, 108842, Note_on_c, 0, 79, 0
2, 108854, Note_on_c, 0, 53, 0
2, 108962, Note_on_c, 0, 77, 0
2, 109046, Note_on_c, 0, 72, 77
2, 109158, Note_on_c, 0, 72, 0
2, 109322, Note_on_c, 0, 68, 83
2, 109326, Note_on_c, 0, 46, 54
2, 109378, Note_on_c, 0, 68, 0
2, 109442, Note_on_c, 0, 46, 0
2, 109522, Note_on_c, 0, 73, 61
2, 109534, Note_on_c, 0, 50, 74
2, 109562, Note_on_c, 0, 73, 0
2, 109578, Note_on_c, 0, 74, 79
2, 109834, Note_on_c, 0, 74, 0
2, 109858, Note_on_c, 0, 50, 0
2, 109898, Note_on_c, 0, 47, 55
2, 109910, Note_on_c, 0, 71, 49
2, 110070, Note_on_c, 0, 71, 0
2, 110110, Note_on_c, 0, 47, 0
2, 110142, Note_on_c, 0, 72, 70
2, 110154, Note_on_c, 0, 48, 64
2, 110410, Note_on_c, 0, 72, 0
2, 110454, Note_on_c, 0, 48, 0
2, 110510, Note_on_c, 0, 67, 60
2, 110530, Note_on_c, 0, 43, 42
2, 110614, Note_on_c, 0, 67, 0
2, 110702, Note_on_c, 0, 43, 0
2, 111854, Note_on_c, 0, 65, 50
2, 112010, Note_on_c, 0, 65, 0
2, 112078, Note_on_c, 0, 66, 65
2, 112182, Note_on_c, 0, 66, 0
2, 112238, Note_on_c, 0, 68, 63
2, 112398, Note_on_c, 0, 68, 0
2, 112458, Note_on_c, 0, 70, 75
2, 112478, Note_on_c, 0, 54, 51
2, 112478, Note_on_c, 0, 65, 58
2, 112498, Note_on_c, 0, 58, 50
2, 112502, Note_on_c, 0, 61, 48
2, 112558, Note_on_c, 0, 70, 0
2, 112678, Note_on_c, 0, 72, 52
2, 112734, Note_on_c, 0, 72, 0
2, 112850, Note_on_c, 0, 73, 61
2, 112858, Note_on_c, 0, 65, 0
2, 112862, Note_on_c, 0, 54, 0
2, 112890, Note_on_c, 0, 73, 0
2, 112922, Note_on_c, 0, 58, 0
2, 112946, Note_on_c, 0, 61, 0
2, 113014, Note_on_c, 0, 75, 60
2, 113050, Note_on_c, 0, 75, 0
2, 113210, Note_on_c, 0, 77, 77
2, 113250, Note_on_c, 0, 77, 0
2, 113250, Note_on_c, 0, 61, 42
2, 113306, Note_on_c, 0, 61, 0
2, 113382, Note_on_c, 0, 78, 68
2, 113422, Note_on_c, 0, 78, 0
2, 113578, Note_on_c, 0, 80, 76
2, 113618, Note_on_c, 0, 80, 0
2, 113774, Note_on_c, 0, 82, 61
2, 113814, Note_on_c, 0, 82, 0
2, 113964, Note_on_c, 0, 84, 63
2, 114002, Note_on_c, 0, 84, 0
2, 114006, Note_on_c, 0, 54, 51
2, 114014, Note_on_c, 0, 64, 42
2, 114066, Note_on_c, 0, 54, 0
2, 114074, Note_on_c, 0, 64, 0
2, 114130, Note_on_c, 0, 85, 67
2, 114170, Note_on_c, 0, 85, 0
2, 114374, Note_on_c, 0, 60, 32
2, 114422, Note_on_c, 0, 60, 0
2, 114542, Note_on_c, 0, 64, 56
2, 114542, Note_on_c, 0, 87, 76
2, 114542, Note_on_c, 0, 60, 51
2, 114546, Note_on_c, 0, 54, 46
2, 114590, Note_on_c, 0, 60, 0
2, 114590, Note_on_c, 0, 64, 0
2, 114602, Note_on_c, 0, 87, 0
2, 114610, Note_on_c, 0, 54, 0
2, 114758, Note_on_c, 0, 88, 104
2, 114790, Note_on_c, 0, 54, 69
2, 114790, Note_on_c, 0, 64, 70
2, 114798, Note_on_c, 0, 60, 67
2, 114830, Note_on_c, 0, 54, 0
2, 114834, Note_on_c, 0, 64, 0
2, 114838, Note_on_c, 0, 60, 0
2, 114842, Note_on_c, 0, 88, 0
2, 114942, Note_on_c, 0, 89, 126
2, 114946, Note_on_c, 0, 54, 84
2, 114950, Note_on_c, 0, 64, 91
2, 114958, Note_on_c, 0, 60, 85
2, 115238, Note_on_c, 0, 64, 0
2, 115242, Note_on_c, 0, 89, 0
2, 115254, Note_on_c, 0, 54, 0
2, 115266, Note_on_c, 0, 60, 0
2, 115322, Note_on_c, 0, 84, 80
2, 115338, Note_on_c, 0, 54, 73
2, 115338, Note_on_c, 0, 64, 62
2, 115354, Note_on_c, 0, 60, 72
2, 115442, Note_on_c, 0, 64, 0
2, 115454, Note_on_c, 0, 84, 0
2, 115514, Note_on_c, 0, 54, 0
2, 115538, Note_on_c, 0, 60, 0
2, 115582, Note_on_c, 0, 80, 71
2, 115594, Note_on_c, 0, 60, 47
2, 115610, Note_on_c, 0, 63, 69
2, 115662, Note_on_c, 0, 63, 0
2, 115666, Note_on_c, 0, 80, 0
2, 115802, Note_on_c, 0, 63, 55
2, 115806, Note_on_c, 0, 79, 56
2, 115814, Note_on_c, 0, 53, 1
2, 115834, Note_on_c, 0, 56, 19
2, 115854, Note_on_c, 0, 63, 0
2, 115914, Note_on_c, 0, 53, 0
2, 115978, Note_on_c, 0, 79, 0
2, 115990, Note_on_c, 0, 60, 0
2, 116070, Note_on_c, 0, 87, 89
2, 116086, Note_on_c, 0, 56, 0
2, 116194, Note_on_c, 0, 87, 0
2, 116294, Note_on_c, 0, 63, 63
2, 116314, Note_on_c, 0, 84, 66
2, 116322, Note_on_c, 0, 60, 49
2, 116338, Note_on_c, 0, 56, 50
2, 116358, Note_on_c, 0, 53, 32
2, 116402, Note_on_c, 0, 60, 0
2, 116402, Note_on_c, 0, 63, 0
2, 116418, Note_on_c, 0, 53, 0
2, 116422, Note_on_c, 0, 84, 0
2, 116490, Note_on_c, 0, 56, 0
2, 116646, Note_on_c, 0, 80, 69
2, 116774, Note_on_c, 0, 80, 0
2, 116838, Note_on_c, 0, 77, 61
2, 116894, Note_on_c, 0, 77, 0
2, 117198, Note_on_c, 0, 63, 58
2, 117230, Note_on_c, 0, 60, 52
2, 117234, Note_on_c, 0, 56, 51
2, 117282, Note_on_c, 0, 60, 0
2, 117306, Note_on_c, 0, 63, 0
2, 117474, Note_on_c, 0, 56, 0
2, 117834, Note_on_c, 0, 63, 73
2, 117846, Note_on_c, 0, 60, 65
2, 117870, Note_on_c, 0, 63, 0
2, 117882, Note_on_c, 0, 56, 40
2, 117894, Note_on_c, 0, 60, 0
2, 117954, Note_on_c, 0, 56, 0
2, 117974, Note_on_c, 0, 91, 126
2, 118150, Note_on_c, 0, 91, 0
2, 118214, Note_on_c, 0, 89, 82
2, 118354, Note_on_c, 0, 84, 58
2, 118366, Note_on_c, 0, 89, 0
2, 118542, Note_on_c, 0, 84, 0
2, 118582, Note_on_c, 0, 80, 70
2, 118622, Note_on_c, 0, 65, 51
2, 118634, Note_on_c, 0, 55, 49
2, 118634, Note_on_c, 0, 60, 56
2, 118638, Note_on_c, 0, 56, 44
2, 118754, Note_on_c, 0, 80, 0
2, 118791, Note_on_c, 0, 79, 55
2, 118882, Note_on_c, 0, 65, 0
2, 118906, Note_on_c, 0, 79, 0
2, 118910, Note_on_c, 0, 55, 0
2, 118946, Note_on_c, 0, 56, 0
2, 118966, Note_on_c, 0, 60, 0
2, 119382, Note_on_c, 0, 65, 60
2, 119398, Note_on_c, 0, 56, 50
2, 119414, Note_on_c, 0, 55, 42
2, 119418, Note_on_c, 0, 60, 53
2, 119778, Note_on_c, 0, 55, 0
2, 119814, Note_on_c, 0, 65, 0
2, 119830, Note_on_c, 0, 60, 0
2, 119902, Note_on_c, 0, 56, 0
2, 120082, Note_on_c, 0, 63, 61
2, 120130, Note_on_c, 0, 59, 47
2, 120158, Note_on_c, 0, 53, 35
2, 120270, Note_on_c, 0, 82, 60
2, 120274, Note_on_c, 0, 71, 51
2, 120274, Note_on_c, 0, 75, 60
2, 120314, Note_on_c, 0, 82, 0
2, 120314, Note_on_c, 0, 53, 0
2, 120334, Note_on_c, 0, 75, 0
2, 120338, Note_on_c, 0, 71, 0
2, 120342, Note_on_c, 0, 59, 0
2, 120354, Note_on_c, 0, 63, 0
2, 120582, Note_on_c, 0, 82, 90
2, 120586, Note_on_c, 0, 63, 64
2, 120602, Note_on_c, 0, 71, 64
2, 120602, Note_on_c, 0, 75, 69
2, 120618, Note_on_c, 0, 59, 57
2, 120630, Note_on_c, 0, 53, 48
2, 120762, Note_on_c, 0, 53, 0
2, 120802, Note_on_c, 0, 82, 0
2, 120802, Note_on_c, 0, 71, 0
2, 120818, Note_on_c, 0, 75, 0
2, 120826, Note_on_c, 0, 63, 0
2, 120838, Note_on_c, 0, 59, 0
2, 120886, Note_on_c, 0, 82, 72
2, 120902, Note_on_c, 0, 63, 60
2, 120914, Note_on_c, 0, 71, 47
2, 120914, Note_on_c, 0, 75, 66
2, 120926, Note_on_c, 0, 59, 50
2, 120994, Note_on_c, 0, 82, 0
2, 121002, Note_on_c, 0, 75, 0
2, 121002, Note_on_c, 0, 71, 0
2, 121030, Note_on_c, 0, 63, 0
2, 121062, Note_on_c, 0, 59, 0
2, 121190, Note_on_c, 0, 82, 76
2, 121194, Note_on_c, 0, 75, 73
2, 121206, Note_on_c, 0, 63, 64
2, 121214, Note_on_c, 0, 59, 61
2, 121214, Note_on_c, 0, 71, 52
2, 121226, Note_on_c, 0, 53, 51
2, 121286, Note_on_c, 0, 71, 0
2, 121326, Note_on_c, 0, 82, 0
2, 121330, Note_on_c, 0, 75, 0
2, 121334, Note_on_c, 0, 63, 0
2, 121338, Note_on_c, 0, 53, 0
2, 121422, Note_on_c, 0, 59, 0
2, 121470, Note_on_c, 0, 63, 63
2, 121486, Note_on_c, 0, 53, 48
2, 121490, Note_on_c, 0, 82, 68
2, 121498, Note_on_c, 0, 75, 70
2, 121534, Note_on_c, 0, 82, 0
2, 121546, Note_on_c, 0, 53, 0
2, 121586, Note_on_c, 0, 63, 0
2, 121626, Note_on_c, 0, 75, 0
2, 121738, Note_on_c, 0, 51, 75
2, 121746, Note_on_c, 0, 82, 76
2, 121750, Note_on_c, 0, 62, 70
2, 121754, Note_on_c, 0, 75, 58
2, 121778, Note_on_c, 0, 71, 52
2, 121786, Note_on_c, 0, 57, 60
2, 122450, Note_on_c, 0, 71, 0
2, 122482, Note_on_c, 0, 62, 0
2, 122502, Note_on_c, 0, 51, 0
2, 122506, Note_on_c, 0, 75, 0
2, 122518, Note_on_c, 0, 82, 0
2, 122541, Note_on_c, 0, 57, 0
2, 122598, Note_on_c, 0, 51, 68
2, 122602, Note_on_c, 0, 72, 63
2, 122610, Note_on_c, 0, 62, 55
2, 122618, Note_on_c, 0, 57, 45
2, 122618, Note_on_c, 0, 84, 60
2, 122782, Note_on_c, 0, 62, 0
2, 122802, Note_on_c, 0, 57, 0
2, 122894, Note_on_c, 0, 51, 0
2, 122966, Note_on_c, 0, 84, 0
2, 123006, Note_on_c, 0, 55, 98
2, 123006, Note_on_c, 0, 54, 81
2, 123018, Note_on_c, 0, 72, 0
2, 123146, Note_on_c, 0, 54, 0
2, 123598, Note_on_c, 0, 43, 80
2, 123690, Control_c, 0, 64, 127
2, 123702, Note_on_c, 0, 43, 0
2, 123758, Note_on_c, 0, 55, 0
2, 124094, Note_on_c, 0, 91, 97
2, 124094, Note_on_c, 0, 87, 93
2, 124098, Note_on_c, 0, 63, 98
2, 124102, Note_on_c, 0, 79, 90
2, 124110, Note_on_c, 0, 56, 54
2, 124110, Note_on_c, 0, 59, 82
2, 124110, Note_on_c, 0, 53, 76
2, 124142, Control_c, 0, 64, 0
2, 124406, Control_c, 0, 64, 127
2, 124454, Note_on_c, 0, 59, 0
2, 124510, Note_on_c, 0, 53, 0
2, 124514, Note_on_c, 0, 91, 0
2, 124530, Note_on_c, 0, 79, 0
2, 124550, Note_on_c, 0, 87, 0
2, 124582, Note_on_c, 0, 63, 0
2, 124622, Note_on_c, 0, 56, 0
2, 124738, Note_on_c, 0, 87, 94
2, 124742, Note_on_c, 0, 75, 97
2, 124754, Note_on_c, 0, 62, 88
2, 124762, Note_on_c, 0, 51, 71
2, 124766, Control_c, 0, 64, 0
2, 124766, Note_on_c, 0, 57, 73
2, 124798, Note_on_c, 0, 55, 64
2, 125222, Control_c, 0, 64, 127
2, 125394, Note_on_c, 0, 57, 0
2, 125398, Note_on_c, 0, 87, 0
2, 125406, Note_on_c, 0, 55, 0
2, 125410, Note_on_c, 0, 62, 0
2, 125422, Note_on_c, 0, 75, 0
2, 125454, Note_on_c, 0, 51, 0
2, 125614, Control_c, 0, 64, 0
2, 125678, Note_on_c, 0, 62, 66
2, 125678, Note_on_c, 0, 51, 57
2, 125686, Note_on_c, 0, 86, 72
2, 125690, Note_on_c, 0, 74, 62
2, 125698, Note_on_c, 0, 81, 64
2, 125702, Note_on_c, 0, 57, 62
2, 125714, Note_on_c, 0, 55, 56
2, 125978, Note_on_c, 0, 81, 0
2, 125978, Control_c, 0, 64, 127
2, 125998, Note_on_c, 0, 86, 0
2, 126010, Note_on_c, 0, 57, 0
2, 126018, Note_on_c, 0, 55, 0
2, 126042, Note_on_c, 0, 62, 0
2, 126066, Note_on_c, 0, 51, 0
2, 126094, Note_on_c, 0, 74, 0
2, 126194, Control_c, 0, 64, 0
2, 126270, Note_on_c, 0, 84, 62
2, 126270, Note_on_c, 0, 62, 61
2, 126282, Note_on_c, 0, 72, 50
2, 126294, Note_on_c, 0, 51, 42
2, 126294, Note_on_c, 0, 79, 63
2, 126294, Note_on_c, 0, 57, 56
2, 126334, Note_on_c, 0, 55, 45
2, 126734, Control_c, 0, 64, 127
2, 126778, Note_on_c, 0, 84, 0
2, 126794, Note_on_c, 0, 57, 0
2, 126806, Note_on_c, 0, 79, 0
2, 126814, Note_on_c, 0, 55, 0
2, 126838, Note_on_c, 0, 62, 0
2, 126846, Note_on_c, 0, 72, 0
2, 126858, Note_on_c, 0, 51, 0
2, 127146, Control_c, 0, 64, 0
2, 127156, Note_on_c, 0, 82, 97
2, 127166, Note_on_c, 0, 70, 80
2, 127166, Note_on_c, 0, 75, 83
2, 127174, Note_on_c, 0, 62, 80
2, 127174, Note_on_c, 0, 51, 70
2, 127186, Note_on_c, 0, 57, 64
2, 127198, Note_on_c, 0, 55, 56
2, 127406, Control_c, 0, 64, 104
2, 127410, Control_c, 0, 64, 127
2, 127430, Note_on_c, 0, 57, 0
2, 127438, Note_on_c, 0, 55, 0
2, 127494, Note_on_c, 0, 51, 0
2, 127510, Note_on_c, 0, 82, 0
2, 127534, Note_on_c, 0, 62, 0
2, 127546, Note_on_c, 0, 70, 0
2, 127586, Note_on_c, 0, 75, 0
2, 127722, Control_c, 0, 64, 0
2, 127770, Note_on_c, 0, 80, 81
2, 127782, Note_on_c, 0, 68, 80
2, 127786, Note_on_c, 0, 75, 80
2, 127794, Note_on_c, 0, 56, 54
2, 127794, Note_on_c, 0, 62, 65
2, 127794, Note_on_c, 0, 60, 60
2, 127794, Note_on_c, 0, 53, 56
2, 128274, Control_c, 0, 64, 127
2, 128358, Note_on_c, 0, 60, 0
2, 128358, Note_on_c, 0, 75, 0
2, 128362, Note_on_c, 0, 80, 0
2, 128374, Note_on_c, 0, 62, 0
2, 128402, Note_on_c, 0, 68, 0
2, 128458, Note_on_c, 0, 56, 0
2, 128542, Note_on_c, 0, 53, 0
2, 128706, Control_c, 0, 64, 0
2, 128710, Note_on_c, 0, 68, 82
2, 128714, Note_on_c, 0, 79, 88
2, 128718, Note_on_c, 0, 72, 70
2, 128718, Note_on_c, 0, 53, 60
2, 128726, Note_on_c, 0, 64, 71
2, 129034, Control_c, 0, 64, 127
2, 129070, Note_on_c, 0, 53, 0
2, 129078, Note_on_c, 0, 64, 0
2, 129114, Note_on_c, 0, 72, 0
2, 129114, Note_on_c, 0, 68, 0
2, 129154, Note_on_c, 0, 79, 0
2, 129262, Control_c, 0, 64, 0
2, 129330, Note_on_c, 0, 63, 72
2, 129338, Note_on_c, 0, 68, 65
2, 129342, Note_on_c, 0, 77, 70
2, 129346, Note_on_c, 0, 53, 60
2, 129346, Note_on_c, 0, 72, 64
2, 129782, Control_c, 0, 64, 127
2, 129786, Note_on_c, 0, 53, 0
2, 129826, Note_on_c, 0, 77, 0
2, 129826, Note_on_c, 0, 63, 0
2, 129834, Note_on_c, 0, 68, 0
2, 129838, Note_on_c, 0, 72, 0
2, 130238, Note_on_c, 0, 77, 76
2, 130254, Note_on_c, 0, 53, 60
2, 130254, Note_on_c, 0, 62, 56
2, 130258, Control_c, 0, 64, 0
2, 130262, Note_on_c, 0, 65, 56
2, 130306, Note_on_c, 0, 72, 38
2, 130522, Note_on_c, 0, 77, 0
2, 130546, Note_on_c, 0, 62, 0
2, 130558, Control_c, 0, 64, 127
2, 130566, Note_on_c, 0, 53, 0
2, 130610, Note_on_c, 0, 72, 0
2, 130614, Note_on_c, 0, 65, 0
2, 130862, Note_on_c, 0, 75, 48
2, 130882, Note_on_c, 0, 63, 43
2, 130894, Note_on_c, 0, 50, 51
2, 130898, Note_on_c, 0, 68, 54
2, 130902, Note_on_c, 0, 56, 55
2, 130902, Note_on_c, 0, 60, 43
2, 130918, Note_on_c, 0, 72, 50
2, 130994, Control_c, 0, 64, 0
2, 131378, Note_on_c, 0, 72, 0
2, 131438, Note_on_c, 0, 63, 0
2, 131506, Note_on_c, 0, 75, 0
2, 131550, Note_on_c, 0, 60, 0
2, 131582, Note_on_c, 0, 68, 0
2, 131606, Note_on_c, 0, 50, 0
2, 131622, Note_on_c, 0, 56, 0
2, 131778, Note_on_c, 0, 50, 41
2, 131786, Note_on_c, 0, 74, 67
2, 131794, Note_on_c, 0, 68, 58
2, 131798, Note_on_c, 0, 60, 46
2, 131802, Note_on_c, 0, 56, 49
2, 131902, Note_on_c, 0, 60, 0
2, 131930, Note_on_c, 0, 68, 0
2, 131958, Note_on_c, 0, 74, 0
2, 131970, Note_on_c, 0, 50, 0
2, 131974, Note_on_c, 0, 56, 0
2, 132178, Note_on_c, 0, 68, 62
2, 132190, Note_on_c, 0, 72, 55
2, 132198, Note_on_c, 0, 56, 52
2, 132210, Note_on_c, 0, 62, 33
2, 132238, Note_on_c, 0, 50, 25
2, 132262, Note_on_c, 0, 72, 0
2, 132298, Note_on_c, 0, 68, 0
2, 132314, Note_on_c, 0, 62, 0
2, 132322, Note_on_c, 0, 56, 0
2, 132414, Note_on_c, 0, 50, 0
2, 132574, Note_on_c, 0, 60, 68
2, 132578, Note_on_c, 0, 70, 62
2, 132586, Note_on_c, 0, 55, 63
2, 132594, Note_on_c, 0, 65, 58
2, 132738, Note_on_c, 0, 70, 0
2, 132790, Note_on_c, 0, 60, 0
2, 132798, Note_on_c, 0, 65, 0
2, 132810, Note_on_c, 0, 55, 0
2, 132970, Note_on_c, 0, 68, 55
2, 132986, Note_on_c, 0, 59, 55
2, 132994, Note_on_c, 0, 43, 53
2, 132994, Note_on_c, 0, 63, 62
2, 132994, Note_on_c, 0, 53, 46
2, 133158, Note_on_c, 0, 53, 0
2, 133170, Note_on_c, 0, 68, 0
2, 133202, Note_on_c, 0, 59, 0
2, 133214, Note_on_c, 0, 63, 0
2, 133374, Note_on_c, 0, 67, 70
2, 133374, Note_on_c, 0, 53, 57
2, 133390, Note_on_c, 0, 59, 57
2, 133398, Note_on_c, 0, 63, 55
2, 133502, Note_on_c, 0, 59, 0
2, 133530, Note_on_c, 0, 63, 0
2, 133558, Note_on_c, 0, 67, 0
2, 133594, Note_on_c, 0, 53, 0
2, 133630, Note_on_c, 0, 43, 0
2, 133630, Note_on_c, 0, 65, 58
2, 133650, Note_on_c, 0, 50, 53
2, 133702, Note_on_c, 0, 50, 0
2, 133722, Note_on_c, 0, 65, 0
2, 133978, Note_on_c, 0, 55, 70
2, 133982, Note_on_c, 0, 58, 67
2, 133986, Note_on_c, 0, 65, 68
2, 133986, Note_on_c, 0, 62, 64
2, 134130, Note_on_c, 0, 58, 0
2, 134142, Note_on_c, 0, 62, 0
2, 134150, Note_on_c, 0, 65, 0
2, 134162, Note_on_c, 0, 55, 0
2, 134362, Note_on_c, 0, 58, 61
2, 134370, Note_on_c, 0, 62, 63
2, 134374, Note_on_c, 0, 65, 59
2, 134386, Note_on_c, 0, 55, 49
2, 134398, Note_on_c, 0, 53, 62
2, 134438, Note_on_c, 0, 53, 0
2, 134466, Note_on_c, 0, 55, 0
2, 134494, Note_on_c, 0, 62, 0
2, 134514, Note_on_c, 0, 58, 0
2, 134518, Note_on_c, 0, 65, 0
2, 134734, Note_on_c, 0, 51, 55
2, 134802, Note_on_c, 0, 52, 44
2, 134862, Note_on_c, 0, 52, 0
2, 134870, Note_on_c, 0, 51, 0
2, 134870, Note_on_c, 0, 65, 68
2, 134878, Note_on_c, 0, 58, 61
2, 134886, Note_on_c, 0, 55, 62
2, 134886, Note_on_c, 0, 53, 63
2, 134910, Note_on_c, 0, 62, 50
2, 135022, Note_on_c, 0, 62, 0
2, 135122, Note_on_c, 0, 55, 0
2, 135166, Note_on_c, 0, 65, 0
2, 135194, Note_on_c, 0, 58, 0
2, 135194, Note_on_c, 0, 53, 0
2, 135238, Note_on_c, 0, 50, 48
2, 135262, Note_on_c, 0, 62, 39
2, 135386, Note_on_c, 0, 62, 0
2, 135450, Note_on_c, 0, 50, 0
2, 135494, Note_on_c, 0, 63, 58
2, 135502, Note_on_c, 0, 58, 46
2, 135510, Note_on_c, 0, 51, 53
2, 135514, Note_on_c, 0, 55, 40
2, 136410, Note_on_c, 0, 55, 0
2, 136442, Control_c, 0, 64, 127
2, 136506, Note_on_c, 0, 58, 0
2, 136514, Note_on_c, 0, 51, 0
2, 136598, Note_on_c, 0, 63, 0
2, 137166, Note_on_c, 0, 54, 46
2, 137182, Control_c, 0, 64, 0
2, 137182, Note_on_c, 0, 65, 43
2, 137182, Note_on_c, 0, 61, 55
2, 137190, Note_on_c, 0, 58, 52
2, 137958, Note_on_c, 0, 65, 0
2, 137958, Note_on_c, 0, 90, 104
2, 137958, Note_on_c, 0, 94, 92
2, 138174, Note_on_c, 0, 94, 0
2, 138206, Note_on_c, 0, 90, 0
2, 138218, Note_on_c, 0, 89, 69
2, 138370, Note_on_c, 0, 89, 0
2, 138418, Note_on_c, 0, 61, 0
2, 138442, Note_on_c, 0, 58, 0
2, 138454, Note_on_c, 0, 54, 0
2, 138566, Note_on_c, 0, 87, 92
2, 138582, Note_on_c, 0, 92, 71
2, 138590, Note_on_c, 0, 61, 64
2, 138614, Note_on_c, 0, 54, 40
2, 138614, Note_on_c, 0, 58, 40
2, 138722, Note_on_c, 0, 54, 0
2, 138730, Note_on_c, 0, 61, 0
2, 138738, Note_on_c, 0, 92, 0
2, 138770, Note_on_c, 0, 87, 0
2, 138846, Note_on_c, 0, 86, 90
2, 139042, Note_on_c, 0, 86, 0
2, 139130, Note_on_c, 0, 58, 0
2, 139134, Note_on_c, 0, 54, 32
2, 139154, Note_on_c, 0, 85, 78
2, 139170, Note_on_c, 0, 89, 64
2, 139178, Note_on_c, 0, 60, 41
2, 139238, Note_on_c, 0, 60, 0
2, 139274, Note_on_c, 0, 54, 0
2, 139358, Note_on_c, 0, 89, 0
2, 139374, Note_on_c, 0, 85, 0
2, 139382, Note_on_c, 0, 84, 62
2, 139398, Note_on_c, 0, 60, 40
2, 139474, Note_on_c, 0, 60, 0
2, 139518, Note_on_c, 0, 84, 0
2, 139698, Note_on_c, 0, 83, 90
2, 139706, Note_on_c, 0, 87, 73
2, 139714, Note_on_c, 0, 54, 49
2, 139718, Note_on_c, 0, 64, 54
2, 139718, Note_on_c, 0, 60, 54
2, 139806, Note_on_c, 0, 64, 0
2, 139858, Note_on_c, 0, 87, 0
2, 139898, Note_on_c, 0, 54, 0
2, 139910, Note_on_c, 0, 60, 0
2, 140046, Note_on_c, 0, 54, 58
2, 140078, Note_on_c, 0, 60, 46
2, 140082, Note_on_c, 0, 83, 0
2, 140182, Note_on_c, 0, 60, 0
2, 140206, Note_on_c, 0, 82, 79
2, 140222, Note_on_c, 0, 85, 66
2, 140254, Note_on_c, 0, 54, 0
2, 140406, Note_on_c, 0, 85, 0
2, 140430, Note_on_c, 0, 82, 0
2, 140454, Note_on_c, 0, 81, 69
2, 140474, Note_on_c, 0, 63, 62
2, 140486, Note_on_c, 0, 60, 59
2, 140498, Note_on_c, 0, 56, 53
2, 140554, Note_on_c, 0, 81, 0
2, 140582, Note_on_c, 0, 63, 0
2, 140638, Note_on_c, 0, 60, 0
2, 140682, Note_on_c, 0, 56, 0
2, 140806, Note_on_c, 0, 80, 69
2, 140822, Note_on_c, 0, 60, 26
2, 140826, Note_on_c, 0, 84, 61
2, 140934, Note_on_c, 0, 60, 0
2, 140974, Note_on_c, 0, 84, 0
2, 141014, Note_on_c, 0, 80, 0
2, 141034, Note_on_c, 0, 79, 39
2, 141186, Note_on_c, 0, 63, 67
2, 141202, Note_on_c, 0, 60, 51
2, 141218, Note_on_c, 0, 79, 0
2, 141226, Note_on_c, 0, 63, 0
2, 141230, Note_on_c, 0, 56, 48
2, 141354, Note_on_c, 0, 78, 75
2, 141366, Note_on_c, 0, 82, 68
2, 141378, Note_on_c, 0, 60, 0
2, 141458, Note_on_c, 0, 56, 0
2, 141554, Note_on_c, 0, 82, 0
2, 141594, Note_on_c, 0, 78, 0
2, 141618, Note_on_c, 0, 77, 68
2, 141622, Note_on_c, 0, 60, 43
2, 141710, Note_on_c, 0, 60, 0
2, 141790, Note_on_c, 0, 77, 0
2, 141974, Note_on_c, 0, 77, 76
2, 141978, Note_on_c, 0, 80, 64
2, 141998, Note_on_c, 0, 60, 62
2, 142018, Note_on_c, 0, 56, 47
2, 142150, Note_on_c, 0, 77, 0
2, 142158, Note_on_c, 0, 80, 0
2, 142166, Note_on_c, 0, 60, 0
2, 142174, Note_on_c, 0, 76, 55
2, 142214, Note_on_c, 0, 56, 0
2, 142330, Note_on_c, 0, 76, 0
2, 142386, Note_on_c, 0, 78, 78
2, 142386, Note_on_c, 0, 75, 81
2, 142386, Note_on_c, 0, 60, 53
2, 142426, Note_on_c, 0, 56, 30
2, 142494, Note_on_c, 0, 60, 0
2, 142530, Note_on_c, 0, 56, 0
2, 142554, Note_on_c, 0, 78, 0
2, 142586, Note_on_c, 0, 75, 0
2, 142754, Note_on_c, 0, 73, 76
2, 142754, Note_on_c, 0, 63, 63
2, 142770, Note_on_c, 0, 77, 60
2, 142770, Note_on_c, 0, 60, 58
2, 142782, Note_on_c, 0, 78, 49
2, 142810, Note_on_c, 0, 56, 41
2, 142850, Note_on_c, 0, 78, 0
2, 142854, Note_on_c, 0, 63, 0
2, 142890, Note_on_c, 0, 60, 0
2, 142910, Note_on_c, 0, 77, 0
2, 142930, Note_on_c, 0, 56, 0
2, 142970, Note_on_c, 0, 73, 0
2, 143058, Note_on_c, 0, 72, 19
2, 143134, Note_on_c, 0, 60, 71
2, 143134, Note_on_c, 0, 56, 61
2, 143138, Note_on_c, 0, 72, 0
2, 143142, Note_on_c, 0, 50, 65
2, 143198, Note_on_c, 0, 60, 0
2, 143242, Note_on_c, 0, 50, 0
2, 143298, Note_on_c, 0, 56, 0
2, 143322, Note_on_c, 0, 72, 86
2, 143330, Note_on_c, 0, 76, 89
2, 143506, Note_on_c, 0, 76, 0
2, 143538, Note_on_c, 0, 72, 0
2, 143570, Note_on_c, 0, 56, 50
2, 143642, Note_on_c, 0, 56, 0
2, 143714, Note_on_c, 0, 72, 61
2, 143734, Note_on_c, 0, 68, 44
2, 143782, Note_on_c, 0, 68, 0
2, 143878, Note_on_c, 0, 72, 0
2, 143922, Note_on_c, 0, 75, 89
2, 143950, Note_on_c, 0, 60, 43
2, 143954, Note_on_c, 0, 56, 54
2, 144002, Note_on_c, 0, 60, 0
2, 144070, Note_on_c, 0, 75, 0
2, 144094, Note_on_c, 0, 56, 0
2, 144134, Note_on_c, 0, 72, 59
2, 144286, Note_on_c, 0, 72, 0
2, 144310, Note_on_c, 0, 68, 80
2, 144362, Note_on_c, 0, 60, 44
2, 144362, Note_on_c, 0, 56, 55
2, 144382, Note_on_c, 0, 50, 37
2, 144414, Note_on_c, 0, 60, 0
2, 144454, Note_on_c, 0, 68, 0
2, 144458, Note_on_c, 0, 50, 0
2, 144486, Note_on_c, 0, 56, 0
2, 144526, Note_on_c, 0, 67, 34
2, 144630, Note_on_c, 0, 67, 0
2, 144718, Note_on_c, 0, 63, 60
2, 144838, Note_on_c, 0, 50, 33
2, 144850, Note_on_c, 0, 63, 0
2, 144898, Note_on_c, 0, 50, 0
2, 144918, Note_on_c, 0, 62, 27
2, 145042, Note_on_c, 0, 62, 0
2, 145078, Note_on_c, 0, 61, 65
2, 145142, Note_on_c, 0, 43, 51
2, 145146, Note_on_c, 0, 53, 43
2, 145234, Note_on_c, 0, 61, 0
2, 145278, Note_on_c, 0, 60, 45
2, 145390, Note_on_c, 0, 53, 0
2, 145446, Note_on_c, 0, 60, 0
2, 145518, Note_on_c, 0, 59, 48
2, 145526, Note_on_c, 0, 50, 39
2, 145566, Note_on_c, 0, 59, 0
2, 145634, Note_on_c, 0, 62, 91
2, 145654, Note_on_c, 0, 50, 0
2, 145854, Note_on_c, 0, 62, 0
2, 145866, Note_on_c, 0, 59, 46
2, 145882, Note_on_c, 0, 50, 49
2, 145898, Note_on_c, 0, 43, 0
2, 145918, Note_on_c, 0, 59, 0
2, 145934, Note_on_c, 0, 50, 0
2, 146038, Note_on_c, 0, 60, 50
2, 146222, Note_on_c, 0, 60, 0
2, 146262, Note_on_c, 0, 62, 81
2, 146274, Note_on_c, 0, 57, 40
2, 146286, Note_on_c, 0, 55, 52
2, 146306, Note_on_c, 0, 48, 27
2, 146326, Note_on_c, 0, 57, 0
2, 146426, Note_on_c, 0, 55, 0
2, 146438, Note_on_c, 0, 48, 0
2, 146438, Note_on_c, 0, 63, 70
2, 146458, Note_on_c, 0, 62, 0
2, 146605, Note_on_c, 0, 63, 0
2, 146626, Note_on_c, 0, 48, 49
2, 146670, Note_on_c, 0, 62, 64
2, 146718, Note_on_c, 0, 48, 0
2, 146802, Note_on_c, 0, 62, 0
2, 146834, Note_on_c, 0, 60, 46
2, 147018, Note_on_c, 0, 60, 0
2, 147038, Note_on_c, 0, 55, 68
2, 147074, Note_on_c, 0, 55, 0
2, 147198, Note_on_c, 0, 55, 60
2, 147414, Note_on_c, 0, 55, 0
2, 147430, Note_on_c, 0, 43, 50
2, 147478, Note_on_c, 0, 43, 0
2, 147546, Note_on_c, 0, 55, 64
2, 147834, Note_on_c, 0, 55, 0
2, 147922, Note_on_c, 0, 58, 82
2, 148118, Note_on_c, 0, 58, 0
2, 148162, Note_on_c, 0, 59, 66
2, 148222, Note_on_c, 0, 55, 44
2, 148254, Note_on_c, 0, 59, 0
2, 148270, Note_on_c, 0, 55, 0
2, 148330, Note_on_c, 0, 62, 66
2, 148474, Note_on_c, 0, 62, 0
2, 148554, Note_on_c, 0, 59, 47
2, 148610, Note_on_c, 0, 59, 0
2, 148714, Note_on_c, 0, 60, 56
2, 148850, Note_on_c, 0, 60, 0
2, 148922, Note_on_c, 0, 62, 73
2, 149070, Note_on_c, 0, 62, 0
2, 149106, Note_on_c, 0, 63, 55
2, 149182, Note_on_c, 0, 63, 0
2, 149306, Note_on_c, 0, 64, 62
2, 149398, Note_on_c, 0, 63, 58
2, 149406, Note_on_c, 0, 53, 45
2, 149414, Note_on_c, 0, 58, 48
2, 149422, Note_on_c, 0, 64, 0
2, 149458, Note_on_c, 0, 66, 62
2, 149646, Note_on_c, 0, 66, 0
2, 149662, Note_on_c, 0, 68, 66
2, 149770, Note_on_c, 0, 68, 0
2, 149842, Note_on_c, 0, 71, 59
2, 149870, Note_on_c, 0, 53, 0
2, 149934, Note_on_c, 0, 63, 0
2, 150038, Note_on_c, 0, 71, 0
2, 150054, Note_on_c, 0, 58, 0
2, 150070, Note_on_c, 0, 73, 82
2, 150182, Note_on_c, 0, 73, 0
2, 150274, Note_on_c, 0, 76, 70
2, 150434, Note_on_c, 0, 76, 0
2, 150470, Note_on_c, 0, 78, 76
2, 150510, Note_on_c, 0, 78, 0
2, 150510, Note_on_c, 0, 57, 35
2, 150574, Note_on_c, 0, 57, 0
2, 150634, Note_on_c, 0, 80, 67
2, 150710, Note_on_c, 0, 80, 0
2, 150850, Note_on_c, 0, 81, 58
2, 150854, Note_on_c, 0, 57, 55
2, 150942, Note_on_c, 0, 81, 0
2, 150990, Note_on_c, 0, 57, 0
2, 151046, Note_on_c, 0, 82, 40
2, 151158, Note_on_c, 0, 82, 0
2, 151230, Note_on_c, 0, 83, 70
2, 151250, Note_on_c, 0, 57, 51
2, 151326, Note_on_c, 0, 83, 0
2, 151338, Note_on_c, 0, 57, 0
2, 151394, Note_on_c, 0, 86, 120
2, 151594, Note_on_c, 0, 86, 0
2, 151650, Note_on_c, 0, 83, 47
2, 151670, Note_on_c, 0, 62, 38
2, 151670, Note_on_c, 0, 57, 53
2, 151702, Note_on_c, 0, 83, 0
2, 151726, Note_on_c, 0, 62, 0
2, 151774, Note_on_c, 0, 57, 0
2, 151806, Note_on_c, 0, 84, 73
2, 151822, Note_on_c, 0, 83, 80
2, 151938, Note_on_c, 0, 83, 0
2, 151966, Note_on_c, 0, 84, 0
2, 152022, Note_on_c, 0, 79, 72
2, 152042, Note_on_c, 0, 62, 53
2, 152050, Note_on_c, 0, 57, 46
2, 152090, Note_on_c, 0, 62, 0
2, 152106, Note_on_c, 0, 57, 0
2, 152154, Note_on_c, 0, 79, 0
2, 152190, Note_on_c, 0, 77, 62
2, 152345, Note_on_c, 0, 77, 0
2, 152398, Note_on_c, 0, 75, 64
2, 152410, Note_on_c, 0, 62, 47
2, 152434, Note_on_c, 0, 56, 47
2, 152442, Note_on_c, 0, 60, 55
2, 152458, Note_on_c, 0, 53, 48
2, 152566, Note_on_c, 0, 75, 0
2, 152626, Note_on_c, 0, 74, 35
2, 152762, Note_on_c, 0, 74, 0
2, 152922, Note_on_c, 0, 74, 60
2, 153122, Note_on_c, 0, 74, 0
2, 153254, Note_on_c, 0, 60, 0
2, 153254, Note_on_c, 0, 62, 0
2, 153282, Note_on_c, 0, 56, 0
2, 153282, Note_on_c, 0, 53, 0
2, 153522, Note_on_c, 0, 62, 46
2, 153538, Note_on_c, 0, 56, 50
2, 153542, Note_on_c, 0, 60, 56
2, 153578, Note_on_c, 0, 53, 31
2, 153602, Note_on_c, 0, 60, 0
2, 153602, Note_on_c, 0, 62, 0
2, 153642, Note_on_c, 0, 53, 0
2, 153674, Note_on_c, 0, 56, 0
2, 154298, Note_on_c, 0, 56, 52
2, 154298, Note_on_c, 0, 60, 56
2, 154306, Note_on_c, 0, 62, 53
2, 154346, Note_on_c, 0, 62, 0
2, 154358, Note_on_c, 0, 60, 0
2, 154378, Note_on_c, 0, 56, 0
2, 154398, Note_on_c, 0, 91, 76
2, 154438, Note_on_c, 0, 79, 43
2, 154482, Note_on_c, 0, 79, 0
2, 154490, Note_on_c, 0, 91, 0
2, 154550, Note_on_c, 0, 89, 53
2, 154606, Note_on_c, 0, 89, 0
2, 154674, Note_on_c, 0, 91, 111
2, 154690, Note_on_c, 0, 79, 77
2, 154698, Note_on_c, 0, 62, 55
2, 154702, Note_on_c, 0, 56, 51
2, 154710, Note_on_c, 0, 60, 53
2, 154726, Note_on_c, 0, 53, 41
2, 154770, Note_on_c, 0, 62, 0
2, 154854, Note_on_c, 0, 60, 0
2, 154870, Note_on_c, 0, 53, 0
2, 154890, Note_on_c, 0, 56, 0
2, 154978, Note_on_c, 0, 89, 67
2, 154986, Note_on_c, 0, 91, 0
2, 154998, Note_on_c, 0, 79, 0
2, 155067, Note_on_c, 0, 60, 44
2, 155118, Note_on_c, 0, 60, 0
2, 155126, Note_on_c, 0, 89, 0
2, 155134, Note_on_c, 0, 84, 50
2, 155178, Note_on_c, 0, 84, 0
2, 155246, Note_on_c, 0, 89, 80
2, 155406, Note_on_c, 0, 89, 0
2, 155702, Note_on_c, 0, 65, 57
2, 155714, Note_on_c, 0, 56, 52
2, 155722, Note_on_c, 0, 60, 60
2, 155738, Note_on_c, 0, 55, 44
2, 156074, Note_on_c, 0, 60, 0
2, 156082, Note_on_c, 0, 55, 0
2, 156082, Note_on_c, 0, 65, 0
2, 156098, Note_on_c, 0, 56, 0
2, 156370, Note_on_c, 0, 65, 63
2, 156382, Note_on_c, 0, 56, 48
2, 156402, Note_on_c, 0, 55, 51
2, 156414, Note_on_c, 0, 60, 45
2, 156678, Note_on_c, 0, 55, 0
2, 156682, Note_on_c, 0, 65, 0
2, 156722, Note_on_c, 0, 60, 0
2, 156754, Note_on_c, 0, 56, 0
2, 156990, Note_on_c, 0, 63, 64
2, 157014, Note_on_c, 0, 59, 58
2, 157022, Note_on_c, 0, 58, 43
2, 157030, Note_on_c, 0, 53, 55
2, 157198, Note_on_c, 0, 59, 0
2, 157282, Note_on_c, 0, 91, 65
2, 157294, Note_on_c, 0, 63, 0
2, 157306, Note_on_c, 0, 79, 56
2, 157346, Note_on_c, 0, 59, 44
2, 157354, Note_on_c, 0, 79, 0
2, 157382, Note_on_c, 0, 91, 0
2, 157474, Note_on_c, 0, 89, 45
2, 157522, Note_on_c, 0, 89, 0
2, 157526, Note_on_c, 0, 53, 0
2, 157566, Note_on_c, 0, 59, 0
2, 157574, Note_on_c, 0, 58, 0
2, 157574, Note_on_c, 0, 91, 111
2, 157586, Note_on_c, 0, 79, 88
2, 157754, Note_on_c, 0, 91, 0
2, 157770, Note_on_c, 0, 79, 0
2, 157778, Note_on_c, 0, 63, 58
2, 157810, Note_on_c, 0, 59, 51
2, 157830, Note_on_c, 0, 63, 0
2, 157869, Note_on_c, 0, 91, 67
2, 157914, Note_on_c, 0, 79, 45
2, 157970, Note_on_c, 0, 79, 0
2, 157982, Note_on_c, 0, 91, 0
2, 157982, Note_on_c, 0, 59, 0
2, 158010, Note_on_c, 0, 89, 51
2, 158118, Note_on_c, 0, 89, 0
2, 158178, Note_on_c, 0, 91, 101
2, 158186, Note_on_c, 0, 63, 80
2, 158198, Note_on_c, 0, 79, 80
2, 158222, Note_on_c, 0, 59, 57
2, 158238, Note_on_c, 0, 58, 32
2, 158302, Note_on_c, 0, 63, 0
2, 158314, Note_on_c, 0, 59, 0
2, 158338, Note_on_c, 0, 91, 0
2, 158342, Note_on_c, 0, 79, 0
2, 158366, Note_on_c, 0, 58, 0
2, 158454, Note_on_c, 0, 91, 75
2, 158510, Note_on_c, 0, 79, 41
2, 158562, Note_on_c, 0, 79, 0
2, 158582, Note_on_c, 0, 91, 0
2, 158598, Note_on_c, 0, 89, 64
2, 158702, Note_on_c, 0, 89, 0
2, 158718, Note_on_c, 0, 62, 57
2, 158730, Note_on_c, 0, 57, 48
2, 158734, Note_on_c, 0, 51, 54
2, 158754, Note_on_c, 0, 91, 102
2, 158770, Note_on_c, 0, 55, 47
2, 158770, Note_on_c, 0, 79, 79
2, 158902, Note_on_c, 0, 57, 0
2, 158934, Note_on_c, 0, 79, 0
2, 158994, Note_on_c, 0, 91, 0
2, 159046, Note_on_c, 0, 57, 44
2, 159054, Note_on_c, 0, 51, 0
2, 159090, Note_on_c, 0, 62, 0
2, 159110, Note_on_c, 0, 89, 80
2, 159154, Note_on_c, 0, 57, 0
2, 159222, Note_on_c, 0, 55, 0
2, 159298, Note_on_c, 0, 89, 0
2, 159346, Note_on_c, 0, 86, 80
2, 159358, Note_on_c, 0, 62, 60
2, 159370, Note_on_c, 0, 51, 47
2, 159378, Note_on_c, 0, 57, 60
2, 159442, Note_on_c, 0, 86, 0
2, 159454, Note_on_c, 0, 62, 0
2, 159502, Note_on_c, 0, 57, 0
2, 159554, Note_on_c, 0, 89, 82
2, 159718, Note_on_c, 0, 89, 0
2, 159718, Note_on_c, 0, 57, 55
2, 159738, Note_on_c, 0, 51, 0
2, 159822, Note_on_c, 0, 57, 0
2, 159862, Note_on_c, 0, 87, 77
2, 160046, Note_on_c, 0, 87, 0
2, 160106, Note_on_c, 0, 62, 55
2, 160110, Note_on_c, 0, 79, 64
2, 160122, Note_on_c, 0, 51, 35
2, 160154, Note_on_c, 0, 57, 44
2, 160406, Note_on_c, 0, 57, 0
2, 160446, Note_on_c, 0, 62, 0
2, 160486, Note_on_c, 0, 51, 0
2, 160934, Note_on_c, 0, 79, 0
2, 160934, Note_on_c, 0, 62, 60
2, 160942, Note_on_c, 0, 51, 47
2, 160974, Note_on_c, 0, 84, 58
2, 161050, Note_on_c, 0, 62, 0
2, 161078, Note_on_c, 0, 51, 0
2, 161078, Control_c, 0, 64, 127
2, 161178, Note_on_c, 0, 84, 0
2, 161210, Note_on_c, 0, 85, 64
2, 161226, Note_on_c, 0, 62, 45
2, 161238, Note_on_c, 0, 57, 41
2, 161246, Note_on_c, 0, 51, 26
2, 161306, Note_on_c, 0, 62, 0
2, 161350, Note_on_c, 0, 85, 0
2, 161354, Note_on_c, 0, 57, 0
2, 161418, Note_on_c, 0, 86, 83
2, 161422, Note_on_c, 0, 62, 39
2, 161466, Note_on_c, 0, 51, 0
2, 161538, Note_on_c, 0, 62, 0
2, 161582, Note_on_c, 0, 86, 0
2, 161590, Control_c, 0, 64, 0
2, 161658, Note_on_c, 0, 87, 101
2, 161702, Note_on_c, 0, 54, 62
2, 161702, Note_on_c, 0, 58, 64
2, 161710, Note_on_c, 0, 61, 62
2, 161718, Note_on_c, 0, 65, 52
2, 161850, Note_on_c, 0, 65, 0
2, 161866, Note_on_c, 0, 87, 0
2, 161934, Note_on_c, 0, 65, 22
2, 161954, Note_on_c, 0, 89, 105
2, 162066, Control_c, 0, 64, 127
2, 162088, Note_on_c, 0, 65, 0
2, 162130, Note_on_c, 0, 61, 0
2, 162134, Note_on_c, 0, 89, 0
2, 162154, Note_on_c, 0, 58, 0
2, 162234, Note_on_c, 0, 87, 86
2, 162238, Note_on_c, 0, 65, 50
2, 162238, Note_on_c, 0, 61, 56
2, 162254, Note_on_c, 0, 58, 50
2, 162322, Note_on_c, 0, 65, 0
2, 162342, Note_on_c, 0, 54, 0
2, 162358, Note_on_c, 0, 61, 0
2, 162394, Note_on_c, 0, 58, 0
2, 162454, Note_on_c, 0, 87, 0
2, 162458, Control_c, 0, 64, 0
2, 162514, Note_on_c, 0, 85, 76
2, 162518, Note_on_c, 0, 54, 46
2, 162522, Note_on_c, 0, 58, 50
2, 162522, Note_on_c, 0, 61, 57
2, 162538, Note_on_c, 0, 65, 47
2, 162554, Note_on_c, 0, 85, 0
2, 162582, Note_on_c, 0, 84, 53
2, 162886, Control_c, 0, 64, 127
2, 162946, Note_on_c, 0, 65, 0
2, 162970, Note_on_c, 0, 54, 0
2, 163018, Note_on_c, 0, 84, 0
2, 163030, Note_on_c, 0, 61, 0
2, 163114, Note_on_c, 0, 58, 0
2, 163182, Note_on_c, 0, 85, 86
2, 163190, Note_on_c, 0, 58, 38
2, 163198, Note_on_c, 0, 64, 62
2, 163228, Note_on_c, 0, 60, 52
2, 163234, Note_on_c, 0, 54, 36
2, 163238, Control_c, 0, 64, 0
2, 163570, Control_c, 0, 64, 127
2, 163686, Note_on_c, 0, 64, 0
2, 163698, Note_on_c, 0, 60, 0
2, 163702, Note_on_c, 0, 54, 0
2, 163702, Note_on_c, 0, 58, 0
2, 163838, Note_on_c, 0, 85, 0
2, 163914, Note_on_c, 0, 64, 68
2, 163922, Note_on_c, 0, 58, 58
2, 163930, Control_c, 0, 64, 0
2, 163934, Note_on_c, 0, 54, 46
2, 163942, Note_on_c, 0, 60, 57
2, 164298, Note_on_c, 0, 84, 83
2, 164398, Note_on_c, 0, 64, 0
2, 164426, Note_on_c, 0, 58, 0
2, 164466, Note_on_c, 0, 84, 0
2, 164518, Note_on_c, 0, 83, 66
2, 164546, Note_on_c, 0, 54, 0
2, 164622, Note_on_c, 0, 60, 0
2, 164686, Note_on_c, 0, 83, 0
2, 164714, Note_on_c, 0, 82, 95
2, 164738, Note_on_c, 0, 60, 44
2, 164762, Note_on_c, 0, 63, 49
2, 164782, Note_on_c, 0, 53, 38
2, 164794, Note_on_c, 0, 56, 45
2, 164810, Note_on_c, 0, 82, 0
2, 164922, Note_on_c, 0, 80, 68
2, 165046, Note_on_c, 0, 80, 0
2, 165182, Note_on_c, 0, 53, 0
2, 165222, Note_on_c, 0, 80, 78
2, 165246, Note_on_c, 0, 63, 0
2, 165254, Note_on_c, 0, 56, 0
2, 165290, Note_on_c, 0, 60, 0
2, 165462, Note_on_c, 0, 80, 0
2, 165526, Note_on_c, 0, 63, 52
2, 165574, Note_on_c, 0, 60, 46
2, 165574, Note_on_c, 0, 56, 47
2, 165602, Note_on_c, 0, 80, 77
2, 165670, Note_on_c, 0, 63, 0
2, 165810, Note_on_c, 0, 80, 0
2, 165842, Note_on_c, 0, 77, 80
2, 165946, Note_on_c, 0, 77, 0
2, 165998, Note_on_c, 0, 56, 0
2, 166014, Note_on_c, 0, 75, 55
2, 166018, Note_on_c, 0, 60, 0
2, 166214, Note_on_c, 0, 63, 56
2, 166222, Note_on_c, 0, 75, 0
2, 166238, Note_on_c, 0, 60, 47
2, 166242, Note_on_c, 0, 72, 60
2, 166258, Note_on_c, 0, 56, 46
2, 166262, Note_on_c, 0, 63, 0
2, 166314, Note_on_c, 0, 72, 0
2, 166462, Note_on_c, 0, 72, 58
2, 166570, Note_on_c, 0, 60, 0
2, 166574, Note_on_c, 0, 72, 0
2, 166574, Note_on_c, 0, 56, 0
2, 166742, Note_on_c, 0, 60, 47
2, 166762, Note_on_c, 0, 72, 82
2, 166818, Note_on_c, 0, 60, 0
2, 166922, Note_on_c, 0, 72, 0
2, 167022, Note_on_c, 0, 72, 79
2, 167050, Note_on_c, 0, 63, 49
2, 167058, Note_on_c, 0, 60, 50
2, 167094, Note_on_c, 0, 56, 34
2, 167098, Note_on_c, 0, 63, 0
2, 167174, Note_on_c, 0, 72, 0
2, 167202, Note_on_c, 0, 60, 0
2, 167326, Note_on_c, 0, 56, 0
2, 167334, Note_on_c, 0, 70, 80
2, 167478, Note_on_c, 0, 70, 0
2, 167514, Note_on_c, 0, 68, 68
2, 167678, Note_on_c, 0, 68, 0
2, 167746, Note_on_c, 0, 65, 70
2, 167794, Note_on_c, 0, 56, 35
2, 167798, Note_on_c, 0, 60, 50
2, 167810, Note_on_c, 0, 65, 0
2, 167858, Note_on_c, 0, 55, 23
2, 167914, Note_on_c, 0, 67, 76
2, 167942, Note_on_c, 0, 60, 0
2, 167946, Note_on_c, 0, 55, 0
2, 167954, Note_on_c, 0, 56, 0
2, 168110, Note_on_c, 0, 67, 0
2, 168186, Note_on_c, 0, 60, 36
2, 168258, Note_on_c, 0, 67, 88
2, 168274, Note_on_c, 0, 60, 0
2, 168426, Note_on_c, 0, 67, 0
2, 168518, Note_on_c, 0, 67, 82
2, 168526, Note_on_c, 0, 65, 41
2, 168542, Note_on_c, 0, 56, 41
2, 168550, Note_on_c, 0, 60, 46
2, 168578, Note_on_c, 0, 65, 0
2, 168650, Note_on_c, 0, 56, 0
2, 168662, Note_on_c, 0, 60, 0
2, 168750, Note_on_c, 0, 67, 0
2, 168854, Note_on_c, 0, 68, 80
2, 168894, Note_on_c, 0, 65, 52
2, 168922, Note_on_c, 0, 60, 48
2, 168934, Note_on_c, 0, 65, 0
2, 168978, Note_on_c, 0, 68, 0
2, 168982, Note_on_c, 0, 60, 0
2, 169018, Note_on_c, 0, 67, 57
2, 169194, Note_on_c, 0, 67, 0
2, 169226, Note_on_c, 0, 65, 76
2, 169258, Note_on_c, 0, 59, 55
2, 169334, Note_on_c, 0, 65, 0
2, 169422, Note_on_c, 0, 53, 20
2, 169422, Note_on_c, 0, 63, 45
2, 169430, Note_on_c, 0, 59, 0
2, 169514, Note_on_c, 0, 59, 34
2, 169594, Note_on_c, 0, 53, 0
2, 169642, Note_on_c, 0, 63, 0
2, 169654, Note_on_c, 0, 59, 0
2, 169786, Note_on_c, 0, 63, 73
2, 170006, Note_on_c, 0, 63, 0
2, 170018, Note_on_c, 0, 58, 38
2, 170046, Note_on_c, 0, 59, 34
2, 170146, Note_on_c, 0, 59, 0
2, 170166, Note_on_c, 0, 63, 64
2, 170190, Note_on_c, 0, 58, 0
2, 170358, Note_on_c, 0, 63, 0
2, 170398, Note_on_c, 0, 62, 65
2, 170426, Note_on_c, 0, 58, 43
2, 170482, Note_on_c, 0, 58, 0
2, 170490, Note_on_c, 0, 62, 0
2, 170566, Note_on_c, 0, 60, 56
2, 170758, Note_on_c, 0, 60, 0
2, 170810, Note_on_c, 0, 59, 51
2, 170826, Note_on_c, 0, 57, 46
2, 170842, Note_on_c, 0, 51, 41
2, 170874, Note_on_c, 0, 59, 0
2, 170906, Note_on_c, 0, 51, 0
2, 170938, Note_on_c, 0, 57, 0
2, 170966, Note_on_c, 0, 62, 72
2, 171146, Note_on_c, 0, 62, 0
2, 171198, Note_on_c, 0, 59, 55
2, 171246, Note_on_c, 0, 57, 25
2, 171258, Note_on_c, 0, 59, 0
2, 171350, Note_on_c, 0, 57, 0
2, 171374, Note_on_c, 0, 60, 56
2, 171526, Note_on_c, 0, 60, 0
2, 171594, Note_on_c, 0, 62, 76
2, 171722, Note_on_c, 0, 62, 0
2, 171786, Note_on_c, 0, 63, 55
2, 171902, Note_on_c, 0, 63, 0
2, 171962, Note_on_c, 0, 51, 42
2, 171970, Note_on_c, 0, 57, 44
2, 171986, Note_on_c, 0, 67, 69
2, 172022, Note_on_c, 0, 57, 0
2, 172038, Note_on_c, 0, 51, 0
2, 172098, Note_on_c, 0, 67, 0
2, 172166, Note_on_c, 0, 70, 39
2, 172314, Note_on_c, 0, 70, 0
2, 172358, Note_on_c, 0, 71, 48
2, 172418, Note_on_c, 0, 71, 0
2, 172454, Note_on_c, 0, 54, 62
2, 172502, Note_on_c, 0, 55, 62
2, 172502, Note_on_c, 0, 74, 92
2, 172530, Note_on_c, 0, 54, 0
2, 172706, Note_on_c, 0, 74, 0
2, 172790, Note_on_c, 0, 43, 56
2, 172794, Note_on_c, 0, 71, 63
2, 172914, Note_on_c, 0, 43, 0
2, 172950, Control_c, 0, 64, 127
2, 172978, Note_on_c, 0, 71, 0
2, 172978, Note_on_c, 0, 55, 0
2, 173130, Note_on_c, 0, 72, 76
2, 173338, Note_on_c, 0, 67, 80
2, 173410, Control_c, 0, 64, 0
2, 173418, Note_on_c, 0, 72, 0
2, 173570, Note_on_c, 0, 63, 51
2, 173606, Note_on_c, 0, 58, 52
2, 173630, Note_on_c, 0, 63, 0
2, 173650, Control_c, 0, 64, 127
2, 173674, Note_on_c, 0, 58, 0
2, 173710, Control_c, 0, 64, 0
2, 173722, Note_on_c, 0, 67, 0
2, 173914, Note_on_c, 0, 51, 58
2, 173918, Note_on_c, 0, 63, 69
2, 173930, Note_on_c, 0, 57, 62
2, 174174, Note_on_c, 0, 63, 0
2, 174330, Control_c, 0, 64, 127
2, 174398, Note_on_c, 0, 75, 80
2, 174410, Note_on_c, 0, 79, 87
2, 174490, Control_c, 0, 64, 0
2, 174502, Note_on_c, 0, 51, 0
2, 174522, Note_on_c, 0, 57, 0
2, 174594, Note_on_c, 0, 79, 0
2, 174602, Note_on_c, 0, 75, 0
2, 174678, Note_on_c, 0, 74, 85
2, 174682, Note_on_c, 0, 77, 81
2, 174718, Note_on_c, 0, 57, 46
2, 174778, Note_on_c, 0, 74, 0
2, 174822, Note_on_c, 0, 57, 0
2, 174822, Note_on_c, 0, 77, 0
2, 174882, Note_on_c, 0, 75, 65
2, 174886, Note_on_c, 0, 72, 51
2, 175018, Note_on_c, 0, 72, 0
2, 175042, Note_on_c, 0, 75, 0
2, 175070, Note_on_c, 0, 57, 47
2, 175134, Note_on_c, 0, 74, 78
2, 175146, Note_on_c, 0, 70, 55
2, 175202, Note_on_c, 0, 57, 0
2, 175206, Note_on_c, 0, 70, 0
2, 175262, Note_on_c, 0, 74, 0
2, 175470, Note_on_c, 0, 57, 40
2, 175534, Note_on_c, 0, 72, 63
2, 175538, Note_on_c, 0, 57, 0
2, 175570, Note_on_c, 0, 72, 0
2, 175810, Note_on_c, 0, 57, 55
2, 175882, Note_on_c, 0, 57, 0
2, 176230, Note_on_c, 0, 57, 66
2, 176234, Note_on_c, 0, 62, 51
2, 176278, Note_on_c, 0, 62, 0
2, 176314, Note_on_c, 0, 57, 0
2, 176614, Note_on_c, 0, 57, 66
2, 176658, Note_on_c, 0, 57, 0
2, 176738, Note_on_c, 0, 70, 83
2, 176918, Note_on_c, 0, 70, 0
2, 177090, Note_on_c, 0, 62, 34
2, 177102, Note_on_c, 0, 56, 45
2, 177106, Note_on_c, 0, 68, 60
2, 177106, Note_on_c, 0, 60, 44
2, 177134, Note_on_c, 0, 53, 42
2, 177494, Note_on_c, 0, 62, 0
2, 177502, Note_on_c, 0, 60, 0
2, 177614, Note_on_c, 0, 56, 0
2, 177674, Note_on_c, 0, 68, 0
2, 177702, Note_on_c, 0, 53, 0
2, 177826, Note_on_c, 0, 60, 48
2, 177882, Note_on_c, 0, 68, 61
2, 177894, Note_on_c, 0, 65, 60
2, 177894, Note_on_c, 0, 75, 61
2, 177902, Note_on_c, 0, 60, 0
2, 177906, Note_on_c, 0, 72, 62
2, 177910, Note_on_c, 0, 63, 80
2, 178334, Note_on_c, 0, 65, 0
2, 178354, Note_on_c, 0, 68, 0
2, 178378, Note_on_c, 0, 72, 0
2, 178402, Note_on_c, 0, 63, 0
2, 178418, Note_on_c, 0, 75, 0
2, 178630, Note_on_c, 0, 63, 62
2, 178658, Note_on_c, 0, 68, 77
2, 178658, Note_on_c, 0, 65, 76
2, 178666, Note_on_c, 0, 77, 80
2, 178674, Note_on_c, 0, 72, 70
2, 178782, Note_on_c, 0, 63, 0
2, 179106, Note_on_c, 0, 77, 0
2, 179154, Note_on_c, 0, 68, 0
2, 179158, Note_on_c, 0, 72, 0
2, 179518, Note_on_c, 0, 65, 0
2, 179642, Note_on_c, 0, 65, 66
2, 179650, Note_on_c, 0, 68, 61
2, 179654, Note_on_c, 0, 77, 62
2, 179654, Note_on_c, 0, 72, 64
2, 179654, Note_on_c, 0, 63, 63
2, 179674, Note_on_c, 0, 75, 52
2, 179714, Note_on_c, 0, 72, 0
2, 179722, Note_on_c, 0, 77, 0
2, 179722, Note_on_c, 0, 68, 0
2, 179726, Note_on_c, 0, 75, 0
2, 179738, Note_on_c, 0, 65, 0
2, 179758, Note_on_c, 0, 63, 0
2, 180446, Note_on_c, 0, 77, 89
2, 180446, Note_on_c, 0, 68, 88
2, 180454, Note_on_c, 0, 65, 88
2, 180454, Note_on_c, 0, 72, 79
2, 180478, Note_on_c, 0, 74, 56
2, 180790, Note_on_c, 0, 77, 0
2, 180838, Note_on_c, 0, 72, 0
2, 180842, Note_on_c, 0, 68, 0
2, 180862, Note_on_c, 0, 74, 0
2, 180910, Note_on_c, 0, 65, 0
2, 180946, Note_on_c, 0, 63, 60
2, 180954, Note_on_c, 0, 68, 59
2, 180966, Note_on_c, 0, 75, 65
2, 180966, Note_on_c, 0, 72, 56
2, 181094, Note_on_c, 0, 68, 0
2, 181110, Note_on_c, 0, 72, 0
2, 181126, Note_on_c, 0, 75, 0
2, 181126, Note_on_c, 0, 63, 0
2, 181206, Note_on_c, 0, 68, 61
2, 181222, Note_on_c, 0, 62, 48
2, 181230, Note_on_c, 0, 74, 66
2, 181314, Note_on_c, 0, 68, 0
2, 181330, Note_on_c, 0, 62, 0
2, 181342, Note_on_c, 0, 60, 38
2, 181386, Note_on_c, 0, 72, 53
2, 181394, Note_on_c, 0, 60, 0
2, 181438, Note_on_c, 0, 74, 0
2, 181562, Note_on_c, 0, 72, 0
2, 181722, Note_on_c, 0, 70, 69
2, 181766, Note_on_c, 0, 63, 53
2, 181790, Note_on_c, 0, 53, 40
2, 181794, Note_on_c, 0, 59, 44
2, 181994, Note_on_c, 0, 63, 0
2, 182002, Note_on_c, 0, 59, 0
2, 182010, Note_on_c, 0, 53, 0
2, 182258, Note_on_c, 0, 70, 0
2, 182342, Note_on_c, 0, 43, 68
2, 182358, Note_on_c, 0, 68, 76
2, 182386, Note_on_c, 0, 43, 0
2, 182750, Note_on_c, 0, 63, 61
2, 182770, Note_on_c, 0, 56, 53
2, 182770, Note_on_c, 0, 59, 48
2, 182786, Note_on_c, 0, 63, 0
2, 182802, Note_on_c, 0, 68, 0
2, 182814, Note_on_c, 0, 59, 0
2, 182906, Note_on_c, 0, 56, 0
2, 183102, Note_on_c, 0, 51, 66
2, 183110, Note_on_c, 0, 62, 64
2, 183126, Note_on_c, 0, 57, 64
2, 183646, Note_on_c, 0, 66, 83
2, 183670, Note_on_c, 0, 67, 79
2, 183714, Note_on_c, 0, 66, 0
2, 184102, Note_on_c, 0, 62, 0
2, 184122, Note_on_c, 0, 57, 0
2, 184226, Note_on_c, 0, 67, 0
2, 184326, Note_on_c, 0, 57, 55
2, 184350, Note_on_c, 0, 51, 0
2, 184374, Note_on_c, 0, 57, 0
2, 184426, Note_on_c, 0, 63, 76
2, 184442, Note_on_c, 0, 62, 70
2, 184450, Note_on_c, 0, 67, 67
2, 184450, Note_on_c, 0, 73, 33
2, 184450, Note_on_c, 0, 74, 67
2, 184502, Note_on_c, 0, 70, 37
2, 184582, Note_on_c, 0, 70, 0
2, 184618, Note_on_c, 0, 74, 0
2, 184630, Note_on_c, 0, 73, 0
2, 184650, Note_on_c, 0, 63, 0
2, 184702, Note_on_c, 0, 62, 0
2, 184702, Note_on_c, 0, 72, 68
2, 184702, Note_on_c, 0, 63, 31
2, 184714, Note_on_c, 0, 60, 63
2, 184946, Note_on_c, 0, 63, 0
2, 184994, Note_on_c, 0, 67, 0
2, 184998, Note_on_c, 0, 72, 0
2, 185002, Note_on_c, 0, 60, 0
2, 185786, Note_on_c, 0, 77, 87
2, 185790, Note_on_c, 0, 70, 87
2, 185794, Note_on_c, 0, 65, 83
2, 185802, Note_on_c, 0, 67, 74
2, 185842, Note_on_c, 0, 74, 35
2, 185858, Note_on_c, 0, 67, 0
2, 185886, Note_on_c, 0, 65, 0
2, 185890, Note_on_c, 0, 77, 0
2, 185890, Note_on_c, 0, 70, 0
2, 185894, Note_on_c, 0, 74, 0
2, 185978, Note_on_c, 0, 63, 32
2, 185978, Note_on_c, 0, 75, 56
2, 186030, Note_on_c, 0, 63, 0
2, 186030, Note_on_c, 0, 70, 30
2, 186058, Note_on_c, 0, 67, 24
2, 186102, Note_on_c, 0, 67, 0
2, 186158, Note_on_c, 0, 70, 0
2, 186190, Note_on_c, 0, 75, 0
2, 186342, Note_on_c, 0, 54, 50
2, 186342, Note_on_c, 0, 65, 62
2, 186354, Note_on_c, 0, 58, 55
2, 186370, Note_on_c, 0, 61, 51
2, 186694, Note_on_c, 0, 65, 0
2, 186730, Note_on_c, 0, 54, 0
2, 186766, Note_on_c, 0, 58, 0
2, 186770, Note_on_c, 0, 61, 0
2, 186978, Note_on_c, 0, 54, 60
2, 186990, Note_on_c, 0, 65, 57
2, 186998, Note_on_c, 0, 61, 51
2, 186998, Note_on_c, 0, 58, 49
2, 187066, Note_on_c, 0, 65, 0
2, 187074, Note_on_c, 0, 75, 82
2, 187246, Note_on_c, 0, 75, 0
2, 187334, Note_on_c, 0, 73, 75
2, 187454, Note_on_c, 0, 54, 0
2, 187470, Note_on_c, 0, 73, 0
2, 187490, Note_on_c, 0, 61, 0
2, 187622, Note_on_c, 0, 58, 0
2, 187690, Note_on_c, 0, 72, 84
2, 187714, Note_on_c, 0, 54, 61
2, 187722, Note_on_c, 0, 64, 58
2, 187746, Note_on_c, 0, 60, 54
2, 187806, Note_on_c, 0, 64, 0
2, 187846, Note_on_c, 0, 72, 0
2, 187854, Note_on_c, 0, 60, 0
2, 187890, Note_on_c, 0, 54, 0
2, 188062, Note_on_c, 0, 70, 90
2, 188090, Note_on_c, 0, 54, 65
2, 188110, Note_on_c, 0, 64, 57
2, 188126, Note_on_c, 0, 60, 53
2, 188310, Note_on_c, 0, 60, 0
2, 188354, Note_on_c, 0, 64, 0
2, 188482, Note_on_c, 0, 60, 35
2, 188518, Note_on_c, 0, 70, 0
2, 188598, Note_on_c, 0, 68, 81
2, 188634, Note_on_c, 0, 60, 0
2, 188714, Note_on_c, 0, 54, 0
2, 188826, Note_on_c, 0, 68, 0
2, 188842, Note_on_c, 0, 54, 49
2, 188938, Note_on_c, 0, 60, 40
2, 188986, Note_on_c, 0, 67, 82
2, 189098, Note_on_c, 0, 54, 0
2, 189230, Note_on_c, 0, 67, 0
2, 189254, Note_on_c, 0, 60, 0
2, 189366, Note_on_c, 0, 63, 40
2, 189370, Note_on_c, 0, 60, 24
2, 189402, Note_on_c, 0, 56, 46
2, 189426, Note_on_c, 0, 67, 77
2, 189566, Note_on_c, 0, 53, 1
2, 189610, Note_on_c, 0, 63, 0
2, 189638, Note_on_c, 0, 67, 0
2, 189818, Note_on_c, 0, 65, 73
2, 189906, Note_on_c, 0, 53, 0
2, 189910, Note_on_c, 0, 60, 0
2, 189930, Note_on_c, 0, 56, 0
2, 190062, Note_on_c, 0, 63, 50
2, 190102, Note_on_c, 0, 56, 40
2, 190102, Note_on_c, 0, 60, 46
2, 190110, Note_on_c, 0, 63, 0
2, 190230, Note_on_c, 0, 60, 0
2, 190298, Note_on_c, 0, 56, 0
2, 190462, Note_on_c, 0, 60, 60
2, 190478, Note_on_c, 0, 63, 40
2, 190482, Note_on_c, 0, 56, 45
2, 190534, Note_on_c, 0, 63, 0
2, 190574, Note_on_c, 0, 60, 0
2, 190642, Note_on_c, 0, 56, 0
2, 190678, Note_on_c, 0, 65, 0
2, 190798, Note_on_c, 0, 68, 98
2, 190842, Note_on_c, 0, 56, 45
2, 190850, Note_on_c, 0, 60, 57
2, 190898, Note_on_c, 0, 60, 0
2, 190922, Note_on_c, 0, 56, 0
2, 191174, Note_on_c, 0, 63, 55
2, 191190, Note_on_c, 0, 60, 55
2, 191198, Note_on_c, 0, 68, 0
2, 191214, Note_on_c, 0, 63, 0
2, 191222, Note_on_c, 0, 56, 40
2, 191310, Note_on_c, 0, 60, 0
2, 191310, Note_on_c, 0, 68, 71
2, 191386, Note_on_c, 0, 56, 0
2, 191534, Note_on_c, 0, 68, 0
2, 191546, Note_on_c, 0, 60, 53
2, 191562, Note_on_c, 0, 56, 29
2, 191594, Note_on_c, 0, 60, 0
2, 191706, Note_on_c, 0, 68, 79
2, 191734, Note_on_c, 0, 56, 0
2, 191870, Note_on_c, 0, 68, 0
2, 191942, Note_on_c, 0, 70, 79
2, 191962, Note_on_c, 0, 60, 41
2, 191966, Note_on_c, 0, 56, 46
2, 192014, Note_on_c, 0, 60, 0
2, 192098, Note_on_c, 0, 56, 0
2, 192110, Note_on_c, 0, 70, 0
2, 192118, Note_on_c, 0, 68, 57
2, 192258, Note_on_c, 0, 68, 0
2, 192346, Note_on_c, 0, 67, 80
2, 192350, Note_on_c, 0, 56, 50
2, 192358, Note_on_c, 0, 50, 41
2, 192366, Note_on_c, 0, 60, 40
2, 192542, Note_on_c, 0, 67, 0
2, 192694, Note_on_c, 0, 67, 70
2, 192738, Note_on_c, 0, 60, 0
2, 192862, Note_on_c, 0, 67, 0
2, 192862, Note_on_c, 0, 65, 62
2, 192866, Note_on_c, 0, 56, 0
2, 192998, Note_on_c, 0, 65, 0
2, 193010, Note_on_c, 0, 50, 0
2, 193090, Note_on_c, 0, 64, 55
2, 193166, Note_on_c, 0, 64, 0
2, 193170, Note_on_c, 0, 56, 58
2, 193206, Note_on_c, 0, 50, 35
2, 193234, Note_on_c, 0, 67, 67
2, 193302, Note_on_c, 0, 56, 0
2, 193334, Note_on_c, 0, 50, 0
2, 193418, Note_on_c, 0, 67, 0
2, 193462, Note_on_c, 0, 64, 54
2, 193590, Note_on_c, 0, 64, 0
2, 193618, Note_on_c, 0, 65, 64
2, 193774, Note_on_c, 0, 65, 0
2, 193850, Note_on_c, 0, 60, 61
2, 193874, Note_on_c, 0, 43, 59
2, 193898, Note_on_c, 0, 53, 44
2, 193958, Note_on_c, 0, 53, 0
2, 193966, Note_on_c, 0, 60, 0
2, 194038, Note_on_c, 0, 56, 56
2, 194166, Note_on_c, 0, 43, 0
2, 194234, Note_on_c, 0, 56, 0
2, 194354, Note_on_c, 0, 55, 62
2, 194550, Note_on_c, 0, 55, 0
2, 194610, Note_on_c, 0, 53, 67
2, 194630, Note_on_c, 0, 43, 55
2, 194714, Note_on_c, 0, 43, 0
2, 194786, Note_on_c, 0, 53, 0
2, 194946, Note_on_c, 0, 51, 64
2, 195078, Note_on_c, 0, 43, 35
2, 195098, Note_on_c, 0, 50, 57
2, 195110, Note_on_c, 0, 51, 0
2, 195366, Note_on_c, 0, 50, 0
2, 195390, Note_on_c, 0, 43, 0
2, 195494, Note_on_c, 0, 51, 58
2, 195514, Note_on_c, 0, 36, 50
2, 195694, Control_c, 0, 64, 127
2, 195754, Note_on_c, 0, 51, 0
2, 195870, Note_on_c, 0, 36, 0
2, 196334, Note_on_c, 0, 63, 65
2, 196342, Note_on_c, 0, 62, 51
2, 196342, Note_on_c, 0, 74, 73
2, 196406, Control_c, 0, 64, 0
2, 196626, Note_on_c, 0, 74, 0
2, 196674, Control_c, 0, 64, 127
2, 196698, Note_on_c, 0, 72, 67
2, 196734, Note_on_c, 0, 62, 0
2, 196766, Note_on_c, 0, 63, 0
2, 196962, Note_on_c, 0, 72, 0
2, 196990, Control_c, 0, 64, 0
2, 197074, Note_on_c, 0, 68, 62
2, 197094, Note_on_c, 0, 65, 51
2, 197102, Note_on_c, 0, 62, 32
2, 197102, Note_on_c, 0, 56, 44
2, 197106, Note_on_c, 0, 60, 40
2, 197134, Note_on_c, 0, 53, 42
2, 197218, Control_c, 0, 64, 127
2, 197346, Note_on_c, 0, 60, 0
2, 197378, Note_on_c, 0, 65, 0
2, 197394, Note_on_c, 0, 53, 0
2, 197406, Note_on_c, 0, 62, 0
2, 197406, Note_on_c, 0, 68, 0
2, 197446, Note_on_c, 0, 56, 0
2, 197778, Control_c, 0, 64, 0
2, 197842, Note_on_c, 0, 79, 67
2, 197854, Note_on_c, 0, 72, 56
2, 197862, Note_on_c, 0, 63, 48
2, 197862, Note_on_c, 0, 67, 50
2, 197890, Note_on_c, 0, 59, 50
2, 197906, Note_on_c, 0, 53, 36
2, 197914, Note_on_c, 0, 56, 37
2, 198042, Control_c, 0, 64, 127
2, 198174, Note_on_c, 0, 59, 0
2, 198182, Note_on_c, 0, 67, 0
2, 198190, Note_on_c, 0, 72, 0
2, 198210, Note_on_c, 0, 53, 0
2, 198226, Note_on_c, 0, 63, 0
2, 198258, Note_on_c, 0, 56, 0
2, 198266, Note_on_c, 0, 79, 0
2, 198546, Control_c, 0, 64, 0
2, 198626, Note_on_c, 0, 51, 51
2, 198642, Note_on_c, 0, 72, 54
2, 198654, Note_on_c, 0, 62, 34
2, 198654, Note_on_c, 0, 84, 50
2, 198670, Note_on_c, 0, 79, 53
2, 198670, Note_on_c, 0, 57, 49
2, 198746, Control_c, 0, 64, 127
2, 198882, Note_on_c, 0, 57, 0
2, 198902, Note_on_c, 0, 72, 0
2, 198954, Note_on_c, 0, 79, 0
2, 198954, Note_on_c, 0, 62, 0
2, 198959, Note_on_c, 0, 51, 0
2, 198978, Note_on_c, 0, 84, 0
2, 199406, Note_on_c, 0, 51, 69
2, 199410, Note_on_c, 0, 91, 95
2, 199414, Note_on_c, 0, 62, 65
2, 199414, Note_on_c, 0, 84, 81
2, 199418, Note_on_c, 0, 79, 87
2, 199422, Note_on_c, 0, 57, 64
2, 199426, Note_on_c, 0, 87, 62
2, 199462, Note_on_c, 0, 87, 0
2, 199602, Note_on_c, 0, 62, 0
2, 199630, Note_on_c, 0, 91, 0
2, 199650, Note_on_c, 0, 79, 0
2, 199718, Note_on_c, 0, 84, 0
2, 199742, Note_on_c, 0, 57, 0
2, 199802, Note_on_c, 0, 62, 56
2, 199806, Note_on_c, 0, 89, 77
2, 199814, Note_on_c, 0, 84, 80
2, 199818, Note_on_c, 0, 51, 0
2, 199822, Note_on_c, 0, 77, 69
2, 199834, Note_on_c, 0, 87, 56
2, 199890, Note_on_c, 0, 77, 0
2, 199898, Note_on_c, 0, 62, 0
2, 199942, Note_on_c, 0, 84, 0
2, 199950, Note_on_c, 0, 87, 0
2, 199966, Note_on_c, 0, 89, 0
2, 200174, Control_c, 0, 64, 0
2, 200186, Note_on_c, 0, 94, 105
2, 200186, Note_on_c, 0, 56, 68
2, 200186, Note_on_c, 0, 82, 104
2, 200194, Note_on_c, 0, 55, 70
2, 200198, Note_on_c, 0, 65, 82
2, 200198, Note_on_c, 0, 87, 92
2, 200206, Note_on_c, 0, 60, 74
2, 200426, Control_c, 0, 64, 127
2, 200558, Note_on_c, 0, 55, 0
2, 200566, Note_on_c, 0, 65, 0
2, 200586, Note_on_c, 0, 60, 0
2, 200618, Note_on_c, 0, 94, 0
2, 200630, Note_on_c, 0, 56, 0
2, 200654, Note_on_c, 0, 82, 0
2, 200706, Note_on_c, 0, 87, 0
2, 200954, Control_c, 0, 64, 0
2, 200962, Note_on_c, 0, 92, 85
2, 200966, Note_on_c, 0, 63, 70
2, 200966, Note_on_c, 0, 80, 79
2, 200982, Note_on_c, 0, 59, 60
2, 200982, Note_on_c, 0, 87, 74
2, 201002, Note_on_c, 0, 56, 48
2, 201026, Note_on_c, 0, 53, 38
2, 201174, Control_c, 0, 64, 127
2, 201246, Note_on_c, 0, 59, 0
2, 201286, Note_on_c, 0, 53, 0
2, 201326, Note_on_c, 0, 63, 0
2, 201338, Note_on_c, 0, 92, 0
2, 201370, Note_on_c, 0, 80, 0
2, 201434, Note_on_c, 0, 56, 0
2, 201470, Note_on_c, 0, 87, 0
2, 201602, Control_c, 0, 64, 0
2, 201702, Note_on_c, 0, 51, 61
2, 201706, Note_on_c, 0, 62, 60
2, 201714, Note_on_c, 0, 91, 73
2, 201722, Note_on_c, 0, 79, 64
2, 201722, Note_on_c, 0, 86, 67
2, 201734, Note_on_c, 0, 57, 55
2, 201822, Control_c, 0, 64, 127
2, 201998, Note_on_c, 0, 57, 0
2, 202006, Note_on_c, 0, 91, 0
2, 202018, Note_on_c, 0, 86, 0
2, 202086, Note_on_c, 0, 51, 0
2, 202094, Note_on_c, 0, 79, 0
2, 202126, Note_on_c, 0, 62, 0
2, 202498, Note_on_c, 0, 80, 90
2, 202498, Note_on_c, 0, 86, 102
2, 202498, Note_on_c, 0, 51, 76
2, 202498, Note_on_c, 0, 62, 77
2, 202498, Note_on_c, 0, 74, 84
2, 202514, Note_on_c, 0, 57, 72
2, 202538, Control_c, 0, 64, 0
2, 202606, Note_on_c, 0, 80, 0
2, 202642, Note_on_c, 0, 81, 44
2, 202738, Note_on_c, 0, 74, 0
2, 202774, Note_on_c, 0, 86, 0
2, 202798, Note_on_c, 0, 62, 0
2, 202818, Note_on_c, 0, 81, 0
2, 202842, Control_c, 0, 64, 127
2, 202882, Note_on_c, 0, 72, 76
2, 202890, Note_on_c, 0, 84, 76
2, 202902, Note_on_c, 0, 57, 0
2, 202926, Note_on_c, 0, 62, 22
2, 202946, Note_on_c, 0, 84, 0
2, 202982, Note_on_c, 0, 51, 0
2, 203010, Note_on_c, 0, 72, 0
2, 203014, Note_on_c, 0, 62, 0
2, 203210, Control_c, 0, 64, 0
2, 203278, Note_on_c, 0, 68, 101
2, 203278, Note_on_c, 0, 80, 101
2, 203278, Note_on_c, 0, 62, 73
2, 203278, Note_on_c, 0, 60, 69
2, 203278, Note_on_c, 0, 56, 64
2, 203278, Note_on_c, 0, 75, 90
2, 203278, Note_on_c, 0, 53, 67
2, 203382, Control_c, 0, 64, 127
2, 203626, Note_on_c, 0, 60, 0
2, 203666, Note_on_c, 0, 62, 0
2, 203686, Note_on_c, 0, 75, 0
2, 203694, Note_on_c, 0, 68, 0
2, 203698, Note_on_c, 0, 53, 0
2, 203710, Note_on_c, 0, 80, 0
2, 203722, Note_on_c, 0, 56, 0
2, 203970, Control_c, 0, 64, 0
2, 204046, Note_on_c, 0, 63, 92
2, 204050, Note_on_c, 0, 79, 99
2, 204054, Note_on_c, 0, 74, 95
2, 204054, Note_on_c, 0, 67, 89
2, 204062, Note_on_c, 0, 53, 67
2, 204070, Note_on_c, 0, 59, 67
2, 204078, Note_on_c, 0, 56, 58
2, 204150, Control_c, 0, 64, 127
2, 204242, Note_on_c, 0, 59, 0
2, 204286, Note_on_c, 0, 63, 0
2, 204322, Note_on_c, 0, 53, 0
2, 204330, Note_on_c, 0, 74, 0
2, 204334, Note_on_c, 0, 56, 0
2, 204350, Note_on_c, 0, 79, 0
2, 204402, Note_on_c, 0, 67, 0
2, 204730, Control_c, 0, 64, 0
2, 204822, Note_on_c, 0, 70, 107
2, 204826, Note_on_c, 0, 51, 95
2, 204826, Note_on_c, 0, 65, 116
2, 204826, Note_on_c, 0, 77, 105
2, 204826, Note_on_c, 0, 62, 99
2, 204826, Note_on_c, 0, 74, 83
2, 204826, Note_on_c, 0, 57, 80
2, 204950, Note_on_c, 0, 65, 0
2, 204954, Control_c, 0, 64, 127
2, 205006, Note_on_c, 0, 62, 0
2, 205038, Note_on_c, 0, 51, 0
2, 205054, Note_on_c, 0, 77, 0
2, 205058, Note_on_c, 0, 57, 0
2, 205074, Note_on_c, 0, 70, 0
2, 205074, Note_on_c, 0, 65, 56
2, 205082, Note_on_c, 0, 74, 0
2, 205138, Note_on_c, 0, 51, 28
2, 205182, Note_on_c, 0, 65, 0
2, 205226, Note_on_c, 0, 51, 0
2, 205250, Note_on_c, 0, 62, 37
2, 205270, Note_on_c, 0, 57, 23
2, 205314, Note_on_c, 0, 62, 0
2, 205318, Note_on_c, 0, 57, 0
2, 205322, Note_on_c, 0, 65, 44
2, 205362, Note_on_c, 0, 51, 57
2, 205450, Note_on_c, 0, 65, 0
2, 205488, Note_on_c, 0, 51, 0
2, 205498, Note_on_c, 0, 57, 35
2, 205502, Note_on_c, 0, 70, 51
2, 205538, Note_on_c, 0, 62, 37
2, 205578, Note_on_c, 0, 57, 0
2, 205586, Note_on_c, 0, 70, 0
2, 205598, Note_on_c, 0, 62, 0
2, 205602, Note_on_c, 0, 65, 51
2, 205626, Note_on_c, 0, 51, 56
2, 205734, Note_on_c, 0, 65, 0
2, 205750, Note_on_c, 0, 51, 0
2, 205762, Note_on_c, 0, 57, 36
2, 205770, Note_on_c, 0, 70, 57
2, 205822, Note_on_c, 0, 62, 29
2, 205834, Note_on_c, 0, 57, 0
2, 205838, Note_on_c, 0, 70, 0
2, 205874, Note_on_c, 0, 65, 48
2, 205882, Note_on_c, 0, 62, 0
2, 205906, Note_on_c, 0, 51, 54
2, 206002, Note_on_c, 0, 65, 0
2, 206026, Note_on_c, 0, 51, 0
2, 206046, Note_on_c, 0, 70, 46
2, 206082, Note_on_c, 0, 57, 33
2, 206122, Note_on_c, 0, 70, 0
2, 206142, Note_on_c, 0, 57, 0
2, 206162, Note_on_c, 0, 65, 50
2, 206182, Note_on_c, 0, 51, 62
2, 206286, Note_on_c, 0, 65, 0
2, 206314, Note_on_c, 0, 51, 0
2, 206330, Note_on_c, 0, 70, 47
2, 206374, Note_on_c, 0, 57, 36
2, 206374, Note_on_c, 0, 74, 30
2, 206418, Note_on_c, 0, 70, 0
2, 206438, Note_on_c, 0, 74, 0
2, 206446, Note_on_c, 0, 57, 0
2, 206446, Note_on_c, 0, 65, 50
2, 206502, Note_on_c, 0, 51, 53
2, 206570, Note_on_c, 0, 65, 0
2, 206602, Note_on_c, 0, 70, 42
2, 206650, Note_on_c, 0, 51, 0
2, 206654, Note_on_c, 0, 74, 23
2, 206678, Note_on_c, 0, 57, 32
2, 206706, Note_on_c, 0, 70, 0
2, 206710, Note_on_c, 0, 74, 0
2, 206718, Note_on_c, 0, 65, 48
2, 206770, Note_on_c, 0, 57, 0
2, 206850, Note_on_c, 0, 65, 0
2, 206850, End_track
3, 0, Start_track
3, 0, Title_t, "Track 2"
3, 386, Control_c, 1, 0, 0
3, 386, Control_c, 1, 32, 0
3, 386, Program_c, 1, 35
3, 387, Control_c, 1, 7, 84
3, 387, Control_c, 1, 10, 64
3, 387, Control_c, 1, 91, 0
3, 387, Control_c, 1, 93, 40
3, 1986, Note_on_c, 1, 48, 53
3, 2286, Note_on_c, 1, 48, 0
3, 2386, Note_on_c, 1, 43, 24
3, 2694, Note_on_c, 1, 43, 0
3, 2766, Note_on_c, 1, 39, 24
3, 3074, Note_on_c, 1, 39, 0
3, 3118, Note_on_c, 1, 38, 34
3, 3522, Note_on_c, 1, 38, 0
3, 3538, Note_on_c, 1, 36, 39
3, 3906, Note_on_c, 1, 39, 40
3, 3910, Note_on_c, 1, 36, 0
3, 4210, Note_on_c, 1, 39, 0
3, 4318, Note_on_c, 1, 43, 55
3, 4482, Note_on_c, 1, 43, 0
3, 4546, Note_on_c, 1, 39, 37
3, 4662, Note_on_c, 1, 39, 0
3, 4694, Note_on_c, 1, 42, 56
3, 5030, Note_on_c, 1, 42, 0
3, 5070, Note_on_c, 1, 41, 45
3, 5178, Note_on_c, 1, 41, 0
3, 5330, Note_on_c, 1, 36, 55
3, 5434, Note_on_c, 1, 36, 0
3, 5454, Note_on_c, 1, 32, 56
3, 5846, Note_on_c, 1, 32, 0
3, 5858, Note_on_c, 1, 31, 42
3, 6182, Note_on_c, 1, 31, 0
3, 6190, Note_on_c, 1, 30, 42
3, 6546, Note_on_c, 1, 30, 0
3, 6582, Note_on_c, 1, 29, 50
3, 6926, Note_on_c, 1, 29, 0
3, 6958, Note_on_c, 1, 40, 78
3, 7342, Note_on_c, 1, 40, 0
3, 7346, Note_on_c, 1, 37, 52
3, 7670, Note_on_c, 1, 37, 0
3, 7714, Note_on_c, 1, 39, 70
3, 8070, Note_on_c, 1, 39, 0
3, 8118, Note_on_c, 1, 38, 48
3, 8398, Note_on_c, 1, 37, 50
3, 8454, Note_on_c, 1, 38, 0
3, 8498, Note_on_c, 1, 44, 70
3, 8514, Note_on_c, 1, 37, 0
3, 8870, Note_on_c, 1, 44, 0
3, 8906, Note_on_c, 1, 48, 63
3, 9271, Note_on_c, 1, 44, 63
3, 9294, Note_on_c, 1, 48, 0
3, 9670, Note_on_c, 1, 44, 0
3, 9682, Note_on_c, 1, 43, 46
3, 9942, Note_on_c, 1, 38, 41
3, 9990, Note_on_c, 1, 43, 0
3, 10050, Note_on_c, 1, 50, 84
3, 10054, Note_on_c, 1, 38, 0
3, 10410, Note_on_c, 1, 50, 0
3, 10430, Note_on_c, 1, 47, 56
3, 10682, Note_on_c, 1, 47, 0
3, 10686, Note_on_c, 1, 38, 54
3, 10786, Note_on_c, 1, 38, 0
3, 10822, Note_on_c, 1, 35, 49
3, 11186, Note_on_c, 1, 35, 0
3, 11214, Note_on_c, 1, 36, 46
3, 11438, Note_on_c, 1, 36, 0
3, 11466, Note_on_c, 1, 34, 31
3, 11506, Note_on_c, 1, 34, 0
3, 11510, Note_on_c, 1, 36, 42
3, 11582, Note_on_c, 1, 51, 69
3, 11638, Note_on_c, 1, 36, 0
3, 11926, Note_on_c, 1, 51, 0
3, 11990, Note_on_c, 1, 50, 32
3, 12310, Note_on_c, 1, 50, 0
3, 12342, Note_on_c, 1, 48, 53
3, 12654, Note_on_c, 1, 43, 35
3, 12674, Note_on_c, 1, 48, 0
3, 12702, Note_on_c, 1, 43, 0
3, 12754, Note_on_c, 1, 51, 64
3, 13146, Note_on_c, 1, 50, 47
3, 13350, Note_on_c, 1, 51, 0
3, 13474, Note_on_c, 1, 50, 0
3, 13518, Note_on_c, 1, 38, 81
3, 13906, Note_on_c, 1, 40, 65
3, 13946, Note_on_c, 1, 38, 0
3, 14182, Note_on_c, 1, 40, 0
3, 14182, Note_on_c, 1, 38, 54
3, 14262, Note_on_c, 1, 38, 0
3, 14342, Note_on_c, 1, 39, 64
3, 14690, Note_on_c, 1, 46, 48
3, 14714, Note_on_c, 1, 39, 0
3, 15022, Note_on_c, 1, 46, 0
3, 15082, Note_on_c, 1, 51, 52
3, 15326, Note_on_c, 1, 42, 48
3, 15358, Note_on_c, 1, 51, 0
3, 15402, Note_on_c, 1, 42, 0
3, 15450, Note_on_c, 1, 45, 50
3, 15478, Note_on_c, 1, 46, 24
3, 15542, Note_on_c, 1, 46, 0
3, 15710, Note_on_c, 1, 39, 13
3, 15770, Note_on_c, 1, 39, 0
3, 15794, Note_on_c, 1, 45, 0
3, 15822, Note_on_c, 1, 44, 46
3, 16202, Note_on_c, 1, 44, 0
3, 16206, Note_on_c, 1, 39, 43
3, 16554, Note_on_c, 1, 39, 0
3, 16590, Note_on_c, 1, 32, 38
3, 16934, Note_on_c, 1, 32, 0
3, 16966, Note_on_c, 1, 36, 46
3, 17302, Note_on_c, 1, 36, 0
3, 17362, Note_on_c, 1, 37, 42
3, 17719, Note_on_c, 1, 44, 43
3, 17730, Note_on_c, 1, 37, 0
3, 18002, Note_on_c, 1, 44, 0
3, 18018, Note_on_c, 1, 37, 38
3, 18110, Note_on_c, 1, 37, 0
3, 18110, Note_on_c, 1, 54, 18
3, 18122, Note_on_c, 1, 53, 48
3, 18370, Note_on_c, 1, 54, 0
3, 18398, Note_on_c, 1, 37, 19
3, 18422, Note_on_c, 1, 53, 0
3, 18470, Note_on_c, 1, 37, 0
3, 18510, Note_on_c, 1, 51, 56
3, 18786, Note_on_c, 1, 42, 13
3, 18858, Note_on_c, 1, 42, 0
3, 18870, Note_on_c, 1, 51, 0
3, 18906, Note_on_c, 1, 49, 39
3, 19194, Note_on_c, 1, 49, 0
3, 19270, Note_on_c, 1, 48, 38
3, 19510, Note_on_c, 1, 44, 27
3, 19562, Note_on_c, 1, 44, 0
3, 19610, Note_on_c, 1, 48, 0
3, 19658, Note_on_c, 1, 49, 46
3, 19966, Note_on_c, 1, 44, 41
3, 19994, Note_on_c, 1, 49, 0
3, 20022, Note_on_c, 1, 44, 0
3, 20046, Note_on_c, 1, 50, 78
3, 20426, Note_on_c, 1, 44, 44
3, 20434, Note_on_c, 1, 50, 0
3, 20798, Note_on_c, 1, 38, 46
3, 20818, Note_on_c, 1, 44, 0
3, 21202, Note_on_c, 1, 38, 0
3, 21202, Note_on_c, 1, 44, 55
3, 21546, Note_on_c, 1, 44, 0
3, 21570, Note_on_c, 1, 42, 41
3, 21894, Note_on_c, 1, 42, 0
3, 21930, Note_on_c, 1, 43, 47
3, 22302, Note_on_c, 1, 43, 0
3, 22330, Note_on_c, 1, 38, 59
3, 22682, Note_on_c, 1, 38, 0
3, 22726, Note_on_c, 1, 35, 43
3, 22986, Note_on_c, 1, 38, 54
3, 22990, Note_on_c, 1, 35, 0
3, 23078, Note_on_c, 1, 38, 0
3, 23102, Note_on_c, 1, 50, 62
3, 23438, Note_on_c, 1, 50, 0
3, 23486, Note_on_c, 1, 48, 56
3, 23830, Note_on_c, 1, 48, 0
3, 23866, Note_on_c, 1, 42, 67
3, 24212, Note_on_c, 1, 42, 0
3, 24250, Note_on_c, 1, 43, 55
3, 24618, Note_on_c, 1, 43, 0
3, 24626, Note_on_c, 1, 38, 51
3, 25002, Note_on_c, 1, 38, 0
3, 25026, Note_on_c, 1, 31, 68
3, 25630, Note_on_c, 1, 34, 69
3, 25658, Note_on_c, 1, 31, 0
3, 26026, Note_on_c, 1, 35, 54
3, 26046, Note_on_c, 1, 34, 0
3, 26194, Note_on_c, 1, 36, 54
3, 26218, Note_on_c, 1, 35, 0
3, 26874, Note_on_c, 1, 34, 34
3, 26946, Note_on_c, 1, 36, 0
3, 26950, Note_on_c, 1, 43, 45
3, 26998, Note_on_c, 1, 34, 0
3, 27282, Note_on_c, 1, 43, 0
3, 27342, Note_on_c, 1, 51, 47
3, 27382, Note_on_c, 1, 51, 0
3, 27658, Note_on_c, 1, 41, 19
3, 27694, Note_on_c, 1, 50, 49
3, 27714, Note_on_c, 1, 41, 0
3, 28030, Note_on_c, 1, 41, 5
3, 28054, Note_on_c, 1, 50, 0
3, 28070, Note_on_c, 1, 41, 0
3, 28142, Note_on_c, 1, 48, 31
3, 28158, Note_on_c, 1, 49, 21
3, 28226, Note_on_c, 1, 49, 0
3, 28402, Note_on_c, 1, 39, 38
3, 28446, Note_on_c, 1, 39, 0
3, 28454, Note_on_c, 1, 48, 0
3, 28502, Note_on_c, 1, 43, 41
3, 28818, Note_on_c, 1, 43, 0
3, 28890, Note_on_c, 1, 42, 43
3, 29162, Note_on_c, 1, 42, 0
3, 29246, Note_on_c, 1, 40, 49
3, 29570, Note_on_c, 1, 40, 0
3, 29622, Note_on_c, 1, 41, 28
3, 29690, Note_on_c, 1, 41, 0
3, 29898, Note_on_c, 1, 41, 44
3, 29998, Note_on_c, 1, 41, 0
3, 30014, Note_on_c, 1, 36, 57
3, 30406, Note_on_c, 1, 32, 52
3, 30430, Note_on_c, 1, 36, 0
3, 30746, Note_on_c, 1, 32, 0
3, 30782, Note_on_c, 1, 31, 50
3, 31122, Note_on_c, 1, 31, 0
3, 31182, Note_on_c, 1, 29, 56
3, 31526, Note_on_c, 1, 29, 0
3, 31558, Note_on_c, 1, 31, 37
3, 31926, Note_on_c, 1, 31, 0
3, 31958, Note_on_c, 1, 32, 45
3, 32230, Note_on_c, 1, 32, 0
3, 32262, Note_on_c, 1, 39, 71
3, 32290, Note_on_c, 1, 37, 43
3, 32418, Note_on_c, 1, 37, 0
3, 32694, Note_on_c, 1, 39, 0
3, 32762, Note_on_c, 1, 38, 50
3, 33050, Note_on_c, 1, 34, 21
3, 33058, Note_on_c, 1, 32, 16
3, 33078, Note_on_c, 1, 38, 0
3, 33102, Note_on_c, 1, 44, 70
3, 33110, Note_on_c, 1, 34, 0
3, 33122, Note_on_c, 1, 32, 0
3, 33502, Note_on_c, 1, 41, 43
3, 33558, Note_on_c, 1, 44, 0
3, 33662, Note_on_c, 1, 41, 0
3, 33734, Note_on_c, 1, 38, 54
3, 33834, Note_on_c, 1, 38, 0
3, 33858, Note_on_c, 1, 32, 54
3, 34206, Note_on_c, 1, 32, 0
3, 34258, Note_on_c, 1, 31, 48
3, 34534, Note_on_c, 1, 35, 50
3, 34570, Note_on_c, 1, 31, 0
3, 34634, Note_on_c, 1, 47, 74
3, 34638, Note_on_c, 1, 35, 0
3, 34990, Note_on_c, 1, 47, 0
3, 35034, Note_on_c, 1, 43, 39
3, 35042, Note_on_c, 1, 44, 10
3, 35090, Note_on_c, 1, 44, 0
3, 35382, Note_on_c, 1, 43, 0
3, 35386, Note_on_c, 1, 35, 57
3, 35710, Note_on_c, 1, 35, 0
3, 35722, Note_on_c, 1, 36, 59
3, 36086, Note_on_c, 1, 34, 45
3, 36158, Note_on_c, 1, 48, 59
3, 36162, Note_on_c, 1, 36, 0
3, 36190, Note_on_c, 1, 34, 0
3, 36442, Note_on_c, 1, 42, 30
3, 36494, Note_on_c, 1, 42, 0
3, 36498, Note_on_c, 1, 48, 0
3, 36554, Note_on_c, 1, 51, 67
3, 36882, Note_on_c, 1, 43, 26
3, 36914, Note_on_c, 1, 51, 0
3, 36934, Note_on_c, 1, 43, 0
3, 36934, Note_on_c, 1, 50, 44
3, 37294, Note_on_c, 1, 50, 0
3, 37330, Note_on_c, 1, 48, 35
3, 37626, Note_on_c, 1, 43, 40
3, 37630, Note_on_c, 1, 48, 0
3, 37674, Note_on_c, 1, 43, 0
3, 37694, Note_on_c, 1, 53, 45
3, 38034, Note_on_c, 1, 43, 23
3, 38082, Note_on_c, 1, 43, 0
3, 38086, Note_on_c, 1, 52, 43
3, 38098, Note_on_c, 1, 53, 0
3, 38390, Note_on_c, 1, 43, 31
3, 38414, Note_on_c, 1, 52, 0
3, 38442, Note_on_c, 1, 43, 0
3, 38466, Note_on_c, 1, 50, 47
3, 38738, Note_on_c, 1, 43, 28
3, 38782, Note_on_c, 1, 43, 0
3, 38802, Note_on_c, 1, 50, 0
3, 38850, Note_on_c, 1, 51, 59
3, 39094, Note_on_c, 1, 46, 28
3, 39154, Note_on_c, 1, 46, 0
3, 39222, Note_on_c, 1, 51, 0
3, 39242, Note_on_c, 1, 49, 56
3, 39598, Note_on_c, 1, 49, 0
3, 39610, Note_on_c, 1, 46, 66
3, 39934, Note_on_c, 1, 46, 0
3, 39978, Note_on_c, 1, 45, 58
3, 40346, Note_on_c, 1, 45, 0
3, 40398, Note_on_c, 1, 44, 50
3, 40646, Note_on_c, 1, 42, 49
3, 40670, Note_on_c, 1, 44, 0
3, 40766, Note_on_c, 1, 42, 0
3, 40766, Note_on_c, 1, 51, 72
3, 41014, Note_on_c, 1, 44, 21
3, 41074, Note_on_c, 1, 44, 0
3, 41150, Note_on_c, 1, 49, 48
3, 41374, Note_on_c, 1, 51, 0
3, 41394, Note_on_c, 1, 44, 54
3, 41402, Note_on_c, 1, 49, 0
3, 41522, Note_on_c, 1, 48, 57
3, 41546, Note_on_c, 1, 44, 0
3, 41794, Note_on_c, 1, 44, 38
3, 41834, Note_on_c, 1, 44, 0
3, 41862, Note_on_c, 1, 48, 0
3, 41918, Note_on_c, 1, 49, 63
3, 42302, Note_on_c, 1, 49, 0
3, 42322, Note_on_c, 1, 44, 54
3, 42650, Note_on_c, 1, 44, 0
3, 42690, Note_on_c, 1, 37, 45
3, 42970, Note_on_c, 1, 44, 38
3, 43006, Note_on_c, 1, 37, 0
3, 43018, Note_on_c, 1, 44, 0
3, 43062, Note_on_c, 1, 53, 84
3, 43354, Note_on_c, 1, 44, 30
3, 43399, Note_on_c, 1, 44, 0
3, 43422, Note_on_c, 1, 53, 0
3, 43462, Note_on_c, 1, 49, 49
3, 43834, Note_on_c, 1, 44, 59
3, 43862, Note_on_c, 1, 49, 0
3, 44182, Note_on_c, 1, 44, 0
3, 44218, Note_on_c, 1, 36, 43
3, 44566, Note_on_c, 1, 36, 0
3, 44598, Note_on_c, 1, 37, 61
3, 44998, Note_on_c, 1, 37, 0
3, 44998, Note_on_c, 1, 38, 57
3, 45290, Note_on_c, 1, 37, 42
3, 45334, Note_on_c, 1, 38, 0
3, 45367, Note_on_c, 1, 44, 71
3, 45414, Note_on_c, 1, 37, 0
3, 45642, Note_on_c, 1, 37, 20
3, 45694, Note_on_c, 1, 37, 0
3, 46026, Note_on_c, 1, 37, 39
3, 46062, Note_on_c, 1, 37, 0
3, 46066, Note_on_c, 1, 44, 0
3, 46074, Note_on_c, 1, 41, 64
3, 46162, Note_on_c, 1, 42, 50
3, 46178, Note_on_c, 1, 41, 0
3, 46438, Note_on_c, 1, 37, 28
3, 46478, Note_on_c, 1, 37, 0
3, 46558, Note_on_c, 1, 43, 60
3, 46562, Note_on_c, 1, 42, 0
3, 46826, Note_on_c, 1, 38, 69
3, 46838, Note_on_c, 1, 43, 0
3, 46966, Note_on_c, 1, 35, 66
3, 47018, Note_on_c, 1, 38, 0
3, 47530, Note_on_c, 1, 35, 0
3, 47550, Note_on_c, 1, 38, 64
3, 47566, Note_on_c, 1, 31, 60
3, 47630, Note_on_c, 1, 38, 0
3, 47726, Note_on_c, 1, 35, 43
3, 48020, Note_on_c, 1, 35, 0
3, 48046, Note_on_c, 1, 36, 61
3, 48074, Note_on_c, 1, 31, 0
3, 48366, Note_on_c, 1, 34, 42
3, 48410, Note_on_c, 1, 36, 0
3, 48434, Note_on_c, 1, 39, 59
3, 48470, Note_on_c, 1, 34, 0
3, 48766, Note_on_c, 1, 36, 28
3, 48774, Note_on_c, 1, 39, 0
3, 48814, Note_on_c, 1, 36, 0
3, 48834, Note_on_c, 1, 43, 54
3, 49114, Note_on_c, 1, 36, 34
3, 49162, Note_on_c, 1, 36, 0
3, 49166, Note_on_c, 1, 43, 0
3, 49210, Note_on_c, 1, 42, 48
3, 49462, Note_on_c, 1, 37, 17
3, 49522, Note_on_c, 1, 37, 0
3, 49606, Note_on_c, 1, 42, 0
3, 49622, Note_on_c, 1, 43, 57
3, 49986, Note_on_c, 1, 43, 0
3, 49998, Note_on_c, 1, 31, 63
3, 50390, Note_on_c, 1, 38, 63
3, 50510, Note_on_c, 1, 31, 0
3, 50694, Note_on_c, 1, 38, 0
3, 50758, Note_on_c, 1, 35, 57
3, 51118, Note_on_c, 1, 35, 0
3, 51166, Note_on_c, 1, 36, 50
3, 51390, Note_on_c, 1, 36, 0
3, 51426, Note_on_c, 1, 34, 57
3, 51482, Note_on_c, 1, 34, 0
3, 51534, Note_on_c, 1, 43, 54
3, 51838, Note_on_c, 1, 42, 30
3, 51870, Note_on_c, 1, 43, 0
3, 51902, Note_on_c, 1, 42, 0
3, 51942, Note_on_c, 1, 51, 57
3, 52234, Note_on_c, 1, 42, 21
3, 52262, Note_on_c, 1, 51, 0
3, 52290, Note_on_c, 1, 42, 0
3, 52314, Note_on_c, 1, 50, 42
3, 52558, Note_on_c, 1, 42, 27
3, 52614, Note_on_c, 1, 42, 0
3, 52642, Note_on_c, 1, 50, 0
3, 52698, Note_on_c, 1, 48, 45
3, 53042, Note_on_c, 1, 48, 0
3, 53062, Note_on_c, 1, 42, 51
3, 53422, Note_on_c, 1, 42, 0
3, 53458, Note_on_c, 1, 43, 58
3, 53818, Note_on_c, 1, 43, 0
3, 53842, Note_on_c, 1, 40, 57
3, 54178, Note_on_c, 1, 40, 0
3, 54226, Note_on_c, 1, 41, 51
3, 54562, Note_on_c, 1, 41, 0
3, 54598, Note_on_c, 1, 36, 50
3, 54940, Note_on_c, 1, 36, 0
3, 55002, Note_on_c, 1, 32, 42
3, 55102, Note_on_c, 1, 32, 0
3, 55234, Note_on_c, 1, 32, 36
3, 55382, Note_on_c, 1, 31, 47
3, 55414, Note_on_c, 1, 32, 0
3, 55706, Note_on_c, 1, 31, 0
3, 55742, Note_on_c, 1, 29, 52
3, 56070, Note_on_c, 1, 29, 0
3, 56142, Note_on_c, 1, 41, 54
3, 56150, Note_on_c, 1, 40, 56
3, 56446, Note_on_c, 1, 41, 0
3, 56466, Note_on_c, 1, 40, 0
3, 56526, Note_on_c, 1, 37, 49
3, 56822, Note_on_c, 1, 37, 0
3, 56890, Note_on_c, 1, 37, 60
3, 57250, Note_on_c, 1, 37, 0
3, 57286, Note_on_c, 1, 38, 57
3, 57578, Note_on_c, 1, 37, 34
3, 57622, Note_on_c, 1, 38, 0
3, 57626, Note_on_c, 1, 37, 0
3, 57698, Note_on_c, 1, 44, 66
3, 57946, Note_on_c, 1, 39, 25
3, 57990, Note_on_c, 1, 39, 0
3, 58026, Note_on_c, 1, 44, 0
3, 58070, Note_on_c, 1, 48, 59
3, 58462, Note_on_c, 1, 42, 61
3, 58466, Note_on_c, 1, 48, 0
3, 58798, Note_on_c, 1, 42, 0
3, 58842, Note_on_c, 1, 43, 54
3, 59182, Note_on_c, 1, 43, 0
3, 59218, Note_on_c, 1, 47, 67
3, 59538, Note_on_c, 1, 38, 10
3, 59550, Note_on_c, 1, 47, 0
3, 59606, Note_on_c, 1, 53, 59
3, 59630, Note_on_c, 1, 38, 0
3, 59874, Note_on_c, 1, 38, 41
3, 59914, Note_on_c, 1, 53, 0
3, 59974, Note_on_c, 1, 38, 0
3, 59982, Note_on_c, 1, 51, 63
3, 60282, Note_on_c, 1, 38, 24
3, 60314, Note_on_c, 1, 51, 0
3, 60334, Note_on_c, 1, 38, 0
3, 60382, Note_on_c, 1, 50, 41
3, 60410, Note_on_c, 1, 51, 21
3, 60474, Note_on_c, 1, 51, 0
3, 60646, Note_on_c, 1, 38, 34
3, 60674, Note_on_c, 1, 50, 0
3, 60694, Note_on_c, 1, 38, 0
3, 60734, Note_on_c, 1, 49, 57
3, 61078, Note_on_c, 1, 49, 0
3, 61142, Note_on_c, 1, 48, 48
3, 61470, Note_on_c, 1, 48, 0
3, 61498, Note_on_c, 1, 43, 57
3, 61878, Note_on_c, 1, 43, 0
3, 61898, Note_on_c, 1, 39, 62
3, 62222, Note_on_c, 1, 39, 0
3, 62258, Note_on_c, 1, 38, 54
3, 62610, Note_on_c, 1, 38, 0
3, 62658, Note_on_c, 1, 36, 46
3, 62982, Note_on_c, 1, 36, 0
3, 63038, Note_on_c, 1, 38, 60
3, 63326, Note_on_c, 1, 38, 0
3, 63430, Note_on_c, 1, 39, 53
3, 63814, Note_on_c, 1, 51, 68
3, 63858, Note_on_c, 1, 39, 0
3, 64158, Note_on_c, 1, 51, 0
3, 64254, Note_on_c, 1, 48, 13
3, 64306, Note_on_c, 1, 48, 0
3, 64546, Note_on_c, 1, 44, 52
3, 64890, Note_on_c, 1, 44, 0
3, 64986, Note_on_c, 1, 44, 61
3, 65362, Note_on_c, 1, 32, 36
3, 65590, Note_on_c, 1, 44, 0
3, 65742, Note_on_c, 1, 44, 63
3, 65846, Note_on_c, 1, 44, 0
3, 66154, Note_on_c, 1, 44, 66
3, 66490, Note_on_c, 1, 44, 0
3, 66922, Note_on_c, 1, 44, 65
3, 67094, Note_on_c, 1, 44, 0
3, 67302, Note_on_c, 1, 44, 72
3, 67486, Note_on_c, 1, 32, 0
3, 67686, Note_on_c, 1, 32, 62
3, 67722, Note_on_c, 1, 44, 0
3, 68058, Note_on_c, 1, 44, 64
3, 68166, Note_on_c, 1, 44, 0
3, 68458, Note_on_c, 1, 44, 72
3, 68834, Note_on_c, 1, 51, 69
3, 68886, Note_on_c, 1, 44, 0
3, 68954, Note_on_c, 1, 32, 0
3, 69190, Note_on_c, 1, 51, 0
3, 69206, Note_on_c, 1, 49, 60
3, 69418, Note_on_c, 1, 49, 0
3, 69454, Note_on_c, 1, 50, 74
3, 69746, Note_on_c, 1, 50, 0
3, 69810, Note_on_c, 1, 44, 72
3, 69914, Note_on_c, 1, 44, 0
3, 69966, Note_on_c, 1, 41, 50
3, 70234, Note_on_c, 1, 41, 0
3, 70314, Note_on_c, 1, 38, 54
3, 70654, Note_on_c, 1, 38, 0
3, 70690, Note_on_c, 1, 42, 54
3, 71022, Note_on_c, 1, 42, 0
3, 71074, Note_on_c, 1, 43, 63
3, 71238, Note_on_c, 1, 43, 0
3, 71326, Note_on_c, 1, 43, 50
3, 71442, Note_on_c, 1, 38, 60
3, 71462, Note_on_c, 1, 43, 0
3, 71826, Note_on_c, 1, 38, 0
3, 71870, Note_on_c, 1, 35, 42
3, 72194, Note_on_c, 1, 35, 0
3, 72226, Note_on_c, 1, 38, 51
3, 72574, Note_on_c, 1, 38, 0
3, 72626, Note_on_c, 1, 36, 49
3, 72890, Note_on_c, 1, 34, 33
3, 72926, Note_on_c, 1, 34, 0
3, 72990, Note_on_c, 1, 43, 55
3, 73010, Note_on_c, 1, 36, 0
3, 73246, Note_on_c, 1, 36, 30
3, 73302, Note_on_c, 1, 36, 0
3, 73322, Note_on_c, 1, 43, 0
3, 73402, Note_on_c, 1, 51, 53
3, 73794, Note_on_c, 1, 51, 0
3, 73794, Note_on_c, 1, 42, 60
3, 74134, Note_on_c, 1, 42, 0
3, 74182, Note_on_c, 1, 43, 58
3, 74430, Note_on_c, 1, 42, 35
3, 74478, Note_on_c, 1, 43, 0
3, 74554, Note_on_c, 1, 42, 0
3, 74554, Note_on_c, 1, 47, 56
3, 74814, Note_on_c, 1, 44, 32
3, 74854, Note_on_c, 1, 44, 0
3, 74898, Note_on_c, 1, 47, 0
3, 74954, Note_on_c, 1, 50, 55
3, 75242, Note_on_c, 1, 50, 0
3, 75246, Note_on_c, 1, 43, 45
3, 75334, Note_on_c, 1, 43, 0
3, 75334, Note_on_c, 1, 53, 67
3, 75654, Note_on_c, 1, 43, 30
3, 75662, Note_on_c, 1, 53, 0
3, 75702, Note_on_c, 1, 43, 0
3, 75730, Note_on_c, 1, 51, 66
3, 76010, Note_on_c, 1, 43, 39
3, 76050, Note_on_c, 1, 51, 0
3, 76062, Note_on_c, 1, 43, 0
3, 76122, Note_on_c, 1, 50, 80
3, 76462, Note_on_c, 1, 50, 0
3, 76506, Note_on_c, 1, 48, 63
3, 76842, Note_on_c, 1, 48, 0
3, 76886, Note_on_c, 1, 42, 57
3, 77242, Note_on_c, 1, 42, 0
3, 77282, Note_on_c, 1, 43, 50
3, 77630, Note_on_c, 1, 43, 0
3, 77646, Note_on_c, 1, 39, 62
3, 78002, Note_on_c, 1, 39, 0
3, 78038, Note_on_c, 1, 36, 48
3, 78410, Note_on_c, 1, 36, 0
3, 78418, Note_on_c, 1, 40, 71
3, 78766, Note_on_c, 1, 40, 0
3, 78802, Note_on_c, 1, 41, 63
3, 79042, Note_on_c, 1, 36, 55
3, 79070, Note_on_c, 1, 41, 0
3, 79170, Note_on_c, 1, 36, 0
3, 79170, Note_on_c, 1, 32, 62
3, 79510, Note_on_c, 1, 32, 0
3, 79530, Note_on_c, 1, 31, 48
3, 79826, Note_on_c, 1, 32, 7
3, 79834, Note_on_c, 1, 31, 0
3, 79886, Note_on_c, 1, 32, 0
3, 79898, Note_on_c, 1, 30, 50
3, 80250, Note_on_c, 1, 30, 0
3, 80314, Note_on_c, 1, 29, 47
3, 80702, Note_on_c, 1, 36, 62
3, 80714, Note_on_c, 1, 29, 0
3, 81078, Note_on_c, 1, 36, 0
3, 81122, Note_on_c, 1, 41, 61
3, 81442, Note_on_c, 1, 41, 0
3, 81486, Note_on_c, 1, 37, 58
3, 81838, Note_on_c, 1, 37, 0
3, 81862, Note_on_c, 1, 38, 55
3, 82238, Note_on_c, 1, 38, 0
3, 82258, Note_on_c, 1, 32, 56
3, 82622, Note_on_c, 1, 32, 0
3, 82642, Note_on_c, 1, 29, 57
3, 82962, Note_on_c, 1, 29, 0
3, 83006, Note_on_c, 1, 30, 71
3, 83366, Note_on_c, 1, 30, 0
3, 83390, Note_on_c, 1, 31, 60
3, 83770, Note_on_c, 1, 31, 0
3, 83790, Note_on_c, 1, 32, 67
3, 84190, Note_on_c, 1, 33, 67
3, 84214, Note_on_c, 1, 32, 0
3, 84538, Note_on_c, 1, 33, 0
3, 84552, Note_on_c, 1, 35, 62
3, 84933, Note_on_c, 1, 35, 0
3, 84942, Note_on_c, 1, 36, 52
3, 85250, Note_on_c, 1, 34, 31
3, 85306, Note_on_c, 1, 34, 0
3, 85306, Note_on_c, 1, 36, 0
3, 85318, Note_on_c, 1, 38, 39
3, 85354, Note_on_c, 1, 40, 18
3, 85410, Note_on_c, 1, 40, 0
3, 85638, Note_on_c, 1, 36, 34
3, 85658, Note_on_c, 1, 38, 0
3, 85694, Note_on_c, 1, 36, 0
3, 85710, Note_on_c, 1, 39, 63
3, 86022, Note_on_c, 1, 36, 38
3, 86058, Note_on_c, 1, 39, 0
3, 86086, Note_on_c, 1, 36, 0
3, 86118, Note_on_c, 1, 43, 62
3, 86374, Note_on_c, 1, 43, 0
3, 86386, Note_on_c, 1, 36, 46
3, 86498, Note_on_c, 1, 36, 0
3, 86498, Note_on_c, 1, 52, 63
3, 86770, Note_on_c, 1, 52, 0
3, 86814, Note_on_c, 1, 41, 20
3, 86866, Note_on_c, 1, 41, 0
3, 86866, Note_on_c, 1, 49, 41
3, 87166, Note_on_c, 1, 42, 23
3, 87214, Note_on_c, 1, 49, 0
3, 87230, Note_on_c, 1, 42, 0
3, 87234, Note_on_c, 1, 48, 50
3, 87534, Note_on_c, 1, 48, 0
3, 87578, Note_on_c, 1, 38, 18
3, 87606, Note_on_c, 1, 45, 45
3, 87634, Note_on_c, 1, 38, 0
3, 87886, Note_on_c, 1, 45, 0
3, 87886, Note_on_c, 1, 39, 30
3, 87998, Note_on_c, 1, 51, 59
3, 88014, Note_on_c, 1, 39, 0
3, 88322, Note_on_c, 1, 51, 0
3, 88330, Note_on_c, 1, 41, 18
3, 88382, Note_on_c, 1, 41, 0
3, 88394, Note_on_c, 1, 51, 63
3, 88678, Note_on_c, 1, 41, 31
3, 88722, Note_on_c, 1, 41, 0
3, 88742, Note_on_c, 1, 51, 0
3, 88770, Note_on_c, 1, 46, 47
3, 89082, Note_on_c, 1, 41, 28
3, 89110, Note_on_c, 1, 46, 0
3, 89122, Note_on_c, 1, 41, 0
3, 89162, Note_on_c, 1, 45, 51
3, 89414, Note_on_c, 1, 39, 18
3, 89474, Note_on_c, 1, 39, 0
3, 89498, Note_on_c, 1, 45, 0
3, 89526, Note_on_c, 1, 44, 50
3, 89906, Note_on_c, 1, 44, 0
3, 89914, Note_on_c, 1, 39, 54
3, 90294, Note_on_c, 1, 39, 0
3, 90298, Note_on_c, 1, 32, 60
3, 90642, Note_on_c, 1, 32, 0
3, 90678, Note_on_c, 1, 36, 56
3, 91022, Note_on_c, 1, 36, 0
3, 91070, Note_on_c, 1, 37, 63
3, 91370, Note_on_c, 1, 37, 0
3, 91454, Note_on_c, 1, 37, 54
3, 91766, Note_on_c, 1, 37, 0
3, 91862, Note_on_c, 1, 39, 66
3, 92158, Note_on_c, 1, 39, 0
3, 92222, Note_on_c, 1, 39, 66
3, 92518, Note_on_c, 1, 39, 0
3, 92606, Note_on_c, 1, 41, 63
3, 92926, Note_on_c, 1, 41, 0
3, 92994, Note_on_c, 1, 41, 64
3, 93326, Note_on_c, 1, 41, 0
3, 93370, Note_on_c, 1, 37, 55
3, 93682, Note_on_c, 1, 37, 0
3, 93750, Note_on_c, 1, 37, 57
3, 94106, Note_on_c, 1, 37, 0
3, 94142, Note_on_c, 1, 38, 48
3, 94406, Note_on_c, 1, 37, 48
3, 94430, Note_on_c, 1, 38, 0
3, 94442, Note_on_c, 1, 37, 0
3, 94530, Note_on_c, 1, 41, 50
3, 94870, Note_on_c, 1, 41, 0
3, 94902, Note_on_c, 1, 44, 60
3, 95238, Note_on_c, 1, 38, 16
3, 95254, Note_on_c, 1, 44, 0
3, 95286, Note_on_c, 1, 42, 51
3, 95298, Note_on_c, 1, 38, 0
3, 95654, Note_on_c, 1, 42, 0
3, 95690, Note_on_c, 1, 43, 48
3, 96006, Note_on_c, 1, 43, 0
3, 96066, Note_on_c, 1, 35, 66
3, 96442, Note_on_c, 1, 35, 0
3, 96470, Note_on_c, 1, 38, 62
3, 96790, Note_on_c, 1, 38, 0
3, 96838, Note_on_c, 1, 35, 55
3, 97190, Note_on_c, 1, 35, 0
3, 97238, Note_on_c, 1, 36, 52
3, 97518, Note_on_c, 1, 34, 30
3, 97538, Note_on_c, 1, 36, 0
3, 97566, Note_on_c, 1, 34, 0
3, 97570, Note_on_c, 1, 43, 48
3, 97894, Note_on_c, 1, 36, 34
3, 97946, Note_on_c, 1, 36, 0
3, 97962, Note_on_c, 1, 43, 0
3, 98014, Note_on_c, 1, 51, 54
3, 98366, Note_on_c, 1, 51, 0
3, 98386, Note_on_c, 1, 43, 45
3, 98642, Note_on_c, 1, 43, 0
3, 98754, Note_on_c, 1, 43, 55
3, 99114, Note_on_c, 1, 43, 0
3, 99150, Note_on_c, 1, 42, 46
3, 99478, Note_on_c, 1, 42, 0
3, 99530, Note_on_c, 1, 43, 45
3, 99714, Note_on_c, 1, 43, 0
3, 99790, Note_on_c, 1, 38, 63
3, 99838, Note_on_c, 1, 38, 0
3, 99910, Note_on_c, 1, 35, 54
3, 100270, Note_on_c, 1, 35, 0
3, 100302, Note_on_c, 1, 36, 50
3, 100582, Note_on_c, 1, 34, 53
3, 100622, Note_on_c, 1, 36, 0
3, 100670, Note_on_c, 1, 51, 65
3, 100694, Note_on_c, 1, 34, 0
3, 101106, Note_on_c, 1, 43, 18
3, 101118, Note_on_c, 1, 51, 0
3, 101318, Note_on_c, 1, 43, 0
3, 101334, Note_on_c, 1, 39, 55
3, 101434, Note_on_c, 1, 39, 0
3, 101470, Note_on_c, 1, 43, 41
3, 101778, Note_on_c, 1, 43, 0
3, 101794, Note_on_c, 1, 36, 16
3, 101826, Note_on_c, 1, 51, 61
3, 101858, Note_on_c, 1, 36, 0
3, 101946, Note_on_c, 1, 52, 10
3, 102018, Note_on_c, 1, 52, 0
3, 102050, Note_on_c, 1, 51, 0
3, 102122, Note_on_c, 1, 37, 15
3, 102182, Note_on_c, 1, 37, 0
3, 102242, Note_on_c, 1, 43, 52
3, 102546, Note_on_c, 1, 36, 55
3, 102554, Note_on_c, 1, 43, 0
3, 102886, Note_on_c, 1, 36, 0
3, 102954, Note_on_c, 1, 40, 54
3, 103330, Note_on_c, 1, 40, 0
3, 103378, Note_on_c, 1, 41, 39
3, 103522, Note_on_c, 1, 41, 0
3, 103622, Note_on_c, 1, 41, 63
3, 103702, Note_on_c, 1, 41, 0
3, 103746, Note_on_c, 1, 44, 47
3, 104034, Note_on_c, 1, 36, 18
3, 104098, Note_on_c, 1, 36, 0
3, 104106, Note_on_c, 1, 44, 0
3, 104154, Note_on_c, 1, 48, 39
3, 104410, Note_on_c, 1, 36, 42
3, 104462, Note_on_c, 1, 48, 0
3, 104478, Note_on_c, 1, 36, 0
3, 104506, Note_on_c, 1, 43, 55
3, 104534, Note_on_c, 1, 44, 32
3, 104578, Note_on_c, 1, 44, 0
3, 104802, Note_on_c, 1, 36, 12
3, 104862, Note_on_c, 1, 36, 0
3, 104882, Note_on_c, 1, 43, 0
3, 104918, Note_on_c, 1, 41, 53
3, 105246, Note_on_c, 1, 41, 0
3, 105290, Note_on_c, 1, 36, 62
3, 105642, Note_on_c, 1, 36, 0
3, 105674, Note_on_c, 1, 32, 55
3, 105978, Note_on_c, 1, 32, 0
3, 106046, Note_on_c, 1, 32, 63
3, 106378, Note_on_c, 1, 32, 0
3, 106434, Note_on_c, 1, 34, 63
3, 106730, Note_on_c, 1, 34, 0
3, 106802, Note_on_c, 1, 34, 63
3, 107086, Note_on_c, 1, 34, 0
3, 107194, Note_on_c, 1, 43, 39
3, 107210, Note_on_c, 1, 42, 18
3, 107406, Note_on_c, 1, 42, 0
3, 107414, Note_on_c, 1, 43, 0
3, 107566, Note_on_c, 1, 37, 63
3, 107918, Note_on_c, 1, 37, 0
3, 107934, Note_on_c, 1, 44, 67
3, 108262, Note_on_c, 1, 38, 25
3, 108302, Note_on_c, 1, 44, 0
3, 108314, Note_on_c, 1, 38, 0
3, 108342, Note_on_c, 1, 43, 47
3, 108738, Note_on_c, 1, 35, 54
3, 108758, Note_on_c, 1, 43, 0
3, 109010, Note_on_c, 1, 35, 0
3, 109102, Note_on_c, 1, 35, 48
3, 109486, Note_on_c, 1, 35, 0
3, 109514, Note_on_c, 1, 36, 54
3, 109690, Note_on_c, 1, 36, 0
3, 109774, Note_on_c, 1, 36, 50
3, 109890, Note_on_c, 1, 36, 0
3, 109894, Note_on_c, 1, 43, 47
3, 110030, Note_on_c, 1, 43, 0
3, 110258, Note_on_c, 1, 51, 57
3, 110554, Note_on_c, 1, 51, 0
3, 110570, Note_on_c, 1, 41, 40
3, 110638, Note_on_c, 1, 41, 0
3, 110658, Note_on_c, 1, 50, 53
3, 110942, Note_on_c, 1, 41, 19
3, 111006, Note_on_c, 1, 41, 0
3, 111018, Note_on_c, 1, 50, 0
3, 111056, Note_on_c, 1, 48, 45
3, 111434, Note_on_c, 1, 48, 0
3, 111438, Note_on_c, 1, 41, 62
3, 111834, Note_on_c, 1, 38, 50
3, 111846, Note_on_c, 1, 41, 0
3, 112082, Note_on_c, 1, 38, 0
3, 112202, Note_on_c, 1, 38, 45
3, 112558, Note_on_c, 1, 38, 0
3, 112606, Note_on_c, 1, 39, 50
3, 112990, Note_on_c, 1, 46, 45
3, 113014, Note_on_c, 1, 39, 0
3, 113270, Note_on_c, 1, 39, 31
3, 113330, Note_on_c, 1, 46, 0
3, 113346, Note_on_c, 1, 39, 0
3, 113382, Note_on_c, 1, 51, 47
3, 113638, Note_on_c, 1, 51, 0
3, 113646, Note_on_c, 1, 39, 26
3, 113718, Note_on_c, 1, 39, 0
3, 113734, Note_on_c, 1, 45, 48
3, 114010, Note_on_c, 1, 39, 24
3, 114074, Note_on_c, 1, 39, 0
3, 114122, Note_on_c, 1, 44, 50
3, 114126, Note_on_c, 1, 45, 0
3, 114418, Note_on_c, 1, 39, 30
3, 114470, Note_on_c, 1, 39, 0
3, 114474, Note_on_c, 1, 44, 0
3, 114498, Note_on_c, 1, 51, 48
3, 114798, Note_on_c, 1, 39, 14
3, 114842, Note_on_c, 1, 51, 0
3, 114874, Note_on_c, 1, 39, 0
3, 114898, Note_on_c, 1, 44, 48
3, 115174, Note_on_c, 1, 39, 35
3, 115190, Note_on_c, 1, 44, 0
3, 115262, Note_on_c, 1, 39, 0
3, 115262, Note_on_c, 1, 50, 44
3, 115554, Note_on_c, 1, 39, 36
3, 115582, Note_on_c, 1, 50, 0
3, 115630, Note_on_c, 1, 39, 0
3, 115646, Note_on_c, 1, 49, 50
3, 115934, Note_on_c, 1, 39, 27
3, 116010, Note_on_c, 1, 39, 0
3, 116038, Note_on_c, 1, 44, 55
3, 116042, Note_on_c, 1, 49, 0
3, 116422, Note_on_c, 1, 44, 0
3, 116422, Note_on_c, 1, 41, 48
3, 116766, Note_on_c, 1, 41, 0
3, 116810, Note_on_c, 1, 44, 51
3, 117162, Note_on_c, 1, 44, 0
3, 117198, Note_on_c, 1, 36, 49
3, 117578, Note_on_c, 1, 36, 0
3, 117578, Note_on_c, 1, 37, 55
3, 117898, Note_on_c, 1, 37, 0
3, 117982, Note_on_c, 1, 41, 48
3, 118274, Note_on_c, 1, 41, 0
3, 118338, Note_on_c, 1, 37, 58
3, 118670, Note_on_c, 1, 37, 0
3, 118698, Note_on_c, 1, 38, 59
3, 119070, Note_on_c, 1, 38, 0
3, 119086, Note_on_c, 1, 44, 68
3, 119466, Note_on_c, 1, 32, 67
3, 119510, Note_on_c, 1, 44, 0
3, 119762, Note_on_c, 1, 32, 0
3, 119826, Note_on_c, 1, 30, 47
3, 120178, Note_on_c, 1, 30, 0
3, 120254, Note_on_c, 1, 31, 57
3, 120618, Note_on_c, 1, 31, 0
3, 120654, Note_on_c, 1, 47, 50
3, 120990, Note_on_c, 1, 47, 0
3, 121046, Note_on_c, 1, 43, 49
3, 121398, Note_on_c, 1, 43, 0
3, 121402, Note_on_c, 1, 35, 57
3, 121786, Note_on_c, 1, 35, 0
3, 121802, Note_on_c, 1, 36, 56
3, 122114, Note_on_c, 1, 34, 39
3, 122158, Note_on_c, 1, 36, 0
3, 122178, Note_on_c, 1, 43, 50
3, 122234, Note_on_c, 1, 34, 0
3, 122494, Note_on_c, 1, 36, 20
3, 122526, Note_on_c, 1, 43, 0
3, 122554, Note_on_c, 1, 36, 0
3, 122578, Note_on_c, 1, 51, 48
3, 122866, Note_on_c, 1, 51, 0
3, 122946, Note_on_c, 1, 50, 50
3, 123214, Note_on_c, 1, 42, 26
3, 123258, Note_on_c, 1, 42, 0
3, 123302, Note_on_c, 1, 50, 0
3, 123346, Note_on_c, 1, 48, 48
3, 123698, Note_on_c, 1, 48, 0
3, 123722, Note_on_c, 1, 42, 49
3, 124082, Note_on_c, 1, 42, 0
3, 124102, Note_on_c, 1, 43, 50
3, 124366, Note_on_c, 1, 42, 48
3, 124434, Note_on_c, 1, 43, 0
3, 124478, Note_on_c, 1, 53, 66
3, 124538, Note_on_c, 1, 42, 0
3, 124830, Note_on_c, 1, 53, 0
3, 124870, Note_on_c, 1, 51, 55
3, 125202, Note_on_c, 1, 51, 0
3, 125266, Note_on_c, 1, 50, 42
3, 125590, Note_on_c, 1, 50, 0
3, 125630, Note_on_c, 1, 48, 45
3, 125998, Note_on_c, 1, 48, 0
3, 126006, Note_on_c, 1, 43, 57
3, 126398, Note_on_c, 1, 43, 0
3, 126402, Note_on_c, 1, 51, 63
3, 126714, Note_on_c, 1, 43, 40
3, 126746, Note_on_c, 1, 51, 0
3, 126762, Note_on_c, 1, 43, 0
3, 126798, Note_on_c, 1, 50, 54
3, 127114, Note_on_c, 1, 50, 0
3, 127174, Note_on_c, 1, 48, 54
3, 127510, Note_on_c, 1, 48, 0
3, 127546, Note_on_c, 1, 40, 64
3, 127886, Note_on_c, 1, 40, 0
3, 127922, Note_on_c, 1, 41, 45
3, 128062, Note_on_c, 1, 41, 0
3, 128182, Note_on_c, 1, 41, 53
3, 128254, Note_on_c, 1, 41, 0
3, 128286, Note_on_c, 1, 44, 58
3, 128602, Note_on_c, 1, 36, 17
3, 128662, Note_on_c, 1, 36, 0
3, 128662, Note_on_c, 1, 44, 0
3, 128706, Note_on_c, 1, 46, 47
3, 128998, Note_on_c, 1, 36, 30
3, 129026, Note_on_c, 1, 46, 0
3, 129054, Note_on_c, 1, 36, 0
3, 129079, Note_on_c, 1, 43, 48
3, 129318, Note_on_c, 1, 36, 30
3, 129378, Note_on_c, 1, 36, 0
3, 129438, Note_on_c, 1, 43, 0
3, 129470, Note_on_c, 1, 41, 48
3, 129826, Note_on_c, 1, 41, 0
3, 129838, Note_on_c, 1, 36, 49
3, 130222, Note_on_c, 1, 36, 0
3, 130230, Note_on_c, 1, 32, 44
3, 130598, Note_on_c, 1, 32, 0
3, 130622, Note_on_c, 1, 39, 69
3, 131014, Note_on_c, 1, 39, 0
3, 131018, Note_on_c, 1, 38, 51
3, 131354, Note_on_c, 1, 38, 0
3, 131394, Note_on_c, 1, 32, 55
3, 131754, Note_on_c, 1, 32, 0
3, 131766, Note_on_c, 1, 41, 55
3, 132090, Note_on_c, 1, 32, 42
3, 132130, Note_on_c, 1, 41, 0
3, 132166, Note_on_c, 1, 44, 64
3, 132178, Note_on_c, 1, 32, 0
3, 132554, Note_on_c, 1, 43, 48
3, 132882, Note_on_c, 1, 44, 0
3, 132910, Note_on_c, 1, 43, 0
3, 132938, Note_on_c, 1, 31, 67
3, 133322, Note_on_c, 1, 47, 72
3, 133354, Note_on_c, 1, 31, 0
3, 133630, Note_on_c, 1, 47, 0
3, 133650, Note_on_c, 1, 38, 21
3, 133706, Note_on_c, 1, 38, 0
3, 133714, Note_on_c, 1, 50, 64
3, 134010, Note_on_c, 1, 36, 34
3, 134030, Note_on_c, 1, 50, 0
3, 134054, Note_on_c, 1, 36, 0
3, 134102, Note_on_c, 1, 48, 52
3, 134366, Note_on_c, 1, 48, 0
3, 134374, Note_on_c, 1, 36, 43
3, 134462, Note_on_c, 1, 36, 0
3, 134470, Note_on_c, 1, 50, 54
3, 134818, Note_on_c, 1, 50, 0
3, 134862, Note_on_c, 1, 51, 60
3, 135214, Note_on_c, 1, 51, 0
3, 135250, Note_on_c, 1, 48, 52
3, 135294, Note_on_c, 1, 49, 7
3, 135338, Note_on_c, 1, 49, 0
3, 135558, Note_on_c, 1, 48, 0
3, 135622, Note_on_c, 1, 43, 54
3, 135918, Note_on_c, 1, 43, 0
3, 135926, Note_on_c, 1, 37, 25
3, 135974, Note_on_c, 1, 37, 0
3, 136014, Note_on_c, 1, 51, 59
3, 136314, Note_on_c, 1, 51, 0
3, 136394, Note_on_c, 1, 43, 49
3, 136746, Note_on_c, 1, 43, 0
3, 136762, Note_on_c, 1, 38, 64
3, 137134, Note_on_c, 1, 38, 0
3, 137166, Note_on_c, 1, 39, 59
3, 137330, Note_on_c, 1, 39, 0
3, 137406, Note_on_c, 1, 39, 54
3, 137530, Note_on_c, 1, 41, 62
3, 137554, Note_on_c, 1, 39, 0
3, 137886, Note_on_c, 1, 41, 0
3, 137898, Note_on_c, 1, 42, 54
3, 138294, Note_on_c, 1, 43, 59
3, 138298, Note_on_c, 1, 42, 0
3, 138566, Note_on_c, 1, 39, 41
3, 138578, Note_on_c, 1, 43, 0
3, 138673, Note_on_c, 1, 39, 0
3, 138678, Note_on_c, 1, 44, 56
3, 139062, Note_on_c, 1, 46, 43
3, 139178, Note_on_c, 1, 44, 0
3, 139366, Note_on_c, 1, 44, 29
3, 139398, Note_on_c, 1, 46, 0
3, 139410, Note_on_c, 1, 44, 0
3, 139474, Note_on_c, 1, 48, 45
3, 139486, Note_on_c, 1, 49, 37
3, 139738, Note_on_c, 1, 41, 39
3, 139754, Note_on_c, 1, 49, 0
3, 139774, Note_on_c, 1, 48, 0
3, 139846, Note_on_c, 1, 41, 0
3, 139862, Note_on_c, 1, 48, 58
3, 140166, Note_on_c, 1, 41, 27
3, 140182, Note_on_c, 1, 48, 0
3, 140214, Note_on_c, 1, 41, 0
3, 140238, Note_on_c, 1, 49, 63
3, 140590, Note_on_c, 1, 49, 0
3, 140626, Note_on_c, 1, 44, 51
3, 141002, Note_on_c, 1, 41, 51
3, 141126, Note_on_c, 1, 44, 0
3, 141266, Note_on_c, 1, 41, 0
3, 141290, Note_on_c, 1, 37, 50
3, 141390, Note_on_c, 1, 49, 54
3, 141402, Note_on_c, 1, 37, 0
3, 141742, Note_on_c, 1, 49, 0
3, 141770, Note_on_c, 1, 44, 54
3, 142098, Note_on_c, 1, 44, 0
3, 142170, Note_on_c, 1, 41, 45
3, 142534, Note_on_c, 1, 36, 64
3, 142538, Note_on_c, 1, 41, 0
3, 142894, Note_on_c, 1, 36, 0
3, 142914, Note_on_c, 1, 37, 57
3, 143254, Note_on_c, 1, 37, 0
3, 143278, Note_on_c, 1, 38, 59
3, 143622, Note_on_c, 1, 38, 0
3, 143626, Note_on_c, 1, 37, 6
3, 143678, Note_on_c, 1, 44, 67
3, 143686, Note_on_c, 1, 37, 0
3, 143954, Note_on_c, 1, 39, 30
3, 143994, Note_on_c, 1, 44, 0
3, 144006, Note_on_c, 1, 39, 0
3, 144062, Note_on_c, 1, 48, 54
3, 144302, Note_on_c, 1, 39, 47
3, 144314, Note_on_c, 1, 48, 0
3, 144414, Note_on_c, 1, 39, 0
3, 144422, Note_on_c, 1, 44, 67
3, 144718, Note_on_c, 1, 38, 21
3, 144770, Note_on_c, 1, 38, 0
3, 144794, Note_on_c, 1, 44, 0
3, 144826, Note_on_c, 1, 43, 57
3, 145186, Note_on_c, 1, 38, 53
3, 145474, Note_on_c, 1, 43, 0
3, 145522, Note_on_c, 1, 38, 0
3, 145594, Note_on_c, 1, 35, 63
3, 145974, Note_on_c, 1, 50, 68
3, 146010, Note_on_c, 1, 35, 0
3, 146306, Note_on_c, 1, 50, 0
3, 146366, Note_on_c, 1, 48, 63
3, 146666, Note_on_c, 1, 38, 32
3, 146694, Note_on_c, 1, 48, 0
3, 146710, Note_on_c, 1, 38, 0
3, 146746, Note_on_c, 1, 46, 59
3, 147058, Note_on_c, 1, 40, 17
3, 147066, Note_on_c, 1, 46, 0
3, 147118, Note_on_c, 1, 40, 0
3, 147134, Note_on_c, 1, 45, 56
3, 147162, Note_on_c, 1, 46, 26
3, 147318, Note_on_c, 1, 46, 0
3, 147438, Note_on_c, 1, 40, 35
3, 147458, Note_on_c, 1, 45, 0
3, 147490, Note_on_c, 1, 40, 0
3, 147506, Note_on_c, 1, 44, 59
3, 147862, Note_on_c, 1, 44, 0
3, 147902, Note_on_c, 1, 43, 48
3, 148082, Note_on_c, 1, 43, 0
3, 148166, Note_on_c, 1, 38, 59
3, 148270, Note_on_c, 1, 38, 0
3, 148310, Note_on_c, 1, 35, 64
3, 148650, Note_on_c, 1, 35, 0
3, 148674, Note_on_c, 1, 38, 61
3, 149002, Note_on_c, 1, 38, 0
3, 149038, Note_on_c, 1, 35, 61
3, 149382, Note_on_c, 1, 35, 0
3, 149450, Note_on_c, 1, 36, 61
3, 149666, Note_on_c, 1, 36, 0
3, 149806, Note_on_c, 1, 43, 58
3, 150118, Note_on_c, 1, 36, 27
3, 150162, Note_on_c, 1, 43, 0
3, 150170, Note_on_c, 1, 36, 0
3, 150226, Note_on_c, 1, 51, 57
3, 150574, Note_on_c, 1, 51, 0
3, 150582, Note_on_c, 1, 43, 54
3, 150946, Note_on_c, 1, 43, 0
3, 150978, Note_on_c, 1, 36, 57
3, 151190, Note_on_c, 1, 36, 0
3, 151250, Note_on_c, 1, 36, 57
3, 151354, Note_on_c, 1, 43, 55
3, 151386, Note_on_c, 1, 36, 0
3, 151718, Note_on_c, 1, 51, 57
3, 151778, Note_on_c, 1, 43, 0
3, 151990, Note_on_c, 1, 39, 47
3, 152006, Note_on_c, 1, 51, 0
3, 152062, Note_on_c, 1, 39, 0
3, 152114, Note_on_c, 1, 40, 54
3, 152410, Note_on_c, 1, 39, 24
3, 152458, Note_on_c, 1, 39, 0
3, 152470, Note_on_c, 1, 40, 0
3, 152498, Note_on_c, 1, 41, 51
3, 152678, Note_on_c, 1, 41, 0
3, 152758, Note_on_c, 1, 41, 63
3, 152846, Note_on_c, 1, 41, 0
3, 152890, Note_on_c, 1, 48, 58
3, 152902, Note_on_c, 1, 50, 63
3, 152934, Note_on_c, 1, 50, 0
3, 153262, Note_on_c, 1, 48, 0
3, 153282, Note_on_c, 1, 44, 54
3, 153570, Note_on_c, 1, 36, 42
3, 153642, Note_on_c, 1, 44, 0
3, 153662, Note_on_c, 1, 36, 0
3, 153670, Note_on_c, 1, 41, 59
3, 154054, Note_on_c, 1, 41, 0
3, 154070, Note_on_c, 1, 36, 44
3, 154338, Note_on_c, 1, 36, 0
3, 154430, Note_on_c, 1, 30, 50
3, 154566, Note_on_c, 1, 31, 13
3, 154670, Note_on_c, 1, 31, 0
3, 154686, Note_on_c, 1, 30, 0
3, 154838, Note_on_c, 1, 29, 56
3, 155142, Note_on_c, 1, 29, 0
3, 155206, Note_on_c, 1, 37, 57
3, 155582, Note_on_c, 1, 37, 0
3, 155586, Note_on_c, 1, 38, 54
3, 155874, Note_on_c, 1, 37, 45
3, 155930, Note_on_c, 1, 38, 0
3, 155990, Note_on_c, 1, 44, 65
3, 156006, Note_on_c, 1, 37, 0
3, 156258, Note_on_c, 1, 37, 24
3, 156322, Note_on_c, 1, 37, 0
3, 156370, Note_on_c, 1, 41, 54
3, 156426, Note_on_c, 1, 44, 0
3, 156646, Note_on_c, 1, 37, 50
3, 156654, Note_on_c, 1, 41, 0
3, 156758, Note_on_c, 1, 37, 0
3, 156762, Note_on_c, 1, 42, 57
3, 157038, Note_on_c, 1, 37, 29
3, 157090, Note_on_c, 1, 37, 0
3, 157118, Note_on_c, 1, 42, 0
3, 157138, Note_on_c, 1, 43, 57
3, 157430, Note_on_c, 1, 43, 0
3, 157430, Note_on_c, 1, 38, 80
3, 157918, Note_on_c, 1, 35, 45
3, 157930, Note_on_c, 1, 38, 0
3, 158202, Note_on_c, 1, 35, 0
3, 158262, Note_on_c, 1, 31, 48
3, 158666, Note_on_c, 1, 36, 53
3, 158754, Note_on_c, 1, 31, 0
3, 158846, Note_on_c, 1, 36, 0
3, 158930, Note_on_c, 1, 36, 54
3, 159034, Note_on_c, 1, 43, 55
3, 159058, Note_on_c, 1, 36, 0
3, 159346, Note_on_c, 1, 43, 0
3, 159354, Note_on_c, 1, 38, 27
3, 159406, Note_on_c, 1, 38, 0
3, 159454, Note_on_c, 1, 51, 48
3, 159710, Note_on_c, 1, 51, 0
3, 159754, Note_on_c, 1, 43, 17
3, 159806, Note_on_c, 1, 50, 50
3, 159814, Note_on_c, 1, 43, 0
3, 160062, Note_on_c, 1, 43, 31
3, 160090, Note_on_c, 1, 42, 23
3, 160102, Note_on_c, 1, 43, 0
3, 160130, Note_on_c, 1, 50, 0
3, 160142, Note_on_c, 1, 42, 0
3, 160186, Note_on_c, 1, 48, 47
3, 160538, Note_on_c, 1, 48, 0
3, 160558, Note_on_c, 1, 43, 54
3, 160610, Note_on_c, 1, 49, 11
3, 160798, Note_on_c, 1, 43, 0
3, 160882, Note_on_c, 1, 49, 0
3, 160934, Note_on_c, 1, 40, 72
3, 161298, Note_on_c, 1, 40, 0
3, 161326, Note_on_c, 1, 38, 55
3, 161654, Note_on_c, 1, 38, 0
3, 161710, Note_on_c, 1, 39, 66
3, 162350, Note_on_c, 1, 34, 65
3, 162366, Note_on_c, 1, 39, 0
3, 162830, Note_on_c, 1, 34, 0
3, 162870, Note_on_c, 1, 33, 64
3, 163206, Note_on_c, 1, 33, 0
3, 163262, Note_on_c, 1, 32, 58
3, 163630, Note_on_c, 1, 44, 67
3, 163698, Note_on_c, 1, 32, 0
3, 163862, Note_on_c, 1, 39, 32
3, 163978, Note_on_c, 1, 44, 0
3, 164018, Note_on_c, 1, 39, 0
3, 164030, Note_on_c, 1, 48, 56
3, 164270, Note_on_c, 1, 36, 89
3, 164358, Note_on_c, 1, 48, 0
3, 164834, Note_on_c, 1, 36, 0
3, 164834, Note_on_c, 1, 37, 61
3, 165198, Note_on_c, 1, 44, 51
3, 165246, Note_on_c, 1, 37, 0
3, 165442, Note_on_c, 1, 37, 34
3, 165506, Note_on_c, 1, 44, 0
3, 165558, Note_on_c, 1, 37, 0
3, 165574, Note_on_c, 1, 51, 50
3, 165826, Note_on_c, 1, 37, 31
3, 165870, Note_on_c, 1, 51, 0
3, 165926, Note_on_c, 1, 37, 0
3, 165958, Note_on_c, 1, 49, 48
3, 166242, Note_on_c, 1, 49, 0
3, 166242, Note_on_c, 1, 37, 27
3, 166302, Note_on_c, 1, 37, 0
3, 166318, Note_on_c, 1, 48, 39
3, 166614, Note_on_c, 1, 37, 36
3, 166654, Note_on_c, 1, 48, 0
3, 166734, Note_on_c, 1, 37, 0
3, 166734, Note_on_c, 1, 49, 62
3, 167110, Note_on_c, 1, 49, 0
3, 167126, Note_on_c, 1, 44, 46
3, 167358, Note_on_c, 1, 44, 0
3, 167378, Note_on_c, 1, 39, 70
3, 167790, Note_on_c, 1, 37, 39
3, 167826, Note_on_c, 1, 39, 0
3, 167874, Note_on_c, 1, 38, 55
3, 167886, Note_on_c, 1, 37, 0
3, 168534, Note_on_c, 1, 37, 40
3, 168614, Note_on_c, 1, 38, 0
3, 168646, Note_on_c, 1, 44, 76
3, 168674, Note_on_c, 1, 37, 0
3, 169290, Note_on_c, 1, 38, 50
3, 169334, Note_on_c, 1, 38, 0
3, 169374, Note_on_c, 1, 44, 0
3, 169402, Note_on_c, 1, 43, 63
3, 169998, Note_on_c, 1, 38, 52
3, 170078, Note_on_c, 1, 43, 0
3, 170102, Note_on_c, 1, 38, 0
3, 170150, Note_on_c, 1, 35, 64
3, 170802, Note_on_c, 1, 35, 0
3, 170830, Note_on_c, 1, 36, 78
3, 171642, Note_on_c, 1, 34, 34
3, 171730, Note_on_c, 1, 48, 70
3, 171742, Note_on_c, 1, 36, 0
3, 171806, Note_on_c, 1, 34, 0
3, 172390, Note_on_c, 1, 36, 37
3, 172438, Note_on_c, 1, 48, 0
3, 172486, Note_on_c, 1, 36, 0
3, 172490, Note_on_c, 1, 51, 65
3, 173138, Note_on_c, 1, 50, 61
3, 173462, Note_on_c, 1, 51, 0
3, 173474, Note_on_c, 1, 50, 0
3, 173526, Note_on_c, 1, 46, 40
3, 173646, Note_on_c, 1, 46, 0
3, 173650, Note_on_c, 1, 47, 55
3, 173982, Note_on_c, 1, 47, 0
3, 174034, Note_on_c, 1, 48, 52
3, 174338, Note_on_c, 1, 48, 0
3, 174422, Note_on_c, 1, 42, 37
3, 174734, Note_on_c, 1, 42, 0
3, 174786, Note_on_c, 1, 43, 38
3, 175150, Note_on_c, 1, 43, 0
3, 175166, Note_on_c, 1, 39, 42
3, 175498, Note_on_c, 1, 39, 0
3, 175542, Note_on_c, 1, 38, 38
3, 175902, Note_on_c, 1, 38, 0
3, 175926, Note_on_c, 1, 37, 41
3, 176254, Note_on_c, 1, 37, 0
3, 176310, Note_on_c, 1, 36, 40
3, 176694, Note_on_c, 1, 36, 0
3, 176694, Note_on_c, 1, 30, 62
3, 177058, Note_on_c, 1, 30, 0
3, 177070, Note_on_c, 1, 29, 48
3, 177434, Note_on_c, 1, 29, 0
3, 177470, Note_on_c, 1, 36, 62
3, 177822, Note_on_c, 1, 36, 0
3, 177850, Note_on_c, 1, 44, 66
3, 178126, Note_on_c, 1, 36, 40
3, 178146, Note_on_c, 1, 44, 0
3, 178206, Note_on_c, 1, 36, 0
3, 178214, Note_on_c, 1, 43, 65
3, 178502, Note_on_c, 1, 36, 23
3, 178558, Note_on_c, 1, 36, 0
3, 178594, Note_on_c, 1, 43, 0
3, 178634, Note_on_c, 1, 41, 50
3, 178978, Note_on_c, 1, 41, 0
3, 179014, Note_on_c, 1, 36, 54
3, 179370, Note_on_c, 1, 36, 0
3, 179402, Note_on_c, 1, 40, 54
3, 179754, Note_on_c, 1, 40, 0
3, 179790, Note_on_c, 1, 39, 51
3, 180138, Note_on_c, 1, 39, 0
3, 180154, Note_on_c, 1, 38, 57
3, 180502, Note_on_c, 1, 37, 31
3, 180514, Note_on_c, 1, 38, 0
3, 180546, Note_on_c, 1, 37, 0
3, 180546, Note_on_c, 1, 44, 63
3, 180898, Note_on_c, 1, 44, 0
3, 180950, Note_on_c, 1, 48, 54
3, 181314, Note_on_c, 1, 42, 60
3, 181358, Note_on_c, 1, 48, 0
3, 181666, Note_on_c, 1, 42, 0
3, 181690, Note_on_c, 1, 43, 58
3, 182082, Note_on_c, 1, 43, 0
3, 182086, Note_on_c, 1, 53, 99
3, 182430, Note_on_c, 1, 53, 0
3, 182470, Note_on_c, 1, 51, 57
3, 182774, Note_on_c, 1, 47, 40
3, 182798, Note_on_c, 1, 51, 0
3, 182822, Note_on_c, 1, 47, 0
3, 182850, Note_on_c, 1, 50, 56
3, 182890, Note_on_c, 1, 51, 21
3, 182946, Note_on_c, 1, 51, 0
3, 183206, Note_on_c, 1, 50, 0
3, 183254, Note_on_c, 1, 48, 56
3, 183574, Note_on_c, 1, 48, 0
3, 183642, Note_on_c, 1, 42, 60
3, 183986, Note_on_c, 1, 42, 0
3, 184014, Note_on_c, 1, 43, 51
3, 184334, Note_on_c, 1, 43, 0
3, 184386, Note_on_c, 1, 39, 57
3, 184710, Note_on_c, 1, 39, 0
3, 184758, Note_on_c, 1, 38, 53
3, 185118, Note_on_c, 1, 38, 0
3, 185146, Note_on_c, 1, 36, 51
3, 185526, Note_on_c, 1, 36, 0
3, 185546, Note_on_c, 1, 38, 57
3, 185902, Note_on_c, 1, 38, 0
3, 185918, Note_on_c, 1, 40, 62
3, 186294, Note_on_c, 1, 40, 0
3, 186318, Note_on_c, 1, 39, 52
3, 186670, Note_on_c, 1, 44, 53
3, 186746, Note_on_c, 1, 39, 0
3, 187058, Note_on_c, 1, 44, 0
3, 187058, Note_on_c, 1, 51, 63
3, 187398, Note_on_c, 1, 51, 0
3, 187458, Note_on_c, 1, 50, 47
3, 187702, Note_on_c, 1, 44, 30
3, 187781, Note_on_c, 1, 44, 0
3, 187810, Note_on_c, 1, 50, 0
3, 187858, Note_on_c, 1, 49, 45
3, 188110, Note_on_c, 1, 44, 30
3, 188166, Note_on_c, 1, 44, 0
3, 188230, Note_on_c, 1, 49, 0
3, 188230, Note_on_c, 1, 48, 53
3, 188606, Note_on_c, 1, 44, 42
3, 188658, Note_on_c, 1, 48, 0
3, 188942, Note_on_c, 1, 44, 0
3, 188986, Note_on_c, 1, 39, 47
3, 189358, Note_on_c, 1, 39, 0
3, 189402, Note_on_c, 1, 37, 46
3, 189534, Note_on_c, 1, 37, 0
3, 189642, Note_on_c, 1, 37, 52
3, 189770, Note_on_c, 1, 44, 62
3, 189786, Note_on_c, 1, 37, 0
3, 190134, Note_on_c, 1, 53, 53
3, 190442, Note_on_c, 1, 37, 34
3, 190454, Note_on_c, 1, 44, 0
3, 190486, Note_on_c, 1, 53, 0
3, 190498, Note_on_c, 1, 37, 0
3, 190550, Note_on_c, 1, 51, 48
3, 190914, Note_on_c, 1, 51, 0
3, 190938, Note_on_c, 1, 49, 57
3, 191194, Note_on_c, 1, 44, 30
3, 191282, Note_on_c, 1, 44, 0
3, 191310, Note_on_c, 1, 48, 57
3, 191326, Note_on_c, 1, 49, 0
3, 191594, Note_on_c, 1, 44, 36
3, 191642, Note_on_c, 1, 44, 0
3, 191642, Note_on_c, 1, 48, 0
3, 191706, Note_on_c, 1, 49, 55
3, 192002, Note_on_c, 1, 44, 32
3, 192030, Note_on_c, 1, 49, 0
3, 192046, Note_on_c, 1, 44, 0
3, 192102, Note_on_c, 1, 50, 64
3, 192366, Note_on_c, 1, 50, 0
3, 192438, Note_on_c, 1, 44, 52
3, 192722, Note_on_c, 1, 44, 0
3, 192810, Note_on_c, 1, 44, 51
3, 193178, Note_on_c, 1, 44, 0
3, 193206, Note_on_c, 1, 41, 52
3, 193494, Note_on_c, 1, 38, 41
3, 193510, Note_on_c, 1, 41, 0
3, 193586, Note_on_c, 1, 38, 0
3, 193598, Note_on_c, 1, 42, 48
3, 193938, Note_on_c, 1, 42, 0
3, 193974, Note_on_c, 1, 43, 55
3, 194302, Note_on_c, 1, 43, 0
3, 194382, Note_on_c, 1, 31, 55
3, 194778, Note_on_c, 1, 38, 47
3, 194850, Note_on_c, 1, 31, 0
3, 195090, Note_on_c, 1, 38, 0
3, 195130, Note_on_c, 1, 35, 54
3, 195470, Note_on_c, 1, 35, 0
3, 195542, Note_on_c, 1, 36, 43
3, 195638, Note_on_c, 1, 36, 0
3, 195754, Note_on_c, 1, 36, 50
3, 195874, Note_on_c, 1, 36, 0
3, 195886, Note_on_c, 1, 43, 53
3, 196242, Note_on_c, 1, 43, 0
3, 196294, Note_on_c, 1, 51, 56
3, 196590, Note_on_c, 1, 36, 32
3, 196646, Note_on_c, 1, 36, 0
3, 196674, Note_on_c, 1, 43, 56
3, 196730, Note_on_c, 1, 51, 0
3, 197298, Note_on_c, 1, 43, 0
3, 197342, Note_on_c, 1, 36, 45
3, 197394, Note_on_c, 1, 36, 0
3, 197442, Note_on_c, 1, 43, 60
3, 198070, Note_on_c, 1, 43, 0
3, 198102, Note_on_c, 1, 36, 49
3, 198166, Note_on_c, 1, 36, 0
3, 198198, Note_on_c, 1, 43, 59
3, 198498, Note_on_c, 1, 36, 30
3, 198522, Note_on_c, 1, 43, 0
3, 198546, Note_on_c, 1, 36, 0
3, 198598, Note_on_c, 1, 43, 64
3, 201134, Note_on_c, 1, 36, 38
3, 201146, Note_on_c, 1, 43, 0
3, 201182, Note_on_c, 1, 36, 0
3, 201262, Note_on_c, 1, 43, 57
3, 201910, Note_on_c, 1, 43, 0
3, 201922, Note_on_c, 1, 36, 36
3, 201974, Note_on_c, 1, 36, 0
3, 202018, Note_on_c, 1, 43, 54
3, 202346, Note_on_c, 1, 43, 0
3, 202438, Note_on_c, 1, 43, 58
3, 203090, Note_on_c, 1, 43, 0
3, 203094, Note_on_c, 1, 36, 20
3, 203154, Note_on_c, 1, 36, 0
3, 203198, Note_on_c, 1, 43, 54
3, 203694, Note_on_c, 1, 43, 0
3, 203818, Note_on_c, 1, 43, 48
3, 204194, Note_on_c, 1, 43, 0
3, 204222, Note_on_c, 1, 36, 31
3, 204278, Note_on_c, 1, 36, 0
3, 204278, End_track
4, 0, Start_track
4, 0, Title_t, "Track 3"
4, 0, End_track
5, 0, Start_track
5, 0, Title_t, "Track 4"
5, 0, End_track
6, 0, Start_track
6, 0, Title_t, "Track 5"
6, 0, End_track
7, 0, Start_track
7, 0, Title_t, "Track 6"
7, 0, End_track
8, 0, Start_track
8, 0, Title_t, "Track 7"
8, 0, End_track
9, 0, Start_track
9, 0, Title_t, "Track 8"
9, 0, End_track
10, 0, Start_track
10, 0, Title_t, "Track 9"
10, 0, End_track
11, 0, Start_track
11, 0, Title_t, "Track 10"
11, 402, Program_c, 9, 40
11, 403, Control_c, 9, 7, 100
11, 1582, Note_on_c, 9, 42, 100
11, 1630, Note_on_c, 9, 42, 0
11, 1834, Note_on_c, 9, 39, 71
11, 1943, Note_on_c, 9, 49, 41
11, 1966, Note_on_c, 9, 42, 10
11, 1966, Note_on_c, 9, 36, 35
11, 1966, Note_on_c, 9, 40, 37
11, 2052, Note_on_c, 9, 40, 0
11, 2052, Note_on_c, 9, 42, 0
11, 2218, Note_on_c, 9, 39, 0
11, 2324, Note_on_c, 9, 40, 35
11, 2327, Note_on_c, 9, 49, 0
11, 2350, Note_on_c, 9, 36, 0
11, 2359, Note_on_c, 9, 44, 127
11, 2500, Note_on_c, 9, 44, 0
11, 2705, Note_on_c, 9, 40, 0
11, 2732, Note_on_c, 9, 40, 28
11, 3092, Note_on_c, 9, 40, 25
11, 3113, Note_on_c, 9, 40, 0
11, 3127, Note_on_c, 9, 44, 127
11, 3278, Note_on_c, 9, 44, 0
11, 3473, Note_on_c, 9, 40, 0
11, 3476, Note_on_c, 9, 40, 32
11, 3857, Note_on_c, 9, 40, 0
11, 3860, Note_on_c, 9, 40, 35
11, 3895, Note_on_c, 9, 44, 127
11, 4033, Note_on_c, 9, 44, 0
11, 4241, Note_on_c, 9, 40, 0
11, 4244, Note_on_c, 9, 40, 28
11, 4510, Note_on_c, 9, 39, 110
11, 4596, Note_on_c, 9, 39, 0
11, 4625, Note_on_c, 9, 40, 0
11, 4628, Note_on_c, 9, 40, 25
11, 4663, Note_on_c, 9, 44, 127
11, 4830, Note_on_c, 9, 44, 0
11, 5009, Note_on_c, 9, 40, 0
11, 5012, Note_on_c, 9, 40, 32
11, 5393, Note_on_c, 9, 40, 0
11, 5396, Note_on_c, 9, 40, 35
11, 5431, Note_on_c, 9, 44, 127
11, 5585, Note_on_c, 9, 44, 0
11, 5777, Note_on_c, 9, 40, 0
11, 5780, Note_on_c, 9, 40, 28
11, 6161, Note_on_c, 9, 40, 0
11, 6164, Note_on_c, 9, 40, 25
11, 6199, Note_on_c, 9, 44, 127
11, 6340, Note_on_c, 9, 44, 0
11, 6545, Note_on_c, 9, 40, 0
11, 6548, Note_on_c, 9, 40, 32
11, 6929, Note_on_c, 9, 40, 0
11, 6932, Note_on_c, 9, 40, 35
11, 6967, Note_on_c, 9, 44, 127
11, 7108, Note_on_c, 9, 40, 0
11, 7194, Note_on_c, 9, 39, 113
11, 7290, Note_on_c, 9, 39, 0
11, 7310, Note_on_c, 9, 44, 0
11, 7316, Note_on_c, 9, 40, 28
11, 7697, Note_on_c, 9, 40, 0
11, 7700, Note_on_c, 9, 40, 25
11, 7735, Note_on_c, 9, 44, 127
11, 7876, Note_on_c, 9, 40, 0
11, 8058, Note_on_c, 9, 44, 0
11, 8084, Note_on_c, 9, 40, 32
11, 8465, Note_on_c, 9, 40, 0
11, 8468, Note_on_c, 9, 40, 35
11, 8503, Note_on_c, 9, 44, 127
11, 8644, Note_on_c, 9, 40, 0
11, 8839, Note_on_c, 9, 44, 0
11, 8852, Note_on_c, 9, 40, 28
11, 9233, Note_on_c, 9, 40, 0
11, 9236, Note_on_c, 9, 40, 25
11, 9271, Note_on_c, 9, 44, 127
11, 9412, Note_on_c, 9, 40, 0
11, 9598, Note_on_c, 9, 44, 0
11, 9620, Note_on_c, 9, 40, 32
11, 10001, Note_on_c, 9, 40, 0
11, 10004, Note_on_c, 9, 40, 35
11, 10039, Note_on_c, 9, 44, 127
11, 10180, Note_on_c, 9, 40, 0
11, 10375, Note_on_c, 9, 44, 0
11, 10388, Note_on_c, 9, 40, 28
11, 10769, Note_on_c, 9, 40, 0
11, 10772, Note_on_c, 9, 40, 25
11, 10807, Note_on_c, 9, 44, 127
11, 10948, Note_on_c, 9, 40, 0
11, 11137, Note_on_c, 9, 44, 0
11, 11156, Note_on_c, 9, 40, 32
11, 11537, Note_on_c, 9, 40, 0
11, 11540, Note_on_c, 9, 40, 35
11, 11575, Note_on_c, 9, 44, 127
11, 11716, Note_on_c, 9, 40, 0
11, 11902, Note_on_c, 9, 44, 0
11, 11924, Note_on_c, 9, 40, 28
11, 12305, Note_on_c, 9, 40, 0
11, 12308, Note_on_c, 9, 40, 25
11, 12343, Note_on_c, 9, 44, 127
11, 12484, Note_on_c, 9, 40, 0
11, 12570, Note_on_c, 9, 39, 82
11, 12641, Note_on_c, 9, 39, 0
11, 12682, Note_on_c, 9, 44, 0
11, 12692, Note_on_c, 9, 40, 32
11, 13073, Note_on_c, 9, 40, 0
11, 13076, Note_on_c, 9, 40, 35
11, 13111, Note_on_c, 9, 44, 127
11, 13454, Note_on_c, 9, 44, 0
11, 13457, Note_on_c, 9, 40, 0
11, 13460, Note_on_c, 9, 40, 28
11, 13726, Note_on_c, 9, 39, 120
11, 13841, Note_on_c, 9, 40, 0
11, 13879, Note_on_c, 9, 44, 127
11, 13902, Note_on_c, 9, 39, 0
11, 14110, Note_on_c, 9, 35, 49
11, 14196, Note_on_c, 9, 35, 0
11, 14222, Note_on_c, 9, 44, 0
11, 14228, Note_on_c, 9, 40, 32
11, 14382, Note_on_c, 9, 39, 60
11, 14404, Note_on_c, 9, 40, 0
11, 14506, Note_on_c, 9, 35, 34
11, 14551, Note_on_c, 9, 39, 0
11, 14593, Note_on_c, 9, 35, 0
11, 14612, Note_on_c, 9, 40, 35
11, 14647, Note_on_c, 9, 44, 127
11, 14983, Note_on_c, 9, 44, 0
11, 14993, Note_on_c, 9, 40, 0
11, 14996, Note_on_c, 9, 40, 28
11, 15377, Note_on_c, 9, 40, 0
11, 15380, Note_on_c, 9, 40, 25
11, 15415, Note_on_c, 9, 44, 111
11, 15761, Note_on_c, 9, 40, 0
11, 15764, Note_on_c, 9, 40, 32
11, 15770, Note_on_c, 9, 44, 0
11, 16145, Note_on_c, 9, 40, 0
11, 16148, Note_on_c, 9, 40, 35
11, 16183, Note_on_c, 9, 44, 125
11, 16324, Note_on_c, 9, 40, 0
11, 16526, Note_on_c, 9, 44, 0
11, 16532, Note_on_c, 9, 40, 28
11, 16913, Note_on_c, 9, 40, 0
11, 16916, Note_on_c, 9, 40, 25
11, 16951, Note_on_c, 9, 44, 111
11, 17089, Note_on_c, 9, 44, 0
11, 17092, Note_on_c, 9, 40, 0
11, 17134, Note_on_c, 9, 46, 48
11, 17300, Note_on_c, 9, 40, 32
11, 17326, Note_on_c, 9, 46, 0
11, 17681, Note_on_c, 9, 40, 0
11, 17684, Note_on_c, 9, 40, 35
11, 17719, Note_on_c, 9, 44, 127
11, 17860, Note_on_c, 9, 40, 0
11, 18065, Note_on_c, 9, 44, 0
11, 18068, Note_on_c, 9, 40, 28
11, 18449, Note_on_c, 9, 40, 0
11, 18452, Note_on_c, 9, 40, 25
11, 18487, Note_on_c, 9, 44, 127
11, 18628, Note_on_c, 9, 40, 0
11, 18836, Note_on_c, 9, 40, 32
11, 18839, Note_on_c, 9, 44, 0
11, 19217, Note_on_c, 9, 40, 0
11, 19220, Note_on_c, 9, 40, 35
11, 19255, Note_on_c, 9, 44, 127
11, 19514, Note_on_c, 9, 35, 35
11, 19594, Note_on_c, 9, 44, 0
11, 19601, Note_on_c, 9, 35, 0
11, 19601, Note_on_c, 9, 40, 0
11, 19604, Note_on_c, 9, 40, 28
11, 19639, Note_on_c, 9, 44, 113
11, 19761, Note_on_c, 9, 44, 0
11, 19780, Note_on_c, 9, 40, 0
11, 19822, Note_on_c, 9, 46, 67
11, 19866, Note_on_c, 9, 39, 117
11, 19978, Note_on_c, 9, 39, 0
11, 19988, Note_on_c, 9, 40, 25
11, 20110, Note_on_c, 9, 46, 0
11, 20254, Note_on_c, 9, 39, 110
11, 20254, Note_on_c, 9, 35, 53
11, 20340, Note_on_c, 9, 35, 0
11, 20369, Note_on_c, 9, 40, 0
11, 20372, Note_on_c, 9, 40, 32
11, 20398, Note_on_c, 9, 39, 0
11, 20753, Note_on_c, 9, 40, 0
11, 20756, Note_on_c, 9, 40, 35
11, 20791, Note_on_c, 9, 44, 127
11, 20932, Note_on_c, 9, 40, 0
11, 21108, Note_on_c, 9, 44, 0
11, 21140, Note_on_c, 9, 40, 28
11, 21521, Note_on_c, 9, 40, 0
11, 21524, Note_on_c, 9, 40, 25
11, 21559, Note_on_c, 9, 44, 127
11, 21700, Note_on_c, 9, 40, 0
11, 21905, Note_on_c, 9, 44, 0
11, 21908, Note_on_c, 9, 40, 32
11, 22289, Note_on_c, 9, 40, 0
11, 22292, Note_on_c, 9, 40, 35
11, 22327, Note_on_c, 9, 44, 122
11, 22468, Note_on_c, 9, 40, 0
11, 22673, Note_on_c, 9, 44, 0
11, 22676, Note_on_c, 9, 40, 28
11, 23057, Note_on_c, 9, 40, 0
11, 23060, Note_on_c, 9, 40, 25
11, 23095, Note_on_c, 9, 44, 127
11, 23236, Note_on_c, 9, 40, 0
11, 23444, Note_on_c, 9, 40, 32
11, 23457, Note_on_c, 9, 44, 0
11, 23825, Note_on_c, 9, 40, 0
11, 23828, Note_on_c, 9, 40, 35
11, 23863, Note_on_c, 9, 44, 127
11, 24004, Note_on_c, 9, 40, 0
11, 24212, Note_on_c, 9, 40, 28
11, 24215, Note_on_c, 9, 44, 0
11, 24593, Note_on_c, 9, 40, 0
11, 24596, Note_on_c, 9, 40, 25
11, 24631, Note_on_c, 9, 44, 111
11, 24970, Note_on_c, 9, 44, 0
11, 24977, Note_on_c, 9, 40, 0
11, 24980, Note_on_c, 9, 40, 32
11, 25156, Note_on_c, 9, 40, 0
11, 25262, Note_on_c, 9, 39, 120
11, 25310, Note_on_c, 9, 39, 0
11, 25646, Note_on_c, 9, 35, 35
11, 25694, Note_on_c, 9, 35, 0
11, 25902, Note_on_c, 9, 39, 110
11, 25950, Note_on_c, 9, 39, 0
11, 26398, Note_on_c, 9, 39, 127
11, 26446, Note_on_c, 9, 39, 0
11, 26470, Note_on_c, 9, 35, 44
11, 26486, Note_on_c, 9, 51, 50
11, 26516, Note_on_c, 9, 40, 32
11, 26534, Note_on_c, 9, 51, 0
11, 26557, Note_on_c, 9, 35, 0
11, 26897, Note_on_c, 9, 40, 0
11, 26900, Note_on_c, 9, 40, 35
11, 26935, Note_on_c, 9, 44, 127
11, 27076, Note_on_c, 9, 40, 0
11, 27255, Note_on_c, 9, 44, 0
11, 27284, Note_on_c, 9, 40, 28
11, 27460, Note_on_c, 9, 40, 0
11, 27668, Note_on_c, 9, 40, 25
11, 27694, Note_on_c, 9, 46, 82
11, 27844, Note_on_c, 9, 40, 0
11, 27985, Note_on_c, 9, 46, 0
11, 28052, Note_on_c, 9, 40, 32
11, 28433, Note_on_c, 9, 40, 0
11, 28436, Note_on_c, 9, 40, 35
11, 28471, Note_on_c, 9, 44, 127
11, 28612, Note_on_c, 9, 40, 0
11, 28801, Note_on_c, 9, 44, 0
11, 28820, Note_on_c, 9, 40, 28
11, 28996, Note_on_c, 9, 40, 0
11, 29082, Note_on_c, 9, 39, 97
11, 29153, Note_on_c, 9, 39, 0
11, 29204, Note_on_c, 9, 40, 25
11, 29239, Note_on_c, 9, 44, 127
11, 29380, Note_on_c, 9, 40, 0
11, 29582, Note_on_c, 9, 44, 0
11, 29588, Note_on_c, 9, 40, 32
11, 29969, Note_on_c, 9, 40, 0
11, 29972, Note_on_c, 9, 40, 35
11, 30007, Note_on_c, 9, 44, 127
11, 30148, Note_on_c, 9, 40, 0
11, 30282, Note_on_c, 9, 44, 0
11, 30356, Note_on_c, 9, 40, 28
11, 30532, Note_on_c, 9, 40, 0
11, 30740, Note_on_c, 9, 40, 25
11, 30775, Note_on_c, 9, 44, 127
11, 31105, Note_on_c, 9, 44, 0
11, 31121, Note_on_c, 9, 40, 0
11, 31124, Note_on_c, 9, 40, 32
11, 31505, Note_on_c, 9, 40, 0
11, 31508, Note_on_c, 9, 40, 35
11, 31543, Note_on_c, 9, 44, 127
11, 31879, Note_on_c, 9, 44, 0
11, 31889, Note_on_c, 9, 40, 0
11, 31892, Note_on_c, 9, 40, 28
11, 32273, Note_on_c, 9, 40, 0
11, 32276, Note_on_c, 9, 40, 25
11, 32311, Note_on_c, 9, 44, 127
11, 32638, Note_on_c, 9, 44, 0
11, 32657, Note_on_c, 9, 40, 0
11, 32660, Note_on_c, 9, 40, 32
11, 32686, Note_on_c, 9, 35, 53
11, 33041, Note_on_c, 9, 40, 0
11, 33044, Note_on_c, 9, 40, 35
11, 33079, Note_on_c, 9, 44, 127
11, 33098, Note_on_c, 9, 35, 0
11, 33220, Note_on_c, 9, 40, 0
11, 33418, Note_on_c, 9, 44, 0
11, 33428, Note_on_c, 9, 40, 28
11, 33809, Note_on_c, 9, 40, 0
11, 33812, Note_on_c, 9, 40, 25
11, 33847, Note_on_c, 9, 44, 127
11, 33988, Note_on_c, 9, 40, 0
11, 34177, Note_on_c, 9, 44, 0
11, 34196, Note_on_c, 9, 40, 32
11, 34577, Note_on_c, 9, 40, 0
11, 34580, Note_on_c, 9, 40, 35
11, 34609, Note_on_c, 9, 53, 100
11, 34615, Note_on_c, 9, 44, 127
11, 34657, Note_on_c, 9, 53, 0
11, 34756, Note_on_c, 9, 40, 0
11, 34932, Note_on_c, 9, 44, 0
11, 34964, Note_on_c, 9, 40, 28
11, 35345, Note_on_c, 9, 40, 0
11, 35348, Note_on_c, 9, 40, 25
11, 35383, Note_on_c, 9, 44, 127
11, 35524, Note_on_c, 9, 40, 0
11, 35694, Note_on_c, 9, 44, 0
11, 35732, Note_on_c, 9, 40, 32
11, 36113, Note_on_c, 9, 40, 0
11, 36116, Note_on_c, 9, 40, 35
11, 36151, Note_on_c, 9, 44, 127
11, 36474, Note_on_c, 9, 44, 0
11, 36497, Note_on_c, 9, 40, 0
11, 36500, Note_on_c, 9, 40, 28
11, 36676, Note_on_c, 9, 40, 0
11, 36884, Note_on_c, 9, 40, 25
11, 36919, Note_on_c, 9, 44, 127
11, 37230, Note_on_c, 9, 44, 0
11, 37265, Note_on_c, 9, 40, 0
11, 37268, Note_on_c, 9, 40, 32
11, 37444, Note_on_c, 9, 40, 0
11, 37530, Note_on_c, 9, 39, 117
11, 37614, Note_on_c, 9, 39, 0
11, 37652, Note_on_c, 9, 40, 35
11, 37687, Note_on_c, 9, 44, 120
11, 38033, Note_on_c, 9, 40, 0
11, 38036, Note_on_c, 9, 40, 28
11, 38154, Note_on_c, 9, 44, 0
11, 38212, Note_on_c, 9, 40, 0
11, 38298, Note_on_c, 9, 39, 115
11, 38382, Note_on_c, 9, 39, 0
11, 38420, Note_on_c, 9, 40, 25
11, 38446, Note_on_c, 9, 46, 63
11, 38596, Note_on_c, 9, 40, 0
11, 38737, Note_on_c, 9, 46, 0
11, 38804, Note_on_c, 9, 40, 32
11, 38830, Note_on_c, 9, 35, 53
11, 38830, Note_on_c, 9, 53, 80
11, 38839, Note_on_c, 9, 44, 95
11, 39114, Note_on_c, 9, 53, 0
11, 39185, Note_on_c, 9, 40, 0
11, 39188, Note_on_c, 9, 40, 35
11, 39223, Note_on_c, 9, 44, 127
11, 39242, Note_on_c, 9, 35, 0
11, 39290, Note_on_c, 9, 44, 0
11, 39530, Note_on_c, 9, 44, 0
11, 39569, Note_on_c, 9, 40, 0
11, 39572, Note_on_c, 9, 40, 28
11, 39953, Note_on_c, 9, 40, 0
11, 39956, Note_on_c, 9, 40, 25
11, 39991, Note_on_c, 9, 44, 127
11, 40132, Note_on_c, 9, 40, 0
11, 40327, Note_on_c, 9, 44, 0
11, 40340, Note_on_c, 9, 40, 32
11, 40721, Note_on_c, 9, 40, 0
11, 40724, Note_on_c, 9, 40, 35
11, 40759, Note_on_c, 9, 44, 127
11, 41102, Note_on_c, 9, 44, 0
11, 41105, Note_on_c, 9, 40, 0
11, 41108, Note_on_c, 9, 40, 28
11, 41374, Note_on_c, 9, 39, 110
11, 41460, Note_on_c, 9, 39, 0
11, 41489, Note_on_c, 9, 40, 0
11, 41492, Note_on_c, 9, 40, 25
11, 41527, Note_on_c, 9, 44, 127
11, 41668, Note_on_c, 9, 40, 0
11, 41857, Note_on_c, 9, 44, 0
11, 41876, Note_on_c, 9, 40, 32
11, 42257, Note_on_c, 9, 40, 0
11, 42260, Note_on_c, 9, 40, 35
11, 42295, Note_on_c, 9, 44, 127
11, 42631, Note_on_c, 9, 44, 0
11, 42641, Note_on_c, 9, 40, 0
11, 42644, Note_on_c, 9, 40, 28
11, 43025, Note_on_c, 9, 40, 0
11, 43028, Note_on_c, 9, 40, 25
11, 43063, Note_on_c, 9, 44, 127
11, 43204, Note_on_c, 9, 40, 0
11, 43399, Note_on_c, 9, 44, 0
11, 43412, Note_on_c, 9, 40, 32
11, 43793, Note_on_c, 9, 40, 0
11, 43796, Note_on_c, 9, 40, 35
11, 43831, Note_on_c, 9, 44, 127
11, 43972, Note_on_c, 9, 40, 0
11, 44158, Note_on_c, 9, 44, 0
11, 44180, Note_on_c, 9, 40, 28
11, 44561, Note_on_c, 9, 40, 0
11, 44564, Note_on_c, 9, 40, 25
11, 44599, Note_on_c, 9, 44, 127
11, 44721, Note_on_c, 9, 44, 0
11, 44740, Note_on_c, 9, 40, 0
11, 44826, Note_on_c, 9, 39, 120
11, 44903, Note_on_c, 9, 39, 0
11, 44948, Note_on_c, 9, 40, 32
11, 45329, Note_on_c, 9, 40, 0
11, 45332, Note_on_c, 9, 40, 35
11, 45367, Note_on_c, 9, 44, 127
11, 45662, Note_on_c, 9, 44, 0
11, 45713, Note_on_c, 9, 40, 0
11, 45716, Note_on_c, 9, 40, 28
11, 46097, Note_on_c, 9, 40, 0
11, 46100, Note_on_c, 9, 40, 25
11, 46135, Note_on_c, 9, 44, 127
11, 46276, Note_on_c, 9, 40, 0
11, 46446, Note_on_c, 9, 44, 0
11, 46484, Note_on_c, 9, 40, 32
11, 46865, Note_on_c, 9, 40, 0
11, 46868, Note_on_c, 9, 40, 35
11, 46903, Note_on_c, 9, 44, 127
11, 47233, Note_on_c, 9, 44, 0
11, 47249, Note_on_c, 9, 40, 0
11, 47252, Note_on_c, 9, 40, 28
11, 47633, Note_on_c, 9, 40, 0
11, 47636, Note_on_c, 9, 40, 25
11, 47671, Note_on_c, 9, 44, 127
11, 47812, Note_on_c, 9, 40, 0
11, 47994, Note_on_c, 9, 44, 0
11, 48020, Note_on_c, 9, 40, 32
11, 48286, Note_on_c, 9, 39, 110
11, 48372, Note_on_c, 9, 39, 0
11, 48401, Note_on_c, 9, 40, 0
11, 48404, Note_on_c, 9, 40, 35
11, 48439, Note_on_c, 9, 44, 127
11, 48756, Note_on_c, 9, 44, 0
11, 48785, Note_on_c, 9, 40, 0
11, 48788, Note_on_c, 9, 40, 28
11, 48814, Note_on_c, 9, 35, 53
11, 49105, Note_on_c, 9, 35, 0
11, 49169, Note_on_c, 9, 40, 0
11, 49172, Note_on_c, 9, 40, 25
11, 49207, Note_on_c, 9, 44, 127
11, 49348, Note_on_c, 9, 40, 0
11, 49438, Note_on_c, 9, 35, 44
11, 49518, Note_on_c, 9, 44, 0
11, 49524, Note_on_c, 9, 35, 0
11, 49556, Note_on_c, 9, 40, 32
11, 49937, Note_on_c, 9, 40, 0
11, 49940, Note_on_c, 9, 40, 35
11, 49975, Note_on_c, 9, 44, 127
11, 50206, Note_on_c, 9, 39, 110
11, 50292, Note_on_c, 9, 39, 0
11, 50295, Note_on_c, 9, 44, 0
11, 50321, Note_on_c, 9, 40, 0
11, 50324, Note_on_c, 9, 40, 28
11, 50590, Note_on_c, 9, 39, 110
11, 50676, Note_on_c, 9, 39, 0
11, 50705, Note_on_c, 9, 40, 0
11, 50708, Note_on_c, 9, 40, 25
11, 50743, Note_on_c, 9, 44, 127
11, 50846, Note_on_c, 9, 44, 0
11, 51089, Note_on_c, 9, 40, 0
11, 51118, Note_on_c, 9, 40, 37
11, 51126, Note_on_c, 9, 42, 10
11, 51204, Note_on_c, 9, 40, 0
11, 51212, Note_on_c, 9, 42, 0
11, 51484, Note_on_c, 9, 40, 35
11, 51519, Note_on_c, 9, 44, 127
11, 51660, Note_on_c, 9, 44, 0
11, 51865, Note_on_c, 9, 40, 0
11, 51892, Note_on_c, 9, 40, 28
11, 52252, Note_on_c, 9, 40, 25
11, 52273, Note_on_c, 9, 40, 0
11, 52287, Note_on_c, 9, 44, 127
11, 52438, Note_on_c, 9, 44, 0
11, 52633, Note_on_c, 9, 40, 0
11, 52636, Note_on_c, 9, 40, 32
11, 53017, Note_on_c, 9, 40, 0
11, 53020, Note_on_c, 9, 40, 35
11, 53055, Note_on_c, 9, 44, 127
11, 53193, Note_on_c, 9, 44, 0
11, 53401, Note_on_c, 9, 40, 0
11, 53404, Note_on_c, 9, 40, 28
11, 53670, Note_on_c, 9, 39, 110
11, 53756, Note_on_c, 9, 39, 0
11, 53785, Note_on_c, 9, 40, 0
11, 53788, Note_on_c, 9, 40, 25
11, 53823, Note_on_c, 9, 44, 127
11, 53990, Note_on_c, 9, 44, 0
11, 54169, Note_on_c, 9, 40, 0
11, 54172, Note_on_c, 9, 40, 32
11, 54553, Note_on_c, 9, 40, 0
11, 54556, Note_on_c, 9, 40, 35
11, 54591, Note_on_c, 9, 44, 127
11, 54745, Note_on_c, 9, 44, 0
11, 54937, Note_on_c, 9, 40, 0
11, 54940, Note_on_c, 9, 40, 28
11, 55321, Note_on_c, 9, 40, 0
11, 55324, Note_on_c, 9, 40, 25
11, 55359, Note_on_c, 9, 44, 127
11, 55500, Note_on_c, 9, 44, 0
11, 55705, Note_on_c, 9, 40, 0
11, 55708, Note_on_c, 9, 40, 32
11, 56089, Note_on_c, 9, 40, 0
11, 56092, Note_on_c, 9, 40, 35
11, 56127, Note_on_c, 9, 44, 127
11, 56268, Note_on_c, 9, 40, 0
11, 56354, Note_on_c, 9, 39, 113
11, 56450, Note_on_c, 9, 39, 0
11, 56470, Note_on_c, 9, 44, 0
11, 56476, Note_on_c, 9, 40, 28
11, 56857, Note_on_c, 9, 40, 0
11, 56860, Note_on_c, 9, 40, 25
11, 56895, Note_on_c, 9, 44, 127
11, 57036, Note_on_c, 9, 40, 0
11, 57218, Note_on_c, 9, 44, 0
11, 57244, Note_on_c, 9, 40, 32
11, 57625, Note_on_c, 9, 40, 0
11, 57628, Note_on_c, 9, 40, 35
11, 57663, Note_on_c, 9, 44, 127
11, 57804, Note_on_c, 9, 40, 0
11, 57999, Note_on_c, 9, 44, 0
11, 58012, Note_on_c, 9, 40, 28
11, 58393, Note_on_c, 9, 40, 0
11, 58396, Note_on_c, 9, 40, 25
11, 58431, Note_on_c, 9, 44, 127
11, 58572, Note_on_c, 9, 40, 0
11, 58758, Note_on_c, 9, 44, 0
11, 58780, Note_on_c, 9, 40, 32
11, 59161, Note_on_c, 9, 40, 0
11, 59164, Note_on_c, 9, 40, 35
11, 59199, Note_on_c, 9, 44, 127
11, 59340, Note_on_c, 9, 40, 0
11, 59535, Note_on_c, 9, 44, 0
11, 59548, Note_on_c, 9, 40, 28
11, 59929, Note_on_c, 9, 40, 0
11, 59932, Note_on_c, 9, 40, 25
11, 59967, Note_on_c, 9, 44, 127
11, 60108, Note_on_c, 9, 40, 0
11, 60297, Note_on_c, 9, 44, 0
11, 60316, Note_on_c, 9, 40, 32
11, 60697, Note_on_c, 9, 40, 0
11, 60700, Note_on_c, 9, 40, 35
11, 60735, Note_on_c, 9, 44, 127
11, 60876, Note_on_c, 9, 40, 0
11, 61062, Note_on_c, 9, 44, 0
11, 61084, Note_on_c, 9, 40, 28
11, 61465, Note_on_c, 9, 40, 0
11, 61468, Note_on_c, 9, 40, 25
11, 61503, Note_on_c, 9, 44, 127
11, 61644, Note_on_c, 9, 40, 0
11, 61730, Note_on_c, 9, 39, 82
11, 61801, Note_on_c, 9, 39, 0
11, 61842, Note_on_c, 9, 44, 0
11, 61852, Note_on_c, 9, 40, 32
11, 62233, Note_on_c, 9, 40, 0
11, 62236, Note_on_c, 9, 40, 35
11, 62271, Note_on_c, 9, 44, 127
11, 62614, Note_on_c, 9, 44, 0
11, 62617, Note_on_c, 9, 40, 0
11, 62620, Note_on_c, 9, 40, 28
11, 62886, Note_on_c, 9, 39, 120
11, 63001, Note_on_c, 9, 40, 0
11, 63039, Note_on_c, 9, 44, 127
11, 63062, Note_on_c, 9, 39, 0
11, 63270, Note_on_c, 9, 35, 49
11, 63356, Note_on_c, 9, 35, 0
11, 63382, Note_on_c, 9, 44, 0
11, 63388, Note_on_c, 9, 40, 32
11, 63408, Note_on_c, 9, 51, 72
11, 63501, Note_on_c, 9, 51, 0
11, 63564, Note_on_c, 9, 40, 0
11, 63564, Program_c, 9, 0
11, 63790, Note_on_c, 9, 44, 110
11, 63808, Note_on_c, 9, 51, 55
11, 63894, Note_on_c, 9, 51, 0
11, 63970, Note_on_c, 9, 44, 0
11, 64107, Note_on_c, 9, 36, 29
11, 64116, Note_on_c, 9, 51, 52
11, 64154, Note_on_c, 9, 51, 0
11, 64178, Note_on_c, 9, 36, 0
11, 64234, Note_on_c, 9, 36, 26
11, 64235, Note_on_c, 9, 51, 38
11, 64305, Note_on_c, 9, 51, 0
11, 64360, Note_on_c, 9, 36, 0
11, 64558, Note_on_c, 9, 44, 112
11, 64585, Note_on_c, 9, 51, 74
11, 64661, Note_on_c, 9, 51, 0
11, 64702, Note_on_c, 9, 44, 0
11, 64946, Note_on_c, 9, 51, 67
11, 65026, Note_on_c, 9, 51, 0
11, 65326, Note_on_c, 9, 44, 106
11, 65334, Note_on_c, 9, 51, 87
11, 65424, Note_on_c, 9, 51, 0
11, 65458, Note_on_c, 9, 44, 0
11, 65612, Note_on_c, 9, 36, 42
11, 65650, Note_on_c, 9, 36, 0
11, 65710, Note_on_c, 9, 51, 54
11, 65822, Note_on_c, 9, 51, 0
11, 66094, Note_on_c, 9, 44, 107
11, 66110, Note_on_c, 9, 51, 85
11, 66203, Note_on_c, 9, 51, 0
11, 66218, Note_on_c, 9, 44, 0
11, 66379, Note_on_c, 9, 51, 64
11, 66450, Note_on_c, 9, 51, 0
11, 66505, Note_on_c, 9, 51, 70
11, 66622, Note_on_c, 9, 51, 0
11, 66862, Note_on_c, 9, 44, 112
11, 66872, Note_on_c, 9, 51, 86
11, 66977, Note_on_c, 9, 44, 0
11, 66992, Note_on_c, 9, 51, 0
11, 67158, Note_on_c, 9, 36, 17
11, 67198, Note_on_c, 9, 36, 0
11, 67238, Note_on_c, 9, 40, 37
11, 67253, Note_on_c, 9, 51, 55
11, 67358, Note_on_c, 9, 51, 0
11, 67386, Note_on_c, 9, 40, 0
11, 67620, Note_on_c, 9, 40, 41
11, 67630, Note_on_c, 9, 44, 110
11, 67651, Note_on_c, 9, 51, 81
11, 67736, Note_on_c, 9, 44, 0
11, 67752, Note_on_c, 9, 51, 0
11, 67850, Note_on_c, 9, 40, 0
11, 67900, Note_on_c, 9, 51, 44
11, 67964, Note_on_c, 9, 51, 0
11, 68015, Note_on_c, 9, 51, 51
11, 68042, Note_on_c, 9, 36, 26
11, 68110, Note_on_c, 9, 36, 0
11, 68150, Note_on_c, 9, 51, 0
11, 68277, Note_on_c, 9, 36, 49
11, 68398, Note_on_c, 9, 44, 103
11, 68410, Note_on_c, 9, 51, 87
11, 68447, Note_on_c, 9, 36, 0
11, 68502, Note_on_c, 9, 44, 0
11, 68550, Note_on_c, 9, 51, 0
11, 68762, Note_on_c, 9, 51, 46
11, 68822, Note_on_c, 9, 36, 43
11, 68865, Note_on_c, 9, 51, 0
11, 68968, Note_on_c, 9, 36, 0
11, 69160, Note_on_c, 9, 51, 87
11, 69166, Note_on_c, 9, 44, 106
11, 69270, Note_on_c, 9, 44, 0
11, 69346, Note_on_c, 9, 51, 0
11, 69440, Note_on_c, 9, 36, 44
11, 69514, Note_on_c, 9, 36, 0
11, 69543, Note_on_c, 9, 51, 50
11, 69644, Note_on_c, 9, 51, 0
11, 69934, Note_on_c, 9, 44, 105
11, 69938, Note_on_c, 9, 51, 83
11, 70014, Note_on_c, 9, 51, 0
11, 70041, Note_on_c, 9, 44, 0
11, 70358, Note_on_c, 9, 51, 43
11, 70539, Note_on_c, 9, 51, 0
11, 70702, Note_on_c, 9, 51, 58
11, 70702, Note_on_c, 9, 44, 107
11, 70806, Note_on_c, 9, 44, 0
11, 70905, Note_on_c, 9, 51, 0
11, 71114, Note_on_c, 9, 51, 33
11, 71250, Note_on_c, 9, 51, 0
11, 71445, Note_on_c, 9, 51, 72
11, 71470, Note_on_c, 9, 44, 112
11, 71568, Note_on_c, 9, 44, 0
11, 71632, Note_on_c, 9, 51, 0
11, 71735, Note_on_c, 9, 36, 32
11, 71778, Note_on_c, 9, 36, 0
11, 71823, Note_on_c, 9, 51, 42
11, 71996, Note_on_c, 9, 51, 0
11, 72195, Note_on_c, 9, 51, 69
11, 72238, Note_on_c, 9, 44, 110
11, 72338, Note_on_c, 9, 44, 0
11, 72369, Note_on_c, 9, 51, 0
11, 72601, Note_on_c, 9, 51, 46
11, 72761, Note_on_c, 9, 51, 0
11, 72996, Note_on_c, 9, 51, 80
11, 73006, Note_on_c, 9, 44, 107
11, 73110, Note_on_c, 9, 44, 0
11, 73165, Note_on_c, 9, 51, 0
11, 73385, Note_on_c, 9, 51, 56
11, 73502, Note_on_c, 9, 51, 0
11, 73769, Note_on_c, 9, 51, 71
11, 73774, Note_on_c, 9, 44, 108
11, 73880, Note_on_c, 9, 51, 0
11, 73884, Note_on_c, 9, 44, 0
11, 74153, Note_on_c, 9, 51, 62
11, 74236, Note_on_c, 9, 51, 0
11, 74418, Note_on_c, 9, 36, 25
11, 74467, Note_on_c, 9, 36, 0
11, 74542, Note_on_c, 9, 44, 108
11, 74544, Note_on_c, 9, 51, 83
11, 74630, Note_on_c, 9, 51, 0
11, 74656, Note_on_c, 9, 44, 0
11, 74847, Note_on_c, 9, 51, 46
11, 74886, Note_on_c, 9, 51, 0
11, 74944, Note_on_c, 9, 51, 74
11, 75048, Note_on_c, 9, 51, 0
11, 75310, Note_on_c, 9, 44, 117
11, 75317, Note_on_c, 9, 51, 92
11, 75403, Note_on_c, 9, 44, 0
11, 75431, Note_on_c, 9, 51, 0
11, 75562, Note_on_c, 9, 36, 47
11, 75596, Note_on_c, 9, 51, 52
11, 75624, Note_on_c, 9, 36, 0
11, 75650, Note_on_c, 9, 51, 0
11, 75709, Note_on_c, 9, 51, 67
11, 75714, Note_on_c, 9, 36, 51
11, 75851, Note_on_c, 9, 51, 0
11, 75852, Program_c, 9, 0
11, 75986, Note_on_c, 9, 36, 0
11, 76078, Note_on_c, 9, 44, 110
11, 76096, Note_on_c, 9, 51, 90
11, 76202, Note_on_c, 9, 51, 0
11, 76258, Note_on_c, 9, 44, 0
11, 76374, Note_on_c, 9, 51, 52
11, 76582, Note_on_c, 9, 51, 0
11, 76753, Note_on_c, 9, 36, 62
11, 76846, Note_on_c, 9, 44, 112
11, 76852, Note_on_c, 9, 51, 81
11, 76954, Note_on_c, 9, 51, 0
11, 76990, Note_on_c, 9, 44, 0
11, 76997, Note_on_c, 9, 36, 0
11, 77226, Note_on_c, 9, 53, 91
11, 77355, Note_on_c, 9, 53, 0
11, 77614, Note_on_c, 9, 44, 106
11, 77622, Note_on_c, 9, 51, 49
11, 77737, Note_on_c, 9, 51, 0
11, 77746, Note_on_c, 9, 44, 0
11, 77865, Note_on_c, 9, 51, 71
11, 78017, Note_on_c, 9, 51, 0
11, 78248, Note_on_c, 9, 51, 25
11, 78288, Note_on_c, 9, 51, 0
11, 78375, Note_on_c, 9, 51, 72
11, 78382, Note_on_c, 9, 44, 107
11, 78506, Note_on_c, 9, 44, 0
11, 78640, Note_on_c, 9, 51, 0
11, 78786, Note_on_c, 9, 51, 67
11, 78890, Note_on_c, 9, 51, 0
11, 79030, Note_on_c, 9, 51, 72
11, 79150, Note_on_c, 9, 44, 112
11, 79174, Note_on_c, 9, 51, 0
11, 79265, Note_on_c, 9, 44, 0
11, 79388, Note_on_c, 9, 51, 85
11, 79600, Note_on_c, 9, 51, 0
11, 79788, Note_on_c, 9, 51, 57
11, 79865, Note_on_c, 9, 51, 0
11, 79918, Note_on_c, 9, 44, 110
11, 79919, Note_on_c, 9, 51, 75
11, 80024, Note_on_c, 9, 44, 0
11, 80154, Note_on_c, 9, 51, 0
11, 80318, Note_on_c, 9, 51, 86
11, 80527, Note_on_c, 9, 51, 0
11, 80686, Note_on_c, 9, 44, 103
11, 80693, Note_on_c, 9, 51, 78
11, 80790, Note_on_c, 9, 44, 0
11, 80866, Note_on_c, 9, 51, 0
11, 80962, Note_on_c, 9, 51, 43
11, 81015, Note_on_c, 9, 51, 0
11, 81070, Note_on_c, 9, 51, 76
11, 81247, Note_on_c, 9, 51, 0
11, 81295, Note_on_c, 9, 36, 42
11, 81454, Note_on_c, 9, 44, 106
11, 81458, Note_on_c, 9, 51, 91
11, 81496, Note_on_c, 9, 36, 0
11, 81558, Note_on_c, 9, 44, 0
11, 81659, Note_on_c, 9, 51, 0
11, 81752, Note_on_c, 9, 51, 45
11, 81818, Note_on_c, 9, 51, 0
11, 81848, Note_on_c, 9, 36, 39
11, 81853, Note_on_c, 9, 51, 62
11, 82028, Note_on_c, 9, 36, 0
11, 82050, Note_on_c, 9, 51, 0
11, 82222, Note_on_c, 9, 44, 105
11, 82245, Note_on_c, 9, 51, 97
11, 82329, Note_on_c, 9, 44, 0
11, 82454, Note_on_c, 9, 51, 0
11, 82650, Note_on_c, 9, 51, 63
11, 82785, Note_on_c, 9, 51, 0
11, 82990, Note_on_c, 9, 44, 107
11, 83020, Note_on_c, 9, 51, 91
11, 83094, Note_on_c, 9, 44, 0
11, 83208, Note_on_c, 9, 51, 0
11, 83300, Note_on_c, 9, 51, 46
11, 83425, Note_on_c, 9, 40, 32
11, 83475, Note_on_c, 9, 40, 0
11, 83549, Note_on_c, 9, 40, 39
11, 83587, Note_on_c, 9, 40, 0
11, 83587, Note_on_c, 9, 51, 0
11, 83758, Note_on_c, 9, 44, 112
11, 83762, Note_on_c, 9, 51, 90
11, 83798, Note_on_c, 9, 36, 32
11, 83856, Note_on_c, 9, 44, 0
11, 83925, Note_on_c, 9, 51, 0
11, 83960, Note_on_c, 9, 36, 0
11, 84052, Note_on_c, 9, 51, 33
11, 84086, Note_on_c, 9, 36, 40
11, 84111, Note_on_c, 9, 51, 0
11, 84166, Note_on_c, 9, 51, 64
11, 84279, Note_on_c, 9, 36, 0
11, 84366, Note_on_c, 9, 51, 0
11, 84526, Note_on_c, 9, 44, 110
11, 84552, Note_on_c, 9, 51, 90
11, 84626, Note_on_c, 9, 44, 0
11, 84690, Note_on_c, 9, 51, 0
11, 84814, Note_on_c, 9, 51, 51
11, 84887, Note_on_c, 9, 51, 0
11, 84933, Note_on_c, 9, 51, 62
11, 85084, Note_on_c, 9, 51, 0
11, 85294, Note_on_c, 9, 44, 107
11, 85297, Note_on_c, 9, 51, 87
11, 85351, Note_on_c, 9, 36, 72
11, 85398, Note_on_c, 9, 44, 0
11, 85470, Note_on_c, 9, 51, 0
11, 85610, Note_on_c, 9, 36, 0
11, 85682, Note_on_c, 9, 51, 60
11, 85844, Note_on_c, 9, 51, 0
11, 86062, Note_on_c, 9, 44, 108
11, 86066, Note_on_c, 9, 51, 83
11, 86172, Note_on_c, 9, 44, 0
11, 86219, Note_on_c, 9, 51, 0
11, 86334, Note_on_c, 9, 36, 37
11, 86378, Note_on_c, 9, 36, 0
11, 86453, Note_on_c, 9, 51, 48
11, 86478, Note_on_c, 9, 36, 30
11, 86587, Note_on_c, 9, 51, 0
11, 86701, Note_on_c, 9, 36, 0
11, 86826, Note_on_c, 9, 51, 87
11, 86830, Note_on_c, 9, 44, 108
11, 86944, Note_on_c, 9, 44, 0
11, 86976, Note_on_c, 9, 51, 0
11, 87069, Note_on_c, 9, 36, 33
11, 87118, Note_on_c, 9, 36, 0
11, 87206, Note_on_c, 9, 51, 39
11, 87341, Note_on_c, 9, 51, 0
11, 87578, Note_on_c, 9, 51, 83
11, 87598, Note_on_c, 9, 36, 25
11, 87598, Note_on_c, 9, 44, 117
11, 87665, Note_on_c, 9, 36, 0
11, 87691, Note_on_c, 9, 44, 0
11, 87734, Note_on_c, 9, 51, 0
11, 87844, Note_on_c, 9, 51, 34
11, 87902, Note_on_c, 9, 51, 0
11, 87958, Note_on_c, 9, 51, 59
11, 88126, Note_on_c, 9, 51, 0
11, 88140, Program_c, 9, 0
11, 88360, Note_on_c, 9, 51, 84
11, 88366, Note_on_c, 9, 44, 110
11, 88508, Note_on_c, 9, 51, 0
11, 88546, Note_on_c, 9, 44, 0
11, 88625, Note_on_c, 9, 51, 35
11, 88683, Note_on_c, 9, 51, 0
11, 88756, Note_on_c, 9, 51, 64
11, 88892, Note_on_c, 9, 51, 0
11, 89121, Note_on_c, 9, 51, 87
11, 89134, Note_on_c, 9, 44, 112
11, 89278, Note_on_c, 9, 44, 0
11, 89284, Note_on_c, 9, 51, 0
11, 89392, Note_on_c, 9, 36, 25
11, 89395, Note_on_c, 9, 51, 36
11, 89468, Note_on_c, 9, 51, 0
11, 89513, Note_on_c, 9, 51, 52
11, 89546, Note_on_c, 9, 36, 0
11, 89654, Note_on_c, 9, 51, 0
11, 89894, Note_on_c, 9, 51, 88
11, 89902, Note_on_c, 9, 44, 106
11, 90029, Note_on_c, 9, 51, 0
11, 90034, Note_on_c, 9, 44, 0
11, 90138, Note_on_c, 9, 36, 32
11, 90196, Note_on_c, 9, 36, 0
11, 90252, Note_on_c, 9, 36, 14
11, 90272, Note_on_c, 9, 51, 76
11, 90390, Note_on_c, 9, 51, 0
11, 90462, Note_on_c, 9, 36, 0
11, 90532, Note_on_c, 9, 51, 47
11, 90585, Note_on_c, 9, 51, 0
11, 90670, Note_on_c, 9, 51, 62
11, 90670, Note_on_c, 9, 44, 107
11, 90758, Note_on_c, 9, 51, 0
11, 90794, Note_on_c, 9, 44, 0
11, 90925, Note_on_c, 9, 51, 92
11, 91173, Note_on_c, 9, 51, 0
11, 91282, Note_on_c, 9, 36, 44
11, 91296, Note_on_c, 9, 51, 51
11, 91369, Note_on_c, 9, 36, 0
11, 91374, Note_on_c, 9, 51, 0
11, 91438, Note_on_c, 9, 44, 112
11, 91447, Note_on_c, 9, 51, 77
11, 91553, Note_on_c, 9, 44, 0
11, 91674, Note_on_c, 9, 51, 0
11, 91818, Note_on_c, 9, 51, 79
11, 91876, Note_on_c, 9, 36, 37
11, 91989, Note_on_c, 9, 51, 0
11, 91998, Note_on_c, 9, 36, 0
11, 92193, Note_on_c, 9, 51, 92
11, 92206, Note_on_c, 9, 44, 110
11, 92312, Note_on_c, 9, 44, 0
11, 92402, Note_on_c, 9, 51, 0
11, 92542, Note_on_c, 9, 51, 44
11, 92674, Note_on_c, 9, 51, 0
11, 92974, Note_on_c, 9, 44, 103
11, 92976, Note_on_c, 9, 51, 83
11, 93078, Note_on_c, 9, 44, 0
11, 93133, Note_on_c, 9, 51, 0
11, 93225, Note_on_c, 9, 51, 43
11, 93287, Note_on_c, 9, 36, 17
11, 93306, Note_on_c, 9, 51, 0
11, 93326, Note_on_c, 9, 36, 0
11, 93362, Note_on_c, 9, 40, 37
11, 93370, Note_on_c, 9, 51, 74
11, 93556, Note_on_c, 9, 51, 0
11, 93587, Note_on_c, 9, 40, 0
11, 93742, Note_on_c, 9, 44, 106
11, 93743, Note_on_c, 9, 51, 87
11, 93754, Note_on_c, 9, 40, 55
11, 93846, Note_on_c, 9, 44, 0
11, 93928, Note_on_c, 9, 51, 0
11, 94014, Note_on_c, 9, 40, 0
11, 94016, Note_on_c, 9, 51, 33
11, 94083, Note_on_c, 9, 51, 0
11, 94143, Note_on_c, 9, 51, 68
11, 94158, Note_on_c, 9, 36, 26
11, 94250, Note_on_c, 9, 36, 0
11, 94281, Note_on_c, 9, 51, 0
11, 94386, Note_on_c, 9, 36, 33
11, 94510, Note_on_c, 9, 44, 105
11, 94524, Note_on_c, 9, 36, 0
11, 94527, Note_on_c, 9, 51, 87
11, 94617, Note_on_c, 9, 44, 0
11, 94688, Note_on_c, 9, 51, 0
11, 94776, Note_on_c, 9, 51, 51
11, 94872, Note_on_c, 9, 51, 0
11, 94911, Note_on_c, 9, 51, 58
11, 94935, Note_on_c, 9, 36, 32
11, 94986, Note_on_c, 9, 36, 0
11, 95060, Note_on_c, 9, 51, 0
11, 95278, Note_on_c, 9, 44, 107
11, 95286, Note_on_c, 9, 51, 93
11, 95382, Note_on_c, 9, 44, 0
11, 95485, Note_on_c, 9, 51, 0
11, 95670, Note_on_c, 9, 51, 71
11, 95773, Note_on_c, 9, 51, 0
11, 96034, Note_on_c, 9, 51, 67
11, 96046, Note_on_c, 9, 44, 112
11, 96144, Note_on_c, 9, 44, 0
11, 96190, Note_on_c, 9, 51, 0
11, 96443, Note_on_c, 9, 51, 55
11, 96607, Note_on_c, 9, 51, 0
11, 96804, Note_on_c, 9, 51, 63
11, 96814, Note_on_c, 9, 44, 110
11, 96839, Note_on_c, 9, 36, 39
11, 96914, Note_on_c, 9, 44, 0
11, 96970, Note_on_c, 9, 36, 0
11, 97020, Note_on_c, 9, 51, 0
11, 97086, Note_on_c, 9, 36, 47
11, 97185, Note_on_c, 9, 51, 45
11, 97346, Note_on_c, 9, 36, 0
11, 97476, Note_on_c, 9, 51, 0
11, 97563, Note_on_c, 9, 51, 68
11, 97582, Note_on_c, 9, 44, 107
11, 97686, Note_on_c, 9, 44, 0
11, 97774, Note_on_c, 9, 51, 0
11, 97952, Note_on_c, 9, 51, 33
11, 98178, Note_on_c, 9, 51, 0
11, 98333, Note_on_c, 9, 51, 70
11, 98350, Note_on_c, 9, 44, 108
11, 98460, Note_on_c, 9, 44, 0
11, 98506, Note_on_c, 9, 51, 0
11, 98585, Note_on_c, 9, 51, 55
11, 98604, Note_on_c, 9, 40, 44
11, 98658, Note_on_c, 9, 40, 0
11, 98681, Note_on_c, 9, 51, 0
11, 98730, Note_on_c, 9, 51, 53
11, 98825, Note_on_c, 9, 36, 27
11, 98870, Note_on_c, 9, 36, 0
11, 99005, Note_on_c, 9, 51, 0
11, 99012, Note_on_c, 9, 36, 56
11, 99106, Note_on_c, 9, 51, 63
11, 99118, Note_on_c, 9, 44, 108
11, 99232, Note_on_c, 9, 44, 0
11, 99262, Note_on_c, 9, 51, 0
11, 99304, Note_on_c, 9, 36, 0
11, 99370, Note_on_c, 9, 51, 43
11, 99454, Note_on_c, 9, 51, 0
11, 99517, Note_on_c, 9, 51, 76
11, 99557, Note_on_c, 9, 36, 47
11, 99733, Note_on_c, 9, 51, 0
11, 99751, Note_on_c, 9, 36, 0
11, 99876, Note_on_c, 9, 51, 88
11, 99886, Note_on_c, 9, 44, 117
11, 99979, Note_on_c, 9, 44, 0
11, 100102, Note_on_c, 9, 51, 0
11, 100278, Note_on_c, 9, 51, 49
11, 100428, Program_c, 9, 0
11, 100436, Note_on_c, 9, 51, 0
11, 100562, Note_on_c, 9, 51, 46
11, 100623, Note_on_c, 9, 51, 0
11, 100654, Note_on_c, 9, 44, 110
11, 100670, Note_on_c, 9, 51, 72
11, 100834, Note_on_c, 9, 44, 0
11, 100943, Note_on_c, 9, 51, 0
11, 101046, Note_on_c, 9, 51, 62
11, 101298, Note_on_c, 9, 36, 44
11, 101306, Note_on_c, 9, 51, 0
11, 101342, Note_on_c, 9, 36, 0
11, 101404, Note_on_c, 9, 51, 76
11, 101422, Note_on_c, 9, 44, 112
11, 101566, Note_on_c, 9, 44, 0
11, 101583, Note_on_c, 9, 51, 0
11, 101806, Note_on_c, 9, 51, 57
11, 101853, Note_on_c, 9, 36, 34
11, 101929, Note_on_c, 9, 51, 0
11, 101931, Note_on_c, 9, 36, 0
11, 102065, Note_on_c, 9, 51, 84
11, 102190, Note_on_c, 9, 44, 106
11, 102293, Note_on_c, 9, 51, 0
11, 102322, Note_on_c, 9, 44, 0
11, 102428, Note_on_c, 9, 36, 39
11, 102449, Note_on_c, 9, 51, 58
11, 102477, Note_on_c, 9, 36, 0
11, 102528, Note_on_c, 9, 51, 0
11, 102601, Note_on_c, 9, 51, 83
11, 102862, Note_on_c, 9, 51, 0
11, 102958, Note_on_c, 9, 44, 107
11, 102978, Note_on_c, 9, 51, 50
11, 102981, Note_on_c, 9, 36, 37
11, 103070, Note_on_c, 9, 51, 0
11, 103082, Note_on_c, 9, 44, 0
11, 103118, Note_on_c, 9, 36, 0
11, 103214, Note_on_c, 9, 51, 91
11, 103450, Note_on_c, 9, 51, 0
11, 103611, Note_on_c, 9, 51, 55
11, 103650, Note_on_c, 9, 51, 0
11, 103726, Note_on_c, 9, 44, 112
11, 103746, Note_on_c, 9, 51, 72
11, 103841, Note_on_c, 9, 44, 0
11, 104014, Note_on_c, 9, 51, 0
11, 104113, Note_on_c, 9, 51, 64
11, 104378, Note_on_c, 9, 51, 0
11, 104479, Note_on_c, 9, 51, 76
11, 104494, Note_on_c, 9, 44, 110
11, 104600, Note_on_c, 9, 44, 0
11, 104647, Note_on_c, 9, 51, 0
11, 104776, Note_on_c, 9, 51, 65
11, 104858, Note_on_c, 9, 51, 0
11, 104901, Note_on_c, 9, 51, 73
11, 105118, Note_on_c, 9, 37, 51
11, 105121, Note_on_c, 9, 51, 0
11, 105156, Note_on_c, 9, 37, 0
11, 105262, Note_on_c, 9, 44, 103
11, 105265, Note_on_c, 9, 51, 82
11, 105366, Note_on_c, 9, 44, 0
11, 105467, Note_on_c, 9, 51, 0
11, 105632, Note_on_c, 9, 51, 59
11, 105672, Note_on_c, 9, 37, 71
11, 105825, Note_on_c, 9, 37, 0
11, 105887, Note_on_c, 9, 51, 0
11, 106016, Note_on_c, 9, 51, 80
11, 106030, Note_on_c, 9, 44, 106
11, 106075, Note_on_c, 9, 36, 23
11, 106134, Note_on_c, 9, 44, 0
11, 106138, Note_on_c, 9, 36, 0
11, 106228, Note_on_c, 9, 51, 0
11, 106275, Note_on_c, 9, 36, 56
11, 106405, Note_on_c, 9, 51, 60
11, 106534, Note_on_c, 9, 36, 0
11, 106666, Note_on_c, 9, 51, 0
11, 106766, Note_on_c, 9, 51, 71
11, 106798, Note_on_c, 9, 44, 105
11, 106905, Note_on_c, 9, 44, 0
11, 106931, Note_on_c, 9, 51, 0
11, 107158, Note_on_c, 9, 51, 67
11, 107315, Note_on_c, 9, 51, 0
11, 107556, Note_on_c, 9, 51, 80
11, 107566, Note_on_c, 9, 44, 107
11, 107670, Note_on_c, 9, 44, 0
11, 107680, Note_on_c, 9, 51, 0
11, 107979, Note_on_c, 9, 51, 83
11, 108058, Note_on_c, 9, 51, 0
11, 108231, Note_on_c, 9, 36, 23
11, 108286, Note_on_c, 9, 36, 0
11, 108334, Note_on_c, 9, 44, 112
11, 108390, Note_on_c, 9, 51, 62
11, 108432, Note_on_c, 9, 44, 0
11, 108435, Note_on_c, 9, 51, 0
11, 108608, Note_on_c, 9, 36, 42
11, 108617, Note_on_c, 9, 51, 54
11, 108650, Note_on_c, 9, 36, 0
11, 108690, Note_on_c, 9, 51, 0
11, 108745, Note_on_c, 9, 36, 50
11, 108751, Note_on_c, 9, 51, 60
11, 108850, Note_on_c, 9, 51, 0
11, 108965, Note_on_c, 9, 36, 0
11, 109102, Note_on_c, 9, 44, 110
11, 109118, Note_on_c, 9, 51, 92
11, 109202, Note_on_c, 9, 44, 0
11, 109220, Note_on_c, 9, 51, 0
11, 109384, Note_on_c, 9, 51, 53
11, 109406, Note_on_c, 9, 36, 28
11, 109438, Note_on_c, 9, 51, 0
11, 109459, Note_on_c, 9, 36, 0
11, 109505, Note_on_c, 9, 51, 64
11, 109622, Note_on_c, 9, 51, 0
11, 109864, Note_on_c, 9, 51, 83
11, 109870, Note_on_c, 9, 44, 107
11, 109967, Note_on_c, 9, 51, 0
11, 109974, Note_on_c, 9, 44, 0
11, 110129, Note_on_c, 9, 51, 54
11, 110169, Note_on_c, 9, 51, 0
11, 110206, Note_on_c, 9, 36, 27
11, 110219, Note_on_c, 9, 51, 25
11, 110270, Note_on_c, 9, 36, 0
11, 110327, Note_on_c, 9, 51, 0
11, 110454, Note_on_c, 9, 44, 66
11, 110482, Note_on_c, 9, 53, 83
11, 110503, Note_on_c, 9, 44, 0
11, 110610, Note_on_c, 9, 53, 0
11, 110638, Note_on_c, 9, 44, 108
11, 110710, Note_on_c, 9, 44, 66
11, 110748, Note_on_c, 9, 44, 0
11, 110773, Note_on_c, 9, 44, 0
11, 110910, Note_on_c, 9, 51, 52
11, 110949, Note_on_c, 9, 51, 0
11, 110964, Note_on_c, 9, 36, 43
11, 111056, Note_on_c, 9, 51, 53
11, 111093, Note_on_c, 9, 36, 0
11, 111262, Note_on_c, 9, 51, 0
11, 111406, Note_on_c, 9, 44, 108
11, 111417, Note_on_c, 9, 51, 78
11, 111520, Note_on_c, 9, 44, 0
11, 111577, Note_on_c, 9, 51, 0
11, 111689, Note_on_c, 9, 36, 39
11, 111694, Note_on_c, 9, 51, 31
11, 111738, Note_on_c, 9, 36, 0
11, 111745, Note_on_c, 9, 51, 0
11, 111822, Note_on_c, 9, 51, 63
11, 111940, Note_on_c, 9, 51, 0
11, 112174, Note_on_c, 9, 44, 117
11, 112182, Note_on_c, 9, 51, 90
11, 112210, Note_on_c, 9, 36, 51
11, 112267, Note_on_c, 9, 44, 0
11, 112333, Note_on_c, 9, 36, 0
11, 112339, Note_on_c, 9, 51, 0
11, 112434, Note_on_c, 9, 51, 44
11, 112482, Note_on_c, 9, 51, 0
11, 112578, Note_on_c, 9, 51, 63
11, 112713, Note_on_c, 9, 51, 0
11, 112716, Program_c, 9, 0
11, 112942, Note_on_c, 9, 44, 110
11, 112948, Note_on_c, 9, 51, 91
11, 113082, Note_on_c, 9, 51, 0
11, 113122, Note_on_c, 9, 44, 0
11, 113209, Note_on_c, 9, 51, 47
11, 113296, Note_on_c, 9, 51, 0
11, 113355, Note_on_c, 9, 51, 59
11, 113470, Note_on_c, 9, 51, 0
11, 113707, Note_on_c, 9, 51, 92
11, 113710, Note_on_c, 9, 44, 112
11, 113834, Note_on_c, 9, 51, 0
11, 113854, Note_on_c, 9, 44, 0
11, 113964, Note_on_c, 9, 46, 51
11, 114010, Note_on_c, 9, 46, 0
11, 114080, Note_on_c, 9, 51, 70
11, 114240, Note_on_c, 9, 51, 0
11, 114346, Note_on_c, 9, 51, 38
11, 114382, Note_on_c, 9, 36, 34
11, 114408, Note_on_c, 9, 51, 0
11, 114430, Note_on_c, 9, 36, 0
11, 114478, Note_on_c, 9, 44, 106
11, 114491, Note_on_c, 9, 51, 73
11, 114518, Note_on_c, 9, 36, 37
11, 114610, Note_on_c, 9, 44, 0
11, 114659, Note_on_c, 9, 51, 0
11, 114703, Note_on_c, 9, 36, 0
11, 114749, Note_on_c, 9, 36, 42
11, 114865, Note_on_c, 9, 51, 83
11, 114962, Note_on_c, 9, 36, 0
11, 115044, Note_on_c, 9, 51, 0
11, 115246, Note_on_c, 9, 44, 107
11, 115250, Note_on_c, 9, 51, 80
11, 115370, Note_on_c, 9, 44, 0
11, 115394, Note_on_c, 9, 51, 0
11, 115625, Note_on_c, 9, 51, 74
11, 115754, Note_on_c, 9, 51, 0
11, 116014, Note_on_c, 9, 44, 112
11, 116018, Note_on_c, 9, 51, 87
11, 116129, Note_on_c, 9, 44, 0
11, 116158, Note_on_c, 9, 51, 0
11, 116314, Note_on_c, 9, 51, 53
11, 116375, Note_on_c, 9, 51, 0
11, 116434, Note_on_c, 9, 51, 71
11, 116575, Note_on_c, 9, 51, 0
11, 116782, Note_on_c, 9, 44, 110
11, 116782, Note_on_c, 9, 51, 86
11, 116888, Note_on_c, 9, 44, 0
11, 116926, Note_on_c, 9, 51, 0
11, 117047, Note_on_c, 9, 51, 36
11, 117104, Note_on_c, 9, 51, 0
11, 117169, Note_on_c, 9, 51, 71
11, 117294, Note_on_c, 9, 51, 0
11, 117426, Note_on_c, 9, 40, 25
11, 117526, Note_on_c, 9, 40, 0
11, 117540, Note_on_c, 9, 51, 86
11, 117550, Note_on_c, 9, 44, 103
11, 117630, Note_on_c, 9, 51, 0
11, 117654, Note_on_c, 9, 44, 0
11, 117794, Note_on_c, 9, 51, 60
11, 117806, Note_on_c, 9, 40, 39
11, 117838, Note_on_c, 9, 51, 0
11, 117915, Note_on_c, 9, 40, 0
11, 117926, Note_on_c, 9, 51, 53
11, 118005, Note_on_c, 9, 51, 0
11, 118177, Note_on_c, 9, 40, 42
11, 118187, Note_on_c, 9, 51, 91
11, 118291, Note_on_c, 9, 40, 0
11, 118307, Note_on_c, 9, 51, 0
11, 118318, Note_on_c, 9, 44, 106
11, 118380, Note_on_c, 9, 51, 51
11, 118422, Note_on_c, 9, 44, 0
11, 118423, Note_on_c, 9, 51, 0
11, 118534, Note_on_c, 9, 40, 42
11, 118623, Note_on_c, 9, 40, 0
11, 118674, Note_on_c, 9, 46, 41
11, 118698, Note_on_c, 9, 36, 46
11, 118729, Note_on_c, 9, 51, 85
11, 118791, Note_on_c, 9, 46, 0
11, 118817, Note_on_c, 9, 36, 0
11, 118850, Note_on_c, 9, 51, 0
11, 119086, Note_on_c, 9, 44, 105
11, 119103, Note_on_c, 9, 51, 58
11, 119153, Note_on_c, 9, 51, 0
11, 119193, Note_on_c, 9, 44, 0
11, 119335, Note_on_c, 9, 51, 84
11, 119486, Note_on_c, 9, 51, 0
11, 119692, Note_on_c, 9, 51, 47
11, 119704, Note_on_c, 9, 40, 37
11, 119753, Note_on_c, 9, 40, 0
11, 119762, Note_on_c, 9, 51, 0
11, 119854, Note_on_c, 9, 44, 107
11, 119855, Note_on_c, 9, 36, 55
11, 119871, Note_on_c, 9, 51, 80
11, 119958, Note_on_c, 9, 44, 0
11, 120030, Note_on_c, 9, 51, 0
11, 120110, Note_on_c, 9, 36, 0
11, 120228, Note_on_c, 9, 51, 42
11, 120313, Note_on_c, 9, 51, 0
11, 120497, Note_on_c, 9, 51, 85
11, 120622, Note_on_c, 9, 44, 112
11, 120638, Note_on_c, 9, 51, 0
11, 120720, Note_on_c, 9, 44, 0
11, 120862, Note_on_c, 9, 51, 48
11, 120906, Note_on_c, 9, 51, 0
11, 121023, Note_on_c, 9, 51, 80
11, 121211, Note_on_c, 9, 51, 0
11, 121390, Note_on_c, 9, 44, 110
11, 121406, Note_on_c, 9, 51, 76
11, 121490, Note_on_c, 9, 44, 0
11, 121525, Note_on_c, 9, 51, 0
11, 121677, Note_on_c, 9, 51, 29
11, 121718, Note_on_c, 9, 51, 0
11, 121781, Note_on_c, 9, 51, 74
11, 121918, Note_on_c, 9, 51, 0
11, 122018, Note_on_c, 9, 36, 34
11, 122069, Note_on_c, 9, 36, 0
11, 122158, Note_on_c, 9, 44, 107
11, 122166, Note_on_c, 9, 51, 87
11, 122168, Note_on_c, 9, 36, 35
11, 122262, Note_on_c, 9, 44, 0
11, 122281, Note_on_c, 9, 51, 0
11, 122311, Note_on_c, 9, 36, 0
11, 122422, Note_on_c, 9, 51, 37
11, 122471, Note_on_c, 9, 51, 0
11, 122541, Note_on_c, 9, 51, 68
11, 122685, Note_on_c, 9, 51, 0
11, 122926, Note_on_c, 9, 44, 108
11, 122927, Note_on_c, 9, 51, 83
11, 123036, Note_on_c, 9, 44, 0
11, 123073, Note_on_c, 9, 51, 0
11, 123284, Note_on_c, 9, 51, 53
11, 123378, Note_on_c, 9, 51, 0
11, 123563, Note_on_c, 9, 51, 81
11, 123694, Note_on_c, 9, 44, 108
11, 123696, Note_on_c, 9, 51, 0
11, 123808, Note_on_c, 9, 44, 0
11, 123939, Note_on_c, 9, 51, 46
11, 123986, Note_on_c, 9, 51, 0
11, 124077, Note_on_c, 9, 51, 72
11, 124255, Note_on_c, 9, 51, 0
11, 124462, Note_on_c, 9, 44, 117
11, 124470, Note_on_c, 9, 51, 70
11, 124541, Note_on_c, 9, 51, 0
11, 124555, Note_on_c, 9, 44, 0
11, 124687, Note_on_c, 9, 51, 90
11, 124823, Note_on_c, 9, 51, 0
11, 125004, Program_c, 9, 0
11, 125089, Note_on_c, 9, 51, 33
11, 125130, Note_on_c, 9, 51, 0
11, 125226, Note_on_c, 9, 51, 76
11, 125230, Note_on_c, 9, 44, 110
11, 125382, Note_on_c, 9, 51, 0
11, 125410, Note_on_c, 9, 44, 0
11, 125429, Note_on_c, 9, 36, 34
11, 125523, Note_on_c, 9, 36, 0
11, 125619, Note_on_c, 9, 51, 88
11, 125787, Note_on_c, 9, 51, 0
11, 125985, Note_on_c, 9, 36, 38
11, 125998, Note_on_c, 9, 44, 112
11, 126035, Note_on_c, 9, 51, 73
11, 126058, Note_on_c, 9, 36, 0
11, 126110, Note_on_c, 9, 51, 0
11, 126142, Note_on_c, 9, 44, 0
11, 126261, Note_on_c, 9, 51, 71
11, 126304, Note_on_c, 9, 51, 0
11, 126394, Note_on_c, 9, 51, 75
11, 126548, Note_on_c, 9, 51, 0
11, 126766, Note_on_c, 9, 44, 106
11, 126769, Note_on_c, 9, 51, 87
11, 126898, Note_on_c, 9, 44, 0
11, 126905, Note_on_c, 9, 51, 0
11, 127038, Note_on_c, 9, 51, 49
11, 127082, Note_on_c, 9, 51, 0
11, 127156, Note_on_c, 9, 51, 64
11, 127274, Note_on_c, 9, 51, 0
11, 127490, Note_on_c, 9, 36, 35
11, 127521, Note_on_c, 9, 51, 88
11, 127534, Note_on_c, 9, 44, 107
11, 127626, Note_on_c, 9, 36, 0
11, 127648, Note_on_c, 9, 51, 0
11, 127658, Note_on_c, 9, 44, 0
11, 127806, Note_on_c, 9, 51, 50
11, 127844, Note_on_c, 9, 51, 0
11, 127906, Note_on_c, 9, 51, 51
11, 127921, Note_on_c, 9, 36, 43
11, 128013, Note_on_c, 9, 51, 0
11, 128082, Note_on_c, 9, 36, 0
11, 128287, Note_on_c, 9, 51, 81
11, 128302, Note_on_c, 9, 44, 112
11, 128400, Note_on_c, 9, 51, 0
11, 128417, Note_on_c, 9, 44, 0
11, 128567, Note_on_c, 9, 51, 48
11, 128606, Note_on_c, 9, 51, 0
11, 128685, Note_on_c, 9, 51, 61
11, 128802, Note_on_c, 9, 51, 0
11, 129070, Note_on_c, 9, 44, 110
11, 129079, Note_on_c, 9, 51, 77
11, 129176, Note_on_c, 9, 44, 0
11, 129220, Note_on_c, 9, 51, 0
11, 129446, Note_on_c, 9, 40, 38
11, 129469, Note_on_c, 9, 51, 62
11, 129483, Note_on_c, 9, 40, 0
11, 129558, Note_on_c, 9, 40, 40
11, 129589, Note_on_c, 9, 51, 0
11, 129597, Note_on_c, 9, 40, 0
11, 129812, Note_on_c, 9, 36, 46
11, 129838, Note_on_c, 9, 44, 103
11, 129850, Note_on_c, 9, 51, 86
11, 129936, Note_on_c, 9, 50, 27
11, 129942, Note_on_c, 9, 44, 0
11, 129981, Note_on_c, 9, 36, 0
11, 129982, Note_on_c, 9, 51, 0
11, 129982, Note_on_c, 9, 50, 0
11, 130246, Note_on_c, 9, 51, 49
11, 130359, Note_on_c, 9, 51, 0
11, 130516, Note_on_c, 9, 36, 43
11, 130606, Note_on_c, 9, 44, 106
11, 130614, Note_on_c, 9, 51, 86
11, 130631, Note_on_c, 9, 36, 0
11, 130710, Note_on_c, 9, 44, 0
11, 130767, Note_on_c, 9, 51, 0
11, 131022, Note_on_c, 9, 51, 71
11, 131028, Note_on_c, 9, 36, 42
11, 131103, Note_on_c, 9, 51, 0
11, 131182, Note_on_c, 9, 36, 0
11, 131374, Note_on_c, 9, 44, 105
11, 131378, Note_on_c, 9, 51, 88
11, 131481, Note_on_c, 9, 44, 0
11, 131497, Note_on_c, 9, 51, 0
11, 131646, Note_on_c, 9, 51, 60
11, 131684, Note_on_c, 9, 51, 0
11, 131762, Note_on_c, 9, 51, 67
11, 131886, Note_on_c, 9, 51, 0
11, 132014, Note_on_c, 9, 36, 32
11, 132067, Note_on_c, 9, 36, 0
11, 132142, Note_on_c, 9, 44, 107
11, 132170, Note_on_c, 9, 51, 82
11, 132246, Note_on_c, 9, 44, 0
11, 132260, Note_on_c, 9, 51, 0
11, 132546, Note_on_c, 9, 36, 35
11, 132583, Note_on_c, 9, 51, 45
11, 132625, Note_on_c, 9, 36, 0
11, 132654, Note_on_c, 9, 51, 0
11, 132910, Note_on_c, 9, 44, 112
11, 133008, Note_on_c, 9, 44, 0
11, 133311, Note_on_c, 9, 51, 56
11, 133557, Note_on_c, 9, 51, 0
11, 133678, Note_on_c, 9, 44, 110
11, 133697, Note_on_c, 9, 51, 74
11, 133778, Note_on_c, 9, 44, 0
11, 133921, Note_on_c, 9, 51, 0
11, 134073, Note_on_c, 9, 51, 40
11, 134294, Note_on_c, 9, 51, 0
11, 134442, Note_on_c, 9, 51, 80
11, 134446, Note_on_c, 9, 44, 107
11, 134550, Note_on_c, 9, 44, 0
11, 134631, Note_on_c, 9, 51, 0
11, 134834, Note_on_c, 9, 51, 45
11, 135012, Note_on_c, 9, 51, 0
11, 135194, Note_on_c, 9, 51, 71
11, 135214, Note_on_c, 9, 44, 108
11, 135324, Note_on_c, 9, 44, 0
11, 135330, Note_on_c, 9, 51, 0
11, 135460, Note_on_c, 9, 51, 48
11, 135542, Note_on_c, 9, 51, 0
11, 135609, Note_on_c, 9, 51, 67
11, 135825, Note_on_c, 9, 51, 0
11, 135964, Note_on_c, 9, 51, 75
11, 135982, Note_on_c, 9, 44, 108
11, 136096, Note_on_c, 9, 44, 0
11, 136122, Note_on_c, 9, 51, 0
11, 136240, Note_on_c, 9, 51, 45
11, 136318, Note_on_c, 9, 51, 0
11, 136390, Note_on_c, 9, 51, 72
11, 136603, Note_on_c, 9, 51, 0
11, 136742, Note_on_c, 9, 51, 76
11, 136750, Note_on_c, 9, 44, 117
11, 136843, Note_on_c, 9, 44, 0
11, 136942, Note_on_c, 9, 51, 0
11, 137099, Note_on_c, 9, 57, 78
11, 137118, Note_on_c, 9, 51, 55
11, 137124, Note_on_c, 9, 36, 56
11, 137206, Note_on_c, 9, 57, 0
11, 137292, Program_c, 9, 0
11, 137338, Note_on_c, 9, 51, 0
11, 137351, Note_on_c, 9, 36, 0
11, 137497, Note_on_c, 9, 51, 51
11, 137518, Note_on_c, 9, 44, 110
11, 137622, Note_on_c, 9, 51, 0
11, 137698, Note_on_c, 9, 44, 0
11, 137790, Note_on_c, 9, 51, 59
11, 137902, Note_on_c, 9, 51, 0
11, 137961, Note_on_c, 9, 51, 69
11, 138178, Note_on_c, 9, 51, 0
11, 138273, Note_on_c, 9, 51, 71
11, 138286, Note_on_c, 9, 44, 112
11, 138430, Note_on_c, 9, 44, 0
11, 138448, Note_on_c, 9, 51, 0
11, 138532, Note_on_c, 9, 51, 53
11, 138630, Note_on_c, 9, 51, 0
11, 138673, Note_on_c, 9, 51, 64
11, 138902, Note_on_c, 9, 51, 0
11, 138913, Note_on_c, 9, 36, 34
11, 138957, Note_on_c, 9, 36, 0
11, 139047, Note_on_c, 9, 51, 83
11, 139054, Note_on_c, 9, 44, 106
11, 139186, Note_on_c, 9, 44, 0
11, 139214, Note_on_c, 9, 51, 0
11, 139335, Note_on_c, 9, 51, 46
11, 139459, Note_on_c, 9, 36, 27
11, 139518, Note_on_c, 9, 36, 0
11, 139658, Note_on_c, 9, 51, 0
11, 139813, Note_on_c, 9, 51, 77
11, 139822, Note_on_c, 9, 44, 107
11, 139946, Note_on_c, 9, 44, 0
11, 139972, Note_on_c, 9, 51, 0
11, 140052, Note_on_c, 9, 36, 28
11, 140110, Note_on_c, 9, 36, 0
11, 140111, Note_on_c, 9, 51, 62
11, 140188, Note_on_c, 9, 51, 0
11, 140241, Note_on_c, 9, 51, 68
11, 140472, Note_on_c, 9, 51, 0
11, 140590, Note_on_c, 9, 44, 112
11, 140597, Note_on_c, 9, 51, 75
11, 140705, Note_on_c, 9, 44, 0
11, 140828, Note_on_c, 9, 51, 0
11, 140983, Note_on_c, 9, 51, 72
11, 141202, Note_on_c, 9, 51, 0
11, 141358, Note_on_c, 9, 44, 110
11, 141361, Note_on_c, 9, 51, 75
11, 141459, Note_on_c, 9, 51, 0
11, 141464, Note_on_c, 9, 44, 0
11, 141725, Note_on_c, 9, 51, 76
11, 141794, Note_on_c, 9, 51, 0
11, 141977, Note_on_c, 9, 36, 27
11, 142089, Note_on_c, 9, 51, 75
11, 142122, Note_on_c, 9, 36, 0
11, 142126, Note_on_c, 9, 44, 103
11, 142186, Note_on_c, 9, 51, 0
11, 142230, Note_on_c, 9, 44, 0
11, 142366, Note_on_c, 9, 51, 59
11, 142432, Note_on_c, 9, 51, 0
11, 142503, Note_on_c, 9, 51, 74
11, 142517, Note_on_c, 9, 36, 23
11, 142581, Note_on_c, 9, 36, 0
11, 142652, Note_on_c, 9, 51, 0
11, 142883, Note_on_c, 9, 51, 84
11, 142894, Note_on_c, 9, 44, 106
11, 142998, Note_on_c, 9, 44, 0
11, 143010, Note_on_c, 9, 51, 0
11, 143155, Note_on_c, 9, 51, 42
11, 143206, Note_on_c, 9, 51, 0
11, 143267, Note_on_c, 9, 51, 67
11, 143390, Note_on_c, 9, 51, 0
11, 143638, Note_on_c, 9, 51, 88
11, 143662, Note_on_c, 9, 44, 105
11, 143766, Note_on_c, 9, 51, 0
11, 143769, Note_on_c, 9, 44, 0
11, 143962, Note_on_c, 9, 51, 33
11, 144003, Note_on_c, 9, 51, 0
11, 144063, Note_on_c, 9, 51, 74
11, 144197, Note_on_c, 9, 51, 0
11, 144422, Note_on_c, 9, 51, 88
11, 144430, Note_on_c, 9, 44, 107
11, 144534, Note_on_c, 9, 44, 0
11, 144549, Note_on_c, 9, 51, 0
11, 144754, Note_on_c, 9, 36, 21
11, 144797, Note_on_c, 9, 51, 51
11, 144820, Note_on_c, 9, 36, 0
11, 144913, Note_on_c, 9, 51, 0
11, 144918, Note_on_c, 9, 36, 44
11, 145087, Note_on_c, 9, 36, 0
11, 145090, Note_on_c, 9, 51, 50
11, 145174, Note_on_c, 9, 51, 0
11, 145198, Note_on_c, 9, 44, 112
11, 145204, Note_on_c, 9, 51, 53
11, 145296, Note_on_c, 9, 44, 0
11, 145344, Note_on_c, 9, 51, 0
11, 145574, Note_on_c, 9, 51, 84
11, 145725, Note_on_c, 9, 51, 0
11, 145887, Note_on_c, 9, 51, 46
11, 145955, Note_on_c, 9, 51, 0
11, 145966, Note_on_c, 9, 44, 110
11, 145977, Note_on_c, 9, 36, 23
11, 146066, Note_on_c, 9, 44, 0
11, 146229, Note_on_c, 9, 51, 88
11, 146251, Note_on_c, 9, 36, 0
11, 146362, Note_on_c, 9, 51, 0
11, 146374, Note_on_c, 9, 36, 28
11, 146520, Note_on_c, 9, 36, 0
11, 146605, Note_on_c, 9, 51, 47
11, 146666, Note_on_c, 9, 51, 0
11, 146734, Note_on_c, 9, 44, 107
11, 146745, Note_on_c, 9, 51, 78
11, 146838, Note_on_c, 9, 44, 0
11, 146946, Note_on_c, 9, 51, 0
11, 147126, Note_on_c, 9, 51, 84
11, 147311, Note_on_c, 9, 51, 0
11, 147502, Note_on_c, 9, 44, 108
11, 147506, Note_on_c, 9, 51, 87
11, 147612, Note_on_c, 9, 44, 0
11, 147680, Note_on_c, 9, 51, 0
11, 147773, Note_on_c, 9, 51, 35
11, 147832, Note_on_c, 9, 51, 0
11, 147885, Note_on_c, 9, 51, 62
11, 148044, Note_on_c, 9, 51, 0
11, 148262, Note_on_c, 9, 51, 85
11, 148270, Note_on_c, 9, 44, 108
11, 148384, Note_on_c, 9, 44, 0
11, 148441, Note_on_c, 9, 51, 0
11, 148520, Note_on_c, 9, 36, 30
11, 148528, Note_on_c, 9, 51, 40
11, 148574, Note_on_c, 9, 36, 0
11, 148582, Note_on_c, 9, 51, 0
11, 148657, Note_on_c, 9, 51, 70
11, 148816, Note_on_c, 9, 51, 0
11, 149035, Note_on_c, 9, 51, 88
11, 149038, Note_on_c, 9, 44, 117
11, 149063, Note_on_c, 9, 36, 40
11, 149131, Note_on_c, 9, 44, 0
11, 149186, Note_on_c, 9, 36, 0
11, 149208, Note_on_c, 9, 51, 0
11, 149294, Note_on_c, 9, 51, 36
11, 149360, Note_on_c, 9, 51, 0
11, 149417, Note_on_c, 9, 51, 64
11, 149555, Note_on_c, 9, 51, 0
11, 149580, Program_c, 9, 0
11, 149789, Note_on_c, 9, 51, 86
11, 149806, Note_on_c, 9, 44, 110
11, 149923, Note_on_c, 9, 51, 0
11, 149986, Note_on_c, 9, 44, 0
11, 150180, Note_on_c, 9, 51, 76
11, 150349, Note_on_c, 9, 51, 0
11, 150434, Note_on_c, 9, 51, 42
11, 150502, Note_on_c, 9, 51, 0
11, 150573, Note_on_c, 9, 51, 75
11, 150574, Note_on_c, 9, 44, 112
11, 150718, Note_on_c, 9, 44, 0
11, 150720, Note_on_c, 9, 51, 0
11, 150945, Note_on_c, 9, 51, 78
11, 151116, Note_on_c, 9, 51, 0
11, 151318, Note_on_c, 9, 51, 72
11, 151342, Note_on_c, 9, 44, 106
11, 151463, Note_on_c, 9, 51, 0
11, 151474, Note_on_c, 9, 44, 0
11, 151586, Note_on_c, 9, 51, 38
11, 151647, Note_on_c, 9, 51, 0
11, 151718, Note_on_c, 9, 51, 75
11, 151868, Note_on_c, 9, 51, 0
11, 152090, Note_on_c, 9, 51, 91
11, 152110, Note_on_c, 9, 44, 107
11, 152230, Note_on_c, 9, 51, 0
11, 152234, Note_on_c, 9, 44, 0
11, 152345, Note_on_c, 9, 51, 54
11, 152367, Note_on_c, 9, 40, 28
11, 152414, Note_on_c, 9, 40, 0
11, 152424, Note_on_c, 9, 51, 0
11, 152490, Note_on_c, 9, 51, 75
11, 152518, Note_on_c, 9, 40, 28
11, 152566, Note_on_c, 9, 40, 0
11, 152631, Note_on_c, 9, 51, 0
11, 152744, Note_on_c, 9, 36, 39
11, 152871, Note_on_c, 9, 36, 0
11, 152871, Note_on_c, 9, 51, 86
11, 152878, Note_on_c, 9, 44, 112
11, 152992, Note_on_c, 9, 51, 0
11, 152993, Note_on_c, 9, 44, 0
11, 153143, Note_on_c, 9, 51, 48
11, 153197, Note_on_c, 9, 51, 0
11, 153263, Note_on_c, 9, 51, 69
11, 153378, Note_on_c, 9, 51, 0
11, 153512, Note_on_c, 9, 40, 30
11, 153557, Note_on_c, 9, 40, 0
11, 153616, Note_on_c, 9, 51, 80
11, 153636, Note_on_c, 9, 40, 44
11, 153646, Note_on_c, 9, 44, 110
11, 153722, Note_on_c, 9, 40, 0
11, 153752, Note_on_c, 9, 44, 0
11, 153758, Note_on_c, 9, 51, 0
11, 153882, Note_on_c, 9, 51, 44
11, 153921, Note_on_c, 9, 51, 0
11, 154016, Note_on_c, 9, 51, 59
11, 154046, Note_on_c, 9, 36, 31
11, 154170, Note_on_c, 9, 36, 0
11, 154170, Note_on_c, 9, 51, 0
11, 154266, Note_on_c, 9, 36, 44
11, 154392, Note_on_c, 9, 51, 83
11, 154402, Note_on_c, 9, 36, 0
11, 154414, Note_on_c, 9, 44, 103
11, 154422, Note_on_c, 9, 53, 46
11, 154518, Note_on_c, 9, 44, 0
11, 154526, Note_on_c, 9, 53, 0
11, 154565, Note_on_c, 9, 51, 0
11, 154795, Note_on_c, 9, 51, 60
11, 154805, Note_on_c, 9, 40, 42
11, 154912, Note_on_c, 9, 40, 0
11, 154922, Note_on_c, 9, 51, 0
11, 154985, Note_on_c, 9, 40, 37
11, 155067, Note_on_c, 9, 51, 83
11, 155078, Note_on_c, 9, 40, 0
11, 155078, Note_on_c, 9, 53, 84
11, 155146, Note_on_c, 9, 36, 39
11, 155182, Note_on_c, 9, 44, 106
11, 155256, Note_on_c, 9, 51, 0
11, 155274, Note_on_c, 9, 53, 0
11, 155286, Note_on_c, 9, 44, 0
11, 155341, Note_on_c, 9, 36, 0
11, 155439, Note_on_c, 9, 51, 70
11, 155517, Note_on_c, 9, 51, 0
11, 155623, Note_on_c, 9, 51, 78
11, 155633, Note_on_c, 9, 53, 71
11, 155803, Note_on_c, 9, 51, 0
11, 155847, Note_on_c, 9, 53, 0
11, 155950, Note_on_c, 9, 44, 105
11, 155973, Note_on_c, 9, 51, 59
11, 156057, Note_on_c, 9, 44, 0
11, 156058, Note_on_c, 9, 51, 0
11, 156198, Note_on_c, 9, 51, 91
11, 156215, Note_on_c, 9, 53, 70
11, 156370, Note_on_c, 9, 51, 0
11, 156432, Note_on_c, 9, 53, 0
11, 156569, Note_on_c, 9, 40, 37
11, 156574, Note_on_c, 9, 51, 67
11, 156617, Note_on_c, 9, 40, 0
11, 156659, Note_on_c, 9, 51, 0
11, 156708, Note_on_c, 9, 51, 71
11, 156718, Note_on_c, 9, 44, 107
11, 156733, Note_on_c, 9, 53, 79
11, 156822, Note_on_c, 9, 44, 0
11, 156937, Note_on_c, 9, 51, 0
11, 156994, Note_on_c, 9, 53, 0
11, 157139, Note_on_c, 9, 51, 68
11, 157251, Note_on_c, 9, 51, 0
11, 157359, Note_on_c, 9, 40, 35
11, 157374, Note_on_c, 9, 51, 80
11, 157399, Note_on_c, 9, 40, 0
11, 157486, Note_on_c, 9, 44, 112
11, 157578, Note_on_c, 9, 51, 0
11, 157584, Note_on_c, 9, 44, 0
11, 157754, Note_on_c, 9, 51, 38
11, 157797, Note_on_c, 9, 51, 0
11, 157846, Note_on_c, 9, 40, 15
11, 157869, Note_on_c, 9, 51, 74
11, 158042, Note_on_c, 9, 40, 0
11, 158098, Note_on_c, 9, 51, 0
11, 158254, Note_on_c, 9, 44, 110
11, 158266, Note_on_c, 9, 51, 77
11, 158274, Note_on_c, 9, 40, 38
11, 158319, Note_on_c, 9, 40, 0
11, 158354, Note_on_c, 9, 44, 0
11, 158434, Note_on_c, 9, 51, 0
11, 158482, Note_on_c, 9, 40, 35
11, 158533, Note_on_c, 9, 51, 44
11, 158586, Note_on_c, 9, 40, 0
11, 158618, Note_on_c, 9, 51, 0
11, 158656, Note_on_c, 9, 51, 60
11, 158850, Note_on_c, 9, 51, 0
11, 158862, Note_on_c, 9, 36, 26
11, 158934, Note_on_c, 9, 36, 0
11, 159006, Note_on_c, 9, 57, 66
11, 159011, Note_on_c, 9, 51, 87
11, 159022, Note_on_c, 9, 44, 107
11, 159107, Note_on_c, 9, 57, 0
11, 159126, Note_on_c, 9, 44, 0
11, 159186, Note_on_c, 9, 51, 0
11, 159283, Note_on_c, 9, 51, 45
11, 159365, Note_on_c, 9, 51, 0
11, 159414, Note_on_c, 9, 51, 70
11, 159589, Note_on_c, 9, 51, 0
11, 159790, Note_on_c, 9, 51, 91
11, 159790, Note_on_c, 9, 44, 108
11, 159900, Note_on_c, 9, 44, 0
11, 159966, Note_on_c, 9, 51, 0
11, 160165, Note_on_c, 9, 51, 65
11, 160309, Note_on_c, 9, 51, 0
11, 160395, Note_on_c, 9, 40, 31
11, 160541, Note_on_c, 9, 51, 83
11, 160558, Note_on_c, 9, 44, 108
11, 160613, Note_on_c, 9, 40, 0
11, 160672, Note_on_c, 9, 44, 0
11, 160677, Note_on_c, 9, 51, 0
11, 160929, Note_on_c, 9, 51, 75
11, 160938, Note_on_c, 9, 40, 38
11, 161045, Note_on_c, 9, 40, 0
11, 161052, Note_on_c, 9, 51, 0
11, 161304, Note_on_c, 9, 51, 85
11, 161326, Note_on_c, 9, 44, 117
11, 161419, Note_on_c, 9, 44, 0
11, 161422, Note_on_c, 9, 51, 0
11, 161702, Note_on_c, 9, 51, 83
11, 161814, Note_on_c, 9, 51, 0
11, 161868, Program_c, 9, 0
11, 162088, Note_on_c, 9, 51, 91
11, 162094, Note_on_c, 9, 44, 110
11, 162241, Note_on_c, 9, 51, 0
11, 162274, Note_on_c, 9, 44, 0
11, 162458, Note_on_c, 9, 51, 72
11, 162489, Note_on_c, 9, 40, 34
11, 162554, Note_on_c, 9, 40, 0
11, 162564, Note_on_c, 9, 51, 0
11, 162718, Note_on_c, 9, 51, 59
11, 162726, Note_on_c, 9, 40, 33
11, 162769, Note_on_c, 9, 40, 0
11, 162778, Note_on_c, 9, 51, 0
11, 162848, Note_on_c, 9, 51, 81
11, 162862, Note_on_c, 9, 44, 112
11, 162865, Note_on_c, 9, 36, 25
11, 163006, Note_on_c, 9, 44, 0
11, 163046, Note_on_c, 9, 51, 0
11, 163102, Note_on_c, 9, 36, 0
11, 163228, Note_on_c, 9, 36, 39
11, 163239, Note_on_c, 9, 51, 83
11, 163385, Note_on_c, 9, 36, 0
11, 163434, Note_on_c, 9, 51, 0
11, 163630, Note_on_c, 9, 44, 106
11, 163637, Note_on_c, 9, 51, 84
11, 163762, Note_on_c, 9, 44, 0
11, 163769, Note_on_c, 9, 51, 0
11, 163849, Note_on_c, 9, 36, 31
11, 163903, Note_on_c, 9, 51, 83
11, 163915, Note_on_c, 9, 53, 78
11, 163956, Note_on_c, 9, 36, 0
11, 164102, Note_on_c, 9, 53, 0
11, 164119, Note_on_c, 9, 51, 0
11, 164219, Note_on_c, 9, 36, 30
11, 164269, Note_on_c, 9, 36, 0
11, 164292, Note_on_c, 9, 51, 63
11, 164362, Note_on_c, 9, 40, 43
11, 164363, Note_on_c, 9, 51, 0
11, 164398, Note_on_c, 9, 44, 107
11, 164438, Note_on_c, 9, 51, 76
11, 164447, Note_on_c, 9, 53, 74
11, 164515, Note_on_c, 9, 40, 0
11, 164522, Note_on_c, 9, 44, 0
11, 164627, Note_on_c, 9, 36, 44
11, 164677, Note_on_c, 9, 51, 0
11, 164686, Note_on_c, 9, 53, 0
11, 164810, Note_on_c, 9, 51, 56
11, 164881, Note_on_c, 9, 36, 0
11, 164923, Note_on_c, 9, 51, 0
11, 165066, Note_on_c, 9, 51, 86
11, 165166, Note_on_c, 9, 44, 112
11, 165207, Note_on_c, 9, 36, 37
11, 165244, Note_on_c, 9, 51, 0
11, 165281, Note_on_c, 9, 44, 0
11, 165328, Note_on_c, 9, 36, 0
11, 165406, Note_on_c, 9, 51, 52
11, 165497, Note_on_c, 9, 51, 0
11, 165560, Note_on_c, 9, 51, 79
11, 165793, Note_on_c, 9, 51, 0
11, 165934, Note_on_c, 9, 44, 110
11, 165938, Note_on_c, 9, 51, 80
11, 166040, Note_on_c, 9, 44, 0
11, 166121, Note_on_c, 9, 51, 0
11, 166202, Note_on_c, 9, 51, 51
11, 166277, Note_on_c, 9, 51, 0
11, 166342, Note_on_c, 9, 51, 78
11, 166533, Note_on_c, 9, 51, 0
11, 166702, Note_on_c, 9, 44, 103
11, 166720, Note_on_c, 9, 51, 86
11, 166806, Note_on_c, 9, 44, 0
11, 166902, Note_on_c, 9, 51, 0
11, 166981, Note_on_c, 9, 51, 55
11, 167062, Note_on_c, 9, 51, 0
11, 167118, Note_on_c, 9, 51, 76
11, 167299, Note_on_c, 9, 51, 0
11, 167470, Note_on_c, 9, 44, 106
11, 167476, Note_on_c, 9, 51, 91
11, 167574, Note_on_c, 9, 44, 0
11, 167650, Note_on_c, 9, 51, 0
11, 167740, Note_on_c, 9, 51, 54
11, 167826, Note_on_c, 9, 51, 0
11, 167860, Note_on_c, 9, 51, 57
11, 168037, Note_on_c, 9, 51, 0
11, 168106, Note_on_c, 9, 36, 23
11, 168156, Note_on_c, 9, 36, 0
11, 168238, Note_on_c, 9, 51, 88
11, 168238, Note_on_c, 9, 44, 105
11, 168345, Note_on_c, 9, 44, 0
11, 168409, Note_on_c, 9, 51, 0
11, 168490, Note_on_c, 9, 51, 52
11, 168574, Note_on_c, 9, 51, 0
11, 168626, Note_on_c, 9, 51, 64
11, 168814, Note_on_c, 9, 51, 0
11, 169004, Note_on_c, 9, 51, 86
11, 169006, Note_on_c, 9, 44, 107
11, 169110, Note_on_c, 9, 44, 0
11, 169175, Note_on_c, 9, 51, 0
11, 169250, Note_on_c, 9, 51, 50
11, 169328, Note_on_c, 9, 51, 0
11, 169398, Note_on_c, 9, 51, 77
11, 169562, Note_on_c, 9, 51, 0
11, 169774, Note_on_c, 9, 51, 83
11, 169774, Note_on_c, 9, 44, 112
11, 169872, Note_on_c, 9, 44, 0
11, 169974, Note_on_c, 9, 51, 0
11, 170153, Note_on_c, 9, 51, 86
11, 170382, Note_on_c, 9, 51, 0
11, 170536, Note_on_c, 9, 51, 76
11, 170542, Note_on_c, 9, 44, 110
11, 170556, Note_on_c, 9, 37, 69
11, 170642, Note_on_c, 9, 44, 0
11, 170646, Note_on_c, 9, 51, 0
11, 170738, Note_on_c, 9, 37, 0
11, 170802, Note_on_c, 9, 51, 50
11, 170855, Note_on_c, 9, 51, 0
11, 170928, Note_on_c, 9, 51, 79
11, 171119, Note_on_c, 9, 51, 0
11, 171304, Note_on_c, 9, 51, 90
11, 171310, Note_on_c, 9, 44, 107
11, 171414, Note_on_c, 9, 44, 0
11, 171496, Note_on_c, 9, 51, 0
11, 171570, Note_on_c, 9, 51, 54
11, 171649, Note_on_c, 9, 51, 0
11, 171701, Note_on_c, 9, 51, 76
11, 171873, Note_on_c, 9, 51, 0
11, 172074, Note_on_c, 9, 51, 92
11, 172078, Note_on_c, 9, 44, 108
11, 172103, Note_on_c, 9, 36, 28
11, 172118, Note_on_c, 9, 37, 45
11, 172188, Note_on_c, 9, 44, 0
11, 172271, Note_on_c, 9, 36, 0
11, 172301, Note_on_c, 9, 37, 0
11, 172311, Note_on_c, 9, 51, 0
11, 172448, Note_on_c, 9, 51, 40
11, 172558, Note_on_c, 9, 51, 0
11, 172724, Note_on_c, 9, 51, 60
11, 172806, Note_on_c, 9, 51, 0
11, 172833, Note_on_c, 9, 51, 52
11, 172846, Note_on_c, 9, 44, 108
11, 172960, Note_on_c, 9, 44, 0
11, 173047, Note_on_c, 9, 51, 0
11, 173233, Note_on_c, 9, 51, 87
11, 173474, Note_on_c, 9, 51, 0
11, 173591, Note_on_c, 9, 51, 38
11, 173614, Note_on_c, 9, 44, 117
11, 173632, Note_on_c, 9, 37, 53
11, 173642, Note_on_c, 9, 36, 39
11, 173698, Note_on_c, 9, 51, 0
11, 173707, Note_on_c, 9, 44, 0
11, 173801, Note_on_c, 9, 37, 0
11, 173826, Note_on_c, 9, 36, 0
11, 173869, Note_on_c, 9, 51, 48
11, 173934, Note_on_c, 9, 51, 0
11, 173997, Note_on_c, 9, 51, 83
11, 174156, Program_c, 9, 0
11, 174190, Note_on_c, 9, 51, 0
11, 174382, Note_on_c, 9, 44, 110
11, 174398, Note_on_c, 9, 51, 68
11, 174470, Note_on_c, 9, 51, 0
11, 174562, Note_on_c, 9, 44, 0
11, 174622, Note_on_c, 9, 51, 90
11, 174834, Note_on_c, 9, 51, 0
11, 175022, Note_on_c, 9, 51, 58
11, 175093, Note_on_c, 9, 51, 0
11, 175150, Note_on_c, 9, 44, 112
11, 175181, Note_on_c, 9, 37, 57
11, 175182, Note_on_c, 9, 51, 85
11, 175187, Note_on_c, 9, 36, 39
11, 175294, Note_on_c, 9, 44, 0
11, 175318, Note_on_c, 9, 36, 0
11, 175369, Note_on_c, 9, 37, 0
11, 175384, Note_on_c, 9, 51, 0
11, 175562, Note_on_c, 9, 51, 62
11, 175643, Note_on_c, 9, 51, 0
11, 175755, Note_on_c, 9, 37, 37
11, 175789, Note_on_c, 9, 51, 92
11, 175794, Note_on_c, 9, 37, 0
11, 175914, Note_on_c, 9, 51, 0
11, 175918, Note_on_c, 9, 44, 106
11, 176050, Note_on_c, 9, 44, 0
11, 176167, Note_on_c, 9, 51, 59
11, 176212, Note_on_c, 9, 51, 0
11, 176302, Note_on_c, 9, 51, 77
11, 176486, Note_on_c, 9, 51, 0
11, 176670, Note_on_c, 9, 37, 57
11, 176685, Note_on_c, 9, 51, 65
11, 176686, Note_on_c, 9, 44, 107
11, 176699, Note_on_c, 9, 36, 35
11, 176810, Note_on_c, 9, 44, 0
11, 176811, Note_on_c, 9, 51, 0
11, 176839, Note_on_c, 9, 36, 0
11, 176875, Note_on_c, 9, 37, 0
11, 177078, Note_on_c, 9, 51, 50
11, 177155, Note_on_c, 9, 51, 0
11, 177230, Note_on_c, 9, 51, 74
11, 177329, Note_on_c, 9, 51, 0
11, 177454, Note_on_c, 9, 44, 112
11, 177520, Note_on_c, 9, 51, 91
11, 177569, Note_on_c, 9, 44, 0
11, 177651, Note_on_c, 9, 51, 0
11, 177875, Note_on_c, 9, 51, 85
11, 178074, Note_on_c, 9, 51, 0
11, 178217, Note_on_c, 9, 51, 76
11, 178222, Note_on_c, 9, 44, 110
11, 178264, Note_on_c, 9, 37, 38
11, 178273, Note_on_c, 9, 36, 31
11, 178318, Note_on_c, 9, 51, 0
11, 178328, Note_on_c, 9, 44, 0
11, 178418, Note_on_c, 9, 36, 0
11, 178428, Note_on_c, 9, 37, 0
11, 178474, Note_on_c, 9, 51, 71
11, 178542, Note_on_c, 9, 51, 0
11, 178593, Note_on_c, 9, 51, 69
11, 178782, Note_on_c, 9, 51, 0
11, 178978, Note_on_c, 9, 51, 84
11, 178990, Note_on_c, 9, 44, 103
11, 179094, Note_on_c, 9, 44, 0
11, 179126, Note_on_c, 9, 51, 0
11, 179287, Note_on_c, 9, 51, 39
11, 179328, Note_on_c, 9, 51, 0
11, 179390, Note_on_c, 9, 51, 77
11, 179553, Note_on_c, 9, 51, 0
11, 179758, Note_on_c, 9, 44, 106
11, 179768, Note_on_c, 9, 51, 92
11, 179862, Note_on_c, 9, 44, 0
11, 179908, Note_on_c, 9, 51, 0
11, 180048, Note_on_c, 9, 51, 64
11, 180116, Note_on_c, 9, 51, 0
11, 180168, Note_on_c, 9, 51, 64
11, 180300, Note_on_c, 9, 51, 0
11, 180526, Note_on_c, 9, 44, 105
11, 180530, Note_on_c, 9, 51, 88
11, 180633, Note_on_c, 9, 44, 0
11, 180648, Note_on_c, 9, 51, 0
11, 180805, Note_on_c, 9, 51, 62
11, 180874, Note_on_c, 9, 51, 0
11, 180922, Note_on_c, 9, 51, 63
11, 181065, Note_on_c, 9, 51, 0
11, 181294, Note_on_c, 9, 44, 107
11, 181307, Note_on_c, 9, 51, 86
11, 181398, Note_on_c, 9, 44, 0
11, 181439, Note_on_c, 9, 51, 0
11, 181513, Note_on_c, 9, 40, 55
11, 181588, Note_on_c, 9, 51, 39
11, 181591, Note_on_c, 9, 40, 0
11, 181626, Note_on_c, 9, 51, 0
11, 181690, Note_on_c, 9, 51, 67
11, 181800, Note_on_c, 9, 40, 53
11, 181812, Note_on_c, 9, 51, 0
11, 181893, Note_on_c, 9, 40, 0
11, 182062, Note_on_c, 9, 44, 112
11, 182071, Note_on_c, 9, 51, 86
11, 182160, Note_on_c, 9, 44, 0
11, 182188, Note_on_c, 9, 51, 0
11, 182344, Note_on_c, 9, 51, 64
11, 182416, Note_on_c, 9, 51, 0
11, 182486, Note_on_c, 9, 51, 76
11, 182579, Note_on_c, 9, 51, 0
11, 182830, Note_on_c, 9, 44, 110
11, 182831, Note_on_c, 9, 51, 86
11, 182866, Note_on_c, 9, 36, 35
11, 182930, Note_on_c, 9, 44, 0
11, 182951, Note_on_c, 9, 51, 0
11, 183052, Note_on_c, 9, 36, 0
11, 183111, Note_on_c, 9, 51, 50
11, 183128, Note_on_c, 9, 36, 52
11, 183150, Note_on_c, 9, 51, 0
11, 183214, Note_on_c, 9, 51, 64
11, 183299, Note_on_c, 9, 36, 0
11, 183322, Note_on_c, 9, 51, 0
11, 183598, Note_on_c, 9, 44, 107
11, 183598, Note_on_c, 9, 51, 90
11, 183702, Note_on_c, 9, 44, 0
11, 183719, Note_on_c, 9, 51, 0
11, 183859, Note_on_c, 9, 51, 47
11, 183903, Note_on_c, 9, 51, 0
11, 183974, Note_on_c, 9, 51, 68
11, 184092, Note_on_c, 9, 51, 0
11, 184366, Note_on_c, 9, 44, 108
11, 184369, Note_on_c, 9, 51, 90
11, 184476, Note_on_c, 9, 44, 0
11, 184486, Note_on_c, 9, 51, 0
11, 184612, Note_on_c, 9, 51, 46
11, 184665, Note_on_c, 9, 51, 0
11, 184746, Note_on_c, 9, 51, 67
11, 184852, Note_on_c, 9, 51, 0
11, 185124, Note_on_c, 9, 51, 86
11, 185134, Note_on_c, 9, 44, 108
11, 185248, Note_on_c, 9, 44, 0
11, 185264, Note_on_c, 9, 51, 0
11, 185381, Note_on_c, 9, 36, 37
11, 185431, Note_on_c, 9, 36, 0
11, 185449, Note_on_c, 9, 51, 62
11, 185489, Note_on_c, 9, 51, 0
11, 185552, Note_on_c, 9, 51, 62
11, 185564, Note_on_c, 9, 36, 35
11, 185649, Note_on_c, 9, 51, 0
11, 185737, Note_on_c, 9, 36, 0
11, 185841, Note_on_c, 9, 36, 38
11, 185902, Note_on_c, 9, 44, 117
11, 185903, Note_on_c, 9, 51, 87
11, 185958, Note_on_c, 9, 36, 0
11, 185995, Note_on_c, 9, 44, 0
11, 186040, Note_on_c, 9, 51, 0
11, 186182, Note_on_c, 9, 36, 39
11, 186278, Note_on_c, 9, 51, 81
11, 186309, Note_on_c, 9, 36, 0
11, 186423, Note_on_c, 9, 51, 0
11, 186444, Program_c, 9, 0
11, 186658, Note_on_c, 9, 51, 85
11, 186670, Note_on_c, 9, 44, 110
11, 186805, Note_on_c, 9, 51, 0
11, 186850, Note_on_c, 9, 44, 0
11, 186953, Note_on_c, 9, 51, 46
11, 186995, Note_on_c, 9, 51, 0
11, 187060, Note_on_c, 9, 51, 75
11, 187215, Note_on_c, 9, 51, 0
11, 187438, Note_on_c, 9, 44, 112
11, 187439, Note_on_c, 9, 51, 92
11, 187582, Note_on_c, 9, 44, 0
11, 187603, Note_on_c, 9, 51, 0
11, 187701, Note_on_c, 9, 51, 43
11, 187781, Note_on_c, 9, 51, 0
11, 187824, Note_on_c, 9, 51, 58
11, 187992, Note_on_c, 9, 51, 0
11, 188206, Note_on_c, 9, 44, 106
11, 188210, Note_on_c, 9, 51, 90
11, 188338, Note_on_c, 9, 44, 0
11, 188391, Note_on_c, 9, 51, 0
11, 188600, Note_on_c, 9, 51, 70
11, 188734, Note_on_c, 9, 51, 0
11, 188974, Note_on_c, 9, 44, 107
11, 188986, Note_on_c, 9, 51, 87
11, 189098, Note_on_c, 9, 44, 0
11, 189130, Note_on_c, 9, 51, 0
11, 189244, Note_on_c, 9, 51, 42
11, 189305, Note_on_c, 9, 51, 0
11, 189361, Note_on_c, 9, 51, 71
11, 189517, Note_on_c, 9, 51, 0
11, 189742, Note_on_c, 9, 44, 112
11, 189742, Note_on_c, 9, 51, 86
11, 189857, Note_on_c, 9, 44, 0
11, 189907, Note_on_c, 9, 51, 0
11, 189990, Note_on_c, 9, 51, 50
11, 190067, Note_on_c, 9, 51, 0
11, 190116, Note_on_c, 9, 51, 67
11, 190270, Note_on_c, 9, 51, 0
11, 190495, Note_on_c, 9, 51, 88
11, 190510, Note_on_c, 9, 44, 110
11, 190616, Note_on_c, 9, 44, 0
11, 190671, Note_on_c, 9, 51, 0
11, 190762, Note_on_c, 9, 51, 47
11, 190834, Note_on_c, 9, 51, 0
11, 190890, Note_on_c, 9, 51, 74
11, 191029, Note_on_c, 9, 51, 0
11, 191268, Note_on_c, 9, 51, 91
11, 191278, Note_on_c, 9, 44, 103
11, 191382, Note_on_c, 9, 44, 0
11, 191454, Note_on_c, 9, 51, 0
11, 191534, Note_on_c, 9, 51, 53
11, 191610, Note_on_c, 9, 51, 0
11, 191650, Note_on_c, 9, 36, 25
11, 191660, Note_on_c, 9, 51, 69
11, 191769, Note_on_c, 9, 36, 0
11, 191794, Note_on_c, 9, 51, 0
11, 192029, Note_on_c, 9, 51, 87
11, 192046, Note_on_c, 9, 44, 106
11, 192059, Note_on_c, 9, 36, 35
11, 192150, Note_on_c, 9, 44, 0
11, 192233, Note_on_c, 9, 51, 0
11, 192250, Note_on_c, 9, 36, 0
11, 192430, Note_on_c, 9, 51, 80
11, 192572, Note_on_c, 9, 51, 0
11, 192814, Note_on_c, 9, 51, 85
11, 192814, Note_on_c, 9, 44, 105
11, 192921, Note_on_c, 9, 44, 0
11, 192985, Note_on_c, 9, 51, 0
11, 193068, Note_on_c, 9, 51, 51
11, 193153, Note_on_c, 9, 51, 0
11, 193197, Note_on_c, 9, 51, 52
11, 193348, Note_on_c, 9, 51, 0
11, 193558, Note_on_c, 9, 51, 87
11, 193582, Note_on_c, 9, 44, 107
11, 193686, Note_on_c, 9, 44, 0
11, 193726, Note_on_c, 9, 51, 0
11, 193910, Note_on_c, 9, 40, 28
11, 193953, Note_on_c, 9, 51, 85
11, 193983, Note_on_c, 9, 40, 0
11, 194118, Note_on_c, 9, 51, 0
11, 194346, Note_on_c, 9, 51, 81
11, 194350, Note_on_c, 9, 44, 112
11, 194350, Note_on_c, 9, 53, 74
11, 194448, Note_on_c, 9, 44, 0
11, 194527, Note_on_c, 9, 53, 0
11, 194538, Note_on_c, 9, 51, 0
11, 194566, Note_on_c, 9, 40, 31
11, 194700, Note_on_c, 9, 40, 0
11, 194736, Note_on_c, 9, 51, 59
11, 194871, Note_on_c, 9, 51, 0
11, 194887, Note_on_c, 9, 40, 24
11, 194983, Note_on_c, 9, 40, 0
11, 195115, Note_on_c, 9, 51, 82
11, 195118, Note_on_c, 9, 53, 75
11, 195118, Note_on_c, 9, 44, 110
11, 195134, Note_on_c, 9, 36, 35
11, 195218, Note_on_c, 9, 44, 0
11, 195255, Note_on_c, 9, 36, 0
11, 195302, Note_on_c, 9, 53, 0
11, 195339, Note_on_c, 9, 51, 0
11, 195378, Note_on_c, 9, 36, 42
11, 195501, Note_on_c, 9, 51, 68
11, 195602, Note_on_c, 9, 36, 0
11, 195632, Note_on_c, 9, 51, 0
11, 195874, Note_on_c, 9, 51, 88
11, 195886, Note_on_c, 9, 44, 107
11, 195990, Note_on_c, 9, 44, 0
11, 196059, Note_on_c, 9, 51, 0
11, 196283, Note_on_c, 9, 51, 45
11, 196402, Note_on_c, 9, 51, 0
11, 196654, Note_on_c, 9, 44, 108
11, 196657, Note_on_c, 9, 46, 62
11, 196658, Note_on_c, 9, 51, 76
11, 196764, Note_on_c, 9, 44, 0
11, 196790, Note_on_c, 9, 46, 0
11, 196806, Note_on_c, 9, 51, 0
11, 196875, Note_on_c, 9, 36, 30
11, 196931, Note_on_c, 9, 36, 0
11, 197033, Note_on_c, 9, 36, 27
11, 197229, Note_on_c, 9, 36, 0
11, 197422, Note_on_c, 9, 44, 108
11, 197434, Note_on_c, 9, 51, 69
11, 197536, Note_on_c, 9, 44, 0
11, 197579, Note_on_c, 9, 51, 0
11, 197690, Note_on_c, 9, 51, 50
11, 197747, Note_on_c, 9, 51, 0
11, 197828, Note_on_c, 9, 51, 64
11, 198021, Note_on_c, 9, 51, 0
11, 198055, Note_on_c, 9, 36, 47
11, 198190, Note_on_c, 9, 44, 117
11, 198208, Note_on_c, 9, 51, 83
11, 198234, Note_on_c, 9, 36, 0
11, 198283, Note_on_c, 9, 44, 0
11, 198371, Note_on_c, 9, 51, 0
11, 198458, Note_on_c, 9, 51, 37
11, 198514, Note_on_c, 9, 51, 0
11, 198582, Note_on_c, 9, 51, 51
11, 198621, Note_on_c, 9, 36, 49
11, 198732, Program_c, 9, 0
11, 198752, Note_on_c, 9, 51, 0
11, 198806, Note_on_c, 9, 36, 0
11, 198958, Note_on_c, 9, 44, 110
11, 198959, Note_on_c, 9, 51, 83
11, 199128, Note_on_c, 9, 51, 0
11, 199138, Note_on_c, 9, 44, 0
11, 199203, Note_on_c, 9, 51, 53
11, 199289, Note_on_c, 9, 51, 0
11, 199338, Note_on_c, 9, 51, 47
11, 199502, Note_on_c, 9, 51, 0
11, 199713, Note_on_c, 9, 51, 82
11, 199726, Note_on_c, 9, 44, 112
11, 199870, Note_on_c, 9, 44, 0
11, 199884, Note_on_c, 9, 51, 0
11, 199966, Note_on_c, 9, 51, 48
11, 200046, Note_on_c, 9, 51, 0
11, 200112, Note_on_c, 9, 51, 59
11, 200113, Note_on_c, 9, 36, 25
11, 200267, Note_on_c, 9, 51, 0
11, 200274, Note_on_c, 9, 36, 0
11, 200362, Note_on_c, 9, 36, 25
11, 200482, Note_on_c, 9, 36, 0
11, 200487, Note_on_c, 9, 51, 84
11, 200494, Note_on_c, 9, 44, 106
11, 200626, Note_on_c, 9, 44, 0
11, 200638, Note_on_c, 9, 51, 0
11, 200742, Note_on_c, 9, 51, 33
11, 200791, Note_on_c, 9, 51, 0
11, 200862, Note_on_c, 9, 51, 60
11, 200890, Note_on_c, 9, 36, 36
11, 200990, Note_on_c, 9, 51, 0
11, 201001, Note_on_c, 9, 36, 0
11, 201246, Note_on_c, 9, 51, 82
11, 201262, Note_on_c, 9, 44, 107
11, 201386, Note_on_c, 9, 44, 0
11, 201411, Note_on_c, 9, 51, 0
11, 201636, Note_on_c, 9, 51, 82
11, 201815, Note_on_c, 9, 51, 0
11, 202030, Note_on_c, 9, 44, 112
11, 202044, Note_on_c, 9, 51, 77
11, 202145, Note_on_c, 9, 44, 0
11, 202180, Note_on_c, 9, 51, 0
11, 202262, Note_on_c, 9, 51, 59
11, 202344, Note_on_c, 9, 51, 0
11, 202409, Note_on_c, 9, 51, 68
11, 202557, Note_on_c, 9, 51, 0
11, 202787, Note_on_c, 9, 51, 84
11, 202798, Note_on_c, 9, 44, 110
11, 202904, Note_on_c, 9, 44, 0
11, 202944, Note_on_c, 9, 51, 0
11, 203044, Note_on_c, 9, 51, 39
11, 203114, Note_on_c, 9, 51, 0
11, 203170, Note_on_c, 9, 51, 60
11, 203327, Note_on_c, 9, 51, 0
11, 203550, Note_on_c, 9, 51, 83
11, 203566, Note_on_c, 9, 44, 103
11, 203584, Note_on_c, 9, 36, 15
11, 203670, Note_on_c, 9, 44, 0
11, 203707, Note_on_c, 9, 36, 0
11, 203713, Note_on_c, 9, 51, 0
11, 203790, Note_on_c, 9, 51, 51
11, 203866, Note_on_c, 9, 51, 0
11, 203930, Note_on_c, 9, 51, 70
11, 203977, Note_on_c, 9, 36, 35
11, 204078, Note_on_c, 9, 51, 0
11, 204124, Note_on_c, 9, 36, 0
11, 204219, Note_on_c, 9, 36, 38
11, 204302, Note_on_c, 9, 36, 0
11, 204302, End_track
0, 0, End_of_file
