0, 0, Header, 1, 4, 960
1, 0, Start_track
1, 0, Title_t, "untitled"
1, 0, Copyright_t, "Copyright © 2005 by Doug McKenzie"
1, 0, Text_t, "Doug McKenzie"
1, 0, Time_signature, 4, 2, 24, 8
1, 0, Key_signature, 0, "major"
1, 0, Tempo, 600000
1, 0, End_track
2, 0, Start_track
2, 0, Title_t, "Track 1"
2, 0, Control_c, 0, 7, 101
2, 0, Control_c, 0, 10, 64
2, 0, End_track
3, 0, Start_track
3, 0, Title_t, "Track 2"
3, 0, Control_c, 0, 7, 101
3, 0, Control_c, 0, 10, 64
3, 0, End_track
4, 0, Start_track
4, 0, Title_t, "Track 3"
4, 10590, Note_on_c, 0, 60, 85
4, 10630, Note_on_c, 0, 45, 42
4, 10841, Note_on_c, 0, 53, 1
4, 11105, Control_c, 0, 64, 127
4, 11443, Note_on_c, 0, 53, 0
4, 11900, Note_on_c, 0, 65, 76
4, 11919, Note_on_c, 0, 53, 40
4, 12025, Note_on_c, 0, 60, 0
4, 12457, Note_on_c, 0, 45, 0
4, 12727, Note_on_c, 0, 53, 0
4, 12900, Control_c, 0, 64, 0
4, 13081, Note_on_c, 0, 59, 44
4, 13100, Note_on_c, 0, 56, 51
4, 13110, Note_on_c, 0, 65, 0
4, 13119, Note_on_c, 0, 53, 34
4, 13123, Note_on_c, 0, 44, 38
4, 13286, Control_c, 0, 64, 127
4, 13363, Note_on_c, 0, 56, 0
4, 13487, Note_on_c, 0, 44, 0
4, 13534, Note_on_c, 0, 59, 0
4, 13566, Note_on_c, 0, 53, 0
4, 14383, Note_on_c, 0, 74, 71
4, 14393, Control_c, 0, 64, 0
4, 14395, Note_on_c, 0, 71, 68
4, 14401, Note_on_c, 0, 68, 69
4, 14403, Note_on_c, 0, 65, 80
4, 14404, Note_on_c, 0, 62, 55
4, 14415, Note_on_c, 0, 53, 38
4, 14430, Note_on_c, 0, 59, 40
4, 14443, Note_on_c, 0, 56, 36
4, 14444, Note_on_c, 0, 72, 36
4, 14515, Note_on_c, 0, 72, 0
4, 14548, Note_on_c, 0, 62, 0
4, 14567, Note_on_c, 0, 59, 0
4, 14633, Control_c, 0, 64, 127
4, 14635, Note_on_c, 0, 56, 0
4, 14678, Note_on_c, 0, 53, 0
4, 14756, Note_on_c, 0, 71, 0
4, 14836, Note_on_c, 0, 68, 0
4, 14849, Note_on_c, 0, 74, 0
4, 14851, Note_on_c, 0, 65, 0
4, 15289, Note_on_c, 0, 72, 57
4, 15310, Note_on_c, 0, 62, 70
4, 15310, Note_on_c, 0, 65, 72
4, 15332, Note_on_c, 0, 69, 45
4, 15419, Control_c, 0, 64, 0
4, 15535, Note_on_c, 0, 62, 0
4, 15649, Note_on_c, 0, 43, 36
4, 15654, Note_on_c, 0, 53, 33
4, 15676, Control_c, 0, 64, 127
4, 15803, Note_on_c, 0, 65, 0
4, 15876, Note_on_c, 0, 69, 0
4, 15879, Note_on_c, 0, 43, 0
4, 15886, Note_on_c, 0, 72, 0
4, 15977, Note_on_c, 0, 53, 0
4, 16894, Control_c, 0, 64, 0
4, 16900, Note_on_c, 0, 70, 59
4, 16902, Note_on_c, 0, 62, 53
4, 16907, Note_on_c, 0, 79, 53
4, 16908, Note_on_c, 0, 74, 58
4, 16923, Note_on_c, 0, 55, 30
4, 16950, Note_on_c, 0, 58, 37
4, 17011, Note_on_c, 0, 58, 0
4, 17012, Note_on_c, 0, 62, 0
4, 17049, Note_on_c, 0, 55, 0
4, 17199, Control_c, 0, 64, 127
4, 17740, Note_on_c, 0, 74, 0
4, 17758, Note_on_c, 0, 70, 0
4, 17895, Note_on_c, 0, 79, 0
4, 18147, Control_c, 0, 64, 0
4, 18174, Note_on_c, 0, 36, 34
4, 18193, Note_on_c, 0, 38, 30
4, 18199, Note_on_c, 0, 70, 51
4, 18214, Note_on_c, 0, 73, 35
4, 18219, Note_on_c, 0, 79, 36
4, 18236, Note_on_c, 0, 76, 45
4, 18361, Note_on_c, 0, 38, 0
4, 18382, Note_on_c, 0, 36, 0
4, 18387, Control_c, 0, 64, 127
4, 18510, Note_on_c, 0, 76, 0
4, 18542, Note_on_c, 0, 70, 0
4, 18580, Note_on_c, 0, 79, 0
4, 18668, Note_on_c, 0, 73, 0
4, 19439, Note_on_c, 0, 74, 70
4, 19443, Note_on_c, 0, 68, 72
4, 19444, Note_on_c, 0, 61, 46
4, 19455, Note_on_c, 0, 64, 77
4, 19463, Note_on_c, 0, 70, 60
4, 19467, Note_on_c, 0, 55, 34
4, 19481, Note_on_c, 0, 58, 50
4, 19508, Control_c, 0, 64, 0
4, 19764, Control_c, 0, 64, 127
4, 19863, Note_on_c, 0, 61, 0
4, 19897, Note_on_c, 0, 55, 0
4, 19913, Note_on_c, 0, 58, 0
4, 20079, Note_on_c, 0, 64, 0
4, 20110, Note_on_c, 0, 74, 0
4, 20267, Note_on_c, 0, 56, 62
4, 20321, Note_on_c, 0, 68, 0
4, 20345, Note_on_c, 0, 70, 0
4, 20583, Control_c, 0, 64, 0
4, 20596, Note_on_c, 0, 56, 0
4, 20679, Note_on_c, 0, 72, 66
4, 20683, Note_on_c, 0, 67, 80
4, 20692, Note_on_c, 0, 62, 82
4, 20697, Note_on_c, 0, 57, 73
4, 20887, Control_c, 0, 64, 127
4, 20889, Note_on_c, 0, 57, 0
4, 20903, Note_on_c, 0, 62, 0
4, 21012, Note_on_c, 0, 67, 0
4, 21039, Note_on_c, 0, 72, 0
4, 21532, Note_on_c, 0, 81, 81
4, 21535, Note_on_c, 0, 64, 74
4, 21537, Note_on_c, 0, 72, 83
4, 21543, Note_on_c, 0, 76, 74
4, 21577, Control_c, 0, 64, 0
4, 21771, Note_on_c, 0, 81, 0
4, 21772, Note_on_c, 0, 76, 0
4, 21799, Note_on_c, 0, 72, 0
4, 21814, Note_on_c, 0, 63, 36
4, 21833, Note_on_c, 0, 64, 0
4, 21863, Note_on_c, 0, 80, 45
4, 21895, Note_on_c, 0, 72, 14
4, 21971, Note_on_c, 0, 72, 0
4, 22006, Note_on_c, 0, 80, 0
4, 22092, Note_on_c, 0, 63, 0
4, 22201, Note_on_c, 0, 64, 76
4, 22204, Note_on_c, 0, 76, 80
4, 22207, Note_on_c, 0, 81, 75
4, 22219, Control_c, 0, 64, 127
4, 22220, Note_on_c, 0, 72, 66
4, 22265, Note_on_c, 0, 79, 24
4, 22423, Note_on_c, 0, 81, 0
4, 22441, Note_on_c, 0, 64, 0
4, 22452, Note_on_c, 0, 79, 0
4, 22465, Note_on_c, 0, 76, 0
4, 22503, Note_on_c, 0, 72, 0
4, 22764, Control_c, 0, 64, 0
4, 22777, Note_on_c, 0, 72, 58
4, 22782, Note_on_c, 0, 77, 60
4, 22790, Note_on_c, 0, 60, 60
4, 22798, Note_on_c, 0, 69, 64
4, 23084, Control_c, 0, 64, 127
4, 23343, Note_on_c, 0, 72, 0
4, 23347, Note_on_c, 0, 77, 0
4, 23393, Note_on_c, 0, 69, 0
4, 23436, Note_on_c, 0, 60, 0
4, 24803, Note_on_c, 0, 62, 85
4, 25139, Control_c, 0, 64, 0
4, 25147, Note_on_c, 0, 62, 0
4, 25257, Note_on_c, 0, 60, 36
4, 25270, Note_on_c, 0, 46, 31
4, 25275, Note_on_c, 0, 56, 32
4, 25443, Control_c, 0, 64, 127
4, 25495, Note_on_c, 0, 60, 0
4, 25569, Note_on_c, 0, 46, 0
4, 25636, Note_on_c, 0, 56, 0
4, 26086, Note_on_c, 0, 84, 79
4, 26094, Note_on_c, 0, 72, 65
4, 26281, Note_on_c, 0, 72, 0
4, 26316, Note_on_c, 0, 84, 0
4, 26420, Control_c, 0, 64, 0
4, 26465, Note_on_c, 0, 65, 50
4, 26478, Note_on_c, 0, 61, 32
4, 26500, Note_on_c, 0, 56, 23
4, 26518, Note_on_c, 0, 72, 1
4, 26543, Note_on_c, 0, 82, 47
4, 26620, Note_on_c, 0, 65, 0
4, 26684, Note_on_c, 0, 61, 0
4, 26723, Note_on_c, 0, 56, 0
4, 26742, Control_c, 0, 64, 127
4, 27095, Note_on_c, 0, 72, 0
4, 27196, Note_on_c, 0, 82, 0
4, 27267, Note_on_c, 0, 72, 58
4, 27281, Note_on_c, 0, 84, 64
4, 27399, Note_on_c, 0, 72, 0
4, 27423, Note_on_c, 0, 84, 0
4, 27447, Control_c, 0, 64, 0
4, 27631, Note_on_c, 0, 27, 53
4, 27719, Control_c, 0, 64, 127
4, 27748, Note_on_c, 0, 27, 0
4, 28489, Note_on_c, 0, 75, 55
4, 28491, Note_on_c, 0, 70, 61
4, 28515, Note_on_c, 0, 79, 37
4, 28604, Note_on_c, 0, 70, 0
4, 28636, Note_on_c, 0, 79, 0
4, 28727, Note_on_c, 0, 75, 0
4, 28854, Note_on_c, 0, 61, 42
4, 28875, Control_c, 0, 64, 0
4, 28876, Note_on_c, 0, 64, 61
4, 28913, Note_on_c, 0, 58, 32
4, 29049, Note_on_c, 0, 64, 0
4, 29099, Control_c, 0, 64, 127
4, 29164, Note_on_c, 0, 61, 0
4, 29207, Note_on_c, 0, 58, 0
4, 29684, Note_on_c, 0, 74, 71
4, 29692, Note_on_c, 0, 68, 74
4, 29697, Note_on_c, 0, 70, 68
4, 29705, Note_on_c, 0, 64, 74
4, 29715, Note_on_c, 0, 61, 35
4, 29716, Note_on_c, 0, 65, 69
4, 29766, Note_on_c, 0, 69, 32
4, 29769, Note_on_c, 0, 65, 0
4, 29785, Note_on_c, 0, 61, 0
4, 29857, Note_on_c, 0, 69, 0
4, 29910, Note_on_c, 0, 64, 0
4, 29916, Note_on_c, 0, 70, 0
4, 29985, Note_on_c, 0, 68, 0
4, 30003, Note_on_c, 0, 74, 0
4, 30126, Control_c, 0, 64, 0
4, 30142, Note_on_c, 0, 72, 38
4, 30150, Note_on_c, 0, 63, 64
4, 30164, Note_on_c, 0, 67, 65
4, 30175, Note_on_c, 0, 60, 50
4, 30236, Note_on_c, 0, 70, 26
4, 30607, Control_c, 0, 64, 127
4, 30732, Note_on_c, 0, 63, 0
4, 30939, Note_on_c, 0, 48, 81
4, 31662, Note_on_c, 0, 60, 0
4, 31913, Note_on_c, 0, 67, 0
4, 32134, Note_on_c, 0, 70, 0
4, 32161, Note_on_c, 0, 72, 0
4, 32542, Note_on_c, 0, 48, 0
4, 32596, Control_c, 0, 64, 0
4, 32619, Note_on_c, 0, 72, 55
4, 32620, Note_on_c, 0, 66, 69
4, 32630, Note_on_c, 0, 62, 71
4, 32631, Note_on_c, 0, 69, 58
4, 32635, Note_on_c, 0, 51, 45
4, 32647, Note_on_c, 0, 57, 64
4, 32998, Note_on_c, 0, 57, 0
4, 33028, Control_c, 0, 64, 127
4, 33047, Note_on_c, 0, 51, 0
4, 33807, Note_on_c, 0, 69, 0
4, 33830, Control_c, 0, 64, 0
4, 33854, Note_on_c, 0, 41, 79
4, 34119, Control_c, 0, 64, 127
4, 34235, Note_on_c, 0, 41, 0
4, 34575, Note_on_c, 0, 62, 0
4, 34639, Note_on_c, 0, 72, 0
4, 34735, Note_on_c, 0, 66, 0
4, 34937, Control_c, 0, 64, 0
4, 35030, Note_on_c, 0, 46, 57
4, 35060, Note_on_c, 0, 57, 51
4, 35067, Note_on_c, 0, 72, 54
4, 35084, Note_on_c, 0, 62, 63
4, 35086, Note_on_c, 0, 65, 60
4, 35092, Note_on_c, 0, 69, 35
4, 35257, Control_c, 0, 64, 127
4, 35259, Note_on_c, 0, 62, 0
4, 35276, Note_on_c, 0, 46, 0
4, 35331, Note_on_c, 0, 65, 0
4, 35372, Note_on_c, 0, 69, 0
4, 35459, Note_on_c, 0, 72, 0
4, 35465, Note_on_c, 0, 57, 0
4, 36283, Control_c, 0, 64, 0
4, 36287, Note_on_c, 0, 86, 75
4, 36300, Note_on_c, 0, 74, 76
4, 36307, Note_on_c, 0, 65, 60
4, 36318, Note_on_c, 0, 60, 37
4, 36335, Note_on_c, 0, 62, 53
4, 36572, Control_c, 0, 64, 127
4, 36803, Note_on_c, 0, 62, 0
4, 36907, Note_on_c, 0, 86, 0
4, 36955, Note_on_c, 0, 74, 0
4, 36964, Note_on_c, 0, 60, 0
4, 36972, Note_on_c, 0, 65, 0
4, 37486, Control_c, 0, 64, 0
4, 37523, Note_on_c, 0, 70, 58
4, 37526, Note_on_c, 0, 65, 55
4, 37534, Note_on_c, 0, 61, 34
4, 37539, Note_on_c, 0, 82, 42
4, 37540, Note_on_c, 0, 77, 53
4, 37569, Note_on_c, 0, 73, 31
4, 37571, Note_on_c, 0, 55, 32
4, 37684, Note_on_c, 0, 65, 0
4, 37729, Note_on_c, 0, 61, 0
4, 37791, Control_c, 0, 64, 127
4, 37793, Note_on_c, 0, 55, 0
4, 38756, Note_on_c, 0, 27, 48
4, 38857, Note_on_c, 0, 27, 0
4, 39339, Note_on_c, 0, 70, 0
4, 39457, Note_on_c, 0, 82, 0
4, 39471, Note_on_c, 0, 77, 0
4, 39548, Note_on_c, 0, 67, 46
4, 39604, Note_on_c, 0, 67, 0
4, 39620, Note_on_c, 0, 73, 0
4, 40198, Control_c, 0, 64, 0
4, 40263, Note_on_c, 0, 47, 22
4, 40340, Note_on_c, 0, 47, 0
4, 40423, Note_on_c, 0, 57, 66
4, 40435, Note_on_c, 0, 60, 38
4, 40438, Note_on_c, 0, 62, 67
4, 40447, Note_on_c, 0, 65, 54
4, 40460, Note_on_c, 0, 50, 48
4, 40726, Note_on_c, 0, 57, 0
4, 40780, Note_on_c, 0, 60, 0
4, 40783, Note_on_c, 0, 65, 0
4, 40806, Note_on_c, 0, 62, 0
4, 40815, Note_on_c, 0, 50, 0
4, 40822, Note_on_c, 0, 49, 39
4, 41123, Note_on_c, 0, 49, 0
4, 41129, Note_on_c, 0, 50, 64
4, 41134, Note_on_c, 0, 65, 56
4, 41167, Note_on_c, 0, 62, 51
4, 41172, Note_on_c, 0, 60, 37
4, 41180, Note_on_c, 0, 57, 49
4, 41239, Control_c, 0, 64, 127
4, 41567, Note_on_c, 0, 57, 0
4, 41595, Note_on_c, 0, 65, 0
4, 41671, Note_on_c, 0, 62, 0
4, 41678, Note_on_c, 0, 60, 0
4, 41913, Note_on_c, 0, 50, 0
4, 42297, Control_c, 0, 64, 0
4, 42375, Note_on_c, 0, 65, 47
4, 42377, Note_on_c, 0, 59, 46
4, 42382, Note_on_c, 0, 43, 30
4, 42396, Note_on_c, 0, 53, 34
4, 42411, Note_on_c, 0, 62, 51
4, 42435, Note_on_c, 0, 55, 28
4, 42510, Note_on_c, 0, 55, 0
4, 42719, Control_c, 0, 64, 127
4, 42748, Note_on_c, 0, 65, 0
4, 43036, Note_on_c, 0, 59, 0
4, 43049, Note_on_c, 0, 62, 0
4, 43071, Note_on_c, 0, 53, 0
4, 43203, Note_on_c, 0, 67, 74
4, 43435, Note_on_c, 0, 67, 0
4, 43567, Note_on_c, 0, 53, 35
4, 43583, Note_on_c, 0, 43, 0
4, 43622, Note_on_c, 0, 69, 53
4, 43748, Note_on_c, 0, 53, 0
4, 43870, Note_on_c, 0, 69, 0
4, 44391, Note_on_c, 0, 84, 62
4, 44649, Note_on_c, 0, 84, 0
4, 44771, Control_c, 0, 64, 0
4, 44814, Note_on_c, 0, 72, 46
4, 44830, Note_on_c, 0, 57, 45
4, 44843, Note_on_c, 0, 62, 40
4, 44863, Note_on_c, 0, 58, 32
4, 44990, Note_on_c, 0, 62, 0
4, 45003, Note_on_c, 0, 58, 0
4, 45027, Note_on_c, 0, 72, 0
4, 45044, Note_on_c, 0, 57, 0
4, 45206, Note_on_c, 0, 72, 31
4, 45428, Control_c, 0, 64, 127
4, 45494, Note_on_c, 0, 72, 0
4, 45614, Note_on_c, 0, 84, 57
4, 45910, Control_c, 0, 64, 0
4, 45967, Note_on_c, 0, 50, 41
4, 46052, Note_on_c, 0, 72, 36
4, 46247, Control_c, 0, 64, 127
4, 46427, Note_on_c, 0, 50, 0
4, 46689, Note_on_c, 0, 84, 0
4, 46719, Note_on_c, 0, 72, 0
4, 46883, Note_on_c, 0, 84, 32
4, 46931, Note_on_c, 0, 72, 29
4, 47063, Note_on_c, 0, 72, 0
4, 47119, Note_on_c, 0, 84, 0
4, 47147, Control_c, 0, 64, 0
4, 47292, Note_on_c, 0, 36, 30
4, 47335, Note_on_c, 0, 52, 33
4, 47425, Note_on_c, 0, 36, 0
4, 47451, Control_c, 0, 64, 127
4, 47572, Note_on_c, 0, 52, 0
4, 48527, Note_on_c, 0, 61, 35
4, 48548, Note_on_c, 0, 64, 66
4, 48583, Note_on_c, 0, 58, 35
4, 48606, Note_on_c, 0, 55, 20
4, 48887, Note_on_c, 0, 58, 0
4, 48959, Note_on_c, 0, 61, 0
4, 49035, Note_on_c, 0, 64, 0
4, 49047, Note_on_c, 0, 55, 0
4, 49823, Control_c, 0, 64, 0
4, 49910, Note_on_c, 0, 65, 35
4, 49935, Note_on_c, 0, 72, 41
4, 49937, Note_on_c, 0, 57, 36
4, 49945, Note_on_c, 0, 69, 31
4, 49959, Note_on_c, 0, 60, 33
4, 50175, Control_c, 0, 64, 127
4, 50327, Note_on_c, 0, 65, 0
4, 50487, Note_on_c, 0, 60, 0
4, 50502, Note_on_c, 0, 69, 0
4, 50641, Note_on_c, 0, 72, 0
4, 51156, Note_on_c, 0, 65, 55
4, 51190, Note_on_c, 0, 60, 30
4, 51694, Note_on_c, 0, 60, 0
4, 51767, Note_on_c, 0, 57, 0
4, 51863, Note_on_c, 0, 65, 0
4, 51953, Note_on_c, 0, 72, 99
4, 52382, Note_on_c, 0, 65, 40
4, 52406, Control_c, 0, 64, 0
4, 52412, Note_on_c, 0, 62, 32
4, 52423, Note_on_c, 0, 56, 23
4, 52425, Note_on_c, 0, 59, 29
4, 52726, Note_on_c, 0, 73, 33
4, 52839, Note_on_c, 0, 73, 0
4, 52857, Note_on_c, 0, 74, 48
4, 52923, Note_on_c, 0, 72, 0
4, 52948, Note_on_c, 0, 65, 0
4, 53092, Note_on_c, 0, 75, 49
4, 53158, Note_on_c, 0, 74, 0
4, 53207, Note_on_c, 0, 75, 0
4, 53214, Note_on_c, 0, 59, 0
4, 53219, Note_on_c, 0, 76, 63
4, 53231, Note_on_c, 0, 62, 0
4, 53319, Note_on_c, 0, 76, 0
4, 53411, Note_on_c, 0, 77, 89
4, 53649, Note_on_c, 0, 65, 54
4, 53691, Note_on_c, 0, 62, 45
4, 53702, Note_on_c, 0, 59, 37
4, 53865, Control_c, 0, 64, 127
4, 54110, Note_on_c, 0, 65, 0
4, 54132, Note_on_c, 0, 62, 0
4, 54230, Note_on_c, 0, 59, 0
4, 54284, Note_on_c, 0, 56, 0
4, 54375, Note_on_c, 0, 77, 0
4, 54492, Note_on_c, 0, 74, 82
4, 54812, Control_c, 0, 64, 0
4, 54859, Note_on_c, 0, 74, 0
4, 54892, Note_on_c, 0, 58, 49
4, 54894, Note_on_c, 0, 62, 41
4, 54907, Note_on_c, 0, 53, 29
4, 54916, Note_on_c, 0, 57, 27
4, 54956, Note_on_c, 0, 72, 55
4, 55004, Note_on_c, 0, 62, 0
4, 55017, Note_on_c, 0, 57, 0
4, 55043, Note_on_c, 0, 58, 0
4, 55100, Note_on_c, 0, 72, 0
4, 55123, Note_on_c, 0, 74, 59
4, 55127, Note_on_c, 0, 53, 0
4, 55262, Note_on_c, 0, 72, 30
4, 55315, Note_on_c, 0, 74, 0
4, 55452, Control_c, 0, 64, 127
4, 55487, Note_on_c, 0, 71, 53
4, 55491, Note_on_c, 0, 72, 0
4, 55708, Note_on_c, 0, 71, 0
4, 55801, Note_on_c, 0, 72, 60
4, 55931, Note_on_c, 0, 72, 0
4, 56014, Control_c, 0, 64, 0
4, 56115, Note_on_c, 0, 43, 36
4, 56121, Note_on_c, 0, 53, 42
4, 56139, Note_on_c, 0, 84, 72
4, 56254, Control_c, 0, 64, 127
4, 56283, Note_on_c, 0, 43, 0
4, 56366, Note_on_c, 0, 53, 0
4, 56606, Note_on_c, 0, 84, 0
4, 56883, Note_on_c, 0, 72, 58
4, 57033, Note_on_c, 0, 72, 0
4, 57249, Control_c, 0, 64, 0
4, 57281, Note_on_c, 0, 36, 28
4, 57295, Note_on_c, 0, 52, 36
4, 57324, Note_on_c, 0, 96, 48
4, 57436, Note_on_c, 0, 36, 0
4, 57452, Note_on_c, 0, 96, 0
4, 57537, Control_c, 0, 64, 127
4, 57614, Note_on_c, 0, 52, 0
4, 58118, Note_on_c, 0, 96, 57
4, 58239, Note_on_c, 0, 96, 0
4, 58419, Control_c, 0, 64, 0
4, 58492, Note_on_c, 0, 64, 50
4, 58495, Note_on_c, 0, 61, 37
4, 58555, Note_on_c, 0, 58, 39
4, 58623, Note_on_c, 0, 64, 0
4, 58681, Note_on_c, 0, 61, 0
4, 58691, Control_c, 0, 64, 127
4, 58761, Note_on_c, 0, 58, 0
4, 59254, Control_c, 0, 64, 0
4, 59316, Note_on_c, 0, 74, 73
4, 59318, Note_on_c, 0, 68, 79
4, 59334, Note_on_c, 0, 64, 70
4, 59340, Note_on_c, 0, 58, 76
4, 59353, Note_on_c, 0, 65, 67
4, 59407, Note_on_c, 0, 65, 0
4, 59654, Note_on_c, 0, 74, 0
4, 59715, Note_on_c, 0, 64, 0
4, 59740, Note_on_c, 0, 68, 0
4, 59753, Note_on_c, 0, 58, 0
4, 59830, Note_on_c, 0, 72, 59
4, 59844, Note_on_c, 0, 67, 68
4, 59852, Note_on_c, 0, 62, 66
4, 59854, Note_on_c, 0, 57, 73
4, 60308, Note_on_c, 0, 62, 0
4, 60359, Note_on_c, 0, 67, 0
4, 60411, Note_on_c, 0, 72, 0
4, 60548, Note_on_c, 0, 71, 9
4, 60577, Note_on_c, 0, 57, 0
4, 60588, Control_c, 0, 64, 127
4, 60596, Note_on_c, 0, 56, 55
4, 60598, Note_on_c, 0, 61, 52
4, 60651, Note_on_c, 0, 66, 34
4, 60732, Control_c, 0, 64, 0
4, 60734, Note_on_c, 0, 61, 0
4, 60871, Note_on_c, 0, 71, 0
4, 60879, Note_on_c, 0, 66, 0
4, 60951, Note_on_c, 0, 56, 0
4, 60999, Note_on_c, 0, 72, 57
4, 61014, Note_on_c, 0, 57, 67
4, 61022, Note_on_c, 0, 67, 66
4, 61075, Note_on_c, 0, 71, 29
4, 61143, Note_on_c, 0, 57, 0
4, 61150, Control_c, 0, 64, 127
4, 61151, Note_on_c, 0, 67, 0
4, 61169, Note_on_c, 0, 71, 0
4, 61203, Note_on_c, 0, 72, 0
4, 61214, Control_c, 0, 64, 0
4, 61809, Note_on_c, 0, 79, 68
4, 61817, Note_on_c, 0, 72, 71
4, 61819, Note_on_c, 0, 69, 77
4, 61820, Note_on_c, 0, 76, 62
4, 61827, Note_on_c, 0, 64, 74
4, 61899, Note_on_c, 0, 76, 0
4, 61932, Note_on_c, 0, 69, 0
4, 61947, Note_on_c, 0, 72, 0
4, 61972, Note_on_c, 0, 64, 0
4, 61985, Note_on_c, 0, 79, 0
4, 62548, Note_on_c, 0, 76, 70
4, 62563, Note_on_c, 0, 72, 59
4, 62574, Note_on_c, 0, 69, 61
4, 62577, Note_on_c, 0, 67, 65
4, 62583, Note_on_c, 0, 60, 54
4, 62785, Control_c, 0, 64, 127
4, 62886, Note_on_c, 0, 72, 0
4, 62900, Note_on_c, 0, 76, 0
4, 62942, Note_on_c, 0, 69, 0
4, 63031, Note_on_c, 0, 67, 0
4, 63107, Control_c, 0, 64, 0
4, 63273, Note_on_c, 0, 60, 0
4, 63284, Note_on_c, 0, 72, 41
4, 63302, Note_on_c, 0, 69, 49
4, 63321, Note_on_c, 0, 67, 51
4, 63339, Note_on_c, 0, 57, 56
4, 63343, Note_on_c, 0, 64, 53
4, 63427, Control_c, 0, 64, 127
4, 63612, Note_on_c, 0, 64, 0
4, 63671, Note_on_c, 0, 67, 0
4, 63910, Note_on_c, 0, 57, 0
4, 64009, Note_on_c, 0, 69, 0
4, 64054, Note_on_c, 0, 72, 0
4, 64110, Note_on_c, 0, 53, 33
4, 64287, Note_on_c, 0, 53, 0
4, 64486, Control_c, 0, 64, 0
4, 64563, Note_on_c, 0, 56, 46
4, 64577, Note_on_c, 0, 61, 64
4, 64582, Note_on_c, 0, 72, 42
4, 64603, Note_on_c, 0, 65, 61
4, 64615, Note_on_c, 0, 46, 36
4, 64620, Note_on_c, 0, 68, 36
4, 64675, Note_on_c, 0, 72, 0
4, 64743, Note_on_c, 0, 65, 0
4, 64761, Note_on_c, 0, 68, 0
4, 64764, Note_on_c, 0, 61, 0
4, 64774, Control_c, 0, 64, 127
4, 64838, Note_on_c, 0, 56, 0
4, 65214, Note_on_c, 0, 60, 44
4, 65239, Control_c, 0, 64, 0
4, 65335, Note_on_c, 0, 58, 51
4, 65399, Note_on_c, 0, 60, 0
4, 65486, Note_on_c, 0, 57, 60
4, 65499, Note_on_c, 0, 58, 0
4, 65542, Note_on_c, 0, 46, 0
4, 65588, Note_on_c, 0, 57, 0
4, 65660, Note_on_c, 0, 56, 34
4, 65675, Note_on_c, 0, 58, 44
4, 65695, Note_on_c, 0, 46, 25
4, 65721, Note_on_c, 0, 56, 0
4, 65759, Note_on_c, 0, 58, 0
4, 65817, Note_on_c, 0, 60, 47
4, 65915, Note_on_c, 0, 60, 0
4, 65924, Note_on_c, 0, 46, 0
4, 65977, Note_on_c, 0, 61, 44
4, 66129, Note_on_c, 0, 63, 39
4, 66131, Note_on_c, 0, 61, 0
4, 66244, Note_on_c, 0, 63, 0
4, 66321, Note_on_c, 0, 64, 50
4, 66391, Note_on_c, 0, 64, 0
4, 66527, Note_on_c, 0, 65, 66
4, 66660, Note_on_c, 0, 65, 0
4, 66777, Note_on_c, 0, 66, 69
4, 66825, Note_on_c, 0, 27, 38
4, 66923, Note_on_c, 0, 39, 9
4, 66974, Note_on_c, 0, 27, 0
4, 66996, Note_on_c, 0, 66, 0
4, 67062, Note_on_c, 0, 39, 0
4, 67070, Note_on_c, 0, 67, 51
4, 67143, Note_on_c, 0, 67, 0
4, 67334, Note_on_c, 0, 68, 49
4, 67481, Note_on_c, 0, 68, 0
4, 67572, Note_on_c, 0, 69, 36
4, 67668, Note_on_c, 0, 69, 0
4, 67678, Control_c, 0, 64, 127
4, 67788, Note_on_c, 0, 70, 62
4, 67943, Note_on_c, 0, 70, 0
4, 67982, Control_c, 0, 64, 0
4, 68006, Note_on_c, 0, 71, 50
4, 68044, Note_on_c, 0, 64, 49
4, 68067, Note_on_c, 0, 61, 31
4, 68108, Note_on_c, 0, 58, 37
4, 68118, Note_on_c, 0, 55, 24
4, 68159, Note_on_c, 0, 71, 0
4, 68188, Note_on_c, 0, 72, 33
4, 68372, Note_on_c, 0, 72, 0
4, 68383, Note_on_c, 0, 64, 0
4, 68414, Control_c, 0, 64, 127
4, 68441, Note_on_c, 0, 61, 0
4, 68479, Note_on_c, 0, 74, 53
4, 68510, Note_on_c, 0, 58, 0
4, 68577, Note_on_c, 0, 55, 0
4, 68636, Note_on_c, 0, 75, 43
4, 68641, Note_on_c, 0, 74, 0
4, 68830, Note_on_c, 0, 76, 41
4, 68831, Note_on_c, 0, 75, 0
4, 69009, Note_on_c, 0, 54, 27
4, 69038, Note_on_c, 0, 76, 0
4, 69059, Note_on_c, 0, 79, 68
4, 69067, Note_on_c, 0, 54, 0
4, 69151, Control_c, 0, 64, 0
4, 69316, Note_on_c, 0, 48, 34
4, 69375, Note_on_c, 0, 79, 0
4, 69411, Control_c, 0, 64, 127
4, 69551, Note_on_c, 0, 48, 0
4, 70148, Note_on_c, 0, 84, 81
4, 70163, Note_on_c, 0, 72, 80
4, 70499, Note_on_c, 0, 84, 0
4, 70513, Note_on_c, 0, 72, 0
4, 70534, Note_on_c, 0, 67, 46
4, 70548, Control_c, 0, 64, 0
4, 70555, Note_on_c, 0, 58, 37
4, 70561, Note_on_c, 0, 63, 36
4, 70595, Note_on_c, 0, 62, 34
4, 70604, Note_on_c, 0, 67, 0
4, 70612, Note_on_c, 0, 84, 51
4, 70628, Note_on_c, 0, 72, 46
4, 70651, Note_on_c, 0, 62, 0
4, 70710, Note_on_c, 0, 63, 0
4, 70718, Note_on_c, 0, 58, 0
4, 70883, Control_c, 0, 64, 127
4, 71180, Note_on_c, 0, 72, 0
4, 71251, Note_on_c, 0, 84, 0
4, 71332, Note_on_c, 0, 48, 45
4, 71359, Note_on_c, 0, 41, 28
4, 71423, Note_on_c, 0, 81, 24
4, 71481, Note_on_c, 0, 41, 0
4, 71505, Note_on_c, 0, 81, 0
4, 71583, Note_on_c, 0, 48, 0
4, 71654, Control_c, 0, 64, 0
4, 71723, Note_on_c, 0, 41, 59
4, 71748, Note_on_c, 0, 84, 53
4, 71755, Note_on_c, 0, 72, 47
4, 71756, Note_on_c, 0, 81, 47
4, 71759, Note_on_c, 0, 78, 44
4, 71897, Note_on_c, 0, 41, 0
4, 71927, Control_c, 0, 64, 127
4, 72236, Note_on_c, 0, 72, 0
4, 72294, Note_on_c, 0, 78, 0
4, 72547, Note_on_c, 0, 84, 0
4, 72598, Note_on_c, 0, 81, 0
4, 72948, Note_on_c, 0, 78, 80
4, 72950, Note_on_c, 0, 84, 80
4, 72951, Note_on_c, 0, 74, 87
4, 72955, Note_on_c, 0, 81, 76
4, 72964, Note_on_c, 0, 51, 74
4, 72967, Note_on_c, 0, 57, 81
4, 73015, Control_c, 0, 64, 0
4, 73305, Control_c, 0, 64, 127
4, 73513, Note_on_c, 0, 51, 0
4, 73540, Note_on_c, 0, 57, 0
4, 73788, Note_on_c, 0, 74, 0
4, 73806, Note_on_c, 0, 84, 0
4, 73849, Note_on_c, 0, 81, 0
4, 73851, Note_on_c, 0, 78, 0
4, 74204, Control_c, 0, 64, 0
4, 74215, Note_on_c, 0, 65, 83
4, 74220, Note_on_c, 0, 77, 90
4, 74223, Note_on_c, 0, 84, 83
4, 74225, Note_on_c, 0, 60, 56
4, 74227, Note_on_c, 0, 81, 84
4, 74230, Note_on_c, 0, 74, 94
4, 74243, Note_on_c, 0, 62, 67
4, 74513, Control_c, 0, 64, 127
4, 74687, Note_on_c, 0, 84, 0
4, 74703, Note_on_c, 0, 74, 0
4, 74857, Note_on_c, 0, 81, 0
4, 74859, Note_on_c, 0, 77, 0
4, 74982, Note_on_c, 0, 65, 0
4, 75031, Note_on_c, 0, 86, 80
4, 75223, Note_on_c, 0, 86, 0
4, 75395, Control_c, 0, 64, 0
4, 75433, Note_on_c, 0, 53, 47
4, 75470, Note_on_c, 0, 77, 70
4, 75483, Note_on_c, 0, 82, 56
4, 75585, Note_on_c, 0, 60, 0
4, 75601, Note_on_c, 0, 62, 0
4, 75699, Control_c, 0, 64, 127
4, 75758, Note_on_c, 0, 53, 0
4, 76220, Note_on_c, 0, 26, 57
4, 76228, Control_c, 0, 64, 0
4, 76276, Note_on_c, 0, 26, 0
4, 76374, Control_c, 0, 64, 127
4, 76391, Note_on_c, 0, 77, 0
4, 76694, Control_c, 0, 64, 0
4, 76695, Note_on_c, 0, 73, 60
4, 76703, Note_on_c, 0, 77, 73
4, 76723, Note_on_c, 0, 55, 50
4, 76748, Note_on_c, 0, 61, 34
4, 76763, Note_on_c, 0, 65, 51
4, 77063, Control_c, 0, 64, 127
4, 77108, Note_on_c, 0, 61, 0
4, 77236, Note_on_c, 0, 77, 0
4, 77239, Note_on_c, 0, 73, 0
4, 77252, Note_on_c, 0, 82, 0
4, 77340, Note_on_c, 0, 61, 26
4, 77363, Note_on_c, 0, 65, 0
4, 77526, Note_on_c, 0, 61, 0
4, 77799, Note_on_c, 0, 55, 0
4, 77972, Note_on_c, 0, 70, 64
4, 77977, Control_c, 0, 64, 0
4, 77988, Note_on_c, 0, 73, 46
4, 77998, Note_on_c, 0, 61, 52
4, 78003, Note_on_c, 0, 65, 50
4, 78030, Note_on_c, 0, 55, 46
4, 78347, Control_c, 0, 64, 127
4, 78548, Note_on_c, 0, 65, 0
4, 78627, Note_on_c, 0, 61, 0
4, 78652, Note_on_c, 0, 55, 0
4, 78670, Note_on_c, 0, 70, 0
4, 78710, Note_on_c, 0, 73, 0
4, 79180, Control_c, 0, 64, 0
4, 79247, Note_on_c, 0, 65, 50
4, 79251, Note_on_c, 0, 71, 55
4, 79252, Note_on_c, 0, 74, 51
4, 79265, Note_on_c, 0, 77, 58
4, 79267, Note_on_c, 0, 67, 64
4, 79742, Control_c, 0, 64, 127
4, 79822, Note_on_c, 0, 67, 0
4, 80011, Note_on_c, 0, 77, 0
4, 80051, Note_on_c, 0, 71, 0
4, 80105, Note_on_c, 0, 74, 0
4, 80275, Note_on_c, 0, 65, 0
4, 80447, Control_c, 0, 64, 0
4, 80529, Note_on_c, 0, 71, 44
4, 80531, Note_on_c, 0, 77, 48
4, 80532, Note_on_c, 0, 74, 39
4, 80535, Note_on_c, 0, 62, 53
4, 80537, Note_on_c, 0, 67, 51
4, 80758, Note_on_c, 0, 62, 0
4, 80804, Control_c, 0, 64, 127
4, 80963, Note_on_c, 0, 67, 0
4, 81091, Note_on_c, 0, 71, 0
4, 81283, Note_on_c, 0, 77, 0
4, 81329, Note_on_c, 0, 74, 0
4, 81606, Control_c, 0, 64, 0
4, 81772, Note_on_c, 0, 48, 44
4, 81788, Note_on_c, 0, 77, 46
4, 81812, Note_on_c, 0, 70, 43
4, 81814, Note_on_c, 0, 74, 36
4, 81817, Note_on_c, 0, 58, 29
4, 81844, Note_on_c, 0, 65, 46
4, 81990, Control_c, 0, 64, 127
4, 82003, Note_on_c, 0, 48, 0
4, 82103, Note_on_c, 0, 65, 0
4, 82132, Note_on_c, 0, 77, 0
4, 82167, Note_on_c, 0, 58, 0
4, 82204, Note_on_c, 0, 74, 0
4, 82278, Note_on_c, 0, 70, 0
4, 82614, Note_on_c, 0, 79, 33
4, 82777, Note_on_c, 0, 79, 0
4, 83022, Note_on_c, 0, 64, 55
4, 83031, Control_c, 0, 64, 0
4, 83043, Note_on_c, 0, 61, 37
4, 83044, Note_on_c, 0, 69, 55
4, 83055, Note_on_c, 0, 73, 32
4, 83059, Note_on_c, 0, 76, 40
4, 83062, Note_on_c, 0, 58, 37
4, 83065, Note_on_c, 0, 81, 48
4, 83103, Note_on_c, 0, 64, 0
4, 83123, Note_on_c, 0, 61, 0
4, 83187, Note_on_c, 0, 58, 0
4, 83276, Note_on_c, 0, 81, 0
4, 83305, Note_on_c, 0, 69, 0
4, 83364, Note_on_c, 0, 76, 0
4, 83414, Note_on_c, 0, 79, 46
4, 83433, Control_c, 0, 64, 127
4, 83595, Control_c, 0, 64, 0
4, 83612, Note_on_c, 0, 73, 0
4, 83625, Note_on_c, 0, 79, 0
4, 83857, Note_on_c, 0, 72, 48
4, 83862, Note_on_c, 0, 77, 49
4, 83899, Control_c, 0, 64, 127
4, 83937, Note_on_c, 0, 72, 0
4, 83980, Note_on_c, 0, 77, 0
4, 84172, Control_c, 0, 64, 0
4, 84227, Note_on_c, 0, 41, 40
4, 84262, Note_on_c, 0, 48, 36
4, 84265, Note_on_c, 0, 57, 25
4, 84439, Note_on_c, 0, 57, 0
4, 84524, Control_c, 0, 64, 127
4, 84935, Note_on_c, 0, 48, 0
4, 85241, Note_on_c, 0, 48, 24
4, 85415, Note_on_c, 0, 48, 0
4, 85459, Note_on_c, 0, 58, 55
4, 85471, Control_c, 0, 64, 0
4, 85481, Note_on_c, 0, 50, 33
4, 85487, Note_on_c, 0, 53, 38
4, 86047, Control_c, 0, 64, 127
4, 86191, Note_on_c, 0, 53, 0
4, 86316, Note_on_c, 0, 58, 0
4, 86481, Note_on_c, 0, 50, 0
4, 86705, Control_c, 0, 64, 0
4, 86719, Note_on_c, 0, 60, 38
4, 86723, Note_on_c, 0, 52, 39
4, 86724, Note_on_c, 0, 55, 34
4, 87327, Note_on_c, 0, 55, 0
4, 87540, Note_on_c, 0, 53, 38
4, 87543, Note_on_c, 0, 56, 55
4, 87819, Note_on_c, 0, 52, 0
4, 87828, Note_on_c, 0, 60, 0
4, 87899, Note_on_c, 0, 56, 0
4, 87950, Note_on_c, 0, 48, 28
4, 87966, Note_on_c, 0, 57, 38
4, 88174, Note_on_c, 0, 41, 0
4, 88431, Note_on_c, 0, 48, 0
4, 88614, Note_on_c, 0, 53, 0
4, 88671, Note_on_c, 0, 57, 0
4, 88713, Note_on_c, 0, 47, 43
4, 88795, Control_c, 0, 64, 127
4, 88843, Control_c, 0, 64, 0
4, 89057, Note_on_c, 0, 47, 0
4, 89119, Note_on_c, 0, 55, 46
4, 89127, Note_on_c, 0, 48, 45
4, 89131, Note_on_c, 0, 64, 55
4, 89135, Note_on_c, 0, 58, 51
4, 89483, Control_c, 0, 64, 127
4, 89657, Note_on_c, 0, 64, 0
4, 89735, Note_on_c, 0, 55, 0
4, 89892, Note_on_c, 0, 58, 0
4, 89996, Note_on_c, 0, 48, 0
4, 90078, Note_on_c, 0, 46, 25
4, 90222, Control_c, 0, 64, 0
4, 90308, Note_on_c, 0, 65, 67
4, 90323, Note_on_c, 0, 56, 62
4, 90332, Note_on_c, 0, 59, 53
4, 90345, Note_on_c, 0, 62, 53
4, 90350, Note_on_c, 0, 50, 48
4, 90361, Note_on_c, 0, 46, 0
4, 90591, Control_c, 0, 64, 127
4, 90844, Note_on_c, 0, 65, 0
4, 90905, Note_on_c, 0, 56, 0
4, 91006, Note_on_c, 0, 62, 0
4, 91051, Note_on_c, 0, 59, 0
4, 91265, Note_on_c, 0, 50, 0
4, 91319, Note_on_c, 0, 49, 31
4, 91473, Control_c, 0, 64, 0
4, 91572, Note_on_c, 0, 67, 58
4, 91587, Note_on_c, 0, 60, 52
4, 91590, Note_on_c, 0, 58, 65
4, 91603, Note_on_c, 0, 64, 46
4, 91606, Note_on_c, 0, 52, 54
4, 91635, Note_on_c, 0, 49, 0
4, 91841, Control_c, 0, 64, 127
4, 92043, Note_on_c, 0, 58, 0
4, 92132, Note_on_c, 0, 60, 0
4, 92227, Note_on_c, 0, 67, 0
4, 92267, Note_on_c, 0, 64, 0
4, 92323, Note_on_c, 0, 52, 0
4, 92787, Note_on_c, 0, 69, 58
4, 92807, Note_on_c, 0, 58, 61
4, 92812, Note_on_c, 0, 62, 63
4, 92838, Note_on_c, 0, 53, 44
4, 92839, Note_on_c, 0, 65, 47
4, 92851, Control_c, 0, 64, 0
4, 93347, Note_on_c, 0, 58, 0
4, 93348, Control_c, 0, 64, 127
4, 93459, Note_on_c, 0, 62, 0
4, 93467, Note_on_c, 0, 69, 0
4, 93529, Note_on_c, 0, 65, 0
4, 93732, Note_on_c, 0, 53, 0
4, 93862, Control_c, 0, 64, 0
4, 93996, Note_on_c, 0, 70, 57
4, 94006, Note_on_c, 0, 62, 55
4, 94012, Note_on_c, 0, 55, 40
4, 94014, Note_on_c, 0, 65, 54
4, 94030, Note_on_c, 0, 67, 39
4, 94166, Control_c, 0, 64, 127
4, 94390, Note_on_c, 0, 55, 0
4, 94422, Note_on_c, 0, 62, 0
4, 94431, Note_on_c, 0, 67, 0
4, 94468, Note_on_c, 0, 65, 0
4, 94543, Note_on_c, 0, 70, 0
4, 95159, Control_c, 0, 64, 0
4, 95190, Note_on_c, 0, 60, 43
4, 95209, Note_on_c, 0, 72, 45
4, 95215, Note_on_c, 0, 67, 55
4, 95222, Note_on_c, 0, 64, 49
4, 95391, Note_on_c, 0, 60, 0
4, 95547, Control_c, 0, 64, 127
4, 95622, Note_on_c, 0, 64, 0
4, 95628, Note_on_c, 0, 67, 0
4, 95652, Note_on_c, 0, 72, 0
4, 96049, Note_on_c, 0, 74, 58
4, 96065, Note_on_c, 0, 67, 62
4, 96089, Note_on_c, 0, 64, 46
4, 96110, Note_on_c, 0, 70, 25
4, 96123, Control_c, 0, 64, 0
4, 96150, Note_on_c, 0, 64, 0
4, 96247, Note_on_c, 0, 70, 0
4, 96251, Note_on_c, 0, 67, 0
4, 96302, Note_on_c, 0, 74, 0
4, 96387, Note_on_c, 0, 58, 42
4, 96420, Note_on_c, 0, 48, 30
4, 96476, Control_c, 0, 64, 127
4, 96732, Note_on_c, 0, 58, 0
4, 96795, Note_on_c, 0, 48, 0
4, 97148, Note_on_c, 0, 76, 57
4, 97163, Note_on_c, 0, 68, 51
4, 97172, Note_on_c, 0, 64, 56
4, 97177, Note_on_c, 0, 72, 43
4, 97231, Note_on_c, 0, 64, 0
4, 97281, Note_on_c, 0, 68, 0
4, 97324, Note_on_c, 0, 72, 0
4, 97367, Note_on_c, 0, 76, 0
4, 97390, Control_c, 0, 64, 0
4, 97550, Note_on_c, 0, 42, 39
4, 97596, Note_on_c, 0, 52, 20
4, 97694, Control_c, 0, 64, 127
4, 97721, Note_on_c, 0, 52, 0
4, 97748, Note_on_c, 0, 42, 0
4, 98399, Note_on_c, 0, 76, 38
4, 98479, Note_on_c, 0, 76, 0
4, 98673, Control_c, 0, 64, 0
4, 98732, Note_on_c, 0, 41, 31
4, 98748, Note_on_c, 0, 48, 18
4, 98772, Note_on_c, 0, 57, 54
4, 98931, Control_c, 0, 64, 127
4, 98948, Note_on_c, 0, 41, 0
4, 99055, Note_on_c, 0, 48, 0
4, 99137, Note_on_c, 0, 57, 0
4, 99940, Control_c, 0, 64, 0
4, 99948, Note_on_c, 0, 89, 68
4, 99961, Note_on_c, 0, 81, 68
4, 99969, Note_on_c, 0, 77, 66
4, 99975, Note_on_c, 0, 84, 47
4, 99977, Note_on_c, 0, 64, 61
4, 99985, Note_on_c, 0, 60, 29
4, 100003, Note_on_c, 0, 53, 33
4, 100019, Note_on_c, 0, 57, 36
4, 100177, Note_on_c, 0, 53, 0
4, 100214, Control_c, 0, 64, 127
4, 100223, Note_on_c, 0, 64, 0
4, 100318, Note_on_c, 0, 60, 0
4, 100329, Note_on_c, 0, 57, 0
4, 100444, Note_on_c, 0, 89, 0
4, 100470, Note_on_c, 0, 77, 0
4, 100543, Note_on_c, 0, 81, 0
4, 100551, Note_on_c, 0, 84, 0
4, 100715, Note_on_c, 0, 89, 72
4, 100727, Note_on_c, 0, 81, 76
4, 100735, Note_on_c, 0, 77, 73
4, 100748, Note_on_c, 0, 84, 49
4, 100955, Note_on_c, 0, 77, 0
4, 101007, Note_on_c, 0, 81, 0
4, 101012, Note_on_c, 0, 89, 0
4, 101054, Note_on_c, 0, 84, 0
4, 101110, Control_c, 0, 64, 0
4, 101131, Note_on_c, 0, 64, 64
4, 101145, Note_on_c, 0, 89, 64
4, 101148, Note_on_c, 0, 67, 71
4, 101153, Note_on_c, 0, 81, 65
4, 101155, Note_on_c, 0, 57, 62
4, 101161, Note_on_c, 0, 60, 41
4, 101167, Note_on_c, 0, 84, 55
4, 101171, Note_on_c, 0, 77, 78
4, 101415, Control_c, 0, 64, 127
4, 101558, Note_on_c, 0, 77, 0
4, 101561, Note_on_c, 0, 89, 0
4, 101694, Note_on_c, 0, 81, 0
4, 101707, Note_on_c, 0, 60, 0
4, 101743, Note_on_c, 0, 57, 0
4, 101748, Note_on_c, 0, 64, 0
4, 101748, Note_on_c, 0, 84, 0
4, 101827, Note_on_c, 0, 67, 0
4, 101889, Note_on_c, 0, 88, 63
4, 101900, Note_on_c, 0, 81, 70
4, 101902, Note_on_c, 0, 76, 72
4, 101910, Note_on_c, 0, 84, 33
4, 102126, Note_on_c, 0, 88, 0
4, 102166, Note_on_c, 0, 76, 0
4, 102185, Note_on_c, 0, 84, 0
4, 102244, Note_on_c, 0, 81, 0
4, 102268, Note_on_c, 0, 67, 55
4, 102291, Note_on_c, 0, 64, 42
4, 102292, Note_on_c, 0, 57, 41
4, 102313, Note_on_c, 0, 86, 64
4, 102318, Note_on_c, 0, 81, 42
4, 102323, Note_on_c, 0, 60, 39
4, 102337, Note_on_c, 0, 74, 57
4, 102417, Note_on_c, 0, 67, 0
4, 102452, Note_on_c, 0, 64, 0
4, 102513, Note_on_c, 0, 60, 0
4, 102585, Note_on_c, 0, 57, 0
4, 102670, Note_on_c, 0, 86, 0
4, 102673, Note_on_c, 0, 81, 0
4, 102756, Note_on_c, 0, 74, 0
4, 103052, Note_on_c, 0, 52, 52
4, 103172, Note_on_c, 0, 52, 0
4, 103340, Control_c, 0, 64, 0
4, 103473, Note_on_c, 0, 84, 77
4, 103481, Note_on_c, 0, 55, 72
4, 103484, Note_on_c, 0, 79, 78
4, 103486, Note_on_c, 0, 72, 82
4, 103489, Note_on_c, 0, 45, 77
4, 103519, Note_on_c, 0, 52, 33
4, 103590, Note_on_c, 0, 52, 0
4, 103663, Note_on_c, 0, 84, 0
4, 103673, Note_on_c, 0, 55, 0
4, 103675, Note_on_c, 0, 79, 0
4, 103713, Note_on_c, 0, 72, 0
4, 103726, Note_on_c, 0, 45, 0
4, 103948, Control_c, 0, 64, 127
4, 104158, Control_c, 0, 64, 0
4, 104702, Note_on_c, 0, 72, 53
4, 104707, Note_on_c, 0, 67, 73
4, 104721, Note_on_c, 0, 55, 73
4, 104723, Note_on_c, 0, 60, 68
4, 104726, Note_on_c, 0, 45, 74
4, 104804, Note_on_c, 0, 71, 26
4, 105009, Control_c, 0, 64, 127
4, 105067, Note_on_c, 0, 71, 0
4, 105292, Note_on_c, 0, 60, 0
4, 105300, Note_on_c, 0, 45, 0
4, 105337, Note_on_c, 0, 72, 0
4, 105340, Note_on_c, 0, 55, 0
4, 105355, Note_on_c, 0, 67, 0
4, 105467, Note_on_c, 0, 55, 61
4, 105471, Note_on_c, 0, 45, 66
4, 105473, Note_on_c, 0, 72, 47
4, 105479, Note_on_c, 0, 67, 62
4, 105495, Note_on_c, 0, 60, 46
4, 105681, Note_on_c, 0, 72, 0
4, 105689, Note_on_c, 0, 55, 0
4, 105697, Note_on_c, 0, 60, 0
4, 105753, Note_on_c, 0, 67, 0
4, 105777, Note_on_c, 0, 45, 0
4, 105841, Control_c, 0, 64, 0
4, 106614, Note_on_c, 0, 74, 68
4, 106620, Note_on_c, 0, 66, 83
4, 106625, Note_on_c, 0, 44, 72
4, 106633, Note_on_c, 0, 54, 77
4, 106868, Control_c, 0, 64, 127
4, 107089, Note_on_c, 0, 66, 0
4, 107094, Note_on_c, 0, 74, 0
4, 107097, Note_on_c, 0, 54, 0
4, 107126, Note_on_c, 0, 44, 0
4, 107415, Note_on_c, 0, 66, 73
4, 107417, Note_on_c, 0, 54, 60
4, 107419, Note_on_c, 0, 44, 57
4, 107431, Note_on_c, 0, 74, 49
4, 107475, Note_on_c, 0, 72, 34
4, 107500, Note_on_c, 0, 43, 24
4, 107676, Note_on_c, 0, 43, 0
4, 107702, Note_on_c, 0, 74, 0
4, 107718, Note_on_c, 0, 72, 0
4, 107767, Note_on_c, 0, 44, 0
4, 107787, Note_on_c, 0, 54, 0
4, 107887, Note_on_c, 0, 66, 0
4, 108039, Control_c, 0, 64, 0
4, 108214, Note_on_c, 0, 43, 42
4, 108215, Note_on_c, 0, 76, 49
4, 108227, Note_on_c, 0, 67, 62
4, 108231, Note_on_c, 0, 64, 61
4, 108236, Note_on_c, 0, 58, 41
4, 108391, Control_c, 0, 64, 127
4, 108577, Note_on_c, 0, 58, 0
4, 108604, Note_on_c, 0, 67, 0
4, 108681, Note_on_c, 0, 64, 0
4, 108748, Note_on_c, 0, 76, 0
4, 109371, Control_c, 0, 64, 0
4, 109398, Note_on_c, 0, 58, 49
4, 109412, Note_on_c, 0, 65, 53
4, 109417, Note_on_c, 0, 62, 53
4, 109420, Note_on_c, 0, 53, 41
4, 109699, Note_on_c, 0, 58, 0
4, 109740, Control_c, 0, 64, 127
4, 109916, Note_on_c, 0, 62, 0
4, 110004, Note_on_c, 0, 43, 0
4, 110043, Note_on_c, 0, 53, 0
4, 110070, Note_on_c, 0, 65, 0
4, 110207, Note_on_c, 0, 50, 33
4, 110468, Note_on_c, 0, 50, 0
4, 110492, Control_c, 0, 64, 0
4, 110593, Note_on_c, 0, 60, 47
4, 110599, Note_on_c, 0, 64, 66
4, 110603, Note_on_c, 0, 52, 61
4, 110910, Control_c, 0, 64, 127
4, 111281, Note_on_c, 0, 60, 0
4, 111374, Note_on_c, 0, 52, 0
4, 111387, Note_on_c, 0, 64, 0
4, 111636, Note_on_c, 0, 49, 29
4, 111663, Control_c, 0, 64, 0
4, 111787, Note_on_c, 0, 64, 62
4, 111796, Note_on_c, 0, 52, 48
4, 111804, Note_on_c, 0, 60, 39
4, 111862, Note_on_c, 0, 49, 0
4, 112015, Control_c, 0, 64, 127
4, 112070, Note_on_c, 0, 52, 0
4, 112238, Note_on_c, 0, 60, 0
4, 112263, Note_on_c, 0, 64, 0
4, 112787, Control_c, 0, 64, 0
4, 112931, Note_on_c, 0, 61, 74
4, 112932, Note_on_c, 0, 51, 63
4, 112935, Note_on_c, 0, 39, 70
4, 112937, Note_on_c, 0, 65, 75
4, 112939, Note_on_c, 0, 70, 72
4, 113079, Control_c, 0, 64, 127
4, 113105, Note_on_c, 0, 61, 0
4, 113110, Note_on_c, 0, 39, 0
4, 113167, Note_on_c, 0, 51, 0
4, 113203, Note_on_c, 0, 65, 0
4, 113260, Note_on_c, 0, 70, 0
4, 113788, Note_on_c, 0, 82, 85
4, 113791, Note_on_c, 0, 70, 93
4, 113806, Note_on_c, 0, 77, 70
4, 113822, Note_on_c, 0, 75, 56
4, 113828, Note_on_c, 0, 80, 42
4, 113876, Note_on_c, 0, 75, 0
4, 114025, Control_c, 0, 64, 0
4, 114115, Note_on_c, 0, 55, 62
4, 114116, Note_on_c, 0, 61, 50
4, 114119, Note_on_c, 0, 65, 67
4, 114377, Control_c, 0, 64, 127
4, 114659, Note_on_c, 0, 77, 0
4, 114681, Note_on_c, 0, 70, 0
4, 114710, Note_on_c, 0, 82, 0
4, 114804, Note_on_c, 0, 65, 0
4, 114830, Note_on_c, 0, 55, 0
4, 114836, Note_on_c, 0, 80, 0
4, 114991, Note_on_c, 0, 81, 71
4, 114996, Note_on_c, 0, 75, 73
4, 115003, Note_on_c, 0, 78, 64
4, 115004, Note_on_c, 0, 69, 75
4, 115014, Note_on_c, 0, 80, 52
4, 115043, Note_on_c, 0, 61, 0
4, 115051, Control_c, 0, 64, 0
4, 115068, Note_on_c, 0, 80, 0
4, 115279, Note_on_c, 0, 64, 50
4, 115283, Note_on_c, 0, 69, 0
4, 115302, Note_on_c, 0, 54, 37
4, 115332, Note_on_c, 0, 60, 30
4, 115359, Note_on_c, 0, 78, 0
4, 115385, Note_on_c, 0, 75, 0
4, 115404, Control_c, 0, 64, 127
4, 115411, Note_on_c, 0, 81, 0
4, 115577, Note_on_c, 0, 64, 0
4, 115623, Note_on_c, 0, 60, 0
4, 115716, Note_on_c, 0, 54, 0
4, 115753, Note_on_c, 0, 84, 63
4, 115769, Note_on_c, 0, 78, 55
4, 115771, Note_on_c, 0, 81, 57
4, 115774, Note_on_c, 0, 72, 60
4, 116227, Note_on_c, 0, 84, 0
4, 116247, Note_on_c, 0, 81, 0
4, 116291, Note_on_c, 0, 78, 0
4, 116340, Note_on_c, 0, 72, 0
4, 116430, Note_on_c, 0, 60, 39
4, 116439, Note_on_c, 0, 54, 39
4, 116443, Note_on_c, 0, 50, 35
4, 116572, Note_on_c, 0, 60, 0
4, 116676, Note_on_c, 0, 50, 0
4, 116692, Note_on_c, 0, 54, 0
4, 117134, Note_on_c, 0, 53, 36
4, 117196, Note_on_c, 0, 67, 72
4, 117204, Note_on_c, 0, 54, 80
4, 117211, Note_on_c, 0, 55, 79
4, 117212, Note_on_c, 0, 65, 74
4, 117219, Note_on_c, 0, 60, 64
4, 117220, Note_on_c, 0, 57, 76
4, 117233, Note_on_c, 0, 53, 0
4, 117249, Note_on_c, 0, 63, 37
4, 117292, Note_on_c, 0, 54, 0
4, 117300, Control_c, 0, 64, 0
4, 117355, Note_on_c, 0, 57, 0
4, 117500, Note_on_c, 0, 60, 0
4, 117513, Note_on_c, 0, 63, 0
4, 117529, Note_on_c, 0, 67, 0
4, 117547, Note_on_c, 0, 65, 0
4, 117548, Note_on_c, 0, 57, 41
4, 117663, Note_on_c, 0, 57, 0
4, 117742, Note_on_c, 0, 67, 31
4, 117767, Note_on_c, 0, 60, 24
4, 117783, Note_on_c, 0, 65, 38
4, 117910, Note_on_c, 0, 57, 47
4, 117951, Note_on_c, 0, 60, 0
4, 117958, Note_on_c, 0, 67, 0
4, 117987, Note_on_c, 0, 65, 0
4, 118094, Note_on_c, 0, 60, 32
4, 118095, Note_on_c, 0, 57, 0
4, 118102, Note_on_c, 0, 67, 26
4, 118163, Note_on_c, 0, 65, 22
4, 118279, Note_on_c, 0, 57, 40
4, 118299, Note_on_c, 0, 65, 0
4, 118300, Note_on_c, 0, 67, 0
4, 118347, Note_on_c, 0, 60, 0
4, 118441, Note_on_c, 0, 67, 19
4, 118443, Note_on_c, 0, 57, 0
4, 118484, Note_on_c, 0, 60, 24
4, 118523, Note_on_c, 0, 65, 24
4, 118630, Note_on_c, 0, 57, 44
4, 118652, Note_on_c, 0, 65, 0
4, 118654, Note_on_c, 0, 67, 0
4, 118668, Note_on_c, 0, 60, 0
4, 118796, Note_on_c, 0, 67, 20
4, 118812, Note_on_c, 0, 60, 30
4, 118817, Note_on_c, 0, 57, 0
4, 118822, Note_on_c, 0, 65, 27
4, 118966, Note_on_c, 0, 57, 42
4, 118990, Note_on_c, 0, 60, 0
4, 119014, Note_on_c, 0, 65, 0
4, 119131, Note_on_c, 0, 60, 36
4, 119137, Note_on_c, 0, 57, 0
4, 119163, Note_on_c, 0, 65, 20
4, 119319, Note_on_c, 0, 67, 0
4, 119331, Note_on_c, 0, 57, 40
4, 119351, Note_on_c, 0, 60, 0
4, 119353, Note_on_c, 0, 65, 0
4, 119471, Note_on_c, 0, 67, 27
4, 119481, Note_on_c, 0, 60, 36
4, 119497, Control_c, 0, 64, 127
4, 119523, Note_on_c, 0, 65, 32
4, 119529, Note_on_c, 0, 57, 0
4, 119715, Note_on_c, 0, 60, 0
4, 119769, Control_c, 0, 64, 0
4, 119775, Note_on_c, 0, 43, 58
4, 119782, Note_on_c, 0, 50, 26
4, 119811, Note_on_c, 0, 65, 0
4, 119873, Note_on_c, 0, 61, 25
4, 119892, Note_on_c, 0, 59, 32
4, 119913, Note_on_c, 0, 50, 0
4, 119942, Note_on_c, 0, 61, 0
4, 120219, Control_c, 0, 64, 127
4, 120427, Note_on_c, 0, 59, 0
4, 120444, Note_on_c, 0, 55, 0
4, 120500, Note_on_c, 0, 67, 0
4, 120591, Note_on_c, 0, 67, 48
4, 120599, Note_on_c, 0, 59, 50
4, 120612, Note_on_c, 0, 62, 64
4, 120625, Note_on_c, 0, 55, 57
4, 120668, Control_c, 0, 64, 0
4, 121006, Control_c, 0, 64, 127
4, 121067, Note_on_c, 0, 59, 0
4, 121116, Note_on_c, 0, 43, 0
4, 121195, Note_on_c, 0, 55, 0
4, 121227, Note_on_c, 0, 62, 0
4, 121273, Note_on_c, 0, 67, 0
4, 122145, Control_c, 0, 64, 0
4, 122177, Note_on_c, 0, 72, 65
4, 122182, Note_on_c, 0, 70, 69
4, 122187, Note_on_c, 0, 65, 87
4, 122203, Note_on_c, 0, 62, 62
4, 122207, Note_on_c, 0, 57, 47
4, 122215, Note_on_c, 0, 58, 55
4, 122292, Note_on_c, 0, 57, 0
4, 122329, Note_on_c, 0, 62, 0
4, 122396, Note_on_c, 0, 58, 0
4, 122985, Note_on_c, 0, 47, 79
4, 123371, Note_on_c, 0, 47, 0
4, 123419, Note_on_c, 0, 48, 67
4, 123651, Control_c, 0, 64, 127
4, 124027, Note_on_c, 0, 65, 0
4, 124038, Note_on_c, 0, 72, 0
4, 124044, Note_on_c, 0, 48, 0
4, 124086, Note_on_c, 0, 70, 0
4, 124187, Note_on_c, 0, 36, 35
4, 124348, Note_on_c, 0, 36, 0
4, 124454, Control_c, 0, 64, 0
4, 124590, Note_on_c, 0, 72, 41
4, 124595, Note_on_c, 0, 46, 51
4, 124598, Note_on_c, 0, 64, 57
4, 124604, Note_on_c, 0, 67, 56
4, 124609, Note_on_c, 0, 34, 56
4, 124982, Control_c, 0, 64, 127
4, 125095, Note_on_c, 0, 34, 0
4, 125190, Note_on_c, 0, 46, 0
4, 125231, Note_on_c, 0, 64, 0
4, 125236, Note_on_c, 0, 67, 0
4, 125793, Note_on_c, 0, 64, 47
4, 125796, Note_on_c, 0, 34, 49
4, 125812, Note_on_c, 0, 46, 35
4, 125831, Control_c, 0, 64, 0
4, 125835, Note_on_c, 0, 67, 36
4, 126014, Note_on_c, 0, 72, 0
4, 126105, Control_c, 0, 64, 127
4, 126177, Note_on_c, 0, 67, 0
4, 126241, Note_on_c, 0, 64, 0
4, 126265, Note_on_c, 0, 34, 0
4, 126593, Note_on_c, 0, 34, 50
4, 126673, Note_on_c, 0, 46, 0
4, 126763, Control_c, 0, 64, 0
4, 126803, Note_on_c, 0, 34, 0
4, 126948, Note_on_c, 0, 45, 51
4, 126955, Note_on_c, 0, 60, 38
4, 126961, Note_on_c, 0, 57, 49
4, 126963, Note_on_c, 0, 33, 43
4, 127030, Note_on_c, 0, 57, 0
4, 127035, Control_c, 0, 64, 127
4, 127087, Note_on_c, 0, 33, 0
4, 127150, Note_on_c, 0, 45, 0
4, 127164, Note_on_c, 0, 60, 0
4, 128171, Note_on_c, 0, 77, 51
4, 128177, Note_on_c, 0, 72, 44
4, 128180, Note_on_c, 0, 69, 40
4, 128182, Note_on_c, 0, 64, 51
4, 128188, Note_on_c, 0, 55, 38
4, 128191, Control_c, 0, 64, 0
4, 128220, Note_on_c, 0, 57, 34
4, 128235, Note_on_c, 0, 60, 32
4, 128543, Control_c, 0, 64, 127
4, 128547, Note_on_c, 0, 55, 0
4, 128566, Note_on_c, 0, 64, 0
4, 128593, Note_on_c, 0, 60, 0
4, 128649, Note_on_c, 0, 57, 0
4, 128841, Note_on_c, 0, 72, 0
4, 128852, Note_on_c, 0, 69, 0
4, 129023, Note_on_c, 0, 77, 0
4, 129313, Control_c, 0, 64, 0
4, 129358, Note_on_c, 0, 44, 55
4, 129585, Control_c, 0, 64, 127
4, 129614, Note_on_c, 0, 44, 0
4, 130404, Control_c, 0, 64, 0
4, 130507, Note_on_c, 0, 62, 51
4, 130515, Note_on_c, 0, 74, 63
4, 130518, Note_on_c, 0, 70, 64
4, 130531, Note_on_c, 0, 65, 68
4, 130534, Note_on_c, 0, 56, 36
4, 130540, Note_on_c, 0, 59, 37
4, 130542, Note_on_c, 0, 53, 31
4, 130571, Note_on_c, 0, 62, 0
4, 130638, Note_on_c, 0, 59, 0
4, 130708, Note_on_c, 0, 56, 0
4, 130737, Note_on_c, 0, 53, 0
4, 130852, Control_c, 0, 64, 127
4, 131100, Note_on_c, 0, 74, 0
4, 131121, Note_on_c, 0, 65, 0
4, 131175, Note_on_c, 0, 70, 0
4, 131308, Note_on_c, 0, 72, 50
4, 131313, Note_on_c, 0, 65, 53
4, 131331, Note_on_c, 0, 69, 46
4, 131375, Note_on_c, 0, 65, 0
4, 131398, Control_c, 0, 64, 0
4, 131481, Note_on_c, 0, 69, 0
4, 131534, Note_on_c, 0, 72, 0
4, 131622, Note_on_c, 0, 43, 42
4, 131657, Note_on_c, 0, 53, 32
4, 131750, Control_c, 0, 64, 127
4, 131807, Note_on_c, 0, 43, 0
4, 131847, Note_on_c, 0, 53, 0
4, 132022, Note_on_c, 0, 90, 68
4, 132030, Note_on_c, 0, 78, 62
4, 132279, Note_on_c, 0, 78, 0
4, 132284, Note_on_c, 0, 90, 0
4, 132307, Note_on_c, 0, 79, 39
4, 132551, Note_on_c, 0, 91, 53
4, 132564, Note_on_c, 0, 79, 0
4, 132699, Note_on_c, 0, 79, 30
4, 132718, Note_on_c, 0, 62, 42
4, 132729, Control_c, 0, 64, 0
4, 132743, Note_on_c, 0, 91, 0
4, 132756, Note_on_c, 0, 58, 42
4, 132783, Note_on_c, 0, 55, 22
4, 132830, Note_on_c, 0, 62, 0
4, 132875, Note_on_c, 0, 58, 0
4, 132915, Note_on_c, 0, 79, 0
4, 132921, Note_on_c, 0, 91, 55
4, 132935, Note_on_c, 0, 55, 0
4, 133078, Note_on_c, 0, 79, 31
4, 133105, Note_on_c, 0, 91, 0
4, 133177, Control_c, 0, 64, 127
4, 133257, Note_on_c, 0, 91, 36
4, 133286, Note_on_c, 0, 79, 0
4, 133431, Note_on_c, 0, 79, 32
4, 133451, Note_on_c, 0, 91, 0
4, 133630, Note_on_c, 0, 91, 48
4, 133655, Note_on_c, 0, 79, 0
4, 133767, Note_on_c, 0, 36, 32
4, 133787, Control_c, 0, 64, 0
4, 133811, Note_on_c, 0, 79, 32
4, 133827, Note_on_c, 0, 52, 45
4, 133838, Note_on_c, 0, 91, 0
4, 133927, Note_on_c, 0, 36, 0
4, 134006, Note_on_c, 0, 91, 39
4, 134015, Note_on_c, 0, 52, 0
4, 134033, Note_on_c, 0, 79, 0
4, 134060, Control_c, 0, 64, 127
4, 134211, Note_on_c, 0, 91, 0
4, 134214, Note_on_c, 0, 79, 32
4, 134390, Note_on_c, 0, 91, 41
4, 134412, Note_on_c, 0, 79, 0
4, 134575, Note_on_c, 0, 79, 29
4, 134614, Note_on_c, 0, 91, 0
4, 134710, Note_on_c, 0, 79, 0
4, 134940, Note_on_c, 0, 61, 42
4, 134943, Control_c, 0, 64, 0
4, 134959, Note_on_c, 0, 55, 42
4, 134971, Note_on_c, 0, 64, 50
4, 134987, Note_on_c, 0, 58, 45
4, 135103, Note_on_c, 0, 64, 0
4, 135139, Note_on_c, 0, 61, 0
4, 135188, Note_on_c, 0, 58, 0
4, 135251, Note_on_c, 0, 55, 0
4, 135263, Control_c, 0, 64, 127
4, 135769, Note_on_c, 0, 74, 80
4, 135772, Note_on_c, 0, 68, 86
4, 135774, Note_on_c, 0, 58, 82
4, 135783, Note_on_c, 0, 64, 88
4, 135843, Note_on_c, 0, 65, 27
4, 135871, Control_c, 0, 64, 0
4, 135895, Note_on_c, 0, 65, 0
4, 135993, Note_on_c, 0, 58, 0
4, 136044, Note_on_c, 0, 64, 0
4, 136092, Note_on_c, 0, 68, 0
4, 136103, Note_on_c, 0, 74, 0
4, 136151, Note_on_c, 0, 72, 26
4, 136175, Note_on_c, 0, 57, 57
4, 136201, Note_on_c, 0, 67, 54
4, 136390, Note_on_c, 0, 67, 0
4, 136481, Note_on_c, 0, 57, 0
4, 136574, Note_on_c, 0, 56, 28
4, 136686, Note_on_c, 0, 72, 0
4, 136841, Note_on_c, 0, 56, 0
4, 136849, Note_on_c, 0, 72, 54
4, 136886, Note_on_c, 0, 64, 77
4, 136894, Note_on_c, 0, 57, 75
4, 136897, Note_on_c, 0, 67, 62
4, 137219, Control_c, 0, 64, 127
4, 137225, Note_on_c, 0, 72, 0
4, 137233, Note_on_c, 0, 64, 0
4, 137244, Note_on_c, 0, 67, 0
4, 137364, Note_on_c, 0, 57, 0
4, 137652, Control_c, 0, 64, 0
4, 137809, Note_on_c, 0, 57, 64
4, 137814, Note_on_c, 0, 67, 49
4, 137830, Note_on_c, 0, 60, 38
4, 137843, Note_on_c, 0, 64, 50
4, 137855, Note_on_c, 0, 63, 26
4, 137873, Note_on_c, 0, 55, 51
4, 137886, Note_on_c, 0, 65, 29
4, 138081, Note_on_c, 0, 57, 0
4, 138132, Note_on_c, 0, 67, 0
4, 138148, Note_on_c, 0, 60, 0
4, 138159, Note_on_c, 0, 63, 0
4, 138172, Note_on_c, 0, 64, 0
4, 138190, Note_on_c, 0, 55, 0
4, 138225, Note_on_c, 0, 65, 0
4, 138244, Note_on_c, 0, 53, 26
4, 138396, Note_on_c, 0, 53, 0
4, 138481, Note_on_c, 0, 55, 59
4, 138486, Note_on_c, 0, 67, 58
4, 138489, Note_on_c, 0, 60, 53
4, 138492, Note_on_c, 0, 64, 43
4, 138502, Note_on_c, 0, 57, 64
4, 138510, Note_on_c, 0, 65, 49
4, 138566, Control_c, 0, 64, 127
4, 138751, Note_on_c, 0, 64, 0
4, 138761, Note_on_c, 0, 55, 0
4, 138791, Control_c, 0, 64, 0
4, 138807, Note_on_c, 0, 60, 0
4, 138819, Note_on_c, 0, 67, 0
4, 138825, Note_on_c, 0, 57, 0
4, 138838, Note_on_c, 0, 65, 0
4, 139081, Note_on_c, 0, 64, 63
4, 139100, Note_on_c, 0, 60, 38
4, 139108, Note_on_c, 0, 57, 51
4, 139124, Note_on_c, 0, 52, 55
4, 139129, Note_on_c, 0, 55, 46
4, 139303, Note_on_c, 0, 55, 0
4, 139361, Note_on_c, 0, 64, 0
4, 139387, Note_on_c, 0, 60, 0
4, 139404, Note_on_c, 0, 57, 0
4, 139423, Note_on_c, 0, 52, 0
4, 139510, Note_on_c, 0, 50, 30
4, 139647, Note_on_c, 0, 50, 0
4, 139739, Note_on_c, 0, 60, 45
4, 139740, Note_on_c, 0, 57, 68
4, 139745, Note_on_c, 0, 64, 65
4, 139763, Note_on_c, 0, 52, 59
4, 139764, Note_on_c, 0, 55, 60
4, 139947, Control_c, 0, 64, 127
4, 140292, Note_on_c, 0, 57, 0
4, 140329, Note_on_c, 0, 55, 0
4, 140452, Note_on_c, 0, 52, 0
4, 140534, Note_on_c, 0, 64, 0
4, 140561, Note_on_c, 0, 60, 0
4, 140716, Control_c, 0, 64, 0
4, 140755, Note_on_c, 0, 60, 38
4, 140782, Note_on_c, 0, 58, 63
4, 140793, Note_on_c, 0, 53, 42
4, 140817, Note_on_c, 0, 48, 39
4, 141132, Control_c, 0, 64, 127
4, 141183, Note_on_c, 0, 53, 0
4, 141302, Note_on_c, 0, 48, 0
4, 141310, Note_on_c, 0, 60, 0
4, 141327, Note_on_c, 0, 58, 0
4, 141958, Note_on_c, 0, 72, 51
4, 141972, Note_on_c, 0, 64, 70
4, 141982, Control_c, 0, 64, 0
4, 141988, Note_on_c, 0, 67, 66
4, 141998, Note_on_c, 0, 60, 39
4, 142166, Note_on_c, 0, 60, 0
4, 142222, Control_c, 0, 64, 127
4, 142662, Note_on_c, 0, 64, 0
4, 142748, Note_on_c, 0, 67, 0
4, 142939, Note_on_c, 0, 72, 0
4, 143105, Control_c, 0, 64, 0
4, 143140, Note_on_c, 0, 70, 64
4, 143143, Note_on_c, 0, 64, 70
4, 143156, Note_on_c, 0, 67, 55
4, 143159, Note_on_c, 0, 58, 42
4, 143163, Note_on_c, 0, 48, 40
4, 143425, Control_c, 0, 64, 127
4, 143510, Note_on_c, 0, 58, 0
4, 143532, Note_on_c, 0, 48, 0
4, 143556, Note_on_c, 0, 67, 0
4, 143660, Note_on_c, 0, 70, 0
4, 143735, Note_on_c, 0, 64, 0
4, 144244, Control_c, 0, 64, 0
4, 144299, Note_on_c, 0, 42, 38
4, 144300, Note_on_c, 0, 58, 44
4, 144310, Note_on_c, 0, 52, 36
4, 144323, Note_on_c, 0, 64, 38
4, 144331, Note_on_c, 0, 62, 57
4, 144614, Note_on_c, 0, 64, 0
4, 144614, Control_c, 0, 64, 127
4, 144615, Note_on_c, 0, 62, 0
4, 144659, Note_on_c, 0, 42, 0
4, 144683, Note_on_c, 0, 58, 0
4, 144724, Note_on_c, 0, 52, 0
4, 145175, Note_on_c, 0, 63, 53
4, 145201, Note_on_c, 0, 55, 49
4, 145203, Note_on_c, 0, 58, 59
4, 145286, Control_c, 0, 64, 0
4, 145388, Note_on_c, 0, 55, 0
4, 145479, Note_on_c, 0, 48, 42
4, 145483, Note_on_c, 0, 58, 0
4, 145510, Note_on_c, 0, 63, 0
4, 145526, Control_c, 0, 64, 127
4, 145662, Note_on_c, 0, 48, 0
4, 146361, Note_on_c, 0, 84, 77
4, 146371, Note_on_c, 0, 72, 79
4, 146615, Control_c, 0, 64, 0
4, 146667, Note_on_c, 0, 62, 49
4, 146687, Note_on_c, 0, 58, 42
4, 146703, Note_on_c, 0, 63, 29
4, 146707, Note_on_c, 0, 67, 28
4, 146747, Note_on_c, 0, 84, 0
4, 146759, Note_on_c, 0, 72, 0
4, 146889, Control_c, 0, 64, 127
4, 146915, Note_on_c, 0, 84, 50
4, 146929, Note_on_c, 0, 72, 50
4, 147068, Note_on_c, 0, 62, 0
4, 147113, Note_on_c, 0, 58, 0
4, 147252, Note_on_c, 0, 63, 0
4, 147294, Note_on_c, 0, 72, 0
4, 147337, Note_on_c, 0, 67, 0
4, 147377, Note_on_c, 0, 84, 0
4, 147484, Note_on_c, 0, 81, 56
4, 147742, Note_on_c, 0, 81, 0
4, 147771, Control_c, 0, 64, 0
4, 147881, Note_on_c, 0, 63, 29
4, 147883, Note_on_c, 0, 67, 30
4, 147891, Note_on_c, 0, 81, 37
4, 147899, Note_on_c, 0, 78, 39
4, 147902, Note_on_c, 0, 84, 38
4, 147915, Note_on_c, 0, 72, 38
4, 147921, Note_on_c, 0, 57, 19
4, 147988, Note_on_c, 0, 67, 0
4, 148015, Control_c, 0, 64, 127
4, 148049, Note_on_c, 0, 63, 0
4, 148100, Note_on_c, 0, 57, 0
4, 148427, Note_on_c, 0, 72, 0
4, 148457, Note_on_c, 0, 84, 0
4, 148516, Note_on_c, 0, 78, 0
4, 148542, Note_on_c, 0, 81, 0
4, 148631, Note_on_c, 0, 84, 42
4, 148649, Note_on_c, 0, 78, 51
4, 148651, Note_on_c, 0, 72, 49
4, 148668, Note_on_c, 0, 81, 51
4, 148782, Note_on_c, 0, 72, 0
4, 148814, Note_on_c, 0, 78, 0
4, 148844, Note_on_c, 0, 81, 0
4, 148855, Note_on_c, 0, 84, 0
4, 148867, Control_c, 0, 64, 0
4, 149004, Note_on_c, 0, 41, 47
4, 149171, Control_c, 0, 64, 127
4, 149287, Note_on_c, 0, 41, 0
4, 149775, Note_on_c, 0, 53, 40
4, 149790, Note_on_c, 0, 72, 53
4, 149851, Note_on_c, 0, 72, 0
4, 150012, Note_on_c, 0, 53, 0
4, 150070, Control_c, 0, 64, 0
4, 150180, Note_on_c, 0, 46, 62
4, 150215, Note_on_c, 0, 84, 78
4, 150219, Note_on_c, 0, 74, 89
4, 150223, Note_on_c, 0, 77, 79
4, 150227, Note_on_c, 0, 81, 71
4, 150326, Control_c, 0, 64, 127
4, 150332, Note_on_c, 0, 46, 0
4, 150566, Note_on_c, 0, 74, 0
4, 150577, Note_on_c, 0, 84, 0
4, 150662, Note_on_c, 0, 77, 0
4, 150713, Note_on_c, 0, 81, 0
4, 150966, Note_on_c, 0, 86, 76
4, 150977, Note_on_c, 0, 77, 72
4, 151019, Note_on_c, 0, 81, 34
4, 151091, Note_on_c, 0, 81, 0
4, 151094, Note_on_c, 0, 77, 0
4, 151095, Note_on_c, 0, 86, 0
4, 151319, Control_c, 0, 64, 0
4, 151388, Note_on_c, 0, 82, 75
4, 151391, Note_on_c, 0, 70, 75
4, 151398, Note_on_c, 0, 61, 55
4, 151414, Note_on_c, 0, 65, 69
4, 151417, Note_on_c, 0, 55, 59
4, 151431, Note_on_c, 0, 75, 48
4, 151731, Note_on_c, 0, 55, 0
4, 151737, Note_on_c, 0, 65, 0
4, 151742, Note_on_c, 0, 75, 0
4, 151774, Note_on_c, 0, 70, 0
4, 151785, Note_on_c, 0, 61, 0
4, 151811, Note_on_c, 0, 82, 0
4, 152567, Note_on_c, 0, 82, 75
4, 152577, Note_on_c, 0, 70, 81
4, 152580, Note_on_c, 0, 73, 62
4, 152587, Note_on_c, 0, 77, 58
4, 152595, Note_on_c, 0, 60, 68
4, 152596, Note_on_c, 0, 65, 83
4, 152599, Note_on_c, 0, 61, 63
4, 152614, Note_on_c, 0, 55, 60
4, 152617, Note_on_c, 0, 80, 30
4, 152716, Control_c, 0, 64, 127
4, 153116, Note_on_c, 0, 55, 0
4, 153118, Note_on_c, 0, 70, 0
4, 153174, Note_on_c, 0, 65, 0
4, 153183, Note_on_c, 0, 77, 0
4, 153215, Note_on_c, 0, 60, 0
4, 153217, Note_on_c, 0, 82, 0
4, 153223, Note_on_c, 0, 73, 0
4, 153239, Note_on_c, 0, 61, 0
4, 153342, Note_on_c, 0, 81, 70
4, 153348, Note_on_c, 0, 73, 51
4, 153353, Note_on_c, 0, 65, 61
4, 153358, Note_on_c, 0, 61, 64
4, 153359, Note_on_c, 0, 69, 52
4, 153361, Note_on_c, 0, 55, 54
4, 153369, Note_on_c, 0, 60, 27
4, 153371, Note_on_c, 0, 77, 50
4, 153475, Note_on_c, 0, 80, 0
4, 153596, Note_on_c, 0, 81, 0
4, 153612, Note_on_c, 0, 65, 0
4, 153623, Note_on_c, 0, 69, 0
4, 153627, Note_on_c, 0, 55, 0
4, 153652, Note_on_c, 0, 77, 0
4, 153681, Note_on_c, 0, 61, 0
4, 153707, Note_on_c, 0, 73, 0
4, 153761, Note_on_c, 0, 79, 47
4, 153788, Note_on_c, 0, 73, 35
4, 153795, Note_on_c, 0, 78, 1
4, 153814, Note_on_c, 0, 61, 46
4, 153814, Note_on_c, 0, 65, 53
4, 153817, Note_on_c, 0, 67, 53
4, 153828, Note_on_c, 0, 55, 41
4, 154094, Note_on_c, 0, 65, 0
4, 154116, Note_on_c, 0, 78, 0
4, 154142, Note_on_c, 0, 79, 0
4, 154150, Note_on_c, 0, 60, 0
4, 154188, Note_on_c, 0, 61, 0
4, 154203, Note_on_c, 0, 67, 0
4, 154283, Note_on_c, 0, 55, 0
4, 154326, Note_on_c, 0, 73, 0
4, 154836, Control_c, 0, 64, 0
4, 154919, Note_on_c, 0, 77, 67
4, 154923, Note_on_c, 0, 55, 70
4, 154926, Note_on_c, 0, 74, 71
4, 154927, Note_on_c, 0, 43, 70
4, 154929, Note_on_c, 0, 71, 74
4, 154932, Note_on_c, 0, 65, 84
4, 155236, Control_c, 0, 64, 127
4, 155243, Note_on_c, 0, 74, 0
4, 155249, Note_on_c, 0, 65, 0
4, 155252, Note_on_c, 0, 77, 0
4, 155276, Note_on_c, 0, 71, 0
4, 155319, Note_on_c, 0, 55, 0
4, 155348, Note_on_c, 0, 43, 0
4, 155382, Control_c, 0, 64, 0
4, 156081, Note_on_c, 0, 58, 52
4, 156097, Note_on_c, 0, 53, 50
4, 156124, Note_on_c, 0, 43, 31
4, 156127, Note_on_c, 0, 62, 54
4, 156131, Note_on_c, 0, 65, 49
4, 156241, Note_on_c, 0, 43, 0
4, 156302, Note_on_c, 0, 59, 24
4, 156313, Note_on_c, 0, 58, 0
4, 156396, Note_on_c, 0, 53, 0
4, 156708, Note_on_c, 0, 59, 0
4, 156756, Note_on_c, 0, 65, 0
4, 156809, Note_on_c, 0, 62, 0
4, 156926, Note_on_c, 0, 36, 32
4, 156966, Note_on_c, 0, 43, 34
4, 157241, Note_on_c, 0, 52, 38
4, 157294, Note_on_c, 0, 62, 51
4, 157300, Note_on_c, 0, 65, 47
4, 157305, Note_on_c, 0, 58, 52
4, 157547, Control_c, 0, 64, 127
4, 157705, Note_on_c, 0, 36, 0
4, 157809, Note_on_c, 0, 52, 0
4, 157876, Note_on_c, 0, 43, 0
4, 157907, Note_on_c, 0, 58, 0
4, 157975, Note_on_c, 0, 62, 0
4, 158039, Note_on_c, 0, 65, 0
4, 158148, Note_on_c, 0, 43, 26
4, 158393, Note_on_c, 0, 43, 0
4, 158454, Note_on_c, 0, 58, 48
4, 158463, Note_on_c, 0, 65, 39
4, 158470, Note_on_c, 0, 62, 46
4, 158822, Note_on_c, 0, 58, 0
4, 159078, Note_on_c, 0, 65, 0
4, 159191, Note_on_c, 0, 62, 0
4, 159503, Control_c, 0, 64, 0
4, 159607, Note_on_c, 0, 65, 48
4, 159615, Note_on_c, 0, 57, 45
4, 159625, Note_on_c, 0, 60, 34
4, 159671, Note_on_c, 0, 48, 46
4, 159823, Note_on_c, 0, 48, 0
4, 160361, Note_on_c, 0, 47, 61
4, 160385, Note_on_c, 0, 40, 46
4, 160583, Note_on_c, 0, 40, 0
4, 160590, Note_on_c, 0, 47, 0
4, 160860, Note_on_c, 0, 46, 58
4, 160883, Note_on_c, 0, 39, 51
4, 160929, Note_on_c, 0, 57, 0
4, 161030, Note_on_c, 0, 65, 0
4, 161033, Note_on_c, 0, 60, 0
4, 161043, Control_c, 0, 64, 127
4, 161243, Note_on_c, 0, 39, 0
4, 161251, Control_c, 0, 64, 0
4, 161335, Note_on_c, 0, 46, 0
4, 161547, Note_on_c, 0, 54, 52
4, 161556, Note_on_c, 0, 45, 50
4, 161559, Note_on_c, 0, 60, 40
4, 161569, Note_on_c, 0, 38, 50
4, 161828, Control_c, 0, 64, 127
4, 161844, Note_on_c, 0, 54, 0
4, 161951, Note_on_c, 0, 38, 0
4, 162006, Note_on_c, 0, 60, 0
4, 162015, Note_on_c, 0, 45, 0
4, 162710, Control_c, 0, 64, 0
4, 162748, Note_on_c, 0, 77, 88
4, 162753, Note_on_c, 0, 72, 92
4, 162767, Note_on_c, 0, 60, 54
4, 162771, Note_on_c, 0, 65, 77
4, 162775, Note_on_c, 0, 54, 72
4, 162995, Note_on_c, 0, 72, 0
4, 163030, Note_on_c, 0, 77, 0
4, 163302, Note_on_c, 0, 67, 46
4, 163415, Note_on_c, 0, 74, 35
4, 163438, Note_on_c, 0, 65, 0
4, 163534, Note_on_c, 0, 67, 0
4, 163671, Note_on_c, 0, 74, 0
4, 163953, Note_on_c, 0, 60, 0
4, 164038, Note_on_c, 0, 54, 0
4, 164044, Note_on_c, 0, 68, 80
4, 164052, Note_on_c, 0, 74, 71
4, 164071, Note_on_c, 0, 64, 68
4, 164091, Note_on_c, 0, 53, 43
4, 164115, Note_on_c, 0, 59, 51
4, 164255, Note_on_c, 0, 69, 29
4, 164259, Note_on_c, 0, 68, 0
4, 164515, Note_on_c, 0, 69, 0
4, 164535, Note_on_c, 0, 64, 0
4, 164614, Note_on_c, 0, 65, 49
4, 164627, Note_on_c, 0, 74, 0
4, 164654, Note_on_c, 0, 67, 22
4, 164710, Note_on_c, 0, 67, 0
4, 164843, Note_on_c, 0, 65, 0
4, 164950, Note_on_c, 0, 62, 47
4, 165143, Note_on_c, 0, 59, 0
4, 165148, Note_on_c, 0, 62, 0
4, 165302, Note_on_c, 0, 65, 88
4, 165475, Note_on_c, 0, 53, 0
4, 165647, Note_on_c, 0, 67, 71
4, 165723, Note_on_c, 0, 65, 0
4, 165884, Note_on_c, 0, 67, 0
4, 166003, Note_on_c, 0, 65, 70
4, 166307, Note_on_c, 0, 65, 0
4, 166393, Note_on_c, 0, 62, 41
4, 166692, Note_on_c, 0, 62, 0
4, 166748, Note_on_c, 0, 65, 71
4, 167652, Note_on_c, 0, 36, 36
4, 167655, Note_on_c, 0, 61, 40
4, 167662, Note_on_c, 0, 58, 46
4, 167668, Note_on_c, 0, 52, 36
4, 168051, Control_c, 0, 64, 127
4, 168131, Note_on_c, 0, 36, 0
4, 168369, Note_on_c, 0, 52, 0
4, 168553, Note_on_c, 0, 58, 0
4, 168795, Note_on_c, 0, 36, 44
4, 168828, Note_on_c, 0, 65, 0
4, 168972, Note_on_c, 0, 43, 15
4, 168985, Note_on_c, 0, 61, 0
4, 169014, Note_on_c, 0, 36, 0
4, 169110, Control_c, 0, 64, 0
4, 169139, Note_on_c, 0, 43, 0
4, 169204, Note_on_c, 0, 57, 60
4, 169225, Note_on_c, 0, 60, 42
4, 169228, Note_on_c, 0, 65, 47
4, 169259, Note_on_c, 0, 48, 52
4, 169348, Note_on_c, 0, 48, 0
4, 169983, Note_on_c, 0, 40, 62
4, 170294, Note_on_c, 0, 40, 0
4, 170361, Note_on_c, 0, 57, 0
4, 170444, Note_on_c, 0, 60, 0
4, 170459, Note_on_c, 0, 39, 67
4, 170478, Note_on_c, 0, 27, 46
4, 170502, Note_on_c, 0, 65, 0
4, 170796, Note_on_c, 0, 27, 0
4, 170932, Note_on_c, 0, 39, 0
4, 171177, Note_on_c, 0, 26, 45
4, 171187, Note_on_c, 0, 38, 67
4, 171236, Note_on_c, 0, 26, 0
4, 171289, Control_c, 0, 64, 127
4, 171313, Note_on_c, 0, 38, 0
4, 172423, Note_on_c, 0, 92, 83
4, 172433, Note_on_c, 0, 80, 91
4, 172435, Note_on_c, 0, 60, 68
4, 172436, Note_on_c, 0, 87, 87
4, 172439, Note_on_c, 0, 65, 89
4, 172443, Note_on_c, 0, 58, 80
4, 172444, Note_on_c, 0, 54, 79
4, 172529, Control_c, 0, 64, 0
4, 173027, Control_c, 0, 64, 127
4, 173342, Note_on_c, 0, 65, 0
4, 173345, Note_on_c, 0, 60, 0
4, 173353, Note_on_c, 0, 80, 0
4, 173358, Note_on_c, 0, 92, 0
4, 173363, Note_on_c, 0, 87, 0
4, 173383, Note_on_c, 0, 58, 0
4, 173444, Note_on_c, 0, 54, 0
4, 174118, Control_c, 0, 64, 0
4, 174132, Note_on_c, 0, 85, 84
4, 174135, Note_on_c, 0, 77, 88
4, 174142, Note_on_c, 0, 89, 74
4, 174148, Note_on_c, 0, 62, 82
4, 174155, Note_on_c, 0, 53, 65
4, 174156, Note_on_c, 0, 58, 74
4, 174163, Note_on_c, 0, 55, 58
4, 174169, Note_on_c, 0, 88, 58
4, 174225, Note_on_c, 0, 88, 0
4, 174247, Note_on_c, 0, 62, 0
4, 174326, Note_on_c, 0, 58, 0
4, 174366, Note_on_c, 0, 53, 0
4, 174374, Note_on_c, 0, 55, 0
4, 174387, Note_on_c, 0, 86, 71
4, 174396, Note_on_c, 0, 85, 0
4, 174519, Note_on_c, 0, 77, 0
4, 174582, Note_on_c, 0, 86, 0
4, 174603, Note_on_c, 0, 89, 0
4, 174951, Note_on_c, 0, 33, 61
4, 175382, Note_on_c, 0, 45, 54
4, 175439, Note_on_c, 0, 33, 0
4, 176036, Note_on_c, 0, 45, 0
4, 176172, Note_on_c, 0, 34, 57
4, 176604, Note_on_c, 0, 46, 35
4, 176806, Note_on_c, 0, 34, 0
4, 177331, Note_on_c, 0, 46, 0
4, 177369, Note_on_c, 0, 35, 68
4, 177804, Note_on_c, 0, 47, 56
4, 177999, Note_on_c, 0, 35, 0
4, 178271, Control_c, 0, 64, 127
4, 178551, Note_on_c, 0, 35, 64
4, 178763, Note_on_c, 0, 35, 0
4, 178812, Note_on_c, 0, 47, 0
4, 178881, Control_c, 0, 64, 0
4, 178969, Note_on_c, 0, 48, 82
4, 178977, Note_on_c, 0, 36, 79
4, 179430, Note_on_c, 0, 48, 0
4, 179433, Note_on_c, 0, 36, 0
4, 180142, Note_on_c, 0, 82, 81
4, 180185, Note_on_c, 0, 80, 42
4, 180243, Note_on_c, 0, 80, 0
4, 180323, Note_on_c, 0, 83, 44
4, 180324, Note_on_c, 0, 82, 0
4, 180534, Note_on_c, 0, 82, 51
4, 180583, Note_on_c, 0, 83, 0
4, 180683, Note_on_c, 0, 80, 45
4, 180750, Note_on_c, 0, 82, 0
4, 180900, Note_on_c, 0, 77, 47
4, 180921, Note_on_c, 0, 80, 0
4, 181028, Note_on_c, 0, 77, 0
4, 181142, Note_on_c, 0, 82, 78
4, 181337, Note_on_c, 0, 82, 0
4, 181519, Note_on_c, 0, 80, 79
4, 181551, Note_on_c, 0, 82, 46
4, 181729, Note_on_c, 0, 82, 0
4, 181743, Note_on_c, 0, 80, 0
4, 181844, Note_on_c, 0, 82, 51
4, 181871, Note_on_c, 0, 77, 64
4, 182071, Note_on_c, 0, 77, 0
4, 182108, Note_on_c, 0, 82, 0
4, 182185, Note_on_c, 0, 72, 45
4, 182444, Note_on_c, 0, 72, 0
4, 182575, Note_on_c, 0, 71, 67
4, 182582, Note_on_c, 0, 77, 58
4, 182806, Note_on_c, 0, 77, 0
4, 182827, Note_on_c, 0, 71, 0
4, 182931, Note_on_c, 0, 65, 51
4, 183151, Note_on_c, 0, 65, 0
4, 183331, Note_on_c, 0, 74, 64
4, 183339, Note_on_c, 0, 70, 69
4, 183569, Note_on_c, 0, 74, 0
4, 183582, Note_on_c, 0, 70, 0
4, 183737, Note_on_c, 0, 68, 57
4, 183755, Note_on_c, 0, 72, 48
4, 183803, Note_on_c, 0, 70, 28
4, 183855, Note_on_c, 0, 70, 0
4, 183886, Note_on_c, 0, 68, 0
4, 183910, Note_on_c, 0, 69, 33
4, 184153, Note_on_c, 0, 65, 62
4, 184244, Note_on_c, 0, 72, 0
4, 184302, Note_on_c, 0, 69, 0
4, 184388, Note_on_c, 0, 65, 0
4, 184505, Note_on_c, 0, 60, 34
4, 184745, Note_on_c, 0, 60, 0
4, 184913, Note_on_c, 0, 65, 35
4, 184931, Note_on_c, 0, 59, 41
4, 185375, Note_on_c, 0, 59, 0
4, 185433, Note_on_c, 0, 65, 0
4, 185652, Note_on_c, 0, 58, 60
4, 185660, Note_on_c, 0, 65, 45
4, 185830, Note_on_c, 0, 65, 0
4, 185897, Note_on_c, 0, 58, 0
4, 186127, Note_on_c, 0, 56, 32
4, 186155, Note_on_c, 0, 44, 18
4, 186315, Note_on_c, 0, 44, 0
4, 186679, Note_on_c, 0, 56, 0
4, 186769, Note_on_c, 0, 53, 45
4, 186780, Note_on_c, 0, 41, 41
4, 187067, Note_on_c, 0, 53, 0
4, 187076, Note_on_c, 0, 41, 0
4, 187190, Note_on_c, 0, 51, 37
4, 187209, Note_on_c, 0, 39, 33
4, 187679, Note_on_c, 0, 39, 0
4, 187833, Note_on_c, 0, 51, 0
4, 187910, Note_on_c, 0, 36, 34
4, 187934, Note_on_c, 0, 48, 26
4, 188039, Note_on_c, 0, 48, 0
4, 188166, Note_on_c, 0, 36, 0
4, 188409, Note_on_c, 0, 51, 52
4, 188455, Note_on_c, 0, 39, 33
4, 188598, Note_on_c, 0, 41, 18
4, 188604, Note_on_c, 0, 51, 0
4, 188649, Note_on_c, 0, 53, 39
4, 188723, Note_on_c, 0, 39, 0
4, 188788, Note_on_c, 0, 41, 0
4, 188796, Note_on_c, 0, 51, 37
4, 188828, Note_on_c, 0, 53, 0
4, 188956, Note_on_c, 0, 36, 16
4, 189084, Note_on_c, 0, 48, 34
4, 189091, Note_on_c, 0, 51, 0
4, 189193, Note_on_c, 0, 39, 25
4, 189195, Note_on_c, 0, 48, 0
4, 189255, Note_on_c, 0, 39, 0
4, 189326, Note_on_c, 0, 36, 0
4, 189443, Note_on_c, 0, 52, 44
4, 189462, Note_on_c, 0, 40, 42
4, 189931, Control_c, 0, 64, 127
4, 190011, Control_c, 0, 64, 0
4, 190142, Note_on_c, 0, 40, 0
4, 190193, Note_on_c, 0, 52, 0
4, 190235, Note_on_c, 0, 41, 28
4, 190251, Note_on_c, 0, 53, 31
4, 190604, Control_c, 0, 64, 127
4, 190759, Note_on_c, 0, 53, 0
4, 191284, Note_on_c, 0, 41, 0
4, 191367, Note_on_c, 0, 29, 34
4, 191454, Note_on_c, 0, 29, 0
4, 192393, Note_on_c, 0, 69, 20
4, 192503, Note_on_c, 0, 74, 24
4, 192614, Note_on_c, 0, 75, 33
4, 192679, Note_on_c, 0, 81, 32
4, 192791, Note_on_c, 0, 81, 0
4, 192860, Note_on_c, 0, 83, 36
4, 192955, Note_on_c, 0, 86, 54
4, 192964, Note_on_c, 0, 83, 0
4, 193067, Note_on_c, 0, 86, 0
4, 193076, Note_on_c, 0, 91, 64
4, 193151, Note_on_c, 0, 91, 0
4, 193545, Note_on_c, 0, 103, 47
4, 194420, Note_on_c, 0, 75, 0
4, 194441, Note_on_c, 0, 74, 0
4, 194526, Note_on_c, 0, 69, 0
4, 194910, Note_on_c, 0, 103, 0
4, 196023, Note_on_c, 0, 29, 30
4, 196937, Note_on_c, 0, 29, 0
4, 200275, Control_c, 0, 64, 0
4, 200275, End_track
0, 0, End_of_file
