0, 0, Header, 1, 4, 960
1, 0, Start_track
1, 0, Title_t, "Brazilian Like (M. Petrucciani)"
1, 0, Text_t, "dougmck@pipeline.com.au\012"
1, 0, Time_signature, 4, 2, 24, 8
1, 0, Key_signature, -5, "major"
1, 0, Tempo, 400000
1, 0, End_track
2, 0, Start_track
2, 0, Title_t, "MIDI 1"
2, 0, Control_c, 0, 0, 0
2, 0, Control_c, 0, 7, 101
2, 1, Control_c, 0, 32, 0
2, 2, Program_c, 0, 0
2, 60, Control_c, 0, 64, 127
2, 83, Note_on_c, 0, 46, 51
2, 106, Note_on_c, 0, 77, 82
2, 305, Note_on_c, 0, 77, 0
2, 314, Note_on_c, 0, 46, 0
2, 582, Control_c, 0, 64, 0
2, 977, Control_c, 0, 64, 127
2, 1061, Control_c, 0, 64, 0
2, 1572, Note_on_c, 0, 70, 64
2, 1616, Note_on_c, 0, 65, 59
2, 1624, Note_on_c, 0, 61, 57
2, 1645, Note_on_c, 0, 60, 55
2, 1716, Note_on_c, 0, 60, 0
2, 1736, Note_on_c, 0, 65, 0
2, 1793, Note_on_c, 0, 61, 0
2, 1822, Note_on_c, 0, 70, 0
2, 2596, Note_on_c, 0, 72, 123
2, 2980, Control_c, 0, 64, 127
2, 3105, Control_c, 0, 64, 0
2, 3292, Control_c, 0, 64, 127
2, 3509, Note_on_c, 0, 57, 48
2, 3606, Note_on_c, 0, 57, 0
2, 3814, Control_c, 0, 64, 0
2, 3877, Note_on_c, 0, 72, 0
2, 3925, Note_on_c, 0, 73, 77
2, 3931, Note_on_c, 0, 56, 69
2, 4314, Note_on_c, 0, 56, 0
2, 4322, Note_on_c, 0, 73, 0
2, 4836, Note_on_c, 0, 72, 85
2, 5266, Note_on_c, 0, 72, 0
2, 5753, Control_c, 0, 64, 127
2, 5797, Note_on_c, 0, 73, 68
2, 5820, Note_on_c, 0, 61, 36
2, 5857, Note_on_c, 0, 65, 32
2, 5880, Note_on_c, 0, 57, 30
2, 6221, Note_on_c, 0, 73, 0
2, 6246, Note_on_c, 0, 65, 0
2, 6269, Note_on_c, 0, 57, 0
2, 6439, Note_on_c, 0, 77, 69
2, 6444, Note_on_c, 0, 61, 0
2, 6618, Note_on_c, 0, 77, 0
2, 7315, Note_on_c, 0, 76, 93
2, 7652, Control_c, 0, 64, 0
2, 7662, Note_on_c, 0, 43, 58
2, 7877, Note_on_c, 0, 43, 0
2, 8652, Note_on_c, 0, 64, 43
2, 8659, Note_on_c, 0, 70, 45
2, 8750, Note_on_c, 0, 64, 0
2, 8854, Note_on_c, 0, 70, 0
2, 8858, Note_on_c, 0, 76, 0
2, 9613, Note_on_c, 0, 64, 48
2, 9620, Note_on_c, 0, 58, 40
2, 9655, Control_c, 0, 64, 127
2, 9686, Note_on_c, 0, 60, 21
2, 9693, Note_on_c, 0, 64, 0
2, 9755, Note_on_c, 0, 60, 0
2, 9801, Control_c, 0, 64, 0
2, 9803, Note_on_c, 0, 58, 0
2, 10154, Control_c, 0, 64, 127
2, 10277, Note_on_c, 0, 73, 67
2, 10656, Note_on_c, 0, 73, 0
2, 10718, Control_c, 0, 64, 0
2, 11009, Control_c, 0, 64, 127
2, 11013, Note_on_c, 0, 74, 100
2, 11519, Note_on_c, 0, 74, 0
2, 11635, Control_c, 0, 64, 0
2, 11668, Note_on_c, 0, 42, 63
2, 11671, Note_on_c, 0, 75, 86
2, 12134, Note_on_c, 0, 42, 0
2, 12303, Note_on_c, 0, 66, 57
2, 12328, Note_on_c, 0, 69, 64
2, 12417, Note_on_c, 0, 69, 0
2, 12442, Note_on_c, 0, 66, 0
2, 12790, Note_on_c, 0, 75, 0
2, 13162, Note_on_c, 0, 73, 92
2, 13493, Note_on_c, 0, 73, 0
2, 13626, Note_on_c, 0, 63, 43
2, 13628, Note_on_c, 0, 60, 52
2, 13663, Note_on_c, 0, 54, 32
2, 13665, Note_on_c, 0, 73, 80
2, 13701, Control_c, 0, 64, 127
2, 13765, Note_on_c, 0, 63, 0
2, 13776, Note_on_c, 0, 60, 0
2, 13850, Note_on_c, 0, 54, 0
2, 14050, Note_on_c, 0, 73, 0
2, 14551, Note_on_c, 0, 70, 94
2, 14828, Note_on_c, 0, 70, 0
2, 15061, Note_on_c, 0, 70, 82
2, 15494, Control_c, 0, 64, 0
2, 15508, Note_on_c, 0, 61, 50
2, 15512, Note_on_c, 0, 65, 66
2, 15556, Note_on_c, 0, 53, 64
2, 16022, Note_on_c, 0, 61, 0
2, 16084, Note_on_c, 0, 53, 0
2, 16180, Note_on_c, 0, 61, 70
2, 16201, Note_on_c, 0, 65, 0
2, 16326, Note_on_c, 0, 61, 0
2, 16536, Control_c, 0, 64, 127
2, 16602, Note_on_c, 0, 68, 28
2, 16787, Note_on_c, 0, 70, 0
2, 16929, Note_on_c, 0, 68, 0
2, 17016, Note_on_c, 0, 58, 58
2, 17018, Note_on_c, 0, 61, 73
2, 17039, Note_on_c, 0, 65, 70
2, 17245, Control_c, 0, 64, 0
2, 18451, Note_on_c, 0, 49, 57
2, 18936, Note_on_c, 0, 49, 0
2, 19277, Note_on_c, 0, 46, 69
2, 19288, Control_c, 0, 64, 127
2, 19323, Note_on_c, 0, 58, 0
2, 19496, Note_on_c, 0, 46, 0
2, 19577, Note_on_c, 0, 61, 0
2, 19589, Note_on_c, 0, 65, 0
2, 20729, Note_on_c, 0, 65, 89
2, 20731, Note_on_c, 0, 61, 80
2, 20735, Note_on_c, 0, 60, 87
2, 20864, Note_on_c, 0, 65, 0
2, 20881, Note_on_c, 0, 60, 0
2, 20958, Control_c, 0, 64, 0
2, 20989, Note_on_c, 0, 61, 0
2, 21195, Note_on_c, 0, 77, 109
2, 21465, Note_on_c, 0, 77, 0
2, 21678, Note_on_c, 0, 77, 75
2, 21919, Note_on_c, 0, 77, 0
2, 22102, Note_on_c, 0, 75, 79
2, 22418, Control_c, 0, 64, 127
2, 22426, Note_on_c, 0, 75, 0
2, 22876, Control_c, 0, 64, 0
2, 23036, Note_on_c, 0, 58, 40
2, 23044, Note_on_c, 0, 48, 46
2, 23364, Note_on_c, 0, 48, 0
2, 23549, Note_on_c, 0, 58, 0
2, 24042, Note_on_c, 0, 63, 48
2, 24061, Note_on_c, 0, 70, 61
2, 24263, Note_on_c, 0, 63, 0
2, 24471, Note_on_c, 0, 70, 0
2, 24953, Note_on_c, 0, 63, 48
2, 25018, Note_on_c, 0, 58, 40
2, 25022, Note_on_c, 0, 60, 46
2, 25064, Control_c, 0, 64, 127
2, 25080, Note_on_c, 0, 63, 0
2, 25093, Note_on_c, 0, 60, 0
2, 25278, Note_on_c, 0, 58, 0
2, 25534, Note_on_c, 0, 85, 74
2, 25573, Note_on_c, 0, 73, 69
2, 25711, Control_c, 0, 64, 0
2, 25829, Note_on_c, 0, 73, 0
2, 25873, Note_on_c, 0, 85, 0
2, 25954, Note_on_c, 0, 84, 68
2, 25979, Note_on_c, 0, 72, 59
2, 26114, Note_on_c, 0, 84, 0
2, 26174, Note_on_c, 0, 72, 0
2, 26470, Note_on_c, 0, 82, 60
2, 26478, Note_on_c, 0, 70, 74
2, 26663, Note_on_c, 0, 82, 0
2, 26742, Note_on_c, 0, 70, 0
2, 26894, Note_on_c, 0, 69, 58
2, 26896, Note_on_c, 0, 51, 31
2, 26898, Note_on_c, 0, 62, 37
2, 26907, Note_on_c, 0, 81, 60
2, 26942, Control_c, 0, 64, 127
2, 26963, Note_on_c, 0, 57, 25
2, 26996, Note_on_c, 0, 62, 0
2, 27025, Control_c, 0, 64, 0
2, 27042, Note_on_c, 0, 57, 0
2, 27083, Note_on_c, 0, 51, 0
2, 27098, Note_on_c, 0, 81, 0
2, 27154, Note_on_c, 0, 69, 0
2, 27497, Note_on_c, 0, 82, 59
2, 27516, Note_on_c, 0, 70, 38
2, 27643, Note_on_c, 0, 70, 0
2, 27676, Note_on_c, 0, 82, 0
2, 28067, Control_c, 0, 64, 127
2, 28150, Control_c, 0, 64, 0
2, 28371, Note_on_c, 0, 41, 63
2, 28375, Note_on_c, 0, 84, 74
2, 28390, Note_on_c, 0, 72, 74
2, 28560, Note_on_c, 0, 72, 0
2, 28573, Note_on_c, 0, 41, 0
2, 28596, Note_on_c, 0, 84, 0
2, 28693, Control_c, 0, 64, 127
2, 29330, Note_on_c, 0, 87, 95
2, 29338, Note_on_c, 0, 75, 106
2, 29812, Note_on_c, 0, 87, 0
2, 29823, Note_on_c, 0, 75, 0
2, 30212, Note_on_c, 0, 86, 70
2, 30258, Note_on_c, 0, 74, 45
2, 30382, Note_on_c, 0, 86, 0
2, 30453, Note_on_c, 0, 74, 0
2, 30611, Control_c, 0, 64, 0
2, 30678, Note_on_c, 0, 61, 52
2, 30707, Note_on_c, 0, 65, 33
2, 30721, Note_on_c, 0, 85, 61
2, 30746, Note_on_c, 0, 60, 41
2, 30775, Note_on_c, 0, 73, 27
2, 30971, Note_on_c, 0, 73, 0
2, 31056, Note_on_c, 0, 85, 0
2, 31649, Note_on_c, 0, 75, 83
2, 31668, Note_on_c, 0, 87, 65
2, 31689, Note_on_c, 0, 60, 0
2, 31926, Control_c, 0, 64, 127
2, 32030, Note_on_c, 0, 75, 0
2, 32132, Note_on_c, 0, 87, 0
2, 32192, Note_on_c, 0, 57, 65
2, 32227, Note_on_c, 0, 65, 0
2, 32250, Note_on_c, 0, 61, 0
2, 32448, Control_c, 0, 64, 0
2, 32616, Note_on_c, 0, 65, 46
2, 32627, Note_on_c, 0, 61, 38
2, 32631, Note_on_c, 0, 89, 75
2, 32654, Note_on_c, 0, 77, 73
2, 32870, Note_on_c, 0, 89, 0
2, 32943, Note_on_c, 0, 77, 0
2, 33178, Control_c, 0, 64, 127
2, 33319, Note_on_c, 0, 57, 0
2, 33407, Control_c, 0, 64, 0
2, 33531, Note_on_c, 0, 56, 63
2, 33594, Note_on_c, 0, 82, 28
2, 33615, Note_on_c, 0, 65, 0
2, 33716, Note_on_c, 0, 82, 0
2, 33762, Note_on_c, 0, 61, 0
2, 33852, Note_on_c, 0, 56, 0
2, 33866, Control_c, 0, 64, 127
2, 34324, Control_c, 0, 64, 0
2, 34505, Note_on_c, 0, 55, 77
2, 34636, Control_c, 0, 64, 127
2, 34744, Note_on_c, 0, 55, 0
2, 35158, Control_c, 0, 64, 0
2, 35179, Note_on_c, 0, 71, 77
2, 35187, Note_on_c, 0, 62, 80
2, 35218, Note_on_c, 0, 43, 52
2, 35222, Note_on_c, 0, 67, 44
2, 35353, Note_on_c, 0, 43, 0
2, 35553, Control_c, 0, 64, 127
2, 35686, Note_on_c, 0, 67, 0
2, 35713, Note_on_c, 0, 62, 0
2, 35809, Note_on_c, 0, 71, 0
2, 35957, Note_on_c, 0, 57, 76
2, 35969, Note_on_c, 0, 72, 80
2, 35990, Note_on_c, 0, 62, 90
2, 35998, Note_on_c, 0, 67, 78
2, 36032, Note_on_c, 0, 71, 39
2, 36123, Note_on_c, 0, 71, 0
2, 36227, Note_on_c, 0, 72, 0
2, 36281, Note_on_c, 0, 67, 0
2, 36304, Note_on_c, 0, 57, 0
2, 36346, Note_on_c, 0, 62, 0
2, 36493, Control_c, 0, 64, 0
2, 36560, Note_on_c, 0, 74, 93
2, 36570, Note_on_c, 0, 59, 81
2, 36576, Note_on_c, 0, 67, 84
2, 36579, Note_on_c, 0, 62, 88
2, 36930, Control_c, 0, 64, 127
2, 36934, Note_on_c, 0, 74, 0
2, 37022, Note_on_c, 0, 62, 0
2, 37065, Note_on_c, 0, 67, 0
2, 37097, Control_c, 0, 64, 0
2, 37182, Note_on_c, 0, 62, 72
2, 37192, Note_on_c, 0, 71, 69
2, 37209, Note_on_c, 0, 67, 27
2, 37248, Note_on_c, 0, 59, 0
2, 37255, Note_on_c, 0, 55, 45
2, 37273, Note_on_c, 0, 62, 0
2, 37361, Note_on_c, 0, 67, 0
2, 37433, Note_on_c, 0, 71, 0
2, 37461, Note_on_c, 0, 55, 0
2, 38055, Note_on_c, 0, 76, 65
2, 38062, Note_on_c, 0, 70, 73
2, 38080, Note_on_c, 0, 64, 59
2, 38105, Note_on_c, 0, 60, 52
2, 38120, Note_on_c, 0, 48, 37
2, 38265, Control_c, 0, 64, 127
2, 38763, Note_on_c, 0, 76, 0
2, 38860, Note_on_c, 0, 60, 0
2, 38919, Note_on_c, 0, 64, 0
2, 39070, Note_on_c, 0, 70, 0
2, 39110, Note_on_c, 0, 55, 20
2, 39260, Note_on_c, 0, 48, 0
2, 39299, Note_on_c, 0, 55, 0
2, 39370, Control_c, 0, 64, 0
2, 39393, Note_on_c, 0, 70, 61
2, 39420, Note_on_c, 0, 62, 60
2, 39422, Note_on_c, 0, 77, 53
2, 39580, Control_c, 0, 64, 127
2, 39722, Note_on_c, 0, 77, 0
2, 39769, Note_on_c, 0, 70, 0
2, 39913, Note_on_c, 0, 62, 0
2, 40287, Control_c, 0, 64, 0
2, 40339, Note_on_c, 0, 79, 72
2, 40350, Note_on_c, 0, 70, 65
2, 40356, Note_on_c, 0, 76, 83
2, 40360, Note_on_c, 0, 64, 67
2, 40685, Control_c, 0, 64, 127
2, 40851, Note_on_c, 0, 77, 1
2, 40865, Note_on_c, 0, 76, 0
2, 41021, Note_on_c, 0, 79, 0
2, 41169, Note_on_c, 0, 70, 0
2, 41244, Note_on_c, 0, 64, 0
2, 41250, Note_on_c, 0, 77, 0
2, 41300, Note_on_c, 0, 72, 54
2, 41527, Note_on_c, 0, 72, 0
2, 42165, Control_c, 0, 64, 0
2, 42272, Note_on_c, 0, 81, 66
2, 42284, Note_on_c, 0, 70, 37
2, 42305, Note_on_c, 0, 48, 40
2, 42328, Note_on_c, 0, 73, 25
2, 42365, Note_on_c, 0, 76, 44
2, 42561, Control_c, 0, 64, 127
2, 42775, Note_on_c, 0, 48, 0
2, 43815, Note_on_c, 0, 73, 0
2, 43836, Note_on_c, 0, 70, 0
2, 44092, Note_on_c, 0, 81, 0
2, 44273, Note_on_c, 0, 70, 26
2, 44281, Note_on_c, 0, 73, 30
2, 44300, Note_on_c, 0, 64, 37
2, 44308, Note_on_c, 0, 58, 34
2, 44664, Note_on_c, 0, 76, 0
2, 44763, Note_on_c, 0, 64, 0
2, 44909, Note_on_c, 0, 70, 0
2, 44999, Note_on_c, 0, 73, 0
2, 45138, Note_on_c, 0, 58, 0
2, 45941, Note_on_c, 0, 53, 31
2, 45991, Note_on_c, 0, 58, 46
2, 46013, Note_on_c, 0, 79, 30
2, 46034, Note_on_c, 0, 75, 67
2, 46065, Note_on_c, 0, 77, 44
2, 46082, Note_on_c, 0, 70, 79
2, 46155, Note_on_c, 0, 63, 26
2, 46161, Note_on_c, 0, 67, 59
2, 46167, Control_c, 0, 64, 0
2, 46186, Note_on_c, 0, 74, 31
2, 46296, Note_on_c, 0, 74, 0
2, 46721, Note_on_c, 0, 75, 0
2, 46939, Control_c, 0, 64, 127
2, 47141, Note_on_c, 0, 70, 0
2, 47257, Note_on_c, 0, 67, 0
2, 47451, Note_on_c, 0, 63, 0
2, 47678, Note_on_c, 0, 75, 53
2, 47690, Note_on_c, 0, 67, 50
2, 47700, Note_on_c, 0, 70, 70
2, 47729, Note_on_c, 0, 79, 0
2, 47846, Note_on_c, 0, 63, 22
2, 47865, Note_on_c, 0, 60, 29
2, 47873, Note_on_c, 0, 77, 0
2, 48189, Note_on_c, 0, 75, 0
2, 48482, Note_on_c, 0, 70, 0
2, 48530, Note_on_c, 0, 70, 35
2, 48539, Note_on_c, 0, 75, 99
2, 48853, Note_on_c, 0, 75, 0
2, 48944, Note_on_c, 0, 67, 0
2, 48996, Note_on_c, 0, 70, 0
2, 49019, Note_on_c, 0, 63, 0
2, 49065, Note_on_c, 0, 53, 0
2, 49102, Note_on_c, 0, 60, 0
2, 49181, Note_on_c, 0, 74, 82
2, 49206, Note_on_c, 0, 58, 0
2, 49452, Note_on_c, 0, 74, 0
2, 49901, Control_c, 0, 64, 0
2, 49905, Note_on_c, 0, 73, 48
2, 49920, Note_on_c, 0, 65, 52
2, 49926, Note_on_c, 0, 68, 59
2, 49957, Note_on_c, 0, 63, 61
2, 49990, Note_on_c, 0, 57, 37
2, 50036, Note_on_c, 0, 53, 23
2, 50798, Control_c, 0, 64, 127
2, 51047, Note_on_c, 0, 63, 0
2, 51078, Note_on_c, 0, 57, 0
2, 51889, Note_on_c, 0, 65, 0
2, 52018, Note_on_c, 0, 68, 0
2, 52218, Note_on_c, 0, 73, 0
2, 52790, Note_on_c, 0, 53, 0
2, 53366, Note_on_c, 0, 82, 91
2, 53381, Note_on_c, 0, 70, 94
2, 53535, Note_on_c, 0, 70, 0
2, 53643, Note_on_c, 0, 82, 0
2, 53676, Control_c, 0, 64, 0
2, 53770, Note_on_c, 0, 42, 40
2, 53843, Note_on_c, 0, 54, 18
2, 53859, Note_on_c, 0, 82, 73
2, 53890, Note_on_c, 0, 70, 49
2, 54219, Note_on_c, 0, 42, 0
2, 54257, Note_on_c, 0, 54, 0
2, 54282, Note_on_c, 0, 82, 0
2, 54300, Note_on_c, 0, 70, 0
2, 55725, Note_on_c, 0, 54, 21
2, 55744, Note_on_c, 0, 61, 27
2, 55752, Note_on_c, 0, 58, 29
2, 55787, Note_on_c, 0, 65, 12
2, 55846, Control_c, 0, 64, 127
2, 55991, Control_c, 0, 64, 0
2, 56054, Note_on_c, 0, 61, 0
2, 56075, Note_on_c, 0, 65, 0
2, 56143, Note_on_c, 0, 58, 0
2, 56235, Note_on_c, 0, 54, 0
2, 57013, Control_c, 0, 64, 127
2, 57245, Note_on_c, 0, 53, 74
2, 57345, Control_c, 0, 64, 0
2, 58132, Note_on_c, 0, 85, 87
2, 58154, Note_on_c, 0, 73, 76
2, 58437, Note_on_c, 0, 85, 0
2, 58458, Note_on_c, 0, 73, 0
2, 58575, Note_on_c, 0, 53, 0
2, 58610, Note_on_c, 0, 84, 40
2, 58664, Note_on_c, 0, 72, 34
2, 58855, Note_on_c, 0, 84, 0
2, 58997, Note_on_c, 0, 72, 0
2, 59142, Note_on_c, 0, 82, 45
2, 59328, Control_c, 0, 64, 0
2, 59377, Note_on_c, 0, 82, 0
2, 59509, Note_on_c, 0, 58, 50
2, 59519, Note_on_c, 0, 61, 50
2, 59554, Note_on_c, 0, 84, 97
2, 59556, Note_on_c, 0, 65, 40
2, 59569, Note_on_c, 0, 56, 50
2, 59573, Note_on_c, 0, 72, 95
2, 59754, Note_on_c, 0, 84, 0
2, 59879, Note_on_c, 0, 61, 0
2, 60122, Note_on_c, 0, 65, 0
2, 60193, Note_on_c, 0, 72, 0
2, 60205, Note_on_c, 0, 56, 0
2, 60419, Note_on_c, 0, 58, 0
2, 60474, Note_on_c, 0, 80, 44
2, 60640, Note_on_c, 0, 80, 0
2, 60813, Control_c, 0, 64, 127
2, 60888, Note_on_c, 0, 78, 19
2, 61085, Note_on_c, 0, 78, 0
2, 61356, Control_c, 0, 64, 0
2, 61374, Note_on_c, 0, 39, 33
2, 61441, Note_on_c, 0, 54, 25
2, 61455, Note_on_c, 0, 77, 37
2, 61861, Note_on_c, 0, 39, 0
2, 62092, Note_on_c, 0, 54, 0
2, 62346, Note_on_c, 0, 66, 48
2, 62371, Note_on_c, 0, 70, 58
2, 62608, Note_on_c, 0, 66, 0
2, 62687, Note_on_c, 0, 70, 0
2, 62920, Control_c, 0, 64, 127
2, 62943, Note_on_c, 0, 66, 45
2, 62953, Note_on_c, 0, 70, 61
2, 62982, Control_c, 0, 64, 0
2, 63065, Note_on_c, 0, 66, 0
2, 63088, Note_on_c, 0, 70, 0
2, 63336, Note_on_c, 0, 61, 47
2, 63377, Note_on_c, 0, 58, 48
2, 63398, Note_on_c, 0, 54, 25
2, 63743, Note_on_c, 0, 61, 0
2, 63852, Note_on_c, 0, 58, 0
2, 63877, Note_on_c, 0, 54, 0
2, 63983, Control_c, 0, 64, 127
2, 64045, Control_c, 0, 64, 0
2, 64186, Note_on_c, 0, 49, 67
2, 64345, Note_on_c, 0, 49, 0
2, 64380, Note_on_c, 0, 50, 59
2, 64898, Note_on_c, 0, 50, 0
2, 65143, Note_on_c, 0, 77, 0
2, 65247, Note_on_c, 0, 49, 63
2, 65853, Note_on_c, 0, 70, 73
2, 65900, Note_on_c, 0, 61, 30
2, 66113, Note_on_c, 0, 61, 0
2, 66221, Note_on_c, 0, 70, 0
2, 66321, Note_on_c, 0, 68, 34
2, 66639, Note_on_c, 0, 68, 0
2, 66886, Note_on_c, 0, 66, 41
2, 67032, Note_on_c, 0, 66, 0
2, 67240, Note_on_c, 0, 58, 47
2, 67267, Note_on_c, 0, 66, 48
2, 67271, Note_on_c, 0, 68, 75
2, 67296, Note_on_c, 0, 61, 21
2, 67479, Note_on_c, 0, 49, 0
2, 67504, Note_on_c, 0, 58, 0
2, 67536, Note_on_c, 0, 61, 0
2, 67683, Note_on_c, 0, 68, 0
2, 67860, Note_on_c, 0, 66, 0
2, 67905, Note_on_c, 0, 61, 46
2, 67966, Note_on_c, 0, 49, 50
2, 68018, Note_on_c, 0, 61, 0
2, 68224, Note_on_c, 0, 49, 0
2, 68529, Control_c, 0, 64, 127
2, 68756, Note_on_c, 0, 63, 58
2, 68771, Note_on_c, 0, 48, 55
2, 68800, Control_c, 0, 64, 0
2, 68808, Note_on_c, 0, 58, 55
2, 68833, Note_on_c, 0, 53, 28
2, 68837, Note_on_c, 0, 52, 26
2, 68989, Note_on_c, 0, 53, 0
2, 69563, Note_on_c, 0, 48, 0
2, 69661, Note_on_c, 0, 52, 0
2, 69705, Note_on_c, 0, 36, 50
2, 69805, Note_on_c, 0, 58, 0
2, 69829, Note_on_c, 0, 63, 0
2, 69881, Note_on_c, 0, 36, 0
2, 70119, Note_on_c, 0, 63, 55
2, 70139, Note_on_c, 0, 52, 45
2, 70160, Note_on_c, 0, 48, 37
2, 70162, Note_on_c, 0, 58, 44
2, 70528, Note_on_c, 0, 48, 0
2, 70533, Note_on_c, 0, 52, 0
2, 70551, Note_on_c, 0, 63, 0
2, 70574, Note_on_c, 0, 58, 0
2, 70680, Note_on_c, 0, 63, 33
2, 70720, Note_on_c, 0, 48, 37
2, 70724, Note_on_c, 0, 58, 50
2, 70726, Note_on_c, 0, 52, 36
2, 70895, Note_on_c, 0, 52, 0
2, 70959, Note_on_c, 0, 63, 0
2, 70976, Note_on_c, 0, 58, 0
2, 71412, Note_on_c, 0, 48, 0
2, 71585, Note_on_c, 0, 36, 42
2, 71618, Note_on_c, 0, 63, 63
2, 71645, Note_on_c, 0, 52, 52
2, 71647, Note_on_c, 0, 58, 60
2, 71812, Note_on_c, 0, 52, 0
2, 71891, Note_on_c, 0, 63, 0
2, 71926, Note_on_c, 0, 58, 0
2, 72068, Note_on_c, 0, 48, 28
2, 72163, Note_on_c, 0, 48, 0
2, 72463, Note_on_c, 0, 36, 0
2, 72623, Note_on_c, 0, 39, 42
2, 72916, Note_on_c, 0, 39, 0
2, 72954, Note_on_c, 0, 63, 28
2, 72964, Note_on_c, 0, 56, 73
2, 73018, Note_on_c, 0, 41, 34
2, 73153, Note_on_c, 0, 56, 0
2, 73293, Note_on_c, 0, 57, 33
2, 73565, Note_on_c, 0, 63, 0
2, 73636, Note_on_c, 0, 57, 0
2, 73950, Note_on_c, 0, 56, 73
2, 73960, Note_on_c, 0, 63, 34
2, 74349, Note_on_c, 0, 63, 0
2, 74455, Note_on_c, 0, 56, 0
2, 74559, Note_on_c, 0, 63, 39
2, 74562, Note_on_c, 0, 57, 75
2, 74745, Note_on_c, 0, 57, 0
2, 74842, Note_on_c, 0, 29, 41
2, 74871, Note_on_c, 0, 63, 0
2, 75362, Note_on_c, 0, 41, 0
2, 75466, Note_on_c, 0, 60, 103
2, 75589, Note_on_c, 0, 41, 12
2, 75749, Note_on_c, 0, 60, 0
2, 75780, Note_on_c, 0, 29, 0
2, 75872, Note_on_c, 0, 63, 104
2, 75903, Note_on_c, 0, 41, 0
2, 75932, Control_c, 0, 64, 127
2, 76119, Control_c, 0, 64, 0
2, 76140, Control_c, 0, 64, 127
2, 76350, Note_on_c, 0, 63, 0
2, 76496, Note_on_c, 0, 62, 54
2, 76619, Note_on_c, 0, 62, 0
2, 76766, Control_c, 0, 64, 0
2, 76843, Note_on_c, 0, 34, 45
2, 76889, Note_on_c, 0, 61, 61
2, 77270, Note_on_c, 0, 34, 0
2, 77677, Note_on_c, 0, 61, 0
2, 77779, Note_on_c, 0, 63, 64
2, 78185, Control_c, 0, 64, 127
2, 78279, Note_on_c, 0, 63, 0
2, 78353, Note_on_c, 0, 65, 66
2, 78455, Control_c, 0, 64, 0
2, 78547, Note_on_c, 0, 65, 0
2, 78692, Note_on_c, 0, 46, 22
2, 78719, Note_on_c, 0, 56, 19
2, 78842, Note_on_c, 0, 46, 0
2, 78850, Note_on_c, 0, 56, 0
2, 79123, Control_c, 0, 64, 127
2, 79668, Note_on_c, 0, 65, 55
2, 79693, Note_on_c, 0, 60, 50
2, 79772, Note_on_c, 0, 65, 0
2, 79782, Note_on_c, 0, 60, 0
2, 80415, Control_c, 0, 64, 0
2, 80652, Note_on_c, 0, 71, 79
2, 80664, Note_on_c, 0, 46, 50
2, 80668, Note_on_c, 0, 56, 54
2, 80673, Note_on_c, 0, 62, 78
2, 80677, Note_on_c, 0, 67, 63
2, 80770, Control_c, 0, 64, 127
2, 80933, Note_on_c, 0, 67, 0
2, 80947, Note_on_c, 0, 62, 0
2, 81034, Note_on_c, 0, 56, 0
2, 81076, Note_on_c, 0, 46, 0
2, 81111, Note_on_c, 0, 71, 0
2, 81294, Note_on_c, 0, 66, 57
2, 81548, Note_on_c, 0, 66, 0
2, 81731, Note_on_c, 0, 67, 62
2, 82066, Note_on_c, 0, 67, 0
2, 82243, Note_on_c, 0, 70, 86
2, 82567, Note_on_c, 0, 70, 0
2, 82640, Note_on_c, 0, 56, 45
2, 82646, Control_c, 0, 64, 0
2, 82657, Note_on_c, 0, 67, 30
2, 82680, Note_on_c, 0, 62, 46
2, 82728, Note_on_c, 0, 71, 68
2, 83044, Note_on_c, 0, 71, 0
2, 83144, Note_on_c, 0, 67, 0
2, 83191, Note_on_c, 0, 72, 85
2, 83264, Note_on_c, 0, 62, 0
2, 83314, Control_c, 0, 64, 127
2, 83439, Note_on_c, 0, 56, 0
2, 83472, Note_on_c, 0, 72, 0
2, 83616, Note_on_c, 0, 73, 55
2, 83822, Note_on_c, 0, 73, 0
2, 84142, Note_on_c, 0, 71, 73
2, 84573, Note_on_c, 0, 39, 48
2, 84614, Note_on_c, 0, 71, 0
2, 84629, Control_c, 0, 64, 0
2, 84631, Note_on_c, 0, 54, 28
2, 84637, Note_on_c, 0, 70, 74
2, 85070, Note_on_c, 0, 71, 37
2, 85095, Note_on_c, 0, 70, 0
2, 85128, Note_on_c, 0, 39, 0
2, 85157, Note_on_c, 0, 71, 0
2, 85274, Control_c, 0, 64, 127
2, 85363, Note_on_c, 0, 54, 0
2, 85521, Note_on_c, 0, 70, 62
2, 85885, Note_on_c, 0, 70, 0
2, 86076, Note_on_c, 0, 70, 75
2, 86089, Note_on_c, 0, 82, 82
2, 86303, Note_on_c, 0, 70, 0
2, 86314, Note_on_c, 0, 82, 0
2, 86422, Control_c, 0, 64, 0
2, 86983, Note_on_c, 0, 76, 96
2, 86990, Note_on_c, 0, 55, 80
2, 86994, Note_on_c, 0, 81, 84
2, 86998, Note_on_c, 0, 61, 69
2, 87000, Note_on_c, 0, 69, 87
2, 87004, Note_on_c, 0, 66, 76
2, 87324, Control_c, 0, 64, 127
2, 87834, Note_on_c, 0, 81, 0
2, 87849, Note_on_c, 0, 69, 0
2, 87884, Note_on_c, 0, 55, 0
2, 87917, Note_on_c, 0, 76, 0
2, 87936, Note_on_c, 0, 66, 0
2, 88104, Note_on_c, 0, 61, 0
2, 88356, Note_on_c, 0, 80, 64
2, 88366, Control_c, 0, 64, 0
2, 88369, Note_on_c, 0, 65, 62
2, 88379, Note_on_c, 0, 60, 58
2, 88402, Note_on_c, 0, 68, 39
2, 88410, Note_on_c, 0, 54, 31
2, 88421, Note_on_c, 0, 75, 46
2, 88473, Note_on_c, 0, 68, 0
2, 88498, Note_on_c, 0, 75, 0
2, 88583, Note_on_c, 0, 80, 0
2, 88884, Note_on_c, 0, 73, 76
2, 88889, Note_on_c, 0, 85, 90
2, 89130, Note_on_c, 0, 73, 0
2, 89165, Note_on_c, 0, 85, 0
2, 89307, Note_on_c, 0, 65, 0
2, 89325, Note_on_c, 0, 84, 56
2, 89354, Note_on_c, 0, 72, 55
2, 89504, Note_on_c, 0, 84, 0
2, 89573, Note_on_c, 0, 72, 0
2, 89685, Note_on_c, 0, 60, 0
2, 89783, Control_c, 0, 64, 127
2, 89870, Note_on_c, 0, 82, 30
2, 89889, Note_on_c, 0, 70, 49
2, 90087, Note_on_c, 0, 70, 0
2, 90089, Note_on_c, 0, 82, 0
2, 90159, Control_c, 0, 64, 0
2, 90301, Note_on_c, 0, 60, 57
2, 90340, Note_on_c, 0, 54, 20
2, 90349, Note_on_c, 0, 50, 60
2, 90353, Note_on_c, 0, 84, 43
2, 90384, Note_on_c, 0, 80, 41
2, 90388, Note_on_c, 0, 76, 42
2, 90411, Note_on_c, 0, 54, 0
2, 90422, Note_on_c, 0, 84, 0
2, 90463, Note_on_c, 0, 80, 0
2, 90467, Note_on_c, 0, 76, 0
2, 90578, Note_on_c, 0, 60, 0
2, 90589, Note_on_c, 0, 50, 0
2, 90852, Note_on_c, 0, 54, 0
2, 91285, Note_on_c, 0, 60, 48
2, 91297, Note_on_c, 0, 63, 34
2, 91301, Note_on_c, 0, 54, 33
2, 91391, Note_on_c, 0, 63, 0
2, 91416, Note_on_c, 0, 60, 0
2, 91655, Note_on_c, 0, 54, 0
2, 92239, Note_on_c, 0, 60, 46
2, 92246, Note_on_c, 0, 63, 45
2, 92256, Note_on_c, 0, 53, 38
2, 92289, Note_on_c, 0, 56, 42
2, 92391, Control_c, 0, 64, 127
2, 92537, Control_c, 0, 64, 0
2, 92599, Control_c, 0, 64, 127
2, 92870, Note_on_c, 0, 77, 75
2, 92872, Note_on_c, 0, 65, 79
2, 93242, Note_on_c, 0, 63, 0
2, 93367, Note_on_c, 0, 60, 0
2, 93388, Note_on_c, 0, 65, 0
2, 93404, Note_on_c, 0, 53, 0
2, 93483, Note_on_c, 0, 56, 0
2, 93566, Note_on_c, 0, 77, 0
2, 93587, Note_on_c, 0, 72, 85
2, 93741, Note_on_c, 0, 72, 0
2, 94211, Note_on_c, 0, 43, 39
2, 94213, Note_on_c, 0, 61, 75
2, 94226, Control_c, 0, 64, 0
2, 94259, Note_on_c, 0, 59, 31
2, 94274, Note_on_c, 0, 53, 35
2, 94679, Note_on_c, 0, 59, 0
2, 94767, Note_on_c, 0, 61, 0
2, 94864, Note_on_c, 0, 62, 75
2, 94866, Note_on_c, 0, 59, 59
2, 95018, Control_c, 0, 64, 127
2, 95087, Note_on_c, 0, 62, 0
2, 95216, Note_on_c, 0, 43, 0
2, 95280, Note_on_c, 0, 59, 0
2, 95318, Note_on_c, 0, 53, 0
2, 95665, Control_c, 0, 64, 0
2, 95680, Note_on_c, 0, 65, 64
2, 95698, Note_on_c, 0, 58, 62
2, 95701, Note_on_c, 0, 61, 53
2, 95703, Note_on_c, 0, 54, 53
2, 95730, Note_on_c, 0, 42, 57
2, 95755, Note_on_c, 0, 53, 55
2, 95857, Note_on_c, 0, 54, 0
2, 95956, Control_c, 0, 64, 127
2, 95981, Note_on_c, 0, 58, 0
2, 95998, Note_on_c, 0, 65, 0
2, 96023, Note_on_c, 0, 61, 0
2, 96062, Note_on_c, 0, 42, 0
2, 96148, Note_on_c, 0, 53, 0
2, 96645, Note_on_c, 0, 70, 78
2, 96695, Note_on_c, 0, 60, 37
2, 96703, Note_on_c, 0, 54, 75
2, 96718, Note_on_c, 0, 65, 45
2, 96728, Control_c, 0, 64, 0
2, 96870, Note_on_c, 0, 54, 0
2, 96928, Note_on_c, 0, 60, 0
2, 96982, Note_on_c, 0, 65, 0
2, 96984, Note_on_c, 0, 70, 0
2, 97063, Note_on_c, 0, 68, 28
2, 97169, Note_on_c, 0, 54, 19
2, 97254, Note_on_c, 0, 54, 0
2, 97360, Note_on_c, 0, 68, 0
2, 97541, Control_c, 0, 64, 127
2, 97627, Note_on_c, 0, 66, 20
2, 97791, Control_c, 0, 64, 0
2, 97835, Note_on_c, 0, 66, 0
2, 97947, Note_on_c, 0, 53, 53
2, 97974, Note_on_c, 0, 68, 68
2, 97991, Note_on_c, 0, 63, 64
2, 98001, Note_on_c, 0, 58, 52
2, 98122, Note_on_c, 0, 68, 0
2, 98274, Note_on_c, 0, 63, 0
2, 98500, Control_c, 0, 64, 127
2, 98515, Note_on_c, 0, 58, 0
2, 98687, Control_c, 0, 64, 0
2, 98692, Note_on_c, 0, 53, 0
2, 98902, Note_on_c, 0, 58, 28
2, 98910, Note_on_c, 0, 49, 40
2, 98912, Note_on_c, 0, 61, 45
2, 98983, Note_on_c, 0, 58, 0
2, 98985, Note_on_c, 0, 61, 0
2, 99043, Control_c, 0, 64, 127
2, 99056, Note_on_c, 0, 49, 0
2, 99538, Note_on_c, 0, 52, 58
2, 99549, Note_on_c, 0, 63, 45
2, 99565, Note_on_c, 0, 58, 52
2, 99584, Control_c, 0, 64, 0
2, 99588, Note_on_c, 0, 48, 31
2, 99590, Note_on_c, 0, 36, 33
2, 99773, Note_on_c, 0, 52, 0
2, 99819, Note_on_c, 0, 58, 0
2, 99823, Note_on_c, 0, 48, 0
2, 99863, Note_on_c, 0, 63, 0
2, 100408, Note_on_c, 0, 63, 61
2, 100453, Note_on_c, 0, 52, 55
2, 100455, Note_on_c, 0, 58, 67
2, 100472, Note_on_c, 0, 48, 32
2, 100643, Note_on_c, 0, 52, 0
2, 100738, Note_on_c, 0, 58, 0
2, 100751, Note_on_c, 0, 63, 0
2, 100774, Note_on_c, 0, 48, 0
2, 101335, Note_on_c, 0, 36, 0
2, 101344, Note_on_c, 0, 43, 29
2, 101595, Note_on_c, 0, 43, 0
2, 101722, Note_on_c, 0, 63, 61
2, 101737, Note_on_c, 0, 58, 63
2, 101747, Note_on_c, 0, 52, 52
2, 101758, Note_on_c, 0, 48, 49
2, 101893, Note_on_c, 0, 48, 0
2, 102169, Control_c, 0, 64, 127
2, 102338, Note_on_c, 0, 52, 0
2, 102515, Note_on_c, 0, 63, 0
2, 102612, Note_on_c, 0, 58, 0
2, 102629, Note_on_c, 0, 63, 29
2, 102671, Control_c, 0, 64, 0
2, 102702, Note_on_c, 0, 51, 62
2, 102716, Note_on_c, 0, 29, 43
2, 102718, Note_on_c, 0, 57, 72
2, 102727, Note_on_c, 0, 41, 24
2, 103039, Note_on_c, 0, 63, 0
2, 103080, Note_on_c, 0, 57, 0
2, 103101, Note_on_c, 0, 51, 0
2, 103134, Note_on_c, 0, 41, 0
2, 103157, Note_on_c, 0, 29, 0
2, 103251, Note_on_c, 0, 63, 59
2, 103272, Note_on_c, 0, 51, 67
2, 103290, Note_on_c, 0, 57, 77
2, 103301, Note_on_c, 0, 29, 46
2, 103320, Note_on_c, 0, 41, 68
2, 103422, Note_on_c, 0, 51, 0
2, 103484, Note_on_c, 0, 57, 0
2, 103517, Note_on_c, 0, 41, 0
2, 103559, Note_on_c, 0, 63, 0
2, 103617, Note_on_c, 0, 29, 0
2, 104254, Note_on_c, 0, 63, 74
2, 104268, Note_on_c, 0, 57, 93
2, 104278, Note_on_c, 0, 29, 65
2, 104287, Note_on_c, 0, 51, 77
2, 104312, Note_on_c, 0, 41, 70
2, 104559, Note_on_c, 0, 29, 0
2, 104590, Control_c, 0, 64, 127
2, 104686, Note_on_c, 0, 41, 0
2, 104742, Note_on_c, 0, 51, 0
2, 104853, Note_on_c, 0, 57, 0
2, 105221, Note_on_c, 0, 63, 0
2, 105329, Note_on_c, 0, 47, 41
2, 105429, Note_on_c, 0, 47, 0
2, 105554, Note_on_c, 0, 49, 84
2, 105572, Note_on_c, 0, 61, 95
2, 105591, Control_c, 0, 64, 0
2, 106529, Control_c, 0, 64, 127
2, 106978, Note_on_c, 0, 49, 0
2, 107028, Note_on_c, 0, 56, 64
2, 107053, Note_on_c, 0, 46, 37
2, 107153, Note_on_c, 0, 61, 0
2, 107193, Note_on_c, 0, 56, 0
2, 107322, Control_c, 0, 64, 0
2, 107376, Note_on_c, 0, 46, 0
2, 107471, Note_on_c, 0, 63, 43
2, 107696, Note_on_c, 0, 63, 0
2, 107727, Note_on_c, 0, 64, 76
2, 107894, Note_on_c, 0, 63, 34
2, 107896, Note_on_c, 0, 64, 0
2, 108058, Note_on_c, 0, 61, 77
2, 108120, Note_on_c, 0, 63, 0
2, 108310, Note_on_c, 0, 58, 56
2, 108326, Note_on_c, 0, 61, 0
2, 108929, Note_on_c, 0, 58, 0
2, 109295, Note_on_c, 0, 58, 61
2, 109325, Note_on_c, 0, 46, 32
2, 110217, Note_on_c, 0, 58, 0
2, 110288, Note_on_c, 0, 34, 39
2, 110346, Note_on_c, 0, 46, 0
2, 110404, Note_on_c, 0, 56, 55
2, 110498, Note_on_c, 0, 34, 0
2, 111036, Note_on_c, 0, 29, 24
2, 111068, Note_on_c, 0, 57, 68
2, 111078, Note_on_c, 0, 41, 33
2, 111538, Note_on_c, 0, 57, 0
2, 111552, Note_on_c, 0, 56, 0
2, 111586, Note_on_c, 0, 29, 0
2, 111671, Note_on_c, 0, 41, 0
2, 112035, Note_on_c, 0, 57, 64
2, 112049, Note_on_c, 0, 41, 37
2, 112349, Note_on_c, 0, 57, 0
2, 112933, Note_on_c, 0, 41, 0
2, 112963, Note_on_c, 0, 29, 48
2, 113351, Note_on_c, 0, 63, 64
2, 113354, Note_on_c, 0, 56, 73
2, 113385, Note_on_c, 0, 41, 46
2, 113528, Note_on_c, 0, 56, 0
2, 113620, Note_on_c, 0, 57, 23
2, 113938, Note_on_c, 0, 63, 0
2, 114023, Note_on_c, 0, 41, 0
2, 114040, Note_on_c, 0, 57, 0
2, 114283, Note_on_c, 0, 63, 71
2, 114306, Note_on_c, 0, 57, 82
2, 114308, Note_on_c, 0, 41, 61
2, 114371, Note_on_c, 0, 87, 82
2, 114452, Note_on_c, 0, 29, 0
2, 114458, Note_on_c, 0, 57, 0
2, 114468, Note_on_c, 0, 41, 0
2, 114478, Note_on_c, 0, 87, 0
2, 114502, Note_on_c, 0, 63, 0
2, 114837, Note_on_c, 0, 88, 93
2, 114952, Note_on_c, 0, 88, 0
2, 115297, Note_on_c, 0, 65, 54
2, 115299, Note_on_c, 0, 89, 109
2, 115313, Note_on_c, 0, 61, 56
2, 115331, Note_on_c, 0, 60, 59
2, 116115, Note_on_c, 0, 89, 0
2, 116244, Note_on_c, 0, 88, 55
2, 116315, Note_on_c, 0, 88, 0
2, 116360, Note_on_c, 0, 60, 0
2, 116361, Note_on_c, 0, 65, 0
2, 116363, Note_on_c, 0, 61, 0
2, 116757, Note_on_c, 0, 89, 91
2, 116766, Note_on_c, 0, 65, 54
2, 116787, Note_on_c, 0, 61, 43
2, 116790, Note_on_c, 0, 60, 47
2, 116832, Note_on_c, 0, 89, 0
2, 116846, Note_on_c, 0, 60, 0
2, 116859, Note_on_c, 0, 65, 0
2, 116873, Note_on_c, 0, 61, 0
2, 117670, Note_on_c, 0, 70, 91
2, 117691, Note_on_c, 0, 65, 70
2, 117702, Note_on_c, 0, 61, 59
2, 117707, Note_on_c, 0, 60, 74
2, 117963, Note_on_c, 0, 65, 0
2, 117969, Note_on_c, 0, 60, 0
2, 118014, Note_on_c, 0, 61, 0
2, 118441, Note_on_c, 0, 70, 0
2, 118470, Note_on_c, 0, 72, 63
2, 118598, Note_on_c, 0, 70, 44
2, 118655, Note_on_c, 0, 72, 0
2, 118776, Note_on_c, 0, 69, 63
2, 118861, Note_on_c, 0, 70, 0
2, 118941, Note_on_c, 0, 69, 0
2, 119075, Note_on_c, 0, 70, 80
2, 119645, Note_on_c, 0, 73, 67
2, 119661, Note_on_c, 0, 70, 0
2, 119855, Note_on_c, 0, 73, 0
2, 121537, Note_on_c, 0, 65, 51
2, 121560, Note_on_c, 0, 61, 34
2, 121563, Note_on_c, 0, 58, 32
2, 121617, Note_on_c, 0, 65, 0
2, 121632, Note_on_c, 0, 61, 0
2, 121656, Note_on_c, 0, 58, 0
2, 122024, Note_on_c, 0, 75, 76
2, 122181, Note_on_c, 0, 75, 0
2, 122301, Note_on_c, 0, 76, 104
2, 122437, Note_on_c, 0, 76, 0
2, 122553, Note_on_c, 0, 77, 100
2, 122776, Note_on_c, 0, 78, 94
2, 122811, Note_on_c, 0, 77, 0
2, 122854, Note_on_c, 0, 64, 76
2, 122881, Note_on_c, 0, 60, 65
2, 122889, Note_on_c, 0, 55, 31
2, 122909, Note_on_c, 0, 64, 0
2, 122917, Note_on_c, 0, 78, 0
2, 122936, Note_on_c, 0, 60, 0
2, 122952, Note_on_c, 0, 55, 0
2, 123003, Note_on_c, 0, 79, 70
2, 123174, Note_on_c, 0, 79, 0
2, 123435, Note_on_c, 0, 76, 75
2, 123579, Note_on_c, 0, 76, 0
2, 123843, Note_on_c, 0, 72, 44
2, 124069, Note_on_c, 0, 72, 0
2, 124349, Note_on_c, 0, 67, 27
2, 124435, Note_on_c, 0, 67, 0
2, 125294, Note_on_c, 0, 48, 21
2, 125304, Note_on_c, 0, 58, 26
2, 125422, Note_on_c, 0, 48, 0
2, 125438, Note_on_c, 0, 58, 0
2, 125841, Note_on_c, 0, 72, 24
2, 125928, Note_on_c, 0, 72, 0
2, 126253, Note_on_c, 0, 73, 95
2, 126401, Note_on_c, 0, 73, 0
2, 126509, Note_on_c, 0, 74, 107
2, 126680, Note_on_c, 0, 74, 0
2, 126753, Note_on_c, 0, 63, 32
2, 126755, Note_on_c, 0, 75, 93
2, 126758, Note_on_c, 0, 60, 39
2, 126795, Note_on_c, 0, 54, 28
2, 126942, Note_on_c, 0, 75, 0
2, 127057, Note_on_c, 0, 74, 82
2, 127211, Note_on_c, 0, 74, 0
2, 127273, Note_on_c, 0, 73, 61
2, 127438, Note_on_c, 0, 73, 0
2, 127496, Note_on_c, 0, 72, 41
2, 127523, Note_on_c, 0, 63, 0
2, 127699, Note_on_c, 0, 72, 0
2, 127987, Note_on_c, 0, 60, 0
2, 128145, Note_on_c, 0, 69, 77
2, 128262, Note_on_c, 0, 69, 0
2, 128657, Note_on_c, 0, 67, 74
2, 128774, Note_on_c, 0, 67, 0
2, 129128, Note_on_c, 0, 66, 68
2, 129547, Note_on_c, 0, 66, 0
2, 129577, Note_on_c, 0, 54, 0
2, 129597, Note_on_c, 0, 65, 32
2, 129925, Note_on_c, 0, 65, 0
2, 130093, Note_on_c, 0, 63, 54
2, 130387, Note_on_c, 0, 63, 0
2, 130549, Note_on_c, 0, 61, 61
2, 131080, Note_on_c, 0, 61, 0
2, 131083, Note_on_c, 0, 57, 34
2, 131333, Note_on_c, 0, 57, 0
2, 131529, Note_on_c, 0, 60, 72
2, 132005, Note_on_c, 0, 60, 0
2, 132065, Note_on_c, 0, 57, 33
2, 132411, Note_on_c, 0, 57, 0
2, 132525, Note_on_c, 0, 53, 48
2, 132550, Note_on_c, 0, 58, 21
2, 132888, Note_on_c, 0, 53, 0
2, 132918, Note_on_c, 0, 58, 0
2, 132998, Note_on_c, 0, 60, 74
2, 133377, Note_on_c, 0, 60, 0
2, 133443, Note_on_c, 0, 61, 75
2, 133672, Note_on_c, 0, 61, 0
2, 133726, Note_on_c, 0, 65, 73
2, 133919, Note_on_c, 0, 65, 0
2, 134014, Note_on_c, 0, 69, 97
2, 134040, Note_on_c, 0, 56, 68
2, 134052, Note_on_c, 0, 46, 67
2, 134318, Note_on_c, 0, 69, 0
2, 134341, Note_on_c, 0, 72, 98
2, 134392, Note_on_c, 0, 46, 0
2, 134451, Note_on_c, 0, 56, 0
2, 134595, Note_on_c, 0, 72, 0
2, 134633, Note_on_c, 0, 69, 68
2, 134851, Note_on_c, 0, 69, 0
2, 134920, Note_on_c, 0, 70, 83
2, 135156, Note_on_c, 0, 70, 0
2, 135221, Note_on_c, 0, 65, 48
2, 135224, Note_on_c, 0, 61, 51
2, 135229, Note_on_c, 0, 72, 60
2, 135285, Note_on_c, 0, 60, 28
2, 135439, Note_on_c, 0, 72, 0
2, 135509, Note_on_c, 0, 73, 58
2, 135675, Note_on_c, 0, 73, 0
2, 135865, Note_on_c, 0, 77, 41
2, 135999, Note_on_c, 0, 77, 0
2, 136467, Note_on_c, 0, 61, 0
2, 136587, Note_on_c, 0, 65, 0
2, 136665, Note_on_c, 0, 60, 0
2, 136885, Note_on_c, 0, 65, 44
2, 136889, Note_on_c, 0, 61, 55
2, 136918, Note_on_c, 0, 60, 27
2, 137521, Note_on_c, 0, 60, 0
2, 137657, Note_on_c, 0, 65, 0
2, 137661, Note_on_c, 0, 61, 0
2, 137849, Note_on_c, 0, 82, 54
2, 137999, Note_on_c, 0, 82, 0
2, 138145, Note_on_c, 0, 87, 64
2, 138289, Note_on_c, 0, 87, 0
2, 138395, Note_on_c, 0, 87, 39
2, 138455, Note_on_c, 0, 67, 29
2, 138481, Note_on_c, 0, 88, 76
2, 138491, Note_on_c, 0, 87, 0
2, 138497, Note_on_c, 0, 63, 22
2, 138505, Note_on_c, 0, 62, 22
2, 138509, Note_on_c, 0, 58, 30
2, 138573, Note_on_c, 0, 62, 0
2, 138590, Note_on_c, 0, 67, 0
2, 138619, Note_on_c, 0, 63, 0
2, 138651, Note_on_c, 0, 58, 0
2, 138758, Note_on_c, 0, 88, 0
2, 138936, Note_on_c, 0, 89, 103
2, 139245, Note_on_c, 0, 89, 0
2, 139390, Note_on_c, 0, 86, 81
2, 139767, Note_on_c, 0, 86, 0
2, 139853, Note_on_c, 0, 87, 81
2, 139870, Note_on_c, 0, 67, 41
2, 139893, Note_on_c, 0, 63, 34
2, 139921, Note_on_c, 0, 58, 20
2, 139929, Note_on_c, 0, 62, 29
2, 140011, Note_on_c, 0, 62, 0
2, 140062, Note_on_c, 0, 67, 0
2, 140096, Note_on_c, 0, 63, 0
2, 140141, Note_on_c, 0, 58, 0
2, 140173, Note_on_c, 0, 87, 0
2, 140294, Note_on_c, 0, 82, 67
2, 140497, Note_on_c, 0, 82, 0
2, 140742, Note_on_c, 0, 78, 57
2, 140760, Note_on_c, 0, 67, 36
2, 140774, Note_on_c, 0, 62, 44
2, 140785, Note_on_c, 0, 58, 26
2, 140787, Note_on_c, 0, 63, 28
2, 140958, Note_on_c, 0, 78, 0
2, 141059, Note_on_c, 0, 62, 0
2, 141065, Note_on_c, 0, 67, 0
2, 141099, Note_on_c, 0, 63, 0
2, 141222, Note_on_c, 0, 77, 28
2, 141323, Note_on_c, 0, 58, 0
2, 141552, Note_on_c, 0, 77, 0
2, 141681, Note_on_c, 0, 75, 85
2, 141943, Note_on_c, 0, 75, 0
2, 142075, Note_on_c, 0, 63, 46
2, 142081, Note_on_c, 0, 66, 36
2, 142104, Note_on_c, 0, 57, 48
2, 142110, Note_on_c, 0, 73, 49
2, 142264, Note_on_c, 0, 57, 0
2, 142328, Note_on_c, 0, 66, 0
2, 142408, Note_on_c, 0, 63, 0
2, 142475, Note_on_c, 0, 73, 0
2, 142547, Note_on_c, 0, 75, 56
2, 142662, Note_on_c, 0, 73, 36
2, 142789, Note_on_c, 0, 75, 0
2, 142862, Note_on_c, 0, 72, 22
2, 142883, Note_on_c, 0, 73, 0
2, 143376, Note_on_c, 0, 72, 0
2, 143592, Note_on_c, 0, 66, 73
2, 143605, Note_on_c, 0, 70, 76
2, 143625, Note_on_c, 0, 63, 42
2, 143641, Note_on_c, 0, 57, 37
2, 143710, Note_on_c, 0, 57, 0
2, 143715, Note_on_c, 0, 66, 0
2, 143739, Note_on_c, 0, 63, 0
2, 144021, Note_on_c, 0, 70, 0
2, 144091, Note_on_c, 0, 69, 36
2, 144475, Note_on_c, 0, 69, 0
2, 144590, Note_on_c, 0, 70, 75
2, 144945, Note_on_c, 0, 70, 0
2, 145029, Note_on_c, 0, 72, 92
2, 145427, Note_on_c, 0, 72, 0
2, 145501, Note_on_c, 0, 61, 73
2, 145504, Note_on_c, 0, 65, 74
2, 145505, Note_on_c, 0, 73, 58
2, 145521, Note_on_c, 0, 60, 67
2, 145574, Note_on_c, 0, 60, 0
2, 145587, Note_on_c, 0, 65, 0
2, 145667, Note_on_c, 0, 61, 0
2, 145873, Note_on_c, 0, 73, 0
2, 146009, Note_on_c, 0, 75, 50
2, 146040, Note_on_c, 0, 63, 37
2, 146333, Note_on_c, 0, 75, 0
2, 146368, Note_on_c, 0, 63, 0
2, 146885, Note_on_c, 0, 73, 56
2, 146904, Note_on_c, 0, 61, 44
2, 147145, Note_on_c, 0, 61, 0
2, 147193, Note_on_c, 0, 73, 0
2, 147359, Note_on_c, 0, 63, 76
2, 147374, Note_on_c, 0, 75, 75
2, 147563, Note_on_c, 0, 63, 0
2, 147580, Note_on_c, 0, 75, 0
2, 147809, Note_on_c, 0, 65, 72
2, 147824, Note_on_c, 0, 77, 87
2, 147827, Note_on_c, 0, 61, 49
2, 147853, Note_on_c, 0, 60, 55
2, 148057, Note_on_c, 0, 61, 0
2, 148080, Note_on_c, 0, 60, 0
2, 148169, Note_on_c, 0, 77, 0
2, 148240, Note_on_c, 0, 65, 0
2, 148329, Note_on_c, 0, 77, 64
2, 148345, Note_on_c, 0, 65, 26
2, 148495, Note_on_c, 0, 65, 0
2, 148588, Note_on_c, 0, 77, 0
2, 148774, Note_on_c, 0, 70, 58
2, 148809, Note_on_c, 0, 77, 11
2, 149147, Note_on_c, 0, 70, 0
2, 149182, Note_on_c, 0, 77, 0
2, 149305, Note_on_c, 0, 77, 37
2, 149320, Note_on_c, 0, 71, 67
2, 149326, Note_on_c, 0, 65, 38
2, 149329, Note_on_c, 0, 43, 47
2, 149428, Note_on_c, 0, 43, 0
2, 149480, Note_on_c, 0, 77, 0
2, 149489, Note_on_c, 0, 71, 0
2, 149582, Note_on_c, 0, 65, 0
2, 150241, Note_on_c, 0, 43, 61
2, 150440, Note_on_c, 0, 43, 0
2, 151213, Note_on_c, 0, 67, 96
2, 151216, Note_on_c, 0, 45, 71
2, 151217, Note_on_c, 0, 60, 104
2, 151493, Note_on_c, 0, 60, 0
2, 151501, Note_on_c, 0, 67, 0
2, 151622, Note_on_c, 0, 45, 0
2, 152160, Note_on_c, 0, 61, 110
2, 152165, Note_on_c, 0, 46, 73
2, 152174, Note_on_c, 0, 67, 96
2, 152486, Note_on_c, 0, 67, 0
2, 152525, Note_on_c, 0, 61, 0
2, 152555, Note_on_c, 0, 46, 0
2, 152584, Note_on_c, 0, 67, 49
2, 152598, Note_on_c, 0, 47, 38
2, 152611, Note_on_c, 0, 62, 79
2, 152670, Note_on_c, 0, 47, 0
2, 153065, Note_on_c, 0, 62, 0
2, 153115, Note_on_c, 0, 59, 71
2, 153169, Note_on_c, 0, 59, 0
2, 153408, Note_on_c, 0, 67, 0
2, 153576, Note_on_c, 0, 63, 69
2, 153993, Note_on_c, 0, 63, 0
2, 154067, Note_on_c, 0, 64, 63
2, 154070, Note_on_c, 0, 36, 44
2, 154104, Note_on_c, 0, 52, 22
2, 154195, Note_on_c, 0, 36, 0
2, 154363, Note_on_c, 0, 52, 0
2, 154379, Note_on_c, 0, 64, 0
2, 154526, Note_on_c, 0, 67, 38
2, 154830, Note_on_c, 0, 67, 0
2, 155032, Note_on_c, 0, 70, 84
2, 155326, Note_on_c, 0, 70, 0
2, 155504, Note_on_c, 0, 73, 63
2, 155525, Note_on_c, 0, 61, 73
2, 155529, Note_on_c, 0, 67, 48
2, 155537, Note_on_c, 0, 64, 41
2, 155544, Note_on_c, 0, 70, 34
2, 155757, Note_on_c, 0, 67, 0
2, 155848, Note_on_c, 0, 73, 0
2, 155886, Note_on_c, 0, 61, 0
2, 155904, Note_on_c, 0, 64, 0
2, 155945, Note_on_c, 0, 70, 0
2, 156009, Note_on_c, 0, 75, 70
2, 156012, Note_on_c, 0, 64, 57
2, 156024, Note_on_c, 0, 63, 62
2, 156045, Note_on_c, 0, 67, 35
2, 156064, Note_on_c, 0, 70, 20
2, 156240, Note_on_c, 0, 67, 0
2, 156243, Note_on_c, 0, 75, 0
2, 156254, Note_on_c, 0, 64, 0
2, 156275, Note_on_c, 0, 63, 0
2, 156313, Note_on_c, 0, 70, 0
2, 156432, Note_on_c, 0, 72, 71
2, 156445, Note_on_c, 0, 62, 55
2, 156462, Note_on_c, 0, 64, 31
2, 156619, Note_on_c, 0, 62, 0
2, 156688, Note_on_c, 0, 72, 0
2, 156793, Note_on_c, 0, 64, 0
2, 156955, Note_on_c, 0, 48, 33
2, 157183, Note_on_c, 0, 48, 0
2, 157424, Note_on_c, 0, 58, 72
2, 157427, Note_on_c, 0, 69, 75
2, 157440, Note_on_c, 0, 61, 53
2, 157445, Note_on_c, 0, 57, 58
2, 157485, Note_on_c, 0, 64, 51
2, 157651, Note_on_c, 0, 69, 0
2, 157719, Note_on_c, 0, 58, 0
2, 157733, Note_on_c, 0, 64, 0
2, 157741, Note_on_c, 0, 61, 0
2, 157841, Note_on_c, 0, 57, 0
2, 157942, Note_on_c, 0, 56, 45
2, 158293, Note_on_c, 0, 56, 0
2, 158345, Note_on_c, 0, 58, 48
2, 158350, Note_on_c, 0, 55, 48
2, 158351, Note_on_c, 0, 61, 43
2, 158361, Note_on_c, 0, 67, 55
2, 158381, Note_on_c, 0, 64, 68
2, 159352, Control_c, 0, 64, 127
2, 159931, Note_on_c, 0, 48, 74
2, 159987, Note_on_c, 0, 58, 0
2, 160133, Note_on_c, 0, 55, 0
2, 160163, Note_on_c, 0, 67, 0
2, 160184, Note_on_c, 0, 48, 0
2, 160200, Note_on_c, 0, 64, 0
2, 160249, Note_on_c, 0, 61, 0
2, 160790, Note_on_c, 0, 60, 37
2, 161133, Control_c, 0, 64, 0
2, 161134, Note_on_c, 0, 60, 0
2, 161225, Note_on_c, 0, 53, 79
2, 161232, Note_on_c, 0, 70, 113
2, 161233, Note_on_c, 0, 75, 103
2, 161235, Note_on_c, 0, 79, 103
2, 161238, Note_on_c, 0, 63, 88
2, 161257, Note_on_c, 0, 58, 63
2, 162238, Control_c, 0, 64, 127
2, 162321, Note_on_c, 0, 79, 0
2, 162395, Note_on_c, 0, 75, 0
2, 162400, Note_on_c, 0, 70, 0
2, 162573, Note_on_c, 0, 63, 0
2, 162761, Note_on_c, 0, 75, 88
2, 162776, Note_on_c, 0, 63, 72
2, 162777, Note_on_c, 0, 70, 92
2, 162782, Note_on_c, 0, 67, 83
2, 162832, Control_c, 0, 64, 0
2, 163039, Control_c, 0, 64, 127
2, 163193, Note_on_c, 0, 75, 0
2, 163269, Note_on_c, 0, 70, 0
2, 163318, Note_on_c, 0, 63, 0
2, 163341, Note_on_c, 0, 67, 0
2, 163681, Control_c, 0, 64, 0
2, 163689, Note_on_c, 0, 74, 81
2, 163699, Note_on_c, 0, 70, 81
2, 163707, Note_on_c, 0, 63, 68
2, 163710, Note_on_c, 0, 67, 80
2, 164067, Control_c, 0, 64, 127
2, 164288, Note_on_c, 0, 63, 0
2, 164312, Note_on_c, 0, 53, 0
2, 164408, Note_on_c, 0, 74, 0
2, 164445, Note_on_c, 0, 58, 0
2, 164497, Note_on_c, 0, 67, 0
2, 164515, Note_on_c, 0, 70, 0
2, 164715, Note_on_c, 0, 53, 52
2, 164790, Note_on_c, 0, 53, 0
2, 164998, Control_c, 0, 64, 0
2, 165137, Note_on_c, 0, 73, 45
2, 165141, Note_on_c, 0, 61, 62
2, 165152, Note_on_c, 0, 57, 65
2, 165158, Note_on_c, 0, 68, 60
2, 165160, Note_on_c, 0, 65, 50
2, 165173, Note_on_c, 0, 51, 51
2, 165317, Note_on_c, 0, 57, 0
2, 165320, Note_on_c, 0, 61, 0
2, 165331, Note_on_c, 0, 65, 0
2, 165353, Note_on_c, 0, 51, 0
2, 165373, Note_on_c, 0, 73, 0
2, 165382, Note_on_c, 0, 68, 0
2, 166069, Note_on_c, 0, 73, 53
2, 166081, Note_on_c, 0, 61, 65
2, 166095, Note_on_c, 0, 65, 60
2, 166099, Note_on_c, 0, 68, 49
2, 166112, Note_on_c, 0, 57, 45
2, 166121, Note_on_c, 0, 51, 32
2, 166907, Control_c, 0, 64, 127
2, 167091, Note_on_c, 0, 57, 0
2, 167115, Note_on_c, 0, 51, 0
2, 167182, Note_on_c, 0, 65, 0
2, 167214, Note_on_c, 0, 68, 0
2, 167217, Note_on_c, 0, 61, 0
2, 167289, Note_on_c, 0, 73, 0
2, 167577, Note_on_c, 0, 72, 74
2, 167589, Note_on_c, 0, 61, 72
2, 167597, Note_on_c, 0, 68, 57
2, 167601, Note_on_c, 0, 65, 66
2, 167632, Note_on_c, 0, 57, 62
2, 167646, Note_on_c, 0, 51, 36
2, 167801, Note_on_c, 0, 51, 0
2, 167811, Note_on_c, 0, 57, 0
2, 167813, Note_on_c, 0, 61, 0
2, 167862, Note_on_c, 0, 65, 0
2, 167981, Note_on_c, 0, 72, 0
2, 168041, Note_on_c, 0, 68, 0
2, 168912, Control_c, 0, 64, 0
2, 169049, Note_on_c, 0, 82, 82
2, 169054, Note_on_c, 0, 54, 46
2, 169056, Note_on_c, 0, 60, 50
2, 169057, Note_on_c, 0, 65, 48
2, 169059, Note_on_c, 0, 77, 82
2, 169133, Note_on_c, 0, 65, 0
2, 169193, Note_on_c, 0, 60, 0
2, 169240, Note_on_c, 0, 54, 0
2, 169393, Note_on_c, 0, 77, 0
2, 169409, Note_on_c, 0, 82, 0
2, 169936, Note_on_c, 0, 82, 35
2, 169939, Note_on_c, 0, 77, 59
2, 170348, Note_on_c, 0, 82, 0
2, 170379, Note_on_c, 0, 77, 0
2, 170441, Note_on_c, 0, 76, 51
2, 170635, Note_on_c, 0, 76, 0
2, 170872, Note_on_c, 0, 82, 52
2, 170894, Note_on_c, 0, 77, 37
2, 170969, Note_on_c, 0, 77, 0
2, 170998, Note_on_c, 0, 82, 0
2, 171427, Note_on_c, 0, 65, 43
2, 171443, Note_on_c, 0, 54, 30
2, 171461, Note_on_c, 0, 60, 42
2, 171605, Note_on_c, 0, 65, 0
2, 171632, Note_on_c, 0, 60, 0
2, 171685, Note_on_c, 0, 54, 0
2, 172430, Note_on_c, 0, 60, 52
2, 172438, Note_on_c, 0, 53, 40
2, 172440, Note_on_c, 0, 63, 56
2, 172477, Note_on_c, 0, 56, 44
2, 173327, Note_on_c, 0, 85, 100
2, 173334, Note_on_c, 0, 73, 96
2, 173664, Note_on_c, 0, 73, 0
2, 173689, Note_on_c, 0, 85, 0
2, 173773, Note_on_c, 0, 84, 73
2, 173808, Note_on_c, 0, 72, 68
2, 174006, Note_on_c, 0, 84, 0
2, 174040, Note_on_c, 0, 60, 0
2, 174043, Note_on_c, 0, 63, 0
2, 174113, Note_on_c, 0, 72, 0
2, 174228, Note_on_c, 0, 56, 0
2, 174261, Note_on_c, 0, 82, 47
2, 174443, Note_on_c, 0, 82, 0
2, 174683, Note_on_c, 0, 63, 46
2, 174702, Note_on_c, 0, 84, 95
2, 174704, Note_on_c, 0, 72, 97
2, 174721, Note_on_c, 0, 60, 46
2, 174757, Note_on_c, 0, 56, 23
2, 174821, Note_on_c, 0, 53, 0
2, 174846, Note_on_c, 0, 84, 0
2, 175371, Note_on_c, 0, 72, 0
2, 175390, Note_on_c, 0, 63, 0
2, 175595, Note_on_c, 0, 80, 82
2, 175625, Note_on_c, 0, 53, 35
2, 175773, Note_on_c, 0, 53, 0
2, 175801, Note_on_c, 0, 80, 0
2, 175950, Note_on_c, 0, 60, 0
2, 175960, Note_on_c, 0, 56, 0
2, 176149, Note_on_c, 0, 53, 53
2, 176328, Note_on_c, 0, 53, 0
2, 176603, Note_on_c, 0, 61, 54
2, 176614, Note_on_c, 0, 66, 68
2, 176616, Note_on_c, 0, 77, 75
2, 176631, Note_on_c, 0, 51, 48
2, 176638, Note_on_c, 0, 70, 59
2, 177405, Note_on_c, 0, 66, 0
2, 177429, Note_on_c, 0, 70, 0
2, 177488, Note_on_c, 0, 77, 0
2, 177587, Note_on_c, 0, 75, 48
2, 177601, Note_on_c, 0, 66, 21
2, 177624, Note_on_c, 0, 70, 23
2, 177683, Note_on_c, 0, 61, 0
2, 177685, Note_on_c, 0, 70, 0
2, 177705, Note_on_c, 0, 66, 0
2, 177720, Note_on_c, 0, 51, 0
2, 177741, Note_on_c, 0, 75, 0
2, 178070, Note_on_c, 0, 58, 55
2, 178224, Note_on_c, 0, 58, 0
2, 178541, Note_on_c, 0, 66, 24
2, 179038, Note_on_c, 0, 66, 0
2, 179048, Note_on_c, 0, 70, 85
2, 179097, Note_on_c, 0, 61, 53
2, 179333, Note_on_c, 0, 61, 0
2, 179501, Note_on_c, 0, 70, 0
2, 179544, Note_on_c, 0, 65, 55
2, 179987, Note_on_c, 0, 65, 0
2, 180038, Note_on_c, 0, 66, 75
2, 180464, Note_on_c, 0, 49, 28
2, 180661, Note_on_c, 0, 49, 0
2, 180973, Note_on_c, 0, 70, 91
2, 181099, Note_on_c, 0, 66, 0
2, 181393, Note_on_c, 0, 70, 0
2, 181454, Note_on_c, 0, 65, 21
2, 181885, Note_on_c, 0, 65, 0
2, 181929, Note_on_c, 0, 66, 83
2, 182845, Note_on_c, 0, 70, 86
2, 182904, Note_on_c, 0, 58, 64
2, 182942, Note_on_c, 0, 49, 37
2, 182973, Note_on_c, 0, 66, 0
2, 182995, Note_on_c, 0, 58, 0
2, 182997, Note_on_c, 0, 49, 0
2, 183350, Note_on_c, 0, 65, 55
2, 183768, Note_on_c, 0, 65, 0
2, 183843, Note_on_c, 0, 66, 88
2, 183854, Note_on_c, 0, 58, 70
2, 183886, Note_on_c, 0, 48, 55
2, 183950, Note_on_c, 0, 70, 0
2, 184271, Note_on_c, 0, 66, 0
2, 184286, Note_on_c, 0, 58, 0
2, 184297, Note_on_c, 0, 48, 0
2, 184334, Note_on_c, 0, 67, 77
2, 184809, Note_on_c, 0, 70, 67
2, 184824, Note_on_c, 0, 67, 0
2, 185017, Note_on_c, 0, 70, 0
2, 185257, Note_on_c, 0, 72, 70
2, 185478, Note_on_c, 0, 72, 0
2, 185705, Note_on_c, 0, 73, 77
2, 186001, Note_on_c, 0, 73, 0
2, 186179, Note_on_c, 0, 75, 85
2, 186181, Note_on_c, 0, 70, 79
2, 186184, Note_on_c, 0, 68, 77
2, 186195, Note_on_c, 0, 64, 90
2, 186201, Note_on_c, 0, 63, 57
2, 186524, Note_on_c, 0, 64, 0
2, 186545, Note_on_c, 0, 75, 0
2, 186566, Note_on_c, 0, 63, 0
2, 186569, Note_on_c, 0, 68, 0
2, 186595, Note_on_c, 0, 70, 0
2, 186715, Note_on_c, 0, 61, 59
2, 187027, Note_on_c, 0, 61, 0
2, 187136, Note_on_c, 0, 63, 48
2, 187150, Note_on_c, 0, 75, 79
2, 187160, Note_on_c, 0, 64, 95
2, 187161, Note_on_c, 0, 70, 75
2, 187173, Note_on_c, 0, 68, 57
2, 187280, Note_on_c, 0, 63, 0
2, 187509, Note_on_c, 0, 75, 0
2, 187521, Note_on_c, 0, 70, 0
2, 187534, Note_on_c, 0, 64, 0
2, 187571, Note_on_c, 0, 68, 0
2, 187669, Note_on_c, 0, 73, 40
2, 187841, Note_on_c, 0, 73, 0
2, 188158, Note_on_c, 0, 72, 68
2, 188169, Note_on_c, 0, 63, 61
2, 188176, Note_on_c, 0, 66, 61
2, 188185, Note_on_c, 0, 69, 55
2, 188480, Note_on_c, 0, 69, 0
2, 188486, Note_on_c, 0, 66, 0
2, 188529, Note_on_c, 0, 63, 0
2, 188541, Note_on_c, 0, 72, 0
2, 188702, Note_on_c, 0, 57, 58
2, 188942, Note_on_c, 0, 57, 0
2, 189205, Note_on_c, 0, 63, 38
2, 189582, Note_on_c, 0, 63, 0
2, 189643, Note_on_c, 0, 41, 70
2, 189809, Note_on_c, 0, 41, 0
2, 190589, Note_on_c, 0, 72, 104
2, 190912, Note_on_c, 0, 72, 0
2, 191065, Note_on_c, 0, 75, 103
2, 191493, Note_on_c, 0, 75, 0
2, 191545, Note_on_c, 0, 73, 78
2, 191782, Note_on_c, 0, 73, 0
2, 191998, Note_on_c, 0, 72, 93
2, 192003, Note_on_c, 0, 61, 46
2, 192011, Note_on_c, 0, 65, 41
2, 192015, Note_on_c, 0, 60, 48
2, 192301, Note_on_c, 0, 72, 0
2, 192349, Note_on_c, 0, 73, 30
2, 192456, Note_on_c, 0, 72, 55
2, 192600, Note_on_c, 0, 73, 0
2, 192654, Note_on_c, 0, 72, 0
2, 192661, Note_on_c, 0, 69, 54
2, 192725, Note_on_c, 0, 65, 0
2, 192771, Note_on_c, 0, 60, 0
2, 192977, Note_on_c, 0, 61, 0
2, 193009, Note_on_c, 0, 69, 0
2, 193507, Note_on_c, 0, 60, 74
2, 193509, Note_on_c, 0, 72, 124
2, 193513, Note_on_c, 0, 61, 54
2, 193515, Note_on_c, 0, 65, 69
2, 194155, Note_on_c, 0, 65, 0
2, 194261, Note_on_c, 0, 69, 75
2, 194376, Note_on_c, 0, 72, 0
2, 194403, Note_on_c, 0, 69, 0
2, 194472, Note_on_c, 0, 70, 86
2, 194686, Note_on_c, 0, 70, 0
2, 194731, Note_on_c, 0, 72, 88
2, 194790, Note_on_c, 0, 65, 40
2, 194875, Note_on_c, 0, 65, 0
2, 194886, Note_on_c, 0, 72, 0
2, 194982, Note_on_c, 0, 73, 75
2, 195139, Note_on_c, 0, 73, 0
2, 195150, Note_on_c, 0, 60, 0
2, 195185, Note_on_c, 0, 61, 0
2, 195223, Note_on_c, 0, 74, 76
2, 195368, Note_on_c, 0, 74, 0
2, 195464, Note_on_c, 0, 77, 61
2, 195621, Note_on_c, 0, 77, 0
2, 196389, Note_on_c, 0, 66, 77
2, 196390, Note_on_c, 0, 62, 84
2, 196408, Note_on_c, 0, 56, 72
2, 196912, Note_on_c, 0, 82, 91
2, 197134, Note_on_c, 0, 82, 0
2, 197160, Note_on_c, 0, 83, 84
2, 197297, Note_on_c, 0, 83, 0
2, 197395, Note_on_c, 0, 86, 106
2, 197661, Note_on_c, 0, 86, 0
2, 197780, Note_on_c, 0, 66, 0
2, 197811, Note_on_c, 0, 56, 0
2, 197891, Note_on_c, 0, 62, 0
2, 198246, Note_on_c, 0, 66, 75
2, 198253, Note_on_c, 0, 62, 90
2, 198254, Note_on_c, 0, 56, 82
2, 198737, Note_on_c, 0, 85, 91
2, 198792, Note_on_c, 0, 62, 0
2, 198857, Note_on_c, 0, 66, 0
2, 198875, Note_on_c, 0, 85, 0
2, 198949, Note_on_c, 0, 84, 40
2, 198965, Note_on_c, 0, 56, 0
2, 199222, Note_on_c, 0, 83, 68
2, 199256, Note_on_c, 0, 84, 0
2, 199391, Note_on_c, 0, 83, 0
2, 199465, Note_on_c, 0, 81, 70
2, 199587, Note_on_c, 0, 81, 0
2, 199712, Note_on_c, 0, 82, 78
2, 199728, Note_on_c, 0, 65, 31
2, 199757, Note_on_c, 0, 61, 31
2, 199765, Note_on_c, 0, 54, 19
2, 199769, Note_on_c, 0, 58, 30
2, 199957, Note_on_c, 0, 61, 0
2, 200001, Note_on_c, 0, 65, 0
2, 200017, Note_on_c, 0, 54, 0
2, 200019, Note_on_c, 0, 58, 0
2, 200045, Note_on_c, 0, 82, 0
2, 200219, Note_on_c, 0, 78, 76
2, 200273, Note_on_c, 0, 65, 39
2, 200275, Note_on_c, 0, 58, 50
2, 200278, Note_on_c, 0, 54, 30
2, 200293, Note_on_c, 0, 61, 33
2, 200337, Note_on_c, 0, 78, 0
2, 200353, Note_on_c, 0, 61, 0
2, 200357, Note_on_c, 0, 65, 0
2, 200429, Note_on_c, 0, 54, 0
2, 200430, Note_on_c, 0, 58, 0
2, 201167, Note_on_c, 0, 61, 88
2, 201171, Note_on_c, 0, 55, 98
2, 201174, Note_on_c, 0, 66, 100
2, 201179, Note_on_c, 0, 93, 109
2, 201185, Note_on_c, 0, 88, 100
2, 201187, Note_on_c, 0, 81, 110
2, 201233, Note_on_c, 0, 91, 32
2, 201293, Note_on_c, 0, 91, 0
2, 201651, Note_on_c, 0, 81, 0
2, 201661, Note_on_c, 0, 55, 0
2, 201672, Note_on_c, 0, 93, 0
2, 201689, Note_on_c, 0, 88, 0
2, 201694, Note_on_c, 0, 66, 0
2, 201709, Note_on_c, 0, 61, 0
2, 202091, Note_on_c, 0, 61, 84
2, 202096, Note_on_c, 0, 66, 94
2, 202097, Note_on_c, 0, 55, 96
2, 202115, Note_on_c, 0, 93, 98
2, 202116, Note_on_c, 0, 88, 97
2, 202120, Note_on_c, 0, 81, 106
2, 202137, Note_on_c, 0, 91, 68
2, 202192, Note_on_c, 0, 91, 0
2, 202299, Note_on_c, 0, 93, 0
2, 202331, Note_on_c, 0, 55, 0
2, 202377, Note_on_c, 0, 81, 0
2, 202379, Note_on_c, 0, 88, 0
2, 202411, Note_on_c, 0, 66, 0
2, 202448, Note_on_c, 0, 61, 0
2, 202600, Note_on_c, 0, 58, 73
2, 202605, Note_on_c, 0, 65, 91
2, 202611, Note_on_c, 0, 54, 83
2, 202619, Note_on_c, 0, 60, 88
2, 202621, Note_on_c, 0, 92, 95
2, 202624, Note_on_c, 0, 80, 93
2, 202625, Note_on_c, 0, 87, 91
2, 202838, Control_c, 0, 64, 127
2, 203382, Note_on_c, 0, 80, 0
2, 203430, Note_on_c, 0, 65, 0
2, 203433, Note_on_c, 0, 60, 0
2, 203446, Note_on_c, 0, 87, 0
2, 203483, Note_on_c, 0, 92, 0
2, 203502, Note_on_c, 0, 58, 0
2, 203523, Note_on_c, 0, 54, 0
2, 203993, Note_on_c, 0, 97, 101
2, 204000, Note_on_c, 0, 85, 107
2, 204006, Note_on_c, 0, 92, 99
2, 204011, Note_on_c, 0, 58, 85
2, 204014, Note_on_c, 0, 54, 86
2, 204016, Note_on_c, 0, 60, 91
2, 204017, Note_on_c, 0, 65, 92
2, 204040, Note_on_c, 0, 67, 76
2, 204057, Control_c, 0, 64, 0
2, 204094, Note_on_c, 0, 67, 0
2, 204318, Note_on_c, 0, 85, 0
2, 204337, Note_on_c, 0, 65, 0
2, 204350, Note_on_c, 0, 92, 0
2, 204357, Note_on_c, 0, 60, 0
2, 204360, Note_on_c, 0, 97, 0
2, 204437, Note_on_c, 0, 96, 64
2, 204438, Note_on_c, 0, 65, 79
2, 204467, Note_on_c, 0, 84, 40
2, 204469, Note_on_c, 0, 91, 56
2, 204472, Note_on_c, 0, 60, 66
2, 204603, Note_on_c, 0, 96, 0
2, 204641, Note_on_c, 0, 84, 0
2, 204664, Note_on_c, 0, 65, 0
2, 204683, Note_on_c, 0, 91, 0
2, 204686, Note_on_c, 0, 58, 0
2, 204694, Note_on_c, 0, 60, 0
2, 204717, Note_on_c, 0, 54, 0
2, 204907, Note_on_c, 0, 94, 80
2, 204917, Note_on_c, 0, 82, 71
2, 204921, Note_on_c, 0, 65, 79
2, 204926, Note_on_c, 0, 58, 69
2, 204941, Note_on_c, 0, 60, 70
2, 204953, Note_on_c, 0, 54, 29
2, 205049, Note_on_c, 0, 82, 0
2, 205073, Note_on_c, 0, 65, 0
2, 205094, Note_on_c, 0, 94, 0
2, 205129, Note_on_c, 0, 54, 0
2, 205171, Note_on_c, 0, 58, 0
2, 205174, Note_on_c, 0, 60, 0
2, 205921, Note_on_c, 0, 96, 100
2, 205929, Note_on_c, 0, 54, 91
2, 205931, Note_on_c, 0, 84, 95
2, 205933, Note_on_c, 0, 64, 103
2, 205936, Note_on_c, 0, 60, 93
2, 206024, Note_on_c, 0, 96, 0
2, 206032, Note_on_c, 0, 64, 0
2, 206038, Note_on_c, 0, 84, 0
2, 206057, Note_on_c, 0, 60, 0
2, 206128, Note_on_c, 0, 54, 0
2, 206483, Note_on_c, 0, 92, 63
2, 206504, Note_on_c, 0, 80, 68
2, 206507, Note_on_c, 0, 54, 82
2, 206515, Note_on_c, 0, 64, 91
2, 206517, Note_on_c, 0, 60, 79
2, 206539, Note_on_c, 0, 86, 54
2, 206601, Note_on_c, 0, 86, 0
2, 206677, Note_on_c, 0, 86, 20
2, 206680, Note_on_c, 0, 93, 23
2, 206688, Note_on_c, 0, 80, 0
2, 206694, Note_on_c, 0, 81, 62
2, 206733, Note_on_c, 0, 92, 0
2, 206816, Note_on_c, 0, 93, 0
2, 206848, Note_on_c, 0, 81, 0
2, 206867, Note_on_c, 0, 64, 0
2, 206913, Note_on_c, 0, 86, 0
2, 206980, Note_on_c, 0, 54, 0
2, 207064, Note_on_c, 0, 60, 0
2, 207241, Note_on_c, 0, 60, 66
2, 207257, Note_on_c, 0, 63, 78
2, 207259, Note_on_c, 0, 92, 79
2, 207272, Note_on_c, 0, 53, 52
2, 207275, Note_on_c, 0, 80, 64
2, 207280, Note_on_c, 0, 87, 70
2, 207304, Note_on_c, 0, 56, 42
2, 207665, Note_on_c, 0, 87, 0
2, 207667, Note_on_c, 0, 92, 0
2, 207747, Note_on_c, 0, 63, 0
2, 207759, Note_on_c, 0, 80, 0
2, 207801, Note_on_c, 0, 56, 0
2, 207803, Note_on_c, 0, 53, 0
2, 207873, Note_on_c, 0, 53, 19
2, 207877, Note_on_c, 0, 63, 60
2, 207886, Note_on_c, 0, 89, 81
2, 207909, Note_on_c, 0, 77, 69
2, 207923, Note_on_c, 0, 56, 30
2, 208184, Control_c, 0, 64, 127
2, 208296, Note_on_c, 0, 53, 0
2, 208422, Note_on_c, 0, 89, 0
2, 208531, Note_on_c, 0, 77, 0
2, 208638, Note_on_c, 0, 56, 0
2, 208774, Note_on_c, 0, 53, 70
2, 208909, Note_on_c, 0, 60, 0
2, 208963, Note_on_c, 0, 63, 0
2, 209096, Note_on_c, 0, 53, 0
2, 209227, Control_c, 0, 64, 0
2, 209246, Note_on_c, 0, 53, 19
2, 209248, Note_on_c, 0, 62, 52
2, 209280, Note_on_c, 0, 59, 56
2, 209281, Note_on_c, 0, 55, 36
2, 209789, Note_on_c, 0, 71, 44
2, 209936, Note_on_c, 0, 71, 0
2, 210217, Note_on_c, 0, 74, 81
2, 210229, Note_on_c, 0, 59, 0
2, 210320, Note_on_c, 0, 55, 0
2, 210395, Note_on_c, 0, 74, 0
2, 210403, Note_on_c, 0, 53, 0
2, 210422, Note_on_c, 0, 62, 0
2, 210691, Note_on_c, 0, 77, 81
2, 211112, Note_on_c, 0, 66, 49
2, 211128, Note_on_c, 0, 73, 34
2, 211134, Note_on_c, 0, 70, 49
2, 211152, Note_on_c, 0, 65, 44
2, 211564, Note_on_c, 0, 66, 0
2, 211569, Note_on_c, 0, 70, 0
2, 211608, Note_on_c, 0, 65, 0
2, 211645, Note_on_c, 0, 73, 0
2, 211657, Note_on_c, 0, 63, 42
2, 212051, Note_on_c, 0, 63, 0
2, 212113, Note_on_c, 0, 66, 38
2, 212128, Note_on_c, 0, 73, 27
2, 212139, Note_on_c, 0, 65, 37
2, 212144, Note_on_c, 0, 70, 36
2, 212473, Note_on_c, 0, 70, 0
2, 212494, Note_on_c, 0, 66, 0
2, 212539, Note_on_c, 0, 65, 0
2, 212560, Note_on_c, 0, 73, 0
2, 212649, Note_on_c, 0, 63, 42
2, 212721, Note_on_c, 0, 77, 0
2, 212961, Note_on_c, 0, 63, 0
2, 213078, Note_on_c, 0, 77, 70
2, 213097, Note_on_c, 0, 65, 46
2, 213099, Note_on_c, 0, 73, 38
2, 213101, Note_on_c, 0, 66, 59
2, 213104, Note_on_c, 0, 70, 64
2, 213392, Note_on_c, 0, 77, 0
2, 213485, Note_on_c, 0, 66, 0
2, 213493, Note_on_c, 0, 73, 0
2, 213534, Note_on_c, 0, 65, 0
2, 213582, Note_on_c, 0, 75, 67
2, 213617, Note_on_c, 0, 63, 35
2, 213734, Note_on_c, 0, 63, 0
2, 214056, Note_on_c, 0, 66, 48
2, 214453, Note_on_c, 0, 66, 0
2, 214468, Note_on_c, 0, 75, 0
2, 214510, Note_on_c, 0, 70, 0
2, 214579, Note_on_c, 0, 75, 75
2, 214591, Note_on_c, 0, 70, 34
2, 214595, Note_on_c, 0, 48, 59
2, 214612, Note_on_c, 0, 64, 64
2, 214749, Note_on_c, 0, 75, 0
2, 214763, Note_on_c, 0, 64, 0
2, 214799, Note_on_c, 0, 48, 0
2, 214801, Note_on_c, 0, 70, 0
2, 215553, Note_on_c, 0, 63, 64
2, 215560, Note_on_c, 0, 58, 69
2, 215571, Note_on_c, 0, 51, 72
2, 215574, Note_on_c, 0, 52, 60
2, 215688, Note_on_c, 0, 52, 0
2, 215718, Note_on_c, 0, 63, 0
2, 215731, Note_on_c, 0, 51, 0
2, 215736, Note_on_c, 0, 58, 0
2, 215832, Note_on_c, 0, 49, 25
2, 216046, Note_on_c, 0, 49, 0
2, 216073, Note_on_c, 0, 63, 77
2, 216085, Note_on_c, 0, 58, 71
2, 216086, Note_on_c, 0, 52, 74
2, 216091, Note_on_c, 0, 51, 63
2, 216678, Note_on_c, 0, 52, 0
2, 216750, Note_on_c, 0, 58, 0
2, 216816, Note_on_c, 0, 63, 0
2, 216915, Note_on_c, 0, 51, 0
2, 216931, Note_on_c, 0, 58, 50
2, 216949, Note_on_c, 0, 61, 48
2, 216952, Note_on_c, 0, 49, 54
2, 216960, Note_on_c, 0, 52, 34
2, 217296, Note_on_c, 0, 52, 0
2, 217374, Note_on_c, 0, 58, 0
2, 217392, Note_on_c, 0, 61, 0
2, 217461, Note_on_c, 0, 49, 0
2, 217469, Note_on_c, 0, 51, 50
2, 217489, Note_on_c, 0, 52, 49
2, 217491, Note_on_c, 0, 63, 59
2, 217496, Note_on_c, 0, 58, 72
2, 217593, Note_on_c, 0, 52, 0
2, 217645, Note_on_c, 0, 63, 0
2, 217664, Note_on_c, 0, 51, 0
2, 217678, Note_on_c, 0, 58, 0
2, 218339, Control_c, 0, 64, 127
2, 218446, Note_on_c, 0, 41, 81
2, 218627, Note_on_c, 0, 41, 0
2, 219365, Control_c, 0, 64, 0
2, 219401, Note_on_c, 0, 85, 92
2, 219403, Note_on_c, 0, 73, 88
2, 219422, Note_on_c, 0, 65, 70
2, 219441, Note_on_c, 0, 63, 40
2, 219454, Note_on_c, 0, 57, 38
2, 219627, Note_on_c, 0, 85, 0
2, 219648, Note_on_c, 0, 73, 0
2, 219651, Note_on_c, 0, 65, 0
2, 219736, Note_on_c, 0, 57, 0
2, 219753, Note_on_c, 0, 63, 0
2, 219875, Note_on_c, 0, 70, 21
2, 219920, Note_on_c, 0, 82, 12
2, 219985, Note_on_c, 0, 70, 0
2, 220022, Note_on_c, 0, 82, 0
2, 220352, Note_on_c, 0, 65, 70
2, 220357, Note_on_c, 0, 85, 85
2, 220358, Note_on_c, 0, 63, 60
2, 220359, Note_on_c, 0, 73, 75
2, 220373, Note_on_c, 0, 57, 62
2, 220422, Note_on_c, 0, 65, 0
2, 220427, Note_on_c, 0, 57, 0
2, 220456, Note_on_c, 0, 73, 0
2, 220469, Note_on_c, 0, 63, 0
2, 220493, Note_on_c, 0, 85, 0
2, 220822, Note_on_c, 0, 75, 94
2, 220825, Note_on_c, 0, 87, 76
2, 220833, Note_on_c, 0, 65, 82
2, 220843, Note_on_c, 0, 63, 62
2, 220851, Note_on_c, 0, 57, 77
2, 220896, Note_on_c, 0, 85, 21
2, 221147, Note_on_c, 0, 85, 0
2, 221246, Note_on_c, 0, 75, 0
2, 221304, Note_on_c, 0, 63, 0
2, 221347, Note_on_c, 0, 87, 0
2, 221384, Note_on_c, 0, 57, 0
2, 221395, Note_on_c, 0, 65, 0
2, 221797, Note_on_c, 0, 75, 86
2, 221801, Note_on_c, 0, 65, 70
2, 221803, Note_on_c, 0, 85, 59
2, 221813, Note_on_c, 0, 63, 42
2, 221814, Note_on_c, 0, 57, 67
2, 221859, Note_on_c, 0, 86, 33
2, 221869, Note_on_c, 0, 65, 0
2, 221886, Note_on_c, 0, 57, 0
2, 221910, Note_on_c, 0, 63, 0
2, 221912, Note_on_c, 0, 75, 0
2, 221918, Note_on_c, 0, 86, 0
2, 221919, Note_on_c, 0, 85, 0
2, 222307, Note_on_c, 0, 65, 45
2, 222323, Note_on_c, 0, 57, 39
2, 222374, Note_on_c, 0, 65, 0
2, 222385, Note_on_c, 0, 57, 0
2, 222747, Note_on_c, 0, 65, 78
2, 222749, Note_on_c, 0, 85, 91
2, 222752, Note_on_c, 0, 73, 79
2, 222768, Note_on_c, 0, 56, 36
2, 222771, Note_on_c, 0, 60, 55
2, 222774, Note_on_c, 0, 61, 34
2, 222974, Control_c, 0, 64, 127
2, 223064, Note_on_c, 0, 85, 0
2, 223075, Note_on_c, 0, 65, 0
2, 223078, Note_on_c, 0, 56, 0
2, 223083, Note_on_c, 0, 73, 0
2, 223093, Note_on_c, 0, 60, 0
2, 223131, Note_on_c, 0, 61, 0
2, 223270, Note_on_c, 0, 61, 58
2, 223273, Note_on_c, 0, 70, 75
2, 223275, Note_on_c, 0, 65, 51
2, 223285, Note_on_c, 0, 60, 56
2, 223344, Note_on_c, 0, 60, 0
2, 223371, Note_on_c, 0, 65, 0
2, 223376, Control_c, 0, 64, 0
2, 223406, Note_on_c, 0, 70, 0
2, 223446, Note_on_c, 0, 61, 0
2, 224165, Note_on_c, 0, 82, 79
2, 224177, Note_on_c, 0, 70, 75
2, 224184, Note_on_c, 0, 65, 76
2, 224198, Note_on_c, 0, 60, 64
2, 224200, Note_on_c, 0, 61, 57
2, 224211, Note_on_c, 0, 56, 50
2, 224547, Control_c, 0, 64, 127
2, 224776, Note_on_c, 0, 56, 0
2, 224899, Note_on_c, 0, 82, 0
2, 224944, Note_on_c, 0, 60, 0
2, 225038, Note_on_c, 0, 65, 0
2, 225054, Note_on_c, 0, 70, 0
2, 225125, Note_on_c, 0, 61, 0
2, 225193, Note_on_c, 0, 56, 73
2, 225334, Note_on_c, 0, 56, 0
2, 225541, Control_c, 0, 64, 0
2, 225621, Note_on_c, 0, 80, 93
2, 225629, Note_on_c, 0, 69, 112
2, 225630, Note_on_c, 0, 73, 86
2, 225632, Note_on_c, 0, 75, 94
2, 225635, Note_on_c, 0, 68, 98
2, 226057, Note_on_c, 0, 69, 0
2, 226059, Note_on_c, 0, 68, 0
2, 226061, Note_on_c, 0, 80, 0
2, 226094, Note_on_c, 0, 73, 0
2, 226112, Note_on_c, 0, 75, 0
2, 226200, Note_on_c, 0, 80, 71
2, 226203, Note_on_c, 0, 68, 84
2, 226206, Note_on_c, 0, 73, 62
2, 226211, Note_on_c, 0, 69, 79
2, 226213, Note_on_c, 0, 75, 84
2, 226808, Control_c, 0, 64, 127
2, 226809, Note_on_c, 0, 75, 0
2, 226813, Note_on_c, 0, 73, 0
2, 226841, Note_on_c, 0, 69, 0
2, 226878, Note_on_c, 0, 80, 0
2, 226983, Control_c, 0, 64, 0
2, 227043, Note_on_c, 0, 68, 0
2, 227101, Note_on_c, 0, 78, 82
2, 227107, Note_on_c, 0, 66, 84
2, 227109, Note_on_c, 0, 75, 85
2, 227112, Note_on_c, 0, 69, 92
2, 227121, Note_on_c, 0, 73, 59
2, 227481, Control_c, 0, 64, 127
2, 227518, Note_on_c, 0, 73, 0
2, 227569, Note_on_c, 0, 75, 0
2, 227608, Note_on_c, 0, 69, 0
2, 227640, Note_on_c, 0, 78, 0
2, 227909, Note_on_c, 0, 66, 0
2, 227995, Control_c, 0, 64, 0
2, 228049, Note_on_c, 0, 77, 79
2, 228051, Note_on_c, 0, 69, 82
2, 228054, Note_on_c, 0, 65, 82
2, 228057, Note_on_c, 0, 75, 73
2, 228059, Note_on_c, 0, 73, 59
2, 228573, Note_on_c, 0, 69, 0
2, 228774, Note_on_c, 0, 73, 0
2, 228849, Note_on_c, 0, 75, 0
2, 228893, Note_on_c, 0, 65, 0
2, 228926, Note_on_c, 0, 77, 0
2, 229014, Note_on_c, 0, 65, 78
2, 229454, Note_on_c, 0, 81, 103
2, 229718, Note_on_c, 0, 65, 0
2, 229813, Note_on_c, 0, 82, 48
2, 229976, Note_on_c, 0, 83, 84
2, 229977, Note_on_c, 0, 81, 0
2, 230025, Note_on_c, 0, 82, 0
2, 230147, Note_on_c, 0, 83, 0
2, 230182, Note_on_c, 0, 84, 98
2, 230949, Note_on_c, 0, 81, 89
2, 230955, Note_on_c, 0, 65, 83
2, 230969, Note_on_c, 0, 61, 69
2, 230984, Note_on_c, 0, 60, 68
2, 231036, Note_on_c, 0, 60, 0
2, 231056, Note_on_c, 0, 65, 0
2, 231065, Note_on_c, 0, 61, 0
2, 231737, Note_on_c, 0, 84, 0
2, 231889, Note_on_c, 0, 82, 96
2, 231905, Note_on_c, 0, 65, 68
2, 231909, Note_on_c, 0, 61, 63
2, 231921, Note_on_c, 0, 60, 63
2, 231965, Note_on_c, 0, 81, 0
2, 231974, Note_on_c, 0, 60, 0
2, 232016, Note_on_c, 0, 65, 0
2, 232029, Note_on_c, 0, 61, 0
2, 232845, Note_on_c, 0, 82, 0
2, 232900, Note_on_c, 0, 61, 70
2, 232902, Note_on_c, 0, 65, 76
2, 232920, Note_on_c, 0, 60, 64
2, 232933, Note_on_c, 0, 84, 91
2, 233262, Note_on_c, 0, 60, 0
2, 233289, Note_on_c, 0, 65, 0
2, 233398, Note_on_c, 0, 61, 0
2, 233419, Note_on_c, 0, 81, 74
2, 233845, Note_on_c, 0, 81, 0
2, 233862, Note_on_c, 0, 84, 0
2, 233886, Note_on_c, 0, 82, 83
2, 234297, Note_on_c, 0, 65, 41
2, 234305, Note_on_c, 0, 56, 34
2, 234323, Note_on_c, 0, 60, 40
2, 234424, Note_on_c, 0, 60, 0
2, 234437, Note_on_c, 0, 65, 0
2, 234481, Note_on_c, 0, 56, 0
2, 234828, Note_on_c, 0, 84, 90
2, 234909, Note_on_c, 0, 82, 0
2, 235713, Note_on_c, 0, 81, 72
2, 235734, Note_on_c, 0, 63, 50
2, 235753, Note_on_c, 0, 60, 43
2, 235761, Note_on_c, 0, 56, 34
2, 235808, Note_on_c, 0, 60, 0
2, 235838, Note_on_c, 0, 63, 0
2, 235851, Note_on_c, 0, 56, 0
2, 236566, Note_on_c, 0, 81, 0
2, 236628, Note_on_c, 0, 84, 0
2, 236657, Note_on_c, 0, 82, 86
2, 236667, Note_on_c, 0, 63, 74
2, 236729, Note_on_c, 0, 63, 0
2, 237557, Note_on_c, 0, 82, 0
2, 237624, Note_on_c, 0, 84, 89
2, 237627, Note_on_c, 0, 64, 92
2, 237631, Note_on_c, 0, 58, 63
2, 237645, Note_on_c, 0, 60, 69
2, 237662, Note_on_c, 0, 55, 43
2, 237720, Note_on_c, 0, 55, 0
2, 237727, Note_on_c, 0, 58, 0
2, 237747, Note_on_c, 0, 64, 0
2, 237815, Note_on_c, 0, 60, 0
2, 238555, Note_on_c, 0, 79, 70
2, 238571, Note_on_c, 0, 81, 65
2, 238582, Note_on_c, 0, 64, 61
2, 238605, Note_on_c, 0, 84, 0
2, 238608, Note_on_c, 0, 60, 34
2, 238625, Note_on_c, 0, 81, 0
2, 238637, Note_on_c, 0, 64, 0
2, 238665, Note_on_c, 0, 60, 0
2, 238804, Note_on_c, 0, 79, 0
2, 239033, Note_on_c, 0, 81, 75
2, 239417, Note_on_c, 0, 81, 0
2, 239505, Note_on_c, 0, 64, 88
2, 239521, Note_on_c, 0, 82, 90
2, 239523, Note_on_c, 0, 58, 50
2, 239531, Note_on_c, 0, 60, 64
2, 239560, Note_on_c, 0, 55, 35
2, 239617, Note_on_c, 0, 55, 0
2, 239638, Note_on_c, 0, 64, 0
2, 239693, Note_on_c, 0, 58, 0
2, 239752, Note_on_c, 0, 60, 0
2, 239877, Note_on_c, 0, 82, 0
2, 239971, Note_on_c, 0, 84, 96
2, 240280, Note_on_c, 0, 84, 0
2, 240461, Note_on_c, 0, 64, 46
2, 240464, Note_on_c, 0, 78, 34
2, 240480, Note_on_c, 0, 60, 43
2, 240493, Note_on_c, 0, 58, 24
2, 240686, Note_on_c, 0, 55, 3
2, 240809, Note_on_c, 0, 78, 0
2, 240819, Note_on_c, 0, 64, 0
2, 240854, Note_on_c, 0, 55, 0
2, 240918, Note_on_c, 0, 60, 0
2, 240934, Note_on_c, 0, 79, 93
2, 240987, Note_on_c, 0, 58, 0
2, 241328, Note_on_c, 0, 79, 0
2, 241465, Note_on_c, 0, 80, 77
2, 241469, Note_on_c, 0, 63, 80
2, 241486, Note_on_c, 0, 60, 78
2, 241539, Note_on_c, 0, 60, 0
2, 241555, Note_on_c, 0, 63, 0
2, 241560, Note_on_c, 0, 81, 45
2, 241808, Note_on_c, 0, 81, 0
2, 241883, Note_on_c, 0, 80, 0
2, 241961, Note_on_c, 0, 81, 84
2, 242374, Note_on_c, 0, 81, 0
2, 242427, Note_on_c, 0, 80, 82
2, 242795, Note_on_c, 0, 80, 0
2, 242829, Note_on_c, 0, 60, 52
2, 242851, Note_on_c, 0, 63, 25
2, 242873, Note_on_c, 0, 54, 25
2, 242886, Note_on_c, 0, 78, 40
2, 242923, Note_on_c, 0, 63, 0
2, 242993, Note_on_c, 0, 60, 0
2, 243009, Note_on_c, 0, 54, 0
2, 243350, Note_on_c, 0, 77, 88
2, 243432, Note_on_c, 0, 78, 0
2, 243686, Note_on_c, 0, 77, 0
2, 243835, Note_on_c, 0, 75, 73
2, 244224, Note_on_c, 0, 75, 0
2, 244312, Note_on_c, 0, 60, 57
2, 244313, Note_on_c, 0, 63, 54
2, 244318, Note_on_c, 0, 74, 76
2, 244360, Note_on_c, 0, 54, 28
2, 244488, Note_on_c, 0, 63, 0
2, 244573, Note_on_c, 0, 54, 0
2, 244729, Note_on_c, 0, 74, 0
2, 244782, Note_on_c, 0, 72, 41
2, 244862, Note_on_c, 0, 60, 0
2, 245167, Note_on_c, 0, 72, 0
2, 245358, Note_on_c, 0, 69, 67
2, 245374, Note_on_c, 0, 71, 48
2, 245432, Note_on_c, 0, 71, 0
2, 245699, Note_on_c, 0, 69, 0
2, 245742, Note_on_c, 0, 65, 48
2, 245753, Note_on_c, 0, 61, 50
2, 245757, Note_on_c, 0, 72, 77
2, 245769, Note_on_c, 0, 60, 28
2, 246235, Note_on_c, 0, 61, 0
2, 246243, Note_on_c, 0, 65, 0
2, 246270, Note_on_c, 0, 69, 35
2, 246283, Note_on_c, 0, 60, 0
2, 246342, Note_on_c, 0, 72, 0
2, 246592, Note_on_c, 0, 69, 0
2, 246691, Note_on_c, 0, 70, 63
2, 247211, Note_on_c, 0, 61, 34
2, 247225, Note_on_c, 0, 65, 50
2, 247237, Note_on_c, 0, 60, 41
2, 247430, Note_on_c, 0, 61, 0
2, 247433, Note_on_c, 0, 60, 0
2, 247833, Note_on_c, 0, 70, 0
2, 247861, Note_on_c, 0, 65, 0
2, 248147, Note_on_c, 0, 61, 39
2, 248174, Note_on_c, 0, 65, 67
2, 248206, Note_on_c, 0, 60, 31
2, 248296, Note_on_c, 0, 65, 0
2, 248377, Note_on_c, 0, 60, 0
2, 248654, Note_on_c, 0, 65, 37
2, 248675, Note_on_c, 0, 57, 59
2, 249017, Note_on_c, 0, 57, 0
2, 249181, Note_on_c, 0, 56, 77
2, 249718, Note_on_c, 0, 65, 0
2, 249728, Note_on_c, 0, 61, 0
2, 250132, Note_on_c, 0, 61, 70
2, 250150, Note_on_c, 0, 65, 39
2, 250539, Note_on_c, 0, 65, 0
2, 250977, Note_on_c, 0, 61, 0
2, 251105, Note_on_c, 0, 68, 84
2, 251107, Note_on_c, 0, 80, 82
2, 251112, Note_on_c, 0, 65, 72
2, 251115, Note_on_c, 0, 61, 57
2, 251278, Note_on_c, 0, 65, 0
2, 251360, Note_on_c, 0, 68, 0
2, 251403, Note_on_c, 0, 69, 75
2, 251404, Note_on_c, 0, 80, 0
2, 251411, Note_on_c, 0, 65, 65
2, 251435, Note_on_c, 0, 81, 68
2, 251545, Note_on_c, 0, 65, 0
2, 251547, Note_on_c, 0, 81, 0
2, 251552, Note_on_c, 0, 56, 0
2, 251555, Note_on_c, 0, 69, 0
2, 251617, Note_on_c, 0, 61, 0
2, 252053, Note_on_c, 0, 70, 86
2, 252065, Note_on_c, 0, 82, 81
2, 252067, Note_on_c, 0, 56, 80
2, 252069, Note_on_c, 0, 61, 73
2, 252070, Note_on_c, 0, 65, 82
2, 252125, Note_on_c, 0, 65, 0
2, 252155, Note_on_c, 0, 56, 0
2, 252163, Note_on_c, 0, 82, 0
2, 252165, Note_on_c, 0, 70, 0
2, 252176, Note_on_c, 0, 61, 0
2, 252990, Note_on_c, 0, 84, 92
2, 252995, Note_on_c, 0, 72, 90
2, 252997, Note_on_c, 0, 61, 57
2, 253000, Note_on_c, 0, 65, 54
2, 253004, Note_on_c, 0, 56, 34
2, 253049, Note_on_c, 0, 61, 0
2, 253059, Note_on_c, 0, 65, 0
2, 253064, Note_on_c, 0, 56, 0
2, 253171, Note_on_c, 0, 84, 0
2, 253195, Note_on_c, 0, 72, 0
2, 253917, Note_on_c, 0, 58, 71
2, 253918, Note_on_c, 0, 52, 74
2, 253920, Note_on_c, 0, 63, 80
2, 253923, Note_on_c, 0, 75, 100
2, 253925, Note_on_c, 0, 87, 92
2, 254097, Note_on_c, 0, 75, 0
2, 254109, Note_on_c, 0, 63, 0
2, 254126, Note_on_c, 0, 87, 0
2, 254142, Note_on_c, 0, 52, 0
2, 254158, Note_on_c, 0, 58, 0
2, 254941, Note_on_c, 0, 63, 95
2, 254942, Note_on_c, 0, 58, 86
2, 254950, Note_on_c, 0, 52, 87
2, 254952, Note_on_c, 0, 90, 84
2, 254953, Note_on_c, 0, 78, 90
2, 254966, Note_on_c, 0, 85, 77
2, 255006, Note_on_c, 0, 52, 0
2, 255049, Note_on_c, 0, 78, 0
2, 255069, Note_on_c, 0, 63, 0
2, 255072, Note_on_c, 0, 85, 0
2, 255099, Note_on_c, 0, 90, 0
2, 255112, Note_on_c, 0, 58, 0
2, 255462, Note_on_c, 0, 63, 101
2, 255469, Note_on_c, 0, 92, 104
2, 255470, Note_on_c, 0, 58, 88
2, 255472, Note_on_c, 0, 80, 104
2, 255477, Note_on_c, 0, 52, 97
2, 255478, Note_on_c, 0, 87, 94
2, 255505, Control_c, 0, 64, 127
2, 255793, Note_on_c, 0, 52, 0
2, 255821, Note_on_c, 0, 92, 0
2, 255822, Note_on_c, 0, 63, 0
2, 255827, Note_on_c, 0, 80, 0
2, 255849, Note_on_c, 0, 58, 0
2, 255854, Note_on_c, 0, 87, 0
2, 255949, Note_on_c, 0, 92, 73
2, 255961, Note_on_c, 0, 80, 73
2, 255963, Note_on_c, 0, 52, 70
2, 255966, Note_on_c, 0, 58, 68
2, 255968, Note_on_c, 0, 63, 70
2, 255969, Note_on_c, 0, 87, 72
2, 256123, Note_on_c, 0, 52, 0
2, 256128, Note_on_c, 0, 92, 0
2, 256148, Note_on_c, 0, 63, 0
2, 256201, Note_on_c, 0, 80, 0
2, 256217, Note_on_c, 0, 87, 0
2, 256232, Note_on_c, 0, 58, 0
2, 256307, Control_c, 0, 64, 0
2, 256374, Note_on_c, 0, 58, 50
2, 256376, Note_on_c, 0, 90, 63
2, 256384, Note_on_c, 0, 63, 67
2, 256393, Note_on_c, 0, 78, 43
2, 256397, Note_on_c, 0, 85, 67
2, 256409, Note_on_c, 0, 52, 49
2, 256501, Control_c, 0, 64, 127
2, 256568, Note_on_c, 0, 52, 0
2, 256637, Note_on_c, 0, 85, 0
2, 256702, Note_on_c, 0, 63, 0
2, 256709, Note_on_c, 0, 90, 0
2, 256718, Note_on_c, 0, 78, 0
2, 256757, Control_c, 0, 64, 0
2, 256797, Note_on_c, 0, 58, 0
2, 256905, Note_on_c, 0, 89, 72
2, 256909, Note_on_c, 0, 62, 71
2, 256910, Note_on_c, 0, 77, 67
2, 256918, Note_on_c, 0, 51, 43
2, 256920, Note_on_c, 0, 84, 62
2, 256934, Note_on_c, 0, 57, 66
2, 257344, Note_on_c, 0, 77, 0
2, 257651, Note_on_c, 0, 84, 0
2, 257675, Note_on_c, 0, 51, 0
2, 257697, Note_on_c, 0, 89, 0
2, 257720, Note_on_c, 0, 62, 0
2, 257733, Note_on_c, 0, 57, 0
2, 257843, Note_on_c, 0, 62, 64
2, 257849, Note_on_c, 0, 51, 43
2, 257864, Note_on_c, 0, 57, 68
2, 258177, Note_on_c, 0, 51, 0
2, 258269, Note_on_c, 0, 62, 0
2, 258333, Note_on_c, 0, 92, 71
2, 258411, Note_on_c, 0, 57, 0
2, 258545, Note_on_c, 0, 92, 0
2, 258597, Note_on_c, 0, 93, 72
2, 258776, Note_on_c, 0, 93, 0
2, 258965, Note_on_c, 0, 96, 88
2, 258981, Note_on_c, 0, 62, 69
2, 258992, Note_on_c, 0, 51, 45
2, 259008, Note_on_c, 0, 57, 57
2, 259110, Note_on_c, 0, 62, 0
2, 259115, Note_on_c, 0, 57, 0
2, 259124, Note_on_c, 0, 51, 0
2, 259129, Note_on_c, 0, 96, 0
2, 259406, Note_on_c, 0, 99, 72
2, 259605, Note_on_c, 0, 99, 0
2, 259689, Note_on_c, 0, 101, 71
2, 259883, Note_on_c, 0, 101, 0
2, 260057, Note_on_c, 0, 102, 92
2, 260059, Note_on_c, 0, 51, 48
2, 260070, Note_on_c, 0, 62, 40
2, 260086, Note_on_c, 0, 57, 52
2, 260214, Note_on_c, 0, 57, 0
2, 260249, Note_on_c, 0, 51, 0
2, 260262, Note_on_c, 0, 102, 0
2, 260363, Note_on_c, 0, 62, 0
2, 260477, Note_on_c, 0, 101, 74
2, 260651, Note_on_c, 0, 101, 0
2, 260795, Note_on_c, 0, 99, 82
2, 260969, Note_on_c, 0, 99, 0
2, 261102, Note_on_c, 0, 97, 83
2, 261139, Note_on_c, 0, 61, 51
2, 261142, Note_on_c, 0, 65, 43
2, 261157, Note_on_c, 0, 60, 29
2, 261264, Note_on_c, 0, 97, 0
2, 261456, Note_on_c, 0, 96, 81
2, 261619, Note_on_c, 0, 96, 0
2, 261688, Note_on_c, 0, 97, 61
2, 261693, Note_on_c, 0, 61, 0
2, 261758, Note_on_c, 0, 65, 0
2, 261813, Note_on_c, 0, 60, 0
2, 261832, Note_on_c, 0, 96, 39
2, 261876, Note_on_c, 0, 97, 0
2, 261955, Note_on_c, 0, 93, 70
2, 261968, Note_on_c, 0, 96, 0
2, 262064, Note_on_c, 0, 93, 0
2, 262177, Note_on_c, 0, 96, 82
2, 262190, Note_on_c, 0, 65, 40
2, 262227, Note_on_c, 0, 61, 27
2, 262390, Note_on_c, 0, 65, 0
2, 262422, Note_on_c, 0, 96, 0
2, 262424, Note_on_c, 0, 61, 0
2, 262534, Note_on_c, 0, 93, 70
2, 262680, Note_on_c, 0, 93, 0
2, 262789, Note_on_c, 0, 94, 85
2, 262985, Note_on_c, 0, 94, 0
2, 263064, Note_on_c, 0, 96, 80
2, 263065, Note_on_c, 0, 65, 40
2, 263070, Note_on_c, 0, 61, 57
2, 263104, Note_on_c, 0, 60, 30
2, 263177, Note_on_c, 0, 60, 0
2, 263223, Note_on_c, 0, 65, 0
2, 263229, Note_on_c, 0, 96, 0
2, 263265, Note_on_c, 0, 61, 0
2, 263353, Note_on_c, 0, 97, 86
2, 263590, Note_on_c, 0, 97, 0
2, 263693, Note_on_c, 0, 93, 83
2, 263841, Note_on_c, 0, 93, 0
2, 264078, Note_on_c, 0, 94, 86
2, 264097, Note_on_c, 0, 61, 46
2, 264102, Note_on_c, 0, 65, 29
2, 264133, Note_on_c, 0, 60, 34
2, 264374, Note_on_c, 0, 60, 0
2, 264425, Note_on_c, 0, 65, 0
2, 264499, Note_on_c, 0, 61, 0
2, 264520, Note_on_c, 0, 94, 0
2, 264571, Note_on_c, 0, 96, 64
2, 264824, Note_on_c, 0, 96, 0
2, 264995, Note_on_c, 0, 62, 70
2, 265016, Note_on_c, 0, 59, 54
2, 265022, Note_on_c, 0, 53, 31
2, 265051, Note_on_c, 0, 95, 59
2, 265088, Note_on_c, 0, 59, 0
2, 265091, Note_on_c, 0, 62, 0
2, 265094, Note_on_c, 0, 53, 0
2, 265369, Note_on_c, 0, 95, 0
2, 265491, Note_on_c, 0, 91, 64
2, 265574, Note_on_c, 0, 91, 0
2, 266444, Note_on_c, 0, 62, 73
2, 266456, Note_on_c, 0, 59, 69
2, 266473, Note_on_c, 0, 53, 39
2, 266547, Note_on_c, 0, 53, 0
2, 266577, Note_on_c, 0, 62, 0
2, 266625, Note_on_c, 0, 59, 0
2, 267411, Note_on_c, 0, 62, 80
2, 267422, Note_on_c, 0, 59, 64
2, 267438, Note_on_c, 0, 53, 41
2, 267531, Note_on_c, 0, 62, 0
2, 267572, Note_on_c, 0, 53, 0
2, 267608, Note_on_c, 0, 59, 0
2, 267864, Note_on_c, 0, 70, 33
2, 268080, Note_on_c, 0, 70, 0
2, 268083, Note_on_c, 0, 71, 76
2, 268230, Note_on_c, 0, 71, 0
2, 268336, Note_on_c, 0, 77, 107
2, 268560, Note_on_c, 0, 77, 0
2, 268616, Note_on_c, 0, 75, 93
2, 268789, Note_on_c, 0, 64, 70
2, 268813, Note_on_c, 0, 75, 0
2, 268827, Note_on_c, 0, 58, 33
2, 268830, Note_on_c, 0, 76, 90
2, 268843, Note_on_c, 0, 64, 0
2, 268923, Note_on_c, 0, 58, 0
2, 269126, Note_on_c, 0, 76, 0
2, 269239, Note_on_c, 0, 72, 78
2, 269523, Note_on_c, 0, 72, 0
2, 269768, Note_on_c, 0, 67, 27
2, 269984, Note_on_c, 0, 67, 0
2, 270230, Note_on_c, 0, 65, 57
2, 270614, Note_on_c, 0, 65, 0
2, 270697, Note_on_c, 0, 63, 56
2, 270717, Note_on_c, 0, 48, 38
2, 270729, Note_on_c, 0, 58, 35
2, 270840, Note_on_c, 0, 63, 0
2, 270883, Note_on_c, 0, 64, 64
2, 271056, Note_on_c, 0, 64, 0
2, 271256, Note_on_c, 0, 60, 65
2, 271398, Note_on_c, 0, 58, 0
2, 271543, Note_on_c, 0, 60, 0
2, 271676, Note_on_c, 0, 63, 53
2, 271726, Note_on_c, 0, 48, 0
2, 272067, Note_on_c, 0, 63, 0
2, 272182, Note_on_c, 0, 64, 81
2, 272224, Note_on_c, 0, 48, 39
2, 272233, Note_on_c, 0, 58, 26
2, 272339, Note_on_c, 0, 58, 0
2, 272368, Note_on_c, 0, 48, 0
2, 272659, Note_on_c, 0, 58, 52
2, 272670, Note_on_c, 0, 61, 67
2, 272751, Note_on_c, 0, 48, 28
2, 272825, Note_on_c, 0, 48, 0
2, 273150, Note_on_c, 0, 48, 26
2, 273375, Note_on_c, 0, 58, 0
2, 273566, Note_on_c, 0, 61, 0
2, 273585, Note_on_c, 0, 58, 43
2, 273598, Note_on_c, 0, 64, 0
2, 273614, Note_on_c, 0, 55, 34
2, 273905, Note_on_c, 0, 58, 0
2, 274043, Note_on_c, 0, 55, 0
2, 274075, Note_on_c, 0, 58, 49
2, 274083, Note_on_c, 0, 69, 66
2, 274099, Note_on_c, 0, 61, 55
2, 274110, Note_on_c, 0, 57, 49
2, 274129, Note_on_c, 0, 64, 63
2, 274417, Control_c, 0, 64, 127
2, 274462, Note_on_c, 0, 48, 0
2, 274913, Note_on_c, 0, 58, 0
2, 274979, Note_on_c, 0, 57, 0
2, 275038, Note_on_c, 0, 48, 65
2, 275212, Note_on_c, 0, 48, 0
2, 275312, Note_on_c, 0, 69, 0
2, 275329, Note_on_c, 0, 64, 0
2, 275425, Note_on_c, 0, 61, 0
2, 275525, Note_on_c, 0, 67, 46
2, 275665, Note_on_c, 0, 67, 0
2, 276043, Note_on_c, 0, 77, 93
2, 276056, Note_on_c, 0, 53, 64
2, 276057, Note_on_c, 0, 63, 72
2, 276067, Note_on_c, 0, 58, 59
2, 276086, Control_c, 0, 64, 0
2, 277029, Note_on_c, 0, 75, 83
2, 277048, Note_on_c, 0, 67, 43
2, 277073, Note_on_c, 0, 60, 47
2, 277080, Note_on_c, 0, 63, 0
2, 277088, Note_on_c, 0, 70, 31
2, 277166, Note_on_c, 0, 77, 0
2, 277545, Control_c, 0, 64, 127
2, 277630, Note_on_c, 0, 70, 0
2, 277665, Note_on_c, 0, 67, 0
2, 277683, Note_on_c, 0, 60, 0
2, 277695, Note_on_c, 0, 75, 0
2, 277989, Note_on_c, 0, 74, 72
2, 278000, Note_on_c, 0, 70, 67
2, 278005, Note_on_c, 0, 63, 52
2, 278011, Note_on_c, 0, 67, 55
2, 278217, Note_on_c, 0, 74, 0
2, 278247, Note_on_c, 0, 63, 0
2, 278289, Note_on_c, 0, 70, 0
2, 278345, Note_on_c, 0, 67, 0
2, 278974, Note_on_c, 0, 63, 65
2, 278981, Note_on_c, 0, 72, 69
2, 278989, Note_on_c, 0, 67, 70
2, 279013, Note_on_c, 0, 62, 62
2, 279021, Control_c, 0, 64, 0
2, 279142, Note_on_c, 0, 62, 0
2, 279299, Note_on_c, 0, 58, 0
2, 279373, Note_on_c, 0, 53, 0
2, 279390, Control_c, 0, 64, 127
2, 279470, Note_on_c, 0, 67, 0
2, 279605, Note_on_c, 0, 63, 0
2, 279859, Note_on_c, 0, 72, 0
2, 279983, Control_c, 0, 64, 0
2, 279987, Note_on_c, 0, 66, 51
2, 279993, Note_on_c, 0, 62, 64
2, 279995, Note_on_c, 0, 69, 67
2, 280021, Note_on_c, 0, 57, 57
2, 280037, Note_on_c, 0, 51, 40
2, 280417, Control_c, 0, 64, 127
2, 280531, Note_on_c, 0, 51, 0
2, 280894, Note_on_c, 0, 51, 68
2, 281001, Note_on_c, 0, 57, 0
2, 281230, Note_on_c, 0, 62, 0
2, 281479, Note_on_c, 0, 66, 0
2, 281822, Note_on_c, 0, 66, 59
2, 281835, Note_on_c, 0, 57, 59
2, 281837, Note_on_c, 0, 62, 73
2, 281877, Control_c, 0, 64, 0
2, 282148, Control_c, 0, 64, 127
2, 282216, Note_on_c, 0, 51, 0
2, 282294, Note_on_c, 0, 62, 0
2, 282301, Note_on_c, 0, 69, 0
2, 282473, Note_on_c, 0, 66, 0
2, 282757, Note_on_c, 0, 51, 69
2, 282937, Note_on_c, 0, 57, 0
2, 282971, Note_on_c, 0, 51, 0
2, 283224, Note_on_c, 0, 70, 45
2, 283302, Note_on_c, 0, 70, 0
2, 283385, Control_c, 0, 64, 0
2, 283692, Note_on_c, 0, 85, 60
2, 283696, Note_on_c, 0, 70, 61
2, 283883, Note_on_c, 0, 85, 0
2, 283913, Note_on_c, 0, 70, 0
2, 284200, Note_on_c, 0, 85, 70
2, 284229, Note_on_c, 0, 70, 38
2, 284910, Note_on_c, 0, 70, 0
2, 285062, Note_on_c, 0, 85, 0
2, 285127, Note_on_c, 0, 82, 39
2, 285512, Note_on_c, 0, 82, 0
2, 285589, Note_on_c, 0, 85, 74
2, 285598, Note_on_c, 0, 70, 61
2, 285611, Note_on_c, 0, 65, 43
2, 285665, Note_on_c, 0, 58, 21
2, 285681, Note_on_c, 0, 65, 0
2, 285750, Note_on_c, 0, 58, 0
2, 285861, Note_on_c, 0, 85, 0
2, 285921, Note_on_c, 0, 70, 0
2, 286073, Note_on_c, 0, 85, 45
2, 286093, Note_on_c, 0, 70, 35
2, 286933, Note_on_c, 0, 70, 0
2, 287046, Note_on_c, 0, 85, 0
2, 287065, Note_on_c, 0, 82, 34
2, 287080, Note_on_c, 0, 70, 48
2, 287358, Note_on_c, 0, 70, 0
2, 287437, Note_on_c, 0, 82, 0
2, 287573, Note_on_c, 0, 85, 73
2, 287577, Note_on_c, 0, 70, 71
2, 287790, Note_on_c, 0, 85, 0
2, 287800, Note_on_c, 0, 70, 0
2, 288030, Note_on_c, 0, 61, 57
2, 288033, Note_on_c, 0, 70, 67
2, 288037, Note_on_c, 0, 85, 60
2, 288053, Note_on_c, 0, 58, 48
2, 288054, Note_on_c, 0, 53, 43
2, 288134, Note_on_c, 0, 53, 0
2, 288169, Note_on_c, 0, 61, 0
2, 288302, Note_on_c, 0, 58, 0
2, 288773, Note_on_c, 0, 70, 0
2, 288859, Note_on_c, 0, 85, 0
2, 288976, Note_on_c, 0, 82, 43
2, 289195, Note_on_c, 0, 82, 0
2, 289460, Note_on_c, 0, 61, 71
2, 289462, Note_on_c, 0, 85, 78
2, 289465, Note_on_c, 0, 70, 73
2, 289473, Note_on_c, 0, 58, 61
2, 289477, Note_on_c, 0, 53, 64
2, 289701, Note_on_c, 0, 85, 0
2, 289705, Note_on_c, 0, 70, 0
2, 289798, Note_on_c, 0, 61, 0
2, 289934, Note_on_c, 0, 53, 0
2, 289942, Note_on_c, 0, 85, 69
2, 289945, Note_on_c, 0, 70, 67
2, 290147, Note_on_c, 0, 58, 0
2, 290574, Note_on_c, 0, 70, 0
2, 290659, Note_on_c, 0, 58, 26
2, 290789, Note_on_c, 0, 85, 0
2, 290835, Note_on_c, 0, 58, 0
2, 290905, Note_on_c, 0, 82, 60
2, 290910, Note_on_c, 0, 70, 39
2, 290993, Note_on_c, 0, 70, 0
2, 291112, Note_on_c, 0, 82, 0
2, 291363, Note_on_c, 0, 61, 50
2, 291366, Note_on_c, 0, 53, 51
2, 291399, Note_on_c, 0, 58, 47
2, 291509, Note_on_c, 0, 61, 0
2, 291510, Note_on_c, 0, 53, 0
2, 291579, Note_on_c, 0, 58, 0
2, 291886, Note_on_c, 0, 89, 91
2, 291893, Note_on_c, 0, 77, 88
2, 291899, Note_on_c, 0, 85, 67
2, 291901, Note_on_c, 0, 82, 61
2, 291902, Note_on_c, 0, 51, 67
2, 291904, Note_on_c, 0, 58, 71
2, 291907, Note_on_c, 0, 61, 76
2, 291918, Note_on_c, 0, 54, 39
2, 292060, Note_on_c, 0, 82, 0
2, 292128, Note_on_c, 0, 85, 0
2, 292133, Note_on_c, 0, 77, 0
2, 292134, Note_on_c, 0, 61, 0
2, 292155, Note_on_c, 0, 89, 0
2, 292158, Note_on_c, 0, 51, 0
2, 292174, Note_on_c, 0, 58, 0
2, 292205, Note_on_c, 0, 54, 0
2, 292805, Note_on_c, 0, 61, 65
2, 292806, Note_on_c, 0, 82, 72
2, 292809, Note_on_c, 0, 58, 60
2, 292813, Note_on_c, 0, 51, 54
2, 292814, Note_on_c, 0, 54, 34
2, 292816, Note_on_c, 0, 85, 67
2, 292819, Note_on_c, 0, 89, 72
2, 292821, Note_on_c, 0, 77, 78
2, 292837, Note_on_c, 0, 88, 71
2, 292883, Note_on_c, 0, 88, 0
2, 293771, Control_c, 0, 64, 127
2, 293845, Note_on_c, 0, 61, 0
2, 293868, Note_on_c, 0, 89, 0
2, 293947, Note_on_c, 0, 58, 0
2, 293952, Note_on_c, 0, 77, 0
2, 293985, Note_on_c, 0, 54, 0
2, 293992, Note_on_c, 0, 51, 0
2, 293993, Note_on_c, 0, 85, 0
2, 294033, Note_on_c, 0, 82, 0
2, 294281, Note_on_c, 0, 87, 90
2, 294286, Note_on_c, 0, 75, 93
2, 294288, Note_on_c, 0, 82, 88
2, 294292, Note_on_c, 0, 61, 84
2, 294299, Note_on_c, 0, 51, 75
2, 294307, Note_on_c, 0, 58, 72
2, 294315, Note_on_c, 0, 54, 48
2, 294349, Control_c, 0, 64, 0
2, 294669, Control_c, 0, 64, 127
2, 294766, Note_on_c, 0, 61, 0
2, 294791, Note_on_c, 0, 58, 0
2, 294838, Note_on_c, 0, 51, 0
2, 294846, Note_on_c, 0, 54, 0
2, 294873, Note_on_c, 0, 87, 0
2, 294889, Note_on_c, 0, 75, 0
2, 294907, Note_on_c, 0, 82, 0
2, 295251, Note_on_c, 0, 85, 85
2, 295256, Note_on_c, 0, 58, 75
2, 295257, Note_on_c, 0, 49, 82
2, 295261, Note_on_c, 0, 73, 79
2, 295264, Control_c, 0, 64, 0
2, 295267, Note_on_c, 0, 80, 87
2, 295648, Control_c, 0, 64, 127
2, 295777, Note_on_c, 0, 85, 0
2, 295792, Note_on_c, 0, 80, 0
2, 295806, Note_on_c, 0, 73, 0
2, 295832, Note_on_c, 0, 49, 0
2, 295835, Note_on_c, 0, 58, 0
2, 297077, Control_c, 0, 64, 0
2, 297117, Note_on_c, 0, 82, 96
2, 297118, Note_on_c, 0, 49, 91
2, 297121, Note_on_c, 0, 70, 106
2, 297123, Note_on_c, 0, 75, 100
2, 297133, Note_on_c, 0, 58, 92
2, 297379, Note_on_c, 0, 82, 0
2, 297419, Note_on_c, 0, 70, 0
2, 297449, Note_on_c, 0, 58, 0
2, 297470, Note_on_c, 0, 49, 0
2, 297487, Note_on_c, 0, 75, 0
2, 297603, Note_on_c, 0, 75, 74
2, 297608, Note_on_c, 0, 49, 59
2, 297609, Note_on_c, 0, 80, 67
2, 297613, Note_on_c, 0, 58, 50
2, 297619, Note_on_c, 0, 68, 50
2, 297684, Control_c, 0, 64, 127
2, 297971, Note_on_c, 0, 80, 0
2, 297977, Note_on_c, 0, 49, 0
2, 298009, Note_on_c, 0, 58, 0
2, 298029, Note_on_c, 0, 68, 0
2, 298041, Note_on_c, 0, 75, 0
2, 298197, Note_on_c, 0, 78, 57
2, 298208, Note_on_c, 0, 73, 61
2, 298209, Note_on_c, 0, 58, 55
2, 298213, Note_on_c, 0, 66, 56
2, 298214, Note_on_c, 0, 49, 67
2, 298230, Control_c, 0, 64, 0
2, 298488, Control_c, 0, 64, 127
2, 298595, Note_on_c, 0, 66, 0
2, 298630, Note_on_c, 0, 58, 0
2, 298659, Note_on_c, 0, 78, 0
2, 298680, Note_on_c, 0, 73, 0
2, 298755, Note_on_c, 0, 49, 0
2, 299120, Note_on_c, 0, 80, 77
2, 299134, Note_on_c, 0, 68, 61
2, 299139, Note_on_c, 0, 58, 54
2, 299145, Control_c, 0, 64, 0
2, 299161, Note_on_c, 0, 48, 47
2, 299449, Control_c, 0, 64, 127
2, 299736, Note_on_c, 0, 80, 0
2, 299782, Note_on_c, 0, 68, 0
2, 299894, Note_on_c, 0, 48, 0
2, 300053, Note_on_c, 0, 60, 84
2, 300054, Note_on_c, 0, 48, 53
2, 300107, Control_c, 0, 64, 0
2, 300505, Note_on_c, 0, 60, 0
2, 300552, Note_on_c, 0, 61, 61
2, 300705, Note_on_c, 0, 58, 0
2, 300960, Note_on_c, 0, 61, 0
2, 301030, Note_on_c, 0, 63, 86
2, 301046, Note_on_c, 0, 58, 62
2, 301056, Note_on_c, 0, 61, 48
2, 301115, Note_on_c, 0, 61, 0
2, 301157, Note_on_c, 0, 48, 0
2, 301321, Note_on_c, 0, 58, 0
2, 301387, Note_on_c, 0, 63, 0
2, 301491, Note_on_c, 0, 64, 70
2, 301887, Note_on_c, 0, 64, 0
2, 301963, Note_on_c, 0, 66, 60
2, 301977, Note_on_c, 0, 52, 40
2, 301979, Note_on_c, 0, 58, 48
2, 302047, Note_on_c, 0, 52, 0
2, 302185, Note_on_c, 0, 58, 0
2, 302321, Note_on_c, 0, 66, 0
2, 302406, Note_on_c, 0, 67, 55
2, 302809, Note_on_c, 0, 67, 0
2, 302899, Note_on_c, 0, 68, 77
2, 302925, Note_on_c, 0, 51, 43
2, 302936, Note_on_c, 0, 60, 53
2, 302945, Note_on_c, 0, 57, 51
2, 303038, Note_on_c, 0, 57, 0
2, 303057, Note_on_c, 0, 60, 0
2, 303117, Note_on_c, 0, 51, 0
2, 303270, Note_on_c, 0, 68, 0
2, 303385, Note_on_c, 0, 69, 41
2, 303753, Note_on_c, 0, 69, 0
2, 303824, Note_on_c, 0, 70, 69
2, 303829, Note_on_c, 0, 41, 75
2, 303958, Note_on_c, 0, 41, 0
2, 304214, Note_on_c, 0, 70, 0
2, 304273, Note_on_c, 0, 71, 76
2, 304694, Note_on_c, 0, 71, 0
2, 304801, Note_on_c, 0, 72, 98
2, 304825, Note_on_c, 0, 51, 44
2, 304827, Note_on_c, 0, 60, 59
2, 304828, Note_on_c, 0, 57, 58
2, 304925, Note_on_c, 0, 60, 0
2, 304953, Note_on_c, 0, 51, 0
2, 305021, Note_on_c, 0, 57, 0
2, 305160, Note_on_c, 0, 72, 0
2, 305261, Note_on_c, 0, 69, 71
2, 305685, Note_on_c, 0, 69, 0
2, 305753, Note_on_c, 0, 66, 73
2, 305766, Note_on_c, 0, 57, 64
2, 305771, Note_on_c, 0, 60, 58
2, 305800, Note_on_c, 0, 51, 25
2, 305825, Note_on_c, 0, 60, 0
2, 305854, Note_on_c, 0, 51, 0
2, 305904, Note_on_c, 0, 57, 0
2, 306141, Note_on_c, 0, 66, 0
2, 306184, Note_on_c, 0, 65, 39
2, 306544, Note_on_c, 0, 65, 0
2, 306702, Note_on_c, 0, 63, 65
2, 306742, Note_on_c, 0, 46, 54
2, 306743, Note_on_c, 0, 53, 59
2, 306924, Note_on_c, 0, 46, 0
2, 306989, Note_on_c, 0, 63, 0
2, 306990, Note_on_c, 0, 53, 0
2, 307135, Note_on_c, 0, 53, 9
2, 307177, Note_on_c, 0, 61, 76
2, 307443, Note_on_c, 0, 61, 0
2, 307518, Note_on_c, 0, 63, 52
2, 307637, Note_on_c, 0, 61, 42
2, 307757, Note_on_c, 0, 63, 0
2, 307825, Note_on_c, 0, 60, 47
2, 307867, Note_on_c, 0, 61, 0
2, 308145, Note_on_c, 0, 53, 0
2, 308259, Note_on_c, 0, 60, 0
2, 308728, Note_on_c, 0, 57, 68
2, 309131, Note_on_c, 0, 57, 0
2, 309476, Note_on_c, 0, 60, 83
2, 309525, Note_on_c, 0, 46, 26
2, 309585, Note_on_c, 0, 53, 20
2, 309653, Note_on_c, 0, 60, 0
2, 309700, Note_on_c, 0, 57, 62
2, 309747, Note_on_c, 0, 46, 0
2, 309849, Note_on_c, 0, 57, 0
2, 309955, Note_on_c, 0, 58, 54
2, 310089, Note_on_c, 0, 58, 0
2, 310150, Note_on_c, 0, 60, 69
2, 310267, Note_on_c, 0, 53, 0
2, 310392, Note_on_c, 0, 61, 94
2, 310445, Note_on_c, 0, 60, 0
2, 310553, Note_on_c, 0, 61, 0
2, 310625, Note_on_c, 0, 63, 87
2, 310875, Note_on_c, 0, 63, 0
2, 310903, Note_on_c, 0, 61, 73
2, 311051, Note_on_c, 0, 61, 0
2, 311117, Note_on_c, 0, 62, 70
2, 311461, Note_on_c, 0, 62, 0
2, 311531, Note_on_c, 0, 56, 65
2, 311534, Note_on_c, 0, 46, 60
2, 311539, Note_on_c, 0, 65, 80
2, 311640, Note_on_c, 0, 56, 0
2, 311680, Note_on_c, 0, 46, 0
2, 311929, Note_on_c, 0, 65, 0
2, 312056, Note_on_c, 0, 67, 27
2, 312315, Note_on_c, 0, 67, 0
2, 312489, Note_on_c, 0, 68, 78
2, 312878, Note_on_c, 0, 68, 0
2, 312958, Note_on_c, 0, 56, 50
2, 312971, Note_on_c, 0, 67, 31
2, 312984, Note_on_c, 0, 65, 28
2, 312992, Note_on_c, 0, 62, 52
2, 313011, Note_on_c, 0, 69, 57
2, 313131, Note_on_c, 0, 65, 0
2, 313321, Note_on_c, 0, 69, 0
2, 313462, Note_on_c, 0, 74, 85
2, 313595, Note_on_c, 0, 67, 0
2, 313701, Note_on_c, 0, 74, 0
2, 313885, Note_on_c, 0, 62, 0
2, 313910, Note_on_c, 0, 77, 103
2, 313981, Note_on_c, 0, 56, 0
2, 314379, Note_on_c, 0, 74, 55
2, 314382, Note_on_c, 0, 77, 0
2, 314791, Note_on_c, 0, 74, 0
2, 314864, Note_on_c, 0, 75, 79
2, 315256, Note_on_c, 0, 75, 0
2, 315329, Note_on_c, 0, 54, 35
2, 315339, Note_on_c, 0, 39, 39
2, 315638, Note_on_c, 0, 54, 0
2, 315705, Note_on_c, 0, 39, 0
2, 315824, Note_on_c, 0, 70, 35
2, 316128, Note_on_c, 0, 70, 0
2, 316309, Note_on_c, 0, 70, 40
2, 316544, Note_on_c, 0, 70, 0
2, 316790, Note_on_c, 0, 66, 67
2, 316809, Note_on_c, 0, 55, 73
2, 316819, Note_on_c, 0, 61, 51
2, 316838, Note_on_c, 0, 75, 49
2, 316901, Note_on_c, 0, 81, 39
2, 317107, Note_on_c, 0, 69, 3
2, 317134, Note_on_c, 0, 81, 0
2, 317143, Note_on_c, 0, 55, 0
2, 317190, Note_on_c, 0, 69, 0
2, 317201, Note_on_c, 0, 66, 0
2, 317219, Note_on_c, 0, 75, 0
2, 317257, Note_on_c, 0, 61, 0
2, 317337, Note_on_c, 0, 66, 68
2, 317342, Note_on_c, 0, 81, 69
2, 317344, Note_on_c, 0, 61, 26
2, 317345, Note_on_c, 0, 75, 77
2, 317353, Note_on_c, 0, 55, 73
2, 317361, Note_on_c, 0, 69, 54
2, 317553, Note_on_c, 0, 81, 0
2, 317589, Note_on_c, 0, 55, 0
2, 317590, Note_on_c, 0, 69, 0
2, 317680, Note_on_c, 0, 66, 0
2, 317715, Note_on_c, 0, 75, 0
2, 317736, Note_on_c, 0, 61, 0
2, 317817, Note_on_c, 0, 80, 68
2, 317827, Note_on_c, 0, 68, 67
2, 317829, Note_on_c, 0, 75, 70
2, 317841, Note_on_c, 0, 65, 29
2, 317854, Note_on_c, 0, 54, 27
2, 317888, Note_on_c, 0, 60, 69
2, 318091, Note_on_c, 0, 80, 0
2, 318141, Note_on_c, 0, 65, 0
2, 318153, Note_on_c, 0, 68, 0
2, 318158, Note_on_c, 0, 54, 0
2, 318173, Note_on_c, 0, 75, 0
2, 318192, Note_on_c, 0, 60, 0
2, 318287, Note_on_c, 0, 80, 67
2, 318293, Note_on_c, 0, 75, 74
2, 318296, Note_on_c, 0, 65, 72
2, 318301, Note_on_c, 0, 68, 57
2, 318307, Note_on_c, 0, 54, 42
2, 318334, Note_on_c, 0, 60, 79
2, 318576, Note_on_c, 0, 68, 0
2, 318592, Note_on_c, 0, 60, 0
2, 318613, Note_on_c, 0, 65, 0
2, 318624, Note_on_c, 0, 80, 0
2, 318627, Note_on_c, 0, 75, 0
2, 318661, Note_on_c, 0, 54, 0
2, 319261, Note_on_c, 0, 75, 94
2, 319263, Note_on_c, 0, 82, 85
2, 319267, Note_on_c, 0, 70, 90
2, 319270, Note_on_c, 0, 60, 77
2, 319275, Note_on_c, 0, 54, 77
2, 319278, Note_on_c, 0, 65, 78
2, 319635, Note_on_c, 0, 75, 0
2, 319654, Note_on_c, 0, 70, 0
2, 319699, Note_on_c, 0, 82, 0
2, 319715, Note_on_c, 0, 60, 0
2, 319717, Note_on_c, 0, 65, 0
2, 319758, Control_c, 0, 64, 127
2, 319780, Note_on_c, 0, 54, 0
2, 320014, Control_c, 0, 64, 0
2, 320198, Note_on_c, 0, 54, 77
2, 320200, Note_on_c, 0, 84, 96
2, 320201, Note_on_c, 0, 65, 83
2, 320203, Note_on_c, 0, 72, 101
2, 320217, Note_on_c, 0, 60, 74
2, 320433, Note_on_c, 0, 84, 0
2, 320446, Note_on_c, 0, 72, 0
2, 320497, Note_on_c, 0, 65, 0
2, 320558, Note_on_c, 0, 54, 0
2, 320566, Note_on_c, 0, 60, 0
2, 320718, Note_on_c, 0, 73, 64
2, 320721, Note_on_c, 0, 85, 73
2, 320749, Note_on_c, 0, 82, 43
2, 320758, Note_on_c, 0, 54, 71
2, 320760, Note_on_c, 0, 64, 80
2, 320761, Note_on_c, 0, 79, 48
2, 320781, Note_on_c, 0, 60, 63
2, 320840, Note_on_c, 0, 86, 43
2, 320875, Note_on_c, 0, 73, 0
2, 320881, Control_c, 0, 64, 127
2, 320889, Note_on_c, 0, 74, 67
2, 320913, Note_on_c, 0, 85, 0
2, 320973, Note_on_c, 0, 74, 0
2, 320987, Note_on_c, 0, 79, 0
2, 321032, Note_on_c, 0, 82, 0
2, 321051, Note_on_c, 0, 86, 0
2, 321091, Note_on_c, 0, 64, 0
2, 321150, Note_on_c, 0, 54, 0
2, 321158, Note_on_c, 0, 60, 0
2, 321265, Control_c, 0, 64, 0
2, 321342, Note_on_c, 0, 89, 82
2, 321349, Note_on_c, 0, 77, 75
2, 321358, Note_on_c, 0, 54, 61
2, 321363, Note_on_c, 0, 64, 78
2, 321366, Note_on_c, 0, 84, 70
2, 321377, Note_on_c, 0, 60, 69
2, 321517, Note_on_c, 0, 77, 0
2, 321555, Note_on_c, 0, 84, 0
2, 321571, Control_c, 0, 64, 127
2, 321597, Note_on_c, 0, 64, 0
2, 321598, Note_on_c, 0, 89, 0
2, 321612, Note_on_c, 0, 60, 0
2, 321686, Note_on_c, 0, 54, 0
2, 322001, Note_on_c, 0, 96, 83
2, 322009, Note_on_c, 0, 54, 70
2, 322022, Note_on_c, 0, 84, 89
2, 322025, Note_on_c, 0, 60, 76
2, 322027, Note_on_c, 0, 64, 81
2, 322185, Note_on_c, 0, 96, 0
2, 322195, Note_on_c, 0, 64, 0
2, 322312, Note_on_c, 0, 54, 0
2, 322331, Note_on_c, 0, 84, 0
2, 322405, Control_c, 0, 64, 0
2, 322419, Note_on_c, 0, 60, 0
2, 322577, Note_on_c, 0, 92, 65
2, 322579, Note_on_c, 0, 60, 67
2, 322596, Note_on_c, 0, 63, 77
2, 322605, Note_on_c, 0, 80, 80
2, 322608, Note_on_c, 0, 53, 69
2, 322627, Note_on_c, 0, 56, 59
2, 323047, Note_on_c, 0, 92, 0
2, 323175, Note_on_c, 0, 80, 0
2, 323270, Note_on_c, 0, 56, 0
2, 323286, Note_on_c, 0, 53, 0
2, 323291, Note_on_c, 0, 63, 0
2, 323366, Note_on_c, 0, 60, 0
2, 323526, Note_on_c, 0, 63, 29
2, 323528, Note_on_c, 0, 60, 43
2, 323529, Note_on_c, 0, 53, 29
2, 323531, Note_on_c, 0, 89, 63
2, 323549, Note_on_c, 0, 56, 49
2, 323565, Note_on_c, 0, 77, 40
2, 323704, Note_on_c, 0, 53, 0
2, 323721, Note_on_c, 0, 77, 0
2, 323787, Note_on_c, 0, 89, 0
2, 323835, Note_on_c, 0, 56, 0
2, 323891, Note_on_c, 0, 63, 0
2, 324040, Note_on_c, 0, 53, 55
2, 324107, Note_on_c, 0, 56, 20
2, 324166, Note_on_c, 0, 60, 0
2, 324192, Note_on_c, 0, 53, 0
2, 324208, Note_on_c, 0, 56, 0
2, 325070, Note_on_c, 0, 53, 70
2, 325077, Note_on_c, 0, 91, 82
2, 325078, Note_on_c, 0, 64, 56
2, 325081, Note_on_c, 0, 59, 70
2, 325091, Note_on_c, 0, 79, 82
2, 325257, Note_on_c, 0, 79, 0
2, 325349, Note_on_c, 0, 91, 0
2, 325421, Control_c, 0, 64, 127
2, 325505, Note_on_c, 0, 53, 0
2, 325528, Note_on_c, 0, 64, 0
2, 325534, Note_on_c, 0, 59, 0
2, 325955, Note_on_c, 0, 58, 86
2, 325960, Note_on_c, 0, 63, 94
2, 325961, Note_on_c, 0, 101, 80
2, 325968, Note_on_c, 0, 52, 89
2, 325969, Note_on_c, 0, 89, 98
2, 325998, Control_c, 0, 64, 0
2, 326016, Note_on_c, 0, 96, 28
2, 326072, Note_on_c, 0, 96, 0
2, 326494, Note_on_c, 0, 52, 0
2, 326495, Note_on_c, 0, 89, 0
2, 326534, Note_on_c, 0, 101, 0
2, 326536, Note_on_c, 0, 63, 0
2, 326553, Note_on_c, 0, 58, 0
2, 327872, Note_on_c, 0, 63, 80
2, 327883, Note_on_c, 0, 53, 67
2, 327887, Note_on_c, 0, 58, 77
2, 327896, Note_on_c, 0, 102, 92
2, 327898, Note_on_c, 0, 90, 94
2, 327904, Note_on_c, 0, 97, 92
2, 328349, Note_on_c, 0, 53, 0
2, 328350, Note_on_c, 0, 90, 0
2, 328357, Note_on_c, 0, 97, 0
2, 328371, Note_on_c, 0, 63, 0
2, 328405, Note_on_c, 0, 102, 0
2, 328422, Note_on_c, 0, 58, 0
2, 328577, Note_on_c, 0, 63, 82
2, 328584, Note_on_c, 0, 53, 78
2, 328585, Note_on_c, 0, 58, 73
2, 328587, Note_on_c, 0, 104, 87
2, 328589, Note_on_c, 0, 92, 85
2, 328601, Note_on_c, 0, 99, 77
2, 328931, Note_on_c, 0, 104, 0
2, 328973, Note_on_c, 0, 53, 0
2, 328989, Note_on_c, 0, 92, 0
2, 328995, Note_on_c, 0, 99, 0
2, 329006, Note_on_c, 0, 63, 0
2, 329017, Note_on_c, 0, 58, 0
2, 329255, Note_on_c, 0, 63, 77
2, 329262, Note_on_c, 0, 102, 85
2, 329272, Note_on_c, 0, 90, 80
2, 329273, Note_on_c, 0, 58, 70
2, 329278, Note_on_c, 0, 53, 66
2, 329283, Note_on_c, 0, 97, 80
2, 329456, Note_on_c, 0, 53, 0
2, 329537, Note_on_c, 0, 102, 0
2, 329550, Note_on_c, 0, 63, 0
2, 329588, Note_on_c, 0, 90, 0
2, 329601, Note_on_c, 0, 97, 0
2, 329605, Note_on_c, 0, 58, 0
2, 329878, Note_on_c, 0, 58, 76
2, 329885, Note_on_c, 0, 99, 83
2, 329886, Note_on_c, 0, 63, 78
2, 329893, Note_on_c, 0, 52, 68
2, 329901, Note_on_c, 0, 87, 69
2, 329910, Note_on_c, 0, 94, 74
2, 331055, Note_on_c, 0, 99, 0
2, 331086, Note_on_c, 0, 52, 0
2, 331128, Note_on_c, 0, 94, 0
2, 331129, Note_on_c, 0, 63, 0
2, 331142, Note_on_c, 0, 87, 0
2, 331161, Note_on_c, 0, 58, 0
2, 331270, Note_on_c, 0, 97, 62
2, 331272, Note_on_c, 0, 63, 43
2, 331273, Note_on_c, 0, 85, 64
2, 331286, Note_on_c, 0, 52, 46
2, 331294, Note_on_c, 0, 58, 64
2, 331323, Note_on_c, 0, 92, 37
2, 331377, Note_on_c, 0, 92, 0
2, 331411, Note_on_c, 0, 52, 0
2, 331421, Note_on_c, 0, 85, 0
2, 331453, Note_on_c, 0, 63, 0
2, 331497, Note_on_c, 0, 58, 0
2, 331512, Note_on_c, 0, 97, 0
2, 331795, Note_on_c, 0, 63, 87
2, 331809, Note_on_c, 0, 58, 75
2, 331811, Note_on_c, 0, 52, 77
2, 331814, Note_on_c, 0, 99, 85
2, 331816, Note_on_c, 0, 87, 85
2, 331827, Note_on_c, 0, 94, 83
2, 332227, Note_on_c, 0, 58, 0
2, 332229, Note_on_c, 0, 52, 0
2, 332275, Note_on_c, 0, 99, 0
2, 332278, Note_on_c, 0, 63, 0
2, 332293, Note_on_c, 0, 94, 0
2, 332305, Note_on_c, 0, 87, 0
2, 332749, Note_on_c, 0, 97, 80
2, 332750, Note_on_c, 0, 85, 73
2, 332753, Note_on_c, 0, 63, 86
2, 332763, Note_on_c, 0, 58, 74
2, 332766, Note_on_c, 0, 92, 73
2, 332768, Note_on_c, 0, 52, 80
2, 333045, Note_on_c, 0, 85, 0
2, 333072, Note_on_c, 0, 92, 0
2, 333104, Note_on_c, 0, 97, 0
2, 333144, Note_on_c, 0, 52, 0
2, 333221, Note_on_c, 0, 63, 0
2, 333347, Note_on_c, 0, 58, 0
2, 333697, Note_on_c, 0, 87, 94
2, 333699, Note_on_c, 0, 99, 94
2, 333712, Note_on_c, 0, 94, 84
2, 333715, Note_on_c, 0, 51, 85
2, 333717, Note_on_c, 0, 57, 88
2, 333718, Note_on_c, 0, 62, 100
2, 334094, Note_on_c, 0, 57, 0
2, 334120, Note_on_c, 0, 62, 0
2, 334155, Note_on_c, 0, 51, 0
2, 334195, Note_on_c, 0, 94, 0
2, 334200, Note_on_c, 0, 87, 0
2, 334213, Note_on_c, 0, 99, 0
2, 334624, Note_on_c, 0, 62, 100
2, 334625, Note_on_c, 0, 85, 88
2, 334629, Note_on_c, 0, 97, 91
2, 334630, Note_on_c, 0, 51, 85
2, 334641, Note_on_c, 0, 92, 83
2, 334643, Note_on_c, 0, 57, 82
2, 334805, Note_on_c, 0, 85, 0
2, 334885, Note_on_c, 0, 92, 0
2, 334889, Note_on_c, 0, 97, 0
2, 334899, Note_on_c, 0, 62, 0
2, 334923, Note_on_c, 0, 51, 0
2, 334971, Note_on_c, 0, 57, 0
2, 335088, Note_on_c, 0, 99, 91
2, 335089, Note_on_c, 0, 62, 85
2, 335091, Note_on_c, 0, 51, 82
2, 335097, Note_on_c, 0, 87, 80
2, 335099, Note_on_c, 0, 94, 83
2, 335107, Note_on_c, 0, 57, 76
2, 335305, Note_on_c, 0, 99, 0
2, 335344, Note_on_c, 0, 87, 0
2, 335358, Note_on_c, 0, 62, 0
2, 335367, Note_on_c, 0, 51, 0
2, 335371, Note_on_c, 0, 94, 0
2, 335403, Note_on_c, 0, 57, 0
2, 335557, Note_on_c, 0, 51, 74
2, 335558, Note_on_c, 0, 62, 76
2, 335561, Note_on_c, 0, 97, 59
2, 335576, Note_on_c, 0, 85, 48
2, 335582, Note_on_c, 0, 57, 57
2, 335678, Note_on_c, 0, 85, 0
2, 335689, Note_on_c, 0, 62, 0
2, 335729, Note_on_c, 0, 97, 0
2, 335733, Note_on_c, 0, 51, 0
2, 335742, Note_on_c, 0, 57, 0
2, 335993, Note_on_c, 0, 99, 99
2, 335998, Note_on_c, 0, 87, 103
2, 336005, Note_on_c, 0, 51, 90
2, 336006, Note_on_c, 0, 94, 92
2, 336009, Note_on_c, 0, 62, 100
2, 336014, Note_on_c, 0, 57, 93
2, 336305, Note_on_c, 0, 51, 0
2, 336312, Note_on_c, 0, 99, 0
2, 336313, Note_on_c, 0, 87, 0
2, 336332, Note_on_c, 0, 62, 0
2, 336369, Note_on_c, 0, 94, 0
2, 336395, Note_on_c, 0, 57, 0
2, 336499, Note_on_c, 0, 62, 90
2, 336502, Note_on_c, 0, 99, 77
2, 336507, Note_on_c, 0, 51, 73
2, 336513, Note_on_c, 0, 57, 87
2, 336518, Note_on_c, 0, 94, 60
2, 336520, Note_on_c, 0, 87, 78
2, 336686, Note_on_c, 0, 99, 0
2, 336718, Note_on_c, 0, 62, 0
2, 336766, Note_on_c, 0, 87, 0
2, 336789, Note_on_c, 0, 94, 0
2, 336849, Note_on_c, 0, 57, 0
2, 336953, Note_on_c, 0, 62, 89
2, 336961, Note_on_c, 0, 97, 72
2, 336966, Note_on_c, 0, 57, 26
2, 336975, Note_on_c, 0, 92, 79
2, 336983, Note_on_c, 0, 85, 65
2, 337039, Note_on_c, 0, 57, 0
2, 337049, Note_on_c, 0, 51, 0
2, 337084, Note_on_c, 0, 97, 0
2, 337101, Note_on_c, 0, 92, 0
2, 337102, Note_on_c, 0, 85, 0
2, 337131, Note_on_c, 0, 62, 0
2, 337513, Note_on_c, 0, 65, 90
2, 337515, Note_on_c, 0, 56, 80
2, 337517, Note_on_c, 0, 61, 76
2, 337528, Note_on_c, 0, 60, 85
2, 337529, Note_on_c, 0, 82, 99
2, 337531, Note_on_c, 0, 94, 96
2, 337547, Note_on_c, 0, 87, 85
2, 337601, Note_on_c, 0, 87, 0
2, 337657, Note_on_c, 0, 87, 22
2, 337843, Control_c, 0, 64, 127
2, 338101, Note_on_c, 0, 65, 0
2, 338109, Note_on_c, 0, 60, 0
2, 338112, Note_on_c, 0, 87, 0
2, 338131, Note_on_c, 0, 61, 0
2, 338139, Note_on_c, 0, 56, 0
2, 338145, Note_on_c, 0, 82, 0
2, 338147, Note_on_c, 0, 94, 0
2, 338443, Note_on_c, 0, 65, 70
2, 338449, Note_on_c, 0, 61, 61
2, 338453, Note_on_c, 0, 94, 65
2, 338459, Note_on_c, 0, 56, 50
2, 338472, Note_on_c, 0, 60, 60
2, 338478, Note_on_c, 0, 87, 65
2, 338481, Note_on_c, 0, 82, 54
2, 338529, Note_on_c, 0, 60, 0
2, 338600, Note_on_c, 0, 94, 0
2, 338630, Note_on_c, 0, 65, 0
2, 338659, Note_on_c, 0, 56, 0
2, 338679, Note_on_c, 0, 82, 0
2, 338776, Note_on_c, 0, 87, 0
2, 338792, Note_on_c, 0, 61, 0
2, 338854, Control_c, 0, 64, 0
2, 338909, Note_on_c, 0, 92, 45
2, 338928, Note_on_c, 0, 87, 34
2, 338933, Note_on_c, 0, 61, 56
2, 338934, Note_on_c, 0, 65, 51
2, 338937, Note_on_c, 0, 56, 42
2, 338952, Note_on_c, 0, 60, 24
2, 338958, Note_on_c, 0, 80, 25
2, 339128, Control_c, 0, 64, 127
2, 339217, Note_on_c, 0, 80, 0
2, 339221, Note_on_c, 0, 87, 0
2, 339257, Note_on_c, 0, 65, 0
2, 339262, Note_on_c, 0, 56, 0
2, 339270, Note_on_c, 0, 92, 0
2, 339291, Note_on_c, 0, 60, 0
2, 339353, Note_on_c, 0, 61, 0
2, 339444, Note_on_c, 0, 82, 72
2, 339446, Note_on_c, 0, 94, 82
2, 339459, Note_on_c, 0, 87, 81
2, 339465, Note_on_c, 0, 65, 74
2, 339467, Note_on_c, 0, 61, 74
2, 339469, Note_on_c, 0, 56, 72
2, 339480, Control_c, 0, 64, 0
2, 339481, Note_on_c, 0, 60, 73
2, 339751, Control_c, 0, 64, 127
2, 340003, Note_on_c, 0, 94, 0
2, 340072, Note_on_c, 0, 87, 0
2, 340080, Note_on_c, 0, 82, 0
2, 340160, Note_on_c, 0, 56, 0
2, 340200, Note_on_c, 0, 65, 0
2, 340265, Note_on_c, 0, 60, 0
2, 340341, Note_on_c, 0, 61, 0
2, 340435, Note_on_c, 0, 61, 40
2, 340447, Note_on_c, 0, 56, 73
2, 340457, Note_on_c, 0, 60, 60
2, 340510, Note_on_c, 0, 60, 0
2, 340597, Note_on_c, 0, 61, 0
2, 340683, Note_on_c, 0, 56, 0
2, 341324, Control_c, 0, 64, 0
2, 341347, Note_on_c, 0, 68, 88
2, 341353, Note_on_c, 0, 61, 90
2, 341358, Note_on_c, 0, 57, 96
2, 341363, Note_on_c, 0, 63, 74
2, 341369, Note_on_c, 0, 58, 103
2, 341401, Note_on_c, 0, 59, 56
2, 341456, Note_on_c, 0, 59, 0
2, 342030, Note_on_c, 0, 57, 0
2, 342065, Note_on_c, 0, 61, 0
2, 342086, Note_on_c, 0, 63, 0
2, 342097, Note_on_c, 0, 68, 0
2, 342104, Note_on_c, 0, 58, 0
2, 342273, Note_on_c, 0, 58, 78
2, 342289, Note_on_c, 0, 68, 74
2, 342293, Note_on_c, 0, 61, 79
2, 342305, Note_on_c, 0, 63, 65
2, 342307, Note_on_c, 0, 57, 77
2, 342526, Note_on_c, 0, 57, 0
2, 342617, Note_on_c, 0, 68, 0
2, 342670, Note_on_c, 0, 58, 0
2, 342732, Note_on_c, 0, 56, 63
2, 342742, Note_on_c, 0, 57, 52
2, 342757, Note_on_c, 0, 66, 28
2, 343016, Note_on_c, 0, 57, 0
2, 343092, Note_on_c, 0, 61, 0
2, 343163, Note_on_c, 0, 66, 0
2, 343181, Note_on_c, 0, 63, 0
2, 343295, Note_on_c, 0, 61, 74
2, 343304, Note_on_c, 0, 68, 67
2, 343307, Note_on_c, 0, 63, 73
2, 343309, Note_on_c, 0, 57, 75
2, 343313, Note_on_c, 0, 58, 73
2, 343384, Note_on_c, 0, 56, 0
2, 343685, Control_c, 0, 64, 127
2, 343704, Note_on_c, 0, 58, 0
2, 343784, Note_on_c, 0, 57, 0
2, 343909, Note_on_c, 0, 61, 0
2, 343966, Note_on_c, 0, 63, 0
2, 344064, Note_on_c, 0, 68, 0
2, 344277, Note_on_c, 0, 56, 72
2, 344485, Note_on_c, 0, 56, 0
2, 344742, Note_on_c, 0, 77, 96
2, 344790, Control_c, 0, 64, 0
2, 344888, Note_on_c, 0, 77, 0
2, 345006, Note_on_c, 0, 77, 83
2, 345193, Note_on_c, 0, 77, 0
2, 345251, Note_on_c, 0, 72, 76
2, 345515, Note_on_c, 0, 65, 48
2, 345520, Note_on_c, 0, 61, 46
2, 345553, Note_on_c, 0, 60, 49
2, 346062, Note_on_c, 0, 72, 0
2, 346136, Note_on_c, 0, 75, 85
2, 346285, Note_on_c, 0, 75, 0
2, 346381, Note_on_c, 0, 75, 80
2, 346605, Note_on_c, 0, 75, 0
2, 346654, Note_on_c, 0, 70, 86
2, 346821, Note_on_c, 0, 65, 0
2, 346942, Note_on_c, 0, 61, 0
2, 347029, Note_on_c, 0, 60, 0
2, 347203, Note_on_c, 0, 61, 22
2, 347369, Note_on_c, 0, 61, 0
2, 347478, Note_on_c, 0, 70, 0
2, 347561, Note_on_c, 0, 73, 70
2, 347702, Note_on_c, 0, 73, 0
2, 347821, Note_on_c, 0, 73, 54
2, 348064, Note_on_c, 0, 73, 0
2, 348112, Note_on_c, 0, 68, 53
2, 348265, Note_on_c, 0, 61, 34
2, 348289, Note_on_c, 0, 65, 32
2, 348333, Note_on_c, 0, 68, 0
2, 348424, Note_on_c, 0, 65, 0
2, 348488, Note_on_c, 0, 61, 0
2, 348998, Note_on_c, 0, 68, 67
2, 349139, Note_on_c, 0, 68, 0
2, 349281, Note_on_c, 0, 70, 84
2, 349496, Note_on_c, 0, 70, 0
2, 349541, Note_on_c, 0, 63, 25
2, 349542, Note_on_c, 0, 60, 41
2, 349545, Note_on_c, 0, 68, 64
2, 349574, Note_on_c, 0, 56, 30
2, 349913, Note_on_c, 0, 63, 0
2, 350051, Note_on_c, 0, 65, 45
2, 350089, Note_on_c, 0, 68, 0
2, 350197, Note_on_c, 0, 65, 0
2, 350523, Note_on_c, 0, 65, 43
2, 350608, Note_on_c, 0, 60, 0
2, 350641, Note_on_c, 0, 56, 0
2, 350670, Note_on_c, 0, 65, 0
2, 350995, Note_on_c, 0, 63, 38
2, 351006, Note_on_c, 0, 60, 44
2, 351009, Note_on_c, 0, 56, 38
2, 351110, Note_on_c, 0, 63, 0
2, 351153, Note_on_c, 0, 60, 0
2, 351203, Note_on_c, 0, 56, 0
2, 351901, Note_on_c, 0, 63, 50
2, 351929, Note_on_c, 0, 56, 38
2, 351936, Note_on_c, 0, 60, 29
2, 352251, Note_on_c, 0, 60, 0
2, 352343, Note_on_c, 0, 63, 0
2, 352482, Note_on_c, 0, 56, 0
2, 352856, Note_on_c, 0, 64, 56
2, 352873, Note_on_c, 0, 58, 26
2, 352902, Note_on_c, 0, 60, 41
2, 352917, Note_on_c, 0, 55, 41
2, 353376, Note_on_c, 0, 87, 95
2, 353513, Note_on_c, 0, 87, 0
2, 353518, Note_on_c, 0, 64, 0
2, 353581, Note_on_c, 0, 60, 0
2, 353608, Note_on_c, 0, 88, 84
2, 353651, Note_on_c, 0, 58, 0
2, 353789, Note_on_c, 0, 88, 0
2, 353809, Note_on_c, 0, 87, 72
2, 354059, Note_on_c, 0, 85, 63
2, 354061, Note_on_c, 0, 87, 0
2, 354109, Note_on_c, 0, 64, 25
2, 354145, Note_on_c, 0, 60, 22
2, 354174, Note_on_c, 0, 64, 0
2, 354197, Note_on_c, 0, 58, 18
2, 354254, Note_on_c, 0, 85, 0
2, 354293, Note_on_c, 0, 60, 0
2, 354297, Note_on_c, 0, 84, 31
2, 354315, Note_on_c, 0, 55, 0
2, 354318, Note_on_c, 0, 58, 0
2, 354454, Note_on_c, 0, 84, 0
2, 354739, Note_on_c, 0, 82, 73
2, 354916, Note_on_c, 0, 82, 0
2, 355208, Note_on_c, 0, 81, 77
2, 355392, Note_on_c, 0, 81, 0
2, 355673, Note_on_c, 0, 79, 64
2, 355749, Note_on_c, 0, 64, 63
2, 355777, Note_on_c, 0, 58, 31
2, 355787, Note_on_c, 0, 60, 35
2, 355827, Note_on_c, 0, 64, 0
2, 355861, Note_on_c, 0, 60, 0
2, 355915, Note_on_c, 0, 79, 0
2, 356126, Note_on_c, 0, 80, 79
2, 356127, Note_on_c, 0, 58, 0
2, 356296, Note_on_c, 0, 80, 0
2, 356368, Note_on_c, 0, 81, 81
2, 356545, Note_on_c, 0, 81, 0
2, 356617, Note_on_c, 0, 80, 87
2, 356814, Note_on_c, 0, 80, 0
2, 356861, Note_on_c, 0, 78, 71
2, 357037, Note_on_c, 0, 60, 31
2, 357040, Note_on_c, 0, 63, 29
2, 357041, Note_on_c, 0, 54, 28
2, 357069, Note_on_c, 0, 78, 0
2, 357113, Note_on_c, 0, 77, 55
2, 357131, Note_on_c, 0, 63, 0
2, 357212, Note_on_c, 0, 60, 0
2, 357264, Note_on_c, 0, 54, 0
2, 357401, Note_on_c, 0, 77, 0
2, 357577, Note_on_c, 0, 75, 73
2, 357827, Note_on_c, 0, 75, 0
2, 358044, Note_on_c, 0, 74, 70
2, 358065, Note_on_c, 0, 77, 46
2, 358411, Note_on_c, 0, 74, 0
2, 358510, Note_on_c, 0, 77, 0
2, 358517, Note_on_c, 0, 72, 64
2, 358523, Note_on_c, 0, 60, 18
2, 358537, Note_on_c, 0, 63, 42
2, 358683, Note_on_c, 0, 63, 0
2, 358846, Note_on_c, 0, 72, 0
2, 359001, Note_on_c, 0, 71, 74
2, 359277, Note_on_c, 0, 60, 0
2, 359424, Note_on_c, 0, 71, 0
2, 359511, Note_on_c, 0, 69, 71
2, 359537, Note_on_c, 0, 63, 63
2, 359549, Note_on_c, 0, 60, 54
2, 359661, Note_on_c, 0, 63, 0
2, 359867, Note_on_c, 0, 69, 0
2, 359987, Note_on_c, 0, 68, 62
2, 360064, Note_on_c, 0, 60, 0
2, 360453, Note_on_c, 0, 68, 0
2, 360494, Note_on_c, 0, 66, 67
2, 360832, Note_on_c, 0, 66, 0
2, 360968, Note_on_c, 0, 53, 41
2, 360969, Note_on_c, 0, 65, 61
2, 360971, Note_on_c, 0, 58, 42
2, 361121, Note_on_c, 0, 58, 0
2, 361150, Note_on_c, 0, 53, 0
2, 361360, Note_on_c, 0, 65, 0
2, 361457, Note_on_c, 0, 61, 70
2, 361784, Note_on_c, 0, 61, 0
2, 361984, Note_on_c, 0, 60, 48
2, 362407, Note_on_c, 0, 60, 0
2, 362485, Note_on_c, 0, 61, 67
2, 362493, Note_on_c, 0, 53, 55
2, 362564, Note_on_c, 0, 53, 0
2, 362985, Note_on_c, 0, 57, 43
2, 362992, Note_on_c, 0, 61, 0
2, 363403, Note_on_c, 0, 57, 0
2, 363460, Note_on_c, 0, 60, 78
2, 363485, Note_on_c, 0, 53, 46
2, 363569, Note_on_c, 0, 53, 0
2, 363846, Note_on_c, 0, 60, 0
2, 363968, Note_on_c, 0, 57, 49
2, 364363, Note_on_c, 0, 57, 0
2, 364399, Note_on_c, 0, 58, 78
2, 364408, Note_on_c, 0, 53, 59
2, 364512, Note_on_c, 0, 53, 0
2, 364750, Note_on_c, 0, 58, 0
2, 364864, Note_on_c, 0, 60, 72
2, 365230, Note_on_c, 0, 60, 0
2, 365302, Note_on_c, 0, 61, 61
2, 365355, Note_on_c, 0, 53, 46
2, 365461, Note_on_c, 0, 53, 0
2, 365590, Note_on_c, 0, 61, 0
2, 365784, Note_on_c, 0, 65, 46
2, 366185, Note_on_c, 0, 65, 0
2, 366273, Note_on_c, 0, 72, 89
2, 366715, Note_on_c, 0, 72, 0
2, 366744, Note_on_c, 0, 69, 71
2, 367176, Note_on_c, 0, 69, 0
2, 367235, Note_on_c, 0, 70, 59
2, 367261, Note_on_c, 0, 61, 37
2, 367269, Note_on_c, 0, 65, 22
2, 367275, Note_on_c, 0, 60, 31
2, 367384, Note_on_c, 0, 60, 0
2, 367385, Note_on_c, 0, 65, 0
2, 367505, Note_on_c, 0, 61, 0
2, 367613, Note_on_c, 0, 70, 0
2, 367685, Note_on_c, 0, 72, 76
2, 368060, Note_on_c, 0, 72, 0
2, 368177, Note_on_c, 0, 73, 70
2, 368505, Note_on_c, 0, 73, 0
2, 368574, Note_on_c, 0, 63, 54
2, 368600, Note_on_c, 0, 52, 39
2, 368603, Note_on_c, 0, 58, 45
2, 368637, Note_on_c, 0, 75, 85
2, 368688, Note_on_c, 0, 63, 0
2, 368731, Note_on_c, 0, 52, 0
2, 368764, Note_on_c, 0, 58, 0
2, 369049, Note_on_c, 0, 75, 0
2, 369129, Note_on_c, 0, 78, 73
2, 369309, Note_on_c, 0, 78, 0
2, 370110, Note_on_c, 0, 52, 59
2, 370118, Note_on_c, 0, 63, 67
2, 370145, Note_on_c, 0, 58, 44
2, 370854, Note_on_c, 0, 52, 0
2, 370990, Note_on_c, 0, 63, 0
2, 371051, Note_on_c, 0, 58, 0
2, 371374, Note_on_c, 0, 63, 36
2, 371398, Note_on_c, 0, 58, 38
2, 371433, Note_on_c, 0, 52, 23
2, 371491, Note_on_c, 0, 90, 58
2, 371637, Note_on_c, 0, 90, 0
2, 371662, Note_on_c, 0, 52, 0
2, 371693, Note_on_c, 0, 63, 0
2, 371761, Note_on_c, 0, 87, 57
2, 371897, Note_on_c, 0, 87, 0
2, 371979, Note_on_c, 0, 58, 0
2, 372047, Note_on_c, 0, 75, 78
2, 372065, Note_on_c, 0, 90, 51
2, 372077, Note_on_c, 0, 62, 75
2, 372089, Note_on_c, 0, 51, 50
2, 372097, Note_on_c, 0, 57, 67
2, 372504, Note_on_c, 0, 75, 0
2, 372526, Note_on_c, 0, 90, 0
2, 372528, Note_on_c, 0, 51, 0
2, 372533, Note_on_c, 0, 62, 0
2, 372544, Note_on_c, 0, 57, 0
2, 372782, Note_on_c, 0, 87, 40
2, 372875, Note_on_c, 0, 87, 0
2, 373014, Note_on_c, 0, 90, 76
2, 373016, Note_on_c, 0, 75, 82
2, 373038, Note_on_c, 0, 62, 85
2, 373040, Note_on_c, 0, 51, 73
2, 373065, Note_on_c, 0, 57, 72
2, 373381, Note_on_c, 0, 75, 0
2, 373390, Note_on_c, 0, 90, 0
2, 373409, Note_on_c, 0, 62, 0
2, 373423, Note_on_c, 0, 51, 0
2, 373433, Note_on_c, 0, 57, 0
2, 373707, Note_on_c, 0, 90, 73
2, 373709, Note_on_c, 0, 75, 85
2, 373721, Note_on_c, 0, 51, 54
2, 373723, Note_on_c, 0, 62, 64
2, 373739, Note_on_c, 0, 57, 54
2, 373910, Note_on_c, 0, 75, 0
2, 373936, Note_on_c, 0, 90, 0
2, 373973, Note_on_c, 0, 57, 0
2, 374089, Note_on_c, 0, 51, 0
2, 374094, Note_on_c, 0, 62, 0
2, 374142, Note_on_c, 0, 87, 21
2, 374246, Note_on_c, 0, 87, 0
2, 374345, Note_on_c, 0, 75, 76
2, 374347, Note_on_c, 0, 51, 57
2, 374349, Note_on_c, 0, 89, 66
2, 374352, Note_on_c, 0, 60, 59
2, 374368, Note_on_c, 0, 57, 51
2, 374400, Note_on_c, 0, 88, 30
2, 374454, Note_on_c, 0, 88, 0
2, 374606, Note_on_c, 0, 75, 0
2, 374608, Note_on_c, 0, 60, 0
2, 374611, Note_on_c, 0, 89, 0
2, 374613, Note_on_c, 0, 51, 0
2, 374617, Note_on_c, 0, 57, 0
2, 374888, Note_on_c, 0, 75, 80
2, 374893, Note_on_c, 0, 60, 71
2, 374897, Note_on_c, 0, 89, 60
2, 374915, Note_on_c, 0, 51, 54
2, 374929, Note_on_c, 0, 57, 59
2, 374934, Note_on_c, 0, 88, 52
2, 374988, Note_on_c, 0, 88, 0
2, 375237, Note_on_c, 0, 60, 0
2, 375262, Note_on_c, 0, 89, 0
2, 375361, Note_on_c, 0, 75, 0
2, 375417, Note_on_c, 0, 87, 38
2, 375504, Note_on_c, 0, 75, 12
2, 375621, Note_on_c, 0, 75, 0
2, 375745, Note_on_c, 0, 87, 0
2, 375757, Note_on_c, 0, 57, 0
2, 375841, Note_on_c, 0, 51, 0
2, 375854, Note_on_c, 0, 60, 71
2, 375893, Note_on_c, 0, 75, 77
2, 375894, Note_on_c, 0, 89, 72
2, 375977, Note_on_c, 0, 60, 0
2, 376040, Note_on_c, 0, 89, 0
2, 376119, Note_on_c, 0, 75, 0
2, 376321, Note_on_c, 0, 65, 79
2, 376344, Note_on_c, 0, 87, 51
2, 376349, Note_on_c, 0, 56, 43
2, 376355, Note_on_c, 0, 73, 45
2, 376360, Note_on_c, 0, 60, 56
2, 376365, Note_on_c, 0, 61, 35
2, 376430, Note_on_c, 0, 60, 0
2, 376617, Note_on_c, 0, 87, 0
2, 376631, Note_on_c, 0, 65, 0
2, 376646, Note_on_c, 0, 73, 0
2, 376649, Note_on_c, 0, 56, 0
2, 376704, Note_on_c, 0, 61, 0
2, 376886, Note_on_c, 0, 87, 71
2, 376896, Note_on_c, 0, 73, 50
2, 376901, Note_on_c, 0, 65, 59
2, 376912, Note_on_c, 0, 56, 35
2, 376915, Note_on_c, 0, 61, 23
2, 376929, Note_on_c, 0, 60, 47
2, 377491, Note_on_c, 0, 61, 0
2, 377510, Note_on_c, 0, 60, 0
2, 377523, Note_on_c, 0, 73, 0
2, 377545, Note_on_c, 0, 65, 0
2, 377600, Note_on_c, 0, 56, 0
2, 377641, Note_on_c, 0, 87, 0
2, 377805, Note_on_c, 0, 85, 76
2, 377816, Note_on_c, 0, 56, 49
2, 377821, Note_on_c, 0, 73, 42
2, 377825, Note_on_c, 0, 65, 60
2, 377832, Note_on_c, 0, 61, 49
2, 377851, Note_on_c, 0, 60, 55
2, 378397, Control_c, 0, 64, 127
2, 378425, Note_on_c, 0, 61, 0
2, 378486, Note_on_c, 0, 65, 0
2, 378518, Note_on_c, 0, 60, 0
2, 378558, Note_on_c, 0, 56, 0
2, 378700, Control_c, 0, 64, 0
2, 378720, Note_on_c, 0, 73, 0
2, 378760, Note_on_c, 0, 61, 61
2, 378761, Note_on_c, 0, 56, 70
2, 378779, Note_on_c, 0, 65, 51
2, 378781, Note_on_c, 0, 60, 55
2, 379232, Note_on_c, 0, 60, 0
2, 379333, Note_on_c, 0, 65, 0
2, 379429, Note_on_c, 0, 61, 0
2, 379432, Note_on_c, 0, 56, 0
2, 379737, Note_on_c, 0, 62, 72
2, 379769, Note_on_c, 0, 59, 48
2, 379776, Note_on_c, 0, 55, 33
2, 379846, Note_on_c, 0, 85, 0
2, 380493, Note_on_c, 0, 62, 0
2, 380687, Note_on_c, 0, 62, 75
2, 381168, Note_on_c, 0, 83, 110
2, 381331, Note_on_c, 0, 83, 0
2, 381406, Note_on_c, 0, 91, 90
2, 381616, Note_on_c, 0, 83, 64
2, 381635, Note_on_c, 0, 91, 0
2, 381880, Note_on_c, 0, 83, 0
2, 381901, Note_on_c, 0, 82, 58
2, 381998, Note_on_c, 0, 82, 0
2, 382144, Note_on_c, 0, 81, 34
2, 382153, Note_on_c, 0, 59, 0
2, 382197, Note_on_c, 0, 62, 0
2, 382237, Note_on_c, 0, 81, 0
2, 382352, Note_on_c, 0, 89, 70
2, 382353, Note_on_c, 0, 91, 73
2, 382470, Note_on_c, 0, 91, 0
2, 382534, Note_on_c, 0, 89, 0
2, 382545, Note_on_c, 0, 81, 74
2, 382672, Note_on_c, 0, 62, 29
2, 382741, Note_on_c, 0, 81, 0
2, 382777, Note_on_c, 0, 59, 17
2, 382798, Note_on_c, 0, 80, 70
2, 382857, Note_on_c, 0, 62, 0
2, 382944, Note_on_c, 0, 59, 0
2, 383017, Note_on_c, 0, 80, 0
2, 383038, Note_on_c, 0, 79, 59
2, 383040, Note_on_c, 0, 55, 0
2, 383217, Note_on_c, 0, 79, 0
2, 383269, Note_on_c, 0, 78, 58
2, 383512, Note_on_c, 0, 78, 0
2, 383550, Note_on_c, 0, 74, 46
2, 383678, Note_on_c, 0, 74, 0
2, 383769, Note_on_c, 0, 75, 73
2, 383926, Note_on_c, 0, 62, 53
2, 383941, Note_on_c, 0, 75, 0
2, 383963, Note_on_c, 0, 58, 25
2, 383998, Note_on_c, 0, 57, 21
2, 384056, Note_on_c, 0, 76, 21
2, 384065, Note_on_c, 0, 62, 0
2, 384121, Note_on_c, 0, 58, 0
2, 384123, Note_on_c, 0, 57, 0
2, 384233, Note_on_c, 0, 76, 0
2, 384305, Note_on_c, 0, 79, 73
2, 384465, Note_on_c, 0, 79, 0
2, 384496, Note_on_c, 0, 82, 65
2, 384681, Note_on_c, 0, 82, 0
2, 384773, Note_on_c, 0, 62, 54
2, 384835, Note_on_c, 0, 62, 0
2, 384990, Note_on_c, 0, 84, 75
2, 385392, Note_on_c, 0, 84, 0
2, 385441, Note_on_c, 0, 82, 64
2, 385645, Note_on_c, 0, 82, 0
2, 385958, Note_on_c, 0, 87, 79
2, 385961, Note_on_c, 0, 75, 59
2, 386289, Note_on_c, 0, 87, 0
2, 386305, Note_on_c, 0, 75, 0
2, 386414, Note_on_c, 0, 87, 49
2, 386431, Note_on_c, 0, 75, 61
2, 386625, Note_on_c, 0, 87, 0
2, 386681, Note_on_c, 0, 75, 0
2, 386887, Note_on_c, 0, 85, 57
2, 386904, Note_on_c, 0, 73, 43
2, 386928, Note_on_c, 0, 62, 39
2, 386931, Note_on_c, 0, 58, 40
2, 386955, Note_on_c, 0, 57, 24
2, 386993, Note_on_c, 0, 52, 16
2, 387011, Note_on_c, 0, 62, 0
2, 387022, Note_on_c, 0, 57, 0
2, 387062, Note_on_c, 0, 52, 0
2, 387141, Note_on_c, 0, 58, 0
2, 387312, Note_on_c, 0, 85, 0
2, 387333, Note_on_c, 0, 73, 0
2, 387443, Note_on_c, 0, 84, 72
2, 387459, Note_on_c, 0, 63, 64
2, 387462, Note_on_c, 0, 72, 75
2, 387480, Note_on_c, 0, 52, 40
2, 387481, Note_on_c, 0, 58, 32
2, 387575, Note_on_c, 0, 63, 0
2, 387627, Note_on_c, 0, 84, 0
2, 387656, Note_on_c, 0, 52, 0
2, 387686, Note_on_c, 0, 58, 0
2, 387712, Note_on_c, 0, 72, 0
2, 388369, Note_on_c, 0, 69, 72
2, 388371, Note_on_c, 0, 81, 67
2, 388373, Note_on_c, 0, 58, 67
2, 388396, Note_on_c, 0, 73, 24
2, 388405, Note_on_c, 0, 52, 44
2, 388432, Note_on_c, 0, 76, 38
2, 388461, Note_on_c, 0, 73, 0
2, 388496, Note_on_c, 0, 69, 0
2, 388497, Note_on_c, 0, 76, 0
2, 388513, Note_on_c, 0, 81, 0
2, 388518, Note_on_c, 0, 52, 0
2, 388519, Note_on_c, 0, 58, 0
2, 389288, Note_on_c, 0, 68, 76
2, 389297, Note_on_c, 0, 52, 53
2, 389299, Note_on_c, 0, 80, 51
2, 389313, Note_on_c, 0, 58, 55
2, 389323, Note_on_c, 0, 73, 30
2, 389326, Note_on_c, 0, 61, 39
2, 389352, Note_on_c, 0, 76, 52
2, 389569, Note_on_c, 0, 61, 0
2, 389603, Note_on_c, 0, 52, 0
2, 389624, Note_on_c, 0, 73, 0
2, 389649, Note_on_c, 0, 58, 0
2, 389653, Note_on_c, 0, 68, 0
2, 389665, Note_on_c, 0, 76, 0
2, 389718, Note_on_c, 0, 80, 0
2, 389766, Note_on_c, 0, 61, 43
2, 389782, Note_on_c, 0, 79, 63
2, 389789, Note_on_c, 0, 52, 41
2, 389795, Note_on_c, 0, 73, 38
2, 389797, Note_on_c, 0, 58, 45
2, 389811, Note_on_c, 0, 67, 57
2, 389825, Note_on_c, 0, 76, 45
2, 389829, Note_on_c, 0, 78, 26
2, 389977, Control_c, 0, 64, 127
2, 390472, Note_on_c, 0, 67, 0
2, 390733, Note_on_c, 0, 67, 41
2, 390744, Note_on_c, 0, 52, 0
2, 390761, Note_on_c, 0, 76, 0
2, 390769, Note_on_c, 0, 79, 0
2, 390825, Note_on_c, 0, 58, 0
2, 390861, Note_on_c, 0, 61, 0
2, 390888, Note_on_c, 0, 78, 0
2, 391036, Note_on_c, 0, 73, 0
2, 391233, Note_on_c, 0, 67, 0
2, 391582, Control_c, 0, 64, 0
2, 391675, Note_on_c, 0, 75, 61
2, 391683, Note_on_c, 0, 53, 39
2, 391691, Note_on_c, 0, 63, 45
2, 391693, Note_on_c, 0, 67, 48
2, 391704, Note_on_c, 0, 70, 54
2, 391707, Note_on_c, 0, 77, 52
2, 391709, Note_on_c, 0, 58, 42
2, 391870, Control_c, 0, 64, 127
2, 392310, Note_on_c, 0, 77, 0
2, 392353, Note_on_c, 0, 67, 0
2, 392397, Note_on_c, 0, 70, 0
2, 392472, Note_on_c, 0, 75, 0
2, 392936, Note_on_c, 0, 63, 0
2, 393124, Note_on_c, 0, 67, 85
2, 393153, Note_on_c, 0, 63, 29
2, 393280, Note_on_c, 0, 67, 0
2, 393381, Note_on_c, 0, 69, 87
2, 393489, Note_on_c, 0, 63, 0
2, 393555, Note_on_c, 0, 69, 0
2, 393673, Note_on_c, 0, 70, 106
2, 393688, Note_on_c, 0, 67, 95
2, 393701, Note_on_c, 0, 63, 47
2, 393769, Note_on_c, 0, 60, 31
2, 393950, Note_on_c, 0, 67, 0
2, 393990, Note_on_c, 0, 63, 0
2, 393997, Note_on_c, 0, 60, 0
2, 394028, Note_on_c, 0, 70, 0
2, 394113, Note_on_c, 0, 72, 91
2, 394152, Note_on_c, 0, 63, 29
2, 394214, Note_on_c, 0, 60, 18
2, 394301, Note_on_c, 0, 63, 0
2, 394358, Note_on_c, 0, 72, 0
2, 394395, Note_on_c, 0, 60, 0
2, 394635, Note_on_c, 0, 63, 32
2, 394637, Note_on_c, 0, 74, 91
2, 394685, Note_on_c, 0, 72, 25
2, 394701, Note_on_c, 0, 60, 19
2, 394750, Note_on_c, 0, 72, 0
2, 394774, Note_on_c, 0, 63, 0
2, 394808, Note_on_c, 0, 53, 0
2, 394827, Note_on_c, 0, 74, 0
2, 394939, Note_on_c, 0, 60, 0
2, 395019, Note_on_c, 0, 58, 0
2, 395091, Note_on_c, 0, 75, 88
2, 395109, Note_on_c, 0, 53, 49
2, 395246, Note_on_c, 0, 53, 0
2, 395265, Note_on_c, 0, 75, 0
2, 395623, Control_c, 0, 64, 0
2, 396105, Note_on_c, 0, 68, 94
2, 396110, Note_on_c, 0, 63, 88
2, 396112, Note_on_c, 0, 73, 69
2, 396113, Note_on_c, 0, 77, 76
2, 396147, Note_on_c, 0, 57, 72
2, 396174, Note_on_c, 0, 53, 22
2, 396189, Note_on_c, 0, 68, 0
2, 396203, Note_on_c, 0, 57, 0
2, 396224, Note_on_c, 0, 63, 0
2, 396225, Note_on_c, 0, 77, 0
2, 396232, Note_on_c, 0, 53, 0
2, 396240, Note_on_c, 0, 73, 0
2, 397009, Note_on_c, 0, 73, 65
2, 397016, Note_on_c, 0, 77, 84
2, 397022, Note_on_c, 0, 53, 48
2, 397024, Note_on_c, 0, 68, 68
2, 397030, Note_on_c, 0, 63, 54
2, 397038, Note_on_c, 0, 57, 63
2, 397405, Control_c, 0, 64, 127
2, 397598, Note_on_c, 0, 57, 0
2, 397639, Note_on_c, 0, 63, 0
2, 397653, Note_on_c, 0, 53, 0
2, 397958, Note_on_c, 0, 63, 64
2, 397996, Note_on_c, 0, 53, 29
2, 397998, Note_on_c, 0, 57, 56
2, 398153, Note_on_c, 0, 68, 0
2, 398217, Note_on_c, 0, 53, 0
2, 398264, Note_on_c, 0, 57, 0
2, 398337, Note_on_c, 0, 73, 0
2, 398344, Note_on_c, 0, 63, 0
2, 398385, Note_on_c, 0, 77, 0
2, 398443, Note_on_c, 0, 68, 36
2, 398507, Note_on_c, 0, 68, 0
2, 399025, Control_c, 0, 64, 0
2, 399336, Note_on_c, 0, 89, 80
2, 399353, Note_on_c, 0, 77, 69
2, 399355, Note_on_c, 0, 85, 69
2, 399357, Note_on_c, 0, 82, 60
2, 399365, Note_on_c, 0, 54, 57
2, 399371, Note_on_c, 0, 65, 64
2, 399376, Note_on_c, 0, 58, 57
2, 399377, Note_on_c, 0, 60, 68
2, 399424, Note_on_c, 0, 65, 0
2, 399563, Note_on_c, 0, 82, 0
2, 399573, Note_on_c, 0, 77, 0
2, 399605, Note_on_c, 0, 60, 0
2, 399614, Note_on_c, 0, 85, 0
2, 399645, Note_on_c, 0, 89, 0
2, 399664, Note_on_c, 0, 58, 0
2, 399696, Note_on_c, 0, 54, 0
2, 400279, Note_on_c, 0, 89, 87
2, 400283, Note_on_c, 0, 65, 76
2, 400286, Note_on_c, 0, 85, 77
2, 400291, Note_on_c, 0, 82, 74
2, 400293, Note_on_c, 0, 54, 61
2, 400296, Note_on_c, 0, 77, 85
2, 400309, Note_on_c, 0, 60, 66
2, 400312, Note_on_c, 0, 58, 61
2, 400657, Note_on_c, 0, 89, 0
2, 400659, Note_on_c, 0, 77, 0
2, 400713, Note_on_c, 0, 60, 0
2, 400715, Note_on_c, 0, 65, 0
2, 400725, Note_on_c, 0, 82, 0
2, 400726, Note_on_c, 0, 58, 0
2, 400737, Note_on_c, 0, 85, 0
2, 400760, Note_on_c, 0, 54, 0
2, 400811, Note_on_c, 0, 90, 81
2, 400816, Note_on_c, 0, 54, 23
2, 400817, Note_on_c, 0, 65, 87
2, 400832, Note_on_c, 0, 58, 61
2, 400835, Note_on_c, 0, 78, 64
2, 400841, Note_on_c, 0, 60, 83
2, 401038, Note_on_c, 0, 78, 0
2, 401070, Control_c, 0, 64, 127
2, 401101, Note_on_c, 0, 65, 0
2, 401113, Note_on_c, 0, 90, 0
2, 401121, Note_on_c, 0, 54, 0
2, 401139, Note_on_c, 0, 60, 0
2, 401145, Note_on_c, 0, 58, 0
2, 401285, Note_on_c, 0, 65, 78
2, 401294, Note_on_c, 0, 54, 75
2, 401296, Note_on_c, 0, 58, 64
2, 401299, Note_on_c, 0, 60, 74
2, 401310, Control_c, 0, 64, 0
2, 401312, Note_on_c, 0, 82, 73
2, 401315, Note_on_c, 0, 94, 75
2, 401582, Control_c, 0, 64, 127
2, 401681, Note_on_c, 0, 94, 0
2, 401704, Note_on_c, 0, 82, 0
2, 401763, Note_on_c, 0, 65, 0
2, 401782, Note_on_c, 0, 54, 0
2, 401787, Note_on_c, 0, 60, 0
2, 401801, Note_on_c, 0, 58, 0
2, 401917, Note_on_c, 0, 92, 80
2, 401921, Control_c, 0, 64, 0
2, 401925, Note_on_c, 0, 65, 55
2, 401926, Note_on_c, 0, 80, 64
2, 401939, Note_on_c, 0, 54, 53
2, 401945, Note_on_c, 0, 58, 50
2, 401957, Note_on_c, 0, 60, 76
2, 402203, Note_on_c, 0, 92, 0
2, 402209, Control_c, 0, 64, 127
2, 402229, Note_on_c, 0, 80, 0
2, 402257, Note_on_c, 0, 65, 0
2, 402294, Note_on_c, 0, 58, 0
2, 402313, Note_on_c, 0, 60, 0
2, 402341, Note_on_c, 0, 54, 0
2, 402563, Note_on_c, 0, 54, 46
2, 402573, Note_on_c, 0, 90, 63
2, 402577, Note_on_c, 0, 60, 52
2, 402587, Note_on_c, 0, 78, 67
2, 402862, Note_on_c, 0, 54, 0
2, 402867, Note_on_c, 0, 90, 0
2, 402901, Note_on_c, 0, 78, 0
2, 402957, Note_on_c, 0, 60, 0
2, 403075, Control_c, 0, 64, 0
2, 403121, Note_on_c, 0, 60, 47
2, 403133, Note_on_c, 0, 53, 45
2, 403145, Note_on_c, 0, 63, 50
2, 403157, Note_on_c, 0, 89, 77
2, 403169, Note_on_c, 0, 56, 44
2, 403187, Note_on_c, 0, 77, 54
2, 403429, Control_c, 0, 64, 127
2, 403515, Note_on_c, 0, 89, 0
2, 403621, Note_on_c, 0, 77, 0
2, 403785, Note_on_c, 0, 56, 0
2, 403792, Note_on_c, 0, 63, 0
2, 403830, Note_on_c, 0, 53, 0
2, 403843, Note_on_c, 0, 60, 0
2, 403990, Control_c, 0, 64, 0
2, 404067, Note_on_c, 0, 53, 33
2, 404075, Note_on_c, 0, 84, 46
2, 404078, Note_on_c, 0, 63, 29
2, 404088, Note_on_c, 0, 60, 37
2, 404093, Note_on_c, 0, 72, 34
2, 404102, Note_on_c, 0, 56, 42
2, 404214, Control_c, 0, 64, 127
2, 404371, Note_on_c, 0, 63, 0
2, 404373, Note_on_c, 0, 53, 0
2, 404384, Note_on_c, 0, 56, 0
2, 404422, Note_on_c, 0, 60, 0
2, 404425, Note_on_c, 0, 84, 0
2, 404525, Note_on_c, 0, 72, 0
2, 404696, Control_c, 0, 64, 0
2, 404699, Note_on_c, 0, 72, 58
2, 404704, Note_on_c, 0, 53, 41
2, 404707, Note_on_c, 0, 63, 38
2, 404718, Note_on_c, 0, 84, 29
2, 404726, Note_on_c, 0, 60, 51
2, 404734, Note_on_c, 0, 56, 39
2, 404857, Note_on_c, 0, 84, 0
2, 404885, Note_on_c, 0, 63, 0
2, 404936, Control_c, 0, 64, 127
2, 404947, Note_on_c, 0, 53, 0
2, 404958, Note_on_c, 0, 60, 0
2, 404976, Note_on_c, 0, 72, 0
2, 405057, Note_on_c, 0, 56, 0
2, 405680, Note_on_c, 0, 80, 46
2, 405696, Note_on_c, 0, 60, 44
2, 405699, Note_on_c, 0, 68, 36
2, 405705, Control_c, 0, 64, 0
2, 405707, Note_on_c, 0, 53, 29
2, 405710, Note_on_c, 0, 63, 43
2, 405720, Note_on_c, 0, 56, 40
2, 405947, Control_c, 0, 64, 127
2, 406009, Note_on_c, 0, 63, 0
2, 406016, Note_on_c, 0, 80, 0
2, 406025, Note_on_c, 0, 60, 0
2, 406059, Note_on_c, 0, 53, 0
2, 406080, Note_on_c, 0, 68, 0
2, 406102, Note_on_c, 0, 56, 0
2, 406651, Note_on_c, 0, 65, 81
2, 406673, Note_on_c, 0, 61, 75
2, 406677, Note_on_c, 0, 54, 81
2, 406678, Note_on_c, 0, 58, 73
2, 406688, Note_on_c, 0, 53, 91
2, 406733, Control_c, 0, 64, 0
2, 407497, Note_on_c, 0, 65, 0
2, 407555, Note_on_c, 0, 61, 0
2, 407576, Note_on_c, 0, 51, 58
2, 407640, Note_on_c, 0, 53, 0
2, 407798, Note_on_c, 0, 58, 0
2, 407841, Note_on_c, 0, 54, 0
2, 408027, Note_on_c, 0, 54, 49
2, 408029, Note_on_c, 0, 53, 52
2, 408037, Note_on_c, 0, 51, 0
2, 408054, Note_on_c, 0, 65, 42
2, 408059, Note_on_c, 0, 61, 42
2, 408067, Note_on_c, 0, 58, 47
2, 408441, Note_on_c, 0, 65, 0
2, 408483, Note_on_c, 0, 61, 0
2, 408491, Note_on_c, 0, 58, 0
2, 408494, Note_on_c, 0, 54, 0
2, 408520, Note_on_c, 0, 53, 0
2, 408537, Note_on_c, 0, 51, 32
2, 408905, Note_on_c, 0, 51, 0
2, 408931, Note_on_c, 0, 54, 42
2, 408947, Note_on_c, 0, 61, 52
2, 408949, Note_on_c, 0, 53, 48
2, 408952, Note_on_c, 0, 65, 44
2, 408955, Note_on_c, 0, 58, 48
2, 409446, Note_on_c, 0, 51, 55
2, 409635, Note_on_c, 0, 53, 0
2, 409881, Note_on_c, 0, 51, 0
2, 409910, Note_on_c, 0, 50, 52
2, 410131, Note_on_c, 0, 58, 0
2, 410160, Note_on_c, 0, 65, 0
2, 410166, Note_on_c, 0, 54, 0
2, 410227, Note_on_c, 0, 61, 0
2, 410262, Control_c, 0, 64, 127
2, 410310, Control_c, 0, 64, 0
2, 410344, Note_on_c, 0, 50, 0
2, 410422, Note_on_c, 0, 63, 50
2, 410424, Note_on_c, 0, 54, 27
2, 410445, Note_on_c, 0, 58, 53
2, 410456, Note_on_c, 0, 49, 53
2, 411016, Control_c, 0, 64, 127
2, 411173, Note_on_c, 0, 54, 0
2, 411187, Note_on_c, 0, 58, 0
2, 411195, Note_on_c, 0, 63, 0
2, 411248, Note_on_c, 0, 49, 0
2, 411387, Note_on_c, 0, 54, 38
2, 411398, Note_on_c, 0, 49, 32
2, 411422, Note_on_c, 0, 63, 47
2, 411443, Note_on_c, 0, 61, 50
2, 411598, Note_on_c, 0, 61, 0
2, 411742, Note_on_c, 0, 49, 0
2, 412097, Note_on_c, 0, 54, 0
2, 412205, Note_on_c, 0, 63, 0
2, 412336, Note_on_c, 0, 54, 61
2, 412344, Note_on_c, 0, 61, 77
2, 412360, Note_on_c, 0, 49, 75
2, 412368, Note_on_c, 0, 58, 64
2, 412379, Control_c, 0, 64, 0
2, 412654, Note_on_c, 0, 54, 0
2, 412670, Note_on_c, 0, 58, 0
2, 412761, Note_on_c, 0, 61, 0
2, 412781, Control_c, 0, 64, 127
2, 412894, Note_on_c, 0, 61, 62
2, 412896, Note_on_c, 0, 54, 68
2, 412899, Note_on_c, 0, 63, 76
2, 412902, Note_on_c, 0, 58, 70
2, 413086, Note_on_c, 0, 54, 0
2, 413222, Note_on_c, 0, 58, 0
2, 413262, Note_on_c, 0, 61, 0
2, 413403, Note_on_c, 0, 49, 0
2, 413641, Note_on_c, 0, 63, 0
2, 414253, Note_on_c, 0, 66, 67
2, 414556, Note_on_c, 0, 66, 0
2, 414712, Note_on_c, 0, 64, 79
2, 414726, Note_on_c, 0, 48, 50
2, 414737, Control_c, 0, 64, 0
2, 414750, Note_on_c, 0, 58, 30
2, 415105, Control_c, 0, 64, 127
2, 415317, Note_on_c, 0, 58, 0
2, 415323, Note_on_c, 0, 55, 70
2, 415336, Note_on_c, 0, 64, 0
2, 415414, Note_on_c, 0, 48, 0
2, 415483, Note_on_c, 0, 55, 0
2, 416133, Control_c, 0, 64, 0
2, 416195, Note_on_c, 0, 58, 73
2, 416198, Note_on_c, 0, 84, 90
2, 416201, Note_on_c, 0, 63, 82
2, 416203, Note_on_c, 0, 52, 75
2, 416211, Note_on_c, 0, 72, 93
2, 416390, Control_c, 0, 64, 127
2, 416505, Note_on_c, 0, 84, 0
2, 416531, Note_on_c, 0, 52, 0
2, 416542, Note_on_c, 0, 72, 0
2, 416569, Note_on_c, 0, 63, 0
2, 416603, Note_on_c, 0, 58, 0
2, 416694, Control_c, 0, 64, 0
2, 416797, Note_on_c, 0, 85, 88
2, 416803, Note_on_c, 0, 73, 82
2, 416808, Note_on_c, 0, 58, 81
2, 416814, Note_on_c, 0, 63, 82
2, 416822, Note_on_c, 0, 52, 77
2, 416838, Control_c, 0, 64, 127
2, 417121, Note_on_c, 0, 52, 0
2, 417155, Note_on_c, 0, 73, 0
2, 417190, Note_on_c, 0, 63, 0
2, 417208, Note_on_c, 0, 85, 0
2, 417240, Note_on_c, 0, 58, 0
2, 417304, Control_c, 0, 64, 0
2, 417392, Note_on_c, 0, 58, 62
2, 417409, Note_on_c, 0, 87, 77
2, 417411, Note_on_c, 0, 63, 64
2, 417413, Note_on_c, 0, 75, 84
2, 417414, Note_on_c, 0, 52, 59
2, 417563, Note_on_c, 0, 87, 0
2, 417598, Note_on_c, 0, 75, 0
2, 417607, Control_c, 0, 64, 127
2, 417630, Note_on_c, 0, 52, 0
2, 417637, Note_on_c, 0, 63, 0
2, 417849, Note_on_c, 0, 58, 0
2, 417913, Control_c, 0, 64, 0
2, 418153, Note_on_c, 0, 73, 67
2, 418155, Note_on_c, 0, 85, 76
2, 418158, Note_on_c, 0, 51, 67
2, 418169, Note_on_c, 0, 62, 72
2, 418200, Note_on_c, 0, 57, 66
2, 418292, Note_on_c, 0, 62, 0
2, 418317, Note_on_c, 0, 73, 0
2, 418321, Note_on_c, 0, 85, 0
2, 418337, Note_on_c, 0, 57, 0
2, 418371, Note_on_c, 0, 51, 0
2, 419049, Note_on_c, 0, 84, 80
2, 419056, Note_on_c, 0, 51, 60
2, 419067, Note_on_c, 0, 72, 67
2, 419072, Note_on_c, 0, 62, 64
2, 419078, Note_on_c, 0, 57, 61
2, 419406, Control_c, 0, 64, 127
2, 419929, Note_on_c, 0, 57, 0
2, 419952, Note_on_c, 0, 62, 0
2, 420025, Note_on_c, 0, 51, 0
2, 420041, Note_on_c, 0, 84, 0
2, 420045, Note_on_c, 0, 72, 0
2, 420425, Note_on_c, 0, 84, 83
2, 420438, Note_on_c, 0, 62, 80
2, 420441, Note_on_c, 0, 51, 65
2, 420449, Note_on_c, 0, 57, 72
2, 420449, Note_on_c, 0, 72, 84
2, 420624, Note_on_c, 0, 72, 0
2, 420669, Note_on_c, 0, 84, 0
2, 420689, Note_on_c, 0, 62, 0
2, 420699, Note_on_c, 0, 51, 0
2, 420755, Note_on_c, 0, 57, 0
2, 420941, Note_on_c, 0, 87, 94
2, 420942, Note_on_c, 0, 75, 107
2, 420960, Note_on_c, 0, 62, 91
2, 420963, Note_on_c, 0, 51, 82
2, 420966, Note_on_c, 0, 57, 90
2, 421144, Note_on_c, 0, 87, 0
2, 421149, Note_on_c, 0, 62, 0
2, 421183, Note_on_c, 0, 75, 0
2, 421278, Note_on_c, 0, 51, 0
2, 421289, Note_on_c, 0, 57, 0
2, 421331, Control_c, 0, 64, 0
2, 421364, Note_on_c, 0, 51, 23
2, 421369, Note_on_c, 0, 85, 48
2, 421392, Note_on_c, 0, 57, 58
2, 421398, Note_on_c, 0, 73, 54
2, 421403, Note_on_c, 0, 62, 70
2, 421489, Note_on_c, 0, 62, 0
2, 421545, Note_on_c, 0, 85, 0
2, 421577, Note_on_c, 0, 73, 0
2, 421841, Note_on_c, 0, 57, 0
2, 421859, Control_c, 0, 64, 127
2, 421877, Note_on_c, 0, 51, 0
2, 421891, Note_on_c, 0, 62, 64
2, 421899, Note_on_c, 0, 82, 49
2, 421904, Note_on_c, 0, 70, 56
2, 421953, Note_on_c, 0, 62, 0
2, 422027, Note_on_c, 0, 70, 0
2, 422053, Note_on_c, 0, 82, 0
2, 422293, Control_c, 0, 64, 0
2, 422379, Note_on_c, 0, 56, 65
2, 422382, Note_on_c, 0, 73, 67
2, 422384, Note_on_c, 0, 65, 72
2, 422385, Note_on_c, 0, 61, 65
2, 422392, Note_on_c, 0, 85, 83
2, 422403, Note_on_c, 0, 60, 72
2, 422662, Control_c, 0, 64, 127
2, 422707, Note_on_c, 0, 73, 0
2, 422710, Note_on_c, 0, 85, 0
2, 422743, Note_on_c, 0, 60, 0
2, 422745, Note_on_c, 0, 65, 0
2, 422765, Note_on_c, 0, 56, 0
2, 422801, Note_on_c, 0, 61, 0
2, 422920, Note_on_c, 0, 65, 50
2, 422921, Note_on_c, 0, 87, 71
2, 422923, Note_on_c, 0, 61, 38
2, 422928, Note_on_c, 0, 75, 54
2, 422939, Note_on_c, 0, 60, 46
2, 422974, Note_on_c, 0, 56, 22
2, 423009, Note_on_c, 0, 60, 0
2, 423046, Note_on_c, 0, 87, 0
2, 423059, Note_on_c, 0, 65, 0
2, 423064, Note_on_c, 0, 75, 0
2, 423067, Note_on_c, 0, 56, 0
2, 423174, Control_c, 0, 64, 0
2, 423176, Note_on_c, 0, 61, 0
2, 423325, Note_on_c, 0, 85, 57
2, 423328, Note_on_c, 0, 61, 26
2, 423329, Note_on_c, 0, 73, 34
2, 423331, Note_on_c, 0, 65, 55
2, 423365, Note_on_c, 0, 56, 28
2, 423376, Note_on_c, 0, 60, 32
2, 423451, Note_on_c, 0, 60, 0
2, 423464, Control_c, 0, 64, 127
2, 423494, Note_on_c, 0, 65, 0
2, 423518, Note_on_c, 0, 56, 0
2, 423531, Note_on_c, 0, 73, 0
2, 423550, Note_on_c, 0, 61, 0
2, 423588, Note_on_c, 0, 85, 0
2, 423833, Control_c, 0, 64, 0
2, 423877, Note_on_c, 0, 75, 65
2, 423878, Note_on_c, 0, 65, 67
2, 423880, Note_on_c, 0, 87, 77
2, 423893, Note_on_c, 0, 61, 54
2, 423905, Note_on_c, 0, 56, 36
2, 423913, Note_on_c, 0, 60, 48
2, 424149, Note_on_c, 0, 65, 0
2, 424267, Note_on_c, 0, 61, 0
2, 424281, Control_c, 0, 64, 127
2, 424283, Note_on_c, 0, 56, 0
2, 424293, Note_on_c, 0, 60, 0
2, 424429, Note_on_c, 0, 87, 0
2, 424504, Note_on_c, 0, 75, 0
2, 424854, Note_on_c, 0, 85, 62
2, 424859, Control_c, 0, 64, 0
2, 424861, Note_on_c, 0, 65, 52
2, 424872, Note_on_c, 0, 56, 38
2, 424873, Note_on_c, 0, 61, 43
2, 424879, Note_on_c, 0, 60, 44
2, 424888, Note_on_c, 0, 73, 30
2, 425181, Control_c, 0, 64, 127
2, 425355, Note_on_c, 0, 85, 0
2, 425374, Note_on_c, 0, 73, 0
2, 425382, Note_on_c, 0, 56, 0
2, 425385, Note_on_c, 0, 65, 0
2, 425416, Note_on_c, 0, 60, 0
2, 425550, Note_on_c, 0, 61, 0
2, 425824, Note_on_c, 0, 82, 56
2, 425838, Control_c, 0, 64, 0
2, 425841, Note_on_c, 0, 62, 70
2, 425846, Note_on_c, 0, 70, 44
2, 425857, Note_on_c, 0, 56, 51
2, 425861, Note_on_c, 0, 66, 40
2, 426094, Control_c, 0, 64, 127
2, 426133, Note_on_c, 0, 70, 0
2, 426190, Note_on_c, 0, 82, 0
2, 426208, Note_on_c, 0, 62, 0
2, 426225, Note_on_c, 0, 66, 0
2, 426296, Note_on_c, 0, 56, 0
2, 426688, Control_c, 0, 64, 0
2, 426747, Note_on_c, 0, 73, 82
2, 426749, Note_on_c, 0, 85, 73
2, 426765, Note_on_c, 0, 82, 57
2, 426769, Note_on_c, 0, 66, 78
2, 426771, Note_on_c, 0, 56, 83
2, 426774, Note_on_c, 0, 62, 83
2, 426787, Note_on_c, 0, 79, 60
2, 426835, Note_on_c, 0, 86, 52
2, 426881, Note_on_c, 0, 73, 0
2, 426885, Note_on_c, 0, 74, 80
2, 426896, Note_on_c, 0, 85, 0
2, 426926, Note_on_c, 0, 84, 18
2, 427115, Note_on_c, 0, 84, 0
2, 427123, Note_on_c, 0, 74, 0
2, 427147, Note_on_c, 0, 79, 0
2, 427155, Note_on_c, 0, 66, 0
2, 427165, Note_on_c, 0, 56, 0
2, 427167, Note_on_c, 0, 82, 0
2, 427169, Note_on_c, 0, 86, 0
2, 427184, Note_on_c, 0, 62, 0
2, 427350, Note_on_c, 0, 86, 70
2, 427360, Note_on_c, 0, 74, 80
2, 427365, Note_on_c, 0, 56, 75
2, 427368, Note_on_c, 0, 66, 71
2, 427369, Note_on_c, 0, 82, 46
2, 427371, Note_on_c, 0, 79, 66
2, 427384, Note_on_c, 0, 62, 73
2, 427657, Note_on_c, 0, 74, 0
2, 427665, Note_on_c, 0, 79, 0
2, 427723, Note_on_c, 0, 82, 0
2, 427733, Note_on_c, 0, 86, 0
2, 427742, Note_on_c, 0, 66, 0
2, 427785, Note_on_c, 0, 56, 0
2, 427798, Note_on_c, 0, 62, 0
2, 427827, Control_c, 0, 64, 127
2, 427971, Control_c, 0, 64, 0
2, 428203, Note_on_c, 0, 85, 85
2, 428211, Note_on_c, 0, 89, 89
2, 428213, Note_on_c, 0, 66, 81
2, 428214, Note_on_c, 0, 56, 79
2, 428216, Note_on_c, 0, 77, 90
2, 428229, Note_on_c, 0, 62, 82
2, 428259, Note_on_c, 0, 85, 0
2, 428280, Note_on_c, 0, 86, 58
2, 428323, Note_on_c, 0, 88, 20
2, 428483, Note_on_c, 0, 66, 0
2, 428515, Note_on_c, 0, 56, 0
2, 428529, Note_on_c, 0, 88, 0
2, 428537, Note_on_c, 0, 86, 0
2, 428566, Note_on_c, 0, 77, 0
2, 428584, Note_on_c, 0, 62, 0
2, 428598, Note_on_c, 0, 89, 0
2, 428833, Note_on_c, 0, 89, 82
2, 428849, Note_on_c, 0, 77, 82
2, 428853, Note_on_c, 0, 86, 76
2, 428854, Note_on_c, 0, 56, 78
2, 428862, Note_on_c, 0, 62, 82
2, 428864, Note_on_c, 0, 66, 69
2, 428904, Note_on_c, 0, 88, 33
2, 428974, Note_on_c, 0, 88, 0
2, 428993, Note_on_c, 0, 86, 0
2, 429032, Note_on_c, 0, 89, 0
2, 429033, Note_on_c, 0, 66, 0
2, 429073, Note_on_c, 0, 77, 0
2, 429137, Note_on_c, 0, 56, 0
2, 429206, Control_c, 0, 64, 127
2, 429208, Note_on_c, 0, 62, 0
2, 429270, Control_c, 0, 64, 0
2, 429467, Note_on_c, 0, 56, 77
2, 429478, Note_on_c, 0, 82, 58
2, 429483, Note_on_c, 0, 74, 74
2, 429486, Note_on_c, 0, 66, 61
2, 429489, Note_on_c, 0, 86, 63
2, 429512, Note_on_c, 0, 62, 48
2, 429564, Note_on_c, 0, 62, 0
2, 429576, Control_c, 0, 64, 127
2, 429657, Note_on_c, 0, 66, 0
2, 429663, Note_on_c, 0, 86, 0
2, 429720, Note_on_c, 0, 74, 0
2, 429725, Note_on_c, 0, 56, 0
2, 429729, Note_on_c, 0, 82, 0
2, 430104, Control_c, 0, 64, 0
2, 430131, Note_on_c, 0, 82, 48
2, 430142, Note_on_c, 0, 70, 56
2, 430145, Note_on_c, 0, 65, 59
2, 430153, Note_on_c, 0, 75, 58
2, 430161, Note_on_c, 0, 54, 34
2, 430163, Note_on_c, 0, 61, 36
2, 430166, Note_on_c, 0, 58, 53
2, 430176, Note_on_c, 0, 78, 34
2, 431115, Control_c, 0, 64, 127
2, 431285, Note_on_c, 0, 65, 0
2, 431350, Note_on_c, 0, 54, 0
2, 431379, Note_on_c, 0, 58, 0
2, 431401, Note_on_c, 0, 61, 0
2, 431585, Note_on_c, 0, 75, 0
2, 431603, Note_on_c, 0, 78, 0
2, 431624, Note_on_c, 0, 70, 0
2, 431641, Note_on_c, 0, 55, 43
2, 431646, Note_on_c, 0, 82, 0
2, 431665, Note_on_c, 0, 58, 22
2, 431707, Note_on_c, 0, 55, 0
2, 431739, Note_on_c, 0, 58, 0
2, 431932, Control_c, 0, 64, 0
2, 432027, Note_on_c, 0, 55, 93
2, 432033, Note_on_c, 0, 61, 78
2, 432035, Note_on_c, 0, 66, 84
2, 432037, Note_on_c, 0, 76, 91
2, 432040, Note_on_c, 0, 69, 87
2, 432041, Note_on_c, 0, 81, 84
2, 432360, Note_on_c, 0, 81, 0
2, 432373, Note_on_c, 0, 55, 0
2, 432387, Note_on_c, 0, 69, 0
2, 432401, Note_on_c, 0, 66, 0
2, 432440, Note_on_c, 0, 61, 0
2, 432441, Note_on_c, 0, 76, 0
2, 432553, Note_on_c, 0, 55, 71
2, 432558, Note_on_c, 0, 69, 56
2, 432561, Note_on_c, 0, 66, 63
2, 432565, Note_on_c, 0, 81, 65
2, 432566, Note_on_c, 0, 61, 61
2, 432568, Note_on_c, 0, 76, 74
2, 432667, Note_on_c, 0, 69, 0
2, 432680, Note_on_c, 0, 81, 0
2, 432697, Note_on_c, 0, 76, 0
2, 432715, Note_on_c, 0, 55, 0
2, 432715, Note_on_c, 0, 66, 0
2, 432753, Note_on_c, 0, 61, 0
2, 433569, Note_on_c, 0, 68, 92
2, 433571, Note_on_c, 0, 75, 91
2, 433574, Note_on_c, 0, 54, 77
2, 433576, Note_on_c, 0, 80, 81
2, 433577, Note_on_c, 0, 65, 81
2, 433589, Note_on_c, 0, 58, 47
2, 433590, Note_on_c, 0, 60, 75
2, 433617, Note_on_c, 0, 64, 52
2, 433670, Note_on_c, 0, 64, 0
2, 433725, Note_on_c, 0, 65, 0
2, 433765, Note_on_c, 0, 68, 0
2, 433781, Note_on_c, 0, 80, 0
2, 433798, Note_on_c, 0, 75, 0
2, 433806, Note_on_c, 0, 60, 0
2, 433841, Note_on_c, 0, 54, 0
2, 433846, Note_on_c, 0, 58, 0
2, 434472, Control_c, 0, 64, 127
2, 434502, Note_on_c, 0, 54, 76
2, 434504, Note_on_c, 0, 60, 76
2, 434505, Note_on_c, 0, 58, 65
2, 434509, Note_on_c, 0, 65, 82
2, 434510, Note_on_c, 0, 75, 88
2, 434512, Note_on_c, 0, 80, 75
2, 434515, Note_on_c, 0, 68, 91
2, 434753, Note_on_c, 0, 68, 0
2, 434840, Note_on_c, 0, 75, 0
2, 434870, Note_on_c, 0, 80, 0
2, 435048, Note_on_c, 0, 54, 0
2, 435182, Note_on_c, 0, 58, 0
2, 435244, Note_on_c, 0, 60, 0
2, 435299, Note_on_c, 0, 65, 0
2, 435438, Note_on_c, 0, 54, 75
2, 435645, Note_on_c, 0, 54, 0
2, 435816, Control_c, 0, 64, 0
2, 435879, Note_on_c, 0, 84, 109
2, 435881, Note_on_c, 0, 54, 92
2, 435889, Note_on_c, 0, 72, 98
2, 435893, Note_on_c, 0, 77, 98
2, 435894, Note_on_c, 0, 64, 106
2, 435907, Note_on_c, 0, 60, 84
2, 435915, Note_on_c, 0, 74, 68
2, 435969, Note_on_c, 0, 74, 0
2, 436249, Note_on_c, 0, 72, 0
2, 436275, Note_on_c, 0, 77, 0
2, 436277, Note_on_c, 0, 64, 0
2, 436280, Note_on_c, 0, 84, 0
2, 436289, Note_on_c, 0, 54, 0
2, 436360, Note_on_c, 0, 60, 0
2, 436413, Control_c, 0, 64, 127
2, 436445, Note_on_c, 0, 54, 81
2, 436446, Note_on_c, 0, 84, 81
2, 436459, Note_on_c, 0, 77, 81
2, 436461, Note_on_c, 0, 64, 90
2, 436465, Note_on_c, 0, 60, 64
2, 436473, Note_on_c, 0, 72, 70
2, 436703, Note_on_c, 0, 72, 0
2, 436705, Note_on_c, 0, 77, 0
2, 436717, Note_on_c, 0, 84, 0
2, 436721, Note_on_c, 0, 64, 0
2, 436827, Note_on_c, 0, 60, 0
2, 436849, Note_on_c, 0, 54, 0
2, 437347, Control_c, 0, 64, 0
2, 437356, Note_on_c, 0, 53, 62
2, 437358, Note_on_c, 0, 60, 74
2, 437368, Note_on_c, 0, 63, 75
2, 437374, Note_on_c, 0, 85, 92
2, 437381, Note_on_c, 0, 73, 81
2, 437393, Note_on_c, 0, 56, 53
2, 437717, Control_c, 0, 64, 127
2, 437795, Note_on_c, 0, 85, 0
2, 437862, Note_on_c, 0, 73, 0
2, 438185, Note_on_c, 0, 65, 51
2, 438307, Note_on_c, 0, 65, 0
2, 438443, Note_on_c, 0, 68, 78
2, 438470, Control_c, 0, 64, 0
2, 438580, Note_on_c, 0, 68, 0
2, 438829, Note_on_c, 0, 72, 76
2, 438950, Note_on_c, 0, 72, 0
2, 439223, Note_on_c, 0, 75, 100
2, 439333, Note_on_c, 0, 60, 0
2, 439376, Note_on_c, 0, 63, 0
2, 439413, Note_on_c, 0, 75, 0
2, 439614, Note_on_c, 0, 53, 0
2, 439614, Note_on_c, 0, 74, 89
2, 439630, Note_on_c, 0, 56, 0
2, 439800, Note_on_c, 0, 74, 0
2, 439925, Note_on_c, 0, 62, 42
2, 439960, Note_on_c, 0, 59, 37
2, 439966, Note_on_c, 0, 71, 79
2, 439981, Note_on_c, 0, 62, 0
2, 440025, Note_on_c, 0, 59, 0
2, 440141, Note_on_c, 0, 71, 0
2, 440289, Note_on_c, 0, 67, 30
2, 440382, Note_on_c, 0, 67, 0
2, 440596, Note_on_c, 0, 73, 73
2, 440655, Note_on_c, 0, 65, 43
2, 440677, Note_on_c, 0, 58, 34
2, 440712, Note_on_c, 0, 54, 13
2, 440717, Note_on_c, 0, 60, 26
2, 441819, Note_on_c, 0, 65, 0
2, 441863, Note_on_c, 0, 60, 0
2, 441949, Note_on_c, 0, 73, 0
2, 442120, Note_on_c, 0, 73, 71
2, 442123, Note_on_c, 0, 70, 82
2, 442136, Note_on_c, 0, 60, 52
2, 442137, Note_on_c, 0, 66, 84
2, 442521, Note_on_c, 0, 66, 0
2, 442533, Note_on_c, 0, 60, 0
2, 442536, Note_on_c, 0, 70, 0
2, 442560, Note_on_c, 0, 73, 0
2, 442597, Note_on_c, 0, 65, 68
2, 442961, Note_on_c, 0, 65, 0
2, 443069, Note_on_c, 0, 60, 56
2, 443080, Note_on_c, 0, 63, 73
2, 443205, Note_on_c, 0, 60, 0
2, 443451, Note_on_c, 0, 58, 0
2, 443502, Note_on_c, 0, 54, 0
2, 443569, Note_on_c, 0, 61, 67
2, 444024, Note_on_c, 0, 61, 0
2, 444040, Note_on_c, 0, 60, 47
2, 444304, Note_on_c, 0, 63, 0
2, 444384, Note_on_c, 0, 60, 0
2, 444470, Note_on_c, 0, 61, 77
2, 444980, Note_on_c, 0, 63, 68
2, 445112, Note_on_c, 0, 61, 0
2, 445419, Note_on_c, 0, 60, 84
2, 445432, Note_on_c, 0, 63, 0
2, 445445, Note_on_c, 0, 48, 64
2, 446267, Note_on_c, 0, 60, 0
2, 446413, Note_on_c, 0, 48, 0
2, 446416, Note_on_c, 0, 60, 64
2, 446856, Note_on_c, 0, 48, 40
2, 447024, Note_on_c, 0, 48, 0
2, 447246, Note_on_c, 0, 60, 0
2, 447329, Note_on_c, 0, 48, 40
2, 447822, Note_on_c, 0, 52, 68
2, 448198, Note_on_c, 0, 52, 0
2, 448301, Note_on_c, 0, 58, 70
2, 448351, Note_on_c, 0, 48, 0
2, 448464, Control_c, 0, 64, 127
2, 448785, Note_on_c, 0, 61, 70
2, 448792, Note_on_c, 0, 48, 33
2, 448981, Note_on_c, 0, 58, 0
2, 449061, Note_on_c, 0, 61, 0
2, 449102, Note_on_c, 0, 48, 0
2, 449137, Control_c, 0, 64, 0
2, 449235, Note_on_c, 0, 41, 54
2, 449238, Note_on_c, 0, 63, 48
2, 449246, Note_on_c, 0, 51, 31
2, 449247, Note_on_c, 0, 57, 64
2, 449446, Control_c, 0, 64, 127
2, 449565, Note_on_c, 0, 41, 0
2, 449627, Note_on_c, 0, 63, 0
2, 449633, Note_on_c, 0, 51, 0
2, 449701, Note_on_c, 0, 63, 17
2, 449710, Note_on_c, 0, 57, 0
2, 449718, Note_on_c, 0, 56, 72
2, 449726, Note_on_c, 0, 41, 52
2, 449729, Note_on_c, 0, 51, 22
2, 449987, Control_c, 0, 64, 127
2, 450005, Note_on_c, 0, 63, 0
2, 450024, Note_on_c, 0, 51, 0
2, 450030, Note_on_c, 0, 41, 0
2, 450059, Note_on_c, 0, 56, 0
2, 450085, Control_c, 0, 64, 0
2, 450198, Note_on_c, 0, 63, 17
2, 450200, Note_on_c, 0, 51, 23
2, 450203, Note_on_c, 0, 41, 52
2, 450472, Note_on_c, 0, 41, 0
2, 450493, Note_on_c, 0, 51, 0
2, 450561, Note_on_c, 0, 63, 0
2, 450725, Note_on_c, 0, 41, 64
2, 450726, Note_on_c, 0, 63, 29
2, 450733, Note_on_c, 0, 55, 74
2, 450752, Note_on_c, 0, 51, 31
2, 450966, Note_on_c, 0, 63, 0
2, 451030, Note_on_c, 0, 51, 0
2, 451101, Note_on_c, 0, 55, 0
2, 451185, Note_on_c, 0, 54, 38
2, 451193, Note_on_c, 0, 51, 28
2, 451229, Note_on_c, 0, 63, 36
2, 451517, Note_on_c, 0, 51, 0
2, 451657, Note_on_c, 0, 54, 0
2, 451661, Note_on_c, 0, 51, 31
2, 451696, Note_on_c, 0, 53, 62
2, 451697, Note_on_c, 0, 63, 0
2, 451904, Note_on_c, 0, 53, 0
2, 451915, Note_on_c, 0, 41, 0
2, 452011, Note_on_c, 0, 51, 0
2, 452171, Note_on_c, 0, 41, 57
2, 452190, Note_on_c, 0, 63, 74
2, 452211, Note_on_c, 0, 53, 55
2, 452419, Note_on_c, 0, 63, 0
2, 452563, Note_on_c, 0, 53, 0
2, 452675, Note_on_c, 0, 51, 45
2, 452699, Control_c, 0, 64, 127
2, 452702, Note_on_c, 0, 53, 59
2, 452813, Note_on_c, 0, 51, 0
2, 452846, Note_on_c, 0, 41, 0
2, 452864, Note_on_c, 0, 53, 0
2, 452907, Control_c, 0, 64, 0
2, 453109, Note_on_c, 0, 61, 74
2, 453112, Note_on_c, 0, 53, 48
2, 453120, Note_on_c, 0, 46, 56
2, 453190, Note_on_c, 0, 53, 0
2, 453227, Control_c, 0, 64, 127
2, 453294, Note_on_c, 0, 46, 0
2, 453318, Note_on_c, 0, 61, 0
2, 454014, Control_c, 0, 64, 0
2, 454092, Note_on_c, 0, 65, 52
2, 454094, Note_on_c, 0, 84, 70
2, 454101, Note_on_c, 0, 72, 63
2, 454105, Note_on_c, 0, 61, 33
2, 454121, Note_on_c, 0, 60, 39
2, 454190, Control_c, 0, 64, 127
2, 454361, Note_on_c, 0, 84, 0
2, 454424, Note_on_c, 0, 61, 0
2, 454438, Note_on_c, 0, 65, 0
2, 454446, Note_on_c, 0, 72, 0
2, 454465, Note_on_c, 0, 60, 0
2, 454608, Control_c, 0, 64, 0
2, 454632, Note_on_c, 0, 73, 50
2, 454638, Note_on_c, 0, 65, 40
2, 454646, Note_on_c, 0, 85, 69
2, 454652, Note_on_c, 0, 61, 38
2, 454657, Note_on_c, 0, 60, 46
2, 454816, Control_c, 0, 64, 127
2, 454982, Note_on_c, 0, 73, 0
2, 455014, Note_on_c, 0, 65, 0
2, 455017, Note_on_c, 0, 85, 0
2, 455032, Note_on_c, 0, 60, 0
2, 455088, Note_on_c, 0, 61, 0
2, 455608, Note_on_c, 0, 60, 59
2, 455627, Note_on_c, 0, 65, 28
2, 455630, Note_on_c, 0, 87, 69
2, 455635, Note_on_c, 0, 75, 65
2, 455782, Note_on_c, 0, 65, 0
2, 455861, Note_on_c, 0, 60, 0
2, 455880, Note_on_c, 0, 87, 0
2, 455888, Note_on_c, 0, 75, 0
2, 456557, Note_on_c, 0, 85, 74
2, 456560, Note_on_c, 0, 73, 55
2, 456565, Control_c, 0, 64, 0
2, 456566, Note_on_c, 0, 66, 48
2, 456573, Note_on_c, 0, 61, 42
2, 456579, Note_on_c, 0, 57, 53
2, 456580, Note_on_c, 0, 63, 54
2, 456937, Note_on_c, 0, 57, 0
2, 456950, Control_c, 0, 64, 127
2, 456952, Note_on_c, 0, 63, 0
2, 456953, Note_on_c, 0, 61, 0
2, 456974, Note_on_c, 0, 73, 0
2, 457000, Note_on_c, 0, 66, 0
2, 457003, Note_on_c, 0, 85, 0
2, 457446, Control_c, 0, 64, 0
2, 457496, Note_on_c, 0, 73, 52
2, 457501, Note_on_c, 0, 66, 50
2, 457502, Note_on_c, 0, 85, 67
2, 457517, Note_on_c, 0, 61, 45
2, 457529, Note_on_c, 0, 57, 46
2, 457557, Note_on_c, 0, 63, 33
2, 457832, Control_c, 0, 64, 127
2, 457997, Note_on_c, 0, 85, 0
2, 458046, Note_on_c, 0, 73, 0
2, 458075, Note_on_c, 0, 57, 0
2, 458089, Note_on_c, 0, 63, 0
2, 458091, Note_on_c, 0, 61, 0
2, 458115, Note_on_c, 0, 66, 0
2, 458419, Note_on_c, 0, 66, 54
2, 458427, Note_on_c, 0, 82, 54
2, 458432, Note_on_c, 0, 70, 49
2, 458437, Note_on_c, 0, 61, 50
2, 458501, Note_on_c, 0, 57, 20
2, 458558, Note_on_c, 0, 70, 0
2, 458560, Note_on_c, 0, 57, 0
2, 458577, Note_on_c, 0, 66, 0
2, 458601, Note_on_c, 0, 82, 0
2, 458616, Note_on_c, 0, 61, 0
2, 458665, Control_c, 0, 64, 0
2, 458888, Note_on_c, 0, 66, 56
2, 458902, Note_on_c, 0, 73, 50
2, 458909, Note_on_c, 0, 85, 71
2, 458918, Note_on_c, 0, 61, 38
2, 458923, Note_on_c, 0, 57, 39
2, 458958, Note_on_c, 0, 63, 26
2, 459101, Note_on_c, 0, 85, 0
2, 459135, Note_on_c, 0, 73, 0
2, 459157, Note_on_c, 0, 63, 0
2, 459171, Note_on_c, 0, 61, 0
2, 459177, Note_on_c, 0, 57, 0
2, 459190, Note_on_c, 0, 66, 0
2, 459400, Note_on_c, 0, 66, 55
2, 459414, Note_on_c, 0, 85, 61
2, 459424, Note_on_c, 0, 61, 34
2, 459430, Note_on_c, 0, 73, 42
2, 459440, Note_on_c, 0, 57, 38
2, 459462, Note_on_c, 0, 63, 28
2, 459605, Note_on_c, 0, 85, 0
2, 459622, Note_on_c, 0, 66, 0
2, 459631, Note_on_c, 0, 73, 0
2, 459653, Note_on_c, 0, 57, 0
2, 459685, Note_on_c, 0, 63, 0
2, 459707, Note_on_c, 0, 61, 0
2, 459840, Control_c, 0, 64, 127
2, 459877, Note_on_c, 0, 82, 61
2, 459885, Note_on_c, 0, 66, 56
2, 459907, Note_on_c, 0, 70, 51
2, 459913, Note_on_c, 0, 57, 46
2, 459926, Note_on_c, 0, 61, 39
2, 459933, Note_on_c, 0, 63, 32
2, 460185, Note_on_c, 0, 70, 0
2, 460257, Note_on_c, 0, 57, 0
2, 460273, Note_on_c, 0, 82, 0
2, 460275, Note_on_c, 0, 63, 0
2, 460280, Note_on_c, 0, 61, 0
2, 460317, Note_on_c, 0, 66, 0
2, 460859, Note_on_c, 0, 65, 82
2, 460862, Note_on_c, 0, 99, 96
2, 460868, Note_on_c, 0, 60, 73
2, 460869, Note_on_c, 0, 56, 61
2, 460871, Note_on_c, 0, 87, 95
2, 460875, Note_on_c, 0, 61, 63
2, 461022, Control_c, 0, 64, 0
2, 461577, Note_on_c, 0, 99, 0
2, 461598, Note_on_c, 0, 65, 0
2, 461612, Note_on_c, 0, 87, 0
2, 461614, Note_on_c, 0, 61, 0
2, 461642, Note_on_c, 0, 56, 0
2, 461649, Note_on_c, 0, 60, 0
2, 461762, Note_on_c, 0, 65, 60
2, 461788, Note_on_c, 0, 61, 54
2, 461792, Note_on_c, 0, 60, 31
2, 461795, Note_on_c, 0, 97, 56
2, 461799, Control_c, 0, 64, 127
2, 461809, Note_on_c, 0, 56, 32
2, 461811, Note_on_c, 0, 85, 56
2, 462061, Note_on_c, 0, 85, 0
2, 462121, Note_on_c, 0, 65, 0
2, 462144, Note_on_c, 0, 60, 0
2, 462147, Note_on_c, 0, 97, 0
2, 462158, Note_on_c, 0, 56, 0
2, 462172, Note_on_c, 0, 61, 0
2, 462290, Control_c, 0, 64, 0
2, 462371, Note_on_c, 0, 61, 39
2, 462376, Note_on_c, 0, 99, 95
2, 462379, Note_on_c, 0, 60, 74
2, 462381, Note_on_c, 0, 87, 82
2, 462383, Note_on_c, 0, 65, 75
2, 462395, Note_on_c, 0, 56, 71
2, 462819, Note_on_c, 0, 99, 0
2, 462851, Note_on_c, 0, 56, 0
2, 462874, Note_on_c, 0, 65, 0
2, 462895, Note_on_c, 0, 60, 0
2, 462914, Note_on_c, 0, 87, 0
2, 462920, Note_on_c, 0, 61, 0
2, 463226, Note_on_c, 0, 65, 70
2, 463229, Note_on_c, 0, 56, 69
2, 463233, Note_on_c, 0, 61, 63
2, 463244, Note_on_c, 0, 60, 65
2, 463245, Note_on_c, 0, 85, 73
2, 463249, Note_on_c, 0, 97, 77
2, 463416, Note_on_c, 0, 85, 0
2, 463467, Note_on_c, 0, 56, 0
2, 463483, Note_on_c, 0, 97, 0
2, 463492, Note_on_c, 0, 65, 0
2, 463509, Note_on_c, 0, 60, 0
2, 463625, Note_on_c, 0, 61, 0
2, 464708, Control_c, 0, 64, 127
2, 465060, Control_c, 0, 64, 0
2, 465187, Note_on_c, 0, 65, 85
2, 465190, Note_on_c, 0, 56, 84
2, 465194, Note_on_c, 0, 61, 77
2, 465218, Note_on_c, 0, 99, 101
2, 465224, Note_on_c, 0, 87, 100
2, 465408, Note_on_c, 0, 56, 0
2, 465620, Note_on_c, 0, 65, 0
2, 465644, Note_on_c, 0, 99, 0
2, 465672, Note_on_c, 0, 61, 0
2, 465716, Note_on_c, 0, 87, 0
2, 466053, Note_on_c, 0, 56, 91
2, 466056, Note_on_c, 0, 61, 81
2, 466060, Note_on_c, 0, 65, 84
2, 466065, Note_on_c, 0, 97, 92
2, 466072, Note_on_c, 0, 85, 91
2, 466320, Note_on_c, 0, 85, 0
2, 466383, Note_on_c, 0, 65, 0
2, 466387, Note_on_c, 0, 97, 0
2, 466396, Note_on_c, 0, 56, 0
2, 466496, Note_on_c, 0, 61, 0
2, 466630, Control_c, 0, 64, 127
2, 466640, Note_on_c, 0, 56, 88
2, 466644, Note_on_c, 0, 99, 93
2, 466649, Note_on_c, 0, 61, 75
2, 466658, Note_on_c, 0, 65, 83
2, 466660, Note_on_c, 0, 87, 87
2, 466964, Note_on_c, 0, 99, 0
2, 467019, Note_on_c, 0, 87, 0
2, 467059, Note_on_c, 0, 65, 0
2, 467066, Note_on_c, 0, 56, 0
2, 467116, Note_on_c, 0, 61, 0
2, 467142, Control_c, 0, 64, 0
2, 467212, Note_on_c, 0, 97, 74
2, 467233, Note_on_c, 0, 85, 68
2, 467249, Note_on_c, 0, 56, 79
2, 467256, Note_on_c, 0, 65, 64
2, 467269, Note_on_c, 0, 61, 75
2, 467388, Note_on_c, 0, 85, 0
2, 467448, Note_on_c, 0, 97, 0
2, 467816, Note_on_c, 0, 65, 0
2, 467939, Note_on_c, 0, 56, 0
2, 468010, Note_on_c, 0, 61, 0
2, 468089, Note_on_c, 0, 99, 99
2, 468099, Note_on_c, 0, 87, 106
2, 468121, Note_on_c, 0, 60, 79
2, 468124, Note_on_c, 0, 64, 82
2, 468131, Note_on_c, 0, 55, 81
2, 468138, Note_on_c, 0, 94, 47
2, 468198, Note_on_c, 0, 94, 0
2, 468314, Note_on_c, 0, 88, 41
2, 468320, Note_on_c, 0, 87, 0
2, 468529, Note_on_c, 0, 99, 0
2, 468631, Note_on_c, 0, 100, 9
2, 469213, Note_on_c, 0, 88, 0
2, 469219, Note_on_c, 0, 100, 0
2, 469476, Note_on_c, 0, 87, 83
2, 469488, Note_on_c, 0, 99, 85
2, 469856, Note_on_c, 0, 60, 0
2, 469861, Note_on_c, 0, 99, 0
2, 469895, Note_on_c, 0, 87, 0
2, 469953, Note_on_c, 0, 60, 18
2, 469991, Note_on_c, 0, 97, 27
2, 470014, Note_on_c, 0, 85, 77
2, 470255, Note_on_c, 0, 64, 0
2, 470412, Note_on_c, 0, 97, 0
2, 470421, Note_on_c, 0, 85, 0
2, 470595, Note_on_c, 0, 96, 66
2, 470613, Note_on_c, 0, 60, 0
2, 470621, Note_on_c, 0, 84, 66
2, 470856, Note_on_c, 0, 84, 0
2, 470877, Note_on_c, 0, 96, 0
2, 471273, Note_on_c, 0, 64, 70
2, 471292, Note_on_c, 0, 60, 62
2, 471341, Control_c, 0, 64, 127
2, 471410, Note_on_c, 0, 55, 0
2, 471480, Note_on_c, 0, 64, 0
2, 471686, Note_on_c, 0, 60, 0
2, 471836, Control_c, 0, 64, 0
2, 471919, Note_on_c, 0, 60, 73
2, 471926, Note_on_c, 0, 54, 72
2, 471927, Note_on_c, 0, 63, 80
2, 472901, Note_on_c, 0, 75, 109
2, 473402, Note_on_c, 0, 60, 0
2, 473643, Note_on_c, 0, 74, 75
2, 473749, Note_on_c, 0, 60, 24
2, 473777, Note_on_c, 0, 63, 0
2, 473814, Note_on_c, 0, 73, 61
2, 473879, Note_on_c, 0, 74, 0
2, 473950, Note_on_c, 0, 75, 0
2, 474076, Note_on_c, 0, 72, 74
2, 474089, Note_on_c, 0, 73, 0
2, 474229, Note_on_c, 0, 72, 0
2, 474413, Note_on_c, 0, 69, 70
2, 474518, Note_on_c, 0, 54, 0
2, 474536, Note_on_c, 0, 60, 0
2, 474601, Note_on_c, 0, 69, 0
2, 474830, Note_on_c, 0, 66, 77
2, 474905, Note_on_c, 0, 54, 39
2, 474912, Note_on_c, 0, 60, 58
2, 475023, Note_on_c, 0, 60, 0
2, 475145, Note_on_c, 0, 66, 0
2, 475274, Note_on_c, 0, 54, 0
2, 475291, Note_on_c, 0, 65, 48
2, 475555, Note_on_c, 0, 65, 0
2, 475780, Note_on_c, 0, 63, 85
2, 476074, Note_on_c, 0, 63, 0
2, 476253, Note_on_c, 0, 61, 75
2, 476806, Note_on_c, 0, 53, 31
2, 476951, Note_on_c, 0, 53, 0
2, 477016, Note_on_c, 0, 61, 0
2, 477169, Note_on_c, 0, 58, 48
2, 477566, Note_on_c, 0, 58, 0
2, 477679, Note_on_c, 0, 60, 96
2, 477829, Note_on_c, 0, 53, 23
2, 478029, Note_on_c, 0, 53, 0
2, 478043, Note_on_c, 0, 60, 0
2, 478170, Note_on_c, 0, 57, 55
2, 478476, Note_on_c, 0, 57, 0
2, 478621, Note_on_c, 0, 58, 52
2, 478946, Note_on_c, 0, 58, 0
2, 479073, Note_on_c, 0, 46, 63
2, 479075, Note_on_c, 0, 60, 77
2, 479223, Note_on_c, 0, 46, 0
2, 479483, Note_on_c, 0, 60, 0
2, 479578, Note_on_c, 0, 61, 46
2, 479886, Note_on_c, 0, 61, 0
2, 480050, Note_on_c, 0, 64, 38
2, 480319, Note_on_c, 0, 64, 0
2, 480495, Note_on_c, 0, 70, 83
2, 480543, Note_on_c, 0, 61, 70
2, 480544, Note_on_c, 0, 65, 65
2, 480553, Note_on_c, 0, 60, 70
2, 480615, Note_on_c, 0, 60, 0
2, 480671, Note_on_c, 0, 65, 0
2, 480787, Note_on_c, 0, 61, 0
2, 480824, Note_on_c, 0, 70, 0
2, 480953, Note_on_c, 0, 72, 68
2, 481347, Note_on_c, 0, 72, 0
2, 481438, Note_on_c, 0, 73, 75
2, 481499, Note_on_c, 0, 65, 74
2, 481500, Note_on_c, 0, 61, 49
2, 481504, Note_on_c, 0, 60, 72
2, 481563, Note_on_c, 0, 60, 0
2, 481574, Note_on_c, 0, 65, 0
2, 481678, Note_on_c, 0, 61, 0
2, 481919, Note_on_c, 0, 75, 35
2, 481970, Note_on_c, 0, 73, 0
2, 482252, Note_on_c, 0, 75, 0
2, 482401, Note_on_c, 0, 77, 72
2, 482422, Note_on_c, 0, 61, 79
2, 482429, Note_on_c, 0, 65, 78
2, 482431, Note_on_c, 0, 60, 81
2, 482519, Note_on_c, 0, 65, 0
2, 482576, Note_on_c, 0, 60, 0
2, 482663, Note_on_c, 0, 61, 0
2, 482711, Note_on_c, 0, 77, 0
2, 482857, Note_on_c, 0, 78, 71
2, 483205, Note_on_c, 0, 78, 0
2, 483367, Note_on_c, 0, 82, 84
2, 483654, Note_on_c, 0, 82, 0
2, 483783, Note_on_c, 0, 63, 71
2, 483790, Note_on_c, 0, 84, 80
2, 483795, Note_on_c, 0, 58, 57
2, 483811, Note_on_c, 0, 52, 61
2, 483816, Note_on_c, 0, 72, 83
2, 484082, Note_on_c, 0, 84, 0
2, 484140, Note_on_c, 0, 72, 0
2, 484283, Note_on_c, 0, 73, 58
2, 484295, Note_on_c, 0, 85, 68
2, 484478, Note_on_c, 0, 73, 0
2, 484513, Note_on_c, 0, 85, 0
2, 484573, Note_on_c, 0, 52, 0
2, 484606, Note_on_c, 0, 63, 0
2, 484640, Note_on_c, 0, 58, 0
2, 484763, Note_on_c, 0, 63, 90
2, 484775, Note_on_c, 0, 58, 77
2, 484777, Note_on_c, 0, 52, 87
2, 484779, Note_on_c, 0, 87, 99
2, 484783, Note_on_c, 0, 75, 112
2, 485127, Note_on_c, 0, 52, 0
2, 485157, Note_on_c, 0, 87, 0
2, 485161, Note_on_c, 0, 63, 0
2, 485215, Note_on_c, 0, 58, 0
2, 485217, Note_on_c, 0, 75, 0
2, 485317, Note_on_c, 0, 63, 80
2, 485324, Note_on_c, 0, 52, 77
2, 485332, Note_on_c, 0, 58, 78
2, 485333, Note_on_c, 0, 85, 68
2, 485339, Note_on_c, 0, 73, 62
2, 485643, Note_on_c, 0, 52, 0
2, 485657, Note_on_c, 0, 73, 0
2, 485699, Note_on_c, 0, 63, 0
2, 485722, Note_on_c, 0, 58, 0
2, 485731, Note_on_c, 0, 85, 0
2, 485963, Note_on_c, 0, 63, 90
2, 485967, Note_on_c, 0, 87, 92
2, 485969, Note_on_c, 0, 75, 104
2, 485976, Note_on_c, 0, 58, 73
2, 485978, Note_on_c, 0, 52, 82
2, 486298, Note_on_c, 0, 52, 0
2, 486315, Note_on_c, 0, 87, 0
2, 486349, Note_on_c, 0, 75, 0
2, 486359, Note_on_c, 0, 63, 0
2, 486437, Note_on_c, 0, 58, 0
2, 486593, Note_on_c, 0, 63, 78
2, 486595, Note_on_c, 0, 58, 58
2, 486602, Note_on_c, 0, 85, 62
2, 486609, Note_on_c, 0, 73, 54
2, 486611, Note_on_c, 0, 52, 61
2, 486771, Note_on_c, 0, 73, 0
2, 486819, Note_on_c, 0, 85, 0
2, 486879, Note_on_c, 0, 52, 0
2, 486901, Note_on_c, 0, 63, 0
2, 487088, Note_on_c, 0, 58, 0
2, 487244, Note_on_c, 0, 89, 82
2, 487257, Note_on_c, 0, 57, 91
2, 487262, Note_on_c, 0, 51, 83
2, 487264, Note_on_c, 0, 77, 96
2, 487269, Note_on_c, 0, 62, 101
2, 487276, Note_on_c, 0, 88, 81
2, 487334, Note_on_c, 0, 88, 0
2, 488295, Note_on_c, 0, 77, 0
2, 488371, Note_on_c, 0, 89, 0
2, 488609, Note_on_c, 0, 88, 96
2, 488614, Note_on_c, 0, 89, 87
2, 488679, Note_on_c, 0, 62, 0
2, 488799, Note_on_c, 0, 57, 0
2, 488815, Note_on_c, 0, 51, 0
2, 488945, Note_on_c, 0, 89, 0
2, 488985, Note_on_c, 0, 88, 0
2, 489179, Note_on_c, 0, 87, 86
2, 489193, Note_on_c, 0, 62, 74
2, 489198, Note_on_c, 0, 57, 72
2, 489200, Note_on_c, 0, 89, 82
2, 489212, Note_on_c, 0, 51, 37
2, 489446, Note_on_c, 0, 62, 0
2, 489483, Note_on_c, 0, 57, 0
2, 489522, Note_on_c, 0, 51, 0
2, 489677, Note_on_c, 0, 89, 0
2, 489716, Note_on_c, 0, 87, 0
2, 490098, Note_on_c, 0, 85, 101
2, 490110, Note_on_c, 0, 89, 91
2, 490135, Note_on_c, 0, 57, 77
2, 490140, Note_on_c, 0, 51, 67
2, 490142, Note_on_c, 0, 62, 82
2, 490388, Note_on_c, 0, 57, 0
2, 490400, Note_on_c, 0, 51, 0
2, 490404, Note_on_c, 0, 89, 0
2, 490427, Note_on_c, 0, 85, 0
2, 490546, Note_on_c, 0, 62, 0
2, 490619, Note_on_c, 0, 82, 92
2, 490680, Note_on_c, 0, 89, 55
2, 490749, Note_on_c, 0, 89, 0
2, 490921, Note_on_c, 0, 82, 0
2, 491090, Note_on_c, 0, 82, 78
2, 491145, Note_on_c, 0, 89, 60
2, 491220, Note_on_c, 0, 89, 0
2, 491307, Note_on_c, 0, 82, 0
2, 491486, Note_on_c, 0, 65, 67
2, 491506, Note_on_c, 0, 61, 43
2, 491507, Note_on_c, 0, 60, 61
2, 491741, Note_on_c, 0, 65, 0
2, 491743, Note_on_c, 0, 60, 0
2, 491847, Note_on_c, 0, 61, 0
2, 492951, Note_on_c, 0, 60, 79
2, 492959, Note_on_c, 0, 61, 60
2, 492972, Note_on_c, 0, 65, 46
2, 492995, Note_on_c, 0, 67, 48
2, 493053, Note_on_c, 0, 67, 0
2, 493340, Note_on_c, 0, 65, 0
2, 493435, Note_on_c, 0, 61, 0
2, 493482, Note_on_c, 0, 60, 0
2, 493940, Note_on_c, 0, 61, 79
2, 493945, Note_on_c, 0, 65, 81
2, 493948, Note_on_c, 0, 60, 78
2, 494341, Note_on_c, 0, 65, 0
2, 494427, Note_on_c, 0, 60, 0
2, 494429, Note_on_c, 0, 94, 92
2, 494496, Note_on_c, 0, 61, 0
2, 494582, Note_on_c, 0, 94, 0
2, 494726, Note_on_c, 0, 95, 97
2, 494888, Note_on_c, 0, 95, 0
2, 495048, Note_on_c, 0, 96, 98
2, 495274, Note_on_c, 0, 96, 0
2, 495337, Note_on_c, 0, 59, 43
2, 495342, Note_on_c, 0, 62, 72
2, 495363, Note_on_c, 0, 53, 49
2, 495381, Note_on_c, 0, 97, 96
2, 495578, Note_on_c, 0, 97, 0
2, 495735, Note_on_c, 0, 98, 95
2, 495920, Note_on_c, 0, 98, 0
2, 495930, Note_on_c, 0, 59, 0
2, 496097, Note_on_c, 0, 94, 91
2, 496101, Note_on_c, 0, 59, 25
2, 496268, Note_on_c, 0, 94, 0
2, 496384, Note_on_c, 0, 95, 85
2, 496405, Note_on_c, 0, 59, 0
2, 496520, Note_on_c, 0, 62, 0
2, 496630, Note_on_c, 0, 95, 0
2, 496634, Note_on_c, 0, 91, 74
2, 496786, Note_on_c, 0, 91, 0
2, 496879, Note_on_c, 0, 86, 69
2, 497009, Note_on_c, 0, 86, 0
2, 497296, Note_on_c, 0, 53, 0
2, 497894, Note_on_c, 0, 62, 82
2, 497909, Note_on_c, 0, 59, 76
2, 497924, Note_on_c, 0, 53, 47
2, 498051, Note_on_c, 0, 62, 0
2, 498113, Note_on_c, 0, 53, 0
2, 498192, Note_on_c, 0, 59, 0
2, 498319, Note_on_c, 0, 82, 76
2, 498577, Note_on_c, 0, 82, 0
2, 498598, Note_on_c, 0, 83, 79
2, 498766, Note_on_c, 0, 83, 0
2, 498832, Note_on_c, 0, 86, 104
2, 499091, Note_on_c, 0, 86, 0
2, 499341, Note_on_c, 0, 57, 64
2, 499345, Note_on_c, 0, 62, 76
2, 499355, Note_on_c, 0, 58, 58
2, 499382, Note_on_c, 0, 52, 48
2, 499678, Note_on_c, 0, 75, 93
2, 499681, Note_on_c, 0, 87, 85
2, 499867, Note_on_c, 0, 88, 80
2, 499880, Note_on_c, 0, 87, 0
2, 499913, Note_on_c, 0, 58, 0
2, 499915, Note_on_c, 0, 75, 0
2, 499929, Note_on_c, 0, 86, 35
2, 499940, Note_on_c, 0, 76, 64
2, 499945, Note_on_c, 0, 85, 21
2, 500036, Note_on_c, 0, 88, 0
2, 500038, Note_on_c, 0, 86, 0
2, 500056, Note_on_c, 0, 62, 0
2, 500103, Note_on_c, 0, 76, 0
2, 500151, Note_on_c, 0, 85, 0
2, 500172, Note_on_c, 0, 57, 0
2, 500209, Note_on_c, 0, 52, 0
2, 500265, Note_on_c, 0, 88, 85
2, 500279, Note_on_c, 0, 76, 87
2, 500309, Note_on_c, 0, 86, 46
2, 500571, Note_on_c, 0, 88, 0
2, 500591, Note_on_c, 0, 76, 0
2, 500608, Note_on_c, 0, 86, 0
2, 500779, Note_on_c, 0, 88, 83
2, 500784, Note_on_c, 0, 62, 69
2, 500791, Note_on_c, 0, 76, 88
2, 500795, Note_on_c, 0, 57, 54
2, 500800, Note_on_c, 0, 58, 45
2, 500814, Note_on_c, 0, 52, 42
2, 501025, Note_on_c, 0, 62, 0
2, 501057, Note_on_c, 0, 88, 0
2, 501064, Note_on_c, 0, 76, 0
2, 501110, Note_on_c, 0, 58, 0
2, 501112, Note_on_c, 0, 52, 0
2, 501163, Note_on_c, 0, 57, 0
2, 501348, Note_on_c, 0, 88, 89
2, 501367, Note_on_c, 0, 76, 88
2, 501659, Note_on_c, 0, 88, 0
2, 501678, Note_on_c, 0, 76, 0
2, 501717, Note_on_c, 0, 62, 82
2, 501733, Note_on_c, 0, 57, 62
2, 501749, Note_on_c, 0, 58, 43
2, 501775, Note_on_c, 0, 62, 0
2, 501789, Note_on_c, 0, 52, 20
2, 501856, Note_on_c, 0, 58, 0
2, 501879, Note_on_c, 0, 52, 0
2, 501893, Note_on_c, 0, 57, 0
2, 502036, Note_on_c, 0, 88, 84
2, 502052, Note_on_c, 0, 76, 88
2, 502208, Control_c, 0, 64, 127
2, 502342, Note_on_c, 0, 88, 0
2, 502358, Note_on_c, 0, 76, 0
2, 502580, Control_c, 0, 64, 0
2, 502687, Note_on_c, 0, 88, 91
2, 502692, Note_on_c, 0, 52, 74
2, 502703, Note_on_c, 0, 76, 91
2, 502710, Note_on_c, 0, 60, 80
2, 502713, Note_on_c, 0, 58, 59
2, 502722, Note_on_c, 0, 84, 72
2, 502778, Note_on_c, 0, 84, 0
2, 502882, Note_on_c, 0, 84, 19
2, 503038, Control_c, 0, 64, 127
2, 503863, Note_on_c, 0, 84, 0
2, 503889, Note_on_c, 0, 88, 0
2, 503968, Note_on_c, 0, 60, 0
2, 503972, Note_on_c, 0, 76, 0
2, 504000, Note_on_c, 0, 58, 0
2, 504040, Note_on_c, 0, 52, 0
2, 504415, Control_c, 0, 64, 0
2, 504489, Note_on_c, 0, 52, 84
2, 504491, Note_on_c, 0, 60, 88
2, 504494, Note_on_c, 0, 58, 73
2, 504926, Control_c, 0, 64, 127
2, 505095, Note_on_c, 0, 60, 0
2, 505096, Note_on_c, 0, 52, 0
2, 505148, Note_on_c, 0, 58, 0
2, 505473, Note_on_c, 0, 52, 73
2, 505476, Note_on_c, 0, 58, 63
2, 505480, Note_on_c, 0, 60, 75
2, 505651, Note_on_c, 0, 52, 0
2, 505765, Note_on_c, 0, 60, 0
2, 505797, Note_on_c, 0, 58, 0
2, 505953, Note_on_c, 0, 72, 71
2, 506108, Note_on_c, 0, 72, 0
2, 506744, Control_c, 0, 64, 0
2, 506863, Note_on_c, 0, 67, 80
2, 506870, Note_on_c, 0, 63, 69
2, 506872, Note_on_c, 0, 77, 118
2, 506878, Note_on_c, 0, 58, 61
2, 506881, Note_on_c, 0, 62, 74
2, 507420, Note_on_c, 0, 74, 61
2, 507462, Note_on_c, 0, 77, 0
2, 507747, Note_on_c, 0, 74, 0
2, 507777, Note_on_c, 0, 67, 0
2, 507856, Note_on_c, 0, 75, 90
2, 507981, Note_on_c, 0, 63, 0
2, 508046, Note_on_c, 0, 62, 0
2, 508399, Note_on_c, 0, 67, 52
2, 508409, Note_on_c, 0, 63, 29
2, 508435, Note_on_c, 0, 62, 28
2, 508516, Note_on_c, 0, 75, 0
2, 508609, Note_on_c, 0, 67, 0
2, 508713, Note_on_c, 0, 62, 0
2, 508769, Note_on_c, 0, 63, 0
2, 508842, Note_on_c, 0, 74, 101
2, 509195, Note_on_c, 0, 58, 0
2, 509327, Note_on_c, 0, 73, 70
2, 509356, Note_on_c, 0, 58, 43
2, 509378, Note_on_c, 0, 67, 52
2, 509392, Note_on_c, 0, 63, 46
2, 509396, Note_on_c, 0, 62, 57
2, 509449, Note_on_c, 0, 74, 0
2, 509658, Note_on_c, 0, 73, 0
2, 509725, Note_on_c, 0, 62, 0
2, 509766, Note_on_c, 0, 67, 0
2, 509785, Note_on_c, 0, 72, 64
2, 509984, Note_on_c, 0, 63, 0
2, 510193, Note_on_c, 0, 58, 0
2, 510281, Note_on_c, 0, 72, 0
2, 510332, Note_on_c, 0, 70, 90
2, 510338, Note_on_c, 0, 63, 75
2, 510343, Note_on_c, 0, 67, 71
2, 510353, Note_on_c, 0, 57, 80
2, 510630, Note_on_c, 0, 67, 0
2, 510894, Note_on_c, 0, 57, 0
2, 510968, Note_on_c, 0, 63, 0
2, 511147, Note_on_c, 0, 70, 0
2, 511272, Note_on_c, 0, 69, 91
2, 511274, Note_on_c, 0, 63, 82
2, 511295, Note_on_c, 0, 57, 84
2, 511858, Note_on_c, 0, 57, 0
2, 511936, Note_on_c, 0, 63, 0
2, 512159, Note_on_c, 0, 69, 0
2, 512242, Note_on_c, 0, 63, 85
2, 512245, Note_on_c, 0, 70, 86
2, 512267, Note_on_c, 0, 57, 84
2, 512606, Note_on_c, 0, 70, 0
2, 512747, Note_on_c, 0, 72, 75
2, 513000, Note_on_c, 0, 63, 0
2, 513026, Note_on_c, 0, 57, 0
2, 513129, Note_on_c, 0, 72, 0
2, 513178, Note_on_c, 0, 73, 76
2, 513199, Note_on_c, 0, 63, 74
2, 513222, Note_on_c, 0, 57, 76
2, 513448, Note_on_c, 0, 73, 0
2, 513536, Note_on_c, 0, 57, 0
2, 513550, Note_on_c, 0, 63, 0
2, 513645, Note_on_c, 0, 77, 82
2, 514081, Note_on_c, 0, 77, 0
2, 514120, Note_on_c, 0, 78, 93
2, 514414, Note_on_c, 0, 78, 0
2, 514556, Note_on_c, 0, 65, 69
2, 514581, Note_on_c, 0, 54, 46
2, 514584, Note_on_c, 0, 60, 63
2, 514590, Note_on_c, 0, 84, 95
2, 514602, Note_on_c, 0, 58, 54
2, 514968, Note_on_c, 0, 84, 0
2, 515039, Note_on_c, 0, 85, 83
2, 515320, Note_on_c, 0, 85, 0
2, 515442, Note_on_c, 0, 65, 0
2, 515445, Note_on_c, 0, 54, 0
2, 515508, Note_on_c, 0, 89, 70
2, 515657, Note_on_c, 0, 60, 0
2, 515676, Note_on_c, 0, 58, 0
2, 515832, Note_on_c, 0, 89, 0
2, 515933, Note_on_c, 0, 65, 69
2, 515952, Note_on_c, 0, 60, 50
2, 515956, Note_on_c, 0, 54, 45
2, 515961, Note_on_c, 0, 58, 43
2, 516015, Note_on_c, 0, 90, 21
2, 516021, Note_on_c, 0, 89, 19
2, 516093, Note_on_c, 0, 89, 0
2, 516161, Note_on_c, 0, 90, 0
2, 516436, Note_on_c, 0, 58, 0
2, 516457, Note_on_c, 0, 60, 0
2, 516478, Note_on_c, 0, 65, 0
2, 516503, Note_on_c, 0, 94, 54
2, 516557, Note_on_c, 0, 54, 0
2, 516642, Control_c, 0, 64, 127
2, 516799, Note_on_c, 0, 94, 0
2, 516960, Control_c, 0, 64, 0
2, 516992, Note_on_c, 0, 65, 81
2, 517003, Note_on_c, 0, 54, 67
2, 517010, Note_on_c, 0, 60, 73
2, 517012, Note_on_c, 0, 58, 64
2, 517024, Note_on_c, 0, 96, 59
2, 517228, Note_on_c, 0, 96, 0
2, 517462, Note_on_c, 0, 97, 59
2, 517476, Note_on_c, 0, 85, 56
2, 517613, Control_c, 0, 64, 127
2, 517633, Note_on_c, 0, 65, 0
2, 517645, Note_on_c, 0, 85, 0
2, 517661, Note_on_c, 0, 97, 0
2, 517761, Note_on_c, 0, 60, 0
2, 517774, Note_on_c, 0, 58, 0
2, 517957, Note_on_c, 0, 60, 28
2, 517976, Note_on_c, 0, 87, 77
2, 517978, Note_on_c, 0, 99, 83
2, 518119, Note_on_c, 0, 99, 0
2, 518134, Note_on_c, 0, 87, 0
2, 518229, Control_c, 0, 64, 0
2, 518231, Note_on_c, 0, 60, 0
2, 518256, Note_on_c, 0, 54, 0
2, 518400, Note_on_c, 0, 53, 58
2, 518418, Note_on_c, 0, 56, 61
2, 518421, Note_on_c, 0, 61, 58
2, 518453, Note_on_c, 0, 97, 90
2, 518464, Note_on_c, 0, 85, 82
2, 518724, Note_on_c, 0, 97, 0
2, 518731, Note_on_c, 0, 61, 0
2, 518735, Note_on_c, 0, 85, 0
2, 518747, Note_on_c, 0, 53, 0
2, 518852, Note_on_c, 0, 56, 0
2, 519025, Note_on_c, 0, 61, 71
2, 519036, Note_on_c, 0, 96, 63
2, 519043, Note_on_c, 0, 56, 57
2, 519044, Note_on_c, 0, 53, 63
2, 519046, Note_on_c, 0, 84, 79
2, 519166, Note_on_c, 0, 61, 0
2, 519183, Note_on_c, 0, 96, 0
2, 519213, Note_on_c, 0, 84, 0
2, 519222, Note_on_c, 0, 53, 0
2, 519356, Note_on_c, 0, 56, 0
2, 519864, Note_on_c, 0, 61, 78
2, 519868, Note_on_c, 0, 53, 71
2, 519870, Note_on_c, 0, 56, 68
2, 519895, Note_on_c, 0, 94, 88
2, 519901, Note_on_c, 0, 82, 87
2, 520128, Note_on_c, 0, 61, 0
2, 520180, Note_on_c, 0, 53, 0
2, 520197, Note_on_c, 0, 94, 0
2, 520255, Note_on_c, 0, 82, 0
2, 520259, Note_on_c, 0, 56, 0
2, 520817, Note_on_c, 0, 61, 82
2, 520834, Note_on_c, 0, 56, 56
2, 520836, Note_on_c, 0, 53, 70
2, 520840, Note_on_c, 0, 92, 90
2, 520850, Note_on_c, 0, 80, 83
2, 521096, Note_on_c, 0, 53, 0
2, 521111, Note_on_c, 0, 92, 0
2, 521116, Note_on_c, 0, 61, 0
2, 521142, Note_on_c, 0, 56, 0
2, 521149, Note_on_c, 0, 80, 0
2, 521477, Control_c, 0, 64, 127
2, 521600, Control_c, 0, 64, 0
2, 521829, Note_on_c, 0, 89, 91
2, 521832, Note_on_c, 0, 85, 87
2, 521834, Note_on_c, 0, 82, 88
2, 521839, Note_on_c, 0, 77, 95
2, 521841, Note_on_c, 0, 61, 90
2, 521844, Note_on_c, 0, 54, 57
2, 521846, Note_on_c, 0, 58, 74
2, 521855, Note_on_c, 0, 51, 57
2, 521917, Note_on_c, 0, 88, 20
2, 521976, Note_on_c, 0, 88, 0
2, 522218, Control_c, 0, 64, 127
2, 522394, Note_on_c, 0, 89, 0
2, 522450, Note_on_c, 0, 85, 0
2, 522476, Note_on_c, 0, 82, 0
2, 522504, Note_on_c, 0, 58, 0
2, 522520, Note_on_c, 0, 77, 0
2, 522540, Note_on_c, 0, 54, 0
2, 522550, Note_on_c, 0, 61, 0
2, 522556, Note_on_c, 0, 51, 0
2, 522832, Note_on_c, 0, 54, 75
2, 522976, Note_on_c, 0, 54, 0
2, 523136, Control_c, 0, 64, 0
2, 523293, Note_on_c, 0, 77, 100
2, 523302, Note_on_c, 0, 70, 94
2, 523309, Note_on_c, 0, 65, 101
2, 523312, Note_on_c, 0, 73, 57
2, 523319, Note_on_c, 0, 68, 78
2, 523356, Note_on_c, 0, 67, 74
2, 523416, Note_on_c, 0, 67, 0
2, 523582, Note_on_c, 0, 68, 0
2, 523638, Note_on_c, 0, 70, 0
2, 523647, Note_on_c, 0, 77, 0
2, 523685, Note_on_c, 0, 73, 0
2, 523751, Note_on_c, 0, 65, 0
2, 523851, Note_on_c, 0, 63, 64
2, 524148, Note_on_c, 0, 63, 0
2, 524236, Note_on_c, 0, 66, 107
2, 524243, Note_on_c, 0, 70, 92
2, 524249, Note_on_c, 0, 77, 95
2, 524250, Note_on_c, 0, 73, 65
2, 524273, Note_on_c, 0, 65, 85
2, 524608, Note_on_c, 0, 77, 0
2, 524676, Note_on_c, 0, 66, 0
2, 524685, Note_on_c, 0, 73, 0
2, 524745, Note_on_c, 0, 70, 0
2, 524784, Note_on_c, 0, 63, 79
2, 524787, Note_on_c, 0, 66, 50
2, 524789, Note_on_c, 0, 75, 86
2, 524798, Note_on_c, 0, 70, 22
2, 524900, Note_on_c, 0, 65, 0
2, 525002, Note_on_c, 0, 70, 0
2, 525078, Note_on_c, 0, 63, 0
2, 525123, Note_on_c, 0, 66, 0
2, 525254, Note_on_c, 0, 73, 39
2, 525263, Note_on_c, 0, 66, 23
2, 525268, Note_on_c, 0, 70, 44
2, 525533, Note_on_c, 0, 70, 0
2, 525567, Note_on_c, 0, 66, 0
2, 525699, Note_on_c, 0, 73, 0
2, 525727, Note_on_c, 0, 70, 77
2, 525729, Note_on_c, 0, 75, 0
2, 525739, Note_on_c, 0, 66, 68
2, 525785, Note_on_c, 0, 49, 50
2, 525885, Note_on_c, 0, 49, 0
2, 526556, Note_on_c, 0, 66, 0
2, 526635, Note_on_c, 0, 70, 0
2, 527117, Note_on_c, 0, 66, 112
2, 527121, Note_on_c, 0, 70, 95
2, 527124, Note_on_c, 0, 65, 84
2, 527131, Note_on_c, 0, 77, 82
2, 527133, Note_on_c, 0, 73, 60
2, 527473, Note_on_c, 0, 77, 0
2, 527512, Note_on_c, 0, 66, 0
2, 527545, Note_on_c, 0, 70, 0
2, 527550, Note_on_c, 0, 73, 0
2, 527590, Note_on_c, 0, 65, 0
2, 527649, Note_on_c, 0, 63, 63
2, 527811, Note_on_c, 0, 63, 0
2, 528022, Note_on_c, 0, 66, 109
2, 528026, Note_on_c, 0, 70, 94
2, 528033, Note_on_c, 0, 77, 95
2, 528036, Note_on_c, 0, 73, 62
2, 528054, Note_on_c, 0, 65, 78
2, 528349, Note_on_c, 0, 77, 0
2, 528423, Note_on_c, 0, 73, 0
2, 528490, Note_on_c, 0, 70, 0
2, 528499, Note_on_c, 0, 65, 0
2, 528538, Note_on_c, 0, 63, 73
2, 528541, Note_on_c, 0, 75, 83
2, 528707, Note_on_c, 0, 63, 0
2, 528842, Note_on_c, 0, 66, 0
2, 528920, Note_on_c, 0, 75, 0
2, 528978, Note_on_c, 0, 73, 50
2, 529006, Note_on_c, 0, 66, 54
2, 529067, Note_on_c, 0, 75, 29
2, 529226, Note_on_c, 0, 75, 0
2, 529259, Note_on_c, 0, 66, 0
2, 529360, Note_on_c, 0, 73, 0
2, 529492, Note_on_c, 0, 70, 90
2, 529495, Note_on_c, 0, 48, 59
2, 529515, Note_on_c, 0, 58, 65
2, 529548, Note_on_c, 0, 73, 20
2, 529844, Note_on_c, 0, 70, 0
2, 529881, Note_on_c, 0, 73, 0
2, 530102, Note_on_c, 0, 69, 93
2, 530519, Note_on_c, 0, 58, 0
2, 530539, Note_on_c, 0, 55, 28
2, 530578, Note_on_c, 0, 69, 0
2, 530708, Note_on_c, 0, 55, 0
2, 530776, Note_on_c, 0, 64, 82
2, 531211, Note_on_c, 0, 64, 0
2, 531324, Note_on_c, 0, 55, 30
2, 531370, Note_on_c, 0, 63, 88
2, 531516, Note_on_c, 0, 55, 0
2, 531785, Note_on_c, 0, 63, 0
2, 531792, Note_on_c, 0, 48, 0
2, 531987, Note_on_c, 0, 61, 87
2, 532487, Note_on_c, 0, 48, 32
2, 532505, Note_on_c, 0, 61, 0
2, 532619, Note_on_c, 0, 60, 82
2, 533042, Note_on_c, 0, 60, 0
2, 533112, Note_on_c, 0, 48, 0
2, 533233, Note_on_c, 0, 58, 84
2, 533251, Note_on_c, 0, 41, 61
2, 533344, Note_on_c, 0, 51, 20
2, 533438, Note_on_c, 0, 51, 0
2, 533726, Note_on_c, 0, 41, 0
2, 534437, Note_on_c, 0, 58, 0
2, 534575, Note_on_c, 0, 57, 96
2, 535110, Note_on_c, 0, 31, 82
2, 535217, Note_on_c, 0, 31, 0
2, 535455, Note_on_c, 0, 57, 0
2, 535578, Note_on_c, 0, 58, 77
2, 535822, Note_on_c, 0, 58, 0
2, 535845, Note_on_c, 0, 53, 79
2, 536007, Note_on_c, 0, 53, 0
2, 536104, Note_on_c, 0, 54, 84
2, 536377, Note_on_c, 0, 56, 75
2, 536415, Note_on_c, 0, 41, 65
2, 536428, Note_on_c, 0, 54, 0
2, 536560, Note_on_c, 0, 41, 0
2, 536581, Note_on_c, 0, 56, 0
2, 536613, Note_on_c, 0, 57, 83
2, 536767, Note_on_c, 0, 57, 0
2, 536845, Note_on_c, 0, 58, 78
2, 537039, Note_on_c, 0, 58, 0
2, 537121, Note_on_c, 0, 60, 84
2, 537369, Note_on_c, 0, 61, 91
2, 537406, Note_on_c, 0, 60, 0
2, 537568, Note_on_c, 0, 56, 52
2, 537605, Note_on_c, 0, 61, 0
2, 537611, Note_on_c, 0, 46, 26
2, 537683, Note_on_c, 0, 57, 70
2, 537764, Note_on_c, 0, 57, 0
2, 537919, Note_on_c, 0, 60, 96
2, 538123, Note_on_c, 0, 60, 0
2, 538147, Note_on_c, 0, 57, 76
2, 538167, Note_on_c, 0, 56, 0
2, 538307, Note_on_c, 0, 57, 0
2, 538369, Note_on_c, 0, 58, 82
2, 538404, Note_on_c, 0, 53, 25
2, 538522, Note_on_c, 0, 58, 0
2, 538598, Note_on_c, 0, 60, 84
2, 538674, Note_on_c, 0, 56, 31
2, 538767, Note_on_c, 0, 60, 0
2, 538806, Note_on_c, 0, 53, 0
2, 538827, Note_on_c, 0, 61, 77
2, 538852, Note_on_c, 0, 56, 0
2, 539089, Note_on_c, 0, 63, 63
2, 539092, Note_on_c, 0, 61, 0
2, 539226, Note_on_c, 0, 63, 0
2, 539341, Note_on_c, 0, 65, 68
2, 539415, Note_on_c, 0, 56, 40
2, 539534, Note_on_c, 0, 65, 0
2, 539897, Note_on_c, 0, 56, 0
2, 540094, Note_on_c, 0, 72, 91
2, 540127, Note_on_c, 0, 71, 47
2, 540154, Note_on_c, 0, 56, 57
2, 540192, Note_on_c, 0, 71, 0
2, 540224, Note_on_c, 0, 53, 37
2, 540265, Note_on_c, 0, 72, 0
2, 540486, Note_on_c, 0, 56, 0
2, 540488, Note_on_c, 0, 53, 0
2, 540537, Note_on_c, 0, 46, 0
2, 540580, Note_on_c, 0, 73, 76
2, 540641, Note_on_c, 0, 72, 74
2, 540889, Note_on_c, 0, 72, 0
2, 540903, Note_on_c, 0, 73, 0
2, 541098, Note_on_c, 0, 75, 93
2, 541372, Note_on_c, 0, 75, 0
2, 541555, Note_on_c, 0, 62, 69
2, 541562, Note_on_c, 0, 73, 77
2, 541567, Note_on_c, 0, 56, 40
2, 541921, Note_on_c, 0, 62, 0
2, 541961, Note_on_c, 0, 73, 0
2, 542069, Note_on_c, 0, 74, 82
2, 542130, Note_on_c, 0, 62, 36
2, 542371, Note_on_c, 0, 74, 0
2, 542399, Note_on_c, 0, 56, 0
2, 542452, Note_on_c, 0, 62, 0
2, 542509, Note_on_c, 0, 79, 82
2, 542651, Control_c, 0, 64, 127
2, 542723, Control_c, 0, 64, 0
2, 542792, Control_c, 0, 64, 127
2, 542829, Note_on_c, 0, 79, 0
2, 542971, Note_on_c, 0, 83, 85
2, 543017, Note_on_c, 0, 56, 61
2, 543054, Note_on_c, 0, 62, 64
2, 543058, Control_c, 0, 64, 0
2, 543198, Note_on_c, 0, 56, 0
2, 543211, Note_on_c, 0, 62, 0
2, 543248, Note_on_c, 0, 83, 0
2, 543434, Note_on_c, 0, 56, 84
2, 543440, Note_on_c, 0, 86, 100
2, 543443, Note_on_c, 0, 67, 83
2, 543445, Note_on_c, 0, 74, 100
2, 543447, Note_on_c, 0, 62, 83
2, 543591, Control_c, 0, 64, 127
2, 543800, Note_on_c, 0, 86, 0
2, 543827, Note_on_c, 0, 67, 0
2, 543853, Note_on_c, 0, 56, 0
2, 543867, Note_on_c, 0, 74, 0
2, 543896, Note_on_c, 0, 62, 0
2, 543961, Note_on_c, 0, 86, 80
2, 543979, Note_on_c, 0, 74, 85
2, 543980, Note_on_c, 0, 67, 74
2, 543983, Note_on_c, 0, 56, 73
2, 543991, Note_on_c, 0, 62, 70
2, 544209, Control_c, 0, 64, 0
2, 544251, Note_on_c, 0, 67, 0
2, 544269, Note_on_c, 0, 56, 0
2, 544299, Note_on_c, 0, 74, 0
2, 544323, Note_on_c, 0, 86, 0
2, 544436, Note_on_c, 0, 67, 30
2, 544443, Note_on_c, 0, 56, 46
2, 544504, Note_on_c, 0, 83, 34
2, 544538, Note_on_c, 0, 67, 0
2, 544580, Control_c, 0, 64, 127
2, 544584, Note_on_c, 0, 62, 0
2, 544642, Note_on_c, 0, 83, 0
2, 544687, Note_on_c, 0, 56, 0
2, 544915, Control_c, 0, 64, 0
2, 544929, Note_on_c, 0, 75, 98
2, 544937, Note_on_c, 0, 87, 92
2, 544939, Note_on_c, 0, 61, 80
2, 544941, Note_on_c, 0, 65, 92
2, 544944, Note_on_c, 0, 58, 74
2, 544950, Note_on_c, 0, 54, 72
2, 545136, Note_on_c, 0, 65, 0
2, 545149, Note_on_c, 0, 75, 0
2, 545177, Note_on_c, 0, 54, 0
2, 545180, Note_on_c, 0, 87, 0
2, 545235, Note_on_c, 0, 61, 0
2, 545237, Note_on_c, 0, 58, 0
2, 545796, Note_on_c, 0, 89, 77
2, 545815, Note_on_c, 0, 54, 75
2, 545819, Note_on_c, 0, 77, 79
2, 545821, Note_on_c, 0, 61, 81
2, 545823, Note_on_c, 0, 58, 73
2, 545826, Note_on_c, 0, 65, 91
2, 545948, Note_on_c, 0, 65, 0
2, 545955, Note_on_c, 0, 77, 0
2, 546011, Note_on_c, 0, 89, 0
2, 546044, Note_on_c, 0, 61, 0
2, 546046, Note_on_c, 0, 54, 0
2, 546069, Note_on_c, 0, 58, 0
2, 546261, Note_on_c, 0, 80, 79
2, 546264, Note_on_c, 0, 61, 75
2, 546266, Note_on_c, 0, 65, 79
2, 546268, Note_on_c, 0, 92, 85
2, 546270, Note_on_c, 0, 54, 71
2, 546275, Note_on_c, 0, 58, 61
2, 546324, Note_on_c, 0, 82, 22
2, 546381, Note_on_c, 0, 65, 0
2, 546460, Note_on_c, 0, 82, 0
2, 546462, Note_on_c, 0, 80, 0
2, 546499, Note_on_c, 0, 61, 0
2, 546506, Note_on_c, 0, 92, 0
2, 546520, Note_on_c, 0, 54, 0
2, 546523, Note_on_c, 0, 58, 0
2, 546761, Note_on_c, 0, 61, 87
2, 546766, Note_on_c, 0, 55, 104
2, 546771, Note_on_c, 0, 93, 98
2, 546775, Note_on_c, 0, 66, 104
2, 546780, Note_on_c, 0, 90, 76
2, 546785, Note_on_c, 0, 81, 104
2, 546793, Note_on_c, 0, 88, 89
2, 546826, Note_on_c, 0, 91, 53
2, 546842, Note_on_c, 0, 58, 31
2, 546884, Note_on_c, 0, 91, 0
2, 546902, Note_on_c, 0, 58, 0
2, 547250, Note_on_c, 0, 81, 0
2, 547266, Note_on_c, 0, 55, 0
2, 547284, Note_on_c, 0, 93, 0
2, 547285, Note_on_c, 0, 90, 0
2, 547287, Note_on_c, 0, 88, 0
2, 547294, Note_on_c, 0, 66, 0
2, 547317, Note_on_c, 0, 61, 0
2, 547695, Note_on_c, 0, 61, 82
2, 547709, Note_on_c, 0, 55, 83
2, 547716, Note_on_c, 0, 66, 85
2, 547725, Note_on_c, 0, 93, 87
2, 547729, Note_on_c, 0, 88, 91
2, 547732, Note_on_c, 0, 81, 98
2, 547762, Note_on_c, 0, 91, 48
2, 547796, Note_on_c, 0, 58, 23
2, 547822, Note_on_c, 0, 91, 0
2, 547914, Note_on_c, 0, 93, 0
2, 547947, Note_on_c, 0, 55, 0
2, 547972, Note_on_c, 0, 81, 0
2, 548002, Note_on_c, 0, 66, 0
2, 548031, Note_on_c, 0, 88, 0
2, 548081, Note_on_c, 0, 58, 0
2, 548088, Note_on_c, 0, 61, 0
2, 548238, Note_on_c, 0, 65, 93
2, 548239, Note_on_c, 0, 54, 82
2, 548241, Note_on_c, 0, 58, 78
2, 548244, Note_on_c, 0, 92, 99
2, 548253, Note_on_c, 0, 60, 84
2, 548257, Note_on_c, 0, 87, 92
2, 548259, Note_on_c, 0, 80, 90
2, 549149, Control_c, 0, 64, 127
2, 549179, Note_on_c, 0, 80, 0
2, 549242, Note_on_c, 0, 87, 0
2, 549263, Note_on_c, 0, 92, 0
2, 549292, Note_on_c, 0, 65, 0
2, 549334, Note_on_c, 0, 54, 0
2, 549353, Note_on_c, 0, 60, 0
2, 549395, Note_on_c, 0, 58, 0
2, 549709, Note_on_c, 0, 87, 106
2, 549711, Note_on_c, 0, 94, 95
2, 549712, Note_on_c, 0, 99, 96
2, 549718, Control_c, 0, 64, 0
2, 549728, Note_on_c, 0, 65, 106
2, 549730, Note_on_c, 0, 58, 85
2, 549733, Note_on_c, 0, 60, 95
2, 549735, Note_on_c, 0, 54, 87
2, 550198, Note_on_c, 0, 65, 0
2, 550216, Note_on_c, 0, 87, 0
2, 550230, Note_on_c, 0, 99, 0
2, 550231, Note_on_c, 0, 60, 0
2, 550251, Note_on_c, 0, 54, 0
2, 550254, Note_on_c, 0, 94, 0
2, 550268, Note_on_c, 0, 58, 0
2, 550573, Note_on_c, 0, 99, 98
2, 550576, Note_on_c, 0, 87, 101
2, 550582, Note_on_c, 0, 94, 92
2, 550583, Note_on_c, 0, 65, 96
2, 550589, Note_on_c, 0, 54, 86
2, 550591, Note_on_c, 0, 58, 74
2, 550592, Note_on_c, 0, 60, 85
2, 550913, Note_on_c, 0, 65, 0
2, 550969, Note_on_c, 0, 99, 0
2, 550978, Note_on_c, 0, 87, 0
2, 550978, Note_on_c, 0, 54, 0
2, 550985, Note_on_c, 0, 94, 0
2, 550990, Note_on_c, 0, 60, 0
2, 551022, Note_on_c, 0, 58, 0
2, 551150, Note_on_c, 0, 54, 86
2, 551152, Note_on_c, 0, 64, 97
2, 551157, Note_on_c, 0, 60, 82
2, 551161, Note_on_c, 0, 98, 84
2, 551173, Note_on_c, 0, 86, 82
2, 551175, Note_on_c, 0, 93, 80
2, 551180, Note_on_c, 0, 97, 56
2, 551240, Note_on_c, 0, 97, 0
2, 551606, Control_c, 0, 64, 127
2, 551683, Note_on_c, 0, 86, 0
2, 551694, Note_on_c, 0, 98, 0
2, 551720, Note_on_c, 0, 64, 0
2, 551722, Note_on_c, 0, 93, 0
2, 551793, Note_on_c, 0, 54, 0
2, 551810, Note_on_c, 0, 60, 0
2, 551835, Control_c, 0, 64, 0
2, 551974, Note_on_c, 0, 97, 78
2, 551976, Note_on_c, 0, 54, 79
2, 551983, Note_on_c, 0, 64, 82
2, 551993, Note_on_c, 0, 85, 80
2, 552000, Note_on_c, 0, 92, 81
2, 552002, Note_on_c, 0, 60, 80
2, 552136, Control_c, 0, 64, 127
2, 552206, Note_on_c, 0, 64, 0
2, 552326, Note_on_c, 0, 92, 0
2, 552375, Note_on_c, 0, 85, 0
2, 552403, Note_on_c, 0, 97, 0
2, 552410, Note_on_c, 0, 54, 0
2, 552435, Control_c, 0, 64, 0
2, 552460, Note_on_c, 0, 60, 0
2, 552597, Note_on_c, 0, 96, 77
2, 552600, Note_on_c, 0, 84, 89
2, 552605, Note_on_c, 0, 92, 83
2, 552606, Note_on_c, 0, 60, 79
2, 552609, Note_on_c, 0, 53, 74
2, 552620, Note_on_c, 0, 63, 86
2, 552636, Note_on_c, 0, 56, 69
2, 552685, Note_on_c, 0, 95, 23
2, 552798, Note_on_c, 0, 95, 0
2, 552852, Note_on_c, 0, 96, 0
2, 552859, Control_c, 0, 64, 127
2, 552884, Note_on_c, 0, 92, 0
2, 552958, Note_on_c, 0, 53, 0
2, 552972, Note_on_c, 0, 63, 0
2, 552982, Note_on_c, 0, 84, 0
2, 553070, Note_on_c, 0, 56, 0
2, 553099, Note_on_c, 0, 60, 0
2, 553389, Control_c, 0, 64, 0
2, 553449, Note_on_c, 0, 92, 75
2, 553458, Note_on_c, 0, 60, 81
2, 553465, Note_on_c, 0, 80, 76
2, 553479, Note_on_c, 0, 63, 78
2, 553484, Note_on_c, 0, 53, 64
2, 553489, Note_on_c, 0, 56, 59
2, 553498, Note_on_c, 0, 86, 64
2, 553502, Note_on_c, 0, 89, 58
2, 553903, Note_on_c, 0, 60, 0
2, 553905, Note_on_c, 0, 86, 0
2, 553933, Note_on_c, 0, 89, 0
2, 553942, Note_on_c, 0, 63, 0
2, 553952, Control_c, 0, 64, 127
2, 553989, Note_on_c, 0, 53, 0
2, 554005, Note_on_c, 0, 92, 0
2, 554059, Note_on_c, 0, 80, 0
2, 554160, Note_on_c, 0, 56, 0
2, 554341, Control_c, 0, 64, 0
2, 554406, Note_on_c, 0, 91, 76
2, 554411, Note_on_c, 0, 86, 76
2, 554415, Note_on_c, 0, 79, 73
2, 554417, Note_on_c, 0, 64, 83
2, 554433, Note_on_c, 0, 53, 59
2, 554441, Note_on_c, 0, 59, 72
2, 554491, Note_on_c, 0, 89, 21
2, 554598, Note_on_c, 0, 89, 0
2, 554765, Control_c, 0, 64, 127
2, 555056, Note_on_c, 0, 59, 0
2, 555147, Note_on_c, 0, 53, 0
2, 555151, Note_on_c, 0, 64, 0
2, 555269, Note_on_c, 0, 79, 0
2, 555367, Note_on_c, 0, 91, 0
2, 555379, Note_on_c, 0, 59, 49
2, 555397, Note_on_c, 0, 86, 0
2, 555445, Note_on_c, 0, 59, 0
2, 555647, Control_c, 0, 64, 0
2, 555841, Note_on_c, 0, 63, 88
2, 555844, Note_on_c, 0, 58, 81
2, 555851, Note_on_c, 0, 90, 78
2, 555858, Note_on_c, 0, 78, 78
2, 555860, Note_on_c, 0, 52, 80
2, 555867, Note_on_c, 0, 85, 76
2, 556724, Control_c, 0, 64, 127
2, 556805, Note_on_c, 0, 90, 0
2, 556853, Note_on_c, 0, 85, 0
2, 556890, Note_on_c, 0, 78, 0
2, 556932, Note_on_c, 0, 52, 0
2, 556990, Note_on_c, 0, 58, 0
2, 557023, Note_on_c, 0, 63, 0
2, 557264, Note_on_c, 0, 63, 77
2, 557287, Note_on_c, 0, 58, 65
2, 557298, Note_on_c, 0, 52, 59
2, 557483, Control_c, 0, 64, 0
2, 557935, Note_on_c, 0, 63, 0
2, 558016, Note_on_c, 0, 58, 0
2, 558261, Note_on_c, 0, 82, 94
2, 558266, Note_on_c, 0, 70, 101
2, 558268, Note_on_c, 0, 75, 98
2, 558269, Note_on_c, 0, 63, 77
2, 558278, Note_on_c, 0, 58, 58
2, 558593, Control_c, 0, 64, 127
2, 558723, Note_on_c, 0, 63, 0
2, 558843, Note_on_c, 0, 82, 0
2, 558861, Note_on_c, 0, 70, 0
2, 558896, Note_on_c, 0, 58, 0
2, 558924, Note_on_c, 0, 75, 0
2, 558928, Note_on_c, 0, 52, 0
2, 559195, Control_c, 0, 64, 0
2, 559222, Note_on_c, 0, 80, 78
2, 559230, Note_on_c, 0, 75, 84
2, 559236, Note_on_c, 0, 68, 78
2, 559239, Note_on_c, 0, 52, 70
2, 559250, Note_on_c, 0, 58, 72
2, 559255, Note_on_c, 0, 63, 62
2, 559547, Note_on_c, 0, 63, 0
2, 559611, Note_on_c, 0, 80, 0
2, 559618, Control_c, 0, 64, 127
2, 559633, Note_on_c, 0, 75, 0
2, 559691, Note_on_c, 0, 68, 0
2, 559757, Note_on_c, 0, 52, 0
2, 559834, Note_on_c, 0, 58, 0
2, 560165, Control_c, 0, 64, 0
2, 560246, Note_on_c, 0, 75, 84
2, 560258, Note_on_c, 0, 68, 87
2, 560260, Note_on_c, 0, 72, 81
2, 560265, Note_on_c, 0, 64, 103
2, 560271, Note_on_c, 0, 63, 96
2, 561052, Note_on_c, 0, 64, 0
2, 561115, Note_on_c, 0, 68, 0
2, 561118, Note_on_c, 0, 72, 0
2, 561131, Note_on_c, 0, 75, 0
2, 561219, Note_on_c, 0, 61, 75
2, 561223, Note_on_c, 0, 73, 32
2, 561235, Note_on_c, 0, 64, 65
2, 561240, Note_on_c, 0, 63, 0
2, 561263, Note_on_c, 0, 68, 38
2, 561386, Note_on_c, 0, 64, 0
2, 561443, Note_on_c, 0, 68, 0
2, 561548, Note_on_c, 0, 73, 0
2, 561682, Note_on_c, 0, 75, 77
2, 561687, Note_on_c, 0, 61, 0
2, 561689, Note_on_c, 0, 68, 69
2, 561697, Note_on_c, 0, 72, 67
2, 561698, Note_on_c, 0, 64, 82
2, 561700, Note_on_c, 0, 63, 76
2, 562300, Note_on_c, 0, 64, 0
2, 562351, Note_on_c, 0, 68, 0
2, 562409, Note_on_c, 0, 75, 0
2, 562448, Note_on_c, 0, 72, 0
2, 562593, Note_on_c, 0, 73, 46
2, 562599, Note_on_c, 0, 64, 66
2, 562606, Note_on_c, 0, 63, 0
2, 562611, Note_on_c, 0, 68, 54
2, 562613, Note_on_c, 0, 61, 67
2, 562815, Note_on_c, 0, 64, 0
2, 562944, Note_on_c, 0, 68, 0
2, 562974, Note_on_c, 0, 73, 0
2, 563108, Note_on_c, 0, 64, 82
2, 563113, Note_on_c, 0, 75, 74
2, 563120, Note_on_c, 0, 63, 85
2, 563122, Note_on_c, 0, 68, 45
2, 563135, Note_on_c, 0, 61, 0
2, 563187, Note_on_c, 0, 72, 24
2, 563278, Note_on_c, 0, 72, 0
2, 563308, Note_on_c, 0, 63, 0
2, 563321, Note_on_c, 0, 64, 0
2, 563393, Note_on_c, 0, 75, 0
2, 563414, Note_on_c, 0, 68, 0
2, 563451, Note_on_c, 0, 61, 54
2, 563627, Note_on_c, 0, 61, 0
2, 564084, Note_on_c, 0, 72, 90
2, 564091, Note_on_c, 0, 61, 88
2, 564099, Note_on_c, 0, 65, 74
2, 564132, Note_on_c, 0, 57, 78
2, 564271, Note_on_c, 0, 61, 0
2, 564304, Note_on_c, 0, 65, 0
2, 564308, Note_on_c, 0, 57, 0
2, 564317, Note_on_c, 0, 72, 0
2, 564977, Note_on_c, 0, 72, 78
2, 564980, Note_on_c, 0, 65, 76
2, 564980, Note_on_c, 0, 61, 84
2, 564989, Note_on_c, 0, 57, 82
2, 564998, Note_on_c, 0, 69, 50
2, 565227, Note_on_c, 0, 72, 0
2, 565241, Note_on_c, 0, 69, 0
2, 565246, Note_on_c, 0, 61, 0
2, 565297, Note_on_c, 0, 65, 0
2, 565461, Note_on_c, 0, 57, 0
2, 565471, Note_on_c, 0, 61, 63
2, 565473, Note_on_c, 0, 70, 75
2, 565475, Note_on_c, 0, 65, 64
2, 565489, Note_on_c, 0, 51, 63
2, 565656, Control_c, 0, 64, 127
2, 565749, Note_on_c, 0, 51, 0
2, 566130, Note_on_c, 0, 61, 0
2, 566131, Note_on_c, 0, 65, 0
2, 566221, Control_c, 0, 64, 0
2, 566290, Note_on_c, 0, 70, 0
2, 566404, Note_on_c, 0, 61, 77
2, 566422, Note_on_c, 0, 69, 69
2, 566436, Note_on_c, 0, 65, 66
2, 566443, Note_on_c, 0, 41, 58
2, 566638, Note_on_c, 0, 41, 0
2, 566744, Note_on_c, 0, 65, 0
2, 566971, Note_on_c, 0, 61, 0
2, 567224, Note_on_c, 0, 69, 0
2, 567337, Note_on_c, 0, 61, 67
2, 567348, Note_on_c, 0, 65, 66
2, 567348, Note_on_c, 0, 57, 47
2, 567589, Note_on_c, 0, 65, 0
2, 567601, Note_on_c, 0, 57, 0
2, 567687, Note_on_c, 0, 61, 0
2, 568333, Note_on_c, 0, 61, 76
2, 568335, Note_on_c, 0, 53, 28
2, 568338, Note_on_c, 0, 63, 68
2, 568344, Note_on_c, 0, 56, 43
2, 568359, Note_on_c, 0, 46, 28
2, 568752, Note_on_c, 0, 61, 0
2, 568792, Note_on_c, 0, 63, 0
2, 568824, Note_on_c, 0, 56, 0
2, 568970, Note_on_c, 0, 53, 0
2, 569278, Note_on_c, 0, 61, 76
2, 569281, Note_on_c, 0, 63, 67
2, 569284, Note_on_c, 0, 53, 1
2, 569285, Note_on_c, 0, 56, 42
2, 569558, Note_on_c, 0, 53, 0
2, 569658, Note_on_c, 0, 56, 0
2, 569752, Note_on_c, 0, 61, 0
2, 569792, Note_on_c, 0, 63, 0
2, 569813, Note_on_c, 0, 60, 63
2, 569827, Note_on_c, 0, 53, 24
2, 570067, Note_on_c, 0, 60, 0
2, 570257, Note_on_c, 0, 61, 80
2, 570259, Note_on_c, 0, 56, 38
2, 570273, Note_on_c, 0, 63, 72
2, 570498, Note_on_c, 0, 56, 0
2, 570568, Note_on_c, 0, 61, 0
2, 570586, Note_on_c, 0, 63, 0
2, 570753, Note_on_c, 0, 63, 63
2, 570757, Note_on_c, 0, 56, 48
2, 570764, Note_on_c, 0, 61, 67
2, 570892, Note_on_c, 0, 53, 0
2, 571028, Note_on_c, 0, 56, 0
2, 571079, Note_on_c, 0, 61, 0
2, 571212, Note_on_c, 0, 60, 64
2, 571214, Note_on_c, 0, 63, 0
2, 571227, Note_on_c, 0, 46, 0
2, 571436, Note_on_c, 0, 60, 0
2, 571751, Note_on_c, 0, 68, 67
2, 571765, Note_on_c, 0, 61, 69
2, 571769, Note_on_c, 0, 63, 61
2, 571770, Note_on_c, 0, 56, 73
2, 571774, Note_on_c, 0, 57, 79
2, 572057, Note_on_c, 0, 57, 0
2, 572126, Note_on_c, 0, 68, 0
2, 572165, Note_on_c, 0, 61, 0
2, 572173, Note_on_c, 0, 56, 0
2, 572224, Note_on_c, 0, 63, 0
2, 572671, Note_on_c, 0, 66, 61
2, 572686, Note_on_c, 0, 57, 81
2, 572689, Note_on_c, 0, 54, 59
2, 572691, Note_on_c, 0, 63, 54
2, 572693, Note_on_c, 0, 61, 63
2, 572999, Note_on_c, 0, 57, 0
2, 573069, Note_on_c, 0, 61, 0
2, 573106, Note_on_c, 0, 66, 0
2, 573147, Note_on_c, 0, 63, 0
2, 573293, Note_on_c, 0, 54, 0
2, 573617, Note_on_c, 0, 61, 57
2, 573620, Note_on_c, 0, 65, 37
2, 573626, Note_on_c, 0, 57, 66
2, 573638, Note_on_c, 0, 53, 63
2, 573657, Note_on_c, 0, 63, 38
2, 573687, Note_on_c, 0, 57, 0
2, 573777, Note_on_c, 0, 61, 0
2, 573823, Note_on_c, 0, 63, 0
2, 573852, Note_on_c, 0, 65, 0
2, 574639, Note_on_c, 0, 41, 67
2, 574745, Control_c, 0, 64, 127
2, 574780, Note_on_c, 0, 41, 0
2, 574928, Note_on_c, 0, 53, 0
2, 576037, Control_c, 0, 64, 0
2, 576077, Note_on_c, 0, 61, 63
2, 576079, Note_on_c, 0, 65, 68
2, 576082, Note_on_c, 0, 60, 76
2, 576083, Note_on_c, 0, 89, 103
2, 576095, Note_on_c, 0, 77, 100
2, 576966, Control_c, 0, 64, 127
2, 577051, Note_on_c, 0, 89, 0
2, 577206, Note_on_c, 0, 65, 0
2, 577308, Note_on_c, 0, 61, 0
2, 577345, Note_on_c, 0, 60, 0
2, 577373, Note_on_c, 0, 77, 0
2, 577496, Control_c, 0, 64, 0
2, 577507, Note_on_c, 0, 82, 98
2, 577514, Note_on_c, 0, 61, 55
2, 577517, Note_on_c, 0, 65, 79
2, 577524, Note_on_c, 0, 60, 73
2, 577867, Control_c, 0, 64, 127
2, 578001, Note_on_c, 0, 61, 0
2, 578012, Note_on_c, 0, 65, 0
2, 578077, Note_on_c, 0, 60, 0
2, 578445, Note_on_c, 0, 65, 82
2, 578450, Note_on_c, 0, 60, 82
2, 578455, Note_on_c, 0, 61, 75
2, 578696, Note_on_c, 0, 65, 0
2, 578788, Note_on_c, 0, 60, 0
2, 578799, Note_on_c, 0, 61, 0
2, 579142, Note_on_c, 0, 82, 0
2, 579416, Note_on_c, 0, 84, 109
2, 579715, Note_on_c, 0, 84, 0
2, 579738, Control_c, 0, 64, 0
2, 579846, Note_on_c, 0, 63, 59
2, 579851, Note_on_c, 0, 57, 57
2, 579854, Note_on_c, 0, 61, 64
2, 579856, Note_on_c, 0, 85, 93
2, 579990, Note_on_c, 0, 61, 0
2, 580067, Note_on_c, 0, 63, 0
2, 580106, Note_on_c, 0, 57, 0
2, 580138, Note_on_c, 0, 85, 0
2, 581312, Note_on_c, 0, 84, 100
2, 581584, Note_on_c, 0, 84, 0
2, 581780, Note_on_c, 0, 85, 82
2, 581993, Note_on_c, 0, 85, 0
2, 582274, Note_on_c, 0, 85, 78
2, 582496, Note_on_c, 0, 85, 0
2, 582743, Note_on_c, 0, 89, 107
2, 582757, Note_on_c, 0, 63, 72
2, 582875, Note_on_c, 0, 63, 0
2, 582978, Note_on_c, 0, 89, 0
2, 583209, Note_on_c, 0, 89, 81
2, 583371, Note_on_c, 0, 89, 0
2, 583679, Note_on_c, 0, 87, 85
2, 583700, Note_on_c, 0, 75, 92
2, 583705, Note_on_c, 0, 58, 54
2, 583707, Note_on_c, 0, 64, 70
2, 583719, Note_on_c, 0, 60, 59
2, 583765, Note_on_c, 0, 64, 0
2, 583779, Note_on_c, 0, 60, 0
2, 583816, Note_on_c, 0, 58, 0
2, 583975, Note_on_c, 0, 87, 0
2, 584033, Note_on_c, 0, 75, 0
2, 584036, Note_on_c, 0, 76, 62
2, 584251, Note_on_c, 0, 76, 0
2, 584253, Note_on_c, 0, 88, 55
2, 584510, Note_on_c, 0, 76, 47
2, 584512, Note_on_c, 0, 88, 0
2, 584594, Note_on_c, 0, 76, 0
2, 585189, Note_on_c, 0, 58, 67
2, 585207, Note_on_c, 0, 64, 75
2, 585221, Note_on_c, 0, 60, 63
2, 585293, Note_on_c, 0, 55, 24
2, 585580, Control_c, 0, 64, 127
2, 586183, Note_on_c, 0, 85, 96
2, 586194, Note_on_c, 0, 73, 92
2, 586491, Note_on_c, 0, 85, 0
2, 586518, Note_on_c, 0, 73, 0
2, 586630, Note_on_c, 0, 74, 85
2, 586636, Note_on_c, 0, 86, 82
2, 586641, Control_c, 0, 64, 0
2, 586664, Note_on_c, 0, 64, 0
2, 586724, Note_on_c, 0, 55, 0
2, 586833, Note_on_c, 0, 58, 0
2, 586835, Note_on_c, 0, 74, 0
2, 586851, Note_on_c, 0, 86, 0
2, 586886, Control_c, 0, 64, 127
2, 587009, Note_on_c, 0, 60, 0
2, 587026, Control_c, 0, 64, 0
2, 587118, Note_on_c, 0, 60, 65
2, 587127, Note_on_c, 0, 75, 109
2, 587128, Note_on_c, 0, 87, 101
2, 587139, Note_on_c, 0, 63, 81
2, 587146, Note_on_c, 0, 54, 65
2, 587155, Note_on_c, 0, 57, 80
2, 587178, Note_on_c, 0, 81, 62
2, 587236, Note_on_c, 0, 81, 0
2, 587468, Control_c, 0, 64, 127
2, 587839, Note_on_c, 0, 87, 0
2, 587869, Note_on_c, 0, 75, 0
2, 588079, Note_on_c, 0, 87, 85
2, 588089, Note_on_c, 0, 75, 93
2, 588564, Note_on_c, 0, 57, 0
2, 588565, Note_on_c, 0, 87, 0
2, 588579, Note_on_c, 0, 63, 0
2, 588607, Note_on_c, 0, 60, 0
2, 588619, Note_on_c, 0, 75, 0
2, 588628, Note_on_c, 0, 54, 0
2, 588950, Control_c, 0, 64, 0
2, 589020, Note_on_c, 0, 85, 98
2, 589029, Note_on_c, 0, 73, 92
2, 589038, Note_on_c, 0, 63, 94
2, 589045, Note_on_c, 0, 54, 78
2, 589049, Note_on_c, 0, 60, 85
2, 589066, Note_on_c, 0, 57, 80
2, 589357, Control_c, 0, 64, 127
2, 589550, Note_on_c, 0, 63, 0
2, 589561, Note_on_c, 0, 54, 0
2, 589570, Note_on_c, 0, 57, 0
2, 589614, Note_on_c, 0, 60, 0
2, 589617, Note_on_c, 0, 85, 0
2, 589649, Note_on_c, 0, 73, 0
2, 589948, Note_on_c, 0, 54, 28
2, 589951, Note_on_c, 0, 63, 79
2, 589957, Note_on_c, 0, 85, 86
2, 589967, Note_on_c, 0, 73, 80
2, 589980, Note_on_c, 0, 60, 52
2, 590038, Note_on_c, 0, 60, 0
2, 590092, Note_on_c, 0, 54, 0
2, 590098, Note_on_c, 0, 85, 0
2, 590106, Note_on_c, 0, 73, 0
2, 590115, Note_on_c, 0, 63, 0
2, 590291, Control_c, 0, 64, 0
2, 590421, Note_on_c, 0, 65, 79
2, 590437, Note_on_c, 0, 82, 79
2, 590448, Note_on_c, 0, 61, 29
2, 590453, Note_on_c, 0, 70, 77
2, 590460, Note_on_c, 0, 60, 58
2, 590471, Note_on_c, 0, 56, 42
2, 590523, Note_on_c, 0, 60, 0
2, 590578, Note_on_c, 0, 65, 0
2, 590596, Note_on_c, 0, 70, 0
2, 590615, Note_on_c, 0, 82, 0
2, 590643, Note_on_c, 0, 56, 0
2, 590673, Note_on_c, 0, 61, 0
2, 591388, Note_on_c, 0, 61, 65
2, 591403, Note_on_c, 0, 65, 61
2, 591405, Note_on_c, 0, 82, 85
2, 591409, Note_on_c, 0, 60, 63
2, 591414, Note_on_c, 0, 70, 85
2, 591960, Note_on_c, 0, 60, 0
2, 591970, Note_on_c, 0, 65, 0
2, 591998, Note_on_c, 0, 70, 0
2, 592014, Note_on_c, 0, 82, 0
2, 592021, Note_on_c, 0, 61, 0
2, 592380, Note_on_c, 0, 82, 82
2, 592393, Note_on_c, 0, 65, 70
2, 592396, Note_on_c, 0, 61, 51
2, 592398, Note_on_c, 0, 70, 85
2, 592403, Note_on_c, 0, 60, 63
2, 592975, Note_on_c, 0, 60, 0
2, 593222, Note_on_c, 0, 65, 0
2, 593271, Note_on_c, 0, 61, 0
2, 593325, Note_on_c, 0, 57, 88
2, 593521, Note_on_c, 0, 70, 0
2, 593711, Note_on_c, 0, 82, 0
2, 593876, Note_on_c, 0, 61, 37
2, 593883, Note_on_c, 0, 65, 59
2, 594726, Note_on_c, 0, 57, 0
2, 594781, Note_on_c, 0, 56, 83
2, 595034, Note_on_c, 0, 65, 0
2, 595040, Note_on_c, 0, 61, 0
2, 595196, Control_c, 0, 64, 127
2, 595671, Control_c, 0, 64, 0
2, 595730, Note_on_c, 0, 65, 76
2, 595731, Note_on_c, 0, 61, 69
2, 596451, Note_on_c, 0, 56, 0
2, 596634, Note_on_c, 0, 77, 127
2, 596662, Note_on_c, 0, 55, 87
2, 596859, Note_on_c, 0, 65, 0
2, 596944, Note_on_c, 0, 61, 0
2, 597261, Control_c, 0, 64, 127
2, 597324, Note_on_c, 0, 77, 0
2, 597606, Note_on_c, 0, 77, 104
2, 597629, Note_on_c, 0, 65, 73
2, 597630, Note_on_c, 0, 61, 61
2, 597775, Note_on_c, 0, 65, 0
2, 597949, Control_c, 0, 64, 0
2, 597956, Note_on_c, 0, 61, 0
2, 597959, Note_on_c, 0, 77, 0
2, 598003, Note_on_c, 0, 55, 0
2, 598093, Note_on_c, 0, 75, 86
2, 598484, Note_on_c, 0, 75, 0
2, 598577, Note_on_c, 0, 73, 34
2, 598912, Note_on_c, 0, 73, 0
2, 599063, Note_on_c, 0, 58, 62
2, 599093, Note_on_c, 0, 48, 50
2, 599100, Note_on_c, 0, 75, 85
2, 599934, Note_on_c, 0, 58, 0
2, 600035, Note_on_c, 0, 63, 57
2, 600040, Note_on_c, 0, 70, 60
2, 600084, Note_on_c, 0, 48, 0
2, 600165, Note_on_c, 0, 75, 0
2, 600184, Note_on_c, 0, 63, 0
2, 600248, Note_on_c, 0, 70, 0
2, 600526, Note_on_c, 0, 48, 77
2, 600788, Note_on_c, 0, 48, 0
2, 601018, Control_c, 0, 64, 127
2, 601471, Note_on_c, 0, 48, 80
2, 601479, Note_on_c, 0, 58, 92
2, 601499, Note_on_c, 0, 85, 101
2, 601508, Note_on_c, 0, 73, 103
2, 601728, Note_on_c, 0, 85, 0
2, 601745, Note_on_c, 0, 58, 0
2, 601759, Note_on_c, 0, 73, 0
2, 601777, Control_c, 0, 64, 0
2, 601948, Note_on_c, 0, 84, 62
2, 601949, Note_on_c, 0, 58, 61
2, 601962, Note_on_c, 0, 72, 76
2, 602074, Note_on_c, 0, 84, 0
2, 602076, Note_on_c, 0, 58, 0
2, 602113, Note_on_c, 0, 72, 0
2, 602182, Note_on_c, 0, 48, 0
2, 602395, Note_on_c, 0, 58, 56
2, 602402, Note_on_c, 0, 82, 83
2, 602405, Note_on_c, 0, 70, 91
2, 602481, Note_on_c, 0, 58, 0
2, 602534, Note_on_c, 0, 82, 0
2, 602543, Note_on_c, 0, 70, 0
2, 602870, Note_on_c, 0, 62, 74
2, 602887, Note_on_c, 0, 51, 48
2, 602891, Note_on_c, 0, 81, 80
2, 602898, Note_on_c, 0, 69, 85
2, 602916, Note_on_c, 0, 57, 65
2, 603005, Note_on_c, 0, 57, 0
2, 603016, Note_on_c, 0, 62, 0
2, 603030, Note_on_c, 0, 69, 0
2, 603042, Note_on_c, 0, 81, 0
2, 603046, Note_on_c, 0, 51, 0
2, 603431, Note_on_c, 0, 70, 91
2, 603435, Note_on_c, 0, 82, 90
2, 603451, Note_on_c, 0, 51, 67
2, 603454, Note_on_c, 0, 62, 91
2, 603465, Note_on_c, 0, 57, 79
2, 603553, Note_on_c, 0, 70, 0
2, 603570, Note_on_c, 0, 62, 0
2, 603593, Note_on_c, 0, 51, 0
2, 603618, Note_on_c, 0, 82, 0
2, 603625, Note_on_c, 0, 57, 0
2, 604383, Note_on_c, 0, 57, 89
2, 604385, Note_on_c, 0, 51, 82
2, 604388, Note_on_c, 0, 84, 100
2, 604389, Note_on_c, 0, 62, 101
2, 604403, Note_on_c, 0, 72, 107
2, 604438, Note_on_c, 0, 83, 52
2, 604454, Note_on_c, 0, 80, 27
2, 604496, Note_on_c, 0, 62, 0
2, 604500, Note_on_c, 0, 83, 0
2, 604514, Note_on_c, 0, 80, 0
2, 604526, Note_on_c, 0, 72, 0
2, 604553, Note_on_c, 0, 84, 0
2, 604581, Note_on_c, 0, 51, 0
2, 604593, Note_on_c, 0, 57, 0
2, 604781, Control_c, 0, 64, 127
2, 604853, Control_c, 0, 64, 0
2, 605343, Note_on_c, 0, 51, 85
2, 605352, Note_on_c, 0, 57, 87
2, 605359, Note_on_c, 0, 75, 112
2, 605361, Note_on_c, 0, 62, 100
2, 605362, Note_on_c, 0, 87, 95
2, 605485, Note_on_c, 0, 75, 0
2, 605487, Note_on_c, 0, 62, 0
2, 605533, Note_on_c, 0, 87, 0
2, 605772, Note_on_c, 0, 62, 59
2, 605813, Note_on_c, 0, 86, 59
2, 605818, Note_on_c, 0, 74, 72
2, 605857, Note_on_c, 0, 57, 0
2, 605874, Note_on_c, 0, 51, 0
2, 605932, Note_on_c, 0, 86, 0
2, 605955, Note_on_c, 0, 74, 0
2, 605959, Note_on_c, 0, 62, 0
2, 606311, Note_on_c, 0, 65, 90
2, 606316, Note_on_c, 0, 85, 95
2, 606321, Note_on_c, 0, 60, 81
2, 606330, Note_on_c, 0, 73, 92
2, 606351, Note_on_c, 0, 61, 54
2, 606365, Note_on_c, 0, 57, 69
2, 606430, Note_on_c, 0, 57, 0
2, 606837, Note_on_c, 0, 60, 0
2, 606839, Note_on_c, 0, 65, 0
2, 606851, Note_on_c, 0, 61, 0
2, 606877, Note_on_c, 0, 73, 0
2, 606899, Note_on_c, 0, 85, 0
2, 607219, Note_on_c, 0, 61, 69
2, 607226, Note_on_c, 0, 65, 81
2, 607235, Note_on_c, 0, 73, 74
2, 607238, Note_on_c, 0, 56, 67
2, 607240, Note_on_c, 0, 60, 73
2, 607242, Note_on_c, 0, 85, 86
2, 607383, Note_on_c, 0, 73, 0
2, 607393, Control_c, 0, 64, 127
2, 607395, Note_on_c, 0, 65, 0
2, 607423, Note_on_c, 0, 85, 0
2, 607434, Note_on_c, 0, 60, 0
2, 607437, Note_on_c, 0, 56, 0
2, 607481, Control_c, 0, 64, 0
2, 607504, Note_on_c, 0, 61, 0
2, 607683, Note_on_c, 0, 61, 68
2, 607685, Note_on_c, 0, 87, 85
2, 607687, Note_on_c, 0, 75, 90
2, 607689, Note_on_c, 0, 65, 79
2, 607703, Note_on_c, 0, 56, 69
2, 607705, Note_on_c, 0, 60, 68
2, 608220, Note_on_c, 0, 61, 0
2, 608229, Note_on_c, 0, 65, 0
2, 608238, Note_on_c, 0, 75, 0
2, 608261, Note_on_c, 0, 60, 0
2, 608278, Note_on_c, 0, 87, 0
2, 608284, Note_on_c, 0, 56, 0
2, 608664, Note_on_c, 0, 65, 95
2, 608667, Note_on_c, 0, 60, 87
2, 608669, Note_on_c, 0, 61, 79
2, 608671, Note_on_c, 0, 56, 80
2, 608674, Note_on_c, 0, 89, 96
2, 608687, Note_on_c, 0, 77, 98
2, 608745, Note_on_c, 0, 88, 30
2, 608810, Note_on_c, 0, 88, 0
2, 608915, Note_on_c, 0, 89, 0
2, 609044, Note_on_c, 0, 65, 0
2, 609060, Note_on_c, 0, 77, 0
2, 609083, Note_on_c, 0, 60, 0
2, 609091, Note_on_c, 0, 61, 0
2, 609179, Note_on_c, 0, 56, 0
2, 609693, Note_on_c, 0, 82, 93
2, 609700, Note_on_c, 0, 70, 106
2, 609715, Note_on_c, 0, 59, 67
2, 609720, Note_on_c, 0, 62, 83
2, 609723, Note_on_c, 0, 53, 70
2, 609834, Note_on_c, 0, 83, 24
2, 609868, Note_on_c, 0, 70, 0
2, 609882, Note_on_c, 0, 71, 88
2, 609894, Note_on_c, 0, 82, 0
2, 610160, Note_on_c, 0, 62, 0
2, 610188, Note_on_c, 0, 53, 0
2, 610193, Note_on_c, 0, 83, 0
2, 610202, Note_on_c, 0, 71, 0
2, 610225, Note_on_c, 0, 59, 0
2, 610297, Note_on_c, 0, 83, 66
2, 610309, Note_on_c, 0, 71, 89
2, 610323, Note_on_c, 0, 53, 71
2, 610341, Note_on_c, 0, 62, 75
2, 610343, Note_on_c, 0, 59, 84
2, 610693, Control_c, 0, 64, 127
2, 610911, Note_on_c, 0, 71, 0
2, 610940, Note_on_c, 0, 53, 0
2, 610950, Note_on_c, 0, 83, 0
2, 610961, Note_on_c, 0, 62, 0
2, 610982, Note_on_c, 0, 59, 0
2, 611098, Control_c, 0, 64, 0
2, 611196, Note_on_c, 0, 72, 106
2, 611200, Note_on_c, 0, 62, 84
2, 611202, Note_on_c, 0, 59, 82
2, 611203, Note_on_c, 0, 84, 96
2, 611211, Note_on_c, 0, 53, 79
2, 611232, Note_on_c, 0, 83, 55
2, 611295, Note_on_c, 0, 83, 0
2, 611453, Note_on_c, 0, 62, 0
2, 611473, Note_on_c, 0, 72, 0
2, 611475, Note_on_c, 0, 53, 0
2, 611496, Note_on_c, 0, 84, 0
2, 611534, Note_on_c, 0, 59, 0
2, 612135, Note_on_c, 0, 73, 94
2, 612136, Note_on_c, 0, 85, 96
2, 612142, Note_on_c, 0, 59, 90
2, 612150, Note_on_c, 0, 62, 98
2, 612154, Note_on_c, 0, 53, 87
2, 612182, Note_on_c, 0, 86, 82
2, 612247, Note_on_c, 0, 73, 0
2, 612284, Note_on_c, 0, 74, 37
2, 612355, Note_on_c, 0, 85, 0
2, 612564, Control_c, 0, 64, 127
2, 612747, Note_on_c, 0, 86, 0
2, 612847, Note_on_c, 0, 53, 0
2, 612932, Note_on_c, 0, 74, 0
2, 612958, Note_on_c, 0, 62, 0
2, 613058, Note_on_c, 0, 62, 57
2, 613067, Note_on_c, 0, 53, 74
2, 613358, Control_c, 0, 64, 0
2, 613462, Note_on_c, 0, 67, 74
2, 613611, Note_on_c, 0, 59, 0
2, 613707, Note_on_c, 0, 53, 0
2, 613771, Note_on_c, 0, 67, 0
2, 613958, Note_on_c, 0, 62, 0
2, 613974, Note_on_c, 0, 67, 64
2, 614124, Note_on_c, 0, 67, 0
2, 614440, Note_on_c, 0, 76, 98
2, 614442, Note_on_c, 0, 70, 93
2, 614454, Note_on_c, 0, 64, 81
2, 614456, Note_on_c, 0, 58, 72
2, 615012, Note_on_c, 0, 64, 0
2, 615038, Note_on_c, 0, 76, 0
2, 615105, Note_on_c, 0, 70, 0
2, 615160, Note_on_c, 0, 58, 0
2, 615364, Note_on_c, 0, 77, 88
2, 615369, Control_c, 0, 64, 127
2, 615639, Note_on_c, 0, 77, 0
2, 615890, Note_on_c, 0, 48, 73
2, 615904, Note_on_c, 0, 79, 88
2, 615906, Note_on_c, 0, 67, 93
2, 615959, Note_on_c, 0, 77, 37
2, 616028, Note_on_c, 0, 77, 0
2, 616116, Note_on_c, 0, 48, 0
2, 616163, Note_on_c, 0, 79, 0
2, 616427, Note_on_c, 0, 67, 0
2, 616821, Note_on_c, 0, 72, 92
2, 616834, Note_on_c, 0, 64, 80
2, 616848, Note_on_c, 0, 58, 55
2, 616853, Control_c, 0, 64, 0
2, 616985, Note_on_c, 0, 64, 0
2, 617086, Note_on_c, 0, 72, 0
2, 617087, Note_on_c, 0, 58, 0
2, 617133, Control_c, 0, 64, 127
2, 617733, Control_c, 0, 64, 0
2, 617772, Note_on_c, 0, 73, 80
2, 617774, Note_on_c, 0, 70, 100
2, 617781, Note_on_c, 0, 81, 95
2, 617793, Note_on_c, 0, 76, 82
2, 617800, Note_on_c, 0, 58, 81
2, 617807, Note_on_c, 0, 64, 93
2, 617869, Note_on_c, 0, 79, 24
2, 618140, Control_c, 0, 64, 127
2, 618303, Note_on_c, 0, 79, 0
2, 619062, Note_on_c, 0, 64, 0
2, 619310, Note_on_c, 0, 76, 0
2, 619380, Note_on_c, 0, 73, 0
2, 619382, Note_on_c, 0, 70, 0
2, 619701, Note_on_c, 0, 70, 59
2, 619715, Note_on_c, 0, 73, 34
2, 619722, Note_on_c, 0, 76, 67
2, 619725, Note_on_c, 0, 64, 66
2, 619732, Note_on_c, 0, 81, 0
2, 619914, Note_on_c, 0, 64, 0
2, 620076, Note_on_c, 0, 76, 0
2, 620077, Note_on_c, 0, 58, 0
2, 620185, Note_on_c, 0, 73, 0
2, 620202, Note_on_c, 0, 70, 0
2, 620711, Note_on_c, 0, 47, 26
2, 621121, Control_c, 0, 64, 0
2, 621123, Note_on_c, 0, 47, 0
2, 621147, Note_on_c, 0, 48, 58
2, 622093, Note_on_c, 0, 58, 76
2, 622102, Note_on_c, 0, 67, 76
2, 622121, Note_on_c, 0, 63, 71
2, 622126, Control_c, 0, 64, 127
2, 623233, Note_on_c, 0, 67, 0
2, 623367, Note_on_c, 0, 63, 0
2, 623411, Note_on_c, 0, 58, 0
2, 623557, Note_on_c, 0, 36, 55
2, 623643, Note_on_c, 0, 48, 0
2, 623944, Control_c, 0, 64, 0
2, 624036, Note_on_c, 0, 48, 48
2, 624041, Note_on_c, 0, 63, 61
2, 624051, Note_on_c, 0, 60, 68
2, 624178, Note_on_c, 0, 48, 0
2, 624544, Note_on_c, 0, 60, 0
2, 624571, Note_on_c, 0, 43, 24
2, 624585, Note_on_c, 0, 63, 0
2, 624854, Note_on_c, 0, 36, 0
2, 624866, Note_on_c, 0, 43, 0
2, 624909, Note_on_c, 0, 48, 33
2, 624944, Note_on_c, 0, 62, 83
2, 624954, Note_on_c, 0, 55, 66
2, 625271, Note_on_c, 0, 62, 0
2, 625296, Note_on_c, 0, 48, 0
2, 625440, Note_on_c, 0, 55, 0
2, 625892, Note_on_c, 0, 61, 82
2, 625894, Note_on_c, 0, 41, 67
2, 625908, Note_on_c, 0, 49, 59
2, 625911, Note_on_c, 0, 53, 73
2, 625914, Note_on_c, 0, 57, 74
2, 626802, Control_c, 0, 64, 127
2, 626859, Note_on_c, 0, 49, 0
2, 626874, Note_on_c, 0, 53, 0
2, 626998, Note_on_c, 0, 57, 0
2, 627246, Note_on_c, 0, 61, 0
2, 627385, Control_c, 0, 64, 0
2, 627426, Note_on_c, 0, 57, 79
2, 627429, Note_on_c, 0, 53, 64
2, 627434, Note_on_c, 0, 60, 68
2, 627439, Note_on_c, 0, 48, 50
2, 627520, Note_on_c, 0, 53, 0
2, 627557, Note_on_c, 0, 41, 0
2, 627571, Note_on_c, 0, 57, 0
2, 627637, Note_on_c, 0, 48, 0
2, 627649, Control_c, 0, 64, 127
2, 627654, Note_on_c, 0, 60, 0
2, 629661, Control_c, 0, 64, 0
2, 629789, Note_on_c, 0, 94, 99
2, 629796, Note_on_c, 0, 65, 91
2, 629800, Note_on_c, 0, 54, 78
2, 629801, Note_on_c, 0, 60, 84
2, 629807, Note_on_c, 0, 58, 68
2, 629810, Note_on_c, 0, 82, 83
2, 629812, Note_on_c, 0, 87, 86
2, 629866, Note_on_c, 0, 87, 0
2, 629868, Note_on_c, 0, 82, 0
2, 629903, Note_on_c, 0, 65, 0
2, 629926, Note_on_c, 0, 94, 0
2, 629944, Note_on_c, 0, 60, 0
2, 629967, Note_on_c, 0, 58, 0
2, 629977, Note_on_c, 0, 54, 0
2, 630799, Note_on_c, 0, 65, 89
2, 630801, Note_on_c, 0, 60, 82
2, 630803, Note_on_c, 0, 54, 78
2, 630806, Note_on_c, 0, 58, 65
2, 630812, Note_on_c, 0, 94, 98
2, 630819, Note_on_c, 0, 82, 96
2, 630825, Note_on_c, 0, 87, 93
2, 631674, Control_c, 0, 64, 127
2, 631846, Note_on_c, 0, 65, 0
2, 631876, Note_on_c, 0, 60, 0
2, 631901, Note_on_c, 0, 58, 0
2, 631949, Note_on_c, 0, 54, 0
2, 632103, Note_on_c, 0, 94, 0
2, 632132, Note_on_c, 0, 87, 0
2, 632193, Note_on_c, 0, 82, 0
2, 632257, Note_on_c, 0, 58, 76
2, 632264, Note_on_c, 0, 54, 79
2, 632265, Note_on_c, 0, 65, 88
2, 632271, Note_on_c, 0, 60, 80
2, 632661, Note_on_c, 0, 65, 0
2, 632927, Note_on_c, 0, 60, 0
2, 633027, Note_on_c, 0, 58, 0
2, 633075, Note_on_c, 0, 54, 0
2, 633174, Control_c, 0, 64, 0
2, 633182, Note_on_c, 0, 61, 100
2, 633189, Note_on_c, 0, 53, 95
2, 634129, Note_on_c, 0, 73, 93
2, 634156, Note_on_c, 0, 65, 96
2, 634256, Note_on_c, 0, 65, 0
2, 634509, Note_on_c, 0, 73, 0
2, 634548, Note_on_c, 0, 72, 71
2, 634582, Note_on_c, 0, 65, 52
2, 634879, Note_on_c, 0, 72, 0
2, 634921, Note_on_c, 0, 65, 0
2, 635062, Note_on_c, 0, 70, 79
2, 635099, Note_on_c, 0, 65, 37
2, 635108, Note_on_c, 0, 56, 52
2, 635171, Note_on_c, 0, 65, 0
2, 635244, Note_on_c, 0, 61, 0
2, 635291, Note_on_c, 0, 70, 0
2, 635518, Note_on_c, 0, 61, 73
2, 635523, Note_on_c, 0, 72, 98
2, 635530, Note_on_c, 0, 65, 104
2, 635900, Note_on_c, 0, 56, 0
2, 636160, Note_on_c, 0, 72, 0
2, 636327, Note_on_c, 0, 65, 0
2, 636350, Note_on_c, 0, 56, 30
2, 636382, Note_on_c, 0, 61, 0
2, 636470, Note_on_c, 0, 53, 0
2, 636503, Note_on_c, 0, 68, 80
2, 636565, Note_on_c, 0, 56, 0
2, 636676, Note_on_c, 0, 68, 0
2, 637445, Note_on_c, 0, 65, 79
2, 637461, Note_on_c, 0, 53, 83
2, 637464, Note_on_c, 0, 61, 65
2, 637470, Note_on_c, 0, 58, 69
2, 637472, Note_on_c, 0, 54, 61
2, 637857, Note_on_c, 0, 65, 0
2, 637945, Note_on_c, 0, 54, 0
2, 637998, Note_on_c, 0, 61, 0
2, 638017, Note_on_c, 0, 51, 40
2, 638019, Note_on_c, 0, 58, 0
2, 638029, Note_on_c, 0, 53, 0
2, 638371, Note_on_c, 0, 51, 0
2, 638434, Note_on_c, 0, 54, 87
2, 638436, Note_on_c, 0, 53, 70
2, 638439, Note_on_c, 0, 58, 81
2, 638443, Note_on_c, 0, 61, 69
2, 638445, Note_on_c, 0, 65, 78
2, 639161, Note_on_c, 0, 54, 0
2, 639223, Note_on_c, 0, 61, 0
2, 639237, Note_on_c, 0, 65, 0
2, 639254, Note_on_c, 0, 58, 0
2, 639378, Note_on_c, 0, 53, 0
2, 639383, Note_on_c, 0, 51, 43
2, 639402, Note_on_c, 0, 54, 28
2, 639404, Note_on_c, 0, 63, 57
2, 639413, Note_on_c, 0, 58, 50
2, 639670, Note_on_c, 0, 54, 0
2, 639693, Note_on_c, 0, 58, 0
2, 639765, Note_on_c, 0, 63, 0
2, 639942, Note_on_c, 0, 58, 79
2, 639946, Note_on_c, 0, 65, 80
2, 639948, Note_on_c, 0, 54, 73
2, 639955, Note_on_c, 0, 61, 68
2, 639965, Note_on_c, 0, 53, 74
2, 640041, Note_on_c, 0, 51, 0
2, 640666, Note_on_c, 0, 54, 0
2, 640708, Note_on_c, 0, 58, 0
2, 640720, Note_on_c, 0, 65, 0
2, 640740, Note_on_c, 0, 61, 0
2, 640833, Note_on_c, 0, 53, 0
2, 640893, Note_on_c, 0, 49, 90
2, 640896, Note_on_c, 0, 61, 68
2, 640902, Note_on_c, 0, 54, 79
2, 640907, Note_on_c, 0, 63, 77
2, 640912, Note_on_c, 0, 58, 71
2, 641602, Note_on_c, 0, 54, 0
2, 641632, Note_on_c, 0, 58, 0
2, 641655, Note_on_c, 0, 61, 0
2, 641692, Note_on_c, 0, 63, 0
2, 641847, Note_on_c, 0, 49, 0
2, 642737, Note_on_c, 0, 58, 91
2, 642741, Note_on_c, 0, 70, 100
2, 642746, Note_on_c, 0, 61, 100
2, 642748, Note_on_c, 0, 65, 96
2, 643100, Note_on_c, 0, 65, 0
2, 643165, Note_on_c, 0, 58, 0
2, 643172, Note_on_c, 0, 61, 0
2, 643253, Note_on_c, 0, 70, 0
2, 643697, Note_on_c, 0, 68, 92
2, 643707, Note_on_c, 0, 56, 78
2, 643709, Note_on_c, 0, 61, 90
2, 644006, Note_on_c, 0, 61, 0
2, 644057, Note_on_c, 0, 56, 0
2, 644154, Note_on_c, 0, 65, 67
2, 644536, Note_on_c, 0, 65, 0
2, 644666, Note_on_c, 0, 49, 53
2, 644668, Note_on_c, 0, 61, 77
2, 644876, Note_on_c, 0, 49, 0
2, 644922, Note_on_c, 0, 61, 0
2, 644924, Note_on_c, 0, 68, 0
2, 645124, Note_on_c, 0, 63, 75
2, 645129, Note_on_c, 0, 48, 64
2, 645143, Note_on_c, 0, 58, 62
2, 645662, Note_on_c, 0, 63, 0
2, 646043, Note_on_c, 0, 63, 90
2, 646115, Note_on_c, 0, 58, 0
2, 646483, Note_on_c, 0, 63, 0
2, 646562, Note_on_c, 0, 61, 62
2, 646692, Note_on_c, 0, 54, 15
2, 646833, Note_on_c, 0, 61, 0
2, 647026, Note_on_c, 0, 48, 0
2, 647070, Note_on_c, 0, 63, 88
2, 647231, Note_on_c, 0, 54, 0
2, 647354, Note_on_c, 0, 63, 0
2, 647533, Note_on_c, 0, 58, 64
2, 647535, Note_on_c, 0, 48, 66
2, 647572, Note_on_c, 0, 65, 90
2, 647593, Note_on_c, 0, 54, 23
2, 647685, Note_on_c, 0, 58, 0
2, 647790, Note_on_c, 0, 65, 0
2, 647813, Note_on_c, 0, 48, 0
2, 647820, Note_on_c, 0, 54, 0
2, 648046, Note_on_c, 0, 63, 75
2, 648403, Note_on_c, 0, 63, 0
2, 648521, Note_on_c, 0, 61, 88
2, 648565, Note_on_c, 0, 51, 52
2, 648570, Note_on_c, 0, 41, 62
2, 649258, Note_on_c, 0, 41, 0
2, 649297, Note_on_c, 0, 61, 0
2, 649473, Note_on_c, 0, 41, 52
2, 649499, Note_on_c, 0, 63, 94
2, 649540, Note_on_c, 0, 64, 91
2, 649886, Note_on_c, 0, 63, 0
2, 649950, Note_on_c, 0, 64, 0
2, 649971, Note_on_c, 0, 63, 23
2, 650145, Note_on_c, 0, 51, 0
2, 650330, Note_on_c, 0, 63, 0
2, 650451, Note_on_c, 0, 61, 77
2, 650522, Note_on_c, 0, 48, 17
2, 650613, Note_on_c, 0, 61, 0
2, 650826, Note_on_c, 0, 48, 0
2, 650927, Note_on_c, 0, 63, 106
2, 651412, Note_on_c, 0, 61, 79
2, 651434, Note_on_c, 0, 51, 42
2, 651455, Note_on_c, 0, 48, 20
2, 651731, Note_on_c, 0, 63, 0
2, 651773, Note_on_c, 0, 61, 0
2, 651835, Note_on_c, 0, 41, 0
2, 651842, Note_on_c, 0, 51, 0
2, 651903, Note_on_c, 0, 60, 50
2, 652192, Note_on_c, 0, 60, 0
2, 652240, Note_on_c, 0, 48, 0
2, 652393, Note_on_c, 0, 41, 49
2, 652419, Note_on_c, 0, 58, 55
2, 652627, Note_on_c, 0, 58, 0
2, 652683, Note_on_c, 0, 41, 0
2, 652831, Note_on_c, 0, 61, 77
2, 652884, Note_on_c, 0, 46, 43
2, 653635, Note_on_c, 0, 61, 0
2, 653660, Note_on_c, 0, 46, 0
2, 653695, Control_c, 0, 64, 127
2, 653797, Note_on_c, 0, 63, 85
2, 654110, Note_on_c, 0, 63, 0
2, 654311, Note_on_c, 0, 65, 95
2, 654329, Control_c, 0, 64, 0
2, 654665, Control_c, 0, 64, 127
2, 654996, Note_on_c, 0, 65, 0
2, 655254, Note_on_c, 0, 61, 72
2, 655267, Note_on_c, 0, 60, 76
2, 655270, Note_on_c, 0, 65, 84
2, 655335, Control_c, 0, 64, 0
2, 655599, Control_c, 0, 64, 127
2, 655876, Note_on_c, 0, 65, 0
2, 655934, Note_on_c, 0, 60, 0
2, 655994, Note_on_c, 0, 61, 0
2, 656182, Control_c, 0, 64, 0
2, 656244, Note_on_c, 0, 85, 87
2, 656249, Note_on_c, 0, 73, 87
2, 656254, Note_on_c, 0, 56, 87
2, 656258, Note_on_c, 0, 66, 86
2, 656259, Note_on_c, 0, 62, 95
2, 656624, Control_c, 0, 64, 127
2, 656830, Note_on_c, 0, 66, 0
2, 656840, Note_on_c, 0, 56, 0
2, 656902, Note_on_c, 0, 62, 0
2, 656905, Note_on_c, 0, 73, 0
2, 656925, Note_on_c, 0, 85, 0
2, 657185, Note_on_c, 0, 62, 93
2, 657187, Note_on_c, 0, 66, 87
2, 657189, Note_on_c, 0, 86, 90
2, 657190, Note_on_c, 0, 56, 86
2, 657203, Note_on_c, 0, 74, 95
2, 657477, Note_on_c, 0, 74, 0
2, 657490, Note_on_c, 0, 66, 0
2, 657518, Note_on_c, 0, 56, 0
2, 657550, Note_on_c, 0, 86, 0
2, 657775, Note_on_c, 0, 62, 0
2, 658111, Control_c, 0, 64, 0
2, 658173, Note_on_c, 0, 56, 85
2, 658174, Note_on_c, 0, 62, 93
2, 658180, Note_on_c, 0, 89, 92
2, 658181, Note_on_c, 0, 66, 88
2, 658192, Note_on_c, 0, 77, 98
2, 658463, Control_c, 0, 64, 127
2, 658549, Note_on_c, 0, 77, 0
2, 658553, Note_on_c, 0, 66, 0
2, 658611, Note_on_c, 0, 89, 0
2, 658734, Note_on_c, 0, 56, 0
2, 658794, Note_on_c, 0, 62, 0
2, 659098, Control_c, 0, 64, 0
2, 659137, Note_on_c, 0, 56, 86
2, 659142, Note_on_c, 0, 62, 95
2, 659146, Note_on_c, 0, 66, 92
2, 659155, Note_on_c, 0, 95, 101
2, 659162, Note_on_c, 0, 83, 101
2, 659206, Note_on_c, 0, 92, 30
2, 659264, Note_on_c, 0, 92, 0
2, 659486, Control_c, 0, 64, 127
2, 659704, Note_on_c, 0, 56, 0
2, 659830, Note_on_c, 0, 66, 0
2, 659904, Note_on_c, 0, 62, 0
2, 659911, Note_on_c, 0, 83, 0
2, 659977, Note_on_c, 0, 95, 0
2, 660010, Note_on_c, 0, 56, 71
2, 660049, Note_on_c, 0, 89, 68
2, 660193, Note_on_c, 0, 56, 0
2, 660197, Note_on_c, 0, 89, 0
2, 660387, Control_c, 0, 64, 0
2, 660475, Note_on_c, 0, 54, 76
2, 660476, Note_on_c, 0, 65, 82
2, 660490, Note_on_c, 0, 61, 56
2, 660496, Note_on_c, 0, 94, 90
2, 660497, Note_on_c, 0, 58, 61
2, 660501, Note_on_c, 0, 82, 86
2, 660737, Note_on_c, 0, 82, 0
2, 660774, Note_on_c, 0, 94, 0
2, 660804, Note_on_c, 0, 54, 0
2, 660809, Note_on_c, 0, 65, 0
2, 660842, Note_on_c, 0, 61, 0
2, 660844, Note_on_c, 0, 58, 0
2, 661497, Control_c, 0, 64, 127
2, 661601, Note_on_c, 0, 90, 19
2, 661666, Note_on_c, 0, 90, 0
2, 661992, Control_c, 0, 64, 0
2, 662001, Note_on_c, 0, 61, 90
2, 662002, Note_on_c, 0, 55, 101
2, 662006, Note_on_c, 0, 66, 101
2, 662020, Note_on_c, 0, 93, 110
2, 662023, Note_on_c, 0, 88, 109
2, 662027, Note_on_c, 0, 81, 114
2, 662073, Note_on_c, 0, 91, 33
2, 662154, Note_on_c, 0, 91, 0
2, 662483, Note_on_c, 0, 93, 0
2, 662497, Note_on_c, 0, 81, 0
2, 662521, Note_on_c, 0, 55, 0
2, 662534, Note_on_c, 0, 88, 0
2, 662569, Note_on_c, 0, 61, 0
2, 662573, Note_on_c, 0, 66, 0
2, 663368, Control_c, 0, 64, 127
2, 663401, Note_on_c, 0, 54, 91
2, 663405, Note_on_c, 0, 65, 101
2, 663414, Note_on_c, 0, 58, 72
2, 663421, Note_on_c, 0, 80, 104
2, 663423, Note_on_c, 0, 92, 103
2, 663426, Note_on_c, 0, 87, 93
2, 663442, Note_on_c, 0, 60, 70
2, 664111, Note_on_c, 0, 80, 0
2, 664169, Note_on_c, 0, 65, 0
2, 664178, Note_on_c, 0, 54, 0
2, 664179, Note_on_c, 0, 87, 0
2, 664183, Note_on_c, 0, 92, 0
2, 664470, Note_on_c, 0, 60, 0
2, 664494, Note_on_c, 0, 58, 0
2, 664674, Control_c, 0, 64, 0
2, 664792, Note_on_c, 0, 54, 90
2, 664794, Note_on_c, 0, 97, 100
2, 664795, Note_on_c, 0, 58, 78
2, 664799, Note_on_c, 0, 60, 91
2, 664801, Note_on_c, 0, 65, 101
2, 664802, Note_on_c, 0, 85, 109
2, 664806, Note_on_c, 0, 92, 98
2, 665089, Note_on_c, 0, 85, 0
2, 665112, Note_on_c, 0, 65, 0
2, 665132, Note_on_c, 0, 97, 0
2, 665144, Note_on_c, 0, 92, 0
2, 665239, Note_on_c, 0, 65, 79
2, 665244, Note_on_c, 0, 96, 69
2, 665267, Note_on_c, 0, 84, 74
2, 665431, Note_on_c, 0, 96, 0
2, 665480, Note_on_c, 0, 84, 0
2, 665513, Note_on_c, 0, 54, 0
2, 665515, Note_on_c, 0, 65, 0
2, 665577, Note_on_c, 0, 60, 0
2, 665612, Note_on_c, 0, 58, 0
2, 665718, Note_on_c, 0, 54, 47
2, 665744, Note_on_c, 0, 60, 59
2, 665749, Note_on_c, 0, 94, 67
2, 665762, Note_on_c, 0, 82, 62
2, 665911, Note_on_c, 0, 82, 0
2, 665950, Note_on_c, 0, 94, 0
2, 665971, Note_on_c, 0, 54, 0
2, 665999, Note_on_c, 0, 60, 0
2, 666756, Note_on_c, 0, 54, 83
2, 666762, Note_on_c, 0, 60, 83
2, 666774, Note_on_c, 0, 64, 92
2, 666802, Note_on_c, 0, 96, 85
2, 666814, Note_on_c, 0, 84, 101
2, 666962, Note_on_c, 0, 96, 0
2, 667022, Note_on_c, 0, 84, 0
2, 667029, Note_on_c, 0, 64, 0
2, 667069, Note_on_c, 0, 54, 0
2, 667157, Note_on_c, 0, 60, 0
2, 667446, Note_on_c, 0, 92, 75
2, 667464, Note_on_c, 0, 80, 80
2, 667478, Note_on_c, 0, 54, 75
2, 667490, Note_on_c, 0, 64, 83
2, 667492, Note_on_c, 0, 60, 78
2, 667641, Note_on_c, 0, 64, 0
2, 667726, Note_on_c, 0, 92, 0
2, 667777, Note_on_c, 0, 80, 0
2, 667828, Note_on_c, 0, 54, 0
2, 667958, Note_on_c, 0, 60, 0
2, 668143, Note_on_c, 0, 60, 74
2, 668157, Note_on_c, 0, 63, 84
2, 668161, Note_on_c, 0, 89, 82
2, 668163, Note_on_c, 0, 53, 70
2, 668168, Note_on_c, 0, 77, 74
2, 668176, Note_on_c, 0, 56, 70
2, 668206, Note_on_c, 0, 84, 40
2, 668212, Control_c, 0, 64, 127
2, 668271, Note_on_c, 0, 84, 0
2, 668440, Control_c, 0, 64, 0
2, 668581, Note_on_c, 0, 63, 0
2, 668583, Note_on_c, 0, 77, 0
2, 668585, Note_on_c, 0, 56, 0
2, 668595, Note_on_c, 0, 89, 0
2, 668608, Note_on_c, 0, 53, 0
2, 668634, Note_on_c, 0, 60, 0
2, 669088, Note_on_c, 0, 60, 80
2, 669099, Note_on_c, 0, 63, 78
2, 669100, Note_on_c, 0, 53, 66
2, 669104, Note_on_c, 0, 56, 57
2, 669109, Note_on_c, 0, 89, 90
2, 669113, Note_on_c, 0, 77, 87
2, 669201, Control_c, 0, 64, 127
2, 669289, Control_c, 0, 64, 0
2, 669394, Control_c, 0, 64, 127
2, 669396, Note_on_c, 0, 60, 0
2, 669407, Note_on_c, 0, 77, 0
2, 669429, Control_c, 0, 64, 0
2, 669444, Note_on_c, 0, 89, 0
2, 669466, Note_on_c, 0, 63, 0
2, 669502, Note_on_c, 0, 53, 0
2, 669600, Note_on_c, 0, 56, 0
2, 669685, Note_on_c, 0, 53, 67
2, 669693, Note_on_c, 0, 91, 76
2, 669695, Note_on_c, 0, 79, 74
2, 669697, Note_on_c, 0, 64, 91
2, 669701, Note_on_c, 0, 86, 77
2, 669713, Note_on_c, 0, 59, 82
2, 670097, Note_on_c, 0, 79, 0
2, 670112, Note_on_c, 0, 86, 0
2, 670116, Note_on_c, 0, 91, 0
2, 670134, Note_on_c, 0, 64, 0
2, 670176, Note_on_c, 0, 59, 0
2, 670190, Note_on_c, 0, 53, 0
2, 670573, Note_on_c, 0, 59, 82
2, 670581, Note_on_c, 0, 64, 92
2, 670583, Note_on_c, 0, 53, 81
2, 670617, Note_on_c, 0, 86, 90
2, 670621, Note_on_c, 0, 91, 82
2, 670623, Note_on_c, 0, 79, 89
2, 670700, Note_on_c, 0, 64, 0
2, 670774, Note_on_c, 0, 91, 0
2, 670792, Note_on_c, 0, 59, 0
2, 670804, Note_on_c, 0, 53, 0
2, 670806, Note_on_c, 0, 79, 0
2, 670853, Note_on_c, 0, 86, 0
2, 671123, Note_on_c, 0, 58, 85
2, 671124, Note_on_c, 0, 63, 94
2, 671128, Note_on_c, 0, 52, 92
2, 671144, Note_on_c, 0, 90, 84
2, 671156, Note_on_c, 0, 85, 87
2, 671158, Note_on_c, 0, 78, 81
2, 672045, Note_on_c, 0, 90, 0
2, 672062, Control_c, 0, 64, 127
2, 672064, Note_on_c, 0, 78, 0
2, 672077, Note_on_c, 0, 85, 0
2, 672124, Note_on_c, 0, 63, 0
2, 672270, Note_on_c, 0, 58, 0
2, 672488, Note_on_c, 0, 52, 0
2, 672575, Note_on_c, 0, 82, 93
2, 672578, Note_on_c, 0, 70, 90
2, 672589, Note_on_c, 0, 58, 87
2, 672594, Note_on_c, 0, 56, 61
2, 672627, Control_c, 0, 64, 0
2, 672629, Note_on_c, 0, 75, 52
2, 672677, Note_on_c, 0, 56, 0
2, 672689, Note_on_c, 0, 75, 0
2, 672913, Note_on_c, 0, 82, 0
2, 672921, Note_on_c, 0, 70, 0
2, 673068, Note_on_c, 0, 58, 0
2, 673074, Note_on_c, 0, 56, 58
2, 673080, Note_on_c, 0, 80, 43
2, 673120, Note_on_c, 0, 68, 39
2, 673143, Note_on_c, 0, 75, 42
2, 673316, Note_on_c, 0, 80, 0
2, 673326, Note_on_c, 0, 68, 0
2, 673370, Note_on_c, 0, 75, 0
2, 673521, Note_on_c, 0, 66, 50
2, 673543, Note_on_c, 0, 56, 0
2, 673548, Note_on_c, 0, 78, 25
2, 673564, Note_on_c, 0, 54, 43
2, 673726, Note_on_c, 0, 66, 0
2, 673736, Note_on_c, 0, 78, 0
2, 673937, Note_on_c, 0, 54, 0
2, 673988, Note_on_c, 0, 56, 82
2, 673993, Note_on_c, 0, 80, 85
2, 673995, Note_on_c, 0, 68, 85
2, 674021, Control_c, 0, 64, 127
2, 674109, Control_c, 0, 64, 0
2, 674180, Control_c, 0, 64, 127
2, 674196, Note_on_c, 0, 80, 0
2, 674231, Note_on_c, 0, 68, 0
2, 674357, Control_c, 0, 64, 0
2, 674817, Note_on_c, 0, 56, 0
2, 674878, Note_on_c, 0, 49, 40
2, 674895, Note_on_c, 0, 61, 67
2, 674898, Note_on_c, 0, 73, 23
2, 674958, Note_on_c, 0, 73, 0
2, 675030, Note_on_c, 0, 49, 0
2, 675100, Note_on_c, 0, 61, 0
2, 675799, Note_on_c, 0, 63, 62
2, 675836, Note_on_c, 0, 52, 34
2, 675848, Note_on_c, 0, 60, 65
2, 675876, Note_on_c, 0, 53, 30
2, 675934, Note_on_c, 0, 53, 0
2, 677282, Note_on_c, 0, 48, 75
2, 677487, Note_on_c, 0, 52, 0
2, 677802, Note_on_c, 0, 52, 48
2, 677819, Note_on_c, 0, 60, 0
2, 678061, Note_on_c, 0, 52, 0
2, 678129, Note_on_c, 0, 63, 0
2, 678156, Note_on_c, 0, 48, 0
2, 678342, Note_on_c, 0, 63, 54
2, 678351, Note_on_c, 0, 42, 62
2, 678367, Note_on_c, 0, 52, 42
2, 678369, Note_on_c, 0, 58, 67
2, 678516, Note_on_c, 0, 52, 0
2, 678627, Note_on_c, 0, 63, 0
2, 678694, Note_on_c, 0, 42, 0
2, 678726, Note_on_c, 0, 58, 0
2, 679238, Note_on_c, 0, 51, 57
2, 679275, Note_on_c, 0, 41, 58
2, 679278, Note_on_c, 0, 57, 63
2, 679291, Note_on_c, 0, 61, 29
2, 679632, Control_c, 0, 64, 127
2, 679634, Note_on_c, 0, 51, 0
2, 679865, Note_on_c, 0, 57, 0
2, 679935, Note_on_c, 0, 61, 0
2, 679963, Note_on_c, 0, 41, 0
2, 680181, Note_on_c, 0, 41, 73
2, 680400, Note_on_c, 0, 41, 0
2, 681114, Control_c, 0, 64, 0
2, 681204, Note_on_c, 0, 85, 101
2, 681207, Note_on_c, 0, 61, 91
2, 681211, Note_on_c, 0, 73, 98
2, 681309, Control_c, 0, 64, 127
2, 681380, Control_c, 0, 64, 0
2, 681417, Note_on_c, 0, 73, 0
2, 681456, Note_on_c, 0, 85, 0
2, 681470, Note_on_c, 0, 61, 0
2, 681709, Note_on_c, 0, 61, 93
2, 681718, Note_on_c, 0, 85, 91
2, 681735, Note_on_c, 0, 73, 87
2, 681839, Control_c, 0, 64, 127
2, 682250, Note_on_c, 0, 73, 0
2, 682295, Note_on_c, 0, 85, 0
2, 682329, Note_on_c, 0, 61, 0
2, 682562, Note_on_c, 0, 61, 50
2, 682598, Note_on_c, 0, 85, 77
2, 682610, Note_on_c, 0, 73, 59
2, 682776, Note_on_c, 0, 61, 0
2, 682918, Note_on_c, 0, 85, 0
2, 683011, Note_on_c, 0, 73, 0
2, 683321, Control_c, 0, 64, 0
2, 683525, Note_on_c, 0, 65, 64
2, 683543, Note_on_c, 0, 61, 30
2, 683550, Note_on_c, 0, 82, 73
2, 683554, Note_on_c, 0, 56, 40
2, 683555, Note_on_c, 0, 60, 47
2, 683568, Note_on_c, 0, 70, 72
2, 683726, Control_c, 0, 64, 127
2, 683865, Note_on_c, 0, 70, 0
2, 683895, Note_on_c, 0, 56, 0
2, 683914, Note_on_c, 0, 82, 0
2, 683920, Note_on_c, 0, 61, 0
2, 683930, Note_on_c, 0, 65, 0
2, 683948, Note_on_c, 0, 60, 0
2, 684141, Note_on_c, 0, 84, 69
2, 684152, Note_on_c, 0, 56, 64
2, 684157, Note_on_c, 0, 65, 52
2, 684164, Note_on_c, 0, 72, 71
2, 684170, Note_on_c, 0, 60, 47
2, 684177, Note_on_c, 0, 61, 40
2, 684238, Control_c, 0, 64, 0
2, 684266, Note_on_c, 0, 60, 0
2, 684268, Note_on_c, 0, 65, 0
2, 684310, Note_on_c, 0, 72, 0
2, 684335, Note_on_c, 0, 56, 0
2, 684338, Note_on_c, 0, 61, 0
2, 684345, Note_on_c, 0, 84, 0
2, 685035, Note_on_c, 0, 85, 68
2, 685039, Note_on_c, 0, 56, 48
2, 685041, Note_on_c, 0, 61, 51
2, 685042, Note_on_c, 0, 60, 55
2, 685044, Note_on_c, 0, 65, 60
2, 685048, Note_on_c, 0, 73, 54
2, 685247, Note_on_c, 0, 73, 0
2, 685248, Note_on_c, 0, 65, 0
2, 685298, Control_c, 0, 64, 127
2, 685324, Note_on_c, 0, 85, 0
2, 685342, Note_on_c, 0, 61, 0
2, 685349, Note_on_c, 0, 56, 0
2, 685387, Note_on_c, 0, 60, 0
2, 685861, Control_c, 0, 64, 0
2, 685937, Note_on_c, 0, 60, 59
2, 685942, Note_on_c, 0, 56, 54
2, 685945, Note_on_c, 0, 61, 55
2, 685951, Note_on_c, 0, 65, 53
2, 685959, Note_on_c, 0, 87, 64
2, 685972, Note_on_c, 0, 75, 73
2, 686234, Note_on_c, 0, 65, 0
2, 686252, Note_on_c, 0, 75, 0
2, 686255, Note_on_c, 0, 60, 0
2, 686276, Note_on_c, 0, 56, 0
2, 686303, Control_c, 0, 64, 127
2, 686340, Note_on_c, 0, 87, 0
2, 686377, Note_on_c, 0, 61, 0
2, 686850, Control_c, 0, 64, 0
2, 686956, Note_on_c, 0, 89, 75
2, 686966, Note_on_c, 0, 66, 52
2, 686968, Note_on_c, 0, 57, 64
2, 686971, Note_on_c, 0, 77, 70
2, 686980, Note_on_c, 0, 63, 51
2, 687005, Note_on_c, 0, 61, 48
2, 687301, Note_on_c, 0, 57, 0
2, 687308, Control_c, 0, 64, 127
2, 687327, Note_on_c, 0, 89, 0
2, 687339, Note_on_c, 0, 61, 0
2, 687343, Note_on_c, 0, 77, 0
2, 687350, Note_on_c, 0, 66, 0
2, 687367, Note_on_c, 0, 63, 0
2, 687749, Control_c, 0, 64, 0
2, 687899, Note_on_c, 0, 66, 60
2, 687901, Note_on_c, 0, 90, 73
2, 687917, Note_on_c, 0, 78, 61
2, 687918, Note_on_c, 0, 61, 40
2, 687934, Note_on_c, 0, 63, 50
2, 687938, Note_on_c, 0, 57, 50
2, 688198, Note_on_c, 0, 57, 0
2, 688242, Note_on_c, 0, 66, 0
2, 688246, Note_on_c, 0, 61, 0
2, 688261, Control_c, 0, 64, 127
2, 688276, Note_on_c, 0, 78, 0
2, 688357, Note_on_c, 0, 90, 0
2, 688390, Note_on_c, 0, 63, 0
2, 688809, Control_c, 0, 64, 0
2, 688877, Note_on_c, 0, 66, 81
2, 688895, Note_on_c, 0, 57, 78
2, 688897, Note_on_c, 0, 61, 50
2, 688902, Note_on_c, 0, 63, 53
2, 688906, Note_on_c, 0, 92, 85
2, 688918, Note_on_c, 0, 80, 75
2, 689173, Note_on_c, 0, 66, 0
2, 689180, Note_on_c, 0, 80, 0
2, 689226, Note_on_c, 0, 92, 0
2, 689231, Control_c, 0, 64, 127
2, 689252, Note_on_c, 0, 61, 0
2, 689295, Note_on_c, 0, 57, 0
2, 689504, Note_on_c, 0, 63, 0
2, 689779, Control_c, 0, 64, 0
2, 689835, Note_on_c, 0, 66, 80
2, 689837, Note_on_c, 0, 96, 71
2, 689842, Note_on_c, 0, 57, 79
2, 689844, Note_on_c, 0, 61, 61
2, 689846, Note_on_c, 0, 63, 63
2, 689849, Note_on_c, 0, 84, 84
2, 689889, Note_on_c, 0, 92, 30
2, 689918, Note_on_c, 0, 95, 19
2, 689960, Note_on_c, 0, 92, 0
2, 690148, Note_on_c, 0, 96, 0
2, 690154, Note_on_c, 0, 84, 0
2, 690166, Note_on_c, 0, 95, 0
2, 690187, Note_on_c, 0, 57, 0
2, 690205, Note_on_c, 0, 66, 0
2, 690226, Note_on_c, 0, 61, 0
2, 690291, Note_on_c, 0, 63, 0
2, 690569, Note_on_c, 0, 97, 86
2, 690574, Note_on_c, 0, 85, 84
2, 690576, Note_on_c, 0, 66, 77
2, 690583, Note_on_c, 0, 57, 78
2, 690585, Note_on_c, 0, 63, 67
2, 690611, Note_on_c, 0, 61, 42
2, 690692, Control_c, 0, 64, 127
2, 690785, Note_on_c, 0, 57, 0
2, 690813, Note_on_c, 0, 85, 0
2, 690875, Note_on_c, 0, 97, 0
2, 690879, Note_on_c, 0, 66, 0
2, 690905, Note_on_c, 0, 63, 0
2, 691060, Note_on_c, 0, 61, 0
2, 691309, Control_c, 0, 64, 0
2, 691329, Note_on_c, 0, 65, 60
2, 691346, Note_on_c, 0, 61, 45
2, 691372, Note_on_c, 0, 60, 56
2, 693271, Note_on_c, 0, 72, 82
2, 693645, Note_on_c, 0, 72, 0
2, 693753, Note_on_c, 0, 73, 57
2, 694111, Note_on_c, 0, 73, 0
2, 694192, Note_on_c, 0, 72, 65
2, 694648, Note_on_c, 0, 72, 0
2, 694703, Note_on_c, 0, 70, 61
2, 694706, Note_on_c, 0, 60, 0
2, 694727, Note_on_c, 0, 65, 0
2, 694826, Note_on_c, 0, 61, 0
2, 694872, Note_on_c, 0, 70, 0
2, 695645, Note_on_c, 0, 69, 64
2, 695971, Note_on_c, 0, 69, 0
2, 696206, Note_on_c, 0, 66, 40
2, 696249, Note_on_c, 0, 63, 21
2, 696290, Note_on_c, 0, 57, 39
2, 697780, Note_on_c, 0, 63, 0
2, 697910, Note_on_c, 0, 65, 58
2, 697958, Note_on_c, 0, 57, 0
2, 698001, Note_on_c, 0, 66, 0
2, 698111, Note_on_c, 0, 65, 0
2, 698961, Note_on_c, 0, 61, 27
2, 698968, Note_on_c, 0, 60, 31
2, 699011, Note_on_c, 0, 65, 25
2, 700816, Note_on_c, 0, 72, 84
2, 701299, Note_on_c, 0, 71, 51
2, 701321, Note_on_c, 0, 72, 0
2, 701402, Note_on_c, 0, 71, 0
2, 701457, Note_on_c, 0, 70, 63
2, 701777, Note_on_c, 0, 69, 49
2, 701798, Note_on_c, 0, 70, 0
2, 702067, Note_on_c, 0, 69, 0
2, 702328, Note_on_c, 0, 77, 84
2, 702501, Note_on_c, 0, 60, 0
2, 702628, Note_on_c, 0, 65, 0
2, 702806, Note_on_c, 0, 61, 0
2, 703363, Note_on_c, 0, 75, 73
2, 703507, Note_on_c, 0, 77, 0
2, 704359, Note_on_c, 0, 73, 57
2, 704407, Note_on_c, 0, 75, 0
2, 704788, Note_on_c, 0, 73, 0
2, 705016, Note_on_c, 0, 72, 43
2, 705439, Note_on_c, 0, 65, 22
2, 705491, Note_on_c, 0, 63, 21
2, 705535, Note_on_c, 0, 65, 0
2, 705571, Note_on_c, 0, 63, 0
2, 705633, Note_on_c, 0, 72, 0
2, 705772, Note_on_c, 0, 70, 24
2, 706363, Note_on_c, 0, 70, 0
2, 706694, Note_on_c, 0, 61, 27
2, 706701, Note_on_c, 0, 69, 38
2, 706733, Note_on_c, 0, 65, 15
2, 706776, Note_on_c, 0, 60, 20
2, 707635, Control_c, 0, 64, 127
2, 709540, Note_on_c, 0, 70, 61
2, 709555, Control_c, 0, 64, 0
2, 709557, Note_on_c, 0, 69, 0
2, 709850, Note_on_c, 0, 65, 0
2, 709871, Note_on_c, 0, 61, 0
2, 709934, Note_on_c, 0, 60, 0
2, 710159, Note_on_c, 0, 69, 71
2, 710224, Note_on_c, 0, 70, 0
2, 712072, Note_on_c, 0, 70, 75
2, 712101, Note_on_c, 0, 69, 0
2, 712132, Note_on_c, 0, 63, 42
2, 712137, Note_on_c, 0, 60, 42
2, 712166, Note_on_c, 0, 58, 28
2, 712175, Note_on_c, 0, 53, 35
2, 712524, Note_on_c, 0, 70, 0
2, 712665, Note_on_c, 0, 69, 35
2, 712970, Note_on_c, 0, 53, 0
2, 713025, Note_on_c, 0, 63, 0
2, 713227, Note_on_c, 0, 60, 0
2, 713339, Note_on_c, 0, 58, 0
2, 713426, Note_on_c, 0, 69, 0
2, 713500, Note_on_c, 0, 70, 60
2, 714220, Note_on_c, 0, 70, 0
2, 714395, Note_on_c, 0, 69, 44
2, 714535, Note_on_c, 0, 46, 20
2, 715305, Note_on_c, 0, 53, 33
2, 715663, Control_c, 0, 64, 127
2, 715996, Note_on_c, 0, 57, 43
2, 716620, Note_on_c, 0, 60, 29
2, 716639, Note_on_c, 0, 69, 0
2, 717019, Note_on_c, 0, 60, 0
2, 717167, Note_on_c, 0, 65, 35
2, 717667, Note_on_c, 0, 65, 0
2, 717715, Note_on_c, 0, 69, 54
2, 717899, Note_on_c, 0, 69, 0
2, 718315, Note_on_c, 0, 77, 48
2, 718804, Note_on_c, 0, 77, 0
2, 718862, Note_on_c, 0, 81, 58
2, 719263, Note_on_c, 0, 81, 0
2, 719443, Note_on_c, 0, 84, 64
2, 719628, Note_on_c, 0, 84, 0
2, 720045, Note_on_c, 0, 89, 52
2, 720669, Note_on_c, 0, 89, 0
2, 720739, Note_on_c, 0, 96, 48
2, 720988, Note_on_c, 0, 96, 0
2, 721480, Note_on_c, 0, 101, 33
2, 721739, Note_on_c, 0, 101, 0
2, 722212, Note_on_c, 0, 105, 20
2, 722414, Note_on_c, 0, 105, 0
2, 723187, Note_on_c, 0, 57, 0
2, 723223, Note_on_c, 0, 53, 0
2, 723412, Note_on_c, 0, 46, 0
2, 723412, End_track
3, 0, Start_track
3, 0, Title_t, "MIDI 2"
3, 0, Control_c, 1, 0, 2
3, 0, Program_c, 1, 32
3, 0, Control_c, 1, 7, 100
3, 0, Note_on_c, 1, 46, 39
3, 1920, Note_on_c, 1, 41, 64
3, 1980, Note_on_c, 1, 46, 0
3, 3698, Note_on_c, 1, 41, 0
3, 3840, Note_on_c, 1, 44, 32
3, 5712, Note_on_c, 1, 44, 0
3, 5760, Note_on_c, 1, 41, 52
3, 7634, Note_on_c, 1, 41, 0
3, 7680, Note_on_c, 1, 43, 41
3, 9600, Note_on_c, 1, 36, 64
3, 9682, Note_on_c, 1, 43, 0
3, 11448, Note_on_c, 1, 36, 0
3, 11520, Note_on_c, 1, 42, 62
3, 13322, Note_on_c, 1, 42, 0
3, 13440, Note_on_c, 1, 30, 50
3, 15437, Note_on_c, 1, 30, 0
3, 15600, Note_on_c, 1, 41, 82
3, 17496, Note_on_c, 1, 41, 0
3, 17520, Note_on_c, 1, 34, 54
3, 19200, Note_on_c, 1, 41, 52
3, 19404, Note_on_c, 1, 34, 0
3, 20640, Note_on_c, 1, 34, 23
3, 20947, Note_on_c, 1, 41, 0
3, 21120, Note_on_c, 1, 46, 55
3, 21219, Note_on_c, 1, 34, 0
3, 22560, Note_on_c, 1, 49, 75
3, 22683, Note_on_c, 1, 46, 0
3, 22826, Note_on_c, 1, 49, 0
3, 23040, Note_on_c, 1, 48, 30
3, 24854, Note_on_c, 1, 48, 0
3, 24960, Note_on_c, 1, 42, 50
3, 26840, Note_on_c, 1, 42, 0
3, 26880, Note_on_c, 1, 41, 55
3, 27840, Note_on_c, 1, 54, 86
3, 27857, Note_on_c, 1, 41, 0
3, 29691, Note_on_c, 1, 54, 0
3, 29760, Note_on_c, 1, 53, 70
3, 30046, Note_on_c, 1, 53, 0
3, 30240, Note_on_c, 1, 41, 40
3, 30391, Note_on_c, 1, 41, 0
3, 30720, Note_on_c, 1, 46, 61
3, 32601, Note_on_c, 1, 46, 0
3, 32640, Note_on_c, 1, 41, 41
3, 34426, Note_on_c, 1, 41, 0
3, 34560, Note_on_c, 1, 43, 61
3, 36000, Note_on_c, 1, 31, 48
3, 36193, Note_on_c, 1, 31, 0
3, 36480, Note_on_c, 1, 31, 62
3, 36528, Note_on_c, 1, 43, 0
3, 37287, Note_on_c, 1, 31, 0
3, 37440, Note_on_c, 1, 35, 70
3, 38297, Note_on_c, 1, 35, 0
3, 38400, Note_on_c, 1, 36, 59
3, 40320, Note_on_c, 1, 48, 81
3, 40407, Note_on_c, 1, 36, 0
3, 41991, Note_on_c, 1, 48, 0
3, 42240, Note_on_c, 1, 36, 60
3, 44160, Note_on_c, 1, 48, 48
3, 44978, Note_on_c, 1, 48, 0
3, 45120, Note_on_c, 1, 53, 84
3, 45209, Note_on_c, 1, 36, 0
3, 48960, Note_on_c, 1, 41, 77
3, 48991, Note_on_c, 1, 53, 0
3, 52800, Note_on_c, 1, 53, 55
3, 52930, Note_on_c, 1, 41, 0
3, 52932, Note_on_c, 1, 53, 0
3, 53280, Note_on_c, 1, 53, 45
3, 53467, Note_on_c, 1, 53, 0
3, 53760, Note_on_c, 1, 54, 69
3, 55680, Note_on_c, 1, 42, 49
3, 55913, Note_on_c, 1, 54, 0
3, 57000, Note_on_c, 1, 48, 30
3, 57113, Note_on_c, 1, 48, 0
3, 57391, Note_on_c, 1, 42, 0
3, 57600, Note_on_c, 1, 53, 83
3, 59435, Note_on_c, 1, 53, 0
3, 59520, Note_on_c, 1, 41, 62
3, 61356, Note_on_c, 1, 41, 0
3, 61440, Note_on_c, 1, 39, 34
3, 63348, Note_on_c, 1, 39, 0
3, 63360, Note_on_c, 1, 51, 98
3, 64800, Note_on_c, 1, 39, 55
3, 64944, Note_on_c, 1, 39, 0
3, 65108, Note_on_c, 1, 51, 0
3, 65280, Note_on_c, 1, 49, 82
3, 67164, Note_on_c, 1, 49, 0
3, 67200, Note_on_c, 1, 37, 72
3, 69103, Note_on_c, 1, 37, 0
3, 69120, Note_on_c, 1, 36, 56
3, 71019, Note_on_c, 1, 36, 0
3, 71040, Note_on_c, 1, 48, 114
3, 72960, Note_on_c, 1, 41, 46
3, 72996, Note_on_c, 1, 48, 0
3, 73920, Note_on_c, 1, 54, 99
3, 74004, Note_on_c, 1, 41, 0
3, 75799, Note_on_c, 1, 54, 0
3, 75840, Note_on_c, 1, 53, 74
3, 76569, Note_on_c, 1, 53, 0
3, 76800, Note_on_c, 1, 46, 77
3, 78720, Note_on_c, 1, 41, 48
3, 78923, Note_on_c, 1, 46, 0
3, 80623, Note_on_c, 1, 41, 0
3, 80640, Note_on_c, 1, 34, 56
3, 82560, Note_on_c, 1, 41, 59
3, 82608, Note_on_c, 1, 34, 0
3, 83863, Note_on_c, 1, 41, 0
3, 84240, Note_on_c, 1, 40, 48
3, 84411, Note_on_c, 1, 40, 0
3, 84720, Note_on_c, 1, 39, 53
3, 86160, Note_on_c, 1, 45, 87
3, 86316, Note_on_c, 1, 39, 0
3, 87120, Note_on_c, 1, 39, 36
3, 87187, Note_on_c, 1, 45, 0
3, 87201, Note_on_c, 1, 39, 0
3, 87360, Note_on_c, 1, 44, 83
3, 90168, Note_on_c, 1, 44, 0
3, 90240, Note_on_c, 1, 39, 57
3, 90497, Note_on_c, 1, 39, 0
3, 91200, Note_on_c, 1, 38, 58
3, 91596, Note_on_c, 1, 38, 0
3, 92160, Note_on_c, 1, 37, 64
3, 93953, Note_on_c, 1, 37, 0
3, 94080, Note_on_c, 1, 44, 52
3, 94262, Note_on_c, 1, 44, 0
3, 95040, Note_on_c, 1, 43, 55
3, 95858, Note_on_c, 1, 43, 0
3, 96000, Note_on_c, 1, 42, 54
3, 97920, Note_on_c, 1, 54, 73
3, 98043, Note_on_c, 1, 42, 0
3, 99360, Note_on_c, 1, 42, 30
3, 99526, Note_on_c, 1, 42, 0
3, 99682, Note_on_c, 1, 54, 0
3, 99840, Note_on_c, 1, 48, 52
3, 100414, Note_on_c, 1, 48, 0
3, 100800, Note_on_c, 1, 48, 56
3, 102720, Note_on_c, 1, 36, 46
3, 102806, Note_on_c, 1, 48, 0
3, 102908, Note_on_c, 1, 36, 0
3, 103680, Note_on_c, 1, 41, 73
3, 103869, Note_on_c, 1, 41, 0
3, 104640, Note_on_c, 1, 41, 70
3, 106481, Note_on_c, 1, 41, 0
3, 106560, Note_on_c, 1, 29, 27
3, 107379, Note_on_c, 1, 29, 0
3, 107520, Note_on_c, 1, 34, 52
3, 108960, Note_on_c, 1, 41, 67
3, 109101, Note_on_c, 1, 34, 0
3, 110263, Note_on_c, 1, 41, 0
3, 110400, Note_on_c, 1, 53, 98
3, 113280, Note_on_c, 1, 41, 52
3, 113448, Note_on_c, 1, 53, 0
3, 113619, Note_on_c, 1, 41, 0
3, 114240, Note_on_c, 1, 41, 70
3, 114290, Note_on_c, 1, 41, 80
3, 114463, Note_on_c, 1, 41, 0
3, 115267, Note_on_c, 1, 41, 0
3, 115296, Note_on_c, 1, 34, 63
3, 116821, Note_on_c, 1, 41, 81
3, 117063, Note_on_c, 1, 41, 0
3, 117298, Note_on_c, 1, 41, 70
3, 117309, Note_on_c, 1, 34, 0
3, 118949, Note_on_c, 1, 41, 0
3, 119166, Note_on_c, 1, 44, 80
3, 120517, Note_on_c, 1, 41, 60
3, 120573, Note_on_c, 1, 44, 0
3, 120766, Note_on_c, 1, 41, 0
3, 121017, Note_on_c, 1, 41, 64
3, 121890, Note_on_c, 1, 41, 0
3, 121931, Note_on_c, 1, 42, 64
3, 122896, Note_on_c, 1, 42, 0
3, 122956, Note_on_c, 1, 43, 66
3, 124816, Note_on_c, 1, 43, 0
3, 124836, Note_on_c, 1, 31, 59
3, 126210, Note_on_c, 1, 31, 0
3, 126339, Note_on_c, 1, 43, 21
3, 126446, Note_on_c, 1, 43, 0
3, 126809, Note_on_c, 1, 42, 73
3, 128203, Note_on_c, 1, 42, 0
3, 128261, Note_on_c, 1, 36, 37
3, 128542, Note_on_c, 1, 36, 0
3, 128738, Note_on_c, 1, 30, 54
3, 130167, Note_on_c, 1, 42, 56
3, 130422, Note_on_c, 1, 30, 0
3, 130528, Note_on_c, 1, 42, 0
3, 130642, Note_on_c, 1, 41, 55
3, 132529, Note_on_c, 1, 29, 44
3, 133984, Note_on_c, 1, 29, 0
3, 134041, Note_on_c, 1, 34, 78
3, 134102, Note_on_c, 1, 41, 0
3, 134271, Note_on_c, 1, 34, 0
3, 134503, Note_on_c, 1, 34, 49
3, 136031, Note_on_c, 1, 41, 61
3, 136128, Note_on_c, 1, 41, 0
3, 136329, Note_on_c, 1, 34, 0
3, 136508, Note_on_c, 1, 41, 58
3, 136603, Note_on_c, 1, 41, 0
3, 136992, Note_on_c, 1, 34, 54
3, 137192, Note_on_c, 1, 34, 0
3, 137447, Note_on_c, 1, 35, 68
3, 138349, Note_on_c, 1, 35, 0
3, 138412, Note_on_c, 1, 36, 58
3, 139436, Note_on_c, 1, 48, 91
3, 140563, Note_on_c, 1, 36, 0
3, 140954, Note_on_c, 1, 36, 48
3, 141013, Note_on_c, 1, 34, 22
3, 141044, Note_on_c, 1, 36, 0
3, 141105, Note_on_c, 1, 34, 0
3, 141320, Note_on_c, 1, 49, 79
3, 141358, Note_on_c, 1, 48, 0
3, 142716, Note_on_c, 1, 40, 30
3, 142819, Note_on_c, 1, 40, 0
3, 142978, Note_on_c, 1, 49, 0
3, 143069, Note_on_c, 1, 48, 45
3, 143674, Note_on_c, 1, 41, 71
3, 143797, Note_on_c, 1, 41, 0
3, 144548, Note_on_c, 1, 36, 59
3, 144826, Note_on_c, 1, 36, 0
3, 145074, Note_on_c, 1, 33, 55
3, 145840, Note_on_c, 1, 48, 0
3, 145985, Note_on_c, 1, 33, 0
3, 146033, Note_on_c, 1, 34, 59
3, 147529, Note_on_c, 1, 41, 53
3, 147632, Note_on_c, 1, 41, 0
3, 147811, Note_on_c, 1, 34, 0
3, 147975, Note_on_c, 1, 41, 62
3, 149332, Note_on_c, 1, 42, 56
3, 149384, Note_on_c, 1, 41, 0
3, 149621, Note_on_c, 1, 42, 0
3, 149798, Note_on_c, 1, 43, 44
3, 151245, Note_on_c, 1, 57, 88
3, 151436, Note_on_c, 1, 57, 0
3, 151682, Note_on_c, 1, 43, 0
3, 151745, Note_on_c, 1, 56, 45
3, 151909, Note_on_c, 1, 56, 0
3, 152280, Note_on_c, 1, 55, 92
3, 152475, Note_on_c, 1, 55, 0
3, 152763, Note_on_c, 1, 53, 55
3, 152892, Note_on_c, 1, 53, 0
3, 153188, Note_on_c, 1, 37, 61
3, 153456, Note_on_c, 1, 37, 0
3, 153653, Note_on_c, 1, 52, 87
3, 154467, Note_on_c, 1, 52, 0
3, 154549, Note_on_c, 1, 36, 60
3, 158676, Note_on_c, 1, 36, 0
3, 158876, Note_on_c, 1, 36, 48
3, 159247, Note_on_c, 1, 36, 0
3, 159321, Note_on_c, 1, 51, 78
3, 159813, Note_on_c, 1, 51, 0
3, 159899, Note_on_c, 1, 52, 60
3, 160181, Note_on_c, 1, 52, 0
3, 160340, Note_on_c, 1, 48, 55
3, 160541, Note_on_c, 1, 48, 0
3, 160913, Note_on_c, 1, 40, 51
3, 161200, Note_on_c, 1, 40, 0
3, 161404, Note_on_c, 1, 41, 58
3, 162813, Note_on_c, 1, 29, 31
3, 163044, Note_on_c, 1, 29, 0
3, 163277, Note_on_c, 1, 29, 45
3, 163346, Note_on_c, 1, 41, 0
3, 164663, Note_on_c, 1, 29, 0
3, 164688, Note_on_c, 1, 41, 103
3, 166679, Note_on_c, 1, 29, 59
3, 166865, Note_on_c, 1, 29, 0
3, 166928, Note_on_c, 1, 41, 0
3, 167109, Note_on_c, 1, 29, 54
3, 167882, Note_on_c, 1, 29, 0
3, 168068, Note_on_c, 1, 42, 95
3, 170503, Note_on_c, 1, 37, 48
3, 170530, Note_on_c, 1, 42, 0
3, 170733, Note_on_c, 1, 37, 0
3, 170969, Note_on_c, 1, 37, 55
3, 172803, Note_on_c, 1, 37, 0
3, 172861, Note_on_c, 1, 41, 68
3, 174290, Note_on_c, 1, 37, 40
3, 174394, Note_on_c, 1, 37, 0
3, 174400, Note_on_c, 1, 41, 0
3, 174815, Note_on_c, 1, 37, 44
3, 175619, Note_on_c, 1, 37, 0
3, 175762, Note_on_c, 1, 41, 47
3, 175868, Note_on_c, 1, 41, 0
3, 176239, Note_on_c, 1, 41, 59
3, 176376, Note_on_c, 1, 41, 0
3, 176689, Note_on_c, 1, 39, 67
3, 178338, Note_on_c, 1, 39, 0
3, 178595, Note_on_c, 1, 34, 37
3, 180072, Note_on_c, 1, 37, 54
3, 180101, Note_on_c, 1, 34, 0
3, 180222, Note_on_c, 1, 37, 0
3, 180578, Note_on_c, 1, 37, 71
3, 181909, Note_on_c, 1, 37, 0
3, 182011, Note_on_c, 1, 34, 43
3, 182093, Note_on_c, 1, 34, 0
3, 182440, Note_on_c, 1, 34, 32
3, 182534, Note_on_c, 1, 34, 0
3, 182935, Note_on_c, 1, 35, 74
3, 183179, Note_on_c, 1, 35, 0
3, 183450, Note_on_c, 1, 36, 81
3, 185819, Note_on_c, 1, 51, 79
3, 186187, Note_on_c, 1, 51, 0
3, 186304, Note_on_c, 1, 52, 45
3, 186904, Note_on_c, 1, 34, 39
3, 187005, Note_on_c, 1, 36, 0
3, 187007, Note_on_c, 1, 34, 0
3, 187686, Note_on_c, 1, 40, 44
3, 187921, Note_on_c, 1, 52, 0
3, 188037, Note_on_c, 1, 40, 0
3, 188158, Note_on_c, 1, 41, 61
3, 189683, Note_on_c, 1, 29, 62
3, 190575, Note_on_c, 1, 29, 0
3, 190634, Note_on_c, 1, 32, 73
3, 190929, Note_on_c, 1, 32, 0
3, 191003, Note_on_c, 1, 41, 0
3, 191106, Note_on_c, 1, 33, 73
3, 192011, Note_on_c, 1, 33, 0
3, 192096, Note_on_c, 1, 34, 74
3, 193570, Note_on_c, 1, 41, 79
3, 193758, Note_on_c, 1, 34, 0
3, 193797, Note_on_c, 1, 41, 0
3, 194038, Note_on_c, 1, 41, 66
3, 195542, Note_on_c, 1, 46, 91
3, 195658, Note_on_c, 1, 41, 0
3, 197387, Note_on_c, 1, 41, 63
3, 197493, Note_on_c, 1, 41, 0
3, 197848, Note_on_c, 1, 41, 70
3, 198729, Note_on_c, 1, 41, 0
3, 198751, Note_on_c, 1, 40, 73
3, 198757, Note_on_c, 1, 46, 0
3, 199504, Note_on_c, 1, 40, 0
3, 199708, Note_on_c, 1, 39, 64
3, 201218, Note_on_c, 1, 39, 0
3, 201233, Note_on_c, 1, 45, 101
3, 202394, Note_on_c, 1, 45, 0
3, 202409, Note_on_c, 1, 39, 36
3, 202508, Note_on_c, 1, 39, 0
3, 202633, Note_on_c, 1, 44, 91
3, 204732, Note_on_c, 1, 44, 0
3, 205001, Note_on_c, 1, 39, 81
3, 205252, Note_on_c, 1, 39, 0
3, 205474, Note_on_c, 1, 38, 90
3, 206260, Note_on_c, 1, 38, 0
3, 206379, Note_on_c, 1, 37, 93
3, 208766, Note_on_c, 1, 37, 0
3, 208817, Note_on_c, 1, 44, 93
3, 209010, Note_on_c, 1, 44, 0
3, 209447, Note_on_c, 1, 43, 25
3, 209530, Note_on_c, 1, 43, 0
3, 210260, Note_on_c, 1, 43, 95
3, 210491, Note_on_c, 1, 43, 0
3, 211195, Note_on_c, 1, 42, 77
3, 212521, Note_on_c, 1, 42, 0
3, 212651, Note_on_c, 1, 37, 67
3, 212868, Note_on_c, 1, 37, 0
3, 213141, Note_on_c, 1, 37, 76
3, 213806, Note_on_c, 1, 37, 0
3, 214048, Note_on_c, 1, 35, 66
3, 214344, Note_on_c, 1, 35, 0
3, 214519, Note_on_c, 1, 35, 64
3, 214926, Note_on_c, 1, 35, 0
3, 215083, Note_on_c, 1, 36, 58
3, 216571, Note_on_c, 1, 51, 80
3, 216855, Note_on_c, 1, 51, 0
3, 217086, Note_on_c, 1, 52, 74
3, 217402, Note_on_c, 1, 36, 0
3, 218425, Note_on_c, 1, 40, 40
3, 218799, Note_on_c, 1, 40, 0
3, 218929, Note_on_c, 1, 41, 62
3, 219039, Note_on_c, 1, 52, 0
3, 219503, Note_on_c, 1, 29, 67
3, 220159, Note_on_c, 1, 41, 0
3, 221331, Note_on_c, 1, 41, 50
3, 221442, Note_on_c, 1, 41, 0
3, 221823, Note_on_c, 1, 41, 71
3, 221844, Note_on_c, 1, 29, 0
3, 222677, Note_on_c, 1, 41, 0
3, 222781, Note_on_c, 1, 34, 70
3, 224177, Note_on_c, 1, 34, 0
3, 224252, Note_on_c, 1, 41, 91
3, 225672, Note_on_c, 1, 53, 106
3, 225786, Note_on_c, 1, 41, 0
3, 228131, Note_on_c, 1, 41, 87
3, 228364, Note_on_c, 1, 41, 0
3, 228622, Note_on_c, 1, 41, 81
3, 229484, Note_on_c, 1, 41, 0
3, 229536, Note_on_c, 1, 53, 0
3, 229572, Note_on_c, 1, 34, 85
3, 231897, Note_on_c, 1, 34, 0
3, 231910, Note_on_c, 1, 41, 82
3, 232102, Note_on_c, 1, 41, 0
3, 232394, Note_on_c, 1, 41, 73
3, 233870, Note_on_c, 1, 44, 77
3, 234096, Note_on_c, 1, 44, 0
3, 234211, Note_on_c, 1, 41, 0
3, 234414, Note_on_c, 1, 44, 86
3, 236772, Note_on_c, 1, 39, 35
3, 236871, Note_on_c, 1, 44, 0
3, 236896, Note_on_c, 1, 39, 0
3, 237223, Note_on_c, 1, 44, 71
3, 237548, Note_on_c, 1, 44, 0
3, 237701, Note_on_c, 1, 44, 75
3, 238090, Note_on_c, 1, 44, 0
3, 238180, Note_on_c, 1, 43, 79
3, 238261, Note_on_c, 1, 44, 19
3, 238337, Note_on_c, 1, 44, 0
3, 239616, Note_on_c, 1, 36, 37
3, 239703, Note_on_c, 1, 36, 0
3, 240064, Note_on_c, 1, 36, 61
3, 240135, Note_on_c, 1, 43, 0
3, 241943, Note_on_c, 1, 36, 0
3, 241961, Note_on_c, 1, 42, 77
3, 243484, Note_on_c, 1, 36, 32
3, 243574, Note_on_c, 1, 36, 0
3, 243941, Note_on_c, 1, 36, 33
3, 244041, Note_on_c, 1, 36, 0
3, 245320, Note_on_c, 1, 36, 69
3, 245420, Note_on_c, 1, 36, 0
3, 245599, Note_on_c, 1, 42, 0
3, 245807, Note_on_c, 1, 41, 70
3, 247185, Note_on_c, 1, 37, 34
3, 247342, Note_on_c, 1, 37, 0
3, 247610, Note_on_c, 1, 41, 0
3, 247689, Note_on_c, 1, 34, 69
3, 248999, Note_on_c, 1, 34, 0
3, 249176, Note_on_c, 1, 34, 49
3, 249353, Note_on_c, 1, 34, 0
3, 249602, Note_on_c, 1, 34, 59
3, 251109, Note_on_c, 1, 41, 64
3, 251226, Note_on_c, 1, 41, 0
3, 251409, Note_on_c, 1, 34, 0
3, 251571, Note_on_c, 1, 41, 60
3, 251701, Note_on_c, 1, 41, 0
3, 252069, Note_on_c, 1, 34, 67
3, 252245, Note_on_c, 1, 34, 0
3, 252565, Note_on_c, 1, 35, 59
3, 253425, Note_on_c, 1, 35, 0
3, 253504, Note_on_c, 1, 36, 57
3, 255002, Note_on_c, 1, 48, 74
3, 255179, Note_on_c, 1, 48, 0
3, 255453, Note_on_c, 1, 48, 64
3, 255472, Note_on_c, 1, 36, 0
3, 255981, Note_on_c, 1, 36, 58
3, 256127, Note_on_c, 1, 36, 0
3, 256902, Note_on_c, 1, 40, 61
3, 256989, Note_on_c, 1, 48, 0
3, 257197, Note_on_c, 1, 40, 0
3, 257377, Note_on_c, 1, 41, 64
3, 257760, Note_on_c, 1, 41, 0
3, 257896, Note_on_c, 1, 41, 55
3, 258284, Note_on_c, 1, 41, 0
3, 258360, Note_on_c, 1, 29, 65
3, 259756, Note_on_c, 1, 41, 62
3, 259856, Note_on_c, 1, 29, 0
3, 259953, Note_on_c, 1, 41, 0
3, 260221, Note_on_c, 1, 33, 64
3, 261095, Note_on_c, 1, 33, 0
3, 261165, Note_on_c, 1, 34, 62
3, 262683, Note_on_c, 1, 34, 0
3, 262699, Note_on_c, 1, 41, 74
3, 264572, Note_on_c, 1, 42, 58
3, 264710, Note_on_c, 1, 41, 0
3, 264950, Note_on_c, 1, 42, 0
3, 265047, Note_on_c, 1, 43, 56
3, 266440, Note_on_c, 1, 38, 54
3, 266538, Note_on_c, 1, 38, 0
3, 266832, Note_on_c, 1, 43, 0
3, 266971, Note_on_c, 1, 35, 55
3, 267853, Note_on_c, 1, 35, 0
3, 267938, Note_on_c, 1, 36, 78
3, 270221, Note_on_c, 1, 43, 49
3, 270326, Note_on_c, 1, 43, 0
3, 270651, Note_on_c, 1, 36, 0
3, 270756, Note_on_c, 1, 48, 76
3, 271012, Note_on_c, 1, 48, 0
3, 271271, Note_on_c, 1, 48, 62
3, 271549, Note_on_c, 1, 48, 0
3, 271767, Note_on_c, 1, 36, 81
3, 274181, Note_on_c, 1, 48, 35
3, 274269, Note_on_c, 1, 48, 0
3, 274313, Note_on_c, 1, 36, 0
3, 274623, Note_on_c, 1, 48, 79
3, 274708, Note_on_c, 1, 48, 0
3, 275158, Note_on_c, 1, 39, 61
3, 275364, Note_on_c, 1, 39, 0
3, 275653, Note_on_c, 1, 40, 68
3, 275976, Note_on_c, 1, 40, 0
3, 276161, Note_on_c, 1, 41, 96
3, 276397, Note_on_c, 1, 41, 0
3, 276627, Note_on_c, 1, 41, 84
3, 278077, Note_on_c, 1, 53, 106
3, 279680, Note_on_c, 1, 41, 0
3, 279940, Note_on_c, 1, 41, 56
3, 280110, Note_on_c, 1, 41, 0
3, 280429, Note_on_c, 1, 29, 74
3, 281670, Note_on_c, 1, 29, 0
3, 281871, Note_on_c, 1, 41, 90
3, 282646, Note_on_c, 1, 41, 0
3, 282702, Note_on_c, 1, 53, 0
3, 282790, Note_on_c, 1, 41, 87
3, 283186, Note_on_c, 1, 41, 0
3, 283336, Note_on_c, 1, 42, 95
3, 285675, Note_on_c, 1, 37, 73
3, 285849, Note_on_c, 1, 37, 0
3, 286026, Note_on_c, 1, 42, 0
3, 286132, Note_on_c, 1, 37, 80
3, 287516, Note_on_c, 1, 37, 0
3, 287615, Note_on_c, 1, 41, 106
3, 289487, Note_on_c, 1, 37, 61
3, 289675, Note_on_c, 1, 37, 0
3, 289736, Note_on_c, 1, 41, 0
3, 289971, Note_on_c, 1, 37, 57
3, 290244, Note_on_c, 1, 37, 0
3, 290435, Note_on_c, 1, 37, 51
3, 290721, Note_on_c, 1, 37, 0
3, 290872, Note_on_c, 1, 41, 81
3, 291792, Note_on_c, 1, 41, 0
3, 291931, Note_on_c, 1, 39, 67
3, 293398, Note_on_c, 1, 51, 98
3, 293448, Note_on_c, 1, 39, 0
3, 294317, Note_on_c, 1, 39, 61
3, 294504, Note_on_c, 1, 39, 0
3, 294682, Note_on_c, 1, 51, 0
3, 294771, Note_on_c, 1, 49, 99
3, 297083, Note_on_c, 1, 39, 60
3, 297191, Note_on_c, 1, 49, 0
3, 297298, Note_on_c, 1, 39, 0
3, 297600, Note_on_c, 1, 49, 68
3, 297737, Note_on_c, 1, 49, 0
3, 298154, Note_on_c, 1, 49, 90
3, 298478, Note_on_c, 1, 49, 0
3, 298586, Note_on_c, 1, 48, 76
3, 301003, Note_on_c, 1, 43, 75
3, 301196, Note_on_c, 1, 43, 0
3, 301321, Note_on_c, 1, 48, 0
3, 301518, Note_on_c, 1, 43, 55
3, 302280, Note_on_c, 1, 43, 0
3, 302419, Note_on_c, 1, 36, 43
3, 302564, Note_on_c, 1, 36, 0
3, 302929, Note_on_c, 1, 36, 46
3, 303131, Note_on_c, 1, 36, 0
3, 303429, Note_on_c, 1, 41, 76
3, 304775, Note_on_c, 1, 41, 0
3, 304824, Note_on_c, 1, 29, 74
3, 306204, Note_on_c, 1, 32, 67
3, 306251, Note_on_c, 1, 29, 0
3, 306457, Note_on_c, 1, 32, 0
3, 306753, Note_on_c, 1, 33, 63
3, 307203, Note_on_c, 1, 33, 0
3, 307293, Note_on_c, 1, 34, 71
3, 308780, Note_on_c, 1, 41, 96
3, 308848, Note_on_c, 1, 34, 0
3, 309974, Note_on_c, 1, 41, 0
3, 310111, Note_on_c, 1, 41, 91
3, 311592, Note_on_c, 1, 41, 0
3, 311658, Note_on_c, 1, 34, 85
3, 313558, Note_on_c, 1, 46, 86
3, 313681, Note_on_c, 1, 34, 0
3, 313984, Note_on_c, 1, 37, 48
3, 314060, Note_on_c, 1, 46, 0
3, 314308, Note_on_c, 1, 37, 0
3, 314544, Note_on_c, 1, 38, 68
3, 314862, Note_on_c, 1, 38, 0
3, 315008, Note_on_c, 1, 39, 80
3, 316387, Note_on_c, 1, 45, 93
3, 316623, Note_on_c, 1, 39, 0
3, 317327, Note_on_c, 1, 39, 56
3, 317451, Note_on_c, 1, 39, 0
3, 317662, Note_on_c, 1, 45, 0
3, 317814, Note_on_c, 1, 44, 79
3, 320267, Note_on_c, 1, 38, 74
3, 320531, Note_on_c, 1, 38, 0
3, 320697, Note_on_c, 1, 44, 0
3, 320724, Note_on_c, 1, 38, 61
3, 321657, Note_on_c, 1, 38, 0
3, 321763, Note_on_c, 1, 37, 72
3, 324001, Note_on_c, 1, 37, 0
3, 324118, Note_on_c, 1, 49, 84
3, 324278, Note_on_c, 1, 49, 0
3, 324626, Note_on_c, 1, 43, 70
3, 324866, Note_on_c, 1, 43, 0
3, 325100, Note_on_c, 1, 43, 59
3, 325428, Note_on_c, 1, 43, 0
3, 325547, Note_on_c, 1, 42, 82
3, 327986, Note_on_c, 1, 54, 95
3, 328172, Note_on_c, 1, 42, 0
3, 328832, Note_on_c, 1, 42, 72
3, 329021, Note_on_c, 1, 54, 0
3, 329285, Note_on_c, 1, 42, 0
3, 329299, Note_on_c, 1, 51, 67
3, 330121, Note_on_c, 1, 51, 0
3, 330250, Note_on_c, 1, 52, 79
3, 331003, Note_on_c, 1, 52, 0
3, 331241, Note_on_c, 1, 49, 70
3, 331709, Note_on_c, 1, 49, 0
3, 331837, Note_on_c, 1, 48, 67
3, 333649, Note_on_c, 1, 42, 67
3, 333758, Note_on_c, 1, 48, 0
3, 333928, Note_on_c, 1, 42, 0
3, 334108, Note_on_c, 1, 41, 71
3, 335609, Note_on_c, 1, 53, 92
3, 335631, Note_on_c, 1, 41, 0
3, 335869, Note_on_c, 1, 53, 0
3, 336070, Note_on_c, 1, 53, 80
3, 336872, Note_on_c, 1, 53, 0
3, 336980, Note_on_c, 1, 33, 71
3, 337813, Note_on_c, 1, 33, 0
3, 337950, Note_on_c, 1, 34, 68
3, 339447, Note_on_c, 1, 34, 0
3, 339457, Note_on_c, 1, 41, 80
3, 340315, Note_on_c, 1, 41, 0
3, 340373, Note_on_c, 1, 40, 65
3, 340747, Note_on_c, 1, 40, 0
3, 340909, Note_on_c, 1, 41, 84
3, 343254, Note_on_c, 1, 29, 64
3, 343485, Note_on_c, 1, 29, 0
3, 343709, Note_on_c, 1, 29, 57
3, 344632, Note_on_c, 1, 29, 0
3, 344736, Note_on_c, 1, 33, 64
3, 344773, Note_on_c, 1, 41, 0
3, 345631, Note_on_c, 1, 33, 0
3, 345722, Note_on_c, 1, 34, 67
3, 347212, Note_on_c, 1, 41, 75
3, 347252, Note_on_c, 1, 34, 0
3, 347409, Note_on_c, 1, 41, 0
3, 347685, Note_on_c, 1, 41, 74
3, 349134, Note_on_c, 1, 44, 40
3, 349239, Note_on_c, 1, 41, 0
3, 349253, Note_on_c, 1, 44, 0
3, 349571, Note_on_c, 1, 44, 86
3, 351123, Note_on_c, 1, 44, 0
3, 351994, Note_on_c, 1, 34, 55
3, 352176, Note_on_c, 1, 34, 0
3, 352407, Note_on_c, 1, 44, 76
3, 353276, Note_on_c, 1, 44, 0
3, 353359, Note_on_c, 1, 43, 59
3, 354792, Note_on_c, 1, 40, 46
3, 354920, Note_on_c, 1, 40, 0
3, 355099, Note_on_c, 1, 43, 0
3, 355294, Note_on_c, 1, 40, 56
3, 356622, Note_on_c, 1, 40, 0
3, 356703, Note_on_c, 1, 42, 73
3, 358562, Note_on_c, 1, 39, 69
3, 358735, Note_on_c, 1, 39, 0
3, 358781, Note_on_c, 1, 42, 0
3, 359059, Note_on_c, 1, 39, 30
3, 359225, Note_on_c, 1, 39, 0
3, 359557, Note_on_c, 1, 39, 57
3, 359754, Note_on_c, 1, 39, 0
3, 360524, Note_on_c, 1, 33, 55
3, 360633, Note_on_c, 1, 33, 0
3, 360981, Note_on_c, 1, 41, 77
3, 362513, Note_on_c, 1, 41, 0
3, 362525, Note_on_c, 1, 34, 70
3, 364440, Note_on_c, 1, 47, 98
3, 364648, Note_on_c, 1, 34, 0
3, 364868, Note_on_c, 1, 47, 0
3, 364986, Note_on_c, 1, 46, 69
3, 366337, Note_on_c, 1, 41, 68
3, 366534, Note_on_c, 1, 41, 0
3, 366567, Note_on_c, 1, 46, 0
3, 366814, Note_on_c, 1, 34, 67
3, 368185, Note_on_c, 1, 34, 0
3, 368259, Note_on_c, 1, 35, 52
3, 368595, Note_on_c, 1, 35, 0
3, 368703, Note_on_c, 1, 36, 70
3, 370011, Note_on_c, 1, 36, 0
3, 370109, Note_on_c, 1, 42, 90
3, 370934, Note_on_c, 1, 42, 0
3, 371064, Note_on_c, 1, 30, 68
3, 371370, Note_on_c, 1, 30, 0
3, 371610, Note_on_c, 1, 29, 72
3, 373897, Note_on_c, 1, 29, 0
3, 373968, Note_on_c, 1, 41, 77
3, 374159, Note_on_c, 1, 41, 0
3, 374408, Note_on_c, 1, 41, 64
3, 375228, Note_on_c, 1, 41, 0
3, 375346, Note_on_c, 1, 33, 70
3, 376229, Note_on_c, 1, 33, 0
3, 376347, Note_on_c, 1, 34, 69
3, 377834, Note_on_c, 1, 41, 68
3, 377963, Note_on_c, 1, 41, 0
3, 378086, Note_on_c, 1, 34, 0
3, 378306, Note_on_c, 1, 41, 75
3, 379754, Note_on_c, 1, 43, 82
3, 379782, Note_on_c, 1, 41, 0
3, 381703, Note_on_c, 1, 31, 46
3, 381872, Note_on_c, 1, 31, 0
3, 382163, Note_on_c, 1, 31, 74
3, 382387, Note_on_c, 1, 43, 0
3, 383435, Note_on_c, 1, 31, 0
3, 383531, Note_on_c, 1, 36, 58
3, 383742, Note_on_c, 1, 36, 0
3, 383993, Note_on_c, 1, 36, 59
3, 385456, Note_on_c, 1, 48, 53
3, 385547, Note_on_c, 1, 48, 0
3, 385794, Note_on_c, 1, 36, 0
3, 385936, Note_on_c, 1, 48, 89
3, 387368, Note_on_c, 1, 36, 40
3, 387463, Note_on_c, 1, 36, 0
3, 387718, Note_on_c, 1, 48, 0
3, 387911, Note_on_c, 1, 36, 44
3, 389411, Note_on_c, 1, 48, 68
3, 389517, Note_on_c, 1, 48, 0
3, 389747, Note_on_c, 1, 36, 0
3, 389868, Note_on_c, 1, 48, 84
3, 390508, Note_on_c, 1, 36, 25
3, 390659, Note_on_c, 1, 36, 0
3, 391265, Note_on_c, 1, 48, 0
3, 391300, Note_on_c, 1, 53, 92
3, 393195, Note_on_c, 1, 41, 91
3, 393417, Note_on_c, 1, 53, 0
3, 395126, Note_on_c, 1, 53, 123
3, 395489, Note_on_c, 1, 41, 0
3, 396638, Note_on_c, 1, 41, 103
3, 396648, Note_on_c, 1, 53, 0
3, 398033, Note_on_c, 1, 53, 107
3, 398315, Note_on_c, 1, 41, 0
3, 398972, Note_on_c, 1, 41, 72
3, 399167, Note_on_c, 1, 41, 0
3, 399317, Note_on_c, 1, 53, 0
3, 399460, Note_on_c, 1, 54, 90
3, 400876, Note_on_c, 1, 42, 64
3, 401075, Note_on_c, 1, 42, 0
3, 401348, Note_on_c, 1, 42, 82
3, 401382, Note_on_c, 1, 54, 0
3, 402979, Note_on_c, 1, 39, 22
3, 403225, Note_on_c, 1, 53, 116
3, 403248, Note_on_c, 1, 39, 0
3, 403249, Note_on_c, 1, 42, 0
3, 404652, Note_on_c, 1, 41, 85
3, 404874, Note_on_c, 1, 41, 0
3, 405212, Note_on_c, 1, 41, 82
3, 406570, Note_on_c, 1, 53, 0
3, 406642, Note_on_c, 1, 51, 84
3, 406993, Note_on_c, 1, 51, 0
3, 407184, Note_on_c, 1, 51, 90
3, 407235, Note_on_c, 1, 41, 0
3, 408593, Note_on_c, 1, 39, 70
3, 408791, Note_on_c, 1, 39, 0
3, 409050, Note_on_c, 1, 39, 84
3, 410364, Note_on_c, 1, 51, 0
3, 410463, Note_on_c, 1, 49, 103
3, 410465, Note_on_c, 1, 39, 0
3, 412396, Note_on_c, 1, 39, 77
3, 412593, Note_on_c, 1, 39, 0
3, 412891, Note_on_c, 1, 39, 74
3, 413059, Note_on_c, 1, 39, 0
3, 413335, Note_on_c, 1, 39, 82
3, 413453, Note_on_c, 1, 49, 0
3, 413665, Note_on_c, 1, 39, 0
3, 414011, Note_on_c, 1, 38, 48
3, 414549, Note_on_c, 1, 38, 0
3, 414797, Note_on_c, 1, 36, 95
3, 416262, Note_on_c, 1, 48, 118
3, 416354, Note_on_c, 1, 36, 0
3, 418135, Note_on_c, 1, 41, 101
3, 418151, Note_on_c, 1, 48, 0
3, 419298, Note_on_c, 1, 36, 35
3, 419504, Note_on_c, 1, 36, 0
3, 420180, Note_on_c, 1, 54, 93
3, 420406, Note_on_c, 1, 41, 0
3, 420527, Note_on_c, 1, 54, 0
3, 420635, Note_on_c, 1, 53, 88
3, 421168, Note_on_c, 1, 41, 61
3, 421264, Note_on_c, 1, 41, 0
3, 421895, Note_on_c, 1, 53, 0
3, 421977, Note_on_c, 1, 51, 83
3, 422324, Note_on_c, 1, 51, 0
3, 422437, Note_on_c, 1, 49, 84
3, 423139, Note_on_c, 1, 49, 0
3, 423323, Note_on_c, 1, 48, 67
3, 423807, Note_on_c, 1, 48, 0
3, 423912, Note_on_c, 1, 46, 77
3, 425738, Note_on_c, 1, 41, 40
3, 425789, Note_on_c, 1, 43, 28
3, 425876, Note_on_c, 1, 43, 0
3, 425968, Note_on_c, 1, 46, 0
3, 426009, Note_on_c, 1, 41, 0
3, 426208, Note_on_c, 1, 34, 63
3, 427104, Note_on_c, 1, 34, 0
3, 427229, Note_on_c, 1, 34, 77
3, 428750, Note_on_c, 1, 37, 64
3, 428972, Note_on_c, 1, 34, 0
3, 429073, Note_on_c, 1, 37, 0
3, 429234, Note_on_c, 1, 38, 67
3, 429958, Note_on_c, 1, 38, 0
3, 430177, Note_on_c, 1, 39, 77
3, 431683, Note_on_c, 1, 45, 92
3, 431880, Note_on_c, 1, 39, 0
3, 432663, Note_on_c, 1, 39, 42
3, 432780, Note_on_c, 1, 45, 0
3, 432785, Note_on_c, 1, 39, 0
3, 433071, Note_on_c, 1, 44, 88
3, 435524, Note_on_c, 1, 39, 73
3, 435694, Note_on_c, 1, 39, 0
3, 435986, Note_on_c, 1, 39, 62
3, 436216, Note_on_c, 1, 39, 0
3, 436436, Note_on_c, 1, 36, 66
3, 436673, Note_on_c, 1, 44, 0
3, 436678, Note_on_c, 1, 36, 0
3, 436902, Note_on_c, 1, 37, 62
3, 437094, Note_on_c, 1, 37, 0
3, 437406, Note_on_c, 1, 38, 80
3, 437636, Note_on_c, 1, 38, 0
3, 437760, Note_on_c, 1, 37, 77
3, 438725, Note_on_c, 1, 37, 0
3, 438824, Note_on_c, 1, 49, 114
3, 440606, Note_on_c, 1, 49, 0
3, 440647, Note_on_c, 1, 43, 69
3, 441404, Note_on_c, 1, 43, 0
3, 441586, Note_on_c, 1, 42, 77
3, 444840, Note_on_c, 1, 42, 0
3, 445033, Note_on_c, 1, 37, 54
3, 445291, Note_on_c, 1, 37, 0
3, 445440, Note_on_c, 1, 36, 70
3, 446190, Note_on_c, 1, 36, 0
3, 447022, Note_on_c, 1, 37, 49
3, 447118, Note_on_c, 1, 37, 0
3, 447414, Note_on_c, 1, 42, 65
3, 448328, Note_on_c, 1, 43, 54
3, 448381, Note_on_c, 1, 42, 0
3, 448758, Note_on_c, 1, 43, 0
3, 448895, Note_on_c, 1, 41, 97
3, 450167, Note_on_c, 1, 41, 0
3, 450254, Note_on_c, 1, 40, 60
3, 450557, Note_on_c, 1, 40, 0
3, 450734, Note_on_c, 1, 36, 65
3, 450956, Note_on_c, 1, 36, 0
3, 451222, Note_on_c, 1, 41, 93
3, 451247, Note_on_c, 1, 43, 74
3, 451323, Note_on_c, 1, 43, 0
3, 452871, Note_on_c, 1, 29, 47
3, 452936, Note_on_c, 1, 41, 0
3, 452969, Note_on_c, 1, 29, 0
3, 453016, Note_on_c, 1, 34, 43
3, 453258, Note_on_c, 1, 34, 0
3, 454076, Note_on_c, 1, 34, 87
3, 455628, Note_on_c, 1, 46, 86
3, 456347, Note_on_c, 1, 34, 0
3, 456603, Note_on_c, 1, 41, 96
3, 456737, Note_on_c, 1, 46, 0
3, 457597, Note_on_c, 1, 34, 31
3, 457900, Note_on_c, 1, 41, 0
3, 457931, Note_on_c, 1, 53, 96
3, 457991, Note_on_c, 1, 34, 0
3, 458428, Note_on_c, 1, 53, 0
3, 458486, Note_on_c, 1, 54, 82
3, 458784, Note_on_c, 1, 54, 0
3, 458916, Note_on_c, 1, 53, 92
3, 460804, Note_on_c, 1, 34, 75
3, 460836, Note_on_c, 1, 53, 0
3, 462307, Note_on_c, 1, 46, 43
3, 462542, Note_on_c, 1, 46, 0
3, 462758, Note_on_c, 1, 34, 0
3, 462792, Note_on_c, 1, 46, 75
3, 464179, Note_on_c, 1, 44, 60
3, 464236, Note_on_c, 1, 46, 0
3, 464402, Note_on_c, 1, 44, 0
3, 464695, Note_on_c, 1, 44, 76
3, 466125, Note_on_c, 1, 32, 60
3, 466348, Note_on_c, 1, 44, 0
3, 466365, Note_on_c, 1, 32, 0
3, 466591, Note_on_c, 1, 32, 73
3, 468131, Note_on_c, 1, 43, 80
3, 468309, Note_on_c, 1, 43, 0
3, 468465, Note_on_c, 1, 32, 0
3, 468633, Note_on_c, 1, 43, 90
3, 469999, Note_on_c, 1, 31, 76
3, 470253, Note_on_c, 1, 31, 0
3, 470289, Note_on_c, 1, 43, 0
3, 470455, Note_on_c, 1, 31, 74
3, 471367, Note_on_c, 1, 31, 0
3, 471448, Note_on_c, 1, 43, 90
3, 471765, Note_on_c, 1, 43, 0
3, 471933, Note_on_c, 1, 31, 71
3, 472185, Note_on_c, 1, 31, 0
3, 472377, Note_on_c, 1, 42, 85
3, 472475, Note_on_c, 1, 44, 25
3, 472586, Note_on_c, 1, 44, 0
3, 474741, Note_on_c, 1, 30, 77
3, 474825, Note_on_c, 1, 42, 0
3, 475643, Note_on_c, 1, 30, 0
3, 475778, Note_on_c, 1, 30, 40
3, 475859, Note_on_c, 1, 30, 0
3, 476205, Note_on_c, 1, 29, 82
3, 477194, Note_on_c, 1, 41, 104
3, 477211, Note_on_c, 1, 29, 0
3, 478607, Note_on_c, 1, 36, 71
3, 478814, Note_on_c, 1, 36, 0
3, 478879, Note_on_c, 1, 41, 0
3, 479109, Note_on_c, 1, 35, 64
3, 479203, Note_on_c, 1, 35, 0
3, 479577, Note_on_c, 1, 35, 52
3, 479906, Note_on_c, 1, 35, 0
3, 480047, Note_on_c, 1, 34, 68
3, 481912, Note_on_c, 1, 41, 57
3, 481934, Note_on_c, 1, 34, 0
3, 482111, Note_on_c, 1, 41, 0
3, 482423, Note_on_c, 1, 34, 62
3, 482635, Note_on_c, 1, 34, 0
3, 482817, Note_on_c, 1, 46, 38
3, 483189, Note_on_c, 1, 46, 0
3, 483415, Note_on_c, 1, 47, 51
3, 483633, Note_on_c, 1, 47, 0
3, 483866, Note_on_c, 1, 48, 81
3, 485311, Note_on_c, 1, 42, 74
3, 485414, Note_on_c, 1, 48, 0
3, 486290, Note_on_c, 1, 39, 45
3, 486539, Note_on_c, 1, 39, 0
3, 486633, Note_on_c, 1, 42, 0
3, 486710, Note_on_c, 1, 54, 88
3, 488131, Note_on_c, 1, 54, 0
3, 488135, Note_on_c, 1, 52, 46
3, 488205, Note_on_c, 1, 42, 37
3, 488366, Note_on_c, 1, 52, 0
3, 488380, Note_on_c, 1, 42, 0
3, 488714, Note_on_c, 1, 53, 97
3, 490137, Note_on_c, 1, 48, 55
3, 490233, Note_on_c, 1, 53, 0
3, 491140, Note_on_c, 1, 60, 73
3, 491227, Note_on_c, 1, 48, 0
3, 491507, Note_on_c, 1, 60, 0
3, 491625, Note_on_c, 1, 58, 77
3, 492948, Note_on_c, 1, 58, 0
3, 493000, Note_on_c, 1, 53, 59
3, 493226, Note_on_c, 1, 53, 0
3, 493497, Note_on_c, 1, 53, 56
3, 494114, Note_on_c, 1, 48, 22
3, 494239, Note_on_c, 1, 48, 0
3, 494294, Note_on_c, 1, 53, 0
3, 494431, Note_on_c, 1, 54, 64
3, 495163, Note_on_c, 1, 54, 0
3, 495419, Note_on_c, 1, 55, 80
3, 496305, Note_on_c, 1, 55, 0
3, 496401, Note_on_c, 1, 42, 38
3, 496951, Note_on_c, 1, 42, 0
3, 496982, Note_on_c, 1, 43, 70
3, 498299, Note_on_c, 1, 53, 83
3, 498311, Note_on_c, 1, 43, 0
3, 498532, Note_on_c, 1, 53, 0
3, 498787, Note_on_c, 1, 47, 64
3, 499171, Note_on_c, 1, 47, 0
3, 499288, Note_on_c, 1, 48, 58
3, 500534, Note_on_c, 1, 48, 0
3, 500680, Note_on_c, 1, 43, 59
3, 500889, Note_on_c, 1, 43, 0
3, 501182, Note_on_c, 1, 43, 38
3, 502603, Note_on_c, 1, 43, 0
3, 502665, Note_on_c, 1, 36, 56
3, 502871, Note_on_c, 1, 36, 0
3, 503119, Note_on_c, 1, 36, 59
3, 504496, Note_on_c, 1, 43, 66
3, 504516, Note_on_c, 1, 36, 0
3, 504712, Note_on_c, 1, 43, 0
3, 505019, Note_on_c, 1, 43, 44
3, 505960, Note_on_c, 1, 43, 0
3, 505984, Note_on_c, 1, 54, 72
3, 506356, Note_on_c, 1, 54, 0
3, 506431, Note_on_c, 1, 43, 44
3, 506711, Note_on_c, 1, 43, 0
3, 506930, Note_on_c, 1, 53, 71
3, 508420, Note_on_c, 1, 41, 80
3, 508615, Note_on_c, 1, 53, 0
3, 509836, Note_on_c, 1, 53, 106
3, 509997, Note_on_c, 1, 41, 0
3, 511327, Note_on_c, 1, 41, 93
3, 511509, Note_on_c, 1, 53, 0
3, 512284, Note_on_c, 1, 39, 57
3, 512519, Note_on_c, 1, 41, 0
3, 512618, Note_on_c, 1, 39, 0
3, 512647, Note_on_c, 1, 53, 91
3, 512963, Note_on_c, 1, 53, 0
3, 513129, Note_on_c, 1, 53, 78
3, 513400, Note_on_c, 1, 53, 0
3, 513638, Note_on_c, 1, 41, 67
3, 513849, Note_on_c, 1, 41, 0
3, 514209, Note_on_c, 1, 41, 78
3, 514471, Note_on_c, 1, 41, 0
3, 514677, Note_on_c, 1, 42, 78
3, 516019, Note_on_c, 1, 37, 73
3, 516357, Note_on_c, 1, 42, 0
3, 517447, Note_on_c, 1, 42, 83
3, 517526, Note_on_c, 1, 37, 0
3, 518207, Note_on_c, 1, 42, 0
3, 518428, Note_on_c, 1, 41, 81
3, 519866, Note_on_c, 1, 29, 64
3, 519923, Note_on_c, 1, 41, 0
3, 520178, Note_on_c, 1, 29, 0
3, 520389, Note_on_c, 1, 29, 70
3, 521315, Note_on_c, 1, 41, 97
3, 521337, Note_on_c, 1, 29, 0
3, 521867, Note_on_c, 1, 29, 56
3, 521889, Note_on_c, 1, 41, 0
3, 521987, Note_on_c, 1, 29, 0
3, 522287, Note_on_c, 1, 39, 77
3, 523535, Note_on_c, 1, 39, 0
3, 523790, Note_on_c, 1, 39, 88
3, 524517, Note_on_c, 1, 39, 0
3, 524659, Note_on_c, 1, 39, 78
3, 524860, Note_on_c, 1, 39, 0
3, 525163, Note_on_c, 1, 38, 55
3, 525537, Note_on_c, 1, 38, 0
3, 525700, Note_on_c, 1, 37, 88
3, 527097, Note_on_c, 1, 49, 95
3, 527241, Note_on_c, 1, 37, 0
3, 528614, Note_on_c, 1, 34, 65
3, 528741, Note_on_c, 1, 49, 0
3, 528953, Note_on_c, 1, 34, 0
3, 529075, Note_on_c, 1, 35, 74
3, 529547, Note_on_c, 1, 35, 0
3, 529591, Note_on_c, 1, 36, 97
3, 530498, Note_on_c, 1, 48, 110
3, 531645, Note_on_c, 1, 34, 21
3, 531760, Note_on_c, 1, 48, 0
3, 531818, Note_on_c, 1, 34, 0
3, 531820, Note_on_c, 1, 36, 0
3, 531931, Note_on_c, 1, 48, 79
3, 532439, Note_on_c, 1, 39, 61
3, 532449, Note_on_c, 1, 48, 0
3, 532720, Note_on_c, 1, 39, 0
3, 532903, Note_on_c, 1, 40, 54
3, 533330, Note_on_c, 1, 40, 0
3, 533426, Note_on_c, 1, 41, 82
3, 534739, Note_on_c, 1, 54, 76
3, 534959, Note_on_c, 1, 41, 0
3, 536128, Note_on_c, 1, 54, 0
3, 536239, Note_on_c, 1, 53, 81
3, 537100, Note_on_c, 1, 45, 64
3, 537343, Note_on_c, 1, 53, 0
3, 537357, Note_on_c, 1, 45, 0
3, 537566, Note_on_c, 1, 46, 59
3, 539001, Note_on_c, 1, 53, 74
3, 539111, Note_on_c, 1, 46, 0
3, 539253, Note_on_c, 1, 53, 0
3, 539476, Note_on_c, 1, 53, 70
3, 540861, Note_on_c, 1, 45, 64
3, 541091, Note_on_c, 1, 53, 0
3, 541173, Note_on_c, 1, 45, 0
3, 541387, Note_on_c, 1, 46, 72
3, 542923, Note_on_c, 1, 41, 75
3, 542932, Note_on_c, 1, 46, 0
3, 543146, Note_on_c, 1, 41, 0
3, 543367, Note_on_c, 1, 41, 36
3, 544327, Note_on_c, 1, 41, 0
3, 544432, Note_on_c, 1, 40, 67
3, 545308, Note_on_c, 1, 40, 0
3, 545431, Note_on_c, 1, 39, 64
3, 546820, Note_on_c, 1, 46, 81
3, 546919, Note_on_c, 1, 39, 0
3, 547108, Note_on_c, 1, 46, 0
3, 547317, Note_on_c, 1, 46, 76
3, 547864, Note_on_c, 1, 39, 39
3, 547948, Note_on_c, 1, 46, 0
3, 547989, Note_on_c, 1, 39, 0
3, 548225, Note_on_c, 1, 45, 91
3, 549518, Note_on_c, 1, 45, 0
3, 549691, Note_on_c, 1, 33, 52
3, 549902, Note_on_c, 1, 33, 0
3, 550140, Note_on_c, 1, 44, 82
3, 551553, Note_on_c, 1, 37, 78
3, 551690, Note_on_c, 1, 44, 0
3, 551762, Note_on_c, 1, 37, 0
3, 551997, Note_on_c, 1, 38, 70
3, 552818, Note_on_c, 1, 38, 0
3, 552943, Note_on_c, 1, 37, 75
3, 554426, Note_on_c, 1, 37, 0
3, 554455, Note_on_c, 1, 49, 92
3, 555362, Note_on_c, 1, 42, 71
3, 555388, Note_on_c, 1, 49, 0
3, 555715, Note_on_c, 1, 42, 0
3, 555815, Note_on_c, 1, 43, 63
3, 556399, Note_on_c, 1, 54, 85
3, 556588, Note_on_c, 1, 43, 0
3, 557102, Note_on_c, 1, 54, 0
3, 557359, Note_on_c, 1, 54, 87
3, 558259, Note_on_c, 1, 54, 0
3, 558340, Note_on_c, 1, 49, 88
3, 558633, Note_on_c, 1, 49, 0
3, 558844, Note_on_c, 1, 49, 55
3, 559619, Note_on_c, 1, 49, 0
3, 559727, Note_on_c, 1, 42, 54
3, 560673, Note_on_c, 1, 42, 0
3, 560731, Note_on_c, 1, 48, 98
3, 562243, Note_on_c, 1, 36, 66
3, 562382, Note_on_c, 1, 48, 0
3, 562454, Note_on_c, 1, 36, 0
3, 562691, Note_on_c, 1, 36, 70
3, 563438, Note_on_c, 1, 36, 0
3, 563606, Note_on_c, 1, 42, 59
3, 564417, Note_on_c, 1, 42, 0
3, 564520, Note_on_c, 1, 41, 68
3, 565982, Note_on_c, 1, 29, 52
3, 566196, Note_on_c, 1, 29, 0
3, 566421, Note_on_c, 1, 29, 54
3, 567251, Note_on_c, 1, 29, 0
3, 567407, Note_on_c, 1, 41, 0
3, 567429, Note_on_c, 1, 33, 48
3, 568284, Note_on_c, 1, 33, 0
3, 568394, Note_on_c, 1, 34, 48
3, 571720, Note_on_c, 1, 41, 64
3, 572241, Note_on_c, 1, 41, 0
3, 572253, Note_on_c, 1, 34, 0
3, 572760, Note_on_c, 1, 41, 68
3, 573105, Note_on_c, 1, 41, 0
3, 573686, Note_on_c, 1, 40, 30
3, 573969, Note_on_c, 1, 40, 0
3, 574156, Note_on_c, 1, 41, 54
3, 575843, Note_on_c, 1, 41, 0
3, 576067, Note_on_c, 1, 46, 69
3, 577346, Note_on_c, 1, 46, 0
3, 577468, Note_on_c, 1, 53, 80
3, 578839, Note_on_c, 1, 53, 0
3, 579045, Note_on_c, 1, 53, 74
3, 580929, Note_on_c, 1, 53, 0
3, 580951, Note_on_c, 1, 44, 73
3, 582307, Note_on_c, 1, 44, 0
3, 582376, Note_on_c, 1, 53, 81
3, 582899, Note_on_c, 1, 53, 0
3, 583315, Note_on_c, 1, 53, 63
3, 583639, Note_on_c, 1, 53, 0
3, 583812, Note_on_c, 1, 55, 82
3, 585187, Note_on_c, 1, 43, 66
3, 585501, Note_on_c, 1, 43, 0
3, 585542, Note_on_c, 1, 55, 0
3, 585676, Note_on_c, 1, 43, 62
3, 586665, Note_on_c, 1, 43, 0
3, 587071, Note_on_c, 1, 54, 82
3, 589067, Note_on_c, 1, 42, 73
3, 589310, Note_on_c, 1, 54, 0
3, 589312, Note_on_c, 1, 42, 0
3, 589468, Note_on_c, 1, 42, 56
3, 591052, Note_on_c, 1, 41, 77
3, 591055, Note_on_c, 1, 42, 0
3, 591283, Note_on_c, 1, 41, 0
3, 591501, Note_on_c, 1, 41, 66
3, 592963, Note_on_c, 1, 53, 96
3, 593219, Note_on_c, 1, 53, 0
3, 593404, Note_on_c, 1, 53, 83
3, 593423, Note_on_c, 1, 41, 0
3, 593927, Note_on_c, 1, 44, 73
3, 594100, Note_on_c, 1, 44, 0
3, 594134, Note_on_c, 1, 53, 0
3, 594403, Note_on_c, 1, 45, 32
3, 594455, Note_on_c, 1, 47, 26
3, 594549, Note_on_c, 1, 47, 0
3, 594815, Note_on_c, 1, 45, 0
3, 594926, Note_on_c, 1, 46, 87
3, 596611, Note_on_c, 1, 41, 62
3, 596714, Note_on_c, 1, 46, 0
3, 596822, Note_on_c, 1, 41, 0
3, 597131, Note_on_c, 1, 41, 33
3, 597971, Note_on_c, 1, 41, 0
3, 598000, Note_on_c, 1, 37, 81
3, 598226, Note_on_c, 1, 36, 35
3, 598466, Note_on_c, 1, 36, 0
3, 598631, Note_on_c, 1, 37, 0
3, 599051, Note_on_c, 1, 36, 70
3, 600017, Note_on_c, 1, 36, 0
3, 600057, Note_on_c, 1, 54, 88
3, 601406, Note_on_c, 1, 39, 53
3, 601718, Note_on_c, 1, 39, 0
3, 601761, Note_on_c, 1, 54, 0
3, 601929, Note_on_c, 1, 40, 55
3, 602428, Note_on_c, 1, 40, 0
3, 602462, Note_on_c, 1, 41, 68
3, 603367, Note_on_c, 1, 39, 37
3, 603712, Note_on_c, 1, 41, 0
3, 603801, Note_on_c, 1, 39, 0
3, 603842, Note_on_c, 1, 53, 89
3, 605287, Note_on_c, 1, 41, 62
3, 605383, Note_on_c, 1, 41, 0
3, 605445, Note_on_c, 1, 57, 91
3, 605532, Note_on_c, 1, 53, 0
3, 606722, Note_on_c, 1, 57, 0
3, 606842, Note_on_c, 1, 58, 92
3, 608287, Note_on_c, 1, 53, 74
3, 608594, Note_on_c, 1, 53, 0
3, 608788, Note_on_c, 1, 53, 54
3, 609083, Note_on_c, 1, 53, 0
3, 609275, Note_on_c, 1, 46, 67
3, 609285, Note_on_c, 1, 58, 0
3, 610000, Note_on_c, 1, 46, 0
3, 610197, Note_on_c, 1, 43, 69
3, 612071, Note_on_c, 1, 54, 57
3, 612343, Note_on_c, 1, 54, 0
3, 612535, Note_on_c, 1, 43, 0
3, 612539, Note_on_c, 1, 55, 74
3, 613994, Note_on_c, 1, 47, 57
3, 614059, Note_on_c, 1, 55, 0
3, 614311, Note_on_c, 1, 47, 0
3, 614438, Note_on_c, 1, 48, 57
3, 615911, Note_on_c, 1, 62, 80
3, 616094, Note_on_c, 1, 48, 0
3, 616111, Note_on_c, 1, 62, 0
3, 616449, Note_on_c, 1, 60, 62
3, 617087, Note_on_c, 1, 48, 40
3, 617181, Note_on_c, 1, 48, 0
3, 617815, Note_on_c, 1, 48, 73
3, 618086, Note_on_c, 1, 48, 0
3, 618779, Note_on_c, 1, 48, 69
3, 619010, Note_on_c, 1, 48, 0
3, 619262, Note_on_c, 1, 47, 29
3, 619691, Note_on_c, 1, 47, 0
3, 619783, Note_on_c, 1, 48, 87
3, 621590, Note_on_c, 1, 42, 54
3, 621626, Note_on_c, 1, 60, 0
3, 621712, Note_on_c, 1, 48, 0
3, 621907, Note_on_c, 1, 42, 0
3, 622097, Note_on_c, 1, 41, 62
3, 622641, Note_on_c, 1, 53, 64
3, 622864, Note_on_c, 1, 53, 0
3, 623613, Note_on_c, 1, 53, 74
3, 623983, Note_on_c, 1, 53, 0
3, 624551, Note_on_c, 1, 53, 63
3, 624847, Note_on_c, 1, 53, 0
3, 625046, Note_on_c, 1, 53, 52
3, 625283, Note_on_c, 1, 53, 0
3, 625581, Note_on_c, 1, 53, 79
3, 625778, Note_on_c, 1, 41, 0
3, 626544, Note_on_c, 1, 41, 82
3, 626786, Note_on_c, 1, 53, 0
3, 627175, Note_on_c, 1, 41, 0
3, 627508, Note_on_c, 1, 41, 92
3, 627892, Note_on_c, 1, 41, 0
3, 628358, Note_on_c, 1, 41, 80
3, 628811, Note_on_c, 1, 41, 0
3, 628857, Note_on_c, 1, 53, 97
3, 629054, Note_on_c, 1, 53, 0
3, 629380, Note_on_c, 1, 54, 99
3, 631267, Note_on_c, 1, 46, 34
3, 631353, Note_on_c, 1, 46, 0
3, 632308, Note_on_c, 1, 42, 65
3, 632616, Note_on_c, 1, 42, 0
3, 633285, Note_on_c, 1, 42, 52
3, 633501, Note_on_c, 1, 54, 0
3, 634118, Note_on_c, 1, 53, 82
3, 634233, Note_on_c, 1, 42, 0
3, 636067, Note_on_c, 1, 41, 54
3, 636191, Note_on_c, 1, 41, 0
3, 636532, Note_on_c, 1, 40, 31
3, 636808, Note_on_c, 1, 40, 0
3, 637123, Note_on_c, 1, 40, 58
3, 637442, Note_on_c, 1, 40, 0
3, 637473, Note_on_c, 1, 53, 0
3, 637569, Note_on_c, 1, 39, 54
3, 639014, Note_on_c, 1, 51, 71
3, 639179, Note_on_c, 1, 51, 0
3, 639451, Note_on_c, 1, 39, 0
3, 639477, Note_on_c, 1, 51, 73
3, 640005, Note_on_c, 1, 39, 48
3, 640168, Note_on_c, 1, 51, 0
3, 640192, Note_on_c, 1, 39, 0
3, 640408, Note_on_c, 1, 50, 59
3, 640989, Note_on_c, 1, 39, 28
3, 641085, Note_on_c, 1, 50, 0
3, 641097, Note_on_c, 1, 39, 0
3, 641395, Note_on_c, 1, 49, 73
3, 642609, Note_on_c, 1, 49, 0
3, 642835, Note_on_c, 1, 49, 74
3, 643718, Note_on_c, 1, 43, 55
3, 643804, Note_on_c, 1, 43, 0
3, 644433, Note_on_c, 1, 37, 25
3, 644515, Note_on_c, 1, 37, 0
3, 644776, Note_on_c, 1, 49, 0
3, 644863, Note_on_c, 1, 37, 79
3, 645067, Note_on_c, 1, 37, 0
3, 645295, Note_on_c, 1, 36, 59
3, 646113, Note_on_c, 1, 48, 56
3, 646178, Note_on_c, 1, 36, 0
3, 647639, Note_on_c, 1, 43, 59
3, 647731, Note_on_c, 1, 43, 0
3, 648182, Note_on_c, 1, 39, 38
3, 648268, Note_on_c, 1, 39, 0
3, 648602, Note_on_c, 1, 40, 67
3, 648777, Note_on_c, 1, 48, 0
3, 648823, Note_on_c, 1, 40, 0
3, 649036, Note_on_c, 1, 41, 70
3, 650462, Note_on_c, 1, 53, 106
3, 650637, Note_on_c, 1, 41, 0
3, 651398, Note_on_c, 1, 41, 70
3, 651515, Note_on_c, 1, 41, 0
3, 651873, Note_on_c, 1, 44, 57
3, 652048, Note_on_c, 1, 44, 0
3, 652384, Note_on_c, 1, 45, 58
3, 652622, Note_on_c, 1, 45, 0
3, 652727, Note_on_c, 1, 53, 0
3, 652847, Note_on_c, 1, 46, 61
3, 654323, Note_on_c, 1, 60, 89
3, 654619, Note_on_c, 1, 60, 0
3, 654813, Note_on_c, 1, 58, 68
3, 654957, Note_on_c, 1, 46, 0
3, 656186, Note_on_c, 1, 46, 39
3, 656402, Note_on_c, 1, 46, 0
3, 657187, Note_on_c, 1, 56, 86
3, 657333, Note_on_c, 1, 58, 0
3, 658135, Note_on_c, 1, 46, 31
3, 658257, Note_on_c, 1, 46, 0
3, 658581, Note_on_c, 1, 50, 61
3, 658720, Note_on_c, 1, 56, 0
3, 659241, Note_on_c, 1, 46, 25
3, 659404, Note_on_c, 1, 46, 0
3, 659999, Note_on_c, 1, 51, 80
3, 660095, Note_on_c, 1, 50, 0
3, 661963, Note_on_c, 1, 46, 57
3, 662176, Note_on_c, 1, 46, 0
3, 662225, Note_on_c, 1, 51, 0
3, 662447, Note_on_c, 1, 45, 55
3, 662680, Note_on_c, 1, 45, 0
3, 663007, Note_on_c, 1, 45, 59
3, 663287, Note_on_c, 1, 45, 0
3, 663515, Note_on_c, 1, 44, 65
3, 664924, Note_on_c, 1, 56, 87
3, 665095, Note_on_c, 1, 44, 0
3, 665767, Note_on_c, 1, 44, 56
3, 666095, Note_on_c, 1, 44, 0
3, 666199, Note_on_c, 1, 50, 69
3, 666777, Note_on_c, 1, 56, 0
3, 666919, Note_on_c, 1, 50, 0
3, 667137, Note_on_c, 1, 50, 70
3, 667965, Note_on_c, 1, 50, 0
3, 668133, Note_on_c, 1, 49, 83
3, 669635, Note_on_c, 1, 44, 62
3, 669866, Note_on_c, 1, 44, 0
3, 669885, Note_on_c, 1, 49, 0
3, 670096, Note_on_c, 1, 43, 52
3, 670291, Note_on_c, 1, 43, 0
3, 670627, Note_on_c, 1, 43, 43
3, 670795, Note_on_c, 1, 43, 0
3, 671068, Note_on_c, 1, 42, 85
3, 673581, Note_on_c, 1, 54, 86
3, 673855, Note_on_c, 1, 42, 0
3, 674428, Note_on_c, 1, 42, 50
3, 674534, Note_on_c, 1, 54, 0
3, 674805, Note_on_c, 1, 42, 0
3, 674819, Note_on_c, 1, 49, 76
3, 675335, Note_on_c, 1, 49, 0
3, 675381, Note_on_c, 1, 42, 38
3, 675549, Note_on_c, 1, 42, 0
3, 675856, Note_on_c, 1, 48, 82
3, 677321, Note_on_c, 1, 43, 41
3, 677414, Note_on_c, 1, 43, 0
3, 677745, Note_on_c, 1, 36, 55
3, 678592, Note_on_c, 1, 36, 0
3, 678746, Note_on_c, 1, 39, 40
3, 678977, Note_on_c, 1, 39, 0
3, 679199, Note_on_c, 1, 48, 0
3, 679235, Note_on_c, 1, 40, 64
3, 679523, Note_on_c, 1, 40, 0
3, 679698, Note_on_c, 1, 41, 59
3, 680680, Note_on_c, 1, 53, 79
3, 681103, Note_on_c, 1, 53, 0
3, 681155, Note_on_c, 1, 52, 59
3, 681362, Note_on_c, 1, 52, 0
3, 681595, Note_on_c, 1, 53, 52
3, 681988, Note_on_c, 1, 53, 0
3, 682034, Note_on_c, 1, 41, 0
3, 682103, Note_on_c, 1, 54, 70
3, 682415, Note_on_c, 1, 54, 0
3, 682569, Note_on_c, 1, 53, 72
3, 683839, Note_on_c, 1, 53, 0
3, 684059, Note_on_c, 1, 46, 57
3, 685449, Note_on_c, 1, 53, 83
3, 685545, Note_on_c, 1, 46, 0
3, 686018, Note_on_c, 1, 54, 35
3, 686030, Note_on_c, 1, 53, 0
3, 686320, Note_on_c, 1, 54, 0
3, 686433, Note_on_c, 1, 53, 57
3, 686971, Note_on_c, 1, 53, 0
3, 687007, Note_on_c, 1, 41, 78
3, 687657, Note_on_c, 1, 41, 0
3, 687919, Note_on_c, 1, 41, 66
3, 688881, Note_on_c, 1, 53, 88
3, 689140, Note_on_c, 1, 53, 0
3, 689327, Note_on_c, 1, 41, 0
3, 689356, Note_on_c, 1, 53, 52
3, 690830, Note_on_c, 1, 41, 37
3, 691001, Note_on_c, 1, 41, 0
3, 691003, Note_on_c, 1, 53, 0
3, 691265, Note_on_c, 1, 34, 48
3, 693712, Note_on_c, 1, 41, 69
3, 693803, Note_on_c, 1, 41, 0
3, 694694, Note_on_c, 1, 41, 81
3, 694761, Note_on_c, 1, 34, 0
3, 694975, Note_on_c, 1, 41, 0
3, 695637, Note_on_c, 1, 41, 74
3, 695865, Note_on_c, 1, 41, 0
3, 696542, Note_on_c, 1, 40, 39
3, 696691, Note_on_c, 1, 40, 0
3, 696914, Note_on_c, 1, 41, 71
3, 697427, Note_on_c, 1, 41, 0
3, 697636, Note_on_c, 1, 41, 23
3, 697967, Note_on_c, 1, 53, 75
3, 698207, Note_on_c, 1, 41, 0
3, 698858, Note_on_c, 1, 53, 0
3, 698985, Note_on_c, 1, 46, 38
3, 701395, Note_on_c, 1, 41, 49
3, 701755, Note_on_c, 1, 46, 0
3, 702395, Note_on_c, 1, 53, 66
3, 702611, Note_on_c, 1, 53, 0
3, 703288, Note_on_c, 1, 53, 64
3, 703840, Note_on_c, 1, 41, 0
3, 703883, Note_on_c, 1, 53, 0
3, 704231, Note_on_c, 1, 52, 39
3, 704498, Note_on_c, 1, 52, 0
3, 704692, Note_on_c, 1, 53, 40
3, 706555, Note_on_c, 1, 53, 0
3, 706622, Note_on_c, 1, 46, 30
3, 709092, Note_on_c, 1, 46, 0
3, 709130, Note_on_c, 1, 53, 55
3, 709874, Note_on_c, 1, 53, 0
3, 709984, Note_on_c, 1, 52, 37
3, 710291, Note_on_c, 1, 52, 0
3, 710481, Note_on_c, 1, 53, 53
3, 711979, Note_on_c, 1, 34, 54
3, 712079, Note_on_c, 1, 34, 0
3, 712888, Note_on_c, 1, 34, 58
3, 712987, Note_on_c, 1, 34, 0
3, 713827, Note_on_c, 1, 33, 37
3, 714233, Note_on_c, 1, 33, 0
3, 714335, Note_on_c, 1, 34, 51
3, 715411, Note_on_c, 1, 53, 0
3, 720890, Note_on_c, 1, 34, 0
3, 720890, End_track
4, 0, Start_track
4, 0, Program_c, 9, 32
4, 105595, Note_on_c, 9, 59, 59
4, 105849, Note_on_c, 9, 59, 0
4, 107126, Note_on_c, 9, 59, 43
4, 107313, Note_on_c, 9, 59, 0
4, 107606, Note_on_c, 9, 59, 30
4, 107879, Note_on_c, 9, 59, 0
4, 109377, Note_on_c, 9, 59, 40
4, 109646, Note_on_c, 9, 59, 0
4, 110829, Note_on_c, 9, 59, 41
4, 110951, Note_on_c, 9, 59, 0
4, 111285, Note_on_c, 9, 59, 32
4, 111554, Note_on_c, 9, 59, 0
4, 112295, Note_on_c, 9, 53, 61
4, 112538, Note_on_c, 9, 53, 0
4, 113805, Note_on_c, 9, 53, 62
4, 114050, Note_on_c, 9, 53, 0
4, 114801, Note_on_c, 9, 59, 74
4, 114957, Note_on_c, 9, 59, 0
4, 115322, Note_on_c, 9, 59, 75
4, 116248, Note_on_c, 9, 64, 45
4, 116268, Note_on_c, 9, 59, 0
4, 116364, Note_on_c, 9, 75, 74
4, 116554, Note_on_c, 9, 75, 0
4, 116573, Note_on_c, 9, 64, 0
4, 116747, Note_on_c, 9, 59, 56
4, 116830, Note_on_c, 9, 64, 62
4, 116835, Note_on_c, 9, 59, 0
4, 117244, Note_on_c, 9, 59, 54
4, 117285, Note_on_c, 9, 64, 0
4, 117507, Note_on_c, 9, 59, 0
4, 117785, Note_on_c, 9, 75, 66
4, 118000, Note_on_c, 9, 75, 0
4, 118179, Note_on_c, 9, 59, 69
4, 118215, Note_on_c, 9, 63, 30
4, 118258, Note_on_c, 9, 62, 40
4, 118504, Note_on_c, 9, 62, 0
4, 118535, Note_on_c, 9, 63, 0
4, 118708, Note_on_c, 9, 63, 39
4, 118755, Note_on_c, 9, 62, 53
4, 118846, Note_on_c, 9, 62, 0
4, 118950, Note_on_c, 9, 63, 0
4, 119165, Note_on_c, 9, 75, 68
4, 119357, Note_on_c, 9, 75, 0
4, 119388, Note_on_c, 9, 59, 0
4, 120056, Note_on_c, 9, 64, 35
4, 120404, Note_on_c, 9, 64, 0
4, 120492, Note_on_c, 9, 59, 73
4, 120583, Note_on_c, 9, 75, 63
4, 120611, Note_on_c, 9, 59, 0
4, 120634, Note_on_c, 9, 64, 64
4, 120908, Note_on_c, 9, 75, 0
4, 121030, Note_on_c, 9, 59, 39
4, 121315, Note_on_c, 9, 59, 0
4, 121528, Note_on_c, 9, 64, 0
4, 121942, Note_on_c, 9, 63, 48
4, 121956, Note_on_c, 9, 62, 39
4, 121987, Note_on_c, 9, 59, 33
4, 121991, Note_on_c, 9, 75, 72
4, 122099, Note_on_c, 9, 62, 0
4, 122237, Note_on_c, 9, 59, 0
4, 122268, Note_on_c, 9, 75, 0
4, 122290, Note_on_c, 9, 63, 0
4, 122439, Note_on_c, 9, 53, 65
4, 122607, Note_on_c, 9, 53, 0
4, 122965, Note_on_c, 9, 59, 33
4, 123440, Note_on_c, 9, 59, 0
4, 123849, Note_on_c, 9, 64, 43
4, 123904, Note_on_c, 9, 59, 48
4, 123965, Note_on_c, 9, 75, 68
4, 123988, Note_on_c, 9, 64, 0
4, 124157, Note_on_c, 9, 75, 0
4, 124268, Note_on_c, 9, 59, 0
4, 124402, Note_on_c, 9, 64, 93
4, 125138, Note_on_c, 9, 64, 0
4, 125271, Note_on_c, 9, 61, 26
4, 125355, Note_on_c, 9, 75, 65
4, 125400, Note_on_c, 9, 59, 67
4, 125488, Note_on_c, 9, 59, 0
4, 125490, Note_on_c, 9, 61, 0
4, 125621, Note_on_c, 9, 75, 0
4, 125741, Note_on_c, 9, 63, 40
4, 125759, Note_on_c, 9, 62, 37
4, 125849, Note_on_c, 9, 62, 0
4, 126100, Note_on_c, 9, 63, 0
4, 126275, Note_on_c, 9, 63, 80
4, 126279, Note_on_c, 9, 62, 88
4, 126319, Note_on_c, 9, 59, 55
4, 126511, Note_on_c, 9, 59, 0
4, 126649, Note_on_c, 9, 63, 0
4, 126682, Note_on_c, 9, 62, 0
4, 126761, Note_on_c, 9, 59, 47
4, 126796, Note_on_c, 9, 75, 70
4, 127006, Note_on_c, 9, 75, 0
4, 127668, Note_on_c, 9, 63, 44
4, 127713, Note_on_c, 9, 64, 62
4, 127802, Note_on_c, 9, 59, 0
4, 127952, Note_on_c, 9, 63, 0
4, 127984, Note_on_c, 9, 64, 0
4, 128238, Note_on_c, 9, 75, 64
4, 128241, Note_on_c, 9, 59, 22
4, 128252, Note_on_c, 9, 63, 53
4, 128265, Note_on_c, 9, 64, 75
4, 128393, Note_on_c, 9, 59, 0
4, 128499, Note_on_c, 9, 75, 0
4, 128539, Note_on_c, 9, 63, 0
4, 128550, Note_on_c, 9, 64, 0
4, 128612, Note_on_c, 9, 59, 41
4, 129617, Note_on_c, 9, 64, 46
4, 129666, Note_on_c, 9, 75, 72
4, 129673, Note_on_c, 9, 62, 27
4, 129876, Note_on_c, 9, 62, 0
4, 129876, Note_on_c, 9, 75, 0
4, 129909, Note_on_c, 9, 59, 0
4, 129964, Note_on_c, 9, 64, 0
4, 130109, Note_on_c, 9, 59, 54
4, 130138, Note_on_c, 9, 62, 48
4, 130165, Note_on_c, 9, 64, 77
4, 130286, Note_on_c, 9, 62, 0
4, 130306, Note_on_c, 9, 59, 0
4, 130403, Note_on_c, 9, 64, 0
4, 130548, Note_on_c, 9, 59, 28
4, 130763, Note_on_c, 9, 59, 0
4, 131059, Note_on_c, 9, 53, 44
4, 131155, Note_on_c, 9, 53, 0
4, 131514, Note_on_c, 9, 64, 32
4, 131580, Note_on_c, 9, 59, 31
4, 131627, Note_on_c, 9, 75, 69
4, 131801, Note_on_c, 9, 64, 0
4, 131847, Note_on_c, 9, 75, 0
4, 131995, Note_on_c, 9, 59, 0
4, 132081, Note_on_c, 9, 64, 69
4, 132521, Note_on_c, 9, 59, 55
4, 132983, Note_on_c, 9, 64, 0
4, 133025, Note_on_c, 9, 75, 64
4, 133027, Note_on_c, 9, 62, 30
4, 133029, Note_on_c, 9, 59, 0
4, 133108, Note_on_c, 9, 62, 0
4, 133314, Note_on_c, 9, 75, 0
4, 133478, Note_on_c, 9, 63, 33
4, 133482, Note_on_c, 9, 59, 59
4, 133695, Note_on_c, 9, 59, 0
4, 133709, Note_on_c, 9, 63, 0
4, 133980, Note_on_c, 9, 63, 101
4, 134471, Note_on_c, 9, 75, 72
4, 134536, Note_on_c, 9, 63, 0
4, 134730, Note_on_c, 9, 75, 0
4, 134958, Note_on_c, 9, 59, 64
4, 135020, Note_on_c, 9, 62, 28
4, 135054, Note_on_c, 9, 59, 0
4, 135127, Note_on_c, 9, 62, 0
4, 135407, Note_on_c, 9, 64, 43
4, 135716, Note_on_c, 9, 64, 0
4, 135917, Note_on_c, 9, 59, 101
4, 135969, Note_on_c, 9, 75, 68
4, 135978, Note_on_c, 9, 64, 91
4, 136258, Note_on_c, 9, 75, 0
4, 136645, Note_on_c, 9, 59, 0
4, 136878, Note_on_c, 9, 59, 57
4, 136935, Note_on_c, 9, 64, 0
4, 136992, Note_on_c, 9, 59, 0
4, 137387, Note_on_c, 9, 63, 67
4, 137472, Note_on_c, 9, 75, 73
4, 137640, Note_on_c, 9, 63, 0
4, 137717, Note_on_c, 9, 75, 0
4, 137890, Note_on_c, 9, 59, 69
4, 137900, Note_on_c, 9, 63, 110
4, 137967, Note_on_c, 9, 59, 0
4, 138348, Note_on_c, 9, 63, 0
4, 138365, Note_on_c, 9, 59, 101
4, 138937, Note_on_c, 9, 62, 22
4, 138979, Note_on_c, 9, 59, 0
4, 139013, Note_on_c, 9, 62, 0
4, 139311, Note_on_c, 9, 64, 71
4, 139387, Note_on_c, 9, 75, 69
4, 139447, Note_on_c, 9, 59, 43
4, 139555, Note_on_c, 9, 59, 0
4, 139603, Note_on_c, 9, 64, 0
4, 139625, Note_on_c, 9, 75, 0
4, 139860, Note_on_c, 9, 64, 123
4, 139909, Note_on_c, 9, 53, 71
4, 139931, Note_on_c, 9, 51, 38
4, 140123, Note_on_c, 9, 51, 0
4, 140151, Note_on_c, 9, 53, 0
4, 140796, Note_on_c, 9, 64, 0
4, 140856, Note_on_c, 9, 59, 60
4, 140889, Note_on_c, 9, 75, 65
4, 140939, Note_on_c, 9, 59, 0
4, 141127, Note_on_c, 9, 75, 0
4, 141264, Note_on_c, 9, 63, 83
4, 141315, Note_on_c, 9, 62, 58
4, 141447, Note_on_c, 9, 53, 66
4, 141450, Note_on_c, 9, 59, 80
4, 141477, Note_on_c, 9, 51, 32
4, 141520, Note_on_c, 9, 62, 0
4, 141695, Note_on_c, 9, 63, 0
4, 141698, Note_on_c, 9, 51, 0
4, 141725, Note_on_c, 9, 53, 0
4, 141856, Note_on_c, 9, 63, 73
4, 141887, Note_on_c, 9, 59, 0
4, 142249, Note_on_c, 9, 75, 68
4, 142310, Note_on_c, 9, 59, 43
4, 142364, Note_on_c, 9, 63, 0
4, 142397, Note_on_c, 9, 59, 0
4, 142479, Note_on_c, 9, 75, 0
4, 142770, Note_on_c, 9, 64, 78
4, 142839, Note_on_c, 9, 59, 84
4, 142960, Note_on_c, 9, 64, 0
4, 143067, Note_on_c, 9, 59, 0
4, 143631, Note_on_c, 9, 59, 66
4, 143665, Note_on_c, 9, 64, 76
4, 143710, Note_on_c, 9, 75, 63
4, 143788, Note_on_c, 9, 59, 0
4, 143979, Note_on_c, 9, 75, 0
4, 144124, Note_on_c, 9, 59, 75
4, 144127, Note_on_c, 9, 53, 73
4, 144147, Note_on_c, 9, 51, 45
4, 144484, Note_on_c, 9, 64, 0
4, 144543, Note_on_c, 9, 59, 0
4, 144671, Note_on_c, 9, 53, 0
4, 144684, Note_on_c, 9, 51, 0
4, 144979, Note_on_c, 9, 63, 36
4, 145080, Note_on_c, 9, 75, 70
4, 145150, Note_on_c, 9, 59, 37
4, 145282, Note_on_c, 9, 75, 0
4, 145293, Note_on_c, 9, 59, 0
4, 145328, Note_on_c, 9, 63, 0
4, 145556, Note_on_c, 9, 53, 90
4, 145572, Note_on_c, 9, 51, 65
4, 145708, Note_on_c, 9, 51, 0
4, 145726, Note_on_c, 9, 53, 0
4, 146043, Note_on_c, 9, 59, 84
4, 146055, Note_on_c, 9, 75, 74
4, 146278, Note_on_c, 9, 75, 0
4, 146689, Note_on_c, 9, 59, 0
4, 146977, Note_on_c, 9, 64, 36
4, 147061, Note_on_c, 9, 59, 72
4, 147133, Note_on_c, 9, 64, 0
4, 147316, Note_on_c, 9, 59, 0
4, 147541, Note_on_c, 9, 64, 69
4, 147553, Note_on_c, 9, 75, 62
4, 147556, Note_on_c, 9, 59, 48
4, 147641, Note_on_c, 9, 59, 0
4, 147827, Note_on_c, 9, 75, 0
4, 148022, Note_on_c, 9, 64, 0
4, 148448, Note_on_c, 9, 62, 63
4, 148450, Note_on_c, 9, 63, 78
4, 148450, Note_on_c, 9, 59, 72
4, 148528, Note_on_c, 9, 59, 0
4, 148529, Note_on_c, 9, 62, 0
4, 148771, Note_on_c, 9, 63, 0
4, 148869, Note_on_c, 9, 75, 72
4, 149084, Note_on_c, 9, 75, 0
4, 149137, Note_on_c, 9, 63, 76
4, 149301, Note_on_c, 9, 59, 60
4, 149395, Note_on_c, 9, 59, 0
4, 149458, Note_on_c, 9, 63, 0
4, 149490, Note_on_c, 9, 62, 66
4, 149566, Note_on_c, 9, 62, 0
4, 149778, Note_on_c, 9, 59, 75
4, 149842, Note_on_c, 9, 63, 85
4, 150235, Note_on_c, 9, 59, 0
4, 150240, Note_on_c, 9, 63, 0
4, 150570, Note_on_c, 9, 63, 71
4, 150776, Note_on_c, 9, 75, 69
4, 150807, Note_on_c, 9, 63, 0
4, 150996, Note_on_c, 9, 75, 0
4, 151178, Note_on_c, 9, 63, 75
4, 151210, Note_on_c, 9, 62, 67
4, 151213, Note_on_c, 9, 59, 60
4, 151292, Note_on_c, 9, 59, 0
4, 151477, Note_on_c, 9, 62, 0
4, 151481, Note_on_c, 9, 63, 0
4, 151680, Note_on_c, 9, 59, 60
4, 151882, Note_on_c, 9, 63, 77
4, 152083, Note_on_c, 9, 59, 0
4, 152218, Note_on_c, 9, 63, 0
4, 152243, Note_on_c, 9, 75, 68
4, 152558, Note_on_c, 9, 75, 0
4, 152592, Note_on_c, 9, 63, 72
4, 152612, Note_on_c, 9, 62, 59
4, 152698, Note_on_c, 9, 62, 0
4, 153111, Note_on_c, 9, 59, 63
4, 153152, Note_on_c, 9, 63, 0
4, 153190, Note_on_c, 9, 59, 0
4, 153577, Note_on_c, 9, 59, 48
4, 153653, Note_on_c, 9, 75, 73
4, 153855, Note_on_c, 9, 59, 0
4, 153909, Note_on_c, 9, 75, 0
4, 154103, Note_on_c, 9, 59, 52
4, 154193, Note_on_c, 9, 59, 0
4, 154588, Note_on_c, 9, 64, 56
4, 154653, Note_on_c, 9, 59, 30
4, 154740, Note_on_c, 9, 59, 0
4, 154776, Note_on_c, 9, 64, 0
4, 155070, Note_on_c, 9, 64, 98
4, 155078, Note_on_c, 9, 53, 67
4, 155081, Note_on_c, 9, 75, 68
4, 155116, Note_on_c, 9, 51, 42
4, 155168, Note_on_c, 9, 53, 0
4, 155192, Note_on_c, 9, 51, 0
4, 155401, Note_on_c, 9, 75, 0
4, 155426, Note_on_c, 9, 64, 0
4, 155528, Note_on_c, 9, 59, 41
4, 155790, Note_on_c, 9, 59, 0
4, 156032, Note_on_c, 9, 59, 53
4, 156165, Note_on_c, 9, 59, 0
4, 156492, Note_on_c, 9, 63, 75
4, 156495, Note_on_c, 9, 75, 73
4, 156509, Note_on_c, 9, 59, 40
4, 156541, Note_on_c, 9, 62, 37
4, 156717, Note_on_c, 9, 59, 0
4, 156751, Note_on_c, 9, 75, 0
4, 156836, Note_on_c, 9, 62, 0
4, 156866, Note_on_c, 9, 63, 0
4, 156984, Note_on_c, 9, 59, 84
4, 157019, Note_on_c, 9, 63, 67
4, 157236, Note_on_c, 9, 63, 0
4, 157652, Note_on_c, 9, 59, 0
4, 157981, Note_on_c, 9, 59, 84
4, 158036, Note_on_c, 9, 75, 68
4, 158207, Note_on_c, 9, 59, 0
4, 158269, Note_on_c, 9, 75, 0
4, 158407, Note_on_c, 9, 64, 64
4, 158759, Note_on_c, 9, 64, 0
4, 158951, Note_on_c, 9, 53, 59
4, 158952, Note_on_c, 9, 64, 93
4, 159047, Note_on_c, 9, 53, 0
4, 159424, Note_on_c, 9, 59, 33
4, 159569, Note_on_c, 9, 59, 0
4, 159841, Note_on_c, 9, 75, 70
4, 159863, Note_on_c, 9, 64, 0
4, 159919, Note_on_c, 9, 62, 42
4, 159928, Note_on_c, 9, 59, 42
4, 160009, Note_on_c, 9, 62, 0
4, 160022, Note_on_c, 9, 59, 0
4, 160161, Note_on_c, 9, 75, 0
4, 160332, Note_on_c, 9, 63, 73
4, 160338, Note_on_c, 9, 59, 62
4, 160361, Note_on_c, 9, 62, 28
4, 160634, Note_on_c, 9, 62, 0
4, 160649, Note_on_c, 9, 59, 0
4, 160726, Note_on_c, 9, 63, 0
4, 160824, Note_on_c, 9, 59, 37
4, 160871, Note_on_c, 9, 63, 77
4, 160911, Note_on_c, 9, 59, 0
4, 161160, Note_on_c, 9, 63, 0
4, 161315, Note_on_c, 9, 75, 74
4, 161346, Note_on_c, 9, 59, 95
4, 161551, Note_on_c, 9, 75, 0
4, 161805, Note_on_c, 9, 59, 0
4, 162286, Note_on_c, 9, 59, 45
4, 162296, Note_on_c, 9, 64, 44
4, 162367, Note_on_c, 9, 59, 0
4, 162549, Note_on_c, 9, 64, 0
4, 162767, Note_on_c, 9, 59, 109
4, 162772, Note_on_c, 9, 75, 68
4, 162775, Note_on_c, 9, 64, 92
4, 163069, Note_on_c, 9, 75, 0
4, 163301, Note_on_c, 9, 59, 0
4, 163727, Note_on_c, 9, 59, 56
4, 163802, Note_on_c, 9, 59, 0
4, 163918, Note_on_c, 9, 64, 0
4, 164200, Note_on_c, 9, 63, 56
4, 164211, Note_on_c, 9, 75, 70
4, 164237, Note_on_c, 9, 59, 114
4, 164446, Note_on_c, 9, 63, 0
4, 164448, Note_on_c, 9, 75, 0
4, 164709, Note_on_c, 9, 63, 98
4, 164829, Note_on_c, 9, 59, 0
4, 165089, Note_on_c, 9, 63, 0
4, 165187, Note_on_c, 9, 59, 29
4, 165274, Note_on_c, 9, 59, 0
4, 165700, Note_on_c, 9, 59, 106
4, 165718, Note_on_c, 9, 51, 85
4, 165719, Note_on_c, 9, 75, 65
4, 165975, Note_on_c, 9, 75, 0
4, 166117, Note_on_c, 9, 64, 46
4, 166171, Note_on_c, 9, 51, 0
4, 166229, Note_on_c, 9, 59, 0
4, 166247, Note_on_c, 9, 64, 0
4, 166660, Note_on_c, 9, 64, 124
4, 166663, Note_on_c, 9, 59, 78
4, 166805, Note_on_c, 9, 59, 0
4, 167155, Note_on_c, 9, 75, 78
4, 167212, Note_on_c, 9, 59, 103
4, 167226, Note_on_c, 9, 51, 85
4, 167439, Note_on_c, 9, 75, 0
4, 167556, Note_on_c, 9, 64, 0
4, 167665, Note_on_c, 9, 59, 0
4, 167716, Note_on_c, 9, 51, 0
4, 168057, Note_on_c, 9, 63, 40
4, 168122, Note_on_c, 9, 59, 49
4, 168200, Note_on_c, 9, 59, 0
4, 168249, Note_on_c, 9, 63, 0
4, 168565, Note_on_c, 9, 75, 69
4, 168604, Note_on_c, 9, 63, 110
4, 168637, Note_on_c, 9, 51, 92
4, 168639, Note_on_c, 9, 59, 106
4, 168826, Note_on_c, 9, 75, 0
4, 168885, Note_on_c, 9, 51, 0
4, 169428, Note_on_c, 9, 59, 0
4, 169486, Note_on_c, 9, 63, 0
4, 169604, Note_on_c, 9, 59, 65
4, 169717, Note_on_c, 9, 59, 0
4, 170019, Note_on_c, 9, 64, 104
4, 170044, Note_on_c, 9, 59, 87
4, 170058, Note_on_c, 9, 75, 76
4, 170316, Note_on_c, 9, 75, 0
4, 170509, Note_on_c, 9, 59, 0
4, 170512, Note_on_c, 9, 64, 0
4, 170993, Note_on_c, 9, 59, 74
4, 171345, Note_on_c, 9, 59, 0
4, 171474, Note_on_c, 9, 75, 65
4, 171735, Note_on_c, 9, 75, 0
4, 171890, Note_on_c, 9, 63, 93
4, 171901, Note_on_c, 9, 59, 104
4, 172171, Note_on_c, 9, 63, 0
4, 172382, Note_on_c, 9, 59, 0
4, 172412, Note_on_c, 9, 63, 103
4, 172848, Note_on_c, 9, 75, 72
4, 172856, Note_on_c, 9, 59, 48
4, 172878, Note_on_c, 9, 63, 0
4, 172951, Note_on_c, 9, 59, 0
4, 173089, Note_on_c, 9, 75, 0
4, 173357, Note_on_c, 9, 59, 93
4, 173619, Note_on_c, 9, 59, 0
4, 173877, Note_on_c, 9, 64, 95
4, 173887, Note_on_c, 9, 59, 75
4, 174029, Note_on_c, 9, 59, 0
4, 174081, Note_on_c, 9, 64, 0
4, 174310, Note_on_c, 9, 75, 64
4, 174351, Note_on_c, 9, 59, 75
4, 174353, Note_on_c, 9, 64, 118
4, 174447, Note_on_c, 9, 59, 0
4, 174476, Note_on_c, 9, 75, 0
4, 174761, Note_on_c, 9, 75, 66
4, 174779, Note_on_c, 9, 59, 101
4, 175086, Note_on_c, 9, 75, 0
4, 175160, Note_on_c, 9, 64, 0
4, 175478, Note_on_c, 9, 59, 0
4, 175687, Note_on_c, 9, 63, 88
4, 175747, Note_on_c, 9, 59, 34
4, 175892, Note_on_c, 9, 59, 0
4, 176029, Note_on_c, 9, 63, 0
4, 176192, Note_on_c, 9, 75, 64
4, 176193, Note_on_c, 9, 63, 93
4, 176233, Note_on_c, 9, 51, 43
4, 176401, Note_on_c, 9, 51, 0
4, 176512, Note_on_c, 9, 75, 0
4, 176513, Note_on_c, 9, 63, 0
4, 176638, Note_on_c, 9, 59, 77
4, 177318, Note_on_c, 9, 59, 0
4, 177595, Note_on_c, 9, 64, 91
4, 177595, Note_on_c, 9, 59, 47
4, 177648, Note_on_c, 9, 75, 70
4, 177790, Note_on_c, 9, 64, 0
4, 177938, Note_on_c, 9, 75, 0
4, 177957, Note_on_c, 9, 59, 0
4, 178186, Note_on_c, 9, 59, 72
4, 178211, Note_on_c, 9, 64, 89
4, 178293, Note_on_c, 9, 59, 0
4, 178650, Note_on_c, 9, 59, 72
4, 179087, Note_on_c, 9, 61, 43
4, 179143, Note_on_c, 9, 75, 66
4, 179181, Note_on_c, 9, 64, 0
4, 179266, Note_on_c, 9, 59, 0
4, 179345, Note_on_c, 9, 61, 0
4, 179440, Note_on_c, 9, 75, 0
4, 179517, Note_on_c, 9, 63, 64
4, 179539, Note_on_c, 9, 62, 59
4, 179633, Note_on_c, 9, 59, 22
4, 179758, Note_on_c, 9, 59, 0
4, 179844, Note_on_c, 9, 62, 0
4, 179887, Note_on_c, 9, 63, 0
4, 180059, Note_on_c, 9, 59, 74
4, 180082, Note_on_c, 9, 63, 85
4, 180093, Note_on_c, 9, 62, 73
4, 180215, Note_on_c, 9, 59, 0
4, 180326, Note_on_c, 9, 62, 0
4, 180480, Note_on_c, 9, 75, 67
4, 180530, Note_on_c, 9, 63, 0
4, 180542, Note_on_c, 9, 59, 83
4, 180741, Note_on_c, 9, 75, 0
4, 181069, Note_on_c, 9, 59, 0
4, 181437, Note_on_c, 9, 64, 91
4, 181490, Note_on_c, 9, 59, 37
4, 181629, Note_on_c, 9, 59, 0
4, 181784, Note_on_c, 9, 64, 0
4, 181967, Note_on_c, 9, 75, 68
4, 181998, Note_on_c, 9, 59, 95
4, 182013, Note_on_c, 9, 64, 101
4, 182236, Note_on_c, 9, 59, 0
4, 182328, Note_on_c, 9, 75, 0
4, 182857, Note_on_c, 9, 64, 0
4, 182910, Note_on_c, 9, 51, 68
4, 183114, Note_on_c, 9, 51, 0
4, 183350, Note_on_c, 9, 63, 73
4, 183383, Note_on_c, 9, 75, 74
4, 183398, Note_on_c, 9, 62, 22
4, 183466, Note_on_c, 9, 59, 28
4, 183475, Note_on_c, 9, 62, 0
4, 183570, Note_on_c, 9, 59, 0
4, 183589, Note_on_c, 9, 63, 0
4, 183756, Note_on_c, 9, 75, 0
4, 183885, Note_on_c, 9, 59, 66
4, 183965, Note_on_c, 9, 59, 0
4, 184375, Note_on_c, 9, 59, 98
4, 184931, Note_on_c, 9, 59, 0
4, 185323, Note_on_c, 9, 64, 61
4, 185332, Note_on_c, 9, 59, 47
4, 185351, Note_on_c, 9, 75, 76
4, 185411, Note_on_c, 9, 59, 0
4, 185433, Note_on_c, 9, 64, 0
4, 185581, Note_on_c, 9, 75, 0
4, 185810, Note_on_c, 9, 59, 106
4, 185829, Note_on_c, 9, 64, 103
4, 186575, Note_on_c, 9, 59, 0
4, 186605, Note_on_c, 9, 64, 0
4, 186790, Note_on_c, 9, 75, 69
4, 186810, Note_on_c, 9, 59, 30
4, 186904, Note_on_c, 9, 59, 0
4, 187072, Note_on_c, 9, 75, 0
4, 187109, Note_on_c, 9, 62, 46
4, 187196, Note_on_c, 9, 63, 67
4, 187212, Note_on_c, 9, 62, 0
4, 187250, Note_on_c, 9, 59, 110
4, 187422, Note_on_c, 9, 63, 0
4, 187804, Note_on_c, 9, 63, 61
4, 187845, Note_on_c, 9, 59, 0
4, 187872, Note_on_c, 9, 62, 60
4, 188072, Note_on_c, 9, 62, 0
4, 188190, Note_on_c, 9, 75, 76
4, 188192, Note_on_c, 9, 59, 49
4, 188253, Note_on_c, 9, 63, 0
4, 188273, Note_on_c, 9, 59, 0
4, 188423, Note_on_c, 9, 75, 0
4, 188624, Note_on_c, 9, 64, 70
4, 188691, Note_on_c, 9, 59, 73
4, 188770, Note_on_c, 9, 59, 0
4, 188862, Note_on_c, 9, 64, 0
4, 189202, Note_on_c, 9, 59, 64
4, 189225, Note_on_c, 9, 64, 87
4, 189281, Note_on_c, 9, 59, 0
4, 189665, Note_on_c, 9, 75, 70
4, 189695, Note_on_c, 9, 59, 84
4, 189771, Note_on_c, 9, 59, 0
4, 189774, Note_on_c, 9, 64, 0
4, 190023, Note_on_c, 9, 75, 0
4, 190148, Note_on_c, 9, 59, 107
4, 190745, Note_on_c, 9, 59, 0
4, 191106, Note_on_c, 9, 75, 75
4, 191321, Note_on_c, 9, 75, 0
4, 191561, Note_on_c, 9, 59, 96
4, 191673, Note_on_c, 9, 63, 34
4, 191716, Note_on_c, 9, 59, 0
4, 191750, Note_on_c, 9, 63, 0
4, 192060, Note_on_c, 9, 59, 100
4, 192540, Note_on_c, 9, 59, 0
4, 192968, Note_on_c, 9, 59, 59
4, 193013, Note_on_c, 9, 64, 93
4, 193044, Note_on_c, 9, 75, 80
4, 193048, Note_on_c, 9, 59, 0
4, 193287, Note_on_c, 9, 75, 0
4, 193386, Note_on_c, 9, 64, 0
4, 193487, Note_on_c, 9, 59, 98
4, 193578, Note_on_c, 9, 64, 95
4, 194246, Note_on_c, 9, 59, 0
4, 194400, Note_on_c, 9, 64, 0
4, 194446, Note_on_c, 9, 59, 46
4, 194544, Note_on_c, 9, 75, 70
4, 194560, Note_on_c, 9, 59, 0
4, 194834, Note_on_c, 9, 75, 0
4, 194917, Note_on_c, 9, 63, 85
4, 194923, Note_on_c, 9, 59, 100
4, 194962, Note_on_c, 9, 62, 59
4, 195302, Note_on_c, 9, 62, 0
4, 195374, Note_on_c, 9, 63, 0
4, 195642, Note_on_c, 9, 59, 0
4, 195916, Note_on_c, 9, 75, 76
4, 196157, Note_on_c, 9, 75, 0
4, 196383, Note_on_c, 9, 59, 92
4, 196876, Note_on_c, 9, 64, 90
4, 196877, Note_on_c, 9, 59, 0
4, 197230, Note_on_c, 9, 64, 0
4, 197325, Note_on_c, 9, 59, 101
4, 197424, Note_on_c, 9, 75, 73
4, 197448, Note_on_c, 9, 64, 98
4, 197680, Note_on_c, 9, 75, 0
4, 197685, Note_on_c, 9, 59, 0
4, 198355, Note_on_c, 9, 59, 93
4, 198365, Note_on_c, 9, 64, 0
4, 198745, Note_on_c, 9, 59, 0
4, 198802, Note_on_c, 9, 75, 76
4, 198804, Note_on_c, 9, 63, 63
4, 198978, Note_on_c, 9, 63, 0
4, 199040, Note_on_c, 9, 75, 0
4, 199274, Note_on_c, 9, 63, 110
4, 199314, Note_on_c, 9, 59, 77
4, 199457, Note_on_c, 9, 59, 0
4, 199784, Note_on_c, 9, 59, 89
4, 200051, Note_on_c, 9, 63, 0
4, 200178, Note_on_c, 9, 59, 0
4, 200687, Note_on_c, 9, 59, 92
4, 200719, Note_on_c, 9, 75, 73
4, 200734, Note_on_c, 9, 64, 26
4, 200817, Note_on_c, 9, 64, 0
4, 200939, Note_on_c, 9, 75, 0
4, 201018, Note_on_c, 9, 59, 0
4, 201190, Note_on_c, 9, 53, 37
4, 201339, Note_on_c, 9, 53, 0
4, 202171, Note_on_c, 9, 75, 73
4, 202174, Note_on_c, 9, 59, 82
4, 202351, Note_on_c, 9, 59, 0
4, 202434, Note_on_c, 9, 75, 0
4, 202614, Note_on_c, 9, 63, 91
4, 202658, Note_on_c, 9, 53, 83
4, 202773, Note_on_c, 9, 63, 0
4, 202909, Note_on_c, 9, 53, 0
4, 203138, Note_on_c, 9, 63, 109
4, 203220, Note_on_c, 9, 59, 54
4, 203319, Note_on_c, 9, 59, 0
4, 203561, Note_on_c, 9, 75, 74
4, 203643, Note_on_c, 9, 63, 0
4, 203801, Note_on_c, 9, 75, 0
4, 204127, Note_on_c, 9, 59, 82
4, 204392, Note_on_c, 9, 59, 0
4, 204510, Note_on_c, 9, 64, 41
4, 204625, Note_on_c, 9, 64, 0
4, 205029, Note_on_c, 9, 64, 109
4, 205039, Note_on_c, 9, 59, 78
4, 205063, Note_on_c, 9, 75, 69
4, 205205, Note_on_c, 9, 59, 0
4, 205358, Note_on_c, 9, 75, 0
4, 205503, Note_on_c, 9, 59, 71
4, 205725, Note_on_c, 9, 59, 0
4, 205902, Note_on_c, 9, 64, 0
4, 206026, Note_on_c, 9, 59, 49
4, 206110, Note_on_c, 9, 59, 0
4, 206361, Note_on_c, 9, 63, 67
4, 206370, Note_on_c, 9, 62, 53
4, 206443, Note_on_c, 9, 75, 75
4, 206585, Note_on_c, 9, 62, 0
4, 206704, Note_on_c, 9, 63, 0
4, 206763, Note_on_c, 9, 75, 0
4, 206869, Note_on_c, 9, 59, 66
4, 206942, Note_on_c, 9, 63, 91
4, 206951, Note_on_c, 9, 59, 0
4, 207271, Note_on_c, 9, 63, 0
4, 207346, Note_on_c, 9, 59, 70
4, 207573, Note_on_c, 9, 59, 0
4, 207900, Note_on_c, 9, 59, 56
4, 207980, Note_on_c, 9, 59, 0
4, 208332, Note_on_c, 9, 64, 58
4, 208368, Note_on_c, 9, 59, 28
4, 208391, Note_on_c, 9, 75, 78
4, 208458, Note_on_c, 9, 64, 0
4, 208460, Note_on_c, 9, 59, 0
4, 208685, Note_on_c, 9, 75, 0
4, 208816, Note_on_c, 9, 59, 65
4, 208881, Note_on_c, 9, 64, 101
4, 208923, Note_on_c, 9, 59, 0
4, 209309, Note_on_c, 9, 59, 85
4, 209322, Note_on_c, 9, 53, 74
4, 209496, Note_on_c, 9, 53, 0
4, 209517, Note_on_c, 9, 59, 0
4, 209636, Note_on_c, 9, 64, 0
4, 209860, Note_on_c, 9, 59, 59
4, 209863, Note_on_c, 9, 75, 72
4, 209949, Note_on_c, 9, 59, 0
4, 210188, Note_on_c, 9, 75, 0
4, 210219, Note_on_c, 9, 63, 67
4, 210290, Note_on_c, 9, 59, 95
4, 210308, Note_on_c, 9, 53, 88
4, 210458, Note_on_c, 9, 63, 0
4, 210565, Note_on_c, 9, 53, 0
4, 210729, Note_on_c, 9, 59, 0
4, 210792, Note_on_c, 9, 63, 91
4, 210834, Note_on_c, 9, 62, 79
4, 211056, Note_on_c, 9, 62, 0
4, 211266, Note_on_c, 9, 59, 47
4, 211282, Note_on_c, 9, 75, 75
4, 211347, Note_on_c, 9, 59, 0
4, 211520, Note_on_c, 9, 63, 0
4, 211527, Note_on_c, 9, 75, 0
4, 211754, Note_on_c, 9, 59, 93
4, 211898, Note_on_c, 9, 64, 42
4, 212024, Note_on_c, 9, 64, 0
4, 212043, Note_on_c, 9, 59, 0
4, 212306, Note_on_c, 9, 64, 96
4, 212620, Note_on_c, 9, 64, 0
4, 212678, Note_on_c, 9, 59, 79
4, 212771, Note_on_c, 9, 75, 69
4, 212830, Note_on_c, 9, 64, 65
4, 212866, Note_on_c, 9, 59, 0
4, 212931, Note_on_c, 9, 64, 0
4, 213139, Note_on_c, 9, 59, 89
4, 213158, Note_on_c, 9, 75, 0
4, 213491, Note_on_c, 9, 59, 0
4, 213674, Note_on_c, 9, 59, 52
4, 213688, Note_on_c, 9, 62, 33
4, 213764, Note_on_c, 9, 59, 0
4, 213767, Note_on_c, 9, 62, 0
4, 214112, Note_on_c, 9, 63, 69
4, 214113, Note_on_c, 9, 59, 64
4, 214162, Note_on_c, 9, 75, 74
4, 214198, Note_on_c, 9, 59, 0
4, 214345, Note_on_c, 9, 63, 0
4, 214487, Note_on_c, 9, 75, 0
4, 214626, Note_on_c, 9, 59, 98
4, 214667, Note_on_c, 9, 63, 84
4, 214909, Note_on_c, 9, 63, 0
4, 215116, Note_on_c, 9, 75, 75
4, 215363, Note_on_c, 9, 59, 0
4, 215457, Note_on_c, 9, 75, 0
4, 215578, Note_on_c, 9, 59, 61
4, 215782, Note_on_c, 9, 59, 0
4, 215996, Note_on_c, 9, 64, 58
4, 216049, Note_on_c, 9, 59, 30
4, 216092, Note_on_c, 9, 64, 0
4, 216320, Note_on_c, 9, 59, 0
4, 216528, Note_on_c, 9, 59, 58
4, 216549, Note_on_c, 9, 64, 82
4, 216635, Note_on_c, 9, 75, 69
4, 216645, Note_on_c, 9, 59, 0
4, 217001, Note_on_c, 9, 75, 0
4, 217039, Note_on_c, 9, 59, 82
4, 217043, Note_on_c, 9, 53, 64
4, 217242, Note_on_c, 9, 53, 0
4, 217303, Note_on_c, 9, 59, 0
4, 217402, Note_on_c, 9, 64, 0
4, 217570, Note_on_c, 9, 59, 55
4, 217650, Note_on_c, 9, 59, 0
4, 217940, Note_on_c, 9, 63, 87
4, 218002, Note_on_c, 9, 53, 77
4, 218006, Note_on_c, 9, 59, 89
4, 218068, Note_on_c, 9, 75, 76
4, 218210, Note_on_c, 9, 53, 0
4, 218289, Note_on_c, 9, 63, 0
4, 218311, Note_on_c, 9, 75, 0
4, 218378, Note_on_c, 9, 59, 0
4, 218486, Note_on_c, 9, 63, 77
4, 218778, Note_on_c, 9, 63, 0
4, 218947, Note_on_c, 9, 59, 60
4, 219030, Note_on_c, 9, 59, 0
4, 219449, Note_on_c, 9, 59, 87
4, 219943, Note_on_c, 9, 59, 0
4, 219951, Note_on_c, 9, 64, 59
4, 219963, Note_on_c, 9, 75, 76
4, 220054, Note_on_c, 9, 64, 0
4, 220216, Note_on_c, 9, 75, 0
4, 220388, Note_on_c, 9, 59, 61
4, 220431, Note_on_c, 9, 64, 107
4, 220466, Note_on_c, 9, 59, 0
4, 220895, Note_on_c, 9, 59, 98
4, 221291, Note_on_c, 9, 64, 0
4, 221417, Note_on_c, 9, 75, 74
4, 221519, Note_on_c, 9, 59, 0
4, 221729, Note_on_c, 9, 75, 0
4, 221741, Note_on_c, 9, 62, 60
4, 221747, Note_on_c, 9, 63, 86
4, 222133, Note_on_c, 9, 62, 0
4, 222165, Note_on_c, 9, 63, 0
4, 222329, Note_on_c, 9, 59, 103
4, 222337, Note_on_c, 9, 63, 73
4, 222398, Note_on_c, 9, 62, 51
4, 222473, Note_on_c, 9, 62, 0
4, 222525, Note_on_c, 9, 59, 0
4, 222630, Note_on_c, 9, 63, 0
4, 222794, Note_on_c, 9, 75, 82
4, 222825, Note_on_c, 9, 59, 100
4, 223029, Note_on_c, 9, 75, 0
4, 223347, Note_on_c, 9, 59, 0
4, 223717, Note_on_c, 9, 64, 91
4, 224042, Note_on_c, 9, 64, 0
4, 224222, Note_on_c, 9, 75, 76
4, 224281, Note_on_c, 9, 59, 91
4, 224328, Note_on_c, 9, 64, 90
4, 224438, Note_on_c, 9, 59, 0
4, 224576, Note_on_c, 9, 75, 0
4, 224771, Note_on_c, 9, 59, 92
4, 224853, Note_on_c, 9, 64, 0
4, 225030, Note_on_c, 9, 63, 74
4, 225054, Note_on_c, 9, 62, 57
4, 225146, Note_on_c, 9, 62, 0
4, 225339, Note_on_c, 9, 63, 0
4, 225385, Note_on_c, 9, 59, 0
4, 225647, Note_on_c, 9, 59, 49
4, 225679, Note_on_c, 9, 75, 80
4, 225726, Note_on_c, 9, 63, 77
4, 225730, Note_on_c, 9, 59, 0
4, 225742, Note_on_c, 9, 62, 45
4, 225932, Note_on_c, 9, 75, 0
4, 226004, Note_on_c, 9, 62, 0
4, 226167, Note_on_c, 9, 59, 91
4, 226192, Note_on_c, 9, 63, 0
4, 226571, Note_on_c, 9, 63, 61
4, 226675, Note_on_c, 9, 59, 0
4, 226676, Note_on_c, 9, 63, 0
4, 227139, Note_on_c, 9, 59, 90
4, 227160, Note_on_c, 9, 63, 92
4, 227204, Note_on_c, 9, 62, 73
4, 227529, Note_on_c, 9, 62, 0
4, 227612, Note_on_c, 9, 59, 0
4, 227617, Note_on_c, 9, 75, 80
4, 227637, Note_on_c, 9, 63, 0
4, 227827, Note_on_c, 9, 75, 0
4, 227930, Note_on_c, 9, 63, 76
4, 228110, Note_on_c, 9, 63, 0
4, 228110, Note_on_c, 9, 59, 64
4, 228214, Note_on_c, 9, 59, 0
4, 228555, Note_on_c, 9, 59, 80
4, 228616, Note_on_c, 9, 63, 84
4, 228667, Note_on_c, 9, 62, 76
4, 228729, Note_on_c, 9, 59, 0
4, 229061, Note_on_c, 9, 53, 87
4, 229117, Note_on_c, 9, 75, 78
4, 229135, Note_on_c, 9, 63, 0
4, 229156, Note_on_c, 9, 62, 0
4, 229211, Note_on_c, 9, 53, 0
4, 229360, Note_on_c, 9, 75, 0
4, 229523, Note_on_c, 9, 63, 61
4, 229610, Note_on_c, 9, 53, 22
4, 229688, Note_on_c, 9, 53, 0
4, 229738, Note_on_c, 9, 63, 0
4, 230004, Note_on_c, 9, 63, 85
4, 230017, Note_on_c, 9, 53, 78
4, 230194, Note_on_c, 9, 53, 0
4, 230211, Note_on_c, 9, 63, 0
4, 230503, Note_on_c, 9, 51, 63
4, 230546, Note_on_c, 9, 75, 76
4, 230781, Note_on_c, 9, 75, 0
4, 230983, Note_on_c, 9, 51, 0
4, 231861, Note_on_c, 9, 51, 55
4, 232004, Note_on_c, 9, 75, 69
4, 232042, Note_on_c, 9, 51, 0
4, 232317, Note_on_c, 9, 75, 0
4, 232416, Note_on_c, 9, 51, 61
4, 232662, Note_on_c, 9, 51, 0
4, 233333, Note_on_c, 9, 63, 62
4, 233387, Note_on_c, 9, 75, 76
4, 233553, Note_on_c, 9, 63, 0
4, 233628, Note_on_c, 9, 75, 0
4, 233781, Note_on_c, 9, 51, 60
4, 233864, Note_on_c, 9, 63, 77
4, 233951, Note_on_c, 9, 51, 0
4, 234106, Note_on_c, 9, 63, 0
4, 234291, Note_on_c, 9, 51, 67
4, 234567, Note_on_c, 9, 51, 0
4, 235275, Note_on_c, 9, 64, 90
4, 235371, Note_on_c, 9, 75, 74
4, 235593, Note_on_c, 9, 64, 0
4, 235702, Note_on_c, 9, 51, 54
4, 235758, Note_on_c, 9, 75, 0
4, 235824, Note_on_c, 9, 64, 95
4, 235873, Note_on_c, 9, 51, 0
4, 236118, Note_on_c, 9, 64, 0
4, 236195, Note_on_c, 9, 51, 51
4, 236457, Note_on_c, 9, 51, 0
4, 236745, Note_on_c, 9, 62, 28
4, 236782, Note_on_c, 9, 75, 72
4, 236849, Note_on_c, 9, 62, 0
4, 237125, Note_on_c, 9, 75, 0
4, 237135, Note_on_c, 9, 63, 77
4, 237501, Note_on_c, 9, 63, 0
4, 237660, Note_on_c, 9, 51, 64
4, 237661, Note_on_c, 9, 63, 72
4, 237788, Note_on_c, 9, 51, 0
4, 237930, Note_on_c, 9, 63, 0
4, 238108, Note_on_c, 9, 51, 47
4, 238139, Note_on_c, 9, 75, 78
4, 238314, Note_on_c, 9, 51, 0
4, 238415, Note_on_c, 9, 75, 0
4, 238632, Note_on_c, 9, 51, 38
4, 238762, Note_on_c, 9, 51, 0
4, 239077, Note_on_c, 9, 64, 64
4, 239098, Note_on_c, 9, 51, 65
4, 239320, Note_on_c, 9, 64, 0
4, 239481, Note_on_c, 9, 51, 0
4, 239605, Note_on_c, 9, 64, 98
4, 239636, Note_on_c, 9, 75, 74
4, 239961, Note_on_c, 9, 75, 0
4, 239999, Note_on_c, 9, 51, 83
4, 240070, Note_on_c, 9, 64, 0
4, 240325, Note_on_c, 9, 51, 0
4, 240469, Note_on_c, 9, 61, 18
4, 240545, Note_on_c, 9, 61, 0
4, 240900, Note_on_c, 9, 63, 60
4, 240929, Note_on_c, 9, 62, 56
4, 240982, Note_on_c, 9, 51, 56
4, 240998, Note_on_c, 9, 75, 76
4, 241096, Note_on_c, 9, 51, 0
4, 241135, Note_on_c, 9, 62, 0
4, 241254, Note_on_c, 9, 75, 0
4, 241281, Note_on_c, 9, 63, 0
4, 241453, Note_on_c, 9, 63, 61
4, 241457, Note_on_c, 9, 51, 77
4, 241706, Note_on_c, 9, 51, 0
4, 241718, Note_on_c, 9, 63, 0
4, 242414, Note_on_c, 9, 51, 84
4, 242660, Note_on_c, 9, 51, 0
4, 242838, Note_on_c, 9, 64, 73
4, 242959, Note_on_c, 9, 75, 72
4, 243195, Note_on_c, 9, 75, 0
4, 243218, Note_on_c, 9, 64, 0
4, 243392, Note_on_c, 9, 51, 62
4, 243427, Note_on_c, 9, 64, 83
4, 243469, Note_on_c, 9, 51, 0
4, 243823, Note_on_c, 9, 64, 0
4, 243901, Note_on_c, 9, 51, 90
4, 244351, Note_on_c, 9, 51, 0
4, 244408, Note_on_c, 9, 75, 75
4, 244641, Note_on_c, 9, 75, 0
4, 244751, Note_on_c, 9, 63, 78
4, 244780, Note_on_c, 9, 62, 55
4, 244843, Note_on_c, 9, 51, 58
4, 244874, Note_on_c, 9, 62, 0
4, 244919, Note_on_c, 9, 51, 0
4, 245231, Note_on_c, 9, 63, 0
4, 245357, Note_on_c, 9, 51, 94
4, 245679, Note_on_c, 9, 51, 0
4, 245842, Note_on_c, 9, 75, 76
4, 246057, Note_on_c, 9, 75, 0
4, 246331, Note_on_c, 9, 51, 71
4, 246542, Note_on_c, 9, 51, 0
4, 246672, Note_on_c, 9, 64, 103
4, 246777, Note_on_c, 9, 51, 54
4, 247091, Note_on_c, 9, 64, 0
4, 247218, Note_on_c, 9, 51, 0
4, 247283, Note_on_c, 9, 75, 73
4, 247536, Note_on_c, 9, 75, 0
4, 248278, Note_on_c, 9, 51, 50
4, 248363, Note_on_c, 9, 51, 0
4, 248617, Note_on_c, 9, 63, 56
4, 248635, Note_on_c, 9, 62, 44
4, 248650, Note_on_c, 9, 75, 76
4, 248668, Note_on_c, 9, 51, 86
4, 248785, Note_on_c, 9, 62, 0
4, 248880, Note_on_c, 9, 75, 0
4, 249022, Note_on_c, 9, 63, 0
4, 249198, Note_on_c, 9, 51, 0
4, 250148, Note_on_c, 9, 51, 91
4, 250575, Note_on_c, 9, 64, 62
4, 250611, Note_on_c, 9, 75, 76
4, 250659, Note_on_c, 9, 51, 0
4, 250767, Note_on_c, 9, 64, 0
4, 250826, Note_on_c, 9, 75, 0
4, 251103, Note_on_c, 9, 64, 112
4, 251131, Note_on_c, 9, 51, 95
4, 251403, Note_on_c, 9, 51, 0
4, 251626, Note_on_c, 9, 51, 48
4, 251845, Note_on_c, 9, 64, 0
4, 252043, Note_on_c, 9, 51, 0
4, 252070, Note_on_c, 9, 62, 37
4, 252091, Note_on_c, 9, 75, 76
4, 252146, Note_on_c, 9, 62, 0
4, 252329, Note_on_c, 9, 75, 0
4, 252423, Note_on_c, 9, 63, 90
4, 252487, Note_on_c, 9, 62, 67
4, 252547, Note_on_c, 9, 51, 96
4, 252879, Note_on_c, 9, 62, 0
4, 252906, Note_on_c, 9, 63, 0
4, 253045, Note_on_c, 9, 63, 82
4, 253088, Note_on_c, 9, 62, 43
4, 253094, Note_on_c, 9, 51, 0
4, 253191, Note_on_c, 9, 62, 0
4, 253310, Note_on_c, 9, 63, 0
4, 253522, Note_on_c, 9, 75, 78
4, 253721, Note_on_c, 9, 75, 0
4, 253965, Note_on_c, 9, 51, 73
4, 254124, Note_on_c, 9, 51, 0
4, 254358, Note_on_c, 9, 64, 88
4, 254451, Note_on_c, 9, 51, 48
4, 254590, Note_on_c, 9, 51, 0
4, 254779, Note_on_c, 9, 64, 0
4, 254917, Note_on_c, 9, 51, 98
4, 254960, Note_on_c, 9, 64, 93
4, 254973, Note_on_c, 9, 75, 73
4, 255128, Note_on_c, 9, 51, 0
4, 255196, Note_on_c, 9, 75, 0
4, 255402, Note_on_c, 9, 64, 0
4, 255430, Note_on_c, 9, 51, 94
4, 256017, Note_on_c, 9, 51, 0
4, 256360, Note_on_c, 9, 63, 91
4, 256375, Note_on_c, 9, 62, 67
4, 256416, Note_on_c, 9, 75, 78
4, 256416, Note_on_c, 9, 51, 85
4, 256635, Note_on_c, 9, 75, 0
4, 256664, Note_on_c, 9, 51, 0
4, 256746, Note_on_c, 9, 62, 0
4, 256911, Note_on_c, 9, 51, 64
4, 256916, Note_on_c, 9, 63, 0
4, 257070, Note_on_c, 9, 51, 0
4, 257312, Note_on_c, 9, 51, 67
4, 257336, Note_on_c, 9, 53, 57
4, 257808, Note_on_c, 9, 51, 0
4, 257892, Note_on_c, 9, 53, 0
4, 258262, Note_on_c, 9, 51, 45
4, 258271, Note_on_c, 9, 64, 76
4, 258358, Note_on_c, 9, 51, 0
4, 258419, Note_on_c, 9, 75, 74
4, 258538, Note_on_c, 9, 64, 0
4, 258629, Note_on_c, 9, 75, 0
4, 258804, Note_on_c, 9, 64, 103
4, 258835, Note_on_c, 9, 53, 71
4, 258839, Note_on_c, 9, 51, 58
4, 259258, Note_on_c, 9, 51, 0
4, 259281, Note_on_c, 9, 53, 0
4, 259358, Note_on_c, 9, 64, 0
4, 259746, Note_on_c, 9, 51, 60
4, 259840, Note_on_c, 9, 75, 75
4, 259899, Note_on_c, 9, 51, 0
4, 260060, Note_on_c, 9, 75, 0
4, 260177, Note_on_c, 9, 63, 86
4, 260211, Note_on_c, 9, 62, 47
4, 260257, Note_on_c, 9, 51, 78
4, 260298, Note_on_c, 9, 53, 58
4, 260479, Note_on_c, 9, 62, 0
4, 260705, Note_on_c, 9, 51, 0
4, 260740, Note_on_c, 9, 63, 0
4, 260838, Note_on_c, 9, 53, 0
4, 261140, Note_on_c, 9, 51, 48
4, 261196, Note_on_c, 9, 75, 76
4, 261317, Note_on_c, 9, 51, 0
4, 261424, Note_on_c, 9, 75, 0
4, 261695, Note_on_c, 9, 53, 79
4, 261718, Note_on_c, 9, 51, 53
4, 262031, Note_on_c, 9, 51, 0
4, 262105, Note_on_c, 9, 53, 0
4, 262113, Note_on_c, 9, 64, 78
4, 262302, Note_on_c, 9, 64, 0
4, 262643, Note_on_c, 9, 51, 58
4, 262709, Note_on_c, 9, 64, 97
4, 262724, Note_on_c, 9, 75, 74
4, 262847, Note_on_c, 9, 51, 0
4, 262937, Note_on_c, 9, 75, 0
4, 263131, Note_on_c, 9, 51, 84
4, 263496, Note_on_c, 9, 64, 0
4, 263635, Note_on_c, 9, 51, 0
4, 264079, Note_on_c, 9, 75, 78
4, 264086, Note_on_c, 9, 51, 44
4, 264115, Note_on_c, 9, 62, 41
4, 264128, Note_on_c, 9, 63, 73
4, 264175, Note_on_c, 9, 51, 0
4, 264216, Note_on_c, 9, 62, 0
4, 264283, Note_on_c, 9, 75, 0
4, 264505, Note_on_c, 9, 63, 0
4, 264629, Note_on_c, 9, 51, 86
4, 265335, Note_on_c, 9, 51, 0
4, 265582, Note_on_c, 9, 51, 54
4, 265694, Note_on_c, 9, 51, 0
4, 266023, Note_on_c, 9, 64, 63
4, 266030, Note_on_c, 9, 75, 76
4, 266086, Note_on_c, 9, 51, 43
4, 266145, Note_on_c, 9, 64, 0
4, 266161, Note_on_c, 9, 51, 0
4, 266232, Note_on_c, 9, 75, 0
4, 266527, Note_on_c, 9, 51, 77
4, 266555, Note_on_c, 9, 64, 87
4, 266659, Note_on_c, 9, 51, 0
4, 266877, Note_on_c, 9, 64, 0
4, 266998, Note_on_c, 9, 51, 88
4, 267448, Note_on_c, 9, 61, 35
4, 267519, Note_on_c, 9, 51, 0
4, 267543, Note_on_c, 9, 75, 76
4, 267605, Note_on_c, 9, 61, 0
4, 267742, Note_on_c, 9, 75, 0
4, 267871, Note_on_c, 9, 63, 73
4, 267961, Note_on_c, 9, 62, 59
4, 267970, Note_on_c, 9, 51, 40
4, 268046, Note_on_c, 9, 51, 0
4, 268165, Note_on_c, 9, 62, 0
4, 268241, Note_on_c, 9, 63, 0
4, 268389, Note_on_c, 9, 63, 72
4, 268420, Note_on_c, 9, 51, 80
4, 268456, Note_on_c, 9, 62, 65
4, 268541, Note_on_c, 9, 51, 0
4, 268622, Note_on_c, 9, 62, 0
4, 268674, Note_on_c, 9, 63, 0
4, 268893, Note_on_c, 9, 51, 91
4, 268907, Note_on_c, 9, 75, 82
4, 269120, Note_on_c, 9, 75, 0
4, 269500, Note_on_c, 9, 51, 0
4, 269749, Note_on_c, 9, 64, 74
4, 269845, Note_on_c, 9, 51, 50
4, 269936, Note_on_c, 9, 51, 0
4, 269948, Note_on_c, 9, 64, 0
4, 270278, Note_on_c, 9, 64, 83
4, 270318, Note_on_c, 9, 75, 75
4, 270331, Note_on_c, 9, 51, 77
4, 270546, Note_on_c, 9, 75, 0
4, 270591, Note_on_c, 9, 64, 0
4, 270649, Note_on_c, 9, 51, 0
4, 271680, Note_on_c, 9, 63, 73
4, 271700, Note_on_c, 9, 62, 52
4, 271728, Note_on_c, 9, 75, 80
4, 271755, Note_on_c, 9, 51, 83
4, 271762, Note_on_c, 9, 59, 82
4, 271790, Note_on_c, 9, 62, 0
4, 271936, Note_on_c, 9, 75, 0
4, 272130, Note_on_c, 9, 63, 0
4, 272176, Note_on_c, 9, 51, 0
4, 272264, Note_on_c, 9, 59, 0
4, 272658, Note_on_c, 9, 51, 34
4, 272754, Note_on_c, 9, 51, 0
4, 273171, Note_on_c, 9, 59, 78
4, 273177, Note_on_c, 9, 51, 79
4, 273269, Note_on_c, 9, 75, 80
4, 273436, Note_on_c, 9, 75, 0
4, 273495, Note_on_c, 9, 59, 0
4, 273568, Note_on_c, 9, 51, 0
4, 273629, Note_on_c, 9, 64, 58
4, 273911, Note_on_c, 9, 64, 0
4, 274123, Note_on_c, 9, 51, 49
4, 274189, Note_on_c, 9, 64, 93
4, 274253, Note_on_c, 9, 51, 0
4, 274576, Note_on_c, 9, 51, 86
4, 274690, Note_on_c, 9, 75, 85
4, 274890, Note_on_c, 9, 75, 0
4, 275069, Note_on_c, 9, 64, 0
4, 275111, Note_on_c, 9, 51, 0
4, 275559, Note_on_c, 9, 63, 73
4, 275581, Note_on_c, 9, 51, 59
4, 275616, Note_on_c, 9, 62, 48
4, 275707, Note_on_c, 9, 62, 0
4, 275736, Note_on_c, 9, 51, 0
4, 275969, Note_on_c, 9, 63, 0
4, 276076, Note_on_c, 9, 51, 70
4, 276126, Note_on_c, 9, 63, 82
4, 276196, Note_on_c, 9, 62, 64
4, 276220, Note_on_c, 9, 51, 0
4, 276334, Note_on_c, 9, 62, 0
4, 276498, Note_on_c, 9, 63, 0
4, 276571, Note_on_c, 9, 51, 79
4, 276585, Note_on_c, 9, 75, 73
4, 276771, Note_on_c, 9, 75, 0
4, 276943, Note_on_c, 9, 51, 0
4, 277011, Note_on_c, 9, 62, 27
4, 277089, Note_on_c, 9, 62, 0
4, 277441, Note_on_c, 9, 64, 74
4, 277494, Note_on_c, 9, 51, 25
4, 277613, Note_on_c, 9, 51, 0
4, 277726, Note_on_c, 9, 64, 0
4, 277987, Note_on_c, 9, 75, 75
4, 278004, Note_on_c, 9, 51, 80
4, 278065, Note_on_c, 9, 46, 32
4, 278072, Note_on_c, 9, 64, 98
4, 278215, Note_on_c, 9, 75, 0
4, 278422, Note_on_c, 9, 46, 0
4, 278620, Note_on_c, 9, 51, 0
4, 278848, Note_on_c, 9, 64, 0
4, 278965, Note_on_c, 9, 51, 36
4, 279096, Note_on_c, 9, 51, 0
4, 279403, Note_on_c, 9, 75, 74
4, 279428, Note_on_c, 9, 63, 64
4, 279441, Note_on_c, 9, 46, 50
4, 279443, Note_on_c, 9, 62, 56
4, 279443, Note_on_c, 9, 51, 76
4, 279608, Note_on_c, 9, 75, 0
4, 279659, Note_on_c, 9, 62, 0
4, 279816, Note_on_c, 9, 63, 0
4, 280008, Note_on_c, 9, 46, 0
4, 280008, Note_on_c, 9, 63, 85
4, 280133, Note_on_c, 9, 51, 0
4, 280272, Note_on_c, 9, 63, 0
4, 280305, Note_on_c, 9, 51, 48
4, 280459, Note_on_c, 9, 51, 0
4, 280852, Note_on_c, 9, 51, 67
4, 280962, Note_on_c, 9, 62, 29
4, 281038, Note_on_c, 9, 62, 0
4, 281078, Note_on_c, 9, 51, 0
4, 281338, Note_on_c, 9, 64, 88
4, 281377, Note_on_c, 9, 75, 74
4, 281511, Note_on_c, 9, 64, 0
4, 281571, Note_on_c, 9, 75, 0
4, 281779, Note_on_c, 9, 51, 68
4, 281856, Note_on_c, 9, 64, 110
4, 281952, Note_on_c, 9, 51, 0
4, 282283, Note_on_c, 9, 51, 80
4, 282530, Note_on_c, 9, 64, 0
4, 282852, Note_on_c, 9, 51, 0
4, 282869, Note_on_c, 9, 75, 74
4, 283077, Note_on_c, 9, 75, 0
4, 283256, Note_on_c, 9, 64, 98
4, 283267, Note_on_c, 9, 51, 42
4, 283390, Note_on_c, 9, 51, 0
4, 283621, Note_on_c, 9, 64, 0
4, 283757, Note_on_c, 9, 51, 78
4, 283785, Note_on_c, 9, 64, 100
4, 283932, Note_on_c, 9, 51, 0
4, 284065, Note_on_c, 9, 64, 0
4, 284254, Note_on_c, 9, 75, 79
4, 284264, Note_on_c, 9, 51, 67
4, 284475, Note_on_c, 9, 75, 0
4, 284768, Note_on_c, 9, 51, 0
4, 285189, Note_on_c, 9, 63, 31
4, 285206, Note_on_c, 9, 51, 56
4, 285289, Note_on_c, 9, 51, 0
4, 285312, Note_on_c, 9, 63, 0
4, 285667, Note_on_c, 9, 51, 68
4, 285673, Note_on_c, 9, 63, 77
4, 285688, Note_on_c, 9, 75, 76
4, 285756, Note_on_c, 9, 62, 44
4, 285800, Note_on_c, 9, 51, 0
4, 285832, Note_on_c, 9, 62, 0
4, 285857, Note_on_c, 9, 63, 0
4, 285903, Note_on_c, 9, 75, 0
4, 286141, Note_on_c, 9, 51, 75
4, 286748, Note_on_c, 9, 51, 0
4, 287040, Note_on_c, 9, 64, 74
4, 287045, Note_on_c, 9, 51, 48
4, 287055, Note_on_c, 9, 75, 79
4, 287130, Note_on_c, 9, 51, 0
4, 287265, Note_on_c, 9, 75, 0
4, 287447, Note_on_c, 9, 64, 0
4, 287545, Note_on_c, 9, 51, 80
4, 287738, Note_on_c, 9, 51, 0
4, 288038, Note_on_c, 9, 51, 68
4, 288107, Note_on_c, 9, 53, 66
4, 288596, Note_on_c, 9, 51, 0
4, 288627, Note_on_c, 9, 75, 76
4, 288703, Note_on_c, 9, 53, 0
4, 288786, Note_on_c, 9, 75, 0
4, 288994, Note_on_c, 9, 51, 50
4, 289151, Note_on_c, 9, 51, 0
4, 289470, Note_on_c, 9, 64, 82
4, 289485, Note_on_c, 9, 51, 72
4, 289492, Note_on_c, 9, 53, 77
4, 289673, Note_on_c, 9, 51, 0
4, 289703, Note_on_c, 9, 64, 0
4, 289738, Note_on_c, 9, 53, 0
4, 289954, Note_on_c, 9, 64, 77
4, 289967, Note_on_c, 9, 53, 62
4, 289991, Note_on_c, 9, 51, 60
4, 290019, Note_on_c, 9, 75, 82
4, 290209, Note_on_c, 9, 75, 0
4, 290518, Note_on_c, 9, 64, 0
4, 290553, Note_on_c, 9, 51, 0
4, 290625, Note_on_c, 9, 53, 0
4, 290898, Note_on_c, 9, 51, 60
4, 290986, Note_on_c, 9, 63, 84
4, 291053, Note_on_c, 9, 51, 0
4, 291347, Note_on_c, 9, 63, 0
4, 291426, Note_on_c, 9, 51, 76
4, 291429, Note_on_c, 9, 53, 81
4, 291486, Note_on_c, 9, 75, 83
4, 291488, Note_on_c, 9, 63, 80
4, 291606, Note_on_c, 9, 51, 0
4, 291678, Note_on_c, 9, 53, 0
4, 291716, Note_on_c, 9, 75, 0
4, 291768, Note_on_c, 9, 63, 0
4, 291886, Note_on_c, 9, 53, 63
4, 291892, Note_on_c, 9, 51, 59
4, 292448, Note_on_c, 9, 51, 0
4, 292480, Note_on_c, 9, 53, 0
4, 292815, Note_on_c, 9, 51, 52
4, 292887, Note_on_c, 9, 75, 83
4, 292988, Note_on_c, 9, 51, 0
4, 293173, Note_on_c, 9, 75, 0
4, 293347, Note_on_c, 9, 64, 104
4, 293358, Note_on_c, 9, 51, 77
4, 293362, Note_on_c, 9, 53, 81
4, 293573, Note_on_c, 9, 51, 0
4, 293676, Note_on_c, 9, 53, 0
4, 293762, Note_on_c, 9, 64, 0
4, 294348, Note_on_c, 9, 53, 80
4, 294350, Note_on_c, 9, 51, 78
4, 294417, Note_on_c, 9, 75, 80
4, 294644, Note_on_c, 9, 51, 0
4, 294653, Note_on_c, 9, 75, 0
4, 294711, Note_on_c, 9, 53, 0
4, 294747, Note_on_c, 9, 63, 65
4, 295023, Note_on_c, 9, 63, 0
4, 295246, Note_on_c, 9, 51, 71
4, 295289, Note_on_c, 9, 63, 84
4, 295440, Note_on_c, 9, 51, 0
4, 295552, Note_on_c, 9, 63, 0
4, 295759, Note_on_c, 9, 51, 82
4, 296306, Note_on_c, 9, 51, 0
4, 296668, Note_on_c, 9, 75, 78
4, 296720, Note_on_c, 9, 51, 55
4, 296728, Note_on_c, 9, 64, 75
4, 296841, Note_on_c, 9, 51, 0
4, 296870, Note_on_c, 9, 75, 0
4, 296895, Note_on_c, 9, 64, 0
4, 297204, Note_on_c, 9, 51, 91
4, 297232, Note_on_c, 9, 64, 81
4, 297447, Note_on_c, 9, 64, 0
4, 297672, Note_on_c, 9, 51, 0
4, 298113, Note_on_c, 9, 51, 85
4, 298145, Note_on_c, 9, 75, 76
4, 298337, Note_on_c, 9, 51, 0
4, 298383, Note_on_c, 9, 75, 0
4, 298533, Note_on_c, 9, 63, 74
4, 298608, Note_on_c, 9, 51, 25
4, 298685, Note_on_c, 9, 51, 0
4, 298795, Note_on_c, 9, 63, 0
4, 299068, Note_on_c, 9, 51, 62
4, 299091, Note_on_c, 9, 63, 74
4, 299144, Note_on_c, 9, 51, 0
4, 299316, Note_on_c, 9, 63, 0
4, 299555, Note_on_c, 9, 75, 76
4, 299578, Note_on_c, 9, 51, 86
4, 299783, Note_on_c, 9, 75, 0
4, 300051, Note_on_c, 9, 51, 0
4, 300504, Note_on_c, 9, 64, 81
4, 300517, Note_on_c, 9, 51, 82
4, 300733, Note_on_c, 9, 51, 0
4, 300748, Note_on_c, 9, 64, 0
4, 301045, Note_on_c, 9, 75, 75
4, 301046, Note_on_c, 9, 64, 95
4, 301057, Note_on_c, 9, 51, 38
4, 301133, Note_on_c, 9, 51, 0
4, 301306, Note_on_c, 9, 75, 0
4, 301525, Note_on_c, 9, 51, 82
4, 301782, Note_on_c, 9, 51, 0
4, 301882, Note_on_c, 9, 64, 0
4, 301980, Note_on_c, 9, 62, 54
4, 301986, Note_on_c, 9, 51, 61
4, 302056, Note_on_c, 9, 62, 0
4, 302152, Note_on_c, 9, 51, 0
4, 302370, Note_on_c, 9, 63, 80
4, 302468, Note_on_c, 9, 51, 29
4, 302484, Note_on_c, 9, 62, 21
4, 302520, Note_on_c, 9, 75, 70
4, 302544, Note_on_c, 9, 51, 0
4, 302688, Note_on_c, 9, 62, 0
4, 302753, Note_on_c, 9, 75, 0
4, 302760, Note_on_c, 9, 63, 0
4, 302945, Note_on_c, 9, 62, 64
4, 302950, Note_on_c, 9, 63, 75
4, 302960, Note_on_c, 9, 51, 99
4, 303082, Note_on_c, 9, 62, 0
4, 303217, Note_on_c, 9, 63, 0
4, 303682, Note_on_c, 9, 51, 0
4, 303937, Note_on_c, 9, 51, 48
4, 304036, Note_on_c, 9, 51, 0
4, 304361, Note_on_c, 9, 64, 74
4, 304369, Note_on_c, 9, 51, 60
4, 304427, Note_on_c, 9, 75, 76
4, 304565, Note_on_c, 9, 64, 0
4, 304605, Note_on_c, 9, 51, 0
4, 304658, Note_on_c, 9, 75, 0
4, 304879, Note_on_c, 9, 64, 100
4, 305240, Note_on_c, 9, 64, 0
4, 305738, Note_on_c, 9, 51, 71
4, 305861, Note_on_c, 9, 75, 78
4, 305927, Note_on_c, 9, 51, 0
4, 306078, Note_on_c, 9, 75, 0
4, 306167, Note_on_c, 9, 63, 67
4, 306177, Note_on_c, 9, 51, 61
4, 306307, Note_on_c, 9, 51, 0
4, 306421, Note_on_c, 9, 63, 0
4, 306695, Note_on_c, 9, 51, 95
4, 306790, Note_on_c, 9, 63, 76
4, 306932, Note_on_c, 9, 51, 0
4, 307018, Note_on_c, 9, 63, 0
4, 307192, Note_on_c, 9, 51, 86
4, 307212, Note_on_c, 9, 75, 82
4, 307425, Note_on_c, 9, 75, 0
4, 307548, Note_on_c, 9, 51, 0
4, 307705, Note_on_c, 9, 51, 57
4, 307784, Note_on_c, 9, 51, 0
4, 308127, Note_on_c, 9, 64, 66
4, 308141, Note_on_c, 9, 51, 68
4, 308161, Note_on_c, 9, 53, 63
4, 308284, Note_on_c, 9, 64, 0
4, 308713, Note_on_c, 9, 75, 84
4, 308720, Note_on_c, 9, 51, 0
4, 308726, Note_on_c, 9, 64, 100
4, 308780, Note_on_c, 9, 53, 0
4, 308920, Note_on_c, 9, 75, 0
4, 309107, Note_on_c, 9, 51, 43
4, 309135, Note_on_c, 9, 64, 0
4, 309233, Note_on_c, 9, 51, 0
4, 309649, Note_on_c, 9, 51, 95
4, 310115, Note_on_c, 9, 63, 75
4, 310115, Note_on_c, 9, 75, 80
4, 310176, Note_on_c, 9, 51, 0
4, 310323, Note_on_c, 9, 75, 0
4, 310387, Note_on_c, 9, 63, 0
4, 310578, Note_on_c, 9, 51, 52
4, 310669, Note_on_c, 9, 63, 83
4, 310704, Note_on_c, 9, 51, 0
4, 310965, Note_on_c, 9, 63, 0
4, 311072, Note_on_c, 9, 51, 93
4, 311527, Note_on_c, 9, 51, 0
4, 312003, Note_on_c, 9, 51, 28
4, 312061, Note_on_c, 9, 75, 76
4, 312074, Note_on_c, 9, 64, 90
4, 312081, Note_on_c, 9, 51, 0
4, 312253, Note_on_c, 9, 64, 0
4, 312268, Note_on_c, 9, 75, 0
4, 312523, Note_on_c, 9, 51, 100
4, 312623, Note_on_c, 9, 64, 97
4, 313255, Note_on_c, 9, 51, 0
4, 313384, Note_on_c, 9, 64, 0
4, 313496, Note_on_c, 9, 51, 58
4, 313607, Note_on_c, 9, 75, 78
4, 313620, Note_on_c, 9, 51, 0
4, 313833, Note_on_c, 9, 75, 0
4, 313995, Note_on_c, 9, 51, 103
4, 313996, Note_on_c, 9, 62, 70
4, 314014, Note_on_c, 9, 63, 77
4, 314186, Note_on_c, 9, 63, 0
4, 314188, Note_on_c, 9, 62, 0
4, 314535, Note_on_c, 9, 62, 80
4, 314540, Note_on_c, 9, 63, 95
4, 314548, Note_on_c, 9, 51, 0
4, 314807, Note_on_c, 9, 62, 0
4, 314977, Note_on_c, 9, 63, 0
4, 314995, Note_on_c, 9, 75, 80
4, 315192, Note_on_c, 9, 75, 0
4, 315413, Note_on_c, 9, 51, 94
4, 315626, Note_on_c, 9, 51, 0
4, 315873, Note_on_c, 9, 64, 69
4, 315977, Note_on_c, 9, 51, 26
4, 316054, Note_on_c, 9, 51, 0
4, 316059, Note_on_c, 9, 64, 0
4, 316376, Note_on_c, 9, 51, 79
4, 316393, Note_on_c, 9, 75, 78
4, 316415, Note_on_c, 9, 64, 91
4, 316513, Note_on_c, 9, 51, 0
4, 316600, Note_on_c, 9, 75, 0
4, 316880, Note_on_c, 9, 51, 100
4, 317261, Note_on_c, 9, 51, 0
4, 317488, Note_on_c, 9, 64, 0
4, 317731, Note_on_c, 9, 51, 54
4, 317768, Note_on_c, 9, 62, 60
4, 317774, Note_on_c, 9, 63, 53
4, 317830, Note_on_c, 9, 51, 0
4, 317849, Note_on_c, 9, 75, 80
4, 317987, Note_on_c, 9, 62, 0
4, 318031, Note_on_c, 9, 75, 0
4, 318099, Note_on_c, 9, 63, 0
4, 318291, Note_on_c, 9, 51, 100
4, 318294, Note_on_c, 9, 63, 63
4, 318346, Note_on_c, 9, 62, 56
4, 318529, Note_on_c, 9, 62, 0
4, 318750, Note_on_c, 9, 63, 0
4, 318887, Note_on_c, 9, 51, 0
4, 319266, Note_on_c, 9, 51, 93
4, 319354, Note_on_c, 9, 64, 91
4, 319611, Note_on_c, 9, 64, 0
4, 319756, Note_on_c, 9, 75, 80
4, 319815, Note_on_c, 9, 64, 85
4, 319889, Note_on_c, 9, 51, 0
4, 319961, Note_on_c, 9, 75, 0
4, 320233, Note_on_c, 9, 51, 73
4, 320348, Note_on_c, 9, 64, 0
4, 320381, Note_on_c, 9, 51, 0
4, 320711, Note_on_c, 9, 51, 91
4, 321150, Note_on_c, 9, 51, 0
4, 321185, Note_on_c, 9, 75, 78
4, 321459, Note_on_c, 9, 75, 0
4, 321674, Note_on_c, 9, 63, 77
4, 321692, Note_on_c, 9, 51, 92
4, 321846, Note_on_c, 9, 51, 0
4, 322008, Note_on_c, 9, 63, 0
4, 322196, Note_on_c, 9, 63, 79
4, 322216, Note_on_c, 9, 51, 81
4, 322379, Note_on_c, 9, 51, 0
4, 322528, Note_on_c, 9, 63, 0
4, 322629, Note_on_c, 9, 75, 80
4, 322831, Note_on_c, 9, 75, 0
4, 323146, Note_on_c, 9, 64, 97
4, 323152, Note_on_c, 9, 51, 91
4, 323184, Note_on_c, 9, 62, 21
4, 323330, Note_on_c, 9, 62, 0
4, 323338, Note_on_c, 9, 51, 0
4, 323469, Note_on_c, 9, 64, 0
4, 323621, Note_on_c, 9, 62, 46
4, 323677, Note_on_c, 9, 64, 85
4, 323863, Note_on_c, 9, 62, 0
4, 324109, Note_on_c, 9, 51, 69
4, 324126, Note_on_c, 9, 75, 78
4, 324127, Note_on_c, 9, 64, 0
4, 324248, Note_on_c, 9, 51, 0
4, 324352, Note_on_c, 9, 75, 0
4, 324570, Note_on_c, 9, 51, 88
4, 325017, Note_on_c, 9, 51, 0
4, 325450, Note_on_c, 9, 63, 85
4, 325515, Note_on_c, 9, 51, 30
4, 325567, Note_on_c, 9, 75, 78
4, 325592, Note_on_c, 9, 51, 0
4, 325785, Note_on_c, 9, 75, 0
4, 325798, Note_on_c, 9, 63, 0
4, 326031, Note_on_c, 9, 51, 96
4, 326038, Note_on_c, 9, 63, 90
4, 326317, Note_on_c, 9, 51, 0
4, 326389, Note_on_c, 9, 63, 0
4, 326964, Note_on_c, 9, 51, 70
4, 327101, Note_on_c, 9, 51, 0
4, 327449, Note_on_c, 9, 64, 103
4, 327457, Note_on_c, 9, 51, 44
4, 327500, Note_on_c, 9, 75, 80
4, 327534, Note_on_c, 9, 51, 0
4, 327659, Note_on_c, 9, 64, 0
4, 327692, Note_on_c, 9, 75, 0
4, 327937, Note_on_c, 9, 51, 94
4, 327955, Note_on_c, 9, 64, 103
4, 328098, Note_on_c, 9, 51, 0
4, 328249, Note_on_c, 9, 64, 0
4, 328427, Note_on_c, 9, 51, 100
4, 328929, Note_on_c, 9, 75, 73
4, 328949, Note_on_c, 9, 51, 0
4, 329131, Note_on_c, 9, 75, 0
4, 329346, Note_on_c, 9, 51, 100
4, 329353, Note_on_c, 9, 63, 61
4, 329617, Note_on_c, 9, 63, 0
4, 329718, Note_on_c, 9, 51, 0
4, 329891, Note_on_c, 9, 63, 86
4, 330162, Note_on_c, 9, 63, 0
4, 330337, Note_on_c, 9, 75, 80
4, 330529, Note_on_c, 9, 75, 0
4, 330793, Note_on_c, 9, 51, 76
4, 330960, Note_on_c, 9, 51, 0
4, 331272, Note_on_c, 9, 64, 98
4, 331306, Note_on_c, 9, 51, 65
4, 331418, Note_on_c, 9, 51, 0
4, 331495, Note_on_c, 9, 64, 0
4, 331799, Note_on_c, 9, 75, 74
4, 331821, Note_on_c, 9, 64, 104
4, 331993, Note_on_c, 9, 75, 0
4, 332249, Note_on_c, 9, 51, 91
4, 332258, Note_on_c, 9, 64, 0
4, 332571, Note_on_c, 9, 51, 0
4, 332801, Note_on_c, 9, 62, 36
4, 332879, Note_on_c, 9, 62, 0
4, 333217, Note_on_c, 9, 63, 85
4, 333227, Note_on_c, 9, 75, 78
4, 333422, Note_on_c, 9, 75, 0
4, 333524, Note_on_c, 9, 63, 0
4, 333705, Note_on_c, 9, 51, 86
4, 333761, Note_on_c, 9, 63, 94
4, 333893, Note_on_c, 9, 51, 0
4, 334068, Note_on_c, 9, 63, 0
4, 334236, Note_on_c, 9, 51, 86
4, 334697, Note_on_c, 9, 51, 0
4, 334747, Note_on_c, 9, 62, 30
4, 334825, Note_on_c, 9, 62, 0
4, 335123, Note_on_c, 9, 51, 32
4, 335153, Note_on_c, 9, 64, 88
4, 335201, Note_on_c, 9, 75, 75
4, 335217, Note_on_c, 9, 51, 0
4, 335300, Note_on_c, 9, 64, 0
4, 335403, Note_on_c, 9, 75, 0
4, 335636, Note_on_c, 9, 51, 94
4, 335674, Note_on_c, 9, 64, 124
4, 335844, Note_on_c, 9, 51, 0
4, 336122, Note_on_c, 9, 51, 87
4, 336433, Note_on_c, 9, 51, 0
4, 336449, Note_on_c, 9, 64, 0
4, 336611, Note_on_c, 9, 75, 76
4, 336826, Note_on_c, 9, 75, 0
4, 336967, Note_on_c, 9, 63, 91
4, 336982, Note_on_c, 9, 53, 75
4, 336989, Note_on_c, 9, 51, 75
4, 337309, Note_on_c, 9, 63, 0
4, 337506, Note_on_c, 9, 63, 85
4, 337593, Note_on_c, 9, 51, 0
4, 337616, Note_on_c, 9, 53, 0
4, 337829, Note_on_c, 9, 63, 0
4, 337963, Note_on_c, 9, 51, 40
4, 337989, Note_on_c, 9, 75, 82
4, 338061, Note_on_c, 9, 51, 0
4, 338191, Note_on_c, 9, 75, 0
4, 338433, Note_on_c, 9, 51, 95
4, 338868, Note_on_c, 9, 51, 0
4, 338925, Note_on_c, 9, 64, 80
4, 339079, Note_on_c, 9, 64, 0
4, 339435, Note_on_c, 9, 51, 65
4, 339456, Note_on_c, 9, 64, 107
4, 339463, Note_on_c, 9, 75, 76
4, 339585, Note_on_c, 9, 51, 0
4, 339683, Note_on_c, 9, 75, 0
4, 339919, Note_on_c, 9, 51, 87
4, 340302, Note_on_c, 9, 64, 0
4, 340411, Note_on_c, 9, 51, 0
4, 340826, Note_on_c, 9, 63, 82
4, 340874, Note_on_c, 9, 75, 80
4, 341071, Note_on_c, 9, 75, 0
4, 341100, Note_on_c, 9, 63, 0
4, 341341, Note_on_c, 9, 51, 78
4, 341395, Note_on_c, 9, 63, 90
4, 341498, Note_on_c, 9, 51, 0
4, 341796, Note_on_c, 9, 63, 0
4, 341870, Note_on_c, 9, 51, 69
4, 342031, Note_on_c, 9, 51, 0
4, 342773, Note_on_c, 9, 64, 91
4, 342891, Note_on_c, 9, 75, 40
4, 342977, Note_on_c, 9, 64, 0
4, 342988, Note_on_c, 9, 75, 0
4, 343263, Note_on_c, 9, 51, 77
4, 343326, Note_on_c, 9, 64, 109
4, 343440, Note_on_c, 9, 51, 0
4, 343780, Note_on_c, 9, 51, 76
4, 344190, Note_on_c, 9, 51, 0
4, 344202, Note_on_c, 9, 64, 0
4, 344345, Note_on_c, 9, 75, 73
4, 344377, Note_on_c, 9, 62, 44
4, 344453, Note_on_c, 9, 62, 0
4, 344537, Note_on_c, 9, 75, 0
4, 344751, Note_on_c, 9, 63, 81
4, 344797, Note_on_c, 9, 51, 84
4, 345012, Note_on_c, 9, 51, 0
4, 345017, Note_on_c, 9, 63, 0
4, 345271, Note_on_c, 9, 63, 85
4, 345506, Note_on_c, 9, 63, 0
4, 345655, Note_on_c, 9, 59, 73
4, 345717, Note_on_c, 9, 75, 74
4, 345718, Note_on_c, 9, 51, 88
4, 345902, Note_on_c, 9, 75, 0
4, 345904, Note_on_c, 9, 51, 0
4, 345960, Note_on_c, 9, 59, 0
4, 346610, Note_on_c, 9, 62, 96
4, 346615, Note_on_c, 9, 59, 79
4, 346925, Note_on_c, 9, 62, 0
4, 347082, Note_on_c, 9, 59, 0
4, 347210, Note_on_c, 9, 75, 73
4, 347420, Note_on_c, 9, 75, 0
4, 347615, Note_on_c, 9, 59, 76
4, 347830, Note_on_c, 9, 59, 0
4, 348070, Note_on_c, 9, 59, 51
4, 348402, Note_on_c, 9, 59, 0
4, 348497, Note_on_c, 9, 53, 54
4, 348510, Note_on_c, 9, 64, 65
4, 348577, Note_on_c, 9, 75, 79
4, 348660, Note_on_c, 9, 53, 0
4, 348715, Note_on_c, 9, 64, 0
4, 348797, Note_on_c, 9, 75, 0
4, 348980, Note_on_c, 9, 59, 76
4, 348985, Note_on_c, 9, 64, 69
4, 349220, Note_on_c, 9, 64, 0
4, 349555, Note_on_c, 9, 59, 0
4, 349990, Note_on_c, 9, 59, 64
4, 350036, Note_on_c, 9, 75, 73
4, 350243, Note_on_c, 9, 75, 0
4, 350430, Note_on_c, 9, 62, 92
4, 350642, Note_on_c, 9, 59, 0
4, 350735, Note_on_c, 9, 62, 0
4, 350930, Note_on_c, 9, 53, 60
4, 351202, Note_on_c, 9, 53, 0
4, 351425, Note_on_c, 9, 59, 58
4, 351472, Note_on_c, 9, 75, 76
4, 351627, Note_on_c, 9, 59, 0
4, 351669, Note_on_c, 9, 75, 0
4, 351860, Note_on_c, 9, 59, 62
4, 352230, Note_on_c, 9, 59, 0
4, 352275, Note_on_c, 9, 63, 65
4, 352360, Note_on_c, 9, 53, 57
4, 352455, Note_on_c, 9, 53, 0
4, 352480, Note_on_c, 9, 63, 0
4, 352765, Note_on_c, 9, 63, 77
4, 352810, Note_on_c, 9, 53, 68
4, 353065, Note_on_c, 9, 63, 0
4, 353167, Note_on_c, 9, 53, 0
4, 353300, Note_on_c, 9, 59, 58
4, 353382, Note_on_c, 9, 75, 78
4, 353582, Note_on_c, 9, 75, 0
4, 353830, Note_on_c, 9, 59, 0
4, 354257, Note_on_c, 9, 59, 67
4, 354260, Note_on_c, 9, 62, 92
4, 354550, Note_on_c, 9, 62, 0
4, 354757, Note_on_c, 9, 75, 78
4, 354875, Note_on_c, 9, 59, 0
4, 354982, Note_on_c, 9, 75, 0
4, 355270, Note_on_c, 9, 59, 50
4, 355442, Note_on_c, 9, 59, 0
4, 355640, Note_on_c, 9, 59, 50
4, 355937, Note_on_c, 9, 59, 0
4, 356155, Note_on_c, 9, 64, 73
4, 356193, Note_on_c, 9, 75, 79
4, 356267, Note_on_c, 9, 59, 24
4, 356337, Note_on_c, 9, 59, 0
4, 356355, Note_on_c, 9, 64, 0
4, 356392, Note_on_c, 9, 75, 0
4, 356660, Note_on_c, 9, 64, 73
4, 356685, Note_on_c, 9, 59, 76
4, 356940, Note_on_c, 9, 64, 0
4, 357007, Note_on_c, 9, 59, 0
4, 357705, Note_on_c, 9, 59, 69
4, 358110, Note_on_c, 9, 62, 94
4, 358128, Note_on_c, 9, 75, 76
4, 358132, Note_on_c, 9, 59, 0
4, 358338, Note_on_c, 9, 75, 0
4, 358390, Note_on_c, 9, 62, 0
4, 358632, Note_on_c, 9, 59, 68
4, 358847, Note_on_c, 9, 59, 0
4, 359042, Note_on_c, 9, 59, 56
4, 359045, Note_on_c, 9, 64, 58
4, 359250, Note_on_c, 9, 64, 0
4, 359312, Note_on_c, 9, 59, 0
4, 359507, Note_on_c, 9, 59, 57
4, 359617, Note_on_c, 9, 59, 0
4, 359646, Note_on_c, 9, 75, 80
4, 359745, Note_on_c, 9, 64, 58
4, 359851, Note_on_c, 9, 75, 0
4, 359955, Note_on_c, 9, 64, 0
4, 359957, Note_on_c, 9, 59, 84
4, 360400, Note_on_c, 9, 64, 58
4, 360527, Note_on_c, 9, 59, 0
4, 360640, Note_on_c, 9, 64, 0
4, 360993, Note_on_c, 9, 75, 79
4, 361047, Note_on_c, 9, 59, 64
4, 361190, Note_on_c, 9, 75, 0
4, 361272, Note_on_c, 9, 59, 0
4, 361490, Note_on_c, 9, 59, 37
4, 361650, Note_on_c, 9, 59, 0
4, 361970, Note_on_c, 9, 62, 96
4, 362017, Note_on_c, 9, 59, 33
4, 362100, Note_on_c, 9, 59, 0
4, 362285, Note_on_c, 9, 62, 0
4, 362439, Note_on_c, 9, 75, 80
4, 362472, Note_on_c, 9, 59, 87
4, 362662, Note_on_c, 9, 75, 0
4, 363085, Note_on_c, 9, 59, 0
4, 363407, Note_on_c, 9, 59, 43
4, 363500, Note_on_c, 9, 59, 0
4, 363850, Note_on_c, 9, 59, 54
4, 363870, Note_on_c, 9, 64, 65
4, 363927, Note_on_c, 9, 75, 80
4, 364022, Note_on_c, 9, 59, 0
4, 364075, Note_on_c, 9, 64, 0
4, 364134, Note_on_c, 9, 75, 0
4, 364322, Note_on_c, 9, 59, 77
4, 364345, Note_on_c, 9, 64, 69
4, 364580, Note_on_c, 9, 64, 0
4, 364930, Note_on_c, 9, 59, 0
4, 365315, Note_on_c, 9, 59, 82
4, 365790, Note_on_c, 9, 62, 92
4, 365949, Note_on_c, 9, 75, 79
4, 365980, Note_on_c, 9, 59, 0
4, 366095, Note_on_c, 9, 62, 0
4, 366151, Note_on_c, 9, 75, 0
4, 366262, Note_on_c, 9, 59, 80
4, 366880, Note_on_c, 9, 59, 0
4, 367305, Note_on_c, 9, 59, 79
4, 367357, Note_on_c, 9, 75, 73
4, 367530, Note_on_c, 9, 59, 0
4, 367608, Note_on_c, 9, 75, 0
4, 367635, Note_on_c, 9, 63, 65
4, 367752, Note_on_c, 9, 59, 53
4, 367840, Note_on_c, 9, 63, 0
4, 367985, Note_on_c, 9, 59, 0
4, 368125, Note_on_c, 9, 63, 77
4, 368190, Note_on_c, 9, 53, 62
4, 368357, Note_on_c, 9, 53, 0
4, 368425, Note_on_c, 9, 63, 0
4, 368630, Note_on_c, 9, 59, 53
4, 368709, Note_on_c, 9, 75, 78
4, 368916, Note_on_c, 9, 75, 0
4, 368920, Note_on_c, 9, 59, 0
4, 369612, Note_on_c, 9, 59, 68
4, 369650, Note_on_c, 9, 62, 96
4, 369965, Note_on_c, 9, 62, 0
4, 370100, Note_on_c, 9, 59, 0
4, 370135, Note_on_c, 9, 75, 70
4, 370473, Note_on_c, 9, 75, 0
4, 370585, Note_on_c, 9, 59, 76
4, 370892, Note_on_c, 9, 59, 0
4, 371062, Note_on_c, 9, 53, 56
4, 371265, Note_on_c, 9, 53, 0
4, 371550, Note_on_c, 9, 64, 65
4, 371566, Note_on_c, 9, 75, 74
4, 371755, Note_on_c, 9, 64, 0
4, 371799, Note_on_c, 9, 75, 0
4, 372025, Note_on_c, 9, 64, 69
4, 372035, Note_on_c, 9, 59, 84
4, 372260, Note_on_c, 9, 64, 0
4, 372600, Note_on_c, 9, 59, 0
4, 373047, Note_on_c, 9, 59, 82
4, 373470, Note_on_c, 9, 62, 92
4, 373488, Note_on_c, 9, 75, 76
4, 373525, Note_on_c, 9, 59, 0
4, 373685, Note_on_c, 9, 75, 0
4, 373775, Note_on_c, 9, 62, 0
4, 373965, Note_on_c, 9, 59, 83
4, 374195, Note_on_c, 9, 59, 0
4, 374435, Note_on_c, 9, 59, 67
4, 374947, Note_on_c, 9, 59, 0
4, 375001, Note_on_c, 9, 75, 73
4, 375201, Note_on_c, 9, 75, 0
4, 375315, Note_on_c, 9, 63, 65
4, 375402, Note_on_c, 9, 53, 63
4, 375432, Note_on_c, 9, 59, 71
4, 375520, Note_on_c, 9, 63, 0
4, 375730, Note_on_c, 9, 59, 0
4, 375805, Note_on_c, 9, 63, 77
4, 375917, Note_on_c, 9, 53, 0
4, 375972, Note_on_c, 9, 59, 69
4, 376105, Note_on_c, 9, 63, 0
4, 376272, Note_on_c, 9, 59, 0
4, 376332, Note_on_c, 9, 75, 79
4, 376527, Note_on_c, 9, 75, 0
4, 376857, Note_on_c, 9, 59, 70
4, 376872, Note_on_c, 9, 53, 70
4, 377190, Note_on_c, 9, 59, 0
4, 377200, Note_on_c, 9, 53, 0
4, 377300, Note_on_c, 9, 62, 92
4, 377355, Note_on_c, 9, 59, 46
4, 377590, Note_on_c, 9, 62, 0
4, 377825, Note_on_c, 9, 75, 73
4, 377830, Note_on_c, 9, 59, 0
4, 378068, Note_on_c, 9, 75, 0
4, 378255, Note_on_c, 9, 59, 79
4, 378557, Note_on_c, 9, 59, 0
4, 378735, Note_on_c, 9, 59, 57
4, 378957, Note_on_c, 9, 59, 0
4, 379190, Note_on_c, 9, 59, 37
4, 379195, Note_on_c, 9, 64, 73
4, 379235, Note_on_c, 9, 75, 78
4, 379395, Note_on_c, 9, 64, 0
4, 379410, Note_on_c, 9, 59, 0
4, 379438, Note_on_c, 9, 75, 0
4, 379700, Note_on_c, 9, 64, 73
4, 379735, Note_on_c, 9, 59, 89
4, 379980, Note_on_c, 9, 64, 0
4, 380397, Note_on_c, 9, 59, 0
4, 380677, Note_on_c, 9, 59, 58
4, 380842, Note_on_c, 9, 59, 0
4, 381067, Note_on_c, 9, 59, 35
4, 381132, Note_on_c, 9, 75, 78
4, 381150, Note_on_c, 9, 62, 94
4, 381330, Note_on_c, 9, 75, 0
4, 381402, Note_on_c, 9, 59, 0
4, 381430, Note_on_c, 9, 62, 0
4, 381620, Note_on_c, 9, 59, 71
4, 381647, Note_on_c, 9, 53, 65
4, 382085, Note_on_c, 9, 64, 58
4, 382245, Note_on_c, 9, 53, 0
4, 382260, Note_on_c, 9, 59, 0
4, 382290, Note_on_c, 9, 64, 0
4, 382600, Note_on_c, 9, 59, 73
4, 382612, Note_on_c, 9, 53, 76
4, 382785, Note_on_c, 9, 64, 58
4, 382885, Note_on_c, 9, 59, 0
4, 382995, Note_on_c, 9, 64, 0
4, 383104, Note_on_c, 9, 75, 84
4, 383212, Note_on_c, 9, 53, 0
4, 383291, Note_on_c, 9, 75, 0
4, 383440, Note_on_c, 9, 64, 58
4, 383540, Note_on_c, 9, 53, 73
4, 383552, Note_on_c, 9, 59, 72
4, 383680, Note_on_c, 9, 64, 0
4, 383862, Note_on_c, 9, 59, 0
4, 383865, Note_on_c, 9, 53, 0
4, 384037, Note_on_c, 9, 59, 64
4, 384050, Note_on_c, 9, 53, 55
4, 384535, Note_on_c, 9, 59, 0
4, 384577, Note_on_c, 9, 53, 0
4, 384588, Note_on_c, 9, 75, 83
4, 384770, Note_on_c, 9, 75, 0
4, 384990, Note_on_c, 9, 59, 68
4, 385010, Note_on_c, 9, 62, 96
4, 385292, Note_on_c, 9, 59, 0
4, 385325, Note_on_c, 9, 62, 0
4, 385457, Note_on_c, 9, 59, 64
4, 385690, Note_on_c, 9, 59, 0
4, 385885, Note_on_c, 9, 59, 55
4, 385979, Note_on_c, 9, 75, 80
4, 386168, Note_on_c, 9, 75, 0
4, 386217, Note_on_c, 9, 59, 0
4, 386430, Note_on_c, 9, 59, 68
4, 386442, Note_on_c, 9, 53, 62
4, 386840, Note_on_c, 9, 53, 0
4, 386890, Note_on_c, 9, 59, 0
4, 386910, Note_on_c, 9, 64, 65
4, 387115, Note_on_c, 9, 64, 0
4, 387367, Note_on_c, 9, 53, 57
4, 387385, Note_on_c, 9, 64, 69
4, 387395, Note_on_c, 9, 59, 79
4, 387620, Note_on_c, 9, 64, 0
4, 387820, Note_on_c, 9, 53, 0
4, 387895, Note_on_c, 9, 59, 0
4, 387922, Note_on_c, 9, 75, 74
4, 388093, Note_on_c, 9, 75, 0
4, 388320, Note_on_c, 9, 53, 65
4, 388357, Note_on_c, 9, 59, 78
4, 388775, Note_on_c, 9, 59, 0
4, 388830, Note_on_c, 9, 62, 92
4, 388885, Note_on_c, 9, 53, 0
4, 389135, Note_on_c, 9, 62, 0
4, 389307, Note_on_c, 9, 59, 57
4, 389378, Note_on_c, 9, 75, 75
4, 389397, Note_on_c, 9, 59, 0
4, 389716, Note_on_c, 9, 75, 0
4, 389725, Note_on_c, 9, 53, 57
4, 389740, Note_on_c, 9, 59, 74
4, 390117, Note_on_c, 9, 59, 0
4, 390127, Note_on_c, 9, 53, 0
4, 390672, Note_on_c, 9, 59, 52
4, 390675, Note_on_c, 9, 63, 65
4, 390830, Note_on_c, 9, 75, 73
4, 390867, Note_on_c, 9, 59, 0
4, 390880, Note_on_c, 9, 63, 0
4, 391040, Note_on_c, 9, 75, 0
4, 391165, Note_on_c, 9, 63, 77
4, 391200, Note_on_c, 9, 59, 85
4, 391465, Note_on_c, 9, 63, 0
4, 391775, Note_on_c, 9, 59, 0
4, 392147, Note_on_c, 9, 59, 62
4, 392320, Note_on_c, 9, 59, 0
4, 392540, Note_on_c, 9, 59, 39
4, 392660, Note_on_c, 9, 62, 92
4, 392785, Note_on_c, 9, 59, 0
4, 392788, Note_on_c, 9, 75, 73
4, 392950, Note_on_c, 9, 62, 0
4, 392983, Note_on_c, 9, 75, 0
4, 393087, Note_on_c, 9, 59, 52
4, 393150, Note_on_c, 9, 59, 0
4, 393582, Note_on_c, 9, 59, 81
4, 394085, Note_on_c, 9, 59, 0
4, 394155, Note_on_c, 9, 75, 74
4, 394327, Note_on_c, 9, 75, 0
4, 394502, Note_on_c, 9, 59, 28
4, 394555, Note_on_c, 9, 64, 73
4, 394635, Note_on_c, 9, 59, 0
4, 394755, Note_on_c, 9, 64, 0
4, 395040, Note_on_c, 9, 59, 87
4, 395060, Note_on_c, 9, 64, 73
4, 395340, Note_on_c, 9, 64, 0
4, 395777, Note_on_c, 9, 59, 0
4, 396062, Note_on_c, 9, 59, 53
4, 396207, Note_on_c, 9, 59, 0
4, 396208, Note_on_c, 9, 75, 75
4, 396362, Note_on_c, 9, 75, 0
4, 396497, Note_on_c, 9, 59, 35
4, 396510, Note_on_c, 9, 62, 94
4, 396707, Note_on_c, 9, 59, 0
4, 396790, Note_on_c, 9, 62, 0
4, 396992, Note_on_c, 9, 59, 62
4, 397200, Note_on_c, 9, 59, 0
4, 397445, Note_on_c, 9, 64, 58
4, 397452, Note_on_c, 9, 59, 54
4, 397465, Note_on_c, 9, 75, 78
4, 397632, Note_on_c, 9, 75, 0
4, 397650, Note_on_c, 9, 64, 0
4, 397720, Note_on_c, 9, 59, 0
4, 397922, Note_on_c, 9, 53, 44
4, 397952, Note_on_c, 9, 59, 72
4, 397967, Note_on_c, 9, 52, 35
4, 398032, Note_on_c, 9, 52, 0
4, 398145, Note_on_c, 9, 64, 58
4, 398205, Note_on_c, 9, 59, 0
4, 398252, Note_on_c, 9, 53, 0
4, 398355, Note_on_c, 9, 64, 0
4, 398390, Note_on_c, 9, 53, 62
4, 398415, Note_on_c, 9, 59, 65
4, 398800, Note_on_c, 9, 64, 58
4, 398802, Note_on_c, 9, 59, 0
4, 399040, Note_on_c, 9, 64, 0
4, 399040, Note_on_c, 9, 53, 0
4, 399315, Note_on_c, 9, 59, 53
4, 399413, Note_on_c, 9, 75, 82
4, 399595, Note_on_c, 9, 75, 0
4, 399670, Note_on_c, 9, 59, 0
4, 399852, Note_on_c, 9, 59, 72
4, 400255, Note_on_c, 9, 59, 0
4, 400370, Note_on_c, 9, 62, 96
4, 400685, Note_on_c, 9, 62, 0
4, 400852, Note_on_c, 9, 59, 80
4, 400855, Note_on_c, 9, 75, 75
4, 400875, Note_on_c, 9, 53, 64
4, 401057, Note_on_c, 9, 75, 0
4, 401370, Note_on_c, 9, 59, 0
4, 401402, Note_on_c, 9, 53, 0
4, 401770, Note_on_c, 9, 59, 56
4, 401917, Note_on_c, 9, 59, 0
4, 402220, Note_on_c, 9, 59, 48
4, 402270, Note_on_c, 9, 64, 65
4, 402278, Note_on_c, 9, 75, 78
4, 402473, Note_on_c, 9, 75, 0
4, 402475, Note_on_c, 9, 64, 0
4, 402487, Note_on_c, 9, 59, 0
4, 402740, Note_on_c, 9, 59, 79
4, 402745, Note_on_c, 9, 64, 69
4, 402980, Note_on_c, 9, 64, 0
4, 403455, Note_on_c, 9, 59, 0
4, 403720, Note_on_c, 9, 59, 60
4, 403937, Note_on_c, 9, 59, 0
4, 404190, Note_on_c, 9, 59, 47
4, 404190, Note_on_c, 9, 62, 92
4, 404234, Note_on_c, 9, 75, 76
4, 404395, Note_on_c, 9, 59, 0
4, 404397, Note_on_c, 9, 75, 0
4, 404495, Note_on_c, 9, 62, 0
4, 404662, Note_on_c, 9, 59, 77
4, 404915, Note_on_c, 9, 59, 0
4, 405130, Note_on_c, 9, 59, 67
4, 405597, Note_on_c, 9, 59, 0
4, 405737, Note_on_c, 9, 75, 80
4, 405941, Note_on_c, 9, 75, 0
4, 406035, Note_on_c, 9, 63, 65
4, 406137, Note_on_c, 9, 59, 81
4, 406240, Note_on_c, 9, 63, 0
4, 406445, Note_on_c, 9, 59, 0
4, 406525, Note_on_c, 9, 63, 77
4, 406612, Note_on_c, 9, 59, 56
4, 406825, Note_on_c, 9, 63, 0
4, 406982, Note_on_c, 9, 59, 0
4, 407082, Note_on_c, 9, 59, 20
4, 407160, Note_on_c, 9, 75, 78
4, 407312, Note_on_c, 9, 59, 0
4, 407334, Note_on_c, 9, 75, 0
4, 407587, Note_on_c, 9, 59, 79
4, 407900, Note_on_c, 9, 59, 0
4, 408020, Note_on_c, 9, 62, 92
4, 408055, Note_on_c, 9, 59, 50
4, 408225, Note_on_c, 9, 59, 0
4, 408310, Note_on_c, 9, 62, 0
4, 408532, Note_on_c, 9, 59, 55
4, 408622, Note_on_c, 9, 75, 79
4, 408695, Note_on_c, 9, 59, 0
4, 408844, Note_on_c, 9, 75, 0
4, 408995, Note_on_c, 9, 59, 84
4, 409587, Note_on_c, 9, 59, 0
4, 409915, Note_on_c, 9, 64, 73
4, 409930, Note_on_c, 9, 59, 47
4, 410014, Note_on_c, 9, 75, 75
4, 410115, Note_on_c, 9, 64, 0
4, 410137, Note_on_c, 9, 59, 0
4, 410206, Note_on_c, 9, 75, 0
4, 410392, Note_on_c, 9, 59, 77
4, 410420, Note_on_c, 9, 64, 73
4, 410700, Note_on_c, 9, 64, 0
4, 411045, Note_on_c, 9, 59, 0
4, 411367, Note_on_c, 9, 59, 54
4, 411607, Note_on_c, 9, 59, 0
4, 411822, Note_on_c, 9, 59, 64
4, 411870, Note_on_c, 9, 62, 94
4, 411914, Note_on_c, 9, 75, 79
4, 412045, Note_on_c, 9, 59, 0
4, 412103, Note_on_c, 9, 75, 0
4, 412150, Note_on_c, 9, 62, 0
4, 412285, Note_on_c, 9, 59, 81
4, 412572, Note_on_c, 9, 59, 0
4, 412782, Note_on_c, 9, 59, 68
4, 412805, Note_on_c, 9, 64, 58
4, 413010, Note_on_c, 9, 64, 0
4, 413167, Note_on_c, 9, 59, 0
4, 413285, Note_on_c, 9, 59, 34
4, 413394, Note_on_c, 9, 75, 78
4, 413482, Note_on_c, 9, 59, 0
4, 413496, Note_on_c, 9, 76, 32
4, 413505, Note_on_c, 9, 64, 58
4, 413552, Note_on_c, 9, 75, 0
4, 413591, Note_on_c, 9, 76, 0
4, 413715, Note_on_c, 9, 64, 0
4, 413752, Note_on_c, 9, 59, 81
4, 414087, Note_on_c, 9, 59, 0
4, 414160, Note_on_c, 9, 64, 58
4, 414260, Note_on_c, 9, 59, 75
4, 414400, Note_on_c, 9, 64, 0
4, 414570, Note_on_c, 9, 59, 0
4, 414730, Note_on_c, 9, 59, 68
4, 414845, Note_on_c, 9, 75, 76
4, 415027, Note_on_c, 9, 75, 0
4, 415102, Note_on_c, 9, 59, 0
4, 415282, Note_on_c, 9, 59, 43
4, 415402, Note_on_c, 9, 59, 0
4, 415730, Note_on_c, 9, 62, 96
4, 415812, Note_on_c, 9, 59, 26
4, 415950, Note_on_c, 9, 59, 0
4, 416045, Note_on_c, 9, 62, 0
4, 416217, Note_on_c, 9, 59, 83
4, 416291, Note_on_c, 9, 75, 78
4, 416512, Note_on_c, 9, 75, 0
4, 416957, Note_on_c, 9, 59, 0
4, 417160, Note_on_c, 9, 59, 40
4, 417245, Note_on_c, 9, 59, 0
4, 417630, Note_on_c, 9, 64, 65
4, 417660, Note_on_c, 9, 59, 82
4, 417702, Note_on_c, 9, 75, 78
4, 417835, Note_on_c, 9, 64, 0
4, 417904, Note_on_c, 9, 75, 0
4, 417990, Note_on_c, 9, 59, 0
4, 418105, Note_on_c, 9, 64, 69
4, 418140, Note_on_c, 9, 59, 62
4, 418340, Note_on_c, 9, 64, 0
4, 418845, Note_on_c, 9, 59, 0
4, 419132, Note_on_c, 9, 59, 83
4, 419470, Note_on_c, 9, 59, 0
4, 419550, Note_on_c, 9, 62, 92
4, 419594, Note_on_c, 9, 75, 80
4, 419799, Note_on_c, 9, 75, 0
4, 419855, Note_on_c, 9, 62, 0
4, 420017, Note_on_c, 9, 59, 59
4, 420192, Note_on_c, 9, 59, 0
4, 420445, Note_on_c, 9, 59, 58
4, 420870, Note_on_c, 9, 59, 0
4, 420972, Note_on_c, 9, 53, 60
4, 421066, Note_on_c, 9, 75, 78
4, 421289, Note_on_c, 9, 75, 0
4, 421362, Note_on_c, 9, 53, 0
4, 421392, Note_on_c, 9, 59, 33
4, 421395, Note_on_c, 9, 63, 65
4, 421600, Note_on_c, 9, 63, 0
4, 421727, Note_on_c, 9, 59, 0
4, 421885, Note_on_c, 9, 63, 77
4, 421892, Note_on_c, 9, 53, 65
4, 422185, Note_on_c, 9, 63, 0
4, 422387, Note_on_c, 9, 53, 0
4, 422410, Note_on_c, 9, 75, 78
4, 422415, Note_on_c, 9, 59, 60
4, 422589, Note_on_c, 9, 75, 0
4, 422755, Note_on_c, 9, 59, 0
4, 422945, Note_on_c, 9, 59, 42
4, 423070, Note_on_c, 9, 59, 0
4, 423310, Note_on_c, 9, 59, 60
4, 423380, Note_on_c, 9, 62, 92
4, 423632, Note_on_c, 9, 59, 0
4, 423670, Note_on_c, 9, 62, 0
4, 423850, Note_on_c, 9, 59, 80
4, 423923, Note_on_c, 9, 75, 74
4, 424179, Note_on_c, 9, 75, 0
4, 424647, Note_on_c, 9, 59, 0
4, 424790, Note_on_c, 9, 53, 63
4, 425115, Note_on_c, 9, 53, 0
4, 425265, Note_on_c, 9, 59, 34
4, 425275, Note_on_c, 9, 64, 73
4, 425338, Note_on_c, 9, 75, 76
4, 425475, Note_on_c, 9, 64, 0
4, 425554, Note_on_c, 9, 75, 0
4, 425562, Note_on_c, 9, 59, 0
4, 425760, Note_on_c, 9, 59, 70
4, 425780, Note_on_c, 9, 64, 73
4, 426010, Note_on_c, 9, 59, 0
4, 426060, Note_on_c, 9, 64, 0
4, 426245, Note_on_c, 9, 59, 71
4, 426625, Note_on_c, 9, 59, 0
4, 426715, Note_on_c, 9, 53, 45
4, 427190, Note_on_c, 9, 53, 0
4, 427230, Note_on_c, 9, 62, 94
4, 427261, Note_on_c, 9, 75, 82
4, 427270, Note_on_c, 9, 59, 54
4, 427461, Note_on_c, 9, 75, 0
4, 427510, Note_on_c, 9, 62, 0
4, 427557, Note_on_c, 9, 59, 0
4, 427760, Note_on_c, 9, 53, 70
4, 428165, Note_on_c, 9, 64, 58
4, 428370, Note_on_c, 9, 64, 0
4, 428512, Note_on_c, 9, 53, 0
4, 428665, Note_on_c, 9, 59, 74
4, 428784, Note_on_c, 9, 75, 75
4, 428865, Note_on_c, 9, 64, 58
4, 428967, Note_on_c, 9, 59, 0
4, 428989, Note_on_c, 9, 75, 0
4, 429075, Note_on_c, 9, 64, 0
4, 429142, Note_on_c, 9, 59, 58
4, 429410, Note_on_c, 9, 59, 0
4, 429520, Note_on_c, 9, 64, 58
4, 429607, Note_on_c, 9, 53, 53
4, 429760, Note_on_c, 9, 64, 0
4, 429815, Note_on_c, 9, 53, 0
4, 430102, Note_on_c, 9, 59, 74
4, 430246, Note_on_c, 9, 75, 78
4, 430446, Note_on_c, 9, 75, 0
4, 430460, Note_on_c, 9, 59, 0
4, 430650, Note_on_c, 9, 59, 54
4, 430745, Note_on_c, 9, 59, 0
4, 431022, Note_on_c, 9, 59, 49
4, 431090, Note_on_c, 9, 62, 96
4, 431380, Note_on_c, 9, 59, 0
4, 431405, Note_on_c, 9, 62, 0
4, 431600, Note_on_c, 9, 59, 79
4, 431675, Note_on_c, 9, 75, 76
4, 431892, Note_on_c, 9, 75, 0
4, 432462, Note_on_c, 9, 59, 0
4, 432542, Note_on_c, 9, 53, 55
4, 432842, Note_on_c, 9, 53, 0
4, 432990, Note_on_c, 9, 64, 65
4, 433000, Note_on_c, 9, 59, 55
4, 433044, Note_on_c, 9, 75, 80
4, 433195, Note_on_c, 9, 64, 0
4, 433236, Note_on_c, 9, 75, 0
4, 433260, Note_on_c, 9, 59, 0
4, 433465, Note_on_c, 9, 64, 69
4, 433505, Note_on_c, 9, 59, 73
4, 433700, Note_on_c, 9, 64, 0
4, 434197, Note_on_c, 9, 59, 0
4, 434455, Note_on_c, 9, 59, 64
4, 434710, Note_on_c, 9, 59, 0
4, 434905, Note_on_c, 9, 59, 55
4, 434910, Note_on_c, 9, 62, 92
4, 434939, Note_on_c, 9, 75, 78
4, 435136, Note_on_c, 9, 75, 0
4, 435215, Note_on_c, 9, 62, 0
4, 435220, Note_on_c, 9, 59, 0
4, 435367, Note_on_c, 9, 53, 63
4, 435840, Note_on_c, 9, 59, 58
4, 435842, Note_on_c, 9, 53, 0
4, 436290, Note_on_c, 9, 53, 58
4, 436292, Note_on_c, 9, 59, 0
4, 436449, Note_on_c, 9, 75, 74
4, 436637, Note_on_c, 9, 53, 0
4, 436715, Note_on_c, 9, 75, 0
4, 436755, Note_on_c, 9, 63, 65
4, 436807, Note_on_c, 9, 59, 66
4, 436960, Note_on_c, 9, 63, 0
4, 437070, Note_on_c, 9, 59, 0
4, 437245, Note_on_c, 9, 63, 77
4, 437262, Note_on_c, 9, 59, 70
4, 437545, Note_on_c, 9, 63, 0
4, 437610, Note_on_c, 9, 59, 0
4, 437770, Note_on_c, 9, 59, 72
4, 437846, Note_on_c, 9, 75, 76
4, 438041, Note_on_c, 9, 75, 0
4, 438242, Note_on_c, 9, 59, 0
4, 438270, Note_on_c, 9, 53, 58
4, 438630, Note_on_c, 9, 53, 0
4, 438740, Note_on_c, 9, 59, 51
4, 438740, Note_on_c, 9, 62, 92
4, 438912, Note_on_c, 9, 59, 0
4, 439030, Note_on_c, 9, 62, 0
4, 439227, Note_on_c, 9, 59, 88
4, 439331, Note_on_c, 9, 75, 76
4, 439587, Note_on_c, 9, 75, 0
4, 440147, Note_on_c, 9, 59, 0
4, 440185, Note_on_c, 9, 53, 53
4, 440552, Note_on_c, 9, 53, 0
4, 440635, Note_on_c, 9, 64, 73
4, 440665, Note_on_c, 9, 59, 68
4, 440665, Note_on_c, 9, 75, 80
4, 440835, Note_on_c, 9, 64, 0
4, 440867, Note_on_c, 9, 75, 0
4, 441007, Note_on_c, 9, 59, 0
4, 441140, Note_on_c, 9, 64, 73
4, 441160, Note_on_c, 9, 59, 73
4, 441420, Note_on_c, 9, 64, 0
4, 441992, Note_on_c, 9, 59, 0
4, 442162, Note_on_c, 9, 53, 66
4, 442590, Note_on_c, 9, 62, 94
4, 442598, Note_on_c, 9, 75, 76
4, 442777, Note_on_c, 9, 75, 0
4, 442870, Note_on_c, 9, 62, 0
4, 442980, Note_on_c, 9, 53, 0
4, 443067, Note_on_c, 9, 59, 73
4, 443525, Note_on_c, 9, 64, 58
4, 443730, Note_on_c, 9, 64, 0
4, 444015, Note_on_c, 9, 53, 68
4, 444057, Note_on_c, 9, 59, 0
4, 444144, Note_on_c, 9, 75, 78
4, 444225, Note_on_c, 9, 64, 58
4, 444344, Note_on_c, 9, 75, 0
4, 444435, Note_on_c, 9, 64, 0
4, 444490, Note_on_c, 9, 59, 54
4, 444497, Note_on_c, 9, 53, 0
4, 444780, Note_on_c, 9, 59, 0
4, 444880, Note_on_c, 9, 64, 58
4, 444972, Note_on_c, 9, 59, 71
4, 445120, Note_on_c, 9, 64, 0
4, 445227, Note_on_c, 9, 59, 0
4, 445435, Note_on_c, 9, 59, 72
4, 445915, Note_on_c, 9, 59, 0
4, 446421, Note_on_c, 9, 59, 69
4, 446508, Note_on_c, 9, 59, 0
4, 446908, Note_on_c, 9, 59, 77
4, 447122, Note_on_c, 9, 59, 0
4, 447950, Note_on_c, 9, 59, 68
4, 448111, Note_on_c, 9, 59, 0
4, 448850, Note_on_c, 9, 59, 77
4, 449044, Note_on_c, 9, 59, 0
4, 449315, Note_on_c, 9, 59, 61
4, 449505, Note_on_c, 9, 59, 0
4, 449786, Note_on_c, 9, 53, 76
4, 450253, Note_on_c, 9, 64, 49
4, 450350, Note_on_c, 9, 53, 0
4, 450352, Note_on_c, 9, 64, 0
4, 450717, Note_on_c, 9, 59, 81
4, 450755, Note_on_c, 9, 64, 59
4, 450870, Note_on_c, 9, 64, 0
4, 451430, Note_on_c, 9, 59, 0
4, 451776, Note_on_c, 9, 59, 64
4, 451888, Note_on_c, 9, 59, 0
4, 452154, Note_on_c, 9, 62, 59
4, 452234, Note_on_c, 9, 59, 38
4, 452373, Note_on_c, 9, 59, 0
4, 452418, Note_on_c, 9, 62, 0
4, 452685, Note_on_c, 9, 53, 59
4, 452870, Note_on_c, 9, 53, 0
4, 453177, Note_on_c, 9, 53, 50
4, 453189, Note_on_c, 9, 75, 61
4, 453413, Note_on_c, 9, 75, 0
4, 453473, Note_on_c, 9, 53, 0
4, 454118, Note_on_c, 9, 64, 41
4, 454132, Note_on_c, 9, 59, 72
4, 454316, Note_on_c, 9, 64, 0
4, 454372, Note_on_c, 9, 59, 0
4, 454634, Note_on_c, 9, 53, 26
4, 454636, Note_on_c, 9, 75, 59
4, 454705, Note_on_c, 9, 64, 52
4, 454809, Note_on_c, 9, 53, 0
4, 454864, Note_on_c, 9, 75, 0
4, 454871, Note_on_c, 9, 64, 0
4, 455092, Note_on_c, 9, 53, 43
4, 455443, Note_on_c, 9, 53, 0
4, 455975, Note_on_c, 9, 63, 73
4, 455989, Note_on_c, 9, 62, 79
4, 456069, Note_on_c, 9, 75, 55
4, 456110, Note_on_c, 9, 59, 57
4, 456203, Note_on_c, 9, 62, 0
4, 456242, Note_on_c, 9, 59, 0
4, 456354, Note_on_c, 9, 63, 0
4, 456355, Note_on_c, 9, 75, 0
4, 456596, Note_on_c, 9, 63, 74
4, 456602, Note_on_c, 9, 53, 48
4, 456618, Note_on_c, 9, 62, 77
4, 456700, Note_on_c, 9, 53, 0
4, 456810, Note_on_c, 9, 62, 0
4, 456978, Note_on_c, 9, 63, 0
4, 457063, Note_on_c, 9, 53, 44
4, 457674, Note_on_c, 9, 62, 33
4, 457760, Note_on_c, 9, 62, 0
4, 457826, Note_on_c, 9, 53, 0
4, 457991, Note_on_c, 9, 75, 70
4, 458039, Note_on_c, 9, 59, 68
4, 458101, Note_on_c, 9, 64, 58
4, 458162, Note_on_c, 9, 59, 0
4, 458275, Note_on_c, 9, 75, 0
4, 458360, Note_on_c, 9, 64, 0
4, 458507, Note_on_c, 9, 53, 59
4, 458632, Note_on_c, 9, 64, 87
4, 458673, Note_on_c, 9, 53, 0
4, 458896, Note_on_c, 9, 64, 0
4, 458959, Note_on_c, 9, 53, 31
4, 459443, Note_on_c, 9, 62, 84
4, 459457, Note_on_c, 9, 63, 85
4, 459499, Note_on_c, 9, 75, 75
4, 459637, Note_on_c, 9, 62, 0
4, 459815, Note_on_c, 9, 53, 0
4, 459815, Note_on_c, 9, 75, 0
4, 459868, Note_on_c, 9, 63, 0
4, 459933, Note_on_c, 9, 59, 85
4, 460039, Note_on_c, 9, 59, 0
4, 460158, Note_on_c, 9, 63, 77
4, 460187, Note_on_c, 9, 62, 90
4, 460372, Note_on_c, 9, 51, 64
4, 460484, Note_on_c, 9, 62, 0
4, 460516, Note_on_c, 9, 51, 0
4, 460650, Note_on_c, 9, 63, 0
4, 460857, Note_on_c, 9, 51, 77
4, 460871, Note_on_c, 9, 75, 73
4, 460929, Note_on_c, 9, 62, 78
4, 460943, Note_on_c, 9, 63, 80
4, 461200, Note_on_c, 9, 75, 0
4, 461202, Note_on_c, 9, 62, 0
4, 461205, Note_on_c, 9, 51, 0
4, 461423, Note_on_c, 9, 63, 0
4, 461589, Note_on_c, 9, 63, 54
4, 461600, Note_on_c, 9, 62, 63
4, 461682, Note_on_c, 9, 62, 0
4, 461863, Note_on_c, 9, 51, 86
4, 461872, Note_on_c, 9, 63, 0
4, 462307, Note_on_c, 9, 75, 54
4, 462331, Note_on_c, 9, 51, 0
4, 462640, Note_on_c, 9, 75, 0
4, 463205, Note_on_c, 9, 51, 82
4, 463471, Note_on_c, 9, 51, 0
4, 463722, Note_on_c, 9, 64, 58
4, 463727, Note_on_c, 9, 75, 70
4, 463948, Note_on_c, 9, 64, 0
4, 464030, Note_on_c, 9, 75, 0
4, 464241, Note_on_c, 9, 51, 72
4, 464279, Note_on_c, 9, 64, 74
4, 464385, Note_on_c, 9, 51, 0
4, 464548, Note_on_c, 9, 64, 0
4, 464709, Note_on_c, 9, 51, 75
4, 465148, Note_on_c, 9, 51, 0
4, 465638, Note_on_c, 9, 63, 58
4, 465652, Note_on_c, 9, 62, 43
4, 465664, Note_on_c, 9, 51, 92
4, 465676, Note_on_c, 9, 75, 77
4, 465812, Note_on_c, 9, 62, 0
4, 465986, Note_on_c, 9, 75, 0
4, 466028, Note_on_c, 9, 63, 0
4, 466055, Note_on_c, 9, 51, 0
4, 466622, Note_on_c, 9, 51, 80
4, 466900, Note_on_c, 9, 51, 0
4, 467121, Note_on_c, 9, 75, 81
4, 467198, Note_on_c, 9, 51, 52
4, 467279, Note_on_c, 9, 51, 0
4, 467416, Note_on_c, 9, 75, 0
4, 467588, Note_on_c, 9, 64, 46
4, 467848, Note_on_c, 9, 64, 0
4, 468100, Note_on_c, 9, 64, 71
4, 468117, Note_on_c, 9, 51, 90
4, 468336, Note_on_c, 9, 51, 0
4, 468340, Note_on_c, 9, 64, 0
4, 468563, Note_on_c, 9, 75, 77
4, 468773, Note_on_c, 9, 75, 0
4, 469041, Note_on_c, 9, 51, 79
4, 469363, Note_on_c, 9, 51, 0
4, 469396, Note_on_c, 9, 62, 22
4, 469427, Note_on_c, 9, 63, 48
4, 469588, Note_on_c, 9, 62, 0
4, 469748, Note_on_c, 9, 63, 0
4, 469965, Note_on_c, 9, 51, 75
4, 469979, Note_on_c, 9, 63, 39
4, 469982, Note_on_c, 9, 62, 58
4, 469987, Note_on_c, 9, 75, 70
4, 470063, Note_on_c, 9, 62, 0
4, 470133, Note_on_c, 9, 51, 0
4, 470183, Note_on_c, 9, 63, 0
4, 470289, Note_on_c, 9, 75, 0
4, 470443, Note_on_c, 9, 51, 40
4, 470594, Note_on_c, 9, 51, 0
4, 471005, Note_on_c, 9, 51, 27
4, 471080, Note_on_c, 9, 62, 25
4, 471117, Note_on_c, 9, 51, 0
4, 471169, Note_on_c, 9, 62, 0
4, 471412, Note_on_c, 9, 51, 69
4, 471422, Note_on_c, 9, 75, 70
4, 471457, Note_on_c, 9, 64, 43
4, 471695, Note_on_c, 9, 75, 0
4, 471717, Note_on_c, 9, 51, 0
4, 471743, Note_on_c, 9, 64, 0
4, 471973, Note_on_c, 9, 64, 77
4, 471986, Note_on_c, 9, 51, 34
4, 472070, Note_on_c, 9, 51, 0
4, 472214, Note_on_c, 9, 64, 0
4, 472387, Note_on_c, 9, 51, 75
4, 472720, Note_on_c, 9, 51, 0
4, 472929, Note_on_c, 9, 51, 34
4, 473022, Note_on_c, 9, 62, 34
4, 473025, Note_on_c, 9, 51, 0
4, 473108, Note_on_c, 9, 62, 0
4, 473392, Note_on_c, 9, 51, 38
4, 473392, Note_on_c, 9, 75, 74
4, 473483, Note_on_c, 9, 51, 0
4, 473640, Note_on_c, 9, 75, 0
4, 473903, Note_on_c, 9, 51, 77
4, 473999, Note_on_c, 9, 63, 59
4, 474064, Note_on_c, 9, 51, 0
4, 474083, Note_on_c, 9, 63, 0
4, 474350, Note_on_c, 9, 51, 77
4, 474689, Note_on_c, 9, 51, 0
4, 474818, Note_on_c, 9, 75, 70
4, 474897, Note_on_c, 9, 53, 76
4, 475130, Note_on_c, 9, 75, 0
4, 475209, Note_on_c, 9, 53, 0
4, 475754, Note_on_c, 9, 51, 68
4, 475814, Note_on_c, 9, 64, 76
4, 475924, Note_on_c, 9, 51, 0
4, 476008, Note_on_c, 9, 64, 0
4, 476246, Note_on_c, 9, 51, 65
4, 476293, Note_on_c, 9, 64, 75
4, 476610, Note_on_c, 9, 64, 0
4, 476781, Note_on_c, 9, 51, 0
4, 477199, Note_on_c, 9, 51, 75
4, 477422, Note_on_c, 9, 51, 0
4, 477727, Note_on_c, 9, 51, 37
4, 477798, Note_on_c, 9, 63, 71
4, 477835, Note_on_c, 9, 51, 0
4, 477863, Note_on_c, 9, 75, 84
4, 477956, Note_on_c, 9, 63, 0
4, 478034, Note_on_c, 9, 75, 0
4, 478312, Note_on_c, 9, 63, 68
4, 478718, Note_on_c, 9, 51, 78
4, 478736, Note_on_c, 9, 63, 0
4, 478948, Note_on_c, 9, 51, 0
4, 479183, Note_on_c, 9, 75, 81
4, 479198, Note_on_c, 9, 64, 33
4, 479296, Note_on_c, 9, 64, 0
4, 479404, Note_on_c, 9, 75, 0
4, 479635, Note_on_c, 9, 51, 75
4, 479665, Note_on_c, 9, 64, 98
4, 479810, Note_on_c, 9, 51, 0
4, 480098, Note_on_c, 9, 51, 65
4, 480371, Note_on_c, 9, 64, 0
4, 480590, Note_on_c, 9, 51, 0
4, 481063, Note_on_c, 9, 75, 88
4, 481089, Note_on_c, 9, 51, 48
4, 481171, Note_on_c, 9, 51, 0
4, 481307, Note_on_c, 9, 75, 0
4, 481518, Note_on_c, 9, 63, 87
4, 481571, Note_on_c, 9, 51, 78
4, 481703, Note_on_c, 9, 51, 0
4, 481909, Note_on_c, 9, 63, 0
4, 482042, Note_on_c, 9, 51, 79
4, 482401, Note_on_c, 9, 63, 84
4, 482459, Note_on_c, 9, 75, 78
4, 482512, Note_on_c, 9, 51, 0
4, 482663, Note_on_c, 9, 63, 0
4, 482846, Note_on_c, 9, 75, 0
4, 482860, Note_on_c, 9, 51, 44
4, 482942, Note_on_c, 9, 51, 0
4, 483422, Note_on_c, 9, 51, 79
4, 483571, Note_on_c, 9, 51, 0
4, 483854, Note_on_c, 9, 75, 82
4, 483921, Note_on_c, 9, 51, 76
4, 484125, Note_on_c, 9, 75, 0
4, 484415, Note_on_c, 9, 51, 0
4, 484814, Note_on_c, 9, 51, 32
4, 484895, Note_on_c, 9, 51, 0
4, 485306, Note_on_c, 9, 75, 75
4, 485339, Note_on_c, 9, 51, 82
4, 485392, Note_on_c, 9, 64, 95
4, 485515, Note_on_c, 9, 51, 0
4, 485598, Note_on_c, 9, 64, 0
4, 485635, Note_on_c, 9, 75, 0
4, 485846, Note_on_c, 9, 51, 80
4, 486389, Note_on_c, 9, 51, 0
4, 486400, Note_on_c, 9, 61, 28
4, 486633, Note_on_c, 9, 61, 0
4, 486737, Note_on_c, 9, 51, 54
4, 486803, Note_on_c, 9, 75, 77
4, 486817, Note_on_c, 9, 63, 49
4, 486818, Note_on_c, 9, 51, 0
4, 487014, Note_on_c, 9, 63, 0
4, 487060, Note_on_c, 9, 75, 0
4, 487300, Note_on_c, 9, 51, 78
4, 487302, Note_on_c, 9, 63, 98
4, 487466, Note_on_c, 9, 51, 0
4, 487686, Note_on_c, 9, 63, 0
4, 487799, Note_on_c, 9, 51, 76
4, 488165, Note_on_c, 9, 51, 0
4, 488634, Note_on_c, 9, 64, 41
4, 488704, Note_on_c, 9, 75, 83
4, 488766, Note_on_c, 9, 64, 0
4, 488920, Note_on_c, 9, 75, 0
4, 489167, Note_on_c, 9, 51, 79
4, 489181, Note_on_c, 9, 64, 112
4, 489311, Note_on_c, 9, 51, 0
4, 489645, Note_on_c, 9, 51, 73
4, 489865, Note_on_c, 9, 64, 0
4, 490116, Note_on_c, 9, 75, 78
4, 490259, Note_on_c, 9, 51, 0
4, 490403, Note_on_c, 9, 75, 0
4, 490645, Note_on_c, 9, 63, 61
4, 490811, Note_on_c, 9, 63, 0
4, 491032, Note_on_c, 9, 51, 77
4, 491176, Note_on_c, 9, 51, 0
4, 491204, Note_on_c, 9, 63, 96
4, 491425, Note_on_c, 9, 63, 0
4, 491469, Note_on_c, 9, 51, 74
4, 491524, Note_on_c, 9, 75, 85
4, 491805, Note_on_c, 9, 75, 0
4, 492107, Note_on_c, 9, 51, 0
4, 492556, Note_on_c, 9, 51, 71
4, 492765, Note_on_c, 9, 51, 0
4, 493029, Note_on_c, 9, 75, 81
4, 493055, Note_on_c, 9, 51, 60
4, 493091, Note_on_c, 9, 64, 127
4, 493106, Note_on_c, 9, 53, 63
4, 493389, Note_on_c, 9, 51, 0
4, 493399, Note_on_c, 9, 75, 0
4, 493557, Note_on_c, 9, 53, 0
4, 493760, Note_on_c, 9, 64, 0
4, 494040, Note_on_c, 9, 51, 61
4, 494065, Note_on_c, 9, 63, 65
4, 494200, Note_on_c, 9, 63, 0
4, 494272, Note_on_c, 9, 51, 0
4, 494468, Note_on_c, 9, 63, 70
4, 494524, Note_on_c, 9, 75, 85
4, 494632, Note_on_c, 9, 63, 0
4, 494788, Note_on_c, 9, 75, 0
4, 494969, Note_on_c, 9, 51, 56
4, 495004, Note_on_c, 9, 53, 30
4, 495045, Note_on_c, 9, 63, 94
4, 495184, Note_on_c, 9, 51, 0
4, 495311, Note_on_c, 9, 53, 0
4, 495342, Note_on_c, 9, 63, 0
4, 495544, Note_on_c, 9, 51, 60
4, 496012, Note_on_c, 9, 51, 0
4, 496084, Note_on_c, 9, 64, 38
4, 496182, Note_on_c, 9, 64, 0
4, 496442, Note_on_c, 9, 51, 72
4, 496463, Note_on_c, 9, 75, 88
4, 496609, Note_on_c, 9, 64, 23
4, 496691, Note_on_c, 9, 64, 0
4, 496703, Note_on_c, 9, 75, 0
4, 496763, Note_on_c, 9, 51, 0
4, 496958, Note_on_c, 9, 51, 72
4, 497032, Note_on_c, 9, 64, 104
4, 497303, Note_on_c, 9, 51, 0
4, 497327, Note_on_c, 9, 61, 25
4, 497471, Note_on_c, 9, 61, 0
4, 497581, Note_on_c, 9, 64, 0
4, 497909, Note_on_c, 9, 75, 85
4, 497920, Note_on_c, 9, 51, 70
4, 497965, Note_on_c, 9, 62, 100
4, 497968, Note_on_c, 9, 63, 85
4, 498091, Note_on_c, 9, 51, 0
4, 498141, Note_on_c, 9, 75, 0
4, 498164, Note_on_c, 9, 62, 0
4, 498200, Note_on_c, 9, 63, 0
4, 498331, Note_on_c, 9, 51, 48
4, 498511, Note_on_c, 9, 51, 0
4, 498854, Note_on_c, 9, 51, 56
4, 498925, Note_on_c, 9, 62, 98
4, 498935, Note_on_c, 9, 63, 83
4, 498984, Note_on_c, 9, 51, 0
4, 499098, Note_on_c, 9, 62, 0
4, 499204, Note_on_c, 9, 63, 0
4, 499312, Note_on_c, 9, 51, 74
4, 499327, Note_on_c, 9, 75, 94
4, 499603, Note_on_c, 9, 75, 0
4, 499752, Note_on_c, 9, 51, 0
4, 499787, Note_on_c, 9, 64, 75
4, 500058, Note_on_c, 9, 64, 0
4, 500258, Note_on_c, 9, 51, 73
4, 500663, Note_on_c, 9, 51, 0
4, 500694, Note_on_c, 9, 64, 74
4, 500745, Note_on_c, 9, 75, 77
4, 501002, Note_on_c, 9, 75, 0
4, 501121, Note_on_c, 9, 64, 0
4, 501204, Note_on_c, 9, 51, 68
4, 501419, Note_on_c, 9, 51, 0
4, 501671, Note_on_c, 9, 64, 57
4, 501705, Note_on_c, 9, 51, 59
4, 501707, Note_on_c, 9, 53, 63
4, 501757, Note_on_c, 9, 64, 0
4, 502058, Note_on_c, 9, 51, 0
4, 502103, Note_on_c, 9, 75, 84
4, 502139, Note_on_c, 9, 53, 0
4, 502346, Note_on_c, 9, 75, 0
4, 502581, Note_on_c, 9, 51, 70
4, 502616, Note_on_c, 9, 62, 52
4, 502698, Note_on_c, 9, 62, 0
4, 502999, Note_on_c, 9, 51, 0
4, 503200, Note_on_c, 9, 63, 45
4, 503228, Note_on_c, 9, 62, 44
4, 503286, Note_on_c, 9, 63, 0
4, 503310, Note_on_c, 9, 62, 0
4, 503534, Note_on_c, 9, 51, 64
4, 503541, Note_on_c, 9, 53, 67
4, 503858, Note_on_c, 9, 51, 0
4, 503903, Note_on_c, 9, 53, 0
4, 504014, Note_on_c, 9, 75, 85
4, 504140, Note_on_c, 9, 64, 53
4, 504213, Note_on_c, 9, 75, 0
4, 504244, Note_on_c, 9, 64, 0
4, 504515, Note_on_c, 9, 51, 64
4, 504678, Note_on_c, 9, 64, 74
4, 504722, Note_on_c, 9, 51, 0
4, 504854, Note_on_c, 9, 64, 0
4, 505007, Note_on_c, 9, 51, 67
4, 505255, Note_on_c, 9, 51, 0
4, 505468, Note_on_c, 9, 51, 57
4, 505502, Note_on_c, 9, 75, 82
4, 505583, Note_on_c, 9, 63, 39
4, 505585, Note_on_c, 9, 62, 52
4, 505643, Note_on_c, 9, 51, 0
4, 505664, Note_on_c, 9, 62, 0
4, 505715, Note_on_c, 9, 75, 0
4, 505717, Note_on_c, 9, 63, 0
4, 505924, Note_on_c, 9, 51, 78
4, 506111, Note_on_c, 9, 64, 21
4, 506216, Note_on_c, 9, 64, 0
4, 506258, Note_on_c, 9, 51, 0
4, 506579, Note_on_c, 9, 64, 70
4, 506745, Note_on_c, 9, 64, 0
4, 506908, Note_on_c, 9, 51, 90
4, 506942, Note_on_c, 9, 75, 90
4, 507223, Note_on_c, 9, 75, 0
4, 507302, Note_on_c, 9, 51, 0
4, 507911, Note_on_c, 9, 51, 90
4, 507976, Note_on_c, 9, 64, 80
4, 508132, Note_on_c, 9, 51, 0
4, 508146, Note_on_c, 9, 64, 0
4, 508411, Note_on_c, 9, 75, 79
4, 508435, Note_on_c, 9, 51, 57
4, 508456, Note_on_c, 9, 64, 85
4, 508567, Note_on_c, 9, 51, 0
4, 508662, Note_on_c, 9, 64, 0
4, 508691, Note_on_c, 9, 75, 0
4, 509359, Note_on_c, 9, 51, 77
4, 509558, Note_on_c, 9, 51, 0
4, 509802, Note_on_c, 9, 63, 46
4, 509819, Note_on_c, 9, 51, 50
4, 509831, Note_on_c, 9, 75, 82
4, 509937, Note_on_c, 9, 51, 0
4, 510037, Note_on_c, 9, 63, 0
4, 510052, Note_on_c, 9, 75, 0
4, 510302, Note_on_c, 9, 51, 88
4, 510313, Note_on_c, 9, 63, 71
4, 510366, Note_on_c, 9, 62, 55
4, 510606, Note_on_c, 9, 62, 0
4, 510630, Note_on_c, 9, 63, 0
4, 510633, Note_on_c, 9, 51, 0
4, 511252, Note_on_c, 9, 51, 85
4, 511471, Note_on_c, 9, 51, 0
4, 511677, Note_on_c, 9, 51, 51
4, 511684, Note_on_c, 9, 64, 46
4, 511723, Note_on_c, 9, 75, 85
4, 511819, Note_on_c, 9, 51, 0
4, 511905, Note_on_c, 9, 75, 0
4, 511916, Note_on_c, 9, 64, 0
4, 512198, Note_on_c, 9, 51, 80
4, 512202, Note_on_c, 9, 64, 82
4, 512354, Note_on_c, 9, 51, 0
4, 512702, Note_on_c, 9, 51, 78
4, 512860, Note_on_c, 9, 51, 0
4, 512898, Note_on_c, 9, 64, 0
4, 513168, Note_on_c, 9, 75, 77
4, 513182, Note_on_c, 9, 51, 61
4, 513271, Note_on_c, 9, 51, 0
4, 513388, Note_on_c, 9, 75, 0
4, 513642, Note_on_c, 9, 63, 49
4, 513659, Note_on_c, 9, 62, 45
4, 513681, Note_on_c, 9, 51, 100
4, 513992, Note_on_c, 9, 62, 0
4, 513995, Note_on_c, 9, 63, 0
4, 514184, Note_on_c, 9, 63, 75
4, 514213, Note_on_c, 9, 62, 85
4, 514267, Note_on_c, 9, 51, 0
4, 514465, Note_on_c, 9, 62, 0
4, 514571, Note_on_c, 9, 63, 0
4, 514619, Note_on_c, 9, 75, 91
4, 514840, Note_on_c, 9, 75, 0
4, 515171, Note_on_c, 9, 51, 98
4, 515546, Note_on_c, 9, 51, 0
4, 515696, Note_on_c, 9, 64, 45
4, 515924, Note_on_c, 9, 64, 0
4, 516083, Note_on_c, 9, 51, 67
4, 516132, Note_on_c, 9, 75, 74
4, 516200, Note_on_c, 9, 64, 73
4, 516233, Note_on_c, 9, 51, 0
4, 516372, Note_on_c, 9, 75, 0
4, 516650, Note_on_c, 9, 51, 100
4, 517084, Note_on_c, 9, 51, 0
4, 517367, Note_on_c, 9, 64, 0
4, 517559, Note_on_c, 9, 75, 84
4, 517564, Note_on_c, 9, 51, 28
4, 517619, Note_on_c, 9, 62, 73
4, 517646, Note_on_c, 9, 51, 0
4, 517700, Note_on_c, 9, 62, 0
4, 517759, Note_on_c, 9, 75, 0
4, 518047, Note_on_c, 9, 51, 95
4, 518108, Note_on_c, 9, 64, 75
4, 518190, Note_on_c, 9, 64, 0
4, 518361, Note_on_c, 9, 51, 0
4, 518978, Note_on_c, 9, 51, 23
4, 519059, Note_on_c, 9, 51, 0
4, 519437, Note_on_c, 9, 51, 79
4, 519467, Note_on_c, 9, 75, 90
4, 519674, Note_on_c, 9, 75, 0
4, 519777, Note_on_c, 9, 51, 0
4, 519868, Note_on_c, 9, 64, 78
4, 520871, Note_on_c, 9, 51, 76
4, 520900, Note_on_c, 9, 75, 81
4, 520900, Note_on_c, 9, 53, 71
4, 520938, Note_on_c, 9, 64, 0
4, 521097, Note_on_c, 9, 75, 0
4, 521147, Note_on_c, 9, 51, 0
4, 521171, Note_on_c, 9, 53, 0
4, 521341, Note_on_c, 9, 62, 92
4, 521622, Note_on_c, 9, 62, 0
4, 521810, Note_on_c, 9, 51, 47
4, 521939, Note_on_c, 9, 51, 0
4, 522283, Note_on_c, 9, 75, 86
4, 522377, Note_on_c, 9, 51, 78
4, 522401, Note_on_c, 9, 53, 70
4, 522428, Note_on_c, 9, 64, 55
4, 522467, Note_on_c, 9, 75, 0
4, 522515, Note_on_c, 9, 64, 0
4, 522816, Note_on_c, 9, 51, 0
4, 522847, Note_on_c, 9, 53, 0
4, 523255, Note_on_c, 9, 51, 51
4, 523406, Note_on_c, 9, 51, 0
4, 523778, Note_on_c, 9, 51, 77
4, 523787, Note_on_c, 9, 64, 78
4, 523790, Note_on_c, 9, 53, 74
4, 523807, Note_on_c, 9, 75, 82
4, 523871, Note_on_c, 9, 64, 0
4, 524025, Note_on_c, 9, 75, 0
4, 524140, Note_on_c, 9, 51, 0
4, 524169, Note_on_c, 9, 53, 0
4, 524286, Note_on_c, 9, 64, 66
4, 524639, Note_on_c, 9, 64, 0
4, 524707, Note_on_c, 9, 51, 65
4, 524867, Note_on_c, 9, 51, 0
4, 525181, Note_on_c, 9, 62, 79
4, 525196, Note_on_c, 9, 75, 85
4, 525201, Note_on_c, 9, 51, 78
4, 525209, Note_on_c, 9, 53, 69
4, 525383, Note_on_c, 9, 75, 0
4, 525618, Note_on_c, 9, 62, 0
4, 525619, Note_on_c, 9, 51, 0
4, 525626, Note_on_c, 9, 53, 0
4, 526132, Note_on_c, 9, 51, 45
4, 526216, Note_on_c, 9, 51, 0
4, 526268, Note_on_c, 9, 64, 23
4, 526367, Note_on_c, 9, 64, 0
4, 526658, Note_on_c, 9, 51, 80
4, 526672, Note_on_c, 9, 53, 79
4, 527032, Note_on_c, 9, 51, 0
4, 527075, Note_on_c, 9, 53, 0
4, 527121, Note_on_c, 9, 75, 79
4, 527190, Note_on_c, 9, 64, 64
4, 527299, Note_on_c, 9, 75, 0
4, 527353, Note_on_c, 9, 64, 0
4, 527644, Note_on_c, 9, 51, 59
4, 527697, Note_on_c, 9, 64, 70
4, 527791, Note_on_c, 9, 51, 0
4, 528115, Note_on_c, 9, 51, 82
4, 528122, Note_on_c, 9, 53, 76
4, 528229, Note_on_c, 9, 64, 0
4, 528587, Note_on_c, 9, 51, 0
4, 528607, Note_on_c, 9, 53, 0
4, 528962, Note_on_c, 9, 75, 86
4, 528983, Note_on_c, 9, 62, 65
4, 529010, Note_on_c, 9, 51, 62
4, 529123, Note_on_c, 9, 75, 0
4, 529168, Note_on_c, 9, 51, 0
4, 529261, Note_on_c, 9, 62, 0
4, 529504, Note_on_c, 9, 62, 70
4, 529523, Note_on_c, 9, 51, 88
4, 529540, Note_on_c, 9, 53, 82
4, 529748, Note_on_c, 9, 62, 0
4, 529920, Note_on_c, 9, 51, 0
4, 529927, Note_on_c, 9, 53, 0
4, 529960, Note_on_c, 9, 75, 86
4, 530121, Note_on_c, 9, 75, 0
4, 530414, Note_on_c, 9, 51, 59
4, 530589, Note_on_c, 9, 51, 0
4, 530920, Note_on_c, 9, 64, 34
4, 530925, Note_on_c, 9, 51, 44
4, 531253, Note_on_c, 9, 64, 0
4, 531333, Note_on_c, 9, 51, 0
4, 531369, Note_on_c, 9, 75, 91
4, 531452, Note_on_c, 9, 64, 83
4, 531595, Note_on_c, 9, 75, 0
4, 531887, Note_on_c, 9, 51, 63
4, 532065, Note_on_c, 9, 51, 0
4, 532177, Note_on_c, 9, 64, 0
4, 532727, Note_on_c, 9, 62, 71
4, 532771, Note_on_c, 9, 75, 92
4, 532819, Note_on_c, 9, 51, 76
4, 532975, Note_on_c, 9, 75, 0
4, 532976, Note_on_c, 9, 62, 0
4, 533001, Note_on_c, 9, 51, 0
4, 533279, Note_on_c, 9, 62, 101
4, 533344, Note_on_c, 9, 51, 82
4, 533526, Note_on_c, 9, 62, 0
4, 533601, Note_on_c, 9, 51, 0
4, 534212, Note_on_c, 9, 62, 22
4, 534321, Note_on_c, 9, 62, 0
4, 534335, Note_on_c, 9, 51, 78
4, 534554, Note_on_c, 9, 51, 0
4, 534763, Note_on_c, 9, 75, 84
4, 534803, Note_on_c, 9, 64, 33
4, 534883, Note_on_c, 9, 51, 28
4, 534957, Note_on_c, 9, 75, 0
4, 534969, Note_on_c, 9, 51, 0
4, 535098, Note_on_c, 9, 64, 0
4, 535302, Note_on_c, 9, 64, 74
4, 535346, Note_on_c, 9, 51, 68
4, 535502, Note_on_c, 9, 51, 0
4, 535766, Note_on_c, 9, 51, 81
4, 536263, Note_on_c, 9, 75, 82
4, 536264, Note_on_c, 9, 64, 0
4, 536277, Note_on_c, 9, 51, 0
4, 536469, Note_on_c, 9, 75, 0
4, 536666, Note_on_c, 9, 51, 83
4, 536699, Note_on_c, 9, 62, 52
4, 536718, Note_on_c, 9, 63, 39
4, 536865, Note_on_c, 9, 51, 0
4, 537008, Note_on_c, 9, 63, 0
4, 537026, Note_on_c, 9, 62, 0
4, 537213, Note_on_c, 9, 51, 61
4, 537224, Note_on_c, 9, 63, 54
4, 537263, Note_on_c, 9, 62, 66
4, 537448, Note_on_c, 9, 51, 0
4, 537452, Note_on_c, 9, 62, 0
4, 537508, Note_on_c, 9, 63, 0
4, 537616, Note_on_c, 9, 51, 77
4, 537650, Note_on_c, 9, 75, 82
4, 537844, Note_on_c, 9, 75, 0
4, 538142, Note_on_c, 9, 51, 0
4, 538180, Note_on_c, 9, 62, 26
4, 538321, Note_on_c, 9, 62, 0
4, 538600, Note_on_c, 9, 64, 67
4, 538607, Note_on_c, 9, 51, 54
4, 538699, Note_on_c, 9, 51, 0
4, 539032, Note_on_c, 9, 64, 0
4, 539128, Note_on_c, 9, 51, 91
4, 539133, Note_on_c, 9, 75, 81
4, 539207, Note_on_c, 9, 64, 84
4, 539339, Note_on_c, 9, 75, 0
4, 539471, Note_on_c, 9, 51, 0
4, 540093, Note_on_c, 9, 51, 91
4, 540140, Note_on_c, 9, 64, 0
4, 540417, Note_on_c, 9, 51, 0
4, 540541, Note_on_c, 9, 63, 39
4, 540561, Note_on_c, 9, 75, 85
4, 540601, Note_on_c, 9, 62, 17
4, 540712, Note_on_c, 9, 62, 0
4, 540751, Note_on_c, 9, 75, 0
4, 540803, Note_on_c, 9, 63, 0
4, 541014, Note_on_c, 9, 63, 76
4, 541034, Note_on_c, 9, 51, 85
4, 541043, Note_on_c, 9, 53, 82
4, 541045, Note_on_c, 9, 62, 82
4, 541293, Note_on_c, 9, 62, 0
4, 541386, Note_on_c, 9, 63, 0
4, 541490, Note_on_c, 9, 51, 0
4, 541557, Note_on_c, 9, 53, 0
4, 542018, Note_on_c, 9, 51, 80
4, 542308, Note_on_c, 9, 51, 0
4, 542449, Note_on_c, 9, 64, 46
4, 542486, Note_on_c, 9, 75, 85
4, 542690, Note_on_c, 9, 75, 0
4, 542795, Note_on_c, 9, 64, 0
4, 542961, Note_on_c, 9, 51, 92
4, 542973, Note_on_c, 9, 53, 85
4, 542987, Note_on_c, 9, 64, 80
4, 543362, Note_on_c, 9, 53, 0
4, 543371, Note_on_c, 9, 51, 0
4, 543779, Note_on_c, 9, 64, 0
4, 543993, Note_on_c, 9, 51, 91
4, 544027, Note_on_c, 9, 75, 94
4, 544192, Note_on_c, 9, 75, 0
4, 544307, Note_on_c, 9, 51, 0
4, 544350, Note_on_c, 9, 62, 29
4, 544544, Note_on_c, 9, 62, 0
4, 544903, Note_on_c, 9, 51, 77
4, 544904, Note_on_c, 9, 63, 84
4, 544922, Note_on_c, 9, 53, 72
4, 544931, Note_on_c, 9, 62, 88
4, 545068, Note_on_c, 9, 51, 0
4, 545092, Note_on_c, 9, 53, 0
4, 545183, Note_on_c, 9, 62, 0
4, 545269, Note_on_c, 9, 63, 0
4, 545332, Note_on_c, 9, 75, 92
4, 545378, Note_on_c, 9, 51, 84
4, 545392, Note_on_c, 9, 53, 66
4, 545498, Note_on_c, 9, 75, 0
4, 545529, Note_on_c, 9, 53, 0
4, 545740, Note_on_c, 9, 51, 0
4, 546282, Note_on_c, 9, 64, 46
4, 546331, Note_on_c, 9, 51, 84
4, 546563, Note_on_c, 9, 64, 0
4, 546659, Note_on_c, 9, 51, 0
4, 546827, Note_on_c, 9, 75, 85
4, 546858, Note_on_c, 9, 64, 71
4, 547019, Note_on_c, 9, 75, 0
4, 547293, Note_on_c, 9, 51, 50
4, 547492, Note_on_c, 9, 51, 0
4, 547648, Note_on_c, 9, 64, 0
4, 547797, Note_on_c, 9, 51, 65
4, 547994, Note_on_c, 9, 51, 0
4, 548195, Note_on_c, 9, 75, 88
4, 548239, Note_on_c, 9, 51, 35
4, 548255, Note_on_c, 9, 63, 29
4, 548279, Note_on_c, 9, 62, 30
4, 548320, Note_on_c, 9, 51, 0
4, 548399, Note_on_c, 9, 75, 0
4, 548546, Note_on_c, 9, 62, 0
4, 548550, Note_on_c, 9, 63, 0
4, 548755, Note_on_c, 9, 51, 84
4, 548771, Note_on_c, 9, 63, 80
4, 548792, Note_on_c, 9, 62, 85
4, 549066, Note_on_c, 9, 62, 0
4, 549093, Note_on_c, 9, 51, 0
4, 549179, Note_on_c, 9, 63, 0
4, 549681, Note_on_c, 9, 51, 85
4, 549947, Note_on_c, 9, 51, 0
4, 550158, Note_on_c, 9, 64, 54
4, 550161, Note_on_c, 9, 51, 35
4, 550180, Note_on_c, 9, 75, 85
4, 550250, Note_on_c, 9, 51, 0
4, 550355, Note_on_c, 9, 75, 0
4, 550418, Note_on_c, 9, 64, 0
4, 550664, Note_on_c, 9, 64, 74
4, 550675, Note_on_c, 9, 51, 25
4, 550756, Note_on_c, 9, 51, 0
4, 551042, Note_on_c, 9, 51, 87
4, 551507, Note_on_c, 9, 64, 0
4, 551555, Note_on_c, 9, 51, 0
4, 551572, Note_on_c, 9, 75, 82
4, 551793, Note_on_c, 9, 75, 0
4, 551935, Note_on_c, 9, 51, 71
4, 551975, Note_on_c, 9, 62, 29
4, 552076, Note_on_c, 9, 51, 0
4, 552090, Note_on_c, 9, 63, 17
4, 552224, Note_on_c, 9, 62, 0
4, 552236, Note_on_c, 9, 63, 0
4, 552518, Note_on_c, 9, 51, 95
4, 552563, Note_on_c, 9, 63, 70
4, 552604, Note_on_c, 9, 62, 81
4, 552832, Note_on_c, 9, 51, 0
4, 552906, Note_on_c, 9, 63, 0
4, 552911, Note_on_c, 9, 62, 0
4, 552933, Note_on_c, 9, 75, 92
4, 553149, Note_on_c, 9, 75, 0
4, 553504, Note_on_c, 9, 51, 81
4, 553732, Note_on_c, 9, 51, 0
4, 553888, Note_on_c, 9, 64, 54
4, 554202, Note_on_c, 9, 64, 0
4, 554435, Note_on_c, 9, 75, 86
4, 554435, Note_on_c, 9, 51, 86
4, 554459, Note_on_c, 9, 64, 60
4, 554618, Note_on_c, 9, 51, 0
4, 554666, Note_on_c, 9, 75, 0
4, 554942, Note_on_c, 9, 51, 84
4, 555140, Note_on_c, 9, 64, 0
4, 555398, Note_on_c, 9, 51, 0
4, 555431, Note_on_c, 9, 62, 54
4, 555472, Note_on_c, 9, 63, 30
4, 555536, Note_on_c, 9, 62, 0
4, 555558, Note_on_c, 9, 63, 0
4, 555823, Note_on_c, 9, 51, 63
4, 555849, Note_on_c, 9, 75, 91
4, 555892, Note_on_c, 9, 63, 68
4, 555894, Note_on_c, 9, 62, 70
4, 555945, Note_on_c, 9, 51, 0
4, 556061, Note_on_c, 9, 75, 0
4, 556406, Note_on_c, 9, 51, 98
4, 556463, Note_on_c, 9, 63, 0
4, 556600, Note_on_c, 9, 62, 0
4, 556605, Note_on_c, 9, 51, 0
4, 556910, Note_on_c, 9, 51, 92
4, 556938, Note_on_c, 9, 64, 50
4, 557217, Note_on_c, 9, 64, 0
4, 557330, Note_on_c, 9, 51, 0
4, 557471, Note_on_c, 9, 64, 73
4, 557481, Note_on_c, 9, 75, 96
4, 557644, Note_on_c, 9, 75, 0
4, 557743, Note_on_c, 9, 51, 42
4, 557889, Note_on_c, 9, 51, 0
4, 558200, Note_on_c, 9, 64, 0
4, 558311, Note_on_c, 9, 51, 90
4, 558501, Note_on_c, 9, 51, 0
4, 558813, Note_on_c, 9, 75, 95
4, 558815, Note_on_c, 9, 51, 90
4, 558991, Note_on_c, 9, 75, 0
4, 559351, Note_on_c, 9, 51, 0
4, 559744, Note_on_c, 9, 51, 43
4, 559843, Note_on_c, 9, 51, 0
4, 560241, Note_on_c, 9, 75, 91
4, 560251, Note_on_c, 9, 51, 87
4, 560431, Note_on_c, 9, 75, 0
4, 560471, Note_on_c, 9, 51, 0
4, 560743, Note_on_c, 9, 51, 87
4, 561218, Note_on_c, 9, 51, 0
4, 561285, Note_on_c, 9, 63, 26
4, 561366, Note_on_c, 9, 63, 0
4, 561595, Note_on_c, 9, 51, 45
4, 561655, Note_on_c, 9, 75, 92
4, 561680, Note_on_c, 9, 64, 72
4, 561724, Note_on_c, 9, 51, 0
4, 561861, Note_on_c, 9, 75, 0
4, 561882, Note_on_c, 9, 64, 0
4, 562130, Note_on_c, 9, 51, 90
4, 562187, Note_on_c, 9, 64, 74
4, 562472, Note_on_c, 9, 64, 0
4, 562703, Note_on_c, 9, 51, 0
4, 563061, Note_on_c, 9, 51, 83
4, 563078, Note_on_c, 9, 75, 83
4, 563297, Note_on_c, 9, 75, 0
4, 563457, Note_on_c, 9, 51, 0
4, 563466, Note_on_c, 9, 63, 54
4, 563478, Note_on_c, 9, 62, 67
4, 563836, Note_on_c, 9, 62, 0
4, 563862, Note_on_c, 9, 63, 0
4, 564016, Note_on_c, 9, 63, 77
4, 564021, Note_on_c, 9, 51, 92
4, 564056, Note_on_c, 9, 62, 87
4, 564429, Note_on_c, 9, 63, 0
4, 564434, Note_on_c, 9, 51, 0
4, 564460, Note_on_c, 9, 62, 0
4, 564489, Note_on_c, 9, 75, 92
4, 564688, Note_on_c, 9, 75, 0
4, 564988, Note_on_c, 9, 62, 21
4, 565007, Note_on_c, 9, 51, 79
4, 565187, Note_on_c, 9, 62, 0
4, 565216, Note_on_c, 9, 51, 0
4, 565446, Note_on_c, 9, 64, 31
4, 565555, Note_on_c, 9, 51, 82
4, 565576, Note_on_c, 9, 53, 84
4, 565751, Note_on_c, 9, 64, 0
4, 566012, Note_on_c, 9, 64, 61
4, 566128, Note_on_c, 9, 51, 0
4, 566224, Note_on_c, 9, 53, 0
4, 566476, Note_on_c, 9, 51, 52
4, 566659, Note_on_c, 9, 51, 0
4, 566826, Note_on_c, 9, 64, 0
4, 567024, Note_on_c, 9, 51, 84
4, 567052, Note_on_c, 9, 53, 82
4, 567457, Note_on_c, 9, 63, 58
4, 567535, Note_on_c, 9, 51, 0
4, 567590, Note_on_c, 9, 53, 0
4, 567640, Note_on_c, 9, 63, 0
4, 567936, Note_on_c, 9, 51, 65
4, 567944, Note_on_c, 9, 63, 98
4, 568106, Note_on_c, 9, 51, 0
4, 568374, Note_on_c, 9, 63, 0
4, 568420, Note_on_c, 9, 75, 81
4, 568439, Note_on_c, 9, 51, 82
4, 568466, Note_on_c, 9, 53, 78
4, 568576, Note_on_c, 9, 75, 0
4, 568871, Note_on_c, 9, 51, 0
4, 568977, Note_on_c, 9, 53, 0
4, 569296, Note_on_c, 9, 51, 55
4, 569356, Note_on_c, 9, 64, 32
4, 569483, Note_on_c, 9, 51, 0
4, 569622, Note_on_c, 9, 64, 0
4, 569838, Note_on_c, 9, 53, 81
4, 569856, Note_on_c, 9, 51, 76
4, 569865, Note_on_c, 9, 75, 82
4, 569886, Note_on_c, 9, 64, 89
4, 570089, Note_on_c, 9, 75, 0
4, 570196, Note_on_c, 9, 53, 0
4, 570215, Note_on_c, 9, 51, 0
4, 570794, Note_on_c, 9, 51, 82
4, 570918, Note_on_c, 9, 64, 0
4, 571031, Note_on_c, 9, 51, 0
4, 571202, Note_on_c, 9, 63, 62
4, 571252, Note_on_c, 9, 75, 92
4, 571459, Note_on_c, 9, 75, 0
4, 571520, Note_on_c, 9, 63, 0
4, 571617, Note_on_c, 9, 51, 73
4, 571727, Note_on_c, 9, 64, 81
4, 571817, Note_on_c, 9, 51, 0
4, 571909, Note_on_c, 9, 64, 0
4, 572176, Note_on_c, 9, 51, 68
4, 572711, Note_on_c, 9, 51, 0
4, 572716, Note_on_c, 9, 63, 52
4, 572884, Note_on_c, 9, 63, 0
4, 573129, Note_on_c, 9, 75, 85
4, 573146, Note_on_c, 9, 51, 85
4, 573350, Note_on_c, 9, 75, 0
4, 573614, Note_on_c, 9, 51, 0
4, 573736, Note_on_c, 9, 63, 31
4, 573817, Note_on_c, 9, 63, 0
4, 574151, Note_on_c, 9, 75, 85
4, 574163, Note_on_c, 9, 51, 64
4, 574353, Note_on_c, 9, 51, 0
4, 574408, Note_on_c, 9, 75, 0
4, 574651, Note_on_c, 9, 51, 55
4, 574727, Note_on_c, 9, 64, 28
4, 574809, Note_on_c, 9, 64, 0
4, 574855, Note_on_c, 9, 51, 0
4, 574926, Note_on_c, 9, 64, 56
4, 575015, Note_on_c, 9, 64, 0
4, 575076, Note_on_c, 9, 51, 67
4, 575142, Note_on_c, 9, 64, 82
4, 575224, Note_on_c, 9, 64, 0
4, 575284, Note_on_c, 9, 51, 0
4, 575399, Note_on_c, 9, 64, 67
4, 575480, Note_on_c, 9, 64, 0
4, 575601, Note_on_c, 9, 51, 72
4, 575646, Note_on_c, 9, 64, 55
4, 575735, Note_on_c, 9, 64, 0
4, 575781, Note_on_c, 9, 51, 0
4, 575917, Note_on_c, 9, 64, 32
4, 576006, Note_on_c, 9, 64, 0
4, 576047, Note_on_c, 9, 75, 75
4, 576059, Note_on_c, 9, 51, 82
4, 576229, Note_on_c, 9, 63, 38
4, 576261, Note_on_c, 9, 75, 0
4, 576325, Note_on_c, 9, 63, 0
4, 576482, Note_on_c, 9, 51, 0
4, 577048, Note_on_c, 9, 64, 77
4, 577048, Note_on_c, 9, 51, 87
4, 577141, Note_on_c, 9, 64, 0
4, 577379, Note_on_c, 9, 51, 0
4, 577514, Note_on_c, 9, 75, 73
4, 577554, Note_on_c, 9, 64, 88
4, 577729, Note_on_c, 9, 64, 0
4, 577754, Note_on_c, 9, 75, 0
4, 577982, Note_on_c, 9, 51, 67
4, 578179, Note_on_c, 9, 51, 0
4, 578503, Note_on_c, 9, 51, 69
4, 578548, Note_on_c, 9, 63, 63
4, 578622, Note_on_c, 9, 62, 42
4, 578664, Note_on_c, 9, 51, 0
4, 578704, Note_on_c, 9, 62, 0
4, 578711, Note_on_c, 9, 63, 0
4, 578927, Note_on_c, 9, 75, 81
4, 578969, Note_on_c, 9, 51, 74
4, 579153, Note_on_c, 9, 75, 0
4, 579189, Note_on_c, 9, 51, 0
4, 579499, Note_on_c, 9, 51, 86
4, 579765, Note_on_c, 9, 51, 0
4, 580449, Note_on_c, 9, 51, 82
4, 580694, Note_on_c, 9, 51, 0
4, 580855, Note_on_c, 9, 75, 77
4, 580921, Note_on_c, 9, 63, 45
4, 581039, Note_on_c, 9, 75, 0
4, 581089, Note_on_c, 9, 63, 0
4, 581382, Note_on_c, 9, 63, 74
4, 581392, Note_on_c, 9, 51, 76
4, 581561, Note_on_c, 9, 51, 0
4, 581644, Note_on_c, 9, 63, 0
4, 581815, Note_on_c, 9, 75, 83
4, 581880, Note_on_c, 9, 51, 82
4, 582057, Note_on_c, 9, 75, 0
4, 582333, Note_on_c, 9, 51, 0
4, 582337, Note_on_c, 9, 63, 45
4, 582419, Note_on_c, 9, 63, 0
4, 582758, Note_on_c, 9, 51, 60
4, 582926, Note_on_c, 9, 51, 0
4, 583286, Note_on_c, 9, 51, 72
4, 583744, Note_on_c, 9, 75, 73
4, 583869, Note_on_c, 9, 51, 0
4, 583915, Note_on_c, 9, 75, 0
4, 584227, Note_on_c, 9, 51, 82
4, 584549, Note_on_c, 9, 51, 0
4, 584783, Note_on_c, 9, 64, 48
4, 585030, Note_on_c, 9, 64, 0
4, 585232, Note_on_c, 9, 75, 77
4, 585263, Note_on_c, 9, 51, 44
4, 585268, Note_on_c, 9, 64, 65
4, 585410, Note_on_c, 9, 51, 0
4, 585443, Note_on_c, 9, 75, 0
4, 585464, Note_on_c, 9, 64, 0
4, 585700, Note_on_c, 9, 51, 73
4, 585959, Note_on_c, 9, 51, 0
4, 586159, Note_on_c, 9, 51, 59
4, 586490, Note_on_c, 9, 51, 0
4, 586586, Note_on_c, 9, 51, 40
4, 586619, Note_on_c, 9, 75, 80
4, 586672, Note_on_c, 9, 63, 33
4, 586674, Note_on_c, 9, 62, 48
4, 586763, Note_on_c, 9, 51, 0
4, 586821, Note_on_c, 9, 75, 0
4, 586945, Note_on_c, 9, 62, 0
4, 586955, Note_on_c, 9, 63, 0
4, 587150, Note_on_c, 9, 51, 85
4, 587752, Note_on_c, 9, 51, 0
4, 588160, Note_on_c, 9, 51, 85
4, 588227, Note_on_c, 9, 63, 24
4, 588309, Note_on_c, 9, 63, 0
4, 588521, Note_on_c, 9, 75, 82
4, 588580, Note_on_c, 9, 51, 0
4, 588661, Note_on_c, 9, 64, 53
4, 588753, Note_on_c, 9, 75, 0
4, 588899, Note_on_c, 9, 64, 0
4, 589060, Note_on_c, 9, 51, 57
4, 589170, Note_on_c, 9, 64, 65
4, 589233, Note_on_c, 9, 51, 0
4, 589360, Note_on_c, 9, 64, 0
4, 589526, Note_on_c, 9, 75, 83
4, 589553, Note_on_c, 9, 51, 67
4, 589795, Note_on_c, 9, 51, 0
4, 589814, Note_on_c, 9, 75, 0
4, 590500, Note_on_c, 9, 51, 82
4, 590584, Note_on_c, 9, 63, 49
4, 590605, Note_on_c, 9, 62, 38
4, 590689, Note_on_c, 9, 62, 0
4, 590761, Note_on_c, 9, 63, 0
4, 590771, Note_on_c, 9, 51, 0
4, 591405, Note_on_c, 9, 51, 88
4, 591415, Note_on_c, 9, 75, 82
4, 591638, Note_on_c, 9, 51, 0
4, 591645, Note_on_c, 9, 75, 0
4, 591962, Note_on_c, 9, 51, 85
4, 592197, Note_on_c, 9, 51, 0
4, 592855, Note_on_c, 9, 51, 61
4, 592898, Note_on_c, 9, 75, 71
4, 593025, Note_on_c, 9, 51, 0
4, 593165, Note_on_c, 9, 75, 0
4, 593407, Note_on_c, 9, 51, 80
4, 593656, Note_on_c, 9, 51, 0
4, 593916, Note_on_c, 9, 51, 82
4, 594194, Note_on_c, 9, 51, 0
4, 594295, Note_on_c, 9, 75, 76
4, 594323, Note_on_c, 9, 62, 84
4, 594486, Note_on_c, 9, 62, 0
4, 594525, Note_on_c, 9, 75, 0
4, 594799, Note_on_c, 9, 51, 73
4, 595010, Note_on_c, 9, 51, 0
4, 595312, Note_on_c, 9, 51, 83
4, 595591, Note_on_c, 9, 51, 0
4, 595780, Note_on_c, 9, 51, 69
4, 595859, Note_on_c, 9, 63, 53
4, 595952, Note_on_c, 9, 63, 0
4, 596039, Note_on_c, 9, 51, 0
4, 596246, Note_on_c, 9, 75, 71
4, 596269, Note_on_c, 9, 64, 52
4, 596433, Note_on_c, 9, 75, 0
4, 596521, Note_on_c, 9, 64, 0
4, 596731, Note_on_c, 9, 51, 73
4, 596768, Note_on_c, 9, 64, 70
4, 596924, Note_on_c, 9, 64, 0
4, 596939, Note_on_c, 9, 51, 0
4, 597011, Note_on_c, 9, 61, 22
4, 597186, Note_on_c, 9, 61, 0
4, 597196, Note_on_c, 9, 51, 80
4, 597199, Note_on_c, 9, 75, 76
4, 597420, Note_on_c, 9, 51, 0
4, 597424, Note_on_c, 9, 75, 0
4, 597715, Note_on_c, 9, 51, 80
4, 597921, Note_on_c, 9, 51, 0
4, 598057, Note_on_c, 9, 63, 48
4, 598067, Note_on_c, 9, 62, 46
4, 598302, Note_on_c, 9, 62, 0
4, 598326, Note_on_c, 9, 63, 0
4, 598598, Note_on_c, 9, 51, 79
4, 598802, Note_on_c, 9, 51, 0
4, 599006, Note_on_c, 9, 51, 67
4, 599025, Note_on_c, 9, 75, 74
4, 599056, Note_on_c, 9, 53, 54
4, 599219, Note_on_c, 9, 75, 0
4, 599610, Note_on_c, 9, 63, 29
4, 599627, Note_on_c, 9, 51, 0
4, 599673, Note_on_c, 9, 53, 0
4, 599692, Note_on_c, 9, 63, 0
4, 599947, Note_on_c, 9, 51, 60
4, 599996, Note_on_c, 9, 64, 59
4, 600131, Note_on_c, 9, 51, 0
4, 600306, Note_on_c, 9, 64, 0
4, 600496, Note_on_c, 9, 75, 68
4, 600506, Note_on_c, 9, 51, 77
4, 600518, Note_on_c, 9, 53, 75
4, 600546, Note_on_c, 9, 64, 60
4, 600728, Note_on_c, 9, 64, 0
4, 600765, Note_on_c, 9, 75, 0
4, 601207, Note_on_c, 9, 51, 0
4, 601238, Note_on_c, 9, 53, 0
4, 601905, Note_on_c, 9, 75, 74
4, 601934, Note_on_c, 9, 51, 54
4, 601970, Note_on_c, 9, 63, 73
4, 601998, Note_on_c, 9, 62, 74
4, 602092, Note_on_c, 9, 51, 0
4, 602114, Note_on_c, 9, 75, 0
4, 602240, Note_on_c, 9, 62, 0
4, 602366, Note_on_c, 9, 63, 0
4, 602431, Note_on_c, 9, 51, 74
4, 602443, Note_on_c, 9, 53, 71
4, 602901, Note_on_c, 9, 53, 0
4, 602903, Note_on_c, 9, 51, 0
4, 603381, Note_on_c, 9, 51, 58
4, 603544, Note_on_c, 9, 51, 0
4, 603830, Note_on_c, 9, 75, 74
4, 603923, Note_on_c, 9, 51, 83
4, 603926, Note_on_c, 9, 53, 74
4, 604039, Note_on_c, 9, 75, 0
4, 604093, Note_on_c, 9, 64, 33
4, 604196, Note_on_c, 9, 64, 0
4, 604410, Note_on_c, 9, 64, 28
4, 604415, Note_on_c, 9, 51, 0
4, 604459, Note_on_c, 9, 53, 0
4, 604492, Note_on_c, 9, 64, 0
4, 604600, Note_on_c, 9, 64, 48
4, 604705, Note_on_c, 9, 64, 0
4, 604847, Note_on_c, 9, 51, 48
4, 604855, Note_on_c, 9, 75, 74
4, 604909, Note_on_c, 9, 64, 55
4, 604939, Note_on_c, 9, 51, 0
4, 604996, Note_on_c, 9, 64, 0
4, 605119, Note_on_c, 9, 75, 0
4, 605140, Note_on_c, 9, 64, 65
4, 605228, Note_on_c, 9, 64, 0
4, 605344, Note_on_c, 9, 64, 82
4, 605387, Note_on_c, 9, 51, 81
4, 605392, Note_on_c, 9, 53, 81
4, 605435, Note_on_c, 9, 64, 0
4, 605567, Note_on_c, 9, 64, 79
4, 605644, Note_on_c, 9, 51, 0
4, 605672, Note_on_c, 9, 64, 0
4, 605693, Note_on_c, 9, 53, 0
4, 605824, Note_on_c, 9, 64, 37
4, 606088, Note_on_c, 9, 64, 0
4, 606222, Note_on_c, 9, 64, 59
4, 606278, Note_on_c, 9, 51, 70
4, 606325, Note_on_c, 9, 64, 0
4, 606426, Note_on_c, 9, 64, 35
4, 606489, Note_on_c, 9, 51, 0
4, 606522, Note_on_c, 9, 64, 0
4, 606746, Note_on_c, 9, 51, 85
4, 606748, Note_on_c, 9, 75, 77
4, 606959, Note_on_c, 9, 75, 0
4, 607413, Note_on_c, 9, 51, 0
4, 607711, Note_on_c, 9, 51, 57
4, 607847, Note_on_c, 9, 64, 50
4, 607871, Note_on_c, 9, 51, 0
4, 608027, Note_on_c, 9, 64, 0
4, 608207, Note_on_c, 9, 51, 65
4, 608248, Note_on_c, 9, 75, 77
4, 608288, Note_on_c, 9, 64, 78
4, 608431, Note_on_c, 9, 51, 0
4, 608473, Note_on_c, 9, 64, 0
4, 608498, Note_on_c, 9, 75, 0
4, 609177, Note_on_c, 9, 51, 78
4, 609345, Note_on_c, 9, 51, 0
4, 609611, Note_on_c, 9, 63, 76
4, 609638, Note_on_c, 9, 51, 48
4, 609659, Note_on_c, 9, 62, 59
4, 609662, Note_on_c, 9, 75, 78
4, 609772, Note_on_c, 9, 62, 0
4, 609811, Note_on_c, 9, 51, 0
4, 609861, Note_on_c, 9, 75, 0
4, 609916, Note_on_c, 9, 63, 0
4, 610125, Note_on_c, 9, 51, 73
4, 610310, Note_on_c, 9, 51, 0
4, 610588, Note_on_c, 9, 51, 85
4, 610951, Note_on_c, 9, 51, 0
4, 611414, Note_on_c, 9, 51, 54
4, 611517, Note_on_c, 9, 51, 0
4, 611529, Note_on_c, 9, 75, 73
4, 611709, Note_on_c, 9, 75, 0
4, 611959, Note_on_c, 9, 51, 84
4, 612155, Note_on_c, 9, 64, 65
4, 612251, Note_on_c, 9, 64, 0
4, 612359, Note_on_c, 9, 51, 0
4, 612899, Note_on_c, 9, 51, 52
4, 613003, Note_on_c, 9, 51, 0
4, 613449, Note_on_c, 9, 51, 90
4, 613540, Note_on_c, 9, 63, 58
4, 613876, Note_on_c, 9, 63, 0
4, 613893, Note_on_c, 9, 51, 0
4, 614421, Note_on_c, 9, 75, 85
4, 614428, Note_on_c, 9, 51, 85
4, 614618, Note_on_c, 9, 75, 0
4, 614879, Note_on_c, 9, 51, 0
4, 615424, Note_on_c, 9, 51, 85
4, 615488, Note_on_c, 9, 64, 48
4, 615715, Note_on_c, 9, 51, 0
4, 615793, Note_on_c, 9, 64, 0
4, 615957, Note_on_c, 9, 51, 49
4, 615962, Note_on_c, 9, 75, 75
4, 616028, Note_on_c, 9, 64, 70
4, 616094, Note_on_c, 9, 51, 0
4, 616213, Note_on_c, 9, 64, 0
4, 616238, Note_on_c, 9, 75, 0
4, 616379, Note_on_c, 9, 51, 79
4, 616963, Note_on_c, 9, 51, 0
4, 617313, Note_on_c, 9, 51, 67
4, 617383, Note_on_c, 9, 75, 77
4, 617423, Note_on_c, 9, 63, 84
4, 617440, Note_on_c, 9, 62, 83
4, 617450, Note_on_c, 9, 51, 0
4, 617589, Note_on_c, 9, 75, 0
4, 617718, Note_on_c, 9, 62, 0
4, 617759, Note_on_c, 9, 63, 0
4, 617807, Note_on_c, 9, 51, 86
4, 618513, Note_on_c, 9, 51, 0
4, 618811, Note_on_c, 9, 51, 76
4, 618961, Note_on_c, 9, 62, 28
4, 618995, Note_on_c, 9, 51, 0
4, 619045, Note_on_c, 9, 62, 0
4, 619300, Note_on_c, 9, 64, 60
4, 619310, Note_on_c, 9, 75, 78
4, 619322, Note_on_c, 9, 51, 61
4, 619409, Note_on_c, 9, 51, 0
4, 619482, Note_on_c, 9, 64, 0
4, 619499, Note_on_c, 9, 75, 0
4, 619830, Note_on_c, 9, 64, 76
4, 620243, Note_on_c, 9, 51, 85
4, 620426, Note_on_c, 9, 51, 0
4, 620521, Note_on_c, 9, 64, 0
4, 620738, Note_on_c, 9, 51, 67
4, 620774, Note_on_c, 9, 75, 76
4, 620930, Note_on_c, 9, 51, 0
4, 621050, Note_on_c, 9, 75, 0
4, 621181, Note_on_c, 9, 63, 56
4, 621201, Note_on_c, 9, 62, 48
4, 621416, Note_on_c, 9, 62, 0
4, 621428, Note_on_c, 9, 63, 0
4, 621669, Note_on_c, 9, 51, 84
4, 621830, Note_on_c, 9, 51, 0
4, 622137, Note_on_c, 9, 51, 86
4, 622171, Note_on_c, 9, 75, 83
4, 622358, Note_on_c, 9, 75, 0
4, 622634, Note_on_c, 9, 51, 0
4, 623078, Note_on_c, 9, 51, 73
4, 623231, Note_on_c, 9, 51, 0
4, 623543, Note_on_c, 9, 51, 71
4, 623587, Note_on_c, 9, 75, 77
4, 623629, Note_on_c, 9, 64, 84
4, 623771, Note_on_c, 9, 51, 0
4, 623804, Note_on_c, 9, 64, 0
4, 623855, Note_on_c, 9, 75, 0
4, 624040, Note_on_c, 9, 51, 40
4, 624187, Note_on_c, 9, 51, 0
4, 624556, Note_on_c, 9, 51, 56
4, 624719, Note_on_c, 9, 51, 0
4, 624995, Note_on_c, 9, 75, 83
4, 625012, Note_on_c, 9, 63, 48
4, 625016, Note_on_c, 9, 62, 48
4, 625019, Note_on_c, 9, 51, 77
4, 625189, Note_on_c, 9, 62, 0
4, 625208, Note_on_c, 9, 63, 0
4, 625221, Note_on_c, 9, 51, 0
4, 625226, Note_on_c, 9, 75, 0
4, 625569, Note_on_c, 9, 51, 91
4, 625802, Note_on_c, 9, 51, 0
4, 626531, Note_on_c, 9, 51, 81
4, 626894, Note_on_c, 9, 51, 0
4, 626927, Note_on_c, 9, 75, 80
4, 627104, Note_on_c, 9, 64, 28
4, 627134, Note_on_c, 9, 75, 0
4, 627186, Note_on_c, 9, 64, 0
4, 627463, Note_on_c, 9, 51, 79
4, 627691, Note_on_c, 9, 51, 0
4, 627762, Note_on_c, 9, 64, 27
4, 627858, Note_on_c, 9, 64, 0
4, 627964, Note_on_c, 9, 51, 75
4, 628076, Note_on_c, 9, 64, 26
4, 628158, Note_on_c, 9, 64, 0
4, 628273, Note_on_c, 9, 64, 67
4, 628300, Note_on_c, 9, 51, 0
4, 628355, Note_on_c, 9, 64, 0
4, 628394, Note_on_c, 9, 75, 74
4, 628456, Note_on_c, 9, 64, 72
4, 628542, Note_on_c, 9, 64, 0
4, 628665, Note_on_c, 9, 75, 0
4, 628696, Note_on_c, 9, 64, 75
4, 628777, Note_on_c, 9, 64, 0
4, 628883, Note_on_c, 9, 64, 70
4, 628924, Note_on_c, 9, 51, 74
4, 628979, Note_on_c, 9, 64, 0
4, 629121, Note_on_c, 9, 64, 61
4, 629133, Note_on_c, 9, 51, 0
4, 629378, Note_on_c, 9, 51, 79
4, 629473, Note_on_c, 9, 64, 0
4, 629550, Note_on_c, 9, 64, 51
4, 629596, Note_on_c, 9, 51, 0
4, 629648, Note_on_c, 9, 64, 0
4, 629814, Note_on_c, 9, 63, 23
4, 629824, Note_on_c, 9, 75, 78
4, 629860, Note_on_c, 9, 51, 77
4, 629889, Note_on_c, 9, 53, 87
4, 629893, Note_on_c, 9, 62, 24
4, 629975, Note_on_c, 9, 63, 0
4, 629977, Note_on_c, 9, 62, 0
4, 630040, Note_on_c, 9, 75, 0
4, 630316, Note_on_c, 9, 53, 0
4, 630355, Note_on_c, 9, 51, 0
4, 630724, Note_on_c, 9, 51, 61
4, 630791, Note_on_c, 9, 64, 74
4, 630872, Note_on_c, 9, 64, 0
4, 630899, Note_on_c, 9, 51, 0
4, 631255, Note_on_c, 9, 51, 78
4, 631289, Note_on_c, 9, 75, 74
4, 631302, Note_on_c, 9, 64, 71
4, 631310, Note_on_c, 9, 53, 81
4, 631386, Note_on_c, 9, 64, 0
4, 631538, Note_on_c, 9, 75, 0
4, 632049, Note_on_c, 9, 53, 0
4, 632191, Note_on_c, 9, 51, 0
4, 632635, Note_on_c, 9, 51, 52
4, 632651, Note_on_c, 9, 63, 44
4, 632653, Note_on_c, 9, 62, 59
4, 632702, Note_on_c, 9, 75, 79
4, 632843, Note_on_c, 9, 51, 0
4, 632903, Note_on_c, 9, 62, 0
4, 632905, Note_on_c, 9, 63, 0
4, 632942, Note_on_c, 9, 75, 0
4, 633062, Note_on_c, 9, 51, 58
4, 633235, Note_on_c, 9, 51, 0
4, 633520, Note_on_c, 9, 51, 75
4, 633758, Note_on_c, 9, 51, 0
4, 634531, Note_on_c, 9, 51, 55
4, 634564, Note_on_c, 9, 64, 55
4, 634574, Note_on_c, 9, 75, 81
4, 634756, Note_on_c, 9, 51, 0
4, 634771, Note_on_c, 9, 75, 0
4, 634808, Note_on_c, 9, 64, 0
4, 635083, Note_on_c, 9, 51, 83
4, 635104, Note_on_c, 9, 64, 71
4, 635344, Note_on_c, 9, 64, 0
4, 635623, Note_on_c, 9, 51, 0
4, 636007, Note_on_c, 9, 75, 74
4, 636038, Note_on_c, 9, 51, 77
4, 636256, Note_on_c, 9, 75, 0
4, 636415, Note_on_c, 9, 51, 0
4, 636510, Note_on_c, 9, 63, 62
4, 636611, Note_on_c, 9, 62, 29
4, 636762, Note_on_c, 9, 62, 0
4, 636810, Note_on_c, 9, 63, 0
4, 637027, Note_on_c, 9, 51, 70
4, 637264, Note_on_c, 9, 51, 0
4, 637451, Note_on_c, 9, 75, 85
4, 637511, Note_on_c, 9, 51, 69
4, 637588, Note_on_c, 9, 53, 67
4, 637675, Note_on_c, 9, 75, 0
4, 638090, Note_on_c, 9, 53, 0
4, 638147, Note_on_c, 9, 51, 0
4, 638440, Note_on_c, 9, 51, 42
4, 638656, Note_on_c, 9, 51, 0
4, 638925, Note_on_c, 9, 51, 81
4, 638968, Note_on_c, 9, 53, 69
4, 638997, Note_on_c, 9, 75, 80
4, 639078, Note_on_c, 9, 64, 45
4, 639167, Note_on_c, 9, 64, 0
4, 639266, Note_on_c, 9, 75, 0
4, 639491, Note_on_c, 9, 51, 0
4, 639496, Note_on_c, 9, 53, 0
4, 639825, Note_on_c, 9, 51, 57
4, 639916, Note_on_c, 9, 51, 0
4, 640365, Note_on_c, 9, 51, 67
4, 640391, Note_on_c, 9, 53, 76
4, 640406, Note_on_c, 9, 75, 83
4, 640456, Note_on_c, 9, 62, 69
4, 640487, Note_on_c, 9, 63, 23
4, 640615, Note_on_c, 9, 75, 0
4, 640616, Note_on_c, 9, 63, 0
4, 640640, Note_on_c, 9, 62, 0
4, 640814, Note_on_c, 9, 53, 0
4, 640915, Note_on_c, 9, 51, 0
4, 640955, Note_on_c, 9, 63, 43
4, 641010, Note_on_c, 9, 62, 47
4, 641090, Note_on_c, 9, 62, 0
4, 641154, Note_on_c, 9, 63, 0
4, 641267, Note_on_c, 9, 51, 60
4, 641428, Note_on_c, 9, 51, 0
4, 641891, Note_on_c, 9, 53, 88
4, 641901, Note_on_c, 9, 51, 79
4, 642043, Note_on_c, 9, 53, 0
4, 642261, Note_on_c, 9, 51, 0
4, 642316, Note_on_c, 9, 75, 82
4, 642364, Note_on_c, 9, 64, 63
4, 642513, Note_on_c, 9, 75, 0
4, 642680, Note_on_c, 9, 64, 0
4, 642787, Note_on_c, 9, 51, 64
4, 642863, Note_on_c, 9, 64, 82
4, 642971, Note_on_c, 9, 51, 0
4, 643098, Note_on_c, 9, 64, 0
4, 643334, Note_on_c, 9, 51, 77
4, 643360, Note_on_c, 9, 53, 80
4, 643766, Note_on_c, 9, 75, 79
4, 643891, Note_on_c, 9, 53, 0
4, 643917, Note_on_c, 9, 51, 0
4, 643987, Note_on_c, 9, 75, 0
4, 644229, Note_on_c, 9, 51, 54
4, 644231, Note_on_c, 9, 63, 61
4, 644237, Note_on_c, 9, 53, 54
4, 644281, Note_on_c, 9, 62, 72
4, 644315, Note_on_c, 9, 53, 0
4, 644409, Note_on_c, 9, 51, 0
4, 644577, Note_on_c, 9, 62, 0
4, 644653, Note_on_c, 9, 63, 0
4, 644719, Note_on_c, 9, 51, 88
4, 645194, Note_on_c, 9, 75, 83
4, 645266, Note_on_c, 9, 51, 0
4, 645410, Note_on_c, 9, 75, 0
4, 645616, Note_on_c, 9, 51, 85
4, 645769, Note_on_c, 9, 63, 50
4, 645875, Note_on_c, 9, 63, 0
4, 645909, Note_on_c, 9, 51, 0
4, 646166, Note_on_c, 9, 64, 107
4, 646571, Note_on_c, 9, 51, 84
4, 646667, Note_on_c, 9, 64, 0
4, 646670, Note_on_c, 9, 75, 78
4, 646814, Note_on_c, 9, 51, 0
4, 646903, Note_on_c, 9, 75, 0
4, 647054, Note_on_c, 9, 51, 81
4, 647544, Note_on_c, 9, 51, 0
4, 648037, Note_on_c, 9, 63, 57
4, 648071, Note_on_c, 9, 62, 72
4, 648074, Note_on_c, 9, 51, 79
4, 648119, Note_on_c, 9, 75, 75
4, 648232, Note_on_c, 9, 51, 0
4, 648333, Note_on_c, 9, 75, 0
4, 648349, Note_on_c, 9, 62, 0
4, 648392, Note_on_c, 9, 63, 0
4, 648547, Note_on_c, 9, 51, 88
4, 648640, Note_on_c, 9, 50, 38
4, 648727, Note_on_c, 9, 50, 0
4, 648765, Note_on_c, 9, 51, 0
4, 649437, Note_on_c, 9, 51, 85
4, 649605, Note_on_c, 9, 51, 0
4, 649927, Note_on_c, 9, 51, 75
4, 649994, Note_on_c, 9, 75, 76
4, 650049, Note_on_c, 9, 64, 40
4, 650147, Note_on_c, 9, 51, 0
4, 650164, Note_on_c, 9, 75, 0
4, 650171, Note_on_c, 9, 64, 0
4, 650411, Note_on_c, 9, 51, 81
4, 650550, Note_on_c, 9, 64, 72
4, 650577, Note_on_c, 9, 51, 0
4, 650889, Note_on_c, 9, 51, 93
4, 651284, Note_on_c, 9, 64, 0
4, 651326, Note_on_c, 9, 51, 0
4, 651429, Note_on_c, 9, 75, 76
4, 651623, Note_on_c, 9, 75, 0
4, 651782, Note_on_c, 9, 51, 94
4, 651844, Note_on_c, 9, 63, 57
4, 651856, Note_on_c, 9, 62, 74
4, 652010, Note_on_c, 9, 51, 0
4, 652076, Note_on_c, 9, 63, 0
4, 652079, Note_on_c, 9, 62, 0
4, 652684, Note_on_c, 9, 51, 96
4, 652759, Note_on_c, 9, 75, 85
4, 652939, Note_on_c, 9, 75, 0
4, 653042, Note_on_c, 9, 51, 0
4, 653688, Note_on_c, 9, 51, 82
4, 653812, Note_on_c, 9, 64, 62
4, 653906, Note_on_c, 9, 51, 0
4, 654129, Note_on_c, 9, 64, 0
4, 654275, Note_on_c, 9, 75, 80
4, 654328, Note_on_c, 9, 64, 75
4, 654458, Note_on_c, 9, 75, 0
4, 654596, Note_on_c, 9, 64, 0
4, 654693, Note_on_c, 9, 51, 85
4, 654945, Note_on_c, 9, 51, 0
4, 655221, Note_on_c, 9, 51, 62
4, 655334, Note_on_c, 9, 51, 0
4, 655652, Note_on_c, 9, 63, 67
4, 655665, Note_on_c, 9, 75, 84
4, 655698, Note_on_c, 9, 62, 53
4, 655842, Note_on_c, 9, 62, 0
4, 655857, Note_on_c, 9, 75, 0
4, 655900, Note_on_c, 9, 63, 0
4, 656224, Note_on_c, 9, 51, 86
4, 656419, Note_on_c, 9, 51, 0
4, 657239, Note_on_c, 9, 51, 85
4, 657482, Note_on_c, 9, 51, 0
4, 657609, Note_on_c, 9, 75, 85
4, 657635, Note_on_c, 9, 63, 44
4, 657801, Note_on_c, 9, 75, 0
4, 657810, Note_on_c, 9, 63, 0
4, 658159, Note_on_c, 9, 51, 83
4, 658300, Note_on_c, 9, 64, 47
4, 658348, Note_on_c, 9, 51, 0
4, 658391, Note_on_c, 9, 64, 0
4, 658648, Note_on_c, 9, 51, 75
4, 658964, Note_on_c, 9, 64, 35
4, 659049, Note_on_c, 9, 51, 0
4, 659056, Note_on_c, 9, 64, 0
4, 659116, Note_on_c, 9, 75, 87
4, 659204, Note_on_c, 9, 64, 33
4, 659293, Note_on_c, 9, 64, 0
4, 659323, Note_on_c, 9, 75, 0
4, 659384, Note_on_c, 9, 64, 65
4, 659476, Note_on_c, 9, 64, 0
4, 659603, Note_on_c, 9, 51, 61
4, 659605, Note_on_c, 9, 64, 67
4, 659738, Note_on_c, 9, 64, 0
4, 659862, Note_on_c, 9, 64, 59
4, 659953, Note_on_c, 9, 64, 0
4, 659971, Note_on_c, 9, 51, 0
4, 660102, Note_on_c, 9, 64, 61
4, 660122, Note_on_c, 9, 59, 52
4, 660304, Note_on_c, 9, 64, 0
4, 660307, Note_on_c, 9, 59, 0
4, 660371, Note_on_c, 9, 64, 51
4, 660460, Note_on_c, 9, 64, 0
4, 660551, Note_on_c, 9, 75, 84
4, 660587, Note_on_c, 9, 51, 61
4, 660734, Note_on_c, 9, 75, 0
4, 660866, Note_on_c, 9, 51, 0
4, 661142, Note_on_c, 9, 51, 70
4, 661379, Note_on_c, 9, 51, 0
4, 661511, Note_on_c, 9, 63, 45
4, 661542, Note_on_c, 9, 62, 77
4, 661622, Note_on_c, 9, 62, 0
4, 661622, Note_on_c, 9, 51, 70
4, 661684, Note_on_c, 9, 63, 0
4, 661859, Note_on_c, 9, 51, 0
4, 662003, Note_on_c, 9, 75, 80
4, 662220, Note_on_c, 9, 75, 0
4, 662459, Note_on_c, 9, 51, 80
4, 663071, Note_on_c, 9, 51, 0
4, 663386, Note_on_c, 9, 75, 86
4, 663415, Note_on_c, 9, 51, 78
4, 663482, Note_on_c, 9, 64, 62
4, 663583, Note_on_c, 9, 75, 0
4, 663614, Note_on_c, 9, 64, 0
4, 663729, Note_on_c, 9, 51, 0
4, 663983, Note_on_c, 9, 64, 97
4, 664391, Note_on_c, 9, 51, 92
4, 664717, Note_on_c, 9, 64, 0
4, 664799, Note_on_c, 9, 51, 0
4, 665330, Note_on_c, 9, 75, 85
4, 665361, Note_on_c, 9, 51, 90
4, 665373, Note_on_c, 9, 62, 82
4, 665380, Note_on_c, 9, 63, 67
4, 665515, Note_on_c, 9, 75, 0
4, 665591, Note_on_c, 9, 51, 0
4, 665620, Note_on_c, 9, 62, 0
4, 665720, Note_on_c, 9, 63, 0
4, 665865, Note_on_c, 9, 51, 82
4, 666088, Note_on_c, 9, 51, 0
4, 666815, Note_on_c, 9, 75, 85
4, 666845, Note_on_c, 9, 51, 82
4, 667027, Note_on_c, 9, 51, 0
4, 667053, Note_on_c, 9, 75, 0
4, 667334, Note_on_c, 9, 51, 74
4, 667338, Note_on_c, 9, 64, 82
4, 667538, Note_on_c, 9, 51, 0
4, 667585, Note_on_c, 9, 64, 0
4, 667876, Note_on_c, 9, 64, 106
4, 668205, Note_on_c, 9, 51, 92
4, 668294, Note_on_c, 9, 75, 88
4, 668433, Note_on_c, 9, 51, 0
4, 668493, Note_on_c, 9, 75, 0
4, 668850, Note_on_c, 9, 64, 0
4, 669181, Note_on_c, 9, 63, 54
4, 669191, Note_on_c, 9, 51, 85
4, 669200, Note_on_c, 9, 62, 70
4, 669391, Note_on_c, 9, 51, 0
4, 669508, Note_on_c, 9, 62, 0
4, 669536, Note_on_c, 9, 63, 0
4, 669722, Note_on_c, 9, 75, 82
4, 669722, Note_on_c, 9, 51, 60
4, 669743, Note_on_c, 9, 63, 81
4, 669781, Note_on_c, 9, 62, 71
4, 669818, Note_on_c, 9, 51, 0
4, 669952, Note_on_c, 9, 75, 0
4, 670014, Note_on_c, 9, 62, 0
4, 670132, Note_on_c, 9, 63, 0
4, 670173, Note_on_c, 9, 51, 85
4, 670499, Note_on_c, 9, 51, 0
4, 670739, Note_on_c, 9, 62, 22
4, 670820, Note_on_c, 9, 62, 0
4, 671118, Note_on_c, 9, 64, 81
4, 671121, Note_on_c, 9, 75, 86
4, 671320, Note_on_c, 9, 75, 0
4, 671375, Note_on_c, 9, 64, 0
4, 671642, Note_on_c, 9, 51, 86
4, 671648, Note_on_c, 9, 64, 91
4, 671827, Note_on_c, 9, 51, 0
4, 672144, Note_on_c, 9, 51, 91
4, 672578, Note_on_c, 9, 51, 0
4, 672719, Note_on_c, 9, 64, 0
4, 673039, Note_on_c, 9, 75, 91
4, 673055, Note_on_c, 9, 63, 57
4, 673060, Note_on_c, 9, 62, 64
4, 673151, Note_on_c, 9, 62, 0
4, 673219, Note_on_c, 9, 75, 0
4, 673264, Note_on_c, 9, 63, 0
4, 673497, Note_on_c, 9, 51, 80
4, 673628, Note_on_c, 9, 63, 85
4, 673658, Note_on_c, 9, 51, 0
4, 673660, Note_on_c, 9, 62, 88
4, 673904, Note_on_c, 9, 62, 0
4, 673943, Note_on_c, 9, 63, 0
4, 673994, Note_on_c, 9, 51, 85
4, 674445, Note_on_c, 9, 51, 0
4, 674495, Note_on_c, 9, 75, 84
4, 674600, Note_on_c, 9, 62, 27
4, 674694, Note_on_c, 9, 62, 0
4, 674728, Note_on_c, 9, 75, 0
4, 674917, Note_on_c, 9, 64, 77
4, 674963, Note_on_c, 9, 51, 76
4, 675230, Note_on_c, 9, 51, 0
4, 675270, Note_on_c, 9, 64, 0
4, 675509, Note_on_c, 9, 51, 63
4, 675532, Note_on_c, 9, 64, 82
4, 675659, Note_on_c, 9, 51, 0
4, 675878, Note_on_c, 9, 75, 90
4, 675955, Note_on_c, 9, 51, 80
4, 676084, Note_on_c, 9, 75, 0
4, 676175, Note_on_c, 9, 64, 0
4, 676391, Note_on_c, 9, 62, 79
4, 676399, Note_on_c, 9, 51, 0
4, 676403, Note_on_c, 9, 63, 68
4, 676698, Note_on_c, 9, 62, 0
4, 676705, Note_on_c, 9, 63, 0
4, 676883, Note_on_c, 9, 51, 61
4, 677035, Note_on_c, 9, 51, 0
4, 677154, Note_on_c, 9, 63, 61
4, 677166, Note_on_c, 9, 62, 74
4, 677424, Note_on_c, 9, 75, 85
4, 677426, Note_on_c, 9, 51, 73
4, 677552, Note_on_c, 9, 63, 0
4, 677584, Note_on_c, 9, 62, 0
4, 677589, Note_on_c, 9, 51, 0
4, 677637, Note_on_c, 9, 75, 0
4, 677903, Note_on_c, 9, 51, 81
4, 677934, Note_on_c, 9, 63, 75
4, 677946, Note_on_c, 9, 62, 78
4, 678218, Note_on_c, 9, 51, 0
4, 678350, Note_on_c, 9, 62, 0
4, 678414, Note_on_c, 9, 63, 0
4, 678774, Note_on_c, 9, 64, 63
4, 678796, Note_on_c, 9, 51, 75
4, 678861, Note_on_c, 9, 75, 88
4, 679019, Note_on_c, 9, 51, 0
4, 679053, Note_on_c, 9, 75, 0
4, 679136, Note_on_c, 9, 64, 0
4, 679300, Note_on_c, 9, 53, 89
4, 679369, Note_on_c, 9, 64, 87
4, 680114, Note_on_c, 9, 53, 0
4, 680287, Note_on_c, 9, 51, 72
4, 680348, Note_on_c, 9, 64, 0
4, 680635, Note_on_c, 9, 51, 0
4, 680675, Note_on_c, 9, 62, 67
4, 680687, Note_on_c, 9, 63, 48
4, 680692, Note_on_c, 9, 75, 90
4, 680870, Note_on_c, 9, 75, 0
4, 681032, Note_on_c, 9, 63, 0
4, 681035, Note_on_c, 9, 62, 0
4, 681177, Note_on_c, 9, 51, 52
4, 681364, Note_on_c, 9, 51, 0
4, 681647, Note_on_c, 9, 51, 61
4, 682125, Note_on_c, 9, 51, 0
4, 682178, Note_on_c, 9, 75, 85
4, 682353, Note_on_c, 9, 75, 0
4, 682617, Note_on_c, 9, 51, 32
4, 682648, Note_on_c, 9, 64, 52
4, 682828, Note_on_c, 9, 51, 0
4, 682955, Note_on_c, 9, 64, 0
4, 683138, Note_on_c, 9, 51, 54
4, 683159, Note_on_c, 9, 64, 73
4, 683277, Note_on_c, 9, 51, 0
4, 683615, Note_on_c, 9, 75, 75
4, 683618, Note_on_c, 9, 51, 62
4, 683762, Note_on_c, 9, 75, 0
4, 684067, Note_on_c, 9, 51, 0
4, 684188, Note_on_c, 9, 64, 0
4, 684544, Note_on_c, 9, 63, 31
4, 684836, Note_on_c, 9, 63, 0
4, 684986, Note_on_c, 9, 75, 64
4, 685003, Note_on_c, 9, 51, 54
4, 685139, Note_on_c, 9, 51, 0
4, 685187, Note_on_c, 9, 75, 0
4, 685545, Note_on_c, 9, 51, 53
4, 685891, Note_on_c, 9, 51, 0
4, 686457, Note_on_c, 9, 75, 67
4, 686642, Note_on_c, 9, 75, 0
4, 686939, Note_on_c, 9, 51, 28
4, 687057, Note_on_c, 9, 51, 0
4, 687455, Note_on_c, 9, 51, 55
4, 687722, Note_on_c, 9, 51, 0
4, 687985, Note_on_c, 9, 63, 27
4, 688096, Note_on_c, 9, 63, 0
4, 688327, Note_on_c, 9, 75, 64
4, 688502, Note_on_c, 9, 75, 0
4, 688807, Note_on_c, 9, 53, 61
4, 688972, Note_on_c, 9, 53, 0
4, 689356, Note_on_c, 9, 53, 44
4, 689774, Note_on_c, 9, 75, 68
4, 689791, Note_on_c, 9, 53, 0
4, 689855, Note_on_c, 9, 64, 30
4, 689951, Note_on_c, 9, 64, 0
4, 689975, Note_on_c, 9, 75, 0
4, 690088, Note_on_c, 9, 64, 36
4, 690181, Note_on_c, 9, 64, 0
4, 690299, Note_on_c, 9, 64, 59
4, 690314, Note_on_c, 9, 51, 45
4, 690385, Note_on_c, 9, 64, 0
4, 690489, Note_on_c, 9, 51, 0
4, 690532, Note_on_c, 9, 64, 62
4, 690616, Note_on_c, 9, 64, 0
4, 690625, Note_on_c, 9, 61, 21
4, 690748, Note_on_c, 9, 64, 59
4, 690750, Note_on_c, 9, 61, 0
4, 690836, Note_on_c, 9, 64, 0
4, 690997, Note_on_c, 9, 64, 24
4, 691079, Note_on_c, 9, 64, 0
4, 691235, Note_on_c, 9, 51, 45
4, 691267, Note_on_c, 9, 75, 72
4, 691449, Note_on_c, 9, 75, 0
4, 691569, Note_on_c, 9, 51, 0
4, 692663, Note_on_c, 9, 51, 54
4, 692733, Note_on_c, 9, 75, 62
4, 692846, Note_on_c, 9, 51, 0
4, 692956, Note_on_c, 9, 75, 0
4, 693167, Note_on_c, 9, 51, 40
4, 693393, Note_on_c, 9, 51, 0
4, 693681, Note_on_c, 9, 53, 69
4, 693755, Note_on_c, 9, 63, 27
4, 693813, Note_on_c, 9, 53, 0
4, 693839, Note_on_c, 9, 63, 0
4, 694123, Note_on_c, 9, 75, 62
4, 694192, Note_on_c, 9, 64, 25
4, 694346, Note_on_c, 9, 75, 0
4, 694439, Note_on_c, 9, 64, 0
4, 694649, Note_on_c, 9, 51, 42
4, 694706, Note_on_c, 9, 64, 48
4, 694855, Note_on_c, 9, 51, 0
4, 694876, Note_on_c, 9, 64, 0
4, 695611, Note_on_c, 9, 51, 55
4, 695891, Note_on_c, 9, 51, 0
4, 696124, Note_on_c, 9, 75, 63
4, 696157, Note_on_c, 9, 62, 37
4, 696160, Note_on_c, 9, 63, 26
4, 696321, Note_on_c, 9, 75, 0
4, 696340, Note_on_c, 9, 62, 0
4, 696416, Note_on_c, 9, 63, 0
4, 696587, Note_on_c, 9, 51, 35
4, 696695, Note_on_c, 9, 63, 30
4, 696772, Note_on_c, 9, 62, 21
4, 696863, Note_on_c, 9, 51, 0
4, 696865, Note_on_c, 9, 62, 0
4, 696908, Note_on_c, 9, 63, 0
4, 697108, Note_on_c, 9, 59, 77
4, 697591, Note_on_c, 9, 75, 67
4, 697764, Note_on_c, 9, 59, 0
4, 697816, Note_on_c, 9, 75, 0
4, 697991, Note_on_c, 9, 64, 39
4, 698056, Note_on_c, 9, 59, 79
4, 698241, Note_on_c, 9, 64, 0
4, 698533, Note_on_c, 9, 64, 47
4, 698716, Note_on_c, 9, 59, 0
4, 698989, Note_on_c, 9, 64, 0
4, 698992, Note_on_c, 9, 51, 36
4, 698994, Note_on_c, 9, 75, 67
4, 699165, Note_on_c, 9, 75, 0
4, 699218, Note_on_c, 9, 51, 0
4, 700411, Note_on_c, 9, 51, 48
4, 700421, Note_on_c, 9, 75, 57
4, 700489, Note_on_c, 9, 63, 36
4, 700508, Note_on_c, 9, 62, 31
4, 700571, Note_on_c, 9, 51, 0
4, 700595, Note_on_c, 9, 62, 0
4, 700612, Note_on_c, 9, 75, 0
4, 700674, Note_on_c, 9, 63, 0
4, 700946, Note_on_c, 9, 51, 38
4, 700956, Note_on_c, 9, 75, 55
4, 701121, Note_on_c, 9, 75, 0
4, 701183, Note_on_c, 9, 63, 40
4, 701188, Note_on_c, 9, 51, 0
4, 701204, Note_on_c, 9, 62, 37
4, 701466, Note_on_c, 9, 62, 0
4, 701490, Note_on_c, 9, 63, 0
4, 701958, Note_on_c, 9, 63, 28
4, 701987, Note_on_c, 9, 62, 25
4, 702150, Note_on_c, 9, 62, 0
4, 702234, Note_on_c, 9, 63, 0
4, 702254, Note_on_c, 9, 75, 57
4, 702333, Note_on_c, 9, 51, 36
4, 702439, Note_on_c, 9, 51, 0
4, 702473, Note_on_c, 9, 75, 0
4, 702614, Note_on_c, 9, 64, 19
4, 702823, Note_on_c, 9, 51, 31
4, 702920, Note_on_c, 9, 64, 0
4, 703046, Note_on_c, 9, 51, 0
4, 703334, Note_on_c, 9, 53, 66
4, 703410, Note_on_c, 9, 64, 28
4, 703595, Note_on_c, 9, 64, 0
4, 703728, Note_on_c, 9, 75, 61
4, 703943, Note_on_c, 9, 75, 0
4, 704265, Note_on_c, 9, 53, 0
4, 704336, Note_on_c, 9, 64, 25
4, 704492, Note_on_c, 9, 64, 0
4, 704845, Note_on_c, 9, 64, 32
4, 704939, Note_on_c, 9, 64, 0
4, 705196, Note_on_c, 9, 51, 34
4, 705311, Note_on_c, 9, 51, 0
4, 705674, Note_on_c, 9, 75, 64
4, 705695, Note_on_c, 9, 62, 39
4, 705716, Note_on_c, 9, 63, 24
4, 705895, Note_on_c, 9, 75, 0
4, 705918, Note_on_c, 9, 62, 0
4, 705942, Note_on_c, 9, 63, 0
4, 706130, Note_on_c, 9, 51, 26
4, 706271, Note_on_c, 9, 51, 0
4, 706677, Note_on_c, 9, 51, 44
4, 706905, Note_on_c, 9, 51, 0
4, 707606, Note_on_c, 9, 75, 61
4, 707620, Note_on_c, 9, 64, 24
4, 707805, Note_on_c, 9, 75, 0
4, 707874, Note_on_c, 9, 64, 0
4, 708091, Note_on_c, 9, 51, 31
4, 708138, Note_on_c, 9, 64, 42
4, 708268, Note_on_c, 9, 51, 0
4, 708356, Note_on_c, 9, 64, 0
4, 708947, Note_on_c, 9, 51, 37
4, 709031, Note_on_c, 9, 75, 38
4, 709154, Note_on_c, 9, 51, 0
4, 709252, Note_on_c, 9, 75, 0
4, 709475, Note_on_c, 9, 51, 38
4, 709513, Note_on_c, 9, 62, 37
4, 709516, Note_on_c, 9, 63, 28
4, 709740, Note_on_c, 9, 51, 0
4, 709744, Note_on_c, 9, 63, 0
4, 709748, Note_on_c, 9, 62, 0
4, 710423, Note_on_c, 9, 75, 45
4, 710632, Note_on_c, 9, 75, 0
4, 711007, Note_on_c, 9, 51, 29
4, 711165, Note_on_c, 9, 51, 0
4, 711464, Note_on_c, 9, 64, 32
4, 711777, Note_on_c, 9, 64, 0
4, 711940, Note_on_c, 9, 51, 24
4, 711968, Note_on_c, 9, 64, 47
4, 712109, Note_on_c, 9, 51, 0
4, 712192, Note_on_c, 9, 64, 0
4, 712447, Note_on_c, 9, 53, 50
4, 712898, Note_on_c, 9, 75, 40
4, 713020, Note_on_c, 9, 53, 0
4, 713099, Note_on_c, 9, 75, 0
4, 713351, Note_on_c, 9, 62, 46
4, 713397, Note_on_c, 9, 53, 48
4, 713449, Note_on_c, 9, 63, 19
4, 713644, Note_on_c, 9, 62, 0
4, 713702, Note_on_c, 9, 53, 0
4, 713737, Note_on_c, 9, 63, 0
4, 714359, Note_on_c, 9, 75, 33
4, 714400, Note_on_c, 9, 51, 38
4, 714557, Note_on_c, 9, 75, 0
4, 714823, Note_on_c, 9, 51, 0
4, 715372, Note_on_c, 9, 64, 25
4, 715554, Note_on_c, 9, 64, 0
4, 715838, Note_on_c, 9, 51, 42
4, 715883, Note_on_c, 9, 64, 45
4, 716030, Note_on_c, 9, 51, 0
4, 716096, Note_on_c, 9, 64, 0
4, 716805, Note_on_c, 9, 51, 46
4, 716997, Note_on_c, 9, 51, 0
4, 717256, Note_on_c, 9, 62, 21
4, 717299, Note_on_c, 9, 63, 25
4, 717674, Note_on_c, 9, 51, 52
4, 717837, Note_on_c, 9, 51, 0
4, 718183, Note_on_c, 9, 57, 67
4, 719905, Note_on_c, 9, 63, 0
4, 719956, Note_on_c, 9, 62, 0
4, 722241, Note_on_c, 9, 57, 0
4, 722241, End_track
0, 0, End_of_file
