0, 0, Header, 1, 8, 960
1, 0, Start_track
1, 0, Title_t, "Brazilian Suite (Michel Petrucciani)"
1, 0, Text_t, "dougmck@tpg.com.au \012"
1, 0, Time_signature, 4, 2, 24, 8
1, 0, Key_signature, 0, "major"
1, 0, Tempo, 560748
1, 0, End_track
2, 0, Start_track
2, 0, Title_t, "Track 1"
2, 0, Control_c, 0, 7, 101
2, 0, Control_c, 0, 10, 69
2, 0, End_track
3, 0, Start_track
3, 0, Title_t, "Track 2"
3, 0, Control_c, 0, 7, 101
3, 0, Control_c, 0, 10, 64
3, 0, End_track
4, 0, Start_track
4, 0, Title_t, "Track 3"
4, 0, Control_c, 0, 0, 0
4, 0, Control_c, 0, 7, 127
4, 0, Control_c, 0, 64, 0
4, 0, Control_c, 0, 64, 127
4, 0, Control_c, 0, 64, 0
4, 0, Control_c, 0, 64, 127
4, 0, Control_c, 0, 64, 0
4, 1, Program_c, 0, 4
4, 76, Note_on_c, 0, 43, 30
4, 190, Control_c, 0, 64, 127
4, 830, Note_on_c, 0, 50, 23
4, 978, Control_c, 0, 64, 0
4, 980, Note_on_c, 0, 62, 48
4, 982, Note_on_c, 0, 57, 61
4, 990, Note_on_c, 0, 50, 0
4, 997, Note_on_c, 0, 58, 52
4, 1010, Note_on_c, 0, 69, 45
4, 1195, Note_on_c, 0, 58, 0
4, 1214, Note_on_c, 0, 69, 0
4, 1252, Note_on_c, 0, 62, 0
4, 1254, Note_on_c, 0, 57, 0
4, 1294, Note_on_c, 0, 65, 31
4, 1322, Note_on_c, 0, 50, 18
4, 1334, Note_on_c, 0, 43, 0
4, 1401, Note_on_c, 0, 50, 0
4, 1525, Note_on_c, 0, 65, 0
4, 1688, Note_on_c, 0, 60, 42
4, 1691, Note_on_c, 0, 64, 51
4, 1693, Note_on_c, 0, 67, 45
4, 1708, Note_on_c, 0, 50, 34
4, 1859, Control_c, 0, 64, 127
4, 2163, Note_on_c, 0, 38, 32
4, 2214, Control_c, 0, 64, 0
4, 2285, Note_on_c, 0, 38, 0
4, 2411, Note_on_c, 0, 38, 35
4, 2425, Control_c, 0, 64, 127
4, 2571, Note_on_c, 0, 38, 0
4, 2609, Control_c, 0, 64, 0
4, 2895, Note_on_c, 0, 38, 52
4, 2911, Control_c, 0, 64, 127
4, 3168, Note_on_c, 0, 64, 0
4, 3321, Note_on_c, 0, 60, 0
4, 3361, Note_on_c, 0, 38, 0
4, 3402, Note_on_c, 0, 64, 50
4, 3445, Note_on_c, 0, 67, 0
4, 3453, Note_on_c, 0, 50, 0
4, 3661, Note_on_c, 0, 67, 56
4, 3664, Note_on_c, 0, 64, 0
4, 3806, Control_c, 0, 64, 0
4, 3819, Note_on_c, 0, 67, 0
4, 3884, Note_on_c, 0, 43, 46
4, 3897, Note_on_c, 0, 69, 78
4, 3963, Control_c, 0, 64, 127
4, 4068, Note_on_c, 0, 43, 0
4, 4628, Note_on_c, 0, 62, 35
4, 4633, Note_on_c, 0, 58, 58
4, 4635, Note_on_c, 0, 57, 35
4, 4740, Note_on_c, 0, 62, 0
4, 4756, Note_on_c, 0, 58, 0
4, 4779, Note_on_c, 0, 57, 0
4, 4876, Note_on_c, 0, 62, 35
4, 4878, Note_on_c, 0, 57, 28
4, 4893, Note_on_c, 0, 58, 51
4, 5177, Note_on_c, 0, 69, 0
4, 5191, Note_on_c, 0, 65, 45
4, 5216, Note_on_c, 0, 62, 0
4, 5227, Note_on_c, 0, 57, 0
4, 5284, Note_on_c, 0, 58, 0
4, 5566, Note_on_c, 0, 65, 0
4, 5570, Control_c, 0, 64, 0
4, 5595, Note_on_c, 0, 67, 58
4, 5606, Note_on_c, 0, 50, 48
4, 5778, Control_c, 0, 64, 127
4, 6047, Note_on_c, 0, 64, 42
4, 6048, Note_on_c, 0, 60, 35
4, 6068, Control_c, 0, 64, 0
4, 6090, Note_on_c, 0, 57, 42
4, 6158, Note_on_c, 0, 60, 0
4, 6166, Note_on_c, 0, 64, 0
4, 6192, Note_on_c, 0, 57, 0
4, 6514, Note_on_c, 0, 60, 39
4, 6516, Note_on_c, 0, 64, 39
4, 6548, Note_on_c, 0, 57, 36
4, 6672, Note_on_c, 0, 57, 0
4, 6679, Note_on_c, 0, 64, 0
4, 6683, Note_on_c, 0, 60, 0
4, 6725, Control_c, 0, 64, 127
4, 6801, Note_on_c, 0, 60, 25
4, 6806, Note_on_c, 0, 64, 43
4, 6806, Note_on_c, 0, 57, 45
4, 6927, Note_on_c, 0, 50, 0
4, 7080, Note_on_c, 0, 60, 0
4, 7251, Note_on_c, 0, 57, 0
4, 7259, Note_on_c, 0, 62, 60
4, 7294, Note_on_c, 0, 50, 15
4, 7338, Note_on_c, 0, 50, 0
4, 7646, Note_on_c, 0, 67, 0
4, 7659, Note_on_c, 0, 62, 0
4, 7667, Note_on_c, 0, 64, 0
4, 7672, Control_c, 0, 64, 0
4, 7756, Note_on_c, 0, 43, 53
4, 7763, Note_on_c, 0, 69, 76
4, 7790, Control_c, 0, 64, 127
4, 7907, Note_on_c, 0, 43, 0
4, 8220, Note_on_c, 0, 57, 20
4, 8256, Note_on_c, 0, 69, 0
4, 8370, Note_on_c, 0, 57, 0
4, 8516, Note_on_c, 0, 58, 46
4, 8526, Note_on_c, 0, 62, 28
4, 8531, Note_on_c, 0, 57, 38
4, 8642, Note_on_c, 0, 57, 0
4, 8655, Note_on_c, 0, 62, 0
4, 8681, Note_on_c, 0, 58, 0
4, 8993, Note_on_c, 0, 62, 31
4, 8996, Note_on_c, 0, 58, 57
4, 9004, Note_on_c, 0, 57, 36
4, 9121, Note_on_c, 0, 62, 0
4, 9166, Note_on_c, 0, 58, 0
4, 9349, Note_on_c, 0, 57, 0
4, 9464, Note_on_c, 0, 77, 55
4, 9480, Note_on_c, 0, 58, 43
4, 9573, Note_on_c, 0, 77, 0
4, 9599, Note_on_c, 0, 58, 0
4, 9715, Note_on_c, 0, 79, 75
4, 9731, Note_on_c, 0, 50, 56
4, 9738, Control_c, 0, 64, 0
4, 9988, Control_c, 0, 64, 127
4, 10191, Note_on_c, 0, 57, 32
4, 10192, Note_on_c, 0, 72, 34
4, 10203, Note_on_c, 0, 67, 16
4, 10219, Note_on_c, 0, 60, 18
4, 10318, Note_on_c, 0, 60, 0
4, 10328, Note_on_c, 0, 72, 0
4, 10335, Note_on_c, 0, 57, 0
4, 10349, Note_on_c, 0, 67, 0
4, 10478, Note_on_c, 0, 72, 48
4, 10489, Note_on_c, 0, 60, 22
4, 10579, Note_on_c, 0, 72, 0
4, 10633, Note_on_c, 0, 79, 0
4, 10677, Note_on_c, 0, 60, 0
4, 10917, Note_on_c, 0, 57, 57
4, 10931, Note_on_c, 0, 60, 34
4, 10934, Note_on_c, 0, 79, 71
4, 10968, Note_on_c, 0, 57, 0
4, 10984, Note_on_c, 0, 60, 0
4, 11044, Note_on_c, 0, 50, 0
4, 11141, Note_on_c, 0, 79, 0
4, 11376, Note_on_c, 0, 84, 88
4, 11385, Note_on_c, 0, 50, 36
4, 11498, Control_c, 0, 64, 0
4, 11548, Note_on_c, 0, 84, 0
4, 11590, Note_on_c, 0, 50, 0
4, 11640, Note_on_c, 0, 84, 74
4, 11645, Note_on_c, 0, 43, 42
4, 11668, Control_c, 0, 64, 127
4, 11700, Note_on_c, 0, 43, 0
4, 12092, Note_on_c, 0, 81, 53
4, 12103, Note_on_c, 0, 62, 27
4, 12107, Note_on_c, 0, 58, 35
4, 12121, Note_on_c, 0, 57, 36
4, 12422, Note_on_c, 0, 58, 0
4, 12462, Note_on_c, 0, 62, 0
4, 12637, Note_on_c, 0, 84, 0
4, 12639, Note_on_c, 0, 57, 0
4, 12854, Note_on_c, 0, 57, 48
4, 12857, Note_on_c, 0, 62, 29
4, 12857, Note_on_c, 0, 58, 49
4, 12917, Note_on_c, 0, 83, 7
4, 12942, Note_on_c, 0, 62, 0
4, 12997, Note_on_c, 0, 58, 0
4, 13005, Note_on_c, 0, 57, 0
4, 13163, Note_on_c, 0, 83, 0
4, 13247, Note_on_c, 0, 81, 0
4, 13263, Note_on_c, 0, 77, 46
4, 13442, Note_on_c, 0, 77, 0
4, 13486, Control_c, 0, 64, 0
4, 13516, Note_on_c, 0, 50, 52
4, 13543, Note_on_c, 0, 79, 64
4, 13735, Control_c, 0, 64, 127
4, 14157, Control_c, 0, 64, 0
4, 14207, Note_on_c, 0, 60, 29
4, 14218, Note_on_c, 0, 57, 32
4, 14235, Note_on_c, 0, 76, 33
4, 14236, Note_on_c, 0, 72, 28
4, 14248, Note_on_c, 0, 53, 17
4, 14319, Note_on_c, 0, 50, 0
4, 14341, Control_c, 0, 64, 127
4, 14487, Note_on_c, 0, 60, 0
4, 14514, Note_on_c, 0, 57, 0
4, 14590, Note_on_c, 0, 53, 0
4, 14653, Note_on_c, 0, 57, 49
4, 14657, Control_c, 0, 64, 0
4, 14672, Note_on_c, 0, 60, 35
4, 14727, Note_on_c, 0, 60, 0
4, 14762, Control_c, 0, 64, 127
4, 14773, Note_on_c, 0, 57, 0
4, 14858, Note_on_c, 0, 72, 0
4, 14939, Note_on_c, 0, 79, 0
4, 15074, Note_on_c, 0, 76, 0
4, 15147, Note_on_c, 0, 60, 27
4, 15287, Note_on_c, 0, 60, 0
4, 15317, Note_on_c, 0, 55, 48
4, 15341, Control_c, 0, 64, 0
4, 15346, Note_on_c, 0, 79, 56
4, 15481, Note_on_c, 0, 79, 0
4, 15829, Note_on_c, 0, 74, 54
4, 15892, Note_on_c, 0, 74, 0
4, 16318, Note_on_c, 0, 62, 17
4, 16323, Control_c, 0, 64, 127
4, 16338, Note_on_c, 0, 58, 30
4, 16739, Note_on_c, 0, 81, 30
4, 16796, Note_on_c, 0, 81, 0
4, 17071, Note_on_c, 0, 84, 77
4, 17187, Note_on_c, 0, 55, 0
4, 17221, Note_on_c, 0, 84, 0
4, 17273, Control_c, 0, 64, 0
4, 17302, Note_on_c, 0, 53, 39
4, 17377, Note_on_c, 0, 84, 67
4, 17530, Note_on_c, 0, 62, 0
4, 17567, Note_on_c, 0, 58, 0
4, 17773, Control_c, 0, 64, 127
4, 18088, Control_c, 0, 64, 0
4, 18089, Note_on_c, 0, 62, 28
4, 18110, Note_on_c, 0, 58, 33
4, 18281, Note_on_c, 0, 62, 0
4, 18282, Note_on_c, 0, 58, 0
4, 18351, Control_c, 0, 64, 127
4, 18467, Note_on_c, 0, 84, 0
4, 18554, Note_on_c, 0, 82, 48
4, 18719, Note_on_c, 0, 82, 0
4, 19026, Note_on_c, 0, 53, 0
4, 19037, Note_on_c, 0, 58, 32
4, 19123, Note_on_c, 0, 58, 0
4, 19201, Note_on_c, 0, 81, 62
4, 19226, Note_on_c, 0, 69, 48
4, 19233, Control_c, 0, 64, 0
4, 19421, Note_on_c, 0, 69, 0
4, 19687, Note_on_c, 0, 62, 30
4, 19693, Control_c, 0, 64, 127
4, 19703, Note_on_c, 0, 51, 34
4, 19705, Note_on_c, 0, 58, 38
4, 19720, Note_on_c, 0, 74, 26
4, 19724, Note_on_c, 0, 67, 20
4, 19773, Control_c, 0, 64, 0
4, 19791, Note_on_c, 0, 67, 0
4, 19799, Note_on_c, 0, 74, 0
4, 19807, Note_on_c, 0, 62, 0
4, 19837, Note_on_c, 0, 58, 0
4, 19872, Note_on_c, 0, 51, 0
4, 19916, Note_on_c, 0, 81, 0
4, 20193, Control_c, 0, 64, 127
4, 20200, Note_on_c, 0, 74, 37
4, 20238, Note_on_c, 0, 67, 26
4, 20238, Note_on_c, 0, 69, 27
4, 20245, Note_on_c, 0, 62, 22
4, 20246, Note_on_c, 0, 51, 29
4, 20252, Note_on_c, 0, 58, 34
4, 20518, Note_on_c, 0, 79, 56
4, 20687, Note_on_c, 0, 74, 0
4, 20715, Note_on_c, 0, 79, 0
4, 20803, Note_on_c, 0, 69, 0
4, 20834, Note_on_c, 0, 62, 0
4, 20838, Note_on_c, 0, 67, 0
4, 20862, Note_on_c, 0, 51, 0
4, 20881, Note_on_c, 0, 58, 0
4, 20917, Control_c, 0, 64, 0
4, 20931, Note_on_c, 0, 77, 66
4, 20976, Note_on_c, 0, 50, 41
4, 21087, Control_c, 0, 64, 127
4, 21108, Note_on_c, 0, 50, 0
4, 21385, Note_on_c, 0, 69, 55
4, 21396, Note_on_c, 0, 65, 42
4, 21406, Note_on_c, 0, 64, 54
4, 21745, Note_on_c, 0, 64, 0
4, 21854, Note_on_c, 0, 63, 49
4, 21981, Control_c, 0, 64, 0
4, 22028, Note_on_c, 0, 63, 0
4, 22126, Note_on_c, 0, 62, 32
4, 22267, Note_on_c, 0, 77, 0
4, 22382, Note_on_c, 0, 69, 0
4, 22387, Note_on_c, 0, 65, 0
4, 22557, Note_on_c, 0, 62, 0
4, 22559, Note_on_c, 0, 75, 49
4, 22586, Control_c, 0, 64, 127
4, 22587, Note_on_c, 0, 61, 42
4, 22595, Note_on_c, 0, 65, 28
4, 22601, Note_on_c, 0, 72, 40
4, 22692, Note_on_c, 0, 65, 0
4, 22729, Note_on_c, 0, 72, 0
4, 22807, Note_on_c, 0, 75, 0
4, 23000, Note_on_c, 0, 61, 0
4, 23041, Note_on_c, 0, 74, 62
4, 23059, Control_c, 0, 64, 0
4, 23064, Note_on_c, 0, 65, 37
4, 23075, Note_on_c, 0, 60, 38
4, 23100, Note_on_c, 0, 70, 28
4, 23361, Control_c, 0, 64, 127
4, 23417, Note_on_c, 0, 70, 0
4, 23424, Note_on_c, 0, 74, 0
4, 23492, Note_on_c, 0, 60, 0
4, 23529, Note_on_c, 0, 65, 0
4, 24008, Control_c, 0, 64, 0
4, 24056, Note_on_c, 0, 48, 31
4, 24060, Note_on_c, 0, 58, 35
4, 24066, Note_on_c, 0, 72, 41
4, 24080, Note_on_c, 0, 67, 38
4, 24088, Note_on_c, 0, 63, 28
4, 24165, Control_c, 0, 64, 127
4, 24308, Note_on_c, 0, 48, 0
4, 24429, Note_on_c, 0, 58, 0
4, 24446, Note_on_c, 0, 67, 0
4, 24560, Note_on_c, 0, 63, 0
4, 24729, Note_on_c, 0, 72, 0
4, 24770, Control_c, 0, 64, 0
4, 24803, Note_on_c, 0, 63, 42
4, 24811, Note_on_c, 0, 60, 37
4, 24817, Note_on_c, 0, 66, 47
4, 24830, Note_on_c, 0, 54, 32
4, 24832, Note_on_c, 0, 50, 29
4, 24954, Control_c, 0, 64, 127
4, 25018, Note_on_c, 0, 63, 0
4, 25321, Note_on_c, 0, 66, 0
4, 25405, Note_on_c, 0, 74, 75
4, 25494, Note_on_c, 0, 60, 0
4, 25593, Note_on_c, 0, 74, 0
4, 25716, Control_c, 0, 64, 0
4, 25725, Note_on_c, 0, 74, 71
4, 25729, Note_on_c, 0, 54, 0
4, 25809, Control_c, 0, 64, 127
4, 25849, Note_on_c, 0, 60, 24
4, 26002, Note_on_c, 0, 74, 0
4, 26052, Note_on_c, 0, 60, 0
4, 26165, Note_on_c, 0, 72, 53
4, 26245, Note_on_c, 0, 50, 0
4, 26362, Note_on_c, 0, 72, 0
4, 26718, Note_on_c, 0, 56, 18
4, 26814, Note_on_c, 0, 56, 0
4, 26821, Note_on_c, 0, 49, 26
4, 26826, Note_on_c, 0, 70, 43
4, 26829, Note_on_c, 0, 59, 48
4, 26834, Note_on_c, 0, 63, 44
4, 26847, Note_on_c, 0, 67, 43
4, 26885, Control_c, 0, 64, 0
4, 27201, Control_c, 0, 64, 127
4, 27492, Note_on_c, 0, 67, 0
4, 27512, Note_on_c, 0, 49, 0
4, 27524, Note_on_c, 0, 59, 0
4, 27550, Note_on_c, 0, 63, 0
4, 27767, Note_on_c, 0, 70, 0
4, 27836, Note_on_c, 0, 67, 41
4, 27845, Note_on_c, 0, 59, 38
4, 27848, Note_on_c, 0, 63, 34
4, 27880, Note_on_c, 0, 49, 23
4, 27963, Control_c, 0, 64, 0
4, 28029, Control_c, 0, 64, 127
4, 28226, Note_on_c, 0, 59, 0
4, 28242, Note_on_c, 0, 49, 0
4, 28335, Note_on_c, 0, 67, 0
4, 28442, Note_on_c, 0, 63, 0
4, 28656, Note_on_c, 0, 58, 46
4, 28671, Note_on_c, 0, 64, 42
4, 28682, Note_on_c, 0, 67, 34
4, 28702, Control_c, 0, 64, 0
4, 28735, Note_on_c, 0, 48, 15
4, 28768, Note_on_c, 0, 55, 9
4, 28820, Control_c, 0, 64, 127
4, 29014, Note_on_c, 0, 58, 0
4, 29401, Note_on_c, 0, 55, 0
4, 29425, Note_on_c, 0, 64, 0
4, 29453, Note_on_c, 0, 67, 0
4, 29669, Note_on_c, 0, 48, 0
4, 29725, Note_on_c, 0, 70, 60
4, 29762, Note_on_c, 0, 55, 1
4, 29865, Note_on_c, 0, 55, 0
4, 29905, Note_on_c, 0, 70, 0
4, 30189, Control_c, 0, 64, 0
4, 30197, Note_on_c, 0, 71, 62
4, 30206, Note_on_c, 0, 48, 38
4, 30206, Note_on_c, 0, 55, 27
4, 30292, Note_on_c, 0, 55, 0
4, 30324, Note_on_c, 0, 48, 0
4, 30340, Note_on_c, 0, 71, 0
4, 30715, Control_c, 0, 64, 127
4, 30736, Note_on_c, 0, 70, 54
4, 30737, Note_on_c, 0, 67, 51
4, 30738, Note_on_c, 0, 58, 49
4, 30750, Note_on_c, 0, 63, 38
4, 30779, Note_on_c, 0, 47, 32
4, 31037, Note_on_c, 0, 70, 0
4, 31098, Note_on_c, 0, 63, 0
4, 31145, Note_on_c, 0, 58, 0
4, 31148, Note_on_c, 0, 67, 0
4, 31194, Note_on_c, 0, 47, 0
4, 31426, Control_c, 0, 64, 0
4, 31464, Note_on_c, 0, 65, 53
4, 31469, Note_on_c, 0, 58, 47
4, 31470, Note_on_c, 0, 67, 44
4, 31481, Note_on_c, 0, 58, 45
4, 31484, Note_on_c, 0, 47, 41
4, 31759, Note_on_c, 0, 58, 0
4, 31771, Note_on_c, 0, 58, 0
4, 31785, Note_on_c, 0, 47, 0
4, 31821, Note_on_c, 0, 65, 0
4, 31831, Note_on_c, 0, 67, 0
4, 32151, Note_on_c, 0, 58, 50
4, 32157, Note_on_c, 0, 67, 48
4, 32158, Note_on_c, 0, 64, 55
4, 32171, Note_on_c, 0, 60, 51
4, 32175, Note_on_c, 0, 47, 32
4, 32364, Note_on_c, 0, 47, 0
4, 32378, Note_on_c, 0, 60, 0
4, 32412, Note_on_c, 0, 58, 0
4, 32415, Note_on_c, 0, 64, 0
4, 32416, Note_on_c, 0, 67, 0
4, 32676, Control_c, 0, 64, 127
4, 32677, Note_on_c, 0, 64, 66
4, 32680, Note_on_c, 0, 56, 65
4, 32683, Note_on_c, 0, 67, 50
4, 32684, Note_on_c, 0, 46, 57
4, 32689, Note_on_c, 0, 60, 54
4, 33117, Note_on_c, 0, 60, 0
4, 33177, Note_on_c, 0, 64, 0
4, 33179, Note_on_c, 0, 67, 0
4, 33187, Note_on_c, 0, 46, 0
4, 33243, Note_on_c, 0, 56, 0
4, 33408, Note_on_c, 0, 71, 74
4, 33415, Note_on_c, 0, 64, 79
4, 33421, Note_on_c, 0, 46, 69
4, 33423, Note_on_c, 0, 56, 72
4, 33440, Note_on_c, 0, 60, 50
4, 33452, Control_c, 0, 64, 0
4, 33484, Note_on_c, 0, 60, 0
4, 33623, Control_c, 0, 64, 127
4, 33773, Note_on_c, 0, 71, 0
4, 33793, Note_on_c, 0, 56, 0
4, 33816, Note_on_c, 0, 46, 0
4, 33851, Note_on_c, 0, 64, 0
4, 34140, Note_on_c, 0, 70, 67
4, 34142, Note_on_c, 0, 61, 81
4, 34144, Note_on_c, 0, 45, 72
4, 34146, Note_on_c, 0, 55, 69
4, 34147, Note_on_c, 0, 64, 69
4, 34151, Control_c, 0, 64, 0
4, 34167, Note_on_c, 0, 67, 46
4, 34531, Control_c, 0, 64, 127
4, 34863, Note_on_c, 0, 67, 0
4, 34869, Note_on_c, 0, 61, 0
4, 34970, Note_on_c, 0, 45, 0
4, 34983, Note_on_c, 0, 55, 0
4, 35005, Note_on_c, 0, 64, 0
4, 35085, Note_on_c, 0, 70, 0
4, 35105, Note_on_c, 0, 45, 51
4, 35109, Note_on_c, 0, 55, 55
4, 35119, Note_on_c, 0, 61, 76
4, 35123, Note_on_c, 0, 67, 59
4, 35126, Note_on_c, 0, 64, 72
4, 35174, Control_c, 0, 64, 0
4, 35505, Control_c, 0, 64, 127
4, 35584, Note_on_c, 0, 55, 0
4, 35666, Note_on_c, 0, 45, 0
4, 35896, Note_on_c, 0, 49, 80
4, 35900, Control_c, 0, 64, 0
4, 36149, Control_c, 0, 64, 127
4, 36471, Note_on_c, 0, 64, 0
4, 36473, Note_on_c, 0, 61, 0
4, 36518, Note_on_c, 0, 49, 0
4, 36523, Note_on_c, 0, 67, 0
4, 36544, Control_c, 0, 64, 0
4, 36585, Note_on_c, 0, 50, 56
4, 37070, Note_on_c, 0, 38, 60
4, 37524, Note_on_c, 0, 61, 47
4, 37527, Note_on_c, 0, 60, 47
4, 37620, Note_on_c, 0, 38, 0
4, 37636, Note_on_c, 0, 60, 0
4, 37660, Note_on_c, 0, 61, 0
4, 37660, Note_on_c, 0, 62, 39
4, 37789, Note_on_c, 0, 62, 0
4, 37894, Note_on_c, 0, 50, 0
4, 38020, Note_on_c, 0, 65, 85
4, 38029, Control_c, 0, 64, 127
4, 38108, Control_c, 0, 64, 0
4, 38267, Note_on_c, 0, 65, 0
4, 38490, Control_c, 0, 64, 127
4, 38491, Note_on_c, 0, 43, 32
4, 38513, Note_on_c, 0, 67, 63
4, 38854, Note_on_c, 0, 50, 30
4, 39218, Note_on_c, 0, 58, 50
4, 39273, Note_on_c, 0, 67, 0
4, 39291, Note_on_c, 0, 43, 0
4, 39357, Note_on_c, 0, 50, 0
4, 39363, Note_on_c, 0, 58, 0
4, 39478, Note_on_c, 0, 62, 39
4, 39743, Note_on_c, 0, 62, 0
4, 39808, Note_on_c, 0, 67, 52
4, 39920, Note_on_c, 0, 67, 0
4, 40102, Note_on_c, 0, 72, 56
4, 40298, Note_on_c, 0, 72, 0
4, 40332, Control_c, 0, 64, 0
4, 40379, Note_on_c, 0, 77, 68
4, 40410, Note_on_c, 0, 50, 29
4, 40413, Note_on_c, 0, 60, 28
4, 40426, Note_on_c, 0, 54, 35
4, 40504, Control_c, 0, 64, 127
4, 40668, Note_on_c, 0, 77, 0
4, 40696, Note_on_c, 0, 75, 45
4, 40698, Note_on_c, 0, 50, 0
4, 40729, Note_on_c, 0, 54, 0
4, 40767, Note_on_c, 0, 60, 0
4, 40905, Note_on_c, 0, 75, 0
4, 41073, Note_on_c, 0, 65, 33
4, 41076, Note_on_c, 0, 74, 58
4, 41086, Note_on_c, 0, 54, 29
4, 41089, Note_on_c, 0, 60, 23
4, 41146, Control_c, 0, 64, 0
4, 41186, Control_c, 0, 64, 127
4, 41257, Note_on_c, 0, 74, 0
4, 41544, Note_on_c, 0, 72, 55
4, 41578, Note_on_c, 0, 65, 0
4, 41616, Note_on_c, 0, 60, 0
4, 41721, Note_on_c, 0, 72, 0
4, 41776, Note_on_c, 0, 54, 0
4, 41787, Note_on_c, 0, 70, 29
4, 42006, Note_on_c, 0, 70, 0
4, 42214, Note_on_c, 0, 62, 25
4, 42218, Note_on_c, 0, 79, 53
4, 42220, Note_on_c, 0, 55, 22
4, 42224, Control_c, 0, 64, 0
4, 42231, Note_on_c, 0, 58, 42
4, 42514, Note_on_c, 0, 79, 0
4, 42566, Control_c, 0, 64, 127
4, 42633, Note_on_c, 0, 62, 0
4, 42650, Note_on_c, 0, 67, 32
4, 42701, Note_on_c, 0, 58, 0
4, 42779, Note_on_c, 0, 67, 0
4, 42961, Control_c, 0, 64, 0
4, 42962, Note_on_c, 0, 74, 52
4, 43072, Note_on_c, 0, 74, 0
4, 43198, Note_on_c, 0, 79, 64
4, 43210, Control_c, 0, 64, 127
4, 43345, Note_on_c, 0, 79, 0
4, 43503, Note_on_c, 0, 81, 66
4, 43540, Note_on_c, 0, 58, 1
4, 43545, Note_on_c, 0, 62, 1
4, 43625, Note_on_c, 0, 81, 0
4, 43818, Note_on_c, 0, 86, 76
4, 43820, Note_on_c, 0, 55, 0
4, 44012, Note_on_c, 0, 86, 0
4, 44095, Note_on_c, 0, 84, 55
4, 44100, Note_on_c, 0, 53, 27
4, 44104, Control_c, 0, 64, 0
4, 44285, Note_on_c, 0, 58, 0
4, 44304, Note_on_c, 0, 62, 0
4, 44513, Control_c, 0, 64, 127
4, 44635, Note_on_c, 0, 53, 0
4, 45009, Note_on_c, 0, 56, 50
4, 45012, Note_on_c, 0, 46, 45
4, 45065, Control_c, 0, 64, 0
4, 45183, Control_c, 0, 64, 127
4, 45250, Control_c, 0, 64, 0
4, 45368, Control_c, 0, 64, 127
4, 45480, Note_on_c, 0, 46, 0
4, 45506, Note_on_c, 0, 56, 0
4, 45702, Note_on_c, 0, 84, 0
4, 45798, Note_on_c, 0, 82, 58
4, 45968, Note_on_c, 0, 82, 0
4, 46026, Control_c, 0, 64, 0
4, 46039, Note_on_c, 0, 62, 34
4, 46045, Note_on_c, 0, 58, 44
4, 46060, Note_on_c, 0, 52, 37
4, 46063, Note_on_c, 0, 79, 53
4, 46394, Control_c, 0, 64, 127
4, 46480, Note_on_c, 0, 52, 0
4, 46506, Note_on_c, 0, 62, 0
4, 46507, Note_on_c, 0, 58, 0
4, 46619, Note_on_c, 0, 79, 0
4, 46776, Control_c, 0, 64, 0
4, 46785, Note_on_c, 0, 62, 49
4, 46789, Note_on_c, 0, 58, 65
4, 46805, Note_on_c, 0, 52, 50
4, 46881, Control_c, 0, 64, 127
4, 46919, Note_on_c, 0, 62, 0
4, 46974, Note_on_c, 0, 58, 0
4, 46978, Note_on_c, 0, 52, 0
4, 47431, Control_c, 0, 64, 0
4, 47504, Note_on_c, 0, 45, 78
4, 47588, Control_c, 0, 64, 127
4, 47712, Note_on_c, 0, 45, 0
4, 48254, Note_on_c, 0, 60, 69
4, 48255, Note_on_c, 0, 72, 63
4, 48260, Control_c, 0, 64, 0
4, 48268, Note_on_c, 0, 61, 69
4, 48269, Note_on_c, 0, 65, 66
4, 48271, Note_on_c, 0, 69, 50
4, 48512, Note_on_c, 0, 69, 0
4, 48529, Note_on_c, 0, 61, 0
4, 48533, Note_on_c, 0, 72, 0
4, 48616, Note_on_c, 0, 61, 40
4, 48629, Note_on_c, 0, 60, 0
4, 48643, Note_on_c, 0, 70, 35
4, 48663, Note_on_c, 0, 58, 57
4, 48764, Note_on_c, 0, 61, 0
4, 48793, Note_on_c, 0, 65, 0
4, 48837, Note_on_c, 0, 70, 0
4, 48916, Note_on_c, 0, 58, 0
4, 48931, Control_c, 0, 64, 127
4, 48957, Note_on_c, 0, 72, 49
4, 48965, Note_on_c, 0, 61, 61
4, 48966, Note_on_c, 0, 60, 48
4, 48969, Note_on_c, 0, 65, 52
4, 49133, Note_on_c, 0, 61, 0
4, 49150, Note_on_c, 0, 72, 0
4, 49214, Note_on_c, 0, 65, 0
4, 49217, Note_on_c, 0, 60, 0
4, 49298, Note_on_c, 0, 61, 50
4, 49311, Note_on_c, 0, 70, 45
4, 49331, Note_on_c, 0, 58, 30
4, 49336, Note_on_c, 0, 65, 36
4, 49437, Note_on_c, 0, 58, 0
4, 49448, Note_on_c, 0, 61, 0
4, 49499, Note_on_c, 0, 70, 0
4, 49525, Note_on_c, 0, 65, 0
4, 49636, Note_on_c, 0, 69, 47
4, 49800, Note_on_c, 0, 69, 0
4, 49949, Note_on_c, 0, 54, 34
4, 49962, Note_on_c, 0, 61, 35
4, 49980, Note_on_c, 0, 39, 30
4, 49982, Note_on_c, 0, 66, 48
4, 50010, Control_c, 0, 64, 0
4, 50300, Control_c, 0, 64, 127
4, 50535, Note_on_c, 0, 39, 0
4, 50543, Note_on_c, 0, 54, 0
4, 50628, Note_on_c, 0, 46, 35
4, 50746, Control_c, 0, 64, 0
4, 50864, Note_on_c, 0, 54, 50
4, 51030, Note_on_c, 0, 54, 0
4, 51063, Control_c, 0, 64, 127
4, 51124, Note_on_c, 0, 46, 0
4, 51154, Control_c, 0, 64, 0
4, 51221, Control_c, 0, 64, 127
4, 51345, Note_on_c, 0, 44, 55
4, 51391, Note_on_c, 0, 61, 0
4, 51405, Control_c, 0, 64, 0
4, 51582, Note_on_c, 0, 66, 0
4, 51856, Note_on_c, 0, 65, 41
4, 51862, Note_on_c, 0, 60, 33
4, 51893, Control_c, 0, 64, 127
4, 51977, Note_on_c, 0, 60, 0
4, 52024, Note_on_c, 0, 65, 0
4, 52136, Note_on_c, 0, 54, 44
4, 52217, Control_c, 0, 64, 0
4, 52457, Note_on_c, 0, 44, 0
4, 52476, Note_on_c, 0, 54, 0
4, 52552, Note_on_c, 0, 65, 46
4, 52553, Note_on_c, 0, 60, 43
4, 52645, Note_on_c, 0, 58, 63
4, 52655, Note_on_c, 0, 60, 0
4, 52707, Note_on_c, 0, 65, 0
4, 52836, Control_c, 0, 64, 127
4, 53217, Control_c, 0, 64, 0
4, 53262, Note_on_c, 0, 58, 0
4, 53280, Note_on_c, 0, 57, 62
4, 53641, Note_on_c, 0, 57, 0
4, 53740, Note_on_c, 0, 56, 70
4, 53785, Control_c, 0, 64, 127
4, 53890, Control_c, 0, 64, 0
4, 54070, Note_on_c, 0, 63, 51
4, 54072, Note_on_c, 0, 60, 42
4, 54075, Note_on_c, 0, 68, 35
4, 54084, Note_on_c, 0, 65, 45
4, 54512, Note_on_c, 0, 49, 53
4, 54587, Note_on_c, 0, 56, 0
4, 54652, Control_c, 0, 64, 127
4, 54654, Note_on_c, 0, 49, 0
4, 54783, Note_on_c, 0, 49, 46
4, 55001, Note_on_c, 0, 49, 0
4, 55220, Note_on_c, 0, 65, 0
4, 55224, Note_on_c, 0, 60, 0
4, 55229, Note_on_c, 0, 63, 0
4, 55237, Note_on_c, 0, 68, 0
4, 55257, Note_on_c, 0, 49, 56
4, 55668, Note_on_c, 0, 49, 0
4, 55678, Control_c, 0, 64, 0
4, 55745, Note_on_c, 0, 64, 60
4, 55760, Note_on_c, 0, 57, 53
4, 55762, Note_on_c, 0, 50, 43
4, 55765, Note_on_c, 0, 53, 40
4, 55796, Note_on_c, 0, 60, 29
4, 55813, Note_on_c, 0, 62, 16
4, 55876, Control_c, 0, 64, 127
4, 55880, Note_on_c, 0, 53, 0
4, 55914, Note_on_c, 0, 57, 0
4, 55931, Note_on_c, 0, 60, 0
4, 55947, Note_on_c, 0, 64, 0
4, 55948, Note_on_c, 0, 62, 0
4, 55993, Control_c, 0, 64, 0
4, 56098, Note_on_c, 0, 65, 58
4, 56118, Note_on_c, 0, 53, 34
4, 56132, Note_on_c, 0, 60, 32
4, 56185, Note_on_c, 0, 60, 0
4, 56187, Note_on_c, 0, 50, 0
4, 56221, Note_on_c, 0, 53, 0
4, 56244, Note_on_c, 0, 65, 0
4, 56271, Control_c, 0, 64, 127
4, 56404, Control_c, 0, 64, 0
4, 56503, Note_on_c, 0, 69, 60
4, 56511, Note_on_c, 0, 62, 51
4, 56518, Note_on_c, 0, 53, 46
4, 56522, Note_on_c, 0, 65, 46
4, 56534, Note_on_c, 0, 60, 49
4, 56581, Note_on_c, 0, 60, 0
4, 56623, Note_on_c, 0, 62, 0
4, 56640, Note_on_c, 0, 65, 0
4, 56643, Note_on_c, 0, 53, 0
4, 56653, Note_on_c, 0, 69, 0
4, 56984, Note_on_c, 0, 67, 47
4, 56985, Note_on_c, 0, 64, 57
4, 56999, Note_on_c, 0, 59, 53
4, 57002, Note_on_c, 0, 43, 30
4, 57003, Note_on_c, 0, 53, 33
4, 57061, Control_c, 0, 64, 127
4, 57217, Note_on_c, 0, 64, 0
4, 57254, Note_on_c, 0, 67, 0
4, 57288, Note_on_c, 0, 53, 0
4, 57355, Note_on_c, 0, 59, 0
4, 57449, Note_on_c, 0, 46, 19
4, 57507, Note_on_c, 0, 47, 45
4, 57518, Note_on_c, 0, 43, 0
4, 57565, Note_on_c, 0, 46, 0
4, 57629, Note_on_c, 0, 47, 0
4, 57636, Control_c, 0, 64, 0
4, 57644, Note_on_c, 0, 60, 33
4, 57649, Note_on_c, 0, 48, 46
4, 57651, Note_on_c, 0, 57, 48
4, 57655, Note_on_c, 0, 64, 39
4, 57658, Note_on_c, 0, 55, 41
4, 57985, Note_on_c, 0, 48, 0
4, 58143, Note_on_c, 0, 43, 29
4, 58593, Note_on_c, 0, 55, 0
4, 58624, Control_c, 0, 64, 127
4, 58645, Note_on_c, 0, 52, 55
4, 58664, Note_on_c, 0, 57, 0
4, 58721, Note_on_c, 0, 60, 0
4, 58760, Note_on_c, 0, 43, 0
4, 58782, Note_on_c, 0, 64, 0
4, 59234, Note_on_c, 0, 52, 0
4, 59618, Note_on_c, 0, 63, 80
4, 59900, Note_on_c, 0, 63, 0
4, 59921, Note_on_c, 0, 64, 80
4, 60121, Note_on_c, 0, 64, 0
4, 60308, Control_c, 0, 64, 0
4, 60346, Note_on_c, 0, 67, 70
4, 60375, Note_on_c, 0, 60, 60
4, 60409, Note_on_c, 0, 52, 38
4, 60476, Note_on_c, 0, 52, 0
4, 60518, Control_c, 0, 64, 127
4, 60913, Note_on_c, 0, 67, 0
4, 60941, Note_on_c, 0, 60, 0
4, 60993, Note_on_c, 0, 65, 55
4, 61111, Note_on_c, 0, 65, 0
4, 61455, Control_c, 0, 64, 0
4, 61460, Note_on_c, 0, 62, 46
4, 61473, Note_on_c, 0, 53, 45
4, 61489, Note_on_c, 0, 57, 55
4, 61500, Note_on_c, 0, 60, 33
4, 61780, Note_on_c, 0, 52, 53
4, 61952, Note_on_c, 0, 52, 0
4, 62186, Note_on_c, 0, 50, 48
4, 62364, Note_on_c, 0, 50, 0
4, 62400, Note_on_c, 0, 60, 0
4, 62442, Note_on_c, 0, 57, 0
4, 62451, Note_on_c, 0, 53, 0
4, 62477, Note_on_c, 0, 49, 62
4, 62502, Control_c, 0, 64, 127
4, 62516, Note_on_c, 0, 62, 0
4, 62791, Control_c, 0, 64, 0
4, 62884, Note_on_c, 0, 61, 47
4, 62894, Note_on_c, 0, 50, 53
4, 62926, Note_on_c, 0, 49, 0
4, 62949, Control_c, 0, 64, 127
4, 63092, Note_on_c, 0, 61, 0
4, 63154, Note_on_c, 0, 62, 48
4, 63289, Note_on_c, 0, 62, 0
4, 63359, Control_c, 0, 64, 0
4, 63372, Note_on_c, 0, 50, 0
4, 63426, Note_on_c, 0, 63, 60
4, 63432, Note_on_c, 0, 65, 62
4, 63447, Note_on_c, 0, 53, 39
4, 63452, Note_on_c, 0, 57, 56
4, 63465, Note_on_c, 0, 43, 34
4, 63468, Note_on_c, 0, 59, 25
4, 63481, Note_on_c, 0, 60, 32
4, 63511, Note_on_c, 0, 63, 0
4, 63528, Note_on_c, 0, 60, 0
4, 63806, Control_c, 0, 64, 127
4, 63962, Note_on_c, 0, 57, 0
4, 64020, Note_on_c, 0, 59, 0
4, 64041, Note_on_c, 0, 53, 0
4, 64058, Note_on_c, 0, 43, 0
4, 64074, Note_on_c, 0, 65, 0
4, 64332, Control_c, 0, 64, 0
4, 64407, Note_on_c, 0, 43, 26
4, 64410, Note_on_c, 0, 59, 48
4, 64446, Note_on_c, 0, 53, 18
4, 64564, Note_on_c, 0, 43, 0
4, 64581, Control_c, 0, 64, 127
4, 64702, Note_on_c, 0, 53, 0
4, 64934, Note_on_c, 0, 59, 0
4, 65014, Control_c, 0, 64, 0
4, 65037, Note_on_c, 0, 36, 26
4, 65067, Note_on_c, 0, 60, 44
4, 65071, Note_on_c, 0, 52, 38
4, 65081, Note_on_c, 0, 55, 26
4, 65212, Control_c, 0, 64, 127
4, 65464, Note_on_c, 0, 52, 0
4, 65516, Control_c, 0, 64, 0
4, 65518, Note_on_c, 0, 43, 27
4, 65548, Note_on_c, 0, 36, 0
4, 65669, Note_on_c, 0, 43, 0
4, 65956, Note_on_c, 0, 52, 60
4, 66069, Note_on_c, 0, 52, 0
4, 66134, Control_c, 0, 64, 127
4, 66225, Note_on_c, 0, 52, 42
4, 66376, Note_on_c, 0, 55, 0
4, 66405, Note_on_c, 0, 52, 0
4, 66661, Note_on_c, 0, 60, 0
4, 66708, Note_on_c, 0, 52, 33
4, 67112, Note_on_c, 0, 52, 0
4, 67187, Control_c, 0, 64, 0
4, 67232, Note_on_c, 0, 59, 58
4, 67246, Note_on_c, 0, 47, 45
4, 67442, Note_on_c, 0, 59, 0
4, 67524, Note_on_c, 0, 60, 46
4, 67582, Note_on_c, 0, 48, 30
4, 67621, Control_c, 0, 64, 127
4, 67775, Note_on_c, 0, 60, 0
4, 67875, Note_on_c, 0, 48, 0
4, 67903, Note_on_c, 0, 47, 0
4, 67961, Note_on_c, 0, 52, 36
4, 67977, Note_on_c, 0, 64, 55
4, 68088, Note_on_c, 0, 52, 0
4, 68389, Note_on_c, 0, 64, 0
4, 68451, Note_on_c, 0, 55, 39
4, 68456, Note_on_c, 0, 67, 57
4, 68583, Note_on_c, 0, 55, 0
4, 68592, Control_c, 0, 64, 0
4, 68656, Note_on_c, 0, 67, 0
4, 69013, Control_c, 0, 64, 127
4, 69264, Control_c, 0, 64, 0
4, 69294, Note_on_c, 0, 69, 55
4, 69302, Note_on_c, 0, 65, 59
4, 69305, Note_on_c, 0, 51, 51
4, 69307, Note_on_c, 0, 39, 46
4, 69314, Note_on_c, 0, 60, 53
4, 69360, Note_on_c, 0, 60, 0
4, 69407, Note_on_c, 0, 51, 0
4, 69421, Note_on_c, 0, 39, 0
4, 69433, Note_on_c, 0, 65, 0
4, 69445, Note_on_c, 0, 69, 0
4, 70049, Note_on_c, 0, 70, 57
4, 70050, Note_on_c, 0, 66, 58
4, 70052, Note_on_c, 0, 61, 62
4, 70054, Note_on_c, 0, 51, 57
4, 70058, Control_c, 0, 64, 127
4, 70071, Note_on_c, 0, 39, 48
4, 70565, Note_on_c, 0, 39, 0
4, 70602, Note_on_c, 0, 51, 0
4, 70642, Note_on_c, 0, 61, 0
4, 70656, Note_on_c, 0, 66, 0
4, 70695, Note_on_c, 0, 70, 0
4, 71029, Control_c, 0, 64, 0
4, 71076, Note_on_c, 0, 68, 65
4, 71081, Note_on_c, 0, 62, 67
4, 71096, Note_on_c, 0, 57, 39
4, 71098, Note_on_c, 0, 55, 44
4, 71100, Note_on_c, 0, 72, 42
4, 71227, Note_on_c, 0, 68, 0
4, 71399, Control_c, 0, 64, 127
4, 71420, Note_on_c, 0, 55, 0
4, 71437, Note_on_c, 0, 57, 0
4, 71586, Note_on_c, 0, 72, 0
4, 71712, Note_on_c, 0, 62, 0
4, 71976, Control_c, 0, 64, 0
4, 72055, Note_on_c, 0, 66, 47
4, 72057, Note_on_c, 0, 71, 42
4, 72068, Note_on_c, 0, 60, 42
4, 72073, Note_on_c, 0, 64, 56
4, 72076, Note_on_c, 0, 54, 45
4, 72200, Control_c, 0, 64, 127
4, 72406, Note_on_c, 0, 54, 0
4, 72422, Note_on_c, 0, 71, 0
4, 72465, Note_on_c, 0, 64, 0
4, 72503, Note_on_c, 0, 66, 0
4, 72593, Note_on_c, 0, 60, 0
4, 72976, Control_c, 0, 64, 0
4, 73044, Note_on_c, 0, 67, 33
4, 73046, Note_on_c, 0, 43, 27
4, 73048, Note_on_c, 0, 58, 33
4, 73052, Note_on_c, 0, 62, 28
4, 73254, Note_on_c, 0, 58, 0
4, 73264, Control_c, 0, 64, 127
4, 73339, Note_on_c, 0, 62, 0
4, 73350, Note_on_c, 0, 55, 38
4, 73363, Note_on_c, 0, 67, 0
4, 73762, Note_on_c, 0, 62, 43
4, 73882, Note_on_c, 0, 55, 0
4, 73903, Note_on_c, 0, 62, 0
4, 74020, Note_on_c, 0, 55, 36
4, 74062, Note_on_c, 0, 69, 62
4, 74295, Note_on_c, 0, 43, 0
4, 74322, Note_on_c, 0, 69, 0
4, 74399, Note_on_c, 0, 74, 66
4, 74418, Note_on_c, 0, 55, 0
4, 74662, Note_on_c, 0, 74, 0
4, 74752, Note_on_c, 0, 72, 57
4, 74772, Note_on_c, 0, 53, 25
4, 74802, Control_c, 0, 64, 0
4, 75080, Control_c, 0, 64, 127
4, 75226, Control_c, 0, 64, 0
4, 75243, Note_on_c, 0, 62, 30
4, 75291, Note_on_c, 0, 58, 28
4, 75354, Note_on_c, 0, 58, 0
4, 75400, Note_on_c, 0, 62, 0
4, 75461, Control_c, 0, 64, 127
4, 75669, Note_on_c, 0, 69, 49
4, 75691, Note_on_c, 0, 62, 32
4, 75733, Note_on_c, 0, 58, 23
4, 75799, Note_on_c, 0, 58, 0
4, 75926, Note_on_c, 0, 69, 0
4, 75930, Note_on_c, 0, 70, 49
4, 75932, Note_on_c, 0, 72, 0
4, 75960, Note_on_c, 0, 62, 0
4, 76000, Note_on_c, 0, 70, 0
4, 76231, Note_on_c, 0, 74, 61
4, 76242, Note_on_c, 0, 62, 27
4, 76275, Note_on_c, 0, 58, 31
4, 76353, Note_on_c, 0, 74, 0
4, 76511, Note_on_c, 0, 53, 0
4, 76605, Note_on_c, 0, 77, 68
4, 76803, Note_on_c, 0, 77, 0
4, 76872, Note_on_c, 0, 58, 0
4, 76887, Note_on_c, 0, 84, 75
4, 76922, Control_c, 0, 64, 0
4, 76926, Note_on_c, 0, 51, 30
4, 76971, Note_on_c, 0, 62, 0
4, 77291, Control_c, 0, 64, 127
4, 77620, Note_on_c, 0, 82, 57
4, 77637, Note_on_c, 0, 74, 42
4, 77641, Note_on_c, 0, 62, 22
4, 77749, Note_on_c, 0, 62, 0
4, 77951, Note_on_c, 0, 84, 0
4, 78094, Note_on_c, 0, 62, 28
4, 78117, Note_on_c, 0, 58, 36
4, 78179, Note_on_c, 0, 62, 0
4, 78207, Note_on_c, 0, 74, 0
4, 78217, Note_on_c, 0, 82, 0
4, 78249, Note_on_c, 0, 58, 0
4, 78548, Note_on_c, 0, 62, 27
4, 78566, Note_on_c, 0, 58, 38
4, 78659, Note_on_c, 0, 51, 0
4, 78730, Note_on_c, 0, 62, 0
4, 78755, Note_on_c, 0, 77, 55
4, 78759, Note_on_c, 0, 58, 0
4, 78780, Note_on_c, 0, 65, 34
4, 78804, Note_on_c, 0, 50, 44
4, 78853, Control_c, 0, 64, 0
4, 79208, Control_c, 0, 64, 127
4, 79230, Note_on_c, 0, 70, 18
4, 79231, Note_on_c, 0, 60, 33
4, 79248, Note_on_c, 0, 57, 40
4, 79294, Note_on_c, 0, 70, 0
4, 79365, Note_on_c, 0, 60, 0
4, 79387, Note_on_c, 0, 57, 0
4, 79564, Control_c, 0, 64, 0
4, 79734, Note_on_c, 0, 60, 53
4, 79743, Note_on_c, 0, 57, 61
4, 79774, Control_c, 0, 64, 127
4, 79940, Note_on_c, 0, 77, 0
4, 80025, Note_on_c, 0, 65, 0
4, 80026, Note_on_c, 0, 50, 0
4, 80117, Control_c, 0, 64, 0
4, 80156, Note_on_c, 0, 50, 34
4, 80199, Note_on_c, 0, 75, 63
4, 80262, Note_on_c, 0, 65, 18
4, 80287, Control_c, 0, 64, 127
4, 80340, Note_on_c, 0, 50, 0
4, 80357, Note_on_c, 0, 57, 0
4, 80457, Note_on_c, 0, 60, 0
4, 80562, Note_on_c, 0, 65, 0
4, 80601, Note_on_c, 0, 75, 0
4, 80674, Note_on_c, 0, 74, 71
4, 80735, Control_c, 0, 64, 0
4, 81048, Note_on_c, 0, 75, 33
4, 81068, Note_on_c, 0, 51, 41
4, 81090, Control_c, 0, 64, 127
4, 81153, Note_on_c, 0, 74, 0
4, 81160, Note_on_c, 0, 51, 0
4, 81258, Note_on_c, 0, 75, 0
4, 81325, Note_on_c, 0, 73, 12
4, 81328, Note_on_c, 0, 74, 20
4, 81393, Control_c, 0, 64, 0
4, 81454, Note_on_c, 0, 55, 43
4, 81735, Note_on_c, 0, 63, 49
4, 81746, Note_on_c, 0, 60, 42
4, 81750, Note_on_c, 0, 67, 44
4, 81790, Note_on_c, 0, 55, 0
4, 81839, Control_c, 0, 64, 127
4, 82085, Note_on_c, 0, 55, 30
4, 82148, Note_on_c, 0, 60, 0
4, 82206, Note_on_c, 0, 55, 0
4, 82245, Note_on_c, 0, 67, 0
4, 82305, Note_on_c, 0, 74, 0
4, 82328, Note_on_c, 0, 63, 0
4, 82406, Control_c, 0, 64, 0
4, 82431, Note_on_c, 0, 73, 0
4, 82456, Note_on_c, 0, 66, 50
4, 82457, Note_on_c, 0, 63, 38
4, 82461, Note_on_c, 0, 60, 46
4, 82464, Note_on_c, 0, 50, 45
4, 82617, Control_c, 0, 64, 127
4, 82851, Note_on_c, 0, 63, 0
4, 82885, Note_on_c, 0, 57, 46
4, 82904, Note_on_c, 0, 60, 0
4, 83214, Note_on_c, 0, 66, 0
4, 83230, Note_on_c, 0, 57, 0
4, 83301, Note_on_c, 0, 62, 52
4, 83325, Note_on_c, 0, 57, 42
4, 83411, Note_on_c, 0, 62, 0
4, 83532, Note_on_c, 0, 70, 80
4, 83642, Note_on_c, 0, 57, 0
4, 83731, Control_c, 0, 64, 0
4, 83928, Note_on_c, 0, 50, 0
4, 83935, Note_on_c, 0, 57, 42
4, 83969, Control_c, 0, 64, 127
4, 84052, Note_on_c, 0, 57, 0
4, 84243, Note_on_c, 0, 62, 31
4, 84351, Note_on_c, 0, 70, 0
4, 84383, Note_on_c, 0, 62, 0
4, 84391, Control_c, 0, 64, 0
4, 84469, Note_on_c, 0, 55, 34
4, 84477, Note_on_c, 0, 67, 45
4, 84614, Control_c, 0, 64, 127
4, 84861, Note_on_c, 0, 58, 37
4, 84920, Note_on_c, 0, 58, 0
4, 85000, Note_on_c, 0, 55, 0
4, 85281, Note_on_c, 0, 62, 41
4, 85580, Note_on_c, 0, 67, 0
4, 85695, Note_on_c, 0, 50, 34
4, 85735, Note_on_c, 0, 62, 0
4, 85831, Note_on_c, 0, 50, 0
4, 86138, Note_on_c, 0, 50, 49
4, 86271, Control_c, 0, 64, 0
4, 86306, Note_on_c, 0, 50, 0
4, 86395, Note_on_c, 0, 53, 25
4, 86396, Note_on_c, 0, 60, 33
4, 86401, Note_on_c, 0, 57, 42
4, 86425, Note_on_c, 0, 38, 32
4, 86468, Control_c, 0, 64, 127
4, 86653, Note_on_c, 0, 53, 0
4, 86681, Note_on_c, 0, 57, 0
4, 86752, Note_on_c, 0, 60, 0
4, 86895, Note_on_c, 0, 50, 46
4, 87189, Note_on_c, 0, 67, 44
4, 87191, Note_on_c, 0, 60, 49
4, 87206, Note_on_c, 0, 64, 44
4, 87318, Note_on_c, 0, 60, 0
4, 87341, Note_on_c, 0, 67, 0
4, 87346, Note_on_c, 0, 64, 0
4, 87413, Note_on_c, 0, 50, 0
4, 87458, Note_on_c, 0, 67, 48
4, 87469, Note_on_c, 0, 64, 51
4, 87475, Note_on_c, 0, 60, 37
4, 87662, Note_on_c, 0, 60, 0
4, 87678, Note_on_c, 0, 64, 0
4, 87683, Note_on_c, 0, 67, 0
4, 87784, Note_on_c, 0, 64, 30
4, 87796, Note_on_c, 0, 50, 29
4, 87808, Note_on_c, 0, 60, 20
4, 87841, Note_on_c, 0, 38, 0
4, 87918, Note_on_c, 0, 64, 0
4, 87921, Note_on_c, 0, 60, 0
4, 88162, Note_on_c, 0, 50, 0
4, 88170, Note_on_c, 0, 67, 61
4, 88174, Note_on_c, 0, 58, 58
4, 88180, Control_c, 0, 64, 0
4, 88197, Note_on_c, 0, 62, 33
4, 88218, Note_on_c, 0, 43, 23
4, 88430, Control_c, 0, 64, 127
4, 88603, Note_on_c, 0, 62, 0
4, 88638, Note_on_c, 0, 58, 0
4, 88667, Note_on_c, 0, 67, 0
4, 88823, Control_c, 0, 64, 0
4, 88851, Note_on_c, 0, 62, 38
4, 88855, Note_on_c, 0, 55, 22
4, 89247, Note_on_c, 0, 55, 0
4, 89254, Note_on_c, 0, 50, 20
4, 89296, Control_c, 0, 64, 127
4, 89368, Note_on_c, 0, 57, 56
4, 89378, Note_on_c, 0, 62, 0
4, 89394, Note_on_c, 0, 50, 0
4, 89465, Note_on_c, 0, 43, 0
4, 89630, Note_on_c, 0, 50, 35
4, 89672, Note_on_c, 0, 43, 17
4, 89694, Note_on_c, 0, 50, 0
4, 89792, Note_on_c, 0, 43, 0
4, 90236, Note_on_c, 0, 38, 53
4, 90243, Control_c, 0, 64, 0
4, 90597, Control_c, 0, 64, 127
4, 90616, Note_on_c, 0, 45, 45
4, 90699, Note_on_c, 0, 57, 0
4, 90711, Note_on_c, 0, 45, 0
4, 90992, Control_c, 0, 64, 0
4, 91048, Note_on_c, 0, 57, 44
4, 91050, Note_on_c, 0, 50, 46
4, 91062, Note_on_c, 0, 53, 27
4, 91146, Note_on_c, 0, 50, 0
4, 91296, Note_on_c, 0, 50, 29
4, 91441, Control_c, 0, 64, 127
4, 91571, Note_on_c, 0, 50, 0
4, 91655, Note_on_c, 0, 53, 0
4, 91674, Note_on_c, 0, 57, 0
4, 91682, Note_on_c, 0, 38, 0
4, 91720, Note_on_c, 0, 45, 73
4, 92032, Control_c, 0, 64, 0
4, 92118, Note_on_c, 0, 45, 0
4, 92168, Note_on_c, 0, 43, 37
4, 92475, Note_on_c, 0, 57, 58
4, 92572, Control_c, 0, 64, 127
4, 92666, Note_on_c, 0, 57, 0
4, 92740, Note_on_c, 0, 58, 59
4, 92885, Note_on_c, 0, 58, 0
4, 93104, Note_on_c, 0, 55, 39
4, 93111, Note_on_c, 0, 62, 53
4, 93267, Note_on_c, 0, 62, 0
4, 93321, Note_on_c, 0, 43, 0
4, 93444, Note_on_c, 0, 65, 71
4, 93470, Note_on_c, 0, 55, 0
4, 93621, Note_on_c, 0, 65, 0
4, 93772, Note_on_c, 0, 72, 72
4, 94070, Control_c, 0, 64, 0
4, 94084, Note_on_c, 0, 64, 47
4, 94086, Note_on_c, 0, 67, 47
4, 94101, Note_on_c, 0, 60, 31
4, 94105, Note_on_c, 0, 50, 29
4, 94168, Note_on_c, 0, 57, 43
4, 94385, Control_c, 0, 64, 127
4, 94551, Note_on_c, 0, 64, 0
4, 94557, Note_on_c, 0, 67, 0
4, 94617, Note_on_c, 0, 60, 0
4, 94658, Note_on_c, 0, 57, 0
4, 94672, Note_on_c, 0, 50, 0
4, 94794, Control_c, 0, 64, 0
4, 94843, Note_on_c, 0, 50, 26
4, 94856, Note_on_c, 0, 67, 35
4, 94857, Note_on_c, 0, 64, 39
4, 94861, Note_on_c, 0, 57, 41
4, 94864, Note_on_c, 0, 60, 31
4, 94988, Control_c, 0, 64, 127
4, 95186, Note_on_c, 0, 50, 0
4, 95213, Note_on_c, 0, 57, 0
4, 95226, Note_on_c, 0, 60, 0
4, 95570, Note_on_c, 0, 57, 52
4, 95571, Note_on_c, 0, 67, 0
4, 95596, Note_on_c, 0, 50, 28
4, 95598, Note_on_c, 0, 64, 0
4, 95608, Note_on_c, 0, 72, 0
4, 95639, Note_on_c, 0, 57, 0
4, 95751, Note_on_c, 0, 50, 0
4, 96045, Control_c, 0, 64, 0
4, 96093, Note_on_c, 0, 60, 39
4, 96100, Note_on_c, 0, 65, 34
4, 96105, Note_on_c, 0, 55, 29
4, 96106, Note_on_c, 0, 50, 29
4, 96107, Note_on_c, 0, 69, 35
4, 96146, Note_on_c, 0, 43, 14
4, 96241, Control_c, 0, 64, 127
4, 96366, Note_on_c, 0, 55, 0
4, 96375, Note_on_c, 0, 69, 0
4, 96405, Note_on_c, 0, 65, 0
4, 96466, Note_on_c, 0, 60, 0
4, 96531, Note_on_c, 0, 43, 0
4, 96602, Note_on_c, 0, 50, 0
4, 96807, Control_c, 0, 64, 0
4, 96811, Note_on_c, 0, 65, 34
4, 96830, Note_on_c, 0, 62, 35
4, 96833, Note_on_c, 0, 58, 33
4, 96833, Note_on_c, 0, 57, 38
4, 96841, Note_on_c, 0, 53, 31
4, 96846, Note_on_c, 0, 43, 25
4, 96862, Note_on_c, 0, 50, 22
4, 97004, Control_c, 0, 64, 127
4, 97479, Note_on_c, 0, 53, 0
4, 97486, Note_on_c, 0, 62, 0
4, 97486, Note_on_c, 0, 50, 0
4, 97547, Note_on_c, 0, 58, 0
4, 97576, Note_on_c, 0, 65, 0
4, 97578, Note_on_c, 0, 43, 0
4, 97580, Note_on_c, 0, 57, 0
4, 97947, Note_on_c, 0, 64, 32
4, 97977, Control_c, 0, 64, 0
4, 97989, Note_on_c, 0, 57, 40
4, 97999, Note_on_c, 0, 50, 31
4, 98011, Note_on_c, 0, 38, 35
4, 98014, Note_on_c, 0, 53, 18
4, 98032, Note_on_c, 0, 60, 26
4, 98178, Note_on_c, 0, 53, 0
4, 98194, Note_on_c, 0, 57, 0
4, 98195, Note_on_c, 0, 60, 0
4, 98225, Note_on_c, 0, 50, 0
4, 98243, Note_on_c, 0, 64, 0
4, 98275, Note_on_c, 0, 38, 0
4, 98688, Note_on_c, 0, 64, 35
4, 98708, Note_on_c, 0, 38, 34
4, 98713, Note_on_c, 0, 50, 24
4, 98720, Note_on_c, 0, 60, 32
4, 98721, Note_on_c, 0, 57, 36
4, 98726, Note_on_c, 0, 53, 20
4, 98815, Control_c, 0, 64, 127
4, 98922, Control_c, 0, 64, 0
4, 99302, Note_on_c, 0, 53, 0
4, 99318, Note_on_c, 0, 57, 0
4, 99344, Note_on_c, 0, 60, 0
4, 99352, Note_on_c, 0, 64, 0
4, 99370, Note_on_c, 0, 50, 0
4, 99387, Note_on_c, 0, 38, 0
4, 99840, Control_c, 0, 64, 127
4, 99840, Control_c, 0, 64, 0
4, 99840, Control_c, 0, 64, 127
4, 99939, Control_c, 0, 64, 0
4, 99951, Note_on_c, 0, 62, 29
4, 99968, Note_on_c, 0, 58, 46
4, 99970, Note_on_c, 0, 81, 72
4, 99971, Note_on_c, 0, 74, 64
4, 99974, Note_on_c, 0, 57, 36
4, 99975, Note_on_c, 0, 69, 62
4, 99984, Note_on_c, 0, 55, 24
4, 100337, Control_c, 0, 64, 127
4, 100355, Note_on_c, 0, 62, 0
4, 100368, Note_on_c, 0, 58, 0
4, 100371, Note_on_c, 0, 57, 0
4, 100403, Note_on_c, 0, 55, 0
4, 100565, Control_c, 0, 64, 0
4, 100590, Note_on_c, 0, 62, 31
4, 100603, Note_on_c, 0, 58, 44
4, 100610, Note_on_c, 0, 57, 31
4, 100667, Note_on_c, 0, 57, 0
4, 100681, Note_on_c, 0, 62, 0
4, 100716, Note_on_c, 0, 58, 0
4, 100817, Control_c, 0, 64, 127
4, 100837, Note_on_c, 0, 62, 34
4, 100858, Note_on_c, 0, 55, 22
4, 100863, Note_on_c, 0, 58, 33
4, 100881, Note_on_c, 0, 57, 36
4, 100958, Note_on_c, 0, 57, 0
4, 101024, Note_on_c, 0, 62, 0
4, 101071, Control_c, 0, 64, 0
4, 101072, Note_on_c, 0, 58, 0
4, 101075, Note_on_c, 0, 69, 0
4, 101117, Note_on_c, 0, 55, 0
4, 101167, Note_on_c, 0, 81, 0
4, 101174, Note_on_c, 0, 77, 46
4, 101203, Control_c, 0, 64, 127
4, 101234, Note_on_c, 0, 74, 0
4, 101385, Note_on_c, 0, 77, 0
4, 101496, Control_c, 0, 64, 0
4, 101584, Note_on_c, 0, 72, 46
4, 101586, Note_on_c, 0, 50, 23
4, 101588, Note_on_c, 0, 60, 23
4, 101588, Note_on_c, 0, 57, 27
4, 101596, Note_on_c, 0, 79, 36
4, 101610, Note_on_c, 0, 76, 48
4, 101611, Note_on_c, 0, 55, 22
4, 101733, Note_on_c, 0, 57, 0
4, 101741, Note_on_c, 0, 55, 0
4, 101743, Note_on_c, 0, 60, 0
4, 101782, Note_on_c, 0, 50, 0
4, 102250, Note_on_c, 0, 60, 41
4, 102259, Note_on_c, 0, 55, 30
4, 102268, Note_on_c, 0, 57, 39
4, 102283, Note_on_c, 0, 50, 26
4, 102347, Note_on_c, 0, 57, 0
4, 102364, Note_on_c, 0, 60, 0
4, 102403, Note_on_c, 0, 55, 0
4, 102407, Note_on_c, 0, 50, 0
4, 102878, Note_on_c, 0, 76, 0
4, 102922, Note_on_c, 0, 72, 0
4, 102955, Note_on_c, 0, 79, 0
4, 102966, Note_on_c, 0, 60, 57
4, 102982, Note_on_c, 0, 57, 54
4, 102987, Note_on_c, 0, 55, 36
4, 103008, Note_on_c, 0, 50, 30
4, 103032, Note_on_c, 0, 57, 0
4, 103071, Note_on_c, 0, 50, 0
4, 103078, Note_on_c, 0, 60, 0
4, 103153, Note_on_c, 0, 55, 0
4, 103230, Note_on_c, 0, 75, 35
4, 103280, Note_on_c, 0, 75, 0
4, 103304, Note_on_c, 0, 76, 39
4, 103460, Note_on_c, 0, 76, 0
4, 103491, Note_on_c, 0, 79, 65
4, 103626, Note_on_c, 0, 79, 0
4, 103699, Note_on_c, 0, 62, 47
4, 103716, Note_on_c, 0, 58, 60
4, 103717, Note_on_c, 0, 57, 58
4, 103720, Note_on_c, 0, 74, 81
4, 103723, Note_on_c, 0, 55, 33
4, 103724, Note_on_c, 0, 81, 78
4, 103926, Note_on_c, 0, 74, 0
4, 103934, Note_on_c, 0, 81, 0
4, 104181, Note_on_c, 0, 81, 79
4, 104185, Note_on_c, 0, 74, 83
4, 104231, Note_on_c, 0, 62, 0
4, 104240, Note_on_c, 0, 57, 0
4, 104254, Note_on_c, 0, 58, 0
4, 104310, Note_on_c, 0, 55, 0
4, 104389, Note_on_c, 0, 81, 0
4, 104414, Note_on_c, 0, 74, 0
4, 104510, Note_on_c, 0, 58, 57
4, 104517, Note_on_c, 0, 62, 39
4, 104521, Note_on_c, 0, 57, 47
4, 104522, Note_on_c, 0, 55, 28
4, 104602, Control_c, 0, 64, 127
4, 104672, Note_on_c, 0, 81, 82
4, 104683, Note_on_c, 0, 74, 86
4, 104798, Note_on_c, 0, 62, 0
4, 104800, Note_on_c, 0, 57, 0
4, 104874, Note_on_c, 0, 58, 0
4, 104904, Note_on_c, 0, 55, 0
4, 104928, Note_on_c, 0, 81, 0
4, 104935, Note_on_c, 0, 74, 0
4, 105015, Note_on_c, 0, 77, 55
4, 105290, Note_on_c, 0, 77, 0
4, 105373, Control_c, 0, 64, 0
4, 105432, Note_on_c, 0, 79, 57
4, 105438, Note_on_c, 0, 74, 59
4, 105446, Note_on_c, 0, 59, 33
4, 105454, Note_on_c, 0, 57, 40
4, 105462, Note_on_c, 0, 55, 35
4, 105487, Note_on_c, 0, 50, 27
4, 105572, Note_on_c, 0, 59, 0
4, 105576, Note_on_c, 0, 57, 0
4, 105610, Note_on_c, 0, 55, 0
4, 105659, Note_on_c, 0, 50, 0
4, 105727, Note_on_c, 0, 74, 0
4, 105895, Note_on_c, 0, 57, 62
4, 105911, Note_on_c, 0, 55, 43
4, 105914, Note_on_c, 0, 50, 32
4, 105932, Note_on_c, 0, 72, 22
4, 106000, Note_on_c, 0, 57, 0
4, 106008, Note_on_c, 0, 55, 0
4, 106021, Note_on_c, 0, 72, 0
4, 106037, Note_on_c, 0, 50, 0
4, 106356, Note_on_c, 0, 57, 58
4, 106360, Note_on_c, 0, 55, 38
4, 106396, Note_on_c, 0, 50, 26
4, 106442, Note_on_c, 0, 57, 0
4, 106476, Note_on_c, 0, 50, 0
4, 106503, Note_on_c, 0, 55, 0
4, 106614, Note_on_c, 0, 57, 46
4, 106624, Note_on_c, 0, 55, 34
4, 106638, Control_c, 0, 64, 127
4, 106645, Note_on_c, 0, 50, 29
4, 106964, Note_on_c, 0, 55, 0
4, 106967, Note_on_c, 0, 50, 0
4, 106999, Note_on_c, 0, 79, 0
4, 107001, Note_on_c, 0, 57, 0
4, 107076, Note_on_c, 0, 74, 44
4, 107189, Note_on_c, 0, 74, 0
4, 107327, Note_on_c, 0, 84, 69
4, 107489, Control_c, 0, 64, 0
4, 107530, Note_on_c, 0, 84, 0
4, 107553, Note_on_c, 0, 62, 38
4, 107560, Note_on_c, 0, 58, 49
4, 107566, Note_on_c, 0, 57, 38
4, 107596, Note_on_c, 0, 81, 53
4, 107794, Note_on_c, 0, 81, 0
4, 108053, Note_on_c, 0, 58, 0
4, 108055, Note_on_c, 0, 81, 85
4, 108128, Note_on_c, 0, 62, 0
4, 108129, Note_on_c, 0, 57, 0
4, 108235, Note_on_c, 0, 81, 0
4, 108271, Note_on_c, 0, 62, 45
4, 108284, Note_on_c, 0, 58, 67
4, 108286, Note_on_c, 0, 57, 52
4, 108514, Note_on_c, 0, 81, 85
4, 108527, Control_c, 0, 64, 127
4, 108676, Note_on_c, 0, 62, 0
4, 108715, Note_on_c, 0, 57, 0
4, 108749, Note_on_c, 0, 58, 0
4, 108784, Note_on_c, 0, 81, 0
4, 108833, Note_on_c, 0, 77, 58
4, 108904, Note_on_c, 0, 77, 0
4, 109179, Control_c, 0, 64, 0
4, 109228, Note_on_c, 0, 79, 79
4, 109661, Note_on_c, 0, 57, 44
4, 109683, Note_on_c, 0, 55, 38
4, 109688, Note_on_c, 0, 50, 34
4, 109780, Note_on_c, 0, 57, 0
4, 109794, Note_on_c, 0, 55, 0
4, 109815, Note_on_c, 0, 50, 0
4, 110128, Note_on_c, 0, 57, 56
4, 110139, Note_on_c, 0, 55, 35
4, 110143, Note_on_c, 0, 50, 36
4, 110263, Note_on_c, 0, 57, 0
4, 110272, Note_on_c, 0, 50, 0
4, 110324, Note_on_c, 0, 55, 0
4, 110390, Control_c, 0, 64, 127
4, 110402, Note_on_c, 0, 57, 42
4, 110406, Note_on_c, 0, 50, 31
4, 110425, Note_on_c, 0, 55, 32
4, 110473, Note_on_c, 0, 79, 0
4, 110665, Note_on_c, 0, 50, 0
4, 110695, Note_on_c, 0, 55, 0
4, 110712, Note_on_c, 0, 57, 0
4, 110877, Note_on_c, 0, 79, 66
4, 110996, Note_on_c, 0, 79, 0
4, 111137, Note_on_c, 0, 84, 78
4, 111270, Control_c, 0, 64, 0
4, 111288, Note_on_c, 0, 84, 0
4, 111328, Note_on_c, 0, 62, 40
4, 111345, Note_on_c, 0, 58, 50
4, 111360, Note_on_c, 0, 57, 44
4, 111372, Note_on_c, 0, 53, 24
4, 111386, Note_on_c, 0, 81, 62
4, 111575, Note_on_c, 0, 81, 0
4, 111834, Note_on_c, 0, 81, 81
4, 111943, Note_on_c, 0, 58, 0
4, 111967, Note_on_c, 0, 62, 0
4, 112015, Note_on_c, 0, 57, 0
4, 112041, Note_on_c, 0, 81, 0
4, 112090, Note_on_c, 0, 62, 30
4, 112113, Note_on_c, 0, 58, 45
4, 112125, Note_on_c, 0, 57, 27
4, 112222, Note_on_c, 0, 62, 0
4, 112268, Control_c, 0, 64, 127
4, 112270, Note_on_c, 0, 58, 0
4, 112327, Note_on_c, 0, 81, 82
4, 112361, Note_on_c, 0, 53, 0
4, 112440, Note_on_c, 0, 57, 0
4, 112544, Note_on_c, 0, 53, 15
4, 112546, Note_on_c, 0, 58, 28
4, 112602, Note_on_c, 0, 58, 0
4, 112615, Note_on_c, 0, 81, 0
4, 112637, Note_on_c, 0, 77, 59
4, 112639, Note_on_c, 0, 53, 0
4, 112733, Note_on_c, 0, 77, 0
4, 112987, Control_c, 0, 64, 0
4, 113048, Note_on_c, 0, 79, 65
4, 113080, Note_on_c, 0, 57, 28
4, 113094, Note_on_c, 0, 50, 26
4, 113098, Note_on_c, 0, 55, 31
4, 113239, Note_on_c, 0, 50, 0
4, 113258, Note_on_c, 0, 55, 0
4, 113284, Note_on_c, 0, 57, 0
4, 113567, Note_on_c, 0, 57, 29
4, 113579, Note_on_c, 0, 50, 22
4, 113582, Note_on_c, 0, 55, 26
4, 113671, Note_on_c, 0, 50, 0
4, 113677, Note_on_c, 0, 57, 0
4, 113680, Note_on_c, 0, 55, 0
4, 114007, Note_on_c, 0, 57, 40
4, 114017, Note_on_c, 0, 55, 34
4, 114052, Note_on_c, 0, 50, 18
4, 114109, Note_on_c, 0, 57, 0
4, 114131, Note_on_c, 0, 50, 0
4, 114141, Note_on_c, 0, 55, 0
4, 114218, Note_on_c, 0, 79, 0
4, 114250, Note_on_c, 0, 50, 35
4, 114251, Note_on_c, 0, 57, 31
4, 114259, Note_on_c, 0, 55, 33
4, 114424, Note_on_c, 0, 57, 0
4, 114426, Note_on_c, 0, 50, 0
4, 114457, Note_on_c, 0, 55, 0
4, 115087, Control_c, 0, 64, 127
4, 115254, Control_c, 0, 64, 0
4, 115268, Note_on_c, 0, 62, 38
4, 115291, Note_on_c, 0, 58, 44
4, 115292, Note_on_c, 0, 55, 27
4, 115302, Note_on_c, 0, 79, 68
4, 115476, Note_on_c, 0, 79, 0
4, 115602, Note_on_c, 0, 74, 44
4, 115634, Note_on_c, 0, 62, 0
4, 115643, Note_on_c, 0, 58, 0
4, 115666, Note_on_c, 0, 74, 0
4, 115967, Note_on_c, 0, 81, 60
4, 115972, Note_on_c, 0, 62, 25
4, 115991, Note_on_c, 0, 58, 35
4, 116082, Note_on_c, 0, 81, 0
4, 116093, Note_on_c, 0, 62, 0
4, 116129, Note_on_c, 0, 58, 0
4, 116146, Control_c, 0, 64, 127
4, 116190, Note_on_c, 0, 55, 0
4, 116425, Control_c, 0, 64, 0
4, 116438, Note_on_c, 0, 86, 79
4, 116465, Note_on_c, 0, 62, 28
4, 116501, Note_on_c, 0, 58, 27
4, 116518, Note_on_c, 0, 55, 12
4, 116638, Control_c, 0, 64, 127
4, 116955, Note_on_c, 0, 86, 0
4, 116970, Note_on_c, 0, 55, 0
4, 117051, Control_c, 0, 64, 0
4, 117118, Note_on_c, 0, 53, 36
4, 117144, Note_on_c, 0, 84, 66
4, 117234, Note_on_c, 0, 62, 0
4, 117271, Note_on_c, 0, 58, 0
4, 117274, Note_on_c, 0, 84, 0
4, 117278, Note_on_c, 0, 53, 0
4, 117873, Note_on_c, 0, 62, 39
4, 117879, Note_on_c, 0, 58, 50
4, 117899, Note_on_c, 0, 53, 25
4, 117968, Note_on_c, 0, 53, 0
4, 117987, Note_on_c, 0, 62, 0
4, 118008, Note_on_c, 0, 58, 0
4, 118098, Note_on_c, 0, 62, 49
4, 118110, Note_on_c, 0, 53, 25
4, 118117, Note_on_c, 0, 58, 42
4, 118526, Note_on_c, 0, 62, 0
4, 118565, Note_on_c, 0, 82, 82
4, 118572, Note_on_c, 0, 70, 82
4, 118611, Note_on_c, 0, 53, 0
4, 118655, Note_on_c, 0, 58, 0
4, 118800, Note_on_c, 0, 70, 0
4, 118833, Note_on_c, 0, 82, 0
4, 119056, Note_on_c, 0, 51, 50
4, 119057, Note_on_c, 0, 62, 47
4, 119057, Note_on_c, 0, 58, 49
4, 119076, Note_on_c, 0, 81, 71
4, 119086, Note_on_c, 0, 69, 62
4, 119092, Note_on_c, 0, 74, 54
4, 119364, Note_on_c, 0, 51, 0
4, 119482, Note_on_c, 0, 62, 0
4, 119487, Control_c, 0, 64, 127
4, 119522, Note_on_c, 0, 58, 0
4, 119786, Note_on_c, 0, 62, 49
4, 119802, Note_on_c, 0, 51, 36
4, 119804, Note_on_c, 0, 58, 43
4, 119829, Note_on_c, 0, 55, 18
4, 119865, Note_on_c, 0, 58, 0
4, 119883, Note_on_c, 0, 62, 0
4, 119887, Note_on_c, 0, 51, 0
4, 119907, Note_on_c, 0, 55, 0
4, 119939, Control_c, 0, 64, 0
4, 120019, Control_c, 0, 64, 127
4, 120066, Note_on_c, 0, 62, 33
4, 120081, Note_on_c, 0, 51, 40
4, 120090, Note_on_c, 0, 58, 33
4, 120094, Note_on_c, 0, 81, 0
4, 120112, Note_on_c, 0, 74, 0
4, 120114, Note_on_c, 0, 69, 0
4, 120244, Control_c, 0, 64, 0
4, 120335, Note_on_c, 0, 79, 67
4, 120336, Note_on_c, 0, 74, 69
4, 120391, Control_c, 0, 64, 127
4, 120481, Note_on_c, 0, 62, 0
4, 120541, Note_on_c, 0, 58, 0
4, 120563, Note_on_c, 0, 74, 0
4, 120574, Note_on_c, 0, 51, 0
4, 120591, Note_on_c, 0, 79, 0
4, 120790, Control_c, 0, 64, 0
4, 120819, Note_on_c, 0, 77, 66
4, 120831, Note_on_c, 0, 65, 57
4, 120838, Note_on_c, 0, 72, 53
4, 120851, Note_on_c, 0, 60, 34
4, 120863, Note_on_c, 0, 53, 28
4, 120871, Note_on_c, 0, 50, 30
4, 120873, Note_on_c, 0, 57, 37
4, 121296, Control_c, 0, 64, 127
4, 121452, Note_on_c, 0, 57, 0
4, 121469, Note_on_c, 0, 50, 0
4, 121491, Note_on_c, 0, 60, 0
4, 121493, Note_on_c, 0, 53, 0
4, 121911, Note_on_c, 0, 60, 42
4, 121935, Control_c, 0, 64, 0
4, 121936, Note_on_c, 0, 57, 43
4, 121960, Note_on_c, 0, 53, 22
4, 121963, Note_on_c, 0, 50, 20
4, 121989, Note_on_c, 0, 65, 0
4, 122072, Note_on_c, 0, 72, 0
4, 122094, Note_on_c, 0, 77, 0
4, 122104, Note_on_c, 0, 57, 0
4, 122263, Note_on_c, 0, 57, 32
4, 122320, Note_on_c, 0, 60, 0
4, 122325, Note_on_c, 0, 50, 0
4, 122401, Note_on_c, 0, 53, 0
4, 122424, Note_on_c, 0, 57, 0
4, 122428, Note_on_c, 0, 75, 84
4, 122623, Note_on_c, 0, 75, 0
4, 122910, Note_on_c, 0, 74, 90
4, 122912, Note_on_c, 0, 63, 44
4, 122918, Note_on_c, 0, 67, 47
4, 122919, Note_on_c, 0, 58, 53
4, 122938, Note_on_c, 0, 62, 46
4, 123309, Control_c, 0, 64, 127
4, 123409, Note_on_c, 0, 62, 0
4, 123416, Note_on_c, 0, 58, 0
4, 123422, Note_on_c, 0, 67, 0
4, 123470, Note_on_c, 0, 63, 0
4, 123641, Note_on_c, 0, 72, 62
4, 123647, Note_on_c, 0, 67, 51
4, 123649, Note_on_c, 0, 63, 42
4, 123672, Note_on_c, 0, 62, 34
4, 123675, Note_on_c, 0, 74, 0
4, 123696, Control_c, 0, 64, 0
4, 123724, Note_on_c, 0, 58, 18
4, 123782, Note_on_c, 0, 72, 0
4, 123904, Note_on_c, 0, 72, 53
4, 123972, Note_on_c, 0, 62, 0
4, 123981, Note_on_c, 0, 67, 0
4, 124035, Note_on_c, 0, 63, 0
4, 124062, Note_on_c, 0, 58, 0
4, 124106, Note_on_c, 0, 72, 0
4, 124377, Note_on_c, 0, 65, 58
4, 124400, Note_on_c, 0, 54, 40
4, 124412, Note_on_c, 0, 60, 41
4, 124491, Note_on_c, 0, 54, 0
4, 124543, Note_on_c, 0, 65, 0
4, 124548, Note_on_c, 0, 60, 0
4, 125078, Note_on_c, 0, 65, 53
4, 125096, Note_on_c, 0, 54, 36
4, 125097, Note_on_c, 0, 60, 34
4, 125110, Note_on_c, 0, 58, 41
4, 125191, Note_on_c, 0, 65, 0
4, 125214, Note_on_c, 0, 60, 0
4, 125220, Note_on_c, 0, 54, 0
4, 125252, Note_on_c, 0, 58, 0
4, 125537, Note_on_c, 0, 65, 55
4, 125562, Note_on_c, 0, 60, 34
4, 125568, Note_on_c, 0, 54, 30
4, 125576, Note_on_c, 0, 58, 32
4, 125587, Note_on_c, 0, 65, 0
4, 125624, Note_on_c, 0, 54, 0
4, 125699, Note_on_c, 0, 60, 0
4, 125744, Note_on_c, 0, 58, 0
4, 125799, Note_on_c, 0, 73, 42
4, 125846, Note_on_c, 0, 86, 46
4, 125918, Note_on_c, 0, 73, 0
4, 125931, Note_on_c, 0, 74, 49
4, 126060, Note_on_c, 0, 65, 38
4, 126061, Note_on_c, 0, 54, 49
4, 126081, Note_on_c, 0, 60, 31
4, 126082, Note_on_c, 0, 86, 0
4, 126086, Note_on_c, 0, 58, 42
4, 126100, Note_on_c, 0, 74, 0
4, 126174, Note_on_c, 0, 65, 0
4, 126224, Note_on_c, 0, 54, 0
4, 126226, Note_on_c, 0, 60, 0
4, 126271, Note_on_c, 0, 84, 77
4, 126296, Note_on_c, 0, 72, 78
4, 126305, Note_on_c, 0, 58, 0
4, 126462, Note_on_c, 0, 84, 0
4, 126559, Note_on_c, 0, 72, 0
4, 126754, Note_on_c, 0, 63, 67
4, 126761, Note_on_c, 0, 82, 60
4, 126765, Note_on_c, 0, 53, 40
4, 126769, Note_on_c, 0, 59, 50
4, 126776, Note_on_c, 0, 75, 65
4, 126782, Note_on_c, 0, 71, 62
4, 126790, Note_on_c, 0, 79, 49
4, 126845, Note_on_c, 0, 56, 19
4, 127064, Control_c, 0, 64, 127
4, 127150, Note_on_c, 0, 79, 0
4, 127191, Note_on_c, 0, 82, 0
4, 127254, Note_on_c, 0, 53, 0
4, 127263, Note_on_c, 0, 75, 0
4, 127266, Note_on_c, 0, 71, 0
4, 127301, Note_on_c, 0, 63, 0
4, 127304, Note_on_c, 0, 56, 0
4, 127370, Note_on_c, 0, 59, 0
4, 127477, Control_c, 0, 64, 0
4, 127505, Note_on_c, 0, 75, 55
4, 127511, Note_on_c, 0, 63, 51
4, 127515, Note_on_c, 0, 67, 45
4, 127518, Note_on_c, 0, 79, 51
4, 127521, Note_on_c, 0, 59, 34
4, 127522, Note_on_c, 0, 53, 33
4, 127677, Control_c, 0, 64, 127
4, 128121, Note_on_c, 0, 59, 0
4, 128169, Note_on_c, 0, 63, 0
4, 128177, Note_on_c, 0, 53, 0
4, 128280, Note_on_c, 0, 67, 0
4, 128336, Note_on_c, 0, 75, 0
4, 128675, Control_c, 0, 64, 0
4, 128692, Note_on_c, 0, 70, 34
4, 128695, Note_on_c, 0, 62, 26
4, 128697, Note_on_c, 0, 67, 29
4, 128701, Note_on_c, 0, 58, 33
4, 128718, Note_on_c, 0, 52, 17
4, 129048, Control_c, 0, 64, 127
4, 129161, Note_on_c, 0, 52, 0
4, 129162, Note_on_c, 0, 67, 0
4, 129163, Note_on_c, 0, 62, 0
4, 129185, Note_on_c, 0, 58, 0
4, 129254, Note_on_c, 0, 70, 0
4, 129321, Note_on_c, 0, 79, 0
4, 129385, Note_on_c, 0, 62, 36
4, 129394, Note_on_c, 0, 58, 37
4, 129396, Note_on_c, 0, 52, 33
4, 129584, Note_on_c, 0, 58, 0
4, 129600, Note_on_c, 0, 62, 0
4, 129825, Note_on_c, 0, 82, 70
4, 129833, Note_on_c, 0, 58, 53
4, 129838, Note_on_c, 0, 70, 62
4, 129846, Control_c, 0, 64, 0
4, 129979, Note_on_c, 0, 70, 0
4, 130012, Note_on_c, 0, 82, 0
4, 130045, Note_on_c, 0, 58, 0
4, 130179, Control_c, 0, 64, 127
4, 130226, Note_on_c, 0, 59, 59
4, 130251, Note_on_c, 0, 83, 82
4, 130263, Note_on_c, 0, 71, 78
4, 130349, Note_on_c, 0, 59, 0
4, 130381, Note_on_c, 0, 71, 0
4, 130390, Note_on_c, 0, 52, 0
4, 130432, Note_on_c, 0, 83, 0
4, 130604, Control_c, 0, 64, 0
4, 130619, Note_on_c, 0, 82, 81
4, 130625, Note_on_c, 0, 75, 81
4, 130653, Note_on_c, 0, 71, 65
4, 130952, Control_c, 0, 64, 127
4, 131036, Note_on_c, 0, 82, 0
4, 131046, Note_on_c, 0, 75, 0
4, 131100, Note_on_c, 0, 71, 0
4, 131280, Note_on_c, 0, 47, 40
4, 131604, Note_on_c, 0, 47, 0
4, 131765, Note_on_c, 0, 67, 42
4, 131767, Note_on_c, 0, 59, 38
4, 131783, Note_on_c, 0, 63, 36
4, 131786, Note_on_c, 0, 47, 37
4, 131815, Note_on_c, 0, 54, 33
4, 131842, Control_c, 0, 64, 0
4, 131894, Note_on_c, 0, 59, 0
4, 131895, Note_on_c, 0, 63, 0
4, 131904, Note_on_c, 0, 54, 0
4, 131927, Note_on_c, 0, 67, 0
4, 132021, Note_on_c, 0, 59, 31
4, 132033, Note_on_c, 0, 63, 33
4, 132046, Note_on_c, 0, 54, 23
4, 132052, Note_on_c, 0, 67, 30
4, 132159, Note_on_c, 0, 59, 0
4, 132177, Note_on_c, 0, 47, 0
4, 132240, Note_on_c, 0, 67, 0
4, 132288, Note_on_c, 0, 54, 0
4, 132291, Note_on_c, 0, 63, 0
4, 132487, Note_on_c, 0, 64, 38
4, 132489, Note_on_c, 0, 67, 34
4, 132491, Note_on_c, 0, 60, 38
4, 132495, Note_on_c, 0, 46, 30
4, 132596, Note_on_c, 0, 60, 0
4, 132609, Note_on_c, 0, 64, 0
4, 132628, Note_on_c, 0, 46, 0
4, 132653, Note_on_c, 0, 67, 0
4, 132952, Note_on_c, 0, 56, 35
4, 132956, Note_on_c, 0, 46, 32
4, 132968, Note_on_c, 0, 67, 42
4, 132976, Note_on_c, 0, 64, 51
4, 132993, Note_on_c, 0, 60, 38
4, 133293, Control_c, 0, 64, 127
4, 133295, Note_on_c, 0, 60, 0
4, 133317, Note_on_c, 0, 67, 0
4, 133364, Note_on_c, 0, 64, 0
4, 133424, Note_on_c, 0, 46, 0
4, 133434, Note_on_c, 0, 56, 0
4, 133653, Control_c, 0, 64, 0
4, 133709, Note_on_c, 0, 71, 76
4, 133710, Note_on_c, 0, 64, 80
4, 133717, Note_on_c, 0, 46, 65
4, 133722, Note_on_c, 0, 56, 65
4, 133866, Control_c, 0, 64, 127
4, 133975, Note_on_c, 0, 71, 0
4, 134064, Note_on_c, 0, 64, 0
4, 134199, Note_on_c, 0, 56, 0
4, 134272, Note_on_c, 0, 46, 0
4, 134331, Control_c, 0, 64, 0
4, 134398, Note_on_c, 0, 45, 62
4, 134401, Note_on_c, 0, 55, 54
4, 134402, Note_on_c, 0, 70, 69
4, 134405, Note_on_c, 0, 64, 69
4, 134414, Note_on_c, 0, 61, 67
4, 134429, Note_on_c, 0, 67, 45
4, 134652, Control_c, 0, 64, 127
4, 134762, Note_on_c, 0, 67, 0
4, 134848, Note_on_c, 0, 61, 0
4, 134937, Note_on_c, 0, 45, 0
4, 134943, Note_on_c, 0, 55, 0
4, 134965, Note_on_c, 0, 64, 0
4, 134993, Note_on_c, 0, 70, 0
4, 135103, Control_c, 0, 64, 0
4, 135165, Note_on_c, 0, 67, 55
4, 135166, Note_on_c, 0, 64, 54
4, 135170, Note_on_c, 0, 60, 60
4, 135179, Note_on_c, 0, 55, 53
4, 135191, Note_on_c, 0, 45, 51
4, 135357, Control_c, 0, 64, 127
4, 135795, Note_on_c, 0, 55, 0
4, 135821, Note_on_c, 0, 67, 0
4, 135854, Note_on_c, 0, 64, 0
4, 135870, Note_on_c, 0, 60, 0
4, 136068, Note_on_c, 0, 47, 28
4, 136099, Note_on_c, 0, 45, 0
4, 136103, Note_on_c, 0, 48, 41
4, 136194, Note_on_c, 0, 47, 0
4, 136211, Note_on_c, 0, 49, 45
4, 136239, Note_on_c, 0, 48, 0
4, 136248, Control_c, 0, 64, 0
4, 136304, Note_on_c, 0, 50, 42
4, 136328, Note_on_c, 0, 57, 34
4, 136331, Note_on_c, 0, 66, 30
4, 136332, Note_on_c, 0, 63, 36
4, 136348, Note_on_c, 0, 49, 0
4, 136457, Note_on_c, 0, 63, 0
4, 136462, Note_on_c, 0, 66, 0
4, 136471, Note_on_c, 0, 57, 0
4, 136818, Note_on_c, 0, 65, 53
4, 136823, Note_on_c, 0, 38, 46
4, 136825, Note_on_c, 0, 54, 55
4, 136836, Note_on_c, 0, 60, 42
4, 136993, Note_on_c, 0, 65, 0
4, 137002, Note_on_c, 0, 54, 0
4, 137006, Note_on_c, 0, 60, 0
4, 137313, Note_on_c, 0, 60, 41
4, 137445, Note_on_c, 0, 61, 32
4, 137523, Note_on_c, 0, 60, 0
4, 137555, Note_on_c, 0, 61, 0
4, 137567, Note_on_c, 0, 62, 42
4, 137693, Note_on_c, 0, 45, 28
4, 137705, Note_on_c, 0, 62, 0
4, 137705, Note_on_c, 0, 38, 0
4, 137755, Note_on_c, 0, 45, 0
4, 137807, Note_on_c, 0, 65, 88
4, 137859, Note_on_c, 0, 64, 49
4, 137906, Note_on_c, 0, 64, 0
4, 138075, Note_on_c, 0, 65, 0
4, 138117, Note_on_c, 0, 50, 0
4, 138259, Note_on_c, 0, 43, 32
4, 138275, Note_on_c, 0, 67, 74
4, 138587, Note_on_c, 0, 57, 32
4, 138599, Note_on_c, 0, 62, 30
4, 138601, Note_on_c, 0, 55, 29
4, 138607, Note_on_c, 0, 58, 31
4, 138670, Note_on_c, 0, 57, 0
4, 138686, Note_on_c, 0, 55, 0
4, 138726, Note_on_c, 0, 62, 0
4, 138730, Note_on_c, 0, 58, 0
4, 138903, Note_on_c, 0, 67, 0
4, 139017, Note_on_c, 0, 62, 25
4, 139018, Note_on_c, 0, 55, 29
4, 139041, Note_on_c, 0, 58, 40
4, 139050, Note_on_c, 0, 57, 46
4, 139119, Note_on_c, 0, 55, 0
4, 139168, Note_on_c, 0, 57, 0
4, 139183, Note_on_c, 0, 58, 0
4, 139199, Note_on_c, 0, 62, 0
4, 139305, Note_on_c, 0, 62, 45
4, 139308, Note_on_c, 0, 55, 32
4, 139326, Note_on_c, 0, 58, 25
4, 139334, Note_on_c, 0, 57, 20
4, 139338, Control_c, 0, 64, 127
4, 139350, Control_c, 0, 64, 0
4, 139390, Note_on_c, 0, 57, 0
4, 139411, Note_on_c, 0, 55, 0
4, 139415, Note_on_c, 0, 58, 0
4, 139447, Note_on_c, 0, 62, 0
4, 139696, Note_on_c, 0, 43, 0
4, 139720, Note_on_c, 0, 62, 35
4, 139721, Note_on_c, 0, 58, 60
4, 139725, Control_c, 0, 64, 127
4, 139726, Note_on_c, 0, 55, 34
4, 139758, Note_on_c, 0, 57, 34
4, 139813, Note_on_c, 0, 58, 0
4, 139814, Note_on_c, 0, 57, 0
4, 139860, Note_on_c, 0, 62, 0
4, 139935, Note_on_c, 0, 55, 0
4, 139975, Control_c, 0, 64, 0
4, 140182, Note_on_c, 0, 50, 48
4, 140202, Control_c, 0, 64, 127
4, 140297, Note_on_c, 0, 50, 0
4, 140641, Control_c, 0, 64, 0
4, 140668, Note_on_c, 0, 54, 66
4, 140674, Note_on_c, 0, 65, 66
4, 140684, Note_on_c, 0, 60, 57
4, 140688, Note_on_c, 0, 86, 60
4, 140689, Note_on_c, 0, 89, 67
4, 140692, Note_on_c, 0, 77, 66
4, 140696, Note_on_c, 0, 82, 54
4, 141040, Control_c, 0, 64, 127
4, 141079, Note_on_c, 0, 86, 0
4, 141090, Note_on_c, 0, 89, 0
4, 141151, Note_on_c, 0, 82, 0
4, 141163, Note_on_c, 0, 77, 0
4, 141216, Note_on_c, 0, 60, 0
4, 141249, Note_on_c, 0, 65, 0
4, 141271, Note_on_c, 0, 54, 0
4, 141410, Note_on_c, 0, 86, 60
4, 141417, Note_on_c, 0, 74, 49
4, 141427, Note_on_c, 0, 81, 53
4, 141429, Note_on_c, 0, 65, 56
4, 141434, Note_on_c, 0, 54, 53
4, 141445, Note_on_c, 0, 60, 41
4, 141454, Control_c, 0, 64, 0
4, 141581, Note_on_c, 0, 74, 0
4, 141599, Note_on_c, 0, 81, 0
4, 141607, Note_on_c, 0, 86, 0
4, 141654, Note_on_c, 0, 60, 0
4, 141984, Control_c, 0, 64, 127
4, 141984, Control_c, 0, 64, 0
4, 141984, Control_c, 0, 64, 127
4, 141984, Control_c, 0, 64, 0
4, 141984, Control_c, 0, 64, 127
4, 142069, Note_on_c, 0, 65, 0
4, 142082, Control_c, 0, 64, 0
4, 142086, Note_on_c, 0, 54, 0
4, 142135, Note_on_c, 0, 62, 31
4, 142171, Note_on_c, 0, 79, 69
4, 142172, Note_on_c, 0, 58, 35
4, 142175, Note_on_c, 0, 55, 22
4, 142189, Note_on_c, 0, 57, 24
4, 142242, Note_on_c, 0, 57, 0
4, 142265, Note_on_c, 0, 62, 0
4, 142268, Note_on_c, 0, 58, 0
4, 142276, Note_on_c, 0, 79, 0
4, 142313, Note_on_c, 0, 55, 0
4, 142626, Note_on_c, 0, 74, 43
4, 142742, Note_on_c, 0, 74, 0
4, 143083, Control_c, 0, 64, 127
4, 143084, Note_on_c, 0, 81, 65
4, 143094, Note_on_c, 0, 62, 17
4, 143100, Note_on_c, 0, 58, 32
4, 143124, Note_on_c, 0, 55, 22
4, 143132, Note_on_c, 0, 81, 0
4, 143138, Note_on_c, 0, 57, 15
4, 143242, Control_c, 0, 64, 0
4, 143436, Note_on_c, 0, 57, 0
4, 143450, Note_on_c, 0, 86, 66
4, 143513, Note_on_c, 0, 62, 0
4, 143525, Note_on_c, 0, 58, 0
4, 143543, Note_on_c, 0, 86, 0
4, 143581, Note_on_c, 0, 55, 0
4, 143669, Control_c, 0, 64, 127
4, 143763, Control_c, 0, 64, 0
4, 143823, Note_on_c, 0, 84, 80
4, 144954, Note_on_c, 0, 67, 47
4, 144994, Note_on_c, 0, 56, 35
4, 144995, Note_on_c, 0, 62, 22
4, 145014, Note_on_c, 0, 60, 16
4, 145373, Control_c, 0, 64, 127
4, 145408, Note_on_c, 0, 62, 0
4, 145440, Note_on_c, 0, 60, 0
4, 145463, Note_on_c, 0, 67, 0
4, 145578, Note_on_c, 0, 56, 0
4, 145682, Note_on_c, 0, 82, 57
4, 145812, Note_on_c, 0, 84, 0
4, 145825, Control_c, 0, 64, 0
4, 145861, Note_on_c, 0, 82, 0
4, 146030, Note_on_c, 0, 79, 50
4, 146384, Control_c, 0, 64, 127
4, 146523, Note_on_c, 0, 61, 21
4, 146597, Note_on_c, 0, 61, 0
4, 146797, Control_c, 0, 64, 0
4, 146873, Note_on_c, 0, 67, 49
4, 146875, Note_on_c, 0, 62, 35
4, 146877, Note_on_c, 0, 56, 57
4, 147212, Control_c, 0, 64, 127
4, 147327, Note_on_c, 0, 62, 0
4, 147350, Note_on_c, 0, 67, 0
4, 147467, Note_on_c, 0, 56, 0
4, 147598, Control_c, 0, 64, 0
4, 147621, Note_on_c, 0, 66, 57
4, 147634, Note_on_c, 0, 61, 41
4, 147637, Note_on_c, 0, 55, 29
4, 147906, Note_on_c, 0, 79, 0
4, 148127, Note_on_c, 0, 78, 69
4, 148274, Note_on_c, 0, 78, 0
4, 148310, Note_on_c, 0, 66, 0
4, 148363, Note_on_c, 0, 79, 71
4, 148371, Control_c, 0, 64, 127
4, 148503, Note_on_c, 0, 55, 0
4, 148529, Note_on_c, 0, 79, 0
4, 148581, Note_on_c, 0, 61, 0
4, 148618, Note_on_c, 0, 82, 85
4, 148623, Control_c, 0, 64, 0
4, 148774, Note_on_c, 0, 82, 0
4, 148833, Note_on_c, 0, 61, 48
4, 148836, Note_on_c, 0, 66, 57
4, 148845, Note_on_c, 0, 55, 49
4, 148848, Note_on_c, 0, 82, 84
4, 149160, Note_on_c, 0, 82, 0
4, 149213, Note_on_c, 0, 66, 0
4, 149222, Note_on_c, 0, 55, 0
4, 149262, Control_c, 0, 64, 127
4, 149285, Note_on_c, 0, 81, 79
4, 149363, Note_on_c, 0, 61, 0
4, 149553, Note_on_c, 0, 81, 0
4, 149743, Control_c, 0, 64, 0
4, 149774, Note_on_c, 0, 65, 43
4, 149782, Note_on_c, 0, 54, 40
4, 149787, Note_on_c, 0, 58, 47
4, 149791, Note_on_c, 0, 61, 36
4, 149807, Note_on_c, 0, 77, 35
4, 149823, Note_on_c, 0, 76, 36
4, 149878, Note_on_c, 0, 76, 0
4, 150036, Note_on_c, 0, 77, 0
4, 150297, Note_on_c, 0, 58, 0
4, 150326, Note_on_c, 0, 65, 0
4, 150327, Note_on_c, 0, 61, 0
4, 150355, Note_on_c, 0, 54, 0
4, 150380, Control_c, 0, 64, 127
4, 150531, Note_on_c, 0, 65, 69
4, 150532, Note_on_c, 0, 61, 62
4, 150533, Note_on_c, 0, 78, 79
4, 150536, Note_on_c, 0, 58, 67
4, 150537, Note_on_c, 0, 54, 65
4, 150722, Note_on_c, 0, 78, 0
4, 150743, Note_on_c, 0, 65, 0
4, 150824, Note_on_c, 0, 78, 60
4, 150825, Note_on_c, 0, 65, 47
4, 150986, Note_on_c, 0, 65, 0
4, 151002, Note_on_c, 0, 78, 0
4, 151027, Note_on_c, 0, 54, 0
4, 151110, Note_on_c, 0, 65, 57
4, 151113, Note_on_c, 0, 54, 27
4, 151120, Note_on_c, 0, 78, 67
4, 151238, Note_on_c, 0, 65, 0
4, 151278, Note_on_c, 0, 78, 0
4, 151282, Note_on_c, 0, 54, 0
4, 151371, Note_on_c, 0, 61, 0
4, 151412, Note_on_c, 0, 58, 0
4, 151447, Control_c, 0, 64, 0
4, 151515, Note_on_c, 0, 77, 81
4, 151527, Note_on_c, 0, 58, 72
4, 151530, Note_on_c, 0, 65, 75
4, 151533, Note_on_c, 0, 60, 64
4, 151540, Note_on_c, 0, 54, 76
4, 151659, Control_c, 0, 64, 127
4, 151735, Note_on_c, 0, 77, 0
4, 151751, Note_on_c, 0, 65, 0
4, 151768, Note_on_c, 0, 60, 0
4, 151793, Note_on_c, 0, 54, 0
4, 151828, Note_on_c, 0, 58, 0
4, 151977, Note_on_c, 0, 78, 83
4, 151997, Note_on_c, 0, 65, 75
4, 151999, Note_on_c, 0, 54, 72
4, 152002, Note_on_c, 0, 58, 69
4, 152006, Note_on_c, 0, 60, 62
4, 152156, Note_on_c, 0, 65, 0
4, 152196, Note_on_c, 0, 60, 0
4, 152214, Note_on_c, 0, 54, 0
4, 152228, Note_on_c, 0, 78, 0
4, 152230, Note_on_c, 0, 58, 0
4, 152411, Note_on_c, 0, 65, 75
4, 152414, Note_on_c, 0, 54, 73
4, 152416, Note_on_c, 0, 82, 81
4, 152419, Note_on_c, 0, 58, 70
4, 152424, Note_on_c, 0, 60, 63
4, 152511, Note_on_c, 0, 65, 0
4, 152524, Control_c, 0, 64, 0
4, 152565, Note_on_c, 0, 60, 0
4, 152582, Note_on_c, 0, 82, 0
4, 152584, Note_on_c, 0, 54, 0
4, 152590, Note_on_c, 0, 58, 0
4, 152645, Note_on_c, 0, 65, 57
4, 152647, Note_on_c, 0, 54, 51
4, 152655, Note_on_c, 0, 82, 82
4, 152659, Control_c, 0, 64, 127
4, 152663, Note_on_c, 0, 58, 42
4, 152667, Note_on_c, 0, 60, 53
4, 152912, Note_on_c, 0, 65, 0
4, 153063, Note_on_c, 0, 82, 0
4, 153131, Note_on_c, 0, 80, 69
4, 153175, Note_on_c, 0, 60, 0
4, 153190, Note_on_c, 0, 58, 0
4, 153210, Note_on_c, 0, 80, 0
4, 153246, Note_on_c, 0, 54, 0
4, 153549, Control_c, 0, 64, 0
4, 153580, Note_on_c, 0, 77, 55
4, 153581, Note_on_c, 0, 65, 54
4, 153597, Note_on_c, 0, 72, 56
4, 153609, Note_on_c, 0, 49, 49
4, 153854, Control_c, 0, 64, 127
4, 153942, Note_on_c, 0, 77, 0
4, 153958, Note_on_c, 0, 72, 0
4, 154067, Note_on_c, 0, 55, 18
4, 154151, Note_on_c, 0, 65, 0
4, 154322, Control_c, 0, 64, 0
4, 154378, Note_on_c, 0, 55, 0
4, 154384, Note_on_c, 0, 65, 46
4, 154387, Note_on_c, 0, 68, 47
4, 154400, Control_c, 0, 64, 127
4, 154412, Note_on_c, 0, 56, 47
4, 154771, Note_on_c, 0, 49, 0
4, 154850, Note_on_c, 0, 68, 0
4, 154892, Note_on_c, 0, 65, 0
4, 154894, Note_on_c, 0, 56, 0
4, 155427, Control_c, 0, 64, 0
4, 155499, Note_on_c, 0, 64, 50
4, 155518, Note_on_c, 0, 49, 55
4, 155532, Note_on_c, 0, 61, 45
4, 155537, Note_on_c, 0, 55, 46
4, 155541, Note_on_c, 0, 58, 55
4, 155653, Control_c, 0, 64, 127
4, 155679, Note_on_c, 0, 64, 0
4, 155720, Note_on_c, 0, 55, 0
4, 155765, Note_on_c, 0, 58, 0
4, 155772, Control_c, 0, 64, 0
4, 155792, Note_on_c, 0, 61, 0
4, 155860, Note_on_c, 0, 60, 57
4, 155866, Note_on_c, 0, 57, 66
4, 155868, Note_on_c, 0, 65, 64
4, 155880, Note_on_c, 0, 50, 55
4, 155971, Control_c, 0, 64, 127
4, 155977, Note_on_c, 0, 57, 0
4, 156016, Note_on_c, 0, 60, 0
4, 156042, Note_on_c, 0, 65, 0
4, 156237, Control_c, 0, 64, 0
4, 156318, Note_on_c, 0, 69, 74
4, 156321, Note_on_c, 0, 65, 71
4, 156323, Note_on_c, 0, 62, 68
4, 156326, Note_on_c, 0, 53, 64
4, 156329, Note_on_c, 0, 60, 76
4, 156351, Note_on_c, 0, 67, 47
4, 156371, Note_on_c, 0, 49, 0
4, 156394, Note_on_c, 0, 50, 0
4, 156399, Note_on_c, 0, 67, 0
4, 156464, Control_c, 0, 64, 127
4, 156692, Note_on_c, 0, 62, 0
4, 156812, Note_on_c, 0, 60, 0
4, 156849, Note_on_c, 0, 53, 0
4, 156874, Note_on_c, 0, 69, 0
4, 156889, Control_c, 0, 64, 0
4, 156890, Note_on_c, 0, 65, 0
4, 156965, Note_on_c, 0, 53, 37
4, 156970, Note_on_c, 0, 43, 31
4, 156973, Note_on_c, 0, 67, 58
4, 156986, Note_on_c, 0, 64, 64
4, 157011, Note_on_c, 0, 59, 38
4, 157044, Note_on_c, 0, 64, 0
4, 157076, Note_on_c, 0, 59, 0
4, 157083, Note_on_c, 0, 67, 0
4, 157099, Note_on_c, 0, 53, 0
4, 157378, Note_on_c, 0, 46, 19
4, 157435, Note_on_c, 0, 64, 50
4, 157437, Note_on_c, 0, 46, 0
4, 157439, Note_on_c, 0, 43, 0
4, 157440, Note_on_c, 0, 47, 53
4, 157452, Note_on_c, 0, 59, 52
4, 157453, Note_on_c, 0, 55, 36
4, 157457, Note_on_c, 0, 48, 52
4, 157500, Note_on_c, 0, 47, 0
4, 157649, Note_on_c, 0, 64, 0
4, 157671, Note_on_c, 0, 59, 0
4, 157763, Note_on_c, 0, 55, 0
4, 157890, Note_on_c, 0, 63, 42
4, 157897, Note_on_c, 0, 48, 0
4, 157918, Note_on_c, 0, 47, 49
4, 158155, Note_on_c, 0, 63, 0
4, 158206, Note_on_c, 0, 55, 43
4, 158221, Note_on_c, 0, 59, 49
4, 158225, Note_on_c, 0, 64, 51
4, 158236, Note_on_c, 0, 47, 0
4, 158246, Note_on_c, 0, 48, 46
4, 158340, Control_c, 0, 64, 127
4, 158637, Note_on_c, 0, 48, 0
4, 158856, Note_on_c, 0, 64, 0
4, 158868, Note_on_c, 0, 59, 0
4, 158969, Note_on_c, 0, 55, 0
4, 159552, Control_c, 0, 64, 0
4, 159623, Note_on_c, 0, 51, 62
4, 159633, Note_on_c, 0, 61, 36
4, 159635, Note_on_c, 0, 63, 54
4, 159649, Note_on_c, 0, 55, 58
4, 159650, Note_on_c, 0, 60, 51
4, 159651, Note_on_c, 0, 57, 62
4, 159828, Note_on_c, 0, 55, 0
4, 159841, Note_on_c, 0, 63, 0
4, 159860, Note_on_c, 0, 51, 0
4, 159870, Note_on_c, 0, 57, 0
4, 159885, Note_on_c, 0, 60, 0
4, 159951, Note_on_c, 0, 64, 60
4, 159955, Note_on_c, 0, 55, 44
4, 159971, Note_on_c, 0, 52, 61
4, 159981, Note_on_c, 0, 57, 52
4, 159991, Control_c, 0, 64, 127
4, 160028, Note_on_c, 0, 62, 27
4, 160030, Note_on_c, 0, 55, 0
4, 160031, Note_on_c, 0, 57, 0
4, 160077, Note_on_c, 0, 62, 0
4, 160091, Note_on_c, 0, 64, 0
4, 160133, Note_on_c, 0, 61, 0
4, 160232, Control_c, 0, 64, 0
4, 160317, Note_on_c, 0, 60, 63
4, 160318, Note_on_c, 0, 67, 61
4, 160323, Note_on_c, 0, 64, 63
4, 160324, Note_on_c, 0, 55, 78
4, 160336, Note_on_c, 0, 57, 69
4, 160339, Note_on_c, 0, 65, 60
4, 160371, Note_on_c, 0, 52, 0
4, 160534, Note_on_c, 0, 65, 0
4, 160601, Note_on_c, 0, 64, 0
4, 160830, Control_c, 0, 64, 127
4, 160902, Note_on_c, 0, 67, 0
4, 160991, Note_on_c, 0, 57, 0
4, 161024, Note_on_c, 0, 55, 0
4, 161056, Note_on_c, 0, 65, 52
4, 161103, Note_on_c, 0, 60, 0
4, 161184, Note_on_c, 0, 65, 0
4, 161254, Control_c, 0, 64, 127
4, 161254, Control_c, 0, 64, 0
4, 161269, Control_c, 0, 64, 0
4, 161336, Note_on_c, 0, 50, 43
4, 161358, Note_on_c, 0, 60, 24
4, 161370, Note_on_c, 0, 62, 33
4, 161471, Note_on_c, 0, 60, 0
4, 161476, Note_on_c, 0, 62, 0
4, 161682, Note_on_c, 0, 50, 0
4, 161780, Note_on_c, 0, 50, 53
4, 161789, Note_on_c, 0, 60, 54
4, 161795, Note_on_c, 0, 62, 43
4, 161923, Note_on_c, 0, 60, 0
4, 162132, Note_on_c, 0, 57, 42
4, 162158, Note_on_c, 0, 62, 0
4, 162233, Note_on_c, 0, 57, 0
4, 162295, Control_c, 0, 64, 127
4, 162299, Note_on_c, 0, 61, 56
4, 162347, Control_c, 0, 64, 127
4, 162473, Note_on_c, 0, 57, 26
4, 162521, Control_c, 0, 64, 0
4, 162533, Note_on_c, 0, 57, 0
4, 162550, Note_on_c, 0, 61, 0
4, 162578, Note_on_c, 0, 62, 43
4, 162619, Note_on_c, 0, 50, 0
4, 162627, Control_c, 0, 64, 127
4, 162628, Control_c, 0, 64, 0
4, 162700, Note_on_c, 0, 62, 0
4, 162919, Control_c, 0, 64, 0
4, 162991, Note_on_c, 0, 65, 42
4, 162994, Note_on_c, 0, 57, 48
4, 162995, Note_on_c, 0, 62, 34
4, 163004, Note_on_c, 0, 59, 48
4, 163018, Note_on_c, 0, 43, 26
4, 163036, Note_on_c, 0, 53, 28
4, 163112, Note_on_c, 0, 57, 0
4, 163139, Note_on_c, 0, 59, 0
4, 163140, Note_on_c, 0, 65, 0
4, 163161, Note_on_c, 0, 62, 0
4, 163178, Note_on_c, 0, 53, 0
4, 163262, Note_on_c, 0, 65, 30
4, 163265, Note_on_c, 0, 53, 25
4, 163278, Note_on_c, 0, 57, 30
4, 163279, Note_on_c, 0, 62, 35
4, 163281, Note_on_c, 0, 59, 38
4, 163476, Note_on_c, 0, 59, 0
4, 163486, Note_on_c, 0, 62, 0
4, 163500, Note_on_c, 0, 65, 0
4, 163518, Note_on_c, 0, 53, 0
4, 163528, Note_on_c, 0, 57, 0
4, 163740, Note_on_c, 0, 62, 34
4, 163743, Note_on_c, 0, 53, 27
4, 163755, Note_on_c, 0, 65, 37
4, 163756, Note_on_c, 0, 59, 39
4, 163757, Note_on_c, 0, 57, 53
4, 164121, Control_c, 0, 64, 127
4, 164161, Note_on_c, 0, 43, 0
4, 164307, Note_on_c, 0, 59, 0
4, 164342, Note_on_c, 0, 57, 0
4, 164344, Note_on_c, 0, 53, 0
4, 164383, Note_on_c, 0, 43, 37
4, 164453, Note_on_c, 0, 62, 0
4, 164518, Note_on_c, 0, 43, 0
4, 164534, Control_c, 0, 64, 0
4, 164573, Note_on_c, 0, 65, 0
4, 164627, Note_on_c, 0, 59, 41
4, 164640, Control_c, 0, 64, 127
4, 164958, Note_on_c, 0, 59, 0
4, 165014, Control_c, 0, 64, 0
4, 165076, Note_on_c, 0, 36, 22
4, 165093, Note_on_c, 0, 60, 48
4, 165112, Note_on_c, 0, 52, 34
4, 165135, Note_on_c, 0, 50, 23
4, 165201, Note_on_c, 0, 50, 0
4, 165412, Control_c, 0, 64, 127
4, 165636, Note_on_c, 0, 52, 0
4, 165735, Note_on_c, 0, 60, 0
4, 165810, Control_c, 0, 64, 0
4, 165862, Note_on_c, 0, 60, 41
4, 165887, Note_on_c, 0, 52, 35
4, 165901, Note_on_c, 0, 36, 0
4, 165931, Control_c, 0, 64, 127
4, 166125, Note_on_c, 0, 60, 0
4, 166186, Note_on_c, 0, 52, 0
4, 167023, Control_c, 0, 64, 0
4, 167049, Note_on_c, 0, 59, 53
4, 167051, Note_on_c, 0, 71, 66
4, 167231, Note_on_c, 0, 71, 0
4, 167326, Note_on_c, 0, 72, 51
4, 167346, Note_on_c, 0, 60, 50
4, 167424, Note_on_c, 0, 59, 0
4, 167453, Note_on_c, 0, 72, 0
4, 167710, Note_on_c, 0, 60, 0
4, 167747, Note_on_c, 0, 76, 72
4, 167759, Note_on_c, 0, 64, 51
4, 167889, Control_c, 0, 64, 127
4, 168097, Note_on_c, 0, 76, 0
4, 168101, Note_on_c, 0, 64, 0
4, 168198, Note_on_c, 0, 67, 49
4, 168204, Note_on_c, 0, 79, 55
4, 168328, Control_c, 0, 64, 0
4, 168348, Note_on_c, 0, 79, 0
4, 168493, Note_on_c, 0, 67, 0
4, 169274, Note_on_c, 0, 60, 67
4, 169275, Note_on_c, 0, 65, 69
4, 169277, Note_on_c, 0, 69, 61
4, 169282, Note_on_c, 0, 51, 69
4, 169316, Note_on_c, 0, 60, 0
4, 169366, Note_on_c, 0, 65, 0
4, 169387, Note_on_c, 0, 51, 0
4, 169393, Note_on_c, 0, 69, 0
4, 169956, Note_on_c, 0, 68, 65
4, 169970, Note_on_c, 0, 59, 66
4, 169982, Note_on_c, 0, 51, 63
4, 169987, Note_on_c, 0, 65, 30
4, 170013, Note_on_c, 0, 64, 30
4, 170052, Note_on_c, 0, 65, 0
4, 170061, Note_on_c, 0, 64, 0
4, 170082, Note_on_c, 0, 59, 0
4, 170124, Note_on_c, 0, 51, 0
4, 170176, Note_on_c, 0, 68, 0
4, 170439, Note_on_c, 0, 65, 61
4, 170441, Note_on_c, 0, 69, 55
4, 170450, Note_on_c, 0, 51, 67
4, 170455, Note_on_c, 0, 60, 47
4, 170503, Note_on_c, 0, 60, 0
4, 170530, Note_on_c, 0, 65, 0
4, 170571, Note_on_c, 0, 69, 0
4, 170586, Note_on_c, 0, 51, 0
4, 170938, Note_on_c, 0, 66, 75
4, 170947, Note_on_c, 0, 50, 63
4, 170951, Control_c, 0, 64, 127
4, 170952, Note_on_c, 0, 72, 61
4, 170955, Note_on_c, 0, 69, 60
4, 171374, Note_on_c, 0, 69, 0
4, 171398, Note_on_c, 0, 72, 0
4, 171441, Note_on_c, 0, 50, 0
4, 171468, Note_on_c, 0, 66, 0
4, 171822, Control_c, 0, 64, 0
4, 171897, Note_on_c, 0, 70, 47
4, 171902, Note_on_c, 0, 64, 45
4, 171906, Note_on_c, 0, 60, 39
4, 171911, Note_on_c, 0, 50, 49
4, 171913, Note_on_c, 0, 66, 37
4, 172095, Control_c, 0, 64, 127
4, 172118, Note_on_c, 0, 50, 0
4, 172250, Note_on_c, 0, 64, 0
4, 172272, Note_on_c, 0, 70, 0
4, 172314, Note_on_c, 0, 60, 0
4, 172327, Note_on_c, 0, 66, 0
4, 172736, Control_c, 0, 64, 0
4, 172812, Note_on_c, 0, 55, 30
4, 172825, Note_on_c, 0, 50, 25
4, 172827, Note_on_c, 0, 43, 22
4, 172827, Note_on_c, 0, 67, 43
4, 173027, Note_on_c, 0, 67, 0
4, 173292, Note_on_c, 0, 62, 38
4, 173414, Note_on_c, 0, 62, 0
4, 173499, Note_on_c, 0, 55, 0
4, 173755, Note_on_c, 0, 55, 28
4, 173787, Note_on_c, 0, 69, 37
4, 173790, Control_c, 0, 64, 127
4, 173879, Note_on_c, 0, 43, 0
4, 173909, Note_on_c, 0, 50, 0
4, 173911, Note_on_c, 0, 69, 0
4, 173986, Note_on_c, 0, 55, 0
4, 174088, Note_on_c, 0, 74, 68
4, 174220, Note_on_c, 0, 74, 0
4, 174510, Note_on_c, 0, 72, 83
4, 174521, Control_c, 0, 64, 0
4, 174531, Note_on_c, 0, 53, 46
4, 175226, Note_on_c, 0, 62, 38
4, 175252, Note_on_c, 0, 58, 38
4, 175281, Note_on_c, 0, 55, 15
4, 175308, Note_on_c, 0, 62, 0
4, 175309, Note_on_c, 0, 58, 0
4, 175344, Note_on_c, 0, 55, 0
4, 175364, Note_on_c, 0, 53, 0
4, 175994, Note_on_c, 0, 62, 43
4, 176006, Note_on_c, 0, 55, 31
4, 176032, Note_on_c, 0, 58, 30
4, 176043, Note_on_c, 0, 62, 0
4, 176068, Note_on_c, 0, 55, 0
4, 176086, Note_on_c, 0, 58, 0
4, 176484, Note_on_c, 0, 70, 48
4, 176629, Note_on_c, 0, 72, 0
4, 176644, Note_on_c, 0, 70, 0
4, 176716, Note_on_c, 0, 62, 47
4, 176727, Note_on_c, 0, 51, 44
4, 176730, Note_on_c, 0, 69, 53
4, 176739, Note_on_c, 0, 58, 43
4, 176747, Note_on_c, 0, 55, 32
4, 176823, Note_on_c, 0, 62, 0
4, 176852, Note_on_c, 0, 58, 0
4, 176858, Note_on_c, 0, 55, 0
4, 176876, Note_on_c, 0, 51, 0
4, 177415, Note_on_c, 0, 62, 36
4, 177417, Note_on_c, 0, 51, 35
4, 177424, Note_on_c, 0, 55, 31
4, 177429, Note_on_c, 0, 58, 44
4, 177488, Note_on_c, 0, 62, 0
4, 177517, Note_on_c, 0, 51, 0
4, 177527, Note_on_c, 0, 58, 0
4, 177529, Note_on_c, 0, 55, 0
4, 177899, Note_on_c, 0, 58, 51
4, 177901, Note_on_c, 0, 62, 31
4, 177922, Note_on_c, 0, 55, 22
4, 177946, Note_on_c, 0, 62, 0
4, 177993, Note_on_c, 0, 55, 0
4, 178013, Note_on_c, 0, 58, 0
4, 178087, Note_on_c, 0, 67, 65
4, 178126, Note_on_c, 0, 69, 0
4, 178509, Note_on_c, 0, 67, 0
4, 178590, Note_on_c, 0, 60, 47
4, 178592, Note_on_c, 0, 65, 49
4, 178600, Note_on_c, 0, 57, 40
4, 178632, Note_on_c, 0, 53, 20
4, 178714, Note_on_c, 0, 60, 0
4, 178750, Note_on_c, 0, 57, 0
4, 178760, Note_on_c, 0, 53, 0
4, 179295, Note_on_c, 0, 60, 49
4, 179312, Note_on_c, 0, 57, 41
4, 179314, Note_on_c, 0, 53, 24
4, 179372, Note_on_c, 0, 57, 0
4, 179385, Note_on_c, 0, 60, 0
4, 179472, Note_on_c, 0, 53, 0
4, 179820, Note_on_c, 0, 53, 30
4, 179874, Note_on_c, 0, 53, 0
4, 179894, Note_on_c, 0, 65, 0
4, 179984, Note_on_c, 0, 63, 71
4, 180401, Note_on_c, 0, 63, 0
4, 180470, Note_on_c, 0, 62, 60
4, 180474, Note_on_c, 0, 55, 32
4, 180480, Note_on_c, 0, 58, 50
4, 180566, Note_on_c, 0, 58, 0
4, 180608, Note_on_c, 0, 55, 0
4, 181161, Note_on_c, 0, 62, 0
4, 181193, Note_on_c, 0, 60, 56
4, 181237, Note_on_c, 0, 55, 25
4, 181243, Note_on_c, 0, 58, 46
4, 181346, Note_on_c, 0, 58, 0
4, 181361, Note_on_c, 0, 55, 0
4, 181850, Note_on_c, 0, 60, 0
4, 181943, Note_on_c, 0, 60, 69
4, 181945, Note_on_c, 0, 54, 57
4, 181946, Note_on_c, 0, 50, 55
4, 181974, Control_c, 0, 64, 127
4, 182301, Note_on_c, 0, 50, 0
4, 182311, Note_on_c, 0, 54, 0
4, 182391, Note_on_c, 0, 60, 0
4, 182690, Note_on_c, 0, 60, 47
4, 182692, Note_on_c, 0, 65, 65
4, 182695, Note_on_c, 0, 54, 63
4, 182705, Control_c, 0, 64, 0
4, 182820, Control_c, 0, 64, 127
4, 183006, Note_on_c, 0, 65, 0
4, 183149, Note_on_c, 0, 74, 64
4, 183255, Note_on_c, 0, 54, 0
4, 183321, Note_on_c, 0, 74, 0
4, 183346, Control_c, 0, 64, 0
4, 183349, Note_on_c, 0, 60, 0
4, 183380, Note_on_c, 0, 54, 50
4, 183391, Note_on_c, 0, 60, 25
4, 183395, Note_on_c, 0, 65, 63
4, 183399, Note_on_c, 0, 82, 82
4, 183541, Note_on_c, 0, 82, 0
4, 183642, Note_on_c, 0, 82, 73
4, 183680, Note_on_c, 0, 65, 0
4, 183748, Note_on_c, 0, 60, 0
4, 183834, Control_c, 0, 64, 127
4, 183851, Note_on_c, 0, 82, 0
4, 183865, Note_on_c, 0, 74, 53
4, 183880, Note_on_c, 0, 54, 0
4, 183962, Note_on_c, 0, 74, 0
4, 184297, Control_c, 0, 64, 0
4, 184346, Note_on_c, 0, 62, 32
4, 184351, Note_on_c, 0, 79, 64
4, 184361, Note_on_c, 0, 57, 38
4, 184382, Note_on_c, 0, 58, 47
4, 184388, Note_on_c, 0, 55, 27
4, 184605, Control_c, 0, 64, 127
4, 184667, Note_on_c, 0, 57, 0
4, 184681, Note_on_c, 0, 58, 0
4, 184686, Note_on_c, 0, 62, 0
4, 184710, Note_on_c, 0, 55, 0
4, 185041, Control_c, 0, 64, 0
4, 185068, Note_on_c, 0, 62, 49
4, 185087, Note_on_c, 0, 58, 48
4, 185105, Note_on_c, 0, 57, 38
4, 185123, Note_on_c, 0, 55, 22
4, 185163, Note_on_c, 0, 57, 0
4, 185214, Note_on_c, 0, 62, 0
4, 185220, Note_on_c, 0, 58, 0
4, 185255, Note_on_c, 0, 55, 0
4, 185542, Control_c, 0, 64, 127
4, 185746, Control_c, 0, 64, 0
4, 185763, Note_on_c, 0, 74, 52
4, 185776, Note_on_c, 0, 50, 32
4, 185778, Note_on_c, 0, 60, 31
4, 185780, Note_on_c, 0, 57, 34
4, 185781, Note_on_c, 0, 79, 0
4, 186118, Control_c, 0, 64, 127
4, 186267, Note_on_c, 0, 50, 0
4, 186342, Note_on_c, 0, 57, 0
4, 186432, Note_on_c, 0, 60, 0
4, 186525, Note_on_c, 0, 50, 33
4, 186559, Note_on_c, 0, 57, 22
4, 186663, Note_on_c, 0, 57, 0
4, 186769, Note_on_c, 0, 74, 0
4, 186994, Note_on_c, 0, 79, 85
4, 187038, Note_on_c, 0, 60, 32
4, 187074, Note_on_c, 0, 57, 26
4, 187168, Note_on_c, 0, 57, 0
4, 187191, Note_on_c, 0, 79, 0
4, 187286, Note_on_c, 0, 76, 51
4, 187298, Note_on_c, 0, 60, 0
4, 187449, Note_on_c, 0, 76, 0
4, 187537, Note_on_c, 0, 57, 38
4, 187552, Note_on_c, 0, 60, 25
4, 187627, Note_on_c, 0, 50, 0
4, 187673, Note_on_c, 0, 57, 0
4, 187711, Note_on_c, 0, 60, 0
4, 187741, Note_on_c, 0, 79, 88
4, 188031, Note_on_c, 0, 79, 0
4, 188158, Control_c, 0, 64, 0
4, 188172, Note_on_c, 0, 62, 31
4, 188201, Note_on_c, 0, 77, 65
4, 188206, Note_on_c, 0, 58, 32
4, 188223, Note_on_c, 0, 55, 20
4, 188226, Note_on_c, 0, 57, 34
4, 188555, Note_on_c, 0, 77, 0
4, 188582, Control_c, 0, 64, 127
4, 188662, Note_on_c, 0, 74, 43
4, 188667, Note_on_c, 0, 58, 0
4, 188674, Note_on_c, 0, 62, 0
4, 188683, Note_on_c, 0, 57, 0
4, 188864, Control_c, 0, 64, 0
4, 188891, Note_on_c, 0, 74, 0
4, 188960, Note_on_c, 0, 62, 17
4, 188968, Note_on_c, 0, 69, 38
4, 188994, Note_on_c, 0, 58, 23
4, 189087, Note_on_c, 0, 58, 0
4, 189101, Note_on_c, 0, 62, 0
4, 189108, Control_c, 0, 64, 127
4, 189184, Note_on_c, 0, 55, 0
4, 189378, Note_on_c, 0, 62, 20
4, 189403, Note_on_c, 0, 58, 23
4, 189415, Control_c, 0, 64, 0
4, 189444, Note_on_c, 0, 62, 0
4, 189458, Note_on_c, 0, 58, 0
4, 189506, Control_c, 0, 64, 127
4, 190006, Control_c, 0, 64, 0
4, 190079, Note_on_c, 0, 50, 42
4, 190393, Note_on_c, 0, 69, 0
4, 190468, Control_c, 0, 64, 127
4, 190763, Control_c, 0, 64, 0
4, 190764, Note_on_c, 0, 64, 46
4, 190770, Note_on_c, 0, 60, 32
4, 190795, Note_on_c, 0, 67, 31
4, 190796, Note_on_c, 0, 57, 32
4, 190824, Note_on_c, 0, 53, 23
4, 190912, Note_on_c, 0, 64, 0
4, 190915, Note_on_c, 0, 60, 0
4, 190928, Note_on_c, 0, 67, 0
4, 190932, Note_on_c, 0, 57, 0
4, 190956, Control_c, 0, 64, 127
4, 191025, Note_on_c, 0, 67, 32
4, 191028, Note_on_c, 0, 64, 25
4, 191125, Note_on_c, 0, 64, 0
4, 191161, Note_on_c, 0, 67, 0
4, 191419, Note_on_c, 0, 53, 0
4, 191483, Note_on_c, 0, 50, 0
4, 191485, Note_on_c, 0, 60, 36
4, 191747, Note_on_c, 0, 60, 0
4, 191994, Control_c, 0, 64, 0
4, 192002, Note_on_c, 0, 62, 24
4, 192009, Note_on_c, 0, 55, 24
4, 192012, Note_on_c, 0, 72, 34
4, 192018, Note_on_c, 0, 58, 37
4, 192218, Note_on_c, 0, 72, 0
4, 192327, Note_on_c, 0, 79, 38
4, 192382, Note_on_c, 0, 58, 0
4, 192384, Note_on_c, 0, 79, 0
4, 192397, Note_on_c, 0, 62, 0
4, 192694, Note_on_c, 0, 69, 39
4, 192738, Note_on_c, 0, 62, 18
4, 192742, Note_on_c, 0, 58, 30
4, 192854, Control_c, 0, 64, 127
4, 193134, Note_on_c, 0, 62, 0
4, 193163, Note_on_c, 0, 69, 0
4, 193192, Note_on_c, 0, 77, 59
4, 193193, Note_on_c, 0, 55, 0
4, 193222, Note_on_c, 0, 58, 0
4, 193361, Note_on_c, 0, 77, 0
4, 193451, Note_on_c, 0, 67, 46
4, 193471, Control_c, 0, 64, 0
4, 193472, Note_on_c, 0, 60, 35
4, 193486, Note_on_c, 0, 57, 37
4, 193488, Note_on_c, 0, 50, 24
4, 193844, Note_on_c, 0, 60, 0
4, 193874, Note_on_c, 0, 57, 0
4, 193894, Control_c, 0, 64, 127
4, 193920, Note_on_c, 0, 50, 0
4, 194164, Control_c, 0, 64, 0
4, 194240, Note_on_c, 0, 60, 34
4, 194242, Note_on_c, 0, 57, 45
4, 194252, Note_on_c, 0, 53, 22
4, 194295, Note_on_c, 0, 60, 0
4, 194299, Note_on_c, 0, 57, 0
4, 194325, Note_on_c, 0, 53, 0
4, 194659, Note_on_c, 0, 60, 47
4, 194668, Note_on_c, 0, 57, 52
4, 194690, Note_on_c, 0, 53, 18
4, 194706, Note_on_c, 0, 60, 0
4, 194760, Note_on_c, 0, 57, 0
4, 194778, Note_on_c, 0, 67, 0
4, 194814, Note_on_c, 0, 53, 0
4, 194865, Note_on_c, 0, 74, 75
4, 194869, Control_c, 0, 64, 127
4, 195148, Note_on_c, 0, 60, 43
4, 195158, Note_on_c, 0, 57, 48
4, 195170, Note_on_c, 0, 50, 22
4, 195198, Note_on_c, 0, 60, 0
4, 195227, Note_on_c, 0, 50, 0
4, 195253, Control_c, 0, 64, 0
4, 195275, Note_on_c, 0, 74, 0
4, 195295, Note_on_c, 0, 57, 0
4, 195381, Note_on_c, 0, 65, 56
4, 195773, Note_on_c, 0, 65, 0
4, 195846, Note_on_c, 0, 62, 43
4, 195890, Note_on_c, 0, 58, 34
4, 195893, Note_on_c, 0, 55, 22
4, 195903, Note_on_c, 0, 57, 29
4, 196177, Control_c, 0, 64, 127
4, 196240, Note_on_c, 0, 57, 0
4, 196318, Note_on_c, 0, 55, 0
4, 196320, Note_on_c, 0, 58, 0
4, 196454, Note_on_c, 0, 62, 0
4, 196558, Note_on_c, 0, 62, 56
4, 196566, Note_on_c, 0, 58, 54
4, 196605, Note_on_c, 0, 55, 22
4, 196647, Note_on_c, 0, 62, 0
4, 196680, Note_on_c, 0, 58, 0
4, 196703, Control_c, 0, 64, 0
4, 196717, Note_on_c, 0, 55, 0
4, 196806, Control_c, 0, 64, 127
4, 196973, Control_c, 0, 64, 0
4, 197033, Note_on_c, 0, 55, 22
4, 197056, Note_on_c, 0, 69, 62
4, 197172, Note_on_c, 0, 55, 0
4, 197204, Control_c, 0, 64, 127
4, 197379, Note_on_c, 0, 60, 49
4, 197382, Note_on_c, 0, 69, 0
4, 197533, Note_on_c, 0, 60, 0
4, 197766, Note_on_c, 0, 57, 60
4, 197769, Control_c, 0, 64, 0
4, 198114, Control_c, 0, 64, 127
4, 198549, Note_on_c, 0, 38, 23
4, 198612, Note_on_c, 0, 38, 0
4, 198641, Control_c, 0, 64, 0
4, 198711, Note_on_c, 0, 53, 27
4, 199161, Note_on_c, 0, 38, 44
4, 199175, Note_on_c, 0, 53, 0
4, 199190, Note_on_c, 0, 57, 0
4, 199222, Note_on_c, 0, 38, 0
4, 199548, Note_on_c, 0, 84, 65
4, 199707, Note_on_c, 0, 84, 0
4, 199759, Note_on_c, 0, 81, 51
4, 200183, Control_c, 0, 64, 127
4, 200405, Note_on_c, 0, 81, 0
4, 200455, Control_c, 0, 64, 0
4, 200477, Note_on_c, 0, 84, 44
4, 200612, Note_on_c, 0, 84, 0
4, 200640, Note_on_c, 0, 62, 20
4, 200655, Note_on_c, 0, 58, 33
4, 200688, Note_on_c, 0, 81, 39
4, 200702, Note_on_c, 0, 55, 22
4, 200858, Note_on_c, 0, 81, 0
4, 201383, Note_on_c, 0, 84, 60
4, 201402, Note_on_c, 0, 62, 0
4, 201411, Note_on_c, 0, 55, 0
4, 201452, Note_on_c, 0, 58, 0
4, 201527, Note_on_c, 0, 84, 0
4, 201560, Note_on_c, 0, 62, 20
4, 201577, Note_on_c, 0, 58, 29
4, 201594, Note_on_c, 0, 81, 42
4, 201598, Note_on_c, 0, 53, 22
4, 201758, Note_on_c, 0, 81, 0
4, 201892, Note_on_c, 0, 81, 43
4, 201977, Note_on_c, 0, 81, 0
4, 202030, Note_on_c, 0, 62, 0
4, 202032, Note_on_c, 0, 58, 0
4, 202055, Note_on_c, 0, 53, 0
4, 202279, Note_on_c, 0, 62, 27
4, 202291, Note_on_c, 0, 58, 41
4, 202327, Note_on_c, 0, 53, 17
4, 202400, Note_on_c, 0, 53, 0
4, 202418, Note_on_c, 0, 58, 0
4, 202419, Note_on_c, 0, 62, 0
4, 202801, Note_on_c, 0, 62, 32
4, 202805, Note_on_c, 0, 53, 31
4, 202829, Note_on_c, 0, 58, 31
4, 202950, Note_on_c, 0, 62, 0
4, 202978, Note_on_c, 0, 53, 0
4, 203003, Note_on_c, 0, 58, 0
4, 203549, Note_on_c, 0, 62, 25
4, 203567, Note_on_c, 0, 51, 30
4, 203574, Note_on_c, 0, 55, 30
4, 203583, Note_on_c, 0, 58, 25
4, 203760, Note_on_c, 0, 55, 0
4, 203768, Note_on_c, 0, 51, 0
4, 203785, Note_on_c, 0, 58, 0
4, 203893, Note_on_c, 0, 62, 0
4, 204293, Note_on_c, 0, 62, 36
4, 204304, Note_on_c, 0, 51, 31
4, 204320, Note_on_c, 0, 58, 37
4, 204346, Note_on_c, 0, 55, 22
4, 204397, Note_on_c, 0, 62, 0
4, 204422, Note_on_c, 0, 51, 0
4, 204428, Note_on_c, 0, 55, 0
4, 204458, Note_on_c, 0, 58, 0
4, 204813, Note_on_c, 0, 62, 34
4, 204814, Note_on_c, 0, 58, 38
4, 204860, Note_on_c, 0, 51, 18
4, 204890, Note_on_c, 0, 62, 0
4, 204947, Note_on_c, 0, 58, 0
4, 204966, Note_on_c, 0, 51, 0
4, 205311, Note_on_c, 0, 62, 33
4, 205317, Note_on_c, 0, 57, 52
4, 205330, Note_on_c, 0, 50, 22
4, 205652, Note_on_c, 0, 57, 0
4, 205810, Note_on_c, 0, 62, 0
4, 205939, Control_c, 0, 64, 127
4, 205992, Note_on_c, 0, 50, 0
4, 206246, Note_on_c, 0, 62, 31
4, 206273, Note_on_c, 0, 57, 39
4, 206333, Note_on_c, 0, 62, 0
4, 206360, Control_c, 0, 64, 0
4, 206438, Note_on_c, 0, 86, 72
4, 206564, Note_on_c, 0, 57, 0
4, 206584, Note_on_c, 0, 86, 0
4, 206690, Note_on_c, 0, 87, 69
4, 206748, Note_on_c, 0, 57, 22
4, 206767, Note_on_c, 0, 60, 31
4, 206808, Note_on_c, 0, 50, 20
4, 206824, Note_on_c, 0, 53, 17
4, 206915, Note_on_c, 0, 87, 0
4, 206926, Note_on_c, 0, 88, 55
4, 207005, Note_on_c, 0, 57, 0
4, 207032, Note_on_c, 0, 60, 0
4, 207088, Note_on_c, 0, 88, 0
4, 207157, Note_on_c, 0, 60, 32
4, 207167, Note_on_c, 0, 91, 77
4, 207183, Note_on_c, 0, 57, 38
4, 207280, Note_on_c, 0, 60, 0
4, 207329, Note_on_c, 0, 91, 0
4, 207413, Note_on_c, 0, 87, 50
4, 207419, Note_on_c, 0, 57, 0
4, 207472, Note_on_c, 0, 53, 0
4, 207612, Note_on_c, 0, 87, 0
4, 207666, Note_on_c, 0, 57, 27
4, 207689, Note_on_c, 0, 84, 34
4, 207816, Note_on_c, 0, 57, 0
4, 207844, Note_on_c, 0, 84, 0
4, 207863, Note_on_c, 0, 86, 67
4, 208077, Note_on_c, 0, 57, 33
4, 208101, Note_on_c, 0, 86, 0
4, 208126, Note_on_c, 0, 83, 30
4, 208175, Note_on_c, 0, 50, 0
4, 208248, Note_on_c, 0, 57, 0
4, 208315, Note_on_c, 0, 83, 0
4, 208361, Note_on_c, 0, 84, 60
4, 208391, Control_c, 0, 64, 127
4, 208447, Control_c, 0, 64, 0
4, 208560, Note_on_c, 0, 84, 0
4, 208634, Note_on_c, 0, 79, 39
4, 208692, Note_on_c, 0, 79, 0
4, 208829, Control_c, 0, 64, 127
4, 208898, Note_on_c, 0, 79, 18
4, 209087, Note_on_c, 0, 79, 0
4, 209142, Control_c, 0, 64, 0
4, 209193, Note_on_c, 0, 65, 43
4, 209204, Note_on_c, 0, 54, 28
4, 209206, Note_on_c, 0, 60, 35
4, 209743, Control_c, 0, 64, 127
4, 209814, Note_on_c, 0, 65, 0
4, 209896, Note_on_c, 0, 54, 0
4, 209914, Note_on_c, 0, 60, 0
4, 210000, Control_c, 0, 64, 0
4, 210024, Note_on_c, 0, 64, 42
4, 210049, Note_on_c, 0, 60, 29
4, 210056, Note_on_c, 0, 54, 30
4, 210375, Note_on_c, 0, 60, 0
4, 210519, Note_on_c, 0, 60, 22
4, 210532, Note_on_c, 0, 77, 72
4, 210623, Note_on_c, 0, 60, 0
4, 210678, Note_on_c, 0, 77, 0
4, 210681, Note_on_c, 0, 64, 0
4, 210780, Note_on_c, 0, 75, 61
4, 210874, Note_on_c, 0, 54, 0
4, 210948, Note_on_c, 0, 75, 0
4, 211042, Note_on_c, 0, 74, 69
4, 211171, Note_on_c, 0, 63, 30
4, 211179, Note_on_c, 0, 59, 22
4, 211221, Note_on_c, 0, 74, 0
4, 211240, Note_on_c, 0, 53, 18
4, 211327, Note_on_c, 0, 71, 31
4, 211639, Note_on_c, 0, 63, 0
4, 211641, Note_on_c, 0, 71, 0
4, 211761, Note_on_c, 0, 67, 60
4, 211990, Note_on_c, 0, 63, 32
4, 212041, Note_on_c, 0, 63, 0
4, 212213, Note_on_c, 0, 53, 0
4, 212249, Control_c, 0, 64, 127
4, 212286, Note_on_c, 0, 59, 0
4, 212452, Note_on_c, 0, 59, 46
4, 212468, Note_on_c, 0, 63, 33
4, 212495, Control_c, 0, 64, 0
4, 212517, Note_on_c, 0, 63, 0
4, 212558, Note_on_c, 0, 59, 0
4, 212728, Control_c, 0, 64, 127
4, 212986, Control_c, 0, 64, 0
4, 213121, Note_on_c, 0, 58, 45
4, 213126, Note_on_c, 0, 62, 32
4, 213144, Note_on_c, 0, 52, 32
4, 213424, Note_on_c, 0, 62, 0
4, 213428, Note_on_c, 0, 52, 0
4, 213500, Note_on_c, 0, 58, 0
4, 213558, Control_c, 0, 64, 127
4, 213877, Note_on_c, 0, 62, 38
4, 213899, Note_on_c, 0, 58, 42
4, 213904, Note_on_c, 0, 67, 0
4, 213914, Control_c, 0, 64, 0
4, 213922, Note_on_c, 0, 52, 22
4, 213934, Note_on_c, 0, 62, 0
4, 213991, Note_on_c, 0, 52, 0
4, 214010, Note_on_c, 0, 58, 0
4, 214110, Note_on_c, 0, 70, 54
4, 214224, Note_on_c, 0, 70, 0
4, 214364, Note_on_c, 0, 70, 50
4, 214424, Note_on_c, 0, 58, 26
4, 214497, Note_on_c, 0, 58, 0
4, 214554, Control_c, 0, 64, 127
4, 214612, Note_on_c, 0, 64, 35
4, 214705, Note_on_c, 0, 64, 0
4, 214733, Note_on_c, 0, 70, 0
4, 214908, Control_c, 0, 64, 0
4, 215014, Note_on_c, 0, 47, 44
4, 215063, Note_on_c, 0, 70, 75
4, 215453, Control_c, 0, 64, 127
4, 215652, Note_on_c, 0, 70, 0
4, 215747, Note_on_c, 0, 59, 35
4, 215757, Note_on_c, 0, 67, 47
4, 215783, Note_on_c, 0, 54, 23
4, 215821, Control_c, 0, 64, 0
4, 215880, Note_on_c, 0, 59, 0
4, 215906, Note_on_c, 0, 67, 0
4, 215940, Note_on_c, 0, 54, 0
4, 216012, Note_on_c, 0, 67, 52
4, 216014, Note_on_c, 0, 59, 26
4, 216154, Note_on_c, 0, 59, 0
4, 216165, Note_on_c, 0, 67, 0
4, 216245, Note_on_c, 0, 54, 25
4, 216274, Note_on_c, 0, 67, 43
4, 216305, Note_on_c, 0, 59, 20
4, 216384, Note_on_c, 0, 54, 0
4, 216403, Note_on_c, 0, 59, 0
4, 216424, Note_on_c, 0, 67, 0
4, 216429, Note_on_c, 0, 47, 0
4, 216502, Note_on_c, 0, 59, 22
4, 216528, Note_on_c, 0, 70, 31
4, 216705, Note_on_c, 0, 59, 0
4, 216789, Note_on_c, 0, 70, 0
4, 216947, Note_on_c, 0, 60, 55
4, 216951, Note_on_c, 0, 46, 36
4, 216955, Note_on_c, 0, 67, 47
4, 216968, Note_on_c, 0, 56, 36
4, 217362, Control_c, 0, 64, 127
4, 217495, Note_on_c, 0, 46, 0
4, 217508, Note_on_c, 0, 60, 0
4, 217532, Note_on_c, 0, 56, 0
4, 217571, Note_on_c, 0, 67, 0
4, 217648, Control_c, 0, 64, 0
4, 217712, Note_on_c, 0, 67, 50
4, 217727, Note_on_c, 0, 60, 45
4, 217738, Note_on_c, 0, 56, 42
4, 217738, Note_on_c, 0, 46, 35
4, 217880, Control_c, 0, 64, 127
4, 218452, Note_on_c, 0, 60, 0
4, 218630, Note_on_c, 0, 56, 0
4, 218662, Note_on_c, 0, 67, 0
4, 218722, Note_on_c, 0, 52, 34
4, 218754, Note_on_c, 0, 46, 0
4, 218807, Control_c, 0, 64, 0
4, 218849, Note_on_c, 0, 52, 0
4, 218908, Note_on_c, 0, 45, 54
4, 218909, Note_on_c, 0, 70, 77
4, 218912, Note_on_c, 0, 64, 78
4, 218913, Note_on_c, 0, 61, 78
4, 218924, Note_on_c, 0, 55, 56
4, 219174, Control_c, 0, 64, 127
4, 219219, Note_on_c, 0, 70, 0
4, 219249, Note_on_c, 0, 64, 0
4, 219321, Note_on_c, 0, 61, 0
4, 219376, Note_on_c, 0, 55, 0
4, 219423, Note_on_c, 0, 45, 0
4, 219603, Note_on_c, 0, 58, 74
4, 219608, Note_on_c, 0, 45, 44
4, 219610, Note_on_c, 0, 67, 53
4, 219612, Note_on_c, 0, 61, 54
4, 219626, Note_on_c, 0, 55, 41
4, 219710, Control_c, 0, 64, 0
4, 219742, Note_on_c, 0, 55, 0
4, 219743, Note_on_c, 0, 67, 0
4, 219778, Note_on_c, 0, 58, 0
4, 219803, Note_on_c, 0, 61, 0
4, 219815, Note_on_c, 0, 45, 0
4, 219871, Note_on_c, 0, 55, 33
4, 219872, Note_on_c, 0, 45, 18
4, 219891, Note_on_c, 0, 67, 34
4, 219897, Note_on_c, 0, 58, 38
4, 219901, Note_on_c, 0, 61, 57
4, 220020, Note_on_c, 0, 55, 0
4, 220026, Note_on_c, 0, 67, 0
4, 220050, Note_on_c, 0, 58, 0
4, 220133, Note_on_c, 0, 61, 0
4, 220156, Note_on_c, 0, 55, 31
4, 220171, Note_on_c, 0, 61, 21
4, 220174, Note_on_c, 0, 67, 36
4, 220211, Note_on_c, 0, 58, 47
4, 220215, Control_c, 0, 64, 127
4, 220231, Note_on_c, 0, 67, 0
4, 220281, Note_on_c, 0, 55, 0
4, 220298, Note_on_c, 0, 61, 0
4, 220333, Note_on_c, 0, 58, 0
4, 220397, Note_on_c, 0, 45, 0
4, 220419, Control_c, 0, 64, 0
4, 220578, Note_on_c, 0, 54, 63
4, 220589, Note_on_c, 0, 58, 58
4, 220593, Note_on_c, 0, 50, 45
4, 220596, Note_on_c, 0, 60, 40
4, 220600, Note_on_c, 0, 65, 39
4, 220628, Note_on_c, 0, 49, 38
4, 220764, Note_on_c, 0, 49, 0
4, 221089, Note_on_c, 0, 65, 0
4, 221138, Note_on_c, 0, 54, 0
4, 221221, Note_on_c, 0, 58, 0
4, 221716, Note_on_c, 0, 50, 0
4, 221718, Note_on_c, 0, 45, 43
4, 221738, Note_on_c, 0, 54, 43
4, 221739, Note_on_c, 0, 62, 36
4, 221873, Note_on_c, 0, 54, 0
4, 221913, Note_on_c, 0, 62, 0
4, 221938, Note_on_c, 0, 60, 0
4, 222187, Note_on_c, 0, 45, 0
4, 222236, Note_on_c, 0, 50, 35
4, 222608, Note_on_c, 0, 50, 0
4, 222698, Note_on_c, 0, 43, 33
4, 222705, Note_on_c, 0, 67, 61
4, 223008, Control_c, 0, 64, 127
4, 223401, Note_on_c, 0, 67, 0
4, 223461, Note_on_c, 0, 55, 43
4, 223476, Note_on_c, 0, 50, 33
4, 223706, Note_on_c, 0, 43, 0
4, 223766, Note_on_c, 0, 50, 0
4, 223788, Note_on_c, 0, 55, 0
4, 223947, Note_on_c, 0, 65, 43
4, 224073, Control_c, 0, 64, 0
4, 224095, Note_on_c, 0, 65, 0
4, 224208, Control_c, 0, 64, 127
4, 224239, Note_on_c, 0, 66, 37
4, 224250, Control_c, 0, 64, 0
4, 224351, Note_on_c, 0, 66, 0
4, 224469, Note_on_c, 0, 72, 64
4, 224504, Note_on_c, 0, 60, 38
4, 224538, Note_on_c, 0, 54, 36
4, 224550, Note_on_c, 0, 50, 22
4, 224617, Note_on_c, 0, 72, 0
4, 224677, Note_on_c, 0, 77, 52
4, 224848, Note_on_c, 0, 77, 0
4, 224907, Note_on_c, 0, 82, 68
4, 224994, Note_on_c, 0, 50, 0
4, 225031, Note_on_c, 0, 54, 0
4, 225069, Note_on_c, 0, 82, 0
4, 225127, Note_on_c, 0, 84, 78
4, 225152, Note_on_c, 0, 60, 0
4, 225293, Note_on_c, 0, 84, 0
4, 225377, Note_on_c, 0, 84, 69
4, 225497, Note_on_c, 0, 65, 39
4, 225517, Note_on_c, 0, 84, 0
4, 225526, Note_on_c, 0, 54, 27
4, 225534, Note_on_c, 0, 60, 28
4, 225615, Note_on_c, 0, 84, 60
4, 225781, Note_on_c, 0, 84, 0
4, 225870, Note_on_c, 0, 82, 67
4, 225973, Note_on_c, 0, 65, 0
4, 225993, Note_on_c, 0, 60, 0
4, 226007, Note_on_c, 0, 82, 0
4, 226056, Note_on_c, 0, 81, 34
4, 226180, Note_on_c, 0, 54, 0
4, 226290, Note_on_c, 0, 81, 0
4, 226508, Note_on_c, 0, 55, 30
4, 226516, Note_on_c, 0, 57, 28
4, 226521, Note_on_c, 0, 62, 22
4, 226542, Note_on_c, 0, 58, 49
4, 227052, Note_on_c, 0, 81, 69
4, 227122, Note_on_c, 0, 58, 0
4, 227130, Note_on_c, 0, 62, 0
4, 227189, Note_on_c, 0, 57, 0
4, 227275, Note_on_c, 0, 81, 0
4, 227338, Note_on_c, 0, 78, 34
4, 227451, Note_on_c, 0, 78, 0
4, 227496, Note_on_c, 0, 58, 32
4, 227510, Note_on_c, 0, 62, 28
4, 227547, Note_on_c, 0, 79, 45
4, 227766, Note_on_c, 0, 79, 0
4, 227835, Note_on_c, 0, 74, 42
4, 227921, Note_on_c, 0, 55, 0
4, 227936, Note_on_c, 0, 58, 0
4, 227984, Control_c, 0, 64, 127
4, 227998, Note_on_c, 0, 62, 0
4, 228154, Note_on_c, 0, 74, 0
4, 228307, Note_on_c, 0, 84, 66
4, 228310, Note_on_c, 0, 67, 45
4, 228312, Note_on_c, 0, 77, 58
4, 228314, Note_on_c, 0, 62, 31
4, 228316, Note_on_c, 0, 72, 52
4, 228324, Control_c, 0, 64, 0
4, 228331, Note_on_c, 0, 56, 46
4, 228334, Note_on_c, 0, 80, 33
4, 228382, Note_on_c, 0, 80, 0
4, 228788, Control_c, 0, 64, 127
4, 228985, Note_on_c, 0, 67, 0
4, 229017, Note_on_c, 0, 56, 0
4, 229130, Note_on_c, 0, 62, 0
4, 229185, Note_on_c, 0, 72, 0
4, 229198, Control_c, 0, 64, 0
4, 229247, Note_on_c, 0, 66, 54
4, 229264, Note_on_c, 0, 62, 22
4, 229270, Note_on_c, 0, 77, 0
4, 229287, Note_on_c, 0, 60, 31
4, 229301, Note_on_c, 0, 56, 35
4, 229351, Note_on_c, 0, 84, 0
4, 229415, Control_c, 0, 64, 127
4, 229619, Note_on_c, 0, 60, 0
4, 229713, Note_on_c, 0, 62, 0
4, 229782, Note_on_c, 0, 66, 0
4, 229869, Note_on_c, 0, 56, 0
4, 229943, Note_on_c, 0, 86, 97
4, 230042, Control_c, 0, 64, 0
4, 230296, Note_on_c, 0, 62, 34
4, 230302, Note_on_c, 0, 58, 42
4, 230325, Note_on_c, 0, 52, 31
4, 230646, Note_on_c, 0, 85, 47
4, 230734, Note_on_c, 0, 84, 51
4, 230790, Note_on_c, 0, 62, 0
4, 230824, Note_on_c, 0, 86, 0
4, 230873, Note_on_c, 0, 85, 0
4, 230926, Note_on_c, 0, 84, 0
4, 230928, Note_on_c, 0, 58, 0
4, 230951, Note_on_c, 0, 83, 32
4, 231111, Note_on_c, 0, 83, 0
4, 231168, Note_on_c, 0, 82, 54
4, 231194, Note_on_c, 0, 62, 27
4, 231243, Note_on_c, 0, 58, 27
4, 231326, Note_on_c, 0, 82, 0
4, 231401, Note_on_c, 0, 79, 15
4, 231588, Note_on_c, 0, 79, 0
4, 231640, Note_on_c, 0, 76, 51
4, 231752, Note_on_c, 0, 76, 0
4, 231776, Note_on_c, 0, 52, 0
4, 231821, Note_on_c, 0, 58, 0
4, 231822, Note_on_c, 0, 74, 38
4, 232055, Note_on_c, 0, 62, 0
4, 232088, Note_on_c, 0, 74, 0
4, 232105, Note_on_c, 0, 71, 43
4, 232243, Note_on_c, 0, 71, 0
4, 232327, Note_on_c, 0, 64, 28
4, 232332, Note_on_c, 0, 61, 9
4, 232346, Note_on_c, 0, 73, 46
4, 232365, Note_on_c, 0, 55, 20
4, 232572, Note_on_c, 0, 73, 0
4, 232606, Note_on_c, 0, 76, 60
4, 232755, Note_on_c, 0, 64, 0
4, 232837, Note_on_c, 0, 70, 31
4, 232838, Note_on_c, 0, 61, 0
4, 232925, Note_on_c, 0, 76, 0
4, 233019, Note_on_c, 0, 70, 0
4, 233041, Note_on_c, 0, 61, 29
4, 233095, Note_on_c, 0, 67, 40
4, 233152, Note_on_c, 0, 67, 0
4, 233197, Note_on_c, 0, 61, 0
4, 233321, Note_on_c, 0, 69, 47
4, 233382, Note_on_c, 0, 55, 0
4, 233503, Note_on_c, 0, 69, 0
4, 233546, Note_on_c, 0, 70, 49
4, 233552, Note_on_c, 0, 61, 30
4, 233582, Note_on_c, 0, 64, 22
4, 233594, Note_on_c, 0, 55, 15
4, 233652, Note_on_c, 0, 64, 0
4, 233668, Note_on_c, 0, 69, 47
4, 233702, Note_on_c, 0, 61, 0
4, 233739, Note_on_c, 0, 70, 0
4, 233752, Note_on_c, 0, 55, 0
4, 233812, Note_on_c, 0, 67, 12
4, 233813, Note_on_c, 0, 69, 0
4, 234002, Note_on_c, 0, 67, 0
4, 234032, Note_on_c, 0, 65, 56
4, 234232, Note_on_c, 0, 65, 0
4, 234336, Note_on_c, 0, 63, 37
4, 234699, Note_on_c, 0, 63, 0
4, 234969, Note_on_c, 0, 65, 56
4, 234975, Note_on_c, 0, 61, 40
4, 235012, Note_on_c, 0, 58, 44
4, 235024, Note_on_c, 0, 51, 23
4, 235051, Note_on_c, 0, 54, 34
4, 235214, Note_on_c, 0, 65, 0
4, 235270, Note_on_c, 0, 58, 0
4, 235339, Note_on_c, 0, 65, 54
4, 235433, Note_on_c, 0, 58, 18
4, 235492, Note_on_c, 0, 61, 0
4, 235577, Note_on_c, 0, 58, 0
4, 235592, Note_on_c, 0, 65, 0
4, 235630, Note_on_c, 0, 51, 0
4, 235632, Note_on_c, 0, 54, 0
4, 235671, Note_on_c, 0, 66, 53
4, 235968, Note_on_c, 0, 54, 48
4, 235969, Note_on_c, 0, 44, 44
4, 236539, Note_on_c, 0, 54, 0
4, 236558, Control_c, 0, 64, 127
4, 236644, Note_on_c, 0, 44, 0
4, 236848, Note_on_c, 0, 44, 44
4, 236951, Note_on_c, 0, 66, 0
4, 236994, Control_c, 0, 64, 0
4, 237086, Note_on_c, 0, 54, 40
4, 237101, Note_on_c, 0, 60, 35
4, 237145, Note_on_c, 0, 65, 31
4, 237226, Note_on_c, 0, 65, 0
4, 237272, Note_on_c, 0, 60, 0
4, 237392, Note_on_c, 0, 65, 58
4, 237526, Note_on_c, 0, 65, 0
4, 237549, Note_on_c, 0, 44, 0
4, 237620, Note_on_c, 0, 54, 0
4, 237869, Note_on_c, 0, 65, 86
4, 237880, Note_on_c, 0, 60, 71
4, 237895, Note_on_c, 0, 56, 44
4, 237896, Note_on_c, 0, 49, 57
4, 238061, Note_on_c, 0, 65, 0
4, 238069, Note_on_c, 0, 60, 0
4, 238153, Note_on_c, 0, 65, 74
4, 238165, Note_on_c, 0, 60, 64
4, 238428, Note_on_c, 0, 56, 0
4, 238462, Note_on_c, 0, 60, 0
4, 238492, Note_on_c, 0, 65, 0
4, 238535, Control_c, 0, 64, 127
4, 238578, Note_on_c, 0, 66, 63
4, 238780, Control_c, 0, 64, 0
4, 238818, Note_on_c, 0, 66, 0
4, 238841, Note_on_c, 0, 56, 24
4, 238886, Note_on_c, 0, 60, 54
4, 238892, Note_on_c, 0, 56, 0
4, 239054, Control_c, 0, 64, 127
4, 239204, Control_c, 0, 64, 0
4, 239207, Note_on_c, 0, 49, 0
4, 239313, Control_c, 0, 64, 127
4, 239332, Note_on_c, 0, 56, 37
4, 239377, Note_on_c, 0, 49, 11
4, 239387, Note_on_c, 0, 56, 0
4, 239442, Note_on_c, 0, 60, 0
4, 239510, Note_on_c, 0, 49, 0
4, 239723, Control_c, 0, 64, 0
4, 239777, Note_on_c, 0, 64, 46
4, 239793, Note_on_c, 0, 57, 54
4, 239796, Note_on_c, 0, 53, 40
4, 239808, Note_on_c, 0, 60, 37
4, 239838, Note_on_c, 0, 48, 34
4, 239981, Control_c, 0, 64, 127
4, 239985, Note_on_c, 0, 48, 0
4, 240000, Note_on_c, 0, 57, 0
4, 240006, Note_on_c, 0, 53, 0
4, 240034, Note_on_c, 0, 60, 0
4, 240054, Note_on_c, 0, 64, 0
4, 240144, Control_c, 0, 64, 0
4, 240278, Note_on_c, 0, 58, 68
4, 240282, Note_on_c, 0, 65, 56
4, 240295, Note_on_c, 0, 49, 45
4, 240303, Note_on_c, 0, 55, 42
4, 240310, Note_on_c, 0, 63, 41
4, 240316, Note_on_c, 0, 57, 43
4, 240362, Control_c, 0, 64, 127
4, 240371, Note_on_c, 0, 57, 0
4, 240405, Note_on_c, 0, 55, 0
4, 240445, Note_on_c, 0, 58, 0
4, 240467, Note_on_c, 0, 65, 0
4, 240501, Note_on_c, 0, 63, 0
4, 240584, Note_on_c, 0, 49, 0
4, 240622, Control_c, 0, 64, 0
4, 240764, Note_on_c, 0, 65, 61
4, 240766, Note_on_c, 0, 62, 60
4, 240768, Note_on_c, 0, 60, 74
4, 240770, Note_on_c, 0, 69, 66
4, 240827, Note_on_c, 0, 55, 22
4, 240838, Note_on_c, 0, 53, 20
4, 240915, Note_on_c, 0, 55, 0
4, 240921, Note_on_c, 0, 62, 0
4, 240926, Note_on_c, 0, 60, 0
4, 240943, Note_on_c, 0, 53, 0
4, 240956, Note_on_c, 0, 69, 0
4, 240974, Note_on_c, 0, 65, 0
4, 240989, Control_c, 0, 64, 127
4, 241038, Note_on_c, 0, 69, 39
4, 241040, Note_on_c, 0, 60, 56
4, 241049, Note_on_c, 0, 53, 39
4, 241053, Note_on_c, 0, 62, 48
4, 241062, Note_on_c, 0, 65, 63
4, 241225, Note_on_c, 0, 65, 0
4, 241247, Note_on_c, 0, 62, 0
4, 241253, Note_on_c, 0, 60, 0
4, 241329, Note_on_c, 0, 69, 0
4, 241344, Control_c, 0, 64, 0
4, 241439, Note_on_c, 0, 43, 32
4, 241455, Note_on_c, 0, 67, 53
4, 241480, Note_on_c, 0, 64, 51
4, 241481, Note_on_c, 0, 62, 49
4, 241484, Note_on_c, 0, 59, 48
4, 241527, Note_on_c, 0, 64, 0
4, 241531, Note_on_c, 0, 62, 0
4, 241544, Note_on_c, 0, 53, 0
4, 241563, Note_on_c, 0, 59, 0
4, 241575, Control_c, 0, 64, 127
4, 241576, Note_on_c, 0, 67, 0
4, 241835, Control_c, 0, 64, 0
4, 241895, Note_on_c, 0, 43, 0
4, 241935, Note_on_c, 0, 48, 34
4, 241939, Note_on_c, 0, 47, 33
4, 241941, Note_on_c, 0, 60, 42
4, 241945, Note_on_c, 0, 64, 47
4, 241946, Note_on_c, 0, 55, 38
4, 241954, Note_on_c, 0, 57, 52
4, 241999, Note_on_c, 0, 47, 0
4, 242312, Control_c, 0, 64, 127
4, 242547, Note_on_c, 0, 48, 0
4, 242625, Control_c, 0, 64, 0
4, 242638, Note_on_c, 0, 47, 37
4, 242855, Note_on_c, 0, 47, 0
4, 242870, Note_on_c, 0, 48, 49
4, 242876, Note_on_c, 0, 55, 0
4, 242885, Control_c, 0, 64, 127
4, 242947, Note_on_c, 0, 57, 0
4, 243068, Note_on_c, 0, 60, 0
4, 243114, Note_on_c, 0, 48, 0
4, 243135, Note_on_c, 0, 64, 0
4, 243552, Control_c, 0, 64, 0
4, 243603, Note_on_c, 0, 55, 41
4, 243622, Note_on_c, 0, 45, 41
4, 244073, Note_on_c, 0, 63, 48
4, 244205, Note_on_c, 0, 55, 0
4, 244302, Note_on_c, 0, 64, 54
4, 244313, Note_on_c, 0, 63, 0
4, 244426, Note_on_c, 0, 64, 0
4, 244545, Note_on_c, 0, 55, 28
4, 244564, Note_on_c, 0, 52, 18
4, 244715, Note_on_c, 0, 55, 0
4, 244730, Note_on_c, 0, 52, 0
4, 244787, Note_on_c, 0, 67, 92
4, 245035, Note_on_c, 0, 55, 22
4, 245088, Note_on_c, 0, 45, 0
4, 245195, Note_on_c, 0, 67, 0
4, 245201, Note_on_c, 0, 55, 0
4, 245266, Note_on_c, 0, 65, 78
4, 245295, Note_on_c, 0, 67, 47
4, 245361, Note_on_c, 0, 67, 0
4, 245539, Note_on_c, 0, 65, 0
4, 245754, Note_on_c, 0, 61, 63
4, 245758, Note_on_c, 0, 62, 53
4, 245840, Note_on_c, 0, 55, 22
4, 245922, Note_on_c, 0, 55, 0
4, 245927, Note_on_c, 0, 61, 0
4, 246442, Note_on_c, 0, 43, 35
4, 246645, Note_on_c, 0, 61, 60
4, 246792, Note_on_c, 0, 62, 0
4, 246927, Note_on_c, 0, 61, 0
4, 247003, Note_on_c, 0, 62, 57
4, 247004, Note_on_c, 0, 55, 33
4, 247150, Note_on_c, 0, 55, 0
4, 247282, Note_on_c, 0, 43, 0
4, 247299, Note_on_c, 0, 62, 0
4, 247491, Note_on_c, 0, 50, 26
4, 247628, Note_on_c, 0, 50, 0
4, 247703, Note_on_c, 0, 65, 52
4, 247707, Note_on_c, 0, 62, 40
4, 247710, Note_on_c, 0, 59, 51
4, 247717, Note_on_c, 0, 57, 56
4, 248172, Note_on_c, 0, 55, 44
4, 248712, Note_on_c, 0, 57, 0
4, 248775, Note_on_c, 0, 59, 0
4, 248806, Note_on_c, 0, 55, 0
4, 248836, Note_on_c, 0, 62, 0
4, 248884, Note_on_c, 0, 65, 0
4, 248946, Note_on_c, 0, 59, 54
4, 248994, Note_on_c, 0, 47, 35
4, 249304, Control_c, 0, 64, 127
4, 249339, Note_on_c, 0, 59, 0
4, 249413, Note_on_c, 0, 46, 23
4, 249455, Control_c, 0, 64, 0
4, 249508, Note_on_c, 0, 47, 0
4, 249551, Note_on_c, 0, 48, 45
4, 249568, Note_on_c, 0, 60, 51
4, 249569, Note_on_c, 0, 46, 0
4, 249987, Control_c, 0, 64, 127
4, 250486, Note_on_c, 0, 48, 0
4, 250812, Note_on_c, 0, 60, 0
4, 251376, Control_c, 0, 64, 0
4, 251506, Note_on_c, 0, 47, 50
4, 251540, Note_on_c, 0, 59, 67
4, 251749, Note_on_c, 0, 59, 0
4, 251778, Note_on_c, 0, 47, 0
4, 251812, Note_on_c, 0, 60, 51
4, 251816, Note_on_c, 0, 48, 38
4, 252086, Note_on_c, 0, 60, 0
4, 252165, Note_on_c, 0, 48, 0
4, 252260, Note_on_c, 0, 64, 66
4, 252280, Note_on_c, 0, 52, 43
4, 252418, Note_on_c, 0, 64, 0
4, 252603, Control_c, 0, 64, 127
4, 252766, Control_c, 0, 64, 0
4, 252775, Note_on_c, 0, 52, 0
4, 252814, Note_on_c, 0, 55, 49
4, 252838, Note_on_c, 0, 67, 55
4, 252862, Note_on_c, 0, 69, 58
4, 252928, Note_on_c, 0, 55, 0
4, 252935, Note_on_c, 0, 67, 0
4, 252992, Note_on_c, 0, 69, 0
4, 253722, Note_on_c, 0, 51, 68
4, 253732, Note_on_c, 0, 39, 62
4, 253740, Note_on_c, 0, 69, 72
4, 253746, Note_on_c, 0, 65, 71
4, 253751, Note_on_c, 0, 60, 69
4, 253796, Note_on_c, 0, 60, 0
4, 253835, Note_on_c, 0, 51, 0
4, 253861, Note_on_c, 0, 65, 0
4, 253865, Note_on_c, 0, 69, 0
4, 253875, Note_on_c, 0, 39, 0
4, 254456, Note_on_c, 0, 68, 65
4, 254458, Note_on_c, 0, 51, 62
4, 254460, Note_on_c, 0, 39, 58
4, 254461, Note_on_c, 0, 64, 69
4, 254473, Note_on_c, 0, 59, 64
4, 254691, Note_on_c, 0, 59, 0
4, 254708, Note_on_c, 0, 68, 0
4, 254755, Note_on_c, 0, 51, 0
4, 254815, Note_on_c, 0, 64, 0
4, 254887, Note_on_c, 0, 51, 46
4, 254922, Note_on_c, 0, 69, 52
4, 254925, Note_on_c, 0, 64, 72
4, 254986, Note_on_c, 0, 39, 0
4, 254998, Note_on_c, 0, 64, 0
4, 255013, Note_on_c, 0, 51, 0
4, 255023, Note_on_c, 0, 69, 0
4, 255403, Note_on_c, 0, 60, 67
4, 255408, Note_on_c, 0, 66, 67
4, 255409, Note_on_c, 0, 69, 63
4, 255414, Note_on_c, 0, 50, 61
4, 255416, Note_on_c, 0, 72, 53
4, 255417, Note_on_c, 0, 54, 56
4, 255418, Note_on_c, 0, 64, 69
4, 255640, Control_c, 0, 64, 127
4, 255867, Note_on_c, 0, 69, 0
4, 255913, Note_on_c, 0, 72, 0
4, 255928, Note_on_c, 0, 66, 0
4, 255947, Note_on_c, 0, 60, 0
4, 255990, Note_on_c, 0, 64, 0
4, 256015, Note_on_c, 0, 54, 0
4, 256034, Note_on_c, 0, 50, 0
4, 256281, Control_c, 0, 64, 0
4, 256354, Note_on_c, 0, 70, 51
4, 256357, Note_on_c, 0, 66, 40
4, 256360, Note_on_c, 0, 64, 52
4, 256361, Note_on_c, 0, 54, 49
4, 256364, Note_on_c, 0, 60, 43
4, 256379, Note_on_c, 0, 50, 36
4, 256584, Control_c, 0, 64, 127
4, 256652, Note_on_c, 0, 70, 0
4, 256717, Note_on_c, 0, 66, 0
4, 256719, Note_on_c, 0, 64, 0
4, 256763, Note_on_c, 0, 54, 0
4, 256766, Note_on_c, 0, 50, 0
4, 256787, Note_on_c, 0, 60, 0
4, 257048, Control_c, 0, 64, 0
4, 257078, Note_on_c, 0, 67, 53
4, 257095, Note_on_c, 0, 58, 65
4, 257099, Note_on_c, 0, 62, 40
4, 257143, Note_on_c, 0, 43, 32
4, 257166, Note_on_c, 0, 53, 25
4, 257511, Control_c, 0, 64, 127
4, 257660, Note_on_c, 0, 53, 0
4, 257695, Note_on_c, 0, 58, 0
4, 257794, Note_on_c, 0, 62, 0
4, 257828, Note_on_c, 0, 67, 0
4, 257975, Note_on_c, 0, 43, 0
4, 257981, Note_on_c, 0, 50, 43
4, 258220, Note_on_c, 0, 55, 38
4, 258534, Control_c, 0, 64, 0
4, 258541, Note_on_c, 0, 50, 0
4, 258633, Note_on_c, 0, 55, 0
4, 258731, Note_on_c, 0, 68, 51
4, 258822, Note_on_c, 0, 68, 0
4, 258829, Note_on_c, 0, 69, 52
4, 258992, Note_on_c, 0, 69, 0
4, 259059, Note_on_c, 0, 74, 80
4, 259236, Note_on_c, 0, 62, 29
4, 259239, Note_on_c, 0, 74, 0
4, 259259, Note_on_c, 0, 58, 43
4, 259288, Note_on_c, 0, 53, 15
4, 259331, Note_on_c, 0, 72, 54
4, 259541, Note_on_c, 0, 72, 0
4, 259682, Note_on_c, 0, 62, 0
4, 259704, Note_on_c, 0, 69, 40
4, 259746, Note_on_c, 0, 58, 0
4, 259852, Note_on_c, 0, 69, 0
4, 260086, Note_on_c, 0, 60, 27
4, 260150, Note_on_c, 0, 60, 0
4, 260333, Note_on_c, 0, 53, 0
4, 260465, Note_on_c, 0, 53, 20
4, 260512, Note_on_c, 0, 62, 25
4, 260525, Note_on_c, 0, 58, 36
4, 260907, Note_on_c, 0, 53, 0
4, 260924, Note_on_c, 0, 62, 0
4, 261046, Note_on_c, 0, 58, 0
4, 261598, Note_on_c, 0, 62, 31
4, 261610, Note_on_c, 0, 51, 31
4, 261612, Note_on_c, 0, 58, 45
4, 261640, Note_on_c, 0, 55, 29
4, 262085, Note_on_c, 0, 62, 0
4, 262193, Note_on_c, 0, 55, 0
4, 262197, Note_on_c, 0, 58, 0
4, 262329, Note_on_c, 0, 62, 33
4, 262331, Note_on_c, 0, 58, 47
4, 262337, Note_on_c, 0, 55, 34
4, 262550, Note_on_c, 0, 55, 0
4, 262622, Note_on_c, 0, 62, 0
4, 262752, Note_on_c, 0, 58, 0
4, 262775, Note_on_c, 0, 51, 0
4, 263000, Note_on_c, 0, 60, 34
4, 263002, Note_on_c, 0, 50, 37
4, 263017, Note_on_c, 0, 57, 44
4, 263412, Note_on_c, 0, 60, 0
4, 263540, Note_on_c, 0, 67, 90
4, 263563, Note_on_c, 0, 57, 0
4, 263782, Note_on_c, 0, 66, 75
4, 263816, Note_on_c, 0, 67, 0
4, 263838, Note_on_c, 0, 60, 37
4, 263845, Note_on_c, 0, 57, 47
4, 263967, Note_on_c, 0, 66, 0
4, 263970, Note_on_c, 0, 60, 0
4, 264029, Note_on_c, 0, 65, 41
4, 264088, Note_on_c, 0, 57, 0
4, 264171, Note_on_c, 0, 57, 15
4, 264242, Note_on_c, 0, 65, 0
4, 264284, Note_on_c, 0, 62, 34
4, 264333, Note_on_c, 0, 62, 0
4, 264466, Note_on_c, 0, 57, 0
4, 264487, Note_on_c, 0, 67, 76
4, 264563, Note_on_c, 0, 50, 0
4, 264724, Note_on_c, 0, 67, 0
4, 264734, Note_on_c, 0, 66, 69
4, 264879, Note_on_c, 0, 66, 0
4, 264932, Note_on_c, 0, 55, 25
4, 264952, Note_on_c, 0, 58, 33
4, 264960, Note_on_c, 0, 65, 49
4, 265001, Note_on_c, 0, 48, 16
4, 265214, Note_on_c, 0, 58, 0
4, 265251, Note_on_c, 0, 65, 0
4, 265428, Note_on_c, 0, 62, 44
4, 265512, Note_on_c, 0, 48, 0
4, 265563, Note_on_c, 0, 55, 0
4, 265727, Note_on_c, 0, 62, 0
4, 265880, Note_on_c, 0, 62, 36
4, 266156, Note_on_c, 0, 48, 33
4, 266177, Note_on_c, 0, 62, 0
4, 266192, Note_on_c, 0, 60, 34
4, 266234, Control_c, 0, 64, 127
4, 266312, Note_on_c, 0, 48, 0
4, 266384, Note_on_c, 0, 60, 0
4, 266521, Control_c, 0, 64, 0
4, 266632, Note_on_c, 0, 62, 62
4, 266720, Note_on_c, 0, 54, 18
4, 266730, Note_on_c, 0, 50, 11
4, 266992, Note_on_c, 0, 62, 0
4, 267059, Note_on_c, 0, 57, 23
4, 267082, Note_on_c, 0, 63, 54
4, 267265, Note_on_c, 0, 57, 0
4, 267267, Note_on_c, 0, 63, 0
4, 267318, Note_on_c, 0, 62, 31
4, 267400, Note_on_c, 0, 54, 0
4, 267475, Note_on_c, 0, 50, 0
4, 267507, Note_on_c, 0, 62, 0
4, 267588, Note_on_c, 0, 57, 41
4, 267603, Note_on_c, 0, 60, 31
4, 267673, Note_on_c, 0, 60, 0
4, 267786, Note_on_c, 0, 57, 0
4, 267838, Note_on_c, 0, 62, 52
4, 267898, Control_c, 0, 64, 127
4, 268092, Note_on_c, 0, 54, 32
4, 268159, Note_on_c, 0, 54, 0
4, 268196, Note_on_c, 0, 62, 0
4, 268288, Note_on_c, 0, 60, 51
4, 268462, Note_on_c, 0, 60, 0
4, 268582, Note_on_c, 0, 58, 49
4, 268730, Control_c, 0, 64, 0
4, 268765, Note_on_c, 0, 58, 0
4, 268821, Note_on_c, 0, 43, 18
4, 268827, Note_on_c, 0, 57, 58
4, 268838, Note_on_c, 0, 50, 27
4, 269218, Note_on_c, 0, 57, 0
4, 269267, Note_on_c, 0, 58, 48
4, 269498, Note_on_c, 0, 58, 0
4, 269564, Note_on_c, 0, 55, 38
4, 269656, Control_c, 0, 64, 127
4, 269799, Note_on_c, 0, 43, 0
4, 269912, Note_on_c, 0, 55, 0
4, 270003, Note_on_c, 0, 43, 23
4, 270105, Note_on_c, 0, 43, 0
4, 270144, Note_on_c, 0, 50, 0
4, 270679, Control_c, 0, 64, 0
4, 270718, Note_on_c, 0, 60, 30
4, 270729, Note_on_c, 0, 57, 32
4, 270750, Note_on_c, 0, 53, 27
4, 270771, Note_on_c, 0, 50, 12
4, 271232, Note_on_c, 0, 79, 69
4, 271235, Note_on_c, 0, 72, 69
4, 271447, Note_on_c, 0, 79, 0
4, 271524, Note_on_c, 0, 76, 32
4, 271537, Note_on_c, 0, 67, 51
4, 271551, Note_on_c, 0, 72, 0
4, 271674, Note_on_c, 0, 67, 0
4, 271730, Note_on_c, 0, 76, 0
4, 271830, Note_on_c, 0, 79, 66
4, 271835, Note_on_c, 0, 72, 59
4, 272059, Note_on_c, 0, 79, 0
4, 272099, Note_on_c, 0, 53, 0
4, 272119, Note_on_c, 0, 72, 0
4, 272125, Control_c, 0, 64, 127
4, 272138, Note_on_c, 0, 57, 0
4, 272148, Note_on_c, 0, 50, 0
4, 272176, Note_on_c, 0, 76, 39
4, 272187, Note_on_c, 0, 67, 32
4, 272210, Note_on_c, 0, 72, 13
4, 272236, Note_on_c, 0, 60, 0
4, 272267, Note_on_c, 0, 72, 0
4, 272320, Note_on_c, 0, 76, 0
4, 272341, Note_on_c, 0, 67, 0
4, 272466, Control_c, 0, 64, 0
4, 272511, Note_on_c, 0, 77, 55
4, 272515, Note_on_c, 0, 57, 31
4, 272518, Note_on_c, 0, 70, 51
4, 272530, Note_on_c, 0, 53, 12
4, 272535, Note_on_c, 0, 58, 40
4, 272541, Note_on_c, 0, 62, 22
4, 272843, Note_on_c, 0, 77, 0
4, 272859, Note_on_c, 0, 70, 0
4, 272962, Note_on_c, 0, 74, 38
4, 272975, Note_on_c, 0, 65, 35
4, 273105, Note_on_c, 0, 65, 0
4, 273143, Note_on_c, 0, 62, 0
4, 273157, Note_on_c, 0, 58, 0
4, 273158, Note_on_c, 0, 74, 0
4, 273389, Note_on_c, 0, 74, 52
4, 273399, Note_on_c, 0, 62, 25
4, 273411, Note_on_c, 0, 65, 45
4, 273421, Note_on_c, 0, 58, 41
4, 273534, Note_on_c, 0, 65, 0
4, 273536, Note_on_c, 0, 62, 0
4, 273551, Note_on_c, 0, 74, 0
4, 273576, Note_on_c, 0, 58, 0
4, 273623, Control_c, 0, 64, 127
4, 273663, Note_on_c, 0, 74, 44
4, 273672, Note_on_c, 0, 65, 30
4, 273683, Note_on_c, 0, 70, 36
4, 274046, Note_on_c, 0, 62, 28
4, 274059, Note_on_c, 0, 65, 0
4, 274093, Note_on_c, 0, 58, 28
4, 274112, Note_on_c, 0, 57, 0
4, 274117, Note_on_c, 0, 70, 0
4, 274118, Note_on_c, 0, 74, 0
4, 274142, Note_on_c, 0, 62, 0
4, 274177, Note_on_c, 0, 58, 0
4, 274181, Note_on_c, 0, 53, 0
4, 274388, Control_c, 0, 64, 0
4, 274540, Note_on_c, 0, 60, 24
4, 274558, Note_on_c, 0, 79, 51
4, 274562, Note_on_c, 0, 50, 20
4, 274564, Note_on_c, 0, 53, 31
4, 274567, Note_on_c, 0, 57, 34
4, 274570, Note_on_c, 0, 72, 38
4, 274579, Note_on_c, 0, 67, 34
4, 274877, Control_c, 0, 64, 127
4, 275061, Note_on_c, 0, 72, 0
4, 275080, Note_on_c, 0, 67, 0
4, 275083, Note_on_c, 0, 53, 0
4, 275100, Note_on_c, 0, 60, 0
4, 275106, Note_on_c, 0, 79, 0
4, 275114, Note_on_c, 0, 57, 0
4, 275149, Note_on_c, 0, 50, 0
4, 275232, Control_c, 0, 64, 0
4, 275300, Note_on_c, 0, 50, 25
4, 275317, Note_on_c, 0, 60, 35
4, 275330, Note_on_c, 0, 72, 47
4, 275332, Note_on_c, 0, 57, 42
4, 275333, Note_on_c, 0, 79, 44
4, 275336, Note_on_c, 0, 67, 45
4, 275349, Note_on_c, 0, 53, 24
4, 275353, Note_on_c, 0, 76, 28
4, 275436, Control_c, 0, 64, 127
4, 275457, Note_on_c, 0, 67, 0
4, 275463, Note_on_c, 0, 72, 0
4, 275523, Note_on_c, 0, 79, 0
4, 275536, Note_on_c, 0, 76, 0
4, 275540, Note_on_c, 0, 57, 0
4, 275546, Note_on_c, 0, 60, 0
4, 275555, Note_on_c, 0, 50, 0
4, 275559, Note_on_c, 0, 53, 0
4, 275793, Note_on_c, 0, 81, 62
4, 275803, Note_on_c, 0, 74, 55
4, 275806, Note_on_c, 0, 60, 43
4, 275808, Note_on_c, 0, 69, 51
4, 275809, Note_on_c, 0, 57, 47
4, 275820, Note_on_c, 0, 50, 31
4, 275825, Note_on_c, 0, 53, 27
4, 275832, Note_on_c, 0, 77, 42
4, 275866, Note_on_c, 0, 69, 0
4, 275886, Note_on_c, 0, 77, 0
4, 275896, Note_on_c, 0, 74, 0
4, 275920, Note_on_c, 0, 60, 0
4, 275948, Note_on_c, 0, 81, 0
4, 275950, Note_on_c, 0, 57, 0
4, 275972, Note_on_c, 0, 53, 0
4, 275978, Note_on_c, 0, 50, 0
4, 276163, Note_on_c, 0, 50, 30
4, 276182, Note_on_c, 0, 60, 50
4, 276187, Note_on_c, 0, 84, 73
4, 276194, Note_on_c, 0, 57, 48
4, 276221, Note_on_c, 0, 77, 52
4, 276226, Note_on_c, 0, 72, 48
4, 276228, Note_on_c, 0, 50, 0
4, 276250, Note_on_c, 0, 57, 0
4, 276270, Note_on_c, 0, 77, 0
4, 276275, Note_on_c, 0, 72, 0
4, 276300, Note_on_c, 0, 60, 0
4, 276322, Note_on_c, 0, 84, 0
4, 276473, Control_c, 0, 64, 0
4, 276509, Note_on_c, 0, 62, 50
4, 276513, Note_on_c, 0, 53, 36
4, 276523, Note_on_c, 0, 81, 67
4, 276530, Note_on_c, 0, 57, 42
4, 276532, Note_on_c, 0, 74, 56
4, 276534, Note_on_c, 0, 69, 62
4, 276538, Note_on_c, 0, 58, 35
4, 276539, Note_on_c, 0, 77, 52
4, 276882, Control_c, 0, 64, 127
4, 276917, Note_on_c, 0, 77, 0
4, 276920, Note_on_c, 0, 81, 0
4, 276930, Note_on_c, 0, 74, 0
4, 276991, Note_on_c, 0, 69, 0
4, 277033, Note_on_c, 0, 62, 0
4, 277061, Note_on_c, 0, 57, 0
4, 277066, Note_on_c, 0, 53, 0
4, 277093, Note_on_c, 0, 58, 0
4, 277169, Control_c, 0, 64, 0
4, 277226, Note_on_c, 0, 77, 43
4, 277236, Note_on_c, 0, 74, 34
4, 277241, Note_on_c, 0, 65, 47
4, 277246, Note_on_c, 0, 58, 40
4, 277253, Note_on_c, 0, 53, 19
4, 277264, Note_on_c, 0, 62, 27
4, 277271, Note_on_c, 0, 57, 41
4, 277387, Control_c, 0, 64, 127
4, 277461, Note_on_c, 0, 65, 0
4, 277521, Note_on_c, 0, 74, 0
4, 277540, Note_on_c, 0, 77, 0
4, 277667, Note_on_c, 0, 62, 0
4, 277668, Note_on_c, 0, 53, 0
4, 277672, Note_on_c, 0, 57, 0
4, 277673, Note_on_c, 0, 58, 0
4, 277914, Note_on_c, 0, 62, 25
4, 277918, Note_on_c, 0, 58, 37
4, 277920, Note_on_c, 0, 53, 19
4, 277939, Note_on_c, 0, 57, 35
4, 277959, Control_c, 0, 64, 0
4, 278084, Note_on_c, 0, 62, 0
4, 278088, Note_on_c, 0, 57, 0
4, 278135, Control_c, 0, 64, 127
4, 278143, Note_on_c, 0, 53, 0
4, 278182, Note_on_c, 0, 58, 0
4, 278405, Note_on_c, 0, 57, 34
4, 278409, Control_c, 0, 64, 0
4, 278411, Note_on_c, 0, 60, 32
4, 278413, Note_on_c, 0, 50, 25
4, 278424, Note_on_c, 0, 53, 19
4, 278930, Note_on_c, 0, 88, 58
4, 278934, Note_on_c, 0, 91, 58
4, 279331, Note_on_c, 0, 60, 0
4, 279378, Control_c, 0, 64, 127
4, 279397, Note_on_c, 0, 88, 0
4, 279450, Note_on_c, 0, 57, 0
4, 279467, Note_on_c, 0, 91, 0
4, 279518, Note_on_c, 0, 53, 0
4, 279526, Note_on_c, 0, 50, 0
4, 279624, Note_on_c, 0, 90, 36
4, 279637, Note_on_c, 0, 87, 40
4, 279656, Note_on_c, 0, 50, 11
4, 279659, Note_on_c, 0, 57, 31
4, 279685, Note_on_c, 0, 60, 27
4, 279686, Note_on_c, 0, 53, 12
4, 279731, Control_c, 0, 64, 0
4, 279802, Note_on_c, 0, 50, 0
4, 279815, Note_on_c, 0, 90, 0
4, 279825, Note_on_c, 0, 53, 0
4, 279833, Note_on_c, 0, 57, 0
4, 279855, Note_on_c, 0, 87, 0
4, 279892, Note_on_c, 0, 89, 28
4, 279897, Note_on_c, 0, 86, 30
4, 279950, Control_c, 0, 64, 127
4, 279977, Note_on_c, 0, 60, 0
4, 280070, Note_on_c, 0, 86, 0
4, 280109, Note_on_c, 0, 89, 0
4, 280139, Control_c, 0, 64, 0
4, 280185, Note_on_c, 0, 84, 26
4, 280200, Note_on_c, 0, 88, 24
4, 280257, Note_on_c, 0, 88, 0
4, 280290, Note_on_c, 0, 84, 0
4, 280402, Note_on_c, 0, 62, 12
4, 280410, Note_on_c, 0, 57, 16
4, 280413, Note_on_c, 0, 58, 21
4, 280433, Note_on_c, 0, 53, 9
4, 280437, Note_on_c, 0, 86, 17
4, 280441, Note_on_c, 0, 82, 13
4, 280740, Control_c, 0, 64, 127
4, 280793, Note_on_c, 0, 82, 0
4, 280855, Note_on_c, 0, 58, 0
4, 280895, Note_on_c, 0, 62, 0
4, 280936, Note_on_c, 0, 86, 0
4, 280954, Note_on_c, 0, 57, 0
4, 280965, Note_on_c, 0, 53, 0
4, 281012, Control_c, 0, 64, 0
4, 281114, Note_on_c, 0, 84, 13
4, 281135, Note_on_c, 0, 62, 11
4, 281137, Note_on_c, 0, 79, 10
4, 281144, Note_on_c, 0, 57, 12
4, 281152, Note_on_c, 0, 58, 14
4, 281161, Note_on_c, 0, 53, 5
4, 281325, Control_c, 0, 64, 127
4, 281422, Note_on_c, 0, 84, 0
4, 281456, Note_on_c, 0, 58, 0
4, 281488, Note_on_c, 0, 79, 0
4, 281524, Note_on_c, 0, 62, 0
4, 281775, Control_c, 0, 64, 0
4, 281792, Note_on_c, 0, 82, 15
4, 281842, Note_on_c, 0, 57, 0
4, 281875, Note_on_c, 0, 53, 0
4, 282130, Note_on_c, 0, 82, 0
4, 282247, Note_on_c, 0, 60, 5
4, 282257, Note_on_c, 0, 57, 6
4, 282272, Note_on_c, 0, 50, 1
4, 282283, Note_on_c, 0, 53, 5
4, 282285, Note_on_c, 0, 81, 9
4, 282314, Note_on_c, 0, 77, 5
4, 282648, Control_c, 0, 64, 127
4, 282684, Note_on_c, 0, 81, 0
4, 282754, Note_on_c, 0, 77, 0
4, 282807, Note_on_c, 0, 60, 0
4, 282814, Note_on_c, 0, 57, 0
4, 282952, Note_on_c, 0, 53, 0
4, 283013, Note_on_c, 0, 76, 3
4, 283020, Note_on_c, 0, 79, 2
4, 283070, Note_on_c, 0, 60, 1
4, 283073, Control_c, 0, 64, 0
4, 283074, Note_on_c, 0, 57, 1
4, 283107, Note_on_c, 0, 76, 0
4, 283181, Note_on_c, 0, 79, 0
4, 283281, Note_on_c, 0, 77, 1
4, 283575, Note_on_c, 0, 77, 0
4, 283678, Note_on_c, 0, 50, 0
4, 284050, Note_on_c, 0, 57, 0
4, 284498, Note_on_c, 0, 60, 0
4, 284498, End_track
5, 0, Start_track
5, 0, Title_t, "Bass"
5, 0, Control_c, 1, 0, 2
5, 0, Control_c, 1, 7, 93
5, 1, Program_c, 1, 35
5, 99869, Note_on_c, 1, 31, 47
5, 100737, Note_on_c, 1, 38, 24
5, 100846, Note_on_c, 1, 38, 0
5, 100863, Note_on_c, 1, 45, 51
5, 100968, Note_on_c, 1, 31, 0
5, 101726, Note_on_c, 1, 45, 0
5, 101762, Note_on_c, 1, 38, 53
5, 102717, Note_on_c, 1, 50, 67
5, 102880, Note_on_c, 1, 38, 0
5, 103428, Note_on_c, 1, 38, 46
5, 103623, Note_on_c, 1, 38, 0
5, 103637, Note_on_c, 1, 50, 0
5, 103717, Note_on_c, 1, 31, 51
5, 104440, Note_on_c, 1, 38, 47
5, 104635, Note_on_c, 1, 38, 0
5, 104650, Note_on_c, 1, 43, 32
5, 104732, Note_on_c, 1, 31, 0
5, 105460, Note_on_c, 1, 37, 45
5, 105510, Note_on_c, 1, 43, 0
5, 105669, Note_on_c, 1, 37, 0
5, 105700, Note_on_c, 1, 38, 57
5, 106343, Note_on_c, 1, 37, 46
5, 106465, Note_on_c, 1, 37, 0
5, 106576, Note_on_c, 1, 50, 66
5, 106610, Note_on_c, 1, 38, 0
5, 107300, Note_on_c, 1, 38, 53
5, 107376, Note_on_c, 1, 50, 0
5, 107417, Note_on_c, 1, 38, 0
5, 107508, Note_on_c, 1, 31, 47
5, 108278, Note_on_c, 1, 38, 60
5, 108338, Note_on_c, 1, 38, 0
5, 108418, Note_on_c, 1, 31, 0
5, 108459, Note_on_c, 1, 43, 49
5, 109295, Note_on_c, 1, 43, 0
5, 109416, Note_on_c, 1, 38, 33
5, 110010, Note_on_c, 1, 38, 0
5, 110062, Note_on_c, 1, 37, 39
5, 110189, Note_on_c, 1, 38, 42
5, 110207, Note_on_c, 1, 37, 0
5, 110368, Note_on_c, 1, 50, 71
5, 110409, Note_on_c, 1, 38, 0
5, 111103, Note_on_c, 1, 38, 45
5, 111247, Note_on_c, 1, 50, 0
5, 111281, Note_on_c, 1, 38, 0
5, 111341, Note_on_c, 1, 43, 38
5, 112311, Note_on_c, 1, 31, 46
5, 112320, Note_on_c, 1, 43, 0
5, 113096, Note_on_c, 1, 37, 34
5, 113183, Note_on_c, 1, 31, 0
5, 113215, Note_on_c, 1, 37, 0
5, 113263, Note_on_c, 1, 38, 54
5, 114053, Note_on_c, 1, 37, 46
5, 114183, Note_on_c, 1, 38, 0
5, 114205, Note_on_c, 1, 37, 0
5, 114268, Note_on_c, 1, 50, 68
5, 115047, Note_on_c, 1, 38, 51
5, 115090, Note_on_c, 1, 50, 0
5, 115177, Note_on_c, 1, 38, 0
5, 115234, Note_on_c, 1, 43, 42
5, 116122, Note_on_c, 1, 31, 44
5, 116179, Note_on_c, 1, 43, 0
5, 117182, Note_on_c, 1, 41, 66
5, 117932, Note_on_c, 1, 36, 39
5, 117997, Note_on_c, 1, 41, 0
5, 117999, Note_on_c, 1, 31, 0
5, 118091, Note_on_c, 1, 36, 0
5, 118127, Note_on_c, 1, 41, 56
5, 119065, Note_on_c, 1, 41, 0
5, 119118, Note_on_c, 1, 39, 64
5, 119870, Note_on_c, 1, 37, 25
5, 120065, Note_on_c, 1, 37, 0
5, 120075, Note_on_c, 1, 51, 64
5, 120130, Note_on_c, 1, 39, 0
5, 120794, Note_on_c, 1, 39, 58
5, 120935, Note_on_c, 1, 51, 0
5, 120959, Note_on_c, 1, 39, 0
5, 121068, Note_on_c, 1, 50, 36
5, 121871, Note_on_c, 1, 50, 0
5, 121921, Note_on_c, 1, 38, 63
5, 122594, Note_on_c, 1, 38, 0
5, 122671, Note_on_c, 1, 43, 31
5, 122700, Note_on_c, 1, 38, 32
5, 122756, Note_on_c, 1, 43, 0
5, 122917, Note_on_c, 1, 48, 71
5, 122922, Note_on_c, 1, 38, 0
5, 123873, Note_on_c, 1, 36, 56
5, 124660, Note_on_c, 1, 48, 0
5, 124862, Note_on_c, 1, 38, 51
5, 124864, Note_on_c, 1, 36, 0
5, 125622, Note_on_c, 1, 37, 42
5, 125759, Note_on_c, 1, 37, 0
5, 125787, Note_on_c, 1, 38, 0
5, 125846, Note_on_c, 1, 50, 65
5, 126709, Note_on_c, 1, 50, 0
5, 126749, Note_on_c, 1, 38, 24
5, 126768, Note_on_c, 1, 49, 52
5, 126831, Note_on_c, 1, 38, 0
5, 127709, Note_on_c, 1, 37, 45
5, 128425, Note_on_c, 1, 34, 27
5, 128452, Note_on_c, 1, 49, 0
5, 128620, Note_on_c, 1, 37, 0
5, 128647, Note_on_c, 1, 48, 61
5, 128676, Note_on_c, 1, 34, 0
5, 129627, Note_on_c, 1, 36, 43
5, 129960, Note_on_c, 1, 48, 0
5, 130116, Note_on_c, 1, 34, 60
5, 130212, Note_on_c, 1, 36, 0
5, 130253, Note_on_c, 1, 34, 0
5, 130570, Note_on_c, 1, 35, 66
5, 131525, Note_on_c, 1, 47, 75
5, 131547, Note_on_c, 1, 35, 0
5, 132290, Note_on_c, 1, 35, 47
5, 132424, Note_on_c, 1, 47, 0
5, 132443, Note_on_c, 1, 35, 0
5, 132498, Note_on_c, 1, 46, 59
5, 133355, Note_on_c, 1, 46, 0
5, 133436, Note_on_c, 1, 34, 55
5, 134276, Note_on_c, 1, 34, 0
5, 134376, Note_on_c, 1, 33, 59
5, 135363, Note_on_c, 1, 45, 70
5, 135425, Note_on_c, 1, 33, 0
5, 136074, Note_on_c, 1, 37, 48
5, 136209, Note_on_c, 1, 45, 0
5, 136242, Note_on_c, 1, 37, 0
5, 136310, Note_on_c, 1, 38, 56
5, 137043, Note_on_c, 1, 37, 53
5, 137187, Note_on_c, 1, 38, 0
5, 137266, Note_on_c, 1, 37, 0
5, 137274, Note_on_c, 1, 45, 66
5, 137420, Note_on_c, 1, 45, 0
5, 137714, Note_on_c, 1, 38, 39
5, 137752, Note_on_c, 1, 44, 64
5, 137788, Note_on_c, 1, 38, 0
5, 137971, Note_on_c, 1, 44, 0
5, 138270, Note_on_c, 1, 43, 50
5, 139109, Note_on_c, 1, 43, 0
5, 139210, Note_on_c, 1, 38, 48
5, 140655, Note_on_c, 1, 54, 64
5, 140907, Note_on_c, 1, 54, 0
5, 140941, Note_on_c, 1, 52, 29
5, 141107, Note_on_c, 1, 52, 0
5, 141191, Note_on_c, 1, 54, 57
5, 141569, Note_on_c, 1, 38, 0
5, 141658, Note_on_c, 1, 42, 34
5, 141722, Note_on_c, 1, 54, 0
5, 142138, Note_on_c, 1, 42, 0
5, 142141, Note_on_c, 1, 43, 48
5, 142975, Note_on_c, 1, 43, 0
5, 143030, Note_on_c, 1, 31, 60
5, 143792, Note_on_c, 1, 38, 55
5, 143958, Note_on_c, 1, 38, 0
5, 143973, Note_on_c, 1, 46, 69
5, 144007, Note_on_c, 1, 31, 0
5, 144908, Note_on_c, 1, 46, 0
5, 144934, Note_on_c, 1, 34, 60
5, 145916, Note_on_c, 1, 40, 62
5, 145921, Note_on_c, 1, 34, 0
5, 146736, Note_on_c, 1, 40, 0
5, 146906, Note_on_c, 1, 28, 55
5, 147613, Note_on_c, 1, 37, 39
5, 147717, Note_on_c, 1, 28, 0
5, 147854, Note_on_c, 1, 39, 57
5, 147926, Note_on_c, 1, 37, 0
5, 148453, Note_on_c, 1, 39, 0
5, 148573, Note_on_c, 1, 39, 48
5, 148592, Note_on_c, 1, 37, 15
5, 148726, Note_on_c, 1, 39, 0
5, 148774, Note_on_c, 1, 37, 0
5, 148777, Note_on_c, 1, 45, 74
5, 149534, Note_on_c, 1, 37, 51
5, 149657, Note_on_c, 1, 45, 0
5, 149760, Note_on_c, 1, 37, 0
5, 149779, Note_on_c, 1, 39, 56
5, 150475, Note_on_c, 1, 39, 0
5, 150484, Note_on_c, 1, 37, 47
5, 150741, Note_on_c, 1, 51, 74
5, 150799, Note_on_c, 1, 37, 0
5, 151432, Note_on_c, 1, 39, 46
5, 151509, Note_on_c, 1, 39, 0
5, 151684, Note_on_c, 1, 44, 62
5, 151782, Note_on_c, 1, 51, 0
5, 152458, Note_on_c, 1, 39, 37
5, 152519, Note_on_c, 1, 39, 0
5, 152547, Note_on_c, 1, 44, 0
5, 152602, Note_on_c, 1, 32, 64
5, 153151, Note_on_c, 1, 44, 23
5, 153295, Note_on_c, 1, 44, 0
5, 153315, Note_on_c, 1, 34, 29
5, 153499, Note_on_c, 1, 32, 0
5, 153571, Note_on_c, 1, 37, 60
5, 153637, Note_on_c, 1, 34, 0
5, 154320, Note_on_c, 1, 34, 29
5, 154529, Note_on_c, 1, 34, 0
5, 154558, Note_on_c, 1, 49, 78
5, 154569, Note_on_c, 1, 37, 0
5, 155319, Note_on_c, 1, 37, 26
5, 155336, Note_on_c, 1, 38, 62
5, 155387, Note_on_c, 1, 37, 0
5, 155426, Note_on_c, 1, 49, 0
5, 155476, Note_on_c, 1, 38, 0
5, 155536, Note_on_c, 1, 50, 66
5, 156236, Note_on_c, 1, 38, 51
5, 156322, Note_on_c, 1, 38, 0
5, 156472, Note_on_c, 1, 43, 48
5, 156474, Note_on_c, 1, 50, 0
5, 157174, Note_on_c, 1, 35, 45
5, 157351, Note_on_c, 1, 35, 0
5, 157378, Note_on_c, 1, 43, 0
5, 157416, Note_on_c, 1, 36, 45
5, 158188, Note_on_c, 1, 34, 25
5, 158385, Note_on_c, 1, 36, 0
5, 158422, Note_on_c, 1, 48, 74
5, 158458, Note_on_c, 1, 34, 0
5, 159167, Note_on_c, 1, 36, 44
5, 159249, Note_on_c, 1, 36, 0
5, 159296, Note_on_c, 1, 48, 0
5, 159405, Note_on_c, 1, 45, 66
5, 160071, Note_on_c, 1, 38, 43
5, 160129, Note_on_c, 1, 45, 0
5, 160263, Note_on_c, 1, 38, 0
5, 160338, Note_on_c, 1, 45, 68
5, 161180, Note_on_c, 1, 45, 0
5, 161285, Note_on_c, 1, 38, 59
5, 162327, Note_on_c, 1, 45, 77
5, 162367, Note_on_c, 1, 38, 0
5, 162995, Note_on_c, 1, 38, 48
5, 163065, Note_on_c, 1, 38, 0
5, 163170, Note_on_c, 1, 45, 0
5, 163231, Note_on_c, 1, 43, 44
5, 164094, Note_on_c, 1, 43, 0
5, 164144, Note_on_c, 1, 31, 54
5, 165003, Note_on_c, 1, 31, 0
5, 165099, Note_on_c, 1, 36, 50
5, 165591, Note_on_c, 1, 50, 54
5, 166323, Note_on_c, 1, 50, 0
5, 166366, Note_on_c, 1, 48, 50
5, 166883, Note_on_c, 1, 48, 0
5, 166989, Note_on_c, 1, 43, 41
5, 167136, Note_on_c, 1, 36, 0
5, 167611, Note_on_c, 1, 43, 0
5, 167729, Note_on_c, 1, 43, 53
5, 168331, Note_on_c, 1, 43, 0
5, 168475, Note_on_c, 1, 43, 38
5, 168715, Note_on_c, 1, 43, 0
5, 169306, Note_on_c, 1, 39, 76
5, 169411, Note_on_c, 1, 39, 0
5, 170001, Note_on_c, 1, 39, 69
5, 170637, Note_on_c, 1, 39, 0
5, 170880, Note_on_c, 1, 38, 66
5, 171821, Note_on_c, 1, 38, 0
5, 171847, Note_on_c, 1, 38, 62
5, 171872, Control_c, 1, 64, 127
5, 171924, Control_c, 1, 64, 0
5, 172245, Control_c, 1, 64, 127
5, 172334, Control_c, 1, 64, 0
5, 172812, Note_on_c, 1, 43, 50
5, 172827, Note_on_c, 1, 38, 0
5, 173785, Note_on_c, 1, 31, 49
5, 174292, Note_on_c, 1, 43, 0
5, 174505, Note_on_c, 1, 41, 72
5, 174513, Note_on_c, 1, 31, 0
5, 175739, Note_on_c, 1, 29, 33
5, 175981, Note_on_c, 1, 29, 0
5, 176640, Note_on_c, 1, 41, 0
5, 176649, Note_on_c, 1, 39, 59
5, 177550, Note_on_c, 1, 51, 69
5, 177652, Note_on_c, 1, 39, 0
5, 178278, Note_on_c, 1, 39, 32
5, 178344, Note_on_c, 1, 39, 0
5, 178489, Note_on_c, 1, 51, 0
5, 178532, Note_on_c, 1, 50, 58
5, 179508, Note_on_c, 1, 50, 0
5, 179543, Note_on_c, 1, 38, 57
5, 180491, Note_on_c, 1, 48, 55
5, 180593, Note_on_c, 1, 38, 0
5, 181396, Note_on_c, 1, 48, 0
5, 181446, Note_on_c, 1, 36, 61
5, 182231, Note_on_c, 1, 43, 27
5, 182330, Note_on_c, 1, 43, 0
5, 182362, Note_on_c, 1, 36, 0
5, 182429, Note_on_c, 1, 50, 83
5, 183349, Note_on_c, 1, 50, 0
5, 183389, Note_on_c, 1, 38, 56
5, 184361, Note_on_c, 1, 38, 0
5, 184363, Note_on_c, 1, 43, 47
5, 184921, Note_on_c, 1, 43, 0
5, 185110, Note_on_c, 1, 43, 36
5, 185745, Note_on_c, 1, 43, 0
5, 185780, Note_on_c, 1, 38, 60
5, 186979, Note_on_c, 1, 45, 46
5, 187071, Note_on_c, 1, 45, 0
5, 187209, Note_on_c, 1, 50, 58
5, 187426, Note_on_c, 1, 50, 0
5, 187458, Note_on_c, 1, 49, 40
5, 187578, Note_on_c, 1, 49, 0
5, 187662, Note_on_c, 1, 50, 47
5, 187989, Note_on_c, 1, 50, 0
5, 188122, Note_on_c, 1, 38, 0
5, 188173, Note_on_c, 1, 43, 39
5, 188720, Note_on_c, 1, 43, 0
5, 188862, Note_on_c, 1, 43, 27
5, 189531, Note_on_c, 1, 43, 0
5, 189606, Note_on_c, 1, 38, 56
5, 190926, Note_on_c, 1, 38, 0
5, 191024, Note_on_c, 1, 38, 57
5, 191935, Note_on_c, 1, 38, 0
5, 191980, Note_on_c, 1, 31, 49
5, 192962, Note_on_c, 1, 31, 0
5, 192977, Note_on_c, 1, 43, 54
5, 193855, Note_on_c, 1, 43, 0
5, 193927, Note_on_c, 1, 38, 62
5, 194924, Note_on_c, 1, 50, 66
5, 195071, Note_on_c, 1, 38, 0
5, 195684, Note_on_c, 1, 38, 48
5, 195718, Note_on_c, 1, 50, 0
5, 195840, Note_on_c, 1, 38, 0
5, 195886, Note_on_c, 1, 43, 47
5, 196654, Note_on_c, 1, 43, 0
5, 196777, Note_on_c, 1, 43, 25
5, 199129, Note_on_c, 1, 43, 0
5, 199177, Note_on_c, 1, 38, 54
5, 199473, Note_on_c, 1, 38, 0
5, 199685, Note_on_c, 1, 43, 42
5, 200573, Note_on_c, 1, 31, 44
5, 200630, Note_on_c, 1, 43, 0
5, 201633, Note_on_c, 1, 41, 66
5, 202383, Note_on_c, 1, 36, 39
5, 202448, Note_on_c, 1, 41, 0
5, 202450, Note_on_c, 1, 31, 0
5, 202542, Note_on_c, 1, 36, 0
5, 202578, Note_on_c, 1, 41, 56
5, 203516, Note_on_c, 1, 41, 0
5, 203569, Note_on_c, 1, 39, 64
5, 204321, Note_on_c, 1, 37, 25
5, 204516, Note_on_c, 1, 37, 0
5, 204526, Note_on_c, 1, 51, 64
5, 204581, Note_on_c, 1, 39, 0
5, 205245, Note_on_c, 1, 39, 58
5, 205386, Note_on_c, 1, 51, 0
5, 205410, Note_on_c, 1, 39, 0
5, 205519, Note_on_c, 1, 50, 36
5, 206322, Note_on_c, 1, 50, 0
5, 206372, Note_on_c, 1, 38, 63
5, 207045, Note_on_c, 1, 38, 0
5, 207122, Note_on_c, 1, 43, 31
5, 207151, Note_on_c, 1, 38, 32
5, 207207, Note_on_c, 1, 43, 0
5, 207368, Note_on_c, 1, 48, 71
5, 207373, Note_on_c, 1, 38, 0
5, 208324, Note_on_c, 1, 36, 56
5, 209111, Note_on_c, 1, 48, 0
5, 209313, Note_on_c, 1, 38, 51
5, 209315, Note_on_c, 1, 36, 0
5, 210073, Note_on_c, 1, 37, 42
5, 210210, Note_on_c, 1, 37, 0
5, 210238, Note_on_c, 1, 38, 0
5, 210297, Note_on_c, 1, 50, 65
5, 211160, Note_on_c, 1, 50, 0
5, 211200, Note_on_c, 1, 38, 24
5, 211219, Note_on_c, 1, 49, 52
5, 211282, Note_on_c, 1, 38, 0
5, 212160, Note_on_c, 1, 37, 45
5, 212876, Note_on_c, 1, 34, 27
5, 212903, Note_on_c, 1, 49, 0
5, 213071, Note_on_c, 1, 37, 0
5, 213098, Note_on_c, 1, 48, 61
5, 213127, Note_on_c, 1, 34, 0
5, 214078, Note_on_c, 1, 36, 43
5, 214411, Note_on_c, 1, 48, 0
5, 214567, Note_on_c, 1, 34, 60
5, 214663, Note_on_c, 1, 36, 0
5, 214704, Note_on_c, 1, 34, 0
5, 215021, Note_on_c, 1, 35, 66
5, 215976, Note_on_c, 1, 47, 75
5, 215998, Note_on_c, 1, 35, 0
5, 216741, Note_on_c, 1, 35, 47
5, 216875, Note_on_c, 1, 47, 0
5, 216894, Note_on_c, 1, 35, 0
5, 216949, Note_on_c, 1, 46, 59
5, 217806, Note_on_c, 1, 46, 0
5, 217887, Note_on_c, 1, 34, 55
5, 218727, Note_on_c, 1, 34, 0
5, 218827, Note_on_c, 1, 33, 59
5, 219814, Note_on_c, 1, 45, 70
5, 219876, Note_on_c, 1, 33, 0
5, 220525, Note_on_c, 1, 37, 48
5, 220660, Note_on_c, 1, 45, 0
5, 220693, Note_on_c, 1, 37, 0
5, 220761, Note_on_c, 1, 38, 56
5, 221494, Note_on_c, 1, 37, 53
5, 221638, Note_on_c, 1, 38, 0
5, 221717, Note_on_c, 1, 37, 0
5, 221725, Note_on_c, 1, 45, 66
5, 221871, Note_on_c, 1, 45, 0
5, 222165, Note_on_c, 1, 38, 39
5, 222203, Note_on_c, 1, 44, 64
5, 222239, Note_on_c, 1, 38, 0
5, 222422, Note_on_c, 1, 44, 0
5, 222721, Note_on_c, 1, 43, 50
5, 223560, Note_on_c, 1, 43, 0
5, 223661, Note_on_c, 1, 38, 48
5, 225106, Note_on_c, 1, 54, 64
5, 225358, Note_on_c, 1, 54, 0
5, 225392, Note_on_c, 1, 52, 29
5, 225558, Note_on_c, 1, 52, 0
5, 225642, Note_on_c, 1, 54, 57
5, 226020, Note_on_c, 1, 38, 0
5, 226109, Note_on_c, 1, 42, 34
5, 226173, Note_on_c, 1, 54, 0
5, 226589, Note_on_c, 1, 42, 0
5, 226592, Note_on_c, 1, 43, 48
5, 227426, Note_on_c, 1, 43, 0
5, 227481, Note_on_c, 1, 31, 60
5, 228243, Note_on_c, 1, 38, 55
5, 228409, Note_on_c, 1, 38, 0
5, 228424, Note_on_c, 1, 46, 69
5, 228458, Note_on_c, 1, 31, 0
5, 229359, Note_on_c, 1, 46, 0
5, 229385, Note_on_c, 1, 34, 60
5, 230367, Note_on_c, 1, 40, 62
5, 230372, Note_on_c, 1, 34, 0
5, 231187, Note_on_c, 1, 40, 0
5, 231357, Note_on_c, 1, 28, 55
5, 232064, Note_on_c, 1, 37, 39
5, 232168, Note_on_c, 1, 28, 0
5, 232305, Note_on_c, 1, 39, 57
5, 232377, Note_on_c, 1, 37, 0
5, 232904, Note_on_c, 1, 39, 0
5, 233024, Note_on_c, 1, 39, 48
5, 233177, Note_on_c, 1, 39, 0
5, 233228, Note_on_c, 1, 45, 74
5, 233985, Note_on_c, 1, 37, 51
5, 234108, Note_on_c, 1, 45, 0
5, 234211, Note_on_c, 1, 37, 0
5, 234230, Note_on_c, 1, 39, 56
5, 234926, Note_on_c, 1, 39, 0
5, 234935, Note_on_c, 1, 37, 47
5, 235192, Note_on_c, 1, 51, 74
5, 235250, Note_on_c, 1, 37, 0
5, 235883, Note_on_c, 1, 39, 46
5, 235960, Note_on_c, 1, 39, 0
5, 236135, Note_on_c, 1, 44, 62
5, 236233, Note_on_c, 1, 51, 0
5, 236909, Note_on_c, 1, 39, 37
5, 236970, Note_on_c, 1, 39, 0
5, 236998, Note_on_c, 1, 44, 0
5, 237053, Note_on_c, 1, 32, 64
5, 237602, Note_on_c, 1, 44, 23
5, 237746, Note_on_c, 1, 44, 0
5, 237766, Note_on_c, 1, 34, 29
5, 237950, Note_on_c, 1, 32, 0
5, 238022, Note_on_c, 1, 37, 60
5, 238088, Note_on_c, 1, 34, 0
5, 238771, Note_on_c, 1, 34, 29
5, 238980, Note_on_c, 1, 34, 0
5, 239009, Note_on_c, 1, 49, 78
5, 239020, Note_on_c, 1, 37, 0
5, 239770, Note_on_c, 1, 37, 26
5, 239787, Note_on_c, 1, 38, 62
5, 239838, Note_on_c, 1, 37, 0
5, 239877, Note_on_c, 1, 49, 0
5, 239927, Note_on_c, 1, 38, 0
5, 239987, Note_on_c, 1, 50, 66
5, 240687, Note_on_c, 1, 38, 51
5, 240773, Note_on_c, 1, 38, 0
5, 240923, Note_on_c, 1, 43, 48
5, 240925, Note_on_c, 1, 50, 0
5, 241625, Note_on_c, 1, 35, 45
5, 241802, Note_on_c, 1, 35, 0
5, 241829, Note_on_c, 1, 43, 0
5, 241867, Note_on_c, 1, 36, 45
5, 242639, Note_on_c, 1, 34, 25
5, 242836, Note_on_c, 1, 36, 0
5, 242873, Note_on_c, 1, 48, 74
5, 242909, Note_on_c, 1, 34, 0
5, 243618, Note_on_c, 1, 36, 44
5, 243700, Note_on_c, 1, 36, 0
5, 243747, Note_on_c, 1, 48, 0
5, 243856, Note_on_c, 1, 45, 66
5, 244522, Note_on_c, 1, 38, 43
5, 244580, Note_on_c, 1, 45, 0
5, 244714, Note_on_c, 1, 38, 0
5, 244789, Note_on_c, 1, 45, 68
5, 245631, Note_on_c, 1, 45, 0
5, 245736, Note_on_c, 1, 38, 59
5, 246778, Note_on_c, 1, 45, 77
5, 246818, Note_on_c, 1, 38, 0
5, 247446, Note_on_c, 1, 38, 48
5, 247516, Note_on_c, 1, 38, 0
5, 247621, Note_on_c, 1, 45, 0
5, 247682, Note_on_c, 1, 43, 44
5, 248545, Note_on_c, 1, 43, 0
5, 248595, Note_on_c, 1, 31, 54
5, 249454, Note_on_c, 1, 31, 0
5, 249550, Note_on_c, 1, 36, 50
5, 250042, Note_on_c, 1, 50, 54
5, 250774, Note_on_c, 1, 50, 0
5, 250817, Note_on_c, 1, 48, 50
5, 251334, Note_on_c, 1, 48, 0
5, 251440, Note_on_c, 1, 43, 41
5, 251587, Note_on_c, 1, 36, 0
5, 252062, Note_on_c, 1, 43, 0
5, 252180, Note_on_c, 1, 43, 53
5, 252782, Note_on_c, 1, 43, 0
5, 252926, Note_on_c, 1, 43, 38
5, 253166, Note_on_c, 1, 43, 0
5, 253757, Note_on_c, 1, 39, 76
5, 253862, Note_on_c, 1, 39, 0
5, 254452, Note_on_c, 1, 39, 69
5, 255088, Note_on_c, 1, 39, 0
5, 255331, Note_on_c, 1, 38, 66
5, 256272, Note_on_c, 1, 38, 0
5, 256298, Note_on_c, 1, 38, 62
5, 256323, Control_c, 1, 64, 127
5, 256375, Control_c, 1, 64, 0
5, 256696, Control_c, 1, 64, 127
5, 256785, Control_c, 1, 64, 0
5, 257263, Note_on_c, 1, 43, 50
5, 257278, Note_on_c, 1, 38, 0
5, 258236, Note_on_c, 1, 31, 49
5, 258743, Note_on_c, 1, 43, 0
5, 258956, Note_on_c, 1, 41, 72
5, 258964, Note_on_c, 1, 31, 0
5, 260190, Note_on_c, 1, 29, 33
5, 260432, Note_on_c, 1, 29, 0
5, 261091, Note_on_c, 1, 41, 0
5, 261100, Note_on_c, 1, 39, 59
5, 262001, Note_on_c, 1, 51, 69
5, 262103, Note_on_c, 1, 39, 0
5, 262729, Note_on_c, 1, 39, 32
5, 262795, Note_on_c, 1, 39, 0
5, 262940, Note_on_c, 1, 51, 0
5, 262983, Note_on_c, 1, 50, 58
5, 263959, Note_on_c, 1, 50, 0
5, 263994, Note_on_c, 1, 38, 57
5, 264942, Note_on_c, 1, 48, 55
5, 265044, Note_on_c, 1, 38, 0
5, 265847, Note_on_c, 1, 48, 0
5, 265897, Note_on_c, 1, 36, 61
5, 266682, Note_on_c, 1, 43, 27
5, 266781, Note_on_c, 1, 43, 0
5, 266813, Note_on_c, 1, 36, 0
5, 266880, Note_on_c, 1, 50, 83
5, 267800, Note_on_c, 1, 50, 0
5, 267840, Note_on_c, 1, 38, 56
5, 268812, Note_on_c, 1, 38, 0
5, 268814, Note_on_c, 1, 43, 47
5, 269372, Note_on_c, 1, 43, 0
5, 269561, Note_on_c, 1, 43, 36
5, 270196, Note_on_c, 1, 43, 0
5, 270231, Note_on_c, 1, 38, 60
5, 271430, Note_on_c, 1, 45, 46
5, 271522, Note_on_c, 1, 45, 0
5, 271660, Note_on_c, 1, 50, 58
5, 271877, Note_on_c, 1, 50, 0
5, 271909, Note_on_c, 1, 49, 40
5, 272029, Note_on_c, 1, 49, 0
5, 272113, Note_on_c, 1, 50, 47
5, 272440, Note_on_c, 1, 50, 0
5, 272573, Note_on_c, 1, 38, 0
5, 272624, Note_on_c, 1, 43, 39
5, 273171, Note_on_c, 1, 43, 0
5, 273313, Note_on_c, 1, 43, 27
5, 273982, Note_on_c, 1, 43, 0
5, 274057, Note_on_c, 1, 38, 56
5, 275377, Note_on_c, 1, 38, 0
5, 275475, Note_on_c, 1, 38, 57
5, 276386, Note_on_c, 1, 38, 0
5, 276431, Note_on_c, 1, 31, 49
5, 277413, Note_on_c, 1, 31, 0
5, 277428, Note_on_c, 1, 43, 47
5, 278306, Note_on_c, 1, 43, 0
5, 278378, Note_on_c, 1, 38, 46
5, 279375, Note_on_c, 1, 50, 10
5, 279522, Note_on_c, 1, 38, 0
5, 280135, Note_on_c, 1, 38, 27
5, 280169, Note_on_c, 1, 50, 0
5, 280291, Note_on_c, 1, 38, 0
5, 280337, Note_on_c, 1, 43, 27
5, 281105, Note_on_c, 1, 43, 0
5, 281228, Note_on_c, 1, 43, 10
5, 283580, Note_on_c, 1, 43, 0
5, 283628, Note_on_c, 1, 38, 1
5, 283924, Note_on_c, 1, 38, 0
5, 283924, End_track
6, 0, Start_track
6, 0, Title_t, "Drums"
6, 0, Program_c, 9, 0
6, 0, Control_c, 9, 7, 86
6, 99840, Note_on_c, 9, 36, 17
6, 99840, Note_on_c, 9, 42, 45
6, 99899, Note_on_c, 9, 42, 0
6, 100080, Note_on_c, 9, 42, 27
6, 100104, Note_on_c, 9, 36, 0
6, 100162, Note_on_c, 9, 42, 0
6, 100320, Note_on_c, 9, 46, 24
6, 100560, Note_on_c, 9, 36, 23
6, 100619, Note_on_c, 9, 36, 0
6, 100800, Note_on_c, 9, 36, 29
6, 100839, Note_on_c, 9, 46, 0
6, 101280, Note_on_c, 9, 46, 24
6, 101307, Note_on_c, 9, 36, 0
6, 101520, Note_on_c, 9, 36, 23
6, 101608, Note_on_c, 9, 36, 0
6, 101680, Note_on_c, 9, 46, 0
6, 101760, Note_on_c, 9, 36, 18
6, 102000, Note_on_c, 9, 42, 35
6, 102095, Note_on_c, 9, 42, 0
6, 102240, Note_on_c, 9, 46, 21
6, 102276, Note_on_c, 9, 36, 0
6, 102480, Note_on_c, 9, 36, 25
6, 102584, Note_on_c, 9, 36, 0
6, 102615, Note_on_c, 9, 46, 0
6, 102720, Note_on_c, 9, 36, 11
6, 103087, Note_on_c, 9, 36, 0
6, 103200, Note_on_c, 9, 38, 32
6, 103200, Note_on_c, 9, 46, 25
6, 103394, Note_on_c, 9, 38, 0
6, 103584, Note_on_c, 9, 46, 0
6, 103680, Note_on_c, 9, 36, 22
6, 103920, Note_on_c, 9, 42, 32
6, 103936, Note_on_c, 9, 36, 0
6, 103985, Note_on_c, 9, 42, 0
6, 104160, Note_on_c, 9, 46, 26
6, 104400, Note_on_c, 9, 36, 25
6, 104499, Note_on_c, 9, 46, 0
6, 104522, Note_on_c, 9, 36, 0
6, 104640, Note_on_c, 9, 36, 19
6, 104880, Note_on_c, 9, 42, 35
6, 104945, Note_on_c, 9, 42, 0
6, 105120, Note_on_c, 9, 46, 27
6, 105153, Note_on_c, 9, 36, 0
6, 105360, Note_on_c, 9, 36, 15
6, 105436, Note_on_c, 9, 36, 0
6, 105450, Note_on_c, 9, 46, 0
6, 105600, Note_on_c, 9, 36, 17
6, 105840, Note_on_c, 9, 42, 36
6, 105901, Note_on_c, 9, 42, 0
6, 106080, Note_on_c, 9, 46, 26
6, 106173, Note_on_c, 9, 36, 0
6, 106320, Note_on_c, 9, 36, 17
6, 106401, Note_on_c, 9, 36, 0
6, 106474, Note_on_c, 9, 46, 0
6, 106560, Note_on_c, 9, 36, 19
6, 106800, Note_on_c, 9, 42, 38
6, 106868, Note_on_c, 9, 42, 0
6, 107040, Note_on_c, 9, 38, 31
6, 107040, Note_on_c, 9, 46, 24
6, 107065, Note_on_c, 9, 36, 0
6, 107196, Note_on_c, 9, 38, 0
6, 107362, Note_on_c, 9, 46, 0
6, 107520, Note_on_c, 9, 36, 21
6, 107520, Note_on_c, 9, 42, 33
6, 107581, Note_on_c, 9, 42, 0
6, 107760, Note_on_c, 9, 42, 30
6, 107822, Note_on_c, 9, 42, 0
6, 107868, Note_on_c, 9, 36, 0
6, 108000, Note_on_c, 9, 46, 23
6, 108240, Note_on_c, 9, 36, 21
6, 108263, Note_on_c, 9, 46, 0
6, 108340, Note_on_c, 9, 36, 0
6, 108480, Note_on_c, 9, 36, 21
6, 108720, Note_on_c, 9, 42, 32
6, 108784, Note_on_c, 9, 42, 0
6, 108960, Note_on_c, 9, 46, 25
6, 108976, Note_on_c, 9, 36, 0
6, 109200, Note_on_c, 9, 36, 15
6, 109258, Note_on_c, 9, 46, 0
6, 109292, Note_on_c, 9, 36, 0
6, 109440, Note_on_c, 9, 36, 21
6, 109680, Note_on_c, 9, 42, 36
6, 109742, Note_on_c, 9, 42, 0
6, 109920, Note_on_c, 9, 46, 25
6, 110039, Note_on_c, 9, 36, 0
6, 110101, Note_on_c, 9, 46, 0
6, 110160, Note_on_c, 9, 36, 23
6, 110258, Note_on_c, 9, 36, 0
6, 110400, Note_on_c, 9, 36, 21
6, 110400, Note_on_c, 9, 42, 36
6, 110465, Note_on_c, 9, 42, 0
6, 110638, Note_on_c, 9, 36, 0
6, 110640, Note_on_c, 9, 38, 32
6, 110640, Note_on_c, 9, 42, 40
6, 110706, Note_on_c, 9, 42, 0
6, 110880, Note_on_c, 9, 46, 26
6, 110981, Note_on_c, 9, 38, 0
6, 111118, Note_on_c, 9, 46, 0
6, 111120, Note_on_c, 9, 36, 31
6, 111234, Note_on_c, 9, 36, 0
6, 111360, Note_on_c, 9, 36, 27
6, 111840, Note_on_c, 9, 46, 26
6, 111928, Note_on_c, 9, 36, 0
6, 111965, Note_on_c, 9, 46, 0
6, 112080, Note_on_c, 9, 36, 22
6, 112181, Note_on_c, 9, 36, 0
6, 112320, Note_on_c, 9, 36, 24
6, 112320, Note_on_c, 9, 42, 35
6, 112381, Note_on_c, 9, 42, 0
6, 112560, Note_on_c, 9, 42, 33
6, 112624, Note_on_c, 9, 42, 0
6, 112800, Note_on_c, 9, 46, 24
6, 112878, Note_on_c, 9, 36, 0
6, 112980, Note_on_c, 9, 46, 0
6, 113040, Note_on_c, 9, 36, 25
6, 113155, Note_on_c, 9, 36, 0
6, 113280, Note_on_c, 9, 36, 29
6, 113760, Note_on_c, 9, 42, 53
6, 113843, Note_on_c, 9, 42, 0
6, 113894, Note_on_c, 9, 36, 0
6, 114000, Note_on_c, 9, 36, 28
6, 114000, Note_on_c, 9, 42, 41
6, 114057, Note_on_c, 9, 42, 0
6, 114084, Note_on_c, 9, 36, 0
6, 114240, Note_on_c, 9, 36, 24
6, 114240, Note_on_c, 9, 42, 30
6, 114310, Note_on_c, 9, 42, 0
6, 114375, Note_on_c, 9, 36, 0
6, 114480, Note_on_c, 9, 36, 25
6, 114480, Note_on_c, 9, 42, 50
6, 114548, Note_on_c, 9, 42, 0
6, 114578, Note_on_c, 9, 36, 0
6, 114720, Note_on_c, 9, 38, 38
6, 114720, Note_on_c, 9, 46, 26
6, 115129, Note_on_c, 9, 38, 0
6, 115155, Note_on_c, 9, 46, 0
6, 115200, Note_on_c, 9, 36, 21
6, 115440, Note_on_c, 9, 42, 40
6, 115502, Note_on_c, 9, 42, 0
6, 115511, Note_on_c, 9, 36, 0
6, 115680, Note_on_c, 9, 46, 21
6, 115920, Note_on_c, 9, 36, 21
6, 115977, Note_on_c, 9, 46, 0
6, 116020, Note_on_c, 9, 36, 0
6, 116160, Note_on_c, 9, 36, 25
6, 116400, Note_on_c, 9, 42, 44
6, 116462, Note_on_c, 9, 42, 0
6, 116640, Note_on_c, 9, 46, 20
6, 116755, Note_on_c, 9, 36, 0
6, 116841, Note_on_c, 9, 46, 0
6, 116880, Note_on_c, 9, 36, 19
6, 116985, Note_on_c, 9, 36, 0
6, 117120, Note_on_c, 9, 36, 29
6, 117360, Note_on_c, 9, 42, 36
6, 117423, Note_on_c, 9, 42, 0
6, 117600, Note_on_c, 9, 46, 25
6, 117710, Note_on_c, 9, 36, 0
6, 117840, Note_on_c, 9, 36, 21
6, 117939, Note_on_c, 9, 46, 0
6, 117951, Note_on_c, 9, 36, 0
6, 118080, Note_on_c, 9, 36, 19
6, 118171, Note_on_c, 9, 36, 0
6, 118320, Note_on_c, 9, 36, 25
6, 118497, Note_on_c, 9, 36, 0
6, 118560, Note_on_c, 9, 38, 34
6, 118560, Note_on_c, 9, 46, 25
6, 118864, Note_on_c, 9, 46, 0
6, 118969, Note_on_c, 9, 38, 0
6, 119040, Note_on_c, 9, 36, 25
6, 119040, Note_on_c, 9, 42, 35
6, 119101, Note_on_c, 9, 42, 0
6, 119280, Note_on_c, 9, 42, 45
6, 119349, Note_on_c, 9, 42, 0
6, 119520, Note_on_c, 9, 46, 27
6, 119613, Note_on_c, 9, 36, 0
6, 119666, Note_on_c, 9, 46, 0
6, 119760, Note_on_c, 9, 36, 19
6, 119882, Note_on_c, 9, 36, 0
6, 120000, Note_on_c, 9, 36, 25
6, 120240, Note_on_c, 9, 42, 37
6, 120302, Note_on_c, 9, 42, 0
6, 120480, Note_on_c, 9, 46, 27
6, 120591, Note_on_c, 9, 36, 0
6, 120691, Note_on_c, 9, 46, 0
6, 120720, Note_on_c, 9, 36, 21
6, 120837, Note_on_c, 9, 36, 0
6, 120960, Note_on_c, 9, 36, 24
6, 120960, Note_on_c, 9, 42, 34
6, 121024, Note_on_c, 9, 42, 0
6, 121200, Note_on_c, 9, 42, 41
6, 121257, Note_on_c, 9, 42, 0
6, 121440, Note_on_c, 9, 46, 33
6, 121560, Note_on_c, 9, 46, 0
6, 121569, Note_on_c, 9, 36, 0
6, 121920, Note_on_c, 9, 36, 22
6, 122330, Note_on_c, 9, 36, 0
6, 122400, Note_on_c, 9, 38, 30
6, 122400, Note_on_c, 9, 42, 31
6, 122400, Note_on_c, 9, 46, 28
6, 122462, Note_on_c, 9, 42, 0
6, 122701, Note_on_c, 9, 38, 0
6, 122721, Note_on_c, 9, 46, 0
6, 122880, Note_on_c, 9, 36, 26
6, 123120, Note_on_c, 9, 42, 39
6, 123162, Note_on_c, 9, 36, 0
6, 123197, Note_on_c, 9, 42, 0
6, 123360, Note_on_c, 9, 46, 28
6, 123572, Note_on_c, 9, 46, 0
6, 123600, Note_on_c, 9, 36, 24
6, 123700, Note_on_c, 9, 36, 0
6, 123840, Note_on_c, 9, 36, 25
6, 124080, Note_on_c, 9, 42, 33
6, 124143, Note_on_c, 9, 42, 0
6, 124320, Note_on_c, 9, 46, 30
6, 124437, Note_on_c, 9, 36, 0
6, 124508, Note_on_c, 9, 46, 0
6, 124560, Note_on_c, 9, 36, 15
6, 124651, Note_on_c, 9, 36, 0
6, 124800, Note_on_c, 9, 36, 29
6, 125280, Note_on_c, 9, 46, 26
6, 125353, Note_on_c, 9, 36, 0
6, 125470, Note_on_c, 9, 46, 0
6, 125520, Note_on_c, 9, 36, 23
6, 125622, Note_on_c, 9, 36, 0
6, 125760, Note_on_c, 9, 36, 22
6, 125760, Note_on_c, 9, 42, 37
6, 125832, Note_on_c, 9, 42, 0
6, 126000, Note_on_c, 9, 42, 35
6, 126065, Note_on_c, 9, 42, 0
6, 126240, Note_on_c, 9, 40, 47
6, 126240, Note_on_c, 9, 46, 18
6, 126246, Note_on_c, 9, 36, 0
6, 126321, Note_on_c, 9, 46, 0
6, 126397, Note_on_c, 9, 40, 0
6, 126720, Note_on_c, 9, 36, 30
6, 126720, Note_on_c, 9, 42, 36
6, 126855, Note_on_c, 9, 42, 0
6, 127062, Note_on_c, 9, 36, 0
6, 127200, Note_on_c, 9, 46, 28
6, 127372, Note_on_c, 9, 46, 0
6, 127440, Note_on_c, 9, 36, 15
6, 127526, Note_on_c, 9, 36, 0
6, 127680, Note_on_c, 9, 36, 25
6, 127920, Note_on_c, 9, 42, 36
6, 128038, Note_on_c, 9, 42, 0
6, 128160, Note_on_c, 9, 46, 23
6, 128277, Note_on_c, 9, 36, 0
6, 128336, Note_on_c, 9, 46, 0
6, 128400, Note_on_c, 9, 36, 25
6, 128514, Note_on_c, 9, 36, 0
6, 128640, Note_on_c, 9, 36, 26
6, 129120, Note_on_c, 9, 46, 29
6, 129215, Note_on_c, 9, 36, 0
6, 129332, Note_on_c, 9, 46, 0
6, 129360, Note_on_c, 9, 36, 23
6, 129471, Note_on_c, 9, 36, 0
6, 129600, Note_on_c, 9, 36, 22
6, 129706, Note_on_c, 9, 36, 0
6, 129840, Note_on_c, 9, 42, 36
6, 129900, Note_on_c, 9, 42, 0
6, 130080, Note_on_c, 9, 40, 56
6, 130080, Note_on_c, 9, 46, 25
6, 130448, Note_on_c, 9, 46, 0
6, 130475, Note_on_c, 9, 40, 0
6, 130560, Note_on_c, 9, 36, 32
6, 130800, Note_on_c, 9, 42, 25
6, 130855, Note_on_c, 9, 42, 0
6, 130873, Note_on_c, 9, 36, 0
6, 131040, Note_on_c, 9, 46, 31
6, 131280, Note_on_c, 9, 36, 26
6, 131323, Note_on_c, 9, 46, 0
6, 131405, Note_on_c, 9, 36, 0
6, 131520, Note_on_c, 9, 36, 27
6, 131760, Note_on_c, 9, 42, 34
6, 131822, Note_on_c, 9, 42, 0
6, 132000, Note_on_c, 9, 46, 27
6, 132003, Note_on_c, 9, 36, 0
6, 132231, Note_on_c, 9, 46, 0
6, 132240, Note_on_c, 9, 36, 21
6, 132352, Note_on_c, 9, 36, 0
6, 132480, Note_on_c, 9, 36, 25
6, 132960, Note_on_c, 9, 46, 28
6, 133067, Note_on_c, 9, 36, 0
6, 133200, Note_on_c, 9, 36, 26
6, 133211, Note_on_c, 9, 46, 0
6, 133299, Note_on_c, 9, 36, 0
6, 133440, Note_on_c, 9, 36, 18
6, 133819, Note_on_c, 9, 36, 0
6, 133920, Note_on_c, 9, 40, 60
6, 133920, Note_on_c, 9, 46, 26
6, 134134, Note_on_c, 9, 46, 0
6, 134318, Note_on_c, 9, 40, 0
6, 134400, Note_on_c, 9, 36, 27
6, 134400, Note_on_c, 9, 42, 27
6, 134456, Note_on_c, 9, 42, 0
6, 134748, Note_on_c, 9, 36, 0
6, 134880, Note_on_c, 9, 46, 24
6, 135116, Note_on_c, 9, 46, 0
6, 135120, Note_on_c, 9, 36, 15
6, 135212, Note_on_c, 9, 36, 0
6, 135360, Note_on_c, 9, 36, 24
6, 135600, Note_on_c, 9, 42, 37
6, 135658, Note_on_c, 9, 42, 0
6, 135840, Note_on_c, 9, 46, 25
6, 135912, Note_on_c, 9, 36, 0
6, 136001, Note_on_c, 9, 46, 0
6, 136080, Note_on_c, 9, 36, 25
6, 136170, Note_on_c, 9, 36, 0
6, 136320, Note_on_c, 9, 36, 23
6, 136560, Note_on_c, 9, 42, 34
6, 136626, Note_on_c, 9, 42, 0
6, 136800, Note_on_c, 9, 46, 29
6, 136907, Note_on_c, 9, 36, 0
6, 137038, Note_on_c, 9, 46, 0
6, 137040, Note_on_c, 9, 36, 23
6, 137123, Note_on_c, 9, 36, 0
6, 137280, Note_on_c, 9, 36, 26
6, 137520, Note_on_c, 9, 42, 33
6, 137597, Note_on_c, 9, 42, 0
6, 137687, Note_on_c, 9, 36, 0
6, 137760, Note_on_c, 9, 40, 49
6, 137760, Note_on_c, 9, 46, 28
6, 137945, Note_on_c, 9, 46, 0
6, 138206, Note_on_c, 9, 40, 0
6, 138240, Note_on_c, 9, 36, 22
6, 138526, Note_on_c, 9, 36, 0
6, 138720, Note_on_c, 9, 46, 24
6, 138960, Note_on_c, 9, 46, 0
6, 138960, Note_on_c, 9, 36, 23
6, 139045, Note_on_c, 9, 36, 0
6, 139200, Note_on_c, 9, 36, 31
6, 139440, Note_on_c, 9, 46, 30
6, 139588, Note_on_c, 9, 46, 0
6, 139694, Note_on_c, 9, 36, 0
6, 139920, Note_on_c, 9, 36, 21
6, 139996, Note_on_c, 9, 36, 0
6, 140160, Note_on_c, 9, 36, 30
6, 140343, Note_on_c, 9, 36, 0
6, 140400, Note_on_c, 9, 40, 34
6, 140556, Note_on_c, 9, 40, 0
6, 140640, Note_on_c, 9, 46, 27
6, 140880, Note_on_c, 9, 48, 76
6, 140960, Note_on_c, 9, 46, 0
6, 141035, Note_on_c, 9, 48, 0
6, 141120, Note_on_c, 9, 48, 72
6, 141120, Note_on_c, 9, 42, 42
6, 141185, Note_on_c, 9, 42, 0
6, 141360, Note_on_c, 9, 40, 40
6, 141360, Note_on_c, 9, 46, 20
6, 141361, Note_on_c, 9, 48, 0
6, 141427, Note_on_c, 9, 46, 0
6, 141428, Note_on_c, 9, 40, 0
6, 141600, Note_on_c, 9, 45, 57
6, 141773, Note_on_c, 9, 45, 0
6, 141840, Note_on_c, 9, 36, 38
6, 141840, Note_on_c, 9, 42, 44
6, 141898, Note_on_c, 9, 42, 0
6, 141931, Note_on_c, 9, 36, 0
6, 142080, Note_on_c, 9, 36, 25
6, 142080, Note_on_c, 9, 42, 35
6, 142320, Note_on_c, 9, 42, 0
6, 142429, Note_on_c, 9, 36, 0
6, 142560, Note_on_c, 9, 42, 31
6, 142658, Note_on_c, 9, 42, 0
6, 142800, Note_on_c, 9, 36, 25
6, 142800, Note_on_c, 9, 46, 24
6, 142891, Note_on_c, 9, 36, 0
6, 142935, Note_on_c, 9, 46, 0
6, 143040, Note_on_c, 9, 36, 23
6, 143040, Note_on_c, 9, 42, 37
6, 143103, Note_on_c, 9, 42, 0
6, 143280, Note_on_c, 9, 42, 41
6, 143359, Note_on_c, 9, 36, 0
6, 143371, Note_on_c, 9, 42, 0
6, 143520, Note_on_c, 9, 40, 50
6, 143520, Note_on_c, 9, 46, 30
6, 143698, Note_on_c, 9, 46, 0
6, 143795, Note_on_c, 9, 40, 0
6, 144000, Note_on_c, 9, 36, 25
6, 144315, Note_on_c, 9, 36, 0
6, 144480, Note_on_c, 9, 46, 24
6, 144720, Note_on_c, 9, 36, 21
6, 144796, Note_on_c, 9, 46, 0
6, 144819, Note_on_c, 9, 36, 0
6, 144960, Note_on_c, 9, 36, 31
6, 145200, Note_on_c, 9, 42, 33
6, 145309, Note_on_c, 9, 42, 0
6, 145373, Note_on_c, 9, 36, 0
6, 145440, Note_on_c, 9, 46, 31
6, 145588, Note_on_c, 9, 46, 0
6, 145680, Note_on_c, 9, 36, 26
6, 145752, Note_on_c, 9, 36, 0
6, 145920, Note_on_c, 9, 36, 35
6, 145920, Note_on_c, 9, 42, 45
6, 145979, Note_on_c, 9, 42, 0
6, 146160, Note_on_c, 9, 42, 27
6, 146242, Note_on_c, 9, 42, 0
6, 146373, Note_on_c, 9, 36, 0
6, 146400, Note_on_c, 9, 46, 24
6, 146640, Note_on_c, 9, 36, 23
6, 146701, Note_on_c, 9, 36, 0
6, 146880, Note_on_c, 9, 36, 34
6, 146919, Note_on_c, 9, 46, 0
6, 147356, Note_on_c, 9, 36, 0
6, 147360, Note_on_c, 9, 40, 55
6, 147360, Note_on_c, 9, 46, 24
6, 147649, Note_on_c, 9, 40, 0
6, 147760, Note_on_c, 9, 46, 0
6, 147840, Note_on_c, 9, 36, 35
6, 148080, Note_on_c, 9, 42, 35
6, 148156, Note_on_c, 9, 36, 0
6, 148175, Note_on_c, 9, 42, 0
6, 148320, Note_on_c, 9, 46, 21
6, 148560, Note_on_c, 9, 36, 21
6, 148621, Note_on_c, 9, 36, 0
6, 148695, Note_on_c, 9, 46, 0
6, 148800, Note_on_c, 9, 36, 31
6, 149228, Note_on_c, 9, 36, 0
6, 149280, Note_on_c, 9, 46, 25
6, 149520, Note_on_c, 9, 36, 33
6, 149626, Note_on_c, 9, 36, 0
6, 149664, Note_on_c, 9, 46, 0
6, 149760, Note_on_c, 9, 36, 33
6, 150000, Note_on_c, 9, 42, 32
6, 150065, Note_on_c, 9, 42, 0
6, 150067, Note_on_c, 9, 36, 0
6, 150240, Note_on_c, 9, 46, 26
6, 150480, Note_on_c, 9, 36, 26
6, 150557, Note_on_c, 9, 36, 0
6, 150579, Note_on_c, 9, 46, 0
6, 150720, Note_on_c, 9, 36, 34
6, 150960, Note_on_c, 9, 42, 35
6, 151025, Note_on_c, 9, 42, 0
6, 151189, Note_on_c, 9, 36, 0
6, 151200, Note_on_c, 9, 40, 64
6, 151200, Note_on_c, 9, 46, 27
6, 151445, Note_on_c, 9, 40, 0
6, 151530, Note_on_c, 9, 46, 0
6, 151680, Note_on_c, 9, 36, 37
6, 151920, Note_on_c, 9, 42, 36
6, 151959, Note_on_c, 9, 36, 0
6, 151981, Note_on_c, 9, 42, 0
6, 152160, Note_on_c, 9, 46, 26
6, 152400, Note_on_c, 9, 36, 27
6, 152481, Note_on_c, 9, 36, 0
6, 152554, Note_on_c, 9, 46, 0
6, 152640, Note_on_c, 9, 36, 33
6, 152847, Note_on_c, 9, 36, 0
6, 152880, Note_on_c, 9, 42, 38
6, 152948, Note_on_c, 9, 42, 0
6, 153120, Note_on_c, 9, 46, 24
6, 153442, Note_on_c, 9, 46, 0
6, 153600, Note_on_c, 9, 36, 35
6, 153600, Note_on_c, 9, 42, 33
6, 153661, Note_on_c, 9, 42, 0
6, 153840, Note_on_c, 9, 42, 30
6, 153902, Note_on_c, 9, 42, 0
6, 154022, Note_on_c, 9, 36, 0
6, 154080, Note_on_c, 9, 46, 23
6, 154320, Note_on_c, 9, 36, 37
6, 154343, Note_on_c, 9, 46, 0
6, 154437, Note_on_c, 9, 36, 0
6, 154560, Note_on_c, 9, 36, 31
6, 154800, Note_on_c, 9, 42, 32
6, 154864, Note_on_c, 9, 42, 0
6, 154952, Note_on_c, 9, 36, 0
6, 155040, Note_on_c, 9, 46, 25
6, 155280, Note_on_c, 9, 36, 27
6, 155338, Note_on_c, 9, 46, 0
6, 155341, Note_on_c, 9, 36, 0
6, 155520, Note_on_c, 9, 36, 33
6, 155760, Note_on_c, 9, 42, 36
6, 155822, Note_on_c, 9, 42, 0
6, 155912, Note_on_c, 9, 36, 0
6, 156000, Note_on_c, 9, 46, 25
6, 156181, Note_on_c, 9, 46, 0
6, 156240, Note_on_c, 9, 36, 32
6, 156310, Note_on_c, 9, 36, 0
6, 156480, Note_on_c, 9, 36, 29
6, 156480, Note_on_c, 9, 42, 36
6, 156545, Note_on_c, 9, 42, 0
6, 156720, Note_on_c, 9, 42, 40
6, 156786, Note_on_c, 9, 42, 0
6, 156869, Note_on_c, 9, 36, 0
6, 156960, Note_on_c, 9, 40, 51
6, 156960, Note_on_c, 9, 46, 26
6, 157135, Note_on_c, 9, 40, 0
6, 157198, Note_on_c, 9, 46, 0
6, 157440, Note_on_c, 9, 36, 28
6, 157789, Note_on_c, 9, 36, 0
6, 157920, Note_on_c, 9, 46, 26
6, 158045, Note_on_c, 9, 46, 0
6, 158160, Note_on_c, 9, 36, 15
6, 158215, Note_on_c, 9, 36, 0
6, 158400, Note_on_c, 9, 36, 35
6, 158400, Note_on_c, 9, 42, 35
6, 158461, Note_on_c, 9, 42, 0
6, 158640, Note_on_c, 9, 42, 33
6, 158704, Note_on_c, 9, 42, 0
6, 158878, Note_on_c, 9, 36, 0
6, 158880, Note_on_c, 9, 46, 24
6, 159060, Note_on_c, 9, 46, 0
6, 159120, Note_on_c, 9, 36, 29
6, 159183, Note_on_c, 9, 36, 0
6, 159360, Note_on_c, 9, 36, 31
6, 159831, Note_on_c, 9, 36, 0
6, 159840, Note_on_c, 9, 42, 53
6, 159923, Note_on_c, 9, 42, 0
6, 160080, Note_on_c, 9, 36, 35
6, 160080, Note_on_c, 9, 42, 41
6, 160137, Note_on_c, 9, 42, 0
6, 160148, Note_on_c, 9, 36, 0
6, 160320, Note_on_c, 9, 36, 35
6, 160320, Note_on_c, 9, 42, 30
6, 160390, Note_on_c, 9, 42, 0
6, 160542, Note_on_c, 9, 36, 0
6, 160560, Note_on_c, 9, 40, 53
6, 160560, Note_on_c, 9, 42, 50
6, 160628, Note_on_c, 9, 42, 0
6, 160800, Note_on_c, 9, 46, 26
6, 160891, Note_on_c, 9, 40, 0
6, 161040, Note_on_c, 9, 36, 23
6, 161113, Note_on_c, 9, 36, 0
6, 161235, Note_on_c, 9, 46, 0
6, 161280, Note_on_c, 9, 36, 24
6, 161520, Note_on_c, 9, 42, 40
6, 161534, Note_on_c, 9, 36, 0
6, 161582, Note_on_c, 9, 42, 0
6, 161760, Note_on_c, 9, 46, 21
6, 162000, Note_on_c, 9, 36, 25
6, 162057, Note_on_c, 9, 46, 0
6, 162070, Note_on_c, 9, 36, 0
6, 162240, Note_on_c, 9, 36, 23
6, 162480, Note_on_c, 9, 42, 44
6, 162526, Note_on_c, 9, 36, 0
6, 162542, Note_on_c, 9, 42, 0
6, 162720, Note_on_c, 9, 46, 20
6, 162921, Note_on_c, 9, 46, 0
6, 163200, Note_on_c, 9, 36, 33
6, 163440, Note_on_c, 9, 42, 36
6, 163503, Note_on_c, 9, 42, 0
6, 163564, Note_on_c, 9, 36, 0
6, 163680, Note_on_c, 9, 46, 25
6, 163920, Note_on_c, 9, 36, 29
6, 163978, Note_on_c, 9, 36, 0
6, 164019, Note_on_c, 9, 46, 0
6, 164160, Note_on_c, 9, 36, 23
6, 164354, Note_on_c, 9, 36, 0
6, 164400, Note_on_c, 9, 40, 52
6, 164485, Note_on_c, 9, 40, 0
6, 164640, Note_on_c, 9, 36, 16
6, 164640, Note_on_c, 9, 46, 25
6, 164727, Note_on_c, 9, 36, 0
6, 164880, Note_on_c, 9, 36, 31
6, 164944, Note_on_c, 9, 46, 0
6, 164966, Note_on_c, 9, 36, 0
6, 165120, Note_on_c, 9, 36, 37
6, 165120, Note_on_c, 9, 42, 35
6, 165181, Note_on_c, 9, 42, 0
6, 165360, Note_on_c, 9, 42, 45
6, 165429, Note_on_c, 9, 42, 0
6, 165574, Note_on_c, 9, 36, 0
6, 165600, Note_on_c, 9, 46, 27
6, 165746, Note_on_c, 9, 46, 0
6, 165840, Note_on_c, 9, 36, 25
6, 165901, Note_on_c, 9, 36, 0
6, 166080, Note_on_c, 9, 36, 24
6, 166320, Note_on_c, 9, 42, 37
6, 166382, Note_on_c, 9, 42, 0
6, 166409, Note_on_c, 9, 36, 0
6, 166560, Note_on_c, 9, 46, 27
6, 166771, Note_on_c, 9, 46, 0
6, 166800, Note_on_c, 9, 36, 23
6, 166863, Note_on_c, 9, 36, 0
6, 167040, Note_on_c, 9, 36, 33
6, 167040, Note_on_c, 9, 42, 34
6, 167104, Note_on_c, 9, 42, 0
6, 167280, Note_on_c, 9, 42, 41
6, 167337, Note_on_c, 9, 42, 0
6, 167458, Note_on_c, 9, 36, 0
6, 167520, Note_on_c, 9, 46, 33
6, 167640, Note_on_c, 9, 46, 0
6, 167760, Note_on_c, 9, 36, 31
6, 167849, Note_on_c, 9, 36, 0
6, 168000, Note_on_c, 9, 36, 28
6, 168409, Note_on_c, 9, 36, 0
6, 168480, Note_on_c, 9, 40, 45
6, 168480, Note_on_c, 9, 42, 31
6, 168480, Note_on_c, 9, 46, 28
6, 168542, Note_on_c, 9, 42, 0
6, 168760, Note_on_c, 9, 40, 0
6, 168801, Note_on_c, 9, 46, 0
6, 168960, Note_on_c, 9, 36, 25
6, 169187, Note_on_c, 9, 36, 0
6, 169200, Note_on_c, 9, 42, 39
6, 169277, Note_on_c, 9, 42, 0
6, 169440, Note_on_c, 9, 46, 28
6, 169652, Note_on_c, 9, 46, 0
6, 170160, Note_on_c, 9, 42, 33
6, 170223, Note_on_c, 9, 42, 0
6, 170400, Note_on_c, 9, 46, 30
6, 170588, Note_on_c, 9, 46, 0
6, 171360, Note_on_c, 9, 46, 26
6, 171550, Note_on_c, 9, 46, 0
6, 171840, Note_on_c, 9, 42, 37
6, 171912, Note_on_c, 9, 42, 0
6, 172080, Note_on_c, 9, 42, 35
6, 172145, Note_on_c, 9, 42, 0
6, 172320, Note_on_c, 9, 46, 18
6, 172401, Note_on_c, 9, 46, 0
6, 172800, Note_on_c, 9, 42, 36
6, 172935, Note_on_c, 9, 42, 0
6, 173280, Note_on_c, 9, 46, 28
6, 173452, Note_on_c, 9, 46, 0
6, 174000, Note_on_c, 9, 42, 36
6, 174118, Note_on_c, 9, 42, 0
6, 174240, Note_on_c, 9, 46, 23
6, 174416, Note_on_c, 9, 46, 0
6, 175200, Note_on_c, 9, 46, 29
6, 175412, Note_on_c, 9, 46, 0
6, 175920, Note_on_c, 9, 42, 36
6, 175980, Note_on_c, 9, 42, 0
6, 176160, Note_on_c, 9, 46, 25
6, 176528, Note_on_c, 9, 46, 0
6, 176880, Note_on_c, 9, 42, 25
6, 176935, Note_on_c, 9, 42, 0
6, 177120, Note_on_c, 9, 46, 31
6, 177403, Note_on_c, 9, 46, 0
6, 177840, Note_on_c, 9, 42, 34
6, 177902, Note_on_c, 9, 42, 0
6, 178080, Note_on_c, 9, 46, 27
6, 178311, Note_on_c, 9, 46, 0
6, 179040, Note_on_c, 9, 46, 28
6, 179291, Note_on_c, 9, 46, 0
6, 180000, Note_on_c, 9, 46, 26
6, 180214, Note_on_c, 9, 46, 0
6, 180480, Note_on_c, 9, 42, 27
6, 180536, Note_on_c, 9, 42, 0
6, 180960, Note_on_c, 9, 46, 24
6, 181196, Note_on_c, 9, 46, 0
6, 181680, Note_on_c, 9, 42, 37
6, 181738, Note_on_c, 9, 42, 0
6, 181920, Note_on_c, 9, 46, 25
6, 182081, Note_on_c, 9, 46, 0
6, 182640, Note_on_c, 9, 42, 34
6, 182706, Note_on_c, 9, 42, 0
6, 182880, Note_on_c, 9, 46, 29
6, 183118, Note_on_c, 9, 46, 0
6, 183600, Note_on_c, 9, 42, 33
6, 183677, Note_on_c, 9, 42, 0
6, 183840, Note_on_c, 9, 46, 28
6, 184025, Note_on_c, 9, 46, 0
6, 184800, Note_on_c, 9, 46, 24
6, 185040, Note_on_c, 9, 46, 0
6, 185520, Note_on_c, 9, 46, 30
6, 185668, Note_on_c, 9, 46, 0
6, 186720, Note_on_c, 9, 46, 27
6, 187040, Note_on_c, 9, 46, 0
6, 187200, Note_on_c, 9, 42, 42
6, 187265, Note_on_c, 9, 42, 0
6, 187440, Note_on_c, 9, 46, 20
6, 187507, Note_on_c, 9, 46, 0
6, 187920, Note_on_c, 9, 42, 44
6, 187978, Note_on_c, 9, 42, 0
6, 188160, Note_on_c, 9, 42, 35
6, 188400, Note_on_c, 9, 42, 0
6, 188640, Note_on_c, 9, 42, 31
6, 188738, Note_on_c, 9, 42, 0
6, 188880, Note_on_c, 9, 46, 24
6, 189015, Note_on_c, 9, 46, 0
6, 189120, Note_on_c, 9, 42, 37
6, 189183, Note_on_c, 9, 42, 0
6, 189360, Note_on_c, 9, 42, 41
6, 189451, Note_on_c, 9, 42, 0
6, 189600, Note_on_c, 9, 46, 30
6, 189778, Note_on_c, 9, 46, 0
6, 190560, Note_on_c, 9, 46, 24
6, 190876, Note_on_c, 9, 46, 0
6, 191280, Note_on_c, 9, 42, 33
6, 191389, Note_on_c, 9, 42, 0
6, 191520, Note_on_c, 9, 46, 31
6, 191668, Note_on_c, 9, 46, 0
6, 199680, Note_on_c, 9, 51, 80
6, 199680, Note_on_c, 9, 36, 21
6, 199932, Note_on_c, 9, 51, 0
6, 199991, Note_on_c, 9, 36, 0
6, 200160, Note_on_c, 9, 51, 80
6, 200400, Note_on_c, 9, 36, 21
6, 200466, Note_on_c, 9, 51, 0
6, 200500, Note_on_c, 9, 36, 0
6, 200640, Note_on_c, 9, 51, 55
6, 200640, Note_on_c, 9, 36, 25
6, 200719, Note_on_c, 9, 51, 0
6, 200880, Note_on_c, 9, 51, 81
6, 201161, Note_on_c, 9, 51, 0
6, 201235, Note_on_c, 9, 36, 0
6, 201360, Note_on_c, 9, 51, 81
6, 201360, Note_on_c, 9, 36, 19
6, 201465, Note_on_c, 9, 36, 0
6, 201599, Note_on_c, 9, 51, 0
6, 201600, Note_on_c, 9, 36, 29
6, 201840, Note_on_c, 9, 51, 71
6, 201984, Note_on_c, 9, 51, 0
6, 202080, Note_on_c, 9, 51, 56
6, 202190, Note_on_c, 9, 36, 0
6, 202320, Note_on_c, 9, 36, 21
6, 202369, Note_on_c, 9, 51, 0
6, 202431, Note_on_c, 9, 36, 0
6, 202560, Note_on_c, 9, 51, 76
6, 202560, Note_on_c, 9, 36, 19
6, 202651, Note_on_c, 9, 36, 0
6, 202800, Note_on_c, 9, 36, 25
6, 202972, Note_on_c, 9, 51, 0
6, 202977, Note_on_c, 9, 36, 0
6, 203040, Note_on_c, 9, 51, 63
6, 203040, Note_on_c, 9, 38, 34
6, 203142, Note_on_c, 9, 51, 0
6, 203280, Note_on_c, 9, 51, 79
6, 203449, Note_on_c, 9, 38, 0
6, 203520, Note_on_c, 9, 36, 25
6, 203554, Note_on_c, 9, 51, 0
6, 203760, Note_on_c, 9, 51, 69
6, 203909, Note_on_c, 9, 51, 0
6, 204000, Note_on_c, 9, 51, 50
6, 204093, Note_on_c, 9, 36, 0
6, 204128, Note_on_c, 9, 51, 0
6, 204240, Note_on_c, 9, 36, 19
6, 204362, Note_on_c, 9, 36, 0
6, 204480, Note_on_c, 9, 51, 75
6, 204480, Note_on_c, 9, 36, 25
6, 204766, Note_on_c, 9, 51, 0
6, 204960, Note_on_c, 9, 51, 53
6, 205067, Note_on_c, 9, 51, 0
6, 205071, Note_on_c, 9, 36, 0
6, 205200, Note_on_c, 9, 51, 75
6, 205200, Note_on_c, 9, 36, 21
6, 205317, Note_on_c, 9, 36, 0
6, 205440, Note_on_c, 9, 36, 24
6, 205450, Note_on_c, 9, 51, 0
6, 205680, Note_on_c, 9, 51, 78
6, 205915, Note_on_c, 9, 51, 0
6, 206049, Note_on_c, 9, 36, 0
6, 206160, Note_on_c, 9, 51, 76
6, 206400, Note_on_c, 9, 36, 22
6, 206409, Note_on_c, 9, 51, 0
6, 206640, Note_on_c, 9, 51, 69
6, 206780, Note_on_c, 9, 51, 0
6, 206810, Note_on_c, 9, 36, 0
6, 206880, Note_on_c, 9, 51, 66
6, 206880, Note_on_c, 9, 38, 30
6, 206991, Note_on_c, 9, 51, 0
6, 207120, Note_on_c, 9, 51, 64
6, 207181, Note_on_c, 9, 38, 0
6, 207219, Note_on_c, 9, 51, 0
6, 207360, Note_on_c, 9, 51, 67
6, 207360, Note_on_c, 9, 36, 26
6, 207642, Note_on_c, 9, 36, 0
6, 207643, Note_on_c, 9, 51, 0
6, 207840, Note_on_c, 9, 51, 59
6, 207949, Note_on_c, 9, 51, 0
6, 208080, Note_on_c, 9, 51, 76
6, 208080, Note_on_c, 9, 36, 24
6, 208180, Note_on_c, 9, 36, 0
6, 208320, Note_on_c, 9, 36, 25
6, 208361, Note_on_c, 9, 51, 0
6, 208560, Note_on_c, 9, 51, 67
6, 208659, Note_on_c, 9, 51, 0
6, 208800, Note_on_c, 9, 51, 64
6, 208917, Note_on_c, 9, 36, 0
6, 209040, Note_on_c, 9, 36, 15
6, 209113, Note_on_c, 9, 51, 0
6, 209131, Note_on_c, 9, 36, 0
6, 209280, Note_on_c, 9, 36, 29
6, 209520, Note_on_c, 9, 51, 79
6, 209757, Note_on_c, 9, 51, 0
6, 209833, Note_on_c, 9, 36, 0
6, 210000, Note_on_c, 9, 51, 40
6, 210000, Note_on_c, 9, 36, 23
6, 210068, Note_on_c, 9, 51, 0
6, 210102, Note_on_c, 9, 36, 0
6, 210240, Note_on_c, 9, 51, 76
6, 210240, Note_on_c, 9, 36, 22
6, 210623, Note_on_c, 9, 51, 0
6, 210720, Note_on_c, 9, 51, 53
6, 210726, Note_on_c, 9, 36, 0
6, 210802, Note_on_c, 9, 51, 0
6, 210960, Note_on_c, 9, 51, 76
6, 211200, Note_on_c, 9, 36, 30
6, 211206, Note_on_c, 9, 51, 0
6, 211440, Note_on_c, 9, 51, 53
6, 211542, Note_on_c, 9, 36, 0
6, 211580, Note_on_c, 9, 51, 0
6, 211680, Note_on_c, 9, 51, 69
6, 211898, Note_on_c, 9, 51, 0
6, 211920, Note_on_c, 9, 36, 15
6, 212006, Note_on_c, 9, 36, 0
6, 212160, Note_on_c, 9, 51, 79
6, 212160, Note_on_c, 9, 36, 25
6, 212479, Note_on_c, 9, 51, 0
6, 212640, Note_on_c, 9, 51, 57
6, 212730, Note_on_c, 9, 51, 0
6, 212757, Note_on_c, 9, 36, 0
6, 212880, Note_on_c, 9, 51, 74
6, 212880, Note_on_c, 9, 36, 25
6, 212994, Note_on_c, 9, 36, 0
6, 213110, Note_on_c, 9, 51, 0
6, 213120, Note_on_c, 9, 36, 26
6, 213360, Note_on_c, 9, 51, 75
6, 213583, Note_on_c, 9, 51, 0
6, 213695, Note_on_c, 9, 36, 0
6, 213840, Note_on_c, 9, 51, 75
6, 213840, Note_on_c, 9, 36, 23
6, 213951, Note_on_c, 9, 36, 0
6, 213992, Note_on_c, 9, 51, 0
6, 214080, Note_on_c, 9, 36, 22
6, 214186, Note_on_c, 9, 36, 0
6, 214320, Note_on_c, 9, 51, 64
6, 214428, Note_on_c, 9, 51, 0
6, 214560, Note_on_c, 9, 51, 70
6, 214648, Note_on_c, 9, 51, 0
6, 215040, Note_on_c, 9, 51, 65
6, 215040, Note_on_c, 9, 36, 32
6, 215161, Note_on_c, 9, 51, 0
6, 215353, Note_on_c, 9, 36, 0
6, 215520, Note_on_c, 9, 51, 78
6, 215650, Note_on_c, 9, 51, 0
6, 215760, Note_on_c, 9, 36, 26
6, 215885, Note_on_c, 9, 36, 0
6, 216000, Note_on_c, 9, 51, 71
6, 216000, Note_on_c, 9, 36, 27
6, 216118, Note_on_c, 9, 51, 0
6, 216240, Note_on_c, 9, 51, 50
6, 216343, Note_on_c, 9, 51, 0
6, 216483, Note_on_c, 9, 36, 0
6, 216720, Note_on_c, 9, 51, 75
6, 216720, Note_on_c, 9, 36, 21
6, 216832, Note_on_c, 9, 36, 0
6, 216866, Note_on_c, 9, 51, 0
6, 216960, Note_on_c, 9, 36, 25
6, 217200, Note_on_c, 9, 51, 77
6, 217328, Note_on_c, 9, 51, 0
6, 217547, Note_on_c, 9, 36, 0
6, 217680, Note_on_c, 9, 51, 65
6, 217680, Note_on_c, 9, 36, 26
6, 217779, Note_on_c, 9, 36, 0
6, 217835, Note_on_c, 9, 51, 0
6, 217920, Note_on_c, 9, 51, 57
6, 217920, Note_on_c, 9, 36, 18
6, 218029, Note_on_c, 9, 51, 0
6, 218160, Note_on_c, 9, 51, 58
6, 218264, Note_on_c, 9, 51, 0
6, 218299, Note_on_c, 9, 36, 0
6, 218400, Note_on_c, 9, 51, 59
6, 218532, Note_on_c, 9, 51, 0
6, 218880, Note_on_c, 9, 51, 77
6, 218880, Note_on_c, 9, 36, 27
6, 219033, Note_on_c, 9, 51, 0
6, 219228, Note_on_c, 9, 36, 0
6, 219360, Note_on_c, 9, 51, 76
6, 219564, Note_on_c, 9, 51, 0
6, 219600, Note_on_c, 9, 36, 15
6, 219692, Note_on_c, 9, 36, 0
6, 219840, Note_on_c, 9, 51, 66
6, 219840, Note_on_c, 9, 36, 24
6, 219978, Note_on_c, 9, 51, 0
6, 220080, Note_on_c, 9, 51, 59
6, 220191, Note_on_c, 9, 51, 0
6, 220392, Note_on_c, 9, 36, 0
6, 220560, Note_on_c, 9, 51, 75
6, 220560, Note_on_c, 9, 36, 25
6, 220650, Note_on_c, 9, 36, 0
6, 220739, Note_on_c, 9, 51, 0
6, 220800, Note_on_c, 9, 36, 23
6, 221040, Note_on_c, 9, 51, 61
6, 221141, Note_on_c, 9, 51, 0
6, 221280, Note_on_c, 9, 51, 69
6, 221387, Note_on_c, 9, 36, 0
6, 221518, Note_on_c, 9, 51, 0
6, 221520, Note_on_c, 9, 36, 23
6, 221603, Note_on_c, 9, 36, 0
6, 221760, Note_on_c, 9, 51, 74
6, 221760, Note_on_c, 9, 36, 26
6, 221899, Note_on_c, 9, 51, 0
6, 222000, Note_on_c, 9, 51, 67
6, 222127, Note_on_c, 9, 51, 0
6, 222167, Note_on_c, 9, 36, 0
6, 222480, Note_on_c, 9, 51, 78
6, 222674, Note_on_c, 9, 51, 0
6, 222720, Note_on_c, 9, 36, 22
6, 222960, Note_on_c, 9, 51, 62
6, 223006, Note_on_c, 9, 36, 0
6, 223069, Note_on_c, 9, 51, 0
6, 223200, Note_on_c, 9, 51, 65
6, 223440, Note_on_c, 9, 36, 23
6, 223460, Note_on_c, 9, 51, 0
6, 223525, Note_on_c, 9, 36, 0
6, 223680, Note_on_c, 9, 51, 85
6, 223680, Note_on_c, 9, 36, 31
6, 223958, Note_on_c, 9, 51, 0
6, 224160, Note_on_c, 9, 51, 52
6, 224174, Note_on_c, 9, 36, 0
6, 224269, Note_on_c, 9, 51, 0
6, 224400, Note_on_c, 9, 51, 75
6, 224400, Note_on_c, 9, 36, 21
6, 224476, Note_on_c, 9, 36, 0
6, 224640, Note_on_c, 9, 36, 30
6, 224662, Note_on_c, 9, 51, 0
6, 224823, Note_on_c, 9, 36, 0
6, 224880, Note_on_c, 9, 51, 74
6, 224993, Note_on_c, 9, 51, 0
6, 225120, Note_on_c, 9, 51, 62
6, 225239, Note_on_c, 9, 51, 0
6, 225600, Note_on_c, 9, 51, 81
6, 225864, Note_on_c, 9, 51, 0
6, 226080, Note_on_c, 9, 51, 71
6, 226204, Note_on_c, 9, 51, 0
6, 226320, Note_on_c, 9, 51, 64
6, 226320, Note_on_c, 9, 36, 38
6, 226411, Note_on_c, 9, 36, 0
6, 226431, Note_on_c, 9, 51, 0
6, 226560, Note_on_c, 9, 51, 50
6, 226560, Note_on_c, 9, 36, 25
6, 226708, Note_on_c, 9, 51, 0
6, 226800, Note_on_c, 9, 51, 57
6, 226899, Note_on_c, 9, 51, 0
6, 226909, Note_on_c, 9, 36, 0
6, 227040, Note_on_c, 9, 51, 63
6, 227280, Note_on_c, 9, 36, 25
6, 227357, Note_on_c, 9, 51, 0
6, 227371, Note_on_c, 9, 36, 0
6, 227520, Note_on_c, 9, 51, 79
6, 227520, Note_on_c, 9, 36, 23
6, 227792, Note_on_c, 9, 51, 0
6, 227839, Note_on_c, 9, 36, 0
6, 228000, Note_on_c, 9, 51, 59
6, 228118, Note_on_c, 9, 51, 0
6, 228240, Note_on_c, 9, 51, 67
6, 228449, Note_on_c, 9, 51, 0
6, 228480, Note_on_c, 9, 36, 25
6, 228720, Note_on_c, 9, 51, 77
6, 228795, Note_on_c, 9, 36, 0
6, 228955, Note_on_c, 9, 51, 0
6, 229200, Note_on_c, 9, 51, 70
6, 229200, Note_on_c, 9, 36, 21
6, 229298, Note_on_c, 9, 51, 0
6, 229299, Note_on_c, 9, 36, 0
6, 229440, Note_on_c, 9, 51, 63
6, 229440, Note_on_c, 9, 36, 31
6, 229777, Note_on_c, 9, 51, 0
6, 229853, Note_on_c, 9, 36, 0
6, 229920, Note_on_c, 9, 51, 77
6, 230160, Note_on_c, 9, 36, 26
6, 230185, Note_on_c, 9, 51, 0
6, 230232, Note_on_c, 9, 36, 0
6, 230400, Note_on_c, 9, 51, 80
6, 230400, Note_on_c, 9, 36, 35
6, 230652, Note_on_c, 9, 51, 0
6, 230853, Note_on_c, 9, 36, 0
6, 230880, Note_on_c, 9, 51, 80
6, 231120, Note_on_c, 9, 36, 23
6, 231181, Note_on_c, 9, 36, 0
6, 231186, Note_on_c, 9, 51, 0
6, 231360, Note_on_c, 9, 51, 55
6, 231360, Note_on_c, 9, 36, 34
6, 231439, Note_on_c, 9, 51, 0
6, 231600, Note_on_c, 9, 51, 81
6, 231836, Note_on_c, 9, 36, 0
6, 231881, Note_on_c, 9, 51, 0
6, 232080, Note_on_c, 9, 51, 81
6, 232319, Note_on_c, 9, 51, 0
6, 232320, Note_on_c, 9, 36, 35
6, 232560, Note_on_c, 9, 51, 71
6, 232636, Note_on_c, 9, 36, 0
6, 232704, Note_on_c, 9, 51, 0
6, 232800, Note_on_c, 9, 51, 56
6, 233040, Note_on_c, 9, 36, 21
6, 233089, Note_on_c, 9, 51, 0
6, 233101, Note_on_c, 9, 36, 0
6, 233280, Note_on_c, 9, 51, 76
6, 233280, Note_on_c, 9, 36, 31
6, 233692, Note_on_c, 9, 51, 0
6, 233708, Note_on_c, 9, 36, 0
6, 233760, Note_on_c, 9, 51, 63
6, 233862, Note_on_c, 9, 51, 0
6, 234000, Note_on_c, 9, 51, 79
6, 234000, Note_on_c, 9, 36, 33
6, 234106, Note_on_c, 9, 36, 0
6, 234240, Note_on_c, 9, 36, 33
6, 234274, Note_on_c, 9, 51, 0
6, 234480, Note_on_c, 9, 51, 69
6, 234547, Note_on_c, 9, 36, 0
6, 234629, Note_on_c, 9, 51, 0
6, 234720, Note_on_c, 9, 51, 50
6, 234848, Note_on_c, 9, 51, 0
6, 234960, Note_on_c, 9, 36, 26
6, 235037, Note_on_c, 9, 36, 0
6, 235200, Note_on_c, 9, 51, 75
6, 235200, Note_on_c, 9, 36, 34
6, 235486, Note_on_c, 9, 51, 0
6, 235669, Note_on_c, 9, 36, 0
6, 235680, Note_on_c, 9, 51, 53
6, 235787, Note_on_c, 9, 51, 0
6, 235920, Note_on_c, 9, 51, 75
6, 236160, Note_on_c, 9, 36, 37
6, 236170, Note_on_c, 9, 51, 0
6, 236400, Note_on_c, 9, 51, 78
6, 236439, Note_on_c, 9, 36, 0
6, 236635, Note_on_c, 9, 51, 0
6, 236880, Note_on_c, 9, 51, 76
6, 236880, Note_on_c, 9, 36, 27
6, 236961, Note_on_c, 9, 36, 0
6, 237120, Note_on_c, 9, 36, 33
6, 237129, Note_on_c, 9, 51, 0
6, 237327, Note_on_c, 9, 36, 0
6, 237360, Note_on_c, 9, 51, 69
6, 237500, Note_on_c, 9, 51, 0
6, 237600, Note_on_c, 9, 51, 66
6, 237711, Note_on_c, 9, 51, 0
6, 237840, Note_on_c, 9, 51, 64
6, 237939, Note_on_c, 9, 51, 0
6, 238080, Note_on_c, 9, 51, 67
6, 238080, Note_on_c, 9, 36, 35
6, 238363, Note_on_c, 9, 51, 0
6, 238502, Note_on_c, 9, 36, 0
6, 238560, Note_on_c, 9, 51, 59
6, 238669, Note_on_c, 9, 51, 0
6, 238800, Note_on_c, 9, 51, 76
6, 238800, Note_on_c, 9, 36, 37
6, 238917, Note_on_c, 9, 36, 0
6, 239040, Note_on_c, 9, 36, 31
6, 239081, Note_on_c, 9, 51, 0
6, 239280, Note_on_c, 9, 51, 67
6, 239379, Note_on_c, 9, 51, 0
6, 239432, Note_on_c, 9, 36, 0
6, 239520, Note_on_c, 9, 51, 64
6, 239760, Note_on_c, 9, 36, 27
6, 239821, Note_on_c, 9, 36, 0
6, 239833, Note_on_c, 9, 51, 0
6, 240000, Note_on_c, 9, 36, 33
6, 240240, Note_on_c, 9, 51, 79
6, 240392, Note_on_c, 9, 36, 0
6, 240477, Note_on_c, 9, 51, 0
6, 240720, Note_on_c, 9, 51, 40
6, 240720, Note_on_c, 9, 36, 32
6, 240788, Note_on_c, 9, 51, 0
6, 240790, Note_on_c, 9, 36, 0
6, 240960, Note_on_c, 9, 51, 76
6, 240960, Note_on_c, 9, 36, 29
6, 241343, Note_on_c, 9, 51, 0
6, 241349, Note_on_c, 9, 36, 0
6, 241440, Note_on_c, 9, 51, 53
6, 241522, Note_on_c, 9, 51, 0
6, 241680, Note_on_c, 9, 51, 76
6, 241920, Note_on_c, 9, 36, 28
6, 241926, Note_on_c, 9, 51, 0
6, 242160, Note_on_c, 9, 51, 53
6, 242269, Note_on_c, 9, 36, 0
6, 242300, Note_on_c, 9, 51, 0
6, 242400, Note_on_c, 9, 51, 69
6, 242618, Note_on_c, 9, 51, 0
6, 242640, Note_on_c, 9, 36, 15
6, 242695, Note_on_c, 9, 36, 0
6, 242880, Note_on_c, 9, 51, 79
6, 242880, Note_on_c, 9, 36, 35
6, 243199, Note_on_c, 9, 51, 0
6, 243358, Note_on_c, 9, 36, 0
6, 243360, Note_on_c, 9, 51, 57
6, 243450, Note_on_c, 9, 51, 0
6, 243600, Note_on_c, 9, 51, 74
6, 243600, Note_on_c, 9, 36, 29
6, 243663, Note_on_c, 9, 36, 0
6, 243830, Note_on_c, 9, 51, 0
6, 243840, Note_on_c, 9, 36, 31
6, 244080, Note_on_c, 9, 51, 75
6, 244303, Note_on_c, 9, 51, 0
6, 244311, Note_on_c, 9, 36, 0
6, 244560, Note_on_c, 9, 51, 75
6, 244560, Note_on_c, 9, 36, 35
6, 244628, Note_on_c, 9, 36, 0
6, 244712, Note_on_c, 9, 51, 0
6, 244800, Note_on_c, 9, 36, 35
6, 245022, Note_on_c, 9, 36, 0
6, 245040, Note_on_c, 9, 51, 64
6, 245148, Note_on_c, 9, 51, 0
6, 245280, Note_on_c, 9, 51, 70
6, 245368, Note_on_c, 9, 51, 0
6, 245520, Note_on_c, 9, 36, 23
6, 245593, Note_on_c, 9, 36, 0
6, 245760, Note_on_c, 9, 51, 65
6, 245760, Note_on_c, 9, 36, 24
6, 245881, Note_on_c, 9, 51, 0
6, 246014, Note_on_c, 9, 36, 0
6, 246240, Note_on_c, 9, 51, 78
6, 246370, Note_on_c, 9, 51, 0
6, 246480, Note_on_c, 9, 36, 25
6, 246550, Note_on_c, 9, 36, 0
6, 246720, Note_on_c, 9, 51, 71
6, 246720, Note_on_c, 9, 36, 23
6, 246838, Note_on_c, 9, 51, 0
6, 246960, Note_on_c, 9, 51, 50
6, 247006, Note_on_c, 9, 36, 0
6, 247063, Note_on_c, 9, 51, 0
6, 247440, Note_on_c, 9, 51, 75
6, 247586, Note_on_c, 9, 51, 0
6, 247680, Note_on_c, 9, 36, 33
6, 247920, Note_on_c, 9, 51, 77
6, 248044, Note_on_c, 9, 36, 0
6, 248048, Note_on_c, 9, 51, 0
6, 248400, Note_on_c, 9, 51, 65
6, 248400, Note_on_c, 9, 36, 29
6, 248458, Note_on_c, 9, 36, 0
6, 248555, Note_on_c, 9, 51, 0
6, 248640, Note_on_c, 9, 51, 57
6, 248640, Note_on_c, 9, 36, 23
6, 248749, Note_on_c, 9, 51, 0
6, 248834, Note_on_c, 9, 36, 0
6, 248880, Note_on_c, 9, 51, 58
6, 248984, Note_on_c, 9, 51, 0
6, 249120, Note_on_c, 9, 51, 59
6, 249120, Note_on_c, 9, 36, 16
6, 249207, Note_on_c, 9, 36, 0
6, 249252, Note_on_c, 9, 51, 0
6, 249360, Note_on_c, 9, 36, 31
6, 249446, Note_on_c, 9, 36, 0
6, 249600, Note_on_c, 9, 51, 77
6, 249600, Note_on_c, 9, 36, 37
6, 249753, Note_on_c, 9, 51, 0
6, 250054, Note_on_c, 9, 36, 0
6, 250080, Note_on_c, 9, 51, 76
6, 250284, Note_on_c, 9, 51, 0
6, 250320, Note_on_c, 9, 36, 25
6, 250381, Note_on_c, 9, 36, 0
6, 250560, Note_on_c, 9, 51, 66
6, 250560, Note_on_c, 9, 36, 24
6, 250698, Note_on_c, 9, 51, 0
6, 250800, Note_on_c, 9, 51, 59
6, 250889, Note_on_c, 9, 36, 0
6, 250911, Note_on_c, 9, 51, 0
6, 251280, Note_on_c, 9, 51, 75
6, 251280, Note_on_c, 9, 36, 23
6, 251343, Note_on_c, 9, 36, 0
6, 251459, Note_on_c, 9, 51, 0
6, 251520, Note_on_c, 9, 36, 33
6, 251760, Note_on_c, 9, 51, 61
6, 251861, Note_on_c, 9, 51, 0
6, 251938, Note_on_c, 9, 36, 0
6, 252000, Note_on_c, 9, 51, 69
6, 252238, Note_on_c, 9, 51, 0
6, 252240, Note_on_c, 9, 36, 31
6, 252329, Note_on_c, 9, 36, 0
6, 252480, Note_on_c, 9, 51, 74
6, 252480, Note_on_c, 9, 36, 28
6, 252619, Note_on_c, 9, 51, 0
6, 252720, Note_on_c, 9, 51, 67
6, 252847, Note_on_c, 9, 51, 0
6, 252889, Note_on_c, 9, 36, 0
6, 253200, Note_on_c, 9, 51, 78
6, 253394, Note_on_c, 9, 51, 0
6, 253440, Note_on_c, 9, 36, 25
6, 253440, Note_on_c, 9, 36, 17
6, 253667, Note_on_c, 9, 36, 0
6, 253680, Note_on_c, 9, 51, 62
6, 253704, Note_on_c, 9, 36, 0
6, 253789, Note_on_c, 9, 51, 0
6, 253920, Note_on_c, 9, 51, 65
6, 254160, Note_on_c, 9, 36, 23
6, 254180, Note_on_c, 9, 51, 0
6, 254219, Note_on_c, 9, 36, 0
6, 254400, Note_on_c, 9, 51, 85
6, 254400, Note_on_c, 9, 36, 29
6, 254678, Note_on_c, 9, 51, 0
6, 254880, Note_on_c, 9, 51, 52
6, 254907, Note_on_c, 9, 36, 0
6, 254989, Note_on_c, 9, 51, 0
6, 255120, Note_on_c, 9, 51, 75
6, 255120, Note_on_c, 9, 36, 23
6, 255208, Note_on_c, 9, 36, 0
6, 255360, Note_on_c, 9, 36, 18
6, 255382, Note_on_c, 9, 51, 0
6, 255600, Note_on_c, 9, 51, 74
6, 255713, Note_on_c, 9, 51, 0
6, 255840, Note_on_c, 9, 51, 62
6, 255876, Note_on_c, 9, 36, 0
6, 255959, Note_on_c, 9, 51, 0
6, 256080, Note_on_c, 9, 36, 25
6, 256184, Note_on_c, 9, 36, 0
6, 256320, Note_on_c, 9, 51, 81
6, 256320, Note_on_c, 9, 36, 11
6, 256584, Note_on_c, 9, 51, 0
6, 256687, Note_on_c, 9, 36, 0
6, 256800, Note_on_c, 9, 51, 71
6, 256800, Note_on_c, 9, 38, 32
6, 256924, Note_on_c, 9, 51, 0
6, 256994, Note_on_c, 9, 38, 0
6, 257040, Note_on_c, 9, 51, 64
6, 257151, Note_on_c, 9, 51, 0
6, 257280, Note_on_c, 9, 51, 50
6, 257280, Note_on_c, 9, 36, 22
6, 257428, Note_on_c, 9, 51, 0
6, 257520, Note_on_c, 9, 51, 57
6, 257536, Note_on_c, 9, 36, 0
6, 257619, Note_on_c, 9, 51, 0
6, 257760, Note_on_c, 9, 51, 63
6, 258000, Note_on_c, 9, 36, 25
6, 258077, Note_on_c, 9, 51, 0
6, 258122, Note_on_c, 9, 36, 0
6, 258240, Note_on_c, 9, 51, 79
6, 258240, Note_on_c, 9, 36, 19
6, 258512, Note_on_c, 9, 51, 0
6, 258720, Note_on_c, 9, 51, 59
6, 258753, Note_on_c, 9, 36, 0
6, 258838, Note_on_c, 9, 51, 0
6, 258960, Note_on_c, 9, 51, 67
6, 258960, Note_on_c, 9, 36, 15
6, 259036, Note_on_c, 9, 36, 0
6, 259169, Note_on_c, 9, 51, 0
6, 259200, Note_on_c, 9, 36, 17
6, 259440, Note_on_c, 9, 51, 77
6, 259675, Note_on_c, 9, 51, 0
6, 259773, Note_on_c, 9, 36, 0
6, 259920, Note_on_c, 9, 51, 70
6, 259920, Note_on_c, 9, 36, 17
6, 260001, Note_on_c, 9, 36, 0
6, 260018, Note_on_c, 9, 51, 0
6, 260160, Note_on_c, 9, 51, 63
6, 260160, Note_on_c, 9, 36, 19
6, 260497, Note_on_c, 9, 51, 0
6, 260640, Note_on_c, 9, 51, 77
6, 260640, Note_on_c, 9, 38, 31
6, 260665, Note_on_c, 9, 36, 0
6, 260796, Note_on_c, 9, 38, 0
6, 260905, Note_on_c, 9, 51, 0
6, 261120, Note_on_c, 9, 51, 80
6, 261120, Note_on_c, 9, 36, 21
6, 261372, Note_on_c, 9, 51, 0
6, 261468, Note_on_c, 9, 36, 0
6, 261600, Note_on_c, 9, 51, 80
6, 261840, Note_on_c, 9, 36, 21
6, 261906, Note_on_c, 9, 51, 0
6, 261940, Note_on_c, 9, 36, 0
6, 262080, Note_on_c, 9, 51, 55
6, 262080, Note_on_c, 9, 36, 21
6, 262159, Note_on_c, 9, 51, 0
6, 262320, Note_on_c, 9, 51, 81
6, 262576, Note_on_c, 9, 36, 0
6, 262601, Note_on_c, 9, 51, 0
6, 262800, Note_on_c, 9, 51, 81
6, 262800, Note_on_c, 9, 36, 15
6, 262892, Note_on_c, 9, 36, 0
6, 263039, Note_on_c, 9, 51, 0
6, 263040, Note_on_c, 9, 36, 21
6, 263280, Note_on_c, 9, 51, 71
6, 263424, Note_on_c, 9, 51, 0
6, 263520, Note_on_c, 9, 51, 56
6, 263639, Note_on_c, 9, 36, 0
6, 263760, Note_on_c, 9, 36, 23
6, 263809, Note_on_c, 9, 51, 0
6, 263858, Note_on_c, 9, 36, 0
6, 264000, Note_on_c, 9, 51, 76
6, 264000, Note_on_c, 9, 36, 21
6, 264238, Note_on_c, 9, 36, 0
6, 264240, Note_on_c, 9, 38, 32
6, 264412, Note_on_c, 9, 51, 0
6, 264480, Note_on_c, 9, 51, 63
6, 264581, Note_on_c, 9, 38, 0
6, 264582, Note_on_c, 9, 51, 0
6, 264720, Note_on_c, 9, 51, 79
6, 264720, Note_on_c, 9, 36, 31
6, 264834, Note_on_c, 9, 36, 0
6, 264960, Note_on_c, 9, 36, 27
6, 264994, Note_on_c, 9, 51, 0
6, 265200, Note_on_c, 9, 51, 69
6, 265349, Note_on_c, 9, 51, 0
6, 265440, Note_on_c, 9, 51, 50
6, 265528, Note_on_c, 9, 36, 0
6, 265568, Note_on_c, 9, 51, 0
6, 265680, Note_on_c, 9, 36, 22
6, 265781, Note_on_c, 9, 36, 0
6, 265920, Note_on_c, 9, 51, 75
6, 265920, Note_on_c, 9, 36, 24
6, 266206, Note_on_c, 9, 51, 0
6, 266400, Note_on_c, 9, 51, 53
6, 266478, Note_on_c, 9, 36, 0
6, 266507, Note_on_c, 9, 51, 0
6, 266640, Note_on_c, 9, 51, 75
6, 266640, Note_on_c, 9, 36, 25
6, 266755, Note_on_c, 9, 36, 0
6, 266880, Note_on_c, 9, 36, 29
6, 266890, Note_on_c, 9, 51, 0
6, 267120, Note_on_c, 9, 51, 78
6, 267355, Note_on_c, 9, 51, 0
6, 267494, Note_on_c, 9, 36, 0
6, 267600, Note_on_c, 9, 51, 76
6, 267600, Note_on_c, 9, 36, 28
6, 267684, Note_on_c, 9, 36, 0
6, 267840, Note_on_c, 9, 36, 24
6, 267849, Note_on_c, 9, 51, 0
6, 267975, Note_on_c, 9, 36, 0
6, 268080, Note_on_c, 9, 51, 69
6, 268080, Note_on_c, 9, 36, 25
6, 268178, Note_on_c, 9, 36, 0
6, 268220, Note_on_c, 9, 51, 0
6, 268320, Note_on_c, 9, 51, 66
6, 268320, Note_on_c, 9, 38, 38
6, 268431, Note_on_c, 9, 51, 0
6, 268560, Note_on_c, 9, 51, 64
6, 268659, Note_on_c, 9, 51, 0
6, 268729, Note_on_c, 9, 38, 0
6, 268800, Note_on_c, 9, 51, 67
6, 268800, Note_on_c, 9, 36, 21
6, 269083, Note_on_c, 9, 51, 0
6, 269111, Note_on_c, 9, 36, 0
6, 269280, Note_on_c, 9, 51, 59
6, 269389, Note_on_c, 9, 51, 0
6, 269520, Note_on_c, 9, 51, 76
6, 269520, Note_on_c, 9, 36, 21
6, 269620, Note_on_c, 9, 36, 0
6, 269760, Note_on_c, 9, 36, 25
6, 269801, Note_on_c, 9, 51, 0
6, 270000, Note_on_c, 9, 51, 67
6, 270099, Note_on_c, 9, 51, 0
6, 270240, Note_on_c, 9, 51, 64
6, 270355, Note_on_c, 9, 36, 0
6, 270480, Note_on_c, 9, 36, 19
6, 270553, Note_on_c, 9, 51, 0
6, 270585, Note_on_c, 9, 36, 0
6, 270720, Note_on_c, 9, 36, 29
6, 270960, Note_on_c, 9, 51, 79
6, 271197, Note_on_c, 9, 51, 0
6, 271310, Note_on_c, 9, 36, 0
6, 271440, Note_on_c, 9, 51, 40
6, 271440, Note_on_c, 9, 36, 21
6, 271508, Note_on_c, 9, 51, 0
6, 271551, Note_on_c, 9, 36, 0
6, 271680, Note_on_c, 9, 51, 76
6, 271680, Note_on_c, 9, 36, 19
6, 271771, Note_on_c, 9, 36, 0
6, 271920, Note_on_c, 9, 36, 25
6, 272063, Note_on_c, 9, 51, 0
6, 272097, Note_on_c, 9, 36, 0
6, 272160, Note_on_c, 9, 51, 53
6, 272160, Note_on_c, 9, 38, 34
6, 272242, Note_on_c, 9, 51, 0
6, 272400, Note_on_c, 9, 51, 76
6, 272569, Note_on_c, 9, 38, 0
6, 272640, Note_on_c, 9, 36, 25
6, 272646, Note_on_c, 9, 51, 0
6, 272880, Note_on_c, 9, 51, 53
6, 273020, Note_on_c, 9, 51, 0
6, 273120, Note_on_c, 9, 51, 69
6, 273213, Note_on_c, 9, 36, 0
6, 273338, Note_on_c, 9, 51, 0
6, 273360, Note_on_c, 9, 36, 19
6, 273482, Note_on_c, 9, 36, 0
6, 273600, Note_on_c, 9, 51, 79
6, 273600, Note_on_c, 9, 36, 25
6, 273919, Note_on_c, 9, 51, 0
6, 274080, Note_on_c, 9, 51, 57
6, 274170, Note_on_c, 9, 51, 0
6, 274191, Note_on_c, 9, 36, 0
6, 274320, Note_on_c, 9, 51, 74
6, 274320, Note_on_c, 9, 36, 21
6, 274437, Note_on_c, 9, 36, 0
6, 274550, Note_on_c, 9, 51, 0
6, 274560, Note_on_c, 9, 36, 24
6, 274800, Note_on_c, 9, 51, 75
6, 275023, Note_on_c, 9, 51, 0
6, 275169, Note_on_c, 9, 36, 0
6, 275280, Note_on_c, 9, 51, 75
6, 275432, Note_on_c, 9, 51, 0
6, 275520, Note_on_c, 9, 36, 22
6, 275760, Note_on_c, 9, 51, 64
6, 275868, Note_on_c, 9, 51, 0
6, 275930, Note_on_c, 9, 36, 0
6, 276000, Note_on_c, 9, 51, 70
6, 276000, Note_on_c, 9, 38, 30
6, 276088, Note_on_c, 9, 51, 0
6, 276301, Note_on_c, 9, 38, 0
6, 276480, Note_on_c, 9, 51, 65
6, 276480, Note_on_c, 9, 36, 26
6, 276601, Note_on_c, 9, 51, 0
6, 276762, Note_on_c, 9, 36, 0
6, 276960, Note_on_c, 9, 51, 73
6, 277090, Note_on_c, 9, 51, 0
6, 277200, Note_on_c, 9, 36, 22
6, 277300, Note_on_c, 9, 36, 0
6, 277440, Note_on_c, 9, 51, 62
6, 277440, Note_on_c, 9, 36, 22
6, 277558, Note_on_c, 9, 51, 0
6, 277680, Note_on_c, 9, 51, 42
6, 277783, Note_on_c, 9, 51, 0
6, 278037, Note_on_c, 9, 36, 0
6, 278160, Note_on_c, 9, 51, 58
6, 278160, Note_on_c, 9, 36, 12
6, 278251, Note_on_c, 9, 36, 0
6, 278306, Note_on_c, 9, 51, 0
6, 278400, Note_on_c, 9, 36, 21
6, 278640, Note_on_c, 9, 51, 55
6, 278768, Note_on_c, 9, 51, 0
6, 278953, Note_on_c, 9, 36, 0
6, 279120, Note_on_c, 9, 51, 42
6, 279120, Note_on_c, 9, 36, 15
6, 279222, Note_on_c, 9, 36, 0
6, 279275, Note_on_c, 9, 51, 0
6, 279360, Note_on_c, 9, 51, 35
6, 279360, Note_on_c, 9, 36, 14
6, 279469, Note_on_c, 9, 51, 0
6, 279600, Note_on_c, 9, 51, 34
6, 279704, Note_on_c, 9, 51, 0
6, 279840, Note_on_c, 9, 51, 33
6, 279846, Note_on_c, 9, 36, 0
6, 279972, Note_on_c, 9, 51, 0
6, 280320, Note_on_c, 9, 51, 38
6, 280320, Note_on_c, 9, 36, 15
6, 280473, Note_on_c, 9, 51, 0
6, 280662, Note_on_c, 9, 36, 0
6, 280800, Note_on_c, 9, 51, 33
6, 281004, Note_on_c, 9, 51, 0
6, 281040, Note_on_c, 9, 36, 7
6, 281126, Note_on_c, 9, 36, 0
6, 281280, Note_on_c, 9, 51, 25
6, 281280, Note_on_c, 9, 36, 10
6, 281418, Note_on_c, 9, 51, 0
6, 281520, Note_on_c, 9, 51, 20
6, 281631, Note_on_c, 9, 51, 0
6, 281877, Note_on_c, 9, 36, 0
6, 282000, Note_on_c, 9, 51, 20
6, 282000, Note_on_c, 9, 36, 7
6, 282114, Note_on_c, 9, 36, 0
6, 282179, Note_on_c, 9, 51, 0
6, 282240, Note_on_c, 9, 36, 7
6, 282480, Note_on_c, 9, 51, 13
6, 282581, Note_on_c, 9, 51, 0
6, 282720, Note_on_c, 9, 51, 12
6, 282815, Note_on_c, 9, 36, 0
6, 282958, Note_on_c, 9, 51, 0
6, 282960, Note_on_c, 9, 36, 4
6, 283071, Note_on_c, 9, 36, 0
6, 283200, Note_on_c, 9, 51, 9
6, 283200, Note_on_c, 9, 36, 4
6, 283306, Note_on_c, 9, 36, 0
6, 283339, Note_on_c, 9, 51, 0
6, 283440, Note_on_c, 9, 51, 6
6, 283567, Note_on_c, 9, 51, 0
6, 283567, End_track
7, 0, Start_track
7, 0, Title_t, "Cakewalk TTS-1 1 Output 1"
7, 0, Control_c, 0, 7, 119
7, 0, Control_c, 0, 10, 64
7, 0, End_track
8, 0, Start_track
8, 0, Title_t, "Super Quartet  1 Output"
8, 0, Control_c, 0, 7, 101
8, 0, Control_c, 0, 10, 64
8, 0, End_track
0, 0, End_of_file
