0, 0, Header, 1, 5, 384
1, 0, Start_track
1, 0, Title_t, "Broadway2"
1, 0, Text_t, "YAMAHA DOU 10                   \012"
1, 0, SMPTE_offset, 96, 0, 3, 0, 0
1, 0, MIDI_port, 0
1, 0, System_exclusive, 10, 65, 16, 66, 18, 64, 0, 127, 0, 65, 247
1, 0, System_exclusive, 8, 67, 115, 1, 17, 15, 89, 3, 247
1, 0, MIDI_port, 0
1, 0, System_exclusive, 8, 67, 115, 1, 17, 15, 89, 0, 247
1, 0, MIDI_port, 0
1, 0, System_exclusive, 5, 126, 127, 9, 1, 247
1, 0, MIDI_port, 0
1, 0, System_exclusive, 10, 65, 16, 66, 18, 64, 0, 127, 0, 65, 247
1, 0, MIDI_port, 0
1, 0, Time_signature, 4, 2, 24, 8
1, 0, Key_signature, 0, "major"
1, 0, Tempo, 357143
1, 1536, Marker_t, "Broadway - first chorus sounds best with GS brush set available - dougmck@pipeline.com.au"
1, 1536, End_track
2, 0, Start_track
2, 0, MIDI_port, 0
2, 0, Title_t, "dougmck@pipeline.com.au"
2, 386, Program_c, 0, 0
2, 3033, Note_on_c, 0, 80, 64
2, 3054, Note_on_c, 0, 57, 40
2, 3056, Note_on_c, 0, 62, 45
2, 3065, Note_on_c, 0, 58, 48
2, 3077, Note_on_c, 0, 81, 75
2, 3083, Note_on_c, 0, 80, 0
2, 3272, Note_on_c, 0, 81, 0
2, 3300, Note_on_c, 0, 84, 88
2, 3946, Control_c, 0, 64, 127
2, 3976, Note_on_c, 0, 84, 0
2, 4110, Note_on_c, 0, 62, 0
2, 4119, Note_on_c, 0, 58, 0
2, 4156, Note_on_c, 0, 57, 0
2, 4171, Control_c, 0, 64, 0
2, 4192, Note_on_c, 0, 81, 73
2, 4207, Note_on_c, 0, 62, 47
2, 4215, Note_on_c, 0, 57, 24
2, 4220, Note_on_c, 0, 58, 45
2, 4225, Control_c, 0, 64, 127
2, 4316, Note_on_c, 0, 62, 0
2, 4420, Note_on_c, 0, 58, 0
2, 4427, Note_on_c, 0, 81, 0
2, 4503, Note_on_c, 0, 81, 14
2, 4591, Note_on_c, 0, 57, 0
2, 5414, Note_on_c, 0, 81, 0
2, 5731, Note_on_c, 0, 69, 68
2, 5855, Note_on_c, 0, 69, 0
2, 6076, Control_c, 0, 64, 0
2, 6118, Note_on_c, 0, 57, 70
2, 6120, Note_on_c, 0, 69, 88
2, 6124, Note_on_c, 0, 62, 72
2, 6126, Note_on_c, 0, 58, 61
2, 6383, Note_on_c, 0, 72, 74
2, 6393, Note_on_c, 0, 69, 0
2, 6444, Control_c, 0, 64, 127
2, 6606, Control_c, 0, 64, 0
2, 6731, Control_c, 0, 64, 127
2, 7088, Note_on_c, 0, 62, 0
2, 7128, Note_on_c, 0, 57, 0
2, 7150, Note_on_c, 0, 58, 0
2, 7237, Note_on_c, 0, 72, 0
2, 7280, Control_c, 0, 64, 0
2, 7307, Control_c, 0, 64, 127
2, 7524, Note_on_c, 0, 58, 65
2, 7531, Note_on_c, 0, 57, 58
2, 7533, Note_on_c, 0, 62, 59
2, 7537, Note_on_c, 0, 69, 43
2, 7539, Control_c, 0, 64, 0
2, 7550, Note_on_c, 0, 48, 34
2, 7553, Note_on_c, 0, 65, 44
2, 7555, Note_on_c, 0, 58, 0
2, 7562, Note_on_c, 0, 57, 0
2, 7564, Note_on_c, 0, 62, 0
2, 7575, Note_on_c, 0, 69, 0
2, 7586, Note_on_c, 0, 65, 0
2, 7597, Note_on_c, 0, 48, 0
2, 8231, Control_c, 0, 64, 127
2, 8340, Control_c, 0, 64, 0
2, 8501, Control_c, 0, 64, 127
2, 8690, Control_c, 0, 64, 0
2, 8806, Control_c, 0, 64, 127
2, 9114, Note_on_c, 0, 53, 36
2, 9130, Control_c, 0, 64, 0
2, 9148, Note_on_c, 0, 53, 0
2, 9157, Note_on_c, 0, 54, 38
2, 9190, Note_on_c, 0, 67, 40
2, 9192, Note_on_c, 0, 64, 26
2, 9195, Note_on_c, 0, 55, 58
2, 9200, Note_on_c, 0, 57, 40
2, 9201, Note_on_c, 0, 60, 43
2, 9221, Note_on_c, 0, 54, 0
2, 9371, Note_on_c, 0, 57, 0
2, 9387, Note_on_c, 0, 64, 0
2, 9391, Note_on_c, 0, 60, 0
2, 9407, Note_on_c, 0, 67, 0
2, 9457, Note_on_c, 0, 65, 55
2, 9461, Note_on_c, 0, 57, 29
2, 9461, Note_on_c, 0, 53, 57
2, 9462, Note_on_c, 0, 55, 0
2, 9491, Note_on_c, 0, 53, 0
2, 9493, Note_on_c, 0, 65, 0
2, 9495, Note_on_c, 0, 57, 0
2, 9977, Control_c, 0, 64, 127
2, 10203, Note_on_c, 0, 79, 60
2, 10204, Note_on_c, 0, 69, 63
2, 10208, Note_on_c, 0, 67, 63
2, 10213, Note_on_c, 0, 76, 39
2, 10216, Note_on_c, 0, 72, 55
2, 10267, Note_on_c, 0, 76, 0
2, 10291, Control_c, 0, 64, 0
2, 10292, Note_on_c, 0, 69, 0
2, 10298, Note_on_c, 0, 72, 0
2, 10313, Note_on_c, 0, 79, 0
2, 10317, Note_on_c, 0, 67, 0
2, 10354, Note_on_c, 0, 65, 39
2, 10372, Note_on_c, 0, 77, 41
2, 10391, Note_on_c, 0, 65, 0
2, 10443, Note_on_c, 0, 77, 0
2, 11414, Note_on_c, 0, 77, 32
2, 11477, Note_on_c, 0, 91, 83
2, 11477, Note_on_c, 0, 88, 78
2, 11479, Note_on_c, 0, 81, 80
2, 11482, Note_on_c, 0, 84, 74
2, 11484, Note_on_c, 0, 77, 0
2, 11488, Note_on_c, 0, 79, 77
2, 11759, Note_on_c, 0, 81, 0
2, 11770, Note_on_c, 0, 91, 0
2, 11773, Note_on_c, 0, 79, 0
2, 11778, Note_on_c, 0, 84, 0
2, 11795, Note_on_c, 0, 77, 46
2, 11802, Note_on_c, 0, 88, 0
2, 11858, Note_on_c, 0, 91, 68
2, 11863, Note_on_c, 0, 84, 66
2, 11865, Note_on_c, 0, 88, 64
2, 11867, Note_on_c, 0, 81, 75
2, 11879, Note_on_c, 0, 79, 56
2, 11908, Note_on_c, 0, 77, 0
2, 11909, Note_on_c, 0, 79, 0
2, 12097, Note_on_c, 0, 88, 0
2, 12112, Note_on_c, 0, 84, 0
2, 12120, Note_on_c, 0, 91, 0
2, 12144, Note_on_c, 0, 81, 0
2, 12162, Note_on_c, 0, 89, 39
2, 12200, Note_on_c, 0, 89, 0
2, 12248, Note_on_c, 0, 67, 51
2, 12260, Note_on_c, 0, 79, 62
2, 12260, Note_on_c, 0, 84, 54
2, 12262, Note_on_c, 0, 56, 44
2, 12263, Note_on_c, 0, 91, 65
2, 12270, Note_on_c, 0, 88, 52
2, 12277, Note_on_c, 0, 62, 29
2, 12278, Note_on_c, 0, 89, 44
2, 12309, Note_on_c, 0, 89, 0
2, 12422, Note_on_c, 0, 88, 0
2, 12424, Note_on_c, 0, 91, 0
2, 12427, Note_on_c, 0, 79, 0
2, 12431, Note_on_c, 0, 67, 0
2, 12449, Note_on_c, 0, 84, 0
2, 12465, Note_on_c, 0, 62, 0
2, 12513, Note_on_c, 0, 89, 62
2, 12522, Note_on_c, 0, 77, 43
2, 12530, Note_on_c, 0, 65, 47
2, 12563, Note_on_c, 0, 65, 0
2, 12564, Note_on_c, 0, 77, 0
2, 12566, Note_on_c, 0, 89, 0
2, 12609, Note_on_c, 0, 56, 0
2, 13480, Control_c, 0, 64, 127
2, 13741, Control_c, 0, 64, 0
2, 13784, Note_on_c, 0, 67, 84
2, 13785, Note_on_c, 0, 56, 62
2, 13787, Note_on_c, 0, 75, 77
2, 13795, Note_on_c, 0, 62, 61
2, 13797, Note_on_c, 0, 79, 75
2, 13817, Note_on_c, 0, 77, 42
2, 13859, Note_on_c, 0, 77, 0
2, 13939, Note_on_c, 0, 76, 57
2, 13970, Note_on_c, 0, 77, 6
2, 14041, Note_on_c, 0, 67, 0
2, 14043, Note_on_c, 0, 75, 0
2, 14058, Note_on_c, 0, 76, 0
2, 14061, Note_on_c, 0, 79, 0
2, 14063, Note_on_c, 0, 77, 0
2, 14075, Note_on_c, 0, 56, 0
2, 14081, Note_on_c, 0, 62, 0
2, 14141, Note_on_c, 0, 77, 58
2, 14143, Note_on_c, 0, 56, 45
2, 14146, Note_on_c, 0, 62, 55
2, 14148, Note_on_c, 0, 65, 57
2, 14184, Note_on_c, 0, 65, 0
2, 14200, Note_on_c, 0, 62, 0
2, 14231, Note_on_c, 0, 56, 0
2, 14296, Note_on_c, 0, 77, 0
2, 14549, Control_c, 0, 64, 127
2, 14810, Control_c, 0, 64, 0
2, 14818, Note_on_c, 0, 56, 62
2, 14823, Note_on_c, 0, 62, 67
2, 14824, Note_on_c, 0, 79, 76
2, 14833, Note_on_c, 0, 67, 71
2, 14857, Note_on_c, 0, 76, 62
2, 14894, Note_on_c, 0, 77, 20
2, 14914, Note_on_c, 0, 67, 0
2, 14926, Note_on_c, 0, 62, 0
2, 14935, Note_on_c, 0, 56, 0
2, 14944, Note_on_c, 0, 77, 0
2, 14953, Note_on_c, 0, 76, 0
2, 14956, Note_on_c, 0, 79, 0
2, 15074, Note_on_c, 0, 56, 64
2, 15076, Note_on_c, 0, 77, 74
2, 15078, Control_c, 0, 64, 127
2, 15082, Note_on_c, 0, 65, 73
2, 15103, Note_on_c, 0, 62, 40
2, 15138, Note_on_c, 0, 62, 0
2, 15165, Note_on_c, 0, 65, 0
2, 15195, Note_on_c, 0, 56, 0
2, 15201, Note_on_c, 0, 77, 0
2, 15303, Control_c, 0, 64, 0
2, 15329, Note_on_c, 0, 53, 44
2, 15336, Note_on_c, 0, 68, 60
2, 15347, Note_on_c, 0, 62, 37
2, 15351, Note_on_c, 0, 80, 27
2, 15353, Note_on_c, 0, 58, 46
2, 15355, Note_on_c, 0, 57, 51
2, 15369, Note_on_c, 0, 74, 33
2, 15402, Note_on_c, 0, 77, 13
2, 15403, Note_on_c, 0, 68, 0
2, 15410, Note_on_c, 0, 81, 33
2, 15413, Note_on_c, 0, 69, 66
2, 15458, Note_on_c, 0, 80, 0
2, 15509, Note_on_c, 0, 69, 0
2, 15528, Note_on_c, 0, 74, 0
2, 15563, Note_on_c, 0, 77, 0
2, 15576, Note_on_c, 0, 81, 0
2, 15578, Note_on_c, 0, 62, 0
2, 15594, Note_on_c, 0, 57, 0
2, 15596, Note_on_c, 0, 53, 0
2, 15611, Note_on_c, 0, 58, 0
2, 15962, Note_on_c, 0, 84, 80
2, 15963, Note_on_c, 0, 72, 79
2, 15964, Note_on_c, 0, 80, 64
2, 15966, Note_on_c, 0, 62, 70
2, 15970, Note_on_c, 0, 58, 57
2, 15971, Note_on_c, 0, 57, 58
2, 15973, Note_on_c, 0, 53, 63
2, 16074, Note_on_c, 0, 81, 51
2, 16105, Note_on_c, 0, 62, 0
2, 16112, Note_on_c, 0, 80, 0
2, 16125, Note_on_c, 0, 72, 0
2, 16135, Note_on_c, 0, 57, 0
2, 16137, Note_on_c, 0, 81, 0
2, 16145, Note_on_c, 0, 84, 0
2, 16146, Note_on_c, 0, 53, 0
2, 16163, Note_on_c, 0, 58, 0
2, 16227, Note_on_c, 0, 84, 59
2, 16233, Note_on_c, 0, 72, 36
2, 16238, Note_on_c, 0, 62, 44
2, 16239, Note_on_c, 0, 53, 30
2, 16246, Note_on_c, 0, 58, 43
2, 16247, Note_on_c, 0, 80, 55
2, 16261, Note_on_c, 0, 57, 31
2, 16326, Note_on_c, 0, 81, 27
2, 16334, Note_on_c, 0, 53, 0
2, 16352, Note_on_c, 0, 80, 0
2, 16359, Note_on_c, 0, 72, 0
2, 16402, Note_on_c, 0, 62, 0
2, 16408, Note_on_c, 0, 84, 0
2, 16420, Note_on_c, 0, 81, 0
2, 16423, Note_on_c, 0, 57, 0
2, 16432, Note_on_c, 0, 58, 0
2, 16772, Note_on_c, 0, 57, 31
2, 16775, Note_on_c, 0, 73, 56
2, 16779, Note_on_c, 0, 62, 60
2, 16783, Note_on_c, 0, 81, 42
2, 16784, Note_on_c, 0, 58, 50
2, 16786, Note_on_c, 0, 69, 48
2, 16790, Note_on_c, 0, 77, 48
2, 16816, Note_on_c, 0, 79, 24
2, 16877, Note_on_c, 0, 62, 0
2, 16885, Note_on_c, 0, 73, 0
2, 16887, Note_on_c, 0, 57, 0
2, 16898, Note_on_c, 0, 74, 38
2, 16902, Note_on_c, 0, 69, 0
2, 16937, Note_on_c, 0, 81, 0
2, 16938, Note_on_c, 0, 79, 0
2, 16940, Note_on_c, 0, 74, 0
2, 16954, Note_on_c, 0, 77, 0
2, 16967, Note_on_c, 0, 58, 0
2, 17471, Control_c, 0, 64, 127
2, 17551, Control_c, 0, 64, 0
2, 17656, Note_on_c, 0, 68, 86
2, 17660, Note_on_c, 0, 58, 80
2, 17662, Note_on_c, 0, 64, 92
2, 17663, Note_on_c, 0, 72, 82
2, 17902, Control_c, 0, 64, 127
2, 17929, Control_c, 0, 64, 0
2, 18054, Control_c, 0, 64, 127
2, 18193, Note_on_c, 0, 64, 0
2, 18266, Note_on_c, 0, 58, 0
2, 18336, Note_on_c, 0, 68, 0
2, 18344, Note_on_c, 0, 72, 0
2, 18379, Control_c, 0, 64, 0
2, 18395, Note_on_c, 0, 69, 54
2, 18397, Note_on_c, 0, 61, 48
2, 18401, Note_on_c, 0, 65, 46
2, 18411, Note_on_c, 0, 55, 35
2, 18531, Control_c, 0, 64, 127
2, 18716, Note_on_c, 0, 65, 0
2, 18772, Note_on_c, 0, 69, 0
2, 18900, Note_on_c, 0, 55, 0
2, 19156, Note_on_c, 0, 61, 0
2, 19157, Note_on_c, 0, 77, 74
2, 19158, Note_on_c, 0, 70, 63
2, 19160, Control_c, 0, 64, 0
2, 19165, Note_on_c, 0, 65, 66
2, 19166, Note_on_c, 0, 54, 64
2, 19168, Note_on_c, 0, 74, 66
2, 19279, Note_on_c, 0, 60, 64
2, 19519, Control_c, 0, 64, 127
2, 19672, Note_on_c, 0, 74, 0
2, 19673, Note_on_c, 0, 65, 0
2, 19693, Note_on_c, 0, 70, 0
2, 19698, Note_on_c, 0, 60, 0
2, 19713, Note_on_c, 0, 77, 0
2, 19824, Note_on_c, 0, 54, 0
2, 19923, Control_c, 0, 64, 0
2, 19927, Note_on_c, 0, 70, 67
2, 19928, Note_on_c, 0, 82, 60
2, 19939, Note_on_c, 0, 63, 60
2, 19943, Note_on_c, 0, 79, 58
2, 19947, Note_on_c, 0, 53, 51
2, 19950, Note_on_c, 0, 75, 51
2, 19951, Note_on_c, 0, 59, 60
2, 19961, Note_on_c, 0, 71, 43
2, 20188, Note_on_c, 0, 70, 0
2, 20298, Note_on_c, 0, 71, 0
2, 20307, Note_on_c, 0, 59, 0
2, 20318, Control_c, 0, 64, 127
2, 20337, Note_on_c, 0, 79, 0
2, 20351, Note_on_c, 0, 75, 0
2, 20362, Note_on_c, 0, 53, 0
2, 20364, Note_on_c, 0, 63, 0
2, 20402, Note_on_c, 0, 82, 0
2, 20585, Note_on_c, 0, 62, 58
2, 20586, Note_on_c, 0, 84, 63
2, 20591, Note_on_c, 0, 52, 50
2, 20591, Note_on_c, 0, 58, 44
2, 20600, Note_on_c, 0, 74, 40
2, 20606, Control_c, 0, 64, 0
2, 20616, Note_on_c, 0, 84, 0
2, 20634, Note_on_c, 0, 62, 0
2, 20634, Note_on_c, 0, 74, 0
2, 20635, Note_on_c, 0, 58, 0
2, 20637, Note_on_c, 0, 52, 0
2, 20866, Control_c, 0, 64, 127
2, 21010, Control_c, 0, 64, 0
2, 21025, Note_on_c, 0, 53, 64
2, 21091, Note_on_c, 0, 67, 57
2, 21091, Note_on_c, 0, 57, 60
2, 21095, Note_on_c, 0, 60, 64
2, 21099, Note_on_c, 0, 53, 0
2, 21100, Note_on_c, 0, 64, 38
2, 21108, Note_on_c, 0, 55, 74
2, 21116, Note_on_c, 0, 63, 27
2, 21349, Note_on_c, 0, 67, 0
2, 21352, Note_on_c, 0, 57, 0
2, 21356, Note_on_c, 0, 60, 0
2, 21362, Note_on_c, 0, 63, 0
2, 21368, Note_on_c, 0, 55, 0
2, 21372, Note_on_c, 0, 64, 0
2, 21404, Note_on_c, 0, 53, 41
2, 21445, Note_on_c, 0, 53, 0
2, 21484, Note_on_c, 0, 57, 52
2, 21485, Note_on_c, 0, 67, 39
2, 21486, Note_on_c, 0, 55, 55
2, 21499, Note_on_c, 0, 60, 45
2, 21639, Note_on_c, 0, 57, 0
2, 21657, Note_on_c, 0, 60, 0
2, 21696, Note_on_c, 0, 67, 0
2, 21734, Note_on_c, 0, 57, 38
2, 21744, Note_on_c, 0, 65, 64
2, 21750, Note_on_c, 0, 53, 59
2, 21753, Note_on_c, 0, 55, 0
2, 21772, Note_on_c, 0, 57, 0
2, 21781, Note_on_c, 0, 53, 0
2, 21792, Note_on_c, 0, 65, 0
2, 22079, Note_on_c, 0, 67, 37
2, 22081, Note_on_c, 0, 79, 77
2, 22092, Note_on_c, 0, 69, 68
2, 22118, Note_on_c, 0, 72, 46
2, 22150, Note_on_c, 0, 72, 0
2, 22190, Note_on_c, 0, 69, 0
2, 22233, Note_on_c, 0, 79, 0
2, 22249, Note_on_c, 0, 67, 0
2, 22256, Note_on_c, 0, 65, 56
2, 22279, Note_on_c, 0, 77, 57
2, 22286, Note_on_c, 0, 65, 0
2, 22323, Note_on_c, 0, 77, 0
2, 22617, Note_on_c, 0, 79, 57
2, 22621, Note_on_c, 0, 91, 73
2, 22632, Note_on_c, 0, 81, 59
2, 22645, Note_on_c, 0, 84, 48
2, 22659, Note_on_c, 0, 88, 35
2, 22703, Note_on_c, 0, 88, 0
2, 22767, Note_on_c, 0, 84, 0
2, 22784, Note_on_c, 0, 81, 0
2, 22841, Note_on_c, 0, 91, 0
2, 22874, Note_on_c, 0, 89, 66
2, 22880, Note_on_c, 0, 79, 0
2, 22892, Note_on_c, 0, 77, 35
2, 22907, Note_on_c, 0, 89, 0
2, 22934, Note_on_c, 0, 77, 0
2, 23263, Note_on_c, 0, 67, 63
2, 23274, Note_on_c, 0, 60, 71
2, 23277, Note_on_c, 0, 57, 67
2, 23280, Note_on_c, 0, 55, 58
2, 23288, Note_on_c, 0, 65, 47
2, 23296, Note_on_c, 0, 64, 42
2, 23328, Note_on_c, 0, 65, 0
2, 23344, Note_on_c, 0, 57, 0
2, 23363, Note_on_c, 0, 60, 0
2, 23388, Note_on_c, 0, 64, 0
2, 23392, Note_on_c, 0, 67, 0
2, 23399, Note_on_c, 0, 55, 0
2, 23430, Note_on_c, 0, 53, 24
2, 23666, Note_on_c, 0, 51, 36
2, 23748, Note_on_c, 0, 51, 0
2, 23774, Note_on_c, 0, 67, 44
2, 23775, Note_on_c, 0, 53, 0
2, 23777, Note_on_c, 0, 57, 60
2, 23781, Note_on_c, 0, 55, 51
2, 23787, Note_on_c, 0, 60, 54
2, 23793, Note_on_c, 0, 64, 32
2, 24032, Note_on_c, 0, 57, 0
2, 24048, Note_on_c, 0, 60, 0
2, 24092, Note_on_c, 0, 67, 0
2, 24096, Note_on_c, 0, 64, 0
2, 24141, Note_on_c, 0, 57, 40
2, 24152, Note_on_c, 0, 53, 50
2, 24158, Note_on_c, 0, 55, 0
2, 24158, Control_c, 0, 64, 127
2, 24158, Note_on_c, 0, 60, 32
2, 24159, Note_on_c, 0, 65, 50
2, 24192, Control_c, 0, 64, 0
2, 24227, Note_on_c, 0, 57, 0
2, 24386, Note_on_c, 0, 60, 0
2, 24429, Note_on_c, 0, 53, 0
2, 24433, Note_on_c, 0, 46, 29
2, 24451, Note_on_c, 0, 65, 0
2, 24476, Note_on_c, 0, 46, 0
2, 24545, Note_on_c, 0, 67, 51
2, 24554, Note_on_c, 0, 56, 51
2, 24557, Note_on_c, 0, 55, 41
2, 24565, Note_on_c, 0, 60, 55
2, 24595, Note_on_c, 0, 64, 15
2, 24720, Note_on_c, 0, 64, 0
2, 24723, Note_on_c, 0, 56, 0
2, 24725, Note_on_c, 0, 67, 0
2, 24730, Note_on_c, 0, 60, 0
2, 24798, Note_on_c, 0, 56, 51
2, 24817, Note_on_c, 0, 65, 57
2, 24819, Note_on_c, 0, 46, 46
2, 24828, Note_on_c, 0, 56, 0
2, 24848, Note_on_c, 0, 65, 0
2, 24855, Note_on_c, 0, 55, 0
2, 24857, Note_on_c, 0, 46, 0
2, 25121, Note_on_c, 0, 79, 71
2, 25122, Note_on_c, 0, 68, 75
2, 25135, Note_on_c, 0, 67, 49
2, 25144, Note_on_c, 0, 72, 53
2, 25173, Note_on_c, 0, 68, 0
2, 25175, Note_on_c, 0, 79, 0
2, 25176, Note_on_c, 0, 67, 0
2, 25177, Note_on_c, 0, 72, 0
2, 25241, Note_on_c, 0, 65, 60
2, 25331, Note_on_c, 0, 65, 0
2, 25341, Note_on_c, 0, 79, 60
2, 25347, Note_on_c, 0, 67, 62
2, 25360, Note_on_c, 0, 68, 65
2, 25363, Note_on_c, 0, 72, 64
2, 25399, Note_on_c, 0, 68, 0
2, 25400, Note_on_c, 0, 72, 0
2, 25427, Note_on_c, 0, 67, 0
2, 25476, Note_on_c, 0, 79, 0
2, 26096, Note_on_c, 0, 80, 69
2, 26104, Note_on_c, 0, 91, 59
2, 26112, Note_on_c, 0, 84, 59
2, 26113, Note_on_c, 0, 79, 68
2, 26142, Note_on_c, 0, 84, 0
2, 26150, Note_on_c, 0, 80, 0
2, 26159, Note_on_c, 0, 91, 0
2, 26191, Note_on_c, 0, 79, 0
2, 26250, Note_on_c, 0, 77, 39
2, 26324, Note_on_c, 0, 91, 78
2, 26325, Note_on_c, 0, 77, 0
2, 26326, Note_on_c, 0, 80, 71
2, 26334, Note_on_c, 0, 84, 69
2, 26339, Note_on_c, 0, 79, 74
2, 26355, Note_on_c, 0, 88, 45
2, 26398, Note_on_c, 0, 79, 0
2, 26400, Note_on_c, 0, 88, 0
2, 26414, Note_on_c, 0, 80, 0
2, 26422, Note_on_c, 0, 91, 0
2, 26427, Note_on_c, 0, 84, 0
2, 26887, Control_c, 0, 64, 127
2, 27129, Control_c, 0, 64, 0
2, 27160, Note_on_c, 0, 56, 74
2, 27161, Note_on_c, 0, 54, 53
2, 27162, Note_on_c, 0, 67, 64
2, 27170, Note_on_c, 0, 60, 64
2, 27174, Note_on_c, 0, 55, 71
2, 27181, Note_on_c, 0, 64, 46
2, 27223, Note_on_c, 0, 54, 0
2, 27641, Control_c, 0, 64, 127
2, 27751, Note_on_c, 0, 60, 0
2, 27767, Note_on_c, 0, 56, 0
2, 27793, Note_on_c, 0, 64, 0
2, 27802, Note_on_c, 0, 67, 0
2, 27900, Note_on_c, 0, 54, 37
2, 27911, Note_on_c, 0, 55, 0
2, 27929, Control_c, 0, 64, 0
2, 27956, Note_on_c, 0, 56, 27
2, 27984, Note_on_c, 0, 58, 61
2, 28007, Note_on_c, 0, 57, 58
2, 28010, Note_on_c, 0, 62, 51
2, 28011, Note_on_c, 0, 69, 28
2, 28031, Note_on_c, 0, 65, 26
2, 28035, Note_on_c, 0, 56, 0
2, 28035, Note_on_c, 0, 54, 0
2, 28122, Note_on_c, 0, 58, 0
2, 28149, Note_on_c, 0, 62, 0
2, 28153, Note_on_c, 0, 65, 0
2, 28182, Note_on_c, 0, 69, 0
2, 28273, Note_on_c, 0, 58, 50
2, 28281, Note_on_c, 0, 57, 0
2, 28289, Note_on_c, 0, 56, 26
2, 28332, Note_on_c, 0, 59, 36
2, 28348, Note_on_c, 0, 58, 0
2, 28371, Note_on_c, 0, 59, 0
2, 28383, Note_on_c, 0, 62, 48
2, 28384, Note_on_c, 0, 72, 51
2, 28386, Note_on_c, 0, 60, 73
2, 28390, Note_on_c, 0, 69, 51
2, 28397, Note_on_c, 0, 65, 48
2, 28540, Note_on_c, 0, 69, 0
2, 28555, Note_on_c, 0, 62, 0
2, 28559, Note_on_c, 0, 60, 0
2, 28561, Note_on_c, 0, 72, 0
2, 28582, Note_on_c, 0, 65, 0
2, 28596, Note_on_c, 0, 56, 0
2, 28782, Control_c, 0, 64, 127
2, 28800, Control_c, 0, 64, 0
2, 28967, Note_on_c, 0, 55, 60
2, 29000, Note_on_c, 0, 62, 64
2, 29005, Note_on_c, 0, 58, 52
2, 29009, Note_on_c, 0, 69, 56
2, 29012, Note_on_c, 0, 68, 23
2, 29013, Note_on_c, 0, 65, 55
2, 29020, Note_on_c, 0, 57, 60
2, 29061, Note_on_c, 0, 69, 0
2, 29064, Note_on_c, 0, 55, 0
2, 29115, Note_on_c, 0, 62, 0
2, 29123, Note_on_c, 0, 65, 0
2, 29154, Note_on_c, 0, 68, 0
2, 29170, Note_on_c, 0, 58, 0
2, 29189, Note_on_c, 0, 57, 0
2, 29232, Note_on_c, 0, 48, 54
2, 29269, Note_on_c, 0, 48, 0
2, 29279, Note_on_c, 0, 64, 24
2, 29309, Note_on_c, 0, 64, 0
2, 29902, Note_on_c, 0, 61, 60
2, 29904, Note_on_c, 0, 73, 69
2, 29905, Note_on_c, 0, 70, 67
2, 29908, Note_on_c, 0, 68, 65
2, 29912, Note_on_c, 0, 64, 67
2, 29977, Note_on_c, 0, 61, 0
2, 30026, Note_on_c, 0, 64, 0
2, 30047, Note_on_c, 0, 68, 0
2, 30052, Note_on_c, 0, 70, 0
2, 30059, Note_on_c, 0, 73, 0
2, 30158, Note_on_c, 0, 63, 58
2, 30159, Note_on_c, 0, 75, 76
2, 30166, Note_on_c, 0, 68, 70
2, 30172, Note_on_c, 0, 64, 64
2, 30197, Note_on_c, 0, 70, 30
2, 30212, Note_on_c, 0, 64, 0
2, 30227, Note_on_c, 0, 70, 0
2, 30241, Note_on_c, 0, 63, 0
2, 30252, Note_on_c, 0, 68, 0
2, 30268, Note_on_c, 0, 75, 0
2, 30290, Note_on_c, 0, 58, 48
2, 30294, Note_on_c, 0, 73, 37
2, 30328, Note_on_c, 0, 64, 39
2, 30426, Note_on_c, 0, 73, 0
2, 30480, Control_c, 0, 64, 127
2, 30538, Note_on_c, 0, 64, 0
2, 30575, Note_on_c, 0, 56, 38
2, 30579, Control_c, 0, 64, 0
2, 30623, Note_on_c, 0, 58, 0
2, 30675, Note_on_c, 0, 72, 41
2, 30676, Note_on_c, 0, 56, 0
2, 30679, Note_on_c, 0, 57, 49
2, 30688, Note_on_c, 0, 62, 46
2, 30688, Note_on_c, 0, 67, 44
2, 30796, Note_on_c, 0, 72, 0
2, 30831, Note_on_c, 0, 67, 0
2, 30851, Note_on_c, 0, 62, 0
2, 30944, Note_on_c, 0, 71, 64
2, 30945, Note_on_c, 0, 61, 67
2, 30946, Note_on_c, 0, 57, 0
2, 30958, Note_on_c, 0, 56, 58
2, 30962, Note_on_c, 0, 66, 47
2, 31024, Note_on_c, 0, 61, 0
2, 31029, Note_on_c, 0, 71, 0
2, 31033, Note_on_c, 0, 66, 0
2, 31089, Note_on_c, 0, 57, 50
2, 31096, Note_on_c, 0, 62, 33
2, 31097, Note_on_c, 0, 56, 0
2, 31147, Note_on_c, 0, 62, 0
2, 31274, Note_on_c, 0, 57, 0
2, 31316, Note_on_c, 0, 63, 75
2, 31318, Note_on_c, 0, 73, 71
2, 31322, Note_on_c, 0, 58, 57
2, 31331, Note_on_c, 0, 68, 67
2, 31407, Note_on_c, 0, 63, 0
2, 31438, Note_on_c, 0, 73, 0
2, 31460, Note_on_c, 0, 58, 0
2, 31476, Note_on_c, 0, 68, 0
2, 31483, Note_on_c, 0, 57, 50
2, 31507, Note_on_c, 0, 72, 25
2, 31515, Note_on_c, 0, 62, 24
2, 31538, Note_on_c, 0, 67, 15
2, 31614, Note_on_c, 0, 67, 0
2, 31632, Note_on_c, 0, 62, 0
2, 31639, Note_on_c, 0, 72, 0
2, 31788, Note_on_c, 0, 57, 0
2, 31836, Note_on_c, 0, 61, 51
2, 31837, Note_on_c, 0, 71, 55
2, 31838, Note_on_c, 0, 56, 48
2, 31846, Note_on_c, 0, 66, 52
2, 32033, Note_on_c, 0, 61, 0
2, 32038, Note_on_c, 0, 66, 0
2, 32047, Note_on_c, 0, 71, 0
2, 32102, Note_on_c, 0, 54, 34
2, 32211, Note_on_c, 0, 56, 0
2, 32214, Note_on_c, 0, 57, 58
2, 32225, Note_on_c, 0, 62, 50
2, 32230, Note_on_c, 0, 72, 51
2, 32234, Note_on_c, 0, 67, 41
2, 32244, Note_on_c, 0, 54, 0
2, 32618, Note_on_c, 0, 62, 0
2, 32638, Control_c, 0, 64, 127
2, 32693, Note_on_c, 0, 67, 0
2, 32828, Note_on_c, 0, 72, 0
2, 33000, Note_on_c, 0, 74, 89
2, 33105, Note_on_c, 0, 57, 0
2, 33232, Note_on_c, 0, 71, 53
2, 33258, Note_on_c, 0, 74, 0
2, 33309, Note_on_c, 0, 71, 0
2, 33384, Control_c, 0, 64, 0
2, 33396, Note_on_c, 0, 72, 24
2, 33499, Note_on_c, 0, 72, 0
2, 33626, Note_on_c, 0, 74, 71
2, 33737, Note_on_c, 0, 74, 0
2, 33760, Note_on_c, 0, 63, 33
2, 33761, Note_on_c, 0, 67, 32
2, 33779, Note_on_c, 0, 58, 30
2, 33779, Note_on_c, 0, 62, 24
2, 33787, Note_on_c, 0, 72, 43
2, 34380, Note_on_c, 0, 67, 0
2, 34384, Note_on_c, 0, 63, 0
2, 34411, Note_on_c, 0, 72, 0
2, 34424, Note_on_c, 0, 74, 68
2, 34468, Note_on_c, 0, 63, 23
2, 34516, Note_on_c, 0, 63, 0
2, 34526, Note_on_c, 0, 62, 0
2, 34540, Note_on_c, 0, 74, 0
2, 34601, Note_on_c, 0, 65, 38
2, 34723, Note_on_c, 0, 65, 0
2, 34951, Note_on_c, 0, 58, 0
2, 35307, Note_on_c, 0, 67, 52
2, 35310, Note_on_c, 0, 57, 55
2, 35333, Note_on_c, 0, 63, 29
2, 35344, Note_on_c, 0, 67, 0
2, 35368, Note_on_c, 0, 57, 0
2, 35370, Note_on_c, 0, 63, 0
2, 35949, Note_on_c, 0, 72, 91
2, 35955, Note_on_c, 0, 67, 63
2, 35958, Note_on_c, 0, 63, 52
2, 35976, Note_on_c, 0, 57, 47
2, 36003, Note_on_c, 0, 67, 0
2, 36043, Note_on_c, 0, 72, 0
2, 36113, Note_on_c, 0, 74, 59
2, 36133, Note_on_c, 0, 63, 0
2, 36179, Note_on_c, 0, 57, 0
2, 36291, Note_on_c, 0, 74, 0
2, 36344, Note_on_c, 0, 65, 57
2, 36351, Note_on_c, 0, 57, 45
2, 36383, Note_on_c, 0, 65, 0
2, 36452, Note_on_c, 0, 57, 0
2, 36491, Note_on_c, 0, 72, 50
2, 36642, Note_on_c, 0, 72, 0
2, 36710, Note_on_c, 0, 74, 72
2, 36717, Note_on_c, 0, 62, 38
2, 36723, Note_on_c, 0, 65, 51
2, 36739, Note_on_c, 0, 60, 36
2, 36773, Note_on_c, 0, 55, 29
2, 36807, Note_on_c, 0, 74, 0
2, 36874, Note_on_c, 0, 72, 31
2, 37369, Note_on_c, 0, 65, 0
2, 37373, Note_on_c, 0, 62, 0
2, 37452, Note_on_c, 0, 62, 34
2, 37472, Note_on_c, 0, 70, 57
2, 37492, Note_on_c, 0, 72, 0
2, 37529, Note_on_c, 0, 60, 0
2, 37538, Note_on_c, 0, 62, 0
2, 37540, Note_on_c, 0, 70, 0
2, 37606, Note_on_c, 0, 62, 25
2, 37606, Note_on_c, 0, 65, 27
2, 37609, Note_on_c, 0, 72, 48
2, 37628, Note_on_c, 0, 60, 38
2, 37754, Note_on_c, 0, 60, 0
2, 37758, Note_on_c, 0, 65, 0
2, 37783, Note_on_c, 0, 55, 0
2, 37790, Note_on_c, 0, 72, 0
2, 37804, Note_on_c, 0, 62, 0
2, 37832, Note_on_c, 0, 74, 67
2, 37910, Note_on_c, 0, 72, 15
2, 37946, Note_on_c, 0, 74, 0
2, 37950, Note_on_c, 0, 62, 25
2, 37954, Note_on_c, 0, 65, 27
2, 37970, Note_on_c, 0, 70, 59
2, 37983, Note_on_c, 0, 60, 29
2, 37993, Note_on_c, 0, 72, 0
2, 38158, Note_on_c, 0, 65, 0
2, 38193, Note_on_c, 0, 60, 0
2, 38207, Note_on_c, 0, 62, 0
2, 38243, Note_on_c, 0, 70, 0
2, 38250, Note_on_c, 0, 69, 59
2, 38311, Note_on_c, 0, 62, 34
2, 38325, Note_on_c, 0, 65, 17
2, 38336, Note_on_c, 0, 55, 24
2, 38339, Note_on_c, 0, 60, 22
2, 38341, Note_on_c, 0, 69, 0
2, 38359, Note_on_c, 0, 65, 0
2, 38370, Note_on_c, 0, 60, 0
2, 38386, Note_on_c, 0, 62, 0
2, 38387, Note_on_c, 0, 55, 0
2, 38458, Note_on_c, 0, 72, 58
2, 38489, Note_on_c, 0, 62, 33
2, 38502, Note_on_c, 0, 65, 24
2, 38515, Note_on_c, 0, 60, 22
2, 38520, Note_on_c, 0, 55, 17
2, 38576, Note_on_c, 0, 60, 0
2, 38586, Note_on_c, 0, 65, 0
2, 38606, Note_on_c, 0, 55, 0
2, 38608, Note_on_c, 0, 62, 0
2, 38741, Note_on_c, 0, 72, 0
2, 38743, Note_on_c, 0, 69, 38
2, 38745, Note_on_c, 0, 62, 32
2, 38746, Note_on_c, 0, 65, 28
2, 38774, Note_on_c, 0, 55, 26
2, 38774, Note_on_c, 0, 60, 29
2, 38823, Note_on_c, 0, 60, 0
2, 38857, Note_on_c, 0, 62, 0
2, 38882, Note_on_c, 0, 65, 0
2, 38901, Note_on_c, 0, 55, 0
2, 39000, Note_on_c, 0, 69, 0
2, 39024, Note_on_c, 0, 70, 61
2, 39027, Note_on_c, 0, 65, 37
2, 39039, Note_on_c, 0, 62, 35
2, 39053, Note_on_c, 0, 55, 30
2, 39062, Note_on_c, 0, 60, 36
2, 39072, Note_on_c, 0, 70, 0
2, 39080, Note_on_c, 0, 65, 0
2, 39094, Note_on_c, 0, 60, 0
2, 39113, Note_on_c, 0, 55, 0
2, 39117, Note_on_c, 0, 62, 0
2, 39554, Control_c, 0, 64, 127
2, 39860, Control_c, 0, 64, 0
2, 39907, Note_on_c, 0, 82, 55
2, 39907, Note_on_c, 0, 65, 33
2, 39911, Note_on_c, 0, 61, 40
2, 39916, Note_on_c, 0, 70, 36
2, 39919, Note_on_c, 0, 60, 30
2, 39924, Note_on_c, 0, 56, 21
2, 39965, Note_on_c, 0, 60, 0
2, 39973, Note_on_c, 0, 65, 0
2, 39983, Note_on_c, 0, 70, 0
2, 39984, Note_on_c, 0, 56, 0
2, 40002, Note_on_c, 0, 61, 0
2, 40032, Note_on_c, 0, 82, 0
2, 40286, Note_on_c, 0, 56, 51
2, 40290, Note_on_c, 0, 84, 75
2, 40291, Note_on_c, 0, 65, 59
2, 40296, Note_on_c, 0, 60, 57
2, 40297, Note_on_c, 0, 61, 42
2, 40298, Note_on_c, 0, 72, 60
2, 40318, Note_on_c, 0, 74, 33
2, 40352, Note_on_c, 0, 74, 0
2, 40516, Control_c, 0, 64, 127
2, 40647, Note_on_c, 0, 84, 0
2, 40694, Note_on_c, 0, 72, 0
2, 40698, Note_on_c, 0, 65, 0
2, 40706, Note_on_c, 0, 60, 0
2, 40759, Note_on_c, 0, 61, 0
2, 40866, Note_on_c, 0, 56, 0
2, 40952, Note_on_c, 0, 63, 57
2, 40959, Note_on_c, 0, 75, 53
2, 40974, Control_c, 0, 64, 0
2, 40980, Note_on_c, 0, 61, 39
2, 40981, Note_on_c, 0, 64, 46
2, 40983, Note_on_c, 0, 63, 0
2, 40998, Note_on_c, 0, 55, 29
2, 41016, Note_on_c, 0, 64, 0
2, 41018, Note_on_c, 0, 75, 0
2, 41043, Note_on_c, 0, 61, 0
2, 41044, Note_on_c, 0, 55, 0
2, 41476, Control_c, 0, 64, 127
2, 41647, Control_c, 0, 64, 0
2, 41683, Note_on_c, 0, 82, 67
2, 41685, Note_on_c, 0, 70, 65
2, 41687, Note_on_c, 0, 60, 55
2, 41688, Note_on_c, 0, 65, 53
2, 41693, Note_on_c, 0, 56, 32
2, 41699, Note_on_c, 0, 61, 27
2, 41718, Note_on_c, 0, 60, 0
2, 41721, Note_on_c, 0, 65, 0
2, 41732, Note_on_c, 0, 56, 0
2, 41732, Note_on_c, 0, 70, 0
2, 41754, Note_on_c, 0, 82, 0
2, 41755, Note_on_c, 0, 61, 0
2, 41922, Note_on_c, 0, 56, 67
2, 41923, Note_on_c, 0, 65, 68
2, 41925, Note_on_c, 0, 84, 76
2, 41932, Note_on_c, 0, 61, 45
2, 41941, Note_on_c, 0, 72, 68
2, 41947, Note_on_c, 0, 60, 36
2, 41971, Control_c, 0, 64, 127
2, 41977, Note_on_c, 0, 60, 0
2, 41984, Note_on_c, 0, 72, 0
2, 41989, Note_on_c, 0, 84, 0
2, 42069, Note_on_c, 0, 65, 0
2, 42122, Note_on_c, 0, 61, 0
2, 42132, Control_c, 0, 64, 0
2, 42144, Note_on_c, 0, 56, 0
2, 42233, Note_on_c, 0, 61, 38
2, 42235, Note_on_c, 0, 75, 62
2, 42240, Note_on_c, 0, 55, 52
2, 42244, Note_on_c, 0, 63, 47
2, 42281, Note_on_c, 0, 63, 0
2, 42282, Note_on_c, 0, 55, 0
2, 42303, Control_c, 0, 64, 127
2, 42308, Note_on_c, 0, 61, 0
2, 42312, Note_on_c, 0, 75, 0
2, 42491, Control_c, 0, 64, 0
2, 42499, Note_on_c, 0, 61, 61
2, 42500, Note_on_c, 0, 70, 67
2, 42507, Note_on_c, 0, 82, 60
2, 42522, Note_on_c, 0, 55, 44
2, 42534, Note_on_c, 0, 70, 0
2, 42539, Note_on_c, 0, 82, 0
2, 42558, Note_on_c, 0, 55, 0
2, 42578, Note_on_c, 0, 61, 0
2, 42729, Note_on_c, 0, 61, 50
2, 42759, Note_on_c, 0, 84, 75
2, 42764, Note_on_c, 0, 55, 30
2, 42771, Note_on_c, 0, 72, 66
2, 42800, Note_on_c, 0, 55, 0
2, 42815, Control_c, 0, 64, 127
2, 42819, Note_on_c, 0, 61, 0
2, 42834, Note_on_c, 0, 84, 0
2, 42840, Note_on_c, 0, 72, 0
2, 42950, Control_c, 0, 64, 0
2, 42987, Note_on_c, 0, 63, 56
2, 42990, Note_on_c, 0, 82, 67
2, 42996, Note_on_c, 0, 70, 64
2, 43005, Note_on_c, 0, 58, 48
2, 43008, Note_on_c, 0, 53, 37
2, 43016, Note_on_c, 0, 75, 48
2, 43035, Note_on_c, 0, 79, 31
2, 43372, Control_c, 0, 64, 127
2, 43465, Note_on_c, 0, 79, 0
2, 43467, Note_on_c, 0, 53, 0
2, 43490, Note_on_c, 0, 82, 0
2, 43502, Note_on_c, 0, 70, 0
2, 43513, Note_on_c, 0, 63, 0
2, 43532, Note_on_c, 0, 75, 0
2, 43544, Note_on_c, 0, 58, 0
2, 43606, Control_c, 0, 64, 0
2, 43619, Note_on_c, 0, 80, 49
2, 43621, Note_on_c, 0, 68, 54
2, 43631, Note_on_c, 0, 75, 52
2, 43635, Note_on_c, 0, 63, 54
2, 43646, Note_on_c, 0, 58, 49
2, 43655, Note_on_c, 0, 53, 40
2, 43758, Control_c, 0, 64, 127
2, 44038, Note_on_c, 0, 53, 0
2, 44052, Note_on_c, 0, 63, 0
2, 44087, Note_on_c, 0, 68, 0
2, 44126, Note_on_c, 0, 58, 0
2, 44126, Note_on_c, 0, 75, 0
2, 44129, Note_on_c, 0, 80, 0
2, 44450, Control_c, 0, 64, 0
2, 44531, Control_c, 0, 64, 127
2, 44827, Control_c, 0, 64, 0
2, 44879, Note_on_c, 0, 81, 91
2, 44881, Note_on_c, 0, 78, 76
2, 44882, Note_on_c, 0, 69, 95
2, 44887, Note_on_c, 0, 74, 82
2, 44892, Note_on_c, 0, 58, 81
2, 44972, Note_on_c, 0, 64, 85
2, 45285, Control_c, 0, 64, 127
2, 45378, Note_on_c, 0, 74, 0
2, 45387, Note_on_c, 0, 81, 0
2, 45402, Note_on_c, 0, 64, 0
2, 45415, Note_on_c, 0, 58, 0
2, 45418, Note_on_c, 0, 78, 0
2, 45419, Note_on_c, 0, 69, 0
2, 45559, Note_on_c, 0, 67, 57
2, 45563, Note_on_c, 0, 79, 50
2, 45579, Note_on_c, 0, 58, 53
2, 45584, Note_on_c, 0, 64, 50
2, 45592, Note_on_c, 0, 76, 30
2, 45593, Note_on_c, 0, 72, 36
2, 45600, Control_c, 0, 64, 0
2, 45609, Note_on_c, 0, 77, 19
2, 45659, Note_on_c, 0, 77, 0
2, 45788, Control_c, 0, 64, 127
2, 45826, Note_on_c, 0, 72, 0
2, 45841, Note_on_c, 0, 67, 0
2, 45843, Note_on_c, 0, 76, 0
2, 45894, Note_on_c, 0, 79, 0
2, 45896, Note_on_c, 0, 58, 0
2, 45900, Note_on_c, 0, 64, 0
2, 46041, Control_c, 0, 64, 0
2, 46124, Note_on_c, 0, 68, 95
2, 46127, Note_on_c, 0, 67, 77
2, 46130, Note_on_c, 0, 79, 88
2, 46131, Note_on_c, 0, 78, 29
2, 46133, Note_on_c, 0, 71, 85
2, 46141, Note_on_c, 0, 74, 76
2, 46192, Note_on_c, 0, 78, 0
2, 46480, Control_c, 0, 64, 127
2, 46522, Note_on_c, 0, 79, 0
2, 46543, Note_on_c, 0, 71, 0
2, 46555, Note_on_c, 0, 74, 0
2, 46614, Note_on_c, 0, 67, 0
2, 46622, Note_on_c, 0, 68, 0
2, 46710, Note_on_c, 0, 78, 32
2, 46731, Control_c, 0, 64, 0
2, 46737, Note_on_c, 0, 77, 75
2, 46740, Note_on_c, 0, 78, 0
2, 46740, Note_on_c, 0, 65, 77
2, 46747, Note_on_c, 0, 66, 79
2, 46750, Note_on_c, 0, 73, 57
2, 46756, Note_on_c, 0, 69, 74
2, 46774, Note_on_c, 0, 75, 36
2, 46877, Note_on_c, 0, 75, 0
2, 46877, Note_on_c, 0, 77, 0
2, 46888, Note_on_c, 0, 65, 0
2, 46891, Note_on_c, 0, 73, 0
2, 46919, Note_on_c, 0, 69, 0
2, 46961, Note_on_c, 0, 65, 54
2, 46966, Note_on_c, 0, 66, 0
2, 47025, Note_on_c, 0, 65, 0
2, 47033, Note_on_c, 0, 64, 60
2, 47064, Note_on_c, 0, 64, 0
2, 47083, Note_on_c, 0, 62, 58
2, 47113, Note_on_c, 0, 62, 0
2, 47141, Note_on_c, 0, 60, 43
2, 47172, Note_on_c, 0, 60, 0
2, 47206, Note_on_c, 0, 59, 26
2, 47238, Note_on_c, 0, 59, 0
2, 47773, Note_on_c, 0, 51, 31
2, 47822, Note_on_c, 0, 52, 62
2, 47828, Note_on_c, 0, 51, 0
2, 47851, Note_on_c, 0, 57, 58
2, 47851, Note_on_c, 0, 65, 59
2, 47857, Note_on_c, 0, 54, 49
2, 47872, Note_on_c, 0, 53, 51
2, 47878, Note_on_c, 0, 60, 48
2, 47912, Note_on_c, 0, 63, 21
2, 47913, Note_on_c, 0, 52, 0
2, 47987, Note_on_c, 0, 65, 0
2, 48006, Note_on_c, 0, 63, 0
2, 48031, Note_on_c, 0, 54, 0
2, 48048, Note_on_c, 0, 60, 0
2, 48063, Note_on_c, 0, 57, 0
2, 48096, Note_on_c, 0, 53, 0
2, 48105, Note_on_c, 0, 54, 47
2, 48120, Note_on_c, 0, 64, 51
2, 48122, Note_on_c, 0, 57, 24
2, 48127, Note_on_c, 0, 52, 49
2, 48160, Note_on_c, 0, 54, 0
2, 48163, Note_on_c, 0, 60, 24
2, 48166, Note_on_c, 0, 52, 0
2, 48187, Note_on_c, 0, 57, 0
2, 48203, Note_on_c, 0, 60, 0
2, 48251, Note_on_c, 0, 64, 0
2, 49546, Control_c, 0, 64, 127
2, 49762, Control_c, 0, 64, 0
2, 50666, Note_on_c, 0, 68, 74
2, 50668, Note_on_c, 0, 79, 64
2, 50674, Note_on_c, 0, 72, 64
2, 50677, Note_on_c, 0, 65, 58
2, 50680, Note_on_c, 0, 58, 42
2, 50684, Note_on_c, 0, 76, 40
2, 50723, Note_on_c, 0, 68, 0
2, 50729, Note_on_c, 0, 65, 0
2, 50750, Note_on_c, 0, 72, 0
2, 50763, Note_on_c, 0, 58, 0
2, 50774, Note_on_c, 0, 79, 0
2, 50775, Note_on_c, 0, 76, 0
2, 51090, Control_c, 0, 64, 127
2, 51315, Control_c, 0, 64, 0
2, 51429, Note_on_c, 0, 79, 63
2, 51430, Note_on_c, 0, 56, 47
2, 51432, Note_on_c, 0, 68, 65
2, 51435, Note_on_c, 0, 72, 59
2, 51435, Note_on_c, 0, 62, 54
2, 51453, Note_on_c, 0, 76, 31
2, 51555, Note_on_c, 0, 76, 0
2, 51593, Note_on_c, 0, 79, 0
2, 51634, Note_on_c, 0, 56, 0
2, 51636, Note_on_c, 0, 72, 0
2, 51657, Control_c, 0, 64, 127
2, 51684, Control_c, 0, 64, 0
2, 51692, Note_on_c, 0, 77, 57
2, 51707, Note_on_c, 0, 56, 43
2, 51735, Note_on_c, 0, 68, 0
2, 51779, Note_on_c, 0, 62, 0
2, 51786, Note_on_c, 0, 77, 0
2, 51821, Note_on_c, 0, 56, 0
2, 52078, Note_on_c, 0, 81, 62
2, 52087, Note_on_c, 0, 69, 53
2, 52088, Note_on_c, 0, 74, 54
2, 52090, Note_on_c, 0, 57, 58
2, 52093, Note_on_c, 0, 77, 48
2, 52095, Note_on_c, 0, 62, 54
2, 52098, Note_on_c, 0, 58, 39
2, 52116, Note_on_c, 0, 69, 0
2, 52118, Note_on_c, 0, 74, 0
2, 52128, Note_on_c, 0, 77, 0
2, 52128, Note_on_c, 0, 57, 0
2, 52130, Note_on_c, 0, 62, 0
2, 52149, Note_on_c, 0, 58, 0
2, 52161, Note_on_c, 0, 81, 0
2, 52470, Note_on_c, 0, 72, 82
2, 52472, Note_on_c, 0, 84, 81
2, 52473, Note_on_c, 0, 80, 69
2, 52483, Note_on_c, 0, 57, 70
2, 52484, Note_on_c, 0, 78, 51
2, 52485, Note_on_c, 0, 58, 60
2, 52486, Note_on_c, 0, 62, 71
2, 52514, Note_on_c, 0, 78, 0
2, 52575, Note_on_c, 0, 81, 46
2, 52580, Note_on_c, 0, 80, 0
2, 52690, Control_c, 0, 64, 127
2, 52749, Note_on_c, 0, 84, 0
2, 52770, Note_on_c, 0, 81, 0
2, 52815, Note_on_c, 0, 72, 0
2, 52894, Note_on_c, 0, 62, 0
2, 52906, Control_c, 0, 64, 0
2, 52915, Note_on_c, 0, 58, 0
2, 52937, Note_on_c, 0, 57, 0
2, 52988, Note_on_c, 0, 73, 56
2, 52990, Note_on_c, 0, 62, 49
2, 52994, Note_on_c, 0, 69, 57
2, 52997, Note_on_c, 0, 81, 53
2, 52999, Note_on_c, 0, 57, 36
2, 53002, Note_on_c, 0, 58, 43
2, 53026, Note_on_c, 0, 77, 36
2, 53155, Note_on_c, 0, 73, 0
2, 53168, Note_on_c, 0, 74, 41
2, 53190, Note_on_c, 0, 69, 0
2, 53235, Note_on_c, 0, 57, 0
2, 53236, Note_on_c, 0, 62, 0
2, 53236, Note_on_c, 0, 74, 0
2, 53255, Note_on_c, 0, 77, 0
2, 53282, Note_on_c, 0, 58, 0
2, 53289, Note_on_c, 0, 81, 0
2, 54094, Note_on_c, 0, 63, 78
2, 54097, Note_on_c, 0, 87, 84
2, 54103, Note_on_c, 0, 75, 81
2, 54127, Note_on_c, 0, 58, 56
2, 54127, Note_on_c, 0, 80, 65
2, 54127, Note_on_c, 0, 52, 31
2, 54318, Note_on_c, 0, 52, 0
2, 54339, Note_on_c, 0, 87, 0
2, 54342, Note_on_c, 0, 75, 0
2, 54359, Note_on_c, 0, 80, 0
2, 54360, Note_on_c, 0, 63, 0
2, 54364, Note_on_c, 0, 58, 0
2, 54475, Note_on_c, 0, 63, 64
2, 54475, Note_on_c, 0, 82, 52
2, 54489, Note_on_c, 0, 58, 51
2, 54494, Note_on_c, 0, 52, 47
2, 54686, Note_on_c, 0, 82, 0
2, 54710, Note_on_c, 0, 52, 0
2, 54751, Note_on_c, 0, 58, 0
2, 54753, Note_on_c, 0, 63, 0
2, 54908, Control_c, 0, 64, 127
2, 55080, Control_c, 0, 64, 0
2, 55235, Note_on_c, 0, 91, 74
2, 55237, Note_on_c, 0, 67, 67
2, 55238, Note_on_c, 0, 57, 68
2, 55243, Note_on_c, 0, 62, 59
2, 55249, Note_on_c, 0, 79, 62
2, 55250, Note_on_c, 0, 86, 69
2, 55399, Note_on_c, 0, 91, 0
2, 55422, Note_on_c, 0, 86, 0
2, 55455, Note_on_c, 0, 57, 0
2, 55456, Note_on_c, 0, 79, 0
2, 55479, Note_on_c, 0, 67, 0
2, 55500, Note_on_c, 0, 62, 0
2, 55621, Note_on_c, 0, 88, 73
2, 55631, Note_on_c, 0, 76, 46
2, 55633, Note_on_c, 0, 67, 64
2, 55634, Note_on_c, 0, 82, 59
2, 55635, Note_on_c, 0, 62, 52
2, 55637, Note_on_c, 0, 57, 65
2, 55844, Note_on_c, 0, 82, 0
2, 55904, Note_on_c, 0, 67, 0
2, 55909, Note_on_c, 0, 88, 0
2, 55910, Note_on_c, 0, 76, 0
2, 55936, Note_on_c, 0, 62, 0
2, 55969, Note_on_c, 0, 57, 0
2, 56410, Note_on_c, 0, 36, 74
2, 56415, Note_on_c, 0, 48, 60
2, 56623, Note_on_c, 0, 36, 0
2, 56628, Note_on_c, 0, 48, 0
2, 56681, Note_on_c, 0, 48, 61
2, 56685, Note_on_c, 0, 36, 67
2, 56782, Note_on_c, 0, 36, 0
2, 56813, Note_on_c, 0, 48, 0
2, 57440, Note_on_c, 0, 46, 44
2, 57512, Note_on_c, 0, 47, 41
2, 57541, Note_on_c, 0, 48, 62
2, 57552, Note_on_c, 0, 55, 58
2, 57555, Note_on_c, 0, 47, 0
2, 57557, Note_on_c, 0, 62, 37
2, 57558, Note_on_c, 0, 46, 0
2, 57559, Note_on_c, 0, 58, 44
2, 57566, Note_on_c, 0, 65, 41
2, 57629, Note_on_c, 0, 65, 0
2, 57641, Note_on_c, 0, 62, 0
2, 57737, Note_on_c, 0, 58, 0
2, 57761, Note_on_c, 0, 55, 0
2, 57835, Note_on_c, 0, 46, 45
2, 57879, Note_on_c, 0, 48, 0
2, 57921, Note_on_c, 0, 56, 73
2, 57978, Note_on_c, 0, 46, 0
2, 58649, Note_on_c, 0, 56, 0
2, 58657, Note_on_c, 0, 53, 27
2, 58658, Note_on_c, 0, 48, 25
2, 58687, Note_on_c, 0, 53, 0
2, 58689, Note_on_c, 0, 48, 0
2, 58759, Note_on_c, 0, 55, 62
2, 59007, Note_on_c, 0, 55, 0
2, 59141, Note_on_c, 0, 53, 58
2, 59399, Note_on_c, 0, 53, 0
2, 59420, Note_on_c, 0, 55, 42
2, 59472, Note_on_c, 0, 53, 35
2, 59480, Note_on_c, 0, 55, 0
2, 59539, Note_on_c, 0, 53, 0
2, 59550, Note_on_c, 0, 50, 43
2, 59842, Note_on_c, 0, 50, 0
2, 59908, Note_on_c, 0, 53, 58
2, 60118, Note_on_c, 0, 53, 0
2, 60148, Note_on_c, 0, 55, 47
2, 60201, Note_on_c, 0, 53, 42
2, 60212, Note_on_c, 0, 55, 0
2, 60284, Note_on_c, 0, 50, 46
2, 60300, Note_on_c, 0, 53, 0
2, 60464, Note_on_c, 0, 50, 0
2, 60526, Note_on_c, 0, 53, 68
2, 60781, Note_on_c, 0, 53, 0
2, 60818, Note_on_c, 0, 55, 50
2, 60831, Note_on_c, 0, 56, 30
2, 60870, Note_on_c, 0, 53, 38
2, 60911, Note_on_c, 0, 56, 0
2, 60917, Note_on_c, 0, 55, 0
2, 60963, Note_on_c, 0, 53, 0
2, 60968, Note_on_c, 0, 50, 50
2, 61007, Note_on_c, 0, 50, 0
2, 61051, Note_on_c, 0, 53, 64
2, 61293, Note_on_c, 0, 53, 0
2, 62161, Note_on_c, 0, 79, 56
2, 62171, Note_on_c, 0, 72, 56
2, 62184, Note_on_c, 0, 56, 50
2, 62197, Note_on_c, 0, 62, 47
2, 62264, Note_on_c, 0, 62, 0
2, 62293, Note_on_c, 0, 56, 0
2, 62355, Note_on_c, 0, 79, 0
2, 62363, Note_on_c, 0, 72, 0
2, 62431, Note_on_c, 0, 76, 38
2, 62440, Note_on_c, 0, 67, 48
2, 62494, Note_on_c, 0, 67, 0
2, 62526, Note_on_c, 0, 76, 0
2, 63559, Note_on_c, 0, 88, 59
2, 63592, Note_on_c, 0, 88, 0
2, 63668, Note_on_c, 0, 91, 82
2, 63672, Note_on_c, 0, 79, 72
2, 63692, Note_on_c, 0, 56, 57
2, 63701, Note_on_c, 0, 67, 54
2, 63706, Note_on_c, 0, 62, 64
2, 63738, Note_on_c, 0, 79, 0
2, 63749, Note_on_c, 0, 91, 0
2, 63794, Note_on_c, 0, 67, 0
2, 63807, Note_on_c, 0, 91, 64
2, 63835, Note_on_c, 0, 79, 32
2, 63844, Note_on_c, 0, 62, 0
2, 63856, Note_on_c, 0, 56, 0
2, 63870, Note_on_c, 0, 91, 0
2, 63872, Note_on_c, 0, 79, 0
2, 64073, Note_on_c, 0, 79, 73
2, 64074, Note_on_c, 0, 91, 75
2, 64089, Note_on_c, 0, 56, 48
2, 64089, Note_on_c, 0, 62, 51
2, 64102, Note_on_c, 0, 67, 31
2, 64134, Note_on_c, 0, 79, 0
2, 64138, Note_on_c, 0, 67, 0
2, 64139, Note_on_c, 0, 91, 0
2, 64170, Note_on_c, 0, 62, 0
2, 64203, Note_on_c, 0, 79, 57
2, 64206, Note_on_c, 0, 91, 49
2, 64273, Note_on_c, 0, 79, 0
2, 64284, Note_on_c, 0, 56, 0
2, 64290, Note_on_c, 0, 91, 0
2, 64375, Note_on_c, 0, 93, 80
2, 64380, Note_on_c, 0, 81, 67
2, 64381, Note_on_c, 0, 62, 62
2, 64389, Note_on_c, 0, 58, 38
2, 64398, Note_on_c, 0, 57, 34
2, 64427, Note_on_c, 0, 62, 0
2, 64430, Note_on_c, 0, 81, 0
2, 64435, Note_on_c, 0, 57, 0
2, 64451, Note_on_c, 0, 93, 0
2, 64459, Note_on_c, 0, 58, 0
2, 64587, Note_on_c, 0, 96, 80
2, 64590, Note_on_c, 0, 84, 62
2, 64599, Note_on_c, 0, 58, 56
2, 64601, Note_on_c, 0, 62, 58
2, 64608, Note_on_c, 0, 57, 51
2, 64624, Note_on_c, 0, 84, 0
2, 64640, Note_on_c, 0, 57, 0
2, 64642, Note_on_c, 0, 62, 0
2, 64651, Note_on_c, 0, 96, 0
2, 64669, Note_on_c, 0, 58, 0
2, 64841, Note_on_c, 0, 93, 83
2, 64847, Note_on_c, 0, 81, 76
2, 64853, Note_on_c, 0, 58, 53
2, 64856, Note_on_c, 0, 62, 54
2, 64862, Note_on_c, 0, 57, 50
2, 64889, Note_on_c, 0, 81, 0
2, 64895, Note_on_c, 0, 62, 0
2, 64896, Note_on_c, 0, 57, 0
2, 64911, Note_on_c, 0, 93, 0
2, 64926, Note_on_c, 0, 58, 0
2, 65895, Note_on_c, 0, 64, 78
2, 65898, Note_on_c, 0, 58, 69
2, 65953, Note_on_c, 0, 64, 0
2, 65966, Note_on_c, 0, 58, 0
2, 66261, Note_on_c, 0, 93, 103
2, 66359, Note_on_c, 0, 93, 0
2, 67352, Control_c, 0, 64, 127
2, 67424, Control_c, 0, 64, 0
2, 67566, Note_on_c, 0, 60, 70
2, 67572, Note_on_c, 0, 61, 59
2, 67573, Note_on_c, 0, 65, 77
2, 67580, Note_on_c, 0, 93, 68
2, 67591, Note_on_c, 0, 81, 47
2, 67596, Note_on_c, 0, 58, 28
2, 67606, Note_on_c, 0, 65, 0
2, 67619, Note_on_c, 0, 93, 0
2, 67625, Note_on_c, 0, 61, 0
2, 67626, Note_on_c, 0, 58, 0
2, 67627, Note_on_c, 0, 81, 0
2, 67631, Note_on_c, 0, 60, 0
2, 67945, Note_on_c, 0, 61, 74
2, 67946, Note_on_c, 0, 60, 81
2, 67949, Note_on_c, 0, 96, 94
2, 67953, Note_on_c, 0, 65, 80
2, 67954, Note_on_c, 0, 84, 90
2, 67961, Note_on_c, 0, 58, 45
2, 67965, Note_on_c, 0, 55, 67
2, 68020, Note_on_c, 0, 84, 0
2, 68053, Note_on_c, 0, 96, 0
2, 68059, Note_on_c, 0, 65, 0
2, 68083, Note_on_c, 0, 60, 0
2, 68088, Note_on_c, 0, 55, 0
2, 68090, Note_on_c, 0, 61, 0
2, 68116, Note_on_c, 0, 58, 0
2, 68330, Control_c, 0, 64, 127
2, 68332, Note_on_c, 0, 64, 83
2, 68333, Note_on_c, 0, 54, 83
2, 68335, Note_on_c, 0, 60, 80
2, 68337, Note_on_c, 0, 97, 88
2, 68340, Note_on_c, 0, 85, 92
2, 68504, Note_on_c, 0, 85, 0
2, 68508, Note_on_c, 0, 97, 0
2, 68520, Note_on_c, 0, 64, 0
2, 68540, Note_on_c, 0, 54, 0
2, 68553, Note_on_c, 0, 60, 0
2, 68617, Note_on_c, 0, 64, 37
2, 68619, Note_on_c, 0, 98, 68
2, 68627, Control_c, 0, 64, 0
2, 68629, Note_on_c, 0, 86, 58
2, 68642, Note_on_c, 0, 97, 31
2, 68645, Note_on_c, 0, 60, 48
2, 68649, Note_on_c, 0, 98, 0
2, 68657, Note_on_c, 0, 86, 0
2, 68660, Note_on_c, 0, 64, 0
2, 68673, Note_on_c, 0, 97, 0
2, 68675, Note_on_c, 0, 60, 0
2, 68735, Note_on_c, 0, 54, 68
2, 68743, Note_on_c, 0, 64, 57
2, 68752, Note_on_c, 0, 60, 60
2, 68765, Note_on_c, 0, 92, 65
2, 68767, Note_on_c, 0, 80, 69
2, 68784, Note_on_c, 0, 60, 0
2, 68838, Note_on_c, 0, 93, 52
2, 68866, Note_on_c, 0, 80, 0
2, 68873, Note_on_c, 0, 81, 60
2, 68888, Control_c, 0, 64, 127
2, 68889, Note_on_c, 0, 92, 0
2, 68915, Control_c, 0, 64, 0
2, 68950, Note_on_c, 0, 93, 0
2, 68958, Note_on_c, 0, 81, 0
2, 68993, Note_on_c, 0, 64, 0
2, 69020, Note_on_c, 0, 54, 0
2, 69107, Note_on_c, 0, 86, 57
2, 69109, Note_on_c, 0, 62, 59
2, 69113, Note_on_c, 0, 74, 62
2, 69123, Note_on_c, 0, 57, 44
2, 69125, Note_on_c, 0, 58, 29
2, 69131, Note_on_c, 0, 53, 37
2, 69286, Note_on_c, 0, 74, 0
2, 69305, Note_on_c, 0, 86, 0
2, 69311, Note_on_c, 0, 62, 0
2, 69315, Note_on_c, 0, 53, 0
2, 69339, Note_on_c, 0, 58, 0
2, 69366, Note_on_c, 0, 57, 0
2, 69396, Note_on_c, 0, 62, 47
2, 69398, Note_on_c, 0, 89, 71
2, 69402, Note_on_c, 0, 77, 53
2, 69412, Note_on_c, 0, 57, 20
2, 69413, Note_on_c, 0, 53, 35
2, 69414, Note_on_c, 0, 58, 57
2, 69430, Note_on_c, 0, 89, 0
2, 69437, Note_on_c, 0, 77, 0
2, 69450, Note_on_c, 0, 62, 0
2, 69458, Note_on_c, 0, 57, 0
2, 69497, Note_on_c, 0, 58, 0
2, 69497, Note_on_c, 0, 53, 0
2, 69759, Note_on_c, 0, 48, 90
2, 69770, Note_on_c, 0, 36, 87
2, 69819, Note_on_c, 0, 48, 0
2, 69844, Note_on_c, 0, 36, 0
2, 70148, Note_on_c, 0, 60, 80
2, 70222, Note_on_c, 0, 60, 0
2, 70265, Note_on_c, 0, 62, 55
2, 70536, Note_on_c, 0, 53, 41
2, 70552, Note_on_c, 0, 62, 0
2, 70599, Note_on_c, 0, 53, 0
2, 70601, Note_on_c, 0, 54, 57
2, 70604, Control_c, 0, 64, 127
2, 70625, Note_on_c, 0, 67, 56
2, 70631, Note_on_c, 0, 64, 63
2, 70634, Note_on_c, 0, 55, 75
2, 70642, Note_on_c, 0, 57, 57
2, 70645, Note_on_c, 0, 60, 54
2, 70657, Control_c, 0, 64, 0
2, 70666, Note_on_c, 0, 54, 0
2, 70674, Note_on_c, 0, 60, 0
2, 70722, Note_on_c, 0, 60, 24
2, 70853, Note_on_c, 0, 64, 0
2, 70860, Note_on_c, 0, 60, 0
2, 70871, Note_on_c, 0, 54, 48
2, 70890, Note_on_c, 0, 57, 0
2, 70894, Note_on_c, 0, 67, 0
2, 70914, Note_on_c, 0, 55, 0
2, 70940, Note_on_c, 0, 54, 0
2, 70946, Note_on_c, 0, 53, 62
2, 70984, Note_on_c, 0, 53, 0
2, 71029, Note_on_c, 0, 52, 43
2, 71214, Note_on_c, 0, 52, 0
2, 71776, Note_on_c, 0, 71, 79
2, 71787, Note_on_c, 0, 68, 75
2, 71790, Note_on_c, 0, 67, 81
2, 71792, Note_on_c, 0, 79, 80
2, 71793, Note_on_c, 0, 78, 30
2, 71797, Note_on_c, 0, 74, 55
2, 71894, Note_on_c, 0, 66, 21
2, 71896, Note_on_c, 0, 79, 0
2, 71921, Note_on_c, 0, 71, 0
2, 71922, Note_on_c, 0, 74, 0
2, 71951, Note_on_c, 0, 67, 0
2, 71952, Note_on_c, 0, 68, 0
2, 71971, Note_on_c, 0, 78, 0
2, 72028, Note_on_c, 0, 66, 0
2, 72045, Note_on_c, 0, 63, 32
2, 72077, Note_on_c, 0, 63, 0
2, 72126, Note_on_c, 0, 64, 60
2, 72135, Note_on_c, 0, 76, 62
2, 72146, Note_on_c, 0, 68, 56
2, 72154, Note_on_c, 0, 65, 54
2, 72163, Note_on_c, 0, 71, 55
2, 72284, Note_on_c, 0, 71, 0
2, 72289, Note_on_c, 0, 76, 0
2, 72304, Note_on_c, 0, 64, 0
2, 72315, Note_on_c, 0, 68, 0
2, 72336, Note_on_c, 0, 65, 0
2, 73190, Note_on_c, 0, 59, 75
2, 73191, Note_on_c, 0, 68, 64
2, 73193, Note_on_c, 0, 71, 74
2, 73199, Note_on_c, 0, 64, 72
2, 73200, Note_on_c, 0, 60, 76
2, 73207, Note_on_c, 0, 58, 38
2, 73270, Note_on_c, 0, 60, 0
2, 73348, Note_on_c, 0, 64, 0
2, 73353, Note_on_c, 0, 71, 0
2, 73358, Note_on_c, 0, 68, 0
2, 73369, Note_on_c, 0, 59, 0
2, 73370, Note_on_c, 0, 60, 58
2, 73405, Note_on_c, 0, 58, 0
2, 73470, Note_on_c, 0, 60, 0
2, 73599, Note_on_c, 0, 54, 49
2, 73678, Note_on_c, 0, 54, 0
2, 73958, Note_on_c, 0, 72, 75
2, 73959, Note_on_c, 0, 61, 79
2, 73960, Note_on_c, 0, 64, 75
2, 73967, Note_on_c, 0, 60, 81
2, 73978, Note_on_c, 0, 67, 50
2, 73991, Note_on_c, 0, 70, 35
2, 74033, Note_on_c, 0, 70, 0
2, 74112, Note_on_c, 0, 67, 0
2, 74123, Note_on_c, 0, 72, 0
2, 74156, Note_on_c, 0, 64, 0
2, 74165, Note_on_c, 0, 61, 0
2, 74199, Note_on_c, 0, 60, 0
2, 74201, Note_on_c, 0, 61, 43
2, 74203, Note_on_c, 0, 70, 62
2, 74216, Note_on_c, 0, 58, 60
2, 74236, Note_on_c, 0, 64, 49
2, 74275, Note_on_c, 0, 64, 0
2, 74321, Note_on_c, 0, 70, 0
2, 74378, Note_on_c, 0, 61, 0
2, 74400, Note_on_c, 0, 58, 0
2, 74464, Note_on_c, 0, 69, 68
2, 74469, Note_on_c, 0, 58, 56
2, 74486, Note_on_c, 0, 61, 42
2, 74491, Note_on_c, 0, 57, 60
2, 74497, Note_on_c, 0, 64, 37
2, 74613, Note_on_c, 0, 64, 0
2, 74630, Note_on_c, 0, 69, 0
2, 74656, Note_on_c, 0, 58, 0
2, 74660, Note_on_c, 0, 61, 0
2, 74672, Note_on_c, 0, 57, 0
2, 74710, Note_on_c, 0, 64, 47
2, 74730, Note_on_c, 0, 61, 18
2, 74731, Note_on_c, 0, 58, 30
2, 74748, Note_on_c, 0, 64, 0
2, 74758, Note_on_c, 0, 49, 36
2, 74779, Note_on_c, 0, 61, 0
2, 74790, Note_on_c, 0, 49, 0
2, 74809, Note_on_c, 0, 58, 0
2, 75076, Note_on_c, 0, 53, 26
2, 75107, Note_on_c, 0, 67, 71
2, 75114, Note_on_c, 0, 56, 73
2, 75116, Note_on_c, 0, 60, 77
2, 75122, Note_on_c, 0, 53, 0
2, 75128, Note_on_c, 0, 55, 71
2, 75188, Note_on_c, 0, 67, 0
2, 75221, Note_on_c, 0, 56, 0
2, 75270, Note_on_c, 0, 56, 33
2, 75273, Note_on_c, 0, 55, 0
2, 75274, Note_on_c, 0, 54, 50
2, 75399, Note_on_c, 0, 66, 1
2, 75454, Note_on_c, 0, 56, 0
2, 75470, Note_on_c, 0, 66, 0
2, 75507, Note_on_c, 0, 54, 0
2, 75532, Note_on_c, 0, 60, 0
2, 75534, Note_on_c, 0, 51, 46
2, 75559, Note_on_c, 0, 56, 18
2, 75619, Note_on_c, 0, 51, 0
2, 75641, Note_on_c, 0, 65, 58
2, 75642, Note_on_c, 0, 60, 57
2, 75649, Note_on_c, 0, 53, 64
2, 75666, Note_on_c, 0, 62, 37
2, 75804, Note_on_c, 0, 65, 0
2, 75812, Note_on_c, 0, 62, 0
2, 75874, Note_on_c, 0, 60, 0
2, 75883, Note_on_c, 0, 49, 43
2, 75886, Note_on_c, 0, 53, 0
2, 75920, Note_on_c, 0, 56, 0
2, 75973, Note_on_c, 0, 50, 24
2, 76003, Note_on_c, 0, 49, 0
2, 76016, Note_on_c, 0, 50, 0
2, 76019, Note_on_c, 0, 64, 47
2, 76023, Note_on_c, 0, 52, 44
2, 76042, Note_on_c, 0, 55, 36
2, 76136, Note_on_c, 0, 64, 0
2, 76194, Note_on_c, 0, 55, 0
2, 76252, Note_on_c, 0, 49, 47
2, 76253, Note_on_c, 0, 63, 69
2, 76267, Note_on_c, 0, 55, 53
2, 76274, Note_on_c, 0, 52, 0
2, 76279, Note_on_c, 0, 58, 39
2, 76281, Note_on_c, 0, 49, 0
2, 76301, Note_on_c, 0, 55, 0
2, 76332, Note_on_c, 0, 63, 0
2, 76359, Note_on_c, 0, 62, 40
2, 76652, Note_on_c, 0, 42, 35
2, 76658, Note_on_c, 0, 58, 0
2, 76663, Note_on_c, 0, 62, 0
2, 76743, Note_on_c, 0, 42, 0
2, 76750, Note_on_c, 0, 62, 46
2, 76763, Note_on_c, 0, 53, 42
2, 76764, Note_on_c, 0, 43, 51
2, 76765, Note_on_c, 0, 58, 40
2, 76801, Note_on_c, 0, 53, 0
2, 76873, Note_on_c, 0, 58, 0
2, 76876, Note_on_c, 0, 62, 0
2, 76955, Note_on_c, 0, 43, 0
2, 77003, Note_on_c, 0, 31, 69
2, 77033, Note_on_c, 0, 31, 0
2, 77143, Note_on_c, 0, 58, 71
2, 77148, Note_on_c, 0, 62, 61
2, 77150, Note_on_c, 0, 65, 61
2, 77182, Note_on_c, 0, 58, 0
2, 77189, Note_on_c, 0, 62, 0
2, 77239, Note_on_c, 0, 65, 0
2, 77388, Note_on_c, 0, 68, 74
2, 77396, Note_on_c, 0, 57, 82
2, 77398, Note_on_c, 0, 72, 83
2, 77400, Note_on_c, 0, 62, 80
2, 77404, Note_on_c, 0, 65, 68
2, 77418, Note_on_c, 0, 68, 0
2, 77466, Note_on_c, 0, 62, 0
2, 77496, Note_on_c, 0, 65, 0
2, 77510, Note_on_c, 0, 72, 0
2, 77545, Note_on_c, 0, 57, 0
2, 77580, Note_on_c, 0, 53, 50
2, 77601, Note_on_c, 0, 70, 71
2, 77627, Note_on_c, 0, 66, 43
2, 77632, Note_on_c, 0, 70, 0
2, 77639, Note_on_c, 0, 69, 60
2, 77652, Note_on_c, 0, 68, 34
2, 77709, Note_on_c, 0, 66, 0
2, 77806, Note_on_c, 0, 69, 0
2, 77823, Note_on_c, 0, 68, 0
2, 77867, Note_on_c, 0, 53, 0
2, 77900, Note_on_c, 0, 58, 53
2, 77910, Note_on_c, 0, 62, 35
2, 77914, Note_on_c, 0, 50, 53
2, 77921, Note_on_c, 0, 65, 54
2, 77934, Control_c, 0, 64, 127
2, 77947, Note_on_c, 0, 58, 0
2, 77952, Note_on_c, 0, 50, 0
2, 77960, Note_on_c, 0, 65, 0
2, 77961, Note_on_c, 0, 62, 0
2, 78176, Control_c, 0, 64, 0
2, 78293, Note_on_c, 0, 75, 81
2, 78297, Note_on_c, 0, 64, 82
2, 78311, Note_on_c, 0, 63, 76
2, 78312, Note_on_c, 0, 68, 50
2, 78341, Note_on_c, 0, 68, 0
2, 78377, Note_on_c, 0, 68, 25
2, 78418, Note_on_c, 0, 68, 0
2, 78469, Note_on_c, 0, 64, 0
2, 78471, Note_on_c, 0, 75, 0
2, 78505, Note_on_c, 0, 63, 0
2, 78562, Note_on_c, 0, 61, 49
2, 78573, Note_on_c, 0, 73, 46
2, 78626, Note_on_c, 0, 73, 0
2, 78672, Note_on_c, 0, 61, 0
2, 78691, Note_on_c, 0, 75, 83
2, 78692, Note_on_c, 0, 68, 71
2, 78695, Note_on_c, 0, 63, 74
2, 78701, Note_on_c, 0, 64, 68
2, 78883, Note_on_c, 0, 64, 0
2, 78891, Note_on_c, 0, 75, 0
2, 78897, Note_on_c, 0, 68, 0
2, 78898, Note_on_c, 0, 63, 0
2, 78933, Note_on_c, 0, 61, 38
2, 78944, Note_on_c, 0, 73, 70
2, 78951, Note_on_c, 0, 68, 70
2, 78962, Note_on_c, 0, 64, 57
2, 79044, Note_on_c, 0, 64, 0
2, 79059, Note_on_c, 0, 73, 0
2, 79095, Note_on_c, 0, 68, 0
2, 79107, Note_on_c, 0, 61, 0
2, 79152, Note_on_c, 0, 72, 48
2, 79165, Note_on_c, 0, 60, 43
2, 79174, Note_on_c, 0, 64, 30
2, 79318, Note_on_c, 0, 72, 0
2, 79378, Note_on_c, 0, 64, 0
2, 79412, Note_on_c, 0, 60, 0
2, 79459, Note_on_c, 0, 70, 46
2, 79459, Note_on_c, 0, 64, 38
2, 79469, Note_on_c, 0, 58, 45
2, 79550, Control_c, 0, 64, 127
2, 79561, Note_on_c, 0, 64, 0
2, 79684, Note_on_c, 0, 70, 0
2, 79693, Note_on_c, 0, 58, 0
2, 79730, Control_c, 0, 64, 0
2, 79731, Note_on_c, 0, 62, 65
2, 79732, Note_on_c, 0, 72, 64
2, 79735, Note_on_c, 0, 67, 60
2, 79738, Note_on_c, 0, 57, 58
2, 79927, Control_c, 0, 64, 127
2, 79982, Note_on_c, 0, 72, 0
2, 79997, Note_on_c, 0, 67, 0
2, 80059, Note_on_c, 0, 62, 0
2, 80102, Note_on_c, 0, 57, 0
2, 80179, Control_c, 0, 64, 0
2, 80226, Note_on_c, 0, 67, 54
2, 80243, Note_on_c, 0, 57, 55
2, 80245, Note_on_c, 0, 55, 39
2, 80247, Note_on_c, 0, 60, 53
2, 80420, Note_on_c, 0, 60, 0
2, 80421, Note_on_c, 0, 67, 0
2, 80452, Note_on_c, 0, 55, 0
2, 80464, Note_on_c, 0, 57, 0
2, 80611, Control_c, 0, 64, 127
2, 80880, Control_c, 0, 64, 0
2, 80996, Control_c, 0, 64, 127
2, 81239, Note_on_c, 0, 49, 67
2, 81253, Note_on_c, 0, 64, 80
2, 81257, Note_on_c, 0, 58, 71
2, 81260, Note_on_c, 0, 61, 69
2, 81275, Control_c, 0, 64, 0
2, 81334, Note_on_c, 0, 58, 0
2, 81357, Note_on_c, 0, 61, 0
2, 81362, Note_on_c, 0, 64, 0
2, 81402, Note_on_c, 0, 52, 60
2, 81403, Note_on_c, 0, 67, 64
2, 81408, Note_on_c, 0, 49, 0
2, 81411, Note_on_c, 0, 58, 39
2, 81414, Note_on_c, 0, 61, 45
2, 81569, Note_on_c, 0, 67, 0
2, 81589, Note_on_c, 0, 61, 0
2, 81607, Note_on_c, 0, 58, 0
2, 81633, Note_on_c, 0, 52, 0
2, 81660, Note_on_c, 0, 49, 39
2, 81763, Note_on_c, 0, 49, 0
2, 81770, Note_on_c, 0, 50, 53
2, 81779, Note_on_c, 0, 65, 53
2, 81780, Note_on_c, 0, 57, 53
2, 81787, Note_on_c, 0, 60, 55
2, 81938, Note_on_c, 0, 65, 0
2, 81965, Note_on_c, 0, 57, 0
2, 81976, Note_on_c, 0, 60, 0
2, 81986, Note_on_c, 0, 50, 0
2, 82042, Note_on_c, 0, 67, 66
2, 82053, Note_on_c, 0, 57, 40
2, 82060, Note_on_c, 0, 60, 53
2, 82062, Note_on_c, 0, 52, 53
2, 82098, Note_on_c, 0, 60, 0
2, 82103, Note_on_c, 0, 57, 0
2, 82120, Note_on_c, 0, 52, 0
2, 82139, Note_on_c, 0, 67, 0
2, 82187, Note_on_c, 0, 53, 38
2, 82241, Note_on_c, 0, 69, 30
2, 82295, Note_on_c, 0, 69, 0
2, 82377, Note_on_c, 0, 53, 0
2, 82426, Note_on_c, 0, 55, 53
2, 82453, Note_on_c, 0, 70, 56
2, 82483, Note_on_c, 0, 70, 0
2, 82499, Note_on_c, 0, 55, 0
2, 82545, Note_on_c, 0, 55, 57
2, 82613, Note_on_c, 0, 55, 0
2, 82812, Note_on_c, 0, 67, 80
2, 82812, Note_on_c, 0, 63, 83
2, 82814, Note_on_c, 0, 74, 85
2, 82819, Note_on_c, 0, 62, 76
2, 82825, Note_on_c, 0, 70, 61
2, 82856, Note_on_c, 0, 70, 0
2, 83018, Control_c, 0, 64, 127
2, 83220, Note_on_c, 0, 63, 0
2, 83236, Note_on_c, 0, 67, 0
2, 83267, Note_on_c, 0, 74, 0
2, 83269, Control_c, 0, 64, 0
2, 83278, Note_on_c, 0, 62, 0
2, 83320, Note_on_c, 0, 63, 37
2, 83331, Note_on_c, 0, 70, 32
2, 83332, Note_on_c, 0, 58, 37
2, 83498, Note_on_c, 0, 63, 0
2, 83515, Note_on_c, 0, 70, 0
2, 83539, Control_c, 0, 64, 127
2, 83567, Note_on_c, 0, 58, 0
2, 83570, Note_on_c, 0, 74, 68
2, 83579, Note_on_c, 0, 63, 46
2, 83582, Note_on_c, 0, 62, 63
2, 83606, Note_on_c, 0, 67, 35
2, 83637, Control_c, 0, 64, 0
2, 83648, Note_on_c, 0, 67, 0
2, 83660, Note_on_c, 0, 63, 0
2, 83672, Note_on_c, 0, 74, 0
2, 83680, Note_on_c, 0, 62, 0
2, 83750, Note_on_c, 0, 72, 55
2, 83752, Note_on_c, 0, 60, 45
2, 83767, Note_on_c, 0, 67, 20
2, 83895, Note_on_c, 0, 67, 0
2, 83932, Note_on_c, 0, 60, 0
2, 83967, Note_on_c, 0, 72, 0
2, 83967, Note_on_c, 0, 67, 57
2, 83968, Note_on_c, 0, 63, 31
2, 84001, Note_on_c, 0, 63, 0
2, 84004, Note_on_c, 0, 57, 46
2, 84006, Note_on_c, 0, 67, 0
2, 84043, Note_on_c, 0, 57, 0
2, 84482, Control_c, 0, 64, 127
2, 84526, Control_c, 0, 64, 0
2, 84580, Control_c, 0, 64, 127
2, 84707, Control_c, 0, 64, 0
2, 84832, Control_c, 0, 64, 127
2, 85129, Control_c, 0, 64, 0
2, 85197, Note_on_c, 0, 68, 65
2, 85211, Note_on_c, 0, 80, 77
2, 85224, Note_on_c, 0, 69, 79
2, 85225, Note_on_c, 0, 73, 67
2, 85233, Note_on_c, 0, 75, 55
2, 85262, Note_on_c, 0, 75, 0
2, 85283, Note_on_c, 0, 73, 0
2, 85284, Note_on_c, 0, 69, 0
2, 85302, Note_on_c, 0, 68, 0
2, 85306, Note_on_c, 0, 66, 78
2, 85311, Note_on_c, 0, 78, 65
2, 85345, Note_on_c, 0, 69, 49
2, 85349, Note_on_c, 0, 73, 37
2, 85377, Note_on_c, 0, 80, 0
2, 85397, Note_on_c, 0, 75, 12
2, 85522, Note_on_c, 0, 69, 0
2, 85533, Note_on_c, 0, 78, 0
2, 85543, Note_on_c, 0, 75, 0
2, 85557, Note_on_c, 0, 66, 0
2, 85559, Note_on_c, 0, 73, 0
2, 85599, Note_on_c, 0, 65, 74
2, 85658, Control_c, 0, 64, 127
2, 85817, Note_on_c, 0, 65, 0
2, 85851, Note_on_c, 0, 63, 36
2, 85856, Control_c, 0, 64, 0
2, 85857, Note_on_c, 0, 69, 82
2, 85862, Note_on_c, 0, 77, 66
2, 85865, Note_on_c, 0, 74, 70
2, 85880, Note_on_c, 0, 63, 0
2, 85926, Note_on_c, 0, 62, 63
2, 85959, Note_on_c, 0, 77, 0
2, 85961, Note_on_c, 0, 74, 0
2, 85983, Note_on_c, 0, 69, 0
2, 86112, Note_on_c, 0, 74, 67
2, 86133, Note_on_c, 0, 62, 0
2, 86135, Note_on_c, 0, 67, 58
2, 86160, Note_on_c, 0, 60, 60
2, 86206, Control_c, 0, 64, 127
2, 86245, Note_on_c, 0, 67, 0
2, 86263, Note_on_c, 0, 60, 0
2, 86267, Note_on_c, 0, 74, 0
2, 86297, Control_c, 0, 64, 0
2, 86373, Note_on_c, 0, 69, 43
2, 86386, Note_on_c, 0, 57, 57
2, 86388, Note_on_c, 0, 65, 41
2, 86389, Note_on_c, 0, 62, 43
2, 86527, Note_on_c, 0, 65, 0
2, 86529, Note_on_c, 0, 62, 0
2, 86578, Note_on_c, 0, 69, 0
2, 86594, Note_on_c, 0, 57, 0
2, 86626, Note_on_c, 0, 72, 74
2, 86631, Note_on_c, 0, 60, 72
2, 86633, Note_on_c, 0, 65, 69
2, 86637, Note_on_c, 0, 62, 55
2, 86648, Note_on_c, 0, 69, 46
2, 86768, Note_on_c, 0, 69, 0
2, 86802, Note_on_c, 0, 59, 55
2, 86803, Note_on_c, 0, 65, 0
2, 86805, Note_on_c, 0, 72, 0
2, 86809, Note_on_c, 0, 60, 0
2, 86873, Note_on_c, 0, 62, 0
2, 86902, Note_on_c, 0, 59, 0
2, 86912, Note_on_c, 0, 58, 55
2, 86987, Note_on_c, 0, 58, 0
2, 87051, Note_on_c, 0, 57, 46
2, 87128, Note_on_c, 0, 65, 64
2, 87134, Note_on_c, 0, 58, 42
2, 87136, Note_on_c, 0, 62, 46
2, 87144, Note_on_c, 0, 57, 0
2, 87160, Note_on_c, 0, 53, 38
2, 87332, Note_on_c, 0, 58, 0
2, 87347, Note_on_c, 0, 65, 0
2, 87353, Note_on_c, 0, 62, 0
2, 87370, Note_on_c, 0, 53, 0
2, 87401, Note_on_c, 0, 58, 62
2, 87404, Note_on_c, 0, 69, 80
2, 87409, Note_on_c, 0, 57, 47
2, 87416, Note_on_c, 0, 62, 64
2, 87489, Note_on_c, 0, 58, 0
2, 87501, Note_on_c, 0, 57, 0
2, 87503, Note_on_c, 0, 69, 0
2, 87566, Note_on_c, 0, 62, 0
2, 87581, Note_on_c, 0, 67, 48
2, 87598, Note_on_c, 0, 58, 25
2, 87603, Note_on_c, 0, 62, 34
2, 87614, Note_on_c, 0, 55, 50
2, 87800, Note_on_c, 0, 62, 0
2, 87811, Note_on_c, 0, 58, 0
2, 87855, Note_on_c, 0, 55, 0
2, 87862, Note_on_c, 0, 67, 0
2, 87921, Note_on_c, 0, 53, 36
2, 87922, Note_on_c, 0, 65, 55
2, 87928, Note_on_c, 0, 58, 32
2, 88134, Note_on_c, 0, 58, 0
2, 88223, Note_on_c, 0, 65, 0
2, 88234, Note_on_c, 0, 53, 0
2, 88283, Note_on_c, 0, 58, 35
2, 88289, Note_on_c, 0, 62, 39
2, 88299, Note_on_c, 0, 50, 41
2, 88353, Note_on_c, 0, 58, 0
2, 88371, Control_c, 0, 64, 127
2, 88400, Note_on_c, 0, 62, 0
2, 88446, Note_on_c, 0, 50, 0
2, 88560, Control_c, 0, 64, 0
2, 88615, Note_on_c, 0, 57, 31
2, 88652, Note_on_c, 0, 57, 0
2, 88666, Note_on_c, 0, 61, 79
2, 88666, Note_on_c, 0, 65, 76
2, 88667, Note_on_c, 0, 72, 77
2, 88671, Note_on_c, 0, 68, 62
2, 88679, Note_on_c, 0, 60, 80
2, 88923, Note_on_c, 0, 65, 0
2, 88934, Note_on_c, 0, 61, 0
2, 88939, Note_on_c, 0, 68, 0
2, 88940, Note_on_c, 0, 60, 0
2, 88944, Note_on_c, 0, 58, 54
2, 88953, Note_on_c, 0, 72, 0
2, 89059, Note_on_c, 0, 61, 69
2, 89063, Note_on_c, 0, 58, 0
2, 89066, Note_on_c, 0, 72, 58
2, 89068, Note_on_c, 0, 65, 64
2, 89070, Note_on_c, 0, 60, 71
2, 89072, Note_on_c, 0, 68, 46
2, 89244, Note_on_c, 0, 61, 0
2, 89249, Note_on_c, 0, 65, 0
2, 89268, Note_on_c, 0, 72, 0
2, 89276, Note_on_c, 0, 68, 0
2, 89324, Note_on_c, 0, 61, 55
2, 89330, Note_on_c, 0, 60, 0
2, 89332, Note_on_c, 0, 65, 54
2, 89337, Note_on_c, 0, 70, 62
2, 89343, Note_on_c, 0, 58, 59
2, 89356, Note_on_c, 0, 68, 34
2, 89386, Note_on_c, 0, 68, 0
2, 89393, Note_on_c, 0, 61, 0
2, 89394, Note_on_c, 0, 65, 0
2, 89431, Note_on_c, 0, 58, 0
2, 89441, Note_on_c, 0, 70, 0
2, 89804, Note_on_c, 0, 61, 60
2, 89815, Note_on_c, 0, 68, 55
2, 89834, Note_on_c, 0, 58, 53
2, 89834, Note_on_c, 0, 65, 39
2, 89880, Note_on_c, 0, 65, 0
2, 89910, Note_on_c, 0, 61, 0
2, 89971, Note_on_c, 0, 58, 0
2, 89997, Note_on_c, 0, 68, 0
2, 90051, Control_c, 0, 64, 127
2, 90096, Control_c, 0, 64, 0
2, 90369, Note_on_c, 0, 61, 25
2, 90424, Note_on_c, 0, 75, 75
2, 90428, Note_on_c, 0, 61, 0
2, 90435, Note_on_c, 0, 70, 70
2, 90437, Note_on_c, 0, 64, 74
2, 90438, Note_on_c, 0, 67, 71
2, 90446, Note_on_c, 0, 62, 36
2, 90456, Note_on_c, 0, 63, 79
2, 90468, Note_on_c, 0, 64, 0
2, 90481, Note_on_c, 0, 62, 0
2, 90499, Note_on_c, 0, 67, 0
2, 90506, Note_on_c, 0, 70, 0
2, 90512, Note_on_c, 0, 63, 0
2, 90519, Note_on_c, 0, 75, 0
2, 90650, Note_on_c, 0, 63, 69
2, 90661, Note_on_c, 0, 75, 71
2, 90681, Note_on_c, 0, 64, 47
2, 90696, Note_on_c, 0, 67, 30
2, 90712, Note_on_c, 0, 64, 0
2, 90745, Note_on_c, 0, 75, 0
2, 90770, Note_on_c, 0, 67, 0
2, 90772, Note_on_c, 0, 74, 31
2, 90784, Note_on_c, 0, 63, 0
2, 90813, Note_on_c, 0, 74, 0
2, 90819, Note_on_c, 0, 61, 46
2, 90918, Note_on_c, 0, 61, 0
2, 90972, Note_on_c, 0, 78, 76
2, 90978, Note_on_c, 0, 70, 73
2, 90982, Note_on_c, 0, 67, 62
2, 90985, Note_on_c, 0, 66, 74
2, 91013, Note_on_c, 0, 67, 0
2, 91038, Note_on_c, 0, 70, 0
2, 91040, Note_on_c, 0, 66, 0
2, 91060, Note_on_c, 0, 78, 0
2, 91162, Note_on_c, 0, 66, 71
2, 91164, Note_on_c, 0, 78, 75
2, 91183, Note_on_c, 0, 70, 63
2, 91184, Note_on_c, 0, 67, 61
2, 91212, Note_on_c, 0, 73, 25
2, 91214, Note_on_c, 0, 67, 0
2, 91249, Note_on_c, 0, 73, 0
2, 91251, Note_on_c, 0, 78, 0
2, 91271, Note_on_c, 0, 66, 0
2, 91278, Note_on_c, 0, 76, 55
2, 91301, Note_on_c, 0, 64, 54
2, 91305, Note_on_c, 0, 70, 0
2, 91357, Note_on_c, 0, 76, 0
2, 91393, Note_on_c, 0, 64, 0
2, 91454, Note_on_c, 0, 73, 64
2, 91455, Note_on_c, 0, 70, 77
2, 91466, Note_on_c, 0, 81, 68
2, 91473, Note_on_c, 0, 69, 60
2, 91492, Note_on_c, 0, 73, 0
2, 91497, Note_on_c, 0, 81, 0
2, 91500, Note_on_c, 0, 70, 0
2, 91509, Note_on_c, 0, 69, 0
2, 91628, Note_on_c, 0, 81, 76
2, 91629, Note_on_c, 0, 73, 71
2, 91633, Note_on_c, 0, 70, 62
2, 91645, Note_on_c, 0, 69, 73
2, 91646, Note_on_c, 0, 80, 29
2, 91708, Note_on_c, 0, 70, 0
2, 91722, Note_on_c, 0, 69, 0
2, 91730, Note_on_c, 0, 68, 55
2, 91733, Note_on_c, 0, 79, 62
2, 91753, Note_on_c, 0, 81, 0
2, 91764, Note_on_c, 0, 80, 0
2, 91789, Note_on_c, 0, 68, 0
2, 91795, Note_on_c, 0, 73, 0
2, 91843, Note_on_c, 0, 79, 0
2, 92369, Note_on_c, 0, 82, 78
2, 92382, Note_on_c, 0, 75, 77
2, 92389, Note_on_c, 0, 70, 85
2, 92391, Note_on_c, 0, 72, 74
2, 92392, Note_on_c, 0, 79, 66
2, 92763, Note_on_c, 0, 79, 0
2, 92815, Note_on_c, 0, 72, 0
2, 92840, Note_on_c, 0, 75, 0
2, 92856, Note_on_c, 0, 82, 0
2, 92861, Note_on_c, 0, 70, 0
2, 92895, Note_on_c, 0, 67, 43
2, 92897, Note_on_c, 0, 72, 37
2, 92901, Note_on_c, 0, 79, 50
2, 93036, Note_on_c, 0, 72, 0
2, 93092, Note_on_c, 0, 67, 0
2, 93139, Note_on_c, 0, 75, 62
2, 93141, Note_on_c, 0, 63, 49
2, 93173, Note_on_c, 0, 79, 0
2, 93229, Note_on_c, 0, 63, 0
2, 93253, Note_on_c, 0, 75, 0
2, 93281, Note_on_c, 0, 72, 26
2, 93327, Note_on_c, 0, 72, 0
2, 93523, Note_on_c, 0, 81, 75
2, 93526, Note_on_c, 0, 70, 79
2, 93529, Note_on_c, 0, 74, 74
2, 93531, Note_on_c, 0, 69, 75
2, 93546, Note_on_c, 0, 77, 55
2, 93780, Note_on_c, 0, 81, 0
2, 93847, Note_on_c, 0, 70, 0
2, 93859, Note_on_c, 0, 69, 0
2, 93872, Note_on_c, 0, 74, 0
2, 93878, Note_on_c, 0, 77, 0
2, 93901, Note_on_c, 0, 80, 69
2, 93907, Note_on_c, 0, 70, 71
2, 93927, Note_on_c, 0, 68, 50
2, 93929, Note_on_c, 0, 74, 62
2, 94034, Note_on_c, 0, 70, 0
2, 94073, Note_on_c, 0, 74, 0
2, 94091, Note_on_c, 0, 80, 0
2, 94098, Note_on_c, 0, 67, 60
2, 94105, Note_on_c, 0, 68, 0
2, 94134, Note_on_c, 0, 79, 32
2, 94141, Note_on_c, 0, 74, 29
2, 94185, Note_on_c, 0, 79, 0
2, 94225, Note_on_c, 0, 74, 0
2, 94291, Note_on_c, 0, 67, 0
2, 94310, Note_on_c, 0, 70, 74
2, 94312, Note_on_c, 0, 78, 60
2, 94322, Note_on_c, 0, 66, 59
2, 94324, Note_on_c, 0, 73, 62
2, 94434, Note_on_c, 0, 73, 0
2, 94441, Note_on_c, 0, 70, 0
2, 94451, Note_on_c, 0, 66, 0
2, 94468, Note_on_c, 0, 65, 47
2, 94469, Note_on_c, 0, 78, 0
2, 94487, Note_on_c, 0, 77, 51
2, 94528, Note_on_c, 0, 69, 16
2, 94597, Note_on_c, 0, 69, 0
2, 94675, Note_on_c, 0, 65, 0
2, 94684, Note_on_c, 0, 77, 0
2, 94721, Note_on_c, 0, 69, 32
2, 94758, Note_on_c, 0, 69, 0
2, 94811, Note_on_c, 0, 63, 49
2, 94855, Note_on_c, 0, 76, 37
2, 94942, Note_on_c, 0, 63, 0
2, 95029, Note_on_c, 0, 76, 0
2, 95071, Note_on_c, 0, 79, 80
2, 95076, Note_on_c, 0, 69, 69
2, 95089, Note_on_c, 0, 72, 67
2, 95097, Note_on_c, 0, 67, 65
2, 95170, Note_on_c, 0, 72, 0
2, 95184, Note_on_c, 0, 79, 0
2, 95190, Note_on_c, 0, 69, 0
2, 95196, Note_on_c, 0, 67, 0
2, 95231, Note_on_c, 0, 65, 57
2, 95258, Note_on_c, 0, 77, 59
2, 95272, Note_on_c, 0, 69, 29
2, 95284, Note_on_c, 0, 72, 38
2, 95411, Note_on_c, 0, 72, 0
2, 95439, Note_on_c, 0, 65, 0
2, 95452, Note_on_c, 0, 69, 0
2, 95453, Note_on_c, 0, 77, 0
2, 95574, Note_on_c, 0, 76, 64
2, 95578, Note_on_c, 0, 64, 51
2, 95596, Note_on_c, 0, 65, 51
2, 95600, Note_on_c, 0, 67, 36
2, 95611, Note_on_c, 0, 69, 52
2, 95632, Note_on_c, 0, 67, 0
2, 95770, Note_on_c, 0, 76, 0
2, 95791, Note_on_c, 0, 69, 0
2, 95810, Note_on_c, 0, 65, 0
2, 95814, Note_on_c, 0, 64, 0
2, 95989, Note_on_c, 0, 57, 54
2, 96186, Note_on_c, 0, 57, 0
2, 96232, Note_on_c, 0, 74, 74
2, 96235, Note_on_c, 0, 65, 64
2, 96258, Note_on_c, 0, 69, 40
2, 96264, Note_on_c, 0, 60, 42
2, 96344, Note_on_c, 0, 74, 0
2, 96352, Note_on_c, 0, 60, 0
2, 96355, Note_on_c, 0, 65, 0
2, 96359, Note_on_c, 0, 69, 0
2, 97119, Note_on_c, 0, 57, 39
2, 97122, Note_on_c, 0, 64, 38
2, 97123, Note_on_c, 0, 60, 44
2, 97131, Note_on_c, 0, 52, 43
2, 97304, Note_on_c, 0, 57, 0
2, 97346, Note_on_c, 0, 64, 0
2, 97368, Note_on_c, 0, 67, 71
2, 97378, Note_on_c, 0, 57, 62
2, 97379, Note_on_c, 0, 52, 0
2, 97389, Note_on_c, 0, 55, 67
2, 97635, Control_c, 0, 64, 127
2, 97644, Note_on_c, 0, 57, 0
2, 97657, Note_on_c, 0, 60, 0
2, 97689, Note_on_c, 0, 67, 0
2, 97694, Note_on_c, 0, 55, 0
2, 97748, Note_on_c, 0, 57, 54
2, 97751, Control_c, 0, 64, 0
2, 97752, Note_on_c, 0, 65, 57
2, 97759, Note_on_c, 0, 50, 31
2, 97775, Note_on_c, 0, 67, 33
2, 97803, Note_on_c, 0, 50, 0
2, 97814, Note_on_c, 0, 67, 0
2, 97840, Note_on_c, 0, 53, 49
2, 97859, Note_on_c, 0, 57, 0
2, 97944, Note_on_c, 0, 65, 0
2, 98098, Note_on_c, 0, 53, 0
2, 98169, Note_on_c, 0, 65, 45
2, 98216, Note_on_c, 0, 65, 0
2, 98287, Note_on_c, 0, 46, 37
2, 98365, Note_on_c, 0, 46, 0
2, 98668, Control_c, 0, 64, 127
2, 98974, Control_c, 0, 64, 0
2, 99032, Note_on_c, 0, 79, 64
2, 99043, Note_on_c, 0, 56, 46
2, 99045, Note_on_c, 0, 67, 46
2, 99055, Note_on_c, 0, 72, 31
2, 99057, Note_on_c, 0, 62, 30
2, 99085, Note_on_c, 0, 67, 0
2, 99088, Note_on_c, 0, 72, 0
2, 99107, Note_on_c, 0, 62, 0
2, 99107, Note_on_c, 0, 79, 0
2, 99114, Note_on_c, 0, 56, 0
2, 99165, Note_on_c, 0, 76, 60
2, 99198, Note_on_c, 0, 76, 0
2, 99285, Note_on_c, 0, 79, 83
2, 99286, Note_on_c, 0, 56, 71
2, 99289, Note_on_c, 0, 67, 78
2, 99294, Note_on_c, 0, 72, 74
2, 99294, Note_on_c, 0, 62, 72
2, 99298, Note_on_c, 0, 76, 38
2, 99512, Control_c, 0, 64, 127
2, 99708, Note_on_c, 0, 76, 0
2, 99710, Note_on_c, 0, 67, 0
2, 99714, Note_on_c, 0, 72, 0
2, 99720, Note_on_c, 0, 56, 0
2, 99733, Note_on_c, 0, 62, 0
2, 99756, Control_c, 0, 64, 0
2, 99767, Note_on_c, 0, 79, 0
2, 99794, Note_on_c, 0, 76, 47
2, 99811, Note_on_c, 0, 67, 32
2, 99812, Note_on_c, 0, 56, 33
2, 99819, Note_on_c, 0, 62, 44
2, 99975, Note_on_c, 0, 67, 0
2, 99994, Note_on_c, 0, 56, 0
2, 100001, Note_on_c, 0, 76, 0
2, 100010, Note_on_c, 0, 62, 0
2, 100073, Note_on_c, 0, 67, 40
2, 100081, Note_on_c, 0, 76, 38
2, 100107, Note_on_c, 0, 56, 18
2, 100108, Note_on_c, 0, 67, 0
2, 100137, Note_on_c, 0, 76, 0
2, 100167, Note_on_c, 0, 56, 0
2, 100567, Note_on_c, 0, 56, 35
2, 100582, Note_on_c, 0, 62, 31
2, 100608, Note_on_c, 0, 56, 0
2, 100619, Note_on_c, 0, 62, 0
2, 100837, Note_on_c, 0, 58, 40
2, 100868, Note_on_c, 0, 58, 0
2, 100940, Note_on_c, 0, 92, 73
2, 100942, Note_on_c, 0, 96, 79
2, 100944, Note_on_c, 0, 84, 71
2, 100946, Note_on_c, 0, 58, 60
2, 100950, Note_on_c, 0, 62, 73
2, 100964, Note_on_c, 0, 90, 48
2, 100994, Note_on_c, 0, 90, 0
2, 101069, Note_on_c, 0, 92, 0
2, 101082, Note_on_c, 0, 93, 58
2, 101107, Note_on_c, 0, 62, 0
2, 101108, Note_on_c, 0, 84, 0
2, 101114, Note_on_c, 0, 93, 0
2, 101121, Note_on_c, 0, 58, 0
2, 101127, Note_on_c, 0, 96, 0
2, 101198, Note_on_c, 0, 58, 53
2, 101203, Note_on_c, 0, 62, 53
2, 101209, Note_on_c, 0, 96, 71
2, 101212, Note_on_c, 0, 84, 62
2, 101219, Note_on_c, 0, 92, 69
2, 101221, Note_on_c, 0, 57, 45
2, 101248, Note_on_c, 0, 53, 36
2, 101327, Note_on_c, 0, 57, 0
2, 101327, Note_on_c, 0, 92, 0
2, 101335, Note_on_c, 0, 84, 0
2, 101338, Note_on_c, 0, 62, 0
2, 101343, Note_on_c, 0, 53, 0
2, 101343, Note_on_c, 0, 93, 35
2, 101352, Note_on_c, 0, 96, 0
2, 101360, Note_on_c, 0, 58, 0
2, 101377, Note_on_c, 0, 93, 0
2, 101429, Note_on_c, 0, 62, 43
2, 101437, Note_on_c, 0, 93, 67
2, 101438, Note_on_c, 0, 58, 40
2, 101455, Note_on_c, 0, 53, 22
2, 101457, Note_on_c, 0, 57, 34
2, 101463, Note_on_c, 0, 81, 60
2, 101505, Note_on_c, 0, 57, 0
2, 101525, Note_on_c, 0, 53, 0
2, 101536, Note_on_c, 0, 62, 0
2, 101551, Note_on_c, 0, 58, 0
2, 101553, Note_on_c, 0, 81, 0
2, 101577, Note_on_c, 0, 93, 0
2, 102127, Note_on_c, 0, 62, 60
2, 102129, Note_on_c, 0, 58, 42
2, 102144, Note_on_c, 0, 57, 34
2, 102174, Note_on_c, 0, 62, 0
2, 102180, Note_on_c, 0, 57, 0
2, 102201, Note_on_c, 0, 58, 0
2, 102531, Control_c, 0, 64, 127
2, 102749, Note_on_c, 0, 82, 57
2, 102749, Note_on_c, 0, 89, 64
2, 102754, Note_on_c, 0, 77, 54
2, 102758, Note_on_c, 0, 58, 69
2, 102762, Note_on_c, 0, 62, 61
2, 102764, Note_on_c, 0, 86, 36
2, 102773, Control_c, 0, 64, 0
2, 102780, Note_on_c, 0, 89, 0
2, 102784, Note_on_c, 0, 82, 0
2, 102789, Note_on_c, 0, 77, 0
2, 102792, Note_on_c, 0, 62, 0
2, 102801, Note_on_c, 0, 86, 0
2, 102817, Note_on_c, 0, 58, 0
2, 103125, Note_on_c, 0, 48, 91
2, 103133, Note_on_c, 0, 36, 76
2, 103149, Note_on_c, 0, 38, 56
2, 103179, Note_on_c, 0, 48, 0
2, 103181, Note_on_c, 0, 38, 0
2, 103189, Note_on_c, 0, 36, 0
2, 103541, Note_on_c, 0, 60, 64
2, 103653, Note_on_c, 0, 61, 43
2, 103695, Note_on_c, 0, 61, 0
2, 103704, Note_on_c, 0, 60, 0
2, 103766, Note_on_c, 0, 62, 20
2, 103854, Note_on_c, 0, 62, 0
2, 103897, Note_on_c, 0, 65, 80
2, 103931, Note_on_c, 0, 46, 27
2, 103996, Note_on_c, 0, 46, 0
2, 104039, Note_on_c, 0, 62, 50
2, 104197, Note_on_c, 0, 65, 0
2, 104305, Note_on_c, 0, 62, 0
2, 104328, Note_on_c, 0, 60, 40
2, 104359, Note_on_c, 0, 60, 0
2, 104432, Note_on_c, 0, 62, 58
2, 104627, Note_on_c, 0, 62, 0
2, 104664, Note_on_c, 0, 46, 21
2, 104670, Note_on_c, 0, 65, 44
2, 104705, Note_on_c, 0, 65, 0
2, 104707, Note_on_c, 0, 46, 0
2, 104801, Note_on_c, 0, 60, 41
2, 104998, Note_on_c, 0, 60, 0
2, 105057, Note_on_c, 0, 62, 74
2, 105075, Note_on_c, 0, 48, 49
2, 105107, Note_on_c, 0, 48, 0
2, 105379, Note_on_c, 0, 62, 0
2, 105385, Note_on_c, 0, 46, 37
2, 105399, Note_on_c, 0, 47, 40
2, 105400, Note_on_c, 0, 65, 59
2, 105416, Note_on_c, 0, 46, 0
2, 105435, Note_on_c, 0, 47, 0
2, 105485, Note_on_c, 0, 65, 0
2, 105560, Note_on_c, 0, 60, 40
2, 105723, Note_on_c, 0, 60, 0
2, 105781, Note_on_c, 0, 62, 81
2, 106303, Control_c, 0, 64, 127
2, 106376, Control_c, 0, 64, 0
2, 106483, Control_c, 0, 64, 127
2, 106599, Control_c, 0, 64, 0
2, 106667, Note_on_c, 0, 62, 0
2, 106738, Note_on_c, 0, 61, 50
2, 106762, Control_c, 0, 64, 127
2, 106992, Note_on_c, 0, 61, 0
2, 107000, Note_on_c, 0, 63, 34
2, 107030, Control_c, 0, 64, 0
2, 107034, Note_on_c, 0, 63, 0
2, 107134, Note_on_c, 0, 62, 53
2, 107312, Note_on_c, 0, 62, 0
2, 107356, Note_on_c, 0, 67, 57
2, 107467, Note_on_c, 0, 67, 0
2, 107497, Note_on_c, 0, 64, 46
2, 107893, Control_c, 0, 64, 127
2, 108208, Control_c, 0, 64, 0
2, 108279, Control_c, 0, 64, 127
2, 108456, Note_on_c, 0, 64, 0
2, 108520, Note_on_c, 0, 67, 72
2, 108529, Note_on_c, 0, 63, 39
2, 108549, Note_on_c, 0, 57, 42
2, 108558, Control_c, 0, 64, 0
2, 108559, Note_on_c, 0, 63, 0
2, 108586, Note_on_c, 0, 57, 0
2, 108636, Note_on_c, 0, 67, 0
2, 108695, Note_on_c, 0, 64, 54
2, 108980, Control_c, 0, 64, 127
2, 109060, Note_on_c, 0, 64, 0
2, 109313, Note_on_c, 0, 61, 31
2, 109316, Note_on_c, 0, 64, 64
2, 109321, Control_c, 0, 64, 0
2, 109343, Note_on_c, 0, 61, 0
2, 109346, Note_on_c, 0, 64, 0
2, 109356, Note_on_c, 0, 57, 30
2, 109398, Note_on_c, 0, 57, 0
2, 109673, Note_on_c, 0, 91, 74
2, 109681, Note_on_c, 0, 79, 69
2, 109739, Note_on_c, 0, 79, 0
2, 109742, Note_on_c, 0, 91, 0
2, 109788, Control_c, 0, 64, 127
2, 109853, Note_on_c, 0, 88, 62
2, 109861, Note_on_c, 0, 76, 59
2, 110099, Note_on_c, 0, 76, 0
2, 110141, Note_on_c, 0, 88, 0
2, 110441, Note_on_c, 0, 67, 60
2, 110443, Note_on_c, 0, 62, 57
2, 110446, Note_on_c, 0, 56, 56
2, 110450, Note_on_c, 0, 91, 73
2, 110467, Note_on_c, 0, 79, 55
2, 110471, Control_c, 0, 64, 0
2, 110515, Note_on_c, 0, 79, 0
2, 110532, Note_on_c, 0, 67, 0
2, 110537, Note_on_c, 0, 91, 0
2, 110564, Note_on_c, 0, 56, 0
2, 110569, Note_on_c, 0, 62, 0
2, 110696, Note_on_c, 0, 62, 35
2, 110697, Note_on_c, 0, 88, 42
2, 110699, Note_on_c, 0, 56, 45
2, 110706, Note_on_c, 0, 76, 51
2, 110708, Note_on_c, 0, 65, 47
2, 110776, Note_on_c, 0, 65, 0
2, 110948, Control_c, 0, 64, 127
2, 110984, Note_on_c, 0, 76, 0
2, 111055, Note_on_c, 0, 62, 0
2, 111059, Note_on_c, 0, 88, 0
2, 111077, Note_on_c, 0, 56, 0
2, 111234, Note_on_c, 0, 56, 46
2, 111270, Note_on_c, 0, 56, 0
2, 111325, Control_c, 0, 64, 0
2, 111453, Note_on_c, 0, 103, 80
2, 111456, Note_on_c, 0, 56, 71
2, 111457, Note_on_c, 0, 91, 75
2, 111460, Note_on_c, 0, 67, 74
2, 111462, Note_on_c, 0, 100, 64
2, 111468, Note_on_c, 0, 62, 57
2, 111469, Note_on_c, 0, 96, 68
2, 111499, Note_on_c, 0, 96, 0
2, 111549, Control_c, 0, 64, 127
2, 111591, Note_on_c, 0, 100, 0
2, 111603, Note_on_c, 0, 103, 0
2, 111605, Note_on_c, 0, 91, 0
2, 111617, Note_on_c, 0, 67, 0
2, 111639, Control_c, 0, 64, 0
2, 111640, Note_on_c, 0, 56, 0
2, 111662, Note_on_c, 0, 62, 0
2, 111725, Note_on_c, 0, 100, 68
2, 111732, Note_on_c, 0, 56, 58
2, 111741, Note_on_c, 0, 62, 66
2, 111743, Note_on_c, 0, 67, 44
2, 111743, Note_on_c, 0, 88, 45
2, 111763, Note_on_c, 0, 97, 27
2, 111965, Note_on_c, 0, 100, 0
2, 111971, Note_on_c, 0, 97, 0
2, 111984, Note_on_c, 0, 62, 0
2, 111992, Note_on_c, 0, 67, 0
2, 112017, Note_on_c, 0, 88, 0
2, 112057, Note_on_c, 0, 56, 0
2, 112089, Note_on_c, 0, 62, 34
2, 112130, Note_on_c, 0, 62, 0
2, 112173, Note_on_c, 0, 91, 67
2, 112183, Note_on_c, 0, 56, 60
2, 112184, Note_on_c, 0, 79, 66
2, 112191, Note_on_c, 0, 65, 56
2, 112209, Note_on_c, 0, 62, 26
2, 112293, Note_on_c, 0, 91, 0
2, 112330, Control_c, 0, 64, 127
2, 112352, Note_on_c, 0, 65, 0
2, 112364, Note_on_c, 0, 79, 0
2, 112368, Note_on_c, 0, 56, 0
2, 112393, Control_c, 0, 64, 0
2, 112394, Note_on_c, 0, 62, 0
2, 112478, Note_on_c, 0, 88, 71
2, 112480, Note_on_c, 0, 56, 57
2, 112489, Note_on_c, 0, 62, 50
2, 112490, Note_on_c, 0, 76, 59
2, 112501, Note_on_c, 0, 67, 55
2, 112555, Control_c, 0, 64, 127
2, 112728, Note_on_c, 0, 88, 0
2, 112783, Note_on_c, 0, 67, 0
2, 112799, Note_on_c, 0, 76, 0
2, 112825, Control_c, 0, 64, 0
2, 112848, Note_on_c, 0, 56, 0
2, 112870, Control_c, 0, 64, 127
2, 112915, Note_on_c, 0, 62, 0
2, 113135, Note_on_c, 0, 62, 67
2, 113143, Note_on_c, 0, 56, 40
2, 113165, Note_on_c, 0, 62, 0
2, 113202, Control_c, 0, 64, 0
2, 113208, Note_on_c, 0, 56, 0
2, 113256, Control_c, 0, 64, 127
2, 113500, Note_on_c, 0, 62, 71
2, 113501, Note_on_c, 0, 57, 72
2, 113509, Note_on_c, 0, 58, 52
2, 113588, Control_c, 0, 64, 0
2, 114179, Note_on_c, 0, 58, 0
2, 114294, Note_on_c, 0, 69, 41
2, 114299, Note_on_c, 0, 58, 27
2, 114327, Note_on_c, 0, 69, 0
2, 114422, Note_on_c, 0, 72, 94
2, 114443, Note_on_c, 0, 58, 0
2, 114445, Note_on_c, 0, 62, 0
2, 114633, Note_on_c, 0, 71, 49
2, 114679, Note_on_c, 0, 72, 0
2, 114687, Note_on_c, 0, 70, 58
2, 114712, Note_on_c, 0, 71, 0
2, 114828, Note_on_c, 0, 69, 42
2, 114829, Note_on_c, 0, 70, 0
2, 114893, Note_on_c, 0, 57, 0
2, 114975, Note_on_c, 0, 69, 0
2, 115050, Note_on_c, 0, 66, 72
2, 115164, Note_on_c, 0, 66, 0
2, 115214, Note_on_c, 0, 69, 68
2, 115325, Note_on_c, 0, 69, 0
2, 115452, Note_on_c, 0, 67, 72
2, 115452, Note_on_c, 0, 58, 35
2, 115454, Note_on_c, 0, 60, 50
2, 115482, Note_on_c, 0, 60, 0
2, 115528, Note_on_c, 0, 58, 0
2, 115550, Note_on_c, 0, 67, 0
2, 115619, Note_on_c, 0, 66, 33
2, 115776, Note_on_c, 0, 66, 0
2, 115816, Note_on_c, 0, 64, 66
2, 115906, Note_on_c, 0, 64, 0
2, 115990, Note_on_c, 0, 63, 56
2, 116093, Note_on_c, 0, 63, 0
2, 116210, Note_on_c, 0, 62, 57
2, 116222, Note_on_c, 0, 56, 44
2, 116228, Note_on_c, 0, 46, 39
2, 116240, Note_on_c, 0, 62, 0
2, 116243, Note_on_c, 0, 61, 65
2, 116287, Note_on_c, 0, 56, 0
2, 116345, Note_on_c, 0, 46, 0
2, 116497, Note_on_c, 0, 61, 0
2, 116553, Control_c, 0, 64, 127
2, 116570, Note_on_c, 0, 52, 45
2, 116603, Note_on_c, 0, 58, 78
2, 116606, Control_c, 0, 64, 0
2, 116628, Note_on_c, 0, 52, 0
2, 116727, Note_on_c, 0, 58, 0
2, 116769, Note_on_c, 0, 57, 34
2, 116965, Note_on_c, 0, 57, 0
2, 116996, Note_on_c, 0, 55, 54
2, 117036, Note_on_c, 0, 55, 0
2, 117126, Note_on_c, 0, 57, 53
2, 117320, Note_on_c, 0, 57, 0
2, 117358, Note_on_c, 0, 58, 59
2, 117465, Note_on_c, 0, 58, 0
2, 117524, Note_on_c, 0, 60, 49
2, 117685, Note_on_c, 0, 60, 0
2, 117730, Note_on_c, 0, 61, 58
2, 117750, Note_on_c, 0, 50, 54
2, 117757, Note_on_c, 0, 60, 46
2, 117779, Note_on_c, 0, 54, 31
2, 117788, Note_on_c, 0, 60, 0
2, 117848, Note_on_c, 0, 50, 0
2, 117886, Note_on_c, 0, 61, 0
2, 117886, Note_on_c, 0, 54, 0
2, 117908, Note_on_c, 0, 62, 48
2, 118017, Control_c, 0, 64, 127
2, 118037, Note_on_c, 0, 62, 0
2, 118113, Note_on_c, 0, 63, 67
2, 118130, Note_on_c, 0, 57, 44
2, 118134, Note_on_c, 0, 58, 35
2, 118141, Note_on_c, 0, 62, 24
2, 118143, Control_c, 0, 64, 0
2, 118166, Note_on_c, 0, 57, 0
2, 118168, Note_on_c, 0, 58, 0
2, 118171, Note_on_c, 0, 62, 0
2, 118182, Note_on_c, 0, 63, 0
2, 118262, Note_on_c, 0, 53, 58
2, 118278, Note_on_c, 0, 62, 35
2, 118284, Note_on_c, 0, 64, 72
2, 118301, Note_on_c, 0, 59, 26
2, 118304, Control_c, 0, 64, 127
2, 118331, Note_on_c, 0, 62, 0
2, 118458, Note_on_c, 0, 53, 0
2, 118468, Note_on_c, 0, 64, 0
2, 118477, Note_on_c, 0, 59, 0
2, 118506, Note_on_c, 0, 65, 58
2, 118519, Note_on_c, 0, 59, 31
2, 118524, Note_on_c, 0, 53, 55
2, 118530, Note_on_c, 0, 62, 40
2, 118538, Control_c, 0, 64, 0
2, 118567, Note_on_c, 0, 62, 0
2, 118601, Note_on_c, 0, 65, 0
2, 118604, Note_on_c, 0, 53, 0
2, 118607, Note_on_c, 0, 59, 0
2, 118641, Note_on_c, 0, 53, 26
2, 118649, Note_on_c, 0, 59, 29
2, 118665, Note_on_c, 0, 62, 24
2, 118666, Note_on_c, 0, 66, 53
2, 118690, Control_c, 0, 64, 127
2, 118703, Note_on_c, 0, 62, 0
2, 118724, Note_on_c, 0, 59, 0
2, 118754, Note_on_c, 0, 53, 0
2, 118829, Note_on_c, 0, 66, 0
2, 118883, Note_on_c, 0, 62, 73
2, 118885, Note_on_c, 0, 67, 77
2, 118889, Note_on_c, 0, 52, 74
2, 118893, Note_on_c, 0, 58, 65
2, 118897, Control_c, 0, 64, 0
2, 119037, Note_on_c, 0, 67, 0
2, 119067, Control_c, 0, 64, 127
2, 119129, Note_on_c, 0, 68, 45
2, 119216, Note_on_c, 0, 62, 0
2, 119235, Note_on_c, 0, 52, 0
2, 119244, Note_on_c, 0, 58, 0
2, 119251, Note_on_c, 0, 68, 0
2, 119308, Note_on_c, 0, 70, 92
2, 119313, Note_on_c, 0, 62, 56
2, 119316, Note_on_c, 0, 52, 55
2, 119316, Note_on_c, 0, 58, 55
2, 119337, Control_c, 0, 64, 0
2, 119396, Note_on_c, 0, 62, 0
2, 119426, Note_on_c, 0, 52, 0
2, 119451, Note_on_c, 0, 70, 0
2, 119472, Note_on_c, 0, 58, 0
2, 119482, Note_on_c, 0, 71, 59
2, 119535, Control_c, 0, 64, 127
2, 119625, Note_on_c, 0, 71, 0
2, 119682, Note_on_c, 0, 74, 80
2, 119695, Note_on_c, 0, 72, 65
2, 119709, Note_on_c, 0, 53, 40
2, 119724, Note_on_c, 0, 72, 0
2, 119759, Control_c, 0, 64, 0
2, 119779, Note_on_c, 0, 53, 0
2, 119833, Note_on_c, 0, 74, 0
2, 119894, Note_on_c, 0, 71, 30
2, 119957, Control_c, 0, 64, 127
2, 120036, Note_on_c, 0, 71, 0
2, 120051, Note_on_c, 0, 54, 49
2, 120061, Note_on_c, 0, 64, 48
2, 120075, Note_on_c, 0, 59, 51
2, 120076, Note_on_c, 0, 72, 65
2, 120092, Control_c, 0, 64, 0
2, 120231, Note_on_c, 0, 72, 0
2, 120255, Note_on_c, 0, 73, 54
2, 120263, Control_c, 0, 64, 127
2, 120445, Note_on_c, 0, 75, 69
2, 120460, Control_c, 0, 64, 0
2, 120491, Note_on_c, 0, 73, 0
2, 120534, Note_on_c, 0, 75, 0
2, 120592, Note_on_c, 0, 77, 47
2, 120622, Control_c, 0, 64, 127
2, 120777, Note_on_c, 0, 77, 0
2, 120805, Note_on_c, 0, 59, 0
2, 120820, Note_on_c, 0, 78, 74
2, 120856, Control_c, 0, 64, 0
2, 120902, Note_on_c, 0, 78, 0
2, 120959, Note_on_c, 0, 54, 0
2, 120983, Note_on_c, 0, 64, 0
2, 120997, Note_on_c, 0, 80, 53
2, 121116, Control_c, 0, 64, 127
2, 121160, Control_c, 0, 64, 0
2, 121181, Note_on_c, 0, 82, 73
2, 121183, Note_on_c, 0, 65, 72
2, 121188, Note_on_c, 0, 60, 68
2, 121194, Note_on_c, 0, 55, 62
2, 121233, Note_on_c, 0, 80, 0
2, 121268, Note_on_c, 0, 82, 0
2, 121356, Note_on_c, 0, 84, 47
2, 121537, Note_on_c, 0, 84, 0
2, 121572, Note_on_c, 0, 85, 74
2, 121625, Note_on_c, 0, 60, 0
2, 121638, Note_on_c, 0, 65, 0
2, 121640, Note_on_c, 0, 55, 0
2, 121641, Note_on_c, 0, 85, 0
2, 121749, Note_on_c, 0, 87, 61
2, 121864, Note_on_c, 0, 87, 0
2, 121951, Note_on_c, 0, 89, 79
2, 122037, Note_on_c, 0, 89, 0
2, 122050, Control_c, 0, 64, 127
2, 122112, Note_on_c, 0, 90, 58
2, 122194, Note_on_c, 0, 90, 0
2, 122305, Note_on_c, 0, 91, 74
2, 122320, Control_c, 0, 64, 0
2, 122338, Note_on_c, 0, 58, 30
2, 122386, Note_on_c, 0, 91, 0
2, 122413, Note_on_c, 0, 58, 0
2, 122454, Note_on_c, 0, 93, 68
2, 122481, Control_c, 0, 64, 127
2, 122564, Note_on_c, 0, 93, 0
2, 122686, Note_on_c, 0, 94, 74
2, 122701, Note_on_c, 0, 67, 65
2, 122710, Note_on_c, 0, 62, 49
2, 122732, Note_on_c, 0, 67, 0
2, 122744, Note_on_c, 0, 62, 0
2, 122751, Control_c, 0, 64, 0
2, 122766, Note_on_c, 0, 94, 0
2, 122862, Note_on_c, 0, 95, 78
2, 122862, Note_on_c, 0, 62, 27
2, 122862, Note_on_c, 0, 67, 30
2, 122901, Note_on_c, 0, 56, 15
2, 122916, Note_on_c, 0, 95, 0
2, 122951, Note_on_c, 0, 96, 89
2, 122952, Note_on_c, 0, 84, 80
2, 123131, Note_on_c, 0, 67, 0
2, 123143, Note_on_c, 0, 84, 0
2, 123144, Note_on_c, 0, 56, 0
2, 123146, Note_on_c, 0, 96, 0
2, 123167, Note_on_c, 0, 62, 0
2, 123235, Note_on_c, 0, 62, 64
2, 123237, Note_on_c, 0, 56, 67
2, 123238, Note_on_c, 0, 96, 71
2, 123240, Note_on_c, 0, 65, 68
2, 123244, Note_on_c, 0, 84, 74
2, 123262, Control_c, 0, 64, 127
2, 123463, Note_on_c, 0, 96, 0
2, 123483, Note_on_c, 0, 84, 0
2, 123493, Note_on_c, 0, 65, 0
2, 123497, Note_on_c, 0, 56, 0
2, 123516, Note_on_c, 0, 62, 0
2, 123568, Control_c, 0, 64, 0
2, 123622, Note_on_c, 0, 94, 74
2, 123632, Note_on_c, 0, 82, 64
2, 123632, Note_on_c, 0, 56, 67
2, 123639, Note_on_c, 0, 62, 49
2, 123641, Note_on_c, 0, 65, 58
2, 123819, Note_on_c, 0, 94, 0
2, 123832, Note_on_c, 0, 82, 0
2, 123854, Note_on_c, 0, 65, 0
2, 123871, Note_on_c, 0, 62, 0
2, 123874, Note_on_c, 0, 56, 0
2, 123994, Note_on_c, 0, 56, 60
2, 123997, Note_on_c, 0, 80, 56
2, 123997, Note_on_c, 0, 62, 49
2, 123998, Note_on_c, 0, 65, 55
2, 124002, Note_on_c, 0, 92, 34
2, 124011, Note_on_c, 0, 93, 62
2, 124054, Note_on_c, 0, 80, 0
2, 124056, Note_on_c, 0, 81, 57
2, 124105, Note_on_c, 0, 93, 0
2, 124131, Note_on_c, 0, 92, 0
2, 124158, Note_on_c, 0, 81, 0
2, 124239, Note_on_c, 0, 65, 0
2, 124250, Note_on_c, 0, 56, 0
2, 124281, Note_on_c, 0, 62, 0
2, 124365, Note_on_c, 0, 87, 60
2, 124368, Note_on_c, 0, 75, 59
2, 124380, Note_on_c, 0, 62, 52
2, 124381, Note_on_c, 0, 56, 47
2, 124386, Note_on_c, 0, 65, 54
2, 124446, Note_on_c, 0, 75, 0
2, 124468, Note_on_c, 0, 76, 38
2, 124499, Note_on_c, 0, 81, 33
2, 124531, Note_on_c, 0, 87, 0
2, 124594, Note_on_c, 0, 81, 0
2, 124609, Note_on_c, 0, 76, 0
2, 124619, Control_c, 0, 64, 127
2, 124627, Note_on_c, 0, 65, 0
2, 124641, Note_on_c, 0, 56, 0
2, 124655, Control_c, 0, 64, 0
2, 124676, Note_on_c, 0, 62, 0
2, 124750, Note_on_c, 0, 84, 57
2, 124770, Note_on_c, 0, 56, 39
2, 124770, Note_on_c, 0, 62, 42
2, 124771, Note_on_c, 0, 72, 42
2, 124775, Note_on_c, 0, 65, 35
2, 124905, Note_on_c, 0, 72, 0
2, 124915, Note_on_c, 0, 84, 0
2, 124915, Note_on_c, 0, 65, 0
2, 124937, Note_on_c, 0, 62, 0
2, 124941, Note_on_c, 0, 56, 0
2, 125312, Control_c, 0, 64, 127
2, 125420, Note_on_c, 0, 67, 64
2, 125423, Note_on_c, 0, 62, 63
2, 125424, Note_on_c, 0, 56, 59
2, 125439, Control_c, 0, 64, 0
2, 125464, Note_on_c, 0, 67, 0
2, 125490, Note_on_c, 0, 62, 0
2, 125655, Note_on_c, 0, 56, 0
2, 125799, Note_on_c, 0, 58, 58
2, 125804, Note_on_c, 0, 62, 58
2, 125806, Note_on_c, 0, 57, 58
2, 125840, Note_on_c, 0, 57, 0
2, 125845, Note_on_c, 0, 62, 0
2, 125875, Note_on_c, 0, 58, 0
2, 126182, Note_on_c, 0, 93, 65
2, 126247, Note_on_c, 0, 93, 0
2, 126259, Note_on_c, 0, 62, 31
2, 126296, Note_on_c, 0, 62, 0
2, 126342, Note_on_c, 0, 96, 88
2, 126475, Note_on_c, 0, 94, 70
2, 126493, Note_on_c, 0, 96, 0
2, 126575, Note_on_c, 0, 94, 0
2, 126598, Note_on_c, 0, 58, 48
2, 126604, Note_on_c, 0, 62, 55
2, 126613, Note_on_c, 0, 90, 63
2, 126622, Note_on_c, 0, 57, 30
2, 126660, Note_on_c, 0, 62, 0
2, 126667, Note_on_c, 0, 57, 0
2, 126700, Note_on_c, 0, 58, 0
2, 126758, Note_on_c, 0, 90, 0
2, 126811, Note_on_c, 0, 93, 83
2, 126905, Note_on_c, 0, 93, 0
2, 126965, Note_on_c, 0, 91, 81
2, 126976, Note_on_c, 0, 93, 40
2, 127014, Note_on_c, 0, 62, 40
2, 127018, Note_on_c, 0, 93, 0
2, 127025, Note_on_c, 0, 58, 36
2, 127037, Note_on_c, 0, 57, 34
2, 127081, Note_on_c, 0, 62, 0
2, 127081, Note_on_c, 0, 91, 0
2, 127096, Note_on_c, 0, 57, 0
2, 127111, Note_on_c, 0, 58, 0
2, 127125, Note_on_c, 0, 88, 55
2, 127254, Note_on_c, 0, 88, 0
2, 127439, Note_on_c, 0, 63, 48
2, 127461, Note_on_c, 0, 58, 30
2, 127470, Note_on_c, 0, 63, 0
2, 127569, Note_on_c, 0, 58, 0
2, 127981, Control_c, 0, 64, 127
2, 128086, Note_on_c, 0, 69, 74
2, 128092, Note_on_c, 0, 58, 53
2, 128096, Note_on_c, 0, 61, 51
2, 128106, Control_c, 0, 64, 0
2, 128111, Note_on_c, 0, 64, 45
2, 128122, Note_on_c, 0, 69, 0
2, 128145, Note_on_c, 0, 64, 0
2, 128164, Note_on_c, 0, 58, 0
2, 128175, Note_on_c, 0, 61, 0
2, 128347, Note_on_c, 0, 99, 84
2, 128410, Note_on_c, 0, 58, 25
2, 128447, Note_on_c, 0, 58, 0
2, 128520, Note_on_c, 0, 99, 0
2, 128590, Note_on_c, 0, 58, 60
2, 128592, Note_on_c, 0, 69, 67
2, 128603, Note_on_c, 0, 61, 49
2, 128604, Note_on_c, 0, 97, 79
2, 128611, Note_on_c, 0, 64, 57
2, 128646, Control_c, 0, 64, 127
2, 128689, Note_on_c, 0, 69, 0
2, 128708, Note_on_c, 0, 64, 0
2, 128742, Note_on_c, 0, 97, 0
2, 128785, Note_on_c, 0, 61, 0
2, 128796, Note_on_c, 0, 58, 0
2, 128843, Control_c, 0, 64, 0
2, 128869, Note_on_c, 0, 96, 84
2, 128873, Note_on_c, 0, 67, 43
2, 128877, Note_on_c, 0, 63, 53
2, 128895, Note_on_c, 0, 57, 46
2, 128905, Note_on_c, 0, 67, 0
2, 128910, Note_on_c, 0, 63, 0
2, 128951, Note_on_c, 0, 57, 0
2, 129036, Note_on_c, 0, 96, 0
2, 129116, Note_on_c, 0, 93, 73
2, 129119, Note_on_c, 0, 84, 60
2, 129162, Note_on_c, 0, 93, 0
2, 129177, Note_on_c, 0, 84, 0
2, 129305, Note_on_c, 0, 36, 46
2, 129306, Note_on_c, 0, 38, 61
2, 129335, Note_on_c, 0, 36, 0
2, 129339, Note_on_c, 0, 38, 0
2, 129400, Control_c, 0, 64, 127
2, 129616, Control_c, 0, 64, 0
2, 129629, Note_on_c, 0, 66, 36
2, 129655, Note_on_c, 0, 67, 69
2, 129661, Note_on_c, 0, 66, 0
2, 129663, Note_on_c, 0, 57, 62
2, 129664, Note_on_c, 0, 61, 64
2, 129765, Note_on_c, 0, 61, 0
2, 129781, Note_on_c, 0, 62, 43
2, 129785, Note_on_c, 0, 57, 0
2, 129816, Note_on_c, 0, 62, 0
2, 129823, Note_on_c, 0, 67, 0
2, 129907, Note_on_c, 0, 65, 66
2, 129919, Note_on_c, 0, 57, 56
2, 129920, Note_on_c, 0, 50, 44
2, 129945, Note_on_c, 0, 60, 51
2, 129997, Note_on_c, 0, 60, 0
2, 130036, Note_on_c, 0, 65, 0
2, 130047, Note_on_c, 0, 57, 0
2, 130101, Note_on_c, 0, 50, 0
2, 130152, Note_on_c, 0, 64, 50
2, 130172, Note_on_c, 0, 48, 51
2, 130180, Note_on_c, 0, 55, 50
2, 130190, Control_c, 0, 64, 127
2, 130202, Note_on_c, 0, 57, 34
2, 130255, Note_on_c, 0, 57, 0
2, 130261, Note_on_c, 0, 64, 0
2, 130264, Note_on_c, 0, 55, 0
2, 130281, Control_c, 0, 64, 0
2, 130328, Note_on_c, 0, 48, 0
2, 130430, Note_on_c, 0, 67, 59
2, 130430, Note_on_c, 0, 57, 56
2, 130438, Note_on_c, 0, 63, 32
2, 130449, Note_on_c, 0, 60, 57
2, 130451, Note_on_c, 0, 52, 57
2, 130567, Control_c, 0, 64, 127
2, 130568, Note_on_c, 0, 60, 0
2, 130631, Note_on_c, 0, 67, 0
2, 130632, Note_on_c, 0, 63, 0
2, 130679, Note_on_c, 0, 57, 0
2, 130707, Note_on_c, 0, 52, 0
2, 130712, Control_c, 0, 64, 0
2, 130782, Note_on_c, 0, 65, 70
2, 130791, Note_on_c, 0, 60, 75
2, 130795, Note_on_c, 0, 57, 63
2, 130814, Note_on_c, 0, 50, 49
2, 130946, Control_c, 0, 64, 127
2, 131152, Control_c, 0, 64, 0
2, 131195, Note_on_c, 0, 57, 0
2, 131211, Note_on_c, 0, 60, 0
2, 131242, Note_on_c, 0, 65, 0
2, 131276, Note_on_c, 0, 50, 0
2, 131283, Note_on_c, 0, 48, 48
2, 131287, Control_c, 0, 64, 127
2, 131295, Note_on_c, 0, 57, 32
2, 131299, Note_on_c, 0, 64, 42
2, 131307, Note_on_c, 0, 60, 53
2, 131436, Note_on_c, 0, 60, 0
2, 131440, Note_on_c, 0, 57, 0
2, 131493, Control_c, 0, 64, 0
2, 131494, Note_on_c, 0, 64, 0
2, 131545, Note_on_c, 0, 57, 55
2, 131550, Note_on_c, 0, 50, 57
2, 131557, Note_on_c, 0, 60, 66
2, 131559, Note_on_c, 0, 65, 64
2, 131562, Note_on_c, 0, 48, 0
2, 131590, Note_on_c, 0, 50, 0
2, 131640, Note_on_c, 0, 57, 0
2, 131645, Control_c, 0, 64, 127
2, 131790, Note_on_c, 0, 60, 0
2, 131987, Control_c, 0, 64, 0
2, 132037, Note_on_c, 0, 53, 63
2, 132045, Note_on_c, 0, 63, 77
2, 132060, Note_on_c, 0, 58, 59
2, 132089, Note_on_c, 0, 65, 0
2, 132455, Control_c, 0, 64, 127
2, 132778, Control_c, 0, 64, 0
2, 132831, Note_on_c, 0, 70, 81
2, 132929, Note_on_c, 0, 63, 0
2, 132966, Control_c, 0, 64, 127
2, 133048, Note_on_c, 0, 70, 0
2, 133093, Note_on_c, 0, 65, 39
2, 133115, Note_on_c, 0, 63, 27
2, 133128, Control_c, 0, 64, 0
2, 133148, Note_on_c, 0, 65, 0
2, 133235, Note_on_c, 0, 66, 37
2, 133265, Note_on_c, 0, 53, 0
2, 133317, Control_c, 0, 64, 127
2, 133404, Note_on_c, 0, 63, 0
2, 133439, Note_on_c, 0, 58, 0
2, 133441, Note_on_c, 0, 66, 0
2, 133466, Note_on_c, 0, 68, 70
2, 133470, Control_c, 0, 64, 0
2, 133471, Note_on_c, 0, 64, 69
2, 133471, Note_on_c, 0, 54, 60
2, 133479, Note_on_c, 0, 59, 58
2, 133642, Note_on_c, 0, 68, 0
2, 133740, Note_on_c, 0, 71, 42
2, 133956, Note_on_c, 0, 71, 0
2, 133984, Control_c, 0, 64, 127
2, 133984, Note_on_c, 0, 73, 71
2, 134059, Note_on_c, 0, 64, 0
2, 134115, Note_on_c, 0, 59, 0
2, 134201, Note_on_c, 0, 73, 0
2, 134253, Note_on_c, 0, 64, 65
2, 134258, Note_on_c, 0, 76, 29
2, 134266, Note_on_c, 0, 59, 61
2, 134278, Control_c, 0, 64, 0
2, 134335, Note_on_c, 0, 64, 0
2, 134407, Note_on_c, 0, 76, 0
2, 134509, Note_on_c, 0, 78, 60
2, 134511, Note_on_c, 0, 59, 0
2, 134642, Note_on_c, 0, 59, 34
2, 134646, Note_on_c, 0, 64, 49
2, 134686, Note_on_c, 0, 78, 0
2, 134729, Note_on_c, 0, 59, 0
2, 134762, Note_on_c, 0, 80, 67
2, 134780, Note_on_c, 0, 54, 0
2, 134790, Control_c, 0, 64, 127
2, 134872, Note_on_c, 0, 64, 0
2, 134956, Note_on_c, 0, 80, 0
2, 134999, Note_on_c, 0, 65, 54
2, 135012, Note_on_c, 0, 60, 42
2, 135014, Note_on_c, 0, 62, 44
2, 135016, Note_on_c, 0, 81, 69
2, 135032, Control_c, 0, 64, 0
2, 135159, Note_on_c, 0, 65, 0
2, 135199, Note_on_c, 0, 81, 0
2, 135275, Note_on_c, 0, 82, 69
2, 135419, Note_on_c, 0, 82, 0
2, 135497, Note_on_c, 0, 53, 38
2, 135527, Note_on_c, 0, 84, 50
2, 135581, Control_c, 0, 64, 127
2, 135592, Note_on_c, 0, 60, 0
2, 135594, Note_on_c, 0, 62, 0
2, 135666, Note_on_c, 0, 84, 0
2, 135770, Note_on_c, 0, 86, 60
2, 135796, Control_c, 0, 64, 0
2, 135797, Note_on_c, 0, 62, 39
2, 135799, Note_on_c, 0, 65, 51
2, 135806, Note_on_c, 0, 60, 33
2, 135836, Note_on_c, 0, 65, 0
2, 135861, Note_on_c, 0, 86, 0
2, 135867, Note_on_c, 0, 62, 0
2, 135919, Note_on_c, 0, 60, 0
2, 136002, Note_on_c, 0, 93, 78
2, 136014, Note_on_c, 0, 81, 65
2, 136169, Note_on_c, 0, 81, 0
2, 136183, Note_on_c, 0, 93, 0
2, 136291, Note_on_c, 0, 93, 74
2, 136300, Note_on_c, 0, 65, 50
2, 136302, Note_on_c, 0, 62, 44
2, 136303, Note_on_c, 0, 81, 61
2, 136329, Note_on_c, 0, 60, 32
2, 136377, Note_on_c, 0, 65, 0
2, 136388, Note_on_c, 0, 60, 0
2, 136411, Note_on_c, 0, 81, 0
2, 136417, Note_on_c, 0, 62, 0
2, 136435, Note_on_c, 0, 93, 0
2, 136487, Control_c, 0, 64, 127
2, 136532, Control_c, 0, 64, 0
2, 136562, Note_on_c, 0, 93, 85
2, 136571, Note_on_c, 0, 62, 48
2, 136576, Note_on_c, 0, 65, 46
2, 136595, Note_on_c, 0, 60, 40
2, 136715, Note_on_c, 0, 65, 0
2, 136720, Note_on_c, 0, 60, 0
2, 136753, Note_on_c, 0, 92, 49
2, 136759, Note_on_c, 0, 62, 0
2, 136763, Note_on_c, 0, 93, 0
2, 136813, Note_on_c, 0, 92, 0
2, 136830, Note_on_c, 0, 91, 57
2, 136934, Note_on_c, 0, 91, 0
2, 136938, Note_on_c, 0, 90, 58
2, 137021, Note_on_c, 0, 60, 26
2, 137021, Note_on_c, 0, 62, 24
2, 137034, Note_on_c, 0, 90, 0
2, 137037, Note_on_c, 0, 65, 28
2, 137045, Note_on_c, 0, 89, 55
2, 137078, Note_on_c, 0, 89, 0
2, 137088, Note_on_c, 0, 65, 0
2, 137117, Note_on_c, 0, 62, 0
2, 137120, Note_on_c, 0, 60, 0
2, 137167, Note_on_c, 0, 89, 74
2, 137256, Note_on_c, 0, 89, 0
2, 137322, Note_on_c, 0, 89, 64
2, 137386, Note_on_c, 0, 88, 57
2, 137395, Note_on_c, 0, 89, 0
2, 137397, Note_on_c, 0, 62, 25
2, 137407, Note_on_c, 0, 60, 22
2, 137408, Note_on_c, 0, 65, 22
2, 137448, Note_on_c, 0, 87, 64
2, 137477, Note_on_c, 0, 65, 0
2, 137481, Note_on_c, 0, 88, 0
2, 137522, Note_on_c, 0, 60, 0
2, 137537, Note_on_c, 0, 86, 56
2, 137571, Note_on_c, 0, 62, 0
2, 137594, Note_on_c, 0, 87, 0
2, 137617, Note_on_c, 0, 86, 0
2, 137734, Note_on_c, 0, 65, 47
2, 137741, Note_on_c, 0, 62, 40
2, 137750, Note_on_c, 0, 84, 45
2, 137759, Note_on_c, 0, 83, 49
2, 137775, Note_on_c, 0, 65, 0
2, 137791, Note_on_c, 0, 83, 0
2, 137804, Note_on_c, 0, 84, 0
2, 137813, Note_on_c, 0, 62, 0
2, 137899, Note_on_c, 0, 84, 46
2, 137978, Note_on_c, 0, 83, 62
2, 138011, Note_on_c, 0, 53, 0
2, 138016, Note_on_c, 0, 84, 0
2, 138051, Note_on_c, 0, 82, 53
2, 138088, Note_on_c, 0, 83, 0
2, 138131, Note_on_c, 0, 81, 53
2, 138146, Note_on_c, 0, 82, 0
2, 138207, Note_on_c, 0, 81, 0
2, 138257, Note_on_c, 0, 65, 67
2, 138264, Note_on_c, 0, 56, 48
2, 138266, Note_on_c, 0, 60, 51
2, 138282, Note_on_c, 0, 84, 80
2, 138298, Note_on_c, 0, 61, 32
2, 138447, Note_on_c, 0, 56, 0
2, 138464, Note_on_c, 0, 65, 0
2, 138481, Note_on_c, 0, 84, 0
2, 138488, Note_on_c, 0, 60, 0
2, 138519, Note_on_c, 0, 73, 69
2, 138546, Note_on_c, 0, 61, 0
2, 138657, Note_on_c, 0, 73, 0
2, 138962, Note_on_c, 0, 65, 60
2, 138968, Note_on_c, 0, 61, 45
2, 138974, Note_on_c, 0, 56, 31
2, 138975, Note_on_c, 0, 60, 44
2, 139009, Note_on_c, 0, 60, 0
2, 139015, Note_on_c, 0, 65, 0
2, 139060, Note_on_c, 0, 56, 0
2, 139076, Note_on_c, 0, 61, 0
2, 139390, Control_c, 0, 64, 127
2, 139443, Control_c, 0, 64, 0
2, 139460, Control_c, 0, 64, 127
2, 139685, Control_c, 0, 64, 0
2, 139730, Control_c, 0, 64, 127
2, 140431, Control_c, 0, 64, 0
2, 140522, Note_on_c, 0, 64, 46
2, 140611, Control_c, 0, 64, 127
2, 140688, Note_on_c, 0, 64, 0
2, 140765, Note_on_c, 0, 66, 44
2, 140768, Note_on_c, 0, 63, 49
2, 140799, Control_c, 0, 64, 0
2, 140802, Note_on_c, 0, 66, 0
2, 140806, Note_on_c, 0, 63, 0
2, 140896, Note_on_c, 0, 72, 81
2, 140943, Control_c, 0, 64, 127
2, 141093, Note_on_c, 0, 72, 0
2, 141157, Note_on_c, 0, 70, 84
2, 141168, Note_on_c, 0, 63, 63
2, 141176, Control_c, 0, 64, 0
2, 141178, Note_on_c, 0, 53, 55
2, 141192, Note_on_c, 0, 58, 39
2, 141347, Control_c, 0, 64, 127
2, 141572, Control_c, 0, 64, 0
2, 141610, Note_on_c, 0, 63, 0
2, 141658, Note_on_c, 0, 70, 0
2, 141662, Note_on_c, 0, 67, 46
2, 141743, Control_c, 0, 64, 127
2, 141832, Note_on_c, 0, 53, 0
2, 141833, Note_on_c, 0, 58, 0
2, 141909, Note_on_c, 0, 67, 0
2, 141929, Note_on_c, 0, 63, 39
2, 141948, Control_c, 0, 64, 0
2, 141985, Note_on_c, 0, 63, 0
2, 142038, Note_on_c, 0, 58, 52
2, 142043, Note_on_c, 0, 67, 58
2, 142062, Note_on_c, 0, 53, 35
2, 142084, Control_c, 0, 64, 127
2, 142207, Note_on_c, 0, 53, 0
2, 142245, Note_on_c, 0, 67, 0
2, 142268, Note_on_c, 0, 58, 0
2, 142314, Note_on_c, 0, 72, 81
2, 142330, Note_on_c, 0, 58, 49
2, 142333, Note_on_c, 0, 53, 51
2, 142336, Control_c, 0, 64, 0
2, 142438, Note_on_c, 0, 72, 0
2, 142448, Note_on_c, 0, 53, 0
2, 142461, Note_on_c, 0, 70, 60
2, 142479, Control_c, 0, 64, 127
2, 142630, Note_on_c, 0, 70, 0
2, 142639, Note_on_c, 0, 58, 0
2, 142688, Note_on_c, 0, 61, 75
2, 142689, Note_on_c, 0, 73, 80
2, 142695, Control_c, 0, 64, 0
2, 142706, Note_on_c, 0, 52, 58
2, 142838, Control_c, 0, 64, 127
2, 143057, Note_on_c, 0, 61, 0
2, 143079, Note_on_c, 0, 70, 48
2, 143086, Note_on_c, 0, 58, 35
2, 143099, Control_c, 0, 64, 0
2, 143121, Note_on_c, 0, 52, 0
2, 143162, Note_on_c, 0, 73, 0
2, 143216, Control_c, 0, 64, 127
2, 143220, Note_on_c, 0, 70, 0
2, 143237, Note_on_c, 0, 61, 55
2, 143287, Note_on_c, 0, 58, 0
2, 143313, Note_on_c, 0, 61, 0
2, 143453, Note_on_c, 0, 75, 83
2, 143455, Note_on_c, 0, 63, 81
2, 143458, Control_c, 0, 64, 0
2, 143462, Note_on_c, 0, 52, 59
2, 143464, Note_on_c, 0, 58, 59
2, 143473, Note_on_c, 0, 68, 60
2, 143503, Note_on_c, 0, 68, 0
2, 143637, Control_c, 0, 64, 127
2, 143660, Note_on_c, 0, 73, 47
2, 143681, Note_on_c, 0, 63, 0
2, 143698, Note_on_c, 0, 52, 0
2, 143719, Note_on_c, 0, 58, 0
2, 143778, Note_on_c, 0, 71, 20
2, 143783, Note_on_c, 0, 68, 46
2, 143829, Note_on_c, 0, 71, 0
2, 143861, Note_on_c, 0, 63, 49
2, 143878, Note_on_c, 0, 75, 0
2, 143905, Note_on_c, 0, 63, 0
2, 143913, Note_on_c, 0, 68, 0
2, 143924, Note_on_c, 0, 73, 0
2, 143943, Control_c, 0, 64, 0
2, 144004, Note_on_c, 0, 52, 64
2, 144008, Note_on_c, 0, 76, 85
2, 144009, Note_on_c, 0, 64, 82
2, 144010, Note_on_c, 0, 58, 62
2, 144020, Note_on_c, 0, 75, 59
2, 144038, Note_on_c, 0, 69, 58
2, 144092, Note_on_c, 0, 75, 0
2, 144105, Note_on_c, 0, 52, 0
2, 144146, Note_on_c, 0, 69, 0
2, 144163, Note_on_c, 0, 58, 0
2, 144215, Note_on_c, 0, 64, 0
2, 144232, Note_on_c, 0, 74, 37
2, 144255, Note_on_c, 0, 72, 56
2, 144313, Note_on_c, 0, 69, 54
2, 144323, Note_on_c, 0, 57, 40
2, 144337, Note_on_c, 0, 53, 26
2, 144340, Note_on_c, 0, 60, 18
2, 144370, Note_on_c, 0, 76, 0
2, 144375, Control_c, 0, 64, 127
2, 144413, Note_on_c, 0, 64, 55
2, 144422, Note_on_c, 0, 53, 0
2, 144490, Note_on_c, 0, 69, 0
2, 144492, Note_on_c, 0, 57, 0
2, 144516, Note_on_c, 0, 72, 0
2, 144525, Note_on_c, 0, 74, 0
2, 144528, Note_on_c, 0, 64, 0
2, 144569, Note_on_c, 0, 60, 0
2, 144645, Note_on_c, 0, 77, 78
2, 144646, Note_on_c, 0, 65, 74
2, 144661, Control_c, 0, 64, 0
2, 144667, Note_on_c, 0, 67, 49
2, 144671, Note_on_c, 0, 60, 58
2, 144676, Note_on_c, 0, 64, 44
2, 144688, Note_on_c, 0, 57, 44
2, 144698, Note_on_c, 0, 67, 0
2, 144699, Note_on_c, 0, 53, 20
2, 144709, Note_on_c, 0, 64, 0
2, 144750, Note_on_c, 0, 60, 0
2, 144750, Note_on_c, 0, 53, 0
2, 144791, Note_on_c, 0, 57, 0
2, 144821, Note_on_c, 0, 65, 0
2, 144864, Note_on_c, 0, 76, 41
2, 144896, Note_on_c, 0, 74, 44
2, 144949, Control_c, 0, 64, 127
2, 144980, Note_on_c, 0, 77, 0
2, 145064, Note_on_c, 0, 72, 14
2, 145066, Note_on_c, 0, 65, 34
2, 145067, Note_on_c, 0, 76, 0
2, 145070, Note_on_c, 0, 74, 0
2, 145112, Note_on_c, 0, 65, 0
2, 145120, Control_c, 0, 64, 0
2, 145122, Note_on_c, 0, 72, 0
2, 145190, Note_on_c, 0, 79, 83
2, 145191, Note_on_c, 0, 53, 53
2, 145194, Note_on_c, 0, 67, 66
2, 145195, Note_on_c, 0, 59, 54
2, 145196, Note_on_c, 0, 64, 60
2, 145200, Note_on_c, 0, 72, 58
2, 145212, Note_on_c, 0, 73, 40
2, 145241, Note_on_c, 0, 73, 0
2, 145323, Note_on_c, 0, 72, 0
2, 145385, Note_on_c, 0, 67, 0
2, 145419, Note_on_c, 0, 76, 39
2, 145508, Note_on_c, 0, 72, 43
2, 145512, Note_on_c, 0, 79, 0
2, 145527, Control_c, 0, 64, 127
2, 145543, Note_on_c, 0, 59, 0
2, 145551, Note_on_c, 0, 64, 0
2, 145556, Note_on_c, 0, 53, 0
2, 145600, Note_on_c, 0, 67, 24
2, 145607, Note_on_c, 0, 72, 0
2, 145658, Note_on_c, 0, 67, 0
2, 145709, Note_on_c, 0, 76, 0
2, 145769, Control_c, 0, 64, 0
2, 145782, Note_on_c, 0, 65, 55
2, 145783, Note_on_c, 0, 69, 64
2, 145786, Note_on_c, 0, 76, 43
2, 145789, Note_on_c, 0, 81, 53
2, 145791, Note_on_c, 0, 60, 49
2, 145812, Note_on_c, 0, 65, 0
2, 145814, Note_on_c, 0, 69, 0
2, 145821, Note_on_c, 0, 60, 0
2, 145824, Note_on_c, 0, 81, 0
2, 145825, Note_on_c, 0, 76, 0
2, 145827, Note_on_c, 0, 55, 20
2, 145861, Note_on_c, 0, 55, 0
2, 146121, Note_on_c, 0, 40, 68
2, 146184, Note_on_c, 0, 40, 0
2, 146586, Note_on_c, 0, 53, 49
2, 146628, Note_on_c, 0, 53, 0
2, 146634, Note_on_c, 0, 67, 55
2, 146640, Control_c, 0, 64, 127
2, 146642, Note_on_c, 0, 57, 57
2, 146645, Note_on_c, 0, 55, 64
2, 146659, Note_on_c, 0, 60, 50
2, 146667, Control_c, 0, 64, 0
2, 146897, Note_on_c, 0, 60, 0
2, 146899, Note_on_c, 0, 57, 0
2, 146903, Note_on_c, 0, 67, 0
2, 146915, Note_on_c, 0, 55, 0
2, 146944, Note_on_c, 0, 53, 52
2, 147018, Control_c, 0, 64, 127
2, 147019, Note_on_c, 0, 53, 0
2, 147021, Note_on_c, 0, 67, 50
2, 147030, Note_on_c, 0, 57, 64
2, 147039, Note_on_c, 0, 60, 58
2, 147042, Note_on_c, 0, 55, 58
2, 147061, Note_on_c, 0, 64, 24
2, 147098, Control_c, 0, 64, 0
2, 147212, Note_on_c, 0, 60, 0
2, 147226, Note_on_c, 0, 57, 0
2, 147240, Note_on_c, 0, 64, 0
2, 147243, Note_on_c, 0, 67, 0
2, 147247, Note_on_c, 0, 65, 27
2, 147305, Note_on_c, 0, 65, 0
2, 147385, Control_c, 0, 64, 127
2, 147393, Note_on_c, 0, 55, 0
2, 147405, Note_on_c, 0, 67, 53
2, 147413, Control_c, 0, 64, 0
2, 147424, Note_on_c, 0, 56, 56
2, 147425, Note_on_c, 0, 57, 58
2, 147425, Note_on_c, 0, 60, 67
2, 147436, Note_on_c, 0, 64, 33
2, 147598, Note_on_c, 0, 56, 0
2, 147610, Note_on_c, 0, 64, 0
2, 147617, Note_on_c, 0, 60, 0
2, 147631, Note_on_c, 0, 67, 0
2, 147684, Note_on_c, 0, 56, 52
2, 147691, Note_on_c, 0, 57, 0
2, 147694, Note_on_c, 0, 60, 57
2, 147697, Note_on_c, 0, 65, 51
2, 147707, Note_on_c, 0, 55, 60
2, 147714, Note_on_c, 0, 56, 0
2, 147723, Note_on_c, 0, 60, 0
2, 147738, Note_on_c, 0, 55, 0
2, 147746, Note_on_c, 0, 65, 0
2, 148058, Note_on_c, 0, 79, 81
2, 148059, Note_on_c, 0, 68, 86
2, 148067, Note_on_c, 0, 72, 74
2, 148075, Note_on_c, 0, 76, 57
2, 148096, Note_on_c, 0, 77, 34
2, 148097, Note_on_c, 0, 67, 66
2, 148230, Note_on_c, 0, 77, 0
2, 148258, Note_on_c, 0, 68, 0
2, 148268, Note_on_c, 0, 76, 0
2, 148272, Note_on_c, 0, 72, 0
2, 148309, Note_on_c, 0, 79, 0
2, 148326, Note_on_c, 0, 77, 48
2, 148332, Note_on_c, 0, 67, 0
2, 148332, Note_on_c, 0, 68, 44
2, 148349, Note_on_c, 0, 72, 45
2, 148349, Note_on_c, 0, 65, 48
2, 148381, Note_on_c, 0, 65, 0
2, 148382, Note_on_c, 0, 72, 0
2, 148398, Note_on_c, 0, 68, 0
2, 148445, Note_on_c, 0, 77, 0
2, 148917, Note_on_c, 0, 46, 45
2, 148925, Note_on_c, 0, 67, 34
2, 148938, Note_on_c, 0, 64, 30
2, 148948, Note_on_c, 0, 46, 0
2, 148975, Note_on_c, 0, 64, 0
2, 148975, Note_on_c, 0, 67, 0
2, 149325, Note_on_c, 0, 79, 66
2, 149329, Note_on_c, 0, 76, 58
2, 149333, Note_on_c, 0, 67, 58
2, 149334, Note_on_c, 0, 72, 64
2, 149345, Control_c, 0, 64, 127
2, 149346, Note_on_c, 0, 56, 35
2, 149348, Note_on_c, 0, 62, 32
2, 149474, Note_on_c, 0, 56, 0
2, 149497, Note_on_c, 0, 67, 0
2, 149505, Note_on_c, 0, 72, 0
2, 149506, Note_on_c, 0, 79, 0
2, 149534, Note_on_c, 0, 76, 0
2, 149550, Note_on_c, 0, 62, 0
2, 149593, Note_on_c, 0, 77, 53
2, 149633, Note_on_c, 0, 56, 37
2, 149634, Note_on_c, 0, 62, 45
2, 149641, Control_c, 0, 64, 0
2, 149667, Note_on_c, 0, 56, 0
2, 149668, Note_on_c, 0, 62, 0
2, 149675, Note_on_c, 0, 77, 0
2, 149726, Note_on_c, 0, 79, 71
2, 149733, Note_on_c, 0, 67, 61
2, 149735, Note_on_c, 0, 56, 51
2, 149740, Note_on_c, 0, 62, 53
2, 149746, Note_on_c, 0, 72, 50
2, 149794, Control_c, 0, 64, 127
2, 149887, Note_on_c, 0, 56, 0
2, 149888, Note_on_c, 0, 67, 0
2, 149894, Note_on_c, 0, 72, 0
2, 149918, Note_on_c, 0, 79, 0
2, 149949, Note_on_c, 0, 62, 0
2, 149979, Note_on_c, 0, 77, 62
2, 149989, Note_on_c, 0, 56, 60
2, 150000, Control_c, 0, 64, 0
2, 150001, Note_on_c, 0, 62, 24
2, 150036, Note_on_c, 0, 62, 0
2, 150052, Note_on_c, 0, 56, 0
2, 150062, Note_on_c, 0, 77, 0
2, 150182, Note_on_c, 0, 57, 24
2, 150212, Note_on_c, 0, 57, 0
2, 150348, Note_on_c, 0, 78, 60
2, 150369, Note_on_c, 0, 69, 62
2, 150371, Note_on_c, 0, 62, 74
2, 150372, Note_on_c, 0, 81, 64
2, 150373, Note_on_c, 0, 58, 69
2, 150380, Note_on_c, 0, 57, 64
2, 150400, Note_on_c, 0, 69, 0
2, 150402, Note_on_c, 0, 78, 0
2, 150408, Note_on_c, 0, 74, 36
2, 150408, Note_on_c, 0, 77, 61
2, 150409, Note_on_c, 0, 57, 0
2, 150419, Note_on_c, 0, 62, 0
2, 150433, Note_on_c, 0, 79, 26
2, 150436, Note_on_c, 0, 58, 0
2, 150442, Note_on_c, 0, 74, 0
2, 150445, Note_on_c, 0, 77, 0
2, 150461, Note_on_c, 0, 81, 0
2, 150472, Note_on_c, 0, 79, 0
2, 150591, Note_on_c, 0, 58, 74
2, 150592, Note_on_c, 0, 84, 82
2, 150594, Note_on_c, 0, 62, 74
2, 150596, Note_on_c, 0, 72, 80
2, 150597, Note_on_c, 0, 57, 68
2, 150598, Note_on_c, 0, 80, 67
2, 150622, Note_on_c, 0, 77, 46
2, 150659, Note_on_c, 0, 77, 0
2, 150754, Note_on_c, 0, 72, 0
2, 150761, Note_on_c, 0, 80, 0
2, 150765, Note_on_c, 0, 81, 57
2, 150771, Note_on_c, 0, 83, 26
2, 150799, Note_on_c, 0, 81, 0
2, 150809, Note_on_c, 0, 62, 0
2, 150812, Note_on_c, 0, 83, 0
2, 150820, Note_on_c, 0, 84, 0
2, 150828, Note_on_c, 0, 58, 0
2, 150829, Note_on_c, 0, 57, 0
2, 150897, Note_on_c, 0, 84, 61
2, 150900, Note_on_c, 0, 62, 55
2, 150903, Note_on_c, 0, 58, 61
2, 150904, Note_on_c, 0, 72, 64
2, 150907, Note_on_c, 0, 80, 59
2, 150908, Note_on_c, 0, 57, 61
2, 150923, Note_on_c, 0, 78, 50
2, 150997, Note_on_c, 0, 78, 0
2, 151055, Note_on_c, 0, 81, 46
2, 151062, Note_on_c, 0, 72, 0
2, 151067, Note_on_c, 0, 80, 0
2, 151070, Note_on_c, 0, 62, 0
2, 151090, Note_on_c, 0, 58, 0
2, 151090, Note_on_c, 0, 81, 0
2, 151093, Note_on_c, 0, 84, 0
2, 151098, Note_on_c, 0, 57, 0
2, 151164, Note_on_c, 0, 62, 50
2, 151167, Note_on_c, 0, 84, 64
2, 151174, Note_on_c, 0, 58, 57
2, 151175, Note_on_c, 0, 72, 61
2, 151177, Note_on_c, 0, 57, 37
2, 151179, Note_on_c, 0, 80, 69
2, 151211, Note_on_c, 0, 78, 27
2, 151244, Note_on_c, 0, 78, 0
2, 151306, Note_on_c, 0, 72, 0
2, 151309, Note_on_c, 0, 80, 0
2, 151316, Note_on_c, 0, 62, 0
2, 151319, Note_on_c, 0, 81, 30
2, 151324, Note_on_c, 0, 58, 0
2, 151327, Note_on_c, 0, 84, 0
2, 151351, Note_on_c, 0, 81, 0
2, 151356, Note_on_c, 0, 57, 0
2, 151418, Note_on_c, 0, 81, 60
2, 151440, Note_on_c, 0, 57, 34
2, 151441, Note_on_c, 0, 69, 49
2, 151445, Note_on_c, 0, 62, 39
2, 151453, Note_on_c, 0, 58, 48
2, 151517, Note_on_c, 0, 69, 0
2, 151537, Note_on_c, 0, 62, 0
2, 151572, Note_on_c, 0, 81, 0
2, 151575, Note_on_c, 0, 58, 0
2, 151594, Note_on_c, 0, 57, 0
2, 151691, Note_on_c, 0, 77, 55
2, 151695, Note_on_c, 0, 58, 38
2, 151704, Note_on_c, 0, 62, 44
2, 151774, Note_on_c, 0, 62, 0
2, 151827, Note_on_c, 0, 58, 0
2, 151828, Note_on_c, 0, 77, 0
2, 151841, Control_c, 0, 64, 127
2, 151913, Control_c, 0, 64, 0
2, 151946, Note_on_c, 0, 76, 49
2, 151947, Note_on_c, 0, 69, 38
2, 151952, Note_on_c, 0, 73, 36
2, 151955, Note_on_c, 0, 58, 50
2, 151960, Note_on_c, 0, 64, 54
2, 151984, Note_on_c, 0, 69, 0
2, 151989, Note_on_c, 0, 73, 0
2, 151994, Note_on_c, 0, 64, 0
2, 152012, Note_on_c, 0, 76, 0
2, 152033, Note_on_c, 0, 58, 0
2, 152417, Control_c, 0, 64, 127
2, 152731, Control_c, 0, 64, 0
2, 152839, Control_c, 0, 64, 127
2, 153073, Note_on_c, 0, 76, 66
2, 153077, Note_on_c, 0, 88, 64
2, 153082, Note_on_c, 0, 58, 49
2, 153103, Note_on_c, 0, 76, 0
2, 153107, Control_c, 0, 64, 0
2, 153108, Note_on_c, 0, 88, 0
2, 153112, Note_on_c, 0, 58, 0
2, 153182, Note_on_c, 0, 58, 64
2, 153191, Note_on_c, 0, 64, 75
2, 153199, Note_on_c, 0, 79, 83
2, 153200, Note_on_c, 0, 91, 80
2, 153260, Control_c, 0, 64, 127
2, 153349, Note_on_c, 0, 79, 0
2, 153351, Note_on_c, 0, 58, 0
2, 153378, Note_on_c, 0, 64, 0
2, 153388, Note_on_c, 0, 91, 0
2, 153440, Control_c, 0, 64, 0
2, 153463, Note_on_c, 0, 65, 79
2, 153465, Note_on_c, 0, 60, 74
2, 153470, Note_on_c, 0, 61, 62
2, 153472, Note_on_c, 0, 93, 88
2, 153475, Note_on_c, 0, 81, 84
2, 153478, Note_on_c, 0, 58, 52
2, 153480, Note_on_c, 0, 55, 71
2, 153567, Note_on_c, 0, 81, 0
2, 153590, Note_on_c, 0, 55, 0
2, 153595, Note_on_c, 0, 65, 0
2, 153604, Note_on_c, 0, 93, 0
2, 153606, Note_on_c, 0, 58, 0
2, 153613, Note_on_c, 0, 60, 0
2, 153616, Note_on_c, 0, 61, 0
2, 153692, Note_on_c, 0, 61, 51
2, 153696, Note_on_c, 0, 60, 56
2, 153698, Note_on_c, 0, 96, 81
2, 153699, Note_on_c, 0, 65, 67
2, 153704, Note_on_c, 0, 55, 59
2, 153710, Note_on_c, 0, 84, 68
2, 153818, Control_c, 0, 64, 127
2, 153819, Note_on_c, 0, 96, 0
2, 153820, Note_on_c, 0, 84, 0
2, 153869, Note_on_c, 0, 65, 0
2, 153873, Note_on_c, 0, 55, 0
2, 153881, Control_c, 0, 64, 0
2, 153887, Note_on_c, 0, 60, 0
2, 153906, Note_on_c, 0, 61, 0
2, 153962, Note_on_c, 0, 65, 51
2, 153967, Note_on_c, 0, 92, 67
2, 153972, Note_on_c, 0, 61, 52
2, 153972, Note_on_c, 0, 55, 44
2, 153976, Note_on_c, 0, 80, 62
2, 153985, Note_on_c, 0, 60, 41
2, 154010, Note_on_c, 0, 58, 27
2, 154093, Note_on_c, 0, 80, 0
2, 154105, Control_c, 0, 64, 127
2, 154109, Note_on_c, 0, 81, 47
2, 154144, Note_on_c, 0, 65, 0
2, 154146, Note_on_c, 0, 55, 0
2, 154151, Note_on_c, 0, 81, 0
2, 154158, Note_on_c, 0, 60, 0
2, 154168, Note_on_c, 0, 92, 0
2, 154194, Note_on_c, 0, 58, 0
2, 154217, Note_on_c, 0, 61, 0
2, 154258, Control_c, 0, 64, 0
2, 154345, Note_on_c, 0, 89, 70
2, 154355, Note_on_c, 0, 77, 55
2, 154358, Note_on_c, 0, 64, 55
2, 154361, Note_on_c, 0, 60, 55
2, 154363, Note_on_c, 0, 54, 46
2, 154742, Control_c, 0, 64, 127
2, 154743, Note_on_c, 0, 89, 0
2, 154758, Note_on_c, 0, 60, 0
2, 154795, Note_on_c, 0, 77, 0
2, 154799, Note_on_c, 0, 64, 0
2, 154923, Note_on_c, 0, 54, 0
2, 155079, Note_on_c, 0, 62, 47
2, 155081, Note_on_c, 0, 58, 52
2, 155087, Note_on_c, 0, 53, 49
2, 155093, Control_c, 0, 64, 0
2, 155101, Note_on_c, 0, 74, 53
2, 155102, Note_on_c, 0, 86, 53
2, 155104, Note_on_c, 0, 82, 46
2, 155113, Note_on_c, 0, 62, 0
2, 155120, Note_on_c, 0, 79, 41
2, 155155, Note_on_c, 0, 58, 0
2, 155174, Note_on_c, 0, 53, 0
2, 155334, Note_on_c, 0, 86, 0
2, 155350, Note_on_c, 0, 79, 0
2, 155364, Note_on_c, 0, 48, 83
2, 155374, Note_on_c, 0, 82, 0
2, 155376, Note_on_c, 0, 36, 85
2, 155379, Note_on_c, 0, 74, 0
2, 155830, Note_on_c, 0, 39, 20
2, 155870, Note_on_c, 0, 60, 110
2, 155908, Note_on_c, 0, 39, 0
2, 156141, Note_on_c, 0, 60, 0
2, 156156, Note_on_c, 0, 59, 36
2, 156212, Note_on_c, 0, 59, 0
2, 156265, Note_on_c, 0, 60, 60
2, 156285, Note_on_c, 0, 36, 0
2, 156523, Note_on_c, 0, 60, 0
2, 156540, Note_on_c, 0, 59, 41
2, 156586, Note_on_c, 0, 59, 0
2, 156650, Note_on_c, 0, 48, 0
2, 156651, Note_on_c, 0, 60, 48
2, 156883, Note_on_c, 0, 60, 0
2, 156903, Note_on_c, 0, 67, 71
2, 157007, Note_on_c, 0, 67, 0
2, 157041, Note_on_c, 0, 60, 40
2, 157289, Note_on_c, 0, 60, 0
2, 157309, Note_on_c, 0, 59, 48
2, 157358, Note_on_c, 0, 59, 0
2, 157439, Note_on_c, 0, 60, 50
2, 157582, Note_on_c, 0, 60, 0
2, 157798, Note_on_c, 0, 72, 83
2, 157972, Note_on_c, 0, 72, 0
2, 158184, Note_on_c, 0, 60, 63
2, 158411, Note_on_c, 0, 60, 0
2, 158462, Note_on_c, 0, 59, 32
2, 158532, Note_on_c, 0, 59, 0
2, 158562, Note_on_c, 0, 60, 58
2, 158731, Note_on_c, 0, 60, 0
2, 158827, Note_on_c, 0, 72, 72
2, 158885, Note_on_c, 0, 72, 0
2, 159076, Note_on_c, 0, 60, 77
2, 159309, Note_on_c, 0, 60, 0
2, 159326, Control_c, 0, 64, 127
2, 159350, Note_on_c, 0, 59, 53
2, 159491, Note_on_c, 0, 59, 0
2, 159596, Control_c, 0, 64, 0
2, 159607, Note_on_c, 0, 60, 70
2, 159608, Note_on_c, 0, 46, 55
2, 159611, Note_on_c, 0, 56, 52
2, 159678, Note_on_c, 0, 46, 0
2, 159686, Note_on_c, 0, 56, 0
2, 159766, Control_c, 0, 64, 127
2, 159767, Note_on_c, 0, 60, 0
2, 159848, Note_on_c, 0, 64, 69
2, 160054, Control_c, 0, 64, 0
2, 160073, Note_on_c, 0, 64, 0
2, 160081, Control_c, 0, 64, 127
2, 160083, Note_on_c, 0, 56, 46
2, 160105, Note_on_c, 0, 62, 50
2, 160106, Note_on_c, 0, 67, 65
2, 160162, Note_on_c, 0, 62, 0
2, 160174, Note_on_c, 0, 67, 0
2, 160186, Note_on_c, 0, 56, 0
2, 160357, Note_on_c, 0, 72, 66
2, 160360, Note_on_c, 0, 56, 54
2, 160364, Note_on_c, 0, 62, 53
2, 160369, Control_c, 0, 64, 0
2, 160481, Note_on_c, 0, 56, 0
2, 160486, Note_on_c, 0, 62, 0
2, 160494, Control_c, 0, 64, 127
2, 160525, Note_on_c, 0, 72, 0
2, 160599, Note_on_c, 0, 56, 59
2, 160602, Note_on_c, 0, 76, 64
2, 160616, Note_on_c, 0, 67, 46
2, 160645, Note_on_c, 0, 62, 22
2, 160723, Note_on_c, 0, 67, 0
2, 160744, Note_on_c, 0, 56, 0
2, 160746, Note_on_c, 0, 62, 0
2, 160778, Note_on_c, 0, 76, 0
2, 160866, Note_on_c, 0, 56, 61
2, 160881, Note_on_c, 0, 67, 61
2, 160888, Note_on_c, 0, 84, 76
2, 160889, Note_on_c, 0, 62, 47
2, 160901, Note_on_c, 0, 72, 60
2, 160950, Note_on_c, 0, 72, 0
2, 160956, Note_on_c, 0, 67, 0
2, 161006, Note_on_c, 0, 84, 0
2, 161018, Note_on_c, 0, 56, 0
2, 161019, Note_on_c, 0, 62, 0
2, 161105, Control_c, 0, 64, 0
2, 161149, Note_on_c, 0, 56, 70
2, 161151, Note_on_c, 0, 76, 71
2, 161152, Note_on_c, 0, 88, 76
2, 161173, Note_on_c, 0, 65, 34
2, 161180, Note_on_c, 0, 62, 44
2, 161206, Note_on_c, 0, 76, 0
2, 161209, Note_on_c, 0, 65, 0
2, 161217, Note_on_c, 0, 62, 0
2, 161248, Note_on_c, 0, 88, 0
2, 161258, Note_on_c, 0, 56, 0
2, 161284, Control_c, 0, 64, 127
2, 161368, Note_on_c, 0, 56, 56
2, 161387, Note_on_c, 0, 91, 76
2, 161391, Note_on_c, 0, 62, 60
2, 161395, Note_on_c, 0, 79, 62
2, 161403, Note_on_c, 0, 65, 57
2, 161491, Note_on_c, 0, 79, 0
2, 161525, Note_on_c, 0, 56, 0
2, 161525, Note_on_c, 0, 65, 0
2, 161537, Note_on_c, 0, 62, 0
2, 161540, Note_on_c, 0, 91, 0
2, 161627, Control_c, 0, 64, 0
2, 161648, Note_on_c, 0, 56, 60
2, 161656, Note_on_c, 0, 62, 50
2, 161657, Note_on_c, 0, 67, 63
2, 161658, Note_on_c, 0, 84, 64
2, 161661, Note_on_c, 0, 96, 68
2, 161688, Note_on_c, 0, 84, 0
2, 161693, Note_on_c, 0, 96, 0
2, 161696, Note_on_c, 0, 67, 0
2, 161730, Note_on_c, 0, 62, 0
2, 161732, Note_on_c, 0, 56, 0
2, 162003, Control_c, 0, 64, 127
2, 162180, Note_on_c, 0, 100, 68
2, 162181, Note_on_c, 0, 88, 65
2, 162192, Note_on_c, 0, 56, 60
2, 162197, Note_on_c, 0, 67, 57
2, 162200, Note_on_c, 0, 62, 55
2, 162216, Note_on_c, 0, 88, 0
2, 162231, Note_on_c, 0, 67, 0
2, 162240, Note_on_c, 0, 62, 0
2, 162264, Note_on_c, 0, 56, 0
2, 162269, Note_on_c, 0, 100, 0
2, 162326, Control_c, 0, 64, 0
2, 162388, Note_on_c, 0, 56, 63
2, 162399, Note_on_c, 0, 62, 57
2, 162400, Note_on_c, 0, 103, 74
2, 162408, Note_on_c, 0, 67, 29
2, 162419, Note_on_c, 0, 91, 44
2, 162430, Note_on_c, 0, 62, 0
2, 162443, Control_c, 0, 64, 127
2, 162445, Note_on_c, 0, 93, 29
2, 162446, Note_on_c, 0, 67, 0
2, 162470, Note_on_c, 0, 91, 0
2, 162474, Note_on_c, 0, 93, 0
2, 162495, Note_on_c, 0, 103, 0
2, 162513, Note_on_c, 0, 56, 0
2, 162662, Note_on_c, 0, 62, 72
2, 162663, Note_on_c, 0, 53, 61
2, 162667, Note_on_c, 0, 101, 77
2, 162669, Control_c, 0, 64, 0
2, 162670, Note_on_c, 0, 58, 62
2, 162671, Note_on_c, 0, 97, 74
2, 162672, Note_on_c, 0, 89, 76
2, 162674, Note_on_c, 0, 57, 60
2, 162960, Note_on_c, 0, 98, 33
2, 162999, Note_on_c, 0, 97, 0
2, 163032, Note_on_c, 0, 89, 0
2, 163121, Note_on_c, 0, 98, 0
2, 163190, Note_on_c, 0, 101, 0
2, 163212, Note_on_c, 0, 62, 0
2, 163215, Note_on_c, 0, 58, 0
2, 163221, Note_on_c, 0, 53, 0
2, 163226, Note_on_c, 0, 57, 0
2, 163555, Note_on_c, 0, 58, 40
2, 163556, Note_on_c, 0, 62, 34
2, 163557, Note_on_c, 0, 98, 40
2, 163561, Note_on_c, 0, 86, 34
2, 163567, Note_on_c, 0, 94, 46
2, 163571, Note_on_c, 0, 57, 32
2, 163596, Note_on_c, 0, 53, 28
2, 163730, Note_on_c, 0, 86, 0
2, 163738, Note_on_c, 0, 53, 0
2, 163750, Note_on_c, 0, 57, 0
2, 163757, Note_on_c, 0, 98, 0
2, 163758, Note_on_c, 0, 94, 0
2, 163762, Note_on_c, 0, 62, 0
2, 163790, Note_on_c, 0, 58, 0
2, 164307, Note_on_c, 0, 69, 44
2, 164315, Note_on_c, 0, 64, 51
2, 164325, Note_on_c, 0, 99, 77
2, 164339, Note_on_c, 0, 69, 0
2, 164353, Note_on_c, 0, 64, 0
2, 164463, Note_on_c, 0, 99, 0
2, 164520, Note_on_c, 0, 100, 52
2, 164587, Note_on_c, 0, 99, 46
2, 164623, Note_on_c, 0, 100, 0
2, 164681, Note_on_c, 0, 97, 58
2, 164712, Note_on_c, 0, 99, 0
2, 164805, Note_on_c, 0, 96, 42
2, 164808, Note_on_c, 0, 97, 0
2, 164903, Note_on_c, 0, 96, 0
2, 164995, Note_on_c, 0, 94, 71
2, 165031, Note_on_c, 0, 58, 44
2, 165052, Note_on_c, 0, 52, 27
2, 165092, Note_on_c, 0, 52, 0
2, 165093, Note_on_c, 0, 94, 0
2, 165098, Note_on_c, 0, 58, 0
2, 165167, Note_on_c, 0, 93, 60
2, 165328, Note_on_c, 0, 93, 0
2, 165360, Note_on_c, 0, 91, 68
2, 165401, Note_on_c, 0, 52, 39
2, 165437, Note_on_c, 0, 52, 0
2, 165448, Note_on_c, 0, 91, 0
2, 165531, Note_on_c, 0, 90, 62
2, 165642, Note_on_c, 0, 90, 0
2, 165751, Note_on_c, 0, 65, 40
2, 165759, Note_on_c, 0, 88, 76
2, 165765, Note_on_c, 0, 60, 37
2, 165766, Note_on_c, 0, 61, 21
2, 165775, Note_on_c, 0, 55, 28
2, 165787, Note_on_c, 0, 65, 0
2, 165820, Note_on_c, 0, 88, 0
2, 165822, Note_on_c, 0, 60, 0
2, 165858, Note_on_c, 0, 55, 0
2, 165867, Note_on_c, 0, 61, 0
2, 166006, Note_on_c, 0, 85, 65
2, 166098, Note_on_c, 0, 85, 0
2, 166266, Note_on_c, 0, 84, 80
2, 166457, Note_on_c, 0, 84, 0
2, 166492, Note_on_c, 0, 81, 68
2, 166520, Note_on_c, 0, 61, 37
2, 166523, Note_on_c, 0, 55, 53
2, 166563, Note_on_c, 0, 61, 0
2, 166566, Note_on_c, 0, 81, 0
2, 166586, Note_on_c, 0, 55, 0
2, 166727, Note_on_c, 0, 84, 68
2, 166859, Note_on_c, 0, 84, 0
2, 166898, Note_on_c, 0, 64, 40
2, 166899, Note_on_c, 0, 54, 43
2, 166938, Note_on_c, 0, 64, 0
2, 166979, Note_on_c, 0, 54, 0
2, 166989, Note_on_c, 0, 78, 72
2, 167215, Note_on_c, 0, 78, 0
2, 167314, Note_on_c, 0, 81, 79
2, 167429, Note_on_c, 0, 81, 0
2, 167522, Note_on_c, 0, 74, 71
2, 167625, Note_on_c, 0, 74, 0
2, 167654, Note_on_c, 0, 62, 51
2, 167660, Note_on_c, 0, 58, 39
2, 167677, Note_on_c, 0, 57, 30
2, 167691, Note_on_c, 0, 62, 0
2, 167727, Note_on_c, 0, 57, 0
2, 167743, Note_on_c, 0, 58, 0
2, 167789, Note_on_c, 0, 77, 80
2, 167963, Note_on_c, 0, 77, 0
2, 168025, Note_on_c, 0, 65, 74
2, 168182, Note_on_c, 0, 65, 0
2, 168266, Note_on_c, 0, 73, 77
2, 168418, Note_on_c, 0, 73, 0
2, 168421, Note_on_c, 0, 58, 60
2, 168426, Note_on_c, 0, 52, 58
2, 168487, Note_on_c, 0, 58, 0
2, 168531, Note_on_c, 0, 52, 0
2, 168536, Note_on_c, 0, 63, 82
2, 168700, Note_on_c, 0, 63, 0
2, 168801, Note_on_c, 0, 60, 63
2, 168802, Note_on_c, 0, 62, 71
2, 168831, Note_on_c, 0, 60, 0
2, 168975, Note_on_c, 0, 62, 0
2, 169030, Note_on_c, 0, 48, 85
2, 169035, Note_on_c, 0, 47, 76
2, 169109, Note_on_c, 0, 47, 0
2, 169340, Note_on_c, 0, 57, 66
2, 169348, Note_on_c, 0, 55, 68
2, 169378, Note_on_c, 0, 55, 0
2, 169404, Note_on_c, 0, 57, 0
2, 169579, Note_on_c, 0, 62, 87
2, 169740, Note_on_c, 0, 48, 0
2, 169744, Note_on_c, 0, 62, 0
2, 169823, Note_on_c, 0, 60, 85
2, 169974, Note_on_c, 0, 60, 0
2, 169988, Note_on_c, 0, 48, 55
2, 170019, Note_on_c, 0, 48, 0
2, 170102, Note_on_c, 0, 57, 58
2, 170106, Note_on_c, 0, 55, 69
2, 170206, Note_on_c, 0, 55, 0
2, 170384, Note_on_c, 0, 57, 0
2, 170478, Control_c, 0, 64, 127
2, 170542, Control_c, 0, 64, 0
2, 170730, Note_on_c, 0, 48, 74
2, 170748, Note_on_c, 0, 47, 55
2, 170777, Note_on_c, 0, 47, 0
2, 170810, Note_on_c, 0, 48, 0
2, 171109, Note_on_c, 0, 48, 68
2, 171141, Note_on_c, 0, 48, 0
2, 171142, Note_on_c, 0, 47, 31
2, 171176, Note_on_c, 0, 47, 0
2, 171497, Note_on_c, 0, 48, 64
2, 171526, Note_on_c, 0, 48, 0
2, 171532, Note_on_c, 0, 57, 64
2, 171562, Note_on_c, 0, 57, 0
2, 171643, Note_on_c, 0, 60, 77
2, 171766, Note_on_c, 0, 60, 0
2, 171872, Note_on_c, 0, 62, 90
2, 171925, Note_on_c, 0, 53, 22
2, 171980, Note_on_c, 0, 62, 0
2, 171990, Note_on_c, 0, 53, 0
2, 172006, Control_c, 0, 64, 127
2, 172025, Note_on_c, 0, 60, 72
2, 172060, Control_c, 0, 64, 0
2, 172245, Note_on_c, 0, 46, 45
2, 172305, Note_on_c, 0, 46, 0
2, 172311, Note_on_c, 0, 60, 0
2, 172349, Note_on_c, 0, 56, 68
2, 172580, Note_on_c, 0, 56, 0
2, 172612, Note_on_c, 0, 46, 36
2, 172670, Note_on_c, 0, 46, 0
2, 172750, Note_on_c, 0, 60, 71
2, 172990, Note_on_c, 0, 53, 34
2, 173026, Note_on_c, 0, 53, 0
2, 173071, Note_on_c, 0, 60, 0
2, 173122, Note_on_c, 0, 56, 70
2, 173313, Note_on_c, 0, 56, 0
2, 173505, Note_on_c, 0, 46, 48
2, 173525, Note_on_c, 0, 56, 39
2, 173586, Note_on_c, 0, 46, 0
2, 173609, Note_on_c, 0, 56, 0
2, 173895, Note_on_c, 0, 56, 60
2, 173911, Note_on_c, 0, 67, 37
2, 173915, Note_on_c, 0, 62, 53
2, 173938, Note_on_c, 0, 65, 35
2, 173973, Note_on_c, 0, 65, 0
2, 174106, Note_on_c, 0, 67, 0
2, 174114, Note_on_c, 0, 62, 0
2, 174124, Note_on_c, 0, 56, 0
2, 174282, Note_on_c, 0, 68, 73
2, 174298, Note_on_c, 0, 57, 62
2, 174302, Note_on_c, 0, 63, 47
2, 174444, Note_on_c, 0, 57, 0
2, 174517, Note_on_c, 0, 68, 0
2, 174555, Note_on_c, 0, 63, 0
2, 174558, Note_on_c, 0, 67, 63
2, 174559, Note_on_c, 0, 56, 56
2, 174575, Note_on_c, 0, 62, 58
2, 174880, Control_c, 0, 64, 127
2, 174894, Note_on_c, 0, 67, 0
2, 174906, Note_on_c, 0, 62, 0
2, 174981, Note_on_c, 0, 56, 0
2, 175005, Control_c, 0, 64, 0
2, 175046, Note_on_c, 0, 62, 53
2, 175049, Note_on_c, 0, 56, 36
2, 175082, Note_on_c, 0, 56, 0
2, 175084, Note_on_c, 0, 58, 34
2, 175177, Note_on_c, 0, 62, 0
2, 175191, Note_on_c, 0, 58, 0
2, 175448, Note_on_c, 0, 77, 71
2, 175456, Note_on_c, 0, 65, 71
2, 175647, Note_on_c, 0, 65, 0
2, 175669, Note_on_c, 0, 77, 0
2, 175773, Note_on_c, 0, 74, 20
2, 175804, Note_on_c, 0, 74, 0
2, 175818, Note_on_c, 0, 58, 37
2, 175839, Note_on_c, 0, 77, 68
2, 175840, Note_on_c, 0, 57, 26
2, 175847, Note_on_c, 0, 65, 63
2, 175894, Note_on_c, 0, 57, 0
2, 175919, Note_on_c, 0, 58, 0
2, 176008, Note_on_c, 0, 77, 0
2, 176012, Control_c, 0, 64, 127
2, 176035, Note_on_c, 0, 65, 0
2, 176097, Note_on_c, 0, 57, 1
2, 176098, Note_on_c, 0, 77, 52
2, 176117, Note_on_c, 0, 65, 34
2, 176128, Control_c, 0, 64, 0
2, 176164, Note_on_c, 0, 65, 0
2, 176173, Note_on_c, 0, 57, 0
2, 176214, Note_on_c, 0, 77, 0
2, 176257, Note_on_c, 0, 74, 19
2, 176361, Note_on_c, 0, 74, 0
2, 176434, Control_c, 0, 64, 127
2, 176479, Note_on_c, 0, 78, 67
2, 176488, Note_on_c, 0, 66, 72
2, 176490, Note_on_c, 0, 63, 65
2, 176496, Note_on_c, 0, 58, 56
2, 176497, Control_c, 0, 64, 0
2, 176506, Note_on_c, 0, 52, 50
2, 176522, Note_on_c, 0, 63, 0
2, 176542, Note_on_c, 0, 52, 0
2, 176569, Note_on_c, 0, 58, 0
2, 176712, Control_c, 0, 64, 127
2, 176870, Note_on_c, 0, 36, 39
2, 176881, Note_on_c, 0, 66, 0
2, 176882, Note_on_c, 0, 75, 52
2, 176889, Note_on_c, 0, 78, 0
2, 176901, Control_c, 0, 64, 0
2, 176908, Note_on_c, 0, 36, 0
2, 176923, Note_on_c, 0, 75, 0
2, 177001, Note_on_c, 0, 68, 73
2, 177007, Note_on_c, 0, 78, 60
2, 177030, Note_on_c, 0, 79, 64
2, 177045, Control_c, 0, 64, 127
2, 177061, Note_on_c, 0, 79, 0
2, 177155, Note_on_c, 0, 78, 0
2, 177188, Note_on_c, 0, 68, 0
2, 177242, Note_on_c, 0, 63, 80
2, 177244, Note_on_c, 0, 58, 67
2, 177245, Note_on_c, 0, 52, 78
2, 177260, Control_c, 0, 64, 0
2, 177619, Control_c, 0, 64, 127
2, 177651, Note_on_c, 0, 52, 0
2, 177673, Control_c, 0, 64, 0
2, 177697, Note_on_c, 0, 63, 0
2, 177710, Note_on_c, 0, 58, 0
2, 177764, Note_on_c, 0, 64, 68
2, 177769, Note_on_c, 0, 81, 64
2, 177770, Note_on_c, 0, 59, 57
2, 177772, Note_on_c, 0, 53, 55
2, 177773, Note_on_c, 0, 69, 71
2, 177774, Note_on_c, 0, 74, 61
2, 177780, Note_on_c, 0, 77, 57
2, 178125, Control_c, 0, 64, 127
2, 178149, Note_on_c, 0, 77, 0
2, 178150, Note_on_c, 0, 59, 0
2, 178169, Note_on_c, 0, 74, 0
2, 178271, Note_on_c, 0, 69, 0
2, 178281, Note_on_c, 0, 64, 0
2, 178314, Note_on_c, 0, 53, 0
2, 178362, Note_on_c, 0, 79, 12
2, 178363, Note_on_c, 0, 77, 55
2, 178418, Note_on_c, 0, 74, 49
2, 178433, Note_on_c, 0, 81, 0
2, 178448, Control_c, 0, 64, 0
2, 178490, Note_on_c, 0, 79, 0
2, 178527, Note_on_c, 0, 69, 46
2, 178556, Control_c, 0, 64, 127
2, 178583, Note_on_c, 0, 74, 0
2, 178638, Note_on_c, 0, 69, 0
2, 178698, Note_on_c, 0, 77, 0
2, 178750, Note_on_c, 0, 64, 66
2, 178754, Note_on_c, 0, 54, 59
2, 178758, Note_on_c, 0, 80, 71
2, 178760, Note_on_c, 0, 59, 58
2, 178777, Note_on_c, 0, 70, 67
2, 178778, Note_on_c, 0, 75, 70
2, 178780, Control_c, 0, 64, 0
2, 178943, Control_c, 0, 64, 127
2, 178960, Note_on_c, 0, 75, 0
2, 178972, Note_on_c, 0, 70, 0
2, 179029, Note_on_c, 0, 79, 47
2, 179089, Note_on_c, 0, 59, 0
2, 179125, Note_on_c, 0, 80, 0
2, 179141, Note_on_c, 0, 54, 0
2, 179154, Note_on_c, 0, 75, 45
2, 179193, Note_on_c, 0, 64, 0
2, 179234, Note_on_c, 0, 79, 0
2, 179240, Note_on_c, 0, 75, 0
2, 179252, Note_on_c, 0, 76, 26
2, 179281, Note_on_c, 0, 76, 0
2, 179294, Control_c, 0, 64, 0
2, 179308, Note_on_c, 0, 65, 68
2, 179312, Note_on_c, 0, 55, 66
2, 179317, Note_on_c, 0, 81, 68
2, 179318, Note_on_c, 0, 60, 69
2, 179346, Note_on_c, 0, 76, 59
2, 179348, Note_on_c, 0, 69, 26
2, 179417, Note_on_c, 0, 69, 0
2, 179467, Note_on_c, 0, 76, 0
2, 179513, Note_on_c, 0, 81, 0
2, 179661, Control_c, 0, 64, 127
2, 179738, Note_on_c, 0, 55, 0
2, 179785, Note_on_c, 0, 65, 0
2, 179787, Note_on_c, 0, 60, 0
2, 179905, Note_on_c, 0, 56, 69
2, 179911, Note_on_c, 0, 66, 74
2, 179921, Note_on_c, 0, 61, 64
2, 179939, Control_c, 0, 64, 0
2, 180128, Control_c, 0, 64, 127
2, 180367, Note_on_c, 0, 56, 0
2, 180378, Note_on_c, 0, 66, 0
2, 180385, Note_on_c, 0, 61, 0
2, 180398, Control_c, 0, 64, 0
2, 180442, Note_on_c, 0, 67, 40
2, 180447, Note_on_c, 0, 62, 54
2, 180449, Note_on_c, 0, 57, 62
2, 180450, Note_on_c, 0, 84, 68
2, 180678, Note_on_c, 0, 85, 51
2, 180745, Note_on_c, 0, 84, 0
2, 180806, Note_on_c, 0, 57, 0
2, 180806, Note_on_c, 0, 85, 0
2, 180819, Note_on_c, 0, 62, 0
2, 180829, Control_c, 0, 64, 127
2, 180843, Note_on_c, 0, 86, 41
2, 180973, Note_on_c, 0, 67, 0
2, 181001, Note_on_c, 0, 86, 0
2, 181062, Note_on_c, 0, 87, 74
2, 181066, Note_on_c, 0, 67, 40
2, 181078, Note_on_c, 0, 63, 62
2, 181081, Control_c, 0, 64, 0
2, 181085, Note_on_c, 0, 58, 64
2, 181195, Note_on_c, 0, 87, 0
2, 181252, Note_on_c, 0, 89, 68
2, 181469, Note_on_c, 0, 89, 0
2, 181502, Note_on_c, 0, 83, 26
2, 181550, Note_on_c, 0, 83, 0
2, 181610, Note_on_c, 0, 67, 0
2, 181611, Note_on_c, 0, 58, 0
2, 181636, Note_on_c, 0, 84, 36
2, 181683, Note_on_c, 0, 63, 0
2, 181798, Note_on_c, 0, 84, 0
2, 181842, Note_on_c, 0, 86, 64
2, 181858, Note_on_c, 0, 63, 40
2, 181860, Note_on_c, 0, 67, 36
2, 181864, Note_on_c, 0, 58, 37
2, 181900, Note_on_c, 0, 67, 0
2, 181925, Note_on_c, 0, 58, 0
2, 181939, Note_on_c, 0, 86, 0
2, 181969, Control_c, 0, 64, 127
2, 181978, Note_on_c, 0, 63, 0
2, 181987, Control_c, 0, 64, 0
2, 182019, Note_on_c, 0, 87, 46
2, 182104, Control_c, 0, 64, 127
2, 182148, Note_on_c, 0, 87, 0
2, 182219, Note_on_c, 0, 89, 72
2, 182224, Note_on_c, 0, 63, 54
2, 182226, Note_on_c, 0, 58, 53
2, 182229, Note_on_c, 0, 67, 51
2, 182263, Note_on_c, 0, 67, 0
2, 182284, Control_c, 0, 64, 0
2, 182311, Note_on_c, 0, 63, 0
2, 182314, Note_on_c, 0, 89, 0
2, 182317, Note_on_c, 0, 58, 0
2, 182477, Note_on_c, 0, 91, 17
2, 182554, Note_on_c, 0, 91, 0
2, 182571, Control_c, 0, 64, 127
2, 182606, Note_on_c, 0, 93, 70
2, 182609, Note_on_c, 0, 53, 63
2, 182610, Note_on_c, 0, 63, 73
2, 182619, Note_on_c, 0, 58, 58
2, 182625, Control_c, 0, 64, 0
2, 182718, Note_on_c, 0, 93, 0
2, 182815, Note_on_c, 0, 94, 47
2, 182955, Note_on_c, 0, 94, 0
2, 183004, Note_on_c, 0, 95, 76
2, 183103, Note_on_c, 0, 95, 0
2, 183155, Control_c, 0, 64, 127
2, 183173, Control_c, 0, 64, 0
2, 183185, Note_on_c, 0, 97, 59
2, 183272, Note_on_c, 0, 53, 0
2, 183290, Control_c, 0, 64, 127
2, 183320, Note_on_c, 0, 97, 0
2, 183335, Note_on_c, 0, 63, 0
2, 183355, Note_on_c, 0, 58, 0
2, 183367, Note_on_c, 0, 64, 55
2, 183371, Control_c, 0, 64, 0
2, 183378, Note_on_c, 0, 59, 72
2, 183380, Note_on_c, 0, 99, 63
2, 183382, Note_on_c, 0, 54, 69
2, 183492, Note_on_c, 0, 99, 0
2, 183594, Note_on_c, 0, 101, 62
2, 183722, Note_on_c, 0, 101, 0
2, 183793, Note_on_c, 0, 103, 71
2, 183891, Note_on_c, 0, 103, 0
2, 183942, Note_on_c, 0, 59, 0
2, 183955, Control_c, 0, 64, 127
2, 183956, Note_on_c, 0, 105, 65
2, 184000, Note_on_c, 0, 54, 0
2, 184000, Control_c, 0, 64, 0
2, 184027, Control_c, 0, 64, 127
2, 184048, Note_on_c, 0, 64, 0
2, 184077, Note_on_c, 0, 105, 0
2, 184141, Note_on_c, 0, 65, 71
2, 184148, Note_on_c, 0, 106, 74
2, 184150, Note_on_c, 0, 62, 54
2, 184152, Note_on_c, 0, 60, 46
2, 184215, Control_c, 0, 64, 0
2, 184275, Note_on_c, 0, 106, 0
2, 184331, Note_on_c, 0, 65, 0
2, 184379, Note_on_c, 0, 107, 74
2, 184461, Note_on_c, 0, 107, 0
2, 184528, Note_on_c, 0, 108, 94
2, 184584, Note_on_c, 0, 53, 61
2, 184737, Note_on_c, 0, 108, 0
2, 184738, Note_on_c, 0, 105, 84
2, 184858, Note_on_c, 0, 62, 0
2, 184873, Note_on_c, 0, 105, 0
2, 184943, Note_on_c, 0, 101, 71
2, 184951, Note_on_c, 0, 62, 35
2, 184955, Note_on_c, 0, 65, 60
2, 185090, Note_on_c, 0, 101, 0
2, 185138, Note_on_c, 0, 98, 37
2, 185188, Note_on_c, 0, 65, 0
2, 185230, Note_on_c, 0, 62, 0
2, 185243, Note_on_c, 0, 60, 0
2, 185267, Note_on_c, 0, 98, 0
2, 185335, Note_on_c, 0, 62, 48
2, 185353, Note_on_c, 0, 65, 32
2, 185364, Note_on_c, 0, 96, 50
2, 185393, Note_on_c, 0, 65, 0
2, 185398, Note_on_c, 0, 96, 0
2, 185478, Note_on_c, 0, 101, 75
2, 185528, Note_on_c, 0, 62, 0
2, 185568, Note_on_c, 0, 101, 0
2, 185620, Note_on_c, 0, 101, 73
2, 185731, Note_on_c, 0, 101, 0
2, 185766, Note_on_c, 0, 62, 30
2, 185772, Note_on_c, 0, 65, 36
2, 185789, Note_on_c, 0, 60, 28
2, 185791, Note_on_c, 0, 89, 31
2, 185800, Note_on_c, 0, 91, 26
2, 185822, Note_on_c, 0, 65, 0
2, 185836, Note_on_c, 0, 91, 0
2, 185843, Note_on_c, 0, 89, 0
2, 185882, Note_on_c, 0, 60, 0
2, 185929, Note_on_c, 0, 91, 36
2, 185931, Note_on_c, 0, 62, 0
2, 186003, Note_on_c, 0, 91, 0
2, 186052, Note_on_c, 0, 98, 75
2, 186082, Note_on_c, 0, 62, 38
2, 186083, Note_on_c, 0, 65, 56
2, 186109, Note_on_c, 0, 60, 33
2, 186149, Note_on_c, 0, 98, 0
2, 186160, Note_on_c, 0, 65, 0
2, 186163, Note_on_c, 0, 60, 0
2, 186200, Note_on_c, 0, 98, 71
2, 186272, Note_on_c, 0, 62, 0
2, 186314, Note_on_c, 0, 98, 0
2, 186341, Note_on_c, 0, 88, 63
2, 186372, Note_on_c, 0, 88, 0
2, 186474, Note_on_c, 0, 88, 58
2, 186494, Note_on_c, 0, 65, 35
2, 186503, Note_on_c, 0, 62, 33
2, 186526, Note_on_c, 0, 60, 20
2, 186545, Note_on_c, 0, 65, 0
2, 186550, Note_on_c, 0, 88, 0
2, 186594, Note_on_c, 0, 60, 0
2, 186600, Note_on_c, 0, 96, 76
2, 186616, Note_on_c, 0, 62, 0
2, 186685, Note_on_c, 0, 96, 0
2, 186751, Note_on_c, 0, 96, 68
2, 186839, Note_on_c, 0, 96, 0
2, 186884, Note_on_c, 0, 65, 42
2, 186895, Note_on_c, 0, 62, 32
2, 186914, Note_on_c, 0, 60, 24
2, 186918, Note_on_c, 0, 84, 35
2, 186925, Note_on_c, 0, 65, 0
2, 186952, Note_on_c, 0, 62, 0
2, 186957, Note_on_c, 0, 84, 0
2, 186957, Note_on_c, 0, 60, 0
2, 187006, Note_on_c, 0, 53, 0
2, 187043, Note_on_c, 0, 84, 61
2, 187136, Note_on_c, 0, 84, 0
2, 187176, Note_on_c, 0, 93, 69
2, 187197, Control_c, 0, 64, 127
2, 187235, Note_on_c, 0, 93, 0
2, 187251, Control_c, 0, 64, 0
2, 187270, Note_on_c, 0, 56, 37
2, 187281, Note_on_c, 0, 65, 45
2, 187299, Note_on_c, 0, 60, 30
2, 187302, Note_on_c, 0, 61, 34
2, 187340, Note_on_c, 0, 89, 69
2, 187509, Note_on_c, 0, 65, 0
2, 187530, Note_on_c, 0, 89, 0
2, 187561, Note_on_c, 0, 60, 0
2, 187569, Note_on_c, 0, 56, 0
2, 187613, Note_on_c, 0, 61, 0
2, 187871, Control_c, 0, 64, 127
2, 187993, Note_on_c, 0, 60, 64
2, 187996, Note_on_c, 0, 65, 62
2, 188012, Note_on_c, 0, 56, 27
2, 188033, Control_c, 0, 64, 0
2, 188034, Note_on_c, 0, 65, 0
2, 188060, Note_on_c, 0, 60, 0
2, 188076, Note_on_c, 0, 56, 0
2, 188388, Note_on_c, 0, 89, 84
2, 188420, Note_on_c, 0, 61, 27
2, 188451, Note_on_c, 0, 61, 0
2, 188472, Note_on_c, 0, 89, 0
2, 188547, Note_on_c, 0, 87, 56
2, 188582, Note_on_c, 0, 87, 0
2, 188611, Note_on_c, 0, 89, 36
2, 188696, Note_on_c, 0, 87, 70
2, 188714, Note_on_c, 0, 89, 0
2, 188808, Note_on_c, 0, 85, 56
2, 188813, Note_on_c, 0, 61, 31
2, 188841, Note_on_c, 0, 87, 0
2, 188896, Note_on_c, 0, 61, 0
2, 188908, Note_on_c, 0, 85, 0
2, 188954, Note_on_c, 0, 84, 50
2, 189098, Note_on_c, 0, 84, 0
2, 189161, Note_on_c, 0, 82, 69
2, 189180, Note_on_c, 0, 66, 60
2, 189185, Note_on_c, 0, 61, 46
2, 189206, Note_on_c, 0, 55, 32
2, 189213, Note_on_c, 0, 66, 0
2, 189252, Note_on_c, 0, 55, 0
2, 189272, Note_on_c, 0, 82, 0
2, 189342, Note_on_c, 0, 81, 45
2, 189421, Note_on_c, 0, 61, 0
2, 189432, Note_on_c, 0, 81, 0
2, 189543, Note_on_c, 0, 78, 56
2, 189552, Note_on_c, 0, 61, 34
2, 189583, Note_on_c, 0, 61, 0
2, 189627, Note_on_c, 0, 78, 0
2, 189697, Note_on_c, 0, 79, 62
2, 189876, Note_on_c, 0, 79, 0
2, 189908, Note_on_c, 0, 76, 64
2, 189911, Note_on_c, 0, 61, 59
2, 189917, Note_on_c, 0, 64, 59
2, 189925, Note_on_c, 0, 55, 55
2, 189955, Note_on_c, 0, 64, 0
2, 189998, Note_on_c, 0, 61, 0
2, 190024, Note_on_c, 0, 76, 0
2, 190025, Note_on_c, 0, 55, 0
2, 190079, Note_on_c, 0, 75, 38
2, 190239, Note_on_c, 0, 75, 0
2, 190299, Note_on_c, 0, 73, 73
2, 190314, Note_on_c, 0, 63, 59
2, 190316, Note_on_c, 0, 53, 48
2, 190332, Note_on_c, 0, 58, 37
2, 190356, Note_on_c, 0, 53, 0
2, 190359, Note_on_c, 0, 63, 0
2, 190375, Note_on_c, 0, 73, 0
2, 190381, Note_on_c, 0, 58, 0
2, 190454, Note_on_c, 0, 72, 38
2, 190463, Note_on_c, 0, 58, 30
2, 190464, Note_on_c, 0, 53, 55
2, 190470, Note_on_c, 0, 71, 32
2, 190488, Note_on_c, 0, 72, 0
2, 190505, Note_on_c, 0, 71, 0
2, 190535, Note_on_c, 0, 75, 60
2, 190611, Control_c, 0, 64, 127
2, 190688, Note_on_c, 0, 53, 0
2, 190728, Control_c, 0, 64, 0
2, 190751, Note_on_c, 0, 58, 0
2, 190806, Note_on_c, 0, 75, 0
2, 190824, Note_on_c, 0, 63, 50
2, 190832, Note_on_c, 0, 67, 58
2, 190841, Note_on_c, 0, 58, 45
2, 190843, Note_on_c, 0, 53, 45
2, 190889, Control_c, 0, 64, 127
2, 191123, Control_c, 0, 64, 0
2, 191212, Control_c, 0, 64, 127
2, 191216, Note_on_c, 0, 53, 0
2, 191229, Note_on_c, 0, 63, 0
2, 191304, Note_on_c, 0, 58, 0
2, 191461, Note_on_c, 0, 63, 67
2, 191475, Note_on_c, 0, 58, 44
2, 191491, Note_on_c, 0, 53, 30
2, 191518, Control_c, 0, 64, 0
2, 191519, Note_on_c, 0, 63, 0
2, 191527, Note_on_c, 0, 53, 0
2, 191599, Note_on_c, 0, 58, 0
2, 191746, Note_on_c, 0, 68, 72
2, 191762, Note_on_c, 0, 67, 0
2, 191770, Control_c, 0, 64, 127
2, 191820, Note_on_c, 0, 68, 0
2, 191870, Note_on_c, 0, 70, 76
2, 191931, Control_c, 0, 64, 0
2, 191935, Note_on_c, 0, 70, 0
2, 191990, Note_on_c, 0, 62, 57
2, 192002, Note_on_c, 0, 52, 54
2, 192003, Note_on_c, 0, 58, 47
2, 192033, Note_on_c, 0, 69, 80
2, 192372, Control_c, 0, 64, 127
2, 192382, Note_on_c, 0, 52, 0
2, 192411, Note_on_c, 0, 62, 0
2, 192444, Note_on_c, 0, 58, 0
2, 192470, Note_on_c, 0, 69, 0
2, 192555, Note_on_c, 0, 70, 56
2, 192633, Note_on_c, 0, 70, 0
2, 192670, Note_on_c, 0, 72, 71
2, 192677, Control_c, 0, 64, 0
2, 192747, Note_on_c, 0, 72, 0
2, 192834, Note_on_c, 0, 62, 62
2, 192839, Note_on_c, 0, 52, 56
2, 192841, Note_on_c, 0, 58, 48
2, 192842, Note_on_c, 0, 72, 80
2, 193153, Control_c, 0, 64, 127
2, 193175, Note_on_c, 0, 52, 0
2, 193177, Note_on_c, 0, 72, 0
2, 193177, Note_on_c, 0, 71, 64
2, 193203, Note_on_c, 0, 58, 0
2, 193206, Note_on_c, 0, 62, 0
2, 193216, Control_c, 0, 64, 0
2, 193251, Note_on_c, 0, 71, 0
2, 193300, Note_on_c, 0, 72, 71
2, 193306, Control_c, 0, 64, 127
2, 193350, Control_c, 0, 64, 0
2, 193387, Note_on_c, 0, 72, 0
2, 193435, Note_on_c, 0, 74, 76
2, 193451, Note_on_c, 0, 64, 58
2, 193455, Note_on_c, 0, 72, 50
2, 193460, Note_on_c, 0, 57, 56
2, 193462, Note_on_c, 0, 60, 57
2, 193469, Note_on_c, 0, 53, 36
2, 193485, Note_on_c, 0, 72, 0
2, 193872, Control_c, 0, 64, 127
2, 193935, Note_on_c, 0, 60, 0
2, 193967, Note_on_c, 0, 64, 0
2, 194021, Note_on_c, 0, 57, 0
2, 194047, Note_on_c, 0, 53, 0
2, 194155, Note_on_c, 0, 64, 52
2, 194164, Note_on_c, 0, 60, 54
2, 194184, Note_on_c, 0, 57, 30
2, 194187, Control_c, 0, 64, 0
2, 194188, Note_on_c, 0, 64, 0
2, 194193, Note_on_c, 0, 60, 0
2, 194203, Note_on_c, 0, 74, 0
2, 194225, Note_on_c, 0, 57, 0
2, 194365, Control_c, 0, 64, 127
2, 194501, Control_c, 0, 64, 0
2, 194558, Note_on_c, 0, 60, 44
2, 194614, Note_on_c, 0, 60, 0
2, 194642, Note_on_c, 0, 76, 55
2, 194642, Note_on_c, 0, 64, 39
2, 194660, Note_on_c, 0, 69, 33
2, 194662, Control_c, 0, 64, 127
2, 194678, Note_on_c, 0, 64, 0
2, 194711, Note_on_c, 0, 69, 0
2, 194759, Note_on_c, 0, 76, 0
2, 194919, Note_on_c, 0, 77, 66
2, 194931, Note_on_c, 0, 65, 36
2, 194941, Control_c, 0, 64, 0
2, 194944, Note_on_c, 0, 67, 28
2, 194959, Note_on_c, 0, 77, 0
2, 194966, Note_on_c, 0, 65, 0
2, 194978, Note_on_c, 0, 67, 0
2, 195055, Note_on_c, 0, 79, 81
2, 195057, Note_on_c, 0, 64, 80
2, 195064, Note_on_c, 0, 72, 69
2, 195080, Note_on_c, 0, 69, 39
2, 195081, Note_on_c, 0, 67, 50
2, 195156, Control_c, 0, 64, 127
2, 195303, Note_on_c, 0, 67, 0
2, 195309, Control_c, 0, 64, 0
2, 195320, Note_on_c, 0, 69, 0
2, 195325, Note_on_c, 0, 79, 0
2, 195351, Note_on_c, 0, 72, 0
2, 195393, Note_on_c, 0, 64, 0
2, 195413, Note_on_c, 0, 77, 55
2, 195420, Note_on_c, 0, 62, 55
2, 195428, Note_on_c, 0, 69, 45
2, 195429, Note_on_c, 0, 72, 53
2, 195461, Control_c, 0, 64, 127
2, 195541, Note_on_c, 0, 72, 0
2, 195551, Note_on_c, 0, 77, 0
2, 195599, Note_on_c, 0, 69, 0
2, 195717, Note_on_c, 0, 62, 0
2, 195731, Control_c, 0, 64, 0
2, 195788, Note_on_c, 0, 76, 50
2, 195806, Note_on_c, 0, 60, 57
2, 195820, Note_on_c, 0, 65, 47
2, 195828, Note_on_c, 0, 69, 42
2, 195847, Control_c, 0, 64, 127
2, 195855, Note_on_c, 0, 72, 24
2, 195917, Note_on_c, 0, 72, 0
2, 195944, Note_on_c, 0, 65, 0
2, 195969, Note_on_c, 0, 69, 0
2, 196023, Note_on_c, 0, 76, 0
2, 196062, Note_on_c, 0, 60, 0
2, 196065, Note_on_c, 0, 65, 47
2, 196071, Note_on_c, 0, 57, 58
2, 196072, Note_on_c, 0, 72, 59
2, 196081, Control_c, 0, 64, 0
2, 196135, Note_on_c, 0, 65, 0
2, 196180, Note_on_c, 0, 57, 0
2, 196216, Control_c, 0, 64, 127
2, 196228, Note_on_c, 0, 69, 32
2, 196445, Note_on_c, 0, 72, 0
2, 196448, Note_on_c, 0, 69, 0
2, 196472, Note_on_c, 0, 65, 58
2, 196503, Control_c, 0, 64, 0
2, 196531, Note_on_c, 0, 65, 0
2, 196547, Note_on_c, 0, 56, 39
2, 196561, Note_on_c, 0, 62, 14
2, 196610, Note_on_c, 0, 79, 52
2, 196619, Note_on_c, 0, 67, 27
2, 196635, Note_on_c, 0, 72, 34
2, 196848, Note_on_c, 0, 72, 0
2, 196849, Note_on_c, 0, 62, 0
2, 196860, Note_on_c, 0, 67, 0
2, 196882, Note_on_c, 0, 56, 0
2, 196924, Note_on_c, 0, 79, 0
2, 196980, Note_on_c, 0, 56, 32
2, 196985, Note_on_c, 0, 67, 29
2, 196987, Note_on_c, 0, 62, 35
2, 196988, Note_on_c, 0, 77, 44
2, 197004, Note_on_c, 0, 72, 24
2, 197125, Note_on_c, 0, 72, 0
2, 197180, Note_on_c, 0, 67, 0
2, 197206, Note_on_c, 0, 56, 0
2, 197224, Note_on_c, 0, 77, 0
2, 197225, Note_on_c, 0, 62, 0
2, 197367, Note_on_c, 0, 79, 44
2, 197372, Note_on_c, 0, 67, 34
2, 197376, Note_on_c, 0, 56, 39
2, 197384, Note_on_c, 0, 72, 37
2, 197385, Note_on_c, 0, 76, 38
2, 197387, Note_on_c, 0, 62, 37
2, 197566, Note_on_c, 0, 67, 0
2, 197569, Note_on_c, 0, 56, 0
2, 197570, Note_on_c, 0, 72, 0
2, 197575, Note_on_c, 0, 76, 0
2, 197588, Note_on_c, 0, 62, 0
2, 197604, Note_on_c, 0, 79, 0
2, 197654, Note_on_c, 0, 77, 51
2, 197655, Note_on_c, 0, 67, 42
2, 197661, Note_on_c, 0, 56, 30
2, 197682, Note_on_c, 0, 62, 35
2, 197690, Note_on_c, 0, 67, 0
2, 197721, Note_on_c, 0, 62, 0
2, 197734, Note_on_c, 0, 56, 0
2, 197735, Note_on_c, 0, 77, 0
2, 198126, Note_on_c, 0, 62, 51
2, 198129, Note_on_c, 0, 67, 44
2, 198129, Note_on_c, 0, 56, 37
2, 198175, Note_on_c, 0, 67, 0
2, 198197, Note_on_c, 0, 62, 0
2, 198214, Note_on_c, 0, 56, 0
2, 198758, Note_on_c, 0, 67, 63
2, 198760, Note_on_c, 0, 56, 52
2, 198764, Note_on_c, 0, 62, 56
2, 198795, Note_on_c, 0, 67, 0
2, 198828, Note_on_c, 0, 62, 0
2, 198855, Note_on_c, 0, 56, 0
2, 199164, Note_on_c, 0, 62, 62
2, 199167, Note_on_c, 0, 56, 49
2, 199183, Note_on_c, 0, 67, 31
2, 199197, Note_on_c, 0, 62, 0
2, 199217, Note_on_c, 0, 67, 0
2, 199232, Note_on_c, 0, 56, 0
2, 199306, Note_on_c, 0, 79, 57
2, 199373, Note_on_c, 0, 80, 34
2, 199420, Note_on_c, 0, 79, 0
2, 199458, Note_on_c, 0, 80, 0
2, 199466, Note_on_c, 0, 81, 55
2, 199500, Note_on_c, 0, 81, 0
2, 199543, Note_on_c, 0, 84, 73
2, 199565, Note_on_c, 0, 72, 55
2, 199566, Note_on_c, 0, 58, 38
2, 199567, Note_on_c, 0, 62, 54
2, 199568, Note_on_c, 0, 74, 57
2, 199597, Note_on_c, 0, 74, 0
2, 199609, Note_on_c, 0, 62, 0
2, 199628, Note_on_c, 0, 84, 0
2, 199650, Note_on_c, 0, 58, 0
2, 199650, Note_on_c, 0, 72, 0
2, 199717, Note_on_c, 0, 84, 60
2, 199733, Note_on_c, 0, 72, 44
2, 199952, Note_on_c, 0, 62, 22
2, 199974, Note_on_c, 0, 58, 25
2, 199977, Note_on_c, 0, 72, 0
2, 200004, Note_on_c, 0, 84, 0
2, 200014, Note_on_c, 0, 62, 0
2, 200043, Note_on_c, 0, 80, 27
2, 200070, Note_on_c, 0, 58, 0
2, 200117, Note_on_c, 0, 80, 0
2, 200155, Note_on_c, 0, 81, 38
2, 200257, Note_on_c, 0, 81, 0
2, 200299, Note_on_c, 0, 84, 84
2, 200300, Note_on_c, 0, 62, 48
2, 200317, Note_on_c, 0, 58, 39
2, 200329, Note_on_c, 0, 57, 29
2, 200349, Note_on_c, 0, 62, 0
2, 200386, Note_on_c, 0, 58, 0
2, 200426, Note_on_c, 0, 84, 0
2, 200453, Note_on_c, 0, 57, 0
2, 200487, Note_on_c, 0, 84, 68
2, 200697, Note_on_c, 0, 62, 42
2, 200699, Note_on_c, 0, 58, 39
2, 200712, Note_on_c, 0, 84, 0
2, 200734, Note_on_c, 0, 62, 0
2, 200766, Note_on_c, 0, 58, 0
2, 200849, Note_on_c, 0, 72, 24
2, 200915, Note_on_c, 0, 72, 0
2, 200997, Control_c, 0, 64, 127
2, 201060, Control_c, 0, 64, 0
2, 201061, Note_on_c, 0, 85, 74
2, 201066, Note_on_c, 0, 63, 77
2, 201067, Note_on_c, 0, 73, 64
2, 201069, Note_on_c, 0, 58, 64
2, 201087, Note_on_c, 0, 52, 54
2, 201118, Note_on_c, 0, 52, 0
2, 201122, Note_on_c, 0, 63, 0
2, 201177, Note_on_c, 0, 58, 0
2, 201186, Note_on_c, 0, 85, 0
2, 201303, Note_on_c, 0, 73, 0
2, 201307, Note_on_c, 0, 85, 68
2, 201340, Note_on_c, 0, 73, 35
2, 201493, Note_on_c, 0, 73, 0
2, 201512, Note_on_c, 0, 36, 62
2, 201537, Note_on_c, 0, 85, 0
2, 201543, Note_on_c, 0, 36, 0
2, 201848, Note_on_c, 0, 58, 59
2, 201851, Note_on_c, 0, 63, 62
2, 201855, Note_on_c, 0, 85, 60
2, 201873, Note_on_c, 0, 73, 32
2, 201881, Note_on_c, 0, 63, 0
2, 201885, Note_on_c, 0, 85, 0
2, 201904, Note_on_c, 0, 73, 0
2, 201913, Note_on_c, 0, 58, 0
2, 202090, Note_on_c, 0, 87, 82
2, 202093, Note_on_c, 0, 63, 72
2, 202096, Note_on_c, 0, 75, 80
2, 202098, Note_on_c, 0, 52, 73
2, 202099, Note_on_c, 0, 58, 60
2, 202102, Note_on_c, 0, 82, 71
2, 202138, Control_c, 0, 64, 127
2, 202246, Control_c, 0, 64, 0
2, 202248, Note_on_c, 0, 87, 0
2, 202251, Note_on_c, 0, 63, 0
2, 202255, Note_on_c, 0, 75, 0
2, 202256, Note_on_c, 0, 52, 0
2, 202308, Note_on_c, 0, 82, 0
2, 202316, Note_on_c, 0, 58, 0
2, 202346, Note_on_c, 0, 63, 50
2, 202348, Note_on_c, 0, 52, 44
2, 202351, Note_on_c, 0, 58, 20
2, 202367, Note_on_c, 0, 85, 59
2, 202373, Note_on_c, 0, 73, 52
2, 202387, Note_on_c, 0, 80, 47
2, 202399, Control_c, 0, 64, 127
2, 202443, Note_on_c, 0, 52, 0
2, 202493, Note_on_c, 0, 58, 0
2, 202507, Note_on_c, 0, 63, 0
2, 202508, Note_on_c, 0, 80, 0
2, 202509, Note_on_c, 0, 85, 0
2, 202515, Note_on_c, 0, 73, 0
2, 202614, Control_c, 0, 64, 0
2, 202619, Note_on_c, 0, 84, 54
2, 202623, Note_on_c, 0, 64, 47
2, 202627, Note_on_c, 0, 53, 47
2, 202640, Note_on_c, 0, 60, 40
2, 202641, Note_on_c, 0, 72, 49
2, 202647, Note_on_c, 0, 79, 44
2, 202653, Note_on_c, 0, 57, 32
2, 202680, Note_on_c, 0, 60, 0
2, 202682, Note_on_c, 0, 53, 0
2, 202683, Note_on_c, 0, 72, 0
2, 202698, Note_on_c, 0, 57, 0
2, 202703, Note_on_c, 0, 64, 0
2, 202721, Note_on_c, 0, 79, 0
2, 202733, Note_on_c, 0, 84, 0
2, 202814, Control_c, 0, 64, 127
2, 202985, Control_c, 0, 64, 0
2, 203006, Note_on_c, 0, 86, 70
2, 203015, Note_on_c, 0, 57, 44
2, 203016, Note_on_c, 0, 62, 53
2, 203017, Note_on_c, 0, 67, 51
2, 203019, Note_on_c, 0, 74, 52
2, 203020, Note_on_c, 0, 79, 49
2, 203049, Note_on_c, 0, 74, 0
2, 203051, Note_on_c, 0, 79, 0
2, 203053, Note_on_c, 0, 67, 0
2, 203058, Note_on_c, 0, 57, 0
2, 203082, Note_on_c, 0, 86, 0
2, 203085, Note_on_c, 0, 62, 0
2, 203134, Note_on_c, 0, 67, 49
2, 203134, Note_on_c, 0, 57, 68
2, 203143, Note_on_c, 0, 62, 66
2, 203153, Note_on_c, 0, 89, 82
2, 203158, Note_on_c, 0, 77, 76
2, 203245, Control_c, 0, 64, 127
2, 203317, Note_on_c, 0, 67, 0
2, 203318, Note_on_c, 0, 62, 0
2, 203357, Note_on_c, 0, 77, 0
2, 203367, Note_on_c, 0, 57, 0
2, 203369, Note_on_c, 0, 89, 0
2, 203443, Control_c, 0, 64, 0
2, 203500, Note_on_c, 0, 54, 71
2, 203508, Note_on_c, 0, 65, 64
2, 203513, Note_on_c, 0, 92, 77
2, 203514, Note_on_c, 0, 60, 65
2, 203517, Note_on_c, 0, 80, 68
2, 203631, Control_c, 0, 64, 127
2, 203691, Note_on_c, 0, 65, 0
2, 203707, Note_on_c, 0, 54, 0
2, 203709, Note_on_c, 0, 80, 0
2, 203713, Note_on_c, 0, 92, 0
2, 203721, Note_on_c, 0, 60, 0
2, 203775, Control_c, 0, 64, 0
2, 203777, Note_on_c, 0, 93, 64
2, 203798, Note_on_c, 0, 81, 38
2, 203806, Note_on_c, 0, 60, 59
2, 203807, Note_on_c, 0, 87, 26
2, 203808, Note_on_c, 0, 65, 46
2, 203817, Note_on_c, 0, 93, 0
2, 203836, Note_on_c, 0, 81, 0
2, 203838, Note_on_c, 0, 87, 0
2, 203882, Note_on_c, 0, 54, 7
2, 203904, Note_on_c, 0, 82, 62
2, 203910, Note_on_c, 0, 94, 72
2, 203943, Note_on_c, 0, 92, 30
2, 203954, Control_c, 0, 64, 127
2, 203992, Note_on_c, 0, 92, 0
2, 204004, Note_on_c, 0, 65, 0
2, 204026, Note_on_c, 0, 60, 0
2, 204028, Note_on_c, 0, 82, 0
2, 204033, Note_on_c, 0, 94, 0
2, 204114, Note_on_c, 0, 54, 0
2, 204138, Note_on_c, 0, 95, 64
2, 204146, Note_on_c, 0, 83, 60
2, 204153, Control_c, 0, 64, 0
2, 204169, Note_on_c, 0, 95, 0
2, 204178, Note_on_c, 0, 83, 0
2, 204178, Note_on_c, 0, 58, 21
2, 204187, Note_on_c, 0, 57, 33
2, 204196, Note_on_c, 0, 53, 25
2, 204226, Note_on_c, 0, 57, 0
2, 204229, Note_on_c, 0, 53, 0
2, 204229, Note_on_c, 0, 58, 0
2, 204264, Note_on_c, 0, 53, 33
2, 204270, Note_on_c, 0, 62, 62
2, 204276, Note_on_c, 0, 58, 30
2, 204279, Note_on_c, 0, 84, 54
2, 204280, Note_on_c, 0, 98, 64
2, 204282, Note_on_c, 0, 96, 69
2, 204287, Note_on_c, 0, 57, 42
2, 204289, Note_on_c, 0, 86, 57
2, 204310, Note_on_c, 0, 98, 0
2, 204316, Note_on_c, 0, 86, 0
2, 204347, Note_on_c, 0, 84, 0
2, 204348, Note_on_c, 0, 96, 0
2, 204388, Note_on_c, 0, 62, 0
2, 204403, Note_on_c, 0, 53, 0
2, 204411, Note_on_c, 0, 57, 0
2, 204450, Note_on_c, 0, 58, 0
2, 204520, Note_on_c, 0, 92, 69
2, 204528, Note_on_c, 0, 80, 63
2, 204535, Note_on_c, 0, 58, 55
2, 204541, Note_on_c, 0, 86, 51
2, 204543, Note_on_c, 0, 62, 69
2, 204544, Note_on_c, 0, 53, 64
2, 204547, Note_on_c, 0, 93, 62
2, 204553, Note_on_c, 0, 57, 57
2, 204558, Note_on_c, 0, 80, 0
2, 204586, Note_on_c, 0, 57, 0
2, 204614, Note_on_c, 0, 62, 0
2, 204621, Note_on_c, 0, 93, 0
2, 204623, Note_on_c, 0, 92, 0
2, 204634, Note_on_c, 0, 53, 0
2, 204655, Note_on_c, 0, 86, 0
2, 204658, Note_on_c, 0, 58, 0
2, 204716, Note_on_c, 0, 89, 67
2, 204723, Note_on_c, 0, 53, 53
2, 204730, Note_on_c, 0, 58, 48
2, 204734, Note_on_c, 0, 77, 68
2, 204735, Note_on_c, 0, 62, 50
2, 204739, Note_on_c, 0, 57, 55
2, 204807, Note_on_c, 0, 62, 0
2, 204812, Note_on_c, 0, 77, 0
2, 204817, Control_c, 0, 64, 127
2, 204826, Note_on_c, 0, 89, 0
2, 204854, Note_on_c, 0, 58, 0
2, 204869, Note_on_c, 0, 57, 0
2, 204936, Note_on_c, 0, 86, 44
2, 204937, Note_on_c, 0, 58, 50
2, 204938, Note_on_c, 0, 74, 58
2, 204952, Control_c, 0, 64, 0
2, 204967, Note_on_c, 0, 74, 0
2, 204970, Note_on_c, 0, 53, 0
2, 204993, Note_on_c, 0, 86, 0
2, 205002, Note_on_c, 0, 58, 0
2, 205054, Note_on_c, 0, 62, 53
2, 205066, Note_on_c, 0, 58, 56
2, 205074, Note_on_c, 0, 52, 52
2, 205077, Note_on_c, 0, 77, 66
2, 205078, Note_on_c, 0, 89, 68
2, 205113, Note_on_c, 0, 52, 0
2, 205126, Note_on_c, 0, 77, 0
2, 205127, Note_on_c, 0, 62, 0
2, 205137, Note_on_c, 0, 58, 0
2, 205148, Note_on_c, 0, 89, 0
2, 205300, Note_on_c, 0, 62, 76
2, 205303, Note_on_c, 0, 58, 70
2, 205307, Note_on_c, 0, 52, 76
2, 205311, Note_on_c, 0, 91, 83
2, 205321, Note_on_c, 0, 79, 57
2, 205328, Note_on_c, 0, 81, 63
2, 205359, Note_on_c, 0, 81, 0
2, 205369, Note_on_c, 0, 62, 0
2, 205373, Note_on_c, 0, 58, 0
2, 205386, Note_on_c, 0, 79, 0
2, 205409, Note_on_c, 0, 91, 0
2, 205428, Note_on_c, 0, 58, 37
2, 205436, Note_on_c, 0, 62, 65
2, 205458, Note_on_c, 0, 89, 62
2, 205467, Note_on_c, 0, 77, 60
2, 205574, Note_on_c, 0, 89, 0
2, 205582, Note_on_c, 0, 77, 0
2, 205621, Note_on_c, 0, 52, 0
2, 205635, Control_c, 0, 64, 127
2, 205667, Note_on_c, 0, 58, 0
2, 205680, Note_on_c, 0, 62, 0
2, 205697, Control_c, 0, 64, 0
2, 205711, Note_on_c, 0, 86, 54
2, 205713, Note_on_c, 0, 74, 55
2, 205743, Note_on_c, 0, 74, 0
2, 205746, Note_on_c, 0, 86, 0
2, 205773, Note_on_c, 0, 64, 35
2, 205799, Note_on_c, 0, 60, 38
2, 205805, Note_on_c, 0, 53, 38
2, 205806, Note_on_c, 0, 57, 52
2, 205834, Note_on_c, 0, 77, 74
2, 205840, Note_on_c, 0, 89, 69
2, 205985, Note_on_c, 0, 77, 0
2, 205986, Note_on_c, 0, 89, 0
2, 206007, Note_on_c, 0, 64, 0
2, 206012, Note_on_c, 0, 60, 0
2, 206031, Note_on_c, 0, 57, 0
2, 206034, Note_on_c, 0, 53, 0
2, 206071, Note_on_c, 0, 91, 70
2, 206073, Note_on_c, 0, 79, 57
2, 206089, Note_on_c, 0, 64, 53
2, 206090, Note_on_c, 0, 85, 32
2, 206100, Note_on_c, 0, 53, 15
2, 206106, Note_on_c, 0, 60, 53
2, 206119, Note_on_c, 0, 57, 39
2, 206121, Note_on_c, 0, 85, 0
2, 206127, Note_on_c, 0, 79, 0
2, 206139, Note_on_c, 0, 60, 0
2, 206140, Note_on_c, 0, 91, 0
2, 206165, Note_on_c, 0, 57, 0
2, 206195, Note_on_c, 0, 89, 55
2, 206198, Note_on_c, 0, 60, 26
2, 206204, Note_on_c, 0, 57, 24
2, 206217, Note_on_c, 0, 77, 60
2, 206387, Note_on_c, 0, 60, 0
2, 206399, Note_on_c, 0, 77, 0
2, 206415, Note_on_c, 0, 53, 0
2, 206416, Note_on_c, 0, 64, 0
2, 206421, Note_on_c, 0, 57, 0
2, 206443, Note_on_c, 0, 89, 0
2, 206560, Note_on_c, 0, 64, 62
2, 206569, Note_on_c, 0, 89, 55
2, 206579, Note_on_c, 0, 77, 51
2, 206582, Note_on_c, 0, 53, 31
2, 206585, Note_on_c, 0, 60, 52
2, 206587, Note_on_c, 0, 57, 42
2, 206595, Note_on_c, 0, 64, 0
2, 206616, Note_on_c, 0, 60, 0
2, 206631, Note_on_c, 0, 57, 0
2, 206639, Note_on_c, 0, 77, 0
2, 206644, Note_on_c, 0, 89, 0
2, 206671, Note_on_c, 0, 53, 0
2, 206944, Note_on_c, 0, 53, 82
2, 206951, Note_on_c, 0, 41, 77
2, 206955, Note_on_c, 0, 52, 71
2, 206959, Note_on_c, 0, 40, 63
2, 206986, Note_on_c, 0, 52, 0
2, 206988, Note_on_c, 0, 40, 0
2, 207124, Note_on_c, 0, 53, 0
2, 207129, Note_on_c, 0, 41, 0
2, 207693, Control_c, 0, 64, 127
2, 207802, Control_c, 0, 64, 0
2, 207970, Note_on_c, 0, 51, 45
2, 207994, Note_on_c, 0, 52, 75
2, 207999, Note_on_c, 0, 51, 0
2, 208069, Note_on_c, 0, 65, 49
2, 208071, Note_on_c, 0, 57, 49
2, 208089, Note_on_c, 0, 52, 0
2, 208091, Note_on_c, 0, 60, 52
2, 208094, Note_on_c, 0, 62, 37
2, 208132, Note_on_c, 0, 53, 59
2, 208231, Note_on_c, 0, 65, 0
2, 208254, Note_on_c, 0, 57, 0
2, 208261, Note_on_c, 0, 60, 0
2, 208262, Note_on_c, 0, 53, 0
2, 208279, Note_on_c, 0, 62, 0
2, 208333, Note_on_c, 0, 67, 68
2, 208342, Note_on_c, 0, 57, 51
2, 208343, Note_on_c, 0, 55, 63
2, 208345, Note_on_c, 0, 60, 69
2, 208420, Note_on_c, 0, 57, 0
2, 208434, Note_on_c, 0, 67, 0
2, 208454, Note_on_c, 0, 55, 0
2, 208460, Note_on_c, 0, 53, 45
2, 208471, Note_on_c, 0, 60, 0
2, 208492, Note_on_c, 0, 65, 32
2, 208530, Note_on_c, 0, 60, 15
2, 208624, Note_on_c, 0, 60, 0
2, 208734, Note_on_c, 0, 51, 46
2, 208744, Note_on_c, 0, 53, 0
2, 208780, Note_on_c, 0, 65, 0
2, 208831, Note_on_c, 0, 51, 0
2, 208848, Note_on_c, 0, 56, 61
2, 208853, Note_on_c, 0, 67, 50
2, 208853, Note_on_c, 0, 55, 67
2, 208858, Note_on_c, 0, 60, 66
2, 208874, Note_on_c, 0, 64, 36
2, 209099, Note_on_c, 0, 67, 0
2, 209138, Note_on_c, 0, 64, 0
2, 209140, Note_on_c, 0, 56, 0
2, 209147, Note_on_c, 0, 60, 0
2, 209219, Note_on_c, 0, 66, 46
2, 209240, Note_on_c, 0, 54, 50
2, 209241, Note_on_c, 0, 56, 36
2, 209242, Note_on_c, 0, 55, 0
2, 209269, Note_on_c, 0, 60, 35
2, 209409, Note_on_c, 0, 56, 0
2, 209418, Note_on_c, 0, 60, 0
2, 209424, Note_on_c, 0, 66, 0
2, 209496, Note_on_c, 0, 56, 48
2, 209502, Note_on_c, 0, 65, 56
2, 209506, Note_on_c, 0, 54, 0
2, 209521, Note_on_c, 0, 60, 44
2, 209532, Note_on_c, 0, 53, 68
2, 209551, Note_on_c, 0, 60, 0
2, 209554, Note_on_c, 0, 56, 0
2, 209587, Note_on_c, 0, 53, 0
2, 209593, Note_on_c, 0, 65, 0
2, 209634, Control_c, 0, 64, 127
2, 209886, Control_c, 0, 64, 0
2, 209958, Control_c, 0, 64, 127
2, 210353, Control_c, 0, 64, 0
2, 210381, Note_on_c, 0, 81, 72
2, 210384, Note_on_c, 0, 77, 79
2, 210387, Note_on_c, 0, 78, 69
2, 210391, Note_on_c, 0, 89, 75
2, 210413, Note_on_c, 0, 84, 46
2, 210428, Note_on_c, 0, 87, 27
2, 210533, Control_c, 0, 64, 127
2, 210564, Note_on_c, 0, 89, 0
2, 210568, Note_on_c, 0, 84, 0
2, 210571, Note_on_c, 0, 81, 0
2, 210577, Note_on_c, 0, 87, 0
2, 210591, Note_on_c, 0, 77, 0
2, 210640, Note_on_c, 0, 78, 0
2, 210694, Control_c, 0, 64, 0
2, 210750, Note_on_c, 0, 86, 64
2, 210758, Note_on_c, 0, 78, 48
2, 210759, Note_on_c, 0, 74, 68
2, 210766, Note_on_c, 0, 75, 40
2, 210783, Note_on_c, 0, 81, 49
2, 210855, Control_c, 0, 64, 127
2, 210905, Note_on_c, 0, 86, 0
2, 210920, Note_on_c, 0, 81, 0
2, 210950, Note_on_c, 0, 74, 0
2, 210954, Note_on_c, 0, 78, 0
2, 210984, Note_on_c, 0, 75, 0
2, 211071, Control_c, 0, 64, 0
2, 211126, Note_on_c, 0, 83, 72
2, 211132, Note_on_c, 0, 71, 57
2, 211139, Note_on_c, 0, 78, 50
2, 211140, Note_on_c, 0, 72, 41
2, 211141, Note_on_c, 0, 75, 54
2, 211224, Control_c, 0, 64, 127
2, 211270, Note_on_c, 0, 83, 0
2, 211317, Note_on_c, 0, 78, 0
2, 211338, Note_on_c, 0, 75, 0
2, 211348, Note_on_c, 0, 72, 0
2, 211385, Note_on_c, 0, 71, 0
2, 211458, Control_c, 0, 64, 0
2, 211489, Note_on_c, 0, 80, 56
2, 211502, Note_on_c, 0, 68, 64
2, 211506, Note_on_c, 0, 73, 49
2, 211512, Note_on_c, 0, 75, 42
2, 211516, Note_on_c, 0, 69, 34
2, 211527, Note_on_c, 0, 71, 33
2, 211562, Note_on_c, 0, 71, 0
2, 211584, Control_c, 0, 64, 127
2, 211670, Note_on_c, 0, 80, 0
2, 211674, Note_on_c, 0, 69, 0
2, 211692, Note_on_c, 0, 73, 0
2, 211735, Note_on_c, 0, 68, 0
2, 211757, Note_on_c, 0, 63, 31
2, 211777, Note_on_c, 0, 75, 0
2, 211834, Note_on_c, 0, 63, 0
2, 211845, Control_c, 0, 64, 0
2, 211864, Note_on_c, 0, 65, 62
2, 211879, Note_on_c, 0, 74, 47
2, 211885, Note_on_c, 0, 70, 52
2, 211889, Note_on_c, 0, 77, 48
2, 211905, Note_on_c, 0, 67, 33
2, 211988, Control_c, 0, 64, 127
2, 212019, Note_on_c, 0, 74, 0
2, 212026, Note_on_c, 0, 77, 0
2, 212081, Note_on_c, 0, 70, 0
2, 212148, Note_on_c, 0, 67, 0
2, 212152, Note_on_c, 0, 65, 0
2, 212229, Note_on_c, 0, 61, 46
2, 212231, Control_c, 0, 64, 0
2, 212272, Note_on_c, 0, 62, 59
2, 212286, Note_on_c, 0, 74, 39
2, 212287, Note_on_c, 0, 70, 37
2, 212291, Note_on_c, 0, 65, 55
2, 212303, Note_on_c, 0, 67, 57
2, 212356, Note_on_c, 0, 61, 0
2, 212356, Control_c, 0, 64, 127
2, 212397, Note_on_c, 0, 74, 0
2, 212412, Note_on_c, 0, 67, 0
2, 212420, Note_on_c, 0, 70, 0
2, 212456, Note_on_c, 0, 65, 0
2, 212493, Note_on_c, 0, 62, 0
2, 212626, Control_c, 0, 64, 0
2, 212669, Note_on_c, 0, 57, 44
2, 212671, Note_on_c, 0, 69, 55
2, 212676, Note_on_c, 0, 62, 53
2, 212690, Note_on_c, 0, 65, 50
2, 212767, Note_on_c, 0, 58, 6
2, 212778, Control_c, 0, 64, 127
2, 212862, Note_on_c, 0, 65, 0
2, 212933, Note_on_c, 0, 58, 0
2, 212936, Note_on_c, 0, 62, 0
2, 212965, Note_on_c, 0, 69, 0
2, 213002, Control_c, 0, 64, 0
2, 213036, Note_on_c, 0, 57, 0
2, 213048, Note_on_c, 0, 58, 53
2, 213063, Note_on_c, 0, 65, 49
2, 213066, Note_on_c, 0, 62, 28
2, 213067, Note_on_c, 0, 53, 49
2, 213138, Control_c, 0, 64, 127
2, 213264, Note_on_c, 0, 62, 0
2, 213277, Note_on_c, 0, 65, 0
2, 213302, Note_on_c, 0, 58, 0
2, 213348, Note_on_c, 0, 53, 0
2, 213416, Control_c, 0, 64, 0
2, 213524, Control_c, 0, 64, 127
2, 213739, Note_on_c, 0, 75, 86
2, 213742, Note_on_c, 0, 67, 89
2, 213744, Note_on_c, 0, 70, 83
2, 213747, Note_on_c, 0, 64, 90
2, 213750, Control_c, 0, 64, 0
2, 213766, Note_on_c, 0, 63, 95
2, 213777, Note_on_c, 0, 73, 32
2, 213808, Note_on_c, 0, 73, 0
2, 213937, Control_c, 0, 64, 127
2, 214144, Note_on_c, 0, 64, 0
2, 214157, Note_on_c, 0, 67, 0
2, 214158, Note_on_c, 0, 70, 0
2, 214171, Control_c, 0, 64, 0
2, 214198, Note_on_c, 0, 75, 0
2, 214215, Note_on_c, 0, 73, 58
2, 214224, Note_on_c, 0, 63, 0
2, 214233, Note_on_c, 0, 61, 51
2, 214238, Note_on_c, 0, 70, 44
2, 214244, Note_on_c, 0, 64, 26
2, 214252, Note_on_c, 0, 67, 31
2, 214305, Control_c, 0, 64, 127
2, 214319, Note_on_c, 0, 67, 0
2, 214336, Note_on_c, 0, 64, 0
2, 214360, Note_on_c, 0, 73, 0
2, 214379, Note_on_c, 0, 70, 0
2, 214436, Note_on_c, 0, 61, 0
2, 214482, Note_on_c, 0, 72, 64
2, 214487, Note_on_c, 0, 64, 50
2, 214503, Note_on_c, 0, 60, 56
2, 214548, Control_c, 0, 64, 0
2, 214549, Note_on_c, 0, 64, 0
2, 214583, Note_on_c, 0, 72, 0
2, 214593, Note_on_c, 0, 60, 0
2, 214599, Note_on_c, 0, 58, 42
2, 214640, Note_on_c, 0, 70, 39
2, 214718, Control_c, 0, 64, 127
2, 214925, Note_on_c, 0, 70, 0
2, 214925, Note_on_c, 0, 56, 35
2, 214934, Control_c, 0, 64, 0
2, 214939, Note_on_c, 0, 58, 0
2, 214993, Note_on_c, 0, 56, 0
2, 214996, Note_on_c, 0, 62, 44
2, 214997, Note_on_c, 0, 57, 55
2, 215005, Note_on_c, 0, 72, 36
2, 215007, Note_on_c, 0, 67, 41
2, 215105, Control_c, 0, 64, 127
2, 215220, Note_on_c, 0, 57, 0
2, 215276, Note_on_c, 0, 62, 0
2, 215320, Control_c, 0, 64, 0
2, 215321, Note_on_c, 0, 67, 0
2, 215345, Note_on_c, 0, 72, 0
2, 215402, Note_on_c, 0, 55, 51
2, 215404, Note_on_c, 0, 69, 64
2, 215411, Note_on_c, 0, 65, 52
2, 215418, Note_on_c, 0, 59, 40
2, 215420, Note_on_c, 0, 61, 32
2, 215422, Note_on_c, 0, 64, 35
2, 215427, Note_on_c, 0, 60, 29
2, 215457, Note_on_c, 0, 60, 0
2, 215545, Control_c, 0, 64, 127
2, 215607, Note_on_c, 0, 59, 0
2, 215635, Note_on_c, 0, 64, 0
2, 215661, Note_on_c, 0, 65, 0
2, 215675, Note_on_c, 0, 55, 0
2, 215733, Control_c, 0, 64, 0
2, 215755, Note_on_c, 0, 69, 0
2, 215765, Note_on_c, 0, 61, 0
2, 215800, Note_on_c, 0, 64, 36
2, 215802, Note_on_c, 0, 70, 55
2, 215817, Note_on_c, 0, 60, 44
2, 215819, Note_on_c, 0, 54, 33
2, 216027, Note_on_c, 0, 64, 0
2, 216040, Note_on_c, 0, 70, 0
2, 216050, Note_on_c, 0, 60, 0
2, 216055, Note_on_c, 0, 54, 0
2, 216057, Control_c, 0, 64, 127
2, 216074, Note_on_c, 0, 72, 66
2, 216075, Control_c, 0, 64, 0
2, 216121, Note_on_c, 0, 64, 36
2, 216129, Note_on_c, 0, 54, 43
2, 216149, Note_on_c, 0, 60, 61
2, 216179, Note_on_c, 0, 72, 0
2, 216183, Note_on_c, 0, 60, 0
2, 216212, Note_on_c, 0, 67, 27
2, 216245, Note_on_c, 0, 64, 0
2, 216254, Note_on_c, 0, 68, 44
2, 216328, Note_on_c, 0, 67, 0
2, 216422, Note_on_c, 0, 69, 31
2, 216462, Note_on_c, 0, 54, 0
2, 216480, Note_on_c, 0, 68, 0
2, 216514, Note_on_c, 0, 58, 39
2, 216533, Note_on_c, 0, 69, 0
2, 216538, Note_on_c, 0, 53, 42
2, 216560, Note_on_c, 0, 62, 48
2, 216590, Note_on_c, 0, 58, 0
2, 216950, Note_on_c, 0, 53, 0
2, 217206, Note_on_c, 0, 47, 64
2, 217209, Note_on_c, 0, 48, 71
2, 217236, Note_on_c, 0, 47, 0
2, 217273, Note_on_c, 0, 48, 0
2, 217587, Note_on_c, 0, 65, 60
2, 217603, Note_on_c, 0, 62, 0
2, 217678, Note_on_c, 0, 65, 0
2, 217711, Note_on_c, 0, 67, 53
2, 218067, Note_on_c, 0, 67, 0
2, 218083, Note_on_c, 0, 65, 51
2, 218482, Control_c, 0, 64, 127
2, 218509, Control_c, 0, 64, 0
2, 218736, Note_on_c, 0, 65, 0
2, 218754, Note_on_c, 0, 62, 44
2, 218794, Note_on_c, 0, 62, 0
2, 218870, Note_on_c, 0, 65, 44
2, 219062, Note_on_c, 0, 65, 0
2, 219100, Note_on_c, 0, 67, 38
2, 219150, Note_on_c, 0, 67, 0
2, 219153, Note_on_c, 0, 65, 48
2, 219230, Note_on_c, 0, 62, 41
2, 219261, Note_on_c, 0, 65, 0
2, 219393, Note_on_c, 0, 62, 0
2, 219502, Note_on_c, 0, 65, 74
2, 219670, Note_on_c, 0, 65, 0
2, 219704, Note_on_c, 0, 67, 32
2, 219777, Note_on_c, 0, 65, 38
2, 219794, Note_on_c, 0, 67, 0
2, 219899, Note_on_c, 0, 62, 56
2, 219903, Note_on_c, 0, 65, 0
2, 219944, Note_on_c, 0, 60, 30
2, 219961, Note_on_c, 0, 62, 0
2, 219978, Note_on_c, 0, 60, 0
2, 220039, Note_on_c, 0, 65, 71
2, 220186, Note_on_c, 0, 65, 0
2, 220224, Note_on_c, 0, 67, 34
2, 220286, Note_on_c, 0, 65, 47
2, 220296, Note_on_c, 0, 67, 0
2, 220396, Note_on_c, 0, 65, 0
2, 220406, Note_on_c, 0, 62, 37
2, 220556, Note_on_c, 0, 62, 0
2, 220632, Note_on_c, 0, 65, 69
2, 220683, Note_on_c, 0, 59, 24
2, 220723, Note_on_c, 0, 59, 0
2, 220788, Note_on_c, 0, 65, 0
2, 220825, Note_on_c, 0, 67, 32
2, 220922, Note_on_c, 0, 67, 0
2, 220934, Note_on_c, 0, 65, 39
2, 221025, Note_on_c, 0, 65, 0
2, 221030, Note_on_c, 0, 62, 49
2, 221031, Note_on_c, 0, 56, 62
2, 221048, Note_on_c, 0, 46, 46
2, 221075, Note_on_c, 0, 56, 0
2, 221102, Note_on_c, 0, 62, 0
2, 221114, Note_on_c, 0, 46, 0
2, 221186, Note_on_c, 0, 65, 42
2, 221349, Note_on_c, 0, 65, 0
2, 221381, Note_on_c, 0, 67, 39
2, 221466, Note_on_c, 0, 64, 57
2, 221562, Note_on_c, 0, 67, 0
2, 221563, Note_on_c, 0, 60, 43
2, 221583, Note_on_c, 0, 64, 0
2, 221718, Note_on_c, 0, 60, 0
2, 221791, Note_on_c, 0, 64, 70
2, 221949, Note_on_c, 0, 64, 0
2, 221974, Note_on_c, 0, 67, 40
2, 222073, Note_on_c, 0, 67, 0
2, 222093, Note_on_c, 0, 64, 24
2, 222156, Note_on_c, 0, 60, 49
2, 222160, Note_on_c, 0, 64, 0
2, 222204, Note_on_c, 0, 60, 0
2, 222209, Note_on_c, 0, 56, 47
2, 222279, Note_on_c, 0, 56, 0
2, 222731, Control_c, 0, 64, 127
2, 222929, Control_c, 0, 64, 0
2, 222943, Note_on_c, 0, 62, 55
2, 222944, Note_on_c, 0, 67, 62
2, 222947, Note_on_c, 0, 56, 46
2, 222975, Note_on_c, 0, 67, 0
2, 222981, Note_on_c, 0, 62, 0
2, 223035, Note_on_c, 0, 56, 0
2, 223350, Note_on_c, 0, 62, 48
2, 223384, Note_on_c, 0, 62, 0
2, 223421, Note_on_c, 0, 72, 33
2, 223466, Note_on_c, 0, 73, 59
2, 223468, Note_on_c, 0, 72, 0
2, 223512, Note_on_c, 0, 73, 0
2, 223517, Note_on_c, 0, 74, 69
2, 223547, Note_on_c, 0, 74, 0
2, 223594, Note_on_c, 0, 77, 69
2, 223596, Note_on_c, 0, 76, 74
2, 223658, Note_on_c, 0, 76, 0
2, 223688, Note_on_c, 0, 77, 0
2, 223742, Note_on_c, 0, 62, 43
2, 223751, Note_on_c, 0, 56, 30
2, 223799, Note_on_c, 0, 62, 0
2, 223840, Note_on_c, 0, 77, 82
2, 223844, Note_on_c, 0, 56, 0
2, 223953, Note_on_c, 0, 74, 68
2, 223996, Note_on_c, 0, 77, 0
2, 224051, Note_on_c, 0, 74, 0
2, 224138, Note_on_c, 0, 57, 34
2, 224157, Note_on_c, 0, 58, 28
2, 224192, Note_on_c, 0, 58, 0
2, 224217, Note_on_c, 0, 65, 53
2, 224270, Note_on_c, 0, 57, 0
2, 224297, Note_on_c, 0, 65, 0
2, 224347, Note_on_c, 0, 65, 76
2, 224439, Note_on_c, 0, 65, 0
2, 224538, Note_on_c, 0, 62, 34
2, 224546, Note_on_c, 0, 58, 35
2, 224580, Note_on_c, 0, 62, 0
2, 224615, Note_on_c, 0, 58, 0
2, 224880, Note_on_c, 0, 58, 55
2, 224888, Note_on_c, 0, 62, 52
2, 224894, Note_on_c, 0, 57, 45
2, 224923, Note_on_c, 0, 62, 0
2, 224930, Note_on_c, 0, 57, 0
2, 224951, Note_on_c, 0, 58, 0
2, 225252, Note_on_c, 0, 58, 60
2, 225265, Note_on_c, 0, 62, 37
2, 225271, Note_on_c, 0, 57, 34
2, 225301, Note_on_c, 0, 62, 0
2, 225304, Note_on_c, 0, 58, 0
2, 225311, Note_on_c, 0, 57, 0
2, 225365, Note_on_c, 0, 75, 59
2, 225396, Note_on_c, 0, 75, 0
2, 225451, Note_on_c, 0, 66, 85
2, 225456, Note_on_c, 0, 78, 83
2, 225602, Note_on_c, 0, 66, 0
2, 225615, Note_on_c, 0, 78, 0
2, 225695, Note_on_c, 0, 58, 43
2, 225747, Note_on_c, 0, 78, 81
2, 225758, Note_on_c, 0, 66, 83
2, 225794, Note_on_c, 0, 58, 0
2, 225824, Note_on_c, 0, 66, 0
2, 225890, Note_on_c, 0, 75, 61
2, 225899, Note_on_c, 0, 78, 0
2, 226019, Note_on_c, 0, 63, 59
2, 226022, Note_on_c, 0, 58, 49
2, 226023, Note_on_c, 0, 70, 64
2, 226036, Note_on_c, 0, 75, 0
2, 226051, Note_on_c, 0, 63, 0
2, 226087, Note_on_c, 0, 70, 0
2, 226194, Note_on_c, 0, 58, 0
2, 226405, Note_on_c, 0, 63, 71
2, 226405, Note_on_c, 0, 52, 74
2, 226406, Note_on_c, 0, 58, 64
2, 226665, Control_c, 0, 64, 127
2, 226801, Note_on_c, 0, 52, 0
2, 226819, Control_c, 0, 64, 0
2, 226825, Note_on_c, 0, 63, 0
2, 226878, Note_on_c, 0, 58, 0
2, 226911, Note_on_c, 0, 62, 70
2, 226919, Note_on_c, 0, 57, 64
2, 226922, Note_on_c, 0, 51, 64
2, 227294, Control_c, 0, 64, 127
2, 227456, Note_on_c, 0, 57, 0
2, 227550, Note_on_c, 0, 57, 35
2, 227587, Note_on_c, 0, 51, 0
2, 227591, Control_c, 0, 64, 0
2, 227592, Note_on_c, 0, 57, 0
2, 227653, Note_on_c, 0, 62, 0
2, 227663, Control_c, 0, 64, 127
2, 227671, Note_on_c, 0, 74, 46
2, 227863, Note_on_c, 0, 74, 0
2, 227944, Note_on_c, 0, 77, 49
2, 227976, Note_on_c, 0, 77, 0
2, 227986, Control_c, 0, 64, 0
2, 228053, Note_on_c, 0, 69, 54
2, 228053, Note_on_c, 0, 79, 70
2, 228061, Note_on_c, 0, 64, 71
2, 228063, Note_on_c, 0, 72, 63
2, 228138, Control_c, 0, 64, 127
2, 228300, Note_on_c, 0, 79, 0
2, 228322, Note_on_c, 0, 69, 0
2, 228327, Control_c, 0, 64, 0
2, 228328, Note_on_c, 0, 72, 0
2, 228340, Note_on_c, 0, 64, 0
2, 228367, Note_on_c, 0, 62, 38
2, 228432, Note_on_c, 0, 79, 66
2, 228452, Note_on_c, 0, 69, 40
2, 228456, Note_on_c, 0, 72, 53
2, 228466, Note_on_c, 0, 64, 58
2, 228467, Note_on_c, 0, 62, 0
2, 228525, Control_c, 0, 64, 127
2, 228628, Note_on_c, 0, 79, 0
2, 228634, Note_on_c, 0, 69, 0
2, 228637, Note_on_c, 0, 72, 0
2, 228705, Control_c, 0, 64, 0
2, 228710, Note_on_c, 0, 69, 57
2, 228711, Note_on_c, 0, 77, 64
2, 228717, Note_on_c, 0, 72, 53
2, 228723, Note_on_c, 0, 62, 60
2, 228730, Note_on_c, 0, 64, 0
2, 228849, Control_c, 0, 64, 127
2, 229063, Note_on_c, 0, 69, 0
2, 229065, Note_on_c, 0, 77, 0
2, 229093, Note_on_c, 0, 72, 0
2, 229118, Control_c, 0, 64, 0
2, 229143, Note_on_c, 0, 62, 0
2, 229199, Note_on_c, 0, 77, 54
2, 229207, Note_on_c, 0, 72, 47
2, 229208, Note_on_c, 0, 69, 53
2, 229210, Note_on_c, 0, 62, 52
2, 229252, Control_c, 0, 64, 127
2, 229336, Note_on_c, 0, 77, 0
2, 229381, Note_on_c, 0, 69, 0
2, 229396, Note_on_c, 0, 72, 0
2, 229400, Note_on_c, 0, 62, 0
2, 229459, Control_c, 0, 64, 0
2, 229475, Note_on_c, 0, 67, 55
2, 229479, Note_on_c, 0, 76, 53
2, 229487, Note_on_c, 0, 71, 51
2, 229494, Note_on_c, 0, 60, 53
2, 229585, Control_c, 0, 64, 127
2, 229849, Note_on_c, 0, 58, 47
2, 229864, Note_on_c, 0, 76, 0
2, 229876, Note_on_c, 0, 67, 0
2, 229880, Note_on_c, 0, 60, 0
2, 229890, Control_c, 0, 64, 0
2, 229891, Note_on_c, 0, 71, 0
2, 229917, Note_on_c, 0, 58, 0
2, 229961, Note_on_c, 0, 75, 78
2, 230017, Control_c, 0, 64, 127
2, 230209, Note_on_c, 0, 75, 0
2, 230229, Note_on_c, 0, 63, 64
2, 230234, Note_on_c, 0, 70, 73
2, 230240, Note_on_c, 0, 53, 48
2, 230251, Note_on_c, 0, 58, 35
2, 230261, Note_on_c, 0, 63, 0
2, 230276, Control_c, 0, 64, 0
2, 230277, Note_on_c, 0, 53, 0
2, 230295, Note_on_c, 0, 58, 0
2, 230360, Note_on_c, 0, 70, 0
2, 230464, Note_on_c, 0, 65, 29
2, 230585, Note_on_c, 0, 65, 0
2, 230650, Note_on_c, 0, 63, 57
2, 230725, Note_on_c, 0, 63, 0
2, 230793, Note_on_c, 0, 60, 35
2, 231018, Note_on_c, 0, 58, 69
2, 231033, Note_on_c, 0, 51, 29
2, 231034, Note_on_c, 0, 60, 0
2, 231043, Note_on_c, 0, 48, 33
2, 231087, Note_on_c, 0, 48, 0
2, 231101, Note_on_c, 0, 51, 0
2, 231162, Note_on_c, 0, 58, 0
2, 231199, Note_on_c, 0, 59, 37
2, 231367, Note_on_c, 0, 59, 0
2, 231403, Note_on_c, 0, 62, 71
2, 231411, Note_on_c, 0, 51, 26
2, 231482, Note_on_c, 0, 51, 0
2, 231500, Note_on_c, 0, 62, 0
2, 231592, Note_on_c, 0, 59, 35
2, 231787, Note_on_c, 0, 59, 0
2, 231792, Note_on_c, 0, 60, 66
2, 231926, Note_on_c, 0, 60, 0
2, 231974, Note_on_c, 0, 62, 42
2, 232108, Note_on_c, 0, 62, 0
2, 232153, Note_on_c, 0, 46, 57
2, 232155, Note_on_c, 0, 56, 62
2, 232167, Note_on_c, 0, 63, 64
2, 232224, Note_on_c, 0, 56, 0
2, 232230, Note_on_c, 0, 46, 0
2, 232251, Note_on_c, 0, 63, 0
2, 232346, Note_on_c, 0, 65, 44
2, 232505, Note_on_c, 0, 65, 0
2, 232523, Control_c, 0, 64, 127
2, 232549, Control_c, 0, 64, 0
2, 232567, Note_on_c, 0, 66, 67
2, 232609, Note_on_c, 0, 63, 38
2, 232664, Note_on_c, 0, 66, 0
2, 232688, Note_on_c, 0, 63, 0
2, 232740, Note_on_c, 0, 68, 45
2, 232886, Note_on_c, 0, 68, 0
2, 232933, Note_on_c, 0, 66, 69
2, 232935, Note_on_c, 0, 69, 71
2, 232943, Note_on_c, 0, 56, 47
2, 232954, Note_on_c, 0, 62, 37
2, 232989, Note_on_c, 0, 62, 0
2, 233006, Note_on_c, 0, 66, 0
2, 233014, Note_on_c, 0, 69, 0
2, 233097, Note_on_c, 0, 70, 50
2, 233112, Note_on_c, 0, 56, 0
2, 233193, Note_on_c, 0, 70, 0
2, 233326, Note_on_c, 0, 71, 78
2, 233399, Note_on_c, 0, 71, 0
2, 233446, Note_on_c, 0, 65, 10
2, 233461, Note_on_c, 0, 55, 38
2, 233470, Note_on_c, 0, 62, 12
2, 233471, Note_on_c, 0, 72, 76
2, 233475, Note_on_c, 0, 60, 26
2, 233617, Note_on_c, 0, 55, 0
2, 233617, Note_on_c, 0, 65, 0
2, 233618, Note_on_c, 0, 60, 0
2, 233619, Note_on_c, 0, 62, 0
2, 233664, Note_on_c, 0, 72, 0
2, 233716, Note_on_c, 0, 69, 62
2, 233721, Note_on_c, 0, 62, 41
2, 233728, Note_on_c, 0, 60, 45
2, 233756, Note_on_c, 0, 55, 32
2, 233814, Note_on_c, 0, 55, 0
2, 233816, Control_c, 0, 64, 127
2, 233817, Note_on_c, 0, 60, 0
2, 233842, Note_on_c, 0, 69, 0
2, 233869, Note_on_c, 0, 65, 52
2, 234013, Control_c, 0, 64, 0
2, 234059, Note_on_c, 0, 62, 0
2, 234077, Note_on_c, 0, 65, 0
2, 234201, Note_on_c, 0, 62, 24
2, 234211, Control_c, 0, 64, 127
2, 234231, Note_on_c, 0, 69, 49
2, 234233, Note_on_c, 0, 60, 22
2, 234235, Note_on_c, 0, 55, 28
2, 234302, Note_on_c, 0, 60, 0
2, 234354, Note_on_c, 0, 62, 0
2, 234365, Note_on_c, 0, 55, 0
2, 234459, Note_on_c, 0, 69, 0
2, 234480, Control_c, 0, 64, 0
2, 234570, Control_c, 0, 64, 127
2, 234588, Note_on_c, 0, 65, 47
2, 234593, Note_on_c, 0, 62, 32
2, 234598, Note_on_c, 0, 72, 60
2, 234610, Note_on_c, 0, 55, 28
2, 234610, Note_on_c, 0, 60, 34
2, 234642, Note_on_c, 0, 65, 0
2, 234647, Note_on_c, 0, 60, 0
2, 234669, Note_on_c, 0, 62, 0
2, 234678, Note_on_c, 0, 55, 0
2, 234712, Note_on_c, 0, 72, 0
2, 234822, Control_c, 0, 64, 0
2, 234854, Note_on_c, 0, 62, 53
2, 234861, Note_on_c, 0, 74, 64
2, 234865, Note_on_c, 0, 86, 56
2, 234868, Note_on_c, 0, 65, 50
2, 234873, Note_on_c, 0, 60, 43
2, 234881, Note_on_c, 0, 84, 43
2, 234891, Note_on_c, 0, 74, 0
2, 234893, Note_on_c, 0, 55, 20
2, 234901, Note_on_c, 0, 65, 0
2, 234906, Note_on_c, 0, 60, 0
2, 234908, Note_on_c, 0, 86, 0
2, 234914, Note_on_c, 0, 84, 0
2, 234926, Note_on_c, 0, 55, 0
2, 234934, Note_on_c, 0, 62, 0
2, 234975, Control_c, 0, 64, 127
2, 235097, Note_on_c, 0, 89, 81
2, 235098, Note_on_c, 0, 62, 63
2, 235104, Note_on_c, 0, 65, 64
2, 235105, Note_on_c, 0, 77, 78
2, 235106, Note_on_c, 0, 55, 60
2, 235114, Note_on_c, 0, 60, 51
2, 235263, Note_on_c, 0, 77, 0
2, 235289, Note_on_c, 0, 89, 0
2, 235293, Note_on_c, 0, 55, 0
2, 235296, Note_on_c, 0, 65, 0
2, 235298, Note_on_c, 0, 60, 0
2, 235307, Control_c, 0, 64, 0
2, 235311, Note_on_c, 0, 62, 0
2, 235370, Note_on_c, 0, 65, 57
2, 235378, Note_on_c, 0, 93, 79
2, 235379, Note_on_c, 0, 55, 50
2, 235380, Note_on_c, 0, 62, 61
2, 235388, Note_on_c, 0, 81, 73
2, 235392, Note_on_c, 0, 60, 68
2, 235406, Control_c, 0, 64, 127
2, 235475, Note_on_c, 0, 81, 0
2, 235496, Note_on_c, 0, 65, 0
2, 235497, Note_on_c, 0, 60, 0
2, 235505, Note_on_c, 0, 55, 0
2, 235513, Note_on_c, 0, 93, 0
2, 235522, Note_on_c, 0, 62, 0
2, 235613, Control_c, 0, 64, 0
2, 235642, Note_on_c, 0, 62, 54
2, 235645, Note_on_c, 0, 60, 66
2, 235646, Note_on_c, 0, 65, 68
2, 235647, Note_on_c, 0, 96, 76
2, 235648, Note_on_c, 0, 55, 64
2, 235657, Note_on_c, 0, 84, 62
2, 235678, Note_on_c, 0, 65, 0
2, 235686, Note_on_c, 0, 84, 0
2, 235717, Note_on_c, 0, 62, 0
2, 235720, Note_on_c, 0, 60, 0
2, 235722, Note_on_c, 0, 96, 0
2, 235745, Note_on_c, 0, 55, 0
2, 235875, Control_c, 0, 64, 127
2, 235876, Note_on_c, 0, 62, 69
2, 235877, Note_on_c, 0, 65, 71
2, 235879, Note_on_c, 0, 60, 55
2, 235880, Note_on_c, 0, 55, 64
2, 235884, Note_on_c, 0, 98, 81
2, 235888, Note_on_c, 0, 86, 80
2, 235976, Note_on_c, 0, 86, 0
2, 236009, Note_on_c, 0, 65, 0
2, 236026, Note_on_c, 0, 60, 0
2, 236027, Note_on_c, 0, 98, 0
2, 236035, Note_on_c, 0, 62, 0
2, 236037, Note_on_c, 0, 55, 0
2, 236055, Control_c, 0, 64, 0
2, 236127, Note_on_c, 0, 55, 68
2, 236135, Note_on_c, 0, 62, 43
2, 236142, Note_on_c, 0, 65, 66
2, 236144, Note_on_c, 0, 60, 55
2, 236145, Note_on_c, 0, 101, 75
2, 236147, Note_on_c, 0, 89, 80
2, 236181, Control_c, 0, 64, 127
2, 236202, Note_on_c, 0, 62, 0
2, 236204, Note_on_c, 0, 65, 0
2, 236209, Note_on_c, 0, 89, 0
2, 236244, Note_on_c, 0, 55, 0
2, 236252, Note_on_c, 0, 60, 0
2, 236253, Note_on_c, 0, 101, 0
2, 236387, Control_c, 0, 64, 0
2, 236410, Note_on_c, 0, 60, 62
2, 236411, Note_on_c, 0, 56, 55
2, 236414, Note_on_c, 0, 105, 77
2, 236415, Note_on_c, 0, 93, 73
2, 236416, Note_on_c, 0, 65, 66
2, 236436, Note_on_c, 0, 61, 34
2, 236441, Note_on_c, 0, 60, 0
2, 236451, Note_on_c, 0, 65, 0
2, 236471, Note_on_c, 0, 61, 0
2, 236477, Note_on_c, 0, 93, 0
2, 236484, Note_on_c, 0, 105, 0
2, 236489, Note_on_c, 0, 56, 0
2, 236642, Note_on_c, 0, 56, 68
2, 236643, Note_on_c, 0, 65, 73
2, 236648, Control_c, 0, 64, 127
2, 236649, Note_on_c, 0, 61, 55
2, 236652, Note_on_c, 0, 60, 66
2, 236653, Note_on_c, 0, 106, 71
2, 236655, Note_on_c, 0, 94, 75
2, 236809, Note_on_c, 0, 94, 0
2, 236822, Note_on_c, 0, 65, 0
2, 236822, Note_on_c, 0, 106, 0
2, 236824, Note_on_c, 0, 56, 0
2, 236832, Note_on_c, 0, 60, 0
2, 236840, Note_on_c, 0, 61, 0
2, 236845, Control_c, 0, 64, 0
2, 236889, Note_on_c, 0, 56, 54
2, 236898, Note_on_c, 0, 65, 57
2, 236909, Note_on_c, 0, 60, 72
2, 236909, Note_on_c, 0, 61, 46
2, 236914, Note_on_c, 0, 108, 80
2, 237058, Note_on_c, 0, 65, 0
2, 237076, Note_on_c, 0, 108, 0
2, 237094, Note_on_c, 0, 60, 0
2, 237097, Note_on_c, 0, 56, 0
2, 237124, Note_on_c, 0, 61, 0
2, 237162, Note_on_c, 0, 106, 76
2, 237163, Note_on_c, 0, 56, 53
2, 237173, Note_on_c, 0, 65, 54
2, 237183, Note_on_c, 0, 61, 45
2, 237184, Note_on_c, 0, 60, 66
2, 237275, Note_on_c, 0, 106, 0
2, 237415, Note_on_c, 0, 65, 0
2, 237695, Note_on_c, 0, 106, 80
2, 237702, Note_on_c, 0, 60, 0
2, 237806, Note_on_c, 0, 106, 0
2, 237808, Note_on_c, 0, 61, 0
2, 237838, Note_on_c, 0, 108, 64
2, 237910, Note_on_c, 0, 56, 0
2, 237913, Note_on_c, 0, 106, 38
2, 237975, Note_on_c, 0, 108, 0
2, 238004, Note_on_c, 0, 61, 32
2, 238033, Note_on_c, 0, 55, 34
2, 238047, Note_on_c, 0, 105, 65
2, 238064, Note_on_c, 0, 106, 0
2, 238191, Note_on_c, 0, 105, 0
2, 238199, Note_on_c, 0, 61, 0
2, 238238, Note_on_c, 0, 55, 0
2, 238324, Note_on_c, 0, 104, 35
2, 238327, Note_on_c, 0, 105, 68
2, 238349, Note_on_c, 0, 61, 34
2, 238395, Note_on_c, 0, 105, 0
2, 238400, Note_on_c, 0, 61, 0
2, 238417, Note_on_c, 0, 104, 0
2, 238506, Note_on_c, 0, 103, 53
2, 238637, Note_on_c, 0, 103, 0
2, 238697, Note_on_c, 0, 102, 65
2, 238702, Note_on_c, 0, 63, 71
2, 238715, Note_on_c, 0, 53, 54
2, 238722, Note_on_c, 0, 58, 40
2, 238750, Note_on_c, 0, 53, 0
2, 238757, Note_on_c, 0, 63, 0
2, 238773, Note_on_c, 0, 58, 0
2, 238812, Note_on_c, 0, 102, 0
2, 238886, Note_on_c, 0, 101, 55
2, 239025, Note_on_c, 0, 101, 0
2, 239078, Note_on_c, 0, 99, 70
2, 239208, Note_on_c, 0, 99, 0
2, 239255, Note_on_c, 0, 96, 49
2, 239401, Note_on_c, 0, 96, 0
2, 239445, Note_on_c, 0, 63, 72
2, 239451, Note_on_c, 0, 99, 71
2, 239467, Note_on_c, 0, 58, 48
2, 239470, Note_on_c, 0, 53, 32
2, 239506, Note_on_c, 0, 53, 0
2, 239514, Note_on_c, 0, 63, 0
2, 239555, Note_on_c, 0, 58, 0
2, 239589, Note_on_c, 0, 99, 0
2, 239654, Note_on_c, 0, 94, 47
2, 239830, Note_on_c, 0, 94, 0
2, 239838, Note_on_c, 0, 65, 67
2, 239841, Note_on_c, 0, 91, 68
2, 239842, Note_on_c, 0, 60, 63
2, 239851, Note_on_c, 0, 55, 48
2, 239869, Note_on_c, 0, 65, 0
2, 239913, Note_on_c, 0, 55, 0
2, 239926, Note_on_c, 0, 60, 0
2, 239939, Note_on_c, 0, 91, 0
2, 240017, Note_on_c, 0, 87, 53
2, 240204, Note_on_c, 0, 87, 0
2, 240238, Note_on_c, 0, 83, 54
2, 240271, Note_on_c, 0, 83, 0
2, 240329, Note_on_c, 0, 63, 63
2, 240352, Note_on_c, 0, 58, 44
2, 240355, Note_on_c, 0, 53, 50
2, 240359, Note_on_c, 0, 91, 74
2, 240389, Note_on_c, 0, 79, 64
2, 240492, Note_on_c, 0, 91, 0
2, 240498, Note_on_c, 0, 79, 0
2, 240510, Note_on_c, 0, 53, 0
2, 240530, Note_on_c, 0, 63, 0
2, 240565, Note_on_c, 0, 58, 0
2, 240596, Note_on_c, 0, 91, 58
2, 240606, Note_on_c, 0, 79, 51
2, 240625, Note_on_c, 0, 63, 45
2, 240632, Note_on_c, 0, 90, 25
2, 240636, Note_on_c, 0, 91, 0
2, 240644, Note_on_c, 0, 53, 35
2, 240649, Note_on_c, 0, 79, 0
2, 240649, Note_on_c, 0, 58, 44
2, 240663, Note_on_c, 0, 90, 0
2, 240759, Note_on_c, 0, 78, 25
2, 240789, Control_c, 0, 64, 127
2, 240801, Note_on_c, 0, 78, 0
2, 240823, Note_on_c, 0, 53, 0
2, 240837, Note_on_c, 0, 63, 0
2, 240864, Note_on_c, 0, 58, 0
2, 240970, Note_on_c, 0, 90, 64
2, 240975, Note_on_c, 0, 78, 71
2, 240984, Note_on_c, 0, 58, 57
2, 241000, Note_on_c, 0, 62, 55
2, 241000, Note_on_c, 0, 57, 52
2, 241004, Control_c, 0, 64, 0
2, 241035, Note_on_c, 0, 62, 0
2, 241042, Note_on_c, 0, 78, 0
2, 241043, Note_on_c, 0, 90, 0
2, 241046, Note_on_c, 0, 57, 0
2, 241065, Note_on_c, 0, 58, 0
2, 241123, Note_on_c, 0, 62, 54
2, 241145, Note_on_c, 0, 58, 48
2, 241147, Note_on_c, 0, 89, 64
2, 241148, Note_on_c, 0, 85, 54
2, 241156, Note_on_c, 0, 77, 40
2, 241158, Note_on_c, 0, 57, 47
2, 241254, Note_on_c, 0, 86, 47
2, 241311, Note_on_c, 0, 85, 0
2, 241312, Note_on_c, 0, 58, 0
2, 241312, Note_on_c, 0, 86, 0
2, 241315, Note_on_c, 0, 77, 0
2, 241316, Note_on_c, 0, 89, 0
2, 241325, Note_on_c, 0, 62, 0
2, 241372, Note_on_c, 0, 57, 0
2, 241480, Note_on_c, 0, 74, 76
2, 241483, Note_on_c, 0, 86, 73
2, 241485, Note_on_c, 0, 58, 59
2, 241488, Note_on_c, 0, 57, 47
2, 241489, Note_on_c, 0, 82, 62
2, 241490, Note_on_c, 0, 62, 64
2, 241625, Note_on_c, 0, 82, 0
2, 241631, Note_on_c, 0, 83, 63
2, 241654, Control_c, 0, 64, 127
2, 241660, Note_on_c, 0, 84, 26
2, 241697, Note_on_c, 0, 83, 0
2, 241699, Note_on_c, 0, 86, 0
2, 241701, Note_on_c, 0, 62, 0
2, 241702, Note_on_c, 0, 74, 0
2, 241705, Note_on_c, 0, 84, 0
2, 241715, Note_on_c, 0, 57, 0
2, 241771, Note_on_c, 0, 58, 0
2, 241788, Control_c, 0, 64, 0
2, 241857, Note_on_c, 0, 72, 71
2, 241860, Note_on_c, 0, 84, 66
2, 241861, Note_on_c, 0, 62, 68
2, 241869, Note_on_c, 0, 58, 49
2, 241871, Note_on_c, 0, 80, 53
2, 241885, Note_on_c, 0, 52, 56
2, 241898, Note_on_c, 0, 78, 27
2, 241929, Note_on_c, 0, 78, 0
2, 241968, Control_c, 0, 64, 127
2, 242005, Note_on_c, 0, 52, 0
2, 242023, Note_on_c, 0, 81, 48
2, 242026, Note_on_c, 0, 80, 0
2, 242031, Note_on_c, 0, 58, 0
2, 242041, Note_on_c, 0, 72, 0
2, 242060, Note_on_c, 0, 81, 0
2, 242067, Note_on_c, 0, 84, 0
2, 242074, Note_on_c, 0, 62, 0
2, 242138, Control_c, 0, 64, 0
2, 242151, Note_on_c, 0, 58, 52
2, 242157, Note_on_c, 0, 52, 35
2, 242197, Note_on_c, 0, 52, 0
2, 242233, Note_on_c, 0, 82, 73
2, 242242, Note_on_c, 0, 70, 70
2, 242251, Note_on_c, 0, 52, 37
2, 242259, Note_on_c, 0, 62, 57
2, 242309, Control_c, 0, 64, 127
2, 242419, Note_on_c, 0, 52, 0
2, 242491, Note_on_c, 0, 58, 0
2, 242500, Note_on_c, 0, 82, 0
2, 242501, Note_on_c, 0, 62, 0
2, 242505, Note_on_c, 0, 70, 0
2, 242588, Control_c, 0, 64, 0
2, 242622, Note_on_c, 0, 64, 51
2, 242627, Note_on_c, 0, 53, 40
2, 242637, Note_on_c, 0, 60, 48
2, 242639, Note_on_c, 0, 57, 38
2, 242645, Note_on_c, 0, 76, 51
2, 242648, Note_on_c, 0, 81, 61
2, 242662, Note_on_c, 0, 69, 40
2, 242749, Control_c, 0, 64, 127
2, 242801, Note_on_c, 0, 76, 0
2, 242806, Note_on_c, 0, 81, 0
2, 242857, Note_on_c, 0, 64, 0
2, 242862, Note_on_c, 0, 69, 0
2, 242888, Note_on_c, 0, 53, 0
2, 242892, Note_on_c, 0, 60, 0
2, 242923, Note_on_c, 0, 57, 0
2, 242947, Control_c, 0, 64, 0
2, 243024, Note_on_c, 0, 64, 62
2, 243024, Note_on_c, 0, 76, 68
2, 243026, Note_on_c, 0, 79, 69
2, 243032, Note_on_c, 0, 67, 69
2, 243036, Note_on_c, 0, 57, 32
2, 243037, Note_on_c, 0, 53, 54
2, 243042, Note_on_c, 0, 60, 36
2, 243091, Control_c, 0, 64, 127
2, 243242, Note_on_c, 0, 64, 0
2, 243256, Note_on_c, 0, 79, 0
2, 243280, Note_on_c, 0, 76, 0
2, 243282, Note_on_c, 0, 67, 0
2, 243285, Note_on_c, 0, 53, 0
2, 243289, Note_on_c, 0, 60, 0
2, 243295, Note_on_c, 0, 57, 0
2, 243352, Control_c, 0, 64, 0
2, 243406, Note_on_c, 0, 77, 55
2, 243413, Note_on_c, 0, 64, 48
2, 243421, Note_on_c, 0, 53, 36
2, 243426, Note_on_c, 0, 60, 40
2, 243428, Note_on_c, 0, 72, 50
2, 243434, Note_on_c, 0, 57, 36
2, 243436, Note_on_c, 0, 65, 36
2, 243486, Control_c, 0, 64, 127
2, 243568, Note_on_c, 0, 72, 0
2, 243574, Note_on_c, 0, 77, 0
2, 243594, Note_on_c, 0, 64, 0
2, 243613, Note_on_c, 0, 60, 0
2, 243622, Note_on_c, 0, 65, 0
2, 243645, Note_on_c, 0, 53, 0
2, 243662, Note_on_c, 0, 57, 0
2, 243729, Control_c, 0, 64, 0
2, 243805, Note_on_c, 0, 76, 51
2, 243808, Note_on_c, 0, 60, 51
2, 243812, Note_on_c, 0, 53, 43
2, 243824, Note_on_c, 0, 57, 40
2, 243826, Note_on_c, 0, 64, 40
2, 243828, Note_on_c, 0, 69, 50
2, 243829, Note_on_c, 0, 72, 39
2, 243854, Control_c, 0, 64, 127
2, 243884, Note_on_c, 0, 60, 0
2, 243945, Note_on_c, 0, 72, 0
2, 243948, Note_on_c, 0, 76, 0
2, 243962, Note_on_c, 0, 69, 0
2, 244000, Note_on_c, 0, 64, 0
2, 244097, Note_on_c, 0, 57, 0
2, 244124, Control_c, 0, 64, 0
2, 244150, Note_on_c, 0, 53, 0
2, 244191, Note_on_c, 0, 72, 50
2, 244200, Note_on_c, 0, 67, 56
2, 244205, Note_on_c, 0, 62, 44
2, 244210, Note_on_c, 0, 57, 53
2, 244258, Control_c, 0, 64, 127
2, 244339, Note_on_c, 0, 72, 0
2, 244381, Note_on_c, 0, 67, 0
2, 244448, Note_on_c, 0, 62, 0
2, 244510, Control_c, 0, 64, 0
2, 244559, Note_on_c, 0, 69, 46
2, 244570, Note_on_c, 0, 56, 46
2, 244571, Note_on_c, 0, 57, 0
2, 244578, Note_on_c, 0, 60, 34
2, 244691, Note_on_c, 0, 60, 0
2, 244698, Control_c, 0, 64, 127
2, 244730, Note_on_c, 0, 69, 0
2, 244789, Control_c, 0, 64, 0
2, 244830, Note_on_c, 0, 72, 66
2, 244833, Note_on_c, 0, 67, 59
2, 244842, Note_on_c, 0, 62, 35
2, 244844, Note_on_c, 0, 57, 65
2, 244846, Note_on_c, 0, 64, 40
2, 244860, Note_on_c, 0, 72, 0
2, 244870, Note_on_c, 0, 67, 0
2, 244878, Note_on_c, 0, 62, 0
2, 244881, Note_on_c, 0, 64, 0
2, 244882, Note_on_c, 0, 56, 0
2, 244918, Note_on_c, 0, 57, 0
2, 245309, Control_c, 0, 64, 127
2, 245426, Note_on_c, 0, 66, 25
2, 245456, Note_on_c, 0, 66, 0
2, 245579, Control_c, 0, 64, 0
2, 245588, Note_on_c, 0, 64, 58
2, 245593, Note_on_c, 0, 60, 57
2, 245605, Note_on_c, 0, 46, 46
2, 245622, Note_on_c, 0, 60, 0
2, 245630, Note_on_c, 0, 67, 24
2, 245662, Note_on_c, 0, 64, 0
2, 245666, Note_on_c, 0, 46, 0
2, 245677, Note_on_c, 0, 67, 0
2, 245722, Control_c, 0, 64, 127
2, 245964, Note_on_c, 0, 79, 74
2, 245967, Note_on_c, 0, 67, 74
2, 245974, Control_c, 0, 64, 0
2, 245977, Note_on_c, 0, 56, 49
2, 245989, Note_on_c, 0, 62, 40
2, 246030, Note_on_c, 0, 67, 0
2, 246049, Note_on_c, 0, 79, 0
2, 246070, Note_on_c, 0, 62, 0
2, 246097, Note_on_c, 0, 76, 47
2, 246126, Note_on_c, 0, 62, 22
2, 246134, Note_on_c, 0, 76, 0
2, 246184, Note_on_c, 0, 79, 78
2, 246194, Note_on_c, 0, 67, 61
2, 246203, Note_on_c, 0, 72, 70
2, 246341, Note_on_c, 0, 72, 0
2, 246350, Note_on_c, 0, 56, 0
2, 246368, Note_on_c, 0, 67, 0
2, 246409, Note_on_c, 0, 79, 0
2, 246411, Note_on_c, 0, 62, 0
2, 246467, Note_on_c, 0, 76, 50
2, 246476, Note_on_c, 0, 67, 37
2, 246491, Note_on_c, 0, 56, 45
2, 246492, Note_on_c, 0, 62, 47
2, 246581, Note_on_c, 0, 67, 0
2, 246590, Note_on_c, 0, 56, 0
2, 246626, Note_on_c, 0, 62, 0
2, 246633, Note_on_c, 0, 76, 0
2, 246712, Note_on_c, 0, 76, 45
2, 246736, Note_on_c, 0, 62, 44
2, 246760, Note_on_c, 0, 56, 33
2, 246786, Note_on_c, 0, 62, 0
2, 246791, Note_on_c, 0, 76, 0
2, 246818, Note_on_c, 0, 56, 0
2, 247235, Note_on_c, 0, 79, 66
2, 247238, Note_on_c, 0, 67, 60
2, 247241, Note_on_c, 0, 72, 55
2, 247242, Note_on_c, 0, 56, 58
2, 247243, Note_on_c, 0, 62, 61
2, 247260, Note_on_c, 0, 76, 34
2, 247427, Note_on_c, 0, 76, 0
2, 247465, Control_c, 0, 64, 127
2, 247483, Control_c, 0, 64, 0
2, 247521, Note_on_c, 0, 72, 0
2, 247528, Note_on_c, 0, 67, 0
2, 247535, Note_on_c, 0, 62, 0
2, 247575, Note_on_c, 0, 79, 0
2, 247618, Note_on_c, 0, 76, 35
2, 247619, Note_on_c, 0, 62, 32
2, 247627, Control_c, 0, 64, 127
2, 247670, Note_on_c, 0, 62, 0
2, 247705, Note_on_c, 0, 56, 0
2, 247781, Note_on_c, 0, 76, 0
2, 247878, Control_c, 0, 64, 0
2, 247892, Note_on_c, 0, 76, 56
2, 247894, Note_on_c, 0, 56, 57
2, 247899, Note_on_c, 0, 62, 55
2, 247902, Note_on_c, 0, 79, 60
2, 247907, Note_on_c, 0, 67, 52
2, 247908, Note_on_c, 0, 72, 58
2, 248040, Control_c, 0, 64, 127
2, 248228, Note_on_c, 0, 67, 0
2, 248316, Note_on_c, 0, 76, 0
2, 248318, Note_on_c, 0, 62, 0
2, 248337, Note_on_c, 0, 72, 0
2, 248341, Note_on_c, 0, 79, 0
2, 248415, Note_on_c, 0, 56, 0
2, 248652, Control_c, 0, 64, 0
2, 248652, Note_on_c, 0, 74, 81
2, 248653, Note_on_c, 0, 70, 86
2, 248660, Note_on_c, 0, 60, 77
2, 248662, Note_on_c, 0, 65, 78
2, 248663, Note_on_c, 0, 55, 74
2, 248804, Control_c, 0, 64, 127
2, 249013, Note_on_c, 0, 55, 0
2, 249062, Note_on_c, 0, 60, 0
2, 249104, Note_on_c, 0, 65, 0
2, 249172, Control_c, 0, 64, 0
2, 249173, Note_on_c, 0, 74, 0
2, 249179, Note_on_c, 0, 70, 0
2, 249189, Note_on_c, 0, 76, 62
2, 249197, Note_on_c, 0, 72, 67
2, 249200, Note_on_c, 0, 57, 66
2, 249202, Note_on_c, 0, 67, 62
2, 249209, Note_on_c, 0, 62, 59
2, 249306, Control_c, 0, 64, 127
2, 249439, Note_on_c, 0, 72, 0
2, 249440, Note_on_c, 0, 57, 0
2, 249468, Note_on_c, 0, 67, 0
2, 249474, Note_on_c, 0, 62, 0
2, 249490, Note_on_c, 0, 76, 0
2, 249549, Control_c, 0, 64, 0
2, 249580, Note_on_c, 0, 58, 59
2, 249583, Note_on_c, 0, 73, 58
2, 249588, Note_on_c, 0, 77, 58
2, 249615, Note_on_c, 0, 68, 47
2, 249627, Note_on_c, 0, 63, 34
2, 249666, Control_c, 0, 64, 127
2, 249832, Note_on_c, 0, 68, 0
2, 249838, Note_on_c, 0, 58, 0
2, 249845, Note_on_c, 0, 73, 0
2, 249866, Note_on_c, 0, 77, 0
2, 249867, Note_on_c, 0, 63, 0
2, 249935, Control_c, 0, 64, 0
2, 249967, Note_on_c, 0, 79, 55
2, 249969, Note_on_c, 0, 60, 53
2, 249972, Note_on_c, 0, 69, 44
2, 249988, Note_on_c, 0, 65, 40
2, 250030, Note_on_c, 0, 76, 22
2, 250052, Control_c, 0, 64, 127
2, 250108, Note_on_c, 0, 65, 0
2, 250111, Note_on_c, 0, 76, 0
2, 250129, Note_on_c, 0, 79, 0
2, 250155, Note_on_c, 0, 60, 0
2, 250171, Note_on_c, 0, 69, 0
2, 250304, Control_c, 0, 64, 0
2, 250333, Note_on_c, 0, 65, 28
2, 250347, Note_on_c, 0, 81, 55
2, 250350, Note_on_c, 0, 70, 63
2, 250351, Note_on_c, 0, 74, 60
2, 250368, Note_on_c, 0, 65, 0
2, 250369, Note_on_c, 0, 77, 46
2, 250420, Control_c, 0, 64, 127
2, 250486, Note_on_c, 0, 74, 0
2, 250490, Note_on_c, 0, 77, 0
2, 250516, Note_on_c, 0, 70, 0
2, 250518, Note_on_c, 0, 81, 0
2, 250672, Control_c, 0, 64, 0
2, 250687, Note_on_c, 0, 54, 43
2, 250724, Note_on_c, 0, 84, 55
2, 250729, Note_on_c, 0, 83, 56
2, 250742, Note_on_c, 0, 71, 32
2, 250743, Note_on_c, 0, 82, 43
2, 250744, Note_on_c, 0, 54, 0
2, 250751, Note_on_c, 0, 72, 29
2, 250779, Control_c, 0, 64, 127
2, 250826, Note_on_c, 0, 71, 0
2, 250843, Note_on_c, 0, 83, 0
2, 250860, Note_on_c, 0, 84, 0
2, 250876, Note_on_c, 0, 82, 0
2, 250889, Note_on_c, 0, 72, 0
2, 250968, Note_on_c, 0, 54, 34
2, 251004, Control_c, 0, 64, 0
2, 251075, Note_on_c, 0, 54, 0
2, 251082, Note_on_c, 0, 85, 69
2, 251092, Note_on_c, 0, 73, 60
2, 251112, Control_c, 0, 64, 127
2, 251149, Note_on_c, 0, 79, 19
2, 251184, Note_on_c, 0, 79, 0
2, 251205, Note_on_c, 0, 73, 0
2, 251227, Note_on_c, 0, 85, 0
2, 251357, Note_on_c, 0, 87, 75
2, 251363, Note_on_c, 0, 75, 74
2, 251368, Note_on_c, 0, 56, 60
2, 251369, Note_on_c, 0, 46, 58
2, 251374, Control_c, 0, 64, 0
2, 251434, Note_on_c, 0, 75, 0
2, 251442, Note_on_c, 0, 56, 0
2, 251479, Note_on_c, 0, 87, 0
2, 251498, Control_c, 0, 64, 127
2, 251508, Note_on_c, 0, 46, 0
2, 251723, Control_c, 0, 64, 0
2, 251726, Note_on_c, 0, 84, 62
2, 251733, Note_on_c, 0, 72, 58
2, 251734, Note_on_c, 0, 79, 61
2, 251741, Note_on_c, 0, 55, 57
2, 251742, Note_on_c, 0, 45, 60
2, 251762, Note_on_c, 0, 72, 0
2, 251765, Note_on_c, 0, 79, 0
2, 251772, Note_on_c, 0, 45, 0
2, 251779, Note_on_c, 0, 84, 0
2, 251786, Note_on_c, 0, 55, 0
2, 252117, Note_on_c, 0, 96, 95
2, 252118, Note_on_c, 0, 84, 90
2, 252121, Note_on_c, 0, 55, 71
2, 252123, Note_on_c, 0, 64, 78
2, 252124, Note_on_c, 0, 57, 71
2, 252126, Note_on_c, 0, 60, 74
2, 252136, Note_on_c, 0, 92, 46
2, 252139, Note_on_c, 0, 58, 47
2, 252149, Note_on_c, 0, 86, 36
2, 252165, Note_on_c, 0, 92, 0
2, 252168, Note_on_c, 0, 58, 0
2, 252184, Note_on_c, 0, 86, 0
2, 252235, Control_c, 0, 64, 127
2, 252389, Note_on_c, 0, 96, 0
2, 252441, Note_on_c, 0, 84, 0
2, 252450, Note_on_c, 0, 55, 0
2, 252458, Note_on_c, 0, 64, 0
2, 252470, Note_on_c, 0, 57, 0
2, 252481, Note_on_c, 0, 60, 0
2, 252567, Control_c, 0, 64, 0
2, 252624, Note_on_c, 0, 64, 54
2, 252627, Note_on_c, 0, 92, 69
2, 252628, Note_on_c, 0, 55, 60
2, 252632, Note_on_c, 0, 60, 60
2, 252636, Note_on_c, 0, 80, 69
2, 252636, Note_on_c, 0, 57, 46
2, 252683, Note_on_c, 0, 93, 45
2, 252710, Note_on_c, 0, 80, 0
2, 252713, Note_on_c, 0, 92, 0
2, 252715, Note_on_c, 0, 81, 62
2, 252770, Note_on_c, 0, 93, 0
2, 252773, Note_on_c, 0, 81, 0
2, 252818, Note_on_c, 0, 55, 0
2, 252824, Note_on_c, 0, 64, 0
2, 252838, Note_on_c, 0, 57, 0
2, 252838, Note_on_c, 0, 60, 0
2, 252994, Note_on_c, 0, 55, 48
2, 253008, Note_on_c, 0, 86, 47
2, 253009, Note_on_c, 0, 64, 47
2, 253015, Note_on_c, 0, 74, 40
2, 253017, Note_on_c, 0, 84, 41
2, 253023, Note_on_c, 0, 72, 30
2, 253023, Note_on_c, 0, 60, 50
2, 253039, Note_on_c, 0, 57, 31
2, 253044, Control_c, 0, 64, 127
2, 253053, Note_on_c, 0, 72, 0
2, 253054, Note_on_c, 0, 84, 0
2, 253104, Note_on_c, 0, 74, 0
2, 253132, Note_on_c, 0, 86, 0
2, 253146, Note_on_c, 0, 55, 0
2, 253177, Note_on_c, 0, 64, 0
2, 253182, Note_on_c, 0, 57, 0
2, 253236, Note_on_c, 0, 60, 0
2, 253349, Control_c, 0, 64, 0
2, 253402, Note_on_c, 0, 54, 69
2, 253405, Note_on_c, 0, 89, 76
2, 253407, Note_on_c, 0, 64, 60
2, 253409, Note_on_c, 0, 60, 59
2, 253424, Note_on_c, 0, 77, 69
2, 253517, Note_on_c, 0, 89, 0
2, 253537, Note_on_c, 0, 60, 0
2, 253589, Note_on_c, 0, 77, 0
2, 253663, Note_on_c, 0, 64, 0
2, 253678, Note_on_c, 0, 54, 0
2, 253691, Note_on_c, 0, 60, 40
2, 253725, Note_on_c, 0, 60, 0
2, 253787, Note_on_c, 0, 54, 71
2, 253789, Note_on_c, 0, 73, 72
2, 253799, Note_on_c, 0, 64, 58
2, 253802, Note_on_c, 0, 86, 70
2, 253813, Note_on_c, 0, 60, 55
2, 253836, Note_on_c, 0, 84, 32
2, 253844, Note_on_c, 0, 60, 0
2, 253856, Note_on_c, 0, 74, 61
2, 253861, Control_c, 0, 64, 127
2, 253864, Note_on_c, 0, 73, 0
2, 253967, Note_on_c, 0, 86, 0
2, 253976, Note_on_c, 0, 84, 0
2, 253990, Note_on_c, 0, 74, 0
2, 254057, Note_on_c, 0, 64, 0
2, 254082, Note_on_c, 0, 54, 0
2, 254086, Control_c, 0, 64, 0
2, 254088, Note_on_c, 0, 60, 35
2, 254122, Note_on_c, 0, 60, 0
2, 254167, Note_on_c, 0, 64, 57
2, 254169, Note_on_c, 0, 80, 67
2, 254172, Note_on_c, 0, 68, 71
2, 254173, Note_on_c, 0, 54, 60
2, 254191, Note_on_c, 0, 60, 46
2, 254236, Note_on_c, 0, 68, 0
2, 254238, Note_on_c, 0, 81, 33
2, 254256, Control_c, 0, 64, 127
2, 254266, Note_on_c, 0, 69, 38
2, 254278, Note_on_c, 0, 75, 7
2, 254300, Note_on_c, 0, 64, 0
2, 254307, Note_on_c, 0, 81, 0
2, 254332, Note_on_c, 0, 80, 0
2, 254346, Note_on_c, 0, 69, 0
2, 254369, Note_on_c, 0, 75, 0
2, 254389, Note_on_c, 0, 54, 0
2, 254415, Note_on_c, 0, 60, 0
2, 254436, Control_c, 0, 64, 0
2, 254504, Note_on_c, 0, 54, 58
2, 254536, Note_on_c, 0, 74, 42
2, 254538, Note_on_c, 0, 62, 60
2, 254579, Control_c, 0, 64, 127
2, 254622, Note_on_c, 0, 62, 0
2, 254644, Note_on_c, 0, 74, 0
2, 254702, Note_on_c, 0, 54, 0
2, 254804, Control_c, 0, 64, 0
2, 254805, Note_on_c, 0, 58, 72
2, 254806, Note_on_c, 0, 65, 87
2, 254808, Note_on_c, 0, 70, 74
2, 254809, Note_on_c, 0, 74, 66
2, 254810, Note_on_c, 0, 77, 71
2, 254810, Note_on_c, 0, 62, 71
2, 254819, Note_on_c, 0, 57, 62
2, 254824, Note_on_c, 0, 53, 61
2, 254851, Note_on_c, 0, 76, 24
2, 254854, Note_on_c, 0, 57, 0
2, 254865, Note_on_c, 0, 65, 0
2, 254895, Note_on_c, 0, 76, 0
2, 254921, Note_on_c, 0, 58, 0
2, 254922, Note_on_c, 0, 70, 0
2, 254923, Note_on_c, 0, 62, 0
2, 254947, Note_on_c, 0, 77, 0
2, 254958, Note_on_c, 0, 74, 0
2, 254973, Note_on_c, 0, 65, 49
2, 255016, Note_on_c, 0, 57, 40
2, 255033, Note_on_c, 0, 77, 35
2, 255044, Note_on_c, 0, 62, 33
2, 255045, Note_on_c, 0, 53, 0
2, 255046, Note_on_c, 0, 65, 0
2, 255050, Note_on_c, 0, 58, 46
2, 255062, Note_on_c, 0, 57, 0
2, 255081, Note_on_c, 0, 74, 17
2, 255096, Note_on_c, 0, 58, 0
2, 255101, Control_c, 0, 64, 127
2, 255161, Note_on_c, 0, 70, 33
2, 255173, Note_on_c, 0, 62, 0
2, 255200, Note_on_c, 0, 53, 19
2, 255207, Note_on_c, 0, 65, 30
2, 255209, Control_c, 0, 64, 0
2, 255211, Note_on_c, 0, 57, 57
2, 255225, Note_on_c, 0, 56, 25
2, 255231, Note_on_c, 0, 74, 0
2, 255239, Note_on_c, 0, 77, 0
2, 255241, Note_on_c, 0, 70, 0
2, 255242, Note_on_c, 0, 65, 0
2, 255258, Note_on_c, 0, 56, 0
2, 255301, Note_on_c, 0, 58, 40
2, 255323, Note_on_c, 0, 74, 46
2, 255332, Note_on_c, 0, 62, 68
2, 255357, Note_on_c, 0, 73, 28
2, 255430, Note_on_c, 0, 62, 0
2, 255442, Note_on_c, 0, 58, 0
2, 255459, Note_on_c, 0, 74, 0
2, 255483, Note_on_c, 0, 73, 0
2, 255496, Control_c, 0, 64, 127
2, 255550, Control_c, 0, 64, 0
2, 255556, Note_on_c, 0, 53, 0
2, 255569, Note_on_c, 0, 58, 57
2, 255627, Note_on_c, 0, 57, 0
2, 255679, Note_on_c, 0, 58, 0
2, 255688, Note_on_c, 0, 62, 55
2, 255698, Note_on_c, 0, 77, 70
2, 255705, Note_on_c, 0, 70, 61
2, 255707, Note_on_c, 0, 65, 64
2, 255708, Note_on_c, 0, 74, 45
2, 255712, Control_c, 0, 64, 127
2, 255713, Note_on_c, 0, 53, 55
2, 255741, Note_on_c, 0, 76, 32
2, 255825, Note_on_c, 0, 62, 0
2, 255845, Note_on_c, 0, 65, 0
2, 255854, Note_on_c, 0, 77, 0
2, 255866, Note_on_c, 0, 76, 0
2, 255872, Note_on_c, 0, 74, 0
2, 255893, Note_on_c, 0, 70, 0
2, 255894, Note_on_c, 0, 53, 0
2, 255963, Control_c, 0, 64, 0
2, 255975, Note_on_c, 0, 58, 55
2, 255979, Note_on_c, 0, 53, 51
2, 255992, Note_on_c, 0, 64, 66
2, 255997, Note_on_c, 0, 76, 43
2, 256004, Note_on_c, 0, 70, 36
2, 256021, Note_on_c, 0, 74, 25
2, 256022, Note_on_c, 0, 64, 0
2, 256034, Note_on_c, 0, 70, 0
2, 256055, Note_on_c, 0, 53, 0
2, 256067, Note_on_c, 0, 58, 0
2, 256070, Note_on_c, 0, 76, 0
2, 256071, Note_on_c, 0, 74, 0
2, 256161, Control_c, 0, 64, 127
2, 256322, Control_c, 0, 64, 0
2, 256346, Note_on_c, 0, 84, 85
2, 256347, Note_on_c, 0, 58, 69
2, 256350, Note_on_c, 0, 62, 73
2, 256354, Note_on_c, 0, 52, 61
2, 256356, Note_on_c, 0, 72, 77
2, 256380, Note_on_c, 0, 62, 0
2, 256386, Note_on_c, 0, 72, 0
2, 256430, Note_on_c, 0, 52, 0
2, 256430, Note_on_c, 0, 58, 0
2, 256441, Note_on_c, 0, 84, 0
2, 256718, Note_on_c, 0, 82, 91
2, 256726, Note_on_c, 0, 58, 83
2, 256732, Note_on_c, 0, 59, 91
2, 256780, Note_on_c, 0, 58, 0
2, 256870, Note_on_c, 0, 82, 0
2, 256870, Note_on_c, 0, 83, 80
2, 256956, Note_on_c, 0, 82, 34
2, 256997, Note_on_c, 0, 83, 0
2, 257040, Note_on_c, 0, 59, 0
2, 257057, Note_on_c, 0, 80, 46
2, 257079, Note_on_c, 0, 82, 0
2, 257090, Note_on_c, 0, 56, 46
2, 257137, Note_on_c, 0, 80, 0
2, 257142, Note_on_c, 0, 77, 38
2, 257182, Note_on_c, 0, 56, 0
2, 257197, Note_on_c, 0, 77, 0
2, 257236, Note_on_c, 0, 58, 71
2, 257258, Note_on_c, 0, 82, 83
2, 257361, Note_on_c, 0, 82, 0
2, 257399, Note_on_c, 0, 58, 0
2, 257445, Control_c, 0, 64, 127
2, 257484, Note_on_c, 0, 56, 62
2, 257487, Note_on_c, 0, 80, 71
2, 257517, Control_c, 0, 64, 0
2, 257587, Note_on_c, 0, 56, 0
2, 257591, Note_on_c, 0, 80, 0
2, 257655, Note_on_c, 0, 77, 48
2, 257795, Control_c, 0, 64, 127
2, 257810, Note_on_c, 0, 77, 0
2, 257874, Note_on_c, 0, 51, 42
2, 257900, Note_on_c, 0, 72, 27
2, 257922, Control_c, 0, 64, 0
2, 257934, Note_on_c, 0, 72, 0
2, 257938, Note_on_c, 0, 51, 0
2, 258008, Note_on_c, 0, 77, 75
2, 258012, Note_on_c, 0, 53, 50
2, 258073, Note_on_c, 0, 53, 0
2, 258111, Note_on_c, 0, 77, 0
2, 258191, Control_c, 0, 64, 127
2, 258247, Note_on_c, 0, 75, 71
2, 258249, Note_on_c, 0, 51, 67
2, 258254, Control_c, 0, 64, 0
2, 258323, Note_on_c, 0, 51, 0
2, 258336, Note_on_c, 0, 75, 0
2, 258443, Note_on_c, 0, 71, 59
2, 258443, Note_on_c, 0, 48, 19
2, 258452, Note_on_c, 0, 47, 24
2, 258508, Note_on_c, 0, 48, 0
2, 258645, Note_on_c, 0, 71, 0
2, 258662, Note_on_c, 0, 47, 0
2, 258767, Note_on_c, 0, 46, 34
2, 258806, Note_on_c, 0, 70, 29
2, 258883, Note_on_c, 0, 46, 0
2, 258896, Note_on_c, 0, 71, 44
2, 258965, Note_on_c, 0, 71, 0
2, 259005, Note_on_c, 0, 68, 52
2, 259022, Note_on_c, 0, 70, 0
2, 259093, Note_on_c, 0, 68, 0
2, 259099, Note_on_c, 0, 65, 60
2, 259165, Note_on_c, 0, 65, 0
2, 259229, Note_on_c, 0, 63, 59
2, 259359, Control_c, 0, 64, 127
2, 259404, Note_on_c, 0, 63, 0
2, 259432, Note_on_c, 0, 60, 68
2, 259466, Control_c, 0, 64, 0
2, 259507, Note_on_c, 0, 60, 0
2, 259590, Note_on_c, 0, 58, 38
2, 259628, Control_c, 0, 64, 127
2, 259733, Note_on_c, 0, 58, 0
2, 259788, Note_on_c, 0, 59, 14
2, 259818, Note_on_c, 0, 59, 0
2, 259825, Control_c, 0, 64, 0
2, 259951, Control_c, 0, 64, 127
2, 259954, Note_on_c, 0, 42, 60
2, 259961, Note_on_c, 0, 30, 49
2, 260173, Note_on_c, 0, 30, 0
2, 260174, Note_on_c, 0, 42, 0
2, 260225, Note_on_c, 0, 57, 60
2, 260227, Note_on_c, 0, 62, 51
2, 260237, Note_on_c, 0, 67, 44
2, 260239, Control_c, 0, 64, 0
2, 260252, Note_on_c, 0, 41, 56
2, 260262, Note_on_c, 0, 29, 53
2, 262268, Note_on_c, 0, 57, 0
2, 262283, Note_on_c, 0, 62, 0
2, 262342, Note_on_c, 0, 67, 0
2, 262549, Note_on_c, 0, 29, 0
2, 262570, Note_on_c, 0, 41, 0
2, 262570, End_track
3, 0, Start_track
3, 0, MIDI_port, 0
3, 391, Program_c, 1, 35
3, 3049, Note_on_c, 1, 48, 77
3, 3295, Note_on_c, 1, 36, 71
3, 3318, Note_on_c, 1, 48, 0
3, 3767, Note_on_c, 1, 36, 0
3, 3838, Note_on_c, 1, 36, 78
3, 4453, Note_on_c, 1, 50, 85
3, 4487, Note_on_c, 1, 52, 26
3, 4513, Note_on_c, 1, 52, 0
3, 4516, Note_on_c, 1, 36, 0
3, 4544, Note_on_c, 1, 50, 0
3, 4599, Note_on_c, 1, 48, 65
3, 4831, Note_on_c, 1, 36, 82
3, 4843, Note_on_c, 1, 48, 0
3, 4943, Note_on_c, 1, 36, 0
3, 5343, Note_on_c, 1, 36, 53
3, 5637, Note_on_c, 1, 34, 23
3, 5667, Note_on_c, 1, 36, 0
3, 5686, Note_on_c, 1, 34, 0
3, 5710, Note_on_c, 1, 50, 91
3, 5952, Note_on_c, 1, 50, 0
3, 5970, Note_on_c, 1, 48, 84
3, 6370, Note_on_c, 1, 34, 70
3, 6435, Note_on_c, 1, 34, 0
3, 6495, Note_on_c, 1, 34, 69
3, 6541, Note_on_c, 1, 48, 0
3, 6821, Note_on_c, 1, 34, 0
3, 6864, Note_on_c, 1, 35, 68
3, 7193, Note_on_c, 1, 35, 0
3, 7257, Note_on_c, 1, 35, 56
3, 7510, Note_on_c, 1, 35, 0
3, 7521, Note_on_c, 1, 36, 94
3, 9052, Note_on_c, 1, 39, 52
3, 9075, Note_on_c, 1, 40, 62
3, 9078, Note_on_c, 1, 39, 0
3, 9093, Note_on_c, 1, 36, 0
3, 9106, Note_on_c, 1, 40, 0
3, 9194, Note_on_c, 1, 41, 48
3, 9416, Note_on_c, 1, 41, 0
3, 9439, Note_on_c, 1, 35, 71
3, 9544, Note_on_c, 1, 35, 0
3, 9568, Note_on_c, 1, 36, 58
3, 9932, Note_on_c, 1, 36, 0
3, 9958, Note_on_c, 1, 33, 55
3, 10334, Note_on_c, 1, 33, 0
3, 10336, Note_on_c, 1, 31, 55
3, 10694, Note_on_c, 1, 31, 0
3, 10715, Note_on_c, 1, 29, 47
3, 10992, Note_on_c, 1, 31, 47
3, 11052, Note_on_c, 1, 29, 0
3, 11055, Note_on_c, 1, 31, 0
3, 11094, Note_on_c, 1, 43, 96
3, 11460, Note_on_c, 1, 43, 0
3, 11473, Note_on_c, 1, 41, 62
3, 11733, Note_on_c, 1, 38, 60
3, 11777, Note_on_c, 1, 38, 0
3, 11792, Note_on_c, 1, 41, 0
3, 11848, Note_on_c, 1, 33, 62
3, 12232, Note_on_c, 1, 33, 0
3, 12236, Note_on_c, 1, 34, 56
3, 12637, Note_on_c, 1, 43, 88
3, 12656, Note_on_c, 1, 34, 0
3, 12981, Note_on_c, 1, 43, 0
3, 13016, Note_on_c, 1, 45, 57
3, 13319, Note_on_c, 1, 45, 0
3, 13402, Note_on_c, 1, 42, 57
3, 13743, Note_on_c, 1, 42, 0
3, 13780, Note_on_c, 1, 43, 45
3, 14173, Note_on_c, 1, 43, 0
3, 14173, Note_on_c, 1, 40, 75
3, 14537, Note_on_c, 1, 40, 0
3, 14555, Note_on_c, 1, 41, 57
3, 14798, Note_on_c, 1, 33, 71
3, 14814, Note_on_c, 1, 41, 0
3, 14885, Note_on_c, 1, 33, 0
3, 14920, Note_on_c, 1, 32, 57
3, 15316, Note_on_c, 1, 32, 0
3, 15324, Note_on_c, 1, 31, 60
3, 15586, Note_on_c, 1, 32, 35
3, 15635, Note_on_c, 1, 32, 0
3, 15638, Note_on_c, 1, 31, 0
3, 15695, Note_on_c, 1, 45, 89
3, 16039, Note_on_c, 1, 45, 0
3, 16082, Note_on_c, 1, 38, 36
3, 16128, Note_on_c, 1, 38, 0
3, 16219, Note_on_c, 1, 34, 52
3, 16291, Note_on_c, 1, 34, 0
3, 16350, Note_on_c, 1, 35, 68
3, 16430, Note_on_c, 1, 35, 0
3, 16485, Note_on_c, 1, 38, 78
3, 16819, Note_on_c, 1, 38, 0
3, 16866, Note_on_c, 1, 36, 45
3, 16961, Note_on_c, 1, 36, 0
3, 16989, Note_on_c, 1, 38, 64
3, 17039, Note_on_c, 1, 38, 0
3, 17129, Note_on_c, 1, 39, 70
3, 17244, Note_on_c, 1, 39, 0
3, 17262, Note_on_c, 1, 40, 66
3, 17595, Note_on_c, 1, 40, 0
3, 17639, Note_on_c, 1, 43, 53
3, 17930, Note_on_c, 1, 38, 28
3, 17944, Note_on_c, 1, 43, 0
3, 17962, Note_on_c, 1, 38, 0
3, 18011, Note_on_c, 1, 46, 68
3, 18376, Note_on_c, 1, 46, 0
3, 18413, Note_on_c, 1, 45, 49
3, 18665, Note_on_c, 1, 39, 35
3, 18724, Note_on_c, 1, 39, 0
3, 18764, Note_on_c, 1, 45, 0
3, 18768, Note_on_c, 1, 57, 71
3, 19107, Note_on_c, 1, 57, 0
3, 19169, Note_on_c, 1, 50, 35
3, 19420, Note_on_c, 1, 46, 27
3, 19476, Note_on_c, 1, 46, 0
3, 19526, Note_on_c, 1, 62, 65
3, 19529, Note_on_c, 1, 50, 0
3, 19886, Note_on_c, 1, 62, 0
3, 19929, Note_on_c, 1, 55, 46
3, 20055, Note_on_c, 1, 55, 0
3, 20166, Note_on_c, 1, 42, 73
3, 20280, Note_on_c, 1, 42, 0
3, 20301, Note_on_c, 1, 43, 50
3, 20578, Note_on_c, 1, 39, 33
3, 20624, Note_on_c, 1, 43, 0
3, 20647, Note_on_c, 1, 39, 0
3, 20681, Note_on_c, 1, 48, 64
3, 20797, Note_on_c, 1, 48, 0
3, 20838, Note_on_c, 1, 41, 44
3, 20873, Note_on_c, 1, 41, 0
3, 21077, Note_on_c, 1, 36, 77
3, 21358, Note_on_c, 1, 29, 84
3, 21359, Note_on_c, 1, 36, 0
3, 21829, Note_on_c, 1, 29, 0
3, 21864, Note_on_c, 1, 31, 45
3, 22234, Note_on_c, 1, 31, 0
3, 22246, Note_on_c, 1, 33, 46
3, 22579, Note_on_c, 1, 33, 0
3, 22591, Note_on_c, 1, 34, 55
3, 22771, Note_on_c, 1, 34, 0
3, 22878, Note_on_c, 1, 35, 54
3, 22960, Note_on_c, 1, 35, 0
3, 23011, Note_on_c, 1, 36, 40
3, 23271, Note_on_c, 1, 34, 28
3, 23293, Note_on_c, 1, 36, 0
3, 23325, Note_on_c, 1, 34, 0
3, 23364, Note_on_c, 1, 38, 59
3, 23750, Note_on_c, 1, 38, 0
3, 23752, Note_on_c, 1, 36, 58
3, 23923, Note_on_c, 1, 36, 0
3, 24019, Note_on_c, 1, 36, 68
3, 24085, Note_on_c, 1, 36, 0
3, 24145, Note_on_c, 1, 35, 58
3, 24487, Note_on_c, 1, 35, 0
3, 24524, Note_on_c, 1, 34, 50
3, 24788, Note_on_c, 1, 43, 58
3, 24819, Note_on_c, 1, 43, 0
3, 24876, Note_on_c, 1, 34, 0
3, 24918, Note_on_c, 1, 45, 46
3, 25116, Note_on_c, 1, 45, 0
3, 25160, Note_on_c, 1, 42, 57
3, 25241, Note_on_c, 1, 42, 0
3, 25283, Note_on_c, 1, 43, 50
3, 25535, Note_on_c, 1, 43, 0
3, 25570, Note_on_c, 1, 40, 37
3, 25630, Note_on_c, 1, 40, 0
3, 25676, Note_on_c, 1, 41, 53
3, 25936, Note_on_c, 1, 41, 0
3, 25968, Note_on_c, 1, 39, 31
3, 25994, Note_on_c, 1, 39, 0
3, 26114, Note_on_c, 1, 40, 34
3, 26148, Note_on_c, 1, 40, 0
3, 26361, Note_on_c, 1, 37, 62
3, 26405, Note_on_c, 1, 37, 0
3, 26465, Note_on_c, 1, 38, 64
3, 26693, Note_on_c, 1, 38, 0
3, 26748, Note_on_c, 1, 35, 47
3, 26815, Note_on_c, 1, 35, 0
3, 26848, Note_on_c, 1, 36, 51
3, 27102, Note_on_c, 1, 33, 66
3, 27103, Note_on_c, 1, 36, 0
3, 27169, Note_on_c, 1, 33, 0
3, 27231, Note_on_c, 1, 32, 70
3, 27576, Note_on_c, 1, 32, 0
3, 27604, Note_on_c, 1, 31, 51
3, 27897, Note_on_c, 1, 32, 34
3, 27943, Note_on_c, 1, 32, 0
3, 27983, Note_on_c, 1, 31, 0
3, 27994, Note_on_c, 1, 46, 73
3, 28374, Note_on_c, 1, 43, 52
3, 28381, Note_on_c, 1, 46, 0
3, 28758, Note_on_c, 1, 43, 0
3, 28762, Note_on_c, 1, 35, 62
3, 29149, Note_on_c, 1, 35, 0
3, 29149, Note_on_c, 1, 36, 66
3, 29427, Note_on_c, 1, 35, 44
3, 29476, Note_on_c, 1, 36, 0
3, 29504, Note_on_c, 1, 35, 0
3, 29525, Note_on_c, 1, 50, 90
3, 29899, Note_on_c, 1, 50, 0
3, 29908, Note_on_c, 1, 48, 63
3, 30302, Note_on_c, 1, 35, 80
3, 30333, Note_on_c, 1, 48, 0
3, 30685, Note_on_c, 1, 36, 64
3, 30691, Note_on_c, 1, 35, 0
3, 30956, Note_on_c, 1, 35, 38
3, 30986, Note_on_c, 1, 36, 0
3, 31054, Note_on_c, 1, 35, 0
3, 31062, Note_on_c, 1, 50, 103
3, 31423, Note_on_c, 1, 50, 0
3, 31448, Note_on_c, 1, 48, 68
3, 31834, Note_on_c, 1, 35, 71
3, 32124, Note_on_c, 1, 48, 0
3, 32216, Note_on_c, 1, 36, 73
3, 32221, Note_on_c, 1, 35, 0
3, 32515, Note_on_c, 1, 35, 39
3, 32544, Note_on_c, 1, 36, 0
3, 32593, Note_on_c, 1, 35, 0
3, 32608, Note_on_c, 1, 43, 84
3, 32974, Note_on_c, 1, 43, 0
3, 32993, Note_on_c, 1, 41, 65
3, 33266, Note_on_c, 1, 34, 58
3, 33273, Note_on_c, 1, 41, 0
3, 33329, Note_on_c, 1, 34, 0
3, 33374, Note_on_c, 1, 35, 61
3, 33717, Note_on_c, 1, 35, 0
3, 33743, Note_on_c, 1, 36, 58
3, 34036, Note_on_c, 1, 35, 47
3, 34051, Note_on_c, 1, 36, 0
3, 34077, Note_on_c, 1, 35, 0
3, 34138, Note_on_c, 1, 38, 66
3, 34478, Note_on_c, 1, 38, 0
3, 34519, Note_on_c, 1, 39, 46
3, 34882, Note_on_c, 1, 39, 0
3, 34900, Note_on_c, 1, 40, 61
3, 35261, Note_on_c, 1, 40, 0
3, 35293, Note_on_c, 1, 41, 53
3, 35536, Note_on_c, 1, 36, 53
3, 35609, Note_on_c, 1, 41, 0
3, 35627, Note_on_c, 1, 36, 0
3, 35628, Note_on_c, 1, 30, 68
3, 36037, Note_on_c, 1, 30, 0
3, 36061, Note_on_c, 1, 29, 47
3, 36400, Note_on_c, 1, 29, 0
3, 36438, Note_on_c, 1, 33, 57
3, 36811, Note_on_c, 1, 33, 0
3, 36827, Note_on_c, 1, 34, 45
3, 37087, Note_on_c, 1, 44, 59
3, 37138, Note_on_c, 1, 44, 0
3, 37144, Note_on_c, 1, 34, 0
3, 37198, Note_on_c, 1, 45, 53
3, 37441, Note_on_c, 1, 45, 0
3, 37465, Note_on_c, 1, 42, 48
3, 37550, Note_on_c, 1, 42, 0
3, 37592, Note_on_c, 1, 43, 49
3, 37826, Note_on_c, 1, 43, 0
3, 37877, Note_on_c, 1, 40, 31
3, 37955, Note_on_c, 1, 40, 0
3, 37991, Note_on_c, 1, 41, 45
3, 38223, Note_on_c, 1, 41, 0
3, 38265, Note_on_c, 1, 37, 35
3, 38312, Note_on_c, 1, 37, 0
3, 38374, Note_on_c, 1, 38, 64
3, 38702, Note_on_c, 1, 38, 0
3, 38757, Note_on_c, 1, 36, 60
3, 39103, Note_on_c, 1, 36, 0
3, 39136, Note_on_c, 1, 34, 46
3, 39366, Note_on_c, 1, 32, 40
3, 39403, Note_on_c, 1, 32, 0
3, 39465, Note_on_c, 1, 34, 0
3, 39497, Note_on_c, 1, 39, 45
3, 39784, Note_on_c, 1, 34, 46
3, 39812, Note_on_c, 1, 39, 0
3, 39838, Note_on_c, 1, 34, 0
3, 39899, Note_on_c, 1, 46, 67
3, 40237, Note_on_c, 1, 46, 0
3, 40278, Note_on_c, 1, 41, 55
3, 40652, Note_on_c, 1, 41, 0
3, 40663, Note_on_c, 1, 37, 54
3, 41024, Note_on_c, 1, 37, 0
3, 41026, Note_on_c, 1, 38, 53
3, 41411, Note_on_c, 1, 39, 62
3, 41413, Note_on_c, 1, 38, 0
3, 41818, Note_on_c, 1, 53, 79
3, 41864, Note_on_c, 1, 39, 0
3, 42049, Note_on_c, 1, 39, 33
3, 42076, Note_on_c, 1, 39, 0
3, 42193, Note_on_c, 1, 51, 50
3, 42517, Note_on_c, 1, 53, 0
3, 42535, Note_on_c, 1, 51, 0
3, 42566, Note_on_c, 1, 43, 67
3, 42964, Note_on_c, 1, 44, 58
3, 42966, Note_on_c, 1, 43, 0
3, 43234, Note_on_c, 1, 43, 42
3, 43264, Note_on_c, 1, 43, 0
3, 43276, Note_on_c, 1, 44, 0
3, 43339, Note_on_c, 1, 46, 59
3, 43712, Note_on_c, 1, 46, 0
3, 43728, Note_on_c, 1, 44, 54
3, 44114, Note_on_c, 1, 36, 89
3, 44133, Note_on_c, 1, 35, 44
3, 44141, Note_on_c, 1, 44, 0
3, 44162, Note_on_c, 1, 35, 0
3, 44499, Note_on_c, 1, 50, 90
3, 44590, Note_on_c, 1, 36, 0
3, 44871, Note_on_c, 1, 50, 0
3, 44889, Note_on_c, 1, 49, 71
3, 45218, Note_on_c, 1, 49, 0
3, 45286, Note_on_c, 1, 48, 43
3, 45636, Note_on_c, 1, 40, 70
3, 45641, Note_on_c, 1, 48, 0
3, 45991, Note_on_c, 1, 40, 0
3, 46021, Note_on_c, 1, 41, 56
3, 46333, Note_on_c, 1, 41, 0
3, 46425, Note_on_c, 1, 48, 99
3, 47078, Note_on_c, 1, 35, 41
3, 47156, Note_on_c, 1, 48, 0
3, 47160, Note_on_c, 1, 35, 0
3, 47198, Note_on_c, 1, 36, 62
3, 47856, Note_on_c, 1, 34, 36
3, 47933, Note_on_c, 1, 36, 0
3, 47969, Note_on_c, 1, 48, 105
3, 47970, Note_on_c, 1, 34, 0
3, 48225, Note_on_c, 1, 50, 53
3, 48228, Note_on_c, 1, 48, 0
3, 48330, Note_on_c, 1, 50, 0
3, 48356, Note_on_c, 1, 48, 54
3, 48632, Note_on_c, 1, 34, 44
3, 48658, Note_on_c, 1, 48, 0
3, 48705, Note_on_c, 1, 34, 0
3, 48750, Note_on_c, 1, 36, 77
3, 49382, Note_on_c, 1, 34, 33
3, 49453, Note_on_c, 1, 34, 0
3, 49458, Note_on_c, 1, 36, 0
3, 49500, Note_on_c, 1, 48, 113
3, 50162, Note_on_c, 1, 34, 27
3, 50199, Note_on_c, 1, 34, 0
3, 50276, Note_on_c, 1, 36, 78
3, 50451, Note_on_c, 1, 48, 0
3, 50922, Note_on_c, 1, 34, 33
3, 51010, Note_on_c, 1, 36, 0
3, 51031, Note_on_c, 1, 34, 0
3, 51039, Note_on_c, 1, 48, 115
3, 51934, Note_on_c, 1, 48, 0
3, 51943, Note_on_c, 1, 44, 60
3, 51970, Note_on_c, 1, 44, 0
3, 52053, Note_on_c, 1, 43, 64
3, 52122, Note_on_c, 1, 43, 0
3, 52452, Note_on_c, 1, 43, 76
3, 52513, Note_on_c, 1, 43, 0
3, 52591, Note_on_c, 1, 38, 69
3, 52931, Note_on_c, 1, 38, 0
3, 52957, Note_on_c, 1, 34, 45
3, 53289, Note_on_c, 1, 34, 0
3, 53306, Note_on_c, 1, 35, 58
3, 53589, Note_on_c, 1, 34, 29
3, 53643, Note_on_c, 1, 35, 0
3, 53688, Note_on_c, 1, 34, 0
3, 53705, Note_on_c, 1, 36, 55
3, 53991, Note_on_c, 1, 34, 35
3, 54009, Note_on_c, 1, 36, 0
3, 54040, Note_on_c, 1, 34, 0
3, 54086, Note_on_c, 1, 50, 73
3, 54314, Note_on_c, 1, 34, 34
3, 54378, Note_on_c, 1, 34, 0
3, 54440, Note_on_c, 1, 50, 0
3, 54464, Note_on_c, 1, 48, 58
3, 54815, Note_on_c, 1, 48, 0
3, 54846, Note_on_c, 1, 40, 53
3, 55204, Note_on_c, 1, 40, 0
3, 55238, Note_on_c, 1, 41, 54
3, 55479, Note_on_c, 1, 41, 0
3, 55510, Note_on_c, 1, 35, 74
3, 56018, Note_on_c, 1, 35, 0
3, 56036, Note_on_c, 1, 36, 62
3, 56305, Note_on_c, 1, 35, 46
3, 56349, Note_on_c, 1, 36, 0
3, 56393, Note_on_c, 1, 35, 0
3, 56404, Note_on_c, 1, 50, 103
3, 57066, Note_on_c, 1, 40, 59
3, 57099, Note_on_c, 1, 40, 0
3, 57169, Note_on_c, 1, 50, 0
3, 57195, Note_on_c, 1, 48, 80
3, 57826, Note_on_c, 1, 39, 48
3, 57897, Note_on_c, 1, 39, 0
3, 57915, Note_on_c, 1, 48, 0
3, 57946, Note_on_c, 1, 40, 27
3, 58163, Note_on_c, 1, 40, 0
3, 58187, Note_on_c, 1, 41, 60
3, 58410, Note_on_c, 1, 41, 0
3, 58430, Note_on_c, 1, 36, 50
3, 58508, Note_on_c, 1, 36, 0
3, 58573, Note_on_c, 1, 34, 61
3, 58658, Note_on_c, 1, 34, 0
3, 58710, Note_on_c, 1, 33, 69
3, 59068, Note_on_c, 1, 33, 0
3, 59094, Note_on_c, 1, 34, 59
3, 59431, Note_on_c, 1, 34, 0
3, 59457, Note_on_c, 1, 35, 62
3, 59754, Note_on_c, 1, 34, 33
3, 59833, Note_on_c, 1, 35, 0
3, 59837, Note_on_c, 1, 34, 0
3, 59978, Note_on_c, 1, 36, 46
3, 60138, Note_on_c, 1, 34, 29
3, 60167, Note_on_c, 1, 36, 0
3, 60196, Note_on_c, 1, 34, 0
3, 60229, Note_on_c, 1, 50, 87
3, 60585, Note_on_c, 1, 50, 0
3, 60614, Note_on_c, 1, 48, 52
3, 60988, Note_on_c, 1, 45, 46
3, 61014, Note_on_c, 1, 48, 0
3, 61383, Note_on_c, 1, 45, 0
3, 61390, Note_on_c, 1, 46, 55
3, 61662, Note_on_c, 1, 40, 57
3, 61679, Note_on_c, 1, 46, 0
3, 61740, Note_on_c, 1, 40, 0
3, 61810, Note_on_c, 1, 41, 41
3, 61906, Note_on_c, 1, 41, 0
3, 62058, Note_on_c, 1, 37, 53
3, 62144, Note_on_c, 1, 37, 0
3, 62195, Note_on_c, 1, 38, 40
3, 62520, Note_on_c, 1, 38, 0
3, 62552, Note_on_c, 1, 33, 47
3, 62906, Note_on_c, 1, 33, 0
3, 62941, Note_on_c, 1, 34, 44
3, 63306, Note_on_c, 1, 36, 56
3, 63307, Note_on_c, 1, 34, 0
3, 63683, Note_on_c, 1, 36, 0
3, 63693, Note_on_c, 1, 38, 57
3, 63936, Note_on_c, 1, 37, 54
3, 63992, Note_on_c, 1, 37, 0
3, 64034, Note_on_c, 1, 38, 0
3, 64075, Note_on_c, 1, 44, 70
3, 64445, Note_on_c, 1, 44, 0
3, 64466, Note_on_c, 1, 43, 58
3, 64823, Note_on_c, 1, 43, 0
3, 64845, Note_on_c, 1, 34, 55
3, 65213, Note_on_c, 1, 34, 0
3, 65245, Note_on_c, 1, 38, 57
3, 65629, Note_on_c, 1, 35, 71
3, 65656, Note_on_c, 1, 38, 0
3, 65999, Note_on_c, 1, 35, 0
3, 66019, Note_on_c, 1, 36, 60
3, 66392, Note_on_c, 1, 50, 84
3, 66416, Note_on_c, 1, 36, 0
3, 66749, Note_on_c, 1, 50, 0
3, 66772, Note_on_c, 1, 48, 63
3, 67148, Note_on_c, 1, 46, 49
3, 67159, Note_on_c, 1, 48, 0
3, 67525, Note_on_c, 1, 46, 0
3, 67545, Note_on_c, 1, 45, 35
3, 67789, Note_on_c, 1, 58, 76
3, 67824, Note_on_c, 1, 45, 0
3, 67884, Note_on_c, 1, 58, 0
3, 67933, Note_on_c, 1, 57, 53
3, 68283, Note_on_c, 1, 57, 0
3, 68316, Note_on_c, 1, 50, 50
3, 68669, Note_on_c, 1, 50, 0
3, 68699, Note_on_c, 1, 42, 60
3, 69046, Note_on_c, 1, 42, 0
3, 69087, Note_on_c, 1, 43, 51
3, 69452, Note_on_c, 1, 43, 0
3, 69455, Note_on_c, 1, 31, 70
3, 69804, Note_on_c, 1, 31, 0
3, 69827, Note_on_c, 1, 36, 66
3, 70191, Note_on_c, 1, 36, 0
3, 70211, Note_on_c, 1, 40, 80
3, 70569, Note_on_c, 1, 40, 0
3, 70601, Note_on_c, 1, 41, 62
3, 70988, Note_on_c, 1, 55, 75
3, 71041, Note_on_c, 1, 41, 0
3, 71354, Note_on_c, 1, 55, 0
3, 71405, Note_on_c, 1, 53, 50
3, 71770, Note_on_c, 1, 48, 60
3, 71801, Note_on_c, 1, 53, 0
3, 72123, Note_on_c, 1, 48, 0
3, 72166, Note_on_c, 1, 45, 53
3, 72505, Note_on_c, 1, 45, 0
3, 72543, Note_on_c, 1, 43, 39
3, 72893, Note_on_c, 1, 43, 0
3, 72913, Note_on_c, 1, 41, 48
3, 73110, Note_on_c, 1, 41, 0
3, 73167, Note_on_c, 1, 41, 36
3, 73294, Note_on_c, 1, 60, 80
3, 73321, Note_on_c, 1, 41, 0
3, 73627, Note_on_c, 1, 60, 0
3, 73693, Note_on_c, 1, 58, 48
3, 74034, Note_on_c, 1, 58, 0
3, 74060, Note_on_c, 1, 53, 57
3, 74421, Note_on_c, 1, 53, 0
3, 74448, Note_on_c, 1, 50, 42
3, 74841, Note_on_c, 1, 50, 0
3, 74847, Note_on_c, 1, 45, 80
3, 75186, Note_on_c, 1, 45, 0
3, 75223, Note_on_c, 1, 46, 50
3, 75607, Note_on_c, 1, 41, 54
3, 75619, Note_on_c, 1, 46, 0
3, 75974, Note_on_c, 1, 41, 0
3, 75981, Note_on_c, 1, 38, 62
3, 76174, Note_on_c, 1, 38, 0
3, 76246, Note_on_c, 1, 38, 52
3, 76363, Note_on_c, 1, 42, 86
3, 76366, Note_on_c, 1, 38, 0
3, 76733, Note_on_c, 1, 42, 0
3, 76746, Note_on_c, 1, 43, 61
3, 77023, Note_on_c, 1, 38, 60
3, 77040, Note_on_c, 1, 43, 0
3, 77093, Note_on_c, 1, 38, 0
3, 77225, Note_on_c, 1, 34, 63
3, 77487, Note_on_c, 1, 34, 0
3, 77512, Note_on_c, 1, 38, 67
3, 77886, Note_on_c, 1, 38, 0
3, 77903, Note_on_c, 1, 35, 64
3, 78283, Note_on_c, 1, 35, 0
3, 78302, Note_on_c, 1, 36, 60
3, 78614, Note_on_c, 1, 36, 0
3, 78670, Note_on_c, 1, 38, 66
3, 79026, Note_on_c, 1, 38, 0
3, 79046, Note_on_c, 1, 39, 59
3, 79434, Note_on_c, 1, 39, 0
3, 79446, Note_on_c, 1, 40, 58
3, 79810, Note_on_c, 1, 40, 0
3, 79833, Note_on_c, 1, 41, 62
3, 80106, Note_on_c, 1, 36, 67
3, 80129, Note_on_c, 1, 41, 0
3, 80179, Note_on_c, 1, 36, 0
3, 80230, Note_on_c, 1, 33, 68
3, 80583, Note_on_c, 1, 33, 0
3, 80607, Note_on_c, 1, 34, 59
3, 80968, Note_on_c, 1, 34, 0
3, 80980, Note_on_c, 1, 35, 62
3, 81369, Note_on_c, 1, 35, 0
3, 81373, Note_on_c, 1, 36, 60
3, 81731, Note_on_c, 1, 36, 0
3, 81748, Note_on_c, 1, 37, 57
3, 82107, Note_on_c, 1, 37, 0
3, 82141, Note_on_c, 1, 38, 43
3, 82473, Note_on_c, 1, 38, 0
3, 82517, Note_on_c, 1, 40, 54
3, 82866, Note_on_c, 1, 40, 0
3, 82903, Note_on_c, 1, 41, 50
3, 83179, Note_on_c, 1, 36, 35
3, 83212, Note_on_c, 1, 36, 0
3, 83244, Note_on_c, 1, 41, 0
3, 83295, Note_on_c, 1, 48, 62
3, 83622, Note_on_c, 1, 48, 0
3, 83691, Note_on_c, 1, 53, 66
3, 84038, Note_on_c, 1, 53, 0
3, 84063, Note_on_c, 1, 48, 49
3, 84292, Note_on_c, 1, 48, 0
3, 84323, Note_on_c, 1, 40, 71
3, 84430, Note_on_c, 1, 40, 0
3, 84459, Note_on_c, 1, 41, 51
3, 84702, Note_on_c, 1, 39, 47
3, 84751, Note_on_c, 1, 41, 0
3, 84765, Note_on_c, 1, 39, 0
3, 84818, Note_on_c, 1, 53, 85
3, 85183, Note_on_c, 1, 53, 0
3, 85202, Note_on_c, 1, 48, 53
3, 85480, Note_on_c, 1, 48, 0
3, 85574, Note_on_c, 1, 41, 83
3, 85878, Note_on_c, 1, 39, 37
3, 85912, Note_on_c, 1, 39, 0
3, 85961, Note_on_c, 1, 41, 0
3, 85975, Note_on_c, 1, 53, 87
3, 86321, Note_on_c, 1, 53, 0
3, 86357, Note_on_c, 1, 50, 60
3, 86729, Note_on_c, 1, 41, 82
3, 86751, Note_on_c, 1, 50, 0
3, 87133, Note_on_c, 1, 53, 89
3, 87134, Note_on_c, 1, 41, 0
3, 87480, Note_on_c, 1, 53, 0
3, 87513, Note_on_c, 1, 50, 45
3, 87877, Note_on_c, 1, 41, 73
3, 87923, Note_on_c, 1, 50, 0
3, 88267, Note_on_c, 1, 53, 88
3, 88278, Note_on_c, 1, 41, 0
3, 88662, Note_on_c, 1, 53, 0
3, 88662, Note_on_c, 1, 50, 58
3, 89038, Note_on_c, 1, 50, 0
3, 89041, Note_on_c, 1, 41, 64
3, 89402, Note_on_c, 1, 41, 0
3, 89417, Note_on_c, 1, 53, 92
3, 89775, Note_on_c, 1, 53, 0
3, 89818, Note_on_c, 1, 49, 59
3, 90071, Note_on_c, 1, 41, 43
3, 90105, Note_on_c, 1, 41, 0
3, 90156, Note_on_c, 1, 49, 0
3, 90194, Note_on_c, 1, 46, 51
3, 90565, Note_on_c, 1, 46, 0
3, 90602, Note_on_c, 1, 39, 38
3, 91004, Note_on_c, 1, 51, 79
3, 91005, Note_on_c, 1, 39, 0
3, 91294, Note_on_c, 1, 51, 0
3, 91353, Note_on_c, 1, 46, 48
3, 91628, Note_on_c, 1, 39, 28
3, 91655, Note_on_c, 1, 39, 0
3, 91689, Note_on_c, 1, 46, 0
3, 91723, Note_on_c, 1, 45, 56
3, 92075, Note_on_c, 1, 45, 0
3, 92118, Note_on_c, 1, 44, 36
3, 92469, Note_on_c, 1, 44, 0
3, 92488, Note_on_c, 1, 39, 56
3, 92835, Note_on_c, 1, 39, 0
3, 92884, Note_on_c, 1, 35, 56
3, 93226, Note_on_c, 1, 35, 0
3, 93259, Note_on_c, 1, 37, 79
3, 93607, Note_on_c, 1, 37, 0
3, 93640, Note_on_c, 1, 36, 62
3, 94016, Note_on_c, 1, 36, 0
3, 94022, Note_on_c, 1, 50, 94
3, 94367, Note_on_c, 1, 50, 0
3, 94400, Note_on_c, 1, 48, 53
3, 94752, Note_on_c, 1, 48, 0
3, 94772, Note_on_c, 1, 40, 56
3, 95152, Note_on_c, 1, 40, 0
3, 95175, Note_on_c, 1, 41, 47
3, 95219, Note_on_c, 1, 41, 0
3, 95440, Note_on_c, 1, 41, 66
3, 95501, Note_on_c, 1, 41, 0
3, 95569, Note_on_c, 1, 33, 51
3, 95935, Note_on_c, 1, 33, 0
3, 95943, Note_on_c, 1, 34, 55
3, 96300, Note_on_c, 1, 34, 0
3, 96323, Note_on_c, 1, 35, 51
3, 96709, Note_on_c, 1, 35, 0
3, 96714, Note_on_c, 1, 36, 55
3, 97097, Note_on_c, 1, 36, 0
3, 97100, Note_on_c, 1, 37, 55
3, 97498, Note_on_c, 1, 37, 0
3, 97507, Note_on_c, 1, 38, 37
3, 97762, Note_on_c, 1, 37, 38
3, 97809, Note_on_c, 1, 38, 0
3, 97843, Note_on_c, 1, 37, 0
3, 97882, Note_on_c, 1, 48, 66
3, 98226, Note_on_c, 1, 48, 0
3, 98260, Note_on_c, 1, 46, 43
3, 98615, Note_on_c, 1, 46, 0
3, 98647, Note_on_c, 1, 41, 51
3, 98998, Note_on_c, 1, 41, 0
3, 99091, Note_on_c, 1, 38, 51
3, 99378, Note_on_c, 1, 38, 0
3, 99387, Note_on_c, 1, 33, 60
3, 99754, Note_on_c, 1, 33, 0
3, 99791, Note_on_c, 1, 34, 46
3, 100109, Note_on_c, 1, 34, 0
3, 100170, Note_on_c, 1, 34, 60
3, 100543, Note_on_c, 1, 34, 0
3, 100562, Note_on_c, 1, 38, 59
3, 100871, Note_on_c, 1, 38, 0
3, 100923, Note_on_c, 1, 42, 67
3, 101292, Note_on_c, 1, 42, 0
3, 101304, Note_on_c, 1, 43, 60
3, 101693, Note_on_c, 1, 50, 85
3, 101705, Note_on_c, 1, 43, 0
3, 102060, Note_on_c, 1, 50, 0
3, 102091, Note_on_c, 1, 49, 60
3, 102427, Note_on_c, 1, 49, 0
3, 102469, Note_on_c, 1, 47, 58
3, 102817, Note_on_c, 1, 47, 0
3, 102860, Note_on_c, 1, 48, 57
3, 103229, Note_on_c, 1, 36, 66
3, 103284, Note_on_c, 1, 48, 0
3, 103630, Note_on_c, 1, 46, 63
3, 103679, Note_on_c, 1, 36, 0
3, 103929, Note_on_c, 1, 36, 40
3, 103965, Note_on_c, 1, 36, 0
3, 103968, Note_on_c, 1, 46, 0
3, 104003, Note_on_c, 1, 44, 59
3, 104373, Note_on_c, 1, 44, 0
3, 104388, Note_on_c, 1, 45, 58
3, 104768, Note_on_c, 1, 39, 62
3, 104774, Note_on_c, 1, 45, 0
3, 105148, Note_on_c, 1, 39, 0
3, 105155, Note_on_c, 1, 38, 61
3, 105429, Note_on_c, 1, 37, 39
3, 105482, Note_on_c, 1, 38, 0
3, 105485, Note_on_c, 1, 37, 0
3, 105542, Note_on_c, 1, 42, 81
3, 105891, Note_on_c, 1, 42, 0
3, 105927, Note_on_c, 1, 43, 55
3, 106203, Note_on_c, 1, 43, 0
3, 106210, Note_on_c, 1, 34, 58
3, 106289, Note_on_c, 1, 34, 0
3, 106327, Note_on_c, 1, 35, 61
3, 106682, Note_on_c, 1, 35, 0
3, 106705, Note_on_c, 1, 36, 59
3, 106972, Note_on_c, 1, 34, 36
3, 107011, Note_on_c, 1, 36, 0
3, 107052, Note_on_c, 1, 34, 0
3, 107083, Note_on_c, 1, 43, 76
3, 107445, Note_on_c, 1, 43, 0
3, 107465, Note_on_c, 1, 41, 57
3, 107494, Note_on_c, 1, 41, 0
3, 107599, Note_on_c, 1, 36, 58
3, 107673, Note_on_c, 1, 36, 0
3, 107729, Note_on_c, 1, 34, 39
3, 107757, Note_on_c, 1, 34, 0
3, 107837, Note_on_c, 1, 33, 70
3, 108211, Note_on_c, 1, 33, 0
3, 108236, Note_on_c, 1, 34, 56
3, 108579, Note_on_c, 1, 34, 0
3, 108601, Note_on_c, 1, 35, 55
3, 108972, Note_on_c, 1, 35, 0
3, 108992, Note_on_c, 1, 36, 52
3, 109258, Note_on_c, 1, 50, 87
3, 109269, Note_on_c, 1, 36, 0
3, 109357, Note_on_c, 1, 50, 0
3, 109394, Note_on_c, 1, 48, 57
3, 109716, Note_on_c, 1, 48, 0
3, 109760, Note_on_c, 1, 45, 58
3, 110105, Note_on_c, 1, 45, 0
3, 110150, Note_on_c, 1, 41, 72
3, 110424, Note_on_c, 1, 39, 38
3, 110473, Note_on_c, 1, 41, 0
3, 110499, Note_on_c, 1, 39, 0
3, 110531, Note_on_c, 1, 46, 58
3, 110836, Note_on_c, 1, 42, 25
3, 110880, Note_on_c, 1, 46, 0
3, 110887, Note_on_c, 1, 42, 0
3, 110921, Note_on_c, 1, 50, 39
3, 111179, Note_on_c, 1, 46, 34
3, 111205, Note_on_c, 1, 46, 0
3, 111268, Note_on_c, 1, 50, 0
3, 111310, Note_on_c, 1, 55, 77
3, 111640, Note_on_c, 1, 55, 0
3, 111684, Note_on_c, 1, 54, 62
3, 112044, Note_on_c, 1, 54, 0
3, 112083, Note_on_c, 1, 53, 61
3, 112415, Note_on_c, 1, 53, 0
3, 112462, Note_on_c, 1, 50, 43
3, 112852, Note_on_c, 1, 46, 42
3, 112864, Note_on_c, 1, 50, 0
3, 113219, Note_on_c, 1, 54, 71
3, 113222, Note_on_c, 1, 46, 0
3, 113592, Note_on_c, 1, 54, 0
3, 113628, Note_on_c, 1, 55, 54
3, 113959, Note_on_c, 1, 55, 0
3, 113999, Note_on_c, 1, 50, 46
3, 114376, Note_on_c, 1, 46, 47
3, 114383, Note_on_c, 1, 50, 0
3, 114483, Note_on_c, 1, 46, 0
3, 114651, Note_on_c, 1, 46, 46
3, 114734, Note_on_c, 1, 46, 0
3, 114798, Note_on_c, 1, 47, 71
3, 115122, Note_on_c, 1, 47, 0
3, 115136, Note_on_c, 1, 48, 47
3, 115433, Note_on_c, 1, 46, 27
3, 115460, Note_on_c, 1, 46, 0
3, 115466, Note_on_c, 1, 48, 0
3, 115537, Note_on_c, 1, 52, 75
3, 115890, Note_on_c, 1, 52, 0
3, 115917, Note_on_c, 1, 48, 50
3, 116263, Note_on_c, 1, 48, 0
3, 116294, Note_on_c, 1, 44, 52
3, 116646, Note_on_c, 1, 44, 0
3, 116677, Note_on_c, 1, 45, 63
3, 116949, Note_on_c, 1, 44, 37
3, 116988, Note_on_c, 1, 45, 0
3, 117025, Note_on_c, 1, 44, 0
3, 117056, Note_on_c, 1, 49, 70
3, 117435, Note_on_c, 1, 49, 0
3, 117469, Note_on_c, 1, 50, 55
3, 117830, Note_on_c, 1, 38, 59
3, 117853, Note_on_c, 1, 50, 0
3, 118237, Note_on_c, 1, 43, 67
3, 118264, Note_on_c, 1, 38, 0
3, 118508, Note_on_c, 1, 38, 49
3, 118544, Note_on_c, 1, 38, 0
3, 118567, Note_on_c, 1, 43, 0
3, 118618, Note_on_c, 1, 49, 59
3, 118954, Note_on_c, 1, 49, 0
3, 119005, Note_on_c, 1, 48, 62
3, 119347, Note_on_c, 1, 48, 0
3, 119378, Note_on_c, 1, 42, 60
3, 119770, Note_on_c, 1, 42, 0
3, 119776, Note_on_c, 1, 41, 54
3, 120167, Note_on_c, 1, 41, 0
3, 120170, Note_on_c, 1, 50, 84
3, 120532, Note_on_c, 1, 50, 0
3, 120550, Note_on_c, 1, 48, 54
3, 120922, Note_on_c, 1, 41, 92
3, 120949, Note_on_c, 1, 48, 0
3, 121251, Note_on_c, 1, 39, 35
3, 121303, Note_on_c, 1, 41, 0
3, 121317, Note_on_c, 1, 39, 0
3, 121322, Note_on_c, 1, 50, 73
3, 121664, Note_on_c, 1, 50, 0
3, 121682, Note_on_c, 1, 48, 64
3, 121937, Note_on_c, 1, 41, 63
3, 121970, Note_on_c, 1, 41, 0
3, 122023, Note_on_c, 1, 48, 0
3, 122071, Note_on_c, 1, 47, 63
3, 122372, Note_on_c, 1, 47, 0
3, 122442, Note_on_c, 1, 47, 57
3, 122796, Note_on_c, 1, 47, 0
3, 122845, Note_on_c, 1, 46, 42
3, 123225, Note_on_c, 1, 46, 0
3, 123228, Note_on_c, 1, 41, 51
3, 123607, Note_on_c, 1, 34, 42
3, 123632, Note_on_c, 1, 41, 0
3, 123868, Note_on_c, 1, 41, 55
3, 123918, Note_on_c, 1, 41, 0
3, 123937, Note_on_c, 1, 34, 0
3, 123983, Note_on_c, 1, 55, 89
3, 124338, Note_on_c, 1, 55, 0
3, 124383, Note_on_c, 1, 53, 61
3, 124748, Note_on_c, 1, 53, 0
3, 124751, Note_on_c, 1, 46, 58
3, 125108, Note_on_c, 1, 46, 0
3, 125148, Note_on_c, 1, 45, 64
3, 125499, Note_on_c, 1, 45, 0
3, 125524, Note_on_c, 1, 44, 48
3, 125857, Note_on_c, 1, 42, 17
3, 125872, Note_on_c, 1, 44, 0
3, 125891, Note_on_c, 1, 42, 0
3, 125905, Note_on_c, 1, 43, 51
3, 126231, Note_on_c, 1, 42, 31
3, 126294, Note_on_c, 1, 43, 0
3, 126298, Note_on_c, 1, 58, 87
3, 126350, Note_on_c, 1, 42, 0
3, 126676, Note_on_c, 1, 58, 0
3, 126681, Note_on_c, 1, 55, 60
3, 127060, Note_on_c, 1, 55, 0
3, 127075, Note_on_c, 1, 48, 84
3, 127433, Note_on_c, 1, 48, 0
3, 127454, Note_on_c, 1, 36, 74
3, 127803, Note_on_c, 1, 36, 0
3, 127833, Note_on_c, 1, 39, 53
3, 128208, Note_on_c, 1, 39, 0
3, 128215, Note_on_c, 1, 43, 57
3, 128581, Note_on_c, 1, 43, 0
3, 128589, Note_on_c, 1, 42, 57
3, 128929, Note_on_c, 1, 42, 0
3, 128962, Note_on_c, 1, 41, 54
3, 129011, Note_on_c, 1, 41, 0
3, 129238, Note_on_c, 1, 34, 69
3, 129319, Note_on_c, 1, 34, 0
3, 129363, Note_on_c, 1, 33, 66
3, 129720, Note_on_c, 1, 33, 0
3, 129738, Note_on_c, 1, 34, 60
3, 130099, Note_on_c, 1, 34, 0
3, 130116, Note_on_c, 1, 35, 60
3, 130502, Note_on_c, 1, 35, 0
3, 130513, Note_on_c, 1, 36, 58
3, 130877, Note_on_c, 1, 37, 67
3, 130879, Note_on_c, 1, 36, 0
3, 131263, Note_on_c, 1, 37, 0
3, 131269, Note_on_c, 1, 38, 61
3, 131665, Note_on_c, 1, 40, 64
3, 131693, Note_on_c, 1, 38, 0
3, 132038, Note_on_c, 1, 40, 0
3, 132050, Note_on_c, 1, 41, 58
3, 132339, Note_on_c, 1, 40, 40
3, 132367, Note_on_c, 1, 41, 0
3, 132385, Note_on_c, 1, 40, 0
3, 132427, Note_on_c, 1, 43, 57
3, 132809, Note_on_c, 1, 43, 0
3, 132834, Note_on_c, 1, 45, 50
3, 133178, Note_on_c, 1, 45, 0
3, 133209, Note_on_c, 1, 46, 57
3, 133577, Note_on_c, 1, 46, 0
3, 133590, Note_on_c, 1, 47, 58
3, 133942, Note_on_c, 1, 47, 0
3, 133974, Note_on_c, 1, 48, 62
3, 134315, Note_on_c, 1, 48, 0
3, 134351, Note_on_c, 1, 51, 67
3, 134730, Note_on_c, 1, 51, 0
3, 134738, Note_on_c, 1, 49, 59
3, 135099, Note_on_c, 1, 49, 0
3, 135127, Note_on_c, 1, 50, 50
3, 135494, Note_on_c, 1, 50, 0
3, 135510, Note_on_c, 1, 45, 48
3, 135848, Note_on_c, 1, 45, 0
3, 135875, Note_on_c, 1, 46, 47
3, 136268, Note_on_c, 1, 41, 56
3, 136270, Note_on_c, 1, 46, 0
3, 136635, Note_on_c, 1, 41, 0
3, 136652, Note_on_c, 1, 38, 52
3, 137016, Note_on_c, 1, 38, 0
3, 137030, Note_on_c, 1, 46, 81
3, 137424, Note_on_c, 1, 41, 50
3, 137437, Note_on_c, 1, 46, 0
3, 137801, Note_on_c, 1, 38, 57
3, 137817, Note_on_c, 1, 41, 0
3, 138153, Note_on_c, 1, 38, 0
3, 138196, Note_on_c, 1, 38, 50
3, 138554, Note_on_c, 1, 38, 0
3, 138563, Note_on_c, 1, 46, 77
3, 138942, Note_on_c, 1, 46, 0
3, 138956, Note_on_c, 1, 39, 59
3, 139271, Note_on_c, 1, 46, 36
3, 139299, Note_on_c, 1, 46, 0
3, 139346, Note_on_c, 1, 51, 72
3, 139355, Note_on_c, 1, 39, 0
3, 139727, Note_on_c, 1, 51, 0
3, 139741, Note_on_c, 1, 49, 42
3, 140007, Note_on_c, 1, 44, 31
3, 140036, Note_on_c, 1, 44, 0
3, 140076, Note_on_c, 1, 49, 0
3, 140107, Note_on_c, 1, 46, 52
3, 140479, Note_on_c, 1, 46, 0
3, 140492, Note_on_c, 1, 45, 54
3, 140808, Note_on_c, 1, 45, 0
3, 140870, Note_on_c, 1, 45, 59
3, 141223, Note_on_c, 1, 45, 0
3, 141254, Note_on_c, 1, 44, 51
3, 141629, Note_on_c, 1, 39, 60
3, 141641, Note_on_c, 1, 44, 0
3, 142031, Note_on_c, 1, 44, 57
3, 142054, Note_on_c, 1, 39, 0
3, 142422, Note_on_c, 1, 44, 0
3, 142425, Note_on_c, 1, 39, 61
3, 142787, Note_on_c, 1, 39, 0
3, 142798, Note_on_c, 1, 36, 60
3, 143083, Note_on_c, 1, 43, 43
3, 143123, Note_on_c, 1, 43, 0
3, 143128, Note_on_c, 1, 36, 0
3, 143180, Note_on_c, 1, 48, 92
3, 143536, Note_on_c, 1, 48, 0
3, 143563, Note_on_c, 1, 50, 52
3, 143927, Note_on_c, 1, 50, 0
3, 143949, Note_on_c, 1, 40, 64
3, 144349, Note_on_c, 1, 41, 56
3, 144352, Note_on_c, 1, 40, 0
3, 144625, Note_on_c, 1, 40, 42
3, 144702, Note_on_c, 1, 40, 0
3, 144706, Note_on_c, 1, 41, 0
3, 144733, Note_on_c, 1, 55, 77
3, 145096, Note_on_c, 1, 55, 0
3, 145134, Note_on_c, 1, 53, 56
3, 145471, Note_on_c, 1, 53, 0
3, 145503, Note_on_c, 1, 48, 60
3, 145877, Note_on_c, 1, 48, 0
3, 145899, Note_on_c, 1, 45, 43
3, 146252, Note_on_c, 1, 45, 0
3, 146271, Note_on_c, 1, 41, 56
3, 146642, Note_on_c, 1, 41, 0
3, 146651, Note_on_c, 1, 36, 57
3, 147025, Note_on_c, 1, 35, 76
3, 147045, Note_on_c, 1, 36, 0
3, 147407, Note_on_c, 1, 35, 0
3, 147420, Note_on_c, 1, 34, 39
3, 147693, Note_on_c, 1, 38, 40
3, 147765, Note_on_c, 1, 38, 0
3, 147787, Note_on_c, 1, 50, 103
3, 147799, Note_on_c, 1, 34, 0
3, 148145, Note_on_c, 1, 50, 0
3, 148168, Note_on_c, 1, 48, 48
3, 148527, Note_on_c, 1, 48, 0
3, 148549, Note_on_c, 1, 46, 51
3, 148940, Note_on_c, 1, 45, 36
3, 148954, Note_on_c, 1, 46, 0
3, 149245, Note_on_c, 1, 39, 21
3, 149271, Note_on_c, 1, 39, 0
3, 149322, Note_on_c, 1, 45, 0
3, 149324, Note_on_c, 1, 48, 66
3, 149714, Note_on_c, 1, 46, 59
3, 149993, Note_on_c, 1, 38, 46
3, 150012, Note_on_c, 1, 48, 0
3, 150020, Note_on_c, 1, 38, 0
3, 150043, Note_on_c, 1, 46, 0
3, 150095, Note_on_c, 1, 44, 62
3, 150448, Note_on_c, 1, 44, 0
3, 150474, Note_on_c, 1, 43, 50
3, 150753, Note_on_c, 1, 38, 57
3, 150768, Note_on_c, 1, 43, 0
3, 150845, Note_on_c, 1, 38, 0
3, 150874, Note_on_c, 1, 34, 58
3, 151264, Note_on_c, 1, 34, 0
3, 151272, Note_on_c, 1, 38, 66
3, 151619, Note_on_c, 1, 38, 0
3, 151633, Note_on_c, 1, 35, 62
3, 151923, Note_on_c, 1, 34, 27
3, 151997, Note_on_c, 1, 35, 0
3, 152002, Note_on_c, 1, 34, 0
3, 152013, Note_on_c, 1, 36, 53
3, 152288, Note_on_c, 1, 34, 28
3, 152350, Note_on_c, 1, 36, 0
3, 152376, Note_on_c, 1, 34, 0
3, 152376, Note_on_c, 1, 48, 78
3, 152389, Note_on_c, 1, 47, 54
3, 152416, Note_on_c, 1, 47, 0
3, 153069, Note_on_c, 1, 34, 54
3, 153113, Note_on_c, 1, 48, 0
3, 153141, Note_on_c, 1, 34, 0
3, 153180, Note_on_c, 1, 36, 78
3, 153823, Note_on_c, 1, 34, 35
3, 153934, Note_on_c, 1, 48, 95
3, 153937, Note_on_c, 1, 34, 0
3, 153945, Note_on_c, 1, 50, 68
3, 153969, Note_on_c, 1, 50, 0
3, 153969, Note_on_c, 1, 36, 0
3, 154578, Note_on_c, 1, 34, 35
3, 154676, Note_on_c, 1, 34, 0
3, 154689, Note_on_c, 1, 48, 0
3, 154696, Note_on_c, 1, 36, 82
3, 155360, Note_on_c, 1, 34, 39
3, 155440, Note_on_c, 1, 36, 0
3, 155476, Note_on_c, 1, 48, 105
3, 155477, Note_on_c, 1, 34, 0
3, 156140, Note_on_c, 1, 39, 60
3, 156198, Note_on_c, 1, 39, 0
3, 156199, Note_on_c, 1, 48, 0
3, 156253, Note_on_c, 1, 40, 53
3, 156553, Note_on_c, 1, 39, 19
3, 156595, Note_on_c, 1, 39, 0
3, 156602, Note_on_c, 1, 40, 0
3, 156633, Note_on_c, 1, 41, 53
3, 157000, Note_on_c, 1, 41, 0
3, 157014, Note_on_c, 1, 48, 94
3, 157645, Note_on_c, 1, 34, 37
3, 157730, Note_on_c, 1, 34, 0
3, 157777, Note_on_c, 1, 36, 75
3, 157790, Note_on_c, 1, 48, 0
3, 158428, Note_on_c, 1, 34, 34
3, 158537, Note_on_c, 1, 36, 0
3, 158540, Note_on_c, 1, 34, 0
3, 158546, Note_on_c, 1, 48, 108
3, 159196, Note_on_c, 1, 36, 51
3, 159241, Note_on_c, 1, 36, 0
3, 159315, Note_on_c, 1, 36, 71
3, 159529, Note_on_c, 1, 48, 0
3, 159981, Note_on_c, 1, 34, 35
3, 160083, Note_on_c, 1, 36, 0
3, 160127, Note_on_c, 1, 34, 0
3, 160127, Note_on_c, 1, 48, 110
3, 160754, Note_on_c, 1, 34, 44
3, 160815, Note_on_c, 1, 34, 0
3, 160815, Note_on_c, 1, 48, 0
3, 160843, Note_on_c, 1, 36, 78
3, 161494, Note_on_c, 1, 34, 36
3, 161564, Note_on_c, 1, 36, 0
3, 161591, Note_on_c, 1, 34, 0
3, 161601, Note_on_c, 1, 48, 108
3, 162232, Note_on_c, 1, 36, 71
3, 162294, Note_on_c, 1, 36, 0
3, 162320, Note_on_c, 1, 48, 0
3, 162347, Note_on_c, 1, 47, 64
3, 162733, Note_on_c, 1, 47, 0
3, 162762, Note_on_c, 1, 46, 37
3, 162850, Note_on_c, 1, 46, 0
3, 163047, Note_on_c, 1, 38, 35
3, 163079, Note_on_c, 1, 38, 0
3, 163136, Note_on_c, 1, 43, 60
3, 163528, Note_on_c, 1, 35, 49
3, 163529, Note_on_c, 1, 43, 0
3, 163846, Note_on_c, 1, 35, 0
3, 163899, Note_on_c, 1, 37, 68
3, 164236, Note_on_c, 1, 37, 0
3, 164318, Note_on_c, 1, 36, 64
3, 164597, Note_on_c, 1, 35, 43
3, 164636, Note_on_c, 1, 36, 0
3, 164681, Note_on_c, 1, 35, 0
3, 164701, Note_on_c, 1, 50, 91
3, 165056, Note_on_c, 1, 50, 0
3, 165085, Note_on_c, 1, 48, 62
3, 165457, Note_on_c, 1, 46, 50
3, 165482, Note_on_c, 1, 48, 0
3, 165848, Note_on_c, 1, 46, 0
3, 165849, Note_on_c, 1, 45, 41
3, 166113, Note_on_c, 1, 44, 23
3, 166171, Note_on_c, 1, 45, 0
3, 166203, Note_on_c, 1, 57, 84
3, 166208, Note_on_c, 1, 44, 0
3, 166601, Note_on_c, 1, 50, 62
3, 166611, Note_on_c, 1, 57, 0
3, 166864, Note_on_c, 1, 46, 28
3, 166983, Note_on_c, 1, 62, 73
3, 166985, Note_on_c, 1, 50, 0
3, 166988, Note_on_c, 1, 46, 0
3, 167360, Note_on_c, 1, 62, 0
3, 167375, Note_on_c, 1, 55, 55
3, 167741, Note_on_c, 1, 55, 0
3, 167770, Note_on_c, 1, 43, 55
3, 168137, Note_on_c, 1, 43, 0
3, 168166, Note_on_c, 1, 48, 58
3, 168504, Note_on_c, 1, 48, 0
3, 168523, Note_on_c, 1, 36, 83
3, 168878, Note_on_c, 1, 36, 0
3, 168929, Note_on_c, 1, 41, 34
3, 169263, Note_on_c, 1, 41, 0
3, 169276, Note_on_c, 1, 33, 88
3, 169621, Note_on_c, 1, 33, 0
3, 169659, Note_on_c, 1, 36, 54
3, 170019, Note_on_c, 1, 36, 0
3, 170063, Note_on_c, 1, 38, 79
3, 170426, Note_on_c, 1, 38, 0
3, 170439, Note_on_c, 1, 41, 41
3, 170794, Note_on_c, 1, 41, 0
3, 170808, Note_on_c, 1, 43, 80
3, 171131, Note_on_c, 1, 41, 27
3, 171167, Note_on_c, 1, 43, 0
3, 171180, Note_on_c, 1, 41, 0
3, 171181, Note_on_c, 1, 44, 69
3, 171465, Note_on_c, 1, 41, 36
3, 171515, Note_on_c, 1, 41, 0
3, 171578, Note_on_c, 1, 45, 68
3, 171586, Note_on_c, 1, 44, 0
3, 171946, Note_on_c, 1, 45, 0
3, 171974, Note_on_c, 1, 46, 46
3, 172368, Note_on_c, 1, 34, 57
3, 172406, Note_on_c, 1, 46, 0
3, 172666, Note_on_c, 1, 43, 20
3, 172705, Note_on_c, 1, 43, 0
3, 172758, Note_on_c, 1, 34, 0
3, 172764, Note_on_c, 1, 48, 87
3, 173109, Note_on_c, 1, 48, 0
3, 173146, Note_on_c, 1, 45, 48
3, 173415, Note_on_c, 1, 37, 32
3, 173478, Note_on_c, 1, 37, 0
3, 173499, Note_on_c, 1, 45, 0
3, 173532, Note_on_c, 1, 46, 52
3, 173890, Note_on_c, 1, 46, 0
3, 173897, Note_on_c, 1, 41, 53
3, 174224, Note_on_c, 1, 41, 0
3, 174281, Note_on_c, 1, 41, 55
3, 174619, Note_on_c, 1, 41, 0
3, 174645, Note_on_c, 1, 32, 60
3, 175023, Note_on_c, 1, 32, 0
3, 175042, Note_on_c, 1, 31, 52
3, 175442, Note_on_c, 1, 31, 0
3, 175449, Note_on_c, 1, 38, 51
3, 175805, Note_on_c, 1, 38, 0
3, 175831, Note_on_c, 1, 34, 49
3, 176169, Note_on_c, 1, 34, 0
3, 176197, Note_on_c, 1, 35, 57
3, 176515, Note_on_c, 1, 34, 20
3, 176562, Note_on_c, 1, 34, 0
3, 176567, Note_on_c, 1, 35, 0
3, 176587, Note_on_c, 1, 36, 59
3, 176954, Note_on_c, 1, 37, 70
3, 176985, Note_on_c, 1, 36, 0
3, 177321, Note_on_c, 1, 37, 0
3, 177338, Note_on_c, 1, 38, 40
3, 177720, Note_on_c, 1, 40, 58
3, 177746, Note_on_c, 1, 38, 0
3, 178077, Note_on_c, 1, 40, 0
3, 178089, Note_on_c, 1, 41, 52
3, 178396, Note_on_c, 1, 40, 34
3, 178433, Note_on_c, 1, 41, 0
3, 178442, Note_on_c, 1, 40, 0
3, 178474, Note_on_c, 1, 50, 78
3, 178842, Note_on_c, 1, 50, 0
3, 178874, Note_on_c, 1, 48, 57
3, 179230, Note_on_c, 1, 48, 0
3, 179250, Note_on_c, 1, 45, 59
3, 179614, Note_on_c, 1, 45, 0
3, 179641, Note_on_c, 1, 41, 50
3, 180014, Note_on_c, 1, 41, 0
3, 180020, Note_on_c, 1, 39, 60
3, 180392, Note_on_c, 1, 39, 0
3, 180421, Note_on_c, 1, 38, 38
3, 180797, Note_on_c, 1, 37, 65
3, 180839, Note_on_c, 1, 38, 0
3, 181172, Note_on_c, 1, 37, 0
3, 181201, Note_on_c, 1, 36, 56
3, 181558, Note_on_c, 1, 36, 0
3, 181576, Note_on_c, 1, 43, 68
3, 181945, Note_on_c, 1, 39, 51
3, 181951, Note_on_c, 1, 43, 0
3, 182209, Note_on_c, 1, 43, 44
3, 182271, Note_on_c, 1, 43, 0
3, 182288, Note_on_c, 1, 39, 0
3, 182325, Note_on_c, 1, 50, 80
3, 182616, Note_on_c, 1, 39, 36
3, 182677, Note_on_c, 1, 50, 0
3, 182685, Note_on_c, 1, 39, 0
3, 182728, Note_on_c, 1, 55, 78
3, 183053, Note_on_c, 1, 55, 0
3, 183101, Note_on_c, 1, 54, 70
3, 183450, Note_on_c, 1, 54, 0
3, 183499, Note_on_c, 1, 53, 48
3, 183865, Note_on_c, 1, 53, 0
3, 183876, Note_on_c, 1, 45, 42
3, 184221, Note_on_c, 1, 45, 0
3, 184268, Note_on_c, 1, 46, 48
3, 184642, Note_on_c, 1, 46, 0
3, 184665, Note_on_c, 1, 40, 44
3, 184999, Note_on_c, 1, 40, 0
3, 185030, Note_on_c, 1, 41, 50
3, 185386, Note_on_c, 1, 41, 0
3, 185402, Note_on_c, 1, 37, 55
3, 185791, Note_on_c, 1, 37, 0
3, 185795, Note_on_c, 1, 38, 58
3, 186151, Note_on_c, 1, 38, 0
3, 186179, Note_on_c, 1, 43, 67
3, 186562, Note_on_c, 1, 41, 50
3, 186588, Note_on_c, 1, 43, 0
3, 186838, Note_on_c, 1, 38, 37
3, 186876, Note_on_c, 1, 38, 0
3, 186905, Note_on_c, 1, 41, 0
3, 186938, Note_on_c, 1, 48, 62
3, 187331, Note_on_c, 1, 48, 0
3, 187351, Note_on_c, 1, 46, 53
3, 187700, Note_on_c, 1, 46, 0
3, 187725, Note_on_c, 1, 49, 69
3, 188097, Note_on_c, 1, 49, 0
3, 188113, Note_on_c, 1, 39, 56
3, 188440, Note_on_c, 1, 39, 0
3, 188491, Note_on_c, 1, 38, 62
3, 188844, Note_on_c, 1, 38, 0
3, 188875, Note_on_c, 1, 39, 57
3, 189243, Note_on_c, 1, 51, 84
3, 189250, Note_on_c, 1, 39, 0
3, 189605, Note_on_c, 1, 51, 0
3, 189621, Note_on_c, 1, 45, 76
3, 189995, Note_on_c, 1, 45, 0
3, 190018, Note_on_c, 1, 33, 70
3, 190371, Note_on_c, 1, 33, 0
3, 190415, Note_on_c, 1, 32, 57
3, 190787, Note_on_c, 1, 32, 0
3, 190794, Note_on_c, 1, 39, 51
3, 191167, Note_on_c, 1, 44, 78
3, 191194, Note_on_c, 1, 39, 0
3, 191545, Note_on_c, 1, 39, 71
3, 191577, Note_on_c, 1, 44, 0
3, 191812, Note_on_c, 1, 37, 44
3, 191912, Note_on_c, 1, 39, 0
3, 191919, Note_on_c, 1, 37, 0
3, 191933, Note_on_c, 1, 48, 89
3, 192329, Note_on_c, 1, 36, 92
3, 192342, Note_on_c, 1, 48, 0
3, 192706, Note_on_c, 1, 48, 96
3, 192751, Note_on_c, 1, 36, 0
3, 192977, Note_on_c, 1, 50, 57
3, 192982, Note_on_c, 1, 48, 0
3, 193025, Note_on_c, 1, 50, 0
3, 193092, Note_on_c, 1, 40, 82
3, 193475, Note_on_c, 1, 40, 0
3, 193484, Note_on_c, 1, 41, 62
3, 193773, Note_on_c, 1, 40, 36
3, 193808, Note_on_c, 1, 41, 0
3, 193811, Note_on_c, 1, 40, 0
3, 193865, Note_on_c, 1, 46, 69
3, 194243, Note_on_c, 1, 46, 0
3, 194255, Note_on_c, 1, 45, 57
3, 194618, Note_on_c, 1, 45, 0
3, 194646, Note_on_c, 1, 43, 54
3, 194999, Note_on_c, 1, 43, 0
3, 195020, Note_on_c, 1, 41, 55
3, 195383, Note_on_c, 1, 41, 0
3, 195397, Note_on_c, 1, 36, 71
3, 195794, Note_on_c, 1, 36, 0
3, 195794, Note_on_c, 1, 33, 59
3, 196155, Note_on_c, 1, 33, 0
3, 196174, Note_on_c, 1, 36, 61
3, 196522, Note_on_c, 1, 36, 0
3, 196556, Note_on_c, 1, 34, 42
3, 196913, Note_on_c, 1, 34, 0
3, 196917, Note_on_c, 1, 43, 89
3, 197309, Note_on_c, 1, 43, 0
3, 197330, Note_on_c, 1, 41, 43
3, 197576, Note_on_c, 1, 41, 0
3, 197621, Note_on_c, 1, 39, 25
3, 197639, Note_on_c, 1, 41, 24
3, 197647, Note_on_c, 1, 39, 0
3, 197701, Note_on_c, 1, 41, 0
3, 197712, Note_on_c, 1, 50, 84
3, 198060, Note_on_c, 1, 50, 0
3, 198086, Note_on_c, 1, 46, 38
3, 198473, Note_on_c, 1, 41, 57
3, 198501, Note_on_c, 1, 46, 0
3, 198802, Note_on_c, 1, 41, 0
3, 198850, Note_on_c, 1, 38, 57
3, 199181, Note_on_c, 1, 38, 0
3, 199235, Note_on_c, 1, 32, 44
3, 199559, Note_on_c, 1, 32, 0
3, 199624, Note_on_c, 1, 31, 44
3, 200012, Note_on_c, 1, 38, 56
3, 200019, Note_on_c, 1, 31, 0
3, 200397, Note_on_c, 1, 34, 48
3, 200402, Note_on_c, 1, 38, 0
3, 200733, Note_on_c, 1, 34, 0
3, 200754, Note_on_c, 1, 35, 57
3, 201037, Note_on_c, 1, 34, 29
3, 201101, Note_on_c, 1, 35, 0
3, 201132, Note_on_c, 1, 34, 0
3, 201140, Note_on_c, 1, 36, 55
3, 201458, Note_on_c, 1, 36, 0
3, 201465, Note_on_c, 1, 34, 31
3, 201522, Note_on_c, 1, 34, 0
3, 201535, Note_on_c, 1, 36, 56
3, 201884, Note_on_c, 1, 36, 0
3, 201921, Note_on_c, 1, 34, 57
3, 202234, Note_on_c, 1, 34, 0
3, 202293, Note_on_c, 1, 34, 47
3, 202656, Note_on_c, 1, 34, 0
3, 202697, Note_on_c, 1, 33, 50
3, 203050, Note_on_c, 1, 33, 0
3, 203081, Note_on_c, 1, 39, 56
3, 203389, Note_on_c, 1, 37, 34
3, 203475, Note_on_c, 1, 37, 0
3, 203478, Note_on_c, 1, 39, 0
3, 203484, Note_on_c, 1, 38, 58
3, 203751, Note_on_c, 1, 37, 46
3, 203788, Note_on_c, 1, 38, 0
3, 203840, Note_on_c, 1, 45, 91
3, 203858, Note_on_c, 1, 37, 0
3, 204233, Note_on_c, 1, 43, 56
3, 204271, Note_on_c, 1, 45, 0
3, 204510, Note_on_c, 1, 36, 49
3, 204539, Note_on_c, 1, 36, 0
3, 204548, Note_on_c, 1, 43, 0
3, 204613, Note_on_c, 1, 50, 66
3, 204840, Note_on_c, 1, 39, 35
3, 204866, Note_on_c, 1, 39, 0
3, 205007, Note_on_c, 1, 50, 0
3, 205026, Note_on_c, 1, 48, 41
3, 205055, Note_on_c, 1, 48, 0
3, 205126, Note_on_c, 1, 41, 62
3, 205217, Note_on_c, 1, 41, 0
3, 205256, Note_on_c, 1, 39, 60
3, 205312, Note_on_c, 1, 39, 0
3, 205396, Note_on_c, 1, 40, 60
3, 205746, Note_on_c, 1, 40, 0
3, 205761, Note_on_c, 1, 41, 52
3, 206060, Note_on_c, 1, 40, 41
3, 206071, Note_on_c, 1, 41, 0
3, 206102, Note_on_c, 1, 40, 0
3, 206153, Note_on_c, 1, 50, 87
3, 206543, Note_on_c, 1, 50, 0
3, 206549, Note_on_c, 1, 48, 55
3, 206811, Note_on_c, 1, 39, 37
3, 206891, Note_on_c, 1, 39, 0
3, 206900, Note_on_c, 1, 48, 0
3, 206929, Note_on_c, 1, 41, 69
3, 207209, Note_on_c, 1, 39, 39
3, 207263, Note_on_c, 1, 41, 0
3, 207307, Note_on_c, 1, 50, 91
3, 207328, Note_on_c, 1, 39, 0
3, 207657, Note_on_c, 1, 50, 0
3, 207685, Note_on_c, 1, 48, 62
3, 208096, Note_on_c, 1, 41, 66
3, 208132, Note_on_c, 1, 48, 0
3, 208438, Note_on_c, 1, 41, 0
3, 208460, Note_on_c, 1, 33, 55
3, 208825, Note_on_c, 1, 33, 0
3, 208838, Note_on_c, 1, 34, 54
3, 209030, Note_on_c, 1, 34, 0
3, 209109, Note_on_c, 1, 34, 37
3, 209226, Note_on_c, 1, 36, 58
3, 209235, Note_on_c, 1, 34, 0
3, 209583, Note_on_c, 1, 36, 0
3, 209600, Note_on_c, 1, 38, 52
3, 209895, Note_on_c, 1, 37, 48
3, 209899, Note_on_c, 1, 38, 0
3, 209976, Note_on_c, 1, 37, 0
3, 209979, Note_on_c, 1, 43, 59
3, 210362, Note_on_c, 1, 43, 0
3, 210376, Note_on_c, 1, 41, 57
3, 210625, Note_on_c, 1, 39, 45
3, 210683, Note_on_c, 1, 39, 0
3, 210732, Note_on_c, 1, 41, 0
3, 210748, Note_on_c, 1, 50, 80
3, 211114, Note_on_c, 1, 50, 0
3, 211136, Note_on_c, 1, 48, 64
3, 211423, Note_on_c, 1, 41, 33
3, 211456, Note_on_c, 1, 41, 0
3, 211501, Note_on_c, 1, 48, 0
3, 211547, Note_on_c, 1, 47, 48
3, 211680, Note_on_c, 1, 47, 0
3, 211790, Note_on_c, 1, 44, 73
3, 211872, Note_on_c, 1, 44, 0
3, 211919, Note_on_c, 1, 43, 45
3, 212134, Note_on_c, 1, 43, 0
3, 212173, Note_on_c, 1, 38, 65
3, 212234, Note_on_c, 1, 38, 0
3, 212294, Note_on_c, 1, 34, 60
3, 212657, Note_on_c, 1, 34, 0
3, 212685, Note_on_c, 1, 38, 54
3, 212718, Note_on_c, 1, 38, 0
3, 212941, Note_on_c, 1, 34, 50
3, 213001, Note_on_c, 1, 34, 0
3, 213053, Note_on_c, 1, 35, 60
3, 213422, Note_on_c, 1, 35, 0
3, 213457, Note_on_c, 1, 38, 53
3, 213485, Note_on_c, 1, 38, 0
3, 213712, Note_on_c, 1, 35, 69
3, 213813, Note_on_c, 1, 35, 0
3, 213838, Note_on_c, 1, 36, 77
3, 214188, Note_on_c, 1, 36, 0
3, 214214, Note_on_c, 1, 38, 60
3, 214430, Note_on_c, 1, 38, 0
3, 214470, Note_on_c, 1, 39, 62
3, 214537, Note_on_c, 1, 39, 0
3, 214598, Note_on_c, 1, 40, 66
3, 214873, Note_on_c, 1, 40, 0
3, 214873, Note_on_c, 1, 39, 38
3, 214890, Note_on_c, 1, 37, 21
3, 214945, Note_on_c, 1, 39, 0
3, 214952, Note_on_c, 1, 37, 0
3, 214982, Note_on_c, 1, 41, 55
3, 215119, Note_on_c, 1, 36, 74
3, 215125, Note_on_c, 1, 41, 0
3, 215190, Note_on_c, 1, 36, 0
3, 215247, Note_on_c, 1, 34, 77
3, 215317, Note_on_c, 1, 34, 0
3, 215372, Note_on_c, 1, 33, 79
3, 215744, Note_on_c, 1, 33, 0
3, 215762, Note_on_c, 1, 34, 60
3, 216084, Note_on_c, 1, 34, 0
3, 216123, Note_on_c, 1, 35, 66
3, 216509, Note_on_c, 1, 35, 0
3, 216517, Note_on_c, 1, 36, 62
3, 216845, Note_on_c, 1, 36, 0
3, 216897, Note_on_c, 1, 37, 59
3, 217283, Note_on_c, 1, 37, 0
3, 217286, Note_on_c, 1, 38, 54
3, 217543, Note_on_c, 1, 37, 39
3, 217544, Note_on_c, 1, 38, 0
3, 217582, Note_on_c, 1, 37, 0
3, 217660, Note_on_c, 1, 40, 62
3, 217947, Note_on_c, 1, 36, 40
3, 217950, Note_on_c, 1, 40, 0
3, 218027, Note_on_c, 1, 36, 0
3, 218054, Note_on_c, 1, 41, 63
3, 218412, Note_on_c, 1, 36, 68
3, 218420, Note_on_c, 1, 41, 0
3, 218791, Note_on_c, 1, 36, 0
3, 218820, Note_on_c, 1, 33, 51
3, 219129, Note_on_c, 1, 36, 51
3, 219164, Note_on_c, 1, 33, 0
3, 219208, Note_on_c, 1, 36, 0
3, 219213, Note_on_c, 1, 43, 74
3, 219527, Note_on_c, 1, 43, 0
3, 219593, Note_on_c, 1, 41, 70
3, 219968, Note_on_c, 1, 41, 0
3, 219979, Note_on_c, 1, 36, 66
3, 220344, Note_on_c, 1, 36, 0
3, 220355, Note_on_c, 1, 33, 55
3, 220630, Note_on_c, 1, 36, 53
3, 220668, Note_on_c, 1, 33, 0
3, 220679, Note_on_c, 1, 36, 0
3, 220724, Note_on_c, 1, 41, 66
3, 220999, Note_on_c, 1, 37, 43
3, 221059, Note_on_c, 1, 37, 0
3, 221105, Note_on_c, 1, 41, 0
3, 221120, Note_on_c, 1, 34, 63
3, 221477, Note_on_c, 1, 34, 0
3, 221495, Note_on_c, 1, 38, 63
3, 221545, Note_on_c, 1, 43, 48
3, 221581, Note_on_c, 1, 43, 0
3, 221913, Note_on_c, 1, 43, 71
3, 221919, Note_on_c, 1, 38, 0
3, 222211, Note_on_c, 1, 43, 0
3, 222223, Note_on_c, 1, 38, 44
3, 222264, Note_on_c, 1, 38, 0
3, 222287, Note_on_c, 1, 42, 69
3, 222586, Note_on_c, 1, 38, 38
3, 222601, Note_on_c, 1, 42, 0
3, 222653, Note_on_c, 1, 38, 0
3, 222673, Note_on_c, 1, 41, 65
3, 223029, Note_on_c, 1, 41, 0
3, 223048, Note_on_c, 1, 38, 62
3, 223404, Note_on_c, 1, 38, 0
3, 223418, Note_on_c, 1, 34, 46
3, 223584, Note_on_c, 1, 34, 0
3, 223673, Note_on_c, 1, 33, 60
3, 223725, Note_on_c, 1, 33, 0
3, 223791, Note_on_c, 1, 32, 74
3, 224166, Note_on_c, 1, 32, 0
3, 224218, Note_on_c, 1, 31, 38
3, 224492, Note_on_c, 1, 38, 54
3, 224505, Note_on_c, 1, 31, 0
3, 224541, Note_on_c, 1, 38, 0
3, 224607, Note_on_c, 1, 45, 35
3, 224613, Note_on_c, 1, 43, 36
3, 224644, Note_on_c, 1, 45, 0
3, 224972, Note_on_c, 1, 43, 0
3, 224978, Note_on_c, 1, 38, 56
3, 225197, Note_on_c, 1, 38, 0
3, 225243, Note_on_c, 1, 34, 50
3, 225301, Note_on_c, 1, 34, 0
3, 225361, Note_on_c, 1, 35, 55
3, 225627, Note_on_c, 1, 34, 27
3, 225685, Note_on_c, 1, 34, 0
3, 225688, Note_on_c, 1, 35, 0
3, 225739, Note_on_c, 1, 36, 57
3, 226085, Note_on_c, 1, 36, 0
3, 226124, Note_on_c, 1, 37, 49
3, 226414, Note_on_c, 1, 34, 27
3, 226504, Note_on_c, 1, 37, 0
3, 226505, Note_on_c, 1, 34, 0
3, 226514, Note_on_c, 1, 38, 47
3, 226887, Note_on_c, 1, 40, 58
3, 226912, Note_on_c, 1, 38, 0
3, 227144, Note_on_c, 1, 39, 39
3, 227227, Note_on_c, 1, 40, 0
3, 227250, Note_on_c, 1, 39, 0
3, 227272, Note_on_c, 1, 41, 51
3, 227561, Note_on_c, 1, 39, 35
3, 227574, Note_on_c, 1, 41, 0
3, 227640, Note_on_c, 1, 39, 0
3, 227648, Note_on_c, 1, 43, 60
3, 228030, Note_on_c, 1, 45, 51
3, 228047, Note_on_c, 1, 43, 0
3, 228397, Note_on_c, 1, 45, 0
3, 228411, Note_on_c, 1, 46, 53
3, 228771, Note_on_c, 1, 46, 0
3, 228808, Note_on_c, 1, 47, 60
3, 229186, Note_on_c, 1, 47, 0
3, 229189, Note_on_c, 1, 48, 63
3, 229557, Note_on_c, 1, 48, 0
3, 229560, Note_on_c, 1, 49, 57
3, 229933, Note_on_c, 1, 49, 0
3, 229953, Note_on_c, 1, 47, 66
3, 230325, Note_on_c, 1, 47, 0
3, 230344, Note_on_c, 1, 48, 64
3, 230634, Note_on_c, 1, 47, 47
3, 230649, Note_on_c, 1, 48, 0
3, 230697, Note_on_c, 1, 47, 0
3, 230725, Note_on_c, 1, 50, 67
3, 231071, Note_on_c, 1, 50, 0
3, 231119, Note_on_c, 1, 51, 56
3, 231384, Note_on_c, 1, 47, 36
3, 231425, Note_on_c, 1, 47, 0
3, 231456, Note_on_c, 1, 51, 0
3, 231495, Note_on_c, 1, 52, 64
3, 231829, Note_on_c, 1, 52, 0
3, 231874, Note_on_c, 1, 53, 55
3, 232155, Note_on_c, 1, 53, 0
3, 232159, Note_on_c, 1, 48, 37
3, 232196, Note_on_c, 1, 48, 0
3, 232263, Note_on_c, 1, 58, 77
3, 232594, Note_on_c, 1, 58, 0
3, 232631, Note_on_c, 1, 57, 68
3, 232907, Note_on_c, 1, 48, 38
3, 232946, Note_on_c, 1, 48, 0
3, 232984, Note_on_c, 1, 57, 0
3, 233042, Note_on_c, 1, 55, 34
3, 233374, Note_on_c, 1, 55, 0
3, 233410, Note_on_c, 1, 58, 70
3, 233781, Note_on_c, 1, 58, 0
3, 233795, Note_on_c, 1, 53, 39
3, 234129, Note_on_c, 1, 53, 0
3, 234211, Note_on_c, 1, 50, 28
3, 234560, Note_on_c, 1, 46, 51
3, 234566, Note_on_c, 1, 50, 0
3, 234944, Note_on_c, 1, 46, 0
3, 234951, Note_on_c, 1, 45, 49
3, 235328, Note_on_c, 1, 45, 0
3, 235351, Note_on_c, 1, 48, 59
3, 235730, Note_on_c, 1, 48, 0
3, 235737, Note_on_c, 1, 46, 44
3, 236099, Note_on_c, 1, 46, 0
3, 236126, Note_on_c, 1, 45, 80
3, 236522, Note_on_c, 1, 45, 0
3, 236529, Note_on_c, 1, 46, 38
3, 236893, Note_on_c, 1, 48, 74
3, 236924, Note_on_c, 1, 46, 0
3, 237259, Note_on_c, 1, 48, 0
3, 237283, Note_on_c, 1, 49, 51
3, 237530, Note_on_c, 1, 46, 30
3, 237612, Note_on_c, 1, 49, 0
3, 237635, Note_on_c, 1, 46, 0
3, 237646, Note_on_c, 1, 50, 75
3, 238002, Note_on_c, 1, 50, 0
3, 238021, Note_on_c, 1, 51, 43
3, 238409, Note_on_c, 1, 53, 66
3, 238410, Note_on_c, 1, 51, 0
3, 238727, Note_on_c, 1, 51, 25
3, 238751, Note_on_c, 1, 53, 0
3, 238759, Note_on_c, 1, 51, 0
3, 238779, Note_on_c, 1, 55, 64
3, 239163, Note_on_c, 1, 55, 0
3, 239166, Note_on_c, 1, 45, 66
3, 239558, Note_on_c, 1, 45, 0
3, 239577, Note_on_c, 1, 44, 42
3, 239930, Note_on_c, 1, 44, 0
3, 239945, Note_on_c, 1, 56, 72
3, 240315, Note_on_c, 1, 51, 59
3, 240329, Note_on_c, 1, 56, 0
3, 240587, Note_on_c, 1, 44, 52
3, 240641, Note_on_c, 1, 51, 0
3, 240647, Note_on_c, 1, 44, 0
3, 240710, Note_on_c, 1, 42, 62
3, 241085, Note_on_c, 1, 42, 0
3, 241100, Note_on_c, 1, 43, 62
3, 241361, Note_on_c, 1, 42, 37
3, 241399, Note_on_c, 1, 43, 0
3, 241453, Note_on_c, 1, 55, 80
3, 241455, Note_on_c, 1, 42, 0
3, 241872, Note_on_c, 1, 48, 56
3, 241883, Note_on_c, 1, 55, 0
3, 241899, Note_on_c, 1, 48, 0
3, 242125, Note_on_c, 1, 43, 58
3, 242188, Note_on_c, 1, 43, 0
3, 242246, Note_on_c, 1, 36, 65
3, 242588, Note_on_c, 1, 36, 0
3, 242640, Note_on_c, 1, 41, 36
3, 242677, Note_on_c, 1, 41, 0
3, 242758, Note_on_c, 1, 36, 64
3, 242793, Note_on_c, 1, 36, 0
3, 242885, Note_on_c, 1, 34, 71
3, 242954, Note_on_c, 1, 34, 0
3, 243022, Note_on_c, 1, 33, 71
3, 243382, Note_on_c, 1, 33, 0
3, 243411, Note_on_c, 1, 34, 67
3, 243756, Note_on_c, 1, 34, 0
3, 243772, Note_on_c, 1, 35, 62
3, 244051, Note_on_c, 1, 34, 25
3, 244134, Note_on_c, 1, 35, 0
3, 244140, Note_on_c, 1, 34, 0
3, 244152, Note_on_c, 1, 36, 64
3, 244446, Note_on_c, 1, 34, 43
3, 244454, Note_on_c, 1, 36, 0
3, 244527, Note_on_c, 1, 34, 0
3, 244533, Note_on_c, 1, 38, 62
3, 244912, Note_on_c, 1, 38, 0
3, 244939, Note_on_c, 1, 36, 60
3, 245327, Note_on_c, 1, 35, 58
3, 245329, Note_on_c, 1, 36, 0
3, 245659, Note_on_c, 1, 35, 0
3, 245692, Note_on_c, 1, 34, 53
3, 246063, Note_on_c, 1, 34, 0
3, 246082, Note_on_c, 1, 46, 78
3, 246762, Note_on_c, 1, 41, 28
3, 246805, Note_on_c, 1, 41, 0
3, 246855, Note_on_c, 1, 34, 70
3, 247522, Note_on_c, 1, 46, 0
3, 247543, Note_on_c, 1, 41, 39
3, 247588, Note_on_c, 1, 41, 0
3, 247625, Note_on_c, 1, 34, 0
3, 247634, Note_on_c, 1, 46, 83
3, 248114, Note_on_c, 1, 46, 0
3, 248255, Note_on_c, 1, 45, 64
3, 248337, Note_on_c, 1, 45, 0
3, 248395, Note_on_c, 1, 44, 63
3, 248678, Note_on_c, 1, 42, 33
3, 248725, Note_on_c, 1, 44, 0
3, 248734, Note_on_c, 1, 42, 0
3, 248785, Note_on_c, 1, 43, 59
3, 249176, Note_on_c, 1, 38, 63
3, 249178, Note_on_c, 1, 43, 0
3, 249511, Note_on_c, 1, 38, 0
3, 249559, Note_on_c, 1, 34, 54
3, 249889, Note_on_c, 1, 34, 0
3, 249923, Note_on_c, 1, 35, 66
3, 250210, Note_on_c, 1, 34, 34
3, 250272, Note_on_c, 1, 35, 0
3, 250295, Note_on_c, 1, 34, 0
3, 250314, Note_on_c, 1, 36, 58
3, 250604, Note_on_c, 1, 34, 32
3, 250655, Note_on_c, 1, 36, 0
3, 250700, Note_on_c, 1, 48, 113
3, 250719, Note_on_c, 1, 34, 0
3, 250964, Note_on_c, 1, 34, 28
3, 250994, Note_on_c, 1, 34, 0
3, 251033, Note_on_c, 1, 48, 0
3, 251071, Note_on_c, 1, 46, 58
3, 251370, Note_on_c, 1, 46, 0
3, 251442, Note_on_c, 1, 46, 75
3, 251783, Note_on_c, 1, 46, 0
3, 251823, Note_on_c, 1, 45, 60
3, 252235, Note_on_c, 1, 33, 85
3, 252268, Note_on_c, 1, 45, 0
3, 252594, Note_on_c, 1, 33, 0
3, 252615, Note_on_c, 1, 40, 71
3, 252974, Note_on_c, 1, 40, 0
3, 253008, Note_on_c, 1, 39, 62
3, 253292, Note_on_c, 1, 37, 35
3, 253352, Note_on_c, 1, 39, 0
3, 253371, Note_on_c, 1, 37, 0
3, 253404, Note_on_c, 1, 38, 59
3, 253654, Note_on_c, 1, 37, 42
3, 253706, Note_on_c, 1, 38, 0
3, 253752, Note_on_c, 1, 50, 101
3, 253754, Note_on_c, 1, 37, 0
3, 254267, Note_on_c, 1, 45, 66
3, 254283, Note_on_c, 1, 50, 0
3, 254297, Note_on_c, 1, 45, 0
3, 254387, Note_on_c, 1, 33, 73
3, 254465, Note_on_c, 1, 33, 0
3, 254529, Note_on_c, 1, 32, 78
3, 254886, Note_on_c, 1, 32, 0
3, 254928, Note_on_c, 1, 31, 67
3, 255108, Note_on_c, 1, 31, 0
3, 255202, Note_on_c, 1, 31, 54
3, 255319, Note_on_c, 1, 33, 76
3, 255344, Note_on_c, 1, 31, 0
3, 255685, Note_on_c, 1, 33, 0
3, 255714, Note_on_c, 1, 34, 57
3, 255898, Note_on_c, 1, 34, 0
3, 255952, Note_on_c, 1, 34, 45
3, 256060, Note_on_c, 1, 34, 0
3, 256074, Note_on_c, 1, 35, 64
3, 256343, Note_on_c, 1, 34, 25
3, 256427, Note_on_c, 1, 35, 0
3, 256430, Note_on_c, 1, 34, 0
3, 256457, Note_on_c, 1, 36, 58
3, 256821, Note_on_c, 1, 36, 0
3, 256832, Note_on_c, 1, 37, 57
3, 257126, Note_on_c, 1, 34, 23
3, 257180, Note_on_c, 1, 37, 0
3, 257191, Note_on_c, 1, 34, 0
3, 257219, Note_on_c, 1, 38, 49
3, 257615, Note_on_c, 1, 40, 59
3, 257618, Note_on_c, 1, 38, 0
3, 257840, Note_on_c, 1, 40, 0
3, 257860, Note_on_c, 1, 41, 68
3, 258096, Note_on_c, 1, 41, 0
3, 258128, Note_on_c, 1, 36, 69
3, 258191, Note_on_c, 1, 36, 0
3, 258254, Note_on_c, 1, 34, 71
3, 258329, Note_on_c, 1, 34, 0
3, 258398, Note_on_c, 1, 33, 78
3, 258770, Note_on_c, 1, 33, 0
3, 258777, Note_on_c, 1, 34, 60
3, 259059, Note_on_c, 1, 34, 0
3, 259127, Note_on_c, 1, 35, 58
3, 259249, Note_on_c, 1, 35, 0
3, 259537, Note_on_c, 1, 36, 71
3, 259770, Note_on_c, 1, 38, 55
3, 259784, Note_on_c, 1, 36, 0
3, 259898, Note_on_c, 1, 38, 0
3, 259924, Note_on_c, 1, 40, 60
3, 259996, Note_on_c, 1, 40, 0
3, 260177, Note_on_c, 1, 41, 88
3, 262246, Note_on_c, 1, 41, 0
3, 262246, End_track
4, 0, Start_track
4, 0, MIDI_port, 0
4, 396, Program_c, 2, 32
4, 397, Control_c, 2, 7, 51
4, 3049, Note_on_c, 2, 48, 77
4, 3295, Note_on_c, 2, 36, 71
4, 3318, Note_on_c, 2, 48, 0
4, 3767, Note_on_c, 2, 36, 0
4, 3838, Note_on_c, 2, 36, 78
4, 4453, Note_on_c, 2, 50, 85
4, 4487, Note_on_c, 2, 52, 26
4, 4513, Note_on_c, 2, 52, 0
4, 4516, Note_on_c, 2, 36, 0
4, 4544, Note_on_c, 2, 50, 0
4, 4599, Note_on_c, 2, 48, 65
4, 4831, Note_on_c, 2, 36, 82
4, 4843, Note_on_c, 2, 48, 0
4, 4943, Note_on_c, 2, 36, 0
4, 5343, Note_on_c, 2, 36, 53
4, 5637, Note_on_c, 2, 34, 23
4, 5667, Note_on_c, 2, 36, 0
4, 5686, Note_on_c, 2, 34, 0
4, 5710, Note_on_c, 2, 50, 91
4, 5952, Note_on_c, 2, 50, 0
4, 5970, Note_on_c, 2, 48, 84
4, 6370, Note_on_c, 2, 34, 70
4, 6435, Note_on_c, 2, 34, 0
4, 6495, Note_on_c, 2, 34, 69
4, 6541, Note_on_c, 2, 48, 0
4, 6821, Note_on_c, 2, 34, 0
4, 6864, Note_on_c, 2, 35, 68
4, 7193, Note_on_c, 2, 35, 0
4, 7257, Note_on_c, 2, 35, 56
4, 7510, Note_on_c, 2, 35, 0
4, 7521, Note_on_c, 2, 36, 94
4, 9052, Note_on_c, 2, 39, 52
4, 9075, Note_on_c, 2, 40, 62
4, 9078, Note_on_c, 2, 39, 0
4, 9093, Note_on_c, 2, 36, 0
4, 9106, Note_on_c, 2, 40, 0
4, 9194, Note_on_c, 2, 41, 48
4, 9416, Note_on_c, 2, 41, 0
4, 9439, Note_on_c, 2, 35, 71
4, 9544, Note_on_c, 2, 35, 0
4, 9568, Note_on_c, 2, 36, 58
4, 9932, Note_on_c, 2, 36, 0
4, 9958, Note_on_c, 2, 33, 55
4, 10334, Note_on_c, 2, 33, 0
4, 10336, Note_on_c, 2, 31, 55
4, 10694, Note_on_c, 2, 31, 0
4, 10715, Note_on_c, 2, 29, 47
4, 10992, Note_on_c, 2, 31, 47
4, 11052, Note_on_c, 2, 29, 0
4, 11055, Note_on_c, 2, 31, 0
4, 11094, Note_on_c, 2, 43, 96
4, 11460, Note_on_c, 2, 43, 0
4, 11473, Note_on_c, 2, 41, 62
4, 11733, Note_on_c, 2, 38, 60
4, 11777, Note_on_c, 2, 38, 0
4, 11792, Note_on_c, 2, 41, 0
4, 11848, Note_on_c, 2, 33, 62
4, 12232, Note_on_c, 2, 33, 0
4, 12236, Note_on_c, 2, 34, 56
4, 12637, Note_on_c, 2, 43, 88
4, 12656, Note_on_c, 2, 34, 0
4, 12981, Note_on_c, 2, 43, 0
4, 13016, Note_on_c, 2, 45, 57
4, 13319, Note_on_c, 2, 45, 0
4, 13402, Note_on_c, 2, 42, 57
4, 13743, Note_on_c, 2, 42, 0
4, 13780, Note_on_c, 2, 43, 45
4, 14173, Note_on_c, 2, 43, 0
4, 14173, Note_on_c, 2, 40, 75
4, 14537, Note_on_c, 2, 40, 0
4, 14555, Note_on_c, 2, 41, 57
4, 14798, Note_on_c, 2, 33, 71
4, 14814, Note_on_c, 2, 41, 0
4, 14885, Note_on_c, 2, 33, 0
4, 14920, Note_on_c, 2, 32, 57
4, 15316, Note_on_c, 2, 32, 0
4, 15324, Note_on_c, 2, 31, 60
4, 15586, Note_on_c, 2, 32, 35
4, 15635, Note_on_c, 2, 32, 0
4, 15638, Note_on_c, 2, 31, 0
4, 15695, Note_on_c, 2, 45, 89
4, 16039, Note_on_c, 2, 45, 0
4, 16082, Note_on_c, 2, 38, 36
4, 16128, Note_on_c, 2, 38, 0
4, 16219, Note_on_c, 2, 34, 52
4, 16291, Note_on_c, 2, 34, 0
4, 16350, Note_on_c, 2, 35, 68
4, 16430, Note_on_c, 2, 35, 0
4, 16485, Note_on_c, 2, 38, 78
4, 16819, Note_on_c, 2, 38, 0
4, 16866, Note_on_c, 2, 36, 45
4, 16961, Note_on_c, 2, 36, 0
4, 16989, Note_on_c, 2, 38, 64
4, 17039, Note_on_c, 2, 38, 0
4, 17129, Note_on_c, 2, 39, 70
4, 17244, Note_on_c, 2, 39, 0
4, 17262, Note_on_c, 2, 40, 66
4, 17595, Note_on_c, 2, 40, 0
4, 17639, Note_on_c, 2, 43, 53
4, 17930, Note_on_c, 2, 38, 28
4, 17944, Note_on_c, 2, 43, 0
4, 17962, Note_on_c, 2, 38, 0
4, 18011, Note_on_c, 2, 46, 68
4, 18376, Note_on_c, 2, 46, 0
4, 18413, Note_on_c, 2, 45, 49
4, 18665, Note_on_c, 2, 39, 35
4, 18724, Note_on_c, 2, 39, 0
4, 18764, Note_on_c, 2, 45, 0
4, 18768, Note_on_c, 2, 57, 71
4, 19107, Note_on_c, 2, 57, 0
4, 19169, Note_on_c, 2, 50, 35
4, 19420, Note_on_c, 2, 46, 27
4, 19476, Note_on_c, 2, 46, 0
4, 19526, Note_on_c, 2, 62, 65
4, 19529, Note_on_c, 2, 50, 0
4, 19886, Note_on_c, 2, 62, 0
4, 19929, Note_on_c, 2, 55, 46
4, 20055, Note_on_c, 2, 55, 0
4, 20166, Note_on_c, 2, 42, 73
4, 20280, Note_on_c, 2, 42, 0
4, 20301, Note_on_c, 2, 43, 50
4, 20578, Note_on_c, 2, 39, 33
4, 20624, Note_on_c, 2, 43, 0
4, 20647, Note_on_c, 2, 39, 0
4, 20681, Note_on_c, 2, 48, 64
4, 20797, Note_on_c, 2, 48, 0
4, 20838, Note_on_c, 2, 41, 44
4, 20873, Note_on_c, 2, 41, 0
4, 21077, Note_on_c, 2, 36, 77
4, 21358, Note_on_c, 2, 29, 84
4, 21359, Note_on_c, 2, 36, 0
4, 21829, Note_on_c, 2, 29, 0
4, 21864, Note_on_c, 2, 31, 45
4, 22234, Note_on_c, 2, 31, 0
4, 22246, Note_on_c, 2, 33, 46
4, 22579, Note_on_c, 2, 33, 0
4, 22591, Note_on_c, 2, 34, 55
4, 22771, Note_on_c, 2, 34, 0
4, 22878, Note_on_c, 2, 35, 54
4, 22960, Note_on_c, 2, 35, 0
4, 23011, Note_on_c, 2, 36, 40
4, 23271, Note_on_c, 2, 34, 28
4, 23293, Note_on_c, 2, 36, 0
4, 23325, Note_on_c, 2, 34, 0
4, 23364, Note_on_c, 2, 38, 59
4, 23750, Note_on_c, 2, 38, 0
4, 23752, Note_on_c, 2, 36, 58
4, 23923, Note_on_c, 2, 36, 0
4, 24019, Note_on_c, 2, 36, 68
4, 24085, Note_on_c, 2, 36, 0
4, 24145, Note_on_c, 2, 35, 58
4, 24487, Note_on_c, 2, 35, 0
4, 24524, Note_on_c, 2, 34, 50
4, 24788, Note_on_c, 2, 43, 58
4, 24819, Note_on_c, 2, 43, 0
4, 24876, Note_on_c, 2, 34, 0
4, 24918, Note_on_c, 2, 45, 46
4, 25116, Note_on_c, 2, 45, 0
4, 25160, Note_on_c, 2, 42, 57
4, 25241, Note_on_c, 2, 42, 0
4, 25283, Note_on_c, 2, 43, 50
4, 25535, Note_on_c, 2, 43, 0
4, 25570, Note_on_c, 2, 40, 37
4, 25630, Note_on_c, 2, 40, 0
4, 25676, Note_on_c, 2, 41, 53
4, 25936, Note_on_c, 2, 41, 0
4, 25968, Note_on_c, 2, 39, 31
4, 25994, Note_on_c, 2, 39, 0
4, 26114, Note_on_c, 2, 40, 34
4, 26148, Note_on_c, 2, 40, 0
4, 26361, Note_on_c, 2, 37, 62
4, 26405, Note_on_c, 2, 37, 0
4, 26465, Note_on_c, 2, 38, 64
4, 26693, Note_on_c, 2, 38, 0
4, 26748, Note_on_c, 2, 35, 47
4, 26815, Note_on_c, 2, 35, 0
4, 26848, Note_on_c, 2, 36, 51
4, 27102, Note_on_c, 2, 33, 66
4, 27103, Note_on_c, 2, 36, 0
4, 27169, Note_on_c, 2, 33, 0
4, 27231, Note_on_c, 2, 32, 70
4, 27576, Note_on_c, 2, 32, 0
4, 27604, Note_on_c, 2, 31, 51
4, 27897, Note_on_c, 2, 32, 34
4, 27943, Note_on_c, 2, 32, 0
4, 27983, Note_on_c, 2, 31, 0
4, 27994, Note_on_c, 2, 46, 73
4, 28374, Note_on_c, 2, 43, 52
4, 28381, Note_on_c, 2, 46, 0
4, 28758, Note_on_c, 2, 43, 0
4, 28762, Note_on_c, 2, 35, 62
4, 29149, Note_on_c, 2, 35, 0
4, 29149, Note_on_c, 2, 36, 66
4, 29427, Note_on_c, 2, 35, 44
4, 29476, Note_on_c, 2, 36, 0
4, 29504, Note_on_c, 2, 35, 0
4, 29525, Note_on_c, 2, 50, 90
4, 29899, Note_on_c, 2, 50, 0
4, 29908, Note_on_c, 2, 48, 63
4, 30302, Note_on_c, 2, 35, 80
4, 30333, Note_on_c, 2, 48, 0
4, 30685, Note_on_c, 2, 36, 64
4, 30691, Note_on_c, 2, 35, 0
4, 30956, Note_on_c, 2, 35, 38
4, 30986, Note_on_c, 2, 36, 0
4, 31054, Note_on_c, 2, 35, 0
4, 31062, Note_on_c, 2, 50, 103
4, 31423, Note_on_c, 2, 50, 0
4, 31448, Note_on_c, 2, 48, 68
4, 31834, Note_on_c, 2, 35, 71
4, 32124, Note_on_c, 2, 48, 0
4, 32216, Note_on_c, 2, 36, 73
4, 32221, Note_on_c, 2, 35, 0
4, 32515, Note_on_c, 2, 35, 39
4, 32544, Note_on_c, 2, 36, 0
4, 32593, Note_on_c, 2, 35, 0
4, 32608, Note_on_c, 2, 43, 84
4, 32974, Note_on_c, 2, 43, 0
4, 32993, Note_on_c, 2, 41, 65
4, 33266, Note_on_c, 2, 34, 58
4, 33273, Note_on_c, 2, 41, 0
4, 33329, Note_on_c, 2, 34, 0
4, 33374, Note_on_c, 2, 35, 61
4, 33717, Note_on_c, 2, 35, 0
4, 33743, Note_on_c, 2, 36, 58
4, 34036, Note_on_c, 2, 35, 47
4, 34051, Note_on_c, 2, 36, 0
4, 34077, Note_on_c, 2, 35, 0
4, 34138, Note_on_c, 2, 38, 66
4, 34478, Note_on_c, 2, 38, 0
4, 34519, Note_on_c, 2, 39, 46
4, 34882, Note_on_c, 2, 39, 0
4, 34900, Note_on_c, 2, 40, 61
4, 35261, Note_on_c, 2, 40, 0
4, 35293, Note_on_c, 2, 41, 53
4, 35536, Note_on_c, 2, 36, 53
4, 35609, Note_on_c, 2, 41, 0
4, 35627, Note_on_c, 2, 36, 0
4, 35628, Note_on_c, 2, 30, 68
4, 36037, Note_on_c, 2, 30, 0
4, 36061, Note_on_c, 2, 29, 47
4, 36400, Note_on_c, 2, 29, 0
4, 36438, Note_on_c, 2, 33, 57
4, 36811, Note_on_c, 2, 33, 0
4, 36827, Note_on_c, 2, 34, 45
4, 37087, Note_on_c, 2, 44, 59
4, 37138, Note_on_c, 2, 44, 0
4, 37144, Note_on_c, 2, 34, 0
4, 37198, Note_on_c, 2, 45, 53
4, 37441, Note_on_c, 2, 45, 0
4, 37465, Note_on_c, 2, 42, 48
4, 37550, Note_on_c, 2, 42, 0
4, 37592, Note_on_c, 2, 43, 49
4, 37826, Note_on_c, 2, 43, 0
4, 37877, Note_on_c, 2, 40, 31
4, 37955, Note_on_c, 2, 40, 0
4, 37991, Note_on_c, 2, 41, 45
4, 38223, Note_on_c, 2, 41, 0
4, 38265, Note_on_c, 2, 37, 35
4, 38312, Note_on_c, 2, 37, 0
4, 38374, Note_on_c, 2, 38, 64
4, 38702, Note_on_c, 2, 38, 0
4, 38757, Note_on_c, 2, 36, 60
4, 39103, Note_on_c, 2, 36, 0
4, 39136, Note_on_c, 2, 34, 46
4, 39366, Note_on_c, 2, 32, 40
4, 39403, Note_on_c, 2, 32, 0
4, 39465, Note_on_c, 2, 34, 0
4, 39497, Note_on_c, 2, 39, 45
4, 39784, Note_on_c, 2, 34, 46
4, 39812, Note_on_c, 2, 39, 0
4, 39838, Note_on_c, 2, 34, 0
4, 39899, Note_on_c, 2, 46, 67
4, 40237, Note_on_c, 2, 46, 0
4, 40278, Note_on_c, 2, 41, 55
4, 40652, Note_on_c, 2, 41, 0
4, 40663, Note_on_c, 2, 37, 54
4, 41024, Note_on_c, 2, 37, 0
4, 41026, Note_on_c, 2, 38, 53
4, 41411, Note_on_c, 2, 39, 62
4, 41413, Note_on_c, 2, 38, 0
4, 41818, Note_on_c, 2, 53, 79
4, 41864, Note_on_c, 2, 39, 0
4, 42049, Note_on_c, 2, 39, 33
4, 42076, Note_on_c, 2, 39, 0
4, 42193, Note_on_c, 2, 51, 50
4, 42517, Note_on_c, 2, 53, 0
4, 42535, Note_on_c, 2, 51, 0
4, 42566, Note_on_c, 2, 43, 67
4, 42964, Note_on_c, 2, 44, 58
4, 42966, Note_on_c, 2, 43, 0
4, 43234, Note_on_c, 2, 43, 42
4, 43264, Note_on_c, 2, 43, 0
4, 43276, Note_on_c, 2, 44, 0
4, 43339, Note_on_c, 2, 46, 59
4, 43712, Note_on_c, 2, 46, 0
4, 43728, Note_on_c, 2, 44, 54
4, 44114, Note_on_c, 2, 36, 89
4, 44133, Note_on_c, 2, 35, 44
4, 44141, Note_on_c, 2, 44, 0
4, 44162, Note_on_c, 2, 35, 0
4, 44499, Note_on_c, 2, 50, 90
4, 44590, Note_on_c, 2, 36, 0
4, 44871, Note_on_c, 2, 50, 0
4, 44889, Note_on_c, 2, 49, 71
4, 45218, Note_on_c, 2, 49, 0
4, 45286, Note_on_c, 2, 48, 43
4, 45636, Note_on_c, 2, 40, 70
4, 45641, Note_on_c, 2, 48, 0
4, 45991, Note_on_c, 2, 40, 0
4, 46021, Note_on_c, 2, 41, 56
4, 46333, Note_on_c, 2, 41, 0
4, 46425, Note_on_c, 2, 48, 99
4, 47078, Note_on_c, 2, 35, 41
4, 47156, Note_on_c, 2, 48, 0
4, 47160, Note_on_c, 2, 35, 0
4, 47198, Note_on_c, 2, 36, 62
4, 47856, Note_on_c, 2, 34, 36
4, 47933, Note_on_c, 2, 36, 0
4, 47969, Note_on_c, 2, 48, 105
4, 47970, Note_on_c, 2, 34, 0
4, 48225, Note_on_c, 2, 50, 53
4, 48228, Note_on_c, 2, 48, 0
4, 48330, Note_on_c, 2, 50, 0
4, 48356, Note_on_c, 2, 48, 54
4, 48632, Note_on_c, 2, 34, 44
4, 48658, Note_on_c, 2, 48, 0
4, 48705, Note_on_c, 2, 34, 0
4, 48750, Note_on_c, 2, 36, 77
4, 49382, Note_on_c, 2, 34, 33
4, 49453, Note_on_c, 2, 34, 0
4, 49458, Note_on_c, 2, 36, 0
4, 49500, Note_on_c, 2, 48, 113
4, 50162, Note_on_c, 2, 34, 27
4, 50199, Note_on_c, 2, 34, 0
4, 50276, Note_on_c, 2, 36, 78
4, 50451, Note_on_c, 2, 48, 0
4, 50922, Note_on_c, 2, 34, 33
4, 51010, Note_on_c, 2, 36, 0
4, 51031, Note_on_c, 2, 34, 0
4, 51039, Note_on_c, 2, 48, 115
4, 51934, Note_on_c, 2, 48, 0
4, 51943, Note_on_c, 2, 44, 60
4, 51970, Note_on_c, 2, 44, 0
4, 52053, Note_on_c, 2, 43, 64
4, 52122, Note_on_c, 2, 43, 0
4, 52452, Note_on_c, 2, 43, 76
4, 52513, Note_on_c, 2, 43, 0
4, 52591, Note_on_c, 2, 38, 69
4, 52931, Note_on_c, 2, 38, 0
4, 52957, Note_on_c, 2, 34, 45
4, 53289, Note_on_c, 2, 34, 0
4, 53306, Note_on_c, 2, 35, 58
4, 53589, Note_on_c, 2, 34, 29
4, 53643, Note_on_c, 2, 35, 0
4, 53688, Note_on_c, 2, 34, 0
4, 53705, Note_on_c, 2, 36, 55
4, 53991, Note_on_c, 2, 34, 35
4, 54009, Note_on_c, 2, 36, 0
4, 54040, Note_on_c, 2, 34, 0
4, 54086, Note_on_c, 2, 50, 73
4, 54314, Note_on_c, 2, 34, 34
4, 54378, Note_on_c, 2, 34, 0
4, 54440, Note_on_c, 2, 50, 0
4, 54464, Note_on_c, 2, 48, 58
4, 54815, Note_on_c, 2, 48, 0
4, 54846, Note_on_c, 2, 40, 53
4, 55204, Note_on_c, 2, 40, 0
4, 55238, Note_on_c, 2, 41, 54
4, 55479, Note_on_c, 2, 41, 0
4, 55510, Note_on_c, 2, 35, 74
4, 56018, Note_on_c, 2, 35, 0
4, 56036, Note_on_c, 2, 36, 62
4, 56305, Note_on_c, 2, 35, 46
4, 56349, Note_on_c, 2, 36, 0
4, 56393, Note_on_c, 2, 35, 0
4, 56404, Note_on_c, 2, 50, 103
4, 57066, Note_on_c, 2, 40, 59
4, 57099, Note_on_c, 2, 40, 0
4, 57169, Note_on_c, 2, 50, 0
4, 57195, Note_on_c, 2, 48, 80
4, 57826, Note_on_c, 2, 39, 48
4, 57897, Note_on_c, 2, 39, 0
4, 57915, Note_on_c, 2, 48, 0
4, 57946, Note_on_c, 2, 40, 27
4, 58163, Note_on_c, 2, 40, 0
4, 58187, Note_on_c, 2, 41, 60
4, 58410, Note_on_c, 2, 41, 0
4, 58430, Note_on_c, 2, 36, 50
4, 58508, Note_on_c, 2, 36, 0
4, 58573, Note_on_c, 2, 34, 61
4, 58658, Note_on_c, 2, 34, 0
4, 58710, Note_on_c, 2, 33, 69
4, 59068, Note_on_c, 2, 33, 0
4, 59094, Note_on_c, 2, 34, 59
4, 59431, Note_on_c, 2, 34, 0
4, 59457, Note_on_c, 2, 35, 62
4, 59754, Note_on_c, 2, 34, 33
4, 59833, Note_on_c, 2, 35, 0
4, 59837, Note_on_c, 2, 34, 0
4, 59978, Note_on_c, 2, 36, 46
4, 60138, Note_on_c, 2, 34, 29
4, 60167, Note_on_c, 2, 36, 0
4, 60196, Note_on_c, 2, 34, 0
4, 60229, Note_on_c, 2, 50, 87
4, 60585, Note_on_c, 2, 50, 0
4, 60614, Note_on_c, 2, 48, 52
4, 60988, Note_on_c, 2, 45, 46
4, 61014, Note_on_c, 2, 48, 0
4, 61383, Note_on_c, 2, 45, 0
4, 61390, Note_on_c, 2, 46, 55
4, 61662, Note_on_c, 2, 40, 57
4, 61679, Note_on_c, 2, 46, 0
4, 61740, Note_on_c, 2, 40, 0
4, 61810, Note_on_c, 2, 41, 41
4, 61906, Note_on_c, 2, 41, 0
4, 62058, Note_on_c, 2, 37, 53
4, 62144, Note_on_c, 2, 37, 0
4, 62195, Note_on_c, 2, 38, 40
4, 62520, Note_on_c, 2, 38, 0
4, 62552, Note_on_c, 2, 33, 47
4, 62906, Note_on_c, 2, 33, 0
4, 62941, Note_on_c, 2, 34, 44
4, 63306, Note_on_c, 2, 36, 56
4, 63307, Note_on_c, 2, 34, 0
4, 63683, Note_on_c, 2, 36, 0
4, 63693, Note_on_c, 2, 38, 57
4, 63936, Note_on_c, 2, 37, 54
4, 63992, Note_on_c, 2, 37, 0
4, 64034, Note_on_c, 2, 38, 0
4, 64075, Note_on_c, 2, 44, 70
4, 64445, Note_on_c, 2, 44, 0
4, 64466, Note_on_c, 2, 43, 58
4, 64823, Note_on_c, 2, 43, 0
4, 64845, Note_on_c, 2, 34, 55
4, 65213, Note_on_c, 2, 34, 0
4, 65245, Note_on_c, 2, 38, 57
4, 65629, Note_on_c, 2, 35, 71
4, 65656, Note_on_c, 2, 38, 0
4, 65999, Note_on_c, 2, 35, 0
4, 66019, Note_on_c, 2, 36, 60
4, 66392, Note_on_c, 2, 50, 84
4, 66416, Note_on_c, 2, 36, 0
4, 66749, Note_on_c, 2, 50, 0
4, 66772, Note_on_c, 2, 48, 63
4, 67148, Note_on_c, 2, 46, 49
4, 67159, Note_on_c, 2, 48, 0
4, 67525, Note_on_c, 2, 46, 0
4, 67545, Note_on_c, 2, 45, 35
4, 67789, Note_on_c, 2, 58, 76
4, 67824, Note_on_c, 2, 45, 0
4, 67884, Note_on_c, 2, 58, 0
4, 67933, Note_on_c, 2, 57, 53
4, 68283, Note_on_c, 2, 57, 0
4, 68316, Note_on_c, 2, 50, 50
4, 68669, Note_on_c, 2, 50, 0
4, 68699, Note_on_c, 2, 42, 60
4, 69046, Note_on_c, 2, 42, 0
4, 69087, Note_on_c, 2, 43, 51
4, 69452, Note_on_c, 2, 43, 0
4, 69455, Note_on_c, 2, 31, 70
4, 69804, Note_on_c, 2, 31, 0
4, 69827, Note_on_c, 2, 36, 66
4, 70191, Note_on_c, 2, 36, 0
4, 70211, Note_on_c, 2, 40, 80
4, 70569, Note_on_c, 2, 40, 0
4, 70601, Note_on_c, 2, 41, 62
4, 70988, Note_on_c, 2, 55, 75
4, 71041, Note_on_c, 2, 41, 0
4, 71354, Note_on_c, 2, 55, 0
4, 71405, Note_on_c, 2, 53, 50
4, 71770, Note_on_c, 2, 48, 60
4, 71801, Note_on_c, 2, 53, 0
4, 72123, Note_on_c, 2, 48, 0
4, 72166, Note_on_c, 2, 45, 53
4, 72505, Note_on_c, 2, 45, 0
4, 72543, Note_on_c, 2, 43, 39
4, 72893, Note_on_c, 2, 43, 0
4, 72913, Note_on_c, 2, 41, 48
4, 73110, Note_on_c, 2, 41, 0
4, 73167, Note_on_c, 2, 41, 36
4, 73294, Note_on_c, 2, 60, 80
4, 73321, Note_on_c, 2, 41, 0
4, 73627, Note_on_c, 2, 60, 0
4, 73693, Note_on_c, 2, 58, 48
4, 74034, Note_on_c, 2, 58, 0
4, 74060, Note_on_c, 2, 53, 57
4, 74421, Note_on_c, 2, 53, 0
4, 74448, Note_on_c, 2, 50, 42
4, 74841, Note_on_c, 2, 50, 0
4, 74847, Note_on_c, 2, 45, 80
4, 75186, Note_on_c, 2, 45, 0
4, 75223, Note_on_c, 2, 46, 50
4, 75607, Note_on_c, 2, 41, 54
4, 75619, Note_on_c, 2, 46, 0
4, 75974, Note_on_c, 2, 41, 0
4, 75981, Note_on_c, 2, 38, 62
4, 76174, Note_on_c, 2, 38, 0
4, 76246, Note_on_c, 2, 38, 52
4, 76363, Note_on_c, 2, 42, 86
4, 76366, Note_on_c, 2, 38, 0
4, 76733, Note_on_c, 2, 42, 0
4, 76746, Note_on_c, 2, 43, 61
4, 77023, Note_on_c, 2, 38, 60
4, 77040, Note_on_c, 2, 43, 0
4, 77093, Note_on_c, 2, 38, 0
4, 77225, Note_on_c, 2, 34, 63
4, 77487, Note_on_c, 2, 34, 0
4, 77512, Note_on_c, 2, 38, 67
4, 77886, Note_on_c, 2, 38, 0
4, 77903, Note_on_c, 2, 35, 64
4, 78283, Note_on_c, 2, 35, 0
4, 78302, Note_on_c, 2, 36, 60
4, 78614, Note_on_c, 2, 36, 0
4, 78670, Note_on_c, 2, 38, 66
4, 79026, Note_on_c, 2, 38, 0
4, 79046, Note_on_c, 2, 39, 59
4, 79434, Note_on_c, 2, 39, 0
4, 79446, Note_on_c, 2, 40, 58
4, 79810, Note_on_c, 2, 40, 0
4, 79833, Note_on_c, 2, 41, 62
4, 80106, Note_on_c, 2, 36, 67
4, 80129, Note_on_c, 2, 41, 0
4, 80179, Note_on_c, 2, 36, 0
4, 80230, Note_on_c, 2, 33, 68
4, 80583, Note_on_c, 2, 33, 0
4, 80607, Note_on_c, 2, 34, 59
4, 80968, Note_on_c, 2, 34, 0
4, 80980, Note_on_c, 2, 35, 62
4, 81369, Note_on_c, 2, 35, 0
4, 81373, Note_on_c, 2, 36, 60
4, 81731, Note_on_c, 2, 36, 0
4, 81748, Note_on_c, 2, 37, 57
4, 82107, Note_on_c, 2, 37, 0
4, 82141, Note_on_c, 2, 38, 43
4, 82473, Note_on_c, 2, 38, 0
4, 82517, Note_on_c, 2, 40, 54
4, 82866, Note_on_c, 2, 40, 0
4, 82903, Note_on_c, 2, 41, 50
4, 83179, Note_on_c, 2, 36, 35
4, 83212, Note_on_c, 2, 36, 0
4, 83244, Note_on_c, 2, 41, 0
4, 83295, Note_on_c, 2, 48, 62
4, 83622, Note_on_c, 2, 48, 0
4, 83691, Note_on_c, 2, 53, 66
4, 84038, Note_on_c, 2, 53, 0
4, 84063, Note_on_c, 2, 48, 49
4, 84292, Note_on_c, 2, 48, 0
4, 84323, Note_on_c, 2, 40, 71
4, 84430, Note_on_c, 2, 40, 0
4, 84459, Note_on_c, 2, 41, 51
4, 84702, Note_on_c, 2, 39, 47
4, 84751, Note_on_c, 2, 41, 0
4, 84765, Note_on_c, 2, 39, 0
4, 84818, Note_on_c, 2, 53, 85
4, 85183, Note_on_c, 2, 53, 0
4, 85202, Note_on_c, 2, 48, 53
4, 85480, Note_on_c, 2, 48, 0
4, 85574, Note_on_c, 2, 41, 83
4, 85878, Note_on_c, 2, 39, 37
4, 85912, Note_on_c, 2, 39, 0
4, 85961, Note_on_c, 2, 41, 0
4, 85975, Note_on_c, 2, 53, 87
4, 86321, Note_on_c, 2, 53, 0
4, 86357, Note_on_c, 2, 50, 60
4, 86729, Note_on_c, 2, 41, 82
4, 86751, Note_on_c, 2, 50, 0
4, 87133, Note_on_c, 2, 53, 89
4, 87134, Note_on_c, 2, 41, 0
4, 87480, Note_on_c, 2, 53, 0
4, 87513, Note_on_c, 2, 50, 45
4, 87877, Note_on_c, 2, 41, 73
4, 87923, Note_on_c, 2, 50, 0
4, 88267, Note_on_c, 2, 53, 88
4, 88278, Note_on_c, 2, 41, 0
4, 88662, Note_on_c, 2, 53, 0
4, 88662, Note_on_c, 2, 50, 58
4, 89038, Note_on_c, 2, 50, 0
4, 89041, Note_on_c, 2, 41, 64
4, 89402, Note_on_c, 2, 41, 0
4, 89417, Note_on_c, 2, 53, 92
4, 89775, Note_on_c, 2, 53, 0
4, 89818, Note_on_c, 2, 49, 59
4, 90071, Note_on_c, 2, 41, 43
4, 90105, Note_on_c, 2, 41, 0
4, 90156, Note_on_c, 2, 49, 0
4, 90194, Note_on_c, 2, 46, 51
4, 90565, Note_on_c, 2, 46, 0
4, 90602, Note_on_c, 2, 39, 38
4, 91004, Note_on_c, 2, 51, 79
4, 91005, Note_on_c, 2, 39, 0
4, 91294, Note_on_c, 2, 51, 0
4, 91353, Note_on_c, 2, 46, 48
4, 91628, Note_on_c, 2, 39, 28
4, 91655, Note_on_c, 2, 39, 0
4, 91689, Note_on_c, 2, 46, 0
4, 91723, Note_on_c, 2, 45, 56
4, 92075, Note_on_c, 2, 45, 0
4, 92118, Note_on_c, 2, 44, 36
4, 92469, Note_on_c, 2, 44, 0
4, 92488, Note_on_c, 2, 39, 56
4, 92835, Note_on_c, 2, 39, 0
4, 92884, Note_on_c, 2, 35, 56
4, 93226, Note_on_c, 2, 35, 0
4, 93259, Note_on_c, 2, 37, 79
4, 93607, Note_on_c, 2, 37, 0
4, 93640, Note_on_c, 2, 36, 62
4, 94016, Note_on_c, 2, 36, 0
4, 94022, Note_on_c, 2, 50, 94
4, 94367, Note_on_c, 2, 50, 0
4, 94400, Note_on_c, 2, 48, 53
4, 94752, Note_on_c, 2, 48, 0
4, 94772, Note_on_c, 2, 40, 56
4, 95152, Note_on_c, 2, 40, 0
4, 95175, Note_on_c, 2, 41, 47
4, 95219, Note_on_c, 2, 41, 0
4, 95440, Note_on_c, 2, 41, 66
4, 95501, Note_on_c, 2, 41, 0
4, 95569, Note_on_c, 2, 33, 51
4, 95935, Note_on_c, 2, 33, 0
4, 95943, Note_on_c, 2, 34, 55
4, 96300, Note_on_c, 2, 34, 0
4, 96323, Note_on_c, 2, 35, 51
4, 96709, Note_on_c, 2, 35, 0
4, 96714, Note_on_c, 2, 36, 55
4, 97097, Note_on_c, 2, 36, 0
4, 97100, Note_on_c, 2, 37, 55
4, 97498, Note_on_c, 2, 37, 0
4, 97507, Note_on_c, 2, 38, 37
4, 97762, Note_on_c, 2, 37, 38
4, 97809, Note_on_c, 2, 38, 0
4, 97843, Note_on_c, 2, 37, 0
4, 97882, Note_on_c, 2, 48, 66
4, 98226, Note_on_c, 2, 48, 0
4, 98260, Note_on_c, 2, 46, 43
4, 98615, Note_on_c, 2, 46, 0
4, 98647, Note_on_c, 2, 41, 51
4, 98998, Note_on_c, 2, 41, 0
4, 99091, Note_on_c, 2, 38, 51
4, 99378, Note_on_c, 2, 38, 0
4, 99387, Note_on_c, 2, 33, 60
4, 99754, Note_on_c, 2, 33, 0
4, 99791, Note_on_c, 2, 34, 46
4, 100109, Note_on_c, 2, 34, 0
4, 100170, Note_on_c, 2, 34, 60
4, 100543, Note_on_c, 2, 34, 0
4, 100562, Note_on_c, 2, 38, 59
4, 100871, Note_on_c, 2, 38, 0
4, 100923, Note_on_c, 2, 42, 67
4, 101292, Note_on_c, 2, 42, 0
4, 101304, Note_on_c, 2, 43, 60
4, 101693, Note_on_c, 2, 50, 85
4, 101705, Note_on_c, 2, 43, 0
4, 102060, Note_on_c, 2, 50, 0
4, 102091, Note_on_c, 2, 49, 60
4, 102427, Note_on_c, 2, 49, 0
4, 102469, Note_on_c, 2, 47, 58
4, 102817, Note_on_c, 2, 47, 0
4, 102860, Note_on_c, 2, 48, 57
4, 103229, Note_on_c, 2, 36, 66
4, 103284, Note_on_c, 2, 48, 0
4, 103630, Note_on_c, 2, 46, 63
4, 103679, Note_on_c, 2, 36, 0
4, 103929, Note_on_c, 2, 36, 40
4, 103965, Note_on_c, 2, 36, 0
4, 103968, Note_on_c, 2, 46, 0
4, 104003, Note_on_c, 2, 44, 59
4, 104373, Note_on_c, 2, 44, 0
4, 104388, Note_on_c, 2, 45, 58
4, 104768, Note_on_c, 2, 39, 62
4, 104774, Note_on_c, 2, 45, 0
4, 105148, Note_on_c, 2, 39, 0
4, 105155, Note_on_c, 2, 38, 61
4, 105429, Note_on_c, 2, 37, 39
4, 105482, Note_on_c, 2, 38, 0
4, 105485, Note_on_c, 2, 37, 0
4, 105542, Note_on_c, 2, 42, 81
4, 105891, Note_on_c, 2, 42, 0
4, 105927, Note_on_c, 2, 43, 55
4, 106203, Note_on_c, 2, 43, 0
4, 106210, Note_on_c, 2, 34, 58
4, 106289, Note_on_c, 2, 34, 0
4, 106327, Note_on_c, 2, 35, 61
4, 106682, Note_on_c, 2, 35, 0
4, 106705, Note_on_c, 2, 36, 59
4, 106972, Note_on_c, 2, 34, 36
4, 107011, Note_on_c, 2, 36, 0
4, 107052, Note_on_c, 2, 34, 0
4, 107083, Note_on_c, 2, 43, 76
4, 107445, Note_on_c, 2, 43, 0
4, 107465, Note_on_c, 2, 41, 57
4, 107494, Note_on_c, 2, 41, 0
4, 107599, Note_on_c, 2, 36, 58
4, 107673, Note_on_c, 2, 36, 0
4, 107729, Note_on_c, 2, 34, 39
4, 107757, Note_on_c, 2, 34, 0
4, 107837, Note_on_c, 2, 33, 70
4, 108211, Note_on_c, 2, 33, 0
4, 108236, Note_on_c, 2, 34, 56
4, 108579, Note_on_c, 2, 34, 0
4, 108601, Note_on_c, 2, 35, 55
4, 108972, Note_on_c, 2, 35, 0
4, 108992, Note_on_c, 2, 36, 52
4, 109258, Note_on_c, 2, 50, 87
4, 109269, Note_on_c, 2, 36, 0
4, 109357, Note_on_c, 2, 50, 0
4, 109394, Note_on_c, 2, 48, 57
4, 109716, Note_on_c, 2, 48, 0
4, 109760, Note_on_c, 2, 45, 58
4, 110105, Note_on_c, 2, 45, 0
4, 110150, Note_on_c, 2, 41, 72
4, 110424, Note_on_c, 2, 39, 38
4, 110473, Note_on_c, 2, 41, 0
4, 110499, Note_on_c, 2, 39, 0
4, 110531, Note_on_c, 2, 46, 58
4, 110836, Note_on_c, 2, 42, 25
4, 110880, Note_on_c, 2, 46, 0
4, 110887, Note_on_c, 2, 42, 0
4, 110921, Note_on_c, 2, 50, 39
4, 111179, Note_on_c, 2, 46, 34
4, 111205, Note_on_c, 2, 46, 0
4, 111268, Note_on_c, 2, 50, 0
4, 111310, Note_on_c, 2, 55, 77
4, 111640, Note_on_c, 2, 55, 0
4, 111684, Note_on_c, 2, 54, 62
4, 112044, Note_on_c, 2, 54, 0
4, 112083, Note_on_c, 2, 53, 61
4, 112415, Note_on_c, 2, 53, 0
4, 112462, Note_on_c, 2, 50, 43
4, 112852, Note_on_c, 2, 46, 42
4, 112864, Note_on_c, 2, 50, 0
4, 113219, Note_on_c, 2, 54, 71
4, 113222, Note_on_c, 2, 46, 0
4, 113592, Note_on_c, 2, 54, 0
4, 113628, Note_on_c, 2, 55, 54
4, 113959, Note_on_c, 2, 55, 0
4, 113999, Note_on_c, 2, 50, 46
4, 114376, Note_on_c, 2, 46, 47
4, 114383, Note_on_c, 2, 50, 0
4, 114483, Note_on_c, 2, 46, 0
4, 114651, Note_on_c, 2, 46, 46
4, 114734, Note_on_c, 2, 46, 0
4, 114798, Note_on_c, 2, 47, 71
4, 115122, Note_on_c, 2, 47, 0
4, 115136, Note_on_c, 2, 48, 47
4, 115433, Note_on_c, 2, 46, 27
4, 115460, Note_on_c, 2, 46, 0
4, 115466, Note_on_c, 2, 48, 0
4, 115537, Note_on_c, 2, 52, 75
4, 115890, Note_on_c, 2, 52, 0
4, 115917, Note_on_c, 2, 48, 50
4, 116263, Note_on_c, 2, 48, 0
4, 116294, Note_on_c, 2, 44, 52
4, 116646, Note_on_c, 2, 44, 0
4, 116677, Note_on_c, 2, 45, 63
4, 116949, Note_on_c, 2, 44, 37
4, 116988, Note_on_c, 2, 45, 0
4, 117025, Note_on_c, 2, 44, 0
4, 117056, Note_on_c, 2, 49, 70
4, 117435, Note_on_c, 2, 49, 0
4, 117469, Note_on_c, 2, 50, 55
4, 117830, Note_on_c, 2, 38, 59
4, 117853, Note_on_c, 2, 50, 0
4, 118237, Note_on_c, 2, 43, 67
4, 118264, Note_on_c, 2, 38, 0
4, 118508, Note_on_c, 2, 38, 49
4, 118544, Note_on_c, 2, 38, 0
4, 118567, Note_on_c, 2, 43, 0
4, 118618, Note_on_c, 2, 49, 59
4, 118954, Note_on_c, 2, 49, 0
4, 119005, Note_on_c, 2, 48, 62
4, 119347, Note_on_c, 2, 48, 0
4, 119378, Note_on_c, 2, 42, 60
4, 119770, Note_on_c, 2, 42, 0
4, 119776, Note_on_c, 2, 41, 54
4, 120167, Note_on_c, 2, 41, 0
4, 120170, Note_on_c, 2, 50, 84
4, 120532, Note_on_c, 2, 50, 0
4, 120550, Note_on_c, 2, 48, 54
4, 120922, Note_on_c, 2, 41, 92
4, 120949, Note_on_c, 2, 48, 0
4, 121251, Note_on_c, 2, 39, 35
4, 121303, Note_on_c, 2, 41, 0
4, 121317, Note_on_c, 2, 39, 0
4, 121322, Note_on_c, 2, 50, 73
4, 121664, Note_on_c, 2, 50, 0
4, 121682, Note_on_c, 2, 48, 64
4, 121937, Note_on_c, 2, 41, 63
4, 121970, Note_on_c, 2, 41, 0
4, 122023, Note_on_c, 2, 48, 0
4, 122071, Note_on_c, 2, 47, 63
4, 122372, Note_on_c, 2, 47, 0
4, 122442, Note_on_c, 2, 47, 57
4, 122796, Note_on_c, 2, 47, 0
4, 122845, Note_on_c, 2, 46, 42
4, 123225, Note_on_c, 2, 46, 0
4, 123228, Note_on_c, 2, 41, 51
4, 123607, Note_on_c, 2, 34, 42
4, 123632, Note_on_c, 2, 41, 0
4, 123868, Note_on_c, 2, 41, 55
4, 123918, Note_on_c, 2, 41, 0
4, 123937, Note_on_c, 2, 34, 0
4, 123983, Note_on_c, 2, 55, 89
4, 124338, Note_on_c, 2, 55, 0
4, 124383, Note_on_c, 2, 53, 61
4, 124748, Note_on_c, 2, 53, 0
4, 124751, Note_on_c, 2, 46, 58
4, 125108, Note_on_c, 2, 46, 0
4, 125148, Note_on_c, 2, 45, 64
4, 125499, Note_on_c, 2, 45, 0
4, 125524, Note_on_c, 2, 44, 48
4, 125857, Note_on_c, 2, 42, 17
4, 125872, Note_on_c, 2, 44, 0
4, 125891, Note_on_c, 2, 42, 0
4, 125905, Note_on_c, 2, 43, 51
4, 126231, Note_on_c, 2, 42, 31
4, 126294, Note_on_c, 2, 43, 0
4, 126298, Note_on_c, 2, 58, 87
4, 126350, Note_on_c, 2, 42, 0
4, 126676, Note_on_c, 2, 58, 0
4, 126681, Note_on_c, 2, 55, 60
4, 127060, Note_on_c, 2, 55, 0
4, 127075, Note_on_c, 2, 48, 84
4, 127433, Note_on_c, 2, 48, 0
4, 127454, Note_on_c, 2, 36, 74
4, 127803, Note_on_c, 2, 36, 0
4, 127833, Note_on_c, 2, 39, 53
4, 128208, Note_on_c, 2, 39, 0
4, 128215, Note_on_c, 2, 43, 57
4, 128581, Note_on_c, 2, 43, 0
4, 128589, Note_on_c, 2, 42, 57
4, 128929, Note_on_c, 2, 42, 0
4, 128962, Note_on_c, 2, 41, 54
4, 129011, Note_on_c, 2, 41, 0
4, 129238, Note_on_c, 2, 34, 69
4, 129319, Note_on_c, 2, 34, 0
4, 129363, Note_on_c, 2, 33, 66
4, 129720, Note_on_c, 2, 33, 0
4, 129738, Note_on_c, 2, 34, 60
4, 130099, Note_on_c, 2, 34, 0
4, 130116, Note_on_c, 2, 35, 60
4, 130502, Note_on_c, 2, 35, 0
4, 130513, Note_on_c, 2, 36, 58
4, 130877, Note_on_c, 2, 37, 67
4, 130879, Note_on_c, 2, 36, 0
4, 131263, Note_on_c, 2, 37, 0
4, 131269, Note_on_c, 2, 38, 61
4, 131665, Note_on_c, 2, 40, 64
4, 131693, Note_on_c, 2, 38, 0
4, 132038, Note_on_c, 2, 40, 0
4, 132050, Note_on_c, 2, 41, 58
4, 132339, Note_on_c, 2, 40, 40
4, 132367, Note_on_c, 2, 41, 0
4, 132385, Note_on_c, 2, 40, 0
4, 132427, Note_on_c, 2, 43, 57
4, 132809, Note_on_c, 2, 43, 0
4, 132834, Note_on_c, 2, 45, 50
4, 133178, Note_on_c, 2, 45, 0
4, 133209, Note_on_c, 2, 46, 57
4, 133577, Note_on_c, 2, 46, 0
4, 133590, Note_on_c, 2, 47, 58
4, 133942, Note_on_c, 2, 47, 0
4, 133974, Note_on_c, 2, 48, 62
4, 134315, Note_on_c, 2, 48, 0
4, 134351, Note_on_c, 2, 51, 67
4, 134730, Note_on_c, 2, 51, 0
4, 134738, Note_on_c, 2, 49, 59
4, 135099, Note_on_c, 2, 49, 0
4, 135127, Note_on_c, 2, 50, 50
4, 135494, Note_on_c, 2, 50, 0
4, 135510, Note_on_c, 2, 45, 48
4, 135848, Note_on_c, 2, 45, 0
4, 135875, Note_on_c, 2, 46, 47
4, 136268, Note_on_c, 2, 41, 56
4, 136270, Note_on_c, 2, 46, 0
4, 136635, Note_on_c, 2, 41, 0
4, 136652, Note_on_c, 2, 38, 52
4, 137016, Note_on_c, 2, 38, 0
4, 137030, Note_on_c, 2, 46, 81
4, 137424, Note_on_c, 2, 41, 50
4, 137437, Note_on_c, 2, 46, 0
4, 137801, Note_on_c, 2, 38, 57
4, 137817, Note_on_c, 2, 41, 0
4, 138153, Note_on_c, 2, 38, 0
4, 138196, Note_on_c, 2, 38, 50
4, 138554, Note_on_c, 2, 38, 0
4, 138563, Note_on_c, 2, 46, 77
4, 138942, Note_on_c, 2, 46, 0
4, 138956, Note_on_c, 2, 39, 59
4, 139271, Note_on_c, 2, 46, 36
4, 139299, Note_on_c, 2, 46, 0
4, 139346, Note_on_c, 2, 51, 72
4, 139355, Note_on_c, 2, 39, 0
4, 139727, Note_on_c, 2, 51, 0
4, 139741, Note_on_c, 2, 49, 42
4, 140007, Note_on_c, 2, 44, 31
4, 140036, Note_on_c, 2, 44, 0
4, 140076, Note_on_c, 2, 49, 0
4, 140107, Note_on_c, 2, 46, 52
4, 140479, Note_on_c, 2, 46, 0
4, 140492, Note_on_c, 2, 45, 54
4, 140808, Note_on_c, 2, 45, 0
4, 140870, Note_on_c, 2, 45, 59
4, 141223, Note_on_c, 2, 45, 0
4, 141254, Note_on_c, 2, 44, 51
4, 141629, Note_on_c, 2, 39, 60
4, 141641, Note_on_c, 2, 44, 0
4, 142031, Note_on_c, 2, 44, 57
4, 142054, Note_on_c, 2, 39, 0
4, 142422, Note_on_c, 2, 44, 0
4, 142425, Note_on_c, 2, 39, 61
4, 142787, Note_on_c, 2, 39, 0
4, 142798, Note_on_c, 2, 36, 60
4, 143083, Note_on_c, 2, 43, 43
4, 143123, Note_on_c, 2, 43, 0
4, 143128, Note_on_c, 2, 36, 0
4, 143180, Note_on_c, 2, 48, 92
4, 143536, Note_on_c, 2, 48, 0
4, 143563, Note_on_c, 2, 50, 52
4, 143927, Note_on_c, 2, 50, 0
4, 143949, Note_on_c, 2, 40, 64
4, 144349, Note_on_c, 2, 41, 56
4, 144352, Note_on_c, 2, 40, 0
4, 144625, Note_on_c, 2, 40, 42
4, 144702, Note_on_c, 2, 40, 0
4, 144706, Note_on_c, 2, 41, 0
4, 144733, Note_on_c, 2, 55, 77
4, 145096, Note_on_c, 2, 55, 0
4, 145134, Note_on_c, 2, 53, 56
4, 145471, Note_on_c, 2, 53, 0
4, 145503, Note_on_c, 2, 48, 60
4, 145877, Note_on_c, 2, 48, 0
4, 145899, Note_on_c, 2, 45, 43
4, 146252, Note_on_c, 2, 45, 0
4, 146271, Note_on_c, 2, 41, 56
4, 146642, Note_on_c, 2, 41, 0
4, 146651, Note_on_c, 2, 36, 57
4, 147025, Note_on_c, 2, 35, 76
4, 147045, Note_on_c, 2, 36, 0
4, 147407, Note_on_c, 2, 35, 0
4, 147420, Note_on_c, 2, 34, 39
4, 147693, Note_on_c, 2, 38, 40
4, 147765, Note_on_c, 2, 38, 0
4, 147787, Note_on_c, 2, 50, 103
4, 147799, Note_on_c, 2, 34, 0
4, 148145, Note_on_c, 2, 50, 0
4, 148168, Note_on_c, 2, 48, 48
4, 148527, Note_on_c, 2, 48, 0
4, 148549, Note_on_c, 2, 46, 51
4, 148940, Note_on_c, 2, 45, 36
4, 148954, Note_on_c, 2, 46, 0
4, 149245, Note_on_c, 2, 39, 21
4, 149271, Note_on_c, 2, 39, 0
4, 149322, Note_on_c, 2, 45, 0
4, 149324, Note_on_c, 2, 48, 66
4, 149714, Note_on_c, 2, 46, 59
4, 149993, Note_on_c, 2, 38, 46
4, 150012, Note_on_c, 2, 48, 0
4, 150020, Note_on_c, 2, 38, 0
4, 150043, Note_on_c, 2, 46, 0
4, 150095, Note_on_c, 2, 44, 62
4, 150448, Note_on_c, 2, 44, 0
4, 150474, Note_on_c, 2, 43, 50
4, 150753, Note_on_c, 2, 38, 57
4, 150768, Note_on_c, 2, 43, 0
4, 150845, Note_on_c, 2, 38, 0
4, 150874, Note_on_c, 2, 34, 58
4, 151264, Note_on_c, 2, 34, 0
4, 151272, Note_on_c, 2, 38, 66
4, 151619, Note_on_c, 2, 38, 0
4, 151633, Note_on_c, 2, 35, 62
4, 151923, Note_on_c, 2, 34, 27
4, 151997, Note_on_c, 2, 35, 0
4, 152002, Note_on_c, 2, 34, 0
4, 152013, Note_on_c, 2, 36, 53
4, 152288, Note_on_c, 2, 34, 28
4, 152350, Note_on_c, 2, 36, 0
4, 152376, Note_on_c, 2, 34, 0
4, 152376, Note_on_c, 2, 48, 78
4, 152389, Note_on_c, 2, 47, 54
4, 152416, Note_on_c, 2, 47, 0
4, 153069, Note_on_c, 2, 34, 54
4, 153113, Note_on_c, 2, 48, 0
4, 153141, Note_on_c, 2, 34, 0
4, 153180, Note_on_c, 2, 36, 78
4, 153823, Note_on_c, 2, 34, 35
4, 153934, Note_on_c, 2, 48, 95
4, 153937, Note_on_c, 2, 34, 0
4, 153945, Note_on_c, 2, 50, 68
4, 153969, Note_on_c, 2, 50, 0
4, 153969, Note_on_c, 2, 36, 0
4, 154578, Note_on_c, 2, 34, 35
4, 154676, Note_on_c, 2, 34, 0
4, 154689, Note_on_c, 2, 48, 0
4, 154696, Note_on_c, 2, 36, 82
4, 155360, Note_on_c, 2, 34, 39
4, 155440, Note_on_c, 2, 36, 0
4, 155476, Note_on_c, 2, 48, 105
4, 155477, Note_on_c, 2, 34, 0
4, 156140, Note_on_c, 2, 39, 60
4, 156198, Note_on_c, 2, 39, 0
4, 156199, Note_on_c, 2, 48, 0
4, 156253, Note_on_c, 2, 40, 53
4, 156553, Note_on_c, 2, 39, 19
4, 156595, Note_on_c, 2, 39, 0
4, 156602, Note_on_c, 2, 40, 0
4, 156633, Note_on_c, 2, 41, 53
4, 157000, Note_on_c, 2, 41, 0
4, 157014, Note_on_c, 2, 48, 94
4, 157645, Note_on_c, 2, 34, 37
4, 157730, Note_on_c, 2, 34, 0
4, 157777, Note_on_c, 2, 36, 75
4, 157790, Note_on_c, 2, 48, 0
4, 158428, Note_on_c, 2, 34, 34
4, 158537, Note_on_c, 2, 36, 0
4, 158540, Note_on_c, 2, 34, 0
4, 158546, Note_on_c, 2, 48, 108
4, 159196, Note_on_c, 2, 36, 51
4, 159241, Note_on_c, 2, 36, 0
4, 159315, Note_on_c, 2, 36, 71
4, 159529, Note_on_c, 2, 48, 0
4, 159981, Note_on_c, 2, 34, 35
4, 160083, Note_on_c, 2, 36, 0
4, 160127, Note_on_c, 2, 34, 0
4, 160127, Note_on_c, 2, 48, 110
4, 160754, Note_on_c, 2, 34, 44
4, 160815, Note_on_c, 2, 34, 0
4, 160815, Note_on_c, 2, 48, 0
4, 160843, Note_on_c, 2, 36, 78
4, 161494, Note_on_c, 2, 34, 36
4, 161564, Note_on_c, 2, 36, 0
4, 161591, Note_on_c, 2, 34, 0
4, 161601, Note_on_c, 2, 48, 108
4, 162232, Note_on_c, 2, 36, 71
4, 162294, Note_on_c, 2, 36, 0
4, 162320, Note_on_c, 2, 48, 0
4, 162347, Note_on_c, 2, 47, 64
4, 162733, Note_on_c, 2, 47, 0
4, 162762, Note_on_c, 2, 46, 37
4, 162850, Note_on_c, 2, 46, 0
4, 163047, Note_on_c, 2, 38, 35
4, 163079, Note_on_c, 2, 38, 0
4, 163136, Note_on_c, 2, 43, 60
4, 163528, Note_on_c, 2, 35, 49
4, 163529, Note_on_c, 2, 43, 0
4, 163846, Note_on_c, 2, 35, 0
4, 163899, Note_on_c, 2, 37, 68
4, 164236, Note_on_c, 2, 37, 0
4, 164318, Note_on_c, 2, 36, 64
4, 164597, Note_on_c, 2, 35, 43
4, 164636, Note_on_c, 2, 36, 0
4, 164681, Note_on_c, 2, 35, 0
4, 164701, Note_on_c, 2, 50, 91
4, 165056, Note_on_c, 2, 50, 0
4, 165085, Note_on_c, 2, 48, 62
4, 165457, Note_on_c, 2, 46, 50
4, 165482, Note_on_c, 2, 48, 0
4, 165848, Note_on_c, 2, 46, 0
4, 165849, Note_on_c, 2, 45, 41
4, 166113, Note_on_c, 2, 44, 23
4, 166171, Note_on_c, 2, 45, 0
4, 166203, Note_on_c, 2, 57, 84
4, 166208, Note_on_c, 2, 44, 0
4, 166601, Note_on_c, 2, 50, 62
4, 166611, Note_on_c, 2, 57, 0
4, 166864, Note_on_c, 2, 46, 28
4, 166983, Note_on_c, 2, 62, 73
4, 166985, Note_on_c, 2, 50, 0
4, 166988, Note_on_c, 2, 46, 0
4, 167360, Note_on_c, 2, 62, 0
4, 167375, Note_on_c, 2, 55, 55
4, 167741, Note_on_c, 2, 55, 0
4, 167770, Note_on_c, 2, 43, 55
4, 168137, Note_on_c, 2, 43, 0
4, 168166, Note_on_c, 2, 48, 58
4, 168504, Note_on_c, 2, 48, 0
4, 168523, Note_on_c, 2, 36, 83
4, 168878, Note_on_c, 2, 36, 0
4, 168929, Note_on_c, 2, 41, 34
4, 169263, Note_on_c, 2, 41, 0
4, 169276, Note_on_c, 2, 33, 88
4, 169621, Note_on_c, 2, 33, 0
4, 169659, Note_on_c, 2, 36, 54
4, 170019, Note_on_c, 2, 36, 0
4, 170063, Note_on_c, 2, 38, 79
4, 170426, Note_on_c, 2, 38, 0
4, 170439, Note_on_c, 2, 41, 41
4, 170794, Note_on_c, 2, 41, 0
4, 170808, Note_on_c, 2, 43, 80
4, 171131, Note_on_c, 2, 41, 27
4, 171167, Note_on_c, 2, 43, 0
4, 171180, Note_on_c, 2, 41, 0
4, 171181, Note_on_c, 2, 44, 69
4, 171465, Note_on_c, 2, 41, 36
4, 171515, Note_on_c, 2, 41, 0
4, 171578, Note_on_c, 2, 45, 68
4, 171586, Note_on_c, 2, 44, 0
4, 171946, Note_on_c, 2, 45, 0
4, 171974, Note_on_c, 2, 46, 46
4, 172368, Note_on_c, 2, 34, 57
4, 172406, Note_on_c, 2, 46, 0
4, 172666, Note_on_c, 2, 43, 20
4, 172705, Note_on_c, 2, 43, 0
4, 172758, Note_on_c, 2, 34, 0
4, 172764, Note_on_c, 2, 48, 87
4, 173109, Note_on_c, 2, 48, 0
4, 173146, Note_on_c, 2, 45, 48
4, 173415, Note_on_c, 2, 37, 32
4, 173478, Note_on_c, 2, 37, 0
4, 173499, Note_on_c, 2, 45, 0
4, 173532, Note_on_c, 2, 46, 52
4, 173890, Note_on_c, 2, 46, 0
4, 173897, Note_on_c, 2, 41, 53
4, 174224, Note_on_c, 2, 41, 0
4, 174281, Note_on_c, 2, 41, 55
4, 174619, Note_on_c, 2, 41, 0
4, 174645, Note_on_c, 2, 32, 60
4, 175023, Note_on_c, 2, 32, 0
4, 175042, Note_on_c, 2, 31, 52
4, 175442, Note_on_c, 2, 31, 0
4, 175449, Note_on_c, 2, 38, 51
4, 175805, Note_on_c, 2, 38, 0
4, 175831, Note_on_c, 2, 34, 49
4, 176169, Note_on_c, 2, 34, 0
4, 176197, Note_on_c, 2, 35, 57
4, 176515, Note_on_c, 2, 34, 20
4, 176562, Note_on_c, 2, 34, 0
4, 176567, Note_on_c, 2, 35, 0
4, 176587, Note_on_c, 2, 36, 59
4, 176954, Note_on_c, 2, 37, 70
4, 176985, Note_on_c, 2, 36, 0
4, 177321, Note_on_c, 2, 37, 0
4, 177338, Note_on_c, 2, 38, 40
4, 177720, Note_on_c, 2, 40, 58
4, 177746, Note_on_c, 2, 38, 0
4, 178077, Note_on_c, 2, 40, 0
4, 178089, Note_on_c, 2, 41, 52
4, 178396, Note_on_c, 2, 40, 34
4, 178433, Note_on_c, 2, 41, 0
4, 178442, Note_on_c, 2, 40, 0
4, 178474, Note_on_c, 2, 50, 78
4, 178842, Note_on_c, 2, 50, 0
4, 178874, Note_on_c, 2, 48, 57
4, 179230, Note_on_c, 2, 48, 0
4, 179250, Note_on_c, 2, 45, 59
4, 179614, Note_on_c, 2, 45, 0
4, 179641, Note_on_c, 2, 41, 50
4, 180014, Note_on_c, 2, 41, 0
4, 180020, Note_on_c, 2, 39, 60
4, 180392, Note_on_c, 2, 39, 0
4, 180421, Note_on_c, 2, 38, 38
4, 180797, Note_on_c, 2, 37, 65
4, 180839, Note_on_c, 2, 38, 0
4, 181172, Note_on_c, 2, 37, 0
4, 181201, Note_on_c, 2, 36, 56
4, 181558, Note_on_c, 2, 36, 0
4, 181576, Note_on_c, 2, 43, 68
4, 181945, Note_on_c, 2, 39, 51
4, 181951, Note_on_c, 2, 43, 0
4, 182209, Note_on_c, 2, 43, 44
4, 182271, Note_on_c, 2, 43, 0
4, 182288, Note_on_c, 2, 39, 0
4, 182325, Note_on_c, 2, 50, 80
4, 182616, Note_on_c, 2, 39, 36
4, 182677, Note_on_c, 2, 50, 0
4, 182685, Note_on_c, 2, 39, 0
4, 182728, Note_on_c, 2, 55, 78
4, 183053, Note_on_c, 2, 55, 0
4, 183101, Note_on_c, 2, 54, 70
4, 183450, Note_on_c, 2, 54, 0
4, 183499, Note_on_c, 2, 53, 48
4, 183865, Note_on_c, 2, 53, 0
4, 183876, Note_on_c, 2, 45, 42
4, 184221, Note_on_c, 2, 45, 0
4, 184268, Note_on_c, 2, 46, 48
4, 184642, Note_on_c, 2, 46, 0
4, 184665, Note_on_c, 2, 40, 44
4, 184999, Note_on_c, 2, 40, 0
4, 185030, Note_on_c, 2, 41, 50
4, 185386, Note_on_c, 2, 41, 0
4, 185402, Note_on_c, 2, 37, 55
4, 185791, Note_on_c, 2, 37, 0
4, 185795, Note_on_c, 2, 38, 58
4, 186151, Note_on_c, 2, 38, 0
4, 186179, Note_on_c, 2, 43, 67
4, 186562, Note_on_c, 2, 41, 50
4, 186588, Note_on_c, 2, 43, 0
4, 186838, Note_on_c, 2, 38, 37
4, 186876, Note_on_c, 2, 38, 0
4, 186905, Note_on_c, 2, 41, 0
4, 186938, Note_on_c, 2, 48, 62
4, 187331, Note_on_c, 2, 48, 0
4, 187351, Note_on_c, 2, 46, 53
4, 187700, Note_on_c, 2, 46, 0
4, 187725, Note_on_c, 2, 49, 69
4, 188097, Note_on_c, 2, 49, 0
4, 188113, Note_on_c, 2, 39, 56
4, 188440, Note_on_c, 2, 39, 0
4, 188491, Note_on_c, 2, 38, 62
4, 188844, Note_on_c, 2, 38, 0
4, 188875, Note_on_c, 2, 39, 57
4, 189243, Note_on_c, 2, 51, 84
4, 189250, Note_on_c, 2, 39, 0
4, 189605, Note_on_c, 2, 51, 0
4, 189621, Note_on_c, 2, 45, 76
4, 189995, Note_on_c, 2, 45, 0
4, 190018, Note_on_c, 2, 33, 70
4, 190371, Note_on_c, 2, 33, 0
4, 190415, Note_on_c, 2, 32, 57
4, 190787, Note_on_c, 2, 32, 0
4, 190794, Note_on_c, 2, 39, 51
4, 191167, Note_on_c, 2, 44, 78
4, 191194, Note_on_c, 2, 39, 0
4, 191545, Note_on_c, 2, 39, 71
4, 191577, Note_on_c, 2, 44, 0
4, 191812, Note_on_c, 2, 37, 44
4, 191912, Note_on_c, 2, 39, 0
4, 191919, Note_on_c, 2, 37, 0
4, 191933, Note_on_c, 2, 48, 89
4, 192329, Note_on_c, 2, 36, 92
4, 192342, Note_on_c, 2, 48, 0
4, 192706, Note_on_c, 2, 48, 96
4, 192751, Note_on_c, 2, 36, 0
4, 192977, Note_on_c, 2, 50, 57
4, 192982, Note_on_c, 2, 48, 0
4, 193025, Note_on_c, 2, 50, 0
4, 193092, Note_on_c, 2, 40, 82
4, 193475, Note_on_c, 2, 40, 0
4, 193484, Note_on_c, 2, 41, 62
4, 193773, Note_on_c, 2, 40, 36
4, 193808, Note_on_c, 2, 41, 0
4, 193811, Note_on_c, 2, 40, 0
4, 193865, Note_on_c, 2, 46, 69
4, 194243, Note_on_c, 2, 46, 0
4, 194255, Note_on_c, 2, 45, 57
4, 194618, Note_on_c, 2, 45, 0
4, 194646, Note_on_c, 2, 43, 54
4, 194999, Note_on_c, 2, 43, 0
4, 195020, Note_on_c, 2, 41, 55
4, 195383, Note_on_c, 2, 41, 0
4, 195397, Note_on_c, 2, 36, 71
4, 195794, Note_on_c, 2, 36, 0
4, 195794, Note_on_c, 2, 33, 59
4, 196155, Note_on_c, 2, 33, 0
4, 196174, Note_on_c, 2, 36, 61
4, 196522, Note_on_c, 2, 36, 0
4, 196556, Note_on_c, 2, 34, 42
4, 196913, Note_on_c, 2, 34, 0
4, 196917, Note_on_c, 2, 43, 89
4, 197309, Note_on_c, 2, 43, 0
4, 197330, Note_on_c, 2, 41, 43
4, 197576, Note_on_c, 2, 41, 0
4, 197621, Note_on_c, 2, 39, 25
4, 197639, Note_on_c, 2, 41, 24
4, 197647, Note_on_c, 2, 39, 0
4, 197701, Note_on_c, 2, 41, 0
4, 197712, Note_on_c, 2, 50, 84
4, 198060, Note_on_c, 2, 50, 0
4, 198086, Note_on_c, 2, 46, 38
4, 198473, Note_on_c, 2, 41, 57
4, 198501, Note_on_c, 2, 46, 0
4, 198802, Note_on_c, 2, 41, 0
4, 198850, Note_on_c, 2, 38, 57
4, 199181, Note_on_c, 2, 38, 0
4, 199235, Note_on_c, 2, 32, 44
4, 199559, Note_on_c, 2, 32, 0
4, 199624, Note_on_c, 2, 31, 44
4, 200012, Note_on_c, 2, 38, 56
4, 200019, Note_on_c, 2, 31, 0
4, 200397, Note_on_c, 2, 34, 48
4, 200402, Note_on_c, 2, 38, 0
4, 200733, Note_on_c, 2, 34, 0
4, 200754, Note_on_c, 2, 35, 57
4, 201037, Note_on_c, 2, 34, 29
4, 201101, Note_on_c, 2, 35, 0
4, 201132, Note_on_c, 2, 34, 0
4, 201140, Note_on_c, 2, 36, 55
4, 201458, Note_on_c, 2, 36, 0
4, 201465, Note_on_c, 2, 34, 31
4, 201522, Note_on_c, 2, 34, 0
4, 201535, Note_on_c, 2, 36, 56
4, 201884, Note_on_c, 2, 36, 0
4, 201921, Note_on_c, 2, 34, 57
4, 202234, Note_on_c, 2, 34, 0
4, 202293, Note_on_c, 2, 34, 47
4, 202656, Note_on_c, 2, 34, 0
4, 202697, Note_on_c, 2, 33, 50
4, 203050, Note_on_c, 2, 33, 0
4, 203081, Note_on_c, 2, 39, 56
4, 203389, Note_on_c, 2, 37, 34
4, 203475, Note_on_c, 2, 37, 0
4, 203478, Note_on_c, 2, 39, 0
4, 203484, Note_on_c, 2, 38, 58
4, 203751, Note_on_c, 2, 37, 46
4, 203788, Note_on_c, 2, 38, 0
4, 203840, Note_on_c, 2, 45, 91
4, 203858, Note_on_c, 2, 37, 0
4, 204233, Note_on_c, 2, 43, 56
4, 204271, Note_on_c, 2, 45, 0
4, 204510, Note_on_c, 2, 36, 49
4, 204539, Note_on_c, 2, 36, 0
4, 204548, Note_on_c, 2, 43, 0
4, 204613, Note_on_c, 2, 50, 66
4, 204840, Note_on_c, 2, 39, 35
4, 204866, Note_on_c, 2, 39, 0
4, 205007, Note_on_c, 2, 50, 0
4, 205026, Note_on_c, 2, 48, 41
4, 205055, Note_on_c, 2, 48, 0
4, 205126, Note_on_c, 2, 41, 62
4, 205217, Note_on_c, 2, 41, 0
4, 205256, Note_on_c, 2, 39, 60
4, 205312, Note_on_c, 2, 39, 0
4, 205396, Note_on_c, 2, 40, 60
4, 205746, Note_on_c, 2, 40, 0
4, 205761, Note_on_c, 2, 41, 52
4, 206060, Note_on_c, 2, 40, 41
4, 206071, Note_on_c, 2, 41, 0
4, 206102, Note_on_c, 2, 40, 0
4, 206153, Note_on_c, 2, 50, 87
4, 206543, Note_on_c, 2, 50, 0
4, 206549, Note_on_c, 2, 48, 55
4, 206811, Note_on_c, 2, 39, 37
4, 206891, Note_on_c, 2, 39, 0
4, 206900, Note_on_c, 2, 48, 0
4, 206929, Note_on_c, 2, 41, 69
4, 207209, Note_on_c, 2, 39, 39
4, 207263, Note_on_c, 2, 41, 0
4, 207307, Note_on_c, 2, 50, 91
4, 207328, Note_on_c, 2, 39, 0
4, 207657, Note_on_c, 2, 50, 0
4, 207685, Note_on_c, 2, 48, 62
4, 208096, Note_on_c, 2, 41, 66
4, 208132, Note_on_c, 2, 48, 0
4, 208438, Note_on_c, 2, 41, 0
4, 208460, Note_on_c, 2, 33, 55
4, 208825, Note_on_c, 2, 33, 0
4, 208838, Note_on_c, 2, 34, 54
4, 209030, Note_on_c, 2, 34, 0
4, 209109, Note_on_c, 2, 34, 37
4, 209226, Note_on_c, 2, 36, 58
4, 209235, Note_on_c, 2, 34, 0
4, 209583, Note_on_c, 2, 36, 0
4, 209600, Note_on_c, 2, 38, 52
4, 209895, Note_on_c, 2, 37, 48
4, 209899, Note_on_c, 2, 38, 0
4, 209976, Note_on_c, 2, 37, 0
4, 209979, Note_on_c, 2, 43, 59
4, 210362, Note_on_c, 2, 43, 0
4, 210376, Note_on_c, 2, 41, 57
4, 210625, Note_on_c, 2, 39, 45
4, 210683, Note_on_c, 2, 39, 0
4, 210732, Note_on_c, 2, 41, 0
4, 210748, Note_on_c, 2, 50, 80
4, 211114, Note_on_c, 2, 50, 0
4, 211136, Note_on_c, 2, 48, 64
4, 211423, Note_on_c, 2, 41, 33
4, 211456, Note_on_c, 2, 41, 0
4, 211501, Note_on_c, 2, 48, 0
4, 211547, Note_on_c, 2, 47, 48
4, 211680, Note_on_c, 2, 47, 0
4, 211790, Note_on_c, 2, 44, 73
4, 211872, Note_on_c, 2, 44, 0
4, 211919, Note_on_c, 2, 43, 45
4, 212134, Note_on_c, 2, 43, 0
4, 212173, Note_on_c, 2, 38, 65
4, 212234, Note_on_c, 2, 38, 0
4, 212294, Note_on_c, 2, 34, 60
4, 212657, Note_on_c, 2, 34, 0
4, 212685, Note_on_c, 2, 38, 54
4, 212718, Note_on_c, 2, 38, 0
4, 212941, Note_on_c, 2, 34, 50
4, 213001, Note_on_c, 2, 34, 0
4, 213053, Note_on_c, 2, 35, 60
4, 213422, Note_on_c, 2, 35, 0
4, 213457, Note_on_c, 2, 38, 53
4, 213485, Note_on_c, 2, 38, 0
4, 213712, Note_on_c, 2, 35, 69
4, 213813, Note_on_c, 2, 35, 0
4, 213838, Note_on_c, 2, 36, 77
4, 214188, Note_on_c, 2, 36, 0
4, 214214, Note_on_c, 2, 38, 60
4, 214430, Note_on_c, 2, 38, 0
4, 214470, Note_on_c, 2, 39, 62
4, 214537, Note_on_c, 2, 39, 0
4, 214598, Note_on_c, 2, 40, 66
4, 214873, Note_on_c, 2, 40, 0
4, 214873, Note_on_c, 2, 39, 38
4, 214890, Note_on_c, 2, 37, 21
4, 214945, Note_on_c, 2, 39, 0
4, 214952, Note_on_c, 2, 37, 0
4, 214982, Note_on_c, 2, 41, 55
4, 215119, Note_on_c, 2, 36, 74
4, 215125, Note_on_c, 2, 41, 0
4, 215190, Note_on_c, 2, 36, 0
4, 215247, Note_on_c, 2, 34, 77
4, 215317, Note_on_c, 2, 34, 0
4, 215372, Note_on_c, 2, 33, 79
4, 215744, Note_on_c, 2, 33, 0
4, 215762, Note_on_c, 2, 34, 60
4, 216084, Note_on_c, 2, 34, 0
4, 216123, Note_on_c, 2, 35, 66
4, 216509, Note_on_c, 2, 35, 0
4, 216517, Note_on_c, 2, 36, 62
4, 216845, Note_on_c, 2, 36, 0
4, 216897, Note_on_c, 2, 37, 59
4, 217283, Note_on_c, 2, 37, 0
4, 217286, Note_on_c, 2, 38, 54
4, 217543, Note_on_c, 2, 37, 39
4, 217544, Note_on_c, 2, 38, 0
4, 217582, Note_on_c, 2, 37, 0
4, 217660, Note_on_c, 2, 40, 62
4, 217947, Note_on_c, 2, 36, 40
4, 217950, Note_on_c, 2, 40, 0
4, 218027, Note_on_c, 2, 36, 0
4, 218054, Note_on_c, 2, 41, 63
4, 218412, Note_on_c, 2, 36, 68
4, 218420, Note_on_c, 2, 41, 0
4, 218791, Note_on_c, 2, 36, 0
4, 218820, Note_on_c, 2, 33, 51
4, 219129, Note_on_c, 2, 36, 51
4, 219164, Note_on_c, 2, 33, 0
4, 219208, Note_on_c, 2, 36, 0
4, 219213, Note_on_c, 2, 43, 74
4, 219527, Note_on_c, 2, 43, 0
4, 219593, Note_on_c, 2, 41, 70
4, 219968, Note_on_c, 2, 41, 0
4, 219979, Note_on_c, 2, 36, 66
4, 220344, Note_on_c, 2, 36, 0
4, 220355, Note_on_c, 2, 33, 55
4, 220630, Note_on_c, 2, 36, 53
4, 220668, Note_on_c, 2, 33, 0
4, 220679, Note_on_c, 2, 36, 0
4, 220724, Note_on_c, 2, 41, 66
4, 220999, Note_on_c, 2, 37, 43
4, 221059, Note_on_c, 2, 37, 0
4, 221105, Note_on_c, 2, 41, 0
4, 221120, Note_on_c, 2, 34, 63
4, 221477, Note_on_c, 2, 34, 0
4, 221495, Note_on_c, 2, 38, 63
4, 221545, Note_on_c, 2, 43, 48
4, 221581, Note_on_c, 2, 43, 0
4, 221913, Note_on_c, 2, 43, 71
4, 221919, Note_on_c, 2, 38, 0
4, 222211, Note_on_c, 2, 43, 0
4, 222223, Note_on_c, 2, 38, 44
4, 222264, Note_on_c, 2, 38, 0
4, 222287, Note_on_c, 2, 42, 69
4, 222586, Note_on_c, 2, 38, 38
4, 222601, Note_on_c, 2, 42, 0
4, 222653, Note_on_c, 2, 38, 0
4, 222673, Note_on_c, 2, 41, 65
4, 223029, Note_on_c, 2, 41, 0
4, 223048, Note_on_c, 2, 38, 62
4, 223404, Note_on_c, 2, 38, 0
4, 223418, Note_on_c, 2, 34, 46
4, 223584, Note_on_c, 2, 34, 0
4, 223673, Note_on_c, 2, 33, 60
4, 223725, Note_on_c, 2, 33, 0
4, 223791, Note_on_c, 2, 32, 74
4, 224166, Note_on_c, 2, 32, 0
4, 224218, Note_on_c, 2, 31, 38
4, 224492, Note_on_c, 2, 38, 54
4, 224505, Note_on_c, 2, 31, 0
4, 224541, Note_on_c, 2, 38, 0
4, 224607, Note_on_c, 2, 45, 35
4, 224613, Note_on_c, 2, 43, 36
4, 224644, Note_on_c, 2, 45, 0
4, 224972, Note_on_c, 2, 43, 0
4, 224978, Note_on_c, 2, 38, 56
4, 225197, Note_on_c, 2, 38, 0
4, 225243, Note_on_c, 2, 34, 50
4, 225301, Note_on_c, 2, 34, 0
4, 225361, Note_on_c, 2, 35, 55
4, 225627, Note_on_c, 2, 34, 27
4, 225685, Note_on_c, 2, 34, 0
4, 225688, Note_on_c, 2, 35, 0
4, 225739, Note_on_c, 2, 36, 57
4, 226085, Note_on_c, 2, 36, 0
4, 226124, Note_on_c, 2, 37, 49
4, 226414, Note_on_c, 2, 34, 27
4, 226504, Note_on_c, 2, 37, 0
4, 226505, Note_on_c, 2, 34, 0
4, 226514, Note_on_c, 2, 38, 47
4, 226887, Note_on_c, 2, 40, 58
4, 226912, Note_on_c, 2, 38, 0
4, 227144, Note_on_c, 2, 39, 39
4, 227227, Note_on_c, 2, 40, 0
4, 227250, Note_on_c, 2, 39, 0
4, 227272, Note_on_c, 2, 41, 51
4, 227561, Note_on_c, 2, 39, 35
4, 227574, Note_on_c, 2, 41, 0
4, 227640, Note_on_c, 2, 39, 0
4, 227648, Note_on_c, 2, 43, 60
4, 228030, Note_on_c, 2, 45, 51
4, 228047, Note_on_c, 2, 43, 0
4, 228397, Note_on_c, 2, 45, 0
4, 228411, Note_on_c, 2, 46, 53
4, 228771, Note_on_c, 2, 46, 0
4, 228808, Note_on_c, 2, 47, 60
4, 229186, Note_on_c, 2, 47, 0
4, 229189, Note_on_c, 2, 48, 63
4, 229557, Note_on_c, 2, 48, 0
4, 229560, Note_on_c, 2, 49, 57
4, 229933, Note_on_c, 2, 49, 0
4, 229953, Note_on_c, 2, 47, 66
4, 230325, Note_on_c, 2, 47, 0
4, 230344, Note_on_c, 2, 48, 64
4, 230634, Note_on_c, 2, 47, 47
4, 230649, Note_on_c, 2, 48, 0
4, 230697, Note_on_c, 2, 47, 0
4, 230725, Note_on_c, 2, 50, 67
4, 231071, Note_on_c, 2, 50, 0
4, 231119, Note_on_c, 2, 51, 56
4, 231384, Note_on_c, 2, 47, 36
4, 231425, Note_on_c, 2, 47, 0
4, 231456, Note_on_c, 2, 51, 0
4, 231495, Note_on_c, 2, 52, 64
4, 231829, Note_on_c, 2, 52, 0
4, 231874, Note_on_c, 2, 53, 55
4, 232155, Note_on_c, 2, 53, 0
4, 232159, Note_on_c, 2, 48, 37
4, 232196, Note_on_c, 2, 48, 0
4, 232263, Note_on_c, 2, 58, 77
4, 232594, Note_on_c, 2, 58, 0
4, 232631, Note_on_c, 2, 57, 68
4, 232907, Note_on_c, 2, 48, 38
4, 232946, Note_on_c, 2, 48, 0
4, 232984, Note_on_c, 2, 57, 0
4, 233042, Note_on_c, 2, 55, 34
4, 233374, Note_on_c, 2, 55, 0
4, 233410, Note_on_c, 2, 58, 70
4, 233781, Note_on_c, 2, 58, 0
4, 233795, Note_on_c, 2, 53, 39
4, 234129, Note_on_c, 2, 53, 0
4, 234211, Note_on_c, 2, 50, 28
4, 234560, Note_on_c, 2, 46, 51
4, 234566, Note_on_c, 2, 50, 0
4, 234944, Note_on_c, 2, 46, 0
4, 234951, Note_on_c, 2, 45, 49
4, 235328, Note_on_c, 2, 45, 0
4, 235351, Note_on_c, 2, 48, 59
4, 235730, Note_on_c, 2, 48, 0
4, 235737, Note_on_c, 2, 46, 44
4, 236099, Note_on_c, 2, 46, 0
4, 236126, Note_on_c, 2, 45, 80
4, 236522, Note_on_c, 2, 45, 0
4, 236529, Note_on_c, 2, 46, 38
4, 236893, Note_on_c, 2, 48, 74
4, 236924, Note_on_c, 2, 46, 0
4, 237259, Note_on_c, 2, 48, 0
4, 237283, Note_on_c, 2, 49, 51
4, 237530, Note_on_c, 2, 46, 30
4, 237612, Note_on_c, 2, 49, 0
4, 237635, Note_on_c, 2, 46, 0
4, 237646, Note_on_c, 2, 50, 75
4, 238002, Note_on_c, 2, 50, 0
4, 238021, Note_on_c, 2, 51, 43
4, 238409, Note_on_c, 2, 53, 66
4, 238410, Note_on_c, 2, 51, 0
4, 238727, Note_on_c, 2, 51, 25
4, 238751, Note_on_c, 2, 53, 0
4, 238759, Note_on_c, 2, 51, 0
4, 238779, Note_on_c, 2, 55, 64
4, 239163, Note_on_c, 2, 55, 0
4, 239166, Note_on_c, 2, 45, 66
4, 239558, Note_on_c, 2, 45, 0
4, 239577, Note_on_c, 2, 44, 42
4, 239930, Note_on_c, 2, 44, 0
4, 239945, Note_on_c, 2, 56, 72
4, 240315, Note_on_c, 2, 51, 59
4, 240329, Note_on_c, 2, 56, 0
4, 240587, Note_on_c, 2, 44, 52
4, 240641, Note_on_c, 2, 51, 0
4, 240647, Note_on_c, 2, 44, 0
4, 240710, Note_on_c, 2, 42, 62
4, 241085, Note_on_c, 2, 42, 0
4, 241100, Note_on_c, 2, 43, 62
4, 241361, Note_on_c, 2, 42, 37
4, 241399, Note_on_c, 2, 43, 0
4, 241453, Note_on_c, 2, 55, 80
4, 241455, Note_on_c, 2, 42, 0
4, 241872, Note_on_c, 2, 48, 56
4, 241883, Note_on_c, 2, 55, 0
4, 241899, Note_on_c, 2, 48, 0
4, 242125, Note_on_c, 2, 43, 58
4, 242188, Note_on_c, 2, 43, 0
4, 242246, Note_on_c, 2, 36, 65
4, 242588, Note_on_c, 2, 36, 0
4, 242640, Note_on_c, 2, 41, 36
4, 242677, Note_on_c, 2, 41, 0
4, 242758, Note_on_c, 2, 36, 64
4, 242793, Note_on_c, 2, 36, 0
4, 242885, Note_on_c, 2, 34, 71
4, 242954, Note_on_c, 2, 34, 0
4, 243022, Note_on_c, 2, 33, 71
4, 243382, Note_on_c, 2, 33, 0
4, 243411, Note_on_c, 2, 34, 67
4, 243756, Note_on_c, 2, 34, 0
4, 243772, Note_on_c, 2, 35, 62
4, 244051, Note_on_c, 2, 34, 25
4, 244134, Note_on_c, 2, 35, 0
4, 244140, Note_on_c, 2, 34, 0
4, 244152, Note_on_c, 2, 36, 64
4, 244446, Note_on_c, 2, 34, 43
4, 244454, Note_on_c, 2, 36, 0
4, 244527, Note_on_c, 2, 34, 0
4, 244533, Note_on_c, 2, 38, 62
4, 244912, Note_on_c, 2, 38, 0
4, 244939, Note_on_c, 2, 36, 60
4, 245327, Note_on_c, 2, 35, 58
4, 245329, Note_on_c, 2, 36, 0
4, 245659, Note_on_c, 2, 35, 0
4, 245692, Note_on_c, 2, 34, 53
4, 246063, Note_on_c, 2, 34, 0
4, 246082, Note_on_c, 2, 46, 78
4, 246762, Note_on_c, 2, 41, 28
4, 246805, Note_on_c, 2, 41, 0
4, 246855, Note_on_c, 2, 34, 70
4, 247522, Note_on_c, 2, 46, 0
4, 247543, Note_on_c, 2, 41, 39
4, 247588, Note_on_c, 2, 41, 0
4, 247625, Note_on_c, 2, 34, 0
4, 247634, Note_on_c, 2, 46, 83
4, 248114, Note_on_c, 2, 46, 0
4, 248255, Note_on_c, 2, 45, 64
4, 248337, Note_on_c, 2, 45, 0
4, 248395, Note_on_c, 2, 44, 63
4, 248678, Note_on_c, 2, 42, 33
4, 248725, Note_on_c, 2, 44, 0
4, 248734, Note_on_c, 2, 42, 0
4, 248785, Note_on_c, 2, 43, 59
4, 249176, Note_on_c, 2, 38, 63
4, 249178, Note_on_c, 2, 43, 0
4, 249511, Note_on_c, 2, 38, 0
4, 249559, Note_on_c, 2, 34, 54
4, 249889, Note_on_c, 2, 34, 0
4, 249923, Note_on_c, 2, 35, 66
4, 250210, Note_on_c, 2, 34, 34
4, 250272, Note_on_c, 2, 35, 0
4, 250295, Note_on_c, 2, 34, 0
4, 250314, Note_on_c, 2, 36, 58
4, 250604, Note_on_c, 2, 34, 32
4, 250655, Note_on_c, 2, 36, 0
4, 250700, Note_on_c, 2, 48, 113
4, 250719, Note_on_c, 2, 34, 0
4, 250964, Note_on_c, 2, 34, 28
4, 250994, Note_on_c, 2, 34, 0
4, 251033, Note_on_c, 2, 48, 0
4, 251071, Note_on_c, 2, 46, 58
4, 251370, Note_on_c, 2, 46, 0
4, 251442, Note_on_c, 2, 46, 75
4, 251783, Note_on_c, 2, 46, 0
4, 251823, Note_on_c, 2, 45, 60
4, 252235, Note_on_c, 2, 33, 85
4, 252268, Note_on_c, 2, 45, 0
4, 252594, Note_on_c, 2, 33, 0
4, 252615, Note_on_c, 2, 40, 71
4, 252974, Note_on_c, 2, 40, 0
4, 253008, Note_on_c, 2, 39, 62
4, 253292, Note_on_c, 2, 37, 35
4, 253352, Note_on_c, 2, 39, 0
4, 253371, Note_on_c, 2, 37, 0
4, 253404, Note_on_c, 2, 38, 59
4, 253654, Note_on_c, 2, 37, 42
4, 253706, Note_on_c, 2, 38, 0
4, 253752, Note_on_c, 2, 50, 101
4, 253754, Note_on_c, 2, 37, 0
4, 254267, Note_on_c, 2, 45, 66
4, 254283, Note_on_c, 2, 50, 0
4, 254297, Note_on_c, 2, 45, 0
4, 254387, Note_on_c, 2, 33, 73
4, 254465, Note_on_c, 2, 33, 0
4, 254529, Note_on_c, 2, 32, 78
4, 254886, Note_on_c, 2, 32, 0
4, 254928, Note_on_c, 2, 31, 67
4, 255108, Note_on_c, 2, 31, 0
4, 255202, Note_on_c, 2, 31, 54
4, 255319, Note_on_c, 2, 33, 76
4, 255344, Note_on_c, 2, 31, 0
4, 255685, Note_on_c, 2, 33, 0
4, 255714, Note_on_c, 2, 34, 57
4, 255898, Note_on_c, 2, 34, 0
4, 255952, Note_on_c, 2, 34, 45
4, 256060, Note_on_c, 2, 34, 0
4, 256074, Note_on_c, 2, 35, 64
4, 256343, Note_on_c, 2, 34, 25
4, 256427, Note_on_c, 2, 35, 0
4, 256430, Note_on_c, 2, 34, 0
4, 256457, Note_on_c, 2, 36, 58
4, 256821, Note_on_c, 2, 36, 0
4, 256832, Note_on_c, 2, 37, 57
4, 257126, Note_on_c, 2, 34, 23
4, 257180, Note_on_c, 2, 37, 0
4, 257191, Note_on_c, 2, 34, 0
4, 257219, Note_on_c, 2, 38, 49
4, 257615, Note_on_c, 2, 40, 59
4, 257618, Note_on_c, 2, 38, 0
4, 257840, Note_on_c, 2, 40, 0
4, 257860, Note_on_c, 2, 41, 68
4, 258096, Note_on_c, 2, 41, 0
4, 258128, Note_on_c, 2, 36, 69
4, 258191, Note_on_c, 2, 36, 0
4, 258254, Note_on_c, 2, 34, 71
4, 258329, Note_on_c, 2, 34, 0
4, 258398, Note_on_c, 2, 33, 78
4, 258770, Note_on_c, 2, 33, 0
4, 258777, Note_on_c, 2, 34, 60
4, 259059, Note_on_c, 2, 34, 0
4, 259127, Note_on_c, 2, 35, 58
4, 259249, Note_on_c, 2, 35, 0
4, 259537, Note_on_c, 2, 36, 71
4, 259770, Note_on_c, 2, 38, 55
4, 259784, Note_on_c, 2, 36, 0
4, 259898, Note_on_c, 2, 38, 0
4, 259924, Note_on_c, 2, 40, 60
4, 259996, Note_on_c, 2, 40, 0
4, 260177, Note_on_c, 2, 41, 88
4, 262246, Note_on_c, 2, 41, 0
4, 262246, End_track
5, 0, Start_track
5, 0, MIDI_port, 0
5, 431, Program_c, 9, 40
5, 3072, Note_on_c, 9, 35, 40
5, 3072, Note_on_c, 9, 38, 58
5, 3080, Note_on_c, 9, 35, 0
5, 3092, Note_on_c, 9, 38, 0
5, 3284, Note_on_c, 9, 40, 45
5, 3332, Note_on_c, 9, 40, 0
5, 3420, Note_on_c, 9, 35, 47
5, 3420, Note_on_c, 9, 38, 58
5, 3420, Note_on_c, 9, 44, 82
5, 3424, Note_on_c, 9, 44, 0
5, 3428, Note_on_c, 9, 35, 0
5, 3432, Note_on_c, 9, 38, 0
5, 3676, Note_on_c, 9, 40, 45
5, 3724, Note_on_c, 9, 40, 0
5, 3804, Note_on_c, 9, 35, 47
5, 3804, Note_on_c, 9, 38, 58
5, 3820, Note_on_c, 9, 38, 0
5, 3820, Note_on_c, 9, 35, 0
5, 4052, Note_on_c, 9, 40, 45
5, 4096, Note_on_c, 9, 40, 0
5, 4184, Note_on_c, 9, 35, 47
5, 4188, Note_on_c, 9, 38, 77
5, 4188, Note_on_c, 9, 44, 82
5, 4192, Note_on_c, 9, 35, 0
5, 4196, Note_on_c, 9, 44, 0
5, 4196, Note_on_c, 9, 38, 0
5, 4436, Note_on_c, 9, 40, 45
5, 4484, Note_on_c, 9, 40, 0
5, 4568, Note_on_c, 9, 35, 47
5, 4568, Note_on_c, 9, 38, 58
5, 4572, Note_on_c, 9, 35, 0
5, 4576, Note_on_c, 9, 38, 0
5, 4820, Note_on_c, 9, 40, 45
5, 4868, Note_on_c, 9, 40, 0
5, 4952, Note_on_c, 9, 35, 47
5, 4952, Note_on_c, 9, 35, 0
5, 4952, Note_on_c, 9, 38, 58
5, 4956, Note_on_c, 9, 38, 0
5, 4956, Note_on_c, 9, 44, 82
5, 4956, Note_on_c, 9, 44, 0
5, 5204, Note_on_c, 9, 40, 45
5, 5252, Note_on_c, 9, 40, 0
5, 5332, Note_on_c, 9, 38, 58
5, 5336, Note_on_c, 9, 38, 0
5, 5336, Note_on_c, 9, 35, 47
5, 5340, Note_on_c, 9, 35, 0
5, 5588, Note_on_c, 9, 40, 60
5, 5608, Note_on_c, 9, 40, 0
5, 5720, Note_on_c, 9, 38, 77
5, 5720, Note_on_c, 9, 44, 82
5, 5724, Note_on_c, 9, 35, 47
5, 5732, Note_on_c, 9, 35, 0
5, 5736, Note_on_c, 9, 44, 0
5, 5736, Note_on_c, 9, 38, 0
5, 5972, Note_on_c, 9, 40, 60
5, 5980, Note_on_c, 9, 40, 0
5, 5980, Note_on_c, 9, 39, 52
5, 6024, Note_on_c, 9, 39, 0
5, 6100, Note_on_c, 9, 35, 47
5, 6104, Note_on_c, 9, 38, 58
5, 6112, Note_on_c, 9, 38, 0
5, 6112, Note_on_c, 9, 35, 0
5, 6356, Note_on_c, 9, 40, 60
5, 6372, Note_on_c, 9, 40, 0
5, 6484, Note_on_c, 9, 44, 82
5, 6488, Note_on_c, 9, 38, 58
5, 6492, Note_on_c, 9, 35, 47
5, 6496, Note_on_c, 9, 35, 0
5, 6496, Note_on_c, 9, 38, 0
5, 6496, Note_on_c, 9, 44, 0
5, 6740, Note_on_c, 9, 40, 60
5, 6756, Note_on_c, 9, 40, 0
5, 6868, Note_on_c, 9, 38, 58
5, 6872, Note_on_c, 9, 35, 47
5, 6876, Note_on_c, 9, 35, 0
5, 6880, Note_on_c, 9, 38, 0
5, 7124, Note_on_c, 9, 40, 60
5, 7144, Note_on_c, 9, 40, 0
5, 7252, Note_on_c, 9, 35, 47
5, 7256, Note_on_c, 9, 44, 82
5, 7260, Note_on_c, 9, 35, 0
5, 7260, Note_on_c, 9, 38, 77
5, 7264, Note_on_c, 9, 38, 0
5, 7264, Note_on_c, 9, 44, 0
5, 7501, Note_on_c, 9, 39, 48
5, 7512, Note_on_c, 9, 40, 60
5, 7520, Note_on_c, 9, 40, 0
5, 7544, Note_on_c, 9, 38, 81
5, 7588, Note_on_c, 9, 38, 0
5, 7591, Note_on_c, 9, 39, 0
5, 7640, Note_on_c, 9, 35, 47
5, 7640, Note_on_c, 9, 38, 81
5, 7644, Note_on_c, 9, 38, 58
5, 7652, Note_on_c, 9, 38, 0
5, 7652, Note_on_c, 9, 35, 0
5, 7655, Note_on_c, 9, 36, 29
5, 7680, Note_on_c, 9, 38, 0
5, 7804, Note_on_c, 9, 36, 0
5, 7896, Note_on_c, 9, 40, 60
5, 7908, Note_on_c, 9, 40, 0
5, 8020, Note_on_c, 9, 35, 47
5, 8024, Note_on_c, 9, 38, 58
5, 8024, Note_on_c, 9, 44, 82
5, 8028, Note_on_c, 9, 44, 0
5, 8032, Note_on_c, 9, 38, 0
5, 8032, Note_on_c, 9, 35, 0
5, 8276, Note_on_c, 9, 40, 60
5, 8292, Note_on_c, 9, 40, 0
5, 8404, Note_on_c, 9, 35, 47
5, 8408, Note_on_c, 9, 38, 58
5, 8412, Note_on_c, 9, 38, 0
5, 8412, Note_on_c, 9, 35, 0
5, 8660, Note_on_c, 9, 40, 60
5, 8664, Note_on_c, 9, 40, 0
5, 8788, Note_on_c, 9, 46, 62
5, 8792, Note_on_c, 9, 35, 47
5, 8796, Note_on_c, 9, 38, 77
5, 8800, Note_on_c, 9, 38, 0
5, 8800, Note_on_c, 9, 35, 0
5, 8800, Note_on_c, 9, 46, 0
5, 9044, Note_on_c, 9, 36, 96
5, 9048, Note_on_c, 9, 40, 60
5, 9064, Note_on_c, 9, 40, 0
5, 9176, Note_on_c, 9, 35, 47
5, 9176, Note_on_c, 9, 38, 58
5, 9180, Note_on_c, 9, 38, 0
5, 9184, Note_on_c, 9, 35, 0
5, 9216, Note_on_c, 9, 35, 40
5, 9216, Note_on_c, 9, 38, 58
5, 9224, Note_on_c, 9, 35, 0
5, 9236, Note_on_c, 9, 38, 0
5, 9374, Note_on_c, 9, 36, 0
5, 9428, Note_on_c, 9, 40, 45
5, 9476, Note_on_c, 9, 40, 0
5, 9564, Note_on_c, 9, 35, 47
5, 9564, Note_on_c, 9, 38, 58
5, 9564, Note_on_c, 9, 44, 82
5, 9568, Note_on_c, 9, 44, 0
5, 9572, Note_on_c, 9, 35, 0
5, 9576, Note_on_c, 9, 38, 0
5, 9820, Note_on_c, 9, 40, 45
5, 9868, Note_on_c, 9, 40, 0
5, 9948, Note_on_c, 9, 35, 47
5, 9948, Note_on_c, 9, 38, 58
5, 9964, Note_on_c, 9, 38, 0
5, 9964, Note_on_c, 9, 35, 0
5, 10196, Note_on_c, 9, 40, 45
5, 10240, Note_on_c, 9, 40, 0
5, 10328, Note_on_c, 9, 35, 47
5, 10332, Note_on_c, 9, 38, 77
5, 10332, Note_on_c, 9, 44, 82
5, 10336, Note_on_c, 9, 35, 0
5, 10340, Note_on_c, 9, 44, 0
5, 10340, Note_on_c, 9, 38, 0
5, 10580, Note_on_c, 9, 40, 45
5, 10628, Note_on_c, 9, 40, 0
5, 10712, Note_on_c, 9, 35, 47
5, 10712, Note_on_c, 9, 38, 58
5, 10716, Note_on_c, 9, 35, 0
5, 10720, Note_on_c, 9, 38, 0
5, 10964, Note_on_c, 9, 40, 45
5, 11012, Note_on_c, 9, 40, 0
5, 11096, Note_on_c, 9, 35, 47
5, 11096, Note_on_c, 9, 35, 0
5, 11096, Note_on_c, 9, 38, 58
5, 11100, Note_on_c, 9, 38, 0
5, 11100, Note_on_c, 9, 44, 82
5, 11100, Note_on_c, 9, 44, 0
5, 11348, Note_on_c, 9, 40, 45
5, 11396, Note_on_c, 9, 40, 0
5, 11476, Note_on_c, 9, 38, 58
5, 11480, Note_on_c, 9, 38, 0
5, 11480, Note_on_c, 9, 35, 47
5, 11484, Note_on_c, 9, 35, 0
5, 11732, Note_on_c, 9, 40, 60
5, 11752, Note_on_c, 9, 40, 0
5, 11864, Note_on_c, 9, 38, 77
5, 11864, Note_on_c, 9, 44, 82
5, 11868, Note_on_c, 9, 35, 47
5, 11876, Note_on_c, 9, 35, 0
5, 11880, Note_on_c, 9, 44, 0
5, 11880, Note_on_c, 9, 38, 0
5, 12116, Note_on_c, 9, 40, 60
5, 12124, Note_on_c, 9, 40, 0
5, 12124, Note_on_c, 9, 39, 52
5, 12168, Note_on_c, 9, 39, 0
5, 12244, Note_on_c, 9, 35, 47
5, 12248, Note_on_c, 9, 38, 58
5, 12256, Note_on_c, 9, 38, 0
5, 12256, Note_on_c, 9, 35, 0
5, 12500, Note_on_c, 9, 40, 60
5, 12516, Note_on_c, 9, 40, 0
5, 12628, Note_on_c, 9, 44, 82
5, 12632, Note_on_c, 9, 38, 58
5, 12636, Note_on_c, 9, 35, 47
5, 12640, Note_on_c, 9, 35, 0
5, 12640, Note_on_c, 9, 38, 0
5, 12640, Note_on_c, 9, 44, 0
5, 12884, Note_on_c, 9, 40, 60
5, 12900, Note_on_c, 9, 40, 0
5, 13012, Note_on_c, 9, 38, 58
5, 13016, Note_on_c, 9, 35, 47
5, 13020, Note_on_c, 9, 35, 0
5, 13024, Note_on_c, 9, 38, 0
5, 13268, Note_on_c, 9, 40, 60
5, 13288, Note_on_c, 9, 40, 0
5, 13396, Note_on_c, 9, 35, 47
5, 13400, Note_on_c, 9, 44, 82
5, 13404, Note_on_c, 9, 35, 0
5, 13404, Note_on_c, 9, 38, 77
5, 13408, Note_on_c, 9, 38, 0
5, 13408, Note_on_c, 9, 44, 0
5, 13645, Note_on_c, 9, 39, 48
5, 13656, Note_on_c, 9, 40, 60
5, 13664, Note_on_c, 9, 40, 0
5, 13688, Note_on_c, 9, 38, 81
5, 13732, Note_on_c, 9, 38, 0
5, 13735, Note_on_c, 9, 39, 0
5, 13784, Note_on_c, 9, 35, 47
5, 13784, Note_on_c, 9, 38, 81
5, 13788, Note_on_c, 9, 38, 58
5, 13796, Note_on_c, 9, 38, 0
5, 13796, Note_on_c, 9, 35, 0
5, 13799, Note_on_c, 9, 36, 29
5, 13824, Note_on_c, 9, 38, 0
5, 13948, Note_on_c, 9, 36, 0
5, 14040, Note_on_c, 9, 40, 60
5, 14052, Note_on_c, 9, 40, 0
5, 14164, Note_on_c, 9, 35, 47
5, 14168, Note_on_c, 9, 38, 58
5, 14168, Note_on_c, 9, 44, 82
5, 14172, Note_on_c, 9, 44, 0
5, 14176, Note_on_c, 9, 38, 0
5, 14176, Note_on_c, 9, 35, 0
5, 14420, Note_on_c, 9, 40, 60
5, 14436, Note_on_c, 9, 40, 0
5, 14548, Note_on_c, 9, 35, 47
5, 14552, Note_on_c, 9, 38, 58
5, 14556, Note_on_c, 9, 38, 0
5, 14556, Note_on_c, 9, 35, 0
5, 14804, Note_on_c, 9, 40, 60
5, 14808, Note_on_c, 9, 40, 0
5, 14932, Note_on_c, 9, 46, 62
5, 14936, Note_on_c, 9, 35, 47
5, 14940, Note_on_c, 9, 38, 77
5, 14944, Note_on_c, 9, 38, 0
5, 14944, Note_on_c, 9, 35, 0
5, 14944, Note_on_c, 9, 46, 0
5, 15188, Note_on_c, 9, 36, 96
5, 15192, Note_on_c, 9, 40, 60
5, 15208, Note_on_c, 9, 40, 0
5, 15320, Note_on_c, 9, 35, 47
5, 15320, Note_on_c, 9, 38, 58
5, 15324, Note_on_c, 9, 38, 0
5, 15328, Note_on_c, 9, 35, 0
5, 15518, Note_on_c, 9, 36, 0
5, 15576, Note_on_c, 9, 40, 60
5, 15588, Note_on_c, 9, 40, 0
5, 15704, Note_on_c, 9, 35, 47
5, 15704, Note_on_c, 9, 44, 82
5, 15708, Note_on_c, 9, 38, 58
5, 15716, Note_on_c, 9, 38, 0
5, 15720, Note_on_c, 9, 44, 0
5, 15720, Note_on_c, 9, 35, 0
5, 15956, Note_on_c, 9, 40, 60
5, 15972, Note_on_c, 9, 40, 0
5, 16084, Note_on_c, 9, 38, 58
5, 16088, Note_on_c, 9, 35, 47
5, 16092, Note_on_c, 9, 38, 0
5, 16096, Note_on_c, 9, 35, 0
5, 16330, Note_on_c, 9, 39, 56
5, 16340, Note_on_c, 9, 40, 60
5, 16356, Note_on_c, 9, 40, 0
5, 16407, Note_on_c, 9, 39, 0
5, 16462, Note_on_c, 9, 36, 70
5, 16472, Note_on_c, 9, 35, 47
5, 16472, Note_on_c, 9, 38, 77
5, 16472, Note_on_c, 9, 44, 82
5, 16484, Note_on_c, 9, 35, 0
5, 16488, Note_on_c, 9, 44, 0
5, 16492, Note_on_c, 9, 38, 0
5, 16724, Note_on_c, 9, 40, 60
5, 16728, Note_on_c, 9, 36, 0
5, 16740, Note_on_c, 9, 40, 0
5, 16852, Note_on_c, 9, 38, 58
5, 16856, Note_on_c, 9, 35, 47
5, 16864, Note_on_c, 9, 35, 0
5, 16868, Note_on_c, 9, 38, 0
5, 17108, Note_on_c, 9, 40, 60
5, 17124, Note_on_c, 9, 40, 0
5, 17236, Note_on_c, 9, 38, 58
5, 17240, Note_on_c, 9, 35, 47
5, 17240, Note_on_c, 9, 44, 82
5, 17248, Note_on_c, 9, 44, 0
5, 17252, Note_on_c, 9, 35, 0
5, 17252, Note_on_c, 9, 38, 0
5, 17496, Note_on_c, 9, 40, 60
5, 17508, Note_on_c, 9, 40, 0
5, 17624, Note_on_c, 9, 35, 47
5, 17624, Note_on_c, 9, 38, 58
5, 17632, Note_on_c, 9, 38, 0
5, 17632, Note_on_c, 9, 35, 0
5, 17876, Note_on_c, 9, 40, 60
5, 17892, Note_on_c, 9, 40, 0
5, 17904, Note_on_c, 9, 36, 87
5, 17978, Note_on_c, 9, 36, 0
5, 18004, Note_on_c, 9, 38, 77
5, 18008, Note_on_c, 9, 35, 47
5, 18008, Note_on_c, 9, 44, 82
5, 18020, Note_on_c, 9, 44, 0
5, 18020, Note_on_c, 9, 35, 0
5, 18020, Note_on_c, 9, 38, 0
5, 18260, Note_on_c, 9, 40, 60
5, 18272, Note_on_c, 9, 40, 0
5, 18388, Note_on_c, 9, 38, 58
5, 18392, Note_on_c, 9, 35, 47
5, 18396, Note_on_c, 9, 35, 0
5, 18396, Note_on_c, 9, 38, 0
5, 18644, Note_on_c, 9, 40, 60
5, 18652, Note_on_c, 9, 40, 0
5, 18776, Note_on_c, 9, 38, 58
5, 18776, Note_on_c, 9, 44, 82
5, 18780, Note_on_c, 9, 35, 47
5, 18784, Note_on_c, 9, 35, 0
5, 18784, Note_on_c, 9, 44, 0
5, 18784, Note_on_c, 9, 38, 0
5, 19013, Note_on_c, 9, 39, 46
5, 19028, Note_on_c, 9, 40, 60
5, 19048, Note_on_c, 9, 40, 0
5, 19054, Note_on_c, 9, 39, 0
5, 19156, Note_on_c, 9, 35, 47
5, 19160, Note_on_c, 9, 38, 58
5, 19168, Note_on_c, 9, 38, 0
5, 19168, Note_on_c, 9, 35, 0
5, 19416, Note_on_c, 9, 40, 60
5, 19424, Note_on_c, 9, 40, 0
5, 19544, Note_on_c, 9, 35, 47
5, 19544, Note_on_c, 9, 38, 77
5, 19548, Note_on_c, 9, 44, 82
5, 19556, Note_on_c, 9, 44, 0
5, 19560, Note_on_c, 9, 38, 0
5, 19560, Note_on_c, 9, 35, 0
5, 19796, Note_on_c, 9, 40, 60
5, 19812, Note_on_c, 9, 40, 0
5, 19924, Note_on_c, 9, 35, 47
5, 19924, Note_on_c, 9, 38, 58
5, 19932, Note_on_c, 9, 38, 0
5, 19932, Note_on_c, 9, 35, 0
5, 20180, Note_on_c, 9, 40, 60
5, 20188, Note_on_c, 9, 40, 0
5, 20312, Note_on_c, 9, 35, 47
5, 20312, Note_on_c, 9, 38, 58
5, 20312, Note_on_c, 9, 44, 82
5, 20320, Note_on_c, 9, 44, 0
5, 20320, Note_on_c, 9, 38, 0
5, 20320, Note_on_c, 9, 35, 0
5, 20564, Note_on_c, 9, 40, 60
5, 20584, Note_on_c, 9, 40, 0
5, 20692, Note_on_c, 9, 35, 47
5, 20696, Note_on_c, 9, 38, 58
5, 20700, Note_on_c, 9, 38, 0
5, 20700, Note_on_c, 9, 35, 0
5, 20952, Note_on_c, 9, 40, 60
5, 20964, Note_on_c, 9, 40, 0
5, 21080, Note_on_c, 9, 35, 47
5, 21080, Note_on_c, 9, 46, 62
5, 21084, Note_on_c, 9, 38, 77
5, 21092, Note_on_c, 9, 38, 0
5, 21096, Note_on_c, 9, 46, 0
5, 21096, Note_on_c, 9, 35, 0
5, 21260, Note_on_c, 9, 39, 75
5, 21317, Note_on_c, 9, 39, 0
5, 21336, Note_on_c, 9, 40, 60
5, 21348, Note_on_c, 9, 40, 0
5, 21357, Note_on_c, 9, 39, 79
5, 21443, Note_on_c, 9, 39, 0
5, 21468, Note_on_c, 9, 35, 40
5, 21468, Note_on_c, 9, 38, 58
5, 21479, Note_on_c, 9, 36, 81
5, 21484, Note_on_c, 9, 38, 0
5, 21484, Note_on_c, 9, 35, 0
5, 21492, Note_on_c, 9, 57, 50
5, 21552, Note_on_c, 9, 57, 0
5, 21615, Note_on_c, 9, 36, 0
5, 21716, Note_on_c, 9, 40, 45
5, 21764, Note_on_c, 9, 40, 0
5, 21852, Note_on_c, 9, 35, 47
5, 21852, Note_on_c, 9, 38, 58
5, 21852, Note_on_c, 9, 44, 82
5, 21868, Note_on_c, 9, 44, 0
5, 21868, Note_on_c, 9, 35, 0
5, 21872, Note_on_c, 9, 38, 0
5, 22108, Note_on_c, 9, 40, 45
5, 22156, Note_on_c, 9, 40, 0
5, 22236, Note_on_c, 9, 35, 47
5, 22236, Note_on_c, 9, 38, 58
5, 22244, Note_on_c, 9, 38, 0
5, 22244, Note_on_c, 9, 35, 0
5, 22484, Note_on_c, 9, 40, 45
5, 22485, Note_on_c, 9, 39, 78
5, 22532, Note_on_c, 9, 40, 0
5, 22556, Note_on_c, 9, 39, 0
5, 22612, Note_on_c, 9, 35, 47
5, 22620, Note_on_c, 9, 38, 77
5, 22620, Note_on_c, 9, 44, 82
5, 22624, Note_on_c, 9, 35, 0
5, 22628, Note_on_c, 9, 44, 0
5, 22628, Note_on_c, 9, 38, 0
5, 22629, Note_on_c, 9, 36, 83
5, 22855, Note_on_c, 9, 36, 0
5, 22868, Note_on_c, 9, 40, 45
5, 22916, Note_on_c, 9, 40, 0
5, 23000, Note_on_c, 9, 35, 47
5, 23000, Note_on_c, 9, 38, 58
5, 23004, Note_on_c, 9, 35, 0
5, 23008, Note_on_c, 9, 38, 0
5, 23252, Note_on_c, 9, 40, 45
5, 23300, Note_on_c, 9, 40, 0
5, 23380, Note_on_c, 9, 35, 47
5, 23384, Note_on_c, 9, 38, 58
5, 23388, Note_on_c, 9, 35, 0
5, 23388, Note_on_c, 9, 44, 82
5, 23392, Note_on_c, 9, 44, 0
5, 23392, Note_on_c, 9, 38, 0
5, 23636, Note_on_c, 9, 40, 45
5, 23684, Note_on_c, 9, 40, 0
5, 23764, Note_on_c, 9, 38, 58
5, 23768, Note_on_c, 9, 38, 0
5, 23768, Note_on_c, 9, 35, 47
5, 23772, Note_on_c, 9, 35, 0
5, 24020, Note_on_c, 9, 40, 60
5, 24036, Note_on_c, 9, 40, 0
5, 24156, Note_on_c, 9, 35, 47
5, 24156, Note_on_c, 9, 38, 77
5, 24156, Note_on_c, 9, 44, 82
5, 24168, Note_on_c, 9, 44, 0
5, 24168, Note_on_c, 9, 38, 0
5, 24168, Note_on_c, 9, 35, 0
5, 24404, Note_on_c, 9, 40, 60
5, 24424, Note_on_c, 9, 40, 0
5, 24532, Note_on_c, 9, 35, 47
5, 24532, Note_on_c, 9, 38, 58
5, 24540, Note_on_c, 9, 38, 0
5, 24544, Note_on_c, 9, 35, 0
5, 24792, Note_on_c, 9, 40, 60
5, 24796, Note_on_c, 9, 40, 0
5, 24916, Note_on_c, 9, 38, 58
5, 24916, Note_on_c, 9, 44, 82
5, 24924, Note_on_c, 9, 35, 47
5, 24928, Note_on_c, 9, 35, 0
5, 24928, Note_on_c, 9, 44, 0
5, 24928, Note_on_c, 9, 38, 0
5, 25172, Note_on_c, 9, 40, 60
5, 25185, Note_on_c, 9, 39, 51
5, 25188, Note_on_c, 9, 40, 0
5, 25249, Note_on_c, 9, 39, 0
5, 25304, Note_on_c, 9, 35, 47
5, 25304, Note_on_c, 9, 38, 58
5, 25312, Note_on_c, 9, 38, 0
5, 25312, Note_on_c, 9, 35, 0
5, 25313, Note_on_c, 9, 39, 46
5, 25497, Note_on_c, 9, 39, 0
5, 25556, Note_on_c, 9, 40, 60
5, 25569, Note_on_c, 9, 39, 47
5, 25572, Note_on_c, 9, 40, 0
5, 25614, Note_on_c, 9, 39, 0
5, 25684, Note_on_c, 9, 35, 47
5, 25688, Note_on_c, 9, 44, 82
5, 25692, Note_on_c, 9, 35, 0
5, 25692, Note_on_c, 9, 38, 77
5, 25696, Note_on_c, 9, 38, 0
5, 25696, Note_on_c, 9, 44, 0
5, 25940, Note_on_c, 9, 40, 60
5, 25960, Note_on_c, 9, 40, 0
5, 25976, Note_on_c, 9, 38, 81
5, 26020, Note_on_c, 9, 38, 0
5, 26068, Note_on_c, 9, 38, 81
5, 26072, Note_on_c, 9, 35, 47
5, 26076, Note_on_c, 9, 38, 58
5, 26080, Note_on_c, 9, 35, 0
5, 26080, Note_on_c, 9, 38, 0
5, 26116, Note_on_c, 9, 38, 0
5, 26324, Note_on_c, 9, 40, 60
5, 26340, Note_on_c, 9, 40, 0
5, 26366, Note_on_c, 9, 39, 75
5, 26407, Note_on_c, 9, 39, 0
5, 26452, Note_on_c, 9, 35, 47
5, 26452, Note_on_c, 9, 38, 58
5, 26460, Note_on_c, 9, 44, 82
5, 26464, Note_on_c, 9, 44, 0
5, 26464, Note_on_c, 9, 38, 0
5, 26464, Note_on_c, 9, 35, 0
5, 26468, Note_on_c, 9, 36, 68
5, 26541, Note_on_c, 9, 36, 0
5, 26712, Note_on_c, 9, 40, 60
5, 26728, Note_on_c, 9, 40, 0
5, 26730, Note_on_c, 9, 39, 82
5, 26786, Note_on_c, 9, 39, 0
5, 26836, Note_on_c, 9, 35, 47
5, 26836, Note_on_c, 9, 38, 58
5, 26840, Note_on_c, 9, 38, 0
5, 26844, Note_on_c, 9, 35, 0
5, 26852, Note_on_c, 9, 36, 64
5, 26935, Note_on_c, 9, 36, 0
5, 27092, Note_on_c, 9, 40, 60
5, 27108, Note_on_c, 9, 40, 0
5, 27119, Note_on_c, 9, 39, 85
5, 27175, Note_on_c, 9, 39, 0
5, 27220, Note_on_c, 9, 35, 47
5, 27220, Note_on_c, 9, 44, 82
5, 27228, Note_on_c, 9, 38, 77
5, 27232, Note_on_c, 9, 38, 0
5, 27232, Note_on_c, 9, 44, 0
5, 27232, Note_on_c, 9, 35, 0
5, 27235, Note_on_c, 9, 36, 69
5, 27398, Note_on_c, 9, 36, 0
5, 27476, Note_on_c, 9, 40, 60
5, 27488, Note_on_c, 9, 40, 0
5, 27508, Note_on_c, 9, 39, 86
5, 27559, Note_on_c, 9, 39, 0
5, 27604, Note_on_c, 9, 38, 58
5, 27608, Note_on_c, 9, 35, 47
5, 27612, Note_on_c, 9, 35, 0
5, 27612, Note_on_c, 9, 38, 0
5, 27632, Note_on_c, 9, 36, 59
5, 27702, Note_on_c, 9, 36, 0
5, 27860, Note_on_c, 9, 40, 60
5, 27880, Note_on_c, 9, 40, 0
5, 27988, Note_on_c, 9, 35, 47
5, 27988, Note_on_c, 9, 38, 58
5, 27988, Note_on_c, 9, 44, 82
5, 28000, Note_on_c, 9, 38, 0
5, 28004, Note_on_c, 9, 44, 0
5, 28004, Note_on_c, 9, 35, 0
5, 28248, Note_on_c, 9, 40, 60
5, 28248, Note_on_c, 9, 40, 0
5, 28376, Note_on_c, 9, 35, 47
5, 28376, Note_on_c, 9, 38, 58
5, 28380, Note_on_c, 9, 38, 0
5, 28384, Note_on_c, 9, 35, 0
5, 28632, Note_on_c, 9, 40, 60
5, 28644, Note_on_c, 9, 40, 0
5, 28648, Note_on_c, 9, 39, 39
5, 28676, Note_on_c, 9, 39, 0
5, 28706, Note_on_c, 9, 36, 36
5, 28756, Note_on_c, 9, 44, 82
5, 28760, Note_on_c, 9, 35, 47
5, 28760, Note_on_c, 9, 38, 77
5, 28772, Note_on_c, 9, 35, 0
5, 28776, Note_on_c, 9, 38, 0
5, 28776, Note_on_c, 9, 44, 0
5, 28805, Note_on_c, 9, 36, 0
5, 29012, Note_on_c, 9, 40, 60
5, 29028, Note_on_c, 9, 40, 0
5, 29140, Note_on_c, 9, 38, 58
5, 29144, Note_on_c, 9, 35, 47
5, 29148, Note_on_c, 9, 35, 0
5, 29148, Note_on_c, 9, 38, 0
5, 29396, Note_on_c, 9, 40, 60
5, 29412, Note_on_c, 9, 40, 0
5, 29528, Note_on_c, 9, 35, 47
5, 29528, Note_on_c, 9, 38, 58
5, 29528, Note_on_c, 9, 44, 82
5, 29544, Note_on_c, 9, 44, 0
5, 29544, Note_on_c, 9, 38, 0
5, 29548, Note_on_c, 9, 35, 0
5, 29780, Note_on_c, 9, 40, 60
5, 29800, Note_on_c, 9, 40, 0
5, 29908, Note_on_c, 9, 38, 58
5, 29916, Note_on_c, 9, 35, 47
5, 29920, Note_on_c, 9, 35, 0
5, 29920, Note_on_c, 9, 38, 0
5, 30168, Note_on_c, 9, 40, 60
5, 30182, Note_on_c, 9, 38, 90
5, 30184, Note_on_c, 9, 40, 0
5, 30217, Note_on_c, 9, 38, 0
5, 30287, Note_on_c, 9, 36, 65
5, 30296, Note_on_c, 9, 35, 47
5, 30296, Note_on_c, 9, 38, 77
5, 30296, Note_on_c, 9, 44, 82
5, 30308, Note_on_c, 9, 44, 0
5, 30312, Note_on_c, 9, 38, 0
5, 30312, Note_on_c, 9, 35, 0
5, 30323, Note_on_c, 9, 36, 0
5, 30548, Note_on_c, 9, 40, 60
5, 30564, Note_on_c, 9, 40, 0
5, 30676, Note_on_c, 9, 38, 58
5, 30680, Note_on_c, 9, 35, 47
5, 30688, Note_on_c, 9, 35, 0
5, 30688, Note_on_c, 9, 38, 0
5, 30932, Note_on_c, 9, 40, 60
5, 30948, Note_on_c, 9, 40, 0
5, 31060, Note_on_c, 9, 38, 58
5, 31060, Note_on_c, 9, 44, 82
5, 31072, Note_on_c, 9, 44, 0
5, 31072, Note_on_c, 9, 38, 0
5, 31072, Note_on_c, 9, 35, 47
5, 31072, Note_on_c, 9, 35, 0
5, 31316, Note_on_c, 9, 40, 60
5, 31336, Note_on_c, 9, 40, 0
5, 31346, Note_on_c, 9, 39, 83
5, 31413, Note_on_c, 9, 39, 0
5, 31444, Note_on_c, 9, 35, 47
5, 31448, Note_on_c, 9, 38, 58
5, 31456, Note_on_c, 9, 38, 0
5, 31456, Note_on_c, 9, 35, 0
5, 31488, Note_on_c, 9, 36, 68
5, 31529, Note_on_c, 9, 36, 0
5, 31700, Note_on_c, 9, 40, 60
5, 31720, Note_on_c, 9, 40, 0
5, 31828, Note_on_c, 9, 38, 77
5, 31832, Note_on_c, 9, 35, 47
5, 31836, Note_on_c, 9, 46, 62
5, 31848, Note_on_c, 9, 46, 0
5, 31848, Note_on_c, 9, 35, 0
5, 31848, Note_on_c, 9, 38, 0
5, 32088, Note_on_c, 9, 40, 60
5, 32100, Note_on_c, 9, 40, 0
5, 32216, Note_on_c, 9, 35, 47
5, 32216, Note_on_c, 9, 38, 58
5, 32224, Note_on_c, 9, 38, 0
5, 32224, Note_on_c, 9, 35, 0
5, 32468, Note_on_c, 9, 40, 60
5, 32484, Note_on_c, 9, 40, 0
5, 32596, Note_on_c, 9, 35, 47
5, 32596, Note_on_c, 9, 38, 58
5, 32604, Note_on_c, 9, 44, 82
5, 32608, Note_on_c, 9, 44, 0
5, 32612, Note_on_c, 9, 38, 0
5, 32612, Note_on_c, 9, 35, 0
5, 32852, Note_on_c, 9, 40, 60
5, 32864, Note_on_c, 9, 40, 0
5, 32984, Note_on_c, 9, 35, 47
5, 32984, Note_on_c, 9, 38, 58
5, 32988, Note_on_c, 9, 38, 0
5, 32988, Note_on_c, 9, 35, 0
5, 33236, Note_on_c, 9, 40, 60
5, 33256, Note_on_c, 9, 40, 0
5, 33262, Note_on_c, 9, 39, 77
5, 33327, Note_on_c, 9, 39, 0
5, 33372, Note_on_c, 9, 35, 47
5, 33372, Note_on_c, 9, 38, 77
5, 33372, Note_on_c, 9, 44, 82
5, 33384, Note_on_c, 9, 44, 0
5, 33384, Note_on_c, 9, 38, 0
5, 33384, Note_on_c, 9, 35, 0
5, 33411, Note_on_c, 9, 36, 63
5, 33443, Note_on_c, 9, 36, 0
5, 33620, Note_on_c, 9, 40, 60
5, 33628, Note_on_c, 9, 46, 97
5, 33634, Note_on_c, 9, 39, 88
5, 33640, Note_on_c, 9, 40, 0
5, 33666, Note_on_c, 9, 46, 0
5, 33742, Note_on_c, 9, 39, 0
5, 33756, Note_on_c, 9, 35, 40
5, 33756, Note_on_c, 9, 38, 58
5, 33772, Note_on_c, 9, 38, 0
5, 33772, Note_on_c, 9, 35, 0
5, 33773, Note_on_c, 9, 36, 52
5, 33939, Note_on_c, 9, 36, 0
5, 34004, Note_on_c, 9, 40, 45
5, 34052, Note_on_c, 9, 40, 0
5, 34140, Note_on_c, 9, 35, 47
5, 34140, Note_on_c, 9, 38, 58
5, 34140, Note_on_c, 9, 44, 82
5, 34156, Note_on_c, 9, 44, 0
5, 34156, Note_on_c, 9, 38, 0
5, 34156, Note_on_c, 9, 35, 0
5, 34396, Note_on_c, 9, 40, 45
5, 34400, Note_on_c, 9, 39, 67
5, 34444, Note_on_c, 9, 40, 0
5, 34460, Note_on_c, 9, 39, 0
5, 34524, Note_on_c, 9, 35, 47
5, 34524, Note_on_c, 9, 38, 58
5, 34540, Note_on_c, 9, 38, 0
5, 34540, Note_on_c, 9, 35, 0
5, 34555, Note_on_c, 9, 36, 33
5, 34594, Note_on_c, 9, 36, 0
5, 34772, Note_on_c, 9, 40, 45
5, 34820, Note_on_c, 9, 40, 0
5, 34900, Note_on_c, 9, 35, 47
5, 34908, Note_on_c, 9, 38, 77
5, 34908, Note_on_c, 9, 44, 82
5, 34912, Note_on_c, 9, 35, 0
5, 34916, Note_on_c, 9, 44, 0
5, 34916, Note_on_c, 9, 38, 0
5, 35156, Note_on_c, 9, 40, 45
5, 35204, Note_on_c, 9, 40, 0
5, 35284, Note_on_c, 9, 35, 47
5, 35284, Note_on_c, 9, 38, 58
5, 35292, Note_on_c, 9, 38, 0
5, 35292, Note_on_c, 9, 35, 0
5, 35540, Note_on_c, 9, 40, 45
5, 35588, Note_on_c, 9, 40, 0
5, 35668, Note_on_c, 9, 35, 47
5, 35672, Note_on_c, 9, 35, 0
5, 35672, Note_on_c, 9, 38, 58
5, 35676, Note_on_c, 9, 38, 0
5, 35676, Note_on_c, 9, 44, 82
5, 35676, Note_on_c, 9, 44, 0
5, 35928, Note_on_c, 9, 40, 45
5, 35972, Note_on_c, 9, 40, 0
5, 36052, Note_on_c, 9, 38, 58
5, 36056, Note_on_c, 9, 38, 0
5, 36056, Note_on_c, 9, 35, 47
5, 36060, Note_on_c, 9, 35, 0
5, 36308, Note_on_c, 9, 40, 60
5, 36324, Note_on_c, 9, 40, 0
5, 36436, Note_on_c, 9, 46, 62
5, 36440, Note_on_c, 9, 35, 47
5, 36440, Note_on_c, 9, 38, 77
5, 36452, Note_on_c, 9, 38, 0
5, 36452, Note_on_c, 9, 35, 0
5, 36452, Note_on_c, 9, 46, 0
5, 36696, Note_on_c, 9, 40, 60
5, 36708, Note_on_c, 9, 40, 0
5, 36820, Note_on_c, 9, 35, 47
5, 36824, Note_on_c, 9, 38, 58
5, 36828, Note_on_c, 9, 38, 0
5, 36828, Note_on_c, 9, 35, 0
5, 37076, Note_on_c, 9, 40, 60
5, 37096, Note_on_c, 9, 40, 0
5, 37204, Note_on_c, 9, 44, 82
5, 37208, Note_on_c, 9, 38, 58
5, 37212, Note_on_c, 9, 44, 0
5, 37212, Note_on_c, 9, 35, 47
5, 37212, Note_on_c, 9, 35, 0
5, 37216, Note_on_c, 9, 38, 0
5, 37464, Note_on_c, 9, 40, 60
5, 37476, Note_on_c, 9, 40, 0
5, 37588, Note_on_c, 9, 38, 58
5, 37592, Note_on_c, 9, 35, 47
5, 37600, Note_on_c, 9, 35, 0
5, 37600, Note_on_c, 9, 38, 0
5, 37848, Note_on_c, 9, 40, 60
5, 37860, Note_on_c, 9, 40, 0
5, 37972, Note_on_c, 9, 35, 47
5, 37976, Note_on_c, 9, 44, 82
5, 37980, Note_on_c, 9, 35, 0
5, 37980, Note_on_c, 9, 38, 77
5, 37984, Note_on_c, 9, 38, 0
5, 37984, Note_on_c, 9, 44, 0
5, 38228, Note_on_c, 9, 40, 60
5, 38244, Note_on_c, 9, 40, 0
5, 38264, Note_on_c, 9, 38, 81
5, 38308, Note_on_c, 9, 38, 0
5, 38360, Note_on_c, 9, 35, 47
5, 38360, Note_on_c, 9, 38, 81
5, 38364, Note_on_c, 9, 38, 58
5, 38368, Note_on_c, 9, 38, 0
5, 38368, Note_on_c, 9, 35, 0
5, 38404, Note_on_c, 9, 38, 0
5, 38546, Note_on_c, 9, 39, 55
5, 38598, Note_on_c, 9, 39, 0
5, 38612, Note_on_c, 9, 40, 60
5, 38628, Note_on_c, 9, 40, 0
5, 38650, Note_on_c, 9, 39, 67
5, 38678, Note_on_c, 9, 39, 0
5, 38740, Note_on_c, 9, 35, 47
5, 38744, Note_on_c, 9, 38, 58
5, 38748, Note_on_c, 9, 44, 82
5, 38756, Note_on_c, 9, 44, 0
5, 38756, Note_on_c, 9, 38, 0
5, 38756, Note_on_c, 9, 35, 0
5, 38784, Note_on_c, 9, 36, 57
5, 38868, Note_on_c, 9, 36, 0
5, 38996, Note_on_c, 9, 40, 60
5, 39012, Note_on_c, 9, 40, 0
5, 39124, Note_on_c, 9, 35, 47
5, 39128, Note_on_c, 9, 38, 58
5, 39128, Note_on_c, 9, 38, 0
5, 39132, Note_on_c, 9, 39, 40
5, 39136, Note_on_c, 9, 35, 0
5, 39162, Note_on_c, 9, 39, 0
5, 39240, Note_on_c, 9, 39, 51
5, 39299, Note_on_c, 9, 39, 0
5, 39384, Note_on_c, 9, 40, 60
5, 39396, Note_on_c, 9, 40, 0
5, 39400, Note_on_c, 9, 36, 65
5, 39477, Note_on_c, 9, 36, 0
5, 39508, Note_on_c, 9, 44, 82
5, 39512, Note_on_c, 9, 35, 47
5, 39516, Note_on_c, 9, 38, 77
5, 39520, Note_on_c, 9, 38, 0
5, 39520, Note_on_c, 9, 35, 0
5, 39520, Note_on_c, 9, 44, 0
5, 39689, Note_on_c, 9, 39, 67
5, 39741, Note_on_c, 9, 39, 0
5, 39764, Note_on_c, 9, 40, 60
5, 39772, Note_on_c, 9, 40, 0
5, 39789, Note_on_c, 9, 39, 64
5, 39817, Note_on_c, 9, 39, 0
5, 39892, Note_on_c, 9, 38, 58
5, 39896, Note_on_c, 9, 35, 47
5, 39900, Note_on_c, 9, 35, 0
5, 39900, Note_on_c, 9, 38, 0
5, 39901, Note_on_c, 9, 36, 71
5, 39976, Note_on_c, 9, 36, 0
5, 40148, Note_on_c, 9, 40, 60
5, 40164, Note_on_c, 9, 40, 0
5, 40276, Note_on_c, 9, 35, 47
5, 40276, Note_on_c, 9, 44, 82
5, 40280, Note_on_c, 9, 38, 58
5, 40292, Note_on_c, 9, 38, 0
5, 40296, Note_on_c, 9, 35, 0
5, 40300, Note_on_c, 9, 44, 0
5, 40532, Note_on_c, 9, 40, 60
5, 40548, Note_on_c, 9, 40, 0
5, 40550, Note_on_c, 9, 36, 90
5, 40626, Note_on_c, 9, 36, 0
5, 40660, Note_on_c, 9, 35, 47
5, 40660, Note_on_c, 9, 38, 58
5, 40668, Note_on_c, 9, 38, 0
5, 40668, Note_on_c, 9, 35, 0
5, 40916, Note_on_c, 9, 40, 60
5, 40936, Note_on_c, 9, 40, 0
5, 41048, Note_on_c, 9, 35, 47
5, 41048, Note_on_c, 9, 38, 77
5, 41048, Note_on_c, 9, 44, 82
5, 41064, Note_on_c, 9, 44, 0
5, 41064, Note_on_c, 9, 38, 0
5, 41064, Note_on_c, 9, 35, 0
5, 41304, Note_on_c, 9, 40, 60
5, 41316, Note_on_c, 9, 40, 0
5, 41432, Note_on_c, 9, 35, 47
5, 41432, Note_on_c, 9, 38, 58
5, 41436, Note_on_c, 9, 35, 0
5, 41440, Note_on_c, 9, 38, 0
5, 41684, Note_on_c, 9, 40, 60
5, 41696, Note_on_c, 9, 35, 63
5, 41704, Note_on_c, 9, 40, 0
5, 41753, Note_on_c, 9, 35, 0
5, 41812, Note_on_c, 9, 38, 58
5, 41816, Note_on_c, 9, 35, 47
5, 41816, Note_on_c, 9, 44, 82
5, 41832, Note_on_c, 9, 44, 0
5, 41832, Note_on_c, 9, 35, 0
5, 41832, Note_on_c, 9, 38, 0
5, 42068, Note_on_c, 9, 40, 60
5, 42084, Note_on_c, 9, 40, 0
5, 42196, Note_on_c, 9, 38, 58
5, 42200, Note_on_c, 9, 35, 47
5, 42204, Note_on_c, 9, 35, 0
5, 42208, Note_on_c, 9, 38, 0
5, 42452, Note_on_c, 9, 40, 60
5, 42472, Note_on_c, 9, 40, 0
5, 42584, Note_on_c, 9, 38, 77
5, 42588, Note_on_c, 9, 35, 47
5, 42588, Note_on_c, 9, 44, 82
5, 42596, Note_on_c, 9, 44, 0
5, 42596, Note_on_c, 9, 38, 0
5, 42600, Note_on_c, 9, 35, 0
5, 42836, Note_on_c, 9, 40, 60
5, 42856, Note_on_c, 9, 40, 0
5, 42968, Note_on_c, 9, 35, 47
5, 42968, Note_on_c, 9, 38, 58
5, 42976, Note_on_c, 9, 38, 0
5, 42976, Note_on_c, 9, 35, 0
5, 43220, Note_on_c, 9, 40, 60
5, 43240, Note_on_c, 9, 40, 0
5, 43348, Note_on_c, 9, 38, 58
5, 43356, Note_on_c, 9, 35, 47
5, 43356, Note_on_c, 9, 44, 82
5, 43360, Note_on_c, 9, 35, 0
5, 43364, Note_on_c, 9, 44, 0
5, 43364, Note_on_c, 9, 38, 0
5, 43604, Note_on_c, 9, 40, 60
5, 43620, Note_on_c, 9, 40, 0
5, 43732, Note_on_c, 9, 35, 47
5, 43732, Note_on_c, 9, 38, 58
5, 43744, Note_on_c, 9, 38, 0
5, 43744, Note_on_c, 9, 35, 0
5, 43790, Note_on_c, 9, 35, 50
5, 43980, Note_on_c, 9, 35, 0
5, 43988, Note_on_c, 9, 40, 60
5, 44004, Note_on_c, 9, 40, 0
5, 44029, Note_on_c, 9, 35, 47
5, 44094, Note_on_c, 9, 35, 0
5, 44116, Note_on_c, 9, 35, 47
5, 44116, Note_on_c, 9, 38, 77
5, 44120, Note_on_c, 9, 44, 82
5, 44124, Note_on_c, 9, 44, 0
5, 44128, Note_on_c, 9, 38, 0
5, 44128, Note_on_c, 9, 35, 0
5, 44372, Note_on_c, 9, 40, 60
5, 44380, Note_on_c, 9, 40, 0
5, 44500, Note_on_c, 9, 38, 58
5, 44504, Note_on_c, 9, 35, 47
5, 44516, Note_on_c, 9, 35, 0
5, 44516, Note_on_c, 9, 38, 0
5, 44760, Note_on_c, 9, 40, 60
5, 44772, Note_on_c, 9, 40, 0
5, 44884, Note_on_c, 9, 35, 47
5, 44888, Note_on_c, 9, 38, 58
5, 44892, Note_on_c, 9, 38, 0
5, 44892, Note_on_c, 9, 44, 82
5, 44892, Note_on_c, 9, 44, 0
5, 44896, Note_on_c, 9, 35, 0
5, 45144, Note_on_c, 9, 40, 60
5, 45156, Note_on_c, 9, 40, 0
5, 45268, Note_on_c, 9, 35, 47
5, 45268, Note_on_c, 9, 38, 58
5, 45272, Note_on_c, 9, 38, 0
5, 45276, Note_on_c, 9, 35, 0
5, 45524, Note_on_c, 9, 40, 60
5, 45528, Note_on_c, 9, 40, 0
5, 45656, Note_on_c, 9, 35, 47
5, 45656, Note_on_c, 9, 38, 77
5, 45656, Note_on_c, 9, 46, 62
5, 45664, Note_on_c, 9, 46, 0
5, 45664, Note_on_c, 9, 38, 0
5, 45664, Note_on_c, 9, 35, 0
5, 45908, Note_on_c, 9, 40, 60
5, 45924, Note_on_c, 9, 40, 0
5, 45936, Note_on_c, 9, 39, 67
5, 45964, Note_on_c, 9, 39, 0
5, 46044, Note_on_c, 9, 35, 40
5, 46044, Note_on_c, 9, 38, 58
5, 46052, Note_on_c, 9, 35, 0
5, 46056, Note_on_c, 9, 38, 0
5, 46066, Note_on_c, 9, 36, 45
5, 46100, Note_on_c, 9, 36, 0
5, 46292, Note_on_c, 9, 40, 45
5, 46340, Note_on_c, 9, 40, 0
5, 46366, Note_on_c, 9, 39, 65
5, 46394, Note_on_c, 9, 39, 0
5, 46428, Note_on_c, 9, 44, 82
5, 46436, Note_on_c, 9, 35, 47
5, 46436, Note_on_c, 9, 38, 58
5, 46444, Note_on_c, 9, 38, 0
5, 46444, Note_on_c, 9, 35, 0
5, 46444, Note_on_c, 9, 44, 0
5, 46684, Note_on_c, 9, 40, 45
5, 46732, Note_on_c, 9, 40, 0
5, 46812, Note_on_c, 9, 35, 47
5, 46812, Note_on_c, 9, 38, 58
5, 46828, Note_on_c, 9, 38, 0
5, 46828, Note_on_c, 9, 35, 0
5, 47060, Note_on_c, 9, 40, 45
5, 47108, Note_on_c, 9, 40, 0
5, 47188, Note_on_c, 9, 35, 47
5, 47200, Note_on_c, 9, 35, 0
5, 47200, Note_on_c, 9, 38, 77
5, 47200, Note_on_c, 9, 44, 82
5, 47204, Note_on_c, 9, 44, 0
5, 47204, Note_on_c, 9, 38, 0
5, 47444, Note_on_c, 9, 40, 45
5, 47492, Note_on_c, 9, 40, 0
5, 47576, Note_on_c, 9, 35, 47
5, 47576, Note_on_c, 9, 38, 58
5, 47580, Note_on_c, 9, 35, 0
5, 47584, Note_on_c, 9, 38, 0
5, 47828, Note_on_c, 9, 40, 45
5, 47876, Note_on_c, 9, 40, 0
5, 47960, Note_on_c, 9, 35, 47
5, 47960, Note_on_c, 9, 38, 58
5, 47964, Note_on_c, 9, 35, 0
5, 47964, Note_on_c, 9, 44, 82
5, 47972, Note_on_c, 9, 44, 0
5, 47972, Note_on_c, 9, 38, 0
5, 48212, Note_on_c, 9, 40, 45
5, 48260, Note_on_c, 9, 40, 0
5, 48344, Note_on_c, 9, 38, 58
5, 48344, Note_on_c, 9, 38, 0
5, 48348, Note_on_c, 9, 35, 47
5, 48352, Note_on_c, 9, 35, 0
5, 48600, Note_on_c, 9, 40, 60
5, 48612, Note_on_c, 9, 40, 0
5, 48617, Note_on_c, 9, 39, 60
5, 48679, Note_on_c, 9, 39, 0
5, 48728, Note_on_c, 9, 35, 47
5, 48728, Note_on_c, 9, 38, 77
5, 48728, Note_on_c, 9, 44, 82
5, 48740, Note_on_c, 9, 44, 0
5, 48740, Note_on_c, 9, 38, 0
5, 48740, Note_on_c, 9, 35, 0
5, 48746, Note_on_c, 9, 51, 48
5, 48763, Note_on_c, 9, 36, 44
5, 48844, Note_on_c, 9, 51, 0
5, 48861, Note_on_c, 9, 36, 0
5, 48980, Note_on_c, 9, 40, 60
5, 48986, Note_on_c, 9, 51, 83
5, 48996, Note_on_c, 9, 40, 0
5, 49005, Note_on_c, 9, 36, 80
5, 49056, Note_on_c, 9, 51, 0
5, 49112, Note_on_c, 9, 35, 47
5, 49112, Note_on_c, 9, 38, 58
5, 49116, Note_on_c, 9, 38, 0
5, 49116, Note_on_c, 9, 35, 0
5, 49132, Note_on_c, 9, 36, 0
5, 49364, Note_on_c, 9, 40, 60
5, 49380, Note_on_c, 9, 40, 0
5, 49492, Note_on_c, 9, 44, 82
5, 49496, Note_on_c, 9, 38, 58
5, 49504, Note_on_c, 9, 35, 47
5, 49504, Note_on_c, 9, 35, 0
5, 49508, Note_on_c, 9, 38, 0
5, 49508, Note_on_c, 9, 44, 0
5, 49748, Note_on_c, 9, 40, 60
5, 49764, Note_on_c, 9, 40, 0
5, 49880, Note_on_c, 9, 35, 47
5, 49880, Note_on_c, 9, 38, 58
5, 49884, Note_on_c, 9, 35, 0
5, 49888, Note_on_c, 9, 38, 0
5, 50136, Note_on_c, 9, 40, 60
5, 50152, Note_on_c, 9, 40, 0
5, 50264, Note_on_c, 9, 35, 47
5, 50268, Note_on_c, 9, 35, 0
5, 50268, Note_on_c, 9, 38, 77
5, 50268, Note_on_c, 9, 44, 82
5, 50272, Note_on_c, 9, 44, 0
5, 50272, Note_on_c, 9, 38, 0
5, 50520, Note_on_c, 9, 40, 60
5, 50524, Note_on_c, 9, 40, 0
5, 50548, Note_on_c, 9, 38, 81
5, 50592, Note_on_c, 9, 38, 0
5, 50644, Note_on_c, 9, 38, 81
5, 50648, Note_on_c, 9, 35, 47
5, 50648, Note_on_c, 9, 38, 58
5, 50652, Note_on_c, 9, 35, 0
5, 50656, Note_on_c, 9, 38, 0
5, 50692, Note_on_c, 9, 38, 0
5, 50900, Note_on_c, 9, 40, 60
5, 50908, Note_on_c, 9, 40, 0
5, 51028, Note_on_c, 9, 35, 47
5, 51032, Note_on_c, 9, 38, 58
5, 51036, Note_on_c, 9, 44, 82
5, 51036, Note_on_c, 9, 44, 0
5, 51040, Note_on_c, 9, 38, 0
5, 51040, Note_on_c, 9, 35, 0
5, 51288, Note_on_c, 9, 40, 60
5, 51300, Note_on_c, 9, 40, 0
5, 51412, Note_on_c, 9, 35, 47
5, 51416, Note_on_c, 9, 38, 58
5, 51416, Note_on_c, 9, 38, 0
5, 51420, Note_on_c, 9, 35, 0
5, 51668, Note_on_c, 9, 40, 60
5, 51688, Note_on_c, 9, 40, 0
5, 51706, Note_on_c, 9, 39, 55
5, 51736, Note_on_c, 9, 39, 0
5, 51796, Note_on_c, 9, 44, 82
5, 51800, Note_on_c, 9, 35, 47
5, 51804, Note_on_c, 9, 38, 77
5, 51812, Note_on_c, 9, 38, 0
5, 51812, Note_on_c, 9, 35, 0
5, 51812, Note_on_c, 9, 44, 0
5, 52056, Note_on_c, 9, 40, 60
5, 52068, Note_on_c, 9, 40, 0
5, 52184, Note_on_c, 9, 38, 58
5, 52184, Note_on_c, 9, 38, 0
5, 52224, Note_on_c, 9, 35, 40
5, 52224, Note_on_c, 9, 38, 58
5, 52232, Note_on_c, 9, 35, 0
5, 52244, Note_on_c, 9, 38, 0
5, 52436, Note_on_c, 9, 40, 45
5, 52484, Note_on_c, 9, 40, 0
5, 52572, Note_on_c, 9, 35, 47
5, 52572, Note_on_c, 9, 38, 58
5, 52572, Note_on_c, 9, 44, 82
5, 52576, Note_on_c, 9, 44, 0
5, 52580, Note_on_c, 9, 35, 0
5, 52584, Note_on_c, 9, 38, 0
5, 52828, Note_on_c, 9, 40, 45
5, 52858, Note_on_c, 9, 36, 50
5, 52876, Note_on_c, 9, 40, 0
5, 52888, Note_on_c, 9, 36, 0
5, 52956, Note_on_c, 9, 35, 47
5, 52956, Note_on_c, 9, 38, 58
5, 52970, Note_on_c, 9, 36, 54
5, 52972, Note_on_c, 9, 38, 0
5, 52972, Note_on_c, 9, 35, 0
5, 53051, Note_on_c, 9, 36, 0
5, 53204, Note_on_c, 9, 40, 45
5, 53228, Note_on_c, 9, 36, 53
5, 53248, Note_on_c, 9, 40, 0
5, 53259, Note_on_c, 9, 36, 0
5, 53336, Note_on_c, 9, 35, 47
5, 53340, Note_on_c, 9, 38, 77
5, 53340, Note_on_c, 9, 44, 82
5, 53344, Note_on_c, 9, 35, 0
5, 53348, Note_on_c, 9, 44, 0
5, 53348, Note_on_c, 9, 38, 0
5, 53588, Note_on_c, 9, 40, 45
5, 53636, Note_on_c, 9, 40, 0
5, 53720, Note_on_c, 9, 35, 47
5, 53720, Note_on_c, 9, 38, 58
5, 53724, Note_on_c, 9, 35, 0
5, 53728, Note_on_c, 9, 38, 0
5, 53972, Note_on_c, 9, 40, 45
5, 53983, Note_on_c, 9, 39, 69
5, 54020, Note_on_c, 9, 40, 0
5, 54038, Note_on_c, 9, 39, 0
5, 54104, Note_on_c, 9, 35, 47
5, 54104, Note_on_c, 9, 35, 0
5, 54104, Note_on_c, 9, 38, 58
5, 54108, Note_on_c, 9, 38, 0
5, 54108, Note_on_c, 9, 44, 82
5, 54108, Note_on_c, 9, 44, 0
5, 54116, Note_on_c, 9, 36, 42
5, 54168, Note_on_c, 9, 36, 0
5, 54356, Note_on_c, 9, 40, 45
5, 54404, Note_on_c, 9, 40, 0
5, 54484, Note_on_c, 9, 38, 58
5, 54488, Note_on_c, 9, 38, 0
5, 54488, Note_on_c, 9, 35, 47
5, 54492, Note_on_c, 9, 35, 0
5, 54740, Note_on_c, 9, 40, 60
5, 54760, Note_on_c, 9, 40, 0
5, 54872, Note_on_c, 9, 38, 77
5, 54872, Note_on_c, 9, 44, 82
5, 54876, Note_on_c, 9, 35, 47
5, 54884, Note_on_c, 9, 35, 0
5, 54888, Note_on_c, 9, 44, 0
5, 54888, Note_on_c, 9, 38, 0
5, 55124, Note_on_c, 9, 40, 60
5, 55132, Note_on_c, 9, 40, 0
5, 55149, Note_on_c, 9, 39, 67
5, 55185, Note_on_c, 9, 39, 0
5, 55252, Note_on_c, 9, 35, 47
5, 55256, Note_on_c, 9, 38, 58
5, 55264, Note_on_c, 9, 38, 0
5, 55264, Note_on_c, 9, 35, 0
5, 55508, Note_on_c, 9, 40, 60
5, 55524, Note_on_c, 9, 40, 0
5, 55609, Note_on_c, 9, 59, 58
5, 55636, Note_on_c, 9, 44, 82
5, 55640, Note_on_c, 9, 38, 58
5, 55644, Note_on_c, 9, 35, 47
5, 55648, Note_on_c, 9, 35, 0
5, 55648, Note_on_c, 9, 38, 0
5, 55648, Note_on_c, 9, 44, 0
5, 55826, Note_on_c, 9, 59, 0
5, 55892, Note_on_c, 9, 40, 60
5, 55908, Note_on_c, 9, 40, 0
5, 56020, Note_on_c, 9, 38, 58
5, 56024, Note_on_c, 9, 35, 47
5, 56028, Note_on_c, 9, 35, 0
5, 56032, Note_on_c, 9, 38, 0
5, 56276, Note_on_c, 9, 40, 60
5, 56296, Note_on_c, 9, 40, 0
5, 56326, Note_on_c, 9, 59, 58
5, 56369, Note_on_c, 9, 59, 0
5, 56404, Note_on_c, 9, 35, 47
5, 56408, Note_on_c, 9, 44, 82
5, 56412, Note_on_c, 9, 35, 0
5, 56412, Note_on_c, 9, 38, 77
5, 56416, Note_on_c, 9, 38, 0
5, 56416, Note_on_c, 9, 44, 0
5, 56453, Note_on_c, 9, 59, 68
5, 56664, Note_on_c, 9, 40, 60
5, 56672, Note_on_c, 9, 40, 0
5, 56696, Note_on_c, 9, 38, 81
5, 56737, Note_on_c, 9, 59, 0
5, 56740, Note_on_c, 9, 38, 0
5, 56792, Note_on_c, 9, 35, 47
5, 56792, Note_on_c, 9, 38, 81
5, 56796, Note_on_c, 9, 38, 58
5, 56804, Note_on_c, 9, 38, 0
5, 56804, Note_on_c, 9, 35, 0
5, 56832, Note_on_c, 9, 38, 0
5, 57048, Note_on_c, 9, 40, 60
5, 57060, Note_on_c, 9, 40, 0
5, 57098, Note_on_c, 9, 59, 42
5, 57148, Note_on_c, 9, 59, 0
5, 57172, Note_on_c, 9, 35, 47
5, 57176, Note_on_c, 9, 38, 58
5, 57176, Note_on_c, 9, 44, 82
5, 57180, Note_on_c, 9, 44, 0
5, 57184, Note_on_c, 9, 38, 0
5, 57184, Note_on_c, 9, 35, 0
5, 57229, Note_on_c, 9, 59, 65
5, 57428, Note_on_c, 9, 40, 60
5, 57444, Note_on_c, 9, 40, 0
5, 57464, Note_on_c, 9, 59, 0
5, 57556, Note_on_c, 9, 35, 47
5, 57560, Note_on_c, 9, 38, 58
5, 57564, Note_on_c, 9, 38, 0
5, 57564, Note_on_c, 9, 35, 0
5, 57603, Note_on_c, 9, 59, 68
5, 57809, Note_on_c, 9, 59, 0
5, 57812, Note_on_c, 9, 40, 60
5, 57814, Note_on_c, 9, 39, 59
5, 57816, Note_on_c, 9, 40, 0
5, 57845, Note_on_c, 9, 39, 0
5, 57940, Note_on_c, 9, 46, 62
5, 57944, Note_on_c, 9, 35, 47
5, 57948, Note_on_c, 9, 38, 77
5, 57952, Note_on_c, 9, 38, 0
5, 57952, Note_on_c, 9, 35, 0
5, 57952, Note_on_c, 9, 46, 0
5, 57970, Note_on_c, 9, 59, 80
5, 58108, Note_on_c, 9, 39, 81
5, 58166, Note_on_c, 9, 39, 0
5, 58200, Note_on_c, 9, 40, 60
5, 58212, Note_on_c, 9, 59, 0
5, 58216, Note_on_c, 9, 40, 0
5, 58218, Note_on_c, 9, 39, 69
5, 58305, Note_on_c, 9, 39, 0
5, 58328, Note_on_c, 9, 38, 58
5, 58331, Note_on_c, 9, 59, 67
5, 58332, Note_on_c, 9, 38, 0
5, 58351, Note_on_c, 9, 36, 62
5, 58355, Note_on_c, 9, 57, 43
5, 58368, Note_on_c, 9, 35, 40
5, 58368, Program_c, 9, 0
5, 58376, Note_on_c, 9, 35, 0
5, 58382, Note_on_c, 9, 57, 0
5, 58439, Note_on_c, 9, 36, 0
5, 58586, Note_on_c, 9, 59, 0
5, 58716, Note_on_c, 9, 35, 47
5, 58716, Note_on_c, 9, 44, 82
5, 58720, Note_on_c, 9, 44, 0
5, 58724, Note_on_c, 9, 35, 0
5, 58725, Note_on_c, 9, 59, 87
5, 59004, Note_on_c, 9, 59, 0
5, 59100, Note_on_c, 9, 35, 47
5, 59116, Note_on_c, 9, 35, 0
5, 59122, Note_on_c, 9, 59, 53
5, 59337, Note_on_c, 9, 59, 0
5, 59480, Note_on_c, 9, 35, 47
5, 59484, Note_on_c, 9, 44, 82
5, 59488, Note_on_c, 9, 35, 0
5, 59492, Note_on_c, 9, 44, 0
5, 59493, Note_on_c, 9, 59, 84
5, 59706, Note_on_c, 9, 59, 0
5, 59793, Note_on_c, 9, 59, 49
5, 59836, Note_on_c, 9, 59, 0
5, 59864, Note_on_c, 9, 35, 47
5, 59868, Note_on_c, 9, 35, 0
5, 59900, Note_on_c, 9, 59, 79
5, 60173, Note_on_c, 9, 59, 0
5, 60248, Note_on_c, 9, 35, 47
5, 60248, Note_on_c, 9, 35, 0
5, 60252, Note_on_c, 9, 44, 82
5, 60252, Note_on_c, 9, 44, 0
5, 60261, Note_on_c, 9, 59, 76
5, 60502, Note_on_c, 9, 59, 0
5, 60558, Note_on_c, 9, 59, 48
5, 60597, Note_on_c, 9, 59, 0
5, 60632, Note_on_c, 9, 35, 47
5, 60636, Note_on_c, 9, 35, 0
5, 60658, Note_on_c, 9, 59, 76
5, 60871, Note_on_c, 9, 59, 0
5, 61016, Note_on_c, 9, 44, 82
5, 61020, Note_on_c, 9, 35, 47
5, 61028, Note_on_c, 9, 35, 0
5, 61031, Note_on_c, 9, 59, 91
5, 61032, Note_on_c, 9, 44, 0
5, 61287, Note_on_c, 9, 59, 0
5, 61390, Note_on_c, 9, 59, 50
5, 61396, Note_on_c, 9, 35, 47
5, 61408, Note_on_c, 9, 35, 0
5, 61600, Note_on_c, 9, 59, 0
5, 61770, Note_on_c, 9, 59, 83
5, 61780, Note_on_c, 9, 44, 82
5, 61788, Note_on_c, 9, 35, 47
5, 61792, Note_on_c, 9, 35, 0
5, 61792, Note_on_c, 9, 44, 0
5, 61994, Note_on_c, 9, 59, 0
5, 62153, Note_on_c, 9, 59, 73
5, 62168, Note_on_c, 9, 35, 47
5, 62172, Note_on_c, 9, 35, 0
5, 62372, Note_on_c, 9, 59, 0
5, 62548, Note_on_c, 9, 35, 47
5, 62552, Note_on_c, 9, 44, 82
5, 62556, Note_on_c, 9, 35, 0
5, 62557, Note_on_c, 9, 59, 80
5, 62560, Note_on_c, 9, 44, 0
5, 62725, Note_on_c, 9, 59, 0
5, 62811, Note_on_c, 9, 40, 33
5, 62843, Note_on_c, 9, 59, 32
5, 62850, Note_on_c, 9, 40, 0
5, 62936, Note_on_c, 9, 35, 47
5, 62948, Note_on_c, 9, 35, 0
5, 62958, Note_on_c, 9, 40, 20
5, 63036, Note_on_c, 9, 59, 0
5, 63146, Note_on_c, 9, 40, 0
5, 63293, Note_on_c, 9, 59, 82
5, 63316, Note_on_c, 9, 35, 47
5, 63320, Note_on_c, 9, 44, 82
5, 63324, Note_on_c, 9, 44, 0
5, 63328, Note_on_c, 9, 35, 0
5, 63520, Note_on_c, 9, 59, 0
5, 63594, Note_on_c, 9, 59, 66
5, 63629, Note_on_c, 9, 59, 0
5, 63700, Note_on_c, 9, 35, 47
5, 63707, Note_on_c, 9, 59, 71
5, 63708, Note_on_c, 9, 35, 0
5, 63926, Note_on_c, 9, 59, 0
5, 63957, Note_on_c, 9, 40, 50
5, 63991, Note_on_c, 9, 40, 0
5, 64058, Note_on_c, 9, 37, 49
5, 64072, Note_on_c, 9, 59, 89
5, 64084, Note_on_c, 9, 46, 62
5, 64088, Note_on_c, 9, 35, 47
5, 64096, Note_on_c, 9, 35, 0
5, 64096, Note_on_c, 9, 46, 0
5, 64129, Note_on_c, 9, 37, 0
5, 64280, Note_on_c, 9, 59, 0
5, 64405, Note_on_c, 9, 59, 73
5, 64472, Note_on_c, 9, 35, 47
5, 64480, Note_on_c, 9, 35, 0
5, 64488, Note_on_c, 9, 59, 0
5, 64523, Note_on_c, 9, 59, 36
5, 64612, Note_on_c, 9, 59, 0
5, 64814, Note_on_c, 9, 59, 89
5, 64856, Note_on_c, 9, 35, 47
5, 64856, Note_on_c, 9, 44, 82
5, 64872, Note_on_c, 9, 44, 0
5, 64872, Note_on_c, 9, 35, 0
5, 65036, Note_on_c, 9, 59, 0
5, 65201, Note_on_c, 9, 59, 79
5, 65240, Note_on_c, 9, 35, 47
5, 65248, Note_on_c, 9, 35, 0
5, 65369, Note_on_c, 9, 59, 0
5, 65465, Note_on_c, 9, 40, 49
5, 65502, Note_on_c, 9, 40, 0
5, 65600, Note_on_c, 9, 59, 80
5, 65624, Note_on_c, 9, 35, 47
5, 65624, Note_on_c, 9, 44, 82
5, 65636, Note_on_c, 9, 35, 0
5, 65640, Note_on_c, 9, 44, 0
5, 65775, Note_on_c, 9, 59, 0
5, 65884, Note_on_c, 9, 59, 51
5, 65952, Note_on_c, 9, 59, 0
5, 66003, Note_on_c, 9, 59, 64
5, 66008, Note_on_c, 9, 35, 47
5, 66016, Note_on_c, 9, 35, 0
5, 66215, Note_on_c, 9, 59, 0
5, 66374, Note_on_c, 9, 59, 82
5, 66392, Note_on_c, 9, 35, 47
5, 66392, Note_on_c, 9, 44, 82
5, 66400, Note_on_c, 9, 44, 0
5, 66404, Note_on_c, 9, 35, 0
5, 66547, Note_on_c, 9, 59, 0
5, 66768, Note_on_c, 9, 59, 81
5, 66776, Note_on_c, 9, 35, 47
5, 66784, Note_on_c, 9, 35, 0
5, 66924, Note_on_c, 9, 59, 0
5, 67160, Note_on_c, 9, 35, 47
5, 67160, Note_on_c, 9, 44, 82
5, 67172, Note_on_c, 9, 44, 0
5, 67172, Note_on_c, 9, 35, 0
5, 67277, Note_on_c, 9, 59, 81
5, 67277, Note_on_c, 9, 59, 0
5, 67423, Note_on_c, 9, 59, 60
5, 67468, Note_on_c, 9, 59, 0
5, 67542, Note_on_c, 9, 59, 79
5, 67544, Note_on_c, 9, 35, 47
5, 67548, Note_on_c, 9, 35, 0
5, 67673, Note_on_c, 9, 59, 0
5, 67704, Note_on_c, 9, 40, 44
5, 67752, Note_on_c, 9, 40, 0
5, 67840, Note_on_c, 9, 40, 22
5, 67868, Note_on_c, 9, 40, 0
5, 67926, Note_on_c, 9, 59, 87
5, 67928, Note_on_c, 9, 44, 82
5, 67932, Note_on_c, 9, 40, 54
5, 67932, Note_on_c, 9, 35, 47
5, 67936, Note_on_c, 9, 35, 0
5, 67936, Note_on_c, 9, 44, 0
5, 67963, Note_on_c, 9, 40, 0
5, 68037, Note_on_c, 9, 59, 0
5, 68205, Note_on_c, 9, 59, 62
5, 68261, Note_on_c, 9, 59, 0
5, 68308, Note_on_c, 9, 35, 47
5, 68320, Note_on_c, 9, 35, 0
5, 68340, Note_on_c, 9, 59, 80
5, 68421, Note_on_c, 9, 59, 0
5, 68696, Note_on_c, 9, 35, 47
5, 68700, Note_on_c, 9, 44, 82
5, 68708, Note_on_c, 9, 44, 0
5, 68712, Note_on_c, 9, 35, 0
5, 68717, Note_on_c, 9, 59, 92
5, 68837, Note_on_c, 9, 59, 0
5, 68984, Note_on_c, 9, 40, 31
5, 69020, Note_on_c, 9, 40, 0
5, 69076, Note_on_c, 9, 35, 47
5, 69084, Note_on_c, 9, 35, 0
5, 69099, Note_on_c, 9, 36, 51
5, 69111, Note_on_c, 9, 59, 78
5, 69135, Note_on_c, 9, 36, 0
5, 69183, Note_on_c, 9, 59, 0
5, 69236, Note_on_c, 9, 36, 26
5, 69300, Note_on_c, 9, 36, 0
5, 69374, Note_on_c, 9, 36, 66
5, 69400, Note_on_c, 9, 59, 61
5, 69435, Note_on_c, 9, 59, 0
5, 69441, Note_on_c, 9, 36, 0
5, 69464, Note_on_c, 9, 35, 47
5, 69464, Note_on_c, 9, 44, 82
5, 69472, Note_on_c, 9, 44, 0
5, 69472, Note_on_c, 9, 35, 0
5, 69500, Note_on_c, 9, 59, 79
5, 69744, Note_on_c, 9, 59, 0
5, 69844, Note_on_c, 9, 35, 47
5, 69852, Note_on_c, 9, 35, 0
5, 69889, Note_on_c, 9, 59, 76
5, 69927, Note_on_c, 9, 59, 0
5, 70139, Note_on_c, 9, 59, 71
5, 70143, Note_on_c, 9, 40, 62
5, 70193, Note_on_c, 9, 59, 0
5, 70201, Note_on_c, 9, 40, 0
5, 70232, Note_on_c, 9, 35, 47
5, 70232, Note_on_c, 9, 46, 62
5, 70248, Note_on_c, 9, 46, 0
5, 70248, Note_on_c, 9, 35, 0
5, 70265, Note_on_c, 9, 59, 92
5, 70288, Note_on_c, 9, 36, 59
5, 70316, Note_on_c, 9, 36, 0
5, 70491, Note_on_c, 9, 59, 0
5, 70515, Note_on_c, 9, 57, 78
5, 70522, Note_on_c, 9, 36, 87
5, 70548, Note_on_c, 9, 57, 0
5, 70596, Note_on_c, 9, 36, 0
5, 70620, Note_on_c, 9, 35, 40
5, 70636, Note_on_c, 9, 35, 0
5, 70644, Note_on_c, 9, 57, 50
5, 70652, Note_on_c, 9, 59, 52
5, 70704, Note_on_c, 9, 57, 0
5, 70753, Note_on_c, 9, 59, 0
5, 70905, Note_on_c, 9, 59, 57
5, 70951, Note_on_c, 9, 59, 0
5, 71004, Note_on_c, 9, 35, 47
5, 71004, Note_on_c, 9, 44, 82
5, 71020, Note_on_c, 9, 44, 0
5, 71020, Note_on_c, 9, 35, 0
5, 71037, Note_on_c, 9, 59, 83
5, 71268, Note_on_c, 9, 59, 0
5, 71388, Note_on_c, 9, 35, 47
5, 71396, Note_on_c, 9, 35, 0
5, 71406, Note_on_c, 9, 59, 56
5, 71479, Note_on_c, 9, 59, 0
5, 71671, Note_on_c, 9, 40, 55
5, 71675, Note_on_c, 9, 59, 54
5, 71709, Note_on_c, 9, 40, 0
5, 71717, Note_on_c, 9, 59, 0
5, 71764, Note_on_c, 9, 35, 47
5, 71772, Note_on_c, 9, 44, 82
5, 71776, Note_on_c, 9, 35, 0
5, 71780, Note_on_c, 9, 44, 0
5, 71790, Note_on_c, 9, 59, 80
5, 71803, Note_on_c, 9, 57, 78
5, 71803, Note_on_c, 9, 36, 79
5, 71823, Note_on_c, 9, 57, 0
5, 71859, Note_on_c, 9, 36, 0
5, 72072, Note_on_c, 9, 59, 0
5, 72152, Note_on_c, 9, 35, 47
5, 72156, Note_on_c, 9, 35, 0
5, 72175, Note_on_c, 9, 59, 65
5, 72359, Note_on_c, 9, 59, 0
5, 72532, Note_on_c, 9, 35, 47
5, 72540, Note_on_c, 9, 35, 0
5, 72540, Note_on_c, 9, 44, 82
5, 72544, Note_on_c, 9, 44, 0
5, 72722, Note_on_c, 9, 59, 79
5, 72784, Note_on_c, 9, 40, 31
5, 72786, Note_on_c, 9, 59, 0
5, 72819, Note_on_c, 9, 40, 0
5, 72920, Note_on_c, 9, 35, 47
5, 72924, Note_on_c, 9, 35, 0
5, 72924, Note_on_c, 9, 59, 74
5, 72947, Note_on_c, 9, 40, 26
5, 72981, Note_on_c, 9, 40, 0
5, 73032, Note_on_c, 9, 40, 68
5, 73090, Note_on_c, 9, 40, 0
5, 73091, Note_on_c, 9, 59, 0
5, 73147, Note_on_c, 9, 40, 76
5, 73189, Note_on_c, 9, 59, 58
5, 73213, Note_on_c, 9, 40, 0
5, 73242, Note_on_c, 9, 59, 0
5, 73308, Note_on_c, 9, 35, 47
5, 73308, Note_on_c, 9, 44, 82
5, 73314, Note_on_c, 9, 59, 81
5, 73320, Note_on_c, 9, 44, 0
5, 73320, Note_on_c, 9, 35, 0
5, 73596, Note_on_c, 9, 59, 0
5, 73684, Note_on_c, 9, 35, 47
5, 73696, Note_on_c, 9, 35, 0
5, 73698, Note_on_c, 9, 59, 67
5, 73867, Note_on_c, 9, 59, 0
5, 74068, Note_on_c, 9, 44, 82
5, 74076, Note_on_c, 9, 59, 73
5, 74076, Note_on_c, 9, 35, 47
5, 74080, Note_on_c, 9, 35, 0
5, 74080, Note_on_c, 9, 44, 0
5, 74250, Note_on_c, 9, 59, 0
5, 74342, Note_on_c, 9, 59, 54
5, 74428, Note_on_c, 9, 59, 0
5, 74456, Note_on_c, 9, 35, 47
5, 74464, Note_on_c, 9, 35, 0
5, 74483, Note_on_c, 9, 59, 72
5, 74642, Note_on_c, 9, 59, 0
5, 74836, Note_on_c, 9, 35, 47
5, 74840, Note_on_c, 9, 44, 82
5, 74844, Note_on_c, 9, 35, 0
5, 74848, Note_on_c, 9, 44, 0
5, 74871, Note_on_c, 9, 59, 76
5, 74992, Note_on_c, 9, 59, 0
5, 75224, Note_on_c, 9, 35, 47
5, 75232, Note_on_c, 9, 35, 0
5, 75246, Note_on_c, 9, 59, 62
5, 75363, Note_on_c, 9, 59, 0
5, 75397, Note_on_c, 9, 40, 29
5, 75437, Note_on_c, 9, 40, 0
5, 75604, Note_on_c, 9, 35, 47
5, 75612, Note_on_c, 9, 44, 82
5, 75616, Note_on_c, 9, 44, 0
5, 75616, Note_on_c, 9, 35, 0
5, 75645, Note_on_c, 9, 59, 80
5, 75667, Note_on_c, 9, 40, 34
5, 75704, Note_on_c, 9, 40, 0
5, 75772, Note_on_c, 9, 59, 0
5, 75897, Note_on_c, 9, 40, 46
5, 75931, Note_on_c, 9, 40, 0
5, 75988, Note_on_c, 9, 35, 47
5, 75996, Note_on_c, 9, 35, 0
5, 76040, Note_on_c, 9, 59, 49
5, 76097, Note_on_c, 9, 59, 0
5, 76168, Note_on_c, 9, 40, 38
5, 76211, Note_on_c, 9, 40, 0
5, 76286, Note_on_c, 9, 40, 51
5, 76319, Note_on_c, 9, 40, 0
5, 76372, Note_on_c, 9, 35, 47
5, 76372, Note_on_c, 9, 44, 82
5, 76384, Note_on_c, 9, 44, 0
5, 76384, Note_on_c, 9, 35, 0
5, 76404, Note_on_c, 9, 36, 72
5, 76404, Note_on_c, 9, 59, 80
5, 76485, Note_on_c, 9, 36, 0
5, 76536, Note_on_c, 9, 59, 0
5, 76741, Note_on_c, 9, 40, 26
5, 76760, Note_on_c, 9, 35, 47
5, 76764, Note_on_c, 9, 35, 0
5, 76776, Note_on_c, 9, 40, 0
5, 76785, Note_on_c, 9, 59, 56
5, 76841, Note_on_c, 9, 59, 0
5, 76848, Note_on_c, 9, 40, 48
5, 76888, Note_on_c, 9, 40, 0
5, 76990, Note_on_c, 9, 36, 57
5, 77065, Note_on_c, 9, 36, 0
5, 77140, Note_on_c, 9, 35, 47
5, 77140, Note_on_c, 9, 44, 82
5, 77156, Note_on_c, 9, 44, 0
5, 77156, Note_on_c, 9, 35, 0
5, 77159, Note_on_c, 9, 59, 78
5, 77256, Note_on_c, 9, 59, 0
5, 77415, Note_on_c, 9, 59, 60
5, 77462, Note_on_c, 9, 59, 0
5, 77528, Note_on_c, 9, 35, 47
5, 77536, Note_on_c, 9, 35, 0
5, 77541, Note_on_c, 9, 59, 73
5, 77638, Note_on_c, 9, 59, 0
5, 77908, Note_on_c, 9, 44, 82
5, 77912, Note_on_c, 9, 35, 47
5, 77924, Note_on_c, 9, 35, 0
5, 77927, Note_on_c, 9, 59, 78
5, 77928, Note_on_c, 9, 44, 0
5, 78017, Note_on_c, 9, 59, 0
5, 78182, Note_on_c, 9, 59, 60
5, 78234, Note_on_c, 9, 59, 0
5, 78296, Note_on_c, 9, 35, 47
5, 78300, Note_on_c, 9, 35, 0
5, 78308, Note_on_c, 9, 59, 70
5, 78438, Note_on_c, 9, 59, 0
5, 78680, Note_on_c, 9, 35, 47
5, 78680, Note_on_c, 9, 44, 82
5, 78681, Note_on_c, 9, 59, 82
5, 78696, Note_on_c, 9, 44, 0
5, 78700, Note_on_c, 9, 35, 0
5, 78794, Note_on_c, 9, 59, 0
5, 78983, Note_on_c, 9, 59, 48
5, 79022, Note_on_c, 9, 59, 0
5, 79068, Note_on_c, 9, 35, 47
5, 79072, Note_on_c, 9, 35, 0
5, 79089, Note_on_c, 9, 59, 71
5, 79197, Note_on_c, 9, 59, 0
5, 79448, Note_on_c, 9, 35, 47
5, 79448, Note_on_c, 9, 44, 82
5, 79460, Note_on_c, 9, 44, 0
5, 79464, Note_on_c, 9, 35, 0
5, 79472, Note_on_c, 9, 37, 62
5, 79477, Note_on_c, 9, 59, 83
5, 79554, Note_on_c, 9, 37, 0
5, 79583, Note_on_c, 9, 59, 0
5, 79815, Note_on_c, 9, 59, 64
5, 79832, Note_on_c, 9, 35, 47
5, 79840, Note_on_c, 9, 35, 0
5, 79856, Note_on_c, 9, 59, 0
5, 79941, Note_on_c, 9, 59, 72
5, 80018, Note_on_c, 9, 59, 0
5, 80212, Note_on_c, 9, 44, 82
5, 80224, Note_on_c, 9, 44, 0
5, 80224, Note_on_c, 9, 35, 47
5, 80224, Note_on_c, 9, 35, 0
5, 80275, Note_on_c, 9, 59, 90
5, 80478, Note_on_c, 9, 59, 0
5, 80596, Note_on_c, 9, 35, 47
5, 80608, Note_on_c, 9, 35, 0
5, 80618, Note_on_c, 9, 40, 22
5, 80646, Note_on_c, 9, 40, 0
5, 80655, Note_on_c, 9, 59, 36
5, 80704, Note_on_c, 9, 59, 0
5, 80724, Note_on_c, 9, 40, 47
5, 80764, Note_on_c, 9, 40, 0
5, 80801, Note_on_c, 9, 59, 74
5, 80952, Note_on_c, 9, 59, 0
5, 80984, Note_on_c, 9, 35, 47
5, 80988, Note_on_c, 9, 46, 62
5, 81000, Note_on_c, 9, 46, 0
5, 81000, Note_on_c, 9, 35, 0
5, 81028, Note_on_c, 9, 40, 55
5, 81061, Note_on_c, 9, 40, 0
5, 81072, Note_on_c, 9, 59, 82
5, 81237, Note_on_c, 9, 59, 0
5, 81275, Note_on_c, 9, 36, 58
5, 81309, Note_on_c, 9, 36, 0
5, 81368, Note_on_c, 9, 35, 47
5, 81376, Note_on_c, 9, 35, 0
5, 81397, Note_on_c, 9, 59, 78
5, 81626, Note_on_c, 9, 59, 0
5, 81748, Note_on_c, 9, 35, 47
5, 81756, Note_on_c, 9, 44, 82
5, 81760, Note_on_c, 9, 44, 0
5, 81764, Note_on_c, 9, 35, 0
5, 81778, Note_on_c, 9, 59, 82
5, 81916, Note_on_c, 9, 59, 0
5, 82058, Note_on_c, 9, 59, 58
5, 82104, Note_on_c, 9, 59, 0
5, 82136, Note_on_c, 9, 35, 47
5, 82140, Note_on_c, 9, 35, 0
5, 82174, Note_on_c, 9, 59, 81
5, 82299, Note_on_c, 9, 40, 40
5, 82343, Note_on_c, 9, 59, 0
5, 82350, Note_on_c, 9, 40, 0
5, 82410, Note_on_c, 9, 40, 33
5, 82470, Note_on_c, 9, 40, 0
5, 82524, Note_on_c, 9, 35, 47
5, 82524, Note_on_c, 9, 44, 82
5, 82536, Note_on_c, 9, 44, 0
5, 82536, Note_on_c, 9, 35, 0
5, 82538, Note_on_c, 9, 40, 47
5, 82544, Note_on_c, 9, 59, 88
5, 82564, Note_on_c, 9, 60, 65
5, 82581, Note_on_c, 9, 40, 0
5, 82599, Note_on_c, 9, 60, 0
5, 82660, Note_on_c, 9, 59, 0
5, 82780, Note_on_c, 9, 46, 97
5, 82814, Note_on_c, 9, 40, 49
5, 82818, Note_on_c, 9, 46, 0
5, 82843, Note_on_c, 9, 40, 0
5, 82908, Note_on_c, 9, 35, 40
5, 82915, Note_on_c, 9, 59, 94
5, 82924, Note_on_c, 9, 35, 0
5, 83199, Note_on_c, 9, 59, 0
5, 83292, Note_on_c, 9, 35, 47
5, 83292, Note_on_c, 9, 44, 82
5, 83308, Note_on_c, 9, 44, 0
5, 83308, Note_on_c, 9, 35, 0
5, 83314, Note_on_c, 9, 59, 59
5, 83473, Note_on_c, 9, 59, 0
5, 83676, Note_on_c, 9, 35, 47
5, 83692, Note_on_c, 9, 35, 0
5, 83697, Note_on_c, 9, 59, 74
5, 83820, Note_on_c, 9, 59, 0
5, 83844, Note_on_c, 9, 40, 44
5, 83886, Note_on_c, 9, 40, 0
5, 84005, Note_on_c, 9, 40, 54
5, 84006, Note_on_c, 9, 40, 0
5, 84052, Note_on_c, 9, 35, 47
5, 84060, Note_on_c, 9, 44, 82
5, 84064, Note_on_c, 9, 35, 0
5, 84068, Note_on_c, 9, 44, 0
5, 84077, Note_on_c, 9, 59, 82
5, 84105, Note_on_c, 9, 36, 49
5, 84158, Note_on_c, 9, 36, 0
5, 84238, Note_on_c, 9, 59, 0
5, 84344, Note_on_c, 9, 59, 58
5, 84422, Note_on_c, 9, 59, 0
5, 84431, Note_on_c, 9, 40, 36
5, 84436, Note_on_c, 9, 35, 47
5, 84444, Note_on_c, 9, 35, 0
5, 84459, Note_on_c, 9, 59, 62
5, 84470, Note_on_c, 9, 40, 0
5, 84546, Note_on_c, 9, 40, 39
5, 84611, Note_on_c, 9, 40, 0
5, 84656, Note_on_c, 9, 59, 0
5, 84666, Note_on_c, 9, 40, 57
5, 84695, Note_on_c, 9, 40, 0
5, 84799, Note_on_c, 9, 36, 42
5, 84820, Note_on_c, 9, 35, 47
5, 84824, Note_on_c, 9, 35, 0
5, 84828, Note_on_c, 9, 44, 82
5, 84828, Note_on_c, 9, 44, 0
5, 84831, Note_on_c, 9, 59, 81
5, 84839, Note_on_c, 9, 36, 0
5, 85003, Note_on_c, 9, 59, 0
5, 85208, Note_on_c, 9, 35, 47
5, 85210, Note_on_c, 9, 59, 68
5, 85212, Note_on_c, 9, 35, 0
5, 85320, Note_on_c, 9, 59, 0
5, 85474, Note_on_c, 9, 59, 70
5, 85551, Note_on_c, 9, 59, 0
5, 85588, Note_on_c, 9, 46, 62
5, 85592, Note_on_c, 9, 35, 47
5, 85598, Note_on_c, 9, 59, 84
5, 85604, Note_on_c, 9, 35, 0
5, 85604, Note_on_c, 9, 46, 0
5, 85961, Note_on_c, 9, 59, 0
5, 85961, Note_on_c, 9, 59, 60
5, 85972, Note_on_c, 9, 35, 47
5, 85980, Note_on_c, 9, 35, 0
5, 86064, Note_on_c, 9, 59, 0
5, 86246, Note_on_c, 9, 59, 61
5, 86307, Note_on_c, 9, 59, 0
5, 86356, Note_on_c, 9, 44, 82
5, 86364, Note_on_c, 9, 44, 0
5, 86364, Note_on_c, 9, 35, 47
5, 86364, Note_on_c, 9, 35, 0
5, 86371, Note_on_c, 9, 59, 90
5, 86659, Note_on_c, 9, 59, 0
5, 86728, Note_on_c, 9, 40, 51
5, 86744, Note_on_c, 9, 35, 47
5, 86752, Note_on_c, 9, 35, 0
5, 86769, Note_on_c, 9, 40, 0
5, 86769, Note_on_c, 9, 59, 32
5, 86814, Note_on_c, 9, 59, 0
5, 86844, Note_on_c, 9, 40, 55
5, 86893, Note_on_c, 9, 40, 0
5, 86988, Note_on_c, 9, 59, 57
5, 87051, Note_on_c, 9, 59, 0
5, 87124, Note_on_c, 9, 35, 47
5, 87127, Note_on_c, 9, 59, 89
5, 87128, Note_on_c, 9, 44, 82
5, 87132, Note_on_c, 9, 35, 0
5, 87136, Note_on_c, 9, 44, 0
5, 87421, Note_on_c, 9, 59, 0
5, 87512, Note_on_c, 9, 35, 47
5, 87520, Note_on_c, 9, 35, 0
5, 87545, Note_on_c, 9, 59, 58
5, 87784, Note_on_c, 9, 59, 0
5, 87892, Note_on_c, 9, 35, 47
5, 87900, Note_on_c, 9, 44, 82
5, 87908, Note_on_c, 9, 44, 0
5, 87908, Note_on_c, 9, 35, 0
5, 87919, Note_on_c, 9, 59, 72
5, 88122, Note_on_c, 9, 59, 0
5, 88276, Note_on_c, 9, 35, 47
5, 88288, Note_on_c, 9, 35, 0
5, 88308, Note_on_c, 9, 59, 70
5, 88518, Note_on_c, 9, 59, 0
5, 88537, Note_on_c, 9, 40, 53
5, 88583, Note_on_c, 9, 40, 0
5, 88660, Note_on_c, 9, 44, 82
5, 88664, Note_on_c, 9, 35, 47
5, 88672, Note_on_c, 9, 35, 0
5, 88672, Note_on_c, 9, 44, 0
5, 88683, Note_on_c, 9, 59, 74
5, 88843, Note_on_c, 9, 59, 0
5, 88942, Note_on_c, 9, 37, 58
5, 88951, Note_on_c, 9, 59, 47
5, 89002, Note_on_c, 9, 37, 0
5, 89003, Note_on_c, 9, 59, 0
5, 89048, Note_on_c, 9, 35, 47
5, 89052, Note_on_c, 9, 35, 0
5, 89056, Note_on_c, 9, 57, 44
5, 89074, Note_on_c, 9, 59, 78
5, 89097, Note_on_c, 9, 36, 51
5, 89099, Note_on_c, 9, 57, 0
5, 89147, Note_on_c, 9, 36, 0
5, 89302, Note_on_c, 9, 59, 0
5, 89428, Note_on_c, 9, 35, 47
5, 89428, Note_on_c, 9, 44, 82
5, 89448, Note_on_c, 9, 35, 0
5, 89452, Note_on_c, 9, 44, 0
5, 89456, Note_on_c, 9, 59, 78
5, 89619, Note_on_c, 9, 59, 0
5, 89731, Note_on_c, 9, 59, 54
5, 89770, Note_on_c, 9, 59, 0
5, 89812, Note_on_c, 9, 35, 47
5, 89820, Note_on_c, 9, 35, 0
5, 89830, Note_on_c, 9, 59, 77
5, 89979, Note_on_c, 9, 59, 0
5, 90200, Note_on_c, 9, 35, 47
5, 90200, Note_on_c, 9, 44, 82
5, 90211, Note_on_c, 9, 59, 80
5, 90216, Note_on_c, 9, 44, 0
5, 90216, Note_on_c, 9, 35, 0
5, 90394, Note_on_c, 9, 59, 0
5, 90514, Note_on_c, 9, 59, 55
5, 90550, Note_on_c, 9, 59, 0
5, 90584, Note_on_c, 9, 35, 47
5, 90588, Note_on_c, 9, 35, 0
5, 90608, Note_on_c, 9, 59, 69
5, 90692, Note_on_c, 9, 59, 0
5, 90848, Note_on_c, 9, 40, 36
5, 90848, Note_on_c, 9, 35, 63
5, 90887, Note_on_c, 9, 40, 0
5, 90905, Note_on_c, 9, 35, 0
5, 90953, Note_on_c, 9, 40, 47
5, 90968, Note_on_c, 9, 35, 47
5, 90968, Note_on_c, 9, 44, 82
5, 90969, Note_on_c, 9, 59, 85
5, 90984, Note_on_c, 9, 44, 0
5, 90984, Note_on_c, 9, 35, 0
5, 91038, Note_on_c, 9, 40, 0
5, 91132, Note_on_c, 9, 59, 0
5, 91242, Note_on_c, 9, 40, 48
5, 91277, Note_on_c, 9, 40, 0
5, 91352, Note_on_c, 9, 35, 47
5, 91356, Note_on_c, 9, 35, 0
5, 91363, Note_on_c, 9, 59, 80
5, 91526, Note_on_c, 9, 59, 0
5, 91740, Note_on_c, 9, 35, 47
5, 91740, Note_on_c, 9, 44, 82
5, 91748, Note_on_c, 9, 44, 0
5, 91752, Note_on_c, 9, 35, 0
5, 91756, Note_on_c, 9, 59, 81
5, 91912, Note_on_c, 9, 59, 0
5, 92120, Note_on_c, 9, 35, 47
5, 92128, Note_on_c, 9, 35, 0
5, 92136, Note_on_c, 9, 59, 75
5, 92295, Note_on_c, 9, 59, 0
5, 92507, Note_on_c, 9, 59, 77
5, 92508, Note_on_c, 9, 35, 47
5, 92508, Note_on_c, 9, 44, 82
5, 92512, Note_on_c, 9, 35, 0
5, 92516, Note_on_c, 9, 44, 0
5, 92661, Note_on_c, 9, 59, 0
5, 92788, Note_on_c, 9, 35, 60
5, 92790, Note_on_c, 9, 59, 55
5, 92836, Note_on_c, 9, 59, 0
5, 92883, Note_on_c, 9, 35, 0
5, 92901, Note_on_c, 9, 59, 80
5, 92942, Note_on_c, 9, 35, 50
5, 93061, Note_on_c, 9, 59, 0
5, 93132, Note_on_c, 9, 35, 0
5, 93168, Note_on_c, 9, 36, 55
5, 93181, Note_on_c, 9, 35, 47
5, 93196, Note_on_c, 9, 36, 0
5, 93246, Note_on_c, 9, 35, 0
5, 93268, Note_on_c, 9, 35, 47
5, 93272, Note_on_c, 9, 44, 82
5, 93276, Note_on_c, 9, 44, 0
5, 93277, Note_on_c, 9, 59, 75
5, 93280, Note_on_c, 9, 35, 0
5, 93316, Note_on_c, 9, 36, 66
5, 93350, Note_on_c, 9, 36, 0
5, 93441, Note_on_c, 9, 59, 0
5, 93535, Note_on_c, 9, 59, 46
5, 93545, Note_on_c, 9, 36, 76
5, 93598, Note_on_c, 9, 59, 0
5, 93629, Note_on_c, 9, 36, 0
5, 93656, Note_on_c, 9, 35, 47
5, 93668, Note_on_c, 9, 35, 0
5, 93673, Note_on_c, 9, 59, 77
5, 93761, Note_on_c, 9, 59, 0
5, 93924, Note_on_c, 9, 59, 74
5, 93977, Note_on_c, 9, 59, 0
5, 94032, Note_on_c, 9, 59, 88
5, 94036, Note_on_c, 9, 35, 47
5, 94044, Note_on_c, 9, 44, 82
5, 94044, Note_on_c, 9, 44, 0
5, 94048, Note_on_c, 9, 35, 0
5, 94280, Note_on_c, 9, 59, 0
5, 94420, Note_on_c, 9, 35, 47
5, 94428, Note_on_c, 9, 35, 0
5, 94438, Note_on_c, 9, 59, 66
5, 94537, Note_on_c, 9, 59, 0
5, 94681, Note_on_c, 9, 59, 50
5, 94721, Note_on_c, 9, 59, 0
5, 94808, Note_on_c, 9, 35, 47
5, 94808, Note_on_c, 9, 46, 62
5, 94811, Note_on_c, 9, 59, 74
5, 94816, Note_on_c, 9, 46, 0
5, 94816, Note_on_c, 9, 35, 0
5, 95021, Note_on_c, 9, 59, 0
5, 95186, Note_on_c, 9, 59, 62
5, 95196, Note_on_c, 9, 35, 40
5, 95204, Note_on_c, 9, 35, 0
5, 95238, Note_on_c, 9, 59, 0
5, 95469, Note_on_c, 9, 59, 61
5, 95509, Note_on_c, 9, 59, 0
5, 95580, Note_on_c, 9, 44, 82
5, 95588, Note_on_c, 9, 35, 47
5, 95592, Note_on_c, 9, 59, 80
5, 95596, Note_on_c, 9, 35, 0
5, 95596, Note_on_c, 9, 44, 0
5, 95829, Note_on_c, 9, 59, 0
5, 95964, Note_on_c, 9, 35, 47
5, 95980, Note_on_c, 9, 35, 0
5, 96222, Note_on_c, 9, 59, 69
5, 96309, Note_on_c, 9, 59, 0
5, 96340, Note_on_c, 9, 35, 47
5, 96352, Note_on_c, 9, 35, 0
5, 96352, Note_on_c, 9, 44, 82
5, 96356, Note_on_c, 9, 44, 0
5, 96364, Note_on_c, 9, 59, 90
5, 96622, Note_on_c, 9, 59, 0
5, 96728, Note_on_c, 9, 35, 47
5, 96732, Note_on_c, 9, 35, 0
5, 96740, Note_on_c, 9, 59, 68
5, 96937, Note_on_c, 9, 59, 0
5, 97094, Note_on_c, 9, 59, 76
5, 97112, Note_on_c, 9, 35, 47
5, 97116, Note_on_c, 9, 35, 0
5, 97116, Note_on_c, 9, 44, 82
5, 97124, Note_on_c, 9, 44, 0
5, 97295, Note_on_c, 9, 59, 0
5, 97494, Note_on_c, 9, 59, 72
5, 97500, Note_on_c, 9, 35, 47
5, 97504, Note_on_c, 9, 35, 0
5, 97672, Note_on_c, 9, 59, 0
5, 97862, Note_on_c, 9, 59, 76
5, 97880, Note_on_c, 9, 35, 47
5, 97880, Note_on_c, 9, 44, 82
5, 97892, Note_on_c, 9, 44, 0
5, 97892, Note_on_c, 9, 35, 0
5, 97898, Note_on_c, 9, 51, 48
5, 97996, Note_on_c, 9, 51, 0
5, 98051, Note_on_c, 9, 59, 0
5, 98138, Note_on_c, 9, 51, 83
5, 98157, Note_on_c, 9, 40, 24
5, 98208, Note_on_c, 9, 51, 0
5, 98225, Note_on_c, 9, 40, 0
5, 98264, Note_on_c, 9, 35, 47
5, 98268, Note_on_c, 9, 35, 0
5, 98274, Note_on_c, 9, 59, 78
5, 98323, Note_on_c, 9, 40, 22
5, 98369, Note_on_c, 9, 40, 0
5, 98430, Note_on_c, 9, 59, 0
5, 98541, Note_on_c, 9, 40, 48
5, 98617, Note_on_c, 9, 40, 0
5, 98642, Note_on_c, 9, 59, 73
5, 98644, Note_on_c, 9, 44, 82
5, 98656, Note_on_c, 9, 35, 47
5, 98656, Note_on_c, 9, 35, 0
5, 98660, Note_on_c, 9, 44, 0
5, 98812, Note_on_c, 9, 59, 0
5, 99032, Note_on_c, 9, 35, 47
5, 99036, Note_on_c, 9, 35, 0
5, 99046, Note_on_c, 9, 59, 73
5, 99197, Note_on_c, 9, 59, 0
5, 99416, Note_on_c, 9, 35, 47
5, 99420, Note_on_c, 9, 35, 0
5, 99420, Note_on_c, 9, 44, 82
5, 99424, Note_on_c, 9, 44, 0
5, 99424, Note_on_c, 9, 59, 73
5, 99581, Note_on_c, 9, 59, 0
5, 99688, Note_on_c, 9, 59, 46
5, 99738, Note_on_c, 9, 59, 0
5, 99800, Note_on_c, 9, 35, 47
5, 99804, Note_on_c, 9, 35, 0
5, 99817, Note_on_c, 9, 59, 73
5, 100008, Note_on_c, 9, 59, 0
5, 100180, Note_on_c, 9, 35, 47
5, 100188, Note_on_c, 9, 44, 82
5, 100188, Note_on_c, 9, 44, 0
5, 100192, Note_on_c, 9, 35, 0
5, 100195, Note_on_c, 9, 59, 77
5, 100362, Note_on_c, 9, 59, 0
5, 100564, Note_on_c, 9, 35, 47
5, 100572, Note_on_c, 9, 35, 0
5, 100573, Note_on_c, 9, 59, 78
5, 100753, Note_on_c, 9, 59, 0
5, 100943, Note_on_c, 9, 59, 80
5, 100948, Note_on_c, 9, 44, 82
5, 100952, Note_on_c, 9, 35, 47
5, 100964, Note_on_c, 9, 35, 0
5, 100964, Note_on_c, 9, 44, 0
5, 101126, Note_on_c, 9, 59, 0
5, 101243, Note_on_c, 9, 59, 63
5, 101320, Note_on_c, 9, 59, 0
5, 101344, Note_on_c, 9, 59, 33
5, 101452, Note_on_c, 9, 59, 0
5, 101689, Note_on_c, 9, 59, 84
5, 101724, Note_on_c, 9, 35, 47
5, 101724, Note_on_c, 9, 44, 82
5, 101728, Note_on_c, 9, 44, 0
5, 101732, Note_on_c, 9, 35, 0
5, 101871, Note_on_c, 9, 59, 0
5, 102093, Note_on_c, 9, 59, 79
5, 102108, Note_on_c, 9, 35, 47
5, 102124, Note_on_c, 9, 35, 0
5, 102254, Note_on_c, 9, 59, 0
5, 102488, Note_on_c, 9, 35, 47
5, 102489, Note_on_c, 9, 59, 79
5, 102492, Note_on_c, 9, 44, 82
5, 102496, Note_on_c, 9, 35, 0
5, 102500, Note_on_c, 9, 44, 0
5, 102640, Note_on_c, 9, 59, 0
5, 102872, Note_on_c, 9, 35, 47
5, 102876, Note_on_c, 9, 35, 0
5, 102883, Note_on_c, 9, 59, 80
5, 103034, Note_on_c, 9, 59, 0
5, 103254, Note_on_c, 9, 59, 74
5, 103256, Note_on_c, 9, 35, 47
5, 103256, Note_on_c, 9, 35, 0
5, 103260, Note_on_c, 9, 44, 82
5, 103260, Note_on_c, 9, 44, 0
5, 103377, Note_on_c, 9, 59, 0
5, 103535, Note_on_c, 9, 59, 70
5, 103570, Note_on_c, 9, 59, 0
5, 103640, Note_on_c, 9, 59, 76
5, 103640, Note_on_c, 9, 35, 47
5, 103644, Note_on_c, 9, 35, 0
5, 103783, Note_on_c, 9, 59, 0
5, 104024, Note_on_c, 9, 44, 82
5, 104028, Note_on_c, 9, 35, 47
5, 104029, Note_on_c, 9, 59, 82
5, 104036, Note_on_c, 9, 35, 0
5, 104040, Note_on_c, 9, 44, 0
5, 104157, Note_on_c, 9, 59, 0
5, 104309, Note_on_c, 9, 59, 58
5, 104344, Note_on_c, 9, 59, 0
5, 104404, Note_on_c, 9, 59, 74
5, 104404, Note_on_c, 9, 35, 47
5, 104416, Note_on_c, 9, 35, 0
5, 104538, Note_on_c, 9, 59, 0
5, 104788, Note_on_c, 9, 44, 82
5, 104790, Note_on_c, 9, 59, 90
5, 104796, Note_on_c, 9, 35, 47
5, 104800, Note_on_c, 9, 35, 0
5, 104800, Note_on_c, 9, 44, 0
5, 104932, Note_on_c, 9, 59, 0
5, 105078, Note_on_c, 9, 59, 48
5, 105119, Note_on_c, 9, 59, 0
5, 105173, Note_on_c, 9, 59, 80
5, 105176, Note_on_c, 9, 35, 47
5, 105180, Note_on_c, 9, 35, 0
5, 105287, Note_on_c, 9, 59, 0
5, 105551, Note_on_c, 9, 59, 83
5, 105556, Note_on_c, 9, 35, 47
5, 105560, Note_on_c, 9, 44, 82
5, 105564, Note_on_c, 9, 35, 0
5, 105568, Note_on_c, 9, 44, 0
5, 105690, Note_on_c, 9, 59, 0
5, 105819, Note_on_c, 9, 40, 31
5, 105825, Note_on_c, 9, 59, 55
5, 105855, Note_on_c, 9, 40, 0
5, 105867, Note_on_c, 9, 59, 0
5, 105930, Note_on_c, 9, 40, 35
5, 105941, Note_on_c, 9, 59, 71
5, 105944, Note_on_c, 9, 35, 47
5, 105956, Note_on_c, 9, 35, 0
5, 106001, Note_on_c, 9, 40, 0
5, 106063, Note_on_c, 9, 59, 0
5, 106263, Note_on_c, 9, 51, 70
5, 106290, Note_on_c, 9, 59, 81
5, 106324, Note_on_c, 9, 35, 47
5, 106328, Note_on_c, 9, 44, 82
5, 106332, Note_on_c, 9, 44, 0
5, 106333, Note_on_c, 9, 51, 0
5, 106336, Note_on_c, 9, 35, 0
5, 106474, Note_on_c, 9, 59, 0
5, 106680, Note_on_c, 9, 59, 80
5, 106708, Note_on_c, 9, 35, 47
5, 106716, Note_on_c, 9, 35, 0
5, 106819, Note_on_c, 9, 59, 0
5, 106964, Note_on_c, 9, 40, 55
5, 106994, Note_on_c, 9, 40, 0
5, 107061, Note_on_c, 9, 36, 68
5, 107086, Note_on_c, 9, 59, 79
5, 107092, Note_on_c, 9, 46, 62
5, 107096, Note_on_c, 9, 35, 47
5, 107104, Note_on_c, 9, 35, 0
5, 107104, Note_on_c, 9, 46, 0
5, 107140, Note_on_c, 9, 36, 0
5, 107192, Note_on_c, 9, 59, 0
5, 107327, Note_on_c, 9, 51, 62
5, 107354, Note_on_c, 9, 36, 67
5, 107362, Note_on_c, 9, 51, 0
5, 107428, Note_on_c, 9, 36, 0
5, 107449, Note_on_c, 9, 51, 52
5, 107493, Note_on_c, 9, 52, 36
5, 107507, Note_on_c, 9, 57, 43
5, 107520, Note_on_c, 9, 35, 40
5, 107528, Note_on_c, 9, 35, 0
5, 107530, Note_on_c, 9, 52, 0
5, 107534, Note_on_c, 9, 57, 0
5, 107537, Note_on_c, 9, 51, 0
5, 107828, Note_on_c, 9, 51, 80
5, 107868, Note_on_c, 9, 35, 47
5, 107868, Note_on_c, 9, 44, 82
5, 107872, Note_on_c, 9, 44, 0
5, 107876, Note_on_c, 9, 35, 0
5, 108002, Note_on_c, 9, 51, 0
5, 108229, Note_on_c, 9, 51, 79
5, 108252, Note_on_c, 9, 35, 47
5, 108268, Note_on_c, 9, 35, 0
5, 108398, Note_on_c, 9, 51, 0
5, 108518, Note_on_c, 9, 40, 43
5, 108608, Note_on_c, 9, 51, 83
5, 108610, Note_on_c, 9, 40, 0
5, 108629, Note_on_c, 9, 36, 69
5, 108632, Note_on_c, 9, 35, 47
5, 108636, Note_on_c, 9, 44, 82
5, 108640, Note_on_c, 9, 35, 0
5, 108644, Note_on_c, 9, 44, 0
5, 108702, Note_on_c, 9, 36, 0
5, 108756, Note_on_c, 9, 51, 0
5, 108986, Note_on_c, 9, 51, 83
5, 109016, Note_on_c, 9, 35, 47
5, 109020, Note_on_c, 9, 35, 0
5, 109114, Note_on_c, 9, 51, 0
5, 109377, Note_on_c, 9, 51, 83
5, 109400, Note_on_c, 9, 35, 47
5, 109400, Note_on_c, 9, 35, 0
5, 109404, Note_on_c, 9, 44, 82
5, 109404, Note_on_c, 9, 44, 0
5, 109506, Note_on_c, 9, 51, 0
5, 109750, Note_on_c, 9, 51, 83
5, 109784, Note_on_c, 9, 35, 47
5, 109788, Note_on_c, 9, 35, 0
5, 109872, Note_on_c, 9, 51, 0
5, 110166, Note_on_c, 9, 51, 85
5, 110168, Note_on_c, 9, 44, 82
5, 110172, Note_on_c, 9, 35, 47
5, 110180, Note_on_c, 9, 35, 0
5, 110184, Note_on_c, 9, 44, 0
5, 110265, Note_on_c, 9, 51, 0
5, 110338, Note_on_c, 9, 40, 54
5, 110367, Note_on_c, 9, 40, 0
5, 110461, Note_on_c, 9, 51, 59
5, 110462, Note_on_c, 9, 40, 50
5, 110492, Note_on_c, 9, 40, 0
5, 110496, Note_on_c, 9, 51, 0
5, 110548, Note_on_c, 9, 35, 47
5, 110552, Note_on_c, 9, 51, 71
5, 110560, Note_on_c, 9, 35, 0
5, 110675, Note_on_c, 9, 51, 0
5, 110930, Note_on_c, 9, 51, 85
5, 110932, Note_on_c, 9, 44, 82
5, 110940, Note_on_c, 9, 35, 47
5, 110944, Note_on_c, 9, 35, 0
5, 110944, Note_on_c, 9, 44, 0
5, 111043, Note_on_c, 9, 51, 0
5, 111239, Note_on_c, 9, 51, 53
5, 111274, Note_on_c, 9, 51, 0
5, 111320, Note_on_c, 9, 35, 47
5, 111324, Note_on_c, 9, 35, 0
5, 111326, Note_on_c, 9, 51, 64
5, 111432, Note_on_c, 9, 40, 34
5, 111443, Note_on_c, 9, 51, 0
5, 111509, Note_on_c, 9, 40, 0
5, 111550, Note_on_c, 9, 40, 45
5, 111585, Note_on_c, 9, 40, 0
5, 111660, Note_on_c, 9, 40, 73
5, 111687, Note_on_c, 9, 51, 81
5, 111700, Note_on_c, 9, 35, 47
5, 111704, Note_on_c, 9, 44, 82
5, 111708, Note_on_c, 9, 35, 0
5, 111712, Note_on_c, 9, 44, 0
5, 111724, Note_on_c, 9, 40, 0
5, 111825, Note_on_c, 9, 51, 0
5, 112068, Note_on_c, 9, 40, 29
5, 112073, Note_on_c, 9, 51, 78
5, 112088, Note_on_c, 9, 35, 47
5, 112100, Note_on_c, 9, 35, 0
5, 112226, Note_on_c, 9, 40, 0
5, 112231, Note_on_c, 9, 51, 0
5, 112279, Note_on_c, 9, 40, 74
5, 112343, Note_on_c, 9, 40, 0
5, 112394, Note_on_c, 9, 40, 82
5, 112468, Note_on_c, 9, 35, 47
5, 112472, Note_on_c, 9, 44, 82
5, 112476, Note_on_c, 9, 44, 0
5, 112480, Note_on_c, 9, 35, 0
5, 112557, Note_on_c, 9, 40, 0
5, 112629, Note_on_c, 9, 51, 78
5, 112629, Note_on_c, 9, 51, 0
5, 112852, Note_on_c, 9, 35, 47
5, 112860, Note_on_c, 9, 35, 0
5, 112874, Note_on_c, 9, 51, 79
5, 113024, Note_on_c, 9, 40, 45
5, 113028, Note_on_c, 9, 51, 0
5, 113059, Note_on_c, 9, 40, 0
5, 113114, Note_on_c, 9, 40, 53
5, 113166, Note_on_c, 9, 40, 0
5, 113236, Note_on_c, 9, 46, 62
5, 113240, Note_on_c, 9, 35, 47
5, 113243, Note_on_c, 9, 40, 76
5, 113248, Note_on_c, 9, 35, 0
5, 113248, Note_on_c, 9, 46, 0
5, 113259, Note_on_c, 9, 51, 80
5, 113313, Note_on_c, 9, 40, 0
5, 113405, Note_on_c, 9, 51, 0
5, 113624, Note_on_c, 9, 35, 47
5, 113632, Note_on_c, 9, 35, 0
5, 113638, Note_on_c, 9, 51, 72
5, 113659, Note_on_c, 9, 40, 56
5, 113700, Note_on_c, 9, 40, 0
5, 113785, Note_on_c, 9, 40, 71
5, 113851, Note_on_c, 9, 40, 0
5, 113855, Note_on_c, 9, 51, 0
5, 113892, Note_on_c, 9, 36, 95
5, 113913, Note_on_c, 9, 54, 72
5, 114008, Note_on_c, 9, 35, 47
5, 114008, Note_on_c, 9, 44, 82
5, 114024, Note_on_c, 9, 44, 0
5, 114024, Note_on_c, 9, 35, 0
5, 114048, Note_on_c, 9, 36, 0
5, 114054, Note_on_c, 9, 54, 0
5, 114060, Note_on_c, 9, 51, 44
5, 114243, Note_on_c, 9, 51, 0
5, 114382, Note_on_c, 9, 51, 72
5, 114392, Note_on_c, 9, 35, 47
5, 114400, Note_on_c, 9, 35, 0
5, 114613, Note_on_c, 9, 51, 0
5, 114743, Note_on_c, 9, 51, 72
5, 114776, Note_on_c, 9, 35, 47
5, 114776, Note_on_c, 9, 44, 82
5, 114788, Note_on_c, 9, 35, 0
5, 114792, Note_on_c, 9, 44, 0
5, 115012, Note_on_c, 9, 51, 0
5, 115160, Note_on_c, 9, 35, 47
5, 115167, Note_on_c, 9, 51, 71
5, 115168, Note_on_c, 9, 35, 0
5, 115367, Note_on_c, 9, 51, 0
5, 115427, Note_on_c, 9, 40, 60
5, 115447, Note_on_c, 9, 53, 77
5, 115505, Note_on_c, 9, 40, 0
5, 115544, Note_on_c, 9, 35, 47
5, 115544, Note_on_c, 9, 44, 82
5, 115552, Note_on_c, 9, 44, 0
5, 115556, Note_on_c, 9, 35, 0
5, 115563, Note_on_c, 9, 53, 0
5, 115571, Note_on_c, 9, 57, 30
5, 115604, Note_on_c, 9, 57, 0
5, 115928, Note_on_c, 9, 35, 47
5, 115930, Note_on_c, 9, 51, 60
5, 115936, Note_on_c, 9, 35, 0
5, 116143, Note_on_c, 9, 51, 0
5, 116312, Note_on_c, 9, 35, 47
5, 116312, Note_on_c, 9, 44, 82
5, 116319, Note_on_c, 9, 51, 76
5, 116324, Note_on_c, 9, 44, 0
5, 116324, Note_on_c, 9, 35, 0
5, 116487, Note_on_c, 9, 51, 0
5, 116586, Note_on_c, 9, 51, 59
5, 116655, Note_on_c, 9, 51, 0
5, 116696, Note_on_c, 9, 35, 47
5, 116700, Note_on_c, 9, 35, 0
5, 116703, Note_on_c, 9, 51, 77
5, 116881, Note_on_c, 9, 51, 0
5, 117080, Note_on_c, 9, 44, 82
5, 117084, Note_on_c, 9, 35, 47
5, 117087, Note_on_c, 9, 51, 80
5, 117088, Note_on_c, 9, 35, 0
5, 117088, Note_on_c, 9, 44, 0
5, 117249, Note_on_c, 9, 51, 0
5, 117377, Note_on_c, 9, 51, 52
5, 117386, Note_on_c, 9, 40, 35
5, 117423, Note_on_c, 9, 51, 0
5, 117434, Note_on_c, 9, 40, 0
5, 117460, Note_on_c, 9, 35, 47
5, 117472, Note_on_c, 9, 35, 0
5, 117494, Note_on_c, 9, 51, 69
5, 117514, Note_on_c, 9, 40, 33
5, 117687, Note_on_c, 9, 40, 0
5, 117716, Note_on_c, 9, 51, 0
5, 117767, Note_on_c, 9, 40, 44
5, 117812, Note_on_c, 9, 40, 0
5, 117848, Note_on_c, 9, 35, 47
5, 117852, Note_on_c, 9, 44, 82
5, 117860, Note_on_c, 9, 44, 0
5, 117864, Note_on_c, 9, 35, 0
5, 117870, Note_on_c, 9, 51, 80
5, 118053, Note_on_c, 9, 51, 0
5, 118148, Note_on_c, 9, 51, 49
5, 118212, Note_on_c, 9, 51, 0
5, 118228, Note_on_c, 9, 35, 47
5, 118236, Note_on_c, 9, 35, 0
5, 118270, Note_on_c, 9, 51, 77
5, 118458, Note_on_c, 9, 51, 0
5, 118616, Note_on_c, 9, 35, 47
5, 118616, Note_on_c, 9, 44, 82
5, 118624, Note_on_c, 9, 44, 0
5, 118624, Note_on_c, 9, 35, 0
5, 118644, Note_on_c, 9, 51, 82
5, 118796, Note_on_c, 9, 51, 0
5, 118900, Note_on_c, 9, 40, 57
5, 118914, Note_on_c, 9, 51, 53
5, 118949, Note_on_c, 9, 40, 0
5, 118963, Note_on_c, 9, 51, 0
5, 118996, Note_on_c, 9, 35, 47
5, 119004, Note_on_c, 9, 35, 0
5, 119054, Note_on_c, 9, 51, 46
5, 119089, Note_on_c, 9, 51, 0
5, 119263, Note_on_c, 9, 51, 79
5, 119275, Note_on_c, 9, 40, 77
5, 119327, Note_on_c, 9, 51, 0
5, 119336, Note_on_c, 9, 40, 0
5, 119384, Note_on_c, 9, 35, 47
5, 119384, Note_on_c, 9, 46, 62
5, 119387, Note_on_c, 9, 51, 79
5, 119400, Note_on_c, 9, 46, 0
5, 119400, Note_on_c, 9, 35, 0
5, 119411, Note_on_c, 9, 40, 27
5, 119448, Note_on_c, 9, 40, 0
5, 119628, Note_on_c, 9, 51, 0
5, 119642, Note_on_c, 9, 40, 43
5, 119678, Note_on_c, 9, 40, 0
5, 119701, Note_on_c, 9, 51, 51
5, 119759, Note_on_c, 9, 51, 0
5, 119772, Note_on_c, 9, 35, 40
5, 119788, Note_on_c, 9, 35, 0
5, 119796, Note_on_c, 9, 57, 50
5, 119805, Note_on_c, 9, 51, 46
5, 119856, Note_on_c, 9, 57, 0
5, 119874, Note_on_c, 9, 51, 0
5, 120036, Note_on_c, 9, 40, 83
5, 120052, Note_on_c, 9, 51, 90
5, 120114, Note_on_c, 9, 40, 0
5, 120140, Note_on_c, 9, 51, 0
5, 120156, Note_on_c, 9, 35, 47
5, 120156, Note_on_c, 9, 44, 82
5, 120172, Note_on_c, 9, 44, 0
5, 120172, Note_on_c, 9, 35, 0
5, 120194, Note_on_c, 9, 40, 35
5, 120194, Note_on_c, 9, 51, 71
5, 120293, Note_on_c, 9, 51, 0
5, 120297, Note_on_c, 9, 40, 0
5, 120431, Note_on_c, 9, 51, 67
5, 120439, Note_on_c, 9, 40, 48
5, 120469, Note_on_c, 9, 40, 0
5, 120501, Note_on_c, 9, 51, 0
5, 120540, Note_on_c, 9, 35, 47
5, 120548, Note_on_c, 9, 35, 0
5, 120589, Note_on_c, 9, 51, 83
5, 120606, Note_on_c, 9, 40, 94
5, 120745, Note_on_c, 9, 40, 0
5, 120760, Note_on_c, 9, 51, 0
5, 120838, Note_on_c, 9, 40, 37
5, 120855, Note_on_c, 9, 51, 53
5, 120886, Note_on_c, 9, 40, 0
5, 120916, Note_on_c, 9, 35, 47
5, 120924, Note_on_c, 9, 44, 82
5, 120928, Note_on_c, 9, 35, 0
5, 120932, Note_on_c, 9, 44, 0
5, 120953, Note_on_c, 9, 51, 0
5, 120954, Note_on_c, 9, 51, 39
5, 121025, Note_on_c, 9, 51, 0
5, 121197, Note_on_c, 9, 51, 98
5, 121198, Note_on_c, 9, 40, 92
5, 121304, Note_on_c, 9, 35, 47
5, 121308, Note_on_c, 9, 35, 0
5, 121313, Note_on_c, 9, 51, 0
5, 121318, Note_on_c, 9, 40, 0
5, 121374, Note_on_c, 9, 51, 45
5, 121459, Note_on_c, 9, 51, 0
5, 121606, Note_on_c, 9, 51, 74
5, 121670, Note_on_c, 9, 51, 0
5, 121684, Note_on_c, 9, 35, 47
5, 121692, Note_on_c, 9, 35, 0
5, 121692, Note_on_c, 9, 44, 82
5, 121696, Note_on_c, 9, 44, 0
5, 121759, Note_on_c, 9, 51, 88
5, 121916, Note_on_c, 9, 51, 0
5, 121987, Note_on_c, 9, 51, 58
5, 122067, Note_on_c, 9, 51, 0
5, 122072, Note_on_c, 9, 35, 47
5, 122076, Note_on_c, 9, 35, 0
5, 122126, Note_on_c, 9, 51, 59
5, 122191, Note_on_c, 9, 51, 0
5, 122346, Note_on_c, 9, 51, 99
5, 122351, Note_on_c, 9, 40, 78
5, 122415, Note_on_c, 9, 40, 0
5, 122460, Note_on_c, 9, 35, 47
5, 122460, Note_on_c, 9, 44, 82
5, 122463, Note_on_c, 9, 51, 0
5, 122472, Note_on_c, 9, 44, 0
5, 122472, Note_on_c, 9, 35, 0
5, 122503, Note_on_c, 9, 37, 50
5, 122538, Note_on_c, 9, 51, 52
5, 122558, Note_on_c, 9, 37, 0
5, 122608, Note_on_c, 9, 51, 0
5, 122706, Note_on_c, 9, 37, 77
5, 122712, Note_on_c, 9, 57, 80
5, 122715, Note_on_c, 9, 51, 62
5, 122721, Note_on_c, 9, 40, 70
5, 122780, Note_on_c, 9, 51, 0
5, 122783, Note_on_c, 9, 57, 0
5, 122797, Note_on_c, 9, 40, 0
5, 122836, Note_on_c, 9, 35, 47
5, 122848, Note_on_c, 9, 35, 0
5, 122861, Note_on_c, 9, 51, 92
5, 122922, Note_on_c, 9, 37, 0
5, 123020, Note_on_c, 9, 51, 0
5, 123103, Note_on_c, 9, 51, 49
5, 123174, Note_on_c, 9, 51, 0
5, 123214, Note_on_c, 9, 51, 49
5, 123220, Note_on_c, 9, 44, 82
5, 123228, Note_on_c, 9, 35, 47
5, 123232, Note_on_c, 9, 35, 0
5, 123232, Note_on_c, 9, 44, 0
5, 123284, Note_on_c, 9, 51, 0
5, 123480, Note_on_c, 9, 51, 94
5, 123608, Note_on_c, 9, 35, 47
5, 123616, Note_on_c, 9, 35, 0
5, 123750, Note_on_c, 9, 51, 0
5, 123873, Note_on_c, 9, 40, 45
5, 123910, Note_on_c, 9, 51, 30
5, 123916, Note_on_c, 9, 40, 0
5, 123948, Note_on_c, 9, 51, 0
5, 123988, Note_on_c, 9, 35, 47
5, 123992, Note_on_c, 9, 44, 82
5, 123996, Note_on_c, 9, 35, 0
5, 124000, Note_on_c, 9, 44, 0
5, 124014, Note_on_c, 9, 36, 28
5, 124015, Note_on_c, 9, 51, 80
5, 124050, Note_on_c, 9, 36, 0
5, 124257, Note_on_c, 9, 51, 0
5, 124376, Note_on_c, 9, 35, 47
5, 124384, Note_on_c, 9, 35, 0
5, 124420, Note_on_c, 9, 51, 37
5, 124551, Note_on_c, 9, 51, 0
5, 124756, Note_on_c, 9, 35, 47
5, 124764, Note_on_c, 9, 44, 82
5, 124768, Note_on_c, 9, 44, 0
5, 124768, Note_on_c, 9, 35, 0
5, 124902, Note_on_c, 9, 51, 69
5, 124977, Note_on_c, 9, 51, 0
5, 125140, Note_on_c, 9, 35, 47
5, 125148, Note_on_c, 9, 35, 0
5, 125154, Note_on_c, 9, 51, 73
5, 125303, Note_on_c, 9, 51, 0
5, 125524, Note_on_c, 9, 35, 47
5, 125524, Note_on_c, 9, 44, 82
5, 125536, Note_on_c, 9, 44, 0
5, 125536, Note_on_c, 9, 35, 0
5, 125545, Note_on_c, 9, 51, 72
5, 125681, Note_on_c, 9, 51, 0
5, 125792, Note_on_c, 9, 40, 46
5, 125810, Note_on_c, 9, 51, 57
5, 125825, Note_on_c, 9, 40, 0
5, 125845, Note_on_c, 9, 51, 0
5, 125912, Note_on_c, 9, 35, 47
5, 125916, Note_on_c, 9, 35, 0
5, 125924, Note_on_c, 9, 51, 60
5, 126048, Note_on_c, 9, 51, 0
5, 126292, Note_on_c, 9, 35, 47
5, 126292, Note_on_c, 9, 44, 82
5, 126296, Note_on_c, 9, 51, 77
5, 126308, Note_on_c, 9, 44, 0
5, 126308, Note_on_c, 9, 35, 0
5, 126427, Note_on_c, 9, 51, 0
5, 126589, Note_on_c, 9, 51, 42
5, 126624, Note_on_c, 9, 51, 0
5, 126677, Note_on_c, 9, 51, 64
5, 126680, Note_on_c, 9, 35, 47
5, 126688, Note_on_c, 9, 35, 0
5, 126795, Note_on_c, 9, 51, 0
5, 126951, Note_on_c, 9, 40, 27
5, 126984, Note_on_c, 9, 40, 0
5, 127055, Note_on_c, 9, 51, 80
5, 127060, Note_on_c, 9, 44, 82
5, 127064, Note_on_c, 9, 35, 47
5, 127076, Note_on_c, 9, 35, 0
5, 127080, Note_on_c, 9, 44, 0
5, 127189, Note_on_c, 9, 51, 0
5, 127308, Note_on_c, 9, 40, 46
5, 127341, Note_on_c, 9, 40, 0
5, 127430, Note_on_c, 9, 51, 72
5, 127448, Note_on_c, 9, 35, 47
5, 127452, Note_on_c, 9, 35, 0
5, 127617, Note_on_c, 9, 51, 0
5, 127703, Note_on_c, 9, 40, 54
5, 127735, Note_on_c, 9, 40, 0
5, 127832, Note_on_c, 9, 35, 47
5, 127832, Note_on_c, 9, 44, 82
5, 127836, Note_on_c, 9, 51, 74
5, 127848, Note_on_c, 9, 44, 0
5, 127852, Note_on_c, 9, 35, 0
5, 127959, Note_on_c, 9, 51, 0
5, 128093, Note_on_c, 9, 40, 53
5, 128114, Note_on_c, 9, 51, 60
5, 128124, Note_on_c, 9, 40, 0
5, 128157, Note_on_c, 9, 51, 0
5, 128220, Note_on_c, 9, 35, 47
5, 128224, Note_on_c, 9, 35, 0
5, 128225, Note_on_c, 9, 51, 67
5, 128334, Note_on_c, 9, 51, 0
5, 128473, Note_on_c, 9, 40, 43
5, 128508, Note_on_c, 9, 40, 0
5, 128581, Note_on_c, 9, 51, 83
5, 128600, Note_on_c, 9, 35, 47
5, 128600, Note_on_c, 9, 44, 82
5, 128612, Note_on_c, 9, 44, 0
5, 128616, Note_on_c, 9, 35, 0
5, 128698, Note_on_c, 9, 51, 0
5, 128877, Note_on_c, 9, 51, 59
5, 128912, Note_on_c, 9, 51, 0
5, 128984, Note_on_c, 9, 51, 67
5, 128984, Note_on_c, 9, 35, 47
5, 128992, Note_on_c, 9, 35, 0
5, 129096, Note_on_c, 9, 51, 0
5, 129355, Note_on_c, 9, 51, 84
5, 129364, Note_on_c, 9, 44, 82
5, 129376, Note_on_c, 9, 44, 0
5, 129376, Note_on_c, 9, 35, 47
5, 129376, Note_on_c, 9, 35, 0
5, 129512, Note_on_c, 9, 51, 0
5, 129738, Note_on_c, 9, 51, 79
5, 129748, Note_on_c, 9, 35, 47
5, 129760, Note_on_c, 9, 35, 0
5, 129879, Note_on_c, 9, 51, 0
5, 130125, Note_on_c, 9, 51, 77
5, 130136, Note_on_c, 9, 35, 47
5, 130140, Note_on_c, 9, 46, 62
5, 130152, Note_on_c, 9, 46, 0
5, 130152, Note_on_c, 9, 35, 0
5, 130250, Note_on_c, 9, 51, 0
5, 130520, Note_on_c, 9, 35, 47
5, 130526, Note_on_c, 9, 51, 79
5, 130528, Note_on_c, 9, 35, 0
5, 130639, Note_on_c, 9, 51, 0
5, 130900, Note_on_c, 9, 35, 47
5, 130908, Note_on_c, 9, 44, 82
5, 130911, Note_on_c, 9, 51, 79
5, 130912, Note_on_c, 9, 44, 0
5, 130916, Note_on_c, 9, 35, 0
5, 131022, Note_on_c, 9, 51, 0
5, 131288, Note_on_c, 9, 35, 47
5, 131292, Note_on_c, 9, 35, 0
5, 131305, Note_on_c, 9, 51, 77
5, 131409, Note_on_c, 9, 51, 0
5, 131676, Note_on_c, 9, 35, 47
5, 131676, Note_on_c, 9, 44, 82
5, 131687, Note_on_c, 9, 51, 77
5, 131688, Note_on_c, 9, 44, 0
5, 131688, Note_on_c, 9, 35, 0
5, 131784, Note_on_c, 9, 51, 0
5, 131932, Note_on_c, 9, 40, 56
5, 131932, Note_on_c, 9, 46, 97
5, 131968, Note_on_c, 9, 40, 0
5, 131970, Note_on_c, 9, 46, 0
5, 131981, Note_on_c, 9, 51, 65
5, 132022, Note_on_c, 9, 51, 0
5, 132060, Note_on_c, 9, 35, 40
5, 132076, Note_on_c, 9, 35, 0
5, 132080, Note_on_c, 9, 57, 42
5, 132082, Note_on_c, 9, 51, 72
5, 132083, Note_on_c, 9, 36, 36
5, 132112, Note_on_c, 9, 57, 0
5, 132117, Note_on_c, 9, 36, 0
5, 132169, Note_on_c, 9, 51, 0
5, 132420, Note_on_c, 9, 51, 81
5, 132444, Note_on_c, 9, 35, 47
5, 132444, Note_on_c, 9, 44, 82
5, 132460, Note_on_c, 9, 44, 0
5, 132460, Note_on_c, 9, 35, 0
5, 132516, Note_on_c, 9, 51, 0
5, 132749, Note_on_c, 9, 51, 59
5, 132785, Note_on_c, 9, 51, 0
5, 132828, Note_on_c, 9, 35, 47
5, 132831, Note_on_c, 9, 51, 72
5, 132844, Note_on_c, 9, 35, 0
5, 132911, Note_on_c, 9, 51, 0
5, 133102, Note_on_c, 9, 40, 51
5, 133133, Note_on_c, 9, 40, 0
5, 133189, Note_on_c, 9, 51, 87
5, 133204, Note_on_c, 9, 35, 47
5, 133212, Note_on_c, 9, 44, 82
5, 133213, Note_on_c, 9, 40, 36
5, 133216, Note_on_c, 9, 35, 0
5, 133220, Note_on_c, 9, 44, 0
5, 133299, Note_on_c, 9, 51, 0
5, 133431, Note_on_c, 9, 40, 0
5, 133485, Note_on_c, 9, 40, 63
5, 133533, Note_on_c, 9, 40, 0
5, 133563, Note_on_c, 9, 51, 82
5, 133588, Note_on_c, 9, 35, 47
5, 133596, Note_on_c, 9, 35, 0
5, 133663, Note_on_c, 9, 51, 0
5, 133868, Note_on_c, 9, 51, 80
5, 133924, Note_on_c, 9, 51, 0
5, 133972, Note_on_c, 9, 35, 47
5, 133973, Note_on_c, 9, 51, 80
5, 133976, Note_on_c, 9, 35, 0
5, 133980, Note_on_c, 9, 44, 82
5, 133980, Note_on_c, 9, 44, 0
5, 134063, Note_on_c, 9, 51, 0
5, 134360, Note_on_c, 9, 35, 47
5, 134364, Note_on_c, 9, 35, 0
5, 134547, Note_on_c, 9, 40, 34
5, 134582, Note_on_c, 9, 51, 78
5, 134583, Note_on_c, 9, 40, 0
5, 134642, Note_on_c, 9, 51, 0
5, 134717, Note_on_c, 9, 51, 80
5, 134740, Note_on_c, 9, 46, 62
5, 134744, Note_on_c, 9, 35, 47
5, 134756, Note_on_c, 9, 35, 0
5, 134756, Note_on_c, 9, 46, 0
5, 134790, Note_on_c, 9, 40, 47
5, 134822, Note_on_c, 9, 40, 0
5, 134873, Note_on_c, 9, 51, 0
5, 135038, Note_on_c, 9, 40, 45
5, 135071, Note_on_c, 9, 40, 0
5, 135093, Note_on_c, 9, 51, 78
5, 135124, Note_on_c, 9, 35, 47
5, 135132, Note_on_c, 9, 35, 0
5, 135225, Note_on_c, 9, 51, 0
5, 135439, Note_on_c, 9, 51, 90
5, 135508, Note_on_c, 9, 44, 82
5, 135516, Note_on_c, 9, 44, 0
5, 135516, Note_on_c, 9, 35, 47
5, 135516, Note_on_c, 9, 35, 0
5, 135548, Note_on_c, 9, 51, 0
5, 135722, Note_on_c, 9, 51, 90
5, 135833, Note_on_c, 9, 51, 0
5, 135896, Note_on_c, 9, 35, 47
5, 135904, Note_on_c, 9, 35, 0
5, 135985, Note_on_c, 9, 51, 90
5, 136112, Note_on_c, 9, 51, 0
5, 136276, Note_on_c, 9, 35, 47
5, 136280, Note_on_c, 9, 44, 82
5, 136281, Note_on_c, 9, 51, 93
5, 136284, Note_on_c, 9, 35, 0
5, 136288, Note_on_c, 9, 44, 0
5, 136401, Note_on_c, 9, 51, 0
5, 136533, Note_on_c, 9, 37, 45
5, 136541, Note_on_c, 9, 51, 92
5, 136584, Note_on_c, 9, 37, 0
5, 136664, Note_on_c, 9, 35, 47
5, 136672, Note_on_c, 9, 35, 0
5, 136689, Note_on_c, 9, 51, 0
5, 136746, Note_on_c, 9, 37, 45
5, 136814, Note_on_c, 9, 51, 88
5, 136872, Note_on_c, 9, 37, 0
5, 136908, Note_on_c, 9, 51, 0
5, 137019, Note_on_c, 9, 37, 60
5, 137044, Note_on_c, 9, 35, 47
5, 137052, Note_on_c, 9, 44, 82
5, 137060, Note_on_c, 9, 44, 0
5, 137060, Note_on_c, 9, 35, 0
5, 137074, Note_on_c, 9, 51, 92
5, 137099, Note_on_c, 9, 37, 0
5, 137169, Note_on_c, 9, 51, 0
5, 137315, Note_on_c, 9, 37, 46
5, 137338, Note_on_c, 9, 51, 91
5, 137381, Note_on_c, 9, 37, 0
5, 137428, Note_on_c, 9, 35, 47
5, 137432, Note_on_c, 9, 51, 0
5, 137440, Note_on_c, 9, 35, 0
5, 137568, Note_on_c, 9, 37, 57
5, 137585, Note_on_c, 9, 51, 78
5, 137653, Note_on_c, 9, 37, 0
5, 137670, Note_on_c, 9, 51, 0
5, 137812, Note_on_c, 9, 44, 82
5, 137816, Note_on_c, 9, 35, 47
5, 137824, Note_on_c, 9, 35, 0
5, 137824, Note_on_c, 9, 44, 0
5, 137844, Note_on_c, 9, 37, 57
5, 137880, Note_on_c, 9, 51, 85
5, 137920, Note_on_c, 9, 37, 0
5, 137966, Note_on_c, 9, 51, 0
5, 138115, Note_on_c, 9, 37, 50
5, 138125, Note_on_c, 9, 51, 86
5, 138188, Note_on_c, 9, 51, 0
5, 138196, Note_on_c, 9, 37, 0
5, 138200, Note_on_c, 9, 35, 47
5, 138204, Note_on_c, 9, 35, 0
5, 138235, Note_on_c, 9, 51, 90
5, 138393, Note_on_c, 9, 51, 0
5, 138580, Note_on_c, 9, 35, 47
5, 138580, Note_on_c, 9, 44, 82
5, 138588, Note_on_c, 9, 51, 82
5, 138600, Note_on_c, 9, 35, 0
5, 138604, Note_on_c, 9, 44, 0
5, 138730, Note_on_c, 9, 51, 0
5, 138858, Note_on_c, 9, 51, 67
5, 138900, Note_on_c, 9, 51, 0
5, 138964, Note_on_c, 9, 35, 47
5, 138967, Note_on_c, 9, 51, 74
5, 138972, Note_on_c, 9, 35, 0
5, 139072, Note_on_c, 9, 51, 0
5, 139339, Note_on_c, 9, 51, 86
5, 139352, Note_on_c, 9, 35, 47
5, 139352, Note_on_c, 9, 44, 82
5, 139368, Note_on_c, 9, 44, 0
5, 139368, Note_on_c, 9, 35, 0
5, 139454, Note_on_c, 9, 51, 0
5, 139716, Note_on_c, 9, 51, 82
5, 139736, Note_on_c, 9, 35, 47
5, 139740, Note_on_c, 9, 35, 0
5, 139829, Note_on_c, 9, 51, 0
5, 140000, Note_on_c, 9, 35, 63
5, 140057, Note_on_c, 9, 35, 0
5, 140096, Note_on_c, 9, 51, 87
5, 140120, Note_on_c, 9, 35, 47
5, 140120, Note_on_c, 9, 44, 82
5, 140136, Note_on_c, 9, 44, 0
5, 140136, Note_on_c, 9, 35, 0
5, 140231, Note_on_c, 9, 51, 0
5, 140353, Note_on_c, 9, 37, 43
5, 140396, Note_on_c, 9, 37, 0
5, 140400, Note_on_c, 9, 51, 62
5, 140435, Note_on_c, 9, 51, 0
5, 140486, Note_on_c, 9, 51, 69
5, 140504, Note_on_c, 9, 35, 47
5, 140508, Note_on_c, 9, 35, 0
5, 140563, Note_on_c, 9, 37, 51
5, 140569, Note_on_c, 9, 51, 0
5, 140690, Note_on_c, 9, 37, 0
5, 140863, Note_on_c, 9, 37, 55
5, 140866, Note_on_c, 9, 51, 90
5, 140892, Note_on_c, 9, 35, 47
5, 140892, Note_on_c, 9, 44, 82
5, 140900, Note_on_c, 9, 44, 0
5, 140904, Note_on_c, 9, 35, 0
5, 140943, Note_on_c, 9, 37, 0
5, 140986, Note_on_c, 9, 51, 0
5, 141133, Note_on_c, 9, 51, 64
5, 141143, Note_on_c, 9, 37, 57
5, 141195, Note_on_c, 9, 51, 0
5, 141221, Note_on_c, 9, 37, 0
5, 141255, Note_on_c, 9, 51, 71
5, 141272, Note_on_c, 9, 35, 47
5, 141280, Note_on_c, 9, 35, 0
5, 141335, Note_on_c, 9, 51, 0
5, 141639, Note_on_c, 9, 51, 87
5, 141660, Note_on_c, 9, 35, 47
5, 141660, Note_on_c, 9, 44, 82
5, 141664, Note_on_c, 9, 35, 0
5, 141668, Note_on_c, 9, 44, 0
5, 141723, Note_on_c, 9, 51, 0
5, 141924, Note_on_c, 9, 51, 62
5, 141959, Note_on_c, 9, 51, 0
5, 142034, Note_on_c, 9, 51, 56
5, 142036, Note_on_c, 9, 35, 47
5, 142048, Note_on_c, 9, 35, 0
5, 142094, Note_on_c, 9, 35, 50
5, 142103, Note_on_c, 9, 51, 0
5, 142284, Note_on_c, 9, 35, 0
5, 142298, Note_on_c, 9, 51, 91
5, 142333, Note_on_c, 9, 35, 47
5, 142398, Note_on_c, 9, 35, 0
5, 142420, Note_on_c, 9, 35, 47
5, 142424, Note_on_c, 9, 44, 82
5, 142428, Note_on_c, 9, 44, 0
5, 142432, Note_on_c, 9, 35, 0
5, 142441, Note_on_c, 9, 51, 0
5, 142692, Note_on_c, 9, 51, 76
5, 142753, Note_on_c, 9, 51, 0
5, 142808, Note_on_c, 9, 35, 47
5, 142820, Note_on_c, 9, 35, 0
5, 142831, Note_on_c, 9, 51, 84
5, 142989, Note_on_c, 9, 51, 0
5, 143085, Note_on_c, 9, 40, 35
5, 143123, Note_on_c, 9, 40, 0
5, 143185, Note_on_c, 9, 51, 33
5, 143188, Note_on_c, 9, 35, 47
5, 143196, Note_on_c, 9, 44, 82
5, 143196, Note_on_c, 9, 44, 0
5, 143200, Note_on_c, 9, 35, 0
5, 143223, Note_on_c, 9, 51, 0
5, 143423, Note_on_c, 9, 51, 95
5, 143466, Note_on_c, 9, 40, 49
5, 143507, Note_on_c, 9, 40, 0
5, 143572, Note_on_c, 9, 35, 47
5, 143580, Note_on_c, 9, 35, 0
5, 143611, Note_on_c, 9, 51, 0
5, 143796, Note_on_c, 9, 51, 59
5, 143832, Note_on_c, 9, 51, 0
5, 143863, Note_on_c, 9, 40, 46
5, 143901, Note_on_c, 9, 40, 0
5, 143960, Note_on_c, 9, 35, 47
5, 143960, Note_on_c, 9, 46, 62
5, 143966, Note_on_c, 9, 51, 97
5, 143968, Note_on_c, 9, 46, 0
5, 143968, Note_on_c, 9, 35, 0
5, 144101, Note_on_c, 9, 51, 0
5, 144164, Note_on_c, 9, 40, 68
5, 144240, Note_on_c, 9, 40, 0
5, 144287, Note_on_c, 9, 37, 69
5, 144329, Note_on_c, 9, 51, 38
5, 144348, Note_on_c, 9, 35, 40
5, 144356, Note_on_c, 9, 35, 0
5, 144356, Note_on_c, 9, 37, 0
5, 144366, Note_on_c, 9, 51, 0
5, 144413, Note_on_c, 9, 40, 66
5, 144482, Note_on_c, 9, 40, 0
5, 144621, Note_on_c, 9, 51, 98
5, 144732, Note_on_c, 9, 44, 82
5, 144740, Note_on_c, 9, 35, 47
5, 144748, Note_on_c, 9, 35, 0
5, 144748, Note_on_c, 9, 44, 0
5, 144797, Note_on_c, 9, 51, 0
5, 144973, Note_on_c, 9, 51, 53
5, 145008, Note_on_c, 9, 51, 0
5, 145116, Note_on_c, 9, 35, 47
5, 145132, Note_on_c, 9, 35, 0
5, 145168, Note_on_c, 9, 51, 94
5, 145335, Note_on_c, 9, 51, 0
5, 145492, Note_on_c, 9, 35, 47
5, 145504, Note_on_c, 9, 35, 0
5, 145504, Note_on_c, 9, 44, 82
5, 145508, Note_on_c, 9, 44, 0
5, 145522, Note_on_c, 9, 51, 45
5, 145557, Note_on_c, 9, 51, 0
5, 145761, Note_on_c, 9, 51, 99
5, 145818, Note_on_c, 9, 40, 32
5, 145855, Note_on_c, 9, 40, 0
5, 145880, Note_on_c, 9, 35, 47
5, 145884, Note_on_c, 9, 35, 0
5, 145927, Note_on_c, 9, 51, 0
5, 146125, Note_on_c, 9, 51, 61
5, 146160, Note_on_c, 9, 51, 0
5, 146264, Note_on_c, 9, 35, 47
5, 146268, Note_on_c, 9, 35, 0
5, 146268, Note_on_c, 9, 44, 82
5, 146276, Note_on_c, 9, 44, 0
5, 146286, Note_on_c, 9, 51, 98
5, 146463, Note_on_c, 9, 51, 0
5, 146542, Note_on_c, 9, 40, 48
5, 146576, Note_on_c, 9, 40, 0
5, 146652, Note_on_c, 9, 35, 47
5, 146656, Note_on_c, 9, 35, 0
5, 146730, Note_on_c, 9, 51, 60
5, 146736, Note_on_c, 9, 51, 0
5, 146894, Note_on_c, 9, 51, 58
5, 146956, Note_on_c, 9, 51, 0
5, 147032, Note_on_c, 9, 35, 47
5, 147032, Note_on_c, 9, 44, 82
5, 147044, Note_on_c, 9, 44, 0
5, 147044, Note_on_c, 9, 35, 0
5, 147050, Note_on_c, 9, 51, 48
5, 147131, Note_on_c, 9, 51, 77
5, 147132, Note_on_c, 9, 51, 0
5, 147148, Note_on_c, 9, 51, 0
5, 147290, Note_on_c, 9, 51, 83
5, 147360, Note_on_c, 9, 51, 0
5, 147416, Note_on_c, 9, 35, 47
5, 147417, Note_on_c, 9, 51, 85
5, 147420, Note_on_c, 9, 35, 0
5, 147512, Note_on_c, 9, 51, 0
5, 147796, Note_on_c, 9, 51, 77
5, 147796, Note_on_c, 9, 44, 82
5, 147808, Note_on_c, 9, 35, 47
5, 147808, Note_on_c, 9, 35, 0
5, 147812, Note_on_c, 9, 44, 0
5, 147894, Note_on_c, 9, 51, 0
5, 148184, Note_on_c, 9, 35, 47
5, 148187, Note_on_c, 9, 51, 74
5, 148188, Note_on_c, 9, 35, 0
5, 148300, Note_on_c, 9, 51, 0
5, 148553, Note_on_c, 9, 51, 75
5, 148568, Note_on_c, 9, 35, 47
5, 148572, Note_on_c, 9, 35, 0
5, 148572, Note_on_c, 9, 44, 82
5, 148576, Note_on_c, 9, 44, 0
5, 148659, Note_on_c, 9, 51, 0
5, 148835, Note_on_c, 9, 51, 57
5, 148901, Note_on_c, 9, 51, 0
5, 148919, Note_on_c, 9, 40, 28
5, 148952, Note_on_c, 9, 35, 47
5, 148956, Note_on_c, 9, 35, 0
5, 148959, Note_on_c, 9, 51, 77
5, 148969, Note_on_c, 9, 40, 0
5, 149058, Note_on_c, 9, 51, 0
5, 149332, Note_on_c, 9, 35, 47
5, 149338, Note_on_c, 9, 51, 80
5, 149340, Note_on_c, 9, 44, 82
5, 149340, Note_on_c, 9, 44, 0
5, 149344, Note_on_c, 9, 35, 0
5, 149434, Note_on_c, 9, 51, 0
5, 149716, Note_on_c, 9, 35, 47
5, 149720, Note_on_c, 9, 51, 76
5, 149724, Note_on_c, 9, 35, 0
5, 149811, Note_on_c, 9, 51, 0
5, 149992, Note_on_c, 9, 51, 57
5, 150028, Note_on_c, 9, 51, 0
5, 150100, Note_on_c, 9, 44, 82
5, 150104, Note_on_c, 9, 35, 47
5, 150108, Note_on_c, 9, 51, 70
5, 150116, Note_on_c, 9, 35, 0
5, 150116, Note_on_c, 9, 44, 0
5, 150214, Note_on_c, 9, 51, 0
5, 150502, Note_on_c, 9, 51, 77
5, 150528, Note_on_c, 9, 35, 40
5, 150536, Note_on_c, 9, 35, 0
5, 150618, Note_on_c, 9, 51, 0
5, 150876, Note_on_c, 9, 35, 47
5, 150876, Note_on_c, 9, 44, 82
5, 150880, Note_on_c, 9, 44, 0
5, 150884, Note_on_c, 9, 35, 0
5, 150889, Note_on_c, 9, 51, 80
5, 150997, Note_on_c, 9, 51, 0
5, 151260, Note_on_c, 9, 35, 47
5, 151276, Note_on_c, 9, 35, 0
5, 151283, Note_on_c, 9, 51, 78
5, 151289, Note_on_c, 9, 40, 39
5, 151326, Note_on_c, 9, 40, 0
5, 151379, Note_on_c, 9, 51, 0
5, 151427, Note_on_c, 9, 40, 54
5, 151460, Note_on_c, 9, 40, 0
5, 151560, Note_on_c, 9, 51, 60
5, 151616, Note_on_c, 9, 51, 0
5, 151640, Note_on_c, 9, 35, 47
5, 151644, Note_on_c, 9, 44, 82
5, 151648, Note_on_c, 9, 35, 0
5, 151652, Note_on_c, 9, 44, 0
5, 151674, Note_on_c, 9, 51, 83
5, 151695, Note_on_c, 9, 40, 62
5, 151765, Note_on_c, 9, 40, 0
5, 151775, Note_on_c, 9, 51, 0
5, 152024, Note_on_c, 9, 35, 47
5, 152028, Note_on_c, 9, 35, 0
5, 152038, Note_on_c, 9, 51, 83
5, 152146, Note_on_c, 9, 51, 0
5, 152408, Note_on_c, 9, 35, 47
5, 152408, Note_on_c, 9, 35, 0
5, 152412, Note_on_c, 9, 51, 81
5, 152412, Note_on_c, 9, 44, 82
5, 152412, Note_on_c, 9, 44, 0
5, 152522, Note_on_c, 9, 51, 0
5, 152681, Note_on_c, 9, 51, 64
5, 152746, Note_on_c, 9, 51, 0
5, 152792, Note_on_c, 9, 35, 47
5, 152796, Note_on_c, 9, 35, 0
5, 152806, Note_on_c, 9, 51, 79
5, 152898, Note_on_c, 9, 51, 0
5, 153041, Note_on_c, 9, 40, 61
5, 153077, Note_on_c, 9, 40, 0
5, 153162, Note_on_c, 9, 36, 60
5, 153176, Note_on_c, 9, 44, 82
5, 153180, Note_on_c, 9, 35, 47
5, 153182, Note_on_c, 9, 51, 83
5, 153188, Note_on_c, 9, 35, 0
5, 153192, Note_on_c, 9, 44, 0
5, 153271, Note_on_c, 9, 51, 0
5, 153272, Note_on_c, 9, 36, 0
5, 153449, Note_on_c, 9, 51, 64
5, 153519, Note_on_c, 9, 51, 0
5, 153556, Note_on_c, 9, 35, 47
5, 153568, Note_on_c, 9, 35, 0
5, 153582, Note_on_c, 9, 51, 78
5, 153699, Note_on_c, 9, 51, 0
5, 153940, Note_on_c, 9, 44, 82
5, 153948, Note_on_c, 9, 35, 47
5, 153952, Note_on_c, 9, 35, 0
5, 153952, Note_on_c, 9, 44, 0
5, 153966, Note_on_c, 9, 51, 84
5, 154069, Note_on_c, 9, 51, 0
5, 154213, Note_on_c, 9, 36, 65
5, 154243, Note_on_c, 9, 36, 0
5, 154328, Note_on_c, 9, 35, 47
5, 154332, Note_on_c, 9, 35, 0
5, 154346, Note_on_c, 9, 36, 61
5, 154355, Note_on_c, 9, 51, 85
5, 154454, Note_on_c, 9, 51, 0
5, 154540, Note_on_c, 9, 36, 0
5, 154593, Note_on_c, 9, 36, 58
5, 154670, Note_on_c, 9, 36, 0
5, 154708, Note_on_c, 9, 35, 47
5, 154712, Note_on_c, 9, 44, 82
5, 154716, Note_on_c, 9, 35, 0
5, 154720, Note_on_c, 9, 44, 0
5, 154756, Note_on_c, 9, 51, 82
5, 154820, Note_on_c, 9, 51, 0
5, 155096, Note_on_c, 9, 35, 47
5, 155108, Note_on_c, 9, 35, 0
5, 155117, Note_on_c, 9, 51, 64
5, 155287, Note_on_c, 9, 51, 0
5, 155476, Note_on_c, 9, 35, 47
5, 155480, Note_on_c, 9, 44, 82
5, 155484, Note_on_c, 9, 44, 0
5, 155488, Note_on_c, 9, 35, 0
5, 155493, Note_on_c, 9, 51, 79
5, 155643, Note_on_c, 9, 51, 0
5, 155754, Note_on_c, 9, 40, 58
5, 155795, Note_on_c, 9, 40, 0
5, 155860, Note_on_c, 9, 35, 47
5, 155868, Note_on_c, 9, 35, 0
5, 155886, Note_on_c, 9, 51, 76
5, 156040, Note_on_c, 9, 51, 0
5, 156146, Note_on_c, 9, 40, 63
5, 156161, Note_on_c, 9, 59, 88
5, 156185, Note_on_c, 9, 40, 0
5, 156219, Note_on_c, 9, 59, 0
5, 156244, Note_on_c, 9, 46, 62
5, 156248, Note_on_c, 9, 35, 47
5, 156256, Note_on_c, 9, 35, 0
5, 156256, Note_on_c, 9, 46, 0
5, 156269, Note_on_c, 9, 59, 90
5, 156474, Note_on_c, 9, 59, 0
5, 156544, Note_on_c, 9, 40, 66
5, 156621, Note_on_c, 9, 40, 0
5, 156632, Note_on_c, 9, 35, 47
5, 156640, Note_on_c, 9, 35, 0
5, 156644, Note_on_c, 9, 59, 108
5, 156659, Note_on_c, 9, 57, 43
5, 156675, Note_on_c, 9, 36, 33
5, 156686, Note_on_c, 9, 57, 0
5, 156767, Note_on_c, 9, 36, 0
5, 156848, Note_on_c, 9, 59, 0
5, 157016, Note_on_c, 9, 35, 47
5, 157016, Note_on_c, 9, 44, 82
5, 157032, Note_on_c, 9, 44, 0
5, 157032, Note_on_c, 9, 35, 0
5, 157036, Note_on_c, 9, 59, 67
5, 157165, Note_on_c, 9, 59, 0
5, 157385, Note_on_c, 9, 59, 55
5, 157400, Note_on_c, 9, 35, 47
5, 157408, Note_on_c, 9, 35, 0
5, 157537, Note_on_c, 9, 59, 0
5, 157663, Note_on_c, 9, 40, 68
5, 157663, Note_on_c, 9, 57, 47
5, 157691, Note_on_c, 9, 57, 0
5, 157740, Note_on_c, 9, 40, 0
5, 157775, Note_on_c, 9, 59, 101
5, 157784, Note_on_c, 9, 35, 47
5, 157784, Note_on_c, 9, 44, 82
5, 157788, Note_on_c, 9, 36, 48
5, 157796, Note_on_c, 9, 35, 0
5, 157800, Note_on_c, 9, 44, 0
5, 157986, Note_on_c, 9, 36, 0
5, 158000, Note_on_c, 9, 59, 0
5, 158168, Note_on_c, 9, 35, 47
5, 158175, Note_on_c, 9, 59, 64
5, 158176, Note_on_c, 9, 35, 0
5, 158300, Note_on_c, 9, 59, 0
5, 158552, Note_on_c, 9, 35, 47
5, 158552, Note_on_c, 9, 44, 82
5, 158560, Note_on_c, 9, 44, 0
5, 158560, Note_on_c, 9, 59, 80
5, 158564, Note_on_c, 9, 35, 0
5, 158705, Note_on_c, 9, 59, 0
5, 158841, Note_on_c, 9, 59, 53
5, 158903, Note_on_c, 9, 59, 0
5, 158936, Note_on_c, 9, 35, 47
5, 158944, Note_on_c, 9, 35, 0
5, 158961, Note_on_c, 9, 59, 75
5, 159073, Note_on_c, 9, 59, 0
5, 159320, Note_on_c, 9, 35, 47
5, 159320, Note_on_c, 9, 44, 82
5, 159325, Note_on_c, 9, 59, 91
5, 159332, Note_on_c, 9, 44, 0
5, 159332, Note_on_c, 9, 35, 0
5, 159460, Note_on_c, 9, 59, 0
5, 159614, Note_on_c, 9, 59, 61
5, 159656, Note_on_c, 9, 59, 0
5, 159704, Note_on_c, 9, 35, 47
5, 159708, Note_on_c, 9, 35, 0
5, 159730, Note_on_c, 9, 59, 78
5, 159848, Note_on_c, 9, 59, 0
5, 159968, Note_on_c, 9, 40, 34
5, 160006, Note_on_c, 9, 40, 0
5, 160088, Note_on_c, 9, 44, 82
5, 160092, Note_on_c, 9, 35, 47
5, 160096, Note_on_c, 9, 35, 0
5, 160096, Note_on_c, 9, 44, 0
5, 160113, Note_on_c, 9, 59, 88
5, 160216, Note_on_c, 9, 59, 0
5, 160468, Note_on_c, 9, 35, 47
5, 160480, Note_on_c, 9, 35, 0
5, 160505, Note_on_c, 9, 59, 76
5, 160586, Note_on_c, 9, 59, 0
5, 160792, Note_on_c, 9, 59, 81
5, 160856, Note_on_c, 9, 35, 47
5, 160860, Note_on_c, 9, 44, 82
5, 160861, Note_on_c, 9, 59, 0
5, 160861, Note_on_c, 9, 40, 55
5, 160868, Note_on_c, 9, 44, 0
5, 160872, Note_on_c, 9, 35, 0
5, 160897, Note_on_c, 9, 40, 0
5, 160916, Note_on_c, 9, 59, 99
5, 161082, Note_on_c, 9, 59, 0
5, 161140, Note_on_c, 9, 40, 46
5, 161174, Note_on_c, 9, 40, 0
5, 161236, Note_on_c, 9, 35, 47
5, 161244, Note_on_c, 9, 35, 0
5, 161245, Note_on_c, 9, 59, 68
5, 161317, Note_on_c, 9, 59, 0
5, 161404, Note_on_c, 9, 40, 57
5, 161436, Note_on_c, 9, 40, 0
5, 161462, Note_on_c, 9, 59, 91
5, 161554, Note_on_c, 9, 59, 0
5, 161624, Note_on_c, 9, 35, 47
5, 161624, Note_on_c, 9, 44, 82
5, 161632, Note_on_c, 9, 44, 0
5, 161632, Note_on_c, 9, 35, 0
5, 161669, Note_on_c, 9, 40, 78
5, 161708, Note_on_c, 9, 59, 94
5, 161713, Note_on_c, 9, 40, 0
5, 161820, Note_on_c, 9, 59, 0
5, 161933, Note_on_c, 9, 40, 85
5, 161972, Note_on_c, 9, 40, 0
5, 161994, Note_on_c, 9, 59, 91
5, 162004, Note_on_c, 9, 35, 47
5, 162012, Note_on_c, 9, 35, 0
5, 162083, Note_on_c, 9, 59, 0
5, 162177, Note_on_c, 9, 40, 74
5, 162260, Note_on_c, 9, 59, 87
5, 162261, Note_on_c, 9, 40, 0
5, 162344, Note_on_c, 9, 59, 0
5, 162392, Note_on_c, 9, 35, 47
5, 162392, Note_on_c, 9, 46, 62
5, 162408, Note_on_c, 9, 46, 0
5, 162408, Note_on_c, 9, 35, 0
5, 162451, Note_on_c, 9, 40, 79
5, 162494, Note_on_c, 9, 59, 89
5, 162542, Note_on_c, 9, 40, 0
5, 162582, Note_on_c, 9, 59, 0
5, 162664, Note_on_c, 9, 37, 76
5, 162667, Note_on_c, 9, 40, 71
5, 162692, Note_on_c, 9, 57, 94
5, 162731, Note_on_c, 9, 37, 0
5, 162735, Note_on_c, 9, 36, 53
5, 162756, Note_on_c, 9, 59, 96
5, 162780, Note_on_c, 9, 35, 40
5, 162796, Note_on_c, 9, 35, 0
5, 162814, Note_on_c, 9, 57, 0
5, 162919, Note_on_c, 9, 59, 0
5, 163128, Note_on_c, 9, 59, 76
5, 163164, Note_on_c, 9, 35, 47
5, 163164, Note_on_c, 9, 44, 82
5, 163180, Note_on_c, 9, 44, 0
5, 163180, Note_on_c, 9, 35, 0
5, 163224, Note_on_c, 9, 59, 0
5, 163396, Note_on_c, 9, 59, 72
5, 163466, Note_on_c, 9, 59, 0
5, 163523, Note_on_c, 9, 59, 75
5, 163548, Note_on_c, 9, 35, 47
5, 163556, Note_on_c, 9, 35, 0
5, 163631, Note_on_c, 9, 59, 0
5, 163789, Note_on_c, 9, 40, 0
5, 163902, Note_on_c, 9, 59, 88
5, 163920, Note_on_c, 9, 36, 0
5, 163924, Note_on_c, 9, 35, 47
5, 163932, Note_on_c, 9, 44, 82
5, 163935, Note_on_c, 9, 40, 33
5, 163936, Note_on_c, 9, 35, 0
5, 163940, Note_on_c, 9, 44, 0
5, 163982, Note_on_c, 9, 40, 0
5, 164009, Note_on_c, 9, 59, 0
5, 164176, Note_on_c, 9, 59, 68
5, 164194, Note_on_c, 9, 40, 26
5, 164233, Note_on_c, 9, 40, 0
5, 164234, Note_on_c, 9, 59, 0
5, 164292, Note_on_c, 9, 59, 70
5, 164312, Note_on_c, 9, 35, 47
5, 164316, Note_on_c, 9, 35, 0
5, 164336, Note_on_c, 9, 40, 36
5, 164386, Note_on_c, 9, 40, 0
5, 164415, Note_on_c, 9, 59, 0
5, 164664, Note_on_c, 9, 59, 89
5, 164692, Note_on_c, 9, 35, 47
5, 164700, Note_on_c, 9, 35, 0
5, 164700, Note_on_c, 9, 44, 82
5, 164704, Note_on_c, 9, 44, 0
5, 164772, Note_on_c, 9, 59, 0
5, 164958, Note_on_c, 9, 59, 71
5, 164999, Note_on_c, 9, 59, 0
5, 165072, Note_on_c, 9, 59, 74
5, 165080, Note_on_c, 9, 35, 47
5, 165084, Note_on_c, 9, 35, 0
5, 165183, Note_on_c, 9, 59, 0
5, 165462, Note_on_c, 9, 59, 88
5, 165468, Note_on_c, 9, 35, 47
5, 165468, Note_on_c, 9, 44, 82
5, 165480, Note_on_c, 9, 44, 0
5, 165480, Note_on_c, 9, 35, 0
5, 165485, Note_on_c, 9, 37, 33
5, 165540, Note_on_c, 9, 37, 0
5, 165583, Note_on_c, 9, 59, 0
5, 165747, Note_on_c, 9, 59, 65
5, 165785, Note_on_c, 9, 59, 0
5, 165844, Note_on_c, 9, 35, 47
5, 165856, Note_on_c, 9, 35, 0
5, 165866, Note_on_c, 9, 59, 68
5, 165964, Note_on_c, 9, 59, 0
5, 166228, Note_on_c, 9, 44, 82
5, 166236, Note_on_c, 9, 35, 47
5, 166240, Note_on_c, 9, 35, 0
5, 166240, Note_on_c, 9, 44, 0
5, 166252, Note_on_c, 9, 59, 84
5, 166340, Note_on_c, 9, 59, 0
5, 166518, Note_on_c, 9, 59, 66
5, 166556, Note_on_c, 9, 59, 0
5, 166616, Note_on_c, 9, 35, 47
5, 166624, Note_on_c, 9, 35, 0
5, 166642, Note_on_c, 9, 59, 81
5, 166729, Note_on_c, 9, 59, 0
5, 166996, Note_on_c, 9, 35, 47
5, 167000, Note_on_c, 9, 44, 82
5, 167003, Note_on_c, 9, 37, 79
5, 167004, Note_on_c, 9, 35, 0
5, 167008, Note_on_c, 9, 44, 0
5, 167029, Note_on_c, 9, 59, 87
5, 167123, Note_on_c, 9, 37, 0
5, 167146, Note_on_c, 9, 59, 0
5, 167381, Note_on_c, 9, 59, 73
5, 167384, Note_on_c, 9, 35, 47
5, 167392, Note_on_c, 9, 35, 0
5, 167428, Note_on_c, 9, 59, 0
5, 167495, Note_on_c, 9, 59, 88
5, 167567, Note_on_c, 9, 59, 0
5, 167764, Note_on_c, 9, 35, 47
5, 167772, Note_on_c, 9, 44, 82
5, 167776, Note_on_c, 9, 44, 0
5, 167776, Note_on_c, 9, 35, 0
5, 167818, Note_on_c, 9, 59, 91
5, 167965, Note_on_c, 9, 59, 0
5, 168148, Note_on_c, 9, 35, 47
5, 168156, Note_on_c, 9, 35, 0
5, 168217, Note_on_c, 9, 59, 35
5, 168265, Note_on_c, 9, 59, 0
5, 168320, Note_on_c, 9, 59, 90
5, 168413, Note_on_c, 9, 59, 0
5, 168532, Note_on_c, 9, 35, 47
5, 168532, Note_on_c, 9, 44, 82
5, 168544, Note_on_c, 9, 44, 0
5, 168544, Note_on_c, 9, 35, 0
5, 168613, Note_on_c, 9, 59, 92
5, 168764, Note_on_c, 9, 59, 0
5, 168809, Note_on_c, 9, 37, 64
5, 168893, Note_on_c, 9, 37, 0
5, 168920, Note_on_c, 9, 35, 47
5, 168922, Note_on_c, 9, 59, 88
5, 168924, Note_on_c, 9, 35, 0
5, 168960, Note_on_c, 9, 40, 39
5, 168997, Note_on_c, 9, 40, 0
5, 169114, Note_on_c, 9, 59, 0
5, 169300, Note_on_c, 9, 35, 47
5, 169300, Note_on_c, 9, 44, 82
5, 169308, Note_on_c, 9, 59, 82
5, 169316, Note_on_c, 9, 44, 0
5, 169316, Note_on_c, 9, 35, 0
5, 169414, Note_on_c, 9, 59, 0
5, 169684, Note_on_c, 9, 59, 87
5, 169688, Note_on_c, 9, 35, 47
5, 169696, Note_on_c, 9, 35, 0
5, 169828, Note_on_c, 9, 59, 0
5, 169950, Note_on_c, 9, 40, 68
5, 169977, Note_on_c, 9, 40, 0
5, 170059, Note_on_c, 9, 59, 75
5, 170068, Note_on_c, 9, 44, 82
5, 170072, Note_on_c, 9, 35, 47
5, 170084, Note_on_c, 9, 35, 0
5, 170088, Note_on_c, 9, 44, 0
5, 170171, Note_on_c, 9, 59, 0
5, 170443, Note_on_c, 9, 59, 82
5, 170456, Note_on_c, 9, 35, 47
5, 170460, Note_on_c, 9, 35, 0
5, 170548, Note_on_c, 9, 59, 0
5, 170823, Note_on_c, 9, 59, 81
5, 170840, Note_on_c, 9, 35, 47
5, 170840, Note_on_c, 9, 44, 82
5, 170856, Note_on_c, 9, 44, 0
5, 170860, Note_on_c, 9, 35, 0
5, 170935, Note_on_c, 9, 59, 0
5, 171105, Note_on_c, 9, 59, 64
5, 171140, Note_on_c, 9, 59, 0
5, 171197, Note_on_c, 9, 59, 74
5, 171228, Note_on_c, 9, 35, 47
5, 171232, Note_on_c, 9, 35, 0
5, 171319, Note_on_c, 9, 59, 0
5, 171458, Note_on_c, 9, 40, 44
5, 171492, Note_on_c, 9, 40, 0
5, 171587, Note_on_c, 9, 59, 84
5, 171608, Note_on_c, 9, 35, 47
5, 171608, Note_on_c, 9, 44, 82
5, 171620, Note_on_c, 9, 44, 0
5, 171624, Note_on_c, 9, 35, 0
5, 171688, Note_on_c, 9, 59, 0
5, 171871, Note_on_c, 9, 59, 64
5, 171906, Note_on_c, 9, 59, 0
5, 171967, Note_on_c, 9, 59, 76
5, 171992, Note_on_c, 9, 35, 47
5, 172000, Note_on_c, 9, 35, 0
5, 172066, Note_on_c, 9, 59, 0
5, 172360, Note_on_c, 9, 59, 85
5, 172372, Note_on_c, 9, 44, 82
5, 172384, Note_on_c, 9, 44, 0
5, 172384, Note_on_c, 9, 35, 47
5, 172384, Note_on_c, 9, 35, 0
5, 172471, Note_on_c, 9, 59, 0
5, 172651, Note_on_c, 9, 59, 67
5, 172687, Note_on_c, 9, 59, 0
5, 172756, Note_on_c, 9, 35, 47
5, 172766, Note_on_c, 9, 59, 72
5, 172768, Note_on_c, 9, 35, 0
5, 172855, Note_on_c, 9, 59, 0
5, 173144, Note_on_c, 9, 35, 47
5, 173145, Note_on_c, 9, 59, 99
5, 173148, Note_on_c, 9, 46, 62
5, 173160, Note_on_c, 9, 46, 0
5, 173160, Note_on_c, 9, 35, 0
5, 173326, Note_on_c, 9, 59, 0
5, 173384, Note_on_c, 9, 43, 39
5, 173420, Note_on_c, 9, 43, 0
5, 173528, Note_on_c, 9, 35, 47
5, 173536, Note_on_c, 9, 35, 0
5, 173540, Note_on_c, 9, 59, 62
5, 173581, Note_on_c, 9, 59, 0
5, 173812, Note_on_c, 9, 59, 74
5, 173847, Note_on_c, 9, 59, 0
5, 173908, Note_on_c, 9, 35, 47
5, 173916, Note_on_c, 9, 44, 82
5, 173920, Note_on_c, 9, 44, 0
5, 173924, Note_on_c, 9, 35, 0
5, 173939, Note_on_c, 9, 59, 88
5, 174193, Note_on_c, 9, 59, 0
5, 174296, Note_on_c, 9, 35, 47
5, 174300, Note_on_c, 9, 35, 0
5, 174303, Note_on_c, 9, 59, 47
5, 174386, Note_on_c, 9, 59, 0
5, 174550, Note_on_c, 9, 41, 34
5, 174584, Note_on_c, 9, 41, 0
5, 174676, Note_on_c, 9, 59, 90
5, 174684, Note_on_c, 9, 35, 47
5, 174684, Note_on_c, 9, 44, 82
5, 174696, Note_on_c, 9, 44, 0
5, 174696, Note_on_c, 9, 35, 0
5, 174795, Note_on_c, 9, 59, 0
5, 174954, Note_on_c, 9, 59, 66
5, 174956, Note_on_c, 9, 40, 71
5, 174990, Note_on_c, 9, 59, 0
5, 175014, Note_on_c, 9, 40, 0
5, 175062, Note_on_c, 9, 59, 69
5, 175068, Note_on_c, 9, 35, 40
5, 175084, Note_on_c, 9, 35, 0
5, 175101, Note_on_c, 9, 40, 32
5, 175183, Note_on_c, 9, 59, 0
5, 175247, Note_on_c, 9, 40, 0
5, 175445, Note_on_c, 9, 59, 90
5, 175452, Note_on_c, 9, 35, 47
5, 175452, Note_on_c, 9, 44, 82
5, 175468, Note_on_c, 9, 44, 0
5, 175468, Note_on_c, 9, 35, 0
5, 175563, Note_on_c, 9, 59, 0
5, 175726, Note_on_c, 9, 59, 62
5, 175760, Note_on_c, 9, 59, 0
5, 175836, Note_on_c, 9, 35, 47
5, 175839, Note_on_c, 9, 59, 64
5, 175852, Note_on_c, 9, 35, 0
5, 175931, Note_on_c, 9, 59, 0
5, 176212, Note_on_c, 9, 35, 47
5, 176219, Note_on_c, 9, 59, 84
5, 176220, Note_on_c, 9, 44, 82
5, 176224, Note_on_c, 9, 35, 0
5, 176228, Note_on_c, 9, 44, 0
5, 176318, Note_on_c, 9, 59, 0
5, 176489, Note_on_c, 9, 59, 68
5, 176525, Note_on_c, 9, 59, 0
5, 176596, Note_on_c, 9, 35, 47
5, 176603, Note_on_c, 9, 59, 71
5, 176604, Note_on_c, 9, 35, 0
5, 176700, Note_on_c, 9, 59, 0
5, 176839, Note_on_c, 9, 40, 36
5, 176877, Note_on_c, 9, 59, 71
5, 176881, Note_on_c, 9, 40, 0
5, 176912, Note_on_c, 9, 59, 0
5, 176973, Note_on_c, 9, 40, 31
5, 176980, Note_on_c, 9, 35, 47
5, 176983, Note_on_c, 9, 59, 74
5, 176984, Note_on_c, 9, 35, 0
5, 176988, Note_on_c, 9, 44, 82
5, 176988, Note_on_c, 9, 44, 0
5, 177019, Note_on_c, 9, 40, 0
5, 177082, Note_on_c, 9, 59, 0
5, 177368, Note_on_c, 9, 35, 47
5, 177369, Note_on_c, 9, 59, 89
5, 177372, Note_on_c, 9, 35, 0
5, 177466, Note_on_c, 9, 59, 0
5, 177638, Note_on_c, 9, 59, 64
5, 177641, Note_on_c, 9, 40, 38
5, 177674, Note_on_c, 9, 59, 0
5, 177725, Note_on_c, 9, 40, 0
5, 177748, Note_on_c, 9, 59, 62
5, 177748, Note_on_c, 9, 46, 62
5, 177752, Note_on_c, 9, 35, 47
5, 177764, Note_on_c, 9, 35, 0
5, 177764, Note_on_c, 9, 46, 0
5, 177811, Note_on_c, 9, 40, 27
5, 177825, Note_on_c, 9, 59, 0
5, 177861, Note_on_c, 9, 40, 0
5, 178016, Note_on_c, 9, 59, 94
5, 178132, Note_on_c, 9, 35, 47
5, 178140, Note_on_c, 9, 35, 0
5, 178201, Note_on_c, 9, 59, 0
5, 178369, Note_on_c, 9, 40, 43
5, 178407, Note_on_c, 9, 59, 55
5, 178427, Note_on_c, 9, 40, 0
5, 178442, Note_on_c, 9, 59, 0
5, 178516, Note_on_c, 9, 44, 82
5, 178524, Note_on_c, 9, 44, 0
5, 178524, Note_on_c, 9, 35, 47
5, 178524, Note_on_c, 9, 35, 0
5, 178525, Note_on_c, 9, 40, 36
5, 178560, Note_on_c, 9, 59, 85
5, 178606, Note_on_c, 9, 40, 0
5, 178719, Note_on_c, 9, 59, 0
5, 178904, Note_on_c, 9, 35, 47
5, 178912, Note_on_c, 9, 35, 0
5, 178922, Note_on_c, 9, 59, 70
5, 178949, Note_on_c, 9, 40, 24
5, 179003, Note_on_c, 9, 59, 0
5, 179008, Note_on_c, 9, 40, 0
5, 179162, Note_on_c, 9, 40, 45
5, 179167, Note_on_c, 9, 59, 92
5, 179200, Note_on_c, 9, 40, 0
5, 179284, Note_on_c, 9, 35, 47
5, 179288, Note_on_c, 9, 44, 82
5, 179292, Note_on_c, 9, 35, 0
5, 179296, Note_on_c, 9, 44, 0
5, 179306, Note_on_c, 9, 59, 0
5, 179522, Note_on_c, 9, 59, 74
5, 179541, Note_on_c, 9, 40, 50
5, 179558, Note_on_c, 9, 59, 0
5, 179590, Note_on_c, 9, 40, 0
5, 179672, Note_on_c, 9, 35, 47
5, 179680, Note_on_c, 9, 35, 0
5, 179685, Note_on_c, 9, 59, 96
5, 179715, Note_on_c, 9, 40, 51
5, 179809, Note_on_c, 9, 40, 0
5, 179842, Note_on_c, 9, 59, 0
5, 180041, Note_on_c, 9, 59, 55
5, 180052, Note_on_c, 9, 35, 47
5, 180060, Note_on_c, 9, 44, 82
5, 180068, Note_on_c, 9, 44, 0
5, 180068, Note_on_c, 9, 35, 0
5, 180078, Note_on_c, 9, 59, 0
5, 180253, Note_on_c, 9, 40, 63
5, 180292, Note_on_c, 9, 59, 95
5, 180329, Note_on_c, 9, 40, 0
5, 180436, Note_on_c, 9, 35, 47
5, 180448, Note_on_c, 9, 35, 0
5, 180458, Note_on_c, 9, 59, 0
5, 180467, Note_on_c, 9, 40, 47
5, 180503, Note_on_c, 9, 40, 0
5, 180673, Note_on_c, 9, 59, 47
5, 180716, Note_on_c, 9, 59, 0
5, 180820, Note_on_c, 9, 44, 82
5, 180824, Note_on_c, 9, 35, 47
5, 180829, Note_on_c, 9, 59, 99
5, 180832, Note_on_c, 9, 35, 0
5, 180832, Note_on_c, 9, 44, 0
5, 181068, Note_on_c, 9, 40, 76
5, 181077, Note_on_c, 9, 59, 0
5, 181146, Note_on_c, 9, 40, 0
5, 181171, Note_on_c, 9, 46, 69
5, 181208, Note_on_c, 9, 35, 47
5, 181212, Note_on_c, 9, 35, 0
5, 181232, Note_on_c, 9, 46, 0
5, 181438, Note_on_c, 9, 59, 96
5, 181588, Note_on_c, 9, 35, 47
5, 181588, Note_on_c, 9, 44, 82
5, 181608, Note_on_c, 9, 35, 0
5, 181612, Note_on_c, 9, 44, 0
5, 181614, Note_on_c, 9, 59, 0
5, 181846, Note_on_c, 9, 59, 60
5, 181881, Note_on_c, 9, 59, 0
5, 181972, Note_on_c, 9, 35, 47
5, 181980, Note_on_c, 9, 35, 0
5, 182000, Note_on_c, 9, 59, 80
5, 182178, Note_on_c, 9, 59, 0
5, 182360, Note_on_c, 9, 35, 47
5, 182360, Note_on_c, 9, 44, 82
5, 182376, Note_on_c, 9, 44, 0
5, 182376, Note_on_c, 9, 35, 0
5, 182380, Note_on_c, 9, 59, 80
5, 182501, Note_on_c, 9, 59, 0
5, 182645, Note_on_c, 9, 59, 55
5, 182681, Note_on_c, 9, 59, 0
5, 182739, Note_on_c, 9, 46, 49
5, 182741, Note_on_c, 9, 59, 74
5, 182744, Note_on_c, 9, 35, 47
5, 182748, Note_on_c, 9, 35, 0
5, 182775, Note_on_c, 9, 46, 0
5, 182866, Note_on_c, 9, 59, 0
5, 183109, Note_on_c, 9, 59, 82
5, 183128, Note_on_c, 9, 35, 47
5, 183128, Note_on_c, 9, 44, 82
5, 183144, Note_on_c, 9, 44, 0
5, 183144, Note_on_c, 9, 35, 0
5, 183224, Note_on_c, 9, 59, 0
5, 183400, Note_on_c, 9, 59, 47
5, 183443, Note_on_c, 9, 59, 0
5, 183502, Note_on_c, 9, 59, 79
5, 183512, Note_on_c, 9, 35, 47
5, 183516, Note_on_c, 9, 35, 0
5, 183632, Note_on_c, 9, 59, 0
5, 183883, Note_on_c, 9, 59, 85
5, 183900, Note_on_c, 9, 35, 47
5, 183900, Note_on_c, 9, 44, 82
5, 183908, Note_on_c, 9, 44, 0
5, 183912, Note_on_c, 9, 35, 0
5, 183950, Note_on_c, 9, 40, 50
5, 183989, Note_on_c, 9, 59, 0
5, 184002, Note_on_c, 9, 40, 0
5, 184079, Note_on_c, 9, 40, 55
5, 184109, Note_on_c, 9, 40, 0
5, 184176, Note_on_c, 9, 59, 57
5, 184211, Note_on_c, 9, 59, 0
5, 184277, Note_on_c, 9, 59, 66
5, 184280, Note_on_c, 9, 35, 47
5, 184288, Note_on_c, 9, 35, 0
5, 184379, Note_on_c, 9, 59, 0
5, 184654, Note_on_c, 9, 59, 82
5, 184668, Note_on_c, 9, 35, 47
5, 184668, Note_on_c, 9, 44, 82
5, 184672, Note_on_c, 9, 35, 0
5, 184676, Note_on_c, 9, 44, 0
5, 184784, Note_on_c, 9, 59, 0
5, 185044, Note_on_c, 9, 35, 47
5, 185053, Note_on_c, 9, 59, 78
5, 185056, Note_on_c, 9, 35, 0
5, 185119, Note_on_c, 9, 40, 38
5, 185156, Note_on_c, 9, 40, 0
5, 185161, Note_on_c, 9, 59, 0
5, 185229, Note_on_c, 9, 40, 20
5, 185257, Note_on_c, 9, 40, 0
5, 185428, Note_on_c, 9, 35, 47
5, 185430, Note_on_c, 9, 59, 81
5, 185432, Note_on_c, 9, 44, 82
5, 185436, Note_on_c, 9, 44, 0
5, 185440, Note_on_c, 9, 35, 0
5, 185541, Note_on_c, 9, 59, 0
5, 185816, Note_on_c, 9, 35, 47
5, 185826, Note_on_c, 9, 59, 79
5, 185828, Note_on_c, 9, 35, 0
5, 185928, Note_on_c, 9, 59, 0
5, 185966, Note_on_c, 9, 40, 51
5, 186004, Note_on_c, 9, 40, 0
5, 186080, Note_on_c, 9, 40, 42
5, 186115, Note_on_c, 9, 40, 0
5, 186186, Note_on_c, 9, 59, 78
5, 186196, Note_on_c, 9, 35, 47
5, 186204, Note_on_c, 9, 44, 82
5, 186204, Note_on_c, 9, 44, 0
5, 186208, Note_on_c, 9, 35, 0
5, 186210, Note_on_c, 9, 36, 42
5, 186288, Note_on_c, 9, 36, 0
5, 186297, Note_on_c, 9, 59, 0
5, 186550, Note_on_c, 9, 40, 35
5, 186561, Note_on_c, 9, 59, 79
5, 186580, Note_on_c, 9, 35, 47
5, 186588, Note_on_c, 9, 35, 0
5, 186615, Note_on_c, 9, 40, 0
5, 186670, Note_on_c, 9, 59, 0
5, 186682, Note_on_c, 9, 40, 47
5, 186714, Note_on_c, 9, 40, 0
5, 186823, Note_on_c, 9, 36, 44
5, 186863, Note_on_c, 9, 36, 0
5, 186947, Note_on_c, 9, 59, 81
5, 186968, Note_on_c, 9, 35, 47
5, 186968, Note_on_c, 9, 46, 62
5, 186976, Note_on_c, 9, 46, 0
5, 186976, Note_on_c, 9, 35, 0
5, 187050, Note_on_c, 9, 40, 55
5, 187058, Note_on_c, 9, 59, 0
5, 187095, Note_on_c, 9, 40, 0
5, 187160, Note_on_c, 9, 40, 58
5, 187217, Note_on_c, 9, 40, 0
5, 187290, Note_on_c, 9, 36, 51
5, 187330, Note_on_c, 9, 59, 80
5, 187356, Note_on_c, 9, 35, 40
5, 187364, Note_on_c, 9, 35, 0
5, 187391, Note_on_c, 9, 36, 0
5, 187446, Note_on_c, 9, 59, 0
5, 187659, Note_on_c, 9, 40, 55
5, 187690, Note_on_c, 9, 40, 0
5, 187709, Note_on_c, 9, 59, 66
5, 187740, Note_on_c, 9, 44, 82
5, 187748, Note_on_c, 9, 35, 47
5, 187753, Note_on_c, 9, 59, 0
5, 187756, Note_on_c, 9, 35, 0
5, 187756, Note_on_c, 9, 44, 0
5, 187794, Note_on_c, 9, 40, 34
5, 187841, Note_on_c, 9, 40, 0
5, 187869, Note_on_c, 9, 59, 63
5, 187904, Note_on_c, 9, 59, 0
5, 187933, Note_on_c, 9, 36, 55
5, 187977, Note_on_c, 9, 36, 0
5, 188117, Note_on_c, 9, 59, 72
5, 188124, Note_on_c, 9, 35, 47
5, 188140, Note_on_c, 9, 35, 0
5, 188194, Note_on_c, 9, 59, 0
5, 188265, Note_on_c, 9, 59, 80
5, 188347, Note_on_c, 9, 59, 0
5, 188500, Note_on_c, 9, 35, 47
5, 188512, Note_on_c, 9, 35, 0
5, 188512, Note_on_c, 9, 44, 82
5, 188516, Note_on_c, 9, 44, 0
5, 188518, Note_on_c, 9, 59, 78
5, 188593, Note_on_c, 9, 59, 0
5, 188865, Note_on_c, 9, 59, 83
5, 188888, Note_on_c, 9, 35, 47
5, 188892, Note_on_c, 9, 35, 0
5, 188999, Note_on_c, 9, 59, 0
5, 189264, Note_on_c, 9, 59, 80
5, 189272, Note_on_c, 9, 35, 47
5, 189276, Note_on_c, 9, 35, 0
5, 189276, Note_on_c, 9, 44, 82
5, 189284, Note_on_c, 9, 44, 0
5, 189374, Note_on_c, 9, 59, 0
5, 189639, Note_on_c, 9, 59, 79
5, 189660, Note_on_c, 9, 35, 47
5, 189664, Note_on_c, 9, 35, 0
5, 189751, Note_on_c, 9, 59, 0
5, 190023, Note_on_c, 9, 59, 82
5, 190040, Note_on_c, 9, 35, 47
5, 190040, Note_on_c, 9, 44, 82
5, 190052, Note_on_c, 9, 44, 0
5, 190052, Note_on_c, 9, 35, 0
5, 190107, Note_on_c, 9, 59, 0
5, 190287, Note_on_c, 9, 59, 71
5, 190291, Note_on_c, 9, 40, 37
5, 190329, Note_on_c, 9, 40, 0
5, 190373, Note_on_c, 9, 59, 0
5, 190414, Note_on_c, 9, 59, 71
5, 190424, Note_on_c, 9, 35, 47
5, 190428, Note_on_c, 9, 35, 0
5, 190553, Note_on_c, 9, 59, 0
5, 190797, Note_on_c, 9, 59, 89
5, 190804, Note_on_c, 9, 44, 82
5, 190816, Note_on_c, 9, 35, 47
5, 190816, Note_on_c, 9, 35, 0
5, 190820, Note_on_c, 9, 44, 0
5, 190916, Note_on_c, 9, 59, 0
5, 191089, Note_on_c, 9, 59, 55
5, 191132, Note_on_c, 9, 59, 0
5, 191192, Note_on_c, 9, 35, 47
5, 191196, Note_on_c, 9, 35, 0
5, 191218, Note_on_c, 9, 59, 71
5, 191297, Note_on_c, 9, 59, 0
5, 191558, Note_on_c, 9, 59, 94
5, 191576, Note_on_c, 9, 35, 47
5, 191580, Note_on_c, 9, 35, 0
5, 191580, Note_on_c, 9, 44, 82
5, 191584, Note_on_c, 9, 44, 0
5, 191655, Note_on_c, 9, 59, 0
5, 191843, Note_on_c, 9, 59, 70
5, 191913, Note_on_c, 9, 59, 0
5, 191960, Note_on_c, 9, 35, 47
5, 191964, Note_on_c, 9, 35, 0
5, 191985, Note_on_c, 9, 59, 71
5, 192035, Note_on_c, 9, 59, 0
5, 192340, Note_on_c, 9, 35, 47
5, 192348, Note_on_c, 9, 59, 84
5, 192348, Note_on_c, 9, 44, 82
5, 192348, Note_on_c, 9, 44, 0
5, 192352, Note_on_c, 9, 35, 0
5, 192424, Note_on_c, 9, 59, 0
5, 192619, Note_on_c, 9, 59, 87
5, 192717, Note_on_c, 9, 59, 0
5, 192724, Note_on_c, 9, 35, 47
5, 192732, Note_on_c, 9, 35, 0
5, 192928, Note_on_c, 9, 59, 71
5, 192984, Note_on_c, 9, 59, 0
5, 193053, Note_on_c, 9, 59, 85
5, 193108, Note_on_c, 9, 44, 82
5, 193112, Note_on_c, 9, 35, 47
5, 193121, Note_on_c, 9, 59, 0
5, 193124, Note_on_c, 9, 35, 0
5, 193124, Note_on_c, 9, 44, 0
5, 193182, Note_on_c, 9, 59, 84
5, 193298, Note_on_c, 9, 59, 0
5, 193411, Note_on_c, 9, 40, 41
5, 193447, Note_on_c, 9, 40, 0
5, 193496, Note_on_c, 9, 35, 47
5, 193500, Note_on_c, 9, 35, 0
5, 193503, Note_on_c, 9, 59, 91
5, 193536, Note_on_c, 9, 35, 40
5, 193544, Note_on_c, 9, 35, 0
5, 193679, Note_on_c, 9, 59, 0
5, 193884, Note_on_c, 9, 35, 47
5, 193884, Note_on_c, 9, 44, 82
5, 193888, Note_on_c, 9, 44, 0
5, 193888, Note_on_c, 9, 59, 80
5, 193892, Note_on_c, 9, 35, 0
5, 194022, Note_on_c, 9, 59, 0
5, 194268, Note_on_c, 9, 35, 47
5, 194283, Note_on_c, 9, 59, 78
5, 194284, Note_on_c, 9, 35, 0
5, 194383, Note_on_c, 9, 59, 0
5, 194550, Note_on_c, 9, 59, 66
5, 194585, Note_on_c, 9, 59, 0
5, 194648, Note_on_c, 9, 35, 47
5, 194652, Note_on_c, 9, 44, 82
5, 194656, Note_on_c, 9, 35, 0
5, 194658, Note_on_c, 9, 59, 78
5, 194660, Note_on_c, 9, 44, 0
5, 194821, Note_on_c, 9, 59, 0
5, 194915, Note_on_c, 9, 36, 62
5, 194980, Note_on_c, 9, 36, 0
5, 195032, Note_on_c, 9, 35, 47
5, 195036, Note_on_c, 9, 35, 0
5, 195050, Note_on_c, 9, 59, 63
5, 195061, Note_on_c, 9, 36, 37
5, 195085, Note_on_c, 9, 59, 0
5, 195233, Note_on_c, 9, 36, 0
5, 195316, Note_on_c, 9, 59, 82
5, 195321, Note_on_c, 9, 36, 33
5, 195362, Note_on_c, 9, 36, 0
5, 195390, Note_on_c, 9, 59, 0
5, 195416, Note_on_c, 9, 35, 47
5, 195416, Note_on_c, 9, 35, 0
5, 195420, Note_on_c, 9, 44, 82
5, 195420, Note_on_c, 9, 44, 0
5, 195435, Note_on_c, 9, 59, 85
5, 195618, Note_on_c, 9, 59, 0
5, 195800, Note_on_c, 9, 35, 47
5, 195804, Note_on_c, 9, 35, 0
5, 195811, Note_on_c, 9, 59, 61
5, 195853, Note_on_c, 9, 59, 0
5, 196073, Note_on_c, 9, 59, 90
5, 196100, Note_on_c, 9, 36, 36
5, 196136, Note_on_c, 9, 36, 0
5, 196184, Note_on_c, 9, 44, 82
5, 196188, Note_on_c, 9, 35, 47
5, 196196, Note_on_c, 9, 35, 0
5, 196200, Note_on_c, 9, 44, 0
5, 196262, Note_on_c, 9, 59, 0
5, 196455, Note_on_c, 9, 59, 64
5, 196490, Note_on_c, 9, 59, 0
5, 196564, Note_on_c, 9, 35, 47
5, 196576, Note_on_c, 9, 35, 0
5, 196616, Note_on_c, 9, 59, 90
5, 196818, Note_on_c, 9, 59, 0
5, 196948, Note_on_c, 9, 44, 82
5, 196956, Note_on_c, 9, 35, 47
5, 196960, Note_on_c, 9, 35, 0
5, 196960, Note_on_c, 9, 44, 0
5, 197006, Note_on_c, 9, 59, 35
5, 197055, Note_on_c, 9, 59, 0
5, 197222, Note_on_c, 9, 59, 91
5, 197336, Note_on_c, 9, 35, 47
5, 197340, Note_on_c, 9, 35, 0
5, 197408, Note_on_c, 9, 59, 0
5, 197602, Note_on_c, 9, 59, 62
5, 197641, Note_on_c, 9, 59, 0
5, 197716, Note_on_c, 9, 35, 47
5, 197720, Note_on_c, 9, 44, 82
5, 197724, Note_on_c, 9, 35, 0
5, 197728, Note_on_c, 9, 44, 0
5, 197745, Note_on_c, 9, 37, 95
5, 197779, Note_on_c, 9, 59, 95
5, 197892, Note_on_c, 9, 37, 0
5, 197985, Note_on_c, 9, 59, 0
5, 198104, Note_on_c, 9, 35, 47
5, 198116, Note_on_c, 9, 35, 0
5, 198138, Note_on_c, 9, 59, 65
5, 198254, Note_on_c, 9, 59, 0
5, 198411, Note_on_c, 9, 36, 27
5, 198465, Note_on_c, 9, 36, 0
5, 198484, Note_on_c, 9, 35, 47
5, 198488, Note_on_c, 9, 44, 82
5, 198492, Note_on_c, 9, 44, 0
5, 198496, Note_on_c, 9, 35, 0
5, 198509, Note_on_c, 9, 59, 83
5, 198617, Note_on_c, 9, 59, 0
5, 198757, Note_on_c, 9, 36, 53
5, 198782, Note_on_c, 9, 59, 56
5, 198807, Note_on_c, 9, 36, 0
5, 198818, Note_on_c, 9, 59, 0
5, 198868, Note_on_c, 9, 35, 47
5, 198876, Note_on_c, 9, 35, 0
5, 198880, Note_on_c, 9, 59, 71
5, 199021, Note_on_c, 9, 59, 0
5, 199129, Note_on_c, 9, 36, 22
5, 199157, Note_on_c, 9, 36, 0
5, 199242, Note_on_c, 9, 46, 59
5, 199252, Note_on_c, 9, 46, 62
5, 199255, Note_on_c, 9, 59, 81
5, 199256, Note_on_c, 9, 35, 47
5, 199262, Note_on_c, 9, 37, 93
5, 199264, Note_on_c, 9, 35, 0
5, 199264, Note_on_c, 9, 46, 0
5, 199281, Note_on_c, 9, 46, 0
5, 199388, Note_on_c, 9, 59, 0
5, 199421, Note_on_c, 9, 37, 0
5, 199531, Note_on_c, 9, 59, 68
5, 199579, Note_on_c, 9, 59, 0
5, 199640, Note_on_c, 9, 35, 47
5, 199648, Note_on_c, 9, 35, 0
5, 199653, Note_on_c, 9, 59, 74
5, 199754, Note_on_c, 9, 59, 0
5, 200024, Note_on_c, 9, 59, 88
5, 200024, Note_on_c, 9, 35, 47
5, 200024, Note_on_c, 9, 44, 82
5, 200040, Note_on_c, 9, 44, 0
5, 200040, Note_on_c, 9, 35, 0
5, 200165, Note_on_c, 9, 59, 0
5, 200408, Note_on_c, 9, 35, 47
5, 200416, Note_on_c, 9, 35, 0
5, 200419, Note_on_c, 9, 59, 74
5, 200470, Note_on_c, 9, 59, 0
5, 200792, Note_on_c, 9, 35, 47
5, 200792, Note_on_c, 9, 44, 82
5, 200798, Note_on_c, 9, 59, 96
5, 200804, Note_on_c, 9, 35, 0
5, 200808, Note_on_c, 9, 44, 0
5, 200812, Note_on_c, 9, 37, 81
5, 200965, Note_on_c, 9, 59, 0
5, 200994, Note_on_c, 9, 37, 0
5, 201176, Note_on_c, 9, 35, 47
5, 201184, Note_on_c, 9, 35, 0
5, 201191, Note_on_c, 9, 59, 48
5, 201251, Note_on_c, 9, 59, 0
5, 201446, Note_on_c, 9, 37, 21
5, 201468, Note_on_c, 9, 59, 80
5, 201475, Note_on_c, 9, 37, 0
5, 201534, Note_on_c, 9, 59, 0
5, 201560, Note_on_c, 9, 35, 47
5, 201560, Note_on_c, 9, 44, 82
5, 201568, Note_on_c, 9, 44, 0
5, 201572, Note_on_c, 9, 35, 0
5, 201577, Note_on_c, 9, 45, 36
5, 201592, Note_on_c, 9, 59, 85
5, 201631, Note_on_c, 9, 45, 0
5, 201760, Note_on_c, 9, 59, 0
5, 201817, Note_on_c, 9, 45, 92
5, 201934, Note_on_c, 9, 45, 0
5, 201944, Note_on_c, 9, 35, 47
5, 201952, Note_on_c, 9, 35, 0
5, 201953, Note_on_c, 9, 59, 67
5, 202017, Note_on_c, 9, 59, 0
5, 202239, Note_on_c, 9, 59, 82
5, 202302, Note_on_c, 9, 59, 0
5, 202324, Note_on_c, 9, 37, 82
5, 202328, Note_on_c, 9, 35, 47
5, 202328, Note_on_c, 9, 44, 82
5, 202340, Note_on_c, 9, 44, 0
5, 202340, Note_on_c, 9, 35, 0
5, 202348, Note_on_c, 9, 59, 80
5, 202365, Note_on_c, 9, 51, 51
5, 202367, Note_on_c, 9, 46, 57
5, 202393, Note_on_c, 9, 51, 0
5, 202401, Note_on_c, 9, 46, 0
5, 202444, Note_on_c, 9, 37, 0
5, 202544, Note_on_c, 9, 59, 0
5, 202712, Note_on_c, 9, 35, 47
5, 202716, Note_on_c, 9, 35, 0
5, 202727, Note_on_c, 9, 59, 76
5, 202831, Note_on_c, 9, 59, 0
5, 203096, Note_on_c, 9, 44, 82
5, 203100, Note_on_c, 9, 59, 85
5, 203100, Note_on_c, 9, 35, 47
5, 203104, Note_on_c, 9, 35, 0
5, 203104, Note_on_c, 9, 44, 0
5, 203148, Note_on_c, 9, 43, 26
5, 203209, Note_on_c, 9, 43, 0
5, 203210, Note_on_c, 9, 59, 0
5, 203390, Note_on_c, 9, 59, 67
5, 203395, Note_on_c, 9, 43, 90
5, 203424, Note_on_c, 9, 59, 0
5, 203476, Note_on_c, 9, 35, 47
5, 203488, Note_on_c, 9, 35, 0
5, 203503, Note_on_c, 9, 59, 74
5, 203524, Note_on_c, 9, 43, 0
5, 203640, Note_on_c, 9, 59, 0
5, 203864, Note_on_c, 9, 35, 47
5, 203868, Note_on_c, 9, 44, 82
5, 203876, Note_on_c, 9, 44, 0
5, 203880, Note_on_c, 9, 35, 0
5, 203881, Note_on_c, 9, 57, 2
5, 203902, Note_on_c, 9, 37, 82
5, 203903, Note_on_c, 9, 59, 85
5, 203911, Note_on_c, 9, 57, 0
5, 204004, Note_on_c, 9, 59, 0
5, 204013, Note_on_c, 9, 37, 0
5, 204209, Note_on_c, 9, 59, 58
5, 204244, Note_on_c, 9, 59, 0
5, 204244, Note_on_c, 9, 35, 47
5, 204252, Note_on_c, 9, 35, 0
5, 204289, Note_on_c, 9, 59, 71
5, 204384, Note_on_c, 9, 59, 0
5, 204553, Note_on_c, 9, 37, 32
5, 204580, Note_on_c, 9, 37, 0
5, 204632, Note_on_c, 9, 35, 47
5, 204632, Note_on_c, 9, 44, 82
5, 204640, Note_on_c, 9, 44, 0
5, 204640, Note_on_c, 9, 35, 0
5, 204652, Note_on_c, 9, 59, 92
5, 204690, Note_on_c, 9, 45, 34
5, 204742, Note_on_c, 9, 59, 0
5, 204743, Note_on_c, 9, 45, 0
5, 204928, Note_on_c, 9, 45, 99
5, 205012, Note_on_c, 9, 35, 47
5, 205020, Note_on_c, 9, 35, 0
5, 205036, Note_on_c, 9, 59, 91
5, 205085, Note_on_c, 9, 45, 0
5, 205148, Note_on_c, 9, 59, 0
5, 205400, Note_on_c, 9, 35, 47
5, 205400, Note_on_c, 9, 46, 62
5, 205416, Note_on_c, 9, 46, 0
5, 205416, Note_on_c, 9, 35, 0
5, 205426, Note_on_c, 9, 37, 84
5, 205429, Note_on_c, 9, 59, 90
5, 205528, Note_on_c, 9, 59, 0
5, 205548, Note_on_c, 9, 37, 0
5, 205788, Note_on_c, 9, 35, 40
5, 205804, Note_on_c, 9, 35, 0
5, 205821, Note_on_c, 9, 59, 94
5, 205944, Note_on_c, 9, 59, 0
5, 206172, Note_on_c, 9, 35, 47
5, 206172, Note_on_c, 9, 44, 82
5, 206188, Note_on_c, 9, 44, 0
5, 206188, Note_on_c, 9, 35, 0
5, 206224, Note_on_c, 9, 59, 84
5, 206328, Note_on_c, 9, 59, 0
5, 206486, Note_on_c, 9, 59, 68
5, 206556, Note_on_c, 9, 35, 47
5, 206564, Note_on_c, 9, 35, 0
5, 206601, Note_on_c, 9, 59, 0
5, 206618, Note_on_c, 9, 59, 84
5, 206700, Note_on_c, 9, 59, 0
5, 206932, Note_on_c, 9, 35, 47
5, 206935, Note_on_c, 9, 57, 20
5, 206940, Note_on_c, 9, 44, 82
5, 206944, Note_on_c, 9, 35, 0
5, 206948, Note_on_c, 9, 44, 0
5, 206967, Note_on_c, 9, 57, 0
5, 206970, Note_on_c, 9, 59, 85
5, 207064, Note_on_c, 9, 59, 0
5, 207320, Note_on_c, 9, 35, 47
5, 207324, Note_on_c, 9, 35, 0
5, 207348, Note_on_c, 9, 59, 83
5, 207447, Note_on_c, 9, 59, 0
5, 207600, Note_on_c, 9, 40, 49
5, 207636, Note_on_c, 9, 40, 0
5, 207700, Note_on_c, 9, 35, 47
5, 207708, Note_on_c, 9, 35, 0
5, 207708, Note_on_c, 9, 44, 82
5, 207712, Note_on_c, 9, 44, 0
5, 207726, Note_on_c, 9, 40, 34
5, 207728, Note_on_c, 9, 59, 88
5, 207780, Note_on_c, 9, 40, 0
5, 207832, Note_on_c, 9, 59, 0
5, 208088, Note_on_c, 9, 35, 47
5, 208092, Note_on_c, 9, 35, 0
5, 208106, Note_on_c, 9, 59, 82
5, 208183, Note_on_c, 9, 59, 0
5, 208367, Note_on_c, 9, 59, 74
5, 208403, Note_on_c, 9, 59, 0
5, 208476, Note_on_c, 9, 35, 47
5, 208476, Note_on_c, 9, 44, 82
5, 208480, Note_on_c, 9, 59, 75
5, 208488, Note_on_c, 9, 44, 0
5, 208488, Note_on_c, 9, 35, 0
5, 208580, Note_on_c, 9, 59, 0
5, 208725, Note_on_c, 9, 59, 80
5, 208752, Note_on_c, 9, 57, 39
5, 208789, Note_on_c, 9, 57, 0
5, 208852, Note_on_c, 9, 35, 47
5, 208864, Note_on_c, 9, 35, 0
5, 208931, Note_on_c, 9, 59, 0
5, 209112, Note_on_c, 9, 59, 71
5, 209157, Note_on_c, 9, 59, 0
5, 209236, Note_on_c, 9, 44, 82
5, 209238, Note_on_c, 9, 59, 79
5, 209244, Note_on_c, 9, 35, 47
5, 209248, Note_on_c, 9, 35, 0
5, 209248, Note_on_c, 9, 44, 0
5, 209353, Note_on_c, 9, 59, 0
5, 209607, Note_on_c, 9, 59, 84
5, 209624, Note_on_c, 9, 35, 47
5, 209632, Note_on_c, 9, 35, 0
5, 209734, Note_on_c, 9, 40, 43
5, 209736, Note_on_c, 9, 59, 0
5, 209768, Note_on_c, 9, 40, 0
5, 209986, Note_on_c, 9, 59, 87
5, 209992, Note_on_c, 9, 40, 54
5, 210004, Note_on_c, 9, 35, 47
5, 210008, Note_on_c, 9, 44, 82
5, 210012, Note_on_c, 9, 35, 0
5, 210016, Note_on_c, 9, 44, 0
5, 210044, Note_on_c, 9, 40, 0
5, 210092, Note_on_c, 9, 59, 0
5, 210256, Note_on_c, 9, 40, 46
5, 210269, Note_on_c, 9, 59, 61
5, 210295, Note_on_c, 9, 40, 0
5, 210304, Note_on_c, 9, 59, 0
5, 210378, Note_on_c, 9, 59, 67
5, 210392, Note_on_c, 9, 35, 47
5, 210400, Note_on_c, 9, 35, 0
5, 210490, Note_on_c, 9, 59, 0
5, 210503, Note_on_c, 9, 40, 36
5, 210514, Note_on_c, 9, 46, 73
5, 210542, Note_on_c, 9, 40, 0
5, 210571, Note_on_c, 9, 46, 0
5, 210741, Note_on_c, 9, 59, 88
5, 210762, Note_on_c, 9, 40, 53
5, 210772, Note_on_c, 9, 35, 47
5, 210780, Note_on_c, 9, 44, 82
5, 210784, Note_on_c, 9, 44, 0
5, 210784, Note_on_c, 9, 35, 0
5, 210784, Note_on_c, 9, 46, 87
5, 210833, Note_on_c, 9, 40, 0
5, 210848, Note_on_c, 9, 59, 0
5, 210915, Note_on_c, 9, 46, 0
5, 211009, Note_on_c, 9, 40, 54
5, 211035, Note_on_c, 9, 46, 84
5, 211049, Note_on_c, 9, 40, 0
5, 211129, Note_on_c, 9, 59, 83
5, 211142, Note_on_c, 9, 46, 0
5, 211156, Note_on_c, 9, 35, 47
5, 211164, Note_on_c, 9, 35, 0
5, 211260, Note_on_c, 9, 40, 57
5, 211276, Note_on_c, 9, 46, 82
5, 211277, Note_on_c, 9, 59, 0
5, 211333, Note_on_c, 9, 40, 0
5, 211391, Note_on_c, 9, 46, 0
5, 211430, Note_on_c, 9, 37, 33
5, 211470, Note_on_c, 9, 37, 0
5, 211512, Note_on_c, 9, 59, 85
5, 211532, Note_on_c, 9, 40, 59
5, 211532, Note_on_c, 9, 46, 85
5, 211540, Note_on_c, 9, 35, 47
5, 211540, Note_on_c, 9, 44, 82
5, 211552, Note_on_c, 9, 44, 0
5, 211552, Note_on_c, 9, 35, 0
5, 211614, Note_on_c, 9, 40, 0
5, 211620, Note_on_c, 9, 59, 0
5, 211633, Note_on_c, 9, 46, 0
5, 211763, Note_on_c, 9, 40, 64
5, 211790, Note_on_c, 9, 46, 95
5, 211819, Note_on_c, 9, 40, 0
5, 211889, Note_on_c, 9, 46, 0
5, 211928, Note_on_c, 9, 35, 47
5, 211932, Note_on_c, 9, 35, 0
5, 211940, Note_on_c, 9, 46, 64
5, 211989, Note_on_c, 9, 46, 0
5, 212005, Note_on_c, 9, 59, 85
5, 212011, Note_on_c, 9, 40, 60
5, 212023, Note_on_c, 9, 59, 0
5, 212071, Note_on_c, 9, 40, 0
5, 212194, Note_on_c, 9, 40, 63
5, 212228, Note_on_c, 9, 40, 0
5, 212277, Note_on_c, 9, 59, 82
5, 212308, Note_on_c, 9, 35, 47
5, 212308, Note_on_c, 9, 44, 82
5, 212324, Note_on_c, 9, 44, 0
5, 212324, Note_on_c, 9, 35, 0
5, 212380, Note_on_c, 9, 59, 0
5, 212656, Note_on_c, 9, 59, 82
5, 212696, Note_on_c, 9, 35, 47
5, 212704, Note_on_c, 9, 35, 0
5, 212763, Note_on_c, 9, 59, 0
5, 213050, Note_on_c, 9, 59, 81
5, 213076, Note_on_c, 9, 44, 82
5, 213080, Note_on_c, 9, 35, 47
5, 213092, Note_on_c, 9, 35, 0
5, 213096, Note_on_c, 9, 44, 0
5, 213149, Note_on_c, 9, 59, 0
5, 213322, Note_on_c, 9, 40, 62
5, 213355, Note_on_c, 9, 59, 65
5, 213359, Note_on_c, 9, 40, 0
5, 213392, Note_on_c, 9, 59, 0
5, 213464, Note_on_c, 9, 35, 47
5, 213468, Note_on_c, 9, 35, 0
5, 213473, Note_on_c, 9, 59, 74
5, 213575, Note_on_c, 9, 40, 71
5, 213586, Note_on_c, 9, 59, 0
5, 213696, Note_on_c, 9, 40, 0
5, 213835, Note_on_c, 9, 59, 89
5, 213836, Note_on_c, 9, 40, 66
5, 213848, Note_on_c, 9, 35, 47
5, 213848, Note_on_c, 9, 44, 82
5, 213864, Note_on_c, 9, 44, 0
5, 213868, Note_on_c, 9, 35, 0
5, 213972, Note_on_c, 9, 40, 0
5, 213995, Note_on_c, 9, 59, 0
5, 214104, Note_on_c, 9, 40, 63
5, 214111, Note_on_c, 9, 59, 80
5, 214202, Note_on_c, 9, 40, 0
5, 214236, Note_on_c, 9, 35, 47
5, 214240, Note_on_c, 9, 35, 0
5, 214243, Note_on_c, 9, 59, 0
5, 214369, Note_on_c, 9, 59, 87
5, 214508, Note_on_c, 9, 59, 0
5, 214616, Note_on_c, 9, 35, 47
5, 214616, Note_on_c, 9, 44, 82
5, 214628, Note_on_c, 9, 44, 0
5, 214632, Note_on_c, 9, 35, 0
5, 214641, Note_on_c, 9, 59, 89
5, 214760, Note_on_c, 9, 59, 0
5, 214910, Note_on_c, 9, 59, 85
5, 214976, Note_on_c, 9, 59, 0
5, 215000, Note_on_c, 9, 35, 47
5, 215008, Note_on_c, 9, 35, 0
5, 215047, Note_on_c, 9, 59, 80
5, 215253, Note_on_c, 9, 59, 0
5, 215380, Note_on_c, 9, 44, 82
5, 215392, Note_on_c, 9, 44, 0
5, 215392, Note_on_c, 9, 35, 47
5, 215392, Note_on_c, 9, 35, 0
5, 215405, Note_on_c, 9, 59, 88
5, 215548, Note_on_c, 9, 59, 0
5, 215691, Note_on_c, 9, 59, 69
5, 215727, Note_on_c, 9, 59, 0
5, 215764, Note_on_c, 9, 35, 47
5, 215776, Note_on_c, 9, 35, 0
5, 215785, Note_on_c, 9, 40, 27
5, 215804, Note_on_c, 9, 59, 77
5, 215818, Note_on_c, 9, 40, 0
5, 215925, Note_on_c, 9, 59, 0
5, 216152, Note_on_c, 9, 35, 47
5, 216156, Note_on_c, 9, 46, 62
5, 216168, Note_on_c, 9, 46, 0
5, 216168, Note_on_c, 9, 35, 0
5, 216177, Note_on_c, 9, 59, 90
5, 216307, Note_on_c, 9, 59, 0
5, 216454, Note_on_c, 9, 59, 84
5, 216526, Note_on_c, 9, 59, 0
5, 216536, Note_on_c, 9, 35, 47
5, 216544, Note_on_c, 9, 35, 0
5, 216595, Note_on_c, 9, 59, 68
5, 216677, Note_on_c, 9, 59, 0
5, 216916, Note_on_c, 9, 35, 47
5, 216924, Note_on_c, 9, 44, 82
5, 216928, Note_on_c, 9, 44, 0
5, 216932, Note_on_c, 9, 35, 0
5, 216976, Note_on_c, 9, 59, 92
5, 217191, Note_on_c, 9, 36, 44
5, 217204, Note_on_c, 9, 59, 0
5, 217243, Note_on_c, 9, 36, 0
5, 217298, Note_on_c, 9, 36, 26
5, 217304, Note_on_c, 9, 35, 47
5, 217308, Note_on_c, 9, 35, 0
5, 217363, Note_on_c, 9, 59, 70
5, 217402, Note_on_c, 9, 59, 0
5, 217510, Note_on_c, 9, 36, 0
5, 217581, Note_on_c, 9, 36, 62
5, 217617, Note_on_c, 9, 59, 72
5, 217650, Note_on_c, 9, 36, 0
5, 217692, Note_on_c, 9, 35, 47
5, 217692, Note_on_c, 9, 44, 82
5, 217704, Note_on_c, 9, 44, 0
5, 217704, Note_on_c, 9, 35, 0
5, 217706, Note_on_c, 9, 59, 0
5, 217741, Note_on_c, 9, 59, 77
5, 217960, Note_on_c, 9, 36, 60
5, 218002, Note_on_c, 9, 36, 0
5, 218008, Note_on_c, 9, 59, 0
5, 218076, Note_on_c, 9, 36, 59
5, 218076, Note_on_c, 9, 35, 40
5, 218092, Note_on_c, 9, 35, 0
5, 218099, Note_on_c, 9, 59, 66
5, 218179, Note_on_c, 9, 59, 0
5, 218250, Note_on_c, 9, 36, 0
5, 218371, Note_on_c, 9, 59, 61
5, 218414, Note_on_c, 9, 59, 0
5, 218460, Note_on_c, 9, 35, 47
5, 218460, Note_on_c, 9, 44, 82
5, 218476, Note_on_c, 9, 44, 0
5, 218476, Note_on_c, 9, 35, 0
5, 218477, Note_on_c, 9, 59, 83
5, 218588, Note_on_c, 9, 59, 0
5, 218723, Note_on_c, 9, 36, 60
5, 218767, Note_on_c, 9, 36, 0
5, 218844, Note_on_c, 9, 36, 59
5, 218844, Note_on_c, 9, 35, 47
5, 218860, Note_on_c, 9, 35, 0
5, 218878, Note_on_c, 9, 59, 79
5, 218955, Note_on_c, 9, 59, 0
5, 219086, Note_on_c, 9, 36, 0
5, 219220, Note_on_c, 9, 35, 47
5, 219228, Note_on_c, 9, 44, 82
5, 219232, Note_on_c, 9, 35, 0
5, 219235, Note_on_c, 9, 59, 82
5, 219236, Note_on_c, 9, 44, 0
5, 219326, Note_on_c, 9, 59, 0
5, 219513, Note_on_c, 9, 59, 65
5, 219564, Note_on_c, 9, 59, 0
5, 219604, Note_on_c, 9, 35, 47
5, 219612, Note_on_c, 9, 35, 0
5, 219642, Note_on_c, 9, 59, 76
5, 219745, Note_on_c, 9, 40, 50
5, 219759, Note_on_c, 9, 59, 0
5, 219788, Note_on_c, 9, 40, 0
5, 219988, Note_on_c, 9, 35, 47
5, 219992, Note_on_c, 9, 35, 0
5, 219996, Note_on_c, 9, 44, 82
5, 219996, Note_on_c, 9, 44, 0
5, 220012, Note_on_c, 9, 36, 50
5, 220085, Note_on_c, 9, 36, 0
5, 220097, Note_on_c, 9, 59, 83
5, 220097, Note_on_c, 9, 59, 0
5, 220260, Note_on_c, 9, 59, 62
5, 220276, Note_on_c, 9, 36, 46
5, 220313, Note_on_c, 9, 59, 0
5, 220324, Note_on_c, 9, 36, 0
5, 220376, Note_on_c, 9, 35, 47
5, 220380, Note_on_c, 9, 35, 0
5, 220391, Note_on_c, 9, 59, 79
5, 220503, Note_on_c, 9, 59, 0
5, 220754, Note_on_c, 9, 59, 83
5, 220756, Note_on_c, 9, 46, 62
5, 220760, Note_on_c, 9, 35, 47
5, 220772, Note_on_c, 9, 35, 0
5, 220772, Note_on_c, 9, 46, 0
5, 220851, Note_on_c, 9, 59, 0
5, 221018, Note_on_c, 9, 59, 67
5, 221102, Note_on_c, 9, 59, 0
5, 221140, Note_on_c, 9, 35, 47
5, 221148, Note_on_c, 9, 35, 0
5, 221162, Note_on_c, 9, 59, 82
5, 221251, Note_on_c, 9, 59, 0
5, 221524, Note_on_c, 9, 44, 82
5, 221532, Note_on_c, 9, 44, 0
5, 221532, Note_on_c, 9, 35, 47
5, 221532, Note_on_c, 9, 35, 0
5, 221568, Note_on_c, 9, 59, 62
5, 221568, Note_on_c, 9, 59, 0
5, 221788, Note_on_c, 9, 59, 80
5, 221833, Note_on_c, 9, 36, 53
5, 221866, Note_on_c, 9, 36, 0
5, 221912, Note_on_c, 9, 35, 47
5, 221915, Note_on_c, 9, 59, 0
5, 221920, Note_on_c, 9, 35, 0
5, 221954, Note_on_c, 9, 36, 32
5, 222016, Note_on_c, 9, 36, 0
5, 222173, Note_on_c, 9, 59, 58
5, 222251, Note_on_c, 9, 59, 0
5, 222292, Note_on_c, 9, 35, 47
5, 222296, Note_on_c, 9, 44, 82
5, 222300, Note_on_c, 9, 35, 0
5, 222304, Note_on_c, 9, 44, 0
5, 222320, Note_on_c, 9, 59, 88
5, 222508, Note_on_c, 9, 59, 0
5, 222573, Note_on_c, 9, 40, 58
5, 222609, Note_on_c, 9, 40, 0
5, 222663, Note_on_c, 9, 59, 61
5, 222680, Note_on_c, 9, 35, 47
5, 222688, Note_on_c, 9, 35, 0
5, 222704, Note_on_c, 9, 59, 0
5, 222820, Note_on_c, 9, 40, 34
5, 222866, Note_on_c, 9, 40, 0
5, 222895, Note_on_c, 9, 40, 26
5, 222906, Note_on_c, 9, 59, 92
5, 222947, Note_on_c, 9, 40, 0
5, 223014, Note_on_c, 9, 40, 57
5, 223060, Note_on_c, 9, 35, 47
5, 223066, Note_on_c, 9, 40, 0
5, 223068, Note_on_c, 9, 44, 82
5, 223076, Note_on_c, 9, 44, 0
5, 223076, Note_on_c, 9, 35, 0
5, 223093, Note_on_c, 9, 59, 0
5, 223274, Note_on_c, 9, 59, 62
5, 223297, Note_on_c, 9, 40, 44
5, 223315, Note_on_c, 9, 59, 0
5, 223343, Note_on_c, 9, 40, 0
5, 223444, Note_on_c, 9, 35, 47
5, 223451, Note_on_c, 9, 59, 95
5, 223456, Note_on_c, 9, 35, 0
5, 223548, Note_on_c, 9, 40, 32
5, 223600, Note_on_c, 9, 40, 0
5, 223615, Note_on_c, 9, 59, 0
5, 223642, Note_on_c, 9, 40, 17
5, 223716, Note_on_c, 9, 40, 0
5, 223778, Note_on_c, 9, 40, 54
5, 223816, Note_on_c, 9, 40, 0
5, 223821, Note_on_c, 9, 59, 57
5, 223828, Note_on_c, 9, 44, 82
5, 223832, Note_on_c, 9, 35, 47
5, 223840, Note_on_c, 9, 35, 0
5, 223840, Note_on_c, 9, 44, 0
5, 223860, Note_on_c, 9, 59, 0
5, 224068, Note_on_c, 9, 59, 94
5, 224216, Note_on_c, 9, 35, 47
5, 224220, Note_on_c, 9, 35, 0
5, 224270, Note_on_c, 9, 59, 0
5, 224446, Note_on_c, 9, 59, 62
5, 224484, Note_on_c, 9, 59, 0
5, 224596, Note_on_c, 9, 35, 47
5, 224596, Note_on_c, 9, 44, 82
5, 224607, Note_on_c, 9, 59, 87
5, 224616, Note_on_c, 9, 35, 0
5, 224620, Note_on_c, 9, 44, 0
5, 224785, Note_on_c, 9, 59, 0
5, 224980, Note_on_c, 9, 35, 47
5, 224988, Note_on_c, 9, 35, 0
5, 225094, Note_on_c, 9, 59, 68
5, 225094, Note_on_c, 9, 59, 0
5, 225337, Note_on_c, 9, 59, 85
5, 225368, Note_on_c, 9, 35, 47
5, 225368, Note_on_c, 9, 44, 82
5, 225384, Note_on_c, 9, 44, 0
5, 225384, Note_on_c, 9, 35, 0
5, 225385, Note_on_c, 9, 36, 54
5, 225437, Note_on_c, 9, 59, 0
5, 225541, Note_on_c, 9, 36, 0
5, 225640, Note_on_c, 9, 36, 64
5, 225719, Note_on_c, 9, 36, 0
5, 225723, Note_on_c, 9, 59, 87
5, 225752, Note_on_c, 9, 35, 47
5, 225756, Note_on_c, 9, 35, 0
5, 225873, Note_on_c, 9, 59, 0
5, 226112, Note_on_c, 9, 59, 82
5, 226136, Note_on_c, 9, 35, 47
5, 226136, Note_on_c, 9, 44, 82
5, 226152, Note_on_c, 9, 44, 0
5, 226152, Note_on_c, 9, 35, 0
5, 226236, Note_on_c, 9, 59, 0
5, 226430, Note_on_c, 9, 40, 31
5, 226486, Note_on_c, 9, 40, 0
5, 226504, Note_on_c, 9, 59, 83
5, 226520, Note_on_c, 9, 35, 47
5, 226524, Note_on_c, 9, 35, 0
5, 226544, Note_on_c, 9, 40, 61
5, 226619, Note_on_c, 9, 40, 0
5, 226639, Note_on_c, 9, 59, 0
5, 226835, Note_on_c, 9, 40, 71
5, 226888, Note_on_c, 9, 59, 80
5, 226908, Note_on_c, 9, 35, 47
5, 226908, Note_on_c, 9, 44, 82
5, 226916, Note_on_c, 9, 44, 0
5, 226920, Note_on_c, 9, 35, 0
5, 226928, Note_on_c, 9, 40, 0
5, 227020, Note_on_c, 9, 59, 0
5, 227071, Note_on_c, 9, 40, 69
5, 227131, Note_on_c, 9, 40, 0
5, 227186, Note_on_c, 9, 59, 71
5, 227224, Note_on_c, 9, 59, 0
5, 227295, Note_on_c, 9, 35, 33
5, 227297, Note_on_c, 9, 59, 75
5, 227387, Note_on_c, 9, 35, 0
5, 227408, Note_on_c, 9, 59, 0
5, 227672, Note_on_c, 9, 59, 89
5, 227676, Note_on_c, 9, 35, 47
5, 227676, Note_on_c, 9, 44, 82
5, 227684, Note_on_c, 9, 44, 0
5, 227766, Note_on_c, 9, 35, 0
5, 227777, Note_on_c, 9, 59, 0
5, 227953, Note_on_c, 9, 36, 34
5, 227988, Note_on_c, 9, 36, 0
5, 228042, Note_on_c, 9, 59, 89
5, 228052, Note_on_c, 9, 35, 47
5, 228063, Note_on_c, 9, 36, 39
5, 228064, Note_on_c, 9, 35, 0
5, 228133, Note_on_c, 9, 36, 0
5, 228170, Note_on_c, 9, 59, 0
5, 228322, Note_on_c, 9, 36, 70
5, 228370, Note_on_c, 9, 59, 80
5, 228390, Note_on_c, 9, 36, 0
5, 228416, Note_on_c, 9, 59, 0
5, 228436, Note_on_c, 9, 35, 47
5, 228440, Note_on_c, 9, 44, 82
5, 228444, Note_on_c, 9, 44, 0
5, 228448, Note_on_c, 9, 35, 0
5, 228473, Note_on_c, 9, 59, 72
5, 228559, Note_on_c, 9, 59, 0
5, 228745, Note_on_c, 9, 59, 92
5, 228824, Note_on_c, 9, 35, 47
5, 228836, Note_on_c, 9, 35, 0
5, 228968, Note_on_c, 9, 59, 0
5, 229089, Note_on_c, 9, 59, 58
5, 229127, Note_on_c, 9, 59, 0
5, 229199, Note_on_c, 9, 59, 78
5, 229204, Note_on_c, 9, 35, 47
5, 229212, Note_on_c, 9, 44, 82
5, 229212, Note_on_c, 9, 44, 0
5, 229216, Note_on_c, 9, 35, 0
5, 229339, Note_on_c, 9, 59, 0
5, 229455, Note_on_c, 9, 59, 83
5, 229587, Note_on_c, 9, 40, 28
5, 229588, Note_on_c, 9, 35, 47
5, 229596, Note_on_c, 9, 35, 0
5, 229617, Note_on_c, 9, 40, 0
5, 229680, Note_on_c, 9, 59, 0
5, 229723, Note_on_c, 9, 40, 59
5, 229758, Note_on_c, 9, 40, 0
5, 229849, Note_on_c, 9, 59, 77
5, 229926, Note_on_c, 9, 59, 0
5, 229976, Note_on_c, 9, 35, 47
5, 229976, Note_on_c, 9, 46, 62
5, 229978, Note_on_c, 9, 59, 82
5, 229984, Note_on_c, 9, 46, 0
5, 229984, Note_on_c, 9, 35, 0
5, 230108, Note_on_c, 9, 59, 0
5, 230193, Note_on_c, 9, 40, 57
5, 230222, Note_on_c, 9, 40, 0
5, 230231, Note_on_c, 9, 59, 88
5, 230341, Note_on_c, 9, 40, 40
5, 230366, Note_on_c, 9, 35, 14
5, 230379, Note_on_c, 9, 40, 0
5, 230395, Note_on_c, 9, 35, 0
5, 230558, Note_on_c, 9, 59, 0
5, 230582, Note_on_c, 9, 36, 54
5, 230623, Note_on_c, 9, 36, 0
5, 230719, Note_on_c, 9, 59, 83
5, 230748, Note_on_c, 9, 44, 82
5, 230756, Note_on_c, 9, 35, 47
5, 230764, Note_on_c, 9, 35, 0
5, 230764, Note_on_c, 9, 44, 0
5, 230900, Note_on_c, 9, 59, 0
5, 231120, Note_on_c, 9, 59, 80
5, 231132, Note_on_c, 9, 35, 47
5, 231148, Note_on_c, 9, 35, 0
5, 231292, Note_on_c, 9, 59, 0
5, 231508, Note_on_c, 9, 59, 79
5, 231508, Note_on_c, 9, 35, 47
5, 231520, Note_on_c, 9, 35, 0
5, 231520, Note_on_c, 9, 44, 82
5, 231524, Note_on_c, 9, 44, 0
5, 231629, Note_on_c, 9, 59, 0
5, 231791, Note_on_c, 9, 59, 70
5, 231837, Note_on_c, 9, 59, 0
5, 231896, Note_on_c, 9, 35, 47
5, 231900, Note_on_c, 9, 35, 0
5, 231913, Note_on_c, 9, 59, 74
5, 232018, Note_on_c, 9, 59, 0
5, 232278, Note_on_c, 9, 59, 88
5, 232280, Note_on_c, 9, 35, 47
5, 232284, Note_on_c, 9, 35, 0
5, 232284, Note_on_c, 9, 44, 82
5, 232292, Note_on_c, 9, 44, 0
5, 232383, Note_on_c, 9, 59, 0
5, 232548, Note_on_c, 9, 59, 71
5, 232597, Note_on_c, 9, 59, 0
5, 232668, Note_on_c, 9, 59, 73
5, 232668, Note_on_c, 9, 35, 47
5, 232672, Note_on_c, 9, 35, 0
5, 232776, Note_on_c, 9, 59, 0
5, 233035, Note_on_c, 9, 59, 85
5, 233048, Note_on_c, 9, 35, 47
5, 233048, Note_on_c, 9, 44, 82
5, 233060, Note_on_c, 9, 44, 0
5, 233060, Note_on_c, 9, 35, 0
5, 233186, Note_on_c, 9, 59, 0
5, 233331, Note_on_c, 9, 40, 36
5, 233370, Note_on_c, 9, 40, 0
5, 233422, Note_on_c, 9, 59, 75
5, 233432, Note_on_c, 9, 35, 47
5, 233436, Note_on_c, 9, 35, 0
5, 233533, Note_on_c, 9, 59, 0
5, 233812, Note_on_c, 9, 44, 82
5, 233819, Note_on_c, 9, 59, 85
5, 233824, Note_on_c, 9, 35, 47
5, 233824, Note_on_c, 9, 35, 0
5, 233828, Note_on_c, 9, 44, 0
5, 233934, Note_on_c, 9, 59, 0
5, 234200, Note_on_c, 9, 35, 47
5, 234204, Note_on_c, 9, 35, 0
5, 234210, Note_on_c, 9, 59, 82
5, 234337, Note_on_c, 9, 59, 0
5, 234353, Note_on_c, 9, 46, 31
5, 234386, Note_on_c, 9, 46, 0
5, 234584, Note_on_c, 9, 35, 47
5, 234588, Note_on_c, 9, 35, 0
5, 234588, Note_on_c, 9, 44, 82
5, 234592, Note_on_c, 9, 44, 0
5, 234603, Note_on_c, 9, 59, 82
5, 234614, Note_on_c, 9, 46, 54
5, 234661, Note_on_c, 9, 46, 0
5, 234727, Note_on_c, 9, 59, 0
5, 234866, Note_on_c, 9, 46, 77
5, 234884, Note_on_c, 9, 59, 65
5, 234924, Note_on_c, 9, 59, 0
5, 234937, Note_on_c, 9, 46, 0
5, 234968, Note_on_c, 9, 35, 47
5, 234972, Note_on_c, 9, 35, 0
5, 235003, Note_on_c, 9, 59, 80
5, 235109, Note_on_c, 9, 59, 0
5, 235109, Note_on_c, 9, 40, 53
5, 235148, Note_on_c, 9, 40, 0
5, 235348, Note_on_c, 9, 35, 47
5, 235356, Note_on_c, 9, 44, 82
5, 235356, Note_on_c, 9, 44, 0
5, 235360, Note_on_c, 9, 35, 0
5, 235366, Note_on_c, 9, 59, 87
5, 235380, Note_on_c, 9, 40, 60
5, 235430, Note_on_c, 9, 40, 0
5, 235473, Note_on_c, 9, 59, 0
5, 235659, Note_on_c, 9, 40, 54
5, 235726, Note_on_c, 9, 40, 0
5, 235732, Note_on_c, 9, 35, 47
5, 235739, Note_on_c, 9, 59, 84
5, 235740, Note_on_c, 9, 35, 0
5, 235872, Note_on_c, 9, 59, 0
5, 235914, Note_on_c, 9, 40, 64
5, 235990, Note_on_c, 9, 40, 0
5, 236116, Note_on_c, 9, 44, 82
5, 236118, Note_on_c, 9, 59, 82
5, 236120, Note_on_c, 9, 35, 47
5, 236132, Note_on_c, 9, 35, 0
5, 236132, Note_on_c, 9, 44, 0
5, 236157, Note_on_c, 9, 46, 68
5, 236175, Note_on_c, 9, 40, 55
5, 236229, Note_on_c, 9, 59, 0
5, 236249, Note_on_c, 9, 46, 0
5, 236254, Note_on_c, 9, 40, 0
5, 236386, Note_on_c, 9, 59, 71
5, 236401, Note_on_c, 9, 46, 78
5, 236408, Note_on_c, 9, 40, 76
5, 236454, Note_on_c, 9, 59, 0
5, 236500, Note_on_c, 9, 46, 0
5, 236504, Note_on_c, 9, 35, 47
5, 236508, Note_on_c, 9, 35, 0
5, 236516, Note_on_c, 9, 59, 82
5, 236521, Note_on_c, 9, 40, 0
5, 236544, Note_on_c, 9, 35, 40
5, 236552, Note_on_c, 9, 35, 0
5, 236664, Note_on_c, 9, 59, 0
5, 236888, Note_on_c, 9, 59, 85
5, 236892, Note_on_c, 9, 35, 47
5, 236892, Note_on_c, 9, 44, 82
5, 236896, Note_on_c, 9, 44, 0
5, 236900, Note_on_c, 9, 35, 0
5, 237022, Note_on_c, 9, 59, 0
5, 237164, Note_on_c, 9, 40, 30
5, 237199, Note_on_c, 9, 40, 0
5, 237276, Note_on_c, 9, 35, 47
5, 237286, Note_on_c, 9, 59, 84
5, 237292, Note_on_c, 9, 35, 0
5, 237451, Note_on_c, 9, 59, 0
5, 237655, Note_on_c, 9, 59, 91
5, 237656, Note_on_c, 9, 35, 47
5, 237660, Note_on_c, 9, 44, 82
5, 237664, Note_on_c, 9, 35, 0
5, 237668, Note_on_c, 9, 44, 0
5, 237881, Note_on_c, 9, 59, 0
5, 238040, Note_on_c, 9, 35, 47
5, 238044, Note_on_c, 9, 35, 0
5, 238142, Note_on_c, 9, 59, 66
5, 238142, Note_on_c, 9, 59, 0
5, 238417, Note_on_c, 9, 59, 94
5, 238424, Note_on_c, 9, 35, 47
5, 238424, Note_on_c, 9, 35, 0
5, 238428, Note_on_c, 9, 44, 82
5, 238428, Note_on_c, 9, 44, 0
5, 238588, Note_on_c, 9, 59, 0
5, 238808, Note_on_c, 9, 35, 47
5, 238812, Note_on_c, 9, 35, 0
5, 238813, Note_on_c, 9, 59, 54
5, 238906, Note_on_c, 9, 59, 0
5, 239177, Note_on_c, 9, 59, 91
5, 239192, Note_on_c, 9, 44, 82
5, 239196, Note_on_c, 9, 35, 47
5, 239204, Note_on_c, 9, 35, 0
5, 239208, Note_on_c, 9, 44, 0
5, 239312, Note_on_c, 9, 59, 0
5, 239462, Note_on_c, 9, 59, 74
5, 239521, Note_on_c, 9, 59, 0
5, 239568, Note_on_c, 9, 59, 73
5, 239572, Note_on_c, 9, 35, 47
5, 239584, Note_on_c, 9, 35, 0
5, 239705, Note_on_c, 9, 59, 0
5, 239936, Note_on_c, 9, 59, 90
5, 239956, Note_on_c, 9, 44, 82
5, 239964, Note_on_c, 9, 35, 47
5, 239968, Note_on_c, 9, 35, 0
5, 239968, Note_on_c, 9, 44, 0
5, 240076, Note_on_c, 9, 59, 0
5, 240228, Note_on_c, 9, 59, 49
5, 240269, Note_on_c, 9, 59, 0
5, 240327, Note_on_c, 9, 59, 80
5, 240344, Note_on_c, 9, 35, 47
5, 240348, Note_on_c, 9, 35, 0
5, 240449, Note_on_c, 9, 59, 0
5, 240584, Note_on_c, 9, 46, 40
5, 240597, Note_on_c, 9, 40, 51
5, 240621, Note_on_c, 9, 46, 0
5, 240638, Note_on_c, 9, 40, 0
5, 240709, Note_on_c, 9, 59, 83
5, 240724, Note_on_c, 9, 35, 47
5, 240728, Note_on_c, 9, 44, 82
5, 240732, Note_on_c, 9, 35, 0
5, 240736, Note_on_c, 9, 44, 0
5, 240738, Note_on_c, 9, 36, 66
5, 240855, Note_on_c, 9, 59, 0
5, 240881, Note_on_c, 9, 36, 0
5, 241109, Note_on_c, 9, 59, 75
5, 241112, Note_on_c, 9, 35, 47
5, 241124, Note_on_c, 9, 35, 0
5, 241226, Note_on_c, 9, 59, 0
5, 241467, Note_on_c, 9, 59, 71
5, 241492, Note_on_c, 9, 35, 47
5, 241496, Note_on_c, 9, 44, 82
5, 241500, Note_on_c, 9, 44, 0
5, 241504, Note_on_c, 9, 35, 0
5, 241627, Note_on_c, 9, 59, 0
5, 241725, Note_on_c, 9, 40, 51
5, 241766, Note_on_c, 9, 40, 0
5, 241860, Note_on_c, 9, 46, 49
5, 241864, Note_on_c, 9, 59, 55
5, 241875, Note_on_c, 9, 36, 55
5, 241876, Note_on_c, 9, 35, 47
5, 241884, Note_on_c, 9, 35, 0
5, 241889, Note_on_c, 9, 46, 0
5, 241913, Note_on_c, 9, 36, 0
5, 241920, Note_on_c, 9, 60, 54
5, 241920, Note_on_c, 9, 60, 0
5, 242044, Note_on_c, 9, 59, 0
5, 242226, Note_on_c, 9, 59, 76
5, 242260, Note_on_c, 9, 46, 62
5, 242264, Note_on_c, 9, 35, 47
5, 242272, Note_on_c, 9, 35, 0
5, 242272, Note_on_c, 9, 46, 0
5, 242413, Note_on_c, 9, 59, 0
5, 242635, Note_on_c, 9, 59, 72
5, 242648, Note_on_c, 9, 35, 47
5, 242656, Note_on_c, 9, 35, 0
5, 242766, Note_on_c, 9, 59, 0
5, 242883, Note_on_c, 9, 40, 48
5, 242917, Note_on_c, 9, 40, 0
5, 243029, Note_on_c, 9, 59, 77
5, 243032, Note_on_c, 9, 35, 47
5, 243032, Note_on_c, 9, 44, 82
5, 243048, Note_on_c, 9, 44, 0
5, 243048, Note_on_c, 9, 35, 0
5, 243158, Note_on_c, 9, 59, 0
5, 243416, Note_on_c, 9, 35, 47
5, 243424, Note_on_c, 9, 35, 0
5, 243429, Note_on_c, 9, 59, 79
5, 243524, Note_on_c, 9, 59, 0
5, 243800, Note_on_c, 9, 35, 47
5, 243800, Note_on_c, 9, 44, 82
5, 243812, Note_on_c, 9, 35, 0
5, 243813, Note_on_c, 9, 59, 87
5, 243816, Note_on_c, 9, 44, 0
5, 243900, Note_on_c, 9, 59, 0
5, 244085, Note_on_c, 9, 40, 50
5, 244088, Note_on_c, 9, 59, 71
5, 244123, Note_on_c, 9, 40, 0
5, 244140, Note_on_c, 9, 59, 0
5, 244184, Note_on_c, 9, 35, 47
5, 244192, Note_on_c, 9, 35, 0
5, 244203, Note_on_c, 9, 40, 34
5, 244220, Note_on_c, 9, 59, 80
5, 244329, Note_on_c, 9, 40, 0
5, 244333, Note_on_c, 9, 59, 0
5, 244568, Note_on_c, 9, 35, 47
5, 244568, Note_on_c, 9, 44, 82
5, 244576, Note_on_c, 9, 44, 0
5, 244580, Note_on_c, 9, 35, 0
5, 244585, Note_on_c, 9, 35, 25
5, 244594, Note_on_c, 9, 59, 84
5, 244691, Note_on_c, 9, 59, 0
5, 244718, Note_on_c, 9, 35, 0
5, 244952, Note_on_c, 9, 35, 47
5, 244960, Note_on_c, 9, 35, 0
5, 244964, Note_on_c, 9, 59, 87
5, 245059, Note_on_c, 9, 59, 0
5, 245236, Note_on_c, 9, 40, 48
5, 245262, Note_on_c, 9, 59, 71
5, 245268, Note_on_c, 9, 40, 0
5, 245297, Note_on_c, 9, 59, 0
5, 245331, Note_on_c, 9, 35, 24
5, 245336, Note_on_c, 9, 35, 47
5, 245336, Note_on_c, 9, 44, 82
5, 245348, Note_on_c, 9, 44, 0
5, 245348, Note_on_c, 9, 35, 0
5, 245356, Note_on_c, 9, 59, 81
5, 245380, Note_on_c, 9, 35, 0
5, 245451, Note_on_c, 9, 59, 0
5, 245720, Note_on_c, 9, 35, 47
5, 245724, Note_on_c, 9, 35, 0
5, 245736, Note_on_c, 9, 59, 88
5, 245823, Note_on_c, 9, 59, 0
5, 246104, Note_on_c, 9, 44, 82
5, 246108, Note_on_c, 9, 35, 47
5, 246112, Note_on_c, 9, 35, 0
5, 246112, Note_on_c, 9, 44, 0
5, 246127, Note_on_c, 9, 59, 90
5, 246203, Note_on_c, 9, 59, 0
5, 246484, Note_on_c, 9, 35, 47
5, 246496, Note_on_c, 9, 35, 0
5, 246525, Note_on_c, 9, 59, 90
5, 246610, Note_on_c, 9, 59, 0
5, 246872, Note_on_c, 9, 35, 47
5, 246876, Note_on_c, 9, 44, 82
5, 246884, Note_on_c, 9, 44, 0
5, 246888, Note_on_c, 9, 35, 0
5, 246889, Note_on_c, 9, 59, 91
5, 246985, Note_on_c, 9, 59, 0
5, 247233, Note_on_c, 9, 40, 24
5, 247252, Note_on_c, 9, 35, 47
5, 247260, Note_on_c, 9, 35, 0
5, 247262, Note_on_c, 9, 40, 0
5, 247290, Note_on_c, 9, 59, 81
5, 247328, Note_on_c, 9, 40, 44
5, 247367, Note_on_c, 9, 59, 0
5, 247393, Note_on_c, 9, 40, 0
5, 247439, Note_on_c, 9, 40, 55
5, 247470, Note_on_c, 9, 40, 0
5, 247640, Note_on_c, 9, 35, 47
5, 247640, Note_on_c, 9, 44, 82
5, 247648, Note_on_c, 9, 44, 0
5, 247648, Note_on_c, 9, 35, 0
5, 247656, Note_on_c, 9, 59, 94
5, 247743, Note_on_c, 9, 59, 0
5, 248019, Note_on_c, 9, 59, 62
5, 248020, Note_on_c, 9, 35, 47
5, 248028, Note_on_c, 9, 35, 0
5, 248054, Note_on_c, 9, 59, 0
5, 248201, Note_on_c, 9, 40, 43
5, 248239, Note_on_c, 9, 40, 0
5, 248301, Note_on_c, 9, 40, 41
5, 248316, Note_on_c, 9, 59, 89
5, 248340, Note_on_c, 9, 40, 0
5, 248381, Note_on_c, 9, 59, 0
5, 248408, Note_on_c, 9, 35, 47
5, 248408, Note_on_c, 9, 46, 62
5, 248424, Note_on_c, 9, 46, 0
5, 248424, Note_on_c, 9, 35, 0
5, 248435, Note_on_c, 9, 40, 59
5, 248437, Note_on_c, 9, 59, 80
5, 248464, Note_on_c, 9, 40, 0
5, 248550, Note_on_c, 9, 59, 0
5, 248796, Note_on_c, 9, 35, 40
5, 248812, Note_on_c, 9, 35, 0
5, 249089, Note_on_c, 9, 59, 81
5, 249144, Note_on_c, 9, 59, 0
5, 249180, Note_on_c, 9, 35, 47
5, 249180, Note_on_c, 9, 44, 82
5, 249184, Note_on_c, 9, 51, 87
5, 249196, Note_on_c, 9, 44, 0
5, 249196, Note_on_c, 9, 35, 0
5, 249214, Note_on_c, 9, 59, 87
5, 249318, Note_on_c, 9, 59, 0
5, 249370, Note_on_c, 9, 51, 0
5, 249564, Note_on_c, 9, 35, 47
5, 249572, Note_on_c, 9, 35, 0
5, 249610, Note_on_c, 9, 59, 66
5, 249646, Note_on_c, 9, 59, 0
5, 249842, Note_on_c, 9, 40, 40
5, 249880, Note_on_c, 9, 40, 0
5, 249888, Note_on_c, 9, 59, 83
5, 249934, Note_on_c, 9, 59, 0
5, 249940, Note_on_c, 9, 35, 47
5, 249948, Note_on_c, 9, 44, 82
5, 249952, Note_on_c, 9, 35, 0
5, 249952, Note_on_c, 9, 51, 85
5, 249956, Note_on_c, 9, 44, 0
5, 249977, Note_on_c, 9, 40, 20
5, 250005, Note_on_c, 9, 59, 85
5, 250011, Note_on_c, 9, 40, 0
5, 250109, Note_on_c, 9, 59, 0
5, 250192, Note_on_c, 9, 51, 0
5, 250328, Note_on_c, 9, 35, 47
5, 250332, Note_on_c, 9, 35, 0
5, 250647, Note_on_c, 9, 59, 89
5, 250708, Note_on_c, 9, 35, 47
5, 250716, Note_on_c, 9, 35, 0
5, 250716, Note_on_c, 9, 44, 82
5, 250720, Note_on_c, 9, 44, 0
5, 250734, Note_on_c, 9, 59, 0
5, 250734, Note_on_c, 9, 51, 57
5, 250980, Note_on_c, 9, 51, 0
5, 251008, Note_on_c, 9, 40, 52
5, 251041, Note_on_c, 9, 40, 0
5, 251096, Note_on_c, 9, 35, 47
5, 251100, Note_on_c, 9, 35, 0
5, 251463, Note_on_c, 9, 59, 73
5, 251484, Note_on_c, 9, 35, 47
5, 251484, Note_on_c, 9, 44, 82
5, 251496, Note_on_c, 9, 44, 0
5, 251496, Note_on_c, 9, 35, 0
5, 251504, Note_on_c, 9, 51, 37
5, 251534, Note_on_c, 9, 59, 0
5, 251680, Note_on_c, 9, 51, 0
5, 251750, Note_on_c, 9, 51, 52
5, 251760, Note_on_c, 9, 59, 80
5, 251800, Note_on_c, 9, 51, 0
5, 251835, Note_on_c, 9, 59, 0
5, 251860, Note_on_c, 9, 35, 47
5, 251872, Note_on_c, 9, 35, 0
5, 252116, Note_on_c, 9, 52, 68
5, 252152, Note_on_c, 9, 52, 0
5, 252244, Note_on_c, 9, 44, 82
5, 252244, Note_on_c, 9, 51, 61
5, 252252, Note_on_c, 9, 35, 47
5, 252256, Note_on_c, 9, 35, 0
5, 252256, Note_on_c, 9, 44, 0
5, 252307, Note_on_c, 9, 51, 0
5, 252513, Note_on_c, 9, 40, 51
5, 252546, Note_on_c, 9, 40, 0
5, 252632, Note_on_c, 9, 35, 47
5, 252640, Note_on_c, 9, 35, 0
5, 252889, Note_on_c, 9, 51, 72
5, 252941, Note_on_c, 9, 51, 0
5, 253005, Note_on_c, 9, 51, 71
5, 253012, Note_on_c, 9, 35, 47
5, 253016, Note_on_c, 9, 44, 82
5, 253020, Note_on_c, 9, 35, 0
5, 253024, Note_on_c, 9, 44, 0
5, 253039, Note_on_c, 9, 51, 79
5, 253043, Note_on_c, 9, 35, 53
5, 253081, Note_on_c, 9, 51, 0
5, 253175, Note_on_c, 9, 51, 0
5, 253201, Note_on_c, 9, 35, 0
5, 253266, Note_on_c, 9, 36, 76
5, 253299, Note_on_c, 9, 36, 0
5, 253400, Note_on_c, 9, 35, 47
5, 253408, Note_on_c, 9, 35, 0
5, 253776, Note_on_c, 9, 51, 74
5, 253780, Note_on_c, 9, 35, 47
5, 253788, Note_on_c, 9, 44, 82
5, 253792, Note_on_c, 9, 44, 0
5, 253792, Note_on_c, 9, 35, 0
5, 253806, Note_on_c, 9, 51, 79
5, 253894, Note_on_c, 9, 51, 0
5, 253945, Note_on_c, 9, 51, 0
5, 254055, Note_on_c, 9, 40, 31
5, 254090, Note_on_c, 9, 40, 0
5, 254164, Note_on_c, 9, 35, 47
5, 254172, Note_on_c, 9, 35, 0
5, 254196, Note_on_c, 9, 51, 80
5, 254287, Note_on_c, 9, 51, 0
5, 254464, Note_on_c, 9, 51, 59
5, 254483, Note_on_c, 9, 40, 32
5, 254499, Note_on_c, 9, 51, 0
5, 254517, Note_on_c, 9, 40, 0
5, 254548, Note_on_c, 9, 35, 47
5, 254548, Note_on_c, 9, 44, 82
5, 254560, Note_on_c, 9, 44, 0
5, 254560, Note_on_c, 9, 35, 0
5, 254575, Note_on_c, 9, 51, 46
5, 254641, Note_on_c, 9, 51, 0
5, 254826, Note_on_c, 9, 46, 46
5, 254830, Note_on_c, 9, 40, 71
5, 254831, Note_on_c, 9, 51, 92
5, 254855, Note_on_c, 9, 46, 0
5, 254892, Note_on_c, 9, 40, 0
5, 254936, Note_on_c, 9, 35, 47
5, 254940, Note_on_c, 9, 35, 0
5, 255020, Note_on_c, 9, 51, 0
5, 255197, Note_on_c, 9, 46, 67
5, 255289, Note_on_c, 9, 46, 0
5, 255316, Note_on_c, 9, 35, 47
5, 255316, Note_on_c, 9, 44, 82
5, 255330, Note_on_c, 9, 46, 71
5, 255332, Note_on_c, 9, 44, 0
5, 255332, Note_on_c, 9, 35, 0
5, 255459, Note_on_c, 9, 46, 0
5, 255576, Note_on_c, 9, 35, 59
5, 255590, Note_on_c, 9, 46, 55
5, 255597, Note_on_c, 9, 51, 84
5, 255600, Note_on_c, 9, 40, 59
5, 255620, Note_on_c, 9, 46, 0
5, 255632, Note_on_c, 9, 40, 0
5, 255649, Note_on_c, 9, 35, 0
5, 255704, Note_on_c, 9, 35, 47
5, 255712, Note_on_c, 9, 35, 0
5, 255813, Note_on_c, 9, 51, 0
5, 255977, Note_on_c, 9, 51, 74
5, 256040, Note_on_c, 9, 51, 0
5, 256084, Note_on_c, 9, 44, 82
5, 256088, Note_on_c, 9, 35, 47
5, 256100, Note_on_c, 9, 35, 0
5, 256104, Note_on_c, 9, 44, 0
5, 256110, Note_on_c, 9, 51, 62
5, 256179, Note_on_c, 9, 51, 0
5, 256327, Note_on_c, 9, 51, 93
5, 256353, Note_on_c, 9, 40, 83
5, 256416, Note_on_c, 9, 40, 0
5, 256472, Note_on_c, 9, 35, 47
5, 256474, Note_on_c, 9, 46, 55
5, 256476, Note_on_c, 9, 35, 0
5, 256488, Note_on_c, 9, 40, 58
5, 256494, Note_on_c, 9, 51, 0
5, 256523, Note_on_c, 9, 40, 0
5, 256542, Note_on_c, 9, 46, 0
5, 256707, Note_on_c, 9, 51, 67
5, 256741, Note_on_c, 9, 51, 0
5, 256839, Note_on_c, 9, 51, 74
5, 256856, Note_on_c, 9, 35, 47
5, 256856, Note_on_c, 9, 44, 82
5, 256872, Note_on_c, 9, 44, 0
5, 256876, Note_on_c, 9, 35, 0
5, 256927, Note_on_c, 9, 51, 0
5, 257095, Note_on_c, 9, 51, 82
5, 257106, Note_on_c, 9, 46, 51
5, 257120, Note_on_c, 9, 40, 63
5, 257134, Note_on_c, 9, 46, 0
5, 257148, Note_on_c, 9, 40, 0
5, 257197, Note_on_c, 9, 51, 0
5, 257244, Note_on_c, 9, 35, 47
5, 257248, Note_on_c, 9, 35, 0
5, 257487, Note_on_c, 9, 46, 59
5, 257551, Note_on_c, 9, 46, 0
5, 257624, Note_on_c, 9, 35, 47
5, 257624, Note_on_c, 9, 44, 82
5, 257626, Note_on_c, 9, 51, 81
5, 257636, Note_on_c, 9, 44, 0
5, 257640, Note_on_c, 9, 35, 0
5, 257728, Note_on_c, 9, 51, 0
5, 257868, Note_on_c, 9, 51, 85
5, 257969, Note_on_c, 9, 51, 0
5, 258008, Note_on_c, 9, 35, 47
5, 258016, Note_on_c, 9, 35, 0
5, 258248, Note_on_c, 9, 46, 60
5, 258252, Note_on_c, 9, 39, 51
5, 258282, Note_on_c, 9, 39, 0
5, 258331, Note_on_c, 9, 46, 0
5, 258382, Note_on_c, 9, 40, 52
5, 258386, Note_on_c, 9, 51, 53
5, 258388, Note_on_c, 9, 44, 82
5, 258400, Note_on_c, 9, 44, 0
5, 258400, Note_on_c, 9, 35, 47
5, 258400, Note_on_c, 9, 35, 0
5, 258422, Note_on_c, 9, 40, 0
5, 258434, Note_on_c, 9, 51, 0
5, 258633, Note_on_c, 9, 46, 50
5, 258659, Note_on_c, 9, 40, 41
5, 258661, Note_on_c, 9, 46, 0
5, 258701, Note_on_c, 9, 40, 0
5, 258772, Note_on_c, 9, 35, 47
5, 258784, Note_on_c, 9, 35, 0
5, 258789, Note_on_c, 9, 51, 65
5, 258894, Note_on_c, 9, 51, 0
5, 259033, Note_on_c, 9, 51, 71
5, 259074, Note_on_c, 9, 40, 26
5, 259106, Note_on_c, 9, 40, 0
5, 259115, Note_on_c, 9, 51, 0
5, 259160, Note_on_c, 9, 35, 47
5, 259164, Note_on_c, 9, 46, 62
5, 259176, Note_on_c, 9, 46, 0
5, 259176, Note_on_c, 9, 35, 0
5, 259193, Note_on_c, 9, 51, 33
5, 259230, Note_on_c, 9, 51, 0
5, 259544, Note_on_c, 9, 35, 47
5, 259552, Note_on_c, 9, 35, 0
5, 259582, Note_on_c, 9, 46, 35
5, 259601, Note_on_c, 9, 51, 75
5, 259611, Note_on_c, 9, 46, 0
5, 259730, Note_on_c, 9, 51, 0
5, 259880, Note_on_c, 9, 51, 46
5, 259917, Note_on_c, 9, 51, 0
5, 259924, Note_on_c, 9, 35, 47
5, 259932, Note_on_c, 9, 44, 82
5, 259936, Note_on_c, 9, 44, 0
5, 259940, Note_on_c, 9, 35, 0
5, 259995, Note_on_c, 9, 37, 46
5, 260004, Note_on_c, 9, 51, 56
5, 260061, Note_on_c, 9, 37, 0
5, 260079, Note_on_c, 9, 51, 0
5, 260205, Note_on_c, 9, 57, 101
5, 260211, Note_on_c, 9, 57, 80
5, 260219, Note_on_c, 9, 40, 56
5, 260312, Note_on_c, 9, 35, 47
5, 260316, Note_on_c, 9, 35, 0
5, 260399, Note_on_c, 9, 35, 45
5, 260430, Note_on_c, 9, 46, 102
5, 260478, Note_on_c, 9, 46, 0
5, 260959, Note_on_c, 9, 57, 0
5, 260966, Note_on_c, 9, 40, 0
5, 261526, Note_on_c, 9, 35, 0
5, 261885, Note_on_c, 9, 57, 0
5, 261885, End_track
0, 0, End_of_file
