0, 0, Header, 1, 2, 120
1, 0, Start_track
1, 0, Title_t, "But Beautiful"
1, 0, Text_t, "Jimmy Van Heusen and Johnny Burke\012"
1, 0, Text_t, "dougmck@pipeline.com.au\012"
1, 0, Text_t, "Solo piano played in in real time.  Inspired by Chick Corea's version on his great new album 'Standards'\012"
1, 0, Time_signature, 4, 2, 24, 8
1, 0, Key_signature, 1, "major"
1, 0, Tempo, 500000
1, 0, End_track
2, 0, Start_track
2, 0, Title_t, "Solo piano"
2, 0, Program_c, 0, 0
2, 0, Note_on_c, 0, 73, 33
2, 7, Note_on_c, 0, 49, 33
2, 34, Note_on_c, 0, 49, 0
2, 35, Note_on_c, 0, 73, 0
2, 46, Note_on_c, 0, 74, 37
2, 47, Note_on_c, 0, 50, 45
2, 71, Note_on_c, 0, 74, 0
2, 76, Note_on_c, 0, 50, 0
2, 85, Note_on_c, 0, 81, 68
2, 88, Note_on_c, 0, 57, 58
2, 155, Note_on_c, 0, 81, 0
2, 166, Note_on_c, 0, 57, 0
2, 170, Note_on_c, 0, 81, 63
2, 172, Control_c, 0, 64, 127
2, 176, Note_on_c, 0, 57, 30
2, 294, Note_on_c, 0, 81, 0
2, 311, Note_on_c, 0, 57, 0
2, 558, Note_on_c, 0, 54, 17
2, 560, Note_on_c, 0, 62, 26
2, 561, Note_on_c, 0, 50, 34
2, 561, Note_on_c, 0, 57, 25
2, 562, Note_on_c, 0, 59, 31
2, 562, Note_on_c, 0, 43, 30
2, 801, Note_on_c, 0, 57, 0
2, 813, Note_on_c, 0, 59, 0
2, 820, Note_on_c, 0, 62, 0
2, 826, Note_on_c, 0, 50, 0
2, 832, Note_on_c, 0, 43, 0
2, 857, Note_on_c, 0, 54, 0
2, 980, Note_on_c, 0, 91, 89
2, 983, Note_on_c, 0, 55, 82
2, 1150, Note_on_c, 0, 91, 0
2, 1154, Control_c, 0, 64, 0
2, 1155, Note_on_c, 0, 90, 56
2, 1156, Note_on_c, 0, 54, 56
2, 1163, Note_on_c, 0, 55, 0
2, 1200, Control_c, 0, 64, 127
2, 1280, Note_on_c, 0, 90, 0
2, 1297, Note_on_c, 0, 54, 0
2, 1305, Note_on_c, 0, 89, 36
2, 1305, Note_on_c, 0, 53, 43
2, 1309, Control_c, 0, 64, 0
2, 1357, Control_c, 0, 64, 127
2, 1435, Note_on_c, 0, 89, 0
2, 1500, Note_on_c, 0, 53, 0
2, 1511, Note_on_c, 0, 47, 44
2, 1530, Note_on_c, 0, 47, 0
2, 1595, Note_on_c, 0, 62, 44
2, 1643, Note_on_c, 0, 65, 52
2, 1695, Note_on_c, 0, 69, 40
2, 1746, Note_on_c, 0, 74, 57
2, 1793, Note_on_c, 0, 76, 75
2, 1822, Note_on_c, 0, 69, 0
2, 1833, Note_on_c, 0, 77, 74
2, 1837, Note_on_c, 0, 74, 0
2, 1840, Note_on_c, 0, 76, 0
2, 1853, Note_on_c, 0, 77, 0
2, 1873, Note_on_c, 0, 81, 66
2, 1896, Note_on_c, 0, 81, 0
2, 1904, Note_on_c, 0, 86, 89
2, 1932, Note_on_c, 0, 88, 66
2, 1941, Note_on_c, 0, 86, 0
2, 1958, Note_on_c, 0, 88, 0
2, 1958, Note_on_c, 0, 89, 71
2, 1970, Note_on_c, 0, 89, 0
2, 1989, Note_on_c, 0, 93, 79
2, 2011, Note_on_c, 0, 93, 0
2, 2016, Note_on_c, 0, 98, 74
2, 2047, Note_on_c, 0, 100, 82
2, 2057, Note_on_c, 0, 98, 0
2, 2078, Note_on_c, 0, 101, 81
2, 2083, Note_on_c, 0, 100, 0
2, 2113, Note_on_c, 0, 100, 80
2, 2120, Note_on_c, 0, 101, 0
2, 2146, Note_on_c, 0, 101, 76
2, 2151, Note_on_c, 0, 100, 0
2, 2181, Note_on_c, 0, 100, 80
2, 2182, Note_on_c, 0, 101, 0
2, 2219, Note_on_c, 0, 101, 69
2, 2220, Note_on_c, 0, 100, 0
2, 2258, Note_on_c, 0, 100, 66
2, 2260, Note_on_c, 0, 101, 0
2, 2295, Note_on_c, 0, 100, 0
2, 2297, Note_on_c, 0, 101, 58
2, 2336, Note_on_c, 0, 101, 0
2, 2336, Note_on_c, 0, 100, 55
2, 2369, Note_on_c, 0, 100, 0
2, 2374, Note_on_c, 0, 101, 51
2, 2416, Note_on_c, 0, 101, 0
2, 2420, Note_on_c, 0, 100, 52
2, 2427, Note_on_c, 0, 62, 0
2, 2428, Note_on_c, 0, 65, 0
2, 2429, Note_on_c, 0, 56, 25
2, 2446, Control_c, 0, 64, 0
2, 2472, Control_c, 0, 64, 127
2, 2507, Note_on_c, 0, 100, 0
2, 2518, Note_on_c, 0, 62, 28
2, 2683, Note_on_c, 0, 62, 0
2, 2689, Note_on_c, 0, 56, 0
2, 2775, Note_on_c, 0, 84, 55
2, 2787, Note_on_c, 0, 79, 37
2, 2795, Note_on_c, 0, 76, 26
2, 2795, Note_on_c, 0, 68, 29
2, 3014, Note_on_c, 0, 68, 0
2, 3024, Note_on_c, 0, 84, 0
2, 3074, Note_on_c, 0, 79, 0
2, 3081, Note_on_c, 0, 76, 0
2, 3163, Note_on_c, 0, 75, 62
2, 3165, Note_on_c, 0, 51, 35
2, 3200, Control_c, 0, 64, 0
2, 3205, Note_on_c, 0, 51, 0
2, 3206, Note_on_c, 0, 75, 0
2, 3214, Note_on_c, 0, 76, 66
2, 3218, Note_on_c, 0, 52, 50
2, 3220, Control_c, 0, 64, 127
2, 3356, Control_c, 0, 64, 0
2, 3357, Note_on_c, 0, 83, 60
2, 3362, Note_on_c, 0, 59, 45
2, 3401, Control_c, 0, 64, 127
2, 3438, Note_on_c, 0, 83, 0
2, 3444, Note_on_c, 0, 59, 0
2, 3473, Note_on_c, 0, 83, 58
2, 3478, Note_on_c, 0, 59, 31
2, 3495, Note_on_c, 0, 83, 0
2, 3502, Note_on_c, 0, 76, 0
2, 3507, Note_on_c, 0, 59, 0
2, 3536, Note_on_c, 0, 52, 0
2, 3668, Note_on_c, 0, 71, 18
2, 3679, Note_on_c, 0, 67, 47
2, 3683, Note_on_c, 0, 64, 53
2, 3695, Note_on_c, 0, 45, 24
2, 3695, Note_on_c, 0, 59, 26
2, 3696, Note_on_c, 0, 52, 24
2, 3697, Note_on_c, 0, 55, 24
2, 3700, Note_on_c, 0, 60, 24
2, 3709, Control_c, 0, 64, 0
2, 3782, Control_c, 0, 64, 127
2, 3812, Note_on_c, 0, 52, 0
2, 3895, Note_on_c, 0, 59, 0
2, 3896, Note_on_c, 0, 60, 0
2, 3903, Note_on_c, 0, 55, 0
2, 3906, Note_on_c, 0, 67, 0
2, 3908, Note_on_c, 0, 64, 0
2, 3988, Control_c, 0, 64, 0
2, 3994, Note_on_c, 0, 55, 25
2, 3995, Note_on_c, 0, 64, 30
2, 3995, Note_on_c, 0, 52, 29
2, 3998, Note_on_c, 0, 59, 33
2, 3998, Note_on_c, 0, 60, 33
2, 4111, Control_c, 0, 64, 127
2, 4227, Note_on_c, 0, 71, 0
2, 4250, Note_on_c, 0, 59, 0
2, 4255, Note_on_c, 0, 60, 0
2, 4258, Note_on_c, 0, 64, 0
2, 4268, Note_on_c, 0, 69, 82
2, 4273, Note_on_c, 0, 55, 0
2, 4285, Note_on_c, 0, 52, 0
2, 4331, Note_on_c, 0, 69, 0
2, 4366, Note_on_c, 0, 68, 51
2, 4368, Note_on_c, 0, 59, 50
2, 4369, Note_on_c, 0, 64, 46
2, 4369, Control_c, 0, 64, 0
2, 4371, Note_on_c, 0, 53, 40
2, 4377, Note_on_c, 0, 45, 0
2, 4405, Control_c, 0, 64, 127
2, 4435, Note_on_c, 0, 64, 0
2, 4437, Note_on_c, 0, 59, 0
2, 4446, Note_on_c, 0, 68, 0
2, 4482, Note_on_c, 0, 53, 0
2, 4486, Note_on_c, 0, 67, 53
2, 4488, Note_on_c, 0, 58, 36
2, 4491, Note_on_c, 0, 63, 38
2, 4492, Control_c, 0, 64, 0
2, 4497, Note_on_c, 0, 52, 24
2, 4556, Control_c, 0, 64, 127
2, 4609, Note_on_c, 0, 58, 0
2, 4650, Note_on_c, 0, 52, 0
2, 4712, Note_on_c, 0, 51, 45
2, 4713, Control_c, 0, 64, 0
2, 4735, Note_on_c, 0, 51, 0
2, 4772, Control_c, 0, 64, 127
2, 4773, Note_on_c, 0, 50, 32
2, 4783, Note_on_c, 0, 50, 0
2, 4840, Note_on_c, 0, 63, 0
2, 4879, Note_on_c, 0, 42, 34
2, 4883, Note_on_c, 0, 30, 27
2, 4895, Control_c, 0, 64, 0
2, 4933, Control_c, 0, 64, 127
2, 4953, Note_on_c, 0, 30, 0
2, 4964, Note_on_c, 0, 42, 0
2, 5141, Note_on_c, 0, 61, 35
2, 5147, Note_on_c, 0, 58, 20
2, 5149, Note_on_c, 0, 52, 20
2, 5176, Note_on_c, 0, 67, 0
2, 5219, Note_on_c, 0, 58, 0
2, 5243, Note_on_c, 0, 61, 0
2, 5279, Note_on_c, 0, 52, 0
2, 5368, Note_on_c, 0, 78, 77
2, 5371, Note_on_c, 0, 54, 48
2, 5374, Control_c, 0, 64, 0
2, 5394, Control_c, 0, 64, 127
2, 5478, Note_on_c, 0, 78, 0
2, 5595, Note_on_c, 0, 79, 57
2, 5597, Note_on_c, 0, 54, 0
2, 5601, Note_on_c, 0, 55, 43
2, 5639, Note_on_c, 0, 55, 0
2, 5678, Note_on_c, 0, 79, 0
2, 5693, Note_on_c, 0, 82, 46
2, 5694, Note_on_c, 0, 58, 35
2, 5697, Control_c, 0, 64, 0
2, 5717, Note_on_c, 0, 82, 0
2, 5729, Note_on_c, 0, 58, 0
2, 5733, Note_on_c, 0, 59, 44
2, 5734, Note_on_c, 0, 83, 38
2, 5761, Note_on_c, 0, 59, 0
2, 5762, Note_on_c, 0, 83, 0
2, 5776, Note_on_c, 0, 88, 64
2, 5778, Note_on_c, 0, 64, 36
2, 5815, Note_on_c, 0, 88, 0
2, 5817, Note_on_c, 0, 64, 0
2, 5823, Note_on_c, 0, 85, 48
2, 5824, Note_on_c, 0, 61, 28
2, 5856, Note_on_c, 0, 85, 0
2, 5866, Note_on_c, 0, 61, 0
2, 5872, Note_on_c, 0, 62, 44
2, 5876, Note_on_c, 0, 86, 57
2, 5924, Control_c, 0, 64, 127
2, 5975, Note_on_c, 0, 62, 0
2, 5978, Note_on_c, 0, 86, 0
2, 5994, Note_on_c, 0, 86, 68
2, 5997, Note_on_c, 0, 62, 46
2, 6070, Note_on_c, 0, 62, 0
2, 6077, Note_on_c, 0, 86, 0
2, 6096, Note_on_c, 0, 86, 71
2, 6097, Note_on_c, 0, 62, 40
2, 6157, Note_on_c, 0, 62, 0
2, 6161, Note_on_c, 0, 86, 0
2, 6181, Note_on_c, 0, 62, 36
2, 6183, Note_on_c, 0, 86, 80
2, 6220, Note_on_c, 0, 62, 0
2, 6225, Note_on_c, 0, 86, 0
2, 6269, Control_c, 0, 64, 0
2, 6271, Note_on_c, 0, 86, 58
2, 6275, Note_on_c, 0, 48, 34
2, 6291, Control_c, 0, 64, 127
2, 6318, Note_on_c, 0, 86, 0
2, 6350, Note_on_c, 0, 58, 30
2, 6355, Note_on_c, 0, 48, 0
2, 6380, Note_on_c, 0, 58, 0
2, 6425, Note_on_c, 0, 58, 33
2, 6425, Note_on_c, 0, 66, 39
2, 6426, Note_on_c, 0, 62, 32
2, 6465, Note_on_c, 0, 62, 0
2, 6492, Note_on_c, 0, 66, 0
2, 6502, Note_on_c, 0, 74, 49
2, 6552, Note_on_c, 0, 58, 0
2, 6596, Note_on_c, 0, 66, 34
2, 6599, Note_on_c, 0, 62, 24
2, 6603, Note_on_c, 0, 58, 34
2, 6672, Note_on_c, 0, 62, 0
2, 6696, Note_on_c, 0, 74, 0
2, 6706, Note_on_c, 0, 62, 33
2, 6745, Note_on_c, 0, 62, 0
2, 6756, Note_on_c, 0, 66, 0
2, 6787, Note_on_c, 0, 58, 0
2, 6791, Note_on_c, 0, 71, 68
2, 6792, Note_on_c, 0, 67, 71
2, 6792, Note_on_c, 0, 62, 64
2, 6793, Note_on_c, 0, 57, 37
2, 6794, Control_c, 0, 64, 0
2, 6820, Control_c, 0, 64, 127
2, 6832, Note_on_c, 0, 62, 0
2, 6834, Note_on_c, 0, 67, 0
2, 6835, Note_on_c, 0, 71, 0
2, 6859, Note_on_c, 0, 57, 0
2, 6862, Note_on_c, 0, 70, 58
2, 6863, Note_on_c, 0, 66, 55
2, 6866, Note_on_c, 0, 61, 42
2, 6902, Note_on_c, 0, 61, 0
2, 6910, Note_on_c, 0, 70, 0
2, 6913, Note_on_c, 0, 66, 0
2, 6940, Note_on_c, 0, 69, 62
2, 6943, Note_on_c, 0, 47, 36
2, 6947, Control_c, 0, 64, 0
2, 6988, Note_on_c, 0, 71, 34
2, 6995, Control_c, 0, 64, 127
2, 6997, Note_on_c, 0, 71, 0
2, 7003, Note_on_c, 0, 57, 45
2, 7035, Note_on_c, 0, 57, 0
2, 7053, Note_on_c, 0, 69, 0
2, 7064, Note_on_c, 0, 57, 47
2, 7086, Note_on_c, 0, 47, 0
2, 7130, Note_on_c, 0, 62, 59
2, 7158, Note_on_c, 0, 57, 0
2, 7201, Control_c, 0, 64, 0
2, 7208, Note_on_c, 0, 28, 46
2, 7209, Note_on_c, 0, 56, 35
2, 7226, Note_on_c, 0, 62, 0
2, 7233, Control_c, 0, 64, 127
2, 7239, Note_on_c, 0, 28, 0
2, 7258, Note_on_c, 0, 56, 0
2, 7294, Note_on_c, 0, 62, 49
2, 7301, Note_on_c, 0, 62, 0
2, 7388, Note_on_c, 0, 56, 27
2, 7389, Note_on_c, 0, 74, 41
2, 7397, Note_on_c, 0, 62, 32
2, 7408, Note_on_c, 0, 67, 6
2, 7494, Note_on_c, 0, 74, 0
2, 7503, Note_on_c, 0, 83, 37
2, 7751, Note_on_c, 0, 67, 0
2, 7758, Note_on_c, 0, 83, 0
2, 7765, Note_on_c, 0, 62, 0
2, 7766, Note_on_c, 0, 56, 0
2, 7792, Note_on_c, 0, 80, 49
2, 7817, Note_on_c, 0, 80, 0
2, 7836, Note_on_c, 0, 83, 88
2, 7885, Note_on_c, 0, 83, 0
2, 7900, Note_on_c, 0, 83, 71
2, 7918, Note_on_c, 0, 83, 0
2, 8026, Note_on_c, 0, 61, 37
2, 8031, Note_on_c, 0, 45, 30
2, 8034, Control_c, 0, 64, 0
2, 8035, Note_on_c, 0, 57, 18
2, 8035, Note_on_c, 0, 33, 25
2, 8066, Control_c, 0, 64, 127
2, 8094, Note_on_c, 0, 69, 54
2, 8116, Note_on_c, 0, 69, 0
2, 8149, Note_on_c, 0, 69, 60
2, 8168, Note_on_c, 0, 33, 0
2, 8170, Note_on_c, 0, 69, 0
2, 8185, Note_on_c, 0, 57, 0
2, 8186, Note_on_c, 0, 45, 0
2, 8194, Note_on_c, 0, 69, 49
2, 8223, Note_on_c, 0, 61, 0
2, 8231, Note_on_c, 0, 69, 0
2, 8246, Note_on_c, 0, 62, 40
2, 8247, Note_on_c, 0, 47, 33
2, 8248, Note_on_c, 0, 57, 30
2, 8253, Note_on_c, 0, 35, 24
2, 8256, Control_c, 0, 64, 0
2, 8310, Note_on_c, 0, 69, 50
2, 8310, Control_c, 0, 64, 127
2, 8332, Note_on_c, 0, 69, 0
2, 8373, Note_on_c, 0, 69, 40
2, 8391, Note_on_c, 0, 69, 0
2, 8391, Note_on_c, 0, 35, 0
2, 8429, Note_on_c, 0, 47, 0
2, 8429, Note_on_c, 0, 69, 44
2, 8431, Note_on_c, 0, 57, 0
2, 8433, Note_on_c, 0, 62, 0
2, 8478, Note_on_c, 0, 69, 0
2, 8495, Note_on_c, 0, 63, 33
2, 8498, Note_on_c, 0, 48, 32
2, 8500, Note_on_c, 0, 57, 24
2, 8504, Note_on_c, 0, 36, 29
2, 8505, Control_c, 0, 64, 0
2, 8559, Control_c, 0, 64, 127
2, 8568, Note_on_c, 0, 69, 41
2, 8589, Note_on_c, 0, 69, 0
2, 8633, Note_on_c, 0, 69, 36
2, 8656, Note_on_c, 0, 69, 0
2, 8669, Note_on_c, 0, 48, 0
2, 8675, Note_on_c, 0, 36, 0
2, 8699, Note_on_c, 0, 69, 38
2, 8724, Note_on_c, 0, 57, 0
2, 8724, Note_on_c, 0, 63, 0
2, 8762, Note_on_c, 0, 69, 0
2, 8783, Note_on_c, 0, 61, 33
2, 8787, Note_on_c, 0, 57, 37
2, 8788, Note_on_c, 0, 37, 23
2, 8794, Control_c, 0, 64, 0
2, 8820, Note_on_c, 0, 49, 1
2, 8862, Control_c, 0, 64, 127
2, 8882, Note_on_c, 0, 69, 40
2, 8923, Note_on_c, 0, 69, 0
2, 8994, Note_on_c, 0, 69, 37
2, 9126, Note_on_c, 0, 37, 0
2, 9140, Note_on_c, 0, 49, 0
2, 9158, Note_on_c, 0, 57, 0
2, 9165, Note_on_c, 0, 69, 0
2, 9175, Note_on_c, 0, 64, 24
2, 9176, Note_on_c, 0, 61, 0
2, 9226, Note_on_c, 0, 64, 0
2, 9312, Note_on_c, 0, 71, 50
2, 9314, Note_on_c, 0, 68, 37
2, 9314, Note_on_c, 0, 64, 39
2, 9316, Note_on_c, 0, 60, 40
2, 9316, Note_on_c, 0, 50, 31
2, 9321, Note_on_c, 0, 59, 34
2, 9325, Control_c, 0, 64, 0
2, 9384, Note_on_c, 0, 59, 0
2, 9391, Note_on_c, 0, 58, 33
2, 9406, Note_on_c, 0, 58, 0
2, 9419, Note_on_c, 0, 57, 37
2, 9448, Note_on_c, 0, 57, 0
2, 9449, Note_on_c, 0, 56, 25
2, 9467, Note_on_c, 0, 56, 0
2, 9485, Note_on_c, 0, 55, 20
2, 9503, Note_on_c, 0, 55, 0
2, 9510, Note_on_c, 0, 54, 32
2, 9584, Control_c, 0, 64, 127
2, 9622, Note_on_c, 0, 60, 0
2, 9707, Note_on_c, 0, 50, 0
2, 9707, Note_on_c, 0, 68, 0
2, 9710, Note_on_c, 0, 60, 24
2, 9723, Note_on_c, 0, 64, 0
2, 9724, Note_on_c, 0, 71, 0
2, 9751, Note_on_c, 0, 60, 0
2, 9772, Note_on_c, 0, 54, 0
2, 9785, Control_c, 0, 64, 0
2, 9785, Note_on_c, 0, 69, 64
2, 9788, Note_on_c, 0, 60, 45
2, 9789, Note_on_c, 0, 66, 42
2, 9789, Note_on_c, 0, 63, 42
2, 9790, Note_on_c, 0, 49, 33
2, 9792, Note_on_c, 0, 57, 25
2, 9805, Control_c, 0, 64, 127
2, 9815, Note_on_c, 0, 69, 0
2, 9825, Note_on_c, 0, 60, 0
2, 9828, Note_on_c, 0, 66, 0
2, 9829, Note_on_c, 0, 63, 0
2, 9834, Note_on_c, 0, 49, 0
2, 9846, Note_on_c, 0, 57, 0
2, 9863, Note_on_c, 0, 74, 79
2, 9868, Note_on_c, 0, 47, 42
2, 9869, Control_c, 0, 64, 0
2, 9909, Control_c, 0, 64, 127
2, 9927, Note_on_c, 0, 54, 43
2, 9977, Note_on_c, 0, 74, 0
2, 10000, Note_on_c, 0, 59, 30
2, 10000, Note_on_c, 0, 62, 40
2, 10001, Note_on_c, 0, 66, 34
2, 10061, Note_on_c, 0, 62, 0
2, 10065, Note_on_c, 0, 66, 0
2, 10070, Note_on_c, 0, 47, 0
2, 10073, Note_on_c, 0, 71, 75
2, 10077, Note_on_c, 0, 54, 0
2, 10086, Note_on_c, 0, 59, 0
2, 10137, Note_on_c, 0, 71, 0
2, 10233, Note_on_c, 0, 69, 90
2, 10239, Note_on_c, 0, 66, 76
2, 10240, Note_on_c, 0, 62, 80
2, 10243, Note_on_c, 0, 55, 60
2, 10243, Note_on_c, 0, 57, 58
2, 10248, Control_c, 0, 64, 0
2, 10249, Note_on_c, 0, 59, 44
2, 10250, Note_on_c, 0, 60, 43
2, 10281, Note_on_c, 0, 60, 0
2, 10284, Control_c, 0, 64, 127
2, 10337, Note_on_c, 0, 69, 0
2, 10386, Note_on_c, 0, 59, 0
2, 10390, Note_on_c, 0, 55, 0
2, 10394, Note_on_c, 0, 69, 65
2, 10396, Note_on_c, 0, 57, 0
2, 10557, Note_on_c, 0, 62, 0
2, 10559, Note_on_c, 0, 69, 0
2, 10563, Note_on_c, 0, 66, 0
2, 10659, Control_c, 0, 64, 0
2, 10661, Note_on_c, 0, 67, 50
2, 10663, Note_on_c, 0, 60, 33
2, 10664, Note_on_c, 0, 64, 45
2, 10669, Note_on_c, 0, 57, 24
2, 10669, Note_on_c, 0, 53, 34
2, 10669, Note_on_c, 0, 55, 30
2, 10693, Control_c, 0, 64, 127
2, 10720, Note_on_c, 0, 67, 0
2, 10748, Note_on_c, 0, 55, 0
2, 10749, Note_on_c, 0, 57, 0
2, 10753, Note_on_c, 0, 67, 44
2, 10756, Note_on_c, 0, 53, 0
2, 10770, Note_on_c, 0, 60, 0
2, 10781, Note_on_c, 0, 64, 0
2, 10782, Note_on_c, 0, 67, 0
2, 10966, Control_c, 0, 64, 0
2, 10973, Note_on_c, 0, 45, 26
2, 10974, Control_c, 0, 64, 127
2, 10986, Note_on_c, 0, 45, 0
2, 11085, Note_on_c, 0, 72, 68
2, 11093, Note_on_c, 0, 64, 30
2, 11093, Note_on_c, 0, 69, 51
2, 11095, Note_on_c, 0, 65, 54
2, 11097, Note_on_c, 0, 60, 24
2, 11132, Note_on_c, 0, 60, 0
2, 11133, Note_on_c, 0, 64, 0
2, 11184, Note_on_c, 0, 69, 0
2, 11188, Note_on_c, 0, 72, 0
2, 11191, Note_on_c, 0, 65, 0
2, 11257, Note_on_c, 0, 69, 66
2, 11258, Note_on_c, 0, 62, 53
2, 11258, Note_on_c, 0, 66, 43
2, 11263, Control_c, 0, 64, 0
2, 11264, Note_on_c, 0, 59, 31
2, 11265, Note_on_c, 0, 57, 32
2, 11266, Note_on_c, 0, 55, 30
2, 11293, Control_c, 0, 64, 127
2, 11317, Note_on_c, 0, 57, 0
2, 11318, Note_on_c, 0, 55, 0
2, 11320, Note_on_c, 0, 59, 0
2, 11335, Note_on_c, 0, 69, 0
2, 11339, Note_on_c, 0, 62, 0
2, 11340, Note_on_c, 0, 66, 0
2, 11389, Note_on_c, 0, 67, 53
2, 11390, Note_on_c, 0, 64, 57
2, 11390, Note_on_c, 0, 54, 33
2, 11391, Note_on_c, 0, 60, 51
2, 11391, Control_c, 0, 64, 0
2, 11394, Note_on_c, 0, 57, 27
2, 11395, Note_on_c, 0, 55, 36
2, 11419, Control_c, 0, 64, 127
2, 11424, Note_on_c, 0, 55, 0
2, 11436, Note_on_c, 0, 57, 0
2, 11440, Note_on_c, 0, 54, 0
2, 11440, Note_on_c, 0, 67, 0
2, 11444, Note_on_c, 0, 64, 0
2, 11450, Note_on_c, 0, 60, 0
2, 11493, Note_on_c, 0, 66, 52
2, 11495, Note_on_c, 0, 62, 55
2, 11498, Note_on_c, 0, 52, 28
2, 11500, Note_on_c, 0, 57, 26
2, 11525, Note_on_c, 0, 52, 0
2, 11528, Note_on_c, 0, 57, 0
2, 11533, Note_on_c, 0, 62, 0
2, 11539, Note_on_c, 0, 66, 0
2, 11596, Note_on_c, 0, 71, 49
2, 11597, Note_on_c, 0, 43, 35
2, 11599, Note_on_c, 0, 64, 38
2, 11599, Note_on_c, 0, 66, 35
2, 11600, Control_c, 0, 64, 0
2, 11602, Note_on_c, 0, 54, 25
2, 11603, Note_on_c, 0, 59, 30
2, 11632, Note_on_c, 0, 59, 0
2, 11634, Control_c, 0, 64, 127
2, 11639, Note_on_c, 0, 64, 0
2, 11646, Note_on_c, 0, 66, 0
2, 11650, Note_on_c, 0, 71, 0
2, 11678, Note_on_c, 0, 54, 0
2, 11681, Note_on_c, 0, 50, 39
2, 11682, Note_on_c, 0, 43, 0
2, 11682, Note_on_c, 0, 83, 50
2, 11690, Note_on_c, 0, 50, 0
2, 11777, Note_on_c, 0, 71, 27
2, 11779, Note_on_c, 0, 59, 32
2, 11873, Note_on_c, 0, 64, 30
2, 11930, Note_on_c, 0, 76, 55
2, 11933, Note_on_c, 0, 83, 0
2, 11946, Note_on_c, 0, 71, 0
2, 11951, Note_on_c, 0, 64, 0
2, 11958, Note_on_c, 0, 59, 0
2, 11973, Note_on_c, 0, 78, 62
2, 11982, Note_on_c, 0, 76, 0
2, 12007, Note_on_c, 0, 78, 0
2, 12012, Note_on_c, 0, 83, 71
2, 12031, Note_on_c, 0, 83, 0
2, 12054, Note_on_c, 0, 91, 80
2, 12084, Note_on_c, 0, 91, 0
2, 12096, Note_on_c, 0, 95, 81
2, 12140, Note_on_c, 0, 98, 81
2, 12145, Control_c, 0, 64, 0
2, 12146, Note_on_c, 0, 95, 0
2, 12150, Note_on_c, 0, 47, 43
2, 12177, Control_c, 0, 64, 127
2, 12181, Note_on_c, 0, 47, 0
2, 12192, Note_on_c, 0, 98, 0
2, 12200, Note_on_c, 0, 96, 57
2, 12243, Note_on_c, 0, 96, 0
2, 12262, Note_on_c, 0, 95, 37
2, 12262, Note_on_c, 0, 51, 31
2, 12266, Note_on_c, 0, 62, 22
2, 12272, Note_on_c, 0, 57, 26
2, 12345, Note_on_c, 0, 95, 0
2, 12351, Note_on_c, 0, 93, 45
2, 12433, Note_on_c, 0, 91, 47
2, 12438, Note_on_c, 0, 93, 0
2, 12466, Note_on_c, 0, 91, 0
2, 12504, Note_on_c, 0, 87, 48
2, 12552, Note_on_c, 0, 91, 72
2, 12556, Note_on_c, 0, 87, 0
2, 12601, Note_on_c, 0, 86, 80
2, 12603, Note_on_c, 0, 91, 0
2, 12644, Note_on_c, 0, 86, 0
2, 12650, Note_on_c, 0, 87, 74
2, 12703, Note_on_c, 0, 87, 0
2, 12704, Note_on_c, 0, 83, 50
2, 12767, Note_on_c, 0, 86, 78
2, 12776, Note_on_c, 0, 83, 0
2, 12840, Note_on_c, 0, 84, 42
2, 12848, Note_on_c, 0, 86, 0
2, 12907, Note_on_c, 0, 79, 40
2, 12918, Note_on_c, 0, 84, 0
2, 12945, Note_on_c, 0, 51, 0
2, 12947, Note_on_c, 0, 57, 0
2, 12958, Note_on_c, 0, 78, 52
2, 12966, Note_on_c, 0, 79, 0
2, 12997, Note_on_c, 0, 81, 68
2, 13009, Note_on_c, 0, 78, 0
2, 13036, Note_on_c, 0, 81, 0
2, 13041, Note_on_c, 0, 79, 64
2, 13046, Note_on_c, 0, 81, 17
2, 13069, Note_on_c, 0, 81, 0
2, 13090, Note_on_c, 0, 76, 54
2, 13109, Note_on_c, 0, 79, 0
2, 13140, Note_on_c, 0, 75, 59
2, 13148, Note_on_c, 0, 76, 0
2, 13182, Note_on_c, 0, 75, 0
2, 13190, Note_on_c, 0, 77, 55
2, 13234, Note_on_c, 0, 77, 0
2, 13247, Note_on_c, 0, 62, 0
2, 13250, Note_on_c, 0, 76, 32
2, 13251, Note_on_c, 0, 52, 34
2, 13262, Control_c, 0, 64, 0
2, 13300, Control_c, 0, 64, 127
2, 13318, Note_on_c, 0, 59, 29
2, 13351, Note_on_c, 0, 52, 0
2, 13383, Note_on_c, 0, 67, 37
2, 13384, Note_on_c, 0, 71, 42
2, 13390, Note_on_c, 0, 66, 32
2, 13408, Note_on_c, 0, 76, 0
2, 13440, Note_on_c, 0, 66, 0
2, 13448, Note_on_c, 0, 76, 59
2, 13485, Note_on_c, 0, 67, 0
2, 13494, Note_on_c, 0, 71, 0
2, 13497, Note_on_c, 0, 76, 0
2, 13518, Note_on_c, 0, 76, 53
2, 13524, Note_on_c, 0, 71, 53
2, 13526, Note_on_c, 0, 67, 47
2, 13531, Control_c, 0, 64, 0
2, 13531, Note_on_c, 0, 64, 27
2, 13555, Control_c, 0, 64, 127
2, 13567, Note_on_c, 0, 59, 0
2, 13609, Note_on_c, 0, 59, 43
2, 13641, Note_on_c, 0, 67, 0
2, 13643, Note_on_c, 0, 71, 0
2, 13684, Note_on_c, 0, 71, 43
2, 13686, Note_on_c, 0, 76, 0
2, 13686, Note_on_c, 0, 67, 49
2, 13686, Note_on_c, 0, 52, 44
2, 13702, Note_on_c, 0, 71, 0
2, 13731, Note_on_c, 0, 64, 0
2, 13735, Note_on_c, 0, 67, 0
2, 13749, Note_on_c, 0, 59, 0
2, 13757, Note_on_c, 0, 52, 0
2, 13764, Note_on_c, 0, 79, 69
2, 13764, Note_on_c, 0, 67, 75
2, 13785, Note_on_c, 0, 67, 0
2, 13796, Note_on_c, 0, 79, 0
2, 13854, Control_c, 0, 64, 0
2, 13864, Note_on_c, 0, 33, 60
2, 13876, Control_c, 0, 64, 127
2, 13877, Note_on_c, 0, 33, 0
2, 13982, Note_on_c, 0, 61, 78
2, 13983, Note_on_c, 0, 55, 84
2, 13983, Note_on_c, 0, 95, 90
2, 13984, Note_on_c, 0, 66, 82
2, 13985, Note_on_c, 0, 83, 91
2, 13985, Note_on_c, 0, 91, 87
2, 13986, Note_on_c, 0, 88, 80
2, 13993, Note_on_c, 0, 88, 0
2, 13996, Note_on_c, 0, 88, 35
2, 14002, Control_c, 0, 64, 0
2, 14022, Control_c, 0, 64, 127
2, 14072, Note_on_c, 0, 88, 0
2, 14073, Note_on_c, 0, 83, 0
2, 14074, Note_on_c, 0, 55, 0
2, 14081, Note_on_c, 0, 95, 0
2, 14083, Note_on_c, 0, 91, 0
2, 14084, Note_on_c, 0, 66, 0
2, 14088, Note_on_c, 0, 61, 0
2, 14119, Note_on_c, 0, 95, 62
2, 14121, Note_on_c, 0, 91, 55
2, 14123, Note_on_c, 0, 83, 45
2, 14124, Note_on_c, 0, 88, 58
2, 14124, Note_on_c, 0, 61, 55
2, 14124, Note_on_c, 0, 66, 53
2, 14126, Note_on_c, 0, 55, 67
2, 14141, Control_c, 0, 64, 0
2, 14155, Control_c, 0, 64, 127
2, 14226, Note_on_c, 0, 55, 0
2, 14240, Note_on_c, 0, 66, 0
2, 14258, Note_on_c, 0, 61, 0
2, 14269, Note_on_c, 0, 95, 0
2, 14279, Note_on_c, 0, 88, 0
2, 14293, Note_on_c, 0, 91, 0
2, 14328, Note_on_c, 0, 83, 0
2, 14428, Note_on_c, 0, 91, 52
2, 14430, Note_on_c, 0, 55, 45
2, 14431, Note_on_c, 0, 61, 37
2, 14432, Control_c, 0, 64, 0
2, 14432, Note_on_c, 0, 66, 30
2, 14432, Note_on_c, 0, 88, 48
2, 14435, Note_on_c, 0, 84, 45
2, 14436, Note_on_c, 0, 79, 32
2, 14456, Control_c, 0, 64, 127
2, 14489, Note_on_c, 0, 55, 0
2, 14491, Note_on_c, 0, 84, 0
2, 14496, Note_on_c, 0, 79, 0
2, 14502, Note_on_c, 0, 66, 0
2, 14502, Note_on_c, 0, 91, 0
2, 14502, Note_on_c, 0, 61, 0
2, 14502, Note_on_c, 0, 88, 0
2, 14531, Note_on_c, 0, 91, 71
2, 14535, Note_on_c, 0, 66, 49
2, 14535, Note_on_c, 0, 88, 62
2, 14536, Note_on_c, 0, 61, 48
2, 14537, Note_on_c, 0, 79, 57
2, 14538, Note_on_c, 0, 55, 59
2, 14538, Note_on_c, 0, 84, 57
2, 14544, Control_c, 0, 64, 0
2, 14550, Control_c, 0, 64, 127
2, 14577, Note_on_c, 0, 91, 0
2, 14578, Note_on_c, 0, 88, 0
2, 14579, Note_on_c, 0, 55, 0
2, 14579, Note_on_c, 0, 66, 0
2, 14579, Note_on_c, 0, 84, 0
2, 14589, Note_on_c, 0, 79, 0
2, 14596, Note_on_c, 0, 61, 0
2, 14630, Note_on_c, 0, 90, 51
2, 14632, Control_c, 0, 64, 0
2, 14633, Note_on_c, 0, 87, 56
2, 14633, Note_on_c, 0, 66, 51
2, 14634, Note_on_c, 0, 78, 36
2, 14634, Note_on_c, 0, 55, 64
2, 14634, Note_on_c, 0, 61, 49
2, 14652, Control_c, 0, 64, 127
2, 14693, Note_on_c, 0, 55, 0
2, 14699, Note_on_c, 0, 87, 0
2, 14702, Note_on_c, 0, 66, 0
2, 14705, Note_on_c, 0, 61, 0
2, 14706, Note_on_c, 0, 78, 0
2, 14711, Note_on_c, 0, 90, 0
2, 14745, Note_on_c, 0, 90, 47
2, 14749, Note_on_c, 0, 66, 32
2, 14750, Note_on_c, 0, 78, 29
2, 14751, Note_on_c, 0, 87, 38
2, 14751, Note_on_c, 0, 61, 38
2, 14752, Note_on_c, 0, 55, 38
2, 14793, Note_on_c, 0, 55, 0
2, 14793, Note_on_c, 0, 66, 0
2, 14800, Note_on_c, 0, 90, 0
2, 14803, Note_on_c, 0, 87, 0
2, 14805, Note_on_c, 0, 78, 0
2, 14821, Note_on_c, 0, 61, 0
2, 14898, Note_on_c, 0, 61, 38
2, 14899, Note_on_c, 0, 88, 34
2, 14899, Note_on_c, 0, 66, 29
2, 14900, Note_on_c, 0, 55, 35
2, 14901, Note_on_c, 0, 83, 34
2, 14904, Note_on_c, 0, 76, 28
2, 14953, Note_on_c, 0, 66, 0
2, 14954, Note_on_c, 0, 88, 0
2, 14963, Note_on_c, 0, 83, 0
2, 14973, Note_on_c, 0, 55, 0
2, 14985, Note_on_c, 0, 61, 0
2, 14990, Note_on_c, 0, 76, 0
2, 15327, Note_on_c, 0, 33, 48
2, 15338, Control_c, 0, 64, 0
2, 15356, Control_c, 0, 64, 127
2, 15401, Note_on_c, 0, 33, 0
2, 15740, Note_on_c, 0, 55, 35
2, 15741, Control_c, 0, 64, 0
2, 15744, Note_on_c, 0, 60, 40
2, 15745, Note_on_c, 0, 65, 48
2, 15745, Note_on_c, 0, 69, 45
2, 15767, Control_c, 0, 64, 127
2, 15970, Note_on_c, 0, 67, 40
2, 15971, Note_on_c, 0, 69, 0
2, 15989, Note_on_c, 0, 65, 0
2, 15998, Note_on_c, 0, 60, 0
2, 16009, Note_on_c, 0, 67, 0
2, 16060, Note_on_c, 0, 70, 51
2, 16061, Note_on_c, 0, 55, 0
2, 16061, Note_on_c, 0, 61, 31
2, 16062, Note_on_c, 0, 66, 32
2, 16063, Note_on_c, 0, 56, 37
2, 16068, Control_c, 0, 64, 0
2, 16106, Control_c, 0, 64, 127
2, 16118, Note_on_c, 0, 70, 0
2, 16131, Note_on_c, 0, 68, 46
2, 16143, Note_on_c, 0, 61, 0
2, 16149, Note_on_c, 0, 66, 0
2, 16172, Note_on_c, 0, 68, 0
2, 16213, Note_on_c, 0, 68, 51
2, 16215, Note_on_c, 0, 72, 44
2, 16217, Note_on_c, 0, 56, 0
2, 16217, Note_on_c, 0, 63, 32
2, 16217, Note_on_c, 0, 58, 33
2, 16225, Control_c, 0, 64, 0
2, 16267, Control_c, 0, 64, 127
2, 16296, Note_on_c, 0, 72, 0
2, 16299, Note_on_c, 0, 70, 55
2, 16322, Note_on_c, 0, 68, 0
2, 16338, Note_on_c, 0, 70, 0
2, 16351, Note_on_c, 0, 63, 0
2, 16394, Note_on_c, 0, 58, 0
2, 16394, Note_on_c, 0, 73, 33
2, 16395, Note_on_c, 0, 59, 38
2, 16396, Note_on_c, 0, 64, 35
2, 16396, Note_on_c, 0, 69, 45
2, 16413, Control_c, 0, 64, 0
2, 16449, Control_c, 0, 64, 127
2, 16544, Note_on_c, 0, 71, 48
2, 16592, Note_on_c, 0, 64, 0
2, 16606, Note_on_c, 0, 69, 0
2, 16610, Note_on_c, 0, 71, 0
2, 16625, Note_on_c, 0, 73, 0
2, 16703, Note_on_c, 0, 75, 50
2, 16705, Note_on_c, 0, 71, 55
2, 16707, Note_on_c, 0, 66, 28
2, 16710, Note_on_c, 0, 61, 25
2, 16714, Control_c, 0, 64, 0
2, 16715, Note_on_c, 0, 59, 0
2, 16750, Control_c, 0, 64, 127
2, 16846, Note_on_c, 0, 73, 36
2, 16898, Note_on_c, 0, 71, 0
2, 16907, Note_on_c, 0, 75, 0
2, 16912, Note_on_c, 0, 66, 0
2, 16938, Note_on_c, 0, 73, 0
2, 16963, Note_on_c, 0, 61, 0
2, 16963, Note_on_c, 0, 67, 37
2, 16964, Note_on_c, 0, 72, 34
2, 16966, Note_on_c, 0, 76, 35
2, 16967, Note_on_c, 0, 62, 35
2, 16969, Control_c, 0, 64, 0
2, 16997, Control_c, 0, 64, 127
2, 17030, Note_on_c, 0, 72, 0
2, 17034, Note_on_c, 0, 74, 54
2, 17050, Note_on_c, 0, 67, 0
2, 17054, Note_on_c, 0, 76, 0
2, 17058, Note_on_c, 0, 74, 0
2, 17121, Note_on_c, 0, 78, 39
2, 17124, Note_on_c, 0, 69, 41
2, 17126, Note_on_c, 0, 74, 41
2, 17127, Note_on_c, 0, 62, 0
2, 17129, Note_on_c, 0, 64, 25
2, 17131, Control_c, 0, 64, 0
2, 17165, Control_c, 0, 64, 127
2, 17231, Note_on_c, 0, 64, 0
2, 17256, Note_on_c, 0, 76, 24
2, 17273, Note_on_c, 0, 74, 0
2, 17288, Note_on_c, 0, 69, 0
2, 17316, Note_on_c, 0, 78, 0
2, 17322, Note_on_c, 0, 76, 0
2, 17384, Note_on_c, 0, 79, 29
2, 17386, Control_c, 0, 64, 0
2, 17387, Note_on_c, 0, 67, 24
2, 17388, Note_on_c, 0, 72, 32
2, 17388, Note_on_c, 0, 50, 25
2, 17389, Note_on_c, 0, 76, 42
2, 17390, Note_on_c, 0, 60, 20
2, 17422, Control_c, 0, 64, 127
2, 17455, Note_on_c, 0, 67, 0
2, 17462, Note_on_c, 0, 72, 0
2, 17468, Note_on_c, 0, 79, 0
2, 17468, Note_on_c, 0, 76, 0
2, 17750, Note_on_c, 0, 73, 32
2, 17763, Note_on_c, 0, 50, 0
2, 17765, Note_on_c, 0, 60, 0
2, 17798, Note_on_c, 0, 73, 0
2, 17804, Note_on_c, 0, 74, 49
2, 17853, Note_on_c, 0, 74, 0
2, 17869, Note_on_c, 0, 81, 58
2, 17875, Control_c, 0, 64, 0
2, 17876, Note_on_c, 0, 43, 29
2, 17899, Control_c, 0, 64, 127
2, 17922, Note_on_c, 0, 81, 0
2, 17953, Note_on_c, 0, 50, 14
2, 18010, Note_on_c, 0, 54, 34
2, 18135, Note_on_c, 0, 61, 37
2, 18214, Note_on_c, 0, 61, 0
2, 18233, Note_on_c, 0, 62, 42
2, 18289, Note_on_c, 0, 62, 0
2, 18296, Note_on_c, 0, 69, 71
2, 18311, Note_on_c, 0, 69, 0
2, 18353, Note_on_c, 0, 74, 82
2, 18417, Note_on_c, 0, 81, 80
2, 18469, Note_on_c, 0, 81, 0
2, 18495, Note_on_c, 0, 81, 69
2, 18517, Note_on_c, 0, 54, 0
2, 18518, Note_on_c, 0, 50, 0
2, 18534, Note_on_c, 0, 43, 0
2, 18540, Note_on_c, 0, 81, 0
2, 18570, Note_on_c, 0, 81, 58
2, 18606, Note_on_c, 0, 81, 0
2, 18645, Note_on_c, 0, 81, 53
2, 18658, Note_on_c, 0, 74, 0
2, 18677, Note_on_c, 0, 81, 0
2, 18738, Note_on_c, 0, 81, 45
2, 18742, Note_on_c, 0, 78, 35
2, 18746, Note_on_c, 0, 36, 29
2, 18747, Note_on_c, 0, 74, 37
2, 18748, Note_on_c, 0, 70, 25
2, 18750, Control_c, 0, 64, 0
2, 18798, Control_c, 0, 64, 127
2, 18847, Note_on_c, 0, 43, 28
2, 18894, Note_on_c, 0, 70, 0
2, 18917, Note_on_c, 0, 36, 0
2, 18936, Note_on_c, 0, 43, 0
2, 18944, Note_on_c, 0, 52, 32
2, 18964, Note_on_c, 0, 52, 0
2, 19039, Note_on_c, 0, 70, 29
2, 19091, Note_on_c, 0, 81, 0
2, 19109, Note_on_c, 0, 78, 0
2, 19141, Note_on_c, 0, 79, 72
2, 19187, Note_on_c, 0, 79, 0
2, 19205, Note_on_c, 0, 79, 54
2, 19241, Note_on_c, 0, 79, 0
2, 19254, Note_on_c, 0, 78, 50
2, 19282, Note_on_c, 0, 78, 0
2, 19289, Note_on_c, 0, 74, 0
2, 19298, Note_on_c, 0, 78, 42
2, 19329, Note_on_c, 0, 70, 0
2, 19333, Note_on_c, 0, 78, 0
2, 19348, Control_c, 0, 64, 0
2, 19348, Note_on_c, 0, 77, 50
2, 19349, Note_on_c, 0, 47, 34
2, 19376, Control_c, 0, 64, 127
2, 19400, Note_on_c, 0, 77, 0
2, 19424, Note_on_c, 0, 57, 31
2, 19509, Note_on_c, 0, 60, 35
2, 19517, Note_on_c, 0, 60, 0
2, 19525, Note_on_c, 0, 62, 37
2, 19530, Control_c, 0, 64, 0
2, 19532, Note_on_c, 0, 62, 0
2, 19540, Note_on_c, 0, 64, 43
2, 19550, Note_on_c, 0, 64, 0
2, 19557, Note_on_c, 0, 65, 48
2, 19561, Note_on_c, 0, 57, 0
2, 19565, Note_on_c, 0, 65, 0
2, 19572, Note_on_c, 0, 67, 44
2, 19575, Note_on_c, 0, 47, 0
2, 19581, Note_on_c, 0, 67, 0
2, 19589, Note_on_c, 0, 69, 46
2, 19597, Note_on_c, 0, 69, 0
2, 19605, Note_on_c, 0, 71, 41
2, 19614, Note_on_c, 0, 71, 0
2, 19624, Note_on_c, 0, 72, 42
2, 19631, Note_on_c, 0, 72, 0
2, 19643, Note_on_c, 0, 74, 35
2, 19655, Note_on_c, 0, 74, 0
2, 19662, Note_on_c, 0, 76, 38
2, 19671, Note_on_c, 0, 76, 0
2, 19680, Note_on_c, 0, 77, 36
2, 19689, Note_on_c, 0, 77, 0
2, 19697, Note_on_c, 0, 79, 34
2, 19704, Note_on_c, 0, 79, 0
2, 19716, Note_on_c, 0, 81, 38
2, 19725, Note_on_c, 0, 81, 0
2, 19730, Note_on_c, 0, 83, 33
2, 19740, Note_on_c, 0, 83, 0
2, 19752, Note_on_c, 0, 84, 40
2, 19759, Note_on_c, 0, 84, 0
2, 19769, Note_on_c, 0, 86, 55
2, 19776, Note_on_c, 0, 86, 0
2, 19785, Note_on_c, 0, 88, 36
2, 19793, Note_on_c, 0, 88, 0
2, 19799, Note_on_c, 0, 89, 34
2, 19807, Note_on_c, 0, 89, 0
2, 19817, Note_on_c, 0, 91, 35
2, 19828, Note_on_c, 0, 91, 0
2, 19835, Note_on_c, 0, 93, 37
2, 19843, Control_c, 0, 64, 127
2, 19846, Note_on_c, 0, 93, 0
2, 19853, Note_on_c, 0, 95, 35
2, 19860, Note_on_c, 0, 95, 0
2, 19870, Note_on_c, 0, 96, 38
2, 19877, Note_on_c, 0, 96, 0
2, 19881, Note_on_c, 0, 98, 41
2, 19888, Note_on_c, 0, 98, 0
2, 19895, Note_on_c, 0, 28, 43
2, 19896, Note_on_c, 0, 100, 41
2, 19897, Note_on_c, 0, 40, 39
2, 19899, Control_c, 0, 64, 0
2, 19937, Control_c, 0, 64, 127
2, 19969, Note_on_c, 0, 28, 0
2, 19975, Note_on_c, 0, 100, 0
2, 19981, Note_on_c, 0, 40, 0
2, 20122, Note_on_c, 0, 79, 38
2, 20139, Note_on_c, 0, 76, 51
2, 20152, Note_on_c, 0, 72, 25
2, 20162, Note_on_c, 0, 67, 54
2, 20184, Note_on_c, 0, 62, 24
2, 20185, Note_on_c, 0, 56, 33
2, 20375, Note_on_c, 0, 67, 0
2, 20382, Note_on_c, 0, 62, 0
2, 20390, Note_on_c, 0, 72, 0
2, 20398, Note_on_c, 0, 79, 0
2, 20401, Note_on_c, 0, 76, 0
2, 20521, Note_on_c, 0, 75, 59
2, 20524, Note_on_c, 0, 63, 35
2, 20541, Note_on_c, 0, 75, 0
2, 20545, Note_on_c, 0, 56, 0
2, 20554, Note_on_c, 0, 63, 0
2, 20558, Note_on_c, 0, 76, 74
2, 20560, Note_on_c, 0, 64, 49
2, 20582, Note_on_c, 0, 76, 0
2, 20585, Note_on_c, 0, 64, 0
2, 20597, Control_c, 0, 64, 0
2, 20601, Note_on_c, 0, 71, 80
2, 20601, Note_on_c, 0, 83, 89
2, 20628, Control_c, 0, 64, 127
2, 20661, Note_on_c, 0, 83, 0
2, 20664, Note_on_c, 0, 71, 0
2, 20677, Note_on_c, 0, 71, 84
2, 20679, Note_on_c, 0, 83, 83
2, 20716, Note_on_c, 0, 71, 0
2, 20728, Note_on_c, 0, 83, 0
2, 20854, Note_on_c, 0, 71, 44
2, 20858, Note_on_c, 0, 67, 54
2, 20866, Note_on_c, 0, 64, 53
2, 20872, Note_on_c, 0, 45, 31
2, 20876, Note_on_c, 0, 55, 35
2, 20879, Note_on_c, 0, 52, 27
2, 20880, Note_on_c, 0, 59, 29
2, 20881, Note_on_c, 0, 60, 24
2, 20886, Control_c, 0, 64, 0
2, 20951, Control_c, 0, 64, 127
2, 21131, Note_on_c, 0, 45, 0
2, 21135, Note_on_c, 0, 55, 0
2, 21137, Note_on_c, 0, 52, 0
2, 21149, Note_on_c, 0, 59, 0
2, 21157, Note_on_c, 0, 60, 0
2, 21165, Note_on_c, 0, 67, 0
2, 21176, Note_on_c, 0, 64, 0
2, 21189, Note_on_c, 0, 71, 0
2, 21219, Note_on_c, 0, 69, 65
2, 21220, Note_on_c, 0, 57, 37
2, 21240, Note_on_c, 0, 57, 0
2, 21245, Control_c, 0, 64, 0
2, 21251, Note_on_c, 0, 69, 0
2, 21253, Note_on_c, 0, 56, 39
2, 21254, Note_on_c, 0, 68, 55
2, 21281, Note_on_c, 0, 68, 0
2, 21282, Note_on_c, 0, 56, 0
2, 21295, Note_on_c, 0, 67, 62
2, 21295, Note_on_c, 0, 55, 48
2, 21307, Control_c, 0, 64, 127
2, 21412, Note_on_c, 0, 59, 38
2, 21413, Note_on_c, 0, 64, 38
2, 21419, Note_on_c, 0, 55, 0
2, 21420, Note_on_c, 0, 49, 29
2, 21426, Control_c, 0, 64, 0
2, 21464, Control_c, 0, 64, 127
2, 21529, Note_on_c, 0, 59, 0
2, 21540, Note_on_c, 0, 49, 0
2, 21545, Note_on_c, 0, 64, 0
2, 21642, Note_on_c, 0, 58, 36
2, 21648, Note_on_c, 0, 42, 32
2, 21649, Note_on_c, 0, 30, 29
2, 21659, Control_c, 0, 64, 0
2, 21696, Control_c, 0, 64, 127
2, 21745, Note_on_c, 0, 30, 0
2, 21761, Note_on_c, 0, 42, 0
2, 21768, Note_on_c, 0, 58, 0
2, 21783, Note_on_c, 0, 67, 0
2, 22118, Note_on_c, 0, 66, 47
2, 22121, Note_on_c, 0, 57, 40
2, 22121, Note_on_c, 0, 62, 41
2, 22122, Control_c, 0, 64, 0
2, 22122, Note_on_c, 0, 52, 34
2, 22148, Control_c, 0, 64, 127
2, 22265, Note_on_c, 0, 57, 0
2, 22313, Note_on_c, 0, 66, 0
2, 22316, Note_on_c, 0, 62, 0
2, 22353, Note_on_c, 0, 52, 0
2, 22356, Control_c, 0, 64, 0
2, 22357, Note_on_c, 0, 67, 57
2, 22358, Note_on_c, 0, 63, 42
2, 22359, Note_on_c, 0, 58, 33
2, 22364, Note_on_c, 0, 53, 27
2, 22367, Control_c, 0, 64, 127
2, 22392, Note_on_c, 0, 58, 0
2, 22393, Note_on_c, 0, 67, 0
2, 22398, Note_on_c, 0, 63, 0
2, 22405, Note_on_c, 0, 53, 0
2, 22462, Note_on_c, 0, 43, 37
2, 22464, Note_on_c, 0, 54, 30
2, 22464, Note_on_c, 0, 74, 62
2, 22467, Note_on_c, 0, 66, 50
2, 22475, Control_c, 0, 64, 0
2, 22531, Control_c, 0, 64, 127
2, 22556, Note_on_c, 0, 54, 0
2, 22557, Note_on_c, 0, 50, 41
2, 22626, Note_on_c, 0, 54, 43
2, 22642, Note_on_c, 0, 43, 0
2, 22658, Note_on_c, 0, 54, 0
2, 22660, Note_on_c, 0, 50, 0
2, 22674, Note_on_c, 0, 62, 62
2, 22687, Note_on_c, 0, 66, 0
2, 22709, Note_on_c, 0, 74, 0
2, 22711, Note_on_c, 0, 62, 0
2, 22720, Note_on_c, 0, 66, 73
2, 22734, Note_on_c, 0, 42, 25
2, 22741, Note_on_c, 0, 42, 0
2, 22766, Note_on_c, 0, 66, 0
2, 22771, Note_on_c, 0, 74, 76
2, 22793, Note_on_c, 0, 74, 0
2, 22828, Note_on_c, 0, 81, 87
2, 22870, Note_on_c, 0, 81, 0
2, 22889, Note_on_c, 0, 81, 73
2, 22923, Note_on_c, 0, 81, 0
2, 22950, Note_on_c, 0, 81, 60
2, 22955, Note_on_c, 0, 74, 54
2, 22958, Note_on_c, 0, 52, 30
2, 22958, Control_c, 0, 64, 0
2, 22959, Note_on_c, 0, 36, 20
2, 22996, Control_c, 0, 64, 127
2, 23016, Note_on_c, 0, 52, 0
2, 23022, Note_on_c, 0, 36, 0
2, 23024, Note_on_c, 0, 43, 41
2, 23032, Note_on_c, 0, 43, 0
2, 23051, Note_on_c, 0, 74, 0
2, 23103, Note_on_c, 0, 74, 48
2, 23103, Note_on_c, 0, 70, 36
2, 23115, Note_on_c, 0, 58, 33
2, 23154, Note_on_c, 0, 70, 0
2, 23190, Note_on_c, 0, 62, 36
2, 23198, Note_on_c, 0, 81, 0
2, 23213, Note_on_c, 0, 74, 0
2, 23220, Note_on_c, 0, 62, 0
2, 23740, Note_on_c, 0, 79, 43
2, 23740, Note_on_c, 0, 83, 54
2, 23740, Note_on_c, 0, 69, 33
2, 23740, Note_on_c, 0, 74, 49
2, 23742, Control_c, 0, 64, 0
2, 23764, Control_c, 0, 64, 127
2, 23782, Note_on_c, 0, 69, 0
2, 23793, Note_on_c, 0, 79, 0
2, 23806, Note_on_c, 0, 74, 0
2, 23813, Note_on_c, 0, 83, 0
2, 23845, Note_on_c, 0, 82, 52
2, 23846, Note_on_c, 0, 78, 47
2, 23849, Note_on_c, 0, 73, 34
2, 23859, Note_on_c, 0, 58, 0
2, 23883, Note_on_c, 0, 82, 0
2, 23887, Note_on_c, 0, 78, 0
2, 23897, Note_on_c, 0, 73, 0
2, 23929, Note_on_c, 0, 47, 30
2, 23932, Note_on_c, 0, 81, 43
2, 23935, Note_on_c, 0, 74, 38
2, 23939, Control_c, 0, 64, 0
2, 23967, Control_c, 0, 64, 127
2, 23995, Note_on_c, 0, 47, 0
2, 24003, Note_on_c, 0, 57, 24
2, 24013, Note_on_c, 0, 57, 0
2, 24063, Note_on_c, 0, 62, 25
2, 24108, Note_on_c, 0, 65, 36
2, 24126, Note_on_c, 0, 65, 0
2, 24139, Note_on_c, 0, 74, 0
2, 24149, Note_on_c, 0, 69, 47
2, 24152, Note_on_c, 0, 62, 0
2, 24182, Note_on_c, 0, 69, 0
2, 24185, Note_on_c, 0, 81, 0
2, 24193, Note_on_c, 0, 74, 64
2, 24227, Note_on_c, 0, 74, 0
2, 24241, Note_on_c, 0, 81, 78
2, 24289, Note_on_c, 0, 79, 59
2, 24292, Note_on_c, 0, 81, 0
2, 24338, Control_c, 0, 64, 0
2, 24343, Note_on_c, 0, 52, 41
2, 24344, Note_on_c, 0, 77, 46
2, 24376, Control_c, 0, 64, 127
2, 24416, Note_on_c, 0, 52, 0
2, 24476, Note_on_c, 0, 76, 43
2, 24479, Note_on_c, 0, 62, 24
2, 24480, Note_on_c, 0, 77, 0
2, 24537, Note_on_c, 0, 74, 48
2, 24540, Note_on_c, 0, 67, 39
2, 24542, Note_on_c, 0, 76, 0
2, 24547, Note_on_c, 0, 79, 0
2, 24575, Note_on_c, 0, 67, 0
2, 24587, Note_on_c, 0, 74, 0
2, 24608, Note_on_c, 0, 79, 45
2, 24611, Note_on_c, 0, 72, 36
2, 24611, Note_on_c, 0, 65, 29
2, 24646, Note_on_c, 0, 62, 0
2, 24675, Note_on_c, 0, 62, 35
2, 24677, Note_on_c, 0, 71, 49
2, 24680, Note_on_c, 0, 72, 0
2, 24684, Note_on_c, 0, 79, 0
2, 24740, Note_on_c, 0, 71, 0
2, 24761, Note_on_c, 0, 69, 51
2, 24765, Note_on_c, 0, 56, 27
2, 24780, Note_on_c, 0, 62, 0
2, 24781, Note_on_c, 0, 65, 0
2, 24809, Note_on_c, 0, 69, 0
2, 24842, Note_on_c, 0, 68, 42
2, 24847, Note_on_c, 0, 62, 20
2, 24853, Note_on_c, 0, 62, 0
2, 24864, Note_on_c, 0, 56, 0
2, 24908, Note_on_c, 0, 68, 0
2, 24914, Note_on_c, 0, 71, 58
2, 24923, Note_on_c, 0, 45, 30
2, 24926, Control_c, 0, 64, 0
2, 24966, Control_c, 0, 64, 127
2, 24985, Note_on_c, 0, 52, 28
2, 24992, Note_on_c, 0, 71, 0
2, 25053, Note_on_c, 0, 61, 34
2, 25056, Note_on_c, 0, 57, 22
2, 25085, Note_on_c, 0, 57, 0
2, 25094, Note_on_c, 0, 45, 0
2, 25100, Note_on_c, 0, 52, 0
2, 25105, Note_on_c, 0, 61, 0
2, 25121, Note_on_c, 0, 71, 40
2, 25123, Note_on_c, 0, 69, 34
2, 25131, Note_on_c, 0, 69, 0
2, 25134, Note_on_c, 0, 71, 0
2, 25199, Note_on_c, 0, 83, 79
2, 25202, Note_on_c, 0, 55, 79
2, 25202, Note_on_c, 0, 61, 69
2, 25202, Note_on_c, 0, 78, 64
2, 25203, Note_on_c, 0, 75, 74
2, 25204, Note_on_c, 0, 66, 74
2, 25205, Control_c, 0, 64, 0
2, 25205, Note_on_c, 0, 71, 78
2, 25239, Control_c, 0, 64, 127
2, 25268, Note_on_c, 0, 55, 0
2, 25269, Note_on_c, 0, 75, 0
2, 25269, Note_on_c, 0, 71, 0
2, 25270, Note_on_c, 0, 83, 0
2, 25271, Note_on_c, 0, 66, 0
2, 25275, Note_on_c, 0, 78, 0
2, 25279, Note_on_c, 0, 61, 0
2, 25290, Note_on_c, 0, 83, 69
2, 25292, Note_on_c, 0, 61, 64
2, 25293, Note_on_c, 0, 75, 73
2, 25293, Control_c, 0, 64, 0
2, 25294, Note_on_c, 0, 78, 56
2, 25294, Note_on_c, 0, 66, 73
2, 25294, Note_on_c, 0, 55, 80
2, 25294, Note_on_c, 0, 71, 79
2, 25318, Control_c, 0, 64, 127
2, 25341, Note_on_c, 0, 55, 0
2, 25342, Note_on_c, 0, 75, 0
2, 25342, Note_on_c, 0, 83, 0
2, 25343, Note_on_c, 0, 71, 0
2, 25347, Note_on_c, 0, 78, 0
2, 25348, Note_on_c, 0, 66, 0
2, 25359, Note_on_c, 0, 61, 0
2, 25376, Note_on_c, 0, 61, 46
2, 25377, Note_on_c, 0, 75, 62
2, 25378, Note_on_c, 0, 83, 68
2, 25379, Note_on_c, 0, 55, 64
2, 25379, Note_on_c, 0, 66, 50
2, 25380, Note_on_c, 0, 71, 66
2, 25380, Note_on_c, 0, 78, 40
2, 25406, Note_on_c, 0, 55, 0
2, 25415, Note_on_c, 0, 83, 0
2, 25420, Note_on_c, 0, 71, 0
2, 25422, Note_on_c, 0, 78, 0
2, 25427, Note_on_c, 0, 66, 0
2, 25429, Note_on_c, 0, 75, 0
2, 25437, Note_on_c, 0, 61, 0
2, 25465, Control_c, 0, 64, 0
2, 25468, Note_on_c, 0, 84, 68
2, 25469, Note_on_c, 0, 67, 41
2, 25470, Note_on_c, 0, 79, 44
2, 25470, Note_on_c, 0, 76, 54
2, 25470, Note_on_c, 0, 62, 46
2, 25471, Note_on_c, 0, 72, 46
2, 25471, Note_on_c, 0, 56, 34
2, 25495, Control_c, 0, 64, 127
2, 25498, Note_on_c, 0, 84, 0
2, 25507, Note_on_c, 0, 79, 0
2, 25508, Note_on_c, 0, 76, 0
2, 25508, Note_on_c, 0, 67, 0
2, 25515, Note_on_c, 0, 72, 0
2, 25518, Note_on_c, 0, 62, 0
2, 25528, Note_on_c, 0, 56, 0
2, 25567, Control_c, 0, 64, 0
2, 25568, Note_on_c, 0, 83, 50
2, 25571, Note_on_c, 0, 78, 34
2, 25572, Note_on_c, 0, 75, 37
2, 25572, Note_on_c, 0, 71, 40
2, 25575, Note_on_c, 0, 55, 39
2, 25576, Note_on_c, 0, 66, 26
2, 25578, Note_on_c, 0, 61, 30
2, 25594, Control_c, 0, 64, 127
2, 25596, Note_on_c, 0, 66, 0
2, 25602, Note_on_c, 0, 61, 0
2, 25607, Note_on_c, 0, 55, 0
2, 25681, Note_on_c, 0, 33, 32
2, 25706, Note_on_c, 0, 33, 0
2, 25744, Note_on_c, 0, 83, 0
2, 25750, Note_on_c, 0, 75, 0
2, 25751, Note_on_c, 0, 78, 0
2, 25755, Note_on_c, 0, 71, 0
2, 25874, Note_on_c, 0, 47, 38
2, 25875, Note_on_c, 0, 57, 36
2, 25875, Note_on_c, 0, 62, 45
2, 25878, Control_c, 0, 64, 0
2, 25925, Control_c, 0, 64, 127
2, 25926, Note_on_c, 0, 66, 47
2, 25931, Note_on_c, 0, 35, 31
2, 25940, Note_on_c, 0, 62, 0
2, 25953, Note_on_c, 0, 57, 0
2, 25954, Note_on_c, 0, 35, 0
2, 25977, Note_on_c, 0, 66, 0
2, 25983, Note_on_c, 0, 47, 0
2, 26000, Note_on_c, 0, 36, 32
2, 26003, Control_c, 0, 64, 0
2, 26053, Control_c, 0, 64, 127
2, 26053, Note_on_c, 0, 57, 38
2, 26054, Note_on_c, 0, 48, 38
2, 26057, Note_on_c, 0, 63, 34
2, 26100, Note_on_c, 0, 36, 0
2, 26117, Note_on_c, 0, 57, 0
2, 26118, Note_on_c, 0, 48, 0
2, 26128, Note_on_c, 0, 63, 0
2, 26139, Note_on_c, 0, 37, 33
2, 26143, Control_c, 0, 64, 0
2, 26179, Control_c, 0, 64, 127
2, 26229, Note_on_c, 0, 57, 33
2, 26229, Note_on_c, 0, 61, 31
2, 26232, Note_on_c, 0, 64, 40
2, 26295, Note_on_c, 0, 57, 0
2, 26303, Note_on_c, 0, 64, 0
2, 26319, Note_on_c, 0, 61, 0
2, 26323, Note_on_c, 0, 37, 0
2, 26352, Control_c, 0, 64, 0
2, 26358, Note_on_c, 0, 38, 37
2, 26380, Control_c, 0, 64, 127
2, 26427, Note_on_c, 0, 38, 0
2, 26428, Note_on_c, 0, 78, 67
2, 26436, Note_on_c, 0, 50, 24
2, 26442, Note_on_c, 0, 50, 0
2, 26471, Note_on_c, 0, 78, 0
2, 26503, Note_on_c, 0, 78, 60
2, 26510, Note_on_c, 0, 74, 55
2, 26514, Note_on_c, 0, 62, 44
2, 26516, Note_on_c, 0, 69, 32
2, 26571, Note_on_c, 0, 62, 0
2, 26577, Note_on_c, 0, 74, 0
2, 26581, Note_on_c, 0, 78, 0
2, 26581, Note_on_c, 0, 69, 0
2, 26589, Note_on_c, 0, 57, 35
2, 26666, Note_on_c, 0, 62, 44
2, 26669, Note_on_c, 0, 57, 0
2, 26741, Note_on_c, 0, 57, 37
2, 26785, Note_on_c, 0, 62, 0
2, 26794, Note_on_c, 0, 57, 0
2, 26825, Note_on_c, 0, 48, 40
2, 26830, Note_on_c, 0, 66, 37
2, 26830, Note_on_c, 0, 62, 32
2, 26835, Control_c, 0, 64, 0
2, 26836, Note_on_c, 0, 57, 28
2, 26871, Control_c, 0, 64, 127
2, 26907, Note_on_c, 0, 69, 72
2, 26928, Note_on_c, 0, 48, 0
2, 26941, Note_on_c, 0, 62, 0
2, 26956, Note_on_c, 0, 69, 0
2, 26957, Note_on_c, 0, 66, 0
2, 26976, Note_on_c, 0, 57, 0
2, 26983, Note_on_c, 0, 74, 94
2, 26986, Note_on_c, 0, 47, 58
2, 26987, Control_c, 0, 64, 0
2, 27030, Control_c, 0, 64, 127
2, 27053, Note_on_c, 0, 54, 37
2, 27101, Note_on_c, 0, 74, 0
2, 27132, Note_on_c, 0, 66, 37
2, 27134, Note_on_c, 0, 62, 38
2, 27136, Note_on_c, 0, 59, 31
2, 27176, Note_on_c, 0, 59, 0
2, 27202, Note_on_c, 0, 54, 0
2, 27212, Note_on_c, 0, 47, 0
2, 27216, Note_on_c, 0, 66, 0
2, 27218, Note_on_c, 0, 71, 57
2, 27251, Note_on_c, 0, 71, 0
2, 27258, Note_on_c, 0, 62, 0
2, 27362, Note_on_c, 0, 69, 48
2, 27368, Note_on_c, 0, 66, 45
2, 27373, Note_on_c, 0, 62, 49
2, 27381, Note_on_c, 0, 47, 24
2, 27382, Note_on_c, 0, 40, 28
2, 27382, Control_c, 0, 64, 0
2, 27385, Note_on_c, 0, 57, 20
2, 27469, Control_c, 0, 64, 127
2, 27661, Note_on_c, 0, 57, 0
2, 27744, Note_on_c, 0, 40, 0
2, 27760, Note_on_c, 0, 47, 0
2, 27763, Note_on_c, 0, 69, 0
2, 27765, Note_on_c, 0, 62, 0
2, 27782, Note_on_c, 0, 67, 52
2, 27791, Note_on_c, 0, 66, 0
2, 27807, Note_on_c, 0, 67, 0
2, 28039, Note_on_c, 0, 88, 43
2, 28040, Note_on_c, 0, 64, 27
2, 28040, Note_on_c, 0, 55, 28
2, 28044, Note_on_c, 0, 60, 44
2, 28046, Note_on_c, 0, 59, 41
2, 28049, Note_on_c, 0, 76, 26
2, 28049, Note_on_c, 0, 84, 32
2, 28050, Note_on_c, 0, 81, 36
2, 28067, Control_c, 0, 64, 0
2, 28090, Note_on_c, 0, 81, 0
2, 28093, Note_on_c, 0, 76, 0
2, 28093, Note_on_c, 0, 55, 0
2, 28093, Control_c, 0, 64, 127
2, 28094, Note_on_c, 0, 88, 0
2, 28095, Note_on_c, 0, 59, 0
2, 28095, Note_on_c, 0, 84, 0
2, 28098, Note_on_c, 0, 64, 0
2, 28099, Note_on_c, 0, 60, 0
2, 28123, Note_on_c, 0, 64, 59
2, 28123, Note_on_c, 0, 88, 75
2, 28125, Note_on_c, 0, 76, 66
2, 28125, Note_on_c, 0, 60, 55
2, 28126, Note_on_c, 0, 55, 64
2, 28126, Note_on_c, 0, 81, 66
2, 28127, Control_c, 0, 64, 0
2, 28127, Note_on_c, 0, 59, 63
2, 28127, Note_on_c, 0, 84, 59
2, 28144, Note_on_c, 0, 64, 0
2, 28145, Note_on_c, 0, 59, 0
2, 28146, Note_on_c, 0, 84, 0
2, 28148, Note_on_c, 0, 76, 0
2, 28149, Note_on_c, 0, 60, 0
2, 28149, Note_on_c, 0, 55, 0
2, 28151, Note_on_c, 0, 81, 0
2, 28151, Note_on_c, 0, 88, 0
2, 28208, Note_on_c, 0, 84, 34
2, 28209, Note_on_c, 0, 79, 33
2, 28211, Note_on_c, 0, 60, 38
2, 28211, Note_on_c, 0, 64, 25
2, 28213, Note_on_c, 0, 55, 33
2, 28214, Note_on_c, 0, 59, 40
2, 28215, Note_on_c, 0, 72, 30
2, 28225, Control_c, 0, 64, 127
2, 28243, Note_on_c, 0, 79, 0
2, 28245, Note_on_c, 0, 59, 0
2, 28246, Note_on_c, 0, 55, 0
2, 28247, Note_on_c, 0, 84, 0
2, 28251, Note_on_c, 0, 64, 0
2, 28253, Note_on_c, 0, 60, 0
2, 28256, Note_on_c, 0, 72, 0
2, 28278, Note_on_c, 0, 84, 66
2, 28279, Note_on_c, 0, 64, 62
2, 28279, Control_c, 0, 64, 0
2, 28280, Note_on_c, 0, 60, 58
2, 28280, Note_on_c, 0, 79, 70
2, 28280, Note_on_c, 0, 55, 71
2, 28282, Note_on_c, 0, 72, 67
2, 28282, Note_on_c, 0, 59, 61
2, 28290, Note_on_c, 0, 59, 0
2, 28299, Control_c, 0, 64, 127
2, 28302, Note_on_c, 0, 59, 14
2, 28311, Note_on_c, 0, 84, 0
2, 28314, Note_on_c, 0, 79, 0
2, 28314, Note_on_c, 0, 59, 0
2, 28319, Note_on_c, 0, 55, 0
2, 28319, Note_on_c, 0, 72, 0
2, 28321, Note_on_c, 0, 64, 0
2, 28322, Note_on_c, 0, 60, 0
2, 28331, Control_c, 0, 64, 0
2, 28360, Note_on_c, 0, 54, 37
2, 28361, Note_on_c, 0, 83, 52
2, 28364, Note_on_c, 0, 60, 41
2, 28365, Note_on_c, 0, 64, 33
2, 28366, Note_on_c, 0, 71, 36
2, 28369, Note_on_c, 0, 78, 25
2, 28369, Note_on_c, 0, 76, 38
2, 28381, Control_c, 0, 64, 127
2, 28409, Note_on_c, 0, 54, 0
2, 28411, Note_on_c, 0, 76, 0
2, 28415, Note_on_c, 0, 78, 0
2, 28418, Note_on_c, 0, 64, 0
2, 28420, Note_on_c, 0, 83, 0
2, 28423, Note_on_c, 0, 71, 0
2, 28430, Note_on_c, 0, 60, 0
2, 28462, Note_on_c, 0, 83, 36
2, 28463, Note_on_c, 0, 71, 32
2, 28464, Note_on_c, 0, 64, 32
2, 28464, Note_on_c, 0, 78, 33
2, 28465, Note_on_c, 0, 76, 53
2, 28467, Note_on_c, 0, 54, 28
2, 28468, Note_on_c, 0, 60, 33
2, 28485, Note_on_c, 0, 60, 0
2, 28488, Note_on_c, 0, 64, 0
2, 28500, Note_on_c, 0, 83, 0
2, 28501, Note_on_c, 0, 54, 0
2, 28506, Note_on_c, 0, 76, 0
2, 28508, Note_on_c, 0, 78, 0
2, 28515, Note_on_c, 0, 71, 0
2, 28586, Control_c, 0, 64, 0
2, 28587, Note_on_c, 0, 75, 32
2, 28587, Note_on_c, 0, 47, 25
2, 28587, Note_on_c, 0, 81, 35
2, 28588, Note_on_c, 0, 57, 26
2, 28588, Note_on_c, 0, 78, 30
2, 28591, Note_on_c, 0, 69, 29
2, 28626, Control_c, 0, 64, 127
2, 28674, Note_on_c, 0, 81, 0
2, 28680, Note_on_c, 0, 78, 0
2, 28685, Note_on_c, 0, 75, 0
2, 28701, Note_on_c, 0, 69, 0
2, 28706, Note_on_c, 0, 51, 37
2, 28743, Note_on_c, 0, 57, 0
2, 28785, Note_on_c, 0, 66, 39
2, 28811, Note_on_c, 0, 47, 0
2, 28817, Note_on_c, 0, 51, 0
2, 28833, Note_on_c, 0, 66, 0
2, 28837, Note_on_c, 0, 69, 64
2, 28839, Note_on_c, 0, 57, 1
2, 28884, Note_on_c, 0, 69, 0
2, 28893, Note_on_c, 0, 57, 0
2, 28894, Note_on_c, 0, 52, 42
2, 28896, Note_on_c, 0, 67, 56
2, 28899, Control_c, 0, 64, 0
2, 28933, Control_c, 0, 64, 127
2, 28957, Note_on_c, 0, 59, 41
2, 29002, Note_on_c, 0, 67, 0
2, 29012, Note_on_c, 0, 71, 74
2, 29012, Note_on_c, 0, 64, 45
2, 29059, Note_on_c, 0, 74, 78
2, 29071, Note_on_c, 0, 71, 0
2, 29091, Note_on_c, 0, 59, 0
2, 29093, Note_on_c, 0, 74, 0
2, 29113, Note_on_c, 0, 59, 40
2, 29115, Note_on_c, 0, 78, 55
2, 29146, Note_on_c, 0, 78, 0
2, 29155, Note_on_c, 0, 64, 0
2, 29158, Note_on_c, 0, 59, 0
2, 29167, Note_on_c, 0, 79, 62
2, 29171, Note_on_c, 0, 52, 0
2, 29202, Note_on_c, 0, 79, 0
2, 29215, Note_on_c, 0, 83, 71
2, 29250, Note_on_c, 0, 83, 0
2, 29261, Note_on_c, 0, 86, 95
2, 29288, Note_on_c, 0, 86, 0
2, 29308, Note_on_c, 0, 91, 91
2, 29350, Note_on_c, 0, 91, 0
2, 29365, Note_on_c, 0, 88, 38
2, 29365, Note_on_c, 0, 86, 68
2, 29407, Note_on_c, 0, 86, 0
2, 29408, Note_on_c, 0, 88, 0
2, 29423, Note_on_c, 0, 89, 57
2, 29425, Note_on_c, 0, 41, 33
2, 29428, Control_c, 0, 64, 0
2, 29432, Note_on_c, 0, 48, 20
2, 29444, Note_on_c, 0, 48, 0
2, 29473, Control_c, 0, 64, 127
2, 29489, Note_on_c, 0, 48, 40
2, 29489, Note_on_c, 0, 86, 61
2, 29493, Note_on_c, 0, 41, 0
2, 29495, Note_on_c, 0, 89, 0
2, 29497, Note_on_c, 0, 48, 0
2, 29542, Note_on_c, 0, 86, 0
2, 29555, Note_on_c, 0, 62, 22
2, 29559, Note_on_c, 0, 87, 46
2, 29613, Note_on_c, 0, 87, 0
2, 29623, Note_on_c, 0, 83, 31
2, 29670, Note_on_c, 0, 63, 1
2, 29686, Note_on_c, 0, 83, 0
2, 29696, Note_on_c, 0, 86, 60
2, 29708, Note_on_c, 0, 67, 19
2, 29767, Note_on_c, 0, 86, 0
2, 29783, Note_on_c, 0, 81, 45
2, 29826, Note_on_c, 0, 62, 0
2, 29827, Note_on_c, 0, 79, 55
2, 29836, Note_on_c, 0, 81, 0
2, 29865, Note_on_c, 0, 79, 0
2, 29867, Note_on_c, 0, 77, 58
2, 29874, Note_on_c, 0, 67, 0
2, 29895, Note_on_c, 0, 77, 0
2, 29911, Note_on_c, 0, 74, 51
2, 29928, Note_on_c, 0, 63, 0
2, 29938, Note_on_c, 0, 74, 0
2, 29954, Note_on_c, 0, 75, 55
2, 29989, Note_on_c, 0, 75, 0
2, 30001, Note_on_c, 0, 67, 31
2, 30004, Note_on_c, 0, 72, 37
2, 30006, Control_c, 0, 64, 0
2, 30006, Note_on_c, 0, 63, 21
2, 30007, Note_on_c, 0, 57, 28
2, 30010, Note_on_c, 0, 62, 19
2, 30058, Control_c, 0, 64, 127
2, 30335, Note_on_c, 0, 67, 0
2, 30346, Note_on_c, 0, 62, 0
2, 30347, Note_on_c, 0, 72, 0
2, 30347, Note_on_c, 0, 63, 0
2, 30360, Note_on_c, 0, 57, 0
2, 30484, Note_on_c, 0, 79, 45
2, 30487, Note_on_c, 0, 55, 35
2, 30570, Note_on_c, 0, 79, 0
2, 30571, Note_on_c, 0, 55, 0
2, 30576, Note_on_c, 0, 81, 35
2, 30594, Note_on_c, 0, 79, 36
2, 30596, Note_on_c, 0, 81, 0
2, 30603, Note_on_c, 0, 55, 36
2, 30614, Control_c, 0, 64, 0
2, 30615, Note_on_c, 0, 55, 0
2, 30621, Note_on_c, 0, 79, 0
2, 30621, Note_on_c, 0, 78, 63
2, 30626, Note_on_c, 0, 54, 34
2, 30742, Control_c, 0, 64, 127
2, 30813, Note_on_c, 0, 78, 0
2, 30823, Note_on_c, 0, 79, 34
2, 30829, Note_on_c, 0, 55, 33
2, 30832, Note_on_c, 0, 54, 0
2, 30841, Note_on_c, 0, 55, 0
2, 30927, Note_on_c, 0, 79, 0
2, 30932, Note_on_c, 0, 50, 44
2, 30933, Control_c, 0, 64, 0
2, 30933, Note_on_c, 0, 86, 59
2, 30959, Control_c, 0, 64, 127
2, 30980, Note_on_c, 0, 86, 0
2, 31013, Note_on_c, 0, 59, 39
2, 31081, Note_on_c, 0, 62, 48
2, 31138, Note_on_c, 0, 67, 60
2, 31193, Note_on_c, 0, 79, 60
2, 31207, Note_on_c, 0, 67, 0
2, 31220, Note_on_c, 0, 79, 0
2, 31233, Note_on_c, 0, 50, 0
2, 31252, Note_on_c, 0, 86, 85
2, 31290, Note_on_c, 0, 86, 0
2, 31312, Note_on_c, 0, 62, 0
2, 31326, Note_on_c, 0, 50, 33
2, 31327, Note_on_c, 0, 86, 79
2, 31366, Note_on_c, 0, 86, 0
2, 31392, Note_on_c, 0, 59, 0
2, 31400, Note_on_c, 0, 86, 65
2, 31432, Note_on_c, 0, 86, 0
2, 31475, Note_on_c, 0, 86, 68
2, 31503, Note_on_c, 0, 86, 0
2, 31554, Note_on_c, 0, 86, 76
2, 31582, Note_on_c, 0, 86, 0
2, 31643, Note_on_c, 0, 86, 64
2, 31648, Note_on_c, 0, 62, 34
2, 31651, Note_on_c, 0, 56, 28
2, 31652, Note_on_c, 0, 79, 49
2, 31653, Control_c, 0, 64, 0
2, 31659, Note_on_c, 0, 76, 24
2, 31699, Control_c, 0, 64, 127
2, 31721, Note_on_c, 0, 86, 0
2, 31737, Note_on_c, 0, 50, 0
2, 31747, Note_on_c, 0, 86, 69
2, 31765, Note_on_c, 0, 76, 0
2, 31770, Note_on_c, 0, 79, 0
2, 31779, Note_on_c, 0, 86, 0
2, 31835, Note_on_c, 0, 88, 57
2, 31843, Note_on_c, 0, 50, 35
2, 31844, Note_on_c, 0, 79, 46
2, 31847, Control_c, 0, 64, 0
2, 31855, Note_on_c, 0, 56, 0
2, 31869, Control_c, 0, 64, 127
2, 31895, Note_on_c, 0, 88, 0
2, 31906, Note_on_c, 0, 62, 0
2, 31908, Note_on_c, 0, 79, 0
2, 31941, Note_on_c, 0, 56, 33
2, 32048, Note_on_c, 0, 67, 45
2, 32054, Note_on_c, 0, 62, 29
2, 32240, Note_on_c, 0, 67, 0
2, 32270, Note_on_c, 0, 69, 74
2, 32310, Note_on_c, 0, 67, 79
2, 32315, Note_on_c, 0, 69, 0
2, 32359, Note_on_c, 0, 69, 55
2, 32361, Note_on_c, 0, 67, 0
2, 32379, Note_on_c, 0, 67, 39
2, 32386, Note_on_c, 0, 69, 0
2, 32413, Note_on_c, 0, 66, 55
2, 32416, Note_on_c, 0, 67, 0
2, 32441, Note_on_c, 0, 66, 0
2, 32461, Note_on_c, 0, 67, 76
2, 32505, Note_on_c, 0, 67, 0
2, 32519, Note_on_c, 0, 69, 78
2, 32548, Note_on_c, 0, 69, 0
2, 32574, Note_on_c, 0, 74, 89
2, 32648, Note_on_c, 0, 74, 0
2, 32653, Note_on_c, 0, 71, 57
2, 32662, Note_on_c, 0, 62, 0
2, 32665, Note_on_c, 0, 50, 0
2, 32687, Note_on_c, 0, 71, 0
2, 32701, Note_on_c, 0, 56, 0
2, 32772, Note_on_c, 0, 72, 49
2, 32775, Note_on_c, 0, 50, 28
2, 32776, Note_on_c, 0, 69, 46
2, 32777, Note_on_c, 0, 64, 34
2, 32779, Note_on_c, 0, 67, 40
2, 32780, Control_c, 0, 64, 0
2, 32784, Note_on_c, 0, 60, 24
2, 32826, Control_c, 0, 64, 127
2, 32843, Note_on_c, 0, 72, 0
2, 32863, Note_on_c, 0, 60, 0
2, 32863, Note_on_c, 0, 72, 41
2, 32869, Note_on_c, 0, 57, 30
2, 32920, Note_on_c, 0, 72, 0
2, 32960, Note_on_c, 0, 72, 45
2, 32966, Note_on_c, 0, 60, 32
2, 33039, Note_on_c, 0, 72, 0
2, 33051, Note_on_c, 0, 50, 0
2, 33080, Note_on_c, 0, 72, 39
2, 33080, Note_on_c, 0, 50, 38
2, 33115, Note_on_c, 0, 60, 0
2, 33121, Note_on_c, 0, 57, 0
2, 33134, Note_on_c, 0, 50, 0
2, 33250, Note_on_c, 0, 26, 36
2, 33255, Control_c, 0, 64, 0
2, 33267, Control_c, 0, 64, 127
2, 33298, Note_on_c, 0, 26, 0
2, 33400, Note_on_c, 0, 69, 0
2, 33415, Note_on_c, 0, 67, 0
2, 33421, Note_on_c, 0, 64, 0
2, 33439, Note_on_c, 0, 72, 0
2, 33825, Note_on_c, 0, 50, 33
2, 33826, Note_on_c, 0, 66, 30
2, 33826, Note_on_c, 0, 62, 26
2, 33833, Note_on_c, 0, 60, 22
2, 33837, Note_on_c, 0, 54, 11
2, 33975, Note_on_c, 0, 60, 0
2, 33997, Note_on_c, 0, 54, 0
2, 33998, Note_on_c, 0, 50, 0
2, 34247, Note_on_c, 0, 62, 0
2, 34249, Note_on_c, 0, 66, 0
2, 34434, Note_on_c, 0, 62, 33
2, 34435, Note_on_c, 0, 66, 23
2, 34436, Note_on_c, 0, 43, 27
2, 34436, Note_on_c, 0, 54, 15
2, 34437, Note_on_c, 0, 57, 33
2, 34437, Note_on_c, 0, 50, 31
2, 34437, Note_on_c, 0, 59, 32
2, 34439, Note_on_c, 0, 69, 31
2, 34443, Control_c, 0, 64, 0
2, 34471, Control_c, 0, 64, 127
2, 34478, Note_on_c, 0, 57, 0
2, 34479, Note_on_c, 0, 59, 0
2, 34485, Note_on_c, 0, 62, 0
2, 34489, Note_on_c, 0, 66, 0
2, 34494, Note_on_c, 0, 69, 0
2, 34522, Note_on_c, 0, 43, 0
2, 34523, Note_on_c, 0, 50, 0
2, 34533, Note_on_c, 0, 81, 67
2, 34541, Note_on_c, 0, 54, 0
2, 34597, Note_on_c, 0, 81, 0
2, 34617, Note_on_c, 0, 74, 43
2, 34620, Note_on_c, 0, 78, 32
2, 34620, Note_on_c, 0, 69, 36
2, 34622, Note_on_c, 0, 71, 36
2, 34623, Note_on_c, 0, 66, 31
2, 34719, Note_on_c, 0, 71, 0
2, 34721, Note_on_c, 0, 81, 64
2, 34722, Note_on_c, 0, 69, 0
2, 34732, Note_on_c, 0, 74, 0
2, 34739, Note_on_c, 0, 78, 0
2, 34744, Note_on_c, 0, 81, 0
2, 34748, Note_on_c, 0, 66, 0
2, 34821, Note_on_c, 0, 66, 32
2, 34822, Note_on_c, 0, 71, 51
2, 34824, Note_on_c, 0, 69, 37
2, 34826, Note_on_c, 0, 62, 35
2, 34889, Note_on_c, 0, 71, 0
2, 34903, Note_on_c, 0, 69, 0
2, 34929, Note_on_c, 0, 81, 51
2, 34954, Note_on_c, 0, 66, 0
2, 34992, Note_on_c, 0, 81, 0
2, 35027, Note_on_c, 0, 74, 44
2, 35030, Note_on_c, 0, 69, 29
2, 35030, Note_on_c, 0, 66, 27
2, 35035, Note_on_c, 0, 71, 29
2, 35129, Note_on_c, 0, 66, 0
2, 35167, Note_on_c, 0, 81, 54
2, 35302, Note_on_c, 0, 62, 0
2, 35337, Note_on_c, 0, 81, 0
2, 35338, Note_on_c, 0, 69, 0
2, 35345, Note_on_c, 0, 74, 0
2, 35345, Note_on_c, 0, 71, 0
2, 35531, Note_on_c, 0, 51, 37
2, 35533, Note_on_c, 0, 65, 51
2, 35533, Note_on_c, 0, 69, 50
2, 35534, Note_on_c, 0, 61, 32
2, 35536, Control_c, 0, 64, 0
2, 35543, Note_on_c, 0, 60, 36
2, 35564, Control_c, 0, 64, 127
2, 35590, Note_on_c, 0, 61, 0
2, 35590, Note_on_c, 0, 69, 0
2, 35594, Note_on_c, 0, 72, 51
2, 35598, Note_on_c, 0, 65, 0
2, 35613, Note_on_c, 0, 72, 0
2, 35663, Note_on_c, 0, 84, 61
2, 35664, Note_on_c, 0, 77, 29
2, 35886, Note_on_c, 0, 81, 53
2, 35888, Note_on_c, 0, 84, 0
2, 35899, Note_on_c, 0, 77, 0
2, 35926, Note_on_c, 0, 60, 0
2, 35939, Note_on_c, 0, 77, 50
2, 35946, Note_on_c, 0, 51, 0
2, 35960, Note_on_c, 0, 81, 0
2, 35975, Note_on_c, 0, 77, 0
2, 36023, Note_on_c, 0, 50, 40
2, 36027, Note_on_c, 0, 54, 28
2, 36028, Note_on_c, 0, 72, 18
2, 36029, Note_on_c, 0, 80, 20
2, 36029, Note_on_c, 0, 76, 37
2, 36030, Control_c, 0, 64, 0
2, 36031, Note_on_c, 0, 60, 17
2, 36058, Control_c, 0, 64, 127
2, 36069, Note_on_c, 0, 60, 0
2, 36084, Note_on_c, 0, 54, 0
2, 36085, Note_on_c, 0, 50, 0
2, 36262, Note_on_c, 0, 76, 0
2, 36271, Note_on_c, 0, 72, 0
2, 36295, Note_on_c, 0, 80, 0
2, 36525, Note_on_c, 0, 73, 30
2, 36555, Note_on_c, 0, 73, 0
2, 36562, Note_on_c, 0, 74, 47
2, 36585, Note_on_c, 0, 74, 0
2, 36602, Control_c, 0, 64, 0
2, 36602, Note_on_c, 0, 81, 62
2, 36603, Note_on_c, 0, 43, 22
2, 36605, Note_on_c, 0, 50, 22
2, 36609, Note_on_c, 0, 59, 26
2, 36628, Control_c, 0, 64, 127
2, 36645, Note_on_c, 0, 43, 0
2, 36657, Note_on_c, 0, 50, 0
2, 36671, Note_on_c, 0, 59, 0
2, 36725, Note_on_c, 0, 81, 0
2, 36806, Note_on_c, 0, 81, 56
2, 36814, Note_on_c, 0, 78, 42
2, 36814, Note_on_c, 0, 66, 49
2, 36817, Note_on_c, 0, 74, 58
2, 36826, Note_on_c, 0, 70, 27
2, 36835, Note_on_c, 0, 66, 0
2, 36877, Note_on_c, 0, 81, 0
2, 36885, Note_on_c, 0, 74, 0
2, 36894, Note_on_c, 0, 78, 0
2, 36904, Note_on_c, 0, 70, 0
2, 37029, Note_on_c, 0, 36, 22
2, 37032, Note_on_c, 0, 69, 43
2, 37033, Note_on_c, 0, 43, 30
2, 37033, Note_on_c, 0, 66, 34
2, 37037, Note_on_c, 0, 62, 40
2, 37038, Note_on_c, 0, 52, 29
2, 37038, Note_on_c, 0, 58, 23
2, 37041, Control_c, 0, 64, 0
2, 37083, Control_c, 0, 64, 127
2, 37095, Note_on_c, 0, 36, 0
2, 37100, Note_on_c, 0, 43, 0
2, 37121, Note_on_c, 0, 52, 0
2, 37185, Note_on_c, 0, 58, 0
2, 37186, Note_on_c, 0, 62, 0
2, 37187, Note_on_c, 0, 66, 0
2, 37209, Note_on_c, 0, 69, 0
2, 37247, Note_on_c, 0, 48, 27
2, 37248, Note_on_c, 0, 62, 35
2, 37248, Note_on_c, 0, 66, 21
2, 37251, Note_on_c, 0, 55, 29
2, 37255, Note_on_c, 0, 58, 18
2, 37277, Note_on_c, 0, 58, 0
2, 37290, Note_on_c, 0, 62, 0
2, 37296, Note_on_c, 0, 66, 0
2, 37324, Note_on_c, 0, 67, 83
2, 37330, Note_on_c, 0, 55, 0
2, 37360, Note_on_c, 0, 48, 0
2, 37372, Note_on_c, 0, 67, 0
2, 37389, Note_on_c, 0, 66, 74
2, 37437, Note_on_c, 0, 66, 0
2, 37452, Control_c, 0, 64, 0
2, 37456, Note_on_c, 0, 65, 55
2, 37460, Note_on_c, 0, 57, 32
2, 37460, Note_on_c, 0, 47, 26
2, 37480, Control_c, 0, 64, 127
2, 37490, Note_on_c, 0, 65, 0
2, 37518, Note_on_c, 0, 47, 0
2, 37528, Note_on_c, 0, 57, 0
2, 37528, Note_on_c, 0, 77, 43
2, 37529, Note_on_c, 0, 76, 49
2, 37551, Note_on_c, 0, 77, 0
2, 37556, Note_on_c, 0, 76, 0
2, 37588, Note_on_c, 0, 69, 52
2, 37596, Note_on_c, 0, 69, 0
2, 37642, Note_on_c, 0, 89, 80
2, 37691, Control_c, 0, 64, 0
2, 37691, Note_on_c, 0, 65, 34
2, 37692, Note_on_c, 0, 81, 40
2, 37693, Note_on_c, 0, 89, 0
2, 37698, Note_on_c, 0, 62, 30
2, 37698, Note_on_c, 0, 57, 25
2, 37704, Note_on_c, 0, 81, 0
2, 37713, Control_c, 0, 64, 127
2, 37747, Note_on_c, 0, 101, 65
2, 37763, Note_on_c, 0, 101, 0
2, 37788, Note_on_c, 0, 65, 0
2, 37790, Note_on_c, 0, 62, 0
2, 37795, Note_on_c, 0, 57, 0
2, 37802, Note_on_c, 0, 93, 51
2, 37810, Note_on_c, 0, 93, 0
2, 37825, Control_c, 0, 64, 0
2, 37862, Note_on_c, 0, 67, 54
2, 37867, Note_on_c, 0, 56, 29
2, 37869, Note_on_c, 0, 62, 42
2, 37894, Note_on_c, 0, 62, 0
2, 37895, Note_on_c, 0, 67, 0
2, 37909, Note_on_c, 0, 56, 0
2, 37918, Note_on_c, 0, 100, 71
2, 37935, Note_on_c, 0, 100, 0
2, 37975, Note_on_c, 0, 88, 55
2, 37987, Note_on_c, 0, 88, 0
2, 37996, Control_c, 0, 64, 127
2, 38028, Note_on_c, 0, 28, 36
2, 38037, Note_on_c, 0, 28, 0
2, 38151, Note_on_c, 0, 68, 44
2, 38154, Note_on_c, 0, 64, 39
2, 38154, Note_on_c, 0, 56, 39
2, 38154, Note_on_c, 0, 71, 46
2, 38173, Note_on_c, 0, 62, 14
2, 38264, Note_on_c, 0, 71, 0
2, 38271, Note_on_c, 0, 68, 0
2, 38281, Note_on_c, 0, 64, 0
2, 38284, Note_on_c, 0, 62, 0
2, 38289, Note_on_c, 0, 63, 57
2, 38303, Note_on_c, 0, 63, 0
2, 38308, Note_on_c, 0, 56, 0
2, 38326, Note_on_c, 0, 64, 51
2, 38388, Note_on_c, 0, 71, 80
2, 38409, Control_c, 0, 64, 0
2, 38410, Note_on_c, 0, 45, 41
2, 38446, Note_on_c, 0, 64, 0
2, 38455, Control_c, 0, 64, 127
2, 38472, Note_on_c, 0, 45, 0
2, 38480, Note_on_c, 0, 71, 52
2, 38489, Note_on_c, 0, 71, 0
2, 38506, Note_on_c, 0, 71, 0
2, 38536, Note_on_c, 0, 83, 64
2, 38572, Note_on_c, 0, 83, 0
2, 38615, Note_on_c, 0, 83, 56
2, 38620, Note_on_c, 0, 64, 32
2, 38620, Note_on_c, 0, 76, 41
2, 38621, Note_on_c, 0, 60, 36
2, 38623, Note_on_c, 0, 59, 34
2, 38696, Note_on_c, 0, 71, 41
2, 38723, Note_on_c, 0, 76, 0
2, 38754, Note_on_c, 0, 59, 0
2, 38761, Note_on_c, 0, 60, 0
2, 38765, Note_on_c, 0, 64, 0
2, 38802, Note_on_c, 0, 71, 0
2, 38836, Note_on_c, 0, 71, 35
2, 38840, Note_on_c, 0, 59, 37
2, 38840, Note_on_c, 0, 64, 25
2, 38844, Note_on_c, 0, 57, 36
2, 38846, Note_on_c, 0, 76, 20
2, 38848, Control_c, 0, 64, 0
2, 38853, Note_on_c, 0, 60, 24
2, 38878, Control_c, 0, 64, 127
2, 38967, Note_on_c, 0, 83, 0
2, 38982, Note_on_c, 0, 71, 0
2, 38983, Note_on_c, 0, 76, 0
2, 38988, Note_on_c, 0, 64, 0
2, 38993, Note_on_c, 0, 59, 0
2, 38997, Note_on_c, 0, 60, 0
2, 39016, Note_on_c, 0, 57, 0
2, 39092, Note_on_c, 0, 66, 77
2, 39093, Note_on_c, 0, 62, 81
2, 39093, Note_on_c, 0, 69, 81
2, 39095, Note_on_c, 0, 59, 62
2, 39097, Note_on_c, 0, 57, 58
2, 39097, Note_on_c, 0, 55, 66
2, 39098, Control_c, 0, 64, 0
2, 39129, Control_c, 0, 64, 127
2, 39150, Note_on_c, 0, 57, 0
2, 39151, Note_on_c, 0, 55, 0
2, 39157, Note_on_c, 0, 59, 0
2, 39160, Note_on_c, 0, 69, 0
2, 39164, Note_on_c, 0, 62, 0
2, 39172, Note_on_c, 0, 66, 0
2, 39206, Note_on_c, 0, 54, 45
2, 39207, Note_on_c, 0, 68, 47
2, 39207, Note_on_c, 0, 65, 60
2, 39207, Note_on_c, 0, 61, 57
2, 39209, Note_on_c, 0, 56, 45
2, 39209, Control_c, 0, 64, 0
2, 39210, Note_on_c, 0, 58, 35
2, 39229, Control_c, 0, 64, 127
2, 39260, Note_on_c, 0, 58, 0
2, 39267, Note_on_c, 0, 65, 0
2, 39267, Note_on_c, 0, 56, 0
2, 39269, Note_on_c, 0, 54, 0
2, 39271, Note_on_c, 0, 61, 0
2, 39283, Note_on_c, 0, 68, 0
2, 39318, Note_on_c, 0, 67, 54
2, 39320, Control_c, 0, 64, 0
2, 39320, Note_on_c, 0, 60, 36
2, 39320, Note_on_c, 0, 64, 44
2, 39346, Note_on_c, 0, 57, 30
2, 39362, Control_c, 0, 64, 127
2, 39382, Note_on_c, 0, 57, 0
2, 39396, Note_on_c, 0, 49, 39
2, 39421, Note_on_c, 0, 60, 0
2, 39458, Note_on_c, 0, 64, 0
2, 39462, Note_on_c, 0, 55, 45
2, 39518, Note_on_c, 0, 55, 0
2, 39529, Note_on_c, 0, 49, 0
2, 39540, Note_on_c, 0, 59, 42
2, 39759, Note_on_c, 0, 59, 0
2, 39765, Control_c, 0, 64, 0
2, 39768, Note_on_c, 0, 30, 34
2, 39793, Control_c, 0, 64, 127
2, 39818, Note_on_c, 0, 30, 0
2, 39840, Note_on_c, 0, 67, 0
2, 39988, Note_on_c, 0, 54, 20
2, 39988, Note_on_c, 0, 61, 31
2, 39988, Note_on_c, 0, 58, 36
2, 39990, Note_on_c, 0, 64, 18
2, 39996, Control_c, 0, 64, 0
2, 39997, Note_on_c, 0, 54, 0
2, 39998, Note_on_c, 0, 64, 0
2, 39999, Note_on_c, 0, 61, 0
2, 40003, Note_on_c, 0, 58, 0
2, 40062, Control_c, 0, 64, 127
2, 40076, Note_on_c, 0, 78, 35
2, 40081, Note_on_c, 0, 66, 21
2, 40099, Note_on_c, 0, 78, 0
2, 40106, Note_on_c, 0, 66, 0
2, 40137, Note_on_c, 0, 67, 49
2, 40138, Note_on_c, 0, 79, 45
2, 40145, Note_on_c, 0, 67, 0
2, 40155, Note_on_c, 0, 79, 0
2, 40210, Control_c, 0, 64, 0
2, 40213, Note_on_c, 0, 86, 60
2, 40214, Note_on_c, 0, 74, 35
2, 40215, Note_on_c, 0, 43, 24
2, 40215, Note_on_c, 0, 50, 29
2, 40221, Note_on_c, 0, 59, 29
2, 40238, Control_c, 0, 64, 127
2, 40266, Note_on_c, 0, 86, 0
2, 40269, Note_on_c, 0, 43, 0
2, 40278, Note_on_c, 0, 50, 0
2, 40292, Note_on_c, 0, 86, 54
2, 40293, Note_on_c, 0, 59, 0
2, 40319, Note_on_c, 0, 86, 0
2, 40335, Note_on_c, 0, 74, 0
2, 40440, Note_on_c, 0, 66, 31
2, 40444, Note_on_c, 0, 62, 32
2, 40445, Note_on_c, 0, 59, 42
2, 40459, Control_c, 0, 64, 0
2, 40491, Control_c, 0, 64, 127
2, 40556, Note_on_c, 0, 66, 0
2, 40574, Note_on_c, 0, 62, 0
2, 40577, Note_on_c, 0, 59, 0
2, 40585, Note_on_c, 0, 70, 71
2, 40585, Note_on_c, 0, 73, 50
2, 40614, Note_on_c, 0, 73, 0
2, 40614, Note_on_c, 0, 70, 0
2, 40622, Note_on_c, 0, 71, 69
2, 40623, Note_on_c, 0, 74, 66
2, 40638, Note_on_c, 0, 71, 0
2, 40644, Note_on_c, 0, 74, 0
2, 40672, Note_on_c, 0, 81, 71
2, 40672, Note_on_c, 0, 74, 77
2, 40676, Control_c, 0, 64, 0
2, 40678, Note_on_c, 0, 52, 41
2, 40715, Note_on_c, 0, 81, 0
2, 40718, Note_on_c, 0, 74, 0
2, 40718, Control_c, 0, 64, 127
2, 40729, Note_on_c, 0, 78, 48
2, 40730, Note_on_c, 0, 70, 45
2, 40731, Note_on_c, 0, 74, 34
2, 40735, Note_on_c, 0, 58, 34
2, 40787, Note_on_c, 0, 74, 0
2, 40792, Note_on_c, 0, 78, 0
2, 40799, Note_on_c, 0, 70, 0
2, 40840, Note_on_c, 0, 58, 0
2, 40899, Note_on_c, 0, 58, 40
2, 40904, Note_on_c, 0, 66, 32
2, 40904, Note_on_c, 0, 62, 48
2, 40932, Note_on_c, 0, 62, 0
2, 40942, Note_on_c, 0, 66, 0
2, 40983, Note_on_c, 0, 71, 58
2, 41015, Note_on_c, 0, 71, 0
2, 41018, Note_on_c, 0, 58, 0
2, 41022, Note_on_c, 0, 52, 0
2, 41048, Note_on_c, 0, 70, 56
2, 41074, Note_on_c, 0, 70, 0
2, 41125, Control_c, 0, 64, 0
2, 41126, Note_on_c, 0, 62, 46
2, 41126, Note_on_c, 0, 47, 36
2, 41128, Note_on_c, 0, 69, 41
2, 41130, Note_on_c, 0, 57, 29
2, 41157, Control_c, 0, 64, 127
2, 41206, Note_on_c, 0, 47, 0
2, 41220, Note_on_c, 0, 57, 0
2, 41223, Note_on_c, 0, 62, 0
2, 41241, Note_on_c, 0, 69, 0
2, 41281, Note_on_c, 0, 69, 20
2, 41295, Note_on_c, 0, 69, 0
2, 41297, Note_on_c, 0, 71, 59
2, 41307, Note_on_c, 0, 71, 0
2, 41317, Note_on_c, 0, 74, 56
2, 41327, Note_on_c, 0, 71, 51
2, 41330, Note_on_c, 0, 74, 0
2, 41349, Control_c, 0, 64, 0
2, 41350, Note_on_c, 0, 71, 0
2, 41350, Note_on_c, 0, 72, 59
2, 41367, Note_on_c, 0, 72, 0
2, 41371, Note_on_c, 0, 76, 35
2, 41378, Note_on_c, 0, 62, 27
2, 41379, Note_on_c, 0, 72, 58
2, 41380, Note_on_c, 0, 76, 0
2, 41380, Note_on_c, 0, 57, 27
2, 41387, Note_on_c, 0, 65, 10
2, 41397, Note_on_c, 0, 72, 0
2, 41403, Note_on_c, 0, 74, 51
2, 41414, Note_on_c, 0, 74, 0
2, 41418, Note_on_c, 0, 77, 44
2, 41428, Note_on_c, 0, 74, 58
2, 41430, Note_on_c, 0, 77, 0
2, 41440, Note_on_c, 0, 65, 0
2, 41448, Note_on_c, 0, 74, 0
2, 41451, Note_on_c, 0, 62, 0
2, 41451, Note_on_c, 0, 76, 51
2, 41461, Note_on_c, 0, 57, 0
2, 41465, Note_on_c, 0, 76, 0
2, 41469, Note_on_c, 0, 79, 31
2, 41478, Note_on_c, 0, 79, 0
2, 41478, Note_on_c, 0, 76, 66
2, 41499, Note_on_c, 0, 76, 0
2, 41501, Note_on_c, 0, 77, 40
2, 41515, Note_on_c, 0, 77, 0
2, 41519, Note_on_c, 0, 81, 43
2, 41528, Note_on_c, 0, 81, 0
2, 41530, Note_on_c, 0, 77, 36
2, 41550, Note_on_c, 0, 79, 51
2, 41552, Note_on_c, 0, 77, 0
2, 41565, Note_on_c, 0, 79, 0
2, 41568, Control_c, 0, 64, 127
2, 41586, Control_c, 0, 64, 0
2, 41597, Note_on_c, 0, 62, 43
2, 41601, Note_on_c, 0, 56, 32
2, 41601, Note_on_c, 0, 52, 32
2, 41666, Control_c, 0, 64, 127
2, 41709, Note_on_c, 0, 79, 57
2, 41725, Note_on_c, 0, 52, 0
2, 41729, Note_on_c, 0, 56, 0
2, 41738, Note_on_c, 0, 62, 0
2, 41745, Note_on_c, 0, 80, 69
2, 41746, Note_on_c, 0, 79, 0
2, 41763, Control_c, 0, 64, 0
2, 41771, Note_on_c, 0, 80, 0
2, 41777, Note_on_c, 0, 82, 57
2, 41790, Note_on_c, 0, 82, 0
2, 41798, Note_on_c, 0, 83, 50
2, 41816, Note_on_c, 0, 83, 0
2, 41819, Note_on_c, 0, 84, 42
2, 41834, Note_on_c, 0, 84, 0
2, 41837, Note_on_c, 0, 85, 43
2, 41843, Note_on_c, 0, 85, 0
2, 41849, Control_c, 0, 64, 127
2, 41852, Note_on_c, 0, 86, 66
2, 41867, Control_c, 0, 64, 0
2, 41869, Note_on_c, 0, 86, 0
2, 41872, Note_on_c, 0, 62, 31
2, 41875, Note_on_c, 0, 56, 26
2, 41875, Note_on_c, 0, 67, 25
2, 41876, Note_on_c, 0, 87, 38
2, 41887, Note_on_c, 0, 88, 49
2, 41889, Note_on_c, 0, 87, 0
2, 41959, Control_c, 0, 64, 127
2, 41989, Note_on_c, 0, 67, 0
2, 41997, Note_on_c, 0, 62, 0
2, 42007, Note_on_c, 0, 56, 0
2, 42024, Note_on_c, 0, 88, 0
2, 42026, Note_on_c, 0, 89, 64
2, 42054, Note_on_c, 0, 88, 48
2, 42062, Note_on_c, 0, 89, 0
2, 42078, Note_on_c, 0, 88, 0
2, 42079, Note_on_c, 0, 86, 66
2, 42101, Note_on_c, 0, 86, 0
2, 42104, Note_on_c, 0, 85, 54
2, 42118, Note_on_c, 0, 85, 0
2, 42122, Note_on_c, 0, 86, 57
2, 42140, Control_c, 0, 64, 0
2, 42140, Note_on_c, 0, 45, 24
2, 42141, Note_on_c, 0, 55, 19
2, 42143, Note_on_c, 0, 52, 33
2, 42147, Note_on_c, 0, 86, 0
2, 42163, Note_on_c, 0, 88, 64
2, 42184, Control_c, 0, 64, 127
2, 42206, Note_on_c, 0, 88, 0
2, 42215, Note_on_c, 0, 45, 0
2, 42220, Note_on_c, 0, 83, 28
2, 42221, Note_on_c, 0, 52, 0
2, 42224, Note_on_c, 0, 84, 20
2, 42228, Note_on_c, 0, 55, 0
2, 42233, Note_on_c, 0, 84, 0
2, 42233, Note_on_c, 0, 83, 0
2, 42262, Note_on_c, 0, 95, 73
2, 42285, Note_on_c, 0, 95, 0
2, 42321, Note_on_c, 0, 83, 49
2, 42339, Note_on_c, 0, 83, 0
2, 42385, Note_on_c, 0, 66, 30
2, 42385, Note_on_c, 0, 95, 41
2, 42385, Note_on_c, 0, 61, 42
2, 42385, Note_on_c, 0, 55, 35
2, 42386, Note_on_c, 0, 83, 34
2, 42392, Control_c, 0, 64, 0
2, 42418, Control_c, 0, 64, 127
2, 42443, Note_on_c, 0, 95, 0
2, 42462, Note_on_c, 0, 95, 50
2, 42494, Note_on_c, 0, 95, 0
2, 42499, Note_on_c, 0, 55, 0
2, 42504, Note_on_c, 0, 66, 0
2, 42518, Note_on_c, 0, 61, 0
2, 42521, Note_on_c, 0, 95, 47
2, 42547, Note_on_c, 0, 95, 0
2, 42560, Note_on_c, 0, 83, 0
2, 42575, Note_on_c, 0, 95, 57
2, 42579, Note_on_c, 0, 83, 43
2, 42583, Note_on_c, 0, 95, 0
2, 42588, Note_on_c, 0, 83, 0
2, 42637, Note_on_c, 0, 66, 67
2, 42637, Control_c, 0, 64, 0
2, 42638, Note_on_c, 0, 47, 46
2, 42677, Control_c, 0, 64, 127
2, 42726, Note_on_c, 0, 57, 37
2, 42729, Note_on_c, 0, 62, 24
2, 42743, Note_on_c, 0, 62, 0
2, 42746, Note_on_c, 0, 57, 0
2, 42885, Note_on_c, 0, 54, 32
2, 42886, Note_on_c, 0, 57, 31
2, 42886, Note_on_c, 0, 62, 35
2, 42967, Note_on_c, 0, 66, 0
2, 42977, Note_on_c, 0, 54, 0
2, 42988, Note_on_c, 0, 71, 38
2, 42989, Note_on_c, 0, 47, 0
2, 43038, Note_on_c, 0, 71, 0
2, 43048, Note_on_c, 0, 71, 38
2, 43076, Note_on_c, 0, 62, 0
2, 43099, Note_on_c, 0, 57, 0
2, 43140, Note_on_c, 0, 57, 28
2, 43143, Note_on_c, 0, 48, 35
2, 43146, Note_on_c, 0, 36, 29
2, 43146, Note_on_c, 0, 63, 20
2, 43147, Control_c, 0, 64, 0
2, 43147, Note_on_c, 0, 60, 34
2, 43193, Control_c, 0, 64, 127
2, 43216, Note_on_c, 0, 36, 0
2, 43217, Note_on_c, 0, 57, 0
2, 43233, Note_on_c, 0, 60, 0
2, 43236, Note_on_c, 0, 48, 0
2, 43252, Note_on_c, 0, 57, 38
2, 43259, Note_on_c, 0, 71, 0
2, 43262, Note_on_c, 0, 57, 0
2, 43262, Note_on_c, 0, 63, 0
2, 43324, Note_on_c, 0, 69, 69
2, 43324, Note_on_c, 0, 49, 40
2, 43325, Note_on_c, 0, 63, 67
2, 43326, Note_on_c, 0, 60, 67
2, 43327, Note_on_c, 0, 66, 62
2, 43341, Note_on_c, 0, 60, 0
2, 43347, Note_on_c, 0, 69, 0
2, 43350, Note_on_c, 0, 63, 0
2, 43353, Note_on_c, 0, 66, 0
2, 43396, Note_on_c, 0, 72, 62
2, 43397, Note_on_c, 0, 63, 67
2, 43397, Note_on_c, 0, 66, 64
2, 43399, Note_on_c, 0, 69, 58
2, 43399, Note_on_c, 0, 57, 64
2, 43403, Control_c, 0, 64, 0
2, 43437, Control_c, 0, 64, 127
2, 43479, Note_on_c, 0, 72, 0
2, 43513, Note_on_c, 0, 69, 0
2, 43523, Note_on_c, 0, 49, 0
2, 43553, Note_on_c, 0, 63, 0
2, 43594, Note_on_c, 0, 66, 0
2, 43596, Note_on_c, 0, 63, 42
2, 43612, Note_on_c, 0, 57, 0
2, 43620, Note_on_c, 0, 63, 0
2, 43654, Note_on_c, 0, 73, 28
2, 43657, Note_on_c, 0, 64, 32
2, 43658, Control_c, 0, 64, 0
2, 43658, Note_on_c, 0, 57, 32
2, 43659, Note_on_c, 0, 69, 33
2, 43661, Note_on_c, 0, 49, 25
2, 43688, Control_c, 0, 64, 127
2, 43700, Note_on_c, 0, 49, 0
2, 43718, Note_on_c, 0, 64, 0
2, 43724, Note_on_c, 0, 73, 0
2, 43726, Note_on_c, 0, 57, 0
2, 43730, Note_on_c, 0, 76, 42
2, 43738, Note_on_c, 0, 69, 0
2, 43763, Note_on_c, 0, 76, 0
2, 43899, Note_on_c, 0, 64, 27
2, 43947, Note_on_c, 0, 64, 0
2, 43964, Note_on_c, 0, 69, 39
2, 43986, Note_on_c, 0, 69, 0
2, 44002, Note_on_c, 0, 73, 33
2, 44043, Note_on_c, 0, 73, 0
2, 44046, Note_on_c, 0, 79, 53
2, 44059, Note_on_c, 0, 79, 0
2, 44088, Note_on_c, 0, 83, 48
2, 44105, Note_on_c, 0, 83, 0
2, 44127, Note_on_c, 0, 86, 82
2, 44157, Control_c, 0, 64, 0
2, 44163, Note_on_c, 0, 50, 37
2, 44169, Note_on_c, 0, 60, 25
2, 44189, Control_c, 0, 64, 127
2, 44198, Note_on_c, 0, 50, 0
2, 44210, Note_on_c, 0, 60, 0
2, 44216, Note_on_c, 0, 86, 0
2, 44233, Note_on_c, 0, 86, 60
2, 44256, Note_on_c, 0, 86, 0
2, 44295, Note_on_c, 0, 86, 78
2, 44314, Note_on_c, 0, 86, 0
2, 44376, Note_on_c, 0, 83, 56
2, 44379, Note_on_c, 0, 80, 42
2, 44385, Note_on_c, 0, 71, 35
2, 44387, Note_on_c, 0, 76, 27
2, 44391, Note_on_c, 0, 55, 31
2, 44392, Note_on_c, 0, 60, 22
2, 44393, Note_on_c, 0, 64, 16
2, 44396, Control_c, 0, 64, 0
2, 44397, Note_on_c, 0, 59, 18
2, 44420, Control_c, 0, 64, 127
2, 44436, Note_on_c, 0, 83, 0
2, 44456, Note_on_c, 0, 83, 46
2, 44477, Note_on_c, 0, 59, 0
2, 44477, Note_on_c, 0, 64, 0
2, 44483, Note_on_c, 0, 60, 0
2, 44489, Note_on_c, 0, 83, 0
2, 44496, Note_on_c, 0, 55, 0
2, 44519, Note_on_c, 0, 80, 0
2, 44523, Note_on_c, 0, 83, 54
2, 44539, Note_on_c, 0, 76, 0
2, 44551, Note_on_c, 0, 71, 0
2, 44586, Note_on_c, 0, 83, 0
2, 44613, Note_on_c, 0, 83, 36
2, 44615, Note_on_c, 0, 54, 32
2, 44616, Note_on_c, 0, 78, 30
2, 44620, Note_on_c, 0, 71, 32
2, 44620, Note_on_c, 0, 50, 31
2, 44621, Note_on_c, 0, 60, 31
2, 44626, Note_on_c, 0, 76, 27
2, 44629, Control_c, 0, 64, 0
2, 44669, Control_c, 0, 64, 127
2, 44718, Note_on_c, 0, 83, 0
2, 44726, Note_on_c, 0, 60, 0
2, 44736, Note_on_c, 0, 78, 0
2, 44743, Note_on_c, 0, 76, 0
2, 44752, Note_on_c, 0, 54, 0
2, 44755, Note_on_c, 0, 71, 0
2, 44847, Note_on_c, 0, 54, 37
2, 44851, Note_on_c, 0, 60, 33
2, 44872, Note_on_c, 0, 60, 0
2, 44913, Note_on_c, 0, 50, 0
2, 44916, Note_on_c, 0, 54, 0
2, 44984, Note_on_c, 0, 63, 47
2, 44987, Note_on_c, 0, 66, 39
2, 44988, Note_on_c, 0, 60, 39
2, 44989, Note_on_c, 0, 69, 39
2, 44998, Note_on_c, 0, 66, 0
2, 44999, Note_on_c, 0, 63, 0
2, 45001, Note_on_c, 0, 60, 0
2, 45001, Note_on_c, 0, 69, 0
2, 45067, Note_on_c, 0, 74, 55
2, 45069, Note_on_c, 0, 66, 44
2, 45070, Note_on_c, 0, 47, 37
2, 45070, Control_c, 0, 64, 0
2, 45071, Note_on_c, 0, 62, 35
2, 45077, Note_on_c, 0, 57, 20
2, 45100, Control_c, 0, 64, 127
2, 45121, Note_on_c, 0, 62, 0
2, 45125, Note_on_c, 0, 47, 0
2, 45133, Note_on_c, 0, 66, 0
2, 45135, Note_on_c, 0, 57, 0
2, 45138, Note_on_c, 0, 74, 0
2, 45401, Note_on_c, 0, 83, 80
2, 45405, Control_c, 0, 64, 0
2, 45407, Note_on_c, 0, 78, 67
2, 45407, Note_on_c, 0, 57, 55
2, 45409, Note_on_c, 0, 62, 53
2, 45410, Note_on_c, 0, 66, 49
2, 45427, Note_on_c, 0, 74, 8
2, 45434, Note_on_c, 0, 57, 0
2, 45437, Control_c, 0, 64, 127
2, 45442, Note_on_c, 0, 66, 0
2, 45449, Note_on_c, 0, 62, 0
2, 45454, Note_on_c, 0, 83, 0
2, 45455, Note_on_c, 0, 74, 0
2, 45461, Note_on_c, 0, 78, 0
2, 45591, Note_on_c, 0, 81, 67
2, 45595, Note_on_c, 0, 78, 65
2, 45597, Note_on_c, 0, 74, 76
2, 45598, Note_on_c, 0, 55, 34
2, 45599, Note_on_c, 0, 62, 54
2, 45600, Note_on_c, 0, 59, 62
2, 45601, Note_on_c, 0, 66, 42
2, 45602, Note_on_c, 0, 69, 57
2, 45603, Control_c, 0, 64, 0
2, 45639, Control_c, 0, 64, 127
2, 45658, Note_on_c, 0, 74, 0
2, 45660, Note_on_c, 0, 69, 0
2, 45661, Note_on_c, 0, 59, 0
2, 45662, Note_on_c, 0, 55, 0
2, 45666, Note_on_c, 0, 66, 0
2, 45669, Note_on_c, 0, 78, 0
2, 45670, Note_on_c, 0, 62, 0
2, 45674, Note_on_c, 0, 81, 0
2, 45721, Note_on_c, 0, 81, 64
2, 45723, Note_on_c, 0, 78, 46
2, 45728, Control_c, 0, 64, 0
2, 45728, Note_on_c, 0, 62, 44
2, 45729, Note_on_c, 0, 74, 53
2, 45730, Note_on_c, 0, 59, 44
2, 45731, Note_on_c, 0, 66, 29
2, 45736, Note_on_c, 0, 69, 38
2, 45752, Control_c, 0, 64, 127
2, 45770, Note_on_c, 0, 62, 0
2, 45773, Note_on_c, 0, 74, 0
2, 45776, Note_on_c, 0, 78, 0
2, 45782, Note_on_c, 0, 81, 0
2, 45783, Note_on_c, 0, 59, 0
2, 45788, Note_on_c, 0, 66, 0
2, 45789, Note_on_c, 0, 69, 0
2, 45822, Control_c, 0, 64, 0
2, 45822, Note_on_c, 0, 79, 44
2, 45823, Note_on_c, 0, 66, 45
2, 45824, Note_on_c, 0, 67, 40
2, 45824, Note_on_c, 0, 76, 43
2, 45827, Note_on_c, 0, 59, 41
2, 45830, Note_on_c, 0, 61, 39
2, 45830, Note_on_c, 0, 72, 39
2, 45842, Control_c, 0, 64, 127
2, 45852, Note_on_c, 0, 55, 2
2, 45865, Note_on_c, 0, 67, 0
2, 45869, Note_on_c, 0, 72, 0
2, 45872, Note_on_c, 0, 59, 0
2, 45873, Note_on_c, 0, 55, 0
2, 45876, Note_on_c, 0, 76, 0
2, 45877, Note_on_c, 0, 66, 0
2, 45878, Note_on_c, 0, 79, 0
2, 45882, Note_on_c, 0, 61, 0
2, 45950, Control_c, 0, 64, 0
2, 45953, Note_on_c, 0, 64, 48
2, 45955, Note_on_c, 0, 84, 75
2, 45956, Note_on_c, 0, 55, 49
2, 45956, Note_on_c, 0, 79, 64
2, 45956, Note_on_c, 0, 72, 57
2, 45957, Note_on_c, 0, 60, 55
2, 45958, Note_on_c, 0, 59, 49
2, 45965, Note_on_c, 0, 59, 0
2, 45966, Note_on_c, 0, 72, 0
2, 45968, Note_on_c, 0, 60, 0
2, 45969, Note_on_c, 0, 64, 0
2, 45970, Note_on_c, 0, 79, 0
2, 45973, Note_on_c, 0, 55, 0
2, 45974, Note_on_c, 0, 84, 0
2, 46071, Note_on_c, 0, 81, 45
2, 46075, Note_on_c, 0, 55, 30
2, 46076, Note_on_c, 0, 76, 46
2, 46078, Note_on_c, 0, 64, 25
2, 46079, Note_on_c, 0, 69, 24
2, 46079, Note_on_c, 0, 60, 34
2, 46080, Note_on_c, 0, 59, 43
2, 46089, Note_on_c, 0, 59, 0
2, 46089, Note_on_c, 0, 69, 0
2, 46091, Note_on_c, 0, 64, 0
2, 46091, Note_on_c, 0, 76, 0
2, 46091, Note_on_c, 0, 60, 0
2, 46093, Note_on_c, 0, 55, 0
2, 46094, Note_on_c, 0, 81, 0
2, 46231, Control_c, 0, 64, 127
2, 46298, Note_on_c, 0, 79, 42
2, 46299, Note_on_c, 0, 67, 49
2, 46302, Note_on_c, 0, 72, 44
2, 46302, Note_on_c, 0, 55, 34
2, 46303, Note_on_c, 0, 64, 25
2, 46303, Note_on_c, 0, 60, 33
2, 46305, Note_on_c, 0, 59, 33
2, 46311, Note_on_c, 0, 72, 0
2, 46312, Note_on_c, 0, 67, 0
2, 46313, Control_c, 0, 64, 0
2, 46314, Note_on_c, 0, 60, 0
2, 46314, Note_on_c, 0, 59, 0
2, 46315, Note_on_c, 0, 64, 0
2, 46318, Note_on_c, 0, 79, 0
2, 46323, Note_on_c, 0, 55, 0
2, 46366, Control_c, 0, 64, 127
2, 46421, Note_on_c, 0, 26, 47
2, 46442, Note_on_c, 0, 26, 0
2, 46542, Note_on_c, 0, 78, 37
2, 46544, Note_on_c, 0, 64, 36
2, 46544, Note_on_c, 0, 54, 33
2, 46547, Note_on_c, 0, 66, 25
2, 46549, Note_on_c, 0, 60, 34
2, 46552, Note_on_c, 0, 72, 32
2, 46553, Note_on_c, 0, 74, 35
2, 46606, Note_on_c, 0, 60, 0
2, 46607, Note_on_c, 0, 66, 0
2, 46607, Note_on_c, 0, 72, 0
2, 46610, Note_on_c, 0, 54, 0
2, 46612, Note_on_c, 0, 64, 0
2, 46616, Note_on_c, 0, 74, 0
2, 46620, Note_on_c, 0, 78, 0
2, 46659, Note_on_c, 0, 54, 35
2, 46661, Note_on_c, 0, 64, 28
2, 46662, Note_on_c, 0, 66, 35
2, 46662, Note_on_c, 0, 78, 34
2, 46663, Note_on_c, 0, 60, 39
2, 46670, Note_on_c, 0, 72, 32
2, 46671, Note_on_c, 0, 74, 34
2, 46716, Note_on_c, 0, 64, 0
2, 46725, Note_on_c, 0, 60, 0
2, 46731, Note_on_c, 0, 54, 0
2, 46761, Note_on_c, 0, 66, 0
2, 46782, Note_on_c, 0, 66, 44
2, 46785, Note_on_c, 0, 78, 0
2, 46788, Note_on_c, 0, 72, 0
2, 46789, Note_on_c, 0, 74, 0
2, 46810, Note_on_c, 0, 66, 0
2, 46893, Control_c, 0, 64, 0
2, 46895, Note_on_c, 0, 61, 67
2, 46896, Note_on_c, 0, 70, 64
2, 46897, Note_on_c, 0, 43, 36
2, 46898, Note_on_c, 0, 66, 53
2, 46900, Note_on_c, 0, 54, 33
2, 46919, Control_c, 0, 64, 127
2, 46932, Note_on_c, 0, 61, 0
2, 46938, Note_on_c, 0, 70, 0
2, 46947, Note_on_c, 0, 66, 0
2, 46957, Note_on_c, 0, 74, 78
2, 46961, Note_on_c, 0, 67, 64
2, 46970, Note_on_c, 0, 67, 0
2, 46989, Note_on_c, 0, 74, 0
2, 46994, Note_on_c, 0, 54, 0
2, 47021, Note_on_c, 0, 54, 46
2, 47022, Note_on_c, 0, 71, 63
2, 47025, Note_on_c, 0, 66, 64
2, 47026, Note_on_c, 0, 62, 54
2, 47029, Control_c, 0, 64, 0
2, 47061, Control_c, 0, 64, 127
2, 47090, Note_on_c, 0, 71, 0
2, 47091, Note_on_c, 0, 66, 0
2, 47093, Note_on_c, 0, 50, 45
2, 47099, Note_on_c, 0, 62, 0
2, 47101, Note_on_c, 0, 54, 0
2, 47221, Note_on_c, 0, 54, 31
2, 47226, Note_on_c, 0, 62, 50
2, 47226, Note_on_c, 0, 59, 41
2, 47244, Note_on_c, 0, 43, 0
2, 47252, Note_on_c, 0, 50, 0
2, 47268, Note_on_c, 0, 54, 0
2, 47284, Note_on_c, 0, 59, 0
2, 47297, Note_on_c, 0, 66, 56
2, 47326, Note_on_c, 0, 66, 0
2, 47326, Note_on_c, 0, 62, 0
2, 47341, Note_on_c, 0, 69, 74
2, 47364, Note_on_c, 0, 69, 0
2, 47390, Note_on_c, 0, 65, 58
2, 47393, Note_on_c, 0, 47, 33
2, 47394, Note_on_c, 0, 57, 37
2, 47394, Note_on_c, 0, 60, 47
2, 47395, Note_on_c, 0, 63, 43
2, 47399, Control_c, 0, 64, 0
2, 47443, Control_c, 0, 64, 127
2, 47537, Note_on_c, 0, 57, 0
2, 47557, Note_on_c, 0, 67, 16
2, 47563, Note_on_c, 0, 60, 0
2, 47584, Note_on_c, 0, 63, 0
2, 47613, Note_on_c, 0, 65, 0
2, 47622, Note_on_c, 0, 67, 0
2, 47641, Control_c, 0, 64, 0
2, 47641, Note_on_c, 0, 57, 30
2, 47642, Note_on_c, 0, 59, 36
2, 47642, Note_on_c, 0, 51, 30
2, 47644, Note_on_c, 0, 63, 27
2, 47657, Control_c, 0, 64, 127
2, 47658, Note_on_c, 0, 59, 0
2, 47669, Note_on_c, 0, 63, 0
2, 47687, Note_on_c, 0, 57, 0
2, 47690, Note_on_c, 0, 51, 0
2, 47694, Note_on_c, 0, 47, 0
2, 47721, Note_on_c, 0, 72, 70
2, 47748, Note_on_c, 0, 72, 0
2, 47763, Note_on_c, 0, 75, 81
2, 47791, Note_on_c, 0, 75, 0
2, 47803, Note_on_c, 0, 79, 82
2, 47834, Note_on_c, 0, 79, 0
2, 47849, Note_on_c, 0, 78, 67
2, 47884, Note_on_c, 0, 78, 0
2, 47891, Note_on_c, 0, 40, 43
2, 47895, Note_on_c, 0, 47, 33
2, 47899, Note_on_c, 0, 55, 41
2, 47900, Control_c, 0, 64, 0
2, 47900, Note_on_c, 0, 77, 47
2, 47941, Note_on_c, 0, 77, 0
2, 47949, Note_on_c, 0, 75, 42
2, 47974, Control_c, 0, 64, 127
2, 47981, Note_on_c, 0, 75, 0
2, 47993, Note_on_c, 0, 76, 67
2, 48002, Note_on_c, 0, 40, 0
2, 48008, Note_on_c, 0, 47, 0
2, 48025, Note_on_c, 0, 55, 0
2, 48038, Note_on_c, 0, 71, 63
2, 48069, Note_on_c, 0, 76, 0
2, 48076, Note_on_c, 0, 71, 0
2, 48082, Note_on_c, 0, 69, 57
2, 48105, Note_on_c, 0, 69, 0
2, 48123, Note_on_c, 0, 67, 55
2, 48151, Note_on_c, 0, 62, 24
2, 48153, Note_on_c, 0, 59, 40
2, 48154, Note_on_c, 0, 52, 25
2, 48154, Note_on_c, 0, 55, 37
2, 48159, Note_on_c, 0, 67, 0
2, 48171, Control_c, 0, 64, 0
2, 48176, Note_on_c, 0, 67, 58
2, 48201, Note_on_c, 0, 67, 0
2, 48223, Note_on_c, 0, 66, 51
2, 48256, Note_on_c, 0, 66, 0
2, 48264, Note_on_c, 0, 69, 66
2, 48298, Note_on_c, 0, 69, 0
2, 48302, Note_on_c, 0, 66, 35
2, 48322, Note_on_c, 0, 66, 0
2, 48330, Note_on_c, 0, 62, 0
2, 48334, Note_on_c, 0, 55, 0
2, 48334, Note_on_c, 0, 59, 0
2, 48341, Control_c, 0, 64, 127
2, 48342, Note_on_c, 0, 67, 48
2, 48384, Note_on_c, 0, 67, 0
2, 48393, Note_on_c, 0, 67, 28
2, 48395, Control_c, 0, 64, 0
2, 48397, Note_on_c, 0, 62, 29
2, 48401, Note_on_c, 0, 59, 29
2, 48402, Note_on_c, 0, 64, 31
2, 48415, Control_c, 0, 64, 127
2, 48419, Note_on_c, 0, 62, 0
2, 48431, Note_on_c, 0, 59, 0
2, 48435, Note_on_c, 0, 64, 0
2, 48448, Note_on_c, 0, 67, 0
2, 48467, Note_on_c, 0, 52, 0
2, 48476, Note_on_c, 0, 67, 28
2, 48479, Note_on_c, 0, 62, 14
2, 48490, Note_on_c, 0, 64, 10
2, 48508, Note_on_c, 0, 67, 0
2, 48518, Note_on_c, 0, 64, 0
2, 48525, Note_on_c, 0, 62, 0
2, 48548, Note_on_c, 0, 47, 29
2, 48641, Note_on_c, 0, 55, 35
2, 48644, Control_c, 0, 64, 0
2, 48644, Note_on_c, 0, 64, 36
2, 48645, Note_on_c, 0, 62, 33
2, 48645, Note_on_c, 0, 59, 34
2, 48647, Note_on_c, 0, 52, 18
2, 48671, Note_on_c, 0, 47, 0
2, 48672, Control_c, 0, 64, 127
2, 48680, Note_on_c, 0, 55, 0
2, 48695, Note_on_c, 0, 59, 0
2, 48708, Note_on_c, 0, 62, 0
2, 48713, Note_on_c, 0, 64, 0
2, 48747, Note_on_c, 0, 52, 0
2, 48799, Note_on_c, 0, 79, 74
2, 48801, Note_on_c, 0, 77, 78
2, 48808, Note_on_c, 0, 77, 0
2, 48855, Note_on_c, 0, 80, 37
2, 48859, Note_on_c, 0, 79, 0
2, 48874, Note_on_c, 0, 80, 0
2, 48875, Note_on_c, 0, 81, 55
2, 48900, Note_on_c, 0, 82, 61
2, 48906, Note_on_c, 0, 81, 0
2, 48909, Note_on_c, 0, 55, 33
2, 48909, Note_on_c, 0, 61, 37
2, 48910, Note_on_c, 0, 66, 20
2, 48915, Control_c, 0, 64, 0
2, 48927, Note_on_c, 0, 83, 60
2, 48928, Note_on_c, 0, 82, 0
2, 48969, Control_c, 0, 64, 127
2, 49066, Note_on_c, 0, 61, 0
2, 49096, Note_on_c, 0, 55, 0
2, 49096, Note_on_c, 0, 66, 0
2, 49103, Note_on_c, 0, 83, 0
2, 49160, Note_on_c, 0, 76, 40
2, 49164, Note_on_c, 0, 66, 19
2, 49165, Note_on_c, 0, 61, 28
2, 49190, Note_on_c, 0, 55, 1
2, 49201, Note_on_c, 0, 76, 0
2, 49240, Note_on_c, 0, 66, 0
2, 49240, Note_on_c, 0, 55, 0
2, 49256, Note_on_c, 0, 61, 0
2, 49318, Note_on_c, 0, 56, 53
2, 49319, Note_on_c, 0, 79, 67
2, 49320, Note_on_c, 0, 67, 36
2, 49321, Note_on_c, 0, 61, 45
2, 49321, Note_on_c, 0, 73, 61
2, 49326, Control_c, 0, 64, 0
2, 49351, Note_on_c, 0, 67, 0
2, 49356, Control_c, 0, 64, 127
2, 49367, Note_on_c, 0, 79, 0
2, 49382, Note_on_c, 0, 73, 0
2, 49395, Note_on_c, 0, 56, 0
2, 49405, Note_on_c, 0, 61, 0
2, 49428, Note_on_c, 0, 78, 36
2, 49431, Note_on_c, 0, 71, 50
2, 49432, Note_on_c, 0, 55, 49
2, 49432, Note_on_c, 0, 61, 29
2, 49433, Note_on_c, 0, 67, 25
2, 49434, Note_on_c, 0, 66, 27
2, 49434, Control_c, 0, 64, 0
2, 49474, Control_c, 0, 64, 127
2, 49543, Note_on_c, 0, 66, 0
2, 49579, Note_on_c, 0, 78, 0
2, 49589, Note_on_c, 0, 67, 0
2, 49615, Note_on_c, 0, 61, 0
2, 49622, Note_on_c, 0, 71, 0
2, 49676, Note_on_c, 0, 61, 37
2, 49678, Note_on_c, 0, 64, 35
2, 49776, Note_on_c, 0, 55, 0
2, 49782, Note_on_c, 0, 64, 0
2, 49799, Note_on_c, 0, 61, 0
2, 49807, Note_on_c, 0, 76, 60
2, 49832, Note_on_c, 0, 76, 0
2, 49856, Note_on_c, 0, 76, 42
2, 49873, Note_on_c, 0, 76, 0
2, 49906, Note_on_c, 0, 55, 41
2, 49916, Note_on_c, 0, 81, 64
2, 49916, Note_on_c, 0, 60, 20
2, 49922, Control_c, 0, 64, 0
2, 49922, Note_on_c, 0, 77, 67
2, 49922, Note_on_c, 0, 65, 47
2, 49923, Note_on_c, 0, 61, 29
2, 49928, Note_on_c, 0, 72, 45
2, 49970, Control_c, 0, 64, 127
2, 49981, Note_on_c, 0, 81, 0
2, 49996, Note_on_c, 0, 81, 60
2, 50028, Note_on_c, 0, 81, 0
2, 50047, Note_on_c, 0, 72, 0
2, 50050, Note_on_c, 0, 81, 52
2, 50052, Note_on_c, 0, 65, 0
2, 50055, Note_on_c, 0, 77, 0
2, 50056, Note_on_c, 0, 60, 0
2, 50066, Note_on_c, 0, 81, 0
2, 50088, Note_on_c, 0, 61, 0
2, 50103, Note_on_c, 0, 93, 78
2, 50105, Note_on_c, 0, 55, 0
2, 50115, Note_on_c, 0, 84, 28
2, 50130, Note_on_c, 0, 93, 0
2, 50136, Note_on_c, 0, 84, 0
2, 50167, Note_on_c, 0, 93, 66
2, 50173, Note_on_c, 0, 61, 29
2, 50175, Note_on_c, 0, 65, 26
2, 50177, Note_on_c, 0, 60, 29
2, 50177, Note_on_c, 0, 84, 55
2, 50177, Note_on_c, 0, 55, 29
2, 50190, Note_on_c, 0, 93, 0
2, 50194, Note_on_c, 0, 84, 0
2, 50220, Note_on_c, 0, 61, 0
2, 50220, Note_on_c, 0, 65, 0
2, 50232, Note_on_c, 0, 89, 39
2, 50240, Note_on_c, 0, 81, 40
2, 50240, Note_on_c, 0, 84, 48
2, 50249, Note_on_c, 0, 84, 0
2, 50251, Note_on_c, 0, 60, 0
2, 50253, Note_on_c, 0, 89, 0
2, 50262, Note_on_c, 0, 81, 0
2, 50291, Note_on_c, 0, 84, 57
2, 50296, Note_on_c, 0, 77, 51
2, 50329, Note_on_c, 0, 77, 0
2, 50329, Note_on_c, 0, 84, 0
2, 50346, Note_on_c, 0, 72, 31
2, 50347, Note_on_c, 0, 81, 33
2, 50355, Note_on_c, 0, 55, 0
2, 50357, Note_on_c, 0, 81, 0
2, 50367, Note_on_c, 0, 72, 0
2, 50401, Note_on_c, 0, 65, 29
2, 50401, Note_on_c, 0, 81, 38
2, 50403, Note_on_c, 0, 77, 37
2, 50405, Note_on_c, 0, 61, 32
2, 50406, Note_on_c, 0, 72, 24
2, 50408, Note_on_c, 0, 60, 29
2, 50412, Note_on_c, 0, 55, 20
2, 50420, Note_on_c, 0, 77, 0
2, 50422, Note_on_c, 0, 81, 0
2, 50428, Note_on_c, 0, 72, 0
2, 50435, Note_on_c, 0, 65, 0
2, 50436, Note_on_c, 0, 55, 0
2, 50437, Note_on_c, 0, 61, 0
2, 50439, Note_on_c, 0, 60, 0
2, 50470, Note_on_c, 0, 77, 45
2, 50474, Note_on_c, 0, 65, 34
2, 50475, Note_on_c, 0, 69, 37
2, 50477, Note_on_c, 0, 72, 35
2, 50477, Note_on_c, 0, 61, 25
2, 50478, Note_on_c, 0, 60, 32
2, 50480, Note_on_c, 0, 55, 29
2, 50518, Note_on_c, 0, 65, 0
2, 50520, Note_on_c, 0, 60, 0
2, 50525, Note_on_c, 0, 61, 0
2, 50531, Note_on_c, 0, 55, 0
2, 50539, Note_on_c, 0, 72, 0
2, 50564, Note_on_c, 0, 69, 0
2, 50564, Note_on_c, 0, 77, 0
2, 50582, Note_on_c, 0, 39, 54
2, 50604, Note_on_c, 0, 39, 0
2, 50655, Note_on_c, 0, 60, 70
2, 50655, Note_on_c, 0, 61, 59
2, 50656, Note_on_c, 0, 65, 65
2, 50657, Note_on_c, 0, 69, 60
2, 50799, Note_on_c, 0, 60, 0
2, 50812, Note_on_c, 0, 69, 0
2, 50822, Note_on_c, 0, 65, 0
2, 50822, Note_on_c, 0, 61, 0
2, 50912, Note_on_c, 0, 59, 43
2, 50913, Note_on_c, 0, 60, 33
2, 50914, Note_on_c, 0, 64, 44
2, 50914, Note_on_c, 0, 50, 32
2, 50919, Control_c, 0, 64, 0
2, 50961, Control_c, 0, 64, 127
2, 51045, Note_on_c, 0, 60, 0
2, 51055, Note_on_c, 0, 64, 0
2, 51080, Note_on_c, 0, 59, 0
2, 51150, Note_on_c, 0, 60, 35
2, 51152, Note_on_c, 0, 59, 29
2, 51152, Note_on_c, 0, 64, 43
2, 51153, Note_on_c, 0, 71, 32
2, 51155, Note_on_c, 0, 68, 33
2, 51157, Note_on_c, 0, 50, 0
2, 51170, Control_c, 0, 64, 0
2, 51175, Note_on_c, 0, 59, 0
2, 51182, Note_on_c, 0, 60, 0
2, 51208, Note_on_c, 0, 60, 49
2, 51228, Note_on_c, 0, 60, 0
2, 51252, Note_on_c, 0, 59, 44
2, 51276, Note_on_c, 0, 59, 0
2, 51282, Note_on_c, 0, 58, 35
2, 51296, Note_on_c, 0, 58, 0
2, 51308, Note_on_c, 0, 57, 35
2, 51328, Note_on_c, 0, 57, 0
2, 51339, Note_on_c, 0, 56, 46
2, 51349, Control_c, 0, 64, 127
2, 51360, Note_on_c, 0, 32, 40
2, 51429, Note_on_c, 0, 60, 44
2, 51431, Note_on_c, 0, 56, 0
2, 51456, Note_on_c, 0, 64, 0
2, 51480, Note_on_c, 0, 32, 0
2, 51480, Note_on_c, 0, 71, 0
2, 51480, Note_on_c, 0, 68, 0
2, 51488, Note_on_c, 0, 60, 0
2, 51493, Note_on_c, 0, 44, 30
2, 51563, Note_on_c, 0, 62, 38
2, 51566, Note_on_c, 0, 58, 31
2, 51566, Note_on_c, 0, 53, 20
2, 51590, Note_on_c, 0, 44, 0
2, 51678, Note_on_c, 0, 32, 55
2, 51702, Note_on_c, 0, 53, 0
2, 51705, Note_on_c, 0, 32, 0
2, 51722, Note_on_c, 0, 58, 0
2, 51726, Note_on_c, 0, 62, 0
2, 51856, Control_c, 0, 64, 0
2, 51857, Note_on_c, 0, 31, 53
2, 51880, Note_on_c, 0, 31, 0
2, 51880, Control_c, 0, 64, 127
2, 51951, Note_on_c, 0, 71, 69
2, 51988, Note_on_c, 0, 71, 0
2, 52054, Note_on_c, 0, 66, 74
2, 52088, Note_on_c, 0, 66, 0
2, 52125, Note_on_c, 0, 54, 43
2, 52126, Note_on_c, 0, 66, 55
2, 52126, Note_on_c, 0, 69, 71
2, 52128, Note_on_c, 0, 43, 44
2, 52129, Note_on_c, 0, 62, 65
2, 52132, Note_on_c, 0, 57, 47
2, 52132, Note_on_c, 0, 59, 47
2, 52136, Control_c, 0, 64, 0
2, 52183, Note_on_c, 0, 69, 0
2, 52186, Control_c, 0, 64, 127
2, 52214, Note_on_c, 0, 43, 0
2, 52216, Note_on_c, 0, 54, 0
2, 52220, Note_on_c, 0, 69, 72
2, 52253, Note_on_c, 0, 69, 0
2, 52275, Note_on_c, 0, 59, 0
2, 52275, Note_on_c, 0, 57, 0
2, 52285, Note_on_c, 0, 69, 66
2, 52306, Note_on_c, 0, 66, 0
2, 52307, Note_on_c, 0, 62, 0
2, 52328, Note_on_c, 0, 67, 37
2, 52329, Note_on_c, 0, 69, 0
2, 52345, Note_on_c, 0, 67, 0
2, 52374, Note_on_c, 0, 43, 30
2, 52376, Note_on_c, 0, 69, 40
2, 52377, Note_on_c, 0, 36, 24
2, 52377, Note_on_c, 0, 58, 39
2, 52379, Note_on_c, 0, 52, 29
2, 52379, Note_on_c, 0, 66, 38
2, 52380, Control_c, 0, 64, 0
2, 52381, Note_on_c, 0, 62, 44
2, 52416, Control_c, 0, 64, 127
2, 52430, Note_on_c, 0, 58, 0
2, 52437, Note_on_c, 0, 36, 0
2, 52438, Note_on_c, 0, 62, 0
2, 52446, Note_on_c, 0, 43, 0
2, 52456, Note_on_c, 0, 69, 0
2, 52458, Note_on_c, 0, 66, 0
2, 52468, Note_on_c, 0, 52, 0
2, 52531, Note_on_c, 0, 79, 69
2, 52584, Note_on_c, 0, 79, 0
2, 52637, Note_on_c, 0, 79, 57
2, 52642, Note_on_c, 0, 74, 60
2, 52643, Note_on_c, 0, 64, 41
2, 52646, Note_on_c, 0, 69, 58
2, 52737, Note_on_c, 0, 79, 0
2, 52749, Note_on_c, 0, 64, 0
2, 52754, Note_on_c, 0, 63, 33
2, 52755, Note_on_c, 0, 69, 0
2, 52758, Note_on_c, 0, 78, 59
2, 52763, Note_on_c, 0, 63, 0
2, 52824, Note_on_c, 0, 74, 0
2, 52837, Note_on_c, 0, 78, 0
2, 52859, Control_c, 0, 64, 0
2, 52864, Note_on_c, 0, 77, 52
2, 52866, Note_on_c, 0, 57, 29
2, 52866, Note_on_c, 0, 47, 32
2, 52867, Note_on_c, 0, 69, 34
2, 52867, Note_on_c, 0, 74, 41
2, 52885, Control_c, 0, 64, 127
2, 52889, Note_on_c, 0, 47, 0
2, 52906, Note_on_c, 0, 57, 0
2, 52916, Note_on_c, 0, 69, 0
2, 52941, Note_on_c, 0, 74, 0
2, 52950, Note_on_c, 0, 77, 0
2, 53067, Note_on_c, 0, 89, 69
2, 53093, Note_on_c, 0, 89, 0
2, 53105, Note_on_c, 0, 62, 38
2, 53106, Note_on_c, 0, 65, 34
2, 53117, Note_on_c, 0, 65, 0
2, 53118, Control_c, 0, 64, 0
2, 53124, Note_on_c, 0, 62, 0
2, 53147, Note_on_c, 0, 86, 66
2, 53160, Note_on_c, 0, 86, 0
2, 53182, Note_on_c, 0, 88, 66
2, 53203, Note_on_c, 0, 88, 0
2, 53221, Note_on_c, 0, 89, 81
2, 53243, Note_on_c, 0, 89, 0
2, 53257, Note_on_c, 0, 88, 70
2, 53275, Note_on_c, 0, 88, 0
2, 53290, Control_c, 0, 64, 127
2, 53296, Note_on_c, 0, 86, 75
2, 53312, Note_on_c, 0, 86, 0
2, 53326, Control_c, 0, 64, 0
2, 53338, Note_on_c, 0, 62, 30
2, 53338, Note_on_c, 0, 84, 35
2, 53341, Note_on_c, 0, 52, 29
2, 53346, Note_on_c, 0, 56, 21
2, 53369, Note_on_c, 0, 84, 0
2, 53377, Note_on_c, 0, 83, 47
2, 53400, Note_on_c, 0, 83, 0
2, 53422, Note_on_c, 0, 81, 56
2, 53438, Note_on_c, 0, 52, 0
2, 53441, Note_on_c, 0, 81, 0
2, 53450, Note_on_c, 0, 56, 0
2, 53459, Note_on_c, 0, 62, 0
2, 53465, Note_on_c, 0, 80, 35
2, 53490, Note_on_c, 0, 80, 0
2, 53502, Note_on_c, 0, 86, 79
2, 53528, Note_on_c, 0, 86, 0
2, 53541, Note_on_c, 0, 77, 45
2, 53551, Control_c, 0, 64, 127
2, 53569, Note_on_c, 0, 77, 0
2, 53583, Control_c, 0, 64, 0
2, 53585, Note_on_c, 0, 76, 42
2, 53587, Note_on_c, 0, 56, 28
2, 53587, Note_on_c, 0, 62, 36
2, 53588, Note_on_c, 0, 67, 28
2, 53626, Note_on_c, 0, 76, 0
2, 53630, Note_on_c, 0, 74, 36
2, 53652, Note_on_c, 0, 74, 0
2, 53671, Note_on_c, 0, 77, 64
2, 53704, Note_on_c, 0, 77, 0
2, 53713, Note_on_c, 0, 71, 45
2, 53746, Note_on_c, 0, 67, 0
2, 53748, Note_on_c, 0, 71, 0
2, 53753, Note_on_c, 0, 62, 0
2, 53757, Note_on_c, 0, 74, 67
2, 53761, Control_c, 0, 64, 127
2, 53782, Note_on_c, 0, 56, 0
2, 53784, Note_on_c, 0, 74, 0
2, 53798, Note_on_c, 0, 76, 71
2, 53838, Control_c, 0, 64, 0
2, 53838, Note_on_c, 0, 64, 34
2, 53839, Note_on_c, 0, 55, 30
2, 53844, Note_on_c, 0, 71, 55
2, 53846, Note_on_c, 0, 60, 35
2, 53884, Note_on_c, 0, 71, 0
2, 53886, Note_on_c, 0, 64, 0
2, 53891, Note_on_c, 0, 60, 0
2, 53896, Note_on_c, 0, 71, 60
2, 53898, Note_on_c, 0, 55, 0
2, 53908, Note_on_c, 0, 76, 0
2, 53915, Note_on_c, 0, 71, 0
2, 53936, Note_on_c, 0, 67, 39
2, 53966, Note_on_c, 0, 67, 0
2, 53979, Note_on_c, 0, 71, 62
2, 54002, Note_on_c, 0, 71, 0
2, 54020, Control_c, 0, 64, 127
2, 54027, Note_on_c, 0, 71, 54
2, 54027, Note_on_c, 0, 72, 45
2, 54037, Note_on_c, 0, 72, 0
2, 54041, Note_on_c, 0, 45, 17
2, 54049, Note_on_c, 0, 71, 0
2, 54070, Note_on_c, 0, 60, 29
2, 54071, Note_on_c, 0, 64, 35
2, 54075, Note_on_c, 0, 65, 24
2, 54078, Note_on_c, 0, 68, 47
2, 54082, Note_on_c, 0, 65, 0
2, 54090, Control_c, 0, 64, 0
2, 54098, Note_on_c, 0, 64, 0
2, 54100, Note_on_c, 0, 60, 0
2, 54113, Note_on_c, 0, 71, 68
2, 54117, Note_on_c, 0, 60, 35
2, 54120, Note_on_c, 0, 56, 45
2, 54121, Note_on_c, 0, 64, 33
2, 54137, Note_on_c, 0, 60, 0
2, 54146, Note_on_c, 0, 68, 0
2, 54147, Note_on_c, 0, 64, 0
2, 54157, Note_on_c, 0, 71, 0
2, 54178, Control_c, 0, 64, 127
2, 54203, Note_on_c, 0, 71, 65
2, 54208, Note_on_c, 0, 64, 45
2, 54235, Note_on_c, 0, 64, 0
2, 54235, Note_on_c, 0, 56, 0
2, 54246, Note_on_c, 0, 71, 0
2, 54254, Note_on_c, 0, 69, 62
2, 54257, Note_on_c, 0, 60, 36
2, 54257, Note_on_c, 0, 64, 40
2, 54368, Note_on_c, 0, 60, 0
2, 54369, Note_on_c, 0, 64, 0
2, 54407, Note_on_c, 0, 64, 37
2, 54409, Note_on_c, 0, 60, 24
2, 54409, Note_on_c, 0, 55, 34
2, 54417, Control_c, 0, 64, 0
2, 54443, Control_c, 0, 64, 127
2, 54506, Note_on_c, 0, 45, 0
2, 54543, Note_on_c, 0, 45, 50
2, 54585, Note_on_c, 0, 55, 0
2, 54608, Note_on_c, 0, 60, 0
2, 54613, Note_on_c, 0, 69, 0
2, 54631, Note_on_c, 0, 64, 0
2, 54642, Note_on_c, 0, 52, 24
2, 54668, Note_on_c, 0, 52, 0
2, 54670, Note_on_c, 0, 68, 40
2, 54671, Note_on_c, 0, 55, 35
2, 54673, Note_on_c, 0, 60, 41
2, 54675, Note_on_c, 0, 64, 43
2, 54743, Note_on_c, 0, 45, 0
2, 54802, Note_on_c, 0, 45, 35
2, 54820, Note_on_c, 0, 45, 0
2, 54833, Note_on_c, 0, 55, 0
2, 54869, Note_on_c, 0, 68, 0
2, 54871, Note_on_c, 0, 60, 0
2, 54874, Note_on_c, 0, 64, 0
2, 54880, Note_on_c, 0, 67, 54
2, 54916, Note_on_c, 0, 67, 0
2, 54946, Note_on_c, 0, 67, 36
2, 54948, Note_on_c, 0, 64, 37
2, 54949, Note_on_c, 0, 55, 32
2, 54950, Note_on_c, 0, 59, 35
2, 54951, Note_on_c, 0, 49, 32
2, 54955, Control_c, 0, 64, 0
2, 54999, Control_c, 0, 64, 127
2, 55049, Note_on_c, 0, 55, 0
2, 55084, Note_on_c, 0, 59, 0
2, 55097, Note_on_c, 0, 64, 0
2, 55223, Note_on_c, 0, 64, 37
2, 55224, Note_on_c, 0, 59, 33
2, 55229, Note_on_c, 0, 55, 31
2, 55244, Note_on_c, 0, 55, 0
2, 55274, Note_on_c, 0, 49, 0
2, 55492, Note_on_c, 0, 59, 0
2, 55499, Note_on_c, 0, 42, 77
2, 55501, Note_on_c, 0, 64, 0
2, 55501, Note_on_c, 0, 30, 77
2, 55514, Note_on_c, 0, 67, 0
2, 55516, Control_c, 0, 64, 0
2, 55544, Control_c, 0, 64, 127
2, 55578, Note_on_c, 0, 30, 0
2, 55591, Note_on_c, 0, 42, 0
2, 55973, Note_on_c, 0, 66, 25
2, 55989, Note_on_c, 0, 66, 0
2, 56008, Note_on_c, 0, 67, 40
2, 56012, Note_on_c, 0, 79, 29
2, 56017, Note_on_c, 0, 67, 0
2, 56023, Note_on_c, 0, 79, 0
2, 56058, Note_on_c, 0, 66, 43
2, 56061, Note_on_c, 0, 74, 51
2, 56062, Note_on_c, 0, 62, 40
2, 56062, Note_on_c, 0, 86, 64
2, 56063, Note_on_c, 0, 55, 40
2, 56065, Note_on_c, 0, 59, 45
2, 56066, Control_c, 0, 64, 0
2, 56106, Control_c, 0, 64, 127
2, 56125, Note_on_c, 0, 86, 0
2, 56140, Note_on_c, 0, 86, 72
2, 56193, Note_on_c, 0, 66, 0
2, 56215, Note_on_c, 0, 59, 0
2, 56229, Note_on_c, 0, 86, 0
2, 56239, Note_on_c, 0, 74, 0
2, 56247, Note_on_c, 0, 62, 0
2, 56314, Note_on_c, 0, 86, 53
2, 56317, Note_on_c, 0, 66, 32
2, 56322, Note_on_c, 0, 78, 25
2, 56323, Note_on_c, 0, 74, 31
2, 56326, Note_on_c, 0, 59, 30
2, 56328, Note_on_c, 0, 62, 26
2, 56360, Note_on_c, 0, 86, 0
2, 56372, Note_on_c, 0, 55, 0
2, 56376, Note_on_c, 0, 78, 0
2, 56377, Note_on_c, 0, 66, 0
2, 56383, Note_on_c, 0, 74, 0
2, 56444, Note_on_c, 0, 62, 0
2, 56458, Note_on_c, 0, 59, 0
2, 56572, Note_on_c, 0, 48, 34
2, 56573, Control_c, 0, 64, 0
2, 56574, Note_on_c, 0, 55, 38
2, 56601, Control_c, 0, 64, 127
2, 56690, Note_on_c, 0, 66, 62
2, 56725, Note_on_c, 0, 66, 0
2, 56747, Note_on_c, 0, 67, 80
2, 56771, Note_on_c, 0, 67, 0
2, 56830, Note_on_c, 0, 74, 74
2, 56831, Note_on_c, 0, 66, 70
2, 56833, Note_on_c, 0, 55, 0
2, 56834, Note_on_c, 0, 62, 62
2, 56835, Note_on_c, 0, 58, 45
2, 56838, Control_c, 0, 64, 0
2, 56884, Control_c, 0, 64, 127
2, 56909, Note_on_c, 0, 74, 0
2, 56926, Note_on_c, 0, 74, 53
2, 56982, Note_on_c, 0, 74, 0
2, 57013, Note_on_c, 0, 48, 0
2, 57022, Note_on_c, 0, 58, 0
2, 57038, Note_on_c, 0, 73, 30
2, 57061, Note_on_c, 0, 73, 0
2, 57074, Note_on_c, 0, 62, 0
2, 57075, Note_on_c, 0, 66, 0
2, 57082, Note_on_c, 0, 72, 52
2, 57114, Note_on_c, 0, 47, 36
2, 57120, Note_on_c, 0, 57, 29
2, 57121, Control_c, 0, 64, 0
2, 57123, Note_on_c, 0, 71, 56
2, 57128, Note_on_c, 0, 72, 0
2, 57160, Note_on_c, 0, 70, 32
2, 57162, Note_on_c, 0, 71, 0
2, 57185, Note_on_c, 0, 70, 0
2, 57196, Note_on_c, 0, 69, 38
2, 57223, Control_c, 0, 64, 127
2, 57295, Note_on_c, 0, 57, 0
2, 57381, Note_on_c, 0, 57, 25
2, 57382, Note_on_c, 0, 51, 31
2, 57425, Note_on_c, 0, 57, 0
2, 57439, Note_on_c, 0, 47, 0
2, 57443, Note_on_c, 0, 51, 0
2, 57591, Note_on_c, 0, 69, 0
2, 57638, Note_on_c, 0, 28, 76
2, 57652, Control_c, 0, 64, 0
2, 57684, Note_on_c, 0, 55, 50
2, 57704, Note_on_c, 0, 55, 0
2, 57707, Note_on_c, 0, 56, 46
2, 57728, Note_on_c, 0, 56, 0
2, 57742, Note_on_c, 0, 59, 52
2, 57752, Note_on_c, 0, 59, 0
2, 57763, Note_on_c, 0, 61, 39
2, 57775, Note_on_c, 0, 61, 0
2, 57785, Note_on_c, 0, 62, 62
2, 57800, Note_on_c, 0, 64, 43
2, 57801, Note_on_c, 0, 62, 0
2, 57817, Note_on_c, 0, 64, 0
2, 57820, Note_on_c, 0, 65, 59
2, 57827, Note_on_c, 0, 65, 0
2, 57841, Note_on_c, 0, 67, 58
2, 57859, Note_on_c, 0, 67, 0
2, 57864, Note_on_c, 0, 68, 33
2, 57879, Note_on_c, 0, 68, 0
2, 57883, Note_on_c, 0, 70, 32
2, 57891, Note_on_c, 0, 70, 0
2, 57901, Note_on_c, 0, 71, 49
2, 57920, Note_on_c, 0, 71, 0
2, 57922, Note_on_c, 0, 72, 34
2, 57938, Note_on_c, 0, 72, 0
2, 57939, Note_on_c, 0, 73, 25
2, 57952, Note_on_c, 0, 73, 0
2, 57953, Note_on_c, 0, 28, 0
2, 57955, Note_on_c, 0, 74, 49
2, 57979, Note_on_c, 0, 74, 0
2, 57988, Note_on_c, 0, 76, 41
2, 58003, Note_on_c, 0, 76, 0
2, 58124, Control_c, 0, 64, 127
2, 58253, Note_on_c, 0, 83, 68
2, 58257, Note_on_c, 0, 71, 58
2, 58262, Note_on_c, 0, 21, 38
2, 58309, Note_on_c, 0, 83, 0
2, 58312, Note_on_c, 0, 71, 0
2, 58352, Control_c, 0, 64, 0
2, 58353, Note_on_c, 0, 83, 49
2, 58356, Note_on_c, 0, 66, 25
2, 58356, Note_on_c, 0, 71, 49
2, 58357, Note_on_c, 0, 61, 33
2, 58359, Note_on_c, 0, 55, 33
2, 58377, Control_c, 0, 64, 127
2, 58394, Note_on_c, 0, 66, 0
2, 58396, Note_on_c, 0, 83, 0
2, 58407, Note_on_c, 0, 55, 0
2, 58409, Note_on_c, 0, 71, 0
2, 58413, Note_on_c, 0, 61, 0
2, 58470, Note_on_c, 0, 61, 57
2, 58491, Note_on_c, 0, 61, 0
2, 58502, Note_on_c, 0, 21, 0
2, 58540, Note_on_c, 0, 61, 56
2, 58596, Note_on_c, 0, 61, 0
2, 58611, Note_on_c, 0, 62, 44
2, 58612, Note_on_c, 0, 47, 31
2, 58613, Note_on_c, 0, 35, 36
2, 58615, Note_on_c, 0, 57, 24
2, 58618, Control_c, 0, 64, 0
2, 58656, Control_c, 0, 64, 127
2, 58683, Note_on_c, 0, 35, 0
2, 58686, Note_on_c, 0, 62, 0
2, 58699, Note_on_c, 0, 47, 0
2, 58703, Note_on_c, 0, 62, 49
2, 58707, Note_on_c, 0, 57, 0
2, 58787, Note_on_c, 0, 62, 0
2, 58853, Note_on_c, 0, 62, 34
2, 58857, Note_on_c, 0, 57, 29
2, 58900, Note_on_c, 0, 57, 0
2, 58934, Note_on_c, 0, 57, 42
2, 58977, Control_c, 0, 64, 0
2, 58999, Note_on_c, 0, 47, 37
2, 59003, Note_on_c, 0, 62, 0
2, 59009, Control_c, 0, 64, 127
2, 59038, Note_on_c, 0, 47, 0
2, 59079, Note_on_c, 0, 57, 0
2, 59088, Note_on_c, 0, 48, 36
2, 59097, Control_c, 0, 64, 0
2, 59129, Control_c, 0, 64, 127
2, 59162, Note_on_c, 0, 57, 41
2, 59188, Note_on_c, 0, 57, 0
2, 59224, Note_on_c, 0, 60, 62
2, 59257, Note_on_c, 0, 60, 0
2, 59268, Note_on_c, 0, 63, 56
2, 59298, Note_on_c, 0, 63, 0
2, 59319, Note_on_c, 0, 54, 36
2, 59321, Note_on_c, 0, 66, 55
2, 59330, Control_c, 0, 64, 0
2, 59366, Control_c, 0, 64, 127
2, 59368, Note_on_c, 0, 66, 0
2, 59380, Note_on_c, 0, 69, 62
2, 59438, Note_on_c, 0, 48, 0
2, 59471, Note_on_c, 0, 48, 34
2, 59485, Note_on_c, 0, 48, 0
2, 59511, Note_on_c, 0, 54, 0
2, 59519, Note_on_c, 0, 69, 0
2, 59546, Note_on_c, 0, 61, 34
2, 59549, Note_on_c, 0, 49, 35
2, 59551, Note_on_c, 0, 64, 36
2, 59553, Note_on_c, 0, 57, 26
2, 59556, Control_c, 0, 64, 0
2, 59594, Control_c, 0, 64, 127
2, 59655, Note_on_c, 0, 57, 0
2, 59707, Note_on_c, 0, 64, 0
2, 59707, Note_on_c, 0, 61, 0
2, 59795, Note_on_c, 0, 57, 32
2, 59796, Note_on_c, 0, 61, 26
2, 59799, Note_on_c, 0, 64, 32
2, 59810, Note_on_c, 0, 64, 0
2, 59815, Note_on_c, 0, 61, 0
2, 59873, Note_on_c, 0, 64, 74
2, 59937, Note_on_c, 0, 64, 0
2, 59978, Note_on_c, 0, 49, 0
2, 59986, Note_on_c, 0, 57, 0
2, 60004, Note_on_c, 0, 65, 66
2, 60044, Note_on_c, 0, 65, 0
2, 60060, Note_on_c, 0, 66, 52
2, 60061, Note_on_c, 0, 50, 41
2, 60068, Control_c, 0, 64, 0
2, 60096, Control_c, 0, 64, 127
2, 60109, Note_on_c, 0, 66, 0
2, 60127, Note_on_c, 0, 57, 34
2, 60184, Note_on_c, 0, 78, 49
2, 60186, Note_on_c, 0, 62, 29
2, 60237, Note_on_c, 0, 57, 0
2, 60247, Note_on_c, 0, 78, 0
2, 60248, Note_on_c, 0, 69, 40
2, 60302, Note_on_c, 0, 81, 68
2, 60305, Note_on_c, 0, 57, 36
2, 60309, Note_on_c, 0, 69, 0
2, 60335, Note_on_c, 0, 81, 0
2, 60366, Note_on_c, 0, 81, 60
2, 60376, Note_on_c, 0, 50, 0
2, 60388, Note_on_c, 0, 62, 0
2, 60405, Note_on_c, 0, 81, 0
2, 60420, Note_on_c, 0, 69, 33
2, 60445, Note_on_c, 0, 69, 0
2, 60478, Note_on_c, 0, 69, 32
2, 60529, Note_on_c, 0, 78, 51
2, 60530, Note_on_c, 0, 48, 47
2, 60549, Control_c, 0, 64, 0
2, 60550, Note_on_c, 0, 69, 0
2, 60578, Note_on_c, 0, 57, 0
2, 60591, Note_on_c, 0, 69, 36
2, 60591, Control_c, 0, 64, 127
2, 60624, Note_on_c, 0, 78, 0
2, 60640, Note_on_c, 0, 81, 76
2, 60685, Note_on_c, 0, 81, 0
2, 60699, Note_on_c, 0, 69, 0
2, 60702, Note_on_c, 0, 81, 78
2, 60755, Note_on_c, 0, 69, 58
2, 60757, Note_on_c, 0, 57, 35
2, 60791, Note_on_c, 0, 69, 0
2, 60813, Note_on_c, 0, 69, 48
2, 60851, Note_on_c, 0, 81, 0
2, 60856, Note_on_c, 0, 69, 0
2, 60858, Note_on_c, 0, 48, 0
2, 60863, Note_on_c, 0, 78, 63
2, 60916, Note_on_c, 0, 78, 0
2, 60921, Note_on_c, 0, 48, 40
2, 60922, Note_on_c, 0, 69, 41
2, 60931, Note_on_c, 0, 69, 0
2, 60945, Note_on_c, 0, 48, 0
2, 60976, Control_c, 0, 64, 0
2, 60977, Note_on_c, 0, 86, 84
2, 60979, Note_on_c, 0, 47, 54
2, 60985, Note_on_c, 0, 57, 0
2, 61012, Control_c, 0, 64, 127
2, 61015, Note_on_c, 0, 47, 0
2, 61154, Note_on_c, 0, 86, 0
2, 61220, Note_on_c, 0, 66, 20
2, 61220, Note_on_c, 0, 74, 34
2, 61223, Note_on_c, 0, 57, 33
2, 61225, Note_on_c, 0, 62, 24
2, 61271, Note_on_c, 0, 62, 0
2, 61277, Note_on_c, 0, 66, 0
2, 61284, Note_on_c, 0, 57, 0
2, 61319, Note_on_c, 0, 74, 0
2, 61348, Note_on_c, 0, 83, 92
2, 61428, Note_on_c, 0, 83, 0
2, 61464, Note_on_c, 0, 81, 83
2, 61470, Note_on_c, 0, 78, 71
2, 61473, Note_on_c, 0, 69, 54
2, 61473, Note_on_c, 0, 67, 46
2, 61474, Control_c, 0, 64, 0
2, 61474, Note_on_c, 0, 74, 72
2, 61477, Note_on_c, 0, 71, 52
2, 61510, Control_c, 0, 64, 127
2, 61628, Note_on_c, 0, 67, 0
2, 61629, Note_on_c, 0, 69, 0
2, 61633, Note_on_c, 0, 71, 0
2, 61669, Note_on_c, 0, 74, 0
2, 61675, Note_on_c, 0, 78, 0
2, 61680, Note_on_c, 0, 81, 0
2, 61862, Note_on_c, 0, 79, 57
2, 61884, Note_on_c, 0, 79, 0
2, 61973, Control_c, 0, 64, 0
2, 61980, Note_on_c, 0, 76, 55
2, 61981, Note_on_c, 0, 45, 42
2, 61997, Control_c, 0, 64, 127
2, 62002, Note_on_c, 0, 45, 0
2, 62016, Note_on_c, 0, 76, 0
2, 62102, Note_on_c, 0, 88, 83
2, 62109, Note_on_c, 0, 84, 82
2, 62113, Note_on_c, 0, 64, 41
2, 62113, Note_on_c, 0, 81, 65
2, 62115, Note_on_c, 0, 60, 43
2, 62118, Note_on_c, 0, 59, 34
2, 62118, Note_on_c, 0, 76, 26
2, 62119, Note_on_c, 0, 55, 24
2, 62160, Note_on_c, 0, 55, 0
2, 62162, Note_on_c, 0, 59, 0
2, 62162, Note_on_c, 0, 64, 0
2, 62174, Note_on_c, 0, 60, 0
2, 62182, Note_on_c, 0, 76, 0
2, 62186, Note_on_c, 0, 81, 0
2, 62187, Note_on_c, 0, 84, 0
2, 62194, Note_on_c, 0, 88, 0
2, 62233, Note_on_c, 0, 88, 59
2, 62237, Note_on_c, 0, 55, 36
2, 62239, Note_on_c, 0, 60, 32
2, 62240, Note_on_c, 0, 84, 54
2, 62241, Note_on_c, 0, 81, 52
2, 62247, Note_on_c, 0, 64, 13
2, 62249, Note_on_c, 0, 76, 27
2, 62267, Note_on_c, 0, 84, 0
2, 62268, Note_on_c, 0, 88, 0
2, 62271, Note_on_c, 0, 81, 0
2, 62273, Note_on_c, 0, 64, 0
2, 62275, Note_on_c, 0, 55, 0
2, 62276, Note_on_c, 0, 60, 0
2, 62277, Note_on_c, 0, 76, 0
2, 62351, Note_on_c, 0, 84, 50
2, 62356, Note_on_c, 0, 79, 39
2, 62358, Note_on_c, 0, 55, 27
2, 62358, Note_on_c, 0, 72, 34
2, 62361, Note_on_c, 0, 60, 19
2, 62383, Note_on_c, 0, 55, 0
2, 62385, Note_on_c, 0, 60, 0
2, 62389, Note_on_c, 0, 84, 0
2, 62391, Note_on_c, 0, 79, 0
2, 62401, Note_on_c, 0, 72, 0
2, 62474, Note_on_c, 0, 83, 51
2, 62478, Control_c, 0, 64, 0
2, 62479, Note_on_c, 0, 54, 38
2, 62480, Note_on_c, 0, 76, 46
2, 62482, Note_on_c, 0, 71, 48
2, 62483, Note_on_c, 0, 60, 27
2, 62483, Note_on_c, 0, 64, 28
2, 62511, Control_c, 0, 64, 127
2, 62525, Note_on_c, 0, 64, 0
2, 62527, Note_on_c, 0, 60, 0
2, 62538, Note_on_c, 0, 54, 0
2, 62542, Note_on_c, 0, 83, 0
2, 62560, Note_on_c, 0, 76, 0
2, 62569, Note_on_c, 0, 71, 0
2, 62607, Note_on_c, 0, 47, 35
2, 62724, Note_on_c, 0, 51, 35
2, 62725, Note_on_c, 0, 66, 33
2, 62727, Note_on_c, 0, 57, 26
2, 62727, Note_on_c, 0, 60, 28
2, 62727, Note_on_c, 0, 63, 31
2, 62730, Control_c, 0, 64, 0
2, 62762, Control_c, 0, 64, 127
2, 62778, Note_on_c, 0, 57, 0
2, 62782, Note_on_c, 0, 51, 0
2, 62784, Note_on_c, 0, 47, 0
2, 62811, Note_on_c, 0, 69, 74
2, 62856, Note_on_c, 0, 69, 0
2, 62881, Note_on_c, 0, 60, 0
2, 62884, Note_on_c, 0, 66, 0
2, 62891, Note_on_c, 0, 63, 0
2, 62896, Note_on_c, 0, 69, 66
2, 62930, Note_on_c, 0, 69, 0
2, 62983, Note_on_c, 0, 67, 53
2, 62985, Note_on_c, 0, 40, 33
2, 62990, Control_c, 0, 64, 0
2, 63025, Control_c, 0, 64, 127
2, 63064, Note_on_c, 0, 47, 29
2, 63122, Note_on_c, 0, 55, 42
2, 63171, Note_on_c, 0, 67, 0
2, 63184, Note_on_c, 0, 59, 56
2, 63241, Note_on_c, 0, 59, 0
2, 63250, Note_on_c, 0, 62, 55
2, 63276, Note_on_c, 0, 40, 0
2, 63282, Note_on_c, 0, 47, 0
2, 63301, Note_on_c, 0, 67, 60
2, 63302, Note_on_c, 0, 62, 0
2, 63306, Note_on_c, 0, 55, 0
2, 63322, Note_on_c, 0, 67, 0
2, 63352, Note_on_c, 0, 71, 65
2, 63382, Note_on_c, 0, 71, 0
2, 63395, Note_on_c, 0, 74, 72
2, 63428, Note_on_c, 0, 74, 0
2, 63439, Note_on_c, 0, 75, 71
2, 63457, Note_on_c, 0, 75, 0
2, 63485, Note_on_c, 0, 83, 62
2, 63513, Note_on_c, 0, 83, 0
2, 63530, Note_on_c, 0, 86, 82
2, 63559, Note_on_c, 0, 86, 0
2, 63576, Note_on_c, 0, 91, 77
2, 63614, Note_on_c, 0, 91, 0
2, 63621, Note_on_c, 0, 86, 60
2, 63661, Note_on_c, 0, 86, 0
2, 63672, Note_on_c, 0, 89, 58
2, 63681, Note_on_c, 0, 41, 29
2, 63687, Note_on_c, 0, 57, 35
2, 63694, Control_c, 0, 64, 0
2, 63733, Note_on_c, 0, 87, 48
2, 63734, Control_c, 0, 64, 127
2, 63738, Note_on_c, 0, 89, 0
2, 63747, Note_on_c, 0, 48, 27
2, 63765, Note_on_c, 0, 57, 0
2, 63775, Note_on_c, 0, 48, 0
2, 63786, Note_on_c, 0, 83, 38
2, 63789, Note_on_c, 0, 41, 0
2, 63795, Note_on_c, 0, 87, 0
2, 63834, Note_on_c, 0, 83, 0
2, 63844, Note_on_c, 0, 86, 64
2, 63887, Note_on_c, 0, 86, 0
2, 63911, Note_on_c, 0, 84, 42
2, 63914, Note_on_c, 0, 57, 25
2, 63915, Note_on_c, 0, 62, 20
2, 63917, Note_on_c, 0, 63, 27
2, 63918, Note_on_c, 0, 67, 20
2, 63951, Note_on_c, 0, 63, 0
2, 64012, Note_on_c, 0, 62, 0
2, 64028, Note_on_c, 0, 63, 29
2, 64040, Note_on_c, 0, 67, 0
2, 64134, Note_on_c, 0, 74, 33
2, 64138, Note_on_c, 0, 84, 0
2, 64139, Note_on_c, 0, 67, 15
2, 64223, Note_on_c, 0, 79, 44
2, 64279, Note_on_c, 0, 67, 0
2, 64303, Note_on_c, 0, 79, 0
2, 64305, Note_on_c, 0, 74, 0
2, 64306, Note_on_c, 0, 77, 35
2, 64312, Note_on_c, 0, 67, 15
2, 64369, Note_on_c, 0, 74, 48
2, 64410, Note_on_c, 0, 67, 0
2, 64426, Note_on_c, 0, 77, 0
2, 64436, Note_on_c, 0, 74, 0
2, 64438, Note_on_c, 0, 75, 44
2, 64445, Note_on_c, 0, 63, 0
2, 64503, Note_on_c, 0, 71, 28
2, 64506, Note_on_c, 0, 75, 0
2, 64576, Note_on_c, 0, 71, 0
2, 64589, Note_on_c, 0, 72, 35
2, 64592, Note_on_c, 0, 62, 17
2, 64595, Note_on_c, 0, 67, 24
2, 64597, Note_on_c, 0, 63, 18
2, 64788, Note_on_c, 0, 67, 0
2, 64799, Note_on_c, 0, 63, 0
2, 64800, Note_on_c, 0, 62, 0
2, 64819, Note_on_c, 0, 57, 0
2, 64823, Note_on_c, 0, 72, 0
2, 64994, Note_on_c, 0, 79, 61
2, 64996, Note_on_c, 0, 55, 45
2, 65039, Note_on_c, 0, 79, 0
2, 65046, Note_on_c, 0, 55, 0
2, 65056, Note_on_c, 0, 62, 74
2, 65056, Note_on_c, 0, 86, 96
2, 65129, Note_on_c, 0, 86, 0
2, 65138, Note_on_c, 0, 62, 0
2, 65154, Note_on_c, 0, 62, 71
2, 65154, Note_on_c, 0, 86, 92
2, 65231, Note_on_c, 0, 86, 0
2, 65235, Note_on_c, 0, 62, 0
2, 65268, Note_on_c, 0, 62, 41
2, 65269, Note_on_c, 0, 86, 74
2, 65338, Note_on_c, 0, 86, 0
2, 65340, Note_on_c, 0, 62, 0
2, 65401, Note_on_c, 0, 62, 30
2, 65402, Note_on_c, 0, 86, 49
2, 65431, Note_on_c, 0, 62, 0
2, 65672, Note_on_c, 0, 28, 40
2, 65674, Control_c, 0, 64, 0
2, 65684, Control_c, 0, 64, 127
2, 65696, Note_on_c, 0, 28, 0
2, 65731, Note_on_c, 0, 86, 0
2, 65821, Note_on_c, 0, 91, 66
2, 65833, Note_on_c, 0, 88, 50
2, 65838, Note_on_c, 0, 84, 63
2, 65839, Note_on_c, 0, 56, 28
2, 65846, Note_on_c, 0, 62, 29
2, 65851, Note_on_c, 0, 67, 32
2, 65854, Note_on_c, 0, 79, 30
2, 66122, Note_on_c, 0, 91, 0
2, 66139, Note_on_c, 0, 84, 0
2, 66143, Note_on_c, 0, 88, 0
2, 66174, Note_on_c, 0, 79, 0
2, 66198, Note_on_c, 0, 67, 0
2, 66210, Note_on_c, 0, 62, 0
2, 66218, Note_on_c, 0, 56, 0
2, 66605, Note_on_c, 0, 67, 54
2, 66611, Note_on_c, 0, 55, 29
2, 66638, Note_on_c, 0, 67, 0
2, 66661, Note_on_c, 0, 55, 0
2, 66667, Note_on_c, 0, 72, 89
2, 66669, Note_on_c, 0, 60, 76
2, 66758, Note_on_c, 0, 60, 0
2, 66759, Note_on_c, 0, 72, 0
2, 66777, Note_on_c, 0, 72, 71
2, 66779, Note_on_c, 0, 60, 50
2, 66869, Note_on_c, 0, 60, 0
2, 67077, Note_on_c, 0, 72, 0
2, 67360, Note_on_c, 0, 71, 27
2, 67362, Note_on_c, 0, 54, 19
2, 67362, Note_on_c, 0, 68, 29
2, 67362, Note_on_c, 0, 50, 26
2, 67364, Note_on_c, 0, 57, 32
2, 67364, Note_on_c, 0, 60, 24
2, 67364, Note_on_c, 0, 64, 35
2, 67369, Control_c, 0, 64, 0
2, 67405, Control_c, 0, 64, 127
2, 67442, Note_on_c, 0, 57, 0
2, 67450, Note_on_c, 0, 54, 0
2, 67454, Note_on_c, 0, 50, 0
2, 67750, Note_on_c, 0, 26, 24
2, 67878, Note_on_c, 0, 60, 0
2, 67882, Note_on_c, 0, 64, 0
2, 67919, Note_on_c, 0, 26, 0
2, 67924, Note_on_c, 0, 68, 0
2, 67962, Note_on_c, 0, 71, 0
2, 68188, Note_on_c, 0, 73, 30
2, 68194, Note_on_c, 0, 49, 31
2, 68265, Note_on_c, 0, 49, 0
2, 68285, Note_on_c, 0, 73, 0
2, 68290, Note_on_c, 0, 74, 44
2, 68292, Note_on_c, 0, 50, 34
2, 68335, Note_on_c, 0, 50, 0
2, 68364, Note_on_c, 0, 74, 0
2, 68436, Note_on_c, 0, 81, 45
2, 68437, Note_on_c, 0, 74, 31
2, 68438, Note_on_c, 0, 43, 36
2, 68438, Note_on_c, 0, 78, 26
2, 68440, Control_c, 0, 64, 0
2, 68466, Control_c, 0, 64, 127
2, 68491, Note_on_c, 0, 81, 0
2, 68496, Note_on_c, 0, 78, 0
2, 68500, Note_on_c, 0, 74, 0
2, 68514, Note_on_c, 0, 50, 37
2, 68579, Note_on_c, 0, 54, 31
2, 68582, Note_on_c, 0, 57, 32
2, 68584, Note_on_c, 0, 66, 32
2, 68584, Note_on_c, 0, 62, 37
2, 68620, Note_on_c, 0, 57, 0
2, 68632, Note_on_c, 0, 69, 60
2, 68637, Note_on_c, 0, 62, 0
2, 68638, Note_on_c, 0, 66, 0
2, 68652, Note_on_c, 0, 69, 0
2, 68687, Note_on_c, 0, 74, 71
2, 68732, Note_on_c, 0, 74, 0
2, 68746, Note_on_c, 0, 81, 76
2, 68746, Note_on_c, 0, 78, 40
2, 68753, Note_on_c, 0, 50, 0
2, 68754, Note_on_c, 0, 78, 0
2, 68756, Note_on_c, 0, 54, 0
2, 68770, Note_on_c, 0, 43, 0
2, 68793, Note_on_c, 0, 81, 0
2, 68813, Note_on_c, 0, 81, 68
2, 68854, Note_on_c, 0, 81, 0
2, 68880, Note_on_c, 0, 81, 62
2, 68912, Note_on_c, 0, 81, 0
2, 68964, Note_on_c, 0, 81, 47
2, 68969, Note_on_c, 0, 74, 36
2, 68970, Note_on_c, 0, 78, 31
2, 68970, Note_on_c, 0, 36, 37
2, 68971, Note_on_c, 0, 70, 27
2, 68976, Control_c, 0, 64, 0
2, 68976, Note_on_c, 0, 52, 32
2, 69026, Control_c, 0, 64, 127
2, 69033, Note_on_c, 0, 81, 0
2, 69063, Note_on_c, 0, 81, 50
2, 69064, Note_on_c, 0, 43, 30
2, 69065, Note_on_c, 0, 52, 0
2, 69103, Note_on_c, 0, 81, 0
2, 69139, Note_on_c, 0, 36, 0
2, 69152, Note_on_c, 0, 43, 0
2, 69155, Note_on_c, 0, 81, 46
2, 69167, Note_on_c, 0, 52, 32
2, 69207, Note_on_c, 0, 81, 0
2, 69236, Note_on_c, 0, 52, 0
2, 69249, Note_on_c, 0, 81, 48
2, 69255, Note_on_c, 0, 57, 19
2, 69296, Note_on_c, 0, 81, 0
2, 69350, Note_on_c, 0, 57, 0
2, 69352, Note_on_c, 0, 78, 0
2, 69358, Note_on_c, 0, 81, 50
2, 69377, Note_on_c, 0, 62, 27
2, 69429, Note_on_c, 0, 81, 0
2, 69476, Note_on_c, 0, 81, 43
2, 69487, Note_on_c, 0, 66, 23
2, 69525, Note_on_c, 0, 74, 0
2, 69534, Note_on_c, 0, 70, 0
2, 69554, Note_on_c, 0, 81, 0
2, 69566, Note_on_c, 0, 66, 0
2, 69573, Note_on_c, 0, 62, 0
2, 69599, Note_on_c, 0, 81, 33
2, 69604, Note_on_c, 0, 67, 34
2, 69613, Note_on_c, 0, 74, 24
2, 69615, Note_on_c, 0, 70, 10
2, 69657, Note_on_c, 0, 67, 0
2, 69684, Note_on_c, 0, 70, 0
2, 69695, Note_on_c, 0, 74, 0
2, 69707, Note_on_c, 0, 81, 0
2, 69747, Note_on_c, 0, 81, 35
2, 69755, Note_on_c, 0, 74, 26
2, 69790, Note_on_c, 0, 74, 0
2, 69792, Note_on_c, 0, 81, 0
2, 70055, Note_on_c, 0, 59, 55
2, 70057, Control_c, 0, 64, 0
2, 70059, Note_on_c, 0, 43, 34
2, 70059, Note_on_c, 0, 61, 39
2, 70060, Note_on_c, 0, 50, 37
2, 70060, Note_on_c, 0, 54, 29
2, 70076, Note_on_c, 0, 59, 0
2, 70089, Control_c, 0, 64, 127
2, 70096, Note_on_c, 0, 61, 0
2, 70100, Note_on_c, 0, 59, 26
2, 70111, Note_on_c, 0, 59, 0
2, 70120, Note_on_c, 0, 61, 28
2, 70136, Note_on_c, 0, 61, 0
2, 70142, Note_on_c, 0, 59, 30
2, 70155, Note_on_c, 0, 59, 0
2, 70166, Note_on_c, 0, 61, 23
2, 70177, Note_on_c, 0, 61, 0
2, 70184, Note_on_c, 0, 59, 32
2, 70197, Note_on_c, 0, 59, 0
2, 70207, Note_on_c, 0, 61, 25
2, 70218, Note_on_c, 0, 61, 0
2, 70230, Note_on_c, 0, 59, 30
2, 70240, Note_on_c, 0, 59, 0
2, 70250, Note_on_c, 0, 61, 20
2, 70259, Note_on_c, 0, 61, 0
2, 70267, Note_on_c, 0, 59, 35
2, 70281, Note_on_c, 0, 59, 0
2, 70288, Note_on_c, 0, 61, 34
2, 70301, Note_on_c, 0, 61, 0
2, 70308, Note_on_c, 0, 59, 41
2, 70320, Note_on_c, 0, 59, 0
2, 70323, Note_on_c, 0, 61, 40
2, 70341, Note_on_c, 0, 61, 0
2, 70343, Note_on_c, 0, 59, 55
2, 70358, Note_on_c, 0, 61, 53
2, 70360, Note_on_c, 0, 59, 0
2, 70377, Note_on_c, 0, 59, 53
2, 70378, Note_on_c, 0, 61, 0
2, 70393, Note_on_c, 0, 59, 0
2, 70394, Note_on_c, 0, 61, 49
2, 70413, Note_on_c, 0, 61, 0
2, 70414, Note_on_c, 0, 59, 51
2, 70417, Note_on_c, 0, 43, 0
2, 70420, Note_on_c, 0, 54, 0
2, 70427, Note_on_c, 0, 59, 0
2, 70430, Note_on_c, 0, 61, 44
2, 70436, Note_on_c, 0, 50, 0
2, 70448, Note_on_c, 0, 61, 0
2, 70450, Note_on_c, 0, 59, 48
2, 70463, Note_on_c, 0, 59, 0
2, 70467, Note_on_c, 0, 61, 34
2, 70481, Note_on_c, 0, 61, 0
2, 70485, Note_on_c, 0, 59, 44
2, 70500, Note_on_c, 0, 59, 0
2, 70505, Note_on_c, 0, 61, 32
2, 70520, Note_on_c, 0, 61, 0
2, 70522, Note_on_c, 0, 59, 43
2, 70539, Note_on_c, 0, 59, 0
2, 70542, Note_on_c, 0, 61, 35
2, 70560, Note_on_c, 0, 61, 0
2, 70560, Note_on_c, 0, 59, 46
2, 70576, Note_on_c, 0, 38, 22
2, 70577, Note_on_c, 0, 59, 0
2, 70579, Note_on_c, 0, 61, 34
2, 70588, Control_c, 0, 64, 0
2, 70593, Note_on_c, 0, 61, 0
2, 70598, Note_on_c, 0, 59, 39
2, 70608, Control_c, 0, 64, 127
2, 70613, Note_on_c, 0, 59, 0
2, 70617, Note_on_c, 0, 61, 33
2, 70631, Note_on_c, 0, 61, 0
2, 70634, Note_on_c, 0, 59, 41
2, 70649, Note_on_c, 0, 59, 0
2, 70651, Note_on_c, 0, 38, 0
2, 70654, Note_on_c, 0, 61, 34
2, 70669, Note_on_c, 0, 61, 0
2, 70671, Note_on_c, 0, 59, 38
2, 70687, Note_on_c, 0, 59, 0
2, 70687, Note_on_c, 0, 38, 32
2, 70692, Note_on_c, 0, 61, 27
2, 70706, Note_on_c, 0, 61, 0
2, 70715, Note_on_c, 0, 59, 46
2, 70727, Note_on_c, 0, 59, 0
2, 70735, Note_on_c, 0, 61, 39
2, 70759, Note_on_c, 0, 61, 0
2, 70762, Note_on_c, 0, 59, 30
2, 70790, Note_on_c, 0, 59, 0
2, 70815, Note_on_c, 0, 61, 23
2, 70885, Note_on_c, 0, 31, 17
2, 70899, Note_on_c, 0, 31, 0
2, 70941, Note_on_c, 0, 31, 19
2, 70950, Note_on_c, 0, 31, 0
2, 71033, Note_on_c, 0, 31, 30
2, 71039, Note_on_c, 0, 61, 0
2, 71040, Note_on_c, 0, 54, 15
2, 71046, Note_on_c, 0, 59, 34
2, 71058, Control_c, 0, 64, 0
2, 71126, Control_c, 0, 64, 127
2, 71239, Note_on_c, 0, 54, 0
2, 71240, Note_on_c, 0, 59, 0
2, 71245, Note_on_c, 0, 38, 0
2, 71278, Note_on_c, 0, 31, 0
2, 71770, Control_c, 0, 64, 0
2, 71770, End_track
0, 0, End_of_file
