0, 0, Header, 1, 4, 120
1, 0, Start_track
1, 0, Title_t, "By Myself"
1, 0, Text_t, "Arthur Schwartz and Howard Dietz\012"
1, 0, Text_t, "Doug McKenzie dougmck@pipeline.com.au\012"
1, 0, Text_t, " A 'semi modal'  song.\012"
1, 0, Text_t, "The Form is AAB.\012"
1, 0, Text_t, "The first 8 bars of the A section lend themselves to a single scale  approach (=modal). Several approaches work well:\012"
1, 0, Text_t, "* An  A  phrygian scale. (Over the A chord use the notes of  F major scale. For chords to accompany play an A7b9sus4 chord. (A Bb D E G) or perhaps Bb/A or Em7b5/A - or string together a series of diatonic chords from the   F major scale.\012"
1, 0, Text_t, "*  half tone/whole tone diminished scale. For chords over the A chord play any dominant type chords from this scale (E.g  A13 or  A7#9, or C13  or C7#9 or Eb13 or Eb7#9 or F#13 or F#7b9 - or string together a series of chords from the diminished scale.\012"
1, 0, Text_t, "* Over the A chord play D harmonic minor - beginning on A (A Bb C# D E F G A)  - Accompany with an A7b9 chord or a series of chords from this scale.\012"
1, 0, Text_t, "The first four bars of the B section are E phrygian.  - similar scale options to the above - transposed of course.\012"
1, 0, Text_t, "The next 4 bars of the B section are D phrygian. - similar scale options to the above  - transposed of course.\012"
1, 0, Text_t, "  \012"
1, 0, Time_signature, 4, 2, 24, 8
1, 0, Key_signature, -1, "major"
1, 0, Tempo, 352941
1, 0, Marker_t, "First 8 bars on A7 using the Diminished(Whole/half tone) scale"
1, 1252, Marker_t, "LH plays chords from A dim scale C7#9 (=F#13), Eb7 #9 (= A13), F#7 #9 (=C13) A7 #9 (=Eb13)"
1, 2233, Marker_t, "C13"
1, 23620, Marker_t, "Descending D harmonic minor scale "
1, 24860, Marker_t, "Ascending A 7 dim scale (Whole/half tone) "
1, 25797, Marker_t, "Pattern made from same Dim scale"
1, 31226, Marker_t, "Dim scale pattern"
1, 32160, Marker_t, "Descending Phygian scale (= F major scale) on A7 chord"
1, 33353, Marker_t, "Pattern made from diatonic triads from within the F major scale"
1, 38400, Marker_t, "E phrygian (= Cmaj scale) on E7susb9"
1, 38741, Marker_t, "Just uses Thumb and index finger to play up white notes"
1, 40320, Marker_t, "D phrygian (= BbMajor scale) over D7sus b9"
1, 46361, Marker_t, "Arpeggiated  3note 13th chords from within the A7 dim scale"
1, 47620, Marker_t, "Ascending dim scale again"
1, 51221, Marker_t, "Figure based on Bb triad arpegio with upper diatonic neighbours"
1, 56806, Marker_t, "Another figure using notes from the A7 dim scale - the pattern descends in minor thirds"
1, 58560, Marker_t, "Line based on F triad notes (C, A, F) with lower neighbours"
1, 62400, Marker_t, "On E7sus b9, series of chords from E7 dim scale"
1, 62589, Marker_t, "G/Ab"
1, 62669, Marker_t, "Bb/Cb"
1, 62749, Marker_t, "Db/D"
1, 62823, Marker_t, "E/F"
1, 67969, Marker_t, "Series of chords that have F as a common tone"
1, 68216, Marker_t, "Bm7b5"
1, 68304, Marker_t, "Bbm7"
1, 68404, Marker_t, "Am7 #5"
1, 68486, Marker_t, "Ab13"
1, 68586, Marker_t, "Gm7"
1, 68656, Marker_t, "Gb Maj7 add6"
1, 68831, Marker_t, "F Maj7"
1, 68831, End_track
2, 0, Start_track
2, 0, Title_t, ""
2, 0, Program_c, 0, 4
2, 0, Program_c, 0, 4
2, 6, Note_on_c, 0, 67, 65
2, 9, Note_on_c, 0, 64, 60
2, 10, Note_on_c, 0, 62, 62
2, 10, Note_on_c, 0, 58, 61
2, 286, Control_c, 0, 64, 127
2, 398, Note_on_c, 0, 62, 0
2, 399, Note_on_c, 0, 67, 0
2, 399, Note_on_c, 0, 64, 0
2, 399, Note_on_c, 0, 58, 0
2, 426, Control_c, 0, 64, 0
2, 446, Note_on_c, 0, 55, 71
2, 446, Note_on_c, 0, 67, 70
2, 447, Note_on_c, 0, 58, 70
2, 448, Note_on_c, 0, 62, 55
2, 453, Note_on_c, 0, 64, 32
2, 465, Note_on_c, 0, 64, 0
2, 468, Note_on_c, 0, 62, 0
2, 470, Note_on_c, 0, 58, 0
2, 471, Note_on_c, 0, 67, 0
2, 478, Note_on_c, 0, 55, 0
2, 483, Note_on_c, 0, 53, 55
2, 514, Note_on_c, 0, 53, 0
2, 518, Note_on_c, 0, 67, 67
2, 519, Note_on_c, 0, 62, 57
2, 520, Note_on_c, 0, 58, 57
2, 521, Note_on_c, 0, 55, 65
2, 523, Note_on_c, 0, 64, 46
2, 787, Note_on_c, 0, 67, 0
2, 788, Note_on_c, 0, 64, 0
2, 788, Note_on_c, 0, 58, 0
2, 792, Note_on_c, 0, 62, 0
2, 797, Control_c, 0, 64, 127
2, 798, Note_on_c, 0, 55, 0
2, 802, Note_on_c, 0, 53, 48
2, 808, Note_on_c, 0, 65, 44
2, 817, Note_on_c, 0, 65, 0
2, 829, Control_c, 0, 64, 0
2, 838, Note_on_c, 0, 53, 0
2, 841, Note_on_c, 0, 55, 57
2, 842, Note_on_c, 0, 67, 35
2, 846, Note_on_c, 0, 58, 21
2, 858, Note_on_c, 0, 67, 0
2, 867, Control_c, 0, 64, 127
2, 891, Note_on_c, 0, 58, 0
2, 900, Note_on_c, 0, 55, 0
2, 920, Note_on_c, 0, 57, 83
2, 921, Note_on_c, 0, 58, 77
2, 921, Note_on_c, 0, 69, 81
2, 921, Note_on_c, 0, 64, 71
2, 922, Note_on_c, 0, 61, 71
2, 926, Control_c, 0, 64, 0
2, 956, Note_on_c, 0, 57, 0
2, 957, Note_on_c, 0, 61, 0
2, 958, Note_on_c, 0, 58, 0
2, 958, Note_on_c, 0, 69, 0
2, 960, Note_on_c, 0, 64, 0
2, 1040, Note_on_c, 0, 67, 64
2, 1042, Note_on_c, 0, 61, 56
2, 1042, Note_on_c, 0, 55, 71
2, 1042, Note_on_c, 0, 58, 49
2, 1044, Note_on_c, 0, 64, 46
2, 1065, Note_on_c, 0, 64, 0
2, 1065, Note_on_c, 0, 67, 0
2, 1074, Note_on_c, 0, 58, 0
2, 1074, Note_on_c, 0, 55, 0
2, 1075, Note_on_c, 0, 61, 0
2, 1157, Note_on_c, 0, 64, 49
2, 1158, Note_on_c, 0, 55, 50
2, 1159, Note_on_c, 0, 58, 46
2, 1160, Note_on_c, 0, 61, 42
2, 1160, Note_on_c, 0, 52, 54
2, 1170, Note_on_c, 0, 55, 0
2, 1173, Note_on_c, 0, 52, 0
2, 1176, Note_on_c, 0, 64, 0
2, 1176, Note_on_c, 0, 58, 0
2, 1180, Note_on_c, 0, 61, 0
2, 1280, Note_on_c, 0, 64, 87
2, 1281, Note_on_c, 0, 58, 85
2, 1282, Note_on_c, 0, 69, 99
2, 1337, Control_c, 0, 64, 127
2, 1393, Note_on_c, 0, 64, 0
2, 1418, Note_on_c, 0, 69, 0
2, 1431, Note_on_c, 0, 58, 0
2, 1442, Control_c, 0, 64, 0
2, 1443, Note_on_c, 0, 67, 64
2, 1446, Note_on_c, 0, 62, 69
2, 1446, Note_on_c, 0, 57, 62
2, 1566, Control_c, 0, 64, 127
2, 1638, Control_c, 0, 64, 0
2, 1640, Note_on_c, 0, 81, 42
2, 1650, Note_on_c, 0, 81, 0
2, 1681, Note_on_c, 0, 88, 60
2, 1688, Note_on_c, 0, 88, 0
2, 1719, Note_on_c, 0, 67, 0
2, 1720, Note_on_c, 0, 62, 0
2, 1720, Note_on_c, 0, 93, 99
2, 1722, Note_on_c, 0, 57, 0
2, 1799, Note_on_c, 0, 66, 79
2, 1799, Note_on_c, 0, 61, 72
2, 1800, Note_on_c, 0, 55, 80
2, 1883, Note_on_c, 0, 93, 0
2, 2118, Note_on_c, 0, 55, 0
2, 2121, Note_on_c, 0, 93, 90
2, 2123, Note_on_c, 0, 81, 76
2, 2127, Note_on_c, 0, 61, 0
2, 2132, Note_on_c, 0, 81, 0
2, 2140, Note_on_c, 0, 93, 0
2, 2140, Note_on_c, 0, 66, 0
2, 2248, Note_on_c, 0, 69, 84
2, 2248, Note_on_c, 0, 91, 90
2, 2249, Note_on_c, 0, 64, 77
2, 2249, Note_on_c, 0, 79, 84
2, 2250, Note_on_c, 0, 58, 75
2, 2304, Control_c, 0, 64, 127
2, 2534, Note_on_c, 0, 91, 0
2, 2535, Note_on_c, 0, 79, 0
2, 2535, Note_on_c, 0, 69, 0
2, 2540, Note_on_c, 0, 58, 0
2, 2542, Note_on_c, 0, 64, 0
2, 2596, Note_on_c, 0, 69, 78
2, 2596, Note_on_c, 0, 58, 69
2, 2598, Note_on_c, 0, 64, 65
2, 2600, Note_on_c, 0, 91, 80
2, 2600, Note_on_c, 0, 79, 76
2, 2610, Note_on_c, 0, 69, 0
2, 2613, Note_on_c, 0, 58, 0
2, 2614, Note_on_c, 0, 91, 0
2, 2614, Note_on_c, 0, 79, 0
2, 2616, Note_on_c, 0, 64, 0
2, 2629, Control_c, 0, 64, 0
2, 2640, Note_on_c, 0, 69, 68
2, 2640, Note_on_c, 0, 64, 58
2, 2640, Note_on_c, 0, 58, 59
2, 2642, Note_on_c, 0, 79, 66
2, 2642, Note_on_c, 0, 91, 74
2, 2651, Note_on_c, 0, 69, 0
2, 2654, Note_on_c, 0, 58, 0
2, 2656, Note_on_c, 0, 64, 0
2, 2656, Note_on_c, 0, 79, 0
2, 2656, Note_on_c, 0, 91, 0
2, 2713, Control_c, 0, 64, 127
2, 2719, Note_on_c, 0, 64, 59
2, 2720, Note_on_c, 0, 77, 48
2, 2722, Note_on_c, 0, 89, 47
2, 2723, Note_on_c, 0, 79, 34
2, 2723, Note_on_c, 0, 69, 30
2, 2724, Note_on_c, 0, 91, 36
2, 2727, Note_on_c, 0, 64, 0
2, 2728, Note_on_c, 0, 77, 0
2, 2729, Note_on_c, 0, 89, 0
2, 2730, Note_on_c, 0, 79, 0
2, 2731, Note_on_c, 0, 69, 0
2, 2731, Note_on_c, 0, 91, 0
2, 2741, Control_c, 0, 64, 0
2, 2751, Note_on_c, 0, 64, 64
2, 2752, Note_on_c, 0, 69, 66
2, 2754, Note_on_c, 0, 58, 67
2, 2756, Note_on_c, 0, 79, 67
2, 2756, Note_on_c, 0, 91, 74
2, 2773, Control_c, 0, 64, 127
2, 2777, Note_on_c, 0, 69, 0
2, 2789, Note_on_c, 0, 64, 0
2, 2812, Note_on_c, 0, 79, 0
2, 2814, Note_on_c, 0, 58, 0
2, 2817, Note_on_c, 0, 91, 0
2, 2840, Note_on_c, 0, 66, 91
2, 2841, Note_on_c, 0, 55, 90
2, 2842, Note_on_c, 0, 93, 92
2, 2842, Note_on_c, 0, 61, 71
2, 2842, Note_on_c, 0, 81, 88
2, 2849, Control_c, 0, 64, 0
2, 2898, Control_c, 0, 64, 127
2, 3019, Note_on_c, 0, 55, 0
2, 3030, Note_on_c, 0, 66, 0
2, 3036, Note_on_c, 0, 61, 0
2, 3077, Note_on_c, 0, 62, 87
2, 3078, Note_on_c, 0, 57, 83
2, 3078, Note_on_c, 0, 67, 90
2, 3080, Control_c, 0, 64, 0
2, 3114, Control_c, 0, 64, 127
2, 3169, Note_on_c, 0, 57, 0
2, 3179, Note_on_c, 0, 62, 0
2, 3184, Note_on_c, 0, 67, 0
2, 3236, Control_c, 0, 64, 0
2, 3247, Note_on_c, 0, 66, 78
2, 3248, Note_on_c, 0, 55, 80
2, 3249, Note_on_c, 0, 61, 67
2, 3266, Note_on_c, 0, 93, 0
2, 3274, Note_on_c, 0, 81, 0
2, 3369, Control_c, 0, 64, 127
2, 3383, Note_on_c, 0, 55, 0
2, 3390, Note_on_c, 0, 61, 0
2, 3402, Note_on_c, 0, 66, 0
2, 3439, Note_on_c, 0, 69, 83
2, 3440, Note_on_c, 0, 58, 74
2, 3441, Note_on_c, 0, 64, 79
2, 3453, Control_c, 0, 64, 0
2, 3491, Control_c, 0, 64, 127
2, 3546, Note_on_c, 0, 64, 0
2, 3584, Note_on_c, 0, 69, 0
2, 3596, Note_on_c, 0, 58, 0
2, 3672, Note_on_c, 0, 66, 65
2, 3675, Note_on_c, 0, 55, 63
2, 3675, Note_on_c, 0, 61, 50
2, 3690, Control_c, 0, 64, 0
2, 3716, Control_c, 0, 64, 127
2, 3747, Note_on_c, 0, 66, 0
2, 3751, Note_on_c, 0, 55, 0
2, 3775, Note_on_c, 0, 61, 0
2, 3836, Note_on_c, 0, 81, 50
2, 3837, Note_on_c, 0, 75, 53
2, 3837, Note_on_c, 0, 63, 52
2, 3837, Note_on_c, 0, 69, 45
2, 3839, Note_on_c, 0, 53, 43
2, 3840, Note_on_c, 0, 58, 38
2, 3842, Control_c, 0, 64, 0
2, 3900, Control_c, 0, 64, 127
2, 3960, Note_on_c, 0, 81, 0
2, 3964, Note_on_c, 0, 63, 0
2, 3968, Note_on_c, 0, 75, 0
2, 3977, Note_on_c, 0, 69, 0
2, 4049, Note_on_c, 0, 58, 0
2, 4072, Note_on_c, 0, 53, 0
2, 4172, Note_on_c, 0, 78, 71
2, 4174, Note_on_c, 0, 63, 74
2, 4174, Note_on_c, 0, 69, 87
2, 4174, Note_on_c, 0, 60, 62
2, 4174, Note_on_c, 0, 81, 78
2, 4174, Note_on_c, 0, 58, 39
2, 4174, Note_on_c, 0, 74, 67
2, 4176, Control_c, 0, 64, 0
2, 4176, Note_on_c, 0, 53, 41
2, 4181, Note_on_c, 0, 60, 0
2, 4184, Note_on_c, 0, 69, 0
2, 4185, Note_on_c, 0, 53, 0
2, 4186, Note_on_c, 0, 74, 0
2, 4187, Note_on_c, 0, 63, 0
2, 4188, Note_on_c, 0, 78, 0
2, 4192, Note_on_c, 0, 81, 0
2, 4195, Note_on_c, 0, 58, 0
2, 4234, Control_c, 0, 64, 127
2, 4249, Note_on_c, 0, 63, 69
2, 4250, Note_on_c, 0, 78, 70
2, 4252, Note_on_c, 0, 81, 78
2, 4252, Note_on_c, 0, 74, 66
2, 4253, Note_on_c, 0, 60, 47
2, 4253, Note_on_c, 0, 69, 78
2, 4253, Note_on_c, 0, 58, 38
2, 4259, Note_on_c, 0, 60, 0
2, 4273, Note_on_c, 0, 74, 0
2, 4278, Note_on_c, 0, 69, 0
2, 4278, Note_on_c, 0, 63, 0
2, 4278, Note_on_c, 0, 58, 0
2, 4291, Note_on_c, 0, 81, 0
2, 4295, Note_on_c, 0, 78, 0
2, 4332, Control_c, 0, 64, 0
2, 4332, Note_on_c, 0, 81, 80
2, 4332, Note_on_c, 0, 75, 81
2, 4333, Note_on_c, 0, 70, 75
2, 4333, Note_on_c, 0, 58, 77
2, 4334, Note_on_c, 0, 63, 71
2, 4335, Note_on_c, 0, 67, 71
2, 4382, Control_c, 0, 64, 127
2, 4458, Note_on_c, 0, 67, 0
2, 4470, Note_on_c, 0, 70, 0
2, 4492, Note_on_c, 0, 58, 0
2, 4500, Note_on_c, 0, 81, 0
2, 4510, Note_on_c, 0, 63, 0
2, 4514, Note_on_c, 0, 75, 0
2, 4572, Note_on_c, 0, 63, 75
2, 4573, Control_c, 0, 64, 0
2, 4574, Note_on_c, 0, 79, 72
2, 4574, Note_on_c, 0, 75, 77
2, 4574, Note_on_c, 0, 67, 69
2, 4574, Note_on_c, 0, 57, 73
2, 4576, Note_on_c, 0, 69, 74
2, 4588, Note_on_c, 0, 67, 0
2, 4593, Note_on_c, 0, 57, 0
2, 4596, Note_on_c, 0, 69, 0
2, 4605, Note_on_c, 0, 63, 0
2, 4605, Note_on_c, 0, 75, 0
2, 4608, Note_on_c, 0, 79, 0
2, 4694, Note_on_c, 0, 66, 71
2, 4695, Note_on_c, 0, 63, 59
2, 4697, Note_on_c, 0, 61, 49
2, 4697, Note_on_c, 0, 57, 61
2, 4697, Note_on_c, 0, 75, 74
2, 4697, Note_on_c, 0, 81, 73
2, 4699, Note_on_c, 0, 69, 76
2, 4727, Note_on_c, 0, 69, 0
2, 4732, Note_on_c, 0, 57, 0
2, 4734, Note_on_c, 0, 66, 0
2, 4737, Note_on_c, 0, 75, 0
2, 4739, Note_on_c, 0, 81, 0
2, 4743, Note_on_c, 0, 63, 0
2, 4745, Note_on_c, 0, 61, 0
2, 4819, Note_on_c, 0, 62, 64
2, 4821, Note_on_c, 0, 65, 74
2, 4822, Note_on_c, 0, 60, 60
2, 4822, Note_on_c, 0, 55, 66
2, 4823, Note_on_c, 0, 84, 83
2, 4824, Note_on_c, 0, 74, 74
2, 4824, Note_on_c, 0, 77, 76
2, 4896, Control_c, 0, 64, 127
2, 4944, Note_on_c, 0, 84, 0
2, 4950, Note_on_c, 0, 77, 0
2, 4954, Note_on_c, 0, 74, 0
2, 4964, Note_on_c, 0, 65, 0
2, 4973, Note_on_c, 0, 62, 0
2, 4973, Note_on_c, 0, 60, 0
2, 4974, Note_on_c, 0, 55, 0
2, 5004, Control_c, 0, 64, 0
2, 5012, Note_on_c, 0, 73, 77
2, 5013, Note_on_c, 0, 62, 71
2, 5013, Note_on_c, 0, 65, 79
2, 5014, Note_on_c, 0, 55, 75
2, 5014, Note_on_c, 0, 69, 71
2, 5015, Note_on_c, 0, 77, 58
2, 5015, Note_on_c, 0, 81, 68
2, 5015, Note_on_c, 0, 60, 68
2, 5022, Note_on_c, 0, 79, 35
2, 5044, Note_on_c, 0, 65, 0
2, 5047, Note_on_c, 0, 73, 0
2, 5047, Note_on_c, 0, 74, 47
2, 5051, Note_on_c, 0, 55, 0
2, 5055, Note_on_c, 0, 62, 0
2, 5055, Note_on_c, 0, 60, 0
2, 5057, Note_on_c, 0, 69, 0
2, 5063, Note_on_c, 0, 81, 0
2, 5063, Note_on_c, 0, 79, 0
2, 5066, Note_on_c, 0, 77, 0
2, 5068, Note_on_c, 0, 74, 0
2, 5084, Note_on_c, 0, 79, 52
2, 5085, Note_on_c, 0, 55, 59
2, 5085, Note_on_c, 0, 65, 68
2, 5085, Note_on_c, 0, 62, 45
2, 5086, Note_on_c, 0, 74, 53
2, 5087, Note_on_c, 0, 60, 59
2, 5089, Note_on_c, 0, 67, 48
2, 5128, Note_on_c, 0, 67, 0
2, 5128, Note_on_c, 0, 65, 0
2, 5129, Note_on_c, 0, 74, 0
2, 5130, Note_on_c, 0, 62, 0
2, 5133, Note_on_c, 0, 79, 0
2, 5134, Note_on_c, 0, 55, 0
2, 5135, Note_on_c, 0, 60, 0
2, 5260, Note_on_c, 0, 72, 71
2, 5260, Note_on_c, 0, 65, 80
2, 5262, Note_on_c, 0, 61, 80
2, 5263, Note_on_c, 0, 69, 62
2, 5264, Note_on_c, 0, 60, 62
2, 5264, Note_on_c, 0, 59, 66
2, 5285, Note_on_c, 0, 59, 0
2, 5288, Note_on_c, 0, 60, 0
2, 5297, Note_on_c, 0, 72, 0
2, 5298, Note_on_c, 0, 69, 0
2, 5304, Note_on_c, 0, 65, 0
2, 5305, Note_on_c, 0, 61, 0
2, 5377, Note_on_c, 0, 39, 60
2, 5382, Note_on_c, 0, 46, 33
2, 5386, Note_on_c, 0, 38, 35
2, 5394, Note_on_c, 0, 38, 0
2, 5403, Note_on_c, 0, 46, 0
2, 5403, Note_on_c, 0, 39, 0
2, 5494, Note_on_c, 0, 54, 47
2, 5501, Note_on_c, 0, 61, 81
2, 5501, Note_on_c, 0, 55, 77
2, 5502, Note_on_c, 0, 69, 77
2, 5502, Note_on_c, 0, 65, 70
2, 5505, Note_on_c, 0, 54, 0
2, 5608, Control_c, 0, 64, 127
2, 5612, Note_on_c, 0, 55, 0
2, 5619, Note_on_c, 0, 51, 64
2, 5636, Note_on_c, 0, 51, 0
2, 5650, Control_c, 0, 64, 0
2, 5651, Note_on_c, 0, 69, 0
2, 5656, Note_on_c, 0, 54, 72
2, 5657, Note_on_c, 0, 44, 67
2, 5660, Note_on_c, 0, 61, 0
2, 5676, Note_on_c, 0, 65, 0
2, 5714, Control_c, 0, 64, 127
2, 5718, Note_on_c, 0, 54, 0
2, 5729, Note_on_c, 0, 44, 0
2, 5730, Control_c, 0, 64, 0
2, 5736, Note_on_c, 0, 70, 64
2, 5737, Note_on_c, 0, 43, 66
2, 5739, Note_on_c, 0, 53, 63
2, 5739, Note_on_c, 0, 58, 61
2, 5740, Note_on_c, 0, 62, 68
2, 5784, Note_on_c, 0, 43, 0
2, 5788, Control_c, 0, 64, 127
2, 5969, Note_on_c, 0, 53, 0
2, 5979, Note_on_c, 0, 58, 0
2, 5982, Note_on_c, 0, 62, 0
2, 5984, Note_on_c, 0, 54, 27
2, 5986, Note_on_c, 0, 70, 0
2, 6000, Note_on_c, 0, 54, 0
2, 6010, Note_on_c, 0, 57, 77
2, 6011, Control_c, 0, 64, 0
2, 6011, Note_on_c, 0, 70, 74
2, 6011, Note_on_c, 0, 58, 75
2, 6013, Note_on_c, 0, 62, 57
2, 6016, Note_on_c, 0, 65, 65
2, 6049, Note_on_c, 0, 65, 0
2, 6056, Note_on_c, 0, 58, 0
2, 6056, Note_on_c, 0, 62, 0
2, 6063, Note_on_c, 0, 70, 0
2, 6064, Note_on_c, 0, 57, 0
2, 6130, Note_on_c, 0, 55, 71
2, 6131, Note_on_c, 0, 69, 75
2, 6132, Note_on_c, 0, 62, 71
2, 6133, Note_on_c, 0, 58, 63
2, 6172, Note_on_c, 0, 55, 0
2, 6174, Note_on_c, 0, 58, 0
2, 6177, Note_on_c, 0, 62, 0
2, 6181, Note_on_c, 0, 69, 0
2, 6249, Note_on_c, 0, 48, 64
2, 6251, Note_on_c, 0, 62, 58
2, 6251, Note_on_c, 0, 55, 59
2, 6252, Note_on_c, 0, 58, 53
2, 6255, Note_on_c, 0, 65, 55
2, 6268, Control_c, 0, 64, 127
2, 6310, Note_on_c, 0, 58, 0
2, 6324, Note_on_c, 0, 65, 0
2, 6325, Note_on_c, 0, 62, 0
2, 6329, Note_on_c, 0, 55, 0
2, 6332, Note_on_c, 0, 57, 62
2, 6333, Note_on_c, 0, 62, 30
2, 6333, Note_on_c, 0, 58, 62
2, 6334, Note_on_c, 0, 67, 57
2, 6355, Note_on_c, 0, 62, 0
2, 6355, Note_on_c, 0, 57, 0
2, 6356, Note_on_c, 0, 58, 0
2, 6360, Control_c, 0, 64, 0
2, 6362, Note_on_c, 0, 67, 0
2, 6370, Note_on_c, 0, 55, 35
2, 6402, Control_c, 0, 64, 127
2, 6416, Note_on_c, 0, 48, 0
2, 6440, Note_on_c, 0, 55, 0
2, 6449, Note_on_c, 0, 61, 72
2, 6449, Note_on_c, 0, 48, 62
2, 6450, Note_on_c, 0, 69, 65
2, 6450, Note_on_c, 0, 64, 68
2, 6452, Note_on_c, 0, 58, 70
2, 6454, Control_c, 0, 64, 0
2, 6458, Note_on_c, 0, 48, 0
2, 6465, Note_on_c, 0, 61, 0
2, 6468, Note_on_c, 0, 58, 0
2, 6470, Note_on_c, 0, 64, 0
2, 6477, Note_on_c, 0, 69, 0
2, 6509, Control_c, 0, 64, 127
2, 6564, Note_on_c, 0, 73, 87
2, 6564, Note_on_c, 0, 81, 80
2, 6564, Note_on_c, 0, 76, 72
2, 6565, Note_on_c, 0, 58, 81
2, 6566, Note_on_c, 0, 69, 89
2, 6567, Control_c, 0, 64, 0
2, 6567, Note_on_c, 0, 64, 90
2, 6570, Note_on_c, 0, 79, 49
2, 6601, Control_c, 0, 64, 127
2, 6630, Note_on_c, 0, 81, 0
2, 6637, Note_on_c, 0, 64, 0
2, 6637, Note_on_c, 0, 76, 0
2, 6638, Note_on_c, 0, 79, 0
2, 6647, Note_on_c, 0, 73, 0
2, 6653, Note_on_c, 0, 69, 0
2, 6683, Note_on_c, 0, 56, 47
2, 6702, Note_on_c, 0, 58, 0
2, 6716, Note_on_c, 0, 56, 0
2, 6719, Note_on_c, 0, 72, 62
2, 6720, Note_on_c, 0, 67, 63
2, 6720, Note_on_c, 0, 62, 65
2, 6720, Note_on_c, 0, 57, 67
2, 6725, Control_c, 0, 64, 0
2, 6790, Note_on_c, 0, 62, 0
2, 6790, Note_on_c, 0, 72, 0
2, 6793, Note_on_c, 0, 67, 0
2, 6803, Note_on_c, 0, 57, 0
2, 6811, Note_on_c, 0, 56, 46
2, 6837, Note_on_c, 0, 57, 78
2, 6837, Note_on_c, 0, 72, 76
2, 6838, Note_on_c, 0, 62, 79
2, 6839, Note_on_c, 0, 67, 63
2, 6845, Note_on_c, 0, 56, 0
2, 6886, Note_on_c, 0, 67, 0
2, 6890, Note_on_c, 0, 62, 0
2, 6897, Note_on_c, 0, 72, 0
2, 6914, Control_c, 0, 64, 127
2, 6920, Note_on_c, 0, 57, 0
2, 6925, Note_on_c, 0, 56, 38
2, 6932, Control_c, 0, 64, 0
2, 6952, Note_on_c, 0, 56, 0
2, 6954, Note_on_c, 0, 72, 66
2, 6954, Note_on_c, 0, 62, 69
2, 6954, Note_on_c, 0, 57, 60
2, 6955, Note_on_c, 0, 67, 64
2, 6969, Control_c, 0, 64, 127
2, 6981, Note_on_c, 0, 57, 0
2, 7003, Note_on_c, 0, 72, 0
2, 7005, Note_on_c, 0, 67, 0
2, 7016, Note_on_c, 0, 62, 0
2, 7054, Note_on_c, 0, 49, 23
2, 7067, Note_on_c, 0, 67, 63
2, 7068, Note_on_c, 0, 49, 0
2, 7068, Note_on_c, 0, 51, 42
2, 7069, Note_on_c, 0, 52, 65
2, 7070, Note_on_c, 0, 57, 73
2, 7070, Note_on_c, 0, 62, 61
2, 7071, Control_c, 0, 64, 0
2, 7075, Note_on_c, 0, 51, 0
2, 7154, Note_on_c, 0, 62, 0
2, 7155, Note_on_c, 0, 57, 0
2, 7158, Note_on_c, 0, 52, 0
2, 7159, Note_on_c, 0, 67, 0
2, 7160, Note_on_c, 0, 51, 39
2, 7184, Note_on_c, 0, 51, 0
2, 7189, Note_on_c, 0, 67, 49
2, 7190, Note_on_c, 0, 52, 63
2, 7192, Note_on_c, 0, 57, 56
2, 7192, Note_on_c, 0, 62, 60
2, 7270, Note_on_c, 0, 62, 0
2, 7270, Note_on_c, 0, 57, 0
2, 7270, Note_on_c, 0, 52, 0
2, 7272, Note_on_c, 0, 67, 0
2, 7274, Note_on_c, 0, 51, 48
2, 7298, Note_on_c, 0, 51, 0
2, 7308, Note_on_c, 0, 67, 58
2, 7310, Note_on_c, 0, 57, 58
2, 7310, Note_on_c, 0, 52, 50
2, 7311, Note_on_c, 0, 62, 53
2, 7331, Control_c, 0, 64, 127
2, 7383, Note_on_c, 0, 52, 0
2, 7394, Note_on_c, 0, 41, 82
2, 7399, Control_c, 0, 64, 0
2, 7472, Control_c, 0, 64, 127
2, 7551, Note_on_c, 0, 41, 0
2, 7592, Note_on_c, 0, 57, 0
2, 7640, Note_on_c, 0, 62, 0
2, 7652, Note_on_c, 0, 67, 0
2, 7678, Control_c, 0, 64, 0
2, 7681, Note_on_c, 0, 52, 105
2, 7681, Note_on_c, 0, 45, 101
2, 7732, Control_c, 0, 64, 127
2, 7767, Note_on_c, 0, 45, 0
2, 7775, Note_on_c, 0, 52, 0
2, 8000, Note_on_c, 0, 64, 72
2, 8000, Note_on_c, 0, 69, 80
2, 8000, Note_on_c, 0, 58, 71
2, 8005, Control_c, 0, 64, 0
2, 8033, Control_c, 0, 64, 127
2, 8258, Note_on_c, 0, 88, 105
2, 8269, Note_on_c, 0, 88, 0
2, 8280, Control_c, 0, 64, 0
2, 8361, Note_on_c, 0, 88, 108
2, 8392, Control_c, 0, 64, 127
2, 8526, Note_on_c, 0, 69, 0
2, 8535, Note_on_c, 0, 64, 0
2, 8535, Note_on_c, 0, 58, 0
2, 8564, Note_on_c, 0, 88, 0
2, 8569, Note_on_c, 0, 86, 35
2, 8581, Note_on_c, 0, 86, 0
2, 8605, Note_on_c, 0, 88, 55
2, 8623, Note_on_c, 0, 88, 0
2, 8633, Control_c, 0, 64, 0
2, 8642, Note_on_c, 0, 45, 83
2, 8646, Note_on_c, 0, 93, 90
2, 8673, Note_on_c, 0, 45, 0
2, 8673, Control_c, 0, 64, 127
2, 8840, Note_on_c, 0, 61, 73
2, 8840, Note_on_c, 0, 55, 80
2, 8841, Note_on_c, 0, 66, 77
2, 8853, Control_c, 0, 64, 0
2, 8912, Control_c, 0, 64, 127
2, 8944, Note_on_c, 0, 93, 0
2, 8965, Note_on_c, 0, 91, 81
2, 8970, Control_c, 0, 64, 0
2, 8999, Note_on_c, 0, 91, 0
2, 9034, Note_on_c, 0, 88, 80
2, 9060, Control_c, 0, 64, 127
2, 9079, Note_on_c, 0, 88, 0
2, 9094, Note_on_c, 0, 55, 0
2, 9098, Control_c, 0, 64, 0
2, 9102, Note_on_c, 0, 61, 0
2, 9108, Note_on_c, 0, 66, 0
2, 9198, Note_on_c, 0, 64, 72
2, 9198, Note_on_c, 0, 69, 84
2, 9199, Note_on_c, 0, 58, 74
2, 9211, Note_on_c, 0, 69, 0
2, 9218, Note_on_c, 0, 64, 0
2, 9221, Note_on_c, 0, 58, 0
2, 9288, Control_c, 0, 64, 127
2, 9326, Note_on_c, 0, 50, 40
2, 9334, Note_on_c, 0, 50, 0
2, 9359, Control_c, 0, 64, 0
2, 9365, Note_on_c, 0, 61, 83
2, 9365, Note_on_c, 0, 66, 77
2, 9366, Note_on_c, 0, 55, 84
2, 9525, Control_c, 0, 64, 127
2, 9559, Control_c, 0, 64, 0
2, 9583, Control_c, 0, 64, 127
2, 9617, Note_on_c, 0, 55, 0
2, 9690, Note_on_c, 0, 61, 0
2, 9712, Note_on_c, 0, 66, 0
2, 9770, Control_c, 0, 64, 0
2, 9775, Note_on_c, 0, 52, 64
2, 9775, Note_on_c, 0, 58, 68
2, 9777, Note_on_c, 0, 63, 71
2, 9800, Control_c, 0, 64, 127
2, 9810, Note_on_c, 0, 52, 0
2, 9825, Note_on_c, 0, 58, 0
2, 9826, Note_on_c, 0, 63, 0
2, 9841, Control_c, 0, 64, 0
2, 9847, Note_on_c, 0, 54, 64
2, 9853, Note_on_c, 0, 66, 69
2, 9854, Note_on_c, 0, 61, 49
2, 9860, Note_on_c, 0, 54, 0
2, 9862, Control_c, 0, 64, 127
2, 9864, Note_on_c, 0, 55, 60
2, 9883, Note_on_c, 0, 55, 0
2, 9890, Note_on_c, 0, 61, 0
2, 9894, Note_on_c, 0, 66, 0
2, 9927, Note_on_c, 0, 69, 82
2, 9927, Note_on_c, 0, 58, 74
2, 9927, Note_on_c, 0, 64, 69
2, 9934, Control_c, 0, 64, 0
2, 9940, Note_on_c, 0, 69, 0
2, 9946, Note_on_c, 0, 58, 0
2, 9950, Note_on_c, 0, 64, 0
2, 10045, Note_on_c, 0, 72, 81
2, 10045, Note_on_c, 0, 84, 88
2, 10058, Note_on_c, 0, 84, 0
2, 10058, Note_on_c, 0, 72, 0
2, 10131, Control_c, 0, 64, 127
2, 10155, Control_c, 0, 64, 0
2, 10162, Note_on_c, 0, 81, 81
2, 10164, Note_on_c, 0, 69, 80
2, 10167, Note_on_c, 0, 63, 61
2, 10170, Note_on_c, 0, 58, 42
2, 10177, Note_on_c, 0, 58, 0
2, 10178, Note_on_c, 0, 63, 0
2, 10211, Control_c, 0, 64, 127
2, 10282, Note_on_c, 0, 81, 0
2, 10286, Note_on_c, 0, 63, 29
2, 10288, Note_on_c, 0, 58, 36
2, 10292, Note_on_c, 0, 63, 0
2, 10294, Note_on_c, 0, 69, 0
2, 10296, Note_on_c, 0, 58, 0
2, 10314, Control_c, 0, 64, 0
2, 10321, Note_on_c, 0, 79, 81
2, 10324, Note_on_c, 0, 67, 82
2, 10370, Control_c, 0, 64, 127
2, 10376, Note_on_c, 0, 67, 0
2, 10380, Note_on_c, 0, 79, 0
2, 10405, Note_on_c, 0, 63, 47
2, 10405, Note_on_c, 0, 77, 34
2, 10406, Note_on_c, 0, 65, 45
2, 10409, Note_on_c, 0, 58, 37
2, 10412, Note_on_c, 0, 63, 0
2, 10413, Note_on_c, 0, 65, 0
2, 10414, Note_on_c, 0, 77, 0
2, 10417, Note_on_c, 0, 58, 0
2, 10422, Control_c, 0, 64, 0
2, 10442, Note_on_c, 0, 79, 69
2, 10442, Note_on_c, 0, 67, 66
2, 10454, Control_c, 0, 64, 127
2, 10486, Note_on_c, 0, 67, 0
2, 10495, Note_on_c, 0, 79, 0
2, 10527, Note_on_c, 0, 81, 80
2, 10527, Note_on_c, 0, 66, 76
2, 10528, Note_on_c, 0, 55, 78
2, 10528, Note_on_c, 0, 61, 64
2, 10528, Note_on_c, 0, 77, 71
2, 10529, Note_on_c, 0, 69, 80
2, 10538, Control_c, 0, 64, 0
2, 10556, Note_on_c, 0, 69, 0
2, 10570, Note_on_c, 0, 77, 0
2, 10571, Note_on_c, 0, 81, 0
2, 10571, Note_on_c, 0, 69, 38
2, 10578, Note_on_c, 0, 61, 0
2, 10582, Note_on_c, 0, 66, 0
2, 10582, Control_c, 0, 64, 127
2, 10595, Note_on_c, 0, 81, 19
2, 10597, Note_on_c, 0, 69, 0
2, 10603, Note_on_c, 0, 77, 33
2, 10618, Note_on_c, 0, 77, 0
2, 10618, Note_on_c, 0, 61, 33
2, 10618, Note_on_c, 0, 69, 47
2, 10621, Note_on_c, 0, 81, 0
2, 10624, Note_on_c, 0, 66, 34
2, 10641, Note_on_c, 0, 81, 25
2, 10647, Note_on_c, 0, 69, 0
2, 10647, Note_on_c, 0, 77, 45
2, 10656, Note_on_c, 0, 77, 0
2, 10657, Note_on_c, 0, 66, 0
2, 10658, Note_on_c, 0, 81, 0
2, 10659, Note_on_c, 0, 55, 0
2, 10661, Note_on_c, 0, 61, 0
2, 10672, Control_c, 0, 64, 0
2, 10762, Note_on_c, 0, 66, 55
2, 10762, Note_on_c, 0, 61, 55
2, 10762, Note_on_c, 0, 55, 49
2, 10769, Note_on_c, 0, 66, 0
2, 10771, Note_on_c, 0, 55, 0
2, 10777, Note_on_c, 0, 61, 0
2, 10832, Note_on_c, 0, 67, 65
2, 10832, Note_on_c, 0, 62, 64
2, 10835, Note_on_c, 0, 56, 49
2, 10878, Note_on_c, 0, 67, 0
2, 10881, Note_on_c, 0, 62, 0
2, 10892, Note_on_c, 0, 56, 0
2, 10919, Note_on_c, 0, 66, 65
2, 10921, Note_on_c, 0, 55, 68
2, 10921, Note_on_c, 0, 61, 55
2, 11010, Note_on_c, 0, 89, 89
2, 11010, Note_on_c, 0, 77, 87
2, 11104, Control_c, 0, 64, 127
2, 11192, Note_on_c, 0, 55, 0
2, 11200, Note_on_c, 0, 61, 0
2, 11205, Note_on_c, 0, 66, 0
2, 11238, Note_on_c, 0, 66, 59
2, 11240, Note_on_c, 0, 61, 55
2, 11242, Note_on_c, 0, 55, 48
2, 11248, Note_on_c, 0, 66, 0
2, 11248, Control_c, 0, 64, 0
2, 11249, Note_on_c, 0, 55, 0
2, 11253, Note_on_c, 0, 61, 0
2, 11332, Note_on_c, 0, 89, 0
2, 11362, Note_on_c, 0, 88, 87
2, 11366, Note_on_c, 0, 61, 59
2, 11381, Note_on_c, 0, 61, 0
2, 11381, Note_on_c, 0, 77, 0
2, 11407, Note_on_c, 0, 88, 0
2, 11426, Note_on_c, 0, 87, 51
2, 11481, Note_on_c, 0, 87, 0
2, 11491, Note_on_c, 0, 82, 69
2, 11492, Note_on_c, 0, 63, 55
2, 11493, Note_on_c, 0, 58, 43
2, 11502, Note_on_c, 0, 53, 29
2, 11530, Note_on_c, 0, 82, 0
2, 11547, Note_on_c, 0, 81, 48
2, 11602, Note_on_c, 0, 81, 0
2, 11636, Note_on_c, 0, 53, 0
2, 11642, Note_on_c, 0, 81, 79
2, 11788, Note_on_c, 0, 58, 0
2, 11796, Note_on_c, 0, 63, 0
2, 11839, Note_on_c, 0, 81, 0
2, 11851, Note_on_c, 0, 80, 45
2, 11860, Note_on_c, 0, 63, 38
2, 11864, Note_on_c, 0, 58, 33
2, 11869, Note_on_c, 0, 63, 0
2, 11879, Note_on_c, 0, 80, 0
2, 11884, Note_on_c, 0, 58, 0
2, 11892, Note_on_c, 0, 81, 63
2, 11953, Note_on_c, 0, 81, 0
2, 11972, Note_on_c, 0, 58, 67
2, 11972, Note_on_c, 0, 81, 77
2, 11973, Note_on_c, 0, 63, 62
2, 11974, Note_on_c, 0, 67, 60
2, 12122, Note_on_c, 0, 81, 0
2, 12130, Note_on_c, 0, 80, 57
2, 12172, Note_on_c, 0, 67, 0
2, 12196, Note_on_c, 0, 63, 0
2, 12201, Note_on_c, 0, 58, 0
2, 12201, Control_c, 0, 64, 127
2, 12202, Note_on_c, 0, 80, 0
2, 12216, Note_on_c, 0, 81, 63
2, 12239, Note_on_c, 0, 81, 0
2, 12245, Control_c, 0, 64, 0
2, 12251, Note_on_c, 0, 63, 73
2, 12251, Note_on_c, 0, 57, 79
2, 12252, Note_on_c, 0, 67, 74
2, 12253, Note_on_c, 0, 84, 90
2, 12254, Note_on_c, 0, 72, 88
2, 12307, Control_c, 0, 64, 127
2, 12325, Note_on_c, 0, 67, 0
2, 12336, Note_on_c, 0, 72, 0
2, 12338, Note_on_c, 0, 84, 0
2, 12338, Note_on_c, 0, 57, 0
2, 12349, Note_on_c, 0, 63, 0
2, 12359, Control_c, 0, 64, 0
2, 12371, Note_on_c, 0, 63, 46
2, 12374, Note_on_c, 0, 61, 49
2, 12375, Note_on_c, 0, 66, 51
2, 12375, Note_on_c, 0, 56, 49
2, 12383, Note_on_c, 0, 82, 36
2, 12434, Note_on_c, 0, 66, 0
2, 12438, Control_c, 0, 64, 127
2, 12441, Note_on_c, 0, 56, 0
2, 12441, Note_on_c, 0, 82, 0
2, 12444, Note_on_c, 0, 63, 0
2, 12445, Note_on_c, 0, 61, 0
2, 12458, Note_on_c, 0, 62, 46
2, 12460, Note_on_c, 0, 65, 68
2, 12460, Note_on_c, 0, 84, 82
2, 12462, Control_c, 0, 64, 0
2, 12462, Note_on_c, 0, 60, 41
2, 12462, Note_on_c, 0, 55, 62
2, 12463, Note_on_c, 0, 72, 74
2, 12502, Control_c, 0, 64, 127
2, 12537, Note_on_c, 0, 84, 0
2, 12554, Note_on_c, 0, 60, 0
2, 12566, Note_on_c, 0, 62, 0
2, 12567, Note_on_c, 0, 72, 0
2, 12569, Note_on_c, 0, 65, 0
2, 12576, Note_on_c, 0, 55, 0
2, 12614, Note_on_c, 0, 73, 79
2, 12616, Note_on_c, 0, 69, 80
2, 12617, Note_on_c, 0, 62, 60
2, 12617, Note_on_c, 0, 81, 65
2, 12619, Note_on_c, 0, 65, 71
2, 12620, Control_c, 0, 64, 0
2, 12620, Note_on_c, 0, 77, 52
2, 12620, Note_on_c, 0, 55, 60
2, 12621, Note_on_c, 0, 60, 59
2, 12646, Note_on_c, 0, 73, 0
2, 12650, Note_on_c, 0, 74, 24
2, 12692, Control_c, 0, 64, 127
2, 12696, Note_on_c, 0, 74, 0
2, 12702, Note_on_c, 0, 65, 0
2, 12705, Note_on_c, 0, 60, 0
2, 12707, Note_on_c, 0, 62, 0
2, 12707, Note_on_c, 0, 55, 0
2, 12708, Note_on_c, 0, 69, 0
2, 12708, Note_on_c, 0, 81, 0
2, 12709, Note_on_c, 0, 77, 0
2, 12736, Control_c, 0, 64, 0
2, 12740, Note_on_c, 0, 79, 68
2, 12742, Note_on_c, 0, 62, 54
2, 12743, Note_on_c, 0, 65, 66
2, 12743, Note_on_c, 0, 67, 60
2, 12744, Note_on_c, 0, 55, 58
2, 12745, Note_on_c, 0, 60, 57
2, 12745, Note_on_c, 0, 72, 53
2, 12767, Note_on_c, 0, 72, 0
2, 12789, Note_on_c, 0, 72, 15
2, 12857, Control_c, 0, 64, 127
2, 12860, Note_on_c, 0, 67, 0
2, 12868, Note_on_c, 0, 65, 0
2, 12869, Note_on_c, 0, 72, 0
2, 12872, Note_on_c, 0, 62, 0
2, 12874, Note_on_c, 0, 55, 0
2, 12876, Note_on_c, 0, 60, 0
2, 12878, Note_on_c, 0, 79, 0
2, 12938, Note_on_c, 0, 84, 95
2, 12939, Note_on_c, 0, 60, 81
2, 12940, Note_on_c, 0, 61, 79
2, 12940, Note_on_c, 0, 77, 94
2, 12940, Note_on_c, 0, 55, 87
2, 12940, Note_on_c, 0, 65, 94
2, 12947, Control_c, 0, 64, 0
2, 12989, Control_c, 0, 64, 127
2, 13034, Note_on_c, 0, 55, 0
2, 13035, Note_on_c, 0, 65, 0
2, 13040, Note_on_c, 0, 77, 0
2, 13044, Note_on_c, 0, 61, 0
2, 13044, Note_on_c, 0, 60, 0
2, 13050, Note_on_c, 0, 84, 0
2, 13058, Note_on_c, 0, 81, 71
2, 13061, Note_on_c, 0, 61, 64
2, 13062, Note_on_c, 0, 60, 61
2, 13062, Note_on_c, 0, 55, 65
2, 13062, Note_on_c, 0, 65, 74
2, 13064, Note_on_c, 0, 72, 66
2, 13070, Note_on_c, 0, 83, 31
2, 13106, Note_on_c, 0, 81, 0
2, 13107, Note_on_c, 0, 83, 0
2, 13122, Note_on_c, 0, 72, 0
2, 13128, Note_on_c, 0, 65, 0
2, 13135, Note_on_c, 0, 55, 0
2, 13138, Note_on_c, 0, 60, 0
2, 13140, Note_on_c, 0, 61, 0
2, 13176, Note_on_c, 0, 77, 63
2, 13179, Note_on_c, 0, 61, 57
2, 13179, Note_on_c, 0, 72, 59
2, 13179, Note_on_c, 0, 65, 73
2, 13179, Note_on_c, 0, 69, 53
2, 13180, Note_on_c, 0, 60, 58
2, 13181, Note_on_c, 0, 55, 60
2, 13182, Control_c, 0, 64, 0
2, 13212, Control_c, 0, 64, 127
2, 13221, Note_on_c, 0, 72, 0
2, 13222, Note_on_c, 0, 77, 0
2, 13227, Note_on_c, 0, 69, 0
2, 13227, Note_on_c, 0, 65, 0
2, 13243, Note_on_c, 0, 60, 0
2, 13246, Note_on_c, 0, 55, 0
2, 13249, Note_on_c, 0, 61, 0
2, 13295, Note_on_c, 0, 61, 60
2, 13296, Note_on_c, 0, 72, 57
2, 13298, Note_on_c, 0, 64, 48
2, 13298, Note_on_c, 0, 69, 64
2, 13298, Control_c, 0, 64, 0
2, 13299, Note_on_c, 0, 55, 55
2, 13314, Note_on_c, 0, 64, 0
2, 13328, Note_on_c, 0, 61, 0
2, 13330, Control_c, 0, 64, 127
2, 13334, Note_on_c, 0, 55, 0
2, 13334, Note_on_c, 0, 69, 0
2, 13338, Note_on_c, 0, 72, 0
2, 13348, Note_on_c, 0, 64, 25
2, 13397, Note_on_c, 0, 64, 0
2, 13409, Note_on_c, 0, 54, 63
2, 13415, Note_on_c, 0, 70, 84
2, 13415, Note_on_c, 0, 65, 85
2, 13416, Note_on_c, 0, 60, 87
2, 13418, Note_on_c, 0, 54, 0
2, 13419, Note_on_c, 0, 55, 84
2, 13426, Control_c, 0, 64, 0
2, 13551, Note_on_c, 0, 60, 0
2, 13557, Note_on_c, 0, 70, 0
2, 13566, Note_on_c, 0, 55, 0
2, 13568, Note_on_c, 0, 54, 56
2, 13570, Note_on_c, 0, 60, 22
2, 13572, Note_on_c, 0, 69, 43
2, 13605, Note_on_c, 0, 65, 0
2, 13612, Note_on_c, 0, 60, 0
2, 13628, Note_on_c, 0, 69, 0
2, 13633, Control_c, 0, 64, 127
2, 13647, Note_on_c, 0, 70, 60
2, 13652, Note_on_c, 0, 60, 53
2, 13652, Note_on_c, 0, 55, 65
2, 13661, Note_on_c, 0, 54, 0
2, 13666, Note_on_c, 0, 60, 0
2, 13668, Note_on_c, 0, 70, 0
2, 13670, Note_on_c, 0, 55, 0
2, 13689, Control_c, 0, 64, 0
2, 13693, Note_on_c, 0, 65, 57
2, 13693, Note_on_c, 0, 50, 52
2, 13716, Note_on_c, 0, 58, 2
2, 13746, Note_on_c, 0, 58, 0
2, 13756, Note_on_c, 0, 65, 0
2, 13758, Note_on_c, 0, 50, 0
2, 13766, Note_on_c, 0, 58, 55
2, 13766, Note_on_c, 0, 52, 64
2, 13766, Note_on_c, 0, 67, 55
2, 13768, Note_on_c, 0, 62, 51
2, 13773, Note_on_c, 0, 52, 0
2, 13775, Note_on_c, 0, 62, 0
2, 13777, Note_on_c, 0, 58, 0
2, 13778, Note_on_c, 0, 67, 0
2, 13843, Control_c, 0, 64, 127
2, 13881, Note_on_c, 0, 69, 80
2, 13884, Note_on_c, 0, 58, 75
2, 13884, Note_on_c, 0, 61, 74
2, 13886, Control_c, 0, 64, 0
2, 13886, Note_on_c, 0, 64, 69
2, 13886, Note_on_c, 0, 57, 71
2, 13978, Control_c, 0, 64, 127
2, 14001, Note_on_c, 0, 64, 0
2, 14011, Note_on_c, 0, 58, 0
2, 14018, Note_on_c, 0, 61, 0
2, 14020, Note_on_c, 0, 69, 0
2, 14024, Control_c, 0, 64, 0
2, 14035, Note_on_c, 0, 58, 49
2, 14038, Note_on_c, 0, 57, 0
2, 14038, Note_on_c, 0, 61, 30
2, 14039, Note_on_c, 0, 48, 51
2, 14040, Note_on_c, 0, 64, 47
2, 14072, Note_on_c, 0, 58, 0
2, 14076, Control_c, 0, 64, 127
2, 14082, Note_on_c, 0, 61, 0
2, 14083, Note_on_c, 0, 64, 0
2, 14116, Note_on_c, 0, 48, 0
2, 14158, Control_c, 0, 64, 0
2, 14162, Note_on_c, 0, 58, 77
2, 14163, Note_on_c, 0, 73, 84
2, 14164, Note_on_c, 0, 69, 99
2, 14164, Note_on_c, 0, 76, 70
2, 14164, Note_on_c, 0, 81, 81
2, 14164, Note_on_c, 0, 64, 81
2, 14165, Note_on_c, 0, 79, 79
2, 14223, Note_on_c, 0, 81, 0
2, 14223, Note_on_c, 0, 69, 0
2, 14224, Note_on_c, 0, 73, 0
2, 14225, Note_on_c, 0, 64, 0
2, 14227, Note_on_c, 0, 79, 0
2, 14227, Note_on_c, 0, 76, 0
2, 14228, Note_on_c, 0, 58, 0
2, 14241, Note_on_c, 0, 73, 64
2, 14241, Note_on_c, 0, 81, 67
2, 14242, Note_on_c, 0, 69, 71
2, 14242, Note_on_c, 0, 64, 78
2, 14242, Note_on_c, 0, 58, 85
2, 14242, Note_on_c, 0, 76, 69
2, 14245, Note_on_c, 0, 79, 43
2, 14262, Note_on_c, 0, 64, 0
2, 14266, Note_on_c, 0, 69, 0
2, 14266, Note_on_c, 0, 79, 0
2, 14269, Note_on_c, 0, 76, 0
2, 14269, Note_on_c, 0, 73, 0
2, 14270, Note_on_c, 0, 81, 0
2, 14271, Note_on_c, 0, 58, 0
2, 14285, Note_on_c, 0, 81, 37
2, 14287, Note_on_c, 0, 73, 43
2, 14287, Note_on_c, 0, 64, 55
2, 14287, Note_on_c, 0, 58, 72
2, 14288, Note_on_c, 0, 69, 49
2, 14289, Note_on_c, 0, 76, 35
2, 14293, Control_c, 0, 64, 127
2, 14320, Note_on_c, 0, 81, 0
2, 14334, Note_on_c, 0, 76, 0
2, 14336, Note_on_c, 0, 69, 0
2, 14338, Note_on_c, 0, 64, 0
2, 14346, Note_on_c, 0, 73, 0
2, 14355, Note_on_c, 0, 58, 0
2, 14483, Note_on_c, 0, 62, 81
2, 14484, Note_on_c, 0, 84, 87
2, 14484, Note_on_c, 0, 67, 77
2, 14484, Note_on_c, 0, 74, 82
2, 14484, Note_on_c, 0, 79, 80
2, 14491, Note_on_c, 0, 79, 0
2, 14492, Note_on_c, 0, 67, 0
2, 14492, Control_c, 0, 64, 0
2, 14496, Note_on_c, 0, 74, 0
2, 14496, Note_on_c, 0, 84, 0
2, 14498, Note_on_c, 0, 62, 0
2, 14560, Control_c, 0, 64, 127
2, 14602, Note_on_c, 0, 72, 69
2, 14602, Note_on_c, 0, 57, 73
2, 14602, Control_c, 0, 64, 0
2, 14603, Note_on_c, 0, 67, 68
2, 14604, Note_on_c, 0, 62, 69
2, 14606, Note_on_c, 0, 56, 44
2, 14613, Note_on_c, 0, 56, 0
2, 14704, Control_c, 0, 64, 127
2, 14713, Note_on_c, 0, 62, 0
2, 14723, Note_on_c, 0, 67, 0
2, 14726, Note_on_c, 0, 72, 0
2, 14730, Control_c, 0, 64, 0
2, 14753, Note_on_c, 0, 57, 0
2, 14757, Note_on_c, 0, 56, 46
2, 14760, Note_on_c, 0, 66, 53
2, 14761, Note_on_c, 0, 71, 28
2, 14762, Note_on_c, 0, 61, 50
2, 14784, Control_c, 0, 64, 127
2, 14816, Note_on_c, 0, 61, 0
2, 14822, Note_on_c, 0, 66, 0
2, 14826, Note_on_c, 0, 71, 0
2, 14846, Note_on_c, 0, 62, 67
2, 14846, Note_on_c, 0, 72, 65
2, 14848, Note_on_c, 0, 67, 55
2, 14849, Note_on_c, 0, 57, 60
2, 14853, Note_on_c, 0, 56, 0
2, 14853, Control_c, 0, 64, 0
2, 14858, Note_on_c, 0, 57, 0
2, 14866, Note_on_c, 0, 67, 0
2, 14869, Note_on_c, 0, 72, 0
2, 14871, Note_on_c, 0, 62, 0
2, 14932, Note_on_c, 0, 67, 50
2, 14934, Note_on_c, 0, 62, 55
2, 14935, Note_on_c, 0, 57, 56
2, 14939, Note_on_c, 0, 52, 60
2, 14946, Note_on_c, 0, 57, 0
2, 14953, Note_on_c, 0, 62, 0
2, 14956, Note_on_c, 0, 67, 0
2, 14959, Note_on_c, 0, 52, 0
2, 14976, Note_on_c, 0, 51, 57
2, 15005, Note_on_c, 0, 51, 0
2, 15010, Note_on_c, 0, 52, 66
2, 15010, Note_on_c, 0, 67, 58
2, 15010, Note_on_c, 0, 57, 62
2, 15010, Note_on_c, 0, 62, 60
2, 15059, Control_c, 0, 64, 127
2, 15088, Note_on_c, 0, 52, 0
2, 15091, Control_c, 0, 64, 0
2, 15092, Note_on_c, 0, 57, 0
2, 15095, Note_on_c, 0, 41, 73
2, 15107, Note_on_c, 0, 62, 0
2, 15147, Note_on_c, 0, 67, 0
2, 15152, Control_c, 0, 64, 127
2, 15206, Note_on_c, 0, 57, 68
2, 15207, Note_on_c, 0, 48, 50
2, 15209, Note_on_c, 0, 41, 0
2, 15215, Note_on_c, 0, 46, 21
2, 15225, Note_on_c, 0, 46, 0
2, 15225, Note_on_c, 0, 48, 0
2, 15228, Note_on_c, 0, 57, 0
2, 15344, Note_on_c, 0, 62, 46
2, 15352, Note_on_c, 0, 62, 0
2, 15361, Note_on_c, 0, 74, 65
2, 15363, Note_on_c, 0, 64, 57
2, 15364, Note_on_c, 0, 71, 60
2, 15365, Note_on_c, 0, 65, 65
2, 15366, Note_on_c, 0, 69, 68
2, 15366, Control_c, 0, 64, 0
2, 15448, Note_on_c, 0, 65, 0
2, 15451, Note_on_c, 0, 69, 0
2, 15455, Note_on_c, 0, 64, 0
2, 15455, Note_on_c, 0, 62, 52
2, 15456, Note_on_c, 0, 74, 0
2, 15457, Note_on_c, 0, 71, 0
2, 15472, Note_on_c, 0, 62, 0
2, 15480, Note_on_c, 0, 74, 55
2, 15482, Note_on_c, 0, 65, 75
2, 15482, Note_on_c, 0, 71, 54
2, 15483, Note_on_c, 0, 69, 71
2, 15484, Note_on_c, 0, 64, 68
2, 15591, Control_c, 0, 64, 127
2, 15681, Note_on_c, 0, 52, 67
2, 15693, Control_c, 0, 64, 0
2, 15716, Note_on_c, 0, 64, 0
2, 15729, Control_c, 0, 64, 127
2, 15818, Note_on_c, 0, 65, 0
2, 15840, Note_on_c, 0, 69, 0
2, 15850, Note_on_c, 0, 74, 0
2, 15865, Note_on_c, 0, 71, 0
2, 15918, Control_c, 0, 64, 0
2, 15927, Note_on_c, 0, 74, 80
2, 15927, Note_on_c, 0, 69, 94
2, 15928, Note_on_c, 0, 71, 82
2, 15928, Note_on_c, 0, 65, 99
2, 15931, Note_on_c, 0, 64, 89
2, 15956, Control_c, 0, 64, 127
2, 15958, Note_on_c, 0, 65, 0
2, 15981, Note_on_c, 0, 65, 11
2, 16053, Note_on_c, 0, 65, 0
2, 16057, Note_on_c, 0, 64, 0
2, 16060, Note_on_c, 0, 69, 0
2, 16070, Note_on_c, 0, 71, 0
2, 16071, Note_on_c, 0, 74, 0
2, 16084, Control_c, 0, 64, 0
2, 16087, Note_on_c, 0, 72, 63
2, 16088, Note_on_c, 0, 69, 66
2, 16089, Note_on_c, 0, 65, 64
2, 16089, Note_on_c, 0, 62, 53
2, 16130, Note_on_c, 0, 65, 0
2, 16132, Note_on_c, 0, 62, 0
2, 16133, Note_on_c, 0, 69, 0
2, 16145, Note_on_c, 0, 72, 0
2, 16214, Note_on_c, 0, 64, 69
2, 16214, Note_on_c, 0, 74, 66
2, 16215, Note_on_c, 0, 71, 64
2, 16215, Note_on_c, 0, 65, 76
2, 16215, Note_on_c, 0, 69, 74
2, 16249, Note_on_c, 0, 65, 0
2, 16249, Note_on_c, 0, 64, 0
2, 16258, Note_on_c, 0, 69, 0
2, 16260, Note_on_c, 0, 71, 0
2, 16262, Note_on_c, 0, 74, 0
2, 16295, Control_c, 0, 64, 127
2, 16309, Control_c, 0, 64, 0
2, 16328, Note_on_c, 0, 76, 87
2, 16328, Note_on_c, 0, 62, 72
2, 16328, Note_on_c, 0, 67, 95
2, 16328, Note_on_c, 0, 72, 89
2, 16333, Note_on_c, 0, 56, 39
2, 16334, Note_on_c, 0, 55, 74
2, 16350, Note_on_c, 0, 56, 0
2, 16351, Note_on_c, 0, 55, 0
2, 16357, Control_c, 0, 64, 127
2, 16371, Note_on_c, 0, 72, 0
2, 16372, Note_on_c, 0, 62, 0
2, 16375, Note_on_c, 0, 76, 0
2, 16382, Note_on_c, 0, 56, 49
2, 16391, Note_on_c, 0, 67, 0
2, 16392, Note_on_c, 0, 76, 40
2, 16394, Note_on_c, 0, 72, 50
2, 16400, Note_on_c, 0, 62, 34
2, 16412, Note_on_c, 0, 67, 52
2, 16414, Note_on_c, 0, 72, 0
2, 16416, Note_on_c, 0, 76, 0
2, 16416, Note_on_c, 0, 56, 0
2, 16430, Note_on_c, 0, 62, 0
2, 16435, Note_on_c, 0, 67, 0
2, 16435, Note_on_c, 0, 76, 35
2, 16440, Note_on_c, 0, 72, 48
2, 16440, Note_on_c, 0, 56, 44
2, 16458, Note_on_c, 0, 76, 0
2, 16458, Note_on_c, 0, 67, 50
2, 16458, Note_on_c, 0, 62, 34
2, 16459, Note_on_c, 0, 72, 0
2, 16465, Note_on_c, 0, 56, 0
2, 16481, Note_on_c, 0, 76, 30
2, 16485, Note_on_c, 0, 72, 48
2, 16488, Note_on_c, 0, 67, 0
2, 16507, Note_on_c, 0, 62, 0
2, 16513, Note_on_c, 0, 56, 46
2, 16517, Note_on_c, 0, 72, 0
2, 16517, Note_on_c, 0, 67, 31
2, 16533, Note_on_c, 0, 72, 30
2, 16535, Control_c, 0, 64, 0
2, 16540, Note_on_c, 0, 67, 0
2, 16542, Note_on_c, 0, 72, 0
2, 16544, Note_on_c, 0, 76, 0
2, 16561, Note_on_c, 0, 74, 62
2, 16561, Note_on_c, 0, 62, 55
2, 16562, Note_on_c, 0, 65, 80
2, 16565, Note_on_c, 0, 71, 54
2, 16580, Note_on_c, 0, 65, 0
2, 16595, Note_on_c, 0, 71, 0
2, 16600, Note_on_c, 0, 74, 0
2, 16603, Note_on_c, 0, 62, 0
2, 16606, Note_on_c, 0, 52, 0
2, 16611, Note_on_c, 0, 56, 0
2, 16794, Note_on_c, 0, 62, 80
2, 16794, Note_on_c, 0, 56, 80
2, 16795, Note_on_c, 0, 67, 89
2, 16796, Note_on_c, 0, 88, 94
2, 16796, Note_on_c, 0, 84, 91
2, 16796, Note_on_c, 0, 79, 95
2, 16832, Note_on_c, 0, 79, 0
2, 16832, Note_on_c, 0, 67, 0
2, 16836, Note_on_c, 0, 84, 0
2, 16836, Note_on_c, 0, 62, 0
2, 16840, Note_on_c, 0, 88, 0
2, 16841, Note_on_c, 0, 56, 0
2, 16879, Note_on_c, 0, 57, 78
2, 16880, Note_on_c, 0, 68, 80
2, 16880, Note_on_c, 0, 89, 81
2, 16880, Note_on_c, 0, 63, 70
2, 16880, Note_on_c, 0, 80, 83
2, 16881, Note_on_c, 0, 85, 83
2, 16912, Note_on_c, 0, 57, 0
2, 16920, Note_on_c, 0, 68, 0
2, 16920, Note_on_c, 0, 89, 0
2, 16923, Note_on_c, 0, 85, 0
2, 16926, Note_on_c, 0, 80, 0
2, 16926, Note_on_c, 0, 63, 0
2, 16947, Note_on_c, 0, 67, 64
2, 16948, Note_on_c, 0, 62, 64
2, 16950, Note_on_c, 0, 56, 53
2, 16950, Note_on_c, 0, 88, 72
2, 16952, Note_on_c, 0, 79, 64
2, 16953, Note_on_c, 0, 84, 70
2, 16992, Note_on_c, 0, 84, 0
2, 16994, Note_on_c, 0, 88, 0
2, 17002, Note_on_c, 0, 79, 0
2, 17003, Note_on_c, 0, 56, 0
2, 17003, Note_on_c, 0, 67, 0
2, 17004, Note_on_c, 0, 62, 0
2, 17032, Note_on_c, 0, 86, 71
2, 17034, Note_on_c, 0, 77, 57
2, 17034, Note_on_c, 0, 62, 50
2, 17034, Note_on_c, 0, 56, 65
2, 17036, Note_on_c, 0, 67, 53
2, 17039, Note_on_c, 0, 83, 49
2, 17068, Note_on_c, 0, 83, 0
2, 17074, Note_on_c, 0, 77, 0
2, 17084, Note_on_c, 0, 67, 0
2, 17085, Note_on_c, 0, 86, 0
2, 17088, Note_on_c, 0, 56, 0
2, 17090, Note_on_c, 0, 62, 0
2, 17114, Note_on_c, 0, 79, 39
2, 17114, Note_on_c, 0, 74, 46
2, 17116, Note_on_c, 0, 62, 53
2, 17116, Note_on_c, 0, 83, 46
2, 17117, Note_on_c, 0, 56, 59
2, 17118, Note_on_c, 0, 67, 57
2, 17125, Note_on_c, 0, 79, 0
2, 17126, Note_on_c, 0, 83, 0
2, 17129, Note_on_c, 0, 67, 0
2, 17130, Note_on_c, 0, 74, 0
2, 17138, Note_on_c, 0, 62, 0
2, 17146, Note_on_c, 0, 56, 0
2, 17243, Note_on_c, 0, 63, 93
2, 17243, Note_on_c, 0, 67, 81
2, 17243, Note_on_c, 0, 72, 72
2, 17244, Note_on_c, 0, 69, 82
2, 17359, Note_on_c, 0, 62, 82
2, 17398, Note_on_c, 0, 62, 0
2, 17402, Note_on_c, 0, 61, 65
2, 17440, Note_on_c, 0, 61, 0
2, 17524, Note_on_c, 0, 60, 79
2, 17586, Control_c, 0, 64, 127
2, 17595, Note_on_c, 0, 67, 0
2, 17604, Note_on_c, 0, 50, 36
2, 17606, Note_on_c, 0, 63, 0
2, 17618, Note_on_c, 0, 60, 0
2, 17642, Note_on_c, 0, 63, 38
2, 17644, Note_on_c, 0, 67, 35
2, 17645, Note_on_c, 0, 69, 0
2, 17647, Note_on_c, 0, 60, 43
2, 17660, Note_on_c, 0, 50, 0
2, 17668, Note_on_c, 0, 60, 0
2, 17686, Note_on_c, 0, 67, 0
2, 17690, Note_on_c, 0, 63, 0
2, 17701, Note_on_c, 0, 72, 0
2, 17725, Note_on_c, 0, 67, 69
2, 17726, Note_on_c, 0, 60, 65
2, 17726, Note_on_c, 0, 63, 61
2, 17726, Note_on_c, 0, 72, 45
2, 17729, Note_on_c, 0, 69, 62
2, 17732, Note_on_c, 0, 50, 32
2, 17733, Note_on_c, 0, 60, 0
2, 17733, Control_c, 0, 64, 0
2, 17734, Note_on_c, 0, 63, 0
2, 17736, Note_on_c, 0, 72, 0
2, 17737, Note_on_c, 0, 69, 0
2, 17739, Note_on_c, 0, 67, 0
2, 17740, Note_on_c, 0, 50, 0
2, 17815, Control_c, 0, 64, 127
2, 17841, Control_c, 0, 64, 0
2, 17842, Note_on_c, 0, 60, 80
2, 17843, Note_on_c, 0, 61, 70
2, 17844, Note_on_c, 0, 55, 80
2, 17844, Note_on_c, 0, 65, 80
2, 17848, Note_on_c, 0, 58, 35
2, 17869, Note_on_c, 0, 65, 0
2, 17878, Note_on_c, 0, 60, 0
2, 17881, Note_on_c, 0, 61, 0
2, 17883, Note_on_c, 0, 55, 0
2, 17886, Note_on_c, 0, 58, 0
2, 17925, Note_on_c, 0, 61, 43
2, 17932, Note_on_c, 0, 61, 0
2, 17961, Note_on_c, 0, 62, 80
2, 17962, Note_on_c, 0, 57, 72
2, 17962, Note_on_c, 0, 63, 77
2, 17963, Note_on_c, 0, 67, 85
2, 18053, Control_c, 0, 64, 127
2, 18185, Note_on_c, 0, 67, 0
2, 18206, Note_on_c, 0, 62, 0
2, 18280, Note_on_c, 0, 63, 0
2, 18297, Note_on_c, 0, 71, 60
2, 18313, Note_on_c, 0, 71, 0
2, 18325, Note_on_c, 0, 57, 0
2, 18334, Note_on_c, 0, 72, 74
2, 18355, Note_on_c, 0, 72, 0
2, 18361, Control_c, 0, 64, 0
2, 18375, Note_on_c, 0, 74, 82
2, 18437, Control_c, 0, 64, 127
2, 18446, Note_on_c, 0, 70, 63
2, 18447, Control_c, 0, 64, 0
2, 18448, Note_on_c, 0, 66, 55
2, 18451, Note_on_c, 0, 65, 67
2, 18452, Note_on_c, 0, 60, 53
2, 18455, Note_on_c, 0, 58, 37
2, 18456, Note_on_c, 0, 54, 37
2, 18463, Note_on_c, 0, 60, 0
2, 18464, Note_on_c, 0, 65, 0
2, 18466, Note_on_c, 0, 58, 0
2, 18475, Note_on_c, 0, 54, 0
2, 18564, Note_on_c, 0, 54, 55
2, 18564, Note_on_c, 0, 65, 70
2, 18566, Note_on_c, 0, 60, 53
2, 18576, Note_on_c, 0, 65, 0
2, 18581, Note_on_c, 0, 60, 0
2, 18585, Note_on_c, 0, 54, 0
2, 18637, Control_c, 0, 64, 127
2, 18662, Note_on_c, 0, 66, 0
2, 18673, Note_on_c, 0, 70, 0
2, 18676, Note_on_c, 0, 66, 49
2, 18678, Control_c, 0, 64, 0
2, 18679, Note_on_c, 0, 60, 57
2, 18680, Note_on_c, 0, 54, 43
2, 18681, Note_on_c, 0, 50, 47
2, 18682, Note_on_c, 0, 69, 62
2, 18710, Control_c, 0, 64, 127
2, 18712, Note_on_c, 0, 50, 0
2, 18720, Note_on_c, 0, 54, 0
2, 18728, Note_on_c, 0, 60, 0
2, 18735, Note_on_c, 0, 69, 0
2, 18748, Note_on_c, 0, 66, 0
2, 18760, Note_on_c, 0, 74, 0
2, 18797, Note_on_c, 0, 54, 88
2, 18798, Note_on_c, 0, 77, 87
2, 18798, Note_on_c, 0, 65, 89
2, 18798, Note_on_c, 0, 72, 89
2, 18798, Note_on_c, 0, 60, 74
2, 18804, Control_c, 0, 64, 0
2, 18840, Control_c, 0, 64, 127
2, 18894, Note_on_c, 0, 65, 0
2, 18932, Note_on_c, 0, 77, 0
2, 18938, Note_on_c, 0, 72, 0
2, 18958, Note_on_c, 0, 64, 59
2, 18959, Note_on_c, 0, 66, 55
2, 18959, Note_on_c, 0, 75, 60
2, 18960, Note_on_c, 0, 72, 47
2, 18976, Note_on_c, 0, 64, 0
2, 18980, Note_on_c, 0, 60, 0
2, 18998, Note_on_c, 0, 72, 0
2, 19000, Note_on_c, 0, 54, 0
2, 19009, Note_on_c, 0, 75, 0
2, 19009, Note_on_c, 0, 66, 0
2, 19042, Note_on_c, 0, 54, 53
2, 19061, Note_on_c, 0, 54, 0
2, 19073, Note_on_c, 0, 72, 71
2, 19075, Note_on_c, 0, 67, 74
2, 19075, Control_c, 0, 64, 0
2, 19076, Note_on_c, 0, 62, 71
2, 19076, Note_on_c, 0, 56, 82
2, 19109, Control_c, 0, 64, 127
2, 19141, Note_on_c, 0, 67, 0
2, 19154, Note_on_c, 0, 62, 0
2, 19158, Note_on_c, 0, 72, 0
2, 19164, Note_on_c, 0, 51, 25
2, 19164, Note_on_c, 0, 54, 59
2, 19166, Note_on_c, 0, 56, 0
2, 19198, Note_on_c, 0, 51, 0
2, 19198, Control_c, 0, 64, 0
2, 19200, Note_on_c, 0, 54, 0
2, 19200, Note_on_c, 0, 70, 75
2, 19200, Note_on_c, 0, 62, 73
2, 19202, Note_on_c, 0, 55, 77
2, 19202, Note_on_c, 0, 65, 70
2, 19252, Control_c, 0, 64, 127
2, 19377, Note_on_c, 0, 62, 0
2, 19392, Note_on_c, 0, 65, 0
2, 19404, Note_on_c, 0, 70, 0
2, 19416, Note_on_c, 0, 55, 0
2, 19448, Control_c, 0, 64, 0
2, 19449, Note_on_c, 0, 70, 65
2, 19452, Note_on_c, 0, 62, 56
2, 19452, Note_on_c, 0, 55, 58
2, 19453, Note_on_c, 0, 65, 66
2, 19508, Control_c, 0, 64, 127
2, 19516, Note_on_c, 0, 62, 0
2, 19521, Note_on_c, 0, 70, 0
2, 19522, Note_on_c, 0, 65, 0
2, 19534, Note_on_c, 0, 55, 0
2, 19540, Note_on_c, 0, 54, 37
2, 19540, Note_on_c, 0, 69, 27
2, 19554, Note_on_c, 0, 69, 0
2, 19562, Control_c, 0, 64, 0
2, 19569, Note_on_c, 0, 54, 0
2, 19575, Note_on_c, 0, 70, 54
2, 19576, Note_on_c, 0, 55, 64
2, 19578, Note_on_c, 0, 62, 41
2, 19590, Control_c, 0, 64, 127
2, 19616, Note_on_c, 0, 62, 0
2, 19628, Note_on_c, 0, 70, 0
2, 19650, Note_on_c, 0, 55, 0
2, 19660, Note_on_c, 0, 70, 74
2, 19662, Note_on_c, 0, 65, 80
2, 19663, Control_c, 0, 64, 0
2, 19663, Note_on_c, 0, 61, 71
2, 19664, Note_on_c, 0, 51, 68
2, 19689, Control_c, 0, 64, 127
2, 19691, Note_on_c, 0, 51, 0
2, 19691, Note_on_c, 0, 61, 0
2, 19697, Note_on_c, 0, 65, 0
2, 19709, Note_on_c, 0, 70, 0
2, 19782, Note_on_c, 0, 82, 87
2, 19782, Note_on_c, 0, 61, 74
2, 19782, Note_on_c, 0, 55, 83
2, 19784, Note_on_c, 0, 65, 80
2, 19785, Note_on_c, 0, 70, 87
2, 19788, Note_on_c, 0, 75, 65
2, 19799, Control_c, 0, 64, 0
2, 19831, Control_c, 0, 64, 127
2, 19856, Note_on_c, 0, 55, 0
2, 19871, Note_on_c, 0, 65, 0
2, 19871, Note_on_c, 0, 61, 0
2, 19875, Note_on_c, 0, 70, 0
2, 19877, Note_on_c, 0, 75, 0
2, 19885, Note_on_c, 0, 82, 0
2, 19939, Note_on_c, 0, 55, 66
2, 19943, Note_on_c, 0, 61, 74
2, 19945, Note_on_c, 0, 81, 83
2, 19945, Note_on_c, 0, 69, 88
2, 19946, Note_on_c, 0, 77, 70
2, 19946, Note_on_c, 0, 65, 95
2, 19948, Control_c, 0, 64, 0
2, 19948, Note_on_c, 0, 74, 64
2, 19949, Note_on_c, 0, 72, 67
2, 19955, Note_on_c, 0, 79, 30
2, 19989, Note_on_c, 0, 74, 0
2, 19997, Note_on_c, 0, 72, 0
2, 20000, Note_on_c, 0, 79, 0
2, 20000, Note_on_c, 0, 69, 0
2, 20000, Control_c, 0, 64, 127
2, 20002, Note_on_c, 0, 65, 0
2, 20003, Note_on_c, 0, 55, 0
2, 20010, Note_on_c, 0, 81, 0
2, 20014, Note_on_c, 0, 61, 0
2, 20016, Note_on_c, 0, 77, 0
2, 20030, Control_c, 0, 64, 0
2, 20035, Note_on_c, 0, 77, 61
2, 20036, Note_on_c, 0, 81, 75
2, 20037, Note_on_c, 0, 73, 61
2, 20037, Note_on_c, 0, 72, 73
2, 20039, Note_on_c, 0, 69, 74
2, 20039, Note_on_c, 0, 55, 78
2, 20040, Note_on_c, 0, 61, 74
2, 20041, Note_on_c, 0, 65, 76
2, 20043, Note_on_c, 0, 79, 46
2, 20050, Note_on_c, 0, 79, 0
2, 20062, Note_on_c, 0, 65, 0
2, 20064, Control_c, 0, 64, 127
2, 20066, Note_on_c, 0, 72, 0
2, 20068, Note_on_c, 0, 81, 0
2, 20070, Note_on_c, 0, 69, 0
2, 20070, Note_on_c, 0, 55, 0
2, 20073, Note_on_c, 0, 73, 0
2, 20075, Note_on_c, 0, 77, 0
2, 20081, Note_on_c, 0, 61, 0
2, 20109, Note_on_c, 0, 61, 73
2, 20109, Note_on_c, 0, 80, 56
2, 20110, Note_on_c, 0, 72, 65
2, 20110, Note_on_c, 0, 68, 60
2, 20111, Note_on_c, 0, 55, 73
2, 20116, Note_on_c, 0, 72, 0
2, 20124, Note_on_c, 0, 68, 0
2, 20124, Note_on_c, 0, 61, 0
2, 20129, Note_on_c, 0, 55, 0
2, 20132, Note_on_c, 0, 80, 0
2, 20180, Control_c, 0, 64, 0
2, 20183, Note_on_c, 0, 84, 82
2, 20183, Note_on_c, 0, 48, 73
2, 20184, Note_on_c, 0, 57, 80
2, 20184, Note_on_c, 0, 77, 71
2, 20184, Note_on_c, 0, 72, 77
2, 20186, Note_on_c, 0, 81, 67
2, 20232, Control_c, 0, 64, 127
2, 20274, Note_on_c, 0, 84, 0
2, 20278, Note_on_c, 0, 81, 0
2, 20288, Note_on_c, 0, 77, 0
2, 20289, Note_on_c, 0, 72, 0
2, 20342, Note_on_c, 0, 57, 0
2, 20342, Note_on_c, 0, 48, 0
2, 20405, Control_c, 0, 64, 0
2, 20406, Note_on_c, 0, 49, 76
2, 20406, Note_on_c, 0, 57, 74
2, 20406, Note_on_c, 0, 81, 84
2, 20407, Note_on_c, 0, 73, 77
2, 20407, Note_on_c, 0, 69, 84
2, 20407, Note_on_c, 0, 76, 66
2, 20414, Note_on_c, 0, 71, 25
2, 20421, Note_on_c, 0, 71, 0
2, 20467, Note_on_c, 0, 69, 0
2, 20468, Note_on_c, 0, 49, 0
2, 20473, Note_on_c, 0, 73, 0
2, 20474, Note_on_c, 0, 81, 0
2, 20476, Control_c, 0, 64, 127
2, 20477, Note_on_c, 0, 76, 0
2, 20486, Note_on_c, 0, 81, 25
2, 20487, Note_on_c, 0, 49, 56
2, 20488, Note_on_c, 0, 69, 50
2, 20490, Note_on_c, 0, 73, 54
2, 20492, Note_on_c, 0, 76, 62
2, 20496, Note_on_c, 0, 79, 19
2, 20504, Control_c, 0, 64, 0
2, 20505, Note_on_c, 0, 81, 0
2, 20506, Note_on_c, 0, 57, 0
2, 20506, Note_on_c, 0, 79, 0
2, 20508, Note_on_c, 0, 49, 0
2, 20509, Note_on_c, 0, 69, 0
2, 20515, Note_on_c, 0, 73, 0
2, 20518, Note_on_c, 0, 76, 0
2, 20525, Note_on_c, 0, 79, 22
2, 20526, Note_on_c, 0, 49, 51
2, 20529, Note_on_c, 0, 57, 46
2, 20532, Note_on_c, 0, 67, 35
2, 20532, Note_on_c, 0, 73, 33
2, 20544, Control_c, 0, 64, 127
2, 20546, Note_on_c, 0, 67, 0
2, 20570, Note_on_c, 0, 79, 0
2, 20577, Note_on_c, 0, 73, 0
2, 20583, Note_on_c, 0, 49, 0
2, 20587, Note_on_c, 0, 57, 0
2, 20605, Note_on_c, 0, 77, 61
2, 20608, Note_on_c, 0, 50, 61
2, 20608, Note_on_c, 0, 72, 69
2, 20610, Note_on_c, 0, 65, 73
2, 20612, Control_c, 0, 64, 0
2, 20633, Note_on_c, 0, 77, 0
2, 20634, Note_on_c, 0, 72, 0
2, 20636, Note_on_c, 0, 65, 0
2, 20652, Control_c, 0, 64, 127
2, 20724, Note_on_c, 0, 79, 75
2, 20726, Note_on_c, 0, 69, 80
2, 20728, Note_on_c, 0, 72, 66
2, 20730, Note_on_c, 0, 60, 74
2, 20736, Control_c, 0, 64, 0
2, 20754, Note_on_c, 0, 72, 0
2, 20754, Note_on_c, 0, 69, 0
2, 20759, Note_on_c, 0, 79, 0
2, 20768, Note_on_c, 0, 50, 0
2, 20773, Note_on_c, 0, 77, 38
2, 20785, Note_on_c, 0, 60, 0
2, 20804, Control_c, 0, 64, 127
2, 20813, Note_on_c, 0, 77, 0
2, 20843, Note_on_c, 0, 77, 67
2, 20844, Note_on_c, 0, 74, 57
2, 20844, Note_on_c, 0, 70, 68
2, 20845, Note_on_c, 0, 60, 66
2, 20846, Note_on_c, 0, 58, 62
2, 20846, Note_on_c, 0, 65, 76
2, 20847, Note_on_c, 0, 54, 63
2, 20848, Control_c, 0, 64, 0
2, 20849, Note_on_c, 0, 76, 40
2, 20871, Note_on_c, 0, 74, 0
2, 20875, Note_on_c, 0, 77, 0
2, 20878, Note_on_c, 0, 76, 0
2, 20880, Note_on_c, 0, 60, 0
2, 20880, Note_on_c, 0, 70, 0
2, 20881, Note_on_c, 0, 65, 0
2, 20887, Note_on_c, 0, 58, 0
2, 20889, Control_c, 0, 64, 127
2, 20893, Note_on_c, 0, 54, 0
2, 20907, Control_c, 0, 64, 0
2, 20916, Note_on_c, 0, 54, 76
2, 20918, Note_on_c, 0, 74, 33
2, 20919, Note_on_c, 0, 70, 59
2, 20921, Note_on_c, 0, 65, 66
2, 20923, Note_on_c, 0, 72, 33
2, 20929, Control_c, 0, 64, 127
2, 20935, Note_on_c, 0, 70, 0
2, 20936, Note_on_c, 0, 69, 49
2, 20945, Note_on_c, 0, 69, 0
2, 20950, Note_on_c, 0, 74, 0
2, 20955, Note_on_c, 0, 72, 0
2, 20961, Note_on_c, 0, 65, 0
2, 20977, Note_on_c, 0, 54, 0
2, 20995, Control_c, 0, 64, 0
2, 21003, Note_on_c, 0, 54, 64
2, 21003, Note_on_c, 0, 65, 51
2, 21006, Note_on_c, 0, 44, 49
2, 21008, Note_on_c, 0, 60, 33
2, 21009, Note_on_c, 0, 62, 36
2, 21017, Note_on_c, 0, 62, 0
2, 21021, Control_c, 0, 64, 127
2, 21026, Note_on_c, 0, 65, 0
2, 21040, Note_on_c, 0, 60, 0
2, 21065, Note_on_c, 0, 54, 0
2, 21078, Note_on_c, 0, 44, 0
2, 21088, Note_on_c, 0, 59, 55
2, 21089, Note_on_c, 0, 64, 60
2, 21090, Note_on_c, 0, 43, 64
2, 21092, Note_on_c, 0, 53, 51
2, 21093, Control_c, 0, 64, 0
2, 21118, Control_c, 0, 64, 127
2, 21120, Note_on_c, 0, 59, 0
2, 21127, Note_on_c, 0, 43, 0
2, 21132, Note_on_c, 0, 64, 0
2, 21138, Note_on_c, 0, 53, 0
2, 21206, Note_on_c, 0, 85, 84
2, 21208, Note_on_c, 0, 73, 98
2, 21210, Note_on_c, 0, 59, 79
2, 21211, Note_on_c, 0, 53, 81
2, 21212, Note_on_c, 0, 80, 52
2, 21212, Note_on_c, 0, 64, 87
2, 21216, Control_c, 0, 64, 0
2, 21218, Note_on_c, 0, 80, 0
2, 21237, Note_on_c, 0, 85, 0
2, 21239, Note_on_c, 0, 73, 0
2, 21243, Note_on_c, 0, 74, 51
2, 21274, Note_on_c, 0, 59, 0
2, 21276, Note_on_c, 0, 74, 0
2, 21281, Note_on_c, 0, 86, 55
2, 21297, Note_on_c, 0, 59, 32
2, 21304, Note_on_c, 0, 86, 0
2, 21309, Note_on_c, 0, 74, 39
2, 21315, Note_on_c, 0, 53, 0
2, 21316, Note_on_c, 0, 64, 0
2, 21316, Note_on_c, 0, 74, 0
2, 21318, Note_on_c, 0, 59, 0
2, 21376, Note_on_c, 0, 80, 65
2, 21377, Note_on_c, 0, 68, 76
2, 21378, Note_on_c, 0, 59, 60
2, 21380, Note_on_c, 0, 74, 44
2, 21380, Note_on_c, 0, 64, 62
2, 21382, Note_on_c, 0, 53, 51
2, 21408, Note_on_c, 0, 69, 54
2, 21409, Note_on_c, 0, 68, 0
2, 21428, Note_on_c, 0, 80, 0
2, 21428, Note_on_c, 0, 69, 0
2, 21431, Note_on_c, 0, 74, 0
2, 21432, Note_on_c, 0, 64, 0
2, 21440, Note_on_c, 0, 53, 0
2, 21448, Note_on_c, 0, 59, 0
2, 21490, Note_on_c, 0, 74, 49
2, 21491, Note_on_c, 0, 62, 58
2, 21492, Note_on_c, 0, 59, 50
2, 21492, Note_on_c, 0, 53, 52
2, 21529, Note_on_c, 0, 62, 0
2, 21533, Note_on_c, 0, 74, 0
2, 21539, Note_on_c, 0, 59, 0
2, 21551, Note_on_c, 0, 53, 0
2, 21613, Note_on_c, 0, 52, 43
2, 21614, Note_on_c, 0, 58, 35
2, 21614, Note_on_c, 0, 62, 36
2, 21614, Note_on_c, 0, 77, 39
2, 21614, Note_on_c, 0, 65, 55
2, 21621, Note_on_c, 0, 72, 31
2, 21647, Control_c, 0, 64, 127
2, 21698, Note_on_c, 0, 65, 0
2, 21707, Note_on_c, 0, 72, 0
2, 21730, Note_on_c, 0, 52, 0
2, 21736, Note_on_c, 0, 62, 0
2, 21738, Note_on_c, 0, 77, 0
2, 21743, Note_on_c, 0, 58, 0
2, 21842, Control_c, 0, 64, 0
2, 21850, Note_on_c, 0, 76, 76
2, 21850, Note_on_c, 0, 79, 80
2, 21851, Note_on_c, 0, 67, 87
2, 21851, Note_on_c, 0, 73, 80
2, 21851, Note_on_c, 0, 58, 79
2, 21852, Note_on_c, 0, 64, 83
2, 21908, Control_c, 0, 64, 127
2, 21923, Note_on_c, 0, 67, 0
2, 21925, Note_on_c, 0, 58, 0
2, 21926, Note_on_c, 0, 73, 0
2, 21930, Note_on_c, 0, 76, 0
2, 21930, Note_on_c, 0, 79, 0
2, 21937, Note_on_c, 0, 64, 0
2, 21950, Control_c, 0, 64, 0
2, 21968, Control_c, 0, 64, 127
2, 21971, Note_on_c, 0, 58, 63
2, 21971, Note_on_c, 0, 64, 59
2, 21972, Note_on_c, 0, 76, 49
2, 21974, Note_on_c, 0, 79, 51
2, 21974, Note_on_c, 0, 73, 58
2, 21976, Note_on_c, 0, 67, 58
2, 22008, Note_on_c, 0, 64, 0
2, 22012, Note_on_c, 0, 76, 0
2, 22014, Note_on_c, 0, 79, 0
2, 22016, Note_on_c, 0, 67, 0
2, 22027, Note_on_c, 0, 73, 0
2, 22036, Note_on_c, 0, 58, 0
2, 22054, Control_c, 0, 64, 0
2, 22054, Note_on_c, 0, 77, 64
2, 22056, Note_on_c, 0, 62, 62
2, 22057, Note_on_c, 0, 67, 57
2, 22058, Note_on_c, 0, 72, 68
2, 22058, Note_on_c, 0, 57, 57
2, 22079, Note_on_c, 0, 62, 0
2, 22082, Note_on_c, 0, 77, 0
2, 22086, Note_on_c, 0, 72, 0
2, 22086, Control_c, 0, 64, 127
2, 22090, Note_on_c, 0, 67, 0
2, 22090, Note_on_c, 0, 57, 0
2, 22171, Note_on_c, 0, 48, 70
2, 22172, Note_on_c, 0, 62, 56
2, 22172, Note_on_c, 0, 65, 64
2, 22172, Note_on_c, 0, 60, 64
2, 22172, Note_on_c, 0, 47, 63
2, 22172, Control_c, 0, 64, 0
2, 22174, Note_on_c, 0, 57, 55
2, 22179, Note_on_c, 0, 47, 0
2, 22299, Note_on_c, 0, 57, 0
2, 22304, Note_on_c, 0, 65, 0
2, 22304, Note_on_c, 0, 60, 0
2, 22307, Note_on_c, 0, 62, 0
2, 22331, Note_on_c, 0, 62, 50
2, 22332, Note_on_c, 0, 57, 51
2, 22333, Note_on_c, 0, 65, 55
2, 22333, Note_on_c, 0, 60, 58
2, 22349, Note_on_c, 0, 48, 0
2, 22510, Note_on_c, 0, 57, 0
2, 22513, Note_on_c, 0, 60, 0
2, 22513, Note_on_c, 0, 65, 0
2, 22520, Note_on_c, 0, 62, 0
2, 22567, Note_on_c, 0, 57, 55
2, 22568, Note_on_c, 0, 62, 41
2, 22568, Note_on_c, 0, 65, 55
2, 22570, Note_on_c, 0, 60, 55
2, 22692, Control_c, 0, 64, 127
2, 22706, Note_on_c, 0, 57, 0
2, 22797, Note_on_c, 0, 60, 0
2, 22915, Control_c, 0, 64, 0
2, 22926, Note_on_c, 0, 45, 60
2, 22961, Note_on_c, 0, 45, 0
2, 22975, Control_c, 0, 64, 127
2, 22987, Control_c, 0, 64, 0
2, 23002, Note_on_c, 0, 52, 83
2, 23002, Note_on_c, 0, 45, 80
2, 23026, Note_on_c, 0, 62, 0
2, 23041, Control_c, 0, 64, 127
2, 23057, Note_on_c, 0, 65, 0
2, 23090, Note_on_c, 0, 45, 0
2, 23099, Note_on_c, 0, 52, 0
2, 23278, Note_on_c, 0, 58, 67
2, 23278, Note_on_c, 0, 69, 76
2, 23279, Note_on_c, 0, 64, 71
2, 23320, Note_on_c, 0, 69, 0
2, 23322, Note_on_c, 0, 64, 0
2, 23324, Note_on_c, 0, 58, 0
2, 23601, Note_on_c, 0, 69, 68
2, 23603, Note_on_c, 0, 64, 57
2, 23604, Note_on_c, 0, 58, 37
2, 23608, Note_on_c, 0, 69, 0
2, 23612, Note_on_c, 0, 58, 0
2, 23612, Note_on_c, 0, 64, 0
2, 23641, Note_on_c, 0, 84, 118
2, 23699, Note_on_c, 0, 84, 0
2, 23729, Note_on_c, 0, 82, 87
2, 23761, Note_on_c, 0, 82, 0
2, 23790, Control_c, 0, 64, 127
2, 23804, Note_on_c, 0, 81, 89
2, 23834, Note_on_c, 0, 81, 0
2, 23843, Control_c, 0, 64, 0
2, 23883, Note_on_c, 0, 76, 84
2, 23909, Note_on_c, 0, 76, 0
2, 23959, Note_on_c, 0, 69, 68
2, 23959, Note_on_c, 0, 58, 51
2, 23960, Note_on_c, 0, 74, 84
2, 23961, Note_on_c, 0, 64, 60
2, 23975, Note_on_c, 0, 69, 0
2, 23981, Note_on_c, 0, 58, 0
2, 23986, Note_on_c, 0, 64, 0
2, 23999, Note_on_c, 0, 74, 0
2, 24034, Note_on_c, 0, 73, 60
2, 24083, Note_on_c, 0, 73, 0
2, 24114, Note_on_c, 0, 70, 82
2, 24146, Note_on_c, 0, 70, 0
2, 24199, Note_on_c, 0, 69, 99
2, 24202, Note_on_c, 0, 58, 55
2, 24202, Note_on_c, 0, 64, 58
2, 24210, Note_on_c, 0, 64, 0
2, 24221, Note_on_c, 0, 58, 0
2, 24255, Note_on_c, 0, 69, 0
2, 24262, Note_on_c, 0, 70, 47
2, 24287, Note_on_c, 0, 69, 59
2, 24291, Note_on_c, 0, 70, 0
2, 24317, Note_on_c, 0, 67, 66
2, 24320, Note_on_c, 0, 69, 0
2, 24342, Note_on_c, 0, 67, 0
2, 24359, Note_on_c, 0, 65, 67
2, 24436, Note_on_c, 0, 65, 0
2, 24439, Note_on_c, 0, 64, 68
2, 24464, Note_on_c, 0, 64, 0
2, 24488, Note_on_c, 0, 62, 43
2, 24549, Note_on_c, 0, 62, 0
2, 24561, Note_on_c, 0, 61, 69
2, 24602, Note_on_c, 0, 61, 0
2, 24622, Note_on_c, 0, 60, 51
2, 24689, Note_on_c, 0, 60, 0
2, 24691, Note_on_c, 0, 57, 41
2, 24704, Note_on_c, 0, 57, 0
2, 24735, Note_on_c, 0, 58, 69
2, 24808, Note_on_c, 0, 58, 0
2, 24814, Note_on_c, 0, 55, 31
2, 24834, Note_on_c, 0, 55, 0
2, 24850, Note_on_c, 0, 56, 59
2, 24911, Note_on_c, 0, 56, 0
2, 24920, Note_on_c, 0, 57, 59
2, 24952, Note_on_c, 0, 57, 0
2, 24963, Note_on_c, 0, 58, 39
2, 24987, Note_on_c, 0, 58, 0
2, 24998, Note_on_c, 0, 60, 47
2, 25027, Note_on_c, 0, 60, 0
2, 25027, Note_on_c, 0, 61, 71
2, 25053, Note_on_c, 0, 61, 0
2, 25062, Note_on_c, 0, 63, 64
2, 25082, Note_on_c, 0, 63, 0
2, 25093, Note_on_c, 0, 64, 63
2, 25112, Note_on_c, 0, 64, 0
2, 25125, Note_on_c, 0, 66, 62
2, 25141, Note_on_c, 0, 66, 0
2, 25150, Note_on_c, 0, 67, 64
2, 25176, Note_on_c, 0, 67, 0
2, 25179, Note_on_c, 0, 69, 72
2, 25205, Note_on_c, 0, 69, 0
2, 25208, Note_on_c, 0, 70, 74
2, 25225, Note_on_c, 0, 70, 0
2, 25239, Note_on_c, 0, 72, 60
2, 25258, Note_on_c, 0, 72, 0
2, 25268, Note_on_c, 0, 73, 54
2, 25291, Note_on_c, 0, 73, 0
2, 25295, Note_on_c, 0, 75, 57
2, 25313, Note_on_c, 0, 75, 0
2, 25327, Note_on_c, 0, 76, 61
2, 25345, Note_on_c, 0, 76, 0
2, 25356, Note_on_c, 0, 78, 47
2, 25373, Note_on_c, 0, 78, 0
2, 25384, Note_on_c, 0, 79, 60
2, 25407, Note_on_c, 0, 79, 0
2, 25416, Note_on_c, 0, 81, 65
2, 25436, Note_on_c, 0, 81, 0
2, 25561, Note_on_c, 0, 66, 81
2, 25562, Note_on_c, 0, 61, 71
2, 25563, Note_on_c, 0, 55, 80
2, 25598, Note_on_c, 0, 55, 0
2, 25606, Note_on_c, 0, 61, 0
2, 25612, Note_on_c, 0, 66, 0
2, 25772, Note_on_c, 0, 64, 68
2, 25773, Note_on_c, 0, 69, 71
2, 25773, Note_on_c, 0, 58, 70
2, 25775, Note_on_c, 0, 71, 51
2, 25782, Note_on_c, 0, 71, 0
2, 25788, Note_on_c, 0, 69, 0
2, 25797, Note_on_c, 0, 58, 0
2, 25804, Note_on_c, 0, 64, 0
2, 25826, Note_on_c, 0, 86, 83
2, 25826, Note_on_c, 0, 84, 83
2, 25854, Note_on_c, 0, 86, 0
2, 25874, Note_on_c, 0, 84, 0
2, 25892, Note_on_c, 0, 82, 79
2, 25925, Note_on_c, 0, 82, 0
2, 25938, Note_on_c, 0, 84, 80
2, 25988, Note_on_c, 0, 84, 0
2, 26006, Note_on_c, 0, 66, 72
2, 26008, Note_on_c, 0, 82, 77
2, 26008, Note_on_c, 0, 61, 57
2, 26010, Note_on_c, 0, 55, 55
2, 26017, Note_on_c, 0, 55, 0
2, 26020, Note_on_c, 0, 66, 0
2, 26027, Note_on_c, 0, 61, 0
2, 26049, Note_on_c, 0, 82, 0
2, 26066, Note_on_c, 0, 81, 65
2, 26113, Note_on_c, 0, 81, 0
2, 26129, Note_on_c, 0, 79, 48
2, 26152, Note_on_c, 0, 79, 0
2, 26178, Note_on_c, 0, 81, 85
2, 26230, Note_on_c, 0, 81, 0
2, 26241, Note_on_c, 0, 61, 59
2, 26241, Note_on_c, 0, 66, 70
2, 26242, Note_on_c, 0, 79, 74
2, 26245, Note_on_c, 0, 55, 47
2, 26253, Note_on_c, 0, 55, 0
2, 26257, Note_on_c, 0, 66, 0
2, 26265, Note_on_c, 0, 61, 0
2, 26274, Note_on_c, 0, 79, 0
2, 26299, Note_on_c, 0, 78, 52
2, 26356, Note_on_c, 0, 78, 0
2, 26364, Note_on_c, 0, 76, 53
2, 26378, Note_on_c, 0, 76, 0
2, 26411, Note_on_c, 0, 78, 74
2, 26459, Note_on_c, 0, 78, 0
2, 26478, Note_on_c, 0, 66, 70
2, 26481, Note_on_c, 0, 61, 56
2, 26482, Note_on_c, 0, 76, 80
2, 26483, Note_on_c, 0, 55, 55
2, 26490, Note_on_c, 0, 55, 0
2, 26494, Note_on_c, 0, 66, 0
2, 26512, Note_on_c, 0, 61, 0
2, 26515, Note_on_c, 0, 76, 0
2, 26546, Note_on_c, 0, 75, 50
2, 26592, Note_on_c, 0, 75, 0
2, 26604, Note_on_c, 0, 73, 67
2, 26618, Note_on_c, 0, 61, 37
2, 26632, Note_on_c, 0, 73, 0
2, 26634, Note_on_c, 0, 61, 0
2, 26654, Note_on_c, 0, 75, 78
2, 26707, Note_on_c, 0, 75, 0
2, 26717, Note_on_c, 0, 73, 71
2, 26718, Note_on_c, 0, 61, 64
2, 26719, Note_on_c, 0, 66, 68
2, 26721, Note_on_c, 0, 75, 28
2, 26723, Note_on_c, 0, 55, 52
2, 26730, Note_on_c, 0, 55, 0
2, 26733, Note_on_c, 0, 66, 0
2, 26738, Note_on_c, 0, 75, 0
2, 26750, Note_on_c, 0, 73, 0
2, 26751, Note_on_c, 0, 61, 0
2, 26772, Note_on_c, 0, 72, 53
2, 26834, Note_on_c, 0, 72, 0
2, 26841, Note_on_c, 0, 70, 72
2, 26846, Note_on_c, 0, 62, 51
2, 26847, Note_on_c, 0, 58, 33
2, 26854, Note_on_c, 0, 62, 0
2, 26854, Note_on_c, 0, 57, 28
2, 26867, Note_on_c, 0, 57, 0
2, 26873, Note_on_c, 0, 58, 0
2, 26880, Note_on_c, 0, 70, 0
2, 26901, Note_on_c, 0, 69, 49
2, 26950, Note_on_c, 0, 69, 0
2, 27134, Note_on_c, 0, 69, 113
2, 27212, Note_on_c, 0, 69, 0
2, 27221, Note_on_c, 0, 65, 33
2, 27240, Note_on_c, 0, 65, 0
2, 27260, Note_on_c, 0, 67, 45
2, 27312, Note_on_c, 0, 67, 0
2, 27330, Note_on_c, 0, 69, 80
2, 27331, Note_on_c, 0, 67, 57
2, 27332, Note_on_c, 0, 63, 59
2, 27334, Note_on_c, 0, 57, 47
2, 27338, Note_on_c, 0, 67, 0
2, 27344, Note_on_c, 0, 57, 0
2, 27352, Note_on_c, 0, 63, 0
2, 27429, Note_on_c, 0, 69, 0
2, 27445, Note_on_c, 0, 74, 85
2, 27480, Note_on_c, 0, 74, 0
2, 27497, Note_on_c, 0, 72, 55
2, 27548, Note_on_c, 0, 72, 0
2, 27565, Note_on_c, 0, 69, 77
2, 27602, Note_on_c, 0, 69, 0
2, 27631, Note_on_c, 0, 67, 40
2, 27695, Note_on_c, 0, 67, 0
2, 27719, Note_on_c, 0, 65, 65
2, 27804, Note_on_c, 0, 62, 51
2, 27812, Note_on_c, 0, 65, 0
2, 27840, Note_on_c, 0, 62, 0
2, 27874, Note_on_c, 0, 69, 55
2, 27920, Note_on_c, 0, 69, 0
2, 27937, Note_on_c, 0, 62, 45
2, 27938, Note_on_c, 0, 65, 52
2, 27940, Note_on_c, 0, 55, 36
2, 27940, Note_on_c, 0, 60, 48
2, 27953, Note_on_c, 0, 65, 0
2, 27958, Note_on_c, 0, 62, 0
2, 27960, Note_on_c, 0, 60, 0
2, 27961, Note_on_c, 0, 55, 0
2, 28081, Note_on_c, 0, 62, 69
2, 28100, Note_on_c, 0, 62, 0
2, 28118, Note_on_c, 0, 65, 57
2, 28140, Note_on_c, 0, 65, 0
2, 28147, Note_on_c, 0, 69, 64
2, 28176, Note_on_c, 0, 69, 0
2, 28179, Note_on_c, 0, 72, 65
2, 28183, Note_on_c, 0, 62, 35
2, 28188, Note_on_c, 0, 60, 36
2, 28192, Note_on_c, 0, 55, 24
2, 28202, Note_on_c, 0, 72, 0
2, 28207, Note_on_c, 0, 62, 0
2, 28211, Note_on_c, 0, 69, 55
2, 28216, Note_on_c, 0, 55, 0
2, 28217, Note_on_c, 0, 60, 0
2, 28236, Note_on_c, 0, 69, 0
2, 28241, Note_on_c, 0, 70, 45
2, 28256, Note_on_c, 0, 70, 0
2, 28273, Note_on_c, 0, 72, 69
2, 28294, Note_on_c, 0, 72, 0
2, 28301, Note_on_c, 0, 77, 64
2, 28308, Note_on_c, 0, 65, 38
2, 28309, Note_on_c, 0, 61, 37
2, 28312, Note_on_c, 0, 60, 36
2, 28313, Note_on_c, 0, 55, 36
2, 28336, Note_on_c, 0, 82, 62
2, 28337, Note_on_c, 0, 77, 0
2, 28350, Note_on_c, 0, 82, 0
2, 28369, Note_on_c, 0, 84, 65
2, 28398, Note_on_c, 0, 89, 64
2, 28401, Note_on_c, 0, 84, 0
2, 28429, Note_on_c, 0, 94, 71
2, 28430, Note_on_c, 0, 89, 0
2, 28453, Note_on_c, 0, 94, 0
2, 28457, Note_on_c, 0, 84, 74
2, 28459, Note_on_c, 0, 96, 81
2, 28500, Note_on_c, 0, 60, 0
2, 28503, Note_on_c, 0, 65, 0
2, 28504, Note_on_c, 0, 55, 0
2, 28506, Note_on_c, 0, 84, 0
2, 28507, Note_on_c, 0, 96, 0
2, 28512, Note_on_c, 0, 61, 0
2, 28536, Note_on_c, 0, 61, 36
2, 28536, Note_on_c, 0, 65, 69
2, 28538, Note_on_c, 0, 96, 85
2, 28539, Note_on_c, 0, 84, 72
2, 28540, Note_on_c, 0, 60, 39
2, 28542, Note_on_c, 0, 55, 40
2, 28547, Note_on_c, 0, 86, 31
2, 28555, Note_on_c, 0, 86, 0
2, 28562, Note_on_c, 0, 84, 0
2, 28564, Note_on_c, 0, 96, 0
2, 28605, Note_on_c, 0, 96, 74
2, 28608, Note_on_c, 0, 84, 67
2, 28646, Note_on_c, 0, 84, 0
2, 28646, Note_on_c, 0, 96, 0
2, 28674, Note_on_c, 0, 94, 62
2, 28698, Note_on_c, 0, 94, 0
2, 28736, Note_on_c, 0, 65, 0
2, 28743, Note_on_c, 0, 60, 0
2, 28748, Note_on_c, 0, 61, 0
2, 28754, Note_on_c, 0, 55, 0
2, 28882, Note_on_c, 0, 85, 83
2, 28883, Note_on_c, 0, 81, 79
2, 28884, Note_on_c, 0, 62, 78
2, 28885, Note_on_c, 0, 58, 64
2, 28885, Note_on_c, 0, 93, 76
2, 28885, Note_on_c, 0, 89, 62
2, 28885, Note_on_c, 0, 57, 60
2, 28887, Note_on_c, 0, 53, 60
2, 28889, Note_on_c, 0, 91, 48
2, 28897, Note_on_c, 0, 91, 0
2, 28908, Note_on_c, 0, 62, 0
2, 28909, Note_on_c, 0, 57, 0
2, 28910, Note_on_c, 0, 86, 62
2, 28911, Note_on_c, 0, 85, 0
2, 28913, Note_on_c, 0, 53, 0
2, 28915, Note_on_c, 0, 81, 0
2, 28918, Note_on_c, 0, 93, 0
2, 28918, Note_on_c, 0, 86, 0
2, 28920, Note_on_c, 0, 89, 0
2, 28921, Note_on_c, 0, 58, 0
2, 28965, Note_on_c, 0, 85, 71
2, 28966, Note_on_c, 0, 77, 66
2, 28966, Note_on_c, 0, 89, 66
2, 28967, Note_on_c, 0, 58, 56
2, 28968, Note_on_c, 0, 82, 48
2, 28968, Note_on_c, 0, 62, 62
2, 28969, Note_on_c, 0, 57, 53
2, 28970, Note_on_c, 0, 53, 54
2, 28975, Note_on_c, 0, 82, 0
2, 29009, Note_on_c, 0, 89, 0
2, 29009, Note_on_c, 0, 85, 0
2, 29015, Note_on_c, 0, 53, 0
2, 29015, Note_on_c, 0, 62, 0
2, 29016, Note_on_c, 0, 77, 0
2, 29020, Note_on_c, 0, 58, 0
2, 29022, Note_on_c, 0, 57, 0
2, 29046, Note_on_c, 0, 74, 68
2, 29047, Note_on_c, 0, 86, 58
2, 29047, Note_on_c, 0, 58, 52
2, 29048, Note_on_c, 0, 62, 37
2, 29049, Note_on_c, 0, 57, 40
2, 29050, Note_on_c, 0, 53, 48
2, 29051, Note_on_c, 0, 82, 48
2, 29069, Note_on_c, 0, 82, 0
2, 29096, Note_on_c, 0, 53, 0
2, 29099, Note_on_c, 0, 62, 0
2, 29103, Note_on_c, 0, 74, 0
2, 29106, Note_on_c, 0, 57, 0
2, 29106, Note_on_c, 0, 58, 0
2, 29108, Note_on_c, 0, 86, 0
2, 29125, Note_on_c, 0, 83, 66
2, 29127, Note_on_c, 0, 62, 37
2, 29130, Note_on_c, 0, 58, 55
2, 29137, Note_on_c, 0, 83, 0
2, 29139, Note_on_c, 0, 62, 0
2, 29146, Note_on_c, 0, 58, 0
2, 29244, Note_on_c, 0, 75, 74
2, 29245, Note_on_c, 0, 68, 78
2, 29247, Note_on_c, 0, 72, 65
2, 29247, Note_on_c, 0, 64, 71
2, 29249, Note_on_c, 0, 63, 87
2, 29265, Note_on_c, 0, 63, 0
2, 29267, Note_on_c, 0, 64, 0
2, 29270, Note_on_c, 0, 68, 0
2, 29272, Note_on_c, 0, 72, 0
2, 29274, Note_on_c, 0, 75, 0
2, 29363, Note_on_c, 0, 73, 77
2, 29363, Note_on_c, 0, 61, 70
2, 29363, Note_on_c, 0, 68, 77
2, 29366, Note_on_c, 0, 64, 68
2, 29393, Note_on_c, 0, 64, 0
2, 29394, Note_on_c, 0, 73, 0
2, 29398, Note_on_c, 0, 61, 0
2, 29400, Note_on_c, 0, 68, 0
2, 29410, Note_on_c, 0, 60, 45
2, 29411, Note_on_c, 0, 64, 29
2, 29412, Note_on_c, 0, 72, 34
2, 29416, Note_on_c, 0, 67, 36
2, 29468, Note_on_c, 0, 72, 0
2, 29475, Note_on_c, 0, 67, 0
2, 29483, Note_on_c, 0, 60, 0
2, 29483, Note_on_c, 0, 70, 48
2, 29487, Note_on_c, 0, 58, 49
2, 29503, Note_on_c, 0, 64, 0
2, 29505, Note_on_c, 0, 70, 0
2, 29512, Note_on_c, 0, 58, 0
2, 29529, Note_on_c, 0, 57, 36
2, 29532, Note_on_c, 0, 69, 47
2, 29568, Note_on_c, 0, 69, 0
2, 29601, Note_on_c, 0, 57, 0
2, 29731, Note_on_c, 0, 64, 62
2, 29734, Note_on_c, 0, 50, 53
2, 29735, Note_on_c, 0, 57, 57
2, 29737, Note_on_c, 0, 60, 57
2, 29755, Note_on_c, 0, 60, 0
2, 29756, Note_on_c, 0, 57, 0
2, 29756, Note_on_c, 0, 50, 0
2, 29768, Note_on_c, 0, 64, 0
2, 29775, Note_on_c, 0, 55, 81
2, 29777, Note_on_c, 0, 67, 73
2, 29778, Note_on_c, 0, 57, 64
2, 29779, Note_on_c, 0, 60, 70
2, 29841, Note_on_c, 0, 55, 0
2, 29847, Note_on_c, 0, 60, 0
2, 29849, Note_on_c, 0, 67, 0
2, 29850, Note_on_c, 0, 57, 0
2, 29856, Note_on_c, 0, 49, 33
2, 29881, Note_on_c, 0, 49, 0
2, 29891, Note_on_c, 0, 53, 62
2, 29896, Note_on_c, 0, 65, 70
2, 29897, Note_on_c, 0, 57, 58
2, 29897, Note_on_c, 0, 60, 63
2, 29980, Note_on_c, 0, 53, 0
2, 29981, Note_on_c, 0, 57, 0
2, 29983, Note_on_c, 0, 60, 0
2, 29992, Note_on_c, 0, 65, 0
2, 30009, Note_on_c, 0, 57, 28
2, 30010, Note_on_c, 0, 52, 46
2, 30010, Note_on_c, 0, 64, 50
2, 30013, Note_on_c, 0, 60, 38
2, 30062, Note_on_c, 0, 60, 0
2, 30068, Note_on_c, 0, 57, 0
2, 30069, Note_on_c, 0, 52, 0
2, 30078, Note_on_c, 0, 64, 0
2, 30089, Note_on_c, 0, 53, 71
2, 30090, Note_on_c, 0, 57, 61
2, 30090, Note_on_c, 0, 65, 67
2, 30091, Note_on_c, 0, 60, 56
2, 30096, Note_on_c, 0, 62, 44
2, 30142, Note_on_c, 0, 62, 0
2, 30199, Note_on_c, 0, 60, 0
2, 30213, Note_on_c, 0, 57, 0
2, 30214, Note_on_c, 0, 65, 0
2, 30235, Note_on_c, 0, 53, 0
2, 30242, Note_on_c, 0, 60, 53
2, 30246, Note_on_c, 0, 55, 36
2, 30249, Note_on_c, 0, 48, 47
2, 30249, Note_on_c, 0, 57, 48
2, 30392, Note_on_c, 0, 55, 0
2, 30400, Control_c, 0, 64, 127
2, 30411, Note_on_c, 0, 57, 0
2, 30429, Note_on_c, 0, 60, 0
2, 30582, Note_on_c, 0, 48, 0
2, 30618, Note_on_c, 0, 72, 77
2, 30643, Note_on_c, 0, 72, 0
2, 30653, Note_on_c, 0, 74, 60
2, 30678, Note_on_c, 0, 74, 0
2, 30687, Control_c, 0, 64, 0
2, 30698, Note_on_c, 0, 76, 59
2, 30699, Note_on_c, 0, 77, 49
2, 30706, Note_on_c, 0, 77, 0
2, 30710, Note_on_c, 0, 76, 0
2, 30811, Note_on_c, 0, 66, 56
2, 30813, Note_on_c, 0, 61, 51
2, 30821, Note_on_c, 0, 61, 0
2, 30824, Note_on_c, 0, 66, 0
2, 30975, Note_on_c, 0, 66, 57
2, 30977, Note_on_c, 0, 61, 49
2, 30981, Note_on_c, 0, 55, 53
2, 31262, Note_on_c, 0, 93, 89
2, 31288, Note_on_c, 0, 93, 0
2, 31300, Note_on_c, 0, 96, 87
2, 31328, Note_on_c, 0, 96, 0
2, 31335, Note_on_c, 0, 94, 74
2, 31341, Note_on_c, 0, 55, 0
2, 31362, Note_on_c, 0, 66, 0
2, 31366, Note_on_c, 0, 90, 55
2, 31373, Note_on_c, 0, 94, 0
2, 31380, Note_on_c, 0, 61, 0
2, 31396, Note_on_c, 0, 90, 0
2, 31397, Note_on_c, 0, 88, 62
2, 31412, Note_on_c, 0, 88, 0
2, 31427, Note_on_c, 0, 93, 87
2, 31455, Note_on_c, 0, 91, 71
2, 31463, Note_on_c, 0, 93, 0
2, 31482, Note_on_c, 0, 91, 0
2, 31484, Note_on_c, 0, 87, 63
2, 31516, Note_on_c, 0, 85, 43
2, 31519, Note_on_c, 0, 87, 0
2, 31529, Note_on_c, 0, 85, 0
2, 31547, Note_on_c, 0, 90, 64
2, 31574, Note_on_c, 0, 90, 0
2, 31576, Note_on_c, 0, 88, 64
2, 31610, Note_on_c, 0, 88, 0
2, 31612, Note_on_c, 0, 85, 74
2, 31631, Note_on_c, 0, 85, 0
2, 31686, Note_on_c, 0, 66, 63
2, 31690, Note_on_c, 0, 61, 47
2, 31692, Note_on_c, 0, 55, 54
2, 31701, Note_on_c, 0, 55, 0
2, 31706, Note_on_c, 0, 66, 0
2, 31712, Note_on_c, 0, 61, 0
2, 31772, Note_on_c, 0, 66, 64
2, 31774, Note_on_c, 0, 55, 64
2, 31774, Note_on_c, 0, 61, 57
2, 31784, Note_on_c, 0, 55, 0
2, 31788, Note_on_c, 0, 66, 0
2, 31797, Note_on_c, 0, 61, 0
2, 31929, Note_on_c, 0, 66, 59
2, 31931, Note_on_c, 0, 61, 49
2, 31934, Note_on_c, 0, 55, 35
2, 31939, Note_on_c, 0, 66, 0
2, 31942, Note_on_c, 0, 55, 0
2, 31947, Note_on_c, 0, 61, 0
2, 32042, Note_on_c, 0, 58, 70
2, 32042, Note_on_c, 0, 64, 73
2, 32042, Note_on_c, 0, 69, 75
2, 32159, Note_on_c, 0, 91, 113
2, 32165, Note_on_c, 0, 94, 37
2, 32172, Note_on_c, 0, 94, 0
2, 32221, Note_on_c, 0, 91, 0
2, 32237, Note_on_c, 0, 96, 99
2, 32283, Note_on_c, 0, 96, 0
2, 32298, Note_on_c, 0, 64, 0
2, 32300, Note_on_c, 0, 94, 74
2, 32302, Note_on_c, 0, 69, 0
2, 32346, Note_on_c, 0, 94, 0
2, 32347, Note_on_c, 0, 58, 0
2, 32357, Note_on_c, 0, 67, 61
2, 32357, Note_on_c, 0, 57, 64
2, 32358, Note_on_c, 0, 62, 62
2, 32361, Note_on_c, 0, 93, 79
2, 32396, Note_on_c, 0, 93, 0
2, 32426, Note_on_c, 0, 91, 50
2, 32465, Note_on_c, 0, 91, 0
2, 32478, Note_on_c, 0, 89, 80
2, 32512, Note_on_c, 0, 89, 0
2, 32531, Note_on_c, 0, 88, 62
2, 32569, Note_on_c, 0, 88, 0
2, 32589, Note_on_c, 0, 86, 70
2, 32617, Note_on_c, 0, 62, 0
2, 32620, Note_on_c, 0, 86, 0
2, 32633, Note_on_c, 0, 57, 0
2, 32640, Note_on_c, 0, 84, 53
2, 32652, Note_on_c, 0, 67, 0
2, 32673, Note_on_c, 0, 84, 0
2, 32709, Note_on_c, 0, 82, 79
2, 32710, Note_on_c, 0, 69, 44
2, 32712, Note_on_c, 0, 58, 42
2, 32713, Note_on_c, 0, 64, 51
2, 32714, Note_on_c, 0, 67, 36
2, 32721, Note_on_c, 0, 67, 0
2, 32721, Note_on_c, 0, 69, 0
2, 32726, Note_on_c, 0, 64, 0
2, 32727, Note_on_c, 0, 58, 0
2, 32738, Note_on_c, 0, 82, 0
2, 32760, Note_on_c, 0, 81, 48
2, 32818, Note_on_c, 0, 81, 0
2, 32830, Note_on_c, 0, 79, 69
2, 32843, Note_on_c, 0, 62, 33
2, 32852, Note_on_c, 0, 62, 0
2, 32859, Note_on_c, 0, 79, 0
2, 32876, Note_on_c, 0, 77, 50
2, 32907, Note_on_c, 0, 77, 0
2, 32913, Note_on_c, 0, 76, 57
2, 32937, Note_on_c, 0, 76, 0
2, 32955, Note_on_c, 0, 74, 66
2, 32959, Note_on_c, 0, 67, 46
2, 32961, Note_on_c, 0, 62, 44
2, 32966, Note_on_c, 0, 67, 0
2, 32970, Note_on_c, 0, 62, 0
2, 32988, Note_on_c, 0, 74, 0
2, 32996, Note_on_c, 0, 72, 36
2, 33021, Note_on_c, 0, 72, 0
2, 33036, Note_on_c, 0, 70, 72
2, 33057, Note_on_c, 0, 62, 31
2, 33060, Note_on_c, 0, 70, 0
2, 33067, Note_on_c, 0, 62, 0
2, 33075, Note_on_c, 0, 69, 31
2, 33111, Note_on_c, 0, 69, 0
2, 33117, Note_on_c, 0, 67, 54
2, 33148, Note_on_c, 0, 67, 0
2, 33329, Note_on_c, 0, 62, 25
2, 33338, Note_on_c, 0, 62, 0
2, 33371, Note_on_c, 0, 69, 78
2, 33389, Note_on_c, 0, 69, 0
2, 33391, Note_on_c, 0, 72, 60
2, 33421, Note_on_c, 0, 69, 50
2, 33426, Note_on_c, 0, 72, 0
2, 33437, Note_on_c, 0, 69, 0
2, 33437, Note_on_c, 0, 65, 64
2, 33455, Note_on_c, 0, 65, 0
2, 33468, Note_on_c, 0, 70, 80
2, 33491, Note_on_c, 0, 70, 0
2, 33497, Note_on_c, 0, 74, 56
2, 33519, Note_on_c, 0, 70, 45
2, 33526, Note_on_c, 0, 74, 0
2, 33539, Note_on_c, 0, 70, 0
2, 33541, Note_on_c, 0, 67, 55
2, 33563, Note_on_c, 0, 62, 29
2, 33564, Note_on_c, 0, 67, 0
2, 33565, Note_on_c, 0, 72, 80
2, 33571, Note_on_c, 0, 62, 0
2, 33589, Note_on_c, 0, 72, 0
2, 33594, Note_on_c, 0, 76, 66
2, 33621, Note_on_c, 0, 76, 0
2, 33629, Note_on_c, 0, 69, 64
2, 33648, Note_on_c, 0, 69, 0
2, 33655, Note_on_c, 0, 74, 63
2, 33664, Note_on_c, 0, 62, 38
2, 33674, Note_on_c, 0, 62, 0
2, 33675, Note_on_c, 0, 74, 0
2, 33682, Note_on_c, 0, 77, 76
2, 33708, Note_on_c, 0, 77, 0
2, 33708, Note_on_c, 0, 74, 17
2, 33713, Note_on_c, 0, 70, 56
2, 33718, Note_on_c, 0, 74, 0
2, 33730, Note_on_c, 0, 70, 0
2, 33750, Note_on_c, 0, 76, 62
2, 33768, Note_on_c, 0, 76, 0
2, 33920, Note_on_c, 0, 62, 65
2, 33921, Note_on_c, 0, 67, 50
2, 33929, Note_on_c, 0, 67, 0
2, 33931, Note_on_c, 0, 62, 0
2, 34043, Note_on_c, 0, 62, 60
2, 34052, Note_on_c, 0, 62, 0
2, 34086, Note_on_c, 0, 77, 115
2, 34154, Note_on_c, 0, 77, 0
2, 34165, Note_on_c, 0, 81, 80
2, 34166, Note_on_c, 0, 62, 60
2, 34166, Note_on_c, 0, 67, 54
2, 34173, Note_on_c, 0, 67, 0
2, 34189, Note_on_c, 0, 62, 0
2, 34208, Note_on_c, 0, 81, 0
2, 34227, Note_on_c, 0, 74, 24
2, 34280, Note_on_c, 0, 74, 0
2, 34287, Note_on_c, 0, 76, 61
2, 34297, Note_on_c, 0, 62, 38
2, 34322, Note_on_c, 0, 76, 0
2, 34323, Note_on_c, 0, 62, 0
2, 34340, Note_on_c, 0, 77, 32
2, 34391, Note_on_c, 0, 77, 0
2, 34407, Note_on_c, 0, 79, 50
2, 34407, Note_on_c, 0, 62, 58
2, 34430, Note_on_c, 0, 62, 0
2, 34441, Note_on_c, 0, 79, 0
2, 34458, Note_on_c, 0, 81, 54
2, 34520, Note_on_c, 0, 81, 0
2, 34527, Note_on_c, 0, 67, 55
2, 34529, Note_on_c, 0, 63, 38
2, 34530, Note_on_c, 0, 82, 69
2, 34530, Note_on_c, 0, 58, 35
2, 34530, Note_on_c, 0, 62, 44
2, 34539, Note_on_c, 0, 67, 0
2, 34540, Note_on_c, 0, 62, 0
2, 34548, Note_on_c, 0, 58, 0
2, 34552, Note_on_c, 0, 63, 0
2, 34567, Note_on_c, 0, 82, 0
2, 34583, Note_on_c, 0, 85, 50
2, 34588, Note_on_c, 0, 73, 55
2, 34590, Note_on_c, 0, 82, 26
2, 34598, Note_on_c, 0, 79, 25
2, 34602, Note_on_c, 0, 73, 0
2, 34605, Note_on_c, 0, 86, 34
2, 34606, Note_on_c, 0, 74, 49
2, 34611, Note_on_c, 0, 85, 0
2, 34655, Note_on_c, 0, 86, 0
2, 34660, Note_on_c, 0, 74, 0
2, 34661, Note_on_c, 0, 79, 0
2, 34676, Note_on_c, 0, 82, 0
2, 34690, Note_on_c, 0, 84, 46
2, 34693, Note_on_c, 0, 72, 27
2, 34696, Note_on_c, 0, 79, 33
2, 34700, Note_on_c, 0, 82, 23
2, 34727, Note_on_c, 0, 84, 0
2, 34733, Note_on_c, 0, 72, 0
2, 34743, Note_on_c, 0, 82, 0
2, 34744, Note_on_c, 0, 79, 0
2, 34768, Note_on_c, 0, 63, 46
2, 34768, Note_on_c, 0, 67, 45
2, 34769, Note_on_c, 0, 58, 39
2, 34769, Note_on_c, 0, 74, 56
2, 34771, Note_on_c, 0, 62, 45
2, 34772, Note_on_c, 0, 82, 32
2, 34772, Note_on_c, 0, 86, 49
2, 34777, Note_on_c, 0, 79, 34
2, 34793, Note_on_c, 0, 86, 0
2, 34800, Note_on_c, 0, 74, 0
2, 34811, Note_on_c, 0, 79, 0
2, 34813, Note_on_c, 0, 82, 0
2, 34826, Note_on_c, 0, 84, 33
2, 34828, Note_on_c, 0, 72, 36
2, 34852, Note_on_c, 0, 72, 0
2, 34854, Note_on_c, 0, 84, 0
2, 34856, Note_on_c, 0, 67, 0
2, 34858, Note_on_c, 0, 62, 0
2, 34861, Note_on_c, 0, 58, 0
2, 34863, Note_on_c, 0, 63, 0
2, 35002, Note_on_c, 0, 67, 55
2, 35003, Note_on_c, 0, 63, 47
2, 35004, Note_on_c, 0, 57, 55
2, 35008, Note_on_c, 0, 61, 33
2, 35012, Note_on_c, 0, 67, 0
2, 35013, Note_on_c, 0, 57, 0
2, 35015, Note_on_c, 0, 61, 0
2, 35023, Note_on_c, 0, 63, 0
2, 35137, Note_on_c, 0, 61, 18
2, 35155, Note_on_c, 0, 61, 0
2, 35249, Note_on_c, 0, 63, 62
2, 35251, Note_on_c, 0, 68, 56
2, 35252, Note_on_c, 0, 57, 66
2, 35252, Note_on_c, 0, 66, 49
2, 35254, Note_on_c, 0, 93, 103
2, 35262, Note_on_c, 0, 68, 0
2, 35293, Note_on_c, 0, 93, 0
2, 35319, Note_on_c, 0, 90, 59
2, 35344, Note_on_c, 0, 66, 0
2, 35346, Note_on_c, 0, 57, 0
2, 35356, Note_on_c, 0, 90, 0
2, 35357, Note_on_c, 0, 63, 0
2, 35374, Note_on_c, 0, 89, 81
2, 35374, Note_on_c, 0, 63, 59
2, 35375, Note_on_c, 0, 66, 71
2, 35379, Note_on_c, 0, 57, 63
2, 35382, Note_on_c, 0, 61, 44
2, 35403, Note_on_c, 0, 89, 0
2, 35429, Note_on_c, 0, 86, 46
2, 35448, Note_on_c, 0, 57, 0
2, 35461, Note_on_c, 0, 66, 0
2, 35474, Note_on_c, 0, 86, 0
2, 35479, Note_on_c, 0, 63, 0
2, 35481, Note_on_c, 0, 61, 0
2, 35488, Note_on_c, 0, 62, 49
2, 35492, Note_on_c, 0, 84, 84
2, 35492, Note_on_c, 0, 65, 64
2, 35494, Note_on_c, 0, 60, 38
2, 35498, Note_on_c, 0, 55, 58
2, 35517, Note_on_c, 0, 84, 0
2, 35541, Note_on_c, 0, 82, 43
2, 35603, Note_on_c, 0, 82, 0
2, 35626, Note_on_c, 0, 81, 40
2, 35636, Note_on_c, 0, 81, 0
2, 35654, Note_on_c, 0, 84, 91
2, 35699, Note_on_c, 0, 65, 0
2, 35719, Note_on_c, 0, 62, 0
2, 35732, Note_on_c, 0, 62, 33
2, 35735, Note_on_c, 0, 84, 0
2, 35737, Note_on_c, 0, 81, 40
2, 35749, Note_on_c, 0, 81, 0
2, 35763, Note_on_c, 0, 55, 0
2, 35774, Note_on_c, 0, 82, 75
2, 35793, Note_on_c, 0, 60, 0
2, 35809, Note_on_c, 0, 62, 0
2, 35837, Note_on_c, 0, 82, 0
2, 35848, Note_on_c, 0, 62, 53
2, 35849, Note_on_c, 0, 84, 74
2, 35851, Note_on_c, 0, 65, 60
2, 35852, Note_on_c, 0, 60, 47
2, 35862, Note_on_c, 0, 55, 20
2, 35876, Note_on_c, 0, 65, 0
2, 35882, Note_on_c, 0, 84, 0
2, 35892, Note_on_c, 0, 62, 0
2, 35896, Note_on_c, 0, 81, 63
2, 35910, Note_on_c, 0, 55, 0
2, 35917, Note_on_c, 0, 81, 0
2, 35917, Note_on_c, 0, 60, 0
2, 35926, Note_on_c, 0, 77, 57
2, 35954, Note_on_c, 0, 77, 0
2, 35955, Note_on_c, 0, 73, 60
2, 35981, Note_on_c, 0, 73, 0
2, 35991, Note_on_c, 0, 72, 41
2, 36005, Note_on_c, 0, 61, 32
2, 36006, Note_on_c, 0, 55, 40
2, 36008, Note_on_c, 0, 65, 36
2, 36023, Note_on_c, 0, 72, 0
2, 36031, Note_on_c, 0, 70, 53
2, 36117, Note_on_c, 0, 70, 0
2, 36151, Note_on_c, 0, 55, 0
2, 36152, Note_on_c, 0, 65, 0
2, 36162, Note_on_c, 0, 61, 0
2, 36207, Note_on_c, 0, 61, 46
2, 36208, Note_on_c, 0, 65, 49
2, 36208, Note_on_c, 0, 55, 55
2, 36218, Note_on_c, 0, 65, 0
2, 36235, Note_on_c, 0, 55, 0
2, 36261, Note_on_c, 0, 61, 0
2, 36332, Note_on_c, 0, 61, 69
2, 36335, Note_on_c, 0, 69, 77
2, 36336, Note_on_c, 0, 65, 64
2, 36339, Note_on_c, 0, 55, 48
2, 36344, Note_on_c, 0, 65, 0
2, 36361, Note_on_c, 0, 55, 0
2, 36367, Note_on_c, 0, 61, 0
2, 36369, Note_on_c, 0, 69, 0
2, 36387, Note_on_c, 0, 70, 57
2, 36443, Note_on_c, 0, 70, 0
2, 36453, Note_on_c, 0, 62, 60
2, 36455, Note_on_c, 0, 72, 70
2, 36456, Note_on_c, 0, 58, 47
2, 36456, Note_on_c, 0, 53, 48
2, 36457, Note_on_c, 0, 57, 40
2, 36466, Note_on_c, 0, 57, 0
2, 36478, Note_on_c, 0, 62, 0
2, 36479, Note_on_c, 0, 72, 0
2, 36498, Note_on_c, 0, 67, 63
2, 36506, Note_on_c, 0, 68, 63
2, 36512, Note_on_c, 0, 58, 0
2, 36513, Note_on_c, 0, 67, 0
2, 36534, Note_on_c, 0, 68, 0
2, 36545, Note_on_c, 0, 69, 28
2, 36569, Note_on_c, 0, 69, 0
2, 36582, Note_on_c, 0, 62, 69
2, 36585, Note_on_c, 0, 57, 24
2, 36588, Note_on_c, 0, 58, 25
2, 36599, Note_on_c, 0, 62, 0
2, 36607, Note_on_c, 0, 58, 0
2, 36614, Note_on_c, 0, 65, 87
2, 36641, Note_on_c, 0, 57, 0
2, 36668, Note_on_c, 0, 53, 0
2, 36680, Note_on_c, 0, 65, 0
2, 36816, Note_on_c, 0, 72, 90
2, 36817, Note_on_c, 0, 62, 57
2, 36819, Note_on_c, 0, 58, 45
2, 36820, Note_on_c, 0, 53, 48
2, 36821, Note_on_c, 0, 57, 47
2, 36829, Note_on_c, 0, 62, 0
2, 36840, Note_on_c, 0, 72, 0
2, 36847, Note_on_c, 0, 58, 0
2, 36860, Note_on_c, 0, 67, 67
2, 36866, Note_on_c, 0, 57, 0
2, 36870, Note_on_c, 0, 53, 0
2, 36870, Note_on_c, 0, 68, 51
2, 36878, Note_on_c, 0, 67, 0
2, 36894, Note_on_c, 0, 68, 0
2, 36899, Note_on_c, 0, 69, 59
2, 36911, Note_on_c, 0, 69, 0
2, 36934, Note_on_c, 0, 62, 79
2, 36977, Note_on_c, 0, 62, 0
2, 37003, Note_on_c, 0, 65, 80
2, 37044, Note_on_c, 0, 65, 0
2, 37050, Note_on_c, 0, 63, 79
2, 37053, Note_on_c, 0, 58, 61
2, 37054, Note_on_c, 0, 52, 58
2, 37062, Note_on_c, 0, 52, 0
2, 37065, Note_on_c, 0, 63, 0
2, 37072, Note_on_c, 0, 58, 0
2, 37160, Note_on_c, 0, 36, 80
2, 37171, Note_on_c, 0, 72, 96
2, 37178, Note_on_c, 0, 36, 0
2, 37200, Note_on_c, 0, 72, 0
2, 37232, Note_on_c, 0, 67, 60
2, 37235, Note_on_c, 0, 68, 62
2, 37242, Note_on_c, 0, 67, 0
2, 37251, Note_on_c, 0, 68, 0
2, 37252, Note_on_c, 0, 69, 67
2, 37278, Note_on_c, 0, 69, 0
2, 37306, Note_on_c, 0, 63, 69
2, 37310, Note_on_c, 0, 52, 44
2, 37311, Note_on_c, 0, 58, 37
2, 37313, Note_on_c, 0, 62, 68
2, 37315, Note_on_c, 0, 63, 0
2, 37319, Note_on_c, 0, 58, 0
2, 37320, Note_on_c, 0, 52, 0
2, 37385, Note_on_c, 0, 62, 0
2, 37399, Note_on_c, 0, 46, 46
2, 37400, Note_on_c, 0, 65, 75
2, 37400, Note_on_c, 0, 48, 62
2, 37404, Note_on_c, 0, 47, 67
2, 37406, Note_on_c, 0, 46, 0
2, 37408, Note_on_c, 0, 45, 31
2, 37411, Note_on_c, 0, 47, 0
2, 37416, Note_on_c, 0, 45, 0
2, 37505, Note_on_c, 0, 65, 0
2, 37515, Note_on_c, 0, 47, 35
2, 37524, Note_on_c, 0, 47, 0
2, 37524, Note_on_c, 0, 67, 72
2, 37554, Note_on_c, 0, 67, 0
2, 37571, Note_on_c, 0, 65, 62
2, 37638, Note_on_c, 0, 65, 0
2, 37649, Note_on_c, 0, 62, 43
2, 37659, Note_on_c, 0, 62, 0
2, 37687, Note_on_c, 0, 67, 80
2, 37692, Note_on_c, 0, 48, 0
2, 37759, Note_on_c, 0, 67, 0
2, 37765, Note_on_c, 0, 47, 68
2, 37769, Note_on_c, 0, 48, 52
2, 37771, Note_on_c, 0, 65, 62
2, 37773, Note_on_c, 0, 47, 0
2, 37802, Note_on_c, 0, 65, 0
2, 37817, Note_on_c, 0, 62, 44
2, 37884, Note_on_c, 0, 47, 22
2, 37894, Note_on_c, 0, 47, 0
2, 37897, Note_on_c, 0, 62, 0
2, 37907, Note_on_c, 0, 60, 30
2, 37915, Note_on_c, 0, 60, 0
2, 37943, Note_on_c, 0, 67, 68
2, 37950, Note_on_c, 0, 48, 0
2, 38011, Note_on_c, 0, 48, 79
2, 38013, Note_on_c, 0, 47, 69
2, 38022, Note_on_c, 0, 47, 0
2, 38123, Note_on_c, 0, 67, 0
2, 38134, Note_on_c, 0, 65, 88
2, 38190, Note_on_c, 0, 48, 0
2, 38247, Note_on_c, 0, 48, 87
2, 38264, Note_on_c, 0, 48, 0
2, 38404, Note_on_c, 0, 65, 0
2, 38414, Note_on_c, 0, 64, 40
2, 38416, Note_on_c, 0, 57, 38
2, 38417, Note_on_c, 0, 62, 29
2, 38544, Note_on_c, 0, 69, 51
2, 38560, Note_on_c, 0, 69, 0
2, 38578, Note_on_c, 0, 74, 53
2, 38601, Note_on_c, 0, 74, 0
2, 38693, Note_on_c, 0, 64, 0
2, 38700, Note_on_c, 0, 57, 0
2, 38710, Note_on_c, 0, 62, 0
2, 38722, Note_on_c, 0, 64, 55
2, 38725, Note_on_c, 0, 62, 44
2, 38726, Note_on_c, 0, 57, 39
2, 38766, Note_on_c, 0, 69, 66
2, 38780, Note_on_c, 0, 69, 0
2, 38791, Note_on_c, 0, 71, 62
2, 38810, Note_on_c, 0, 71, 0
2, 38818, Note_on_c, 0, 71, 60
2, 38840, Note_on_c, 0, 71, 0
2, 38845, Note_on_c, 0, 72, 80
2, 38865, Note_on_c, 0, 72, 0
2, 38874, Note_on_c, 0, 72, 71
2, 38896, Note_on_c, 0, 72, 0
2, 38900, Note_on_c, 0, 74, 69
2, 38906, Note_on_c, 0, 62, 0
2, 38916, Note_on_c, 0, 64, 0
2, 38917, Note_on_c, 0, 74, 0
2, 38921, Note_on_c, 0, 57, 0
2, 38927, Note_on_c, 0, 74, 63
2, 38945, Note_on_c, 0, 74, 0
2, 38953, Note_on_c, 0, 76, 73
2, 38976, Note_on_c, 0, 76, 0
2, 38985, Note_on_c, 0, 76, 78
2, 38994, Note_on_c, 0, 62, 59
2, 38994, Note_on_c, 0, 67, 55
2, 38997, Note_on_c, 0, 56, 43
2, 39005, Note_on_c, 0, 76, 0
2, 39024, Note_on_c, 0, 67, 0
2, 39029, Note_on_c, 0, 62, 0
2, 39037, Note_on_c, 0, 56, 0
2, 39210, Note_on_c, 0, 65, 71
2, 39211, Note_on_c, 0, 62, 57
2, 39213, Note_on_c, 0, 56, 45
2, 39217, Note_on_c, 0, 65, 0
2, 39221, Note_on_c, 0, 62, 0
2, 39227, Note_on_c, 0, 56, 0
2, 39254, Note_on_c, 0, 69, 55
2, 39265, Note_on_c, 0, 69, 0
2, 39287, Note_on_c, 0, 71, 64
2, 39305, Note_on_c, 0, 71, 0
2, 39326, Note_on_c, 0, 64, 77
2, 39327, Note_on_c, 0, 62, 65
2, 39328, Note_on_c, 0, 57, 66
2, 39431, Note_on_c, 0, 69, 83
2, 39451, Note_on_c, 0, 69, 0
2, 39467, Note_on_c, 0, 71, 73
2, 39487, Note_on_c, 0, 64, 0
2, 39490, Note_on_c, 0, 71, 0
2, 39491, Note_on_c, 0, 57, 0
2, 39495, Note_on_c, 0, 62, 0
2, 39509, Note_on_c, 0, 71, 73
2, 39514, Note_on_c, 0, 64, 68
2, 39514, Note_on_c, 0, 57, 59
2, 39514, Note_on_c, 0, 62, 66
2, 39535, Note_on_c, 0, 71, 0
2, 39545, Note_on_c, 0, 72, 73
2, 39551, Note_on_c, 0, 64, 0
2, 39555, Note_on_c, 0, 62, 0
2, 39555, Note_on_c, 0, 57, 0
2, 39568, Note_on_c, 0, 72, 0
2, 39586, Note_on_c, 0, 57, 73
2, 39586, Note_on_c, 0, 64, 77
2, 39586, Note_on_c, 0, 62, 48
2, 39587, Note_on_c, 0, 72, 82
2, 39616, Note_on_c, 0, 72, 0
2, 39625, Note_on_c, 0, 64, 0
2, 39625, Note_on_c, 0, 74, 63
2, 39627, Note_on_c, 0, 62, 0
2, 39628, Note_on_c, 0, 57, 0
2, 39648, Note_on_c, 0, 74, 0
2, 39662, Note_on_c, 0, 74, 89
2, 39663, Note_on_c, 0, 64, 76
2, 39663, Note_on_c, 0, 57, 74
2, 39665, Note_on_c, 0, 62, 62
2, 39689, Note_on_c, 0, 74, 0
2, 39695, Note_on_c, 0, 64, 0
2, 39695, Note_on_c, 0, 76, 51
2, 39698, Note_on_c, 0, 57, 0
2, 39699, Note_on_c, 0, 62, 0
2, 39721, Note_on_c, 0, 76, 0
2, 39732, Note_on_c, 0, 57, 67
2, 39733, Note_on_c, 0, 64, 69
2, 39734, Note_on_c, 0, 76, 87
2, 39734, Note_on_c, 0, 62, 42
2, 39753, Note_on_c, 0, 64, 0
2, 39757, Note_on_c, 0, 62, 0
2, 39758, Note_on_c, 0, 76, 0
2, 39768, Note_on_c, 0, 77, 68
2, 39788, Note_on_c, 0, 57, 0
2, 39791, Note_on_c, 0, 77, 0
2, 39808, Note_on_c, 0, 77, 82
2, 39812, Note_on_c, 0, 62, 71
2, 39814, Note_on_c, 0, 56, 78
2, 39815, Note_on_c, 0, 67, 75
2, 39816, Note_on_c, 0, 65, 64
2, 39823, Note_on_c, 0, 65, 0
2, 39836, Note_on_c, 0, 77, 0
2, 39843, Note_on_c, 0, 67, 0
2, 39844, Note_on_c, 0, 79, 54
2, 39855, Note_on_c, 0, 56, 0
2, 39863, Note_on_c, 0, 62, 0
2, 39867, Note_on_c, 0, 79, 0
2, 39885, Note_on_c, 0, 79, 72
2, 39886, Note_on_c, 0, 62, 71
2, 39888, Note_on_c, 0, 67, 74
2, 39888, Note_on_c, 0, 56, 69
2, 39902, Note_on_c, 0, 67, 0
2, 39906, Note_on_c, 0, 56, 0
2, 39907, Note_on_c, 0, 79, 0
2, 39910, Note_on_c, 0, 62, 0
2, 39920, Note_on_c, 0, 81, 78
2, 39925, Note_on_c, 0, 56, 61
2, 39926, Note_on_c, 0, 62, 81
2, 39926, Note_on_c, 0, 67, 50
2, 39945, Note_on_c, 0, 67, 0
2, 39945, Note_on_c, 0, 81, 0
2, 39951, Note_on_c, 0, 56, 0
2, 39957, Note_on_c, 0, 62, 0
2, 39964, Note_on_c, 0, 81, 71
2, 39965, Note_on_c, 0, 67, 55
2, 39966, Note_on_c, 0, 62, 51
2, 39966, Note_on_c, 0, 56, 69
2, 39967, Note_on_c, 0, 83, 47
2, 39975, Note_on_c, 0, 83, 0
2, 40021, Note_on_c, 0, 67, 0
2, 40027, Note_on_c, 0, 56, 0
2, 40028, Note_on_c, 0, 62, 0
2, 40029, Note_on_c, 0, 81, 0
2, 40043, Note_on_c, 0, 67, 60
2, 40044, Note_on_c, 0, 56, 63
2, 40045, Note_on_c, 0, 62, 84
2, 40046, Note_on_c, 0, 83, 83
2, 40078, Note_on_c, 0, 67, 0
2, 40079, Note_on_c, 0, 83, 0
2, 40100, Note_on_c, 0, 84, 71
2, 40126, Note_on_c, 0, 62, 0
2, 40141, Note_on_c, 0, 56, 0
2, 40144, Note_on_c, 0, 84, 0
2, 40151, Note_on_c, 0, 56, 14
2, 40156, Note_on_c, 0, 62, 58
2, 40159, Note_on_c, 0, 86, 80
2, 40159, Note_on_c, 0, 67, 71
2, 40182, Note_on_c, 0, 62, 0
2, 40183, Note_on_c, 0, 86, 0
2, 40185, Note_on_c, 0, 56, 0
2, 40208, Note_on_c, 0, 87, 74
2, 40227, Note_on_c, 0, 67, 0
2, 40263, Note_on_c, 0, 87, 0
2, 40277, Note_on_c, 0, 62, 52
2, 40277, Note_on_c, 0, 67, 48
2, 40278, Note_on_c, 0, 63, 52
2, 40279, Note_on_c, 0, 58, 46
2, 40282, Note_on_c, 0, 89, 88
2, 40301, Note_on_c, 0, 67, 0
2, 40313, Note_on_c, 0, 62, 0
2, 40314, Note_on_c, 0, 58, 0
2, 40315, Note_on_c, 0, 63, 0
2, 40352, Note_on_c, 0, 86, 48
2, 40361, Note_on_c, 0, 89, 0
2, 40397, Note_on_c, 0, 86, 0
2, 40409, Note_on_c, 0, 87, 82
2, 40446, Note_on_c, 0, 87, 0
2, 40458, Note_on_c, 0, 86, 55
2, 40514, Note_on_c, 0, 86, 0
2, 40522, Note_on_c, 0, 63, 50
2, 40522, Note_on_c, 0, 62, 51
2, 40524, Note_on_c, 0, 67, 58
2, 40526, Note_on_c, 0, 57, 62
2, 40526, Note_on_c, 0, 84, 74
2, 40559, Note_on_c, 0, 84, 0
2, 40589, Note_on_c, 0, 82, 57
2, 40625, Note_on_c, 0, 82, 0
2, 40658, Note_on_c, 0, 81, 101
2, 40681, Note_on_c, 0, 67, 0
2, 40692, Note_on_c, 0, 57, 0
2, 40695, Note_on_c, 0, 81, 0
2, 40703, Note_on_c, 0, 82, 51
2, 40709, Note_on_c, 0, 63, 0
2, 40721, Note_on_c, 0, 62, 0
2, 40732, Note_on_c, 0, 81, 63
2, 40734, Note_on_c, 0, 82, 0
2, 40762, Note_on_c, 0, 81, 0
2, 40767, Note_on_c, 0, 79, 75
2, 40771, Note_on_c, 0, 62, 31
2, 40783, Note_on_c, 0, 62, 0
2, 40787, Note_on_c, 0, 79, 0
2, 40805, Note_on_c, 0, 77, 77
2, 40847, Note_on_c, 0, 77, 0
2, 40891, Note_on_c, 0, 75, 88
2, 40925, Note_on_c, 0, 75, 0
2, 40942, Note_on_c, 0, 74, 61
2, 41009, Note_on_c, 0, 72, 67
2, 41016, Note_on_c, 0, 74, 0
2, 41029, Note_on_c, 0, 72, 0
2, 41049, Note_on_c, 0, 74, 68
2, 41120, Note_on_c, 0, 65, 75
2, 41124, Note_on_c, 0, 60, 51
2, 41125, Note_on_c, 0, 54, 33
2, 41132, Note_on_c, 0, 65, 0
2, 41133, Note_on_c, 0, 60, 0
2, 41135, Note_on_c, 0, 54, 0
2, 41278, Note_on_c, 0, 60, 66
2, 41279, Note_on_c, 0, 65, 78
2, 41279, Note_on_c, 0, 54, 74
2, 41341, Note_on_c, 0, 74, 0
2, 41468, Note_on_c, 0, 60, 0
2, 41494, Note_on_c, 0, 60, 44
2, 41515, Note_on_c, 0, 65, 0
2, 41523, Note_on_c, 0, 72, 72
2, 41531, Note_on_c, 0, 73, 62
2, 41539, Note_on_c, 0, 60, 0
2, 41556, Note_on_c, 0, 74, 48
2, 41558, Note_on_c, 0, 73, 0
2, 41561, Note_on_c, 0, 72, 0
2, 41578, Note_on_c, 0, 54, 0
2, 41586, Note_on_c, 0, 74, 0
2, 41598, Note_on_c, 0, 54, 53
2, 41599, Note_on_c, 0, 65, 59
2, 41602, Note_on_c, 0, 60, 60
2, 41607, Note_on_c, 0, 77, 89
2, 41622, Note_on_c, 0, 65, 0
2, 41696, Note_on_c, 0, 60, 0
2, 41697, Note_on_c, 0, 54, 0
2, 41706, Note_on_c, 0, 77, 0
2, 41723, Note_on_c, 0, 74, 91
2, 41726, Note_on_c, 0, 64, 71
2, 41727, Note_on_c, 0, 60, 64
2, 41728, Note_on_c, 0, 54, 68
2, 41745, Note_on_c, 0, 64, 0
2, 41753, Note_on_c, 0, 54, 0
2, 41753, Note_on_c, 0, 60, 0
2, 41758, Note_on_c, 0, 74, 0
2, 41843, Note_on_c, 0, 72, 88
2, 41848, Note_on_c, 0, 64, 68
2, 41848, Note_on_c, 0, 60, 62
2, 41850, Note_on_c, 0, 54, 62
2, 41865, Note_on_c, 0, 64, 0
2, 41868, Note_on_c, 0, 72, 0
2, 41900, Note_on_c, 0, 68, 55
2, 41900, Note_on_c, 0, 72, 63
2, 41905, Note_on_c, 0, 60, 0
2, 41933, Note_on_c, 0, 68, 0
2, 41944, Note_on_c, 0, 69, 28
2, 41970, Note_on_c, 0, 60, 27
2, 41975, Note_on_c, 0, 69, 0
2, 41981, Note_on_c, 0, 60, 0
2, 41986, Note_on_c, 0, 72, 0
2, 42012, Note_on_c, 0, 62, 71
2, 42040, Note_on_c, 0, 54, 0
2, 42084, Note_on_c, 0, 62, 0
2, 42091, Note_on_c, 0, 66, 74
2, 42091, Note_on_c, 0, 54, 62
2, 42131, Note_on_c, 0, 66, 0
2, 42137, Note_on_c, 0, 54, 0
2, 42148, Note_on_c, 0, 62, 20
2, 42196, Note_on_c, 0, 62, 0
2, 42213, Note_on_c, 0, 53, 60
2, 42222, Note_on_c, 0, 53, 0
2, 42227, Note_on_c, 0, 60, 31
2, 42263, Note_on_c, 0, 60, 0
2, 42279, Note_on_c, 0, 58, 48
2, 42349, Note_on_c, 0, 58, 0
2, 42370, Note_on_c, 0, 57, 60
2, 42438, Note_on_c, 0, 57, 0
2, 42447, Note_on_c, 0, 58, 79
2, 42498, Note_on_c, 0, 58, 0
2, 42576, Note_on_c, 0, 70, 84
2, 42576, Note_on_c, 0, 65, 84
2, 42578, Note_on_c, 0, 55, 79
2, 42578, Note_on_c, 0, 60, 71
2, 42579, Note_on_c, 0, 62, 68
2, 42586, Note_on_c, 0, 62, 0
2, 42592, Note_on_c, 0, 62, 24
2, 42606, Note_on_c, 0, 62, 0
2, 42607, Note_on_c, 0, 70, 0
2, 42609, Note_on_c, 0, 65, 0
2, 42609, Note_on_c, 0, 60, 0
2, 42629, Note_on_c, 0, 69, 54
2, 42632, Note_on_c, 0, 54, 48
2, 42635, Note_on_c, 0, 55, 0
2, 42696, Note_on_c, 0, 69, 0
2, 42700, Note_on_c, 0, 54, 0
2, 42702, Note_on_c, 0, 70, 75
2, 42703, Note_on_c, 0, 55, 71
2, 42704, Note_on_c, 0, 65, 74
2, 42705, Note_on_c, 0, 69, 20
2, 42725, Note_on_c, 0, 55, 0
2, 42728, Note_on_c, 0, 69, 0
2, 42731, Note_on_c, 0, 70, 0
2, 42736, Note_on_c, 0, 65, 0
2, 42767, Note_on_c, 0, 70, 72
2, 42769, Note_on_c, 0, 61, 64
2, 42770, Note_on_c, 0, 65, 78
2, 42775, Note_on_c, 0, 57, 44
2, 42836, Note_on_c, 0, 61, 0
2, 42840, Note_on_c, 0, 70, 0
2, 42840, Note_on_c, 0, 65, 0
2, 42842, Note_on_c, 0, 57, 0
2, 42851, Note_on_c, 0, 69, 56
2, 42856, Note_on_c, 0, 61, 19
2, 42856, Note_on_c, 0, 55, 53
2, 42857, Note_on_c, 0, 65, 24
2, 42886, Note_on_c, 0, 65, 0
2, 42906, Note_on_c, 0, 61, 0
2, 42914, Note_on_c, 0, 69, 0
2, 42930, Note_on_c, 0, 70, 69
2, 42931, Note_on_c, 0, 65, 76
2, 42932, Note_on_c, 0, 61, 57
2, 42932, Note_on_c, 0, 57, 64
2, 42943, Note_on_c, 0, 55, 0
2, 43067, Note_on_c, 0, 57, 0
2, 43069, Note_on_c, 0, 61, 0
2, 43073, Note_on_c, 0, 65, 0
2, 43091, Note_on_c, 0, 70, 0
2, 43180, Note_on_c, 0, 86, 90
2, 43181, Note_on_c, 0, 74, 87
2, 43215, Note_on_c, 0, 86, 0
2, 43216, Note_on_c, 0, 74, 0
2, 43238, Note_on_c, 0, 84, 57
2, 43244, Note_on_c, 0, 72, 56
2, 43302, Note_on_c, 0, 84, 0
2, 43307, Note_on_c, 0, 72, 0
2, 43334, Note_on_c, 0, 83, 53
2, 43375, Note_on_c, 0, 83, 0
2, 43418, Note_on_c, 0, 84, 74
2, 43420, Note_on_c, 0, 72, 75
2, 43435, Note_on_c, 0, 72, 0
2, 43435, Note_on_c, 0, 84, 0
2, 43496, Note_on_c, 0, 61, 57
2, 43497, Note_on_c, 0, 81, 74
2, 43499, Note_on_c, 0, 64, 50
2, 43501, Note_on_c, 0, 69, 70
2, 43504, Note_on_c, 0, 73, 47
2, 43505, Note_on_c, 0, 76, 37
2, 43528, Note_on_c, 0, 76, 0
2, 43538, Note_on_c, 0, 73, 0
2, 43556, Note_on_c, 0, 61, 0
2, 43556, Note_on_c, 0, 64, 0
2, 43556, Note_on_c, 0, 81, 0
2, 43559, Note_on_c, 0, 69, 0
2, 43575, Note_on_c, 0, 61, 46
2, 43577, Note_on_c, 0, 76, 37
2, 43641, Note_on_c, 0, 76, 0
2, 43653, Note_on_c, 0, 79, 74
2, 43653, Note_on_c, 0, 62, 67
2, 43654, Note_on_c, 0, 61, 0
2, 43656, Note_on_c, 0, 69, 71
2, 43657, Note_on_c, 0, 72, 67
2, 43677, Note_on_c, 0, 72, 0
2, 43681, Note_on_c, 0, 69, 0
2, 43686, Note_on_c, 0, 79, 0
2, 43689, Note_on_c, 0, 62, 0
2, 43736, Note_on_c, 0, 77, 71
2, 43737, Note_on_c, 0, 60, 53
2, 43740, Note_on_c, 0, 69, 68
2, 43741, Note_on_c, 0, 72, 51
2, 43761, Note_on_c, 0, 72, 0
2, 43765, Note_on_c, 0, 77, 0
2, 43773, Note_on_c, 0, 69, 0
2, 43796, Note_on_c, 0, 60, 0
2, 43811, Note_on_c, 0, 74, 71
2, 43813, Note_on_c, 0, 54, 72
2, 43814, Note_on_c, 0, 65, 72
2, 43858, Note_on_c, 0, 74, 0
2, 43862, Note_on_c, 0, 65, 0
2, 43865, Note_on_c, 0, 54, 0
2, 43893, Note_on_c, 0, 70, 74
2, 43897, Note_on_c, 0, 54, 69
2, 43897, Note_on_c, 0, 60, 46
2, 43898, Note_on_c, 0, 62, 60
2, 43929, Note_on_c, 0, 54, 0
2, 43942, Note_on_c, 0, 60, 0
2, 43950, Note_on_c, 0, 62, 0
2, 44008, Note_on_c, 0, 65, 74
2, 44009, Note_on_c, 0, 60, 62
2, 44010, Note_on_c, 0, 54, 71
2, 44023, Note_on_c, 0, 43, 26
2, 44031, Note_on_c, 0, 43, 0
2, 44063, Note_on_c, 0, 54, 0
2, 44107, Note_on_c, 0, 70, 0
2, 44127, Note_on_c, 0, 65, 0
2, 44134, Note_on_c, 0, 60, 0
2, 44134, Note_on_c, 0, 50, 55
2, 44160, Note_on_c, 0, 50, 0
2, 44169, Note_on_c, 0, 64, 66
2, 44169, Note_on_c, 0, 53, 54
2, 44171, Note_on_c, 0, 59, 52
2, 44234, Note_on_c, 0, 64, 0
2, 44235, Note_on_c, 0, 59, 0
2, 44266, Note_on_c, 0, 53, 0
2, 44285, Note_on_c, 0, 63, 58
2, 44285, Note_on_c, 0, 52, 48
2, 44285, Note_on_c, 0, 58, 58
2, 44355, Note_on_c, 0, 58, 0
2, 44359, Note_on_c, 0, 63, 0
2, 44361, Note_on_c, 0, 52, 0
2, 44369, Note_on_c, 0, 53, 53
2, 44396, Note_on_c, 0, 53, 0
2, 44412, Note_on_c, 0, 59, 48
2, 44413, Note_on_c, 0, 50, 57
2, 44415, Note_on_c, 0, 62, 55
2, 44461, Note_on_c, 0, 59, 0
2, 44475, Note_on_c, 0, 62, 0
2, 44492, Note_on_c, 0, 50, 0
2, 44493, Note_on_c, 0, 65, 69
2, 44493, Note_on_c, 0, 59, 53
2, 44493, Note_on_c, 0, 53, 61
2, 44493, Note_on_c, 0, 62, 67
2, 44501, Note_on_c, 0, 59, 0
2, 44502, Note_on_c, 0, 62, 0
2, 44506, Note_on_c, 0, 53, 0
2, 44512, Note_on_c, 0, 65, 0
2, 44606, Note_on_c, 0, 58, 77
2, 44607, Note_on_c, 0, 61, 68
2, 44608, Note_on_c, 0, 69, 66
2, 44608, Note_on_c, 0, 64, 66
2, 44610, Note_on_c, 0, 57, 78
2, 44625, Note_on_c, 0, 58, 0
2, 44627, Note_on_c, 0, 57, 0
2, 44630, Note_on_c, 0, 61, 0
2, 44630, Note_on_c, 0, 64, 0
2, 44634, Note_on_c, 0, 69, 0
2, 44726, Note_on_c, 0, 70, 74
2, 44726, Note_on_c, 0, 67, 69
2, 44726, Note_on_c, 0, 75, 80
2, 44727, Note_on_c, 0, 64, 75
2, 44727, Note_on_c, 0, 63, 82
2, 44746, Note_on_c, 0, 63, 0
2, 44746, Note_on_c, 0, 64, 0
2, 44747, Note_on_c, 0, 67, 0
2, 44754, Note_on_c, 0, 70, 0
2, 44757, Note_on_c, 0, 75, 0
2, 44848, Note_on_c, 0, 81, 81
2, 44850, Note_on_c, 0, 73, 78
2, 44852, Note_on_c, 0, 76, 65
2, 44852, Note_on_c, 0, 71, 70
2, 44852, Note_on_c, 0, 70, 61
2, 44852, Note_on_c, 0, 69, 74
2, 44859, Note_on_c, 0, 71, 0
2, 44869, Note_on_c, 0, 70, 0
2, 44874, Note_on_c, 0, 73, 0
2, 44876, Note_on_c, 0, 69, 0
2, 44881, Note_on_c, 0, 81, 0
2, 44881, Note_on_c, 0, 76, 0
2, 44963, Note_on_c, 0, 76, 71
2, 44963, Note_on_c, 0, 73, 76
2, 44963, Note_on_c, 0, 70, 83
2, 44964, Note_on_c, 0, 64, 80
2, 44983, Note_on_c, 0, 64, 0
2, 44985, Note_on_c, 0, 70, 0
2, 44992, Note_on_c, 0, 73, 0
2, 44995, Note_on_c, 0, 76, 0
2, 45084, Note_on_c, 0, 79, 90
2, 45084, Note_on_c, 0, 74, 85
2, 45084, Note_on_c, 0, 84, 87
2, 45085, Note_on_c, 0, 69, 87
2, 45104, Note_on_c, 0, 69, 0
2, 45111, Note_on_c, 0, 84, 0
2, 45116, Note_on_c, 0, 74, 0
2, 45117, Note_on_c, 0, 79, 0
2, 45203, Note_on_c, 0, 76, 71
2, 45204, Note_on_c, 0, 60, 77
2, 45206, Note_on_c, 0, 72, 77
2, 45206, Note_on_c, 0, 69, 81
2, 45220, Note_on_c, 0, 69, 0
2, 45221, Note_on_c, 0, 72, 0
2, 45222, Note_on_c, 0, 60, 0
2, 45230, Note_on_c, 0, 76, 0
2, 45322, Note_on_c, 0, 64, 80
2, 45325, Note_on_c, 0, 79, 83
2, 45325, Note_on_c, 0, 72, 89
2, 45326, Note_on_c, 0, 69, 90
2, 45327, Note_on_c, 0, 76, 61
2, 45335, Note_on_c, 0, 76, 0
2, 45339, Note_on_c, 0, 64, 0
2, 45343, Note_on_c, 0, 69, 0
2, 45343, Note_on_c, 0, 72, 0
2, 45348, Note_on_c, 0, 79, 0
2, 45442, Note_on_c, 0, 57, 81
2, 45443, Note_on_c, 0, 72, 71
2, 45444, Note_on_c, 0, 67, 69
2, 45444, Note_on_c, 0, 64, 80
2, 45445, Note_on_c, 0, 69, 66
2, 45686, Note_on_c, 0, 64, 0
2, 45693, Note_on_c, 0, 67, 0
2, 45696, Note_on_c, 0, 72, 0
2, 45701, Note_on_c, 0, 69, 0
2, 45715, Note_on_c, 0, 57, 0
2, 45716, Note_on_c, 0, 56, 59
2, 45717, Note_on_c, 0, 71, 57
2, 45717, Note_on_c, 0, 64, 57
2, 45722, Note_on_c, 0, 67, 37
2, 45763, Note_on_c, 0, 67, 0
2, 45774, Note_on_c, 0, 64, 0
2, 45786, Note_on_c, 0, 71, 0
2, 45801, Note_on_c, 0, 64, 71
2, 45802, Note_on_c, 0, 57, 76
2, 45803, Note_on_c, 0, 72, 66
2, 45803, Note_on_c, 0, 67, 66
2, 45807, Note_on_c, 0, 69, 66
2, 45808, Note_on_c, 0, 71, 35
2, 45815, Note_on_c, 0, 56, 0
2, 45946, Note_on_c, 0, 57, 0
2, 46030, Note_on_c, 0, 64, 0
2, 46073, Note_on_c, 0, 67, 0
2, 46076, Note_on_c, 0, 61, 56
2, 46077, Note_on_c, 0, 69, 0
2, 46078, Note_on_c, 0, 66, 51
2, 46078, Note_on_c, 0, 55, 59
2, 46082, Note_on_c, 0, 71, 0
2, 46085, Note_on_c, 0, 72, 0
2, 46453, Note_on_c, 0, 84, 91
2, 46460, Note_on_c, 0, 66, 0
2, 46467, Note_on_c, 0, 55, 0
2, 46490, Note_on_c, 0, 79, 65
2, 46495, Note_on_c, 0, 61, 0
2, 46497, Note_on_c, 0, 84, 0
2, 46519, Note_on_c, 0, 79, 0
2, 46528, Note_on_c, 0, 73, 47
2, 46549, Note_on_c, 0, 61, 18
2, 46553, Note_on_c, 0, 73, 0
2, 46562, Note_on_c, 0, 61, 0
2, 46569, Note_on_c, 0, 81, 76
2, 46599, Note_on_c, 0, 81, 0
2, 46602, Note_on_c, 0, 76, 49
2, 46630, Note_on_c, 0, 76, 0
2, 46639, Note_on_c, 0, 70, 56
2, 46661, Note_on_c, 0, 70, 0
2, 46680, Note_on_c, 0, 78, 78
2, 46696, Note_on_c, 0, 78, 0
2, 46721, Note_on_c, 0, 73, 59
2, 46736, Note_on_c, 0, 73, 0
2, 46760, Note_on_c, 0, 65, 24
2, 46776, Note_on_c, 0, 65, 0
2, 46789, Note_on_c, 0, 75, 80
2, 46796, Note_on_c, 0, 61, 35
2, 46814, Note_on_c, 0, 61, 0
2, 46821, Note_on_c, 0, 75, 0
2, 46823, Note_on_c, 0, 70, 51
2, 46854, Note_on_c, 0, 70, 0
2, 46855, Note_on_c, 0, 64, 51
2, 46879, Note_on_c, 0, 64, 0
2, 46886, Note_on_c, 0, 72, 69
2, 46900, Note_on_c, 0, 68, 53
2, 46911, Note_on_c, 0, 68, 0
2, 46917, Note_on_c, 0, 72, 0
2, 46944, Note_on_c, 0, 61, 51
2, 46960, Note_on_c, 0, 61, 0
2, 46970, Note_on_c, 0, 69, 67
2, 47002, Note_on_c, 0, 69, 0
2, 47005, Note_on_c, 0, 64, 46
2, 47031, Note_on_c, 0, 64, 0
2, 47032, Note_on_c, 0, 58, 62
2, 47063, Note_on_c, 0, 58, 0
2, 47288, Note_on_c, 0, 66, 67
2, 47288, Note_on_c, 0, 55, 68
2, 47289, Note_on_c, 0, 61, 57
2, 47316, Note_on_c, 0, 55, 0
2, 47320, Note_on_c, 0, 66, 0
2, 47322, Note_on_c, 0, 61, 0
2, 47515, Note_on_c, 0, 65, 62
2, 47516, Note_on_c, 0, 60, 52
2, 47517, Note_on_c, 0, 54, 47
2, 47563, Note_on_c, 0, 54, 0
2, 47565, Note_on_c, 0, 65, 0
2, 47568, Note_on_c, 0, 60, 0
2, 47595, Note_on_c, 0, 66, 64
2, 47596, Note_on_c, 0, 55, 62
2, 47600, Note_on_c, 0, 61, 51
2, 47603, Note_on_c, 0, 55, 0
2, 47609, Note_on_c, 0, 66, 0
2, 47628, Note_on_c, 0, 61, 0
2, 47642, Note_on_c, 0, 79, 44
2, 47691, Note_on_c, 0, 79, 0
2, 47708, Note_on_c, 0, 81, 71
2, 47731, Note_on_c, 0, 81, 0
2, 47744, Note_on_c, 0, 82, 62
2, 47767, Note_on_c, 0, 82, 0
2, 47783, Note_on_c, 0, 84, 58
2, 47804, Note_on_c, 0, 84, 0
2, 47818, Note_on_c, 0, 85, 76
2, 47843, Note_on_c, 0, 85, 0
2, 47856, Note_on_c, 0, 87, 70
2, 47861, Note_on_c, 0, 69, 64
2, 47863, Note_on_c, 0, 64, 57
2, 47865, Note_on_c, 0, 58, 34
2, 47878, Note_on_c, 0, 69, 0
2, 47880, Note_on_c, 0, 58, 0
2, 47882, Note_on_c, 0, 87, 0
2, 47884, Note_on_c, 0, 64, 0
2, 47896, Note_on_c, 0, 88, 64
2, 47918, Note_on_c, 0, 88, 0
2, 47933, Note_on_c, 0, 90, 58
2, 47951, Note_on_c, 0, 90, 0
2, 47966, Note_on_c, 0, 91, 61
2, 47990, Note_on_c, 0, 91, 0
2, 48004, Note_on_c, 0, 93, 69
2, 48021, Note_on_c, 0, 93, 0
2, 48040, Note_on_c, 0, 94, 69
2, 48063, Note_on_c, 0, 94, 0
2, 48074, Note_on_c, 0, 69, 64
2, 48075, Note_on_c, 0, 64, 59
2, 48075, Note_on_c, 0, 58, 51
2, 48079, Note_on_c, 0, 96, 77
2, 48094, Note_on_c, 0, 69, 0
2, 48100, Note_on_c, 0, 64, 0
2, 48108, Note_on_c, 0, 96, 0
2, 48119, Note_on_c, 0, 93, 63
2, 48123, Note_on_c, 0, 58, 0
2, 48142, Note_on_c, 0, 93, 0
2, 48153, Note_on_c, 0, 94, 77
2, 48157, Note_on_c, 0, 62, 65
2, 48157, Note_on_c, 0, 57, 64
2, 48157, Note_on_c, 0, 67, 63
2, 48194, Note_on_c, 0, 94, 0
2, 48227, Note_on_c, 0, 62, 0
2, 48228, Note_on_c, 0, 67, 0
2, 48231, Note_on_c, 0, 57, 0
2, 48323, Note_on_c, 0, 58, 67
2, 48326, Note_on_c, 0, 69, 58
2, 48327, Note_on_c, 0, 64, 68
2, 48370, Note_on_c, 0, 64, 0
2, 48373, Note_on_c, 0, 69, 0
2, 48378, Note_on_c, 0, 58, 0
2, 48443, Note_on_c, 0, 70, 72
2, 48443, Note_on_c, 0, 65, 69
2, 48445, Note_on_c, 0, 60, 64
2, 48494, Note_on_c, 0, 60, 0
2, 48497, Note_on_c, 0, 65, 0
2, 48497, Note_on_c, 0, 70, 0
2, 48522, Note_on_c, 0, 93, 92
2, 48570, Note_on_c, 0, 93, 0
2, 48598, Note_on_c, 0, 96, 91
2, 48600, Note_on_c, 0, 84, 91
2, 48633, Note_on_c, 0, 96, 0
2, 48649, Note_on_c, 0, 84, 0
2, 48676, Note_on_c, 0, 58, 74
2, 48677, Note_on_c, 0, 64, 65
2, 48677, Note_on_c, 0, 69, 75
2, 48677, Note_on_c, 0, 94, 82
2, 48680, Note_on_c, 0, 82, 82
2, 48724, Note_on_c, 0, 94, 0
2, 48729, Note_on_c, 0, 82, 0
2, 48734, Note_on_c, 0, 64, 0
2, 48739, Note_on_c, 0, 69, 0
2, 48757, Note_on_c, 0, 93, 85
2, 48760, Note_on_c, 0, 81, 71
2, 48775, Note_on_c, 0, 58, 0
2, 48807, Note_on_c, 0, 93, 0
2, 48816, Note_on_c, 0, 81, 0
2, 48835, Note_on_c, 0, 67, 60
2, 48835, Note_on_c, 0, 62, 62
2, 48839, Note_on_c, 0, 57, 54
2, 48839, Note_on_c, 0, 91, 74
2, 48841, Note_on_c, 0, 79, 72
2, 48889, Note_on_c, 0, 91, 0
2, 48890, Note_on_c, 0, 62, 0
2, 48895, Note_on_c, 0, 57, 0
2, 48900, Note_on_c, 0, 79, 0
2, 48904, Note_on_c, 0, 67, 0
2, 48926, Note_on_c, 0, 89, 76
2, 48929, Note_on_c, 0, 77, 72
2, 48960, Note_on_c, 0, 89, 0
2, 48974, Note_on_c, 0, 77, 0
2, 48996, Note_on_c, 0, 58, 62
2, 48996, Note_on_c, 0, 69, 60
2, 48998, Note_on_c, 0, 64, 60
2, 48999, Note_on_c, 0, 88, 78
2, 49000, Note_on_c, 0, 76, 66
2, 49052, Note_on_c, 0, 88, 0
2, 49058, Note_on_c, 0, 76, 0
2, 49070, Note_on_c, 0, 64, 0
2, 49071, Note_on_c, 0, 69, 0
2, 49082, Note_on_c, 0, 86, 70
2, 49084, Note_on_c, 0, 74, 66
2, 49107, Note_on_c, 0, 58, 0
2, 49129, Note_on_c, 0, 86, 0
2, 49136, Note_on_c, 0, 74, 0
2, 49161, Note_on_c, 0, 67, 62
2, 49163, Note_on_c, 0, 57, 62
2, 49163, Note_on_c, 0, 62, 58
2, 49164, Note_on_c, 0, 84, 73
2, 49167, Note_on_c, 0, 72, 74
2, 49199, Note_on_c, 0, 84, 0
2, 49205, Note_on_c, 0, 62, 0
2, 49207, Note_on_c, 0, 67, 0
2, 49208, Note_on_c, 0, 72, 0
2, 49225, Note_on_c, 0, 57, 0
2, 49243, Note_on_c, 0, 82, 71
2, 49247, Note_on_c, 0, 70, 74
2, 49293, Note_on_c, 0, 82, 0
2, 49299, Note_on_c, 0, 70, 0
2, 49322, Note_on_c, 0, 64, 62
2, 49323, Note_on_c, 0, 58, 64
2, 49324, Note_on_c, 0, 81, 69
2, 49329, Note_on_c, 0, 69, 66
2, 49332, Note_on_c, 0, 80, 38
2, 49349, Note_on_c, 0, 80, 0
2, 49365, Note_on_c, 0, 81, 0
2, 49373, Note_on_c, 0, 64, 0
2, 49380, Note_on_c, 0, 69, 0
2, 49383, Note_on_c, 0, 58, 0
2, 49406, Note_on_c, 0, 79, 64
2, 49406, Note_on_c, 0, 57, 53
2, 49408, Note_on_c, 0, 64, 68
2, 49409, Note_on_c, 0, 67, 68
2, 49415, Note_on_c, 0, 78, 37
2, 49422, Note_on_c, 0, 78, 0
2, 49646, Note_on_c, 0, 79, 0
2, 49654, Note_on_c, 0, 67, 0
2, 49682, Note_on_c, 0, 77, 80
2, 49685, Note_on_c, 0, 65, 90
2, 49691, Note_on_c, 0, 64, 0
2, 49715, Note_on_c, 0, 57, 0
2, 49744, Note_on_c, 0, 77, 0
2, 49759, Note_on_c, 0, 65, 0
2, 49767, Note_on_c, 0, 75, 77
2, 49804, Note_on_c, 0, 75, 0
2, 49831, Note_on_c, 0, 74, 41
2, 49884, Note_on_c, 0, 74, 0
2, 49895, Note_on_c, 0, 72, 65
2, 49932, Note_on_c, 0, 72, 0
2, 49950, Note_on_c, 0, 70, 35
2, 50023, Note_on_c, 0, 70, 0
2, 50025, Note_on_c, 0, 67, 44
2, 50035, Note_on_c, 0, 67, 0
2, 50061, Note_on_c, 0, 69, 90
2, 50137, Note_on_c, 0, 67, 70
2, 50147, Note_on_c, 0, 69, 0
2, 50180, Note_on_c, 0, 67, 0
2, 50196, Note_on_c, 0, 65, 37
2, 50266, Note_on_c, 0, 65, 0
2, 50289, Note_on_c, 0, 63, 61
2, 50397, Note_on_c, 0, 63, 0
2, 50412, Note_on_c, 0, 62, 74
2, 50503, Note_on_c, 0, 62, 0
2, 50529, Note_on_c, 0, 61, 64
2, 50624, Note_on_c, 0, 61, 0
2, 50646, Note_on_c, 0, 60, 62
2, 50728, Note_on_c, 0, 60, 0
2, 50728, Note_on_c, 0, 59, 69
2, 50731, Note_on_c, 0, 47, 47
2, 50733, Note_on_c, 0, 57, 43
2, 50744, Note_on_c, 0, 57, 0
2, 50761, Note_on_c, 0, 57, 17
2, 50817, Note_on_c, 0, 57, 0
2, 50831, Note_on_c, 0, 57, 58
2, 50837, Note_on_c, 0, 47, 0
2, 50837, Note_on_c, 0, 59, 0
2, 50853, Note_on_c, 0, 57, 0
2, 50865, Note_on_c, 0, 59, 66
2, 50894, Note_on_c, 0, 59, 0
2, 50897, Note_on_c, 0, 46, 28
2, 50902, Note_on_c, 0, 57, 51
2, 50903, Note_on_c, 0, 53, 24
2, 50930, Note_on_c, 0, 57, 0
2, 50939, Note_on_c, 0, 58, 65
2, 50982, Note_on_c, 0, 58, 0
2, 51012, Note_on_c, 0, 46, 0
2, 51033, Note_on_c, 0, 53, 0
2, 51086, Note_on_c, 0, 46, 58
2, 51091, Note_on_c, 0, 57, 55
2, 51100, Note_on_c, 0, 57, 0
2, 51111, Note_on_c, 0, 46, 0
2, 51262, Note_on_c, 0, 75, 86
2, 51298, Note_on_c, 0, 75, 0
2, 51300, Note_on_c, 0, 74, 65
2, 51336, Note_on_c, 0, 70, 69
2, 51337, Note_on_c, 0, 74, 0
2, 51339, Note_on_c, 0, 62, 26
2, 51349, Note_on_c, 0, 62, 0
2, 51370, Note_on_c, 0, 70, 0
2, 51380, Note_on_c, 0, 65, 45
2, 51396, Note_on_c, 0, 65, 0
2, 51420, Note_on_c, 0, 72, 75
2, 51447, Note_on_c, 0, 72, 0
2, 51456, Note_on_c, 0, 65, 62
2, 51458, Note_on_c, 0, 61, 48
2, 51458, Note_on_c, 0, 55, 47
2, 51460, Note_on_c, 0, 70, 71
2, 51463, Note_on_c, 0, 65, 0
2, 51483, Note_on_c, 0, 70, 0
2, 51485, Note_on_c, 0, 61, 0
2, 51486, Note_on_c, 0, 55, 0
2, 51504, Note_on_c, 0, 65, 50
2, 51520, Note_on_c, 0, 65, 0
2, 51540, Note_on_c, 0, 61, 59
2, 51570, Note_on_c, 0, 61, 0
2, 51581, Note_on_c, 0, 60, 64
2, 51606, Note_on_c, 0, 60, 0
2, 51625, Note_on_c, 0, 58, 68
2, 51669, Note_on_c, 0, 58, 0
2, 51690, Note_on_c, 0, 60, 30
2, 51699, Note_on_c, 0, 58, 45
2, 51717, Note_on_c, 0, 60, 0
2, 51734, Note_on_c, 0, 57, 44
2, 51739, Note_on_c, 0, 58, 0
2, 51811, Note_on_c, 0, 53, 50
2, 51812, Note_on_c, 0, 57, 0
2, 51812, Note_on_c, 0, 54, 60
2, 51814, Note_on_c, 0, 43, 34
2, 51819, Note_on_c, 0, 53, 0
2, 51827, Note_on_c, 0, 43, 0
2, 51845, Note_on_c, 0, 54, 0
2, 51867, Note_on_c, 0, 55, 45
2, 51926, Note_on_c, 0, 55, 0
2, 51928, Note_on_c, 0, 57, 62
2, 51957, Note_on_c, 0, 57, 0
2, 51966, Note_on_c, 0, 58, 46
2, 51990, Note_on_c, 0, 58, 0
2, 52008, Note_on_c, 0, 62, 69
2, 52036, Note_on_c, 0, 62, 0
2, 52044, Note_on_c, 0, 66, 65
2, 52055, Note_on_c, 0, 62, 49
2, 52057, Note_on_c, 0, 58, 42
2, 52058, Note_on_c, 0, 53, 28
2, 52058, Note_on_c, 0, 57, 40
2, 52073, Note_on_c, 0, 66, 0
2, 52086, Note_on_c, 0, 69, 71
2, 52112, Note_on_c, 0, 69, 0
2, 52123, Note_on_c, 0, 66, 46
2, 52144, Note_on_c, 0, 66, 0
2, 52156, Note_on_c, 0, 67, 59
2, 52183, Note_on_c, 0, 67, 0
2, 52191, Note_on_c, 0, 69, 60
2, 52208, Note_on_c, 0, 57, 0
2, 52209, Note_on_c, 0, 53, 0
2, 52211, Note_on_c, 0, 62, 0
2, 52220, Note_on_c, 0, 69, 0
2, 52224, Note_on_c, 0, 58, 0
2, 52229, Note_on_c, 0, 70, 48
2, 52252, Note_on_c, 0, 70, 0
2, 52267, Note_on_c, 0, 72, 65
2, 52279, Note_on_c, 0, 63, 65
2, 52282, Note_on_c, 0, 58, 50
2, 52287, Note_on_c, 0, 52, 50
2, 52301, Note_on_c, 0, 72, 0
2, 52304, Note_on_c, 0, 73, 62
2, 52315, Note_on_c, 0, 52, 0
2, 52318, Note_on_c, 0, 63, 0
2, 52323, Note_on_c, 0, 73, 0
2, 52330, Note_on_c, 0, 58, 0
2, 52343, Note_on_c, 0, 76, 50
2, 52374, Note_on_c, 0, 76, 0
2, 52381, Note_on_c, 0, 80, 30
2, 52397, Note_on_c, 0, 80, 0
2, 52415, Note_on_c, 0, 85, 79
2, 52438, Note_on_c, 0, 85, 0
2, 52458, Note_on_c, 0, 87, 87
2, 52459, Note_on_c, 0, 75, 86
2, 52514, Note_on_c, 0, 87, 0
2, 52516, Note_on_c, 0, 75, 0
2, 52535, Note_on_c, 0, 64, 55
2, 52535, Note_on_c, 0, 85, 70
2, 52535, Note_on_c, 0, 58, 45
2, 52535, Note_on_c, 0, 69, 52
2, 52536, Note_on_c, 0, 73, 69
2, 52566, Note_on_c, 0, 85, 0
2, 52573, Note_on_c, 0, 73, 0
2, 52596, Note_on_c, 0, 87, 62
2, 52597, Note_on_c, 0, 75, 50
2, 52624, Note_on_c, 0, 87, 0
2, 52630, Note_on_c, 0, 75, 0
2, 52650, Note_on_c, 0, 85, 70
2, 52652, Note_on_c, 0, 73, 59
2, 52664, Note_on_c, 0, 64, 0
2, 52671, Note_on_c, 0, 69, 0
2, 52681, Note_on_c, 0, 73, 0
2, 52685, Note_on_c, 0, 85, 0
2, 52699, Note_on_c, 0, 84, 57
2, 52703, Note_on_c, 0, 72, 43
2, 52737, Note_on_c, 0, 72, 0
2, 52741, Note_on_c, 0, 84, 0
2, 52741, Note_on_c, 0, 58, 0
2, 52762, Note_on_c, 0, 67, 71
2, 52763, Note_on_c, 0, 57, 76
2, 52764, Note_on_c, 0, 63, 67
2, 52874, Note_on_c, 0, 86, 70
2, 52877, Note_on_c, 0, 74, 58
2, 52894, Note_on_c, 0, 74, 0
2, 52898, Note_on_c, 0, 86, 0
2, 52900, Note_on_c, 0, 67, 0
2, 52917, Note_on_c, 0, 84, 41
2, 52921, Note_on_c, 0, 63, 0
2, 52934, Note_on_c, 0, 84, 0
2, 52955, Note_on_c, 0, 86, 78
2, 52957, Note_on_c, 0, 74, 66
2, 52959, Note_on_c, 0, 57, 0
2, 52993, Note_on_c, 0, 86, 0
2, 52996, Note_on_c, 0, 74, 0
2, 53014, Note_on_c, 0, 65, 49
2, 53016, Note_on_c, 0, 62, 44
2, 53017, Note_on_c, 0, 60, 36
2, 53019, Note_on_c, 0, 84, 68
2, 53021, Note_on_c, 0, 72, 61
2, 53038, Note_on_c, 0, 72, 0
2, 53040, Note_on_c, 0, 84, 0
2, 53071, Note_on_c, 0, 81, 49
2, 53074, Note_on_c, 0, 69, 49
2, 53104, Note_on_c, 0, 69, 0
2, 53105, Note_on_c, 0, 81, 0
2, 53132, Note_on_c, 0, 81, 68
2, 53136, Note_on_c, 0, 69, 64
2, 53141, Note_on_c, 0, 65, 0
2, 53153, Note_on_c, 0, 81, 0
2, 53153, Note_on_c, 0, 69, 0
2, 53174, Note_on_c, 0, 79, 42
2, 53179, Note_on_c, 0, 67, 38
2, 53199, Note_on_c, 0, 60, 0
2, 53209, Note_on_c, 0, 67, 0
2, 53214, Note_on_c, 0, 79, 0
2, 53217, Note_on_c, 0, 62, 0
2, 53247, Note_on_c, 0, 62, 44
2, 53248, Note_on_c, 0, 81, 78
2, 53250, Note_on_c, 0, 69, 66
2, 53250, Note_on_c, 0, 65, 45
2, 53253, Note_on_c, 0, 60, 38
2, 53256, Note_on_c, 0, 74, 28
2, 53272, Note_on_c, 0, 74, 0
2, 53378, Note_on_c, 0, 65, 0
2, 53385, Note_on_c, 0, 60, 0
2, 53386, Note_on_c, 0, 81, 0
2, 53388, Note_on_c, 0, 69, 0
2, 53389, Note_on_c, 0, 62, 0
2, 53407, Note_on_c, 0, 62, 40
2, 53410, Note_on_c, 0, 79, 55
2, 53410, Note_on_c, 0, 60, 46
2, 53411, Note_on_c, 0, 65, 49
2, 53411, Note_on_c, 0, 67, 54
2, 53414, Note_on_c, 0, 74, 46
2, 53485, Note_on_c, 0, 65, 0
2, 53497, Note_on_c, 0, 79, 0
2, 53501, Note_on_c, 0, 62, 0
2, 53501, Note_on_c, 0, 60, 0
2, 53502, Note_on_c, 0, 67, 0
2, 53506, Note_on_c, 0, 74, 0
2, 53525, Control_c, 0, 64, 127
2, 53529, Note_on_c, 0, 62, 50
2, 53532, Note_on_c, 0, 77, 37
2, 53532, Note_on_c, 0, 60, 53
2, 53536, Note_on_c, 0, 65, 61
2, 53563, Note_on_c, 0, 62, 0
2, 53564, Note_on_c, 0, 65, 0
2, 53565, Note_on_c, 0, 60, 0
2, 53572, Note_on_c, 0, 77, 0
2, 53619, Note_on_c, 0, 67, 60
2, 53619, Note_on_c, 0, 79, 51
2, 53627, Note_on_c, 0, 79, 0
2, 53627, Note_on_c, 0, 67, 0
2, 53655, Note_on_c, 0, 60, 56
2, 53655, Note_on_c, 0, 62, 44
2, 53657, Note_on_c, 0, 80, 70
2, 53658, Note_on_c, 0, 68, 67
2, 53672, Note_on_c, 0, 62, 0
2, 53678, Note_on_c, 0, 60, 0
2, 53703, Note_on_c, 0, 80, 0
2, 53703, Note_on_c, 0, 68, 0
2, 53733, Note_on_c, 0, 81, 67
2, 53734, Note_on_c, 0, 69, 72
2, 53735, Note_on_c, 0, 55, 55
2, 53735, Note_on_c, 0, 76, 62
2, 53737, Control_c, 0, 64, 0
2, 53737, Note_on_c, 0, 61, 53
2, 53739, Note_on_c, 0, 66, 38
2, 53880, Control_c, 0, 64, 127
2, 53994, Note_on_c, 0, 66, 0
2, 54002, Note_on_c, 0, 55, 0
2, 54004, Note_on_c, 0, 76, 0
2, 54014, Note_on_c, 0, 81, 0
2, 54016, Note_on_c, 0, 69, 0
2, 54045, Note_on_c, 0, 61, 0
2, 54088, Note_on_c, 0, 61, 77
2, 54089, Note_on_c, 0, 66, 83
2, 54089, Note_on_c, 0, 55, 81
2, 54089, Note_on_c, 0, 79, 87
2, 54091, Note_on_c, 0, 74, 85
2, 54091, Note_on_c, 0, 67, 94
2, 54096, Control_c, 0, 64, 0
2, 54133, Control_c, 0, 64, 127
2, 54180, Note_on_c, 0, 67, 0
2, 54183, Note_on_c, 0, 55, 0
2, 54188, Note_on_c, 0, 79, 0
2, 54188, Note_on_c, 0, 66, 0
2, 54191, Note_on_c, 0, 61, 0
2, 54193, Note_on_c, 0, 74, 0
2, 54204, Note_on_c, 0, 66, 65
2, 54206, Note_on_c, 0, 55, 57
2, 54206, Note_on_c, 0, 77, 60
2, 54208, Note_on_c, 0, 61, 62
2, 54208, Note_on_c, 0, 65, 69
2, 54236, Note_on_c, 0, 55, 0
2, 54238, Note_on_c, 0, 65, 0
2, 54244, Note_on_c, 0, 66, 0
2, 54244, Note_on_c, 0, 77, 0
2, 54244, Control_c, 0, 64, 0
2, 54254, Note_on_c, 0, 61, 0
2, 54280, Note_on_c, 0, 79, 74
2, 54280, Note_on_c, 0, 61, 57
2, 54280, Note_on_c, 0, 66, 62
2, 54282, Note_on_c, 0, 67, 65
2, 54282, Note_on_c, 0, 55, 71
2, 54284, Note_on_c, 0, 73, 63
2, 54320, Note_on_c, 0, 73, 0
2, 54322, Note_on_c, 0, 74, 51
2, 54340, Note_on_c, 0, 67, 0
2, 54344, Note_on_c, 0, 55, 0
2, 54350, Note_on_c, 0, 66, 0
2, 54350, Note_on_c, 0, 79, 0
2, 54352, Note_on_c, 0, 74, 0
2, 54355, Note_on_c, 0, 61, 0
2, 54374, Note_on_c, 0, 66, 52
2, 54375, Note_on_c, 0, 61, 50
2, 54375, Note_on_c, 0, 77, 54
2, 54376, Note_on_c, 0, 55, 62
2, 54377, Note_on_c, 0, 65, 55
2, 54408, Note_on_c, 0, 65, 0
2, 54411, Note_on_c, 0, 55, 0
2, 54418, Note_on_c, 0, 77, 0
2, 54421, Note_on_c, 0, 66, 0
2, 54431, Note_on_c, 0, 61, 0
2, 54455, Note_on_c, 0, 66, 70
2, 54456, Note_on_c, 0, 61, 62
2, 54456, Note_on_c, 0, 73, 77
2, 54456, Note_on_c, 0, 79, 74
2, 54457, Note_on_c, 0, 67, 74
2, 54458, Note_on_c, 0, 55, 74
2, 54488, Note_on_c, 0, 74, 35
2, 54489, Note_on_c, 0, 73, 0
2, 54545, Note_on_c, 0, 67, 0
2, 54547, Note_on_c, 0, 55, 0
2, 54551, Note_on_c, 0, 79, 0
2, 54554, Note_on_c, 0, 66, 0
2, 54556, Note_on_c, 0, 61, 0
2, 54557, Note_on_c, 0, 74, 0
2, 54574, Note_on_c, 0, 66, 64
2, 54576, Note_on_c, 0, 61, 55
2, 54577, Note_on_c, 0, 55, 67
2, 54577, Note_on_c, 0, 77, 54
2, 54580, Note_on_c, 0, 65, 68
2, 54602, Note_on_c, 0, 66, 0
2, 54604, Note_on_c, 0, 65, 0
2, 54605, Note_on_c, 0, 55, 0
2, 54615, Note_on_c, 0, 61, 0
2, 54617, Note_on_c, 0, 77, 0
2, 54689, Note_on_c, 0, 75, 81
2, 54689, Note_on_c, 0, 67, 80
2, 54690, Note_on_c, 0, 62, 81
2, 54690, Note_on_c, 0, 81, 83
2, 54690, Note_on_c, 0, 56, 78
2, 54691, Note_on_c, 0, 69, 85
2, 54707, Note_on_c, 0, 75, 0
2, 54709, Note_on_c, 0, 67, 0
2, 54709, Note_on_c, 0, 76, 44
2, 54719, Note_on_c, 0, 56, 0
2, 54727, Note_on_c, 0, 69, 0
2, 54728, Note_on_c, 0, 62, 0
2, 54734, Note_on_c, 0, 81, 0
2, 54735, Note_on_c, 0, 76, 0
2, 54809, Note_on_c, 0, 74, 74
2, 54810, Note_on_c, 0, 79, 77
2, 54810, Note_on_c, 0, 67, 79
2, 54812, Note_on_c, 0, 64, 70
2, 54812, Note_on_c, 0, 58, 67
2, 54917, Note_on_c, 0, 79, 0
2, 54920, Note_on_c, 0, 74, 0
2, 54924, Note_on_c, 0, 67, 0
2, 54947, Note_on_c, 0, 64, 0
2, 54951, Note_on_c, 0, 58, 0
2, 54969, Note_on_c, 0, 76, 51
2, 54973, Note_on_c, 0, 71, 59
2, 54973, Note_on_c, 0, 64, 55
2, 54990, Note_on_c, 0, 64, 0
2, 54999, Note_on_c, 0, 71, 0
2, 55011, Note_on_c, 0, 76, 0
2, 55052, Note_on_c, 0, 58, 58
2, 55054, Note_on_c, 0, 69, 67
2, 55054, Note_on_c, 0, 64, 60
2, 55255, Note_on_c, 0, 69, 0
2, 55258, Note_on_c, 0, 58, 0
2, 55265, Note_on_c, 0, 64, 0
2, 55285, Note_on_c, 0, 64, 69
2, 55286, Note_on_c, 0, 58, 62
2, 55286, Note_on_c, 0, 69, 75
2, 55460, Note_on_c, 0, 96, 95
2, 55486, Note_on_c, 0, 96, 0
2, 55500, Note_on_c, 0, 93, 68
2, 55518, Note_on_c, 0, 93, 0
2, 55524, Note_on_c, 0, 58, 0
2, 55538, Note_on_c, 0, 94, 85
2, 55574, Note_on_c, 0, 94, 0
2, 55580, Note_on_c, 0, 90, 32
2, 55600, Note_on_c, 0, 90, 0
2, 55615, Note_on_c, 0, 93, 83
2, 55627, Note_on_c, 0, 69, 0
2, 55649, Note_on_c, 0, 64, 0
2, 55651, Note_on_c, 0, 91, 74
2, 55664, Note_on_c, 0, 93, 0
2, 55685, Note_on_c, 0, 91, 0
2, 55692, Note_on_c, 0, 86, 57
2, 55695, Note_on_c, 0, 64, 57
2, 55695, Note_on_c, 0, 69, 47
2, 55703, Note_on_c, 0, 58, 29
2, 55715, Note_on_c, 0, 86, 0
2, 55787, Note_on_c, 0, 69, 0
2, 55791, Note_on_c, 0, 64, 0
2, 55793, Note_on_c, 0, 58, 0
2, 55889, Note_on_c, 0, 64, 72
2, 55890, Note_on_c, 0, 58, 60
2, 55891, Note_on_c, 0, 69, 67
2, 55898, Note_on_c, 0, 69, 0
2, 55907, Note_on_c, 0, 64, 0
2, 55914, Note_on_c, 0, 58, 0
2, 56005, Note_on_c, 0, 61, 71
2, 56006, Note_on_c, 0, 55, 72
2, 56007, Note_on_c, 0, 66, 75
2, 56098, Note_on_c, 0, 93, 87
2, 56116, Note_on_c, 0, 93, 0
2, 56136, Note_on_c, 0, 96, 96
2, 56161, Note_on_c, 0, 96, 0
2, 56176, Note_on_c, 0, 55, 0
2, 56181, Note_on_c, 0, 94, 83
2, 56185, Note_on_c, 0, 61, 0
2, 56195, Note_on_c, 0, 66, 0
2, 56212, Note_on_c, 0, 94, 0
2, 56225, Note_on_c, 0, 90, 38
2, 56244, Note_on_c, 0, 90, 0
2, 56260, Note_on_c, 0, 93, 85
2, 56263, Note_on_c, 0, 69, 62
2, 56263, Note_on_c, 0, 58, 57
2, 56264, Note_on_c, 0, 64, 64
2, 56298, Note_on_c, 0, 93, 0
2, 56306, Note_on_c, 0, 90, 28
2, 56326, Note_on_c, 0, 90, 0
2, 56341, Note_on_c, 0, 91, 82
2, 56377, Note_on_c, 0, 69, 0
2, 56381, Note_on_c, 0, 91, 0
2, 56381, Note_on_c, 0, 89, 51
2, 56386, Note_on_c, 0, 64, 0
2, 56405, Note_on_c, 0, 58, 0
2, 56419, Note_on_c, 0, 89, 0
2, 56421, Note_on_c, 0, 86, 48
2, 56447, Note_on_c, 0, 86, 0
2, 56497, Note_on_c, 0, 85, 78
2, 56499, Note_on_c, 0, 66, 62
2, 56500, Note_on_c, 0, 61, 56
2, 56504, Note_on_c, 0, 55, 52
2, 56513, Note_on_c, 0, 55, 0
2, 56523, Note_on_c, 0, 85, 0
2, 56524, Note_on_c, 0, 66, 0
2, 56542, Note_on_c, 0, 88, 75
2, 56565, Note_on_c, 0, 88, 0
2, 56571, Note_on_c, 0, 61, 0
2, 56583, Note_on_c, 0, 86, 68
2, 56611, Note_on_c, 0, 86, 0
2, 56623, Note_on_c, 0, 81, 54
2, 56647, Note_on_c, 0, 81, 0
2, 56825, Note_on_c, 0, 99, 90
2, 56831, Note_on_c, 0, 66, 52
2, 56834, Note_on_c, 0, 61, 39
2, 56837, Note_on_c, 0, 55, 34
2, 56839, Note_on_c, 0, 66, 0
2, 56847, Note_on_c, 0, 55, 0
2, 56857, Note_on_c, 0, 99, 0
2, 56865, Note_on_c, 0, 97, 74
2, 56901, Note_on_c, 0, 94, 65
2, 56905, Note_on_c, 0, 97, 0
2, 56924, Note_on_c, 0, 61, 0
2, 56929, Note_on_c, 0, 94, 0
2, 56940, Note_on_c, 0, 88, 49
2, 56961, Note_on_c, 0, 88, 0
2, 56970, Note_on_c, 0, 61, 19
2, 56979, Note_on_c, 0, 96, 87
2, 57005, Note_on_c, 0, 96, 0
2, 57014, Note_on_c, 0, 94, 67
2, 57039, Note_on_c, 0, 61, 0
2, 57051, Note_on_c, 0, 89, 62
2, 57054, Note_on_c, 0, 94, 0
2, 57083, Note_on_c, 0, 89, 0
2, 57085, Note_on_c, 0, 61, 25
2, 57088, Note_on_c, 0, 85, 55
2, 57112, Note_on_c, 0, 85, 0
2, 57144, Note_on_c, 0, 61, 0
2, 57198, Note_on_c, 0, 66, 51
2, 57199, Note_on_c, 0, 93, 92
2, 57202, Note_on_c, 0, 61, 50
2, 57204, Note_on_c, 0, 55, 49
2, 57213, Note_on_c, 0, 55, 0
2, 57215, Note_on_c, 0, 66, 0
2, 57231, Note_on_c, 0, 93, 0
2, 57238, Note_on_c, 0, 91, 60
2, 57266, Note_on_c, 0, 91, 0
2, 57274, Note_on_c, 0, 61, 0
2, 57275, Note_on_c, 0, 88, 48
2, 57309, Note_on_c, 0, 88, 0
2, 57314, Note_on_c, 0, 85, 56
2, 57315, Note_on_c, 0, 61, 50
2, 57318, Note_on_c, 0, 66, 34
2, 57325, Note_on_c, 0, 66, 0
2, 57334, Note_on_c, 0, 85, 0
2, 57349, Note_on_c, 0, 82, 61
2, 57351, Note_on_c, 0, 61, 0
2, 57372, Note_on_c, 0, 82, 0
2, 57392, Note_on_c, 0, 81, 64
2, 57420, Note_on_c, 0, 81, 0
2, 57443, Note_on_c, 0, 80, 68
2, 57444, Note_on_c, 0, 66, 59
2, 57444, Note_on_c, 0, 61, 52
2, 57449, Note_on_c, 0, 55, 51
2, 57463, Note_on_c, 0, 66, 0
2, 57472, Note_on_c, 0, 55, 0
2, 57474, Note_on_c, 0, 80, 0
2, 57497, Note_on_c, 0, 79, 44
2, 57509, Note_on_c, 0, 61, 0
2, 57539, Note_on_c, 0, 79, 0
2, 57564, Note_on_c, 0, 77, 68
2, 57567, Note_on_c, 0, 63, 46
2, 57567, Note_on_c, 0, 58, 43
2, 57567, Note_on_c, 0, 67, 57
2, 57570, Note_on_c, 0, 62, 44
2, 57584, Note_on_c, 0, 67, 0
2, 57589, Note_on_c, 0, 77, 0
2, 57601, Note_on_c, 0, 58, 0
2, 57610, Note_on_c, 0, 63, 0
2, 57614, Note_on_c, 0, 75, 52
2, 57631, Note_on_c, 0, 62, 0
2, 57682, Note_on_c, 0, 75, 0
2, 57693, Note_on_c, 0, 74, 47
2, 57694, Note_on_c, 0, 63, 40
2, 57709, Note_on_c, 0, 63, 0
2, 57709, Note_on_c, 0, 62, 22
2, 57722, Note_on_c, 0, 74, 0
2, 57723, Note_on_c, 0, 62, 0
2, 57737, Note_on_c, 0, 77, 79
2, 57808, Note_on_c, 0, 74, 44
2, 57810, Note_on_c, 0, 77, 0
2, 57815, Note_on_c, 0, 67, 35
2, 57820, Note_on_c, 0, 63, 27
2, 57824, Note_on_c, 0, 67, 0
2, 57838, Note_on_c, 0, 74, 0
2, 57843, Note_on_c, 0, 63, 0
2, 57855, Note_on_c, 0, 75, 74
2, 57934, Note_on_c, 0, 75, 0
2, 57938, Note_on_c, 0, 58, 23
2, 57939, Note_on_c, 0, 71, 24
2, 57950, Note_on_c, 0, 71, 0
2, 57971, Note_on_c, 0, 74, 75
2, 57991, Note_on_c, 0, 58, 0
2, 58044, Note_on_c, 0, 74, 0
2, 58052, Note_on_c, 0, 57, 51
2, 58053, Note_on_c, 0, 72, 67
2, 58053, Note_on_c, 0, 63, 44
2, 58057, Note_on_c, 0, 67, 28
2, 58061, Note_on_c, 0, 74, 24
2, 58064, Note_on_c, 0, 67, 0
2, 58069, Note_on_c, 0, 74, 0
2, 58106, Note_on_c, 0, 72, 0
2, 58112, Note_on_c, 0, 57, 0
2, 58113, Note_on_c, 0, 63, 0
2, 58125, Note_on_c, 0, 71, 74
2, 58178, Note_on_c, 0, 71, 0
2, 58185, Note_on_c, 0, 69, 73
2, 58191, Note_on_c, 0, 63, 21
2, 58209, Note_on_c, 0, 63, 0
2, 58218, Note_on_c, 0, 69, 0
2, 58240, Note_on_c, 0, 68, 59
2, 58278, Note_on_c, 0, 68, 0
2, 58296, Note_on_c, 0, 66, 63
2, 58297, Note_on_c, 0, 63, 56
2, 58300, Note_on_c, 0, 57, 43
2, 58311, Note_on_c, 0, 57, 0
2, 58314, Note_on_c, 0, 63, 0
2, 58334, Note_on_c, 0, 66, 0
2, 58346, Note_on_c, 0, 65, 45
2, 58401, Note_on_c, 0, 63, 64
2, 58410, Note_on_c, 0, 65, 0
2, 58434, Note_on_c, 0, 63, 0
2, 58447, Note_on_c, 0, 62, 52
2, 58506, Note_on_c, 0, 62, 0
2, 58517, Note_on_c, 0, 46, 46
2, 58518, Note_on_c, 0, 61, 71
2, 58522, Note_on_c, 0, 53, 35
2, 58544, Note_on_c, 0, 53, 0
2, 58548, Note_on_c, 0, 46, 0
2, 58553, Note_on_c, 0, 61, 0
2, 58567, Note_on_c, 0, 60, 58
2, 58599, Note_on_c, 0, 60, 0
2, 58609, Note_on_c, 0, 57, 38
2, 58630, Note_on_c, 0, 57, 0
2, 58640, Note_on_c, 0, 58, 64
2, 58672, Note_on_c, 0, 58, 0
2, 58675, Note_on_c, 0, 59, 62
2, 58705, Note_on_c, 0, 59, 0
2, 58713, Note_on_c, 0, 60, 76
2, 58750, Note_on_c, 0, 60, 0
2, 58762, Note_on_c, 0, 53, 57
2, 58778, Note_on_c, 0, 53, 0
2, 58793, Note_on_c, 0, 55, 72
2, 58826, Note_on_c, 0, 55, 0
2, 58826, Note_on_c, 0, 56, 62
2, 58856, Note_on_c, 0, 56, 0
2, 58856, Note_on_c, 0, 57, 48
2, 58874, Note_on_c, 0, 57, 0
2, 58892, Note_on_c, 0, 50, 50
2, 58913, Note_on_c, 0, 50, 0
2, 58920, Note_on_c, 0, 51, 46
2, 58944, Note_on_c, 0, 51, 0
2, 58954, Note_on_c, 0, 52, 48
2, 58977, Note_on_c, 0, 53, 68
2, 58984, Note_on_c, 0, 52, 0
2, 58999, Note_on_c, 0, 53, 0
2, 59059, Note_on_c, 0, 39, 53
2, 59061, Note_on_c, 0, 46, 53
2, 59079, Note_on_c, 0, 46, 0
2, 59080, Note_on_c, 0, 39, 0
2, 59168, Note_on_c, 0, 60, 64
2, 59199, Note_on_c, 0, 60, 0
2, 59199, Note_on_c, 0, 61, 61
2, 59232, Note_on_c, 0, 61, 0
2, 59236, Note_on_c, 0, 62, 53
2, 59260, Note_on_c, 0, 62, 0
2, 59265, Note_on_c, 0, 55, 55
2, 59268, Note_on_c, 0, 63, 52
2, 59277, Note_on_c, 0, 55, 0
2, 59280, Note_on_c, 0, 63, 0
2, 59370, Note_on_c, 0, 55, 66
2, 59370, Note_on_c, 0, 61, 60
2, 59372, Note_on_c, 0, 65, 69
2, 59378, Note_on_c, 0, 55, 0
2, 59379, Note_on_c, 0, 65, 0
2, 59390, Note_on_c, 0, 61, 0
2, 59423, Note_on_c, 0, 69, 30
2, 59431, Note_on_c, 0, 69, 0
2, 59459, Note_on_c, 0, 70, 74
2, 59479, Note_on_c, 0, 70, 0
2, 59495, Note_on_c, 0, 72, 77
2, 59521, Note_on_c, 0, 62, 40
2, 59523, Note_on_c, 0, 58, 25
2, 59525, Note_on_c, 0, 72, 0
2, 59529, Note_on_c, 0, 57, 26
2, 59529, Note_on_c, 0, 53, 34
2, 59538, Note_on_c, 0, 69, 56
2, 59563, Note_on_c, 0, 62, 0
2, 59570, Note_on_c, 0, 69, 0
2, 59578, Note_on_c, 0, 58, 0
2, 59578, Note_on_c, 0, 65, 59
2, 59582, Note_on_c, 0, 57, 0
2, 59599, Note_on_c, 0, 65, 0
2, 59611, Note_on_c, 0, 62, 54
2, 59637, Note_on_c, 0, 62, 0
2, 59646, Note_on_c, 0, 53, 0
2, 59649, Note_on_c, 0, 58, 44
2, 59730, Note_on_c, 0, 58, 0
2, 59733, Note_on_c, 0, 57, 34
2, 59743, Note_on_c, 0, 57, 0
2, 59769, Note_on_c, 0, 60, 80
2, 59839, Note_on_c, 0, 60, 0
2, 59891, Note_on_c, 0, 58, 34
2, 59948, Note_on_c, 0, 58, 0
2, 59963, Note_on_c, 0, 60, 57
2, 59963, Note_on_c, 0, 58, 55
2, 59966, Note_on_c, 0, 48, 36
2, 59978, Note_on_c, 0, 48, 0
2, 59982, Note_on_c, 0, 58, 0
2, 59995, Note_on_c, 0, 60, 0
2, 60007, Note_on_c, 0, 61, 49
2, 60036, Note_on_c, 0, 61, 0
2, 60045, Note_on_c, 0, 63, 42
2, 60066, Note_on_c, 0, 63, 0
2, 60085, Note_on_c, 0, 64, 36
2, 60100, Note_on_c, 0, 64, 0
2, 60121, Note_on_c, 0, 70, 38
2, 60165, Note_on_c, 0, 70, 0
2, 60167, Note_on_c, 0, 76, 45
2, 60175, Note_on_c, 0, 76, 0
2, 60194, Note_on_c, 0, 76, 58
2, 60198, Note_on_c, 0, 63, 62
2, 60199, Note_on_c, 0, 58, 51
2, 60203, Note_on_c, 0, 52, 48
2, 60213, Note_on_c, 0, 52, 0
2, 60221, Note_on_c, 0, 63, 0
2, 60227, Note_on_c, 0, 58, 0
2, 60231, Note_on_c, 0, 76, 0
2, 60237, Note_on_c, 0, 82, 57
2, 60269, Note_on_c, 0, 82, 0
2, 60274, Note_on_c, 0, 87, 75
2, 60300, Note_on_c, 0, 87, 0
2, 60308, Note_on_c, 0, 63, 64
2, 60310, Note_on_c, 0, 58, 53
2, 60312, Note_on_c, 0, 52, 52
2, 60315, Note_on_c, 0, 89, 81
2, 60344, Note_on_c, 0, 89, 0
2, 60345, Note_on_c, 0, 52, 0
2, 60353, Note_on_c, 0, 58, 0
2, 60356, Note_on_c, 0, 63, 0
2, 60357, Note_on_c, 0, 86, 49
2, 60386, Note_on_c, 0, 86, 0
2, 60406, Note_on_c, 0, 84, 56
2, 60411, Note_on_c, 0, 57, 40
2, 60422, Note_on_c, 0, 57, 0
2, 60422, Note_on_c, 0, 84, 0
2, 60560, Note_on_c, 0, 63, 53
2, 60562, Note_on_c, 0, 85, 46
2, 60563, Note_on_c, 0, 73, 53
2, 60565, Note_on_c, 0, 67, 34
2, 60565, Note_on_c, 0, 57, 36
2, 60566, Note_on_c, 0, 81, 64
2, 60567, Note_on_c, 0, 86, 70
2, 60568, Note_on_c, 0, 74, 71
2, 60569, Note_on_c, 0, 85, 0
2, 60571, Note_on_c, 0, 73, 0
2, 60572, Note_on_c, 0, 67, 0
2, 60575, Note_on_c, 0, 84, 30
2, 60577, Note_on_c, 0, 57, 0
2, 60592, Note_on_c, 0, 74, 0
2, 60593, Note_on_c, 0, 84, 0
2, 60594, Note_on_c, 0, 63, 0
2, 60594, Note_on_c, 0, 86, 0
2, 60599, Note_on_c, 0, 81, 0
2, 60612, Note_on_c, 0, 84, 45
2, 60620, Note_on_c, 0, 72, 49
2, 60648, Note_on_c, 0, 72, 0
2, 60649, Note_on_c, 0, 84, 0
2, 60686, Note_on_c, 0, 84, 64
2, 60691, Note_on_c, 0, 72, 67
2, 60707, Note_on_c, 0, 84, 0
2, 60709, Note_on_c, 0, 72, 0
2, 60933, Note_on_c, 0, 56, 39
2, 60955, Note_on_c, 0, 56, 0
2, 60964, Note_on_c, 0, 58, 74
2, 60964, Note_on_c, 0, 74, 75
2, 60965, Note_on_c, 0, 69, 79
2, 60966, Note_on_c, 0, 64, 78
2, 61018, Note_on_c, 0, 69, 0
2, 61021, Note_on_c, 0, 74, 0
2, 61030, Note_on_c, 0, 58, 0
2, 61030, Note_on_c, 0, 64, 0
2, 61041, Note_on_c, 0, 54, 33
2, 61072, Note_on_c, 0, 54, 0
2, 61084, Note_on_c, 0, 72, 72
2, 61084, Note_on_c, 0, 57, 62
2, 61086, Note_on_c, 0, 67, 66
2, 61087, Note_on_c, 0, 62, 68
2, 61129, Note_on_c, 0, 72, 0
2, 61131, Note_on_c, 0, 67, 0
2, 61152, Note_on_c, 0, 62, 0
2, 61191, Note_on_c, 0, 57, 0
2, 61205, Note_on_c, 0, 69, 64
2, 61209, Note_on_c, 0, 53, 43
2, 61209, Note_on_c, 0, 64, 56
2, 61210, Note_on_c, 0, 60, 41
2, 61272, Note_on_c, 0, 53, 0
2, 61282, Note_on_c, 0, 69, 0
2, 61286, Note_on_c, 0, 60, 0
2, 61287, Note_on_c, 0, 64, 0
2, 61318, Note_on_c, 0, 53, 53
2, 61324, Control_c, 0, 64, 127
2, 61330, Note_on_c, 0, 60, 51
2, 61330, Note_on_c, 0, 64, 59
2, 61331, Note_on_c, 0, 53, 0
2, 61331, Note_on_c, 0, 69, 59
2, 61345, Note_on_c, 0, 60, 0
2, 61350, Note_on_c, 0, 64, 0
2, 61355, Note_on_c, 0, 69, 0
2, 61410, Note_on_c, 0, 74, 73
2, 61412, Note_on_c, 0, 71, 72
2, 61412, Note_on_c, 0, 65, 87
2, 61412, Note_on_c, 0, 69, 82
2, 61412, Note_on_c, 0, 64, 74
2, 61414, Control_c, 0, 64, 0
2, 61536, Note_on_c, 0, 71, 0
2, 61544, Note_on_c, 0, 65, 0
2, 61547, Note_on_c, 0, 69, 0
2, 61555, Note_on_c, 0, 74, 0
2, 61563, Note_on_c, 0, 62, 44
2, 61566, Note_on_c, 0, 64, 0
2, 61574, Note_on_c, 0, 65, 20
2, 61597, Note_on_c, 0, 65, 0
2, 61646, Note_on_c, 0, 74, 71
2, 61648, Note_on_c, 0, 71, 62
2, 61648, Note_on_c, 0, 65, 81
2, 61649, Note_on_c, 0, 64, 71
2, 61649, Note_on_c, 0, 69, 79
2, 61656, Note_on_c, 0, 62, 0
2, 61700, Note_on_c, 0, 69, 0
2, 61701, Note_on_c, 0, 65, 0
2, 61701, Note_on_c, 0, 64, 0
2, 61703, Note_on_c, 0, 74, 0
2, 61713, Note_on_c, 0, 71, 0
2, 61727, Note_on_c, 0, 74, 49
2, 61727, Note_on_c, 0, 64, 58
2, 61730, Note_on_c, 0, 71, 62
2, 61731, Note_on_c, 0, 65, 74
2, 61731, Note_on_c, 0, 69, 73
2, 61801, Note_on_c, 0, 65, 0
2, 61803, Note_on_c, 0, 74, 0
2, 61805, Note_on_c, 0, 69, 0
2, 61806, Note_on_c, 0, 71, 0
2, 61815, Note_on_c, 0, 62, 53
2, 61816, Note_on_c, 0, 64, 0
2, 61821, Note_on_c, 0, 72, 35
2, 61860, Note_on_c, 0, 72, 0
2, 61885, Note_on_c, 0, 62, 0
2, 61892, Note_on_c, 0, 74, 85
2, 61894, Note_on_c, 0, 71, 79
2, 61894, Note_on_c, 0, 65, 99
2, 61894, Note_on_c, 0, 69, 88
2, 61896, Note_on_c, 0, 64, 82
2, 61923, Note_on_c, 0, 65, 0
2, 61932, Note_on_c, 0, 65, 18
2, 61992, Control_c, 0, 64, 127
2, 62033, Note_on_c, 0, 65, 0
2, 62042, Note_on_c, 0, 69, 0
2, 62042, Note_on_c, 0, 71, 0
2, 62043, Note_on_c, 0, 74, 0
2, 62057, Note_on_c, 0, 62, 46
2, 62060, Note_on_c, 0, 64, 0
2, 62062, Note_on_c, 0, 65, 35
2, 62063, Note_on_c, 0, 72, 31
2, 62067, Note_on_c, 0, 69, 30
2, 62100, Note_on_c, 0, 69, 0
2, 62100, Note_on_c, 0, 65, 0
2, 62116, Note_on_c, 0, 72, 0
2, 62126, Control_c, 0, 64, 0
2, 62133, Note_on_c, 0, 65, 62
2, 62134, Note_on_c, 0, 74, 46
2, 62135, Note_on_c, 0, 69, 56
2, 62136, Note_on_c, 0, 62, 0
2, 62136, Note_on_c, 0, 71, 46
2, 62136, Note_on_c, 0, 64, 60
2, 62275, Note_on_c, 0, 74, 0
2, 62276, Note_on_c, 0, 71, 0
2, 62284, Note_on_c, 0, 72, 47
2, 62285, Note_on_c, 0, 62, 46
2, 62296, Note_on_c, 0, 64, 0
2, 62315, Note_on_c, 0, 69, 0
2, 62331, Note_on_c, 0, 65, 0
2, 62336, Note_on_c, 0, 72, 0
2, 62348, Note_on_c, 0, 62, 0
2, 62362, Note_on_c, 0, 76, 72
2, 62363, Note_on_c, 0, 56, 57
2, 62363, Note_on_c, 0, 71, 69
2, 62363, Note_on_c, 0, 65, 80
2, 62365, Note_on_c, 0, 62, 51
2, 62447, Note_on_c, 0, 62, 0
2, 62449, Control_c, 0, 64, 127
2, 62453, Note_on_c, 0, 56, 0
2, 62522, Note_on_c, 0, 76, 0
2, 62527, Note_on_c, 0, 71, 0
2, 62530, Note_on_c, 0, 65, 0
2, 62599, Note_on_c, 0, 71, 55
2, 62601, Note_on_c, 0, 56, 51
2, 62601, Note_on_c, 0, 62, 78
2, 62602, Note_on_c, 0, 67, 69
2, 62629, Note_on_c, 0, 62, 0
2, 62647, Note_on_c, 0, 71, 0
2, 62650, Note_on_c, 0, 67, 0
2, 62656, Control_c, 0, 64, 0
2, 62672, Note_on_c, 0, 74, 78
2, 62672, Note_on_c, 0, 70, 82
2, 62674, Note_on_c, 0, 59, 74
2, 62674, Note_on_c, 0, 65, 83
2, 62676, Note_on_c, 0, 68, 60
2, 62683, Note_on_c, 0, 68, 0
2, 62684, Control_c, 0, 64, 127
2, 62710, Note_on_c, 0, 65, 0
2, 62713, Note_on_c, 0, 70, 0
2, 62713, Note_on_c, 0, 74, 0
2, 62752, Note_on_c, 0, 78, 60
2, 62755, Note_on_c, 0, 59, 0
2, 62755, Control_c, 0, 64, 0
2, 62760, Note_on_c, 0, 56, 0
2, 62760, Note_on_c, 0, 68, 83
2, 62760, Note_on_c, 0, 62, 79
2, 62765, Note_on_c, 0, 74, 43
2, 62768, Note_on_c, 0, 73, 37
2, 62775, Control_c, 0, 64, 127
2, 62788, Note_on_c, 0, 74, 0
2, 62791, Note_on_c, 0, 73, 0
2, 62793, Note_on_c, 0, 78, 0
2, 62801, Note_on_c, 0, 68, 0
2, 62834, Control_c, 0, 64, 0
2, 62838, Note_on_c, 0, 65, 87
2, 62840, Note_on_c, 0, 80, 75
2, 62840, Note_on_c, 0, 71, 62
2, 62845, Note_on_c, 0, 62, 0
2, 62847, Note_on_c, 0, 76, 53
2, 62860, Note_on_c, 0, 76, 0
2, 62862, Note_on_c, 0, 71, 0
2, 62867, Control_c, 0, 64, 127
2, 62872, Note_on_c, 0, 80, 0
2, 62907, Note_on_c, 0, 65, 0
2, 62917, Note_on_c, 0, 83, 72
2, 62918, Note_on_c, 0, 68, 71
2, 62918, Note_on_c, 0, 74, 66
2, 62920, Note_on_c, 0, 79, 66
2, 62923, Note_on_c, 0, 78, 33
2, 62930, Note_on_c, 0, 78, 0
2, 62945, Note_on_c, 0, 74, 0
2, 62950, Note_on_c, 0, 79, 0
2, 62957, Note_on_c, 0, 83, 0
2, 62989, Control_c, 0, 64, 0
2, 62996, Note_on_c, 0, 86, 84
2, 62996, Note_on_c, 0, 71, 80
2, 62997, Note_on_c, 0, 77, 87
2, 62998, Note_on_c, 0, 83, 79
2, 63006, Note_on_c, 0, 68, 0
2, 63015, Control_c, 0, 64, 127
2, 63035, Note_on_c, 0, 83, 0
2, 63039, Note_on_c, 0, 86, 0
2, 63050, Note_on_c, 0, 77, 0
2, 63068, Control_c, 0, 64, 0
2, 63070, Note_on_c, 0, 71, 0
2, 63076, Note_on_c, 0, 68, 63
2, 63077, Note_on_c, 0, 83, 70
2, 63080, Note_on_c, 0, 74, 65
2, 63082, Note_on_c, 0, 79, 59
2, 63097, Note_on_c, 0, 79, 0
2, 63097, Control_c, 0, 64, 127
2, 63106, Note_on_c, 0, 83, 0
2, 63116, Note_on_c, 0, 74, 0
2, 63135, Note_on_c, 0, 68, 0
2, 63150, Note_on_c, 0, 80, 57
2, 63152, Note_on_c, 0, 65, 61
2, 63154, Note_on_c, 0, 72, 60
2, 63168, Note_on_c, 0, 80, 0
2, 63175, Note_on_c, 0, 72, 0
2, 63216, Note_on_c, 0, 65, 0
2, 63221, Control_c, 0, 64, 0
2, 63229, Note_on_c, 0, 77, 49
2, 63229, Note_on_c, 0, 68, 59
2, 63230, Note_on_c, 0, 62, 54
2, 63234, Note_on_c, 0, 74, 38
2, 63236, Control_c, 0, 64, 127
2, 63241, Note_on_c, 0, 72, 26
2, 63255, Note_on_c, 0, 72, 0
2, 63270, Note_on_c, 0, 74, 0
2, 63283, Note_on_c, 0, 68, 0
2, 63289, Note_on_c, 0, 62, 0
2, 63299, Note_on_c, 0, 77, 0
2, 63311, Note_on_c, 0, 74, 45
2, 63311, Note_on_c, 0, 68, 54
2, 63345, Note_on_c, 0, 68, 0
2, 63369, Note_on_c, 0, 74, 0
2, 63377, Control_c, 0, 64, 0
2, 63386, Note_on_c, 0, 72, 51
2, 63387, Note_on_c, 0, 67, 38
2, 63394, Note_on_c, 0, 76, 27
2, 63572, Note_on_c, 0, 62, 54
2, 63574, Note_on_c, 0, 63, 52
2, 63578, Note_on_c, 0, 57, 50
2, 63586, Note_on_c, 0, 67, 0
2, 63596, Note_on_c, 0, 72, 0
2, 63609, Note_on_c, 0, 76, 0
2, 63733, Note_on_c, 0, 84, 78
2, 63735, Note_on_c, 0, 72, 78
2, 63752, Note_on_c, 0, 72, 0
2, 63755, Note_on_c, 0, 63, 0
2, 63758, Note_on_c, 0, 57, 0
2, 63760, Note_on_c, 0, 84, 0
2, 63765, Note_on_c, 0, 62, 0
2, 63812, Note_on_c, 0, 62, 58
2, 63814, Note_on_c, 0, 63, 67
2, 63814, Note_on_c, 0, 57, 62
2, 63817, Note_on_c, 0, 84, 83
2, 63818, Note_on_c, 0, 72, 85
2, 63832, Note_on_c, 0, 72, 0
2, 63832, Note_on_c, 0, 84, 0
2, 63839, Note_on_c, 0, 63, 0
2, 63841, Note_on_c, 0, 57, 0
2, 63848, Note_on_c, 0, 62, 0
2, 63896, Note_on_c, 0, 62, 66
2, 63897, Note_on_c, 0, 63, 67
2, 63898, Note_on_c, 0, 57, 60
2, 63901, Note_on_c, 0, 84, 89
2, 63901, Note_on_c, 0, 72, 91
2, 63945, Note_on_c, 0, 57, 0
2, 63949, Note_on_c, 0, 63, 0
2, 63953, Note_on_c, 0, 72, 0
2, 63953, Note_on_c, 0, 84, 0
2, 63956, Note_on_c, 0, 62, 0
2, 63975, Note_on_c, 0, 63, 74
2, 63976, Note_on_c, 0, 62, 72
2, 63976, Note_on_c, 0, 84, 71
2, 63978, Note_on_c, 0, 57, 68
2, 63978, Note_on_c, 0, 72, 80
2, 64132, Note_on_c, 0, 57, 0
2, 64132, Note_on_c, 0, 84, 0
2, 64139, Note_on_c, 0, 72, 0
2, 64140, Note_on_c, 0, 63, 0
2, 64148, Note_on_c, 0, 62, 0
2, 64167, Note_on_c, 0, 63, 38
2, 64169, Note_on_c, 0, 62, 58
2, 64169, Note_on_c, 0, 71, 67
2, 64170, Note_on_c, 0, 83, 50
2, 64171, Note_on_c, 0, 57, 45
2, 64181, Note_on_c, 0, 63, 0
2, 64182, Note_on_c, 0, 57, 0
2, 64185, Note_on_c, 0, 71, 0
2, 64186, Note_on_c, 0, 62, 0
2, 64191, Note_on_c, 0, 83, 0
2, 64204, Note_on_c, 0, 63, 53
2, 64208, Note_on_c, 0, 57, 51
2, 64209, Note_on_c, 0, 62, 58
2, 64211, Note_on_c, 0, 84, 74
2, 64211, Note_on_c, 0, 72, 70
2, 64224, Note_on_c, 0, 62, 0
2, 64231, Note_on_c, 0, 57, 0
2, 64240, Note_on_c, 0, 63, 0
2, 64241, Note_on_c, 0, 72, 0
2, 64250, Note_on_c, 0, 84, 0
2, 64292, Note_on_c, 0, 82, 82
2, 64293, Note_on_c, 0, 65, 80
2, 64294, Note_on_c, 0, 86, 81
2, 64294, Note_on_c, 0, 74, 85
2, 64294, Note_on_c, 0, 54, 63
2, 64294, Note_on_c, 0, 58, 59
2, 64296, Note_on_c, 0, 60, 63
2, 64302, Note_on_c, 0, 84, 34
2, 64312, Note_on_c, 0, 84, 0
2, 64331, Note_on_c, 0, 74, 0
2, 64332, Note_on_c, 0, 60, 0
2, 64337, Note_on_c, 0, 65, 0
2, 64342, Note_on_c, 0, 58, 0
2, 64346, Note_on_c, 0, 82, 0
2, 64352, Note_on_c, 0, 74, 46
2, 64352, Control_c, 0, 64, 127
2, 64354, Note_on_c, 0, 86, 0
2, 64364, Note_on_c, 0, 54, 0
2, 64368, Note_on_c, 0, 58, 23
2, 64369, Note_on_c, 0, 60, 24
2, 64371, Note_on_c, 0, 65, 42
2, 64378, Note_on_c, 0, 58, 0
2, 64378, Note_on_c, 0, 74, 0
2, 64379, Note_on_c, 0, 86, 38
2, 64381, Note_on_c, 0, 60, 0
2, 64382, Note_on_c, 0, 82, 39
2, 64385, Note_on_c, 0, 65, 0
2, 64397, Note_on_c, 0, 54, 38
2, 64402, Note_on_c, 0, 74, 33
2, 64404, Note_on_c, 0, 86, 0
2, 64406, Note_on_c, 0, 82, 0
2, 64410, Note_on_c, 0, 58, 31
2, 64425, Note_on_c, 0, 65, 60
2, 64426, Note_on_c, 0, 60, 37
2, 64427, Note_on_c, 0, 54, 0
2, 64431, Note_on_c, 0, 74, 0
2, 64433, Note_on_c, 0, 65, 0
2, 64434, Note_on_c, 0, 60, 0
2, 64443, Control_c, 0, 64, 0
2, 64444, Note_on_c, 0, 58, 0
2, 64542, Note_on_c, 0, 82, 83
2, 64543, Note_on_c, 0, 74, 74
2, 64545, Note_on_c, 0, 65, 77
2, 64547, Note_on_c, 0, 58, 52
2, 64547, Note_on_c, 0, 54, 53
2, 64548, Note_on_c, 0, 60, 59
2, 64555, Note_on_c, 0, 60, 0
2, 64555, Note_on_c, 0, 65, 0
2, 64558, Note_on_c, 0, 74, 0
2, 64563, Note_on_c, 0, 54, 0
2, 64564, Note_on_c, 0, 82, 0
2, 64575, Note_on_c, 0, 58, 0
2, 64607, Note_on_c, 0, 54, 67
2, 64607, Note_on_c, 0, 86, 80
2, 64608, Note_on_c, 0, 74, 77
2, 64609, Note_on_c, 0, 65, 72
2, 64610, Note_on_c, 0, 58, 54
2, 64611, Note_on_c, 0, 60, 60
2, 64627, Note_on_c, 0, 65, 0
2, 64629, Note_on_c, 0, 86, 0
2, 64635, Note_on_c, 0, 60, 0
2, 64638, Note_on_c, 0, 74, 0
2, 64639, Note_on_c, 0, 54, 0
2, 64645, Note_on_c, 0, 58, 0
2, 64696, Note_on_c, 0, 74, 28
2, 64697, Note_on_c, 0, 65, 50
2, 64697, Note_on_c, 0, 70, 35
2, 64697, Note_on_c, 0, 60, 57
2, 64699, Note_on_c, 0, 54, 56
2, 64701, Note_on_c, 0, 58, 43
2, 64743, Note_on_c, 0, 54, 0
2, 64743, Note_on_c, 0, 65, 0
2, 64746, Note_on_c, 0, 60, 0
2, 64752, Note_on_c, 0, 70, 0
2, 64752, Note_on_c, 0, 58, 0
2, 64759, Note_on_c, 0, 74, 0
2, 64771, Note_on_c, 0, 77, 66
2, 64773, Note_on_c, 0, 60, 55
2, 64774, Note_on_c, 0, 65, 66
2, 64774, Note_on_c, 0, 58, 56
2, 64774, Note_on_c, 0, 54, 60
2, 64778, Note_on_c, 0, 74, 36
2, 64781, Note_on_c, 0, 60, 0
2, 64781, Note_on_c, 0, 67, 33
2, 64787, Note_on_c, 0, 65, 0
2, 64787, Note_on_c, 0, 74, 0
2, 64788, Note_on_c, 0, 67, 0
2, 64789, Note_on_c, 0, 77, 0
2, 64794, Note_on_c, 0, 54, 0
2, 64794, Note_on_c, 0, 58, 0
2, 64883, Note_on_c, 0, 54, 40
2, 64884, Note_on_c, 0, 70, 74
2, 64886, Note_on_c, 0, 55, 72
2, 64886, Note_on_c, 0, 65, 70
2, 64888, Note_on_c, 0, 60, 63
2, 64898, Note_on_c, 0, 54, 0
2, 65008, Note_on_c, 0, 60, 0
2, 65026, Note_on_c, 0, 65, 0
2, 65026, Note_on_c, 0, 51, 25
2, 65040, Note_on_c, 0, 55, 0
2, 65042, Note_on_c, 0, 70, 0
2, 65045, Note_on_c, 0, 51, 0
2, 65048, Note_on_c, 0, 55, 33
2, 65051, Note_on_c, 0, 62, 58
2, 65054, Note_on_c, 0, 69, 55
2, 65055, Note_on_c, 0, 65, 54
2, 65131, Note_on_c, 0, 55, 0
2, 65133, Note_on_c, 0, 44, 74
2, 65148, Note_on_c, 0, 65, 0
2, 65150, Note_on_c, 0, 69, 0
2, 65163, Note_on_c, 0, 62, 0
2, 65168, Note_on_c, 0, 54, 74
2, 65229, Note_on_c, 0, 54, 0
2, 65247, Note_on_c, 0, 44, 0
2, 65251, Note_on_c, 0, 70, 69
2, 65253, Note_on_c, 0, 62, 69
2, 65253, Note_on_c, 0, 43, 65
2, 65255, Note_on_c, 0, 58, 51
2, 65256, Note_on_c, 0, 65, 66
2, 65256, Note_on_c, 0, 53, 68
2, 65267, Note_on_c, 0, 68, 23
2, 65318, Note_on_c, 0, 43, 0
2, 65328, Control_c, 0, 64, 127
2, 65376, Note_on_c, 0, 53, 0
2, 65379, Note_on_c, 0, 58, 0
2, 65382, Note_on_c, 0, 54, 59
2, 65383, Note_on_c, 0, 65, 0
2, 65384, Note_on_c, 0, 56, 49
2, 65388, Note_on_c, 0, 70, 0
2, 65389, Note_on_c, 0, 62, 0
2, 65392, Note_on_c, 0, 68, 0
2, 65409, Note_on_c, 0, 54, 0
2, 65410, Note_on_c, 0, 56, 0
2, 65412, Control_c, 0, 64, 0
2, 65414, Note_on_c, 0, 57, 92
2, 65416, Note_on_c, 0, 70, 84
2, 65417, Note_on_c, 0, 62, 76
2, 65417, Note_on_c, 0, 58, 97
2, 65419, Note_on_c, 0, 65, 81
2, 65427, Note_on_c, 0, 68, 31
2, 65478, Note_on_c, 0, 54, 42
2, 65479, Note_on_c, 0, 56, 40
2, 65480, Note_on_c, 0, 58, 0
2, 65482, Note_on_c, 0, 70, 0
2, 65485, Note_on_c, 0, 57, 0
2, 65485, Note_on_c, 0, 65, 0
2, 65486, Note_on_c, 0, 68, 0
2, 65487, Note_on_c, 0, 62, 0
2, 65504, Note_on_c, 0, 70, 69
2, 65506, Note_on_c, 0, 54, 0
2, 65506, Note_on_c, 0, 58, 82
2, 65506, Note_on_c, 0, 57, 75
2, 65506, Note_on_c, 0, 62, 80
2, 65508, Note_on_c, 0, 65, 68
2, 65515, Note_on_c, 0, 56, 0
2, 65515, Note_on_c, 0, 68, 27
2, 65542, Note_on_c, 0, 68, 0
2, 65545, Note_on_c, 0, 58, 0
2, 65547, Note_on_c, 0, 70, 0
2, 65548, Note_on_c, 0, 65, 0
2, 65551, Note_on_c, 0, 57, 0
2, 65551, Note_on_c, 0, 62, 0
2, 65566, Note_on_c, 0, 70, 65
2, 65568, Note_on_c, 0, 58, 57
2, 65570, Note_on_c, 0, 57, 60
2, 65570, Note_on_c, 0, 62, 74
2, 65572, Note_on_c, 0, 65, 57
2, 65582, Note_on_c, 0, 68, 23
2, 65619, Control_c, 0, 64, 127
2, 65635, Note_on_c, 0, 68, 0
2, 65646, Note_on_c, 0, 65, 0
2, 65646, Control_c, 0, 64, 0
2, 65650, Note_on_c, 0, 70, 0
2, 65650, Note_on_c, 0, 58, 0
2, 65652, Note_on_c, 0, 62, 0
2, 65661, Note_on_c, 0, 57, 0
2, 65665, Note_on_c, 0, 55, 62
2, 65666, Note_on_c, 0, 58, 33
2, 65673, Note_on_c, 0, 69, 25
2, 65687, Note_on_c, 0, 69, 0
2, 65697, Control_c, 0, 64, 127
2, 65709, Note_on_c, 0, 58, 0
2, 65735, Note_on_c, 0, 55, 0
2, 65746, Note_on_c, 0, 70, 73
2, 65746, Note_on_c, 0, 61, 77
2, 65749, Note_on_c, 0, 65, 87
2, 65756, Control_c, 0, 64, 0
2, 65859, Note_on_c, 0, 51, 71
2, 65873, Control_c, 0, 64, 127
2, 65879, Note_on_c, 0, 51, 0
2, 65903, Note_on_c, 0, 61, 0
2, 65933, Note_on_c, 0, 65, 0
2, 65972, Note_on_c, 0, 55, 72
2, 65974, Note_on_c, 0, 61, 67
2, 65978, Note_on_c, 0, 65, 77
2, 65996, Control_c, 0, 64, 0
2, 65997, Note_on_c, 0, 70, 0
2, 66019, Control_c, 0, 64, 127
2, 66099, Note_on_c, 0, 69, 99
2, 66117, Note_on_c, 0, 65, 0
2, 66138, Note_on_c, 0, 69, 0
2, 66140, Note_on_c, 0, 61, 0
2, 66146, Note_on_c, 0, 55, 0
2, 66158, Note_on_c, 0, 68, 36
2, 66213, Note_on_c, 0, 68, 0
2, 66226, Note_on_c, 0, 56, 49
2, 66230, Note_on_c, 0, 69, 57
2, 66255, Note_on_c, 0, 69, 0
2, 66259, Note_on_c, 0, 56, 0
2, 66262, Control_c, 0, 64, 0
2, 66267, Note_on_c, 0, 57, 74
2, 66269, Note_on_c, 0, 62, 81
2, 66269, Note_on_c, 0, 72, 80
2, 66269, Note_on_c, 0, 67, 73
2, 66275, Note_on_c, 0, 69, 30
2, 66283, Note_on_c, 0, 69, 0
2, 66363, Control_c, 0, 64, 127
2, 66379, Note_on_c, 0, 62, 0
2, 66386, Note_on_c, 0, 57, 0
2, 66389, Note_on_c, 0, 67, 0
2, 66395, Note_on_c, 0, 72, 0
2, 66495, Control_c, 0, 64, 0
2, 66499, Note_on_c, 0, 49, 78
2, 66499, Note_on_c, 0, 81, 85
2, 66500, Note_on_c, 0, 76, 74
2, 66501, Note_on_c, 0, 69, 83
2, 66501, Note_on_c, 0, 57, 80
2, 66501, Note_on_c, 0, 73, 71
2, 66506, Note_on_c, 0, 71, 37
2, 66508, Note_on_c, 0, 79, 32
2, 66513, Note_on_c, 0, 71, 0
2, 66518, Note_on_c, 0, 79, 0
2, 66546, Note_on_c, 0, 81, 0
2, 66548, Note_on_c, 0, 57, 0
2, 66548, Note_on_c, 0, 49, 0
2, 66548, Note_on_c, 0, 73, 0
2, 66550, Note_on_c, 0, 69, 0
2, 66555, Note_on_c, 0, 76, 0
2, 66615, Note_on_c, 0, 79, 74
2, 66616, Note_on_c, 0, 76, 61
2, 66616, Note_on_c, 0, 73, 71
2, 66616, Note_on_c, 0, 49, 76
2, 66617, Note_on_c, 0, 67, 65
2, 66619, Note_on_c, 0, 57, 73
2, 66623, Note_on_c, 0, 69, 34
2, 66631, Note_on_c, 0, 69, 0
2, 66655, Note_on_c, 0, 67, 0
2, 66661, Note_on_c, 0, 76, 0
2, 66665, Note_on_c, 0, 57, 0
2, 66667, Note_on_c, 0, 79, 0
2, 66669, Note_on_c, 0, 49, 0
2, 66674, Note_on_c, 0, 73, 0
2, 66736, Note_on_c, 0, 77, 77
2, 66736, Note_on_c, 0, 65, 82
2, 66738, Note_on_c, 0, 72, 65
2, 66738, Note_on_c, 0, 50, 69
2, 66739, Note_on_c, 0, 57, 53
2, 66739, Note_on_c, 0, 60, 66
2, 66787, Control_c, 0, 64, 127
2, 66854, Note_on_c, 0, 50, 0
2, 66856, Note_on_c, 0, 57, 0
2, 66863, Note_on_c, 0, 77, 0
2, 66866, Note_on_c, 0, 60, 0
2, 66867, Note_on_c, 0, 72, 0
2, 66872, Note_on_c, 0, 65, 0
2, 66970, Control_c, 0, 64, 0
2, 66970, Note_on_c, 0, 74, 47
2, 66970, Note_on_c, 0, 60, 62
2, 66972, Note_on_c, 0, 70, 62
2, 66973, Note_on_c, 0, 65, 65
2, 66974, Note_on_c, 0, 54, 67
2, 67031, Control_c, 0, 64, 127
2, 67083, Note_on_c, 0, 60, 0
2, 67083, Note_on_c, 0, 74, 0
2, 67095, Note_on_c, 0, 70, 0
2, 67096, Note_on_c, 0, 65, 0
2, 67101, Note_on_c, 0, 54, 0
2, 67192, Control_c, 0, 64, 0
2, 67202, Note_on_c, 0, 43, 60
2, 67210, Control_c, 0, 64, 127
2, 67218, Note_on_c, 0, 43, 0
2, 67290, Note_on_c, 0, 53, 46
2, 67293, Note_on_c, 0, 74, 79
2, 67293, Note_on_c, 0, 59, 60
2, 67293, Note_on_c, 0, 64, 68
2, 67307, Control_c, 0, 64, 0
2, 67404, Control_c, 0, 64, 127
2, 67412, Note_on_c, 0, 74, 0
2, 67415, Control_c, 0, 64, 0
2, 67448, Note_on_c, 0, 64, 0
2, 67449, Note_on_c, 0, 74, 64
2, 67449, Note_on_c, 0, 68, 71
2, 67479, Note_on_c, 0, 68, 0
2, 67492, Note_on_c, 0, 69, 19
2, 67513, Note_on_c, 0, 74, 0
2, 67522, Note_on_c, 0, 69, 0
2, 67540, Note_on_c, 0, 62, 51
2, 67561, Note_on_c, 0, 59, 0
2, 67562, Note_on_c, 0, 62, 0
2, 67569, Note_on_c, 0, 53, 0
2, 67579, Note_on_c, 0, 65, 34
2, 67638, Note_on_c, 0, 65, 0
2, 67655, Note_on_c, 0, 65, 75
2, 67657, Note_on_c, 0, 48, 50
2, 67658, Note_on_c, 0, 58, 45
2, 67685, Note_on_c, 0, 65, 0
2, 67718, Note_on_c, 0, 65, 41
2, 67775, Note_on_c, 0, 65, 0
2, 67814, Note_on_c, 0, 65, 60
2, 67874, Note_on_c, 0, 65, 0
2, 67911, Note_on_c, 0, 58, 0
2, 67927, Note_on_c, 0, 60, 63
2, 67962, Note_on_c, 0, 48, 0
2, 67992, Note_on_c, 0, 60, 0
2, 68001, Note_on_c, 0, 62, 54
2, 68029, Note_on_c, 0, 62, 0
2, 68041, Note_on_c, 0, 65, 78
2, 68092, Note_on_c, 0, 65, 0
2, 68121, Note_on_c, 0, 65, 89
2, 68151, Note_on_c, 0, 65, 0
2, 68240, Note_on_c, 0, 47, 54
2, 68241, Note_on_c, 0, 57, 64
2, 68242, Note_on_c, 0, 62, 59
2, 68243, Note_on_c, 0, 65, 53
2, 68264, Note_on_c, 0, 65, 0
2, 68267, Note_on_c, 0, 57, 0
2, 68294, Note_on_c, 0, 62, 0
2, 68303, Note_on_c, 0, 47, 0
2, 68303, Note_on_c, 0, 61, 57
2, 68303, Note_on_c, 0, 56, 50
2, 68304, Note_on_c, 0, 46, 52
2, 68310, Note_on_c, 0, 65, 30
2, 68370, Note_on_c, 0, 65, 0
2, 68373, Note_on_c, 0, 56, 0
2, 68378, Note_on_c, 0, 61, 0
2, 68394, Note_on_c, 0, 46, 0
2, 68409, Note_on_c, 0, 45, 48
2, 68410, Note_on_c, 0, 55, 58
2, 68411, Note_on_c, 0, 65, 51
2, 68413, Note_on_c, 0, 60, 50
2, 68443, Note_on_c, 0, 55, 0
2, 68460, Note_on_c, 0, 60, 0
2, 68471, Note_on_c, 0, 65, 0
2, 68492, Note_on_c, 0, 65, 32
2, 68493, Note_on_c, 0, 54, 63
2, 68496, Note_on_c, 0, 44, 47
2, 68497, Note_on_c, 0, 59, 60
2, 68499, Note_on_c, 0, 45, 0
2, 68513, Note_on_c, 0, 65, 0
2, 68518, Note_on_c, 0, 59, 0
2, 68519, Note_on_c, 0, 54, 0
2, 68523, Note_on_c, 0, 44, 0
2, 68601, Note_on_c, 0, 65, 54
2, 68601, Note_on_c, 0, 58, 60
2, 68602, Note_on_c, 0, 43, 55
2, 68605, Note_on_c, 0, 53, 55
2, 68632, Note_on_c, 0, 53, 0
2, 68636, Note_on_c, 0, 43, 0
2, 68639, Note_on_c, 0, 58, 0
2, 68647, Note_on_c, 0, 65, 0
2, 68674, Note_on_c, 0, 58, 68
2, 68676, Note_on_c, 0, 53, 57
2, 68677, Note_on_c, 0, 63, 33
2, 68679, Note_on_c, 0, 42, 53
2, 68679, Note_on_c, 0, 65, 30
2, 68708, Control_c, 0, 64, 127
2, 68733, Note_on_c, 0, 65, 0
2, 68745, Control_c, 0, 64, 0
2, 68749, Note_on_c, 0, 53, 0
2, 68758, Note_on_c, 0, 63, 0
2, 68771, Note_on_c, 0, 30, 57
2, 68774, Control_c, 0, 64, 127
2, 68783, Note_on_c, 0, 42, 0
2, 68790, Note_on_c, 0, 58, 0
2, 68835, Note_on_c, 0, 30, 0
2, 68854, Note_on_c, 0, 60, 57
2, 68855, Note_on_c, 0, 55, 55
2, 68856, Note_on_c, 0, 29, 55
2, 68856, Note_on_c, 0, 57, 55
2, 68858, Note_on_c, 0, 41, 36
2, 68862, Control_c, 0, 64, 0
2, 68960, Control_c, 0, 64, 127
2, 69094, Note_on_c, 0, 55, 0
2, 69097, Note_on_c, 0, 57, 0
2, 69110, Note_on_c, 0, 29, 0
2, 69111, Note_on_c, 0, 60, 0
2, 69128, Note_on_c, 0, 41, 0
2, 69268, Note_on_c, 0, 69, 49
2, 69309, Note_on_c, 0, 74, 34
2, 69342, Note_on_c, 0, 74, 0
2, 69347, Note_on_c, 0, 79, 51
2, 69371, Note_on_c, 0, 79, 0
2, 69378, Note_on_c, 0, 84, 62
2, 69385, Note_on_c, 0, 84, 0
2, 69407, Note_on_c, 0, 86, 57
2, 69430, Note_on_c, 0, 91, 43
2, 69438, Note_on_c, 0, 86, 0
2, 69457, Note_on_c, 0, 91, 0
2, 69463, Note_on_c, 0, 96, 66
2, 69478, Note_on_c, 0, 96, 0
2, 69496, Note_on_c, 0, 98, 60
2, 69530, Note_on_c, 0, 98, 0
2, 69537, Note_on_c, 0, 96, 61
2, 69616, Note_on_c, 0, 96, 0
2, 69631, Note_on_c, 0, 69, 0
2, 69673, Note_on_c, 0, 108, 69
2, 69688, Note_on_c, 0, 108, 0
2, 69957, Control_c, 0, 64, 0
2, 69957, End_track
3, 0, Start_track
3, 0, Title_t, ""
3, 0, Program_c, 1, 35
3, 13, Note_on_c, 1, 33, 73
3, 213, Note_on_c, 1, 40, 36
3, 225, Note_on_c, 1, 40, 0
3, 329, Note_on_c, 1, 40, 45
3, 339, Note_on_c, 1, 40, 0
3, 374, Note_on_c, 1, 45, 61
3, 439, Note_on_c, 1, 45, 0
3, 448, Note_on_c, 1, 46, 64
3, 565, Note_on_c, 1, 45, 70
3, 579, Note_on_c, 1, 46, 0
3, 730, Note_on_c, 1, 33, 0
3, 805, Note_on_c, 1, 40, 44
3, 822, Note_on_c, 1, 40, 0
3, 833, Note_on_c, 1, 45, 0
3, 844, Note_on_c, 1, 34, 40
3, 921, Note_on_c, 1, 34, 0
3, 925, Note_on_c, 1, 33, 66
3, 1274, Note_on_c, 1, 40, 44
3, 1284, Note_on_c, 1, 40, 0
3, 1322, Note_on_c, 1, 45, 37
3, 1382, Note_on_c, 1, 45, 0
3, 1397, Note_on_c, 1, 46, 67
3, 1458, Note_on_c, 1, 46, 0
3, 1518, Note_on_c, 1, 46, 68
3, 1642, Note_on_c, 1, 40, 34
3, 1653, Note_on_c, 1, 40, 0
3, 1668, Note_on_c, 1, 46, 0
3, 1674, Note_on_c, 1, 33, 0
3, 1682, Note_on_c, 1, 45, 55
3, 1748, Note_on_c, 1, 45, 0
3, 1761, Note_on_c, 1, 34, 64
3, 1787, Note_on_c, 1, 34, 0
3, 1809, Note_on_c, 1, 33, 68
3, 1875, Note_on_c, 1, 33, 0
3, 1890, Note_on_c, 1, 33, 82
3, 2245, Note_on_c, 1, 48, 74
3, 2278, Note_on_c, 1, 48, 0
3, 2297, Note_on_c, 1, 46, 30
3, 2360, Note_on_c, 1, 46, 0
3, 2367, Note_on_c, 1, 45, 63
3, 2401, Note_on_c, 1, 33, 0
3, 2479, Note_on_c, 1, 33, 77
3, 2485, Note_on_c, 1, 45, 0
3, 2708, Note_on_c, 1, 31, 52
3, 2714, Note_on_c, 1, 33, 0
3, 2741, Note_on_c, 1, 31, 0
3, 2754, Note_on_c, 1, 32, 63
3, 2818, Note_on_c, 1, 32, 0
3, 2832, Note_on_c, 1, 33, 77
3, 2993, Note_on_c, 1, 48, 85
3, 3143, Note_on_c, 1, 33, 0
3, 3193, Note_on_c, 1, 33, 47
3, 3207, Note_on_c, 1, 48, 0
3, 3217, Note_on_c, 1, 33, 0
3, 3232, Note_on_c, 1, 46, 50
3, 3309, Note_on_c, 1, 46, 0
3, 3315, Note_on_c, 1, 45, 69
3, 3680, Note_on_c, 1, 33, 52
3, 3690, Note_on_c, 1, 33, 0
3, 3698, Note_on_c, 1, 45, 0
3, 3720, Note_on_c, 1, 43, 44
3, 3790, Note_on_c, 1, 43, 0
3, 3802, Note_on_c, 1, 42, 40
3, 3833, Note_on_c, 1, 42, 0
3, 3848, Note_on_c, 1, 41, 33
3, 3921, Note_on_c, 1, 41, 0
3, 3927, Note_on_c, 1, 36, 62
3, 4084, Note_on_c, 1, 36, 0
3, 4095, Note_on_c, 1, 33, 30
3, 4196, Note_on_c, 1, 33, 0
3, 4208, Note_on_c, 1, 34, 41
3, 4314, Note_on_c, 1, 34, 0
3, 4329, Note_on_c, 1, 35, 52
3, 4410, Note_on_c, 1, 34, 26
3, 4430, Note_on_c, 1, 34, 0
3, 4451, Note_on_c, 1, 47, 70
3, 4456, Note_on_c, 1, 35, 0
3, 4557, Note_on_c, 1, 47, 0
3, 4568, Note_on_c, 1, 41, 41
3, 4650, Note_on_c, 1, 35, 44
3, 4663, Note_on_c, 1, 41, 0
3, 4676, Note_on_c, 1, 35, 0
3, 4691, Note_on_c, 1, 35, 73
3, 4798, Note_on_c, 1, 35, 0
3, 4807, Note_on_c, 1, 34, 53
3, 4902, Note_on_c, 1, 36, 34
3, 4914, Note_on_c, 1, 36, 0
3, 4927, Note_on_c, 1, 48, 78
3, 4943, Note_on_c, 1, 34, 0
3, 5032, Note_on_c, 1, 48, 0
3, 5054, Note_on_c, 1, 47, 48
3, 5130, Note_on_c, 1, 47, 0
3, 5131, Note_on_c, 1, 37, 49
3, 5160, Note_on_c, 1, 37, 0
3, 5176, Note_on_c, 1, 38, 52
3, 5246, Note_on_c, 1, 38, 0
3, 5250, Note_on_c, 1, 39, 71
3, 5365, Note_on_c, 1, 37, 30
3, 5399, Note_on_c, 1, 39, 0
3, 5405, Note_on_c, 1, 41, 51
3, 5409, Note_on_c, 1, 37, 0
3, 5488, Note_on_c, 1, 39, 25
3, 5513, Note_on_c, 1, 39, 0
3, 5515, Note_on_c, 1, 41, 0
3, 5530, Note_on_c, 1, 43, 35
3, 5601, Note_on_c, 1, 39, 53
3, 5615, Note_on_c, 1, 43, 0
3, 5717, Note_on_c, 1, 42, 61
3, 5735, Note_on_c, 1, 39, 0
3, 5746, Note_on_c, 1, 42, 0
3, 5763, Note_on_c, 1, 43, 48
3, 5836, Note_on_c, 1, 43, 0
3, 5845, Note_on_c, 1, 38, 60
3, 5992, Note_on_c, 1, 38, 0
3, 6000, Note_on_c, 1, 34, 47
3, 6113, Note_on_c, 1, 34, 0
3, 6118, Note_on_c, 1, 35, 54
3, 6204, Note_on_c, 1, 34, 23
3, 6230, Note_on_c, 1, 34, 0
3, 6231, Note_on_c, 1, 35, 0
3, 6239, Note_on_c, 1, 36, 56
3, 6331, Note_on_c, 1, 34, 27
3, 6354, Note_on_c, 1, 36, 0
3, 6358, Note_on_c, 1, 50, 93
3, 6375, Note_on_c, 1, 34, 0
3, 6447, Note_on_c, 1, 34, 8
3, 6465, Note_on_c, 1, 50, 0
3, 6468, Note_on_c, 1, 34, 0
3, 6482, Note_on_c, 1, 48, 50
3, 6562, Note_on_c, 1, 39, 42
3, 6574, Note_on_c, 1, 48, 0
3, 6588, Note_on_c, 1, 39, 0
3, 6603, Note_on_c, 1, 40, 48
3, 6676, Note_on_c, 1, 40, 0
3, 6686, Note_on_c, 1, 41, 69
3, 6827, Note_on_c, 1, 41, 0
3, 6839, Note_on_c, 1, 29, 68
3, 7035, Note_on_c, 1, 36, 36
3, 7064, Note_on_c, 1, 36, 0
3, 7080, Note_on_c, 1, 29, 0
3, 7083, Note_on_c, 1, 41, 82
3, 7277, Note_on_c, 1, 31, 78
3, 7421, Note_on_c, 1, 41, 0
3, 7435, Note_on_c, 1, 31, 0
3, 7436, Note_on_c, 1, 32, 77
3, 7602, Note_on_c, 1, 32, 0
3, 7632, Note_on_c, 1, 33, 95
3, 8035, Note_on_c, 1, 47, 74
3, 8106, Note_on_c, 1, 47, 0
3, 8122, Note_on_c, 1, 45, 70
3, 8176, Note_on_c, 1, 33, 0
3, 8230, Note_on_c, 1, 33, 84
3, 8235, Note_on_c, 1, 45, 0
3, 8347, Note_on_c, 1, 32, 40
3, 8391, Note_on_c, 1, 33, 0
3, 8392, Note_on_c, 1, 46, 67
3, 8401, Note_on_c, 1, 32, 0
3, 8500, Note_on_c, 1, 46, 0
3, 8513, Note_on_c, 1, 45, 54
3, 8592, Note_on_c, 1, 33, 40
3, 8618, Note_on_c, 1, 45, 0
3, 8629, Note_on_c, 1, 33, 0
3, 8635, Note_on_c, 1, 52, 74
3, 8738, Note_on_c, 1, 52, 0
3, 8757, Note_on_c, 1, 51, 64
3, 8832, Note_on_c, 1, 51, 0
3, 8839, Note_on_c, 1, 50, 61
3, 8961, Note_on_c, 1, 33, 42
3, 8978, Note_on_c, 1, 50, 0
3, 8983, Note_on_c, 1, 33, 0
3, 9002, Note_on_c, 1, 48, 66
3, 9005, Note_on_c, 1, 50, 30
3, 9025, Note_on_c, 1, 50, 0
3, 9089, Note_on_c, 1, 33, 30
3, 9104, Note_on_c, 1, 33, 0
3, 9109, Note_on_c, 1, 48, 0
3, 9124, Note_on_c, 1, 46, 58
3, 9204, Note_on_c, 1, 33, 25
3, 9207, Note_on_c, 1, 46, 0
3, 9221, Note_on_c, 1, 33, 0
3, 9241, Note_on_c, 1, 44, 58
3, 9323, Note_on_c, 1, 33, 26
3, 9344, Note_on_c, 1, 44, 0
3, 9352, Note_on_c, 1, 33, 0
3, 9361, Note_on_c, 1, 45, 56
3, 9439, Note_on_c, 1, 33, 70
3, 9446, Note_on_c, 1, 45, 0
3, 9465, Note_on_c, 1, 33, 0
3, 9488, Note_on_c, 1, 32, 58
3, 9544, Note_on_c, 1, 32, 0
3, 9564, Note_on_c, 1, 33, 86
3, 9796, Note_on_c, 1, 45, 68
3, 9855, Note_on_c, 1, 33, 0
3, 9919, Note_on_c, 1, 45, 0
3, 9919, Note_on_c, 1, 32, 66
3, 9947, Note_on_c, 1, 32, 0
3, 9966, Note_on_c, 1, 33, 93
3, 10027, Note_on_c, 1, 33, 0
3, 10044, Note_on_c, 1, 33, 82
3, 10287, Note_on_c, 1, 45, 93
3, 10341, Note_on_c, 1, 33, 0
3, 10402, Note_on_c, 1, 32, 57
3, 10408, Note_on_c, 1, 45, 0
3, 10424, Note_on_c, 1, 32, 0
3, 10450, Note_on_c, 1, 33, 91
3, 10813, Note_on_c, 1, 45, 84
3, 10851, Note_on_c, 1, 45, 0
3, 10933, Note_on_c, 1, 46, 74
3, 10971, Note_on_c, 1, 33, 0
3, 11003, Note_on_c, 1, 46, 0
3, 11050, Note_on_c, 1, 45, 70
3, 11127, Note_on_c, 1, 45, 0
3, 11129, Note_on_c, 1, 33, 75
3, 11358, Note_on_c, 1, 32, 52
3, 11381, Note_on_c, 1, 33, 0
3, 11386, Note_on_c, 1, 32, 0
3, 11398, Note_on_c, 1, 42, 65
3, 11479, Note_on_c, 1, 42, 0
3, 11485, Note_on_c, 1, 41, 61
3, 11490, Note_on_c, 1, 42, 11
3, 11501, Note_on_c, 1, 42, 0
3, 11606, Note_on_c, 1, 36, 45
3, 11613, Note_on_c, 1, 41, 0
3, 11627, Note_on_c, 1, 36, 0
3, 11648, Note_on_c, 1, 33, 56
3, 11762, Note_on_c, 1, 33, 0
3, 11774, Note_on_c, 1, 36, 60
3, 11878, Note_on_c, 1, 36, 0
3, 11886, Note_on_c, 1, 34, 57
3, 11996, Note_on_c, 1, 34, 0
3, 12005, Note_on_c, 1, 35, 57
3, 12098, Note_on_c, 1, 34, 39
3, 12126, Note_on_c, 1, 47, 68
3, 12127, Note_on_c, 1, 34, 0
3, 12132, Note_on_c, 1, 35, 0
3, 12208, Note_on_c, 1, 35, 20
3, 12223, Note_on_c, 1, 35, 0
3, 12250, Note_on_c, 1, 42, 43
3, 12339, Note_on_c, 1, 35, 52
3, 12347, Note_on_c, 1, 42, 0
3, 12352, Note_on_c, 1, 35, 0
3, 12355, Note_on_c, 1, 47, 0
3, 12378, Note_on_c, 1, 33, 62
3, 12488, Note_on_c, 1, 33, 0
3, 12493, Note_on_c, 1, 34, 67
3, 12586, Note_on_c, 1, 32, 20
3, 12604, Note_on_c, 1, 32, 0
3, 12615, Note_on_c, 1, 45, 85
3, 12619, Note_on_c, 1, 34, 0
3, 12684, Note_on_c, 1, 34, 34
3, 12714, Note_on_c, 1, 34, 0
3, 12720, Note_on_c, 1, 45, 0
3, 12736, Note_on_c, 1, 41, 45
3, 12816, Note_on_c, 1, 38, 35
3, 12821, Note_on_c, 1, 41, 0
3, 12837, Note_on_c, 1, 38, 0
3, 12848, Note_on_c, 1, 34, 54
3, 12928, Note_on_c, 1, 34, 0
3, 12937, Note_on_c, 1, 39, 72
3, 13077, Note_on_c, 1, 39, 0
3, 13092, Note_on_c, 1, 39, 72
3, 13196, Note_on_c, 1, 39, 0
3, 13206, Note_on_c, 1, 34, 50
3, 13320, Note_on_c, 1, 44, 77
3, 13433, Note_on_c, 1, 44, 0
3, 13437, Note_on_c, 1, 43, 60
3, 13439, Note_on_c, 1, 34, 0
3, 13551, Note_on_c, 1, 43, 0
3, 13558, Note_on_c, 1, 38, 62
3, 13666, Note_on_c, 1, 38, 0
3, 13679, Note_on_c, 1, 34, 58
3, 13745, Note_on_c, 1, 34, 0
3, 13767, Note_on_c, 1, 34, 49
3, 13795, Note_on_c, 1, 34, 0
3, 13802, Note_on_c, 1, 35, 57
3, 13918, Note_on_c, 1, 35, 0
3, 13918, Note_on_c, 1, 36, 57
3, 14013, Note_on_c, 1, 34, 40
3, 14030, Note_on_c, 1, 36, 0
3, 14043, Note_on_c, 1, 50, 69
3, 14063, Note_on_c, 1, 34, 0
3, 14126, Note_on_c, 1, 34, 8
3, 14149, Note_on_c, 1, 50, 0
3, 14155, Note_on_c, 1, 34, 0
3, 14166, Note_on_c, 1, 48, 64
3, 14253, Note_on_c, 1, 36, 45
3, 14269, Note_on_c, 1, 48, 0
3, 14272, Note_on_c, 1, 36, 0
3, 14286, Note_on_c, 1, 46, 69
3, 14385, Note_on_c, 1, 46, 0
3, 14402, Note_on_c, 1, 45, 29
3, 14503, Note_on_c, 1, 45, 0
3, 14523, Note_on_c, 1, 43, 68
3, 14638, Note_on_c, 1, 43, 0
3, 14645, Note_on_c, 1, 41, 61
3, 14758, Note_on_c, 1, 41, 0
3, 14762, Note_on_c, 1, 36, 84
3, 14885, Note_on_c, 1, 43, 82
3, 14896, Note_on_c, 1, 36, 0
3, 14973, Note_on_c, 1, 36, 35
3, 14984, Note_on_c, 1, 36, 0
3, 15003, Note_on_c, 1, 41, 75
3, 15012, Note_on_c, 1, 43, 0
3, 15121, Note_on_c, 1, 41, 0
3, 15123, Note_on_c, 1, 36, 68
3, 15201, Note_on_c, 1, 36, 0
3, 15212, Note_on_c, 1, 38, 56
3, 15241, Note_on_c, 1, 38, 0
3, 15249, Note_on_c, 1, 39, 66
3, 15328, Note_on_c, 1, 39, 0
3, 15333, Note_on_c, 1, 40, 81
3, 15446, Note_on_c, 1, 39, 49
3, 15466, Note_on_c, 1, 39, 0
3, 15495, Note_on_c, 1, 52, 79
3, 15568, Note_on_c, 1, 52, 0
3, 15569, Note_on_c, 1, 53, 56
3, 15596, Note_on_c, 1, 53, 0
3, 15620, Note_on_c, 1, 52, 75
3, 15693, Note_on_c, 1, 40, 0
3, 15803, Note_on_c, 1, 40, 84
3, 15819, Note_on_c, 1, 52, 0
3, 15922, Note_on_c, 1, 39, 50
3, 15931, Note_on_c, 1, 40, 0
3, 15960, Note_on_c, 1, 39, 0
3, 15968, Note_on_c, 1, 40, 81
3, 16162, Note_on_c, 1, 39, 49
3, 16184, Note_on_c, 1, 39, 0
3, 16200, Note_on_c, 1, 52, 85
3, 16263, Note_on_c, 1, 52, 0
3, 16281, Note_on_c, 1, 53, 63
3, 16347, Note_on_c, 1, 53, 0
3, 16394, Note_on_c, 1, 52, 81
3, 16445, Note_on_c, 1, 40, 0
3, 16514, Note_on_c, 1, 39, 59
3, 16516, Note_on_c, 1, 52, 0
3, 16547, Note_on_c, 1, 39, 0
3, 16555, Note_on_c, 1, 40, 68
3, 16646, Note_on_c, 1, 39, 33
3, 16664, Note_on_c, 1, 39, 0
3, 16675, Note_on_c, 1, 52, 85
3, 16740, Note_on_c, 1, 52, 0
3, 16758, Note_on_c, 1, 53, 65
3, 16811, Note_on_c, 1, 53, 0
3, 16874, Note_on_c, 1, 52, 77
3, 16926, Note_on_c, 1, 40, 0
3, 16989, Note_on_c, 1, 40, 80
3, 17111, Note_on_c, 1, 36, 55
3, 17115, Note_on_c, 1, 40, 0
3, 17132, Note_on_c, 1, 36, 0
3, 17151, Note_on_c, 1, 39, 61
3, 17175, Note_on_c, 1, 52, 0
3, 17235, Note_on_c, 1, 37, 39
3, 17241, Note_on_c, 1, 39, 0
3, 17264, Note_on_c, 1, 37, 0
3, 17273, Note_on_c, 1, 38, 56
3, 17362, Note_on_c, 1, 37, 42
3, 17400, Note_on_c, 1, 50, 79
3, 17404, Note_on_c, 1, 37, 0
3, 17450, Note_on_c, 1, 50, 0
3, 17481, Note_on_c, 1, 51, 74
3, 17526, Note_on_c, 1, 51, 0
3, 17605, Note_on_c, 1, 50, 82
3, 17676, Note_on_c, 1, 38, 0
3, 17720, Note_on_c, 1, 34, 38
3, 17743, Note_on_c, 1, 34, 0
3, 17760, Note_on_c, 1, 38, 67
3, 17856, Note_on_c, 1, 38, 0
3, 17879, Note_on_c, 1, 50, 0
3, 17881, Note_on_c, 1, 38, 71
3, 18078, Note_on_c, 1, 34, 37
3, 18080, Note_on_c, 1, 38, 0
3, 18106, Note_on_c, 1, 34, 0
3, 18119, Note_on_c, 1, 38, 70
3, 18183, Note_on_c, 1, 38, 0
3, 18201, Note_on_c, 1, 38, 73
3, 18318, Note_on_c, 1, 57, 77
3, 18354, Note_on_c, 1, 57, 0
3, 18373, Note_on_c, 1, 55, 46
3, 18429, Note_on_c, 1, 55, 0
3, 18442, Note_on_c, 1, 51, 69
3, 18485, Note_on_c, 1, 38, 0
3, 18557, Note_on_c, 1, 38, 50
3, 18570, Note_on_c, 1, 38, 0
3, 18576, Note_on_c, 1, 51, 0
3, 18602, Note_on_c, 1, 50, 73
3, 18680, Note_on_c, 1, 38, 73
3, 18686, Note_on_c, 1, 50, 0
3, 18804, Note_on_c, 1, 38, 0
3, 18807, Note_on_c, 1, 37, 27
3, 18829, Note_on_c, 1, 37, 0
3, 18845, Note_on_c, 1, 38, 74
3, 19042, Note_on_c, 1, 33, 65
3, 19047, Note_on_c, 1, 38, 0
3, 19062, Note_on_c, 1, 33, 0
3, 19087, Note_on_c, 1, 32, 75
3, 19186, Note_on_c, 1, 32, 0
3, 19200, Note_on_c, 1, 31, 66
3, 19415, Note_on_c, 1, 34, 24
3, 19448, Note_on_c, 1, 31, 0
3, 19449, Note_on_c, 1, 38, 73
3, 19461, Note_on_c, 1, 34, 0
3, 19550, Note_on_c, 1, 38, 0
3, 19589, Note_on_c, 1, 38, 44
3, 19679, Note_on_c, 1, 38, 0
3, 19689, Note_on_c, 1, 39, 65
3, 19884, Note_on_c, 1, 51, 78
3, 19951, Note_on_c, 1, 39, 0
3, 19998, Note_on_c, 1, 39, 50
3, 20024, Note_on_c, 1, 51, 0
3, 20034, Note_on_c, 1, 39, 0
3, 20044, Note_on_c, 1, 49, 63
3, 20139, Note_on_c, 1, 49, 0
3, 20160, Note_on_c, 1, 48, 68
3, 20260, Note_on_c, 1, 48, 0
3, 20281, Note_on_c, 1, 36, 75
3, 20390, Note_on_c, 1, 36, 0
3, 20405, Note_on_c, 1, 37, 61
3, 20485, Note_on_c, 1, 34, 49
3, 20519, Note_on_c, 1, 34, 0
3, 20524, Note_on_c, 1, 49, 73
3, 20531, Note_on_c, 1, 37, 0
3, 20632, Note_on_c, 1, 49, 0
3, 20647, Note_on_c, 1, 50, 67
3, 20738, Note_on_c, 1, 37, 24
3, 20743, Note_on_c, 1, 50, 0
3, 20754, Note_on_c, 1, 37, 0
3, 20764, Note_on_c, 1, 38, 61
3, 20860, Note_on_c, 1, 37, 23
3, 20875, Note_on_c, 1, 38, 0
3, 20884, Note_on_c, 1, 44, 72
3, 20891, Note_on_c, 1, 37, 0
3, 20990, Note_on_c, 1, 44, 0
3, 21001, Note_on_c, 1, 42, 73
3, 21105, Note_on_c, 1, 42, 0
3, 21124, Note_on_c, 1, 43, 59
3, 21207, Note_on_c, 1, 38, 54
3, 21212, Note_on_c, 1, 43, 0
3, 21231, Note_on_c, 1, 38, 0
3, 21247, Note_on_c, 1, 35, 65
3, 21357, Note_on_c, 1, 35, 0
3, 21367, Note_on_c, 1, 38, 65
3, 21453, Note_on_c, 1, 38, 0
3, 21453, Note_on_c, 1, 34, 44
3, 21477, Note_on_c, 1, 34, 0
3, 21488, Note_on_c, 1, 35, 64
3, 21599, Note_on_c, 1, 35, 0
3, 21604, Note_on_c, 1, 36, 70
3, 21691, Note_on_c, 1, 34, 51
3, 21707, Note_on_c, 1, 36, 0
3, 21725, Note_on_c, 1, 50, 100
3, 21737, Note_on_c, 1, 34, 0
3, 21833, Note_on_c, 1, 50, 0
3, 21844, Note_on_c, 1, 48, 68
3, 21931, Note_on_c, 1, 39, 45
3, 21932, Note_on_c, 1, 48, 0
3, 21954, Note_on_c, 1, 39, 0
3, 21966, Note_on_c, 1, 40, 54
3, 22040, Note_on_c, 1, 40, 0
3, 22048, Note_on_c, 1, 41, 84
3, 22195, Note_on_c, 1, 41, 0
3, 22209, Note_on_c, 1, 36, 89
3, 22509, Note_on_c, 1, 36, 0
3, 22517, Note_on_c, 1, 41, 86
3, 22686, Note_on_c, 1, 35, 80
3, 22704, Note_on_c, 1, 41, 0
3, 22858, Note_on_c, 1, 35, 0
3, 22873, Note_on_c, 1, 34, 77
3, 23022, Note_on_c, 1, 34, 0
3, 23035, Note_on_c, 1, 33, 70
3, 23349, Note_on_c, 1, 46, 73
3, 23392, Note_on_c, 1, 46, 0
3, 23405, Note_on_c, 1, 45, 64
3, 23491, Note_on_c, 1, 33, 0
3, 23589, Note_on_c, 1, 32, 63
3, 23609, Note_on_c, 1, 45, 0
3, 23619, Note_on_c, 1, 32, 0
3, 23631, Note_on_c, 1, 33, 70
3, 23702, Note_on_c, 1, 33, 0
3, 23716, Note_on_c, 1, 33, 84
3, 23948, Note_on_c, 1, 33, 0
3, 23953, Note_on_c, 1, 31, 82
3, 24109, Note_on_c, 1, 31, 0
3, 24116, Note_on_c, 1, 32, 76
3, 24231, Note_on_c, 1, 32, 0
3, 24238, Note_on_c, 1, 33, 72
3, 24320, Note_on_c, 1, 32, 51
3, 24338, Note_on_c, 1, 33, 0
3, 24343, Note_on_c, 1, 32, 0
3, 24359, Note_on_c, 1, 48, 93
3, 24561, Note_on_c, 1, 46, 73
3, 24567, Note_on_c, 1, 48, 0
3, 24721, Note_on_c, 1, 45, 69
3, 24722, Note_on_c, 1, 46, 0
3, 24801, Note_on_c, 1, 31, 70
3, 24817, Note_on_c, 1, 45, 0
3, 24832, Note_on_c, 1, 31, 0
3, 24849, Note_on_c, 1, 32, 69
3, 24916, Note_on_c, 1, 32, 0
3, 24927, Note_on_c, 1, 33, 81
3, 25044, Note_on_c, 1, 32, 46
3, 25074, Note_on_c, 1, 32, 0
3, 25090, Note_on_c, 1, 50, 95
3, 25214, Note_on_c, 1, 33, 0
3, 25406, Note_on_c, 1, 33, 56
3, 25424, Note_on_c, 1, 33, 0
3, 25432, Note_on_c, 1, 50, 0
3, 25444, Note_on_c, 1, 48, 70
3, 25525, Note_on_c, 1, 33, 43
3, 25529, Note_on_c, 1, 48, 0
3, 25538, Note_on_c, 1, 33, 0
3, 25560, Note_on_c, 1, 46, 61
3, 25643, Note_on_c, 1, 46, 0
3, 25645, Note_on_c, 1, 45, 74
3, 25764, Note_on_c, 1, 31, 61
3, 25781, Note_on_c, 1, 45, 0
3, 25788, Note_on_c, 1, 31, 0
3, 25809, Note_on_c, 1, 32, 74
3, 25887, Note_on_c, 1, 33, 86
3, 25896, Note_on_c, 1, 32, 0
3, 26013, Note_on_c, 1, 32, 23
3, 26050, Note_on_c, 1, 32, 0
3, 26127, Note_on_c, 1, 32, 40
3, 26147, Note_on_c, 1, 32, 0
3, 26162, Note_on_c, 1, 33, 0
3, 26162, Note_on_c, 1, 48, 86
3, 26242, Note_on_c, 1, 33, 48
3, 26245, Note_on_c, 1, 48, 0
3, 26262, Note_on_c, 1, 33, 0
3, 26284, Note_on_c, 1, 46, 65
3, 26368, Note_on_c, 1, 32, 22
3, 26383, Note_on_c, 1, 32, 0
3, 26392, Note_on_c, 1, 46, 0
3, 26405, Note_on_c, 1, 45, 66
3, 26412, Note_on_c, 1, 46, 34
3, 26422, Note_on_c, 1, 46, 0
3, 26486, Note_on_c, 1, 33, 78
3, 26655, Note_on_c, 1, 33, 0
3, 26726, Note_on_c, 1, 39, 54
3, 26741, Note_on_c, 1, 45, 0
3, 26750, Note_on_c, 1, 39, 0
3, 26769, Note_on_c, 1, 40, 50
3, 26844, Note_on_c, 1, 41, 75
3, 26854, Note_on_c, 1, 40, 0
3, 26955, Note_on_c, 1, 39, 46
3, 27002, Note_on_c, 1, 41, 0
3, 27004, Note_on_c, 1, 48, 70
3, 27006, Note_on_c, 1, 39, 0
3, 27079, Note_on_c, 1, 39, 37
3, 27107, Note_on_c, 1, 39, 0
3, 27128, Note_on_c, 1, 45, 39
3, 27140, Note_on_c, 1, 48, 0
3, 27140, Note_on_c, 1, 49, 11
3, 27201, Note_on_c, 1, 41, 51
3, 27209, Note_on_c, 1, 45, 0
3, 27221, Note_on_c, 1, 49, 0
3, 27226, Note_on_c, 1, 41, 0
3, 27240, Note_on_c, 1, 45, 55
3, 27319, Note_on_c, 1, 41, 33
3, 27334, Note_on_c, 1, 41, 0
3, 27347, Note_on_c, 1, 45, 0
3, 27358, Note_on_c, 1, 47, 44
3, 27477, Note_on_c, 1, 42, 48
3, 27488, Note_on_c, 1, 41, 41
3, 27517, Note_on_c, 1, 41, 0
3, 27529, Note_on_c, 1, 42, 0
3, 27593, Note_on_c, 1, 39, 49
3, 27610, Note_on_c, 1, 47, 0
3, 27698, Note_on_c, 1, 39, 0
3, 27721, Note_on_c, 1, 40, 38
3, 27794, Note_on_c, 1, 39, 43
3, 27814, Note_on_c, 1, 40, 0
3, 27825, Note_on_c, 1, 39, 0
3, 27832, Note_on_c, 1, 46, 69
3, 27955, Note_on_c, 1, 41, 58
3, 27960, Note_on_c, 1, 46, 0
3, 28075, Note_on_c, 1, 41, 0
3, 28078, Note_on_c, 1, 38, 58
3, 28175, Note_on_c, 1, 38, 0
3, 28200, Note_on_c, 1, 38, 61
3, 28300, Note_on_c, 1, 38, 0
3, 28319, Note_on_c, 1, 39, 70
3, 28446, Note_on_c, 1, 51, 78
3, 28464, Note_on_c, 1, 39, 0
3, 28526, Note_on_c, 1, 39, 37
3, 28553, Note_on_c, 1, 39, 0
3, 28561, Note_on_c, 1, 51, 0
3, 28566, Note_on_c, 1, 48, 34
3, 28635, Note_on_c, 1, 39, 29
3, 28647, Note_on_c, 1, 48, 0
3, 28666, Note_on_c, 1, 39, 0
3, 28677, Note_on_c, 1, 42, 69
3, 28777, Note_on_c, 1, 42, 0
3, 28793, Note_on_c, 1, 43, 60
3, 28913, Note_on_c, 1, 43, 0
3, 28919, Note_on_c, 1, 38, 58
3, 29029, Note_on_c, 1, 38, 0
3, 29040, Note_on_c, 1, 34, 57
3, 29143, Note_on_c, 1, 34, 0
3, 29161, Note_on_c, 1, 35, 52
3, 29249, Note_on_c, 1, 34, 20
3, 29269, Note_on_c, 1, 35, 0
3, 29271, Note_on_c, 1, 34, 0
3, 29275, Note_on_c, 1, 36, 62
3, 29363, Note_on_c, 1, 34, 37
3, 29391, Note_on_c, 1, 36, 0
3, 29399, Note_on_c, 1, 50, 89
3, 29418, Note_on_c, 1, 34, 0
3, 29514, Note_on_c, 1, 50, 0
3, 29523, Note_on_c, 1, 48, 62
3, 29605, Note_on_c, 1, 40, 81
3, 29620, Note_on_c, 1, 48, 0
3, 29763, Note_on_c, 1, 40, 0
3, 29766, Note_on_c, 1, 41, 69
3, 29855, Note_on_c, 1, 40, 36
3, 29872, Note_on_c, 1, 41, 0
3, 29883, Note_on_c, 1, 50, 85
3, 29886, Note_on_c, 1, 40, 0
3, 29978, Note_on_c, 1, 39, 10
3, 29993, Note_on_c, 1, 39, 0
3, 29995, Note_on_c, 1, 50, 0
3, 30002, Note_on_c, 1, 48, 68
3, 30116, Note_on_c, 1, 48, 0
3, 30124, Note_on_c, 1, 45, 65
3, 30241, Note_on_c, 1, 45, 0
3, 30244, Note_on_c, 1, 41, 69
3, 30356, Note_on_c, 1, 41, 0
3, 30362, Note_on_c, 1, 36, 72
3, 30476, Note_on_c, 1, 36, 0
3, 30486, Note_on_c, 1, 35, 59
3, 30590, Note_on_c, 1, 35, 0
3, 30601, Note_on_c, 1, 34, 61
3, 30716, Note_on_c, 1, 34, 0
3, 30730, Note_on_c, 1, 33, 69
3, 30818, Note_on_c, 1, 46, 76
3, 30967, Note_on_c, 1, 46, 0
3, 30971, Note_on_c, 1, 44, 25
3, 30978, Note_on_c, 1, 45, 66
3, 30979, Note_on_c, 1, 33, 0
3, 30982, Note_on_c, 1, 44, 0
3, 31096, Note_on_c, 1, 33, 93
3, 31098, Note_on_c, 1, 45, 0
3, 31413, Note_on_c, 1, 46, 83
3, 31486, Note_on_c, 1, 46, 0
3, 31533, Note_on_c, 1, 45, 91
3, 31574, Note_on_c, 1, 33, 0
3, 31608, Note_on_c, 1, 45, 0
3, 31643, Note_on_c, 1, 32, 60
3, 31678, Note_on_c, 1, 32, 0
3, 31685, Note_on_c, 1, 33, 67
3, 31858, Note_on_c, 1, 33, 0
3, 31876, Note_on_c, 1, 33, 75
3, 31948, Note_on_c, 1, 33, 0
3, 31991, Note_on_c, 1, 32, 52
3, 32017, Note_on_c, 1, 32, 0
3, 32037, Note_on_c, 1, 33, 81
3, 32107, Note_on_c, 1, 33, 0
3, 32122, Note_on_c, 1, 33, 81
3, 32167, Note_on_c, 1, 33, 0
3, 32254, Note_on_c, 1, 31, 93
3, 32467, Note_on_c, 1, 32, 88
3, 32481, Note_on_c, 1, 31, 0
3, 32593, Note_on_c, 1, 30, 38
3, 32623, Note_on_c, 1, 30, 0
3, 32629, Note_on_c, 1, 33, 81
3, 32635, Note_on_c, 1, 32, 0
3, 32832, Note_on_c, 1, 32, 38
3, 32873, Note_on_c, 1, 50, 86
3, 32875, Note_on_c, 1, 32, 0
3, 32912, Note_on_c, 1, 50, 0
3, 32945, Note_on_c, 1, 32, 38
3, 32986, Note_on_c, 1, 32, 0
3, 32991, Note_on_c, 1, 49, 74
3, 32993, Note_on_c, 1, 33, 0
3, 33195, Note_on_c, 1, 32, 64
3, 33211, Note_on_c, 1, 49, 0
3, 33239, Note_on_c, 1, 33, 77
3, 33256, Note_on_c, 1, 32, 0
3, 33442, Note_on_c, 1, 52, 98
3, 33555, Note_on_c, 1, 32, 43
3, 33587, Note_on_c, 1, 52, 0
3, 33589, Note_on_c, 1, 33, 0
3, 33596, Note_on_c, 1, 32, 0
3, 33600, Note_on_c, 1, 50, 73
3, 33683, Note_on_c, 1, 33, 28
3, 33685, Note_on_c, 1, 50, 0
3, 33701, Note_on_c, 1, 33, 0
3, 33718, Note_on_c, 1, 49, 66
3, 33801, Note_on_c, 1, 32, 25
3, 33817, Note_on_c, 1, 32, 0
3, 33832, Note_on_c, 1, 49, 0
3, 33841, Note_on_c, 1, 46, 70
3, 33938, Note_on_c, 1, 32, 23
3, 33943, Note_on_c, 1, 46, 0
3, 33952, Note_on_c, 1, 32, 0
3, 33960, Note_on_c, 1, 45, 62
3, 34066, Note_on_c, 1, 45, 0
3, 34078, Note_on_c, 1, 43, 53
3, 34160, Note_on_c, 1, 33, 77
3, 34191, Note_on_c, 1, 43, 0
3, 34414, Note_on_c, 1, 33, 0
3, 34445, Note_on_c, 1, 40, 70
3, 34551, Note_on_c, 1, 40, 0
3, 34564, Note_on_c, 1, 41, 58
3, 34676, Note_on_c, 1, 41, 0
3, 34679, Note_on_c, 1, 36, 64
3, 34785, Note_on_c, 1, 36, 0
3, 34803, Note_on_c, 1, 34, 46
3, 34904, Note_on_c, 1, 34, 0
3, 34916, Note_on_c, 1, 35, 48
3, 35010, Note_on_c, 1, 34, 22
3, 35025, Note_on_c, 1, 35, 0
3, 35034, Note_on_c, 1, 34, 0
3, 35039, Note_on_c, 1, 36, 52
3, 35124, Note_on_c, 1, 34, 33
3, 35146, Note_on_c, 1, 36, 0
3, 35161, Note_on_c, 1, 48, 91
3, 35183, Note_on_c, 1, 34, 0
3, 35237, Note_on_c, 1, 36, 34
3, 35256, Note_on_c, 1, 36, 0
3, 35265, Note_on_c, 1, 48, 0
3, 35281, Note_on_c, 1, 47, 64
3, 35398, Note_on_c, 1, 47, 0
3, 35402, Note_on_c, 1, 35, 56
3, 35508, Note_on_c, 1, 35, 0
3, 35519, Note_on_c, 1, 34, 58
3, 35608, Note_on_c, 1, 36, 40
3, 35622, Note_on_c, 1, 36, 0
3, 35643, Note_on_c, 1, 50, 81
3, 35654, Note_on_c, 1, 34, 0
3, 35757, Note_on_c, 1, 50, 0
3, 35770, Note_on_c, 1, 46, 39
3, 35847, Note_on_c, 1, 37, 47
3, 35851, Note_on_c, 1, 46, 0
3, 35867, Note_on_c, 1, 37, 0
3, 35883, Note_on_c, 1, 38, 24
3, 35985, Note_on_c, 1, 38, 0
3, 35998, Note_on_c, 1, 39, 64
3, 36106, Note_on_c, 1, 39, 0
3, 36121, Note_on_c, 1, 39, 70
3, 36223, Note_on_c, 1, 39, 0
3, 36233, Note_on_c, 1, 34, 51
3, 36324, Note_on_c, 1, 39, 47
3, 36346, Note_on_c, 1, 39, 0
3, 36350, Note_on_c, 1, 34, 0
3, 36353, Note_on_c, 1, 44, 65
3, 36477, Note_on_c, 1, 43, 56
3, 36498, Note_on_c, 1, 44, 0
3, 36589, Note_on_c, 1, 43, 0
3, 36602, Note_on_c, 1, 38, 56
3, 36718, Note_on_c, 1, 38, 0
3, 36723, Note_on_c, 1, 34, 60
3, 36830, Note_on_c, 1, 34, 0
3, 36839, Note_on_c, 1, 35, 63
3, 36954, Note_on_c, 1, 35, 0
3, 36962, Note_on_c, 1, 36, 65
3, 37047, Note_on_c, 1, 34, 50
3, 37055, Note_on_c, 1, 36, 0
3, 37082, Note_on_c, 1, 38, 66
3, 37085, Note_on_c, 1, 34, 0
3, 37165, Note_on_c, 1, 34, 16
3, 37192, Note_on_c, 1, 38, 0
3, 37194, Note_on_c, 1, 34, 0
3, 37198, Note_on_c, 1, 39, 66
3, 37299, Note_on_c, 1, 36, 29
3, 37315, Note_on_c, 1, 36, 0
3, 37321, Note_on_c, 1, 39, 0
3, 37322, Note_on_c, 1, 40, 64
3, 37410, Note_on_c, 1, 36, 26
3, 37425, Note_on_c, 1, 36, 0
3, 37444, Note_on_c, 1, 40, 0
3, 37446, Note_on_c, 1, 41, 58
3, 37538, Note_on_c, 1, 36, 43
3, 37551, Note_on_c, 1, 41, 0
3, 37552, Note_on_c, 1, 36, 0
3, 37562, Note_on_c, 1, 46, 63
3, 37672, Note_on_c, 1, 46, 0
3, 37684, Note_on_c, 1, 45, 58
3, 37772, Note_on_c, 1, 36, 52
3, 37788, Note_on_c, 1, 45, 0
3, 37794, Note_on_c, 1, 36, 0
3, 37810, Note_on_c, 1, 50, 77
3, 37912, Note_on_c, 1, 50, 0
3, 37928, Note_on_c, 1, 48, 71
3, 38026, Note_on_c, 1, 48, 0
3, 38047, Note_on_c, 1, 45, 70
3, 38166, Note_on_c, 1, 41, 62
3, 38208, Note_on_c, 1, 45, 0
3, 38223, Note_on_c, 1, 41, 0
3, 38255, Note_on_c, 1, 40, 45
3, 38292, Note_on_c, 1, 39, 76
3, 38300, Note_on_c, 1, 40, 0
3, 38375, Note_on_c, 1, 40, 80
3, 38380, Note_on_c, 1, 39, 0
3, 38491, Note_on_c, 1, 38, 29
3, 38503, Note_on_c, 1, 38, 0
3, 38526, Note_on_c, 1, 52, 80
3, 38587, Note_on_c, 1, 40, 0
3, 38604, Note_on_c, 1, 35, 65
3, 38612, Note_on_c, 1, 52, 0
3, 38721, Note_on_c, 1, 35, 0
3, 38724, Note_on_c, 1, 40, 82
3, 38894, Note_on_c, 1, 52, 79
3, 38956, Note_on_c, 1, 52, 0
3, 39011, Note_on_c, 1, 53, 75
3, 39102, Note_on_c, 1, 53, 0
3, 39131, Note_on_c, 1, 52, 69
3, 39134, Note_on_c, 1, 40, 0
3, 39208, Note_on_c, 1, 38, 60
3, 39213, Note_on_c, 1, 52, 0
3, 39232, Note_on_c, 1, 38, 0
3, 39248, Note_on_c, 1, 39, 59
3, 39316, Note_on_c, 1, 39, 0
3, 39325, Note_on_c, 1, 40, 74
3, 39447, Note_on_c, 1, 52, 93
3, 39565, Note_on_c, 1, 37, 18
3, 39578, Note_on_c, 1, 52, 0
3, 39592, Note_on_c, 1, 37, 0
3, 39603, Note_on_c, 1, 47, 77
3, 39627, Note_on_c, 1, 40, 0
3, 39677, Note_on_c, 1, 40, 34
3, 39692, Note_on_c, 1, 40, 0
3, 39700, Note_on_c, 1, 47, 0
3, 39719, Note_on_c, 1, 44, 67
3, 39794, Note_on_c, 1, 38, 32
3, 39809, Note_on_c, 1, 38, 0
3, 39829, Note_on_c, 1, 44, 0
3, 39835, Note_on_c, 1, 41, 63
3, 39918, Note_on_c, 1, 38, 26
3, 39929, Note_on_c, 1, 38, 0
3, 39942, Note_on_c, 1, 41, 0
3, 39958, Note_on_c, 1, 40, 63
3, 40066, Note_on_c, 1, 40, 0
3, 40071, Note_on_c, 1, 35, 60
3, 40156, Note_on_c, 1, 34, 40
3, 40159, Note_on_c, 1, 35, 0
3, 40186, Note_on_c, 1, 34, 0
3, 40194, Note_on_c, 1, 37, 59
3, 40284, Note_on_c, 1, 34, 21
3, 40306, Note_on_c, 1, 37, 0
3, 40312, Note_on_c, 1, 34, 0
3, 40316, Note_on_c, 1, 38, 64
3, 40404, Note_on_c, 1, 37, 33
3, 40438, Note_on_c, 1, 51, 73
3, 40443, Note_on_c, 1, 37, 0
3, 40542, Note_on_c, 1, 51, 0
3, 40561, Note_on_c, 1, 50, 73
3, 40614, Note_on_c, 1, 38, 0
3, 40637, Note_on_c, 1, 38, 45
3, 40664, Note_on_c, 1, 38, 0
3, 40674, Note_on_c, 1, 50, 0
3, 40684, Note_on_c, 1, 45, 63
3, 40760, Note_on_c, 1, 38, 80
3, 40894, Note_on_c, 1, 45, 0
3, 40899, Note_on_c, 1, 38, 0
3, 40912, Note_on_c, 1, 37, 61
3, 40999, Note_on_c, 1, 38, 82
3, 41008, Note_on_c, 1, 37, 0
3, 41115, Note_on_c, 1, 37, 41
3, 41141, Note_on_c, 1, 38, 0
3, 41155, Note_on_c, 1, 37, 0
3, 41156, Note_on_c, 1, 54, 72
3, 41164, Note_on_c, 1, 38, 27
3, 41185, Note_on_c, 1, 38, 0
3, 41239, Note_on_c, 1, 38, 77
3, 41362, Note_on_c, 1, 37, 26
3, 41379, Note_on_c, 1, 54, 0
3, 41382, Note_on_c, 1, 37, 0
3, 41400, Note_on_c, 1, 50, 61
3, 41454, Note_on_c, 1, 38, 0
3, 41464, Note_on_c, 1, 50, 0
3, 41471, Note_on_c, 1, 37, 77
3, 41605, Note_on_c, 1, 34, 27
3, 41629, Note_on_c, 1, 37, 0
3, 41636, Note_on_c, 1, 34, 0
3, 41643, Note_on_c, 1, 38, 80
3, 41844, Note_on_c, 1, 38, 0
3, 41847, Note_on_c, 1, 37, 49
3, 41875, Note_on_c, 1, 37, 0
3, 41890, Note_on_c, 1, 38, 80
3, 42088, Note_on_c, 1, 38, 0
3, 42128, Note_on_c, 1, 34, 68
3, 42209, Note_on_c, 1, 44, 67
3, 42229, Note_on_c, 1, 34, 0
3, 42245, Note_on_c, 1, 44, 0
3, 42249, Note_on_c, 1, 43, 58
3, 42344, Note_on_c, 1, 43, 0
3, 42344, Note_on_c, 1, 38, 84
3, 42494, Note_on_c, 1, 38, 0
3, 42500, Note_on_c, 1, 34, 59
3, 42615, Note_on_c, 1, 34, 0
3, 42616, Note_on_c, 1, 38, 58
3, 42713, Note_on_c, 1, 38, 0
3, 42729, Note_on_c, 1, 39, 59
3, 42820, Note_on_c, 1, 37, 28
3, 42849, Note_on_c, 1, 51, 68
3, 42858, Note_on_c, 1, 39, 0
3, 42911, Note_on_c, 1, 37, 0
3, 42963, Note_on_c, 1, 51, 0
3, 42963, Note_on_c, 1, 39, 48
3, 43052, Note_on_c, 1, 39, 0
3, 43098, Note_on_c, 1, 38, 56
3, 43119, Note_on_c, 1, 38, 0
3, 43195, Note_on_c, 1, 36, 70
3, 43339, Note_on_c, 1, 48, 86
3, 43355, Note_on_c, 1, 36, 0
3, 43438, Note_on_c, 1, 48, 0
3, 43457, Note_on_c, 1, 49, 71
3, 43533, Note_on_c, 1, 37, 34
3, 43548, Note_on_c, 1, 49, 0
3, 43553, Note_on_c, 1, 37, 0
3, 43567, Note_on_c, 1, 52, 69
3, 43646, Note_on_c, 1, 52, 0
3, 43652, Note_on_c, 1, 49, 39
3, 43679, Note_on_c, 1, 49, 0
3, 43694, Note_on_c, 1, 50, 54
3, 43796, Note_on_c, 1, 50, 0
3, 43804, Note_on_c, 1, 45, 56
3, 43874, Note_on_c, 1, 38, 23
3, 43893, Note_on_c, 1, 38, 0
3, 43901, Note_on_c, 1, 45, 0
3, 43921, Note_on_c, 1, 44, 55
3, 44007, Note_on_c, 1, 38, 38
3, 44014, Note_on_c, 1, 44, 0
3, 44018, Note_on_c, 1, 38, 0
3, 44036, Note_on_c, 1, 42, 52
3, 44118, Note_on_c, 1, 43, 61
3, 44124, Note_on_c, 1, 42, 0
3, 44245, Note_on_c, 1, 38, 46
3, 44252, Note_on_c, 1, 43, 0
3, 44267, Note_on_c, 1, 38, 0
3, 44280, Note_on_c, 1, 34, 64
3, 44393, Note_on_c, 1, 34, 0
3, 44399, Note_on_c, 1, 38, 57
3, 44501, Note_on_c, 1, 38, 0
3, 44511, Note_on_c, 1, 37, 55
3, 44598, Note_on_c, 1, 34, 26
3, 44620, Note_on_c, 1, 37, 0
3, 44632, Note_on_c, 1, 34, 0
3, 44637, Note_on_c, 1, 36, 59
3, 44737, Note_on_c, 1, 34, 15
3, 44749, Note_on_c, 1, 50, 86
3, 44767, Note_on_c, 1, 36, 0
3, 44769, Note_on_c, 1, 34, 0
3, 44863, Note_on_c, 1, 50, 0
3, 44871, Note_on_c, 1, 48, 64
3, 44972, Note_on_c, 1, 48, 0
3, 44995, Note_on_c, 1, 46, 68
3, 45097, Note_on_c, 1, 46, 0
3, 45117, Note_on_c, 1, 45, 64
3, 45193, Note_on_c, 1, 40, 27
3, 45207, Note_on_c, 1, 40, 0
3, 45225, Note_on_c, 1, 45, 0
3, 45237, Note_on_c, 1, 43, 54
3, 45341, Note_on_c, 1, 43, 0
3, 45358, Note_on_c, 1, 41, 56
3, 45453, Note_on_c, 1, 41, 0
3, 45473, Note_on_c, 1, 36, 85
3, 45595, Note_on_c, 1, 36, 0
3, 45598, Note_on_c, 1, 41, 93
3, 45715, Note_on_c, 1, 34, 77
3, 45718, Note_on_c, 1, 41, 0
3, 45835, Note_on_c, 1, 41, 79
3, 45836, Note_on_c, 1, 34, 0
3, 45914, Note_on_c, 1, 31, 48
3, 45916, Note_on_c, 1, 41, 0
3, 45944, Note_on_c, 1, 31, 0
3, 45956, Note_on_c, 1, 32, 69
3, 46027, Note_on_c, 1, 32, 0
3, 46037, Note_on_c, 1, 33, 79
3, 46197, Note_on_c, 1, 49, 69
3, 46262, Note_on_c, 1, 49, 0
3, 46281, Note_on_c, 1, 49, 67
3, 46387, Note_on_c, 1, 33, 0
3, 46389, Note_on_c, 1, 31, 59
3, 46401, Note_on_c, 1, 49, 0
3, 46419, Note_on_c, 1, 31, 0
3, 46449, Note_on_c, 1, 33, 72
3, 46454, Note_on_c, 1, 34, 27
3, 46464, Note_on_c, 1, 34, 0
3, 46485, Note_on_c, 1, 33, 0
3, 46522, Note_on_c, 1, 33, 75
3, 46710, Note_on_c, 1, 33, 0
3, 46754, Note_on_c, 1, 49, 67
3, 46756, Note_on_c, 1, 33, 69
3, 46859, Note_on_c, 1, 33, 0
3, 46867, Note_on_c, 1, 49, 0
3, 46881, Note_on_c, 1, 50, 79
3, 46883, Note_on_c, 1, 34, 82
3, 46883, Note_on_c, 1, 49, 51
3, 46892, Note_on_c, 1, 49, 0
3, 47104, Note_on_c, 1, 50, 0
3, 47106, Note_on_c, 1, 32, 26
3, 47116, Note_on_c, 1, 32, 0
3, 47116, Note_on_c, 1, 49, 73
3, 47123, Note_on_c, 1, 33, 62
3, 47129, Note_on_c, 1, 34, 0
3, 47247, Note_on_c, 1, 49, 0
3, 47252, Note_on_c, 1, 33, 0
3, 47278, Note_on_c, 1, 33, 68
3, 47389, Note_on_c, 1, 33, 0
3, 47396, Note_on_c, 1, 32, 60
3, 47467, Note_on_c, 1, 32, 0
3, 47474, Note_on_c, 1, 33, 85
3, 47630, Note_on_c, 1, 33, 0
3, 47638, Note_on_c, 1, 31, 75
3, 47750, Note_on_c, 1, 31, 0
3, 47763, Note_on_c, 1, 32, 69
3, 47826, Note_on_c, 1, 32, 0
3, 47844, Note_on_c, 1, 32, 57
3, 47875, Note_on_c, 1, 32, 0
3, 47886, Note_on_c, 1, 34, 70
3, 47960, Note_on_c, 1, 32, 50
3, 47964, Note_on_c, 1, 34, 0
3, 48000, Note_on_c, 1, 32, 0
3, 48002, Note_on_c, 1, 33, 66
3, 48090, Note_on_c, 1, 32, 46
3, 48120, Note_on_c, 1, 33, 0
3, 48124, Note_on_c, 1, 48, 98
3, 48130, Note_on_c, 1, 32, 0
3, 48204, Note_on_c, 1, 33, 16
3, 48222, Note_on_c, 1, 33, 0
3, 48234, Note_on_c, 1, 48, 0
3, 48239, Note_on_c, 1, 46, 63
3, 48320, Note_on_c, 1, 33, 41
3, 48344, Note_on_c, 1, 33, 0
3, 48358, Note_on_c, 1, 45, 63
3, 48368, Note_on_c, 1, 46, 0
3, 48444, Note_on_c, 1, 33, 28
3, 48459, Note_on_c, 1, 33, 0
3, 48465, Note_on_c, 1, 45, 0
3, 48476, Note_on_c, 1, 43, 58
3, 48556, Note_on_c, 1, 31, 64
3, 48560, Note_on_c, 1, 43, 0
3, 48588, Note_on_c, 1, 31, 0
3, 48604, Note_on_c, 1, 32, 62
3, 48671, Note_on_c, 1, 32, 0
3, 48678, Note_on_c, 1, 33, 77
3, 48792, Note_on_c, 1, 32, 44
3, 48812, Note_on_c, 1, 33, 0
3, 48814, Note_on_c, 1, 32, 0
3, 48836, Note_on_c, 1, 45, 82
3, 48901, Note_on_c, 1, 45, 0
3, 48918, Note_on_c, 1, 45, 74
3, 49037, Note_on_c, 1, 45, 0
3, 49082, Note_on_c, 1, 33, 66
3, 49164, Note_on_c, 1, 33, 0
3, 49169, Note_on_c, 1, 33, 32
3, 49277, Note_on_c, 1, 45, 79
3, 49287, Note_on_c, 1, 33, 0
3, 49311, Note_on_c, 1, 40, 45
3, 49323, Note_on_c, 1, 45, 0
3, 49432, Note_on_c, 1, 40, 0
3, 49443, Note_on_c, 1, 33, 67
3, 49513, Note_on_c, 1, 33, 0
3, 49526, Note_on_c, 1, 33, 77
3, 49638, Note_on_c, 1, 33, 0
3, 49644, Note_on_c, 1, 40, 71
3, 49767, Note_on_c, 1, 39, 55
3, 49769, Note_on_c, 1, 40, 0
3, 49793, Note_on_c, 1, 39, 0
3, 49809, Note_on_c, 1, 40, 58
3, 49912, Note_on_c, 1, 40, 0
3, 49925, Note_on_c, 1, 41, 63
3, 50040, Note_on_c, 1, 36, 62
3, 50041, Note_on_c, 1, 41, 0
3, 50158, Note_on_c, 1, 36, 0
3, 50163, Note_on_c, 1, 41, 57
3, 50253, Note_on_c, 1, 36, 43
3, 50278, Note_on_c, 1, 36, 0
3, 50283, Note_on_c, 1, 48, 69
3, 50332, Note_on_c, 1, 41, 0
3, 50367, Note_on_c, 1, 36, 35
3, 50393, Note_on_c, 1, 48, 0
3, 50395, Note_on_c, 1, 36, 0
3, 50406, Note_on_c, 1, 47, 58
3, 50489, Note_on_c, 1, 38, 28
3, 50497, Note_on_c, 1, 36, 34
3, 50500, Note_on_c, 1, 38, 0
3, 50500, Note_on_c, 1, 47, 0
3, 50509, Note_on_c, 1, 36, 0
3, 50524, Note_on_c, 1, 42, 64
3, 50611, Note_on_c, 1, 35, 39
3, 50621, Note_on_c, 1, 42, 0
3, 50627, Note_on_c, 1, 35, 0
3, 50644, Note_on_c, 1, 39, 50
3, 50760, Note_on_c, 1, 35, 61
3, 50768, Note_on_c, 1, 39, 0
3, 50865, Note_on_c, 1, 35, 0
3, 50879, Note_on_c, 1, 34, 54
3, 50967, Note_on_c, 1, 40, 21
3, 50979, Note_on_c, 1, 40, 0
3, 51003, Note_on_c, 1, 48, 70
3, 51008, Note_on_c, 1, 34, 0
3, 51125, Note_on_c, 1, 46, 47
3, 51204, Note_on_c, 1, 34, 48
3, 51205, Note_on_c, 1, 48, 0
3, 51225, Note_on_c, 1, 46, 0
3, 51236, Note_on_c, 1, 34, 0
3, 51249, Note_on_c, 1, 44, 45
3, 51330, Note_on_c, 1, 44, 0
3, 51333, Note_on_c, 1, 43, 58
3, 51458, Note_on_c, 1, 39, 54
3, 51460, Note_on_c, 1, 43, 0
3, 51577, Note_on_c, 1, 37, 34
3, 51614, Note_on_c, 1, 51, 61
3, 51616, Note_on_c, 1, 39, 0
3, 51623, Note_on_c, 1, 37, 0
3, 51690, Note_on_c, 1, 39, 39
3, 51705, Note_on_c, 1, 51, 0
3, 51721, Note_on_c, 1, 39, 0
3, 51754, Note_on_c, 1, 44, 2
3, 51811, Note_on_c, 1, 44, 0
3, 51812, Note_on_c, 1, 39, 38
3, 51815, Note_on_c, 1, 37, 28
3, 51825, Note_on_c, 1, 39, 0
3, 51834, Note_on_c, 1, 37, 0
3, 51853, Note_on_c, 1, 43, 61
3, 51935, Note_on_c, 1, 43, 0
3, 51935, Note_on_c, 1, 38, 69
3, 52081, Note_on_c, 1, 38, 0
3, 52088, Note_on_c, 1, 34, 51
3, 52184, Note_on_c, 1, 34, 0
3, 52198, Note_on_c, 1, 35, 52
3, 52278, Note_on_c, 1, 34, 22
3, 52304, Note_on_c, 1, 35, 0
3, 52305, Note_on_c, 1, 34, 0
3, 52315, Note_on_c, 1, 36, 56
3, 52406, Note_on_c, 1, 34, 30
3, 52439, Note_on_c, 1, 36, 0
3, 52441, Note_on_c, 1, 50, 70
3, 52465, Note_on_c, 1, 34, 0
3, 52510, Note_on_c, 1, 34, 25
3, 52544, Note_on_c, 1, 50, 0
3, 52558, Note_on_c, 1, 48, 54
3, 52559, Note_on_c, 1, 34, 0
3, 52654, Note_on_c, 1, 48, 0
3, 52667, Note_on_c, 1, 40, 12
3, 52678, Note_on_c, 1, 40, 0
3, 52679, Note_on_c, 1, 46, 60
3, 52768, Note_on_c, 1, 40, 14
3, 52783, Note_on_c, 1, 40, 0
3, 52790, Note_on_c, 1, 46, 0
3, 52804, Note_on_c, 1, 45, 56
3, 52809, Note_on_c, 1, 46, 9
3, 52828, Note_on_c, 1, 46, 0
3, 52883, Note_on_c, 1, 40, 43
3, 52896, Note_on_c, 1, 40, 0
3, 52913, Note_on_c, 1, 45, 0
3, 52926, Note_on_c, 1, 43, 54
3, 53030, Note_on_c, 1, 43, 0
3, 53044, Note_on_c, 1, 41, 54
3, 53159, Note_on_c, 1, 41, 0
3, 53164, Note_on_c, 1, 36, 54
3, 53270, Note_on_c, 1, 36, 0
3, 53280, Note_on_c, 1, 33, 56
3, 53397, Note_on_c, 1, 33, 0
3, 53404, Note_on_c, 1, 36, 68
3, 53514, Note_on_c, 1, 36, 0
3, 53527, Note_on_c, 1, 34, 59
3, 53631, Note_on_c, 1, 34, 0
3, 53643, Note_on_c, 1, 32, 59
3, 53739, Note_on_c, 1, 32, 0
3, 53758, Note_on_c, 1, 33, 72
3, 53857, Note_on_c, 1, 33, 0
3, 53885, Note_on_c, 1, 33, 82
3, 54187, Note_on_c, 1, 33, 0
3, 54196, Note_on_c, 1, 31, 77
3, 54364, Note_on_c, 1, 31, 0
3, 54370, Note_on_c, 1, 32, 84
3, 54533, Note_on_c, 1, 32, 0
3, 54560, Note_on_c, 1, 32, 82
3, 54729, Note_on_c, 1, 33, 98
3, 54744, Note_on_c, 1, 32, 0
3, 54910, Note_on_c, 1, 33, 0
3, 54927, Note_on_c, 1, 33, 82
3, 55080, Note_on_c, 1, 33, 0
3, 55097, Note_on_c, 1, 33, 78
3, 55248, Note_on_c, 1, 33, 0
3, 55274, Note_on_c, 1, 49, 73
3, 55279, Note_on_c, 1, 33, 68
3, 55424, Note_on_c, 1, 49, 0
3, 55443, Note_on_c, 1, 34, 76
3, 55445, Note_on_c, 1, 50, 77
3, 55457, Note_on_c, 1, 33, 0
3, 55557, Note_on_c, 1, 32, 64
3, 55570, Note_on_c, 1, 34, 0
3, 55583, Note_on_c, 1, 50, 0
3, 55629, Note_on_c, 1, 49, 70
3, 55631, Note_on_c, 1, 32, 0
3, 55632, Note_on_c, 1, 33, 80
3, 55860, Note_on_c, 1, 33, 0
3, 55860, Note_on_c, 1, 32, 40
3, 55900, Note_on_c, 1, 32, 0
3, 55906, Note_on_c, 1, 40, 71
3, 55962, Note_on_c, 1, 49, 0
3, 55985, Note_on_c, 1, 34, 39
3, 56019, Note_on_c, 1, 40, 0
3, 56020, Note_on_c, 1, 46, 72
3, 56035, Note_on_c, 1, 34, 0
3, 56152, Note_on_c, 1, 45, 62
3, 56168, Note_on_c, 1, 46, 0
3, 56232, Note_on_c, 1, 45, 0
3, 56239, Note_on_c, 1, 40, 44
3, 56254, Note_on_c, 1, 40, 0
3, 56278, Note_on_c, 1, 34, 64
3, 56398, Note_on_c, 1, 33, 66
3, 56414, Note_on_c, 1, 34, 0
3, 56575, Note_on_c, 1, 34, 9
3, 56588, Note_on_c, 1, 34, 0
3, 56600, Note_on_c, 1, 33, 0
3, 56602, Note_on_c, 1, 40, 80
3, 56869, Note_on_c, 1, 40, 0
3, 56874, Note_on_c, 1, 33, 75
3, 57067, Note_on_c, 1, 33, 0
3, 57073, Note_on_c, 1, 40, 81
3, 57084, Note_on_c, 1, 32, 34
3, 57093, Note_on_c, 1, 32, 0
3, 57227, Note_on_c, 1, 40, 0
3, 57236, Note_on_c, 1, 33, 75
3, 57242, Note_on_c, 1, 40, 19
3, 57255, Note_on_c, 1, 40, 0
3, 57562, Note_on_c, 1, 32, 48
3, 57579, Note_on_c, 1, 33, 0
3, 57593, Note_on_c, 1, 32, 0
3, 57611, Note_on_c, 1, 36, 40
3, 57701, Note_on_c, 1, 34, 29
3, 57716, Note_on_c, 1, 36, 0
3, 57724, Note_on_c, 1, 43, 70
3, 57737, Note_on_c, 1, 34, 0
3, 57912, Note_on_c, 1, 39, 60
3, 57923, Note_on_c, 1, 43, 0
3, 57951, Note_on_c, 1, 39, 0
3, 57957, Note_on_c, 1, 40, 47
3, 58038, Note_on_c, 1, 41, 73
3, 58052, Note_on_c, 1, 40, 0
3, 58159, Note_on_c, 1, 36, 51
3, 58172, Note_on_c, 1, 41, 0
3, 58184, Note_on_c, 1, 36, 0
3, 58200, Note_on_c, 1, 35, 57
3, 58291, Note_on_c, 1, 34, 23
3, 58305, Note_on_c, 1, 34, 0
3, 58318, Note_on_c, 1, 47, 70
3, 58321, Note_on_c, 1, 35, 0
3, 58407, Note_on_c, 1, 47, 0
3, 58432, Note_on_c, 1, 41, 56
3, 58507, Note_on_c, 1, 41, 0
3, 58516, Note_on_c, 1, 35, 52
3, 58535, Note_on_c, 1, 35, 0
3, 58562, Note_on_c, 1, 34, 59
3, 58682, Note_on_c, 1, 46, 65
3, 58697, Note_on_c, 1, 34, 0
3, 58799, Note_on_c, 1, 41, 50
3, 58904, Note_on_c, 1, 41, 0
3, 58915, Note_on_c, 1, 38, 56
3, 58919, Note_on_c, 1, 46, 0
3, 58999, Note_on_c, 1, 37, 29
3, 59011, Note_on_c, 1, 38, 0
3, 59026, Note_on_c, 1, 37, 0
3, 59038, Note_on_c, 1, 39, 50
3, 59157, Note_on_c, 1, 39, 0
3, 59161, Note_on_c, 1, 34, 63
3, 59281, Note_on_c, 1, 34, 0
3, 59284, Note_on_c, 1, 39, 60
3, 59397, Note_on_c, 1, 39, 0
3, 59407, Note_on_c, 1, 32, 37
3, 59482, Note_on_c, 1, 30, 65
3, 59497, Note_on_c, 1, 32, 0
3, 59534, Note_on_c, 1, 30, 0
3, 59536, Note_on_c, 1, 31, 61
3, 59644, Note_on_c, 1, 43, 70
3, 59673, Note_on_c, 1, 31, 0
3, 59765, Note_on_c, 1, 38, 61
3, 59766, Note_on_c, 1, 43, 0
3, 59825, Note_on_c, 1, 38, 0
3, 59844, Note_on_c, 1, 34, 52
3, 59864, Note_on_c, 1, 34, 0
3, 59883, Note_on_c, 1, 35, 45
3, 59996, Note_on_c, 1, 35, 0
3, 60002, Note_on_c, 1, 36, 56
3, 60092, Note_on_c, 1, 34, 40
3, 60112, Note_on_c, 1, 36, 0
3, 60122, Note_on_c, 1, 50, 79
3, 60135, Note_on_c, 1, 34, 0
3, 60230, Note_on_c, 1, 50, 0
3, 60239, Note_on_c, 1, 48, 59
3, 60335, Note_on_c, 1, 41, 33
3, 60342, Note_on_c, 1, 48, 0
3, 60350, Note_on_c, 1, 41, 0
3, 60362, Note_on_c, 1, 46, 61
3, 60459, Note_on_c, 1, 41, 14
3, 60463, Note_on_c, 1, 46, 0
3, 60471, Note_on_c, 1, 41, 0
3, 60482, Note_on_c, 1, 45, 60
3, 60590, Note_on_c, 1, 45, 0
3, 60604, Note_on_c, 1, 43, 43
3, 60705, Note_on_c, 1, 43, 0
3, 60719, Note_on_c, 1, 41, 50
3, 60832, Note_on_c, 1, 41, 0
3, 60839, Note_on_c, 1, 36, 77
3, 60960, Note_on_c, 1, 43, 84
3, 60961, Note_on_c, 1, 36, 0
3, 61041, Note_on_c, 1, 36, 61
3, 61060, Note_on_c, 1, 36, 0
3, 61061, Note_on_c, 1, 43, 0
3, 61078, Note_on_c, 1, 42, 67
3, 61189, Note_on_c, 1, 42, 0
3, 61203, Note_on_c, 1, 41, 56
3, 61291, Note_on_c, 1, 41, 0
3, 61292, Note_on_c, 1, 36, 75
3, 61406, Note_on_c, 1, 40, 91
3, 61408, Note_on_c, 1, 36, 0
3, 61568, Note_on_c, 1, 35, 73
3, 61577, Note_on_c, 1, 40, 0
3, 61754, Note_on_c, 1, 34, 40
3, 61793, Note_on_c, 1, 34, 0
3, 61794, Note_on_c, 1, 35, 0
3, 61801, Note_on_c, 1, 52, 85
3, 62000, Note_on_c, 1, 40, 75
3, 62019, Note_on_c, 1, 52, 0
3, 62110, Note_on_c, 1, 39, 38
3, 62161, Note_on_c, 1, 39, 0
3, 62162, Note_on_c, 1, 52, 81
3, 62176, Note_on_c, 1, 40, 0
3, 62244, Note_on_c, 1, 40, 70
3, 62348, Note_on_c, 1, 52, 0
3, 62482, Note_on_c, 1, 39, 32
3, 62521, Note_on_c, 1, 39, 0
3, 62529, Note_on_c, 1, 52, 93
3, 62543, Note_on_c, 1, 40, 0
3, 62715, Note_on_c, 1, 40, 72
3, 62816, Note_on_c, 1, 52, 0
3, 62874, Note_on_c, 1, 47, 75
3, 62878, Note_on_c, 1, 40, 0
3, 62945, Note_on_c, 1, 40, 26
3, 62947, Note_on_c, 1, 47, 0
3, 62959, Note_on_c, 1, 40, 0
3, 62990, Note_on_c, 1, 44, 58
3, 63120, Note_on_c, 1, 40, 45
3, 63164, Note_on_c, 1, 40, 0
3, 63174, Note_on_c, 1, 44, 0
3, 63207, Note_on_c, 1, 40, 60
3, 63232, Note_on_c, 1, 40, 0
3, 63250, Note_on_c, 1, 39, 50
3, 63325, Note_on_c, 1, 39, 0
3, 63331, Note_on_c, 1, 38, 65
3, 63445, Note_on_c, 1, 51, 70
3, 63480, Note_on_c, 1, 51, 0
3, 63496, Note_on_c, 1, 50, 64
3, 63678, Note_on_c, 1, 50, 0
3, 63686, Note_on_c, 1, 45, 62
3, 63800, Note_on_c, 1, 37, 44
3, 63814, Note_on_c, 1, 45, 0
3, 63817, Note_on_c, 1, 37, 0
3, 63817, Note_on_c, 1, 38, 0
3, 63841, Note_on_c, 1, 39, 62
3, 63921, Note_on_c, 1, 34, 15
3, 63929, Note_on_c, 1, 39, 0
3, 63933, Note_on_c, 1, 34, 0
3, 63961, Note_on_c, 1, 38, 66
3, 64063, Note_on_c, 1, 38, 0
3, 64084, Note_on_c, 1, 37, 74
3, 64192, Note_on_c, 1, 37, 0
3, 64207, Note_on_c, 1, 37, 70
3, 64318, Note_on_c, 1, 37, 0
3, 64326, Note_on_c, 1, 38, 70
3, 64412, Note_on_c, 1, 51, 75
3, 64525, Note_on_c, 1, 37, 37
3, 64543, Note_on_c, 1, 38, 0
3, 64551, Note_on_c, 1, 51, 0
3, 64560, Note_on_c, 1, 37, 0
3, 64569, Note_on_c, 1, 50, 56
3, 64653, Note_on_c, 1, 45, 56
3, 64657, Note_on_c, 1, 50, 0
3, 64741, Note_on_c, 1, 45, 0
3, 64769, Note_on_c, 1, 38, 73
3, 64899, Note_on_c, 1, 38, 0
3, 64901, Note_on_c, 1, 36, 50
3, 64916, Note_on_c, 1, 36, 0
3, 64940, Note_on_c, 1, 37, 74
3, 65052, Note_on_c, 1, 37, 0
3, 65056, Note_on_c, 1, 38, 71
3, 65139, Note_on_c, 1, 37, 52
3, 65147, Note_on_c, 1, 38, 0
3, 65164, Note_on_c, 1, 37, 0
3, 65172, Note_on_c, 1, 44, 63
3, 65269, Note_on_c, 1, 44, 0
3, 65288, Note_on_c, 1, 43, 61
3, 65386, Note_on_c, 1, 43, 0
3, 65404, Note_on_c, 1, 38, 54
3, 65521, Note_on_c, 1, 38, 0
3, 65522, Note_on_c, 1, 34, 52
3, 65635, Note_on_c, 1, 34, 0
3, 65647, Note_on_c, 1, 38, 51
3, 65747, Note_on_c, 1, 38, 0
3, 65755, Note_on_c, 1, 39, 57
3, 65848, Note_on_c, 1, 37, 33
3, 65880, Note_on_c, 1, 51, 81
3, 65886, Note_on_c, 1, 39, 0
3, 65889, Note_on_c, 1, 37, 0
3, 65963, Note_on_c, 1, 39, 15
3, 65994, Note_on_c, 1, 51, 0
3, 66001, Note_on_c, 1, 39, 0
3, 66007, Note_on_c, 1, 49, 52
3, 66086, Note_on_c, 1, 39, 38
3, 66098, Note_on_c, 1, 49, 0
3, 66123, Note_on_c, 1, 39, 0
3, 66127, Note_on_c, 1, 46, 41
3, 66204, Note_on_c, 1, 39, 36
3, 66218, Note_on_c, 1, 46, 0
3, 66231, Note_on_c, 1, 39, 0
3, 66245, Note_on_c, 1, 48, 71
3, 66323, Note_on_c, 1, 39, 23
3, 66346, Note_on_c, 1, 48, 0
3, 66353, Note_on_c, 1, 39, 0
3, 66364, Note_on_c, 1, 48, 74
3, 66450, Note_on_c, 1, 39, 27
3, 66464, Note_on_c, 1, 48, 0
3, 66478, Note_on_c, 1, 39, 0
3, 66481, Note_on_c, 1, 49, 67
3, 66567, Note_on_c, 1, 39, 21
3, 66572, Note_on_c, 1, 49, 0
3, 66576, Note_on_c, 1, 39, 0
3, 66601, Note_on_c, 1, 49, 69
3, 66701, Note_on_c, 1, 49, 0
3, 66715, Note_on_c, 1, 50, 60
3, 66785, Note_on_c, 1, 50, 0
3, 66804, Note_on_c, 1, 45, 29
3, 66809, Note_on_c, 1, 47, 18
3, 66816, Note_on_c, 1, 45, 0
3, 66819, Note_on_c, 1, 47, 0
3, 66852, Note_on_c, 1, 44, 44
3, 66959, Note_on_c, 1, 41, 47
3, 66961, Note_on_c, 1, 44, 0
3, 67071, Note_on_c, 1, 41, 0
3, 67077, Note_on_c, 1, 32, 48
3, 67190, Note_on_c, 1, 32, 0
3, 67199, Note_on_c, 1, 31, 49
3, 67283, Note_on_c, 1, 32, 54
3, 67305, Note_on_c, 1, 32, 0
3, 67316, Note_on_c, 1, 31, 0
3, 67320, Note_on_c, 1, 45, 80
3, 67428, Note_on_c, 1, 45, 0
3, 67439, Note_on_c, 1, 43, 48
3, 67555, Note_on_c, 1, 35, 65
3, 67556, Note_on_c, 1, 43, 0
3, 67672, Note_on_c, 1, 35, 0
3, 67679, Note_on_c, 1, 36, 58
3, 67771, Note_on_c, 1, 34, 35
3, 67793, Note_on_c, 1, 36, 0
3, 67797, Note_on_c, 1, 50, 93
3, 67816, Note_on_c, 1, 34, 0
3, 67913, Note_on_c, 1, 50, 0
3, 67916, Note_on_c, 1, 48, 70
3, 68009, Note_on_c, 1, 39, 73
3, 68014, Note_on_c, 1, 48, 0
3, 68038, Note_on_c, 1, 39, 0
3, 68044, Note_on_c, 1, 40, 67
3, 68122, Note_on_c, 1, 40, 0
3, 68124, Note_on_c, 1, 41, 85
3, 69052, Note_on_c, 1, 41, 0
3, 69052, End_track
4, 0, Start_track
4, 0, Title_t, ""
4, 0, Program_c, 9, 0
4, 0, Note_on_c, 9, 59, 58
4, 0, Note_on_c, 9, 59, 0
4, 0, Note_on_c, 9, 35, 40
4, 0, Note_on_c, 9, 35, 0
4, 10, Note_on_c, 9, 35, 38
4, 12, Note_on_c, 9, 59, 56
4, 25, Note_on_c, 9, 35, 0
4, 110, Note_on_c, 9, 59, 0
4, 196, Note_on_c, 9, 35, 40
4, 206, Note_on_c, 9, 35, 0
4, 210, Note_on_c, 9, 59, 81
4, 225, Note_on_c, 9, 59, 0
4, 377, Note_on_c, 9, 59, 96
4, 400, Note_on_c, 9, 59, 0
4, 503, Note_on_c, 9, 40, 10
4, 526, Note_on_c, 9, 40, 0
4, 543, Note_on_c, 9, 40, 56
4, 552, Note_on_c, 9, 40, 0
4, 575, Note_on_c, 9, 59, 66
4, 586, Note_on_c, 9, 59, 0
4, 617, Note_on_c, 9, 59, 60
4, 618, Note_on_c, 9, 40, 60
4, 636, Note_on_c, 9, 40, 0
4, 644, Note_on_c, 9, 59, 0
4, 684, Note_on_c, 9, 59, 80
4, 689, Note_on_c, 9, 35, 47
4, 705, Note_on_c, 9, 59, 0
4, 708, Note_on_c, 9, 35, 0
4, 736, Note_on_c, 9, 35, 47
4, 774, Note_on_c, 9, 35, 0
4, 798, Note_on_c, 9, 59, 82
4, 802, Note_on_c, 9, 35, 46
4, 823, Note_on_c, 9, 59, 0
4, 825, Note_on_c, 9, 35, 0
4, 925, Note_on_c, 9, 59, 60
4, 937, Note_on_c, 9, 59, 0
4, 965, Note_on_c, 9, 59, 70
4, 1023, Note_on_c, 9, 59, 0
4, 1041, Note_on_c, 9, 38, 55
4, 1051, Note_on_c, 9, 38, 0
4, 1086, Note_on_c, 9, 59, 99
4, 1090, Note_on_c, 9, 35, 31
4, 1110, Note_on_c, 9, 35, 0
4, 1131, Note_on_c, 9, 59, 0
4, 1161, Note_on_c, 9, 35, 41
4, 1174, Note_on_c, 9, 35, 0
4, 1212, Note_on_c, 9, 59, 90
4, 1254, Note_on_c, 9, 59, 0
4, 1290, Note_on_c, 9, 59, 55
4, 1305, Note_on_c, 9, 59, 0
4, 1334, Note_on_c, 9, 59, 54
4, 1346, Note_on_c, 9, 59, 0
4, 1402, Note_on_c, 9, 59, 89
4, 1479, Note_on_c, 9, 59, 0
4, 1523, Note_on_c, 9, 35, 30
4, 1535, Note_on_c, 9, 35, 0
4, 1565, Note_on_c, 9, 40, 49
4, 1583, Note_on_c, 9, 40, 0
4, 1602, Note_on_c, 9, 40, 54
4, 1612, Note_on_c, 9, 40, 0
4, 1643, Note_on_c, 9, 59, 35
4, 1658, Note_on_c, 9, 59, 0
4, 1682, Note_on_c, 9, 59, 75
4, 1742, Note_on_c, 9, 59, 0
4, 1758, Note_on_c, 9, 35, 33
4, 1770, Note_on_c, 9, 35, 0
4, 1798, Note_on_c, 9, 40, 46
4, 1805, Note_on_c, 9, 59, 103
4, 1808, Note_on_c, 9, 40, 0
4, 1828, Note_on_c, 9, 40, 32
4, 1838, Note_on_c, 9, 40, 0
4, 1845, Note_on_c, 9, 59, 0
4, 1870, Note_on_c, 9, 35, 64
4, 1886, Note_on_c, 9, 35, 0
4, 1914, Note_on_c, 9, 35, 55
4, 1924, Note_on_c, 9, 59, 108
4, 1938, Note_on_c, 9, 35, 0
4, 1977, Note_on_c, 9, 59, 0
4, 2042, Note_on_c, 9, 59, 96
4, 2084, Note_on_c, 9, 59, 0
4, 2121, Note_on_c, 9, 35, 39
4, 2131, Note_on_c, 9, 35, 0
4, 2161, Note_on_c, 9, 59, 84
4, 2162, Note_on_c, 9, 35, 48
4, 2176, Note_on_c, 9, 59, 0
4, 2180, Note_on_c, 9, 35, 0
4, 2223, Note_on_c, 9, 59, 89
4, 2236, Note_on_c, 9, 40, 50
4, 2246, Note_on_c, 9, 40, 0
4, 2250, Note_on_c, 9, 59, 0
4, 2281, Note_on_c, 9, 35, 43
4, 2309, Note_on_c, 9, 35, 0
4, 2344, Note_on_c, 9, 59, 105
4, 2358, Note_on_c, 9, 35, 51
4, 2372, Note_on_c, 9, 59, 0
4, 2379, Note_on_c, 9, 35, 0
4, 2464, Note_on_c, 9, 59, 101
4, 2491, Note_on_c, 9, 59, 0
4, 2596, Note_on_c, 9, 59, 66
4, 2596, Note_on_c, 9, 40, 55
4, 2612, Note_on_c, 9, 40, 0
4, 2613, Note_on_c, 9, 59, 0
4, 2639, Note_on_c, 9, 35, 37
4, 2641, Note_on_c, 9, 59, 80
4, 2675, Note_on_c, 9, 35, 0
4, 2711, Note_on_c, 9, 59, 0
4, 2718, Note_on_c, 9, 35, 37
4, 2730, Note_on_c, 9, 35, 0
4, 2761, Note_on_c, 9, 59, 81
4, 2788, Note_on_c, 9, 59, 0
4, 2848, Note_on_c, 9, 59, 58
4, 2860, Note_on_c, 9, 59, 0
4, 2885, Note_on_c, 9, 59, 74
4, 2936, Note_on_c, 9, 59, 0
4, 2961, Note_on_c, 9, 38, 50
4, 2971, Note_on_c, 9, 38, 0
4, 3006, Note_on_c, 9, 59, 91
4, 3077, Note_on_c, 9, 38, 49
4, 3090, Note_on_c, 9, 38, 0
4, 3155, Note_on_c, 9, 59, 0
4, 3199, Note_on_c, 9, 35, 46
4, 3205, Note_on_c, 9, 59, 44
4, 3210, Note_on_c, 9, 35, 0
4, 3218, Note_on_c, 9, 59, 0
4, 3242, Note_on_c, 9, 35, 35
4, 3246, Note_on_c, 9, 59, 69
4, 3255, Note_on_c, 9, 35, 0
4, 3284, Note_on_c, 9, 59, 0
4, 3319, Note_on_c, 9, 40, 46
4, 3322, Note_on_c, 9, 59, 87
4, 3330, Note_on_c, 9, 40, 0
4, 3380, Note_on_c, 9, 59, 0
4, 3436, Note_on_c, 9, 59, 81
4, 3436, Note_on_c, 9, 35, 38
4, 3446, Note_on_c, 9, 35, 0
4, 3501, Note_on_c, 9, 59, 0
4, 3557, Note_on_c, 9, 35, 52
4, 3565, Note_on_c, 9, 59, 50
4, 3570, Note_on_c, 9, 35, 0
4, 3586, Note_on_c, 9, 59, 0
4, 3610, Note_on_c, 9, 59, 84
4, 3676, Note_on_c, 9, 59, 0
4, 3728, Note_on_c, 9, 59, 81
4, 3771, Note_on_c, 9, 59, 0
4, 3801, Note_on_c, 9, 51, 74
4, 3824, Note_on_c, 9, 51, 0
4, 3840, Note_on_c, 9, 35, 64
4, 3845, Note_on_c, 9, 57, 34
4, 3855, Note_on_c, 9, 51, 74
4, 3868, Note_on_c, 9, 57, 0
4, 3873, Note_on_c, 9, 35, 0
4, 3903, Note_on_c, 9, 51, 0
4, 3968, Note_on_c, 9, 51, 97
4, 4042, Note_on_c, 9, 51, 0
4, 4091, Note_on_c, 9, 51, 55
4, 4152, Note_on_c, 9, 51, 0
4, 4211, Note_on_c, 9, 51, 88
4, 4214, Note_on_c, 9, 57, 66
4, 4215, Note_on_c, 9, 35, 71
4, 4270, Note_on_c, 9, 51, 0
4, 4284, Note_on_c, 9, 57, 0
4, 4334, Note_on_c, 9, 51, 77
4, 4395, Note_on_c, 9, 51, 0
4, 4457, Note_on_c, 9, 51, 83
4, 4470, Note_on_c, 9, 35, 0
4, 4513, Note_on_c, 9, 51, 0
4, 4535, Note_on_c, 9, 35, 55
4, 4549, Note_on_c, 9, 35, 0
4, 4552, Note_on_c, 9, 51, 46
4, 4565, Note_on_c, 9, 51, 0
4, 4579, Note_on_c, 9, 35, 28
4, 4584, Note_on_c, 9, 51, 78
4, 4612, Note_on_c, 9, 35, 0
4, 4657, Note_on_c, 9, 51, 0
4, 4699, Note_on_c, 9, 51, 85
4, 4704, Note_on_c, 9, 38, 30
4, 4723, Note_on_c, 9, 38, 0
4, 4734, Note_on_c, 9, 38, 34
4, 4750, Note_on_c, 9, 38, 0
4, 4762, Note_on_c, 9, 51, 0
4, 4781, Note_on_c, 9, 35, 35
4, 4783, Note_on_c, 9, 51, 60
4, 4795, Note_on_c, 9, 35, 0
4, 4802, Note_on_c, 9, 51, 0
4, 4820, Note_on_c, 9, 51, 82
4, 4820, Note_on_c, 9, 38, 34
4, 4833, Note_on_c, 9, 38, 0
4, 4856, Note_on_c, 9, 38, 54
4, 4872, Note_on_c, 9, 38, 0
4, 4882, Note_on_c, 9, 51, 0
4, 4900, Note_on_c, 9, 35, 33
4, 4930, Note_on_c, 9, 35, 0
4, 4930, Note_on_c, 9, 51, 86
4, 4944, Note_on_c, 9, 38, 42
4, 4959, Note_on_c, 9, 38, 0
4, 4990, Note_on_c, 9, 38, 44
4, 4999, Note_on_c, 9, 38, 0
4, 5010, Note_on_c, 9, 51, 0
4, 5056, Note_on_c, 9, 51, 84
4, 5117, Note_on_c, 9, 51, 0
4, 5133, Note_on_c, 9, 35, 54
4, 5144, Note_on_c, 9, 35, 0
4, 5145, Note_on_c, 9, 51, 52
4, 5158, Note_on_c, 9, 51, 0
4, 5172, Note_on_c, 9, 35, 53
4, 5181, Note_on_c, 9, 51, 75
4, 5225, Note_on_c, 9, 35, 0
4, 5233, Note_on_c, 9, 51, 0
4, 5250, Note_on_c, 9, 35, 39
4, 5261, Note_on_c, 9, 51, 79
4, 5269, Note_on_c, 9, 35, 0
4, 5357, Note_on_c, 9, 51, 0
4, 5379, Note_on_c, 9, 51, 60
4, 5393, Note_on_c, 9, 51, 0
4, 5418, Note_on_c, 9, 51, 78
4, 5499, Note_on_c, 9, 40, 50
4, 5502, Note_on_c, 9, 51, 0
4, 5507, Note_on_c, 9, 40, 0
4, 5535, Note_on_c, 9, 51, 79
4, 5611, Note_on_c, 9, 51, 0
4, 5622, Note_on_c, 9, 35, 42
4, 5632, Note_on_c, 9, 35, 0
4, 5653, Note_on_c, 9, 51, 86
4, 5731, Note_on_c, 9, 51, 0
4, 5735, Note_on_c, 9, 35, 43
4, 5745, Note_on_c, 9, 35, 0
4, 5775, Note_on_c, 9, 51, 85
4, 5834, Note_on_c, 9, 51, 0
4, 5862, Note_on_c, 9, 51, 53
4, 5883, Note_on_c, 9, 51, 0
4, 5895, Note_on_c, 9, 40, 48
4, 5899, Note_on_c, 9, 51, 75
4, 5908, Note_on_c, 9, 40, 0
4, 5965, Note_on_c, 9, 51, 0
4, 5968, Note_on_c, 9, 40, 63
4, 5978, Note_on_c, 9, 40, 0
4, 6014, Note_on_c, 9, 51, 85
4, 6088, Note_on_c, 9, 51, 0
4, 6089, Note_on_c, 9, 35, 40
4, 6100, Note_on_c, 9, 35, 0
4, 6131, Note_on_c, 9, 51, 87
4, 6189, Note_on_c, 9, 51, 0
4, 6208, Note_on_c, 9, 35, 44
4, 6219, Note_on_c, 9, 35, 0
4, 6221, Note_on_c, 9, 51, 48
4, 6237, Note_on_c, 9, 51, 0
4, 6255, Note_on_c, 9, 51, 77
4, 6324, Note_on_c, 9, 51, 0
4, 6327, Note_on_c, 9, 35, 49
4, 6336, Note_on_c, 9, 35, 0
4, 6365, Note_on_c, 9, 40, 57
4, 6368, Note_on_c, 9, 51, 83
4, 6373, Note_on_c, 9, 40, 0
4, 6411, Note_on_c, 9, 51, 0
4, 6442, Note_on_c, 9, 40, 101
4, 6454, Note_on_c, 9, 40, 0
4, 6489, Note_on_c, 9, 51, 74
4, 6539, Note_on_c, 9, 51, 0
4, 6561, Note_on_c, 9, 35, 38
4, 6571, Note_on_c, 9, 35, 0
4, 6575, Note_on_c, 9, 51, 69
4, 6596, Note_on_c, 9, 51, 0
4, 6602, Note_on_c, 9, 35, 43
4, 6615, Note_on_c, 9, 51, 85
4, 6641, Note_on_c, 9, 35, 0
4, 6658, Note_on_c, 9, 51, 0
4, 6681, Note_on_c, 9, 51, 81
4, 6682, Note_on_c, 9, 35, 62
4, 6691, Note_on_c, 9, 35, 0
4, 6762, Note_on_c, 9, 51, 0
4, 6801, Note_on_c, 9, 51, 85
4, 6802, Note_on_c, 9, 35, 39
4, 6813, Note_on_c, 9, 35, 0
4, 6853, Note_on_c, 9, 51, 0
4, 6920, Note_on_c, 9, 35, 30
4, 6922, Note_on_c, 9, 51, 86
4, 6929, Note_on_c, 9, 35, 0
4, 6972, Note_on_c, 9, 51, 0
4, 7029, Note_on_c, 9, 35, 36
4, 7039, Note_on_c, 9, 35, 0
4, 7041, Note_on_c, 9, 51, 90
4, 7072, Note_on_c, 9, 37, 37
4, 7079, Note_on_c, 9, 37, 0
4, 7083, Note_on_c, 9, 51, 0
4, 7148, Note_on_c, 9, 51, 73
4, 7170, Note_on_c, 9, 51, 0
4, 7195, Note_on_c, 9, 51, 77
4, 7245, Note_on_c, 9, 51, 0
4, 7311, Note_on_c, 9, 51, 78
4, 7348, Note_on_c, 9, 51, 0
4, 7388, Note_on_c, 9, 51, 80
4, 7420, Note_on_c, 9, 51, 0
4, 7509, Note_on_c, 9, 51, 85
4, 7543, Note_on_c, 9, 51, 0
4, 7559, Note_on_c, 9, 59, 73
4, 7583, Note_on_c, 9, 59, 0
4, 7628, Note_on_c, 9, 57, 89
4, 7629, Note_on_c, 9, 35, 89
4, 7681, Note_on_c, 9, 59, 99
4, 7691, Note_on_c, 9, 57, 0
4, 7709, Note_on_c, 9, 59, 0
4, 7797, Note_on_c, 9, 35, 0
4, 7804, Note_on_c, 9, 59, 101
4, 7832, Note_on_c, 9, 59, 0
4, 8003, Note_on_c, 9, 59, 56
4, 8015, Note_on_c, 9, 59, 0
4, 8048, Note_on_c, 9, 59, 58
4, 8069, Note_on_c, 9, 59, 0
4, 8121, Note_on_c, 9, 35, 33
4, 8123, Note_on_c, 9, 59, 99
4, 8132, Note_on_c, 9, 35, 0
4, 8160, Note_on_c, 9, 59, 0
4, 8238, Note_on_c, 9, 59, 103
4, 8238, Note_on_c, 9, 40, 56
4, 8247, Note_on_c, 9, 40, 0
4, 8277, Note_on_c, 9, 40, 51
4, 8278, Note_on_c, 9, 59, 0
4, 8287, Note_on_c, 9, 40, 0
4, 8307, Note_on_c, 9, 40, 58
4, 8315, Note_on_c, 9, 40, 0
4, 8359, Note_on_c, 9, 59, 96
4, 8359, Note_on_c, 9, 35, 46
4, 8369, Note_on_c, 9, 35, 0
4, 8399, Note_on_c, 9, 59, 0
4, 8489, Note_on_c, 9, 59, 72
4, 8502, Note_on_c, 9, 59, 0
4, 8529, Note_on_c, 9, 59, 80
4, 8563, Note_on_c, 9, 59, 0
4, 8605, Note_on_c, 9, 35, 29
4, 8617, Note_on_c, 9, 35, 0
4, 8645, Note_on_c, 9, 40, 40
4, 8650, Note_on_c, 9, 59, 101
4, 8656, Note_on_c, 9, 40, 0
4, 8678, Note_on_c, 9, 59, 0
4, 8689, Note_on_c, 9, 40, 36
4, 8699, Note_on_c, 9, 40, 0
4, 8768, Note_on_c, 9, 59, 105
4, 8797, Note_on_c, 9, 59, 0
4, 8843, Note_on_c, 9, 35, 32
4, 8856, Note_on_c, 9, 35, 0
4, 8883, Note_on_c, 9, 40, 73
4, 8892, Note_on_c, 9, 59, 92
4, 8902, Note_on_c, 9, 40, 0
4, 8917, Note_on_c, 9, 59, 0
4, 8917, Note_on_c, 9, 37, 71
4, 8928, Note_on_c, 9, 37, 0
4, 8951, Note_on_c, 9, 59, 79
4, 8961, Note_on_c, 9, 35, 64
4, 8975, Note_on_c, 9, 35, 0
4, 8978, Note_on_c, 9, 59, 0
4, 9000, Note_on_c, 9, 59, 69
4, 9005, Note_on_c, 9, 35, 62
4, 9029, Note_on_c, 9, 59, 0
4, 9049, Note_on_c, 9, 35, 0
4, 9078, Note_on_c, 9, 59, 92
4, 9078, Note_on_c, 9, 35, 60
4, 9100, Note_on_c, 9, 35, 0
4, 9116, Note_on_c, 9, 59, 0
4, 9192, Note_on_c, 9, 59, 94
4, 9227, Note_on_c, 9, 59, 0
4, 9321, Note_on_c, 9, 59, 54
4, 9333, Note_on_c, 9, 59, 0
4, 9364, Note_on_c, 9, 59, 80
4, 9415, Note_on_c, 9, 40, 37
4, 9424, Note_on_c, 9, 40, 0
4, 9436, Note_on_c, 9, 59, 0
4, 9481, Note_on_c, 9, 59, 71
4, 9490, Note_on_c, 9, 35, 41
4, 9505, Note_on_c, 9, 59, 0
4, 9534, Note_on_c, 9, 35, 0
4, 9553, Note_on_c, 9, 59, 85
4, 9564, Note_on_c, 9, 35, 53
4, 9584, Note_on_c, 9, 35, 0
4, 9654, Note_on_c, 9, 59, 0
4, 9673, Note_on_c, 9, 53, 81
4, 9698, Note_on_c, 9, 53, 0
4, 9726, Note_on_c, 9, 59, 54
4, 9745, Note_on_c, 9, 59, 0
4, 9797, Note_on_c, 9, 59, 84
4, 9838, Note_on_c, 9, 40, 51
4, 9847, Note_on_c, 9, 40, 0
4, 9878, Note_on_c, 9, 59, 0
4, 9916, Note_on_c, 9, 59, 74
4, 9918, Note_on_c, 9, 40, 49
4, 9931, Note_on_c, 9, 40, 0
4, 9955, Note_on_c, 9, 59, 0
4, 10038, Note_on_c, 9, 59, 81
4, 10097, Note_on_c, 9, 59, 0
4, 10113, Note_on_c, 9, 40, 31
4, 10122, Note_on_c, 9, 40, 0
4, 10157, Note_on_c, 9, 59, 80
4, 10182, Note_on_c, 9, 59, 0
4, 10198, Note_on_c, 9, 40, 40
4, 10205, Note_on_c, 9, 59, 71
4, 10210, Note_on_c, 9, 40, 0
4, 10230, Note_on_c, 9, 59, 0
4, 10328, Note_on_c, 9, 59, 83
4, 10367, Note_on_c, 9, 59, 0
4, 10445, Note_on_c, 9, 59, 92
4, 10509, Note_on_c, 9, 59, 0
4, 10570, Note_on_c, 9, 40, 48
4, 10572, Note_on_c, 9, 59, 57
4, 10580, Note_on_c, 9, 40, 0
4, 10583, Note_on_c, 9, 59, 0
4, 10645, Note_on_c, 9, 40, 57
4, 10646, Note_on_c, 9, 59, 60
4, 10659, Note_on_c, 9, 59, 0
4, 10662, Note_on_c, 9, 40, 0
4, 10692, Note_on_c, 9, 59, 66
4, 10728, Note_on_c, 9, 59, 0
4, 10762, Note_on_c, 9, 53, 88
4, 10796, Note_on_c, 9, 53, 0
4, 10846, Note_on_c, 9, 40, 49
4, 10854, Note_on_c, 9, 40, 0
4, 10880, Note_on_c, 9, 59, 80
4, 10910, Note_on_c, 9, 59, 0
4, 10919, Note_on_c, 9, 35, 62
4, 10969, Note_on_c, 9, 35, 0
4, 10995, Note_on_c, 9, 35, 64
4, 11003, Note_on_c, 9, 53, 78
4, 11022, Note_on_c, 9, 35, 0
4, 11027, Note_on_c, 9, 53, 0
4, 11055, Note_on_c, 9, 59, 105
4, 11115, Note_on_c, 9, 59, 0
4, 11164, Note_on_c, 9, 59, 51
4, 11175, Note_on_c, 9, 59, 0
4, 11243, Note_on_c, 9, 53, 87
4, 11275, Note_on_c, 9, 53, 0
4, 11359, Note_on_c, 9, 40, 50
4, 11362, Note_on_c, 9, 38, 45
4, 11364, Note_on_c, 9, 53, 80
4, 11367, Note_on_c, 9, 40, 0
4, 11370, Note_on_c, 9, 38, 0
4, 11387, Note_on_c, 9, 53, 0
4, 11406, Note_on_c, 9, 35, 33
4, 11410, Note_on_c, 9, 51, 98
4, 11417, Note_on_c, 9, 35, 0
4, 11524, Note_on_c, 9, 35, 48
4, 11531, Note_on_c, 9, 57, 29
4, 11541, Note_on_c, 9, 57, 0
4, 11561, Note_on_c, 9, 35, 0
4, 11602, Note_on_c, 9, 51, 0
4, 11623, Note_on_c, 9, 51, 57
4, 11635, Note_on_c, 9, 51, 0
4, 11655, Note_on_c, 9, 51, 60
4, 11729, Note_on_c, 9, 51, 0
4, 11770, Note_on_c, 9, 51, 74
4, 11838, Note_on_c, 9, 51, 0
4, 11851, Note_on_c, 9, 35, 69
4, 11880, Note_on_c, 9, 35, 0
4, 11887, Note_on_c, 9, 51, 76
4, 11895, Note_on_c, 9, 35, 46
4, 11949, Note_on_c, 9, 51, 0
4, 11952, Note_on_c, 9, 35, 0
4, 11970, Note_on_c, 9, 35, 58
4, 11977, Note_on_c, 9, 51, 36
4, 11979, Note_on_c, 9, 35, 0
4, 11990, Note_on_c, 9, 51, 0
4, 12009, Note_on_c, 9, 51, 73
4, 12077, Note_on_c, 9, 51, 0
4, 12133, Note_on_c, 9, 51, 80
4, 12193, Note_on_c, 9, 51, 0
4, 12227, Note_on_c, 9, 51, 42
4, 12238, Note_on_c, 9, 51, 0
4, 12256, Note_on_c, 9, 51, 73
4, 12329, Note_on_c, 9, 44, 56
4, 12330, Note_on_c, 9, 51, 0
4, 12341, Note_on_c, 9, 44, 0
4, 12377, Note_on_c, 9, 51, 84
4, 12438, Note_on_c, 9, 51, 0
4, 12448, Note_on_c, 9, 44, 62
4, 12457, Note_on_c, 9, 44, 0
4, 12496, Note_on_c, 9, 51, 83
4, 12548, Note_on_c, 9, 51, 0
4, 12567, Note_on_c, 9, 44, 60
4, 12580, Note_on_c, 9, 44, 0
4, 12610, Note_on_c, 9, 51, 81
4, 12669, Note_on_c, 9, 51, 0
4, 12694, Note_on_c, 9, 44, 60
4, 12705, Note_on_c, 9, 44, 0
4, 12708, Note_on_c, 9, 51, 52
4, 12724, Note_on_c, 9, 51, 0
4, 12743, Note_on_c, 9, 51, 71
4, 12801, Note_on_c, 9, 51, 0
4, 12816, Note_on_c, 9, 44, 62
4, 12831, Note_on_c, 9, 44, 0
4, 12856, Note_on_c, 9, 51, 88
4, 12913, Note_on_c, 9, 51, 0
4, 12938, Note_on_c, 9, 44, 60
4, 12942, Note_on_c, 9, 51, 53
4, 12952, Note_on_c, 9, 44, 0
4, 12958, Note_on_c, 9, 51, 0
4, 12978, Note_on_c, 9, 51, 75
4, 13039, Note_on_c, 9, 51, 0
4, 13097, Note_on_c, 9, 51, 88
4, 13104, Note_on_c, 9, 35, 50
4, 13148, Note_on_c, 9, 35, 0
4, 13166, Note_on_c, 9, 51, 0
4, 13179, Note_on_c, 9, 35, 66
4, 13201, Note_on_c, 9, 35, 0
4, 13219, Note_on_c, 9, 51, 84
4, 13273, Note_on_c, 9, 51, 0
4, 13302, Note_on_c, 9, 51, 47
4, 13316, Note_on_c, 9, 51, 0
4, 13335, Note_on_c, 9, 51, 81
4, 13382, Note_on_c, 9, 51, 0
4, 13424, Note_on_c, 9, 35, 60
4, 13440, Note_on_c, 9, 35, 0
4, 13451, Note_on_c, 9, 51, 90
4, 13460, Note_on_c, 9, 35, 47
4, 13484, Note_on_c, 9, 35, 0
4, 13515, Note_on_c, 9, 51, 0
4, 13569, Note_on_c, 9, 51, 82
4, 13624, Note_on_c, 9, 51, 0
4, 13668, Note_on_c, 9, 51, 53
4, 13679, Note_on_c, 9, 51, 0
4, 13695, Note_on_c, 9, 51, 77
4, 13745, Note_on_c, 9, 51, 0
4, 13812, Note_on_c, 9, 51, 86
4, 13864, Note_on_c, 9, 51, 0
4, 13888, Note_on_c, 9, 35, 26
4, 13899, Note_on_c, 9, 35, 0
4, 13924, Note_on_c, 9, 51, 81
4, 13924, Note_on_c, 9, 40, 42
4, 13936, Note_on_c, 9, 40, 0
4, 13959, Note_on_c, 9, 40, 47
4, 13973, Note_on_c, 9, 51, 0
4, 13977, Note_on_c, 9, 40, 0
4, 14018, Note_on_c, 9, 51, 36
4, 14026, Note_on_c, 9, 40, 35
4, 14030, Note_on_c, 9, 51, 0
4, 14039, Note_on_c, 9, 40, 0
4, 14049, Note_on_c, 9, 51, 77
4, 14054, Note_on_c, 9, 40, 71
4, 14063, Note_on_c, 9, 40, 0
4, 14090, Note_on_c, 9, 51, 0
4, 14124, Note_on_c, 9, 35, 43
4, 14134, Note_on_c, 9, 35, 0
4, 14164, Note_on_c, 9, 35, 29
4, 14167, Note_on_c, 9, 51, 93
4, 14210, Note_on_c, 9, 35, 0
4, 14222, Note_on_c, 9, 51, 0
4, 14238, Note_on_c, 9, 35, 47
4, 14253, Note_on_c, 9, 51, 50
4, 14259, Note_on_c, 9, 35, 0
4, 14276, Note_on_c, 9, 51, 0
4, 14368, Note_on_c, 9, 51, 94
4, 14411, Note_on_c, 9, 40, 25
4, 14424, Note_on_c, 9, 40, 0
4, 14439, Note_on_c, 9, 40, 26
4, 14448, Note_on_c, 9, 51, 0
4, 14449, Note_on_c, 9, 40, 0
4, 14485, Note_on_c, 9, 51, 47
4, 14500, Note_on_c, 9, 51, 0
4, 14524, Note_on_c, 9, 51, 74
4, 14581, Note_on_c, 9, 40, 39
4, 14591, Note_on_c, 9, 40, 0
4, 14608, Note_on_c, 9, 51, 0
4, 14608, Note_on_c, 9, 40, 34
4, 14617, Note_on_c, 9, 40, 0
4, 14649, Note_on_c, 9, 51, 86
4, 14721, Note_on_c, 9, 40, 66
4, 14725, Note_on_c, 9, 51, 0
4, 14737, Note_on_c, 9, 40, 0
4, 14772, Note_on_c, 9, 51, 79
4, 14821, Note_on_c, 9, 51, 0
4, 14846, Note_on_c, 9, 35, 22
4, 14858, Note_on_c, 9, 35, 0
4, 14882, Note_on_c, 9, 40, 34
4, 14889, Note_on_c, 9, 51, 83
4, 14893, Note_on_c, 9, 40, 0
4, 14914, Note_on_c, 9, 40, 43
4, 14924, Note_on_c, 9, 40, 0
4, 14972, Note_on_c, 9, 51, 0
4, 15003, Note_on_c, 9, 40, 32
4, 15012, Note_on_c, 9, 51, 76
4, 15018, Note_on_c, 9, 40, 0
4, 15047, Note_on_c, 9, 40, 20
4, 15055, Note_on_c, 9, 40, 0
4, 15079, Note_on_c, 9, 51, 0
4, 15126, Note_on_c, 9, 51, 72
4, 15129, Note_on_c, 9, 40, 47
4, 15139, Note_on_c, 9, 40, 0
4, 15161, Note_on_c, 9, 40, 39
4, 15177, Note_on_c, 9, 40, 0
4, 15183, Note_on_c, 9, 51, 0
4, 15209, Note_on_c, 9, 35, 24
4, 15213, Note_on_c, 9, 53, 92
4, 15217, Note_on_c, 9, 35, 0
4, 15250, Note_on_c, 9, 40, 54
4, 15252, Note_on_c, 9, 53, 0
4, 15259, Note_on_c, 9, 40, 0
4, 15323, Note_on_c, 9, 59, 90
4, 15373, Note_on_c, 9, 35, 64
4, 15373, Note_on_c, 9, 57, 48
4, 15386, Note_on_c, 9, 57, 0
4, 15419, Note_on_c, 9, 35, 0
4, 15429, Note_on_c, 9, 59, 0
4, 15468, Note_on_c, 9, 59, 35
4, 15481, Note_on_c, 9, 59, 0
4, 15573, Note_on_c, 9, 59, 87
4, 15596, Note_on_c, 9, 59, 0
4, 15620, Note_on_c, 9, 59, 67
4, 15692, Note_on_c, 9, 59, 0
4, 15739, Note_on_c, 9, 59, 88
4, 15805, Note_on_c, 9, 59, 0
4, 15815, Note_on_c, 9, 40, 57
4, 15824, Note_on_c, 9, 40, 0
4, 15829, Note_on_c, 9, 59, 60
4, 15840, Note_on_c, 9, 59, 0
4, 15854, Note_on_c, 9, 40, 46
4, 15863, Note_on_c, 9, 59, 72
4, 15869, Note_on_c, 9, 40, 0
4, 15891, Note_on_c, 9, 40, 44
4, 15900, Note_on_c, 9, 40, 0
4, 15919, Note_on_c, 9, 59, 0
4, 15982, Note_on_c, 9, 59, 92
4, 16048, Note_on_c, 9, 59, 0
4, 16071, Note_on_c, 9, 59, 72
4, 16086, Note_on_c, 9, 59, 0
4, 16112, Note_on_c, 9, 59, 77
4, 16139, Note_on_c, 9, 59, 0
4, 16215, Note_on_c, 9, 59, 96
4, 16277, Note_on_c, 9, 59, 0
4, 16292, Note_on_c, 9, 35, 41
4, 16303, Note_on_c, 9, 35, 0
4, 16330, Note_on_c, 9, 59, 72
4, 16373, Note_on_c, 9, 59, 0
4, 16384, Note_on_c, 9, 37, 56
4, 16395, Note_on_c, 9, 37, 0
4, 16452, Note_on_c, 9, 59, 91
4, 16460, Note_on_c, 9, 37, 77
4, 16484, Note_on_c, 9, 37, 0
4, 16506, Note_on_c, 9, 59, 0
4, 16535, Note_on_c, 9, 37, 71
4, 16556, Note_on_c, 9, 37, 0
4, 16570, Note_on_c, 9, 59, 87
4, 16606, Note_on_c, 9, 37, 64
4, 16617, Note_on_c, 9, 59, 0
4, 16624, Note_on_c, 9, 37, 0
4, 16690, Note_on_c, 9, 59, 85
4, 16691, Note_on_c, 9, 35, 25
4, 16702, Note_on_c, 9, 35, 0
4, 16730, Note_on_c, 9, 59, 0
4, 16756, Note_on_c, 9, 35, 84
4, 16770, Note_on_c, 9, 59, 57
4, 16783, Note_on_c, 9, 59, 0
4, 16785, Note_on_c, 9, 35, 0
4, 16803, Note_on_c, 9, 35, 63
4, 16806, Note_on_c, 9, 59, 77
4, 16830, Note_on_c, 9, 35, 0
4, 16864, Note_on_c, 9, 59, 0
4, 16929, Note_on_c, 9, 59, 90
4, 16989, Note_on_c, 9, 35, 38
4, 17001, Note_on_c, 9, 35, 0
4, 17004, Note_on_c, 9, 59, 0
4, 17037, Note_on_c, 9, 59, 60
4, 17061, Note_on_c, 9, 59, 0
4, 17111, Note_on_c, 9, 36, 68
4, 17120, Note_on_c, 9, 59, 84
4, 17126, Note_on_c, 9, 36, 0
4, 17141, Note_on_c, 9, 59, 0
4, 17156, Note_on_c, 9, 40, 27
4, 17163, Note_on_c, 9, 59, 77
4, 17177, Note_on_c, 9, 40, 0
4, 17190, Note_on_c, 9, 59, 0
4, 17231, Note_on_c, 9, 40, 68
4, 17255, Note_on_c, 9, 40, 0
4, 17255, Note_on_c, 9, 59, 91
4, 17277, Note_on_c, 9, 40, 50
4, 17310, Note_on_c, 9, 59, 0
4, 17327, Note_on_c, 9, 40, 0
4, 17352, Note_on_c, 9, 40, 46
4, 17362, Note_on_c, 9, 40, 0
4, 17396, Note_on_c, 9, 59, 74
4, 17425, Note_on_c, 9, 59, 0
4, 17485, Note_on_c, 9, 59, 54
4, 17497, Note_on_c, 9, 59, 0
4, 17522, Note_on_c, 9, 59, 74
4, 17554, Note_on_c, 9, 59, 0
4, 17610, Note_on_c, 9, 59, 91
4, 17688, Note_on_c, 9, 59, 0
4, 17726, Note_on_c, 9, 59, 54
4, 17739, Note_on_c, 9, 59, 0
4, 17770, Note_on_c, 9, 59, 79
4, 17836, Note_on_c, 9, 59, 0
4, 17845, Note_on_c, 9, 40, 58
4, 17871, Note_on_c, 9, 40, 0
4, 17886, Note_on_c, 9, 38, 35
4, 17895, Note_on_c, 9, 38, 0
4, 17895, Note_on_c, 9, 59, 79
4, 17918, Note_on_c, 9, 59, 0
4, 17926, Note_on_c, 9, 35, 50
4, 17936, Note_on_c, 9, 35, 0
4, 17963, Note_on_c, 9, 35, 55
4, 17967, Note_on_c, 9, 59, 95
4, 18005, Note_on_c, 9, 35, 0
4, 18048, Note_on_c, 9, 59, 0
4, 18100, Note_on_c, 9, 59, 44
4, 18113, Note_on_c, 9, 59, 0
4, 18136, Note_on_c, 9, 59, 80
4, 18202, Note_on_c, 9, 59, 0
4, 18254, Note_on_c, 9, 59, 94
4, 18326, Note_on_c, 9, 59, 0
4, 18332, Note_on_c, 9, 40, 24
4, 18339, Note_on_c, 9, 40, 0
4, 18373, Note_on_c, 9, 59, 83
4, 18414, Note_on_c, 9, 59, 0
4, 18441, Note_on_c, 9, 40, 40
4, 18450, Note_on_c, 9, 40, 0
4, 18452, Note_on_c, 9, 59, 57
4, 18465, Note_on_c, 9, 59, 0
4, 18489, Note_on_c, 9, 59, 78
4, 18538, Note_on_c, 9, 59, 0
4, 18556, Note_on_c, 9, 44, 55
4, 18570, Note_on_c, 9, 44, 0
4, 18603, Note_on_c, 9, 59, 92
4, 18669, Note_on_c, 9, 59, 0
4, 18673, Note_on_c, 9, 44, 69
4, 18687, Note_on_c, 9, 44, 0
4, 18720, Note_on_c, 9, 59, 80
4, 18774, Note_on_c, 9, 59, 0
4, 18794, Note_on_c, 9, 44, 71
4, 18807, Note_on_c, 9, 44, 0
4, 18834, Note_on_c, 9, 59, 92
4, 18896, Note_on_c, 9, 59, 0
4, 18908, Note_on_c, 9, 44, 70
4, 18923, Note_on_c, 9, 44, 0
4, 18949, Note_on_c, 9, 59, 80
4, 19007, Note_on_c, 9, 59, 0
4, 19024, Note_on_c, 9, 44, 72
4, 19037, Note_on_c, 9, 44, 0
4, 19043, Note_on_c, 9, 59, 48
4, 19055, Note_on_c, 9, 59, 0
4, 19151, Note_on_c, 9, 59, 108
4, 19200, Note_on_c, 9, 35, 64
4, 19200, Note_on_c, 9, 57, 61
4, 19213, Note_on_c, 9, 57, 0
4, 19234, Note_on_c, 9, 35, 0
4, 19293, Note_on_c, 9, 59, 0
4, 19328, Note_on_c, 9, 59, 54
4, 19368, Note_on_c, 9, 59, 0
4, 19415, Note_on_c, 9, 59, 61
4, 19432, Note_on_c, 9, 59, 0
4, 19460, Note_on_c, 9, 59, 75
4, 19514, Note_on_c, 9, 59, 0
4, 19574, Note_on_c, 9, 59, 84
4, 19626, Note_on_c, 9, 59, 0
4, 19659, Note_on_c, 9, 59, 48
4, 19659, Note_on_c, 9, 35, 42
4, 19671, Note_on_c, 9, 35, 0
4, 19687, Note_on_c, 9, 59, 0
4, 19698, Note_on_c, 9, 59, 38
4, 19702, Note_on_c, 9, 35, 30
4, 19716, Note_on_c, 9, 35, 0
4, 19768, Note_on_c, 9, 59, 0
4, 19817, Note_on_c, 9, 59, 89
4, 19888, Note_on_c, 9, 59, 0
4, 19940, Note_on_c, 9, 59, 77
4, 19996, Note_on_c, 9, 59, 0
4, 20022, Note_on_c, 9, 59, 61
4, 20037, Note_on_c, 9, 59, 0
4, 20062, Note_on_c, 9, 59, 82
4, 20106, Note_on_c, 9, 59, 0
4, 20133, Note_on_c, 9, 59, 83
4, 20214, Note_on_c, 9, 59, 0
4, 20253, Note_on_c, 9, 59, 54
4, 20265, Note_on_c, 9, 59, 0
4, 20300, Note_on_c, 9, 59, 64
4, 20327, Note_on_c, 9, 59, 0
4, 20371, Note_on_c, 9, 59, 95
4, 20445, Note_on_c, 9, 59, 0
4, 20492, Note_on_c, 9, 59, 38
4, 20492, Note_on_c, 9, 40, 51
4, 20501, Note_on_c, 9, 40, 0
4, 20507, Note_on_c, 9, 59, 0
4, 20532, Note_on_c, 9, 59, 60
4, 20550, Note_on_c, 9, 59, 0
4, 20568, Note_on_c, 9, 40, 33
4, 20578, Note_on_c, 9, 40, 0
4, 20607, Note_on_c, 9, 59, 96
4, 20666, Note_on_c, 9, 59, 0
4, 20724, Note_on_c, 9, 35, 46
4, 20726, Note_on_c, 9, 59, 91
4, 20735, Note_on_c, 9, 35, 0
4, 20766, Note_on_c, 9, 40, 36
4, 20775, Note_on_c, 9, 40, 0
4, 20778, Note_on_c, 9, 59, 0
4, 20843, Note_on_c, 9, 35, 49
4, 20853, Note_on_c, 9, 59, 60
4, 20855, Note_on_c, 9, 35, 0
4, 20865, Note_on_c, 9, 59, 0
4, 20885, Note_on_c, 9, 35, 49
4, 20894, Note_on_c, 9, 59, 76
4, 20942, Note_on_c, 9, 35, 0
4, 20958, Note_on_c, 9, 59, 0
4, 20959, Note_on_c, 9, 35, 57
4, 20974, Note_on_c, 9, 35, 0
4, 21011, Note_on_c, 9, 59, 92
4, 21076, Note_on_c, 9, 59, 0
4, 21100, Note_on_c, 9, 59, 64
4, 21111, Note_on_c, 9, 59, 0
4, 21135, Note_on_c, 9, 59, 72
4, 21189, Note_on_c, 9, 59, 0
4, 21255, Note_on_c, 9, 59, 92
4, 21313, Note_on_c, 9, 59, 0
4, 21340, Note_on_c, 9, 59, 55
4, 21355, Note_on_c, 9, 59, 0
4, 21367, Note_on_c, 9, 40, 50
4, 21378, Note_on_c, 9, 40, 0
4, 21382, Note_on_c, 9, 59, 77
4, 21400, Note_on_c, 9, 40, 50
4, 21411, Note_on_c, 9, 40, 0
4, 21434, Note_on_c, 9, 59, 0
4, 21446, Note_on_c, 9, 35, 34
4, 21460, Note_on_c, 9, 35, 0
4, 21493, Note_on_c, 9, 40, 29
4, 21495, Note_on_c, 9, 59, 95
4, 21512, Note_on_c, 9, 40, 0
4, 21552, Note_on_c, 9, 59, 0
4, 21572, Note_on_c, 9, 35, 49
4, 21579, Note_on_c, 9, 59, 57
4, 21581, Note_on_c, 9, 35, 0
4, 21593, Note_on_c, 9, 59, 0
4, 21618, Note_on_c, 9, 59, 76
4, 21684, Note_on_c, 9, 59, 0
4, 21692, Note_on_c, 9, 35, 46
4, 21705, Note_on_c, 9, 35, 0
4, 21732, Note_on_c, 9, 59, 89
4, 21739, Note_on_c, 9, 40, 35
4, 21748, Note_on_c, 9, 40, 0
4, 21767, Note_on_c, 9, 40, 45
4, 21781, Note_on_c, 9, 40, 0
4, 21802, Note_on_c, 9, 59, 0
4, 21857, Note_on_c, 9, 59, 87
4, 21900, Note_on_c, 9, 40, 48
4, 21908, Note_on_c, 9, 40, 0
4, 21922, Note_on_c, 9, 59, 0
4, 21942, Note_on_c, 9, 35, 24
4, 21949, Note_on_c, 9, 59, 54
4, 21955, Note_on_c, 9, 35, 0
4, 21961, Note_on_c, 9, 59, 0
4, 21976, Note_on_c, 9, 40, 48
4, 21980, Note_on_c, 9, 59, 79
4, 21984, Note_on_c, 9, 40, 0
4, 22028, Note_on_c, 9, 59, 0
4, 22048, Note_on_c, 9, 40, 55
4, 22055, Note_on_c, 9, 40, 0
4, 22056, Note_on_c, 9, 59, 85
4, 22123, Note_on_c, 9, 59, 0
4, 22130, Note_on_c, 9, 40, 55
4, 22139, Note_on_c, 9, 40, 0
4, 22171, Note_on_c, 9, 35, 46
4, 22176, Note_on_c, 9, 59, 49
4, 22183, Note_on_c, 9, 35, 0
4, 22188, Note_on_c, 9, 59, 0
4, 22212, Note_on_c, 9, 59, 76
4, 22217, Note_on_c, 9, 40, 36
4, 22227, Note_on_c, 9, 40, 0
4, 22269, Note_on_c, 9, 59, 0
4, 22292, Note_on_c, 9, 59, 85
4, 22357, Note_on_c, 9, 59, 0
4, 22409, Note_on_c, 9, 59, 62
4, 22414, Note_on_c, 9, 40, 43
4, 22421, Note_on_c, 9, 59, 0
4, 22424, Note_on_c, 9, 40, 0
4, 22449, Note_on_c, 9, 59, 77
4, 22461, Note_on_c, 9, 40, 31
4, 22470, Note_on_c, 9, 40, 0
4, 22503, Note_on_c, 9, 59, 0
4, 22529, Note_on_c, 9, 59, 88
4, 22530, Note_on_c, 9, 40, 56
4, 22539, Note_on_c, 9, 40, 0
4, 22590, Note_on_c, 9, 59, 0
4, 22637, Note_on_c, 9, 59, 92
4, 22643, Note_on_c, 9, 40, 58
4, 22654, Note_on_c, 9, 40, 0
4, 22692, Note_on_c, 9, 40, 36
4, 22695, Note_on_c, 9, 59, 0
4, 22702, Note_on_c, 9, 40, 0
4, 22757, Note_on_c, 9, 59, 80
4, 22760, Note_on_c, 9, 40, 53
4, 22768, Note_on_c, 9, 40, 0
4, 22768, Note_on_c, 9, 53, 91
4, 22776, Note_on_c, 9, 59, 0
4, 22835, Note_on_c, 9, 40, 64
4, 22853, Note_on_c, 9, 53, 0
4, 22856, Note_on_c, 9, 40, 0
4, 22881, Note_on_c, 9, 53, 82
4, 22914, Note_on_c, 9, 53, 0
4, 22926, Note_on_c, 9, 59, 94
4, 22985, Note_on_c, 9, 59, 0
4, 23000, Note_on_c, 9, 57, 84
4, 23000, Note_on_c, 9, 35, 81
4, 23008, Note_on_c, 9, 59, 85
4, 23015, Note_on_c, 9, 57, 0
4, 23024, Note_on_c, 9, 35, 0
4, 23091, Note_on_c, 9, 59, 0
4, 23162, Note_on_c, 9, 59, 99
4, 23297, Note_on_c, 9, 59, 0
4, 23352, Note_on_c, 9, 59, 61
4, 23355, Note_on_c, 9, 40, 34
4, 23364, Note_on_c, 9, 40, 0
4, 23365, Note_on_c, 9, 59, 0
4, 23395, Note_on_c, 9, 59, 72
4, 23444, Note_on_c, 9, 59, 0
4, 23471, Note_on_c, 9, 59, 89
4, 23538, Note_on_c, 9, 59, 0
4, 23710, Note_on_c, 9, 59, 40
4, 23724, Note_on_c, 9, 59, 0
4, 23750, Note_on_c, 9, 59, 67
4, 23789, Note_on_c, 9, 40, 34
4, 23799, Note_on_c, 9, 40, 0
4, 23801, Note_on_c, 9, 59, 0
4, 23828, Note_on_c, 9, 59, 82
4, 23864, Note_on_c, 9, 59, 0
4, 23872, Note_on_c, 9, 40, 48
4, 23893, Note_on_c, 9, 40, 0
4, 23949, Note_on_c, 9, 40, 53
4, 23950, Note_on_c, 9, 59, 94
4, 23957, Note_on_c, 9, 40, 0
4, 23975, Note_on_c, 9, 59, 0
4, 24125, Note_on_c, 9, 59, 54
4, 24137, Note_on_c, 9, 59, 0
4, 24194, Note_on_c, 9, 59, 99
4, 24199, Note_on_c, 9, 35, 24
4, 24207, Note_on_c, 9, 35, 0
4, 24224, Note_on_c, 9, 59, 0
4, 24263, Note_on_c, 9, 44, 48
4, 24281, Note_on_c, 9, 44, 0
4, 24321, Note_on_c, 9, 59, 51
4, 24333, Note_on_c, 9, 59, 0
4, 24350, Note_on_c, 9, 44, 57
4, 24365, Note_on_c, 9, 44, 0
4, 24371, Note_on_c, 9, 59, 85
4, 24425, Note_on_c, 9, 59, 0
4, 24431, Note_on_c, 9, 44, 63
4, 24447, Note_on_c, 9, 44, 0
4, 24481, Note_on_c, 9, 59, 60
4, 24493, Note_on_c, 9, 59, 0
4, 24514, Note_on_c, 9, 44, 55
4, 24531, Note_on_c, 9, 44, 0
4, 24556, Note_on_c, 9, 35, 50
4, 24566, Note_on_c, 9, 35, 0
4, 24567, Note_on_c, 9, 59, 95
4, 24603, Note_on_c, 9, 40, 61
4, 24605, Note_on_c, 9, 59, 0
4, 24626, Note_on_c, 9, 40, 0
4, 24646, Note_on_c, 9, 40, 60
4, 24657, Note_on_c, 9, 40, 0
4, 24689, Note_on_c, 9, 59, 68
4, 24704, Note_on_c, 9, 59, 0
4, 24743, Note_on_c, 9, 59, 79
4, 24768, Note_on_c, 9, 59, 0
4, 24804, Note_on_c, 9, 35, 50
4, 24813, Note_on_c, 9, 35, 0
4, 24815, Note_on_c, 9, 59, 69
4, 24828, Note_on_c, 9, 59, 0
4, 24847, Note_on_c, 9, 44, 55
4, 24854, Note_on_c, 9, 59, 74
4, 24864, Note_on_c, 9, 44, 0
4, 24865, Note_on_c, 9, 59, 0
4, 24931, Note_on_c, 9, 35, 71
4, 24932, Note_on_c, 9, 59, 95
4, 24952, Note_on_c, 9, 59, 0
4, 24973, Note_on_c, 9, 40, 63
4, 24977, Note_on_c, 9, 59, 75
4, 24983, Note_on_c, 9, 35, 0
4, 24993, Note_on_c, 9, 40, 0
4, 25026, Note_on_c, 9, 59, 0
4, 25059, Note_on_c, 9, 59, 51
4, 25071, Note_on_c, 9, 59, 0
4, 25121, Note_on_c, 9, 59, 24
4, 25132, Note_on_c, 9, 59, 0
4, 25178, Note_on_c, 9, 59, 88
4, 25202, Note_on_c, 9, 59, 0
4, 25224, Note_on_c, 9, 59, 74
4, 25250, Note_on_c, 9, 59, 0
4, 25294, Note_on_c, 9, 59, 75
4, 25306, Note_on_c, 9, 59, 0
4, 25336, Note_on_c, 9, 59, 73
4, 25354, Note_on_c, 9, 59, 0
4, 25422, Note_on_c, 9, 59, 96
4, 25475, Note_on_c, 9, 59, 0
4, 25520, Note_on_c, 9, 35, 36
4, 25530, Note_on_c, 9, 35, 0
4, 25540, Note_on_c, 9, 59, 64
4, 25552, Note_on_c, 9, 59, 0
4, 25560, Note_on_c, 9, 40, 42
4, 25569, Note_on_c, 9, 40, 0
4, 25589, Note_on_c, 9, 40, 31
4, 25609, Note_on_c, 9, 40, 0
4, 25627, Note_on_c, 9, 40, 46
4, 25637, Note_on_c, 9, 40, 0
4, 25653, Note_on_c, 9, 59, 91
4, 25660, Note_on_c, 9, 40, 51
4, 25675, Note_on_c, 9, 40, 0
4, 25689, Note_on_c, 9, 40, 56
4, 25698, Note_on_c, 9, 40, 0
4, 25750, Note_on_c, 9, 59, 0
4, 25760, Note_on_c, 9, 35, 43
4, 25771, Note_on_c, 9, 53, 71
4, 25772, Note_on_c, 9, 35, 0
4, 25796, Note_on_c, 9, 53, 0
4, 25812, Note_on_c, 9, 35, 55
4, 25819, Note_on_c, 9, 59, 59
4, 25842, Note_on_c, 9, 59, 0
4, 25847, Note_on_c, 9, 35, 0
4, 25886, Note_on_c, 9, 35, 80
4, 25893, Note_on_c, 9, 53, 75
4, 25920, Note_on_c, 9, 53, 0
4, 25921, Note_on_c, 9, 35, 0
4, 25947, Note_on_c, 9, 59, 64
4, 25961, Note_on_c, 9, 59, 0
4, 26016, Note_on_c, 9, 59, 68
4, 26028, Note_on_c, 9, 59, 0
4, 26064, Note_on_c, 9, 59, 64
4, 26087, Note_on_c, 9, 59, 0
4, 26126, Note_on_c, 9, 53, 69
4, 26149, Note_on_c, 9, 53, 0
4, 26247, Note_on_c, 9, 53, 74
4, 26250, Note_on_c, 9, 35, 34
4, 26258, Note_on_c, 9, 53, 0
4, 26260, Note_on_c, 9, 35, 0
4, 26289, Note_on_c, 9, 40, 61
4, 26299, Note_on_c, 9, 59, 77
4, 26322, Note_on_c, 9, 59, 0
4, 26344, Note_on_c, 9, 40, 0
4, 26361, Note_on_c, 9, 40, 62
4, 26369, Note_on_c, 9, 59, 83
4, 26376, Note_on_c, 9, 40, 0
4, 26396, Note_on_c, 9, 59, 0
4, 26486, Note_on_c, 9, 59, 84
4, 26492, Note_on_c, 9, 35, 30
4, 26501, Note_on_c, 9, 35, 0
4, 26511, Note_on_c, 9, 59, 0
4, 26533, Note_on_c, 9, 59, 49
4, 26569, Note_on_c, 9, 59, 0
4, 26611, Note_on_c, 9, 40, 44
4, 26620, Note_on_c, 9, 40, 0
4, 26657, Note_on_c, 9, 59, 80
4, 26695, Note_on_c, 9, 59, 0
4, 26732, Note_on_c, 9, 53, 77
4, 26760, Note_on_c, 9, 53, 0
4, 26850, Note_on_c, 9, 51, 95
4, 26883, Note_on_c, 9, 52, 74
4, 26887, Note_on_c, 9, 35, 37
4, 26891, Note_on_c, 9, 52, 0
4, 26896, Note_on_c, 9, 35, 0
4, 26975, Note_on_c, 9, 51, 0
4, 27019, Note_on_c, 9, 51, 73
4, 27072, Note_on_c, 9, 51, 0
4, 27088, Note_on_c, 9, 35, 54
4, 27102, Note_on_c, 9, 51, 57
4, 27112, Note_on_c, 9, 35, 0
4, 27125, Note_on_c, 9, 51, 0
4, 27143, Note_on_c, 9, 51, 67
4, 27195, Note_on_c, 9, 51, 0
4, 27252, Note_on_c, 9, 51, 88
4, 27333, Note_on_c, 9, 51, 0
4, 27369, Note_on_c, 9, 51, 64
4, 27435, Note_on_c, 9, 51, 0
4, 27491, Note_on_c, 9, 51, 83
4, 27551, Note_on_c, 9, 39, 25
4, 27558, Note_on_c, 9, 39, 0
4, 27564, Note_on_c, 9, 51, 0
4, 27573, Note_on_c, 9, 35, 30
4, 27585, Note_on_c, 9, 35, 0
4, 27604, Note_on_c, 9, 40, 56
4, 27611, Note_on_c, 9, 51, 79
4, 27615, Note_on_c, 9, 40, 0
4, 27664, Note_on_c, 9, 40, 63
4, 27670, Note_on_c, 9, 51, 0
4, 27672, Note_on_c, 9, 40, 0
4, 27727, Note_on_c, 9, 40, 62
4, 27731, Note_on_c, 9, 51, 83
4, 27734, Note_on_c, 9, 40, 0
4, 27752, Note_on_c, 9, 40, 52
4, 27763, Note_on_c, 9, 40, 0
4, 27787, Note_on_c, 9, 35, 65
4, 27789, Note_on_c, 9, 51, 0
4, 27811, Note_on_c, 9, 35, 0
4, 27816, Note_on_c, 9, 51, 46
4, 27832, Note_on_c, 9, 51, 0
4, 27853, Note_on_c, 9, 51, 76
4, 27919, Note_on_c, 9, 51, 0
4, 27968, Note_on_c, 9, 51, 85
4, 28028, Note_on_c, 9, 51, 0
4, 28049, Note_on_c, 9, 51, 60
4, 28069, Note_on_c, 9, 51, 0
4, 28090, Note_on_c, 9, 51, 75
4, 28154, Note_on_c, 9, 51, 0
4, 28205, Note_on_c, 9, 51, 86
4, 28263, Note_on_c, 9, 51, 0
4, 28280, Note_on_c, 9, 35, 40
4, 28285, Note_on_c, 9, 51, 61
4, 28291, Note_on_c, 9, 35, 0
4, 28309, Note_on_c, 9, 51, 0
4, 28321, Note_on_c, 9, 35, 34
4, 28327, Note_on_c, 9, 51, 78
4, 28334, Note_on_c, 9, 35, 0
4, 28388, Note_on_c, 9, 51, 0
4, 28447, Note_on_c, 9, 51, 88
4, 28514, Note_on_c, 9, 51, 0
4, 28573, Note_on_c, 9, 51, 87
4, 28632, Note_on_c, 9, 51, 0
4, 28659, Note_on_c, 9, 51, 50
4, 28677, Note_on_c, 9, 51, 0
4, 28698, Note_on_c, 9, 51, 77
4, 28736, Note_on_c, 9, 51, 0
4, 28760, Note_on_c, 9, 35, 72
4, 28772, Note_on_c, 9, 51, 82
4, 28794, Note_on_c, 9, 35, 0
4, 28807, Note_on_c, 9, 35, 33
4, 28832, Note_on_c, 9, 35, 0
4, 28861, Note_on_c, 9, 51, 0
4, 28888, Note_on_c, 9, 51, 51
4, 28907, Note_on_c, 9, 51, 0
4, 28931, Note_on_c, 9, 51, 73
4, 28998, Note_on_c, 9, 51, 0
4, 29006, Note_on_c, 9, 35, 37
4, 29016, Note_on_c, 9, 51, 92
4, 29017, Note_on_c, 9, 35, 0
4, 29047, Note_on_c, 9, 40, 47
4, 29094, Note_on_c, 9, 51, 0
4, 29099, Note_on_c, 9, 40, 0
4, 29124, Note_on_c, 9, 38, 32
4, 29125, Note_on_c, 9, 51, 44
4, 29133, Note_on_c, 9, 38, 0
4, 29139, Note_on_c, 9, 51, 0
4, 29168, Note_on_c, 9, 51, 69
4, 29223, Note_on_c, 9, 51, 0
4, 29248, Note_on_c, 9, 35, 35
4, 29254, Note_on_c, 9, 51, 56
4, 29259, Note_on_c, 9, 35, 0
4, 29267, Note_on_c, 9, 51, 0
4, 29288, Note_on_c, 9, 51, 78
4, 29359, Note_on_c, 9, 40, 50
4, 29362, Note_on_c, 9, 51, 0
4, 29380, Note_on_c, 9, 40, 0
4, 29411, Note_on_c, 9, 51, 83
4, 29467, Note_on_c, 9, 51, 0
4, 29487, Note_on_c, 9, 35, 28
4, 29499, Note_on_c, 9, 35, 0
4, 29502, Note_on_c, 9, 51, 46
4, 29514, Note_on_c, 9, 51, 0
4, 29527, Note_on_c, 9, 40, 42
4, 29534, Note_on_c, 9, 51, 72
4, 29538, Note_on_c, 9, 40, 0
4, 29564, Note_on_c, 9, 40, 25
4, 29574, Note_on_c, 9, 40, 0
4, 29586, Note_on_c, 9, 51, 0
4, 29649, Note_on_c, 9, 51, 85
4, 29697, Note_on_c, 9, 51, 0
4, 29726, Note_on_c, 9, 35, 27
4, 29736, Note_on_c, 9, 51, 36
4, 29737, Note_on_c, 9, 35, 0
4, 29748, Note_on_c, 9, 51, 0
4, 29767, Note_on_c, 9, 51, 68
4, 29797, Note_on_c, 9, 40, 27
4, 29808, Note_on_c, 9, 40, 0
4, 29824, Note_on_c, 9, 51, 0
4, 29839, Note_on_c, 9, 35, 27
4, 29847, Note_on_c, 9, 35, 0
4, 29888, Note_on_c, 9, 51, 83
4, 29960, Note_on_c, 9, 51, 0
4, 30006, Note_on_c, 9, 51, 81
4, 30067, Note_on_c, 9, 51, 0
4, 30130, Note_on_c, 9, 51, 84
4, 30194, Note_on_c, 9, 51, 0
4, 30202, Note_on_c, 9, 40, 49
4, 30210, Note_on_c, 9, 40, 0
4, 30251, Note_on_c, 9, 51, 85
4, 30313, Note_on_c, 9, 51, 0
4, 30323, Note_on_c, 9, 35, 53
4, 30332, Note_on_c, 9, 35, 0
4, 30367, Note_on_c, 9, 51, 76
4, 30413, Note_on_c, 9, 51, 0
4, 30443, Note_on_c, 9, 35, 53
4, 30456, Note_on_c, 9, 35, 0
4, 30486, Note_on_c, 9, 51, 76
4, 30524, Note_on_c, 9, 51, 0
4, 30568, Note_on_c, 9, 53, 67
4, 30595, Note_on_c, 9, 53, 0
4, 30681, Note_on_c, 9, 35, 68
4, 30682, Note_on_c, 9, 51, 98
4, 30699, Note_on_c, 9, 35, 0
4, 30720, Note_on_c, 9, 51, 0
4, 30735, Note_on_c, 9, 40, 31
4, 30751, Note_on_c, 9, 40, 0
4, 30801, Note_on_c, 9, 51, 85
4, 30829, Note_on_c, 9, 51, 0
4, 30917, Note_on_c, 9, 51, 83
4, 30930, Note_on_c, 9, 35, 45
4, 30939, Note_on_c, 9, 35, 0
4, 30956, Note_on_c, 9, 51, 0
4, 30972, Note_on_c, 9, 40, 32
4, 30986, Note_on_c, 9, 40, 0
4, 31046, Note_on_c, 9, 51, 84
4, 31048, Note_on_c, 9, 40, 49
4, 31060, Note_on_c, 9, 40, 0
4, 31083, Note_on_c, 9, 51, 0
4, 31093, Note_on_c, 9, 40, 32
4, 31133, Note_on_c, 9, 40, 0
4, 31167, Note_on_c, 9, 51, 58
4, 31169, Note_on_c, 9, 40, 49
4, 31179, Note_on_c, 9, 40, 0
4, 31190, Note_on_c, 9, 51, 0
4, 31215, Note_on_c, 9, 51, 74
4, 31269, Note_on_c, 9, 51, 0
4, 31416, Note_on_c, 9, 51, 67
4, 31436, Note_on_c, 9, 51, 0
4, 31460, Note_on_c, 9, 51, 67
4, 31503, Note_on_c, 9, 51, 0
4, 31541, Note_on_c, 9, 51, 78
4, 31570, Note_on_c, 9, 51, 0
4, 31650, Note_on_c, 9, 40, 53
4, 31658, Note_on_c, 9, 51, 92
4, 31660, Note_on_c, 9, 40, 0
4, 31688, Note_on_c, 9, 40, 43
4, 31691, Note_on_c, 9, 51, 0
4, 31708, Note_on_c, 9, 40, 0
4, 31729, Note_on_c, 9, 40, 30
4, 31738, Note_on_c, 9, 40, 0
4, 31755, Note_on_c, 9, 40, 51
4, 31766, Note_on_c, 9, 51, 65
4, 31779, Note_on_c, 9, 40, 0
4, 31787, Note_on_c, 9, 51, 0
4, 31809, Note_on_c, 9, 51, 77
4, 31850, Note_on_c, 9, 51, 0
4, 31878, Note_on_c, 9, 51, 76
4, 31917, Note_on_c, 9, 51, 0
4, 31998, Note_on_c, 9, 40, 51
4, 32006, Note_on_c, 9, 40, 0
4, 32036, Note_on_c, 9, 40, 64
4, 32053, Note_on_c, 9, 40, 0
4, 32081, Note_on_c, 9, 35, 62
4, 32096, Note_on_c, 9, 35, 0
4, 32125, Note_on_c, 9, 51, 61
4, 32144, Note_on_c, 9, 51, 0
4, 32155, Note_on_c, 9, 40, 58
4, 32165, Note_on_c, 9, 51, 76
4, 32179, Note_on_c, 9, 40, 0
4, 32199, Note_on_c, 9, 40, 46
4, 32209, Note_on_c, 9, 40, 0
4, 32215, Note_on_c, 9, 51, 0
4, 32233, Note_on_c, 9, 35, 57
4, 32243, Note_on_c, 9, 35, 0
4, 32247, Note_on_c, 9, 51, 72
4, 32270, Note_on_c, 9, 51, 0
4, 32320, Note_on_c, 9, 40, 43
4, 32329, Note_on_c, 9, 40, 0
4, 32347, Note_on_c, 9, 40, 50
4, 32355, Note_on_c, 9, 40, 0
4, 32363, Note_on_c, 9, 51, 90
4, 32382, Note_on_c, 9, 35, 47
4, 32396, Note_on_c, 9, 51, 0
4, 32409, Note_on_c, 9, 35, 0
4, 32486, Note_on_c, 9, 51, 59
4, 32502, Note_on_c, 9, 51, 0
4, 32523, Note_on_c, 9, 51, 81
4, 32574, Note_on_c, 9, 51, 0
4, 32574, Note_on_c, 9, 40, 66
4, 32586, Note_on_c, 9, 40, 0
4, 32606, Note_on_c, 9, 51, 80
4, 32606, Note_on_c, 9, 40, 55
4, 32618, Note_on_c, 9, 40, 0
4, 32644, Note_on_c, 9, 51, 0
4, 32699, Note_on_c, 9, 35, 42
4, 32710, Note_on_c, 9, 35, 0
4, 32715, Note_on_c, 9, 51, 84
4, 32745, Note_on_c, 9, 51, 0
4, 32758, Note_on_c, 9, 35, 47
4, 32795, Note_on_c, 9, 35, 0
4, 32833, Note_on_c, 9, 35, 63
4, 32845, Note_on_c, 9, 35, 0
4, 32845, Note_on_c, 9, 51, 60
4, 32861, Note_on_c, 9, 51, 0
4, 32885, Note_on_c, 9, 51, 74
4, 32939, Note_on_c, 9, 51, 0
4, 33079, Note_on_c, 9, 51, 62
4, 33095, Note_on_c, 9, 51, 0
4, 33118, Note_on_c, 9, 51, 77
4, 33167, Note_on_c, 9, 51, 0
4, 33198, Note_on_c, 9, 40, 60
4, 33202, Note_on_c, 9, 51, 76
4, 33206, Note_on_c, 9, 40, 0
4, 33229, Note_on_c, 9, 51, 0
4, 33323, Note_on_c, 9, 51, 87
4, 33351, Note_on_c, 9, 51, 0
4, 33368, Note_on_c, 9, 40, 55
4, 33380, Note_on_c, 9, 40, 0
4, 33441, Note_on_c, 9, 35, 30
4, 33445, Note_on_c, 9, 51, 56
4, 33452, Note_on_c, 9, 35, 0
4, 33457, Note_on_c, 9, 51, 0
4, 33487, Note_on_c, 9, 51, 75
4, 33525, Note_on_c, 9, 51, 0
4, 33565, Note_on_c, 9, 51, 87
4, 33603, Note_on_c, 9, 51, 0
4, 33665, Note_on_c, 9, 40, 53
4, 33674, Note_on_c, 9, 40, 0
4, 33694, Note_on_c, 9, 51, 54
4, 33705, Note_on_c, 9, 51, 0
4, 33799, Note_on_c, 9, 35, 33
4, 33810, Note_on_c, 9, 35, 0
4, 33818, Note_on_c, 9, 51, 86
4, 33837, Note_on_c, 9, 40, 59
4, 33844, Note_on_c, 9, 51, 0
4, 33855, Note_on_c, 9, 40, 0
4, 33870, Note_on_c, 9, 38, 37
4, 33879, Note_on_c, 9, 38, 0
4, 33905, Note_on_c, 9, 35, 41
4, 33917, Note_on_c, 9, 35, 0
4, 33936, Note_on_c, 9, 51, 84
4, 33964, Note_on_c, 9, 51, 0
4, 34054, Note_on_c, 9, 51, 34
4, 34066, Note_on_c, 9, 51, 0
4, 34160, Note_on_c, 9, 40, 61
4, 34170, Note_on_c, 9, 40, 0
4, 34172, Note_on_c, 9, 51, 84
4, 34196, Note_on_c, 9, 51, 0
4, 34209, Note_on_c, 9, 51, 68
4, 34246, Note_on_c, 9, 51, 0
4, 34285, Note_on_c, 9, 40, 68
4, 34302, Note_on_c, 9, 40, 0
4, 34335, Note_on_c, 9, 51, 86
4, 34369, Note_on_c, 9, 51, 0
4, 34404, Note_on_c, 9, 51, 69
4, 34407, Note_on_c, 9, 40, 88
4, 34425, Note_on_c, 9, 51, 0
4, 34431, Note_on_c, 9, 40, 0
4, 34522, Note_on_c, 9, 53, 91
4, 34534, Note_on_c, 9, 53, 0
4, 34569, Note_on_c, 9, 35, 75
4, 34570, Note_on_c, 9, 57, 82
4, 34651, Note_on_c, 9, 59, 113
4, 34767, Note_on_c, 9, 59, 0
4, 34813, Note_on_c, 9, 59, 62
4, 34855, Note_on_c, 9, 59, 0
4, 34859, Note_on_c, 9, 35, 0
4, 34872, Note_on_c, 9, 57, 0
4, 34880, Note_on_c, 9, 40, 80
4, 34902, Note_on_c, 9, 40, 0
4, 34929, Note_on_c, 9, 59, 75
4, 34932, Note_on_c, 9, 57, 53
4, 34965, Note_on_c, 9, 57, 0
4, 34990, Note_on_c, 9, 59, 0
4, 35057, Note_on_c, 9, 59, 72
4, 35098, Note_on_c, 9, 59, 0
4, 35174, Note_on_c, 9, 59, 73
4, 35220, Note_on_c, 9, 59, 0
4, 35262, Note_on_c, 9, 59, 36
4, 35275, Note_on_c, 9, 59, 0
4, 35297, Note_on_c, 9, 59, 78
4, 35357, Note_on_c, 9, 59, 0
4, 35410, Note_on_c, 9, 59, 81
4, 35466, Note_on_c, 9, 59, 0
4, 35492, Note_on_c, 9, 59, 57
4, 35507, Note_on_c, 9, 59, 0
4, 35531, Note_on_c, 9, 59, 70
4, 35581, Note_on_c, 9, 59, 0
4, 35653, Note_on_c, 9, 59, 83
4, 35709, Note_on_c, 9, 59, 0
4, 35740, Note_on_c, 9, 59, 55
4, 35753, Note_on_c, 9, 59, 0
4, 35777, Note_on_c, 9, 59, 74
4, 35810, Note_on_c, 9, 59, 0
4, 35889, Note_on_c, 9, 59, 87
4, 35929, Note_on_c, 9, 59, 0
4, 35981, Note_on_c, 9, 59, 64
4, 35994, Note_on_c, 9, 59, 0
4, 36018, Note_on_c, 9, 59, 78
4, 36045, Note_on_c, 9, 59, 0
4, 36125, Note_on_c, 9, 59, 91
4, 36182, Note_on_c, 9, 59, 0
4, 36248, Note_on_c, 9, 59, 85
4, 36311, Note_on_c, 9, 59, 0
4, 36366, Note_on_c, 9, 37, 87
4, 36370, Note_on_c, 9, 59, 84
4, 36407, Note_on_c, 9, 37, 0
4, 36423, Note_on_c, 9, 59, 0
4, 36449, Note_on_c, 9, 35, 38
4, 36461, Note_on_c, 9, 35, 0
4, 36492, Note_on_c, 9, 35, 33
4, 36494, Note_on_c, 9, 59, 88
4, 36547, Note_on_c, 9, 59, 0
4, 36548, Note_on_c, 9, 35, 0
4, 36610, Note_on_c, 9, 59, 90
4, 36678, Note_on_c, 9, 59, 0
4, 36733, Note_on_c, 9, 59, 84
4, 36785, Note_on_c, 9, 59, 0
4, 36812, Note_on_c, 9, 35, 33
4, 36821, Note_on_c, 9, 35, 0
4, 36846, Note_on_c, 9, 37, 92
4, 36855, Note_on_c, 9, 59, 87
4, 36899, Note_on_c, 9, 37, 0
4, 36920, Note_on_c, 9, 59, 0
4, 36931, Note_on_c, 9, 35, 36
4, 36943, Note_on_c, 9, 35, 0
4, 36969, Note_on_c, 9, 35, 33
4, 36971, Note_on_c, 9, 59, 83
4, 36999, Note_on_c, 9, 35, 0
4, 37020, Note_on_c, 9, 59, 0
4, 37093, Note_on_c, 9, 59, 87
4, 37147, Note_on_c, 9, 59, 0
4, 37176, Note_on_c, 9, 59, 57
4, 37191, Note_on_c, 9, 59, 0
4, 37214, Note_on_c, 9, 59, 79
4, 37271, Note_on_c, 9, 59, 0
4, 37321, Note_on_c, 9, 59, 88
4, 37324, Note_on_c, 9, 37, 91
4, 37374, Note_on_c, 9, 37, 0
4, 37385, Note_on_c, 9, 59, 0
4, 37411, Note_on_c, 9, 59, 64
4, 37413, Note_on_c, 9, 35, 30
4, 37422, Note_on_c, 9, 59, 0
4, 37424, Note_on_c, 9, 35, 0
4, 37445, Note_on_c, 9, 59, 74
4, 37509, Note_on_c, 9, 59, 0
4, 37566, Note_on_c, 9, 59, 90
4, 37626, Note_on_c, 9, 59, 0
4, 37651, Note_on_c, 9, 59, 64
4, 37667, Note_on_c, 9, 59, 0
4, 37693, Note_on_c, 9, 59, 83
4, 37749, Note_on_c, 9, 59, 0
4, 37811, Note_on_c, 9, 37, 91
4, 37812, Note_on_c, 9, 59, 90
4, 37869, Note_on_c, 9, 37, 0
4, 37874, Note_on_c, 9, 59, 0
4, 37901, Note_on_c, 9, 59, 60
4, 37913, Note_on_c, 9, 59, 0
4, 37935, Note_on_c, 9, 59, 74
4, 38000, Note_on_c, 9, 59, 0
4, 38054, Note_on_c, 9, 59, 89
4, 38110, Note_on_c, 9, 59, 0
4, 38136, Note_on_c, 9, 35, 54
4, 38154, Note_on_c, 9, 35, 0
4, 38172, Note_on_c, 9, 59, 80
4, 38184, Note_on_c, 9, 35, 36
4, 38201, Note_on_c, 9, 35, 0
4, 38213, Note_on_c, 9, 59, 0
4, 38253, Note_on_c, 9, 59, 58
4, 38267, Note_on_c, 9, 59, 0
4, 38294, Note_on_c, 9, 59, 71
4, 38309, Note_on_c, 9, 59, 0
4, 38370, Note_on_c, 9, 59, 92
4, 38415, Note_on_c, 9, 35, 32
4, 38464, Note_on_c, 9, 59, 0
4, 38468, Note_on_c, 9, 35, 0
4, 38487, Note_on_c, 9, 35, 53
4, 38489, Note_on_c, 9, 59, 65
4, 38501, Note_on_c, 9, 35, 0
4, 38504, Note_on_c, 9, 59, 0
4, 38537, Note_on_c, 9, 59, 66
4, 38566, Note_on_c, 9, 59, 0
4, 38617, Note_on_c, 9, 59, 90
4, 38673, Note_on_c, 9, 59, 0
4, 38732, Note_on_c, 9, 59, 64
4, 38744, Note_on_c, 9, 59, 0
4, 38777, Note_on_c, 9, 59, 80
4, 38839, Note_on_c, 9, 59, 0
4, 38846, Note_on_c, 9, 40, 54
4, 38855, Note_on_c, 9, 40, 0
4, 38892, Note_on_c, 9, 40, 34
4, 38897, Note_on_c, 9, 59, 90
4, 38920, Note_on_c, 9, 40, 0
4, 38951, Note_on_c, 9, 59, 0
4, 38968, Note_on_c, 9, 35, 41
4, 38979, Note_on_c, 9, 35, 0
4, 39008, Note_on_c, 9, 35, 31
4, 39011, Note_on_c, 9, 59, 83
4, 39050, Note_on_c, 9, 35, 0
4, 39063, Note_on_c, 9, 59, 0
4, 39084, Note_on_c, 9, 35, 53
4, 39095, Note_on_c, 9, 59, 58
4, 39099, Note_on_c, 9, 35, 0
4, 39112, Note_on_c, 9, 59, 0
4, 39135, Note_on_c, 9, 59, 80
4, 39200, Note_on_c, 9, 59, 0
4, 39254, Note_on_c, 9, 59, 89
4, 39307, Note_on_c, 9, 59, 0
4, 39340, Note_on_c, 9, 59, 64
4, 39352, Note_on_c, 9, 59, 0
4, 39376, Note_on_c, 9, 59, 74
4, 39440, Note_on_c, 9, 59, 0
4, 39494, Note_on_c, 9, 59, 88
4, 39544, Note_on_c, 9, 59, 0
4, 39577, Note_on_c, 9, 40, 48
4, 39584, Note_on_c, 9, 59, 71
4, 39587, Note_on_c, 9, 40, 0
4, 39598, Note_on_c, 9, 59, 0
4, 39622, Note_on_c, 9, 59, 80
4, 39622, Note_on_c, 9, 40, 44
4, 39632, Note_on_c, 9, 40, 0
4, 39659, Note_on_c, 9, 40, 67
4, 39667, Note_on_c, 9, 40, 0
4, 39678, Note_on_c, 9, 59, 0
4, 39696, Note_on_c, 9, 35, 62
4, 39716, Note_on_c, 9, 35, 0
4, 39735, Note_on_c, 9, 59, 88
4, 39737, Note_on_c, 9, 40, 68
4, 39749, Note_on_c, 9, 40, 0
4, 39774, Note_on_c, 9, 40, 62
4, 39785, Note_on_c, 9, 40, 0
4, 39805, Note_on_c, 9, 59, 0
4, 39814, Note_on_c, 9, 35, 49
4, 39842, Note_on_c, 9, 35, 0
4, 39853, Note_on_c, 9, 59, 83
4, 39912, Note_on_c, 9, 59, 0
4, 39929, Note_on_c, 9, 35, 35
4, 39940, Note_on_c, 9, 35, 0
4, 39968, Note_on_c, 9, 59, 84
4, 39970, Note_on_c, 9, 40, 49
4, 39980, Note_on_c, 9, 40, 0
4, 39998, Note_on_c, 9, 40, 58
4, 40010, Note_on_c, 9, 40, 0
4, 40026, Note_on_c, 9, 59, 0
4, 40045, Note_on_c, 9, 35, 48
4, 40056, Note_on_c, 9, 35, 0
4, 40090, Note_on_c, 9, 40, 51
4, 40093, Note_on_c, 9, 59, 80
4, 40098, Note_on_c, 9, 40, 0
4, 40119, Note_on_c, 9, 40, 40
4, 40133, Note_on_c, 9, 40, 0
4, 40149, Note_on_c, 9, 59, 0
4, 40167, Note_on_c, 9, 35, 27
4, 40175, Note_on_c, 9, 35, 0
4, 40207, Note_on_c, 9, 40, 50
4, 40212, Note_on_c, 9, 59, 82
4, 40215, Note_on_c, 9, 40, 0
4, 40237, Note_on_c, 9, 40, 44
4, 40246, Note_on_c, 9, 40, 0
4, 40266, Note_on_c, 9, 59, 0
4, 40281, Note_on_c, 9, 35, 50
4, 40292, Note_on_c, 9, 59, 65
4, 40303, Note_on_c, 9, 35, 0
4, 40321, Note_on_c, 9, 59, 0
4, 40329, Note_on_c, 9, 59, 39
4, 40396, Note_on_c, 9, 59, 0
4, 40444, Note_on_c, 9, 59, 87
4, 40500, Note_on_c, 9, 59, 0
4, 40525, Note_on_c, 9, 59, 66
4, 40544, Note_on_c, 9, 59, 0
4, 40565, Note_on_c, 9, 59, 80
4, 40633, Note_on_c, 9, 59, 0
4, 40647, Note_on_c, 9, 40, 59
4, 40657, Note_on_c, 9, 40, 0
4, 40687, Note_on_c, 9, 59, 90
4, 40691, Note_on_c, 9, 35, 45
4, 40742, Note_on_c, 9, 35, 0
4, 40745, Note_on_c, 9, 59, 0
4, 40766, Note_on_c, 9, 57, 64
4, 40770, Note_on_c, 9, 35, 53
4, 40774, Note_on_c, 9, 57, 0
4, 40787, Note_on_c, 9, 35, 0
4, 40806, Note_on_c, 9, 59, 80
4, 40859, Note_on_c, 9, 59, 0
4, 40885, Note_on_c, 9, 59, 68
4, 40896, Note_on_c, 9, 59, 0
4, 40920, Note_on_c, 9, 59, 78
4, 40974, Note_on_c, 9, 59, 0
4, 40998, Note_on_c, 9, 59, 84
4, 41098, Note_on_c, 9, 59, 0
4, 41125, Note_on_c, 9, 59, 66
4, 41136, Note_on_c, 9, 59, 0
4, 41165, Note_on_c, 9, 59, 77
4, 41217, Note_on_c, 9, 59, 0
4, 41237, Note_on_c, 9, 40, 58
4, 41245, Note_on_c, 9, 40, 0
4, 41249, Note_on_c, 9, 59, 73
4, 41271, Note_on_c, 9, 59, 0
4, 41279, Note_on_c, 9, 40, 47
4, 41287, Note_on_c, 9, 40, 0
4, 41290, Note_on_c, 9, 59, 82
4, 41356, Note_on_c, 9, 35, 47
4, 41357, Note_on_c, 9, 59, 0
4, 41367, Note_on_c, 9, 35, 0
4, 41409, Note_on_c, 9, 59, 85
4, 41471, Note_on_c, 9, 59, 0
4, 41477, Note_on_c, 9, 40, 56
4, 41485, Note_on_c, 9, 40, 0
4, 41517, Note_on_c, 9, 46, 69
4, 41524, Note_on_c, 9, 35, 58
4, 41531, Note_on_c, 9, 59, 85
4, 41564, Note_on_c, 9, 46, 0
4, 41566, Note_on_c, 9, 35, 0
4, 41592, Note_on_c, 9, 59, 0
4, 41634, Note_on_c, 9, 40, 58
4, 41644, Note_on_c, 9, 40, 0
4, 41646, Note_on_c, 9, 59, 83
4, 41701, Note_on_c, 9, 59, 0
4, 41710, Note_on_c, 9, 46, 77
4, 41716, Note_on_c, 9, 35, 75
4, 41727, Note_on_c, 9, 59, 60
4, 41735, Note_on_c, 9, 46, 0
4, 41739, Note_on_c, 9, 35, 0
4, 41746, Note_on_c, 9, 59, 0
4, 41767, Note_on_c, 9, 59, 73
4, 41825, Note_on_c, 9, 59, 0
4, 41837, Note_on_c, 9, 40, 28
4, 41846, Note_on_c, 9, 40, 0
4, 41878, Note_on_c, 9, 59, 89
4, 41887, Note_on_c, 9, 46, 77
4, 41890, Note_on_c, 9, 35, 69
4, 41937, Note_on_c, 9, 46, 0
4, 41940, Note_on_c, 9, 59, 0
4, 41943, Note_on_c, 9, 35, 0
4, 41965, Note_on_c, 9, 59, 61
4, 41978, Note_on_c, 9, 59, 0
4, 41995, Note_on_c, 9, 40, 33
4, 42004, Note_on_c, 9, 59, 74
4, 42005, Note_on_c, 9, 40, 0
4, 42055, Note_on_c, 9, 59, 0
4, 42082, Note_on_c, 9, 46, 77
4, 42085, Note_on_c, 9, 35, 78
4, 42108, Note_on_c, 9, 46, 0
4, 42115, Note_on_c, 9, 59, 110
4, 42128, Note_on_c, 9, 35, 0
4, 42208, Note_on_c, 9, 40, 62
4, 42210, Note_on_c, 9, 59, 0
4, 42217, Note_on_c, 9, 40, 0
4, 42237, Note_on_c, 9, 59, 60
4, 42252, Note_on_c, 9, 35, 61
4, 42260, Note_on_c, 9, 35, 0
4, 42278, Note_on_c, 9, 59, 0
4, 42357, Note_on_c, 9, 59, 92
4, 42437, Note_on_c, 9, 59, 0
4, 42487, Note_on_c, 9, 59, 51
4, 42544, Note_on_c, 9, 59, 0
4, 42564, Note_on_c, 9, 40, 45
4, 42573, Note_on_c, 9, 40, 0
4, 42602, Note_on_c, 9, 59, 82
4, 42661, Note_on_c, 9, 59, 0
4, 42688, Note_on_c, 9, 59, 57
4, 42700, Note_on_c, 9, 59, 0
4, 42723, Note_on_c, 9, 59, 71
4, 42798, Note_on_c, 9, 59, 0
4, 42843, Note_on_c, 9, 59, 85
4, 42903, Note_on_c, 9, 59, 0
4, 42926, Note_on_c, 9, 40, 64
4, 42935, Note_on_c, 9, 59, 39
4, 42947, Note_on_c, 9, 40, 0
4, 42949, Note_on_c, 9, 59, 0
4, 42972, Note_on_c, 9, 59, 79
4, 42975, Note_on_c, 9, 40, 24
4, 43003, Note_on_c, 9, 40, 0
4, 43036, Note_on_c, 9, 59, 0
4, 43046, Note_on_c, 9, 38, 62
4, 43057, Note_on_c, 9, 38, 0
4, 43087, Note_on_c, 9, 59, 85
4, 43099, Note_on_c, 9, 35, 26
4, 43111, Note_on_c, 9, 35, 0
4, 43165, Note_on_c, 9, 59, 0
4, 43167, Note_on_c, 9, 35, 60
4, 43186, Note_on_c, 9, 35, 0
4, 43214, Note_on_c, 9, 59, 84
4, 43215, Note_on_c, 9, 35, 52
4, 43242, Note_on_c, 9, 35, 0
4, 43279, Note_on_c, 9, 59, 0
4, 43290, Note_on_c, 9, 35, 53
4, 43310, Note_on_c, 9, 35, 0
4, 43332, Note_on_c, 9, 59, 82
4, 43407, Note_on_c, 9, 59, 0
4, 43458, Note_on_c, 9, 59, 79
4, 43514, Note_on_c, 9, 59, 0
4, 43543, Note_on_c, 9, 59, 56
4, 43595, Note_on_c, 9, 59, 0
4, 43655, Note_on_c, 9, 35, 44
4, 43656, Note_on_c, 9, 59, 84
4, 43666, Note_on_c, 9, 35, 0
4, 43733, Note_on_c, 9, 40, 54
4, 43742, Note_on_c, 9, 40, 0
4, 43761, Note_on_c, 9, 40, 35
4, 43764, Note_on_c, 9, 59, 0
4, 43772, Note_on_c, 9, 40, 0
4, 43792, Note_on_c, 9, 59, 49
4, 43802, Note_on_c, 9, 35, 32
4, 43804, Note_on_c, 9, 59, 0
4, 43814, Note_on_c, 9, 35, 0
4, 43833, Note_on_c, 9, 59, 71
4, 43879, Note_on_c, 9, 59, 0
4, 43899, Note_on_c, 9, 35, 46
4, 43907, Note_on_c, 9, 59, 84
4, 43908, Note_on_c, 9, 35, 0
4, 43989, Note_on_c, 9, 59, 0
4, 44018, Note_on_c, 9, 35, 46
4, 44028, Note_on_c, 9, 35, 0
4, 44029, Note_on_c, 9, 59, 40
4, 44042, Note_on_c, 9, 59, 0
4, 44068, Note_on_c, 9, 59, 75
4, 44069, Note_on_c, 9, 40, 41
4, 44078, Note_on_c, 9, 40, 0
4, 44101, Note_on_c, 9, 40, 49
4, 44109, Note_on_c, 9, 40, 0
4, 44139, Note_on_c, 9, 35, 38
4, 44145, Note_on_c, 9, 59, 0
4, 44163, Note_on_c, 9, 35, 0
4, 44182, Note_on_c, 9, 59, 78
4, 44242, Note_on_c, 9, 35, 33
4, 44243, Note_on_c, 9, 59, 0
4, 44252, Note_on_c, 9, 35, 0
4, 44279, Note_on_c, 9, 40, 36
4, 44289, Note_on_c, 9, 40, 0
4, 44293, Note_on_c, 9, 59, 82
4, 44309, Note_on_c, 9, 40, 48
4, 44322, Note_on_c, 9, 40, 0
4, 44346, Note_on_c, 9, 59, 0
4, 44360, Note_on_c, 9, 35, 49
4, 44373, Note_on_c, 9, 59, 62
4, 44383, Note_on_c, 9, 35, 0
4, 44389, Note_on_c, 9, 59, 0
4, 44413, Note_on_c, 9, 59, 80
4, 44484, Note_on_c, 9, 59, 0
4, 44531, Note_on_c, 9, 59, 92
4, 44591, Note_on_c, 9, 59, 0
4, 44599, Note_on_c, 9, 40, 51
4, 44610, Note_on_c, 9, 40, 0
4, 44617, Note_on_c, 9, 59, 64
4, 44635, Note_on_c, 9, 59, 0
4, 44645, Note_on_c, 9, 35, 28
4, 44665, Note_on_c, 9, 59, 67
4, 44696, Note_on_c, 9, 35, 0
4, 44699, Note_on_c, 9, 59, 0
4, 44716, Note_on_c, 9, 35, 48
4, 44732, Note_on_c, 9, 35, 0
4, 44771, Note_on_c, 9, 59, 95
4, 44834, Note_on_c, 9, 59, 0
4, 44864, Note_on_c, 9, 59, 45
4, 44877, Note_on_c, 9, 59, 0
4, 44901, Note_on_c, 9, 59, 65
4, 44914, Note_on_c, 9, 59, 0
4, 45001, Note_on_c, 9, 59, 92
4, 45059, Note_on_c, 9, 59, 0
4, 45088, Note_on_c, 9, 35, 41
4, 45098, Note_on_c, 9, 35, 0
4, 45118, Note_on_c, 9, 59, 60
4, 45129, Note_on_c, 9, 40, 40
4, 45146, Note_on_c, 9, 59, 0
4, 45186, Note_on_c, 9, 40, 0
4, 45203, Note_on_c, 9, 59, 68
4, 45205, Note_on_c, 9, 40, 47
4, 45216, Note_on_c, 9, 40, 0
4, 45218, Note_on_c, 9, 59, 0
4, 45243, Note_on_c, 9, 59, 84
4, 45243, Note_on_c, 9, 40, 29
4, 45257, Note_on_c, 9, 40, 0
4, 45294, Note_on_c, 9, 59, 0
4, 45324, Note_on_c, 9, 35, 50
4, 45326, Note_on_c, 9, 59, 84
4, 45334, Note_on_c, 9, 35, 0
4, 45366, Note_on_c, 9, 59, 0
4, 45376, Note_on_c, 9, 40, 26
4, 45408, Note_on_c, 9, 40, 0
4, 45437, Note_on_c, 9, 53, 80
4, 45442, Note_on_c, 9, 35, 50
4, 45451, Note_on_c, 9, 35, 0
4, 45463, Note_on_c, 9, 53, 0
4, 45492, Note_on_c, 9, 40, 24
4, 45500, Note_on_c, 9, 40, 0
4, 45557, Note_on_c, 9, 40, 66
4, 45564, Note_on_c, 9, 59, 78
4, 45572, Note_on_c, 9, 40, 0
4, 45587, Note_on_c, 9, 59, 0
4, 45608, Note_on_c, 9, 40, 47
4, 45616, Note_on_c, 9, 40, 0
4, 45673, Note_on_c, 9, 53, 91
4, 45677, Note_on_c, 9, 40, 43
4, 45686, Note_on_c, 9, 40, 0
4, 45713, Note_on_c, 9, 53, 0
4, 45722, Note_on_c, 9, 35, 26
4, 45729, Note_on_c, 9, 35, 0
4, 45796, Note_on_c, 9, 53, 95
4, 45796, Note_on_c, 9, 35, 34
4, 45806, Note_on_c, 9, 35, 0
4, 45834, Note_on_c, 9, 53, 0
4, 45914, Note_on_c, 9, 40, 67
4, 45920, Note_on_c, 9, 53, 96
4, 45933, Note_on_c, 9, 40, 0
4, 45951, Note_on_c, 9, 53, 0
4, 45963, Note_on_c, 9, 35, 32
4, 45979, Note_on_c, 9, 35, 0
4, 46031, Note_on_c, 9, 51, 84
4, 46039, Note_on_c, 9, 35, 34
4, 46049, Note_on_c, 9, 35, 0
4, 46053, Note_on_c, 9, 51, 0
4, 46076, Note_on_c, 9, 51, 80
4, 46080, Note_on_c, 9, 35, 62
4, 46101, Note_on_c, 9, 35, 0
4, 46156, Note_on_c, 9, 51, 0
4, 46200, Note_on_c, 9, 51, 86
4, 46261, Note_on_c, 9, 51, 0
4, 46282, Note_on_c, 9, 35, 34
4, 46296, Note_on_c, 9, 35, 0
4, 46392, Note_on_c, 9, 44, 44
4, 46402, Note_on_c, 9, 44, 0
4, 46403, Note_on_c, 9, 51, 73
4, 46426, Note_on_c, 9, 51, 0
4, 46447, Note_on_c, 9, 51, 68
4, 46490, Note_on_c, 9, 51, 0
4, 46532, Note_on_c, 9, 51, 91
4, 46568, Note_on_c, 9, 51, 0
4, 46640, Note_on_c, 9, 53, 75
4, 46674, Note_on_c, 9, 53, 0
4, 46738, Note_on_c, 9, 44, 43
4, 46757, Note_on_c, 9, 44, 0
4, 46759, Note_on_c, 9, 51, 77
4, 46775, Note_on_c, 9, 44, 37
4, 46783, Note_on_c, 9, 44, 0
4, 46787, Note_on_c, 9, 51, 0
4, 46881, Note_on_c, 9, 53, 80
4, 46914, Note_on_c, 9, 53, 0
4, 46998, Note_on_c, 9, 51, 45
4, 46998, Note_on_c, 9, 35, 48
4, 47008, Note_on_c, 9, 35, 0
4, 47010, Note_on_c, 9, 51, 0
4, 47044, Note_on_c, 9, 51, 69
4, 47046, Note_on_c, 9, 35, 37
4, 47071, Note_on_c, 9, 35, 0
4, 47073, Note_on_c, 9, 51, 0
4, 47128, Note_on_c, 9, 35, 47
4, 47137, Note_on_c, 9, 35, 0
4, 47165, Note_on_c, 9, 51, 86
4, 47209, Note_on_c, 9, 51, 0
4, 47281, Note_on_c, 9, 40, 44
4, 47286, Note_on_c, 9, 51, 73
4, 47299, Note_on_c, 9, 40, 0
4, 47313, Note_on_c, 9, 51, 0
4, 47318, Note_on_c, 9, 40, 37
4, 47336, Note_on_c, 9, 40, 0
4, 47357, Note_on_c, 9, 40, 60
4, 47366, Note_on_c, 9, 40, 0
4, 47370, Note_on_c, 9, 51, 81
4, 47396, Note_on_c, 9, 51, 0
4, 47479, Note_on_c, 9, 35, 39
4, 47480, Note_on_c, 9, 53, 80
4, 47490, Note_on_c, 9, 35, 0
4, 47513, Note_on_c, 9, 53, 0
4, 47567, Note_on_c, 9, 40, 46
4, 47576, Note_on_c, 9, 40, 0
4, 47596, Note_on_c, 9, 40, 36
4, 47601, Note_on_c, 9, 51, 76
4, 47610, Note_on_c, 9, 40, 0
4, 47630, Note_on_c, 9, 51, 0
4, 47688, Note_on_c, 9, 40, 47
4, 47703, Note_on_c, 9, 40, 0
4, 47726, Note_on_c, 9, 51, 74
4, 47746, Note_on_c, 9, 51, 0
4, 47771, Note_on_c, 9, 51, 74
4, 47777, Note_on_c, 9, 40, 24
4, 47784, Note_on_c, 9, 40, 0
4, 47815, Note_on_c, 9, 51, 0
4, 47888, Note_on_c, 9, 51, 91
4, 47953, Note_on_c, 9, 51, 0
4, 48014, Note_on_c, 9, 40, 36
4, 48024, Note_on_c, 9, 40, 0
4, 48043, Note_on_c, 9, 40, 45
4, 48055, Note_on_c, 9, 40, 0
4, 48079, Note_on_c, 9, 40, 40
4, 48089, Note_on_c, 9, 40, 0
4, 48090, Note_on_c, 9, 51, 69
4, 48101, Note_on_c, 9, 51, 0
4, 48133, Note_on_c, 9, 51, 68
4, 48161, Note_on_c, 9, 51, 0
4, 48183, Note_on_c, 9, 40, 33
4, 48192, Note_on_c, 9, 40, 0
4, 48209, Note_on_c, 9, 51, 90
4, 48251, Note_on_c, 9, 51, 0
4, 48322, Note_on_c, 9, 35, 27
4, 48326, Note_on_c, 9, 51, 81
4, 48333, Note_on_c, 9, 35, 0
4, 48353, Note_on_c, 9, 40, 45
4, 48356, Note_on_c, 9, 51, 0
4, 48365, Note_on_c, 9, 40, 0
4, 48387, Note_on_c, 9, 40, 44
4, 48398, Note_on_c, 9, 40, 0
4, 48432, Note_on_c, 9, 35, 44
4, 48443, Note_on_c, 9, 35, 0
4, 48446, Note_on_c, 9, 51, 83
4, 48483, Note_on_c, 9, 51, 0
4, 48560, Note_on_c, 9, 51, 69
4, 48588, Note_on_c, 9, 51, 0
4, 48608, Note_on_c, 9, 51, 68
4, 48627, Note_on_c, 9, 51, 0
4, 48683, Note_on_c, 9, 51, 86
4, 48718, Note_on_c, 9, 51, 0
4, 48758, Note_on_c, 9, 40, 50
4, 48767, Note_on_c, 9, 40, 0
4, 48802, Note_on_c, 9, 35, 33
4, 48807, Note_on_c, 9, 51, 30
4, 48816, Note_on_c, 9, 35, 0
4, 48818, Note_on_c, 9, 51, 0
4, 48844, Note_on_c, 9, 40, 54
4, 48850, Note_on_c, 9, 51, 57
4, 48857, Note_on_c, 9, 40, 0
4, 48874, Note_on_c, 9, 51, 0
4, 48917, Note_on_c, 9, 40, 62
4, 48926, Note_on_c, 9, 51, 83
4, 48938, Note_on_c, 9, 40, 0
4, 48952, Note_on_c, 9, 51, 0
4, 48960, Note_on_c, 9, 35, 35
4, 48972, Note_on_c, 9, 51, 73
4, 48977, Note_on_c, 9, 35, 0
4, 48997, Note_on_c, 9, 51, 0
4, 49041, Note_on_c, 9, 51, 72
4, 49056, Note_on_c, 9, 51, 0
4, 49085, Note_on_c, 9, 51, 72
4, 49110, Note_on_c, 9, 51, 0
4, 49148, Note_on_c, 9, 40, 60
4, 49158, Note_on_c, 9, 51, 87
4, 49165, Note_on_c, 9, 40, 0
4, 49184, Note_on_c, 9, 51, 0
4, 49203, Note_on_c, 9, 51, 77
4, 49233, Note_on_c, 9, 51, 0
4, 49237, Note_on_c, 9, 40, 57
4, 49245, Note_on_c, 9, 40, 0
4, 49275, Note_on_c, 9, 40, 49
4, 49284, Note_on_c, 9, 40, 0
4, 49306, Note_on_c, 9, 51, 71
4, 49323, Note_on_c, 9, 35, 33
4, 49330, Note_on_c, 9, 51, 0
4, 49342, Note_on_c, 9, 35, 0
4, 49391, Note_on_c, 9, 51, 83
4, 49431, Note_on_c, 9, 51, 0
4, 49431, Note_on_c, 9, 40, 55
4, 49439, Note_on_c, 9, 40, 0
4, 49472, Note_on_c, 9, 40, 44
4, 49485, Note_on_c, 9, 40, 0
4, 49516, Note_on_c, 9, 35, 57
4, 49520, Note_on_c, 9, 53, 71
4, 49536, Note_on_c, 9, 35, 0
4, 49551, Note_on_c, 9, 53, 0
4, 49612, Note_on_c, 9, 40, 53
4, 49620, Note_on_c, 9, 40, 0
4, 49633, Note_on_c, 9, 51, 83
4, 49674, Note_on_c, 9, 51, 0
4, 49686, Note_on_c, 9, 40, 51
4, 49695, Note_on_c, 9, 40, 0
4, 49758, Note_on_c, 9, 51, 73
4, 49762, Note_on_c, 9, 40, 64
4, 49769, Note_on_c, 9, 40, 0
4, 49776, Note_on_c, 9, 51, 0
4, 49799, Note_on_c, 9, 51, 72
4, 49834, Note_on_c, 9, 51, 0
4, 49880, Note_on_c, 9, 51, 81
4, 49898, Note_on_c, 9, 51, 0
4, 49925, Note_on_c, 9, 51, 84
4, 49928, Note_on_c, 9, 57, 63
4, 49928, Note_on_c, 9, 40, 64
4, 49928, Note_on_c, 9, 35, 68
4, 49988, Note_on_c, 9, 51, 0
4, 50040, Note_on_c, 9, 51, 88
4, 50113, Note_on_c, 9, 51, 0
4, 50167, Note_on_c, 9, 51, 79
4, 50230, Note_on_c, 9, 51, 0
4, 50278, Note_on_c, 9, 57, 0
4, 50286, Note_on_c, 9, 51, 81
4, 50303, Note_on_c, 9, 35, 0
4, 50308, Note_on_c, 9, 40, 0
4, 50347, Note_on_c, 9, 51, 0
4, 50369, Note_on_c, 9, 35, 63
4, 50392, Note_on_c, 9, 35, 0
4, 50406, Note_on_c, 9, 51, 83
4, 50411, Note_on_c, 9, 35, 48
4, 50453, Note_on_c, 9, 35, 0
4, 50473, Note_on_c, 9, 51, 0
4, 50531, Note_on_c, 9, 51, 83
4, 50583, Note_on_c, 9, 51, 0
4, 50610, Note_on_c, 9, 35, 29
4, 50616, Note_on_c, 9, 51, 42
4, 50625, Note_on_c, 9, 35, 0
4, 50632, Note_on_c, 9, 51, 0
4, 50653, Note_on_c, 9, 51, 77
4, 50728, Note_on_c, 9, 51, 0
4, 50730, Note_on_c, 9, 38, 28
4, 50738, Note_on_c, 9, 38, 0
4, 50770, Note_on_c, 9, 51, 86
4, 50836, Note_on_c, 9, 51, 0
4, 50847, Note_on_c, 9, 35, 48
4, 50857, Note_on_c, 9, 35, 0
4, 50858, Note_on_c, 9, 51, 57
4, 50878, Note_on_c, 9, 51, 0
4, 50893, Note_on_c, 9, 40, 26
4, 50894, Note_on_c, 9, 51, 67
4, 50928, Note_on_c, 9, 40, 0
4, 50958, Note_on_c, 9, 40, 41
4, 50967, Note_on_c, 9, 40, 0
4, 50973, Note_on_c, 9, 51, 0
4, 51015, Note_on_c, 9, 51, 87
4, 51086, Note_on_c, 9, 51, 0
4, 51137, Note_on_c, 9, 51, 82
4, 51198, Note_on_c, 9, 51, 0
4, 51209, Note_on_c, 9, 40, 43
4, 51218, Note_on_c, 9, 40, 0
4, 51220, Note_on_c, 9, 51, 64
4, 51242, Note_on_c, 9, 51, 0
4, 51255, Note_on_c, 9, 51, 64
4, 51317, Note_on_c, 9, 51, 0
4, 51335, Note_on_c, 9, 51, 92
4, 51338, Note_on_c, 9, 35, 42
4, 51349, Note_on_c, 9, 35, 0
4, 51379, Note_on_c, 9, 35, 39
4, 51408, Note_on_c, 9, 35, 0
4, 51428, Note_on_c, 9, 51, 0
4, 51452, Note_on_c, 9, 51, 59
4, 51467, Note_on_c, 9, 51, 0
4, 51490, Note_on_c, 9, 51, 77
4, 51572, Note_on_c, 9, 51, 0
4, 51613, Note_on_c, 9, 51, 83
4, 51685, Note_on_c, 9, 51, 0
4, 51731, Note_on_c, 9, 40, 44
4, 51735, Note_on_c, 9, 51, 83
4, 51743, Note_on_c, 9, 40, 0
4, 51768, Note_on_c, 9, 40, 54
4, 51782, Note_on_c, 9, 40, 0
4, 51797, Note_on_c, 9, 51, 0
4, 51811, Note_on_c, 9, 35, 49
4, 51824, Note_on_c, 9, 35, 0
4, 51835, Note_on_c, 9, 51, 71
4, 51859, Note_on_c, 9, 51, 0
4, 51937, Note_on_c, 9, 51, 85
4, 52011, Note_on_c, 9, 51, 0
4, 52060, Note_on_c, 9, 51, 64
4, 52083, Note_on_c, 9, 51, 0
4, 52099, Note_on_c, 9, 51, 73
4, 52174, Note_on_c, 9, 51, 0
4, 52219, Note_on_c, 9, 51, 84
4, 52281, Note_on_c, 9, 51, 0
4, 52292, Note_on_c, 9, 35, 45
4, 52301, Note_on_c, 9, 35, 0
4, 52302, Note_on_c, 9, 51, 59
4, 52317, Note_on_c, 9, 51, 0
4, 52339, Note_on_c, 9, 51, 76
4, 52407, Note_on_c, 9, 51, 0
4, 52456, Note_on_c, 9, 51, 85
4, 52515, Note_on_c, 9, 51, 0
4, 52538, Note_on_c, 9, 51, 65
4, 52560, Note_on_c, 9, 51, 0
4, 52578, Note_on_c, 9, 51, 77
4, 52643, Note_on_c, 9, 51, 0
4, 52692, Note_on_c, 9, 51, 85
4, 52758, Note_on_c, 9, 51, 0
4, 52760, Note_on_c, 9, 40, 64
4, 52779, Note_on_c, 9, 40, 0
4, 52804, Note_on_c, 9, 35, 33
4, 52812, Note_on_c, 9, 51, 85
4, 52819, Note_on_c, 9, 35, 0
4, 52871, Note_on_c, 9, 51, 0
4, 52881, Note_on_c, 9, 40, 69
4, 52899, Note_on_c, 9, 40, 0
4, 52929, Note_on_c, 9, 51, 84
4, 52986, Note_on_c, 9, 51, 0
4, 53006, Note_on_c, 9, 35, 49
4, 53013, Note_on_c, 9, 51, 48
4, 53015, Note_on_c, 9, 35, 0
4, 53031, Note_on_c, 9, 51, 0
4, 53046, Note_on_c, 9, 51, 68
4, 53046, Note_on_c, 9, 35, 40
4, 53092, Note_on_c, 9, 35, 0
4, 53122, Note_on_c, 9, 35, 44
4, 53124, Note_on_c, 9, 51, 0
4, 53139, Note_on_c, 9, 35, 0
4, 53168, Note_on_c, 9, 51, 85
4, 53237, Note_on_c, 9, 51, 0
4, 53288, Note_on_c, 9, 51, 80
4, 53356, Note_on_c, 9, 51, 0
4, 53371, Note_on_c, 9, 35, 35
4, 53382, Note_on_c, 9, 35, 0
4, 53410, Note_on_c, 9, 40, 36
4, 53413, Note_on_c, 9, 51, 88
4, 53467, Note_on_c, 9, 40, 0
4, 53469, Note_on_c, 9, 51, 0
4, 53486, Note_on_c, 9, 40, 47
4, 53495, Note_on_c, 9, 40, 0
4, 53510, Note_on_c, 9, 51, 40
4, 53521, Note_on_c, 9, 51, 0
4, 53538, Note_on_c, 9, 51, 71
4, 53562, Note_on_c, 9, 51, 0
4, 53611, Note_on_c, 9, 51, 94
4, 53611, Note_on_c, 9, 35, 45
4, 53620, Note_on_c, 9, 35, 0
4, 53699, Note_on_c, 9, 51, 0
4, 53734, Note_on_c, 9, 51, 37
4, 53734, Note_on_c, 9, 40, 61
4, 53745, Note_on_c, 9, 40, 0
4, 53746, Note_on_c, 9, 51, 0
4, 53772, Note_on_c, 9, 51, 77
4, 53781, Note_on_c, 9, 35, 34
4, 53831, Note_on_c, 9, 35, 0
4, 53839, Note_on_c, 9, 51, 0
4, 53853, Note_on_c, 9, 35, 55
4, 53865, Note_on_c, 9, 35, 0
4, 53957, Note_on_c, 9, 51, 90
4, 54029, Note_on_c, 9, 51, 0
4, 54093, Note_on_c, 9, 51, 52
4, 54104, Note_on_c, 9, 51, 0
4, 54141, Note_on_c, 9, 51, 80
4, 54184, Note_on_c, 9, 51, 0
4, 54203, Note_on_c, 9, 40, 60
4, 54217, Note_on_c, 9, 51, 57
4, 54222, Note_on_c, 9, 40, 0
4, 54232, Note_on_c, 9, 51, 0
4, 54256, Note_on_c, 9, 51, 71
4, 54278, Note_on_c, 9, 40, 70
4, 54284, Note_on_c, 9, 51, 0
4, 54309, Note_on_c, 9, 40, 0
4, 54331, Note_on_c, 9, 51, 85
4, 54356, Note_on_c, 9, 51, 0
4, 54360, Note_on_c, 9, 40, 71
4, 54376, Note_on_c, 9, 51, 72
4, 54409, Note_on_c, 9, 40, 0
4, 54417, Note_on_c, 9, 51, 0
4, 54445, Note_on_c, 9, 35, 62
4, 54488, Note_on_c, 9, 35, 0
4, 54490, Note_on_c, 9, 51, 85
4, 54526, Note_on_c, 9, 35, 73
4, 54540, Note_on_c, 9, 51, 0
4, 54581, Note_on_c, 9, 35, 0
4, 54615, Note_on_c, 9, 35, 78
4, 54661, Note_on_c, 9, 35, 0
4, 54683, Note_on_c, 9, 51, 86
4, 54697, Note_on_c, 9, 35, 84
4, 54710, Note_on_c, 9, 51, 0
4, 54731, Note_on_c, 9, 51, 69
4, 54741, Note_on_c, 9, 35, 0
4, 54760, Note_on_c, 9, 51, 0
4, 54923, Note_on_c, 9, 51, 79
4, 54945, Note_on_c, 9, 51, 0
4, 54970, Note_on_c, 9, 51, 75
4, 55015, Note_on_c, 9, 51, 0
4, 55045, Note_on_c, 9, 51, 72
4, 55053, Note_on_c, 9, 57, 57
4, 55056, Note_on_c, 9, 40, 54
4, 55061, Note_on_c, 9, 57, 0
4, 55065, Note_on_c, 9, 40, 0
4, 55077, Note_on_c, 9, 51, 0
4, 55170, Note_on_c, 9, 51, 88
4, 55210, Note_on_c, 9, 51, 0
4, 55286, Note_on_c, 9, 40, 64
4, 55294, Note_on_c, 9, 51, 55
4, 55299, Note_on_c, 9, 40, 0
4, 55306, Note_on_c, 9, 51, 0
4, 55339, Note_on_c, 9, 51, 67
4, 55369, Note_on_c, 9, 40, 71
4, 55375, Note_on_c, 9, 51, 0
4, 55402, Note_on_c, 9, 40, 0
4, 55416, Note_on_c, 9, 51, 67
4, 55430, Note_on_c, 9, 51, 0
4, 55450, Note_on_c, 9, 40, 75
4, 55458, Note_on_c, 9, 51, 68
4, 55488, Note_on_c, 9, 51, 0
4, 55495, Note_on_c, 9, 40, 0
4, 55523, Note_on_c, 9, 35, 60
4, 55532, Note_on_c, 9, 51, 88
4, 55533, Note_on_c, 9, 35, 0
4, 55576, Note_on_c, 9, 51, 0
4, 55657, Note_on_c, 9, 51, 58
4, 55669, Note_on_c, 9, 51, 0
4, 55679, Note_on_c, 9, 40, 50
4, 55685, Note_on_c, 9, 35, 45
4, 55700, Note_on_c, 9, 51, 70
4, 55727, Note_on_c, 9, 51, 0
4, 55743, Note_on_c, 9, 40, 0
4, 55751, Note_on_c, 9, 35, 0
4, 55811, Note_on_c, 9, 51, 74
4, 55836, Note_on_c, 9, 51, 0
4, 55883, Note_on_c, 9, 35, 67
4, 55902, Note_on_c, 9, 35, 0
4, 55936, Note_on_c, 9, 51, 63
4, 55973, Note_on_c, 9, 51, 0
4, 56017, Note_on_c, 9, 51, 57
4, 56085, Note_on_c, 9, 51, 0
4, 56121, Note_on_c, 9, 51, 81
4, 56170, Note_on_c, 9, 51, 0
4, 56243, Note_on_c, 9, 51, 84
4, 56283, Note_on_c, 9, 37, 91
4, 56293, Note_on_c, 9, 51, 0
4, 56333, Note_on_c, 9, 37, 0
4, 56366, Note_on_c, 9, 35, 29
4, 56369, Note_on_c, 9, 51, 53
4, 56380, Note_on_c, 9, 51, 0
4, 56381, Note_on_c, 9, 35, 0
4, 56403, Note_on_c, 9, 35, 53
4, 56404, Note_on_c, 9, 51, 71
4, 56460, Note_on_c, 9, 35, 0
4, 56471, Note_on_c, 9, 51, 0
4, 56479, Note_on_c, 9, 35, 57
4, 56509, Note_on_c, 9, 35, 0
4, 56596, Note_on_c, 9, 51, 84
4, 56625, Note_on_c, 9, 51, 0
4, 56643, Note_on_c, 9, 51, 79
4, 56708, Note_on_c, 9, 51, 0
4, 56721, Note_on_c, 9, 35, 52
4, 56740, Note_on_c, 9, 35, 0
4, 56765, Note_on_c, 9, 51, 86
4, 56827, Note_on_c, 9, 51, 0
4, 56838, Note_on_c, 9, 35, 51
4, 56863, Note_on_c, 9, 35, 0
4, 56880, Note_on_c, 9, 51, 79
4, 56943, Note_on_c, 9, 51, 0
4, 56958, Note_on_c, 9, 53, 77
4, 56961, Note_on_c, 9, 35, 31
4, 56975, Note_on_c, 9, 35, 0
4, 56976, Note_on_c, 9, 53, 0
4, 57001, Note_on_c, 9, 44, 70
4, 57018, Note_on_c, 9, 44, 0
4, 57064, Note_on_c, 9, 51, 78
4, 57077, Note_on_c, 9, 44, 69
4, 57096, Note_on_c, 9, 44, 0
4, 57097, Note_on_c, 9, 51, 0
4, 57192, Note_on_c, 9, 53, 91
4, 57201, Note_on_c, 9, 35, 48
4, 57213, Note_on_c, 9, 35, 0
4, 57220, Note_on_c, 9, 53, 0
4, 57242, Note_on_c, 9, 40, 56
4, 57254, Note_on_c, 9, 40, 0
4, 57278, Note_on_c, 9, 40, 46
4, 57291, Note_on_c, 9, 40, 0
4, 57312, Note_on_c, 9, 51, 78
4, 57325, Note_on_c, 9, 35, 33
4, 57336, Note_on_c, 9, 35, 0
4, 57341, Note_on_c, 9, 51, 0
4, 57368, Note_on_c, 9, 40, 51
4, 57377, Note_on_c, 9, 40, 0
4, 57396, Note_on_c, 9, 40, 53
4, 57408, Note_on_c, 9, 40, 0
4, 57432, Note_on_c, 9, 51, 77
4, 57441, Note_on_c, 9, 35, 36
4, 57446, Note_on_c, 9, 51, 0
4, 57452, Note_on_c, 9, 35, 0
4, 57474, Note_on_c, 9, 51, 95
4, 57558, Note_on_c, 9, 51, 0
4, 57565, Note_on_c, 9, 35, 70
4, 57588, Note_on_c, 9, 51, 85
4, 57592, Note_on_c, 9, 35, 0
4, 57605, Note_on_c, 9, 35, 46
4, 57645, Note_on_c, 9, 35, 0
4, 57663, Note_on_c, 9, 51, 0
4, 57717, Note_on_c, 9, 51, 85
4, 57776, Note_on_c, 9, 51, 0
4, 57812, Note_on_c, 9, 35, 49
4, 57823, Note_on_c, 9, 35, 0
4, 57843, Note_on_c, 9, 51, 84
4, 57908, Note_on_c, 9, 51, 0
4, 57970, Note_on_c, 9, 51, 81
4, 58029, Note_on_c, 9, 51, 0
4, 58045, Note_on_c, 9, 40, 72
4, 58051, Note_on_c, 9, 51, 60
4, 58072, Note_on_c, 9, 40, 0
4, 58075, Note_on_c, 9, 51, 0
4, 58086, Note_on_c, 9, 51, 55
4, 58135, Note_on_c, 9, 51, 0
4, 58166, Note_on_c, 9, 40, 32
4, 58175, Note_on_c, 9, 40, 0
4, 58199, Note_on_c, 9, 51, 88
4, 58209, Note_on_c, 9, 40, 49
4, 58222, Note_on_c, 9, 40, 0
4, 58260, Note_on_c, 9, 51, 0
4, 58283, Note_on_c, 9, 51, 63
4, 58283, Note_on_c, 9, 35, 43
4, 58297, Note_on_c, 9, 35, 0
4, 58307, Note_on_c, 9, 51, 0
4, 58322, Note_on_c, 9, 51, 57
4, 58324, Note_on_c, 9, 35, 46
4, 58378, Note_on_c, 9, 51, 0
4, 58380, Note_on_c, 9, 35, 0
4, 58399, Note_on_c, 9, 35, 58
4, 58420, Note_on_c, 9, 35, 0
4, 58434, Note_on_c, 9, 51, 86
4, 58487, Note_on_c, 9, 51, 0
4, 58515, Note_on_c, 9, 51, 55
4, 58538, Note_on_c, 9, 51, 0
4, 58557, Note_on_c, 9, 51, 71
4, 58613, Note_on_c, 9, 51, 0
4, 58676, Note_on_c, 9, 51, 82
4, 58732, Note_on_c, 9, 51, 0
4, 58769, Note_on_c, 9, 51, 60
4, 58781, Note_on_c, 9, 51, 0
4, 58801, Note_on_c, 9, 51, 72
4, 58817, Note_on_c, 9, 40, 47
4, 58829, Note_on_c, 9, 40, 0
4, 58848, Note_on_c, 9, 51, 0
4, 58852, Note_on_c, 9, 40, 42
4, 58874, Note_on_c, 9, 40, 0
4, 58923, Note_on_c, 9, 51, 84
4, 58983, Note_on_c, 9, 51, 0
4, 59012, Note_on_c, 9, 35, 34
4, 59023, Note_on_c, 9, 35, 0
4, 59028, Note_on_c, 9, 51, 36
4, 59040, Note_on_c, 9, 51, 0
4, 59047, Note_on_c, 9, 40, 44
4, 59060, Note_on_c, 9, 51, 78
4, 59061, Note_on_c, 9, 40, 0
4, 59078, Note_on_c, 9, 40, 38
4, 59087, Note_on_c, 9, 51, 0
4, 59098, Note_on_c, 9, 40, 0
4, 59117, Note_on_c, 9, 40, 30
4, 59126, Note_on_c, 9, 40, 0
4, 59169, Note_on_c, 9, 51, 88
4, 59224, Note_on_c, 9, 51, 0
4, 59241, Note_on_c, 9, 35, 45
4, 59250, Note_on_c, 9, 51, 55
4, 59253, Note_on_c, 9, 35, 0
4, 59265, Note_on_c, 9, 51, 0
4, 59285, Note_on_c, 9, 40, 41
4, 59287, Note_on_c, 9, 51, 72
4, 59295, Note_on_c, 9, 40, 0
4, 59314, Note_on_c, 9, 40, 49
4, 59327, Note_on_c, 9, 40, 0
4, 59344, Note_on_c, 9, 40, 56
4, 59353, Note_on_c, 9, 40, 0
4, 59354, Note_on_c, 9, 51, 0
4, 59375, Note_on_c, 9, 40, 58
4, 59392, Note_on_c, 9, 40, 0
4, 59403, Note_on_c, 9, 40, 62
4, 59406, Note_on_c, 9, 51, 88
4, 59413, Note_on_c, 9, 40, 0
4, 59461, Note_on_c, 9, 35, 41
4, 59463, Note_on_c, 9, 51, 0
4, 59474, Note_on_c, 9, 35, 0
4, 59488, Note_on_c, 9, 51, 49
4, 59502, Note_on_c, 9, 51, 0
4, 59515, Note_on_c, 9, 35, 59
4, 59525, Note_on_c, 9, 51, 69
4, 59535, Note_on_c, 9, 35, 0
4, 59549, Note_on_c, 9, 35, 74
4, 59591, Note_on_c, 9, 35, 0
4, 59593, Note_on_c, 9, 51, 0
4, 59650, Note_on_c, 9, 51, 85
4, 59736, Note_on_c, 9, 51, 0
4, 59737, Note_on_c, 9, 35, 40
4, 59748, Note_on_c, 9, 35, 0
4, 59776, Note_on_c, 9, 51, 75
4, 59812, Note_on_c, 9, 40, 58
4, 59825, Note_on_c, 9, 40, 0
4, 59835, Note_on_c, 9, 51, 0
4, 59863, Note_on_c, 9, 51, 58
4, 59870, Note_on_c, 9, 35, 41
4, 59880, Note_on_c, 9, 51, 0
4, 59883, Note_on_c, 9, 35, 0
4, 59896, Note_on_c, 9, 51, 71
4, 59951, Note_on_c, 9, 51, 0
4, 59974, Note_on_c, 9, 35, 49
4, 59976, Note_on_c, 9, 51, 83
4, 59986, Note_on_c, 9, 35, 0
4, 60049, Note_on_c, 9, 40, 35
4, 60065, Note_on_c, 9, 40, 0
4, 60071, Note_on_c, 9, 51, 0
4, 60082, Note_on_c, 9, 40, 49
4, 60091, Note_on_c, 9, 40, 0
4, 60093, Note_on_c, 9, 51, 59
4, 60115, Note_on_c, 9, 51, 0
4, 60134, Note_on_c, 9, 51, 78
4, 60208, Note_on_c, 9, 51, 0
4, 60208, Note_on_c, 9, 35, 37
4, 60218, Note_on_c, 9, 35, 0
4, 60251, Note_on_c, 9, 51, 81
4, 60302, Note_on_c, 9, 40, 38
4, 60310, Note_on_c, 9, 51, 0
4, 60312, Note_on_c, 9, 40, 0
4, 60362, Note_on_c, 9, 51, 82
4, 60439, Note_on_c, 9, 35, 28
4, 60441, Note_on_c, 9, 51, 0
4, 60451, Note_on_c, 9, 35, 0
4, 60459, Note_on_c, 9, 51, 69
4, 60476, Note_on_c, 9, 51, 0
4, 60481, Note_on_c, 9, 40, 31
4, 60489, Note_on_c, 9, 51, 64
4, 60495, Note_on_c, 9, 40, 0
4, 60553, Note_on_c, 9, 35, 55
4, 60564, Note_on_c, 9, 51, 0
4, 60570, Note_on_c, 9, 35, 0
4, 60606, Note_on_c, 9, 51, 83
4, 60657, Note_on_c, 9, 40, 56
4, 60665, Note_on_c, 9, 40, 0
4, 60681, Note_on_c, 9, 51, 0
4, 60699, Note_on_c, 9, 51, 46
4, 60701, Note_on_c, 9, 35, 30
4, 60710, Note_on_c, 9, 51, 0
4, 60716, Note_on_c, 9, 35, 0
4, 60727, Note_on_c, 9, 51, 70
4, 60744, Note_on_c, 9, 40, 43
4, 60755, Note_on_c, 9, 40, 0
4, 60785, Note_on_c, 9, 40, 54
4, 60796, Note_on_c, 9, 40, 0
4, 60805, Note_on_c, 9, 51, 0
4, 60848, Note_on_c, 9, 51, 87
4, 60882, Note_on_c, 9, 40, 40
4, 60893, Note_on_c, 9, 40, 0
4, 60921, Note_on_c, 9, 40, 60
4, 60931, Note_on_c, 9, 51, 0
4, 60938, Note_on_c, 9, 40, 0
4, 60970, Note_on_c, 9, 51, 79
4, 61007, Note_on_c, 9, 40, 64
4, 61022, Note_on_c, 9, 40, 0
4, 61031, Note_on_c, 9, 51, 0
4, 61043, Note_on_c, 9, 40, 64
4, 61056, Note_on_c, 9, 53, 66
4, 61061, Note_on_c, 9, 40, 0
4, 61081, Note_on_c, 9, 35, 49
4, 61084, Note_on_c, 9, 53, 0
4, 61097, Note_on_c, 9, 35, 0
4, 61123, Note_on_c, 9, 40, 67
4, 61142, Note_on_c, 9, 40, 0
4, 61159, Note_on_c, 9, 40, 73
4, 61171, Note_on_c, 9, 51, 91
4, 61180, Note_on_c, 9, 40, 0
4, 61199, Note_on_c, 9, 35, 44
4, 61214, Note_on_c, 9, 35, 0
4, 61235, Note_on_c, 9, 51, 0
4, 61237, Note_on_c, 9, 40, 66
4, 61252, Note_on_c, 9, 40, 0
4, 61276, Note_on_c, 9, 40, 68
4, 61284, Note_on_c, 9, 40, 0
4, 61287, Note_on_c, 9, 51, 92
4, 61316, Note_on_c, 9, 40, 55
4, 61330, Note_on_c, 9, 40, 0
4, 61340, Note_on_c, 9, 51, 0
4, 61407, Note_on_c, 9, 51, 59
4, 61425, Note_on_c, 9, 51, 0
4, 61442, Note_on_c, 9, 57, 74
4, 61443, Note_on_c, 9, 35, 73
4, 61448, Note_on_c, 9, 51, 77
4, 61504, Note_on_c, 9, 51, 0
4, 61570, Note_on_c, 9, 51, 95
4, 61658, Note_on_c, 9, 51, 0
4, 61669, Note_on_c, 9, 57, 0
4, 61692, Note_on_c, 9, 51, 49
4, 61714, Note_on_c, 9, 51, 0
4, 61778, Note_on_c, 9, 51, 87
4, 61847, Note_on_c, 9, 51, 0
4, 61883, Note_on_c, 9, 35, 0
4, 61886, Note_on_c, 9, 40, 79
4, 61898, Note_on_c, 9, 51, 54
4, 61902, Note_on_c, 9, 40, 0
4, 61916, Note_on_c, 9, 51, 0
4, 61942, Note_on_c, 9, 51, 78
4, 62009, Note_on_c, 9, 40, 60
4, 62013, Note_on_c, 9, 51, 0
4, 62018, Note_on_c, 9, 40, 0
4, 62055, Note_on_c, 9, 35, 42
4, 62057, Note_on_c, 9, 51, 52
4, 62072, Note_on_c, 9, 51, 0
4, 62083, Note_on_c, 9, 35, 0
4, 62132, Note_on_c, 9, 35, 73
4, 62137, Note_on_c, 9, 51, 90
4, 62165, Note_on_c, 9, 35, 0
4, 62178, Note_on_c, 9, 35, 65
4, 62197, Note_on_c, 9, 51, 0
4, 62234, Note_on_c, 9, 35, 0
4, 62249, Note_on_c, 9, 35, 76
4, 62253, Note_on_c, 9, 51, 49
4, 62272, Note_on_c, 9, 51, 0
4, 62273, Note_on_c, 9, 35, 0
4, 62304, Note_on_c, 9, 53, 41
4, 62330, Note_on_c, 9, 53, 0
4, 62376, Note_on_c, 9, 53, 74
4, 62409, Note_on_c, 9, 53, 0
4, 62495, Note_on_c, 9, 51, 90
4, 62556, Note_on_c, 9, 51, 0
4, 62616, Note_on_c, 9, 51, 73
4, 62637, Note_on_c, 9, 51, 0
4, 62661, Note_on_c, 9, 51, 83
4, 62727, Note_on_c, 9, 51, 0
4, 62731, Note_on_c, 9, 40, 58
4, 62741, Note_on_c, 9, 40, 0
4, 62778, Note_on_c, 9, 51, 32
4, 62778, Note_on_c, 9, 35, 31
4, 62791, Note_on_c, 9, 51, 0
4, 62824, Note_on_c, 9, 35, 0
4, 62848, Note_on_c, 9, 51, 97
4, 62855, Note_on_c, 9, 35, 94
4, 62884, Note_on_c, 9, 35, 0
4, 62898, Note_on_c, 9, 51, 0
4, 62901, Note_on_c, 9, 35, 73
4, 62933, Note_on_c, 9, 35, 0
4, 62971, Note_on_c, 9, 51, 53
4, 62982, Note_on_c, 9, 51, 0
4, 63015, Note_on_c, 9, 51, 83
4, 63069, Note_on_c, 9, 51, 0
4, 63124, Note_on_c, 9, 51, 35
4, 63136, Note_on_c, 9, 51, 0
4, 63168, Note_on_c, 9, 40, 50
4, 63177, Note_on_c, 9, 40, 0
4, 63197, Note_on_c, 9, 51, 88
4, 63201, Note_on_c, 9, 40, 54
4, 63221, Note_on_c, 9, 40, 0
4, 63244, Note_on_c, 9, 51, 0
4, 63252, Note_on_c, 9, 40, 48
4, 63260, Note_on_c, 9, 40, 0
4, 63290, Note_on_c, 9, 40, 49
4, 63299, Note_on_c, 9, 40, 0
4, 63308, Note_on_c, 9, 51, 53
4, 63321, Note_on_c, 9, 51, 0
4, 63324, Note_on_c, 9, 35, 77
4, 63355, Note_on_c, 9, 51, 81
4, 63375, Note_on_c, 9, 35, 0
4, 63416, Note_on_c, 9, 51, 0
4, 63476, Note_on_c, 9, 51, 69
4, 63514, Note_on_c, 9, 51, 0
4, 63563, Note_on_c, 9, 51, 48
4, 63568, Note_on_c, 9, 40, 58
4, 63576, Note_on_c, 9, 51, 0
4, 63578, Note_on_c, 9, 40, 0
4, 63605, Note_on_c, 9, 51, 74
4, 63621, Note_on_c, 9, 40, 35
4, 63631, Note_on_c, 9, 40, 0
4, 63657, Note_on_c, 9, 51, 0
4, 63688, Note_on_c, 9, 51, 81
4, 63690, Note_on_c, 9, 40, 54
4, 63698, Note_on_c, 9, 40, 0
4, 63734, Note_on_c, 9, 51, 0
4, 63739, Note_on_c, 9, 35, 44
4, 63781, Note_on_c, 9, 35, 0
4, 63796, Note_on_c, 9, 51, 93
4, 63803, Note_on_c, 9, 35, 60
4, 63823, Note_on_c, 9, 35, 0
4, 63857, Note_on_c, 9, 51, 0
4, 63926, Note_on_c, 9, 51, 45
4, 63940, Note_on_c, 9, 51, 0
4, 63962, Note_on_c, 9, 51, 69
4, 64007, Note_on_c, 9, 51, 0
4, 64042, Note_on_c, 9, 51, 83
4, 64070, Note_on_c, 9, 51, 0
4, 64090, Note_on_c, 9, 51, 70
4, 64138, Note_on_c, 9, 51, 0
4, 64168, Note_on_c, 9, 51, 64
4, 64192, Note_on_c, 9, 51, 0
4, 64286, Note_on_c, 9, 40, 33
4, 64295, Note_on_c, 9, 40, 0
4, 64295, Note_on_c, 9, 51, 62
4, 64308, Note_on_c, 9, 51, 0
4, 64335, Note_on_c, 9, 51, 61
4, 64380, Note_on_c, 9, 51, 0
4, 64411, Note_on_c, 9, 40, 56
4, 64415, Note_on_c, 9, 51, 60
4, 64420, Note_on_c, 9, 40, 0
4, 64426, Note_on_c, 9, 51, 0
4, 64453, Note_on_c, 9, 51, 57
4, 64475, Note_on_c, 9, 51, 0
4, 64532, Note_on_c, 9, 51, 91
4, 64535, Note_on_c, 9, 35, 53
4, 64550, Note_on_c, 9, 35, 0
4, 64573, Note_on_c, 9, 35, 45
4, 64627, Note_on_c, 9, 35, 0
4, 64628, Note_on_c, 9, 51, 0
4, 64650, Note_on_c, 9, 35, 36
4, 64652, Note_on_c, 9, 51, 47
4, 64663, Note_on_c, 9, 51, 0
4, 64668, Note_on_c, 9, 35, 0
4, 64695, Note_on_c, 9, 51, 67
4, 64735, Note_on_c, 9, 51, 0
4, 64769, Note_on_c, 9, 51, 85
4, 64854, Note_on_c, 9, 51, 0
4, 64895, Note_on_c, 9, 51, 67
4, 64914, Note_on_c, 9, 51, 0
4, 64940, Note_on_c, 9, 51, 69
4, 64978, Note_on_c, 9, 51, 0
4, 65016, Note_on_c, 9, 40, 58
4, 65017, Note_on_c, 9, 51, 82
4, 65024, Note_on_c, 9, 40, 0
4, 65054, Note_on_c, 9, 51, 0
4, 65139, Note_on_c, 9, 51, 91
4, 65141, Note_on_c, 9, 40, 66
4, 65155, Note_on_c, 9, 40, 0
4, 65179, Note_on_c, 9, 51, 0
4, 65185, Note_on_c, 9, 59, 103
4, 65296, Note_on_c, 9, 57, 72
4, 65298, Note_on_c, 9, 35, 64
4, 65370, Note_on_c, 9, 59, 0
4, 65391, Note_on_c, 9, 59, 52
4, 65403, Note_on_c, 9, 59, 0
4, 65423, Note_on_c, 9, 59, 77
4, 65434, Note_on_c, 9, 57, 0
4, 65492, Note_on_c, 9, 59, 0
4, 65539, Note_on_c, 9, 59, 87
4, 65610, Note_on_c, 9, 59, 0
4, 65648, Note_on_c, 9, 35, 0
4, 65661, Note_on_c, 9, 59, 81
4, 65717, Note_on_c, 9, 59, 0
4, 65737, Note_on_c, 9, 40, 60
4, 65743, Note_on_c, 9, 59, 54
4, 65748, Note_on_c, 9, 40, 0
4, 65756, Note_on_c, 9, 59, 0
4, 65778, Note_on_c, 9, 59, 76
4, 65779, Note_on_c, 9, 40, 38
4, 65833, Note_on_c, 9, 59, 0
4, 65840, Note_on_c, 9, 40, 0
4, 65863, Note_on_c, 9, 35, 48
4, 65882, Note_on_c, 9, 35, 0
4, 65895, Note_on_c, 9, 59, 91
4, 65907, Note_on_c, 9, 35, 45
4, 65959, Note_on_c, 9, 35, 0
4, 65973, Note_on_c, 9, 59, 0
4, 65975, Note_on_c, 9, 35, 64
4, 66003, Note_on_c, 9, 35, 0
4, 66022, Note_on_c, 9, 59, 85
4, 66077, Note_on_c, 9, 59, 0
4, 66104, Note_on_c, 9, 59, 56
4, 66115, Note_on_c, 9, 59, 0
4, 66136, Note_on_c, 9, 59, 77
4, 66162, Note_on_c, 9, 59, 0
4, 66213, Note_on_c, 9, 59, 96
4, 66310, Note_on_c, 9, 59, 0
4, 66336, Note_on_c, 9, 59, 65
4, 66348, Note_on_c, 9, 59, 0
4, 66374, Note_on_c, 9, 40, 49
4, 66378, Note_on_c, 9, 59, 55
4, 66390, Note_on_c, 9, 59, 0
4, 66430, Note_on_c, 9, 40, 0
4, 66454, Note_on_c, 9, 59, 99
4, 66534, Note_on_c, 9, 59, 0
4, 66569, Note_on_c, 9, 59, 52
4, 66569, Note_on_c, 9, 40, 33
4, 66578, Note_on_c, 9, 40, 0
4, 66583, Note_on_c, 9, 59, 0
4, 66600, Note_on_c, 9, 35, 32
4, 66614, Note_on_c, 9, 59, 58
4, 66616, Note_on_c, 9, 35, 0
4, 66629, Note_on_c, 9, 59, 0
4, 66683, Note_on_c, 9, 59, 99
4, 66685, Note_on_c, 9, 35, 42
4, 66696, Note_on_c, 9, 35, 0
4, 66762, Note_on_c, 9, 59, 0
4, 66801, Note_on_c, 9, 59, 46
4, 66814, Note_on_c, 9, 59, 0
4, 66918, Note_on_c, 9, 59, 89
4, 66919, Note_on_c, 9, 40, 57
4, 66930, Note_on_c, 9, 40, 0
4, 66976, Note_on_c, 9, 59, 0
4, 67039, Note_on_c, 9, 59, 92
4, 67039, Note_on_c, 9, 35, 51
4, 67064, Note_on_c, 9, 35, 0
4, 67084, Note_on_c, 9, 59, 0
4, 67087, Note_on_c, 9, 35, 22
4, 67134, Note_on_c, 9, 35, 0
4, 67157, Note_on_c, 9, 35, 49
4, 67164, Note_on_c, 9, 59, 71
4, 67175, Note_on_c, 9, 59, 0
4, 67175, Note_on_c, 9, 35, 0
4, 67204, Note_on_c, 9, 59, 84
4, 67265, Note_on_c, 9, 59, 0
4, 67329, Note_on_c, 9, 59, 94
4, 67388, Note_on_c, 9, 59, 0
4, 67409, Note_on_c, 9, 40, 59
4, 67422, Note_on_c, 9, 40, 0
4, 67456, Note_on_c, 9, 59, 89
4, 67466, Note_on_c, 9, 35, 17
4, 67497, Note_on_c, 9, 59, 0
4, 67502, Note_on_c, 9, 35, 0
4, 67523, Note_on_c, 9, 35, 57
4, 67533, Note_on_c, 9, 59, 71
4, 67542, Note_on_c, 9, 35, 0
4, 67559, Note_on_c, 9, 59, 0
4, 67580, Note_on_c, 9, 59, 78
4, 67608, Note_on_c, 9, 59, 0
4, 67660, Note_on_c, 9, 59, 99
4, 67697, Note_on_c, 9, 40, 47
4, 67706, Note_on_c, 9, 40, 0
4, 67737, Note_on_c, 9, 59, 0
4, 67764, Note_on_c, 9, 59, 61
4, 67770, Note_on_c, 9, 40, 51
4, 67777, Note_on_c, 9, 59, 0
4, 67779, Note_on_c, 9, 40, 0
4, 67884, Note_on_c, 9, 35, 36
4, 67887, Note_on_c, 9, 59, 96
4, 67895, Note_on_c, 9, 35, 0
4, 67941, Note_on_c, 9, 59, 0
4, 67995, Note_on_c, 9, 59, 58
4, 68008, Note_on_c, 9, 59, 0
4, 68043, Note_on_c, 9, 59, 60
4, 68054, Note_on_c, 9, 59, 0
4, 68120, Note_on_c, 9, 59, 105
4, 68120, Note_on_c, 9, 35, 47
4, 68131, Note_on_c, 9, 35, 0
4, 68164, Note_on_c, 9, 59, 0
4, 68241, Note_on_c, 9, 59, 108
4, 68243, Note_on_c, 9, 35, 29
4, 68252, Note_on_c, 9, 35, 0
4, 68360, Note_on_c, 9, 35, 68
4, 68367, Note_on_c, 9, 59, 0
4, 68381, Note_on_c, 9, 35, 0
4, 68415, Note_on_c, 9, 59, 92
4, 68419, Note_on_c, 9, 35, 80
4, 68452, Note_on_c, 9, 35, 0
4, 68475, Note_on_c, 9, 59, 0
4, 68493, Note_on_c, 9, 35, 68
4, 68501, Note_on_c, 9, 59, 68
4, 68511, Note_on_c, 9, 35, 0
4, 68512, Note_on_c, 9, 59, 0
4, 68605, Note_on_c, 9, 35, 64
4, 68614, Note_on_c, 9, 59, 99
4, 68626, Note_on_c, 9, 35, 0
4, 68660, Note_on_c, 9, 35, 64
4, 68676, Note_on_c, 9, 59, 0
4, 68685, Note_on_c, 9, 35, 0
4, 68736, Note_on_c, 9, 59, 58
4, 68748, Note_on_c, 9, 59, 0
4, 68854, Note_on_c, 9, 59, 103
4, 68877, Note_on_c, 9, 35, 76
4, 68881, Note_on_c, 9, 40, 66
4, 68882, Note_on_c, 9, 57, 77
4, 68913, Note_on_c, 9, 59, 0
4, 68966, Note_on_c, 9, 59, 55
4, 68978, Note_on_c, 9, 59, 0
4, 69074, Note_on_c, 9, 57, 0
4, 69128, Note_on_c, 9, 35, 0
4, 69129, Note_on_c, 9, 40, 0
4, 69129, End_track
0, 0, End_of_file
