0, 0, Header, 1, 2, 120
1, 0, Start_track
1, 0, Title_t, "untitled"
1, 0, Copyright_t, "Copyright © 1999 by Doug McKenzie"
1, 0, Text_t, "Doug McKenzie\012"
1, 0, Time_signature, 4, 2, 24, 8
1, 0, Key_signature, 0, "major"
1, 0, Tempo, 666667
1, 0, End_track
2, 0, Start_track
2, 0, MIDI_port, 0
2, 0, Title_t, ""
2, 0, Note_on_c, 0, 59, 55
2, 0, Note_on_c, 0, 59, 0
2, 24, Note_on_c, 0, 60, 71
2, 39, Note_on_c, 0, 60, 0
2, 60, Note_on_c, 0, 62, 69
2, 61, Control_c, 0, 64, 127
2, 192, Note_on_c, 0, 53, 32
2, 194, Note_on_c, 0, 60, 37
2, 194, Note_on_c, 0, 57, 34
2, 195, Note_on_c, 0, 43, 32
2, 198, Note_on_c, 0, 50, 34
2, 205, Control_c, 0, 64, 0
2, 223, Control_c, 0, 64, 127
2, 279, Note_on_c, 0, 53, 0
2, 296, Note_on_c, 0, 57, 0
2, 297, Note_on_c, 0, 60, 0
2, 300, Note_on_c, 0, 62, 0
2, 406, Note_on_c, 0, 43, 0
2, 408, Note_on_c, 0, 62, 67
2, 426, Note_on_c, 0, 62, 0
2, 426, Note_on_c, 0, 50, 0
2, 439, Note_on_c, 0, 60, 54
2, 446, Note_on_c, 0, 60, 0
2, 479, Note_on_c, 0, 62, 74
2, 494, Control_c, 0, 64, 0
2, 500, Control_c, 0, 64, 127
2, 670, Note_on_c, 0, 53, 31
2, 671, Note_on_c, 0, 56, 29
2, 671, Note_on_c, 0, 60, 44
2, 672, Note_on_c, 0, 43, 30
2, 676, Note_on_c, 0, 50, 33
2, 680, Control_c, 0, 64, 0
2, 714, Control_c, 0, 64, 127
2, 759, Note_on_c, 0, 53, 0
2, 770, Note_on_c, 0, 56, 0
2, 775, Note_on_c, 0, 60, 0
2, 790, Note_on_c, 0, 62, 0
2, 816, Note_on_c, 0, 50, 0
2, 824, Note_on_c, 0, 43, 0
2, 880, Note_on_c, 0, 60, 48
2, 894, Note_on_c, 0, 60, 0
2, 910, Note_on_c, 0, 67, 70
2, 928, Note_on_c, 0, 67, 0
2, 947, Note_on_c, 0, 67, 69
2, 951, Note_on_c, 0, 43, 40
2, 952, Note_on_c, 0, 36, 56
2, 960, Control_c, 0, 64, 0
2, 987, Control_c, 0, 64, 127
2, 1017, Note_on_c, 0, 64, 66
2, 1020, Note_on_c, 0, 36, 0
2, 1021, Note_on_c, 0, 67, 0
2, 1031, Note_on_c, 0, 43, 0
2, 1031, Note_on_c, 0, 64, 0
2, 1081, Note_on_c, 0, 79, 94
2, 1117, Note_on_c, 0, 79, 0
2, 1141, Note_on_c, 0, 71, 47
2, 1145, Note_on_c, 0, 67, 47
2, 1152, Note_on_c, 0, 64, 37
2, 1198, Note_on_c, 0, 67, 0
2, 1203, Note_on_c, 0, 71, 0
2, 1206, Note_on_c, 0, 76, 60
2, 1221, Note_on_c, 0, 76, 0
2, 1268, Note_on_c, 0, 86, 87
2, 1328, Note_on_c, 0, 79, 36
2, 1353, Note_on_c, 0, 64, 0
2, 1356, Note_on_c, 0, 79, 0
2, 1386, Note_on_c, 0, 86, 0
2, 1389, Note_on_c, 0, 79, 40
2, 1414, Note_on_c, 0, 79, 0
2, 1450, Note_on_c, 0, 79, 35
2, 1504, Note_on_c, 0, 79, 0
2, 1508, Note_on_c, 0, 84, 51
2, 1511, Note_on_c, 0, 61, 32
2, 1511, Note_on_c, 0, 55, 35
2, 1512, Note_on_c, 0, 72, 34
2, 1512, Note_on_c, 0, 65, 20
2, 1515, Note_on_c, 0, 60, 32
2, 1536, Control_c, 0, 64, 0
2, 1539, Control_c, 0, 64, 127
2, 1646, Note_on_c, 0, 60, 0
2, 1646, Note_on_c, 0, 61, 0
2, 1650, Note_on_c, 0, 65, 0
2, 1652, Note_on_c, 0, 55, 0
2, 1695, Note_on_c, 0, 65, 50
2, 1697, Note_on_c, 0, 61, 40
2, 1700, Note_on_c, 0, 60, 37
2, 1702, Note_on_c, 0, 55, 36
2, 1793, Note_on_c, 0, 60, 0
2, 1794, Note_on_c, 0, 65, 0
2, 1798, Note_on_c, 0, 84, 0
2, 1803, Note_on_c, 0, 61, 0
2, 1808, Note_on_c, 0, 55, 0
2, 1813, Note_on_c, 0, 72, 0
2, 1928, Note_on_c, 0, 69, 44
2, 1929, Note_on_c, 0, 65, 35
2, 1932, Note_on_c, 0, 60, 24
2, 1932, Note_on_c, 0, 57, 36
2, 1934, Note_on_c, 0, 50, 33
2, 1936, Control_c, 0, 64, 0
2, 1964, Control_c, 0, 64, 127
2, 1988, Note_on_c, 0, 74, 54
2, 2004, Note_on_c, 0, 65, 0
2, 2008, Note_on_c, 0, 69, 0
2, 2013, Note_on_c, 0, 74, 0
2, 2045, Note_on_c, 0, 74, 88
2, 2077, Note_on_c, 0, 74, 0
2, 2104, Note_on_c, 0, 74, 82
2, 2130, Note_on_c, 0, 74, 0
2, 2167, Note_on_c, 0, 74, 60
2, 2182, Note_on_c, 0, 74, 0
2, 2192, Note_on_c, 0, 57, 0
2, 2195, Note_on_c, 0, 50, 0
2, 2206, Note_on_c, 0, 60, 0
2, 2216, Control_c, 0, 64, 0
2, 2229, Note_on_c, 0, 74, 47
2, 2235, Note_on_c, 0, 74, 0
2, 2290, Note_on_c, 0, 74, 54
2, 2297, Note_on_c, 0, 74, 0
2, 2350, Note_on_c, 0, 74, 74
2, 2351, Note_on_c, 0, 65, 53
2, 2352, Note_on_c, 0, 55, 47
2, 2353, Note_on_c, 0, 60, 48
2, 2357, Note_on_c, 0, 57, 36
2, 2375, Control_c, 0, 64, 127
2, 2447, Note_on_c, 0, 74, 0
2, 2473, Note_on_c, 0, 74, 30
2, 2490, Note_on_c, 0, 74, 0
2, 2501, Control_c, 0, 64, 0
2, 2526, Note_on_c, 0, 74, 41
2, 2548, Note_on_c, 0, 74, 0
2, 2556, Note_on_c, 0, 74, 50
2, 2570, Note_on_c, 0, 74, 0
2, 2581, Note_on_c, 0, 74, 91
2, 2615, Control_c, 0, 64, 127
2, 2624, Note_on_c, 0, 74, 0
2, 2634, Note_on_c, 0, 60, 0
2, 2635, Note_on_c, 0, 65, 0
2, 2642, Note_on_c, 0, 55, 0
2, 2642, Control_c, 0, 64, 0
2, 2646, Note_on_c, 0, 74, 39
2, 2650, Note_on_c, 0, 57, 0
2, 2662, Note_on_c, 0, 74, 0
2, 2676, Note_on_c, 0, 74, 66
2, 2697, Note_on_c, 0, 74, 0
2, 2707, Note_on_c, 0, 74, 80
2, 2727, Control_c, 0, 64, 127
2, 2743, Note_on_c, 0, 74, 0
2, 2758, Control_c, 0, 64, 0
2, 2763, Note_on_c, 0, 74, 74
2, 2764, Note_on_c, 0, 64, 57
2, 2765, Note_on_c, 0, 59, 56
2, 2766, Note_on_c, 0, 53, 47
2, 2778, Control_c, 0, 64, 127
2, 2813, Note_on_c, 0, 74, 0
2, 2826, Note_on_c, 0, 74, 75
2, 2828, Note_on_c, 0, 59, 0
2, 2830, Note_on_c, 0, 64, 0
2, 2844, Note_on_c, 0, 53, 0
2, 2845, Note_on_c, 0, 74, 0
2, 2882, Note_on_c, 0, 71, 56
2, 2883, Note_on_c, 0, 76, 58
2, 2883, Note_on_c, 0, 62, 54
2, 2885, Note_on_c, 0, 67, 65
2, 2886, Note_on_c, 0, 59, 47
2, 2887, Note_on_c, 0, 52, 57
2, 2888, Control_c, 0, 64, 0
2, 2920, Control_c, 0, 64, 127
2, 2939, Note_on_c, 0, 67, 0
2, 2954, Note_on_c, 0, 67, 61
2, 2959, Note_on_c, 0, 76, 0
2, 2959, Note_on_c, 0, 71, 0
2, 2963, Note_on_c, 0, 62, 0
2, 2968, Note_on_c, 0, 67, 0
2, 2972, Note_on_c, 0, 59, 0
2, 2992, Note_on_c, 0, 52, 0
2, 3068, Note_on_c, 0, 67, 44
2, 3068, Note_on_c, 0, 62, 53
2, 3068, Note_on_c, 0, 57, 50
2, 3071, Note_on_c, 0, 52, 43
2, 3075, Control_c, 0, 64, 0
2, 3114, Note_on_c, 0, 67, 0
2, 3121, Note_on_c, 0, 52, 0
2, 3125, Note_on_c, 0, 51, 44
2, 3126, Note_on_c, 0, 62, 0
2, 3158, Note_on_c, 0, 57, 0
2, 3186, Note_on_c, 0, 62, 54
2, 3187, Control_c, 0, 64, 127
2, 3189, Note_on_c, 0, 57, 57
2, 3189, Note_on_c, 0, 52, 53
2, 3189, Note_on_c, 0, 67, 38
2, 3202, Note_on_c, 0, 52, 0
2, 3203, Note_on_c, 0, 51, 0
2, 3231, Note_on_c, 0, 57, 0
2, 3237, Note_on_c, 0, 62, 0
2, 3242, Note_on_c, 0, 67, 0
2, 3302, Note_on_c, 0, 42, 40
2, 3302, Note_on_c, 0, 75, 62
2, 3303, Note_on_c, 0, 68, 59
2, 3304, Note_on_c, 0, 30, 45
2, 3305, Control_c, 0, 64, 0
2, 3305, Note_on_c, 0, 64, 53
2, 3306, Note_on_c, 0, 72, 54
2, 3328, Control_c, 0, 64, 127
2, 3333, Note_on_c, 0, 30, 0
2, 3335, Note_on_c, 0, 64, 0
2, 3342, Note_on_c, 0, 42, 0
2, 3343, Note_on_c, 0, 68, 0
2, 3344, Note_on_c, 0, 72, 0
2, 3351, Note_on_c, 0, 75, 0
2, 3416, Note_on_c, 0, 80, 32
2, 3417, Note_on_c, 0, 87, 50
2, 3421, Note_on_c, 0, 58, 37
2, 3445, Note_on_c, 0, 80, 0
2, 3464, Note_on_c, 0, 87, 0
2, 3474, Note_on_c, 0, 76, 33
2, 3478, Note_on_c, 0, 84, 35
2, 3478, Note_on_c, 0, 80, 36
2, 3479, Note_on_c, 0, 64, 36
2, 3530, Note_on_c, 0, 84, 0
2, 3574, Note_on_c, 0, 76, 0
2, 3578, Note_on_c, 0, 80, 0
2, 3583, Note_on_c, 0, 64, 0
2, 3607, Note_on_c, 0, 58, 0
2, 3778, Note_on_c, 0, 63, 34
2, 3779, Note_on_c, 0, 56, 34
2, 3782, Note_on_c, 0, 42, 31
2, 3782, Note_on_c, 0, 52, 24
2, 3787, Note_on_c, 0, 49, 25
2, 3789, Note_on_c, 0, 60, 29
2, 3798, Note_on_c, 0, 60, 0
2, 3802, Note_on_c, 0, 52, 0
2, 3823, Note_on_c, 0, 63, 0
2, 3826, Note_on_c, 0, 56, 0
2, 3832, Note_on_c, 0, 42, 0
2, 3839, Control_c, 0, 64, 0
2, 3840, Note_on_c, 0, 49, 0
2, 3845, Note_on_c, 0, 60, 33
2, 3846, Note_on_c, 0, 57, 40
2, 3847, Note_on_c, 0, 55, 24
2, 3847, Note_on_c, 0, 48, 39
2, 3848, Note_on_c, 0, 41, 40
2, 3860, Control_c, 0, 64, 127
2, 3895, Note_on_c, 0, 55, 0
2, 3902, Note_on_c, 0, 57, 0
2, 3912, Note_on_c, 0, 60, 0
2, 3947, Note_on_c, 0, 48, 0
2, 4021, Note_on_c, 0, 48, 44
2, 4083, Note_on_c, 0, 57, 63
2, 4084, Note_on_c, 0, 69, 87
2, 4084, Note_on_c, 0, 64, 91
2, 4142, Note_on_c, 0, 69, 0
2, 4166, Note_on_c, 0, 69, 77
2, 4196, Note_on_c, 0, 57, 0
2, 4205, Note_on_c, 0, 69, 0
2, 4237, Note_on_c, 0, 41, 0
2, 4244, Note_on_c, 0, 69, 68
2, 4254, Note_on_c, 0, 64, 0
2, 4274, Note_on_c, 0, 69, 0
2, 4310, Note_on_c, 0, 48, 0
2, 4315, Note_on_c, 0, 69, 71
2, 4318, Note_on_c, 0, 41, 49
2, 4318, Note_on_c, 0, 62, 70
2, 4322, Note_on_c, 0, 59, 52
2, 4323, Control_c, 0, 64, 0
2, 4355, Control_c, 0, 64, 127
2, 4386, Note_on_c, 0, 50, 55
2, 4416, Note_on_c, 0, 59, 0
2, 4431, Note_on_c, 0, 62, 0
2, 4449, Note_on_c, 0, 59, 64
2, 4450, Note_on_c, 0, 62, 74
2, 4465, Note_on_c, 0, 69, 0
2, 4469, Note_on_c, 0, 59, 0
2, 4479, Note_on_c, 0, 62, 0
2, 4517, Note_on_c, 0, 74, 85
2, 4518, Note_on_c, 0, 67, 91
2, 4565, Note_on_c, 0, 74, 0
2, 4578, Note_on_c, 0, 67, 0
2, 4593, Note_on_c, 0, 71, 62
2, 4598, Note_on_c, 0, 62, 66
2, 4600, Note_on_c, 0, 67, 28
2, 4607, Note_on_c, 0, 55, 20
2, 4609, Note_on_c, 0, 67, 0
2, 4617, Note_on_c, 0, 71, 0
2, 4630, Note_on_c, 0, 62, 0
2, 4631, Note_on_c, 0, 55, 0
2, 4675, Note_on_c, 0, 62, 39
2, 4676, Note_on_c, 0, 67, 42
2, 4677, Note_on_c, 0, 55, 31
2, 4677, Note_on_c, 0, 59, 46
2, 4692, Note_on_c, 0, 50, 0
2, 4699, Note_on_c, 0, 55, 0
2, 4706, Note_on_c, 0, 41, 0
2, 4720, Note_on_c, 0, 62, 0
2, 4731, Note_on_c, 0, 59, 0
2, 4744, Note_on_c, 0, 41, 19
2, 4748, Note_on_c, 0, 67, 0
2, 4758, Note_on_c, 0, 41, 0
2, 4798, Note_on_c, 0, 67, 44
2, 4798, Note_on_c, 0, 62, 40
2, 4799, Note_on_c, 0, 55, 38
2, 4800, Note_on_c, 0, 59, 44
2, 4801, Note_on_c, 0, 50, 34
2, 4802, Note_on_c, 0, 40, 45
2, 4807, Control_c, 0, 64, 0
2, 4835, Control_c, 0, 64, 127
2, 4854, Note_on_c, 0, 55, 0
2, 4860, Note_on_c, 0, 59, 0
2, 4862, Note_on_c, 0, 62, 0
2, 4876, Note_on_c, 0, 67, 0
2, 4886, Note_on_c, 0, 50, 0
2, 4895, Note_on_c, 0, 47, 22
2, 4898, Note_on_c, 0, 40, 0
2, 4906, Note_on_c, 0, 47, 0
2, 4978, Note_on_c, 0, 79, 41
2, 4980, Note_on_c, 0, 71, 38
2, 4982, Note_on_c, 0, 74, 39
2, 4982, Note_on_c, 0, 67, 35
2, 4987, Note_on_c, 0, 62, 29
2, 4989, Note_on_c, 0, 55, 29
2, 4991, Note_on_c, 0, 59, 15
2, 5035, Note_on_c, 0, 79, 0
2, 5054, Note_on_c, 0, 79, 54
2, 5090, Note_on_c, 0, 62, 0
2, 5093, Note_on_c, 0, 59, 0
2, 5102, Note_on_c, 0, 55, 0
2, 5216, Control_c, 0, 64, 0
2, 5219, Note_on_c, 0, 45, 54
2, 5225, Note_on_c, 0, 45, 0
2, 5227, Control_c, 0, 64, 127
2, 5276, Note_on_c, 0, 67, 0
2, 5285, Note_on_c, 0, 65, 43
2, 5286, Note_on_c, 0, 55, 41
2, 5287, Note_on_c, 0, 60, 24
2, 5288, Note_on_c, 0, 61, 32
2, 5291, Note_on_c, 0, 71, 0
2, 5302, Note_on_c, 0, 74, 0
2, 5349, Note_on_c, 0, 79, 0
2, 5433, Note_on_c, 0, 55, 0
2, 5435, Note_on_c, 0, 60, 0
2, 5439, Note_on_c, 0, 65, 0
2, 5445, Note_on_c, 0, 61, 0
2, 5471, Note_on_c, 0, 65, 43
2, 5473, Note_on_c, 0, 61, 28
2, 5474, Note_on_c, 0, 60, 33
2, 5478, Note_on_c, 0, 55, 30
2, 5533, Note_on_c, 0, 74, 118
2, 5576, Note_on_c, 0, 74, 0
2, 5591, Note_on_c, 0, 74, 77
2, 5617, Note_on_c, 0, 65, 0
2, 5623, Note_on_c, 0, 60, 0
2, 5628, Note_on_c, 0, 74, 0
2, 5631, Note_on_c, 0, 61, 0
2, 5646, Note_on_c, 0, 76, 66
2, 5650, Note_on_c, 0, 74, 44
2, 5655, Note_on_c, 0, 55, 0
2, 5667, Note_on_c, 0, 74, 0
2, 5671, Note_on_c, 0, 76, 0
2, 5707, Note_on_c, 0, 76, 64
2, 5735, Note_on_c, 0, 76, 0
2, 5765, Note_on_c, 0, 77, 64
2, 5768, Note_on_c, 0, 64, 52
2, 5769, Note_on_c, 0, 69, 57
2, 5770, Note_on_c, 0, 72, 59
2, 5770, Control_c, 0, 64, 0
2, 5819, Control_c, 0, 64, 127
2, 5828, Note_on_c, 0, 64, 0
2, 5831, Note_on_c, 0, 63, 32
2, 5843, Note_on_c, 0, 72, 0
2, 5848, Note_on_c, 0, 69, 0
2, 5851, Note_on_c, 0, 77, 0
2, 5880, Control_c, 0, 64, 0
2, 5888, Note_on_c, 0, 63, 0
2, 5890, Note_on_c, 0, 77, 37
2, 5891, Note_on_c, 0, 69, 38
2, 5893, Note_on_c, 0, 62, 37
2, 5893, Note_on_c, 0, 72, 34
2, 5919, Control_c, 0, 64, 127
2, 5951, Note_on_c, 0, 62, 0
2, 5952, Note_on_c, 0, 61, 31
2, 5956, Note_on_c, 0, 72, 0
2, 5960, Note_on_c, 0, 77, 0
2, 5963, Note_on_c, 0, 69, 0
2, 6005, Control_c, 0, 64, 0
2, 6008, Note_on_c, 0, 61, 0
2, 6009, Note_on_c, 0, 77, 36
2, 6011, Note_on_c, 0, 69, 32
2, 6013, Note_on_c, 0, 72, 36
2, 6014, Note_on_c, 0, 60, 36
2, 6031, Control_c, 0, 64, 127
2, 6070, Note_on_c, 0, 50, 56
2, 6109, Note_on_c, 0, 72, 0
2, 6109, Note_on_c, 0, 77, 0
2, 6120, Note_on_c, 0, 69, 0
2, 6143, Note_on_c, 0, 60, 0
2, 6182, Note_on_c, 0, 69, 49
2, 6185, Note_on_c, 0, 65, 46
2, 6187, Note_on_c, 0, 57, 39
2, 6188, Note_on_c, 0, 60, 30
2, 6225, Note_on_c, 0, 60, 0
2, 6232, Note_on_c, 0, 65, 0
2, 6237, Note_on_c, 0, 69, 0
2, 6264, Note_on_c, 0, 50, 0
2, 6298, Note_on_c, 0, 77, 72
2, 6299, Note_on_c, 0, 69, 79
2, 6302, Note_on_c, 0, 50, 45
2, 6308, Note_on_c, 0, 57, 0
2, 6329, Note_on_c, 0, 69, 0
2, 6331, Note_on_c, 0, 77, 0
2, 6360, Note_on_c, 0, 76, 67
2, 6361, Note_on_c, 0, 67, 68
2, 6365, Note_on_c, 0, 60, 32
2, 6370, Note_on_c, 0, 57, 26
2, 6406, Note_on_c, 0, 76, 0
2, 6408, Note_on_c, 0, 50, 0
2, 6414, Note_on_c, 0, 67, 0
2, 6434, Note_on_c, 0, 74, 63
2, 6434, Note_on_c, 0, 50, 50
2, 6435, Note_on_c, 0, 65, 71
2, 6469, Note_on_c, 0, 60, 0
2, 6482, Note_on_c, 0, 74, 0
2, 6483, Note_on_c, 0, 57, 0
2, 6494, Note_on_c, 0, 65, 0
2, 6548, Note_on_c, 0, 64, 59
2, 6549, Note_on_c, 0, 72, 51
2, 6549, Note_on_c, 0, 57, 34
2, 6553, Note_on_c, 0, 60, 26
2, 6585, Note_on_c, 0, 60, 0
2, 6587, Note_on_c, 0, 50, 0
2, 6615, Note_on_c, 0, 72, 0
2, 6617, Note_on_c, 0, 64, 0
2, 6637, Note_on_c, 0, 57, 0
2, 6664, Note_on_c, 0, 74, 64
2, 6665, Note_on_c, 0, 65, 73
2, 6716, Control_c, 0, 64, 0
2, 6721, Note_on_c, 0, 46, 42
2, 6736, Control_c, 0, 64, 127
2, 6767, Note_on_c, 0, 65, 0
2, 6789, Note_on_c, 0, 74, 0
2, 6789, Note_on_c, 0, 53, 29
2, 6832, Note_on_c, 0, 53, 0
2, 6857, Note_on_c, 0, 53, 20
2, 6864, Note_on_c, 0, 46, 0
2, 6904, Note_on_c, 0, 62, 44
2, 6904, Note_on_c, 0, 70, 49
2, 6905, Note_on_c, 0, 65, 48
2, 6909, Note_on_c, 0, 60, 22
2, 6974, Note_on_c, 0, 53, 0
2, 7000, Note_on_c, 0, 60, 0
2, 7018, Note_on_c, 0, 53, 37
2, 7033, Note_on_c, 0, 62, 0
2, 7060, Note_on_c, 0, 53, 0
2, 7078, Note_on_c, 0, 62, 39
2, 7079, Note_on_c, 0, 70, 0
2, 7082, Note_on_c, 0, 65, 0
2, 7095, Note_on_c, 0, 62, 0
2, 7140, Note_on_c, 0, 64, 46
2, 7142, Note_on_c, 0, 59, 39
2, 7143, Note_on_c, 0, 43, 35
2, 7143, Note_on_c, 0, 53, 30
2, 7144, Note_on_c, 0, 69, 37
2, 7157, Control_c, 0, 64, 0
2, 7182, Control_c, 0, 64, 127
2, 7210, Note_on_c, 0, 64, 0
2, 7212, Note_on_c, 0, 53, 0
2, 7226, Note_on_c, 0, 59, 0
2, 7255, Note_on_c, 0, 63, 49
2, 7255, Note_on_c, 0, 59, 29
2, 7261, Note_on_c, 0, 54, 29
2, 7294, Note_on_c, 0, 54, 0
2, 7305, Note_on_c, 0, 59, 0
2, 7310, Note_on_c, 0, 63, 0
2, 7318, Note_on_c, 0, 59, 19
2, 7319, Note_on_c, 0, 62, 44
2, 7325, Note_on_c, 0, 53, 24
2, 7326, Control_c, 0, 64, 0
2, 7355, Note_on_c, 0, 43, 0
2, 7364, Control_c, 0, 64, 127
2, 7377, Note_on_c, 0, 69, 0
2, 7384, Note_on_c, 0, 43, 54
2, 7391, Note_on_c, 0, 59, 0
2, 7393, Note_on_c, 0, 62, 0
2, 7491, Note_on_c, 0, 59, 63
2, 7505, Note_on_c, 0, 59, 0
2, 7521, Note_on_c, 0, 59, 55
2, 7536, Note_on_c, 0, 59, 0
2, 7552, Note_on_c, 0, 60, 84
2, 7563, Control_c, 0, 64, 0
2, 7566, Note_on_c, 0, 60, 0
2, 7582, Note_on_c, 0, 60, 72
2, 7597, Control_c, 0, 64, 127
2, 7599, Note_on_c, 0, 60, 0
2, 7605, Note_on_c, 0, 43, 0
2, 7608, Control_c, 0, 64, 0
2, 7613, Note_on_c, 0, 62, 74
2, 7618, Note_on_c, 0, 53, 0
2, 7640, Control_c, 0, 64, 127
2, 7678, Note_on_c, 0, 43, 46
2, 7681, Note_on_c, 0, 53, 22
2, 7684, Control_c, 0, 64, 0
2, 7687, Note_on_c, 0, 43, 0
2, 7705, Note_on_c, 0, 53, 0
2, 7738, Note_on_c, 0, 57, 42
2, 7741, Note_on_c, 0, 53, 26
2, 7746, Note_on_c, 0, 43, 32
2, 7783, Control_c, 0, 64, 127
2, 7790, Note_on_c, 0, 57, 0
2, 7793, Note_on_c, 0, 53, 0
2, 7803, Note_on_c, 0, 43, 0
2, 7841, Control_c, 0, 64, 0
2, 7849, Note_on_c, 0, 60, 28
2, 7850, Note_on_c, 0, 57, 32
2, 7851, Note_on_c, 0, 53, 22
2, 7853, Note_on_c, 0, 43, 26
2, 7854, Note_on_c, 0, 50, 31
2, 7864, Control_c, 0, 64, 127
2, 7868, Note_on_c, 0, 57, 0
2, 7870, Note_on_c, 0, 43, 0
2, 7871, Note_on_c, 0, 50, 0
2, 7874, Note_on_c, 0, 60, 0
2, 7875, Note_on_c, 0, 53, 0
2, 7900, Control_c, 0, 64, 0
2, 7913, Note_on_c, 0, 60, 35
2, 7914, Note_on_c, 0, 43, 32
2, 7914, Note_on_c, 0, 57, 30
2, 7915, Note_on_c, 0, 50, 30
2, 7926, Note_on_c, 0, 57, 0
2, 7928, Note_on_c, 0, 50, 0
2, 7930, Note_on_c, 0, 43, 0
2, 7937, Note_on_c, 0, 60, 0
2, 7959, Note_on_c, 0, 62, 0
2, 7970, Note_on_c, 0, 59, 55
2, 7983, Note_on_c, 0, 59, 0
2, 8001, Note_on_c, 0, 59, 52
2, 8016, Note_on_c, 0, 59, 0
2, 8030, Note_on_c, 0, 60, 80
2, 8043, Note_on_c, 0, 60, 0
2, 8061, Note_on_c, 0, 60, 69
2, 8075, Note_on_c, 0, 60, 0
2, 8090, Note_on_c, 0, 62, 85
2, 8117, Control_c, 0, 64, 127
2, 8158, Note_on_c, 0, 60, 45
2, 8161, Note_on_c, 0, 53, 24
2, 8161, Note_on_c, 0, 31, 30
2, 8162, Note_on_c, 0, 43, 32
2, 8162, Control_c, 0, 64, 0
2, 8162, Note_on_c, 0, 57, 29
2, 8180, Control_c, 0, 64, 127
2, 8195, Note_on_c, 0, 60, 0
2, 8197, Note_on_c, 0, 57, 0
2, 8199, Note_on_c, 0, 53, 0
2, 8201, Note_on_c, 0, 43, 0
2, 8204, Note_on_c, 0, 31, 0
2, 8218, Control_c, 0, 64, 0
2, 8225, Note_on_c, 0, 57, 48
2, 8227, Note_on_c, 0, 60, 48
2, 8227, Note_on_c, 0, 43, 30
2, 8227, Note_on_c, 0, 53, 26
2, 8230, Note_on_c, 0, 31, 26
2, 8233, Note_on_c, 0, 53, 0
2, 8234, Note_on_c, 0, 60, 0
2, 8234, Note_on_c, 0, 57, 0
2, 8238, Note_on_c, 0, 43, 0
2, 8240, Note_on_c, 0, 31, 0
2, 8246, Note_on_c, 0, 62, 0
2, 8332, Note_on_c, 0, 43, 41
2, 8333, Note_on_c, 0, 62, 37
2, 8334, Note_on_c, 0, 57, 51
2, 8335, Note_on_c, 0, 60, 53
2, 8336, Note_on_c, 0, 53, 30
2, 8344, Note_on_c, 0, 53, 0
2, 8350, Note_on_c, 0, 57, 0
2, 8353, Note_on_c, 0, 43, 0
2, 8354, Note_on_c, 0, 60, 0
2, 8364, Note_on_c, 0, 62, 0
2, 8400, Note_on_c, 0, 62, 51
2, 8401, Note_on_c, 0, 59, 53
2, 8402, Note_on_c, 0, 56, 33
2, 8404, Note_on_c, 0, 53, 26
2, 8405, Note_on_c, 0, 31, 27
2, 8406, Note_on_c, 0, 43, 24
2, 8408, Control_c, 0, 64, 127
2, 8471, Note_on_c, 0, 53, 0
2, 8477, Note_on_c, 0, 59, 0
2, 8479, Note_on_c, 0, 56, 0
2, 8499, Note_on_c, 0, 62, 0
2, 8505, Note_on_c, 0, 31, 0
2, 8519, Note_on_c, 0, 43, 0
2, 8558, Note_on_c, 0, 60, 63
2, 8576, Note_on_c, 0, 60, 0
2, 8590, Note_on_c, 0, 67, 69
2, 8613, Note_on_c, 0, 67, 0
2, 8632, Note_on_c, 0, 67, 52
2, 8635, Note_on_c, 0, 43, 46
2, 8639, Control_c, 0, 64, 0
2, 8677, Note_on_c, 0, 67, 0
2, 8679, Control_c, 0, 64, 127
2, 8691, Note_on_c, 0, 64, 7
2, 8699, Note_on_c, 0, 62, 35
2, 8701, Note_on_c, 0, 59, 29
2, 8704, Note_on_c, 0, 52, 22
2, 8731, Note_on_c, 0, 59, 0
2, 8734, Note_on_c, 0, 62, 0
2, 8740, Note_on_c, 0, 64, 0
2, 8760, Note_on_c, 0, 43, 0
2, 8771, Note_on_c, 0, 52, 0
2, 8785, Note_on_c, 0, 74, 67
2, 8855, Note_on_c, 0, 74, 0
2, 8856, Note_on_c, 0, 67, 36
2, 8859, Note_on_c, 0, 64, 32
2, 8861, Note_on_c, 0, 62, 29
2, 8861, Note_on_c, 0, 71, 34
2, 8873, Note_on_c, 0, 71, 0
2, 8915, Note_on_c, 0, 67, 0
2, 8986, Note_on_c, 0, 86, 83
2, 9003, Note_on_c, 0, 86, 0
2, 9019, Note_on_c, 0, 83, 48
2, 9025, Note_on_c, 0, 83, 0
2, 9048, Note_on_c, 0, 84, 60
2, 9055, Note_on_c, 0, 84, 0
2, 9080, Note_on_c, 0, 86, 83
2, 9095, Note_on_c, 0, 86, 0
2, 9103, Control_c, 0, 64, 0
2, 9104, Note_on_c, 0, 55, 58
2, 9109, Note_on_c, 0, 83, 57
2, 9121, Note_on_c, 0, 83, 0
2, 9142, Note_on_c, 0, 62, 0
2, 9156, Note_on_c, 0, 64, 0
2, 9167, Note_on_c, 0, 79, 59
2, 9175, Note_on_c, 0, 79, 0
2, 9224, Note_on_c, 0, 67, 38
2, 9225, Note_on_c, 0, 76, 56
2, 9228, Note_on_c, 0, 62, 30
2, 9228, Note_on_c, 0, 64, 35
2, 9234, Note_on_c, 0, 76, 0
2, 9293, Note_on_c, 0, 71, 89
2, 9303, Control_c, 0, 64, 127
2, 9346, Note_on_c, 0, 67, 0
2, 9397, Note_on_c, 0, 55, 0
2, 9425, Note_on_c, 0, 67, 65
2, 9429, Note_on_c, 0, 55, 45
2, 9445, Note_on_c, 0, 67, 0
2, 9470, Note_on_c, 0, 55, 0
2, 9472, Note_on_c, 0, 71, 0
2, 9490, Note_on_c, 0, 67, 50
2, 9498, Note_on_c, 0, 64, 0
2, 9500, Note_on_c, 0, 62, 0
2, 9554, Note_on_c, 0, 60, 44
2, 9556, Note_on_c, 0, 67, 0
2, 9568, Note_on_c, 0, 60, 0
2, 9612, Note_on_c, 0, 65, 51
2, 9614, Note_on_c, 0, 60, 36
2, 9616, Note_on_c, 0, 55, 30
2, 9621, Control_c, 0, 64, 0
2, 9661, Control_c, 0, 64, 127
2, 9675, Note_on_c, 0, 43, 46
2, 9724, Note_on_c, 0, 65, 0
2, 9725, Note_on_c, 0, 43, 0
2, 9734, Note_on_c, 0, 60, 0
2, 9741, Note_on_c, 0, 55, 0
2, 9749, Note_on_c, 0, 43, 25
2, 9759, Note_on_c, 0, 43, 0
2, 9800, Note_on_c, 0, 62, 41
2, 9802, Note_on_c, 0, 57, 49
2, 9802, Note_on_c, 0, 43, 39
2, 9804, Note_on_c, 0, 53, 33
2, 9804, Note_on_c, 0, 60, 48
2, 9811, Control_c, 0, 64, 0
2, 9841, Control_c, 0, 64, 127
2, 9893, Note_on_c, 0, 62, 0
2, 9904, Note_on_c, 0, 53, 0
2, 9906, Note_on_c, 0, 60, 0
2, 9913, Note_on_c, 0, 62, 67
2, 9923, Note_on_c, 0, 57, 0
2, 9951, Note_on_c, 0, 62, 0
2, 9978, Note_on_c, 0, 62, 47
2, 9997, Note_on_c, 0, 62, 0
2, 9997, Note_on_c, 0, 43, 0
2, 10010, Note_on_c, 0, 62, 75
2, 10032, Note_on_c, 0, 62, 0
2, 10072, Control_c, 0, 64, 0
2, 10089, Note_on_c, 0, 62, 57
2, 10090, Note_on_c, 0, 43, 42
2, 10094, Note_on_c, 0, 59, 42
2, 10096, Note_on_c, 0, 56, 25
2, 10096, Note_on_c, 0, 53, 20
2, 10113, Note_on_c, 0, 62, 0
2, 10116, Note_on_c, 0, 59, 0
2, 10128, Note_on_c, 0, 62, 51
2, 10129, Note_on_c, 0, 59, 22
2, 10137, Note_on_c, 0, 53, 0
2, 10139, Note_on_c, 0, 59, 0
2, 10139, Note_on_c, 0, 56, 0
2, 10144, Note_on_c, 0, 62, 0
2, 10179, Control_c, 0, 64, 127
2, 10205, Note_on_c, 0, 62, 41
2, 10208, Note_on_c, 0, 59, 40
2, 10209, Note_on_c, 0, 56, 28
2, 10210, Note_on_c, 0, 53, 24
2, 10240, Note_on_c, 0, 43, 0
2, 10262, Note_on_c, 0, 43, 41
2, 10285, Note_on_c, 0, 43, 0
2, 10328, Note_on_c, 0, 43, 49
2, 10343, Note_on_c, 0, 59, 0
2, 10368, Note_on_c, 0, 53, 0
2, 10375, Note_on_c, 0, 56, 0
2, 10387, Note_on_c, 0, 62, 0
2, 10388, Note_on_c, 0, 60, 53
2, 10406, Note_on_c, 0, 60, 0
2, 10449, Note_on_c, 0, 43, 0
2, 10464, Note_on_c, 0, 67, 55
2, 10471, Note_on_c, 0, 43, 32
2, 10487, Note_on_c, 0, 67, 0
2, 10512, Note_on_c, 0, 43, 0
2, 10559, Note_on_c, 0, 43, 39
2, 10560, Note_on_c, 0, 64, 48
2, 10561, Note_on_c, 0, 55, 32
2, 10563, Note_on_c, 0, 59, 40
2, 10563, Note_on_c, 0, 62, 36
2, 10566, Note_on_c, 0, 52, 26
2, 10567, Control_c, 0, 64, 0
2, 10603, Control_c, 0, 64, 127
2, 10678, Note_on_c, 0, 52, 0
2, 10689, Note_on_c, 0, 55, 0
2, 10693, Note_on_c, 0, 59, 0
2, 10698, Note_on_c, 0, 62, 0
2, 10747, Note_on_c, 0, 52, 28
2, 10762, Note_on_c, 0, 52, 0
2, 10811, Note_on_c, 0, 55, 37
2, 10812, Note_on_c, 0, 59, 36
2, 10814, Note_on_c, 0, 52, 32
2, 10814, Note_on_c, 0, 62, 24
2, 10822, Note_on_c, 0, 52, 0
2, 10832, Note_on_c, 0, 43, 0
2, 10841, Control_c, 0, 64, 0
2, 10873, Note_on_c, 0, 44, 54
2, 10890, Note_on_c, 0, 44, 0
2, 10932, Note_on_c, 0, 62, 0
2, 10932, Note_on_c, 0, 43, 36
2, 10935, Note_on_c, 0, 59, 0
2, 10937, Note_on_c, 0, 64, 0
2, 10939, Control_c, 0, 64, 127
2, 10941, Note_on_c, 0, 55, 0
2, 10947, Note_on_c, 0, 43, 0
2, 10997, Note_on_c, 0, 30, 38
2, 11001, Note_on_c, 0, 42, 25
2, 11001, Note_on_c, 0, 60, 50
2, 11002, Control_c, 0, 64, 0
2, 11002, Note_on_c, 0, 56, 37
2, 11008, Note_on_c, 0, 52, 14
2, 11027, Control_c, 0, 64, 127
2, 11035, Note_on_c, 0, 52, 0
2, 11044, Note_on_c, 0, 56, 0
2, 11045, Note_on_c, 0, 60, 0
2, 11063, Note_on_c, 0, 30, 0
2, 11074, Note_on_c, 0, 42, 0
2, 11117, Note_on_c, 0, 75, 60
2, 11164, Note_on_c, 0, 75, 0
2, 11192, Note_on_c, 0, 58, 31
2, 11244, Note_on_c, 0, 72, 38
2, 11245, Note_on_c, 0, 64, 26
2, 11246, Note_on_c, 0, 68, 32
2, 11258, Note_on_c, 0, 64, 0
2, 11263, Note_on_c, 0, 68, 0
2, 11267, Note_on_c, 0, 72, 0
2, 11314, Note_on_c, 0, 87, 85
2, 11337, Note_on_c, 0, 58, 0
2, 11400, Note_on_c, 0, 84, 32
2, 11441, Note_on_c, 0, 87, 0
2, 11442, Note_on_c, 0, 84, 0
2, 11463, Note_on_c, 0, 80, 51
2, 11512, Note_on_c, 0, 80, 0
2, 11527, Note_on_c, 0, 48, 32
2, 11528, Note_on_c, 0, 81, 49
2, 11532, Note_on_c, 0, 41, 25
2, 11533, Note_on_c, 0, 57, 38
2, 11536, Control_c, 0, 64, 0
2, 11563, Control_c, 0, 64, 127
2, 11582, Note_on_c, 0, 81, 0
2, 11590, Note_on_c, 0, 48, 0
2, 11606, Note_on_c, 0, 48, 36
2, 11609, Note_on_c, 0, 57, 0
2, 11619, Note_on_c, 0, 41, 0
2, 11628, Note_on_c, 0, 48, 0
2, 11706, Note_on_c, 0, 60, 38
2, 11777, Note_on_c, 0, 65, 43
2, 11850, Note_on_c, 0, 81, 63
2, 11851, Note_on_c, 0, 60, 0
2, 11852, Note_on_c, 0, 69, 60
2, 11864, Note_on_c, 0, 69, 0
2, 11874, Note_on_c, 0, 81, 0
2, 11942, Note_on_c, 0, 60, 31
2, 11946, Note_on_c, 0, 65, 0
2, 11999, Note_on_c, 0, 60, 0
2, 12005, Note_on_c, 0, 79, 80
2, 12006, Note_on_c, 0, 86, 83
2, 12013, Control_c, 0, 64, 0
2, 12017, Note_on_c, 0, 53, 12
2, 12036, Control_c, 0, 64, 127
2, 12066, Note_on_c, 0, 86, 0
2, 12073, Note_on_c, 0, 79, 0
2, 12077, Note_on_c, 0, 83, 62
2, 12081, Note_on_c, 0, 59, 27
2, 12081, Note_on_c, 0, 74, 40
2, 12100, Note_on_c, 0, 83, 0
2, 12103, Note_on_c, 0, 74, 0
2, 12153, Note_on_c, 0, 59, 0
2, 12172, Note_on_c, 0, 79, 48
2, 12173, Note_on_c, 0, 71, 40
2, 12177, Note_on_c, 0, 59, 28
2, 12177, Note_on_c, 0, 62, 35
2, 12212, Note_on_c, 0, 53, 0
2, 12241, Note_on_c, 0, 53, 36
2, 12281, Note_on_c, 0, 53, 0
2, 12318, Note_on_c, 0, 53, 38
2, 12353, Note_on_c, 0, 71, 0
2, 12356, Note_on_c, 0, 59, 0
2, 12359, Note_on_c, 0, 62, 0
2, 12382, Note_on_c, 0, 79, 0
2, 12421, Note_on_c, 0, 59, 32
2, 12450, Note_on_c, 0, 53, 0
2, 12470, Note_on_c, 0, 59, 0
2, 12481, Note_on_c, 0, 79, 40
2, 12483, Note_on_c, 0, 71, 34
2, 12484, Note_on_c, 0, 62, 35
2, 12485, Note_on_c, 0, 67, 36
2, 12489, Control_c, 0, 64, 0
2, 12490, Note_on_c, 0, 52, 54
2, 12520, Control_c, 0, 64, 127
2, 12553, Note_on_c, 0, 62, 0
2, 12554, Note_on_c, 0, 59, 41
2, 12619, Note_on_c, 0, 59, 0
2, 12621, Note_on_c, 0, 67, 0
2, 12655, Note_on_c, 0, 79, 0
2, 12657, Note_on_c, 0, 71, 0
2, 12662, Note_on_c, 0, 62, 51
2, 12665, Note_on_c, 0, 59, 39
2, 12698, Note_on_c, 0, 62, 0
2, 12767, Note_on_c, 0, 65, 72
2, 12793, Note_on_c, 0, 65, 0
2, 12793, Note_on_c, 0, 70, 75
2, 12805, Note_on_c, 0, 52, 0
2, 12807, Note_on_c, 0, 70, 0
2, 12815, Note_on_c, 0, 59, 0
2, 12821, Note_on_c, 0, 72, 87
2, 12839, Note_on_c, 0, 72, 0
2, 12847, Note_on_c, 0, 77, 84
2, 12876, Note_on_c, 0, 82, 80
2, 12883, Note_on_c, 0, 77, 0
2, 12895, Note_on_c, 0, 82, 0
2, 12903, Note_on_c, 0, 84, 88
2, 12924, Note_on_c, 0, 84, 0
2, 12936, Note_on_c, 0, 82, 49
2, 12949, Note_on_c, 0, 82, 0
2, 12961, Note_on_c, 0, 84, 72
2, 12965, Note_on_c, 0, 55, 47
2, 12965, Note_on_c, 0, 61, 34
2, 12966, Note_on_c, 0, 60, 32
2, 12967, Note_on_c, 0, 65, 34
2, 12970, Control_c, 0, 64, 0
2, 12981, Note_on_c, 0, 84, 0
2, 12994, Note_on_c, 0, 82, 55
2, 13010, Note_on_c, 0, 82, 0
2, 13022, Note_on_c, 0, 84, 72
2, 13042, Control_c, 0, 64, 127
2, 13053, Note_on_c, 0, 82, 56
2, 13056, Note_on_c, 0, 84, 0
2, 13071, Note_on_c, 0, 82, 0
2, 13085, Note_on_c, 0, 77, 19
2, 13119, Note_on_c, 0, 65, 0
2, 13127, Note_on_c, 0, 77, 0
2, 13142, Note_on_c, 0, 65, 38
2, 13143, Note_on_c, 0, 79, 40
2, 13147, Note_on_c, 0, 77, 36
2, 13155, Note_on_c, 0, 77, 0
2, 13192, Note_on_c, 0, 65, 0
2, 13205, Note_on_c, 0, 79, 0
2, 13207, Note_on_c, 0, 76, 45
2, 13254, Note_on_c, 0, 61, 0
2, 13264, Note_on_c, 0, 76, 0
2, 13274, Note_on_c, 0, 60, 0
2, 13286, Note_on_c, 0, 55, 0
2, 13332, Note_on_c, 0, 51, 30
2, 13338, Note_on_c, 0, 51, 0
2, 13394, Note_on_c, 0, 49, 50
2, 13447, Note_on_c, 0, 49, 0
2, 13451, Note_on_c, 0, 50, 46
2, 13452, Note_on_c, 0, 57, 44
2, 13453, Note_on_c, 0, 65, 44
2, 13454, Note_on_c, 0, 60, 42
2, 13461, Control_c, 0, 64, 0
2, 13493, Control_c, 0, 64, 127
2, 13505, Note_on_c, 0, 65, 0
2, 13521, Note_on_c, 0, 57, 0
2, 13525, Note_on_c, 0, 65, 67
2, 13539, Note_on_c, 0, 60, 0
2, 13548, Note_on_c, 0, 65, 0
2, 13591, Note_on_c, 0, 50, 0
2, 13616, Note_on_c, 0, 65, 71
2, 13651, Note_on_c, 0, 65, 0
2, 13685, Note_on_c, 0, 65, 64
2, 13691, Note_on_c, 0, 60, 60
2, 13694, Note_on_c, 0, 57, 50
2, 13759, Note_on_c, 0, 50, 71
2, 13803, Note_on_c, 0, 50, 0
2, 13831, Note_on_c, 0, 65, 0
2, 13838, Note_on_c, 0, 57, 0
2, 13849, Note_on_c, 0, 60, 0
2, 13857, Note_on_c, 0, 50, 46
2, 13885, Note_on_c, 0, 50, 0
2, 13926, Note_on_c, 0, 59, 55
2, 13926, Note_on_c, 0, 65, 53
2, 13928, Note_on_c, 0, 43, 45
2, 13931, Note_on_c, 0, 53, 22
2, 13932, Control_c, 0, 64, 0
2, 13959, Control_c, 0, 64, 127
2, 14003, Note_on_c, 0, 53, 0
2, 14019, Note_on_c, 0, 65, 0
2, 14030, Note_on_c, 0, 59, 0
2, 14074, Note_on_c, 0, 43, 0
2, 14098, Note_on_c, 0, 64, 71
2, 14100, Note_on_c, 0, 55, 71
2, 14103, Note_on_c, 0, 43, 41
2, 14126, Note_on_c, 0, 55, 0
2, 14132, Note_on_c, 0, 64, 0
2, 14147, Note_on_c, 0, 43, 0
2, 14172, Note_on_c, 0, 43, 36
2, 14173, Note_on_c, 0, 65, 74
2, 14173, Note_on_c, 0, 57, 73
2, 14173, Control_c, 0, 64, 0
2, 14188, Control_c, 0, 64, 127
2, 14216, Note_on_c, 0, 65, 0
2, 14220, Note_on_c, 0, 57, 0
2, 14234, Note_on_c, 0, 43, 0
2, 14255, Note_on_c, 0, 67, 51
2, 14258, Note_on_c, 0, 59, 46
2, 14276, Note_on_c, 0, 67, 0
2, 14284, Note_on_c, 0, 59, 0
2, 14355, Note_on_c, 0, 64, 51
2, 14357, Note_on_c, 0, 55, 44
2, 14361, Control_c, 0, 64, 0
2, 14362, Note_on_c, 0, 36, 54
2, 14365, Note_on_c, 0, 52, 29
2, 14390, Control_c, 0, 64, 127
2, 14407, Note_on_c, 0, 55, 0
2, 14448, Note_on_c, 0, 64, 0
2, 14463, Note_on_c, 0, 52, 0
2, 14468, Note_on_c, 0, 43, 47
2, 14495, Note_on_c, 0, 36, 0
2, 14519, Note_on_c, 0, 43, 0
2, 14532, Note_on_c, 0, 52, 49
2, 14543, Note_on_c, 0, 52, 0
2, 14589, Note_on_c, 0, 60, 58
2, 14646, Note_on_c, 0, 64, 50
2, 14646, Note_on_c, 0, 67, 87
2, 14653, Note_on_c, 0, 64, 0
2, 14656, Note_on_c, 0, 60, 0
2, 14699, Note_on_c, 0, 67, 0
2, 14705, Note_on_c, 0, 71, 78
2, 14712, Note_on_c, 0, 67, 44
2, 14721, Note_on_c, 0, 67, 0
2, 14753, Note_on_c, 0, 71, 0
2, 14763, Note_on_c, 0, 76, 64
2, 14782, Note_on_c, 0, 76, 0
2, 14821, Note_on_c, 0, 86, 74
2, 14821, Note_on_c, 0, 79, 55
2, 14870, Note_on_c, 0, 79, 0
2, 14871, Note_on_c, 0, 86, 0
2, 14883, Note_on_c, 0, 74, 29
2, 14884, Note_on_c, 0, 83, 48
2, 14888, Note_on_c, 0, 79, 20
2, 14888, Note_on_c, 0, 41, 29
2, 14888, Note_on_c, 0, 57, 35
2, 14891, Control_c, 0, 64, 0
2, 14918, Control_c, 0, 64, 127
2, 14934, Note_on_c, 0, 83, 0
2, 14936, Note_on_c, 0, 79, 0
2, 14947, Note_on_c, 0, 74, 0
2, 14954, Note_on_c, 0, 57, 0
2, 14955, Note_on_c, 0, 48, 26
2, 14986, Note_on_c, 0, 48, 0
2, 15012, Note_on_c, 0, 48, 31
2, 15069, Note_on_c, 0, 48, 0
2, 15077, Note_on_c, 0, 69, 40
2, 15078, Note_on_c, 0, 60, 33
2, 15080, Note_on_c, 0, 64, 33
2, 15082, Note_on_c, 0, 53, 34
2, 15089, Control_c, 0, 64, 0
2, 15114, Control_c, 0, 64, 127
2, 15146, Note_on_c, 0, 41, 0
2, 15185, Note_on_c, 0, 41, 45
2, 15239, Note_on_c, 0, 60, 0
2, 15248, Note_on_c, 0, 41, 0
2, 15251, Note_on_c, 0, 64, 0
2, 15254, Note_on_c, 0, 69, 0
2, 15258, Note_on_c, 0, 53, 0
2, 15351, Note_on_c, 0, 62, 46
2, 15355, Note_on_c, 0, 59, 35
2, 15357, Note_on_c, 0, 53, 24
2, 15358, Note_on_c, 0, 57, 31
2, 15358, Note_on_c, 0, 52, 30
2, 15364, Control_c, 0, 64, 0
2, 15393, Control_c, 0, 64, 127
2, 15401, Note_on_c, 0, 62, 0
2, 15416, Note_on_c, 0, 53, 0
2, 15419, Note_on_c, 0, 59, 0
2, 15424, Note_on_c, 0, 62, 40
2, 15425, Note_on_c, 0, 57, 0
2, 15439, Note_on_c, 0, 62, 0
2, 15446, Note_on_c, 0, 52, 0
2, 15485, Note_on_c, 0, 74, 76
2, 15516, Note_on_c, 0, 74, 0
2, 15545, Note_on_c, 0, 74, 89
2, 15582, Note_on_c, 0, 74, 0
2, 15601, Note_on_c, 0, 74, 47
2, 15610, Note_on_c, 0, 71, 50
2, 15613, Note_on_c, 0, 69, 61
2, 15613, Note_on_c, 0, 64, 64
2, 15616, Note_on_c, 0, 65, 62
2, 15662, Note_on_c, 0, 74, 0
2, 15690, Note_on_c, 0, 74, 57
2, 15736, Note_on_c, 0, 74, 0
2, 15758, Note_on_c, 0, 71, 0
2, 15766, Note_on_c, 0, 74, 53
2, 15775, Note_on_c, 0, 65, 0
2, 15780, Note_on_c, 0, 69, 0
2, 15805, Note_on_c, 0, 74, 0
2, 15817, Note_on_c, 0, 64, 0
2, 15840, Note_on_c, 0, 74, 38
2, 15841, Note_on_c, 0, 56, 42
2, 15843, Note_on_c, 0, 62, 31
2, 15843, Note_on_c, 0, 70, 42
2, 15843, Note_on_c, 0, 65, 39
2, 15850, Control_c, 0, 64, 0
2, 15884, Control_c, 0, 64, 127
2, 15985, Note_on_c, 0, 65, 0
2, 15988, Note_on_c, 0, 62, 0
2, 16004, Note_on_c, 0, 74, 0
2, 16005, Note_on_c, 0, 70, 0
2, 16021, Note_on_c, 0, 72, 64
2, 16024, Note_on_c, 0, 62, 26
2, 16075, Note_on_c, 0, 72, 0
2, 16082, Note_on_c, 0, 71, 44
2, 16111, Note_on_c, 0, 71, 0
2, 16133, Note_on_c, 0, 62, 0
2, 16144, Note_on_c, 0, 71, 36
2, 16151, Note_on_c, 0, 56, 0
2, 16170, Note_on_c, 0, 71, 0
2, 16201, Note_on_c, 0, 76, 47
2, 16250, Note_on_c, 0, 76, 0
2, 16263, Note_on_c, 0, 76, 60
2, 16266, Note_on_c, 0, 45, 38
2, 16268, Note_on_c, 0, 52, 34
2, 16274, Control_c, 0, 64, 0
2, 16292, Control_c, 0, 64, 127
2, 16309, Note_on_c, 0, 45, 0
2, 16316, Note_on_c, 0, 52, 0
2, 16385, Note_on_c, 0, 64, 42
2, 16387, Note_on_c, 0, 61, 38
2, 16393, Note_on_c, 0, 59, 17
2, 16467, Note_on_c, 0, 64, 0
2, 16471, Note_on_c, 0, 59, 0
2, 16472, Note_on_c, 0, 61, 0
2, 16572, Note_on_c, 0, 52, 49
2, 16574, Note_on_c, 0, 45, 29
2, 16612, Note_on_c, 0, 45, 0
2, 16617, Note_on_c, 0, 52, 0
2, 16642, Note_on_c, 0, 52, 41
2, 16642, Note_on_c, 0, 45, 45
2, 16698, Note_on_c, 0, 45, 0
2, 16708, Note_on_c, 0, 52, 0
2, 16750, Note_on_c, 0, 52, 41
2, 16750, Note_on_c, 0, 45, 37
2, 16754, Note_on_c, 0, 76, 0
2, 16834, Note_on_c, 0, 52, 0
2, 16854, Note_on_c, 0, 45, 0
2, 16869, Note_on_c, 0, 67, 48
2, 16870, Note_on_c, 0, 62, 51
2, 16872, Note_on_c, 0, 59, 42
2, 16921, Note_on_c, 0, 62, 0
2, 16941, Note_on_c, 0, 59, 0
2, 17051, Note_on_c, 0, 62, 25
2, 17054, Note_on_c, 0, 59, 36
2, 17054, Note_on_c, 0, 57, 28
2, 17115, Note_on_c, 0, 50, 69
2, 17143, Note_on_c, 0, 57, 0
2, 17154, Note_on_c, 0, 59, 0
2, 17170, Note_on_c, 0, 59, 20
2, 17175, Note_on_c, 0, 50, 0
2, 17213, Note_on_c, 0, 67, 0
2, 17224, Note_on_c, 0, 62, 0
2, 17232, Note_on_c, 0, 59, 0
2, 17232, Note_on_c, 0, 44, 31
2, 17279, Note_on_c, 0, 44, 0
2, 17288, Note_on_c, 0, 61, 44
2, 17288, Note_on_c, 0, 59, 47
2, 17289, Note_on_c, 0, 64, 44
2, 17290, Note_on_c, 0, 45, 36
2, 17301, Control_c, 0, 64, 0
2, 17335, Control_c, 0, 64, 127
2, 17413, Note_on_c, 0, 45, 0
2, 17420, Note_on_c, 0, 59, 0
2, 17423, Note_on_c, 0, 64, 0
2, 17432, Note_on_c, 0, 61, 0
2, 17466, Note_on_c, 0, 61, 29
2, 17467, Note_on_c, 0, 59, 45
2, 17467, Note_on_c, 0, 64, 45
2, 17471, Note_on_c, 0, 45, 32
2, 17543, Note_on_c, 0, 45, 0
2, 17585, Note_on_c, 0, 45, 43
2, 17638, Note_on_c, 0, 45, 0
2, 17706, Note_on_c, 0, 45, 26
2, 17707, Note_on_c, 0, 59, 0
2, 17714, Note_on_c, 0, 61, 0
2, 17746, Note_on_c, 0, 64, 0
2, 17761, Note_on_c, 0, 45, 0
2, 17764, Note_on_c, 0, 62, 34
2, 17772, Note_on_c, 0, 43, 34
2, 17772, Note_on_c, 0, 55, 24
2, 17775, Note_on_c, 0, 59, 28
2, 17781, Control_c, 0, 64, 0
2, 17806, Control_c, 0, 64, 127
2, 17874, Note_on_c, 0, 43, 0
2, 17878, Note_on_c, 0, 55, 0
2, 17886, Note_on_c, 0, 59, 0
2, 17902, Note_on_c, 0, 62, 0
2, 17950, Note_on_c, 0, 62, 35
2, 17950, Note_on_c, 0, 43, 39
2, 17952, Note_on_c, 0, 59, 33
2, 17953, Note_on_c, 0, 55, 28
2, 17972, Note_on_c, 0, 55, 0
2, 17973, Note_on_c, 0, 43, 0
2, 17992, Note_on_c, 0, 62, 0
2, 17993, Note_on_c, 0, 59, 0
2, 18069, Note_on_c, 0, 65, 59
2, 18073, Note_on_c, 0, 61, 33
2, 18074, Note_on_c, 0, 60, 38
2, 18131, Note_on_c, 0, 65, 0
2, 18137, Note_on_c, 0, 60, 0
2, 18143, Note_on_c, 0, 61, 0
2, 18247, Control_c, 0, 64, 0
2, 18249, Note_on_c, 0, 57, 32
2, 18249, Note_on_c, 0, 60, 24
2, 18249, Note_on_c, 0, 53, 34
2, 18250, Note_on_c, 0, 50, 36
2, 18272, Control_c, 0, 64, 127
2, 18309, Note_on_c, 0, 53, 0
2, 18310, Note_on_c, 0, 50, 0
2, 18313, Note_on_c, 0, 57, 0
2, 18324, Note_on_c, 0, 60, 0
2, 18429, Note_on_c, 0, 65, 42
2, 18431, Note_on_c, 0, 55, 31
2, 18431, Note_on_c, 0, 60, 42
2, 18431, Note_on_c, 0, 57, 43
2, 18497, Note_on_c, 0, 74, 110
2, 18529, Note_on_c, 0, 74, 0
2, 18559, Note_on_c, 0, 74, 90
2, 18561, Note_on_c, 0, 65, 0
2, 18568, Note_on_c, 0, 60, 0
2, 18572, Note_on_c, 0, 55, 0
2, 18573, Note_on_c, 0, 74, 0
2, 18577, Note_on_c, 0, 57, 0
2, 18590, Note_on_c, 0, 74, 54
2, 18601, Note_on_c, 0, 74, 0
2, 18614, Note_on_c, 0, 74, 69
2, 18632, Note_on_c, 0, 74, 0
2, 18669, Note_on_c, 0, 74, 78
2, 18683, Note_on_c, 0, 74, 0
2, 18699, Note_on_c, 0, 74, 57
2, 18711, Note_on_c, 0, 74, 0
2, 18724, Note_on_c, 0, 74, 62
2, 18725, Control_c, 0, 64, 0
2, 18727, Note_on_c, 0, 43, 49
2, 18743, Control_c, 0, 64, 127
2, 18757, Note_on_c, 0, 74, 0
2, 18782, Note_on_c, 0, 43, 0
2, 18787, Note_on_c, 0, 74, 44
2, 18899, Note_on_c, 0, 64, 47
2, 18901, Note_on_c, 0, 59, 36
2, 18906, Note_on_c, 0, 53, 32
2, 18955, Note_on_c, 0, 64, 0
2, 18962, Note_on_c, 0, 72, 70
2, 18969, Note_on_c, 0, 53, 0
2, 18981, Note_on_c, 0, 59, 0
2, 18991, Note_on_c, 0, 74, 0
2, 18998, Note_on_c, 0, 72, 0
2, 19023, Note_on_c, 0, 72, 64
2, 19038, Note_on_c, 0, 72, 0
2, 19076, Note_on_c, 0, 79, 92
2, 19110, Note_on_c, 0, 79, 0
2, 19137, Note_on_c, 0, 79, 77
2, 19167, Note_on_c, 0, 79, 0
2, 19190, Note_on_c, 0, 79, 52
2, 19191, Control_c, 0, 64, 0
2, 19191, Note_on_c, 0, 43, 38
2, 19192, Note_on_c, 0, 52, 33
2, 19194, Note_on_c, 0, 72, 50
2, 19211, Control_c, 0, 64, 127
2, 19232, Note_on_c, 0, 72, 0
2, 19241, Note_on_c, 0, 43, 0
2, 19250, Note_on_c, 0, 79, 0
2, 19253, Note_on_c, 0, 52, 0
2, 19264, Note_on_c, 0, 76, 36
2, 19379, Note_on_c, 0, 64, 29
2, 19381, Note_on_c, 0, 55, 29
2, 19382, Note_on_c, 0, 60, 37
2, 19510, Note_on_c, 0, 64, 0
2, 19512, Note_on_c, 0, 60, 0
2, 19522, Note_on_c, 0, 55, 0
2, 19676, Control_c, 0, 64, 0
2, 19680, Note_on_c, 0, 43, 40
2, 19685, Control_c, 0, 64, 127
2, 19693, Note_on_c, 0, 43, 0
2, 19744, Note_on_c, 0, 76, 0
2, 19800, Note_on_c, 0, 61, 38
2, 19801, Note_on_c, 0, 55, 42
2, 19801, Note_on_c, 0, 60, 37
2, 19802, Note_on_c, 0, 65, 37
2, 19843, Note_on_c, 0, 72, 48
2, 19860, Note_on_c, 0, 72, 0
2, 19875, Note_on_c, 0, 77, 68
2, 19884, Control_c, 0, 64, 0
2, 19905, Note_on_c, 0, 77, 0
2, 19906, Note_on_c, 0, 82, 70
2, 19922, Note_on_c, 0, 82, 0
2, 19937, Note_on_c, 0, 84, 61
2, 19940, Note_on_c, 0, 86, 52
2, 19946, Note_on_c, 0, 86, 0
2, 19952, Note_on_c, 0, 84, 0
2, 19968, Note_on_c, 0, 89, 78
2, 19981, Control_c, 0, 64, 127
2, 19993, Note_on_c, 0, 94, 83
2, 20001, Note_on_c, 0, 89, 0
2, 20016, Note_on_c, 0, 94, 0
2, 20024, Note_on_c, 0, 96, 89
2, 20027, Note_on_c, 0, 65, 0
2, 20045, Note_on_c, 0, 96, 0
2, 20052, Note_on_c, 0, 65, 43
2, 20053, Note_on_c, 0, 94, 71
2, 20080, Note_on_c, 0, 94, 0
2, 20088, Note_on_c, 0, 65, 0
2, 20098, Note_on_c, 0, 60, 0
2, 20100, Note_on_c, 0, 61, 0
2, 20107, Note_on_c, 0, 55, 0
2, 20109, Note_on_c, 0, 92, 65
2, 20135, Note_on_c, 0, 92, 0
2, 20142, Note_on_c, 0, 93, 79
2, 20163, Note_on_c, 0, 93, 0
2, 20174, Note_on_c, 0, 50, 44
2, 20177, Note_on_c, 0, 91, 58
2, 20180, Control_c, 0, 64, 0
2, 20196, Note_on_c, 0, 91, 0
2, 20212, Note_on_c, 0, 88, 44
2, 20226, Note_on_c, 0, 88, 0
2, 20240, Note_on_c, 0, 89, 33
2, 20256, Control_c, 0, 64, 127
2, 20264, Note_on_c, 0, 89, 0
2, 20308, Control_c, 0, 64, 0
2, 20326, Control_c, 0, 64, 127
2, 20340, Note_on_c, 0, 53, 27
2, 20346, Note_on_c, 0, 60, 42
2, 20355, Note_on_c, 0, 53, 0
2, 20377, Note_on_c, 0, 50, 0
2, 20384, Note_on_c, 0, 60, 0
2, 20465, Note_on_c, 0, 64, 36
2, 20472, Note_on_c, 0, 60, 35
2, 20472, Note_on_c, 0, 57, 28
2, 20476, Note_on_c, 0, 53, 17
2, 20486, Note_on_c, 0, 64, 0
2, 20489, Note_on_c, 0, 60, 0
2, 20490, Note_on_c, 0, 57, 0
2, 20507, Note_on_c, 0, 53, 0
2, 20528, Note_on_c, 0, 84, 51
2, 20535, Note_on_c, 0, 84, 0
2, 20558, Note_on_c, 0, 88, 82
2, 20560, Note_on_c, 0, 76, 71
2, 20572, Note_on_c, 0, 76, 0
2, 20572, Note_on_c, 0, 88, 0
2, 20605, Note_on_c, 0, 88, 83
2, 20606, Note_on_c, 0, 76, 78
2, 20618, Note_on_c, 0, 76, 0
2, 20618, Note_on_c, 0, 88, 0
2, 20635, Control_c, 0, 64, 0
2, 20640, Note_on_c, 0, 43, 47
2, 20642, Note_on_c, 0, 50, 35
2, 20644, Note_on_c, 0, 88, 81
2, 20646, Note_on_c, 0, 76, 70
2, 20649, Control_c, 0, 64, 127
2, 20662, Note_on_c, 0, 88, 0
2, 20666, Note_on_c, 0, 76, 0
2, 20671, Note_on_c, 0, 43, 0
2, 20676, Note_on_c, 0, 50, 0
2, 20687, Note_on_c, 0, 87, 56
2, 20687, Note_on_c, 0, 75, 53
2, 20695, Note_on_c, 0, 75, 0
2, 20698, Note_on_c, 0, 87, 0
2, 20722, Note_on_c, 0, 74, 46
2, 20724, Note_on_c, 0, 86, 46
2, 20829, Note_on_c, 0, 64, 51
2, 20834, Note_on_c, 0, 59, 43
2, 20835, Note_on_c, 0, 53, 29
2, 20863, Note_on_c, 0, 64, 0
2, 20867, Note_on_c, 0, 86, 0
2, 20870, Note_on_c, 0, 59, 0
2, 20879, Note_on_c, 0, 74, 0
2, 20882, Note_on_c, 0, 53, 0
2, 20950, Note_on_c, 0, 84, 82
2, 20951, Note_on_c, 0, 72, 79
2, 20999, Note_on_c, 0, 84, 0
2, 21015, Note_on_c, 0, 72, 0
2, 21130, Note_on_c, 0, 83, 56
2, 21130, Note_on_c, 0, 71, 49
2, 21130, Note_on_c, 0, 76, 45
2, 21131, Note_on_c, 0, 79, 47
2, 21133, Control_c, 0, 64, 0
2, 21134, Note_on_c, 0, 43, 48
2, 21155, Control_c, 0, 64, 127
2, 21160, Note_on_c, 0, 83, 0
2, 21164, Note_on_c, 0, 79, 0
2, 21170, Note_on_c, 0, 76, 0
2, 21176, Note_on_c, 0, 71, 0
2, 21193, Note_on_c, 0, 50, 36
2, 21242, Note_on_c, 0, 50, 0
2, 21253, Note_on_c, 0, 43, 0
2, 21254, Note_on_c, 0, 71, 36
2, 21255, Note_on_c, 0, 52, 45
2, 21255, Note_on_c, 0, 62, 49
2, 21257, Note_on_c, 0, 64, 43
2, 21265, Note_on_c, 0, 64, 0
2, 21265, Note_on_c, 0, 52, 0
2, 21267, Note_on_c, 0, 71, 0
2, 21270, Note_on_c, 0, 62, 0
2, 21320, Note_on_c, 0, 67, 38
2, 21320, Note_on_c, 0, 59, 53
2, 21321, Note_on_c, 0, 62, 53
2, 21322, Note_on_c, 0, 64, 49
2, 21329, Note_on_c, 0, 55, 17
2, 21350, Note_on_c, 0, 55, 0
2, 21437, Note_on_c, 0, 45, 80
2, 21470, Note_on_c, 0, 44, 61
2, 21476, Note_on_c, 0, 45, 0
2, 21489, Control_c, 0, 64, 0
2, 21499, Note_on_c, 0, 44, 0
2, 21504, Note_on_c, 0, 43, 70
2, 21505, Note_on_c, 0, 62, 0
2, 21506, Note_on_c, 0, 64, 0
2, 21510, Control_c, 0, 64, 127
2, 21512, Note_on_c, 0, 67, 0
2, 21514, Note_on_c, 0, 59, 0
2, 21565, Note_on_c, 0, 43, 0
2, 21568, Note_on_c, 0, 42, 82
2, 21583, Control_c, 0, 64, 0
2, 21601, Control_c, 0, 64, 127
2, 21641, Note_on_c, 0, 49, 56
2, 21660, Note_on_c, 0, 51, 59
2, 21662, Note_on_c, 0, 49, 0
2, 21673, Note_on_c, 0, 51, 0
2, 21677, Note_on_c, 0, 52, 70
2, 21692, Note_on_c, 0, 52, 0
2, 21696, Note_on_c, 0, 54, 52
2, 21715, Note_on_c, 0, 54, 0
2, 21720, Control_c, 0, 64, 0
2, 21724, Note_on_c, 0, 55, 62
2, 21729, Note_on_c, 0, 42, 0
2, 21741, Note_on_c, 0, 55, 0
2, 21744, Note_on_c, 0, 57, 51
2, 21758, Note_on_c, 0, 57, 0
2, 21760, Note_on_c, 0, 58, 60
2, 21767, Note_on_c, 0, 58, 0
2, 21777, Note_on_c, 0, 60, 64
2, 21787, Note_on_c, 0, 60, 0
2, 21823, Note_on_c, 0, 64, 59
2, 21830, Note_on_c, 0, 64, 0
2, 21839, Note_on_c, 0, 66, 35
2, 21845, Note_on_c, 0, 66, 0
2, 21855, Note_on_c, 0, 67, 57
2, 21869, Note_on_c, 0, 67, 0
2, 21873, Note_on_c, 0, 69, 61
2, 21882, Control_c, 0, 64, 127
2, 21887, Note_on_c, 0, 69, 0
2, 21888, Note_on_c, 0, 70, 69
2, 21894, Note_on_c, 0, 70, 0
2, 21908, Note_on_c, 0, 72, 55
2, 21922, Note_on_c, 0, 72, 0
2, 21922, Note_on_c, 0, 73, 59
2, 21933, Control_c, 0, 64, 0
2, 21935, Note_on_c, 0, 63, 30
2, 21936, Note_on_c, 0, 73, 0
2, 21939, Note_on_c, 0, 58, 35
2, 21940, Note_on_c, 0, 75, 55
2, 21942, Note_on_c, 0, 52, 38
2, 21953, Note_on_c, 0, 75, 0
2, 21957, Note_on_c, 0, 76, 58
2, 21974, Note_on_c, 0, 76, 0
2, 21980, Control_c, 0, 64, 127
2, 21980, Note_on_c, 0, 77, 35
2, 21989, Note_on_c, 0, 77, 0
2, 21991, Note_on_c, 0, 78, 36
2, 21998, Note_on_c, 0, 78, 0
2, 22010, Note_on_c, 0, 79, 36
2, 22013, Note_on_c, 0, 52, 0
2, 22020, Note_on_c, 0, 79, 0
2, 22024, Note_on_c, 0, 63, 0
2, 22024, Note_on_c, 0, 80, 29
2, 22028, Note_on_c, 0, 58, 0
2, 22040, Note_on_c, 0, 80, 0
2, 22046, Note_on_c, 0, 81, 35
2, 22057, Note_on_c, 0, 81, 0
2, 22057, Note_on_c, 0, 84, 71
2, 22078, Note_on_c, 0, 64, 28
2, 22079, Note_on_c, 0, 60, 40
2, 22081, Note_on_c, 0, 57, 37
2, 22081, Note_on_c, 0, 81, 52
2, 22084, Control_c, 0, 64, 0
2, 22085, Note_on_c, 0, 53, 24
2, 22092, Note_on_c, 0, 84, 0
2, 22122, Control_c, 0, 64, 127
2, 22129, Note_on_c, 0, 81, 0
2, 22131, Note_on_c, 0, 76, 35
2, 22182, Note_on_c, 0, 76, 0
2, 22189, Note_on_c, 0, 64, 0
2, 22198, Note_on_c, 0, 79, 50
2, 22200, Note_on_c, 0, 67, 40
2, 22222, Note_on_c, 0, 60, 0
2, 22265, Note_on_c, 0, 64, 34
2, 22268, Note_on_c, 0, 60, 31
2, 22284, Note_on_c, 0, 64, 0
2, 22285, Note_on_c, 0, 79, 0
2, 22292, Note_on_c, 0, 60, 0
2, 22313, Note_on_c, 0, 57, 0
2, 22327, Note_on_c, 0, 67, 0
2, 22390, Note_on_c, 0, 64, 41
2, 22394, Note_on_c, 0, 60, 35
2, 22397, Note_on_c, 0, 57, 28
2, 22449, Note_on_c, 0, 86, 83
2, 22450, Note_on_c, 0, 79, 80
2, 22469, Note_on_c, 0, 53, 0
2, 22475, Note_on_c, 0, 86, 0
2, 22476, Note_on_c, 0, 79, 0
2, 22484, Note_on_c, 0, 74, 38
2, 22486, Note_on_c, 0, 83, 47
2, 22496, Note_on_c, 0, 60, 0
2, 22497, Note_on_c, 0, 57, 0
2, 22501, Note_on_c, 0, 64, 0
2, 22503, Note_on_c, 0, 74, 0
2, 22510, Note_on_c, 0, 83, 0
2, 22517, Note_on_c, 0, 86, 68
2, 22520, Note_on_c, 0, 79, 55
2, 22536, Note_on_c, 0, 79, 0
2, 22542, Note_on_c, 0, 86, 0
2, 22550, Note_on_c, 0, 74, 36
2, 22555, Note_on_c, 0, 83, 44
2, 22568, Note_on_c, 0, 74, 0
2, 22572, Note_on_c, 0, 83, 0
2, 22579, Control_c, 0, 64, 0
2, 22579, Note_on_c, 0, 53, 32
2, 22581, Note_on_c, 0, 59, 31
2, 22581, Note_on_c, 0, 55, 43
2, 22582, Note_on_c, 0, 74, 38
2, 22582, Note_on_c, 0, 86, 57
2, 22583, Note_on_c, 0, 62, 31
2, 22584, Note_on_c, 0, 79, 41
2, 22599, Control_c, 0, 64, 127
2, 22600, Note_on_c, 0, 86, 0
2, 22602, Note_on_c, 0, 79, 0
2, 22611, Note_on_c, 0, 74, 0
2, 22640, Note_on_c, 0, 79, 42
2, 22646, Note_on_c, 0, 71, 28
2, 22659, Note_on_c, 0, 62, 0
2, 22671, Note_on_c, 0, 59, 0
2, 22683, Note_on_c, 0, 71, 0
2, 22686, Note_on_c, 0, 79, 0
2, 22690, Note_on_c, 0, 55, 0
2, 22703, Note_on_c, 0, 74, 32
2, 22706, Note_on_c, 0, 67, 24
2, 22708, Note_on_c, 0, 71, 20
2, 22763, Note_on_c, 0, 62, 33
2, 22768, Note_on_c, 0, 59, 29
2, 22781, Note_on_c, 0, 59, 0
2, 22781, Note_on_c, 0, 62, 0
2, 22844, Note_on_c, 0, 71, 0
2, 22846, Note_on_c, 0, 67, 0
2, 22877, Note_on_c, 0, 62, 35
2, 22880, Note_on_c, 0, 59, 34
2, 22881, Note_on_c, 0, 55, 36
2, 22889, Note_on_c, 0, 74, 0
2, 22891, Note_on_c, 0, 53, 0
2, 22938, Note_on_c, 0, 62, 0
2, 22942, Note_on_c, 0, 59, 0
2, 22949, Note_on_c, 0, 55, 0
2, 22990, Note_on_c, 0, 50, 43
2, 23031, Note_on_c, 0, 50, 0
2, 23043, Control_c, 0, 64, 0
2, 23047, Note_on_c, 0, 52, 51
2, 23063, Note_on_c, 0, 52, 0
2, 23065, Control_c, 0, 64, 127
2, 23106, Note_on_c, 0, 79, 78
2, 23146, Note_on_c, 0, 79, 0
2, 23161, Note_on_c, 0, 76, 37
2, 23162, Note_on_c, 0, 67, 38
2, 23163, Note_on_c, 0, 72, 36
2, 23164, Note_on_c, 0, 62, 40
2, 23167, Note_on_c, 0, 56, 29
2, 23210, Note_on_c, 0, 67, 0
2, 23213, Note_on_c, 0, 72, 0
2, 23216, Note_on_c, 0, 76, 0
2, 23279, Note_on_c, 0, 62, 0
2, 23285, Note_on_c, 0, 91, 83
2, 23322, Note_on_c, 0, 91, 0
2, 23346, Note_on_c, 0, 88, 46
2, 23349, Note_on_c, 0, 84, 64
2, 23352, Note_on_c, 0, 62, 36
2, 23354, Note_on_c, 0, 79, 45
2, 23364, Note_on_c, 0, 62, 0
2, 23365, Note_on_c, 0, 56, 0
2, 23370, Note_on_c, 0, 88, 0
2, 23372, Note_on_c, 0, 84, 0
2, 23382, Note_on_c, 0, 79, 0
2, 23446, Note_on_c, 0, 84, 92
2, 23480, Note_on_c, 0, 84, 0
2, 23510, Note_on_c, 0, 55, 44
2, 23513, Note_on_c, 0, 81, 69
2, 23517, Note_on_c, 0, 61, 45
2, 23518, Note_on_c, 0, 60, 33
2, 23519, Note_on_c, 0, 77, 61
2, 23522, Note_on_c, 0, 65, 59
2, 23522, Note_on_c, 0, 73, 57
2, 23523, Control_c, 0, 64, 0
2, 23546, Control_c, 0, 64, 127
2, 23617, Note_on_c, 0, 81, 0
2, 23620, Note_on_c, 0, 77, 0
2, 23630, Note_on_c, 0, 73, 0
2, 23634, Note_on_c, 0, 61, 0
2, 23641, Note_on_c, 0, 65, 0
2, 23646, Note_on_c, 0, 60, 0
2, 23678, Note_on_c, 0, 55, 0
2, 23760, Note_on_c, 0, 61, 62
2, 23761, Note_on_c, 0, 72, 60
2, 23763, Note_on_c, 0, 65, 64
2, 23765, Note_on_c, 0, 60, 53
2, 23766, Note_on_c, 0, 69, 49
2, 23803, Note_on_c, 0, 69, 0
2, 23806, Note_on_c, 0, 65, 0
2, 23810, Note_on_c, 0, 61, 0
2, 23815, Note_on_c, 0, 60, 0
2, 23816, Note_on_c, 0, 72, 0
2, 23823, Note_on_c, 0, 61, 21
2, 23824, Note_on_c, 0, 70, 35
2, 23826, Note_on_c, 0, 58, 26
2, 23851, Note_on_c, 0, 61, 0
2, 23857, Note_on_c, 0, 70, 0
2, 23860, Note_on_c, 0, 58, 0
2, 23881, Note_on_c, 0, 69, 51
2, 23882, Note_on_c, 0, 57, 32
2, 23888, Control_c, 0, 64, 0
2, 23899, Note_on_c, 0, 69, 0
2, 23912, Note_on_c, 0, 57, 0
2, 23933, Control_c, 0, 64, 127
2, 23943, Note_on_c, 0, 52, 35
2, 23974, Note_on_c, 0, 52, 0
2, 24001, Note_on_c, 0, 50, 35
2, 24004, Note_on_c, 0, 65, 47
2, 24005, Note_on_c, 0, 57, 30
2, 24012, Control_c, 0, 64, 0
2, 24019, Note_on_c, 0, 65, 0
2, 24021, Note_on_c, 0, 57, 0
2, 24029, Note_on_c, 0, 50, 0
2, 24064, Note_on_c, 0, 65, 44
2, 24068, Note_on_c, 0, 60, 29
2, 24075, Note_on_c, 0, 65, 0
2, 24077, Note_on_c, 0, 60, 0
2, 24123, Note_on_c, 0, 65, 37
2, 24126, Note_on_c, 0, 62, 32
2, 24126, Note_on_c, 0, 57, 24
2, 24135, Note_on_c, 0, 57, 0
2, 24137, Note_on_c, 0, 65, 0
2, 24143, Note_on_c, 0, 62, 0
2, 24181, Note_on_c, 0, 62, 52
2, 24181, Note_on_c, 0, 50, 76
2, 24182, Note_on_c, 0, 57, 48
2, 24182, Note_on_c, 0, 65, 44
2, 24184, Note_on_c, 0, 60, 36
2, 24190, Note_on_c, 0, 65, 0
2, 24191, Note_on_c, 0, 60, 0
2, 24193, Note_on_c, 0, 57, 0
2, 24197, Note_on_c, 0, 62, 0
2, 24246, Note_on_c, 0, 62, 33
2, 24247, Note_on_c, 0, 60, 36
2, 24248, Note_on_c, 0, 57, 32
2, 24250, Note_on_c, 0, 65, 20
2, 24254, Note_on_c, 0, 60, 0
2, 24255, Note_on_c, 0, 57, 0
2, 24256, Note_on_c, 0, 65, 0
2, 24259, Note_on_c, 0, 62, 0
2, 24307, Note_on_c, 0, 62, 36
2, 24307, Note_on_c, 0, 57, 37
2, 24307, Note_on_c, 0, 65, 40
2, 24309, Note_on_c, 0, 60, 38
2, 24314, Note_on_c, 0, 65, 0
2, 24315, Note_on_c, 0, 57, 0
2, 24315, Note_on_c, 0, 60, 0
2, 24322, Note_on_c, 0, 62, 0
2, 24357, Note_on_c, 0, 50, 0
2, 24366, Note_on_c, 0, 65, 72
2, 24366, Note_on_c, 0, 60, 71
2, 24367, Note_on_c, 0, 62, 63
2, 24368, Note_on_c, 0, 57, 87
2, 24378, Note_on_c, 0, 60, 0
2, 24384, Note_on_c, 0, 65, 0
2, 24387, Note_on_c, 0, 62, 0
2, 24428, Note_on_c, 0, 62, 40
2, 24428, Note_on_c, 0, 65, 27
2, 24436, Note_on_c, 0, 65, 0
2, 24443, Note_on_c, 0, 62, 0
2, 24487, Note_on_c, 0, 62, 49
2, 24488, Note_on_c, 0, 60, 39
2, 24488, Note_on_c, 0, 65, 36
2, 24491, Control_c, 0, 64, 127
2, 24495, Note_on_c, 0, 60, 0
2, 24496, Note_on_c, 0, 65, 0
2, 24499, Note_on_c, 0, 62, 0
2, 24526, Note_on_c, 0, 57, 0
2, 24544, Note_on_c, 0, 55, 74
2, 24545, Control_c, 0, 64, 0
2, 24545, Note_on_c, 0, 60, 66
2, 24547, Note_on_c, 0, 62, 64
2, 24548, Note_on_c, 0, 65, 60
2, 24575, Note_on_c, 0, 60, 0
2, 24577, Note_on_c, 0, 65, 0
2, 24579, Note_on_c, 0, 62, 0
2, 24609, Note_on_c, 0, 65, 28
2, 24613, Note_on_c, 0, 60, 17
2, 24623, Note_on_c, 0, 60, 0
2, 24627, Note_on_c, 0, 65, 0
2, 24659, Note_on_c, 0, 43, 50
2, 24662, Note_on_c, 0, 60, 42
2, 24663, Note_on_c, 0, 62, 51
2, 24665, Note_on_c, 0, 65, 35
2, 24671, Note_on_c, 0, 65, 0
2, 24673, Note_on_c, 0, 60, 0
2, 24673, Control_c, 0, 64, 127
2, 24675, Note_on_c, 0, 62, 0
2, 24694, Control_c, 0, 64, 0
2, 24695, Note_on_c, 0, 55, 0
2, 24721, Note_on_c, 0, 65, 69
2, 24722, Note_on_c, 0, 60, 59
2, 24723, Note_on_c, 0, 55, 40
2, 24723, Note_on_c, 0, 62, 55
2, 24725, Control_c, 0, 64, 127
2, 24763, Note_on_c, 0, 43, 0
2, 24769, Note_on_c, 0, 65, 0
2, 24775, Note_on_c, 0, 62, 0
2, 24778, Note_on_c, 0, 64, 60
2, 24803, Note_on_c, 0, 60, 0
2, 24822, Note_on_c, 0, 64, 0
2, 24827, Note_on_c, 0, 55, 0
2, 24837, Note_on_c, 0, 62, 55
2, 24837, Note_on_c, 0, 43, 30
2, 24850, Note_on_c, 0, 43, 0
2, 24889, Note_on_c, 0, 62, 0
2, 24893, Note_on_c, 0, 60, 55
2, 24913, Note_on_c, 0, 60, 0
2, 24953, Note_on_c, 0, 62, 55
2, 24954, Note_on_c, 0, 34, 45
2, 24954, Note_on_c, 0, 22, 47
2, 24955, Note_on_c, 0, 58, 46
2, 24958, Control_c, 0, 64, 0
2, 24961, Note_on_c, 0, 53, 29
2, 24980, Control_c, 0, 64, 127
2, 25013, Note_on_c, 0, 53, 0
2, 25020, Note_on_c, 0, 22, 0
2, 25028, Note_on_c, 0, 34, 0
2, 25034, Note_on_c, 0, 58, 0
2, 25037, Note_on_c, 0, 62, 0
2, 25139, Note_on_c, 0, 74, 30
2, 25139, Note_on_c, 0, 65, 49
2, 25140, Note_on_c, 0, 70, 51
2, 25143, Note_on_c, 0, 62, 49
2, 25146, Note_on_c, 0, 58, 37
2, 25169, Note_on_c, 0, 62, 0
2, 25183, Note_on_c, 0, 74, 0
2, 25188, Note_on_c, 0, 58, 0
2, 25189, Note_on_c, 0, 70, 0
2, 25193, Note_on_c, 0, 65, 0
2, 25315, Note_on_c, 0, 60, 68
2, 25316, Note_on_c, 0, 67, 49
2, 25318, Note_on_c, 0, 57, 60
2, 25318, Note_on_c, 0, 43, 53
2, 25318, Note_on_c, 0, 65, 50
2, 25319, Control_c, 0, 64, 0
2, 25319, Note_on_c, 0, 53, 42
2, 25339, Control_c, 0, 64, 127
2, 25428, Note_on_c, 0, 60, 0
2, 25435, Note_on_c, 0, 53, 0
2, 25445, Note_on_c, 0, 57, 0
2, 25468, Note_on_c, 0, 43, 0
2, 25501, Note_on_c, 0, 57, 36
2, 25502, Note_on_c, 0, 60, 40
2, 25503, Note_on_c, 0, 43, 40
2, 25507, Note_on_c, 0, 53, 30
2, 25568, Note_on_c, 0, 43, 0
2, 25607, Note_on_c, 0, 57, 0
2, 25613, Note_on_c, 0, 60, 0
2, 25617, Note_on_c, 0, 43, 61
2, 25618, Note_on_c, 0, 65, 0
2, 25628, Note_on_c, 0, 67, 0
2, 25629, Note_on_c, 0, 53, 0
2, 25676, Note_on_c, 0, 55, 68
2, 25742, Note_on_c, 0, 71, 64
2, 25744, Note_on_c, 0, 62, 78
2, 25782, Note_on_c, 0, 62, 0
2, 25789, Note_on_c, 0, 71, 0
2, 25789, Note_on_c, 0, 43, 0
2, 25798, Note_on_c, 0, 55, 0
2, 25824, Note_on_c, 0, 72, 81
2, 25827, Note_on_c, 0, 62, 75
2, 25828, Note_on_c, 0, 64, 66
2, 25838, Note_on_c, 0, 62, 0
2, 25858, Note_on_c, 0, 64, 0
2, 25869, Note_on_c, 0, 72, 0
2, 25909, Note_on_c, 0, 74, 73
2, 25913, Note_on_c, 0, 69, 85
2, 25916, Note_on_c, 0, 65, 84
2, 25924, Control_c, 0, 64, 0
2, 25954, Control_c, 0, 64, 127
2, 25987, Note_on_c, 0, 55, 36
2, 26023, Note_on_c, 0, 55, 0
2, 26087, Note_on_c, 0, 55, 47
2, 26096, Note_on_c, 0, 55, 0
2, 26149, Note_on_c, 0, 43, 53
2, 26221, Note_on_c, 0, 31, 48
2, 26243, Note_on_c, 0, 31, 0
2, 26249, Note_on_c, 0, 43, 0
2, 26302, Note_on_c, 0, 65, 0
2, 26317, Note_on_c, 0, 74, 0
2, 26318, Note_on_c, 0, 69, 0
2, 26343, Note_on_c, 0, 74, 37
2, 26380, Note_on_c, 0, 74, 0
2, 26401, Note_on_c, 0, 74, 46
2, 26402, Note_on_c, 0, 71, 59
2, 26406, Note_on_c, 0, 68, 42
2, 26410, Note_on_c, 0, 65, 33
2, 26422, Control_c, 0, 64, 0
2, 26429, Control_c, 0, 64, 127
2, 26535, Note_on_c, 0, 55, 45
2, 26541, Note_on_c, 0, 55, 0
2, 26701, Note_on_c, 0, 31, 41
2, 26709, Note_on_c, 0, 31, 0
2, 26759, Note_on_c, 0, 74, 0
2, 26762, Note_on_c, 0, 71, 0
2, 26767, Note_on_c, 0, 72, 45
2, 26774, Note_on_c, 0, 68, 0
2, 26781, Note_on_c, 0, 65, 0
2, 26795, Note_on_c, 0, 72, 0
2, 26829, Note_on_c, 0, 79, 74
2, 26873, Note_on_c, 0, 79, 0
2, 26890, Note_on_c, 0, 79, 48
2, 26892, Note_on_c, 0, 67, 42
2, 26894, Note_on_c, 0, 62, 34
2, 26897, Note_on_c, 0, 71, 38
2, 26898, Note_on_c, 0, 64, 33
2, 26900, Control_c, 0, 64, 0
2, 26908, Control_c, 0, 64, 127
2, 26922, Note_on_c, 0, 67, 0
2, 26966, Note_on_c, 0, 79, 0
2, 26967, Note_on_c, 0, 55, 28
2, 26971, Note_on_c, 0, 71, 0
2, 27019, Note_on_c, 0, 64, 0
2, 27020, Note_on_c, 0, 62, 0
2, 27061, Note_on_c, 0, 62, 36
2, 27062, Note_on_c, 0, 64, 43
2, 27063, Note_on_c, 0, 67, 34
2, 27063, Note_on_c, 0, 71, 36
2, 27073, Note_on_c, 0, 67, 0
2, 27081, Note_on_c, 0, 71, 0
2, 27125, Note_on_c, 0, 86, 71
2, 27148, Note_on_c, 0, 86, 0
2, 27159, Note_on_c, 0, 62, 0
2, 27172, Note_on_c, 0, 64, 0
2, 27204, Note_on_c, 0, 64, 20
2, 27223, Note_on_c, 0, 64, 0
2, 27362, Note_on_c, 0, 84, 48
2, 27367, Note_on_c, 0, 81, 65
2, 27369, Note_on_c, 0, 83, 29
2, 27370, Note_on_c, 0, 60, 25
2, 27371, Note_on_c, 0, 65, 55
2, 27372, Note_on_c, 0, 77, 61
2, 27374, Note_on_c, 0, 61, 31
2, 27376, Note_on_c, 0, 83, 0
2, 27376, Note_on_c, 0, 73, 64
2, 27380, Control_c, 0, 64, 0
2, 27397, Control_c, 0, 64, 127
2, 27403, Note_on_c, 0, 55, 0
2, 27442, Note_on_c, 0, 55, 48
2, 27467, Note_on_c, 0, 84, 0
2, 27472, Note_on_c, 0, 81, 0
2, 27482, Note_on_c, 0, 77, 0
2, 27491, Note_on_c, 0, 73, 0
2, 27507, Note_on_c, 0, 60, 0
2, 27528, Note_on_c, 0, 55, 0
2, 27548, Note_on_c, 0, 65, 0
2, 27560, Note_on_c, 0, 55, 40
2, 27574, Note_on_c, 0, 61, 0
2, 27662, Note_on_c, 0, 73, 35
2, 27663, Note_on_c, 0, 70, 39
2, 27664, Note_on_c, 0, 61, 36
2, 27664, Note_on_c, 0, 67, 36
2, 27667, Note_on_c, 0, 65, 31
2, 27704, Note_on_c, 0, 55, 0
2, 27733, Note_on_c, 0, 76, 66
2, 27736, Note_on_c, 0, 55, 47
2, 27759, Note_on_c, 0, 55, 0
2, 27789, Note_on_c, 0, 76, 0
2, 27797, Note_on_c, 0, 65, 0
2, 27797, Note_on_c, 0, 67, 0
2, 27803, Note_on_c, 0, 76, 68
2, 27807, Note_on_c, 0, 73, 0
2, 27808, Note_on_c, 0, 55, 44
2, 27809, Note_on_c, 0, 70, 0
2, 27825, Note_on_c, 0, 61, 0
2, 27865, Note_on_c, 0, 76, 0
2, 27888, Note_on_c, 0, 74, 34
2, 27889, Note_on_c, 0, 65, 41
2, 27889, Note_on_c, 0, 62, 32
2, 27890, Note_on_c, 0, 69, 53
2, 27893, Control_c, 0, 64, 0
2, 27917, Control_c, 0, 64, 127
2, 27935, Note_on_c, 0, 55, 0
2, 27966, Note_on_c, 0, 55, 50
2, 27983, Note_on_c, 0, 55, 0
2, 28037, Note_on_c, 0, 55, 55
2, 28085, Note_on_c, 0, 65, 0
2, 28086, Note_on_c, 0, 62, 0
2, 28089, Note_on_c, 0, 69, 0
2, 28099, Note_on_c, 0, 74, 0
2, 28139, Note_on_c, 0, 74, 61
2, 28144, Note_on_c, 0, 69, 83
2, 28145, Note_on_c, 0, 62, 60
2, 28147, Note_on_c, 0, 65, 81
2, 28195, Note_on_c, 0, 55, 0
2, 28207, Note_on_c, 0, 74, 0
2, 28224, Note_on_c, 0, 74, 61
2, 28228, Note_on_c, 0, 55, 51
2, 28245, Note_on_c, 0, 69, 0
2, 28248, Note_on_c, 0, 65, 0
2, 28255, Note_on_c, 0, 62, 0
2, 28284, Note_on_c, 0, 74, 0
2, 28304, Note_on_c, 0, 74, 53
2, 28307, Note_on_c, 0, 72, 70
2, 28308, Note_on_c, 0, 68, 73
2, 28310, Note_on_c, 0, 65, 41
2, 28311, Note_on_c, 0, 67, 48
2, 28317, Note_on_c, 0, 67, 0
2, 28318, Control_c, 0, 64, 0
2, 28347, Control_c, 0, 64, 127
2, 28360, Note_on_c, 0, 55, 0
2, 28383, Note_on_c, 0, 55, 51
2, 28433, Note_on_c, 0, 55, 0
2, 28459, Note_on_c, 0, 74, 0
2, 28474, Note_on_c, 0, 72, 0
2, 28479, Note_on_c, 0, 74, 46
2, 28482, Note_on_c, 0, 55, 45
2, 28524, Note_on_c, 0, 65, 0
2, 28529, Note_on_c, 0, 68, 0
2, 28540, Note_on_c, 0, 74, 0
2, 28556, Note_on_c, 0, 74, 50
2, 28560, Note_on_c, 0, 68, 48
2, 28560, Note_on_c, 0, 65, 40
2, 28560, Note_on_c, 0, 71, 52
2, 28564, Note_on_c, 0, 64, 37
2, 28565, Control_c, 0, 64, 0
2, 28580, Control_c, 0, 64, 127
2, 28600, Note_on_c, 0, 55, 0
2, 28634, Note_on_c, 0, 71, 0
2, 28635, Note_on_c, 0, 55, 47
2, 28655, Note_on_c, 0, 68, 0
2, 28682, Note_on_c, 0, 64, 0
2, 28693, Note_on_c, 0, 65, 0
2, 28696, Note_on_c, 0, 55, 0
2, 28721, Note_on_c, 0, 74, 0
2, 28738, Note_on_c, 0, 55, 51
2, 28866, Note_on_c, 0, 79, 87
2, 28867, Note_on_c, 0, 62, 39
2, 28870, Note_on_c, 0, 67, 66
2, 28870, Note_on_c, 0, 64, 57
2, 28872, Control_c, 0, 64, 0
2, 28872, Note_on_c, 0, 74, 77
2, 28874, Note_on_c, 0, 71, 71
2, 28888, Control_c, 0, 64, 127
2, 28902, Note_on_c, 0, 67, 0
2, 28906, Note_on_c, 0, 74, 0
2, 28909, Note_on_c, 0, 79, 0
2, 28915, Note_on_c, 0, 71, 0
2, 28923, Note_on_c, 0, 55, 0
2, 28942, Note_on_c, 0, 76, 59
2, 28946, Note_on_c, 0, 55, 49
2, 28947, Note_on_c, 0, 71, 59
2, 28951, Note_on_c, 0, 67, 46
2, 28963, Note_on_c, 0, 62, 0
2, 28964, Note_on_c, 0, 64, 0
2, 28970, Note_on_c, 0, 71, 0
2, 28970, Note_on_c, 0, 76, 0
2, 28972, Note_on_c, 0, 67, 0
2, 28981, Note_on_c, 0, 55, 0
2, 29033, Note_on_c, 0, 64, 41
2, 29036, Note_on_c, 0, 67, 28
2, 29036, Note_on_c, 0, 62, 51
2, 29037, Note_on_c, 0, 59, 39
2, 29039, Note_on_c, 0, 55, 48
2, 29064, Note_on_c, 0, 55, 0
2, 29123, Note_on_c, 0, 43, 44
2, 29174, Note_on_c, 0, 64, 0
2, 29175, Note_on_c, 0, 62, 0
2, 29185, Note_on_c, 0, 67, 0
2, 29193, Note_on_c, 0, 59, 0
2, 29205, Note_on_c, 0, 31, 30
2, 29213, Note_on_c, 0, 43, 0
2, 29220, Note_on_c, 0, 31, 0
2, 29275, Note_on_c, 0, 63, 37
2, 29276, Note_on_c, 0, 56, 35
2, 29278, Note_on_c, 0, 60, 49
2, 29279, Note_on_c, 0, 42, 26
2, 29281, Note_on_c, 0, 30, 27
2, 29282, Note_on_c, 0, 52, 24
2, 29285, Control_c, 0, 64, 0
2, 29301, Note_on_c, 0, 52, 0
2, 29307, Control_c, 0, 64, 127
2, 29310, Note_on_c, 0, 56, 0
2, 29310, Note_on_c, 0, 60, 0
2, 29318, Note_on_c, 0, 63, 0
2, 29337, Note_on_c, 0, 30, 0
2, 29350, Note_on_c, 0, 42, 0
2, 29354, Note_on_c, 0, 75, 59
2, 29428, Note_on_c, 0, 75, 0
2, 29445, Note_on_c, 0, 68, 37
2, 29446, Note_on_c, 0, 58, 35
2, 29446, Note_on_c, 0, 72, 42
2, 29447, Note_on_c, 0, 64, 33
2, 29460, Note_on_c, 0, 64, 0
2, 29468, Note_on_c, 0, 68, 0
2, 29471, Note_on_c, 0, 72, 0
2, 29521, Note_on_c, 0, 87, 67
2, 29550, Note_on_c, 0, 58, 0
2, 29638, Note_on_c, 0, 87, 0
2, 29762, Note_on_c, 0, 48, 30
2, 29763, Note_on_c, 0, 86, 35
2, 29764, Note_on_c, 0, 41, 24
2, 29765, Note_on_c, 0, 74, 24
2, 29769, Note_on_c, 0, 57, 30
2, 29769, Control_c, 0, 64, 0
2, 29791, Control_c, 0, 64, 127
2, 29815, Note_on_c, 0, 41, 0
2, 29818, Note_on_c, 0, 48, 0
2, 29836, Note_on_c, 0, 57, 0
2, 29849, Note_on_c, 0, 74, 0
2, 29856, Note_on_c, 0, 86, 0
2, 29876, Note_on_c, 0, 84, 58
2, 29880, Note_on_c, 0, 72, 32
2, 29902, Note_on_c, 0, 84, 0
2, 29905, Note_on_c, 0, 72, 0
2, 29945, Note_on_c, 0, 81, 49
2, 29950, Note_on_c, 0, 69, 45
2, 29950, Note_on_c, 0, 64, 29
2, 29950, Note_on_c, 0, 60, 33
2, 29954, Note_on_c, 0, 57, 30
2, 29954, Note_on_c, 0, 53, 26
2, 29984, Note_on_c, 0, 81, 0
2, 29999, Note_on_c, 0, 69, 0
2, 30074, Note_on_c, 0, 69, 101
2, 30088, Note_on_c, 0, 69, 0
2, 30102, Note_on_c, 0, 69, 79
2, 30118, Note_on_c, 0, 69, 0
2, 30132, Note_on_c, 0, 69, 64
2, 30147, Note_on_c, 0, 69, 0
2, 30165, Note_on_c, 0, 69, 57
2, 30178, Note_on_c, 0, 69, 0
2, 30178, Note_on_c, 0, 64, 0
2, 30183, Note_on_c, 0, 60, 0
2, 30185, Note_on_c, 0, 57, 0
2, 30191, Note_on_c, 0, 69, 71
2, 30195, Note_on_c, 0, 53, 0
2, 30202, Note_on_c, 0, 69, 0
2, 30223, Note_on_c, 0, 69, 70
2, 30230, Note_on_c, 0, 69, 0
2, 30250, Note_on_c, 0, 69, 71
2, 30253, Note_on_c, 0, 53, 24
2, 30253, Note_on_c, 0, 55, 41
2, 30254, Note_on_c, 0, 62, 39
2, 30255, Note_on_c, 0, 59, 32
2, 30263, Control_c, 0, 64, 0
2, 30295, Control_c, 0, 64, 127
2, 30305, Note_on_c, 0, 69, 0
2, 30311, Note_on_c, 0, 71, 52
2, 30371, Note_on_c, 0, 67, 50
2, 30392, Note_on_c, 0, 59, 0
2, 30397, Note_on_c, 0, 55, 0
2, 30401, Note_on_c, 0, 62, 0
2, 30423, Note_on_c, 0, 62, 35
2, 30428, Note_on_c, 0, 59, 36
2, 30430, Note_on_c, 0, 55, 38
2, 30448, Note_on_c, 0, 62, 0
2, 30460, Note_on_c, 0, 59, 0
2, 30470, Note_on_c, 0, 55, 0
2, 30479, Note_on_c, 0, 67, 0
2, 30513, Note_on_c, 0, 53, 0
2, 30542, Note_on_c, 0, 62, 42
2, 30542, Note_on_c, 0, 67, 37
2, 30545, Note_on_c, 0, 59, 34
2, 30554, Note_on_c, 0, 55, 25
2, 30591, Note_on_c, 0, 62, 0
2, 30640, Note_on_c, 0, 55, 0
2, 30642, Note_on_c, 0, 67, 0
2, 30660, Note_on_c, 0, 59, 0
2, 30718, Note_on_c, 0, 52, 51
2, 30725, Control_c, 0, 64, 0
2, 30748, Control_c, 0, 64, 127
2, 30786, Note_on_c, 0, 67, 56
2, 30786, Note_on_c, 0, 64, 58
2, 30787, Note_on_c, 0, 62, 36
2, 30787, Note_on_c, 0, 56, 37
2, 30814, Note_on_c, 0, 71, 0
2, 30825, Note_on_c, 0, 64, 0
2, 30832, Note_on_c, 0, 67, 0
2, 30845, Note_on_c, 0, 72, 75
2, 30871, Note_on_c, 0, 72, 0
2, 30900, Note_on_c, 0, 52, 0
2, 30901, Note_on_c, 0, 76, 95
2, 30907, Note_on_c, 0, 56, 0
2, 30918, Note_on_c, 0, 62, 0
2, 30940, Note_on_c, 0, 76, 0
2, 30959, Note_on_c, 0, 79, 87
2, 30986, Note_on_c, 0, 79, 0
2, 31019, Note_on_c, 0, 84, 91
2, 31059, Note_on_c, 0, 84, 0
2, 31079, Note_on_c, 0, 89, 71
2, 31080, Note_on_c, 0, 56, 40
2, 31081, Note_on_c, 0, 62, 39
2, 31082, Note_on_c, 0, 67, 33
2, 31103, Note_on_c, 0, 89, 0
2, 31121, Note_on_c, 0, 62, 0
2, 31122, Note_on_c, 0, 67, 0
2, 31140, Note_on_c, 0, 93, 73
2, 31156, Note_on_c, 0, 56, 0
2, 31177, Note_on_c, 0, 93, 0
2, 31200, Note_on_c, 0, 55, 45
2, 31201, Note_on_c, 0, 61, 36
2, 31201, Note_on_c, 0, 84, 50
2, 31201, Note_on_c, 0, 96, 74
2, 31203, Note_on_c, 0, 60, 32
2, 31204, Note_on_c, 0, 65, 37
2, 31207, Control_c, 0, 64, 0
2, 31267, Note_on_c, 0, 92, 45
2, 31278, Note_on_c, 0, 84, 0
2, 31290, Note_on_c, 0, 96, 0
2, 31292, Note_on_c, 0, 92, 0
2, 31299, Note_on_c, 0, 60, 0
2, 31299, Note_on_c, 0, 65, 0
2, 31299, Note_on_c, 0, 61, 0
2, 31306, Note_on_c, 0, 55, 0
2, 31385, Note_on_c, 0, 93, 53
2, 31390, Note_on_c, 0, 65, 30
2, 31390, Note_on_c, 0, 61, 30
2, 31391, Note_on_c, 0, 55, 29
2, 31395, Note_on_c, 0, 60, 28
2, 31450, Note_on_c, 0, 89, 36
2, 31454, Note_on_c, 0, 84, 24
2, 31481, Control_c, 0, 64, 127
2, 31488, Note_on_c, 0, 93, 0
2, 31491, Note_on_c, 0, 89, 0
2, 31502, Note_on_c, 0, 84, 0
2, 31510, Note_on_c, 0, 61, 0
2, 31514, Note_on_c, 0, 60, 0
2, 31518, Note_on_c, 0, 65, 0
2, 31543, Note_on_c, 0, 55, 0
2, 31565, Note_on_c, 0, 61, 33
2, 31572, Note_on_c, 0, 61, 0
2, 31625, Note_on_c, 0, 48, 43
2, 31678, Note_on_c, 0, 48, 0
2, 31684, Note_on_c, 0, 65, 43
2, 31687, Note_on_c, 0, 60, 42
2, 31688, Note_on_c, 0, 57, 35
2, 31689, Note_on_c, 0, 50, 34
2, 31691, Control_c, 0, 64, 0
2, 31726, Note_on_c, 0, 65, 0
2, 31729, Control_c, 0, 64, 127
2, 31749, Note_on_c, 0, 65, 64
2, 31779, Note_on_c, 0, 65, 0
2, 31810, Note_on_c, 0, 65, 68
2, 31837, Note_on_c, 0, 65, 0
2, 31861, Note_on_c, 0, 50, 0
2, 31874, Note_on_c, 0, 65, 69
2, 31878, Note_on_c, 0, 50, 37
2, 31895, Note_on_c, 0, 57, 0
2, 31897, Note_on_c, 0, 60, 0
2, 31897, Note_on_c, 0, 50, 0
2, 31906, Note_on_c, 0, 65, 0
2, 31940, Note_on_c, 0, 65, 51
2, 31941, Note_on_c, 0, 50, 37
2, 31944, Note_on_c, 0, 60, 44
2, 31946, Note_on_c, 0, 57, 24
2, 31979, Note_on_c, 0, 50, 0
2, 31982, Note_on_c, 0, 65, 0
2, 32023, Note_on_c, 0, 65, 55
2, 32026, Note_on_c, 0, 50, 33
2, 32040, Note_on_c, 0, 57, 0
2, 32041, Note_on_c, 0, 50, 0
2, 32046, Note_on_c, 0, 65, 0
2, 32048, Note_on_c, 0, 60, 0
2, 32119, Note_on_c, 0, 65, 43
2, 32119, Note_on_c, 0, 59, 39
2, 32122, Note_on_c, 0, 43, 38
2, 32123, Note_on_c, 0, 62, 36
2, 32123, Note_on_c, 0, 53, 32
2, 32124, Note_on_c, 0, 55, 22
2, 32129, Control_c, 0, 64, 0
2, 32160, Control_c, 0, 64, 127
2, 32258, Note_on_c, 0, 62, 0
2, 32267, Note_on_c, 0, 55, 0
2, 32280, Note_on_c, 0, 59, 0
2, 32290, Note_on_c, 0, 43, 0
2, 32293, Note_on_c, 0, 65, 0
2, 32295, Note_on_c, 0, 53, 0
2, 32334, Note_on_c, 0, 64, 73
2, 32335, Note_on_c, 0, 43, 42
2, 32336, Note_on_c, 0, 55, 71
2, 32362, Note_on_c, 0, 55, 0
2, 32390, Note_on_c, 0, 64, 0
2, 32403, Note_on_c, 0, 65, 69
2, 32405, Note_on_c, 0, 57, 65
2, 32408, Control_c, 0, 64, 0
2, 32408, Note_on_c, 0, 53, 33
2, 32413, Control_c, 0, 64, 127
2, 32439, Note_on_c, 0, 65, 0
2, 32442, Note_on_c, 0, 43, 0
2, 32446, Note_on_c, 0, 53, 0
2, 32459, Note_on_c, 0, 57, 0
2, 32475, Note_on_c, 0, 67, 55
2, 32495, Note_on_c, 0, 67, 0
2, 32583, Note_on_c, 0, 64, 30
2, 32585, Control_c, 0, 64, 0
2, 32587, Note_on_c, 0, 55, 34
2, 32587, Note_on_c, 0, 43, 22
2, 32589, Note_on_c, 0, 59, 34
2, 32590, Note_on_c, 0, 36, 22
2, 32609, Note_on_c, 0, 55, 0
2, 32610, Control_c, 0, 64, 127
2, 32621, Note_on_c, 0, 59, 0
2, 32631, Note_on_c, 0, 64, 0
2, 32644, Note_on_c, 0, 36, 0
2, 32647, Note_on_c, 0, 52, 1
2, 32652, Note_on_c, 0, 43, 0
2, 32668, Note_on_c, 0, 52, 0
2, 32684, Note_on_c, 0, 74, 60
2, 32705, Note_on_c, 0, 74, 0
2, 32713, Note_on_c, 0, 71, 58
2, 32727, Note_on_c, 0, 71, 0
2, 32739, Note_on_c, 0, 72, 68
2, 32756, Note_on_c, 0, 72, 0
2, 32768, Note_on_c, 0, 76, 62
2, 32786, Note_on_c, 0, 76, 0
2, 32797, Note_on_c, 0, 79, 66
2, 32810, Note_on_c, 0, 79, 0
2, 32833, Note_on_c, 0, 83, 50
2, 32849, Note_on_c, 0, 83, 0
2, 32857, Note_on_c, 0, 60, 34
2, 32857, Note_on_c, 0, 59, 43
2, 32857, Note_on_c, 0, 64, 36
2, 32860, Note_on_c, 0, 86, 84
2, 32863, Note_on_c, 0, 74, 60
2, 32876, Note_on_c, 0, 74, 0
2, 32881, Note_on_c, 0, 86, 0
2, 32891, Note_on_c, 0, 83, 40
2, 32911, Control_c, 0, 64, 0
2, 32914, Note_on_c, 0, 83, 0
2, 32927, Note_on_c, 0, 83, 51
2, 32950, Note_on_c, 0, 83, 0
2, 32989, Control_c, 0, 64, 127
2, 32994, Note_on_c, 0, 60, 0
2, 32995, Note_on_c, 0, 59, 0
2, 33005, Note_on_c, 0, 64, 0
2, 33013, Note_on_c, 0, 79, 40
2, 33031, Note_on_c, 0, 79, 0
2, 33041, Control_c, 0, 64, 0
2, 33067, Control_c, 0, 64, 127
2, 33073, Note_on_c, 0, 79, 40
2, 33122, Note_on_c, 0, 79, 0
2, 33130, Note_on_c, 0, 76, 41
2, 33131, Note_on_c, 0, 60, 32
2, 33131, Note_on_c, 0, 64, 30
2, 33134, Note_on_c, 0, 57, 32
2, 33136, Note_on_c, 0, 53, 24
2, 33182, Note_on_c, 0, 76, 0
2, 33189, Note_on_c, 0, 74, 24
2, 33210, Note_on_c, 0, 74, 0
2, 33239, Note_on_c, 0, 57, 0
2, 33240, Note_on_c, 0, 64, 0
2, 33244, Note_on_c, 0, 60, 0
2, 33278, Note_on_c, 0, 53, 0
2, 33299, Note_on_c, 0, 53, 11
2, 33301, Note_on_c, 0, 60, 29
2, 33301, Note_on_c, 0, 69, 43
2, 33303, Note_on_c, 0, 57, 26
2, 33304, Note_on_c, 0, 64, 24
2, 33373, Note_on_c, 0, 53, 0
2, 33415, Note_on_c, 0, 53, 28
2, 33456, Note_on_c, 0, 64, 0
2, 33474, Note_on_c, 0, 69, 0
2, 33486, Note_on_c, 0, 53, 0
2, 33523, Note_on_c, 0, 60, 0
2, 33525, Note_on_c, 0, 57, 0
2, 33587, Note_on_c, 0, 74, 69
2, 33594, Note_on_c, 0, 69, 79
2, 33597, Note_on_c, 0, 65, 71
2, 33599, Note_on_c, 0, 64, 51
2, 33603, Control_c, 0, 64, 0
2, 33626, Control_c, 0, 64, 127
2, 33640, Note_on_c, 0, 74, 0
2, 33658, Note_on_c, 0, 74, 42
2, 33690, Note_on_c, 0, 74, 0
2, 33713, Note_on_c, 0, 74, 35
2, 33715, Note_on_c, 0, 62, 34
2, 33717, Note_on_c, 0, 64, 0
2, 33748, Note_on_c, 0, 74, 0
2, 33780, Note_on_c, 0, 74, 44
2, 33811, Note_on_c, 0, 74, 0
2, 33817, Note_on_c, 0, 62, 0
2, 33843, Note_on_c, 0, 74, 45
2, 33872, Note_on_c, 0, 74, 0
2, 33901, Note_on_c, 0, 74, 34
2, 33929, Note_on_c, 0, 74, 0
2, 33963, Note_on_c, 0, 74, 34
2, 33974, Note_on_c, 0, 69, 0
2, 33989, Note_on_c, 0, 74, 0
2, 34025, Note_on_c, 0, 65, 0
2, 34030, Note_on_c, 0, 28, 47
2, 34031, Note_on_c, 0, 74, 35
2, 34045, Note_on_c, 0, 28, 0
2, 34206, Note_on_c, 0, 67, 31
2, 34206, Note_on_c, 0, 62, 32
2, 34207, Note_on_c, 0, 56, 31
2, 34386, Note_on_c, 0, 67, 0
2, 34390, Note_on_c, 0, 62, 0
2, 34410, Note_on_c, 0, 56, 0
2, 34414, Note_on_c, 0, 74, 0
2, 34569, Note_on_c, 0, 59, 30
2, 34569, Note_on_c, 0, 61, 33
2, 34569, Note_on_c, 0, 64, 24
2, 34571, Note_on_c, 0, 52, 36
2, 34572, Note_on_c, 0, 45, 29
2, 34583, Control_c, 0, 64, 0
2, 34621, Control_c, 0, 64, 127
2, 34709, Note_on_c, 0, 59, 0
2, 34750, Note_on_c, 0, 57, 36
2, 34765, Note_on_c, 0, 57, 0
2, 34779, Note_on_c, 0, 61, 0
2, 34785, Note_on_c, 0, 64, 0
2, 34869, Note_on_c, 0, 74, 78
2, 34918, Note_on_c, 0, 52, 0
2, 34927, Note_on_c, 0, 74, 0
2, 34931, Note_on_c, 0, 71, 58
2, 34934, Note_on_c, 0, 45, 0
2, 35001, Note_on_c, 0, 43, 43
2, 35021, Note_on_c, 0, 71, 0
2, 35112, Note_on_c, 0, 50, 27
2, 35193, Note_on_c, 0, 50, 0
2, 35238, Note_on_c, 0, 50, 36
2, 35299, Note_on_c, 0, 62, 79
2, 35301, Note_on_c, 0, 57, 83
2, 35334, Note_on_c, 0, 57, 0
2, 35336, Note_on_c, 0, 59, 60
2, 35415, Note_on_c, 0, 55, 47
2, 35448, Note_on_c, 0, 55, 0
2, 35470, Note_on_c, 0, 59, 0
2, 35471, Note_on_c, 0, 62, 0
2, 35484, Note_on_c, 0, 55, 32
2, 35486, Note_on_c, 0, 43, 0
2, 35499, Note_on_c, 0, 50, 0
2, 35522, Note_on_c, 0, 55, 0
2, 35533, Note_on_c, 0, 64, 63
2, 35535, Note_on_c, 0, 45, 46
2, 35537, Note_on_c, 0, 59, 45
2, 35545, Control_c, 0, 64, 0
2, 35583, Note_on_c, 0, 64, 0
2, 35587, Control_c, 0, 64, 127
2, 35593, Note_on_c, 0, 59, 0
2, 35596, Note_on_c, 0, 61, 33
2, 35602, Note_on_c, 0, 61, 0
2, 35602, Note_on_c, 0, 52, 22
2, 35652, Note_on_c, 0, 45, 0
2, 35654, Note_on_c, 0, 52, 0
2, 35657, Note_on_c, 0, 76, 54
2, 35661, Note_on_c, 0, 57, 44
2, 35685, Note_on_c, 0, 57, 0
2, 35717, Note_on_c, 0, 59, 33
2, 35771, Note_on_c, 0, 71, 41
2, 35773, Note_on_c, 0, 76, 0
2, 35776, Note_on_c, 0, 61, 26
2, 35786, Note_on_c, 0, 71, 0
2, 35832, Note_on_c, 0, 64, 48
2, 35885, Note_on_c, 0, 64, 0
2, 35893, Note_on_c, 0, 61, 0
2, 35893, Note_on_c, 0, 83, 74
2, 35896, Note_on_c, 0, 59, 0
2, 35948, Note_on_c, 0, 88, 81
2, 35961, Note_on_c, 0, 83, 0
2, 35994, Note_on_c, 0, 88, 0
2, 36005, Note_on_c, 0, 43, 33
2, 36008, Note_on_c, 0, 86, 51
2, 36011, Control_c, 0, 64, 0
2, 36034, Control_c, 0, 64, 127
2, 36076, Note_on_c, 0, 50, 16
2, 36098, Note_on_c, 0, 43, 0
2, 36120, Note_on_c, 0, 50, 0
2, 36125, Note_on_c, 0, 81, 45
2, 36131, Note_on_c, 0, 57, 37
2, 36186, Note_on_c, 0, 57, 0
2, 36191, Note_on_c, 0, 59, 45
2, 36212, Note_on_c, 0, 86, 0
2, 36254, Note_on_c, 0, 81, 0
2, 36306, Note_on_c, 0, 62, 32
2, 36308, Note_on_c, 0, 83, 47
2, 36367, Note_on_c, 0, 83, 0
2, 36369, Note_on_c, 0, 74, 30
2, 36391, Note_on_c, 0, 74, 0
2, 36392, Note_on_c, 0, 59, 0
2, 36426, Note_on_c, 0, 59, 33
2, 36433, Note_on_c, 0, 62, 0
2, 36472, Note_on_c, 0, 59, 0
2, 36482, Note_on_c, 0, 76, 46
2, 36483, Note_on_c, 0, 71, 36
2, 36489, Note_on_c, 0, 57, 36
2, 36498, Control_c, 0, 64, 0
2, 36516, Note_on_c, 0, 71, 0
2, 36518, Note_on_c, 0, 73, 40
2, 36532, Control_c, 0, 64, 127
2, 36594, Note_on_c, 0, 69, 39
2, 36617, Note_on_c, 0, 57, 0
2, 36651, Note_on_c, 0, 76, 0
2, 36656, Note_on_c, 0, 69, 0
2, 36662, Note_on_c, 0, 73, 0
2, 36663, Note_on_c, 0, 64, 27
2, 36676, Note_on_c, 0, 64, 0
2, 36782, Note_on_c, 0, 61, 35
2, 36782, Note_on_c, 0, 59, 37
2, 36786, Note_on_c, 0, 64, 26
2, 36788, Note_on_c, 0, 52, 24
2, 36789, Note_on_c, 0, 45, 24
2, 36792, Control_c, 0, 64, 0
2, 36793, Note_on_c, 0, 59, 0
2, 36796, Note_on_c, 0, 61, 0
2, 36797, Note_on_c, 0, 64, 0
2, 36798, Note_on_c, 0, 52, 0
2, 36800, Note_on_c, 0, 45, 0
2, 36837, Control_c, 0, 64, 127
2, 36891, Note_on_c, 0, 64, 33
2, 36892, Note_on_c, 0, 61, 35
2, 36894, Note_on_c, 0, 59, 32
2, 36897, Note_on_c, 0, 45, 22
2, 36913, Note_on_c, 0, 59, 0
2, 36914, Note_on_c, 0, 45, 0
2, 36921, Note_on_c, 0, 61, 0
2, 36922, Note_on_c, 0, 64, 0
2, 36960, Note_on_c, 0, 62, 29
2, 36965, Note_on_c, 0, 57, 24
2, 36965, Note_on_c, 0, 59, 33
2, 36966, Note_on_c, 0, 43, 26
2, 36967, Note_on_c, 0, 50, 27
2, 36971, Control_c, 0, 64, 0
2, 36998, Control_c, 0, 64, 127
2, 37035, Note_on_c, 0, 50, 0
2, 37048, Note_on_c, 0, 43, 0
2, 37106, Note_on_c, 0, 59, 0
2, 37107, Note_on_c, 0, 57, 0
2, 37114, Note_on_c, 0, 62, 0
2, 37142, Note_on_c, 0, 43, 43
2, 37144, Note_on_c, 0, 62, 31
2, 37146, Note_on_c, 0, 59, 32
2, 37149, Note_on_c, 0, 31, 20
2, 37151, Note_on_c, 0, 43, 0
2, 37154, Note_on_c, 0, 59, 0
2, 37157, Note_on_c, 0, 62, 0
2, 37157, Control_c, 0, 64, 0
2, 37159, Note_on_c, 0, 31, 0
2, 37252, Note_on_c, 0, 31, 38
2, 37254, Note_on_c, 0, 43, 24
2, 37258, Note_on_c, 0, 62, 30
2, 37262, Control_c, 0, 64, 127
2, 37269, Note_on_c, 0, 43, 0
2, 37278, Note_on_c, 0, 62, 0
2, 37279, Note_on_c, 0, 31, 0
2, 37292, Control_c, 0, 64, 0
2, 37322, Note_on_c, 0, 62, 22
2, 37323, Note_on_c, 0, 43, 25
2, 37324, Note_on_c, 0, 31, 33
2, 37326, Note_on_c, 0, 57, 20
2, 37327, Note_on_c, 0, 59, 28
2, 37328, Control_c, 0, 64, 127
2, 37362, Note_on_c, 0, 43, 0
2, 37378, Note_on_c, 0, 59, 0
2, 37378, Note_on_c, 0, 31, 0
2, 37389, Note_on_c, 0, 57, 0
2, 37396, Note_on_c, 0, 62, 0
2, 37457, Note_on_c, 0, 64, 33
2, 37459, Note_on_c, 0, 61, 33
2, 37460, Note_on_c, 0, 33, 26
2, 37460, Note_on_c, 0, 59, 33
2, 37463, Note_on_c, 0, 21, 22
2, 37480, Control_c, 0, 64, 0
2, 37554, Control_c, 0, 64, 127
2, 37839, Note_on_c, 0, 59, 0
2, 37846, Note_on_c, 0, 61, 0
2, 37852, Note_on_c, 0, 64, 0
2, 37858, Note_on_c, 0, 21, 0
2, 37873, Note_on_c, 0, 33, 0
2, 37873, End_track
0, 0, End_of_file
