0, 0, Header, 1, 4, 120
1, 0, Start_track
1, 0, Title_t, "By Myself"
1, 0, Text_t, "dougmck@pipeline.com.au\012"
1, 0, Time_signature, 4, 2, 24, 8
1, 0, Key_signature, -1, "major"
1, 0, Tempo, 363636
1, 0, Marker_t, "'By Myself' by Arthur Shwartz and Howard Dietz .  Sequence by dougmck@pipeline.com.au"
1, 0, End_track
2, 0, Start_track
2, 0, MIDI_port, 0
2, 0, Title_t, "dougmck@pipeline.com.au"
2, 0, Program_c, 1, 32
2, 13, Note_on_c, 1, 33, 83
2, 213, Note_on_c, 1, 40, 46
2, 225, Note_on_c, 1, 40, 0
2, 329, Note_on_c, 1, 40, 55
2, 339, Note_on_c, 1, 40, 0
2, 374, Note_on_c, 1, 45, 71
2, 439, Note_on_c, 1, 45, 0
2, 448, Note_on_c, 1, 46, 74
2, 565, Note_on_c, 1, 45, 80
2, 579, Note_on_c, 1, 46, 0
2, 730, Note_on_c, 1, 33, 0
2, 805, Note_on_c, 1, 40, 54
2, 822, Note_on_c, 1, 40, 0
2, 833, Note_on_c, 1, 45, 0
2, 844, Note_on_c, 1, 34, 50
2, 921, Note_on_c, 1, 34, 0
2, 925, Note_on_c, 1, 33, 76
2, 1274, Note_on_c, 1, 40, 54
2, 1284, Note_on_c, 1, 40, 0
2, 1322, Note_on_c, 1, 45, 47
2, 1382, Note_on_c, 1, 45, 0
2, 1397, Note_on_c, 1, 46, 77
2, 1458, Note_on_c, 1, 46, 0
2, 1518, Note_on_c, 1, 46, 78
2, 1642, Note_on_c, 1, 40, 44
2, 1653, Note_on_c, 1, 40, 0
2, 1668, Note_on_c, 1, 46, 0
2, 1674, Note_on_c, 1, 33, 0
2, 1682, Note_on_c, 1, 45, 65
2, 1748, Note_on_c, 1, 45, 0
2, 1761, Note_on_c, 1, 34, 74
2, 1787, Note_on_c, 1, 34, 0
2, 1809, Note_on_c, 1, 33, 78
2, 1875, Note_on_c, 1, 33, 0
2, 1890, Note_on_c, 1, 33, 92
2, 2245, Note_on_c, 1, 48, 84
2, 2278, Note_on_c, 1, 48, 0
2, 2297, Note_on_c, 1, 46, 40
2, 2360, Note_on_c, 1, 46, 0
2, 2367, Note_on_c, 1, 45, 73
2, 2401, Note_on_c, 1, 33, 0
2, 2479, Note_on_c, 1, 33, 87
2, 2485, Note_on_c, 1, 45, 0
2, 2708, Note_on_c, 1, 31, 62
2, 2714, Note_on_c, 1, 33, 0
2, 2741, Note_on_c, 1, 31, 0
2, 2754, Note_on_c, 1, 32, 73
2, 2818, Note_on_c, 1, 32, 0
2, 2832, Note_on_c, 1, 33, 87
2, 2993, Note_on_c, 1, 48, 95
2, 3143, Note_on_c, 1, 33, 0
2, 3193, Note_on_c, 1, 33, 57
2, 3207, Note_on_c, 1, 48, 0
2, 3217, Note_on_c, 1, 33, 0
2, 3232, Note_on_c, 1, 46, 60
2, 3309, Note_on_c, 1, 46, 0
2, 3315, Note_on_c, 1, 45, 79
2, 3680, Note_on_c, 1, 33, 62
2, 3690, Note_on_c, 1, 33, 0
2, 3698, Note_on_c, 1, 45, 0
2, 3720, Note_on_c, 1, 43, 54
2, 3790, Note_on_c, 1, 43, 0
2, 3802, Note_on_c, 1, 42, 50
2, 3833, Note_on_c, 1, 42, 0
2, 3848, Note_on_c, 1, 41, 43
2, 3921, Note_on_c, 1, 41, 0
2, 3927, Note_on_c, 1, 36, 72
2, 4084, Note_on_c, 1, 36, 0
2, 4095, Note_on_c, 1, 33, 40
2, 4196, Note_on_c, 1, 33, 0
2, 4208, Note_on_c, 1, 34, 51
2, 4314, Note_on_c, 1, 34, 0
2, 4329, Note_on_c, 1, 35, 62
2, 4410, Note_on_c, 1, 34, 36
2, 4430, Note_on_c, 1, 34, 0
2, 4451, Note_on_c, 1, 47, 80
2, 4456, Note_on_c, 1, 35, 0
2, 4557, Note_on_c, 1, 47, 0
2, 4568, Note_on_c, 1, 41, 51
2, 4650, Note_on_c, 1, 35, 54
2, 4663, Note_on_c, 1, 41, 0
2, 4676, Note_on_c, 1, 35, 0
2, 4691, Note_on_c, 1, 35, 83
2, 4798, Note_on_c, 1, 35, 0
2, 4807, Note_on_c, 1, 34, 63
2, 4902, Note_on_c, 1, 36, 44
2, 4914, Note_on_c, 1, 36, 0
2, 4927, Note_on_c, 1, 48, 88
2, 4943, Note_on_c, 1, 34, 0
2, 5032, Note_on_c, 1, 48, 0
2, 5054, Note_on_c, 1, 47, 58
2, 5130, Note_on_c, 1, 47, 0
2, 5131, Note_on_c, 1, 37, 59
2, 5160, Note_on_c, 1, 37, 0
2, 5176, Note_on_c, 1, 38, 62
2, 5246, Note_on_c, 1, 38, 0
2, 5250, Note_on_c, 1, 39, 81
2, 5365, Note_on_c, 1, 37, 40
2, 5399, Note_on_c, 1, 39, 0
2, 5405, Note_on_c, 1, 41, 61
2, 5409, Note_on_c, 1, 37, 0
2, 5488, Note_on_c, 1, 39, 35
2, 5513, Note_on_c, 1, 39, 0
2, 5515, Note_on_c, 1, 41, 0
2, 5530, Note_on_c, 1, 43, 45
2, 5601, Note_on_c, 1, 39, 63
2, 5615, Note_on_c, 1, 43, 0
2, 5717, Note_on_c, 1, 42, 71
2, 5735, Note_on_c, 1, 39, 0
2, 5746, Note_on_c, 1, 42, 0
2, 5763, Note_on_c, 1, 43, 58
2, 5836, Note_on_c, 1, 43, 0
2, 5845, Note_on_c, 1, 38, 70
2, 5992, Note_on_c, 1, 38, 0
2, 6000, Note_on_c, 1, 34, 57
2, 6113, Note_on_c, 1, 34, 0
2, 6118, Note_on_c, 1, 35, 64
2, 6204, Note_on_c, 1, 34, 33
2, 6230, Note_on_c, 1, 34, 0
2, 6231, Note_on_c, 1, 35, 0
2, 6239, Note_on_c, 1, 36, 66
2, 6331, Note_on_c, 1, 34, 37
2, 6354, Note_on_c, 1, 36, 0
2, 6358, Note_on_c, 1, 50, 103
2, 6375, Note_on_c, 1, 34, 0
2, 6447, Note_on_c, 1, 34, 18
2, 6465, Note_on_c, 1, 50, 0
2, 6468, Note_on_c, 1, 34, 0
2, 6482, Note_on_c, 1, 48, 60
2, 6562, Note_on_c, 1, 39, 52
2, 6574, Note_on_c, 1, 48, 0
2, 6588, Note_on_c, 1, 39, 0
2, 6603, Note_on_c, 1, 40, 58
2, 6676, Note_on_c, 1, 40, 0
2, 6686, Note_on_c, 1, 41, 79
2, 6827, Note_on_c, 1, 41, 0
2, 6839, Note_on_c, 1, 29, 78
2, 7035, Note_on_c, 1, 36, 46
2, 7064, Note_on_c, 1, 36, 0
2, 7080, Note_on_c, 1, 29, 0
2, 7083, Note_on_c, 1, 41, 92
2, 7277, Note_on_c, 1, 31, 88
2, 7421, Note_on_c, 1, 41, 0
2, 7435, Note_on_c, 1, 31, 0
2, 7436, Note_on_c, 1, 32, 87
2, 7602, Note_on_c, 1, 32, 0
2, 7632, Note_on_c, 1, 33, 105
2, 8035, Note_on_c, 1, 47, 84
2, 8106, Note_on_c, 1, 47, 0
2, 8122, Note_on_c, 1, 45, 80
2, 8176, Note_on_c, 1, 33, 0
2, 8230, Note_on_c, 1, 33, 94
2, 8235, Note_on_c, 1, 45, 0
2, 8347, Note_on_c, 1, 32, 50
2, 8391, Note_on_c, 1, 33, 0
2, 8392, Note_on_c, 1, 46, 77
2, 8401, Note_on_c, 1, 32, 0
2, 8500, Note_on_c, 1, 46, 0
2, 8513, Note_on_c, 1, 45, 64
2, 8592, Note_on_c, 1, 33, 50
2, 8618, Note_on_c, 1, 45, 0
2, 8629, Note_on_c, 1, 33, 0
2, 8635, Note_on_c, 1, 52, 84
2, 8738, Note_on_c, 1, 52, 0
2, 8757, Note_on_c, 1, 51, 74
2, 8832, Note_on_c, 1, 51, 0
2, 8839, Note_on_c, 1, 50, 71
2, 8961, Note_on_c, 1, 33, 52
2, 8978, Note_on_c, 1, 50, 0
2, 8983, Note_on_c, 1, 33, 0
2, 9002, Note_on_c, 1, 48, 76
2, 9005, Note_on_c, 1, 50, 40
2, 9025, Note_on_c, 1, 50, 0
2, 9089, Note_on_c, 1, 33, 40
2, 9104, Note_on_c, 1, 33, 0
2, 9109, Note_on_c, 1, 48, 0
2, 9124, Note_on_c, 1, 46, 68
2, 9204, Note_on_c, 1, 33, 35
2, 9207, Note_on_c, 1, 46, 0
2, 9221, Note_on_c, 1, 33, 0
2, 9241, Note_on_c, 1, 44, 68
2, 9323, Note_on_c, 1, 33, 36
2, 9344, Note_on_c, 1, 44, 0
2, 9352, Note_on_c, 1, 33, 0
2, 9361, Note_on_c, 1, 45, 66
2, 9439, Note_on_c, 1, 33, 80
2, 9446, Note_on_c, 1, 45, 0
2, 9465, Note_on_c, 1, 33, 0
2, 9488, Note_on_c, 1, 32, 68
2, 9544, Note_on_c, 1, 32, 0
2, 9564, Note_on_c, 1, 33, 96
2, 9796, Note_on_c, 1, 45, 78
2, 9855, Note_on_c, 1, 33, 0
2, 9919, Note_on_c, 1, 45, 0
2, 9919, Note_on_c, 1, 32, 76
2, 9947, Note_on_c, 1, 32, 0
2, 9966, Note_on_c, 1, 33, 103
2, 10027, Note_on_c, 1, 33, 0
2, 10044, Note_on_c, 1, 33, 92
2, 10287, Note_on_c, 1, 45, 103
2, 10341, Note_on_c, 1, 33, 0
2, 10402, Note_on_c, 1, 32, 67
2, 10408, Note_on_c, 1, 45, 0
2, 10424, Note_on_c, 1, 32, 0
2, 10450, Note_on_c, 1, 33, 101
2, 10813, Note_on_c, 1, 45, 94
2, 10851, Note_on_c, 1, 45, 0
2, 10933, Note_on_c, 1, 46, 84
2, 10971, Note_on_c, 1, 33, 0
2, 11003, Note_on_c, 1, 46, 0
2, 11050, Note_on_c, 1, 45, 80
2, 11127, Note_on_c, 1, 45, 0
2, 11129, Note_on_c, 1, 33, 85
2, 11358, Note_on_c, 1, 32, 62
2, 11381, Note_on_c, 1, 33, 0
2, 11386, Note_on_c, 1, 32, 0
2, 11398, Note_on_c, 1, 42, 75
2, 11479, Note_on_c, 1, 42, 0
2, 11485, Note_on_c, 1, 41, 71
2, 11490, Note_on_c, 1, 42, 21
2, 11501, Note_on_c, 1, 42, 0
2, 11606, Note_on_c, 1, 36, 55
2, 11613, Note_on_c, 1, 41, 0
2, 11627, Note_on_c, 1, 36, 0
2, 11648, Note_on_c, 1, 33, 66
2, 11762, Note_on_c, 1, 33, 0
2, 11774, Note_on_c, 1, 36, 70
2, 11878, Note_on_c, 1, 36, 0
2, 11886, Note_on_c, 1, 34, 67
2, 11996, Note_on_c, 1, 34, 0
2, 12005, Note_on_c, 1, 35, 67
2, 12098, Note_on_c, 1, 34, 49
2, 12126, Note_on_c, 1, 47, 78
2, 12127, Note_on_c, 1, 34, 0
2, 12132, Note_on_c, 1, 35, 0
2, 12208, Note_on_c, 1, 35, 30
2, 12223, Note_on_c, 1, 35, 0
2, 12250, Note_on_c, 1, 42, 53
2, 12339, Note_on_c, 1, 35, 62
2, 12347, Note_on_c, 1, 42, 0
2, 12352, Note_on_c, 1, 35, 0
2, 12355, Note_on_c, 1, 47, 0
2, 12378, Note_on_c, 1, 33, 72
2, 12488, Note_on_c, 1, 33, 0
2, 12493, Note_on_c, 1, 34, 77
2, 12586, Note_on_c, 1, 32, 30
2, 12604, Note_on_c, 1, 32, 0
2, 12615, Note_on_c, 1, 45, 95
2, 12619, Note_on_c, 1, 34, 0
2, 12684, Note_on_c, 1, 34, 44
2, 12714, Note_on_c, 1, 34, 0
2, 12720, Note_on_c, 1, 45, 0
2, 12736, Note_on_c, 1, 41, 55
2, 12816, Note_on_c, 1, 38, 45
2, 12821, Note_on_c, 1, 41, 0
2, 12837, Note_on_c, 1, 38, 0
2, 12848, Note_on_c, 1, 34, 64
2, 12928, Note_on_c, 1, 34, 0
2, 12937, Note_on_c, 1, 39, 82
2, 13077, Note_on_c, 1, 39, 0
2, 13092, Note_on_c, 1, 39, 82
2, 13196, Note_on_c, 1, 39, 0
2, 13206, Note_on_c, 1, 34, 60
2, 13320, Note_on_c, 1, 44, 87
2, 13433, Note_on_c, 1, 44, 0
2, 13437, Note_on_c, 1, 43, 70
2, 13439, Note_on_c, 1, 34, 0
2, 13551, Note_on_c, 1, 43, 0
2, 13558, Note_on_c, 1, 38, 72
2, 13666, Note_on_c, 1, 38, 0
2, 13679, Note_on_c, 1, 34, 68
2, 13745, Note_on_c, 1, 34, 0
2, 13767, Note_on_c, 1, 34, 59
2, 13795, Note_on_c, 1, 34, 0
2, 13802, Note_on_c, 1, 35, 67
2, 13918, Note_on_c, 1, 35, 0
2, 13918, Note_on_c, 1, 36, 67
2, 14013, Note_on_c, 1, 34, 50
2, 14030, Note_on_c, 1, 36, 0
2, 14043, Note_on_c, 1, 50, 79
2, 14063, Note_on_c, 1, 34, 0
2, 14126, Note_on_c, 1, 34, 18
2, 14149, Note_on_c, 1, 50, 0
2, 14155, Note_on_c, 1, 34, 0
2, 14166, Note_on_c, 1, 48, 74
2, 14253, Note_on_c, 1, 36, 55
2, 14269, Note_on_c, 1, 48, 0
2, 14272, Note_on_c, 1, 36, 0
2, 14286, Note_on_c, 1, 46, 79
2, 14385, Note_on_c, 1, 46, 0
2, 14402, Note_on_c, 1, 45, 39
2, 14503, Note_on_c, 1, 45, 0
2, 14523, Note_on_c, 1, 43, 78
2, 14638, Note_on_c, 1, 43, 0
2, 14645, Note_on_c, 1, 41, 71
2, 14758, Note_on_c, 1, 41, 0
2, 14762, Note_on_c, 1, 36, 94
2, 14885, Note_on_c, 1, 43, 92
2, 14896, Note_on_c, 1, 36, 0
2, 14973, Note_on_c, 1, 36, 45
2, 14984, Note_on_c, 1, 36, 0
2, 15003, Note_on_c, 1, 41, 85
2, 15012, Note_on_c, 1, 43, 0
2, 15121, Note_on_c, 1, 41, 0
2, 15123, Note_on_c, 1, 36, 78
2, 15201, Note_on_c, 1, 36, 0
2, 15212, Note_on_c, 1, 38, 66
2, 15241, Note_on_c, 1, 38, 0
2, 15249, Note_on_c, 1, 39, 76
2, 15328, Note_on_c, 1, 39, 0
2, 15333, Note_on_c, 1, 40, 91
2, 15446, Note_on_c, 1, 39, 59
2, 15466, Note_on_c, 1, 39, 0
2, 15495, Note_on_c, 1, 52, 89
2, 15568, Note_on_c, 1, 52, 0
2, 15569, Note_on_c, 1, 53, 66
2, 15596, Note_on_c, 1, 53, 0
2, 15620, Note_on_c, 1, 52, 85
2, 15693, Note_on_c, 1, 40, 0
2, 15803, Note_on_c, 1, 40, 94
2, 15819, Note_on_c, 1, 52, 0
2, 15922, Note_on_c, 1, 39, 60
2, 15931, Note_on_c, 1, 40, 0
2, 15960, Note_on_c, 1, 39, 0
2, 15968, Note_on_c, 1, 40, 91
2, 16162, Note_on_c, 1, 39, 59
2, 16184, Note_on_c, 1, 39, 0
2, 16200, Note_on_c, 1, 52, 95
2, 16263, Note_on_c, 1, 52, 0
2, 16281, Note_on_c, 1, 53, 73
2, 16347, Note_on_c, 1, 53, 0
2, 16394, Note_on_c, 1, 52, 91
2, 16445, Note_on_c, 1, 40, 0
2, 16514, Note_on_c, 1, 39, 69
2, 16516, Note_on_c, 1, 52, 0
2, 16547, Note_on_c, 1, 39, 0
2, 16555, Note_on_c, 1, 40, 78
2, 16646, Note_on_c, 1, 39, 43
2, 16664, Note_on_c, 1, 39, 0
2, 16675, Note_on_c, 1, 52, 95
2, 16740, Note_on_c, 1, 52, 0
2, 16758, Note_on_c, 1, 53, 75
2, 16811, Note_on_c, 1, 53, 0
2, 16874, Note_on_c, 1, 52, 87
2, 16926, Note_on_c, 1, 40, 0
2, 16989, Note_on_c, 1, 40, 90
2, 17111, Note_on_c, 1, 36, 65
2, 17115, Note_on_c, 1, 40, 0
2, 17132, Note_on_c, 1, 36, 0
2, 17151, Note_on_c, 1, 39, 71
2, 17175, Note_on_c, 1, 52, 0
2, 17235, Note_on_c, 1, 37, 49
2, 17241, Note_on_c, 1, 39, 0
2, 17264, Note_on_c, 1, 37, 0
2, 17273, Note_on_c, 1, 38, 66
2, 17362, Note_on_c, 1, 37, 52
2, 17400, Note_on_c, 1, 50, 89
2, 17404, Note_on_c, 1, 37, 0
2, 17450, Note_on_c, 1, 50, 0
2, 17481, Note_on_c, 1, 51, 84
2, 17526, Note_on_c, 1, 51, 0
2, 17605, Note_on_c, 1, 50, 92
2, 17676, Note_on_c, 1, 38, 0
2, 17720, Note_on_c, 1, 34, 48
2, 17743, Note_on_c, 1, 34, 0
2, 17760, Note_on_c, 1, 38, 77
2, 17856, Note_on_c, 1, 38, 0
2, 17879, Note_on_c, 1, 50, 0
2, 17881, Note_on_c, 1, 38, 81
2, 18078, Note_on_c, 1, 34, 47
2, 18080, Note_on_c, 1, 38, 0
2, 18106, Note_on_c, 1, 34, 0
2, 18119, Note_on_c, 1, 38, 80
2, 18183, Note_on_c, 1, 38, 0
2, 18201, Note_on_c, 1, 38, 83
2, 18318, Note_on_c, 1, 57, 87
2, 18354, Note_on_c, 1, 57, 0
2, 18373, Note_on_c, 1, 55, 56
2, 18429, Note_on_c, 1, 55, 0
2, 18442, Note_on_c, 1, 51, 79
2, 18485, Note_on_c, 1, 38, 0
2, 18557, Note_on_c, 1, 38, 60
2, 18570, Note_on_c, 1, 38, 0
2, 18576, Note_on_c, 1, 51, 0
2, 18602, Note_on_c, 1, 50, 83
2, 18680, Note_on_c, 1, 38, 83
2, 18686, Note_on_c, 1, 50, 0
2, 18804, Note_on_c, 1, 38, 0
2, 18807, Note_on_c, 1, 37, 37
2, 18829, Note_on_c, 1, 37, 0
2, 18845, Note_on_c, 1, 38, 84
2, 19042, Note_on_c, 1, 33, 75
2, 19047, Note_on_c, 1, 38, 0
2, 19062, Note_on_c, 1, 33, 0
2, 19087, Note_on_c, 1, 32, 85
2, 19186, Note_on_c, 1, 32, 0
2, 19200, Note_on_c, 1, 31, 76
2, 19415, Note_on_c, 1, 34, 34
2, 19448, Note_on_c, 1, 31, 0
2, 19449, Note_on_c, 1, 38, 83
2, 19461, Note_on_c, 1, 34, 0
2, 19550, Note_on_c, 1, 38, 0
2, 19589, Note_on_c, 1, 38, 54
2, 19679, Note_on_c, 1, 38, 0
2, 19689, Note_on_c, 1, 39, 75
2, 19884, Note_on_c, 1, 51, 88
2, 19951, Note_on_c, 1, 39, 0
2, 19998, Note_on_c, 1, 39, 60
2, 20024, Note_on_c, 1, 51, 0
2, 20034, Note_on_c, 1, 39, 0
2, 20044, Note_on_c, 1, 49, 73
2, 20139, Note_on_c, 1, 49, 0
2, 20160, Note_on_c, 1, 48, 78
2, 20260, Note_on_c, 1, 48, 0
2, 20281, Note_on_c, 1, 36, 85
2, 20390, Note_on_c, 1, 36, 0
2, 20405, Note_on_c, 1, 37, 71
2, 20485, Note_on_c, 1, 34, 59
2, 20519, Note_on_c, 1, 34, 0
2, 20524, Note_on_c, 1, 49, 83
2, 20531, Note_on_c, 1, 37, 0
2, 20632, Note_on_c, 1, 49, 0
2, 20647, Note_on_c, 1, 50, 77
2, 20738, Note_on_c, 1, 37, 34
2, 20743, Note_on_c, 1, 50, 0
2, 20754, Note_on_c, 1, 37, 0
2, 20764, Note_on_c, 1, 38, 71
2, 20860, Note_on_c, 1, 37, 33
2, 20875, Note_on_c, 1, 38, 0
2, 20884, Note_on_c, 1, 44, 82
2, 20891, Note_on_c, 1, 37, 0
2, 20990, Note_on_c, 1, 44, 0
2, 21001, Note_on_c, 1, 42, 83
2, 21105, Note_on_c, 1, 42, 0
2, 21124, Note_on_c, 1, 43, 69
2, 21207, Note_on_c, 1, 38, 64
2, 21212, Note_on_c, 1, 43, 0
2, 21231, Note_on_c, 1, 38, 0
2, 21247, Note_on_c, 1, 35, 75
2, 21357, Note_on_c, 1, 35, 0
2, 21367, Note_on_c, 1, 38, 75
2, 21453, Note_on_c, 1, 38, 0
2, 21453, Note_on_c, 1, 34, 54
2, 21477, Note_on_c, 1, 34, 0
2, 21488, Note_on_c, 1, 35, 74
2, 21599, Note_on_c, 1, 35, 0
2, 21604, Note_on_c, 1, 36, 80
2, 21691, Note_on_c, 1, 34, 61
2, 21707, Note_on_c, 1, 36, 0
2, 21725, Note_on_c, 1, 50, 110
2, 21737, Note_on_c, 1, 34, 0
2, 21833, Note_on_c, 1, 50, 0
2, 21844, Note_on_c, 1, 48, 78
2, 21931, Note_on_c, 1, 39, 55
2, 21932, Note_on_c, 1, 48, 0
2, 21954, Note_on_c, 1, 39, 0
2, 21966, Note_on_c, 1, 40, 64
2, 22040, Note_on_c, 1, 40, 0
2, 22048, Note_on_c, 1, 41, 94
2, 22195, Note_on_c, 1, 41, 0
2, 22209, Note_on_c, 1, 36, 99
2, 22509, Note_on_c, 1, 36, 0
2, 22517, Note_on_c, 1, 41, 96
2, 22686, Note_on_c, 1, 35, 90
2, 22704, Note_on_c, 1, 41, 0
2, 22858, Note_on_c, 1, 35, 0
2, 22873, Note_on_c, 1, 34, 87
2, 23022, Note_on_c, 1, 34, 0
2, 23035, Note_on_c, 1, 33, 80
2, 23349, Note_on_c, 1, 46, 83
2, 23392, Note_on_c, 1, 46, 0
2, 23405, Note_on_c, 1, 45, 74
2, 23491, Note_on_c, 1, 33, 0
2, 23589, Note_on_c, 1, 32, 73
2, 23609, Note_on_c, 1, 45, 0
2, 23619, Note_on_c, 1, 32, 0
2, 23631, Note_on_c, 1, 33, 80
2, 23702, Note_on_c, 1, 33, 0
2, 23716, Note_on_c, 1, 33, 94
2, 23948, Note_on_c, 1, 33, 0
2, 23953, Note_on_c, 1, 31, 92
2, 24109, Note_on_c, 1, 31, 0
2, 24116, Note_on_c, 1, 32, 86
2, 24231, Note_on_c, 1, 32, 0
2, 24238, Note_on_c, 1, 33, 82
2, 24320, Note_on_c, 1, 32, 61
2, 24338, Note_on_c, 1, 33, 0
2, 24343, Note_on_c, 1, 32, 0
2, 24359, Note_on_c, 1, 48, 103
2, 24561, Note_on_c, 1, 46, 83
2, 24567, Note_on_c, 1, 48, 0
2, 24721, Note_on_c, 1, 45, 79
2, 24722, Note_on_c, 1, 46, 0
2, 24801, Note_on_c, 1, 31, 80
2, 24817, Note_on_c, 1, 45, 0
2, 24832, Note_on_c, 1, 31, 0
2, 24849, Note_on_c, 1, 32, 79
2, 24916, Note_on_c, 1, 32, 0
2, 24927, Note_on_c, 1, 33, 91
2, 25044, Note_on_c, 1, 32, 56
2, 25074, Note_on_c, 1, 32, 0
2, 25090, Note_on_c, 1, 50, 105
2, 25214, Note_on_c, 1, 33, 0
2, 25406, Note_on_c, 1, 33, 66
2, 25424, Note_on_c, 1, 33, 0
2, 25432, Note_on_c, 1, 50, 0
2, 25444, Note_on_c, 1, 48, 80
2, 25525, Note_on_c, 1, 33, 53
2, 25529, Note_on_c, 1, 48, 0
2, 25538, Note_on_c, 1, 33, 0
2, 25560, Note_on_c, 1, 46, 71
2, 25643, Note_on_c, 1, 46, 0
2, 25645, Note_on_c, 1, 45, 84
2, 25764, Note_on_c, 1, 31, 71
2, 25781, Note_on_c, 1, 45, 0
2, 25788, Note_on_c, 1, 31, 0
2, 25809, Note_on_c, 1, 32, 84
2, 25887, Note_on_c, 1, 33, 96
2, 25896, Note_on_c, 1, 32, 0
2, 26013, Note_on_c, 1, 32, 33
2, 26050, Note_on_c, 1, 32, 0
2, 26127, Note_on_c, 1, 32, 50
2, 26147, Note_on_c, 1, 32, 0
2, 26162, Note_on_c, 1, 33, 0
2, 26162, Note_on_c, 1, 48, 96
2, 26242, Note_on_c, 1, 33, 58
2, 26245, Note_on_c, 1, 48, 0
2, 26262, Note_on_c, 1, 33, 0
2, 26284, Note_on_c, 1, 46, 75
2, 26368, Note_on_c, 1, 32, 32
2, 26383, Note_on_c, 1, 32, 0
2, 26392, Note_on_c, 1, 46, 0
2, 26405, Note_on_c, 1, 45, 76
2, 26412, Note_on_c, 1, 46, 44
2, 26422, Note_on_c, 1, 46, 0
2, 26486, Note_on_c, 1, 33, 88
2, 26655, Note_on_c, 1, 33, 0
2, 26726, Note_on_c, 1, 39, 64
2, 26741, Note_on_c, 1, 45, 0
2, 26750, Note_on_c, 1, 39, 0
2, 26769, Note_on_c, 1, 40, 60
2, 26844, Note_on_c, 1, 41, 85
2, 26854, Note_on_c, 1, 40, 0
2, 26955, Note_on_c, 1, 39, 56
2, 27002, Note_on_c, 1, 41, 0
2, 27004, Note_on_c, 1, 48, 80
2, 27006, Note_on_c, 1, 39, 0
2, 27079, Note_on_c, 1, 39, 47
2, 27107, Note_on_c, 1, 39, 0
2, 27128, Note_on_c, 1, 45, 49
2, 27140, Note_on_c, 1, 48, 0
2, 27140, Note_on_c, 1, 49, 21
2, 27201, Note_on_c, 1, 41, 61
2, 27209, Note_on_c, 1, 45, 0
2, 27221, Note_on_c, 1, 49, 0
2, 27226, Note_on_c, 1, 41, 0
2, 27240, Note_on_c, 1, 45, 65
2, 27319, Note_on_c, 1, 41, 43
2, 27334, Note_on_c, 1, 41, 0
2, 27347, Note_on_c, 1, 45, 0
2, 27358, Note_on_c, 1, 47, 54
2, 27477, Note_on_c, 1, 42, 58
2, 27488, Note_on_c, 1, 41, 51
2, 27517, Note_on_c, 1, 41, 0
2, 27529, Note_on_c, 1, 42, 0
2, 27593, Note_on_c, 1, 39, 59
2, 27610, Note_on_c, 1, 47, 0
2, 27698, Note_on_c, 1, 39, 0
2, 27721, Note_on_c, 1, 40, 48
2, 27794, Note_on_c, 1, 39, 53
2, 27814, Note_on_c, 1, 40, 0
2, 27825, Note_on_c, 1, 39, 0
2, 27832, Note_on_c, 1, 46, 79
2, 27955, Note_on_c, 1, 41, 68
2, 27960, Note_on_c, 1, 46, 0
2, 28075, Note_on_c, 1, 41, 0
2, 28078, Note_on_c, 1, 38, 68
2, 28175, Note_on_c, 1, 38, 0
2, 28200, Note_on_c, 1, 38, 71
2, 28300, Note_on_c, 1, 38, 0
2, 28319, Note_on_c, 1, 39, 80
2, 28446, Note_on_c, 1, 51, 88
2, 28464, Note_on_c, 1, 39, 0
2, 28526, Note_on_c, 1, 39, 47
2, 28553, Note_on_c, 1, 39, 0
2, 28561, Note_on_c, 1, 51, 0
2, 28566, Note_on_c, 1, 48, 44
2, 28635, Note_on_c, 1, 39, 39
2, 28647, Note_on_c, 1, 48, 0
2, 28666, Note_on_c, 1, 39, 0
2, 28677, Note_on_c, 1, 42, 79
2, 28777, Note_on_c, 1, 42, 0
2, 28793, Note_on_c, 1, 43, 70
2, 28913, Note_on_c, 1, 43, 0
2, 28919, Note_on_c, 1, 38, 68
2, 29029, Note_on_c, 1, 38, 0
2, 29040, Note_on_c, 1, 34, 67
2, 29143, Note_on_c, 1, 34, 0
2, 29161, Note_on_c, 1, 35, 62
2, 29249, Note_on_c, 1, 34, 30
2, 29269, Note_on_c, 1, 35, 0
2, 29271, Note_on_c, 1, 34, 0
2, 29275, Note_on_c, 1, 36, 72
2, 29363, Note_on_c, 1, 34, 47
2, 29391, Note_on_c, 1, 36, 0
2, 29399, Note_on_c, 1, 50, 99
2, 29418, Note_on_c, 1, 34, 0
2, 29514, Note_on_c, 1, 50, 0
2, 29523, Note_on_c, 1, 48, 72
2, 29605, Note_on_c, 1, 40, 91
2, 29620, Note_on_c, 1, 48, 0
2, 29763, Note_on_c, 1, 40, 0
2, 29766, Note_on_c, 1, 41, 79
2, 29855, Note_on_c, 1, 40, 46
2, 29872, Note_on_c, 1, 41, 0
2, 29883, Note_on_c, 1, 50, 95
2, 29886, Note_on_c, 1, 40, 0
2, 29978, Note_on_c, 1, 39, 20
2, 29993, Note_on_c, 1, 39, 0
2, 29995, Note_on_c, 1, 50, 0
2, 30002, Note_on_c, 1, 48, 78
2, 30116, Note_on_c, 1, 48, 0
2, 30124, Note_on_c, 1, 45, 75
2, 30241, Note_on_c, 1, 45, 0
2, 30244, Note_on_c, 1, 41, 79
2, 30356, Note_on_c, 1, 41, 0
2, 30362, Note_on_c, 1, 36, 82
2, 30476, Note_on_c, 1, 36, 0
2, 30486, Note_on_c, 1, 35, 69
2, 30590, Note_on_c, 1, 35, 0
2, 30601, Note_on_c, 1, 34, 71
2, 30716, Note_on_c, 1, 34, 0
2, 30730, Note_on_c, 1, 33, 79
2, 30818, Note_on_c, 1, 46, 86
2, 30967, Note_on_c, 1, 46, 0
2, 30971, Note_on_c, 1, 44, 35
2, 30978, Note_on_c, 1, 45, 76
2, 30979, Note_on_c, 1, 33, 0
2, 30982, Note_on_c, 1, 44, 0
2, 31096, Note_on_c, 1, 33, 103
2, 31098, Note_on_c, 1, 45, 0
2, 31413, Note_on_c, 1, 46, 93
2, 31486, Note_on_c, 1, 46, 0
2, 31533, Note_on_c, 1, 45, 101
2, 31574, Note_on_c, 1, 33, 0
2, 31608, Note_on_c, 1, 45, 0
2, 31643, Note_on_c, 1, 32, 70
2, 31678, Note_on_c, 1, 32, 0
2, 31685, Note_on_c, 1, 33, 77
2, 31858, Note_on_c, 1, 33, 0
2, 31876, Note_on_c, 1, 33, 85
2, 31948, Note_on_c, 1, 33, 0
2, 31991, Note_on_c, 1, 32, 62
2, 32017, Note_on_c, 1, 32, 0
2, 32037, Note_on_c, 1, 33, 91
2, 32107, Note_on_c, 1, 33, 0
2, 32122, Note_on_c, 1, 33, 91
2, 32167, Note_on_c, 1, 33, 0
2, 32254, Note_on_c, 1, 31, 103
2, 32467, Note_on_c, 1, 32, 98
2, 32481, Note_on_c, 1, 31, 0
2, 32593, Note_on_c, 1, 30, 48
2, 32623, Note_on_c, 1, 30, 0
2, 32629, Note_on_c, 1, 33, 91
2, 32635, Note_on_c, 1, 32, 0
2, 32832, Note_on_c, 1, 32, 48
2, 32873, Note_on_c, 1, 50, 96
2, 32875, Note_on_c, 1, 32, 0
2, 32912, Note_on_c, 1, 50, 0
2, 32945, Note_on_c, 1, 32, 48
2, 32986, Note_on_c, 1, 32, 0
2, 32991, Note_on_c, 1, 49, 84
2, 32993, Note_on_c, 1, 33, 0
2, 33195, Note_on_c, 1, 32, 74
2, 33211, Note_on_c, 1, 49, 0
2, 33239, Note_on_c, 1, 33, 87
2, 33256, Note_on_c, 1, 32, 0
2, 33442, Note_on_c, 1, 52, 108
2, 33555, Note_on_c, 1, 32, 53
2, 33587, Note_on_c, 1, 52, 0
2, 33589, Note_on_c, 1, 33, 0
2, 33596, Note_on_c, 1, 32, 0
2, 33600, Note_on_c, 1, 50, 83
2, 33683, Note_on_c, 1, 33, 38
2, 33685, Note_on_c, 1, 50, 0
2, 33701, Note_on_c, 1, 33, 0
2, 33718, Note_on_c, 1, 49, 76
2, 33801, Note_on_c, 1, 32, 35
2, 33817, Note_on_c, 1, 32, 0
2, 33832, Note_on_c, 1, 49, 0
2, 33841, Note_on_c, 1, 46, 80
2, 33938, Note_on_c, 1, 32, 33
2, 33943, Note_on_c, 1, 46, 0
2, 33952, Note_on_c, 1, 32, 0
2, 33960, Note_on_c, 1, 45, 72
2, 34066, Note_on_c, 1, 45, 0
2, 34078, Note_on_c, 1, 43, 63
2, 34160, Note_on_c, 1, 33, 87
2, 34191, Note_on_c, 1, 43, 0
2, 34414, Note_on_c, 1, 33, 0
2, 34445, Note_on_c, 1, 40, 80
2, 34551, Note_on_c, 1, 40, 0
2, 34564, Note_on_c, 1, 41, 68
2, 34676, Note_on_c, 1, 41, 0
2, 34679, Note_on_c, 1, 36, 74
2, 34785, Note_on_c, 1, 36, 0
2, 34803, Note_on_c, 1, 34, 56
2, 34904, Note_on_c, 1, 34, 0
2, 34916, Note_on_c, 1, 35, 58
2, 35010, Note_on_c, 1, 34, 32
2, 35025, Note_on_c, 1, 35, 0
2, 35034, Note_on_c, 1, 34, 0
2, 35039, Note_on_c, 1, 36, 62
2, 35124, Note_on_c, 1, 34, 43
2, 35146, Note_on_c, 1, 36, 0
2, 35161, Note_on_c, 1, 48, 101
2, 35183, Note_on_c, 1, 34, 0
2, 35237, Note_on_c, 1, 36, 44
2, 35256, Note_on_c, 1, 36, 0
2, 35265, Note_on_c, 1, 48, 0
2, 35281, Note_on_c, 1, 47, 74
2, 35398, Note_on_c, 1, 47, 0
2, 35402, Note_on_c, 1, 35, 66
2, 35508, Note_on_c, 1, 35, 0
2, 35519, Note_on_c, 1, 34, 68
2, 35608, Note_on_c, 1, 36, 50
2, 35622, Note_on_c, 1, 36, 0
2, 35643, Note_on_c, 1, 50, 91
2, 35654, Note_on_c, 1, 34, 0
2, 35757, Note_on_c, 1, 50, 0
2, 35770, Note_on_c, 1, 46, 49
2, 35847, Note_on_c, 1, 37, 57
2, 35851, Note_on_c, 1, 46, 0
2, 35867, Note_on_c, 1, 37, 0
2, 35883, Note_on_c, 1, 38, 34
2, 35985, Note_on_c, 1, 38, 0
2, 35998, Note_on_c, 1, 39, 74
2, 36106, Note_on_c, 1, 39, 0
2, 36121, Note_on_c, 1, 39, 80
2, 36223, Note_on_c, 1, 39, 0
2, 36233, Note_on_c, 1, 34, 61
2, 36324, Note_on_c, 1, 39, 57
2, 36346, Note_on_c, 1, 39, 0
2, 36350, Note_on_c, 1, 34, 0
2, 36353, Note_on_c, 1, 44, 75
2, 36477, Note_on_c, 1, 43, 66
2, 36498, Note_on_c, 1, 44, 0
2, 36589, Note_on_c, 1, 43, 0
2, 36602, Note_on_c, 1, 38, 66
2, 36718, Note_on_c, 1, 38, 0
2, 36723, Note_on_c, 1, 34, 70
2, 36830, Note_on_c, 1, 34, 0
2, 36839, Note_on_c, 1, 35, 73
2, 36954, Note_on_c, 1, 35, 0
2, 36962, Note_on_c, 1, 36, 75
2, 37047, Note_on_c, 1, 34, 60
2, 37055, Note_on_c, 1, 36, 0
2, 37082, Note_on_c, 1, 38, 76
2, 37085, Note_on_c, 1, 34, 0
2, 37165, Note_on_c, 1, 34, 26
2, 37192, Note_on_c, 1, 38, 0
2, 37194, Note_on_c, 1, 34, 0
2, 37198, Note_on_c, 1, 39, 76
2, 37299, Note_on_c, 1, 36, 39
2, 37315, Note_on_c, 1, 36, 0
2, 37321, Note_on_c, 1, 39, 0
2, 37322, Note_on_c, 1, 40, 74
2, 37410, Note_on_c, 1, 36, 36
2, 37425, Note_on_c, 1, 36, 0
2, 37444, Note_on_c, 1, 40, 0
2, 37446, Note_on_c, 1, 41, 68
2, 37538, Note_on_c, 1, 36, 53
2, 37551, Note_on_c, 1, 41, 0
2, 37552, Note_on_c, 1, 36, 0
2, 37562, Note_on_c, 1, 46, 73
2, 37672, Note_on_c, 1, 46, 0
2, 37684, Note_on_c, 1, 45, 68
2, 37772, Note_on_c, 1, 36, 62
2, 37788, Note_on_c, 1, 45, 0
2, 37794, Note_on_c, 1, 36, 0
2, 37810, Note_on_c, 1, 50, 87
2, 37912, Note_on_c, 1, 50, 0
2, 37928, Note_on_c, 1, 48, 81
2, 38026, Note_on_c, 1, 48, 0
2, 38047, Note_on_c, 1, 45, 80
2, 38166, Note_on_c, 1, 41, 72
2, 38208, Note_on_c, 1, 45, 0
2, 38223, Note_on_c, 1, 41, 0
2, 38255, Note_on_c, 1, 40, 55
2, 38292, Note_on_c, 1, 39, 86
2, 38300, Note_on_c, 1, 40, 0
2, 38375, Note_on_c, 1, 40, 90
2, 38380, Note_on_c, 1, 39, 0
2, 38491, Note_on_c, 1, 38, 39
2, 38503, Note_on_c, 1, 38, 0
2, 38526, Note_on_c, 1, 52, 90
2, 38587, Note_on_c, 1, 40, 0
2, 38604, Note_on_c, 1, 35, 75
2, 38612, Note_on_c, 1, 52, 0
2, 38721, Note_on_c, 1, 35, 0
2, 38724, Note_on_c, 1, 40, 92
2, 38894, Note_on_c, 1, 52, 89
2, 38956, Note_on_c, 1, 52, 0
2, 39011, Note_on_c, 1, 53, 85
2, 39102, Note_on_c, 1, 53, 0
2, 39131, Note_on_c, 1, 52, 79
2, 39134, Note_on_c, 1, 40, 0
2, 39208, Note_on_c, 1, 38, 70
2, 39213, Note_on_c, 1, 52, 0
2, 39232, Note_on_c, 1, 38, 0
2, 39248, Note_on_c, 1, 39, 69
2, 39316, Note_on_c, 1, 39, 0
2, 39325, Note_on_c, 1, 40, 84
2, 39447, Note_on_c, 1, 52, 103
2, 39565, Note_on_c, 1, 37, 28
2, 39578, Note_on_c, 1, 52, 0
2, 39592, Note_on_c, 1, 37, 0
2, 39603, Note_on_c, 1, 47, 87
2, 39627, Note_on_c, 1, 40, 0
2, 39677, Note_on_c, 1, 40, 44
2, 39692, Note_on_c, 1, 40, 0
2, 39700, Note_on_c, 1, 47, 0
2, 39719, Note_on_c, 1, 44, 77
2, 39794, Note_on_c, 1, 38, 42
2, 39809, Note_on_c, 1, 38, 0
2, 39829, Note_on_c, 1, 44, 0
2, 39835, Note_on_c, 1, 41, 73
2, 39918, Note_on_c, 1, 38, 36
2, 39929, Note_on_c, 1, 38, 0
2, 39942, Note_on_c, 1, 41, 0
2, 39958, Note_on_c, 1, 40, 73
2, 40066, Note_on_c, 1, 40, 0
2, 40071, Note_on_c, 1, 35, 70
2, 40156, Note_on_c, 1, 34, 50
2, 40159, Note_on_c, 1, 35, 0
2, 40186, Note_on_c, 1, 34, 0
2, 40194, Note_on_c, 1, 37, 69
2, 40284, Note_on_c, 1, 34, 31
2, 40306, Note_on_c, 1, 37, 0
2, 40312, Note_on_c, 1, 34, 0
2, 40316, Note_on_c, 1, 38, 74
2, 40404, Note_on_c, 1, 37, 43
2, 40438, Note_on_c, 1, 51, 83
2, 40443, Note_on_c, 1, 37, 0
2, 40542, Note_on_c, 1, 51, 0
2, 40561, Note_on_c, 1, 50, 83
2, 40614, Note_on_c, 1, 38, 0
2, 40637, Note_on_c, 1, 38, 55
2, 40664, Note_on_c, 1, 38, 0
2, 40674, Note_on_c, 1, 50, 0
2, 40684, Note_on_c, 1, 45, 73
2, 40760, Note_on_c, 1, 38, 90
2, 40894, Note_on_c, 1, 45, 0
2, 40899, Note_on_c, 1, 38, 0
2, 40912, Note_on_c, 1, 37, 71
2, 40999, Note_on_c, 1, 38, 92
2, 41008, Note_on_c, 1, 37, 0
2, 41115, Note_on_c, 1, 37, 51
2, 41141, Note_on_c, 1, 38, 0
2, 41155, Note_on_c, 1, 37, 0
2, 41156, Note_on_c, 1, 54, 82
2, 41164, Note_on_c, 1, 38, 37
2, 41185, Note_on_c, 1, 38, 0
2, 41239, Note_on_c, 1, 38, 87
2, 41362, Note_on_c, 1, 37, 36
2, 41379, Note_on_c, 1, 54, 0
2, 41382, Note_on_c, 1, 37, 0
2, 41400, Note_on_c, 1, 50, 71
2, 41454, Note_on_c, 1, 38, 0
2, 41464, Note_on_c, 1, 50, 0
2, 41471, Note_on_c, 1, 37, 87
2, 41605, Note_on_c, 1, 34, 37
2, 41629, Note_on_c, 1, 37, 0
2, 41636, Note_on_c, 1, 34, 0
2, 41643, Note_on_c, 1, 38, 90
2, 41844, Note_on_c, 1, 38, 0
2, 41847, Note_on_c, 1, 37, 59
2, 41875, Note_on_c, 1, 37, 0
2, 41890, Note_on_c, 1, 38, 90
2, 42088, Note_on_c, 1, 38, 0
2, 42128, Note_on_c, 1, 34, 78
2, 42209, Note_on_c, 1, 44, 77
2, 42229, Note_on_c, 1, 34, 0
2, 42245, Note_on_c, 1, 44, 0
2, 42249, Note_on_c, 1, 43, 68
2, 42344, Note_on_c, 1, 43, 0
2, 42344, Note_on_c, 1, 38, 94
2, 42494, Note_on_c, 1, 38, 0
2, 42500, Note_on_c, 1, 34, 69
2, 42615, Note_on_c, 1, 34, 0
2, 42616, Note_on_c, 1, 38, 68
2, 42713, Note_on_c, 1, 38, 0
2, 42729, Note_on_c, 1, 39, 69
2, 42820, Note_on_c, 1, 37, 38
2, 42849, Note_on_c, 1, 51, 78
2, 42858, Note_on_c, 1, 39, 0
2, 42911, Note_on_c, 1, 37, 0
2, 42963, Note_on_c, 1, 51, 0
2, 42963, Note_on_c, 1, 39, 58
2, 43052, Note_on_c, 1, 39, 0
2, 43098, Note_on_c, 1, 38, 66
2, 43119, Note_on_c, 1, 38, 0
2, 43195, Note_on_c, 1, 36, 80
2, 43339, Note_on_c, 1, 48, 96
2, 43355, Note_on_c, 1, 36, 0
2, 43438, Note_on_c, 1, 48, 0
2, 43457, Note_on_c, 1, 49, 81
2, 43533, Note_on_c, 1, 37, 44
2, 43548, Note_on_c, 1, 49, 0
2, 43553, Note_on_c, 1, 37, 0
2, 43567, Note_on_c, 1, 52, 79
2, 43646, Note_on_c, 1, 52, 0
2, 43652, Note_on_c, 1, 49, 49
2, 43679, Note_on_c, 1, 49, 0
2, 43694, Note_on_c, 1, 50, 64
2, 43796, Note_on_c, 1, 50, 0
2, 43804, Note_on_c, 1, 45, 66
2, 43874, Note_on_c, 1, 38, 33
2, 43893, Note_on_c, 1, 38, 0
2, 43901, Note_on_c, 1, 45, 0
2, 43921, Note_on_c, 1, 44, 65
2, 44007, Note_on_c, 1, 38, 48
2, 44014, Note_on_c, 1, 44, 0
2, 44018, Note_on_c, 1, 38, 0
2, 44036, Note_on_c, 1, 42, 62
2, 44118, Note_on_c, 1, 43, 71
2, 44124, Note_on_c, 1, 42, 0
2, 44245, Note_on_c, 1, 38, 56
2, 44252, Note_on_c, 1, 43, 0
2, 44267, Note_on_c, 1, 38, 0
2, 44280, Note_on_c, 1, 34, 74
2, 44393, Note_on_c, 1, 34, 0
2, 44399, Note_on_c, 1, 38, 67
2, 44501, Note_on_c, 1, 38, 0
2, 44511, Note_on_c, 1, 37, 65
2, 44598, Note_on_c, 1, 34, 36
2, 44620, Note_on_c, 1, 37, 0
2, 44632, Note_on_c, 1, 34, 0
2, 44637, Note_on_c, 1, 36, 69
2, 44737, Note_on_c, 1, 34, 25
2, 44749, Note_on_c, 1, 50, 96
2, 44767, Note_on_c, 1, 36, 0
2, 44769, Note_on_c, 1, 34, 0
2, 44863, Note_on_c, 1, 50, 0
2, 44871, Note_on_c, 1, 48, 74
2, 44972, Note_on_c, 1, 48, 0
2, 44995, Note_on_c, 1, 46, 78
2, 45097, Note_on_c, 1, 46, 0
2, 45117, Note_on_c, 1, 45, 74
2, 45193, Note_on_c, 1, 40, 37
2, 45207, Note_on_c, 1, 40, 0
2, 45225, Note_on_c, 1, 45, 0
2, 45237, Note_on_c, 1, 43, 64
2, 45341, Note_on_c, 1, 43, 0
2, 45358, Note_on_c, 1, 41, 66
2, 45453, Note_on_c, 1, 41, 0
2, 45473, Note_on_c, 1, 36, 95
2, 45595, Note_on_c, 1, 36, 0
2, 45598, Note_on_c, 1, 41, 103
2, 45715, Note_on_c, 1, 34, 87
2, 45718, Note_on_c, 1, 41, 0
2, 45835, Note_on_c, 1, 41, 89
2, 45836, Note_on_c, 1, 34, 0
2, 45914, Note_on_c, 1, 31, 58
2, 45916, Note_on_c, 1, 41, 0
2, 45944, Note_on_c, 1, 31, 0
2, 45956, Note_on_c, 1, 32, 79
2, 46027, Note_on_c, 1, 32, 0
2, 46037, Note_on_c, 1, 33, 89
2, 46197, Note_on_c, 1, 49, 79
2, 46262, Note_on_c, 1, 49, 0
2, 46281, Note_on_c, 1, 49, 77
2, 46387, Note_on_c, 1, 33, 0
2, 46389, Note_on_c, 1, 31, 69
2, 46401, Note_on_c, 1, 49, 0
2, 46419, Note_on_c, 1, 31, 0
2, 46449, Note_on_c, 1, 33, 82
2, 46454, Note_on_c, 1, 34, 37
2, 46464, Note_on_c, 1, 34, 0
2, 46485, Note_on_c, 1, 33, 0
2, 46522, Note_on_c, 1, 33, 85
2, 46710, Note_on_c, 1, 33, 0
2, 46754, Note_on_c, 1, 49, 77
2, 46756, Note_on_c, 1, 33, 79
2, 46859, Note_on_c, 1, 33, 0
2, 46867, Note_on_c, 1, 49, 0
2, 46881, Note_on_c, 1, 50, 89
2, 46883, Note_on_c, 1, 34, 92
2, 46883, Note_on_c, 1, 49, 61
2, 46892, Note_on_c, 1, 49, 0
2, 47104, Note_on_c, 1, 50, 0
2, 47106, Note_on_c, 1, 32, 36
2, 47116, Note_on_c, 1, 32, 0
2, 47116, Note_on_c, 1, 49, 83
2, 47123, Note_on_c, 1, 33, 72
2, 47129, Note_on_c, 1, 34, 0
2, 47247, Note_on_c, 1, 49, 0
2, 47252, Note_on_c, 1, 33, 0
2, 47278, Note_on_c, 1, 33, 78
2, 47389, Note_on_c, 1, 33, 0
2, 47396, Note_on_c, 1, 32, 70
2, 47467, Note_on_c, 1, 32, 0
2, 47474, Note_on_c, 1, 33, 95
2, 47630, Note_on_c, 1, 33, 0
2, 47638, Note_on_c, 1, 31, 85
2, 47750, Note_on_c, 1, 31, 0
2, 47763, Note_on_c, 1, 32, 79
2, 47826, Note_on_c, 1, 32, 0
2, 47844, Note_on_c, 1, 32, 67
2, 47875, Note_on_c, 1, 32, 0
2, 47886, Note_on_c, 1, 34, 80
2, 47960, Note_on_c, 1, 32, 60
2, 47964, Note_on_c, 1, 34, 0
2, 48000, Note_on_c, 1, 32, 0
2, 48002, Note_on_c, 1, 33, 76
2, 48090, Note_on_c, 1, 32, 56
2, 48120, Note_on_c, 1, 33, 0
2, 48124, Note_on_c, 1, 48, 108
2, 48130, Note_on_c, 1, 32, 0
2, 48204, Note_on_c, 1, 33, 26
2, 48222, Note_on_c, 1, 33, 0
2, 48234, Note_on_c, 1, 48, 0
2, 48239, Note_on_c, 1, 46, 73
2, 48320, Note_on_c, 1, 33, 51
2, 48344, Note_on_c, 1, 33, 0
2, 48358, Note_on_c, 1, 45, 73
2, 48368, Note_on_c, 1, 46, 0
2, 48444, Note_on_c, 1, 33, 38
2, 48459, Note_on_c, 1, 33, 0
2, 48465, Note_on_c, 1, 45, 0
2, 48476, Note_on_c, 1, 43, 68
2, 48556, Note_on_c, 1, 31, 74
2, 48560, Note_on_c, 1, 43, 0
2, 48588, Note_on_c, 1, 31, 0
2, 48604, Note_on_c, 1, 32, 72
2, 48671, Note_on_c, 1, 32, 0
2, 48678, Note_on_c, 1, 33, 87
2, 48792, Note_on_c, 1, 32, 54
2, 48812, Note_on_c, 1, 33, 0
2, 48814, Note_on_c, 1, 32, 0
2, 48836, Note_on_c, 1, 45, 92
2, 48901, Note_on_c, 1, 45, 0
2, 48918, Note_on_c, 1, 45, 84
2, 49037, Note_on_c, 1, 45, 0
2, 49082, Note_on_c, 1, 33, 76
2, 49164, Note_on_c, 1, 33, 0
2, 49169, Note_on_c, 1, 33, 42
2, 49277, Note_on_c, 1, 45, 89
2, 49287, Note_on_c, 1, 33, 0
2, 49311, Note_on_c, 1, 40, 55
2, 49323, Note_on_c, 1, 45, 0
2, 49432, Note_on_c, 1, 40, 0
2, 49443, Note_on_c, 1, 33, 77
2, 49513, Note_on_c, 1, 33, 0
2, 49526, Note_on_c, 1, 33, 87
2, 49638, Note_on_c, 1, 33, 0
2, 49644, Note_on_c, 1, 40, 81
2, 49767, Note_on_c, 1, 39, 65
2, 49769, Note_on_c, 1, 40, 0
2, 49793, Note_on_c, 1, 39, 0
2, 49809, Note_on_c, 1, 40, 68
2, 49912, Note_on_c, 1, 40, 0
2, 49925, Note_on_c, 1, 41, 73
2, 50040, Note_on_c, 1, 36, 72
2, 50041, Note_on_c, 1, 41, 0
2, 50158, Note_on_c, 1, 36, 0
2, 50163, Note_on_c, 1, 41, 67
2, 50253, Note_on_c, 1, 36, 53
2, 50278, Note_on_c, 1, 36, 0
2, 50283, Note_on_c, 1, 48, 79
2, 50332, Note_on_c, 1, 41, 0
2, 50367, Note_on_c, 1, 36, 45
2, 50393, Note_on_c, 1, 48, 0
2, 50395, Note_on_c, 1, 36, 0
2, 50406, Note_on_c, 1, 47, 68
2, 50489, Note_on_c, 1, 38, 38
2, 50497, Note_on_c, 1, 36, 44
2, 50500, Note_on_c, 1, 38, 0
2, 50500, Note_on_c, 1, 47, 0
2, 50509, Note_on_c, 1, 36, 0
2, 50524, Note_on_c, 1, 42, 74
2, 50611, Note_on_c, 1, 35, 49
2, 50621, Note_on_c, 1, 42, 0
2, 50627, Note_on_c, 1, 35, 0
2, 50644, Note_on_c, 1, 39, 60
2, 50760, Note_on_c, 1, 35, 71
2, 50768, Note_on_c, 1, 39, 0
2, 50865, Note_on_c, 1, 35, 0
2, 50879, Note_on_c, 1, 34, 64
2, 50967, Note_on_c, 1, 40, 31
2, 50979, Note_on_c, 1, 40, 0
2, 51003, Note_on_c, 1, 48, 80
2, 51008, Note_on_c, 1, 34, 0
2, 51125, Note_on_c, 1, 46, 57
2, 51204, Note_on_c, 1, 34, 58
2, 51205, Note_on_c, 1, 48, 0
2, 51225, Note_on_c, 1, 46, 0
2, 51236, Note_on_c, 1, 34, 0
2, 51249, Note_on_c, 1, 44, 55
2, 51330, Note_on_c, 1, 44, 0
2, 51333, Note_on_c, 1, 43, 68
2, 51458, Note_on_c, 1, 39, 64
2, 51460, Note_on_c, 1, 43, 0
2, 51577, Note_on_c, 1, 37, 44
2, 51614, Note_on_c, 1, 51, 71
2, 51616, Note_on_c, 1, 39, 0
2, 51623, Note_on_c, 1, 37, 0
2, 51690, Note_on_c, 1, 39, 49
2, 51705, Note_on_c, 1, 51, 0
2, 51721, Note_on_c, 1, 39, 0
2, 51754, Note_on_c, 1, 44, 12
2, 51811, Note_on_c, 1, 44, 0
2, 51812, Note_on_c, 1, 39, 48
2, 51815, Note_on_c, 1, 37, 38
2, 51825, Note_on_c, 1, 39, 0
2, 51834, Note_on_c, 1, 37, 0
2, 51853, Note_on_c, 1, 43, 71
2, 51935, Note_on_c, 1, 43, 0
2, 51935, Note_on_c, 1, 38, 79
2, 52081, Note_on_c, 1, 38, 0
2, 52088, Note_on_c, 1, 34, 61
2, 52184, Note_on_c, 1, 34, 0
2, 52198, Note_on_c, 1, 35, 62
2, 52278, Note_on_c, 1, 34, 32
2, 52304, Note_on_c, 1, 35, 0
2, 52305, Note_on_c, 1, 34, 0
2, 52315, Note_on_c, 1, 36, 66
2, 52406, Note_on_c, 1, 34, 40
2, 52439, Note_on_c, 1, 36, 0
2, 52441, Note_on_c, 1, 50, 80
2, 52465, Note_on_c, 1, 34, 0
2, 52510, Note_on_c, 1, 34, 35
2, 52544, Note_on_c, 1, 50, 0
2, 52558, Note_on_c, 1, 48, 64
2, 52559, Note_on_c, 1, 34, 0
2, 52654, Note_on_c, 1, 48, 0
2, 52667, Note_on_c, 1, 40, 22
2, 52678, Note_on_c, 1, 40, 0
2, 52679, Note_on_c, 1, 46, 70
2, 52768, Note_on_c, 1, 40, 24
2, 52783, Note_on_c, 1, 40, 0
2, 52790, Note_on_c, 1, 46, 0
2, 52804, Note_on_c, 1, 45, 66
2, 52809, Note_on_c, 1, 46, 19
2, 52828, Note_on_c, 1, 46, 0
2, 52883, Note_on_c, 1, 40, 53
2, 52896, Note_on_c, 1, 40, 0
2, 52913, Note_on_c, 1, 45, 0
2, 52926, Note_on_c, 1, 43, 64
2, 53030, Note_on_c, 1, 43, 0
2, 53044, Note_on_c, 1, 41, 64
2, 53159, Note_on_c, 1, 41, 0
2, 53164, Note_on_c, 1, 36, 64
2, 53270, Note_on_c, 1, 36, 0
2, 53280, Note_on_c, 1, 33, 66
2, 53397, Note_on_c, 1, 33, 0
2, 53404, Note_on_c, 1, 36, 78
2, 53514, Note_on_c, 1, 36, 0
2, 53527, Note_on_c, 1, 34, 69
2, 53631, Note_on_c, 1, 34, 0
2, 53643, Note_on_c, 1, 32, 69
2, 53739, Note_on_c, 1, 32, 0
2, 53758, Note_on_c, 1, 33, 82
2, 53857, Note_on_c, 1, 33, 0
2, 53885, Note_on_c, 1, 33, 92
2, 54187, Note_on_c, 1, 33, 0
2, 54196, Note_on_c, 1, 31, 87
2, 54364, Note_on_c, 1, 31, 0
2, 54370, Note_on_c, 1, 32, 94
2, 54533, Note_on_c, 1, 32, 0
2, 54560, Note_on_c, 1, 32, 92
2, 54729, Note_on_c, 1, 33, 108
2, 54744, Note_on_c, 1, 32, 0
2, 54910, Note_on_c, 1, 33, 0
2, 54927, Note_on_c, 1, 33, 92
2, 55080, Note_on_c, 1, 33, 0
2, 55097, Note_on_c, 1, 33, 88
2, 55248, Note_on_c, 1, 33, 0
2, 55274, Note_on_c, 1, 49, 83
2, 55279, Note_on_c, 1, 33, 78
2, 55424, Note_on_c, 1, 49, 0
2, 55443, Note_on_c, 1, 34, 86
2, 55445, Note_on_c, 1, 50, 87
2, 55457, Note_on_c, 1, 33, 0
2, 55557, Note_on_c, 1, 32, 74
2, 55570, Note_on_c, 1, 34, 0
2, 55583, Note_on_c, 1, 50, 0
2, 55629, Note_on_c, 1, 49, 80
2, 55631, Note_on_c, 1, 32, 0
2, 55632, Note_on_c, 1, 33, 90
2, 55860, Note_on_c, 1, 33, 0
2, 55860, Note_on_c, 1, 32, 50
2, 55900, Note_on_c, 1, 32, 0
2, 55906, Note_on_c, 1, 40, 81
2, 55962, Note_on_c, 1, 49, 0
2, 55985, Note_on_c, 1, 34, 49
2, 56019, Note_on_c, 1, 40, 0
2, 56020, Note_on_c, 1, 46, 82
2, 56035, Note_on_c, 1, 34, 0
2, 56152, Note_on_c, 1, 45, 72
2, 56168, Note_on_c, 1, 46, 0
2, 56232, Note_on_c, 1, 45, 0
2, 56239, Note_on_c, 1, 40, 54
2, 56254, Note_on_c, 1, 40, 0
2, 56278, Note_on_c, 1, 34, 74
2, 56398, Note_on_c, 1, 33, 76
2, 56414, Note_on_c, 1, 34, 0
2, 56575, Note_on_c, 1, 34, 19
2, 56588, Note_on_c, 1, 34, 0
2, 56600, Note_on_c, 1, 33, 0
2, 56602, Note_on_c, 1, 40, 90
2, 56869, Note_on_c, 1, 40, 0
2, 56874, Note_on_c, 1, 33, 85
2, 57067, Note_on_c, 1, 33, 0
2, 57073, Note_on_c, 1, 40, 91
2, 57084, Note_on_c, 1, 32, 44
2, 57093, Note_on_c, 1, 32, 0
2, 57227, Note_on_c, 1, 40, 0
2, 57236, Note_on_c, 1, 33, 85
2, 57242, Note_on_c, 1, 40, 29
2, 57255, Note_on_c, 1, 40, 0
2, 57562, Note_on_c, 1, 32, 58
2, 57579, Note_on_c, 1, 33, 0
2, 57593, Note_on_c, 1, 32, 0
2, 57611, Note_on_c, 1, 36, 50
2, 57701, Note_on_c, 1, 34, 39
2, 57716, Note_on_c, 1, 36, 0
2, 57724, Note_on_c, 1, 43, 80
2, 57737, Note_on_c, 1, 34, 0
2, 57912, Note_on_c, 1, 39, 70
2, 57923, Note_on_c, 1, 43, 0
2, 57951, Note_on_c, 1, 39, 0
2, 57957, Note_on_c, 1, 40, 57
2, 58038, Note_on_c, 1, 41, 83
2, 58052, Note_on_c, 1, 40, 0
2, 58159, Note_on_c, 1, 36, 61
2, 58172, Note_on_c, 1, 41, 0
2, 58184, Note_on_c, 1, 36, 0
2, 58200, Note_on_c, 1, 35, 67
2, 58291, Note_on_c, 1, 34, 33
2, 58305, Note_on_c, 1, 34, 0
2, 58318, Note_on_c, 1, 47, 80
2, 58321, Note_on_c, 1, 35, 0
2, 58407, Note_on_c, 1, 47, 0
2, 58432, Note_on_c, 1, 41, 66
2, 58507, Note_on_c, 1, 41, 0
2, 58516, Note_on_c, 1, 35, 62
2, 58535, Note_on_c, 1, 35, 0
2, 58562, Note_on_c, 1, 34, 69
2, 58682, Note_on_c, 1, 46, 75
2, 58697, Note_on_c, 1, 34, 0
2, 58799, Note_on_c, 1, 41, 60
2, 58904, Note_on_c, 1, 41, 0
2, 58915, Note_on_c, 1, 38, 66
2, 58919, Note_on_c, 1, 46, 0
2, 58999, Note_on_c, 1, 37, 39
2, 59011, Note_on_c, 1, 38, 0
2, 59026, Note_on_c, 1, 37, 0
2, 59038, Note_on_c, 1, 39, 60
2, 59157, Note_on_c, 1, 39, 0
2, 59161, Note_on_c, 1, 34, 73
2, 59281, Note_on_c, 1, 34, 0
2, 59284, Note_on_c, 1, 39, 70
2, 59397, Note_on_c, 1, 39, 0
2, 59407, Note_on_c, 1, 32, 47
2, 59482, Note_on_c, 1, 30, 75
2, 59497, Note_on_c, 1, 32, 0
2, 59534, Note_on_c, 1, 30, 0
2, 59536, Note_on_c, 1, 31, 71
2, 59644, Note_on_c, 1, 43, 80
2, 59673, Note_on_c, 1, 31, 0
2, 59765, Note_on_c, 1, 38, 71
2, 59766, Note_on_c, 1, 43, 0
2, 59825, Note_on_c, 1, 38, 0
2, 59844, Note_on_c, 1, 34, 62
2, 59864, Note_on_c, 1, 34, 0
2, 59883, Note_on_c, 1, 35, 55
2, 59996, Note_on_c, 1, 35, 0
2, 60002, Note_on_c, 1, 36, 66
2, 60092, Note_on_c, 1, 34, 50
2, 60112, Note_on_c, 1, 36, 0
2, 60122, Note_on_c, 1, 50, 89
2, 60135, Note_on_c, 1, 34, 0
2, 60230, Note_on_c, 1, 50, 0
2, 60239, Note_on_c, 1, 48, 69
2, 60335, Note_on_c, 1, 41, 43
2, 60342, Note_on_c, 1, 48, 0
2, 60350, Note_on_c, 1, 41, 0
2, 60362, Note_on_c, 1, 46, 71
2, 60459, Note_on_c, 1, 41, 24
2, 60463, Note_on_c, 1, 46, 0
2, 60471, Note_on_c, 1, 41, 0
2, 60482, Note_on_c, 1, 45, 70
2, 60590, Note_on_c, 1, 45, 0
2, 60604, Note_on_c, 1, 43, 53
2, 60705, Note_on_c, 1, 43, 0
2, 60719, Note_on_c, 1, 41, 60
2, 60832, Note_on_c, 1, 41, 0
2, 60839, Note_on_c, 1, 36, 87
2, 60960, Note_on_c, 1, 43, 94
2, 60961, Note_on_c, 1, 36, 0
2, 61041, Note_on_c, 1, 36, 71
2, 61060, Note_on_c, 1, 36, 0
2, 61061, Note_on_c, 1, 43, 0
2, 61078, Note_on_c, 1, 42, 77
2, 61189, Note_on_c, 1, 42, 0
2, 61203, Note_on_c, 1, 41, 66
2, 61291, Note_on_c, 1, 41, 0
2, 61292, Note_on_c, 1, 36, 85
2, 61406, Note_on_c, 1, 40, 101
2, 61408, Note_on_c, 1, 36, 0
2, 61568, Note_on_c, 1, 35, 83
2, 61577, Note_on_c, 1, 40, 0
2, 61754, Note_on_c, 1, 34, 50
2, 61793, Note_on_c, 1, 34, 0
2, 61794, Note_on_c, 1, 35, 0
2, 61801, Note_on_c, 1, 52, 95
2, 62000, Note_on_c, 1, 40, 85
2, 62019, Note_on_c, 1, 52, 0
2, 62110, Note_on_c, 1, 39, 48
2, 62161, Note_on_c, 1, 39, 0
2, 62162, Note_on_c, 1, 52, 91
2, 62176, Note_on_c, 1, 40, 0
2, 62244, Note_on_c, 1, 40, 80
2, 62348, Note_on_c, 1, 52, 0
2, 62482, Note_on_c, 1, 39, 42
2, 62521, Note_on_c, 1, 39, 0
2, 62529, Note_on_c, 1, 52, 103
2, 62543, Note_on_c, 1, 40, 0
2, 62715, Note_on_c, 1, 40, 82
2, 62816, Note_on_c, 1, 52, 0
2, 62874, Note_on_c, 1, 47, 85
2, 62878, Note_on_c, 1, 40, 0
2, 62945, Note_on_c, 1, 40, 36
2, 62947, Note_on_c, 1, 47, 0
2, 62959, Note_on_c, 1, 40, 0
2, 62990, Note_on_c, 1, 44, 68
2, 63120, Note_on_c, 1, 40, 55
2, 63164, Note_on_c, 1, 40, 0
2, 63174, Note_on_c, 1, 44, 0
2, 63207, Note_on_c, 1, 40, 70
2, 63232, Note_on_c, 1, 40, 0
2, 63250, Note_on_c, 1, 39, 60
2, 63325, Note_on_c, 1, 39, 0
2, 63331, Note_on_c, 1, 38, 75
2, 63445, Note_on_c, 1, 51, 80
2, 63480, Note_on_c, 1, 51, 0
2, 63496, Note_on_c, 1, 50, 74
2, 63678, Note_on_c, 1, 50, 0
2, 63686, Note_on_c, 1, 45, 72
2, 63800, Note_on_c, 1, 37, 54
2, 63814, Note_on_c, 1, 45, 0
2, 63817, Note_on_c, 1, 37, 0
2, 63817, Note_on_c, 1, 38, 0
2, 63841, Note_on_c, 1, 39, 72
2, 63921, Note_on_c, 1, 34, 25
2, 63929, Note_on_c, 1, 39, 0
2, 63933, Note_on_c, 1, 34, 0
2, 63961, Note_on_c, 1, 38, 76
2, 64063, Note_on_c, 1, 38, 0
2, 64084, Note_on_c, 1, 37, 84
2, 64192, Note_on_c, 1, 37, 0
2, 64207, Note_on_c, 1, 37, 80
2, 64318, Note_on_c, 1, 37, 0
2, 64326, Note_on_c, 1, 38, 80
2, 64412, Note_on_c, 1, 51, 85
2, 64525, Note_on_c, 1, 37, 47
2, 64543, Note_on_c, 1, 38, 0
2, 64551, Note_on_c, 1, 51, 0
2, 64560, Note_on_c, 1, 37, 0
2, 64569, Note_on_c, 1, 50, 66
2, 64653, Note_on_c, 1, 45, 66
2, 64657, Note_on_c, 1, 50, 0
2, 64741, Note_on_c, 1, 45, 0
2, 64769, Note_on_c, 1, 38, 83
2, 64899, Note_on_c, 1, 38, 0
2, 64901, Note_on_c, 1, 36, 60
2, 64916, Note_on_c, 1, 36, 0
2, 64940, Note_on_c, 1, 37, 84
2, 65052, Note_on_c, 1, 37, 0
2, 65056, Note_on_c, 1, 38, 81
2, 65139, Note_on_c, 1, 37, 62
2, 65147, Note_on_c, 1, 38, 0
2, 65164, Note_on_c, 1, 37, 0
2, 65172, Note_on_c, 1, 44, 73
2, 65269, Note_on_c, 1, 44, 0
2, 65288, Note_on_c, 1, 43, 71
2, 65386, Note_on_c, 1, 43, 0
2, 65404, Note_on_c, 1, 38, 64
2, 65521, Note_on_c, 1, 38, 0
2, 65522, Note_on_c, 1, 34, 62
2, 65635, Note_on_c, 1, 34, 0
2, 65647, Note_on_c, 1, 38, 61
2, 65747, Note_on_c, 1, 38, 0
2, 65755, Note_on_c, 1, 39, 67
2, 65848, Note_on_c, 1, 37, 43
2, 65880, Note_on_c, 1, 51, 91
2, 65886, Note_on_c, 1, 39, 0
2, 65889, Note_on_c, 1, 37, 0
2, 65963, Note_on_c, 1, 39, 25
2, 65994, Note_on_c, 1, 51, 0
2, 66001, Note_on_c, 1, 39, 0
2, 66007, Note_on_c, 1, 49, 62
2, 66086, Note_on_c, 1, 39, 48
2, 66098, Note_on_c, 1, 49, 0
2, 66123, Note_on_c, 1, 39, 0
2, 66127, Note_on_c, 1, 46, 51
2, 66204, Note_on_c, 1, 39, 46
2, 66218, Note_on_c, 1, 46, 0
2, 66231, Note_on_c, 1, 39, 0
2, 66245, Note_on_c, 1, 48, 81
2, 66323, Note_on_c, 1, 39, 33
2, 66346, Note_on_c, 1, 48, 0
2, 66353, Note_on_c, 1, 39, 0
2, 66364, Note_on_c, 1, 48, 84
2, 66450, Note_on_c, 1, 39, 37
2, 66464, Note_on_c, 1, 48, 0
2, 66478, Note_on_c, 1, 39, 0
2, 66481, Note_on_c, 1, 49, 77
2, 66567, Note_on_c, 1, 39, 31
2, 66572, Note_on_c, 1, 49, 0
2, 66576, Note_on_c, 1, 39, 0
2, 66601, Note_on_c, 1, 49, 79
2, 66701, Note_on_c, 1, 49, 0
2, 66715, Note_on_c, 1, 50, 70
2, 66785, Note_on_c, 1, 50, 0
2, 66804, Note_on_c, 1, 45, 39
2, 66809, Note_on_c, 1, 47, 28
2, 66816, Note_on_c, 1, 45, 0
2, 66819, Note_on_c, 1, 47, 0
2, 66852, Note_on_c, 1, 44, 54
2, 66959, Note_on_c, 1, 41, 57
2, 66961, Note_on_c, 1, 44, 0
2, 67071, Note_on_c, 1, 41, 0
2, 67077, Note_on_c, 1, 32, 58
2, 67190, Note_on_c, 1, 32, 0
2, 67199, Note_on_c, 1, 31, 59
2, 67283, Note_on_c, 1, 32, 64
2, 67305, Note_on_c, 1, 32, 0
2, 67316, Note_on_c, 1, 31, 0
2, 67320, Note_on_c, 1, 45, 90
2, 67428, Note_on_c, 1, 45, 0
2, 67439, Note_on_c, 1, 43, 58
2, 67555, Note_on_c, 1, 35, 75
2, 67556, Note_on_c, 1, 43, 0
2, 67672, Note_on_c, 1, 35, 0
2, 67679, Note_on_c, 1, 36, 68
2, 67771, Note_on_c, 1, 34, 45
2, 67793, Note_on_c, 1, 36, 0
2, 67797, Note_on_c, 1, 50, 103
2, 67816, Note_on_c, 1, 34, 0
2, 67913, Note_on_c, 1, 50, 0
2, 67916, Note_on_c, 1, 48, 80
2, 68009, Note_on_c, 1, 39, 83
2, 68014, Note_on_c, 1, 48, 0
2, 68038, Note_on_c, 1, 39, 0
2, 68044, Note_on_c, 1, 40, 77
2, 68122, Note_on_c, 1, 40, 0
2, 68124, Note_on_c, 1, 41, 95
2, 69052, Note_on_c, 1, 41, 0
2, 69052, End_track
3, 0, Start_track
3, 0, MIDI_port, 0
3, 0, Title_t, ""
3, 0, Program_c, 9, 32
3, 0, Note_on_c, 9, 59, 58
3, 0, Note_on_c, 9, 59, 0
3, 0, Note_on_c, 9, 36, 40
3, 0, Note_on_c, 9, 36, 0
3, 10, Note_on_c, 9, 36, 38
3, 12, Note_on_c, 9, 59, 56
3, 25, Note_on_c, 9, 36, 0
3, 110, Note_on_c, 9, 59, 0
3, 196, Note_on_c, 9, 36, 40
3, 206, Note_on_c, 9, 36, 0
3, 210, Note_on_c, 9, 59, 81
3, 225, Note_on_c, 9, 59, 0
3, 377, Note_on_c, 9, 59, 96
3, 400, Note_on_c, 9, 59, 0
3, 503, Note_on_c, 9, 40, 10
3, 526, Note_on_c, 9, 40, 0
3, 543, Note_on_c, 9, 40, 56
3, 552, Note_on_c, 9, 40, 0
3, 575, Note_on_c, 9, 59, 66
3, 586, Note_on_c, 9, 59, 0
3, 617, Note_on_c, 9, 59, 60
3, 618, Note_on_c, 9, 40, 60
3, 636, Note_on_c, 9, 40, 0
3, 644, Note_on_c, 9, 59, 0
3, 684, Note_on_c, 9, 59, 80
3, 689, Note_on_c, 9, 36, 47
3, 705, Note_on_c, 9, 59, 0
3, 708, Note_on_c, 9, 36, 0
3, 736, Note_on_c, 9, 36, 47
3, 774, Note_on_c, 9, 36, 0
3, 798, Note_on_c, 9, 59, 82
3, 802, Note_on_c, 9, 36, 46
3, 823, Note_on_c, 9, 59, 0
3, 825, Note_on_c, 9, 36, 0
3, 925, Note_on_c, 9, 59, 60
3, 937, Note_on_c, 9, 59, 0
3, 965, Note_on_c, 9, 59, 70
3, 1023, Note_on_c, 9, 59, 0
3, 1041, Note_on_c, 9, 38, 55
3, 1051, Note_on_c, 9, 38, 0
3, 1086, Note_on_c, 9, 59, 99
3, 1090, Note_on_c, 9, 36, 31
3, 1110, Note_on_c, 9, 36, 0
3, 1131, Note_on_c, 9, 59, 0
3, 1161, Note_on_c, 9, 36, 41
3, 1174, Note_on_c, 9, 36, 0
3, 1212, Note_on_c, 9, 59, 90
3, 1254, Note_on_c, 9, 59, 0
3, 1290, Note_on_c, 9, 59, 55
3, 1305, Note_on_c, 9, 59, 0
3, 1334, Note_on_c, 9, 59, 54
3, 1346, Note_on_c, 9, 59, 0
3, 1402, Note_on_c, 9, 59, 89
3, 1479, Note_on_c, 9, 59, 0
3, 1523, Note_on_c, 9, 36, 30
3, 1535, Note_on_c, 9, 36, 0
3, 1565, Note_on_c, 9, 40, 49
3, 1583, Note_on_c, 9, 40, 0
3, 1602, Note_on_c, 9, 40, 54
3, 1612, Note_on_c, 9, 40, 0
3, 1643, Note_on_c, 9, 59, 35
3, 1658, Note_on_c, 9, 59, 0
3, 1682, Note_on_c, 9, 59, 75
3, 1742, Note_on_c, 9, 59, 0
3, 1758, Note_on_c, 9, 36, 33
3, 1770, Note_on_c, 9, 36, 0
3, 1798, Note_on_c, 9, 40, 46
3, 1805, Note_on_c, 9, 59, 103
3, 1808, Note_on_c, 9, 40, 0
3, 1828, Note_on_c, 9, 40, 32
3, 1838, Note_on_c, 9, 40, 0
3, 1845, Note_on_c, 9, 59, 0
3, 1870, Note_on_c, 9, 36, 64
3, 1886, Note_on_c, 9, 36, 0
3, 1914, Note_on_c, 9, 36, 55
3, 1924, Note_on_c, 9, 59, 108
3, 1938, Note_on_c, 9, 36, 0
3, 1977, Note_on_c, 9, 59, 0
3, 2042, Note_on_c, 9, 59, 96
3, 2084, Note_on_c, 9, 59, 0
3, 2121, Note_on_c, 9, 36, 39
3, 2131, Note_on_c, 9, 36, 0
3, 2161, Note_on_c, 9, 59, 84
3, 2162, Note_on_c, 9, 36, 48
3, 2176, Note_on_c, 9, 59, 0
3, 2180, Note_on_c, 9, 36, 0
3, 2223, Note_on_c, 9, 59, 89
3, 2236, Note_on_c, 9, 40, 50
3, 2246, Note_on_c, 9, 40, 0
3, 2250, Note_on_c, 9, 59, 0
3, 2281, Note_on_c, 9, 36, 43
3, 2309, Note_on_c, 9, 36, 0
3, 2344, Note_on_c, 9, 59, 105
3, 2358, Note_on_c, 9, 36, 51
3, 2372, Note_on_c, 9, 59, 0
3, 2379, Note_on_c, 9, 36, 0
3, 2464, Note_on_c, 9, 59, 101
3, 2491, Note_on_c, 9, 59, 0
3, 2596, Note_on_c, 9, 59, 66
3, 2596, Note_on_c, 9, 40, 55
3, 2612, Note_on_c, 9, 40, 0
3, 2613, Note_on_c, 9, 59, 0
3, 2639, Note_on_c, 9, 36, 37
3, 2641, Note_on_c, 9, 59, 80
3, 2675, Note_on_c, 9, 36, 0
3, 2711, Note_on_c, 9, 59, 0
3, 2718, Note_on_c, 9, 36, 37
3, 2730, Note_on_c, 9, 36, 0
3, 2761, Note_on_c, 9, 59, 81
3, 2788, Note_on_c, 9, 59, 0
3, 2848, Note_on_c, 9, 59, 58
3, 2860, Note_on_c, 9, 59, 0
3, 2885, Note_on_c, 9, 59, 74
3, 2936, Note_on_c, 9, 59, 0
3, 2961, Note_on_c, 9, 38, 50
3, 2971, Note_on_c, 9, 38, 0
3, 3006, Note_on_c, 9, 59, 91
3, 3077, Note_on_c, 9, 38, 49
3, 3090, Note_on_c, 9, 38, 0
3, 3155, Note_on_c, 9, 59, 0
3, 3199, Note_on_c, 9, 36, 46
3, 3205, Note_on_c, 9, 59, 44
3, 3210, Note_on_c, 9, 36, 0
3, 3218, Note_on_c, 9, 59, 0
3, 3242, Note_on_c, 9, 36, 35
3, 3246, Note_on_c, 9, 59, 69
3, 3255, Note_on_c, 9, 36, 0
3, 3284, Note_on_c, 9, 59, 0
3, 3319, Note_on_c, 9, 40, 46
3, 3322, Note_on_c, 9, 59, 87
3, 3330, Note_on_c, 9, 40, 0
3, 3380, Note_on_c, 9, 59, 0
3, 3436, Note_on_c, 9, 59, 81
3, 3436, Note_on_c, 9, 36, 38
3, 3446, Note_on_c, 9, 36, 0
3, 3501, Note_on_c, 9, 59, 0
3, 3557, Note_on_c, 9, 36, 52
3, 3565, Note_on_c, 9, 59, 50
3, 3570, Note_on_c, 9, 36, 0
3, 3586, Note_on_c, 9, 59, 0
3, 3610, Note_on_c, 9, 59, 84
3, 3676, Note_on_c, 9, 59, 0
3, 3728, Note_on_c, 9, 59, 81
3, 3771, Note_on_c, 9, 59, 0
3, 3801, Note_on_c, 9, 51, 74
3, 3803, Note_on_c, 9, 37, 77
3, 3824, Note_on_c, 9, 51, 0
3, 3836, Note_on_c, 9, 37, 0
3, 3840, Note_on_c, 9, 36, 64
3, 3845, Note_on_c, 9, 57, 34
3, 3855, Note_on_c, 9, 51, 74
3, 3868, Note_on_c, 9, 57, 0
3, 3873, Note_on_c, 9, 36, 0
3, 3903, Note_on_c, 9, 51, 0
3, 3968, Note_on_c, 9, 51, 97
3, 4042, Note_on_c, 9, 51, 0
3, 4091, Note_on_c, 9, 51, 55
3, 4132, Note_on_c, 9, 33, 42
3, 4147, Note_on_c, 9, 33, 0
3, 4152, Note_on_c, 9, 51, 0
3, 4173, Note_on_c, 9, 37, 56
3, 4202, Note_on_c, 9, 37, 0
3, 4211, Note_on_c, 9, 51, 88
3, 4214, Note_on_c, 9, 57, 66
3, 4215, Note_on_c, 9, 36, 71
3, 4270, Note_on_c, 9, 51, 0
3, 4284, Note_on_c, 9, 57, 0
3, 4334, Note_on_c, 9, 51, 77
3, 4395, Note_on_c, 9, 51, 0
3, 4457, Note_on_c, 9, 51, 83
3, 4470, Note_on_c, 9, 36, 0
3, 4513, Note_on_c, 9, 51, 0
3, 4535, Note_on_c, 9, 36, 55
3, 4549, Note_on_c, 9, 36, 0
3, 4552, Note_on_c, 9, 51, 46
3, 4565, Note_on_c, 9, 51, 0
3, 4579, Note_on_c, 9, 36, 28
3, 4584, Note_on_c, 9, 51, 78
3, 4612, Note_on_c, 9, 36, 0
3, 4657, Note_on_c, 9, 51, 0
3, 4699, Note_on_c, 9, 51, 85
3, 4704, Note_on_c, 9, 38, 30
3, 4723, Note_on_c, 9, 38, 0
3, 4734, Note_on_c, 9, 38, 34
3, 4750, Note_on_c, 9, 38, 0
3, 4762, Note_on_c, 9, 51, 0
3, 4781, Note_on_c, 9, 36, 35
3, 4783, Note_on_c, 9, 51, 60
3, 4795, Note_on_c, 9, 36, 0
3, 4802, Note_on_c, 9, 51, 0
3, 4820, Note_on_c, 9, 38, 34
3, 4820, Note_on_c, 9, 51, 82
3, 4833, Note_on_c, 9, 38, 0
3, 4856, Note_on_c, 9, 38, 54
3, 4872, Note_on_c, 9, 38, 0
3, 4882, Note_on_c, 9, 51, 0
3, 4900, Note_on_c, 9, 36, 33
3, 4930, Note_on_c, 9, 36, 0
3, 4930, Note_on_c, 9, 51, 86
3, 4944, Note_on_c, 9, 38, 42
3, 4959, Note_on_c, 9, 38, 0
3, 4990, Note_on_c, 9, 38, 44
3, 4999, Note_on_c, 9, 38, 0
3, 5010, Note_on_c, 9, 51, 0
3, 5056, Note_on_c, 9, 51, 84
3, 5117, Note_on_c, 9, 51, 0
3, 5133, Note_on_c, 9, 36, 54
3, 5144, Note_on_c, 9, 36, 0
3, 5145, Note_on_c, 9, 51, 52
3, 5158, Note_on_c, 9, 51, 0
3, 5172, Note_on_c, 9, 36, 53
3, 5181, Note_on_c, 9, 51, 75
3, 5225, Note_on_c, 9, 36, 0
3, 5233, Note_on_c, 9, 51, 0
3, 5250, Note_on_c, 9, 36, 39
3, 5261, Note_on_c, 9, 51, 79
3, 5269, Note_on_c, 9, 36, 0
3, 5357, Note_on_c, 9, 51, 0
3, 5379, Note_on_c, 9, 51, 60
3, 5393, Note_on_c, 9, 51, 0
3, 5418, Note_on_c, 9, 51, 78
3, 5499, Note_on_c, 9, 40, 50
3, 5502, Note_on_c, 9, 51, 0
3, 5507, Note_on_c, 9, 40, 0
3, 5535, Note_on_c, 9, 51, 79
3, 5611, Note_on_c, 9, 51, 0
3, 5622, Note_on_c, 9, 36, 42
3, 5632, Note_on_c, 9, 36, 0
3, 5653, Note_on_c, 9, 51, 86
3, 5731, Note_on_c, 9, 51, 0
3, 5735, Note_on_c, 9, 36, 43
3, 5745, Note_on_c, 9, 36, 0
3, 5775, Note_on_c, 9, 51, 85
3, 5834, Note_on_c, 9, 51, 0
3, 5862, Note_on_c, 9, 51, 53
3, 5883, Note_on_c, 9, 51, 0
3, 5895, Note_on_c, 9, 40, 48
3, 5899, Note_on_c, 9, 51, 75
3, 5908, Note_on_c, 9, 40, 0
3, 5965, Note_on_c, 9, 51, 0
3, 5968, Note_on_c, 9, 40, 63
3, 5978, Note_on_c, 9, 40, 0
3, 6014, Note_on_c, 9, 51, 85
3, 6088, Note_on_c, 9, 51, 0
3, 6089, Note_on_c, 9, 36, 40
3, 6100, Note_on_c, 9, 36, 0
3, 6131, Note_on_c, 9, 51, 87
3, 6189, Note_on_c, 9, 51, 0
3, 6208, Note_on_c, 9, 36, 44
3, 6219, Note_on_c, 9, 36, 0
3, 6221, Note_on_c, 9, 51, 48
3, 6237, Note_on_c, 9, 51, 0
3, 6255, Note_on_c, 9, 51, 77
3, 6324, Note_on_c, 9, 51, 0
3, 6327, Note_on_c, 9, 36, 49
3, 6336, Note_on_c, 9, 36, 0
3, 6365, Note_on_c, 9, 40, 57
3, 6368, Note_on_c, 9, 51, 83
3, 6373, Note_on_c, 9, 40, 0
3, 6411, Note_on_c, 9, 51, 0
3, 6442, Note_on_c, 9, 40, 101
3, 6454, Note_on_c, 9, 40, 0
3, 6489, Note_on_c, 9, 51, 74
3, 6539, Note_on_c, 9, 51, 0
3, 6561, Note_on_c, 9, 36, 38
3, 6571, Note_on_c, 9, 36, 0
3, 6575, Note_on_c, 9, 51, 69
3, 6596, Note_on_c, 9, 51, 0
3, 6602, Note_on_c, 9, 36, 43
3, 6615, Note_on_c, 9, 51, 85
3, 6641, Note_on_c, 9, 36, 0
3, 6658, Note_on_c, 9, 51, 0
3, 6681, Note_on_c, 9, 51, 81
3, 6682, Note_on_c, 9, 36, 62
3, 6691, Note_on_c, 9, 36, 0
3, 6762, Note_on_c, 9, 51, 0
3, 6801, Note_on_c, 9, 51, 85
3, 6802, Note_on_c, 9, 36, 39
3, 6813, Note_on_c, 9, 36, 0
3, 6853, Note_on_c, 9, 51, 0
3, 6920, Note_on_c, 9, 36, 30
3, 6922, Note_on_c, 9, 51, 86
3, 6929, Note_on_c, 9, 36, 0
3, 6972, Note_on_c, 9, 51, 0
3, 7029, Note_on_c, 9, 36, 36
3, 7039, Note_on_c, 9, 36, 0
3, 7041, Note_on_c, 9, 51, 90
3, 7072, Note_on_c, 9, 37, 37
3, 7079, Note_on_c, 9, 37, 0
3, 7083, Note_on_c, 9, 51, 0
3, 7144, Note_on_c, 9, 37, 66
3, 7148, Note_on_c, 9, 51, 73
3, 7170, Note_on_c, 9, 51, 0
3, 7195, Note_on_c, 9, 51, 77
3, 7245, Note_on_c, 9, 51, 0
3, 7311, Note_on_c, 9, 51, 78
3, 7348, Note_on_c, 9, 51, 0
3, 7388, Note_on_c, 9, 51, 80
3, 7420, Note_on_c, 9, 51, 0
3, 7509, Note_on_c, 9, 51, 85
3, 7514, Note_on_c, 9, 31, 39
3, 7543, Note_on_c, 9, 51, 0
3, 7547, Note_on_c, 9, 31, 0
3, 7558, Note_on_c, 9, 37, 69
3, 7559, Note_on_c, 9, 59, 73
3, 7583, Note_on_c, 9, 59, 0
3, 7603, Note_on_c, 9, 37, 0
3, 7628, Note_on_c, 9, 57, 89
3, 7629, Note_on_c, 9, 36, 89
3, 7642, Note_on_c, 9, 37, 0
3, 7681, Note_on_c, 9, 59, 99
3, 7691, Note_on_c, 9, 57, 0
3, 7709, Note_on_c, 9, 59, 0
3, 7797, Note_on_c, 9, 36, 0
3, 7804, Note_on_c, 9, 59, 101
3, 7832, Note_on_c, 9, 59, 0
3, 8003, Note_on_c, 9, 59, 56
3, 8015, Note_on_c, 9, 59, 0
3, 8048, Note_on_c, 9, 59, 58
3, 8069, Note_on_c, 9, 59, 0
3, 8121, Note_on_c, 9, 36, 33
3, 8123, Note_on_c, 9, 59, 99
3, 8132, Note_on_c, 9, 36, 0
3, 8160, Note_on_c, 9, 59, 0
3, 8238, Note_on_c, 9, 40, 56
3, 8238, Note_on_c, 9, 59, 103
3, 8247, Note_on_c, 9, 40, 0
3, 8277, Note_on_c, 9, 40, 51
3, 8278, Note_on_c, 9, 59, 0
3, 8287, Note_on_c, 9, 40, 0
3, 8307, Note_on_c, 9, 40, 58
3, 8315, Note_on_c, 9, 40, 0
3, 8359, Note_on_c, 9, 36, 46
3, 8359, Note_on_c, 9, 59, 96
3, 8369, Note_on_c, 9, 36, 0
3, 8399, Note_on_c, 9, 59, 0
3, 8489, Note_on_c, 9, 59, 72
3, 8502, Note_on_c, 9, 59, 0
3, 8529, Note_on_c, 9, 59, 80
3, 8563, Note_on_c, 9, 59, 0
3, 8605, Note_on_c, 9, 36, 29
3, 8617, Note_on_c, 9, 36, 0
3, 8645, Note_on_c, 9, 40, 40
3, 8650, Note_on_c, 9, 59, 101
3, 8656, Note_on_c, 9, 40, 0
3, 8678, Note_on_c, 9, 59, 0
3, 8689, Note_on_c, 9, 40, 36
3, 8699, Note_on_c, 9, 40, 0
3, 8768, Note_on_c, 9, 59, 105
3, 8797, Note_on_c, 9, 59, 0
3, 8843, Note_on_c, 9, 36, 32
3, 8856, Note_on_c, 9, 36, 0
3, 8883, Note_on_c, 9, 40, 73
3, 8892, Note_on_c, 9, 59, 92
3, 8902, Note_on_c, 9, 40, 0
3, 8917, Note_on_c, 9, 59, 0
3, 8917, Note_on_c, 9, 37, 71
3, 8928, Note_on_c, 9, 37, 0
3, 8951, Note_on_c, 9, 59, 79
3, 8961, Note_on_c, 9, 36, 64
3, 8975, Note_on_c, 9, 36, 0
3, 8978, Note_on_c, 9, 59, 0
3, 9000, Note_on_c, 9, 59, 69
3, 9005, Note_on_c, 9, 36, 62
3, 9029, Note_on_c, 9, 59, 0
3, 9049, Note_on_c, 9, 36, 0
3, 9078, Note_on_c, 9, 36, 60
3, 9078, Note_on_c, 9, 59, 92
3, 9100, Note_on_c, 9, 36, 0
3, 9116, Note_on_c, 9, 59, 0
3, 9192, Note_on_c, 9, 59, 94
3, 9227, Note_on_c, 9, 59, 0
3, 9321, Note_on_c, 9, 59, 54
3, 9333, Note_on_c, 9, 59, 0
3, 9364, Note_on_c, 9, 59, 80
3, 9415, Note_on_c, 9, 40, 37
3, 9424, Note_on_c, 9, 40, 0
3, 9436, Note_on_c, 9, 59, 0
3, 9449, Note_on_c, 9, 37, 37
3, 9472, Note_on_c, 9, 37, 0
3, 9481, Note_on_c, 9, 59, 71
3, 9490, Note_on_c, 9, 36, 41
3, 9505, Note_on_c, 9, 59, 0
3, 9534, Note_on_c, 9, 36, 0
3, 9553, Note_on_c, 9, 59, 85
3, 9564, Note_on_c, 9, 36, 53
3, 9584, Note_on_c, 9, 36, 0
3, 9654, Note_on_c, 9, 59, 0
3, 9673, Note_on_c, 9, 53, 81
3, 9698, Note_on_c, 9, 53, 0
3, 9726, Note_on_c, 9, 59, 54
3, 9745, Note_on_c, 9, 59, 0
3, 9797, Note_on_c, 9, 59, 84
3, 9838, Note_on_c, 9, 40, 51
3, 9847, Note_on_c, 9, 40, 0
3, 9878, Note_on_c, 9, 59, 0
3, 9880, Note_on_c, 9, 37, 45
3, 9900, Note_on_c, 9, 37, 0
3, 9916, Note_on_c, 9, 59, 74
3, 9918, Note_on_c, 9, 40, 49
3, 9931, Note_on_c, 9, 40, 0
3, 9955, Note_on_c, 9, 59, 0
3, 10038, Note_on_c, 9, 59, 81
3, 10097, Note_on_c, 9, 59, 0
3, 10113, Note_on_c, 9, 40, 31
3, 10122, Note_on_c, 9, 40, 0
3, 10153, Note_on_c, 9, 37, 43
3, 10157, Note_on_c, 9, 59, 80
3, 10163, Note_on_c, 9, 37, 0
3, 10182, Note_on_c, 9, 59, 0
3, 10198, Note_on_c, 9, 40, 40
3, 10205, Note_on_c, 9, 59, 71
3, 10210, Note_on_c, 9, 40, 0
3, 10230, Note_on_c, 9, 59, 0
3, 10328, Note_on_c, 9, 59, 83
3, 10367, Note_on_c, 9, 59, 0
3, 10445, Note_on_c, 9, 59, 92
3, 10509, Note_on_c, 9, 59, 0
3, 10570, Note_on_c, 9, 40, 48
3, 10572, Note_on_c, 9, 59, 57
3, 10580, Note_on_c, 9, 40, 0
3, 10583, Note_on_c, 9, 59, 0
3, 10612, Note_on_c, 9, 37, 53
3, 10621, Note_on_c, 9, 37, 0
3, 10645, Note_on_c, 9, 40, 57
3, 10646, Note_on_c, 9, 59, 60
3, 10659, Note_on_c, 9, 59, 0
3, 10662, Note_on_c, 9, 40, 0
3, 10692, Note_on_c, 9, 59, 66
3, 10728, Note_on_c, 9, 59, 0
3, 10762, Note_on_c, 9, 53, 88
3, 10796, Note_on_c, 9, 53, 0
3, 10846, Note_on_c, 9, 40, 49
3, 10854, Note_on_c, 9, 40, 0
3, 10880, Note_on_c, 9, 37, 32
3, 10880, Note_on_c, 9, 59, 80
3, 10907, Note_on_c, 9, 37, 0
3, 10910, Note_on_c, 9, 59, 0
3, 10919, Note_on_c, 9, 36, 62
3, 10969, Note_on_c, 9, 36, 0
3, 10995, Note_on_c, 9, 36, 64
3, 11003, Note_on_c, 9, 53, 78
3, 11022, Note_on_c, 9, 36, 0
3, 11027, Note_on_c, 9, 53, 0
3, 11055, Note_on_c, 9, 59, 105
3, 11115, Note_on_c, 9, 59, 0
3, 11164, Note_on_c, 9, 59, 51
3, 11175, Note_on_c, 9, 59, 0
3, 11243, Note_on_c, 9, 53, 87
3, 11275, Note_on_c, 9, 53, 0
3, 11359, Note_on_c, 9, 40, 50
3, 11362, Note_on_c, 9, 38, 45
3, 11364, Note_on_c, 9, 53, 80
3, 11367, Note_on_c, 9, 40, 0
3, 11370, Note_on_c, 9, 38, 0
3, 11387, Note_on_c, 9, 53, 0
3, 11406, Note_on_c, 9, 36, 33
3, 11410, Note_on_c, 9, 51, 98
3, 11417, Note_on_c, 9, 36, 0
3, 11484, Note_on_c, 9, 37, 65
3, 11515, Note_on_c, 9, 37, 0
3, 11524, Note_on_c, 9, 36, 48
3, 11531, Note_on_c, 9, 57, 29
3, 11541, Note_on_c, 9, 57, 0
3, 11561, Note_on_c, 9, 36, 0
3, 11602, Note_on_c, 9, 51, 0
3, 11623, Note_on_c, 9, 51, 57
3, 11635, Note_on_c, 9, 51, 0
3, 11655, Note_on_c, 9, 51, 60
3, 11729, Note_on_c, 9, 51, 0
3, 11770, Note_on_c, 9, 51, 74
3, 11838, Note_on_c, 9, 51, 0
3, 11851, Note_on_c, 9, 36, 69
3, 11880, Note_on_c, 9, 36, 0
3, 11887, Note_on_c, 9, 51, 76
3, 11895, Note_on_c, 9, 36, 46
3, 11949, Note_on_c, 9, 51, 0
3, 11952, Note_on_c, 9, 36, 0
3, 11970, Note_on_c, 9, 36, 58
3, 11977, Note_on_c, 9, 51, 36
3, 11979, Note_on_c, 9, 36, 0
3, 11990, Note_on_c, 9, 51, 0
3, 12009, Note_on_c, 9, 51, 73
3, 12077, Note_on_c, 9, 51, 0
3, 12133, Note_on_c, 9, 51, 80
3, 12193, Note_on_c, 9, 51, 0
3, 12227, Note_on_c, 9, 51, 42
3, 12238, Note_on_c, 9, 51, 0
3, 12256, Note_on_c, 9, 51, 73
3, 12329, Note_on_c, 9, 44, 56
3, 12330, Note_on_c, 9, 51, 0
3, 12341, Note_on_c, 9, 44, 0
3, 12377, Note_on_c, 9, 51, 84
3, 12438, Note_on_c, 9, 51, 0
3, 12448, Note_on_c, 9, 44, 62
3, 12457, Note_on_c, 9, 44, 0
3, 12496, Note_on_c, 9, 51, 83
3, 12548, Note_on_c, 9, 51, 0
3, 12567, Note_on_c, 9, 44, 60
3, 12580, Note_on_c, 9, 44, 0
3, 12610, Note_on_c, 9, 51, 81
3, 12669, Note_on_c, 9, 51, 0
3, 12694, Note_on_c, 9, 44, 60
3, 12705, Note_on_c, 9, 44, 0
3, 12708, Note_on_c, 9, 51, 52
3, 12724, Note_on_c, 9, 51, 0
3, 12743, Note_on_c, 9, 51, 71
3, 12801, Note_on_c, 9, 51, 0
3, 12816, Note_on_c, 9, 44, 62
3, 12831, Note_on_c, 9, 44, 0
3, 12856, Note_on_c, 9, 51, 88
3, 12913, Note_on_c, 9, 51, 0
3, 12938, Note_on_c, 9, 44, 60
3, 12942, Note_on_c, 9, 51, 53
3, 12952, Note_on_c, 9, 44, 0
3, 12958, Note_on_c, 9, 51, 0
3, 12978, Note_on_c, 9, 51, 75
3, 13039, Note_on_c, 9, 51, 0
3, 13059, Note_on_c, 9, 37, 67
3, 13088, Note_on_c, 9, 37, 0
3, 13097, Note_on_c, 9, 51, 88
3, 13104, Note_on_c, 9, 36, 50
3, 13148, Note_on_c, 9, 36, 0
3, 13166, Note_on_c, 9, 51, 0
3, 13179, Note_on_c, 9, 36, 66
3, 13201, Note_on_c, 9, 36, 0
3, 13219, Note_on_c, 9, 51, 84
3, 13273, Note_on_c, 9, 51, 0
3, 13302, Note_on_c, 9, 51, 47
3, 13316, Note_on_c, 9, 51, 0
3, 13335, Note_on_c, 9, 51, 81
3, 13382, Note_on_c, 9, 51, 0
3, 13424, Note_on_c, 9, 36, 60
3, 13440, Note_on_c, 9, 36, 0
3, 13451, Note_on_c, 9, 51, 90
3, 13460, Note_on_c, 9, 36, 47
3, 13484, Note_on_c, 9, 36, 0
3, 13515, Note_on_c, 9, 51, 0
3, 13569, Note_on_c, 9, 51, 82
3, 13624, Note_on_c, 9, 51, 0
3, 13668, Note_on_c, 9, 51, 53
3, 13679, Note_on_c, 9, 51, 0
3, 13695, Note_on_c, 9, 51, 77
3, 13745, Note_on_c, 9, 51, 0
3, 13812, Note_on_c, 9, 51, 86
3, 13864, Note_on_c, 9, 51, 0
3, 13888, Note_on_c, 9, 36, 26
3, 13899, Note_on_c, 9, 36, 0
3, 13924, Note_on_c, 9, 40, 42
3, 13924, Note_on_c, 9, 51, 81
3, 13936, Note_on_c, 9, 40, 0
3, 13959, Note_on_c, 9, 40, 47
3, 13973, Note_on_c, 9, 51, 0
3, 13977, Note_on_c, 9, 40, 0
3, 14018, Note_on_c, 9, 51, 36
3, 14026, Note_on_c, 9, 40, 35
3, 14030, Note_on_c, 9, 51, 0
3, 14039, Note_on_c, 9, 40, 0
3, 14049, Note_on_c, 9, 51, 77
3, 14054, Note_on_c, 9, 40, 71
3, 14063, Note_on_c, 9, 40, 0
3, 14090, Note_on_c, 9, 51, 0
3, 14124, Note_on_c, 9, 36, 43
3, 14134, Note_on_c, 9, 36, 0
3, 14164, Note_on_c, 9, 36, 29
3, 14167, Note_on_c, 9, 51, 93
3, 14210, Note_on_c, 9, 36, 0
3, 14222, Note_on_c, 9, 51, 0
3, 14238, Note_on_c, 9, 36, 47
3, 14253, Note_on_c, 9, 51, 50
3, 14259, Note_on_c, 9, 36, 0
3, 14276, Note_on_c, 9, 51, 0
3, 14368, Note_on_c, 9, 51, 94
3, 14411, Note_on_c, 9, 40, 25
3, 14424, Note_on_c, 9, 40, 0
3, 14439, Note_on_c, 9, 40, 26
3, 14448, Note_on_c, 9, 51, 0
3, 14449, Note_on_c, 9, 40, 0
3, 14485, Note_on_c, 9, 51, 47
3, 14500, Note_on_c, 9, 51, 0
3, 14524, Note_on_c, 9, 51, 74
3, 14581, Note_on_c, 9, 40, 39
3, 14591, Note_on_c, 9, 40, 0
3, 14608, Note_on_c, 9, 51, 0
3, 14608, Note_on_c, 9, 40, 34
3, 14617, Note_on_c, 9, 40, 0
3, 14649, Note_on_c, 9, 51, 86
3, 14721, Note_on_c, 9, 40, 66
3, 14725, Note_on_c, 9, 51, 0
3, 14737, Note_on_c, 9, 40, 0
3, 14772, Note_on_c, 9, 51, 79
3, 14821, Note_on_c, 9, 51, 0
3, 14846, Note_on_c, 9, 36, 22
3, 14858, Note_on_c, 9, 36, 0
3, 14882, Note_on_c, 9, 40, 34
3, 14889, Note_on_c, 9, 51, 83
3, 14893, Note_on_c, 9, 40, 0
3, 14914, Note_on_c, 9, 40, 43
3, 14924, Note_on_c, 9, 40, 0
3, 14972, Note_on_c, 9, 51, 0
3, 15003, Note_on_c, 9, 40, 32
3, 15012, Note_on_c, 9, 51, 76
3, 15018, Note_on_c, 9, 40, 0
3, 15047, Note_on_c, 9, 40, 20
3, 15055, Note_on_c, 9, 40, 0
3, 15079, Note_on_c, 9, 51, 0
3, 15126, Note_on_c, 9, 51, 72
3, 15129, Note_on_c, 9, 40, 47
3, 15139, Note_on_c, 9, 40, 0
3, 15161, Note_on_c, 9, 40, 39
3, 15177, Note_on_c, 9, 40, 0
3, 15183, Note_on_c, 9, 51, 0
3, 15209, Note_on_c, 9, 36, 24
3, 15213, Note_on_c, 9, 53, 92
3, 15217, Note_on_c, 9, 36, 0
3, 15250, Note_on_c, 9, 40, 54
3, 15252, Note_on_c, 9, 53, 0
3, 15259, Note_on_c, 9, 40, 0
3, 15302, Note_on_c, 9, 37, 51
3, 15319, Note_on_c, 9, 37, 0
3, 15323, Note_on_c, 9, 59, 90
3, 15336, Note_on_c, 9, 37, 67
3, 15359, Note_on_c, 9, 37, 0
3, 15373, Note_on_c, 9, 57, 48
3, 15373, Note_on_c, 9, 36, 64
3, 15386, Note_on_c, 9, 57, 0
3, 15419, Note_on_c, 9, 36, 0
3, 15429, Note_on_c, 9, 59, 0
3, 15468, Note_on_c, 9, 59, 35
3, 15481, Note_on_c, 9, 59, 0
3, 15573, Note_on_c, 9, 59, 87
3, 15596, Note_on_c, 9, 59, 0
3, 15620, Note_on_c, 9, 59, 67
3, 15692, Note_on_c, 9, 59, 0
3, 15739, Note_on_c, 9, 59, 88
3, 15805, Note_on_c, 9, 59, 0
3, 15815, Note_on_c, 9, 40, 57
3, 15824, Note_on_c, 9, 40, 0
3, 15829, Note_on_c, 9, 59, 60
3, 15840, Note_on_c, 9, 59, 0
3, 15854, Note_on_c, 9, 40, 46
3, 15863, Note_on_c, 9, 59, 72
3, 15869, Note_on_c, 9, 40, 0
3, 15891, Note_on_c, 9, 40, 44
3, 15900, Note_on_c, 9, 40, 0
3, 15919, Note_on_c, 9, 59, 0
3, 15982, Note_on_c, 9, 59, 92
3, 16048, Note_on_c, 9, 59, 0
3, 16071, Note_on_c, 9, 59, 72
3, 16086, Note_on_c, 9, 59, 0
3, 16112, Note_on_c, 9, 59, 77
3, 16139, Note_on_c, 9, 59, 0
3, 16215, Note_on_c, 9, 59, 96
3, 16277, Note_on_c, 9, 59, 0
3, 16292, Note_on_c, 9, 36, 41
3, 16303, Note_on_c, 9, 36, 0
3, 16330, Note_on_c, 9, 59, 72
3, 16373, Note_on_c, 9, 59, 0
3, 16384, Note_on_c, 9, 37, 56
3, 16395, Note_on_c, 9, 37, 0
3, 16452, Note_on_c, 9, 59, 91
3, 16460, Note_on_c, 9, 37, 77
3, 16484, Note_on_c, 9, 37, 0
3, 16506, Note_on_c, 9, 59, 0
3, 16535, Note_on_c, 9, 37, 71
3, 16556, Note_on_c, 9, 37, 0
3, 16570, Note_on_c, 9, 59, 87
3, 16606, Note_on_c, 9, 37, 64
3, 16617, Note_on_c, 9, 59, 0
3, 16624, Note_on_c, 9, 37, 0
3, 16690, Note_on_c, 9, 59, 85
3, 16691, Note_on_c, 9, 36, 25
3, 16702, Note_on_c, 9, 36, 0
3, 16730, Note_on_c, 9, 59, 0
3, 16756, Note_on_c, 9, 36, 84
3, 16770, Note_on_c, 9, 59, 57
3, 16783, Note_on_c, 9, 59, 0
3, 16785, Note_on_c, 9, 36, 0
3, 16803, Note_on_c, 9, 36, 63
3, 16806, Note_on_c, 9, 59, 77
3, 16830, Note_on_c, 9, 36, 0
3, 16864, Note_on_c, 9, 59, 0
3, 16929, Note_on_c, 9, 59, 90
3, 16989, Note_on_c, 9, 36, 38
3, 17001, Note_on_c, 9, 36, 0
3, 17004, Note_on_c, 9, 59, 0
3, 17037, Note_on_c, 9, 59, 60
3, 17061, Note_on_c, 9, 59, 0
3, 17111, Note_on_c, 9, 36, 68
3, 17120, Note_on_c, 9, 59, 84
3, 17126, Note_on_c, 9, 36, 0
3, 17141, Note_on_c, 9, 59, 0
3, 17156, Note_on_c, 9, 40, 27
3, 17163, Note_on_c, 9, 59, 77
3, 17177, Note_on_c, 9, 40, 0
3, 17190, Note_on_c, 9, 59, 0
3, 17231, Note_on_c, 9, 40, 68
3, 17255, Note_on_c, 9, 40, 0
3, 17255, Note_on_c, 9, 59, 91
3, 17277, Note_on_c, 9, 40, 50
3, 17310, Note_on_c, 9, 59, 0
3, 17327, Note_on_c, 9, 40, 0
3, 17352, Note_on_c, 9, 40, 46
3, 17362, Note_on_c, 9, 40, 0
3, 17396, Note_on_c, 9, 59, 74
3, 17425, Note_on_c, 9, 59, 0
3, 17485, Note_on_c, 9, 59, 54
3, 17497, Note_on_c, 9, 59, 0
3, 17522, Note_on_c, 9, 59, 74
3, 17554, Note_on_c, 9, 59, 0
3, 17610, Note_on_c, 9, 59, 91
3, 17688, Note_on_c, 9, 59, 0
3, 17726, Note_on_c, 9, 59, 54
3, 17739, Note_on_c, 9, 59, 0
3, 17770, Note_on_c, 9, 59, 79
3, 17836, Note_on_c, 9, 59, 0
3, 17845, Note_on_c, 9, 40, 58
3, 17871, Note_on_c, 9, 40, 0
3, 17886, Note_on_c, 9, 38, 35
3, 17895, Note_on_c, 9, 38, 0
3, 17895, Note_on_c, 9, 59, 79
3, 17918, Note_on_c, 9, 59, 0
3, 17926, Note_on_c, 9, 36, 50
3, 17936, Note_on_c, 9, 36, 0
3, 17963, Note_on_c, 9, 36, 55
3, 17967, Note_on_c, 9, 59, 95
3, 18005, Note_on_c, 9, 36, 0
3, 18048, Note_on_c, 9, 59, 0
3, 18100, Note_on_c, 9, 59, 44
3, 18113, Note_on_c, 9, 59, 0
3, 18136, Note_on_c, 9, 59, 80
3, 18202, Note_on_c, 9, 59, 0
3, 18254, Note_on_c, 9, 59, 94
3, 18326, Note_on_c, 9, 59, 0
3, 18332, Note_on_c, 9, 40, 24
3, 18339, Note_on_c, 9, 40, 0
3, 18373, Note_on_c, 9, 59, 83
3, 18414, Note_on_c, 9, 59, 0
3, 18441, Note_on_c, 9, 40, 40
3, 18450, Note_on_c, 9, 40, 0
3, 18452, Note_on_c, 9, 59, 57
3, 18465, Note_on_c, 9, 59, 0
3, 18489, Note_on_c, 9, 59, 78
3, 18538, Note_on_c, 9, 59, 0
3, 18556, Note_on_c, 9, 44, 55
3, 18570, Note_on_c, 9, 44, 0
3, 18603, Note_on_c, 9, 59, 92
3, 18669, Note_on_c, 9, 59, 0
3, 18673, Note_on_c, 9, 44, 69
3, 18687, Note_on_c, 9, 44, 0
3, 18720, Note_on_c, 9, 59, 80
3, 18774, Note_on_c, 9, 59, 0
3, 18794, Note_on_c, 9, 44, 71
3, 18807, Note_on_c, 9, 44, 0
3, 18834, Note_on_c, 9, 59, 92
3, 18896, Note_on_c, 9, 59, 0
3, 18908, Note_on_c, 9, 44, 70
3, 18923, Note_on_c, 9, 44, 0
3, 18949, Note_on_c, 9, 59, 80
3, 19007, Note_on_c, 9, 59, 0
3, 19024, Note_on_c, 9, 44, 72
3, 19037, Note_on_c, 9, 44, 0
3, 19043, Note_on_c, 9, 59, 48
3, 19055, Note_on_c, 9, 59, 0
3, 19151, Note_on_c, 9, 59, 108
3, 19156, Note_on_c, 9, 37, 75
3, 19192, Note_on_c, 9, 37, 0
3, 19200, Note_on_c, 9, 57, 61
3, 19200, Note_on_c, 9, 36, 64
3, 19213, Note_on_c, 9, 57, 0
3, 19234, Note_on_c, 9, 36, 0
3, 19293, Note_on_c, 9, 59, 0
3, 19328, Note_on_c, 9, 59, 54
3, 19368, Note_on_c, 9, 59, 0
3, 19415, Note_on_c, 9, 59, 61
3, 19432, Note_on_c, 9, 59, 0
3, 19460, Note_on_c, 9, 59, 75
3, 19514, Note_on_c, 9, 59, 0
3, 19574, Note_on_c, 9, 59, 84
3, 19626, Note_on_c, 9, 59, 0
3, 19659, Note_on_c, 9, 36, 42
3, 19659, Note_on_c, 9, 59, 48
3, 19671, Note_on_c, 9, 36, 0
3, 19687, Note_on_c, 9, 59, 0
3, 19698, Note_on_c, 9, 59, 38
3, 19702, Note_on_c, 9, 36, 30
3, 19716, Note_on_c, 9, 36, 0
3, 19768, Note_on_c, 9, 59, 0
3, 19817, Note_on_c, 9, 59, 89
3, 19888, Note_on_c, 9, 59, 0
3, 19940, Note_on_c, 9, 59, 77
3, 19996, Note_on_c, 9, 59, 0
3, 20022, Note_on_c, 9, 59, 61
3, 20037, Note_on_c, 9, 59, 0
3, 20062, Note_on_c, 9, 59, 82
3, 20106, Note_on_c, 9, 59, 0
3, 20133, Note_on_c, 9, 59, 83
3, 20214, Note_on_c, 9, 59, 0
3, 20253, Note_on_c, 9, 59, 54
3, 20265, Note_on_c, 9, 59, 0
3, 20300, Note_on_c, 9, 59, 64
3, 20327, Note_on_c, 9, 59, 0
3, 20371, Note_on_c, 9, 59, 95
3, 20445, Note_on_c, 9, 59, 0
3, 20492, Note_on_c, 9, 59, 38
3, 20492, Note_on_c, 9, 40, 51
3, 20501, Note_on_c, 9, 40, 0
3, 20507, Note_on_c, 9, 59, 0
3, 20526, Note_on_c, 9, 37, 44
3, 20532, Note_on_c, 9, 59, 60
3, 20550, Note_on_c, 9, 59, 0
3, 20552, Note_on_c, 9, 37, 0
3, 20568, Note_on_c, 9, 40, 33
3, 20578, Note_on_c, 9, 40, 0
3, 20607, Note_on_c, 9, 59, 96
3, 20666, Note_on_c, 9, 59, 0
3, 20724, Note_on_c, 9, 36, 46
3, 20726, Note_on_c, 9, 59, 91
3, 20735, Note_on_c, 9, 36, 0
3, 20766, Note_on_c, 9, 40, 36
3, 20775, Note_on_c, 9, 40, 0
3, 20778, Note_on_c, 9, 59, 0
3, 20843, Note_on_c, 9, 36, 49
3, 20853, Note_on_c, 9, 59, 60
3, 20855, Note_on_c, 9, 36, 0
3, 20865, Note_on_c, 9, 59, 0
3, 20885, Note_on_c, 9, 36, 49
3, 20894, Note_on_c, 9, 59, 76
3, 20942, Note_on_c, 9, 36, 0
3, 20958, Note_on_c, 9, 59, 0
3, 20959, Note_on_c, 9, 36, 57
3, 20974, Note_on_c, 9, 36, 0
3, 21011, Note_on_c, 9, 59, 92
3, 21076, Note_on_c, 9, 59, 0
3, 21100, Note_on_c, 9, 59, 64
3, 21111, Note_on_c, 9, 59, 0
3, 21135, Note_on_c, 9, 59, 72
3, 21189, Note_on_c, 9, 59, 0
3, 21255, Note_on_c, 9, 59, 92
3, 21313, Note_on_c, 9, 59, 0
3, 21340, Note_on_c, 9, 59, 55
3, 21355, Note_on_c, 9, 59, 0
3, 21367, Note_on_c, 9, 40, 50
3, 21378, Note_on_c, 9, 40, 0
3, 21382, Note_on_c, 9, 59, 77
3, 21400, Note_on_c, 9, 40, 50
3, 21411, Note_on_c, 9, 40, 0
3, 21434, Note_on_c, 9, 59, 0
3, 21446, Note_on_c, 9, 36, 34
3, 21460, Note_on_c, 9, 36, 0
3, 21493, Note_on_c, 9, 40, 29
3, 21495, Note_on_c, 9, 59, 95
3, 21512, Note_on_c, 9, 40, 0
3, 21552, Note_on_c, 9, 59, 0
3, 21572, Note_on_c, 9, 36, 49
3, 21579, Note_on_c, 9, 59, 57
3, 21581, Note_on_c, 9, 36, 0
3, 21593, Note_on_c, 9, 59, 0
3, 21618, Note_on_c, 9, 59, 76
3, 21684, Note_on_c, 9, 59, 0
3, 21692, Note_on_c, 9, 36, 46
3, 21705, Note_on_c, 9, 36, 0
3, 21732, Note_on_c, 9, 59, 89
3, 21739, Note_on_c, 9, 40, 35
3, 21748, Note_on_c, 9, 40, 0
3, 21767, Note_on_c, 9, 40, 45
3, 21781, Note_on_c, 9, 40, 0
3, 21802, Note_on_c, 9, 59, 0
3, 21857, Note_on_c, 9, 59, 87
3, 21900, Note_on_c, 9, 40, 48
3, 21908, Note_on_c, 9, 40, 0
3, 21922, Note_on_c, 9, 59, 0
3, 21942, Note_on_c, 9, 36, 24
3, 21949, Note_on_c, 9, 59, 54
3, 21955, Note_on_c, 9, 36, 0
3, 21961, Note_on_c, 9, 59, 0
3, 21976, Note_on_c, 9, 40, 48
3, 21980, Note_on_c, 9, 59, 79
3, 21984, Note_on_c, 9, 40, 0
3, 22028, Note_on_c, 9, 59, 0
3, 22048, Note_on_c, 9, 40, 55
3, 22055, Note_on_c, 9, 40, 0
3, 22056, Note_on_c, 9, 59, 85
3, 22123, Note_on_c, 9, 59, 0
3, 22130, Note_on_c, 9, 40, 55
3, 22139, Note_on_c, 9, 40, 0
3, 22171, Note_on_c, 9, 36, 46
3, 22176, Note_on_c, 9, 59, 49
3, 22183, Note_on_c, 9, 36, 0
3, 22188, Note_on_c, 9, 59, 0
3, 22212, Note_on_c, 9, 59, 76
3, 22217, Note_on_c, 9, 40, 36
3, 22227, Note_on_c, 9, 40, 0
3, 22269, Note_on_c, 9, 59, 0
3, 22292, Note_on_c, 9, 59, 85
3, 22357, Note_on_c, 9, 59, 0
3, 22409, Note_on_c, 9, 59, 62
3, 22414, Note_on_c, 9, 40, 43
3, 22421, Note_on_c, 9, 59, 0
3, 22424, Note_on_c, 9, 40, 0
3, 22449, Note_on_c, 9, 59, 77
3, 22461, Note_on_c, 9, 40, 31
3, 22470, Note_on_c, 9, 40, 0
3, 22503, Note_on_c, 9, 59, 0
3, 22529, Note_on_c, 9, 59, 88
3, 22530, Note_on_c, 9, 40, 56
3, 22539, Note_on_c, 9, 40, 0
3, 22590, Note_on_c, 9, 59, 0
3, 22637, Note_on_c, 9, 59, 92
3, 22643, Note_on_c, 9, 40, 58
3, 22654, Note_on_c, 9, 40, 0
3, 22692, Note_on_c, 9, 40, 36
3, 22695, Note_on_c, 9, 59, 0
3, 22702, Note_on_c, 9, 40, 0
3, 22757, Note_on_c, 9, 59, 80
3, 22760, Note_on_c, 9, 40, 53
3, 22768, Note_on_c, 9, 40, 0
3, 22768, Note_on_c, 9, 53, 91
3, 22776, Note_on_c, 9, 59, 0
3, 22835, Note_on_c, 9, 40, 64
3, 22853, Note_on_c, 9, 53, 0
3, 22856, Note_on_c, 9, 40, 0
3, 22881, Note_on_c, 9, 53, 82
3, 22914, Note_on_c, 9, 53, 0
3, 22926, Note_on_c, 9, 59, 94
3, 22927, Note_on_c, 9, 37, 60
3, 22946, Note_on_c, 9, 37, 0
3, 22985, Note_on_c, 9, 59, 0
3, 23000, Note_on_c, 9, 57, 84
3, 23000, Note_on_c, 9, 36, 81
3, 23008, Note_on_c, 9, 59, 85
3, 23015, Note_on_c, 9, 57, 0
3, 23024, Note_on_c, 9, 36, 0
3, 23091, Note_on_c, 9, 59, 0
3, 23162, Note_on_c, 9, 59, 99
3, 23297, Note_on_c, 9, 59, 0
3, 23352, Note_on_c, 9, 59, 61
3, 23355, Note_on_c, 9, 40, 34
3, 23364, Note_on_c, 9, 40, 0
3, 23365, Note_on_c, 9, 59, 0
3, 23395, Note_on_c, 9, 59, 72
3, 23444, Note_on_c, 9, 59, 0
3, 23471, Note_on_c, 9, 59, 89
3, 23474, Note_on_c, 9, 37, 74
3, 23498, Note_on_c, 9, 37, 0
3, 23538, Note_on_c, 9, 59, 0
3, 23710, Note_on_c, 9, 59, 40
3, 23724, Note_on_c, 9, 59, 0
3, 23750, Note_on_c, 9, 59, 67
3, 23789, Note_on_c, 9, 40, 34
3, 23799, Note_on_c, 9, 40, 0
3, 23801, Note_on_c, 9, 59, 0
3, 23828, Note_on_c, 9, 59, 82
3, 23864, Note_on_c, 9, 59, 0
3, 23872, Note_on_c, 9, 40, 48
3, 23893, Note_on_c, 9, 40, 0
3, 23949, Note_on_c, 9, 40, 53
3, 23950, Note_on_c, 9, 59, 94
3, 23957, Note_on_c, 9, 40, 0
3, 23975, Note_on_c, 9, 59, 0
3, 24125, Note_on_c, 9, 59, 54
3, 24137, Note_on_c, 9, 59, 0
3, 24194, Note_on_c, 9, 59, 99
3, 24199, Note_on_c, 9, 36, 24
3, 24207, Note_on_c, 9, 36, 0
3, 24224, Note_on_c, 9, 59, 0
3, 24263, Note_on_c, 9, 44, 48
3, 24281, Note_on_c, 9, 44, 0
3, 24321, Note_on_c, 9, 59, 51
3, 24333, Note_on_c, 9, 59, 0
3, 24350, Note_on_c, 9, 44, 57
3, 24365, Note_on_c, 9, 44, 0
3, 24371, Note_on_c, 9, 59, 85
3, 24425, Note_on_c, 9, 59, 0
3, 24431, Note_on_c, 9, 44, 63
3, 24447, Note_on_c, 9, 44, 0
3, 24481, Note_on_c, 9, 59, 60
3, 24493, Note_on_c, 9, 59, 0
3, 24514, Note_on_c, 9, 44, 55
3, 24531, Note_on_c, 9, 44, 0
3, 24556, Note_on_c, 9, 36, 50
3, 24566, Note_on_c, 9, 36, 0
3, 24567, Note_on_c, 9, 59, 95
3, 24603, Note_on_c, 9, 40, 61
3, 24605, Note_on_c, 9, 59, 0
3, 24626, Note_on_c, 9, 40, 0
3, 24646, Note_on_c, 9, 40, 60
3, 24657, Note_on_c, 9, 40, 0
3, 24689, Note_on_c, 9, 59, 68
3, 24704, Note_on_c, 9, 59, 0
3, 24743, Note_on_c, 9, 59, 79
3, 24768, Note_on_c, 9, 59, 0
3, 24804, Note_on_c, 9, 36, 50
3, 24813, Note_on_c, 9, 36, 0
3, 24815, Note_on_c, 9, 59, 69
3, 24828, Note_on_c, 9, 59, 0
3, 24847, Note_on_c, 9, 44, 55
3, 24854, Note_on_c, 9, 59, 74
3, 24864, Note_on_c, 9, 44, 0
3, 24865, Note_on_c, 9, 59, 0
3, 24893, Note_on_c, 9, 37, 53
3, 24916, Note_on_c, 9, 37, 0
3, 24931, Note_on_c, 9, 36, 71
3, 24932, Note_on_c, 9, 59, 95
3, 24952, Note_on_c, 9, 59, 0
3, 24973, Note_on_c, 9, 40, 63
3, 24977, Note_on_c, 9, 59, 75
3, 24983, Note_on_c, 9, 36, 0
3, 24993, Note_on_c, 9, 40, 0
3, 25026, Note_on_c, 9, 59, 0
3, 25059, Note_on_c, 9, 59, 51
3, 25071, Note_on_c, 9, 59, 0
3, 25121, Note_on_c, 9, 59, 24
3, 25132, Note_on_c, 9, 59, 0
3, 25178, Note_on_c, 9, 59, 88
3, 25202, Note_on_c, 9, 59, 0
3, 25224, Note_on_c, 9, 59, 74
3, 25250, Note_on_c, 9, 59, 0
3, 25294, Note_on_c, 9, 59, 75
3, 25306, Note_on_c, 9, 59, 0
3, 25336, Note_on_c, 9, 59, 73
3, 25354, Note_on_c, 9, 59, 0
3, 25422, Note_on_c, 9, 59, 96
3, 25475, Note_on_c, 9, 59, 0
3, 25520, Note_on_c, 9, 36, 36
3, 25530, Note_on_c, 9, 36, 0
3, 25540, Note_on_c, 9, 59, 64
3, 25552, Note_on_c, 9, 59, 0
3, 25560, Note_on_c, 9, 40, 42
3, 25569, Note_on_c, 9, 40, 0
3, 25589, Note_on_c, 9, 40, 31
3, 25609, Note_on_c, 9, 40, 0
3, 25627, Note_on_c, 9, 40, 46
3, 25637, Note_on_c, 9, 40, 0
3, 25653, Note_on_c, 9, 59, 91
3, 25660, Note_on_c, 9, 40, 51
3, 25675, Note_on_c, 9, 40, 0
3, 25689, Note_on_c, 9, 40, 56
3, 25698, Note_on_c, 9, 40, 0
3, 25750, Note_on_c, 9, 59, 0
3, 25760, Note_on_c, 9, 36, 43
3, 25771, Note_on_c, 9, 53, 71
3, 25772, Note_on_c, 9, 36, 0
3, 25796, Note_on_c, 9, 53, 0
3, 25812, Note_on_c, 9, 36, 55
3, 25819, Note_on_c, 9, 59, 59
3, 25842, Note_on_c, 9, 59, 0
3, 25847, Note_on_c, 9, 36, 0
3, 25886, Note_on_c, 9, 36, 80
3, 25893, Note_on_c, 9, 53, 75
3, 25920, Note_on_c, 9, 53, 0
3, 25921, Note_on_c, 9, 36, 0
3, 25947, Note_on_c, 9, 59, 64
3, 25961, Note_on_c, 9, 59, 0
3, 26016, Note_on_c, 9, 59, 68
3, 26028, Note_on_c, 9, 59, 0
3, 26064, Note_on_c, 9, 59, 64
3, 26087, Note_on_c, 9, 59, 0
3, 26126, Note_on_c, 9, 53, 69
3, 26149, Note_on_c, 9, 53, 0
3, 26247, Note_on_c, 9, 53, 74
3, 26250, Note_on_c, 9, 36, 34
3, 26258, Note_on_c, 9, 53, 0
3, 26260, Note_on_c, 9, 36, 0
3, 26289, Note_on_c, 9, 40, 61
3, 26299, Note_on_c, 9, 59, 77
3, 26322, Note_on_c, 9, 59, 0
3, 26344, Note_on_c, 9, 40, 0
3, 26361, Note_on_c, 9, 40, 62
3, 26369, Note_on_c, 9, 59, 83
3, 26376, Note_on_c, 9, 40, 0
3, 26396, Note_on_c, 9, 59, 0
3, 26486, Note_on_c, 9, 59, 84
3, 26492, Note_on_c, 9, 36, 30
3, 26501, Note_on_c, 9, 36, 0
3, 26511, Note_on_c, 9, 59, 0
3, 26533, Note_on_c, 9, 59, 49
3, 26569, Note_on_c, 9, 59, 0
3, 26611, Note_on_c, 9, 40, 44
3, 26620, Note_on_c, 9, 40, 0
3, 26657, Note_on_c, 9, 59, 80
3, 26695, Note_on_c, 9, 59, 0
3, 26732, Note_on_c, 9, 53, 77
3, 26733, Note_on_c, 9, 37, 60
3, 26749, Note_on_c, 9, 37, 0
3, 26760, Note_on_c, 9, 53, 0
3, 26843, Note_on_c, 9, 37, 57
3, 26850, Note_on_c, 9, 51, 95
3, 26860, Note_on_c, 9, 37, 0
3, 26883, Note_on_c, 9, 52, 74
3, 26887, Note_on_c, 9, 36, 37
3, 26891, Note_on_c, 9, 52, 0
3, 26896, Note_on_c, 9, 36, 0
3, 26975, Note_on_c, 9, 51, 0
3, 27019, Note_on_c, 9, 51, 73
3, 27072, Note_on_c, 9, 51, 0
3, 27088, Note_on_c, 9, 36, 54
3, 27102, Note_on_c, 9, 51, 57
3, 27112, Note_on_c, 9, 36, 0
3, 27125, Note_on_c, 9, 51, 0
3, 27143, Note_on_c, 9, 51, 67
3, 27195, Note_on_c, 9, 51, 0
3, 27252, Note_on_c, 9, 51, 88
3, 27333, Note_on_c, 9, 51, 0
3, 27369, Note_on_c, 9, 51, 64
3, 27435, Note_on_c, 9, 51, 0
3, 27491, Note_on_c, 9, 51, 83
3, 27551, Note_on_c, 9, 39, 25
3, 27558, Note_on_c, 9, 39, 0
3, 27564, Note_on_c, 9, 51, 0
3, 27573, Note_on_c, 9, 36, 30
3, 27585, Note_on_c, 9, 36, 0
3, 27604, Note_on_c, 9, 40, 56
3, 27611, Note_on_c, 9, 51, 79
3, 27615, Note_on_c, 9, 40, 0
3, 27664, Note_on_c, 9, 40, 63
3, 27670, Note_on_c, 9, 51, 0
3, 27672, Note_on_c, 9, 40, 0
3, 27727, Note_on_c, 9, 40, 62
3, 27731, Note_on_c, 9, 51, 83
3, 27734, Note_on_c, 9, 40, 0
3, 27752, Note_on_c, 9, 40, 52
3, 27763, Note_on_c, 9, 40, 0
3, 27787, Note_on_c, 9, 36, 65
3, 27789, Note_on_c, 9, 51, 0
3, 27811, Note_on_c, 9, 36, 0
3, 27816, Note_on_c, 9, 51, 46
3, 27832, Note_on_c, 9, 51, 0
3, 27853, Note_on_c, 9, 51, 76
3, 27919, Note_on_c, 9, 51, 0
3, 27968, Note_on_c, 9, 51, 85
3, 28028, Note_on_c, 9, 51, 0
3, 28049, Note_on_c, 9, 51, 60
3, 28069, Note_on_c, 9, 51, 0
3, 28090, Note_on_c, 9, 51, 75
3, 28154, Note_on_c, 9, 51, 0
3, 28205, Note_on_c, 9, 51, 86
3, 28263, Note_on_c, 9, 51, 0
3, 28280, Note_on_c, 9, 36, 40
3, 28285, Note_on_c, 9, 51, 61
3, 28291, Note_on_c, 9, 36, 0
3, 28309, Note_on_c, 9, 51, 0
3, 28321, Note_on_c, 9, 36, 34
3, 28327, Note_on_c, 9, 51, 78
3, 28334, Note_on_c, 9, 36, 0
3, 28388, Note_on_c, 9, 51, 0
3, 28447, Note_on_c, 9, 51, 88
3, 28514, Note_on_c, 9, 51, 0
3, 28573, Note_on_c, 9, 51, 87
3, 28632, Note_on_c, 9, 51, 0
3, 28659, Note_on_c, 9, 51, 50
3, 28677, Note_on_c, 9, 51, 0
3, 28698, Note_on_c, 9, 51, 77
3, 28736, Note_on_c, 9, 51, 0
3, 28760, Note_on_c, 9, 36, 72
3, 28772, Note_on_c, 9, 51, 82
3, 28794, Note_on_c, 9, 36, 0
3, 28807, Note_on_c, 9, 36, 33
3, 28832, Note_on_c, 9, 36, 0
3, 28861, Note_on_c, 9, 51, 0
3, 28888, Note_on_c, 9, 51, 51
3, 28907, Note_on_c, 9, 51, 0
3, 28931, Note_on_c, 9, 51, 73
3, 28998, Note_on_c, 9, 51, 0
3, 29006, Note_on_c, 9, 36, 37
3, 29016, Note_on_c, 9, 51, 92
3, 29017, Note_on_c, 9, 36, 0
3, 29047, Note_on_c, 9, 40, 47
3, 29094, Note_on_c, 9, 51, 0
3, 29099, Note_on_c, 9, 40, 0
3, 29124, Note_on_c, 9, 38, 32
3, 29125, Note_on_c, 9, 51, 44
3, 29133, Note_on_c, 9, 38, 0
3, 29139, Note_on_c, 9, 51, 0
3, 29168, Note_on_c, 9, 51, 69
3, 29223, Note_on_c, 9, 51, 0
3, 29248, Note_on_c, 9, 36, 35
3, 29254, Note_on_c, 9, 51, 56
3, 29259, Note_on_c, 9, 36, 0
3, 29267, Note_on_c, 9, 51, 0
3, 29288, Note_on_c, 9, 51, 78
3, 29359, Note_on_c, 9, 40, 50
3, 29362, Note_on_c, 9, 51, 0
3, 29380, Note_on_c, 9, 40, 0
3, 29411, Note_on_c, 9, 51, 83
3, 29467, Note_on_c, 9, 51, 0
3, 29487, Note_on_c, 9, 36, 28
3, 29499, Note_on_c, 9, 36, 0
3, 29502, Note_on_c, 9, 51, 46
3, 29514, Note_on_c, 9, 51, 0
3, 29527, Note_on_c, 9, 40, 42
3, 29534, Note_on_c, 9, 51, 72
3, 29538, Note_on_c, 9, 40, 0
3, 29564, Note_on_c, 9, 40, 25
3, 29574, Note_on_c, 9, 40, 0
3, 29586, Note_on_c, 9, 51, 0
3, 29649, Note_on_c, 9, 51, 85
3, 29697, Note_on_c, 9, 51, 0
3, 29726, Note_on_c, 9, 36, 27
3, 29736, Note_on_c, 9, 51, 36
3, 29737, Note_on_c, 9, 36, 0
3, 29748, Note_on_c, 9, 51, 0
3, 29767, Note_on_c, 9, 51, 68
3, 29797, Note_on_c, 9, 40, 27
3, 29808, Note_on_c, 9, 40, 0
3, 29824, Note_on_c, 9, 51, 0
3, 29839, Note_on_c, 9, 36, 27
3, 29847, Note_on_c, 9, 36, 0
3, 29888, Note_on_c, 9, 51, 83
3, 29960, Note_on_c, 9, 51, 0
3, 29971, Note_on_c, 9, 37, 36
3, 29982, Note_on_c, 9, 37, 0
3, 30006, Note_on_c, 9, 51, 81
3, 30067, Note_on_c, 9, 51, 0
3, 30130, Note_on_c, 9, 51, 84
3, 30194, Note_on_c, 9, 51, 0
3, 30202, Note_on_c, 9, 40, 49
3, 30210, Note_on_c, 9, 40, 0
3, 30251, Note_on_c, 9, 51, 85
3, 30313, Note_on_c, 9, 51, 0
3, 30323, Note_on_c, 9, 36, 53
3, 30332, Note_on_c, 9, 36, 0
3, 30367, Note_on_c, 9, 51, 76
3, 30413, Note_on_c, 9, 51, 0
3, 30443, Note_on_c, 9, 36, 53
3, 30456, Note_on_c, 9, 36, 0
3, 30486, Note_on_c, 9, 51, 76
3, 30524, Note_on_c, 9, 51, 0
3, 30567, Note_on_c, 9, 37, 65
3, 30568, Note_on_c, 9, 53, 67
3, 30583, Note_on_c, 9, 37, 0
3, 30595, Note_on_c, 9, 53, 0
3, 30681, Note_on_c, 9, 36, 68
3, 30682, Note_on_c, 9, 51, 98
3, 30699, Note_on_c, 9, 36, 0
3, 30720, Note_on_c, 9, 51, 0
3, 30735, Note_on_c, 9, 40, 31
3, 30751, Note_on_c, 9, 40, 0
3, 30801, Note_on_c, 9, 51, 85
3, 30829, Note_on_c, 9, 51, 0
3, 30917, Note_on_c, 9, 51, 83
3, 30930, Note_on_c, 9, 36, 45
3, 30939, Note_on_c, 9, 36, 0
3, 30956, Note_on_c, 9, 51, 0
3, 30972, Note_on_c, 9, 40, 32
3, 30986, Note_on_c, 9, 40, 0
3, 31046, Note_on_c, 9, 51, 84
3, 31048, Note_on_c, 9, 40, 49
3, 31060, Note_on_c, 9, 40, 0
3, 31083, Note_on_c, 9, 51, 0
3, 31093, Note_on_c, 9, 40, 32
3, 31133, Note_on_c, 9, 40, 0
3, 31167, Note_on_c, 9, 51, 58
3, 31169, Note_on_c, 9, 40, 49
3, 31179, Note_on_c, 9, 40, 0
3, 31190, Note_on_c, 9, 51, 0
3, 31215, Note_on_c, 9, 51, 74
3, 31269, Note_on_c, 9, 51, 0
3, 31416, Note_on_c, 9, 51, 67
3, 31436, Note_on_c, 9, 51, 0
3, 31460, Note_on_c, 9, 51, 67
3, 31503, Note_on_c, 9, 51, 0
3, 31541, Note_on_c, 9, 51, 78
3, 31570, Note_on_c, 9, 51, 0
3, 31650, Note_on_c, 9, 40, 53
3, 31658, Note_on_c, 9, 51, 92
3, 31660, Note_on_c, 9, 40, 0
3, 31688, Note_on_c, 9, 40, 43
3, 31691, Note_on_c, 9, 51, 0
3, 31708, Note_on_c, 9, 40, 0
3, 31729, Note_on_c, 9, 40, 30
3, 31738, Note_on_c, 9, 40, 0
3, 31755, Note_on_c, 9, 40, 51
3, 31766, Note_on_c, 9, 51, 65
3, 31779, Note_on_c, 9, 40, 0
3, 31787, Note_on_c, 9, 51, 0
3, 31809, Note_on_c, 9, 51, 77
3, 31850, Note_on_c, 9, 51, 0
3, 31878, Note_on_c, 9, 51, 76
3, 31917, Note_on_c, 9, 51, 0
3, 31998, Note_on_c, 9, 40, 51
3, 32006, Note_on_c, 9, 40, 0
3, 32036, Note_on_c, 9, 40, 64
3, 32053, Note_on_c, 9, 40, 0
3, 32081, Note_on_c, 9, 36, 62
3, 32096, Note_on_c, 9, 36, 0
3, 32125, Note_on_c, 9, 51, 61
3, 32144, Note_on_c, 9, 51, 0
3, 32155, Note_on_c, 9, 40, 58
3, 32165, Note_on_c, 9, 51, 76
3, 32179, Note_on_c, 9, 40, 0
3, 32199, Note_on_c, 9, 40, 46
3, 32209, Note_on_c, 9, 40, 0
3, 32215, Note_on_c, 9, 51, 0
3, 32233, Note_on_c, 9, 36, 57
3, 32243, Note_on_c, 9, 36, 0
3, 32247, Note_on_c, 9, 51, 72
3, 32270, Note_on_c, 9, 51, 0
3, 32320, Note_on_c, 9, 40, 43
3, 32329, Note_on_c, 9, 40, 0
3, 32347, Note_on_c, 9, 40, 50
3, 32355, Note_on_c, 9, 40, 0
3, 32363, Note_on_c, 9, 51, 90
3, 32382, Note_on_c, 9, 36, 47
3, 32396, Note_on_c, 9, 51, 0
3, 32409, Note_on_c, 9, 36, 0
3, 32486, Note_on_c, 9, 51, 59
3, 32502, Note_on_c, 9, 51, 0
3, 32523, Note_on_c, 9, 51, 81
3, 32574, Note_on_c, 9, 51, 0
3, 32574, Note_on_c, 9, 40, 66
3, 32586, Note_on_c, 9, 40, 0
3, 32606, Note_on_c, 9, 40, 55
3, 32606, Note_on_c, 9, 51, 80
3, 32618, Note_on_c, 9, 40, 0
3, 32644, Note_on_c, 9, 51, 0
3, 32699, Note_on_c, 9, 36, 42
3, 32710, Note_on_c, 9, 36, 0
3, 32715, Note_on_c, 9, 51, 84
3, 32745, Note_on_c, 9, 51, 0
3, 32758, Note_on_c, 9, 36, 47
3, 32795, Note_on_c, 9, 36, 0
3, 32833, Note_on_c, 9, 36, 63
3, 32845, Note_on_c, 9, 36, 0
3, 32845, Note_on_c, 9, 51, 60
3, 32861, Note_on_c, 9, 51, 0
3, 32885, Note_on_c, 9, 51, 74
3, 32939, Note_on_c, 9, 51, 0
3, 33079, Note_on_c, 9, 51, 62
3, 33095, Note_on_c, 9, 51, 0
3, 33118, Note_on_c, 9, 51, 77
3, 33167, Note_on_c, 9, 51, 0
3, 33198, Note_on_c, 9, 40, 60
3, 33202, Note_on_c, 9, 51, 76
3, 33206, Note_on_c, 9, 40, 0
3, 33229, Note_on_c, 9, 51, 0
3, 33323, Note_on_c, 9, 51, 87
3, 33351, Note_on_c, 9, 51, 0
3, 33368, Note_on_c, 9, 40, 55
3, 33380, Note_on_c, 9, 40, 0
3, 33441, Note_on_c, 9, 36, 30
3, 33445, Note_on_c, 9, 51, 56
3, 33452, Note_on_c, 9, 36, 0
3, 33457, Note_on_c, 9, 51, 0
3, 33487, Note_on_c, 9, 51, 75
3, 33525, Note_on_c, 9, 51, 0
3, 33565, Note_on_c, 9, 51, 87
3, 33603, Note_on_c, 9, 51, 0
3, 33665, Note_on_c, 9, 40, 53
3, 33674, Note_on_c, 9, 40, 0
3, 33694, Note_on_c, 9, 51, 54
3, 33705, Note_on_c, 9, 51, 0
3, 33799, Note_on_c, 9, 36, 33
3, 33810, Note_on_c, 9, 36, 0
3, 33818, Note_on_c, 9, 51, 86
3, 33837, Note_on_c, 9, 40, 59
3, 33844, Note_on_c, 9, 51, 0
3, 33855, Note_on_c, 9, 40, 0
3, 33870, Note_on_c, 9, 38, 37
3, 33879, Note_on_c, 9, 38, 0
3, 33905, Note_on_c, 9, 36, 41
3, 33917, Note_on_c, 9, 36, 0
3, 33936, Note_on_c, 9, 51, 84
3, 33964, Note_on_c, 9, 51, 0
3, 34054, Note_on_c, 9, 51, 34
3, 34066, Note_on_c, 9, 51, 0
3, 34160, Note_on_c, 9, 40, 61
3, 34170, Note_on_c, 9, 40, 0
3, 34172, Note_on_c, 9, 51, 84
3, 34196, Note_on_c, 9, 51, 0
3, 34209, Note_on_c, 9, 51, 68
3, 34246, Note_on_c, 9, 51, 0
3, 34285, Note_on_c, 9, 40, 68
3, 34302, Note_on_c, 9, 40, 0
3, 34335, Note_on_c, 9, 51, 86
3, 34369, Note_on_c, 9, 51, 0
3, 34404, Note_on_c, 9, 51, 69
3, 34407, Note_on_c, 9, 40, 88
3, 34425, Note_on_c, 9, 51, 0
3, 34431, Note_on_c, 9, 40, 0
3, 34522, Note_on_c, 9, 53, 91
3, 34533, Note_on_c, 9, 37, 80
3, 34534, Note_on_c, 9, 53, 0
3, 34554, Note_on_c, 9, 37, 0
3, 34569, Note_on_c, 9, 36, 75
3, 34570, Note_on_c, 9, 57, 82
3, 34651, Note_on_c, 9, 59, 113
3, 34767, Note_on_c, 9, 59, 0
3, 34813, Note_on_c, 9, 59, 62
3, 34855, Note_on_c, 9, 59, 0
3, 34859, Note_on_c, 9, 36, 0
3, 34872, Note_on_c, 9, 57, 0
3, 34880, Note_on_c, 9, 40, 80
3, 34902, Note_on_c, 9, 40, 0
3, 34923, Note_on_c, 9, 37, 60
3, 34929, Note_on_c, 9, 59, 75
3, 34932, Note_on_c, 9, 57, 53
3, 34965, Note_on_c, 9, 57, 0
3, 34978, Note_on_c, 9, 37, 0
3, 34990, Note_on_c, 9, 59, 0
3, 35057, Note_on_c, 9, 59, 72
3, 35098, Note_on_c, 9, 59, 0
3, 35174, Note_on_c, 9, 59, 73
3, 35220, Note_on_c, 9, 59, 0
3, 35262, Note_on_c, 9, 59, 36
3, 35275, Note_on_c, 9, 59, 0
3, 35297, Note_on_c, 9, 59, 78
3, 35357, Note_on_c, 9, 59, 0
3, 35410, Note_on_c, 9, 59, 81
3, 35466, Note_on_c, 9, 59, 0
3, 35492, Note_on_c, 9, 59, 57
3, 35507, Note_on_c, 9, 59, 0
3, 35531, Note_on_c, 9, 59, 70
3, 35581, Note_on_c, 9, 59, 0
3, 35653, Note_on_c, 9, 59, 83
3, 35709, Note_on_c, 9, 59, 0
3, 35740, Note_on_c, 9, 59, 55
3, 35753, Note_on_c, 9, 59, 0
3, 35777, Note_on_c, 9, 59, 74
3, 35810, Note_on_c, 9, 59, 0
3, 35889, Note_on_c, 9, 59, 87
3, 35929, Note_on_c, 9, 59, 0
3, 35981, Note_on_c, 9, 59, 64
3, 35994, Note_on_c, 9, 59, 0
3, 36018, Note_on_c, 9, 59, 78
3, 36045, Note_on_c, 9, 59, 0
3, 36125, Note_on_c, 9, 59, 91
3, 36182, Note_on_c, 9, 59, 0
3, 36248, Note_on_c, 9, 59, 85
3, 36311, Note_on_c, 9, 59, 0
3, 36366, Note_on_c, 9, 37, 87
3, 36370, Note_on_c, 9, 59, 84
3, 36407, Note_on_c, 9, 37, 0
3, 36423, Note_on_c, 9, 59, 0
3, 36449, Note_on_c, 9, 36, 38
3, 36461, Note_on_c, 9, 36, 0
3, 36492, Note_on_c, 9, 36, 33
3, 36494, Note_on_c, 9, 59, 88
3, 36547, Note_on_c, 9, 59, 0
3, 36548, Note_on_c, 9, 36, 0
3, 36610, Note_on_c, 9, 59, 90
3, 36678, Note_on_c, 9, 59, 0
3, 36733, Note_on_c, 9, 59, 84
3, 36785, Note_on_c, 9, 59, 0
3, 36812, Note_on_c, 9, 36, 33
3, 36821, Note_on_c, 9, 36, 0
3, 36846, Note_on_c, 9, 37, 92
3, 36855, Note_on_c, 9, 59, 87
3, 36899, Note_on_c, 9, 37, 0
3, 36920, Note_on_c, 9, 59, 0
3, 36931, Note_on_c, 9, 36, 36
3, 36943, Note_on_c, 9, 36, 0
3, 36969, Note_on_c, 9, 36, 33
3, 36971, Note_on_c, 9, 59, 83
3, 36999, Note_on_c, 9, 36, 0
3, 37020, Note_on_c, 9, 59, 0
3, 37093, Note_on_c, 9, 59, 87
3, 37147, Note_on_c, 9, 59, 0
3, 37176, Note_on_c, 9, 59, 57
3, 37191, Note_on_c, 9, 59, 0
3, 37214, Note_on_c, 9, 59, 79
3, 37271, Note_on_c, 9, 59, 0
3, 37321, Note_on_c, 9, 59, 88
3, 37324, Note_on_c, 9, 37, 91
3, 37374, Note_on_c, 9, 37, 0
3, 37385, Note_on_c, 9, 59, 0
3, 37411, Note_on_c, 9, 59, 64
3, 37413, Note_on_c, 9, 36, 30
3, 37422, Note_on_c, 9, 59, 0
3, 37424, Note_on_c, 9, 36, 0
3, 37445, Note_on_c, 9, 59, 74
3, 37509, Note_on_c, 9, 59, 0
3, 37566, Note_on_c, 9, 59, 90
3, 37626, Note_on_c, 9, 59, 0
3, 37651, Note_on_c, 9, 59, 64
3, 37667, Note_on_c, 9, 59, 0
3, 37693, Note_on_c, 9, 59, 83
3, 37749, Note_on_c, 9, 59, 0
3, 37811, Note_on_c, 9, 37, 91
3, 37812, Note_on_c, 9, 59, 90
3, 37869, Note_on_c, 9, 37, 0
3, 37874, Note_on_c, 9, 59, 0
3, 37901, Note_on_c, 9, 59, 60
3, 37913, Note_on_c, 9, 59, 0
3, 37935, Note_on_c, 9, 59, 74
3, 38000, Note_on_c, 9, 59, 0
3, 38054, Note_on_c, 9, 59, 89
3, 38110, Note_on_c, 9, 59, 0
3, 38136, Note_on_c, 9, 36, 54
3, 38154, Note_on_c, 9, 36, 0
3, 38172, Note_on_c, 9, 59, 80
3, 38184, Note_on_c, 9, 36, 36
3, 38201, Note_on_c, 9, 36, 0
3, 38213, Note_on_c, 9, 59, 0
3, 38253, Note_on_c, 9, 59, 58
3, 38267, Note_on_c, 9, 59, 0
3, 38294, Note_on_c, 9, 59, 71
3, 38309, Note_on_c, 9, 59, 0
3, 38370, Note_on_c, 9, 59, 92
3, 38374, Note_on_c, 9, 37, 53
3, 38392, Note_on_c, 9, 37, 0
3, 38415, Note_on_c, 9, 36, 32
3, 38464, Note_on_c, 9, 59, 0
3, 38468, Note_on_c, 9, 36, 0
3, 38487, Note_on_c, 9, 36, 53
3, 38489, Note_on_c, 9, 59, 65
3, 38501, Note_on_c, 9, 36, 0
3, 38504, Note_on_c, 9, 59, 0
3, 38537, Note_on_c, 9, 59, 66
3, 38566, Note_on_c, 9, 59, 0
3, 38617, Note_on_c, 9, 59, 90
3, 38673, Note_on_c, 9, 59, 0
3, 38732, Note_on_c, 9, 59, 64
3, 38744, Note_on_c, 9, 59, 0
3, 38777, Note_on_c, 9, 59, 80
3, 38839, Note_on_c, 9, 59, 0
3, 38846, Note_on_c, 9, 40, 54
3, 38855, Note_on_c, 9, 40, 0
3, 38892, Note_on_c, 9, 40, 34
3, 38897, Note_on_c, 9, 59, 90
3, 38920, Note_on_c, 9, 40, 0
3, 38951, Note_on_c, 9, 59, 0
3, 38968, Note_on_c, 9, 36, 41
3, 38979, Note_on_c, 9, 36, 0
3, 39008, Note_on_c, 9, 36, 31
3, 39011, Note_on_c, 9, 59, 83
3, 39050, Note_on_c, 9, 36, 0
3, 39063, Note_on_c, 9, 59, 0
3, 39084, Note_on_c, 9, 36, 53
3, 39095, Note_on_c, 9, 59, 58
3, 39099, Note_on_c, 9, 36, 0
3, 39112, Note_on_c, 9, 59, 0
3, 39135, Note_on_c, 9, 59, 80
3, 39200, Note_on_c, 9, 59, 0
3, 39254, Note_on_c, 9, 59, 89
3, 39307, Note_on_c, 9, 59, 0
3, 39340, Note_on_c, 9, 59, 64
3, 39352, Note_on_c, 9, 59, 0
3, 39376, Note_on_c, 9, 59, 74
3, 39440, Note_on_c, 9, 59, 0
3, 39494, Note_on_c, 9, 59, 88
3, 39544, Note_on_c, 9, 59, 0
3, 39577, Note_on_c, 9, 40, 48
3, 39584, Note_on_c, 9, 59, 71
3, 39587, Note_on_c, 9, 40, 0
3, 39598, Note_on_c, 9, 59, 0
3, 39622, Note_on_c, 9, 40, 44
3, 39622, Note_on_c, 9, 59, 80
3, 39632, Note_on_c, 9, 40, 0
3, 39659, Note_on_c, 9, 40, 67
3, 39667, Note_on_c, 9, 40, 0
3, 39678, Note_on_c, 9, 59, 0
3, 39696, Note_on_c, 9, 36, 62
3, 39716, Note_on_c, 9, 36, 0
3, 39735, Note_on_c, 9, 59, 88
3, 39737, Note_on_c, 9, 40, 68
3, 39749, Note_on_c, 9, 40, 0
3, 39774, Note_on_c, 9, 40, 62
3, 39785, Note_on_c, 9, 40, 0
3, 39805, Note_on_c, 9, 59, 0
3, 39814, Note_on_c, 9, 36, 49
3, 39842, Note_on_c, 9, 36, 0
3, 39853, Note_on_c, 9, 59, 83
3, 39912, Note_on_c, 9, 59, 0
3, 39929, Note_on_c, 9, 36, 35
3, 39940, Note_on_c, 9, 36, 0
3, 39968, Note_on_c, 9, 59, 84
3, 39970, Note_on_c, 9, 40, 49
3, 39980, Note_on_c, 9, 40, 0
3, 39998, Note_on_c, 9, 40, 58
3, 40010, Note_on_c, 9, 40, 0
3, 40026, Note_on_c, 9, 59, 0
3, 40045, Note_on_c, 9, 36, 48
3, 40056, Note_on_c, 9, 36, 0
3, 40090, Note_on_c, 9, 40, 51
3, 40093, Note_on_c, 9, 59, 80
3, 40098, Note_on_c, 9, 40, 0
3, 40119, Note_on_c, 9, 40, 40
3, 40133, Note_on_c, 9, 40, 0
3, 40149, Note_on_c, 9, 59, 0
3, 40167, Note_on_c, 9, 36, 27
3, 40175, Note_on_c, 9, 36, 0
3, 40207, Note_on_c, 9, 40, 50
3, 40212, Note_on_c, 9, 59, 82
3, 40215, Note_on_c, 9, 40, 0
3, 40237, Note_on_c, 9, 40, 44
3, 40246, Note_on_c, 9, 40, 0
3, 40266, Note_on_c, 9, 59, 0
3, 40281, Note_on_c, 9, 36, 50
3, 40292, Note_on_c, 9, 59, 65
3, 40303, Note_on_c, 9, 36, 0
3, 40321, Note_on_c, 9, 59, 0
3, 40329, Note_on_c, 9, 59, 39
3, 40396, Note_on_c, 9, 59, 0
3, 40444, Note_on_c, 9, 59, 87
3, 40500, Note_on_c, 9, 59, 0
3, 40525, Note_on_c, 9, 59, 66
3, 40544, Note_on_c, 9, 59, 0
3, 40565, Note_on_c, 9, 59, 80
3, 40633, Note_on_c, 9, 59, 0
3, 40647, Note_on_c, 9, 40, 59
3, 40657, Note_on_c, 9, 40, 0
3, 40687, Note_on_c, 9, 59, 90
3, 40691, Note_on_c, 9, 36, 45
3, 40742, Note_on_c, 9, 36, 0
3, 40745, Note_on_c, 9, 59, 0
3, 40766, Note_on_c, 9, 57, 64
3, 40770, Note_on_c, 9, 36, 53
3, 40774, Note_on_c, 9, 57, 0
3, 40787, Note_on_c, 9, 36, 0
3, 40806, Note_on_c, 9, 59, 80
3, 40859, Note_on_c, 9, 59, 0
3, 40885, Note_on_c, 9, 59, 68
3, 40896, Note_on_c, 9, 59, 0
3, 40920, Note_on_c, 9, 59, 78
3, 40974, Note_on_c, 9, 59, 0
3, 40998, Note_on_c, 9, 59, 84
3, 41098, Note_on_c, 9, 59, 0
3, 41125, Note_on_c, 9, 59, 66
3, 41136, Note_on_c, 9, 59, 0
3, 41165, Note_on_c, 9, 59, 77
3, 41217, Note_on_c, 9, 59, 0
3, 41237, Note_on_c, 9, 40, 58
3, 41245, Note_on_c, 9, 40, 0
3, 41249, Note_on_c, 9, 59, 73
3, 41271, Note_on_c, 9, 59, 0
3, 41279, Note_on_c, 9, 40, 47
3, 41287, Note_on_c, 9, 40, 0
3, 41290, Note_on_c, 9, 59, 82
3, 41356, Note_on_c, 9, 36, 47
3, 41357, Note_on_c, 9, 59, 0
3, 41367, Note_on_c, 9, 36, 0
3, 41409, Note_on_c, 9, 59, 85
3, 41471, Note_on_c, 9, 59, 0
3, 41477, Note_on_c, 9, 40, 56
3, 41485, Note_on_c, 9, 40, 0
3, 41517, Note_on_c, 9, 46, 69
3, 41524, Note_on_c, 9, 36, 58
3, 41531, Note_on_c, 9, 59, 85
3, 41564, Note_on_c, 9, 46, 0
3, 41566, Note_on_c, 9, 36, 0
3, 41592, Note_on_c, 9, 59, 0
3, 41634, Note_on_c, 9, 40, 58
3, 41644, Note_on_c, 9, 40, 0
3, 41646, Note_on_c, 9, 59, 83
3, 41701, Note_on_c, 9, 59, 0
3, 41710, Note_on_c, 9, 46, 77
3, 41716, Note_on_c, 9, 36, 75
3, 41727, Note_on_c, 9, 59, 60
3, 41735, Note_on_c, 9, 46, 0
3, 41739, Note_on_c, 9, 36, 0
3, 41746, Note_on_c, 9, 59, 0
3, 41767, Note_on_c, 9, 59, 73
3, 41825, Note_on_c, 9, 59, 0
3, 41837, Note_on_c, 9, 40, 28
3, 41846, Note_on_c, 9, 40, 0
3, 41878, Note_on_c, 9, 59, 89
3, 41887, Note_on_c, 9, 46, 77
3, 41890, Note_on_c, 9, 36, 69
3, 41937, Note_on_c, 9, 46, 0
3, 41940, Note_on_c, 9, 59, 0
3, 41943, Note_on_c, 9, 36, 0
3, 41965, Note_on_c, 9, 59, 61
3, 41978, Note_on_c, 9, 59, 0
3, 41995, Note_on_c, 9, 40, 33
3, 42004, Note_on_c, 9, 59, 74
3, 42005, Note_on_c, 9, 40, 0
3, 42055, Note_on_c, 9, 59, 0
3, 42082, Note_on_c, 9, 46, 77
3, 42085, Note_on_c, 9, 36, 78
3, 42108, Note_on_c, 9, 46, 0
3, 42115, Note_on_c, 9, 59, 110
3, 42128, Note_on_c, 9, 36, 0
3, 42208, Note_on_c, 9, 40, 62
3, 42210, Note_on_c, 9, 59, 0
3, 42217, Note_on_c, 9, 40, 0
3, 42237, Note_on_c, 9, 59, 60
3, 42252, Note_on_c, 9, 36, 61
3, 42260, Note_on_c, 9, 36, 0
3, 42278, Note_on_c, 9, 59, 0
3, 42357, Note_on_c, 9, 59, 92
3, 42437, Note_on_c, 9, 59, 0
3, 42487, Note_on_c, 9, 59, 51
3, 42544, Note_on_c, 9, 59, 0
3, 42564, Note_on_c, 9, 40, 45
3, 42573, Note_on_c, 9, 40, 0
3, 42602, Note_on_c, 9, 59, 82
3, 42661, Note_on_c, 9, 59, 0
3, 42688, Note_on_c, 9, 59, 57
3, 42700, Note_on_c, 9, 59, 0
3, 42723, Note_on_c, 9, 59, 71
3, 42798, Note_on_c, 9, 59, 0
3, 42843, Note_on_c, 9, 59, 85
3, 42903, Note_on_c, 9, 59, 0
3, 42926, Note_on_c, 9, 40, 64
3, 42935, Note_on_c, 9, 59, 39
3, 42947, Note_on_c, 9, 40, 0
3, 42949, Note_on_c, 9, 59, 0
3, 42972, Note_on_c, 9, 59, 79
3, 42975, Note_on_c, 9, 40, 24
3, 43003, Note_on_c, 9, 40, 0
3, 43036, Note_on_c, 9, 59, 0
3, 43046, Note_on_c, 9, 38, 62
3, 43057, Note_on_c, 9, 38, 0
3, 43087, Note_on_c, 9, 59, 85
3, 43099, Note_on_c, 9, 36, 26
3, 43111, Note_on_c, 9, 36, 0
3, 43165, Note_on_c, 9, 59, 0
3, 43167, Note_on_c, 9, 36, 60
3, 43186, Note_on_c, 9, 36, 0
3, 43214, Note_on_c, 9, 59, 84
3, 43215, Note_on_c, 9, 36, 52
3, 43242, Note_on_c, 9, 36, 0
3, 43279, Note_on_c, 9, 59, 0
3, 43290, Note_on_c, 9, 36, 53
3, 43310, Note_on_c, 9, 36, 0
3, 43332, Note_on_c, 9, 59, 82
3, 43407, Note_on_c, 9, 59, 0
3, 43458, Note_on_c, 9, 59, 79
3, 43514, Note_on_c, 9, 59, 0
3, 43543, Note_on_c, 9, 59, 56
3, 43595, Note_on_c, 9, 59, 0
3, 43655, Note_on_c, 9, 36, 44
3, 43656, Note_on_c, 9, 59, 84
3, 43666, Note_on_c, 9, 36, 0
3, 43733, Note_on_c, 9, 40, 54
3, 43742, Note_on_c, 9, 40, 0
3, 43761, Note_on_c, 9, 40, 35
3, 43764, Note_on_c, 9, 59, 0
3, 43772, Note_on_c, 9, 40, 0
3, 43792, Note_on_c, 9, 59, 49
3, 43802, Note_on_c, 9, 36, 32
3, 43804, Note_on_c, 9, 59, 0
3, 43814, Note_on_c, 9, 36, 0
3, 43833, Note_on_c, 9, 59, 71
3, 43879, Note_on_c, 9, 59, 0
3, 43899, Note_on_c, 9, 36, 46
3, 43907, Note_on_c, 9, 59, 84
3, 43908, Note_on_c, 9, 36, 0
3, 43989, Note_on_c, 9, 59, 0
3, 44018, Note_on_c, 9, 36, 46
3, 44028, Note_on_c, 9, 36, 0
3, 44029, Note_on_c, 9, 59, 40
3, 44042, Note_on_c, 9, 59, 0
3, 44068, Note_on_c, 9, 59, 75
3, 44069, Note_on_c, 9, 40, 41
3, 44078, Note_on_c, 9, 40, 0
3, 44101, Note_on_c, 9, 40, 49
3, 44109, Note_on_c, 9, 40, 0
3, 44139, Note_on_c, 9, 36, 38
3, 44145, Note_on_c, 9, 59, 0
3, 44163, Note_on_c, 9, 36, 0
3, 44182, Note_on_c, 9, 59, 78
3, 44242, Note_on_c, 9, 36, 33
3, 44243, Note_on_c, 9, 59, 0
3, 44252, Note_on_c, 9, 36, 0
3, 44279, Note_on_c, 9, 40, 36
3, 44289, Note_on_c, 9, 40, 0
3, 44293, Note_on_c, 9, 59, 82
3, 44309, Note_on_c, 9, 40, 48
3, 44322, Note_on_c, 9, 40, 0
3, 44346, Note_on_c, 9, 59, 0
3, 44360, Note_on_c, 9, 36, 49
3, 44373, Note_on_c, 9, 59, 62
3, 44383, Note_on_c, 9, 36, 0
3, 44389, Note_on_c, 9, 59, 0
3, 44413, Note_on_c, 9, 59, 80
3, 44484, Note_on_c, 9, 59, 0
3, 44531, Note_on_c, 9, 59, 92
3, 44591, Note_on_c, 9, 59, 0
3, 44599, Note_on_c, 9, 40, 51
3, 44610, Note_on_c, 9, 40, 0
3, 44617, Note_on_c, 9, 59, 64
3, 44635, Note_on_c, 9, 59, 0
3, 44645, Note_on_c, 9, 36, 28
3, 44665, Note_on_c, 9, 59, 67
3, 44696, Note_on_c, 9, 36, 0
3, 44699, Note_on_c, 9, 59, 0
3, 44716, Note_on_c, 9, 36, 48
3, 44732, Note_on_c, 9, 36, 0
3, 44771, Note_on_c, 9, 59, 95
3, 44834, Note_on_c, 9, 59, 0
3, 44864, Note_on_c, 9, 59, 45
3, 44877, Note_on_c, 9, 59, 0
3, 44901, Note_on_c, 9, 59, 65
3, 44914, Note_on_c, 9, 59, 0
3, 45001, Note_on_c, 9, 59, 92
3, 45059, Note_on_c, 9, 59, 0
3, 45088, Note_on_c, 9, 36, 41
3, 45098, Note_on_c, 9, 36, 0
3, 45118, Note_on_c, 9, 59, 60
3, 45129, Note_on_c, 9, 40, 40
3, 45146, Note_on_c, 9, 59, 0
3, 45186, Note_on_c, 9, 40, 0
3, 45203, Note_on_c, 9, 59, 68
3, 45205, Note_on_c, 9, 40, 47
3, 45216, Note_on_c, 9, 40, 0
3, 45218, Note_on_c, 9, 59, 0
3, 45243, Note_on_c, 9, 40, 29
3, 45243, Note_on_c, 9, 59, 84
3, 45257, Note_on_c, 9, 40, 0
3, 45294, Note_on_c, 9, 59, 0
3, 45324, Note_on_c, 9, 36, 50
3, 45326, Note_on_c, 9, 59, 84
3, 45334, Note_on_c, 9, 36, 0
3, 45366, Note_on_c, 9, 59, 0
3, 45376, Note_on_c, 9, 40, 26
3, 45408, Note_on_c, 9, 40, 0
3, 45437, Note_on_c, 9, 53, 80
3, 45442, Note_on_c, 9, 36, 50
3, 45451, Note_on_c, 9, 36, 0
3, 45463, Note_on_c, 9, 53, 0
3, 45492, Note_on_c, 9, 40, 24
3, 45500, Note_on_c, 9, 40, 0
3, 45557, Note_on_c, 9, 40, 66
3, 45564, Note_on_c, 9, 59, 78
3, 45572, Note_on_c, 9, 40, 0
3, 45587, Note_on_c, 9, 59, 0
3, 45608, Note_on_c, 9, 40, 47
3, 45616, Note_on_c, 9, 40, 0
3, 45673, Note_on_c, 9, 53, 91
3, 45677, Note_on_c, 9, 40, 43
3, 45686, Note_on_c, 9, 40, 0
3, 45713, Note_on_c, 9, 53, 0
3, 45722, Note_on_c, 9, 36, 26
3, 45729, Note_on_c, 9, 36, 0
3, 45796, Note_on_c, 9, 36, 34
3, 45796, Note_on_c, 9, 53, 95
3, 45806, Note_on_c, 9, 36, 0
3, 45834, Note_on_c, 9, 53, 0
3, 45914, Note_on_c, 9, 40, 67
3, 45920, Note_on_c, 9, 53, 96
3, 45933, Note_on_c, 9, 40, 0
3, 45951, Note_on_c, 9, 53, 0
3, 45963, Note_on_c, 9, 36, 32
3, 45979, Note_on_c, 9, 36, 0
3, 46031, Note_on_c, 9, 51, 84
3, 46039, Note_on_c, 9, 36, 34
3, 46049, Note_on_c, 9, 36, 0
3, 46053, Note_on_c, 9, 51, 0
3, 46076, Note_on_c, 9, 51, 80
3, 46080, Note_on_c, 9, 36, 62
3, 46101, Note_on_c, 9, 36, 0
3, 46156, Note_on_c, 9, 51, 0
3, 46200, Note_on_c, 9, 51, 86
3, 46261, Note_on_c, 9, 51, 0
3, 46282, Note_on_c, 9, 36, 34
3, 46296, Note_on_c, 9, 36, 0
3, 46392, Note_on_c, 9, 44, 44
3, 46402, Note_on_c, 9, 44, 0
3, 46403, Note_on_c, 9, 51, 73
3, 46426, Note_on_c, 9, 51, 0
3, 46447, Note_on_c, 9, 51, 68
3, 46490, Note_on_c, 9, 51, 0
3, 46532, Note_on_c, 9, 51, 91
3, 46568, Note_on_c, 9, 51, 0
3, 46640, Note_on_c, 9, 53, 75
3, 46674, Note_on_c, 9, 53, 0
3, 46738, Note_on_c, 9, 44, 43
3, 46757, Note_on_c, 9, 44, 0
3, 46759, Note_on_c, 9, 51, 77
3, 46775, Note_on_c, 9, 44, 37
3, 46783, Note_on_c, 9, 44, 0
3, 46787, Note_on_c, 9, 51, 0
3, 46881, Note_on_c, 9, 53, 80
3, 46914, Note_on_c, 9, 53, 0
3, 46998, Note_on_c, 9, 51, 45
3, 46998, Note_on_c, 9, 36, 48
3, 47008, Note_on_c, 9, 36, 0
3, 47010, Note_on_c, 9, 51, 0
3, 47044, Note_on_c, 9, 51, 69
3, 47046, Note_on_c, 9, 36, 37
3, 47071, Note_on_c, 9, 36, 0
3, 47073, Note_on_c, 9, 51, 0
3, 47128, Note_on_c, 9, 36, 47
3, 47137, Note_on_c, 9, 36, 0
3, 47165, Note_on_c, 9, 51, 86
3, 47209, Note_on_c, 9, 51, 0
3, 47281, Note_on_c, 9, 40, 44
3, 47286, Note_on_c, 9, 51, 73
3, 47299, Note_on_c, 9, 40, 0
3, 47313, Note_on_c, 9, 51, 0
3, 47318, Note_on_c, 9, 40, 37
3, 47336, Note_on_c, 9, 40, 0
3, 47357, Note_on_c, 9, 40, 60
3, 47366, Note_on_c, 9, 40, 0
3, 47370, Note_on_c, 9, 51, 81
3, 47396, Note_on_c, 9, 51, 0
3, 47479, Note_on_c, 9, 36, 39
3, 47480, Note_on_c, 9, 53, 80
3, 47490, Note_on_c, 9, 36, 0
3, 47513, Note_on_c, 9, 53, 0
3, 47567, Note_on_c, 9, 40, 46
3, 47576, Note_on_c, 9, 40, 0
3, 47596, Note_on_c, 9, 40, 36
3, 47601, Note_on_c, 9, 51, 76
3, 47610, Note_on_c, 9, 40, 0
3, 47630, Note_on_c, 9, 51, 0
3, 47688, Note_on_c, 9, 40, 47
3, 47703, Note_on_c, 9, 40, 0
3, 47726, Note_on_c, 9, 51, 74
3, 47746, Note_on_c, 9, 51, 0
3, 47771, Note_on_c, 9, 51, 74
3, 47777, Note_on_c, 9, 40, 24
3, 47784, Note_on_c, 9, 40, 0
3, 47815, Note_on_c, 9, 51, 0
3, 47888, Note_on_c, 9, 51, 91
3, 47953, Note_on_c, 9, 51, 0
3, 48014, Note_on_c, 9, 40, 36
3, 48024, Note_on_c, 9, 40, 0
3, 48043, Note_on_c, 9, 40, 45
3, 48055, Note_on_c, 9, 40, 0
3, 48079, Note_on_c, 9, 40, 40
3, 48089, Note_on_c, 9, 40, 0
3, 48090, Note_on_c, 9, 51, 69
3, 48101, Note_on_c, 9, 51, 0
3, 48133, Note_on_c, 9, 51, 68
3, 48161, Note_on_c, 9, 51, 0
3, 48183, Note_on_c, 9, 40, 33
3, 48192, Note_on_c, 9, 40, 0
3, 48209, Note_on_c, 9, 51, 90
3, 48251, Note_on_c, 9, 51, 0
3, 48322, Note_on_c, 9, 36, 27
3, 48326, Note_on_c, 9, 51, 81
3, 48333, Note_on_c, 9, 36, 0
3, 48353, Note_on_c, 9, 40, 45
3, 48356, Note_on_c, 9, 51, 0
3, 48365, Note_on_c, 9, 40, 0
3, 48387, Note_on_c, 9, 40, 44
3, 48398, Note_on_c, 9, 40, 0
3, 48432, Note_on_c, 9, 36, 44
3, 48443, Note_on_c, 9, 36, 0
3, 48446, Note_on_c, 9, 51, 83
3, 48483, Note_on_c, 9, 51, 0
3, 48560, Note_on_c, 9, 51, 69
3, 48588, Note_on_c, 9, 51, 0
3, 48608, Note_on_c, 9, 51, 68
3, 48627, Note_on_c, 9, 51, 0
3, 48683, Note_on_c, 9, 51, 86
3, 48718, Note_on_c, 9, 51, 0
3, 48758, Note_on_c, 9, 40, 50
3, 48767, Note_on_c, 9, 40, 0
3, 48802, Note_on_c, 9, 36, 33
3, 48807, Note_on_c, 9, 51, 30
3, 48816, Note_on_c, 9, 36, 0
3, 48818, Note_on_c, 9, 51, 0
3, 48844, Note_on_c, 9, 40, 54
3, 48850, Note_on_c, 9, 51, 57
3, 48857, Note_on_c, 9, 40, 0
3, 48874, Note_on_c, 9, 51, 0
3, 48917, Note_on_c, 9, 40, 62
3, 48926, Note_on_c, 9, 51, 83
3, 48938, Note_on_c, 9, 40, 0
3, 48952, Note_on_c, 9, 51, 0
3, 48960, Note_on_c, 9, 36, 35
3, 48972, Note_on_c, 9, 51, 73
3, 48977, Note_on_c, 9, 36, 0
3, 48997, Note_on_c, 9, 51, 0
3, 49041, Note_on_c, 9, 51, 72
3, 49056, Note_on_c, 9, 51, 0
3, 49085, Note_on_c, 9, 51, 72
3, 49110, Note_on_c, 9, 51, 0
3, 49148, Note_on_c, 9, 40, 60
3, 49158, Note_on_c, 9, 51, 87
3, 49165, Note_on_c, 9, 40, 0
3, 49184, Note_on_c, 9, 51, 0
3, 49203, Note_on_c, 9, 51, 77
3, 49233, Note_on_c, 9, 51, 0
3, 49237, Note_on_c, 9, 40, 57
3, 49245, Note_on_c, 9, 40, 0
3, 49275, Note_on_c, 9, 40, 49
3, 49284, Note_on_c, 9, 40, 0
3, 49306, Note_on_c, 9, 51, 71
3, 49323, Note_on_c, 9, 36, 33
3, 49330, Note_on_c, 9, 51, 0
3, 49342, Note_on_c, 9, 36, 0
3, 49391, Note_on_c, 9, 51, 83
3, 49431, Note_on_c, 9, 51, 0
3, 49431, Note_on_c, 9, 40, 55
3, 49439, Note_on_c, 9, 40, 0
3, 49472, Note_on_c, 9, 40, 44
3, 49485, Note_on_c, 9, 40, 0
3, 49516, Note_on_c, 9, 36, 57
3, 49520, Note_on_c, 9, 53, 71
3, 49536, Note_on_c, 9, 36, 0
3, 49551, Note_on_c, 9, 53, 0
3, 49612, Note_on_c, 9, 40, 53
3, 49620, Note_on_c, 9, 40, 0
3, 49633, Note_on_c, 9, 51, 83
3, 49674, Note_on_c, 9, 51, 0
3, 49686, Note_on_c, 9, 40, 51
3, 49695, Note_on_c, 9, 40, 0
3, 49758, Note_on_c, 9, 51, 73
3, 49762, Note_on_c, 9, 40, 64
3, 49769, Note_on_c, 9, 40, 0
3, 49776, Note_on_c, 9, 51, 0
3, 49799, Note_on_c, 9, 51, 72
3, 49834, Note_on_c, 9, 51, 0
3, 49880, Note_on_c, 9, 51, 81
3, 49885, Note_on_c, 9, 37, 78
3, 49898, Note_on_c, 9, 51, 0
3, 49908, Note_on_c, 9, 37, 0
3, 49925, Note_on_c, 9, 51, 84
3, 49928, Note_on_c, 9, 40, 64
3, 49928, Note_on_c, 9, 36, 68
3, 49928, Note_on_c, 9, 57, 63
3, 49988, Note_on_c, 9, 51, 0
3, 50040, Note_on_c, 9, 51, 88
3, 50113, Note_on_c, 9, 51, 0
3, 50167, Note_on_c, 9, 51, 79
3, 50230, Note_on_c, 9, 51, 0
3, 50278, Note_on_c, 9, 57, 0
3, 50286, Note_on_c, 9, 51, 81
3, 50303, Note_on_c, 9, 36, 0
3, 50308, Note_on_c, 9, 40, 0
3, 50347, Note_on_c, 9, 51, 0
3, 50369, Note_on_c, 9, 36, 63
3, 50392, Note_on_c, 9, 36, 0
3, 50406, Note_on_c, 9, 51, 83
3, 50411, Note_on_c, 9, 36, 48
3, 50453, Note_on_c, 9, 36, 0
3, 50473, Note_on_c, 9, 51, 0
3, 50531, Note_on_c, 9, 51, 83
3, 50583, Note_on_c, 9, 51, 0
3, 50610, Note_on_c, 9, 36, 29
3, 50616, Note_on_c, 9, 51, 42
3, 50625, Note_on_c, 9, 36, 0
3, 50632, Note_on_c, 9, 51, 0
3, 50653, Note_on_c, 9, 51, 77
3, 50728, Note_on_c, 9, 51, 0
3, 50730, Note_on_c, 9, 38, 28
3, 50738, Note_on_c, 9, 38, 0
3, 50770, Note_on_c, 9, 51, 86
3, 50836, Note_on_c, 9, 51, 0
3, 50847, Note_on_c, 9, 36, 48
3, 50857, Note_on_c, 9, 36, 0
3, 50858, Note_on_c, 9, 51, 57
3, 50878, Note_on_c, 9, 51, 0
3, 50893, Note_on_c, 9, 40, 26
3, 50894, Note_on_c, 9, 51, 67
3, 50928, Note_on_c, 9, 40, 0
3, 50958, Note_on_c, 9, 40, 41
3, 50967, Note_on_c, 9, 40, 0
3, 50973, Note_on_c, 9, 51, 0
3, 51015, Note_on_c, 9, 51, 87
3, 51086, Note_on_c, 9, 51, 0
3, 51137, Note_on_c, 9, 51, 82
3, 51198, Note_on_c, 9, 51, 0
3, 51209, Note_on_c, 9, 40, 43
3, 51218, Note_on_c, 9, 40, 0
3, 51220, Note_on_c, 9, 51, 64
3, 51242, Note_on_c, 9, 51, 0
3, 51255, Note_on_c, 9, 51, 64
3, 51317, Note_on_c, 9, 51, 0
3, 51335, Note_on_c, 9, 51, 92
3, 51338, Note_on_c, 9, 36, 42
3, 51349, Note_on_c, 9, 36, 0
3, 51379, Note_on_c, 9, 36, 39
3, 51408, Note_on_c, 9, 36, 0
3, 51428, Note_on_c, 9, 51, 0
3, 51452, Note_on_c, 9, 51, 59
3, 51467, Note_on_c, 9, 51, 0
3, 51490, Note_on_c, 9, 51, 77
3, 51572, Note_on_c, 9, 51, 0
3, 51613, Note_on_c, 9, 51, 83
3, 51685, Note_on_c, 9, 51, 0
3, 51731, Note_on_c, 9, 40, 44
3, 51735, Note_on_c, 9, 51, 83
3, 51743, Note_on_c, 9, 40, 0
3, 51768, Note_on_c, 9, 40, 54
3, 51782, Note_on_c, 9, 40, 0
3, 51797, Note_on_c, 9, 51, 0
3, 51811, Note_on_c, 9, 36, 49
3, 51824, Note_on_c, 9, 36, 0
3, 51835, Note_on_c, 9, 51, 71
3, 51859, Note_on_c, 9, 51, 0
3, 51937, Note_on_c, 9, 51, 85
3, 52011, Note_on_c, 9, 51, 0
3, 52060, Note_on_c, 9, 51, 64
3, 52083, Note_on_c, 9, 51, 0
3, 52099, Note_on_c, 9, 51, 73
3, 52174, Note_on_c, 9, 51, 0
3, 52219, Note_on_c, 9, 51, 84
3, 52281, Note_on_c, 9, 51, 0
3, 52292, Note_on_c, 9, 36, 45
3, 52301, Note_on_c, 9, 36, 0
3, 52302, Note_on_c, 9, 51, 59
3, 52317, Note_on_c, 9, 51, 0
3, 52339, Note_on_c, 9, 51, 76
3, 52407, Note_on_c, 9, 51, 0
3, 52456, Note_on_c, 9, 51, 85
3, 52515, Note_on_c, 9, 51, 0
3, 52538, Note_on_c, 9, 51, 65
3, 52560, Note_on_c, 9, 51, 0
3, 52578, Note_on_c, 9, 51, 77
3, 52643, Note_on_c, 9, 51, 0
3, 52692, Note_on_c, 9, 51, 85
3, 52758, Note_on_c, 9, 51, 0
3, 52760, Note_on_c, 9, 40, 64
3, 52779, Note_on_c, 9, 40, 0
3, 52804, Note_on_c, 9, 36, 33
3, 52812, Note_on_c, 9, 51, 85
3, 52819, Note_on_c, 9, 36, 0
3, 52871, Note_on_c, 9, 51, 0
3, 52881, Note_on_c, 9, 40, 69
3, 52899, Note_on_c, 9, 40, 0
3, 52929, Note_on_c, 9, 51, 84
3, 52986, Note_on_c, 9, 51, 0
3, 53006, Note_on_c, 9, 36, 49
3, 53013, Note_on_c, 9, 51, 48
3, 53015, Note_on_c, 9, 36, 0
3, 53031, Note_on_c, 9, 51, 0
3, 53046, Note_on_c, 9, 36, 40
3, 53046, Note_on_c, 9, 51, 68
3, 53092, Note_on_c, 9, 36, 0
3, 53122, Note_on_c, 9, 36, 44
3, 53124, Note_on_c, 9, 51, 0
3, 53139, Note_on_c, 9, 36, 0
3, 53168, Note_on_c, 9, 51, 85
3, 53237, Note_on_c, 9, 51, 0
3, 53288, Note_on_c, 9, 51, 80
3, 53356, Note_on_c, 9, 51, 0
3, 53371, Note_on_c, 9, 36, 35
3, 53382, Note_on_c, 9, 36, 0
3, 53410, Note_on_c, 9, 40, 36
3, 53413, Note_on_c, 9, 51, 88
3, 53467, Note_on_c, 9, 40, 0
3, 53469, Note_on_c, 9, 51, 0
3, 53486, Note_on_c, 9, 40, 47
3, 53495, Note_on_c, 9, 40, 0
3, 53510, Note_on_c, 9, 51, 40
3, 53521, Note_on_c, 9, 51, 0
3, 53538, Note_on_c, 9, 51, 71
3, 53562, Note_on_c, 9, 51, 0
3, 53611, Note_on_c, 9, 51, 94
3, 53611, Note_on_c, 9, 36, 45
3, 53620, Note_on_c, 9, 36, 0
3, 53699, Note_on_c, 9, 51, 0
3, 53734, Note_on_c, 9, 51, 37
3, 53734, Note_on_c, 9, 40, 61
3, 53745, Note_on_c, 9, 40, 0
3, 53746, Note_on_c, 9, 51, 0
3, 53772, Note_on_c, 9, 51, 77
3, 53781, Note_on_c, 9, 36, 34
3, 53831, Note_on_c, 9, 36, 0
3, 53839, Note_on_c, 9, 51, 0
3, 53853, Note_on_c, 9, 36, 55
3, 53865, Note_on_c, 9, 36, 0
3, 53957, Note_on_c, 9, 51, 90
3, 54029, Note_on_c, 9, 51, 0
3, 54093, Note_on_c, 9, 51, 52
3, 54104, Note_on_c, 9, 51, 0
3, 54141, Note_on_c, 9, 51, 80
3, 54184, Note_on_c, 9, 51, 0
3, 54203, Note_on_c, 9, 40, 60
3, 54217, Note_on_c, 9, 51, 57
3, 54222, Note_on_c, 9, 40, 0
3, 54232, Note_on_c, 9, 51, 0
3, 54256, Note_on_c, 9, 51, 71
3, 54278, Note_on_c, 9, 40, 70
3, 54284, Note_on_c, 9, 51, 0
3, 54309, Note_on_c, 9, 40, 0
3, 54331, Note_on_c, 9, 51, 85
3, 54356, Note_on_c, 9, 51, 0
3, 54360, Note_on_c, 9, 40, 71
3, 54376, Note_on_c, 9, 51, 72
3, 54409, Note_on_c, 9, 40, 0
3, 54417, Note_on_c, 9, 51, 0
3, 54445, Note_on_c, 9, 36, 62
3, 54488, Note_on_c, 9, 36, 0
3, 54490, Note_on_c, 9, 51, 85
3, 54526, Note_on_c, 9, 36, 73
3, 54540, Note_on_c, 9, 51, 0
3, 54581, Note_on_c, 9, 36, 0
3, 54615, Note_on_c, 9, 36, 78
3, 54661, Note_on_c, 9, 36, 0
3, 54683, Note_on_c, 9, 51, 86
3, 54697, Note_on_c, 9, 36, 84
3, 54710, Note_on_c, 9, 51, 0
3, 54731, Note_on_c, 9, 51, 69
3, 54741, Note_on_c, 9, 36, 0
3, 54760, Note_on_c, 9, 51, 0
3, 54923, Note_on_c, 9, 51, 79
3, 54945, Note_on_c, 9, 51, 0
3, 54970, Note_on_c, 9, 51, 75
3, 55015, Note_on_c, 9, 51, 0
3, 55045, Note_on_c, 9, 51, 72
3, 55053, Note_on_c, 9, 57, 57
3, 55056, Note_on_c, 9, 40, 54
3, 55061, Note_on_c, 9, 57, 0
3, 55065, Note_on_c, 9, 40, 0
3, 55077, Note_on_c, 9, 51, 0
3, 55170, Note_on_c, 9, 51, 88
3, 55210, Note_on_c, 9, 51, 0
3, 55286, Note_on_c, 9, 40, 64
3, 55294, Note_on_c, 9, 51, 55
3, 55299, Note_on_c, 9, 40, 0
3, 55306, Note_on_c, 9, 51, 0
3, 55339, Note_on_c, 9, 51, 67
3, 55369, Note_on_c, 9, 40, 71
3, 55375, Note_on_c, 9, 51, 0
3, 55402, Note_on_c, 9, 40, 0
3, 55416, Note_on_c, 9, 51, 67
3, 55430, Note_on_c, 9, 51, 0
3, 55450, Note_on_c, 9, 40, 75
3, 55458, Note_on_c, 9, 51, 68
3, 55488, Note_on_c, 9, 51, 0
3, 55495, Note_on_c, 9, 40, 0
3, 55523, Note_on_c, 9, 36, 60
3, 55532, Note_on_c, 9, 51, 88
3, 55533, Note_on_c, 9, 36, 0
3, 55576, Note_on_c, 9, 51, 0
3, 55616, Note_on_c, 9, 37, 31
3, 55625, Note_on_c, 9, 37, 0
3, 55642, Note_on_c, 9, 37, 50
3, 55657, Note_on_c, 9, 51, 58
3, 55669, Note_on_c, 9, 51, 0
3, 55669, Note_on_c, 9, 37, 0
3, 55679, Note_on_c, 9, 40, 50
3, 55685, Note_on_c, 9, 36, 45
3, 55700, Note_on_c, 9, 51, 70
3, 55727, Note_on_c, 9, 51, 0
3, 55743, Note_on_c, 9, 40, 0
3, 55751, Note_on_c, 9, 36, 0
3, 55811, Note_on_c, 9, 51, 74
3, 55836, Note_on_c, 9, 51, 0
3, 55883, Note_on_c, 9, 36, 67
3, 55902, Note_on_c, 9, 36, 0
3, 55936, Note_on_c, 9, 51, 63
3, 55973, Note_on_c, 9, 51, 0
3, 56017, Note_on_c, 9, 51, 57
3, 56085, Note_on_c, 9, 51, 0
3, 56121, Note_on_c, 9, 51, 81
3, 56170, Note_on_c, 9, 51, 0
3, 56243, Note_on_c, 9, 51, 84
3, 56283, Note_on_c, 9, 37, 91
3, 56293, Note_on_c, 9, 51, 0
3, 56333, Note_on_c, 9, 37, 0
3, 56366, Note_on_c, 9, 36, 29
3, 56369, Note_on_c, 9, 51, 53
3, 56380, Note_on_c, 9, 51, 0
3, 56381, Note_on_c, 9, 36, 0
3, 56403, Note_on_c, 9, 36, 53
3, 56404, Note_on_c, 9, 51, 71
3, 56460, Note_on_c, 9, 36, 0
3, 56471, Note_on_c, 9, 51, 0
3, 56479, Note_on_c, 9, 36, 57
3, 56509, Note_on_c, 9, 36, 0
3, 56596, Note_on_c, 9, 51, 84
3, 56625, Note_on_c, 9, 51, 0
3, 56643, Note_on_c, 9, 51, 79
3, 56708, Note_on_c, 9, 51, 0
3, 56721, Note_on_c, 9, 36, 52
3, 56740, Note_on_c, 9, 36, 0
3, 56765, Note_on_c, 9, 51, 86
3, 56827, Note_on_c, 9, 51, 0
3, 56838, Note_on_c, 9, 36, 51
3, 56863, Note_on_c, 9, 36, 0
3, 56880, Note_on_c, 9, 51, 79
3, 56943, Note_on_c, 9, 51, 0
3, 56958, Note_on_c, 9, 53, 77
3, 56961, Note_on_c, 9, 36, 31
3, 56975, Note_on_c, 9, 36, 0
3, 56976, Note_on_c, 9, 53, 0
3, 57001, Note_on_c, 9, 44, 70
3, 57018, Note_on_c, 9, 44, 0
3, 57064, Note_on_c, 9, 51, 78
3, 57077, Note_on_c, 9, 44, 69
3, 57096, Note_on_c, 9, 44, 0
3, 57097, Note_on_c, 9, 51, 0
3, 57192, Note_on_c, 9, 53, 91
3, 57201, Note_on_c, 9, 36, 48
3, 57213, Note_on_c, 9, 36, 0
3, 57220, Note_on_c, 9, 53, 0
3, 57242, Note_on_c, 9, 40, 56
3, 57254, Note_on_c, 9, 40, 0
3, 57278, Note_on_c, 9, 40, 46
3, 57291, Note_on_c, 9, 40, 0
3, 57312, Note_on_c, 9, 51, 78
3, 57325, Note_on_c, 9, 36, 33
3, 57336, Note_on_c, 9, 36, 0
3, 57341, Note_on_c, 9, 51, 0
3, 57368, Note_on_c, 9, 40, 51
3, 57377, Note_on_c, 9, 40, 0
3, 57396, Note_on_c, 9, 40, 53
3, 57408, Note_on_c, 9, 40, 0
3, 57432, Note_on_c, 9, 51, 77
3, 57441, Note_on_c, 9, 36, 36
3, 57446, Note_on_c, 9, 51, 0
3, 57452, Note_on_c, 9, 36, 0
3, 57474, Note_on_c, 9, 51, 95
3, 57558, Note_on_c, 9, 51, 0
3, 57565, Note_on_c, 9, 36, 70
3, 57588, Note_on_c, 9, 51, 85
3, 57592, Note_on_c, 9, 36, 0
3, 57605, Note_on_c, 9, 36, 46
3, 57645, Note_on_c, 9, 36, 0
3, 57663, Note_on_c, 9, 51, 0
3, 57717, Note_on_c, 9, 51, 85
3, 57776, Note_on_c, 9, 51, 0
3, 57812, Note_on_c, 9, 36, 49
3, 57823, Note_on_c, 9, 36, 0
3, 57843, Note_on_c, 9, 51, 84
3, 57908, Note_on_c, 9, 51, 0
3, 57970, Note_on_c, 9, 51, 81
3, 58029, Note_on_c, 9, 51, 0
3, 58045, Note_on_c, 9, 40, 72
3, 58051, Note_on_c, 9, 51, 60
3, 58072, Note_on_c, 9, 40, 0
3, 58075, Note_on_c, 9, 51, 0
3, 58086, Note_on_c, 9, 51, 55
3, 58135, Note_on_c, 9, 51, 0
3, 58166, Note_on_c, 9, 40, 32
3, 58175, Note_on_c, 9, 40, 0
3, 58199, Note_on_c, 9, 51, 88
3, 58209, Note_on_c, 9, 40, 49
3, 58222, Note_on_c, 9, 40, 0
3, 58260, Note_on_c, 9, 51, 0
3, 58283, Note_on_c, 9, 51, 63
3, 58283, Note_on_c, 9, 36, 43
3, 58297, Note_on_c, 9, 36, 0
3, 58307, Note_on_c, 9, 51, 0
3, 58322, Note_on_c, 9, 51, 57
3, 58324, Note_on_c, 9, 36, 46
3, 58378, Note_on_c, 9, 51, 0
3, 58380, Note_on_c, 9, 36, 0
3, 58399, Note_on_c, 9, 36, 58
3, 58420, Note_on_c, 9, 36, 0
3, 58434, Note_on_c, 9, 51, 86
3, 58487, Note_on_c, 9, 51, 0
3, 58515, Note_on_c, 9, 51, 55
3, 58538, Note_on_c, 9, 51, 0
3, 58557, Note_on_c, 9, 51, 71
3, 58613, Note_on_c, 9, 51, 0
3, 58676, Note_on_c, 9, 51, 82
3, 58732, Note_on_c, 9, 51, 0
3, 58769, Note_on_c, 9, 51, 60
3, 58781, Note_on_c, 9, 51, 0
3, 58801, Note_on_c, 9, 51, 72
3, 58817, Note_on_c, 9, 40, 47
3, 58829, Note_on_c, 9, 40, 0
3, 58848, Note_on_c, 9, 51, 0
3, 58852, Note_on_c, 9, 40, 42
3, 58874, Note_on_c, 9, 40, 0
3, 58923, Note_on_c, 9, 51, 84
3, 58983, Note_on_c, 9, 51, 0
3, 59012, Note_on_c, 9, 36, 34
3, 59023, Note_on_c, 9, 36, 0
3, 59028, Note_on_c, 9, 51, 36
3, 59040, Note_on_c, 9, 51, 0
3, 59047, Note_on_c, 9, 40, 44
3, 59060, Note_on_c, 9, 51, 78
3, 59061, Note_on_c, 9, 40, 0
3, 59078, Note_on_c, 9, 40, 38
3, 59087, Note_on_c, 9, 51, 0
3, 59098, Note_on_c, 9, 40, 0
3, 59117, Note_on_c, 9, 40, 30
3, 59126, Note_on_c, 9, 40, 0
3, 59169, Note_on_c, 9, 51, 88
3, 59224, Note_on_c, 9, 51, 0
3, 59241, Note_on_c, 9, 36, 45
3, 59250, Note_on_c, 9, 51, 55
3, 59253, Note_on_c, 9, 36, 0
3, 59265, Note_on_c, 9, 51, 0
3, 59285, Note_on_c, 9, 40, 41
3, 59287, Note_on_c, 9, 51, 72
3, 59295, Note_on_c, 9, 40, 0
3, 59314, Note_on_c, 9, 40, 49
3, 59327, Note_on_c, 9, 40, 0
3, 59344, Note_on_c, 9, 40, 56
3, 59353, Note_on_c, 9, 40, 0
3, 59354, Note_on_c, 9, 51, 0
3, 59375, Note_on_c, 9, 40, 58
3, 59392, Note_on_c, 9, 40, 0
3, 59403, Note_on_c, 9, 40, 62
3, 59406, Note_on_c, 9, 51, 88
3, 59413, Note_on_c, 9, 40, 0
3, 59461, Note_on_c, 9, 36, 41
3, 59463, Note_on_c, 9, 51, 0
3, 59474, Note_on_c, 9, 36, 0
3, 59488, Note_on_c, 9, 51, 49
3, 59502, Note_on_c, 9, 51, 0
3, 59515, Note_on_c, 9, 36, 59
3, 59525, Note_on_c, 9, 51, 69
3, 59535, Note_on_c, 9, 36, 0
3, 59549, Note_on_c, 9, 36, 74
3, 59591, Note_on_c, 9, 36, 0
3, 59593, Note_on_c, 9, 51, 0
3, 59650, Note_on_c, 9, 51, 85
3, 59736, Note_on_c, 9, 51, 0
3, 59737, Note_on_c, 9, 36, 40
3, 59748, Note_on_c, 9, 36, 0
3, 59776, Note_on_c, 9, 51, 75
3, 59812, Note_on_c, 9, 40, 58
3, 59825, Note_on_c, 9, 40, 0
3, 59835, Note_on_c, 9, 51, 0
3, 59863, Note_on_c, 9, 51, 58
3, 59870, Note_on_c, 9, 36, 41
3, 59880, Note_on_c, 9, 51, 0
3, 59883, Note_on_c, 9, 36, 0
3, 59896, Note_on_c, 9, 51, 71
3, 59951, Note_on_c, 9, 51, 0
3, 59974, Note_on_c, 9, 36, 49
3, 59976, Note_on_c, 9, 51, 83
3, 59986, Note_on_c, 9, 36, 0
3, 60049, Note_on_c, 9, 40, 35
3, 60065, Note_on_c, 9, 40, 0
3, 60071, Note_on_c, 9, 51, 0
3, 60082, Note_on_c, 9, 40, 49
3, 60091, Note_on_c, 9, 40, 0
3, 60093, Note_on_c, 9, 51, 59
3, 60115, Note_on_c, 9, 51, 0
3, 60134, Note_on_c, 9, 51, 78
3, 60208, Note_on_c, 9, 51, 0
3, 60208, Note_on_c, 9, 36, 37
3, 60218, Note_on_c, 9, 36, 0
3, 60251, Note_on_c, 9, 51, 81
3, 60302, Note_on_c, 9, 40, 38
3, 60310, Note_on_c, 9, 51, 0
3, 60312, Note_on_c, 9, 40, 0
3, 60362, Note_on_c, 9, 51, 82
3, 60439, Note_on_c, 9, 36, 28
3, 60441, Note_on_c, 9, 51, 0
3, 60451, Note_on_c, 9, 36, 0
3, 60459, Note_on_c, 9, 51, 69
3, 60476, Note_on_c, 9, 51, 0
3, 60481, Note_on_c, 9, 40, 31
3, 60489, Note_on_c, 9, 51, 64
3, 60495, Note_on_c, 9, 40, 0
3, 60553, Note_on_c, 9, 36, 55
3, 60564, Note_on_c, 9, 51, 0
3, 60570, Note_on_c, 9, 36, 0
3, 60606, Note_on_c, 9, 51, 83
3, 60657, Note_on_c, 9, 40, 56
3, 60665, Note_on_c, 9, 40, 0
3, 60681, Note_on_c, 9, 51, 0
3, 60699, Note_on_c, 9, 51, 46
3, 60701, Note_on_c, 9, 36, 30
3, 60710, Note_on_c, 9, 51, 0
3, 60716, Note_on_c, 9, 36, 0
3, 60727, Note_on_c, 9, 51, 70
3, 60744, Note_on_c, 9, 40, 43
3, 60755, Note_on_c, 9, 40, 0
3, 60785, Note_on_c, 9, 40, 54
3, 60796, Note_on_c, 9, 40, 0
3, 60805, Note_on_c, 9, 51, 0
3, 60848, Note_on_c, 9, 51, 87
3, 60882, Note_on_c, 9, 40, 40
3, 60893, Note_on_c, 9, 40, 0
3, 60921, Note_on_c, 9, 40, 60
3, 60931, Note_on_c, 9, 51, 0
3, 60938, Note_on_c, 9, 40, 0
3, 60970, Note_on_c, 9, 51, 79
3, 61007, Note_on_c, 9, 40, 64
3, 61022, Note_on_c, 9, 40, 0
3, 61031, Note_on_c, 9, 51, 0
3, 61043, Note_on_c, 9, 40, 64
3, 61056, Note_on_c, 9, 53, 66
3, 61061, Note_on_c, 9, 40, 0
3, 61081, Note_on_c, 9, 36, 49
3, 61084, Note_on_c, 9, 53, 0
3, 61097, Note_on_c, 9, 36, 0
3, 61123, Note_on_c, 9, 40, 67
3, 61142, Note_on_c, 9, 40, 0
3, 61159, Note_on_c, 9, 40, 73
3, 61171, Note_on_c, 9, 51, 91
3, 61180, Note_on_c, 9, 40, 0
3, 61199, Note_on_c, 9, 36, 44
3, 61214, Note_on_c, 9, 36, 0
3, 61235, Note_on_c, 9, 51, 0
3, 61237, Note_on_c, 9, 40, 66
3, 61252, Note_on_c, 9, 40, 0
3, 61276, Note_on_c, 9, 40, 68
3, 61284, Note_on_c, 9, 40, 0
3, 61287, Note_on_c, 9, 51, 92
3, 61316, Note_on_c, 9, 40, 55
3, 61330, Note_on_c, 9, 40, 0
3, 61340, Note_on_c, 9, 51, 0
3, 61369, Note_on_c, 9, 37, 79
3, 61385, Note_on_c, 9, 37, 0
3, 61405, Note_on_c, 9, 37, 79
3, 61407, Note_on_c, 9, 51, 59
3, 61422, Note_on_c, 9, 37, 0
3, 61425, Note_on_c, 9, 51, 0
3, 61442, Note_on_c, 9, 57, 74
3, 61443, Note_on_c, 9, 36, 73
3, 61448, Note_on_c, 9, 51, 77
3, 61504, Note_on_c, 9, 51, 0
3, 61570, Note_on_c, 9, 51, 95
3, 61658, Note_on_c, 9, 51, 0
3, 61669, Note_on_c, 9, 57, 0
3, 61692, Note_on_c, 9, 51, 49
3, 61714, Note_on_c, 9, 51, 0
3, 61778, Note_on_c, 9, 51, 87
3, 61847, Note_on_c, 9, 51, 0
3, 61883, Note_on_c, 9, 36, 0
3, 61886, Note_on_c, 9, 40, 79
3, 61898, Note_on_c, 9, 51, 54
3, 61902, Note_on_c, 9, 40, 0
3, 61916, Note_on_c, 9, 51, 0
3, 61942, Note_on_c, 9, 51, 78
3, 62009, Note_on_c, 9, 40, 60
3, 62013, Note_on_c, 9, 51, 0
3, 62018, Note_on_c, 9, 40, 0
3, 62055, Note_on_c, 9, 36, 42
3, 62057, Note_on_c, 9, 51, 52
3, 62072, Note_on_c, 9, 51, 0
3, 62083, Note_on_c, 9, 36, 0
3, 62132, Note_on_c, 9, 36, 73
3, 62137, Note_on_c, 9, 51, 90
3, 62165, Note_on_c, 9, 36, 0
3, 62178, Note_on_c, 9, 36, 65
3, 62197, Note_on_c, 9, 51, 0
3, 62234, Note_on_c, 9, 36, 0
3, 62249, Note_on_c, 9, 36, 76
3, 62253, Note_on_c, 9, 51, 49
3, 62272, Note_on_c, 9, 51, 0
3, 62273, Note_on_c, 9, 36, 0
3, 62304, Note_on_c, 9, 53, 41
3, 62330, Note_on_c, 9, 53, 0
3, 62376, Note_on_c, 9, 53, 74
3, 62409, Note_on_c, 9, 53, 0
3, 62495, Note_on_c, 9, 51, 90
3, 62556, Note_on_c, 9, 51, 0
3, 62616, Note_on_c, 9, 51, 73
3, 62637, Note_on_c, 9, 51, 0
3, 62661, Note_on_c, 9, 51, 83
3, 62727, Note_on_c, 9, 51, 0
3, 62731, Note_on_c, 9, 40, 58
3, 62741, Note_on_c, 9, 40, 0
3, 62778, Note_on_c, 9, 36, 31
3, 62778, Note_on_c, 9, 51, 32
3, 62791, Note_on_c, 9, 51, 0
3, 62824, Note_on_c, 9, 36, 0
3, 62848, Note_on_c, 9, 51, 97
3, 62855, Note_on_c, 9, 36, 94
3, 62884, Note_on_c, 9, 36, 0
3, 62898, Note_on_c, 9, 51, 0
3, 62901, Note_on_c, 9, 36, 73
3, 62933, Note_on_c, 9, 36, 0
3, 62971, Note_on_c, 9, 51, 53
3, 62982, Note_on_c, 9, 51, 0
3, 63015, Note_on_c, 9, 51, 83
3, 63069, Note_on_c, 9, 51, 0
3, 63124, Note_on_c, 9, 51, 35
3, 63136, Note_on_c, 9, 51, 0
3, 63168, Note_on_c, 9, 40, 50
3, 63177, Note_on_c, 9, 40, 0
3, 63197, Note_on_c, 9, 51, 88
3, 63201, Note_on_c, 9, 40, 54
3, 63221, Note_on_c, 9, 40, 0
3, 63244, Note_on_c, 9, 51, 0
3, 63252, Note_on_c, 9, 40, 48
3, 63260, Note_on_c, 9, 40, 0
3, 63290, Note_on_c, 9, 40, 49
3, 63299, Note_on_c, 9, 40, 0
3, 63308, Note_on_c, 9, 51, 53
3, 63321, Note_on_c, 9, 51, 0
3, 63324, Note_on_c, 9, 36, 77
3, 63355, Note_on_c, 9, 51, 81
3, 63375, Note_on_c, 9, 36, 0
3, 63416, Note_on_c, 9, 51, 0
3, 63476, Note_on_c, 9, 51, 69
3, 63514, Note_on_c, 9, 51, 0
3, 63563, Note_on_c, 9, 51, 48
3, 63568, Note_on_c, 9, 40, 58
3, 63576, Note_on_c, 9, 51, 0
3, 63578, Note_on_c, 9, 40, 0
3, 63605, Note_on_c, 9, 51, 74
3, 63621, Note_on_c, 9, 40, 35
3, 63631, Note_on_c, 9, 40, 0
3, 63657, Note_on_c, 9, 51, 0
3, 63688, Note_on_c, 9, 51, 81
3, 63690, Note_on_c, 9, 40, 54
3, 63698, Note_on_c, 9, 40, 0
3, 63734, Note_on_c, 9, 51, 0
3, 63739, Note_on_c, 9, 36, 44
3, 63781, Note_on_c, 9, 36, 0
3, 63796, Note_on_c, 9, 51, 93
3, 63803, Note_on_c, 9, 36, 60
3, 63823, Note_on_c, 9, 36, 0
3, 63857, Note_on_c, 9, 51, 0
3, 63926, Note_on_c, 9, 51, 45
3, 63940, Note_on_c, 9, 51, 0
3, 63962, Note_on_c, 9, 51, 69
3, 64007, Note_on_c, 9, 51, 0
3, 64042, Note_on_c, 9, 51, 83
3, 64070, Note_on_c, 9, 51, 0
3, 64090, Note_on_c, 9, 51, 70
3, 64138, Note_on_c, 9, 51, 0
3, 64168, Note_on_c, 9, 51, 64
3, 64192, Note_on_c, 9, 51, 0
3, 64286, Note_on_c, 9, 40, 33
3, 64295, Note_on_c, 9, 40, 0
3, 64295, Note_on_c, 9, 51, 62
3, 64308, Note_on_c, 9, 51, 0
3, 64335, Note_on_c, 9, 51, 61
3, 64380, Note_on_c, 9, 51, 0
3, 64411, Note_on_c, 9, 40, 56
3, 64415, Note_on_c, 9, 51, 60
3, 64420, Note_on_c, 9, 40, 0
3, 64426, Note_on_c, 9, 51, 0
3, 64453, Note_on_c, 9, 51, 57
3, 64475, Note_on_c, 9, 51, 0
3, 64532, Note_on_c, 9, 51, 91
3, 64535, Note_on_c, 9, 36, 53
3, 64550, Note_on_c, 9, 36, 0
3, 64573, Note_on_c, 9, 36, 45
3, 64627, Note_on_c, 9, 36, 0
3, 64628, Note_on_c, 9, 51, 0
3, 64650, Note_on_c, 9, 36, 36
3, 64652, Note_on_c, 9, 51, 47
3, 64663, Note_on_c, 9, 51, 0
3, 64668, Note_on_c, 9, 36, 0
3, 64695, Note_on_c, 9, 51, 67
3, 64735, Note_on_c, 9, 51, 0
3, 64769, Note_on_c, 9, 51, 85
3, 64854, Note_on_c, 9, 51, 0
3, 64895, Note_on_c, 9, 51, 67
3, 64914, Note_on_c, 9, 51, 0
3, 64940, Note_on_c, 9, 51, 69
3, 64978, Note_on_c, 9, 51, 0
3, 65016, Note_on_c, 9, 40, 58
3, 65017, Note_on_c, 9, 51, 82
3, 65024, Note_on_c, 9, 40, 0
3, 65054, Note_on_c, 9, 51, 0
3, 65139, Note_on_c, 9, 51, 91
3, 65141, Note_on_c, 9, 40, 66
3, 65155, Note_on_c, 9, 40, 0
3, 65179, Note_on_c, 9, 51, 0
3, 65185, Note_on_c, 9, 59, 103
3, 65259, Note_on_c, 9, 37, 59
3, 65280, Note_on_c, 9, 37, 0
3, 65296, Note_on_c, 9, 57, 72
3, 65298, Note_on_c, 9, 36, 64
3, 65370, Note_on_c, 9, 59, 0
3, 65391, Note_on_c, 9, 59, 52
3, 65403, Note_on_c, 9, 59, 0
3, 65423, Note_on_c, 9, 59, 77
3, 65434, Note_on_c, 9, 57, 0
3, 65492, Note_on_c, 9, 59, 0
3, 65539, Note_on_c, 9, 59, 87
3, 65610, Note_on_c, 9, 59, 0
3, 65648, Note_on_c, 9, 36, 0
3, 65661, Note_on_c, 9, 59, 81
3, 65717, Note_on_c, 9, 59, 0
3, 65737, Note_on_c, 9, 40, 60
3, 65743, Note_on_c, 9, 59, 54
3, 65748, Note_on_c, 9, 40, 0
3, 65756, Note_on_c, 9, 59, 0
3, 65778, Note_on_c, 9, 59, 76
3, 65779, Note_on_c, 9, 40, 38
3, 65833, Note_on_c, 9, 59, 0
3, 65840, Note_on_c, 9, 40, 0
3, 65863, Note_on_c, 9, 36, 48
3, 65882, Note_on_c, 9, 36, 0
3, 65895, Note_on_c, 9, 59, 91
3, 65907, Note_on_c, 9, 36, 45
3, 65959, Note_on_c, 9, 36, 0
3, 65973, Note_on_c, 9, 59, 0
3, 65975, Note_on_c, 9, 36, 64
3, 66003, Note_on_c, 9, 36, 0
3, 66022, Note_on_c, 9, 59, 85
3, 66077, Note_on_c, 9, 59, 0
3, 66104, Note_on_c, 9, 59, 56
3, 66115, Note_on_c, 9, 59, 0
3, 66136, Note_on_c, 9, 59, 77
3, 66162, Note_on_c, 9, 59, 0
3, 66213, Note_on_c, 9, 59, 96
3, 66310, Note_on_c, 9, 59, 0
3, 66336, Note_on_c, 9, 59, 65
3, 66348, Note_on_c, 9, 59, 0
3, 66374, Note_on_c, 9, 40, 49
3, 66378, Note_on_c, 9, 59, 55
3, 66390, Note_on_c, 9, 59, 0
3, 66430, Note_on_c, 9, 40, 0
3, 66454, Note_on_c, 9, 59, 99
3, 66534, Note_on_c, 9, 59, 0
3, 66569, Note_on_c, 9, 59, 52
3, 66569, Note_on_c, 9, 40, 33
3, 66578, Note_on_c, 9, 40, 0
3, 66583, Note_on_c, 9, 59, 0
3, 66600, Note_on_c, 9, 36, 32
3, 66614, Note_on_c, 9, 59, 58
3, 66616, Note_on_c, 9, 36, 0
3, 66629, Note_on_c, 9, 59, 0
3, 66683, Note_on_c, 9, 59, 99
3, 66685, Note_on_c, 9, 36, 42
3, 66696, Note_on_c, 9, 36, 0
3, 66762, Note_on_c, 9, 59, 0
3, 66801, Note_on_c, 9, 59, 46
3, 66814, Note_on_c, 9, 59, 0
3, 66918, Note_on_c, 9, 59, 89
3, 66919, Note_on_c, 9, 40, 57
3, 66930, Note_on_c, 9, 40, 0
3, 66976, Note_on_c, 9, 59, 0
3, 67039, Note_on_c, 9, 59, 92
3, 67039, Note_on_c, 9, 36, 51
3, 67064, Note_on_c, 9, 36, 0
3, 67084, Note_on_c, 9, 59, 0
3, 67087, Note_on_c, 9, 36, 22
3, 67134, Note_on_c, 9, 36, 0
3, 67157, Note_on_c, 9, 36, 49
3, 67164, Note_on_c, 9, 59, 71
3, 67175, Note_on_c, 9, 59, 0
3, 67175, Note_on_c, 9, 36, 0
3, 67204, Note_on_c, 9, 59, 84
3, 67265, Note_on_c, 9, 59, 0
3, 67329, Note_on_c, 9, 59, 94
3, 67388, Note_on_c, 9, 59, 0
3, 67409, Note_on_c, 9, 40, 59
3, 67422, Note_on_c, 9, 40, 0
3, 67456, Note_on_c, 9, 59, 89
3, 67466, Note_on_c, 9, 36, 17
3, 67497, Note_on_c, 9, 59, 0
3, 67502, Note_on_c, 9, 36, 0
3, 67523, Note_on_c, 9, 36, 57
3, 67533, Note_on_c, 9, 59, 71
3, 67542, Note_on_c, 9, 36, 0
3, 67559, Note_on_c, 9, 59, 0
3, 67580, Note_on_c, 9, 59, 78
3, 67608, Note_on_c, 9, 59, 0
3, 67660, Note_on_c, 9, 59, 99
3, 67697, Note_on_c, 9, 40, 47
3, 67706, Note_on_c, 9, 40, 0
3, 67737, Note_on_c, 9, 59, 0
3, 67764, Note_on_c, 9, 59, 61
3, 67770, Note_on_c, 9, 40, 51
3, 67777, Note_on_c, 9, 59, 0
3, 67779, Note_on_c, 9, 40, 0
3, 67884, Note_on_c, 9, 36, 36
3, 67887, Note_on_c, 9, 59, 96
3, 67895, Note_on_c, 9, 36, 0
3, 67941, Note_on_c, 9, 59, 0
3, 67995, Note_on_c, 9, 59, 58
3, 68008, Note_on_c, 9, 59, 0
3, 68043, Note_on_c, 9, 59, 60
3, 68054, Note_on_c, 9, 59, 0
3, 68120, Note_on_c, 9, 36, 47
3, 68120, Note_on_c, 9, 59, 105
3, 68131, Note_on_c, 9, 36, 0
3, 68164, Note_on_c, 9, 59, 0
3, 68241, Note_on_c, 9, 59, 108
3, 68243, Note_on_c, 9, 36, 29
3, 68252, Note_on_c, 9, 36, 0
3, 68360, Note_on_c, 9, 36, 68
3, 68367, Note_on_c, 9, 59, 0
3, 68381, Note_on_c, 9, 36, 0
3, 68415, Note_on_c, 9, 59, 92
3, 68419, Note_on_c, 9, 36, 80
3, 68452, Note_on_c, 9, 36, 0
3, 68475, Note_on_c, 9, 59, 0
3, 68493, Note_on_c, 9, 36, 68
3, 68501, Note_on_c, 9, 59, 68
3, 68511, Note_on_c, 9, 36, 0
3, 68512, Note_on_c, 9, 59, 0
3, 68605, Note_on_c, 9, 36, 64
3, 68614, Note_on_c, 9, 59, 99
3, 68626, Note_on_c, 9, 36, 0
3, 68660, Note_on_c, 9, 36, 64
3, 68676, Note_on_c, 9, 59, 0
3, 68685, Note_on_c, 9, 36, 0
3, 68736, Note_on_c, 9, 59, 58
3, 68746, Note_on_c, 9, 37, 46
3, 68748, Note_on_c, 9, 59, 0
3, 68754, Note_on_c, 9, 37, 0
3, 68799, Note_on_c, 9, 37, 59
3, 68837, Note_on_c, 9, 37, 0
3, 68854, Note_on_c, 9, 59, 103
3, 68877, Note_on_c, 9, 36, 76
3, 68881, Note_on_c, 9, 40, 66
3, 68882, Note_on_c, 9, 57, 77
3, 68913, Note_on_c, 9, 59, 0
3, 68966, Note_on_c, 9, 59, 55
3, 68978, Note_on_c, 9, 59, 0
3, 69074, Note_on_c, 9, 57, 0
3, 69128, Note_on_c, 9, 36, 0
3, 69129, Note_on_c, 9, 40, 0
3, 69129, End_track
4, 0, Start_track
4, 0, MIDI_port, 0
4, 0, Title_t, ""
4, 0, Program_c, 0, 4
4, 6, Note_on_c, 0, 67, 65
4, 9, Note_on_c, 0, 64, 60
4, 10, Note_on_c, 0, 62, 62
4, 10, Note_on_c, 0, 58, 61
4, 286, Control_c, 0, 64, 127
4, 398, Note_on_c, 0, 62, 0
4, 399, Note_on_c, 0, 67, 0
4, 399, Note_on_c, 0, 64, 0
4, 399, Note_on_c, 0, 58, 0
4, 426, Control_c, 0, 64, 0
4, 446, Note_on_c, 0, 55, 71
4, 446, Note_on_c, 0, 67, 70
4, 447, Note_on_c, 0, 58, 70
4, 448, Note_on_c, 0, 62, 55
4, 453, Note_on_c, 0, 64, 32
4, 465, Note_on_c, 0, 64, 0
4, 468, Note_on_c, 0, 62, 0
4, 470, Note_on_c, 0, 58, 0
4, 471, Note_on_c, 0, 67, 0
4, 478, Note_on_c, 0, 55, 0
4, 483, Note_on_c, 0, 53, 55
4, 514, Note_on_c, 0, 53, 0
4, 518, Note_on_c, 0, 67, 67
4, 519, Note_on_c, 0, 62, 57
4, 520, Note_on_c, 0, 58, 57
4, 521, Note_on_c, 0, 55, 65
4, 523, Note_on_c, 0, 64, 46
4, 787, Note_on_c, 0, 67, 0
4, 788, Note_on_c, 0, 64, 0
4, 788, Note_on_c, 0, 58, 0
4, 792, Note_on_c, 0, 62, 0
4, 797, Control_c, 0, 64, 127
4, 798, Note_on_c, 0, 55, 0
4, 802, Note_on_c, 0, 53, 48
4, 808, Note_on_c, 0, 65, 44
4, 817, Note_on_c, 0, 65, 0
4, 829, Control_c, 0, 64, 0
4, 838, Note_on_c, 0, 53, 0
4, 841, Note_on_c, 0, 55, 57
4, 842, Note_on_c, 0, 67, 35
4, 846, Note_on_c, 0, 58, 21
4, 858, Note_on_c, 0, 67, 0
4, 867, Control_c, 0, 64, 127
4, 891, Note_on_c, 0, 58, 0
4, 900, Note_on_c, 0, 55, 0
4, 920, Note_on_c, 0, 57, 83
4, 921, Note_on_c, 0, 58, 77
4, 921, Note_on_c, 0, 69, 81
4, 921, Note_on_c, 0, 64, 71
4, 922, Note_on_c, 0, 61, 71
4, 926, Control_c, 0, 64, 0
4, 956, Note_on_c, 0, 57, 0
4, 957, Note_on_c, 0, 61, 0
4, 958, Note_on_c, 0, 58, 0
4, 958, Note_on_c, 0, 69, 0
4, 960, Note_on_c, 0, 64, 0
4, 1040, Note_on_c, 0, 67, 64
4, 1042, Note_on_c, 0, 61, 56
4, 1042, Note_on_c, 0, 55, 71
4, 1042, Note_on_c, 0, 58, 49
4, 1044, Note_on_c, 0, 64, 46
4, 1065, Note_on_c, 0, 64, 0
4, 1065, Note_on_c, 0, 67, 0
4, 1074, Note_on_c, 0, 58, 0
4, 1074, Note_on_c, 0, 55, 0
4, 1075, Note_on_c, 0, 61, 0
4, 1157, Note_on_c, 0, 64, 49
4, 1158, Note_on_c, 0, 55, 50
4, 1159, Note_on_c, 0, 58, 46
4, 1160, Note_on_c, 0, 61, 42
4, 1160, Note_on_c, 0, 52, 54
4, 1170, Note_on_c, 0, 55, 0
4, 1173, Note_on_c, 0, 52, 0
4, 1176, Note_on_c, 0, 64, 0
4, 1176, Note_on_c, 0, 58, 0
4, 1180, Note_on_c, 0, 61, 0
4, 1280, Note_on_c, 0, 64, 87
4, 1281, Note_on_c, 0, 58, 85
4, 1282, Note_on_c, 0, 69, 99
4, 1337, Control_c, 0, 64, 127
4, 1393, Note_on_c, 0, 64, 0
4, 1418, Note_on_c, 0, 69, 0
4, 1431, Note_on_c, 0, 58, 0
4, 1442, Control_c, 0, 64, 0
4, 1443, Note_on_c, 0, 67, 64
4, 1446, Note_on_c, 0, 62, 69
4, 1446, Note_on_c, 0, 57, 62
4, 1566, Control_c, 0, 64, 127
4, 1638, Control_c, 0, 64, 0
4, 1640, Note_on_c, 0, 81, 42
4, 1650, Note_on_c, 0, 81, 0
4, 1681, Note_on_c, 0, 88, 60
4, 1688, Note_on_c, 0, 88, 0
4, 1719, Note_on_c, 0, 67, 0
4, 1720, Note_on_c, 0, 62, 0
4, 1720, Note_on_c, 0, 93, 99
4, 1722, Note_on_c, 0, 57, 0
4, 1799, Note_on_c, 0, 66, 79
4, 1799, Note_on_c, 0, 61, 72
4, 1800, Note_on_c, 0, 55, 80
4, 1883, Note_on_c, 0, 93, 0
4, 2118, Note_on_c, 0, 55, 0
4, 2121, Note_on_c, 0, 93, 90
4, 2123, Note_on_c, 0, 81, 76
4, 2127, Note_on_c, 0, 61, 0
4, 2132, Note_on_c, 0, 81, 0
4, 2140, Note_on_c, 0, 93, 0
4, 2140, Note_on_c, 0, 66, 0
4, 2248, Note_on_c, 0, 69, 84
4, 2248, Note_on_c, 0, 91, 90
4, 2249, Note_on_c, 0, 64, 77
4, 2249, Note_on_c, 0, 79, 84
4, 2250, Note_on_c, 0, 58, 75
4, 2304, Control_c, 0, 64, 127
4, 2534, Note_on_c, 0, 91, 0
4, 2535, Note_on_c, 0, 79, 0
4, 2535, Note_on_c, 0, 69, 0
4, 2540, Note_on_c, 0, 58, 0
4, 2542, Note_on_c, 0, 64, 0
4, 2596, Note_on_c, 0, 69, 78
4, 2596, Note_on_c, 0, 58, 69
4, 2598, Note_on_c, 0, 64, 65
4, 2600, Note_on_c, 0, 91, 80
4, 2600, Note_on_c, 0, 79, 76
4, 2610, Note_on_c, 0, 69, 0
4, 2613, Note_on_c, 0, 58, 0
4, 2614, Note_on_c, 0, 91, 0
4, 2614, Note_on_c, 0, 79, 0
4, 2616, Note_on_c, 0, 64, 0
4, 2629, Control_c, 0, 64, 0
4, 2640, Note_on_c, 0, 69, 68
4, 2640, Note_on_c, 0, 64, 58
4, 2640, Note_on_c, 0, 58, 59
4, 2642, Note_on_c, 0, 79, 66
4, 2642, Note_on_c, 0, 91, 74
4, 2651, Note_on_c, 0, 69, 0
4, 2654, Note_on_c, 0, 58, 0
4, 2656, Note_on_c, 0, 64, 0
4, 2656, Note_on_c, 0, 79, 0
4, 2656, Note_on_c, 0, 91, 0
4, 2713, Control_c, 0, 64, 127
4, 2719, Note_on_c, 0, 64, 59
4, 2720, Note_on_c, 0, 77, 48
4, 2722, Note_on_c, 0, 89, 47
4, 2723, Note_on_c, 0, 79, 34
4, 2723, Note_on_c, 0, 69, 30
4, 2724, Note_on_c, 0, 91, 36
4, 2727, Note_on_c, 0, 64, 0
4, 2728, Note_on_c, 0, 77, 0
4, 2729, Note_on_c, 0, 89, 0
4, 2730, Note_on_c, 0, 79, 0
4, 2731, Note_on_c, 0, 69, 0
4, 2731, Note_on_c, 0, 91, 0
4, 2741, Control_c, 0, 64, 0
4, 2751, Note_on_c, 0, 64, 64
4, 2752, Note_on_c, 0, 69, 66
4, 2754, Note_on_c, 0, 58, 67
4, 2756, Note_on_c, 0, 79, 67
4, 2756, Note_on_c, 0, 91, 74
4, 2773, Control_c, 0, 64, 127
4, 2777, Note_on_c, 0, 69, 0
4, 2789, Note_on_c, 0, 64, 0
4, 2812, Note_on_c, 0, 79, 0
4, 2814, Note_on_c, 0, 58, 0
4, 2817, Note_on_c, 0, 91, 0
4, 2840, Note_on_c, 0, 66, 91
4, 2841, Note_on_c, 0, 55, 90
4, 2842, Note_on_c, 0, 93, 92
4, 2842, Note_on_c, 0, 61, 71
4, 2842, Note_on_c, 0, 81, 88
4, 2849, Control_c, 0, 64, 0
4, 2898, Control_c, 0, 64, 127
4, 3019, Note_on_c, 0, 55, 0
4, 3030, Note_on_c, 0, 66, 0
4, 3036, Note_on_c, 0, 61, 0
4, 3077, Note_on_c, 0, 62, 87
4, 3078, Note_on_c, 0, 57, 83
4, 3078, Note_on_c, 0, 67, 90
4, 3080, Control_c, 0, 64, 0
4, 3114, Control_c, 0, 64, 127
4, 3169, Note_on_c, 0, 57, 0
4, 3179, Note_on_c, 0, 62, 0
4, 3184, Note_on_c, 0, 67, 0
4, 3236, Control_c, 0, 64, 0
4, 3247, Note_on_c, 0, 66, 78
4, 3248, Note_on_c, 0, 55, 80
4, 3249, Note_on_c, 0, 61, 67
4, 3266, Note_on_c, 0, 93, 0
4, 3274, Note_on_c, 0, 81, 0
4, 3369, Control_c, 0, 64, 127
4, 3383, Note_on_c, 0, 55, 0
4, 3390, Note_on_c, 0, 61, 0
4, 3402, Note_on_c, 0, 66, 0
4, 3439, Note_on_c, 0, 69, 83
4, 3440, Note_on_c, 0, 58, 74
4, 3441, Note_on_c, 0, 64, 79
4, 3453, Control_c, 0, 64, 0
4, 3491, Control_c, 0, 64, 127
4, 3546, Note_on_c, 0, 64, 0
4, 3584, Note_on_c, 0, 69, 0
4, 3596, Note_on_c, 0, 58, 0
4, 3672, Note_on_c, 0, 66, 65
4, 3675, Note_on_c, 0, 55, 63
4, 3675, Note_on_c, 0, 61, 50
4, 3690, Control_c, 0, 64, 0
4, 3716, Control_c, 0, 64, 127
4, 3747, Note_on_c, 0, 66, 0
4, 3751, Note_on_c, 0, 55, 0
4, 3775, Note_on_c, 0, 61, 0
4, 3836, Note_on_c, 0, 81, 50
4, 3837, Note_on_c, 0, 75, 53
4, 3837, Note_on_c, 0, 63, 52
4, 3837, Note_on_c, 0, 69, 45
4, 3839, Note_on_c, 0, 53, 43
4, 3840, Note_on_c, 0, 58, 38
4, 3842, Control_c, 0, 64, 0
4, 3900, Control_c, 0, 64, 127
4, 3960, Note_on_c, 0, 81, 0
4, 3964, Note_on_c, 0, 63, 0
4, 3968, Note_on_c, 0, 75, 0
4, 3977, Note_on_c, 0, 69, 0
4, 4049, Note_on_c, 0, 58, 0
4, 4072, Note_on_c, 0, 53, 0
4, 4172, Note_on_c, 0, 78, 71
4, 4174, Note_on_c, 0, 63, 74
4, 4174, Note_on_c, 0, 69, 87
4, 4174, Note_on_c, 0, 60, 62
4, 4174, Note_on_c, 0, 81, 78
4, 4174, Note_on_c, 0, 58, 39
4, 4174, Note_on_c, 0, 74, 67
4, 4176, Control_c, 0, 64, 0
4, 4176, Note_on_c, 0, 53, 41
4, 4181, Note_on_c, 0, 60, 0
4, 4184, Note_on_c, 0, 69, 0
4, 4185, Note_on_c, 0, 53, 0
4, 4186, Note_on_c, 0, 74, 0
4, 4187, Note_on_c, 0, 63, 0
4, 4188, Note_on_c, 0, 78, 0
4, 4192, Note_on_c, 0, 81, 0
4, 4195, Note_on_c, 0, 58, 0
4, 4234, Control_c, 0, 64, 127
4, 4249, Note_on_c, 0, 63, 69
4, 4250, Note_on_c, 0, 78, 70
4, 4252, Note_on_c, 0, 81, 78
4, 4252, Note_on_c, 0, 74, 66
4, 4253, Note_on_c, 0, 60, 47
4, 4253, Note_on_c, 0, 69, 78
4, 4253, Note_on_c, 0, 58, 38
4, 4259, Note_on_c, 0, 60, 0
4, 4273, Note_on_c, 0, 74, 0
4, 4278, Note_on_c, 0, 69, 0
4, 4278, Note_on_c, 0, 63, 0
4, 4278, Note_on_c, 0, 58, 0
4, 4291, Note_on_c, 0, 81, 0
4, 4295, Note_on_c, 0, 78, 0
4, 4332, Control_c, 0, 64, 0
4, 4332, Note_on_c, 0, 81, 80
4, 4332, Note_on_c, 0, 75, 81
4, 4333, Note_on_c, 0, 70, 75
4, 4333, Note_on_c, 0, 58, 77
4, 4334, Note_on_c, 0, 63, 71
4, 4335, Note_on_c, 0, 67, 71
4, 4382, Control_c, 0, 64, 127
4, 4458, Note_on_c, 0, 67, 0
4, 4470, Note_on_c, 0, 70, 0
4, 4492, Note_on_c, 0, 58, 0
4, 4500, Note_on_c, 0, 81, 0
4, 4510, Note_on_c, 0, 63, 0
4, 4514, Note_on_c, 0, 75, 0
4, 4572, Note_on_c, 0, 63, 75
4, 4573, Control_c, 0, 64, 0
4, 4574, Note_on_c, 0, 79, 72
4, 4574, Note_on_c, 0, 75, 77
4, 4574, Note_on_c, 0, 67, 69
4, 4574, Note_on_c, 0, 57, 73
4, 4576, Note_on_c, 0, 69, 74
4, 4588, Note_on_c, 0, 67, 0
4, 4593, Note_on_c, 0, 57, 0
4, 4596, Note_on_c, 0, 69, 0
4, 4605, Note_on_c, 0, 63, 0
4, 4605, Note_on_c, 0, 75, 0
4, 4608, Note_on_c, 0, 79, 0
4, 4694, Note_on_c, 0, 66, 71
4, 4695, Note_on_c, 0, 63, 59
4, 4697, Note_on_c, 0, 61, 49
4, 4697, Note_on_c, 0, 57, 61
4, 4697, Note_on_c, 0, 75, 74
4, 4697, Note_on_c, 0, 81, 73
4, 4699, Note_on_c, 0, 69, 76
4, 4727, Note_on_c, 0, 69, 0
4, 4732, Note_on_c, 0, 57, 0
4, 4734, Note_on_c, 0, 66, 0
4, 4737, Note_on_c, 0, 75, 0
4, 4739, Note_on_c, 0, 81, 0
4, 4743, Note_on_c, 0, 63, 0
4, 4745, Note_on_c, 0, 61, 0
4, 4819, Note_on_c, 0, 62, 64
4, 4821, Note_on_c, 0, 65, 74
4, 4822, Note_on_c, 0, 60, 60
4, 4822, Note_on_c, 0, 55, 66
4, 4823, Note_on_c, 0, 84, 83
4, 4824, Note_on_c, 0, 74, 74
4, 4824, Note_on_c, 0, 77, 76
4, 4896, Control_c, 0, 64, 127
4, 4944, Note_on_c, 0, 84, 0
4, 4950, Note_on_c, 0, 77, 0
4, 4954, Note_on_c, 0, 74, 0
4, 4964, Note_on_c, 0, 65, 0
4, 4973, Note_on_c, 0, 62, 0
4, 4973, Note_on_c, 0, 60, 0
4, 4974, Note_on_c, 0, 55, 0
4, 5004, Control_c, 0, 64, 0
4, 5012, Note_on_c, 0, 73, 77
4, 5013, Note_on_c, 0, 62, 71
4, 5013, Note_on_c, 0, 65, 79
4, 5014, Note_on_c, 0, 55, 75
4, 5014, Note_on_c, 0, 69, 71
4, 5015, Note_on_c, 0, 77, 58
4, 5015, Note_on_c, 0, 81, 68
4, 5015, Note_on_c, 0, 60, 68
4, 5022, Note_on_c, 0, 79, 35
4, 5044, Note_on_c, 0, 65, 0
4, 5047, Note_on_c, 0, 73, 0
4, 5047, Note_on_c, 0, 74, 47
4, 5051, Note_on_c, 0, 55, 0
4, 5055, Note_on_c, 0, 62, 0
4, 5055, Note_on_c, 0, 60, 0
4, 5057, Note_on_c, 0, 69, 0
4, 5063, Note_on_c, 0, 81, 0
4, 5063, Note_on_c, 0, 79, 0
4, 5066, Note_on_c, 0, 77, 0
4, 5068, Note_on_c, 0, 74, 0
4, 5084, Note_on_c, 0, 79, 52
4, 5085, Note_on_c, 0, 55, 59
4, 5085, Note_on_c, 0, 65, 68
4, 5085, Note_on_c, 0, 62, 45
4, 5086, Note_on_c, 0, 74, 53
4, 5087, Note_on_c, 0, 60, 59
4, 5089, Note_on_c, 0, 67, 48
4, 5128, Note_on_c, 0, 67, 0
4, 5128, Note_on_c, 0, 65, 0
4, 5129, Note_on_c, 0, 74, 0
4, 5130, Note_on_c, 0, 62, 0
4, 5133, Note_on_c, 0, 79, 0
4, 5134, Note_on_c, 0, 55, 0
4, 5135, Note_on_c, 0, 60, 0
4, 5260, Note_on_c, 0, 72, 71
4, 5260, Note_on_c, 0, 65, 80
4, 5262, Note_on_c, 0, 61, 80
4, 5263, Note_on_c, 0, 69, 62
4, 5264, Note_on_c, 0, 60, 62
4, 5264, Note_on_c, 0, 59, 66
4, 5285, Note_on_c, 0, 59, 0
4, 5288, Note_on_c, 0, 60, 0
4, 5297, Note_on_c, 0, 72, 0
4, 5298, Note_on_c, 0, 69, 0
4, 5304, Note_on_c, 0, 65, 0
4, 5305, Note_on_c, 0, 61, 0
4, 5377, Note_on_c, 0, 39, 60
4, 5382, Note_on_c, 0, 46, 33
4, 5386, Note_on_c, 0, 38, 35
4, 5394, Note_on_c, 0, 38, 0
4, 5403, Note_on_c, 0, 46, 0
4, 5403, Note_on_c, 0, 39, 0
4, 5494, Note_on_c, 0, 54, 47
4, 5501, Note_on_c, 0, 61, 81
4, 5501, Note_on_c, 0, 55, 77
4, 5502, Note_on_c, 0, 69, 77
4, 5502, Note_on_c, 0, 65, 70
4, 5505, Note_on_c, 0, 54, 0
4, 5608, Control_c, 0, 64, 127
4, 5612, Note_on_c, 0, 55, 0
4, 5619, Note_on_c, 0, 51, 64
4, 5636, Note_on_c, 0, 51, 0
4, 5650, Control_c, 0, 64, 0
4, 5651, Note_on_c, 0, 69, 0
4, 5656, Note_on_c, 0, 54, 72
4, 5657, Note_on_c, 0, 44, 67
4, 5660, Note_on_c, 0, 61, 0
4, 5676, Note_on_c, 0, 65, 0
4, 5714, Control_c, 0, 64, 127
4, 5718, Note_on_c, 0, 54, 0
4, 5729, Note_on_c, 0, 44, 0
4, 5730, Control_c, 0, 64, 0
4, 5736, Note_on_c, 0, 70, 64
4, 5737, Note_on_c, 0, 43, 66
4, 5739, Note_on_c, 0, 53, 63
4, 5739, Note_on_c, 0, 58, 61
4, 5740, Note_on_c, 0, 62, 68
4, 5784, Note_on_c, 0, 43, 0
4, 5788, Control_c, 0, 64, 127
4, 5969, Note_on_c, 0, 53, 0
4, 5979, Note_on_c, 0, 58, 0
4, 5982, Note_on_c, 0, 62, 0
4, 5984, Note_on_c, 0, 54, 27
4, 5986, Note_on_c, 0, 70, 0
4, 6000, Note_on_c, 0, 54, 0
4, 6010, Note_on_c, 0, 57, 77
4, 6011, Control_c, 0, 64, 0
4, 6011, Note_on_c, 0, 70, 74
4, 6011, Note_on_c, 0, 58, 75
4, 6013, Note_on_c, 0, 62, 57
4, 6016, Note_on_c, 0, 65, 65
4, 6049, Note_on_c, 0, 65, 0
4, 6056, Note_on_c, 0, 58, 0
4, 6056, Note_on_c, 0, 62, 0
4, 6063, Note_on_c, 0, 70, 0
4, 6064, Note_on_c, 0, 57, 0
4, 6130, Note_on_c, 0, 55, 71
4, 6131, Note_on_c, 0, 69, 75
4, 6132, Note_on_c, 0, 62, 71
4, 6133, Note_on_c, 0, 58, 63
4, 6172, Note_on_c, 0, 55, 0
4, 6174, Note_on_c, 0, 58, 0
4, 6177, Note_on_c, 0, 62, 0
4, 6181, Note_on_c, 0, 69, 0
4, 6249, Note_on_c, 0, 48, 64
4, 6251, Note_on_c, 0, 62, 58
4, 6251, Note_on_c, 0, 55, 59
4, 6252, Note_on_c, 0, 58, 53
4, 6255, Note_on_c, 0, 65, 55
4, 6268, Control_c, 0, 64, 127
4, 6310, Note_on_c, 0, 58, 0
4, 6324, Note_on_c, 0, 65, 0
4, 6325, Note_on_c, 0, 62, 0
4, 6329, Note_on_c, 0, 55, 0
4, 6332, Note_on_c, 0, 57, 62
4, 6333, Note_on_c, 0, 62, 30
4, 6333, Note_on_c, 0, 58, 62
4, 6334, Note_on_c, 0, 67, 57
4, 6355, Note_on_c, 0, 62, 0
4, 6355, Note_on_c, 0, 57, 0
4, 6356, Note_on_c, 0, 58, 0
4, 6360, Control_c, 0, 64, 0
4, 6362, Note_on_c, 0, 67, 0
4, 6370, Note_on_c, 0, 55, 35
4, 6402, Control_c, 0, 64, 127
4, 6416, Note_on_c, 0, 48, 0
4, 6440, Note_on_c, 0, 55, 0
4, 6449, Note_on_c, 0, 61, 72
4, 6449, Note_on_c, 0, 48, 62
4, 6450, Note_on_c, 0, 69, 65
4, 6450, Note_on_c, 0, 64, 68
4, 6452, Note_on_c, 0, 58, 70
4, 6454, Control_c, 0, 64, 0
4, 6458, Note_on_c, 0, 48, 0
4, 6465, Note_on_c, 0, 61, 0
4, 6468, Note_on_c, 0, 58, 0
4, 6470, Note_on_c, 0, 64, 0
4, 6477, Note_on_c, 0, 69, 0
4, 6509, Control_c, 0, 64, 127
4, 6564, Note_on_c, 0, 73, 87
4, 6564, Note_on_c, 0, 81, 80
4, 6564, Note_on_c, 0, 76, 72
4, 6565, Note_on_c, 0, 58, 81
4, 6566, Note_on_c, 0, 69, 89
4, 6567, Control_c, 0, 64, 0
4, 6567, Note_on_c, 0, 64, 90
4, 6570, Note_on_c, 0, 79, 49
4, 6601, Control_c, 0, 64, 127
4, 6630, Note_on_c, 0, 81, 0
4, 6637, Note_on_c, 0, 64, 0
4, 6637, Note_on_c, 0, 76, 0
4, 6638, Note_on_c, 0, 79, 0
4, 6647, Note_on_c, 0, 73, 0
4, 6653, Note_on_c, 0, 69, 0
4, 6683, Note_on_c, 0, 56, 47
4, 6702, Note_on_c, 0, 58, 0
4, 6716, Note_on_c, 0, 56, 0
4, 6719, Note_on_c, 0, 72, 62
4, 6720, Note_on_c, 0, 67, 63
4, 6720, Note_on_c, 0, 62, 65
4, 6720, Note_on_c, 0, 57, 67
4, 6725, Control_c, 0, 64, 0
4, 6790, Note_on_c, 0, 62, 0
4, 6790, Note_on_c, 0, 72, 0
4, 6793, Note_on_c, 0, 67, 0
4, 6803, Note_on_c, 0, 57, 0
4, 6811, Note_on_c, 0, 56, 46
4, 6837, Note_on_c, 0, 57, 78
4, 6837, Note_on_c, 0, 72, 76
4, 6838, Note_on_c, 0, 62, 79
4, 6839, Note_on_c, 0, 67, 63
4, 6845, Note_on_c, 0, 56, 0
4, 6886, Note_on_c, 0, 67, 0
4, 6890, Note_on_c, 0, 62, 0
4, 6897, Note_on_c, 0, 72, 0
4, 6914, Control_c, 0, 64, 127
4, 6920, Note_on_c, 0, 57, 0
4, 6925, Note_on_c, 0, 56, 38
4, 6932, Control_c, 0, 64, 0
4, 6952, Note_on_c, 0, 56, 0
4, 6954, Note_on_c, 0, 72, 66
4, 6954, Note_on_c, 0, 62, 69
4, 6954, Note_on_c, 0, 57, 60
4, 6955, Note_on_c, 0, 67, 64
4, 6969, Control_c, 0, 64, 127
4, 6981, Note_on_c, 0, 57, 0
4, 7003, Note_on_c, 0, 72, 0
4, 7005, Note_on_c, 0, 67, 0
4, 7016, Note_on_c, 0, 62, 0
4, 7054, Note_on_c, 0, 49, 23
4, 7067, Note_on_c, 0, 67, 63
4, 7068, Note_on_c, 0, 49, 0
4, 7068, Note_on_c, 0, 51, 42
4, 7069, Note_on_c, 0, 52, 65
4, 7070, Note_on_c, 0, 57, 73
4, 7070, Note_on_c, 0, 62, 61
4, 7071, Control_c, 0, 64, 0
4, 7075, Note_on_c, 0, 51, 0
4, 7154, Note_on_c, 0, 62, 0
4, 7155, Note_on_c, 0, 57, 0
4, 7158, Note_on_c, 0, 52, 0
4, 7159, Note_on_c, 0, 67, 0
4, 7160, Note_on_c, 0, 51, 39
4, 7184, Note_on_c, 0, 51, 0
4, 7189, Note_on_c, 0, 67, 49
4, 7190, Note_on_c, 0, 52, 63
4, 7192, Note_on_c, 0, 57, 56
4, 7192, Note_on_c, 0, 62, 60
4, 7270, Note_on_c, 0, 62, 0
4, 7270, Note_on_c, 0, 57, 0
4, 7270, Note_on_c, 0, 52, 0
4, 7272, Note_on_c, 0, 67, 0
4, 7274, Note_on_c, 0, 51, 48
4, 7298, Note_on_c, 0, 51, 0
4, 7308, Note_on_c, 0, 67, 58
4, 7310, Note_on_c, 0, 57, 58
4, 7310, Note_on_c, 0, 52, 50
4, 7311, Note_on_c, 0, 62, 53
4, 7331, Control_c, 0, 64, 127
4, 7383, Note_on_c, 0, 52, 0
4, 7394, Note_on_c, 0, 41, 82
4, 7399, Control_c, 0, 64, 0
4, 7472, Control_c, 0, 64, 127
4, 7551, Note_on_c, 0, 41, 0
4, 7592, Note_on_c, 0, 57, 0
4, 7640, Note_on_c, 0, 62, 0
4, 7652, Note_on_c, 0, 67, 0
4, 7678, Control_c, 0, 64, 0
4, 7681, Note_on_c, 0, 52, 105
4, 7681, Note_on_c, 0, 45, 101
4, 7732, Control_c, 0, 64, 127
4, 7767, Note_on_c, 0, 45, 0
4, 7775, Note_on_c, 0, 52, 0
4, 8000, Note_on_c, 0, 64, 72
4, 8000, Note_on_c, 0, 69, 80
4, 8000, Note_on_c, 0, 58, 71
4, 8005, Control_c, 0, 64, 0
4, 8033, Control_c, 0, 64, 127
4, 8258, Note_on_c, 0, 88, 105
4, 8269, Note_on_c, 0, 88, 0
4, 8280, Control_c, 0, 64, 0
4, 8361, Note_on_c, 0, 88, 108
4, 8392, Control_c, 0, 64, 127
4, 8526, Note_on_c, 0, 69, 0
4, 8535, Note_on_c, 0, 64, 0
4, 8535, Note_on_c, 0, 58, 0
4, 8564, Note_on_c, 0, 88, 0
4, 8569, Note_on_c, 0, 86, 35
4, 8581, Note_on_c, 0, 86, 0
4, 8605, Note_on_c, 0, 88, 55
4, 8623, Note_on_c, 0, 88, 0
4, 8633, Control_c, 0, 64, 0
4, 8642, Note_on_c, 0, 45, 83
4, 8646, Note_on_c, 0, 93, 90
4, 8673, Note_on_c, 0, 45, 0
4, 8673, Control_c, 0, 64, 127
4, 8840, Note_on_c, 0, 61, 73
4, 8840, Note_on_c, 0, 55, 80
4, 8841, Note_on_c, 0, 66, 77
4, 8853, Control_c, 0, 64, 0
4, 8912, Control_c, 0, 64, 127
4, 8944, Note_on_c, 0, 93, 0
4, 8965, Note_on_c, 0, 91, 81
4, 8970, Control_c, 0, 64, 0
4, 8999, Note_on_c, 0, 91, 0
4, 9034, Note_on_c, 0, 88, 80
4, 9060, Control_c, 0, 64, 127
4, 9079, Note_on_c, 0, 88, 0
4, 9094, Note_on_c, 0, 55, 0
4, 9098, Control_c, 0, 64, 0
4, 9102, Note_on_c, 0, 61, 0
4, 9108, Note_on_c, 0, 66, 0
4, 9198, Note_on_c, 0, 64, 72
4, 9198, Note_on_c, 0, 69, 84
4, 9199, Note_on_c, 0, 58, 74
4, 9211, Note_on_c, 0, 69, 0
4, 9218, Note_on_c, 0, 64, 0
4, 9221, Note_on_c, 0, 58, 0
4, 9288, Control_c, 0, 64, 127
4, 9326, Note_on_c, 0, 50, 40
4, 9334, Note_on_c, 0, 50, 0
4, 9359, Control_c, 0, 64, 0
4, 9365, Note_on_c, 0, 61, 83
4, 9365, Note_on_c, 0, 66, 77
4, 9366, Note_on_c, 0, 55, 84
4, 9525, Control_c, 0, 64, 127
4, 9559, Control_c, 0, 64, 0
4, 9583, Control_c, 0, 64, 127
4, 9617, Note_on_c, 0, 55, 0
4, 9690, Note_on_c, 0, 61, 0
4, 9712, Note_on_c, 0, 66, 0
4, 9770, Control_c, 0, 64, 0
4, 9775, Note_on_c, 0, 52, 64
4, 9775, Note_on_c, 0, 58, 68
4, 9777, Note_on_c, 0, 63, 71
4, 9800, Control_c, 0, 64, 127
4, 9810, Note_on_c, 0, 52, 0
4, 9825, Note_on_c, 0, 58, 0
4, 9826, Note_on_c, 0, 63, 0
4, 9841, Control_c, 0, 64, 0
4, 9847, Note_on_c, 0, 54, 64
4, 9853, Note_on_c, 0, 66, 69
4, 9854, Note_on_c, 0, 61, 49
4, 9860, Note_on_c, 0, 54, 0
4, 9862, Control_c, 0, 64, 127
4, 9864, Note_on_c, 0, 55, 60
4, 9883, Note_on_c, 0, 55, 0
4, 9890, Note_on_c, 0, 61, 0
4, 9894, Note_on_c, 0, 66, 0
4, 9927, Note_on_c, 0, 69, 82
4, 9927, Note_on_c, 0, 58, 74
4, 9927, Note_on_c, 0, 64, 69
4, 9934, Control_c, 0, 64, 0
4, 9940, Note_on_c, 0, 69, 0
4, 9946, Note_on_c, 0, 58, 0
4, 9950, Note_on_c, 0, 64, 0
4, 10045, Note_on_c, 0, 72, 81
4, 10045, Note_on_c, 0, 84, 88
4, 10058, Note_on_c, 0, 84, 0
4, 10058, Note_on_c, 0, 72, 0
4, 10131, Control_c, 0, 64, 127
4, 10155, Control_c, 0, 64, 0
4, 10162, Note_on_c, 0, 81, 81
4, 10164, Note_on_c, 0, 69, 80
4, 10167, Note_on_c, 0, 63, 61
4, 10170, Note_on_c, 0, 58, 42
4, 10177, Note_on_c, 0, 58, 0
4, 10178, Note_on_c, 0, 63, 0
4, 10211, Control_c, 0, 64, 127
4, 10282, Note_on_c, 0, 81, 0
4, 10286, Note_on_c, 0, 63, 29
4, 10288, Note_on_c, 0, 58, 36
4, 10292, Note_on_c, 0, 63, 0
4, 10294, Note_on_c, 0, 69, 0
4, 10296, Note_on_c, 0, 58, 0
4, 10314, Control_c, 0, 64, 0
4, 10321, Note_on_c, 0, 79, 81
4, 10324, Note_on_c, 0, 67, 82
4, 10370, Control_c, 0, 64, 127
4, 10376, Note_on_c, 0, 67, 0
4, 10380, Note_on_c, 0, 79, 0
4, 10405, Note_on_c, 0, 63, 47
4, 10405, Note_on_c, 0, 77, 34
4, 10406, Note_on_c, 0, 65, 45
4, 10409, Note_on_c, 0, 58, 37
4, 10412, Note_on_c, 0, 63, 0
4, 10413, Note_on_c, 0, 65, 0
4, 10414, Note_on_c, 0, 77, 0
4, 10417, Note_on_c, 0, 58, 0
4, 10422, Control_c, 0, 64, 0
4, 10442, Note_on_c, 0, 79, 69
4, 10442, Note_on_c, 0, 67, 66
4, 10454, Control_c, 0, 64, 127
4, 10486, Note_on_c, 0, 67, 0
4, 10495, Note_on_c, 0, 79, 0
4, 10527, Note_on_c, 0, 81, 80
4, 10527, Note_on_c, 0, 66, 76
4, 10528, Note_on_c, 0, 55, 78
4, 10528, Note_on_c, 0, 61, 64
4, 10528, Note_on_c, 0, 77, 71
4, 10529, Note_on_c, 0, 69, 80
4, 10538, Control_c, 0, 64, 0
4, 10556, Note_on_c, 0, 69, 0
4, 10570, Note_on_c, 0, 77, 0
4, 10571, Note_on_c, 0, 81, 0
4, 10571, Note_on_c, 0, 69, 38
4, 10578, Note_on_c, 0, 61, 0
4, 10582, Note_on_c, 0, 66, 0
4, 10582, Control_c, 0, 64, 127
4, 10595, Note_on_c, 0, 81, 19
4, 10597, Note_on_c, 0, 69, 0
4, 10603, Note_on_c, 0, 77, 33
4, 10618, Note_on_c, 0, 77, 0
4, 10618, Note_on_c, 0, 61, 33
4, 10618, Note_on_c, 0, 69, 47
4, 10621, Note_on_c, 0, 81, 0
4, 10624, Note_on_c, 0, 66, 34
4, 10641, Note_on_c, 0, 81, 25
4, 10647, Note_on_c, 0, 69, 0
4, 10647, Note_on_c, 0, 77, 45
4, 10656, Note_on_c, 0, 77, 0
4, 10657, Note_on_c, 0, 66, 0
4, 10658, Note_on_c, 0, 81, 0
4, 10659, Note_on_c, 0, 55, 0
4, 10661, Note_on_c, 0, 61, 0
4, 10672, Control_c, 0, 64, 0
4, 10762, Note_on_c, 0, 66, 55
4, 10762, Note_on_c, 0, 61, 55
4, 10762, Note_on_c, 0, 55, 49
4, 10769, Note_on_c, 0, 66, 0
4, 10771, Note_on_c, 0, 55, 0
4, 10777, Note_on_c, 0, 61, 0
4, 10832, Note_on_c, 0, 67, 65
4, 10832, Note_on_c, 0, 62, 64
4, 10835, Note_on_c, 0, 56, 49
4, 10878, Note_on_c, 0, 67, 0
4, 10881, Note_on_c, 0, 62, 0
4, 10892, Note_on_c, 0, 56, 0
4, 10919, Note_on_c, 0, 66, 65
4, 10921, Note_on_c, 0, 55, 68
4, 10921, Note_on_c, 0, 61, 55
4, 11010, Note_on_c, 0, 89, 89
4, 11010, Note_on_c, 0, 77, 87
4, 11104, Control_c, 0, 64, 127
4, 11192, Note_on_c, 0, 55, 0
4, 11200, Note_on_c, 0, 61, 0
4, 11205, Note_on_c, 0, 66, 0
4, 11238, Note_on_c, 0, 66, 59
4, 11240, Note_on_c, 0, 61, 55
4, 11242, Note_on_c, 0, 55, 48
4, 11248, Note_on_c, 0, 66, 0
4, 11248, Control_c, 0, 64, 0
4, 11249, Note_on_c, 0, 55, 0
4, 11253, Note_on_c, 0, 61, 0
4, 11332, Note_on_c, 0, 89, 0
4, 11362, Note_on_c, 0, 88, 87
4, 11366, Note_on_c, 0, 61, 59
4, 11381, Note_on_c, 0, 61, 0
4, 11381, Note_on_c, 0, 77, 0
4, 11407, Note_on_c, 0, 88, 0
4, 11426, Note_on_c, 0, 87, 51
4, 11481, Note_on_c, 0, 87, 0
4, 11491, Note_on_c, 0, 82, 69
4, 11492, Note_on_c, 0, 63, 55
4, 11493, Note_on_c, 0, 58, 43
4, 11502, Note_on_c, 0, 53, 29
4, 11530, Note_on_c, 0, 82, 0
4, 11547, Note_on_c, 0, 81, 48
4, 11602, Note_on_c, 0, 81, 0
4, 11636, Note_on_c, 0, 53, 0
4, 11642, Note_on_c, 0, 81, 79
4, 11788, Note_on_c, 0, 58, 0
4, 11796, Note_on_c, 0, 63, 0
4, 11839, Note_on_c, 0, 81, 0
4, 11851, Note_on_c, 0, 80, 45
4, 11860, Note_on_c, 0, 63, 38
4, 11864, Note_on_c, 0, 58, 33
4, 11869, Note_on_c, 0, 63, 0
4, 11879, Note_on_c, 0, 80, 0
4, 11884, Note_on_c, 0, 58, 0
4, 11892, Note_on_c, 0, 81, 63
4, 11953, Note_on_c, 0, 81, 0
4, 11972, Note_on_c, 0, 58, 67
4, 11972, Note_on_c, 0, 81, 77
4, 11973, Note_on_c, 0, 63, 62
4, 11974, Note_on_c, 0, 67, 60
4, 12122, Note_on_c, 0, 81, 0
4, 12130, Note_on_c, 0, 80, 57
4, 12172, Note_on_c, 0, 67, 0
4, 12196, Note_on_c, 0, 63, 0
4, 12201, Note_on_c, 0, 58, 0
4, 12201, Control_c, 0, 64, 127
4, 12202, Note_on_c, 0, 80, 0
4, 12216, Note_on_c, 0, 81, 63
4, 12239, Note_on_c, 0, 81, 0
4, 12245, Control_c, 0, 64, 0
4, 12251, Note_on_c, 0, 63, 73
4, 12251, Note_on_c, 0, 57, 79
4, 12252, Note_on_c, 0, 67, 74
4, 12253, Note_on_c, 0, 84, 90
4, 12254, Note_on_c, 0, 72, 88
4, 12307, Control_c, 0, 64, 127
4, 12325, Note_on_c, 0, 67, 0
4, 12336, Note_on_c, 0, 72, 0
4, 12338, Note_on_c, 0, 84, 0
4, 12338, Note_on_c, 0, 57, 0
4, 12349, Note_on_c, 0, 63, 0
4, 12359, Control_c, 0, 64, 0
4, 12371, Note_on_c, 0, 63, 46
4, 12374, Note_on_c, 0, 61, 49
4, 12375, Note_on_c, 0, 66, 51
4, 12375, Note_on_c, 0, 56, 49
4, 12383, Note_on_c, 0, 82, 36
4, 12434, Note_on_c, 0, 66, 0
4, 12438, Control_c, 0, 64, 127
4, 12441, Note_on_c, 0, 56, 0
4, 12441, Note_on_c, 0, 82, 0
4, 12444, Note_on_c, 0, 63, 0
4, 12445, Note_on_c, 0, 61, 0
4, 12458, Note_on_c, 0, 62, 46
4, 12460, Note_on_c, 0, 65, 68
4, 12460, Note_on_c, 0, 84, 82
4, 12462, Control_c, 0, 64, 0
4, 12462, Note_on_c, 0, 60, 41
4, 12462, Note_on_c, 0, 55, 62
4, 12463, Note_on_c, 0, 72, 74
4, 12502, Control_c, 0, 64, 127
4, 12537, Note_on_c, 0, 84, 0
4, 12554, Note_on_c, 0, 60, 0
4, 12566, Note_on_c, 0, 62, 0
4, 12567, Note_on_c, 0, 72, 0
4, 12569, Note_on_c, 0, 65, 0
4, 12576, Note_on_c, 0, 55, 0
4, 12614, Note_on_c, 0, 73, 79
4, 12616, Note_on_c, 0, 69, 80
4, 12617, Note_on_c, 0, 62, 60
4, 12617, Note_on_c, 0, 81, 65
4, 12619, Note_on_c, 0, 65, 71
4, 12620, Control_c, 0, 64, 0
4, 12620, Note_on_c, 0, 77, 52
4, 12620, Note_on_c, 0, 55, 60
4, 12621, Note_on_c, 0, 60, 59
4, 12646, Note_on_c, 0, 73, 0
4, 12650, Note_on_c, 0, 74, 24
4, 12692, Control_c, 0, 64, 127
4, 12696, Note_on_c, 0, 74, 0
4, 12702, Note_on_c, 0, 65, 0
4, 12705, Note_on_c, 0, 60, 0
4, 12707, Note_on_c, 0, 62, 0
4, 12707, Note_on_c, 0, 55, 0
4, 12708, Note_on_c, 0, 69, 0
4, 12708, Note_on_c, 0, 81, 0
4, 12709, Note_on_c, 0, 77, 0
4, 12736, Control_c, 0, 64, 0
4, 12740, Note_on_c, 0, 79, 68
4, 12742, Note_on_c, 0, 62, 54
4, 12743, Note_on_c, 0, 65, 66
4, 12743, Note_on_c, 0, 67, 60
4, 12744, Note_on_c, 0, 55, 58
4, 12745, Note_on_c, 0, 60, 57
4, 12745, Note_on_c, 0, 72, 53
4, 12767, Note_on_c, 0, 72, 0
4, 12789, Note_on_c, 0, 72, 15
4, 12857, Control_c, 0, 64, 127
4, 12860, Note_on_c, 0, 67, 0
4, 12868, Note_on_c, 0, 65, 0
4, 12869, Note_on_c, 0, 72, 0
4, 12872, Note_on_c, 0, 62, 0
4, 12874, Note_on_c, 0, 55, 0
4, 12876, Note_on_c, 0, 60, 0
4, 12878, Note_on_c, 0, 79, 0
4, 12938, Note_on_c, 0, 84, 95
4, 12939, Note_on_c, 0, 60, 81
4, 12940, Note_on_c, 0, 61, 79
4, 12940, Note_on_c, 0, 77, 94
4, 12940, Note_on_c, 0, 55, 87
4, 12940, Note_on_c, 0, 65, 94
4, 12947, Control_c, 0, 64, 0
4, 12989, Control_c, 0, 64, 127
4, 13034, Note_on_c, 0, 55, 0
4, 13035, Note_on_c, 0, 65, 0
4, 13040, Note_on_c, 0, 77, 0
4, 13044, Note_on_c, 0, 61, 0
4, 13044, Note_on_c, 0, 60, 0
4, 13050, Note_on_c, 0, 84, 0
4, 13058, Note_on_c, 0, 81, 71
4, 13061, Note_on_c, 0, 61, 64
4, 13062, Note_on_c, 0, 60, 61
4, 13062, Note_on_c, 0, 55, 65
4, 13062, Note_on_c, 0, 65, 74
4, 13064, Note_on_c, 0, 72, 66
4, 13070, Note_on_c, 0, 83, 31
4, 13106, Note_on_c, 0, 81, 0
4, 13107, Note_on_c, 0, 83, 0
4, 13122, Note_on_c, 0, 72, 0
4, 13128, Note_on_c, 0, 65, 0
4, 13135, Note_on_c, 0, 55, 0
4, 13138, Note_on_c, 0, 60, 0
4, 13140, Note_on_c, 0, 61, 0
4, 13176, Note_on_c, 0, 77, 63
4, 13179, Note_on_c, 0, 61, 57
4, 13179, Note_on_c, 0, 72, 59
4, 13179, Note_on_c, 0, 65, 73
4, 13179, Note_on_c, 0, 69, 53
4, 13180, Note_on_c, 0, 60, 58
4, 13181, Note_on_c, 0, 55, 60
4, 13182, Control_c, 0, 64, 0
4, 13212, Control_c, 0, 64, 127
4, 13221, Note_on_c, 0, 72, 0
4, 13222, Note_on_c, 0, 77, 0
4, 13227, Note_on_c, 0, 69, 0
4, 13227, Note_on_c, 0, 65, 0
4, 13243, Note_on_c, 0, 60, 0
4, 13246, Note_on_c, 0, 55, 0
4, 13249, Note_on_c, 0, 61, 0
4, 13295, Note_on_c, 0, 61, 60
4, 13296, Note_on_c, 0, 72, 57
4, 13298, Note_on_c, 0, 64, 48
4, 13298, Note_on_c, 0, 69, 64
4, 13298, Control_c, 0, 64, 0
4, 13299, Note_on_c, 0, 55, 55
4, 13314, Note_on_c, 0, 64, 0
4, 13328, Note_on_c, 0, 61, 0
4, 13330, Control_c, 0, 64, 127
4, 13334, Note_on_c, 0, 55, 0
4, 13334, Note_on_c, 0, 69, 0
4, 13338, Note_on_c, 0, 72, 0
4, 13348, Note_on_c, 0, 64, 25
4, 13397, Note_on_c, 0, 64, 0
4, 13409, Note_on_c, 0, 54, 63
4, 13415, Note_on_c, 0, 70, 84
4, 13415, Note_on_c, 0, 65, 85
4, 13416, Note_on_c, 0, 60, 87
4, 13418, Note_on_c, 0, 54, 0
4, 13419, Note_on_c, 0, 55, 84
4, 13426, Control_c, 0, 64, 0
4, 13551, Note_on_c, 0, 60, 0
4, 13557, Note_on_c, 0, 70, 0
4, 13566, Note_on_c, 0, 55, 0
4, 13568, Note_on_c, 0, 54, 56
4, 13570, Note_on_c, 0, 60, 22
4, 13572, Note_on_c, 0, 69, 43
4, 13605, Note_on_c, 0, 65, 0
4, 13612, Note_on_c, 0, 60, 0
4, 13628, Note_on_c, 0, 69, 0
4, 13633, Control_c, 0, 64, 127
4, 13647, Note_on_c, 0, 70, 60
4, 13652, Note_on_c, 0, 60, 53
4, 13652, Note_on_c, 0, 55, 65
4, 13661, Note_on_c, 0, 54, 0
4, 13666, Note_on_c, 0, 60, 0
4, 13668, Note_on_c, 0, 70, 0
4, 13670, Note_on_c, 0, 55, 0
4, 13689, Control_c, 0, 64, 0
4, 13693, Note_on_c, 0, 65, 57
4, 13693, Note_on_c, 0, 50, 52
4, 13716, Note_on_c, 0, 58, 2
4, 13746, Note_on_c, 0, 58, 0
4, 13756, Note_on_c, 0, 65, 0
4, 13758, Note_on_c, 0, 50, 0
4, 13766, Note_on_c, 0, 58, 55
4, 13766, Note_on_c, 0, 52, 64
4, 13766, Note_on_c, 0, 67, 55
4, 13768, Note_on_c, 0, 62, 51
4, 13773, Note_on_c, 0, 52, 0
4, 13775, Note_on_c, 0, 62, 0
4, 13777, Note_on_c, 0, 58, 0
4, 13778, Note_on_c, 0, 67, 0
4, 13843, Control_c, 0, 64, 127
4, 13881, Note_on_c, 0, 69, 80
4, 13884, Note_on_c, 0, 58, 75
4, 13884, Note_on_c, 0, 61, 74
4, 13886, Control_c, 0, 64, 0
4, 13886, Note_on_c, 0, 64, 69
4, 13886, Note_on_c, 0, 57, 71
4, 13978, Control_c, 0, 64, 127
4, 14001, Note_on_c, 0, 64, 0
4, 14011, Note_on_c, 0, 58, 0
4, 14018, Note_on_c, 0, 61, 0
4, 14020, Note_on_c, 0, 69, 0
4, 14024, Control_c, 0, 64, 0
4, 14035, Note_on_c, 0, 58, 49
4, 14038, Note_on_c, 0, 57, 0
4, 14038, Note_on_c, 0, 61, 30
4, 14039, Note_on_c, 0, 48, 51
4, 14040, Note_on_c, 0, 64, 47
4, 14072, Note_on_c, 0, 58, 0
4, 14076, Control_c, 0, 64, 127
4, 14082, Note_on_c, 0, 61, 0
4, 14083, Note_on_c, 0, 64, 0
4, 14116, Note_on_c, 0, 48, 0
4, 14158, Control_c, 0, 64, 0
4, 14162, Note_on_c, 0, 58, 77
4, 14163, Note_on_c, 0, 73, 84
4, 14164, Note_on_c, 0, 69, 99
4, 14164, Note_on_c, 0, 76, 70
4, 14164, Note_on_c, 0, 81, 81
4, 14164, Note_on_c, 0, 64, 81
4, 14165, Note_on_c, 0, 79, 79
4, 14223, Note_on_c, 0, 81, 0
4, 14223, Note_on_c, 0, 69, 0
4, 14224, Note_on_c, 0, 73, 0
4, 14225, Note_on_c, 0, 64, 0
4, 14227, Note_on_c, 0, 79, 0
4, 14227, Note_on_c, 0, 76, 0
4, 14228, Note_on_c, 0, 58, 0
4, 14241, Note_on_c, 0, 73, 64
4, 14241, Note_on_c, 0, 81, 67
4, 14242, Note_on_c, 0, 69, 71
4, 14242, Note_on_c, 0, 64, 78
4, 14242, Note_on_c, 0, 58, 85
4, 14242, Note_on_c, 0, 76, 69
4, 14245, Note_on_c, 0, 79, 43
4, 14262, Note_on_c, 0, 64, 0
4, 14266, Note_on_c, 0, 69, 0
4, 14266, Note_on_c, 0, 79, 0
4, 14269, Note_on_c, 0, 76, 0
4, 14269, Note_on_c, 0, 73, 0
4, 14270, Note_on_c, 0, 81, 0
4, 14271, Note_on_c, 0, 58, 0
4, 14285, Note_on_c, 0, 81, 37
4, 14287, Note_on_c, 0, 73, 43
4, 14287, Note_on_c, 0, 64, 55
4, 14287, Note_on_c, 0, 58, 72
4, 14288, Note_on_c, 0, 69, 49
4, 14289, Note_on_c, 0, 76, 35
4, 14293, Control_c, 0, 64, 127
4, 14320, Note_on_c, 0, 81, 0
4, 14334, Note_on_c, 0, 76, 0
4, 14336, Note_on_c, 0, 69, 0
4, 14338, Note_on_c, 0, 64, 0
4, 14346, Note_on_c, 0, 73, 0
4, 14355, Note_on_c, 0, 58, 0
4, 14483, Note_on_c, 0, 62, 81
4, 14484, Note_on_c, 0, 84, 87
4, 14484, Note_on_c, 0, 67, 77
4, 14484, Note_on_c, 0, 74, 82
4, 14484, Note_on_c, 0, 79, 80
4, 14491, Note_on_c, 0, 79, 0
4, 14492, Note_on_c, 0, 67, 0
4, 14492, Control_c, 0, 64, 0
4, 14496, Note_on_c, 0, 74, 0
4, 14496, Note_on_c, 0, 84, 0
4, 14498, Note_on_c, 0, 62, 0
4, 14560, Control_c, 0, 64, 127
4, 14602, Note_on_c, 0, 72, 69
4, 14602, Note_on_c, 0, 57, 73
4, 14602, Control_c, 0, 64, 0
4, 14603, Note_on_c, 0, 67, 68
4, 14604, Note_on_c, 0, 62, 69
4, 14606, Note_on_c, 0, 56, 44
4, 14613, Note_on_c, 0, 56, 0
4, 14704, Control_c, 0, 64, 127
4, 14713, Note_on_c, 0, 62, 0
4, 14723, Note_on_c, 0, 67, 0
4, 14726, Note_on_c, 0, 72, 0
4, 14730, Control_c, 0, 64, 0
4, 14753, Note_on_c, 0, 57, 0
4, 14757, Note_on_c, 0, 56, 46
4, 14760, Note_on_c, 0, 66, 53
4, 14761, Note_on_c, 0, 71, 28
4, 14762, Note_on_c, 0, 61, 50
4, 14784, Control_c, 0, 64, 127
4, 14816, Note_on_c, 0, 61, 0
4, 14822, Note_on_c, 0, 66, 0
4, 14826, Note_on_c, 0, 71, 0
4, 14846, Note_on_c, 0, 62, 67
4, 14846, Note_on_c, 0, 72, 65
4, 14848, Note_on_c, 0, 67, 55
4, 14849, Note_on_c, 0, 57, 60
4, 14853, Note_on_c, 0, 56, 0
4, 14853, Control_c, 0, 64, 0
4, 14858, Note_on_c, 0, 57, 0
4, 14866, Note_on_c, 0, 67, 0
4, 14869, Note_on_c, 0, 72, 0
4, 14871, Note_on_c, 0, 62, 0
4, 14932, Note_on_c, 0, 67, 50
4, 14934, Note_on_c, 0, 62, 55
4, 14935, Note_on_c, 0, 57, 56
4, 14939, Note_on_c, 0, 52, 60
4, 14946, Note_on_c, 0, 57, 0
4, 14953, Note_on_c, 0, 62, 0
4, 14956, Note_on_c, 0, 67, 0
4, 14959, Note_on_c, 0, 52, 0
4, 14976, Note_on_c, 0, 51, 57
4, 15005, Note_on_c, 0, 51, 0
4, 15010, Note_on_c, 0, 52, 66
4, 15010, Note_on_c, 0, 67, 58
4, 15010, Note_on_c, 0, 57, 62
4, 15010, Note_on_c, 0, 62, 60
4, 15059, Control_c, 0, 64, 127
4, 15088, Note_on_c, 0, 52, 0
4, 15091, Control_c, 0, 64, 0
4, 15092, Note_on_c, 0, 57, 0
4, 15095, Note_on_c, 0, 41, 73
4, 15107, Note_on_c, 0, 62, 0
4, 15147, Note_on_c, 0, 67, 0
4, 15152, Control_c, 0, 64, 127
4, 15206, Note_on_c, 0, 57, 68
4, 15207, Note_on_c, 0, 48, 50
4, 15209, Note_on_c, 0, 41, 0
4, 15215, Note_on_c, 0, 46, 21
4, 15225, Note_on_c, 0, 46, 0
4, 15225, Note_on_c, 0, 48, 0
4, 15228, Note_on_c, 0, 57, 0
4, 15344, Note_on_c, 0, 62, 46
4, 15352, Note_on_c, 0, 62, 0
4, 15361, Note_on_c, 0, 74, 65
4, 15363, Note_on_c, 0, 64, 57
4, 15364, Note_on_c, 0, 71, 60
4, 15365, Note_on_c, 0, 65, 65
4, 15366, Note_on_c, 0, 69, 68
4, 15366, Control_c, 0, 64, 0
4, 15448, Note_on_c, 0, 65, 0
4, 15451, Note_on_c, 0, 69, 0
4, 15455, Note_on_c, 0, 64, 0
4, 15455, Note_on_c, 0, 62, 52
4, 15456, Note_on_c, 0, 74, 0
4, 15457, Note_on_c, 0, 71, 0
4, 15472, Note_on_c, 0, 62, 0
4, 15480, Note_on_c, 0, 74, 55
4, 15482, Note_on_c, 0, 65, 75
4, 15482, Note_on_c, 0, 71, 54
4, 15483, Note_on_c, 0, 69, 71
4, 15484, Note_on_c, 0, 64, 68
4, 15591, Control_c, 0, 64, 127
4, 15681, Note_on_c, 0, 52, 67
4, 15693, Control_c, 0, 64, 0
4, 15716, Note_on_c, 0, 64, 0
4, 15729, Control_c, 0, 64, 127
4, 15818, Note_on_c, 0, 65, 0
4, 15840, Note_on_c, 0, 69, 0
4, 15850, Note_on_c, 0, 74, 0
4, 15865, Note_on_c, 0, 71, 0
4, 15918, Control_c, 0, 64, 0
4, 15927, Note_on_c, 0, 74, 80
4, 15927, Note_on_c, 0, 69, 94
4, 15928, Note_on_c, 0, 71, 82
4, 15928, Note_on_c, 0, 65, 99
4, 15931, Note_on_c, 0, 64, 89
4, 15956, Control_c, 0, 64, 127
4, 15958, Note_on_c, 0, 65, 0
4, 15981, Note_on_c, 0, 65, 11
4, 16053, Note_on_c, 0, 65, 0
4, 16057, Note_on_c, 0, 64, 0
4, 16060, Note_on_c, 0, 69, 0
4, 16070, Note_on_c, 0, 71, 0
4, 16071, Note_on_c, 0, 74, 0
4, 16084, Control_c, 0, 64, 0
4, 16087, Note_on_c, 0, 72, 63
4, 16088, Note_on_c, 0, 69, 66
4, 16089, Note_on_c, 0, 65, 64
4, 16089, Note_on_c, 0, 62, 53
4, 16130, Note_on_c, 0, 65, 0
4, 16132, Note_on_c, 0, 62, 0
4, 16133, Note_on_c, 0, 69, 0
4, 16145, Note_on_c, 0, 72, 0
4, 16214, Note_on_c, 0, 64, 69
4, 16214, Note_on_c, 0, 74, 66
4, 16215, Note_on_c, 0, 71, 64
4, 16215, Note_on_c, 0, 65, 76
4, 16215, Note_on_c, 0, 69, 74
4, 16249, Note_on_c, 0, 65, 0
4, 16249, Note_on_c, 0, 64, 0
4, 16258, Note_on_c, 0, 69, 0
4, 16260, Note_on_c, 0, 71, 0
4, 16262, Note_on_c, 0, 74, 0
4, 16295, Control_c, 0, 64, 127
4, 16309, Control_c, 0, 64, 0
4, 16328, Note_on_c, 0, 76, 87
4, 16328, Note_on_c, 0, 62, 72
4, 16328, Note_on_c, 0, 67, 95
4, 16328, Note_on_c, 0, 72, 89
4, 16333, Note_on_c, 0, 56, 39
4, 16334, Note_on_c, 0, 55, 74
4, 16350, Note_on_c, 0, 56, 0
4, 16351, Note_on_c, 0, 55, 0
4, 16357, Control_c, 0, 64, 127
4, 16371, Note_on_c, 0, 72, 0
4, 16372, Note_on_c, 0, 62, 0
4, 16375, Note_on_c, 0, 76, 0
4, 16382, Note_on_c, 0, 56, 49
4, 16391, Note_on_c, 0, 67, 0
4, 16392, Note_on_c, 0, 76, 40
4, 16394, Note_on_c, 0, 72, 50
4, 16400, Note_on_c, 0, 62, 34
4, 16412, Note_on_c, 0, 67, 52
4, 16414, Note_on_c, 0, 72, 0
4, 16416, Note_on_c, 0, 76, 0
4, 16416, Note_on_c, 0, 56, 0
4, 16430, Note_on_c, 0, 62, 0
4, 16435, Note_on_c, 0, 67, 0
4, 16435, Note_on_c, 0, 76, 35
4, 16440, Note_on_c, 0, 72, 48
4, 16440, Note_on_c, 0, 56, 44
4, 16458, Note_on_c, 0, 76, 0
4, 16458, Note_on_c, 0, 67, 50
4, 16458, Note_on_c, 0, 62, 34
4, 16459, Note_on_c, 0, 72, 0
4, 16465, Note_on_c, 0, 56, 0
4, 16481, Note_on_c, 0, 76, 30
4, 16485, Note_on_c, 0, 72, 48
4, 16488, Note_on_c, 0, 67, 0
4, 16507, Note_on_c, 0, 62, 0
4, 16513, Note_on_c, 0, 56, 46
4, 16517, Note_on_c, 0, 72, 0
4, 16517, Note_on_c, 0, 67, 31
4, 16533, Note_on_c, 0, 72, 30
4, 16535, Control_c, 0, 64, 0
4, 16540, Note_on_c, 0, 67, 0
4, 16542, Note_on_c, 0, 72, 0
4, 16544, Note_on_c, 0, 76, 0
4, 16561, Note_on_c, 0, 74, 62
4, 16561, Note_on_c, 0, 62, 55
4, 16562, Note_on_c, 0, 65, 80
4, 16565, Note_on_c, 0, 71, 54
4, 16580, Note_on_c, 0, 65, 0
4, 16595, Note_on_c, 0, 71, 0
4, 16600, Note_on_c, 0, 74, 0
4, 16603, Note_on_c, 0, 62, 0
4, 16606, Note_on_c, 0, 52, 0
4, 16611, Note_on_c, 0, 56, 0
4, 16794, Note_on_c, 0, 62, 80
4, 16794, Note_on_c, 0, 56, 80
4, 16795, Note_on_c, 0, 67, 89
4, 16796, Note_on_c, 0, 88, 94
4, 16796, Note_on_c, 0, 84, 91
4, 16796, Note_on_c, 0, 79, 95
4, 16832, Note_on_c, 0, 79, 0
4, 16832, Note_on_c, 0, 67, 0
4, 16836, Note_on_c, 0, 84, 0
4, 16836, Note_on_c, 0, 62, 0
4, 16840, Note_on_c, 0, 88, 0
4, 16841, Note_on_c, 0, 56, 0
4, 16879, Note_on_c, 0, 57, 78
4, 16880, Note_on_c, 0, 68, 80
4, 16880, Note_on_c, 0, 89, 81
4, 16880, Note_on_c, 0, 63, 70
4, 16880, Note_on_c, 0, 80, 83
4, 16881, Note_on_c, 0, 85, 83
4, 16912, Note_on_c, 0, 57, 0
4, 16920, Note_on_c, 0, 68, 0
4, 16920, Note_on_c, 0, 89, 0
4, 16923, Note_on_c, 0, 85, 0
4, 16926, Note_on_c, 0, 80, 0
4, 16926, Note_on_c, 0, 63, 0
4, 16947, Note_on_c, 0, 67, 64
4, 16948, Note_on_c, 0, 62, 64
4, 16950, Note_on_c, 0, 56, 53
4, 16950, Note_on_c, 0, 88, 72
4, 16952, Note_on_c, 0, 79, 64
4, 16953, Note_on_c, 0, 84, 70
4, 16992, Note_on_c, 0, 84, 0
4, 16994, Note_on_c, 0, 88, 0
4, 17002, Note_on_c, 0, 79, 0
4, 17003, Note_on_c, 0, 56, 0
4, 17003, Note_on_c, 0, 67, 0
4, 17004, Note_on_c, 0, 62, 0
4, 17032, Note_on_c, 0, 86, 71
4, 17034, Note_on_c, 0, 77, 57
4, 17034, Note_on_c, 0, 62, 50
4, 17034, Note_on_c, 0, 56, 65
4, 17036, Note_on_c, 0, 67, 53
4, 17039, Note_on_c, 0, 83, 49
4, 17068, Note_on_c, 0, 83, 0
4, 17074, Note_on_c, 0, 77, 0
4, 17084, Note_on_c, 0, 67, 0
4, 17085, Note_on_c, 0, 86, 0
4, 17088, Note_on_c, 0, 56, 0
4, 17090, Note_on_c, 0, 62, 0
4, 17114, Note_on_c, 0, 79, 39
4, 17114, Note_on_c, 0, 74, 46
4, 17116, Note_on_c, 0, 62, 53
4, 17116, Note_on_c, 0, 83, 46
4, 17117, Note_on_c, 0, 56, 59
4, 17118, Note_on_c, 0, 67, 57
4, 17125, Note_on_c, 0, 79, 0
4, 17126, Note_on_c, 0, 83, 0
4, 17129, Note_on_c, 0, 67, 0
4, 17130, Note_on_c, 0, 74, 0
4, 17138, Note_on_c, 0, 62, 0
4, 17146, Note_on_c, 0, 56, 0
4, 17243, Note_on_c, 0, 63, 93
4, 17243, Note_on_c, 0, 67, 81
4, 17243, Note_on_c, 0, 72, 72
4, 17244, Note_on_c, 0, 69, 82
4, 17359, Note_on_c, 0, 62, 82
4, 17398, Note_on_c, 0, 62, 0
4, 17402, Note_on_c, 0, 61, 65
4, 17440, Note_on_c, 0, 61, 0
4, 17524, Note_on_c, 0, 60, 79
4, 17586, Control_c, 0, 64, 127
4, 17595, Note_on_c, 0, 67, 0
4, 17604, Note_on_c, 0, 50, 36
4, 17606, Note_on_c, 0, 63, 0
4, 17618, Note_on_c, 0, 60, 0
4, 17642, Note_on_c, 0, 63, 38
4, 17644, Note_on_c, 0, 67, 35
4, 17645, Note_on_c, 0, 69, 0
4, 17647, Note_on_c, 0, 60, 43
4, 17660, Note_on_c, 0, 50, 0
4, 17668, Note_on_c, 0, 60, 0
4, 17686, Note_on_c, 0, 67, 0
4, 17690, Note_on_c, 0, 63, 0
4, 17701, Note_on_c, 0, 72, 0
4, 17725, Note_on_c, 0, 67, 69
4, 17726, Note_on_c, 0, 60, 65
4, 17726, Note_on_c, 0, 63, 61
4, 17726, Note_on_c, 0, 72, 45
4, 17729, Note_on_c, 0, 69, 62
4, 17732, Note_on_c, 0, 50, 32
4, 17733, Note_on_c, 0, 60, 0
4, 17733, Control_c, 0, 64, 0
4, 17734, Note_on_c, 0, 63, 0
4, 17736, Note_on_c, 0, 72, 0
4, 17737, Note_on_c, 0, 69, 0
4, 17739, Note_on_c, 0, 67, 0
4, 17740, Note_on_c, 0, 50, 0
4, 17815, Control_c, 0, 64, 127
4, 17841, Control_c, 0, 64, 0
4, 17842, Note_on_c, 0, 60, 80
4, 17843, Note_on_c, 0, 61, 70
4, 17844, Note_on_c, 0, 55, 80
4, 17844, Note_on_c, 0, 65, 80
4, 17848, Note_on_c, 0, 58, 35
4, 17869, Note_on_c, 0, 65, 0
4, 17878, Note_on_c, 0, 60, 0
4, 17881, Note_on_c, 0, 61, 0
4, 17883, Note_on_c, 0, 55, 0
4, 17886, Note_on_c, 0, 58, 0
4, 17925, Note_on_c, 0, 61, 43
4, 17932, Note_on_c, 0, 61, 0
4, 17961, Note_on_c, 0, 62, 80
4, 17962, Note_on_c, 0, 57, 72
4, 17962, Note_on_c, 0, 63, 77
4, 17963, Note_on_c, 0, 67, 85
4, 18053, Control_c, 0, 64, 127
4, 18185, Note_on_c, 0, 67, 0
4, 18206, Note_on_c, 0, 62, 0
4, 18280, Note_on_c, 0, 63, 0
4, 18297, Note_on_c, 0, 71, 60
4, 18313, Note_on_c, 0, 71, 0
4, 18325, Note_on_c, 0, 57, 0
4, 18334, Note_on_c, 0, 72, 74
4, 18355, Note_on_c, 0, 72, 0
4, 18361, Control_c, 0, 64, 0
4, 18375, Note_on_c, 0, 74, 82
4, 18437, Control_c, 0, 64, 127
4, 18446, Note_on_c, 0, 70, 63
4, 18447, Control_c, 0, 64, 0
4, 18448, Note_on_c, 0, 66, 55
4, 18451, Note_on_c, 0, 65, 67
4, 18452, Note_on_c, 0, 60, 53
4, 18455, Note_on_c, 0, 58, 37
4, 18456, Note_on_c, 0, 54, 37
4, 18463, Note_on_c, 0, 60, 0
4, 18464, Note_on_c, 0, 65, 0
4, 18466, Note_on_c, 0, 58, 0
4, 18475, Note_on_c, 0, 54, 0
4, 18564, Note_on_c, 0, 54, 55
4, 18564, Note_on_c, 0, 65, 70
4, 18566, Note_on_c, 0, 60, 53
4, 18576, Note_on_c, 0, 65, 0
4, 18581, Note_on_c, 0, 60, 0
4, 18585, Note_on_c, 0, 54, 0
4, 18637, Control_c, 0, 64, 127
4, 18662, Note_on_c, 0, 66, 0
4, 18673, Note_on_c, 0, 70, 0
4, 18676, Note_on_c, 0, 66, 49
4, 18678, Control_c, 0, 64, 0
4, 18679, Note_on_c, 0, 60, 57
4, 18680, Note_on_c, 0, 54, 43
4, 18681, Note_on_c, 0, 50, 47
4, 18682, Note_on_c, 0, 69, 62
4, 18710, Control_c, 0, 64, 127
4, 18712, Note_on_c, 0, 50, 0
4, 18720, Note_on_c, 0, 54, 0
4, 18728, Note_on_c, 0, 60, 0
4, 18735, Note_on_c, 0, 69, 0
4, 18748, Note_on_c, 0, 66, 0
4, 18760, Note_on_c, 0, 74, 0
4, 18797, Note_on_c, 0, 54, 88
4, 18798, Note_on_c, 0, 77, 87
4, 18798, Note_on_c, 0, 65, 89
4, 18798, Note_on_c, 0, 72, 89
4, 18798, Note_on_c, 0, 60, 74
4, 18804, Control_c, 0, 64, 0
4, 18840, Control_c, 0, 64, 127
4, 18894, Note_on_c, 0, 65, 0
4, 18932, Note_on_c, 0, 77, 0
4, 18938, Note_on_c, 0, 72, 0
4, 18958, Note_on_c, 0, 64, 59
4, 18959, Note_on_c, 0, 66, 55
4, 18959, Note_on_c, 0, 75, 60
4, 18960, Note_on_c, 0, 72, 47
4, 18976, Note_on_c, 0, 64, 0
4, 18980, Note_on_c, 0, 60, 0
4, 18998, Note_on_c, 0, 72, 0
4, 19000, Note_on_c, 0, 54, 0
4, 19009, Note_on_c, 0, 75, 0
4, 19009, Note_on_c, 0, 66, 0
4, 19042, Note_on_c, 0, 54, 53
4, 19061, Note_on_c, 0, 54, 0
4, 19073, Note_on_c, 0, 72, 71
4, 19075, Note_on_c, 0, 67, 74
4, 19075, Control_c, 0, 64, 0
4, 19076, Note_on_c, 0, 62, 71
4, 19076, Note_on_c, 0, 56, 82
4, 19109, Control_c, 0, 64, 127
4, 19141, Note_on_c, 0, 67, 0
4, 19154, Note_on_c, 0, 62, 0
4, 19158, Note_on_c, 0, 72, 0
4, 19164, Note_on_c, 0, 51, 25
4, 19164, Note_on_c, 0, 54, 59
4, 19166, Note_on_c, 0, 56, 0
4, 19198, Note_on_c, 0, 51, 0
4, 19198, Control_c, 0, 64, 0
4, 19200, Note_on_c, 0, 54, 0
4, 19200, Note_on_c, 0, 70, 75
4, 19200, Note_on_c, 0, 62, 73
4, 19202, Note_on_c, 0, 55, 77
4, 19202, Note_on_c, 0, 65, 70
4, 19252, Control_c, 0, 64, 127
4, 19377, Note_on_c, 0, 62, 0
4, 19392, Note_on_c, 0, 65, 0
4, 19404, Note_on_c, 0, 70, 0
4, 19416, Note_on_c, 0, 55, 0
4, 19448, Control_c, 0, 64, 0
4, 19449, Note_on_c, 0, 70, 65
4, 19452, Note_on_c, 0, 62, 56
4, 19452, Note_on_c, 0, 55, 58
4, 19453, Note_on_c, 0, 65, 66
4, 19508, Control_c, 0, 64, 127
4, 19516, Note_on_c, 0, 62, 0
4, 19521, Note_on_c, 0, 70, 0
4, 19522, Note_on_c, 0, 65, 0
4, 19534, Note_on_c, 0, 55, 0
4, 19540, Note_on_c, 0, 54, 37
4, 19540, Note_on_c, 0, 69, 27
4, 19554, Note_on_c, 0, 69, 0
4, 19562, Control_c, 0, 64, 0
4, 19569, Note_on_c, 0, 54, 0
4, 19575, Note_on_c, 0, 70, 54
4, 19576, Note_on_c, 0, 55, 64
4, 19578, Note_on_c, 0, 62, 41
4, 19590, Control_c, 0, 64, 127
4, 19616, Note_on_c, 0, 62, 0
4, 19628, Note_on_c, 0, 70, 0
4, 19650, Note_on_c, 0, 55, 0
4, 19660, Note_on_c, 0, 70, 74
4, 19662, Note_on_c, 0, 65, 80
4, 19663, Control_c, 0, 64, 0
4, 19663, Note_on_c, 0, 61, 71
4, 19664, Note_on_c, 0, 51, 68
4, 19689, Control_c, 0, 64, 127
4, 19691, Note_on_c, 0, 51, 0
4, 19691, Note_on_c, 0, 61, 0
4, 19697, Note_on_c, 0, 65, 0
4, 19709, Note_on_c, 0, 70, 0
4, 19782, Note_on_c, 0, 82, 87
4, 19782, Note_on_c, 0, 61, 74
4, 19782, Note_on_c, 0, 55, 83
4, 19784, Note_on_c, 0, 65, 80
4, 19785, Note_on_c, 0, 70, 87
4, 19788, Note_on_c, 0, 75, 65
4, 19799, Control_c, 0, 64, 0
4, 19831, Control_c, 0, 64, 127
4, 19856, Note_on_c, 0, 55, 0
4, 19871, Note_on_c, 0, 65, 0
4, 19871, Note_on_c, 0, 61, 0
4, 19875, Note_on_c, 0, 70, 0
4, 19877, Note_on_c, 0, 75, 0
4, 19885, Note_on_c, 0, 82, 0
4, 19939, Note_on_c, 0, 55, 66
4, 19943, Note_on_c, 0, 61, 74
4, 19945, Note_on_c, 0, 81, 83
4, 19945, Note_on_c, 0, 69, 88
4, 19946, Note_on_c, 0, 77, 70
4, 19946, Note_on_c, 0, 65, 95
4, 19948, Control_c, 0, 64, 0
4, 19948, Note_on_c, 0, 74, 64
4, 19949, Note_on_c, 0, 72, 67
4, 19955, Note_on_c, 0, 79, 30
4, 19989, Note_on_c, 0, 74, 0
4, 19997, Note_on_c, 0, 72, 0
4, 20000, Note_on_c, 0, 79, 0
4, 20000, Note_on_c, 0, 69, 0
4, 20000, Control_c, 0, 64, 127
4, 20002, Note_on_c, 0, 65, 0
4, 20003, Note_on_c, 0, 55, 0
4, 20010, Note_on_c, 0, 81, 0
4, 20014, Note_on_c, 0, 61, 0
4, 20016, Note_on_c, 0, 77, 0
4, 20030, Control_c, 0, 64, 0
4, 20035, Note_on_c, 0, 77, 61
4, 20036, Note_on_c, 0, 81, 75
4, 20037, Note_on_c, 0, 73, 61
4, 20037, Note_on_c, 0, 72, 73
4, 20039, Note_on_c, 0, 69, 74
4, 20039, Note_on_c, 0, 55, 78
4, 20040, Note_on_c, 0, 61, 74
4, 20041, Note_on_c, 0, 65, 76
4, 20043, Note_on_c, 0, 79, 46
4, 20050, Note_on_c, 0, 79, 0
4, 20062, Note_on_c, 0, 65, 0
4, 20064, Control_c, 0, 64, 127
4, 20066, Note_on_c, 0, 72, 0
4, 20068, Note_on_c, 0, 81, 0
4, 20070, Note_on_c, 0, 69, 0
4, 20070, Note_on_c, 0, 55, 0
4, 20073, Note_on_c, 0, 73, 0
4, 20075, Note_on_c, 0, 77, 0
4, 20081, Note_on_c, 0, 61, 0
4, 20109, Note_on_c, 0, 61, 73
4, 20109, Note_on_c, 0, 80, 56
4, 20110, Note_on_c, 0, 72, 65
4, 20110, Note_on_c, 0, 68, 60
4, 20111, Note_on_c, 0, 55, 73
4, 20116, Note_on_c, 0, 72, 0
4, 20124, Note_on_c, 0, 68, 0
4, 20124, Note_on_c, 0, 61, 0
4, 20129, Note_on_c, 0, 55, 0
4, 20132, Note_on_c, 0, 80, 0
4, 20180, Control_c, 0, 64, 0
4, 20183, Note_on_c, 0, 84, 82
4, 20183, Note_on_c, 0, 48, 73
4, 20184, Note_on_c, 0, 57, 80
4, 20184, Note_on_c, 0, 77, 71
4, 20184, Note_on_c, 0, 72, 77
4, 20186, Note_on_c, 0, 81, 67
4, 20232, Control_c, 0, 64, 127
4, 20274, Note_on_c, 0, 84, 0
4, 20278, Note_on_c, 0, 81, 0
4, 20288, Note_on_c, 0, 77, 0
4, 20289, Note_on_c, 0, 72, 0
4, 20342, Note_on_c, 0, 57, 0
4, 20342, Note_on_c, 0, 48, 0
4, 20405, Control_c, 0, 64, 0
4, 20406, Note_on_c, 0, 49, 76
4, 20406, Note_on_c, 0, 57, 74
4, 20406, Note_on_c, 0, 81, 84
4, 20407, Note_on_c, 0, 73, 77
4, 20407, Note_on_c, 0, 69, 84
4, 20407, Note_on_c, 0, 76, 66
4, 20414, Note_on_c, 0, 71, 25
4, 20421, Note_on_c, 0, 71, 0
4, 20467, Note_on_c, 0, 69, 0
4, 20468, Note_on_c, 0, 49, 0
4, 20473, Note_on_c, 0, 73, 0
4, 20474, Note_on_c, 0, 81, 0
4, 20476, Control_c, 0, 64, 127
4, 20477, Note_on_c, 0, 76, 0
4, 20486, Note_on_c, 0, 81, 25
4, 20487, Note_on_c, 0, 49, 56
4, 20488, Note_on_c, 0, 69, 50
4, 20490, Note_on_c, 0, 73, 54
4, 20492, Note_on_c, 0, 76, 62
4, 20496, Note_on_c, 0, 79, 19
4, 20504, Control_c, 0, 64, 0
4, 20505, Note_on_c, 0, 81, 0
4, 20506, Note_on_c, 0, 57, 0
4, 20506, Note_on_c, 0, 79, 0
4, 20508, Note_on_c, 0, 49, 0
4, 20509, Note_on_c, 0, 69, 0
4, 20515, Note_on_c, 0, 73, 0
4, 20518, Note_on_c, 0, 76, 0
4, 20525, Note_on_c, 0, 79, 22
4, 20526, Note_on_c, 0, 49, 51
4, 20529, Note_on_c, 0, 57, 46
4, 20532, Note_on_c, 0, 67, 35
4, 20532, Note_on_c, 0, 73, 33
4, 20544, Control_c, 0, 64, 127
4, 20546, Note_on_c, 0, 67, 0
4, 20570, Note_on_c, 0, 79, 0
4, 20577, Note_on_c, 0, 73, 0
4, 20583, Note_on_c, 0, 49, 0
4, 20587, Note_on_c, 0, 57, 0
4, 20605, Note_on_c, 0, 77, 61
4, 20608, Note_on_c, 0, 50, 61
4, 20608, Note_on_c, 0, 72, 69
4, 20610, Note_on_c, 0, 65, 73
4, 20612, Control_c, 0, 64, 0
4, 20633, Note_on_c, 0, 77, 0
4, 20634, Note_on_c, 0, 72, 0
4, 20636, Note_on_c, 0, 65, 0
4, 20652, Control_c, 0, 64, 127
4, 20724, Note_on_c, 0, 79, 75
4, 20726, Note_on_c, 0, 69, 80
4, 20728, Note_on_c, 0, 72, 66
4, 20730, Note_on_c, 0, 60, 74
4, 20736, Control_c, 0, 64, 0
4, 20754, Note_on_c, 0, 72, 0
4, 20754, Note_on_c, 0, 69, 0
4, 20759, Note_on_c, 0, 79, 0
4, 20768, Note_on_c, 0, 50, 0
4, 20773, Note_on_c, 0, 77, 38
4, 20785, Note_on_c, 0, 60, 0
4, 20804, Control_c, 0, 64, 127
4, 20813, Note_on_c, 0, 77, 0
4, 20843, Note_on_c, 0, 77, 67
4, 20844, Note_on_c, 0, 74, 57
4, 20844, Note_on_c, 0, 70, 68
4, 20845, Note_on_c, 0, 60, 66
4, 20846, Note_on_c, 0, 58, 62
4, 20846, Note_on_c, 0, 65, 76
4, 20847, Note_on_c, 0, 54, 63
4, 20848, Control_c, 0, 64, 0
4, 20849, Note_on_c, 0, 76, 40
4, 20871, Note_on_c, 0, 74, 0
4, 20875, Note_on_c, 0, 77, 0
4, 20878, Note_on_c, 0, 76, 0
4, 20880, Note_on_c, 0, 60, 0
4, 20880, Note_on_c, 0, 70, 0
4, 20881, Note_on_c, 0, 65, 0
4, 20887, Note_on_c, 0, 58, 0
4, 20889, Control_c, 0, 64, 127
4, 20893, Note_on_c, 0, 54, 0
4, 20907, Control_c, 0, 64, 0
4, 20916, Note_on_c, 0, 54, 76
4, 20918, Note_on_c, 0, 74, 33
4, 20919, Note_on_c, 0, 70, 59
4, 20921, Note_on_c, 0, 65, 66
4, 20923, Note_on_c, 0, 72, 33
4, 20929, Control_c, 0, 64, 127
4, 20935, Note_on_c, 0, 70, 0
4, 20936, Note_on_c, 0, 69, 49
4, 20945, Note_on_c, 0, 69, 0
4, 20950, Note_on_c, 0, 74, 0
4, 20955, Note_on_c, 0, 72, 0
4, 20961, Note_on_c, 0, 65, 0
4, 20977, Note_on_c, 0, 54, 0
4, 20995, Control_c, 0, 64, 0
4, 21003, Note_on_c, 0, 54, 64
4, 21003, Note_on_c, 0, 65, 51
4, 21006, Note_on_c, 0, 44, 49
4, 21008, Note_on_c, 0, 60, 33
4, 21009, Note_on_c, 0, 62, 36
4, 21017, Note_on_c, 0, 62, 0
4, 21021, Control_c, 0, 64, 127
4, 21026, Note_on_c, 0, 65, 0
4, 21040, Note_on_c, 0, 60, 0
4, 21065, Note_on_c, 0, 54, 0
4, 21078, Note_on_c, 0, 44, 0
4, 21088, Note_on_c, 0, 59, 55
4, 21089, Note_on_c, 0, 64, 60
4, 21090, Note_on_c, 0, 43, 64
4, 21092, Note_on_c, 0, 53, 51
4, 21093, Control_c, 0, 64, 0
4, 21118, Control_c, 0, 64, 127
4, 21120, Note_on_c, 0, 59, 0
4, 21127, Note_on_c, 0, 43, 0
4, 21132, Note_on_c, 0, 64, 0
4, 21138, Note_on_c, 0, 53, 0
4, 21206, Note_on_c, 0, 85, 84
4, 21208, Note_on_c, 0, 73, 98
4, 21210, Note_on_c, 0, 59, 79
4, 21211, Note_on_c, 0, 53, 81
4, 21212, Note_on_c, 0, 80, 52
4, 21212, Note_on_c, 0, 64, 87
4, 21216, Control_c, 0, 64, 0
4, 21218, Note_on_c, 0, 80, 0
4, 21237, Note_on_c, 0, 85, 0
4, 21239, Note_on_c, 0, 73, 0
4, 21243, Note_on_c, 0, 74, 51
4, 21274, Note_on_c, 0, 59, 0
4, 21276, Note_on_c, 0, 74, 0
4, 21281, Note_on_c, 0, 86, 55
4, 21297, Note_on_c, 0, 59, 32
4, 21304, Note_on_c, 0, 86, 0
4, 21309, Note_on_c, 0, 74, 39
4, 21315, Note_on_c, 0, 53, 0
4, 21316, Note_on_c, 0, 64, 0
4, 21316, Note_on_c, 0, 74, 0
4, 21318, Note_on_c, 0, 59, 0
4, 21376, Note_on_c, 0, 80, 65
4, 21377, Note_on_c, 0, 68, 76
4, 21378, Note_on_c, 0, 59, 60
4, 21380, Note_on_c, 0, 74, 44
4, 21380, Note_on_c, 0, 64, 62
4, 21382, Note_on_c, 0, 53, 51
4, 21408, Note_on_c, 0, 69, 54
4, 21409, Note_on_c, 0, 68, 0
4, 21428, Note_on_c, 0, 80, 0
4, 21428, Note_on_c, 0, 69, 0
4, 21431, Note_on_c, 0, 74, 0
4, 21432, Note_on_c, 0, 64, 0
4, 21440, Note_on_c, 0, 53, 0
4, 21448, Note_on_c, 0, 59, 0
4, 21490, Note_on_c, 0, 74, 49
4, 21491, Note_on_c, 0, 62, 58
4, 21492, Note_on_c, 0, 59, 50
4, 21492, Note_on_c, 0, 53, 52
4, 21529, Note_on_c, 0, 62, 0
4, 21533, Note_on_c, 0, 74, 0
4, 21539, Note_on_c, 0, 59, 0
4, 21551, Note_on_c, 0, 53, 0
4, 21613, Note_on_c, 0, 52, 43
4, 21614, Note_on_c, 0, 58, 35
4, 21614, Note_on_c, 0, 62, 36
4, 21614, Note_on_c, 0, 77, 39
4, 21614, Note_on_c, 0, 65, 55
4, 21621, Note_on_c, 0, 72, 31
4, 21647, Control_c, 0, 64, 127
4, 21698, Note_on_c, 0, 65, 0
4, 21707, Note_on_c, 0, 72, 0
4, 21730, Note_on_c, 0, 52, 0
4, 21736, Note_on_c, 0, 62, 0
4, 21738, Note_on_c, 0, 77, 0
4, 21743, Note_on_c, 0, 58, 0
4, 21842, Control_c, 0, 64, 0
4, 21850, Note_on_c, 0, 76, 76
4, 21850, Note_on_c, 0, 79, 80
4, 21851, Note_on_c, 0, 67, 87
4, 21851, Note_on_c, 0, 73, 80
4, 21851, Note_on_c, 0, 58, 79
4, 21852, Note_on_c, 0, 64, 83
4, 21908, Control_c, 0, 64, 127
4, 21923, Note_on_c, 0, 67, 0
4, 21925, Note_on_c, 0, 58, 0
4, 21926, Note_on_c, 0, 73, 0
4, 21930, Note_on_c, 0, 76, 0
4, 21930, Note_on_c, 0, 79, 0
4, 21937, Note_on_c, 0, 64, 0
4, 21950, Control_c, 0, 64, 0
4, 21968, Control_c, 0, 64, 127
4, 21971, Note_on_c, 0, 58, 63
4, 21971, Note_on_c, 0, 64, 59
4, 21972, Note_on_c, 0, 76, 49
4, 21974, Note_on_c, 0, 79, 51
4, 21974, Note_on_c, 0, 73, 58
4, 21976, Note_on_c, 0, 67, 58
4, 22008, Note_on_c, 0, 64, 0
4, 22012, Note_on_c, 0, 76, 0
4, 22014, Note_on_c, 0, 79, 0
4, 22016, Note_on_c, 0, 67, 0
4, 22027, Note_on_c, 0, 73, 0
4, 22036, Note_on_c, 0, 58, 0
4, 22054, Control_c, 0, 64, 0
4, 22054, Note_on_c, 0, 77, 64
4, 22056, Note_on_c, 0, 62, 62
4, 22057, Note_on_c, 0, 67, 57
4, 22058, Note_on_c, 0, 72, 68
4, 22058, Note_on_c, 0, 57, 57
4, 22079, Note_on_c, 0, 62, 0
4, 22082, Note_on_c, 0, 77, 0
4, 22086, Note_on_c, 0, 72, 0
4, 22086, Control_c, 0, 64, 127
4, 22090, Note_on_c, 0, 67, 0
4, 22090, Note_on_c, 0, 57, 0
4, 22171, Note_on_c, 0, 48, 70
4, 22172, Note_on_c, 0, 62, 56
4, 22172, Note_on_c, 0, 65, 64
4, 22172, Note_on_c, 0, 60, 64
4, 22172, Note_on_c, 0, 47, 63
4, 22172, Control_c, 0, 64, 0
4, 22174, Note_on_c, 0, 57, 55
4, 22179, Note_on_c, 0, 47, 0
4, 22299, Note_on_c, 0, 57, 0
4, 22304, Note_on_c, 0, 65, 0
4, 22304, Note_on_c, 0, 60, 0
4, 22307, Note_on_c, 0, 62, 0
4, 22331, Note_on_c, 0, 62, 50
4, 22332, Note_on_c, 0, 57, 51
4, 22333, Note_on_c, 0, 65, 55
4, 22333, Note_on_c, 0, 60, 58
4, 22349, Note_on_c, 0, 48, 0
4, 22510, Note_on_c, 0, 57, 0
4, 22513, Note_on_c, 0, 60, 0
4, 22513, Note_on_c, 0, 65, 0
4, 22520, Note_on_c, 0, 62, 0
4, 22567, Note_on_c, 0, 57, 55
4, 22568, Note_on_c, 0, 62, 41
4, 22568, Note_on_c, 0, 65, 55
4, 22570, Note_on_c, 0, 60, 55
4, 22692, Control_c, 0, 64, 127
4, 22706, Note_on_c, 0, 57, 0
4, 22797, Note_on_c, 0, 60, 0
4, 22915, Control_c, 0, 64, 0
4, 22926, Note_on_c, 0, 45, 60
4, 22961, Note_on_c, 0, 45, 0
4, 22975, Control_c, 0, 64, 127
4, 22987, Control_c, 0, 64, 0
4, 23002, Note_on_c, 0, 52, 83
4, 23002, Note_on_c, 0, 45, 80
4, 23026, Note_on_c, 0, 62, 0
4, 23041, Control_c, 0, 64, 127
4, 23057, Note_on_c, 0, 65, 0
4, 23090, Note_on_c, 0, 45, 0
4, 23099, Note_on_c, 0, 52, 0
4, 23278, Note_on_c, 0, 58, 67
4, 23278, Note_on_c, 0, 69, 76
4, 23279, Note_on_c, 0, 64, 71
4, 23320, Note_on_c, 0, 69, 0
4, 23322, Note_on_c, 0, 64, 0
4, 23324, Note_on_c, 0, 58, 0
4, 23601, Note_on_c, 0, 69, 68
4, 23603, Note_on_c, 0, 64, 57
4, 23604, Note_on_c, 0, 58, 37
4, 23608, Note_on_c, 0, 69, 0
4, 23612, Note_on_c, 0, 58, 0
4, 23612, Note_on_c, 0, 64, 0
4, 23641, Note_on_c, 0, 84, 118
4, 23699, Note_on_c, 0, 84, 0
4, 23729, Note_on_c, 0, 82, 87
4, 23761, Note_on_c, 0, 82, 0
4, 23790, Control_c, 0, 64, 127
4, 23804, Note_on_c, 0, 81, 89
4, 23834, Note_on_c, 0, 81, 0
4, 23843, Control_c, 0, 64, 0
4, 23883, Note_on_c, 0, 76, 84
4, 23909, Note_on_c, 0, 76, 0
4, 23959, Note_on_c, 0, 69, 68
4, 23959, Note_on_c, 0, 58, 51
4, 23960, Note_on_c, 0, 74, 84
4, 23961, Note_on_c, 0, 64, 60
4, 23975, Note_on_c, 0, 69, 0
4, 23981, Note_on_c, 0, 58, 0
4, 23986, Note_on_c, 0, 64, 0
4, 23999, Note_on_c, 0, 74, 0
4, 24034, Note_on_c, 0, 73, 60
4, 24083, Note_on_c, 0, 73, 0
4, 24114, Note_on_c, 0, 70, 82
4, 24146, Note_on_c, 0, 70, 0
4, 24199, Note_on_c, 0, 69, 99
4, 24202, Note_on_c, 0, 58, 55
4, 24202, Note_on_c, 0, 64, 58
4, 24210, Note_on_c, 0, 64, 0
4, 24221, Note_on_c, 0, 58, 0
4, 24255, Note_on_c, 0, 69, 0
4, 24262, Note_on_c, 0, 70, 47
4, 24287, Note_on_c, 0, 69, 59
4, 24291, Note_on_c, 0, 70, 0
4, 24317, Note_on_c, 0, 67, 66
4, 24320, Note_on_c, 0, 69, 0
4, 24342, Note_on_c, 0, 67, 0
4, 24359, Note_on_c, 0, 65, 67
4, 24436, Note_on_c, 0, 65, 0
4, 24439, Note_on_c, 0, 64, 68
4, 24464, Note_on_c, 0, 64, 0
4, 24488, Note_on_c, 0, 62, 43
4, 24549, Note_on_c, 0, 62, 0
4, 24561, Note_on_c, 0, 61, 69
4, 24602, Note_on_c, 0, 61, 0
4, 24622, Note_on_c, 0, 60, 51
4, 24689, Note_on_c, 0, 60, 0
4, 24691, Note_on_c, 0, 57, 41
4, 24704, Note_on_c, 0, 57, 0
4, 24735, Note_on_c, 0, 58, 69
4, 24808, Note_on_c, 0, 58, 0
4, 24814, Note_on_c, 0, 55, 31
4, 24834, Note_on_c, 0, 55, 0
4, 24850, Note_on_c, 0, 56, 59
4, 24911, Note_on_c, 0, 56, 0
4, 24920, Note_on_c, 0, 57, 59
4, 24952, Note_on_c, 0, 57, 0
4, 24963, Note_on_c, 0, 58, 39
4, 24987, Note_on_c, 0, 58, 0
4, 24998, Note_on_c, 0, 60, 47
4, 25027, Note_on_c, 0, 60, 0
4, 25027, Note_on_c, 0, 61, 71
4, 25053, Note_on_c, 0, 61, 0
4, 25062, Note_on_c, 0, 63, 64
4, 25082, Note_on_c, 0, 63, 0
4, 25093, Note_on_c, 0, 64, 63
4, 25112, Note_on_c, 0, 64, 0
4, 25125, Note_on_c, 0, 66, 62
4, 25141, Note_on_c, 0, 66, 0
4, 25150, Note_on_c, 0, 67, 64
4, 25176, Note_on_c, 0, 67, 0
4, 25179, Note_on_c, 0, 69, 72
4, 25205, Note_on_c, 0, 69, 0
4, 25208, Note_on_c, 0, 70, 74
4, 25225, Note_on_c, 0, 70, 0
4, 25239, Note_on_c, 0, 72, 60
4, 25258, Note_on_c, 0, 72, 0
4, 25268, Note_on_c, 0, 73, 54
4, 25291, Note_on_c, 0, 73, 0
4, 25295, Note_on_c, 0, 75, 57
4, 25313, Note_on_c, 0, 75, 0
4, 25327, Note_on_c, 0, 76, 61
4, 25345, Note_on_c, 0, 76, 0
4, 25356, Note_on_c, 0, 78, 47
4, 25373, Note_on_c, 0, 78, 0
4, 25384, Note_on_c, 0, 79, 60
4, 25407, Note_on_c, 0, 79, 0
4, 25416, Note_on_c, 0, 81, 65
4, 25436, Note_on_c, 0, 81, 0
4, 25561, Note_on_c, 0, 66, 81
4, 25562, Note_on_c, 0, 61, 71
4, 25563, Note_on_c, 0, 55, 80
4, 25598, Note_on_c, 0, 55, 0
4, 25606, Note_on_c, 0, 61, 0
4, 25612, Note_on_c, 0, 66, 0
4, 25772, Note_on_c, 0, 64, 68
4, 25773, Note_on_c, 0, 69, 71
4, 25773, Note_on_c, 0, 58, 70
4, 25775, Note_on_c, 0, 71, 51
4, 25782, Note_on_c, 0, 71, 0
4, 25788, Note_on_c, 0, 69, 0
4, 25797, Note_on_c, 0, 58, 0
4, 25804, Note_on_c, 0, 64, 0
4, 25826, Note_on_c, 0, 86, 83
4, 25826, Note_on_c, 0, 84, 83
4, 25854, Note_on_c, 0, 86, 0
4, 25874, Note_on_c, 0, 84, 0
4, 25892, Note_on_c, 0, 82, 79
4, 25925, Note_on_c, 0, 82, 0
4, 25938, Note_on_c, 0, 84, 80
4, 25988, Note_on_c, 0, 84, 0
4, 26006, Note_on_c, 0, 66, 72
4, 26008, Note_on_c, 0, 82, 77
4, 26008, Note_on_c, 0, 61, 57
4, 26010, Note_on_c, 0, 55, 55
4, 26017, Note_on_c, 0, 55, 0
4, 26020, Note_on_c, 0, 66, 0
4, 26027, Note_on_c, 0, 61, 0
4, 26049, Note_on_c, 0, 82, 0
4, 26066, Note_on_c, 0, 81, 65
4, 26113, Note_on_c, 0, 81, 0
4, 26129, Note_on_c, 0, 79, 48
4, 26152, Note_on_c, 0, 79, 0
4, 26178, Note_on_c, 0, 81, 85
4, 26230, Note_on_c, 0, 81, 0
4, 26241, Note_on_c, 0, 61, 59
4, 26241, Note_on_c, 0, 66, 70
4, 26242, Note_on_c, 0, 79, 74
4, 26245, Note_on_c, 0, 55, 47
4, 26253, Note_on_c, 0, 55, 0
4, 26257, Note_on_c, 0, 66, 0
4, 26265, Note_on_c, 0, 61, 0
4, 26274, Note_on_c, 0, 79, 0
4, 26299, Note_on_c, 0, 78, 52
4, 26356, Note_on_c, 0, 78, 0
4, 26364, Note_on_c, 0, 76, 53
4, 26378, Note_on_c, 0, 76, 0
4, 26411, Note_on_c, 0, 78, 74
4, 26459, Note_on_c, 0, 78, 0
4, 26478, Note_on_c, 0, 66, 70
4, 26481, Note_on_c, 0, 61, 56
4, 26482, Note_on_c, 0, 76, 80
4, 26483, Note_on_c, 0, 55, 55
4, 26490, Note_on_c, 0, 55, 0
4, 26494, Note_on_c, 0, 66, 0
4, 26512, Note_on_c, 0, 61, 0
4, 26515, Note_on_c, 0, 76, 0
4, 26546, Note_on_c, 0, 75, 50
4, 26592, Note_on_c, 0, 75, 0
4, 26604, Note_on_c, 0, 73, 67
4, 26618, Note_on_c, 0, 61, 37
4, 26632, Note_on_c, 0, 73, 0
4, 26634, Note_on_c, 0, 61, 0
4, 26654, Note_on_c, 0, 75, 78
4, 26707, Note_on_c, 0, 75, 0
4, 26717, Note_on_c, 0, 73, 71
4, 26718, Note_on_c, 0, 61, 64
4, 26719, Note_on_c, 0, 66, 68
4, 26721, Note_on_c, 0, 75, 28
4, 26723, Note_on_c, 0, 55, 52
4, 26730, Note_on_c, 0, 55, 0
4, 26733, Note_on_c, 0, 66, 0
4, 26738, Note_on_c, 0, 75, 0
4, 26750, Note_on_c, 0, 73, 0
4, 26751, Note_on_c, 0, 61, 0
4, 26772, Note_on_c, 0, 72, 53
4, 26834, Note_on_c, 0, 72, 0
4, 26841, Note_on_c, 0, 70, 72
4, 26846, Note_on_c, 0, 62, 51
4, 26847, Note_on_c, 0, 58, 33
4, 26854, Note_on_c, 0, 62, 0
4, 26854, Note_on_c, 0, 57, 28
4, 26867, Note_on_c, 0, 57, 0
4, 26873, Note_on_c, 0, 58, 0
4, 26880, Note_on_c, 0, 70, 0
4, 26901, Note_on_c, 0, 69, 49
4, 26950, Note_on_c, 0, 69, 0
4, 27134, Note_on_c, 0, 69, 113
4, 27212, Note_on_c, 0, 69, 0
4, 27221, Note_on_c, 0, 65, 33
4, 27240, Note_on_c, 0, 65, 0
4, 27260, Note_on_c, 0, 67, 45
4, 27312, Note_on_c, 0, 67, 0
4, 27330, Note_on_c, 0, 69, 80
4, 27331, Note_on_c, 0, 67, 57
4, 27332, Note_on_c, 0, 63, 59
4, 27334, Note_on_c, 0, 57, 47
4, 27338, Note_on_c, 0, 67, 0
4, 27344, Note_on_c, 0, 57, 0
4, 27352, Note_on_c, 0, 63, 0
4, 27429, Note_on_c, 0, 69, 0
4, 27445, Note_on_c, 0, 74, 85
4, 27480, Note_on_c, 0, 74, 0
4, 27497, Note_on_c, 0, 72, 55
4, 27548, Note_on_c, 0, 72, 0
4, 27565, Note_on_c, 0, 69, 77
4, 27602, Note_on_c, 0, 69, 0
4, 27631, Note_on_c, 0, 67, 40
4, 27695, Note_on_c, 0, 67, 0
4, 27719, Note_on_c, 0, 65, 65
4, 27804, Note_on_c, 0, 62, 51
4, 27812, Note_on_c, 0, 65, 0
4, 27840, Note_on_c, 0, 62, 0
4, 27874, Note_on_c, 0, 69, 55
4, 27920, Note_on_c, 0, 69, 0
4, 27937, Note_on_c, 0, 62, 45
4, 27938, Note_on_c, 0, 65, 52
4, 27940, Note_on_c, 0, 55, 36
4, 27940, Note_on_c, 0, 60, 48
4, 27953, Note_on_c, 0, 65, 0
4, 27958, Note_on_c, 0, 62, 0
4, 27960, Note_on_c, 0, 60, 0
4, 27961, Note_on_c, 0, 55, 0
4, 28081, Note_on_c, 0, 62, 69
4, 28100, Note_on_c, 0, 62, 0
4, 28118, Note_on_c, 0, 65, 57
4, 28140, Note_on_c, 0, 65, 0
4, 28147, Note_on_c, 0, 69, 64
4, 28176, Note_on_c, 0, 69, 0
4, 28179, Note_on_c, 0, 72, 65
4, 28183, Note_on_c, 0, 62, 35
4, 28188, Note_on_c, 0, 60, 36
4, 28192, Note_on_c, 0, 55, 24
4, 28202, Note_on_c, 0, 72, 0
4, 28207, Note_on_c, 0, 62, 0
4, 28211, Note_on_c, 0, 69, 55
4, 28216, Note_on_c, 0, 55, 0
4, 28217, Note_on_c, 0, 60, 0
4, 28236, Note_on_c, 0, 69, 0
4, 28241, Note_on_c, 0, 70, 45
4, 28256, Note_on_c, 0, 70, 0
4, 28273, Note_on_c, 0, 72, 69
4, 28294, Note_on_c, 0, 72, 0
4, 28301, Note_on_c, 0, 77, 64
4, 28308, Note_on_c, 0, 65, 38
4, 28309, Note_on_c, 0, 61, 37
4, 28312, Note_on_c, 0, 60, 36
4, 28313, Note_on_c, 0, 55, 36
4, 28336, Note_on_c, 0, 82, 62
4, 28337, Note_on_c, 0, 77, 0
4, 28350, Note_on_c, 0, 82, 0
4, 28369, Note_on_c, 0, 84, 65
4, 28398, Note_on_c, 0, 89, 64
4, 28401, Note_on_c, 0, 84, 0
4, 28429, Note_on_c, 0, 94, 71
4, 28430, Note_on_c, 0, 89, 0
4, 28453, Note_on_c, 0, 94, 0
4, 28457, Note_on_c, 0, 84, 74
4, 28459, Note_on_c, 0, 96, 81
4, 28500, Note_on_c, 0, 60, 0
4, 28503, Note_on_c, 0, 65, 0
4, 28504, Note_on_c, 0, 55, 0
4, 28506, Note_on_c, 0, 84, 0
4, 28507, Note_on_c, 0, 96, 0
4, 28512, Note_on_c, 0, 61, 0
4, 28536, Note_on_c, 0, 61, 36
4, 28536, Note_on_c, 0, 65, 69
4, 28538, Note_on_c, 0, 96, 85
4, 28539, Note_on_c, 0, 84, 72
4, 28540, Note_on_c, 0, 60, 39
4, 28542, Note_on_c, 0, 55, 40
4, 28547, Note_on_c, 0, 86, 31
4, 28555, Note_on_c, 0, 86, 0
4, 28562, Note_on_c, 0, 84, 0
4, 28564, Note_on_c, 0, 96, 0
4, 28605, Note_on_c, 0, 96, 74
4, 28608, Note_on_c, 0, 84, 67
4, 28646, Note_on_c, 0, 84, 0
4, 28646, Note_on_c, 0, 96, 0
4, 28674, Note_on_c, 0, 94, 62
4, 28698, Note_on_c, 0, 94, 0
4, 28736, Note_on_c, 0, 65, 0
4, 28743, Note_on_c, 0, 60, 0
4, 28748, Note_on_c, 0, 61, 0
4, 28754, Note_on_c, 0, 55, 0
4, 28882, Note_on_c, 0, 85, 83
4, 28883, Note_on_c, 0, 81, 79
4, 28884, Note_on_c, 0, 62, 78
4, 28885, Note_on_c, 0, 58, 64
4, 28885, Note_on_c, 0, 93, 76
4, 28885, Note_on_c, 0, 89, 62
4, 28885, Note_on_c, 0, 57, 60
4, 28887, Note_on_c, 0, 53, 60
4, 28889, Note_on_c, 0, 91, 48
4, 28897, Note_on_c, 0, 91, 0
4, 28908, Note_on_c, 0, 62, 0
4, 28909, Note_on_c, 0, 57, 0
4, 28910, Note_on_c, 0, 86, 62
4, 28911, Note_on_c, 0, 85, 0
4, 28913, Note_on_c, 0, 53, 0
4, 28915, Note_on_c, 0, 81, 0
4, 28918, Note_on_c, 0, 93, 0
4, 28918, Note_on_c, 0, 86, 0
4, 28920, Note_on_c, 0, 89, 0
4, 28921, Note_on_c, 0, 58, 0
4, 28965, Note_on_c, 0, 85, 71
4, 28966, Note_on_c, 0, 77, 66
4, 28966, Note_on_c, 0, 89, 66
4, 28967, Note_on_c, 0, 58, 56
4, 28968, Note_on_c, 0, 82, 48
4, 28968, Note_on_c, 0, 62, 62
4, 28969, Note_on_c, 0, 57, 53
4, 28970, Note_on_c, 0, 53, 54
4, 28975, Note_on_c, 0, 82, 0
4, 29009, Note_on_c, 0, 89, 0
4, 29009, Note_on_c, 0, 85, 0
4, 29015, Note_on_c, 0, 53, 0
4, 29015, Note_on_c, 0, 62, 0
4, 29016, Note_on_c, 0, 77, 0
4, 29020, Note_on_c, 0, 58, 0
4, 29022, Note_on_c, 0, 57, 0
4, 29046, Note_on_c, 0, 74, 68
4, 29047, Note_on_c, 0, 86, 58
4, 29047, Note_on_c, 0, 58, 52
4, 29048, Note_on_c, 0, 62, 37
4, 29049, Note_on_c, 0, 57, 40
4, 29050, Note_on_c, 0, 53, 48
4, 29051, Note_on_c, 0, 82, 48
4, 29069, Note_on_c, 0, 82, 0
4, 29096, Note_on_c, 0, 53, 0
4, 29099, Note_on_c, 0, 62, 0
4, 29103, Note_on_c, 0, 74, 0
4, 29106, Note_on_c, 0, 57, 0
4, 29106, Note_on_c, 0, 58, 0
4, 29108, Note_on_c, 0, 86, 0
4, 29125, Note_on_c, 0, 83, 66
4, 29127, Note_on_c, 0, 62, 37
4, 29130, Note_on_c, 0, 58, 55
4, 29137, Note_on_c, 0, 83, 0
4, 29139, Note_on_c, 0, 62, 0
4, 29146, Note_on_c, 0, 58, 0
4, 29244, Note_on_c, 0, 75, 74
4, 29245, Note_on_c, 0, 68, 78
4, 29247, Note_on_c, 0, 72, 65
4, 29247, Note_on_c, 0, 64, 71
4, 29249, Note_on_c, 0, 63, 87
4, 29265, Note_on_c, 0, 63, 0
4, 29267, Note_on_c, 0, 64, 0
4, 29270, Note_on_c, 0, 68, 0
4, 29272, Note_on_c, 0, 72, 0
4, 29274, Note_on_c, 0, 75, 0
4, 29363, Note_on_c, 0, 73, 77
4, 29363, Note_on_c, 0, 61, 70
4, 29363, Note_on_c, 0, 68, 77
4, 29366, Note_on_c, 0, 64, 68
4, 29393, Note_on_c, 0, 64, 0
4, 29394, Note_on_c, 0, 73, 0
4, 29398, Note_on_c, 0, 61, 0
4, 29400, Note_on_c, 0, 68, 0
4, 29410, Note_on_c, 0, 60, 45
4, 29411, Note_on_c, 0, 64, 29
4, 29412, Note_on_c, 0, 72, 34
4, 29416, Note_on_c, 0, 67, 36
4, 29468, Note_on_c, 0, 72, 0
4, 29475, Note_on_c, 0, 67, 0
4, 29483, Note_on_c, 0, 60, 0
4, 29483, Note_on_c, 0, 70, 48
4, 29487, Note_on_c, 0, 58, 49
4, 29503, Note_on_c, 0, 64, 0
4, 29505, Note_on_c, 0, 70, 0
4, 29512, Note_on_c, 0, 58, 0
4, 29529, Note_on_c, 0, 57, 36
4, 29532, Note_on_c, 0, 69, 47
4, 29568, Note_on_c, 0, 69, 0
4, 29601, Note_on_c, 0, 57, 0
4, 29731, Note_on_c, 0, 64, 62
4, 29734, Note_on_c, 0, 50, 53
4, 29735, Note_on_c, 0, 57, 57
4, 29737, Note_on_c, 0, 60, 57
4, 29755, Note_on_c, 0, 60, 0
4, 29756, Note_on_c, 0, 57, 0
4, 29756, Note_on_c, 0, 50, 0
4, 29768, Note_on_c, 0, 64, 0
4, 29775, Note_on_c, 0, 55, 81
4, 29777, Note_on_c, 0, 67, 73
4, 29778, Note_on_c, 0, 57, 64
4, 29779, Note_on_c, 0, 60, 70
4, 29841, Note_on_c, 0, 55, 0
4, 29847, Note_on_c, 0, 60, 0
4, 29849, Note_on_c, 0, 67, 0
4, 29850, Note_on_c, 0, 57, 0
4, 29856, Note_on_c, 0, 49, 33
4, 29881, Note_on_c, 0, 49, 0
4, 29891, Note_on_c, 0, 53, 62
4, 29896, Note_on_c, 0, 65, 70
4, 29897, Note_on_c, 0, 57, 58
4, 29897, Note_on_c, 0, 60, 63
4, 29980, Note_on_c, 0, 53, 0
4, 29981, Note_on_c, 0, 57, 0
4, 29983, Note_on_c, 0, 60, 0
4, 29992, Note_on_c, 0, 65, 0
4, 30009, Note_on_c, 0, 57, 28
4, 30010, Note_on_c, 0, 52, 46
4, 30010, Note_on_c, 0, 64, 50
4, 30013, Note_on_c, 0, 60, 38
4, 30062, Note_on_c, 0, 60, 0
4, 30068, Note_on_c, 0, 57, 0
4, 30069, Note_on_c, 0, 52, 0
4, 30078, Note_on_c, 0, 64, 0
4, 30089, Note_on_c, 0, 53, 71
4, 30090, Note_on_c, 0, 57, 61
4, 30090, Note_on_c, 0, 65, 67
4, 30091, Note_on_c, 0, 60, 56
4, 30096, Note_on_c, 0, 62, 44
4, 30142, Note_on_c, 0, 62, 0
4, 30199, Note_on_c, 0, 60, 0
4, 30213, Note_on_c, 0, 57, 0
4, 30214, Note_on_c, 0, 65, 0
4, 30235, Note_on_c, 0, 53, 0
4, 30242, Note_on_c, 0, 60, 53
4, 30246, Note_on_c, 0, 55, 36
4, 30249, Note_on_c, 0, 48, 47
4, 30249, Note_on_c, 0, 57, 48
4, 30392, Note_on_c, 0, 55, 0
4, 30400, Control_c, 0, 64, 127
4, 30411, Note_on_c, 0, 57, 0
4, 30429, Note_on_c, 0, 60, 0
4, 30582, Note_on_c, 0, 48, 0
4, 30618, Note_on_c, 0, 72, 77
4, 30643, Note_on_c, 0, 72, 0
4, 30653, Note_on_c, 0, 74, 60
4, 30678, Note_on_c, 0, 74, 0
4, 30687, Control_c, 0, 64, 0
4, 30698, Note_on_c, 0, 76, 59
4, 30699, Note_on_c, 0, 77, 49
4, 30706, Note_on_c, 0, 77, 0
4, 30710, Note_on_c, 0, 76, 0
4, 30811, Note_on_c, 0, 66, 56
4, 30813, Note_on_c, 0, 61, 51
4, 30821, Note_on_c, 0, 61, 0
4, 30824, Note_on_c, 0, 66, 0
4, 30975, Note_on_c, 0, 66, 57
4, 30977, Note_on_c, 0, 61, 49
4, 30981, Note_on_c, 0, 55, 53
4, 31262, Note_on_c, 0, 93, 89
4, 31288, Note_on_c, 0, 93, 0
4, 31300, Note_on_c, 0, 96, 87
4, 31328, Note_on_c, 0, 96, 0
4, 31335, Note_on_c, 0, 94, 74
4, 31341, Note_on_c, 0, 55, 0
4, 31362, Note_on_c, 0, 66, 0
4, 31366, Note_on_c, 0, 90, 55
4, 31373, Note_on_c, 0, 94, 0
4, 31380, Note_on_c, 0, 61, 0
4, 31396, Note_on_c, 0, 90, 0
4, 31397, Note_on_c, 0, 88, 62
4, 31412, Note_on_c, 0, 88, 0
4, 31427, Note_on_c, 0, 93, 87
4, 31455, Note_on_c, 0, 91, 71
4, 31463, Note_on_c, 0, 93, 0
4, 31482, Note_on_c, 0, 91, 0
4, 31484, Note_on_c, 0, 87, 63
4, 31516, Note_on_c, 0, 85, 43
4, 31519, Note_on_c, 0, 87, 0
4, 31529, Note_on_c, 0, 85, 0
4, 31547, Note_on_c, 0, 90, 64
4, 31574, Note_on_c, 0, 90, 0
4, 31576, Note_on_c, 0, 88, 64
4, 31610, Note_on_c, 0, 88, 0
4, 31612, Note_on_c, 0, 85, 74
4, 31631, Note_on_c, 0, 85, 0
4, 31686, Note_on_c, 0, 66, 63
4, 31690, Note_on_c, 0, 61, 47
4, 31692, Note_on_c, 0, 55, 54
4, 31701, Note_on_c, 0, 55, 0
4, 31706, Note_on_c, 0, 66, 0
4, 31712, Note_on_c, 0, 61, 0
4, 31772, Note_on_c, 0, 66, 64
4, 31774, Note_on_c, 0, 55, 64
4, 31774, Note_on_c, 0, 61, 57
4, 31784, Note_on_c, 0, 55, 0
4, 31788, Note_on_c, 0, 66, 0
4, 31797, Note_on_c, 0, 61, 0
4, 31929, Note_on_c, 0, 66, 59
4, 31931, Note_on_c, 0, 61, 49
4, 31934, Note_on_c, 0, 55, 35
4, 31939, Note_on_c, 0, 66, 0
4, 31942, Note_on_c, 0, 55, 0
4, 31947, Note_on_c, 0, 61, 0
4, 32042, Note_on_c, 0, 58, 70
4, 32042, Note_on_c, 0, 64, 73
4, 32042, Note_on_c, 0, 69, 75
4, 32159, Note_on_c, 0, 91, 113
4, 32165, Note_on_c, 0, 94, 37
4, 32172, Note_on_c, 0, 94, 0
4, 32221, Note_on_c, 0, 91, 0
4, 32237, Note_on_c, 0, 96, 99
4, 32283, Note_on_c, 0, 96, 0
4, 32298, Note_on_c, 0, 64, 0
4, 32300, Note_on_c, 0, 94, 74
4, 32302, Note_on_c, 0, 69, 0
4, 32346, Note_on_c, 0, 94, 0
4, 32347, Note_on_c, 0, 58, 0
4, 32357, Note_on_c, 0, 67, 61
4, 32357, Note_on_c, 0, 57, 64
4, 32358, Note_on_c, 0, 62, 62
4, 32361, Note_on_c, 0, 93, 79
4, 32396, Note_on_c, 0, 93, 0
4, 32426, Note_on_c, 0, 91, 50
4, 32465, Note_on_c, 0, 91, 0
4, 32478, Note_on_c, 0, 89, 80
4, 32512, Note_on_c, 0, 89, 0
4, 32531, Note_on_c, 0, 87, 62
4, 32569, Note_on_c, 0, 87, 0
4, 32589, Note_on_c, 0, 86, 70
4, 32617, Note_on_c, 0, 62, 0
4, 32620, Note_on_c, 0, 86, 0
4, 32633, Note_on_c, 0, 57, 0
4, 32640, Note_on_c, 0, 84, 53
4, 32652, Note_on_c, 0, 67, 0
4, 32673, Note_on_c, 0, 84, 0
4, 32709, Note_on_c, 0, 82, 79
4, 32710, Note_on_c, 0, 69, 44
4, 32712, Note_on_c, 0, 58, 42
4, 32713, Note_on_c, 0, 64, 51
4, 32714, Note_on_c, 0, 67, 36
4, 32721, Note_on_c, 0, 67, 0
4, 32721, Note_on_c, 0, 69, 0
4, 32726, Note_on_c, 0, 64, 0
4, 32727, Note_on_c, 0, 58, 0
4, 32738, Note_on_c, 0, 82, 0
4, 32760, Note_on_c, 0, 81, 48
4, 32818, Note_on_c, 0, 81, 0
4, 32830, Note_on_c, 0, 79, 69
4, 32843, Note_on_c, 0, 62, 33
4, 32852, Note_on_c, 0, 62, 0
4, 32859, Note_on_c, 0, 79, 0
4, 32876, Note_on_c, 0, 77, 50
4, 32907, Note_on_c, 0, 77, 0
4, 32913, Note_on_c, 0, 76, 57
4, 32937, Note_on_c, 0, 76, 0
4, 32955, Note_on_c, 0, 74, 66
4, 32959, Note_on_c, 0, 67, 46
4, 32961, Note_on_c, 0, 62, 44
4, 32966, Note_on_c, 0, 67, 0
4, 32970, Note_on_c, 0, 62, 0
4, 32988, Note_on_c, 0, 74, 0
4, 32996, Note_on_c, 0, 72, 36
4, 33021, Note_on_c, 0, 72, 0
4, 33036, Note_on_c, 0, 70, 72
4, 33057, Note_on_c, 0, 62, 31
4, 33060, Note_on_c, 0, 70, 0
4, 33067, Note_on_c, 0, 62, 0
4, 33075, Note_on_c, 0, 69, 31
4, 33111, Note_on_c, 0, 69, 0
4, 33117, Note_on_c, 0, 67, 54
4, 33148, Note_on_c, 0, 67, 0
4, 33329, Note_on_c, 0, 62, 25
4, 33338, Note_on_c, 0, 62, 0
4, 33371, Note_on_c, 0, 69, 78
4, 33389, Note_on_c, 0, 69, 0
4, 33391, Note_on_c, 0, 72, 60
4, 33421, Note_on_c, 0, 69, 50
4, 33426, Note_on_c, 0, 72, 0
4, 33437, Note_on_c, 0, 69, 0
4, 33437, Note_on_c, 0, 65, 64
4, 33455, Note_on_c, 0, 65, 0
4, 33468, Note_on_c, 0, 70, 80
4, 33491, Note_on_c, 0, 70, 0
4, 33497, Note_on_c, 0, 74, 56
4, 33519, Note_on_c, 0, 70, 45
4, 33526, Note_on_c, 0, 74, 0
4, 33539, Note_on_c, 0, 70, 0
4, 33541, Note_on_c, 0, 67, 55
4, 33563, Note_on_c, 0, 62, 29
4, 33564, Note_on_c, 0, 67, 0
4, 33565, Note_on_c, 0, 72, 80
4, 33571, Note_on_c, 0, 62, 0
4, 33589, Note_on_c, 0, 72, 0
4, 33594, Note_on_c, 0, 76, 66
4, 33621, Note_on_c, 0, 76, 0
4, 33629, Note_on_c, 0, 69, 64
4, 33648, Note_on_c, 0, 69, 0
4, 33655, Note_on_c, 0, 74, 63
4, 33664, Note_on_c, 0, 62, 38
4, 33674, Note_on_c, 0, 62, 0
4, 33675, Note_on_c, 0, 74, 0
4, 33682, Note_on_c, 0, 77, 76
4, 33708, Note_on_c, 0, 77, 0
4, 33708, Note_on_c, 0, 74, 17
4, 33713, Note_on_c, 0, 70, 56
4, 33718, Note_on_c, 0, 74, 0
4, 33730, Note_on_c, 0, 70, 0
4, 33750, Note_on_c, 0, 76, 62
4, 33768, Note_on_c, 0, 76, 0
4, 33920, Note_on_c, 0, 62, 65
4, 33921, Note_on_c, 0, 67, 50
4, 33929, Note_on_c, 0, 67, 0
4, 33931, Note_on_c, 0, 62, 0
4, 34043, Note_on_c, 0, 62, 60
4, 34052, Note_on_c, 0, 62, 0
4, 34086, Note_on_c, 0, 77, 115
4, 34154, Note_on_c, 0, 77, 0
4, 34165, Note_on_c, 0, 81, 80
4, 34166, Note_on_c, 0, 62, 60
4, 34166, Note_on_c, 0, 67, 54
4, 34173, Note_on_c, 0, 67, 0
4, 34189, Note_on_c, 0, 62, 0
4, 34208, Note_on_c, 0, 81, 0
4, 34227, Note_on_c, 0, 74, 24
4, 34280, Note_on_c, 0, 74, 0
4, 34287, Note_on_c, 0, 76, 61
4, 34297, Note_on_c, 0, 62, 38
4, 34322, Note_on_c, 0, 76, 0
4, 34323, Note_on_c, 0, 62, 0
4, 34340, Note_on_c, 0, 77, 32
4, 34391, Note_on_c, 0, 77, 0
4, 34407, Note_on_c, 0, 79, 50
4, 34407, Note_on_c, 0, 62, 58
4, 34430, Note_on_c, 0, 62, 0
4, 34441, Note_on_c, 0, 79, 0
4, 34458, Note_on_c, 0, 81, 54
4, 34520, Note_on_c, 0, 81, 0
4, 34527, Note_on_c, 0, 67, 55
4, 34529, Note_on_c, 0, 63, 38
4, 34530, Note_on_c, 0, 82, 69
4, 34530, Note_on_c, 0, 58, 35
4, 34530, Note_on_c, 0, 62, 44
4, 34539, Note_on_c, 0, 67, 0
4, 34540, Note_on_c, 0, 62, 0
4, 34548, Note_on_c, 0, 58, 0
4, 34552, Note_on_c, 0, 63, 0
4, 34567, Note_on_c, 0, 82, 0
4, 34583, Note_on_c, 0, 85, 50
4, 34588, Note_on_c, 0, 73, 55
4, 34590, Note_on_c, 0, 82, 26
4, 34598, Note_on_c, 0, 79, 25
4, 34602, Note_on_c, 0, 73, 0
4, 34605, Note_on_c, 0, 86, 34
4, 34606, Note_on_c, 0, 74, 49
4, 34611, Note_on_c, 0, 85, 0
4, 34655, Note_on_c, 0, 86, 0
4, 34660, Note_on_c, 0, 74, 0
4, 34661, Note_on_c, 0, 79, 0
4, 34676, Note_on_c, 0, 82, 0
4, 34690, Note_on_c, 0, 84, 46
4, 34693, Note_on_c, 0, 72, 27
4, 34696, Note_on_c, 0, 79, 33
4, 34700, Note_on_c, 0, 82, 23
4, 34727, Note_on_c, 0, 84, 0
4, 34733, Note_on_c, 0, 72, 0
4, 34743, Note_on_c, 0, 82, 0
4, 34744, Note_on_c, 0, 79, 0
4, 34768, Note_on_c, 0, 63, 46
4, 34768, Note_on_c, 0, 67, 45
4, 34769, Note_on_c, 0, 58, 39
4, 34769, Note_on_c, 0, 74, 56
4, 34771, Note_on_c, 0, 62, 45
4, 34772, Note_on_c, 0, 82, 32
4, 34772, Note_on_c, 0, 86, 49
4, 34777, Note_on_c, 0, 79, 34
4, 34793, Note_on_c, 0, 86, 0
4, 34800, Note_on_c, 0, 74, 0
4, 34811, Note_on_c, 0, 79, 0
4, 34813, Note_on_c, 0, 82, 0
4, 34826, Note_on_c, 0, 84, 33
4, 34828, Note_on_c, 0, 72, 36
4, 34852, Note_on_c, 0, 72, 0
4, 34854, Note_on_c, 0, 84, 0
4, 34856, Note_on_c, 0, 67, 0
4, 34858, Note_on_c, 0, 62, 0
4, 34861, Note_on_c, 0, 58, 0
4, 34863, Note_on_c, 0, 63, 0
4, 35002, Note_on_c, 0, 67, 55
4, 35003, Note_on_c, 0, 63, 47
4, 35004, Note_on_c, 0, 57, 55
4, 35008, Note_on_c, 0, 61, 33
4, 35012, Note_on_c, 0, 67, 0
4, 35013, Note_on_c, 0, 57, 0
4, 35015, Note_on_c, 0, 61, 0
4, 35023, Note_on_c, 0, 63, 0
4, 35137, Note_on_c, 0, 61, 18
4, 35155, Note_on_c, 0, 61, 0
4, 35249, Note_on_c, 0, 63, 62
4, 35251, Note_on_c, 0, 68, 56
4, 35252, Note_on_c, 0, 57, 66
4, 35252, Note_on_c, 0, 66, 49
4, 35254, Note_on_c, 0, 93, 103
4, 35262, Note_on_c, 0, 68, 0
4, 35293, Note_on_c, 0, 93, 0
4, 35319, Note_on_c, 0, 90, 59
4, 35344, Note_on_c, 0, 66, 0
4, 35346, Note_on_c, 0, 57, 0
4, 35356, Note_on_c, 0, 90, 0
4, 35357, Note_on_c, 0, 63, 0
4, 35374, Note_on_c, 0, 89, 81
4, 35374, Note_on_c, 0, 63, 59
4, 35375, Note_on_c, 0, 66, 71
4, 35379, Note_on_c, 0, 57, 63
4, 35382, Note_on_c, 0, 61, 44
4, 35403, Note_on_c, 0, 89, 0
4, 35429, Note_on_c, 0, 86, 46
4, 35448, Note_on_c, 0, 57, 0
4, 35461, Note_on_c, 0, 66, 0
4, 35474, Note_on_c, 0, 86, 0
4, 35479, Note_on_c, 0, 63, 0
4, 35481, Note_on_c, 0, 61, 0
4, 35488, Note_on_c, 0, 62, 49
4, 35492, Note_on_c, 0, 84, 84
4, 35492, Note_on_c, 0, 65, 64
4, 35494, Note_on_c, 0, 60, 38
4, 35498, Note_on_c, 0, 55, 58
4, 35517, Note_on_c, 0, 84, 0
4, 35541, Note_on_c, 0, 82, 43
4, 35603, Note_on_c, 0, 82, 0
4, 35626, Note_on_c, 0, 81, 40
4, 35636, Note_on_c, 0, 81, 0
4, 35654, Note_on_c, 0, 84, 91
4, 35699, Note_on_c, 0, 65, 0
4, 35719, Note_on_c, 0, 62, 0
4, 35732, Note_on_c, 0, 62, 33
4, 35735, Note_on_c, 0, 84, 0
4, 35737, Note_on_c, 0, 81, 40
4, 35749, Note_on_c, 0, 81, 0
4, 35763, Note_on_c, 0, 55, 0
4, 35774, Note_on_c, 0, 82, 75
4, 35793, Note_on_c, 0, 60, 0
4, 35809, Note_on_c, 0, 62, 0
4, 35837, Note_on_c, 0, 82, 0
4, 35848, Note_on_c, 0, 62, 53
4, 35849, Note_on_c, 0, 84, 74
4, 35851, Note_on_c, 0, 65, 60
4, 35852, Note_on_c, 0, 60, 47
4, 35862, Note_on_c, 0, 55, 20
4, 35876, Note_on_c, 0, 65, 0
4, 35882, Note_on_c, 0, 84, 0
4, 35892, Note_on_c, 0, 62, 0
4, 35896, Note_on_c, 0, 81, 63
4, 35910, Note_on_c, 0, 55, 0
4, 35917, Note_on_c, 0, 81, 0
4, 35917, Note_on_c, 0, 60, 0
4, 35926, Note_on_c, 0, 77, 57
4, 35954, Note_on_c, 0, 77, 0
4, 35955, Note_on_c, 0, 73, 60
4, 35981, Note_on_c, 0, 73, 0
4, 35991, Note_on_c, 0, 72, 41
4, 36005, Note_on_c, 0, 61, 32
4, 36006, Note_on_c, 0, 55, 40
4, 36008, Note_on_c, 0, 65, 36
4, 36023, Note_on_c, 0, 72, 0
4, 36031, Note_on_c, 0, 70, 53
4, 36117, Note_on_c, 0, 70, 0
4, 36151, Note_on_c, 0, 55, 0
4, 36152, Note_on_c, 0, 65, 0
4, 36162, Note_on_c, 0, 61, 0
4, 36207, Note_on_c, 0, 61, 46
4, 36208, Note_on_c, 0, 65, 49
4, 36208, Note_on_c, 0, 55, 55
4, 36218, Note_on_c, 0, 65, 0
4, 36235, Note_on_c, 0, 55, 0
4, 36261, Note_on_c, 0, 61, 0
4, 36332, Note_on_c, 0, 61, 69
4, 36335, Note_on_c, 0, 69, 77
4, 36336, Note_on_c, 0, 65, 64
4, 36339, Note_on_c, 0, 55, 48
4, 36344, Note_on_c, 0, 65, 0
4, 36361, Note_on_c, 0, 55, 0
4, 36367, Note_on_c, 0, 61, 0
4, 36369, Note_on_c, 0, 69, 0
4, 36387, Note_on_c, 0, 70, 57
4, 36443, Note_on_c, 0, 70, 0
4, 36453, Note_on_c, 0, 62, 60
4, 36455, Note_on_c, 0, 72, 70
4, 36456, Note_on_c, 0, 58, 47
4, 36456, Note_on_c, 0, 53, 48
4, 36457, Note_on_c, 0, 57, 40
4, 36466, Note_on_c, 0, 57, 0
4, 36478, Note_on_c, 0, 62, 0
4, 36479, Note_on_c, 0, 72, 0
4, 36498, Note_on_c, 0, 67, 63
4, 36506, Note_on_c, 0, 68, 63
4, 36512, Note_on_c, 0, 58, 0
4, 36513, Note_on_c, 0, 67, 0
4, 36534, Note_on_c, 0, 68, 0
4, 36545, Note_on_c, 0, 69, 28
4, 36569, Note_on_c, 0, 69, 0
4, 36582, Note_on_c, 0, 62, 69
4, 36585, Note_on_c, 0, 57, 24
4, 36588, Note_on_c, 0, 58, 25
4, 36599, Note_on_c, 0, 62, 0
4, 36607, Note_on_c, 0, 58, 0
4, 36614, Note_on_c, 0, 65, 87
4, 36641, Note_on_c, 0, 57, 0
4, 36668, Note_on_c, 0, 53, 0
4, 36680, Note_on_c, 0, 65, 0
4, 36816, Note_on_c, 0, 72, 90
4, 36817, Note_on_c, 0, 62, 57
4, 36819, Note_on_c, 0, 58, 45
4, 36820, Note_on_c, 0, 53, 48
4, 36821, Note_on_c, 0, 57, 47
4, 36829, Note_on_c, 0, 62, 0
4, 36840, Note_on_c, 0, 72, 0
4, 36847, Note_on_c, 0, 58, 0
4, 36860, Note_on_c, 0, 67, 67
4, 36866, Note_on_c, 0, 57, 0
4, 36870, Note_on_c, 0, 53, 0
4, 36870, Note_on_c, 0, 68, 51
4, 36878, Note_on_c, 0, 67, 0
4, 36894, Note_on_c, 0, 68, 0
4, 36899, Note_on_c, 0, 69, 59
4, 36911, Note_on_c, 0, 69, 0
4, 36934, Note_on_c, 0, 62, 79
4, 36977, Note_on_c, 0, 62, 0
4, 37003, Note_on_c, 0, 65, 80
4, 37044, Note_on_c, 0, 65, 0
4, 37050, Note_on_c, 0, 63, 79
4, 37053, Note_on_c, 0, 58, 61
4, 37054, Note_on_c, 0, 52, 58
4, 37062, Note_on_c, 0, 52, 0
4, 37065, Note_on_c, 0, 63, 0
4, 37072, Note_on_c, 0, 58, 0
4, 37160, Note_on_c, 0, 36, 80
4, 37171, Note_on_c, 0, 72, 96
4, 37178, Note_on_c, 0, 36, 0
4, 37200, Note_on_c, 0, 72, 0
4, 37232, Note_on_c, 0, 67, 60
4, 37235, Note_on_c, 0, 68, 62
4, 37242, Note_on_c, 0, 67, 0
4, 37251, Note_on_c, 0, 68, 0
4, 37252, Note_on_c, 0, 69, 67
4, 37278, Note_on_c, 0, 69, 0
4, 37306, Note_on_c, 0, 63, 69
4, 37310, Note_on_c, 0, 52, 44
4, 37311, Note_on_c, 0, 58, 37
4, 37313, Note_on_c, 0, 62, 68
4, 37315, Note_on_c, 0, 63, 0
4, 37319, Note_on_c, 0, 58, 0
4, 37320, Note_on_c, 0, 52, 0
4, 37385, Note_on_c, 0, 62, 0
4, 37399, Note_on_c, 0, 46, 46
4, 37400, Note_on_c, 0, 65, 75
4, 37400, Note_on_c, 0, 48, 62
4, 37404, Note_on_c, 0, 47, 67
4, 37406, Note_on_c, 0, 46, 0
4, 37408, Note_on_c, 0, 45, 31
4, 37411, Note_on_c, 0, 47, 0
4, 37416, Note_on_c, 0, 45, 0
4, 37505, Note_on_c, 0, 65, 0
4, 37515, Note_on_c, 0, 47, 35
4, 37524, Note_on_c, 0, 47, 0
4, 37524, Note_on_c, 0, 67, 72
4, 37554, Note_on_c, 0, 67, 0
4, 37571, Note_on_c, 0, 65, 62
4, 37638, Note_on_c, 0, 65, 0
4, 37649, Note_on_c, 0, 62, 43
4, 37659, Note_on_c, 0, 62, 0
4, 37687, Note_on_c, 0, 67, 80
4, 37692, Note_on_c, 0, 48, 0
4, 37759, Note_on_c, 0, 67, 0
4, 37765, Note_on_c, 0, 47, 68
4, 37769, Note_on_c, 0, 48, 52
4, 37771, Note_on_c, 0, 65, 62
4, 37773, Note_on_c, 0, 47, 0
4, 37802, Note_on_c, 0, 65, 0
4, 37817, Note_on_c, 0, 62, 44
4, 37884, Note_on_c, 0, 47, 22
4, 37894, Note_on_c, 0, 47, 0
4, 37897, Note_on_c, 0, 62, 0
4, 37907, Note_on_c, 0, 60, 30
4, 37915, Note_on_c, 0, 60, 0
4, 37943, Note_on_c, 0, 67, 68
4, 37950, Note_on_c, 0, 48, 0
4, 38011, Note_on_c, 0, 48, 79
4, 38013, Note_on_c, 0, 47, 69
4, 38022, Note_on_c, 0, 47, 0
4, 38123, Note_on_c, 0, 67, 0
4, 38134, Note_on_c, 0, 65, 88
4, 38190, Note_on_c, 0, 48, 0
4, 38247, Note_on_c, 0, 48, 87
4, 38264, Note_on_c, 0, 48, 0
4, 38404, Note_on_c, 0, 65, 0
4, 38414, Note_on_c, 0, 64, 40
4, 38416, Note_on_c, 0, 57, 38
4, 38417, Note_on_c, 0, 62, 29
4, 38544, Note_on_c, 0, 69, 51
4, 38560, Note_on_c, 0, 69, 0
4, 38578, Note_on_c, 0, 74, 53
4, 38601, Note_on_c, 0, 74, 0
4, 38693, Note_on_c, 0, 64, 0
4, 38700, Note_on_c, 0, 57, 0
4, 38710, Note_on_c, 0, 62, 0
4, 38722, Note_on_c, 0, 64, 55
4, 38725, Note_on_c, 0, 62, 44
4, 38726, Note_on_c, 0, 57, 39
4, 38766, Note_on_c, 0, 69, 66
4, 38780, Note_on_c, 0, 69, 0
4, 38791, Note_on_c, 0, 71, 62
4, 38810, Note_on_c, 0, 71, 0
4, 38818, Note_on_c, 0, 71, 60
4, 38840, Note_on_c, 0, 71, 0
4, 38845, Note_on_c, 0, 72, 80
4, 38865, Note_on_c, 0, 72, 0
4, 38874, Note_on_c, 0, 72, 71
4, 38896, Note_on_c, 0, 72, 0
4, 38900, Note_on_c, 0, 74, 69
4, 38906, Note_on_c, 0, 62, 0
4, 38916, Note_on_c, 0, 64, 0
4, 38917, Note_on_c, 0, 74, 0
4, 38921, Note_on_c, 0, 57, 0
4, 38927, Note_on_c, 0, 74, 63
4, 38945, Note_on_c, 0, 74, 0
4, 38953, Note_on_c, 0, 76, 73
4, 38976, Note_on_c, 0, 76, 0
4, 38985, Note_on_c, 0, 76, 78
4, 38994, Note_on_c, 0, 62, 59
4, 38994, Note_on_c, 0, 67, 55
4, 38997, Note_on_c, 0, 56, 43
4, 39005, Note_on_c, 0, 76, 0
4, 39024, Note_on_c, 0, 67, 0
4, 39029, Note_on_c, 0, 62, 0
4, 39037, Note_on_c, 0, 56, 0
4, 39210, Note_on_c, 0, 65, 71
4, 39211, Note_on_c, 0, 62, 57
4, 39213, Note_on_c, 0, 56, 45
4, 39217, Note_on_c, 0, 65, 0
4, 39221, Note_on_c, 0, 62, 0
4, 39227, Note_on_c, 0, 56, 0
4, 39254, Note_on_c, 0, 69, 55
4, 39265, Note_on_c, 0, 69, 0
4, 39287, Note_on_c, 0, 71, 64
4, 39305, Note_on_c, 0, 71, 0
4, 39326, Note_on_c, 0, 64, 77
4, 39327, Note_on_c, 0, 62, 65
4, 39328, Note_on_c, 0, 57, 66
4, 39431, Note_on_c, 0, 69, 83
4, 39451, Note_on_c, 0, 69, 0
4, 39467, Note_on_c, 0, 71, 73
4, 39487, Note_on_c, 0, 64, 0
4, 39490, Note_on_c, 0, 71, 0
4, 39491, Note_on_c, 0, 57, 0
4, 39495, Note_on_c, 0, 62, 0
4, 39509, Note_on_c, 0, 71, 73
4, 39514, Note_on_c, 0, 64, 68
4, 39514, Note_on_c, 0, 57, 59
4, 39514, Note_on_c, 0, 62, 66
4, 39535, Note_on_c, 0, 71, 0
4, 39545, Note_on_c, 0, 72, 73
4, 39551, Note_on_c, 0, 64, 0
4, 39555, Note_on_c, 0, 62, 0
4, 39555, Note_on_c, 0, 57, 0
4, 39568, Note_on_c, 0, 72, 0
4, 39586, Note_on_c, 0, 57, 73
4, 39586, Note_on_c, 0, 64, 77
4, 39586, Note_on_c, 0, 62, 48
4, 39587, Note_on_c, 0, 72, 82
4, 39616, Note_on_c, 0, 72, 0
4, 39625, Note_on_c, 0, 64, 0
4, 39625, Note_on_c, 0, 74, 63
4, 39627, Note_on_c, 0, 62, 0
4, 39628, Note_on_c, 0, 57, 0
4, 39648, Note_on_c, 0, 74, 0
4, 39662, Note_on_c, 0, 74, 89
4, 39663, Note_on_c, 0, 64, 76
4, 39663, Note_on_c, 0, 57, 74
4, 39665, Note_on_c, 0, 62, 62
4, 39689, Note_on_c, 0, 74, 0
4, 39695, Note_on_c, 0, 64, 0
4, 39695, Note_on_c, 0, 76, 51
4, 39698, Note_on_c, 0, 57, 0
4, 39699, Note_on_c, 0, 62, 0
4, 39721, Note_on_c, 0, 76, 0
4, 39732, Note_on_c, 0, 57, 67
4, 39733, Note_on_c, 0, 64, 69
4, 39734, Note_on_c, 0, 76, 87
4, 39734, Note_on_c, 0, 62, 42
4, 39753, Note_on_c, 0, 64, 0
4, 39757, Note_on_c, 0, 62, 0
4, 39758, Note_on_c, 0, 76, 0
4, 39768, Note_on_c, 0, 77, 68
4, 39788, Note_on_c, 0, 57, 0
4, 39791, Note_on_c, 0, 77, 0
4, 39808, Note_on_c, 0, 77, 82
4, 39812, Note_on_c, 0, 62, 71
4, 39814, Note_on_c, 0, 56, 78
4, 39815, Note_on_c, 0, 67, 75
4, 39816, Note_on_c, 0, 65, 64
4, 39823, Note_on_c, 0, 65, 0
4, 39836, Note_on_c, 0, 77, 0
4, 39843, Note_on_c, 0, 67, 0
4, 39844, Note_on_c, 0, 79, 54
4, 39855, Note_on_c, 0, 56, 0
4, 39863, Note_on_c, 0, 62, 0
4, 39867, Note_on_c, 0, 79, 0
4, 39885, Note_on_c, 0, 79, 72
4, 39886, Note_on_c, 0, 62, 71
4, 39888, Note_on_c, 0, 67, 74
4, 39888, Note_on_c, 0, 56, 69
4, 39902, Note_on_c, 0, 67, 0
4, 39906, Note_on_c, 0, 56, 0
4, 39907, Note_on_c, 0, 79, 0
4, 39910, Note_on_c, 0, 62, 0
4, 39920, Note_on_c, 0, 81, 78
4, 39925, Note_on_c, 0, 56, 61
4, 39926, Note_on_c, 0, 62, 81
4, 39926, Note_on_c, 0, 67, 50
4, 39945, Note_on_c, 0, 67, 0
4, 39945, Note_on_c, 0, 81, 0
4, 39951, Note_on_c, 0, 56, 0
4, 39957, Note_on_c, 0, 62, 0
4, 39964, Note_on_c, 0, 81, 71
4, 39965, Note_on_c, 0, 67, 55
4, 39966, Note_on_c, 0, 62, 51
4, 39966, Note_on_c, 0, 56, 69
4, 39967, Note_on_c, 0, 83, 47
4, 39975, Note_on_c, 0, 83, 0
4, 40021, Note_on_c, 0, 67, 0
4, 40027, Note_on_c, 0, 56, 0
4, 40028, Note_on_c, 0, 62, 0
4, 40029, Note_on_c, 0, 81, 0
4, 40043, Note_on_c, 0, 67, 60
4, 40044, Note_on_c, 0, 56, 63
4, 40045, Note_on_c, 0, 62, 84
4, 40046, Note_on_c, 0, 83, 83
4, 40078, Note_on_c, 0, 67, 0
4, 40079, Note_on_c, 0, 83, 0
4, 40100, Note_on_c, 0, 84, 71
4, 40126, Note_on_c, 0, 62, 0
4, 40141, Note_on_c, 0, 56, 0
4, 40144, Note_on_c, 0, 84, 0
4, 40151, Note_on_c, 0, 56, 14
4, 40156, Note_on_c, 0, 62, 58
4, 40159, Note_on_c, 0, 86, 80
4, 40159, Note_on_c, 0, 67, 71
4, 40182, Note_on_c, 0, 62, 0
4, 40183, Note_on_c, 0, 86, 0
4, 40185, Note_on_c, 0, 56, 0
4, 40208, Note_on_c, 0, 87, 74
4, 40227, Note_on_c, 0, 67, 0
4, 40263, Note_on_c, 0, 87, 0
4, 40277, Note_on_c, 0, 62, 52
4, 40277, Note_on_c, 0, 67, 48
4, 40278, Note_on_c, 0, 63, 52
4, 40279, Note_on_c, 0, 58, 46
4, 40282, Note_on_c, 0, 89, 88
4, 40301, Note_on_c, 0, 67, 0
4, 40313, Note_on_c, 0, 62, 0
4, 40314, Note_on_c, 0, 58, 0
4, 40315, Note_on_c, 0, 63, 0
4, 40352, Note_on_c, 0, 86, 48
4, 40361, Note_on_c, 0, 89, 0
4, 40397, Note_on_c, 0, 86, 0
4, 40409, Note_on_c, 0, 87, 82
4, 40446, Note_on_c, 0, 87, 0
4, 40458, Note_on_c, 0, 86, 55
4, 40514, Note_on_c, 0, 86, 0
4, 40522, Note_on_c, 0, 63, 50
4, 40522, Note_on_c, 0, 62, 51
4, 40524, Note_on_c, 0, 67, 58
4, 40526, Note_on_c, 0, 57, 62
4, 40526, Note_on_c, 0, 84, 74
4, 40559, Note_on_c, 0, 84, 0
4, 40589, Note_on_c, 0, 82, 57
4, 40625, Note_on_c, 0, 82, 0
4, 40658, Note_on_c, 0, 81, 101
4, 40681, Note_on_c, 0, 67, 0
4, 40692, Note_on_c, 0, 57, 0
4, 40695, Note_on_c, 0, 81, 0
4, 40703, Note_on_c, 0, 82, 51
4, 40709, Note_on_c, 0, 63, 0
4, 40721, Note_on_c, 0, 62, 0
4, 40732, Note_on_c, 0, 81, 63
4, 40734, Note_on_c, 0, 82, 0
4, 40762, Note_on_c, 0, 81, 0
4, 40767, Note_on_c, 0, 79, 75
4, 40771, Note_on_c, 0, 62, 31
4, 40783, Note_on_c, 0, 62, 0
4, 40787, Note_on_c, 0, 79, 0
4, 40805, Note_on_c, 0, 77, 77
4, 40847, Note_on_c, 0, 77, 0
4, 40891, Note_on_c, 0, 75, 88
4, 40925, Note_on_c, 0, 75, 0
4, 40942, Note_on_c, 0, 74, 61
4, 41009, Note_on_c, 0, 72, 67
4, 41016, Note_on_c, 0, 74, 0
4, 41029, Note_on_c, 0, 72, 0
4, 41049, Note_on_c, 0, 74, 68
4, 41120, Note_on_c, 0, 65, 75
4, 41124, Note_on_c, 0, 60, 51
4, 41125, Note_on_c, 0, 54, 33
4, 41132, Note_on_c, 0, 65, 0
4, 41133, Note_on_c, 0, 60, 0
4, 41135, Note_on_c, 0, 54, 0
4, 41278, Note_on_c, 0, 60, 66
4, 41279, Note_on_c, 0, 65, 78
4, 41279, Note_on_c, 0, 54, 74
4, 41341, Note_on_c, 0, 74, 0
4, 41468, Note_on_c, 0, 60, 0
4, 41494, Note_on_c, 0, 60, 44
4, 41515, Note_on_c, 0, 65, 0
4, 41523, Note_on_c, 0, 72, 72
4, 41531, Note_on_c, 0, 73, 62
4, 41539, Note_on_c, 0, 60, 0
4, 41556, Note_on_c, 0, 74, 48
4, 41558, Note_on_c, 0, 73, 0
4, 41561, Note_on_c, 0, 72, 0
4, 41578, Note_on_c, 0, 54, 0
4, 41586, Note_on_c, 0, 74, 0
4, 41598, Note_on_c, 0, 54, 53
4, 41599, Note_on_c, 0, 65, 59
4, 41602, Note_on_c, 0, 60, 60
4, 41607, Note_on_c, 0, 77, 89
4, 41622, Note_on_c, 0, 65, 0
4, 41696, Note_on_c, 0, 60, 0
4, 41697, Note_on_c, 0, 54, 0
4, 41706, Note_on_c, 0, 77, 0
4, 41723, Note_on_c, 0, 74, 91
4, 41726, Note_on_c, 0, 64, 71
4, 41727, Note_on_c, 0, 60, 64
4, 41728, Note_on_c, 0, 54, 68
4, 41745, Note_on_c, 0, 64, 0
4, 41753, Note_on_c, 0, 54, 0
4, 41753, Note_on_c, 0, 60, 0
4, 41758, Note_on_c, 0, 74, 0
4, 41843, Note_on_c, 0, 72, 88
4, 41848, Note_on_c, 0, 64, 68
4, 41848, Note_on_c, 0, 60, 62
4, 41850, Note_on_c, 0, 54, 62
4, 41865, Note_on_c, 0, 64, 0
4, 41868, Note_on_c, 0, 72, 0
4, 41900, Note_on_c, 0, 68, 55
4, 41900, Note_on_c, 0, 72, 63
4, 41905, Note_on_c, 0, 60, 0
4, 41933, Note_on_c, 0, 68, 0
4, 41944, Note_on_c, 0, 69, 28
4, 41970, Note_on_c, 0, 60, 27
4, 41975, Note_on_c, 0, 69, 0
4, 41981, Note_on_c, 0, 60, 0
4, 41986, Note_on_c, 0, 72, 0
4, 42012, Note_on_c, 0, 62, 71
4, 42040, Note_on_c, 0, 54, 0
4, 42084, Note_on_c, 0, 62, 0
4, 42091, Note_on_c, 0, 66, 74
4, 42091, Note_on_c, 0, 54, 62
4, 42131, Note_on_c, 0, 66, 0
4, 42137, Note_on_c, 0, 54, 0
4, 42148, Note_on_c, 0, 62, 20
4, 42196, Note_on_c, 0, 62, 0
4, 42213, Note_on_c, 0, 53, 60
4, 42222, Note_on_c, 0, 53, 0
4, 42227, Note_on_c, 0, 60, 31
4, 42263, Note_on_c, 0, 60, 0
4, 42279, Note_on_c, 0, 58, 48
4, 42349, Note_on_c, 0, 58, 0
4, 42370, Note_on_c, 0, 57, 60
4, 42438, Note_on_c, 0, 57, 0
4, 42447, Note_on_c, 0, 58, 79
4, 42498, Note_on_c, 0, 58, 0
4, 42576, Note_on_c, 0, 70, 84
4, 42576, Note_on_c, 0, 65, 84
4, 42578, Note_on_c, 0, 55, 79
4, 42578, Note_on_c, 0, 60, 71
4, 42579, Note_on_c, 0, 62, 68
4, 42586, Note_on_c, 0, 62, 0
4, 42592, Note_on_c, 0, 62, 24
4, 42606, Note_on_c, 0, 62, 0
4, 42607, Note_on_c, 0, 70, 0
4, 42609, Note_on_c, 0, 65, 0
4, 42609, Note_on_c, 0, 60, 0
4, 42629, Note_on_c, 0, 69, 54
4, 42632, Note_on_c, 0, 54, 48
4, 42635, Note_on_c, 0, 55, 0
4, 42696, Note_on_c, 0, 69, 0
4, 42700, Note_on_c, 0, 54, 0
4, 42702, Note_on_c, 0, 70, 75
4, 42703, Note_on_c, 0, 55, 71
4, 42704, Note_on_c, 0, 65, 74
4, 42705, Note_on_c, 0, 69, 20
4, 42725, Note_on_c, 0, 55, 0
4, 42728, Note_on_c, 0, 69, 0
4, 42731, Note_on_c, 0, 70, 0
4, 42736, Note_on_c, 0, 65, 0
4, 42767, Note_on_c, 0, 70, 72
4, 42769, Note_on_c, 0, 61, 64
4, 42770, Note_on_c, 0, 65, 78
4, 42775, Note_on_c, 0, 57, 44
4, 42836, Note_on_c, 0, 61, 0
4, 42840, Note_on_c, 0, 70, 0
4, 42840, Note_on_c, 0, 65, 0
4, 42842, Note_on_c, 0, 57, 0
4, 42851, Note_on_c, 0, 69, 56
4, 42856, Note_on_c, 0, 61, 19
4, 42856, Note_on_c, 0, 55, 53
4, 42857, Note_on_c, 0, 65, 24
4, 42886, Note_on_c, 0, 65, 0
4, 42906, Note_on_c, 0, 61, 0
4, 42914, Note_on_c, 0, 69, 0
4, 42930, Note_on_c, 0, 70, 69
4, 42931, Note_on_c, 0, 65, 76
4, 42932, Note_on_c, 0, 61, 57
4, 42932, Note_on_c, 0, 57, 64
4, 42943, Note_on_c, 0, 55, 0
4, 43067, Note_on_c, 0, 57, 0
4, 43069, Note_on_c, 0, 61, 0
4, 43073, Note_on_c, 0, 65, 0
4, 43091, Note_on_c, 0, 70, 0
4, 43180, Note_on_c, 0, 86, 90
4, 43181, Note_on_c, 0, 74, 87
4, 43215, Note_on_c, 0, 86, 0
4, 43216, Note_on_c, 0, 74, 0
4, 43238, Note_on_c, 0, 84, 57
4, 43244, Note_on_c, 0, 72, 56
4, 43302, Note_on_c, 0, 84, 0
4, 43307, Note_on_c, 0, 72, 0
4, 43334, Note_on_c, 0, 83, 53
4, 43375, Note_on_c, 0, 83, 0
4, 43418, Note_on_c, 0, 84, 74
4, 43420, Note_on_c, 0, 72, 75
4, 43435, Note_on_c, 0, 72, 0
4, 43435, Note_on_c, 0, 84, 0
4, 43496, Note_on_c, 0, 61, 57
4, 43497, Note_on_c, 0, 81, 74
4, 43499, Note_on_c, 0, 64, 50
4, 43501, Note_on_c, 0, 69, 70
4, 43504, Note_on_c, 0, 73, 47
4, 43505, Note_on_c, 0, 76, 37
4, 43528, Note_on_c, 0, 76, 0
4, 43538, Note_on_c, 0, 73, 0
4, 43556, Note_on_c, 0, 61, 0
4, 43556, Note_on_c, 0, 64, 0
4, 43556, Note_on_c, 0, 81, 0
4, 43559, Note_on_c, 0, 69, 0
4, 43575, Note_on_c, 0, 61, 46
4, 43577, Note_on_c, 0, 76, 37
4, 43641, Note_on_c, 0, 76, 0
4, 43653, Note_on_c, 0, 79, 74
4, 43653, Note_on_c, 0, 62, 67
4, 43654, Note_on_c, 0, 61, 0
4, 43656, Note_on_c, 0, 69, 71
4, 43657, Note_on_c, 0, 72, 67
4, 43677, Note_on_c, 0, 72, 0
4, 43681, Note_on_c, 0, 69, 0
4, 43686, Note_on_c, 0, 79, 0
4, 43689, Note_on_c, 0, 62, 0
4, 43736, Note_on_c, 0, 77, 71
4, 43737, Note_on_c, 0, 60, 53
4, 43740, Note_on_c, 0, 69, 68
4, 43741, Note_on_c, 0, 72, 51
4, 43761, Note_on_c, 0, 72, 0
4, 43765, Note_on_c, 0, 77, 0
4, 43773, Note_on_c, 0, 69, 0
4, 43796, Note_on_c, 0, 60, 0
4, 43811, Note_on_c, 0, 74, 71
4, 43813, Note_on_c, 0, 54, 72
4, 43814, Note_on_c, 0, 65, 72
4, 43858, Note_on_c, 0, 74, 0
4, 43862, Note_on_c, 0, 65, 0
4, 43865, Note_on_c, 0, 54, 0
4, 43893, Note_on_c, 0, 70, 74
4, 43897, Note_on_c, 0, 54, 69
4, 43897, Note_on_c, 0, 60, 46
4, 43898, Note_on_c, 0, 62, 60
4, 43929, Note_on_c, 0, 54, 0
4, 43942, Note_on_c, 0, 60, 0
4, 43950, Note_on_c, 0, 62, 0
4, 44008, Note_on_c, 0, 65, 74
4, 44009, Note_on_c, 0, 60, 62
4, 44010, Note_on_c, 0, 54, 71
4, 44023, Note_on_c, 0, 43, 26
4, 44031, Note_on_c, 0, 43, 0
4, 44063, Note_on_c, 0, 54, 0
4, 44107, Note_on_c, 0, 70, 0
4, 44127, Note_on_c, 0, 65, 0
4, 44134, Note_on_c, 0, 60, 0
4, 44134, Note_on_c, 0, 50, 55
4, 44160, Note_on_c, 0, 50, 0
4, 44169, Note_on_c, 0, 64, 66
4, 44169, Note_on_c, 0, 53, 54
4, 44171, Note_on_c, 0, 59, 52
4, 44234, Note_on_c, 0, 64, 0
4, 44235, Note_on_c, 0, 59, 0
4, 44266, Note_on_c, 0, 53, 0
4, 44285, Note_on_c, 0, 63, 58
4, 44285, Note_on_c, 0, 52, 48
4, 44285, Note_on_c, 0, 58, 58
4, 44355, Note_on_c, 0, 58, 0
4, 44359, Note_on_c, 0, 63, 0
4, 44361, Note_on_c, 0, 52, 0
4, 44369, Note_on_c, 0, 53, 53
4, 44396, Note_on_c, 0, 53, 0
4, 44412, Note_on_c, 0, 59, 48
4, 44413, Note_on_c, 0, 50, 57
4, 44415, Note_on_c, 0, 62, 55
4, 44461, Note_on_c, 0, 59, 0
4, 44475, Note_on_c, 0, 62, 0
4, 44492, Note_on_c, 0, 50, 0
4, 44493, Note_on_c, 0, 65, 69
4, 44493, Note_on_c, 0, 59, 53
4, 44493, Note_on_c, 0, 53, 61
4, 44493, Note_on_c, 0, 62, 67
4, 44501, Note_on_c, 0, 59, 0
4, 44502, Note_on_c, 0, 62, 0
4, 44506, Note_on_c, 0, 53, 0
4, 44512, Note_on_c, 0, 65, 0
4, 44606, Note_on_c, 0, 58, 77
4, 44607, Note_on_c, 0, 61, 68
4, 44608, Note_on_c, 0, 69, 66
4, 44608, Note_on_c, 0, 64, 66
4, 44610, Note_on_c, 0, 57, 78
4, 44625, Note_on_c, 0, 58, 0
4, 44627, Note_on_c, 0, 57, 0
4, 44630, Note_on_c, 0, 61, 0
4, 44630, Note_on_c, 0, 64, 0
4, 44634, Note_on_c, 0, 69, 0
4, 44726, Note_on_c, 0, 70, 74
4, 44726, Note_on_c, 0, 67, 69
4, 44726, Note_on_c, 0, 75, 80
4, 44727, Note_on_c, 0, 64, 75
4, 44727, Note_on_c, 0, 63, 82
4, 44746, Note_on_c, 0, 63, 0
4, 44746, Note_on_c, 0, 64, 0
4, 44747, Note_on_c, 0, 67, 0
4, 44754, Note_on_c, 0, 70, 0
4, 44757, Note_on_c, 0, 75, 0
4, 44848, Note_on_c, 0, 81, 81
4, 44850, Note_on_c, 0, 73, 78
4, 44852, Note_on_c, 0, 76, 65
4, 44852, Note_on_c, 0, 71, 70
4, 44852, Note_on_c, 0, 70, 61
4, 44852, Note_on_c, 0, 69, 74
4, 44859, Note_on_c, 0, 71, 0
4, 44869, Note_on_c, 0, 70, 0
4, 44874, Note_on_c, 0, 73, 0
4, 44876, Note_on_c, 0, 69, 0
4, 44881, Note_on_c, 0, 81, 0
4, 44881, Note_on_c, 0, 76, 0
4, 44963, Note_on_c, 0, 76, 71
4, 44963, Note_on_c, 0, 73, 76
4, 44963, Note_on_c, 0, 70, 83
4, 44964, Note_on_c, 0, 64, 80
4, 44983, Note_on_c, 0, 64, 0
4, 44985, Note_on_c, 0, 70, 0
4, 44992, Note_on_c, 0, 73, 0
4, 44995, Note_on_c, 0, 76, 0
4, 45084, Note_on_c, 0, 79, 90
4, 45084, Note_on_c, 0, 74, 85
4, 45084, Note_on_c, 0, 84, 87
4, 45085, Note_on_c, 0, 69, 87
4, 45104, Note_on_c, 0, 69, 0
4, 45111, Note_on_c, 0, 84, 0
4, 45116, Note_on_c, 0, 74, 0
4, 45117, Note_on_c, 0, 79, 0
4, 45203, Note_on_c, 0, 76, 71
4, 45204, Note_on_c, 0, 60, 77
4, 45206, Note_on_c, 0, 72, 77
4, 45206, Note_on_c, 0, 69, 81
4, 45220, Note_on_c, 0, 69, 0
4, 45221, Note_on_c, 0, 72, 0
4, 45222, Note_on_c, 0, 60, 0
4, 45230, Note_on_c, 0, 76, 0
4, 45322, Note_on_c, 0, 64, 80
4, 45325, Note_on_c, 0, 79, 83
4, 45325, Note_on_c, 0, 72, 89
4, 45326, Note_on_c, 0, 69, 90
4, 45327, Note_on_c, 0, 76, 61
4, 45335, Note_on_c, 0, 76, 0
4, 45339, Note_on_c, 0, 64, 0
4, 45343, Note_on_c, 0, 69, 0
4, 45343, Note_on_c, 0, 72, 0
4, 45348, Note_on_c, 0, 79, 0
4, 45442, Note_on_c, 0, 57, 81
4, 45443, Note_on_c, 0, 72, 71
4, 45444, Note_on_c, 0, 67, 69
4, 45444, Note_on_c, 0, 64, 80
4, 45445, Note_on_c, 0, 69, 66
4, 45686, Note_on_c, 0, 64, 0
4, 45693, Note_on_c, 0, 67, 0
4, 45696, Note_on_c, 0, 72, 0
4, 45701, Note_on_c, 0, 69, 0
4, 45715, Note_on_c, 0, 57, 0
4, 45716, Note_on_c, 0, 56, 59
4, 45717, Note_on_c, 0, 71, 57
4, 45717, Note_on_c, 0, 64, 57
4, 45722, Note_on_c, 0, 67, 37
4, 45763, Note_on_c, 0, 67, 0
4, 45774, Note_on_c, 0, 64, 0
4, 45786, Note_on_c, 0, 71, 0
4, 45801, Note_on_c, 0, 64, 71
4, 45802, Note_on_c, 0, 57, 76
4, 45803, Note_on_c, 0, 72, 66
4, 45803, Note_on_c, 0, 67, 66
4, 45807, Note_on_c, 0, 69, 66
4, 45808, Note_on_c, 0, 71, 35
4, 45815, Note_on_c, 0, 56, 0
4, 45946, Note_on_c, 0, 57, 0
4, 46030, Note_on_c, 0, 64, 0
4, 46073, Note_on_c, 0, 67, 0
4, 46076, Note_on_c, 0, 61, 56
4, 46077, Note_on_c, 0, 69, 0
4, 46078, Note_on_c, 0, 66, 51
4, 46078, Note_on_c, 0, 55, 59
4, 46082, Note_on_c, 0, 71, 0
4, 46085, Note_on_c, 0, 72, 0
4, 46453, Note_on_c, 0, 84, 91
4, 46460, Note_on_c, 0, 66, 0
4, 46467, Note_on_c, 0, 55, 0
4, 46490, Note_on_c, 0, 79, 65
4, 46495, Note_on_c, 0, 61, 0
4, 46497, Note_on_c, 0, 84, 0
4, 46519, Note_on_c, 0, 79, 0
4, 46528, Note_on_c, 0, 73, 47
4, 46549, Note_on_c, 0, 61, 18
4, 46553, Note_on_c, 0, 73, 0
4, 46562, Note_on_c, 0, 61, 0
4, 46569, Note_on_c, 0, 81, 76
4, 46599, Note_on_c, 0, 81, 0
4, 46602, Note_on_c, 0, 76, 49
4, 46630, Note_on_c, 0, 76, 0
4, 46639, Note_on_c, 0, 70, 56
4, 46661, Note_on_c, 0, 70, 0
4, 46680, Note_on_c, 0, 78, 78
4, 46696, Note_on_c, 0, 78, 0
4, 46721, Note_on_c, 0, 73, 59
4, 46736, Note_on_c, 0, 73, 0
4, 46760, Note_on_c, 0, 65, 24
4, 46776, Note_on_c, 0, 65, 0
4, 46789, Note_on_c, 0, 75, 80
4, 46796, Note_on_c, 0, 61, 35
4, 46814, Note_on_c, 0, 61, 0
4, 46821, Note_on_c, 0, 75, 0
4, 46823, Note_on_c, 0, 70, 51
4, 46854, Note_on_c, 0, 70, 0
4, 46855, Note_on_c, 0, 64, 51
4, 46879, Note_on_c, 0, 64, 0
4, 46886, Note_on_c, 0, 72, 69
4, 46900, Note_on_c, 0, 68, 53
4, 46911, Note_on_c, 0, 68, 0
4, 46917, Note_on_c, 0, 72, 0
4, 46944, Note_on_c, 0, 61, 51
4, 46960, Note_on_c, 0, 61, 0
4, 46970, Note_on_c, 0, 69, 67
4, 47002, Note_on_c, 0, 69, 0
4, 47005, Note_on_c, 0, 64, 46
4, 47031, Note_on_c, 0, 64, 0
4, 47032, Note_on_c, 0, 58, 62
4, 47063, Note_on_c, 0, 58, 0
4, 47288, Note_on_c, 0, 66, 67
4, 47288, Note_on_c, 0, 55, 68
4, 47289, Note_on_c, 0, 61, 57
4, 47316, Note_on_c, 0, 55, 0
4, 47320, Note_on_c, 0, 66, 0
4, 47322, Note_on_c, 0, 61, 0
4, 47515, Note_on_c, 0, 65, 62
4, 47516, Note_on_c, 0, 60, 52
4, 47517, Note_on_c, 0, 54, 47
4, 47563, Note_on_c, 0, 54, 0
4, 47565, Note_on_c, 0, 65, 0
4, 47568, Note_on_c, 0, 60, 0
4, 47595, Note_on_c, 0, 66, 64
4, 47596, Note_on_c, 0, 55, 62
4, 47600, Note_on_c, 0, 61, 51
4, 47603, Note_on_c, 0, 55, 0
4, 47609, Note_on_c, 0, 66, 0
4, 47628, Note_on_c, 0, 61, 0
4, 47642, Note_on_c, 0, 79, 44
4, 47691, Note_on_c, 0, 79, 0
4, 47708, Note_on_c, 0, 81, 71
4, 47731, Note_on_c, 0, 81, 0
4, 47744, Note_on_c, 0, 82, 62
4, 47767, Note_on_c, 0, 82, 0
4, 47783, Note_on_c, 0, 84, 58
4, 47804, Note_on_c, 0, 84, 0
4, 47818, Note_on_c, 0, 85, 76
4, 47843, Note_on_c, 0, 85, 0
4, 47856, Note_on_c, 0, 87, 70
4, 47861, Note_on_c, 0, 69, 64
4, 47863, Note_on_c, 0, 64, 57
4, 47865, Note_on_c, 0, 58, 34
4, 47878, Note_on_c, 0, 69, 0
4, 47880, Note_on_c, 0, 58, 0
4, 47882, Note_on_c, 0, 87, 0
4, 47884, Note_on_c, 0, 64, 0
4, 47896, Note_on_c, 0, 88, 64
4, 47918, Note_on_c, 0, 88, 0
4, 47933, Note_on_c, 0, 90, 58
4, 47951, Note_on_c, 0, 90, 0
4, 47966, Note_on_c, 0, 91, 61
4, 47990, Note_on_c, 0, 91, 0
4, 48004, Note_on_c, 0, 93, 69
4, 48021, Note_on_c, 0, 93, 0
4, 48040, Note_on_c, 0, 94, 69
4, 48063, Note_on_c, 0, 94, 0
4, 48074, Note_on_c, 0, 69, 64
4, 48075, Note_on_c, 0, 64, 59
4, 48075, Note_on_c, 0, 58, 51
4, 48079, Note_on_c, 0, 96, 77
4, 48094, Note_on_c, 0, 69, 0
4, 48100, Note_on_c, 0, 64, 0
4, 48108, Note_on_c, 0, 96, 0
4, 48119, Note_on_c, 0, 93, 63
4, 48123, Note_on_c, 0, 58, 0
4, 48142, Note_on_c, 0, 93, 0
4, 48153, Note_on_c, 0, 94, 77
4, 48157, Note_on_c, 0, 62, 65
4, 48157, Note_on_c, 0, 57, 64
4, 48157, Note_on_c, 0, 67, 63
4, 48194, Note_on_c, 0, 94, 0
4, 48227, Note_on_c, 0, 62, 0
4, 48228, Note_on_c, 0, 67, 0
4, 48231, Note_on_c, 0, 57, 0
4, 48323, Note_on_c, 0, 58, 67
4, 48326, Note_on_c, 0, 69, 58
4, 48327, Note_on_c, 0, 64, 68
4, 48370, Note_on_c, 0, 64, 0
4, 48373, Note_on_c, 0, 69, 0
4, 48378, Note_on_c, 0, 58, 0
4, 48443, Note_on_c, 0, 70, 72
4, 48443, Note_on_c, 0, 65, 69
4, 48445, Note_on_c, 0, 60, 64
4, 48494, Note_on_c, 0, 60, 0
4, 48497, Note_on_c, 0, 65, 0
4, 48497, Note_on_c, 0, 70, 0
4, 48522, Note_on_c, 0, 93, 92
4, 48570, Note_on_c, 0, 93, 0
4, 48598, Note_on_c, 0, 96, 91
4, 48600, Note_on_c, 0, 84, 91
4, 48633, Note_on_c, 0, 96, 0
4, 48649, Note_on_c, 0, 84, 0
4, 48676, Note_on_c, 0, 58, 74
4, 48677, Note_on_c, 0, 64, 65
4, 48677, Note_on_c, 0, 69, 75
4, 48677, Note_on_c, 0, 94, 82
4, 48680, Note_on_c, 0, 82, 82
4, 48724, Note_on_c, 0, 94, 0
4, 48729, Note_on_c, 0, 82, 0
4, 48734, Note_on_c, 0, 64, 0
4, 48739, Note_on_c, 0, 69, 0
4, 48757, Note_on_c, 0, 93, 85
4, 48760, Note_on_c, 0, 81, 71
4, 48775, Note_on_c, 0, 58, 0
4, 48807, Note_on_c, 0, 93, 0
4, 48816, Note_on_c, 0, 81, 0
4, 48835, Note_on_c, 0, 67, 60
4, 48835, Note_on_c, 0, 62, 62
4, 48839, Note_on_c, 0, 57, 54
4, 48839, Note_on_c, 0, 91, 74
4, 48841, Note_on_c, 0, 79, 72
4, 48889, Note_on_c, 0, 91, 0
4, 48890, Note_on_c, 0, 62, 0
4, 48895, Note_on_c, 0, 57, 0
4, 48900, Note_on_c, 0, 79, 0
4, 48904, Note_on_c, 0, 67, 0
4, 48926, Note_on_c, 0, 89, 76
4, 48929, Note_on_c, 0, 77, 72
4, 48960, Note_on_c, 0, 89, 0
4, 48974, Note_on_c, 0, 77, 0
4, 48996, Note_on_c, 0, 58, 62
4, 48996, Note_on_c, 0, 69, 60
4, 48998, Note_on_c, 0, 64, 60
4, 48999, Note_on_c, 0, 88, 78
4, 49000, Note_on_c, 0, 76, 66
4, 49052, Note_on_c, 0, 88, 0
4, 49058, Note_on_c, 0, 76, 0
4, 49070, Note_on_c, 0, 64, 0
4, 49071, Note_on_c, 0, 69, 0
4, 49082, Note_on_c, 0, 86, 70
4, 49084, Note_on_c, 0, 74, 66
4, 49107, Note_on_c, 0, 58, 0
4, 49129, Note_on_c, 0, 86, 0
4, 49136, Note_on_c, 0, 74, 0
4, 49161, Note_on_c, 0, 67, 62
4, 49163, Note_on_c, 0, 57, 62
4, 49163, Note_on_c, 0, 62, 58
4, 49164, Note_on_c, 0, 84, 73
4, 49167, Note_on_c, 0, 72, 74
4, 49199, Note_on_c, 0, 84, 0
4, 49205, Note_on_c, 0, 62, 0
4, 49207, Note_on_c, 0, 67, 0
4, 49208, Note_on_c, 0, 72, 0
4, 49225, Note_on_c, 0, 57, 0
4, 49243, Note_on_c, 0, 82, 71
4, 49247, Note_on_c, 0, 70, 74
4, 49293, Note_on_c, 0, 82, 0
4, 49299, Note_on_c, 0, 70, 0
4, 49322, Note_on_c, 0, 64, 62
4, 49323, Note_on_c, 0, 58, 64
4, 49324, Note_on_c, 0, 81, 69
4, 49329, Note_on_c, 0, 69, 66
4, 49332, Note_on_c, 0, 80, 38
4, 49349, Note_on_c, 0, 80, 0
4, 49365, Note_on_c, 0, 81, 0
4, 49373, Note_on_c, 0, 64, 0
4, 49380, Note_on_c, 0, 69, 0
4, 49383, Note_on_c, 0, 58, 0
4, 49406, Note_on_c, 0, 79, 64
4, 49406, Note_on_c, 0, 57, 53
4, 49408, Note_on_c, 0, 64, 68
4, 49409, Note_on_c, 0, 67, 68
4, 49415, Note_on_c, 0, 78, 37
4, 49422, Note_on_c, 0, 78, 0
4, 49646, Note_on_c, 0, 79, 0
4, 49654, Note_on_c, 0, 67, 0
4, 49682, Note_on_c, 0, 77, 80
4, 49685, Note_on_c, 0, 65, 90
4, 49691, Note_on_c, 0, 64, 0
4, 49715, Note_on_c, 0, 57, 0
4, 49744, Note_on_c, 0, 77, 0
4, 49759, Note_on_c, 0, 65, 0
4, 49767, Note_on_c, 0, 75, 77
4, 49804, Note_on_c, 0, 75, 0
4, 49831, Note_on_c, 0, 74, 41
4, 49884, Note_on_c, 0, 74, 0
4, 49895, Note_on_c, 0, 72, 65
4, 49932, Note_on_c, 0, 72, 0
4, 49950, Note_on_c, 0, 70, 35
4, 50023, Note_on_c, 0, 70, 0
4, 50025, Note_on_c, 0, 67, 44
4, 50035, Note_on_c, 0, 67, 0
4, 50061, Note_on_c, 0, 69, 90
4, 50137, Note_on_c, 0, 67, 70
4, 50147, Note_on_c, 0, 69, 0
4, 50180, Note_on_c, 0, 67, 0
4, 50196, Note_on_c, 0, 65, 37
4, 50266, Note_on_c, 0, 65, 0
4, 50289, Note_on_c, 0, 63, 61
4, 50397, Note_on_c, 0, 63, 0
4, 50412, Note_on_c, 0, 62, 74
4, 50503, Note_on_c, 0, 62, 0
4, 50529, Note_on_c, 0, 61, 64
4, 50624, Note_on_c, 0, 61, 0
4, 50646, Note_on_c, 0, 60, 62
4, 50728, Note_on_c, 0, 60, 0
4, 50728, Note_on_c, 0, 59, 69
4, 50731, Note_on_c, 0, 47, 47
4, 50733, Note_on_c, 0, 57, 43
4, 50744, Note_on_c, 0, 57, 0
4, 50761, Note_on_c, 0, 57, 17
4, 50817, Note_on_c, 0, 57, 0
4, 50831, Note_on_c, 0, 57, 58
4, 50837, Note_on_c, 0, 47, 0
4, 50837, Note_on_c, 0, 59, 0
4, 50853, Note_on_c, 0, 57, 0
4, 50865, Note_on_c, 0, 59, 66
4, 50894, Note_on_c, 0, 59, 0
4, 50897, Note_on_c, 0, 46, 28
4, 50902, Note_on_c, 0, 57, 51
4, 50903, Note_on_c, 0, 53, 24
4, 50930, Note_on_c, 0, 57, 0
4, 50939, Note_on_c, 0, 58, 65
4, 50982, Note_on_c, 0, 58, 0
4, 51012, Note_on_c, 0, 46, 0
4, 51033, Note_on_c, 0, 53, 0
4, 51086, Note_on_c, 0, 46, 58
4, 51091, Note_on_c, 0, 57, 55
4, 51100, Note_on_c, 0, 57, 0
4, 51111, Note_on_c, 0, 46, 0
4, 51262, Note_on_c, 0, 75, 86
4, 51298, Note_on_c, 0, 75, 0
4, 51300, Note_on_c, 0, 74, 65
4, 51336, Note_on_c, 0, 70, 69
4, 51337, Note_on_c, 0, 74, 0
4, 51339, Note_on_c, 0, 62, 26
4, 51349, Note_on_c, 0, 62, 0
4, 51370, Note_on_c, 0, 70, 0
4, 51380, Note_on_c, 0, 65, 45
4, 51396, Note_on_c, 0, 65, 0
4, 51420, Note_on_c, 0, 72, 75
4, 51447, Note_on_c, 0, 72, 0
4, 51456, Note_on_c, 0, 65, 62
4, 51458, Note_on_c, 0, 61, 48
4, 51458, Note_on_c, 0, 55, 47
4, 51460, Note_on_c, 0, 70, 71
4, 51463, Note_on_c, 0, 65, 0
4, 51483, Note_on_c, 0, 70, 0
4, 51485, Note_on_c, 0, 61, 0
4, 51486, Note_on_c, 0, 55, 0
4, 51504, Note_on_c, 0, 65, 50
4, 51520, Note_on_c, 0, 65, 0
4, 51540, Note_on_c, 0, 61, 59
4, 51570, Note_on_c, 0, 61, 0
4, 51581, Note_on_c, 0, 60, 64
4, 51606, Note_on_c, 0, 60, 0
4, 51625, Note_on_c, 0, 58, 68
4, 51669, Note_on_c, 0, 58, 0
4, 51690, Note_on_c, 0, 60, 30
4, 51699, Note_on_c, 0, 58, 45
4, 51717, Note_on_c, 0, 60, 0
4, 51734, Note_on_c, 0, 57, 44
4, 51739, Note_on_c, 0, 58, 0
4, 51811, Note_on_c, 0, 53, 50
4, 51812, Note_on_c, 0, 57, 0
4, 51812, Note_on_c, 0, 54, 60
4, 51814, Note_on_c, 0, 43, 34
4, 51819, Note_on_c, 0, 53, 0
4, 51827, Note_on_c, 0, 43, 0
4, 51845, Note_on_c, 0, 54, 0
4, 51867, Note_on_c, 0, 55, 45
4, 51926, Note_on_c, 0, 55, 0
4, 51928, Note_on_c, 0, 57, 62
4, 51957, Note_on_c, 0, 57, 0
4, 51966, Note_on_c, 0, 58, 46
4, 51990, Note_on_c, 0, 58, 0
4, 52008, Note_on_c, 0, 62, 69
4, 52036, Note_on_c, 0, 62, 0
4, 52044, Note_on_c, 0, 66, 65
4, 52055, Note_on_c, 0, 62, 49
4, 52057, Note_on_c, 0, 58, 42
4, 52058, Note_on_c, 0, 53, 28
4, 52058, Note_on_c, 0, 57, 40
4, 52073, Note_on_c, 0, 66, 0
4, 52086, Note_on_c, 0, 69, 71
4, 52112, Note_on_c, 0, 69, 0
4, 52123, Note_on_c, 0, 66, 46
4, 52144, Note_on_c, 0, 66, 0
4, 52156, Note_on_c, 0, 67, 59
4, 52183, Note_on_c, 0, 67, 0
4, 52191, Note_on_c, 0, 69, 60
4, 52208, Note_on_c, 0, 57, 0
4, 52209, Note_on_c, 0, 53, 0
4, 52211, Note_on_c, 0, 62, 0
4, 52220, Note_on_c, 0, 69, 0
4, 52224, Note_on_c, 0, 58, 0
4, 52229, Note_on_c, 0, 70, 48
4, 52252, Note_on_c, 0, 70, 0
4, 52267, Note_on_c, 0, 72, 65
4, 52279, Note_on_c, 0, 63, 65
4, 52282, Note_on_c, 0, 58, 50
4, 52287, Note_on_c, 0, 52, 50
4, 52301, Note_on_c, 0, 72, 0
4, 52304, Note_on_c, 0, 73, 62
4, 52315, Note_on_c, 0, 52, 0
4, 52318, Note_on_c, 0, 63, 0
4, 52323, Note_on_c, 0, 73, 0
4, 52330, Note_on_c, 0, 58, 0
4, 52343, Note_on_c, 0, 76, 50
4, 52374, Note_on_c, 0, 76, 0
4, 52381, Note_on_c, 0, 80, 30
4, 52397, Note_on_c, 0, 80, 0
4, 52415, Note_on_c, 0, 85, 79
4, 52438, Note_on_c, 0, 85, 0
4, 52458, Note_on_c, 0, 87, 87
4, 52459, Note_on_c, 0, 75, 86
4, 52514, Note_on_c, 0, 87, 0
4, 52516, Note_on_c, 0, 75, 0
4, 52535, Note_on_c, 0, 64, 55
4, 52535, Note_on_c, 0, 85, 70
4, 52535, Note_on_c, 0, 58, 45
4, 52535, Note_on_c, 0, 69, 52
4, 52536, Note_on_c, 0, 73, 69
4, 52566, Note_on_c, 0, 85, 0
4, 52573, Note_on_c, 0, 73, 0
4, 52596, Note_on_c, 0, 87, 62
4, 52597, Note_on_c, 0, 75, 50
4, 52624, Note_on_c, 0, 87, 0
4, 52630, Note_on_c, 0, 75, 0
4, 52650, Note_on_c, 0, 85, 70
4, 52652, Note_on_c, 0, 73, 59
4, 52664, Note_on_c, 0, 64, 0
4, 52671, Note_on_c, 0, 69, 0
4, 52681, Note_on_c, 0, 73, 0
4, 52685, Note_on_c, 0, 85, 0
4, 52699, Note_on_c, 0, 84, 57
4, 52703, Note_on_c, 0, 72, 43
4, 52737, Note_on_c, 0, 72, 0
4, 52741, Note_on_c, 0, 84, 0
4, 52741, Note_on_c, 0, 58, 0
4, 52762, Note_on_c, 0, 67, 71
4, 52763, Note_on_c, 0, 57, 76
4, 52764, Note_on_c, 0, 63, 67
4, 52874, Note_on_c, 0, 86, 70
4, 52877, Note_on_c, 0, 74, 58
4, 52894, Note_on_c, 0, 74, 0
4, 52898, Note_on_c, 0, 86, 0
4, 52900, Note_on_c, 0, 67, 0
4, 52917, Note_on_c, 0, 84, 41
4, 52921, Note_on_c, 0, 63, 0
4, 52934, Note_on_c, 0, 84, 0
4, 52955, Note_on_c, 0, 86, 78
4, 52957, Note_on_c, 0, 74, 66
4, 52959, Note_on_c, 0, 57, 0
4, 52993, Note_on_c, 0, 86, 0
4, 52996, Note_on_c, 0, 74, 0
4, 53014, Note_on_c, 0, 65, 49
4, 53016, Note_on_c, 0, 62, 44
4, 53017, Note_on_c, 0, 60, 36
4, 53019, Note_on_c, 0, 84, 68
4, 53021, Note_on_c, 0, 72, 61
4, 53038, Note_on_c, 0, 72, 0
4, 53040, Note_on_c, 0, 84, 0
4, 53071, Note_on_c, 0, 81, 49
4, 53074, Note_on_c, 0, 69, 49
4, 53104, Note_on_c, 0, 69, 0
4, 53105, Note_on_c, 0, 81, 0
4, 53132, Note_on_c, 0, 81, 68
4, 53136, Note_on_c, 0, 69, 64
4, 53141, Note_on_c, 0, 65, 0
4, 53153, Note_on_c, 0, 81, 0
4, 53153, Note_on_c, 0, 69, 0
4, 53174, Note_on_c, 0, 79, 42
4, 53179, Note_on_c, 0, 67, 38
4, 53199, Note_on_c, 0, 60, 0
4, 53209, Note_on_c, 0, 67, 0
4, 53214, Note_on_c, 0, 79, 0
4, 53217, Note_on_c, 0, 62, 0
4, 53247, Note_on_c, 0, 62, 44
4, 53248, Note_on_c, 0, 81, 78
4, 53250, Note_on_c, 0, 69, 66
4, 53250, Note_on_c, 0, 65, 45
4, 53253, Note_on_c, 0, 60, 38
4, 53256, Note_on_c, 0, 74, 28
4, 53272, Note_on_c, 0, 74, 0
4, 53378, Note_on_c, 0, 65, 0
4, 53385, Note_on_c, 0, 60, 0
4, 53386, Note_on_c, 0, 81, 0
4, 53388, Note_on_c, 0, 69, 0
4, 53389, Note_on_c, 0, 62, 0
4, 53407, Note_on_c, 0, 62, 40
4, 53410, Note_on_c, 0, 79, 55
4, 53410, Note_on_c, 0, 60, 46
4, 53411, Note_on_c, 0, 65, 49
4, 53411, Note_on_c, 0, 67, 54
4, 53414, Note_on_c, 0, 74, 46
4, 53485, Note_on_c, 0, 65, 0
4, 53497, Note_on_c, 0, 79, 0
4, 53501, Note_on_c, 0, 62, 0
4, 53501, Note_on_c, 0, 60, 0
4, 53502, Note_on_c, 0, 67, 0
4, 53506, Note_on_c, 0, 74, 0
4, 53525, Control_c, 0, 64, 127
4, 53529, Note_on_c, 0, 62, 50
4, 53532, Note_on_c, 0, 77, 37
4, 53532, Note_on_c, 0, 60, 53
4, 53536, Note_on_c, 0, 65, 61
4, 53563, Note_on_c, 0, 62, 0
4, 53564, Note_on_c, 0, 65, 0
4, 53565, Note_on_c, 0, 60, 0
4, 53572, Note_on_c, 0, 77, 0
4, 53619, Note_on_c, 0, 67, 60
4, 53619, Note_on_c, 0, 79, 51
4, 53627, Note_on_c, 0, 79, 0
4, 53627, Note_on_c, 0, 67, 0
4, 53655, Note_on_c, 0, 60, 56
4, 53655, Note_on_c, 0, 62, 44
4, 53657, Note_on_c, 0, 80, 70
4, 53658, Note_on_c, 0, 68, 67
4, 53672, Note_on_c, 0, 62, 0
4, 53678, Note_on_c, 0, 60, 0
4, 53703, Note_on_c, 0, 80, 0
4, 53703, Note_on_c, 0, 68, 0
4, 53733, Note_on_c, 0, 81, 67
4, 53734, Note_on_c, 0, 69, 72
4, 53735, Note_on_c, 0, 55, 55
4, 53735, Note_on_c, 0, 76, 62
4, 53737, Control_c, 0, 64, 0
4, 53737, Note_on_c, 0, 61, 53
4, 53739, Note_on_c, 0, 66, 38
4, 53880, Control_c, 0, 64, 127
4, 53994, Note_on_c, 0, 66, 0
4, 54002, Note_on_c, 0, 55, 0
4, 54004, Note_on_c, 0, 76, 0
4, 54014, Note_on_c, 0, 81, 0
4, 54016, Note_on_c, 0, 69, 0
4, 54045, Note_on_c, 0, 61, 0
4, 54088, Note_on_c, 0, 61, 77
4, 54089, Note_on_c, 0, 66, 83
4, 54089, Note_on_c, 0, 55, 81
4, 54089, Note_on_c, 0, 79, 87
4, 54091, Note_on_c, 0, 74, 85
4, 54091, Note_on_c, 0, 67, 94
4, 54096, Control_c, 0, 64, 0
4, 54133, Control_c, 0, 64, 127
4, 54180, Note_on_c, 0, 67, 0
4, 54183, Note_on_c, 0, 55, 0
4, 54188, Note_on_c, 0, 79, 0
4, 54188, Note_on_c, 0, 66, 0
4, 54191, Note_on_c, 0, 61, 0
4, 54193, Note_on_c, 0, 74, 0
4, 54204, Note_on_c, 0, 66, 65
4, 54206, Note_on_c, 0, 55, 57
4, 54206, Note_on_c, 0, 77, 60
4, 54208, Note_on_c, 0, 61, 62
4, 54208, Note_on_c, 0, 65, 69
4, 54236, Note_on_c, 0, 55, 0
4, 54238, Note_on_c, 0, 65, 0
4, 54244, Note_on_c, 0, 66, 0
4, 54244, Note_on_c, 0, 77, 0
4, 54244, Control_c, 0, 64, 0
4, 54254, Note_on_c, 0, 61, 0
4, 54280, Note_on_c, 0, 79, 74
4, 54280, Note_on_c, 0, 61, 57
4, 54280, Note_on_c, 0, 66, 62
4, 54282, Note_on_c, 0, 67, 65
4, 54282, Note_on_c, 0, 55, 71
4, 54284, Note_on_c, 0, 73, 63
4, 54320, Note_on_c, 0, 73, 0
4, 54322, Note_on_c, 0, 74, 51
4, 54340, Note_on_c, 0, 67, 0
4, 54344, Note_on_c, 0, 55, 0
4, 54350, Note_on_c, 0, 66, 0
4, 54350, Note_on_c, 0, 79, 0
4, 54352, Note_on_c, 0, 74, 0
4, 54355, Note_on_c, 0, 61, 0
4, 54374, Note_on_c, 0, 66, 52
4, 54375, Note_on_c, 0, 61, 50
4, 54375, Note_on_c, 0, 77, 54
4, 54376, Note_on_c, 0, 55, 62
4, 54377, Note_on_c, 0, 65, 55
4, 54408, Note_on_c, 0, 65, 0
4, 54411, Note_on_c, 0, 55, 0
4, 54418, Note_on_c, 0, 77, 0
4, 54421, Note_on_c, 0, 66, 0
4, 54431, Note_on_c, 0, 61, 0
4, 54455, Note_on_c, 0, 66, 70
4, 54456, Note_on_c, 0, 61, 62
4, 54456, Note_on_c, 0, 73, 77
4, 54456, Note_on_c, 0, 79, 74
4, 54457, Note_on_c, 0, 67, 74
4, 54458, Note_on_c, 0, 55, 74
4, 54488, Note_on_c, 0, 74, 35
4, 54489, Note_on_c, 0, 73, 0
4, 54545, Note_on_c, 0, 67, 0
4, 54547, Note_on_c, 0, 55, 0
4, 54551, Note_on_c, 0, 79, 0
4, 54554, Note_on_c, 0, 66, 0
4, 54556, Note_on_c, 0, 61, 0
4, 54557, Note_on_c, 0, 74, 0
4, 54574, Note_on_c, 0, 66, 64
4, 54576, Note_on_c, 0, 61, 55
4, 54577, Note_on_c, 0, 55, 67
4, 54577, Note_on_c, 0, 77, 54
4, 54580, Note_on_c, 0, 65, 68
4, 54602, Note_on_c, 0, 66, 0
4, 54604, Note_on_c, 0, 65, 0
4, 54605, Note_on_c, 0, 55, 0
4, 54615, Note_on_c, 0, 61, 0
4, 54617, Note_on_c, 0, 77, 0
4, 54689, Note_on_c, 0, 75, 81
4, 54689, Note_on_c, 0, 67, 80
4, 54690, Note_on_c, 0, 62, 81
4, 54690, Note_on_c, 0, 81, 83
4, 54690, Note_on_c, 0, 56, 78
4, 54691, Note_on_c, 0, 69, 85
4, 54707, Note_on_c, 0, 75, 0
4, 54709, Note_on_c, 0, 67, 0
4, 54709, Note_on_c, 0, 76, 44
4, 54719, Note_on_c, 0, 56, 0
4, 54727, Note_on_c, 0, 69, 0
4, 54728, Note_on_c, 0, 62, 0
4, 54734, Note_on_c, 0, 81, 0
4, 54735, Note_on_c, 0, 76, 0
4, 54809, Note_on_c, 0, 74, 74
4, 54810, Note_on_c, 0, 79, 77
4, 54810, Note_on_c, 0, 67, 79
4, 54812, Note_on_c, 0, 64, 70
4, 54812, Note_on_c, 0, 58, 67
4, 54917, Note_on_c, 0, 79, 0
4, 54920, Note_on_c, 0, 74, 0
4, 54924, Note_on_c, 0, 67, 0
4, 54947, Note_on_c, 0, 64, 0
4, 54951, Note_on_c, 0, 58, 0
4, 54969, Note_on_c, 0, 76, 51
4, 54973, Note_on_c, 0, 71, 59
4, 54973, Note_on_c, 0, 64, 55
4, 54990, Note_on_c, 0, 64, 0
4, 54999, Note_on_c, 0, 71, 0
4, 55011, Note_on_c, 0, 76, 0
4, 55052, Note_on_c, 0, 58, 58
4, 55054, Note_on_c, 0, 69, 67
4, 55054, Note_on_c, 0, 64, 60
4, 55255, Note_on_c, 0, 69, 0
4, 55258, Note_on_c, 0, 58, 0
4, 55265, Note_on_c, 0, 64, 0
4, 55285, Note_on_c, 0, 64, 69
4, 55286, Note_on_c, 0, 58, 62
4, 55286, Note_on_c, 0, 69, 75
4, 55460, Note_on_c, 0, 96, 95
4, 55486, Note_on_c, 0, 96, 0
4, 55500, Note_on_c, 0, 93, 68
4, 55518, Note_on_c, 0, 93, 0
4, 55524, Note_on_c, 0, 58, 0
4, 55538, Note_on_c, 0, 94, 85
4, 55574, Note_on_c, 0, 94, 0
4, 55580, Note_on_c, 0, 90, 32
4, 55600, Note_on_c, 0, 90, 0
4, 55615, Note_on_c, 0, 93, 83
4, 55627, Note_on_c, 0, 69, 0
4, 55649, Note_on_c, 0, 64, 0
4, 55651, Note_on_c, 0, 91, 74
4, 55664, Note_on_c, 0, 93, 0
4, 55685, Note_on_c, 0, 91, 0
4, 55692, Note_on_c, 0, 86, 57
4, 55695, Note_on_c, 0, 64, 57
4, 55695, Note_on_c, 0, 69, 47
4, 55703, Note_on_c, 0, 58, 29
4, 55715, Note_on_c, 0, 86, 0
4, 55787, Note_on_c, 0, 69, 0
4, 55791, Note_on_c, 0, 64, 0
4, 55793, Note_on_c, 0, 58, 0
4, 55889, Note_on_c, 0, 64, 72
4, 55890, Note_on_c, 0, 58, 60
4, 55891, Note_on_c, 0, 69, 67
4, 55898, Note_on_c, 0, 69, 0
4, 55907, Note_on_c, 0, 64, 0
4, 55914, Note_on_c, 0, 58, 0
4, 56005, Note_on_c, 0, 61, 71
4, 56006, Note_on_c, 0, 55, 72
4, 56007, Note_on_c, 0, 66, 75
4, 56098, Note_on_c, 0, 93, 87
4, 56116, Note_on_c, 0, 93, 0
4, 56136, Note_on_c, 0, 96, 96
4, 56161, Note_on_c, 0, 96, 0
4, 56176, Note_on_c, 0, 55, 0
4, 56181, Note_on_c, 0, 94, 83
4, 56185, Note_on_c, 0, 61, 0
4, 56195, Note_on_c, 0, 66, 0
4, 56212, Note_on_c, 0, 94, 0
4, 56225, Note_on_c, 0, 90, 38
4, 56244, Note_on_c, 0, 90, 0
4, 56260, Note_on_c, 0, 93, 85
4, 56263, Note_on_c, 0, 69, 62
4, 56263, Note_on_c, 0, 58, 57
4, 56264, Note_on_c, 0, 64, 64
4, 56298, Note_on_c, 0, 93, 0
4, 56306, Note_on_c, 0, 90, 28
4, 56326, Note_on_c, 0, 90, 0
4, 56341, Note_on_c, 0, 91, 82
4, 56377, Note_on_c, 0, 69, 0
4, 56381, Note_on_c, 0, 91, 0
4, 56381, Note_on_c, 0, 89, 51
4, 56386, Note_on_c, 0, 64, 0
4, 56405, Note_on_c, 0, 58, 0
4, 56419, Note_on_c, 0, 89, 0
4, 56421, Note_on_c, 0, 86, 48
4, 56447, Note_on_c, 0, 86, 0
4, 56497, Note_on_c, 0, 85, 78
4, 56499, Note_on_c, 0, 66, 62
4, 56500, Note_on_c, 0, 61, 56
4, 56504, Note_on_c, 0, 55, 52
4, 56513, Note_on_c, 0, 55, 0
4, 56523, Note_on_c, 0, 85, 0
4, 56524, Note_on_c, 0, 66, 0
4, 56542, Note_on_c, 0, 88, 75
4, 56565, Note_on_c, 0, 88, 0
4, 56571, Note_on_c, 0, 61, 0
4, 56583, Note_on_c, 0, 86, 68
4, 56611, Note_on_c, 0, 86, 0
4, 56623, Note_on_c, 0, 81, 54
4, 56647, Note_on_c, 0, 81, 0
4, 56825, Note_on_c, 0, 99, 90
4, 56831, Note_on_c, 0, 66, 52
4, 56834, Note_on_c, 0, 61, 39
4, 56837, Note_on_c, 0, 55, 34
4, 56839, Note_on_c, 0, 66, 0
4, 56847, Note_on_c, 0, 55, 0
4, 56857, Note_on_c, 0, 99, 0
4, 56865, Note_on_c, 0, 97, 74
4, 56901, Note_on_c, 0, 94, 65
4, 56905, Note_on_c, 0, 97, 0
4, 56924, Note_on_c, 0, 61, 0
4, 56929, Note_on_c, 0, 94, 0
4, 56940, Note_on_c, 0, 88, 49
4, 56961, Note_on_c, 0, 88, 0
4, 56970, Note_on_c, 0, 61, 19
4, 56979, Note_on_c, 0, 96, 87
4, 57005, Note_on_c, 0, 96, 0
4, 57014, Note_on_c, 0, 94, 67
4, 57039, Note_on_c, 0, 61, 0
4, 57051, Note_on_c, 0, 89, 62
4, 57054, Note_on_c, 0, 94, 0
4, 57083, Note_on_c, 0, 89, 0
4, 57085, Note_on_c, 0, 61, 25
4, 57088, Note_on_c, 0, 85, 55
4, 57112, Note_on_c, 0, 85, 0
4, 57144, Note_on_c, 0, 61, 0
4, 57198, Note_on_c, 0, 66, 51
4, 57199, Note_on_c, 0, 93, 92
4, 57202, Note_on_c, 0, 61, 50
4, 57204, Note_on_c, 0, 55, 49
4, 57213, Note_on_c, 0, 55, 0
4, 57215, Note_on_c, 0, 66, 0
4, 57231, Note_on_c, 0, 93, 0
4, 57238, Note_on_c, 0, 91, 60
4, 57266, Note_on_c, 0, 91, 0
4, 57274, Note_on_c, 0, 61, 0
4, 57275, Note_on_c, 0, 88, 48
4, 57309, Note_on_c, 0, 88, 0
4, 57314, Note_on_c, 0, 85, 56
4, 57315, Note_on_c, 0, 61, 50
4, 57318, Note_on_c, 0, 66, 34
4, 57325, Note_on_c, 0, 66, 0
4, 57334, Note_on_c, 0, 85, 0
4, 57349, Note_on_c, 0, 82, 61
4, 57351, Note_on_c, 0, 61, 0
4, 57372, Note_on_c, 0, 82, 0
4, 57392, Note_on_c, 0, 81, 64
4, 57420, Note_on_c, 0, 81, 0
4, 57443, Note_on_c, 0, 80, 68
4, 57444, Note_on_c, 0, 66, 59
4, 57444, Note_on_c, 0, 61, 52
4, 57449, Note_on_c, 0, 55, 51
4, 57463, Note_on_c, 0, 66, 0
4, 57472, Note_on_c, 0, 55, 0
4, 57474, Note_on_c, 0, 80, 0
4, 57497, Note_on_c, 0, 79, 44
4, 57509, Note_on_c, 0, 61, 0
4, 57539, Note_on_c, 0, 79, 0
4, 57564, Note_on_c, 0, 77, 68
4, 57567, Note_on_c, 0, 63, 46
4, 57567, Note_on_c, 0, 58, 43
4, 57567, Note_on_c, 0, 67, 57
4, 57570, Note_on_c, 0, 62, 44
4, 57584, Note_on_c, 0, 67, 0
4, 57589, Note_on_c, 0, 77, 0
4, 57601, Note_on_c, 0, 58, 0
4, 57610, Note_on_c, 0, 63, 0
4, 57614, Note_on_c, 0, 75, 52
4, 57631, Note_on_c, 0, 62, 0
4, 57682, Note_on_c, 0, 75, 0
4, 57693, Note_on_c, 0, 74, 47
4, 57694, Note_on_c, 0, 63, 40
4, 57709, Note_on_c, 0, 63, 0
4, 57709, Note_on_c, 0, 62, 22
4, 57722, Note_on_c, 0, 74, 0
4, 57723, Note_on_c, 0, 62, 0
4, 57737, Note_on_c, 0, 77, 79
4, 57808, Note_on_c, 0, 74, 44
4, 57810, Note_on_c, 0, 77, 0
4, 57815, Note_on_c, 0, 67, 35
4, 57820, Note_on_c, 0, 63, 27
4, 57824, Note_on_c, 0, 67, 0
4, 57838, Note_on_c, 0, 74, 0
4, 57843, Note_on_c, 0, 63, 0
4, 57855, Note_on_c, 0, 75, 74
4, 57934, Note_on_c, 0, 75, 0
4, 57938, Note_on_c, 0, 58, 23
4, 57939, Note_on_c, 0, 71, 24
4, 57950, Note_on_c, 0, 71, 0
4, 57971, Note_on_c, 0, 74, 75
4, 57991, Note_on_c, 0, 58, 0
4, 58044, Note_on_c, 0, 74, 0
4, 58052, Note_on_c, 0, 57, 51
4, 58053, Note_on_c, 0, 72, 67
4, 58053, Note_on_c, 0, 63, 44
4, 58057, Note_on_c, 0, 67, 28
4, 58061, Note_on_c, 0, 74, 24
4, 58064, Note_on_c, 0, 67, 0
4, 58069, Note_on_c, 0, 74, 0
4, 58106, Note_on_c, 0, 72, 0
4, 58112, Note_on_c, 0, 57, 0
4, 58113, Note_on_c, 0, 63, 0
4, 58125, Note_on_c, 0, 71, 74
4, 58178, Note_on_c, 0, 71, 0
4, 58185, Note_on_c, 0, 69, 73
4, 58191, Note_on_c, 0, 63, 21
4, 58209, Note_on_c, 0, 63, 0
4, 58218, Note_on_c, 0, 69, 0
4, 58240, Note_on_c, 0, 68, 59
4, 58278, Note_on_c, 0, 68, 0
4, 58296, Note_on_c, 0, 66, 63
4, 58297, Note_on_c, 0, 63, 56
4, 58300, Note_on_c, 0, 57, 43
4, 58311, Note_on_c, 0, 57, 0
4, 58314, Note_on_c, 0, 63, 0
4, 58334, Note_on_c, 0, 66, 0
4, 58346, Note_on_c, 0, 65, 45
4, 58401, Note_on_c, 0, 63, 64
4, 58410, Note_on_c, 0, 65, 0
4, 58434, Note_on_c, 0, 63, 0
4, 58447, Note_on_c, 0, 62, 52
4, 58506, Note_on_c, 0, 62, 0
4, 58517, Note_on_c, 0, 46, 46
4, 58518, Note_on_c, 0, 61, 71
4, 58522, Note_on_c, 0, 53, 35
4, 58544, Note_on_c, 0, 53, 0
4, 58548, Note_on_c, 0, 46, 0
4, 58553, Note_on_c, 0, 61, 0
4, 58567, Note_on_c, 0, 60, 58
4, 58599, Note_on_c, 0, 60, 0
4, 58609, Note_on_c, 0, 57, 38
4, 58630, Note_on_c, 0, 57, 0
4, 58631, Note_on_c, 0, 53, 18
4, 58640, Note_on_c, 0, 58, 64
4, 58647, Note_on_c, 0, 53, 0
4, 58672, Note_on_c, 0, 58, 0
4, 58675, Note_on_c, 0, 59, 62
4, 58705, Note_on_c, 0, 59, 0
4, 58713, Note_on_c, 0, 60, 76
4, 58750, Note_on_c, 0, 60, 0
4, 58762, Note_on_c, 0, 53, 57
4, 58778, Note_on_c, 0, 53, 0
4, 58793, Note_on_c, 0, 55, 72
4, 58826, Note_on_c, 0, 55, 0
4, 58826, Note_on_c, 0, 56, 62
4, 58856, Note_on_c, 0, 56, 0
4, 58856, Note_on_c, 0, 57, 48
4, 58874, Note_on_c, 0, 57, 0
4, 58892, Note_on_c, 0, 50, 50
4, 58913, Note_on_c, 0, 50, 0
4, 58920, Note_on_c, 0, 51, 46
4, 58944, Note_on_c, 0, 51, 0
4, 58954, Note_on_c, 0, 52, 48
4, 58977, Note_on_c, 0, 53, 68
4, 58984, Note_on_c, 0, 52, 0
4, 58999, Note_on_c, 0, 53, 0
4, 59059, Note_on_c, 0, 39, 53
4, 59061, Note_on_c, 0, 46, 53
4, 59079, Note_on_c, 0, 46, 0
4, 59080, Note_on_c, 0, 39, 0
4, 59168, Note_on_c, 0, 60, 64
4, 59199, Note_on_c, 0, 60, 0
4, 59199, Note_on_c, 0, 61, 61
4, 59232, Note_on_c, 0, 61, 0
4, 59236, Note_on_c, 0, 62, 53
4, 59260, Note_on_c, 0, 62, 0
4, 59265, Note_on_c, 0, 55, 55
4, 59268, Note_on_c, 0, 63, 52
4, 59277, Note_on_c, 0, 55, 0
4, 59280, Note_on_c, 0, 63, 0
4, 59370, Note_on_c, 0, 55, 66
4, 59370, Note_on_c, 0, 61, 60
4, 59372, Note_on_c, 0, 65, 69
4, 59378, Note_on_c, 0, 55, 0
4, 59379, Note_on_c, 0, 65, 0
4, 59390, Note_on_c, 0, 61, 0
4, 59423, Note_on_c, 0, 69, 30
4, 59431, Note_on_c, 0, 69, 0
4, 59459, Note_on_c, 0, 70, 74
4, 59479, Note_on_c, 0, 70, 0
4, 59495, Note_on_c, 0, 72, 77
4, 59521, Note_on_c, 0, 62, 40
4, 59523, Note_on_c, 0, 58, 25
4, 59525, Note_on_c, 0, 72, 0
4, 59529, Note_on_c, 0, 57, 26
4, 59529, Note_on_c, 0, 53, 34
4, 59538, Note_on_c, 0, 69, 56
4, 59563, Note_on_c, 0, 62, 0
4, 59570, Note_on_c, 0, 69, 0
4, 59578, Note_on_c, 0, 58, 0
4, 59578, Note_on_c, 0, 65, 59
4, 59582, Note_on_c, 0, 57, 0
4, 59599, Note_on_c, 0, 65, 0
4, 59611, Note_on_c, 0, 62, 54
4, 59637, Note_on_c, 0, 62, 0
4, 59646, Note_on_c, 0, 53, 0
4, 59649, Note_on_c, 0, 58, 44
4, 59730, Note_on_c, 0, 58, 0
4, 59733, Note_on_c, 0, 57, 34
4, 59743, Note_on_c, 0, 57, 0
4, 59769, Note_on_c, 0, 60, 80
4, 59839, Note_on_c, 0, 60, 0
4, 59891, Note_on_c, 0, 58, 34
4, 59948, Note_on_c, 0, 58, 0
4, 59963, Note_on_c, 0, 60, 57
4, 59963, Note_on_c, 0, 58, 55
4, 59966, Note_on_c, 0, 48, 36
4, 59978, Note_on_c, 0, 48, 0
4, 59982, Note_on_c, 0, 58, 0
4, 59995, Note_on_c, 0, 60, 0
4, 60007, Note_on_c, 0, 61, 49
4, 60036, Note_on_c, 0, 61, 0
4, 60045, Note_on_c, 0, 63, 42
4, 60066, Note_on_c, 0, 63, 0
4, 60085, Note_on_c, 0, 64, 36
4, 60100, Note_on_c, 0, 64, 0
4, 60121, Note_on_c, 0, 70, 38
4, 60165, Note_on_c, 0, 70, 0
4, 60167, Note_on_c, 0, 76, 45
4, 60175, Note_on_c, 0, 76, 0
4, 60194, Note_on_c, 0, 76, 58
4, 60198, Note_on_c, 0, 63, 62
4, 60199, Note_on_c, 0, 58, 51
4, 60203, Note_on_c, 0, 52, 48
4, 60213, Note_on_c, 0, 52, 0
4, 60221, Note_on_c, 0, 63, 0
4, 60227, Note_on_c, 0, 58, 0
4, 60231, Note_on_c, 0, 76, 0
4, 60237, Note_on_c, 0, 82, 57
4, 60269, Note_on_c, 0, 82, 0
4, 60274, Note_on_c, 0, 87, 75
4, 60300, Note_on_c, 0, 87, 0
4, 60308, Note_on_c, 0, 63, 64
4, 60310, Note_on_c, 0, 58, 53
4, 60312, Note_on_c, 0, 52, 52
4, 60315, Note_on_c, 0, 89, 81
4, 60344, Note_on_c, 0, 89, 0
4, 60345, Note_on_c, 0, 52, 0
4, 60353, Note_on_c, 0, 58, 0
4, 60356, Note_on_c, 0, 63, 0
4, 60357, Note_on_c, 0, 86, 49
4, 60386, Note_on_c, 0, 86, 0
4, 60406, Note_on_c, 0, 84, 56
4, 60411, Note_on_c, 0, 57, 40
4, 60422, Note_on_c, 0, 57, 0
4, 60422, Note_on_c, 0, 84, 0
4, 60560, Note_on_c, 0, 63, 53
4, 60562, Note_on_c, 0, 85, 46
4, 60563, Note_on_c, 0, 73, 53
4, 60565, Note_on_c, 0, 67, 34
4, 60565, Note_on_c, 0, 57, 36
4, 60566, Note_on_c, 0, 81, 64
4, 60567, Note_on_c, 0, 86, 70
4, 60568, Note_on_c, 0, 74, 71
4, 60569, Note_on_c, 0, 85, 0
4, 60571, Note_on_c, 0, 73, 0
4, 60572, Note_on_c, 0, 67, 0
4, 60575, Note_on_c, 0, 84, 30
4, 60577, Note_on_c, 0, 57, 0
4, 60592, Note_on_c, 0, 74, 0
4, 60593, Note_on_c, 0, 84, 0
4, 60594, Note_on_c, 0, 63, 0
4, 60594, Note_on_c, 0, 86, 0
4, 60599, Note_on_c, 0, 81, 0
4, 60612, Note_on_c, 0, 84, 45
4, 60620, Note_on_c, 0, 72, 49
4, 60648, Note_on_c, 0, 72, 0
4, 60649, Note_on_c, 0, 84, 0
4, 60686, Note_on_c, 0, 84, 64
4, 60691, Note_on_c, 0, 72, 67
4, 60707, Note_on_c, 0, 84, 0
4, 60709, Note_on_c, 0, 72, 0
4, 60933, Note_on_c, 0, 56, 39
4, 60955, Note_on_c, 0, 56, 0
4, 60964, Note_on_c, 0, 58, 74
4, 60964, Note_on_c, 0, 74, 75
4, 60965, Note_on_c, 0, 69, 79
4, 60966, Note_on_c, 0, 64, 78
4, 61018, Note_on_c, 0, 69, 0
4, 61021, Note_on_c, 0, 74, 0
4, 61030, Note_on_c, 0, 58, 0
4, 61030, Note_on_c, 0, 64, 0
4, 61041, Note_on_c, 0, 54, 33
4, 61072, Note_on_c, 0, 54, 0
4, 61084, Note_on_c, 0, 72, 72
4, 61084, Note_on_c, 0, 57, 62
4, 61086, Note_on_c, 0, 67, 66
4, 61087, Note_on_c, 0, 62, 68
4, 61129, Note_on_c, 0, 72, 0
4, 61131, Note_on_c, 0, 67, 0
4, 61152, Note_on_c, 0, 62, 0
4, 61191, Note_on_c, 0, 57, 0
4, 61205, Note_on_c, 0, 69, 64
4, 61209, Note_on_c, 0, 53, 43
4, 61209, Note_on_c, 0, 64, 56
4, 61210, Note_on_c, 0, 60, 41
4, 61272, Note_on_c, 0, 53, 0
4, 61282, Note_on_c, 0, 69, 0
4, 61286, Note_on_c, 0, 60, 0
4, 61287, Note_on_c, 0, 64, 0
4, 61318, Note_on_c, 0, 53, 53
4, 61324, Control_c, 0, 64, 127
4, 61330, Note_on_c, 0, 60, 51
4, 61330, Note_on_c, 0, 64, 59
4, 61331, Note_on_c, 0, 53, 0
4, 61331, Note_on_c, 0, 69, 59
4, 61345, Note_on_c, 0, 60, 0
4, 61350, Note_on_c, 0, 64, 0
4, 61355, Note_on_c, 0, 69, 0
4, 61410, Note_on_c, 0, 74, 73
4, 61412, Note_on_c, 0, 71, 72
4, 61412, Note_on_c, 0, 65, 87
4, 61412, Note_on_c, 0, 69, 82
4, 61412, Note_on_c, 0, 64, 74
4, 61414, Control_c, 0, 64, 0
4, 61536, Note_on_c, 0, 71, 0
4, 61544, Note_on_c, 0, 65, 0
4, 61547, Note_on_c, 0, 69, 0
4, 61555, Note_on_c, 0, 74, 0
4, 61563, Note_on_c, 0, 62, 44
4, 61566, Note_on_c, 0, 64, 0
4, 61574, Note_on_c, 0, 65, 20
4, 61597, Note_on_c, 0, 65, 0
4, 61646, Note_on_c, 0, 74, 71
4, 61648, Note_on_c, 0, 71, 62
4, 61648, Note_on_c, 0, 65, 81
4, 61649, Note_on_c, 0, 64, 71
4, 61649, Note_on_c, 0, 69, 79
4, 61656, Note_on_c, 0, 62, 0
4, 61700, Note_on_c, 0, 69, 0
4, 61701, Note_on_c, 0, 65, 0
4, 61701, Note_on_c, 0, 64, 0
4, 61703, Note_on_c, 0, 74, 0
4, 61713, Note_on_c, 0, 71, 0
4, 61727, Note_on_c, 0, 74, 49
4, 61727, Note_on_c, 0, 64, 58
4, 61730, Note_on_c, 0, 71, 62
4, 61731, Note_on_c, 0, 65, 74
4, 61731, Note_on_c, 0, 69, 73
4, 61801, Note_on_c, 0, 65, 0
4, 61803, Note_on_c, 0, 74, 0
4, 61805, Note_on_c, 0, 69, 0
4, 61806, Note_on_c, 0, 71, 0
4, 61815, Note_on_c, 0, 62, 53
4, 61816, Note_on_c, 0, 64, 0
4, 61821, Note_on_c, 0, 72, 35
4, 61860, Note_on_c, 0, 72, 0
4, 61885, Note_on_c, 0, 62, 0
4, 61892, Note_on_c, 0, 74, 85
4, 61894, Note_on_c, 0, 71, 79
4, 61894, Note_on_c, 0, 65, 99
4, 61894, Note_on_c, 0, 69, 88
4, 61896, Note_on_c, 0, 64, 82
4, 61923, Note_on_c, 0, 65, 0
4, 61932, Note_on_c, 0, 65, 18
4, 61992, Control_c, 0, 64, 127
4, 62033, Note_on_c, 0, 65, 0
4, 62042, Note_on_c, 0, 69, 0
4, 62042, Note_on_c, 0, 71, 0
4, 62043, Note_on_c, 0, 74, 0
4, 62057, Note_on_c, 0, 62, 46
4, 62060, Note_on_c, 0, 64, 0
4, 62062, Note_on_c, 0, 65, 35
4, 62063, Note_on_c, 0, 72, 31
4, 62067, Note_on_c, 0, 69, 30
4, 62100, Note_on_c, 0, 69, 0
4, 62100, Note_on_c, 0, 65, 0
4, 62116, Note_on_c, 0, 72, 0
4, 62126, Control_c, 0, 64, 0
4, 62133, Note_on_c, 0, 65, 62
4, 62134, Note_on_c, 0, 74, 46
4, 62135, Note_on_c, 0, 69, 56
4, 62136, Note_on_c, 0, 62, 0
4, 62136, Note_on_c, 0, 71, 46
4, 62136, Note_on_c, 0, 64, 60
4, 62275, Note_on_c, 0, 74, 0
4, 62276, Note_on_c, 0, 71, 0
4, 62284, Note_on_c, 0, 72, 47
4, 62285, Note_on_c, 0, 62, 46
4, 62296, Note_on_c, 0, 64, 0
4, 62315, Note_on_c, 0, 69, 0
4, 62331, Note_on_c, 0, 65, 0
4, 62336, Note_on_c, 0, 72, 0
4, 62348, Note_on_c, 0, 62, 0
4, 62362, Note_on_c, 0, 76, 72
4, 62363, Note_on_c, 0, 56, 57
4, 62363, Note_on_c, 0, 71, 69
4, 62363, Note_on_c, 0, 65, 80
4, 62365, Note_on_c, 0, 62, 51
4, 62447, Note_on_c, 0, 62, 0
4, 62449, Control_c, 0, 64, 127
4, 62453, Note_on_c, 0, 56, 0
4, 62522, Note_on_c, 0, 76, 0
4, 62527, Note_on_c, 0, 71, 0
4, 62530, Note_on_c, 0, 65, 0
4, 62599, Note_on_c, 0, 71, 55
4, 62601, Note_on_c, 0, 56, 51
4, 62601, Note_on_c, 0, 62, 78
4, 62602, Note_on_c, 0, 67, 69
4, 62629, Note_on_c, 0, 62, 0
4, 62647, Note_on_c, 0, 71, 0
4, 62650, Note_on_c, 0, 67, 0
4, 62656, Control_c, 0, 64, 0
4, 62672, Note_on_c, 0, 74, 78
4, 62672, Note_on_c, 0, 70, 82
4, 62674, Note_on_c, 0, 59, 74
4, 62674, Note_on_c, 0, 65, 83
4, 62676, Note_on_c, 0, 68, 60
4, 62683, Note_on_c, 0, 68, 0
4, 62684, Control_c, 0, 64, 127
4, 62710, Note_on_c, 0, 65, 0
4, 62713, Note_on_c, 0, 70, 0
4, 62713, Note_on_c, 0, 74, 0
4, 62752, Note_on_c, 0, 78, 60
4, 62755, Note_on_c, 0, 59, 0
4, 62755, Control_c, 0, 64, 0
4, 62760, Note_on_c, 0, 56, 0
4, 62760, Note_on_c, 0, 68, 83
4, 62760, Note_on_c, 0, 62, 79
4, 62765, Note_on_c, 0, 74, 43
4, 62768, Note_on_c, 0, 73, 37
4, 62775, Control_c, 0, 64, 127
4, 62788, Note_on_c, 0, 74, 0
4, 62791, Note_on_c, 0, 73, 0
4, 62793, Note_on_c, 0, 78, 0
4, 62801, Note_on_c, 0, 68, 0
4, 62834, Control_c, 0, 64, 0
4, 62838, Note_on_c, 0, 65, 87
4, 62840, Note_on_c, 0, 80, 75
4, 62840, Note_on_c, 0, 74, 62
4, 62845, Note_on_c, 0, 62, 0
4, 62847, Note_on_c, 0, 77, 33
4, 62860, Note_on_c, 0, 77, 0
4, 62862, Note_on_c, 0, 74, 0
4, 62867, Control_c, 0, 64, 127
4, 62872, Note_on_c, 0, 80, 0
4, 62907, Note_on_c, 0, 65, 0
4, 62917, Note_on_c, 0, 83, 72
4, 62918, Note_on_c, 0, 68, 71
4, 62918, Note_on_c, 0, 74, 66
4, 62920, Note_on_c, 0, 79, 66
4, 62923, Note_on_c, 0, 78, 33
4, 62930, Note_on_c, 0, 78, 0
4, 62945, Note_on_c, 0, 74, 0
4, 62950, Note_on_c, 0, 79, 0
4, 62957, Note_on_c, 0, 83, 0
4, 62989, Control_c, 0, 64, 0
4, 62996, Note_on_c, 0, 86, 84
4, 62996, Note_on_c, 0, 71, 80
4, 62997, Note_on_c, 0, 77, 87
4, 62998, Note_on_c, 0, 83, 79
4, 63006, Note_on_c, 0, 68, 0
4, 63015, Control_c, 0, 64, 127
4, 63035, Note_on_c, 0, 83, 0
4, 63039, Note_on_c, 0, 86, 0
4, 63050, Note_on_c, 0, 77, 0
4, 63068, Control_c, 0, 64, 0
4, 63070, Note_on_c, 0, 71, 0
4, 63076, Note_on_c, 0, 68, 63
4, 63077, Note_on_c, 0, 83, 70
4, 63080, Note_on_c, 0, 74, 65
4, 63082, Note_on_c, 0, 79, 59
4, 63097, Note_on_c, 0, 79, 0
4, 63097, Control_c, 0, 64, 127
4, 63106, Note_on_c, 0, 83, 0
4, 63116, Note_on_c, 0, 74, 0
4, 63135, Note_on_c, 0, 68, 0
4, 63150, Note_on_c, 0, 80, 57
4, 63152, Note_on_c, 0, 65, 61
4, 63154, Note_on_c, 0, 72, 60
4, 63168, Note_on_c, 0, 80, 0
4, 63175, Note_on_c, 0, 72, 0
4, 63216, Note_on_c, 0, 65, 0
4, 63221, Control_c, 0, 64, 0
4, 63229, Note_on_c, 0, 77, 49
4, 63229, Note_on_c, 0, 68, 59
4, 63230, Note_on_c, 0, 62, 54
4, 63234, Note_on_c, 0, 74, 38
4, 63236, Control_c, 0, 64, 127
4, 63241, Note_on_c, 0, 72, 26
4, 63255, Note_on_c, 0, 72, 0
4, 63270, Note_on_c, 0, 74, 0
4, 63283, Note_on_c, 0, 68, 0
4, 63289, Note_on_c, 0, 62, 0
4, 63299, Note_on_c, 0, 77, 0
4, 63311, Note_on_c, 0, 74, 45
4, 63311, Note_on_c, 0, 68, 54
4, 63345, Note_on_c, 0, 68, 0
4, 63369, Note_on_c, 0, 74, 0
4, 63377, Control_c, 0, 64, 0
4, 63386, Note_on_c, 0, 72, 51
4, 63387, Note_on_c, 0, 67, 38
4, 63394, Note_on_c, 0, 76, 27
4, 63572, Note_on_c, 0, 62, 54
4, 63574, Note_on_c, 0, 63, 52
4, 63578, Note_on_c, 0, 57, 50
4, 63586, Note_on_c, 0, 67, 0
4, 63596, Note_on_c, 0, 72, 0
4, 63609, Note_on_c, 0, 76, 0
4, 63733, Note_on_c, 0, 84, 78
4, 63735, Note_on_c, 0, 72, 78
4, 63752, Note_on_c, 0, 72, 0
4, 63755, Note_on_c, 0, 63, 0
4, 63758, Note_on_c, 0, 57, 0
4, 63760, Note_on_c, 0, 84, 0
4, 63765, Note_on_c, 0, 62, 0
4, 63812, Note_on_c, 0, 62, 58
4, 63814, Note_on_c, 0, 63, 67
4, 63814, Note_on_c, 0, 57, 62
4, 63817, Note_on_c, 0, 84, 83
4, 63818, Note_on_c, 0, 72, 85
4, 63832, Note_on_c, 0, 72, 0
4, 63832, Note_on_c, 0, 84, 0
4, 63839, Note_on_c, 0, 63, 0
4, 63841, Note_on_c, 0, 57, 0
4, 63848, Note_on_c, 0, 62, 0
4, 63896, Note_on_c, 0, 62, 66
4, 63897, Note_on_c, 0, 63, 67
4, 63898, Note_on_c, 0, 57, 60
4, 63901, Note_on_c, 0, 84, 89
4, 63901, Note_on_c, 0, 72, 91
4, 63945, Note_on_c, 0, 57, 0
4, 63949, Note_on_c, 0, 63, 0
4, 63953, Note_on_c, 0, 72, 0
4, 63953, Note_on_c, 0, 84, 0
4, 63956, Note_on_c, 0, 62, 0
4, 63975, Note_on_c, 0, 63, 74
4, 63976, Note_on_c, 0, 62, 72
4, 63976, Note_on_c, 0, 84, 71
4, 63978, Note_on_c, 0, 57, 68
4, 63978, Note_on_c, 0, 72, 80
4, 64132, Note_on_c, 0, 57, 0
4, 64132, Note_on_c, 0, 84, 0
4, 64139, Note_on_c, 0, 72, 0
4, 64140, Note_on_c, 0, 63, 0
4, 64148, Note_on_c, 0, 62, 0
4, 64167, Note_on_c, 0, 63, 38
4, 64169, Note_on_c, 0, 62, 58
4, 64169, Note_on_c, 0, 71, 67
4, 64170, Note_on_c, 0, 83, 50
4, 64171, Note_on_c, 0, 57, 45
4, 64181, Note_on_c, 0, 63, 0
4, 64182, Note_on_c, 0, 57, 0
4, 64185, Note_on_c, 0, 71, 0
4, 64186, Note_on_c, 0, 62, 0
4, 64191, Note_on_c, 0, 83, 0
4, 64204, Note_on_c, 0, 63, 53
4, 64208, Note_on_c, 0, 57, 51
4, 64209, Note_on_c, 0, 62, 58
4, 64211, Note_on_c, 0, 84, 74
4, 64211, Note_on_c, 0, 72, 70
4, 64224, Note_on_c, 0, 62, 0
4, 64231, Note_on_c, 0, 57, 0
4, 64240, Note_on_c, 0, 63, 0
4, 64241, Note_on_c, 0, 72, 0
4, 64250, Note_on_c, 0, 84, 0
4, 64292, Note_on_c, 0, 82, 82
4, 64293, Note_on_c, 0, 65, 80
4, 64294, Note_on_c, 0, 86, 81
4, 64294, Note_on_c, 0, 74, 85
4, 64294, Note_on_c, 0, 54, 63
4, 64294, Note_on_c, 0, 58, 59
4, 64296, Note_on_c, 0, 60, 63
4, 64302, Note_on_c, 0, 84, 34
4, 64312, Note_on_c, 0, 84, 0
4, 64331, Note_on_c, 0, 74, 0
4, 64332, Note_on_c, 0, 60, 0
4, 64337, Note_on_c, 0, 65, 0
4, 64342, Note_on_c, 0, 58, 0
4, 64346, Note_on_c, 0, 82, 0
4, 64352, Note_on_c, 0, 74, 46
4, 64352, Control_c, 0, 64, 127
4, 64354, Note_on_c, 0, 86, 0
4, 64364, Note_on_c, 0, 54, 0
4, 64368, Note_on_c, 0, 58, 23
4, 64369, Note_on_c, 0, 60, 24
4, 64371, Note_on_c, 0, 65, 42
4, 64378, Note_on_c, 0, 58, 0
4, 64378, Note_on_c, 0, 74, 0
4, 64379, Note_on_c, 0, 86, 38
4, 64381, Note_on_c, 0, 60, 0
4, 64382, Note_on_c, 0, 82, 39
4, 64385, Note_on_c, 0, 65, 0
4, 64397, Note_on_c, 0, 54, 38
4, 64402, Note_on_c, 0, 74, 33
4, 64404, Note_on_c, 0, 86, 0
4, 64406, Note_on_c, 0, 82, 0
4, 64410, Note_on_c, 0, 58, 31
4, 64425, Note_on_c, 0, 65, 60
4, 64426, Note_on_c, 0, 60, 37
4, 64427, Note_on_c, 0, 54, 0
4, 64431, Note_on_c, 0, 74, 0
4, 64433, Note_on_c, 0, 65, 0
4, 64434, Note_on_c, 0, 60, 0
4, 64443, Control_c, 0, 64, 0
4, 64444, Note_on_c, 0, 58, 0
4, 64542, Note_on_c, 0, 82, 83
4, 64543, Note_on_c, 0, 74, 74
4, 64545, Note_on_c, 0, 65, 77
4, 64547, Note_on_c, 0, 58, 52
4, 64547, Note_on_c, 0, 54, 53
4, 64548, Note_on_c, 0, 60, 59
4, 64555, Note_on_c, 0, 60, 0
4, 64555, Note_on_c, 0, 65, 0
4, 64558, Note_on_c, 0, 74, 0
4, 64563, Note_on_c, 0, 54, 0
4, 64564, Note_on_c, 0, 82, 0
4, 64575, Note_on_c, 0, 58, 0
4, 64607, Note_on_c, 0, 54, 67
4, 64607, Note_on_c, 0, 86, 80
4, 64608, Note_on_c, 0, 74, 77
4, 64609, Note_on_c, 0, 65, 72
4, 64610, Note_on_c, 0, 58, 54
4, 64611, Note_on_c, 0, 60, 60
4, 64627, Note_on_c, 0, 65, 0
4, 64629, Note_on_c, 0, 86, 0
4, 64635, Note_on_c, 0, 60, 0
4, 64638, Note_on_c, 0, 74, 0
4, 64639, Note_on_c, 0, 54, 0
4, 64645, Note_on_c, 0, 58, 0
4, 64696, Note_on_c, 0, 74, 28
4, 64697, Note_on_c, 0, 65, 50
4, 64697, Note_on_c, 0, 70, 35
4, 64697, Note_on_c, 0, 60, 57
4, 64699, Note_on_c, 0, 54, 56
4, 64701, Note_on_c, 0, 58, 43
4, 64743, Note_on_c, 0, 54, 0
4, 64743, Note_on_c, 0, 65, 0
4, 64746, Note_on_c, 0, 60, 0
4, 64752, Note_on_c, 0, 70, 0
4, 64752, Note_on_c, 0, 58, 0
4, 64759, Note_on_c, 0, 74, 0
4, 64771, Note_on_c, 0, 77, 66
4, 64773, Note_on_c, 0, 60, 55
4, 64774, Note_on_c, 0, 65, 66
4, 64774, Note_on_c, 0, 58, 56
4, 64774, Note_on_c, 0, 54, 60
4, 64778, Note_on_c, 0, 74, 36
4, 64781, Note_on_c, 0, 60, 0
4, 64781, Note_on_c, 0, 67, 33
4, 64787, Note_on_c, 0, 65, 0
4, 64787, Note_on_c, 0, 74, 0
4, 64788, Note_on_c, 0, 67, 0
4, 64789, Note_on_c, 0, 77, 0
4, 64794, Note_on_c, 0, 54, 0
4, 64794, Note_on_c, 0, 58, 0
4, 64883, Note_on_c, 0, 54, 40
4, 64884, Note_on_c, 0, 70, 74
4, 64886, Note_on_c, 0, 55, 72
4, 64886, Note_on_c, 0, 65, 70
4, 64888, Note_on_c, 0, 60, 63
4, 64898, Note_on_c, 0, 54, 0
4, 65008, Note_on_c, 0, 60, 0
4, 65026, Note_on_c, 0, 65, 0
4, 65026, Note_on_c, 0, 51, 25
4, 65040, Note_on_c, 0, 55, 0
4, 65042, Note_on_c, 0, 70, 0
4, 65045, Note_on_c, 0, 51, 0
4, 65048, Note_on_c, 0, 55, 33
4, 65051, Note_on_c, 0, 62, 58
4, 65054, Note_on_c, 0, 69, 55
4, 65055, Note_on_c, 0, 65, 54
4, 65131, Note_on_c, 0, 55, 0
4, 65133, Note_on_c, 0, 44, 74
4, 65148, Note_on_c, 0, 65, 0
4, 65150, Note_on_c, 0, 69, 0
4, 65163, Note_on_c, 0, 62, 0
4, 65168, Note_on_c, 0, 54, 74
4, 65229, Note_on_c, 0, 54, 0
4, 65247, Note_on_c, 0, 44, 0
4, 65251, Note_on_c, 0, 70, 69
4, 65253, Note_on_c, 0, 62, 69
4, 65253, Note_on_c, 0, 43, 65
4, 65255, Note_on_c, 0, 58, 51
4, 65256, Note_on_c, 0, 65, 66
4, 65256, Note_on_c, 0, 53, 68
4, 65267, Note_on_c, 0, 68, 23
4, 65318, Note_on_c, 0, 43, 0
4, 65328, Control_c, 0, 64, 127
4, 65376, Note_on_c, 0, 53, 0
4, 65379, Note_on_c, 0, 58, 0
4, 65382, Note_on_c, 0, 54, 59
4, 65383, Note_on_c, 0, 65, 0
4, 65384, Note_on_c, 0, 56, 49
4, 65388, Note_on_c, 0, 70, 0
4, 65389, Note_on_c, 0, 62, 0
4, 65392, Note_on_c, 0, 68, 0
4, 65409, Note_on_c, 0, 54, 0
4, 65410, Note_on_c, 0, 56, 0
4, 65412, Control_c, 0, 64, 0
4, 65414, Note_on_c, 0, 57, 92
4, 65416, Note_on_c, 0, 70, 84
4, 65417, Note_on_c, 0, 62, 76
4, 65417, Note_on_c, 0, 58, 97
4, 65419, Note_on_c, 0, 65, 81
4, 65427, Note_on_c, 0, 68, 31
4, 65478, Note_on_c, 0, 54, 42
4, 65479, Note_on_c, 0, 56, 40
4, 65480, Note_on_c, 0, 58, 0
4, 65482, Note_on_c, 0, 70, 0
4, 65485, Note_on_c, 0, 57, 0
4, 65485, Note_on_c, 0, 65, 0
4, 65486, Note_on_c, 0, 68, 0
4, 65487, Note_on_c, 0, 62, 0
4, 65504, Note_on_c, 0, 70, 69
4, 65506, Note_on_c, 0, 54, 0
4, 65506, Note_on_c, 0, 58, 82
4, 65506, Note_on_c, 0, 57, 75
4, 65506, Note_on_c, 0, 62, 80
4, 65508, Note_on_c, 0, 65, 68
4, 65515, Note_on_c, 0, 56, 0
4, 65515, Note_on_c, 0, 68, 27
4, 65542, Note_on_c, 0, 68, 0
4, 65545, Note_on_c, 0, 58, 0
4, 65547, Note_on_c, 0, 70, 0
4, 65548, Note_on_c, 0, 65, 0
4, 65551, Note_on_c, 0, 57, 0
4, 65551, Note_on_c, 0, 62, 0
4, 65566, Note_on_c, 0, 70, 65
4, 65568, Note_on_c, 0, 58, 57
4, 65570, Note_on_c, 0, 57, 60
4, 65570, Note_on_c, 0, 62, 74
4, 65572, Note_on_c, 0, 65, 57
4, 65582, Note_on_c, 0, 68, 23
4, 65619, Control_c, 0, 64, 127
4, 65635, Note_on_c, 0, 68, 0
4, 65646, Note_on_c, 0, 65, 0
4, 65646, Control_c, 0, 64, 0
4, 65650, Note_on_c, 0, 70, 0
4, 65650, Note_on_c, 0, 58, 0
4, 65652, Note_on_c, 0, 62, 0
4, 65661, Note_on_c, 0, 57, 0
4, 65665, Note_on_c, 0, 55, 62
4, 65666, Note_on_c, 0, 58, 33
4, 65673, Note_on_c, 0, 69, 25
4, 65687, Note_on_c, 0, 69, 0
4, 65697, Control_c, 0, 64, 127
4, 65709, Note_on_c, 0, 58, 0
4, 65735, Note_on_c, 0, 55, 0
4, 65746, Note_on_c, 0, 70, 73
4, 65746, Note_on_c, 0, 61, 77
4, 65749, Note_on_c, 0, 65, 87
4, 65756, Control_c, 0, 64, 0
4, 65859, Note_on_c, 0, 51, 71
4, 65873, Control_c, 0, 64, 127
4, 65879, Note_on_c, 0, 51, 0
4, 65903, Note_on_c, 0, 61, 0
4, 65933, Note_on_c, 0, 65, 0
4, 65972, Note_on_c, 0, 55, 72
4, 65974, Note_on_c, 0, 61, 67
4, 65978, Note_on_c, 0, 65, 77
4, 65996, Control_c, 0, 64, 0
4, 65997, Note_on_c, 0, 70, 0
4, 66019, Control_c, 0, 64, 127
4, 66099, Note_on_c, 0, 69, 99
4, 66117, Note_on_c, 0, 65, 0
4, 66138, Note_on_c, 0, 69, 0
4, 66140, Note_on_c, 0, 61, 0
4, 66146, Note_on_c, 0, 55, 0
4, 66158, Note_on_c, 0, 68, 36
4, 66213, Note_on_c, 0, 68, 0
4, 66226, Note_on_c, 0, 56, 49
4, 66230, Note_on_c, 0, 69, 57
4, 66255, Note_on_c, 0, 69, 0
4, 66259, Note_on_c, 0, 56, 0
4, 66262, Control_c, 0, 64, 0
4, 66267, Note_on_c, 0, 57, 74
4, 66269, Note_on_c, 0, 62, 81
4, 66269, Note_on_c, 0, 72, 80
4, 66269, Note_on_c, 0, 67, 73
4, 66275, Note_on_c, 0, 69, 30
4, 66283, Note_on_c, 0, 69, 0
4, 66363, Control_c, 0, 64, 127
4, 66379, Note_on_c, 0, 62, 0
4, 66386, Note_on_c, 0, 57, 0
4, 66389, Note_on_c, 0, 67, 0
4, 66395, Note_on_c, 0, 72, 0
4, 66495, Control_c, 0, 64, 0
4, 66499, Note_on_c, 0, 49, 78
4, 66499, Note_on_c, 0, 81, 85
4, 66500, Note_on_c, 0, 76, 74
4, 66501, Note_on_c, 0, 69, 83
4, 66501, Note_on_c, 0, 57, 80
4, 66501, Note_on_c, 0, 73, 71
4, 66506, Note_on_c, 0, 71, 37
4, 66508, Note_on_c, 0, 79, 32
4, 66513, Note_on_c, 0, 71, 0
4, 66518, Note_on_c, 0, 79, 0
4, 66546, Note_on_c, 0, 81, 0
4, 66548, Note_on_c, 0, 57, 0
4, 66548, Note_on_c, 0, 49, 0
4, 66548, Note_on_c, 0, 73, 0
4, 66550, Note_on_c, 0, 69, 0
4, 66555, Note_on_c, 0, 76, 0
4, 66615, Note_on_c, 0, 79, 74
4, 66616, Note_on_c, 0, 76, 61
4, 66616, Note_on_c, 0, 73, 71
4, 66616, Note_on_c, 0, 49, 76
4, 66617, Note_on_c, 0, 67, 65
4, 66619, Note_on_c, 0, 57, 73
4, 66623, Note_on_c, 0, 69, 34
4, 66631, Note_on_c, 0, 69, 0
4, 66655, Note_on_c, 0, 67, 0
4, 66661, Note_on_c, 0, 76, 0
4, 66665, Note_on_c, 0, 57, 0
4, 66667, Note_on_c, 0, 79, 0
4, 66669, Note_on_c, 0, 49, 0
4, 66674, Note_on_c, 0, 73, 0
4, 66736, Note_on_c, 0, 77, 77
4, 66736, Note_on_c, 0, 65, 82
4, 66738, Note_on_c, 0, 72, 65
4, 66738, Note_on_c, 0, 50, 69
4, 66739, Note_on_c, 0, 57, 53
4, 66739, Note_on_c, 0, 60, 66
4, 66787, Control_c, 0, 64, 127
4, 66854, Note_on_c, 0, 50, 0
4, 66856, Note_on_c, 0, 57, 0
4, 66863, Note_on_c, 0, 77, 0
4, 66866, Note_on_c, 0, 60, 0
4, 66867, Note_on_c, 0, 72, 0
4, 66872, Note_on_c, 0, 65, 0
4, 66970, Control_c, 0, 64, 0
4, 66970, Note_on_c, 0, 74, 47
4, 66970, Note_on_c, 0, 60, 62
4, 66972, Note_on_c, 0, 70, 62
4, 66973, Note_on_c, 0, 65, 65
4, 66974, Note_on_c, 0, 54, 67
4, 67031, Control_c, 0, 64, 127
4, 67083, Note_on_c, 0, 60, 0
4, 67083, Note_on_c, 0, 74, 0
4, 67095, Note_on_c, 0, 70, 0
4, 67096, Note_on_c, 0, 65, 0
4, 67101, Note_on_c, 0, 54, 0
4, 67192, Control_c, 0, 64, 0
4, 67202, Note_on_c, 0, 43, 60
4, 67210, Control_c, 0, 64, 127
4, 67218, Note_on_c, 0, 43, 0
4, 67290, Note_on_c, 0, 53, 46
4, 67293, Note_on_c, 0, 74, 79
4, 67293, Note_on_c, 0, 59, 60
4, 67293, Note_on_c, 0, 64, 68
4, 67307, Control_c, 0, 64, 0
4, 67404, Control_c, 0, 64, 127
4, 67412, Note_on_c, 0, 74, 0
4, 67415, Control_c, 0, 64, 0
4, 67448, Note_on_c, 0, 64, 0
4, 67449, Note_on_c, 0, 74, 64
4, 67449, Note_on_c, 0, 68, 71
4, 67479, Note_on_c, 0, 68, 0
4, 67492, Note_on_c, 0, 69, 19
4, 67513, Note_on_c, 0, 74, 0
4, 67522, Note_on_c, 0, 69, 0
4, 67540, Note_on_c, 0, 62, 51
4, 67561, Note_on_c, 0, 59, 0
4, 67562, Note_on_c, 0, 62, 0
4, 67569, Note_on_c, 0, 53, 0
4, 67579, Note_on_c, 0, 65, 34
4, 67638, Note_on_c, 0, 65, 0
4, 67655, Note_on_c, 0, 65, 75
4, 67657, Note_on_c, 0, 48, 50
4, 67658, Note_on_c, 0, 58, 45
4, 67685, Note_on_c, 0, 65, 0
4, 67718, Note_on_c, 0, 65, 41
4, 67775, Note_on_c, 0, 65, 0
4, 67814, Note_on_c, 0, 65, 60
4, 67874, Note_on_c, 0, 65, 0
4, 67911, Note_on_c, 0, 58, 0
4, 67927, Note_on_c, 0, 60, 63
4, 67962, Note_on_c, 0, 48, 0
4, 67992, Note_on_c, 0, 60, 0
4, 68001, Note_on_c, 0, 62, 54
4, 68029, Note_on_c, 0, 62, 0
4, 68041, Note_on_c, 0, 65, 78
4, 68092, Note_on_c, 0, 65, 0
4, 68121, Note_on_c, 0, 65, 89
4, 68151, Note_on_c, 0, 65, 0
4, 68240, Note_on_c, 0, 47, 54
4, 68241, Note_on_c, 0, 57, 64
4, 68242, Note_on_c, 0, 62, 59
4, 68243, Note_on_c, 0, 65, 53
4, 68264, Note_on_c, 0, 65, 0
4, 68267, Note_on_c, 0, 57, 0
4, 68294, Note_on_c, 0, 62, 0
4, 68303, Note_on_c, 0, 47, 0
4, 68303, Note_on_c, 0, 61, 57
4, 68303, Note_on_c, 0, 56, 50
4, 68304, Note_on_c, 0, 46, 52
4, 68310, Note_on_c, 0, 65, 30
4, 68370, Note_on_c, 0, 65, 0
4, 68373, Note_on_c, 0, 56, 0
4, 68378, Note_on_c, 0, 61, 0
4, 68394, Note_on_c, 0, 46, 0
4, 68409, Note_on_c, 0, 45, 48
4, 68410, Note_on_c, 0, 55, 58
4, 68411, Note_on_c, 0, 65, 51
4, 68413, Note_on_c, 0, 60, 50
4, 68443, Note_on_c, 0, 55, 0
4, 68460, Note_on_c, 0, 60, 0
4, 68471, Note_on_c, 0, 65, 0
4, 68492, Note_on_c, 0, 65, 32
4, 68493, Note_on_c, 0, 54, 63
4, 68496, Note_on_c, 0, 44, 47
4, 68497, Note_on_c, 0, 59, 60
4, 68499, Note_on_c, 0, 45, 0
4, 68513, Note_on_c, 0, 65, 0
4, 68518, Note_on_c, 0, 59, 0
4, 68519, Note_on_c, 0, 54, 0
4, 68523, Note_on_c, 0, 44, 0
4, 68601, Note_on_c, 0, 65, 54
4, 68601, Note_on_c, 0, 58, 60
4, 68602, Note_on_c, 0, 43, 55
4, 68605, Note_on_c, 0, 53, 55
4, 68632, Note_on_c, 0, 53, 0
4, 68636, Note_on_c, 0, 43, 0
4, 68639, Note_on_c, 0, 58, 0
4, 68647, Note_on_c, 0, 65, 0
4, 68674, Note_on_c, 0, 58, 68
4, 68676, Note_on_c, 0, 52, 57
4, 68677, Note_on_c, 0, 63, 33
4, 68679, Note_on_c, 0, 42, 53
4, 68679, Note_on_c, 0, 65, 30
4, 68708, Control_c, 0, 64, 127
4, 68733, Note_on_c, 0, 65, 0
4, 68745, Control_c, 0, 64, 0
4, 68749, Note_on_c, 0, 52, 0
4, 68758, Note_on_c, 0, 63, 0
4, 68771, Note_on_c, 0, 30, 57
4, 68774, Control_c, 0, 64, 127
4, 68783, Note_on_c, 0, 42, 0
4, 68790, Note_on_c, 0, 58, 0
4, 68835, Note_on_c, 0, 30, 0
4, 68854, Note_on_c, 0, 60, 57
4, 68855, Note_on_c, 0, 55, 55
4, 68856, Note_on_c, 0, 29, 55
4, 68856, Note_on_c, 0, 57, 55
4, 68858, Note_on_c, 0, 41, 36
4, 68862, Control_c, 0, 64, 0
4, 68960, Control_c, 0, 64, 127
4, 69094, Note_on_c, 0, 55, 0
4, 69097, Note_on_c, 0, 57, 0
4, 69110, Note_on_c, 0, 29, 0
4, 69111, Note_on_c, 0, 60, 0
4, 69128, Note_on_c, 0, 41, 0
4, 69268, Note_on_c, 0, 69, 49
4, 69309, Note_on_c, 0, 74, 34
4, 69342, Note_on_c, 0, 74, 0
4, 69347, Note_on_c, 0, 79, 51
4, 69371, Note_on_c, 0, 79, 0
4, 69378, Note_on_c, 0, 84, 62
4, 69385, Note_on_c, 0, 84, 0
4, 69407, Note_on_c, 0, 86, 57
4, 69430, Note_on_c, 0, 91, 43
4, 69438, Note_on_c, 0, 86, 0
4, 69457, Note_on_c, 0, 91, 0
4, 69463, Note_on_c, 0, 96, 66
4, 69478, Note_on_c, 0, 96, 0
4, 69496, Note_on_c, 0, 98, 60
4, 69530, Note_on_c, 0, 98, 0
4, 69537, Note_on_c, 0, 96, 61
4, 69616, Note_on_c, 0, 96, 0
4, 69631, Note_on_c, 0, 69, 0
4, 69673, Note_on_c, 0, 108, 69
4, 69688, Note_on_c, 0, 108, 0
4, 69957, Control_c, 0, 64, 0
4, 69957, End_track
0, 0, End_of_file
