0, 0, Header, 1, 6, 960
1, 0, Start_track
1, 0, Title_t, "Cantabile"
1, 0, Text_t, "Song is by French pianist  Michel Petrucciani - featured on his 'Trio in Tokyo' CD (with Anthony Jackson on Bass and Steve Gadd on drums)\012"
1, 0, Text_t, "dougmck@pipeline.com.au\012"
1, 0, Time_signature, 4, 2, 24, 8
1, 0, Key_signature, 0, "major"
1, 0, Tempo, 631579
1, 0, End_track
2, 0, Start_track
2, 0, End_track
3, 0, Start_track
3, 0, Title_t, "Piano"
3, 0, Control_c, 0, 7, 97
3, 958, Note_on_c, 0, 61, 25
3, 1035, Note_on_c, 0, 85, 51
3, 1037, Note_on_c, 0, 62, 71
3, 1039, Note_on_c, 0, 86, 75
3, 1041, Note_on_c, 0, 61, 0
3, 1186, Note_on_c, 0, 85, 0
3, 1945, Note_on_c, 0, 86, 0
3, 2001, Note_on_c, 0, 84, 58
3, 2019, Note_on_c, 0, 62, 0
3, 2036, Note_on_c, 0, 60, 42
3, 2476, Control_c, 0, 64, 127
3, 2567, Control_c, 0, 64, 0
3, 2860, Note_on_c, 0, 84, 0
3, 2961, Note_on_c, 0, 83, 63
3, 2973, Note_on_c, 0, 60, 0
3, 2983, Note_on_c, 0, 59, 40
3, 3003, Control_c, 0, 64, 127
3, 3419, Note_on_c, 0, 59, 0
3, 3862, Control_c, 0, 64, 0
3, 3920, Note_on_c, 0, 83, 0
3, 3949, Note_on_c, 0, 64, 33
3, 3954, Note_on_c, 0, 59, 22
3, 3958, Note_on_c, 0, 79, 39
3, 3977, Note_on_c, 0, 53, 11
3, 4099, Note_on_c, 0, 53, 0
3, 4100, Note_on_c, 0, 64, 0
3, 4111, Note_on_c, 0, 59, 0
3, 4693, Note_on_c, 0, 59, 47
3, 4698, Note_on_c, 0, 64, 40
3, 4714, Note_on_c, 0, 53, 26
3, 4768, Note_on_c, 0, 59, 0
3, 4775, Note_on_c, 0, 64, 0
3, 4778, Note_on_c, 0, 53, 0
3, 5374, Note_on_c, 0, 64, 40
3, 5380, Note_on_c, 0, 59, 37
3, 5389, Note_on_c, 0, 53, 22
3, 5442, Note_on_c, 0, 59, 0
3, 5448, Note_on_c, 0, 64, 0
3, 5474, Note_on_c, 0, 53, 0
3, 6127, Note_on_c, 0, 60, 23
3, 6143, Note_on_c, 0, 64, 20
3, 6206, Note_on_c, 0, 60, 0
3, 6207, Note_on_c, 0, 64, 0
3, 6711, Note_on_c, 0, 79, 0
3, 6774, Note_on_c, 0, 54, 30
3, 6780, Note_on_c, 0, 60, 37
3, 6787, Note_on_c, 0, 64, 34
3, 6871, Note_on_c, 0, 64, 0
3, 6893, Note_on_c, 0, 60, 0
3, 6933, Note_on_c, 0, 54, 0
3, 7552, Note_on_c, 0, 78, 24
3, 7739, Note_on_c, 0, 78, 0
3, 7771, Note_on_c, 0, 59, 17
3, 7779, Note_on_c, 0, 53, 17
3, 7876, Note_on_c, 0, 53, 0
3, 7881, Note_on_c, 0, 59, 0
3, 8474, Note_on_c, 0, 59, 30
3, 8524, Note_on_c, 0, 59, 0
3, 8963, Note_on_c, 0, 59, 74
3, 8975, Note_on_c, 0, 64, 71
3, 8986, Note_on_c, 0, 53, 48
3, 8995, Note_on_c, 0, 74, 57
3, 9018, Note_on_c, 0, 64, 0
3, 9033, Note_on_c, 0, 59, 0
3, 9041, Note_on_c, 0, 53, 0
3, 9042, Note_on_c, 0, 74, 0
3, 9174, Note_on_c, 0, 86, 104
3, 9324, Note_on_c, 0, 86, 0
3, 9435, Note_on_c, 0, 86, 100
3, 9556, Note_on_c, 0, 86, 0
3, 9625, Note_on_c, 0, 57, 55
3, 9629, Note_on_c, 0, 62, 53
3, 9633, Note_on_c, 0, 51, 26
3, 9666, Note_on_c, 0, 86, 63
3, 9729, Note_on_c, 0, 84, 73
3, 9776, Note_on_c, 0, 86, 0
3, 9826, Note_on_c, 0, 84, 0
3, 10149, Note_on_c, 0, 84, 101
3, 10489, Note_on_c, 0, 84, 0
3, 10617, Note_on_c, 0, 83, 101
3, 10628, Note_on_c, 0, 62, 0
3, 10649, Note_on_c, 0, 57, 0
3, 10832, Note_on_c, 0, 83, 0
3, 11057, Note_on_c, 0, 57, 58
3, 11070, Note_on_c, 0, 62, 41
3, 11136, Note_on_c, 0, 62, 0
3, 11185, Note_on_c, 0, 57, 0
3, 11250, Note_on_c, 0, 51, 0
3, 11400, Note_on_c, 0, 79, 29
3, 11465, Note_on_c, 0, 79, 0
3, 11520, Note_on_c, 0, 52, 29
3, 11537, Note_on_c, 0, 62, 30
3, 11557, Note_on_c, 0, 55, 28
3, 11573, Note_on_c, 0, 81, 64
3, 11591, Note_on_c, 0, 59, 26
3, 11766, Note_on_c, 0, 81, 0
3, 11865, Note_on_c, 0, 83, 29
3, 11909, Note_on_c, 0, 81, 60
3, 11928, Note_on_c, 0, 83, 0
3, 11952, Note_on_c, 0, 62, 0
3, 12003, Note_on_c, 0, 59, 0
3, 12066, Note_on_c, 0, 55, 0
3, 12067, Note_on_c, 0, 81, 0
3, 12091, Note_on_c, 0, 79, 23
3, 12296, Note_on_c, 0, 79, 0
3, 12526, Note_on_c, 0, 52, 0
3, 12540, Note_on_c, 0, 83, 71
3, 12573, Note_on_c, 0, 59, 22
3, 12575, Note_on_c, 0, 62, 20
3, 12588, Note_on_c, 0, 55, 20
3, 12627, Note_on_c, 0, 62, 0
3, 12629, Note_on_c, 0, 83, 0
3, 12639, Note_on_c, 0, 59, 0
3, 12679, Note_on_c, 0, 55, 0
3, 13335, Note_on_c, 0, 47, 22
3, 13497, Note_on_c, 0, 66, 18
3, 13511, Note_on_c, 0, 64, 25
3, 13576, Note_on_c, 0, 64, 0
3, 13598, Note_on_c, 0, 47, 0
3, 13611, Note_on_c, 0, 66, 0
3, 13991, Note_on_c, 0, 64, 29
3, 13992, Note_on_c, 0, 66, 17
3, 14088, Note_on_c, 0, 64, 0
3, 14109, Note_on_c, 0, 66, 0
3, 14763, Note_on_c, 0, 47, 25
3, 14765, Note_on_c, 0, 64, 35
3, 14771, Note_on_c, 0, 66, 21
3, 14812, Note_on_c, 0, 64, 0
3, 14836, Note_on_c, 0, 66, 0
3, 14882, Note_on_c, 0, 47, 0
3, 15409, Note_on_c, 0, 40, 27
3, 15519, Note_on_c, 0, 40, 0
3, 16150, Note_on_c, 0, 55, 52
3, 16168, Note_on_c, 0, 60, 25
3, 16232, Note_on_c, 0, 60, 0
3, 16272, Note_on_c, 0, 55, 0
3, 16840, Note_on_c, 0, 59, 62
3, 16853, Note_on_c, 0, 64, 70
3, 16855, Note_on_c, 0, 53, 60
3, 17356, Note_on_c, 0, 83, 110
3, 17362, Note_on_c, 0, 71, 110
3, 17399, Note_on_c, 0, 82, 34
3, 17442, Note_on_c, 0, 82, 0
3, 17897, Note_on_c, 0, 53, 0
3, 17904, Note_on_c, 0, 64, 0
3, 18013, Note_on_c, 0, 83, 0
3, 18077, Note_on_c, 0, 71, 0
3, 18137, Note_on_c, 0, 81, 72
3, 18157, Note_on_c, 0, 53, 39
3, 18168, Note_on_c, 0, 69, 55
3, 18178, Note_on_c, 0, 56, 38
3, 18188, Note_on_c, 0, 63, 27
3, 18626, Note_on_c, 0, 81, 0
3, 18691, Note_on_c, 0, 69, 0
3, 18824, Note_on_c, 0, 79, 41
3, 18827, Note_on_c, 0, 59, 0
3, 18837, Note_on_c, 0, 67, 30
3, 18902, Note_on_c, 0, 63, 0
3, 18929, Note_on_c, 0, 79, 0
3, 18975, Note_on_c, 0, 53, 0
3, 18980, Note_on_c, 0, 67, 0
3, 19189, Note_on_c, 0, 56, 0
3, 19319, Note_on_c, 0, 76, 55
3, 19322, Note_on_c, 0, 52, 33
3, 19330, Note_on_c, 0, 64, 38
3, 19334, Note_on_c, 0, 60, 27
3, 19335, Note_on_c, 0, 57, 42
3, 19405, Note_on_c, 0, 57, 0
3, 19442, Note_on_c, 0, 60, 0
3, 19492, Note_on_c, 0, 52, 0
3, 20016, Note_on_c, 0, 57, 31
3, 20018, Note_on_c, 0, 60, 23
3, 20022, Note_on_c, 0, 52, 20
3, 20077, Note_on_c, 0, 57, 0
3, 20091, Note_on_c, 0, 60, 0
3, 20134, Note_on_c, 0, 52, 0
3, 20565, Note_on_c, 0, 64, 0
3, 20664, Note_on_c, 0, 49, 30
3, 20680, Note_on_c, 0, 57, 28
3, 20683, Note_on_c, 0, 55, 27
3, 20776, Note_on_c, 0, 76, 0
3, 21612, Note_on_c, 0, 82, 95
3, 21617, Note_on_c, 0, 83, 100
3, 21705, Note_on_c, 0, 82, 0
3, 21759, Note_on_c, 0, 57, 0
3, 21768, Note_on_c, 0, 83, 0
3, 21896, Note_on_c, 0, 55, 0
3, 22096, Note_on_c, 0, 82, 78
3, 22098, Note_on_c, 0, 83, 90
3, 22132, Note_on_c, 0, 55, 43
3, 22139, Note_on_c, 0, 57, 53
3, 22205, Note_on_c, 0, 82, 0
3, 22276, Note_on_c, 0, 83, 0
3, 22402, Note_on_c, 0, 81, 65
3, 22444, Note_on_c, 0, 55, 0
3, 22522, Note_on_c, 0, 81, 0
3, 22563, Note_on_c, 0, 49, 0
3, 22584, Note_on_c, 0, 57, 0
3, 22599, Note_on_c, 0, 79, 36
3, 22893, Note_on_c, 0, 79, 0
3, 23043, Note_on_c, 0, 50, 23
3, 23058, Note_on_c, 0, 76, 50
3, 23066, Note_on_c, 0, 60, 27
3, 23077, Note_on_c, 0, 57, 30
3, 23216, Note_on_c, 0, 57, 0
3, 23254, Note_on_c, 0, 50, 0
3, 23289, Note_on_c, 0, 60, 0
3, 23789, Note_on_c, 0, 50, 21
3, 23831, Note_on_c, 0, 60, 20
3, 23838, Note_on_c, 0, 57, 36
3, 23912, Note_on_c, 0, 57, 0
3, 23940, Note_on_c, 0, 60, 0
3, 23963, Note_on_c, 0, 50, 0
3, 24532, Note_on_c, 0, 62, 22
3, 24534, Note_on_c, 0, 54, 20
3, 24656, Note_on_c, 0, 62, 0
3, 24696, Note_on_c, 0, 54, 0
3, 24717, Note_on_c, 0, 76, 0
3, 25001, Note_on_c, 0, 74, 52
3, 25141, Note_on_c, 0, 74, 0
3, 25361, Note_on_c, 0, 76, 22
3, 25413, Note_on_c, 0, 76, 0
3, 25524, Note_on_c, 0, 79, 93
3, 25525, Note_on_c, 0, 62, 35
3, 25541, Note_on_c, 0, 54, 24
3, 25564, Note_on_c, 0, 60, 21
3, 25634, Note_on_c, 0, 60, 0
3, 25666, Note_on_c, 0, 62, 0
3, 25735, Note_on_c, 0, 79, 0
3, 25744, Note_on_c, 0, 54, 0
3, 25814, Note_on_c, 0, 81, 96
3, 25983, Note_on_c, 0, 81, 0
3, 26001, Note_on_c, 0, 79, 78
3, 26038, Note_on_c, 0, 62, 20
3, 26056, Note_on_c, 0, 54, 15
3, 26181, Note_on_c, 0, 62, 0
3, 26215, Note_on_c, 0, 79, 0
3, 26245, Note_on_c, 0, 54, 0
3, 26475, Note_on_c, 0, 79, 82
3, 26691, Note_on_c, 0, 79, 0
3, 26847, Note_on_c, 0, 76, 18
3, 26906, Note_on_c, 0, 76, 0
3, 26929, Note_on_c, 0, 59, 27
3, 26936, Note_on_c, 0, 53, 30
3, 26964, Note_on_c, 0, 64, 18
3, 26973, Note_on_c, 0, 79, 46
3, 27308, Note_on_c, 0, 53, 0
3, 27326, Note_on_c, 0, 59, 0
3, 27357, Note_on_c, 0, 64, 0
3, 27682, Note_on_c, 0, 59, 37
3, 27686, Note_on_c, 0, 64, 25
3, 27689, Note_on_c, 0, 53, 28
3, 27769, Note_on_c, 0, 53, 0
3, 27778, Note_on_c, 0, 64, 0
3, 27801, Note_on_c, 0, 59, 0
3, 28409, Note_on_c, 0, 59, 27
3, 28410, Note_on_c, 0, 53, 24
3, 28500, Note_on_c, 0, 53, 0
3, 28529, Note_on_c, 0, 59, 0
3, 29160, Note_on_c, 0, 64, 27
3, 29172, Note_on_c, 0, 60, 33
3, 29239, Note_on_c, 0, 60, 0
3, 29269, Note_on_c, 0, 64, 0
3, 29858, Note_on_c, 0, 55, 31
3, 29872, Note_on_c, 0, 64, 24
3, 29876, Note_on_c, 0, 60, 37
3, 30277, Note_on_c, 0, 64, 0
3, 30285, Note_on_c, 0, 60, 0
3, 30361, Note_on_c, 0, 55, 0
3, 30640, Note_on_c, 0, 62, 23
3, 30645, Note_on_c, 0, 53, 20
3, 30651, Note_on_c, 0, 59, 33
3, 30724, Note_on_c, 0, 79, 0
3, 30924, Note_on_c, 0, 59, 0
3, 31121, Note_on_c, 0, 59, 25
3, 31191, Note_on_c, 0, 62, 0
3, 31236, Note_on_c, 0, 85, 91
3, 31253, Note_on_c, 0, 73, 86
3, 31284, Note_on_c, 0, 59, 0
3, 31455, Note_on_c, 0, 73, 0
3, 31460, Note_on_c, 0, 85, 0
3, 31509, Note_on_c, 0, 86, 71
3, 31517, Note_on_c, 0, 74, 70
3, 31566, Note_on_c, 0, 84, 29
3, 31609, Note_on_c, 0, 74, 0
3, 31611, Note_on_c, 0, 86, 0
3, 31614, Note_on_c, 0, 84, 0
3, 31683, Note_on_c, 0, 86, 41
3, 31701, Note_on_c, 0, 74, 33
3, 31961, Note_on_c, 0, 86, 0
3, 31980, Note_on_c, 0, 74, 0
3, 32176, Note_on_c, 0, 86, 96
3, 32185, Note_on_c, 0, 74, 88
3, 32337, Note_on_c, 0, 53, 0
3, 32401, Note_on_c, 0, 86, 0
3, 32416, Note_on_c, 0, 74, 0
3, 32681, Note_on_c, 0, 64, 73
3, 32683, Note_on_c, 0, 60, 61
3, 32685, Note_on_c, 0, 54, 34
3, 32690, Note_on_c, 0, 86, 103
3, 32695, Note_on_c, 0, 74, 103
3, 32848, Note_on_c, 0, 64, 0
3, 32852, Note_on_c, 0, 74, 0
3, 32867, Note_on_c, 0, 86, 0
3, 32904, Note_on_c, 0, 60, 0
3, 32918, Note_on_c, 0, 54, 0
3, 33165, Note_on_c, 0, 84, 95
3, 33175, Note_on_c, 0, 54, 42
3, 33177, Note_on_c, 0, 72, 87
3, 33186, Note_on_c, 0, 64, 66
3, 33196, Note_on_c, 0, 60, 55
3, 33361, Note_on_c, 0, 64, 0
3, 33387, Note_on_c, 0, 60, 0
3, 33397, Note_on_c, 0, 84, 0
3, 33416, Note_on_c, 0, 54, 0
3, 33456, Note_on_c, 0, 72, 0
3, 33654, Note_on_c, 0, 83, 83
3, 33666, Note_on_c, 0, 54, 59
3, 33672, Note_on_c, 0, 71, 82
3, 33676, Note_on_c, 0, 64, 70
3, 33682, Note_on_c, 0, 60, 55
3, 33785, Note_on_c, 0, 83, 0
3, 33833, Note_on_c, 0, 71, 0
3, 33869, Note_on_c, 0, 64, 0
3, 33882, Note_on_c, 0, 60, 0
3, 34064, Note_on_c, 0, 54, 0
3, 34141, Note_on_c, 0, 79, 81
3, 34146, Note_on_c, 0, 73, 61
3, 34147, Note_on_c, 0, 53, 65
3, 34148, Note_on_c, 0, 67, 72
3, 34162, Note_on_c, 0, 62, 64
3, 34167, Note_on_c, 0, 59, 61
3, 34188, Note_on_c, 0, 73, 0
3, 34196, Note_on_c, 0, 74, 69
3, 35445, Note_on_c, 0, 62, 0
3, 35583, Note_on_c, 0, 62, 29
3, 35741, Note_on_c, 0, 62, 0
3, 35962, Note_on_c, 0, 59, 0
3, 36072, Note_on_c, 0, 53, 0
3, 36493, Note_on_c, 0, 55, 32
3, 36517, Note_on_c, 0, 60, 27
3, 36519, Note_on_c, 0, 64, 22
3, 36574, Note_on_c, 0, 60, 0
3, 36589, Note_on_c, 0, 64, 0
3, 36613, Note_on_c, 0, 55, 0
3, 37009, Note_on_c, 0, 55, 22
3, 37010, Note_on_c, 0, 64, 21
3, 37019, Note_on_c, 0, 60, 28
3, 37097, Note_on_c, 0, 67, 0
3, 37112, Note_on_c, 0, 74, 0
3, 37448, Note_on_c, 0, 79, 0
3, 37883, Note_on_c, 0, 60, 0
3, 37904, Note_on_c, 0, 64, 0
3, 38046, Note_on_c, 0, 55, 0
3, 38933, Note_on_c, 0, 62, 19
3, 38934, Note_on_c, 0, 55, 25
3, 38944, Note_on_c, 0, 59, 29
3, 39418, Note_on_c, 0, 82, 95
3, 39423, Note_on_c, 0, 70, 101
3, 39668, Note_on_c, 0, 82, 0
3, 39669, Note_on_c, 0, 70, 0
3, 39686, Note_on_c, 0, 59, 0
3, 39703, Note_on_c, 0, 62, 0
3, 39732, Note_on_c, 0, 83, 75
3, 39747, Note_on_c, 0, 71, 36
3, 39774, Note_on_c, 0, 72, 49
3, 39818, Note_on_c, 0, 55, 0
3, 39822, Note_on_c, 0, 72, 0
3, 40339, Note_on_c, 0, 51, 28
3, 40361, Note_on_c, 0, 62, 30
3, 40364, Note_on_c, 0, 57, 48
3, 41010, Note_on_c, 0, 83, 0
3, 41277, Note_on_c, 0, 71, 0
3, 41303, Note_on_c, 0, 81, 101
3, 41323, Note_on_c, 0, 71, 31
3, 41374, Note_on_c, 0, 71, 0
3, 41773, Note_on_c, 0, 57, 0
3, 41866, Note_on_c, 0, 51, 0
3, 41979, Note_on_c, 0, 62, 0
3, 42030, Note_on_c, 0, 81, 0
3, 42120, Note_on_c, 0, 79, 28
3, 42196, Note_on_c, 0, 79, 0
3, 42302, Note_on_c, 0, 81, 84
3, 42310, Note_on_c, 0, 62, 27
3, 42315, Note_on_c, 0, 59, 32
3, 42319, Note_on_c, 0, 52, 19
3, 42329, Note_on_c, 0, 55, 29
3, 42553, Note_on_c, 0, 81, 0
3, 42597, Note_on_c, 0, 83, 56
3, 42705, Note_on_c, 0, 81, 30
3, 42756, Note_on_c, 0, 62, 0
3, 42766, Note_on_c, 0, 83, 0
3, 42807, Note_on_c, 0, 81, 0
3, 42812, Note_on_c, 0, 79, 41
3, 42865, Note_on_c, 0, 59, 0
3, 43063, Note_on_c, 0, 79, 0
3, 43253, Note_on_c, 0, 83, 76
3, 43383, Note_on_c, 0, 83, 0
3, 43467, Note_on_c, 0, 52, 0
3, 43479, Note_on_c, 0, 55, 0
3, 44681, Note_on_c, 0, 60, 22
3, 44698, Note_on_c, 0, 66, 19
3, 44701, Note_on_c, 0, 64, 40
3, 44705, Note_on_c, 0, 47, 20
3, 44707, Note_on_c, 0, 57, 16
3, 44797, Note_on_c, 0, 57, 0
3, 44798, Note_on_c, 0, 64, 0
3, 44799, Note_on_c, 0, 60, 0
3, 44809, Note_on_c, 0, 66, 0
3, 44812, Note_on_c, 0, 47, 0
3, 45460, Note_on_c, 0, 66, 20
3, 45471, Note_on_c, 0, 64, 27
3, 45478, Note_on_c, 0, 60, 16
3, 45540, Note_on_c, 0, 64, 0
3, 45556, Note_on_c, 0, 60, 0
3, 45603, Note_on_c, 0, 66, 0
3, 46097, Note_on_c, 0, 67, 35
3, 46098, Note_on_c, 0, 52, 18
3, 46103, Note_on_c, 0, 57, 23
3, 46124, Note_on_c, 0, 62, 25
3, 46181, Note_on_c, 0, 62, 0
3, 46189, Note_on_c, 0, 52, 0
3, 46201, Note_on_c, 0, 57, 0
3, 46233, Note_on_c, 0, 67, 0
3, 46886, Note_on_c, 0, 57, 50
3, 46900, Note_on_c, 0, 62, 24
3, 46901, Note_on_c, 0, 52, 22
3, 46940, Note_on_c, 0, 57, 0
3, 46943, Note_on_c, 0, 62, 0
3, 46960, Note_on_c, 0, 52, 0
3, 47042, Note_on_c, 0, 82, 84
3, 47051, Note_on_c, 0, 70, 84
3, 47052, Note_on_c, 0, 75, 85
3, 47241, Note_on_c, 0, 75, 0
3, 47295, Note_on_c, 0, 82, 0
3, 47299, Note_on_c, 0, 70, 0
3, 47325, Note_on_c, 0, 83, 67
3, 47336, Note_on_c, 0, 71, 67
3, 47364, Note_on_c, 0, 76, 53
3, 47414, Note_on_c, 0, 76, 0
3, 47440, Note_on_c, 0, 71, 0
3, 47572, Note_on_c, 0, 71, 26
3, 47611, Note_on_c, 0, 76, 21
3, 47664, Note_on_c, 0, 76, 0
3, 47670, Note_on_c, 0, 71, 0
3, 47697, Note_on_c, 0, 83, 0
3, 47804, Note_on_c, 0, 83, 72
3, 47819, Note_on_c, 0, 71, 67
3, 47833, Note_on_c, 0, 76, 77
3, 47911, Note_on_c, 0, 71, 0
3, 47924, Note_on_c, 0, 76, 0
3, 47938, Note_on_c, 0, 53, 24
3, 47954, Note_on_c, 0, 83, 0
3, 47961, Note_on_c, 0, 64, 30
3, 48026, Note_on_c, 0, 64, 0
3, 48030, Note_on_c, 0, 83, 61
3, 48053, Note_on_c, 0, 53, 0
3, 48057, Note_on_c, 0, 71, 52
3, 48066, Note_on_c, 0, 76, 50
3, 48227, Note_on_c, 0, 76, 0
3, 48237, Note_on_c, 0, 83, 0
3, 48263, Note_on_c, 0, 71, 0
3, 48511, Note_on_c, 0, 81, 43
3, 48534, Note_on_c, 0, 76, 55
3, 48537, Note_on_c, 0, 69, 43
3, 48655, Note_on_c, 0, 81, 0
3, 48658, Note_on_c, 0, 76, 0
3, 48739, Note_on_c, 0, 69, 0
3, 49009, Note_on_c, 0, 79, 36
3, 49019, Note_on_c, 0, 74, 55
3, 49027, Note_on_c, 0, 59, 27
3, 49037, Note_on_c, 0, 53, 26
3, 49046, Note_on_c, 0, 67, 23
3, 49105, Note_on_c, 0, 59, 0
3, 49114, Note_on_c, 0, 74, 0
3, 49122, Note_on_c, 0, 79, 0
3, 49156, Note_on_c, 0, 67, 0
3, 49186, Note_on_c, 0, 53, 0
3, 49501, Note_on_c, 0, 57, 33
3, 49504, Note_on_c, 0, 72, 49
3, 49511, Note_on_c, 0, 76, 34
3, 49513, Note_on_c, 0, 64, 40
3, 49522, Note_on_c, 0, 52, 26
3, 50777, Note_on_c, 0, 64, 0
3, 50972, Note_on_c, 0, 64, 28
3, 51117, Note_on_c, 0, 52, 0
3, 51471, Note_on_c, 0, 57, 0
3, 51555, Note_on_c, 0, 72, 0
3, 51661, Note_on_c, 0, 64, 0
3, 51768, Note_on_c, 0, 76, 0
3, 51884, Note_on_c, 0, 74, 89
3, 51886, Note_on_c, 0, 49, 53
3, 51890, Note_on_c, 0, 73, 38
3, 51895, Note_on_c, 0, 57, 56
3, 51977, Note_on_c, 0, 73, 0
3, 52016, Note_on_c, 0, 74, 0
3, 52374, Note_on_c, 0, 72, 101
3, 52503, Note_on_c, 0, 72, 0
3, 52701, Note_on_c, 0, 57, 0
3, 52843, Note_on_c, 0, 71, 88
3, 52887, Note_on_c, 0, 57, 31
3, 53153, Note_on_c, 0, 49, 0
3, 53247, Note_on_c, 0, 71, 0
3, 53305, Note_on_c, 0, 67, 55
3, 53323, Note_on_c, 0, 49, 27
3, 53516, Note_on_c, 0, 49, 0
3, 53561, Note_on_c, 0, 57, 0
3, 53732, Note_on_c, 0, 67, 0
3, 53781, Note_on_c, 0, 50, 24
3, 53788, Note_on_c, 0, 64, 60
3, 53803, Note_on_c, 0, 57, 25
3, 53807, Note_on_c, 0, 60, 36
3, 54521, Note_on_c, 0, 64, 0
3, 54770, Note_on_c, 0, 62, 36
3, 54938, Note_on_c, 0, 62, 0
3, 55037, Note_on_c, 0, 64, 54
3, 55115, Note_on_c, 0, 64, 0
3, 55217, Note_on_c, 0, 67, 80
3, 55415, Note_on_c, 0, 67, 0
3, 55510, Note_on_c, 0, 70, 98
3, 56061, Note_on_c, 0, 70, 0
3, 56104, Note_on_c, 0, 71, 89
3, 56183, Note_on_c, 0, 60, 0
3, 56664, Note_on_c, 0, 71, 0
3, 56692, Note_on_c, 0, 57, 0
3, 56708, Note_on_c, 0, 67, 61
3, 56826, Note_on_c, 0, 50, 0
3, 56885, Note_on_c, 0, 67, 0
3, 56977, Note_on_c, 0, 62, 55
3, 57085, Note_on_c, 0, 62, 0
3, 57158, Note_on_c, 0, 60, 47
3, 57375, Note_on_c, 0, 60, 0
3, 57453, Note_on_c, 0, 58, 28
3, 57531, Note_on_c, 0, 50, 9
3, 57599, Note_on_c, 0, 58, 0
3, 57613, Note_on_c, 0, 43, 20
3, 57636, Note_on_c, 0, 55, 20
3, 57663, Note_on_c, 0, 59, 38
3, 58906, Note_on_c, 0, 55, 0
3, 58947, Note_on_c, 0, 50, 0
3, 58974, Note_on_c, 0, 43, 0
3, 59084, Note_on_c, 0, 46, 44
3, 59204, Note_on_c, 0, 59, 0
3, 59294, Note_on_c, 0, 46, 0
3, 59385, Note_on_c, 0, 47, 33
3, 59550, Note_on_c, 0, 64, 48
3, 59552, Note_on_c, 0, 55, 25
3, 59561, Note_on_c, 0, 60, 28
3, 59566, Note_on_c, 0, 47, 0
3, 59598, Note_on_c, 0, 48, 33
3, 59790, Note_on_c, 0, 55, 0
3, 59812, Note_on_c, 0, 60, 0
3, 59835, Note_on_c, 0, 64, 0
3, 59858, Note_on_c, 0, 48, 0
3, 60030, Note_on_c, 0, 48, 29
3, 60043, Note_on_c, 0, 60, 34
3, 60045, Note_on_c, 0, 64, 42
3, 60054, Note_on_c, 0, 55, 19
3, 60196, Note_on_c, 0, 60, 0
3, 60300, Note_on_c, 0, 64, 0
3, 60406, Note_on_c, 0, 55, 0
3, 60493, Note_on_c, 0, 48, 0
3, 60517, Note_on_c, 0, 61, 54
3, 60534, Note_on_c, 0, 42, 31
3, 60537, Note_on_c, 0, 58, 28
3, 60862, Note_on_c, 0, 61, 0
3, 60878, Note_on_c, 0, 58, 0
3, 61002, Note_on_c, 0, 62, 56
3, 61003, Note_on_c, 0, 42, 0
3, 61018, Note_on_c, 0, 43, 37
3, 61024, Note_on_c, 0, 55, 25
3, 61046, Note_on_c, 0, 59, 26
3, 62691, Note_on_c, 0, 55, 0
3, 62870, Note_on_c, 0, 62, 0
3, 62889, Note_on_c, 0, 59, 0
3, 63472, Note_on_c, 0, 43, 0
3, 63637, Note_on_c, 0, 67, 60
3, 63788, Note_on_c, 0, 67, 0
3, 63842, Note_on_c, 0, 69, 68
3, 63993, Note_on_c, 0, 69, 0
3, 64047, Note_on_c, 0, 71, 71
3, 64269, Note_on_c, 0, 71, 0
3, 64290, Note_on_c, 0, 72, 64
3, 64487, Note_on_c, 0, 72, 0
3, 64525, Control_c, 0, 64, 127
3, 64530, Note_on_c, 0, 73, 45
3, 64664, Note_on_c, 0, 73, 0
3, 64671, Control_c, 0, 64, 0
3, 64742, Note_on_c, 0, 74, 71
3, 64818, Control_c, 0, 64, 127
3, 64919, Control_c, 0, 64, 0
3, 64975, Control_c, 0, 64, 127
3, 65089, Note_on_c, 0, 74, 0
3, 65153, Control_c, 0, 64, 0
3, 65224, Note_on_c, 0, 75, 61
3, 65231, Note_on_c, 0, 66, 75
3, 65235, Note_on_c, 0, 71, 68
3, 65254, Note_on_c, 0, 55, 65
3, 65423, Control_c, 0, 64, 127
3, 65794, Note_on_c, 0, 66, 0
3, 65796, Note_on_c, 0, 55, 0
3, 65856, Note_on_c, 0, 75, 0
3, 65867, Note_on_c, 0, 71, 0
3, 66176, Control_c, 0, 64, 0
3, 66204, Note_on_c, 0, 71, 60
3, 66214, Note_on_c, 0, 65, 55
3, 66223, Note_on_c, 0, 74, 54
3, 66241, Note_on_c, 0, 55, 53
3, 66412, Control_c, 0, 64, 127
3, 66593, Note_on_c, 0, 55, 0
3, 66681, Note_on_c, 0, 65, 0
3, 66736, Note_on_c, 0, 71, 0
3, 66842, Note_on_c, 0, 74, 0
3, 67098, Control_c, 0, 64, 0
3, 67159, Note_on_c, 0, 47, 41
3, 67160, Note_on_c, 0, 74, 58
3, 67165, Note_on_c, 0, 65, 53
3, 67176, Note_on_c, 0, 55, 36
3, 67288, Control_c, 0, 64, 127
3, 67453, Note_on_c, 0, 47, 0
3, 67536, Note_on_c, 0, 55, 0
3, 67586, Note_on_c, 0, 74, 0
3, 67652, Note_on_c, 0, 65, 0
3, 68063, Control_c, 0, 64, 0
3, 68087, Note_on_c, 0, 72, 54
3, 68092, Note_on_c, 0, 48, 50
3, 68100, Note_on_c, 0, 64, 49
3, 68124, Note_on_c, 0, 60, 33
3, 68298, Control_c, 0, 64, 127
3, 68614, Note_on_c, 0, 60, 0
3, 68663, Note_on_c, 0, 48, 0
3, 68735, Note_on_c, 0, 64, 0
3, 68760, Note_on_c, 0, 72, 0
3, 69099, Note_on_c, 0, 72, 77
3, 69105, Note_on_c, 0, 63, 79
3, 69108, Control_c, 0, 64, 0
3, 69109, Note_on_c, 0, 66, 78
3, 69126, Note_on_c, 0, 51, 70
3, 69387, Control_c, 0, 64, 127
3, 69837, Note_on_c, 0, 66, 0
3, 69852, Note_on_c, 0, 63, 0
3, 69955, Note_on_c, 0, 72, 0
3, 70050, Control_c, 0, 64, 0
3, 70065, Note_on_c, 0, 51, 0
3, 70067, Note_on_c, 0, 71, 65
3, 70071, Note_on_c, 0, 63, 50
3, 70072, Note_on_c, 0, 54, 60
3, 70075, Note_on_c, 0, 66, 57
3, 70364, Control_c, 0, 64, 127
3, 70572, Note_on_c, 0, 63, 0
3, 70597, Note_on_c, 0, 54, 0
3, 70717, Note_on_c, 0, 66, 0
3, 70777, Note_on_c, 0, 71, 0
3, 71027, Control_c, 0, 64, 0
3, 71032, Note_on_c, 0, 71, 53
3, 71042, Note_on_c, 0, 62, 32
3, 71057, Note_on_c, 0, 67, 44
3, 71070, Note_on_c, 0, 53, 34
3, 71309, Control_c, 0, 64, 127
3, 71614, Note_on_c, 0, 62, 0
3, 71665, Note_on_c, 0, 67, 0
3, 71720, Note_on_c, 0, 53, 0
3, 71723, Note_on_c, 0, 71, 0
3, 71969, Control_c, 0, 64, 0
3, 71973, Note_on_c, 0, 62, 34
3, 71980, Note_on_c, 0, 67, 40
3, 71986, Note_on_c, 0, 53, 35
3, 71992, Note_on_c, 0, 69, 39
3, 71993, Note_on_c, 0, 41, 33
3, 72215, Control_c, 0, 64, 127
3, 72385, Note_on_c, 0, 41, 0
3, 72386, Note_on_c, 0, 53, 0
3, 72396, Note_on_c, 0, 69, 0
3, 72424, Note_on_c, 0, 67, 0
3, 72447, Note_on_c, 0, 62, 0
3, 72934, Control_c, 0, 64, 0
3, 72959, Note_on_c, 0, 69, 71
3, 72965, Note_on_c, 0, 52, 49
3, 72969, Note_on_c, 0, 64, 63
3, 72970, Note_on_c, 0, 40, 47
3, 72972, Note_on_c, 0, 60, 58
3, 73190, Control_c, 0, 64, 127
3, 73452, Note_on_c, 0, 40, 0
3, 73529, Note_on_c, 0, 52, 0
3, 73563, Note_on_c, 0, 60, 0
3, 73600, Note_on_c, 0, 64, 0
3, 73652, Note_on_c, 0, 69, 0
3, 73919, Note_on_c, 0, 52, 70
3, 73920, Note_on_c, 0, 67, 78
3, 73924, Note_on_c, 0, 64, 80
3, 73925, Note_on_c, 0, 60, 80
3, 73934, Control_c, 0, 64, 0
3, 74137, Control_c, 0, 64, 127
3, 74438, Note_on_c, 0, 60, 0
3, 74450, Note_on_c, 0, 64, 0
3, 74586, Note_on_c, 0, 67, 0
3, 74855, Control_c, 0, 64, 0
3, 74885, Note_on_c, 0, 52, 0
3, 74901, Note_on_c, 0, 58, 67
3, 74902, Note_on_c, 0, 63, 64
3, 74903, Note_on_c, 0, 67, 64
3, 74913, Note_on_c, 0, 51, 56
3, 75069, Control_c, 0, 64, 127
3, 75269, Note_on_c, 0, 67, 0
3, 75284, Note_on_c, 0, 58, 0
3, 75309, Note_on_c, 0, 51, 0
3, 75407, Note_on_c, 0, 63, 0
3, 75680, Note_on_c, 0, 66, 77
3, 75685, Note_on_c, 0, 57, 74
3, 75690, Note_on_c, 0, 50, 75
3, 75694, Note_on_c, 0, 62, 73
3, 75697, Control_c, 0, 64, 0
3, 75944, Control_c, 0, 64, 127
3, 75965, Note_on_c, 0, 50, 0
3, 76039, Note_on_c, 0, 57, 0
3, 76110, Note_on_c, 0, 62, 0
3, 76153, Note_on_c, 0, 66, 0
3, 76606, Control_c, 0, 64, 0
3, 76608, Note_on_c, 0, 67, 74
3, 76610, Note_on_c, 0, 62, 78
3, 76615, Note_on_c, 0, 43, 66
3, 76616, Note_on_c, 0, 31, 74
3, 76629, Note_on_c, 0, 59, 74
3, 77250, Note_on_c, 0, 62, 0
3, 77261, Note_on_c, 0, 59, 0
3, 77273, Note_on_c, 0, 67, 0
3, 77281, Note_on_c, 0, 31, 0
3, 77292, Note_on_c, 0, 43, 0
3, 77525, Note_on_c, 0, 67, 64
3, 77641, Note_on_c, 0, 67, 0
3, 77738, Note_on_c, 0, 69, 54
3, 77915, Note_on_c, 0, 69, 0
3, 77994, Note_on_c, 0, 71, 66
3, 78162, Note_on_c, 0, 71, 0
3, 78209, Note_on_c, 0, 72, 60
3, 78354, Note_on_c, 0, 72, 0
3, 78451, Note_on_c, 0, 74, 58
3, 78532, Note_on_c, 0, 74, 0
3, 78676, Note_on_c, 0, 66, 62
3, 78678, Note_on_c, 0, 55, 55
3, 78681, Note_on_c, 0, 75, 57
3, 78687, Note_on_c, 0, 71, 55
3, 79483, Note_on_c, 0, 55, 0
3, 79595, Note_on_c, 0, 66, 0
3, 79644, Note_on_c, 0, 75, 0
3, 79656, Note_on_c, 0, 71, 0
3, 79710, Note_on_c, 0, 74, 64
3, 79718, Note_on_c, 0, 65, 54
3, 79721, Note_on_c, 0, 71, 59
3, 79729, Note_on_c, 0, 59, 43
3, 80333, Control_c, 0, 64, 127
3, 80422, Note_on_c, 0, 59, 0
3, 80433, Note_on_c, 0, 65, 0
3, 80436, Note_on_c, 0, 74, 0
3, 80467, Note_on_c, 0, 71, 0
3, 80559, Control_c, 0, 64, 0
3, 80653, Note_on_c, 0, 74, 64
3, 80654, Note_on_c, 0, 71, 60
3, 80657, Note_on_c, 0, 65, 59
3, 80674, Note_on_c, 0, 59, 47
3, 80849, Control_c, 0, 64, 127
3, 81056, Note_on_c, 0, 59, 0
3, 81288, Note_on_c, 0, 65, 0
3, 81326, Note_on_c, 0, 71, 0
3, 81393, Note_on_c, 0, 74, 0
3, 81567, Control_c, 0, 64, 0
3, 81588, Note_on_c, 0, 64, 42
3, 81589, Note_on_c, 0, 60, 37
3, 81593, Note_on_c, 0, 72, 41
3, 81594, Note_on_c, 0, 48, 39
3, 81859, Control_c, 0, 64, 127
3, 82024, Note_on_c, 0, 48, 0
3, 82042, Note_on_c, 0, 60, 0
3, 82175, Note_on_c, 0, 72, 0
3, 82209, Note_on_c, 0, 64, 0
3, 82497, Control_c, 0, 64, 0
3, 82519, Note_on_c, 0, 72, 76
3, 82529, Note_on_c, 0, 66, 83
3, 82530, Note_on_c, 0, 63, 83
3, 82538, Note_on_c, 0, 51, 60
3, 82846, Control_c, 0, 64, 127
3, 83194, Note_on_c, 0, 63, 0
3, 83235, Note_on_c, 0, 66, 0
3, 83259, Note_on_c, 0, 72, 0
3, 83432, Control_c, 0, 64, 0
3, 83435, Note_on_c, 0, 51, 0
3, 83472, Note_on_c, 0, 54, 78
3, 83473, Note_on_c, 0, 71, 83
3, 83482, Note_on_c, 0, 63, 86
3, 83486, Note_on_c, 0, 66, 84
3, 83814, Control_c, 0, 64, 127
3, 84078, Note_on_c, 0, 63, 0
3, 84153, Note_on_c, 0, 66, 0
3, 84282, Note_on_c, 0, 71, 0
3, 84354, Note_on_c, 0, 54, 0
3, 84454, Control_c, 0, 64, 0
3, 84496, Note_on_c, 0, 71, 51
3, 84498, Note_on_c, 0, 62, 41
3, 84510, Note_on_c, 0, 67, 42
3, 84519, Note_on_c, 0, 53, 41
3, 84958, Control_c, 0, 64, 127
3, 85168, Note_on_c, 0, 53, 0
3, 85174, Note_on_c, 0, 62, 0
3, 85194, Note_on_c, 0, 67, 0
3, 85230, Note_on_c, 0, 71, 0
3, 85476, Control_c, 0, 64, 0
3, 85491, Note_on_c, 0, 62, 27
3, 85494, Note_on_c, 0, 69, 37
3, 85495, Note_on_c, 0, 67, 36
3, 85518, Note_on_c, 0, 53, 31
3, 85745, Control_c, 0, 64, 127
3, 85902, Note_on_c, 0, 69, 0
3, 85931, Note_on_c, 0, 67, 0
3, 86016, Note_on_c, 0, 62, 0
3, 86155, Note_on_c, 0, 53, 0
3, 86439, Control_c, 0, 64, 0
3, 86454, Note_on_c, 0, 60, 34
3, 86456, Note_on_c, 0, 64, 45
3, 86459, Note_on_c, 0, 69, 35
3, 86473, Note_on_c, 0, 52, 34
3, 86889, Control_c, 0, 64, 127
3, 86998, Note_on_c, 0, 52, 0
3, 87038, Note_on_c, 0, 60, 0
3, 87076, Note_on_c, 0, 64, 0
3, 87102, Note_on_c, 0, 69, 0
3, 87361, Control_c, 0, 64, 0
3, 87367, Note_on_c, 0, 60, 44
3, 87369, Note_on_c, 0, 64, 46
3, 87371, Note_on_c, 0, 67, 45
3, 87379, Note_on_c, 0, 52, 44
3, 87563, Control_c, 0, 64, 127
3, 87781, Note_on_c, 0, 64, 0
3, 87786, Note_on_c, 0, 60, 0
3, 87789, Note_on_c, 0, 52, 0
3, 87921, Note_on_c, 0, 67, 0
3, 88325, Control_c, 0, 64, 0
3, 88353, Note_on_c, 0, 67, 50
3, 88360, Note_on_c, 0, 58, 45
3, 88362, Note_on_c, 0, 63, 43
3, 88371, Note_on_c, 0, 51, 43
3, 88537, Control_c, 0, 64, 127
3, 88694, Note_on_c, 0, 67, 0
3, 88695, Note_on_c, 0, 58, 0
3, 88736, Note_on_c, 0, 51, 0
3, 88841, Note_on_c, 0, 63, 0
3, 89124, Control_c, 0, 64, 0
3, 89129, Note_on_c, 0, 66, 68
3, 89139, Note_on_c, 0, 57, 64
3, 89144, Note_on_c, 0, 50, 60
3, 89147, Note_on_c, 0, 62, 61
3, 89336, Control_c, 0, 64, 127
3, 89377, Note_on_c, 0, 50, 0
3, 89422, Note_on_c, 0, 57, 0
3, 89433, Note_on_c, 0, 62, 0
3, 89490, Note_on_c, 0, 66, 0
3, 89731, Control_c, 0, 64, 0
3, 89765, Note_on_c, 0, 43, 81
3, 89770, Note_on_c, 0, 67, 79
3, 89771, Note_on_c, 0, 31, 81
3, 89773, Note_on_c, 0, 62, 81
3, 89777, Note_on_c, 0, 59, 80
3, 90100, Note_on_c, 0, 59, 0
3, 90109, Note_on_c, 0, 62, 0
3, 90130, Note_on_c, 0, 67, 0
3, 90166, Note_on_c, 0, 31, 0
3, 90194, Note_on_c, 0, 43, 0
3, 91163, Note_on_c, 0, 85, 53
3, 91194, Note_on_c, 0, 86, 68
3, 91264, Note_on_c, 0, 85, 0
3, 92056, Note_on_c, 0, 86, 0
3, 92154, Note_on_c, 0, 84, 51
3, 92972, Note_on_c, 0, 84, 0
3, 93013, Note_on_c, 0, 82, 45
3, 93102, Note_on_c, 0, 83, 46
3, 93250, Note_on_c, 0, 82, 0
3, 94027, Note_on_c, 0, 83, 0
3, 94044, Note_on_c, 0, 79, 27
3, 95311, Note_on_c, 0, 59, 34
3, 95323, Note_on_c, 0, 62, 25
3, 95373, Note_on_c, 0, 62, 0
3, 95386, Note_on_c, 0, 59, 0
3, 96008, Note_on_c, 0, 60, 30
3, 96011, Note_on_c, 0, 64, 23
3, 96013, Note_on_c, 0, 55, 33
3, 96099, Note_on_c, 0, 60, 0
3, 96106, Note_on_c, 0, 64, 0
3, 96122, Note_on_c, 0, 55, 0
3, 96765, Note_on_c, 0, 60, 19
3, 96825, Note_on_c, 0, 60, 0
3, 97394, Note_on_c, 0, 62, 37
3, 97395, Note_on_c, 0, 79, 0
3, 97435, Note_on_c, 0, 59, 28
3, 97449, Note_on_c, 0, 55, 23
3, 97502, Note_on_c, 0, 59, 0
3, 97503, Note_on_c, 0, 55, 0
3, 97506, Note_on_c, 0, 62, 0
3, 98222, Note_on_c, 0, 62, 38
3, 98268, Note_on_c, 0, 59, 20
3, 98312, Note_on_c, 0, 59, 0
3, 98319, Note_on_c, 0, 62, 0
3, 98912, Note_on_c, 0, 85, 90
3, 98915, Note_on_c, 0, 62, 78
3, 98924, Note_on_c, 0, 73, 77
3, 98927, Note_on_c, 0, 59, 59
3, 98989, Note_on_c, 0, 59, 0
3, 98990, Note_on_c, 0, 62, 0
3, 99122, Note_on_c, 0, 85, 0
3, 99127, Note_on_c, 0, 73, 0
3, 99205, Note_on_c, 0, 86, 73
3, 99213, Note_on_c, 0, 74, 63
3, 99637, Note_on_c, 0, 86, 0
3, 99671, Note_on_c, 0, 74, 0
3, 99817, Note_on_c, 0, 51, 34
3, 99830, Note_on_c, 0, 60, 38
3, 99840, Note_on_c, 0, 84, 65
3, 99850, Note_on_c, 0, 72, 56
3, 99891, Note_on_c, 0, 60, 0
3, 99950, Note_on_c, 0, 51, 0
3, 100361, Note_on_c, 0, 84, 0
3, 100459, Note_on_c, 0, 72, 0
3, 100591, Note_on_c, 0, 83, 40
3, 100613, Note_on_c, 0, 71, 47
3, 100617, Note_on_c, 0, 57, 43
3, 100623, Note_on_c, 0, 51, 27
3, 100632, Note_on_c, 0, 60, 28
3, 100728, Note_on_c, 0, 57, 0
3, 100765, Note_on_c, 0, 60, 0
3, 100776, Note_on_c, 0, 51, 0
3, 101061, Note_on_c, 0, 83, 0
3, 101128, Note_on_c, 0, 71, 0
3, 101276, Note_on_c, 0, 81, 38
3, 101279, Note_on_c, 0, 52, 18
3, 101293, Note_on_c, 0, 69, 33
3, 101306, Note_on_c, 0, 55, 25
3, 101317, Note_on_c, 0, 59, 20
3, 101322, Note_on_c, 0, 62, 16
3, 102300, Note_on_c, 0, 69, 0
3, 102738, Note_on_c, 0, 81, 0
3, 103171, Note_on_c, 0, 79, 22
3, 103173, Note_on_c, 0, 62, 0
3, 103199, Note_on_c, 0, 52, 0
3, 103228, Note_on_c, 0, 55, 0
3, 103241, Note_on_c, 0, 59, 0
3, 103364, Note_on_c, 0, 79, 0
3, 103666, Note_on_c, 0, 83, 93
3, 104972, Note_on_c, 0, 61, 30
3, 104973, Note_on_c, 0, 64, 43
3, 104995, Note_on_c, 0, 57, 33
3, 105021, Note_on_c, 0, 64, 0
3, 105032, Note_on_c, 0, 61, 0
3, 105051, Note_on_c, 0, 57, 0
3, 105637, Note_on_c, 0, 57, 33
3, 105728, Note_on_c, 0, 57, 0
3, 106404, Note_on_c, 0, 62, 42
3, 106427, Note_on_c, 0, 59, 23
3, 106428, Note_on_c, 0, 55, 39
3, 106449, Note_on_c, 0, 62, 0
3, 106479, Note_on_c, 0, 59, 0
3, 106488, Note_on_c, 0, 55, 0
3, 106816, Note_on_c, 0, 83, 0
3, 107062, Note_on_c, 0, 83, 114
3, 107520, Note_on_c, 0, 64, 38
3, 107521, Note_on_c, 0, 59, 46
3, 107532, Note_on_c, 0, 53, 22
3, 107980, Note_on_c, 0, 83, 0
3, 108021, Note_on_c, 0, 81, 83
3, 108051, Note_on_c, 0, 83, 27
3, 108113, Note_on_c, 0, 83, 0
3, 108374, Note_on_c, 0, 64, 0
3, 108437, Note_on_c, 0, 59, 0
3, 108450, Note_on_c, 0, 81, 0
3, 108492, Note_on_c, 0, 53, 0
3, 108748, Note_on_c, 0, 79, 70
3, 108764, Note_on_c, 0, 70, 63
3, 108769, Note_on_c, 0, 75, 71
3, 108776, Note_on_c, 0, 59, 54
3, 108781, Note_on_c, 0, 63, 50
3, 108786, Note_on_c, 0, 53, 49
3, 109068, Note_on_c, 0, 59, 0
3, 109219, Note_on_c, 0, 63, 0
3, 109220, Note_on_c, 0, 53, 0
3, 109301, Note_on_c, 0, 79, 0
3, 109331, Note_on_c, 0, 70, 0
3, 109354, Note_on_c, 0, 75, 0
3, 109425, Note_on_c, 0, 62, 35
3, 109430, Note_on_c, 0, 69, 31
3, 109432, Note_on_c, 0, 52, 32
3, 109435, Note_on_c, 0, 76, 51
3, 109448, Note_on_c, 0, 57, 44
3, 109453, Note_on_c, 0, 74, 29
3, 110399, Note_on_c, 0, 76, 0
3, 110416, Note_on_c, 0, 74, 0
3, 110499, Note_on_c, 0, 69, 0
3, 111270, Note_on_c, 0, 62, 0
3, 111332, Note_on_c, 0, 71, 112
3, 111356, Note_on_c, 0, 57, 0
3, 111491, Note_on_c, 0, 52, 0
3, 111684, Note_on_c, 0, 71, 0
3, 111808, Note_on_c, 0, 69, 70
3, 111963, Note_on_c, 0, 69, 0
3, 112276, Note_on_c, 0, 67, 66
3, 112396, Note_on_c, 0, 67, 0
3, 112781, Note_on_c, 0, 60, 25
3, 112789, Note_on_c, 0, 64, 47
3, 113755, Note_on_c, 0, 50, 26
3, 113783, Note_on_c, 0, 57, 22
3, 113975, Note_on_c, 0, 60, 0
3, 114202, Note_on_c, 0, 64, 0
3, 114259, Note_on_c, 0, 62, 55
3, 114534, Note_on_c, 0, 62, 0
3, 114578, Note_on_c, 0, 64, 55
3, 114655, Note_on_c, 0, 64, 0
3, 115030, Note_on_c, 0, 67, 96
3, 115349, Note_on_c, 0, 57, 0
3, 115500, Note_on_c, 0, 57, 32
3, 115529, Note_on_c, 0, 67, 0
3, 115653, Note_on_c, 0, 57, 0
3, 115666, Note_on_c, 0, 70, 64
3, 115957, Note_on_c, 0, 70, 0
3, 116150, Note_on_c, 0, 67, 64
3, 116248, Note_on_c, 0, 50, 0
3, 116329, Note_on_c, 0, 67, 0
3, 116418, Note_on_c, 0, 62, 59
3, 116522, Note_on_c, 0, 62, 0
3, 116608, Note_on_c, 0, 60, 53
3, 116844, Note_on_c, 0, 60, 0
3, 116896, Note_on_c, 0, 58, 61
3, 117067, Note_on_c, 0, 43, 18
3, 117077, Note_on_c, 0, 58, 0
3, 117079, Note_on_c, 0, 50, 1
3, 117110, Note_on_c, 0, 55, 25
3, 117130, Note_on_c, 0, 59, 40
3, 117545, Note_on_c, 0, 59, 0
3, 117595, Note_on_c, 0, 60, 55
3, 117701, Note_on_c, 0, 60, 0
3, 118084, Note_on_c, 0, 62, 87
3, 118412, Note_on_c, 0, 55, 0
3, 118447, Note_on_c, 0, 62, 0
3, 118555, Note_on_c, 0, 63, 56
3, 118563, Note_on_c, 0, 50, 0
3, 118719, Note_on_c, 0, 43, 0
3, 118857, Note_on_c, 0, 48, 25
3, 118904, Note_on_c, 0, 63, 0
3, 119008, Note_on_c, 0, 48, 0
3, 119023, Note_on_c, 0, 43, 19
3, 119054, Note_on_c, 0, 64, 74
3, 119133, Note_on_c, 0, 60, 16
3, 119199, Note_on_c, 0, 60, 0
3, 119249, Note_on_c, 0, 64, 0
3, 119331, Note_on_c, 0, 60, 59
3, 119345, Note_on_c, 0, 67, 64
3, 119352, Note_on_c, 0, 55, 45
3, 119378, Note_on_c, 0, 52, 27
3, 119419, Note_on_c, 0, 55, 0
3, 119448, Note_on_c, 0, 60, 0
3, 119483, Note_on_c, 0, 67, 0
3, 119554, Note_on_c, 0, 52, 0
3, 119807, Note_on_c, 0, 48, 21
3, 119914, Note_on_c, 0, 48, 0
3, 119948, Note_on_c, 0, 43, 0
3, 119967, Note_on_c, 0, 67, 71
3, 119971, Note_on_c, 0, 52, 20
3, 119981, Note_on_c, 0, 60, 64
3, 119993, Note_on_c, 0, 55, 58
3, 120027, Note_on_c, 0, 52, 0
3, 120136, Note_on_c, 0, 67, 0
3, 120238, Note_on_c, 0, 60, 0
3, 120303, Note_on_c, 0, 55, 0
3, 120343, Note_on_c, 0, 37, 30
3, 120488, Note_on_c, 0, 61, 42
3, 120494, Note_on_c, 0, 58, 33
3, 120501, Note_on_c, 0, 44, 60
3, 120520, Note_on_c, 0, 55, 28
3, 120558, Note_on_c, 0, 37, 0
3, 120767, Note_on_c, 0, 55, 0
3, 120863, Note_on_c, 0, 37, 25
3, 120865, Note_on_c, 0, 44, 0
3, 120872, Note_on_c, 0, 61, 0
3, 120881, Note_on_c, 0, 58, 0
3, 120981, Note_on_c, 0, 62, 77
3, 120983, Note_on_c, 0, 37, 0
3, 120986, Note_on_c, 0, 43, 37
3, 120990, Note_on_c, 0, 55, 67
3, 120992, Note_on_c, 0, 59, 68
3, 121083, Note_on_c, 0, 55, 0
3, 121101, Note_on_c, 0, 59, 0
3, 121137, Note_on_c, 0, 62, 0
3, 121358, Note_on_c, 0, 43, 0
3, 121467, Note_on_c, 0, 31, 69
3, 121769, Note_on_c, 0, 31, 0
3, 121975, Note_on_c, 0, 73, 71
3, 122237, Note_on_c, 0, 73, 0
3, 122260, Note_on_c, 0, 74, 70
3, 122399, Note_on_c, 0, 74, 0
3, 122724, Note_on_c, 0, 70, 74
3, 122846, Note_on_c, 0, 70, 0
3, 122923, Note_on_c, 0, 71, 65
3, 123172, Note_on_c, 0, 71, 0
3, 123369, Note_on_c, 0, 67, 68
3, 123560, Note_on_c, 0, 67, 0
3, 123640, Note_on_c, 0, 62, 53
3, 123747, Note_on_c, 0, 62, 0
3, 123827, Note_on_c, 0, 60, 59
3, 124088, Note_on_c, 0, 60, 0
3, 124132, Note_on_c, 0, 55, 48
3, 124207, Note_on_c, 0, 55, 0
3, 124307, Note_on_c, 0, 58, 60
3, 124556, Note_on_c, 0, 58, 0
3, 124605, Note_on_c, 0, 59, 63
3, 124697, Note_on_c, 0, 59, 0
3, 124805, Note_on_c, 0, 58, 60
3, 125072, Note_on_c, 0, 59, 59
3, 125086, Note_on_c, 0, 58, 0
3, 125177, Note_on_c, 0, 59, 0
3, 125252, Note_on_c, 0, 55, 35
3, 125520, Note_on_c, 0, 55, 0
3, 125570, Note_on_c, 0, 53, 28
3, 125644, Note_on_c, 0, 53, 0
3, 125747, Note_on_c, 0, 55, 37
3, 126184, Note_on_c, 0, 55, 0
3, 127720, Note_on_c, 0, 64, 19
3, 127730, Note_on_c, 0, 60, 33
3, 127735, Note_on_c, 0, 55, 25
3, 127749, Note_on_c, 0, 59, 30
3, 127903, Note_on_c, 0, 55, 0
3, 127909, Note_on_c, 0, 59, 0
3, 127931, Note_on_c, 0, 60, 0
3, 127933, Note_on_c, 0, 64, 0
3, 128211, Note_on_c, 0, 64, 35
3, 128219, Note_on_c, 0, 60, 40
3, 128228, Note_on_c, 0, 55, 28
3, 128236, Note_on_c, 0, 59, 38
3, 128369, Note_on_c, 0, 59, 0
3, 128376, Note_on_c, 0, 64, 0
3, 128377, Note_on_c, 0, 60, 0
3, 128395, Note_on_c, 0, 55, 0
3, 129024, Note_on_c, 0, 57, 24
3, 129040, Note_on_c, 0, 59, 19
3, 129096, Note_on_c, 0, 59, 0
3, 129129, Note_on_c, 0, 57, 0
3, 129572, Note_on_c, 0, 57, 34
3, 129577, Note_on_c, 0, 59, 36
3, 129590, Note_on_c, 0, 62, 26
3, 129704, Note_on_c, 0, 62, 0
3, 129734, Note_on_c, 0, 59, 0
3, 129782, Note_on_c, 0, 57, 0
3, 130035, Note_on_c, 0, 82, 83
3, 130041, Note_on_c, 0, 74, 90
3, 130045, Note_on_c, 0, 86, 81
3, 130202, Note_on_c, 0, 74, 0
3, 130260, Note_on_c, 0, 86, 0
3, 130292, Note_on_c, 0, 86, 26
3, 130311, Note_on_c, 0, 82, 0
3, 130318, Note_on_c, 0, 83, 68
3, 130452, Note_on_c, 0, 86, 0
3, 130455, Note_on_c, 0, 83, 0
3, 130511, Note_on_c, 0, 79, 39
3, 130750, Note_on_c, 0, 79, 0
3, 130772, Note_on_c, 0, 74, 40
3, 130843, Note_on_c, 0, 74, 0
3, 130981, Note_on_c, 0, 51, 36
3, 130990, Note_on_c, 0, 57, 43
3, 130999, Note_on_c, 0, 62, 25
3, 131952, Note_on_c, 0, 83, 105
3, 132046, Note_on_c, 0, 57, 0
3, 132095, Note_on_c, 0, 51, 0
3, 132181, Note_on_c, 0, 62, 0
3, 132262, Note_on_c, 0, 81, 59
3, 132299, Note_on_c, 0, 83, 0
3, 132381, Note_on_c, 0, 52, 26
3, 132399, Note_on_c, 0, 55, 41
3, 132416, Note_on_c, 0, 62, 14
3, 132433, Note_on_c, 0, 81, 0
3, 132437, Note_on_c, 0, 59, 30
3, 132476, Note_on_c, 0, 78, 36
3, 132716, Note_on_c, 0, 78, 0
3, 132748, Note_on_c, 0, 79, 61
3, 132883, Note_on_c, 0, 79, 0
3, 132886, Note_on_c, 0, 62, 0
3, 132972, Note_on_c, 0, 76, 47
3, 132983, Note_on_c, 0, 59, 0
3, 133100, Note_on_c, 0, 76, 0
3, 133226, Note_on_c, 0, 71, 52
3, 133412, Note_on_c, 0, 55, 0
3, 133413, Note_on_c, 0, 71, 0
3, 133428, Note_on_c, 0, 52, 0
3, 133494, Note_on_c, 0, 71, 34
3, 133684, Note_on_c, 0, 71, 0
3, 133795, Note_on_c, 0, 55, 24
3, 133868, Note_on_c, 0, 55, 0
3, 133884, Note_on_c, 0, 71, 66
3, 134177, Note_on_c, 0, 71, 0
3, 134368, Note_on_c, 0, 51, 27
3, 134374, Note_on_c, 0, 71, 45
3, 134383, Note_on_c, 0, 62, 24
3, 134402, Note_on_c, 0, 57, 36
3, 135012, Note_on_c, 0, 57, 0
3, 135168, Note_on_c, 0, 57, 42
3, 135182, Note_on_c, 0, 62, 0
3, 135256, Note_on_c, 0, 71, 0
3, 135344, Note_on_c, 0, 75, 78
3, 135601, Note_on_c, 0, 75, 0
3, 135649, Note_on_c, 0, 71, 40
3, 135770, Note_on_c, 0, 71, 0
3, 135796, Note_on_c, 0, 57, 0
3, 135811, Note_on_c, 0, 51, 0
3, 135873, Note_on_c, 0, 75, 31
3, 136016, Note_on_c, 0, 75, 0
3, 136129, Note_on_c, 0, 78, 67
3, 136152, Note_on_c, 0, 52, 31
3, 136162, Note_on_c, 0, 55, 46
3, 136183, Note_on_c, 0, 59, 27
3, 136283, Note_on_c, 0, 78, 0
3, 136332, Note_on_c, 0, 59, 0
3, 136387, Note_on_c, 0, 75, 43
3, 136408, Note_on_c, 0, 55, 0
3, 136409, Note_on_c, 0, 52, 0
3, 136550, Note_on_c, 0, 75, 0
3, 136619, Note_on_c, 0, 76, 55
3, 136766, Note_on_c, 0, 76, 0
3, 136793, Note_on_c, 0, 71, 37
3, 137008, Note_on_c, 0, 71, 0
3, 137060, Note_on_c, 0, 67, 50
3, 137154, Note_on_c, 0, 67, 0
3, 137281, Note_on_c, 0, 64, 34
3, 137472, Note_on_c, 0, 64, 0
3, 137572, Note_on_c, 0, 60, 22
3, 137619, Note_on_c, 0, 60, 0
3, 137725, Note_on_c, 0, 66, 56
3, 137945, Note_on_c, 0, 66, 0
3, 138017, Note_on_c, 0, 67, 59
3, 138021, Note_on_c, 0, 59, 44
3, 138028, Note_on_c, 0, 64, 39
3, 138051, Note_on_c, 0, 53, 29
3, 138167, Note_on_c, 0, 67, 0
3, 138701, Note_on_c, 0, 71, 34
3, 138703, Note_on_c, 0, 72, 39
3, 138747, Note_on_c, 0, 59, 0
3, 138769, Note_on_c, 0, 72, 0
3, 138799, Note_on_c, 0, 64, 0
3, 138898, Note_on_c, 0, 71, 0
3, 138970, Note_on_c, 0, 79, 77
3, 139094, Note_on_c, 0, 79, 0
3, 139148, Note_on_c, 0, 53, 0
3, 139195, Note_on_c, 0, 70, 25
3, 139319, Note_on_c, 0, 69, 40
3, 139376, Note_on_c, 0, 69, 0
3, 139388, Note_on_c, 0, 70, 0
3, 139480, Note_on_c, 0, 67, 36
3, 139546, Note_on_c, 0, 67, 0
3, 139938, Note_on_c, 0, 57, 50
3, 139951, Note_on_c, 0, 62, 46
3, 139957, Note_on_c, 0, 58, 36
3, 139998, Note_on_c, 0, 58, 0
3, 139999, Note_on_c, 0, 62, 0
3, 140026, Note_on_c, 0, 57, 0
3, 140575, Note_on_c, 0, 62, 27
3, 140592, Note_on_c, 0, 63, 44
3, 140637, Note_on_c, 0, 62, 0
3, 140716, Note_on_c, 0, 63, 0
3, 140739, Note_on_c, 0, 64, 34
3, 140845, Note_on_c, 0, 64, 0
3, 140943, Note_on_c, 0, 57, 45
3, 140944, Note_on_c, 0, 62, 38
3, 140959, Note_on_c, 0, 58, 44
3, 140995, Note_on_c, 0, 62, 0
3, 141036, Note_on_c, 0, 58, 0
3, 141073, Note_on_c, 0, 67, 108
3, 141082, Note_on_c, 0, 57, 0
3, 141446, Note_on_c, 0, 67, 0
3, 141562, Note_on_c, 0, 67, 62
3, 141773, Note_on_c, 0, 67, 0
3, 141853, Note_on_c, 0, 67, 63
3, 141948, Note_on_c, 0, 67, 0
3, 141950, Note_on_c, 0, 49, 39
3, 141962, Note_on_c, 0, 55, 35
3, 141966, Note_on_c, 0, 57, 34
3, 142034, Note_on_c, 0, 67, 54
3, 142062, Note_on_c, 0, 57, 0
3, 142079, Note_on_c, 0, 49, 0
3, 142108, Note_on_c, 0, 55, 0
3, 142275, Note_on_c, 0, 67, 0
3, 142362, Note_on_c, 0, 69, 48
3, 142502, Note_on_c, 0, 69, 0
3, 142531, Note_on_c, 0, 67, 24
3, 142919, Note_on_c, 0, 67, 0
3, 143008, Note_on_c, 0, 61, 38
3, 143246, Note_on_c, 0, 61, 0
3, 143479, Note_on_c, 0, 49, 33
3, 143530, Note_on_c, 0, 57, 15
3, 143659, Note_on_c, 0, 49, 0
3, 143683, Note_on_c, 0, 57, 0
3, 143965, Note_on_c, 0, 73, 84
3, 143967, Note_on_c, 0, 85, 90
3, 144038, Note_on_c, 0, 50, 22
3, 144081, Note_on_c, 0, 50, 0
3, 144248, Note_on_c, 0, 85, 0
3, 144278, Note_on_c, 0, 73, 0
3, 144312, Note_on_c, 0, 74, 43
3, 144444, Note_on_c, 0, 86, 5
3, 144749, Note_on_c, 0, 86, 0
3, 144832, Note_on_c, 0, 74, 0
3, 144953, Note_on_c, 0, 60, 31
3, 144975, Note_on_c, 0, 74, 58
3, 144978, Note_on_c, 0, 86, 65
3, 145012, Note_on_c, 0, 60, 0
3, 145170, Note_on_c, 0, 86, 0
3, 145173, Note_on_c, 0, 74, 0
3, 145428, Note_on_c, 0, 84, 87
3, 145430, Note_on_c, 0, 88, 81
3, 145477, Note_on_c, 0, 86, 35
3, 145531, Note_on_c, 0, 86, 0
3, 145630, Note_on_c, 0, 88, 0
3, 145640, Note_on_c, 0, 84, 0
3, 145895, Note_on_c, 0, 82, 75
3, 145899, Note_on_c, 0, 86, 76
3, 146087, Note_on_c, 0, 82, 0
3, 146160, Note_on_c, 0, 84, 38
3, 146164, Note_on_c, 0, 83, 64
3, 146283, Note_on_c, 0, 79, 50
3, 146309, Note_on_c, 0, 86, 0
3, 146315, Note_on_c, 0, 84, 0
3, 146341, Note_on_c, 0, 83, 0
3, 146386, Note_on_c, 0, 79, 0
3, 146410, Note_on_c, 0, 74, 33
3, 146721, Note_on_c, 0, 74, 0
3, 146857, Note_on_c, 0, 72, 63
3, 146881, Note_on_c, 0, 79, 41
3, 146882, Note_on_c, 0, 81, 46
3, 146929, Note_on_c, 0, 81, 0
3, 147042, Note_on_c, 0, 79, 0
3, 147149, Note_on_c, 0, 72, 0
3, 147194, Note_on_c, 0, 67, 33
3, 147268, Note_on_c, 0, 67, 0
3, 147363, Note_on_c, 0, 70, 59
3, 147392, Note_on_c, 0, 74, 31
3, 147730, Note_on_c, 0, 74, 0
3, 147776, Note_on_c, 0, 70, 0
3, 147837, Note_on_c, 0, 74, 39
3, 147846, Note_on_c, 0, 71, 66
3, 148075, Note_on_c, 0, 71, 0
3, 148167, Note_on_c, 0, 67, 50
3, 148232, Note_on_c, 0, 74, 0
3, 148299, Note_on_c, 0, 67, 0
3, 148363, Note_on_c, 0, 62, 36
3, 148692, Note_on_c, 0, 62, 0
3, 148821, Note_on_c, 0, 62, 34
3, 149266, Note_on_c, 0, 63, 54
3, 149311, Note_on_c, 0, 62, 0
3, 149715, Note_on_c, 0, 63, 0
3, 149766, Note_on_c, 0, 64, 52
3, 150054, Note_on_c, 0, 64, 0
3, 150077, Note_on_c, 0, 67, 45
3, 150135, Note_on_c, 0, 67, 0
3, 150698, Note_on_c, 0, 67, 69
3, 151472, Note_on_c, 0, 60, 50
3, 151565, Note_on_c, 0, 67, 0
3, 151603, Note_on_c, 0, 60, 0
3, 152141, Note_on_c, 0, 49, 42
3, 152149, Note_on_c, 0, 50, 50
3, 152217, Note_on_c, 0, 49, 0
3, 152669, Note_on_c, 0, 70, 67
3, 152682, Note_on_c, 0, 74, 58
3, 152829, Note_on_c, 0, 74, 0
3, 152891, Note_on_c, 0, 70, 0
3, 152941, Note_on_c, 0, 71, 60
3, 152941, Note_on_c, 0, 74, 40
3, 153053, Note_on_c, 0, 74, 0
3, 153067, Note_on_c, 0, 71, 0
3, 153411, Note_on_c, 0, 62, 60
3, 153622, Note_on_c, 0, 62, 0
3, 154309, Note_on_c, 0, 49, 31
3, 154420, Note_on_c, 0, 50, 0
3, 154493, Note_on_c, 0, 49, 0
3, 154508, Note_on_c, 0, 89, 80
3, 154532, Note_on_c, 0, 50, 26
3, 154898, Note_on_c, 0, 89, 0
3, 154899, Note_on_c, 0, 49, 20
3, 154936, Note_on_c, 0, 49, 0
3, 154992, Note_on_c, 0, 50, 0
3, 155021, Note_on_c, 0, 88, 81
3, 155408, Note_on_c, 0, 88, 0
3, 155499, Note_on_c, 0, 86, 75
3, 155864, Note_on_c, 0, 86, 0
3, 155951, Note_on_c, 0, 79, 40
3, 156181, Note_on_c, 0, 79, 0
3, 156468, Note_on_c, 0, 79, 47
3, 156633, Note_on_c, 0, 79, 0
3, 156780, Note_on_c, 0, 64, 47
3, 156822, Note_on_c, 0, 64, 0
3, 156912, Note_on_c, 0, 86, 90
3, 156916, Note_on_c, 0, 89, 87
3, 156918, Note_on_c, 0, 79, 92
3, 157160, Note_on_c, 0, 79, 0
3, 157177, Note_on_c, 0, 86, 0
3, 157187, Note_on_c, 0, 89, 0
3, 157401, Note_on_c, 0, 86, 87
3, 157403, Note_on_c, 0, 89, 80
3, 157412, Note_on_c, 0, 79, 81
3, 157694, Note_on_c, 0, 86, 0
3, 157713, Note_on_c, 0, 89, 0
3, 157733, Note_on_c, 0, 79, 0
3, 157895, Note_on_c, 0, 88, 53
3, 157897, Note_on_c, 0, 84, 61
3, 157899, Note_on_c, 0, 79, 49
3, 158062, Note_on_c, 0, 84, 0
3, 158069, Note_on_c, 0, 88, 0
3, 158105, Note_on_c, 0, 79, 0
3, 158349, Note_on_c, 0, 82, 55
3, 158361, Note_on_c, 0, 86, 58
3, 158365, Note_on_c, 0, 74, 47
3, 158637, Note_on_c, 0, 83, 32
3, 158654, Note_on_c, 0, 82, 0
3, 158673, Note_on_c, 0, 74, 0
3, 158753, Note_on_c, 0, 83, 0
3, 158759, Note_on_c, 0, 86, 0
3, 158816, Note_on_c, 0, 74, 39
3, 159096, Note_on_c, 0, 74, 0
3, 159760, Note_on_c, 0, 62, 36
3, 159765, Note_on_c, 0, 51, 32
3, 159778, Note_on_c, 0, 57, 38
3, 160739, Note_on_c, 0, 87, 80
3, 160978, Note_on_c, 0, 87, 0
3, 161054, Note_on_c, 0, 91, 78
3, 161262, Note_on_c, 0, 62, 0
3, 161279, Note_on_c, 0, 91, 0
3, 161298, Note_on_c, 0, 84, 42
3, 161518, Note_on_c, 0, 84, 0
3, 161544, Note_on_c, 0, 81, 49
3, 161734, Note_on_c, 0, 81, 0
3, 161771, Note_on_c, 0, 80, 44
3, 161953, Note_on_c, 0, 80, 0
3, 162028, Note_on_c, 0, 79, 66
3, 162197, Note_on_c, 0, 79, 0
3, 162254, Note_on_c, 0, 78, 39
3, 162259, Note_on_c, 0, 57, 0
3, 162465, Note_on_c, 0, 78, 0
3, 162535, Note_on_c, 0, 57, 36
3, 162584, Note_on_c, 0, 51, 0
3, 162662, Note_on_c, 0, 57, 0
3, 162739, Note_on_c, 0, 75, 37
3, 162953, Note_on_c, 0, 75, 0
3, 163020, Note_on_c, 0, 79, 77
3, 163047, Note_on_c, 0, 55, 40
3, 163186, Note_on_c, 0, 79, 0
3, 163194, Note_on_c, 0, 55, 0
3, 163265, Note_on_c, 0, 76, 55
3, 163400, Note_on_c, 0, 76, 0
3, 163799, Note_on_c, 0, 67, 16
3, 163993, Note_on_c, 0, 67, 0
3, 164065, Note_on_c, 0, 55, 34
3, 164144, Note_on_c, 0, 67, 49
3, 164216, Note_on_c, 0, 55, 0
3, 164481, Note_on_c, 0, 67, 0
3, 164594, Note_on_c, 0, 67, 40
3, 164837, Note_on_c, 0, 67, 0
3, 165039, Note_on_c, 0, 51, 35
3, 165058, Note_on_c, 0, 67, 51
3, 165085, Note_on_c, 0, 57, 31
3, 165244, Note_on_c, 0, 57, 0
3, 165246, Note_on_c, 0, 51, 0
3, 165300, Note_on_c, 0, 67, 0
3, 165530, Note_on_c, 0, 67, 69
3, 165822, Note_on_c, 0, 67, 0
3, 165847, Note_on_c, 0, 66, 36
3, 165937, Note_on_c, 0, 66, 0
3, 166036, Note_on_c, 0, 51, 23
3, 166043, Note_on_c, 0, 67, 32
3, 166075, Note_on_c, 0, 57, 24
3, 166238, Note_on_c, 0, 67, 0
3, 166336, Note_on_c, 0, 76, 69
3, 166410, Note_on_c, 0, 57, 0
3, 166476, Note_on_c, 0, 51, 0
3, 166833, Note_on_c, 0, 76, 0
3, 166993, Note_on_c, 0, 67, 50
3, 167030, Note_on_c, 0, 55, 28
3, 167163, Note_on_c, 0, 55, 0
3, 167272, Note_on_c, 0, 67, 0
3, 167464, Note_on_c, 0, 67, 58
3, 167709, Note_on_c, 0, 67, 0
3, 167775, Note_on_c, 0, 66, 26
3, 167866, Note_on_c, 0, 66, 0
3, 167891, Note_on_c, 0, 55, 24
3, 167932, Note_on_c, 0, 67, 46
3, 168113, Note_on_c, 0, 67, 0
3, 168232, Note_on_c, 0, 77, 75
3, 168333, Note_on_c, 0, 55, 0
3, 168365, Note_on_c, 0, 77, 0
3, 168489, Note_on_c, 0, 71, 35
3, 168738, Note_on_c, 0, 71, 0
3, 168886, Note_on_c, 0, 64, 28
3, 168909, Note_on_c, 0, 59, 32
3, 168942, Note_on_c, 0, 53, 20
3, 169570, Note_on_c, 0, 59, 0
3, 169822, Note_on_c, 0, 64, 0
3, 169839, Note_on_c, 0, 70, 75
3, 169902, Note_on_c, 0, 71, 70
3, 169907, Note_on_c, 0, 70, 0
3, 170116, Note_on_c, 0, 71, 0
3, 170182, Note_on_c, 0, 74, 84
3, 170199, Note_on_c, 0, 64, 24
3, 170223, Note_on_c, 0, 59, 31
3, 170276, Note_on_c, 0, 64, 0
3, 170295, Note_on_c, 0, 59, 0
3, 170471, Note_on_c, 0, 53, 0
3, 170644, Note_on_c, 0, 71, 48
3, 170688, Note_on_c, 0, 74, 0
3, 170780, Note_on_c, 0, 71, 0
3, 170834, Note_on_c, 0, 72, 60
3, 170836, Note_on_c, 0, 62, 24
3, 170847, Note_on_c, 0, 57, 29
3, 170863, Note_on_c, 0, 52, 24
3, 171100, Note_on_c, 0, 72, 0
3, 171167, Note_on_c, 0, 62, 0
3, 171303, Note_on_c, 0, 64, 41
3, 171455, Note_on_c, 0, 57, 0
3, 171542, Note_on_c, 0, 52, 0
3, 171566, Note_on_c, 0, 64, 0
3, 171810, Note_on_c, 0, 64, 39
3, 171843, Note_on_c, 0, 57, 18
3, 171844, Note_on_c, 0, 52, 24
3, 172041, Note_on_c, 0, 57, 0
3, 172078, Note_on_c, 0, 64, 0
3, 172102, Note_on_c, 0, 52, 0
3, 172564, Note_on_c, 0, 49, 46
3, 172579, Note_on_c, 0, 57, 41
3, 172648, Note_on_c, 0, 57, 0
3, 172675, Note_on_c, 0, 49, 0
3, 172728, Note_on_c, 0, 73, 74
3, 172771, Note_on_c, 0, 68, 45
3, 172812, Note_on_c, 0, 68, 0
3, 173105, Note_on_c, 0, 73, 0
3, 173226, Note_on_c, 0, 64, 36
3, 173513, Note_on_c, 0, 64, 0
3, 173562, Note_on_c, 0, 49, 40
3, 173575, Note_on_c, 0, 57, 30
3, 173655, Note_on_c, 0, 57, 0
3, 173681, Note_on_c, 0, 49, 0
3, 173728, Note_on_c, 0, 64, 48
3, 174020, Note_on_c, 0, 64, 0
3, 174181, Note_on_c, 0, 73, 74
3, 174534, Note_on_c, 0, 73, 0
3, 174654, Note_on_c, 0, 50, 33
3, 174673, Note_on_c, 0, 74, 70
3, 174832, Note_on_c, 0, 50, 0
3, 175029, Note_on_c, 0, 74, 0
3, 175162, Note_on_c, 0, 63, 50
3, 175551, Note_on_c, 0, 63, 0
3, 175666, Note_on_c, 0, 62, 55
3, 176521, Note_on_c, 0, 62, 0
3, 176626, Note_on_c, 0, 60, 32
3, 176690, Note_on_c, 0, 60, 0
3, 177035, Note_on_c, 0, 73, 74
3, 177046, Note_on_c, 0, 77, 77
3, 177056, Note_on_c, 0, 67, 71
3, 177094, Note_on_c, 0, 67, 0
3, 177110, Note_on_c, 0, 74, 64
3, 177152, Note_on_c, 0, 73, 0
3, 177324, Note_on_c, 0, 77, 0
3, 177337, Note_on_c, 0, 74, 0
3, 177533, Note_on_c, 0, 76, 75
3, 177536, Note_on_c, 0, 74, 71
3, 177549, Note_on_c, 0, 72, 74
3, 177676, Note_on_c, 0, 72, 0
3, 177683, Note_on_c, 0, 76, 0
3, 177684, Note_on_c, 0, 74, 0
3, 177803, Note_on_c, 0, 74, 60
3, 177811, Note_on_c, 0, 70, 70
3, 177835, Note_on_c, 0, 73, 36
3, 177873, Note_on_c, 0, 73, 0
3, 177902, Note_on_c, 0, 71, 71
3, 177910, Note_on_c, 0, 70, 0
3, 178008, Note_on_c, 0, 71, 0
3, 178056, Note_on_c, 0, 67, 20
3, 178080, Note_on_c, 0, 74, 0
3, 178261, Note_on_c, 0, 67, 0
3, 178329, Note_on_c, 0, 62, 57
3, 178445, Note_on_c, 0, 62, 0
3, 178521, Note_on_c, 0, 60, 35
3, 178538, Note_on_c, 0, 67, 28
3, 178678, Note_on_c, 0, 67, 0
3, 178736, Note_on_c, 0, 60, 0
3, 178797, Note_on_c, 0, 55, 55
3, 178900, Note_on_c, 0, 55, 0
3, 178965, Note_on_c, 0, 58, 32
3, 179112, Note_on_c, 0, 58, 0
3, 179137, Note_on_c, 0, 59, 35
3, 179179, Note_on_c, 0, 67, 12
3, 179293, Note_on_c, 0, 59, 0
3, 179453, Note_on_c, 0, 55, 24
3, 179735, Note_on_c, 0, 55, 0
3, 179763, Note_on_c, 0, 67, 0
3, 179767, Note_on_c, 0, 43, 32
3, 179916, Note_on_c, 0, 55, 50
3, 179931, Note_on_c, 0, 43, 0
3, 180204, Note_on_c, 0, 55, 0
3, 180382, Note_on_c, 0, 55, 32
3, 180385, Note_on_c, 0, 64, 47
3, 180386, Note_on_c, 0, 52, 36
3, 180404, Note_on_c, 0, 60, 39
3, 180662, Note_on_c, 0, 60, 0
3, 180667, Note_on_c, 0, 55, 0
3, 180691, Note_on_c, 0, 64, 0
3, 180693, Note_on_c, 0, 52, 0
3, 180879, Note_on_c, 0, 55, 39
3, 180888, Note_on_c, 0, 64, 43
3, 180890, Note_on_c, 0, 60, 44
3, 180916, Note_on_c, 0, 52, 24
3, 181055, Note_on_c, 0, 64, 0
3, 181119, Note_on_c, 0, 60, 0
3, 181236, Note_on_c, 0, 55, 0
3, 181368, Note_on_c, 0, 61, 39
3, 181374, Note_on_c, 0, 58, 32
3, 181383, Note_on_c, 0, 49, 29
3, 181384, Note_on_c, 0, 52, 0
3, 181400, Note_on_c, 0, 55, 24
3, 181516, Note_on_c, 0, 49, 0
3, 181671, Note_on_c, 0, 55, 0
3, 181674, Note_on_c, 0, 49, 23
3, 181775, Note_on_c, 0, 61, 0
3, 181777, Note_on_c, 0, 58, 0
3, 181802, Note_on_c, 0, 49, 0
3, 181802, Note_on_c, 0, 55, 38
3, 181899, Note_on_c, 0, 62, 36
3, 181900, Note_on_c, 0, 59, 37
3, 182015, Note_on_c, 0, 55, 0
3, 182145, Note_on_c, 0, 59, 0
3, 182187, Note_on_c, 0, 62, 0
3, 182318, Note_on_c, 0, 50, 50
3, 182335, Note_on_c, 0, 49, 28
3, 182373, Note_on_c, 0, 49, 0
3, 182830, Note_on_c, 0, 85, 84
3, 182833, Note_on_c, 0, 73, 78
3, 183256, Note_on_c, 0, 73, 0
3, 183259, Note_on_c, 0, 85, 0
3, 183309, Note_on_c, 0, 50, 0
3, 183318, Note_on_c, 0, 74, 66
3, 183328, Note_on_c, 0, 86, 55
3, 183364, Note_on_c, 0, 84, 41
3, 183431, Note_on_c, 0, 84, 0
3, 183549, Note_on_c, 0, 74, 0
3, 183578, Note_on_c, 0, 86, 0
3, 183812, Note_on_c, 0, 76, 68
3, 183818, Note_on_c, 0, 88, 64
3, 183979, Note_on_c, 0, 76, 0
3, 184013, Note_on_c, 0, 88, 0
3, 184303, Note_on_c, 0, 91, 80
3, 184307, Note_on_c, 0, 79, 82
3, 184488, Note_on_c, 0, 91, 0
3, 184527, Note_on_c, 0, 79, 0
3, 184611, Note_on_c, 0, 91, 70
3, 184616, Note_on_c, 0, 79, 48
3, 184718, Note_on_c, 0, 79, 0
3, 184765, Note_on_c, 0, 91, 0
3, 184844, Note_on_c, 0, 88, 46
3, 185027, Note_on_c, 0, 88, 0
3, 185260, Note_on_c, 0, 91, 85
3, 185268, Note_on_c, 0, 79, 82
3, 185603, Note_on_c, 0, 79, 0
3, 185616, Note_on_c, 0, 91, 0
3, 185730, Note_on_c, 0, 88, 44
3, 185909, Note_on_c, 0, 88, 0
3, 186045, Note_on_c, 0, 79, 42
3, 186101, Note_on_c, 0, 79, 0
3, 186219, Note_on_c, 0, 85, 68
3, 186233, Note_on_c, 0, 89, 65
3, 186235, Note_on_c, 0, 65, 44
3, 186241, Note_on_c, 0, 79, 45
3, 186257, Note_on_c, 0, 55, 40
3, 186273, Note_on_c, 0, 60, 49
3, 186275, Note_on_c, 0, 57, 34
3, 186315, Note_on_c, 0, 79, 0
3, 186498, Note_on_c, 0, 86, 56
3, 186522, Note_on_c, 0, 85, 0
3, 186561, Note_on_c, 0, 86, 0
3, 186567, Note_on_c, 0, 89, 0
3, 186676, Note_on_c, 0, 60, 0
3, 186686, Note_on_c, 0, 65, 0
3, 186711, Note_on_c, 0, 57, 0
3, 186726, Note_on_c, 0, 55, 0
3, 186942, Note_on_c, 0, 77, 50
3, 186943, Note_on_c, 0, 88, 61
3, 186952, Note_on_c, 0, 64, 50
3, 186962, Note_on_c, 0, 84, 56
3, 186968, Note_on_c, 0, 59, 43
3, 186986, Note_on_c, 0, 53, 46
3, 187388, Note_on_c, 0, 88, 0
3, 187439, Note_on_c, 0, 84, 0
3, 187475, Note_on_c, 0, 53, 0
3, 187481, Note_on_c, 0, 77, 0
3, 187526, Note_on_c, 0, 64, 0
3, 187576, Note_on_c, 0, 59, 0
3, 187654, Note_on_c, 0, 86, 51
3, 187657, Note_on_c, 0, 74, 40
3, 187662, Note_on_c, 0, 59, 28
3, 187670, Note_on_c, 0, 64, 42
3, 187674, Note_on_c, 0, 83, 34
3, 187692, Note_on_c, 0, 53, 36
3, 189216, Note_on_c, 0, 59, 0
3, 189283, Note_on_c, 0, 53, 0
3, 189320, Note_on_c, 0, 74, 0
3, 189336, Note_on_c, 0, 64, 0
3, 189428, Note_on_c, 0, 83, 0
3, 189465, Note_on_c, 0, 86, 0
3, 189568, Note_on_c, 0, 65, 46
3, 189585, Note_on_c, 0, 60, 39
3, 189599, Note_on_c, 0, 54, 32
3, 189713, Note_on_c, 0, 65, 0
3, 189721, Note_on_c, 0, 60, 0
3, 189759, Note_on_c, 0, 54, 0
3, 190062, Note_on_c, 0, 77, 83
3, 190065, Note_on_c, 0, 89, 80
3, 190066, Note_on_c, 0, 85, 55
3, 190072, Note_on_c, 0, 64, 66
3, 190076, Note_on_c, 0, 59, 57
3, 190083, Note_on_c, 0, 86, 70
3, 190086, Note_on_c, 0, 53, 56
3, 190113, Note_on_c, 0, 85, 0
3, 190618, Note_on_c, 0, 86, 0
3, 190623, Note_on_c, 0, 53, 0
3, 190626, Note_on_c, 0, 89, 0
3, 190642, Note_on_c, 0, 77, 0
3, 190646, Note_on_c, 0, 64, 0
3, 190673, Note_on_c, 0, 59, 0
3, 190819, Note_on_c, 0, 88, 64
3, 190829, Note_on_c, 0, 76, 58
3, 190832, Note_on_c, 0, 64, 62
3, 190835, Note_on_c, 0, 59, 62
3, 190837, Note_on_c, 0, 84, 64
3, 190845, Note_on_c, 0, 85, 29
3, 190855, Note_on_c, 0, 53, 46
3, 190891, Note_on_c, 0, 85, 0
3, 191106, Note_on_c, 0, 59, 0
3, 191119, Note_on_c, 0, 64, 0
3, 191162, Note_on_c, 0, 88, 0
3, 191172, Note_on_c, 0, 84, 0
3, 191201, Note_on_c, 0, 53, 0
3, 191222, Note_on_c, 0, 76, 0
3, 191481, Note_on_c, 0, 83, 66
3, 191485, Note_on_c, 0, 86, 61
3, 191491, Note_on_c, 0, 74, 55
3, 191498, Note_on_c, 0, 62, 49
3, 191507, Note_on_c, 0, 57, 49
3, 191510, Note_on_c, 0, 51, 37
3, 192503, Note_on_c, 0, 83, 0
3, 192543, Note_on_c, 0, 86, 0
3, 192667, Note_on_c, 0, 74, 0
3, 192762, Note_on_c, 0, 62, 0
3, 192768, Note_on_c, 0, 51, 0
3, 192820, Note_on_c, 0, 57, 0
3, 192917, Note_on_c, 0, 72, 49
3, 192920, Note_on_c, 0, 51, 35
3, 192921, Note_on_c, 0, 84, 53
3, 192926, Note_on_c, 0, 57, 40
3, 192930, Note_on_c, 0, 81, 46
3, 192937, Note_on_c, 0, 62, 26
3, 193368, Note_on_c, 0, 57, 0
3, 193372, Note_on_c, 0, 51, 0
3, 193397, Note_on_c, 0, 84, 0
3, 193398, Note_on_c, 0, 81, 0
3, 193490, Note_on_c, 0, 62, 0
3, 193563, Note_on_c, 0, 72, 0
3, 193697, Note_on_c, 0, 71, 54
3, 193700, Note_on_c, 0, 83, 44
3, 193707, Note_on_c, 0, 79, 41
3, 193711, Note_on_c, 0, 62, 24
3, 193723, Note_on_c, 0, 55, 24
3, 193725, Note_on_c, 0, 59, 36
3, 194131, Note_on_c, 0, 83, 0
3, 194177, Note_on_c, 0, 52, 1
3, 194190, Note_on_c, 0, 59, 0
3, 194200, Note_on_c, 0, 62, 0
3, 194244, Note_on_c, 0, 79, 0
3, 194252, Note_on_c, 0, 71, 0
3, 194347, Note_on_c, 0, 81, 40
3, 194351, Note_on_c, 0, 62, 30
3, 194357, Note_on_c, 0, 59, 24
3, 194371, Note_on_c, 0, 69, 31
3, 194429, Note_on_c, 0, 59, 0
3, 194432, Note_on_c, 0, 62, 0
3, 194480, Note_on_c, 0, 81, 0
3, 194483, Note_on_c, 0, 55, 0
3, 194501, Note_on_c, 0, 52, 0
3, 194527, Note_on_c, 0, 69, 0
3, 194832, Note_on_c, 0, 67, 33
3, 194834, Note_on_c, 0, 79, 30
3, 194869, Note_on_c, 0, 55, 22
3, 194923, Note_on_c, 0, 67, 0
3, 194939, Note_on_c, 0, 79, 0
3, 194980, Note_on_c, 0, 55, 0
3, 195787, Note_on_c, 0, 51, 28
3, 195952, Note_on_c, 0, 51, 0
3, 196784, Note_on_c, 0, 75, 77
3, 197013, Note_on_c, 0, 75, 0
3, 197073, Note_on_c, 0, 74, 66
3, 197198, Note_on_c, 0, 74, 0
3, 197290, Note_on_c, 0, 72, 34
3, 197511, Note_on_c, 0, 72, 0
3, 197540, Note_on_c, 0, 71, 55
3, 197573, Note_on_c, 0, 62, 22
3, 197613, Note_on_c, 0, 62, 0
3, 197628, Note_on_c, 0, 55, 17
3, 197659, Note_on_c, 0, 71, 0
3, 197729, Note_on_c, 0, 55, 0
3, 197766, Note_on_c, 0, 67, 43
3, 197994, Note_on_c, 0, 67, 0
3, 198211, Note_on_c, 0, 64, 40
3, 198406, Note_on_c, 0, 64, 0
3, 198774, Note_on_c, 0, 55, 18
3, 198783, Note_on_c, 0, 62, 9
3, 198910, Note_on_c, 0, 62, 0
3, 198937, Note_on_c, 0, 55, 0
3, 199478, Note_on_c, 0, 64, 31
3, 199500, Note_on_c, 0, 59, 34
3, 199528, Note_on_c, 0, 53, 20
3, 200296, Note_on_c, 0, 59, 0
3, 200361, Note_on_c, 0, 59, 16
3, 200482, Note_on_c, 0, 64, 0
3, 200604, Note_on_c, 0, 74, 81
3, 200800, Note_on_c, 0, 73, 42
3, 200880, Note_on_c, 0, 74, 0
3, 200910, Note_on_c, 0, 59, 0
3, 200913, Note_on_c, 0, 72, 38
3, 200974, Note_on_c, 0, 73, 0
3, 201005, Note_on_c, 0, 53, 0
3, 201062, Note_on_c, 0, 71, 50
3, 201069, Note_on_c, 0, 72, 0
3, 201286, Note_on_c, 0, 71, 0
3, 201366, Note_on_c, 0, 74, 74
3, 201440, Note_on_c, 0, 57, 29
3, 201512, Note_on_c, 0, 57, 0
3, 201521, Note_on_c, 0, 74, 0
3, 201658, Note_on_c, 0, 75, 74
3, 201825, Note_on_c, 0, 75, 0
3, 201897, Note_on_c, 0, 76, 62
3, 202035, Note_on_c, 0, 76, 0
3, 202106, Note_on_c, 0, 77, 82
3, 202268, Note_on_c, 0, 77, 0
3, 202366, Note_on_c, 0, 75, 69
3, 202508, Note_on_c, 0, 75, 0
3, 202577, Note_on_c, 0, 76, 62
3, 202798, Note_on_c, 0, 76, 0
3, 202835, Note_on_c, 0, 72, 65
3, 202952, Note_on_c, 0, 72, 0
3, 203036, Note_on_c, 0, 67, 27
3, 203175, Note_on_c, 0, 67, 0
3, 203308, Note_on_c, 0, 64, 33
3, 203312, Note_on_c, 0, 65, 30
3, 203398, Note_on_c, 0, 65, 0
3, 203407, Note_on_c, 0, 64, 0
3, 203482, Note_on_c, 0, 49, 27
3, 203525, Note_on_c, 0, 62, 33
3, 203581, Note_on_c, 0, 57, 14
3, 203831, Note_on_c, 0, 62, 0
3, 203902, Note_on_c, 0, 57, 0
3, 203955, Note_on_c, 0, 61, 57
3, 204197, Note_on_c, 0, 61, 0
3, 204258, Note_on_c, 0, 64, 44
3, 204296, Note_on_c, 0, 61, 44
3, 204376, Note_on_c, 0, 64, 0
3, 204451, Note_on_c, 0, 61, 0
3, 204482, Note_on_c, 0, 57, 32
3, 204704, Note_on_c, 0, 57, 0
3, 204748, Note_on_c, 0, 58, 57
3, 204824, Note_on_c, 0, 49, 0
3, 204925, Note_on_c, 0, 58, 0
3, 205000, Note_on_c, 0, 60, 22
3, 205173, Note_on_c, 0, 60, 0
3, 205224, Note_on_c, 0, 61, 61
3, 205405, Note_on_c, 0, 61, 0
3, 205462, Note_on_c, 0, 62, 31
3, 205659, Note_on_c, 0, 62, 0
3, 205737, Note_on_c, 0, 64, 54
3, 205812, Note_on_c, 0, 64, 0
3, 205909, Note_on_c, 0, 67, 78
3, 206152, Note_on_c, 0, 67, 0
3, 206230, Note_on_c, 0, 64, 40
3, 206328, Note_on_c, 0, 64, 0
3, 206409, Note_on_c, 0, 67, 71
3, 206549, Note_on_c, 0, 67, 0
3, 206676, Note_on_c, 0, 67, 62
3, 206712, Note_on_c, 0, 57, 33
3, 206742, Note_on_c, 0, 50, 14
3, 206770, Note_on_c, 0, 57, 0
3, 206861, Note_on_c, 0, 67, 0
3, 206884, Note_on_c, 0, 50, 0
3, 206886, Note_on_c, 0, 64, 38
3, 207045, Note_on_c, 0, 64, 0
3, 207146, Note_on_c, 0, 60, 48
3, 207286, Note_on_c, 0, 60, 0
3, 207352, Note_on_c, 0, 55, 32
3, 207594, Note_on_c, 0, 55, 0
3, 207784, Note_on_c, 0, 55, 44
3, 208172, Note_on_c, 0, 55, 0
3, 208270, Note_on_c, 0, 60, 56
3, 208517, Note_on_c, 0, 60, 0
3, 208577, Note_on_c, 0, 55, 36
3, 208705, Note_on_c, 0, 55, 0
3, 208786, Note_on_c, 0, 54, 35
3, 208995, Note_on_c, 0, 54, 0
3, 209064, Note_on_c, 0, 57, 64
3, 209121, Note_on_c, 0, 50, 19
3, 209197, Note_on_c, 0, 57, 0
3, 209206, Note_on_c, 0, 50, 0
3, 209300, Note_on_c, 0, 54, 34
3, 209527, Note_on_c, 0, 54, 0
3, 209550, Note_on_c, 0, 55, 54
3, 209567, Note_on_c, 0, 50, 30
3, 209671, Note_on_c, 0, 55, 0
3, 209713, Note_on_c, 0, 50, 0
3, 209782, Note_on_c, 0, 57, 43
3, 209979, Note_on_c, 0, 57, 0
3, 210039, Note_on_c, 0, 58, 57
3, 210179, Note_on_c, 0, 58, 0
3, 210278, Note_on_c, 0, 59, 31
3, 210431, Note_on_c, 0, 59, 0
3, 210521, Note_on_c, 0, 62, 57
3, 210626, Note_on_c, 0, 62, 0
3, 210706, Note_on_c, 0, 64, 65
3, 210883, Note_on_c, 0, 64, 0
3, 211052, Note_on_c, 0, 48, 25
3, 211150, Note_on_c, 0, 48, 0
3, 211202, Note_on_c, 0, 67, 29
3, 211207, Note_on_c, 0, 55, 28
3, 211209, Note_on_c, 0, 52, 29
3, 211213, Note_on_c, 0, 64, 36
3, 211216, Note_on_c, 0, 60, 32
3, 211471, Note_on_c, 0, 67, 0
3, 211477, Note_on_c, 0, 55, 0
3, 211497, Note_on_c, 0, 60, 0
3, 211499, Note_on_c, 0, 52, 0
3, 211512, Note_on_c, 0, 64, 0
3, 211635, Note_on_c, 0, 48, 27
3, 211636, Note_on_c, 0, 64, 34
3, 211834, Note_on_c, 0, 64, 0
3, 211921, Note_on_c, 0, 55, 54
3, 211930, Note_on_c, 0, 67, 55
3, 211948, Note_on_c, 0, 60, 41
3, 211951, Note_on_c, 0, 48, 0
3, 211963, Note_on_c, 0, 52, 41
3, 211964, Note_on_c, 0, 64, 34
3, 212060, Note_on_c, 0, 55, 0
3, 212069, Note_on_c, 0, 60, 0
3, 212077, Note_on_c, 0, 67, 0
3, 212079, Note_on_c, 0, 52, 0
3, 212093, Note_on_c, 0, 64, 0
3, 212159, Note_on_c, 0, 67, 35
3, 212180, Note_on_c, 0, 55, 34
3, 212197, Note_on_c, 0, 52, 24
3, 212212, Note_on_c, 0, 64, 24
3, 212213, Note_on_c, 0, 60, 22
3, 212346, Note_on_c, 0, 64, 0
3, 212379, Note_on_c, 0, 60, 0
3, 212386, Note_on_c, 0, 55, 0
3, 212433, Note_on_c, 0, 67, 0
3, 212507, Note_on_c, 0, 52, 0
3, 212576, Note_on_c, 0, 48, 34
3, 212624, Note_on_c, 0, 55, 17
3, 212764, Note_on_c, 0, 55, 0
3, 212865, Note_on_c, 0, 48, 0
3, 212899, Note_on_c, 0, 55, 44
3, 212915, Note_on_c, 0, 62, 51
3, 212916, Note_on_c, 0, 50, 46
3, 212929, Note_on_c, 0, 59, 40
3, 212946, Note_on_c, 0, 55, 0
3, 212976, Note_on_c, 0, 59, 0
3, 213017, Note_on_c, 0, 62, 0
3, 213023, Note_on_c, 0, 50, 0
3, 213351, Note_on_c, 0, 74, 76
3, 213357, Note_on_c, 0, 62, 75
3, 213368, Note_on_c, 0, 71, 66
3, 213397, Note_on_c, 0, 72, 34
3, 213472, Note_on_c, 0, 72, 0
3, 213843, Note_on_c, 0, 62, 0
3, 213864, Note_on_c, 0, 74, 0
3, 213877, Note_on_c, 0, 71, 0
3, 214017, Note_on_c, 0, 71, 58
3, 214022, Note_on_c, 0, 74, 60
3, 214032, Note_on_c, 0, 62, 57
3, 214201, Note_on_c, 0, 62, 0
3, 214263, Note_on_c, 0, 74, 0
3, 214276, Note_on_c, 0, 71, 0
3, 214521, Note_on_c, 0, 76, 71
3, 214524, Note_on_c, 0, 72, 71
3, 214560, Note_on_c, 0, 62, 38
3, 214605, Note_on_c, 0, 62, 0
3, 214767, Note_on_c, 0, 76, 0
3, 214776, Note_on_c, 0, 72, 0
3, 214971, Note_on_c, 0, 70, 69
3, 214975, Note_on_c, 0, 74, 68
3, 214980, Note_on_c, 0, 62, 71
3, 215072, Note_on_c, 0, 62, 0
3, 215141, Note_on_c, 0, 70, 0
3, 215252, Note_on_c, 0, 71, 58
3, 215257, Note_on_c, 0, 72, 35
3, 215365, Note_on_c, 0, 74, 0
3, 215381, Note_on_c, 0, 67, 29
3, 215398, Note_on_c, 0, 72, 0
3, 215424, Note_on_c, 0, 50, 25
3, 215432, Note_on_c, 0, 67, 0
3, 215434, Note_on_c, 0, 71, 0
3, 215478, Note_on_c, 0, 62, 53
3, 215498, Note_on_c, 0, 50, 0
3, 215878, Note_on_c, 0, 50, 36
3, 215892, Note_on_c, 0, 62, 0
3, 215943, Note_on_c, 0, 50, 0
3, 215965, Note_on_c, 0, 67, 64
3, 215977, Note_on_c, 0, 60, 66
3, 216195, Note_on_c, 0, 67, 0
3, 216317, Note_on_c, 0, 60, 0
3, 216322, Note_on_c, 0, 55, 34
3, 216390, Note_on_c, 0, 55, 0
3, 216449, Note_on_c, 0, 58, 57
3, 216451, Note_on_c, 0, 61, 47
3, 216757, Note_on_c, 0, 58, 0
3, 216792, Note_on_c, 0, 59, 37
3, 216825, Note_on_c, 0, 61, 0
3, 216928, Note_on_c, 0, 59, 0
3, 216980, Note_on_c, 0, 55, 37
3, 217335, Note_on_c, 0, 55, 0
3, 217437, Note_on_c, 0, 55, 44
3, 217715, Note_on_c, 0, 55, 0
3, 219599, Note_on_c, 0, 55, 33
3, 219621, Note_on_c, 0, 60, 31
3, 219623, Note_on_c, 0, 59, 32
3, 219632, Note_on_c, 0, 64, 15
3, 219692, Note_on_c, 0, 60, 0
3, 219695, Note_on_c, 0, 59, 0
3, 219709, Note_on_c, 0, 55, 0
3, 219715, Note_on_c, 0, 64, 0
3, 220065, Note_on_c, 0, 64, 37
3, 220091, Note_on_c, 0, 55, 29
3, 220100, Note_on_c, 0, 60, 40
3, 220108, Note_on_c, 0, 59, 34
3, 220162, Note_on_c, 0, 60, 0
3, 220163, Note_on_c, 0, 59, 0
3, 220175, Note_on_c, 0, 64, 0
3, 220205, Note_on_c, 0, 55, 0
3, 220503, Note_on_c, 0, 62, 40
3, 220538, Note_on_c, 0, 57, 48
3, 220590, Note_on_c, 0, 62, 0
3, 220596, Note_on_c, 0, 57, 0
3, 221465, Note_on_c, 0, 57, 36
3, 221528, Note_on_c, 0, 57, 0
3, 221659, Note_on_c, 0, 72, 33
3, 221881, Note_on_c, 0, 72, 0
3, 221960, Note_on_c, 0, 74, 61
3, 222089, Note_on_c, 0, 74, 0
3, 222205, Note_on_c, 0, 75, 55
3, 222410, Note_on_c, 0, 75, 0
3, 222446, Note_on_c, 0, 76, 68
3, 222460, Note_on_c, 0, 57, 49
3, 222461, Note_on_c, 0, 62, 47
3, 222491, Note_on_c, 0, 51, 25
3, 222579, Note_on_c, 0, 76, 0
3, 222703, Note_on_c, 0, 77, 60
3, 222890, Note_on_c, 0, 77, 0
3, 222960, Note_on_c, 0, 78, 76
3, 223124, Note_on_c, 0, 78, 0
3, 223185, Note_on_c, 0, 62, 0
3, 223205, Note_on_c, 0, 81, 78
3, 223272, Note_on_c, 0, 57, 0
3, 223364, Note_on_c, 0, 81, 0
3, 223462, Note_on_c, 0, 88, 84
3, 223503, Note_on_c, 0, 87, 31
3, 223527, Note_on_c, 0, 57, 37
3, 223540, Note_on_c, 0, 87, 0
3, 223646, Note_on_c, 0, 88, 0
3, 223694, Note_on_c, 0, 57, 0
3, 223741, Note_on_c, 0, 86, 61
3, 223881, Note_on_c, 0, 86, 0
3, 223924, Note_on_c, 0, 57, 35
3, 223984, Note_on_c, 0, 51, 0
3, 224031, Note_on_c, 0, 57, 0
3, 224082, Note_on_c, 0, 82, 50
3, 224105, Note_on_c, 0, 86, 50
3, 224178, Note_on_c, 0, 82, 0
3, 224193, Note_on_c, 0, 83, 44
3, 224244, Note_on_c, 0, 84, 28
3, 224290, Note_on_c, 0, 86, 0
3, 224298, Note_on_c, 0, 84, 0
3, 224302, Note_on_c, 0, 83, 0
3, 224384, Note_on_c, 0, 86, 46
3, 224392, Note_on_c, 0, 62, 29
3, 224404, Note_on_c, 0, 79, 48
3, 224429, Note_on_c, 0, 55, 34
3, 224480, Note_on_c, 0, 62, 0
3, 224530, Note_on_c, 0, 55, 0
3, 224533, Note_on_c, 0, 86, 0
3, 224555, Note_on_c, 0, 79, 0
3, 224670, Note_on_c, 0, 74, 40
3, 224776, Note_on_c, 0, 74, 0
3, 225578, Note_on_c, 0, 70, 75
3, 225801, Note_on_c, 0, 70, 0
3, 225850, Note_on_c, 0, 71, 52
3, 225963, Note_on_c, 0, 71, 0
3, 226053, Note_on_c, 0, 74, 95
3, 226308, Note_on_c, 0, 74, 0
3, 226560, Note_on_c, 0, 71, 72
3, 226729, Note_on_c, 0, 71, 0
3, 226811, Note_on_c, 0, 67, 50
3, 226975, Note_on_c, 0, 67, 0
3, 227033, Note_on_c, 0, 62, 36
3, 227351, Note_on_c, 0, 62, 0
3, 227500, Note_on_c, 0, 63, 49
3, 228839, Note_on_c, 0, 63, 0
3, 228947, Note_on_c, 0, 64, 66
3, 229225, Note_on_c, 0, 64, 0
3, 229259, Note_on_c, 0, 63, 32
3, 229353, Note_on_c, 0, 63, 0
3, 229420, Note_on_c, 0, 64, 54
3, 229813, Note_on_c, 0, 64, 0
3, 229900, Note_on_c, 0, 65, 81
3, 230153, Note_on_c, 0, 65, 0
3, 230179, Note_on_c, 0, 64, 40
3, 230342, Note_on_c, 0, 64, 0
3, 230375, Note_on_c, 0, 65, 50
3, 230696, Note_on_c, 0, 57, 27
3, 230722, Note_on_c, 0, 65, 0
3, 230821, Note_on_c, 0, 67, 81
3, 231057, Note_on_c, 0, 57, 0
3, 231122, Note_on_c, 0, 67, 0
3, 231123, Note_on_c, 0, 66, 49
3, 231279, Note_on_c, 0, 66, 0
3, 231342, Note_on_c, 0, 67, 24
3, 231550, Note_on_c, 0, 67, 0
3, 231597, Note_on_c, 0, 68, 60
3, 231605, Note_on_c, 0, 64, 39
3, 231621, Note_on_c, 0, 59, 36
3, 231691, Note_on_c, 0, 53, 17
3, 231720, Note_on_c, 0, 64, 0
3, 231734, Note_on_c, 0, 59, 0
3, 231776, Note_on_c, 0, 68, 0
3, 231803, Note_on_c, 0, 67, 32
3, 231853, Note_on_c, 0, 53, 0
3, 232011, Note_on_c, 0, 67, 0
3, 232088, Note_on_c, 0, 67, 26
3, 232100, Note_on_c, 0, 68, 56
3, 232169, Note_on_c, 0, 67, 0
3, 232255, Note_on_c, 0, 68, 0
3, 232283, Note_on_c, 0, 57, 35
3, 232290, Note_on_c, 0, 62, 51
3, 232303, Note_on_c, 0, 69, 61
3, 232316, Note_on_c, 0, 52, 33
3, 232550, Note_on_c, 0, 69, 0
3, 232558, Note_on_c, 0, 62, 0
3, 232599, Note_on_c, 0, 68, 26
3, 232671, Note_on_c, 0, 52, 0
3, 232789, Note_on_c, 0, 68, 0
3, 232812, Note_on_c, 0, 69, 31
3, 232843, Note_on_c, 0, 57, 0
3, 233055, Note_on_c, 0, 70, 71
3, 233080, Note_on_c, 0, 62, 37
3, 233082, Note_on_c, 0, 57, 48
3, 233090, Note_on_c, 0, 69, 0
3, 233140, Note_on_c, 0, 62, 0
3, 233266, Note_on_c, 0, 70, 0
3, 233314, Note_on_c, 0, 71, 33
3, 233355, Note_on_c, 0, 57, 0
3, 233539, Note_on_c, 0, 72, 70
3, 233566, Note_on_c, 0, 71, 0
3, 233570, Note_on_c, 0, 62, 41
3, 233609, Note_on_c, 0, 57, 33
3, 233615, Note_on_c, 0, 62, 0
3, 233669, Note_on_c, 0, 57, 0
3, 233703, Note_on_c, 0, 72, 0
3, 233770, Note_on_c, 0, 73, 64
3, 233994, Note_on_c, 0, 73, 0
3, 234041, Note_on_c, 0, 75, 57
3, 234069, Note_on_c, 0, 64, 53
3, 234076, Note_on_c, 0, 61, 32
3, 234112, Note_on_c, 0, 64, 0
3, 234145, Note_on_c, 0, 61, 0
3, 234212, Note_on_c, 0, 75, 0
3, 234274, Note_on_c, 0, 76, 45
3, 234448, Note_on_c, 0, 76, 0
3, 234517, Note_on_c, 0, 78, 56
3, 234644, Note_on_c, 0, 78, 0
3, 234701, Note_on_c, 0, 79, 48
3, 234894, Note_on_c, 0, 79, 0
3, 234939, Note_on_c, 0, 81, 77
3, 235003, Note_on_c, 0, 61, 63
3, 235006, Note_on_c, 0, 64, 65
3, 235044, Note_on_c, 0, 61, 0
3, 235045, Note_on_c, 0, 64, 0
3, 235163, Note_on_c, 0, 81, 0
3, 235167, Note_on_c, 0, 82, 57
3, 235361, Note_on_c, 0, 82, 0
3, 235430, Note_on_c, 0, 84, 72
3, 235566, Note_on_c, 0, 84, 0
3, 235621, Note_on_c, 0, 85, 49
3, 235878, Note_on_c, 0, 85, 0
3, 235896, Note_on_c, 0, 57, 66
3, 235900, Note_on_c, 0, 60, 70
3, 235901, Note_on_c, 0, 64, 76
3, 235904, Note_on_c, 0, 87, 67
3, 235921, Note_on_c, 0, 55, 56
3, 235962, Note_on_c, 0, 55, 0
3, 235966, Note_on_c, 0, 64, 0
3, 235992, Note_on_c, 0, 60, 0
3, 235999, Note_on_c, 0, 57, 0
3, 236152, Note_on_c, 0, 88, 58
3, 236163, Note_on_c, 0, 87, 0
3, 236342, Note_on_c, 0, 88, 0
3, 236392, Note_on_c, 0, 91, 74
3, 236395, Note_on_c, 0, 79, 65
3, 236500, Note_on_c, 0, 79, 0
3, 236507, Note_on_c, 0, 91, 0
3, 236590, Note_on_c, 0, 91, 58
3, 236592, Note_on_c, 0, 79, 36
3, 236724, Note_on_c, 0, 91, 0
3, 236726, Note_on_c, 0, 79, 0
3, 236867, Note_on_c, 0, 91, 71
3, 236868, Note_on_c, 0, 79, 60
3, 236889, Note_on_c, 0, 64, 66
3, 236916, Note_on_c, 0, 60, 49
3, 236933, Note_on_c, 0, 57, 36
3, 236974, Note_on_c, 0, 91, 0
3, 236977, Note_on_c, 0, 64, 0
3, 236981, Note_on_c, 0, 79, 0
3, 237068, Note_on_c, 0, 91, 47
3, 237074, Note_on_c, 0, 60, 0
3, 237080, Note_on_c, 0, 79, 48
3, 237108, Note_on_c, 0, 57, 0
3, 237247, Note_on_c, 0, 79, 0
3, 237258, Note_on_c, 0, 91, 0
3, 237549, Note_on_c, 0, 91, 61
3, 237552, Note_on_c, 0, 79, 62
3, 237663, Note_on_c, 0, 91, 0
3, 237667, Note_on_c, 0, 79, 0
3, 237843, Note_on_c, 0, 79, 56
3, 237844, Note_on_c, 0, 91, 61
3, 237934, Note_on_c, 0, 79, 0
3, 238010, Note_on_c, 0, 91, 0
3, 238309, Note_on_c, 0, 94, 83
3, 238311, Note_on_c, 0, 98, 81
3, 238334, Note_on_c, 0, 92, 63
3, 238372, Note_on_c, 0, 92, 0
3, 238441, Note_on_c, 0, 94, 0
3, 238445, Note_on_c, 0, 98, 0
3, 238520, Note_on_c, 0, 98, 73
3, 238529, Note_on_c, 0, 95, 91
3, 238669, Note_on_c, 0, 98, 0
3, 238683, Note_on_c, 0, 95, 0
3, 238774, Note_on_c, 0, 98, 74
3, 238798, Note_on_c, 0, 91, 80
3, 238824, Note_on_c, 0, 64, 47
3, 238848, Note_on_c, 0, 60, 28
3, 238857, Note_on_c, 0, 54, 29
3, 238874, Note_on_c, 0, 64, 0
3, 238893, Note_on_c, 0, 91, 0
3, 238906, Note_on_c, 0, 60, 0
3, 238935, Note_on_c, 0, 54, 0
3, 238947, Note_on_c, 0, 98, 0
3, 239128, Note_on_c, 0, 98, 74
3, 239161, Note_on_c, 0, 95, 71
3, 239230, Note_on_c, 0, 91, 55
3, 239295, Note_on_c, 0, 95, 0
3, 239306, Note_on_c, 0, 98, 0
3, 239334, Note_on_c, 0, 91, 0
3, 239337, Note_on_c, 0, 86, 68
3, 239417, Note_on_c, 0, 86, 0
3, 239495, Note_on_c, 0, 84, 76
3, 239523, Note_on_c, 0, 89, 58
3, 239683, Note_on_c, 0, 89, 0
3, 239717, Note_on_c, 0, 84, 0
3, 239739, Note_on_c, 0, 79, 62
3, 239834, Note_on_c, 0, 79, 0
3, 239921, Note_on_c, 0, 82, 80
3, 239932, Note_on_c, 0, 86, 78
3, 240111, Note_on_c, 0, 86, 0
3, 240118, Note_on_c, 0, 82, 0
3, 240192, Note_on_c, 0, 86, 73
3, 240196, Note_on_c, 0, 83, 85
3, 240343, Note_on_c, 0, 83, 0
3, 240397, Note_on_c, 0, 79, 41
3, 240537, Note_on_c, 0, 86, 0
3, 240637, Note_on_c, 0, 79, 0
3, 240679, Note_on_c, 0, 74, 45
3, 240806, Note_on_c, 0, 74, 0
3, 240861, Note_on_c, 0, 72, 36
3, 240923, Note_on_c, 0, 79, 14
3, 241023, Note_on_c, 0, 79, 0
3, 241082, Note_on_c, 0, 72, 0
3, 241352, Note_on_c, 0, 73, 42
3, 241360, Note_on_c, 0, 70, 48
3, 241518, Note_on_c, 0, 70, 0
3, 241528, Note_on_c, 0, 73, 0
3, 241533, Note_on_c, 0, 71, 50
3, 241745, Note_on_c, 0, 71, 0
3, 241874, Note_on_c, 0, 67, 36
3, 242048, Note_on_c, 0, 67, 0
3, 242150, Note_on_c, 0, 67, 36
3, 242289, Note_on_c, 0, 67, 0
3, 242374, Note_on_c, 0, 72, 88
3, 242377, Note_on_c, 0, 76, 87
3, 242764, Note_on_c, 0, 76, 0
3, 242782, Note_on_c, 0, 72, 0
3, 242860, Note_on_c, 0, 67, 32
3, 243010, Note_on_c, 0, 67, 0
3, 243116, Note_on_c, 0, 67, 47
3, 243236, Note_on_c, 0, 67, 0
3, 243329, Note_on_c, 0, 72, 99
3, 243333, Note_on_c, 0, 76, 91
3, 243754, Note_on_c, 0, 76, 0
3, 243780, Note_on_c, 0, 72, 0
3, 244106, Note_on_c, 0, 67, 58
3, 244123, Note_on_c, 0, 62, 39
3, 244169, Note_on_c, 0, 62, 0
3, 244214, Note_on_c, 0, 67, 0
3, 244282, Note_on_c, 0, 73, 77
3, 244291, Note_on_c, 0, 77, 81
3, 244296, Note_on_c, 0, 67, 74
3, 244338, Note_on_c, 0, 67, 0
3, 244357, Note_on_c, 0, 74, 69
3, 244465, Note_on_c, 0, 73, 0
3, 244670, Note_on_c, 0, 77, 0
3, 244675, Note_on_c, 0, 74, 0
3, 244764, Note_on_c, 0, 77, 74
3, 244765, Note_on_c, 0, 74, 78
3, 244778, Note_on_c, 0, 67, 85
3, 244807, Note_on_c, 0, 76, 38
3, 245087, Note_on_c, 0, 67, 0
3, 245214, Note_on_c, 0, 77, 0
3, 245215, Note_on_c, 0, 74, 0
3, 245264, Note_on_c, 0, 67, 44
3, 245284, Note_on_c, 0, 76, 0
3, 245378, Note_on_c, 0, 67, 0
3, 245558, Note_on_c, 0, 67, 58
3, 245594, Note_on_c, 0, 62, 36
3, 245618, Note_on_c, 0, 59, 31
3, 245638, Note_on_c, 0, 67, 0
3, 245642, Note_on_c, 0, 62, 0
3, 245675, Note_on_c, 0, 59, 0
3, 245720, Note_on_c, 0, 73, 74
3, 245727, Note_on_c, 0, 67, 71
3, 245730, Note_on_c, 0, 77, 80
3, 245781, Note_on_c, 0, 67, 0
3, 245815, Note_on_c, 0, 74, 54
3, 245955, Note_on_c, 0, 73, 0
3, 246090, Note_on_c, 0, 59, 20
3, 246145, Note_on_c, 0, 59, 0
3, 246147, Note_on_c, 0, 74, 0
3, 246182, Note_on_c, 0, 77, 0
3, 246204, Note_on_c, 0, 67, 55
3, 246316, Note_on_c, 0, 67, 0
3, 246500, Note_on_c, 0, 67, 56
3, 246605, Note_on_c, 0, 67, 0
3, 246668, Note_on_c, 0, 77, 76
3, 246672, Note_on_c, 0, 74, 81
3, 246898, Note_on_c, 0, 74, 0
3, 246912, Note_on_c, 0, 77, 0
3, 246979, Note_on_c, 0, 59, 39
3, 246990, Note_on_c, 0, 62, 30
3, 247001, Note_on_c, 0, 67, 41
3, 247030, Note_on_c, 0, 62, 0
3, 247040, Note_on_c, 0, 59, 0
3, 247055, Note_on_c, 0, 67, 0
3, 247139, Note_on_c, 0, 76, 68
3, 247148, Note_on_c, 0, 72, 63
3, 247379, Note_on_c, 0, 72, 0
3, 247395, Note_on_c, 0, 76, 0
3, 247438, Note_on_c, 0, 67, 40
3, 247486, Note_on_c, 0, 59, 28
3, 247511, Note_on_c, 0, 67, 0
3, 247537, Note_on_c, 0, 59, 0
3, 247621, Note_on_c, 0, 66, 74
3, 247657, Note_on_c, 0, 70, 52
3, 247841, Note_on_c, 0, 66, 0
3, 247884, Note_on_c, 0, 70, 0
3, 247894, Note_on_c, 0, 67, 70
3, 247906, Note_on_c, 0, 71, 57
3, 248028, Note_on_c, 0, 67, 0
3, 248040, Note_on_c, 0, 71, 0
3, 248095, Note_on_c, 0, 67, 54
3, 248106, Note_on_c, 0, 71, 46
3, 248275, Note_on_c, 0, 67, 0
3, 248278, Note_on_c, 0, 71, 0
3, 248379, Note_on_c, 0, 71, 61
3, 248384, Note_on_c, 0, 67, 66
3, 248423, Note_on_c, 0, 60, 40
3, 248470, Note_on_c, 0, 67, 0
3, 248471, Note_on_c, 0, 60, 0
3, 248473, Note_on_c, 0, 71, 0
3, 248586, Note_on_c, 0, 66, 60
3, 248622, Note_on_c, 0, 70, 31
3, 248785, Note_on_c, 0, 66, 0
3, 248820, Note_on_c, 0, 70, 0
3, 248844, Note_on_c, 0, 67, 64
3, 248876, Note_on_c, 0, 71, 47
3, 248966, Note_on_c, 0, 71, 0
3, 248973, Note_on_c, 0, 67, 0
3, 249068, Note_on_c, 0, 67, 53
3, 249081, Note_on_c, 0, 71, 47
3, 249243, Note_on_c, 0, 67, 0
3, 249249, Note_on_c, 0, 71, 0
3, 249340, Note_on_c, 0, 71, 67
3, 249341, Note_on_c, 0, 67, 74
3, 249436, Note_on_c, 0, 67, 0
3, 249451, Note_on_c, 0, 71, 0
3, 249552, Note_on_c, 0, 66, 61
3, 249587, Note_on_c, 0, 70, 30
3, 249756, Note_on_c, 0, 66, 0
3, 249774, Note_on_c, 0, 70, 0
3, 249827, Note_on_c, 0, 67, 62
3, 249847, Note_on_c, 0, 71, 49
3, 249945, Note_on_c, 0, 71, 0
3, 249950, Note_on_c, 0, 67, 0
3, 250039, Note_on_c, 0, 67, 53
3, 250064, Note_on_c, 0, 71, 49
3, 250240, Note_on_c, 0, 67, 0
3, 250251, Note_on_c, 0, 71, 0
3, 250327, Note_on_c, 0, 67, 59
3, 250340, Note_on_c, 0, 71, 51
3, 250466, Note_on_c, 0, 67, 0
3, 250470, Note_on_c, 0, 71, 0
3, 250510, Note_on_c, 0, 67, 45
3, 250523, Note_on_c, 0, 71, 49
3, 250534, Note_on_c, 0, 64, 49
3, 250540, Note_on_c, 0, 60, 53
3, 250548, Note_on_c, 0, 55, 39
3, 250674, Note_on_c, 0, 64, 0
3, 250695, Note_on_c, 0, 60, 0
3, 250708, Note_on_c, 0, 55, 0
3, 250783, Note_on_c, 0, 71, 0
3, 250791, Note_on_c, 0, 67, 0
3, 251021, Note_on_c, 0, 66, 74
3, 251026, Note_on_c, 0, 70, 62
3, 251251, Note_on_c, 0, 66, 0
3, 251298, Note_on_c, 0, 70, 0
3, 251298, Note_on_c, 0, 67, 74
3, 251301, Note_on_c, 0, 71, 71
3, 251441, Note_on_c, 0, 67, 0
3, 251451, Note_on_c, 0, 71, 0
3, 251504, Note_on_c, 0, 67, 64
3, 251513, Note_on_c, 0, 71, 64
3, 251699, Note_on_c, 0, 67, 0
3, 251718, Note_on_c, 0, 71, 0
3, 251795, Note_on_c, 0, 67, 68
3, 251798, Note_on_c, 0, 71, 72
3, 251878, Note_on_c, 0, 67, 0
3, 251898, Note_on_c, 0, 71, 0
3, 252000, Note_on_c, 0, 66, 57
3, 252018, Note_on_c, 0, 70, 42
3, 252201, Note_on_c, 0, 66, 0
3, 252229, Note_on_c, 0, 70, 0
3, 252254, Note_on_c, 0, 67, 76
3, 252261, Note_on_c, 0, 71, 71
3, 252380, Note_on_c, 0, 67, 0
3, 252400, Note_on_c, 0, 71, 0
3, 252449, Note_on_c, 0, 67, 74
3, 252467, Note_on_c, 0, 71, 75
3, 252640, Note_on_c, 0, 67, 0
3, 252641, Note_on_c, 0, 71, 0
3, 252730, Note_on_c, 0, 71, 71
3, 252732, Note_on_c, 0, 67, 72
3, 252800, Note_on_c, 0, 60, 32
3, 252827, Note_on_c, 0, 67, 0
3, 252843, Note_on_c, 0, 71, 0
3, 252851, Note_on_c, 0, 60, 0
3, 252960, Note_on_c, 0, 66, 62
3, 252974, Note_on_c, 0, 70, 45
3, 253132, Note_on_c, 0, 66, 0
3, 253142, Note_on_c, 0, 70, 0
3, 253198, Note_on_c, 0, 67, 76
3, 253204, Note_on_c, 0, 71, 71
3, 253336, Note_on_c, 0, 67, 0
3, 253347, Note_on_c, 0, 71, 0
3, 253396, Note_on_c, 0, 62, 54
3, 253400, Note_on_c, 0, 67, 71
3, 253411, Note_on_c, 0, 71, 64
3, 253426, Note_on_c, 0, 51, 25
3, 253429, Note_on_c, 0, 57, 46
3, 253616, Note_on_c, 0, 71, 0
3, 253627, Note_on_c, 0, 67, 0
3, 253694, Note_on_c, 0, 71, 73
3, 253695, Note_on_c, 0, 67, 77
3, 253712, Note_on_c, 0, 62, 0
3, 253726, Note_on_c, 0, 51, 0
3, 253810, Note_on_c, 0, 67, 0
3, 253824, Note_on_c, 0, 71, 0
3, 253890, Note_on_c, 0, 67, 62
3, 253894, Note_on_c, 0, 71, 76
3, 253919, Note_on_c, 0, 57, 0
3, 254170, Note_on_c, 0, 67, 0
3, 254191, Note_on_c, 0, 71, 0
3, 254369, Note_on_c, 0, 51, 64
3, 254372, Note_on_c, 0, 62, 65
3, 254373, Note_on_c, 0, 71, 91
3, 254375, Note_on_c, 0, 67, 101
3, 254393, Note_on_c, 0, 57, 51
3, 254633, Note_on_c, 0, 62, 0
3, 254636, Note_on_c, 0, 67, 0
3, 254723, Note_on_c, 0, 71, 0
3, 254787, Note_on_c, 0, 51, 0
3, 254864, Note_on_c, 0, 66, 74
3, 254867, Note_on_c, 0, 69, 71
3, 254871, Note_on_c, 0, 57, 0
3, 255104, Note_on_c, 0, 66, 0
3, 255140, Note_on_c, 0, 69, 0
3, 255316, Note_on_c, 0, 62, 42
3, 255353, Note_on_c, 0, 55, 37
3, 255354, Note_on_c, 0, 66, 87
3, 255355, Note_on_c, 0, 70, 77
3, 255363, Note_on_c, 0, 62, 0
3, 255503, Note_on_c, 0, 55, 0
3, 255630, Note_on_c, 0, 66, 0
3, 255645, Note_on_c, 0, 67, 64
3, 255656, Note_on_c, 0, 71, 70
3, 255657, Note_on_c, 0, 70, 0
3, 255751, Note_on_c, 0, 67, 0
3, 255788, Note_on_c, 0, 71, 0
3, 255836, Note_on_c, 0, 67, 49
3, 255865, Note_on_c, 0, 71, 36
3, 256032, Note_on_c, 0, 67, 0
3, 256042, Note_on_c, 0, 71, 0
3, 256114, Note_on_c, 0, 67, 68
3, 256125, Note_on_c, 0, 71, 69
3, 256139, Note_on_c, 0, 62, 44
3, 256183, Note_on_c, 0, 62, 0
3, 256236, Note_on_c, 0, 67, 0
3, 256250, Note_on_c, 0, 71, 0
3, 256338, Note_on_c, 0, 67, 43
3, 256346, Note_on_c, 0, 71, 58
3, 256558, Note_on_c, 0, 67, 0
3, 256648, Note_on_c, 0, 71, 0
3, 256777, Note_on_c, 0, 66, 35
3, 256793, Note_on_c, 0, 69, 38
3, 256952, Note_on_c, 0, 66, 0
3, 256968, Note_on_c, 0, 69, 0
3, 257071, Note_on_c, 0, 71, 54
3, 257077, Note_on_c, 0, 67, 59
3, 257125, Note_on_c, 0, 67, 0
3, 257157, Note_on_c, 0, 71, 0
3, 257544, Note_on_c, 0, 57, 48
3, 257546, Note_on_c, 0, 62, 38
3, 257594, Note_on_c, 0, 62, 0
3, 257604, Note_on_c, 0, 57, 0
3, 258193, Note_on_c, 0, 62, 38
3, 258218, Note_on_c, 0, 57, 35
3, 258281, Note_on_c, 0, 62, 0
3, 258283, Note_on_c, 0, 57, 0
3, 258973, Note_on_c, 0, 62, 29
3, 258986, Note_on_c, 0, 59, 31
3, 258995, Note_on_c, 0, 55, 42
3, 259014, Note_on_c, 0, 62, 0
3, 259043, Note_on_c, 0, 59, 0
3, 259081, Note_on_c, 0, 55, 0
3, 259153, Note_on_c, 0, 82, 68
3, 259163, Note_on_c, 0, 70, 64
3, 259409, Note_on_c, 0, 82, 0
3, 259411, Note_on_c, 0, 70, 0
3, 259413, Note_on_c, 0, 71, 68
3, 259520, Note_on_c, 0, 71, 0
3, 259556, Note_on_c, 0, 83, 53
3, 259621, Note_on_c, 0, 71, 48
3, 259663, Note_on_c, 0, 83, 0
3, 259792, Note_on_c, 0, 71, 0
3, 259809, Note_on_c, 0, 83, 57
3, 259896, Note_on_c, 0, 71, 42
3, 259915, Note_on_c, 0, 83, 0
3, 259922, Note_on_c, 0, 62, 28
3, 259964, Note_on_c, 0, 62, 0
3, 260057, Note_on_c, 0, 71, 0
3, 260073, Note_on_c, 0, 83, 49
3, 260154, Note_on_c, 0, 71, 46
3, 260165, Note_on_c, 0, 83, 0
3, 260298, Note_on_c, 0, 71, 0
3, 260310, Note_on_c, 0, 83, 55
3, 260406, Note_on_c, 0, 83, 0
3, 261029, Note_on_c, 0, 59, 55
3, 261037, Note_on_c, 0, 64, 48
3, 261086, Note_on_c, 0, 64, 0
3, 261127, Note_on_c, 0, 59, 0
3, 261540, Note_on_c, 0, 94, 81
3, 261546, Note_on_c, 0, 82, 91
3, 261572, Note_on_c, 0, 92, 46
3, 261611, Note_on_c, 0, 92, 0
3, 261813, Note_on_c, 0, 94, 0
3, 261840, Note_on_c, 0, 83, 69
3, 261843, Note_on_c, 0, 82, 0
3, 261857, Note_on_c, 0, 92, 23
3, 261860, Note_on_c, 0, 95, 35
3, 261898, Note_on_c, 0, 83, 0
3, 261929, Note_on_c, 0, 95, 0
3, 261933, Note_on_c, 0, 92, 0
3, 262076, Note_on_c, 0, 64, 72
3, 262078, Note_on_c, 0, 59, 70
3, 262090, Note_on_c, 0, 53, 67
3, 262092, Note_on_c, 0, 86, 79
3, 262096, Note_on_c, 0, 98, 75
3, 262098, Note_on_c, 0, 100, 78
3, 262105, Note_on_c, 0, 88, 76
3, 262116, Note_on_c, 0, 94, 46
3, 262138, Note_on_c, 0, 100, 0
3, 262142, Note_on_c, 0, 88, 0
3, 262155, Note_on_c, 0, 94, 0
3, 262225, Note_on_c, 0, 97, 42
3, 262241, Note_on_c, 0, 98, 0
3, 262243, Note_on_c, 0, 86, 0
3, 262261, Note_on_c, 0, 53, 0
3, 262264, Note_on_c, 0, 97, 0
3, 262276, Note_on_c, 0, 64, 0
3, 262340, Note_on_c, 0, 85, 67
3, 262348, Note_on_c, 0, 97, 63
3, 262351, Note_on_c, 0, 53, 67
3, 262353, Note_on_c, 0, 64, 54
3, 262463, Note_on_c, 0, 64, 0
3, 262497, Note_on_c, 0, 85, 0
3, 262534, Note_on_c, 0, 97, 0
3, 262576, Note_on_c, 0, 64, 45
3, 262592, Note_on_c, 0, 96, 57
3, 262612, Note_on_c, 0, 84, 46
3, 262638, Note_on_c, 0, 64, 0
3, 262643, Note_on_c, 0, 96, 0
3, 262668, Note_on_c, 0, 84, 0
3, 262722, Note_on_c, 0, 53, 0
3, 262723, Note_on_c, 0, 59, 0
3, 262807, Note_on_c, 0, 53, 33
3, 262824, Note_on_c, 0, 59, 60
3, 262832, Note_on_c, 0, 94, 70
3, 262834, Note_on_c, 0, 82, 76
3, 262837, Note_on_c, 0, 64, 47
3, 262881, Note_on_c, 0, 64, 0
3, 262921, Note_on_c, 0, 53, 0
3, 262926, Note_on_c, 0, 59, 0
3, 262968, Note_on_c, 0, 94, 0
3, 262969, Note_on_c, 0, 82, 0
3, 263042, Note_on_c, 0, 59, 27
3, 263050, Note_on_c, 0, 52, 43
3, 263058, Note_on_c, 0, 62, 46
3, 263067, Note_on_c, 0, 95, 54
3, 263070, Note_on_c, 0, 83, 47
3, 263076, Note_on_c, 0, 55, 49
3, 263173, Note_on_c, 0, 62, 0
3, 263191, Note_on_c, 0, 83, 0
3, 263196, Note_on_c, 0, 95, 0
3, 263239, Note_on_c, 0, 59, 0
3, 263241, Note_on_c, 0, 52, 0
3, 263242, Note_on_c, 0, 55, 0
3, 263338, Note_on_c, 0, 52, 53
3, 263338, Note_on_c, 0, 84, 52
3, 263340, Note_on_c, 0, 59, 50
3, 263341, Note_on_c, 0, 96, 46
3, 263345, Note_on_c, 0, 98, 49
3, 263345, Note_on_c, 0, 55, 51
3, 263364, Note_on_c, 0, 86, 36
3, 263371, Note_on_c, 0, 62, 33
3, 263389, Note_on_c, 0, 96, 0
3, 263398, Note_on_c, 0, 98, 0
3, 263403, Note_on_c, 0, 84, 0
3, 263417, Note_on_c, 0, 86, 0
3, 263419, Note_on_c, 0, 62, 0
3, 263438, Note_on_c, 0, 59, 0
3, 263508, Note_on_c, 0, 59, 24
3, 263514, Note_on_c, 0, 95, 54
3, 263519, Note_on_c, 0, 83, 50
3, 263526, Note_on_c, 0, 62, 32
3, 263667, Note_on_c, 0, 95, 0
3, 263673, Note_on_c, 0, 83, 0
3, 263689, Note_on_c, 0, 62, 0
3, 263756, Note_on_c, 0, 52, 0
3, 263758, Note_on_c, 0, 59, 0
3, 263769, Note_on_c, 0, 55, 0
3, 263992, Note_on_c, 0, 79, 36
3, 263995, Note_on_c, 0, 62, 34
3, 263997, Note_on_c, 0, 55, 46
3, 264001, Note_on_c, 0, 91, 37
3, 264003, Note_on_c, 0, 52, 28
3, 264007, Note_on_c, 0, 59, 31
3, 264096, Note_on_c, 0, 62, 0
3, 264123, Note_on_c, 0, 59, 0
3, 264125, Note_on_c, 0, 79, 0
3, 264154, Note_on_c, 0, 91, 0
3, 264156, Note_on_c, 0, 55, 0
3, 264165, Note_on_c, 0, 52, 0
3, 264912, Note_on_c, 0, 57, 46
3, 264918, Note_on_c, 0, 49, 38
3, 265015, Note_on_c, 0, 57, 0
3, 265040, Note_on_c, 0, 49, 0
3, 265649, Note_on_c, 0, 57, 44
3, 265657, Note_on_c, 0, 49, 39
3, 265707, Note_on_c, 0, 57, 0
3, 265736, Note_on_c, 0, 49, 0
3, 265877, Note_on_c, 0, 88, 95
3, 265897, Note_on_c, 0, 86, 54
3, 265942, Note_on_c, 0, 86, 0
3, 266147, Note_on_c, 0, 87, 72
3, 266186, Note_on_c, 0, 49, 40
3, 266192, Note_on_c, 0, 88, 0
3, 266222, Note_on_c, 0, 57, 20
3, 266314, Note_on_c, 0, 49, 0
3, 266331, Note_on_c, 0, 87, 0
3, 266370, Note_on_c, 0, 86, 55
3, 266404, Note_on_c, 0, 57, 0
3, 266620, Note_on_c, 0, 86, 0
3, 266622, Note_on_c, 0, 85, 71
3, 266732, Note_on_c, 0, 50, 29
3, 266813, Note_on_c, 0, 85, 0
3, 266834, Note_on_c, 0, 84, 64
3, 266854, Note_on_c, 0, 50, 0
3, 267071, Note_on_c, 0, 84, 0
3, 267296, Note_on_c, 0, 81, 57
3, 267568, Note_on_c, 0, 81, 0
3, 268087, Note_on_c, 0, 60, 42
3, 268119, Note_on_c, 0, 50, 27
3, 268138, Note_on_c, 0, 60, 0
3, 268185, Note_on_c, 0, 50, 0
3, 268261, Note_on_c, 0, 79, 96
3, 269253, Note_on_c, 0, 76, 65
3, 269258, Note_on_c, 0, 79, 0
3, 269485, Note_on_c, 0, 76, 0
3, 269728, Note_on_c, 0, 81, 68
3, 269835, Note_on_c, 0, 82, 40
3, 269916, Note_on_c, 0, 81, 0
3, 269929, Note_on_c, 0, 82, 0
3, 269937, Note_on_c, 0, 83, 43
3, 270056, Note_on_c, 0, 83, 0
3, 270148, Note_on_c, 0, 86, 45
3, 270150, Note_on_c, 0, 88, 39
3, 270219, Note_on_c, 0, 88, 0
3, 270236, Note_on_c, 0, 86, 0
3, 270260, Note_on_c, 0, 74, 64
3, 271097, Note_on_c, 0, 74, 0
3, 271143, Note_on_c, 0, 81, 48
3, 271383, Note_on_c, 0, 81, 0
3, 271414, Note_on_c, 0, 83, 47
3, 271489, Note_on_c, 0, 83, 0
3, 271518, Note_on_c, 0, 86, 85
3, 271526, Note_on_c, 0, 74, 77
3, 271724, Note_on_c, 0, 86, 0
3, 272447, Note_on_c, 0, 74, 0
3, 272483, Note_on_c, 0, 64, 51
3, 272514, Note_on_c, 0, 60, 36
3, 272528, Note_on_c, 0, 64, 0
3, 272561, Note_on_c, 0, 60, 0
3, 272609, Note_on_c, 0, 76, 73
3, 272609, Note_on_c, 0, 88, 80
3, 272893, Note_on_c, 0, 88, 0
3, 272981, Note_on_c, 0, 76, 0
3, 273089, Note_on_c, 0, 86, 74
3, 273094, Note_on_c, 0, 74, 71
3, 273338, Note_on_c, 0, 86, 0
3, 273404, Note_on_c, 0, 74, 0
3, 273428, Note_on_c, 0, 60, 38
3, 273476, Note_on_c, 0, 60, 0
3, 273565, Note_on_c, 0, 82, 55
3, 273567, Note_on_c, 0, 86, 66
3, 273580, Note_on_c, 0, 74, 49
3, 273743, Note_on_c, 0, 74, 0
3, 273790, Note_on_c, 0, 82, 0
3, 273844, Note_on_c, 0, 83, 66
3, 273979, Note_on_c, 0, 83, 0
3, 273981, Note_on_c, 0, 86, 0
3, 274022, Note_on_c, 0, 74, 45
3, 274228, Note_on_c, 0, 74, 0
3, 274311, Note_on_c, 0, 72, 66
3, 274325, Note_on_c, 0, 79, 47
3, 274468, Note_on_c, 0, 79, 0
3, 274489, Note_on_c, 0, 72, 0
3, 274547, Note_on_c, 0, 70, 50
3, 274883, Note_on_c, 0, 70, 0
3, 274980, Note_on_c, 0, 71, 72
3, 275019, Note_on_c, 0, 79, 28
3, 275203, Note_on_c, 0, 79, 0
3, 275285, Note_on_c, 0, 71, 0
3, 275462, Note_on_c, 0, 67, 47
3, 275780, Note_on_c, 0, 67, 0
3, 276224, Note_on_c, 0, 65, 78
3, 276409, Note_on_c, 0, 65, 0
3, 276441, Note_on_c, 0, 62, 60
3, 276699, Note_on_c, 0, 62, 0
3, 276893, Note_on_c, 0, 60, 85
3, 276897, Note_on_c, 0, 67, 78
3, 277148, Note_on_c, 0, 67, 0
3, 277175, Note_on_c, 0, 60, 0
3, 277368, Note_on_c, 0, 58, 82
3, 277597, Note_on_c, 0, 58, 0
3, 277690, Note_on_c, 0, 60, 82
3, 277876, Note_on_c, 0, 55, 67
3, 277898, Note_on_c, 0, 60, 0
3, 278786, Note_on_c, 0, 55, 0
3, 278839, Note_on_c, 0, 58, 56
3, 279098, Note_on_c, 0, 58, 0
3, 279144, Note_on_c, 0, 60, 49
3, 279252, Note_on_c, 0, 60, 0
3, 279319, Note_on_c, 0, 55, 37
3, 279517, Note_on_c, 0, 55, 0
3, 279657, Note_on_c, 0, 43, 52
3, 279702, Note_on_c, 0, 43, 0
3, 280737, Note_on_c, 0, 64, 50
3, 280755, Note_on_c, 0, 55, 38
3, 280765, Note_on_c, 0, 60, 41
3, 280837, Note_on_c, 0, 60, 0
3, 280858, Note_on_c, 0, 55, 0
3, 280860, Note_on_c, 0, 64, 0
3, 281529, Note_on_c, 0, 64, 44
3, 281541, Note_on_c, 0, 60, 44
3, 281562, Note_on_c, 0, 55, 34
3, 281619, Note_on_c, 0, 64, 0
3, 281649, Note_on_c, 0, 60, 0
3, 281679, Note_on_c, 0, 55, 0
3, 282160, Note_on_c, 0, 59, 32
3, 282168, Note_on_c, 0, 64, 22
3, 282244, Note_on_c, 0, 64, 0
3, 282290, Note_on_c, 0, 59, 0
3, 282643, Note_on_c, 0, 82, 82
3, 282649, Note_on_c, 0, 70, 85
3, 282944, Note_on_c, 0, 70, 0
3, 282947, Note_on_c, 0, 71, 68
3, 282953, Note_on_c, 0, 82, 0
3, 282983, Note_on_c, 0, 83, 29
3, 282997, Note_on_c, 0, 80, 1
3, 283046, Note_on_c, 0, 83, 0
3, 283048, Note_on_c, 0, 71, 0
3, 283064, Note_on_c, 0, 80, 0
3, 283158, Note_on_c, 0, 83, 51
3, 283160, Note_on_c, 0, 71, 36
3, 283292, Note_on_c, 0, 83, 0
3, 283314, Note_on_c, 0, 71, 0
3, 283404, Note_on_c, 0, 71, 68
3, 283407, Note_on_c, 0, 83, 55
3, 283523, Note_on_c, 0, 71, 0
3, 283525, Note_on_c, 0, 83, 0
3, 283620, Note_on_c, 0, 71, 46
3, 283625, Note_on_c, 0, 83, 40
3, 283732, Note_on_c, 0, 83, 0
3, 283743, Note_on_c, 0, 71, 0
3, 283876, Note_on_c, 0, 71, 60
3, 283886, Note_on_c, 0, 83, 54
3, 283972, Note_on_c, 0, 71, 0
3, 283973, Note_on_c, 0, 83, 0
3, 284074, Note_on_c, 0, 59, 33
3, 284083, Note_on_c, 0, 64, 29
3, 284089, Note_on_c, 0, 72, 64
3, 284093, Note_on_c, 0, 84, 69
3, 284105, Note_on_c, 0, 53, 20
3, 284135, Note_on_c, 0, 64, 0
3, 284141, Note_on_c, 0, 59, 0
3, 284173, Note_on_c, 0, 72, 0
3, 284183, Note_on_c, 0, 84, 0
3, 284187, Note_on_c, 0, 53, 0
3, 284555, Note_on_c, 0, 62, 68
3, 284561, Note_on_c, 0, 51, 62
3, 284563, Note_on_c, 0, 57, 57
3, 284564, Note_on_c, 0, 86, 84
3, 284568, Note_on_c, 0, 74, 87
3, 284595, Note_on_c, 0, 85, 40
3, 284632, Note_on_c, 0, 85, 0
3, 284640, Note_on_c, 0, 62, 0
3, 284652, Note_on_c, 0, 74, 0
3, 284663, Note_on_c, 0, 57, 0
3, 284671, Note_on_c, 0, 86, 0
3, 284679, Note_on_c, 0, 51, 0
3, 285042, Note_on_c, 0, 75, 93
3, 285044, Note_on_c, 0, 87, 86
3, 285046, Note_on_c, 0, 51, 83
3, 285047, Note_on_c, 0, 62, 81
3, 285049, Note_on_c, 0, 57, 76
3, 285387, Note_on_c, 0, 62, 0
3, 285422, Note_on_c, 0, 51, 0
3, 285456, Note_on_c, 0, 75, 0
3, 285474, Note_on_c, 0, 87, 0
3, 285484, Note_on_c, 0, 51, 36
3, 285502, Note_on_c, 0, 62, 51
3, 285507, Note_on_c, 0, 76, 65
3, 285516, Note_on_c, 0, 88, 56
3, 285597, Note_on_c, 0, 62, 0
3, 285622, Note_on_c, 0, 76, 0
3, 285625, Note_on_c, 0, 88, 0
3, 285713, Note_on_c, 0, 57, 0
3, 285785, Note_on_c, 0, 62, 59
3, 285799, Note_on_c, 0, 78, 61
3, 285809, Note_on_c, 0, 90, 71
3, 285811, Note_on_c, 0, 57, 27
3, 285866, Note_on_c, 0, 57, 0
3, 285869, Note_on_c, 0, 62, 0
3, 285877, Note_on_c, 0, 51, 0
3, 285885, Note_on_c, 0, 78, 0
3, 285892, Note_on_c, 0, 90, 0
3, 286004, Note_on_c, 0, 90, 46
3, 286008, Note_on_c, 0, 52, 57
3, 286008, Note_on_c, 0, 55, 63
3, 286013, Note_on_c, 0, 62, 67
3, 286019, Note_on_c, 0, 78, 53
3, 286057, Note_on_c, 0, 59, 34
3, 286171, Note_on_c, 0, 91, 36
3, 286199, Note_on_c, 0, 78, 0
3, 286203, Note_on_c, 0, 90, 0
3, 286214, Note_on_c, 0, 79, 50
3, 286217, Note_on_c, 0, 89, 35
3, 286340, Note_on_c, 0, 52, 0
3, 286348, Note_on_c, 0, 91, 0
3, 286352, Note_on_c, 0, 62, 0
3, 286353, Note_on_c, 0, 79, 0
3, 286368, Note_on_c, 0, 89, 0
3, 286379, Note_on_c, 0, 59, 0
3, 286397, Note_on_c, 0, 55, 0
3, 286499, Note_on_c, 0, 88, 59
3, 286500, Note_on_c, 0, 76, 63
3, 286511, Note_on_c, 0, 62, 35
3, 286513, Note_on_c, 0, 55, 34
3, 286526, Note_on_c, 0, 52, 29
3, 286528, Note_on_c, 0, 59, 25
3, 286771, Note_on_c, 0, 88, 0
3, 286773, Note_on_c, 0, 55, 0
3, 286782, Note_on_c, 0, 76, 0
3, 286784, Note_on_c, 0, 62, 0
3, 286786, Note_on_c, 0, 52, 0
3, 286789, Note_on_c, 0, 59, 0
3, 286994, Note_on_c, 0, 88, 55
3, 287000, Note_on_c, 0, 76, 46
3, 287016, Note_on_c, 0, 62, 32
3, 287021, Note_on_c, 0, 59, 31
3, 287022, Note_on_c, 0, 55, 42
3, 287031, Note_on_c, 0, 52, 28
3, 287184, Note_on_c, 0, 62, 0
3, 287205, Note_on_c, 0, 88, 0
3, 287206, Note_on_c, 0, 76, 0
3, 287213, Note_on_c, 0, 59, 0
3, 287257, Note_on_c, 0, 55, 0
3, 287259, Note_on_c, 0, 52, 0
3, 288449, Note_on_c, 0, 51, 75
3, 288450, Note_on_c, 0, 62, 78
3, 288453, Note_on_c, 0, 75, 87
3, 288455, Note_on_c, 0, 57, 75
3, 288456, Note_on_c, 0, 87, 83
3, 289012, Note_on_c, 0, 75, 0
3, 289040, Note_on_c, 0, 87, 0
3, 289065, Note_on_c, 0, 62, 0
3, 289074, Note_on_c, 0, 51, 0
3, 289099, Note_on_c, 0, 57, 0
3, 289220, Note_on_c, 0, 90, 83
3, 289225, Note_on_c, 0, 78, 60
3, 289229, Note_on_c, 0, 80, 64
3, 289234, Note_on_c, 0, 51, 65
3, 289236, Note_on_c, 0, 57, 67
3, 289238, Note_on_c, 0, 62, 65
3, 289339, Note_on_c, 0, 80, 0
3, 289399, Note_on_c, 0, 78, 0
3, 289405, Note_on_c, 0, 90, 0
3, 289416, Note_on_c, 0, 62, 0
3, 289501, Note_on_c, 0, 57, 0
3, 289680, Note_on_c, 0, 62, 39
3, 289731, Note_on_c, 0, 62, 0
3, 289747, Note_on_c, 0, 51, 0
3, 289885, Note_on_c, 0, 55, 66
3, 289886, Note_on_c, 0, 52, 64
3, 289887, Note_on_c, 0, 91, 78
3, 289891, Note_on_c, 0, 62, 74
3, 289892, Note_on_c, 0, 79, 68
3, 289902, Note_on_c, 0, 90, 46
3, 289918, Note_on_c, 0, 59, 60
3, 289963, Note_on_c, 0, 90, 0
3, 290188, Note_on_c, 0, 91, 0
3, 290246, Note_on_c, 0, 79, 0
3, 290358, Note_on_c, 0, 55, 0
3, 290367, Note_on_c, 0, 62, 0
3, 290419, Note_on_c, 0, 59, 0
3, 290429, Note_on_c, 0, 52, 0
3, 290661, Note_on_c, 0, 88, 61
3, 290662, Note_on_c, 0, 76, 57
3, 290677, Note_on_c, 0, 55, 49
3, 290685, Note_on_c, 0, 52, 43
3, 290701, Note_on_c, 0, 62, 25
3, 290709, Note_on_c, 0, 59, 32
3, 290812, Note_on_c, 0, 76, 0
3, 290818, Note_on_c, 0, 88, 0
3, 290841, Note_on_c, 0, 59, 0
3, 290857, Note_on_c, 0, 62, 0
3, 290881, Note_on_c, 0, 52, 0
3, 290909, Note_on_c, 0, 55, 0
3, 291323, Note_on_c, 0, 64, 61
3, 291331, Note_on_c, 0, 59, 58
3, 291334, Note_on_c, 0, 53, 49
3, 291789, Note_on_c, 0, 83, 92
3, 292009, Note_on_c, 0, 83, 0
3, 292057, Note_on_c, 0, 91, 80
3, 292136, Note_on_c, 0, 64, 0
3, 292206, Note_on_c, 0, 91, 0
3, 292233, Note_on_c, 0, 83, 50
3, 292241, Note_on_c, 0, 53, 0
3, 292258, Note_on_c, 0, 59, 0
3, 292471, Note_on_c, 0, 83, 0
3, 292500, Note_on_c, 0, 82, 69
3, 292553, Note_on_c, 0, 59, 33
3, 292568, Note_on_c, 0, 64, 24
3, 292627, Note_on_c, 0, 82, 0
3, 292630, Note_on_c, 0, 64, 0
3, 292762, Note_on_c, 0, 81, 50
3, 292769, Note_on_c, 0, 59, 0
3, 293005, Note_on_c, 0, 80, 58
3, 293019, Note_on_c, 0, 81, 0
3, 293021, Note_on_c, 0, 59, 22
3, 293028, Note_on_c, 0, 53, 27
3, 293080, Note_on_c, 0, 59, 0
3, 293152, Note_on_c, 0, 53, 0
3, 293166, Note_on_c, 0, 80, 0
3, 293202, Note_on_c, 0, 79, 38
3, 293365, Note_on_c, 0, 79, 0
3, 293449, Note_on_c, 0, 77, 54
3, 293611, Note_on_c, 0, 77, 0
3, 293637, Note_on_c, 0, 62, 35
3, 293650, Note_on_c, 0, 57, 30
3, 293660, Note_on_c, 0, 58, 32
3, 293661, Note_on_c, 0, 76, 33
3, 293666, Note_on_c, 0, 52, 31
3, 293937, Note_on_c, 0, 76, 0
3, 293941, Note_on_c, 0, 57, 0
3, 293970, Note_on_c, 0, 58, 0
3, 293972, Note_on_c, 0, 52, 0
3, 293983, Note_on_c, 0, 62, 0
3, 294477, Note_on_c, 0, 76, 83
3, 294508, Note_on_c, 0, 57, 34
3, 294525, Note_on_c, 0, 62, 29
3, 294527, Note_on_c, 0, 58, 33
3, 294586, Note_on_c, 0, 62, 0
3, 294626, Note_on_c, 0, 58, 0
3, 294640, Note_on_c, 0, 57, 0
3, 294716, Note_on_c, 0, 76, 0
3, 294758, Note_on_c, 0, 77, 33
3, 294830, Note_on_c, 0, 77, 0
3, 294839, Note_on_c, 0, 76, 57
3, 294973, Note_on_c, 0, 75, 56
3, 295020, Note_on_c, 0, 76, 0
3, 295078, Note_on_c, 0, 75, 0
3, 295155, Note_on_c, 0, 76, 65
3, 295366, Note_on_c, 0, 76, 0
3, 295428, Note_on_c, 0, 77, 78
3, 295544, Note_on_c, 0, 49, 42
3, 295546, Note_on_c, 0, 77, 0
3, 295556, Note_on_c, 0, 57, 32
3, 295616, Note_on_c, 0, 78, 67
3, 295674, Note_on_c, 0, 49, 0
3, 295705, Note_on_c, 0, 57, 0
3, 295821, Note_on_c, 0, 78, 0
3, 295892, Note_on_c, 0, 79, 74
3, 296063, Note_on_c, 0, 79, 0
3, 296095, Note_on_c, 0, 73, 38
3, 296278, Note_on_c, 0, 73, 0
3, 296587, Note_on_c, 0, 49, 32
3, 296590, Note_on_c, 0, 69, 35
3, 296594, Note_on_c, 0, 57, 30
3, 296863, Note_on_c, 0, 69, 0
3, 296865, Note_on_c, 0, 57, 0
3, 296866, Note_on_c, 0, 49, 0
3, 297323, Note_on_c, 0, 60, 46
3, 297358, Note_on_c, 0, 57, 36
3, 297365, Note_on_c, 0, 50, 24
3, 297425, Note_on_c, 0, 57, 0
3, 297440, Note_on_c, 0, 50, 0
3, 297442, Note_on_c, 0, 60, 0
3, 297824, Note_on_c, 0, 69, 60
3, 297906, Note_on_c, 0, 69, 0
3, 298012, Note_on_c, 0, 69, 35
3, 298125, Note_on_c, 0, 70, 46
3, 298186, Note_on_c, 0, 69, 0
3, 298199, Note_on_c, 0, 71, 62
3, 298201, Note_on_c, 0, 70, 0
3, 298306, Note_on_c, 0, 71, 0
3, 298344, Note_on_c, 0, 74, 84
3, 298507, Note_on_c, 0, 74, 0
3, 298539, Note_on_c, 0, 69, 24
3, 298690, Note_on_c, 0, 71, 41
3, 298691, Note_on_c, 0, 69, 0
3, 298761, Note_on_c, 0, 71, 0
3, 298778, Note_on_c, 0, 74, 73
3, 298933, Note_on_c, 0, 74, 0
3, 298955, Note_on_c, 0, 69, 42
3, 299118, Note_on_c, 0, 69, 0
3, 299134, Note_on_c, 0, 71, 29
3, 299250, Note_on_c, 0, 71, 0
3, 299265, Note_on_c, 0, 74, 74
3, 299396, Note_on_c, 0, 74, 0
3, 299402, Note_on_c, 0, 69, 36
3, 299499, Note_on_c, 0, 74, 22
3, 299514, Note_on_c, 0, 69, 0
3, 299581, Note_on_c, 0, 71, 50
3, 299638, Note_on_c, 0, 74, 0
3, 299643, Note_on_c, 0, 71, 0
3, 299649, Note_on_c, 0, 69, 41
3, 299737, Note_on_c, 0, 69, 0
3, 299785, Note_on_c, 0, 64, 58
3, 299829, Note_on_c, 0, 64, 0
3, 299955, Note_on_c, 0, 60, 17
3, 299966, Note_on_c, 0, 67, 34
3, 300225, Note_on_c, 0, 67, 0
3, 300257, Note_on_c, 0, 60, 0
3, 300293, Note_on_c, 0, 50, 39
3, 300349, Note_on_c, 0, 50, 0
3, 300352, Note_on_c, 0, 58, 69
3, 300745, Note_on_c, 0, 50, 30
3, 300765, Note_on_c, 0, 58, 0
3, 300825, Note_on_c, 0, 50, 0
3, 300865, Note_on_c, 0, 59, 69
3, 301071, Note_on_c, 0, 59, 0
3, 301170, Note_on_c, 0, 60, 70
3, 301262, Note_on_c, 0, 60, 0
3, 301284, Note_on_c, 0, 50, 29
3, 301332, Note_on_c, 0, 61, 62
3, 301395, Note_on_c, 0, 50, 0
3, 301528, Note_on_c, 0, 61, 0
3, 301639, Note_on_c, 0, 62, 65
3, 301769, Note_on_c, 0, 62, 0
3, 301828, Note_on_c, 0, 59, 55
3, 302051, Note_on_c, 0, 59, 0
3, 302165, Note_on_c, 0, 50, 24
3, 302256, Note_on_c, 0, 50, 0
3, 302294, Note_on_c, 0, 59, 63
3, 302771, Note_on_c, 0, 55, 51
3, 302899, Note_on_c, 0, 55, 0
3, 303019, Note_on_c, 0, 59, 0
3, 303082, Note_on_c, 0, 55, 55
3, 303195, Note_on_c, 0, 55, 0
3, 303273, Note_on_c, 0, 60, 71
3, 303281, Note_on_c, 0, 64, 67
3, 303518, Note_on_c, 0, 64, 0
3, 303569, Note_on_c, 0, 60, 0
3, 303595, Note_on_c, 0, 55, 36
3, 303674, Note_on_c, 0, 55, 0
3, 303770, Note_on_c, 0, 61, 64
3, 303774, Note_on_c, 0, 58, 68
3, 304113, Note_on_c, 0, 58, 0
3, 304145, Note_on_c, 0, 61, 0
3, 304240, Note_on_c, 0, 38, 35
3, 304254, Note_on_c, 0, 61, 56
3, 304255, Note_on_c, 0, 58, 71
3, 304574, Note_on_c, 0, 58, 0
3, 304598, Note_on_c, 0, 61, 0
3, 304682, Note_on_c, 0, 38, 0
3, 304734, Note_on_c, 0, 43, 87
3, 304735, Note_on_c, 0, 62, 82
3, 304736, Note_on_c, 0, 59, 88
3, 304740, Note_on_c, 0, 31, 77
3, 304740, Note_on_c, 0, 55, 88
3, 304920, Note_on_c, 0, 55, 0
3, 304964, Note_on_c, 0, 59, 0
3, 304986, Note_on_c, 0, 62, 0
3, 305052, Note_on_c, 0, 43, 0
3, 305083, Note_on_c, 0, 31, 0
3, 307525, Note_on_c, 0, 67, 51
3, 307674, Note_on_c, 0, 67, 0
3, 307750, Note_on_c, 0, 69, 65
3, 307927, Note_on_c, 0, 69, 0
3, 308004, Note_on_c, 0, 71, 80
3, 308189, Note_on_c, 0, 71, 0
3, 308238, Note_on_c, 0, 72, 64
3, 308422, Note_on_c, 0, 72, 0
3, 308491, Note_on_c, 0, 73, 58
3, 308568, Note_on_c, 0, 73, 0
3, 308712, Note_on_c, 0, 74, 55
3, 308821, Note_on_c, 0, 74, 0
3, 309156, Note_on_c, 0, 75, 71
3, 309160, Note_on_c, 0, 59, 48
3, 309162, Note_on_c, 0, 66, 77
3, 309163, Note_on_c, 0, 71, 70
3, 309962, Note_on_c, 0, 71, 0
3, 309991, Note_on_c, 0, 66, 0
3, 310009, Note_on_c, 0, 75, 0
3, 310034, Note_on_c, 0, 59, 0
3, 310054, Note_on_c, 0, 65, 53
3, 310064, Note_on_c, 0, 74, 58
3, 310070, Note_on_c, 0, 71, 52
3, 310081, Note_on_c, 0, 55, 38
3, 310676, Note_on_c, 0, 55, 0
3, 310677, Note_on_c, 0, 74, 0
3, 310696, Note_on_c, 0, 65, 0
3, 310735, Note_on_c, 0, 71, 0
3, 310933, Note_on_c, 0, 71, 62
3, 310949, Note_on_c, 0, 65, 58
3, 310951, Note_on_c, 0, 74, 61
3, 310978, Note_on_c, 0, 55, 36
3, 311700, Note_on_c, 0, 65, 0
3, 311739, Note_on_c, 0, 71, 0
3, 311783, Note_on_c, 0, 74, 0
3, 311857, Note_on_c, 0, 64, 40
3, 311874, Note_on_c, 0, 72, 40
3, 311876, Note_on_c, 0, 60, 33
3, 311884, Note_on_c, 0, 48, 38
3, 311945, Note_on_c, 0, 55, 0
3, 312623, Note_on_c, 0, 64, 0
3, 312626, Note_on_c, 0, 72, 0
3, 312763, Note_on_c, 0, 60, 0
3, 312785, Note_on_c, 0, 48, 0
3, 312803, Note_on_c, 0, 72, 74
3, 312809, Note_on_c, 0, 51, 72
3, 312813, Note_on_c, 0, 63, 83
3, 312816, Note_on_c, 0, 66, 84
3, 313523, Note_on_c, 0, 66, 0
3, 313541, Note_on_c, 0, 63, 0
3, 313626, Note_on_c, 0, 72, 0
3, 313752, Note_on_c, 0, 63, 45
3, 313763, Note_on_c, 0, 71, 51
3, 313770, Note_on_c, 0, 51, 0
3, 313770, Note_on_c, 0, 54, 46
3, 313771, Note_on_c, 0, 66, 50
3, 314364, Note_on_c, 0, 63, 0
3, 314468, Note_on_c, 0, 66, 0
3, 314529, Note_on_c, 0, 71, 0
3, 314717, Note_on_c, 0, 54, 0
3, 314739, Note_on_c, 0, 71, 42
3, 314740, Note_on_c, 0, 62, 29
3, 314751, Note_on_c, 0, 53, 37
3, 314757, Note_on_c, 0, 67, 36
3, 315601, Note_on_c, 0, 62, 0
3, 315608, Note_on_c, 0, 67, 0
3, 315712, Note_on_c, 0, 71, 0
3, 315726, Note_on_c, 0, 62, 34
3, 315731, Note_on_c, 0, 69, 48
3, 315751, Note_on_c, 0, 67, 33
3, 316228, Note_on_c, 0, 69, 0
3, 316274, Note_on_c, 0, 67, 0
3, 316451, Note_on_c, 0, 62, 0
3, 316727, Note_on_c, 0, 52, 47
3, 316728, Note_on_c, 0, 60, 39
3, 316731, Note_on_c, 0, 64, 52
3, 316733, Note_on_c, 0, 69, 41
3, 316754, Note_on_c, 0, 53, 0
3, 317514, Note_on_c, 0, 64, 0
3, 317549, Note_on_c, 0, 60, 0
3, 317610, Note_on_c, 0, 52, 0
3, 317648, Note_on_c, 0, 69, 0
3, 317680, Note_on_c, 0, 52, 41
3, 317684, Note_on_c, 0, 60, 64
3, 317695, Note_on_c, 0, 64, 62
3, 317703, Note_on_c, 0, 67, 55
3, 318356, Note_on_c, 0, 60, 0
3, 318405, Note_on_c, 0, 64, 0
3, 318557, Note_on_c, 0, 67, 0
3, 318711, Note_on_c, 0, 58, 53
3, 318714, Note_on_c, 0, 67, 48
3, 318716, Note_on_c, 0, 63, 52
3, 318726, Note_on_c, 0, 51, 42
3, 318727, Note_on_c, 0, 52, 0
3, 319144, Note_on_c, 0, 67, 0
3, 319244, Note_on_c, 0, 58, 0
3, 319490, Note_on_c, 0, 63, 0
3, 319499, Note_on_c, 0, 51, 0
3, 319604, Note_on_c, 0, 66, 49
3, 319607, Note_on_c, 0, 57, 43
3, 319608, Note_on_c, 0, 50, 57
3, 319624, Note_on_c, 0, 62, 43
3, 320125, Note_on_c, 0, 57, 0
3, 320197, Note_on_c, 0, 62, 0
3, 320252, Note_on_c, 0, 66, 0
3, 320309, Note_on_c, 0, 67, 57
3, 320311, Note_on_c, 0, 59, 57
3, 320313, Note_on_c, 0, 43, 48
3, 320313, Note_on_c, 0, 55, 53
3, 320325, Note_on_c, 0, 62, 51
3, 320357, Note_on_c, 0, 50, 0
3, 320401, Note_on_c, 0, 59, 0
3, 320433, Note_on_c, 0, 62, 0
3, 320470, Note_on_c, 0, 67, 0
3, 320478, Note_on_c, 0, 43, 0
3, 320489, Note_on_c, 0, 55, 0
3, 320939, Note_on_c, 0, 67, 71
3, 321056, Note_on_c, 0, 67, 0
3, 321130, Note_on_c, 0, 69, 64
3, 321281, Note_on_c, 0, 69, 0
3, 321347, Note_on_c, 0, 71, 77
3, 321517, Note_on_c, 0, 71, 0
3, 321571, Note_on_c, 0, 72, 64
3, 321718, Note_on_c, 0, 72, 0
3, 321782, Note_on_c, 0, 73, 52
3, 321916, Note_on_c, 0, 73, 0
3, 321970, Note_on_c, 0, 74, 69
3, 322292, Note_on_c, 0, 74, 0
3, 322399, Note_on_c, 0, 75, 52
3, 322403, Note_on_c, 0, 66, 47
3, 322419, Note_on_c, 0, 71, 55
3, 322423, Note_on_c, 0, 55, 46
3, 323150, Note_on_c, 0, 71, 0
3, 323174, Note_on_c, 0, 55, 0
3, 323306, Note_on_c, 0, 75, 0
3, 323322, Note_on_c, 0, 66, 0
3, 323382, Note_on_c, 0, 65, 38
3, 323393, Note_on_c, 0, 74, 43
3, 323405, Note_on_c, 0, 55, 45
3, 323406, Note_on_c, 0, 71, 51
3, 324127, Note_on_c, 0, 74, 0
3, 324143, Note_on_c, 0, 65, 0
3, 324149, Note_on_c, 0, 71, 0
3, 324321, Note_on_c, 0, 65, 41
3, 324333, Note_on_c, 0, 71, 44
3, 324339, Note_on_c, 0, 55, 0
3, 324345, Note_on_c, 0, 74, 41
3, 324359, Note_on_c, 0, 59, 34
3, 325034, Note_on_c, 0, 65, 0
3, 325176, Note_on_c, 0, 71, 0
3, 325193, Note_on_c, 0, 74, 0
3, 325259, Note_on_c, 0, 72, 33
3, 325272, Note_on_c, 0, 64, 42
3, 325313, Note_on_c, 0, 59, 0
3, 325335, Note_on_c, 0, 60, 29
3, 325978, Note_on_c, 0, 64, 0
3, 326081, Note_on_c, 0, 72, 0
3, 326223, Note_on_c, 0, 60, 0
3, 326235, Note_on_c, 0, 72, 69
3, 326246, Note_on_c, 0, 66, 82
3, 326247, Note_on_c, 0, 51, 54
3, 326254, Note_on_c, 0, 63, 76
3, 327064, Note_on_c, 0, 66, 0
3, 327113, Note_on_c, 0, 63, 0
3, 327179, Note_on_c, 0, 72, 0
3, 327225, Note_on_c, 0, 54, 53
3, 327227, Note_on_c, 0, 63, 42
3, 327230, Note_on_c, 0, 71, 33
3, 327246, Note_on_c, 0, 66, 55
3, 327263, Note_on_c, 0, 51, 0
3, 327859, Note_on_c, 0, 63, 0
3, 327881, Note_on_c, 0, 66, 0
3, 327990, Note_on_c, 0, 71, 0
3, 328198, Note_on_c, 0, 71, 43
3, 328217, Note_on_c, 0, 67, 36
3, 328219, Note_on_c, 0, 55, 43
3, 328226, Note_on_c, 0, 62, 18
3, 328234, Note_on_c, 0, 54, 0
3, 329167, Note_on_c, 0, 55, 0
3, 329173, Note_on_c, 0, 53, 58
3, 329187, Note_on_c, 0, 69, 54
3, 329221, Note_on_c, 0, 71, 0
3, 329687, Note_on_c, 0, 69, 0
3, 329766, Note_on_c, 0, 67, 0
3, 329885, Note_on_c, 0, 62, 0
3, 330149, Note_on_c, 0, 69, 60
3, 330150, Note_on_c, 0, 53, 0
3, 330156, Note_on_c, 0, 52, 50
3, 330165, Note_on_c, 0, 64, 48
3, 330211, Note_on_c, 0, 60, 28
3, 330951, Note_on_c, 0, 64, 0
3, 330953, Note_on_c, 0, 60, 0
3, 331079, Note_on_c, 0, 69, 0
3, 331135, Note_on_c, 0, 60, 41
3, 331144, Note_on_c, 0, 67, 37
3, 331148, Note_on_c, 0, 64, 44
3, 331682, Note_on_c, 0, 64, 0
3, 331738, Note_on_c, 0, 60, 0
3, 331866, Note_on_c, 0, 67, 0
3, 332104, Note_on_c, 0, 52, 0
3, 332117, Note_on_c, 0, 58, 36
3, 332118, Note_on_c, 0, 51, 39
3, 332119, Note_on_c, 0, 67, 40
3, 332134, Note_on_c, 0, 63, 42
3, 332476, Note_on_c, 0, 67, 0
3, 332639, Note_on_c, 0, 51, 0
3, 332763, Note_on_c, 0, 58, 0
3, 332764, Note_on_c, 0, 63, 0
3, 332856, Note_on_c, 0, 66, 42
3, 332857, Note_on_c, 0, 57, 38
3, 332866, Note_on_c, 0, 50, 42
3, 332874, Note_on_c, 0, 62, 47
3, 333030, Note_on_c, 0, 50, 0
3, 333110, Note_on_c, 0, 57, 0
3, 333146, Note_on_c, 0, 62, 0
3, 333213, Note_on_c, 0, 66, 0
3, 333555, Note_on_c, 0, 31, 51
3, 333565, Note_on_c, 0, 67, 53
3, 333566, Note_on_c, 0, 59, 49
3, 333577, Note_on_c, 0, 43, 39
3, 333582, Note_on_c, 0, 62, 44
3, 333944, Note_on_c, 0, 59, 0
3, 333958, Note_on_c, 0, 62, 0
3, 333984, Note_on_c, 0, 43, 0
3, 333985, Note_on_c, 0, 67, 0
3, 333993, Note_on_c, 0, 31, 0
3, 335006, Note_on_c, 0, 85, 53
3, 335037, Note_on_c, 0, 86, 68
3, 335107, Note_on_c, 0, 85, 0
3, 335899, Note_on_c, 0, 86, 0
3, 335997, Note_on_c, 0, 84, 51
3, 336815, Note_on_c, 0, 84, 0
3, 336856, Note_on_c, 0, 82, 45
3, 336945, Note_on_c, 0, 83, 46
3, 337093, Note_on_c, 0, 82, 0
3, 337870, Note_on_c, 0, 83, 0
3, 337887, Note_on_c, 0, 79, 27
3, 339154, Note_on_c, 0, 59, 34
3, 339166, Note_on_c, 0, 62, 25
3, 339216, Note_on_c, 0, 62, 0
3, 339229, Note_on_c, 0, 59, 0
3, 339851, Note_on_c, 0, 60, 30
3, 339854, Note_on_c, 0, 64, 23
3, 339856, Note_on_c, 0, 55, 33
3, 339942, Note_on_c, 0, 60, 0
3, 339949, Note_on_c, 0, 64, 0
3, 339965, Note_on_c, 0, 55, 0
3, 340608, Note_on_c, 0, 60, 19
3, 340668, Note_on_c, 0, 60, 0
3, 341237, Note_on_c, 0, 62, 37
3, 341238, Note_on_c, 0, 79, 0
3, 341278, Note_on_c, 0, 59, 28
3, 341292, Note_on_c, 0, 55, 23
3, 341345, Note_on_c, 0, 59, 0
3, 341346, Note_on_c, 0, 55, 0
3, 341349, Note_on_c, 0, 62, 0
3, 342065, Note_on_c, 0, 62, 38
3, 342111, Note_on_c, 0, 59, 20
3, 342155, Note_on_c, 0, 59, 0
3, 342162, Note_on_c, 0, 62, 0
3, 342755, Note_on_c, 0, 85, 90
3, 342758, Note_on_c, 0, 62, 78
3, 342767, Note_on_c, 0, 73, 77
3, 342770, Note_on_c, 0, 59, 59
3, 342832, Note_on_c, 0, 59, 0
3, 342833, Note_on_c, 0, 62, 0
3, 342965, Note_on_c, 0, 85, 0
3, 342970, Note_on_c, 0, 73, 0
3, 343048, Note_on_c, 0, 86, 73
3, 343056, Note_on_c, 0, 74, 63
3, 343480, Note_on_c, 0, 86, 0
3, 343514, Note_on_c, 0, 74, 0
3, 343660, Note_on_c, 0, 51, 34
3, 343673, Note_on_c, 0, 60, 38
3, 343683, Note_on_c, 0, 84, 65
3, 343693, Note_on_c, 0, 72, 56
3, 343734, Note_on_c, 0, 60, 0
3, 343793, Note_on_c, 0, 51, 0
3, 344204, Note_on_c, 0, 84, 0
3, 344302, Note_on_c, 0, 72, 0
3, 344434, Note_on_c, 0, 83, 40
3, 344456, Note_on_c, 0, 71, 47
3, 344460, Note_on_c, 0, 57, 43
3, 344466, Note_on_c, 0, 51, 27
3, 344475, Note_on_c, 0, 60, 28
3, 344571, Note_on_c, 0, 57, 0
3, 344608, Note_on_c, 0, 60, 0
3, 344619, Note_on_c, 0, 51, 0
3, 344904, Note_on_c, 0, 83, 0
3, 344971, Note_on_c, 0, 71, 0
3, 345119, Note_on_c, 0, 81, 38
3, 345122, Note_on_c, 0, 52, 18
3, 345136, Note_on_c, 0, 69, 33
3, 345149, Note_on_c, 0, 55, 25
3, 345160, Note_on_c, 0, 59, 20
3, 345165, Note_on_c, 0, 62, 16
3, 346143, Note_on_c, 0, 69, 0
3, 346581, Note_on_c, 0, 81, 0
3, 347014, Note_on_c, 0, 79, 22
3, 347016, Note_on_c, 0, 62, 0
3, 347042, Note_on_c, 0, 52, 0
3, 347071, Note_on_c, 0, 55, 0
3, 347084, Note_on_c, 0, 59, 0
3, 347207, Note_on_c, 0, 79, 0
3, 347509, Note_on_c, 0, 83, 93
3, 348815, Note_on_c, 0, 61, 30
3, 348816, Note_on_c, 0, 64, 43
3, 348838, Note_on_c, 0, 57, 33
3, 348864, Note_on_c, 0, 64, 0
3, 348875, Note_on_c, 0, 61, 0
3, 348894, Note_on_c, 0, 57, 0
3, 349480, Note_on_c, 0, 57, 33
3, 349571, Note_on_c, 0, 57, 0
3, 350247, Note_on_c, 0, 62, 42
3, 350270, Note_on_c, 0, 59, 23
3, 350271, Note_on_c, 0, 55, 39
3, 350292, Note_on_c, 0, 62, 0
3, 350322, Note_on_c, 0, 59, 0
3, 350331, Note_on_c, 0, 55, 0
3, 350659, Note_on_c, 0, 83, 0
3, 350905, Note_on_c, 0, 83, 114
3, 351363, Note_on_c, 0, 64, 38
3, 351364, Note_on_c, 0, 59, 46
3, 351375, Note_on_c, 0, 53, 22
3, 351823, Note_on_c, 0, 83, 0
3, 351864, Note_on_c, 0, 81, 83
3, 351894, Note_on_c, 0, 83, 27
3, 351956, Note_on_c, 0, 83, 0
3, 352217, Note_on_c, 0, 64, 0
3, 352280, Note_on_c, 0, 59, 0
3, 352293, Note_on_c, 0, 81, 0
3, 352335, Note_on_c, 0, 53, 0
3, 352591, Note_on_c, 0, 79, 70
3, 352607, Note_on_c, 0, 70, 63
3, 352612, Note_on_c, 0, 75, 71
3, 352619, Note_on_c, 0, 59, 54
3, 352624, Note_on_c, 0, 63, 50
3, 352629, Note_on_c, 0, 53, 49
3, 352911, Note_on_c, 0, 59, 0
3, 353062, Note_on_c, 0, 63, 0
3, 353063, Note_on_c, 0, 53, 0
3, 353144, Note_on_c, 0, 79, 0
3, 353174, Note_on_c, 0, 70, 0
3, 353197, Note_on_c, 0, 75, 0
3, 353268, Note_on_c, 0, 62, 35
3, 353273, Note_on_c, 0, 69, 31
3, 353275, Note_on_c, 0, 52, 32
3, 353278, Note_on_c, 0, 76, 51
3, 353291, Note_on_c, 0, 57, 44
3, 353296, Note_on_c, 0, 74, 29
3, 354242, Note_on_c, 0, 76, 0
3, 354259, Note_on_c, 0, 74, 0
3, 354342, Note_on_c, 0, 69, 0
3, 355113, Note_on_c, 0, 62, 0
3, 355175, Note_on_c, 0, 71, 112
3, 355199, Note_on_c, 0, 57, 0
3, 355334, Note_on_c, 0, 52, 0
3, 355527, Note_on_c, 0, 71, 0
3, 355651, Note_on_c, 0, 69, 70
3, 355806, Note_on_c, 0, 69, 0
3, 356119, Note_on_c, 0, 67, 66
3, 356239, Note_on_c, 0, 67, 0
3, 356624, Note_on_c, 0, 60, 25
3, 356632, Note_on_c, 0, 64, 47
3, 357598, Note_on_c, 0, 50, 26
3, 357626, Note_on_c, 0, 57, 22
3, 357818, Note_on_c, 0, 60, 0
3, 358045, Note_on_c, 0, 64, 0
3, 358102, Note_on_c, 0, 62, 55
3, 358377, Note_on_c, 0, 62, 0
3, 358421, Note_on_c, 0, 64, 55
3, 358498, Note_on_c, 0, 64, 0
3, 358873, Note_on_c, 0, 67, 96
3, 359192, Note_on_c, 0, 57, 0
3, 359343, Note_on_c, 0, 57, 32
3, 359372, Note_on_c, 0, 67, 0
3, 359496, Note_on_c, 0, 57, 0
3, 359509, Note_on_c, 0, 70, 64
3, 359800, Note_on_c, 0, 70, 0
3, 359993, Note_on_c, 0, 67, 64
3, 360091, Note_on_c, 0, 50, 0
3, 360172, Note_on_c, 0, 67, 0
3, 360261, Note_on_c, 0, 62, 59
3, 360365, Note_on_c, 0, 62, 0
3, 360451, Note_on_c, 0, 60, 53
3, 360687, Note_on_c, 0, 60, 0
3, 360739, Note_on_c, 0, 58, 61
3, 360910, Note_on_c, 0, 43, 18
3, 360920, Note_on_c, 0, 58, 0
3, 360922, Note_on_c, 0, 50, 1
3, 360953, Note_on_c, 0, 55, 25
3, 360973, Note_on_c, 0, 59, 40
3, 361388, Note_on_c, 0, 59, 0
3, 361438, Note_on_c, 0, 60, 55
3, 361544, Note_on_c, 0, 60, 0
3, 361927, Note_on_c, 0, 62, 87
3, 362255, Note_on_c, 0, 55, 0
3, 362290, Note_on_c, 0, 62, 0
3, 362398, Note_on_c, 0, 63, 56
3, 362406, Note_on_c, 0, 50, 0
3, 362562, Note_on_c, 0, 43, 0
3, 362700, Note_on_c, 0, 48, 25
3, 362747, Note_on_c, 0, 63, 0
3, 362851, Note_on_c, 0, 48, 0
3, 362866, Note_on_c, 0, 43, 19
3, 362897, Note_on_c, 0, 64, 74
3, 362976, Note_on_c, 0, 60, 16
3, 363042, Note_on_c, 0, 60, 0
3, 363092, Note_on_c, 0, 64, 0
3, 363174, Note_on_c, 0, 60, 59
3, 363188, Note_on_c, 0, 67, 64
3, 363195, Note_on_c, 0, 55, 45
3, 363221, Note_on_c, 0, 52, 27
3, 363262, Note_on_c, 0, 55, 0
3, 363291, Note_on_c, 0, 60, 0
3, 363326, Note_on_c, 0, 67, 0
3, 363397, Note_on_c, 0, 52, 0
3, 363650, Note_on_c, 0, 48, 21
3, 363757, Note_on_c, 0, 48, 0
3, 363791, Note_on_c, 0, 43, 0
3, 363810, Note_on_c, 0, 67, 71
3, 363814, Note_on_c, 0, 52, 20
3, 363824, Note_on_c, 0, 60, 64
3, 363836, Note_on_c, 0, 55, 58
3, 363870, Note_on_c, 0, 52, 0
3, 363979, Note_on_c, 0, 67, 0
3, 364081, Note_on_c, 0, 60, 0
3, 364146, Note_on_c, 0, 55, 0
3, 364186, Note_on_c, 0, 37, 30
3, 364331, Note_on_c, 0, 61, 42
3, 364337, Note_on_c, 0, 58, 33
3, 364344, Note_on_c, 0, 44, 60
3, 364363, Note_on_c, 0, 55, 28
3, 364401, Note_on_c, 0, 37, 0
3, 364610, Note_on_c, 0, 55, 0
3, 364706, Note_on_c, 0, 37, 25
3, 364708, Note_on_c, 0, 44, 0
3, 364715, Note_on_c, 0, 61, 0
3, 364724, Note_on_c, 0, 58, 0
3, 364824, Note_on_c, 0, 62, 77
3, 364826, Note_on_c, 0, 37, 0
3, 364829, Note_on_c, 0, 43, 37
3, 364833, Note_on_c, 0, 55, 67
3, 364835, Note_on_c, 0, 59, 68
3, 364926, Note_on_c, 0, 55, 0
3, 364944, Note_on_c, 0, 59, 0
3, 364980, Note_on_c, 0, 62, 0
3, 365201, Note_on_c, 0, 43, 0
3, 365310, Note_on_c, 0, 31, 69
3, 365612, Note_on_c, 0, 31, 0
3, 365612, End_track
4, 0, Start_track
4, 0, Title_t, "Acoustic Bass"
4, 0, Program_c, 1, 32
4, 3906, Note_on_c, 1, 31, 107
4, 5377, Note_on_c, 1, 37, 84
4, 5392, Note_on_c, 1, 31, 0
4, 5821, Note_on_c, 1, 37, 0
4, 5880, Note_on_c, 1, 38, 96
4, 7270, Note_on_c, 1, 30, 85
4, 7352, Note_on_c, 1, 38, 0
4, 7677, Note_on_c, 1, 30, 0
4, 7745, Note_on_c, 1, 31, 104
4, 9651, Note_on_c, 1, 31, 0
4, 9712, Note_on_c, 1, 35, 109
4, 11549, Note_on_c, 1, 35, 0
4, 11595, Note_on_c, 1, 40, 114
4, 13466, Note_on_c, 1, 40, 0
4, 13554, Note_on_c, 1, 35, 92
4, 15436, Note_on_c, 1, 35, 0
4, 15497, Note_on_c, 1, 28, 106
4, 16902, Note_on_c, 1, 29, 74
4, 16917, Note_on_c, 1, 28, 0
4, 17063, Note_on_c, 1, 29, 0
4, 17097, Note_on_c, 1, 30, 76
4, 17252, Note_on_c, 1, 30, 0
4, 17354, Note_on_c, 1, 31, 103
4, 18783, Note_on_c, 1, 43, 82
4, 18902, Note_on_c, 1, 43, 0
4, 19155, Note_on_c, 1, 31, 0
4, 19259, Note_on_c, 1, 48, 118
4, 20971, Note_on_c, 1, 43, 56
4, 21025, Note_on_c, 1, 43, 0
4, 21073, Note_on_c, 1, 48, 0
4, 21152, Note_on_c, 1, 49, 100
4, 22665, Note_on_c, 1, 37, 65
4, 22780, Note_on_c, 1, 49, 0
4, 23126, Note_on_c, 1, 37, 0
4, 23150, Note_on_c, 1, 38, 82
4, 25058, Note_on_c, 1, 50, 127
4, 25150, Note_on_c, 1, 38, 0
4, 26001, Note_on_c, 1, 50, 0
4, 26031, Note_on_c, 1, 42, 80
4, 26788, Note_on_c, 1, 39, 27
4, 26946, Note_on_c, 1, 43, 81
4, 26949, Note_on_c, 1, 39, 0
4, 26971, Note_on_c, 1, 42, 0
4, 28749, Note_on_c, 1, 42, 34
4, 28905, Note_on_c, 1, 43, 0
4, 28908, Note_on_c, 1, 48, 123
4, 28959, Note_on_c, 1, 42, 0
4, 30282, Note_on_c, 1, 41, 70
4, 30370, Note_on_c, 1, 41, 0
4, 30576, Note_on_c, 1, 42, 85
4, 30643, Note_on_c, 1, 48, 0
4, 30685, Note_on_c, 1, 42, 0
4, 30783, Note_on_c, 1, 43, 85
4, 31246, Note_on_c, 1, 50, 123
4, 31258, Note_on_c, 1, 43, 0
4, 31618, Note_on_c, 1, 50, 0
4, 31741, Note_on_c, 1, 50, 98
4, 32233, Note_on_c, 1, 38, 88
4, 32372, Note_on_c, 1, 50, 0
4, 32607, Note_on_c, 1, 38, 0
4, 32690, Note_on_c, 1, 38, 100
4, 33645, Note_on_c, 1, 50, 110
4, 33729, Note_on_c, 1, 38, 0
4, 34143, Note_on_c, 1, 38, 67
4, 34293, Note_on_c, 1, 50, 0
4, 34615, Note_on_c, 1, 43, 103
4, 34706, Note_on_c, 1, 38, 0
4, 36462, Note_on_c, 1, 43, 0
4, 36536, Note_on_c, 1, 38, 96
4, 38425, Note_on_c, 1, 38, 0
4, 38469, Note_on_c, 1, 31, 104
4, 39789, Note_on_c, 1, 31, 0
4, 39926, Note_on_c, 1, 33, 48
4, 40137, Note_on_c, 1, 33, 0
4, 40173, Note_on_c, 1, 34, 67
4, 40282, Note_on_c, 1, 34, 0
4, 40387, Note_on_c, 1, 35, 91
4, 41729, Note_on_c, 1, 35, 0
4, 41802, Note_on_c, 1, 38, 52
4, 41961, Note_on_c, 1, 38, 0
4, 42070, Note_on_c, 1, 39, 70
4, 42189, Note_on_c, 1, 39, 0
4, 42309, Note_on_c, 1, 40, 97
4, 44187, Note_on_c, 1, 40, 0
4, 44223, Note_on_c, 1, 35, 88
4, 46119, Note_on_c, 1, 35, 0
4, 46129, Note_on_c, 1, 40, 100
4, 47903, Note_on_c, 1, 39, 67
4, 47915, Note_on_c, 1, 40, 0
4, 48040, Note_on_c, 1, 39, 0
4, 48078, Note_on_c, 1, 43, 93
4, 49001, Note_on_c, 1, 43, 0
4, 49031, Note_on_c, 1, 31, 96
4, 49930, Note_on_c, 1, 31, 0
4, 49961, Note_on_c, 1, 36, 104
4, 51830, Note_on_c, 1, 36, 0
4, 51871, Note_on_c, 1, 37, 95
4, 53289, Note_on_c, 1, 37, 0
4, 53329, Note_on_c, 1, 36, 37
4, 53440, Note_on_c, 1, 36, 0
4, 53557, Note_on_c, 1, 37, 67
4, 53716, Note_on_c, 1, 37, 0
4, 53786, Note_on_c, 1, 38, 103
4, 55286, Note_on_c, 1, 52, 44
4, 55422, Note_on_c, 1, 52, 0
4, 55521, Note_on_c, 1, 53, 77
4, 55639, Note_on_c, 1, 53, 0
4, 55754, Note_on_c, 1, 54, 94
4, 56122, Note_on_c, 1, 38, 0
4, 56681, Note_on_c, 1, 42, 63
4, 56728, Note_on_c, 1, 54, 0
4, 56935, Note_on_c, 1, 42, 0
4, 57242, Note_on_c, 1, 43, 91
4, 58016, Note_on_c, 1, 43, 0
4, 58175, Note_on_c, 1, 43, 66
4, 58652, Note_on_c, 1, 43, 0
4, 58682, Note_on_c, 1, 38, 78
4, 59106, Note_on_c, 1, 38, 0
4, 59209, Note_on_c, 1, 38, 76
4, 59575, Note_on_c, 1, 38, 0
4, 59637, Note_on_c, 1, 36, 93
4, 60933, Note_on_c, 1, 36, 0
4, 61057, Note_on_c, 1, 31, 68
4, 64097, Note_on_c, 1, 31, 0
4, 65264, Note_on_c, 1, 31, 68
4, 66129, Note_on_c, 1, 31, 0
4, 66206, Note_on_c, 1, 35, 75
4, 67038, Note_on_c, 1, 35, 0
4, 67163, Note_on_c, 1, 35, 78
4, 68077, Note_on_c, 1, 35, 0
4, 68113, Note_on_c, 1, 36, 80
4, 69107, Note_on_c, 1, 39, 77
4, 69158, Note_on_c, 1, 36, 0
4, 70061, Note_on_c, 1, 42, 67
4, 70065, Note_on_c, 1, 39, 0
4, 71005, Note_on_c, 1, 41, 78
4, 71008, Note_on_c, 1, 42, 0
4, 72915, Note_on_c, 1, 41, 0
4, 72955, Note_on_c, 1, 40, 83
4, 74864, Note_on_c, 1, 39, 83
4, 74919, Note_on_c, 1, 40, 0
4, 75811, Note_on_c, 1, 39, 0
4, 75858, Note_on_c, 1, 38, 72
4, 76585, Note_on_c, 1, 31, 82
4, 76649, Note_on_c, 1, 38, 0
4, 77949, Note_on_c, 1, 31, 0
4, 78720, Note_on_c, 1, 31, 79
4, 79572, Note_on_c, 1, 31, 0
4, 79652, Note_on_c, 1, 31, 73
4, 80587, Note_on_c, 1, 35, 76
4, 80602, Note_on_c, 1, 31, 0
4, 81536, Note_on_c, 1, 35, 0
4, 81543, Note_on_c, 1, 36, 82
4, 82548, Note_on_c, 1, 39, 77
4, 82556, Note_on_c, 1, 36, 0
4, 83527, Note_on_c, 1, 42, 71
4, 83592, Note_on_c, 1, 39, 0
4, 84423, Note_on_c, 1, 42, 0
4, 84514, Note_on_c, 1, 41, 74
4, 86426, Note_on_c, 1, 40, 80
4, 86493, Note_on_c, 1, 41, 0
4, 87337, Note_on_c, 1, 40, 0
4, 87427, Note_on_c, 1, 40, 71
4, 88299, Note_on_c, 1, 40, 0
4, 88341, Note_on_c, 1, 39, 79
4, 89129, Note_on_c, 1, 38, 68
4, 89193, Note_on_c, 1, 39, 0
4, 89770, Note_on_c, 1, 31, 89
4, 89867, Note_on_c, 1, 38, 0
4, 92054, Note_on_c, 1, 31, 0
4, 94096, Note_on_c, 1, 31, 64
4, 95442, Note_on_c, 1, 31, 0
4, 95505, Note_on_c, 1, 34, 32
4, 95671, Note_on_c, 1, 34, 0
4, 95790, Note_on_c, 1, 35, 61
4, 95959, Note_on_c, 1, 35, 0
4, 96008, Note_on_c, 1, 36, 100
4, 97411, Note_on_c, 1, 36, 0
4, 97517, Note_on_c, 1, 30, 38
4, 97704, Note_on_c, 1, 30, 0
4, 98000, Note_on_c, 1, 31, 67
4, 98710, Note_on_c, 1, 38, 25
4, 98807, Note_on_c, 1, 31, 0
4, 98817, Note_on_c, 1, 38, 0
4, 98893, Note_on_c, 1, 43, 101
4, 101128, Note_on_c, 1, 43, 0
4, 101257, Note_on_c, 1, 38, 72
4, 101399, Note_on_c, 1, 38, 0
4, 101556, Note_on_c, 1, 35, 70
4, 101703, Note_on_c, 1, 35, 0
4, 102164, Note_on_c, 1, 40, 76
4, 102317, Note_on_c, 1, 40, 0
4, 102718, Note_on_c, 1, 40, 85
4, 103141, Note_on_c, 1, 40, 0
4, 103210, Note_on_c, 1, 35, 53
4, 103649, Note_on_c, 1, 35, 0
4, 103745, Note_on_c, 1, 35, 23
4, 103896, Note_on_c, 1, 35, 0
4, 104262, Note_on_c, 1, 35, 87
4, 105106, Note_on_c, 1, 35, 0
4, 105202, Note_on_c, 1, 35, 89
4, 105680, Note_on_c, 1, 40, 97
4, 105772, Note_on_c, 1, 35, 0
4, 107079, Note_on_c, 1, 42, 67
4, 107117, Note_on_c, 1, 40, 0
4, 107534, Note_on_c, 1, 42, 0
4, 107571, Note_on_c, 1, 43, 92
4, 108406, Note_on_c, 1, 43, 0
4, 108492, Note_on_c, 1, 35, 95
4, 109394, Note_on_c, 1, 35, 0
4, 109434, Note_on_c, 1, 36, 101
4, 111276, Note_on_c, 1, 36, 0
4, 111394, Note_on_c, 1, 37, 94
4, 113084, Note_on_c, 1, 34, 33
4, 113172, Note_on_c, 1, 37, 0
4, 113254, Note_on_c, 1, 38, 82
4, 113328, Note_on_c, 1, 34, 0
4, 115212, Note_on_c, 1, 42, 88
4, 115295, Note_on_c, 1, 38, 0
4, 116921, Note_on_c, 1, 42, 0
4, 116933, Note_on_c, 1, 38, 61
4, 117078, Note_on_c, 1, 38, 0
4, 117130, Note_on_c, 1, 43, 70
4, 117256, Note_on_c, 1, 43, 0
4, 117621, Note_on_c, 1, 43, 77
4, 118457, Note_on_c, 1, 43, 0
4, 118563, Note_on_c, 1, 34, 48
4, 118753, Note_on_c, 1, 34, 0
4, 118825, Note_on_c, 1, 35, 73
4, 118991, Note_on_c, 1, 35, 0
4, 119052, Note_on_c, 1, 36, 98
4, 119963, Note_on_c, 1, 36, 0
4, 120024, Note_on_c, 1, 30, 82
4, 120889, Note_on_c, 1, 30, 0
4, 120974, Note_on_c, 1, 31, 106
4, 121572, Note_on_c, 1, 31, 0
4, 121972, Note_on_c, 1, 38, 89
4, 124410, Note_on_c, 1, 38, 0
4, 124626, Note_on_c, 1, 38, 74
4, 124765, Note_on_c, 1, 38, 0
4, 124798, Note_on_c, 1, 31, 79
4, 125799, Note_on_c, 1, 38, 84
4, 125817, Note_on_c, 1, 31, 0
4, 126688, Note_on_c, 1, 38, 0
4, 126767, Note_on_c, 1, 50, 89
4, 127202, Note_on_c, 1, 50, 0
4, 127262, Note_on_c, 1, 50, 88
4, 127732, Note_on_c, 1, 38, 68
4, 127800, Note_on_c, 1, 50, 0
4, 128629, Note_on_c, 1, 43, 71
4, 128666, Note_on_c, 1, 38, 0
4, 129562, Note_on_c, 1, 43, 0
4, 129564, Note_on_c, 1, 31, 74
4, 130498, Note_on_c, 1, 35, 76
4, 130505, Note_on_c, 1, 31, 0
4, 131475, Note_on_c, 1, 35, 0
4, 131549, Note_on_c, 1, 35, 73
4, 132467, Note_on_c, 1, 40, 74
4, 132474, Note_on_c, 1, 35, 0
4, 133362, Note_on_c, 1, 28, 80
4, 133371, Note_on_c, 1, 40, 0
4, 134360, Note_on_c, 1, 35, 78
4, 134392, Note_on_c, 1, 28, 0
4, 135353, Note_on_c, 1, 30, 69
4, 135413, Note_on_c, 1, 35, 0
4, 136252, Note_on_c, 1, 30, 0
4, 136273, Note_on_c, 1, 28, 69
4, 137184, Note_on_c, 1, 28, 0
4, 137243, Note_on_c, 1, 28, 84
4, 138066, Note_on_c, 1, 30, 59
4, 138115, Note_on_c, 1, 28, 0
4, 138188, Note_on_c, 1, 30, 0
4, 138214, Note_on_c, 1, 31, 61
4, 138220, Note_on_c, 1, 29, 69
4, 138321, Note_on_c, 1, 29, 0
4, 139121, Note_on_c, 1, 43, 79
4, 139276, Note_on_c, 1, 31, 0
4, 139857, Note_on_c, 1, 35, 48
4, 139960, Note_on_c, 1, 43, 0
4, 140015, Note_on_c, 1, 35, 0
4, 140074, Note_on_c, 1, 36, 81
4, 141040, Note_on_c, 1, 36, 0
4, 141103, Note_on_c, 1, 36, 82
4, 142050, Note_on_c, 1, 37, 82
4, 142100, Note_on_c, 1, 36, 0
4, 142972, Note_on_c, 1, 37, 0
4, 143037, Note_on_c, 1, 37, 86
4, 143949, Note_on_c, 1, 38, 81
4, 143966, Note_on_c, 1, 37, 0
4, 144907, Note_on_c, 1, 50, 95
4, 145151, Note_on_c, 1, 38, 0
4, 145244, Note_on_c, 1, 49, 62
4, 145246, Note_on_c, 1, 50, 0
4, 145375, Note_on_c, 1, 49, 0
4, 145417, Note_on_c, 1, 50, 71
4, 145889, Note_on_c, 1, 38, 79
4, 145943, Note_on_c, 1, 50, 0
4, 146879, Note_on_c, 1, 30, 77
4, 146894, Note_on_c, 1, 38, 0
4, 147797, Note_on_c, 1, 30, 0
4, 147846, Note_on_c, 1, 31, 76
4, 148784, Note_on_c, 1, 35, 76
4, 148826, Note_on_c, 1, 31, 0
4, 149560, Note_on_c, 1, 31, 58
4, 149591, Note_on_c, 1, 35, 0
4, 149713, Note_on_c, 1, 31, 0
4, 149725, Note_on_c, 1, 36, 84
4, 150658, Note_on_c, 1, 30, 78
4, 150669, Note_on_c, 1, 36, 0
4, 151675, Note_on_c, 1, 30, 0
4, 151719, Note_on_c, 1, 31, 73
4, 152176, Note_on_c, 1, 50, 79
4, 152468, Note_on_c, 1, 49, 62
4, 152493, Note_on_c, 1, 50, 0
4, 152580, Note_on_c, 1, 49, 0
4, 152587, Note_on_c, 1, 31, 0
4, 152647, Note_on_c, 1, 50, 82
4, 153541, Note_on_c, 1, 38, 78
4, 153560, Note_on_c, 1, 50, 0
4, 154533, Note_on_c, 1, 30, 78
4, 154540, Note_on_c, 1, 38, 0
4, 155467, Note_on_c, 1, 30, 0
4, 155509, Note_on_c, 1, 31, 76
4, 156434, Note_on_c, 1, 38, 91
4, 156531, Note_on_c, 1, 31, 0
4, 157301, Note_on_c, 1, 38, 0
4, 157397, Note_on_c, 1, 38, 83
4, 158352, Note_on_c, 1, 38, 0
4, 158389, Note_on_c, 1, 38, 62
4, 159300, Note_on_c, 1, 31, 70
4, 159420, Note_on_c, 1, 38, 0
4, 160260, Note_on_c, 1, 43, 92
4, 160344, Note_on_c, 1, 31, 0
4, 161202, Note_on_c, 1, 43, 0
4, 161231, Note_on_c, 1, 35, 78
4, 162152, Note_on_c, 1, 35, 0
4, 162197, Note_on_c, 1, 29, 82
4, 163136, Note_on_c, 1, 29, 0
4, 163175, Note_on_c, 1, 28, 74
4, 163222, Note_on_c, 1, 29, 34
4, 163266, Note_on_c, 1, 29, 0
4, 164115, Note_on_c, 1, 40, 80
4, 164231, Note_on_c, 1, 28, 0
4, 165078, Note_on_c, 1, 35, 77
4, 165152, Note_on_c, 1, 40, 0
4, 166038, Note_on_c, 1, 47, 96
4, 166391, Note_on_c, 1, 35, 0
4, 167007, Note_on_c, 1, 47, 0
4, 167019, Note_on_c, 1, 40, 85
4, 167785, Note_on_c, 1, 35, 51
4, 167843, Note_on_c, 1, 40, 0
4, 167845, Note_on_c, 1, 35, 0
4, 167920, Note_on_c, 1, 35, 73
4, 168846, Note_on_c, 1, 35, 0
4, 168872, Note_on_c, 1, 31, 77
4, 169642, Note_on_c, 1, 43, 76
4, 169738, Note_on_c, 1, 43, 0
4, 169844, Note_on_c, 1, 43, 88
4, 169858, Note_on_c, 1, 31, 0
4, 170808, Note_on_c, 1, 43, 0
4, 170843, Note_on_c, 1, 36, 81
4, 171685, Note_on_c, 1, 36, 0
4, 171771, Note_on_c, 1, 36, 78
4, 172760, Note_on_c, 1, 36, 0
4, 172767, Note_on_c, 1, 37, 80
4, 173718, Note_on_c, 1, 49, 85
4, 174039, Note_on_c, 1, 37, 0
4, 174601, Note_on_c, 1, 49, 0
4, 174672, Note_on_c, 1, 50, 89
4, 175434, Note_on_c, 1, 38, 71
4, 175531, Note_on_c, 1, 38, 0
4, 175596, Note_on_c, 1, 50, 0
4, 175618, Note_on_c, 1, 38, 75
4, 176539, Note_on_c, 1, 38, 0
4, 176570, Note_on_c, 1, 30, 69
4, 177462, Note_on_c, 1, 30, 0
4, 177539, Note_on_c, 1, 30, 74
4, 178435, Note_on_c, 1, 30, 0
4, 178491, Note_on_c, 1, 31, 80
4, 179386, Note_on_c, 1, 31, 0
4, 179447, Note_on_c, 1, 31, 80
4, 180411, Note_on_c, 1, 43, 94
4, 180509, Note_on_c, 1, 31, 0
4, 181255, Note_on_c, 1, 33, 15
4, 181292, Note_on_c, 1, 43, 0
4, 181318, Note_on_c, 1, 33, 0
4, 181391, Note_on_c, 1, 43, 80
4, 181889, Note_on_c, 1, 30, 60
4, 181893, Note_on_c, 1, 43, 0
4, 182327, Note_on_c, 1, 30, 0
4, 182382, Note_on_c, 1, 31, 74
4, 183836, Note_on_c, 1, 38, 101
4, 184116, Note_on_c, 1, 38, 0
4, 184311, Note_on_c, 1, 38, 101
4, 184370, Note_on_c, 1, 31, 0
4, 185138, Note_on_c, 1, 38, 0
4, 185264, Note_on_c, 1, 38, 87
4, 185710, Note_on_c, 1, 38, 0
4, 185745, Note_on_c, 1, 30, 60
4, 186191, Note_on_c, 1, 30, 0
4, 186236, Note_on_c, 1, 31, 80
4, 187144, Note_on_c, 1, 38, 95
4, 187203, Note_on_c, 1, 31, 0
4, 188124, Note_on_c, 1, 50, 81
4, 188522, Note_on_c, 1, 50, 0
4, 188606, Note_on_c, 1, 50, 83
4, 189053, Note_on_c, 1, 38, 0
4, 189092, Note_on_c, 1, 30, 72
4, 189098, Note_on_c, 1, 50, 0
4, 189557, Note_on_c, 1, 30, 0
4, 189600, Note_on_c, 1, 31, 81
4, 191021, Note_on_c, 1, 38, 83
4, 191084, Note_on_c, 1, 31, 0
4, 191918, Note_on_c, 1, 38, 0
4, 191923, Note_on_c, 1, 35, 69
4, 192939, Note_on_c, 1, 47, 88
4, 193043, Note_on_c, 1, 35, 0
4, 193869, Note_on_c, 1, 47, 0
4, 193876, Note_on_c, 1, 40, 73
4, 194828, Note_on_c, 1, 35, 71
4, 194829, Note_on_c, 1, 40, 0
4, 195778, Note_on_c, 1, 35, 0
4, 195847, Note_on_c, 1, 35, 74
4, 196716, Note_on_c, 1, 35, 0
4, 196798, Note_on_c, 1, 35, 70
4, 197737, Note_on_c, 1, 28, 79
4, 197799, Note_on_c, 1, 35, 0
4, 198668, Note_on_c, 1, 28, 0
4, 198691, Note_on_c, 1, 30, 75
4, 199603, Note_on_c, 1, 30, 0
4, 199648, Note_on_c, 1, 31, 81
4, 200604, Note_on_c, 1, 43, 95
4, 200899, Note_on_c, 1, 31, 0
4, 201573, Note_on_c, 1, 36, 83
4, 201590, Note_on_c, 1, 43, 0
4, 202544, Note_on_c, 1, 48, 91
4, 202662, Note_on_c, 1, 36, 0
4, 203473, Note_on_c, 1, 48, 0
4, 203507, Note_on_c, 1, 49, 82
4, 203626, Note_on_c, 1, 50, 51
4, 204448, Note_on_c, 1, 37, 83
4, 204465, Note_on_c, 1, 50, 0
4, 204473, Note_on_c, 1, 49, 0
4, 205397, Note_on_c, 1, 38, 90
4, 205456, Note_on_c, 1, 37, 0
4, 206347, Note_on_c, 1, 30, 74
4, 206362, Note_on_c, 1, 38, 0
4, 207307, Note_on_c, 1, 33, 79
4, 207308, Note_on_c, 1, 30, 0
4, 208149, Note_on_c, 1, 30, 19
4, 208263, Note_on_c, 1, 30, 0
4, 208273, Note_on_c, 1, 33, 0
4, 208279, Note_on_c, 1, 38, 73
4, 208736, Note_on_c, 1, 38, 0
4, 208778, Note_on_c, 1, 30, 70
4, 209221, Note_on_c, 1, 30, 0
4, 209248, Note_on_c, 1, 31, 75
4, 210194, Note_on_c, 1, 43, 90
4, 210287, Note_on_c, 1, 31, 0
4, 210952, Note_on_c, 1, 31, 57
4, 211091, Note_on_c, 1, 43, 0
4, 211122, Note_on_c, 1, 31, 0
4, 211172, Note_on_c, 1, 36, 71
4, 212120, Note_on_c, 1, 30, 78
4, 212146, Note_on_c, 1, 36, 0
4, 213076, Note_on_c, 1, 30, 0
4, 213108, Note_on_c, 1, 31, 72
4, 213607, Note_on_c, 1, 50, 101
4, 213917, Note_on_c, 1, 31, 0
4, 214497, Note_on_c, 1, 38, 89
4, 214561, Note_on_c, 1, 50, 0
4, 214918, Note_on_c, 1, 38, 0
4, 214980, Note_on_c, 1, 38, 87
4, 215416, Note_on_c, 1, 38, 0
4, 215479, Note_on_c, 1, 38, 85
4, 216425, Note_on_c, 1, 38, 0
4, 216437, Note_on_c, 1, 30, 78
4, 216908, Note_on_c, 1, 30, 0
4, 216949, Note_on_c, 1, 31, 83
4, 217856, Note_on_c, 1, 43, 99
4, 218224, Note_on_c, 1, 31, 0
4, 218606, Note_on_c, 1, 31, 53
4, 218760, Note_on_c, 1, 31, 0
4, 218779, Note_on_c, 1, 43, 0
4, 218793, Note_on_c, 1, 38, 74
4, 219709, Note_on_c, 1, 38, 0
4, 219780, Note_on_c, 1, 38, 79
4, 220647, Note_on_c, 1, 38, 0
4, 220692, Note_on_c, 1, 31, 75
4, 221557, Note_on_c, 1, 31, 0
4, 221663, Note_on_c, 1, 31, 77
4, 222639, Note_on_c, 1, 31, 0
4, 222657, Note_on_c, 1, 35, 75
4, 223635, Note_on_c, 1, 47, 88
4, 224056, Note_on_c, 1, 35, 0
4, 224389, Note_on_c, 1, 35, 33
4, 224534, Note_on_c, 1, 35, 0
4, 224575, Note_on_c, 1, 47, 0
4, 224583, Note_on_c, 1, 40, 76
4, 225547, Note_on_c, 1, 40, 0
4, 225552, Note_on_c, 1, 35, 75
4, 226331, Note_on_c, 1, 34, 68
4, 226333, Note_on_c, 1, 35, 0
4, 226438, Note_on_c, 1, 34, 0
4, 226487, Note_on_c, 1, 35, 80
4, 227492, Note_on_c, 1, 47, 80
4, 227505, Note_on_c, 1, 35, 0
4, 227929, Note_on_c, 1, 47, 0
4, 227958, Note_on_c, 1, 39, 67
4, 228419, Note_on_c, 1, 39, 0
4, 228441, Note_on_c, 1, 40, 76
4, 229323, Note_on_c, 1, 40, 0
4, 229341, Note_on_c, 1, 32, 83
4, 230244, Note_on_c, 1, 32, 0
4, 230317, Note_on_c, 1, 31, 80
4, 230359, Note_on_c, 1, 32, 38
4, 230397, Note_on_c, 1, 32, 0
4, 231289, Note_on_c, 1, 43, 90
4, 231486, Note_on_c, 1, 31, 0
4, 232287, Note_on_c, 1, 36, 81
4, 232291, Note_on_c, 1, 43, 0
4, 233229, Note_on_c, 1, 48, 85
4, 234073, Note_on_c, 1, 34, 23
4, 234154, Note_on_c, 1, 48, 0
4, 234164, Note_on_c, 1, 36, 0
4, 234208, Note_on_c, 1, 49, 70
4, 234216, Note_on_c, 1, 34, 0
4, 234520, Note_on_c, 1, 38, 58
4, 234548, Note_on_c, 1, 49, 0
4, 234590, Note_on_c, 1, 38, 0
4, 234687, Note_on_c, 1, 37, 75
4, 235569, Note_on_c, 1, 37, 0
4, 235633, Note_on_c, 1, 37, 83
4, 236074, Note_on_c, 1, 37, 0
4, 236105, Note_on_c, 1, 38, 81
4, 237010, Note_on_c, 1, 38, 0
4, 237072, Note_on_c, 1, 38, 85
4, 237935, Note_on_c, 1, 38, 0
4, 238004, Note_on_c, 1, 33, 81
4, 238910, Note_on_c, 1, 33, 0
4, 238950, Note_on_c, 1, 30, 73
4, 239884, Note_on_c, 1, 30, 0
4, 239936, Note_on_c, 1, 31, 75
4, 240913, Note_on_c, 1, 38, 80
4, 241004, Note_on_c, 1, 31, 0
4, 241672, Note_on_c, 1, 31, 60
4, 241768, Note_on_c, 1, 31, 0
4, 241789, Note_on_c, 1, 38, 0
4, 241852, Note_on_c, 1, 36, 74
4, 242727, Note_on_c, 1, 31, 22
4, 242734, Note_on_c, 1, 36, 0
4, 242773, Note_on_c, 1, 31, 0
4, 242840, Note_on_c, 1, 36, 70
4, 243312, Note_on_c, 1, 36, 0
4, 243322, Note_on_c, 1, 30, 67
4, 243722, Note_on_c, 1, 30, 0
4, 243777, Note_on_c, 1, 31, 78
4, 244717, Note_on_c, 1, 38, 92
4, 244725, Note_on_c, 1, 31, 0
4, 245697, Note_on_c, 1, 50, 94
4, 245945, Note_on_c, 1, 50, 0
4, 246218, Note_on_c, 1, 50, 101
4, 246280, Note_on_c, 1, 38, 0
4, 247180, Note_on_c, 1, 38, 71
4, 247226, Note_on_c, 1, 50, 0
4, 247299, Note_on_c, 1, 38, 0
4, 247469, Note_on_c, 1, 38, 69
4, 247600, Note_on_c, 1, 38, 0
4, 247671, Note_on_c, 1, 31, 79
4, 248569, Note_on_c, 1, 31, 0
4, 248637, Note_on_c, 1, 31, 77
4, 249594, Note_on_c, 1, 31, 0
4, 249621, Note_on_c, 1, 38, 77
4, 250419, Note_on_c, 1, 32, 25
4, 250542, Note_on_c, 1, 50, 90
4, 250580, Note_on_c, 1, 32, 0
4, 250612, Note_on_c, 1, 38, 0
4, 251031, Note_on_c, 1, 38, 57
4, 251088, Note_on_c, 1, 50, 0
4, 251136, Note_on_c, 1, 38, 0
4, 251296, Note_on_c, 1, 38, 74
4, 251445, Note_on_c, 1, 38, 0
4, 251494, Note_on_c, 1, 31, 82
4, 252437, Note_on_c, 1, 38, 84
4, 252488, Note_on_c, 1, 31, 0
4, 253154, Note_on_c, 1, 34, 70
4, 253209, Note_on_c, 1, 38, 0
4, 253280, Note_on_c, 1, 34, 0
4, 253360, Note_on_c, 1, 35, 74
4, 254350, Note_on_c, 1, 47, 91
4, 254408, Note_on_c, 1, 35, 0
4, 255143, Note_on_c, 1, 35, 60
4, 255310, Note_on_c, 1, 47, 0
4, 255322, Note_on_c, 1, 35, 0
4, 255346, Note_on_c, 1, 40, 78
4, 256087, Note_on_c, 1, 35, 66
4, 256113, Note_on_c, 1, 40, 0
4, 256217, Note_on_c, 1, 35, 0
4, 256270, Note_on_c, 1, 28, 75
4, 256288, Note_on_c, 1, 29, 56
4, 256387, Note_on_c, 1, 29, 0
4, 257693, Note_on_c, 1, 28, 0
4, 257720, Note_on_c, 1, 35, 84
4, 258650, Note_on_c, 1, 35, 0
4, 258669, Note_on_c, 1, 30, 64
4, 259162, Note_on_c, 1, 30, 0
4, 259180, Note_on_c, 1, 31, 80
4, 260150, Note_on_c, 1, 43, 91
4, 260257, Note_on_c, 1, 31, 0
4, 260920, Note_on_c, 1, 31, 51
4, 260929, Note_on_c, 1, 43, 0
4, 261076, Note_on_c, 1, 43, 91
4, 261081, Note_on_c, 1, 31, 0
4, 262011, Note_on_c, 1, 35, 75
4, 262020, Note_on_c, 1, 43, 0
4, 262955, Note_on_c, 1, 35, 0
4, 262980, Note_on_c, 1, 36, 82
4, 263890, Note_on_c, 1, 36, 0
4, 263956, Note_on_c, 1, 36, 78
4, 264852, Note_on_c, 1, 36, 0
4, 264886, Note_on_c, 1, 37, 77
4, 265837, Note_on_c, 1, 37, 0
4, 265859, Note_on_c, 1, 33, 76
4, 266810, Note_on_c, 1, 33, 0
4, 266821, Note_on_c, 1, 38, 79
4, 267780, Note_on_c, 1, 50, 87
4, 268507, Note_on_c, 1, 38, 0
4, 268753, Note_on_c, 1, 38, 79
4, 269695, Note_on_c, 1, 38, 0
4, 269716, Note_on_c, 1, 30, 72
4, 269751, Note_on_c, 1, 50, 0
4, 270682, Note_on_c, 1, 30, 0
4, 270697, Note_on_c, 1, 31, 71
4, 271655, Note_on_c, 1, 47, 94
4, 272119, Note_on_c, 1, 31, 0
4, 272432, Note_on_c, 1, 31, 63
4, 272555, Note_on_c, 1, 47, 0
4, 272609, Note_on_c, 1, 31, 0
4, 272629, Note_on_c, 1, 48, 87
4, 273086, Note_on_c, 1, 48, 0
4, 273108, Note_on_c, 1, 36, 80
4, 274016, Note_on_c, 1, 36, 0
4, 274047, Note_on_c, 1, 30, 59
4, 274480, Note_on_c, 1, 30, 0
4, 274520, Note_on_c, 1, 31, 71
4, 275479, Note_on_c, 1, 38, 84
4, 275540, Note_on_c, 1, 31, 0
4, 276444, Note_on_c, 1, 50, 92
4, 276490, Note_on_c, 1, 38, 0
4, 277217, Note_on_c, 1, 38, 68
4, 277302, Note_on_c, 1, 38, 0
4, 277393, Note_on_c, 1, 50, 0
4, 277406, Note_on_c, 1, 38, 65
4, 277821, Note_on_c, 1, 38, 0
4, 277865, Note_on_c, 1, 30, 60
4, 278321, Note_on_c, 1, 30, 0
4, 278378, Note_on_c, 1, 31, 76
4, 279300, Note_on_c, 1, 38, 74
4, 279326, Note_on_c, 1, 31, 0
4, 280054, Note_on_c, 1, 37, 67
4, 280082, Note_on_c, 1, 38, 0
4, 280248, Note_on_c, 1, 38, 74
4, 280250, Note_on_c, 1, 37, 0
4, 280735, Note_on_c, 1, 54, 72
4, 281475, Note_on_c, 1, 37, 38
4, 281579, Note_on_c, 1, 38, 0
4, 281585, Note_on_c, 1, 37, 0
4, 281625, Note_on_c, 1, 54, 0
4, 281657, Note_on_c, 1, 42, 69
4, 282081, Note_on_c, 1, 42, 0
4, 282124, Note_on_c, 1, 43, 77
4, 283080, Note_on_c, 1, 43, 0
4, 283114, Note_on_c, 1, 38, 79
4, 284088, Note_on_c, 1, 38, 0
4, 284118, Note_on_c, 1, 35, 71
4, 285069, Note_on_c, 1, 47, 80
4, 285115, Note_on_c, 1, 35, 0
4, 285849, Note_on_c, 1, 35, 59
4, 285955, Note_on_c, 1, 47, 0
4, 285976, Note_on_c, 1, 35, 0
4, 286029, Note_on_c, 1, 28, 80
4, 287007, Note_on_c, 1, 35, 78
4, 287088, Note_on_c, 1, 28, 0
4, 287931, Note_on_c, 1, 35, 0
4, 287995, Note_on_c, 1, 35, 78
4, 289359, Note_on_c, 1, 35, 0
4, 289386, Note_on_c, 1, 29, 72
4, 289885, Note_on_c, 1, 28, 81
4, 289955, Note_on_c, 1, 29, 0
4, 290808, Note_on_c, 1, 35, 80
4, 290875, Note_on_c, 1, 28, 0
4, 291687, Note_on_c, 1, 35, 0
4, 291727, Note_on_c, 1, 31, 75
4, 292714, Note_on_c, 1, 43, 84
4, 292966, Note_on_c, 1, 31, 0
4, 293505, Note_on_c, 1, 35, 61
4, 293642, Note_on_c, 1, 43, 0
4, 293683, Note_on_c, 1, 35, 0
4, 293715, Note_on_c, 1, 36, 81
4, 294564, Note_on_c, 1, 36, 0
4, 294645, Note_on_c, 1, 36, 79
4, 295598, Note_on_c, 1, 37, 83
4, 295628, Note_on_c, 1, 36, 0
4, 296530, Note_on_c, 1, 37, 0
4, 296601, Note_on_c, 1, 37, 83
4, 296884, Note_on_c, 1, 37, 0
4, 296886, Note_on_c, 1, 36, 62
4, 297040, Note_on_c, 1, 36, 0
4, 297094, Note_on_c, 1, 37, 74
4, 297526, Note_on_c, 1, 37, 0
4, 297542, Note_on_c, 1, 38, 80
4, 298462, Note_on_c, 1, 50, 101
4, 298501, Note_on_c, 1, 38, 0
4, 299261, Note_on_c, 1, 34, 33
4, 299401, Note_on_c, 1, 34, 0
4, 299448, Note_on_c, 1, 38, 74
4, 299459, Note_on_c, 1, 50, 0
4, 299917, Note_on_c, 1, 38, 0
4, 299922, Note_on_c, 1, 30, 74
4, 300844, Note_on_c, 1, 30, 0
4, 300900, Note_on_c, 1, 31, 83
4, 302333, Note_on_c, 1, 31, 0
4, 302335, Note_on_c, 1, 38, 80
4, 303095, Note_on_c, 1, 35, 66
4, 303098, Note_on_c, 1, 38, 0
4, 303256, Note_on_c, 1, 35, 0
4, 303301, Note_on_c, 1, 36, 84
4, 303604, Note_on_c, 1, 36, 0
4, 303768, Note_on_c, 1, 36, 83
4, 304714, Note_on_c, 1, 36, 0
4, 304754, Note_on_c, 1, 30, 63
4, 305140, Note_on_c, 1, 30, 0
4, 305211, Note_on_c, 1, 31, 89
4, 305575, Note_on_c, 1, 31, 0
4, 309048, Note_on_c, 1, 31, 68
4, 309913, Note_on_c, 1, 31, 0
4, 309990, Note_on_c, 1, 35, 75
4, 310822, Note_on_c, 1, 35, 0
4, 310947, Note_on_c, 1, 35, 78
4, 311861, Note_on_c, 1, 35, 0
4, 311897, Note_on_c, 1, 36, 80
4, 312891, Note_on_c, 1, 39, 77
4, 312942, Note_on_c, 1, 36, 0
4, 313845, Note_on_c, 1, 42, 67
4, 313849, Note_on_c, 1, 39, 0
4, 314789, Note_on_c, 1, 41, 78
4, 314792, Note_on_c, 1, 42, 0
4, 316699, Note_on_c, 1, 41, 0
4, 316739, Note_on_c, 1, 40, 83
4, 318648, Note_on_c, 1, 39, 83
4, 318703, Note_on_c, 1, 40, 0
4, 319595, Note_on_c, 1, 39, 0
4, 319642, Note_on_c, 1, 38, 72
4, 320369, Note_on_c, 1, 31, 82
4, 320433, Note_on_c, 1, 38, 0
4, 320773, Note_on_c, 1, 31, 0
4, 322504, Note_on_c, 1, 31, 79
4, 323356, Note_on_c, 1, 31, 0
4, 323436, Note_on_c, 1, 31, 73
4, 324371, Note_on_c, 1, 35, 76
4, 324386, Note_on_c, 1, 31, 0
4, 325320, Note_on_c, 1, 35, 0
4, 325327, Note_on_c, 1, 36, 82
4, 326332, Note_on_c, 1, 39, 77
4, 326340, Note_on_c, 1, 36, 0
4, 327311, Note_on_c, 1, 42, 71
4, 327376, Note_on_c, 1, 39, 0
4, 328207, Note_on_c, 1, 42, 0
4, 328298, Note_on_c, 1, 41, 74
4, 330210, Note_on_c, 1, 40, 80
4, 330277, Note_on_c, 1, 41, 0
4, 331121, Note_on_c, 1, 40, 0
4, 331211, Note_on_c, 1, 40, 71
4, 332083, Note_on_c, 1, 40, 0
4, 332125, Note_on_c, 1, 39, 79
4, 332977, Note_on_c, 1, 39, 0
4, 333072, Note_on_c, 1, 38, 68
4, 333565, Note_on_c, 1, 31, 89
4, 333810, Note_on_c, 1, 38, 0
4, 335849, Note_on_c, 1, 31, 0
4, 337859, Note_on_c, 1, 31, 61
4, 339793, Note_on_c, 1, 36, 68
4, 339805, Note_on_c, 1, 31, 0
4, 341230, Note_on_c, 1, 45, 44
4, 341318, Note_on_c, 1, 36, 0
4, 341367, Note_on_c, 1, 45, 0
4, 341470, Note_on_c, 1, 44, 56
4, 341628, Note_on_c, 1, 44, 0
4, 341684, Note_on_c, 1, 43, 61
4, 343157, Note_on_c, 1, 38, 57
4, 343183, Note_on_c, 1, 43, 0
4, 343260, Note_on_c, 1, 38, 0
4, 343414, Note_on_c, 1, 36, 47
4, 343532, Note_on_c, 1, 36, 0
4, 343654, Note_on_c, 1, 35, 52
4, 344612, Note_on_c, 1, 35, 0
4, 344627, Note_on_c, 1, 39, 74
4, 345599, Note_on_c, 1, 39, 0
4, 345626, Note_on_c, 1, 40, 55
4, 346487, Note_on_c, 1, 40, 0
4, 346555, Note_on_c, 1, 40, 64
4, 347478, Note_on_c, 1, 40, 0
4, 347482, Note_on_c, 1, 35, 63
4, 348361, Note_on_c, 1, 35, 0
4, 348440, Note_on_c, 1, 35, 55
4, 349401, Note_on_c, 1, 40, 64
4, 349444, Note_on_c, 1, 35, 0
4, 350288, Note_on_c, 1, 40, 0
4, 350361, Note_on_c, 1, 40, 66
4, 351341, Note_on_c, 1, 40, 0
4, 351368, Note_on_c, 1, 31, 75
4, 352749, Note_on_c, 1, 34, 49
4, 352783, Note_on_c, 1, 31, 0
4, 352878, Note_on_c, 1, 34, 0
4, 352967, Note_on_c, 1, 35, 55
4, 353197, Note_on_c, 1, 35, 0
4, 353231, Note_on_c, 1, 36, 55
4, 354610, Note_on_c, 1, 36, 0
4, 354645, Note_on_c, 1, 35, 41
4, 354826, Note_on_c, 1, 35, 0
4, 354895, Note_on_c, 1, 36, 49
4, 355093, Note_on_c, 1, 36, 0
4, 355104, Note_on_c, 1, 37, 77
4, 357079, Note_on_c, 1, 37, 0
4, 357081, Note_on_c, 1, 38, 62
4, 358378, Note_on_c, 1, 38, 0
4, 358506, Note_on_c, 1, 38, 60
4, 358620, Note_on_c, 1, 38, 0
4, 358945, Note_on_c, 1, 38, 74
4, 360412, Note_on_c, 1, 38, 0
4, 360453, Note_on_c, 1, 30, 36
4, 360847, Note_on_c, 1, 30, 0
4, 360912, Note_on_c, 1, 31, 62
4, 362335, Note_on_c, 1, 31, 0
4, 362347, Note_on_c, 1, 34, 43
4, 362476, Note_on_c, 1, 34, 0
4, 362576, Note_on_c, 1, 35, 47
4, 362818, Note_on_c, 1, 35, 0
4, 362841, Note_on_c, 1, 36, 68
4, 364237, Note_on_c, 1, 36, 0
4, 364271, Note_on_c, 1, 30, 60
4, 364396, Note_on_c, 1, 30, 0
4, 364736, Note_on_c, 1, 31, 96
4, 365285, Note_on_c, 1, 31, 0
4, 365285, End_track
5, 0, Start_track
5, 0, Title_t, "Brush Kit drums"
5, 0, Program_c, 9, 40
5, 0, Control_c, 9, 7, 100
5, 0, Note_on_c, 9, 38, 31
5, 0, Note_on_c, 9, 38, 0
5, 3901, Note_on_c, 9, 38, 74
5, 4045, Note_on_c, 9, 38, 0
5, 4181, Note_on_c, 9, 38, 55
5, 4305, Note_on_c, 9, 38, 0
5, 4683, Note_on_c, 9, 38, 55
5, 4805, Note_on_c, 9, 38, 0
5, 4814, Note_on_c, 9, 44, 56
5, 4874, Note_on_c, 9, 39, 99
5, 4885, Note_on_c, 9, 40, 14
5, 5113, Note_on_c, 9, 44, 0
5, 5219, Note_on_c, 9, 39, 0
5, 5342, Note_on_c, 9, 38, 34
5, 5447, Note_on_c, 9, 38, 0
5, 5594, Note_on_c, 9, 38, 36
5, 5633, Note_on_c, 9, 40, 0
5, 5696, Note_on_c, 9, 38, 0
5, 5796, Note_on_c, 9, 38, 34
5, 5821, Note_on_c, 9, 40, 14
5, 5963, Note_on_c, 9, 38, 0
5, 6320, Note_on_c, 9, 38, 52
5, 6698, Note_on_c, 9, 40, 0
5, 6713, Note_on_c, 9, 38, 0
5, 6790, Note_on_c, 9, 44, 47
5, 6809, Note_on_c, 9, 39, 106
5, 6864, Note_on_c, 9, 40, 14
5, 6967, Note_on_c, 9, 39, 0
5, 7054, Note_on_c, 9, 38, 38
5, 7116, Note_on_c, 9, 38, 0
5, 7221, Note_on_c, 9, 38, 57
5, 7227, Note_on_c, 9, 44, 0
5, 7316, Note_on_c, 9, 38, 0
5, 7502, Note_on_c, 9, 38, 65
5, 7614, Note_on_c, 9, 38, 0
5, 7632, Note_on_c, 9, 40, 0
5, 7721, Note_on_c, 9, 38, 40
5, 7809, Note_on_c, 9, 40, 17
5, 7838, Note_on_c, 9, 38, 0
5, 7994, Note_on_c, 9, 38, 57
5, 8086, Note_on_c, 9, 38, 0
5, 8442, Note_on_c, 9, 38, 57
5, 8535, Note_on_c, 9, 38, 0
5, 8608, Note_on_c, 9, 40, 0
5, 8657, Note_on_c, 9, 39, 96
5, 8669, Note_on_c, 9, 44, 53
5, 8776, Note_on_c, 9, 40, 18
5, 8950, Note_on_c, 9, 39, 0
5, 9154, Note_on_c, 9, 44, 0
5, 9155, Note_on_c, 9, 38, 46
5, 9311, Note_on_c, 9, 38, 0
5, 9425, Note_on_c, 9, 40, 0
5, 9610, Note_on_c, 9, 40, 17
5, 9636, Note_on_c, 9, 38, 36
5, 9790, Note_on_c, 9, 38, 0
5, 10138, Note_on_c, 9, 38, 30
5, 10226, Note_on_c, 9, 38, 0
5, 10401, Note_on_c, 9, 40, 0
5, 10442, Note_on_c, 9, 38, 18
5, 10490, Note_on_c, 9, 38, 0
5, 10567, Note_on_c, 9, 40, 15
5, 10609, Note_on_c, 9, 39, 94
5, 10639, Note_on_c, 9, 44, 46
5, 10937, Note_on_c, 9, 39, 0
5, 10978, Note_on_c, 9, 44, 0
5, 11093, Note_on_c, 9, 38, 38
5, 11170, Note_on_c, 9, 38, 0
5, 11343, Note_on_c, 9, 40, 0
5, 11371, Note_on_c, 9, 38, 55
5, 11431, Note_on_c, 9, 38, 0
5, 11559, Note_on_c, 9, 40, 10
5, 11560, Note_on_c, 9, 38, 42
5, 11692, Note_on_c, 9, 38, 0
5, 12340, Note_on_c, 9, 38, 39
5, 12357, Note_on_c, 9, 40, 0
5, 12396, Note_on_c, 9, 38, 0
5, 12507, Note_on_c, 9, 39, 86
5, 12555, Note_on_c, 9, 44, 54
5, 12574, Note_on_c, 9, 40, 11
5, 12717, Note_on_c, 9, 44, 0
5, 12864, Note_on_c, 9, 39, 0
5, 13009, Note_on_c, 9, 38, 27
5, 13114, Note_on_c, 9, 38, 0
5, 13279, Note_on_c, 9, 38, 40
5, 13315, Note_on_c, 9, 40, 0
5, 13343, Note_on_c, 9, 38, 0
5, 13463, Note_on_c, 9, 38, 44
5, 13481, Note_on_c, 9, 40, 15
5, 13614, Note_on_c, 9, 38, 0
5, 13985, Note_on_c, 9, 38, 48
5, 14060, Note_on_c, 9, 38, 0
5, 14254, Note_on_c, 9, 40, 0
5, 14266, Note_on_c, 9, 38, 30
5, 14323, Note_on_c, 9, 38, 0
5, 14444, Note_on_c, 9, 39, 42
5, 14452, Note_on_c, 9, 40, 15
5, 14480, Note_on_c, 9, 46, 46
5, 14553, Note_on_c, 9, 39, 0
5, 14696, Note_on_c, 9, 38, 71
5, 14833, Note_on_c, 9, 38, 0
5, 14843, Note_on_c, 9, 46, 0
5, 14941, Note_on_c, 9, 38, 45
5, 15025, Note_on_c, 9, 38, 0
5, 15223, Note_on_c, 9, 40, 0
5, 15424, Note_on_c, 9, 38, 69
5, 15444, Note_on_c, 9, 40, 15
5, 15567, Note_on_c, 9, 38, 0
5, 15874, Note_on_c, 9, 38, 56
5, 15976, Note_on_c, 9, 38, 0
5, 16174, Note_on_c, 9, 38, 28
5, 16220, Note_on_c, 9, 40, 0
5, 16227, Note_on_c, 9, 38, 0
5, 16352, Note_on_c, 9, 39, 85
5, 16354, Note_on_c, 9, 44, 47
5, 16430, Note_on_c, 9, 40, 11
5, 16566, Note_on_c, 9, 44, 0
5, 16693, Note_on_c, 9, 39, 0
5, 16848, Note_on_c, 9, 38, 33
5, 16904, Note_on_c, 9, 38, 0
5, 17106, Note_on_c, 9, 38, 60
5, 17122, Note_on_c, 9, 40, 0
5, 17201, Note_on_c, 9, 38, 0
5, 17315, Note_on_c, 9, 38, 46
5, 17343, Note_on_c, 9, 40, 10
5, 17408, Note_on_c, 9, 38, 0
5, 17600, Note_on_c, 9, 38, 56
5, 17661, Note_on_c, 9, 38, 0
5, 17780, Note_on_c, 9, 38, 59
5, 17903, Note_on_c, 9, 38, 0
5, 18101, Note_on_c, 9, 40, 0
5, 18101, Note_on_c, 9, 38, 56
5, 18150, Note_on_c, 9, 38, 0
5, 18283, Note_on_c, 9, 39, 91
5, 18306, Note_on_c, 9, 44, 55
5, 18319, Note_on_c, 9, 40, 15
5, 18510, Note_on_c, 9, 44, 0
5, 18644, Note_on_c, 9, 39, 0
5, 18761, Note_on_c, 9, 38, 46
5, 18820, Note_on_c, 9, 38, 0
5, 18986, Note_on_c, 9, 40, 0
5, 19062, Note_on_c, 9, 38, 37
5, 19112, Note_on_c, 9, 38, 0
5, 19228, Note_on_c, 9, 38, 53
5, 19246, Note_on_c, 9, 40, 19
5, 19532, Note_on_c, 9, 38, 0
5, 19730, Note_on_c, 9, 39, 77
5, 20007, Note_on_c, 9, 39, 0
5, 20080, Note_on_c, 9, 40, 0
5, 20174, Note_on_c, 9, 44, 46
5, 20247, Note_on_c, 9, 38, 23
5, 20254, Note_on_c, 9, 40, 17
5, 20299, Note_on_c, 9, 38, 0
5, 20378, Note_on_c, 9, 44, 0
5, 20484, Note_on_c, 9, 38, 56
5, 20542, Note_on_c, 9, 38, 0
5, 20679, Note_on_c, 9, 38, 29
5, 20761, Note_on_c, 9, 38, 0
5, 21012, Note_on_c, 9, 40, 0
5, 21187, Note_on_c, 9, 38, 62
5, 21235, Note_on_c, 9, 40, 12
5, 21308, Note_on_c, 9, 38, 0
5, 21653, Note_on_c, 9, 39, 93
5, 21845, Note_on_c, 9, 39, 0
5, 21897, Note_on_c, 9, 40, 0
5, 21949, Note_on_c, 9, 38, 39
5, 21996, Note_on_c, 9, 38, 0
5, 22105, Note_on_c, 9, 40, 19
5, 22108, Note_on_c, 9, 46, 40
5, 22308, Note_on_c, 9, 46, 0
5, 22394, Note_on_c, 9, 38, 63
5, 22458, Note_on_c, 9, 38, 0
5, 22585, Note_on_c, 9, 38, 46
5, 22686, Note_on_c, 9, 38, 0
5, 22860, Note_on_c, 9, 40, 0
5, 23066, Note_on_c, 9, 38, 66
5, 23139, Note_on_c, 9, 40, 12
5, 23231, Note_on_c, 9, 38, 0
5, 23815, Note_on_c, 9, 38, 27
5, 23839, Note_on_c, 9, 40, 0
5, 23868, Note_on_c, 9, 38, 0
5, 23997, Note_on_c, 9, 39, 87
5, 24002, Note_on_c, 9, 44, 42
5, 24070, Note_on_c, 9, 40, 14
5, 24263, Note_on_c, 9, 44, 0
5, 24305, Note_on_c, 9, 39, 0
5, 24754, Note_on_c, 9, 38, 42
5, 24779, Note_on_c, 9, 40, 0
5, 24807, Note_on_c, 9, 38, 0
5, 24981, Note_on_c, 9, 38, 33
5, 25028, Note_on_c, 9, 40, 12
5, 25028, Note_on_c, 9, 40, 0
5, 25057, Note_on_c, 9, 38, 0
5, 25259, Note_on_c, 9, 38, 52
5, 25316, Note_on_c, 9, 38, 0
5, 25827, Note_on_c, 9, 38, 46
5, 25873, Note_on_c, 9, 38, 0
5, 25993, Note_on_c, 9, 40, 15
5, 25999, Note_on_c, 9, 44, 39
5, 26000, Note_on_c, 9, 39, 85
5, 26198, Note_on_c, 9, 44, 0
5, 26352, Note_on_c, 9, 39, 0
5, 26515, Note_on_c, 9, 38, 38
5, 26576, Note_on_c, 9, 38, 0
5, 26762, Note_on_c, 9, 40, 0
5, 26774, Note_on_c, 9, 38, 39
5, 26828, Note_on_c, 9, 38, 0
5, 26966, Note_on_c, 9, 38, 38
5, 26969, Note_on_c, 9, 40, 15
5, 27261, Note_on_c, 9, 38, 0
5, 27715, Note_on_c, 9, 38, 36
5, 27768, Note_on_c, 9, 40, 0
5, 27773, Note_on_c, 9, 38, 0
5, 27903, Note_on_c, 9, 39, 94
5, 27905, Note_on_c, 9, 44, 34
5, 27948, Note_on_c, 9, 40, 18
5, 28137, Note_on_c, 9, 44, 0
5, 28266, Note_on_c, 9, 39, 0
5, 28384, Note_on_c, 9, 38, 29
5, 28456, Note_on_c, 9, 38, 0
5, 28540, Note_on_c, 9, 40, 0
5, 28633, Note_on_c, 9, 38, 74
5, 28707, Note_on_c, 9, 40, 16
5, 28876, Note_on_c, 9, 38, 0
5, 29125, Note_on_c, 9, 38, 55
5, 29198, Note_on_c, 9, 38, 0
5, 29285, Note_on_c, 9, 38, 18
5, 29360, Note_on_c, 9, 38, 0
5, 29676, Note_on_c, 9, 38, 45
5, 29691, Note_on_c, 9, 40, 0
5, 29768, Note_on_c, 9, 38, 0
5, 29839, Note_on_c, 9, 44, 30
5, 29846, Note_on_c, 9, 39, 83
5, 29857, Note_on_c, 9, 40, 19
5, 30062, Note_on_c, 9, 44, 0
5, 30243, Note_on_c, 9, 39, 0
5, 30335, Note_on_c, 9, 38, 37
5, 30423, Note_on_c, 9, 38, 0
5, 30608, Note_on_c, 9, 38, 50
5, 30620, Note_on_c, 9, 40, 0
5, 30677, Note_on_c, 9, 38, 0
5, 30827, Note_on_c, 9, 38, 39
5, 30878, Note_on_c, 9, 38, 0
5, 30902, Note_on_c, 9, 40, 11
5, 31280, Note_on_c, 9, 38, 74
5, 31382, Note_on_c, 9, 38, 0
5, 31438, Note_on_c, 9, 40, 0
5, 31598, Note_on_c, 9, 40, 21
5, 31690, Note_on_c, 9, 40, 0
5, 31706, Note_on_c, 9, 44, 37
5, 31734, Note_on_c, 9, 39, 91
5, 31824, Note_on_c, 9, 40, 17
5, 31866, Note_on_c, 9, 39, 0
5, 31881, Note_on_c, 9, 44, 0
5, 32447, Note_on_c, 9, 40, 0
5, 32471, Note_on_c, 9, 38, 73
5, 32596, Note_on_c, 9, 40, 16
5, 32625, Note_on_c, 9, 38, 0
5, 32699, Note_on_c, 9, 40, 0
5, 32699, Note_on_c, 9, 38, 19
5, 32781, Note_on_c, 9, 40, 15
5, 33114, Note_on_c, 9, 38, 0
5, 33159, Note_on_c, 9, 45, 112
5, 33292, Note_on_c, 9, 40, 0
5, 33462, Note_on_c, 9, 45, 0
5, 33499, Note_on_c, 9, 40, 15
5, 33598, Note_on_c, 9, 46, 36
5, 33793, Note_on_c, 9, 46, 0
5, 33941, Note_on_c, 9, 43, 109
5, 34217, Note_on_c, 9, 43, 0
5, 34234, Note_on_c, 9, 40, 0
5, 34372, Note_on_c, 9, 38, 33
5, 34418, Note_on_c, 9, 38, 0
5, 34548, Note_on_c, 9, 40, 23
5, 34610, Note_on_c, 9, 38, 41
5, 34801, Note_on_c, 9, 38, 0
5, 35074, Note_on_c, 9, 38, 60
5, 35189, Note_on_c, 9, 38, 0
5, 35325, Note_on_c, 9, 38, 41
5, 35421, Note_on_c, 9, 40, 0
5, 35426, Note_on_c, 9, 38, 0
5, 35546, Note_on_c, 9, 44, 35
5, 35547, Note_on_c, 9, 39, 76
5, 35604, Note_on_c, 9, 40, 16
5, 35691, Note_on_c, 9, 44, 0
5, 35808, Note_on_c, 9, 39, 0
5, 36018, Note_on_c, 9, 38, 39
5, 36077, Note_on_c, 9, 38, 0
5, 36292, Note_on_c, 9, 38, 30
5, 36327, Note_on_c, 9, 40, 0
5, 36342, Note_on_c, 9, 38, 0
5, 36510, Note_on_c, 9, 40, 15
5, 36750, Note_on_c, 9, 38, 37
5, 36798, Note_on_c, 9, 38, 0
5, 36940, Note_on_c, 9, 38, 33
5, 36987, Note_on_c, 9, 38, 0
5, 37219, Note_on_c, 9, 38, 33
5, 37274, Note_on_c, 9, 38, 0
5, 37276, Note_on_c, 9, 40, 0
5, 37456, Note_on_c, 9, 39, 79
5, 37486, Note_on_c, 9, 40, 16
5, 37493, Note_on_c, 9, 44, 27
5, 37603, Note_on_c, 9, 39, 0
5, 37674, Note_on_c, 9, 44, 0
5, 37700, Note_on_c, 9, 39, 55
5, 37834, Note_on_c, 9, 39, 0
5, 37903, Note_on_c, 9, 38, 59
5, 37955, Note_on_c, 9, 38, 0
5, 38173, Note_on_c, 9, 38, 76
5, 38203, Note_on_c, 9, 40, 0
5, 38289, Note_on_c, 9, 38, 0
5, 38377, Note_on_c, 9, 38, 55
5, 38408, Note_on_c, 9, 40, 15
5, 38499, Note_on_c, 9, 38, 0
5, 38890, Note_on_c, 9, 38, 68
5, 39011, Note_on_c, 9, 38, 0
5, 39127, Note_on_c, 9, 40, 0
5, 39147, Note_on_c, 9, 38, 38
5, 39259, Note_on_c, 9, 38, 0
5, 39367, Note_on_c, 9, 40, 23
5, 39382, Note_on_c, 9, 39, 78
5, 39383, Note_on_c, 9, 44, 35
5, 39513, Note_on_c, 9, 44, 0
5, 39588, Note_on_c, 9, 39, 0
5, 39875, Note_on_c, 9, 38, 40
5, 39938, Note_on_c, 9, 38, 0
5, 40126, Note_on_c, 9, 40, 0
5, 40149, Note_on_c, 9, 38, 68
5, 40291, Note_on_c, 9, 38, 0
5, 40377, Note_on_c, 9, 40, 21
5, 40653, Note_on_c, 9, 38, 59
5, 40703, Note_on_c, 9, 38, 0
5, 40843, Note_on_c, 9, 38, 37
5, 40927, Note_on_c, 9, 38, 0
5, 41107, Note_on_c, 9, 38, 43
5, 41167, Note_on_c, 9, 40, 0
5, 41191, Note_on_c, 9, 38, 0
5, 41315, Note_on_c, 9, 44, 46
5, 41317, Note_on_c, 9, 39, 91
5, 41392, Note_on_c, 9, 40, 17
5, 41444, Note_on_c, 9, 44, 0
5, 41654, Note_on_c, 9, 39, 0
5, 41794, Note_on_c, 9, 38, 34
5, 41882, Note_on_c, 9, 38, 0
5, 42061, Note_on_c, 9, 38, 62
5, 42144, Note_on_c, 9, 40, 0
5, 42183, Note_on_c, 9, 38, 0
5, 42394, Note_on_c, 9, 40, 11
5, 42550, Note_on_c, 9, 38, 44
5, 42614, Note_on_c, 9, 38, 0
5, 42743, Note_on_c, 9, 39, 70
5, 43049, Note_on_c, 9, 39, 0
5, 43068, Note_on_c, 9, 40, 0
5, 43177, Note_on_c, 9, 44, 36
5, 43303, Note_on_c, 9, 40, 18
5, 43309, Note_on_c, 9, 44, 0
5, 43490, Note_on_c, 9, 38, 49
5, 43579, Note_on_c, 9, 38, 0
5, 43684, Note_on_c, 9, 38, 28
5, 43758, Note_on_c, 9, 38, 0
5, 43912, Note_on_c, 9, 40, 0
5, 43972, Note_on_c, 9, 38, 52
5, 44019, Note_on_c, 9, 38, 0
5, 44176, Note_on_c, 9, 38, 59
5, 44176, Note_on_c, 9, 40, 20
5, 44391, Note_on_c, 9, 38, 0
5, 44671, Note_on_c, 9, 38, 38
5, 44734, Note_on_c, 9, 38, 0
5, 44916, Note_on_c, 9, 40, 0
5, 44954, Note_on_c, 9, 38, 20
5, 44998, Note_on_c, 9, 38, 0
5, 45099, Note_on_c, 9, 46, 38
5, 45160, Note_on_c, 9, 39, 77
5, 45174, Note_on_c, 9, 40, 19
5, 45263, Note_on_c, 9, 46, 0
5, 45438, Note_on_c, 9, 39, 0
5, 45645, Note_on_c, 9, 38, 26
5, 45719, Note_on_c, 9, 38, 0
5, 45828, Note_on_c, 9, 40, 0
5, 45906, Note_on_c, 9, 38, 59
5, 45949, Note_on_c, 9, 38, 0
5, 46095, Note_on_c, 9, 40, 19
5, 46335, Note_on_c, 9, 39, 85
5, 46454, Note_on_c, 9, 39, 0
5, 46523, Note_on_c, 9, 39, 63
5, 46640, Note_on_c, 9, 39, 0
5, 46778, Note_on_c, 9, 40, 0
5, 46841, Note_on_c, 9, 38, 43
5, 46955, Note_on_c, 9, 38, 0
5, 47029, Note_on_c, 9, 39, 86
5, 47044, Note_on_c, 9, 44, 32
5, 47065, Note_on_c, 9, 40, 19
5, 47180, Note_on_c, 9, 44, 0
5, 47376, Note_on_c, 9, 39, 0
5, 47473, Note_on_c, 9, 38, 57
5, 47549, Note_on_c, 9, 38, 0
5, 47701, Note_on_c, 9, 40, 0
5, 47761, Note_on_c, 9, 38, 55
5, 47849, Note_on_c, 9, 38, 0
5, 47986, Note_on_c, 9, 38, 51
5, 48015, Note_on_c, 9, 40, 19
5, 48126, Note_on_c, 9, 38, 0
5, 48250, Note_on_c, 9, 38, 40
5, 48311, Note_on_c, 9, 38, 0
5, 48482, Note_on_c, 9, 45, 107
5, 48721, Note_on_c, 9, 40, 0
5, 48796, Note_on_c, 9, 38, 37
5, 48848, Note_on_c, 9, 38, 0
5, 48851, Note_on_c, 9, 45, 0
5, 48949, Note_on_c, 9, 43, 76
5, 48950, Note_on_c, 9, 40, 15
5, 48970, Note_on_c, 9, 46, 35
5, 49112, Note_on_c, 9, 46, 0
5, 49116, Note_on_c, 9, 43, 0
5, 49224, Note_on_c, 9, 38, 68
5, 49313, Note_on_c, 9, 38, 0
5, 49436, Note_on_c, 9, 40, 16
5, 49566, Note_on_c, 9, 40, 0
5, 49663, Note_on_c, 9, 40, 0
5, 49676, Note_on_c, 9, 38, 53
5, 49744, Note_on_c, 9, 38, 0
5, 49904, Note_on_c, 9, 38, 46
5, 49958, Note_on_c, 9, 40, 19
5, 50026, Note_on_c, 9, 38, 0
5, 50409, Note_on_c, 9, 38, 52
5, 50616, Note_on_c, 9, 38, 0
5, 50653, Note_on_c, 9, 40, 0
5, 50863, Note_on_c, 9, 44, 45
5, 50903, Note_on_c, 9, 39, 84
5, 50970, Note_on_c, 9, 40, 15
5, 51010, Note_on_c, 9, 44, 0
5, 51099, Note_on_c, 9, 39, 0
5, 51258, Note_on_c, 9, 38, 53
5, 51307, Note_on_c, 9, 38, 0
5, 51631, Note_on_c, 9, 40, 0
5, 51716, Note_on_c, 9, 38, 75
5, 51807, Note_on_c, 9, 38, 0
5, 51893, Note_on_c, 9, 40, 16
5, 51901, Note_on_c, 9, 38, 61
5, 52176, Note_on_c, 9, 38, 0
5, 52369, Note_on_c, 9, 38, 43
5, 52464, Note_on_c, 9, 38, 0
5, 52598, Note_on_c, 9, 40, 0
5, 52621, Note_on_c, 9, 38, 31
5, 52706, Note_on_c, 9, 38, 0
5, 52817, Note_on_c, 9, 39, 87
5, 52890, Note_on_c, 9, 40, 17
5, 53076, Note_on_c, 9, 39, 0
5, 53273, Note_on_c, 9, 38, 42
5, 53366, Note_on_c, 9, 38, 0
5, 53548, Note_on_c, 9, 38, 70
5, 53563, Note_on_c, 9, 40, 0
5, 53710, Note_on_c, 9, 38, 0
5, 53844, Note_on_c, 9, 40, 15
5, 54008, Note_on_c, 9, 38, 55
5, 54062, Note_on_c, 9, 38, 0
5, 54499, Note_on_c, 9, 38, 48
5, 54565, Note_on_c, 9, 40, 0
5, 54582, Note_on_c, 9, 38, 0
5, 54704, Note_on_c, 9, 39, 95
5, 54772, Note_on_c, 9, 40, 15
5, 55022, Note_on_c, 9, 39, 0
5, 55189, Note_on_c, 9, 38, 27
5, 55277, Note_on_c, 9, 38, 0
5, 55408, Note_on_c, 9, 40, 0
5, 55448, Note_on_c, 9, 38, 47
5, 55504, Note_on_c, 9, 38, 0
5, 55667, Note_on_c, 9, 40, 19
5, 55668, Note_on_c, 9, 38, 48
5, 55808, Note_on_c, 9, 38, 0
5, 55998, Note_on_c, 9, 38, 22
5, 56048, Note_on_c, 9, 38, 0
5, 56153, Note_on_c, 9, 39, 99
5, 56319, Note_on_c, 9, 40, 0
5, 56535, Note_on_c, 9, 39, 0
5, 56617, Note_on_c, 9, 40, 18
5, 56907, Note_on_c, 9, 38, 56
5, 56977, Note_on_c, 9, 38, 0
5, 57257, Note_on_c, 9, 40, 0
5, 57416, Note_on_c, 9, 38, 41
5, 57460, Note_on_c, 9, 38, 0
5, 57545, Note_on_c, 9, 40, 17
5, 57598, Note_on_c, 9, 38, 68
5, 57823, Note_on_c, 9, 38, 0
5, 58093, Note_on_c, 9, 38, 59
5, 58247, Note_on_c, 9, 38, 0
5, 58348, Note_on_c, 9, 38, 55
5, 58356, Note_on_c, 9, 40, 0
5, 58394, Note_on_c, 9, 38, 0
5, 58568, Note_on_c, 9, 39, 96
5, 58602, Note_on_c, 9, 40, 17
5, 58923, Note_on_c, 9, 39, 0
5, 59020, Note_on_c, 9, 38, 44
5, 59112, Note_on_c, 9, 38, 0
5, 59293, Note_on_c, 9, 38, 55
5, 59299, Note_on_c, 9, 40, 0
5, 59341, Note_on_c, 9, 38, 0
5, 59508, Note_on_c, 9, 38, 61
5, 59602, Note_on_c, 9, 40, 17
5, 59619, Note_on_c, 9, 38, 0
5, 59998, Note_on_c, 9, 38, 55
5, 60105, Note_on_c, 9, 38, 0
5, 60268, Note_on_c, 9, 40, 0
5, 60511, Note_on_c, 9, 39, 83
5, 60582, Note_on_c, 9, 40, 19
5, 60639, Note_on_c, 9, 39, 0
5, 60760, Note_on_c, 9, 39, 61
5, 60909, Note_on_c, 9, 39, 0
5, 60957, Note_on_c, 9, 38, 58
5, 61000, Note_on_c, 9, 38, 0
5, 61224, Note_on_c, 9, 40, 0
5, 61500, Note_on_c, 9, 40, 23
5, 62359, Note_on_c, 9, 44, 54
5, 62399, Note_on_c, 9, 44, 32
5, 62459, Note_on_c, 9, 44, 0
5, 62584, Note_on_c, 9, 40, 0
5, 62698, Note_on_c, 9, 44, 0
5, 64302, Note_on_c, 9, 44, 54
5, 64613, Note_on_c, 9, 44, 0
5, 64731, Note_on_c, 9, 59, 31
5, 64807, Note_on_c, 9, 59, 0
5, 65593, Note_on_c, 9, 59, 54
5, 65709, Note_on_c, 9, 59, 0
5, 65821, Note_on_c, 9, 59, 47
5, 65912, Note_on_c, 9, 59, 0
5, 66200, Note_on_c, 9, 44, 56
5, 66507, Note_on_c, 9, 59, 50
5, 66562, Note_on_c, 9, 44, 0
5, 66574, Note_on_c, 9, 59, 0
5, 66721, Note_on_c, 9, 59, 50
5, 66839, Note_on_c, 9, 59, 0
5, 67440, Note_on_c, 9, 59, 51
5, 67498, Note_on_c, 9, 59, 0
5, 67624, Note_on_c, 9, 59, 46
5, 67796, Note_on_c, 9, 59, 0
5, 68181, Note_on_c, 9, 44, 57
5, 68374, Note_on_c, 9, 59, 45
5, 68451, Note_on_c, 9, 59, 0
5, 68508, Note_on_c, 9, 44, 0
5, 68608, Note_on_c, 9, 59, 42
5, 68767, Note_on_c, 9, 59, 0
5, 69574, Note_on_c, 9, 59, 62
5, 69694, Note_on_c, 9, 59, 0
5, 70061, Note_on_c, 9, 44, 54
5, 70423, Note_on_c, 9, 44, 0
5, 70504, Note_on_c, 9, 59, 60
5, 70576, Note_on_c, 9, 59, 0
5, 71233, Note_on_c, 9, 59, 51
5, 71298, Note_on_c, 9, 59, 0
5, 71480, Note_on_c, 9, 59, 58
5, 71620, Note_on_c, 9, 59, 0
5, 71926, Note_on_c, 9, 44, 50
5, 72285, Note_on_c, 9, 44, 0
5, 72477, Note_on_c, 9, 59, 63
5, 72593, Note_on_c, 9, 59, 0
5, 73459, Note_on_c, 9, 59, 69
5, 73602, Note_on_c, 9, 59, 0
5, 73871, Note_on_c, 9, 44, 51
5, 74177, Note_on_c, 9, 44, 0
5, 74409, Note_on_c, 9, 59, 59
5, 74505, Note_on_c, 9, 59, 0
5, 75108, Note_on_c, 9, 59, 56
5, 75174, Note_on_c, 9, 59, 0
5, 75347, Note_on_c, 9, 59, 57
5, 75534, Note_on_c, 9, 59, 0
5, 75770, Note_on_c, 9, 44, 47
5, 76023, Note_on_c, 9, 44, 0
5, 76323, Note_on_c, 9, 59, 61
5, 76406, Note_on_c, 9, 59, 0
5, 76483, Note_on_c, 9, 46, 45
5, 76735, Note_on_c, 9, 46, 0
5, 77285, Note_on_c, 9, 59, 62
5, 77404, Note_on_c, 9, 59, 0
5, 78288, Note_on_c, 9, 59, 58
5, 78351, Note_on_c, 9, 59, 0
5, 79206, Note_on_c, 9, 59, 60
5, 79207, Note_on_c, 9, 44, 47
5, 79287, Note_on_c, 9, 59, 0
5, 79441, Note_on_c, 9, 44, 0
5, 80121, Note_on_c, 9, 59, 52
5, 80216, Note_on_c, 9, 59, 0
5, 80910, Note_on_c, 9, 59, 54
5, 80968, Note_on_c, 9, 59, 0
5, 81121, Note_on_c, 9, 59, 62
5, 81175, Note_on_c, 9, 59, 0
5, 81525, Note_on_c, 9, 44, 50
5, 81823, Note_on_c, 9, 44, 0
5, 82055, Note_on_c, 9, 59, 64
5, 82172, Note_on_c, 9, 59, 0
5, 83030, Note_on_c, 9, 59, 62
5, 83147, Note_on_c, 9, 59, 0
5, 83453, Note_on_c, 9, 44, 47
5, 83731, Note_on_c, 9, 44, 0
5, 83859, Note_on_c, 9, 59, 39
5, 83926, Note_on_c, 9, 59, 0
5, 84040, Note_on_c, 9, 59, 48
5, 84207, Note_on_c, 9, 59, 0
5, 84856, Note_on_c, 9, 59, 51
5, 84911, Note_on_c, 9, 59, 0
5, 85058, Note_on_c, 9, 59, 39
5, 85191, Note_on_c, 9, 59, 0
5, 85471, Note_on_c, 9, 44, 52
5, 85767, Note_on_c, 9, 44, 0
5, 85944, Note_on_c, 9, 59, 50
5, 86021, Note_on_c, 9, 59, 0
5, 86730, Note_on_c, 9, 59, 51
5, 86785, Note_on_c, 9, 59, 0
5, 86924, Note_on_c, 9, 59, 42
5, 87058, Note_on_c, 9, 59, 0
5, 87357, Note_on_c, 9, 44, 50
5, 87639, Note_on_c, 9, 44, 0
5, 87886, Note_on_c, 9, 59, 46
5, 87954, Note_on_c, 9, 59, 0
5, 88358, Note_on_c, 9, 59, 50
5, 88497, Note_on_c, 9, 59, 0
5, 88623, Note_on_c, 9, 59, 46
5, 88685, Note_on_c, 9, 59, 0
5, 89070, Note_on_c, 9, 59, 67
5, 89143, Note_on_c, 9, 44, 35
5, 89183, Note_on_c, 9, 59, 0
5, 89285, Note_on_c, 9, 59, 48
5, 89301, Note_on_c, 9, 44, 0
5, 89346, Note_on_c, 9, 59, 0
5, 93550, Note_on_c, 9, 38, 31
5, 93567, Note_on_c, 9, 44, 46
5, 93598, Note_on_c, 9, 38, 0
5, 93649, Note_on_c, 9, 44, 0
5, 93809, Note_on_c, 9, 38, 59
5, 93876, Note_on_c, 9, 38, 0
5, 94039, Note_on_c, 9, 38, 62
5, 94149, Note_on_c, 9, 40, 15
5, 94180, Note_on_c, 9, 38, 0
5, 94355, Note_on_c, 9, 40, 0
5, 94545, Note_on_c, 9, 38, 30
5, 94595, Note_on_c, 9, 38, 0
5, 94808, Note_on_c, 9, 38, 34
5, 94865, Note_on_c, 9, 38, 0
5, 95012, Note_on_c, 9, 39, 76
5, 95086, Note_on_c, 9, 40, 13
5, 95378, Note_on_c, 9, 39, 0
5, 95499, Note_on_c, 9, 38, 33
5, 95560, Note_on_c, 9, 38, 0
5, 95757, Note_on_c, 9, 38, 47
5, 95811, Note_on_c, 9, 38, 0
5, 95868, Note_on_c, 9, 40, 0
5, 95931, Note_on_c, 9, 38, 34
5, 96003, Note_on_c, 9, 40, 11
5, 96035, Note_on_c, 9, 38, 0
5, 96239, Note_on_c, 9, 38, 40
5, 96300, Note_on_c, 9, 38, 0
5, 96434, Note_on_c, 9, 39, 67
5, 96676, Note_on_c, 9, 39, 0
5, 96813, Note_on_c, 9, 40, 0
5, 96942, Note_on_c, 9, 40, 8
5, 97170, Note_on_c, 9, 39, 57
5, 97270, Note_on_c, 9, 39, 0
5, 97715, Note_on_c, 9, 40, 0
5, 97838, Note_on_c, 9, 39, 32
5, 97841, Note_on_c, 9, 40, 15
5, 98127, Note_on_c, 9, 39, 0
5, 98167, Note_on_c, 9, 38, 34
5, 98213, Note_on_c, 9, 38, 0
5, 98329, Note_on_c, 9, 38, 48
5, 98602, Note_on_c, 9, 38, 0
5, 98718, Note_on_c, 9, 40, 0
5, 98807, Note_on_c, 9, 38, 64
5, 98869, Note_on_c, 9, 40, 24
5, 99008, Note_on_c, 9, 38, 0
5, 99323, Note_on_c, 9, 38, 35
5, 99378, Note_on_c, 9, 38, 0
5, 99693, Note_on_c, 9, 40, 0
5, 99812, Note_on_c, 9, 38, 63
5, 99864, Note_on_c, 9, 40, 20
5, 100097, Note_on_c, 9, 38, 0
5, 100542, Note_on_c, 9, 40, 0
5, 100665, Note_on_c, 9, 40, 31
5, 100748, Note_on_c, 9, 40, 0
5, 100785, Note_on_c, 9, 39, 91
5, 100907, Note_on_c, 9, 40, 19
5, 101180, Note_on_c, 9, 39, 0
5, 101247, Note_on_c, 9, 38, 53
5, 101302, Note_on_c, 9, 38, 0
5, 101493, Note_on_c, 9, 38, 54
5, 101550, Note_on_c, 9, 38, 0
5, 101565, Note_on_c, 9, 40, 0
5, 101687, Note_on_c, 9, 38, 57
5, 101752, Note_on_c, 9, 40, 15
5, 101851, Note_on_c, 9, 38, 0
5, 102201, Note_on_c, 9, 38, 41
5, 102281, Note_on_c, 9, 38, 0
5, 102497, Note_on_c, 9, 38, 36
5, 102542, Note_on_c, 9, 40, 0
5, 102554, Note_on_c, 9, 38, 0
5, 102660, Note_on_c, 9, 39, 93
5, 102683, Note_on_c, 9, 42, 43
5, 102725, Note_on_c, 9, 40, 15
5, 102838, Note_on_c, 9, 42, 0
5, 102993, Note_on_c, 9, 39, 0
5, 103139, Note_on_c, 9, 38, 40
5, 103185, Note_on_c, 9, 38, 0
5, 103368, Note_on_c, 9, 38, 69
5, 103451, Note_on_c, 9, 38, 0
5, 103508, Note_on_c, 9, 40, 0
5, 103699, Note_on_c, 9, 40, 15
5, 103858, Note_on_c, 9, 38, 65
5, 103935, Note_on_c, 9, 38, 0
5, 104367, Note_on_c, 9, 38, 58
5, 104444, Note_on_c, 9, 38, 0
5, 104476, Note_on_c, 9, 40, 0
5, 104582, Note_on_c, 9, 39, 45
5, 104658, Note_on_c, 9, 40, 17
5, 104685, Note_on_c, 9, 39, 0
5, 104868, Note_on_c, 9, 38, 57
5, 104965, Note_on_c, 9, 38, 0
5, 105070, Note_on_c, 9, 38, 56
5, 105171, Note_on_c, 9, 38, 0
5, 105331, Note_on_c, 9, 38, 61
5, 105405, Note_on_c, 9, 38, 0
5, 105425, Note_on_c, 9, 40, 0
5, 105516, Note_on_c, 9, 38, 74
5, 105834, Note_on_c, 9, 38, 0
5, 106031, Note_on_c, 9, 38, 73
5, 106177, Note_on_c, 9, 38, 0
5, 106530, Note_on_c, 9, 39, 88
5, 106603, Note_on_c, 9, 40, 11
5, 106851, Note_on_c, 9, 39, 0
5, 107040, Note_on_c, 9, 38, 20
5, 107085, Note_on_c, 9, 38, 0
5, 107282, Note_on_c, 9, 38, 30
5, 107331, Note_on_c, 9, 38, 0
5, 107337, Note_on_c, 9, 40, 0
5, 107489, Note_on_c, 9, 38, 52
5, 107515, Note_on_c, 9, 40, 15
5, 107625, Note_on_c, 9, 38, 0
5, 107948, Note_on_c, 9, 38, 68
5, 108073, Note_on_c, 9, 38, 0
5, 108323, Note_on_c, 9, 40, 0
5, 108440, Note_on_c, 9, 39, 75
5, 108492, Note_on_c, 9, 40, 15
5, 108607, Note_on_c, 9, 39, 0
5, 108665, Note_on_c, 9, 38, 63
5, 108721, Note_on_c, 9, 38, 0
5, 109184, Note_on_c, 9, 38, 81
5, 109238, Note_on_c, 9, 40, 0
5, 109271, Note_on_c, 9, 38, 0
5, 109408, Note_on_c, 9, 38, 58
5, 109416, Note_on_c, 9, 40, 16
5, 109454, Note_on_c, 9, 38, 0
5, 109887, Note_on_c, 9, 39, 70
5, 110037, Note_on_c, 9, 39, 0
5, 110229, Note_on_c, 9, 40, 0
5, 110411, Note_on_c, 9, 40, 17
5, 110633, Note_on_c, 9, 39, 79
5, 110746, Note_on_c, 9, 39, 0
5, 110805, Note_on_c, 9, 38, 44
5, 110990, Note_on_c, 9, 38, 0
5, 111120, Note_on_c, 9, 40, 0
5, 111291, Note_on_c, 9, 38, 68
5, 111321, Note_on_c, 9, 40, 14
5, 111438, Note_on_c, 9, 38, 0
5, 111775, Note_on_c, 9, 38, 66
5, 111881, Note_on_c, 9, 38, 0
5, 112059, Note_on_c, 9, 38, 35
5, 112113, Note_on_c, 9, 38, 0
5, 112248, Note_on_c, 9, 39, 79
5, 112567, Note_on_c, 9, 39, 0
5, 112747, Note_on_c, 9, 38, 41
5, 112796, Note_on_c, 9, 38, 0
5, 113010, Note_on_c, 9, 38, 48
5, 113038, Note_on_c, 9, 40, 0
5, 113066, Note_on_c, 9, 38, 0
5, 113230, Note_on_c, 9, 40, 15
5, 113230, Note_on_c, 9, 38, 48
5, 113352, Note_on_c, 9, 38, 0
5, 113740, Note_on_c, 9, 38, 38
5, 113794, Note_on_c, 9, 38, 0
5, 114117, Note_on_c, 9, 40, 0
5, 114186, Note_on_c, 9, 39, 77
5, 114240, Note_on_c, 9, 40, 24
5, 114336, Note_on_c, 9, 39, 0
5, 114450, Note_on_c, 9, 38, 64
5, 114551, Note_on_c, 9, 38, 0
5, 114922, Note_on_c, 9, 38, 59
5, 114985, Note_on_c, 9, 38, 0
5, 115021, Note_on_c, 9, 40, 0
5, 115126, Note_on_c, 9, 38, 52
5, 115211, Note_on_c, 9, 40, 20
5, 115260, Note_on_c, 9, 38, 0
5, 115465, Note_on_c, 9, 38, 26
5, 115520, Note_on_c, 9, 38, 0
5, 115639, Note_on_c, 9, 39, 90
5, 115902, Note_on_c, 9, 39, 0
5, 116023, Note_on_c, 9, 40, 0
5, 116132, Note_on_c, 9, 38, 22
5, 116160, Note_on_c, 9, 40, 21
5, 116204, Note_on_c, 9, 38, 0
5, 116380, Note_on_c, 9, 38, 52
5, 116430, Note_on_c, 9, 38, 0
5, 116553, Note_on_c, 9, 38, 28
5, 116610, Note_on_c, 9, 38, 0
5, 116882, Note_on_c, 9, 38, 28
5, 116935, Note_on_c, 9, 38, 0
5, 116942, Note_on_c, 9, 40, 0
5, 117073, Note_on_c, 9, 38, 48
5, 117098, Note_on_c, 9, 40, 21
5, 117175, Note_on_c, 9, 38, 0
5, 117371, Note_on_c, 9, 38, 42
5, 117420, Note_on_c, 9, 38, 0
5, 117554, Note_on_c, 9, 39, 92
5, 117827, Note_on_c, 9, 39, 0
5, 117891, Note_on_c, 9, 40, 0
5, 118047, Note_on_c, 9, 39, 93
5, 118079, Note_on_c, 9, 40, 17
5, 118299, Note_on_c, 9, 39, 0
5, 118569, Note_on_c, 9, 38, 22
5, 118621, Note_on_c, 9, 38, 0
5, 118797, Note_on_c, 9, 38, 43
5, 118835, Note_on_c, 9, 40, 0
5, 118844, Note_on_c, 9, 38, 0
5, 119020, Note_on_c, 9, 40, 17
5, 119036, Note_on_c, 9, 38, 28
5, 119087, Note_on_c, 9, 38, 0
5, 119288, Note_on_c, 9, 38, 44
5, 119333, Note_on_c, 9, 38, 0
5, 119484, Note_on_c, 9, 39, 79
5, 119671, Note_on_c, 9, 39, 0
5, 119863, Note_on_c, 9, 40, 0
5, 119988, Note_on_c, 9, 39, 85
5, 120020, Note_on_c, 9, 40, 21
5, 120380, Note_on_c, 9, 38, 75
5, 120390, Note_on_c, 9, 39, 0
5, 120474, Note_on_c, 9, 38, 0
5, 120676, Note_on_c, 9, 39, 104
5, 120761, Note_on_c, 9, 40, 0
5, 120837, Note_on_c, 9, 39, 0
5, 120888, Note_on_c, 9, 38, 31
5, 120888, Note_on_c, 9, 38, 0
5, 120966, Note_on_c, 9, 40, 17
5, 121459, Note_on_c, 9, 38, 90
5, 121613, Note_on_c, 9, 38, 0
5, 121771, Note_on_c, 9, 40, 0
5, 121963, Note_on_c, 9, 40, 13
5, 122409, Note_on_c, 9, 38, 81
5, 122424, Note_on_c, 9, 40, 18
5, 122477, Note_on_c, 9, 40, 0
5, 122584, Note_on_c, 9, 38, 0
5, 123351, Note_on_c, 9, 40, 0
5, 123741, Note_on_c, 9, 40, 16
5, 124643, Note_on_c, 9, 40, 0
5, 124777, Note_on_c, 9, 36, 36
5, 124789, Note_on_c, 9, 38, 74
5, 124847, Note_on_c, 9, 40, 11
5, 124933, Note_on_c, 9, 38, 0
5, 125069, Note_on_c, 9, 38, 55
5, 125159, Note_on_c, 9, 40, 0
5, 125193, Note_on_c, 9, 38, 0
5, 125405, Note_on_c, 9, 36, 0
5, 125571, Note_on_c, 9, 38, 55
5, 125693, Note_on_c, 9, 38, 0
5, 125762, Note_on_c, 9, 39, 99
5, 125774, Note_on_c, 9, 36, 30
5, 126107, Note_on_c, 9, 39, 0
5, 126230, Note_on_c, 9, 38, 34
5, 126335, Note_on_c, 9, 38, 0
5, 126396, Note_on_c, 9, 36, 0
5, 126482, Note_on_c, 9, 38, 36
5, 126584, Note_on_c, 9, 38, 0
5, 126684, Note_on_c, 9, 38, 34
5, 126761, Note_on_c, 9, 36, 17
5, 126851, Note_on_c, 9, 38, 0
5, 127208, Note_on_c, 9, 38, 52
5, 127259, Note_on_c, 9, 36, 0
5, 127601, Note_on_c, 9, 38, 0
5, 127697, Note_on_c, 9, 39, 106
5, 127712, Note_on_c, 9, 36, 40
5, 127799, Note_on_c, 9, 36, 0
5, 127855, Note_on_c, 9, 39, 0
5, 127942, Note_on_c, 9, 38, 38
5, 128004, Note_on_c, 9, 38, 0
5, 128008, Note_on_c, 9, 40, 1
5, 128018, Note_on_c, 9, 36, 70
5, 128109, Note_on_c, 9, 38, 57
5, 128204, Note_on_c, 9, 38, 0
5, 128390, Note_on_c, 9, 38, 65
5, 128448, Note_on_c, 9, 36, 0
5, 128494, Note_on_c, 9, 40, 0
5, 128502, Note_on_c, 9, 38, 0
5, 128609, Note_on_c, 9, 38, 40
5, 128681, Note_on_c, 9, 40, 9
5, 128713, Note_on_c, 9, 36, 48
5, 128726, Note_on_c, 9, 38, 0
5, 128882, Note_on_c, 9, 38, 57
5, 128974, Note_on_c, 9, 38, 0
5, 129061, Note_on_c, 9, 36, 0
5, 129330, Note_on_c, 9, 38, 57
5, 129423, Note_on_c, 9, 38, 0
5, 129484, Note_on_c, 9, 40, 0
5, 129545, Note_on_c, 9, 39, 96
5, 129657, Note_on_c, 9, 36, 40
5, 129664, Note_on_c, 9, 40, 9
5, 129838, Note_on_c, 9, 39, 0
5, 129921, Note_on_c, 9, 36, 0
5, 130043, Note_on_c, 9, 38, 46
5, 130199, Note_on_c, 9, 38, 0
5, 130399, Note_on_c, 9, 40, 0
5, 130524, Note_on_c, 9, 38, 36
5, 130532, Note_on_c, 9, 36, 33
5, 130567, Note_on_c, 9, 40, 10
5, 130678, Note_on_c, 9, 38, 0
5, 130707, Note_on_c, 9, 36, 0
5, 131026, Note_on_c, 9, 38, 30
5, 131114, Note_on_c, 9, 38, 0
5, 131323, Note_on_c, 9, 40, 0
5, 131330, Note_on_c, 9, 38, 18
5, 131378, Note_on_c, 9, 38, 0
5, 131493, Note_on_c, 9, 36, 26
5, 131495, Note_on_c, 9, 40, 10
5, 131497, Note_on_c, 9, 39, 94
5, 131825, Note_on_c, 9, 39, 0
5, 131828, Note_on_c, 9, 36, 0
5, 131981, Note_on_c, 9, 38, 38
5, 132058, Note_on_c, 9, 38, 0
5, 132259, Note_on_c, 9, 38, 55
5, 132311, Note_on_c, 9, 40, 0
5, 132319, Note_on_c, 9, 38, 0
5, 132448, Note_on_c, 9, 38, 42
5, 132458, Note_on_c, 9, 36, 25
5, 132492, Note_on_c, 9, 40, 10
5, 132580, Note_on_c, 9, 38, 0
5, 132843, Note_on_c, 9, 36, 0
5, 133228, Note_on_c, 9, 38, 39
5, 133240, Note_on_c, 9, 40, 0
5, 133284, Note_on_c, 9, 38, 0
5, 133395, Note_on_c, 9, 39, 86
5, 133424, Note_on_c, 9, 40, 10
5, 133752, Note_on_c, 9, 39, 0
5, 133897, Note_on_c, 9, 38, 27
5, 134002, Note_on_c, 9, 38, 0
5, 134167, Note_on_c, 9, 38, 40
5, 134194, Note_on_c, 9, 40, 0
5, 134231, Note_on_c, 9, 38, 0
5, 134351, Note_on_c, 9, 38, 44
5, 134387, Note_on_c, 9, 36, 28
5, 134402, Note_on_c, 9, 40, 9
5, 134502, Note_on_c, 9, 38, 0
5, 134867, Note_on_c, 9, 36, 0
5, 134873, Note_on_c, 9, 38, 48
5, 134948, Note_on_c, 9, 38, 0
5, 135149, Note_on_c, 9, 40, 0
5, 135154, Note_on_c, 9, 38, 30
5, 135211, Note_on_c, 9, 38, 0
5, 135285, Note_on_c, 9, 36, 24
5, 135321, Note_on_c, 9, 40, 10
5, 135332, Note_on_c, 9, 39, 42
5, 135384, Note_on_c, 9, 36, 0
5, 135441, Note_on_c, 9, 39, 0
5, 135574, Note_on_c, 9, 36, 71
5, 135584, Note_on_c, 9, 38, 71
5, 135721, Note_on_c, 9, 38, 0
5, 135829, Note_on_c, 9, 38, 45
5, 135913, Note_on_c, 9, 38, 0
5, 135933, Note_on_c, 9, 36, 0
5, 136053, Note_on_c, 9, 40, 0
5, 136312, Note_on_c, 9, 38, 69
5, 136315, Note_on_c, 9, 40, 6
5, 136329, Note_on_c, 9, 36, 33
5, 136455, Note_on_c, 9, 38, 0
5, 136576, Note_on_c, 9, 36, 0
5, 136762, Note_on_c, 9, 38, 56
5, 136864, Note_on_c, 9, 38, 0
5, 137062, Note_on_c, 9, 38, 28
5, 137076, Note_on_c, 9, 40, 0
5, 137115, Note_on_c, 9, 38, 0
5, 137240, Note_on_c, 9, 39, 85
5, 137283, Note_on_c, 9, 40, 7
5, 137296, Note_on_c, 9, 36, 38
5, 137539, Note_on_c, 9, 36, 0
5, 137581, Note_on_c, 9, 39, 0
5, 137736, Note_on_c, 9, 38, 33
5, 137792, Note_on_c, 9, 38, 0
5, 137994, Note_on_c, 9, 38, 60
5, 138031, Note_on_c, 9, 40, 0
5, 138089, Note_on_c, 9, 38, 0
5, 138203, Note_on_c, 9, 38, 46
5, 138258, Note_on_c, 9, 36, 24
5, 138296, Note_on_c, 9, 38, 0
5, 138488, Note_on_c, 9, 38, 56
5, 138505, Note_on_c, 9, 36, 0
5, 138542, Note_on_c, 9, 40, 1
5, 138549, Note_on_c, 9, 38, 0
5, 138668, Note_on_c, 9, 38, 59
5, 138791, Note_on_c, 9, 38, 0
5, 138989, Note_on_c, 9, 38, 56
5, 138993, Note_on_c, 9, 40, 0
5, 139038, Note_on_c, 9, 38, 0
5, 139171, Note_on_c, 9, 39, 91
5, 139177, Note_on_c, 9, 40, 9
5, 139236, Note_on_c, 9, 36, 19
5, 139375, Note_on_c, 9, 36, 0
5, 139532, Note_on_c, 9, 39, 0
5, 139649, Note_on_c, 9, 38, 46
5, 139708, Note_on_c, 9, 38, 0
5, 139906, Note_on_c, 9, 40, 0
5, 139950, Note_on_c, 9, 38, 37
5, 140000, Note_on_c, 9, 38, 0
5, 140116, Note_on_c, 9, 38, 53
5, 140134, Note_on_c, 9, 40, 5
5, 140139, Note_on_c, 9, 36, 27
5, 140363, Note_on_c, 9, 36, 0
5, 140420, Note_on_c, 9, 38, 0
5, 140618, Note_on_c, 9, 39, 77
5, 140879, Note_on_c, 9, 40, 0
5, 140895, Note_on_c, 9, 39, 0
5, 141087, Note_on_c, 9, 40, 9
5, 141135, Note_on_c, 9, 38, 23
5, 141187, Note_on_c, 9, 38, 0
5, 141372, Note_on_c, 9, 38, 56
5, 141390, Note_on_c, 9, 36, 73
5, 141430, Note_on_c, 9, 38, 0
5, 141567, Note_on_c, 9, 38, 29
5, 141649, Note_on_c, 9, 38, 0
5, 141710, Note_on_c, 9, 36, 0
5, 141776, Note_on_c, 9, 40, 0
5, 142035, Note_on_c, 9, 40, 9
5, 142052, Note_on_c, 9, 36, 35
5, 142075, Note_on_c, 9, 38, 62
5, 142196, Note_on_c, 9, 38, 0
5, 142323, Note_on_c, 9, 36, 0
5, 142541, Note_on_c, 9, 39, 93
5, 142733, Note_on_c, 9, 39, 0
5, 142837, Note_on_c, 9, 40, 0
5, 142837, Note_on_c, 9, 38, 39
5, 142884, Note_on_c, 9, 38, 0
5, 143010, Note_on_c, 9, 40, 10
5, 143042, Note_on_c, 9, 36, 28
5, 143282, Note_on_c, 9, 38, 63
5, 143346, Note_on_c, 9, 38, 0
5, 143404, Note_on_c, 9, 36, 0
5, 143473, Note_on_c, 9, 38, 46
5, 143574, Note_on_c, 9, 38, 0
5, 143775, Note_on_c, 9, 40, 0
5, 143954, Note_on_c, 9, 38, 66
5, 143989, Note_on_c, 9, 40, 11
5, 144004, Note_on_c, 9, 36, 24
5, 144119, Note_on_c, 9, 38, 0
5, 144264, Note_on_c, 9, 36, 0
5, 144703, Note_on_c, 9, 38, 27
5, 144756, Note_on_c, 9, 38, 0
5, 144804, Note_on_c, 9, 40, 0
5, 144885, Note_on_c, 9, 39, 87
5, 144919, Note_on_c, 9, 36, 28
5, 144959, Note_on_c, 9, 40, 11
5, 145179, Note_on_c, 9, 36, 0
5, 145193, Note_on_c, 9, 39, 0
5, 145642, Note_on_c, 9, 38, 42
5, 145693, Note_on_c, 9, 40, 0
5, 145695, Note_on_c, 9, 38, 0
5, 145869, Note_on_c, 9, 38, 33
5, 145874, Note_on_c, 9, 36, 31
5, 145927, Note_on_c, 9, 40, 7
5, 145945, Note_on_c, 9, 38, 0
5, 146147, Note_on_c, 9, 38, 52
5, 146204, Note_on_c, 9, 38, 0
5, 146254, Note_on_c, 9, 36, 0
5, 146585, Note_on_c, 9, 40, 0
5, 146715, Note_on_c, 9, 38, 46
5, 146761, Note_on_c, 9, 38, 0
5, 146833, Note_on_c, 9, 40, 9
5, 146888, Note_on_c, 9, 39, 85
5, 147160, Note_on_c, 9, 36, 68
5, 147240, Note_on_c, 9, 39, 0
5, 147403, Note_on_c, 9, 38, 38
5, 147464, Note_on_c, 9, 38, 0
5, 147589, Note_on_c, 9, 40, 0
5, 147599, Note_on_c, 9, 36, 0
5, 147662, Note_on_c, 9, 38, 39
5, 147716, Note_on_c, 9, 38, 0
5, 147806, Note_on_c, 9, 40, 12
5, 147854, Note_on_c, 9, 38, 38
5, 147903, Note_on_c, 9, 36, 28
5, 148149, Note_on_c, 9, 38, 0
5, 148176, Note_on_c, 9, 36, 0
5, 148603, Note_on_c, 9, 38, 36
5, 148648, Note_on_c, 9, 40, 0
5, 148661, Note_on_c, 9, 38, 0
5, 148791, Note_on_c, 9, 39, 94
5, 148817, Note_on_c, 9, 36, 33
5, 148824, Note_on_c, 9, 40, 11
5, 149010, Note_on_c, 9, 36, 0
5, 149154, Note_on_c, 9, 39, 0
5, 149272, Note_on_c, 9, 38, 29
5, 149336, Note_on_c, 9, 36, 59
5, 149344, Note_on_c, 9, 38, 0
5, 149521, Note_on_c, 9, 38, 74
5, 149607, Note_on_c, 9, 40, 0
5, 149733, Note_on_c, 9, 36, 0
5, 149764, Note_on_c, 9, 38, 0
5, 149821, Note_on_c, 9, 40, 8
5, 150013, Note_on_c, 9, 38, 55
5, 150086, Note_on_c, 9, 38, 0
5, 150173, Note_on_c, 9, 38, 18
5, 150248, Note_on_c, 9, 38, 0
5, 150527, Note_on_c, 9, 40, 0
5, 150564, Note_on_c, 9, 38, 45
5, 150656, Note_on_c, 9, 38, 0
5, 150732, Note_on_c, 9, 40, 9
5, 150734, Note_on_c, 9, 39, 83
5, 150766, Note_on_c, 9, 36, 17
5, 150891, Note_on_c, 9, 36, 0
5, 151131, Note_on_c, 9, 39, 0
5, 151223, Note_on_c, 9, 38, 37
5, 151311, Note_on_c, 9, 38, 0
5, 151483, Note_on_c, 9, 40, 0
5, 151496, Note_on_c, 9, 38, 50
5, 151565, Note_on_c, 9, 38, 0
5, 151665, Note_on_c, 9, 40, 10
5, 151682, Note_on_c, 9, 36, 22
5, 151715, Note_on_c, 9, 38, 39
5, 151766, Note_on_c, 9, 38, 0
5, 151805, Note_on_c, 9, 36, 0
5, 152168, Note_on_c, 9, 38, 74
5, 152270, Note_on_c, 9, 38, 0
5, 152506, Note_on_c, 9, 40, 0
5, 152606, Note_on_c, 9, 36, 30
5, 152622, Note_on_c, 9, 39, 91
5, 152632, Note_on_c, 9, 40, 8
5, 152754, Note_on_c, 9, 39, 0
5, 152862, Note_on_c, 9, 36, 0
5, 153359, Note_on_c, 9, 38, 73
5, 153459, Note_on_c, 9, 40, 0
5, 153513, Note_on_c, 9, 38, 0
5, 153587, Note_on_c, 9, 38, 19
5, 153609, Note_on_c, 9, 36, 28
5, 153635, Note_on_c, 9, 40, 10
5, 153812, Note_on_c, 9, 36, 0
5, 154002, Note_on_c, 9, 38, 0
5, 154047, Note_on_c, 9, 45, 112
5, 154350, Note_on_c, 9, 45, 0
5, 154356, Note_on_c, 9, 40, 0
5, 154585, Note_on_c, 9, 40, 7
5, 154825, Note_on_c, 9, 36, 83
5, 154829, Note_on_c, 9, 43, 109
5, 155071, Note_on_c, 9, 36, 0
5, 155105, Note_on_c, 9, 43, 0
5, 155107, Note_on_c, 9, 40, 0
5, 155260, Note_on_c, 9, 38, 33
5, 155306, Note_on_c, 9, 38, 0
5, 155482, Note_on_c, 9, 40, 10
5, 155498, Note_on_c, 9, 38, 41
5, 155501, Note_on_c, 9, 36, 41
5, 155608, Note_on_c, 9, 36, 0
5, 155689, Note_on_c, 9, 38, 0
5, 155962, Note_on_c, 9, 38, 60
5, 156077, Note_on_c, 9, 38, 0
5, 156213, Note_on_c, 9, 38, 41
5, 156249, Note_on_c, 9, 40, 0
5, 156314, Note_on_c, 9, 38, 0
5, 156435, Note_on_c, 9, 39, 76
5, 156449, Note_on_c, 9, 40, 9
5, 156462, Note_on_c, 9, 36, 31
5, 156625, Note_on_c, 9, 36, 0
5, 156696, Note_on_c, 9, 39, 0
5, 156906, Note_on_c, 9, 38, 39
5, 156965, Note_on_c, 9, 38, 0
5, 157168, Note_on_c, 9, 40, 0
5, 157180, Note_on_c, 9, 38, 30
5, 157230, Note_on_c, 9, 38, 0
5, 157421, Note_on_c, 9, 40, 11
5, 157426, Note_on_c, 9, 36, 26
5, 157638, Note_on_c, 9, 38, 37
5, 157671, Note_on_c, 9, 36, 0
5, 157686, Note_on_c, 9, 38, 0
5, 157828, Note_on_c, 9, 38, 33
5, 157875, Note_on_c, 9, 38, 0
5, 158107, Note_on_c, 9, 38, 33
5, 158162, Note_on_c, 9, 38, 0
5, 158184, Note_on_c, 9, 40, 0
5, 158204, Note_on_c, 9, 36, 24
5, 158325, Note_on_c, 9, 36, 0
5, 158344, Note_on_c, 9, 39, 79
5, 158431, Note_on_c, 9, 40, 9
5, 158491, Note_on_c, 9, 39, 0
5, 158588, Note_on_c, 9, 39, 55
5, 158722, Note_on_c, 9, 39, 0
5, 158791, Note_on_c, 9, 38, 59
5, 158810, Note_on_c, 9, 36, 83
5, 158843, Note_on_c, 9, 38, 0
5, 159019, Note_on_c, 9, 40, 0
5, 159061, Note_on_c, 9, 38, 76
5, 159152, Note_on_c, 9, 36, 0
5, 159177, Note_on_c, 9, 38, 0
5, 159265, Note_on_c, 9, 38, 55
5, 159312, Note_on_c, 9, 40, 11
5, 159387, Note_on_c, 9, 38, 0
5, 159778, Note_on_c, 9, 38, 68
5, 159899, Note_on_c, 9, 38, 0
5, 160035, Note_on_c, 9, 38, 38
5, 160080, Note_on_c, 9, 40, 0
5, 160147, Note_on_c, 9, 38, 0
5, 160270, Note_on_c, 9, 39, 78
5, 160274, Note_on_c, 9, 36, 33
5, 160291, Note_on_c, 9, 40, 9
5, 160476, Note_on_c, 9, 36, 0
5, 160476, Note_on_c, 9, 39, 0
5, 160763, Note_on_c, 9, 38, 40
5, 160826, Note_on_c, 9, 38, 0
5, 160858, Note_on_c, 9, 40, 0
5, 161034, Note_on_c, 9, 40, 10
5, 161037, Note_on_c, 9, 38, 68
5, 161179, Note_on_c, 9, 38, 0
5, 161541, Note_on_c, 9, 38, 59
5, 161591, Note_on_c, 9, 38, 0
5, 161731, Note_on_c, 9, 38, 37
5, 161815, Note_on_c, 9, 38, 0
5, 161995, Note_on_c, 9, 38, 43
5, 162011, Note_on_c, 9, 40, 0
5, 162079, Note_on_c, 9, 38, 0
5, 162171, Note_on_c, 9, 40, 11
5, 162205, Note_on_c, 9, 39, 91
5, 162542, Note_on_c, 9, 39, 0
5, 162682, Note_on_c, 9, 38, 34
5, 162770, Note_on_c, 9, 38, 0
5, 162837, Note_on_c, 9, 40, 0
5, 162949, Note_on_c, 9, 38, 62
5, 162995, Note_on_c, 9, 40, 13
5, 163071, Note_on_c, 9, 38, 0
5, 163085, Note_on_c, 9, 40, 0
5, 163179, Note_on_c, 9, 40, 10
5, 163311, Note_on_c, 9, 36, 22
5, 163438, Note_on_c, 9, 38, 44
5, 163457, Note_on_c, 9, 36, 0
5, 163502, Note_on_c, 9, 38, 0
5, 163631, Note_on_c, 9, 39, 70
5, 163937, Note_on_c, 9, 39, 0
5, 163989, Note_on_c, 9, 40, 0
5, 164134, Note_on_c, 9, 40, 12
5, 164378, Note_on_c, 9, 38, 49
5, 164467, Note_on_c, 9, 38, 0
5, 164572, Note_on_c, 9, 38, 28
5, 164646, Note_on_c, 9, 38, 0
5, 164860, Note_on_c, 9, 38, 52
5, 164907, Note_on_c, 9, 38, 0
5, 164965, Note_on_c, 9, 40, 0
5, 165064, Note_on_c, 9, 38, 59
5, 165111, Note_on_c, 9, 36, 24
5, 165134, Note_on_c, 9, 40, 13
5, 165226, Note_on_c, 9, 36, 0
5, 165279, Note_on_c, 9, 38, 0
5, 165559, Note_on_c, 9, 38, 38
5, 165622, Note_on_c, 9, 38, 0
5, 165716, Note_on_c, 9, 40, 0
5, 165842, Note_on_c, 9, 38, 20
5, 165847, Note_on_c, 9, 40, 15
5, 165886, Note_on_c, 9, 38, 0
5, 166048, Note_on_c, 9, 39, 77
5, 166073, Note_on_c, 9, 36, 17
5, 166207, Note_on_c, 9, 36, 0
5, 166326, Note_on_c, 9, 39, 0
5, 166357, Note_on_c, 9, 36, 77
5, 166533, Note_on_c, 9, 38, 26
5, 166607, Note_on_c, 9, 38, 0
5, 166716, Note_on_c, 9, 36, 0
5, 166783, Note_on_c, 9, 40, 0
5, 166794, Note_on_c, 9, 38, 59
5, 166837, Note_on_c, 9, 38, 0
5, 166999, Note_on_c, 9, 40, 14
5, 167052, Note_on_c, 9, 36, 38
5, 167193, Note_on_c, 9, 36, 0
5, 167223, Note_on_c, 9, 39, 85
5, 167342, Note_on_c, 9, 39, 0
5, 167411, Note_on_c, 9, 39, 63
5, 167528, Note_on_c, 9, 39, 0
5, 167610, Note_on_c, 9, 40, 0
5, 167729, Note_on_c, 9, 38, 43
5, 167759, Note_on_c, 9, 40, 17
5, 167825, Note_on_c, 9, 40, 0
5, 167843, Note_on_c, 9, 38, 0
5, 167917, Note_on_c, 9, 39, 86
5, 167960, Note_on_c, 9, 40, 14
5, 167961, Note_on_c, 9, 36, 28
5, 168096, Note_on_c, 9, 36, 0
5, 168264, Note_on_c, 9, 39, 0
5, 168361, Note_on_c, 9, 38, 57
5, 168437, Note_on_c, 9, 38, 0
5, 168625, Note_on_c, 9, 40, 0
5, 168649, Note_on_c, 9, 38, 55
5, 168737, Note_on_c, 9, 38, 0
5, 168850, Note_on_c, 9, 36, 29
5, 168867, Note_on_c, 9, 40, 13
5, 168874, Note_on_c, 9, 38, 51
5, 169014, Note_on_c, 9, 38, 0
5, 169123, Note_on_c, 9, 36, 0
5, 169138, Note_on_c, 9, 38, 40
5, 169199, Note_on_c, 9, 38, 0
5, 169370, Note_on_c, 9, 45, 107
5, 169684, Note_on_c, 9, 38, 37
5, 169713, Note_on_c, 9, 40, 0
5, 169736, Note_on_c, 9, 38, 0
5, 169739, Note_on_c, 9, 45, 0
5, 169837, Note_on_c, 9, 43, 76
5, 169848, Note_on_c, 9, 36, 31
5, 169851, Note_on_c, 9, 40, 15
5, 169979, Note_on_c, 9, 36, 0
5, 170004, Note_on_c, 9, 43, 0
5, 170112, Note_on_c, 9, 38, 68
5, 170201, Note_on_c, 9, 38, 0
5, 170324, Note_on_c, 9, 40, 16
5, 170454, Note_on_c, 9, 40, 0
5, 170564, Note_on_c, 9, 38, 53
5, 170623, Note_on_c, 9, 40, 0
5, 170632, Note_on_c, 9, 38, 0
5, 170784, Note_on_c, 9, 40, 12
5, 170792, Note_on_c, 9, 38, 46
5, 170914, Note_on_c, 9, 38, 0
5, 171297, Note_on_c, 9, 38, 52
5, 171504, Note_on_c, 9, 38, 0
5, 171618, Note_on_c, 9, 40, 0
5, 171760, Note_on_c, 9, 40, 12
5, 171791, Note_on_c, 9, 39, 84
5, 171987, Note_on_c, 9, 39, 0
5, 172146, Note_on_c, 9, 38, 53
5, 172195, Note_on_c, 9, 38, 0
5, 172404, Note_on_c, 9, 40, 0
5, 172564, Note_on_c, 9, 40, 10
5, 172604, Note_on_c, 9, 38, 75
5, 172641, Note_on_c, 9, 40, 0
5, 172695, Note_on_c, 9, 38, 0
5, 172754, Note_on_c, 9, 40, 15
5, 172789, Note_on_c, 9, 38, 61
5, 173006, Note_on_c, 9, 36, 51
5, 173064, Note_on_c, 9, 38, 0
5, 173208, Note_on_c, 9, 36, 0
5, 173257, Note_on_c, 9, 38, 43
5, 173352, Note_on_c, 9, 38, 0
5, 173469, Note_on_c, 9, 40, 0
5, 173509, Note_on_c, 9, 38, 31
5, 173594, Note_on_c, 9, 38, 0
5, 173705, Note_on_c, 9, 39, 87
5, 173715, Note_on_c, 9, 36, 51
5, 173725, Note_on_c, 9, 40, 13
5, 173957, Note_on_c, 9, 36, 0
5, 173964, Note_on_c, 9, 39, 0
5, 174161, Note_on_c, 9, 38, 42
5, 174254, Note_on_c, 9, 38, 0
5, 174306, Note_on_c, 9, 40, 0
5, 174436, Note_on_c, 9, 38, 70
5, 174505, Note_on_c, 9, 40, 11
5, 174585, Note_on_c, 9, 40, 0
5, 174598, Note_on_c, 9, 38, 0
5, 174711, Note_on_c, 9, 40, 14
5, 174896, Note_on_c, 9, 38, 55
5, 174950, Note_on_c, 9, 38, 0
5, 175287, Note_on_c, 9, 40, 0
5, 175387, Note_on_c, 9, 38, 48
5, 175470, Note_on_c, 9, 38, 0
5, 175592, Note_on_c, 9, 39, 95
5, 175643, Note_on_c, 9, 40, 11
5, 175679, Note_on_c, 9, 36, 22
5, 175770, Note_on_c, 9, 36, 0
5, 175910, Note_on_c, 9, 39, 0
5, 176077, Note_on_c, 9, 38, 27
5, 176165, Note_on_c, 9, 38, 0
5, 176196, Note_on_c, 9, 40, 0
5, 176336, Note_on_c, 9, 38, 47
5, 176392, Note_on_c, 9, 38, 0
5, 176556, Note_on_c, 9, 38, 48
5, 176583, Note_on_c, 9, 40, 13
5, 176638, Note_on_c, 9, 36, 24
5, 176696, Note_on_c, 9, 38, 0
5, 176781, Note_on_c, 9, 36, 0
5, 176886, Note_on_c, 9, 38, 22
5, 176936, Note_on_c, 9, 38, 0
5, 177041, Note_on_c, 9, 39, 99
5, 177198, Note_on_c, 9, 40, 0
5, 177364, Note_on_c, 9, 40, 11
5, 177423, Note_on_c, 9, 39, 0
5, 177443, Note_on_c, 9, 40, 0
5, 177587, Note_on_c, 9, 40, 11
5, 177795, Note_on_c, 9, 38, 56
5, 177865, Note_on_c, 9, 38, 0
5, 178224, Note_on_c, 9, 40, 0
5, 178304, Note_on_c, 9, 38, 41
5, 178348, Note_on_c, 9, 38, 0
5, 178393, Note_on_c, 9, 40, 9
5, 178486, Note_on_c, 9, 38, 68
5, 178711, Note_on_c, 9, 38, 0
5, 178981, Note_on_c, 9, 38, 59
5, 179135, Note_on_c, 9, 38, 0
5, 179142, Note_on_c, 9, 40, 0
5, 179236, Note_on_c, 9, 38, 55
5, 179282, Note_on_c, 9, 38, 0
5, 179453, Note_on_c, 9, 36, 33
5, 179454, Note_on_c, 9, 40, 13
5, 179456, Note_on_c, 9, 39, 96
5, 179566, Note_on_c, 9, 36, 0
5, 179811, Note_on_c, 9, 39, 0
5, 179908, Note_on_c, 9, 38, 44
5, 180000, Note_on_c, 9, 38, 0
5, 180063, Note_on_c, 9, 40, 0
5, 180181, Note_on_c, 9, 38, 55
5, 180221, Note_on_c, 9, 40, 12
5, 180229, Note_on_c, 9, 38, 0
5, 180313, Note_on_c, 9, 40, 0
5, 180396, Note_on_c, 9, 38, 61
5, 180420, Note_on_c, 9, 36, 31
5, 180443, Note_on_c, 9, 40, 13
5, 180507, Note_on_c, 9, 38, 0
5, 180520, Note_on_c, 9, 36, 0
5, 180886, Note_on_c, 9, 38, 55
5, 180993, Note_on_c, 9, 38, 0
5, 181187, Note_on_c, 9, 40, 0
5, 181227, Note_on_c, 9, 36, 44
5, 181294, Note_on_c, 9, 36, 0
5, 181349, Note_on_c, 9, 40, 12
5, 181399, Note_on_c, 9, 39, 83
5, 181527, Note_on_c, 9, 39, 0
5, 181629, Note_on_c, 9, 36, 85
5, 181648, Note_on_c, 9, 39, 61
5, 181797, Note_on_c, 9, 39, 0
5, 181845, Note_on_c, 9, 38, 58
5, 181888, Note_on_c, 9, 38, 0
5, 181955, Note_on_c, 9, 40, 0
5, 181963, Note_on_c, 9, 36, 0
5, 182088, Note_on_c, 9, 40, 14
5, 182215, Note_on_c, 9, 40, 0
5, 182318, Note_on_c, 9, 40, 10
5, 182382, Note_on_c, 9, 36, 37
5, 182610, Note_on_c, 9, 36, 0
5, 183072, Note_on_c, 9, 40, 0
5, 183283, Note_on_c, 9, 59, 39
5, 183313, Note_on_c, 9, 40, 12
5, 183350, Note_on_c, 9, 59, 0
5, 183788, Note_on_c, 9, 59, 71
5, 183842, Note_on_c, 9, 59, 0
5, 183987, Note_on_c, 9, 40, 0
5, 184303, Note_on_c, 9, 40, 11
5, 184788, Note_on_c, 9, 59, 59
5, 184839, Note_on_c, 9, 59, 0
5, 185018, Note_on_c, 9, 40, 0
5, 185274, Note_on_c, 9, 40, 13
5, 185297, Note_on_c, 9, 59, 57
5, 185349, Note_on_c, 9, 59, 0
5, 185537, Note_on_c, 9, 47, 79
5, 185644, Note_on_c, 9, 47, 0
5, 185943, Note_on_c, 9, 40, 0
5, 186013, Note_on_c, 9, 59, 62
5, 186072, Note_on_c, 9, 59, 0
5, 186215, Note_on_c, 9, 40, 18
5, 186235, Note_on_c, 9, 59, 80
5, 186235, Note_on_c, 9, 47, 79
5, 186345, Note_on_c, 9, 40, 0
5, 186457, Note_on_c, 9, 47, 0
5, 186481, Note_on_c, 9, 59, 0
5, 186993, Note_on_c, 9, 59, 54
5, 187029, Note_on_c, 9, 47, 71
5, 187051, Note_on_c, 9, 59, 0
5, 187143, Note_on_c, 9, 47, 0
5, 187189, Note_on_c, 9, 59, 68
5, 187451, Note_on_c, 9, 59, 0
5, 187696, Note_on_c, 9, 47, 64
5, 187877, Note_on_c, 9, 47, 0
5, 187980, Note_on_c, 9, 59, 42
5, 188039, Note_on_c, 9, 59, 0
5, 188156, Note_on_c, 9, 59, 62
5, 188358, Note_on_c, 9, 59, 0
5, 188886, Note_on_c, 9, 59, 49
5, 188945, Note_on_c, 9, 59, 0
5, 189112, Note_on_c, 9, 59, 48
5, 189220, Note_on_c, 9, 59, 0
5, 189363, Note_on_c, 9, 53, 50
5, 189804, Note_on_c, 9, 53, 0
5, 189891, Note_on_c, 9, 59, 61
5, 189966, Note_on_c, 9, 59, 0
5, 190091, Note_on_c, 9, 59, 57
5, 190304, Note_on_c, 9, 59, 0
5, 190535, Note_on_c, 9, 59, 67
5, 190764, Note_on_c, 9, 59, 0
5, 191053, Note_on_c, 9, 59, 64
5, 191148, Note_on_c, 9, 59, 0
5, 191339, Note_on_c, 9, 59, 58
5, 191480, Note_on_c, 9, 59, 0
5, 191771, Note_on_c, 9, 59, 68
5, 191904, Note_on_c, 9, 59, 0
5, 192226, Note_on_c, 9, 59, 71
5, 192235, Note_on_c, 9, 47, 55
5, 192278, Note_on_c, 9, 47, 0
5, 192340, Note_on_c, 9, 59, 0
5, 192699, Note_on_c, 9, 59, 68
5, 192827, Note_on_c, 9, 59, 0
5, 192915, Note_on_c, 9, 47, 59
5, 192936, Note_on_c, 9, 59, 52
5, 193052, Note_on_c, 9, 47, 0
5, 193160, Note_on_c, 9, 59, 0
5, 193417, Note_on_c, 9, 47, 36
5, 193435, Note_on_c, 9, 59, 60
5, 193473, Note_on_c, 9, 47, 0
5, 193606, Note_on_c, 9, 59, 0
5, 193675, Note_on_c, 9, 47, 32
5, 193719, Note_on_c, 9, 59, 54
5, 193727, Note_on_c, 9, 47, 0
5, 193788, Note_on_c, 9, 59, 0
5, 193909, Note_on_c, 9, 59, 72
5, 194225, Note_on_c, 9, 59, 0
5, 194373, Note_on_c, 9, 59, 49
5, 194475, Note_on_c, 9, 59, 0
5, 194748, Note_on_c, 9, 59, 46
5, 194850, Note_on_c, 9, 59, 0
5, 194914, Note_on_c, 9, 59, 66
5, 195112, Note_on_c, 9, 59, 0
5, 195367, Note_on_c, 9, 59, 64
5, 195543, Note_on_c, 9, 59, 0
5, 195686, Note_on_c, 9, 59, 46
5, 195746, Note_on_c, 9, 59, 0
5, 195853, Note_on_c, 9, 59, 58
5, 196066, Note_on_c, 9, 59, 0
5, 196150, Note_on_c, 9, 53, 59
5, 196279, Note_on_c, 9, 59, 63
5, 196441, Note_on_c, 9, 53, 0
5, 196590, Note_on_c, 9, 59, 0
5, 196805, Note_on_c, 9, 59, 72
5, 196807, Note_on_c, 9, 39, 26
5, 196940, Note_on_c, 9, 39, 0
5, 197039, Note_on_c, 9, 39, 62
5, 197113, Note_on_c, 9, 59, 0
5, 197129, Note_on_c, 9, 39, 0
5, 197297, Note_on_c, 9, 59, 62
5, 197402, Note_on_c, 9, 59, 0
5, 197490, Note_on_c, 9, 36, 32
5, 197548, Note_on_c, 9, 36, 0
5, 197551, Note_on_c, 9, 59, 74
5, 197787, Note_on_c, 9, 59, 0
5, 198048, Note_on_c, 9, 59, 58
5, 198107, Note_on_c, 9, 59, 0
5, 198229, Note_on_c, 9, 59, 66
5, 198557, Note_on_c, 9, 59, 0
5, 198729, Note_on_c, 9, 59, 82
5, 198940, Note_on_c, 9, 39, 57
5, 198988, Note_on_c, 9, 39, 0
5, 198990, Note_on_c, 9, 59, 0
5, 199138, Note_on_c, 9, 36, 27
5, 199197, Note_on_c, 9, 59, 48
5, 199220, Note_on_c, 9, 36, 0
5, 199262, Note_on_c, 9, 59, 0
5, 199460, Note_on_c, 9, 59, 82
5, 199755, Note_on_c, 9, 59, 0
5, 199942, Note_on_c, 9, 59, 51
5, 199998, Note_on_c, 9, 59, 0
5, 200124, Note_on_c, 9, 59, 58
5, 200261, Note_on_c, 9, 59, 0
5, 200599, Note_on_c, 9, 59, 85
5, 200736, Note_on_c, 9, 59, 0
5, 201115, Note_on_c, 9, 59, 29
5, 201172, Note_on_c, 9, 59, 0
5, 201337, Note_on_c, 9, 59, 81
5, 201584, Note_on_c, 9, 59, 0
5, 201858, Note_on_c, 9, 59, 45
5, 201921, Note_on_c, 9, 59, 0
5, 202036, Note_on_c, 9, 59, 75
5, 202249, Note_on_c, 9, 59, 0
5, 202563, Note_on_c, 9, 59, 92
5, 202728, Note_on_c, 9, 59, 0
5, 203069, Note_on_c, 9, 59, 30
5, 203125, Note_on_c, 9, 59, 0
5, 203309, Note_on_c, 9, 59, 78
5, 203391, Note_on_c, 9, 59, 0
5, 203511, Note_on_c, 9, 59, 80
5, 203766, Note_on_c, 9, 59, 0
5, 203982, Note_on_c, 9, 59, 47
5, 204047, Note_on_c, 9, 59, 0
5, 204236, Note_on_c, 9, 59, 87
5, 204484, Note_on_c, 9, 59, 0
5, 204690, Note_on_c, 9, 36, 80
5, 204750, Note_on_c, 9, 59, 48
5, 204806, Note_on_c, 9, 59, 0
5, 204916, Note_on_c, 9, 36, 0
5, 204926, Note_on_c, 9, 59, 79
5, 205148, Note_on_c, 9, 59, 0
5, 205262, Note_on_c, 9, 59, 53
5, 205395, Note_on_c, 9, 36, 36
5, 205487, Note_on_c, 9, 59, 0
5, 205497, Note_on_c, 9, 36, 0
5, 205718, Note_on_c, 9, 59, 80
5, 205846, Note_on_c, 9, 59, 0
5, 206195, Note_on_c, 9, 59, 54
5, 206250, Note_on_c, 9, 59, 0
5, 206369, Note_on_c, 9, 59, 65
5, 206391, Note_on_c, 9, 36, 27
5, 206499, Note_on_c, 9, 36, 0
5, 206552, Note_on_c, 9, 59, 0
5, 206650, Note_on_c, 9, 53, 62
5, 206732, Note_on_c, 9, 59, 68
5, 206842, Note_on_c, 9, 59, 0
5, 207156, Note_on_c, 9, 36, 29
5, 207199, Note_on_c, 9, 53, 0
5, 207218, Note_on_c, 9, 36, 0
5, 207330, Note_on_c, 9, 59, 79
5, 207332, Note_on_c, 9, 53, 51
5, 207633, Note_on_c, 9, 59, 0
5, 207760, Note_on_c, 9, 53, 0
5, 207819, Note_on_c, 9, 59, 52
5, 207878, Note_on_c, 9, 59, 0
5, 208094, Note_on_c, 9, 59, 73
5, 208122, Note_on_c, 9, 53, 54
5, 208357, Note_on_c, 9, 59, 0
5, 208404, Note_on_c, 9, 53, 0
5, 208562, Note_on_c, 9, 47, 77
5, 208565, Note_on_c, 9, 59, 40
5, 208638, Note_on_c, 9, 59, 0
5, 208661, Note_on_c, 9, 47, 0
5, 208757, Note_on_c, 9, 45, 49
5, 208782, Note_on_c, 9, 53, 38
5, 208796, Note_on_c, 9, 59, 75
5, 208804, Note_on_c, 9, 45, 0
5, 208974, Note_on_c, 9, 53, 0
5, 209030, Note_on_c, 9, 36, 40
5, 209097, Note_on_c, 9, 59, 0
5, 209126, Note_on_c, 9, 36, 0
5, 209295, Note_on_c, 9, 59, 36
5, 209377, Note_on_c, 9, 59, 0
5, 209553, Note_on_c, 9, 59, 77
5, 209756, Note_on_c, 9, 59, 0
5, 210021, Note_on_c, 9, 59, 50
5, 210080, Note_on_c, 9, 59, 0
5, 210216, Note_on_c, 9, 59, 75
5, 210237, Note_on_c, 9, 36, 28
5, 210278, Note_on_c, 9, 36, 0
5, 210506, Note_on_c, 9, 59, 0
5, 210702, Note_on_c, 9, 59, 39
5, 210771, Note_on_c, 9, 59, 0
5, 210976, Note_on_c, 9, 59, 71
5, 211050, Note_on_c, 9, 59, 0
5, 211169, Note_on_c, 9, 59, 72
5, 211456, Note_on_c, 9, 59, 0
5, 211457, Note_on_c, 9, 36, 66
5, 211628, Note_on_c, 9, 36, 0
5, 211678, Note_on_c, 9, 59, 43
5, 211747, Note_on_c, 9, 59, 0
5, 211931, Note_on_c, 9, 59, 80
5, 212146, Note_on_c, 9, 59, 0
5, 212209, Note_on_c, 9, 36, 32
5, 212268, Note_on_c, 9, 36, 0
5, 212453, Note_on_c, 9, 59, 37
5, 212521, Note_on_c, 9, 59, 0
5, 212608, Note_on_c, 9, 59, 79
5, 212918, Note_on_c, 9, 59, 0
5, 213379, Note_on_c, 9, 59, 82
5, 213526, Note_on_c, 9, 59, 0
5, 213801, Note_on_c, 9, 39, 62
5, 213829, Note_on_c, 9, 59, 72
5, 213844, Note_on_c, 9, 39, 0
5, 213880, Note_on_c, 9, 59, 0
5, 213999, Note_on_c, 9, 39, 53
5, 214005, Note_on_c, 9, 59, 80
5, 214092, Note_on_c, 9, 39, 0
5, 214270, Note_on_c, 9, 59, 0
5, 214327, Note_on_c, 9, 36, 31
5, 214378, Note_on_c, 9, 36, 0
5, 214529, Note_on_c, 9, 59, 46
5, 214593, Note_on_c, 9, 59, 0
5, 214784, Note_on_c, 9, 39, 33
5, 214792, Note_on_c, 9, 59, 87
5, 214828, Note_on_c, 9, 39, 0
5, 214967, Note_on_c, 9, 59, 0
5, 215261, Note_on_c, 9, 59, 83
5, 215271, Note_on_c, 9, 39, 68
5, 215352, Note_on_c, 9, 39, 0
5, 215407, Note_on_c, 9, 59, 0
5, 215724, Note_on_c, 9, 59, 87
5, 215758, Note_on_c, 9, 39, 60
5, 215824, Note_on_c, 9, 39, 0
5, 215913, Note_on_c, 9, 59, 0
5, 216222, Note_on_c, 9, 39, 73
5, 216232, Note_on_c, 9, 59, 61
5, 216297, Note_on_c, 9, 59, 0
5, 216322, Note_on_c, 9, 39, 0
5, 216388, Note_on_c, 9, 39, 63
5, 216434, Note_on_c, 9, 59, 59
5, 216471, Note_on_c, 9, 39, 0
5, 216626, Note_on_c, 9, 59, 0
5, 216684, Note_on_c, 9, 36, 68
5, 216777, Note_on_c, 9, 36, 0
5, 216862, Note_on_c, 9, 36, 66
5, 216868, Note_on_c, 9, 57, 21
5, 216972, Note_on_c, 9, 57, 0
5, 216978, Note_on_c, 9, 59, 63
5, 217036, Note_on_c, 9, 36, 0
5, 217118, Note_on_c, 9, 59, 0
5, 217481, Note_on_c, 9, 59, 36
5, 217547, Note_on_c, 9, 59, 0
5, 217726, Note_on_c, 9, 59, 77
5, 217832, Note_on_c, 9, 59, 0
5, 218235, Note_on_c, 9, 59, 74
5, 218308, Note_on_c, 9, 59, 0
5, 218436, Note_on_c, 9, 59, 51
5, 218536, Note_on_c, 9, 59, 0
5, 218572, Note_on_c, 9, 40, 28
5, 218625, Note_on_c, 9, 40, 0
5, 218875, Note_on_c, 9, 59, 74
5, 218997, Note_on_c, 9, 59, 0
5, 219072, Note_on_c, 9, 40, 19
5, 219126, Note_on_c, 9, 40, 0
5, 219353, Note_on_c, 9, 59, 35
5, 219419, Note_on_c, 9, 59, 0
5, 219591, Note_on_c, 9, 59, 80
5, 219703, Note_on_c, 9, 40, 22
5, 219773, Note_on_c, 9, 59, 0
5, 219777, Note_on_c, 9, 40, 0
5, 220048, Note_on_c, 9, 59, 60
5, 220109, Note_on_c, 9, 59, 0
5, 220249, Note_on_c, 9, 59, 71
5, 220482, Note_on_c, 9, 36, 32
5, 220502, Note_on_c, 9, 59, 0
5, 220570, Note_on_c, 9, 36, 0
5, 220689, Note_on_c, 9, 36, 49
5, 220762, Note_on_c, 9, 59, 48
5, 220826, Note_on_c, 9, 36, 0
5, 220834, Note_on_c, 9, 59, 0
5, 220989, Note_on_c, 9, 59, 69
5, 221119, Note_on_c, 9, 59, 0
5, 221183, Note_on_c, 9, 59, 45
5, 221382, Note_on_c, 9, 59, 0
5, 221677, Note_on_c, 9, 59, 77
5, 221912, Note_on_c, 9, 59, 0
5, 222151, Note_on_c, 9, 59, 26
5, 222227, Note_on_c, 9, 59, 0
5, 222400, Note_on_c, 9, 59, 79
5, 222564, Note_on_c, 9, 59, 0
5, 222664, Note_on_c, 9, 59, 40
5, 222745, Note_on_c, 9, 59, 0
5, 223119, Note_on_c, 9, 59, 82
5, 223291, Note_on_c, 9, 59, 0
5, 223409, Note_on_c, 9, 59, 56
5, 223500, Note_on_c, 9, 59, 0
5, 223650, Note_on_c, 9, 59, 39
5, 223725, Note_on_c, 9, 59, 0
5, 223907, Note_on_c, 9, 59, 82
5, 223910, Note_on_c, 9, 39, 35
5, 223956, Note_on_c, 9, 39, 0
5, 224055, Note_on_c, 9, 59, 0
5, 224064, Note_on_c, 9, 39, 32
5, 224203, Note_on_c, 9, 39, 0
5, 224360, Note_on_c, 9, 36, 45
5, 224455, Note_on_c, 9, 59, 60
5, 224485, Note_on_c, 9, 36, 0
5, 224506, Note_on_c, 9, 59, 0
5, 224615, Note_on_c, 9, 59, 67
5, 224844, Note_on_c, 9, 59, 0
5, 225045, Note_on_c, 9, 59, 47
5, 225108, Note_on_c, 9, 59, 0
5, 225325, Note_on_c, 9, 59, 74
5, 225519, Note_on_c, 9, 59, 0
5, 225792, Note_on_c, 9, 59, 51
5, 225852, Note_on_c, 9, 59, 0
5, 226000, Note_on_c, 9, 59, 80
5, 226017, Note_on_c, 9, 39, 20
5, 226066, Note_on_c, 9, 39, 0
5, 226274, Note_on_c, 9, 59, 0
5, 226495, Note_on_c, 9, 59, 34
5, 226564, Note_on_c, 9, 59, 0
5, 226784, Note_on_c, 9, 59, 80
5, 226898, Note_on_c, 9, 59, 0
5, 227016, Note_on_c, 9, 59, 55
5, 227132, Note_on_c, 9, 59, 0
5, 227503, Note_on_c, 9, 59, 76
5, 227686, Note_on_c, 9, 59, 0
5, 227755, Note_on_c, 9, 53, 63
5, 227766, Note_on_c, 9, 36, 63
5, 227865, Note_on_c, 9, 36, 0
5, 227951, Note_on_c, 9, 53, 0
5, 228232, Note_on_c, 9, 59, 80
5, 228464, Note_on_c, 9, 59, 0
5, 228474, Note_on_c, 9, 36, 34
5, 228550, Note_on_c, 9, 36, 0
5, 228705, Note_on_c, 9, 59, 46
5, 228764, Note_on_c, 9, 53, 19
5, 228770, Note_on_c, 9, 59, 0
5, 228919, Note_on_c, 9, 59, 61
5, 229140, Note_on_c, 9, 59, 0
5, 229176, Note_on_c, 9, 53, 0
5, 229238, Note_on_c, 9, 36, 34
5, 229297, Note_on_c, 9, 36, 0
5, 229397, Note_on_c, 9, 53, 35
5, 229412, Note_on_c, 9, 59, 70
5, 229662, Note_on_c, 9, 59, 0
5, 229710, Note_on_c, 9, 53, 0
5, 229898, Note_on_c, 9, 59, 37
5, 229908, Note_on_c, 9, 36, 36
5, 229977, Note_on_c, 9, 36, 0
5, 229986, Note_on_c, 9, 59, 0
5, 230146, Note_on_c, 9, 59, 70
5, 230164, Note_on_c, 9, 53, 48
5, 230348, Note_on_c, 9, 53, 0
5, 230352, Note_on_c, 9, 59, 0
5, 230602, Note_on_c, 9, 59, 40
5, 230676, Note_on_c, 9, 59, 0
5, 230833, Note_on_c, 9, 53, 47
5, 230853, Note_on_c, 9, 59, 75
5, 231097, Note_on_c, 9, 59, 0
5, 231126, Note_on_c, 9, 53, 0
5, 231322, Note_on_c, 9, 59, 34
5, 231406, Note_on_c, 9, 59, 0
5, 231563, Note_on_c, 9, 39, 47
5, 231589, Note_on_c, 9, 59, 78
5, 231619, Note_on_c, 9, 39, 0
5, 231623, Note_on_c, 9, 53, 61
5, 231794, Note_on_c, 9, 59, 0
5, 231800, Note_on_c, 9, 36, 53
5, 231818, Note_on_c, 9, 53, 0
5, 231841, Note_on_c, 9, 36, 0
5, 231868, Note_on_c, 9, 59, 49
5, 231932, Note_on_c, 9, 59, 0
5, 232264, Note_on_c, 9, 36, 43
5, 232266, Note_on_c, 9, 53, 52
5, 232307, Note_on_c, 9, 59, 72
5, 232347, Note_on_c, 9, 36, 0
5, 232435, Note_on_c, 9, 53, 0
5, 232502, Note_on_c, 9, 59, 0
5, 232760, Note_on_c, 9, 59, 58
5, 232864, Note_on_c, 9, 59, 0
5, 233023, Note_on_c, 9, 59, 73
5, 233076, Note_on_c, 9, 36, 24
5, 233132, Note_on_c, 9, 36, 0
5, 233180, Note_on_c, 9, 59, 0
5, 233505, Note_on_c, 9, 59, 51
5, 233841, Note_on_c, 9, 59, 0
5, 234219, Note_on_c, 9, 59, 71
5, 234344, Note_on_c, 9, 59, 0
5, 234705, Note_on_c, 9, 59, 73
5, 234888, Note_on_c, 9, 59, 0
5, 235150, Note_on_c, 9, 59, 55
5, 235165, Note_on_c, 9, 39, 40
5, 235207, Note_on_c, 9, 39, 0
5, 235247, Note_on_c, 9, 59, 0
5, 235430, Note_on_c, 9, 39, 45
5, 235443, Note_on_c, 9, 59, 70
5, 235478, Note_on_c, 9, 39, 0
5, 235572, Note_on_c, 9, 59, 0
5, 235616, Note_on_c, 9, 36, 36
5, 235682, Note_on_c, 9, 36, 0
5, 235905, Note_on_c, 9, 53, 49
5, 235907, Note_on_c, 9, 59, 74
5, 236053, Note_on_c, 9, 53, 0
5, 236077, Note_on_c, 9, 59, 0
5, 236109, Note_on_c, 9, 36, 34
5, 236254, Note_on_c, 9, 36, 0
5, 236407, Note_on_c, 9, 59, 46
5, 236471, Note_on_c, 9, 59, 0
5, 236583, Note_on_c, 9, 59, 59
5, 236732, Note_on_c, 9, 59, 0
5, 236855, Note_on_c, 9, 59, 66
5, 236948, Note_on_c, 9, 59, 0
5, 237044, Note_on_c, 9, 59, 71
5, 237244, Note_on_c, 9, 59, 0
5, 237573, Note_on_c, 9, 59, 60
5, 237684, Note_on_c, 9, 59, 0
5, 237791, Note_on_c, 9, 45, 54
5, 237818, Note_on_c, 9, 59, 59
5, 237840, Note_on_c, 9, 45, 0
5, 237944, Note_on_c, 9, 59, 0
5, 237997, Note_on_c, 9, 45, 39
5, 238078, Note_on_c, 9, 45, 0
5, 238310, Note_on_c, 9, 59, 74
5, 238337, Note_on_c, 9, 36, 24
5, 238393, Note_on_c, 9, 36, 0
5, 238444, Note_on_c, 9, 59, 0
5, 238775, Note_on_c, 9, 59, 54
5, 238836, Note_on_c, 9, 59, 0
5, 238983, Note_on_c, 9, 59, 77
5, 239260, Note_on_c, 9, 59, 0
5, 239313, Note_on_c, 9, 36, 32
5, 239362, Note_on_c, 9, 36, 0
5, 239442, Note_on_c, 9, 59, 52
5, 239511, Note_on_c, 9, 59, 0
5, 239723, Note_on_c, 9, 59, 68
5, 239757, Note_on_c, 9, 36, 36
5, 239813, Note_on_c, 9, 36, 0
5, 239879, Note_on_c, 9, 59, 0
5, 239928, Note_on_c, 9, 36, 35
5, 240012, Note_on_c, 9, 36, 0
5, 240160, Note_on_c, 9, 59, 67
5, 240252, Note_on_c, 9, 59, 0
5, 240388, Note_on_c, 9, 53, 63
5, 240392, Note_on_c, 9, 59, 77
5, 240634, Note_on_c, 9, 59, 0
5, 240753, Note_on_c, 9, 53, 0
5, 240889, Note_on_c, 9, 59, 37
5, 241016, Note_on_c, 9, 59, 0
5, 241159, Note_on_c, 9, 59, 73
5, 241166, Note_on_c, 9, 53, 62
5, 241443, Note_on_c, 9, 53, 0
5, 241444, Note_on_c, 9, 59, 0
5, 241639, Note_on_c, 9, 59, 49
5, 241680, Note_on_c, 9, 39, 34
5, 241698, Note_on_c, 9, 59, 0
5, 241739, Note_on_c, 9, 39, 0
5, 241870, Note_on_c, 9, 53, 57
5, 241877, Note_on_c, 9, 59, 77
5, 242130, Note_on_c, 9, 59, 0
5, 242163, Note_on_c, 9, 53, 0
5, 242170, Note_on_c, 9, 50, 72
5, 242241, Note_on_c, 9, 50, 0
5, 242587, Note_on_c, 9, 59, 64
5, 242646, Note_on_c, 9, 39, 40
5, 242698, Note_on_c, 9, 39, 0
5, 242719, Note_on_c, 9, 59, 0
5, 242845, Note_on_c, 9, 50, 96
5, 243092, Note_on_c, 9, 59, 60
5, 243148, Note_on_c, 9, 59, 0
5, 243174, Note_on_c, 9, 50, 0
5, 243294, Note_on_c, 9, 59, 66
5, 243493, Note_on_c, 9, 59, 0
5, 243597, Note_on_c, 9, 47, 71
5, 243744, Note_on_c, 9, 47, 0
5, 243797, Note_on_c, 9, 53, 56
5, 243808, Note_on_c, 9, 59, 80
5, 243917, Note_on_c, 9, 59, 0
5, 243937, Note_on_c, 9, 53, 0
5, 244249, Note_on_c, 9, 47, 81
5, 244287, Note_on_c, 9, 53, 80
5, 244291, Note_on_c, 9, 59, 92
5, 244451, Note_on_c, 9, 59, 0
5, 244480, Note_on_c, 9, 47, 0
5, 244561, Note_on_c, 9, 53, 0
5, 244747, Note_on_c, 9, 45, 31
5, 244846, Note_on_c, 9, 45, 0
5, 245032, Note_on_c, 9, 45, 65
5, 245033, Note_on_c, 9, 59, 44
5, 245072, Note_on_c, 9, 45, 0
5, 245101, Note_on_c, 9, 59, 0
5, 245245, Note_on_c, 9, 59, 61
5, 245363, Note_on_c, 9, 59, 0
5, 245743, Note_on_c, 9, 59, 88
5, 245849, Note_on_c, 9, 59, 0
5, 245947, Note_on_c, 9, 39, 57
5, 245990, Note_on_c, 9, 39, 0
5, 246225, Note_on_c, 9, 59, 87
5, 246334, Note_on_c, 9, 59, 0
5, 246421, Note_on_c, 9, 39, 65
5, 246513, Note_on_c, 9, 39, 0
5, 246703, Note_on_c, 9, 59, 84
5, 246921, Note_on_c, 9, 39, 67
5, 246995, Note_on_c, 9, 59, 0
5, 247015, Note_on_c, 9, 39, 0
5, 247107, Note_on_c, 9, 47, 45
5, 247152, Note_on_c, 9, 47, 0
5, 247217, Note_on_c, 9, 59, 51
5, 247279, Note_on_c, 9, 59, 0
5, 247380, Note_on_c, 9, 40, 36
5, 247453, Note_on_c, 9, 40, 0
5, 247477, Note_on_c, 9, 59, 85
5, 247588, Note_on_c, 9, 36, 55
5, 247611, Note_on_c, 9, 57, 13
5, 247694, Note_on_c, 9, 59, 0
5, 247724, Note_on_c, 9, 36, 0
5, 247728, Note_on_c, 9, 57, 0
5, 247974, Note_on_c, 9, 59, 53
5, 248032, Note_on_c, 9, 59, 0
5, 248166, Note_on_c, 9, 59, 60
5, 248351, Note_on_c, 9, 59, 0
5, 248669, Note_on_c, 9, 59, 89
5, 248810, Note_on_c, 9, 59, 0
5, 249125, Note_on_c, 9, 59, 51
5, 249204, Note_on_c, 9, 59, 0
5, 249401, Note_on_c, 9, 59, 83
5, 249641, Note_on_c, 9, 59, 0
5, 249851, Note_on_c, 9, 59, 52
5, 249911, Note_on_c, 9, 59, 0
5, 250038, Note_on_c, 9, 59, 60
5, 250260, Note_on_c, 9, 59, 0
5, 250561, Note_on_c, 9, 59, 84
5, 250713, Note_on_c, 9, 59, 0
5, 251022, Note_on_c, 9, 59, 46
5, 251086, Note_on_c, 9, 59, 0
5, 251251, Note_on_c, 9, 40, 23
5, 251298, Note_on_c, 9, 59, 80
5, 251307, Note_on_c, 9, 40, 0
5, 251477, Note_on_c, 9, 40, 23
5, 251500, Note_on_c, 9, 59, 0
5, 251558, Note_on_c, 9, 40, 0
5, 251728, Note_on_c, 9, 36, 42
5, 251780, Note_on_c, 9, 59, 79
5, 251844, Note_on_c, 9, 36, 0
5, 251953, Note_on_c, 9, 59, 0
5, 252219, Note_on_c, 9, 59, 43
5, 252282, Note_on_c, 9, 59, 0
5, 252431, Note_on_c, 9, 36, 36
5, 252451, Note_on_c, 9, 59, 74
5, 252497, Note_on_c, 9, 36, 0
5, 252621, Note_on_c, 9, 59, 0
5, 252702, Note_on_c, 9, 53, 73
5, 252894, Note_on_c, 9, 59, 70
5, 252915, Note_on_c, 9, 53, 0
5, 253215, Note_on_c, 9, 59, 0
5, 253400, Note_on_c, 9, 59, 74
5, 253622, Note_on_c, 9, 59, 0
5, 253633, Note_on_c, 9, 39, 47
5, 253674, Note_on_c, 9, 39, 0
5, 253876, Note_on_c, 9, 59, 80
5, 254072, Note_on_c, 9, 39, 45
5, 254095, Note_on_c, 9, 59, 0
5, 254136, Note_on_c, 9, 39, 0
5, 254306, Note_on_c, 9, 39, 38
5, 254382, Note_on_c, 9, 59, 75
5, 254478, Note_on_c, 9, 39, 0
5, 254566, Note_on_c, 9, 59, 0
5, 254574, Note_on_c, 9, 36, 32
5, 254649, Note_on_c, 9, 36, 0
5, 254678, Note_on_c, 9, 59, 58
5, 254733, Note_on_c, 9, 59, 0
5, 255068, Note_on_c, 9, 39, 61
5, 255106, Note_on_c, 9, 59, 81
5, 255161, Note_on_c, 9, 39, 0
5, 255283, Note_on_c, 9, 59, 0
5, 255545, Note_on_c, 9, 39, 57
5, 255592, Note_on_c, 9, 59, 68
5, 255635, Note_on_c, 9, 39, 0
5, 255703, Note_on_c, 9, 59, 0
5, 255744, Note_on_c, 9, 39, 34
5, 255823, Note_on_c, 9, 59, 56
5, 255837, Note_on_c, 9, 39, 0
5, 255904, Note_on_c, 9, 59, 0
5, 256045, Note_on_c, 9, 53, 47
5, 256050, Note_on_c, 9, 36, 50
5, 256100, Note_on_c, 9, 36, 0
5, 256197, Note_on_c, 9, 53, 0
5, 256237, Note_on_c, 9, 59, 79
5, 256267, Note_on_c, 9, 36, 44
5, 256412, Note_on_c, 9, 36, 0
5, 256546, Note_on_c, 9, 59, 0
5, 256685, Note_on_c, 9, 59, 39
5, 256872, Note_on_c, 9, 59, 0
5, 257009, Note_on_c, 9, 59, 72
5, 257026, Note_on_c, 9, 53, 40
5, 257163, Note_on_c, 9, 53, 0
5, 257252, Note_on_c, 9, 59, 0
5, 257450, Note_on_c, 9, 59, 40
5, 257520, Note_on_c, 9, 59, 0
5, 257685, Note_on_c, 9, 53, 61
5, 257705, Note_on_c, 9, 59, 76
5, 257919, Note_on_c, 9, 53, 0
5, 257966, Note_on_c, 9, 59, 0
5, 258125, Note_on_c, 9, 59, 49
5, 258232, Note_on_c, 9, 59, 0
5, 258424, Note_on_c, 9, 59, 78
5, 258441, Note_on_c, 9, 39, 46
5, 258492, Note_on_c, 9, 39, 0
5, 258617, Note_on_c, 9, 59, 0
5, 258900, Note_on_c, 9, 59, 57
5, 258915, Note_on_c, 9, 39, 50
5, 258959, Note_on_c, 9, 59, 0
5, 258965, Note_on_c, 9, 39, 0
5, 259098, Note_on_c, 9, 39, 42
5, 259132, Note_on_c, 9, 59, 76
5, 259188, Note_on_c, 9, 39, 0
5, 259381, Note_on_c, 9, 36, 53
5, 259383, Note_on_c, 9, 59, 0
5, 259466, Note_on_c, 9, 36, 0
5, 259614, Note_on_c, 9, 59, 62
5, 259679, Note_on_c, 9, 59, 0
5, 259886, Note_on_c, 9, 59, 80
5, 260009, Note_on_c, 9, 36, 45
5, 260078, Note_on_c, 9, 36, 0
5, 260095, Note_on_c, 9, 59, 0
5, 260360, Note_on_c, 9, 59, 57
5, 260417, Note_on_c, 9, 59, 0
5, 260544, Note_on_c, 9, 59, 74
5, 260783, Note_on_c, 9, 59, 0
5, 261073, Note_on_c, 9, 59, 82
5, 261250, Note_on_c, 9, 59, 0
5, 261353, Note_on_c, 9, 59, 62
5, 261427, Note_on_c, 9, 59, 0
5, 261820, Note_on_c, 9, 59, 85
5, 262055, Note_on_c, 9, 59, 0
5, 262303, Note_on_c, 9, 59, 55
5, 262356, Note_on_c, 9, 59, 0
5, 262513, Note_on_c, 9, 59, 79
5, 262685, Note_on_c, 9, 59, 0
5, 262783, Note_on_c, 9, 59, 71
5, 262873, Note_on_c, 9, 59, 0
5, 262993, Note_on_c, 9, 59, 55
5, 263157, Note_on_c, 9, 59, 0
5, 263292, Note_on_c, 9, 59, 79
5, 263712, Note_on_c, 9, 59, 0
5, 263966, Note_on_c, 9, 59, 85
5, 264118, Note_on_c, 9, 59, 0
5, 264216, Note_on_c, 9, 39, 56
5, 264267, Note_on_c, 9, 39, 0
5, 264562, Note_on_c, 9, 36, 31
5, 264609, Note_on_c, 9, 36, 0
5, 264705, Note_on_c, 9, 59, 75
5, 264814, Note_on_c, 9, 59, 0
5, 265005, Note_on_c, 9, 36, 49
5, 265057, Note_on_c, 9, 36, 0
5, 265215, Note_on_c, 9, 59, 75
5, 265355, Note_on_c, 9, 59, 0
5, 265615, Note_on_c, 9, 59, 71
5, 265702, Note_on_c, 9, 36, 37
5, 265726, Note_on_c, 9, 59, 0
5, 265769, Note_on_c, 9, 36, 0
5, 265833, Note_on_c, 9, 59, 61
5, 266001, Note_on_c, 9, 59, 0
5, 266123, Note_on_c, 9, 59, 58
5, 266206, Note_on_c, 9, 59, 0
5, 266328, Note_on_c, 9, 59, 75
5, 266388, Note_on_c, 9, 36, 34
5, 266452, Note_on_c, 9, 36, 0
5, 266562, Note_on_c, 9, 59, 0
5, 266837, Note_on_c, 9, 59, 83
5, 267126, Note_on_c, 9, 59, 0
5, 267276, Note_on_c, 9, 59, 42
5, 267354, Note_on_c, 9, 59, 0
5, 267652, Note_on_c, 9, 59, 66
5, 267734, Note_on_c, 9, 39, 36
5, 267772, Note_on_c, 9, 59, 0
5, 267806, Note_on_c, 9, 39, 0
5, 267821, Note_on_c, 9, 59, 48
5, 268076, Note_on_c, 9, 59, 0
5, 268265, Note_on_c, 9, 59, 64
5, 268389, Note_on_c, 9, 59, 0
5, 268575, Note_on_c, 9, 59, 54
5, 268634, Note_on_c, 9, 59, 0
5, 268755, Note_on_c, 9, 59, 73
5, 269078, Note_on_c, 9, 59, 0
5, 269213, Note_on_c, 9, 59, 36
5, 269286, Note_on_c, 9, 59, 0
5, 269529, Note_on_c, 9, 59, 64
5, 269612, Note_on_c, 9, 59, 0
5, 269707, Note_on_c, 9, 59, 75
5, 269732, Note_on_c, 9, 36, 20
5, 269801, Note_on_c, 9, 36, 0
5, 270013, Note_on_c, 9, 59, 0
5, 270201, Note_on_c, 9, 59, 43
5, 270268, Note_on_c, 9, 59, 0
5, 270466, Note_on_c, 9, 36, 31
5, 270479, Note_on_c, 9, 59, 72
5, 270522, Note_on_c, 9, 36, 0
5, 270605, Note_on_c, 9, 59, 0
5, 270968, Note_on_c, 9, 59, 62
5, 271056, Note_on_c, 9, 59, 0
5, 271178, Note_on_c, 9, 59, 58
5, 271294, Note_on_c, 9, 59, 0
5, 271688, Note_on_c, 9, 59, 87
5, 271795, Note_on_c, 9, 59, 0
5, 272119, Note_on_c, 9, 59, 64
5, 272233, Note_on_c, 9, 59, 0
5, 272417, Note_on_c, 9, 59, 83
5, 272546, Note_on_c, 9, 59, 0
5, 272619, Note_on_c, 9, 39, 26
5, 272748, Note_on_c, 9, 39, 0
5, 272889, Note_on_c, 9, 59, 81
5, 273011, Note_on_c, 9, 59, 0
5, 273101, Note_on_c, 9, 59, 73
5, 273224, Note_on_c, 9, 59, 0
5, 273584, Note_on_c, 9, 59, 78
5, 273740, Note_on_c, 9, 59, 0
5, 273836, Note_on_c, 9, 36, 46
5, 273971, Note_on_c, 9, 36, 0
5, 274044, Note_on_c, 9, 59, 65
5, 274107, Note_on_c, 9, 59, 0
5, 274310, Note_on_c, 9, 59, 85
5, 274478, Note_on_c, 9, 59, 0
5, 274524, Note_on_c, 9, 36, 34
5, 274713, Note_on_c, 9, 36, 0
5, 274804, Note_on_c, 9, 59, 61
5, 274859, Note_on_c, 9, 59, 0
5, 275001, Note_on_c, 9, 59, 74
5, 275152, Note_on_c, 9, 59, 0
5, 275455, Note_on_c, 9, 36, 40
5, 275504, Note_on_c, 9, 59, 92
5, 275551, Note_on_c, 9, 36, 0
5, 275626, Note_on_c, 9, 59, 0
5, 276246, Note_on_c, 9, 59, 87
5, 276422, Note_on_c, 9, 59, 0
5, 276459, Note_on_c, 9, 36, 24
5, 276564, Note_on_c, 9, 36, 0
5, 276715, Note_on_c, 9, 59, 73
5, 276817, Note_on_c, 9, 59, 0
5, 277185, Note_on_c, 9, 36, 26
5, 277194, Note_on_c, 9, 59, 65
5, 277274, Note_on_c, 9, 36, 0
5, 277300, Note_on_c, 9, 59, 0
5, 277437, Note_on_c, 9, 39, 25
5, 277476, Note_on_c, 9, 39, 0
5, 277644, Note_on_c, 9, 39, 67
5, 277696, Note_on_c, 9, 59, 61
5, 277700, Note_on_c, 9, 39, 0
5, 277754, Note_on_c, 9, 59, 0
5, 277864, Note_on_c, 9, 59, 69
5, 278094, Note_on_c, 9, 59, 0
5, 278362, Note_on_c, 9, 36, 36
5, 278383, Note_on_c, 9, 59, 82
5, 278435, Note_on_c, 9, 36, 0
5, 278570, Note_on_c, 9, 59, 0
5, 278874, Note_on_c, 9, 59, 83
5, 279097, Note_on_c, 9, 36, 45
5, 279098, Note_on_c, 9, 59, 0
5, 279153, Note_on_c, 9, 36, 0
5, 279627, Note_on_c, 9, 59, 64
5, 279681, Note_on_c, 9, 59, 0
5, 279839, Note_on_c, 9, 59, 31
5, 279936, Note_on_c, 9, 59, 0
5, 280075, Note_on_c, 9, 59, 74
5, 280221, Note_on_c, 9, 59, 0
5, 280301, Note_on_c, 9, 36, 35
5, 280375, Note_on_c, 9, 36, 0
5, 280549, Note_on_c, 9, 59, 80
5, 280677, Note_on_c, 9, 59, 0
5, 281015, Note_on_c, 9, 59, 28
5, 281070, Note_on_c, 9, 59, 0
5, 281166, Note_on_c, 9, 59, 82
5, 281221, Note_on_c, 9, 36, 25
5, 281322, Note_on_c, 9, 36, 0
5, 281431, Note_on_c, 9, 59, 0
5, 281658, Note_on_c, 9, 59, 59
5, 281710, Note_on_c, 9, 59, 0
5, 281957, Note_on_c, 9, 59, 85
5, 282156, Note_on_c, 9, 36, 36
5, 282186, Note_on_c, 9, 59, 0
5, 282225, Note_on_c, 9, 36, 0
5, 282438, Note_on_c, 9, 59, 57
5, 282489, Note_on_c, 9, 59, 0
5, 282615, Note_on_c, 9, 59, 62
5, 282830, Note_on_c, 9, 59, 0
5, 283084, Note_on_c, 9, 36, 37
5, 283116, Note_on_c, 9, 59, 91
5, 283172, Note_on_c, 9, 36, 0
5, 283259, Note_on_c, 9, 59, 0
5, 283600, Note_on_c, 9, 59, 40
5, 283676, Note_on_c, 9, 59, 0
5, 283861, Note_on_c, 9, 59, 82
5, 284097, Note_on_c, 9, 59, 0
5, 284264, Note_on_c, 9, 36, 39
5, 284340, Note_on_c, 9, 36, 0
5, 284379, Note_on_c, 9, 59, 79
5, 284573, Note_on_c, 9, 59, 0
5, 284825, Note_on_c, 9, 59, 53
5, 284883, Note_on_c, 9, 59, 0
5, 285006, Note_on_c, 9, 36, 44
5, 285042, Note_on_c, 9, 59, 64
5, 285091, Note_on_c, 9, 36, 0
5, 285202, Note_on_c, 9, 59, 0
5, 285287, Note_on_c, 9, 59, 58
5, 285352, Note_on_c, 9, 59, 0
5, 285491, Note_on_c, 9, 59, 55
5, 285638, Note_on_c, 9, 59, 0
5, 285735, Note_on_c, 9, 59, 77
5, 285776, Note_on_c, 9, 53, 51
5, 285925, Note_on_c, 9, 59, 0
5, 285966, Note_on_c, 9, 53, 0
5, 285977, Note_on_c, 9, 36, 32
5, 286058, Note_on_c, 9, 36, 0
5, 286234, Note_on_c, 9, 59, 41
5, 286311, Note_on_c, 9, 59, 0
5, 286495, Note_on_c, 9, 59, 79
5, 286502, Note_on_c, 9, 53, 59
5, 286777, Note_on_c, 9, 59, 0
5, 286781, Note_on_c, 9, 53, 0
5, 286956, Note_on_c, 9, 36, 35
5, 286963, Note_on_c, 9, 59, 45
5, 287026, Note_on_c, 9, 59, 0
5, 287113, Note_on_c, 9, 36, 0
5, 287245, Note_on_c, 9, 59, 74
5, 287246, Note_on_c, 9, 53, 61
5, 287471, Note_on_c, 9, 59, 0
5, 287508, Note_on_c, 9, 53, 0
5, 287735, Note_on_c, 9, 59, 44
5, 287798, Note_on_c, 9, 59, 0
5, 287939, Note_on_c, 9, 53, 66
5, 287956, Note_on_c, 9, 59, 68
5, 288186, Note_on_c, 9, 59, 0
5, 288201, Note_on_c, 9, 53, 0
5, 288427, Note_on_c, 9, 59, 42
5, 288570, Note_on_c, 9, 59, 0
5, 288723, Note_on_c, 9, 59, 71
5, 288899, Note_on_c, 9, 59, 0
5, 288972, Note_on_c, 9, 36, 24
5, 289040, Note_on_c, 9, 36, 0
5, 289192, Note_on_c, 9, 59, 55
5, 289253, Note_on_c, 9, 59, 0
5, 289389, Note_on_c, 9, 59, 66
5, 289558, Note_on_c, 9, 59, 0
5, 289879, Note_on_c, 9, 59, 75
5, 289896, Note_on_c, 9, 36, 31
5, 289976, Note_on_c, 9, 36, 0
5, 290014, Note_on_c, 9, 59, 0
5, 290383, Note_on_c, 9, 59, 82
5, 290590, Note_on_c, 9, 59, 0
5, 290660, Note_on_c, 9, 36, 25
5, 290735, Note_on_c, 9, 36, 0
5, 291099, Note_on_c, 9, 47, 53
5, 291113, Note_on_c, 9, 59, 77
5, 291155, Note_on_c, 9, 47, 0
5, 291273, Note_on_c, 9, 59, 0
5, 291290, Note_on_c, 9, 47, 26
5, 291444, Note_on_c, 9, 47, 0
5, 291572, Note_on_c, 9, 36, 37
5, 291575, Note_on_c, 9, 59, 57
5, 291635, Note_on_c, 9, 36, 0
5, 291638, Note_on_c, 9, 59, 0
5, 291769, Note_on_c, 9, 45, 63
5, 291791, Note_on_c, 9, 59, 81
5, 292022, Note_on_c, 9, 59, 0
5, 292025, Note_on_c, 9, 45, 0
5, 292532, Note_on_c, 9, 47, 58
5, 292533, Note_on_c, 9, 45, 64
5, 292553, Note_on_c, 9, 59, 78
5, 292576, Note_on_c, 9, 45, 0
5, 292622, Note_on_c, 9, 47, 0
5, 292685, Note_on_c, 9, 47, 60
5, 292688, Note_on_c, 9, 59, 0
5, 292945, Note_on_c, 9, 47, 0
5, 292995, Note_on_c, 9, 59, 81
5, 293014, Note_on_c, 9, 36, 54
5, 293080, Note_on_c, 9, 36, 0
5, 293125, Note_on_c, 9, 59, 0
5, 293212, Note_on_c, 9, 59, 66
5, 293226, Note_on_c, 9, 45, 50
5, 293305, Note_on_c, 9, 45, 0
5, 293346, Note_on_c, 9, 59, 0
5, 293513, Note_on_c, 9, 36, 68
5, 293583, Note_on_c, 9, 36, 0
5, 293687, Note_on_c, 9, 59, 88
5, 293704, Note_on_c, 9, 57, 21
5, 293713, Note_on_c, 9, 36, 66
5, 293808, Note_on_c, 9, 57, 0
5, 293834, Note_on_c, 9, 59, 0
5, 293860, Note_on_c, 9, 36, 0
5, 294410, Note_on_c, 9, 59, 83
5, 294576, Note_on_c, 9, 59, 0
5, 294900, Note_on_c, 9, 59, 68
5, 294979, Note_on_c, 9, 59, 0
5, 295105, Note_on_c, 9, 59, 80
5, 295352, Note_on_c, 9, 59, 0
5, 295430, Note_on_c, 9, 36, 28
5, 295486, Note_on_c, 9, 36, 0
5, 295608, Note_on_c, 9, 59, 60
5, 295609, Note_on_c, 9, 36, 28
5, 295663, Note_on_c, 9, 59, 0
5, 295716, Note_on_c, 9, 36, 0
5, 295909, Note_on_c, 9, 59, 79
5, 296099, Note_on_c, 9, 59, 0
5, 296383, Note_on_c, 9, 59, 83
5, 296403, Note_on_c, 9, 36, 34
5, 296466, Note_on_c, 9, 36, 0
5, 296600, Note_on_c, 9, 59, 0
5, 296845, Note_on_c, 9, 39, 69
5, 296858, Note_on_c, 9, 59, 63
5, 296921, Note_on_c, 9, 59, 0
5, 296955, Note_on_c, 9, 39, 0
5, 297032, Note_on_c, 9, 36, 39
5, 297050, Note_on_c, 9, 59, 75
5, 297270, Note_on_c, 9, 36, 0
5, 297304, Note_on_c, 9, 59, 0
5, 297550, Note_on_c, 9, 36, 41
5, 297550, Note_on_c, 9, 59, 90
5, 297697, Note_on_c, 9, 36, 0
5, 297698, Note_on_c, 9, 59, 0
5, 298037, Note_on_c, 9, 59, 84
5, 298181, Note_on_c, 9, 59, 0
5, 298289, Note_on_c, 9, 59, 71
5, 298446, Note_on_c, 9, 59, 0
5, 298522, Note_on_c, 9, 36, 32
5, 298618, Note_on_c, 9, 36, 0
5, 298779, Note_on_c, 9, 59, 73
5, 298895, Note_on_c, 9, 59, 0
5, 299005, Note_on_c, 9, 59, 57
5, 299128, Note_on_c, 9, 59, 0
5, 299244, Note_on_c, 9, 36, 42
5, 299265, Note_on_c, 9, 59, 74
5, 299323, Note_on_c, 9, 36, 0
5, 299371, Note_on_c, 9, 59, 0
5, 299469, Note_on_c, 9, 59, 73
5, 299630, Note_on_c, 9, 59, 0
5, 299680, Note_on_c, 9, 38, 54
5, 299838, Note_on_c, 9, 38, 0
5, 299962, Note_on_c, 9, 59, 91
5, 300136, Note_on_c, 9, 59, 0
5, 300409, Note_on_c, 9, 36, 37
5, 300449, Note_on_c, 9, 59, 81
5, 300497, Note_on_c, 9, 36, 0
5, 300572, Note_on_c, 9, 59, 0
5, 300694, Note_on_c, 9, 59, 63
5, 300817, Note_on_c, 9, 59, 0
5, 300889, Note_on_c, 9, 36, 48
5, 301111, Note_on_c, 9, 36, 0
5, 301191, Note_on_c, 9, 59, 90
5, 301385, Note_on_c, 9, 59, 0
5, 301645, Note_on_c, 9, 59, 58
5, 301701, Note_on_c, 9, 59, 0
5, 301835, Note_on_c, 9, 59, 69
5, 301999, Note_on_c, 9, 59, 0
5, 302136, Note_on_c, 9, 59, 66
5, 302319, Note_on_c, 9, 38, 44
5, 302415, Note_on_c, 9, 38, 0
5, 302457, Note_on_c, 9, 59, 0
5, 302814, Note_on_c, 9, 59, 82
5, 302814, Note_on_c, 9, 36, 24
5, 302822, Note_on_c, 9, 53, 64
5, 302876, Note_on_c, 9, 36, 0
5, 303024, Note_on_c, 9, 53, 0
5, 303031, Note_on_c, 9, 59, 0
5, 303074, Note_on_c, 9, 36, 49
5, 303194, Note_on_c, 9, 36, 0
5, 303294, Note_on_c, 9, 59, 40
5, 303300, Note_on_c, 9, 36, 48
5, 303363, Note_on_c, 9, 59, 0
5, 303446, Note_on_c, 9, 36, 0
5, 303576, Note_on_c, 9, 59, 80
5, 303606, Note_on_c, 9, 53, 60
5, 303807, Note_on_c, 9, 59, 0
5, 303808, Note_on_c, 9, 53, 0
5, 304030, Note_on_c, 9, 36, 57
5, 304064, Note_on_c, 9, 59, 48
5, 304133, Note_on_c, 9, 36, 0
5, 304137, Note_on_c, 9, 59, 0
5, 304256, Note_on_c, 9, 36, 53
5, 304302, Note_on_c, 9, 59, 82
5, 304311, Note_on_c, 9, 53, 63
5, 304403, Note_on_c, 9, 36, 0
5, 304510, Note_on_c, 9, 53, 0
5, 304565, Note_on_c, 9, 59, 0
5, 304741, Note_on_c, 9, 36, 66
5, 304791, Note_on_c, 9, 59, 50
5, 304849, Note_on_c, 9, 59, 0
5, 304953, Note_on_c, 9, 36, 0
5, 305030, Note_on_c, 9, 59, 92
5, 305252, Note_on_c, 9, 59, 0
5, 306200, Note_on_c, 9, 44, 49
5, 306465, Note_on_c, 9, 44, 0
5, 309546, Note_on_c, 9, 59, 40
5, 309602, Note_on_c, 9, 59, 0
5, 310421, Note_on_c, 9, 59, 65
5, 310532, Note_on_c, 9, 59, 0
5, 311396, Note_on_c, 9, 59, 85
5, 311575, Note_on_c, 9, 59, 0
5, 312367, Note_on_c, 9, 59, 115
5, 312598, Note_on_c, 9, 59, 0
5, 313354, Note_on_c, 9, 59, 41
5, 313490, Note_on_c, 9, 59, 0
5, 314317, Note_on_c, 9, 59, 41
5, 314457, Note_on_c, 9, 59, 0
5, 315291, Note_on_c, 9, 59, 37
5, 315373, Note_on_c, 9, 59, 0
5, 316235, Note_on_c, 9, 59, 57
5, 316317, Note_on_c, 9, 59, 0
5, 317215, Note_on_c, 9, 59, 96
5, 317413, Note_on_c, 9, 59, 0
5, 318213, Note_on_c, 9, 59, 74
5, 318328, Note_on_c, 9, 59, 0
5, 319172, Note_on_c, 9, 59, 48
5, 319243, Note_on_c, 9, 59, 0
5, 320370, Note_on_c, 9, 59, 104
5, 320374, Note_on_c, 9, 51, 93
5, 320540, Note_on_c, 9, 59, 0
5, 320630, Note_on_c, 9, 51, 0
5, 323876, Note_on_c, 9, 59, 65
5, 323976, Note_on_c, 9, 59, 0
5, 324877, Note_on_c, 9, 59, 54
5, 324953, Note_on_c, 9, 59, 0
5, 325855, Note_on_c, 9, 59, 44
5, 325954, Note_on_c, 9, 59, 0
5, 326881, Note_on_c, 9, 59, 44
5, 326960, Note_on_c, 9, 59, 0
5, 328722, Note_on_c, 9, 59, 70
5, 328793, Note_on_c, 9, 59, 0
5, 329684, Note_on_c, 9, 59, 42
5, 329802, Note_on_c, 9, 59, 0
5, 330648, Note_on_c, 9, 59, 83
5, 330784, Note_on_c, 9, 59, 0
5, 331583, Note_on_c, 9, 59, 88
5, 331707, Note_on_c, 9, 59, 0
5, 332557, Note_on_c, 9, 59, 85
5, 332671, Note_on_c, 9, 59, 0
5, 333757, Note_on_c, 9, 59, 54
5, 333765, Note_on_c, 9, 57, 9
5, 333858, Note_on_c, 9, 57, 0
5, 333910, Note_on_c, 9, 59, 0
5, 337393, Note_on_c, 9, 38, 31
5, 337441, Note_on_c, 9, 38, 0
5, 337652, Note_on_c, 9, 38, 59
5, 337719, Note_on_c, 9, 38, 0
5, 337872, Note_on_c, 9, 40, 9
5, 337882, Note_on_c, 9, 38, 62
5, 338023, Note_on_c, 9, 38, 0
5, 338388, Note_on_c, 9, 38, 30
5, 338438, Note_on_c, 9, 38, 0
5, 338651, Note_on_c, 9, 38, 34
5, 338689, Note_on_c, 9, 40, 0
5, 338708, Note_on_c, 9, 38, 0
5, 338851, Note_on_c, 9, 44, 48
5, 338855, Note_on_c, 9, 39, 76
5, 339221, Note_on_c, 9, 39, 0
5, 339233, Note_on_c, 9, 44, 0
5, 339342, Note_on_c, 9, 38, 33
5, 339379, Note_on_c, 9, 40, 1
5, 339403, Note_on_c, 9, 38, 0
5, 339560, Note_on_c, 9, 40, 0
5, 339600, Note_on_c, 9, 38, 47
5, 339654, Note_on_c, 9, 38, 0
5, 339774, Note_on_c, 9, 38, 34
5, 339877, Note_on_c, 9, 40, 7
5, 339878, Note_on_c, 9, 38, 0
5, 340082, Note_on_c, 9, 38, 40
5, 340143, Note_on_c, 9, 38, 0
5, 340277, Note_on_c, 9, 39, 67
5, 340519, Note_on_c, 9, 39, 0
5, 340676, Note_on_c, 9, 40, 0
5, 340769, Note_on_c, 9, 44, 43
5, 340854, Note_on_c, 9, 40, 9
5, 341013, Note_on_c, 9, 39, 57
5, 341113, Note_on_c, 9, 39, 0
5, 341143, Note_on_c, 9, 44, 0
5, 341539, Note_on_c, 9, 40, 0
5, 341681, Note_on_c, 9, 39, 32
5, 341720, Note_on_c, 9, 40, 9
5, 341970, Note_on_c, 9, 39, 0
5, 342010, Note_on_c, 9, 38, 34
5, 342056, Note_on_c, 9, 38, 0
5, 342172, Note_on_c, 9, 38, 48
5, 342445, Note_on_c, 9, 38, 0
5, 342474, Note_on_c, 9, 40, 0
5, 342650, Note_on_c, 9, 38, 64
5, 342657, Note_on_c, 9, 40, 7
5, 342669, Note_on_c, 9, 44, 44
5, 342851, Note_on_c, 9, 38, 0
5, 342937, Note_on_c, 9, 44, 0
5, 343166, Note_on_c, 9, 38, 35
5, 343221, Note_on_c, 9, 38, 0
5, 343372, Note_on_c, 9, 40, 0
5, 343488, Note_on_c, 9, 40, 19
5, 343578, Note_on_c, 9, 40, 0
5, 343655, Note_on_c, 9, 38, 63
5, 343699, Note_on_c, 9, 40, 13
5, 343940, Note_on_c, 9, 38, 0
5, 344458, Note_on_c, 9, 40, 0
5, 344626, Note_on_c, 9, 44, 51
5, 344628, Note_on_c, 9, 39, 91
5, 344637, Note_on_c, 9, 40, 11
5, 344978, Note_on_c, 9, 44, 0
5, 345023, Note_on_c, 9, 39, 0
5, 345090, Note_on_c, 9, 38, 53
5, 345145, Note_on_c, 9, 38, 0
5, 345336, Note_on_c, 9, 38, 54
5, 345393, Note_on_c, 9, 38, 0
5, 345442, Note_on_c, 9, 40, 0
5, 345530, Note_on_c, 9, 38, 57
5, 345601, Note_on_c, 9, 40, 14
5, 345694, Note_on_c, 9, 38, 0
5, 346044, Note_on_c, 9, 38, 41
5, 346124, Note_on_c, 9, 38, 0
5, 346320, Note_on_c, 9, 40, 0
5, 346340, Note_on_c, 9, 38, 36
5, 346397, Note_on_c, 9, 38, 0
5, 346482, Note_on_c, 9, 44, 43
5, 346488, Note_on_c, 9, 40, 13
5, 346503, Note_on_c, 9, 39, 93
5, 346526, Note_on_c, 9, 42, 43
5, 346681, Note_on_c, 9, 42, 0
5, 346766, Note_on_c, 9, 44, 0
5, 346836, Note_on_c, 9, 39, 0
5, 346982, Note_on_c, 9, 38, 40
5, 347028, Note_on_c, 9, 38, 0
5, 347211, Note_on_c, 9, 38, 69
5, 347294, Note_on_c, 9, 38, 0
5, 347304, Note_on_c, 9, 40, 0
5, 347450, Note_on_c, 9, 40, 13
5, 347701, Note_on_c, 9, 38, 65
5, 347778, Note_on_c, 9, 38, 0
5, 348207, Note_on_c, 9, 40, 0
5, 348210, Note_on_c, 9, 38, 58
5, 348287, Note_on_c, 9, 38, 0
5, 348391, Note_on_c, 9, 46, 43
5, 348398, Note_on_c, 9, 40, 13
5, 348425, Note_on_c, 9, 39, 45
5, 348528, Note_on_c, 9, 39, 0
5, 348666, Note_on_c, 9, 46, 0
5, 348711, Note_on_c, 9, 38, 57
5, 348808, Note_on_c, 9, 38, 0
5, 348913, Note_on_c, 9, 38, 56
5, 349014, Note_on_c, 9, 38, 0
5, 349153, Note_on_c, 9, 40, 0
5, 349174, Note_on_c, 9, 38, 61
5, 349248, Note_on_c, 9, 38, 0
5, 349331, Note_on_c, 9, 40, 10
5, 349359, Note_on_c, 9, 38, 74
5, 349677, Note_on_c, 9, 38, 0
5, 349874, Note_on_c, 9, 38, 73
5, 350020, Note_on_c, 9, 38, 0
5, 350181, Note_on_c, 9, 40, 0
5, 350373, Note_on_c, 9, 39, 88
5, 350381, Note_on_c, 9, 40, 10
5, 350449, Note_on_c, 9, 44, 47
5, 350636, Note_on_c, 9, 44, 0
5, 350694, Note_on_c, 9, 39, 0
5, 350883, Note_on_c, 9, 38, 20
5, 350928, Note_on_c, 9, 38, 0
5, 351125, Note_on_c, 9, 38, 30
5, 351162, Note_on_c, 9, 40, 0
5, 351174, Note_on_c, 9, 38, 0
5, 351332, Note_on_c, 9, 38, 52
5, 351342, Note_on_c, 9, 40, 9
5, 351468, Note_on_c, 9, 38, 0
5, 351791, Note_on_c, 9, 38, 68
5, 351916, Note_on_c, 9, 38, 0
5, 352076, Note_on_c, 9, 40, 0
5, 352283, Note_on_c, 9, 39, 75
5, 352349, Note_on_c, 9, 44, 48
5, 352360, Note_on_c, 9, 40, 9
5, 352450, Note_on_c, 9, 39, 0
5, 352508, Note_on_c, 9, 38, 63
5, 352564, Note_on_c, 9, 38, 0
5, 352579, Note_on_c, 9, 44, 0
5, 353018, Note_on_c, 9, 40, 0
5, 353027, Note_on_c, 9, 38, 81
5, 353114, Note_on_c, 9, 38, 0
5, 353251, Note_on_c, 9, 38, 58
5, 353255, Note_on_c, 9, 40, 9
5, 353297, Note_on_c, 9, 38, 0
5, 353730, Note_on_c, 9, 39, 70
5, 353880, Note_on_c, 9, 39, 0
5, 354026, Note_on_c, 9, 40, 0
5, 354222, Note_on_c, 9, 44, 46
5, 354230, Note_on_c, 9, 40, 11
5, 354427, Note_on_c, 9, 44, 0
5, 354476, Note_on_c, 9, 39, 79
5, 354589, Note_on_c, 9, 39, 0
5, 354648, Note_on_c, 9, 38, 44
5, 354833, Note_on_c, 9, 38, 0
5, 354923, Note_on_c, 9, 40, 0
5, 355134, Note_on_c, 9, 38, 68
5, 355156, Note_on_c, 9, 40, 9
5, 355281, Note_on_c, 9, 38, 0
5, 355618, Note_on_c, 9, 38, 66
5, 355724, Note_on_c, 9, 38, 0
5, 355902, Note_on_c, 9, 38, 35
5, 355917, Note_on_c, 9, 40, 0
5, 355956, Note_on_c, 9, 38, 0
5, 356091, Note_on_c, 9, 39, 79
5, 356100, Note_on_c, 9, 46, 40
5, 356177, Note_on_c, 9, 40, 9
5, 356280, Note_on_c, 9, 46, 0
5, 356410, Note_on_c, 9, 39, 0
5, 356590, Note_on_c, 9, 38, 41
5, 356639, Note_on_c, 9, 38, 0
5, 356776, Note_on_c, 9, 40, 0
5, 356853, Note_on_c, 9, 38, 48
5, 356909, Note_on_c, 9, 38, 0
5, 357065, Note_on_c, 9, 40, 13
5, 357073, Note_on_c, 9, 38, 48
5, 357195, Note_on_c, 9, 38, 0
5, 357583, Note_on_c, 9, 38, 38
5, 357637, Note_on_c, 9, 38, 0
5, 357864, Note_on_c, 9, 40, 0
5, 358020, Note_on_c, 9, 44, 43
5, 358029, Note_on_c, 9, 39, 77
5, 358039, Note_on_c, 9, 40, 12
5, 358179, Note_on_c, 9, 39, 0
5, 358209, Note_on_c, 9, 44, 0
5, 358293, Note_on_c, 9, 38, 64
5, 358394, Note_on_c, 9, 38, 0
5, 358765, Note_on_c, 9, 38, 59
5, 358804, Note_on_c, 9, 40, 0
5, 358828, Note_on_c, 9, 38, 0
5, 358969, Note_on_c, 9, 38, 52
5, 359002, Note_on_c, 9, 40, 9
5, 359103, Note_on_c, 9, 38, 0
5, 359308, Note_on_c, 9, 38, 26
5, 359363, Note_on_c, 9, 38, 0
5, 359482, Note_on_c, 9, 39, 90
5, 359745, Note_on_c, 9, 39, 0
5, 359765, Note_on_c, 9, 40, 0
5, 359925, Note_on_c, 9, 40, 13
5, 359952, Note_on_c, 9, 44, 44
5, 359975, Note_on_c, 9, 38, 22
5, 360047, Note_on_c, 9, 38, 0
5, 360135, Note_on_c, 9, 44, 0
5, 360223, Note_on_c, 9, 38, 52
5, 360273, Note_on_c, 9, 38, 0
5, 360396, Note_on_c, 9, 38, 28
5, 360453, Note_on_c, 9, 38, 0
5, 360696, Note_on_c, 9, 40, 0
5, 360725, Note_on_c, 9, 38, 28
5, 360778, Note_on_c, 9, 38, 0
5, 360908, Note_on_c, 9, 40, 12
5, 360916, Note_on_c, 9, 38, 48
5, 361018, Note_on_c, 9, 38, 0
5, 361214, Note_on_c, 9, 38, 42
5, 361263, Note_on_c, 9, 38, 0
5, 361397, Note_on_c, 9, 39, 92
5, 361670, Note_on_c, 9, 39, 0
5, 361748, Note_on_c, 9, 40, 0
5, 361872, Note_on_c, 9, 44, 38
5, 361890, Note_on_c, 9, 39, 93
5, 361939, Note_on_c, 9, 40, 9
5, 362062, Note_on_c, 9, 44, 0
5, 362142, Note_on_c, 9, 39, 0
5, 362412, Note_on_c, 9, 38, 22
5, 362464, Note_on_c, 9, 38, 0
5, 362627, Note_on_c, 9, 40, 0
5, 362640, Note_on_c, 9, 38, 43
5, 362687, Note_on_c, 9, 38, 0
5, 362879, Note_on_c, 9, 38, 28
5, 362888, Note_on_c, 9, 40, 12
5, 362930, Note_on_c, 9, 38, 0
5, 363131, Note_on_c, 9, 38, 44
5, 363176, Note_on_c, 9, 38, 0
5, 363327, Note_on_c, 9, 39, 79
5, 363514, Note_on_c, 9, 39, 0
5, 363675, Note_on_c, 9, 40, 0
5, 363831, Note_on_c, 9, 39, 85
5, 363862, Note_on_c, 9, 40, 10
5, 363864, Note_on_c, 9, 46, 32
5, 364035, Note_on_c, 9, 46, 0
5, 364223, Note_on_c, 9, 38, 75
5, 364233, Note_on_c, 9, 39, 0
5, 364317, Note_on_c, 9, 38, 0
5, 364474, Note_on_c, 9, 40, 0
5, 364519, Note_on_c, 9, 39, 104
5, 364680, Note_on_c, 9, 39, 0
5, 364705, Note_on_c, 9, 40, 14
5, 364731, Note_on_c, 9, 38, 31
5, 364731, Note_on_c, 9, 38, 0
5, 364881, Note_on_c, 9, 40, 0
5, 365302, Note_on_c, 9, 38, 90
5, 365456, Note_on_c, 9, 38, 0
5, 365456, End_track
6, 0, Start_track
6, 0, Title_t, "Drums"
6, 0, End_track
0, 0, End_of_file
