0, 0, Header, 1, 6, 120
1, 0, Start_track
1, 0, Title_t, "Caravan"
1, 0, Title_t, "sbased on version by Gonzalo Rubalcaba"
1, 0, Text_t, "dougmck@pipeline.com.au. Version demonstrating use of diminished scales - on the C7alt chord in the 'A' section, and on the cycle of secondary dominants in the Bridge. The other main approach to the 'A' section would be to use the F harmonic minor scale\012"
1, 0, Time_signature, 4, 2, 24, 8
1, 0, Key_signature, -4, "major"
1, 0, Tempo, 285714
1, 0, Marker_t, "Piano Montuno on Fm/C7b9"
1, 7681, Marker_t, "Bass Starts"
1, 9900, Marker_t, "Series of chords from Diminished scale (C7#9/Eb7#9/Gb7#9)"
1, 13428, Marker_t, "Fm11"
1, 23040, Marker_t, "First Bridge"
1, 24144, Marker_t, "Diminished scales over most of the dominant chords in Bridge"
1, 32640, Marker_t, "Line played by LH and RH 3 octaves apart "
1, 35723, Marker_t, "Descending melody in perfect 4ths"
1, 37966, Marker_t, "Improvised line uses diminished scale"
1, 39351, Marker_t, "8 note Dim scale on C7alt (C,C#,D#,E,F#,G,A,Bb,C)"
1, 46796, Marker_t, "Up the Dim scale"
1, 50400, Marker_t, "An easy to finger scale on C7b9"
1, 54196, Marker_t, "A common phrase often used to link 2 dominant chords in the cycle of 5ths "
1, 63360, Marker_t, "Playing around with the original melody-2 hands in unison."
1, 69120, Marker_t, "Swing starts"
1, 69577, Marker_t, "Hi hat plays irregular pattern not just on 2 and 4"
1, 71520, Marker_t, "Chords from dim scale - a minor 3rd apart"
1, 72268, Marker_t, "Improvised line from dim scale"
1, 89017, Marker_t, "Dim scale phrases are transposed in sequence down a minor 3rd "
1, 93944, Marker_t, "Block chords from the dim scale - a minor 3rd apart"
1, 99840, Marker_t, "Final Chorus"
1, 107520, Marker_t, "Rhythmic figure made out of melody note and its leading tone"
1, 108242, Marker_t, "C7#9 with chromatic neighbour (Db7#9) as a brief 'side-slip' "
1, 119728, Marker_t, "Another typical dim scale descending phrase"
1, 128732, Marker_t, "Fm11"
1, 129448, Marker_t, "Down a tone to Ebm11"
1, 129448, End_track
2, 0, Start_track
2, 0, MIDI_port, 0
2, 0, Title_t, "Piano"
2, 0, Program_c, 0, 4
2, 7, Note_on_c, 0, 41, 64
2, 65, Note_on_c, 0, 41, 0
2, 71, Note_on_c, 0, 48, 64
2, 88, Note_on_c, 0, 48, 0
2, 130, Note_on_c, 0, 56, 64
2, 134, Note_on_c, 0, 60, 64
2, 147, Note_on_c, 0, 56, 0
2, 165, Note_on_c, 0, 60, 0
2, 252, Note_on_c, 0, 61, 64
2, 254, Note_on_c, 0, 58, 64
2, 300, Note_on_c, 0, 61, 0
2, 305, Note_on_c, 0, 58, 0
2, 319, Note_on_c, 0, 36, 64
2, 357, Note_on_c, 0, 36, 0
2, 428, Note_on_c, 0, 51, 64
2, 429, Note_on_c, 0, 58, 64
2, 493, Note_on_c, 0, 51, 0
2, 495, Note_on_c, 0, 52, 64
2, 791, Note_on_c, 0, 48, 64
2, 836, Note_on_c, 0, 48, 0
2, 855, Note_on_c, 0, 39, 64
2, 888, Note_on_c, 0, 39, 0
2, 909, Note_on_c, 0, 52, 0
2, 911, Note_on_c, 0, 40, 64
2, 938, Note_on_c, 0, 58, 0
2, 957, Note_on_c, 0, 40, 0
2, 968, Note_on_c, 0, 41, 64
2, 1073, Note_on_c, 0, 41, 0
2, 1079, Note_on_c, 0, 56, 64
2, 1080, Note_on_c, 0, 60, 64
2, 1129, Note_on_c, 0, 56, 0
2, 1135, Note_on_c, 0, 60, 0
2, 1192, Note_on_c, 0, 58, 64
2, 1193, Note_on_c, 0, 61, 64
2, 1239, Note_on_c, 0, 61, 0
2, 1247, Note_on_c, 0, 58, 0
2, 1257, Note_on_c, 0, 58, 64
2, 1258, Note_on_c, 0, 61, 64
2, 1278, Note_on_c, 0, 58, 0
2, 1281, Note_on_c, 0, 61, 0
2, 1314, Note_on_c, 0, 48, 64
2, 1358, Note_on_c, 0, 48, 0
2, 1384, Note_on_c, 0, 36, 64
2, 1394, Note_on_c, 0, 36, 0
2, 1440, Note_on_c, 0, 63, 64
2, 1440, Note_on_c, 0, 58, 64
2, 1442, Note_on_c, 0, 52, 64
2, 1482, Note_on_c, 0, 52, 0
2, 1486, Note_on_c, 0, 58, 0
2, 1488, Note_on_c, 0, 63, 0
2, 1631, Note_on_c, 0, 63, 64
2, 1631, Note_on_c, 0, 58, 64
2, 1631, Note_on_c, 0, 52, 64
2, 1645, Note_on_c, 0, 48, 64
2, 1704, Note_on_c, 0, 48, 0
2, 1752, Note_on_c, 0, 48, 64
2, 1771, Note_on_c, 0, 48, 0
2, 1806, Note_on_c, 0, 39, 64
2, 1823, Note_on_c, 0, 52, 0
2, 1830, Note_on_c, 0, 58, 0
2, 1839, Note_on_c, 0, 63, 0
2, 1844, Note_on_c, 0, 39, 0
2, 1867, Note_on_c, 0, 40, 64
2, 1912, Note_on_c, 0, 40, 0
2, 1923, Note_on_c, 0, 41, 64
2, 1957, Note_on_c, 0, 41, 0
2, 1983, Note_on_c, 0, 41, 64
2, 2010, Note_on_c, 0, 41, 0
2, 2040, Note_on_c, 0, 56, 64
2, 2041, Note_on_c, 0, 60, 64
2, 2098, Note_on_c, 0, 56, 0
2, 2102, Note_on_c, 0, 60, 0
2, 2157, Note_on_c, 0, 61, 64
2, 2157, Note_on_c, 0, 58, 64
2, 2216, Note_on_c, 0, 61, 0
2, 2219, Note_on_c, 0, 48, 64
2, 2221, Note_on_c, 0, 58, 0
2, 2234, Note_on_c, 0, 48, 0
2, 2276, Note_on_c, 0, 36, 64
2, 2327, Note_on_c, 0, 36, 0
2, 2339, Note_on_c, 0, 63, 64
2, 2339, Note_on_c, 0, 58, 64
2, 2339, Note_on_c, 0, 52, 64
2, 2352, Note_on_c, 0, 52, 0
2, 2366, Note_on_c, 0, 58, 0
2, 2369, Note_on_c, 0, 63, 0
2, 2456, Note_on_c, 0, 70, 64
2, 2459, Note_on_c, 0, 75, 64
2, 2461, Note_on_c, 0, 64, 64
2, 2461, Note_on_c, 0, 62, 64
2, 2468, Note_on_c, 0, 75, 0
2, 2470, Note_on_c, 0, 62, 0
2, 2487, Note_on_c, 0, 70, 0
2, 2493, Note_on_c, 0, 64, 0
2, 2578, Note_on_c, 0, 48, 64
2, 2625, Note_on_c, 0, 48, 0
2, 2633, Note_on_c, 0, 63, 64
2, 2634, Note_on_c, 0, 58, 64
2, 2637, Note_on_c, 0, 52, 64
2, 2684, Note_on_c, 0, 52, 0
2, 2687, Note_on_c, 0, 63, 0
2, 2691, Note_on_c, 0, 58, 0
2, 2700, Note_on_c, 0, 48, 64
2, 2717, Note_on_c, 0, 48, 0
2, 2754, Note_on_c, 0, 63, 64
2, 2755, Note_on_c, 0, 58, 64
2, 2755, Note_on_c, 0, 52, 64
2, 2801, Note_on_c, 0, 52, 0
2, 2819, Note_on_c, 0, 58, 0
2, 2822, Note_on_c, 0, 48, 64
2, 2825, Note_on_c, 0, 63, 0
2, 2851, Note_on_c, 0, 48, 0
2, 2884, Note_on_c, 0, 41, 64
2, 2924, Note_on_c, 0, 41, 0
2, 2940, Note_on_c, 0, 41, 64
2, 2970, Note_on_c, 0, 41, 0
2, 2994, Note_on_c, 0, 53, 64
2, 2995, Note_on_c, 0, 56, 64
2, 2996, Note_on_c, 0, 60, 64
2, 3051, Note_on_c, 0, 53, 0
2, 3060, Note_on_c, 0, 60, 0
2, 3063, Note_on_c, 0, 56, 0
2, 3110, Note_on_c, 0, 58, 64
2, 3111, Note_on_c, 0, 61, 64
2, 3180, Note_on_c, 0, 48, 64
2, 3189, Note_on_c, 0, 48, 0
2, 3234, Note_on_c, 0, 51, 64
2, 3292, Note_on_c, 0, 61, 0
2, 3309, Note_on_c, 0, 36, 64
2, 3311, Note_on_c, 0, 52, 64
2, 3312, Note_on_c, 0, 51, 0
2, 3408, Note_on_c, 0, 58, 0
2, 3418, Note_on_c, 0, 52, 0
2, 3422, Note_on_c, 0, 36, 0
2, 3422, Note_on_c, 0, 53, 64
2, 3425, Note_on_c, 0, 38, 64
2, 3473, Note_on_c, 0, 38, 0
2, 3502, Note_on_c, 0, 53, 0
2, 3544, Note_on_c, 0, 54, 64
2, 3547, Note_on_c, 0, 39, 64
2, 3552, Note_on_c, 0, 60, 64
2, 3632, Note_on_c, 0, 60, 0
2, 3654, Note_on_c, 0, 54, 0
2, 3671, Note_on_c, 0, 40, 64
2, 3671, Note_on_c, 0, 55, 64
2, 3672, Note_on_c, 0, 60, 64
2, 3679, Note_on_c, 0, 39, 0
2, 3711, Note_on_c, 0, 60, 0
2, 3712, Note_on_c, 0, 55, 0
2, 3788, Note_on_c, 0, 39, 64
2, 3793, Note_on_c, 0, 40, 0
2, 3835, Note_on_c, 0, 39, 0
2, 3846, Note_on_c, 0, 41, 64
2, 3890, Note_on_c, 0, 41, 0
2, 3908, Note_on_c, 0, 41, 64
2, 3927, Note_on_c, 0, 41, 0
2, 3955, Note_on_c, 0, 56, 64
2, 3956, Note_on_c, 0, 60, 64
2, 4021, Note_on_c, 0, 56, 0
2, 4031, Note_on_c, 0, 60, 0
2, 4076, Note_on_c, 0, 61, 64
2, 4076, Note_on_c, 0, 58, 64
2, 4142, Note_on_c, 0, 48, 64
2, 4146, Note_on_c, 0, 58, 0
2, 4146, Note_on_c, 0, 61, 0
2, 4156, Note_on_c, 0, 48, 0
2, 4196, Note_on_c, 0, 58, 64
2, 4197, Note_on_c, 0, 51, 64
2, 4268, Note_on_c, 0, 51, 0
2, 4269, Note_on_c, 0, 52, 64
2, 4330, Note_on_c, 0, 52, 0
2, 4343, Note_on_c, 0, 58, 0
2, 4384, Note_on_c, 0, 36, 64
2, 4414, Note_on_c, 0, 36, 0
2, 4504, Note_on_c, 0, 70, 64
2, 4505, Note_on_c, 0, 63, 64
2, 4549, Note_on_c, 0, 70, 0
2, 4558, Note_on_c, 0, 63, 0
2, 4566, Note_on_c, 0, 70, 64
2, 4567, Note_on_c, 0, 64, 64
2, 4609, Note_on_c, 0, 70, 0
2, 4617, Note_on_c, 0, 64, 0
2, 4632, Note_on_c, 0, 64, 64
2, 4633, Note_on_c, 0, 70, 64
2, 4642, Note_on_c, 0, 58, 64
2, 4665, Note_on_c, 0, 70, 0
2, 4668, Note_on_c, 0, 58, 0
2, 4668, Note_on_c, 0, 64, 0
2, 4683, Note_on_c, 0, 70, 64
2, 4685, Note_on_c, 0, 64, 64
2, 4723, Note_on_c, 0, 64, 0
2, 4729, Note_on_c, 0, 70, 0
2, 4748, Note_on_c, 0, 48, 64
2, 4794, Note_on_c, 0, 48, 0
2, 4803, Note_on_c, 0, 41, 64
2, 4841, Note_on_c, 0, 41, 0
2, 4865, Note_on_c, 0, 48, 64
2, 4881, Note_on_c, 0, 48, 0
2, 4915, Note_on_c, 0, 56, 64
2, 4915, Note_on_c, 0, 60, 64
2, 4953, Note_on_c, 0, 56, 0
2, 4960, Note_on_c, 0, 60, 0
2, 4983, Note_on_c, 0, 56, 64
2, 4987, Note_on_c, 0, 60, 64
2, 5009, Note_on_c, 0, 56, 0
2, 5015, Note_on_c, 0, 60, 0
2, 5041, Note_on_c, 0, 61, 64
2, 5041, Note_on_c, 0, 58, 64
2, 5090, Note_on_c, 0, 61, 0
2, 5098, Note_on_c, 0, 53, 64
2, 5119, Note_on_c, 0, 58, 0
2, 5159, Note_on_c, 0, 53, 0
2, 5218, Note_on_c, 0, 24, 64
2, 5268, Note_on_c, 0, 24, 0
2, 5340, Note_on_c, 0, 60, 64
2, 5341, Note_on_c, 0, 51, 64
2, 5384, Note_on_c, 0, 60, 0
2, 5399, Note_on_c, 0, 51, 0
2, 5409, Note_on_c, 0, 52, 64
2, 5411, Note_on_c, 0, 60, 64
2, 5466, Note_on_c, 0, 36, 64
2, 5470, Note_on_c, 0, 60, 0
2, 5471, Note_on_c, 0, 52, 0
2, 5582, Note_on_c, 0, 24, 64
2, 5621, Note_on_c, 0, 24, 0
2, 5635, Note_on_c, 0, 36, 0
2, 5705, Note_on_c, 0, 36, 64
2, 5728, Note_on_c, 0, 36, 0
2, 5761, Note_on_c, 0, 41, 64
2, 5805, Note_on_c, 0, 41, 0
2, 5822, Note_on_c, 0, 41, 64
2, 5844, Note_on_c, 0, 41, 0
2, 5879, Note_on_c, 0, 56, 64
2, 5880, Note_on_c, 0, 60, 64
2, 5931, Note_on_c, 0, 56, 0
2, 5943, Note_on_c, 0, 60, 0
2, 5997, Note_on_c, 0, 58, 64
2, 5997, Note_on_c, 0, 61, 64
2, 5999, Note_on_c, 0, 52, 64
2, 6049, Note_on_c, 0, 52, 0
2, 6060, Note_on_c, 0, 61, 0
2, 6062, Note_on_c, 0, 58, 0
2, 6071, Note_on_c, 0, 48, 64
2, 6119, Note_on_c, 0, 48, 0
2, 6183, Note_on_c, 0, 36, 64
2, 6230, Note_on_c, 0, 36, 0
2, 6304, Note_on_c, 0, 36, 64
2, 6334, Note_on_c, 0, 36, 0
2, 6363, Note_on_c, 0, 52, 64
2, 6383, Note_on_c, 0, 52, 0
2, 6424, Note_on_c, 0, 36, 64
2, 6442, Note_on_c, 0, 36, 0
2, 6480, Note_on_c, 0, 63, 64
2, 6480, Note_on_c, 0, 56, 64
2, 6481, Note_on_c, 0, 52, 64
2, 6481, Note_on_c, 0, 58, 64
2, 6483, Note_on_c, 0, 51, 64
2, 6580, Note_on_c, 0, 52, 0
2, 6580, Note_on_c, 0, 56, 0
2, 6583, Note_on_c, 0, 58, 0
2, 6586, Note_on_c, 0, 51, 0
2, 6588, Note_on_c, 0, 63, 0
2, 6599, Note_on_c, 0, 61, 64
2, 6600, Note_on_c, 0, 58, 64
2, 6601, Note_on_c, 0, 49, 64
2, 6601, Note_on_c, 0, 56, 64
2, 6601, Note_on_c, 0, 52, 64
2, 6624, Note_on_c, 0, 52, 0
2, 6625, Note_on_c, 0, 49, 0
2, 6633, Note_on_c, 0, 56, 0
2, 6633, Note_on_c, 0, 58, 0
2, 6638, Note_on_c, 0, 61, 0
2, 6662, Note_on_c, 0, 49, 64
2, 6693, Note_on_c, 0, 49, 0
2, 6714, Note_on_c, 0, 41, 64
2, 6772, Note_on_c, 0, 41, 0
2, 6780, Note_on_c, 0, 48, 64
2, 6792, Note_on_c, 0, 48, 0
2, 6833, Note_on_c, 0, 53, 64
2, 6833, Note_on_c, 0, 56, 64
2, 6834, Note_on_c, 0, 60, 64
2, 6873, Note_on_c, 0, 53, 0
2, 6882, Note_on_c, 0, 56, 0
2, 6891, Note_on_c, 0, 60, 0
2, 6955, Note_on_c, 0, 61, 64
2, 6956, Note_on_c, 0, 58, 64
2, 6956, Note_on_c, 0, 52, 64
2, 6991, Note_on_c, 0, 52, 0
2, 6995, Note_on_c, 0, 61, 0
2, 6997, Note_on_c, 0, 58, 0
2, 7025, Note_on_c, 0, 24, 64
2, 7099, Note_on_c, 0, 24, 0
2, 7145, Note_on_c, 0, 24, 64
2, 7190, Note_on_c, 0, 24, 0
2, 7265, Note_on_c, 0, 24, 64
2, 7289, Note_on_c, 0, 24, 0
2, 7327, Note_on_c, 0, 58, 64
2, 7327, Note_on_c, 0, 61, 64
2, 7328, Note_on_c, 0, 52, 64
2, 7577, Note_on_c, 0, 52, 0
2, 7584, Note_on_c, 0, 61, 0
2, 7587, Note_on_c, 0, 58, 0
2, 7685, Note_on_c, 0, 84, 64
2, 7690, Note_on_c, 0, 69, 64
2, 7690, Note_on_c, 0, 58, 64
2, 7693, Note_on_c, 0, 64, 64
2, 8161, Note_on_c, 0, 84, 0
2, 8162, Note_on_c, 0, 69, 0
2, 8162, Note_on_c, 0, 58, 0
2, 8163, Note_on_c, 0, 64, 0
2, 8409, Note_on_c, 0, 70, 64
2, 8419, Note_on_c, 0, 59, 64
2, 8420, Note_on_c, 0, 65, 64
2, 8434, Note_on_c, 0, 65, 0
2, 8435, Note_on_c, 0, 70, 0
2, 8436, Note_on_c, 0, 59, 0
2, 8530, Note_on_c, 0, 70, 64
2, 8574, Note_on_c, 0, 70, 0
2, 8653, Note_on_c, 0, 69, 64
2, 8660, Note_on_c, 0, 64, 64
2, 8661, Note_on_c, 0, 58, 64
2, 8839, Note_on_c, 0, 85, 64
2, 8877, Note_on_c, 0, 85, 0
2, 8895, Note_on_c, 0, 84, 64
2, 8935, Note_on_c, 0, 84, 0
2, 8970, Note_on_c, 0, 79, 64
2, 8983, Note_on_c, 0, 79, 0
2, 9004, Note_on_c, 0, 69, 0
2, 9008, Note_on_c, 0, 64, 0
2, 9017, Note_on_c, 0, 58, 0
2, 9076, Note_on_c, 0, 82, 64
2, 9102, Note_on_c, 0, 82, 0
2, 9189, Note_on_c, 0, 84, 64
2, 9214, Note_on_c, 0, 84, 0
2, 9303, Note_on_c, 0, 48, 64
2, 9317, Note_on_c, 0, 48, 0
2, 9322, Note_on_c, 0, 87, 64
2, 9384, Note_on_c, 0, 87, 0
2, 9409, Note_on_c, 0, 88, 64
2, 9475, Note_on_c, 0, 88, 0
2, 9515, Note_on_c, 0, 79, 64
2, 9709, Note_on_c, 0, 79, 0
2, 9719, Note_on_c, 0, 82, 64
2, 9790, Note_on_c, 0, 82, 0
2, 9958, Note_on_c, 0, 63, 64
2, 9959, Note_on_c, 0, 52, 64
2, 9960, Note_on_c, 0, 58, 64
2, 9974, Note_on_c, 0, 52, 0
2, 9989, Note_on_c, 0, 63, 0
2, 9991, Note_on_c, 0, 58, 0
2, 10080, Note_on_c, 0, 66, 64
2, 10081, Note_on_c, 0, 55, 64
2, 10085, Note_on_c, 0, 61, 64
2, 10186, Note_on_c, 0, 55, 0
2, 10201, Note_on_c, 0, 61, 0
2, 10221, Note_on_c, 0, 66, 0
2, 10265, Note_on_c, 0, 69, 64
2, 10270, Note_on_c, 0, 58, 64
2, 10277, Note_on_c, 0, 64, 64
2, 10297, Note_on_c, 0, 64, 0
2, 10297, Note_on_c, 0, 69, 0
2, 10309, Note_on_c, 0, 58, 0
2, 10433, Note_on_c, 0, 66, 64
2, 10439, Note_on_c, 0, 61, 64
2, 10446, Note_on_c, 0, 55, 64
2, 10460, Note_on_c, 0, 55, 0
2, 10462, Note_on_c, 0, 66, 0
2, 10465, Note_on_c, 0, 61, 0
2, 10561, Note_on_c, 0, 63, 64
2, 10563, Note_on_c, 0, 52, 64
2, 10564, Note_on_c, 0, 58, 64
2, 10798, Note_on_c, 0, 84, 64
2, 10845, Note_on_c, 0, 84, 0
2, 10861, Note_on_c, 0, 85, 64
2, 10870, Note_on_c, 0, 63, 0
2, 10879, Note_on_c, 0, 52, 0
2, 10904, Note_on_c, 0, 85, 0
2, 10922, Note_on_c, 0, 58, 0
2, 10929, Note_on_c, 0, 84, 64
2, 10952, Note_on_c, 0, 84, 0
2, 10990, Note_on_c, 0, 85, 64
2, 11032, Note_on_c, 0, 85, 0
2, 11106, Note_on_c, 0, 84, 64
2, 11121, Note_on_c, 0, 58, 64
2, 11135, Note_on_c, 0, 58, 0
2, 11161, Note_on_c, 0, 84, 0
2, 11227, Note_on_c, 0, 83, 64
2, 11275, Note_on_c, 0, 83, 0
2, 11298, Note_on_c, 0, 79, 64
2, 11308, Note_on_c, 0, 83, 64
2, 11336, Note_on_c, 0, 83, 0
2, 11387, Note_on_c, 0, 79, 0
2, 11410, Note_on_c, 0, 82, 64
2, 11823, Note_on_c, 0, 61, 64
2, 11828, Note_on_c, 0, 58, 64
2, 11838, Note_on_c, 0, 61, 0
2, 11841, Note_on_c, 0, 58, 0
2, 12001, Note_on_c, 0, 61, 64
2, 12007, Note_on_c, 0, 58, 64
2, 12014, Note_on_c, 0, 52, 64
2, 12020, Note_on_c, 0, 61, 0
2, 12021, Note_on_c, 0, 58, 0
2, 12024, Note_on_c, 0, 52, 0
2, 12191, Note_on_c, 0, 61, 64
2, 12197, Note_on_c, 0, 58, 64
2, 12201, Note_on_c, 0, 61, 0
2, 12213, Note_on_c, 0, 58, 0
2, 12357, Note_on_c, 0, 52, 64
2, 12357, Note_on_c, 0, 58, 64
2, 12360, Note_on_c, 0, 60, 64
2, 12464, Control_c, 0, 64, 127
2, 12480, Note_on_c, 0, 52, 0
2, 12488, Note_on_c, 0, 60, 0
2, 12494, Note_on_c, 0, 58, 0
2, 12533, Note_on_c, 0, 82, 0
2, 12546, Note_on_c, 0, 69, 64
2, 12547, Note_on_c, 0, 84, 64
2, 12548, Note_on_c, 0, 79, 64
2, 12553, Note_on_c, 0, 74, 64
2, 12559, Control_c, 0, 64, 0
2, 12602, Control_c, 0, 64, 127
2, 12662, Note_on_c, 0, 79, 0
2, 12683, Note_on_c, 0, 74, 0
2, 12702, Note_on_c, 0, 84, 0
2, 12720, Note_on_c, 0, 73, 64
2, 12721, Note_on_c, 0, 68, 64
2, 12723, Note_on_c, 0, 78, 64
2, 12725, Note_on_c, 0, 69, 0
2, 12725, Control_c, 0, 64, 0
2, 12729, Note_on_c, 0, 83, 64
2, 12739, Note_on_c, 0, 73, 0
2, 12740, Note_on_c, 0, 83, 0
2, 12741, Note_on_c, 0, 68, 0
2, 12741, Note_on_c, 0, 78, 0
2, 12832, Note_on_c, 0, 82, 64
2, 12838, Note_on_c, 0, 77, 64
2, 12841, Note_on_c, 0, 72, 64
2, 12843, Note_on_c, 0, 67, 64
2, 12857, Note_on_c, 0, 67, 0
2, 12858, Note_on_c, 0, 72, 0
2, 12861, Note_on_c, 0, 77, 0
2, 12868, Note_on_c, 0, 82, 0
2, 12959, Note_on_c, 0, 81, 64
2, 12962, Note_on_c, 0, 71, 64
2, 12962, Note_on_c, 0, 66, 64
2, 12969, Note_on_c, 0, 76, 64
2, 12979, Note_on_c, 0, 81, 0
2, 12982, Note_on_c, 0, 76, 0
2, 12983, Note_on_c, 0, 71, 0
2, 12988, Note_on_c, 0, 66, 0
2, 13077, Note_on_c, 0, 80, 64
2, 13084, Note_on_c, 0, 75, 64
2, 13087, Control_c, 0, 64, 127
2, 13111, Note_on_c, 0, 75, 0
2, 13113, Control_c, 0, 64, 0
2, 13116, Note_on_c, 0, 80, 0
2, 13197, Control_c, 0, 64, 127
2, 13198, Note_on_c, 0, 79, 64
2, 13206, Note_on_c, 0, 74, 64
2, 13208, Note_on_c, 0, 69, 64
2, 13212, Note_on_c, 0, 64, 64
2, 13236, Note_on_c, 0, 69, 0
2, 13280, Note_on_c, 0, 74, 0
2, 13285, Note_on_c, 0, 64, 0
2, 13298, Note_on_c, 0, 79, 0
2, 13405, Note_on_c, 0, 66, 64
2, 13411, Note_on_c, 0, 63, 64
2, 13413, Note_on_c, 0, 70, 64
2, 13413, Note_on_c, 0, 56, 64
2, 13415, Note_on_c, 0, 66, 0
2, 13419, Control_c, 0, 64, 0
2, 13420, Note_on_c, 0, 60, 64
2, 13420, Note_on_c, 0, 67, 64
2, 13426, Note_on_c, 0, 58, 64
2, 13551, Control_c, 0, 64, 127
2, 13576, Note_on_c, 0, 63, 0
2, 13580, Note_on_c, 0, 67, 0
2, 13588, Note_on_c, 0, 70, 0
2, 13754, Note_on_c, 0, 89, 64
2, 13755, Note_on_c, 0, 77, 64
2, 13776, Note_on_c, 0, 77, 0
2, 13781, Note_on_c, 0, 89, 0
2, 13864, Note_on_c, 0, 94, 64
2, 13865, Note_on_c, 0, 82, 64
2, 13893, Note_on_c, 0, 82, 0
2, 13907, Note_on_c, 0, 94, 0
2, 13986, Note_on_c, 0, 99, 64
2, 13989, Note_on_c, 0, 87, 64
2, 14010, Note_on_c, 0, 87, 0
2, 14020, Note_on_c, 0, 99, 0
2, 14109, Note_on_c, 0, 104, 64
2, 14114, Note_on_c, 0, 94, 64
2, 14139, Note_on_c, 0, 94, 0
2, 14145, Note_on_c, 0, 104, 0
2, 14234, Note_on_c, 0, 108, 64
2, 14237, Note_on_c, 0, 96, 64
2, 14248, Note_on_c, 0, 60, 0
2, 14256, Note_on_c, 0, 56, 0
2, 14258, Note_on_c, 0, 58, 0
2, 14277, Note_on_c, 0, 108, 0
2, 14299, Note_on_c, 0, 96, 0
2, 14411, Note_on_c, 0, 41, 64
2, 14587, Control_c, 0, 64, 0
2, 14638, Note_on_c, 0, 63, 64
2, 14639, Note_on_c, 0, 56, 64
2, 14642, Note_on_c, 0, 55, 64
2, 14647, Note_on_c, 0, 60, 64
2, 14651, Note_on_c, 0, 55, 0
2, 14660, Note_on_c, 0, 60, 0
2, 14661, Note_on_c, 0, 56, 0
2, 14668, Note_on_c, 0, 63, 0
2, 14791, Note_on_c, 0, 41, 0
2, 14830, Note_on_c, 0, 63, 64
2, 14831, Note_on_c, 0, 56, 64
2, 14844, Note_on_c, 0, 56, 0
2, 14855, Note_on_c, 0, 63, 0
2, 14946, Note_on_c, 0, 48, 64
2, 14957, Note_on_c, 0, 48, 0
2, 15002, Note_on_c, 0, 56, 64
2, 15002, Note_on_c, 0, 63, 64
2, 15003, Note_on_c, 0, 55, 64
2, 15006, Note_on_c, 0, 60, 64
2, 15095, Note_on_c, 0, 55, 0
2, 15125, Note_on_c, 0, 56, 0
2, 15128, Note_on_c, 0, 60, 0
2, 15146, Note_on_c, 0, 63, 0
2, 15185, Note_on_c, 0, 48, 64
2, 15189, Note_on_c, 0, 48, 0
2, 15307, Note_on_c, 0, 70, 64
2, 15313, Note_on_c, 0, 58, 64
2, 15344, Note_on_c, 0, 70, 0
2, 15347, Note_on_c, 0, 58, 0
2, 15366, Note_on_c, 0, 71, 64
2, 15367, Note_on_c, 0, 59, 64
2, 15422, Note_on_c, 0, 71, 0
2, 15428, Note_on_c, 0, 59, 0
2, 15429, Note_on_c, 0, 72, 64
2, 15436, Note_on_c, 0, 60, 64
2, 15458, Note_on_c, 0, 60, 0
2, 15470, Note_on_c, 0, 72, 0
2, 15489, Note_on_c, 0, 72, 64
2, 15494, Note_on_c, 0, 60, 64
2, 15541, Note_on_c, 0, 72, 0
2, 15549, Note_on_c, 0, 60, 0
2, 15604, Note_on_c, 0, 72, 64
2, 15664, Note_on_c, 0, 72, 0
2, 15846, Note_on_c, 0, 63, 64
2, 15848, Note_on_c, 0, 58, 64
2, 15869, Note_on_c, 0, 63, 0
2, 15872, Note_on_c, 0, 58, 0
2, 15967, Note_on_c, 0, 66, 64
2, 15969, Note_on_c, 0, 61, 64
2, 15971, Note_on_c, 0, 55, 64
2, 15987, Note_on_c, 0, 55, 0
2, 15990, Note_on_c, 0, 66, 0
2, 15993, Note_on_c, 0, 61, 0
2, 16086, Note_on_c, 0, 66, 64
2, 16088, Note_on_c, 0, 61, 64
2, 16095, Note_on_c, 0, 55, 64
2, 16115, Note_on_c, 0, 55, 0
2, 16120, Note_on_c, 0, 66, 0
2, 16122, Note_on_c, 0, 61, 0
2, 16160, Note_on_c, 0, 72, 64
2, 16176, Note_on_c, 0, 72, 0
2, 16278, Note_on_c, 0, 63, 64
2, 16279, Note_on_c, 0, 58, 64
2, 16287, Note_on_c, 0, 52, 64
2, 16298, Note_on_c, 0, 63, 0
2, 16301, Note_on_c, 0, 52, 0
2, 16306, Note_on_c, 0, 58, 0
2, 16508, Note_on_c, 0, 84, 64
2, 16509, Note_on_c, 0, 83, 64
2, 16518, Note_on_c, 0, 83, 0
2, 16525, Note_on_c, 0, 84, 0
2, 16585, Note_on_c, 0, 85, 64
2, 16622, Note_on_c, 0, 85, 0
2, 16652, Note_on_c, 0, 84, 64
2, 16675, Note_on_c, 0, 84, 0
2, 16761, Note_on_c, 0, 85, 64
2, 16784, Note_on_c, 0, 85, 0
2, 16880, Note_on_c, 0, 84, 64
2, 16887, Note_on_c, 0, 63, 64
2, 16908, Note_on_c, 0, 63, 0
2, 16931, Note_on_c, 0, 84, 0
2, 16944, Note_on_c, 0, 85, 64
2, 16974, Note_on_c, 0, 84, 64
2, 16976, Note_on_c, 0, 85, 0
2, 17000, Note_on_c, 0, 84, 0
2, 17012, Note_on_c, 0, 79, 64
2, 17038, Note_on_c, 0, 79, 0
2, 17064, Note_on_c, 0, 83, 64
2, 17129, Note_on_c, 0, 83, 0
2, 17177, Note_on_c, 0, 79, 64
2, 17233, Note_on_c, 0, 79, 0
2, 17252, Note_on_c, 0, 82, 64
2, 17360, Note_on_c, 0, 63, 64
2, 17363, Note_on_c, 0, 58, 64
2, 17370, Note_on_c, 0, 63, 0
2, 17376, Note_on_c, 0, 58, 0
2, 17641, Note_on_c, 0, 66, 64
2, 17641, Note_on_c, 0, 61, 64
2, 17652, Note_on_c, 0, 66, 0
2, 17655, Note_on_c, 0, 61, 0
2, 17763, Note_on_c, 0, 60, 64
2, 17770, Note_on_c, 0, 49, 64
2, 17772, Note_on_c, 0, 55, 64
2, 17777, Note_on_c, 0, 60, 0
2, 17783, Note_on_c, 0, 55, 0
2, 17786, Note_on_c, 0, 49, 0
2, 17885, Note_on_c, 0, 49, 64
2, 17885, Note_on_c, 0, 60, 64
2, 17886, Note_on_c, 0, 55, 64
2, 17898, Note_on_c, 0, 55, 0
2, 17899, Note_on_c, 0, 60, 0
2, 17899, Note_on_c, 0, 49, 0
2, 18009, Note_on_c, 0, 63, 64
2, 18013, Note_on_c, 0, 52, 64
2, 18013, Note_on_c, 0, 58, 64
2, 18299, Note_on_c, 0, 82, 0
2, 18366, Note_on_c, 0, 84, 64
2, 18380, Note_on_c, 0, 52, 0
2, 18419, Note_on_c, 0, 58, 0
2, 18423, Note_on_c, 0, 84, 0
2, 18428, Note_on_c, 0, 63, 0
2, 18443, Note_on_c, 0, 85, 64
2, 18514, Note_on_c, 0, 85, 0
2, 18554, Note_on_c, 0, 84, 64
2, 18584, Note_on_c, 0, 84, 0
2, 18617, Note_on_c, 0, 85, 64
2, 18697, Note_on_c, 0, 63, 64
2, 18707, Note_on_c, 0, 63, 0
2, 18797, Note_on_c, 0, 85, 0
2, 18797, Note_on_c, 0, 84, 64
2, 18823, Note_on_c, 0, 84, 0
2, 18906, Note_on_c, 0, 83, 64
2, 18910, Note_on_c, 0, 63, 64
2, 18914, Note_on_c, 0, 58, 64
2, 18923, Note_on_c, 0, 63, 0
2, 18927, Note_on_c, 0, 58, 0
2, 18930, Note_on_c, 0, 83, 0
2, 19029, Note_on_c, 0, 79, 64
2, 19044, Note_on_c, 0, 79, 0
2, 19079, Note_on_c, 0, 82, 64
2, 19116, Note_on_c, 0, 82, 0
2, 19143, Note_on_c, 0, 82, 64
2, 19165, Note_on_c, 0, 82, 0
2, 19194, Note_on_c, 0, 63, 64
2, 19202, Note_on_c, 0, 82, 64
2, 19217, Note_on_c, 0, 63, 0
2, 19237, Note_on_c, 0, 82, 0
2, 19323, Note_on_c, 0, 82, 64
2, 19355, Note_on_c, 0, 82, 0
2, 19387, Note_on_c, 0, 82, 64
2, 19411, Note_on_c, 0, 82, 0
2, 19437, Note_on_c, 0, 82, 64
2, 19482, Note_on_c, 0, 82, 0
2, 19568, Note_on_c, 0, 63, 64
2, 19572, Note_on_c, 0, 58, 64
2, 19600, Note_on_c, 0, 63, 0
2, 19605, Note_on_c, 0, 58, 0
2, 19768, Note_on_c, 0, 63, 64
2, 19772, Note_on_c, 0, 58, 64
2, 19777, Note_on_c, 0, 52, 64
2, 19793, Note_on_c, 0, 63, 0
2, 19795, Note_on_c, 0, 52, 0
2, 19798, Note_on_c, 0, 58, 0
2, 19930, Note_on_c, 0, 63, 64
2, 19935, Note_on_c, 0, 58, 64
2, 19937, Note_on_c, 0, 52, 64
2, 19953, Note_on_c, 0, 52, 0
2, 19955, Note_on_c, 0, 63, 0
2, 19960, Note_on_c, 0, 58, 0
2, 20118, Note_on_c, 0, 63, 64
2, 20119, Note_on_c, 0, 58, 64
2, 20141, Note_on_c, 0, 63, 0
2, 20150, Note_on_c, 0, 58, 0
2, 20406, Note_on_c, 0, 84, 64
2, 20461, Note_on_c, 0, 84, 0
2, 20513, Note_on_c, 0, 83, 64
2, 20562, Note_on_c, 0, 83, 0
2, 20585, Note_on_c, 0, 82, 64
2, 20622, Note_on_c, 0, 82, 0
2, 20650, Note_on_c, 0, 81, 64
2, 20682, Note_on_c, 0, 81, 0
2, 20830, Note_on_c, 0, 80, 64
2, 20837, Note_on_c, 0, 63, 64
2, 20844, Note_on_c, 0, 58, 64
2, 20852, Note_on_c, 0, 63, 0
2, 20857, Note_on_c, 0, 58, 0
2, 20874, Note_on_c, 0, 80, 0
2, 20891, Note_on_c, 0, 79, 64
2, 20927, Note_on_c, 0, 79, 0
2, 21004, Note_on_c, 0, 78, 64
2, 21054, Note_on_c, 0, 78, 0
2, 21070, Note_on_c, 0, 79, 64
2, 21109, Note_on_c, 0, 79, 0
2, 21134, Note_on_c, 0, 77, 64
2, 21243, Note_on_c, 0, 72, 64
2, 21285, Note_on_c, 0, 72, 0
2, 21285, Note_on_c, 0, 77, 0
2, 21367, Note_on_c, 0, 70, 64
2, 21373, Note_on_c, 0, 63, 64
2, 21374, Note_on_c, 0, 56, 64
2, 21374, Note_on_c, 0, 60, 64
2, 21376, Note_on_c, 0, 67, 64
2, 21381, Note_on_c, 0, 58, 64
2, 21476, Note_on_c, 0, 67, 0
2, 21480, Note_on_c, 0, 60, 0
2, 21494, Note_on_c, 0, 56, 0
2, 21494, Control_c, 0, 64, 127
2, 21495, Note_on_c, 0, 58, 0
2, 21513, Note_on_c, 0, 70, 0
2, 21516, Note_on_c, 0, 63, 0
2, 21553, Control_c, 0, 64, 0
2, 21556, Note_on_c, 0, 68, 64
2, 21557, Note_on_c, 0, 61, 64
2, 21560, Note_on_c, 0, 58, 64
2, 21560, Note_on_c, 0, 65, 64
2, 21565, Note_on_c, 0, 56, 64
2, 21567, Note_on_c, 0, 54, 64
2, 21682, Note_on_c, 0, 54, 0
2, 21685, Note_on_c, 0, 56, 0
2, 21686, Note_on_c, 0, 58, 0
2, 21690, Note_on_c, 0, 61, 0
2, 21713, Note_on_c, 0, 65, 0
2, 21716, Note_on_c, 0, 68, 0
2, 21733, Note_on_c, 0, 63, 64
2, 21735, Note_on_c, 0, 67, 64
2, 21740, Note_on_c, 0, 70, 64
2, 21740, Note_on_c, 0, 56, 64
2, 21742, Note_on_c, 0, 60, 64
2, 21742, Note_on_c, 0, 58, 64
2, 22259, Note_on_c, 0, 63, 0
2, 22264, Note_on_c, 0, 67, 0
2, 22265, Note_on_c, 0, 60, 0
2, 22266, Note_on_c, 0, 70, 0
2, 22276, Note_on_c, 0, 56, 0
2, 22286, Note_on_c, 0, 58, 0
2, 22311, Note_on_c, 0, 70, 64
2, 22314, Note_on_c, 0, 63, 64
2, 22318, Note_on_c, 0, 67, 64
2, 22319, Note_on_c, 0, 56, 64
2, 22329, Note_on_c, 0, 63, 0
2, 22331, Note_on_c, 0, 67, 0
2, 22335, Note_on_c, 0, 70, 0
2, 22341, Note_on_c, 0, 56, 0
2, 22505, Note_on_c, 0, 63, 64
2, 22511, Note_on_c, 0, 56, 64
2, 22511, Note_on_c, 0, 70, 64
2, 22512, Note_on_c, 0, 67, 64
2, 22514, Note_on_c, 0, 60, 64
2, 22517, Note_on_c, 0, 63, 0
2, 22524, Note_on_c, 0, 58, 64
2, 22527, Note_on_c, 0, 67, 0
2, 22553, Note_on_c, 0, 70, 0
2, 22753, Note_on_c, 0, 58, 0
2, 22813, Note_on_c, 0, 60, 0
2, 22813, Note_on_c, 0, 72, 64
2, 22818, Note_on_c, 0, 56, 0
2, 22884, Note_on_c, 0, 73, 64
2, 22887, Note_on_c, 0, 72, 0
2, 22907, Note_on_c, 0, 73, 0
2, 22924, Note_on_c, 0, 74, 64
2, 22988, Note_on_c, 0, 74, 0
2, 22997, Note_on_c, 0, 79, 64
2, 23027, Note_on_c, 0, 79, 0
2, 23053, Note_on_c, 0, 77, 64
2, 23286, Note_on_c, 0, 67, 64
2, 23289, Note_on_c, 0, 62, 64
2, 23289, Note_on_c, 0, 63, 64
2, 23308, Note_on_c, 0, 62, 0
2, 23312, Note_on_c, 0, 67, 0
2, 23313, Note_on_c, 0, 63, 0
2, 23489, Note_on_c, 0, 67, 64
2, 23490, Note_on_c, 0, 62, 64
2, 23493, Note_on_c, 0, 63, 64
2, 23507, Note_on_c, 0, 63, 0
2, 23507, Note_on_c, 0, 67, 0
2, 23508, Note_on_c, 0, 62, 0
2, 23707, Note_on_c, 0, 77, 0
2, 23736, Note_on_c, 0, 74, 64
2, 23738, Note_on_c, 0, 63, 64
2, 23739, Note_on_c, 0, 67, 64
2, 23742, Note_on_c, 0, 62, 64
2, 23749, Note_on_c, 0, 67, 0
2, 23753, Note_on_c, 0, 62, 0
2, 23755, Note_on_c, 0, 63, 0
2, 23962, Note_on_c, 0, 74, 0
2, 23975, Note_on_c, 0, 67, 64
2, 23975, Note_on_c, 0, 72, 64
2, 23978, Note_on_c, 0, 63, 64
2, 23979, Note_on_c, 0, 62, 64
2, 23985, Note_on_c, 0, 67, 0
2, 23990, Note_on_c, 0, 62, 0
2, 23991, Note_on_c, 0, 63, 0
2, 24007, Note_on_c, 0, 72, 0
2, 24059, Note_on_c, 0, 65, 64
2, 24106, Note_on_c, 0, 65, 0
2, 24132, Note_on_c, 0, 65, 64
2, 24144, Note_on_c, 0, 65, 0
2, 24325, Note_on_c, 0, 64, 64
2, 24327, Note_on_c, 0, 68, 64
2, 24348, Note_on_c, 0, 68, 0
2, 24348, Note_on_c, 0, 64, 0
2, 24484, Note_on_c, 0, 67, 64
2, 24490, Note_on_c, 0, 62, 64
2, 24495, Note_on_c, 0, 63, 64
2, 24604, Note_on_c, 0, 57, 64
2, 24623, Note_on_c, 0, 67, 0
2, 24638, Note_on_c, 0, 63, 0
2, 24687, Note_on_c, 0, 63, 64
2, 24701, Note_on_c, 0, 63, 0
2, 24713, Note_on_c, 0, 57, 0
2, 24725, Note_on_c, 0, 62, 0
2, 24741, Note_on_c, 0, 84, 64
2, 24795, Note_on_c, 0, 84, 0
2, 24808, Note_on_c, 0, 85, 64
2, 24815, Note_on_c, 0, 63, 64
2, 24834, Note_on_c, 0, 85, 0
2, 24864, Note_on_c, 0, 63, 0
2, 24866, Note_on_c, 0, 86, 64
2, 24908, Note_on_c, 0, 86, 0
2, 24927, Note_on_c, 0, 89, 64
2, 24955, Note_on_c, 0, 67, 64
2, 24962, Note_on_c, 0, 89, 0
2, 24966, Note_on_c, 0, 56, 64
2, 24968, Note_on_c, 0, 62, 64
2, 24987, Note_on_c, 0, 62, 0
2, 24990, Note_on_c, 0, 67, 0
2, 24996, Note_on_c, 0, 98, 64
2, 25005, Note_on_c, 0, 56, 0
2, 25146, Note_on_c, 0, 98, 0
2, 25165, Note_on_c, 0, 97, 64
2, 25205, Note_on_c, 0, 97, 0
2, 25227, Note_on_c, 0, 96, 64
2, 25263, Note_on_c, 0, 96, 0
2, 25286, Note_on_c, 0, 68, 64
2, 25293, Note_on_c, 0, 63, 64
2, 25298, Note_on_c, 0, 57, 64
2, 25309, Note_on_c, 0, 57, 0
2, 25312, Note_on_c, 0, 68, 0
2, 25315, Note_on_c, 0, 63, 0
2, 25407, Note_on_c, 0, 95, 64
2, 25459, Note_on_c, 0, 95, 0
2, 25474, Note_on_c, 0, 94, 64
2, 25513, Note_on_c, 0, 94, 0
2, 25538, Note_on_c, 0, 67, 64
2, 25543, Note_on_c, 0, 62, 64
2, 25550, Note_on_c, 0, 67, 0
2, 25564, Note_on_c, 0, 62, 0
2, 25653, Note_on_c, 0, 92, 64
2, 25680, Note_on_c, 0, 92, 0
2, 25696, Note_on_c, 0, 91, 64
2, 25716, Note_on_c, 0, 91, 0
2, 25778, Note_on_c, 0, 94, 64
2, 25791, Note_on_c, 0, 92, 64
2, 25803, Note_on_c, 0, 94, 0
2, 25824, Note_on_c, 0, 92, 0
2, 25828, Note_on_c, 0, 91, 64
2, 25873, Note_on_c, 0, 91, 0
2, 25893, Note_on_c, 0, 89, 64
2, 25935, Note_on_c, 0, 89, 0
2, 25951, Note_on_c, 0, 88, 64
2, 26000, Note_on_c, 0, 88, 0
2, 26012, Note_on_c, 0, 86, 64
2, 26024, Note_on_c, 0, 86, 0
2, 26050, Note_on_c, 0, 91, 64
2, 26110, Note_on_c, 0, 91, 0
2, 26167, Note_on_c, 0, 89, 64
2, 26247, Note_on_c, 0, 80, 64
2, 26262, Note_on_c, 0, 89, 0
2, 26270, Note_on_c, 0, 80, 0
2, 26408, Note_on_c, 0, 67, 64
2, 26412, Note_on_c, 0, 56, 64
2, 26418, Note_on_c, 0, 62, 64
2, 26430, Note_on_c, 0, 67, 0
2, 26436, Note_on_c, 0, 62, 0
2, 26442, Note_on_c, 0, 56, 0
2, 26603, Note_on_c, 0, 67, 64
2, 26605, Note_on_c, 0, 62, 64
2, 26616, Note_on_c, 0, 67, 0
2, 26623, Note_on_c, 0, 62, 0
2, 26769, Note_on_c, 0, 81, 64
2, 26836, Note_on_c, 0, 81, 0
2, 26847, Note_on_c, 0, 78, 64
2, 26873, Note_on_c, 0, 78, 0
2, 26886, Note_on_c, 0, 79, 64
2, 26965, Note_on_c, 0, 79, 0
2, 26968, Note_on_c, 0, 61, 64
2, 26969, Note_on_c, 0, 81, 64
2, 26980, Note_on_c, 0, 61, 0
2, 26991, Note_on_c, 0, 81, 0
2, 27015, Note_on_c, 0, 82, 64
2, 27074, Note_on_c, 0, 82, 0
2, 27091, Note_on_c, 0, 84, 64
2, 27115, Note_on_c, 0, 84, 0
2, 27137, Note_on_c, 0, 81, 64
2, 27213, Note_on_c, 0, 81, 0
2, 27255, Note_on_c, 0, 81, 64
2, 27343, Note_on_c, 0, 81, 0
2, 27369, Note_on_c, 0, 61, 64
2, 27393, Note_on_c, 0, 61, 0
2, 27563, Note_on_c, 0, 61, 64
2, 27563, Note_on_c, 0, 65, 64
2, 27573, Note_on_c, 0, 61, 0
2, 27574, Note_on_c, 0, 65, 0
2, 27732, Note_on_c, 0, 81, 64
2, 27733, Note_on_c, 0, 83, 64
2, 27760, Note_on_c, 0, 83, 0
2, 27785, Note_on_c, 0, 81, 0
2, 27804, Note_on_c, 0, 84, 64
2, 27821, Note_on_c, 0, 61, 64
2, 27833, Note_on_c, 0, 61, 0
2, 27848, Note_on_c, 0, 84, 0
2, 27861, Note_on_c, 0, 82, 64
2, 27923, Note_on_c, 0, 78, 64
2, 27927, Note_on_c, 0, 82, 0
2, 27961, Note_on_c, 0, 78, 0
2, 27984, Note_on_c, 0, 76, 64
2, 28026, Note_on_c, 0, 76, 0
2, 28040, Note_on_c, 0, 81, 64
2, 28042, Note_on_c, 0, 66, 64
2, 28048, Note_on_c, 0, 61, 64
2, 28059, Note_on_c, 0, 61, 0
2, 28063, Note_on_c, 0, 66, 0
2, 28096, Note_on_c, 0, 79, 64
2, 28116, Note_on_c, 0, 81, 0
2, 28163, Note_on_c, 0, 75, 64
2, 28177, Note_on_c, 0, 79, 0
2, 28200, Note_on_c, 0, 75, 0
2, 28277, Note_on_c, 0, 78, 64
2, 28280, Note_on_c, 0, 66, 64
2, 28285, Note_on_c, 0, 61, 64
2, 28298, Note_on_c, 0, 61, 0
2, 28302, Note_on_c, 0, 66, 0
2, 28320, Note_on_c, 0, 78, 0
2, 28331, Note_on_c, 0, 76, 64
2, 28394, Note_on_c, 0, 72, 64
2, 28415, Note_on_c, 0, 76, 0
2, 28429, Note_on_c, 0, 72, 0
2, 28448, Note_on_c, 0, 70, 64
2, 28500, Note_on_c, 0, 70, 0
2, 28513, Note_on_c, 0, 75, 64
2, 28520, Note_on_c, 0, 66, 64
2, 28528, Note_on_c, 0, 61, 64
2, 28537, Note_on_c, 0, 66, 0
2, 28540, Note_on_c, 0, 61, 0
2, 28572, Note_on_c, 0, 73, 64
2, 28577, Note_on_c, 0, 75, 0
2, 28635, Note_on_c, 0, 69, 64
2, 28664, Note_on_c, 0, 69, 0
2, 28669, Note_on_c, 0, 73, 0
2, 28693, Note_on_c, 0, 67, 64
2, 28734, Note_on_c, 0, 67, 0
2, 28752, Note_on_c, 0, 72, 64
2, 28753, Note_on_c, 0, 44, 64
2, 28758, Note_on_c, 0, 51, 64
2, 28773, Note_on_c, 0, 44, 0
2, 28778, Note_on_c, 0, 51, 0
2, 28792, Note_on_c, 0, 72, 0
2, 28814, Note_on_c, 0, 70, 64
2, 28852, Note_on_c, 0, 70, 0
2, 28878, Note_on_c, 0, 67, 64
2, 28913, Note_on_c, 0, 67, 0
2, 28937, Note_on_c, 0, 63, 64
2, 28975, Note_on_c, 0, 63, 0
2, 28990, Note_on_c, 0, 60, 64
2, 29001, Note_on_c, 0, 44, 64
2, 29006, Note_on_c, 0, 51, 64
2, 29012, Note_on_c, 0, 44, 0
2, 29014, Note_on_c, 0, 60, 0
2, 29033, Note_on_c, 0, 51, 0
2, 29055, Note_on_c, 0, 56, 64
2, 29101, Note_on_c, 0, 56, 0
2, 29118, Note_on_c, 0, 55, 64
2, 29128, Note_on_c, 0, 55, 0
2, 29152, Note_on_c, 0, 58, 64
2, 29224, Note_on_c, 0, 58, 0
2, 29284, Note_on_c, 0, 56, 64
2, 29351, Note_on_c, 0, 56, 0
2, 29353, Note_on_c, 0, 58, 64
2, 29362, Note_on_c, 0, 55, 64
2, 29374, Note_on_c, 0, 55, 0
2, 29387, Note_on_c, 0, 58, 0
2, 29409, Note_on_c, 0, 60, 64
2, 29450, Note_on_c, 0, 60, 0
2, 29468, Note_on_c, 0, 63, 64
2, 29507, Note_on_c, 0, 63, 0
2, 29522, Note_on_c, 0, 65, 64
2, 29570, Note_on_c, 0, 65, 0
2, 29591, Note_on_c, 0, 67, 64
2, 29615, Note_on_c, 0, 67, 0
2, 29642, Note_on_c, 0, 68, 64
2, 29682, Note_on_c, 0, 68, 0
2, 29684, Note_on_c, 0, 70, 64
2, 29713, Note_on_c, 0, 70, 0
2, 29732, Note_on_c, 0, 72, 64
2, 29742, Note_on_c, 0, 61, 64
2, 29754, Note_on_c, 0, 61, 0
2, 29776, Note_on_c, 0, 72, 0
2, 29781, Note_on_c, 0, 73, 64
2, 29815, Note_on_c, 0, 73, 0
2, 29818, Note_on_c, 0, 75, 64
2, 29846, Note_on_c, 0, 75, 0
2, 29862, Note_on_c, 0, 76, 64
2, 29884, Note_on_c, 0, 76, 0
2, 29898, Note_on_c, 0, 78, 64
2, 29927, Note_on_c, 0, 78, 0
2, 29937, Note_on_c, 0, 61, 64
2, 29946, Note_on_c, 0, 79, 64
2, 29952, Note_on_c, 0, 61, 0
2, 29987, Note_on_c, 0, 80, 64
2, 29991, Note_on_c, 0, 79, 0
2, 30016, Note_on_c, 0, 80, 0
2, 30205, Note_on_c, 0, 61, 64
2, 30224, Note_on_c, 0, 61, 0
2, 30322, Note_on_c, 0, 79, 64
2, 30336, Note_on_c, 0, 79, 0
2, 30381, Note_on_c, 0, 81, 64
2, 30405, Note_on_c, 0, 81, 0
2, 30411, Note_on_c, 0, 82, 64
2, 30436, Note_on_c, 0, 82, 0
2, 30453, Note_on_c, 0, 84, 64
2, 30470, Note_on_c, 0, 63, 64
2, 30478, Note_on_c, 0, 58, 64
2, 30480, Note_on_c, 0, 63, 0
2, 30481, Note_on_c, 0, 84, 0
2, 30506, Note_on_c, 0, 85, 64
2, 30511, Note_on_c, 0, 58, 0
2, 30553, Note_on_c, 0, 85, 0
2, 30573, Note_on_c, 0, 87, 64
2, 30608, Note_on_c, 0, 87, 0
2, 30625, Note_on_c, 0, 88, 64
2, 30672, Note_on_c, 0, 88, 0
2, 30693, Note_on_c, 0, 91, 64
2, 30704, Note_on_c, 0, 58, 64
2, 30717, Note_on_c, 0, 91, 0
2, 30723, Note_on_c, 0, 58, 0
2, 30753, Note_on_c, 0, 96, 64
2, 30807, Note_on_c, 0, 96, 0
2, 30861, Note_on_c, 0, 96, 64
2, 30866, Note_on_c, 0, 84, 64
2, 30914, Note_on_c, 0, 96, 0
2, 30916, Note_on_c, 0, 84, 0
2, 30945, Note_on_c, 0, 69, 64
2, 30945, Note_on_c, 0, 96, 64
2, 30949, Note_on_c, 0, 84, 64
2, 30951, Note_on_c, 0, 64, 64
2, 30952, Note_on_c, 0, 58, 64
2, 30992, Note_on_c, 0, 96, 0
2, 30993, Note_on_c, 0, 84, 0
2, 31001, Note_on_c, 0, 64, 0
2, 31003, Note_on_c, 0, 69, 0
2, 31007, Note_on_c, 0, 58, 0
2, 31030, Note_on_c, 0, 96, 64
2, 31033, Note_on_c, 0, 58, 64
2, 31035, Note_on_c, 0, 84, 64
2, 31036, Note_on_c, 0, 64, 64
2, 31036, Note_on_c, 0, 69, 64
2, 31070, Note_on_c, 0, 69, 0
2, 31070, Note_on_c, 0, 84, 0
2, 31070, Note_on_c, 0, 64, 0
2, 31073, Note_on_c, 0, 96, 0
2, 31078, Note_on_c, 0, 58, 0
2, 31118, Note_on_c, 0, 96, 64
2, 31119, Note_on_c, 0, 58, 64
2, 31120, Note_on_c, 0, 64, 64
2, 31122, Note_on_c, 0, 84, 64
2, 31124, Note_on_c, 0, 69, 64
2, 31152, Note_on_c, 0, 69, 0
2, 31160, Note_on_c, 0, 64, 0
2, 31160, Note_on_c, 0, 84, 0
2, 31164, Note_on_c, 0, 58, 0
2, 31164, Note_on_c, 0, 96, 0
2, 31203, Note_on_c, 0, 96, 64
2, 31203, Note_on_c, 0, 58, 64
2, 31205, Note_on_c, 0, 84, 64
2, 31206, Note_on_c, 0, 64, 64
2, 31213, Note_on_c, 0, 69, 64
2, 31224, Note_on_c, 0, 69, 0
2, 31232, Note_on_c, 0, 84, 0
2, 31232, Note_on_c, 0, 64, 0
2, 31239, Note_on_c, 0, 96, 0
2, 31241, Note_on_c, 0, 58, 0
2, 31299, Note_on_c, 0, 97, 64
2, 31300, Note_on_c, 0, 85, 64
2, 31300, Note_on_c, 0, 70, 64
2, 31302, Note_on_c, 0, 65, 64
2, 31317, Note_on_c, 0, 65, 0
2, 31328, Note_on_c, 0, 70, 0
2, 31332, Note_on_c, 0, 85, 0
2, 31339, Note_on_c, 0, 97, 0
2, 31365, Note_on_c, 0, 96, 64
2, 31371, Note_on_c, 0, 84, 64
2, 31371, Note_on_c, 0, 69, 64
2, 31374, Note_on_c, 0, 64, 64
2, 31379, Note_on_c, 0, 58, 64
2, 31797, Note_on_c, 0, 69, 0
2, 31802, Note_on_c, 0, 64, 0
2, 31810, Note_on_c, 0, 84, 0
2, 31818, Note_on_c, 0, 96, 0
2, 31863, Note_on_c, 0, 58, 0
2, 31868, Note_on_c, 0, 61, 64
2, 31870, Note_on_c, 0, 97, 64
2, 31872, Note_on_c, 0, 85, 64
2, 31902, Note_on_c, 0, 85, 0
2, 31912, Note_on_c, 0, 61, 0
2, 31913, Note_on_c, 0, 97, 0
2, 31925, Note_on_c, 0, 60, 64
2, 31930, Note_on_c, 0, 96, 64
2, 31945, Note_on_c, 0, 84, 64
2, 31966, Note_on_c, 0, 96, 0
2, 31970, Note_on_c, 0, 84, 0
2, 31995, Note_on_c, 0, 60, 0
2, 32015, Note_on_c, 0, 79, 64
2, 32015, Note_on_c, 0, 91, 64
2, 32026, Note_on_c, 0, 91, 0
2, 32026, Note_on_c, 0, 79, 0
2, 32126, Note_on_c, 0, 82, 64
2, 32128, Note_on_c, 0, 94, 64
2, 32132, Note_on_c, 0, 58, 64
2, 32136, Note_on_c, 0, 82, 0
2, 32139, Note_on_c, 0, 94, 0
2, 32146, Note_on_c, 0, 58, 0
2, 32263, Note_on_c, 0, 94, 64
2, 32264, Note_on_c, 0, 82, 64
2, 32266, Note_on_c, 0, 58, 64
2, 32280, Note_on_c, 0, 82, 0
2, 32291, Note_on_c, 0, 58, 0
2, 32291, Note_on_c, 0, 94, 0
2, 32364, Note_on_c, 0, 84, 64
2, 32365, Note_on_c, 0, 96, 64
2, 32366, Note_on_c, 0, 60, 64
2, 32383, Note_on_c, 0, 84, 0
2, 32392, Note_on_c, 0, 60, 0
2, 32396, Note_on_c, 0, 96, 0
2, 32528, Note_on_c, 0, 63, 64
2, 32529, Note_on_c, 0, 99, 64
2, 32538, Note_on_c, 0, 63, 0
2, 32539, Note_on_c, 0, 64, 64
2, 32562, Note_on_c, 0, 99, 0
2, 32563, Note_on_c, 0, 100, 64
2, 32705, Note_on_c, 0, 64, 0
2, 32708, Note_on_c, 0, 91, 64
2, 32710, Note_on_c, 0, 100, 0
2, 32716, Note_on_c, 0, 55, 64
2, 32803, Note_on_c, 0, 91, 0
2, 32814, Note_on_c, 0, 94, 64
2, 32818, Note_on_c, 0, 55, 0
2, 32822, Note_on_c, 0, 58, 64
2, 33475, Note_on_c, 0, 94, 0
2, 33480, Note_on_c, 0, 58, 0
2, 33487, Note_on_c, 0, 61, 64
2, 33552, Note_on_c, 0, 61, 0
2, 33797, Note_on_c, 0, 96, 64
2, 33797, Note_on_c, 0, 60, 64
2, 33817, Note_on_c, 0, 96, 0
2, 33822, Note_on_c, 0, 60, 0
2, 33892, Note_on_c, 0, 61, 64
2, 33894, Note_on_c, 0, 97, 64
2, 33938, Note_on_c, 0, 97, 0
2, 33947, Note_on_c, 0, 61, 0
2, 33962, Note_on_c, 0, 96, 64
2, 33966, Note_on_c, 0, 60, 64
2, 33983, Note_on_c, 0, 60, 0
2, 33985, Note_on_c, 0, 96, 0
2, 34048, Note_on_c, 0, 97, 64
2, 34050, Note_on_c, 0, 61, 64
2, 34074, Note_on_c, 0, 61, 0
2, 34081, Note_on_c, 0, 97, 0
2, 34157, Note_on_c, 0, 96, 64
2, 34175, Note_on_c, 0, 60, 64
2, 34395, Note_on_c, 0, 60, 0
2, 34396, Note_on_c, 0, 96, 0
2, 34400, Note_on_c, 0, 95, 64
2, 34408, Note_on_c, 0, 59, 64
2, 34481, Note_on_c, 0, 59, 0
2, 34488, Note_on_c, 0, 91, 64
2, 34489, Note_on_c, 0, 55, 64
2, 34491, Note_on_c, 0, 95, 0
2, 34571, Note_on_c, 0, 91, 0
2, 34577, Note_on_c, 0, 55, 0
2, 34587, Note_on_c, 0, 94, 64
2, 34588, Note_on_c, 0, 58, 64
2, 35477, Note_on_c, 0, 94, 0
2, 35480, Note_on_c, 0, 58, 0
2, 35757, Note_on_c, 0, 84, 64
2, 35763, Note_on_c, 0, 79, 64
2, 35764, Note_on_c, 0, 74, 64
2, 35765, Note_on_c, 0, 69, 64
2, 35793, Note_on_c, 0, 84, 0
2, 35796, Note_on_c, 0, 79, 0
2, 35802, Note_on_c, 0, 74, 0
2, 35839, Note_on_c, 0, 73, 64
2, 35843, Note_on_c, 0, 78, 64
2, 35845, Note_on_c, 0, 69, 0
2, 35847, Note_on_c, 0, 68, 64
2, 35852, Note_on_c, 0, 83, 50
2, 35854, Note_on_c, 0, 73, 0
2, 35857, Note_on_c, 0, 78, 0
2, 35859, Note_on_c, 0, 68, 0
2, 35876, Note_on_c, 0, 83, 0
2, 35959, Note_on_c, 0, 82, 64
2, 35960, Note_on_c, 0, 77, 64
2, 35964, Note_on_c, 0, 72, 64
2, 35965, Note_on_c, 0, 67, 64
2, 35987, Note_on_c, 0, 82, 0
2, 35991, Note_on_c, 0, 77, 0
2, 35997, Note_on_c, 0, 72, 0
2, 36006, Note_on_c, 0, 67, 0
2, 36025, Note_on_c, 0, 81, 64
2, 36033, Note_on_c, 0, 66, 64
2, 36033, Note_on_c, 0, 71, 64
2, 36034, Note_on_c, 0, 76, 64
2, 36061, Note_on_c, 0, 71, 0
2, 36062, Note_on_c, 0, 81, 0
2, 36064, Note_on_c, 0, 76, 0
2, 36070, Note_on_c, 0, 66, 0
2, 36134, Note_on_c, 0, 80, 64
2, 36135, Note_on_c, 0, 70, 64
2, 36136, Note_on_c, 0, 75, 64
2, 36141, Note_on_c, 0, 65, 64
2, 36157, Note_on_c, 0, 65, 0
2, 36162, Note_on_c, 0, 70, 0
2, 36163, Note_on_c, 0, 80, 0
2, 36170, Note_on_c, 0, 75, 0
2, 36208, Note_on_c, 0, 79, 64
2, 36212, Note_on_c, 0, 69, 64
2, 36214, Note_on_c, 0, 74, 64
2, 36226, Note_on_c, 0, 74, 0
2, 36227, Note_on_c, 0, 69, 0
2, 36227, Note_on_c, 0, 79, 0
2, 36312, Note_on_c, 0, 63, 64
2, 36315, Note_on_c, 0, 78, 64
2, 36315, Note_on_c, 0, 68, 64
2, 36320, Note_on_c, 0, 73, 64
2, 36336, Note_on_c, 0, 63, 0
2, 36340, Note_on_c, 0, 73, 0
2, 36340, Note_on_c, 0, 68, 0
2, 36342, Note_on_c, 0, 78, 0
2, 36441, Note_on_c, 0, 77, 64
2, 36442, Note_on_c, 0, 72, 64
2, 36458, Note_on_c, 0, 72, 0
2, 36459, Note_on_c, 0, 77, 0
2, 36616, Note_on_c, 0, 55, 64
2, 36657, Note_on_c, 0, 55, 0
2, 36673, Note_on_c, 0, 48, 64
2, 36687, Note_on_c, 0, 48, 0
2, 36699, Note_on_c, 0, 56, 64
2, 36713, Note_on_c, 0, 60, 64
2, 36727, Note_on_c, 0, 56, 0
2, 36730, Note_on_c, 0, 60, 0
2, 36916, Note_on_c, 0, 48, 64
2, 36927, Note_on_c, 0, 48, 0
2, 36969, Note_on_c, 0, 55, 64
2, 36993, Note_on_c, 0, 55, 0
2, 37025, Note_on_c, 0, 56, 64
2, 37055, Note_on_c, 0, 56, 0
2, 37081, Note_on_c, 0, 58, 64
2, 37085, Note_on_c, 0, 62, 64
2, 37149, Note_on_c, 0, 62, 0
2, 37162, Note_on_c, 0, 58, 0
2, 37199, Note_on_c, 0, 56, 64
2, 37201, Note_on_c, 0, 60, 64
2, 37250, Note_on_c, 0, 56, 0
2, 37258, Note_on_c, 0, 60, 0
2, 37269, Note_on_c, 0, 55, 64
2, 37279, Note_on_c, 0, 55, 0
2, 37375, Note_on_c, 0, 41, 64
2, 37377, Note_on_c, 0, 29, 64
2, 37410, Note_on_c, 0, 29, 0
2, 37426, Note_on_c, 0, 41, 0
2, 37504, Note_on_c, 0, 55, 64
2, 37518, Note_on_c, 0, 55, 0
2, 37559, Note_on_c, 0, 56, 64
2, 37608, Note_on_c, 0, 56, 0
2, 37679, Note_on_c, 0, 58, 64
2, 37682, Note_on_c, 0, 62, 64
2, 37716, Note_on_c, 0, 62, 0
2, 37733, Note_on_c, 0, 58, 0
2, 37879, Note_on_c, 0, 53, 64
2, 37891, Note_on_c, 0, 53, 0
2, 38099, Note_on_c, 0, 53, 64
2, 38109, Note_on_c, 0, 53, 0
2, 38164, Note_on_c, 0, 60, 64
2, 38212, Note_on_c, 0, 60, 0
2, 38229, Note_on_c, 0, 61, 64
2, 38259, Note_on_c, 0, 61, 0
2, 38285, Note_on_c, 0, 64, 64
2, 38328, Note_on_c, 0, 64, 0
2, 38347, Note_on_c, 0, 67, 64
2, 38374, Note_on_c, 0, 67, 0
2, 38401, Note_on_c, 0, 70, 64
2, 38460, Note_on_c, 0, 70, 0
2, 38465, Note_on_c, 0, 73, 64
2, 38504, Note_on_c, 0, 73, 0
2, 38527, Note_on_c, 0, 70, 64
2, 38611, Note_on_c, 0, 70, 0
2, 38642, Note_on_c, 0, 67, 64
2, 38746, Note_on_c, 0, 67, 0
2, 38764, Note_on_c, 0, 64, 64
2, 38833, Note_on_c, 0, 64, 0
2, 38956, Note_on_c, 0, 63, 64
2, 38961, Note_on_c, 0, 58, 64
2, 38983, Note_on_c, 0, 63, 0
2, 38989, Note_on_c, 0, 58, 0
2, 39122, Note_on_c, 0, 63, 64
2, 39125, Note_on_c, 0, 58, 64
2, 39126, Note_on_c, 0, 52, 64
2, 39155, Note_on_c, 0, 52, 0
2, 39156, Note_on_c, 0, 63, 0
2, 39165, Note_on_c, 0, 58, 0
2, 39318, Note_on_c, 0, 63, 64
2, 39322, Note_on_c, 0, 58, 64
2, 39326, Note_on_c, 0, 52, 64
2, 39494, Note_on_c, 0, 58, 0
2, 39494, Note_on_c, 0, 63, 0
2, 39563, Note_on_c, 0, 52, 0
2, 39602, Note_on_c, 0, 79, 64
2, 39646, Note_on_c, 0, 79, 0
2, 39669, Note_on_c, 0, 79, 64
2, 39703, Note_on_c, 0, 79, 0
2, 39722, Note_on_c, 0, 82, 64
2, 39783, Note_on_c, 0, 82, 0
2, 39789, Note_on_c, 0, 76, 64
2, 39837, Note_on_c, 0, 76, 0
2, 39844, Note_on_c, 0, 73, 64
2, 39936, Note_on_c, 0, 73, 0
2, 39967, Note_on_c, 0, 73, 64
2, 40042, Note_on_c, 0, 73, 0
2, 40053, Note_on_c, 0, 58, 64
2, 40087, Note_on_c, 0, 58, 0
2, 40278, Note_on_c, 0, 63, 64
2, 40287, Note_on_c, 0, 63, 0
2, 40323, Note_on_c, 0, 82, 64
2, 40378, Note_on_c, 0, 82, 0
2, 40394, Note_on_c, 0, 82, 64
2, 40433, Note_on_c, 0, 82, 0
2, 40442, Note_on_c, 0, 85, 64
2, 40498, Note_on_c, 0, 85, 0
2, 40506, Note_on_c, 0, 82, 64
2, 40521, Note_on_c, 0, 68, 64
2, 40530, Note_on_c, 0, 68, 0
2, 40547, Note_on_c, 0, 82, 0
2, 40560, Note_on_c, 0, 79, 64
2, 40635, Note_on_c, 0, 79, 0
2, 40675, Note_on_c, 0, 79, 64
2, 40744, Note_on_c, 0, 79, 0
2, 40747, Note_on_c, 0, 66, 64
2, 40749, Note_on_c, 0, 61, 64
2, 40757, Note_on_c, 0, 66, 0
2, 40782, Note_on_c, 0, 61, 0
2, 40798, Note_on_c, 0, 76, 64
2, 40844, Note_on_c, 0, 76, 0
2, 40866, Note_on_c, 0, 76, 64
2, 40903, Note_on_c, 0, 76, 0
2, 40920, Note_on_c, 0, 79, 64
2, 40968, Note_on_c, 0, 79, 0
2, 40979, Note_on_c, 0, 66, 64
2, 40988, Note_on_c, 0, 76, 64
2, 40988, Note_on_c, 0, 61, 64
2, 41003, Note_on_c, 0, 66, 0
2, 41017, Note_on_c, 0, 76, 0
2, 41035, Note_on_c, 0, 61, 0
2, 41047, Note_on_c, 0, 73, 64
2, 41103, Note_on_c, 0, 73, 0
2, 41105, Note_on_c, 0, 70, 64
2, 41135, Note_on_c, 0, 70, 0
2, 41163, Note_on_c, 0, 67, 64
2, 41213, Note_on_c, 0, 67, 0
2, 41230, Note_on_c, 0, 65, 64
2, 41269, Note_on_c, 0, 65, 0
2, 41300, Note_on_c, 0, 64, 64
2, 41364, Note_on_c, 0, 64, 0
2, 41475, Note_on_c, 0, 58, 64
2, 41476, Note_on_c, 0, 48, 64
2, 41488, Note_on_c, 0, 48, 0
2, 41495, Note_on_c, 0, 58, 0
2, 41649, Note_on_c, 0, 61, 64
2, 41687, Note_on_c, 0, 61, 0
2, 41711, Note_on_c, 0, 64, 64
2, 41723, Note_on_c, 0, 61, 64
2, 41736, Note_on_c, 0, 64, 0
2, 41757, Note_on_c, 0, 61, 0
2, 41762, Note_on_c, 0, 60, 64
2, 41799, Note_on_c, 0, 60, 0
2, 41827, Note_on_c, 0, 58, 64
2, 41842, Note_on_c, 0, 48, 64
2, 41855, Note_on_c, 0, 48, 0
2, 41864, Note_on_c, 0, 58, 0
2, 41879, Note_on_c, 0, 56, 64
2, 41926, Note_on_c, 0, 56, 0
2, 41950, Note_on_c, 0, 55, 64
2, 41995, Note_on_c, 0, 55, 0
2, 42008, Note_on_c, 0, 56, 64
2, 42027, Note_on_c, 0, 55, 64
2, 42047, Note_on_c, 0, 56, 0
2, 42056, Note_on_c, 0, 55, 0
2, 42070, Note_on_c, 0, 52, 64
2, 42098, Note_on_c, 0, 52, 0
2, 42124, Note_on_c, 0, 53, 64
2, 42181, Note_on_c, 0, 53, 0
2, 42197, Note_on_c, 0, 55, 64
2, 42239, Note_on_c, 0, 55, 0
2, 42259, Note_on_c, 0, 56, 64
2, 42308, Note_on_c, 0, 56, 0
2, 42328, Note_on_c, 0, 58, 64
2, 42354, Note_on_c, 0, 58, 0
2, 42395, Note_on_c, 0, 60, 64
2, 42434, Note_on_c, 0, 60, 0
2, 42675, Note_on_c, 0, 61, 64
2, 42709, Note_on_c, 0, 61, 0
2, 42731, Note_on_c, 0, 64, 64
2, 42773, Note_on_c, 0, 64, 0
2, 42790, Note_on_c, 0, 67, 64
2, 42825, Note_on_c, 0, 67, 0
2, 42839, Note_on_c, 0, 64, 64
2, 42901, Note_on_c, 0, 64, 0
2, 42905, Note_on_c, 0, 65, 64
2, 42938, Note_on_c, 0, 65, 0
2, 42959, Note_on_c, 0, 67, 64
2, 43007, Note_on_c, 0, 67, 0
2, 43031, Note_on_c, 0, 68, 64
2, 43062, Note_on_c, 0, 68, 0
2, 43089, Note_on_c, 0, 70, 64
2, 43129, Note_on_c, 0, 70, 0
2, 43157, Note_on_c, 0, 72, 64
2, 43189, Note_on_c, 0, 72, 0
2, 43233, Note_on_c, 0, 76, 64
2, 43278, Note_on_c, 0, 76, 0
2, 43285, Note_on_c, 0, 79, 64
2, 43334, Note_on_c, 0, 79, 0
2, 43402, Note_on_c, 0, 77, 64
2, 43442, Note_on_c, 0, 77, 0
2, 43509, Note_on_c, 0, 72, 64
2, 43546, Note_on_c, 0, 72, 0
2, 43570, Note_on_c, 0, 68, 64
2, 43617, Note_on_c, 0, 68, 0
2, 43635, Note_on_c, 0, 67, 64
2, 43653, Note_on_c, 0, 67, 0
2, 43685, Note_on_c, 0, 70, 64
2, 43751, Note_on_c, 0, 70, 0
2, 43802, Note_on_c, 0, 68, 64
2, 43850, Note_on_c, 0, 68, 0
2, 43874, Note_on_c, 0, 70, 64
2, 43888, Note_on_c, 0, 68, 64
2, 43911, Note_on_c, 0, 70, 0
2, 43922, Note_on_c, 0, 67, 64
2, 43925, Note_on_c, 0, 68, 0
2, 43963, Note_on_c, 0, 67, 0
2, 43988, Note_on_c, 0, 65, 64
2, 44028, Note_on_c, 0, 65, 0
2, 44045, Note_on_c, 0, 64, 64
2, 44103, Note_on_c, 0, 64, 0
2, 44115, Note_on_c, 0, 67, 64
2, 44149, Note_on_c, 0, 67, 0
2, 44168, Note_on_c, 0, 65, 64
2, 44252, Note_on_c, 0, 65, 0
2, 44280, Note_on_c, 0, 60, 64
2, 44328, Note_on_c, 0, 60, 0
2, 44349, Note_on_c, 0, 65, 64
2, 44388, Note_on_c, 0, 65, 0
2, 44418, Note_on_c, 0, 67, 64
2, 44506, Note_on_c, 0, 67, 0
2, 44516, Note_on_c, 0, 65, 64
2, 44564, Note_on_c, 0, 65, 0
2, 44585, Note_on_c, 0, 67, 64
2, 44625, Note_on_c, 0, 67, 0
2, 44643, Note_on_c, 0, 68, 64
2, 44749, Note_on_c, 0, 68, 0
2, 44756, Note_on_c, 0, 67, 64
2, 44810, Note_on_c, 0, 67, 0
2, 44825, Note_on_c, 0, 68, 64
2, 44860, Note_on_c, 0, 68, 0
2, 44881, Note_on_c, 0, 67, 64
2, 44936, Note_on_c, 0, 67, 0
2, 44943, Note_on_c, 0, 65, 64
2, 44972, Note_on_c, 0, 65, 0
2, 45002, Note_on_c, 0, 60, 64
2, 45073, Note_on_c, 0, 60, 0
2, 45198, Note_on_c, 0, 62, 64
2, 45200, Note_on_c, 0, 60, 64
2, 45200, Note_on_c, 0, 56, 64
2, 45213, Note_on_c, 0, 62, 0
2, 45214, Note_on_c, 0, 60, 0
2, 45230, Note_on_c, 0, 56, 0
2, 45368, Note_on_c, 0, 56, 64
2, 45370, Note_on_c, 0, 60, 64
2, 45371, Note_on_c, 0, 53, 64
2, 45384, Note_on_c, 0, 60, 0
2, 45392, Note_on_c, 0, 53, 0
2, 45399, Note_on_c, 0, 56, 0
2, 45557, Note_on_c, 0, 56, 64
2, 45560, Note_on_c, 0, 60, 64
2, 45572, Note_on_c, 0, 60, 0
2, 45584, Note_on_c, 0, 56, 0
2, 45602, Note_on_c, 0, 67, 64
2, 45652, Note_on_c, 0, 67, 0
2, 45673, Note_on_c, 0, 68, 64
2, 45684, Note_on_c, 0, 67, 64
2, 45705, Note_on_c, 0, 68, 0
2, 45718, Note_on_c, 0, 67, 0
2, 45723, Note_on_c, 0, 65, 64
2, 45788, Note_on_c, 0, 65, 0
2, 45827, Note_on_c, 0, 64, 64
2, 45874, Note_on_c, 0, 64, 0
2, 45893, Note_on_c, 0, 65, 64
2, 45936, Note_on_c, 0, 65, 0
2, 45949, Note_on_c, 0, 61, 64
2, 45995, Note_on_c, 0, 61, 0
2, 46005, Note_on_c, 0, 60, 64
2, 46032, Note_on_c, 0, 60, 0
2, 46060, Note_on_c, 0, 58, 64
2, 46090, Note_on_c, 0, 58, 0
2, 46135, Note_on_c, 0, 56, 64
2, 46181, Note_on_c, 0, 56, 0
2, 46221, Note_on_c, 0, 55, 64
2, 46503, Note_on_c, 0, 55, 0
2, 46521, Note_on_c, 0, 53, 64
2, 46572, Note_on_c, 0, 53, 0
2, 46583, Note_on_c, 0, 51, 64
2, 46631, Note_on_c, 0, 51, 0
2, 46640, Note_on_c, 0, 52, 64
2, 46671, Note_on_c, 0, 52, 0
2, 46692, Note_on_c, 0, 54, 64
2, 46733, Note_on_c, 0, 54, 0
2, 46742, Note_on_c, 0, 55, 64
2, 46757, Note_on_c, 0, 36, 64
2, 46768, Note_on_c, 0, 55, 0
2, 46769, Note_on_c, 0, 36, 0
2, 46785, Note_on_c, 0, 57, 64
2, 46821, Note_on_c, 0, 57, 0
2, 46828, Note_on_c, 0, 58, 64
2, 46853, Note_on_c, 0, 58, 0
2, 46863, Note_on_c, 0, 60, 64
2, 46889, Note_on_c, 0, 60, 0
2, 46900, Note_on_c, 0, 61, 64
2, 46924, Note_on_c, 0, 61, 0
2, 46925, Note_on_c, 0, 63, 64
2, 46935, Note_on_c, 0, 63, 0
2, 46951, Note_on_c, 0, 64, 64
2, 46974, Note_on_c, 0, 64, 0
2, 46981, Note_on_c, 0, 66, 64
2, 46999, Note_on_c, 0, 66, 0
2, 47012, Note_on_c, 0, 67, 64
2, 47038, Note_on_c, 0, 69, 64
2, 47039, Note_on_c, 0, 67, 0
2, 47067, Note_on_c, 0, 69, 0
2, 47068, Note_on_c, 0, 70, 64
2, 47080, Note_on_c, 0, 70, 0
2, 47098, Note_on_c, 0, 72, 64
2, 47123, Note_on_c, 0, 72, 0
2, 47124, Note_on_c, 0, 73, 64
2, 47149, Note_on_c, 0, 73, 0
2, 47154, Note_on_c, 0, 75, 64
2, 47180, Note_on_c, 0, 75, 0
2, 47187, Note_on_c, 0, 76, 64
2, 47202, Note_on_c, 0, 76, 0
2, 47211, Note_on_c, 0, 79, 64
2, 47251, Note_on_c, 0, 77, 64
2, 47262, Note_on_c, 0, 79, 0
2, 47268, Note_on_c, 0, 63, 64
2, 47269, Note_on_c, 0, 58, 64
2, 47275, Note_on_c, 0, 52, 64
2, 47289, Note_on_c, 0, 77, 0
2, 47307, Note_on_c, 0, 75, 64
2, 47308, Note_on_c, 0, 52, 0
2, 47317, Note_on_c, 0, 75, 0
2, 47318, Note_on_c, 0, 58, 0
2, 47326, Note_on_c, 0, 63, 0
2, 47397, Note_on_c, 0, 73, 64
2, 47465, Note_on_c, 0, 73, 0
2, 47480, Note_on_c, 0, 61, 64
2, 47481, Note_on_c, 0, 72, 64
2, 47487, Note_on_c, 0, 66, 64
2, 47532, Note_on_c, 0, 55, 64
2, 47774, Note_on_c, 0, 70, 64
2, 47783, Note_on_c, 0, 72, 0
2, 47802, Note_on_c, 0, 66, 0
2, 47806, Note_on_c, 0, 55, 0
2, 47845, Note_on_c, 0, 69, 64
2, 47873, Note_on_c, 0, 69, 0
2, 47888, Note_on_c, 0, 70, 0
2, 47890, Note_on_c, 0, 61, 0
2, 47900, Note_on_c, 0, 67, 64
2, 47956, Note_on_c, 0, 67, 0
2, 47960, Note_on_c, 0, 69, 64
2, 47996, Note_on_c, 0, 69, 0
2, 48020, Note_on_c, 0, 70, 64
2, 48130, Note_on_c, 0, 67, 64
2, 48131, Note_on_c, 0, 70, 0
2, 48224, Note_on_c, 0, 67, 0
2, 48249, Note_on_c, 0, 66, 64
2, 48493, Note_on_c, 0, 63, 64
2, 48508, Note_on_c, 0, 63, 0
2, 48678, Note_on_c, 0, 58, 64
2, 48690, Note_on_c, 0, 58, 0
2, 48780, Note_on_c, 0, 67, 64
2, 48792, Note_on_c, 0, 66, 0
2, 48823, Note_on_c, 0, 67, 0
2, 48841, Note_on_c, 0, 69, 64
2, 48907, Note_on_c, 0, 69, 0
2, 48911, Note_on_c, 0, 67, 64
2, 48953, Note_on_c, 0, 67, 0
2, 48976, Note_on_c, 0, 66, 64
2, 49122, Note_on_c, 0, 66, 0
2, 49151, Note_on_c, 0, 64, 64
2, 49159, Note_on_c, 0, 58, 64
2, 49186, Note_on_c, 0, 58, 0
2, 49190, Note_on_c, 0, 64, 0
2, 49207, Note_on_c, 0, 66, 64
2, 49273, Note_on_c, 0, 64, 64
2, 49304, Note_on_c, 0, 64, 0
2, 49305, Note_on_c, 0, 66, 0
2, 49326, Note_on_c, 0, 61, 64
2, 49390, Note_on_c, 0, 61, 0
2, 49448, Note_on_c, 0, 71, 64
2, 49471, Note_on_c, 0, 71, 0
2, 49520, Note_on_c, 0, 63, 64
2, 49520, Note_on_c, 0, 58, 64
2, 49526, Note_on_c, 0, 52, 64
2, 49542, Note_on_c, 0, 52, 0
2, 49543, Note_on_c, 0, 63, 0
2, 49551, Note_on_c, 0, 58, 0
2, 49697, Note_on_c, 0, 63, 64
2, 49702, Note_on_c, 0, 52, 64
2, 49703, Note_on_c, 0, 58, 64
2, 49738, Note_on_c, 0, 63, 0
2, 49739, Note_on_c, 0, 52, 0
2, 49747, Note_on_c, 0, 58, 0
2, 49878, Note_on_c, 0, 63, 64
2, 49884, Note_on_c, 0, 58, 64
2, 49886, Note_on_c, 0, 52, 64
2, 49891, Note_on_c, 0, 63, 0
2, 49900, Note_on_c, 0, 52, 0
2, 49904, Note_on_c, 0, 58, 0
2, 49935, Note_on_c, 0, 84, 64
2, 49955, Note_on_c, 0, 84, 0
2, 49973, Note_on_c, 0, 85, 64
2, 49995, Note_on_c, 0, 84, 64
2, 50002, Note_on_c, 0, 85, 0
2, 50016, Note_on_c, 0, 84, 0
2, 50023, Note_on_c, 0, 83, 64
2, 50044, Note_on_c, 0, 83, 0
2, 50061, Note_on_c, 0, 82, 64
2, 50083, Note_on_c, 0, 82, 0
2, 50089, Note_on_c, 0, 79, 64
2, 50106, Note_on_c, 0, 79, 0
2, 50128, Note_on_c, 0, 76, 64
2, 50148, Note_on_c, 0, 76, 0
2, 50354, Note_on_c, 0, 84, 64
2, 50398, Note_on_c, 0, 84, 0
2, 50417, Note_on_c, 0, 85, 64
2, 50450, Note_on_c, 0, 85, 0
2, 50450, Note_on_c, 0, 84, 64
2, 50461, Note_on_c, 0, 84, 0
2, 50476, Note_on_c, 0, 83, 64
2, 50498, Note_on_c, 0, 83, 0
2, 50513, Note_on_c, 0, 82, 64
2, 50538, Note_on_c, 0, 82, 0
2, 50566, Note_on_c, 0, 79, 64
2, 50599, Note_on_c, 0, 79, 0
2, 50626, Note_on_c, 0, 76, 64
2, 50649, Note_on_c, 0, 76, 0
2, 50672, Note_on_c, 0, 73, 64
2, 50705, Note_on_c, 0, 73, 0
2, 50726, Note_on_c, 0, 72, 64
2, 50754, Note_on_c, 0, 72, 0
2, 50771, Note_on_c, 0, 71, 64
2, 50814, Note_on_c, 0, 71, 0
2, 50833, Note_on_c, 0, 70, 64
2, 50862, Note_on_c, 0, 70, 0
2, 50886, Note_on_c, 0, 67, 64
2, 50925, Note_on_c, 0, 67, 0
2, 50948, Note_on_c, 0, 64, 64
2, 50976, Note_on_c, 0, 64, 0
2, 50996, Note_on_c, 0, 61, 64
2, 51046, Note_on_c, 0, 61, 0
2, 51063, Note_on_c, 0, 60, 64
2, 51113, Note_on_c, 0, 60, 0
2, 51130, Note_on_c, 0, 61, 64
2, 51155, Note_on_c, 0, 60, 64
2, 51172, Note_on_c, 0, 61, 0
2, 51176, Note_on_c, 0, 60, 0
2, 51195, Note_on_c, 0, 59, 64
2, 51207, Note_on_c, 0, 52, 64
2, 51220, Note_on_c, 0, 52, 0
2, 51227, Note_on_c, 0, 59, 0
2, 51241, Note_on_c, 0, 58, 64
2, 51310, Note_on_c, 0, 58, 0
2, 51316, Note_on_c, 0, 55, 64
2, 51342, Note_on_c, 0, 55, 0
2, 51363, Note_on_c, 0, 52, 64
2, 51414, Note_on_c, 0, 52, 0
2, 51432, Note_on_c, 0, 55, 64
2, 51445, Note_on_c, 0, 55, 0
2, 51489, Note_on_c, 0, 58, 64
2, 51538, Note_on_c, 0, 58, 0
2, 51550, Note_on_c, 0, 59, 64
2, 51564, Note_on_c, 0, 52, 64
2, 51576, Note_on_c, 0, 52, 0
2, 51579, Note_on_c, 0, 59, 0
2, 51625, Note_on_c, 0, 60, 64
2, 51649, Note_on_c, 0, 60, 0
2, 51672, Note_on_c, 0, 61, 64
2, 51703, Note_on_c, 0, 61, 0
2, 51725, Note_on_c, 0, 64, 64
2, 51771, Note_on_c, 0, 64, 0
2, 51917, Note_on_c, 0, 67, 64
2, 51949, Note_on_c, 0, 67, 0
2, 51971, Note_on_c, 0, 64, 64
2, 51987, Note_on_c, 0, 64, 0
2, 52008, Note_on_c, 0, 65, 64
2, 52024, Note_on_c, 0, 65, 0
2, 52043, Note_on_c, 0, 67, 64
2, 52068, Note_on_c, 0, 67, 0
2, 52082, Note_on_c, 0, 68, 64
2, 52113, Note_on_c, 0, 65, 64
2, 52114, Note_on_c, 0, 68, 0
2, 52125, Note_on_c, 0, 65, 0
2, 52157, Note_on_c, 0, 67, 64
2, 52187, Note_on_c, 0, 67, 0
2, 52192, Note_on_c, 0, 68, 64
2, 52218, Note_on_c, 0, 68, 0
2, 52231, Note_on_c, 0, 70, 64
2, 52262, Note_on_c, 0, 70, 0
2, 52268, Note_on_c, 0, 67, 64
2, 52289, Note_on_c, 0, 67, 0
2, 52415, Note_on_c, 0, 63, 64
2, 52419, Note_on_c, 0, 58, 64
2, 52431, Note_on_c, 0, 63, 0
2, 52448, Note_on_c, 0, 58, 0
2, 52512, Note_on_c, 0, 67, 64
2, 52534, Note_on_c, 0, 67, 0
2, 52567, Note_on_c, 0, 68, 64
2, 52613, Note_on_c, 0, 68, 0
2, 52627, Note_on_c, 0, 70, 64
2, 52633, Note_on_c, 0, 65, 64
2, 52639, Note_on_c, 0, 60, 64
2, 52644, Note_on_c, 0, 65, 0
2, 52651, Note_on_c, 0, 60, 0
2, 52658, Note_on_c, 0, 70, 0
2, 52684, Note_on_c, 0, 72, 64
2, 52721, Note_on_c, 0, 72, 0
2, 52744, Note_on_c, 0, 75, 64
2, 52780, Note_on_c, 0, 75, 0
2, 52803, Note_on_c, 0, 76, 64
2, 52841, Note_on_c, 0, 76, 0
2, 52861, Note_on_c, 0, 79, 64
2, 52870, Note_on_c, 0, 53, 64
2, 52882, Note_on_c, 0, 53, 0
2, 52913, Note_on_c, 0, 79, 0
2, 52917, Note_on_c, 0, 77, 64
2, 52969, Note_on_c, 0, 77, 0
2, 52989, Note_on_c, 0, 77, 64
2, 53034, Note_on_c, 0, 77, 0
2, 53039, Note_on_c, 0, 72, 64
2, 53105, Note_on_c, 0, 72, 0
2, 53150, Note_on_c, 0, 63, 64
2, 53152, Note_on_c, 0, 72, 64
2, 53153, Note_on_c, 0, 53, 64
2, 53155, Note_on_c, 0, 58, 64
2, 53450, Note_on_c, 0, 72, 0
2, 53452, Note_on_c, 0, 58, 0
2, 53487, Note_on_c, 0, 58, 64
2, 53526, Note_on_c, 0, 74, 64
2, 53592, Note_on_c, 0, 74, 0
2, 53597, Note_on_c, 0, 53, 0
2, 53606, Note_on_c, 0, 58, 0
2, 53606, Note_on_c, 0, 71, 64
2, 53614, Note_on_c, 0, 63, 0
2, 53624, Note_on_c, 0, 71, 0
2, 53643, Note_on_c, 0, 72, 64
2, 53708, Note_on_c, 0, 72, 0
2, 53724, Note_on_c, 0, 74, 64
2, 53730, Note_on_c, 0, 67, 64
2, 53733, Note_on_c, 0, 62, 64
2, 53746, Note_on_c, 0, 67, 0
2, 53759, Note_on_c, 0, 62, 0
2, 53760, Note_on_c, 0, 74, 0
2, 53778, Note_on_c, 0, 75, 64
2, 53833, Note_on_c, 0, 75, 0
2, 53851, Note_on_c, 0, 77, 64
2, 53877, Note_on_c, 0, 77, 0
2, 53897, Note_on_c, 0, 86, 64
2, 53963, Note_on_c, 0, 86, 0
2, 53975, Note_on_c, 0, 89, 64
2, 54009, Note_on_c, 0, 89, 0
2, 54033, Note_on_c, 0, 86, 64
2, 54067, Note_on_c, 0, 86, 0
2, 54213, Note_on_c, 0, 62, 64
2, 54218, Note_on_c, 0, 67, 64
2, 54220, Note_on_c, 0, 63, 64
2, 54229, Note_on_c, 0, 67, 0
2, 54230, Note_on_c, 0, 63, 0
2, 54236, Note_on_c, 0, 62, 0
2, 54275, Note_on_c, 0, 86, 64
2, 54304, Note_on_c, 0, 86, 0
2, 54337, Note_on_c, 0, 89, 64
2, 54347, Note_on_c, 0, 86, 64
2, 54364, Note_on_c, 0, 89, 0
2, 54385, Note_on_c, 0, 77, 64
2, 54386, Note_on_c, 0, 86, 0
2, 54417, Note_on_c, 0, 77, 0
2, 54455, Note_on_c, 0, 85, 64
2, 54493, Note_on_c, 0, 85, 0
2, 54521, Note_on_c, 0, 89, 64
2, 54541, Note_on_c, 0, 85, 64
2, 54558, Note_on_c, 0, 89, 0
2, 54581, Note_on_c, 0, 85, 0
2, 54620, Note_on_c, 0, 84, 64
2, 54667, Note_on_c, 0, 84, 0
2, 54688, Note_on_c, 0, 89, 64
2, 54701, Note_on_c, 0, 84, 64
2, 54724, Note_on_c, 0, 89, 0
2, 54745, Note_on_c, 0, 84, 0
2, 54753, Note_on_c, 0, 77, 64
2, 54793, Note_on_c, 0, 77, 0
2, 54823, Note_on_c, 0, 83, 64
2, 54829, Note_on_c, 0, 67, 64
2, 54839, Note_on_c, 0, 67, 0
2, 54858, Note_on_c, 0, 83, 0
2, 54867, Note_on_c, 0, 89, 64
2, 54906, Note_on_c, 0, 83, 64
2, 54913, Note_on_c, 0, 89, 0
2, 54940, Note_on_c, 0, 83, 0
2, 54992, Note_on_c, 0, 82, 64
2, 55031, Note_on_c, 0, 82, 0
2, 55064, Note_on_c, 0, 63, 64
2, 55064, Note_on_c, 0, 67, 64
2, 55066, Note_on_c, 0, 62, 64
2, 55080, Note_on_c, 0, 67, 0
2, 55084, Note_on_c, 0, 62, 0
2, 55086, Note_on_c, 0, 63, 0
2, 55169, Note_on_c, 0, 80, 64
2, 55211, Note_on_c, 0, 80, 0
2, 55232, Note_on_c, 0, 81, 64
2, 55274, Note_on_c, 0, 81, 0
2, 55290, Note_on_c, 0, 82, 64
2, 55325, Note_on_c, 0, 82, 0
2, 55347, Note_on_c, 0, 83, 64
2, 55382, Note_on_c, 0, 83, 0
2, 55409, Note_on_c, 0, 84, 64
2, 55447, Note_on_c, 0, 84, 0
2, 55464, Note_on_c, 0, 81, 64
2, 55507, Note_on_c, 0, 81, 0
2, 55523, Note_on_c, 0, 77, 64
2, 55565, Note_on_c, 0, 77, 0
2, 55577, Note_on_c, 0, 74, 64
2, 55621, Note_on_c, 0, 74, 0
2, 55650, Note_on_c, 0, 72, 64
2, 55665, Note_on_c, 0, 72, 0
2, 55687, Note_on_c, 0, 73, 64
2, 55730, Note_on_c, 0, 73, 0
2, 55737, Note_on_c, 0, 74, 64
2, 55760, Note_on_c, 0, 74, 0
2, 55765, Note_on_c, 0, 61, 64
2, 55771, Note_on_c, 0, 50, 64
2, 55788, Note_on_c, 0, 56, 64
2, 55803, Note_on_c, 0, 68, 64
2, 56011, Note_on_c, 0, 68, 0
2, 56018, Note_on_c, 0, 65, 64
2, 56029, Note_on_c, 0, 65, 0
2, 56035, Note_on_c, 0, 50, 0
2, 56046, Note_on_c, 0, 61, 0
2, 56063, Note_on_c, 0, 67, 64
2, 56109, Note_on_c, 0, 56, 0
2, 56124, Note_on_c, 0, 67, 0
2, 56175, Note_on_c, 0, 65, 64
2, 56232, Note_on_c, 0, 65, 0
2, 56254, Note_on_c, 0, 65, 64
2, 56264, Note_on_c, 0, 65, 0
2, 56489, Note_on_c, 0, 67, 64
2, 56497, Note_on_c, 0, 62, 64
2, 56504, Note_on_c, 0, 67, 0
2, 56509, Note_on_c, 0, 62, 0
2, 56646, Note_on_c, 0, 67, 64
2, 56651, Note_on_c, 0, 62, 64
2, 56660, Note_on_c, 0, 67, 0
2, 56667, Note_on_c, 0, 62, 0
2, 56771, Note_on_c, 0, 86, 64
2, 56772, Note_on_c, 0, 74, 64
2, 56786, Note_on_c, 0, 74, 0
2, 56793, Note_on_c, 0, 86, 0
2, 56882, Note_on_c, 0, 56, 64
2, 56882, Note_on_c, 0, 67, 64
2, 56883, Note_on_c, 0, 89, 64
2, 56883, Note_on_c, 0, 77, 64
2, 56886, Note_on_c, 0, 62, 64
2, 56929, Note_on_c, 0, 67, 0
2, 56933, Note_on_c, 0, 77, 0
2, 56933, Note_on_c, 0, 62, 0
2, 56936, Note_on_c, 0, 89, 0
2, 56937, Note_on_c, 0, 56, 0
2, 57001, Note_on_c, 0, 56, 64
2, 57002, Note_on_c, 0, 67, 64
2, 57004, Note_on_c, 0, 80, 64
2, 57005, Note_on_c, 0, 92, 64
2, 57007, Note_on_c, 0, 62, 64
2, 57092, Note_on_c, 0, 67, 0
2, 57094, Note_on_c, 0, 92, 0
2, 57096, Note_on_c, 0, 80, 0
2, 57099, Note_on_c, 0, 56, 0
2, 57101, Note_on_c, 0, 62, 0
2, 57124, Note_on_c, 0, 56, 64
2, 57125, Note_on_c, 0, 67, 64
2, 57125, Note_on_c, 0, 82, 64
2, 57126, Note_on_c, 0, 94, 64
2, 57132, Note_on_c, 0, 62, 64
2, 57200, Note_on_c, 0, 94, 0
2, 57220, Note_on_c, 0, 82, 0
2, 57225, Note_on_c, 0, 67, 0
2, 57233, Note_on_c, 0, 62, 0
2, 57241, Note_on_c, 0, 67, 64
2, 57246, Note_on_c, 0, 92, 64
2, 57248, Note_on_c, 0, 62, 64
2, 57254, Note_on_c, 0, 80, 64
2, 57273, Note_on_c, 0, 67, 0
2, 57283, Note_on_c, 0, 92, 0
2, 57288, Note_on_c, 0, 62, 0
2, 57289, Note_on_c, 0, 56, 0
2, 57295, Note_on_c, 0, 80, 0
2, 57327, Note_on_c, 0, 89, 64
2, 57334, Note_on_c, 0, 77, 64
2, 57334, Note_on_c, 0, 67, 64
2, 57336, Note_on_c, 0, 62, 64
2, 57337, Note_on_c, 0, 56, 64
2, 57353, Note_on_c, 0, 67, 0
2, 57355, Note_on_c, 0, 77, 0
2, 57356, Note_on_c, 0, 89, 0
2, 57358, Note_on_c, 0, 62, 0
2, 57362, Note_on_c, 0, 56, 0
2, 57443, Note_on_c, 0, 67, 64
2, 57444, Note_on_c, 0, 62, 64
2, 57445, Note_on_c, 0, 56, 64
2, 57448, Note_on_c, 0, 88, 64
2, 57448, Note_on_c, 0, 76, 64
2, 57454, Note_on_c, 0, 67, 0
2, 57458, Note_on_c, 0, 87, 64
2, 57463, Note_on_c, 0, 62, 0
2, 57467, Note_on_c, 0, 76, 0
2, 57467, Note_on_c, 0, 87, 0
2, 57471, Note_on_c, 0, 56, 0
2, 57472, Note_on_c, 0, 88, 0
2, 57559, Note_on_c, 0, 61, 64
2, 57559, Note_on_c, 0, 66, 64
2, 57560, Note_on_c, 0, 55, 64
2, 57562, Note_on_c, 0, 87, 64
2, 57566, Note_on_c, 0, 73, 64
2, 57730, Note_on_c, 0, 73, 0
2, 57731, Note_on_c, 0, 87, 0
2, 57733, Note_on_c, 0, 85, 64
2, 57767, Note_on_c, 0, 85, 0
2, 57808, Note_on_c, 0, 73, 64
2, 57808, Note_on_c, 0, 87, 64
2, 57833, Note_on_c, 0, 73, 0
2, 57837, Note_on_c, 0, 55, 0
2, 57838, Note_on_c, 0, 87, 0
2, 57846, Note_on_c, 0, 66, 0
2, 57848, Note_on_c, 0, 61, 0
2, 57925, Note_on_c, 0, 66, 64
2, 57929, Note_on_c, 0, 61, 64
2, 57948, Note_on_c, 0, 61, 0
2, 57949, Note_on_c, 0, 66, 0
2, 58040, Note_on_c, 0, 67, 64
2, 58043, Note_on_c, 0, 56, 64
2, 58045, Note_on_c, 0, 62, 64
2, 58063, Note_on_c, 0, 67, 0
2, 58072, Note_on_c, 0, 62, 0
2, 58080, Note_on_c, 0, 56, 0
2, 58160, Note_on_c, 0, 68, 64
2, 58161, Note_on_c, 0, 63, 64
2, 58167, Note_on_c, 0, 58, 64
2, 58182, Note_on_c, 0, 68, 0
2, 58190, Note_on_c, 0, 63, 0
2, 58195, Note_on_c, 0, 58, 0
2, 58279, Note_on_c, 0, 87, 64
2, 58280, Note_on_c, 0, 75, 64
2, 58304, Note_on_c, 0, 75, 0
2, 58314, Note_on_c, 0, 87, 0
2, 58399, Note_on_c, 0, 85, 64
2, 58399, Note_on_c, 0, 66, 64
2, 58400, Note_on_c, 0, 73, 64
2, 58403, Note_on_c, 0, 61, 64
2, 58406, Note_on_c, 0, 55, 64
2, 58413, Note_on_c, 0, 66, 0
2, 58417, Note_on_c, 0, 61, 0
2, 58419, Note_on_c, 0, 55, 0
2, 58429, Note_on_c, 0, 73, 0
2, 58429, Note_on_c, 0, 85, 0
2, 58458, Note_on_c, 0, 84, 64
2, 58461, Note_on_c, 0, 72, 64
2, 58492, Note_on_c, 0, 84, 0
2, 58500, Note_on_c, 0, 72, 0
2, 58524, Note_on_c, 0, 82, 64
2, 58554, Note_on_c, 0, 82, 0
2, 58648, Note_on_c, 0, 66, 64
2, 58653, Note_on_c, 0, 61, 64
2, 58667, Note_on_c, 0, 66, 0
2, 58677, Note_on_c, 0, 61, 0
2, 58818, Note_on_c, 0, 81, 64
2, 58819, Note_on_c, 0, 83, 64
2, 58837, Note_on_c, 0, 83, 0
2, 58850, Note_on_c, 0, 81, 0
2, 58887, Note_on_c, 0, 79, 64
2, 58890, Note_on_c, 0, 66, 64
2, 58893, Note_on_c, 0, 61, 64
2, 58901, Note_on_c, 0, 66, 0
2, 58919, Note_on_c, 0, 79, 0
2, 58924, Note_on_c, 0, 61, 0
2, 58940, Note_on_c, 0, 78, 64
2, 59007, Note_on_c, 0, 78, 0
2, 59013, Note_on_c, 0, 76, 64
2, 59027, Note_on_c, 0, 76, 0
2, 59061, Note_on_c, 0, 78, 64
2, 59110, Note_on_c, 0, 78, 0
2, 59119, Note_on_c, 0, 79, 64
2, 59131, Note_on_c, 0, 61, 64
2, 59149, Note_on_c, 0, 79, 0
2, 59167, Note_on_c, 0, 61, 0
2, 59173, Note_on_c, 0, 78, 64
2, 59211, Note_on_c, 0, 78, 0
2, 59242, Note_on_c, 0, 76, 64
2, 59296, Note_on_c, 0, 76, 0
2, 59298, Note_on_c, 0, 75, 64
2, 59327, Note_on_c, 0, 75, 0
2, 59358, Note_on_c, 0, 73, 64
2, 59373, Note_on_c, 0, 61, 64
2, 59402, Note_on_c, 0, 73, 0
2, 59403, Note_on_c, 0, 61, 0
2, 59417, Note_on_c, 0, 72, 64
2, 59450, Note_on_c, 0, 72, 0
2, 59481, Note_on_c, 0, 70, 64
2, 59521, Note_on_c, 0, 70, 0
2, 59540, Note_on_c, 0, 68, 64
2, 59595, Note_on_c, 0, 68, 0
2, 59600, Note_on_c, 0, 67, 64
2, 59610, Note_on_c, 0, 44, 64
2, 59623, Note_on_c, 0, 44, 0
2, 59625, Note_on_c, 0, 67, 0
2, 59658, Note_on_c, 0, 65, 64
2, 59704, Note_on_c, 0, 65, 0
2, 59723, Note_on_c, 0, 60, 64
2, 59742, Note_on_c, 0, 60, 0
2, 59772, Note_on_c, 0, 64, 64
2, 59823, Note_on_c, 0, 64, 0
2, 59836, Note_on_c, 0, 65, 64
2, 59859, Note_on_c, 0, 44, 64
2, 59871, Note_on_c, 0, 44, 0
2, 59879, Note_on_c, 0, 65, 0
2, 59895, Note_on_c, 0, 63, 64
2, 59963, Note_on_c, 0, 60, 64
2, 59969, Note_on_c, 0, 63, 0
2, 59991, Note_on_c, 0, 60, 0
2, 60016, Note_on_c, 0, 55, 64
2, 60201, Note_on_c, 0, 56, 64
2, 60208, Note_on_c, 0, 55, 0
2, 60224, Note_on_c, 0, 51, 64
2, 60238, Note_on_c, 0, 51, 0
2, 60256, Note_on_c, 0, 56, 0
2, 60269, Note_on_c, 0, 58, 64
2, 60311, Note_on_c, 0, 58, 0
2, 60322, Note_on_c, 0, 60, 64
2, 60373, Note_on_c, 0, 60, 0
2, 60376, Note_on_c, 0, 61, 64
2, 60555, Note_on_c, 0, 61, 0
2, 60557, Note_on_c, 0, 60, 64
2, 60591, Note_on_c, 0, 60, 0
2, 60612, Note_on_c, 0, 61, 64
2, 60665, Note_on_c, 0, 61, 0
2, 60673, Note_on_c, 0, 63, 64
2, 60712, Note_on_c, 0, 63, 0
2, 60736, Note_on_c, 0, 64, 64
2, 60779, Note_on_c, 0, 64, 0
2, 60795, Note_on_c, 0, 66, 64
2, 60827, Note_on_c, 0, 66, 0
2, 60845, Note_on_c, 0, 67, 64
2, 60898, Note_on_c, 0, 67, 0
2, 60907, Note_on_c, 0, 69, 64
2, 60944, Note_on_c, 0, 69, 0
2, 60968, Note_on_c, 0, 70, 64
2, 61009, Note_on_c, 0, 70, 0
2, 61021, Note_on_c, 0, 72, 64
2, 61048, Note_on_c, 0, 72, 0
2, 61064, Note_on_c, 0, 73, 64
2, 61094, Note_on_c, 0, 73, 0
2, 61112, Note_on_c, 0, 75, 64
2, 61135, Note_on_c, 0, 75, 0
2, 61150, Note_on_c, 0, 76, 64
2, 61183, Note_on_c, 0, 76, 0
2, 61192, Note_on_c, 0, 78, 64
2, 61215, Note_on_c, 0, 78, 0
2, 61233, Note_on_c, 0, 79, 64
2, 61265, Note_on_c, 0, 79, 0
2, 61273, Note_on_c, 0, 81, 64
2, 61314, Note_on_c, 0, 81, 0
2, 61314, Note_on_c, 0, 82, 64
2, 61331, Note_on_c, 0, 82, 0
2, 61351, Note_on_c, 0, 84, 64
2, 61377, Note_on_c, 0, 84, 0
2, 61390, Note_on_c, 0, 85, 64
2, 61415, Note_on_c, 0, 85, 0
2, 61419, Note_on_c, 0, 87, 64
2, 61441, Note_on_c, 0, 87, 0
2, 61458, Note_on_c, 0, 88, 64
2, 61482, Note_on_c, 0, 88, 0
2, 61496, Note_on_c, 0, 90, 64
2, 61507, Note_on_c, 0, 90, 0
2, 61573, Note_on_c, 0, 93, 64
2, 61592, Note_on_c, 0, 93, 0
2, 61603, Note_on_c, 0, 96, 64
2, 61646, Note_on_c, 0, 96, 0
2, 61687, Note_on_c, 0, 94, 64
2, 61732, Note_on_c, 0, 94, 0
2, 61742, Note_on_c, 0, 90, 64
2, 61769, Note_on_c, 0, 90, 0
2, 61780, Note_on_c, 0, 88, 64
2, 61794, Note_on_c, 0, 88, 0
2, 61818, Note_on_c, 0, 93, 64
2, 61854, Note_on_c, 0, 58, 64
2, 61855, Note_on_c, 0, 64, 64
2, 61855, Note_on_c, 0, 91, 64
2, 61862, Note_on_c, 0, 93, 0
2, 61892, Note_on_c, 0, 91, 0
2, 61901, Note_on_c, 0, 87, 64
2, 61932, Note_on_c, 0, 87, 0
2, 61947, Note_on_c, 0, 85, 64
2, 61958, Note_on_c, 0, 85, 0
2, 61989, Note_on_c, 0, 64, 0
2, 61997, Note_on_c, 0, 58, 0
2, 62146, Note_on_c, 0, 69, 64
2, 62152, Note_on_c, 0, 64, 64
2, 62158, Note_on_c, 0, 69, 0
2, 62164, Note_on_c, 0, 64, 0
2, 62285, Note_on_c, 0, 63, 64
2, 62287, Note_on_c, 0, 58, 64
2, 62310, Note_on_c, 0, 63, 0
2, 62319, Note_on_c, 0, 58, 0
2, 62472, Note_on_c, 0, 58, 64
2, 62498, Note_on_c, 0, 58, 0
2, 62655, Note_on_c, 0, 84, 64
2, 62657, Note_on_c, 0, 96, 64
2, 62701, Note_on_c, 0, 84, 0
2, 62706, Note_on_c, 0, 96, 0
2, 62842, Note_on_c, 0, 63, 64
2, 62842, Note_on_c, 0, 85, 64
2, 62843, Note_on_c, 0, 97, 64
2, 62850, Note_on_c, 0, 61, 64
2, 62851, Note_on_c, 0, 63, 0
2, 62865, Note_on_c, 0, 61, 0
2, 62866, Note_on_c, 0, 85, 0
2, 62872, Note_on_c, 0, 97, 0
2, 62929, Note_on_c, 0, 96, 64
2, 62929, Note_on_c, 0, 84, 64
2, 62935, Note_on_c, 0, 60, 64
2, 62953, Note_on_c, 0, 84, 0
2, 62956, Note_on_c, 0, 96, 0
2, 62964, Note_on_c, 0, 60, 0
2, 63015, Note_on_c, 0, 97, 64
2, 63016, Note_on_c, 0, 61, 64
2, 63016, Note_on_c, 0, 85, 64
2, 63064, Note_on_c, 0, 85, 0
2, 63070, Note_on_c, 0, 61, 0
2, 63071, Note_on_c, 0, 97, 0
2, 63098, Note_on_c, 0, 63, 64
2, 63100, Note_on_c, 0, 87, 64
2, 63101, Note_on_c, 0, 99, 64
2, 63135, Note_on_c, 0, 99, 0
2, 63141, Note_on_c, 0, 87, 0
2, 63163, Note_on_c, 0, 63, 0
2, 63181, Note_on_c, 0, 61, 64
2, 63181, Note_on_c, 0, 97, 64
2, 63182, Note_on_c, 0, 85, 64
2, 63227, Note_on_c, 0, 97, 0
2, 63238, Note_on_c, 0, 85, 0
2, 63248, Note_on_c, 0, 61, 0
2, 63266, Note_on_c, 0, 96, 64
2, 63271, Note_on_c, 0, 84, 64
2, 63282, Note_on_c, 0, 60, 64
2, 63299, Note_on_c, 0, 96, 0
2, 63313, Note_on_c, 0, 84, 0
2, 63331, Note_on_c, 0, 60, 0
2, 63354, Note_on_c, 0, 95, 64
2, 63356, Note_on_c, 0, 83, 64
2, 63361, Note_on_c, 0, 59, 64
2, 63496, Note_on_c, 0, 95, 0
2, 63497, Note_on_c, 0, 83, 0
2, 63550, Note_on_c, 0, 59, 0
2, 63561, Note_on_c, 0, 55, 64
2, 63641, Note_on_c, 0, 94, 64
2, 63642, Note_on_c, 0, 82, 64
2, 63645, Note_on_c, 0, 55, 0
2, 63646, Note_on_c, 0, 58, 64
2, 64342, Note_on_c, 0, 82, 0
2, 64352, Note_on_c, 0, 94, 0
2, 64444, Note_on_c, 0, 58, 0
2, 64444, Note_on_c, 0, 96, 64
2, 64445, Note_on_c, 0, 84, 64
2, 64446, Note_on_c, 0, 60, 64
2, 64467, Note_on_c, 0, 84, 0
2, 64469, Note_on_c, 0, 60, 0
2, 64470, Note_on_c, 0, 96, 0
2, 64567, Note_on_c, 0, 97, 64
2, 64568, Note_on_c, 0, 85, 64
2, 64568, Note_on_c, 0, 61, 64
2, 64625, Note_on_c, 0, 85, 0
2, 64637, Note_on_c, 0, 97, 0
2, 64643, Note_on_c, 0, 61, 0
2, 64645, Note_on_c, 0, 96, 64
2, 64649, Note_on_c, 0, 84, 64
2, 64650, Note_on_c, 0, 60, 64
2, 64667, Note_on_c, 0, 84, 0
2, 64668, Note_on_c, 0, 60, 0
2, 64669, Note_on_c, 0, 96, 0
2, 64750, Note_on_c, 0, 97, 64
2, 64750, Note_on_c, 0, 85, 64
2, 64754, Note_on_c, 0, 61, 64
2, 64774, Note_on_c, 0, 85, 0
2, 64780, Note_on_c, 0, 97, 0
2, 64785, Note_on_c, 0, 61, 0
2, 64866, Note_on_c, 0, 60, 64
2, 64867, Note_on_c, 0, 96, 64
2, 64869, Note_on_c, 0, 84, 64
2, 64888, Note_on_c, 0, 84, 0
2, 64897, Note_on_c, 0, 60, 0
2, 64898, Note_on_c, 0, 96, 0
2, 64979, Note_on_c, 0, 95, 64
2, 64987, Note_on_c, 0, 59, 64
2, 65033, Note_on_c, 0, 95, 0
2, 65044, Note_on_c, 0, 91, 64
2, 65048, Note_on_c, 0, 59, 0
2, 65049, Note_on_c, 0, 55, 64
2, 65138, Note_on_c, 0, 91, 0
2, 65157, Note_on_c, 0, 55, 0
2, 65158, Note_on_c, 0, 94, 64
2, 65161, Note_on_c, 0, 58, 64
2, 65333, Note_on_c, 0, 94, 0
2, 65350, Note_on_c, 0, 96, 64
2, 65357, Note_on_c, 0, 60, 64
2, 65368, Note_on_c, 0, 58, 0
2, 65566, Note_on_c, 0, 96, 0
2, 65572, Note_on_c, 0, 97, 64
2, 65573, Note_on_c, 0, 61, 64
2, 65574, Note_on_c, 0, 60, 0
2, 65611, Note_on_c, 0, 61, 0
2, 65618, Note_on_c, 0, 97, 0
2, 65624, Note_on_c, 0, 64, 64
2, 65628, Note_on_c, 0, 100, 64
2, 65682, Note_on_c, 0, 64, 0
2, 65683, Note_on_c, 0, 100, 0
2, 65692, Note_on_c, 0, 67, 64
2, 65693, Note_on_c, 0, 103, 64
2, 65736, Note_on_c, 0, 103, 0
2, 65737, Note_on_c, 0, 67, 0
2, 65760, Note_on_c, 0, 65, 64
2, 65762, Note_on_c, 0, 101, 64
2, 65799, Note_on_c, 0, 65, 0
2, 65808, Note_on_c, 0, 101, 0
2, 65953, Note_on_c, 0, 100, 64
2, 65955, Note_on_c, 0, 64, 64
2, 65991, Note_on_c, 0, 100, 0
2, 66000, Note_on_c, 0, 64, 0
2, 66012, Note_on_c, 0, 61, 64
2, 66023, Note_on_c, 0, 97, 64
2, 66113, Note_on_c, 0, 97, 0
2, 66113, Note_on_c, 0, 61, 0
2, 66138, Note_on_c, 0, 94, 64
2, 66152, Note_on_c, 0, 58, 64
2, 66301, Note_on_c, 0, 58, 0
2, 66311, Note_on_c, 0, 91, 64
2, 66313, Note_on_c, 0, 94, 0
2, 66313, Note_on_c, 0, 55, 64
2, 66341, Note_on_c, 0, 91, 0
2, 66422, Note_on_c, 0, 55, 0
2, 66429, Note_on_c, 0, 88, 64
2, 66434, Note_on_c, 0, 52, 64
2, 66454, Note_on_c, 0, 88, 0
2, 66535, Note_on_c, 0, 52, 0
2, 66544, Note_on_c, 0, 85, 64
2, 66551, Note_on_c, 0, 49, 64
2, 66568, Note_on_c, 0, 85, 0
2, 66571, Note_on_c, 0, 49, 0
2, 66654, Note_on_c, 0, 46, 64
2, 66660, Note_on_c, 0, 82, 64
2, 66686, Note_on_c, 0, 82, 0
2, 66726, Note_on_c, 0, 46, 0
2, 66776, Note_on_c, 0, 79, 64
2, 66780, Note_on_c, 0, 43, 64
2, 66792, Note_on_c, 0, 79, 0
2, 66801, Note_on_c, 0, 43, 0
2, 66898, Note_on_c, 0, 76, 64
2, 66927, Note_on_c, 0, 76, 0
2, 66951, Note_on_c, 0, 73, 64
2, 67036, Note_on_c, 0, 73, 0
2, 67079, Note_on_c, 0, 70, 64
2, 67148, Note_on_c, 0, 70, 0
2, 67155, Note_on_c, 0, 67, 64
2, 67180, Note_on_c, 0, 67, 0
2, 67208, Note_on_c, 0, 53, 64
2, 67213, Note_on_c, 0, 68, 64
2, 67365, Note_on_c, 0, 68, 0
2, 67386, Note_on_c, 0, 70, 64
2, 67401, Note_on_c, 0, 68, 64
2, 67430, Note_on_c, 0, 70, 0
2, 67436, Note_on_c, 0, 68, 0
2, 67442, Note_on_c, 0, 67, 64
2, 67482, Note_on_c, 0, 67, 0
2, 67508, Note_on_c, 0, 65, 64
2, 67541, Note_on_c, 0, 65, 0
2, 67564, Note_on_c, 0, 64, 64
2, 67626, Note_on_c, 0, 64, 0
2, 67630, Note_on_c, 0, 67, 64
2, 67666, Note_on_c, 0, 67, 0
2, 67686, Note_on_c, 0, 65, 64
2, 67749, Note_on_c, 0, 65, 0
2, 67753, Note_on_c, 0, 60, 64
2, 67767, Note_on_c, 0, 60, 0
2, 67783, Note_on_c, 0, 53, 0
2, 67802, Note_on_c, 0, 60, 64
2, 67882, Note_on_c, 0, 60, 0
2, 67925, Note_on_c, 0, 60, 64
2, 68113, Note_on_c, 0, 58, 64
2, 68116, Note_on_c, 0, 60, 0
2, 68166, Note_on_c, 0, 58, 0
2, 68178, Note_on_c, 0, 56, 64
2, 68241, Note_on_c, 0, 56, 0
2, 68280, Note_on_c, 0, 56, 64
2, 68448, Note_on_c, 0, 56, 0
2, 68465, Note_on_c, 0, 55, 64
2, 68467, Note_on_c, 0, 43, 64
2, 68502, Note_on_c, 0, 55, 0
2, 68504, Note_on_c, 0, 43, 0
2, 68523, Note_on_c, 0, 53, 64
2, 68528, Note_on_c, 0, 41, 64
2, 68591, Note_on_c, 0, 41, 0
2, 68609, Note_on_c, 0, 53, 0
2, 68647, Note_on_c, 0, 53, 64
2, 68651, Note_on_c, 0, 41, 64
2, 68769, Note_on_c, 0, 41, 0
2, 68841, Note_on_c, 0, 38, 64
2, 68857, Note_on_c, 0, 38, 0
2, 68882, Note_on_c, 0, 53, 0
2, 68886, Note_on_c, 0, 51, 64
2, 68970, Note_on_c, 0, 51, 0
2, 69005, Note_on_c, 0, 52, 64
2, 69106, Note_on_c, 0, 52, 0
2, 69484, Note_on_c, 0, 84, 64
2, 69553, Note_on_c, 0, 84, 0
2, 69571, Note_on_c, 0, 84, 64
2, 69585, Note_on_c, 0, 84, 0
2, 69843, Note_on_c, 0, 64, 64
2, 69848, Note_on_c, 0, 59, 64
2, 69850, Note_on_c, 0, 54, 64
2, 69887, Note_on_c, 0, 59, 0
2, 69891, Note_on_c, 0, 64, 0
2, 69903, Note_on_c, 0, 54, 0
2, 70038, Note_on_c, 0, 58, 64
2, 70039, Note_on_c, 0, 63, 64
2, 70045, Note_on_c, 0, 52, 64
2, 70059, Note_on_c, 0, 52, 0
2, 70062, Note_on_c, 0, 63, 0
2, 70070, Note_on_c, 0, 58, 0
2, 70283, Note_on_c, 0, 85, 64
2, 70296, Note_on_c, 0, 63, 64
2, 70305, Note_on_c, 0, 63, 0
2, 70313, Note_on_c, 0, 85, 0
2, 70366, Note_on_c, 0, 87, 64
2, 70416, Note_on_c, 0, 87, 0
2, 70451, Note_on_c, 0, 88, 64
2, 70454, Note_on_c, 0, 86, 64
2, 70464, Note_on_c, 0, 86, 0
2, 70496, Note_on_c, 0, 88, 0
2, 70522, Note_on_c, 0, 87, 64
2, 70554, Note_on_c, 0, 87, 0
2, 70627, Note_on_c, 0, 85, 64
2, 70666, Note_on_c, 0, 85, 0
2, 70681, Note_on_c, 0, 84, 64
2, 70715, Note_on_c, 0, 84, 0
2, 70747, Note_on_c, 0, 82, 64
2, 70787, Note_on_c, 0, 82, 0
2, 70833, Note_on_c, 0, 78, 64
2, 70884, Note_on_c, 0, 78, 0
2, 70914, Note_on_c, 0, 79, 64
2, 70977, Note_on_c, 0, 79, 0
2, 70995, Note_on_c, 0, 76, 64
2, 71000, Note_on_c, 0, 63, 64
2, 71010, Note_on_c, 0, 63, 0
2, 71027, Note_on_c, 0, 76, 0
2, 71060, Note_on_c, 0, 75, 64
2, 71123, Note_on_c, 0, 75, 0
2, 71163, Note_on_c, 0, 73, 64
2, 71231, Note_on_c, 0, 73, 0
2, 71237, Note_on_c, 0, 72, 64
2, 71521, Note_on_c, 0, 58, 64
2, 71521, Note_on_c, 0, 63, 64
2, 71541, Note_on_c, 0, 63, 0
2, 71544, Note_on_c, 0, 58, 0
2, 71642, Note_on_c, 0, 66, 64
2, 71642, Note_on_c, 0, 61, 64
2, 71670, Note_on_c, 0, 61, 0
2, 71677, Note_on_c, 0, 66, 0
2, 71764, Note_on_c, 0, 69, 64
2, 71774, Note_on_c, 0, 64, 64
2, 71795, Note_on_c, 0, 64, 0
2, 71795, Note_on_c, 0, 69, 0
2, 71883, Note_on_c, 0, 73, 64
2, 71889, Note_on_c, 0, 72, 0
2, 71950, Note_on_c, 0, 73, 0
2, 71963, Note_on_c, 0, 63, 64
2, 71963, Note_on_c, 0, 70, 64
2, 71968, Note_on_c, 0, 58, 64
2, 71977, Note_on_c, 0, 63, 0
2, 71982, Note_on_c, 0, 58, 0
2, 71998, Note_on_c, 0, 70, 0
2, 72023, Note_on_c, 0, 72, 64
2, 72073, Note_on_c, 0, 72, 0
2, 72092, Note_on_c, 0, 72, 64
2, 72113, Note_on_c, 0, 72, 0
2, 72380, Note_on_c, 0, 73, 64
2, 72412, Note_on_c, 0, 73, 0
2, 72458, Note_on_c, 0, 75, 64
2, 72488, Note_on_c, 0, 75, 0
2, 72528, Note_on_c, 0, 73, 64
2, 72572, Note_on_c, 0, 73, 0
2, 72610, Note_on_c, 0, 75, 64
2, 72656, Note_on_c, 0, 75, 0
2, 72684, Note_on_c, 0, 73, 64
2, 72724, Note_on_c, 0, 73, 0
2, 72756, Note_on_c, 0, 71, 64
2, 72827, Note_on_c, 0, 71, 0
2, 72846, Note_on_c, 0, 72, 64
2, 73040, Note_on_c, 0, 70, 64
2, 73055, Note_on_c, 0, 72, 0
2, 73071, Note_on_c, 0, 70, 0
2, 73094, Note_on_c, 0, 67, 64
2, 73148, Note_on_c, 0, 67, 0
2, 73160, Note_on_c, 0, 64, 64
2, 73165, Note_on_c, 0, 58, 64
2, 73181, Note_on_c, 0, 58, 0
2, 73193, Note_on_c, 0, 64, 0
2, 73212, Note_on_c, 0, 61, 64
2, 73293, Note_on_c, 0, 61, 0
2, 73323, Note_on_c, 0, 58, 64
2, 73388, Note_on_c, 0, 58, 0
2, 73560, Note_on_c, 0, 58, 64
2, 73567, Note_on_c, 0, 52, 64
2, 73588, Note_on_c, 0, 58, 0
2, 73589, Note_on_c, 0, 52, 0
2, 73685, Note_on_c, 0, 73, 64
2, 73729, Note_on_c, 0, 73, 0
2, 73799, Note_on_c, 0, 72, 64
2, 73884, Note_on_c, 0, 58, 64
2, 73894, Note_on_c, 0, 58, 0
2, 73940, Note_on_c, 0, 72, 0
2, 73990, Note_on_c, 0, 72, 64
2, 73993, Note_on_c, 0, 57, 64
2, 73995, Note_on_c, 0, 67, 64
2, 73996, Note_on_c, 0, 62, 64
2, 74003, Note_on_c, 0, 57, 0
2, 74009, Note_on_c, 0, 62, 0
2, 74017, Note_on_c, 0, 67, 0
2, 74021, Note_on_c, 0, 72, 0
2, 74049, Note_on_c, 0, 71, 64
2, 74059, Note_on_c, 0, 66, 64
2, 74059, Note_on_c, 0, 56, 64
2, 74060, Note_on_c, 0, 61, 64
2, 74105, Note_on_c, 0, 71, 0
2, 74108, Note_on_c, 0, 66, 0
2, 74124, Note_on_c, 0, 61, 0
2, 74133, Note_on_c, 0, 56, 0
2, 74158, Note_on_c, 0, 70, 64
2, 74165, Note_on_c, 0, 60, 64
2, 74167, Note_on_c, 0, 55, 64
2, 74168, Note_on_c, 0, 65, 64
2, 74204, Note_on_c, 0, 65, 0
2, 74209, Note_on_c, 0, 70, 0
2, 74214, Note_on_c, 0, 60, 0
2, 74239, Note_on_c, 0, 55, 0
2, 74244, Note_on_c, 0, 69, 64
2, 74245, Note_on_c, 0, 64, 64
2, 74246, Note_on_c, 0, 54, 64
2, 74252, Note_on_c, 0, 59, 64
2, 74262, Note_on_c, 0, 69, 0
2, 74264, Note_on_c, 0, 59, 0
2, 74271, Note_on_c, 0, 64, 0
2, 74273, Note_on_c, 0, 54, 0
2, 74484, Note_on_c, 0, 58, 64
2, 74485, Note_on_c, 0, 63, 64
2, 74486, Note_on_c, 0, 68, 64
2, 74491, Note_on_c, 0, 53, 64
2, 74621, Note_on_c, 0, 68, 0
2, 74623, Note_on_c, 0, 63, 0
2, 74624, Note_on_c, 0, 58, 0
2, 74644, Note_on_c, 0, 53, 0
2, 74644, Note_on_c, 0, 67, 64
2, 74648, Note_on_c, 0, 62, 64
2, 74649, Note_on_c, 0, 57, 64
2, 74668, Note_on_c, 0, 57, 0
2, 74669, Note_on_c, 0, 62, 0
2, 74673, Note_on_c, 0, 67, 0
2, 74844, Note_on_c, 0, 48, 64
2, 74845, Note_on_c, 0, 47, 64
2, 74855, Note_on_c, 0, 48, 0
2, 74857, Note_on_c, 0, 47, 0
2, 74880, Note_on_c, 0, 56, 64
2, 74883, Note_on_c, 0, 70, 64
2, 74884, Note_on_c, 0, 63, 64
2, 74940, Note_on_c, 0, 63, 0
2, 74951, Note_on_c, 0, 56, 0
2, 74955, Note_on_c, 0, 70, 0
2, 75001, Note_on_c, 0, 70, 64
2, 75004, Note_on_c, 0, 56, 64
2, 75005, Note_on_c, 0, 63, 64
2, 75058, Note_on_c, 0, 70, 0
2, 75060, Note_on_c, 0, 56, 0
2, 75063, Note_on_c, 0, 63, 0
2, 75123, Note_on_c, 0, 41, 64
2, 75133, Note_on_c, 0, 41, 0
2, 75214, Note_on_c, 0, 53, 64
2, 75219, Note_on_c, 0, 63, 64
2, 75221, Note_on_c, 0, 58, 64
2, 75229, Note_on_c, 0, 63, 0
2, 75235, Note_on_c, 0, 53, 0
2, 75240, Note_on_c, 0, 58, 0
2, 75333, Note_on_c, 0, 65, 64
2, 75335, Note_on_c, 0, 60, 64
2, 75338, Note_on_c, 0, 55, 64
2, 75344, Note_on_c, 0, 65, 0
2, 75349, Note_on_c, 0, 55, 0
2, 75354, Note_on_c, 0, 60, 0
2, 75451, Note_on_c, 0, 72, 64
2, 75467, Note_on_c, 0, 72, 0
2, 75493, Note_on_c, 0, 75, 64
2, 75523, Note_on_c, 0, 75, 0
2, 75564, Note_on_c, 0, 77, 64
2, 75565, Note_on_c, 0, 63, 64
2, 75566, Note_on_c, 0, 58, 64
2, 75574, Note_on_c, 0, 63, 0
2, 75584, Note_on_c, 0, 58, 0
2, 75585, Note_on_c, 0, 77, 0
2, 75614, Note_on_c, 0, 82, 64
2, 75629, Note_on_c, 0, 82, 0
2, 75681, Note_on_c, 0, 65, 64
2, 75685, Note_on_c, 0, 60, 64
2, 75687, Note_on_c, 0, 86, 64
2, 75691, Note_on_c, 0, 65, 0
2, 75695, Note_on_c, 0, 86, 0
2, 75695, Note_on_c, 0, 60, 0
2, 75731, Note_on_c, 0, 89, 64
2, 75813, Note_on_c, 0, 89, 0
2, 75834, Note_on_c, 0, 84, 64
2, 75909, Note_on_c, 0, 84, 0
2, 75918, Note_on_c, 0, 87, 64
2, 75925, Note_on_c, 0, 58, 64
2, 75949, Note_on_c, 0, 87, 0
2, 75960, Note_on_c, 0, 58, 0
2, 75964, Note_on_c, 0, 82, 64
2, 76058, Note_on_c, 0, 82, 0
2, 76075, Note_on_c, 0, 79, 64
2, 76136, Note_on_c, 0, 79, 0
2, 76154, Note_on_c, 0, 84, 64
2, 76157, Note_on_c, 0, 58, 64
2, 76180, Note_on_c, 0, 84, 0
2, 76192, Note_on_c, 0, 58, 0
2, 76200, Note_on_c, 0, 77, 64
2, 76286, Note_on_c, 0, 77, 0
2, 76311, Note_on_c, 0, 75, 64
2, 76419, Note_on_c, 0, 75, 0
2, 76430, Note_on_c, 0, 72, 64
2, 76551, Note_on_c, 0, 63, 64
2, 76564, Note_on_c, 0, 63, 0
2, 76679, Note_on_c, 0, 70, 64
2, 76688, Note_on_c, 0, 72, 0
2, 76870, Note_on_c, 0, 70, 0
2, 76876, Note_on_c, 0, 71, 64
2, 76919, Note_on_c, 0, 71, 0
2, 76939, Note_on_c, 0, 72, 64
2, 77016, Note_on_c, 0, 72, 0
2, 77040, Note_on_c, 0, 60, 64
2, 77104, Note_on_c, 0, 60, 0
2, 77125, Note_on_c, 0, 60, 64
2, 77139, Note_on_c, 0, 60, 0
2, 77284, Note_on_c, 0, 63, 64
2, 77285, Note_on_c, 0, 59, 64
2, 77297, Note_on_c, 0, 59, 0
2, 77304, Note_on_c, 0, 63, 0
2, 77493, Note_on_c, 0, 59, 64
2, 77500, Note_on_c, 0, 59, 0
2, 77644, Note_on_c, 0, 76, 64
2, 77717, Note_on_c, 0, 76, 0
2, 77729, Note_on_c, 0, 82, 64
2, 77773, Note_on_c, 0, 82, 0
2, 77794, Note_on_c, 0, 73, 64
2, 77855, Note_on_c, 0, 73, 0
2, 77875, Note_on_c, 0, 73, 64
2, 77895, Note_on_c, 0, 73, 0
2, 77974, Note_on_c, 0, 63, 64
2, 77975, Note_on_c, 0, 58, 64
2, 77984, Note_on_c, 0, 63, 0
2, 77991, Note_on_c, 0, 58, 0
2, 78213, Note_on_c, 0, 61, 64
2, 78218, Note_on_c, 0, 64, 64
2, 78220, Note_on_c, 0, 58, 64
2, 78226, Note_on_c, 0, 64, 0
2, 78231, Note_on_c, 0, 61, 0
2, 78233, Note_on_c, 0, 58, 0
2, 78441, Note_on_c, 0, 61, 64
2, 78445, Note_on_c, 0, 64, 64
2, 78445, Note_on_c, 0, 58, 64
2, 78457, Note_on_c, 0, 64, 0
2, 78459, Note_on_c, 0, 58, 0
2, 78460, Note_on_c, 0, 61, 0
2, 78483, Note_on_c, 0, 85, 64
2, 78539, Note_on_c, 0, 85, 0
2, 78560, Note_on_c, 0, 87, 64
2, 78595, Note_on_c, 0, 87, 0
2, 78616, Note_on_c, 0, 85, 64
2, 78655, Note_on_c, 0, 85, 0
2, 78686, Note_on_c, 0, 82, 64
2, 78689, Note_on_c, 0, 58, 64
2, 78712, Note_on_c, 0, 58, 0
2, 78721, Note_on_c, 0, 82, 0
2, 78747, Note_on_c, 0, 84, 64
2, 78793, Note_on_c, 0, 84, 0
2, 78843, Note_on_c, 0, 84, 64
2, 78914, Note_on_c, 0, 84, 0
2, 78936, Note_on_c, 0, 83, 64
2, 78949, Note_on_c, 0, 83, 0
2, 78977, Note_on_c, 0, 84, 64
2, 79040, Note_on_c, 0, 84, 0
2, 79208, Note_on_c, 0, 84, 64
2, 79208, Note_on_c, 0, 63, 64
2, 79213, Note_on_c, 0, 72, 64
2, 79213, Note_on_c, 0, 58, 64
2, 79216, Note_on_c, 0, 52, 64
2, 79232, Note_on_c, 0, 63, 0
2, 79239, Note_on_c, 0, 52, 0
2, 79240, Note_on_c, 0, 58, 0
2, 79245, Note_on_c, 0, 84, 0
2, 79249, Note_on_c, 0, 72, 0
2, 79414, Note_on_c, 0, 58, 64
2, 79416, Note_on_c, 0, 63, 64
2, 79421, Note_on_c, 0, 84, 64
2, 79421, Note_on_c, 0, 72, 64
2, 79427, Note_on_c, 0, 63, 0
2, 79431, Note_on_c, 0, 84, 0
2, 79432, Note_on_c, 0, 58, 0
2, 79432, Note_on_c, 0, 72, 0
2, 79526, Note_on_c, 0, 85, 64
2, 79526, Note_on_c, 0, 73, 64
2, 79527, Note_on_c, 0, 61, 64
2, 79529, Note_on_c, 0, 66, 64
2, 79531, Note_on_c, 0, 55, 64
2, 79618, Note_on_c, 0, 55, 0
2, 79623, Note_on_c, 0, 66, 0
2, 79631, Note_on_c, 0, 61, 0
2, 79656, Note_on_c, 0, 85, 0
2, 79657, Note_on_c, 0, 73, 0
2, 79674, Note_on_c, 0, 63, 64
2, 79678, Note_on_c, 0, 58, 64
2, 79681, Note_on_c, 0, 84, 64
2, 79684, Note_on_c, 0, 52, 64
2, 79685, Note_on_c, 0, 72, 64
2, 79696, Note_on_c, 0, 63, 0
2, 79698, Note_on_c, 0, 52, 0
2, 79703, Note_on_c, 0, 84, 0
2, 79705, Note_on_c, 0, 58, 0
2, 79710, Note_on_c, 0, 72, 0
2, 79802, Note_on_c, 0, 63, 64
2, 79803, Note_on_c, 0, 82, 64
2, 79805, Note_on_c, 0, 70, 64
2, 79813, Note_on_c, 0, 63, 0
2, 79831, Note_on_c, 0, 70, 0
2, 79832, Note_on_c, 0, 82, 0
2, 79927, Note_on_c, 0, 79, 64
2, 79931, Note_on_c, 0, 67, 64
2, 79932, Note_on_c, 0, 63, 64
2, 79938, Note_on_c, 0, 52, 64
2, 79938, Note_on_c, 0, 58, 64
2, 80077, Note_on_c, 0, 52, 0
2, 80077, Note_on_c, 0, 67, 0
2, 80084, Note_on_c, 0, 63, 0
2, 80085, Note_on_c, 0, 79, 0
2, 80095, Note_on_c, 0, 58, 0
2, 80122, Note_on_c, 0, 77, 64
2, 80124, Note_on_c, 0, 63, 64
2, 80132, Note_on_c, 0, 58, 64
2, 80134, Note_on_c, 0, 63, 0
2, 80152, Note_on_c, 0, 77, 0
2, 80170, Note_on_c, 0, 58, 0
2, 80180, Note_on_c, 0, 75, 64
2, 80232, Note_on_c, 0, 75, 0
2, 80246, Note_on_c, 0, 76, 64
2, 80281, Note_on_c, 0, 76, 0
2, 80303, Note_on_c, 0, 73, 64
2, 80359, Note_on_c, 0, 73, 0
2, 80359, Note_on_c, 0, 72, 64
2, 80388, Note_on_c, 0, 72, 0
2, 80421, Note_on_c, 0, 70, 64
2, 80486, Note_on_c, 0, 70, 0
2, 80601, Note_on_c, 0, 68, 64
2, 80623, Note_on_c, 0, 68, 0
2, 80645, Note_on_c, 0, 67, 64
2, 80685, Note_on_c, 0, 67, 0
2, 80713, Note_on_c, 0, 68, 64
2, 80729, Note_on_c, 0, 67, 64
2, 80742, Note_on_c, 0, 68, 0
2, 80765, Note_on_c, 0, 67, 0
2, 80769, Note_on_c, 0, 65, 64
2, 80825, Note_on_c, 0, 65, 0
2, 80848, Note_on_c, 0, 58, 64
2, 80849, Note_on_c, 0, 64, 64
2, 80860, Note_on_c, 0, 58, 0
2, 80867, Note_on_c, 0, 64, 0
2, 80888, Note_on_c, 0, 67, 64
2, 80960, Note_on_c, 0, 61, 64
2, 80981, Note_on_c, 0, 61, 0
2, 80981, Note_on_c, 0, 67, 0
2, 81018, Note_on_c, 0, 60, 64
2, 81219, Note_on_c, 0, 52, 64
2, 81234, Note_on_c, 0, 52, 0
2, 81364, Note_on_c, 0, 60, 0
2, 81374, Note_on_c, 0, 58, 64
2, 81532, Note_on_c, 0, 58, 0
2, 81565, Note_on_c, 0, 56, 64
2, 81579, Note_on_c, 0, 48, 64
2, 81590, Note_on_c, 0, 48, 0
2, 81602, Note_on_c, 0, 56, 0
2, 81617, Note_on_c, 0, 55, 64
2, 81632, Note_on_c, 0, 58, 64
2, 81664, Note_on_c, 0, 55, 0
2, 81688, Note_on_c, 0, 52, 64
2, 81697, Note_on_c, 0, 52, 0
2, 81710, Note_on_c, 0, 58, 0
2, 81799, Note_on_c, 0, 72, 64
2, 81802, Note_on_c, 0, 67, 64
2, 81802, Note_on_c, 0, 57, 64
2, 81805, Note_on_c, 0, 62, 64
2, 81823, Note_on_c, 0, 62, 0
2, 81826, Note_on_c, 0, 57, 0
2, 81828, Note_on_c, 0, 67, 0
2, 81840, Note_on_c, 0, 72, 0
2, 81916, Note_on_c, 0, 61, 64
2, 81917, Note_on_c, 0, 66, 64
2, 81918, Note_on_c, 0, 71, 64
2, 81920, Note_on_c, 0, 56, 64
2, 81930, Note_on_c, 0, 71, 0
2, 81936, Note_on_c, 0, 66, 0
2, 81939, Note_on_c, 0, 56, 0
2, 81943, Note_on_c, 0, 61, 0
2, 82035, Note_on_c, 0, 70, 64
2, 82039, Note_on_c, 0, 60, 64
2, 82041, Note_on_c, 0, 55, 64
2, 82041, Note_on_c, 0, 65, 64
2, 82052, Note_on_c, 0, 65, 0
2, 82053, Note_on_c, 0, 70, 0
2, 82061, Note_on_c, 0, 55, 0
2, 82063, Note_on_c, 0, 60, 0
2, 82086, Note_on_c, 0, 69, 64
2, 82088, Note_on_c, 0, 64, 64
2, 82088, Note_on_c, 0, 59, 64
2, 82091, Note_on_c, 0, 54, 64
2, 82265, Note_on_c, 0, 64, 0
2, 82267, Note_on_c, 0, 59, 0
2, 82286, Note_on_c, 0, 69, 0
2, 82296, Note_on_c, 0, 51, 64
2, 82314, Note_on_c, 0, 51, 0
2, 82314, Note_on_c, 0, 54, 0
2, 82324, Note_on_c, 0, 68, 64
2, 82327, Note_on_c, 0, 53, 64
2, 82327, Note_on_c, 0, 59, 64
2, 82330, Note_on_c, 0, 64, 64
2, 82396, Note_on_c, 0, 64, 0
2, 82396, Note_on_c, 0, 53, 0
2, 82405, Note_on_c, 0, 68, 0
2, 82409, Note_on_c, 0, 59, 0
2, 82521, Note_on_c, 0, 53, 64
2, 82530, Note_on_c, 0, 53, 0
2, 82560, Note_on_c, 0, 67, 64
2, 82565, Note_on_c, 0, 56, 64
2, 82568, Note_on_c, 0, 60, 64
2, 82573, Note_on_c, 0, 63, 64
2, 82618, Note_on_c, 0, 63, 0
2, 82622, Note_on_c, 0, 60, 0
2, 82622, Note_on_c, 0, 56, 0
2, 82626, Note_on_c, 0, 67, 0
2, 82649, Note_on_c, 0, 65, 64
2, 82662, Note_on_c, 0, 65, 0
2, 82683, Note_on_c, 0, 67, 64
2, 82685, Note_on_c, 0, 56, 64
2, 82719, Note_on_c, 0, 56, 0
2, 82725, Note_on_c, 0, 67, 0
2, 82758, Note_on_c, 0, 67, 64
2, 82762, Note_on_c, 0, 56, 64
2, 82768, Note_on_c, 0, 60, 64
2, 82770, Note_on_c, 0, 55, 64
2, 82781, Note_on_c, 0, 55, 0
2, 82783, Note_on_c, 0, 60, 0
2, 82786, Note_on_c, 0, 67, 0
2, 82788, Note_on_c, 0, 56, 0
2, 82797, Note_on_c, 0, 53, 64
2, 82807, Note_on_c, 0, 65, 64
2, 82864, Note_on_c, 0, 65, 0
2, 82882, Note_on_c, 0, 56, 64
2, 82882, Note_on_c, 0, 67, 64
2, 82886, Note_on_c, 0, 53, 0
2, 82887, Note_on_c, 0, 55, 64
2, 82891, Note_on_c, 0, 56, 0
2, 82892, Note_on_c, 0, 63, 64
2, 82897, Note_on_c, 0, 55, 0
2, 82898, Note_on_c, 0, 67, 0
2, 82903, Note_on_c, 0, 63, 0
2, 83013, Note_on_c, 0, 54, 64
2, 83041, Note_on_c, 0, 54, 0
2, 83042, Note_on_c, 0, 68, 64
2, 83042, Note_on_c, 0, 56, 64
2, 83045, Note_on_c, 0, 63, 64
2, 83045, Note_on_c, 0, 60, 64
2, 83062, Note_on_c, 0, 60, 0
2, 83069, Note_on_c, 0, 68, 0
2, 83073, Note_on_c, 0, 63, 0
2, 83073, Note_on_c, 0, 56, 0
2, 83161, Note_on_c, 0, 60, 64
2, 83163, Note_on_c, 0, 55, 64
2, 83164, Note_on_c, 0, 67, 64
2, 83167, Note_on_c, 0, 63, 64
2, 83168, Note_on_c, 0, 56, 64
2, 83196, Note_on_c, 0, 60, 0
2, 83199, Note_on_c, 0, 55, 0
2, 83200, Note_on_c, 0, 56, 0
2, 83206, Note_on_c, 0, 63, 0
2, 83209, Note_on_c, 0, 67, 0
2, 83245, Note_on_c, 0, 51, 64
2, 83272, Note_on_c, 0, 51, 0
2, 83283, Note_on_c, 0, 56, 64
2, 83287, Note_on_c, 0, 53, 64
2, 83289, Note_on_c, 0, 65, 64
2, 83291, Note_on_c, 0, 60, 64
2, 83300, Note_on_c, 0, 63, 64
2, 83361, Note_on_c, 0, 60, 0
2, 83364, Note_on_c, 0, 65, 0
2, 83365, Note_on_c, 0, 53, 0
2, 83367, Note_on_c, 0, 63, 0
2, 83376, Note_on_c, 0, 56, 0
2, 83377, Note_on_c, 0, 48, 64
2, 83472, Note_on_c, 0, 48, 0
2, 83481, Note_on_c, 0, 51, 64
2, 83482, Note_on_c, 0, 56, 64
2, 83483, Note_on_c, 0, 63, 64
2, 83484, Note_on_c, 0, 60, 64
2, 83484, Note_on_c, 0, 53, 64
2, 83614, Note_on_c, 0, 53, 0
2, 83623, Note_on_c, 0, 60, 0
2, 83624, Note_on_c, 0, 56, 0
2, 83842, Note_on_c, 0, 63, 0
2, 83843, Note_on_c, 0, 48, 64
2, 83846, Note_on_c, 0, 51, 0
2, 83871, Note_on_c, 0, 48, 0
2, 83881, Note_on_c, 0, 51, 64
2, 83887, Note_on_c, 0, 53, 64
2, 83889, Note_on_c, 0, 56, 64
2, 83890, Note_on_c, 0, 63, 64
2, 83891, Note_on_c, 0, 60, 64
2, 84158, Note_on_c, 0, 53, 0
2, 84159, Note_on_c, 0, 60, 0
2, 84172, Note_on_c, 0, 56, 0
2, 84202, Note_on_c, 0, 63, 0
2, 84206, Note_on_c, 0, 48, 64
2, 84227, Note_on_c, 0, 51, 0
2, 84235, Note_on_c, 0, 48, 0
2, 84249, Note_on_c, 0, 62, 64
2, 84301, Note_on_c, 0, 62, 0
2, 84320, Note_on_c, 0, 63, 64
2, 84348, Note_on_c, 0, 63, 0
2, 84368, Note_on_c, 0, 64, 64
2, 84422, Note_on_c, 0, 64, 0
2, 84441, Note_on_c, 0, 65, 64
2, 84452, Note_on_c, 0, 57, 64
2, 84463, Note_on_c, 0, 57, 0
2, 84478, Note_on_c, 0, 65, 0
2, 84501, Note_on_c, 0, 63, 64
2, 84687, Note_on_c, 0, 63, 0
2, 84692, Note_on_c, 0, 60, 64
2, 84706, Note_on_c, 0, 60, 0
2, 84730, Note_on_c, 0, 61, 64
2, 84789, Note_on_c, 0, 61, 0
2, 84802, Note_on_c, 0, 62, 64
2, 84828, Note_on_c, 0, 62, 0
2, 84848, Note_on_c, 0, 57, 64
2, 85062, Note_on_c, 0, 57, 0
2, 85083, Note_on_c, 0, 58, 64
2, 85154, Note_on_c, 0, 58, 0
2, 85158, Note_on_c, 0, 59, 64
2, 85198, Note_on_c, 0, 59, 0
2, 85229, Note_on_c, 0, 60, 64
2, 85262, Note_on_c, 0, 60, 0
2, 85283, Note_on_c, 0, 62, 64
2, 85312, Note_on_c, 0, 62, 0
2, 85340, Note_on_c, 0, 63, 64
2, 85380, Note_on_c, 0, 63, 0
2, 85400, Note_on_c, 0, 65, 64
2, 85406, Note_on_c, 0, 63, 64
2, 85409, Note_on_c, 0, 53, 64
2, 85415, Note_on_c, 0, 58, 64
2, 85420, Note_on_c, 0, 53, 0
2, 85422, Note_on_c, 0, 63, 0
2, 85436, Note_on_c, 0, 58, 0
2, 85439, Note_on_c, 0, 65, 0
2, 85472, Note_on_c, 0, 66, 64
2, 85513, Note_on_c, 0, 66, 0
2, 85526, Note_on_c, 0, 68, 64
2, 85556, Note_on_c, 0, 68, 0
2, 85579, Note_on_c, 0, 69, 64
2, 85617, Note_on_c, 0, 69, 0
2, 85634, Note_on_c, 0, 63, 64
2, 85634, Note_on_c, 0, 71, 64
2, 85636, Note_on_c, 0, 68, 64
2, 85639, Note_on_c, 0, 57, 64
2, 85662, Note_on_c, 0, 71, 0
2, 85695, Note_on_c, 0, 72, 64
2, 85739, Note_on_c, 0, 72, 0
2, 85756, Note_on_c, 0, 74, 64
2, 85765, Note_on_c, 0, 68, 0
2, 85775, Note_on_c, 0, 74, 0
2, 85798, Note_on_c, 0, 57, 0
2, 85804, Note_on_c, 0, 75, 64
2, 85816, Note_on_c, 0, 63, 0
2, 85858, Note_on_c, 0, 75, 0
2, 85875, Note_on_c, 0, 77, 64
2, 85892, Note_on_c, 0, 77, 0
2, 86001, Note_on_c, 0, 63, 64
2, 86006, Note_on_c, 0, 68, 64
2, 86010, Note_on_c, 0, 57, 64
2, 86102, Note_on_c, 0, 63, 0
2, 86133, Note_on_c, 0, 68, 0
2, 86136, Note_on_c, 0, 63, 64
2, 86166, Note_on_c, 0, 85, 64
2, 86173, Note_on_c, 0, 57, 0
2, 86203, Note_on_c, 0, 63, 0
2, 86221, Note_on_c, 0, 85, 0
2, 86238, Note_on_c, 0, 86, 64
2, 86244, Note_on_c, 0, 63, 64
2, 86246, Note_on_c, 0, 68, 64
2, 86264, Note_on_c, 0, 68, 0
2, 86264, Note_on_c, 0, 86, 0
2, 86294, Note_on_c, 0, 87, 64
2, 86325, Note_on_c, 0, 87, 0
2, 86359, Note_on_c, 0, 88, 64
2, 86363, Note_on_c, 0, 63, 0
2, 86368, Note_on_c, 0, 62, 64
2, 86368, Note_on_c, 0, 67, 64
2, 86370, Note_on_c, 0, 56, 64
2, 86402, Note_on_c, 0, 88, 0
2, 86425, Note_on_c, 0, 89, 64
2, 86682, Note_on_c, 0, 56, 0
2, 86686, Note_on_c, 0, 67, 0
2, 86688, Note_on_c, 0, 89, 0
2, 86700, Note_on_c, 0, 62, 0
2, 86716, Note_on_c, 0, 67, 64
2, 86719, Note_on_c, 0, 62, 64
2, 86726, Note_on_c, 0, 56, 64
2, 86728, Note_on_c, 0, 67, 0
2, 86744, Note_on_c, 0, 62, 0
2, 86746, Note_on_c, 0, 56, 0
2, 86797, Note_on_c, 0, 92, 64
2, 86821, Note_on_c, 0, 89, 64
2, 86838, Note_on_c, 0, 92, 0
2, 86853, Note_on_c, 0, 89, 0
2, 86857, Note_on_c, 0, 62, 64
2, 86859, Note_on_c, 0, 86, 64
2, 86882, Note_on_c, 0, 86, 0
2, 86882, Note_on_c, 0, 62, 0
2, 86905, Note_on_c, 0, 85, 64
2, 86947, Note_on_c, 0, 85, 0
2, 86975, Note_on_c, 0, 84, 64
2, 86981, Note_on_c, 0, 62, 64
2, 87008, Note_on_c, 0, 62, 0
2, 87020, Note_on_c, 0, 84, 0
2, 87029, Note_on_c, 0, 85, 64
2, 87058, Note_on_c, 0, 85, 0
2, 87058, Note_on_c, 0, 84, 64
2, 87083, Note_on_c, 0, 84, 0
2, 87091, Note_on_c, 0, 83, 64
2, 87116, Note_on_c, 0, 83, 0
2, 87139, Note_on_c, 0, 80, 64
2, 87184, Note_on_c, 0, 80, 0
2, 87202, Note_on_c, 0, 77, 64
2, 87240, Note_on_c, 0, 77, 0
2, 87255, Note_on_c, 0, 74, 64
2, 87297, Note_on_c, 0, 74, 0
2, 87314, Note_on_c, 0, 73, 64
2, 87353, Note_on_c, 0, 73, 0
2, 87376, Note_on_c, 0, 72, 64
2, 87424, Note_on_c, 0, 72, 0
2, 87436, Note_on_c, 0, 71, 64
2, 87453, Note_on_c, 0, 62, 64
2, 87468, Note_on_c, 0, 71, 0
2, 87472, Note_on_c, 0, 62, 0
2, 87504, Note_on_c, 0, 68, 64
2, 87559, Note_on_c, 0, 68, 0
2, 87682, Note_on_c, 0, 65, 64
2, 87686, Note_on_c, 0, 62, 64
2, 87692, Note_on_c, 0, 65, 0
2, 87700, Note_on_c, 0, 62, 0
2, 87805, Note_on_c, 0, 62, 64
2, 87822, Note_on_c, 0, 62, 0
2, 87842, Note_on_c, 0, 65, 64
2, 87890, Note_on_c, 0, 65, 0
2, 87919, Note_on_c, 0, 68, 64
2, 87924, Note_on_c, 0, 62, 64
2, 87930, Note_on_c, 0, 56, 64
2, 87936, Note_on_c, 0, 62, 0
2, 87950, Note_on_c, 0, 68, 0
2, 87952, Note_on_c, 0, 56, 0
2, 87970, Note_on_c, 0, 65, 64
2, 88006, Note_on_c, 0, 65, 0
2, 88046, Note_on_c, 0, 62, 64
2, 88058, Note_on_c, 0, 62, 0
2, 88089, Note_on_c, 0, 65, 64
2, 88126, Note_on_c, 0, 65, 0
2, 88157, Note_on_c, 0, 68, 64
2, 88158, Note_on_c, 0, 56, 64
2, 88189, Note_on_c, 0, 68, 0
2, 88192, Note_on_c, 0, 56, 0
2, 88280, Note_on_c, 0, 55, 64
2, 88291, Note_on_c, 0, 55, 0
2, 88326, Note_on_c, 0, 67, 64
2, 88376, Note_on_c, 0, 67, 0
2, 88399, Note_on_c, 0, 70, 64
2, 88430, Note_on_c, 0, 70, 0
2, 88452, Note_on_c, 0, 61, 64
2, 88502, Note_on_c, 0, 61, 0
2, 88563, Note_on_c, 0, 61, 64
2, 88631, Note_on_c, 0, 61, 0
2, 88801, Note_on_c, 0, 66, 64
2, 88803, Note_on_c, 0, 61, 64
2, 88809, Note_on_c, 0, 55, 64
2, 88839, Note_on_c, 0, 66, 0
2, 88841, Note_on_c, 0, 55, 0
2, 88847, Note_on_c, 0, 61, 0
2, 89002, Note_on_c, 0, 66, 64
2, 89007, Note_on_c, 0, 61, 64
2, 89018, Note_on_c, 0, 66, 0
2, 89041, Note_on_c, 0, 61, 0
2, 89047, Note_on_c, 0, 79, 64
2, 89082, Note_on_c, 0, 79, 0
2, 89092, Note_on_c, 0, 84, 64
2, 89136, Note_on_c, 0, 84, 0
2, 89137, Note_on_c, 0, 79, 64
2, 89163, Note_on_c, 0, 79, 0
2, 89193, Note_on_c, 0, 73, 64
2, 89214, Note_on_c, 0, 73, 0
2, 89289, Note_on_c, 0, 76, 64
2, 89327, Note_on_c, 0, 76, 0
2, 89336, Note_on_c, 0, 81, 64
2, 89369, Note_on_c, 0, 76, 64
2, 89372, Note_on_c, 0, 81, 0
2, 89386, Note_on_c, 0, 61, 64
2, 89404, Note_on_c, 0, 76, 0
2, 89413, Note_on_c, 0, 70, 64
2, 89420, Note_on_c, 0, 61, 0
2, 89437, Note_on_c, 0, 70, 0
2, 89455, Note_on_c, 0, 73, 64
2, 89487, Note_on_c, 0, 73, 0
2, 89494, Note_on_c, 0, 78, 64
2, 89525, Note_on_c, 0, 73, 64
2, 89533, Note_on_c, 0, 78, 0
2, 89557, Note_on_c, 0, 73, 0
2, 89730, Note_on_c, 0, 66, 64
2, 89731, Note_on_c, 0, 61, 64
2, 89744, Note_on_c, 0, 66, 0
2, 89765, Note_on_c, 0, 61, 0
2, 89776, Note_on_c, 0, 70, 64
2, 89798, Note_on_c, 0, 70, 0
2, 89814, Note_on_c, 0, 75, 64
2, 89836, Note_on_c, 0, 70, 64
2, 89849, Note_on_c, 0, 75, 0
2, 89858, Note_on_c, 0, 61, 64
2, 89863, Note_on_c, 0, 70, 0
2, 89872, Note_on_c, 0, 61, 0
2, 89872, Note_on_c, 0, 64, 64
2, 89887, Note_on_c, 0, 64, 0
2, 89906, Note_on_c, 0, 67, 64
2, 89930, Note_on_c, 0, 67, 0
2, 89939, Note_on_c, 0, 72, 64
2, 89956, Note_on_c, 0, 67, 64
2, 89966, Note_on_c, 0, 72, 0
2, 89981, Note_on_c, 0, 55, 64
2, 89984, Note_on_c, 0, 67, 0
2, 89994, Note_on_c, 0, 55, 0
2, 89994, Note_on_c, 0, 61, 64
2, 90008, Note_on_c, 0, 61, 0
2, 90084, Note_on_c, 0, 63, 64
2, 90151, Note_on_c, 0, 63, 0
2, 90167, Note_on_c, 0, 65, 64
2, 90192, Note_on_c, 0, 63, 64
2, 90196, Note_on_c, 0, 65, 0
2, 90220, Note_on_c, 0, 63, 0
2, 90221, Note_on_c, 0, 60, 64
2, 90233, Note_on_c, 0, 51, 64
2, 90240, Note_on_c, 0, 60, 0
2, 90251, Note_on_c, 0, 51, 0
2, 90254, Note_on_c, 0, 63, 64
2, 90367, Note_on_c, 0, 55, 64
2, 90383, Note_on_c, 0, 63, 0
2, 90448, Note_on_c, 0, 55, 0
2, 90451, Note_on_c, 0, 51, 64
2, 90459, Note_on_c, 0, 56, 64
2, 90471, Note_on_c, 0, 56, 0
2, 90474, Note_on_c, 0, 51, 0
2, 90500, Note_on_c, 0, 58, 64
2, 90580, Note_on_c, 0, 51, 64
2, 90593, Note_on_c, 0, 51, 0
2, 90598, Note_on_c, 0, 58, 0
2, 90609, Note_on_c, 0, 60, 64
2, 90692, Note_on_c, 0, 60, 0
2, 90725, Note_on_c, 0, 63, 64
2, 90793, Note_on_c, 0, 63, 0
2, 90808, Note_on_c, 0, 67, 64
2, 90838, Note_on_c, 0, 67, 0
2, 90864, Note_on_c, 0, 68, 64
2, 90918, Note_on_c, 0, 68, 0
2, 90930, Note_on_c, 0, 70, 64
2, 90962, Note_on_c, 0, 70, 0
2, 90985, Note_on_c, 0, 72, 64
2, 91041, Note_on_c, 0, 72, 0
2, 91052, Note_on_c, 0, 73, 64
2, 91091, Note_on_c, 0, 73, 0
2, 91102, Note_on_c, 0, 75, 64
2, 91151, Note_on_c, 0, 75, 0
2, 91165, Note_on_c, 0, 61, 64
2, 91165, Note_on_c, 0, 77, 64
2, 91170, Note_on_c, 0, 53, 64
2, 91174, Note_on_c, 0, 58, 64
2, 91177, Note_on_c, 0, 55, 64
2, 91183, Note_on_c, 0, 53, 0
2, 91183, Note_on_c, 0, 61, 0
2, 91189, Note_on_c, 0, 55, 0
2, 91202, Note_on_c, 0, 58, 0
2, 91211, Note_on_c, 0, 77, 0
2, 91227, Note_on_c, 0, 79, 64
2, 91267, Note_on_c, 0, 79, 0
2, 91287, Note_on_c, 0, 80, 64
2, 91345, Note_on_c, 0, 82, 64
2, 91372, Note_on_c, 0, 80, 0
2, 91389, Note_on_c, 0, 82, 0
2, 91406, Note_on_c, 0, 84, 64
2, 91416, Note_on_c, 0, 61, 64
2, 91416, Note_on_c, 0, 53, 64
2, 91417, Note_on_c, 0, 55, 64
2, 91446, Note_on_c, 0, 84, 0
2, 91461, Note_on_c, 0, 58, 64
2, 91465, Note_on_c, 0, 85, 64
2, 91510, Note_on_c, 0, 85, 0
2, 91518, Note_on_c, 0, 87, 64
2, 91531, Note_on_c, 0, 61, 0
2, 91540, Note_on_c, 0, 55, 0
2, 91556, Note_on_c, 0, 87, 0
2, 91560, Note_on_c, 0, 53, 0
2, 91572, Note_on_c, 0, 88, 64
2, 91624, Note_on_c, 0, 88, 0
2, 91624, Note_on_c, 0, 58, 0
2, 91640, Note_on_c, 0, 61, 64
2, 91642, Note_on_c, 0, 90, 64
2, 91642, Note_on_c, 0, 58, 64
2, 91651, Note_on_c, 0, 52, 64
2, 91670, Note_on_c, 0, 52, 0
2, 91673, Note_on_c, 0, 61, 0
2, 91693, Note_on_c, 0, 58, 0
2, 91697, Note_on_c, 0, 90, 0
2, 91713, Note_on_c, 0, 91, 64
2, 91787, Note_on_c, 0, 91, 0
2, 91808, Note_on_c, 0, 92, 64
2, 91811, Note_on_c, 0, 58, 64
2, 91821, Note_on_c, 0, 48, 64
2, 91858, Note_on_c, 0, 48, 0
2, 91870, Note_on_c, 0, 92, 0
2, 91889, Note_on_c, 0, 58, 0
2, 91893, Note_on_c, 0, 94, 64
2, 91939, Note_on_c, 0, 94, 0
2, 91966, Note_on_c, 0, 95, 64
2, 92002, Note_on_c, 0, 95, 0
2, 92008, Note_on_c, 0, 58, 64
2, 92011, Note_on_c, 0, 48, 64
2, 92023, Note_on_c, 0, 48, 0
2, 92037, Note_on_c, 0, 58, 0
2, 92039, Note_on_c, 0, 95, 64
2, 92084, Note_on_c, 0, 95, 0
2, 92120, Note_on_c, 0, 97, 64
2, 92120, Note_on_c, 0, 85, 64
2, 92161, Note_on_c, 0, 85, 0
2, 92162, Note_on_c, 0, 97, 0
2, 92182, Note_on_c, 0, 69, 64
2, 92184, Note_on_c, 0, 96, 64
2, 92188, Note_on_c, 0, 58, 64
2, 92189, Note_on_c, 0, 91, 64
2, 92190, Note_on_c, 0, 64, 64
2, 92192, Note_on_c, 0, 84, 64
2, 92236, Note_on_c, 0, 91, 0
2, 92237, Note_on_c, 0, 84, 0
2, 92238, Note_on_c, 0, 96, 0
2, 92248, Note_on_c, 0, 64, 0
2, 92250, Note_on_c, 0, 58, 0
2, 92250, Note_on_c, 0, 69, 0
2, 92292, Note_on_c, 0, 69, 64
2, 92292, Note_on_c, 0, 58, 64
2, 92293, Note_on_c, 0, 96, 64
2, 92293, Note_on_c, 0, 64, 64
2, 92294, Note_on_c, 0, 91, 64
2, 92295, Note_on_c, 0, 84, 64
2, 92366, Note_on_c, 0, 96, 0
2, 92372, Note_on_c, 0, 91, 0
2, 92383, Note_on_c, 0, 64, 0
2, 92384, Note_on_c, 0, 69, 0
2, 92393, Note_on_c, 0, 84, 0
2, 92399, Note_on_c, 0, 58, 0
2, 92609, Note_on_c, 0, 72, 64
2, 92610, Note_on_c, 0, 64, 64
2, 92610, Note_on_c, 0, 61, 64
2, 92615, Note_on_c, 0, 60, 64
2, 92616, Note_on_c, 0, 67, 64
2, 92620, Note_on_c, 0, 70, 64
2, 92639, Note_on_c, 0, 60, 0
2, 92641, Note_on_c, 0, 64, 0
2, 92642, Note_on_c, 0, 67, 0
2, 92646, Note_on_c, 0, 61, 0
2, 92649, Note_on_c, 0, 70, 0
2, 92654, Note_on_c, 0, 72, 0
2, 92728, Note_on_c, 0, 63, 64
2, 92729, Note_on_c, 0, 75, 64
2, 92730, Note_on_c, 0, 70, 64
2, 92730, Note_on_c, 0, 67, 64
2, 92732, Note_on_c, 0, 64, 64
2, 92803, Note_on_c, 0, 67, 0
2, 92806, Note_on_c, 0, 75, 0
2, 92809, Note_on_c, 0, 70, 0
2, 92830, Note_on_c, 0, 63, 0
2, 92830, Note_on_c, 0, 64, 0
2, 92878, Note_on_c, 0, 72, 64
2, 92884, Note_on_c, 0, 60, 64
2, 92886, Note_on_c, 0, 61, 64
2, 92886, Note_on_c, 0, 64, 64
2, 92888, Note_on_c, 0, 67, 64
2, 93051, Note_on_c, 0, 64, 0
2, 93051, Note_on_c, 0, 61, 0
2, 93052, Note_on_c, 0, 72, 0
2, 93058, Note_on_c, 0, 67, 0
2, 93080, Note_on_c, 0, 60, 0
2, 93087, Note_on_c, 0, 70, 64
2, 93089, Note_on_c, 0, 58, 64
2, 93112, Note_on_c, 0, 70, 0
2, 93119, Note_on_c, 0, 58, 0
2, 93123, Note_on_c, 0, 61, 64
2, 93123, Note_on_c, 0, 72, 64
2, 93126, Note_on_c, 0, 64, 64
2, 93129, Note_on_c, 0, 67, 64
2, 93130, Note_on_c, 0, 60, 64
2, 93155, Note_on_c, 0, 60, 0
2, 93166, Note_on_c, 0, 67, 0
2, 93171, Note_on_c, 0, 64, 0
2, 93171, Note_on_c, 0, 72, 0
2, 93200, Note_on_c, 0, 61, 0
2, 93320, Note_on_c, 0, 68, 64
2, 93320, Note_on_c, 0, 56, 64
2, 93326, Note_on_c, 0, 63, 64
2, 93326, Note_on_c, 0, 60, 64
2, 93346, Note_on_c, 0, 60, 0
2, 93358, Note_on_c, 0, 63, 0
2, 93362, Note_on_c, 0, 56, 0
2, 93374, Note_on_c, 0, 68, 0
2, 93389, Note_on_c, 0, 55, 64
2, 93390, Note_on_c, 0, 67, 64
2, 93394, Note_on_c, 0, 59, 64
2, 93395, Note_on_c, 0, 56, 64
2, 93404, Note_on_c, 0, 62, 64
2, 93449, Note_on_c, 0, 56, 0
2, 93452, Note_on_c, 0, 67, 0
2, 93457, Note_on_c, 0, 62, 0
2, 93457, Note_on_c, 0, 59, 0
2, 93465, Note_on_c, 0, 55, 0
2, 93573, Note_on_c, 0, 65, 64
2, 93575, Note_on_c, 0, 53, 64
2, 93575, Note_on_c, 0, 60, 64
2, 93577, Note_on_c, 0, 56, 64
2, 93588, Note_on_c, 0, 53, 0
2, 93596, Note_on_c, 0, 60, 0
2, 93598, Note_on_c, 0, 65, 0
2, 93609, Note_on_c, 0, 56, 0
2, 93652, Note_on_c, 0, 64, 64
2, 93657, Note_on_c, 0, 52, 64
2, 93657, Note_on_c, 0, 58, 64
2, 93663, Note_on_c, 0, 55, 64
2, 93703, Note_on_c, 0, 55, 0
2, 93703, Note_on_c, 0, 58, 0
2, 93713, Note_on_c, 0, 64, 0
2, 93718, Note_on_c, 0, 52, 0
2, 93742, Note_on_c, 0, 49, 64
2, 93747, Note_on_c, 0, 61, 64
2, 93786, Note_on_c, 0, 61, 0
2, 93813, Note_on_c, 0, 49, 0
2, 93818, Note_on_c, 0, 55, 64
2, 93821, Note_on_c, 0, 60, 64
2, 93826, Note_on_c, 0, 48, 64
2, 93828, Note_on_c, 0, 55, 0
2, 93840, Note_on_c, 0, 60, 0
2, 93889, Note_on_c, 0, 48, 0
2, 93927, Note_on_c, 0, 36, 64
2, 93934, Note_on_c, 0, 36, 0
2, 93969, Note_on_c, 0, 67, 64
2, 93970, Note_on_c, 0, 75, 64
2, 93971, Note_on_c, 0, 70, 64
2, 93972, Note_on_c, 0, 64, 64
2, 94017, Note_on_c, 0, 75, 0
2, 94027, Note_on_c, 0, 67, 0
2, 94027, Note_on_c, 0, 64, 0
2, 94028, Note_on_c, 0, 70, 0
2, 94090, Note_on_c, 0, 67, 64
2, 94090, Note_on_c, 0, 60, 64
2, 94092, Note_on_c, 0, 72, 64
2, 94092, Note_on_c, 0, 63, 64
2, 94136, Note_on_c, 0, 60, 0
2, 94140, Note_on_c, 0, 63, 0
2, 94143, Note_on_c, 0, 67, 0
2, 94144, Note_on_c, 0, 72, 0
2, 94287, Note_on_c, 0, 72, 64
2, 94288, Note_on_c, 0, 64, 64
2, 94289, Note_on_c, 0, 67, 64
2, 94294, Note_on_c, 0, 60, 64
2, 94301, Note_on_c, 0, 64, 0
2, 94306, Note_on_c, 0, 60, 0
2, 94312, Note_on_c, 0, 72, 0
2, 94313, Note_on_c, 0, 67, 0
2, 94562, Note_on_c, 0, 72, 64
2, 94566, Note_on_c, 0, 64, 64
2, 94568, Note_on_c, 0, 61, 64
2, 94571, Note_on_c, 0, 60, 64
2, 94573, Note_on_c, 0, 67, 64
2, 94599, Note_on_c, 0, 60, 0
2, 94601, Note_on_c, 0, 61, 0
2, 94609, Note_on_c, 0, 64, 0
2, 94612, Note_on_c, 0, 67, 0
2, 94625, Note_on_c, 0, 72, 0
2, 94805, Note_on_c, 0, 63, 64
2, 94806, Note_on_c, 0, 67, 64
2, 94806, Note_on_c, 0, 70, 64
2, 94807, Note_on_c, 0, 64, 64
2, 94808, Note_on_c, 0, 75, 64
2, 94838, Note_on_c, 0, 67, 0
2, 94839, Note_on_c, 0, 63, 0
2, 94840, Note_on_c, 0, 64, 0
2, 94849, Note_on_c, 0, 70, 0
2, 94855, Note_on_c, 0, 75, 0
2, 94922, Note_on_c, 0, 66, 64
2, 94923, Note_on_c, 0, 70, 64
2, 94924, Note_on_c, 0, 78, 64
2, 94929, Note_on_c, 0, 67, 64
2, 94936, Note_on_c, 0, 73, 64
2, 94948, Note_on_c, 0, 73, 0
2, 94957, Note_on_c, 0, 66, 0
2, 94962, Note_on_c, 0, 78, 0
2, 94963, Note_on_c, 0, 70, 0
2, 94968, Note_on_c, 0, 67, 0
2, 95040, Note_on_c, 0, 75, 64
2, 95045, Note_on_c, 0, 70, 64
2, 95046, Note_on_c, 0, 67, 64
2, 95049, Note_on_c, 0, 63, 64
2, 95049, Note_on_c, 0, 64, 64
2, 95072, Note_on_c, 0, 67, 0
2, 95075, Note_on_c, 0, 75, 0
2, 95079, Note_on_c, 0, 70, 0
2, 95084, Note_on_c, 0, 63, 0
2, 95097, Note_on_c, 0, 64, 0
2, 95163, Note_on_c, 0, 72, 64
2, 95163, Note_on_c, 0, 61, 64
2, 95165, Note_on_c, 0, 64, 64
2, 95165, Note_on_c, 0, 60, 64
2, 95172, Note_on_c, 0, 67, 64
2, 95212, Note_on_c, 0, 67, 0
2, 95221, Note_on_c, 0, 64, 0
2, 95227, Note_on_c, 0, 61, 0
2, 95230, Note_on_c, 0, 72, 0
2, 95244, Note_on_c, 0, 60, 0
2, 95399, Note_on_c, 0, 61, 64
2, 95400, Note_on_c, 0, 73, 64
2, 95400, Note_on_c, 0, 62, 64
2, 95404, Note_on_c, 0, 65, 64
2, 95404, Note_on_c, 0, 68, 64
2, 95406, Note_on_c, 0, 64, 64
2, 95416, Note_on_c, 0, 64, 0
2, 95417, Note_on_c, 0, 65, 0
2, 95426, Note_on_c, 0, 68, 0
2, 95443, Note_on_c, 0, 62, 0
2, 95451, Note_on_c, 0, 61, 0
2, 95457, Note_on_c, 0, 73, 0
2, 95481, Note_on_c, 0, 60, 64
2, 95484, Note_on_c, 0, 72, 64
2, 95485, Note_on_c, 0, 62, 64
2, 95486, Note_on_c, 0, 68, 64
2, 95486, Note_on_c, 0, 64, 64
2, 95490, Note_on_c, 0, 70, 64
2, 95501, Note_on_c, 0, 64, 0
2, 95502, Note_on_c, 0, 62, 0
2, 95507, Note_on_c, 0, 72, 0
2, 95511, Note_on_c, 0, 60, 0
2, 95515, Note_on_c, 0, 68, 0
2, 95520, Note_on_c, 0, 70, 0
2, 95564, Note_on_c, 0, 73, 64
2, 95565, Note_on_c, 0, 61, 64
2, 95568, Note_on_c, 0, 62, 64
2, 95595, Note_on_c, 0, 62, 0
2, 95601, Note_on_c, 0, 73, 0
2, 95612, Note_on_c, 0, 61, 0
2, 95641, Note_on_c, 0, 72, 64
2, 95641, Note_on_c, 0, 60, 64
2, 95644, Note_on_c, 0, 61, 64
2, 95644, Note_on_c, 0, 64, 64
2, 95695, Note_on_c, 0, 72, 0
2, 95701, Note_on_c, 0, 61, 0
2, 95706, Note_on_c, 0, 64, 0
2, 95736, Note_on_c, 0, 60, 0
2, 95885, Note_on_c, 0, 71, 64
2, 95893, Note_on_c, 0, 59, 64
2, 95894, Note_on_c, 0, 61, 64
2, 95894, Note_on_c, 0, 64, 64
2, 95929, Note_on_c, 0, 59, 0
2, 95935, Note_on_c, 0, 71, 0
2, 95938, Note_on_c, 0, 64, 0
2, 95950, Note_on_c, 0, 61, 0
2, 95977, Note_on_c, 0, 55, 64
2, 95993, Note_on_c, 0, 55, 0
2, 96032, Note_on_c, 0, 70, 64
2, 96037, Note_on_c, 0, 63, 64
2, 96039, Note_on_c, 0, 67, 64
2, 96039, Note_on_c, 0, 58, 64
2, 96073, Note_on_c, 0, 63, 0
2, 96080, Note_on_c, 0, 67, 0
2, 96082, Note_on_c, 0, 58, 0
2, 96088, Note_on_c, 0, 70, 0
2, 96138, Note_on_c, 0, 70, 64
2, 96141, Note_on_c, 0, 58, 64
2, 96142, Note_on_c, 0, 67, 64
2, 96144, Note_on_c, 0, 63, 64
2, 96207, Note_on_c, 0, 58, 0
2, 96210, Note_on_c, 0, 67, 0
2, 96214, Note_on_c, 0, 63, 0
2, 96215, Note_on_c, 0, 70, 0
2, 96330, Note_on_c, 0, 64, 64
2, 96334, Note_on_c, 0, 70, 64
2, 96335, Note_on_c, 0, 58, 64
2, 96337, Note_on_c, 0, 67, 64
2, 96337, Note_on_c, 0, 60, 64
2, 96357, Note_on_c, 0, 60, 0
2, 96377, Note_on_c, 0, 64, 0
2, 96378, Note_on_c, 0, 70, 0
2, 96378, Note_on_c, 0, 58, 0
2, 96386, Note_on_c, 0, 67, 0
2, 96447, Note_on_c, 0, 55, 64
2, 96454, Note_on_c, 0, 55, 0
2, 96483, Note_on_c, 0, 60, 64
2, 96497, Note_on_c, 0, 60, 0
2, 96723, Note_on_c, 0, 72, 64
2, 96725, Note_on_c, 0, 67, 64
2, 96727, Note_on_c, 0, 62, 64
2, 96728, Note_on_c, 0, 60, 64
2, 96737, Note_on_c, 0, 62, 0
2, 96750, Note_on_c, 0, 60, 0
2, 96754, Note_on_c, 0, 67, 0
2, 96766, Note_on_c, 0, 72, 0
2, 96832, Note_on_c, 0, 71, 64
2, 96835, Note_on_c, 0, 59, 64
2, 96839, Note_on_c, 0, 67, 64
2, 96878, Note_on_c, 0, 67, 0
2, 96895, Note_on_c, 0, 71, 0
2, 96915, Note_on_c, 0, 59, 0
2, 96918, Note_on_c, 0, 72, 64
2, 96918, Note_on_c, 0, 60, 64
2, 96921, Note_on_c, 0, 67, 64
2, 96931, Note_on_c, 0, 67, 0
2, 96933, Note_on_c, 0, 71, 64
2, 96935, Note_on_c, 0, 60, 0
2, 96943, Note_on_c, 0, 72, 0
2, 96946, Note_on_c, 0, 71, 0
2, 97157, Note_on_c, 0, 79, 64
2, 97158, Note_on_c, 0, 84, 64
2, 97158, Note_on_c, 0, 74, 64
2, 97158, Note_on_c, 0, 69, 64
2, 97163, Note_on_c, 0, 76, 64
2, 97173, Note_on_c, 0, 76, 0
2, 97190, Note_on_c, 0, 74, 0
2, 97193, Note_on_c, 0, 79, 0
2, 97204, Note_on_c, 0, 84, 0
2, 97231, Note_on_c, 0, 83, 64
2, 97232, Note_on_c, 0, 69, 0
2, 97233, Note_on_c, 0, 78, 64
2, 97234, Note_on_c, 0, 73, 64
2, 97235, Note_on_c, 0, 68, 64
2, 97270, Note_on_c, 0, 83, 0
2, 97272, Note_on_c, 0, 78, 0
2, 97274, Note_on_c, 0, 73, 0
2, 97274, Note_on_c, 0, 68, 0
2, 97399, Note_on_c, 0, 82, 64
2, 97402, Note_on_c, 0, 77, 64
2, 97403, Note_on_c, 0, 72, 64
2, 97408, Note_on_c, 0, 67, 64
2, 97442, Note_on_c, 0, 77, 0
2, 97447, Note_on_c, 0, 72, 0
2, 97448, Note_on_c, 0, 82, 0
2, 97449, Note_on_c, 0, 67, 0
2, 97467, Note_on_c, 0, 66, 64
2, 97472, Note_on_c, 0, 81, 64
2, 97474, Note_on_c, 0, 76, 64
2, 97475, Note_on_c, 0, 71, 64
2, 97514, Note_on_c, 0, 81, 0
2, 97521, Note_on_c, 0, 66, 0
2, 97521, Note_on_c, 0, 71, 0
2, 97525, Note_on_c, 0, 76, 0
2, 97640, Note_on_c, 0, 75, 64
2, 97641, Note_on_c, 0, 70, 64
2, 97642, Note_on_c, 0, 80, 64
2, 97647, Note_on_c, 0, 65, 64
2, 97676, Note_on_c, 0, 80, 0
2, 97680, Note_on_c, 0, 70, 0
2, 97681, Note_on_c, 0, 75, 0
2, 97681, Note_on_c, 0, 65, 0
2, 97702, Note_on_c, 0, 79, 64
2, 97706, Note_on_c, 0, 74, 64
2, 97706, Note_on_c, 0, 64, 64
2, 97710, Note_on_c, 0, 69, 64
2, 97734, Note_on_c, 0, 79, 0
2, 97739, Note_on_c, 0, 69, 0
2, 97749, Note_on_c, 0, 74, 0
2, 97767, Note_on_c, 0, 64, 0
2, 97805, Note_on_c, 0, 78, 64
2, 97805, Note_on_c, 0, 73, 64
2, 97806, Note_on_c, 0, 68, 64
2, 97807, Note_on_c, 0, 64, 64
2, 97842, Note_on_c, 0, 73, 0
2, 97859, Note_on_c, 0, 78, 0
2, 97859, Note_on_c, 0, 68, 0
2, 97862, Note_on_c, 0, 64, 0
2, 97883, Note_on_c, 0, 65, 64
2, 97885, Note_on_c, 0, 68, 64
2, 97886, Note_on_c, 0, 79, 64
2, 97889, Note_on_c, 0, 72, 64
2, 97925, Note_on_c, 0, 65, 0
2, 97999, Note_on_c, 0, 53, 64
2, 98024, Note_on_c, 0, 79, 0
2, 98038, Note_on_c, 0, 72, 0
2, 98053, Control_c, 0, 64, 127
2, 98097, Note_on_c, 0, 68, 0
2, 98127, Note_on_c, 0, 67, 64
2, 98147, Note_on_c, 0, 67, 0
2, 98167, Note_on_c, 0, 53, 0
2, 98241, Note_on_c, 0, 67, 64
2, 98244, Control_c, 0, 64, 0
2, 98244, Note_on_c, 0, 63, 64
2, 98245, Note_on_c, 0, 70, 64
2, 98249, Note_on_c, 0, 56, 64
2, 98250, Note_on_c, 0, 58, 64
2, 98250, Note_on_c, 0, 60, 64
2, 98520, Note_on_c, 0, 60, 0
2, 98522, Note_on_c, 0, 67, 0
2, 98533, Note_on_c, 0, 58, 0
2, 98533, Note_on_c, 0, 70, 0
2, 98539, Note_on_c, 0, 63, 0
2, 98541, Note_on_c, 0, 56, 0
2, 98649, Note_on_c, 0, 53, 64
2, 98657, Note_on_c, 0, 41, 64
2, 98717, Note_on_c, 0, 41, 0
2, 98717, Note_on_c, 0, 53, 0
2, 98730, Note_on_c, 0, 44, 64
2, 98738, Note_on_c, 0, 56, 64
2, 98753, Note_on_c, 0, 56, 0
2, 98769, Note_on_c, 0, 44, 0
2, 98776, Note_on_c, 0, 58, 64
2, 98779, Note_on_c, 0, 46, 64
2, 98829, Note_on_c, 0, 46, 0
2, 98831, Note_on_c, 0, 58, 0
2, 98859, Note_on_c, 0, 58, 64
2, 98860, Note_on_c, 0, 46, 64
2, 99093, Note_on_c, 0, 46, 0
2, 99094, Note_on_c, 0, 44, 64
2, 99098, Note_on_c, 0, 58, 0
2, 99103, Note_on_c, 0, 56, 64
2, 99116, Note_on_c, 0, 56, 0
2, 99130, Note_on_c, 0, 44, 0
2, 99137, Note_on_c, 0, 46, 64
2, 99137, Note_on_c, 0, 58, 64
2, 99212, Note_on_c, 0, 58, 0
2, 99214, Note_on_c, 0, 46, 0
2, 99214, Note_on_c, 0, 56, 64
2, 99214, Note_on_c, 0, 44, 64
2, 99240, Note_on_c, 0, 44, 0
2, 99242, Note_on_c, 0, 56, 0
2, 99256, Note_on_c, 0, 53, 64
2, 99271, Note_on_c, 0, 41, 64
2, 99344, Note_on_c, 0, 41, 0
2, 99350, Note_on_c, 0, 53, 0
2, 99372, Note_on_c, 0, 51, 64
2, 99377, Note_on_c, 0, 39, 64
2, 99446, Note_on_c, 0, 51, 0
2, 99454, Note_on_c, 0, 39, 0
2, 99454, Note_on_c, 0, 53, 64
2, 99455, Note_on_c, 0, 41, 64
2, 99499, Note_on_c, 0, 53, 0
2, 99516, Note_on_c, 0, 41, 0
2, 99569, Note_on_c, 0, 39, 64
2, 99597, Note_on_c, 0, 39, 0
2, 99604, Note_on_c, 0, 53, 64
2, 99612, Note_on_c, 0, 41, 64
2, 99699, Note_on_c, 0, 53, 0
2, 99737, Note_on_c, 0, 41, 0
2, 99866, Note_on_c, 0, 69, 64
2, 99869, Note_on_c, 0, 64, 64
2, 99869, Note_on_c, 0, 58, 64
2, 100409, Note_on_c, 0, 64, 0
2, 100419, Note_on_c, 0, 58, 0
2, 100420, Note_on_c, 0, 69, 0
2, 100696, Note_on_c, 0, 85, 64
2, 100989, Note_on_c, 0, 85, 0
2, 101000, Note_on_c, 0, 84, 64
2, 101005, Note_on_c, 0, 69, 64
2, 101008, Note_on_c, 0, 64, 64
2, 101016, Note_on_c, 0, 69, 0
2, 101019, Note_on_c, 0, 64, 0
2, 101025, Note_on_c, 0, 84, 0
2, 101231, Note_on_c, 0, 79, 64
2, 101256, Note_on_c, 0, 79, 0
2, 101315, Note_on_c, 0, 82, 64
2, 101369, Note_on_c, 0, 82, 0
2, 101421, Note_on_c, 0, 84, 64
2, 101426, Note_on_c, 0, 69, 64
2, 101436, Note_on_c, 0, 69, 0
2, 101506, Note_on_c, 0, 84, 0
2, 101602, Note_on_c, 0, 63, 64
2, 101602, Note_on_c, 0, 87, 64
2, 101608, Note_on_c, 0, 88, 64
2, 101608, Note_on_c, 0, 64, 64
2, 101626, Note_on_c, 0, 87, 0
2, 101629, Note_on_c, 0, 63, 0
2, 101826, Note_on_c, 0, 79, 64
2, 101829, Note_on_c, 0, 55, 64
2, 101830, Note_on_c, 0, 88, 0
2, 101830, Note_on_c, 0, 64, 0
2, 101948, Note_on_c, 0, 55, 0
2, 101952, Note_on_c, 0, 79, 0
2, 101952, Note_on_c, 0, 82, 64
2, 101961, Note_on_c, 0, 58, 64
2, 102263, Note_on_c, 0, 58, 0
2, 102439, Note_on_c, 0, 63, 64
2, 102443, Note_on_c, 0, 58, 64
2, 102446, Note_on_c, 0, 52, 64
2, 102451, Note_on_c, 0, 63, 0
2, 102455, Note_on_c, 0, 52, 0
2, 102462, Note_on_c, 0, 58, 0
2, 102521, Note_on_c, 0, 52, 64
2, 102522, Note_on_c, 0, 63, 64
2, 102528, Note_on_c, 0, 58, 64
2, 102533, Note_on_c, 0, 52, 0
2, 102542, Note_on_c, 0, 63, 0
2, 102544, Note_on_c, 0, 58, 0
2, 102623, Note_on_c, 0, 55, 64
2, 102623, Note_on_c, 0, 66, 64
2, 102633, Note_on_c, 0, 61, 64
2, 102643, Note_on_c, 0, 61, 0
2, 102646, Note_on_c, 0, 55, 0
2, 102647, Note_on_c, 0, 66, 0
2, 102818, Note_on_c, 0, 69, 64
2, 102824, Note_on_c, 0, 64, 64
2, 102824, Note_on_c, 0, 58, 64
2, 102934, Note_on_c, 0, 82, 0
2, 102971, Note_on_c, 0, 84, 64
2, 103024, Note_on_c, 0, 84, 0
2, 103043, Note_on_c, 0, 85, 64
2, 103065, Note_on_c, 0, 69, 0
2, 103076, Note_on_c, 0, 58, 0
2, 103076, Note_on_c, 0, 64, 0
2, 103076, Note_on_c, 0, 85, 0
2, 103104, Note_on_c, 0, 84, 64
2, 103130, Note_on_c, 0, 84, 0
2, 103170, Note_on_c, 0, 85, 64
2, 103182, Note_on_c, 0, 69, 64
2, 103192, Note_on_c, 0, 69, 0
2, 103214, Note_on_c, 0, 85, 0
2, 103395, Note_on_c, 0, 60, 64
2, 103400, Note_on_c, 0, 84, 64
2, 103433, Note_on_c, 0, 84, 0
2, 103467, Note_on_c, 0, 60, 0
2, 103482, Note_on_c, 0, 83, 64
2, 103483, Note_on_c, 0, 59, 64
2, 103562, Note_on_c, 0, 83, 0
2, 103564, Note_on_c, 0, 59, 0
2, 103576, Note_on_c, 0, 79, 64
2, 103579, Note_on_c, 0, 55, 64
2, 103643, Note_on_c, 0, 79, 0
2, 103649, Note_on_c, 0, 55, 0
2, 103657, Note_on_c, 0, 82, 64
2, 103669, Note_on_c, 0, 58, 64
2, 103841, Note_on_c, 0, 58, 0
2, 104238, Note_on_c, 0, 64, 64
2, 104238, Note_on_c, 0, 61, 64
2, 104241, Note_on_c, 0, 58, 64
2, 104250, Note_on_c, 0, 64, 0
2, 104254, Note_on_c, 0, 61, 0
2, 104256, Note_on_c, 0, 58, 0
2, 104412, Note_on_c, 0, 61, 64
2, 104417, Note_on_c, 0, 64, 64
2, 104417, Note_on_c, 0, 58, 64
2, 104426, Note_on_c, 0, 64, 0
2, 104434, Note_on_c, 0, 61, 0
2, 104436, Note_on_c, 0, 58, 0
2, 104595, Note_on_c, 0, 64, 64
2, 104595, Note_on_c, 0, 61, 64
2, 104595, Note_on_c, 0, 58, 64
2, 104639, Note_on_c, 0, 82, 0
2, 104867, Note_on_c, 0, 64, 0
2, 104870, Note_on_c, 0, 58, 0
2, 104871, Note_on_c, 0, 61, 0
2, 104936, Note_on_c, 0, 69, 64
2, 104937, Note_on_c, 0, 84, 64
2, 104939, Note_on_c, 0, 74, 64
2, 104941, Note_on_c, 0, 79, 64
2, 104959, Note_on_c, 0, 74, 0
2, 104960, Note_on_c, 0, 79, 0
2, 104974, Note_on_c, 0, 84, 0
2, 104990, Note_on_c, 0, 83, 64
2, 104991, Note_on_c, 0, 69, 0
2, 104994, Note_on_c, 0, 68, 64
2, 104995, Note_on_c, 0, 73, 64
2, 104999, Note_on_c, 0, 78, 64
2, 105025, Note_on_c, 0, 83, 0
2, 105031, Note_on_c, 0, 78, 0
2, 105043, Note_on_c, 0, 73, 0
2, 105047, Note_on_c, 0, 68, 0
2, 105058, Note_on_c, 0, 82, 64
2, 105059, Note_on_c, 0, 72, 64
2, 105062, Note_on_c, 0, 77, 64
2, 105069, Note_on_c, 0, 67, 64
2, 105092, Note_on_c, 0, 77, 0
2, 105092, Note_on_c, 0, 82, 0
2, 105092, Note_on_c, 0, 72, 0
2, 105094, Note_on_c, 0, 67, 0
2, 105120, Note_on_c, 0, 81, 64
2, 105122, Note_on_c, 0, 76, 64
2, 105125, Note_on_c, 0, 71, 64
2, 105125, Note_on_c, 0, 66, 64
2, 105139, Note_on_c, 0, 71, 0
2, 105140, Note_on_c, 0, 76, 0
2, 105144, Note_on_c, 0, 66, 0
2, 105145, Note_on_c, 0, 81, 0
2, 105239, Note_on_c, 0, 80, 64
2, 105240, Note_on_c, 0, 70, 64
2, 105241, Note_on_c, 0, 75, 64
2, 105244, Note_on_c, 0, 65, 64
2, 105262, Note_on_c, 0, 65, 0
2, 105267, Note_on_c, 0, 80, 0
2, 105268, Note_on_c, 0, 70, 0
2, 105270, Note_on_c, 0, 75, 0
2, 105368, Note_on_c, 0, 79, 64
2, 105374, Note_on_c, 0, 69, 64
2, 105374, Note_on_c, 0, 64, 64
2, 105378, Note_on_c, 0, 74, 64
2, 105426, Note_on_c, 0, 79, 0
2, 105490, Note_on_c, 0, 64, 0
2, 105554, Note_on_c, 0, 74, 0
2, 105563, Note_on_c, 0, 78, 64
2, 105602, Note_on_c, 0, 69, 0
2, 105610, Note_on_c, 0, 78, 0
2, 105621, Note_on_c, 0, 79, 64
2, 105668, Note_on_c, 0, 79, 0
2, 105685, Note_on_c, 0, 68, 64
2, 105727, Note_on_c, 0, 68, 0
2, 105745, Note_on_c, 0, 67, 64
2, 105910, Note_on_c, 0, 41, 64
2, 105926, Note_on_c, 0, 41, 0
2, 106029, Note_on_c, 0, 67, 0
2, 106040, Note_on_c, 0, 65, 64
2, 106146, Note_on_c, 0, 65, 0
2, 106156, Note_on_c, 0, 64, 64
2, 106200, Note_on_c, 0, 64, 0
2, 106211, Note_on_c, 0, 67, 64
2, 106254, Note_on_c, 0, 67, 0
2, 106280, Note_on_c, 0, 61, 64
2, 106334, Note_on_c, 0, 61, 0
2, 106358, Note_on_c, 0, 60, 64
2, 106421, Note_on_c, 0, 48, 64
2, 106433, Note_on_c, 0, 60, 0
2, 106434, Note_on_c, 0, 48, 0
2, 106444, Note_on_c, 0, 58, 64
2, 106512, Note_on_c, 0, 58, 0
2, 106513, Note_on_c, 0, 56, 64
2, 106574, Note_on_c, 0, 56, 0
2, 106593, Note_on_c, 0, 58, 64
2, 106604, Note_on_c, 0, 56, 64
2, 106622, Note_on_c, 0, 58, 0
2, 106637, Note_on_c, 0, 56, 0
2, 106639, Note_on_c, 0, 55, 64
2, 106660, Note_on_c, 0, 55, 0
2, 106677, Note_on_c, 0, 53, 64
2, 106747, Note_on_c, 0, 53, 0
2, 106755, Note_on_c, 0, 52, 64
2, 106776, Note_on_c, 0, 52, 0
2, 106797, Note_on_c, 0, 55, 64
2, 106866, Note_on_c, 0, 55, 0
2, 106872, Note_on_c, 0, 52, 64
2, 106886, Note_on_c, 0, 52, 0
2, 106915, Note_on_c, 0, 53, 64
2, 106979, Note_on_c, 0, 53, 0
2, 106996, Note_on_c, 0, 41, 64
2, 107021, Note_on_c, 0, 41, 0
2, 107111, Note_on_c, 0, 60, 64
2, 107125, Note_on_c, 0, 60, 0
2, 107174, Note_on_c, 0, 65, 64
2, 107199, Note_on_c, 0, 65, 0
2, 107228, Note_on_c, 0, 68, 64
2, 107248, Note_on_c, 0, 68, 0
2, 107281, Note_on_c, 0, 72, 64
2, 107311, Note_on_c, 0, 72, 0
2, 107337, Note_on_c, 0, 75, 64
2, 107360, Note_on_c, 0, 75, 0
2, 107395, Note_on_c, 0, 77, 64
2, 107420, Note_on_c, 0, 77, 0
2, 107458, Note_on_c, 0, 82, 64
2, 107483, Note_on_c, 0, 82, 0
2, 107519, Note_on_c, 0, 83, 64
2, 107540, Note_on_c, 0, 64, 64
2, 107545, Note_on_c, 0, 69, 64
2, 107547, Note_on_c, 0, 58, 64
2, 107569, Note_on_c, 0, 83, 0
2, 107584, Note_on_c, 0, 84, 64
2, 107603, Note_on_c, 0, 69, 0
2, 107610, Note_on_c, 0, 58, 0
2, 107610, Note_on_c, 0, 64, 0
2, 107619, Note_on_c, 0, 84, 0
2, 107643, Note_on_c, 0, 84, 64
2, 107676, Note_on_c, 0, 84, 0
2, 107704, Note_on_c, 0, 84, 64
2, 107747, Note_on_c, 0, 84, 0
2, 107766, Note_on_c, 0, 83, 64
2, 107812, Note_on_c, 0, 83, 0
2, 107827, Note_on_c, 0, 84, 64
2, 107839, Note_on_c, 0, 83, 64
2, 107853, Note_on_c, 0, 83, 0
2, 107861, Note_on_c, 0, 84, 0
2, 107888, Note_on_c, 0, 84, 64
2, 107922, Note_on_c, 0, 84, 0
2, 107951, Note_on_c, 0, 84, 64
2, 107989, Note_on_c, 0, 84, 0
2, 108012, Note_on_c, 0, 83, 64
2, 108055, Note_on_c, 0, 83, 0
2, 108070, Note_on_c, 0, 84, 64
2, 108102, Note_on_c, 0, 84, 0
2, 108134, Note_on_c, 0, 84, 64
2, 108179, Note_on_c, 0, 84, 0
2, 108256, Note_on_c, 0, 63, 64
2, 108260, Note_on_c, 0, 52, 64
2, 108262, Note_on_c, 0, 58, 64
2, 108299, Note_on_c, 0, 52, 0
2, 108310, Note_on_c, 0, 58, 0
2, 108317, Note_on_c, 0, 63, 0
2, 108375, Note_on_c, 0, 54, 64
2, 108375, Note_on_c, 0, 64, 64
2, 108380, Note_on_c, 0, 59, 64
2, 108431, Note_on_c, 0, 59, 0
2, 108434, Note_on_c, 0, 64, 0
2, 108457, Note_on_c, 0, 54, 0
2, 108504, Note_on_c, 0, 63, 64
2, 108507, Note_on_c, 0, 52, 64
2, 108510, Note_on_c, 0, 58, 64
2, 108701, Note_on_c, 0, 85, 64
2, 108735, Note_on_c, 0, 52, 0
2, 108744, Note_on_c, 0, 85, 0
2, 108748, Note_on_c, 0, 63, 0
2, 108752, Note_on_c, 0, 58, 0
2, 108762, Note_on_c, 0, 84, 64
2, 108801, Note_on_c, 0, 84, 0
2, 108828, Note_on_c, 0, 79, 64
2, 108847, Note_on_c, 0, 79, 0
2, 108923, Note_on_c, 0, 82, 64
2, 108951, Note_on_c, 0, 82, 0
2, 109025, Note_on_c, 0, 84, 64
2, 109099, Note_on_c, 0, 84, 0
2, 109149, Note_on_c, 0, 86, 64
2, 109154, Note_on_c, 0, 88, 64
2, 109155, Note_on_c, 0, 64, 64
2, 109173, Note_on_c, 0, 64, 0
2, 109183, Note_on_c, 0, 86, 0
2, 109187, Note_on_c, 0, 88, 0
2, 109225, Note_on_c, 0, 64, 64
2, 109229, Note_on_c, 0, 87, 64
2, 109232, Note_on_c, 0, 88, 64
2, 109242, Note_on_c, 0, 87, 0
2, 109319, Note_on_c, 0, 88, 0
2, 109320, Note_on_c, 0, 64, 0
2, 109327, Note_on_c, 0, 55, 64
2, 109330, Note_on_c, 0, 79, 64
2, 109507, Note_on_c, 0, 55, 0
2, 109509, Note_on_c, 0, 79, 0
2, 109521, Note_on_c, 0, 82, 64
2, 109525, Note_on_c, 0, 58, 64
2, 109557, Note_on_c, 0, 82, 0
2, 109568, Note_on_c, 0, 58, 0
2, 109601, Note_on_c, 0, 58, 64
2, 109602, Note_on_c, 0, 82, 64
2, 109679, Note_on_c, 0, 58, 0
2, 109709, Note_on_c, 0, 51, 64
2, 109715, Note_on_c, 0, 72, 64
2, 109771, Note_on_c, 0, 82, 0
2, 109805, Note_on_c, 0, 72, 0
2, 109805, Note_on_c, 0, 51, 0
2, 110113, Note_on_c, 0, 63, 64
2, 110114, Note_on_c, 0, 58, 64
2, 110130, Note_on_c, 0, 63, 0
2, 110135, Note_on_c, 0, 58, 0
2, 110286, Note_on_c, 0, 63, 64
2, 110288, Note_on_c, 0, 58, 64
2, 110301, Note_on_c, 0, 52, 64
2, 110319, Note_on_c, 0, 52, 0
2, 110324, Note_on_c, 0, 58, 0
2, 110324, Note_on_c, 0, 63, 0
2, 110475, Note_on_c, 0, 63, 64
2, 110478, Note_on_c, 0, 58, 64
2, 110485, Note_on_c, 0, 63, 0
2, 110488, Note_on_c, 0, 58, 0
2, 110527, Note_on_c, 0, 84, 64
2, 110560, Note_on_c, 0, 84, 0
2, 110643, Note_on_c, 0, 85, 64
2, 110643, Note_on_c, 0, 73, 64
2, 110799, Note_on_c, 0, 85, 0
2, 110809, Note_on_c, 0, 73, 0
2, 110828, Note_on_c, 0, 72, 64
2, 110830, Note_on_c, 0, 84, 64
2, 110840, Note_on_c, 0, 63, 64
2, 110846, Note_on_c, 0, 63, 0
2, 110857, Note_on_c, 0, 84, 0
2, 110859, Note_on_c, 0, 72, 0
2, 110909, Note_on_c, 0, 85, 64
2, 110909, Note_on_c, 0, 73, 64
2, 110969, Note_on_c, 0, 85, 0
2, 110971, Note_on_c, 0, 73, 0
2, 110996, Note_on_c, 0, 84, 64
2, 111000, Note_on_c, 0, 72, 64
2, 111034, Note_on_c, 0, 84, 0
2, 111050, Note_on_c, 0, 72, 0
2, 111080, Note_on_c, 0, 83, 64
2, 111081, Note_on_c, 0, 59, 64
2, 111083, Note_on_c, 0, 71, 64
2, 111184, Note_on_c, 0, 83, 0
2, 111189, Note_on_c, 0, 79, 64
2, 111192, Note_on_c, 0, 59, 0
2, 111197, Note_on_c, 0, 55, 64
2, 111201, Note_on_c, 0, 71, 0
2, 111241, Note_on_c, 0, 55, 0
2, 111248, Note_on_c, 0, 79, 0
2, 111271, Note_on_c, 0, 82, 64
2, 111274, Note_on_c, 0, 70, 64
2, 111278, Note_on_c, 0, 58, 64
2, 111365, Note_on_c, 0, 58, 0
2, 111365, Note_on_c, 0, 82, 0
2, 111376, Note_on_c, 0, 70, 0
2, 111446, Note_on_c, 0, 63, 64
2, 111451, Note_on_c, 0, 52, 64
2, 111451, Note_on_c, 0, 58, 64
2, 111467, Note_on_c, 0, 52, 0
2, 111473, Note_on_c, 0, 63, 0
2, 111479, Note_on_c, 0, 58, 0
2, 111542, Note_on_c, 0, 63, 64
2, 111550, Note_on_c, 0, 58, 64
2, 111551, Note_on_c, 0, 52, 64
2, 111560, Note_on_c, 0, 52, 0
2, 111576, Note_on_c, 0, 58, 0
2, 111576, Note_on_c, 0, 63, 0
2, 111626, Note_on_c, 0, 61, 64
2, 111627, Note_on_c, 0, 66, 64
2, 111628, Note_on_c, 0, 55, 64
2, 111848, Note_on_c, 0, 66, 0
2, 111851, Note_on_c, 0, 55, 0
2, 111857, Note_on_c, 0, 61, 0
2, 111922, Note_on_c, 0, 52, 64
2, 111935, Note_on_c, 0, 52, 0
2, 112025, Note_on_c, 0, 85, 64
2, 112064, Note_on_c, 0, 85, 0
2, 112088, Note_on_c, 0, 88, 64
2, 112115, Note_on_c, 0, 88, 0
2, 112144, Note_on_c, 0, 82, 64
2, 112188, Note_on_c, 0, 82, 0
2, 112202, Note_on_c, 0, 79, 64
2, 112237, Note_on_c, 0, 79, 0
2, 112262, Note_on_c, 0, 76, 64
2, 112276, Note_on_c, 0, 61, 64
2, 112288, Note_on_c, 0, 61, 0
2, 112304, Note_on_c, 0, 76, 0
2, 112319, Note_on_c, 0, 73, 64
2, 112371, Note_on_c, 0, 73, 0
2, 112384, Note_on_c, 0, 70, 64
2, 112424, Note_on_c, 0, 70, 0
2, 112446, Note_on_c, 0, 67, 64
2, 112459, Note_on_c, 0, 67, 0
2, 112571, Note_on_c, 0, 84, 64
2, 112573, Note_on_c, 0, 79, 64
2, 112575, Note_on_c, 0, 69, 64
2, 112575, Note_on_c, 0, 74, 64
2, 112609, Note_on_c, 0, 74, 0
2, 112609, Note_on_c, 0, 79, 0
2, 112623, Note_on_c, 0, 84, 0
2, 112643, Note_on_c, 0, 83, 64
2, 112646, Note_on_c, 0, 73, 64
2, 112649, Note_on_c, 0, 69, 0
2, 112649, Note_on_c, 0, 78, 64
2, 112650, Note_on_c, 0, 68, 64
2, 112674, Note_on_c, 0, 78, 0
2, 112675, Note_on_c, 0, 83, 0
2, 112679, Note_on_c, 0, 68, 0
2, 112694, Note_on_c, 0, 73, 0
2, 112739, Note_on_c, 0, 82, 64
2, 112746, Note_on_c, 0, 72, 64
2, 112746, Note_on_c, 0, 77, 64
2, 112747, Note_on_c, 0, 67, 64
2, 112778, Note_on_c, 0, 77, 0
2, 112782, Note_on_c, 0, 67, 0
2, 112783, Note_on_c, 0, 72, 0
2, 112783, Note_on_c, 0, 82, 0
2, 112801, Note_on_c, 0, 71, 64
2, 112804, Note_on_c, 0, 81, 64
2, 112805, Note_on_c, 0, 66, 64
2, 112806, Note_on_c, 0, 76, 64
2, 112844, Note_on_c, 0, 81, 0
2, 112849, Note_on_c, 0, 71, 0
2, 112856, Note_on_c, 0, 66, 0
2, 112861, Note_on_c, 0, 76, 0
2, 112913, Note_on_c, 0, 80, 64
2, 112916, Note_on_c, 0, 75, 64
2, 112917, Note_on_c, 0, 70, 64
2, 112920, Note_on_c, 0, 65, 64
2, 112969, Note_on_c, 0, 70, 0
2, 112988, Note_on_c, 0, 80, 0
2, 112991, Note_on_c, 0, 79, 64
2, 112992, Note_on_c, 0, 75, 0
2, 112992, Note_on_c, 0, 65, 0
2, 112993, Note_on_c, 0, 64, 64
2, 112993, Note_on_c, 0, 69, 64
2, 112995, Note_on_c, 0, 74, 64
2, 113015, Note_on_c, 0, 69, 0
2, 113015, Note_on_c, 0, 79, 0
2, 113019, Note_on_c, 0, 64, 0
2, 113020, Note_on_c, 0, 74, 0
2, 113101, Note_on_c, 0, 78, 64
2, 113103, Note_on_c, 0, 63, 64
2, 113104, Note_on_c, 0, 68, 64
2, 113106, Note_on_c, 0, 73, 64
2, 113126, Note_on_c, 0, 68, 0
2, 113130, Note_on_c, 0, 63, 0
2, 113138, Note_on_c, 0, 73, 0
2, 113142, Note_on_c, 0, 78, 0
2, 113236, Note_on_c, 0, 53, 64
2, 113246, Note_on_c, 0, 53, 0
2, 113284, Note_on_c, 0, 79, 64
2, 113284, Note_on_c, 0, 72, 64
2, 113286, Note_on_c, 0, 68, 64
2, 113287, Note_on_c, 0, 64, 64
2, 113330, Note_on_c, 0, 64, 0
2, 113333, Note_on_c, 0, 72, 0
2, 113341, Note_on_c, 0, 79, 0
2, 113343, Note_on_c, 0, 68, 0
2, 113406, Note_on_c, 0, 68, 64
2, 113408, Note_on_c, 0, 77, 64
2, 113409, Note_on_c, 0, 62, 64
2, 113412, Note_on_c, 0, 72, 64
2, 113454, Note_on_c, 0, 72, 0
2, 113464, Note_on_c, 0, 77, 0
2, 113471, Note_on_c, 0, 68, 0
2, 113482, Note_on_c, 0, 62, 0
2, 113529, Note_on_c, 0, 76, 64
2, 113529, Note_on_c, 0, 61, 64
2, 113530, Note_on_c, 0, 68, 64
2, 113578, Note_on_c, 0, 68, 0
2, 113595, Note_on_c, 0, 76, 0
2, 113602, Note_on_c, 0, 77, 64
2, 113607, Note_on_c, 0, 61, 0
2, 113608, Note_on_c, 0, 68, 64
2, 113610, Note_on_c, 0, 62, 64
2, 113623, Note_on_c, 0, 68, 0
2, 113630, Note_on_c, 0, 77, 0
2, 113631, Note_on_c, 0, 62, 0
2, 113712, Note_on_c, 0, 68, 64
2, 113713, Note_on_c, 0, 79, 64
2, 113715, Note_on_c, 0, 72, 64
2, 113716, Note_on_c, 0, 64, 64
2, 113733, Note_on_c, 0, 64, 0
2, 113741, Note_on_c, 0, 72, 0
2, 113741, Note_on_c, 0, 79, 0
2, 113745, Note_on_c, 0, 68, 0
2, 113830, Note_on_c, 0, 77, 64
2, 113833, Note_on_c, 0, 62, 64
2, 113835, Note_on_c, 0, 68, 64
2, 113838, Note_on_c, 0, 72, 64
2, 113870, Note_on_c, 0, 72, 0
2, 113870, Note_on_c, 0, 62, 0
2, 113872, Note_on_c, 0, 68, 0
2, 113881, Note_on_c, 0, 77, 0
2, 113947, Note_on_c, 0, 76, 64
2, 113953, Note_on_c, 0, 61, 64
2, 113982, Note_on_c, 0, 76, 0
2, 113991, Note_on_c, 0, 61, 0
2, 114007, Note_on_c, 0, 62, 64
2, 114009, Note_on_c, 0, 77, 64
2, 114009, Note_on_c, 0, 68, 64
2, 114012, Note_on_c, 0, 72, 64
2, 114164, Note_on_c, 0, 77, 0
2, 114177, Note_on_c, 0, 72, 0
2, 114198, Note_on_c, 0, 68, 0
2, 114212, Note_on_c, 0, 61, 64
2, 114213, Note_on_c, 0, 62, 0
2, 114241, Note_on_c, 0, 61, 0
2, 114244, Note_on_c, 0, 79, 64
2, 114245, Note_on_c, 0, 68, 64
2, 114248, Note_on_c, 0, 72, 64
2, 114251, Note_on_c, 0, 64, 64
2, 114281, Note_on_c, 0, 64, 0
2, 114282, Note_on_c, 0, 79, 0
2, 114288, Note_on_c, 0, 68, 0
2, 114292, Note_on_c, 0, 72, 0
2, 114363, Note_on_c, 0, 77, 64
2, 114366, Note_on_c, 0, 62, 64
2, 114366, Note_on_c, 0, 68, 64
2, 114369, Note_on_c, 0, 72, 64
2, 114411, Note_on_c, 0, 62, 0
2, 114412, Note_on_c, 0, 77, 0
2, 114419, Note_on_c, 0, 68, 0
2, 114419, Note_on_c, 0, 72, 0
2, 114487, Note_on_c, 0, 61, 64
2, 114487, Note_on_c, 0, 76, 64
2, 114488, Note_on_c, 0, 68, 64
2, 114494, Note_on_c, 0, 72, 64
2, 114541, Note_on_c, 0, 68, 0
2, 114548, Note_on_c, 0, 72, 0
2, 114555, Note_on_c, 0, 76, 0
2, 114563, Note_on_c, 0, 61, 0
2, 114567, Note_on_c, 0, 77, 64
2, 114569, Note_on_c, 0, 68, 64
2, 114571, Note_on_c, 0, 72, 64
2, 114573, Note_on_c, 0, 62, 64
2, 114677, Note_on_c, 0, 68, 0
2, 114683, Note_on_c, 0, 72, 0
2, 114691, Note_on_c, 0, 77, 0
2, 114707, Note_on_c, 0, 62, 0
2, 114957, Note_on_c, 0, 72, 64
2, 114962, Note_on_c, 0, 73, 64
2, 114975, Note_on_c, 0, 72, 0
2, 114977, Note_on_c, 0, 73, 0
2, 114979, Note_on_c, 0, 74, 64
2, 115002, Note_on_c, 0, 74, 0
2, 115044, Note_on_c, 0, 77, 64
2, 115062, Note_on_c, 0, 77, 0
2, 115079, Note_on_c, 0, 79, 64
2, 115146, Note_on_c, 0, 79, 0
2, 115164, Note_on_c, 0, 74, 64
2, 115178, Note_on_c, 0, 74, 0
2, 115200, Note_on_c, 0, 62, 64
2, 115201, Note_on_c, 0, 63, 64
2, 115201, Note_on_c, 0, 77, 64
2, 115201, Note_on_c, 0, 67, 64
2, 115212, Note_on_c, 0, 57, 64
2, 115261, Note_on_c, 0, 77, 0
2, 115274, Note_on_c, 0, 79, 64
2, 115289, Note_on_c, 0, 77, 64
2, 115290, Note_on_c, 0, 57, 0
2, 115301, Note_on_c, 0, 79, 0
2, 115302, Note_on_c, 0, 62, 0
2, 115305, Note_on_c, 0, 63, 0
2, 115308, Note_on_c, 0, 67, 0
2, 115313, Note_on_c, 0, 77, 0
2, 115316, Note_on_c, 0, 74, 64
2, 115325, Note_on_c, 0, 74, 0
2, 115345, Note_on_c, 0, 77, 64
2, 115423, Note_on_c, 0, 77, 0
2, 115564, Note_on_c, 0, 68, 64
2, 115571, Note_on_c, 0, 62, 64
2, 115571, Note_on_c, 0, 63, 64
2, 115589, Note_on_c, 0, 59, 64
2, 115599, Note_on_c, 0, 59, 0
2, 115631, Note_on_c, 0, 62, 0
2, 115638, Note_on_c, 0, 68, 0
2, 115650, Note_on_c, 0, 67, 64
2, 115654, Note_on_c, 0, 62, 64
2, 115663, Note_on_c, 0, 57, 64
2, 115926, Note_on_c, 0, 74, 64
2, 115938, Note_on_c, 0, 67, 0
2, 115944, Note_on_c, 0, 63, 0
2, 115951, Note_on_c, 0, 62, 0
2, 115980, Note_on_c, 0, 74, 0
2, 115989, Note_on_c, 0, 57, 0
2, 116041, Note_on_c, 0, 72, 64
2, 116120, Note_on_c, 0, 72, 0
2, 116131, Note_on_c, 0, 65, 64
2, 116139, Note_on_c, 0, 65, 0
2, 116165, Note_on_c, 0, 68, 64
2, 116397, Note_on_c, 0, 68, 0
2, 116404, Note_on_c, 0, 65, 64
2, 116478, Note_on_c, 0, 65, 0
2, 116490, Note_on_c, 0, 67, 64
2, 116513, Note_on_c, 0, 67, 0
2, 116521, Note_on_c, 0, 62, 64
2, 116624, Note_on_c, 0, 62, 0
2, 116638, Note_on_c, 0, 65, 64
2, 116698, Note_on_c, 0, 65, 0
2, 116724, Note_on_c, 0, 65, 64
2, 116734, Note_on_c, 0, 65, 0
2, 116998, Note_on_c, 0, 68, 64
2, 117005, Note_on_c, 0, 63, 64
2, 117006, Note_on_c, 0, 57, 64
2, 117037, Note_on_c, 0, 57, 0
2, 117075, Note_on_c, 0, 68, 0
2, 117080, Note_on_c, 0, 63, 0
2, 117089, Note_on_c, 0, 67, 64
2, 117092, Note_on_c, 0, 56, 64
2, 117094, Note_on_c, 0, 62, 64
2, 117364, Note_on_c, 0, 82, 64
2, 117383, Note_on_c, 0, 82, 0
2, 117385, Note_on_c, 0, 83, 64
2, 117389, Note_on_c, 0, 67, 0
2, 117409, Note_on_c, 0, 82, 64
2, 117413, Note_on_c, 0, 56, 0
2, 117418, Note_on_c, 0, 83, 0
2, 117429, Note_on_c, 0, 62, 0
2, 117439, Note_on_c, 0, 82, 0
2, 117444, Note_on_c, 0, 80, 64
2, 117462, Note_on_c, 0, 80, 0
2, 117464, Note_on_c, 0, 77, 64
2, 117482, Note_on_c, 0, 77, 0
2, 117493, Note_on_c, 0, 82, 64
2, 117574, Note_on_c, 0, 82, 0
2, 117606, Note_on_c, 0, 80, 64
2, 117684, Note_on_c, 0, 80, 0
2, 117692, Note_on_c, 0, 77, 64
2, 117701, Note_on_c, 0, 67, 64
2, 117710, Note_on_c, 0, 77, 0
2, 117712, Note_on_c, 0, 67, 0
2, 117852, Note_on_c, 0, 73, 64
2, 117857, Note_on_c, 0, 74, 64
2, 117878, Note_on_c, 0, 73, 0
2, 117910, Note_on_c, 0, 74, 0
2, 118059, Note_on_c, 0, 67, 64
2, 118067, Note_on_c, 0, 62, 64
2, 118069, Note_on_c, 0, 67, 0
2, 118080, Note_on_c, 0, 62, 0
2, 118087, Note_on_c, 0, 70, 64
2, 118095, Note_on_c, 0, 71, 64
2, 118106, Note_on_c, 0, 70, 0
2, 118171, Note_on_c, 0, 71, 0
2, 118186, Note_on_c, 0, 62, 64
2, 118196, Note_on_c, 0, 62, 0
2, 118206, Note_on_c, 0, 68, 64
2, 118274, Note_on_c, 0, 68, 0
2, 118283, Note_on_c, 0, 65, 64
2, 118298, Note_on_c, 0, 65, 0
2, 118332, Note_on_c, 0, 62, 64
2, 118388, Note_on_c, 0, 62, 0
2, 118409, Note_on_c, 0, 62, 64
2, 118430, Note_on_c, 0, 62, 0
2, 118564, Note_on_c, 0, 59, 64
2, 118582, Note_on_c, 0, 59, 0
2, 118763, Note_on_c, 0, 62, 64
2, 118769, Note_on_c, 0, 62, 0
2, 118804, Note_on_c, 0, 65, 64
2, 118855, Note_on_c, 0, 65, 0
2, 118880, Note_on_c, 0, 68, 64
2, 118902, Note_on_c, 0, 68, 0
2, 118925, Note_on_c, 0, 71, 64
2, 118982, Note_on_c, 0, 71, 0
2, 119002, Note_on_c, 0, 66, 64
2, 119002, Note_on_c, 0, 74, 64
2, 119004, Note_on_c, 0, 61, 64
2, 119018, Note_on_c, 0, 66, 0
2, 119026, Note_on_c, 0, 61, 0
2, 119039, Note_on_c, 0, 74, 0
2, 119056, Note_on_c, 0, 71, 64
2, 119120, Note_on_c, 0, 72, 64
2, 119122, Note_on_c, 0, 71, 0
2, 119135, Note_on_c, 0, 72, 0
2, 119176, Note_on_c, 0, 73, 64
2, 119231, Note_on_c, 0, 73, 0
2, 119237, Note_on_c, 0, 75, 64
2, 119242, Note_on_c, 0, 66, 64
2, 119246, Note_on_c, 0, 61, 64
2, 119255, Note_on_c, 0, 66, 0
2, 119262, Note_on_c, 0, 61, 0
2, 119274, Note_on_c, 0, 75, 0
2, 119296, Note_on_c, 0, 76, 64
2, 119355, Note_on_c, 0, 76, 0
2, 119357, Note_on_c, 0, 51, 64
2, 119357, Note_on_c, 0, 39, 64
2, 119361, Note_on_c, 0, 78, 64
2, 119374, Note_on_c, 0, 39, 0
2, 119375, Note_on_c, 0, 51, 0
2, 119397, Note_on_c, 0, 78, 0
2, 119417, Note_on_c, 0, 79, 64
2, 119458, Note_on_c, 0, 79, 0
2, 119642, Note_on_c, 0, 66, 64
2, 119642, Note_on_c, 0, 61, 64
2, 119647, Note_on_c, 0, 55, 64
2, 119772, Note_on_c, 0, 93, 64
2, 119835, Note_on_c, 0, 93, 0
2, 119850, Note_on_c, 0, 96, 64
2, 119864, Note_on_c, 0, 55, 0
2, 119881, Note_on_c, 0, 61, 0
2, 119899, Note_on_c, 0, 66, 0
2, 119909, Note_on_c, 0, 96, 0
2, 119912, Note_on_c, 0, 94, 64
2, 119966, Note_on_c, 0, 94, 0
2, 119972, Note_on_c, 0, 90, 64
2, 120019, Note_on_c, 0, 90, 0
2, 120026, Note_on_c, 0, 88, 64
2, 120084, Note_on_c, 0, 93, 64
2, 120087, Note_on_c, 0, 66, 64
2, 120092, Note_on_c, 0, 61, 64
2, 120094, Note_on_c, 0, 88, 0
2, 120111, Note_on_c, 0, 61, 0
2, 120112, Note_on_c, 0, 66, 0
2, 120132, Note_on_c, 0, 93, 0
2, 120137, Note_on_c, 0, 91, 64
2, 120203, Note_on_c, 0, 87, 64
2, 120222, Note_on_c, 0, 91, 0
2, 120243, Note_on_c, 0, 87, 0
2, 120249, Note_on_c, 0, 85, 64
2, 120297, Note_on_c, 0, 85, 0
2, 120318, Note_on_c, 0, 66, 64
2, 120323, Note_on_c, 0, 84, 64
2, 120323, Note_on_c, 0, 61, 64
2, 120327, Note_on_c, 0, 55, 64
2, 120341, Note_on_c, 0, 55, 0
2, 120342, Note_on_c, 0, 66, 0
2, 120351, Note_on_c, 0, 61, 0
2, 120352, Note_on_c, 0, 84, 0
2, 120365, Note_on_c, 0, 90, 64
2, 120420, Note_on_c, 0, 90, 0
2, 120437, Note_on_c, 0, 87, 64
2, 120462, Note_on_c, 0, 87, 0
2, 120475, Note_on_c, 0, 88, 64
2, 120540, Note_on_c, 0, 88, 0
2, 120549, Note_on_c, 0, 85, 64
2, 120552, Note_on_c, 0, 66, 64
2, 120558, Note_on_c, 0, 61, 64
2, 120567, Note_on_c, 0, 61, 0
2, 120573, Note_on_c, 0, 66, 0
2, 120584, Note_on_c, 0, 85, 0
2, 120606, Note_on_c, 0, 84, 64
2, 120652, Note_on_c, 0, 84, 0
2, 120714, Note_on_c, 0, 82, 64
2, 120764, Note_on_c, 0, 82, 0
2, 120790, Note_on_c, 0, 80, 64
2, 120791, Note_on_c, 0, 82, 64
2, 120791, Note_on_c, 0, 66, 64
2, 120798, Note_on_c, 0, 61, 64
2, 120808, Note_on_c, 0, 66, 0
2, 120825, Note_on_c, 0, 80, 0
2, 120825, Note_on_c, 0, 82, 0
2, 120826, Note_on_c, 0, 61, 0
2, 120848, Note_on_c, 0, 79, 64
2, 120850, Note_on_c, 0, 82, 64
2, 120898, Note_on_c, 0, 79, 0
2, 120914, Note_on_c, 0, 77, 64
2, 120917, Note_on_c, 0, 60, 64
2, 120917, Note_on_c, 0, 63, 64
2, 120927, Note_on_c, 0, 63, 0
2, 120927, Note_on_c, 0, 82, 0
2, 120929, Note_on_c, 0, 60, 0
2, 120948, Note_on_c, 0, 77, 0
2, 120973, Note_on_c, 0, 75, 64
2, 121028, Note_on_c, 0, 75, 0
2, 121034, Note_on_c, 0, 72, 64
2, 121057, Note_on_c, 0, 72, 0
2, 121079, Note_on_c, 0, 68, 64
2, 121166, Note_on_c, 0, 68, 0
2, 121183, Note_on_c, 0, 58, 64
2, 121195, Note_on_c, 0, 70, 64
2, 121226, Note_on_c, 0, 58, 0
2, 121270, Note_on_c, 0, 68, 64
2, 121287, Note_on_c, 0, 70, 0
2, 121299, Note_on_c, 0, 68, 0
2, 121405, Note_on_c, 0, 66, 64
2, 121441, Note_on_c, 0, 66, 0
2, 121689, Note_on_c, 0, 68, 64
2, 121729, Note_on_c, 0, 68, 0
2, 121800, Note_on_c, 0, 67, 64
2, 121875, Note_on_c, 0, 67, 0
2, 121884, Note_on_c, 0, 65, 64
2, 121886, Note_on_c, 0, 43, 64
2, 121901, Note_on_c, 0, 43, 0
2, 121930, Note_on_c, 0, 65, 0
2, 121946, Note_on_c, 0, 61, 64
2, 121993, Note_on_c, 0, 61, 0
2, 122034, Note_on_c, 0, 60, 64
2, 122104, Note_on_c, 0, 60, 0
2, 122122, Note_on_c, 0, 58, 64
2, 122131, Note_on_c, 0, 43, 64
2, 122143, Note_on_c, 0, 43, 0
2, 122164, Note_on_c, 0, 58, 0
2, 122197, Note_on_c, 0, 53, 64
2, 122202, Note_on_c, 0, 58, 64
2, 122259, Note_on_c, 0, 53, 0
2, 122277, Note_on_c, 0, 58, 0
2, 122280, Note_on_c, 0, 50, 64
2, 122341, Note_on_c, 0, 50, 0
2, 122358, Note_on_c, 0, 52, 64
2, 122468, Note_on_c, 0, 24, 64
2, 122479, Note_on_c, 0, 52, 0
2, 122489, Note_on_c, 0, 24, 0
2, 122522, Note_on_c, 0, 55, 64
2, 122558, Note_on_c, 0, 55, 0
2, 122594, Note_on_c, 0, 58, 64
2, 122627, Note_on_c, 0, 58, 0
2, 122660, Note_on_c, 0, 60, 64
2, 122699, Note_on_c, 0, 60, 0
2, 122714, Note_on_c, 0, 61, 64
2, 122755, Note_on_c, 0, 61, 0
2, 122772, Note_on_c, 0, 63, 64
2, 122810, Note_on_c, 0, 63, 0
2, 122831, Note_on_c, 0, 64, 64
2, 122877, Note_on_c, 0, 64, 0
2, 122893, Note_on_c, 0, 72, 64
2, 122956, Note_on_c, 0, 72, 0
2, 122997, Note_on_c, 0, 72, 64
2, 123048, Note_on_c, 0, 72, 0
2, 123075, Note_on_c, 0, 72, 64
2, 123081, Note_on_c, 0, 63, 64
2, 123084, Note_on_c, 0, 60, 64
2, 123114, Note_on_c, 0, 60, 0
2, 123117, Note_on_c, 0, 72, 0
2, 123130, Note_on_c, 0, 63, 0
2, 123159, Note_on_c, 0, 63, 64
2, 123162, Note_on_c, 0, 72, 64
2, 123167, Note_on_c, 0, 60, 64
2, 123190, Note_on_c, 0, 60, 0
2, 123199, Note_on_c, 0, 72, 0
2, 123221, Note_on_c, 0, 63, 0
2, 123248, Note_on_c, 0, 72, 64
2, 123251, Note_on_c, 0, 64, 64
2, 123254, Note_on_c, 0, 60, 64
2, 123302, Note_on_c, 0, 72, 0
2, 123303, Note_on_c, 0, 64, 0
2, 123306, Note_on_c, 0, 60, 0
2, 123604, Note_on_c, 0, 61, 64
2, 123604, Note_on_c, 0, 64, 64
2, 123609, Note_on_c, 0, 58, 64
2, 123643, Note_on_c, 0, 64, 0
2, 123649, Note_on_c, 0, 61, 0
2, 123657, Note_on_c, 0, 58, 0
2, 123682, Note_on_c, 0, 64, 64
2, 123682, Note_on_c, 0, 61, 64
2, 123686, Note_on_c, 0, 58, 64
2, 123703, Note_on_c, 0, 64, 0
2, 123706, Note_on_c, 0, 61, 0
2, 123718, Note_on_c, 0, 58, 0
2, 123911, Note_on_c, 0, 58, 64
2, 123913, Note_on_c, 0, 48, 64
2, 123924, Note_on_c, 0, 48, 0
2, 123934, Note_on_c, 0, 58, 0
2, 124029, Note_on_c, 0, 73, 64
2, 124029, Note_on_c, 0, 85, 64
2, 124080, Note_on_c, 0, 85, 0
2, 124080, Note_on_c, 0, 73, 0
2, 124109, Note_on_c, 0, 84, 64
2, 124114, Note_on_c, 0, 72, 64
2, 124134, Note_on_c, 0, 84, 0
2, 124146, Note_on_c, 0, 72, 0
2, 124196, Note_on_c, 0, 67, 64
2, 124198, Note_on_c, 0, 55, 64
2, 124204, Note_on_c, 0, 67, 0
2, 124209, Note_on_c, 0, 55, 0
2, 124281, Note_on_c, 0, 70, 64
2, 124281, Note_on_c, 0, 58, 64
2, 124282, Note_on_c, 0, 82, 64
2, 124300, Note_on_c, 0, 70, 0
2, 124302, Note_on_c, 0, 82, 0
2, 124309, Note_on_c, 0, 58, 0
2, 124389, Note_on_c, 0, 72, 64
2, 124390, Note_on_c, 0, 84, 64
2, 124392, Note_on_c, 0, 60, 64
2, 124402, Note_on_c, 0, 60, 0
2, 124408, Note_on_c, 0, 72, 0
2, 124416, Note_on_c, 0, 84, 0
2, 124504, Note_on_c, 0, 87, 64
2, 124504, Note_on_c, 0, 75, 64
2, 124507, Note_on_c, 0, 63, 64
2, 124512, Note_on_c, 0, 64, 64
2, 124518, Note_on_c, 0, 63, 0
2, 124544, Note_on_c, 0, 88, 64
2, 124562, Note_on_c, 0, 87, 0
2, 124562, Note_on_c, 0, 75, 0
2, 124567, Note_on_c, 0, 76, 64
2, 124637, Note_on_c, 0, 88, 0
2, 124649, Note_on_c, 0, 76, 0
2, 124649, Note_on_c, 0, 75, 64
2, 124654, Note_on_c, 0, 75, 0
2, 124687, Note_on_c, 0, 58, 64
2, 124688, Note_on_c, 0, 70, 64
2, 124688, Note_on_c, 0, 82, 64
2, 124692, Note_on_c, 0, 64, 0
2, 125398, Note_on_c, 0, 58, 0
2, 125523, Note_on_c, 0, 63, 64
2, 125529, Note_on_c, 0, 58, 64
2, 125532, Note_on_c, 0, 52, 64
2, 125543, Note_on_c, 0, 52, 0
2, 125544, Note_on_c, 0, 63, 0
2, 125547, Note_on_c, 0, 58, 0
2, 125604, Note_on_c, 0, 63, 64
2, 125607, Note_on_c, 0, 58, 64
2, 125625, Note_on_c, 0, 63, 0
2, 125631, Note_on_c, 0, 58, 0
2, 125707, Note_on_c, 0, 63, 64
2, 125711, Note_on_c, 0, 58, 64
2, 125713, Note_on_c, 0, 52, 64
2, 125841, Note_on_c, 0, 70, 0
2, 125851, Note_on_c, 0, 82, 0
2, 125859, Note_on_c, 0, 63, 0
2, 125864, Note_on_c, 0, 58, 0
2, 125936, Note_on_c, 0, 60, 64
2, 125936, Note_on_c, 0, 84, 64
2, 125939, Note_on_c, 0, 72, 64
2, 125958, Note_on_c, 0, 72, 0
2, 125958, Note_on_c, 0, 84, 0
2, 125967, Note_on_c, 0, 60, 0
2, 125993, Note_on_c, 0, 61, 64
2, 125997, Note_on_c, 0, 52, 0
2, 125997, Note_on_c, 0, 73, 64
2, 125999, Note_on_c, 0, 85, 64
2, 126007, Note_on_c, 0, 61, 0
2, 126010, Note_on_c, 0, 85, 0
2, 126012, Note_on_c, 0, 73, 0
2, 126057, Note_on_c, 0, 61, 64
2, 126061, Note_on_c, 0, 73, 64
2, 126061, Note_on_c, 0, 85, 64
2, 126087, Note_on_c, 0, 73, 0
2, 126089, Note_on_c, 0, 61, 0
2, 126090, Note_on_c, 0, 85, 0
2, 126113, Note_on_c, 0, 60, 64
2, 126118, Note_on_c, 0, 84, 64
2, 126122, Note_on_c, 0, 72, 64
2, 126157, Note_on_c, 0, 72, 0
2, 126160, Note_on_c, 0, 84, 0
2, 126167, Note_on_c, 0, 60, 0
2, 126232, Note_on_c, 0, 61, 64
2, 126235, Note_on_c, 0, 73, 64
2, 126235, Note_on_c, 0, 85, 64
2, 126271, Note_on_c, 0, 85, 0
2, 126276, Note_on_c, 0, 61, 0
2, 126279, Note_on_c, 0, 73, 0
2, 126352, Note_on_c, 0, 84, 64
2, 126354, Note_on_c, 0, 72, 64
2, 126356, Note_on_c, 0, 60, 64
2, 126389, Note_on_c, 0, 84, 0
2, 126406, Note_on_c, 0, 72, 0
2, 126413, Note_on_c, 0, 60, 0
2, 126477, Note_on_c, 0, 83, 64
2, 126479, Note_on_c, 0, 71, 64
2, 126481, Note_on_c, 0, 59, 64
2, 126513, Note_on_c, 0, 59, 0
2, 126513, Note_on_c, 0, 83, 0
2, 126521, Note_on_c, 0, 71, 0
2, 126542, Note_on_c, 0, 59, 64
2, 126546, Note_on_c, 0, 83, 64
2, 126552, Note_on_c, 0, 71, 64
2, 126564, Note_on_c, 0, 71, 0
2, 126570, Note_on_c, 0, 83, 0
2, 126587, Note_on_c, 0, 59, 0
2, 126603, Note_on_c, 0, 67, 64
2, 126604, Note_on_c, 0, 55, 64
2, 126628, Note_on_c, 0, 79, 64
2, 126644, Note_on_c, 0, 67, 0
2, 126647, Note_on_c, 0, 79, 0
2, 126700, Note_on_c, 0, 55, 0
2, 126713, Note_on_c, 0, 70, 64
2, 126715, Note_on_c, 0, 82, 64
2, 126721, Note_on_c, 0, 58, 64
2, 126872, Note_on_c, 0, 58, 0
2, 126913, Note_on_c, 0, 58, 64
2, 126928, Note_on_c, 0, 58, 0
2, 127193, Note_on_c, 0, 64, 64
2, 127194, Note_on_c, 0, 61, 64
2, 127213, Note_on_c, 0, 64, 0
2, 127219, Note_on_c, 0, 61, 0
2, 127283, Note_on_c, 0, 64, 64
2, 127283, Note_on_c, 0, 61, 64
2, 127284, Note_on_c, 0, 60, 64
2, 127300, Note_on_c, 0, 64, 0
2, 127302, Note_on_c, 0, 60, 0
2, 127310, Note_on_c, 0, 61, 0
2, 127400, Note_on_c, 0, 61, 64
2, 127404, Note_on_c, 0, 58, 64
2, 127420, Note_on_c, 0, 61, 0
2, 127423, Note_on_c, 0, 58, 0
2, 127512, Note_on_c, 0, 61, 64
2, 127518, Note_on_c, 0, 58, 64
2, 127532, Note_on_c, 0, 61, 0
2, 127539, Note_on_c, 0, 58, 0
2, 127638, Note_on_c, 0, 52, 64
2, 127665, Note_on_c, 0, 52, 0
2, 127699, Note_on_c, 0, 52, 64
2, 127703, Note_on_c, 0, 70, 0
2, 127720, Note_on_c, 0, 52, 0
2, 127729, Note_on_c, 0, 82, 0
2, 127874, Note_on_c, 0, 84, 64
2, 127876, Note_on_c, 0, 74, 64
2, 127877, Note_on_c, 0, 79, 64
2, 127877, Note_on_c, 0, 69, 64
2, 127897, Note_on_c, 0, 74, 0
2, 127902, Note_on_c, 0, 79, 0
2, 127910, Note_on_c, 0, 84, 0
2, 127918, Note_on_c, 0, 69, 0
2, 127931, Note_on_c, 0, 83, 64
2, 127936, Note_on_c, 0, 73, 64
2, 127938, Note_on_c, 0, 68, 64
2, 127938, Note_on_c, 0, 78, 64
2, 127956, Note_on_c, 0, 78, 0
2, 127959, Note_on_c, 0, 83, 0
2, 127962, Note_on_c, 0, 68, 0
2, 127974, Note_on_c, 0, 73, 0
2, 128040, Note_on_c, 0, 82, 64
2, 128046, Note_on_c, 0, 72, 64
2, 128047, Note_on_c, 0, 67, 64
2, 128049, Note_on_c, 0, 77, 64
2, 128068, Note_on_c, 0, 67, 0
2, 128071, Note_on_c, 0, 77, 0
2, 128073, Note_on_c, 0, 72, 0
2, 128074, Note_on_c, 0, 82, 0
2, 128158, Note_on_c, 0, 81, 64
2, 128160, Note_on_c, 0, 71, 64
2, 128160, Note_on_c, 0, 66, 64
2, 128162, Note_on_c, 0, 76, 64
2, 128182, Note_on_c, 0, 81, 0
2, 128183, Note_on_c, 0, 66, 0
2, 128185, Note_on_c, 0, 71, 0
2, 128188, Note_on_c, 0, 76, 0
2, 128279, Note_on_c, 0, 70, 64
2, 128280, Note_on_c, 0, 80, 64
2, 128282, Note_on_c, 0, 75, 64
2, 128284, Note_on_c, 0, 65, 64
2, 128299, Note_on_c, 0, 65, 0
2, 128317, Note_on_c, 0, 75, 0
2, 128318, Note_on_c, 0, 80, 0
2, 128318, Note_on_c, 0, 70, 0
2, 128403, Note_on_c, 0, 79, 64
2, 128409, Note_on_c, 0, 64, 64
2, 128409, Note_on_c, 0, 69, 64
2, 128412, Note_on_c, 0, 74, 64
2, 128420, Note_on_c, 0, 79, 0
2, 128426, Note_on_c, 0, 69, 0
2, 128430, Note_on_c, 0, 64, 0
2, 128433, Note_on_c, 0, 74, 0
2, 128517, Note_on_c, 0, 78, 64
2, 128519, Note_on_c, 0, 68, 64
2, 128522, Note_on_c, 0, 73, 64
2, 128545, Note_on_c, 0, 68, 0
2, 128550, Note_on_c, 0, 78, 0
2, 128555, Note_on_c, 0, 73, 0
2, 128636, Note_on_c, 0, 41, 64
2, 128763, Note_on_c, 0, 63, 64
2, 128767, Note_on_c, 0, 67, 64
2, 128767, Note_on_c, 0, 70, 64
2, 128769, Note_on_c, 0, 60, 64
2, 128773, Note_on_c, 0, 56, 64
2, 128777, Note_on_c, 0, 67, 0
2, 128780, Note_on_c, 0, 60, 0
2, 128781, Note_on_c, 0, 63, 0
2, 128786, Note_on_c, 0, 56, 0
2, 128788, Note_on_c, 0, 70, 0
2, 128828, Note_on_c, 0, 41, 0
2, 128887, Note_on_c, 0, 63, 64
2, 128888, Note_on_c, 0, 67, 64
2, 128889, Note_on_c, 0, 56, 64
2, 128889, Note_on_c, 0, 70, 64
2, 128889, Note_on_c, 0, 60, 64
2, 128893, Note_on_c, 0, 58, 64
2, 129020, Note_on_c, 0, 60, 0
2, 129022, Note_on_c, 0, 67, 0
2, 129026, Note_on_c, 0, 63, 0
2, 129032, Note_on_c, 0, 70, 0
2, 129032, Note_on_c, 0, 58, 0
2, 129037, Note_on_c, 0, 56, 0
2, 129069, Note_on_c, 0, 63, 64
2, 129072, Note_on_c, 0, 70, 64
2, 129073, Note_on_c, 0, 67, 64
2, 129077, Note_on_c, 0, 60, 64
2, 129077, Note_on_c, 0, 56, 64
2, 129080, Note_on_c, 0, 58, 64
2, 129228, Control_c, 0, 64, 127
2, 129431, Note_on_c, 0, 67, 0
2, 129434, Note_on_c, 0, 60, 0
2, 129436, Note_on_c, 0, 56, 0
2, 129443, Note_on_c, 0, 58, 0
2, 129446, Note_on_c, 0, 70, 0
2, 129450, Note_on_c, 0, 63, 0
2, 129480, Note_on_c, 0, 61, 64
2, 129480, Note_on_c, 0, 68, 64
2, 129480, Note_on_c, 0, 65, 64
2, 129484, Note_on_c, 0, 58, 64
2, 129490, Note_on_c, 0, 53, 64
2, 129492, Note_on_c, 0, 55, 64
2, 129492, Note_on_c, 0, 56, 64
2, 129498, Control_c, 0, 64, 0
2, 129519, Note_on_c, 0, 53, 0
2, 129526, Note_on_c, 0, 55, 0
2, 129643, Note_on_c, 0, 54, 64
2, 129647, Control_c, 0, 64, 127
2, 129974, Note_on_c, 0, 56, 0
2, 129978, Note_on_c, 0, 61, 0
2, 129982, Note_on_c, 0, 65, 0
2, 129982, Note_on_c, 0, 54, 0
2, 129984, Note_on_c, 0, 58, 0
2, 129999, Note_on_c, 0, 68, 0
2, 130259, Note_on_c, 0, 58, 64
2, 130260, Note_on_c, 0, 68, 64
2, 130260, Note_on_c, 0, 61, 64
2, 130261, Note_on_c, 0, 54, 64
2, 130262, Note_on_c, 0, 65, 64
2, 130264, Note_on_c, 0, 56, 64
2, 130273, Control_c, 0, 64, 0
2, 130312, Control_c, 0, 64, 127
2, 130356, Note_on_c, 0, 65, 0
2, 130362, Note_on_c, 0, 61, 0
2, 130366, Note_on_c, 0, 56, 0
2, 130368, Note_on_c, 0, 68, 0
2, 130368, Note_on_c, 0, 54, 0
2, 130384, Note_on_c, 0, 58, 0
2, 130433, Control_c, 0, 64, 0
2, 130433, Note_on_c, 0, 63, 64
2, 130437, Note_on_c, 0, 70, 64
2, 130437, Note_on_c, 0, 67, 64
2, 130441, Note_on_c, 0, 56, 64
2, 130441, Note_on_c, 0, 60, 64
2, 130443, Note_on_c, 0, 58, 64
2, 130492, Control_c, 0, 64, 127
2, 130516, Note_on_c, 0, 63, 0
2, 130522, Note_on_c, 0, 67, 0
2, 130532, Note_on_c, 0, 70, 0
2, 130637, Note_on_c, 0, 84, 64
2, 130637, Note_on_c, 0, 72, 64
2, 130679, Note_on_c, 0, 72, 0
2, 130691, Note_on_c, 0, 84, 0
2, 130787, Note_on_c, 0, 89, 64
2, 130789, Note_on_c, 0, 77, 64
2, 130812, Note_on_c, 0, 77, 0
2, 130815, Note_on_c, 0, 89, 0
2, 130963, Note_on_c, 0, 96, 64
2, 130967, Note_on_c, 0, 84, 64
2, 130991, Note_on_c, 0, 84, 0
2, 131006, Note_on_c, 0, 96, 0
2, 131144, Note_on_c, 0, 101, 64
2, 131146, Note_on_c, 0, 89, 64
2, 131155, Note_on_c, 0, 60, 0
2, 131163, Note_on_c, 0, 56, 0
2, 131164, Note_on_c, 0, 58, 0
2, 131167, Note_on_c, 0, 101, 0
2, 131177, Note_on_c, 0, 89, 0
2, 131330, Note_on_c, 0, 63, 64
2, 131331, Note_on_c, 0, 67, 64
2, 131333, Note_on_c, 0, 70, 64
2, 131333, Note_on_c, 0, 60, 64
2, 131335, Note_on_c, 0, 56, 64
2, 131337, Note_on_c, 0, 58, 64
2, 131342, Note_on_c, 0, 67, 0
2, 131348, Note_on_c, 0, 60, 0
2, 131348, Note_on_c, 0, 63, 0
2, 131353, Note_on_c, 0, 58, 0
2, 131358, Note_on_c, 0, 70, 0
2, 131358, Note_on_c, 0, 56, 0
2, 131360, Control_c, 0, 64, 0
2, 131455, Note_on_c, 0, 68, 64
2, 131457, Note_on_c, 0, 54, 64
2, 131457, Note_on_c, 0, 61, 64
2, 131457, Note_on_c, 0, 65, 64
2, 131462, Note_on_c, 0, 58, 64
2, 131467, Note_on_c, 0, 56, 64
2, 131486, Control_c, 0, 64, 127
2, 131500, Note_on_c, 0, 61, 0
2, 131511, Note_on_c, 0, 65, 0
2, 131522, Note_on_c, 0, 68, 0
2, 131677, Note_on_c, 0, 84, 64
2, 131678, Note_on_c, 0, 72, 64
2, 131762, Note_on_c, 0, 72, 0
2, 131777, Note_on_c, 0, 84, 0
2, 131856, Note_on_c, 0, 89, 64
2, 131856, Note_on_c, 0, 77, 64
2, 131940, Note_on_c, 0, 77, 0
2, 131954, Note_on_c, 0, 89, 0
2, 132039, Note_on_c, 0, 94, 64
2, 132040, Note_on_c, 0, 82, 64
2, 132108, Note_on_c, 0, 82, 0
2, 132120, Note_on_c, 0, 94, 0
2, 132223, Note_on_c, 0, 99, 64
2, 132225, Note_on_c, 0, 87, 64
2, 132254, Note_on_c, 0, 87, 0
2, 132273, Note_on_c, 0, 99, 0
2, 132378, Note_on_c, 0, 58, 0
2, 132383, Note_on_c, 0, 54, 0
2, 132384, Note_on_c, 0, 56, 0
2, 132457, Note_on_c, 0, 94, 64
2, 132460, Note_on_c, 0, 106, 64
2, 132758, Note_on_c, 0, 94, 0
2, 132767, Note_on_c, 0, 106, 0
2, 133039, Control_c, 0, 64, 0
2, 133039, End_track
3, 0, Start_track
3, 0, MIDI_port, 0
3, 0, Title_t, "Bass"
3, 0, Program_c, 1, 32
3, 7566, Note_on_c, 1, 48, 73
3, 7866, Note_on_c, 1, 48, 0
3, 7869, Note_on_c, 1, 43, 64
3, 8052, Note_on_c, 1, 43, 0
3, 8059, Note_on_c, 1, 48, 64
3, 8329, Note_on_c, 1, 48, 0
3, 8343, Note_on_c, 1, 42, 64
3, 8381, Note_on_c, 1, 42, 0
3, 8396, Note_on_c, 1, 43, 64
3, 8422, Note_on_c, 1, 43, 0
3, 8454, Note_on_c, 1, 43, 64
3, 8496, Note_on_c, 1, 43, 0
3, 8515, Note_on_c, 1, 35, 64
3, 8620, Note_on_c, 1, 35, 0
3, 8640, Note_on_c, 1, 36, 64
3, 8832, Note_on_c, 1, 43, 64
3, 8847, Note_on_c, 1, 43, 0
3, 8854, Note_on_c, 1, 36, 0
3, 8889, Note_on_c, 1, 43, 64
3, 8913, Note_on_c, 1, 43, 0
3, 8951, Note_on_c, 1, 31, 64
3, 8979, Note_on_c, 1, 31, 0
3, 9009, Note_on_c, 1, 34, 64
3, 9116, Note_on_c, 1, 34, 0
3, 9126, Note_on_c, 1, 36, 64
3, 9298, Note_on_c, 1, 43, 64
3, 9415, Note_on_c, 1, 43, 0
3, 9423, Note_on_c, 1, 50, 64
3, 9469, Note_on_c, 1, 36, 0
3, 9480, Note_on_c, 1, 50, 0
3, 9532, Note_on_c, 1, 34, 64
3, 9555, Note_on_c, 1, 34, 0
3, 9601, Note_on_c, 1, 48, 64
3, 9779, Note_on_c, 1, 43, 64
3, 9796, Note_on_c, 1, 43, 0
3, 9796, Note_on_c, 1, 48, 0
3, 9839, Note_on_c, 1, 36, 64
3, 9857, Note_on_c, 1, 36, 0
3, 9907, Note_on_c, 1, 36, 64
3, 9930, Note_on_c, 1, 36, 0
3, 9963, Note_on_c, 1, 34, 64
3, 10071, Note_on_c, 1, 34, 0
3, 10080, Note_on_c, 1, 36, 64
3, 10268, Note_on_c, 1, 43, 64
3, 10297, Note_on_c, 1, 36, 0
3, 10299, Note_on_c, 1, 43, 0
3, 10325, Note_on_c, 1, 43, 64
3, 10351, Note_on_c, 1, 43, 0
3, 10390, Note_on_c, 1, 34, 64
3, 10431, Note_on_c, 1, 34, 0
3, 10445, Note_on_c, 1, 36, 64
3, 10734, Note_on_c, 1, 43, 64
3, 10753, Note_on_c, 1, 43, 0
3, 10795, Note_on_c, 1, 52, 64
3, 10842, Note_on_c, 1, 52, 0
3, 10866, Note_on_c, 1, 52, 64
3, 10893, Note_on_c, 1, 52, 0
3, 10898, Note_on_c, 1, 36, 0
3, 10983, Note_on_c, 1, 36, 64
3, 11210, Note_on_c, 1, 36, 0
3, 11222, Note_on_c, 1, 43, 64
3, 11241, Note_on_c, 1, 43, 0
3, 11278, Note_on_c, 1, 34, 64
3, 11303, Note_on_c, 1, 34, 0
3, 11342, Note_on_c, 1, 34, 64
3, 11392, Note_on_c, 1, 34, 0
3, 11406, Note_on_c, 1, 35, 64
3, 11509, Note_on_c, 1, 35, 0
3, 11521, Note_on_c, 1, 36, 64
3, 11714, Note_on_c, 1, 43, 64
3, 11742, Note_on_c, 1, 36, 0
3, 11823, Note_on_c, 1, 43, 0
3, 11832, Note_on_c, 1, 34, 64
3, 11874, Note_on_c, 1, 34, 0
3, 11897, Note_on_c, 1, 35, 64
3, 11946, Note_on_c, 1, 35, 0
3, 11955, Note_on_c, 1, 36, 64
3, 12191, Note_on_c, 1, 52, 64
3, 12295, Note_on_c, 1, 36, 0
3, 12303, Note_on_c, 1, 52, 0
3, 12308, Note_on_c, 1, 34, 64
3, 12343, Note_on_c, 1, 34, 0
3, 12367, Note_on_c, 1, 35, 64
3, 12428, Note_on_c, 1, 35, 0
3, 12429, Note_on_c, 1, 36, 64
3, 12666, Note_on_c, 1, 43, 64
3, 12685, Note_on_c, 1, 36, 0
3, 12690, Note_on_c, 1, 43, 0
3, 12718, Note_on_c, 1, 43, 64
3, 12897, Note_on_c, 1, 43, 0
3, 12901, Note_on_c, 1, 36, 64
3, 13037, Note_on_c, 1, 34, 64
3, 13065, Note_on_c, 1, 36, 0
3, 13071, Note_on_c, 1, 34, 0
3, 13080, Note_on_c, 1, 43, 64
3, 13265, Note_on_c, 1, 36, 64
3, 13271, Note_on_c, 1, 43, 0
3, 13295, Note_on_c, 1, 36, 0
3, 13320, Note_on_c, 1, 30, 64
3, 13417, Note_on_c, 1, 30, 0
3, 13451, Note_on_c, 1, 29, 64
3, 13606, Note_on_c, 1, 29, 0
3, 13617, Note_on_c, 1, 36, 64
3, 13806, Note_on_c, 1, 44, 64
3, 13811, Note_on_c, 1, 36, 0
3, 13984, Note_on_c, 1, 36, 64
3, 14003, Note_on_c, 1, 44, 0
3, 14256, Note_on_c, 1, 36, 0
3, 14271, Note_on_c, 1, 31, 64
3, 14345, Note_on_c, 1, 31, 0
3, 14404, Note_on_c, 1, 29, 64
3, 14595, Note_on_c, 1, 36, 64
3, 14601, Note_on_c, 1, 29, 0
3, 14623, Note_on_c, 1, 36, 0
3, 14656, Note_on_c, 1, 36, 64
3, 14697, Note_on_c, 1, 36, 0
3, 14762, Note_on_c, 1, 44, 64
3, 15070, Note_on_c, 1, 36, 64
3, 15076, Note_on_c, 1, 44, 0
3, 15101, Note_on_c, 1, 36, 0
3, 15128, Note_on_c, 1, 34, 64
3, 15150, Note_on_c, 1, 34, 0
3, 15189, Note_on_c, 1, 34, 64
3, 15227, Note_on_c, 1, 34, 0
3, 15247, Note_on_c, 1, 35, 64
3, 15346, Note_on_c, 1, 35, 0
3, 15362, Note_on_c, 1, 36, 64
3, 15508, Note_on_c, 1, 36, 0
3, 15540, Note_on_c, 1, 43, 64
3, 15649, Note_on_c, 1, 43, 0
3, 15662, Note_on_c, 1, 34, 64
3, 15701, Note_on_c, 1, 34, 0
3, 15725, Note_on_c, 1, 35, 64
3, 15895, Note_on_c, 1, 35, 0
3, 15910, Note_on_c, 1, 36, 64
3, 16040, Note_on_c, 1, 34, 64
3, 16049, Note_on_c, 1, 34, 0
3, 16056, Note_on_c, 1, 36, 0
3, 16093, Note_on_c, 1, 43, 64
3, 16116, Note_on_c, 1, 43, 0
3, 16158, Note_on_c, 1, 31, 64
3, 16185, Note_on_c, 1, 31, 0
3, 16211, Note_on_c, 1, 34, 64
3, 16237, Note_on_c, 1, 34, 0
3, 16283, Note_on_c, 1, 35, 64
3, 16293, Note_on_c, 1, 35, 0
3, 16329, Note_on_c, 1, 36, 64
3, 16423, Note_on_c, 1, 36, 0
3, 16450, Note_on_c, 1, 36, 64
3, 16543, Note_on_c, 1, 36, 0
3, 16565, Note_on_c, 1, 43, 64
3, 16628, Note_on_c, 1, 31, 64
3, 16629, Note_on_c, 1, 43, 0
3, 16782, Note_on_c, 1, 31, 0
3, 16800, Note_on_c, 1, 36, 64
3, 16970, Note_on_c, 1, 36, 0
3, 16987, Note_on_c, 1, 43, 64
3, 17127, Note_on_c, 1, 43, 0
3, 17173, Note_on_c, 1, 36, 64
3, 17464, Note_on_c, 1, 43, 64
3, 17490, Note_on_c, 1, 43, 0
3, 17528, Note_on_c, 1, 43, 64
3, 17615, Note_on_c, 1, 43, 0
3, 17622, Note_on_c, 1, 36, 0
3, 17645, Note_on_c, 1, 31, 64
3, 17748, Note_on_c, 1, 31, 0
3, 17765, Note_on_c, 1, 36, 64
3, 17948, Note_on_c, 1, 43, 64
3, 17949, Note_on_c, 1, 36, 0
3, 18061, Note_on_c, 1, 43, 0
3, 18063, Note_on_c, 1, 31, 64
3, 18075, Note_on_c, 1, 31, 0
3, 18127, Note_on_c, 1, 31, 64
3, 18183, Note_on_c, 1, 31, 0
3, 18194, Note_on_c, 1, 36, 64
3, 18437, Note_on_c, 1, 43, 64
3, 18451, Note_on_c, 1, 43, 0
3, 18467, Note_on_c, 1, 36, 0
3, 18489, Note_on_c, 1, 43, 64
3, 18669, Note_on_c, 1, 43, 0
3, 18674, Note_on_c, 1, 36, 64
3, 18691, Note_on_c, 1, 36, 0
3, 18731, Note_on_c, 1, 36, 64
3, 18891, Note_on_c, 1, 36, 0
3, 18906, Note_on_c, 1, 34, 64
3, 18994, Note_on_c, 1, 34, 0
3, 19022, Note_on_c, 1, 34, 64
3, 19065, Note_on_c, 1, 34, 0
3, 19084, Note_on_c, 1, 35, 64
3, 19181, Note_on_c, 1, 35, 0
3, 19199, Note_on_c, 1, 36, 64
3, 19390, Note_on_c, 1, 43, 64
3, 19397, Note_on_c, 1, 36, 0
3, 19482, Note_on_c, 1, 43, 0
3, 19504, Note_on_c, 1, 43, 64
3, 19529, Note_on_c, 1, 43, 0
3, 19560, Note_on_c, 1, 34, 64
3, 19593, Note_on_c, 1, 34, 0
3, 19628, Note_on_c, 1, 35, 64
3, 19660, Note_on_c, 1, 35, 0
3, 19687, Note_on_c, 1, 36, 64
3, 19869, Note_on_c, 1, 36, 0
3, 19876, Note_on_c, 1, 43, 64
3, 19969, Note_on_c, 1, 43, 0
3, 19987, Note_on_c, 1, 34, 64
3, 20017, Note_on_c, 1, 34, 0
3, 20046, Note_on_c, 1, 35, 64
3, 20091, Note_on_c, 1, 35, 0
3, 20114, Note_on_c, 1, 36, 64
3, 20151, Note_on_c, 1, 36, 0
3, 20172, Note_on_c, 1, 36, 64
3, 20350, Note_on_c, 1, 36, 0
3, 20356, Note_on_c, 1, 43, 64
3, 20462, Note_on_c, 1, 43, 0
3, 20468, Note_on_c, 1, 34, 64
3, 20502, Note_on_c, 1, 34, 0
3, 20529, Note_on_c, 1, 35, 64
3, 20570, Note_on_c, 1, 35, 0
3, 20590, Note_on_c, 1, 36, 64
3, 20619, Note_on_c, 1, 36, 0
3, 20648, Note_on_c, 1, 36, 64
3, 20751, Note_on_c, 1, 36, 0
3, 20762, Note_on_c, 1, 43, 64
3, 20955, Note_on_c, 1, 36, 64
3, 20962, Note_on_c, 1, 43, 0
3, 20976, Note_on_c, 1, 36, 0
3, 21003, Note_on_c, 1, 30, 64
3, 21101, Note_on_c, 1, 30, 0
3, 21130, Note_on_c, 1, 29, 64
3, 21300, Note_on_c, 1, 29, 0
3, 21312, Note_on_c, 1, 36, 64
3, 21492, Note_on_c, 1, 44, 64
3, 21493, Note_on_c, 1, 36, 0
3, 21792, Note_on_c, 1, 36, 64
3, 21795, Note_on_c, 1, 44, 0
3, 21868, Note_on_c, 1, 36, 0
3, 21911, Note_on_c, 1, 36, 64
3, 21953, Note_on_c, 1, 36, 0
3, 21967, Note_on_c, 1, 30, 64
3, 22056, Note_on_c, 1, 30, 0
3, 22090, Note_on_c, 1, 29, 64
3, 22260, Note_on_c, 1, 29, 0
3, 22269, Note_on_c, 1, 36, 64
3, 22431, Note_on_c, 1, 36, 0
3, 22443, Note_on_c, 1, 44, 64
3, 22756, Note_on_c, 1, 36, 64
3, 22761, Note_on_c, 1, 44, 0
3, 22817, Note_on_c, 1, 36, 0
3, 22929, Note_on_c, 1, 36, 64
3, 22975, Note_on_c, 1, 36, 0
3, 23041, Note_on_c, 1, 41, 64
3, 23129, Note_on_c, 1, 39, 64
3, 23135, Note_on_c, 1, 41, 0
3, 23147, Note_on_c, 1, 39, 0
3, 23158, Note_on_c, 1, 44, 64
3, 23276, Note_on_c, 1, 44, 0
3, 23280, Note_on_c, 1, 45, 64
3, 23393, Note_on_c, 1, 45, 0
3, 23403, Note_on_c, 1, 50, 64
3, 23522, Note_on_c, 1, 50, 0
3, 23524, Note_on_c, 1, 48, 64
3, 23638, Note_on_c, 1, 40, 64
3, 23642, Note_on_c, 1, 48, 0
3, 23757, Note_on_c, 1, 40, 0
3, 23762, Note_on_c, 1, 41, 64
3, 23877, Note_on_c, 1, 41, 0
3, 23878, Note_on_c, 1, 35, 64
3, 23991, Note_on_c, 1, 35, 0
3, 24001, Note_on_c, 1, 36, 64
3, 24115, Note_on_c, 1, 36, 0
3, 24116, Note_on_c, 1, 28, 64
3, 24230, Note_on_c, 1, 28, 0
3, 24233, Note_on_c, 1, 29, 64
3, 24354, Note_on_c, 1, 31, 64
3, 24361, Note_on_c, 1, 29, 0
3, 24477, Note_on_c, 1, 32, 64
3, 24487, Note_on_c, 1, 31, 0
3, 24600, Note_on_c, 1, 33, 64
3, 24609, Note_on_c, 1, 32, 0
3, 24723, Note_on_c, 1, 36, 64
3, 24731, Note_on_c, 1, 33, 0
3, 24808, Note_on_c, 1, 33, 64
3, 24820, Note_on_c, 1, 33, 0
3, 24830, Note_on_c, 1, 36, 0
3, 24838, Note_on_c, 1, 35, 64
3, 24964, Note_on_c, 1, 35, 0
3, 24967, Note_on_c, 1, 34, 64
3, 25079, Note_on_c, 1, 39, 64
3, 25083, Note_on_c, 1, 34, 0
3, 25202, Note_on_c, 1, 39, 0
3, 25204, Note_on_c, 1, 38, 64
3, 25317, Note_on_c, 1, 38, 0
3, 25322, Note_on_c, 1, 47, 64
3, 25437, Note_on_c, 1, 47, 0
3, 25441, Note_on_c, 1, 46, 64
3, 25553, Note_on_c, 1, 46, 0
3, 25557, Note_on_c, 1, 44, 64
3, 25665, Note_on_c, 1, 44, 0
3, 25677, Note_on_c, 1, 43, 64
3, 25794, Note_on_c, 1, 43, 0
3, 25797, Note_on_c, 1, 41, 64
3, 25908, Note_on_c, 1, 41, 0
3, 25915, Note_on_c, 1, 40, 64
3, 26027, Note_on_c, 1, 40, 0
3, 26034, Note_on_c, 1, 38, 64
3, 26143, Note_on_c, 1, 38, 0
3, 26154, Note_on_c, 1, 36, 64
3, 26272, Note_on_c, 1, 36, 0
3, 26272, Note_on_c, 1, 35, 64
3, 26392, Note_on_c, 1, 35, 0
3, 26393, Note_on_c, 1, 34, 64
3, 26517, Note_on_c, 1, 38, 64
3, 26529, Note_on_c, 1, 34, 0
3, 26605, Note_on_c, 1, 37, 64
3, 26635, Note_on_c, 1, 37, 0
3, 26641, Note_on_c, 1, 50, 64
3, 26643, Note_on_c, 1, 38, 0
3, 26753, Note_on_c, 1, 50, 0
3, 26755, Note_on_c, 1, 38, 64
3, 26874, Note_on_c, 1, 38, 0
3, 26874, Note_on_c, 1, 39, 64
3, 26940, Note_on_c, 1, 39, 0
3, 26961, Note_on_c, 1, 39, 64
3, 26997, Note_on_c, 1, 39, 0
3, 26998, Note_on_c, 1, 41, 64
3, 27111, Note_on_c, 1, 41, 0
3, 27116, Note_on_c, 1, 42, 64
3, 27231, Note_on_c, 1, 42, 0
3, 27236, Note_on_c, 1, 43, 64
3, 27357, Note_on_c, 1, 43, 0
3, 27360, Note_on_c, 1, 44, 64
3, 27480, Note_on_c, 1, 44, 0
3, 27481, Note_on_c, 1, 45, 64
3, 27602, Note_on_c, 1, 45, 0
3, 27603, Note_on_c, 1, 46, 64
3, 27711, Note_on_c, 1, 46, 0
3, 27721, Note_on_c, 1, 38, 64
3, 27833, Note_on_c, 1, 38, 0
3, 27837, Note_on_c, 1, 39, 64
3, 27960, Note_on_c, 1, 43, 64
3, 27961, Note_on_c, 1, 39, 0
3, 28068, Note_on_c, 1, 43, 0
3, 28075, Note_on_c, 1, 41, 64
3, 28191, Note_on_c, 1, 41, 0
3, 28191, Note_on_c, 1, 39, 64
3, 28305, Note_on_c, 1, 39, 0
3, 28312, Note_on_c, 1, 38, 64
3, 28433, Note_on_c, 1, 38, 0
3, 28433, Note_on_c, 1, 36, 64
3, 28540, Note_on_c, 1, 36, 0
3, 28552, Note_on_c, 1, 34, 64
3, 28669, Note_on_c, 1, 33, 64
3, 28675, Note_on_c, 1, 34, 0
3, 28784, Note_on_c, 1, 33, 0
3, 28791, Note_on_c, 1, 32, 64
3, 28910, Note_on_c, 1, 37, 64
3, 29023, Note_on_c, 1, 32, 0
3, 29041, Note_on_c, 1, 37, 0
3, 29041, Note_on_c, 1, 36, 64
3, 29143, Note_on_c, 1, 36, 0
3, 29154, Note_on_c, 1, 41, 64
3, 29264, Note_on_c, 1, 41, 0
3, 29269, Note_on_c, 1, 48, 64
3, 29384, Note_on_c, 1, 48, 0
3, 29390, Note_on_c, 1, 46, 64
3, 29516, Note_on_c, 1, 44, 64
3, 29541, Note_on_c, 1, 46, 0
3, 29629, Note_on_c, 1, 44, 0
3, 29639, Note_on_c, 1, 42, 64
3, 29744, Note_on_c, 1, 42, 0
3, 29755, Note_on_c, 1, 43, 64
3, 29839, Note_on_c, 1, 43, 0
3, 29841, Note_on_c, 1, 37, 64
3, 29866, Note_on_c, 1, 37, 0
3, 29880, Note_on_c, 1, 32, 64
3, 29996, Note_on_c, 1, 32, 0
3, 29999, Note_on_c, 1, 31, 64
3, 30119, Note_on_c, 1, 43, 64
3, 30121, Note_on_c, 1, 31, 0
3, 30175, Note_on_c, 1, 43, 0
3, 30199, Note_on_c, 1, 35, 64
3, 30234, Note_on_c, 1, 35, 0
3, 30242, Note_on_c, 1, 36, 64
3, 30350, Note_on_c, 1, 36, 0
3, 30350, Note_on_c, 1, 42, 64
3, 30470, Note_on_c, 1, 42, 0
3, 30475, Note_on_c, 1, 43, 64
3, 30605, Note_on_c, 1, 36, 64
3, 30618, Note_on_c, 1, 43, 0
3, 30915, Note_on_c, 1, 36, 0
3, 30917, Note_on_c, 1, 43, 64
3, 31082, Note_on_c, 1, 43, 0
3, 31083, Note_on_c, 1, 48, 64
3, 31386, Note_on_c, 1, 42, 64
3, 31409, Note_on_c, 1, 48, 0
3, 31499, Note_on_c, 1, 43, 64
3, 31513, Note_on_c, 1, 42, 0
3, 31549, Note_on_c, 1, 43, 0
3, 31560, Note_on_c, 1, 36, 64
3, 31862, Note_on_c, 1, 36, 0
3, 31862, Note_on_c, 1, 43, 64
3, 32026, Note_on_c, 1, 43, 0
3, 32036, Note_on_c, 1, 48, 64
3, 32340, Note_on_c, 1, 42, 64
3, 32357, Note_on_c, 1, 48, 0
3, 32384, Note_on_c, 1, 42, 0
3, 32399, Note_on_c, 1, 43, 64
3, 32459, Note_on_c, 1, 43, 0
3, 32459, Note_on_c, 1, 35, 64
3, 32484, Note_on_c, 1, 35, 0
3, 32511, Note_on_c, 1, 36, 64
3, 32801, Note_on_c, 1, 36, 0
3, 32816, Note_on_c, 1, 42, 64
3, 32860, Note_on_c, 1, 42, 0
3, 32875, Note_on_c, 1, 43, 64
3, 32930, Note_on_c, 1, 43, 0
3, 32932, Note_on_c, 1, 35, 64
3, 32956, Note_on_c, 1, 35, 0
3, 32988, Note_on_c, 1, 36, 64
3, 33302, Note_on_c, 1, 36, 0
3, 33305, Note_on_c, 1, 43, 64
3, 33412, Note_on_c, 1, 35, 64
3, 33436, Note_on_c, 1, 35, 0
3, 33464, Note_on_c, 1, 43, 0
3, 33472, Note_on_c, 1, 36, 64
3, 33781, Note_on_c, 1, 43, 64
3, 33819, Note_on_c, 1, 43, 0
3, 33832, Note_on_c, 1, 36, 0
3, 33837, Note_on_c, 1, 43, 64
3, 33945, Note_on_c, 1, 43, 0
3, 33953, Note_on_c, 1, 48, 64
3, 34259, Note_on_c, 1, 48, 0
3, 34259, Note_on_c, 1, 43, 64
3, 34285, Note_on_c, 1, 43, 0
3, 34311, Note_on_c, 1, 43, 64
3, 34370, Note_on_c, 1, 36, 64
3, 34378, Note_on_c, 1, 43, 0
3, 34404, Note_on_c, 1, 36, 0
3, 34436, Note_on_c, 1, 36, 64
3, 34740, Note_on_c, 1, 43, 64
3, 34744, Note_on_c, 1, 36, 0
3, 34772, Note_on_c, 1, 43, 0
3, 34796, Note_on_c, 1, 43, 64
3, 34829, Note_on_c, 1, 43, 0
3, 34859, Note_on_c, 1, 43, 64
3, 34879, Note_on_c, 1, 43, 0
3, 34917, Note_on_c, 1, 48, 64
3, 35222, Note_on_c, 1, 43, 64
3, 35245, Note_on_c, 1, 48, 0
3, 35278, Note_on_c, 1, 43, 0
3, 35291, Note_on_c, 1, 43, 64
3, 35387, Note_on_c, 1, 43, 0
3, 35396, Note_on_c, 1, 36, 64
3, 35703, Note_on_c, 1, 43, 64
3, 35734, Note_on_c, 1, 43, 0
3, 35742, Note_on_c, 1, 36, 0
3, 35756, Note_on_c, 1, 43, 64
3, 35865, Note_on_c, 1, 43, 0
3, 35878, Note_on_c, 1, 48, 64
3, 36189, Note_on_c, 1, 43, 64
3, 36223, Note_on_c, 1, 43, 0
3, 36226, Note_on_c, 1, 48, 0
3, 36234, Note_on_c, 1, 43, 64
3, 36338, Note_on_c, 1, 43, 0
3, 36351, Note_on_c, 1, 41, 64
3, 36657, Note_on_c, 1, 36, 64
3, 36662, Note_on_c, 1, 41, 0
3, 36686, Note_on_c, 1, 36, 0
3, 36710, Note_on_c, 1, 36, 64
3, 36819, Note_on_c, 1, 36, 0
3, 36828, Note_on_c, 1, 29, 64
3, 37123, Note_on_c, 1, 29, 0
3, 37140, Note_on_c, 1, 36, 64
3, 37312, Note_on_c, 1, 36, 0
3, 37312, Note_on_c, 1, 44, 64
3, 37630, Note_on_c, 1, 36, 64
3, 37633, Note_on_c, 1, 44, 0
3, 37782, Note_on_c, 1, 36, 0
3, 37783, Note_on_c, 1, 29, 64
3, 38101, Note_on_c, 1, 29, 0
3, 38112, Note_on_c, 1, 36, 64
3, 38280, Note_on_c, 1, 48, 64
3, 38327, Note_on_c, 1, 36, 0
3, 38571, Note_on_c, 1, 48, 0
3, 38582, Note_on_c, 1, 55, 64
3, 38755, Note_on_c, 1, 55, 0
3, 38762, Note_on_c, 1, 47, 64
3, 38870, Note_on_c, 1, 47, 0
3, 38885, Note_on_c, 1, 48, 64
3, 39071, Note_on_c, 1, 43, 64
3, 39078, Note_on_c, 1, 48, 0
3, 39105, Note_on_c, 1, 43, 0
3, 39132, Note_on_c, 1, 43, 64
3, 39247, Note_on_c, 1, 43, 0
3, 39247, Note_on_c, 1, 36, 64
3, 39540, Note_on_c, 1, 43, 64
3, 39542, Note_on_c, 1, 36, 0
3, 39656, Note_on_c, 1, 34, 64
3, 39668, Note_on_c, 1, 43, 0
3, 39693, Note_on_c, 1, 34, 0
3, 39713, Note_on_c, 1, 35, 64
3, 39739, Note_on_c, 1, 35, 0
3, 39773, Note_on_c, 1, 35, 64
3, 39822, Note_on_c, 1, 35, 0
3, 39830, Note_on_c, 1, 36, 64
3, 40020, Note_on_c, 1, 43, 64
3, 40060, Note_on_c, 1, 43, 0
3, 40071, Note_on_c, 1, 36, 0
3, 40080, Note_on_c, 1, 43, 64
3, 40132, Note_on_c, 1, 43, 0
3, 40139, Note_on_c, 1, 34, 64
3, 40176, Note_on_c, 1, 34, 0
3, 40193, Note_on_c, 1, 35, 64
3, 40259, Note_on_c, 1, 36, 64
3, 40268, Note_on_c, 1, 35, 0
3, 40295, Note_on_c, 1, 36, 0
3, 40317, Note_on_c, 1, 36, 64
3, 40505, Note_on_c, 1, 43, 64
3, 40636, Note_on_c, 1, 36, 0
3, 40673, Note_on_c, 1, 43, 0
3, 40677, Note_on_c, 1, 36, 64
3, 40979, Note_on_c, 1, 43, 64
3, 40990, Note_on_c, 1, 36, 0
3, 41010, Note_on_c, 1, 43, 0
3, 41040, Note_on_c, 1, 34, 64
3, 41070, Note_on_c, 1, 34, 0
3, 41100, Note_on_c, 1, 34, 64
3, 41147, Note_on_c, 1, 34, 0
3, 41159, Note_on_c, 1, 35, 64
3, 41190, Note_on_c, 1, 35, 0
3, 41219, Note_on_c, 1, 35, 64
3, 41267, Note_on_c, 1, 35, 0
3, 41280, Note_on_c, 1, 36, 64
3, 41465, Note_on_c, 1, 43, 64
3, 41497, Note_on_c, 1, 43, 0
3, 41531, Note_on_c, 1, 52, 64
3, 41573, Note_on_c, 1, 52, 0
3, 41592, Note_on_c, 1, 52, 64
3, 41625, Note_on_c, 1, 52, 0
3, 41629, Note_on_c, 1, 36, 0
3, 41646, Note_on_c, 1, 43, 64
3, 41692, Note_on_c, 1, 43, 0
3, 41709, Note_on_c, 1, 36, 64
3, 41822, Note_on_c, 1, 34, 64
3, 41828, Note_on_c, 1, 36, 0
3, 42027, Note_on_c, 1, 34, 0
3, 42063, Note_on_c, 1, 34, 64
3, 42120, Note_on_c, 1, 34, 0
3, 42127, Note_on_c, 1, 35, 64
3, 42153, Note_on_c, 1, 35, 0
3, 42187, Note_on_c, 1, 35, 64
3, 42234, Note_on_c, 1, 35, 0
3, 42254, Note_on_c, 1, 36, 64
3, 42276, Note_on_c, 1, 36, 0
3, 42361, Note_on_c, 1, 36, 64
3, 42546, Note_on_c, 1, 43, 64
3, 42606, Note_on_c, 1, 36, 0
3, 42717, Note_on_c, 1, 43, 0
3, 42717, Note_on_c, 1, 36, 64
3, 42901, Note_on_c, 1, 43, 64
3, 42926, Note_on_c, 1, 43, 0
3, 42964, Note_on_c, 1, 52, 64
3, 43004, Note_on_c, 1, 52, 0
3, 43021, Note_on_c, 1, 52, 64
3, 43037, Note_on_c, 1, 36, 0
3, 43052, Note_on_c, 1, 52, 0
3, 43071, Note_on_c, 1, 43, 64
3, 43134, Note_on_c, 1, 43, 0
3, 43137, Note_on_c, 1, 36, 64
3, 43175, Note_on_c, 1, 36, 0
3, 43195, Note_on_c, 1, 36, 64
3, 43384, Note_on_c, 1, 43, 64
3, 43427, Note_on_c, 1, 43, 0
3, 43446, Note_on_c, 1, 43, 64
3, 43562, Note_on_c, 1, 36, 0
3, 43623, Note_on_c, 1, 36, 64
3, 43632, Note_on_c, 1, 43, 0
3, 43654, Note_on_c, 1, 36, 0
3, 43679, Note_on_c, 1, 36, 64
3, 43853, Note_on_c, 1, 36, 0
3, 43861, Note_on_c, 1, 34, 64
3, 43895, Note_on_c, 1, 34, 0
3, 43917, Note_on_c, 1, 34, 64
3, 43970, Note_on_c, 1, 34, 0
3, 43983, Note_on_c, 1, 35, 64
3, 44034, Note_on_c, 1, 35, 0
3, 44039, Note_on_c, 1, 36, 64
3, 44086, Note_on_c, 1, 36, 0
3, 44105, Note_on_c, 1, 35, 64
3, 44117, Note_on_c, 1, 35, 0
3, 44162, Note_on_c, 1, 41, 64
3, 44341, Note_on_c, 1, 41, 0
3, 44346, Note_on_c, 1, 36, 64
3, 44369, Note_on_c, 1, 36, 0
3, 44402, Note_on_c, 1, 36, 64
3, 44513, Note_on_c, 1, 36, 0
3, 44521, Note_on_c, 1, 29, 64
3, 44813, Note_on_c, 1, 36, 64
3, 44845, Note_on_c, 1, 36, 0
3, 44872, Note_on_c, 1, 29, 0
3, 44877, Note_on_c, 1, 36, 64
3, 44992, Note_on_c, 1, 41, 64
3, 44993, Note_on_c, 1, 36, 0
3, 45293, Note_on_c, 1, 41, 0
3, 45300, Note_on_c, 1, 36, 64
3, 45476, Note_on_c, 1, 29, 64
3, 45485, Note_on_c, 1, 36, 0
3, 45781, Note_on_c, 1, 36, 64
3, 45790, Note_on_c, 1, 29, 0
3, 45895, Note_on_c, 1, 34, 64
3, 45904, Note_on_c, 1, 36, 0
3, 45929, Note_on_c, 1, 34, 0
3, 45956, Note_on_c, 1, 35, 64
3, 46001, Note_on_c, 1, 35, 0
3, 46014, Note_on_c, 1, 36, 64
3, 46055, Note_on_c, 1, 36, 0
3, 46074, Note_on_c, 1, 36, 64
3, 46234, Note_on_c, 1, 36, 0
3, 46244, Note_on_c, 1, 43, 64
3, 46444, Note_on_c, 1, 43, 0
3, 46447, Note_on_c, 1, 34, 64
3, 46492, Note_on_c, 1, 34, 0
3, 46507, Note_on_c, 1, 35, 64
3, 46546, Note_on_c, 1, 35, 0
3, 46561, Note_on_c, 1, 36, 64
3, 46725, Note_on_c, 1, 36, 0
3, 46745, Note_on_c, 1, 43, 64
3, 46778, Note_on_c, 1, 43, 0
3, 46803, Note_on_c, 1, 31, 64
3, 46843, Note_on_c, 1, 31, 0
3, 46863, Note_on_c, 1, 31, 64
3, 46904, Note_on_c, 1, 31, 0
3, 46930, Note_on_c, 1, 34, 64
3, 47029, Note_on_c, 1, 34, 0
3, 47044, Note_on_c, 1, 36, 64
3, 47225, Note_on_c, 1, 36, 0
3, 47234, Note_on_c, 1, 43, 64
3, 47406, Note_on_c, 1, 43, 0
3, 47413, Note_on_c, 1, 31, 64
3, 47462, Note_on_c, 1, 31, 0
3, 47473, Note_on_c, 1, 36, 64
3, 47705, Note_on_c, 1, 36, 0
3, 47710, Note_on_c, 1, 43, 64
3, 47747, Note_on_c, 1, 43, 0
3, 47770, Note_on_c, 1, 43, 64
3, 47878, Note_on_c, 1, 43, 0
3, 47891, Note_on_c, 1, 31, 64
3, 47986, Note_on_c, 1, 31, 0
3, 48000, Note_on_c, 1, 36, 64
3, 48183, Note_on_c, 1, 43, 64
3, 48374, Note_on_c, 1, 36, 0
3, 48422, Note_on_c, 1, 35, 64
3, 48450, Note_on_c, 1, 43, 0
3, 48465, Note_on_c, 1, 35, 0
3, 48482, Note_on_c, 1, 36, 64
3, 48529, Note_on_c, 1, 36, 0
3, 48545, Note_on_c, 1, 36, 64
3, 48585, Note_on_c, 1, 36, 0
3, 48603, Note_on_c, 1, 43, 64
3, 48782, Note_on_c, 1, 43, 0
3, 48783, Note_on_c, 1, 31, 64
3, 48877, Note_on_c, 1, 31, 0
3, 48888, Note_on_c, 1, 35, 64
3, 48926, Note_on_c, 1, 35, 0
3, 48952, Note_on_c, 1, 36, 64
3, 49141, Note_on_c, 1, 36, 0
3, 49146, Note_on_c, 1, 43, 64
3, 49264, Note_on_c, 1, 31, 64
3, 49280, Note_on_c, 1, 43, 0
3, 49293, Note_on_c, 1, 31, 0
3, 49324, Note_on_c, 1, 36, 64
3, 49611, Note_on_c, 1, 36, 0
3, 49625, Note_on_c, 1, 43, 64
3, 49743, Note_on_c, 1, 43, 0
3, 49744, Note_on_c, 1, 31, 64
3, 49782, Note_on_c, 1, 31, 0
3, 49803, Note_on_c, 1, 35, 64
3, 49819, Note_on_c, 1, 35, 0
3, 49860, Note_on_c, 1, 35, 64
3, 49894, Note_on_c, 1, 35, 0
3, 49917, Note_on_c, 1, 36, 64
3, 50110, Note_on_c, 1, 36, 0
3, 50110, Note_on_c, 1, 43, 64
3, 50228, Note_on_c, 1, 31, 64
3, 50240, Note_on_c, 1, 43, 0
3, 50260, Note_on_c, 1, 31, 0
3, 50282, Note_on_c, 1, 35, 64
3, 50303, Note_on_c, 1, 35, 0
3, 50339, Note_on_c, 1, 35, 64
3, 50377, Note_on_c, 1, 35, 0
3, 50399, Note_on_c, 1, 36, 64
3, 50590, Note_on_c, 1, 36, 0
3, 50590, Note_on_c, 1, 43, 64
3, 50702, Note_on_c, 1, 31, 64
3, 50715, Note_on_c, 1, 43, 0
3, 50742, Note_on_c, 1, 31, 0
3, 50754, Note_on_c, 1, 35, 64
3, 50859, Note_on_c, 1, 35, 0
3, 50877, Note_on_c, 1, 36, 64
3, 51067, Note_on_c, 1, 43, 64
3, 51077, Note_on_c, 1, 36, 0
3, 51411, Note_on_c, 1, 43, 0
3, 51429, Note_on_c, 1, 52, 64
3, 51468, Note_on_c, 1, 52, 0
3, 51483, Note_on_c, 1, 43, 64
3, 51540, Note_on_c, 1, 43, 0
3, 51560, Note_on_c, 1, 43, 64
3, 51580, Note_on_c, 1, 43, 0
3, 51606, Note_on_c, 1, 36, 64
3, 51749, Note_on_c, 1, 36, 0
3, 51797, Note_on_c, 1, 40, 64
3, 51815, Note_on_c, 1, 40, 0
3, 51849, Note_on_c, 1, 41, 64
3, 52021, Note_on_c, 1, 41, 0
3, 52029, Note_on_c, 1, 35, 64
3, 52047, Note_on_c, 1, 35, 0
3, 52084, Note_on_c, 1, 36, 64
3, 52140, Note_on_c, 1, 36, 0
3, 52157, Note_on_c, 1, 36, 64
3, 52246, Note_on_c, 1, 36, 0
3, 52260, Note_on_c, 1, 41, 64
3, 52300, Note_on_c, 1, 41, 0
3, 52319, Note_on_c, 1, 41, 64
3, 52497, Note_on_c, 1, 41, 0
3, 52512, Note_on_c, 1, 36, 64
3, 52682, Note_on_c, 1, 36, 0
3, 52685, Note_on_c, 1, 29, 64
3, 52984, Note_on_c, 1, 36, 64
3, 52989, Note_on_c, 1, 29, 0
3, 53010, Note_on_c, 1, 36, 0
3, 53042, Note_on_c, 1, 36, 64
3, 53232, Note_on_c, 1, 44, 64
3, 53234, Note_on_c, 1, 36, 0
3, 53476, Note_on_c, 1, 36, 64
3, 53482, Note_on_c, 1, 44, 0
3, 53488, Note_on_c, 1, 36, 0
3, 53519, Note_on_c, 1, 43, 64
3, 53530, Note_on_c, 1, 43, 0
3, 53604, Note_on_c, 1, 36, 64
3, 53614, Note_on_c, 1, 36, 0
3, 53634, Note_on_c, 1, 42, 64
3, 53712, Note_on_c, 1, 42, 0
3, 53728, Note_on_c, 1, 40, 64
3, 53748, Note_on_c, 1, 40, 0
3, 53769, Note_on_c, 1, 41, 64
3, 53792, Note_on_c, 1, 41, 0
3, 53847, Note_on_c, 1, 36, 64
3, 53861, Note_on_c, 1, 36, 0
3, 53885, Note_on_c, 1, 33, 64
3, 54003, Note_on_c, 1, 33, 0
3, 54011, Note_on_c, 1, 34, 64
3, 54126, Note_on_c, 1, 34, 0
3, 54136, Note_on_c, 1, 35, 64
3, 54247, Note_on_c, 1, 35, 0
3, 54249, Note_on_c, 1, 36, 64
3, 54340, Note_on_c, 1, 34, 64
3, 54351, Note_on_c, 1, 36, 0
3, 54367, Note_on_c, 1, 34, 0
3, 54374, Note_on_c, 1, 43, 64
3, 54480, Note_on_c, 1, 43, 0
3, 54490, Note_on_c, 1, 41, 64
3, 54572, Note_on_c, 1, 36, 64
3, 54580, Note_on_c, 1, 41, 0
3, 54584, Note_on_c, 1, 36, 0
3, 54600, Note_on_c, 1, 50, 64
3, 54710, Note_on_c, 1, 50, 0
3, 54721, Note_on_c, 1, 48, 64
3, 54827, Note_on_c, 1, 48, 0
3, 54839, Note_on_c, 1, 46, 64
3, 54952, Note_on_c, 1, 46, 0
3, 54959, Note_on_c, 1, 45, 64
3, 55075, Note_on_c, 1, 45, 0
3, 55085, Note_on_c, 1, 43, 64
3, 55191, Note_on_c, 1, 43, 0
3, 55200, Note_on_c, 1, 41, 64
3, 55238, Note_on_c, 1, 41, 0
3, 55279, Note_on_c, 1, 39, 64
3, 55422, Note_on_c, 1, 39, 0
3, 55440, Note_on_c, 1, 38, 64
3, 55523, Note_on_c, 1, 36, 64
3, 55526, Note_on_c, 1, 38, 0
3, 55545, Note_on_c, 1, 36, 0
3, 55565, Note_on_c, 1, 35, 64
3, 55673, Note_on_c, 1, 35, 0
3, 55677, Note_on_c, 1, 34, 64
3, 55796, Note_on_c, 1, 41, 64
3, 55800, Note_on_c, 1, 34, 0
3, 55885, Note_on_c, 1, 34, 64
3, 55902, Note_on_c, 1, 34, 0
3, 55907, Note_on_c, 1, 41, 0
3, 55919, Note_on_c, 1, 50, 64
3, 55984, Note_on_c, 1, 51, 64
3, 55993, Note_on_c, 1, 51, 0
3, 56029, Note_on_c, 1, 50, 0
3, 56040, Note_on_c, 1, 46, 64
3, 56137, Note_on_c, 1, 46, 0
3, 56159, Note_on_c, 1, 48, 64
3, 56272, Note_on_c, 1, 48, 0
3, 56285, Note_on_c, 1, 45, 64
3, 56370, Note_on_c, 1, 41, 64
3, 56380, Note_on_c, 1, 41, 0
3, 56383, Note_on_c, 1, 45, 0
3, 56402, Note_on_c, 1, 47, 64
3, 56495, Note_on_c, 1, 47, 0
3, 56520, Note_on_c, 1, 45, 64
3, 56607, Note_on_c, 1, 39, 64
3, 56615, Note_on_c, 1, 39, 0
3, 56625, Note_on_c, 1, 45, 0
3, 56641, Note_on_c, 1, 46, 64
3, 56752, Note_on_c, 1, 46, 0
3, 56761, Note_on_c, 1, 40, 64
3, 56870, Note_on_c, 1, 40, 0
3, 56878, Note_on_c, 1, 41, 64
3, 56990, Note_on_c, 1, 41, 0
3, 56999, Note_on_c, 1, 37, 64
3, 57110, Note_on_c, 1, 37, 0
3, 57119, Note_on_c, 1, 38, 64
3, 57241, Note_on_c, 1, 38, 0
3, 57242, Note_on_c, 1, 33, 64
3, 57348, Note_on_c, 1, 33, 0
3, 57360, Note_on_c, 1, 34, 64
3, 57417, Note_on_c, 1, 34, 0
3, 57443, Note_on_c, 1, 37, 64
3, 57463, Note_on_c, 1, 37, 0
3, 57482, Note_on_c, 1, 38, 64
3, 57583, Note_on_c, 1, 38, 0
3, 57595, Note_on_c, 1, 39, 64
3, 57619, Note_on_c, 1, 39, 0
3, 57684, Note_on_c, 1, 39, 64
3, 57714, Note_on_c, 1, 39, 0
3, 57720, Note_on_c, 1, 41, 64
3, 57805, Note_on_c, 1, 39, 64
3, 57816, Note_on_c, 1, 41, 0
3, 57825, Note_on_c, 1, 39, 0
3, 57843, Note_on_c, 1, 43, 64
3, 57947, Note_on_c, 1, 43, 0
3, 57957, Note_on_c, 1, 46, 64
3, 58043, Note_on_c, 1, 41, 64
3, 58057, Note_on_c, 1, 41, 0
3, 58068, Note_on_c, 1, 46, 0
3, 58080, Note_on_c, 1, 53, 64
3, 58184, Note_on_c, 1, 53, 0
3, 58195, Note_on_c, 1, 52, 64
3, 58306, Note_on_c, 1, 52, 0
3, 58318, Note_on_c, 1, 51, 64
3, 58425, Note_on_c, 1, 51, 0
3, 58438, Note_on_c, 1, 49, 64
3, 58557, Note_on_c, 1, 49, 0
3, 58557, Note_on_c, 1, 48, 64
3, 58670, Note_on_c, 1, 48, 0
3, 58679, Note_on_c, 1, 46, 64
3, 58795, Note_on_c, 1, 46, 0
3, 58796, Note_on_c, 1, 44, 64
3, 58905, Note_on_c, 1, 44, 0
3, 58917, Note_on_c, 1, 43, 64
3, 59037, Note_on_c, 1, 43, 0
3, 59040, Note_on_c, 1, 41, 64
3, 59160, Note_on_c, 1, 41, 0
3, 59160, Note_on_c, 1, 39, 64
3, 59279, Note_on_c, 1, 46, 64
3, 59290, Note_on_c, 1, 39, 0
3, 59362, Note_on_c, 1, 39, 64
3, 59381, Note_on_c, 1, 46, 0
3, 59383, Note_on_c, 1, 39, 0
3, 59398, Note_on_c, 1, 45, 64
3, 59504, Note_on_c, 1, 45, 0
3, 59514, Note_on_c, 1, 44, 64
3, 59598, Note_on_c, 1, 39, 64
3, 59602, Note_on_c, 1, 44, 0
3, 59623, Note_on_c, 1, 39, 0
3, 59634, Note_on_c, 1, 32, 64
3, 59734, Note_on_c, 1, 32, 0
3, 59756, Note_on_c, 1, 36, 64
3, 59867, Note_on_c, 1, 36, 0
3, 59875, Note_on_c, 1, 38, 64
3, 59978, Note_on_c, 1, 38, 0
3, 59999, Note_on_c, 1, 39, 64
3, 60115, Note_on_c, 1, 46, 64
3, 60119, Note_on_c, 1, 39, 0
3, 60228, Note_on_c, 1, 46, 0
3, 60234, Note_on_c, 1, 44, 64
3, 60350, Note_on_c, 1, 32, 64
3, 60352, Note_on_c, 1, 44, 0
3, 60460, Note_on_c, 1, 32, 0
3, 60474, Note_on_c, 1, 31, 64
3, 60559, Note_on_c, 1, 32, 64
3, 60568, Note_on_c, 1, 32, 0
3, 60576, Note_on_c, 1, 31, 0
3, 60596, Note_on_c, 1, 43, 64
3, 60704, Note_on_c, 1, 43, 0
3, 60722, Note_on_c, 1, 38, 64
3, 60827, Note_on_c, 1, 38, 0
3, 60840, Note_on_c, 1, 34, 64
3, 60947, Note_on_c, 1, 34, 0
3, 60957, Note_on_c, 1, 35, 64
3, 61067, Note_on_c, 1, 35, 0
3, 61071, Note_on_c, 1, 38, 64
3, 61185, Note_on_c, 1, 38, 0
3, 61199, Note_on_c, 1, 37, 64
3, 61299, Note_on_c, 1, 37, 0
3, 61317, Note_on_c, 1, 35, 64
3, 61425, Note_on_c, 1, 35, 0
3, 61443, Note_on_c, 1, 36, 64
3, 61623, Note_on_c, 1, 36, 0
3, 61633, Note_on_c, 1, 43, 64
3, 61746, Note_on_c, 1, 35, 64
3, 61755, Note_on_c, 1, 43, 0
3, 61787, Note_on_c, 1, 35, 0
3, 61806, Note_on_c, 1, 36, 64
3, 62074, Note_on_c, 1, 36, 0
3, 62086, Note_on_c, 1, 43, 64
3, 62128, Note_on_c, 1, 43, 0
3, 62151, Note_on_c, 1, 43, 64
3, 62188, Note_on_c, 1, 43, 0
3, 62209, Note_on_c, 1, 43, 64
3, 62237, Note_on_c, 1, 43, 0
3, 62266, Note_on_c, 1, 31, 64
3, 62389, Note_on_c, 1, 31, 0
3, 62400, Note_on_c, 1, 36, 64
3, 62583, Note_on_c, 1, 43, 64
3, 62694, Note_on_c, 1, 36, 0
3, 62758, Note_on_c, 1, 35, 64
3, 62760, Note_on_c, 1, 43, 0
3, 62867, Note_on_c, 1, 35, 0
3, 62883, Note_on_c, 1, 36, 64
3, 63041, Note_on_c, 1, 36, 0
3, 63063, Note_on_c, 1, 43, 64
3, 63098, Note_on_c, 1, 43, 0
3, 63124, Note_on_c, 1, 43, 64
3, 63228, Note_on_c, 1, 43, 0
3, 63239, Note_on_c, 1, 36, 64
3, 63519, Note_on_c, 1, 36, 0
3, 63545, Note_on_c, 1, 43, 64
3, 63653, Note_on_c, 1, 43, 0
3, 63666, Note_on_c, 1, 34, 64
3, 63703, Note_on_c, 1, 34, 0
3, 63728, Note_on_c, 1, 34, 64
3, 63736, Note_on_c, 1, 34, 0
3, 63740, Note_on_c, 1, 35, 64
3, 63751, Note_on_c, 1, 35, 0
3, 63788, Note_on_c, 1, 35, 64
3, 63832, Note_on_c, 1, 35, 0
3, 63850, Note_on_c, 1, 36, 64
3, 64019, Note_on_c, 1, 36, 0
3, 64026, Note_on_c, 1, 43, 64
3, 64142, Note_on_c, 1, 31, 64
3, 64158, Note_on_c, 1, 43, 0
3, 64178, Note_on_c, 1, 31, 0
3, 64197, Note_on_c, 1, 34, 64
3, 64229, Note_on_c, 1, 34, 0
3, 64262, Note_on_c, 1, 35, 64
3, 64298, Note_on_c, 1, 35, 0
3, 64322, Note_on_c, 1, 36, 64
3, 64510, Note_on_c, 1, 43, 64
3, 64519, Note_on_c, 1, 36, 0
3, 64747, Note_on_c, 1, 36, 64
3, 64756, Note_on_c, 1, 43, 0
3, 64786, Note_on_c, 1, 36, 0
3, 64803, Note_on_c, 1, 36, 64
3, 64979, Note_on_c, 1, 43, 64
3, 65025, Note_on_c, 1, 43, 0
3, 65034, Note_on_c, 1, 52, 64
3, 65044, Note_on_c, 1, 36, 0
3, 65079, Note_on_c, 1, 52, 0
3, 65099, Note_on_c, 1, 52, 64
3, 65136, Note_on_c, 1, 52, 0
3, 65156, Note_on_c, 1, 43, 64
3, 65222, Note_on_c, 1, 36, 64
3, 65228, Note_on_c, 1, 43, 0
3, 65259, Note_on_c, 1, 36, 0
3, 65277, Note_on_c, 1, 36, 64
3, 65459, Note_on_c, 1, 43, 64
3, 65460, Note_on_c, 1, 36, 0
3, 65574, Note_on_c, 1, 34, 64
3, 65577, Note_on_c, 1, 43, 0
3, 65615, Note_on_c, 1, 34, 0
3, 65631, Note_on_c, 1, 35, 64
3, 65749, Note_on_c, 1, 36, 64
3, 65750, Note_on_c, 1, 35, 0
3, 65938, Note_on_c, 1, 36, 0
3, 65943, Note_on_c, 1, 43, 64
3, 66069, Note_on_c, 1, 34, 64
3, 66078, Note_on_c, 1, 43, 0
3, 66100, Note_on_c, 1, 34, 0
3, 66117, Note_on_c, 1, 35, 64
3, 66185, Note_on_c, 1, 35, 0
3, 66197, Note_on_c, 1, 36, 64
3, 66428, Note_on_c, 1, 36, 0
3, 66433, Note_on_c, 1, 43, 64
3, 66678, Note_on_c, 1, 35, 64
3, 66685, Note_on_c, 1, 43, 0
3, 66702, Note_on_c, 1, 35, 0
3, 66721, Note_on_c, 1, 36, 64
3, 66954, Note_on_c, 1, 36, 0
3, 66966, Note_on_c, 1, 43, 64
3, 66994, Note_on_c, 1, 43, 0
3, 67028, Note_on_c, 1, 43, 64
3, 67047, Note_on_c, 1, 43, 0
3, 67079, Note_on_c, 1, 36, 64
3, 67198, Note_on_c, 1, 36, 0
3, 67198, Note_on_c, 1, 29, 64
3, 67385, Note_on_c, 1, 29, 0
3, 67390, Note_on_c, 1, 36, 64
3, 67566, Note_on_c, 1, 44, 64
3, 67576, Note_on_c, 1, 36, 0
3, 67867, Note_on_c, 1, 36, 64
3, 67883, Note_on_c, 1, 44, 0
3, 67895, Note_on_c, 1, 36, 0
3, 67922, Note_on_c, 1, 36, 64
3, 68028, Note_on_c, 1, 36, 0
3, 68035, Note_on_c, 1, 29, 64
3, 68362, Note_on_c, 1, 29, 0
3, 68364, Note_on_c, 1, 36, 64
3, 68388, Note_on_c, 1, 36, 0
3, 68404, Note_on_c, 1, 41, 64
3, 68777, Note_on_c, 1, 41, 0
3, 68839, Note_on_c, 1, 36, 64
3, 68876, Note_on_c, 1, 36, 0
3, 68957, Note_on_c, 1, 34, 64
3, 68982, Note_on_c, 1, 34, 0
3, 69000, Note_on_c, 1, 35, 64
3, 69036, Note_on_c, 1, 35, 0
3, 69125, Note_on_c, 1, 36, 64
3, 69246, Note_on_c, 1, 39, 64
3, 69249, Note_on_c, 1, 36, 0
3, 69358, Note_on_c, 1, 39, 0
3, 69362, Note_on_c, 1, 40, 64
3, 69454, Note_on_c, 1, 36, 64
3, 69460, Note_on_c, 1, 40, 0
3, 69462, Note_on_c, 1, 36, 0
3, 69471, Note_on_c, 1, 45, 64
3, 69592, Note_on_c, 1, 45, 0
3, 69601, Note_on_c, 1, 43, 64
3, 69713, Note_on_c, 1, 43, 0
3, 69720, Note_on_c, 1, 49, 64
3, 69826, Note_on_c, 1, 49, 0
3, 69834, Note_on_c, 1, 48, 64
3, 69955, Note_on_c, 1, 48, 0
3, 69959, Note_on_c, 1, 46, 64
3, 70077, Note_on_c, 1, 44, 64
3, 70089, Note_on_c, 1, 46, 0
3, 70196, Note_on_c, 1, 43, 64
3, 70198, Note_on_c, 1, 44, 0
3, 70309, Note_on_c, 1, 43, 0
3, 70315, Note_on_c, 1, 41, 64
3, 70428, Note_on_c, 1, 41, 0
3, 70430, Note_on_c, 1, 40, 64
3, 70502, Note_on_c, 1, 40, 0
3, 70519, Note_on_c, 1, 37, 64
3, 70558, Note_on_c, 1, 37, 0
3, 70564, Note_on_c, 1, 36, 64
3, 70677, Note_on_c, 1, 37, 64
3, 70678, Note_on_c, 1, 36, 0
3, 70795, Note_on_c, 1, 37, 0
3, 70799, Note_on_c, 1, 36, 64
3, 70826, Note_on_c, 1, 36, 0
3, 70882, Note_on_c, 1, 34, 64
3, 70904, Note_on_c, 1, 34, 0
3, 70919, Note_on_c, 1, 35, 64
3, 71031, Note_on_c, 1, 35, 0
3, 71035, Note_on_c, 1, 36, 64
3, 71137, Note_on_c, 1, 36, 0
3, 71155, Note_on_c, 1, 37, 64
3, 71271, Note_on_c, 1, 37, 0
3, 71279, Note_on_c, 1, 36, 64
3, 71387, Note_on_c, 1, 36, 0
3, 71396, Note_on_c, 1, 35, 64
3, 71517, Note_on_c, 1, 35, 0
3, 71518, Note_on_c, 1, 36, 64
3, 71628, Note_on_c, 1, 36, 0
3, 71635, Note_on_c, 1, 37, 64
3, 71754, Note_on_c, 1, 37, 0
3, 71755, Note_on_c, 1, 40, 64
3, 71863, Note_on_c, 1, 40, 0
3, 71874, Note_on_c, 1, 41, 64
3, 71994, Note_on_c, 1, 41, 0
3, 72001, Note_on_c, 1, 43, 64
3, 72107, Note_on_c, 1, 43, 0
3, 72117, Note_on_c, 1, 44, 64
3, 72229, Note_on_c, 1, 44, 0
3, 72240, Note_on_c, 1, 45, 64
3, 72343, Note_on_c, 1, 45, 0
3, 72354, Note_on_c, 1, 46, 64
3, 72467, Note_on_c, 1, 46, 0
3, 72474, Note_on_c, 1, 47, 64
3, 72593, Note_on_c, 1, 47, 0
3, 72596, Note_on_c, 1, 48, 64
3, 72701, Note_on_c, 1, 48, 0
3, 72713, Note_on_c, 1, 49, 64
3, 72785, Note_on_c, 1, 49, 0
3, 72796, Note_on_c, 1, 46, 64
3, 72825, Note_on_c, 1, 46, 0
3, 72834, Note_on_c, 1, 47, 64
3, 72947, Note_on_c, 1, 47, 0
3, 72954, Note_on_c, 1, 48, 64
3, 73067, Note_on_c, 1, 48, 0
3, 73081, Note_on_c, 1, 42, 64
3, 73188, Note_on_c, 1, 42, 0
3, 73194, Note_on_c, 1, 43, 64
3, 73308, Note_on_c, 1, 39, 64
3, 73309, Note_on_c, 1, 43, 0
3, 73434, Note_on_c, 1, 40, 64
3, 73435, Note_on_c, 1, 39, 0
3, 73558, Note_on_c, 1, 40, 0
3, 73559, Note_on_c, 1, 36, 64
3, 73668, Note_on_c, 1, 36, 0
3, 73671, Note_on_c, 1, 37, 64
3, 73790, Note_on_c, 1, 37, 0
3, 73793, Note_on_c, 1, 39, 64
3, 73860, Note_on_c, 1, 39, 0
3, 73874, Note_on_c, 1, 37, 64
3, 73899, Note_on_c, 1, 37, 0
3, 73922, Note_on_c, 1, 36, 64
3, 74036, Note_on_c, 1, 36, 0
3, 74039, Note_on_c, 1, 37, 64
3, 74156, Note_on_c, 1, 37, 0
3, 74156, Note_on_c, 1, 39, 64
3, 74279, Note_on_c, 1, 39, 0
3, 74279, Note_on_c, 1, 37, 64
3, 74391, Note_on_c, 1, 37, 0
3, 74395, Note_on_c, 1, 36, 64
3, 74513, Note_on_c, 1, 37, 64
3, 74523, Note_on_c, 1, 36, 0
3, 74634, Note_on_c, 1, 39, 64
3, 74641, Note_on_c, 1, 37, 0
3, 74723, Note_on_c, 1, 37, 64
3, 74738, Note_on_c, 1, 37, 0
3, 74745, Note_on_c, 1, 39, 0
3, 74759, Note_on_c, 1, 40, 64
3, 74880, Note_on_c, 1, 41, 64
3, 74885, Note_on_c, 1, 40, 0
3, 74964, Note_on_c, 1, 41, 0
3, 74964, Note_on_c, 1, 36, 64
3, 74981, Note_on_c, 1, 36, 0
3, 75000, Note_on_c, 1, 32, 64
3, 75118, Note_on_c, 1, 32, 0
3, 75119, Note_on_c, 1, 31, 64
3, 75238, Note_on_c, 1, 31, 0
3, 75244, Note_on_c, 1, 30, 64
3, 75356, Note_on_c, 1, 30, 0
3, 75364, Note_on_c, 1, 29, 64
3, 75449, Note_on_c, 1, 36, 64
3, 75461, Note_on_c, 1, 29, 0
3, 75466, Note_on_c, 1, 36, 0
3, 75482, Note_on_c, 1, 43, 64
3, 75598, Note_on_c, 1, 43, 0
3, 75600, Note_on_c, 1, 41, 64
3, 75710, Note_on_c, 1, 41, 0
3, 75720, Note_on_c, 1, 49, 64
3, 75829, Note_on_c, 1, 49, 0
3, 75832, Note_on_c, 1, 48, 64
3, 75941, Note_on_c, 1, 48, 0
3, 75956, Note_on_c, 1, 46, 64
3, 76077, Note_on_c, 1, 44, 64
3, 76093, Note_on_c, 1, 46, 0
3, 76179, Note_on_c, 1, 44, 0
3, 76193, Note_on_c, 1, 43, 64
3, 76303, Note_on_c, 1, 43, 0
3, 76310, Note_on_c, 1, 41, 64
3, 76434, Note_on_c, 1, 38, 64
3, 76541, Note_on_c, 1, 41, 0
3, 76553, Note_on_c, 1, 38, 0
3, 76555, Note_on_c, 1, 37, 64
3, 76669, Note_on_c, 1, 37, 0
3, 76674, Note_on_c, 1, 35, 64
3, 76791, Note_on_c, 1, 35, 0
3, 76793, Note_on_c, 1, 36, 64
3, 76861, Note_on_c, 1, 36, 0
3, 76881, Note_on_c, 1, 36, 64
3, 76903, Note_on_c, 1, 36, 0
3, 76921, Note_on_c, 1, 37, 64
3, 77034, Note_on_c, 1, 37, 0
3, 77041, Note_on_c, 1, 40, 64
3, 77157, Note_on_c, 1, 40, 0
3, 77161, Note_on_c, 1, 43, 64
3, 77272, Note_on_c, 1, 43, 0
3, 77281, Note_on_c, 1, 46, 64
3, 77393, Note_on_c, 1, 46, 0
3, 77397, Note_on_c, 1, 47, 64
3, 77514, Note_on_c, 1, 47, 0
3, 77519, Note_on_c, 1, 48, 64
3, 77611, Note_on_c, 1, 43, 64
3, 77618, Note_on_c, 1, 48, 0
3, 77620, Note_on_c, 1, 43, 0
3, 77637, Note_on_c, 1, 49, 64
3, 77739, Note_on_c, 1, 49, 0
3, 77754, Note_on_c, 1, 48, 64
3, 77870, Note_on_c, 1, 48, 0
3, 77875, Note_on_c, 1, 46, 64
3, 77994, Note_on_c, 1, 44, 64
3, 77996, Note_on_c, 1, 46, 0
3, 78111, Note_on_c, 1, 44, 0
3, 78116, Note_on_c, 1, 43, 64
3, 78236, Note_on_c, 1, 43, 0
3, 78236, Note_on_c, 1, 41, 64
3, 78348, Note_on_c, 1, 41, 0
3, 78356, Note_on_c, 1, 40, 64
3, 78475, Note_on_c, 1, 43, 64
3, 78476, Note_on_c, 1, 40, 0
3, 78557, Note_on_c, 1, 40, 64
3, 78569, Note_on_c, 1, 40, 0
3, 78583, Note_on_c, 1, 43, 0
3, 78598, Note_on_c, 1, 41, 64
3, 78699, Note_on_c, 1, 41, 0
3, 78719, Note_on_c, 1, 40, 64
3, 78836, Note_on_c, 1, 40, 0
3, 78840, Note_on_c, 1, 37, 64
3, 78946, Note_on_c, 1, 37, 0
3, 78956, Note_on_c, 1, 36, 64
3, 79029, Note_on_c, 1, 36, 0
3, 79045, Note_on_c, 1, 36, 64
3, 79078, Note_on_c, 1, 36, 0
3, 79078, Note_on_c, 1, 34, 64
3, 79189, Note_on_c, 1, 34, 0
3, 79195, Note_on_c, 1, 35, 64
3, 79314, Note_on_c, 1, 35, 0
3, 79314, Note_on_c, 1, 36, 64
3, 79398, Note_on_c, 1, 34, 64
3, 79435, Note_on_c, 1, 36, 0
3, 79436, Note_on_c, 1, 40, 64
3, 79438, Note_on_c, 1, 34, 0
3, 79550, Note_on_c, 1, 40, 0
3, 79554, Note_on_c, 1, 37, 64
3, 79674, Note_on_c, 1, 36, 64
3, 79675, Note_on_c, 1, 37, 0
3, 79758, Note_on_c, 1, 37, 64
3, 79783, Note_on_c, 1, 36, 0
3, 79792, Note_on_c, 1, 37, 0
3, 79797, Note_on_c, 1, 43, 64
3, 79909, Note_on_c, 1, 43, 0
3, 79911, Note_on_c, 1, 41, 64
3, 80021, Note_on_c, 1, 41, 0
3, 80037, Note_on_c, 1, 39, 64
3, 80153, Note_on_c, 1, 39, 0
3, 80155, Note_on_c, 1, 40, 64
3, 80277, Note_on_c, 1, 40, 0
3, 80277, Note_on_c, 1, 35, 64
3, 80397, Note_on_c, 1, 36, 64
3, 80401, Note_on_c, 1, 35, 0
3, 80487, Note_on_c, 1, 34, 64
3, 80511, Note_on_c, 1, 36, 0
3, 80514, Note_on_c, 1, 50, 64
3, 80517, Note_on_c, 1, 34, 0
3, 80635, Note_on_c, 1, 50, 0
3, 80637, Note_on_c, 1, 49, 64
3, 80755, Note_on_c, 1, 49, 0
3, 80764, Note_on_c, 1, 48, 64
3, 80875, Note_on_c, 1, 48, 0
3, 80881, Note_on_c, 1, 46, 64
3, 80996, Note_on_c, 1, 46, 0
3, 81004, Note_on_c, 1, 47, 64
3, 81122, Note_on_c, 1, 48, 64
3, 81129, Note_on_c, 1, 47, 0
3, 81239, Note_on_c, 1, 43, 64
3, 81242, Note_on_c, 1, 48, 0
3, 81358, Note_on_c, 1, 46, 64
3, 81368, Note_on_c, 1, 43, 0
3, 81475, Note_on_c, 1, 46, 0
3, 81478, Note_on_c, 1, 44, 64
3, 81582, Note_on_c, 1, 44, 0
3, 81596, Note_on_c, 1, 43, 64
3, 81696, Note_on_c, 1, 43, 0
3, 81713, Note_on_c, 1, 41, 64
3, 81813, Note_on_c, 1, 41, 0
3, 81834, Note_on_c, 1, 40, 64
3, 81948, Note_on_c, 1, 40, 0
3, 81950, Note_on_c, 1, 37, 64
3, 82071, Note_on_c, 1, 37, 0
3, 82072, Note_on_c, 1, 36, 64
3, 82191, Note_on_c, 1, 36, 0
3, 82191, Note_on_c, 1, 34, 64
3, 82311, Note_on_c, 1, 34, 0
3, 82311, Note_on_c, 1, 32, 64
3, 82369, Note_on_c, 1, 32, 0
3, 82395, Note_on_c, 1, 32, 64
3, 82419, Note_on_c, 1, 32, 0
3, 82433, Note_on_c, 1, 31, 64
3, 82547, Note_on_c, 1, 31, 0
3, 82553, Note_on_c, 1, 29, 64
3, 82672, Note_on_c, 1, 29, 0
3, 82673, Note_on_c, 1, 36, 64
3, 82791, Note_on_c, 1, 46, 64
3, 82798, Note_on_c, 1, 36, 0
3, 82910, Note_on_c, 1, 46, 0
3, 82917, Note_on_c, 1, 44, 64
3, 83035, Note_on_c, 1, 43, 64
3, 83050, Note_on_c, 1, 44, 0
3, 83150, Note_on_c, 1, 43, 0
3, 83159, Note_on_c, 1, 42, 64
3, 83260, Note_on_c, 1, 42, 0
3, 83276, Note_on_c, 1, 41, 64
3, 83360, Note_on_c, 1, 35, 64
3, 83366, Note_on_c, 1, 41, 0
3, 83384, Note_on_c, 1, 35, 0
3, 83402, Note_on_c, 1, 36, 64
3, 83481, Note_on_c, 1, 36, 0
3, 83483, Note_on_c, 1, 40, 64
3, 83507, Note_on_c, 1, 40, 0
3, 83520, Note_on_c, 1, 41, 64
3, 83577, Note_on_c, 1, 41, 0
3, 83599, Note_on_c, 1, 41, 64
3, 83621, Note_on_c, 1, 41, 0
3, 83630, Note_on_c, 1, 36, 64
3, 83740, Note_on_c, 1, 36, 0
3, 83754, Note_on_c, 1, 32, 64
3, 83864, Note_on_c, 1, 32, 0
3, 83872, Note_on_c, 1, 31, 64
3, 83982, Note_on_c, 1, 31, 0
3, 83993, Note_on_c, 1, 29, 64
3, 84103, Note_on_c, 1, 29, 0
3, 84115, Note_on_c, 1, 34, 64
3, 84232, Note_on_c, 1, 34, 0
3, 84235, Note_on_c, 1, 35, 64
3, 84322, Note_on_c, 1, 39, 64
3, 84335, Note_on_c, 1, 35, 0
3, 84352, Note_on_c, 1, 39, 0
3, 84361, Note_on_c, 1, 40, 64
3, 84441, Note_on_c, 1, 35, 64
3, 84452, Note_on_c, 1, 35, 0
3, 84466, Note_on_c, 1, 40, 0
3, 84477, Note_on_c, 1, 41, 64
3, 84568, Note_on_c, 1, 40, 64
3, 84573, Note_on_c, 1, 40, 0
3, 84577, Note_on_c, 1, 41, 0
3, 84594, Note_on_c, 1, 46, 64
3, 84710, Note_on_c, 1, 46, 0
3, 84716, Note_on_c, 1, 45, 64
3, 84823, Note_on_c, 1, 45, 0
3, 84835, Note_on_c, 1, 50, 64
3, 84947, Note_on_c, 1, 50, 0
3, 84954, Note_on_c, 1, 48, 64
3, 85064, Note_on_c, 1, 48, 0
3, 85076, Note_on_c, 1, 54, 64
3, 85184, Note_on_c, 1, 54, 0
3, 85192, Note_on_c, 1, 53, 64
3, 85254, Note_on_c, 1, 53, 0
3, 85277, Note_on_c, 1, 53, 64
3, 85314, Note_on_c, 1, 53, 0
3, 85320, Note_on_c, 1, 51, 64
3, 85437, Note_on_c, 1, 51, 0
3, 85442, Note_on_c, 1, 50, 64
3, 85549, Note_on_c, 1, 50, 0
3, 85560, Note_on_c, 1, 48, 64
3, 85670, Note_on_c, 1, 48, 0
3, 85679, Note_on_c, 1, 46, 64
3, 85789, Note_on_c, 1, 46, 0
3, 85795, Note_on_c, 1, 45, 64
3, 85912, Note_on_c, 1, 45, 0
3, 85918, Note_on_c, 1, 43, 64
3, 86028, Note_on_c, 1, 43, 0
3, 86037, Note_on_c, 1, 41, 64
3, 86160, Note_on_c, 1, 48, 64
3, 86163, Note_on_c, 1, 41, 0
3, 86239, Note_on_c, 1, 41, 64
3, 86255, Note_on_c, 1, 41, 0
3, 86258, Note_on_c, 1, 48, 0
3, 86276, Note_on_c, 1, 47, 64
3, 86388, Note_on_c, 1, 47, 0
3, 86393, Note_on_c, 1, 46, 64
3, 86478, Note_on_c, 1, 41, 64
3, 86497, Note_on_c, 1, 41, 0
3, 86498, Note_on_c, 1, 46, 0
3, 86517, Note_on_c, 1, 38, 64
3, 86631, Note_on_c, 1, 38, 0
3, 86635, Note_on_c, 1, 39, 64
3, 86743, Note_on_c, 1, 39, 0
3, 86751, Note_on_c, 1, 40, 64
3, 86853, Note_on_c, 1, 40, 0
3, 86853, Note_on_c, 1, 39, 64
3, 86873, Note_on_c, 1, 39, 0
3, 86876, Note_on_c, 1, 41, 64
3, 86991, Note_on_c, 1, 41, 0
3, 86992, Note_on_c, 1, 38, 64
3, 87115, Note_on_c, 1, 32, 64
3, 87116, Note_on_c, 1, 38, 0
3, 87232, Note_on_c, 1, 32, 0
3, 87237, Note_on_c, 1, 33, 64
3, 87351, Note_on_c, 1, 33, 0
3, 87358, Note_on_c, 1, 34, 64
3, 87481, Note_on_c, 1, 36, 64
3, 87487, Note_on_c, 1, 34, 0
3, 87593, Note_on_c, 1, 36, 0
3, 87597, Note_on_c, 1, 37, 64
3, 87710, Note_on_c, 1, 37, 0
3, 87718, Note_on_c, 1, 38, 64
3, 87812, Note_on_c, 1, 37, 64
3, 87833, Note_on_c, 1, 37, 0
3, 87838, Note_on_c, 1, 43, 64
3, 87839, Note_on_c, 1, 38, 0
3, 87945, Note_on_c, 1, 43, 0
3, 87960, Note_on_c, 1, 42, 64
3, 88069, Note_on_c, 1, 42, 0
3, 88078, Note_on_c, 1, 41, 64
3, 88189, Note_on_c, 1, 41, 0
3, 88198, Note_on_c, 1, 38, 64
3, 88314, Note_on_c, 1, 38, 0
3, 88320, Note_on_c, 1, 39, 64
3, 88373, Note_on_c, 1, 39, 0
3, 88400, Note_on_c, 1, 39, 64
3, 88442, Note_on_c, 1, 41, 64
3, 88443, Note_on_c, 1, 39, 0
3, 88560, Note_on_c, 1, 41, 0
3, 88560, Note_on_c, 1, 42, 64
3, 88674, Note_on_c, 1, 42, 0
3, 88682, Note_on_c, 1, 43, 64
3, 88763, Note_on_c, 1, 41, 64
3, 88775, Note_on_c, 1, 41, 0
3, 88792, Note_on_c, 1, 43, 0
3, 88801, Note_on_c, 1, 51, 64
3, 88924, Note_on_c, 1, 50, 64
3, 88944, Note_on_c, 1, 51, 0
3, 89024, Note_on_c, 1, 50, 0
3, 89040, Note_on_c, 1, 49, 64
3, 89154, Note_on_c, 1, 49, 0
3, 89159, Note_on_c, 1, 46, 64
3, 89262, Note_on_c, 1, 46, 0
3, 89274, Note_on_c, 1, 43, 64
3, 89395, Note_on_c, 1, 43, 0
3, 89400, Note_on_c, 1, 41, 64
3, 89503, Note_on_c, 1, 41, 0
3, 89520, Note_on_c, 1, 39, 64
3, 89639, Note_on_c, 1, 37, 64
3, 89645, Note_on_c, 1, 39, 0
3, 89757, Note_on_c, 1, 37, 0
3, 89757, Note_on_c, 1, 38, 64
3, 89876, Note_on_c, 1, 38, 0
3, 89878, Note_on_c, 1, 39, 64
3, 89999, Note_on_c, 1, 39, 0
3, 89999, Note_on_c, 1, 37, 64
3, 90118, Note_on_c, 1, 37, 0
3, 90126, Note_on_c, 1, 36, 64
3, 90150, Note_on_c, 1, 36, 0
3, 90206, Note_on_c, 1, 34, 64
3, 90226, Note_on_c, 1, 34, 0
3, 90245, Note_on_c, 1, 32, 64
3, 90349, Note_on_c, 1, 32, 0
3, 90356, Note_on_c, 1, 36, 64
3, 90478, Note_on_c, 1, 36, 0
3, 90479, Note_on_c, 1, 46, 64
3, 90595, Note_on_c, 1, 46, 0
3, 90603, Note_on_c, 1, 44, 64
3, 90713, Note_on_c, 1, 44, 0
3, 90718, Note_on_c, 1, 43, 64
3, 90829, Note_on_c, 1, 43, 0
3, 90839, Note_on_c, 1, 41, 64
3, 90953, Note_on_c, 1, 41, 0
3, 90960, Note_on_c, 1, 39, 64
3, 91076, Note_on_c, 1, 42, 64
3, 91077, Note_on_c, 1, 39, 0
3, 91189, Note_on_c, 1, 42, 0
3, 91195, Note_on_c, 1, 43, 64
3, 91285, Note_on_c, 1, 37, 64
3, 91294, Note_on_c, 1, 43, 0
3, 91304, Note_on_c, 1, 37, 0
3, 91323, Note_on_c, 1, 32, 64
3, 91422, Note_on_c, 1, 32, 0
3, 91440, Note_on_c, 1, 30, 64
3, 91549, Note_on_c, 1, 30, 0
3, 91560, Note_on_c, 1, 31, 64
3, 91676, Note_on_c, 1, 31, 0
3, 91678, Note_on_c, 1, 37, 64
3, 91758, Note_on_c, 1, 34, 64
3, 91790, Note_on_c, 1, 34, 0
3, 91790, Note_on_c, 1, 37, 0
3, 91797, Note_on_c, 1, 43, 64
3, 91908, Note_on_c, 1, 43, 0
3, 91916, Note_on_c, 1, 37, 64
3, 92023, Note_on_c, 1, 37, 0
3, 92037, Note_on_c, 1, 35, 64
3, 92149, Note_on_c, 1, 35, 0
3, 92159, Note_on_c, 1, 36, 64
3, 92246, Note_on_c, 1, 34, 64
3, 92265, Note_on_c, 1, 34, 0
3, 92272, Note_on_c, 1, 36, 0
3, 92275, Note_on_c, 1, 49, 64
3, 92400, Note_on_c, 1, 48, 64
3, 92402, Note_on_c, 1, 49, 0
3, 92510, Note_on_c, 1, 48, 0
3, 92519, Note_on_c, 1, 46, 64
3, 92629, Note_on_c, 1, 46, 0
3, 92635, Note_on_c, 1, 44, 64
3, 92663, Note_on_c, 1, 44, 0
3, 92714, Note_on_c, 1, 44, 64
3, 92746, Note_on_c, 1, 44, 0
3, 92753, Note_on_c, 1, 43, 64
3, 92866, Note_on_c, 1, 43, 0
3, 92874, Note_on_c, 1, 41, 64
3, 92981, Note_on_c, 1, 41, 0
3, 92993, Note_on_c, 1, 40, 64
3, 93122, Note_on_c, 1, 40, 0
3, 93122, Note_on_c, 1, 37, 64
3, 93238, Note_on_c, 1, 35, 64
3, 93239, Note_on_c, 1, 37, 0
3, 93358, Note_on_c, 1, 35, 0
3, 93364, Note_on_c, 1, 36, 64
3, 93472, Note_on_c, 1, 36, 0
3, 93480, Note_on_c, 1, 37, 64
3, 93588, Note_on_c, 1, 37, 0
3, 93595, Note_on_c, 1, 40, 64
3, 93675, Note_on_c, 1, 36, 64
3, 93682, Note_on_c, 1, 36, 0
3, 93695, Note_on_c, 1, 40, 0
3, 93712, Note_on_c, 1, 43, 64
3, 93820, Note_on_c, 1, 43, 0
3, 93841, Note_on_c, 1, 46, 64
3, 93921, Note_on_c, 1, 43, 64
3, 93933, Note_on_c, 1, 43, 0
3, 93940, Note_on_c, 1, 46, 0
3, 93957, Note_on_c, 1, 49, 64
3, 94070, Note_on_c, 1, 49, 0
3, 94075, Note_on_c, 1, 48, 64
3, 94184, Note_on_c, 1, 48, 0
3, 94197, Note_on_c, 1, 52, 64
3, 94308, Note_on_c, 1, 52, 0
3, 94321, Note_on_c, 1, 49, 64
3, 94438, Note_on_c, 1, 48, 64
3, 94448, Note_on_c, 1, 49, 0
3, 94560, Note_on_c, 1, 46, 64
3, 94569, Note_on_c, 1, 48, 0
3, 94672, Note_on_c, 1, 46, 0
3, 94678, Note_on_c, 1, 44, 64
3, 94796, Note_on_c, 1, 44, 0
3, 94796, Note_on_c, 1, 43, 64
3, 94824, Note_on_c, 1, 43, 0
3, 94884, Note_on_c, 1, 49, 64
3, 94914, Note_on_c, 1, 49, 0
3, 94926, Note_on_c, 1, 48, 64
3, 95028, Note_on_c, 1, 48, 0
3, 95040, Note_on_c, 1, 46, 64
3, 95159, Note_on_c, 1, 46, 0
3, 95159, Note_on_c, 1, 44, 64
3, 95263, Note_on_c, 1, 44, 0
3, 95278, Note_on_c, 1, 43, 64
3, 95390, Note_on_c, 1, 43, 0
3, 95398, Note_on_c, 1, 41, 64
3, 95502, Note_on_c, 1, 41, 0
3, 95512, Note_on_c, 1, 40, 64
3, 95597, Note_on_c, 1, 37, 64
3, 95602, Note_on_c, 1, 40, 0
3, 95765, Note_on_c, 1, 34, 64
3, 95767, Note_on_c, 1, 37, 0
3, 95821, Note_on_c, 1, 34, 0
3, 95839, Note_on_c, 1, 34, 64
3, 95875, Note_on_c, 1, 34, 0
3, 95880, Note_on_c, 1, 35, 64
3, 95988, Note_on_c, 1, 35, 0
3, 95993, Note_on_c, 1, 36, 64
3, 96080, Note_on_c, 1, 34, 64
3, 96090, Note_on_c, 1, 36, 0
3, 96100, Note_on_c, 1, 34, 0
3, 96115, Note_on_c, 1, 37, 64
3, 96227, Note_on_c, 1, 37, 0
3, 96240, Note_on_c, 1, 36, 64
3, 96307, Note_on_c, 1, 36, 0
3, 96323, Note_on_c, 1, 34, 64
3, 96348, Note_on_c, 1, 34, 0
3, 96360, Note_on_c, 1, 35, 64
3, 96469, Note_on_c, 1, 35, 0
3, 96472, Note_on_c, 1, 36, 64
3, 96562, Note_on_c, 1, 34, 64
3, 96574, Note_on_c, 1, 36, 0
3, 96586, Note_on_c, 1, 34, 0
3, 96594, Note_on_c, 1, 39, 64
3, 96708, Note_on_c, 1, 39, 0
3, 96712, Note_on_c, 1, 40, 64
3, 96816, Note_on_c, 1, 40, 0
3, 96834, Note_on_c, 1, 43, 64
3, 96938, Note_on_c, 1, 43, 0
3, 96957, Note_on_c, 1, 49, 64
3, 97073, Note_on_c, 1, 49, 0
3, 97075, Note_on_c, 1, 48, 64
3, 97182, Note_on_c, 1, 48, 0
3, 97198, Note_on_c, 1, 46, 64
3, 97313, Note_on_c, 1, 46, 0
3, 97320, Note_on_c, 1, 44, 64
3, 97418, Note_on_c, 1, 44, 0
3, 97434, Note_on_c, 1, 43, 64
3, 97548, Note_on_c, 1, 43, 0
3, 97554, Note_on_c, 1, 41, 64
3, 97668, Note_on_c, 1, 41, 0
3, 97674, Note_on_c, 1, 39, 64
3, 97794, Note_on_c, 1, 39, 0
3, 97795, Note_on_c, 1, 40, 64
3, 97881, Note_on_c, 1, 36, 64
3, 97890, Note_on_c, 1, 36, 0
3, 97900, Note_on_c, 1, 40, 0
3, 97916, Note_on_c, 1, 41, 64
3, 97992, Note_on_c, 1, 41, 0
3, 98003, Note_on_c, 1, 36, 64
3, 98018, Note_on_c, 1, 36, 0
3, 98039, Note_on_c, 1, 32, 64
3, 98160, Note_on_c, 1, 31, 64
3, 98163, Note_on_c, 1, 32, 0
3, 98268, Note_on_c, 1, 31, 0
3, 98279, Note_on_c, 1, 30, 64
3, 98394, Note_on_c, 1, 30, 0
3, 98398, Note_on_c, 1, 29, 64
3, 98577, Note_on_c, 1, 29, 0
3, 98596, Note_on_c, 1, 29, 64
3, 98722, Note_on_c, 1, 36, 64
3, 98734, Note_on_c, 1, 36, 0
3, 98760, Note_on_c, 1, 44, 64
3, 98846, Note_on_c, 1, 29, 0
3, 98878, Note_on_c, 1, 43, 64
3, 98889, Note_on_c, 1, 44, 0
3, 98965, Note_on_c, 1, 36, 64
3, 98974, Note_on_c, 1, 36, 0
3, 98982, Note_on_c, 1, 43, 0
3, 98989, Note_on_c, 1, 42, 64
3, 99103, Note_on_c, 1, 42, 0
3, 99116, Note_on_c, 1, 41, 64
3, 99198, Note_on_c, 1, 36, 64
3, 99211, Note_on_c, 1, 41, 0
3, 99235, Note_on_c, 1, 36, 0
3, 99237, Note_on_c, 1, 30, 64
3, 99343, Note_on_c, 1, 30, 0
3, 99358, Note_on_c, 1, 29, 64
3, 99543, Note_on_c, 1, 29, 0
3, 99558, Note_on_c, 1, 29, 64
3, 99688, Note_on_c, 1, 29, 0
3, 99844, Note_on_c, 1, 48, 64
3, 100017, Note_on_c, 1, 48, 0
3, 100029, Note_on_c, 1, 43, 64
3, 100202, Note_on_c, 1, 43, 0
3, 100206, Note_on_c, 1, 36, 64
3, 100448, Note_on_c, 1, 36, 0
3, 100508, Note_on_c, 1, 34, 64
3, 100514, Note_on_c, 1, 33, 64
3, 100525, Note_on_c, 1, 33, 0
3, 100527, Note_on_c, 1, 34, 0
3, 100563, Note_on_c, 1, 34, 64
3, 100582, Note_on_c, 1, 34, 0
3, 100617, Note_on_c, 1, 34, 64
3, 100651, Note_on_c, 1, 34, 0
3, 100676, Note_on_c, 1, 35, 64
3, 100788, Note_on_c, 1, 35, 0
3, 100796, Note_on_c, 1, 36, 64
3, 100981, Note_on_c, 1, 43, 64
3, 100999, Note_on_c, 1, 36, 0
3, 101212, Note_on_c, 1, 35, 64
3, 101233, Note_on_c, 1, 43, 0
3, 101254, Note_on_c, 1, 35, 0
3, 101272, Note_on_c, 1, 36, 64
3, 101456, Note_on_c, 1, 43, 64
3, 101468, Note_on_c, 1, 36, 0
3, 101493, Note_on_c, 1, 43, 0
3, 101516, Note_on_c, 1, 43, 64
3, 101549, Note_on_c, 1, 43, 0
3, 101580, Note_on_c, 1, 34, 64
3, 101608, Note_on_c, 1, 34, 0
3, 101640, Note_on_c, 1, 35, 64
3, 101746, Note_on_c, 1, 35, 0
3, 101754, Note_on_c, 1, 36, 64
3, 101941, Note_on_c, 1, 43, 64
3, 101950, Note_on_c, 1, 36, 0
3, 102061, Note_on_c, 1, 43, 0
3, 102065, Note_on_c, 1, 34, 64
3, 102112, Note_on_c, 1, 34, 0
3, 102125, Note_on_c, 1, 36, 64
3, 102309, Note_on_c, 1, 43, 64
3, 102428, Note_on_c, 1, 34, 64
3, 102452, Note_on_c, 1, 36, 0
3, 102455, Note_on_c, 1, 34, 0
3, 102468, Note_on_c, 1, 43, 0
3, 102484, Note_on_c, 1, 52, 64
3, 102529, Note_on_c, 1, 52, 0
3, 102549, Note_on_c, 1, 52, 64
3, 102592, Note_on_c, 1, 52, 0
3, 102601, Note_on_c, 1, 43, 64
3, 102660, Note_on_c, 1, 43, 0
3, 102670, Note_on_c, 1, 36, 64
3, 102703, Note_on_c, 1, 36, 0
3, 102726, Note_on_c, 1, 36, 64
3, 102913, Note_on_c, 1, 43, 64
3, 102949, Note_on_c, 1, 43, 0
3, 102973, Note_on_c, 1, 43, 64
3, 102991, Note_on_c, 1, 36, 0
3, 103142, Note_on_c, 1, 36, 64
3, 103191, Note_on_c, 1, 43, 0
3, 103261, Note_on_c, 1, 34, 64
3, 103269, Note_on_c, 1, 36, 0
3, 103469, Note_on_c, 1, 34, 0
3, 103501, Note_on_c, 1, 34, 64
3, 103552, Note_on_c, 1, 34, 0
3, 103558, Note_on_c, 1, 35, 64
3, 103577, Note_on_c, 1, 35, 0
3, 103616, Note_on_c, 1, 35, 64
3, 103657, Note_on_c, 1, 35, 0
3, 103673, Note_on_c, 1, 36, 64
3, 103860, Note_on_c, 1, 48, 64
3, 103956, Note_on_c, 1, 48, 0
3, 103980, Note_on_c, 1, 34, 64
3, 103984, Note_on_c, 1, 36, 0
3, 104014, Note_on_c, 1, 34, 0
3, 104036, Note_on_c, 1, 35, 64
3, 104144, Note_on_c, 1, 35, 0
3, 104155, Note_on_c, 1, 36, 64
3, 104339, Note_on_c, 1, 43, 64
3, 104383, Note_on_c, 1, 43, 0
3, 104396, Note_on_c, 1, 36, 0
3, 104400, Note_on_c, 1, 43, 64
3, 104440, Note_on_c, 1, 43, 0
3, 104458, Note_on_c, 1, 34, 64
3, 104498, Note_on_c, 1, 34, 0
3, 104515, Note_on_c, 1, 35, 64
3, 104619, Note_on_c, 1, 35, 0
3, 104633, Note_on_c, 1, 36, 64
3, 104820, Note_on_c, 1, 43, 64
3, 104834, Note_on_c, 1, 36, 0
3, 105056, Note_on_c, 1, 36, 64
3, 105079, Note_on_c, 1, 36, 0
3, 105083, Note_on_c, 1, 43, 0
3, 105112, Note_on_c, 1, 36, 64
3, 105299, Note_on_c, 1, 43, 64
3, 105305, Note_on_c, 1, 36, 0
3, 105316, Note_on_c, 1, 43, 0
3, 105361, Note_on_c, 1, 31, 64
3, 105380, Note_on_c, 1, 31, 0
3, 105422, Note_on_c, 1, 31, 64
3, 105446, Note_on_c, 1, 31, 0
3, 105475, Note_on_c, 1, 30, 64
3, 105576, Note_on_c, 1, 30, 0
3, 105592, Note_on_c, 1, 29, 64
3, 105785, Note_on_c, 1, 29, 0
3, 105785, Note_on_c, 1, 36, 64
3, 105966, Note_on_c, 1, 44, 64
3, 105987, Note_on_c, 1, 36, 0
3, 106254, Note_on_c, 1, 44, 0
3, 106261, Note_on_c, 1, 36, 64
3, 106291, Note_on_c, 1, 36, 0
3, 106322, Note_on_c, 1, 36, 64
3, 106429, Note_on_c, 1, 36, 0
3, 106436, Note_on_c, 1, 29, 64
3, 106746, Note_on_c, 1, 29, 0
3, 106748, Note_on_c, 1, 36, 64
3, 106922, Note_on_c, 1, 44, 64
3, 106926, Note_on_c, 1, 36, 0
3, 107216, Note_on_c, 1, 44, 0
3, 107219, Note_on_c, 1, 36, 64
3, 107334, Note_on_c, 1, 36, 0
3, 107336, Note_on_c, 1, 34, 64
3, 107365, Note_on_c, 1, 34, 0
3, 107395, Note_on_c, 1, 35, 64
3, 107423, Note_on_c, 1, 35, 0
3, 107455, Note_on_c, 1, 35, 64
3, 107501, Note_on_c, 1, 35, 0
3, 107521, Note_on_c, 1, 36, 64
3, 107700, Note_on_c, 1, 43, 64
3, 107718, Note_on_c, 1, 36, 0
3, 107727, Note_on_c, 1, 43, 0
3, 107761, Note_on_c, 1, 43, 64
3, 107820, Note_on_c, 1, 43, 0
3, 107825, Note_on_c, 1, 31, 64
3, 107990, Note_on_c, 1, 31, 0
3, 108000, Note_on_c, 1, 36, 64
3, 108188, Note_on_c, 1, 43, 64
3, 108230, Note_on_c, 1, 43, 0
3, 108293, Note_on_c, 1, 36, 0
3, 108309, Note_on_c, 1, 34, 64
3, 108316, Note_on_c, 1, 52, 64
3, 108325, Note_on_c, 1, 52, 0
3, 108421, Note_on_c, 1, 34, 0
3, 108435, Note_on_c, 1, 35, 64
3, 108483, Note_on_c, 1, 35, 0
3, 108496, Note_on_c, 1, 36, 64
3, 108677, Note_on_c, 1, 48, 64
3, 108706, Note_on_c, 1, 36, 0
3, 108788, Note_on_c, 1, 31, 64
3, 108793, Note_on_c, 1, 48, 0
3, 108818, Note_on_c, 1, 31, 0
3, 108855, Note_on_c, 1, 31, 64
3, 108878, Note_on_c, 1, 31, 0
3, 108908, Note_on_c, 1, 31, 64
3, 108936, Note_on_c, 1, 31, 0
3, 108968, Note_on_c, 1, 36, 64
3, 109120, Note_on_c, 1, 36, 0
3, 109141, Note_on_c, 1, 31, 64
3, 109308, Note_on_c, 1, 31, 0
3, 109317, Note_on_c, 1, 34, 64
3, 109320, Note_on_c, 1, 50, 64
3, 109348, Note_on_c, 1, 50, 0
3, 109372, Note_on_c, 1, 34, 0
3, 109383, Note_on_c, 1, 51, 64
3, 109387, Note_on_c, 1, 35, 64
3, 109437, Note_on_c, 1, 51, 0
3, 109445, Note_on_c, 1, 35, 0
3, 109449, Note_on_c, 1, 36, 64
3, 109450, Note_on_c, 1, 52, 64
3, 109590, Note_on_c, 1, 52, 0
3, 109619, Note_on_c, 1, 31, 64
3, 109658, Note_on_c, 1, 31, 0
3, 109663, Note_on_c, 1, 36, 0
3, 109675, Note_on_c, 1, 31, 64
3, 109849, Note_on_c, 1, 31, 0
3, 109860, Note_on_c, 1, 36, 64
3, 110097, Note_on_c, 1, 43, 64
3, 110127, Note_on_c, 1, 43, 0
3, 110144, Note_on_c, 1, 36, 0
3, 110155, Note_on_c, 1, 43, 64
3, 110179, Note_on_c, 1, 43, 0
3, 110217, Note_on_c, 1, 34, 64
3, 110246, Note_on_c, 1, 34, 0
3, 110276, Note_on_c, 1, 35, 64
3, 110383, Note_on_c, 1, 35, 0
3, 110399, Note_on_c, 1, 36, 64
3, 110576, Note_on_c, 1, 36, 0
3, 110584, Note_on_c, 1, 43, 64
3, 110817, Note_on_c, 1, 43, 0
3, 110819, Note_on_c, 1, 36, 64
3, 110835, Note_on_c, 1, 36, 0
3, 110872, Note_on_c, 1, 36, 64
3, 111065, Note_on_c, 1, 43, 64
3, 111068, Note_on_c, 1, 36, 0
3, 111173, Note_on_c, 1, 43, 0
3, 111180, Note_on_c, 1, 34, 64
3, 111215, Note_on_c, 1, 34, 0
3, 111239, Note_on_c, 1, 35, 64
3, 111348, Note_on_c, 1, 35, 0
3, 111362, Note_on_c, 1, 36, 64
3, 111547, Note_on_c, 1, 36, 0
3, 111550, Note_on_c, 1, 43, 64
3, 111663, Note_on_c, 1, 43, 0
3, 111665, Note_on_c, 1, 34, 64
3, 111685, Note_on_c, 1, 34, 0
3, 111725, Note_on_c, 1, 34, 64
3, 111825, Note_on_c, 1, 34, 0
3, 111835, Note_on_c, 1, 36, 64
3, 112014, Note_on_c, 1, 36, 0
3, 112026, Note_on_c, 1, 43, 64
3, 112141, Note_on_c, 1, 36, 64
3, 112143, Note_on_c, 1, 43, 0
3, 112177, Note_on_c, 1, 36, 0
3, 112205, Note_on_c, 1, 36, 64
3, 112504, Note_on_c, 1, 43, 64
3, 112521, Note_on_c, 1, 36, 0
3, 112678, Note_on_c, 1, 43, 0
3, 112680, Note_on_c, 1, 36, 64
3, 112936, Note_on_c, 1, 36, 0
3, 112982, Note_on_c, 1, 43, 64
3, 113007, Note_on_c, 1, 43, 0
3, 113044, Note_on_c, 1, 36, 64
3, 113069, Note_on_c, 1, 36, 0
3, 113107, Note_on_c, 1, 31, 64
3, 113120, Note_on_c, 1, 31, 0
3, 113156, Note_on_c, 1, 30, 64
3, 113260, Note_on_c, 1, 30, 0
3, 113272, Note_on_c, 1, 29, 64
3, 113451, Note_on_c, 1, 29, 0
3, 113467, Note_on_c, 1, 36, 64
3, 113511, Note_on_c, 1, 36, 0
3, 113530, Note_on_c, 1, 36, 64
3, 113709, Note_on_c, 1, 36, 0
3, 113711, Note_on_c, 1, 29, 64
3, 113952, Note_on_c, 1, 36, 64
3, 113960, Note_on_c, 1, 29, 0
3, 113966, Note_on_c, 1, 36, 0
3, 114004, Note_on_c, 1, 44, 64
3, 114117, Note_on_c, 1, 44, 0
3, 114126, Note_on_c, 1, 29, 64
3, 114425, Note_on_c, 1, 36, 64
3, 114433, Note_on_c, 1, 29, 0
3, 114445, Note_on_c, 1, 36, 0
3, 114471, Note_on_c, 1, 44, 64
3, 114649, Note_on_c, 1, 44, 0
3, 114669, Note_on_c, 1, 36, 64
3, 114921, Note_on_c, 1, 43, 64
3, 114922, Note_on_c, 1, 36, 0
3, 115039, Note_on_c, 1, 42, 64
3, 115049, Note_on_c, 1, 43, 0
3, 115061, Note_on_c, 1, 42, 0
3, 115084, Note_on_c, 1, 40, 64
3, 115186, Note_on_c, 1, 40, 0
3, 115199, Note_on_c, 1, 41, 64
3, 115224, Note_on_c, 1, 41, 0
3, 115287, Note_on_c, 1, 36, 64
3, 115296, Note_on_c, 1, 36, 0
3, 115326, Note_on_c, 1, 33, 64
3, 115439, Note_on_c, 1, 33, 0
3, 115445, Note_on_c, 1, 34, 64
3, 115554, Note_on_c, 1, 34, 0
3, 115565, Note_on_c, 1, 35, 64
3, 115681, Note_on_c, 1, 35, 0
3, 115691, Note_on_c, 1, 36, 64
3, 115800, Note_on_c, 1, 36, 0
3, 115804, Note_on_c, 1, 30, 64
3, 115916, Note_on_c, 1, 30, 0
3, 115924, Note_on_c, 1, 29, 64
3, 116033, Note_on_c, 1, 29, 0
3, 116039, Note_on_c, 1, 38, 64
3, 116153, Note_on_c, 1, 38, 0
3, 116169, Note_on_c, 1, 36, 64
3, 116223, Note_on_c, 1, 36, 0
3, 116247, Note_on_c, 1, 34, 64
3, 116254, Note_on_c, 1, 36, 64
3, 116256, Note_on_c, 1, 34, 0
3, 116270, Note_on_c, 1, 36, 0
3, 116285, Note_on_c, 1, 43, 64
3, 116382, Note_on_c, 1, 43, 0
3, 116401, Note_on_c, 1, 41, 64
3, 116512, Note_on_c, 1, 41, 0
3, 116522, Note_on_c, 1, 39, 64
3, 116628, Note_on_c, 1, 39, 0
3, 116639, Note_on_c, 1, 38, 64
3, 116759, Note_on_c, 1, 38, 0
3, 116759, Note_on_c, 1, 37, 64
3, 116866, Note_on_c, 1, 37, 0
3, 116880, Note_on_c, 1, 36, 64
3, 116956, Note_on_c, 1, 36, 0
3, 116967, Note_on_c, 1, 31, 64
3, 116983, Note_on_c, 1, 31, 0
3, 117004, Note_on_c, 1, 35, 64
3, 117110, Note_on_c, 1, 35, 0
3, 117115, Note_on_c, 1, 34, 64
3, 117219, Note_on_c, 1, 34, 0
3, 117235, Note_on_c, 1, 38, 64
3, 117349, Note_on_c, 1, 38, 0
3, 117357, Note_on_c, 1, 43, 64
3, 117476, Note_on_c, 1, 43, 0
3, 117476, Note_on_c, 1, 42, 64
3, 117564, Note_on_c, 1, 39, 64
3, 117581, Note_on_c, 1, 42, 0
3, 117587, Note_on_c, 1, 39, 0
3, 117595, Note_on_c, 1, 41, 64
3, 117715, Note_on_c, 1, 41, 0
3, 117718, Note_on_c, 1, 38, 64
3, 117804, Note_on_c, 1, 37, 64
3, 117828, Note_on_c, 1, 37, 0
3, 117828, Note_on_c, 1, 38, 0
3, 117837, Note_on_c, 1, 43, 64
3, 117953, Note_on_c, 1, 43, 0
3, 117954, Note_on_c, 1, 42, 64
3, 118049, Note_on_c, 1, 39, 64
3, 118065, Note_on_c, 1, 42, 0
3, 118071, Note_on_c, 1, 39, 0
3, 118080, Note_on_c, 1, 41, 64
3, 118175, Note_on_c, 1, 39, 64
3, 118192, Note_on_c, 1, 41, 0
3, 118203, Note_on_c, 1, 48, 64
3, 118208, Note_on_c, 1, 39, 0
3, 118298, Note_on_c, 1, 48, 0
3, 118324, Note_on_c, 1, 47, 64
3, 118325, Note_on_c, 1, 48, 64
3, 118335, Note_on_c, 1, 48, 0
3, 118425, Note_on_c, 1, 47, 0
3, 118436, Note_on_c, 1, 46, 64
3, 118549, Note_on_c, 1, 46, 0
3, 118557, Note_on_c, 1, 40, 64
3, 118672, Note_on_c, 1, 40, 0
3, 118679, Note_on_c, 1, 41, 64
3, 118786, Note_on_c, 1, 41, 0
3, 118798, Note_on_c, 1, 37, 64
3, 118916, Note_on_c, 1, 37, 0
3, 118918, Note_on_c, 1, 38, 64
3, 118966, Note_on_c, 1, 38, 0
3, 118998, Note_on_c, 1, 38, 64
3, 119025, Note_on_c, 1, 38, 0
3, 119040, Note_on_c, 1, 39, 64
3, 119162, Note_on_c, 1, 41, 64
3, 119163, Note_on_c, 1, 39, 0
3, 119244, Note_on_c, 1, 41, 0
3, 119245, Note_on_c, 1, 42, 64
3, 119277, Note_on_c, 1, 42, 0
3, 119290, Note_on_c, 1, 43, 64
3, 119371, Note_on_c, 1, 42, 64
3, 119388, Note_on_c, 1, 43, 0
3, 119392, Note_on_c, 1, 42, 0
3, 119395, Note_on_c, 1, 48, 64
3, 119504, Note_on_c, 1, 48, 0
3, 119515, Note_on_c, 1, 46, 64
3, 119620, Note_on_c, 1, 46, 0
3, 119636, Note_on_c, 1, 42, 64
3, 119744, Note_on_c, 1, 42, 0
3, 119756, Note_on_c, 1, 43, 64
3, 119867, Note_on_c, 1, 43, 0
3, 119878, Note_on_c, 1, 38, 64
3, 119983, Note_on_c, 1, 38, 0
3, 119997, Note_on_c, 1, 39, 64
3, 120107, Note_on_c, 1, 39, 0
3, 120115, Note_on_c, 1, 33, 64
3, 120233, Note_on_c, 1, 33, 0
3, 120239, Note_on_c, 1, 34, 64
3, 120348, Note_on_c, 1, 34, 0
3, 120357, Note_on_c, 1, 36, 64
3, 120468, Note_on_c, 1, 36, 0
3, 120473, Note_on_c, 1, 38, 64
3, 120587, Note_on_c, 1, 39, 64
3, 120596, Note_on_c, 1, 38, 0
3, 120709, Note_on_c, 1, 39, 0
3, 120716, Note_on_c, 1, 41, 64
3, 120797, Note_on_c, 1, 34, 64
3, 120807, Note_on_c, 1, 41, 0
3, 120821, Note_on_c, 1, 34, 0
3, 120840, Note_on_c, 1, 33, 64
3, 120938, Note_on_c, 1, 33, 0
3, 120949, Note_on_c, 1, 32, 64
3, 121067, Note_on_c, 1, 32, 0
3, 121081, Note_on_c, 1, 39, 64
3, 121133, Note_on_c, 1, 39, 0
3, 121198, Note_on_c, 1, 48, 64
3, 121301, Note_on_c, 1, 48, 0
3, 121309, Note_on_c, 1, 46, 64
3, 121400, Note_on_c, 1, 39, 64
3, 121409, Note_on_c, 1, 39, 0
3, 121432, Note_on_c, 1, 46, 0
3, 121433, Note_on_c, 1, 44, 64
3, 121556, Note_on_c, 1, 44, 0
3, 121557, Note_on_c, 1, 43, 64
3, 121669, Note_on_c, 1, 43, 0
3, 121679, Note_on_c, 1, 32, 64
3, 121774, Note_on_c, 1, 32, 0
3, 121796, Note_on_c, 1, 32, 64
3, 121899, Note_on_c, 1, 32, 0
3, 121911, Note_on_c, 1, 31, 64
3, 121967, Note_on_c, 1, 31, 0
3, 121990, Note_on_c, 1, 31, 64
3, 122025, Note_on_c, 1, 31, 0
3, 122030, Note_on_c, 1, 43, 64
3, 122147, Note_on_c, 1, 43, 0
3, 122156, Note_on_c, 1, 46, 64
3, 122276, Note_on_c, 1, 35, 64
3, 122285, Note_on_c, 1, 46, 0
3, 122384, Note_on_c, 1, 35, 0
3, 122395, Note_on_c, 1, 36, 64
3, 122482, Note_on_c, 1, 34, 64
3, 122494, Note_on_c, 1, 36, 0
3, 122504, Note_on_c, 1, 34, 0
3, 122514, Note_on_c, 1, 49, 64
3, 122613, Note_on_c, 1, 49, 0
3, 122637, Note_on_c, 1, 48, 64
3, 122755, Note_on_c, 1, 48, 0
3, 122755, Note_on_c, 1, 42, 64
3, 122880, Note_on_c, 1, 42, 0
3, 122886, Note_on_c, 1, 36, 64
3, 123068, Note_on_c, 1, 36, 0
3, 123068, Note_on_c, 1, 43, 64
3, 123190, Note_on_c, 1, 35, 64
3, 123198, Note_on_c, 1, 43, 0
3, 123222, Note_on_c, 1, 35, 0
3, 123248, Note_on_c, 1, 36, 64
3, 123542, Note_on_c, 1, 43, 64
3, 123552, Note_on_c, 1, 36, 0
3, 123573, Note_on_c, 1, 43, 0
3, 123598, Note_on_c, 1, 43, 64
3, 123712, Note_on_c, 1, 43, 0
3, 123718, Note_on_c, 1, 35, 64
3, 123819, Note_on_c, 1, 35, 0
3, 123841, Note_on_c, 1, 36, 64
3, 124027, Note_on_c, 1, 43, 64
3, 124028, Note_on_c, 1, 36, 0
3, 124146, Note_on_c, 1, 43, 0
3, 124152, Note_on_c, 1, 36, 64
3, 124189, Note_on_c, 1, 36, 0
3, 124211, Note_on_c, 1, 36, 64
3, 124496, Note_on_c, 1, 36, 0
3, 124504, Note_on_c, 1, 43, 64
3, 124622, Note_on_c, 1, 43, 0
3, 124627, Note_on_c, 1, 35, 64
3, 124653, Note_on_c, 1, 35, 0
3, 124684, Note_on_c, 1, 36, 64
3, 124983, Note_on_c, 1, 43, 64
3, 125006, Note_on_c, 1, 43, 0
3, 125031, Note_on_c, 1, 36, 0
3, 125043, Note_on_c, 1, 43, 64
3, 125076, Note_on_c, 1, 43, 0
3, 125105, Note_on_c, 1, 34, 64
3, 125134, Note_on_c, 1, 34, 0
3, 125161, Note_on_c, 1, 35, 64
3, 125266, Note_on_c, 1, 35, 0
3, 125279, Note_on_c, 1, 36, 64
3, 125457, Note_on_c, 1, 36, 0
3, 125470, Note_on_c, 1, 43, 64
3, 125587, Note_on_c, 1, 43, 0
3, 125587, Note_on_c, 1, 34, 64
3, 125587, Note_on_c, 1, 50, 64
3, 125657, Note_on_c, 1, 50, 0
3, 125663, Note_on_c, 1, 34, 0
3, 125672, Note_on_c, 1, 35, 64
3, 125673, Note_on_c, 1, 51, 64
3, 125750, Note_on_c, 1, 51, 0
3, 125753, Note_on_c, 1, 35, 0
3, 125761, Note_on_c, 1, 52, 64
3, 125763, Note_on_c, 1, 36, 64
3, 125895, Note_on_c, 1, 52, 0
3, 125948, Note_on_c, 1, 43, 64
3, 125964, Note_on_c, 1, 36, 0
3, 125982, Note_on_c, 1, 43, 0
3, 126001, Note_on_c, 1, 43, 64
3, 126109, Note_on_c, 1, 43, 0
3, 126117, Note_on_c, 1, 34, 64
3, 126146, Note_on_c, 1, 34, 0
3, 126179, Note_on_c, 1, 34, 64
3, 126205, Note_on_c, 1, 34, 0
3, 126232, Note_on_c, 1, 36, 64
3, 126406, Note_on_c, 1, 36, 0
3, 126417, Note_on_c, 1, 31, 64
3, 126419, Note_on_c, 1, 29, 64
3, 126427, Note_on_c, 1, 29, 0
3, 126512, Note_on_c, 1, 31, 0
3, 126540, Note_on_c, 1, 31, 64
3, 126575, Note_on_c, 1, 31, 0
3, 126601, Note_on_c, 1, 36, 64
3, 126901, Note_on_c, 1, 31, 64
3, 126920, Note_on_c, 1, 36, 0
3, 126929, Note_on_c, 1, 31, 0
3, 126951, Note_on_c, 1, 31, 64
3, 126987, Note_on_c, 1, 31, 0
3, 127017, Note_on_c, 1, 34, 64
3, 127041, Note_on_c, 1, 34, 0
3, 127075, Note_on_c, 1, 36, 64
3, 127368, Note_on_c, 1, 36, 0
3, 127373, Note_on_c, 1, 43, 64
3, 127406, Note_on_c, 1, 43, 0
3, 127431, Note_on_c, 1, 43, 64
3, 127543, Note_on_c, 1, 43, 0
3, 127552, Note_on_c, 1, 34, 64
3, 127584, Note_on_c, 1, 34, 0
3, 127615, Note_on_c, 1, 34, 64
3, 127650, Note_on_c, 1, 34, 0
3, 127672, Note_on_c, 1, 36, 64
3, 127863, Note_on_c, 1, 36, 0
3, 127868, Note_on_c, 1, 43, 64
3, 128098, Note_on_c, 1, 43, 0
3, 128111, Note_on_c, 1, 36, 64
3, 128137, Note_on_c, 1, 36, 0
3, 128169, Note_on_c, 1, 36, 64
3, 128337, Note_on_c, 1, 36, 0
3, 128346, Note_on_c, 1, 43, 64
3, 128367, Note_on_c, 1, 43, 0
3, 128402, Note_on_c, 1, 43, 64
3, 128428, Note_on_c, 1, 43, 0
3, 128461, Note_on_c, 1, 39, 64
3, 128487, Note_on_c, 1, 39, 0
3, 128512, Note_on_c, 1, 40, 64
3, 128615, Note_on_c, 1, 40, 0
3, 128632, Note_on_c, 1, 41, 64
3, 128816, Note_on_c, 1, 41, 0
3, 128829, Note_on_c, 1, 36, 64
3, 129060, Note_on_c, 1, 36, 0
3, 129070, Note_on_c, 1, 41, 64
3, 129089, Note_on_c, 1, 41, 0
3, 129126, Note_on_c, 1, 39, 64
3, 129421, Note_on_c, 1, 39, 0
3, 129430, Note_on_c, 1, 41, 64
3, 129461, Note_on_c, 1, 41, 0
3, 129491, Note_on_c, 1, 39, 64
3, 129504, Note_on_c, 1, 39, 0
3, 129553, Note_on_c, 1, 39, 64
3, 129568, Note_on_c, 1, 39, 0
3, 129609, Note_on_c, 1, 39, 64
3, 129785, Note_on_c, 1, 46, 64
3, 129803, Note_on_c, 1, 39, 0
3, 130022, Note_on_c, 1, 54, 64
3, 130053, Note_on_c, 1, 46, 0
3, 130143, Note_on_c, 1, 46, 64
3, 130156, Note_on_c, 1, 46, 0
3, 130160, Note_on_c, 1, 54, 0
3, 130196, Note_on_c, 1, 39, 64
3, 130292, Note_on_c, 1, 39, 0
3, 130319, Note_on_c, 1, 39, 64
3, 130337, Note_on_c, 1, 39, 0
3, 130380, Note_on_c, 1, 39, 64
3, 130405, Note_on_c, 1, 39, 0
3, 130432, Note_on_c, 1, 40, 64
3, 130531, Note_on_c, 1, 40, 0
3, 130553, Note_on_c, 1, 41, 64
3, 130748, Note_on_c, 1, 48, 64
3, 130759, Note_on_c, 1, 48, 0
3, 130817, Note_on_c, 1, 56, 64
3, 131011, Note_on_c, 1, 41, 0
3, 131040, Note_on_c, 1, 41, 64
3, 131043, Note_on_c, 1, 56, 0
3, 131231, Note_on_c, 1, 56, 64
3, 131508, Note_on_c, 1, 41, 0
3, 131513, Note_on_c, 1, 56, 0
3, 131519, Note_on_c, 1, 39, 64
3, 131704, Note_on_c, 1, 39, 0
3, 131713, Note_on_c, 1, 46, 64
3, 131777, Note_on_c, 1, 54, 64
3, 131842, Note_on_c, 1, 54, 0
3, 131950, Note_on_c, 1, 54, 64
3, 132071, Note_on_c, 1, 46, 0
3, 132075, Note_on_c, 1, 39, 64
3, 132080, Note_on_c, 1, 54, 0
3, 132187, Note_on_c, 1, 46, 64
3, 132203, Note_on_c, 1, 39, 0
3, 132219, Note_on_c, 1, 46, 0
3, 132249, Note_on_c, 1, 54, 64
3, 132284, Note_on_c, 1, 54, 0
3, 132305, Note_on_c, 1, 39, 64
3, 132335, Note_on_c, 1, 39, 0
3, 132362, Note_on_c, 1, 40, 64
3, 132478, Note_on_c, 1, 40, 0
3, 132488, Note_on_c, 1, 41, 64
3, 132692, Note_on_c, 1, 29, 64
3, 132802, Note_on_c, 1, 41, 0
3, 133048, Note_on_c, 1, 29, 0
3, 133048, End_track
4, 0, Start_track
4, 0, MIDI_port, 0
4, 0, Title_t, "Cymbals"
4, 0, Program_c, 9, 32
4, 0, Control_c, 9, 7, 100
4, 2049, Note_on_c, 9, 53, 87
4, 2063, Note_on_c, 9, 53, 0
4, 2157, Note_on_c, 9, 53, 87
4, 2173, Note_on_c, 9, 53, 0
4, 2218, Note_on_c, 9, 53, 87
4, 2232, Note_on_c, 9, 53, 0
4, 2341, Note_on_c, 9, 53, 87
4, 2365, Note_on_c, 9, 53, 0
4, 2449, Note_on_c, 9, 53, 87
4, 2470, Note_on_c, 9, 53, 0
4, 2581, Note_on_c, 9, 53, 87
4, 2605, Note_on_c, 9, 53, 0
4, 2638, Note_on_c, 9, 53, 87
4, 2678, Note_on_c, 9, 53, 0
4, 2762, Note_on_c, 9, 53, 87
4, 2796, Note_on_c, 9, 53, 0
4, 2820, Note_on_c, 9, 53, 87
4, 2838, Note_on_c, 9, 53, 0
4, 2878, Note_on_c, 9, 53, 87
4, 2911, Note_on_c, 9, 53, 0
4, 2944, Note_on_c, 9, 53, 87
4, 2976, Note_on_c, 9, 53, 0
4, 3000, Note_on_c, 9, 53, 87
4, 3043, Note_on_c, 9, 53, 0
4, 3123, Note_on_c, 9, 53, 87
4, 3156, Note_on_c, 9, 53, 0
4, 3241, Note_on_c, 9, 53, 87
4, 3260, Note_on_c, 9, 53, 0
4, 3299, Note_on_c, 9, 53, 87
4, 3346, Note_on_c, 9, 53, 0
4, 3422, Note_on_c, 9, 53, 87
4, 3462, Note_on_c, 9, 53, 0
4, 3545, Note_on_c, 9, 53, 87
4, 3573, Note_on_c, 9, 53, 0
4, 3605, Note_on_c, 9, 53, 87
4, 3646, Note_on_c, 9, 53, 0
4, 3666, Note_on_c, 9, 53, 87
4, 3700, Note_on_c, 9, 53, 0
4, 3722, Note_on_c, 9, 53, 87
4, 3743, Note_on_c, 9, 53, 0
4, 3779, Note_on_c, 9, 53, 87
4, 3799, Note_on_c, 9, 53, 0
4, 3835, Note_on_c, 9, 53, 87
4, 3876, Note_on_c, 9, 53, 0
4, 3959, Note_on_c, 9, 53, 87
4, 3982, Note_on_c, 9, 53, 0
4, 4025, Note_on_c, 9, 53, 87
4, 4051, Note_on_c, 9, 53, 0
4, 4147, Note_on_c, 9, 53, 87
4, 4178, Note_on_c, 9, 53, 0
4, 4267, Note_on_c, 9, 53, 87
4, 4306, Note_on_c, 9, 53, 0
4, 4386, Note_on_c, 9, 53, 87
4, 4430, Note_on_c, 9, 53, 0
4, 4507, Note_on_c, 9, 53, 87
4, 4541, Note_on_c, 9, 53, 0
4, 4564, Note_on_c, 9, 53, 87
4, 4592, Note_on_c, 9, 53, 0
4, 4620, Note_on_c, 9, 53, 87
4, 4650, Note_on_c, 9, 53, 0
4, 4682, Note_on_c, 9, 53, 87
4, 4703, Note_on_c, 9, 53, 0
4, 4737, Note_on_c, 9, 37, 87
4, 4764, Note_on_c, 9, 37, 0
4, 4796, Note_on_c, 9, 53, 87
4, 4843, Note_on_c, 9, 53, 0
4, 4863, Note_on_c, 9, 53, 87
4, 4880, Note_on_c, 9, 53, 0
4, 4923, Note_on_c, 9, 53, 87
4, 4933, Note_on_c, 9, 53, 0
4, 4981, Note_on_c, 9, 53, 87
4, 5015, Note_on_c, 9, 53, 0
4, 5103, Note_on_c, 9, 53, 87
4, 5114, Note_on_c, 9, 53, 0
4, 5226, Note_on_c, 9, 37, 87
4, 5245, Note_on_c, 9, 37, 0
4, 5286, Note_on_c, 9, 59, 87
4, 5327, Note_on_c, 9, 59, 0
4, 5338, Note_on_c, 9, 53, 87
4, 5359, Note_on_c, 9, 53, 0
4, 5402, Note_on_c, 9, 53, 87
4, 5412, Note_on_c, 9, 53, 0
4, 5454, Note_on_c, 9, 37, 87
4, 5474, Note_on_c, 9, 37, 0
4, 5527, Note_on_c, 9, 53, 87
4, 5536, Note_on_c, 9, 53, 0
4, 5584, Note_on_c, 9, 37, 87
4, 5604, Note_on_c, 9, 37, 0
4, 5649, Note_on_c, 9, 53, 87
4, 5657, Note_on_c, 9, 53, 0
4, 5710, Note_on_c, 9, 53, 87
4, 5717, Note_on_c, 9, 53, 0
4, 5771, Note_on_c, 9, 53, 87
4, 5787, Note_on_c, 9, 53, 0
4, 5945, Note_on_c, 9, 53, 87
4, 5954, Note_on_c, 9, 53, 0
4, 6003, Note_on_c, 9, 53, 87
4, 6023, Note_on_c, 9, 53, 0
4, 6063, Note_on_c, 9, 53, 87
4, 6077, Note_on_c, 9, 53, 0
4, 6300, Note_on_c, 9, 53, 87
4, 6315, Note_on_c, 9, 53, 0
4, 6421, Note_on_c, 9, 53, 87
4, 6454, Note_on_c, 9, 53, 0
4, 6547, Note_on_c, 9, 53, 87
4, 6562, Note_on_c, 9, 53, 0
4, 6604, Note_on_c, 9, 59, 87
4, 6634, Note_on_c, 9, 59, 0
4, 6659, Note_on_c, 9, 53, 87
4, 6682, Note_on_c, 9, 53, 0
4, 6717, Note_on_c, 9, 53, 87
4, 6745, Note_on_c, 9, 53, 0
4, 6786, Note_on_c, 9, 53, 87
4, 6796, Note_on_c, 9, 53, 0
4, 6911, Note_on_c, 9, 53, 87
4, 6919, Note_on_c, 9, 53, 0
4, 6963, Note_on_c, 9, 53, 87
4, 7005, Note_on_c, 9, 53, 0
4, 7023, Note_on_c, 9, 59, 87
4, 7048, Note_on_c, 9, 59, 0
4, 7144, Note_on_c, 9, 53, 87
4, 7158, Note_on_c, 9, 53, 0
4, 7265, Note_on_c, 9, 53, 87
4, 7279, Note_on_c, 9, 53, 0
4, 7390, Note_on_c, 9, 37, 87
4, 7404, Note_on_c, 9, 37, 0
4, 7446, Note_on_c, 9, 53, 87
4, 7460, Note_on_c, 9, 53, 0
4, 7501, Note_on_c, 9, 53, 87
4, 7516, Note_on_c, 9, 53, 0
4, 7559, Note_on_c, 9, 53, 87
4, 7567, Note_on_c, 9, 53, 0
4, 7683, Note_on_c, 9, 59, 87
4, 7730, Note_on_c, 9, 59, 0
4, 7807, Note_on_c, 9, 59, 87
4, 7843, Note_on_c, 9, 59, 0
4, 7874, Note_on_c, 9, 59, 87
4, 7906, Note_on_c, 9, 59, 0
4, 7946, Note_on_c, 9, 59, 87
4, 8027, Note_on_c, 9, 59, 0
4, 8063, Note_on_c, 9, 59, 87
4, 8091, Note_on_c, 9, 59, 0
4, 8135, Note_on_c, 9, 59, 87
4, 8160, Note_on_c, 9, 59, 0
4, 8186, Note_on_c, 9, 59, 87
4, 8274, Note_on_c, 9, 59, 0
4, 8302, Note_on_c, 9, 59, 87
4, 8318, Note_on_c, 9, 59, 0
4, 8359, Note_on_c, 9, 59, 87
4, 8392, Note_on_c, 9, 59, 0
4, 8412, Note_on_c, 9, 59, 87
4, 8488, Note_on_c, 9, 59, 0
4, 8520, Note_on_c, 9, 59, 87
4, 8546, Note_on_c, 9, 59, 0
4, 8580, Note_on_c, 9, 59, 87
4, 8617, Note_on_c, 9, 59, 0
4, 8642, Note_on_c, 9, 59, 87
4, 8717, Note_on_c, 9, 59, 0
4, 8752, Note_on_c, 9, 59, 87
4, 8775, Note_on_c, 9, 59, 0
4, 8819, Note_on_c, 9, 59, 87
4, 8850, Note_on_c, 9, 59, 0
4, 8876, Note_on_c, 9, 59, 87
4, 8948, Note_on_c, 9, 59, 0
4, 8982, Note_on_c, 9, 59, 87
4, 9008, Note_on_c, 9, 59, 0
4, 9052, Note_on_c, 9, 59, 87
4, 9076, Note_on_c, 9, 59, 0
4, 9118, Note_on_c, 9, 59, 87
4, 9188, Note_on_c, 9, 59, 0
4, 9231, Note_on_c, 9, 59, 87
4, 9248, Note_on_c, 9, 59, 0
4, 9305, Note_on_c, 9, 59, 87
4, 9334, Note_on_c, 9, 59, 0
4, 9367, Note_on_c, 9, 59, 87
4, 9441, Note_on_c, 9, 59, 0
4, 9483, Note_on_c, 9, 59, 87
4, 9497, Note_on_c, 9, 59, 0
4, 9549, Note_on_c, 9, 59, 87
4, 9566, Note_on_c, 9, 59, 0
4, 9608, Note_on_c, 9, 59, 87
4, 9670, Note_on_c, 9, 59, 0
4, 9722, Note_on_c, 9, 59, 87
4, 9737, Note_on_c, 9, 59, 0
4, 9786, Note_on_c, 9, 59, 87
4, 9813, Note_on_c, 9, 59, 0
4, 9845, Note_on_c, 9, 59, 87
4, 9909, Note_on_c, 9, 59, 0
4, 9965, Note_on_c, 9, 59, 87
4, 9980, Note_on_c, 9, 59, 0
4, 10035, Note_on_c, 9, 59, 87
4, 10049, Note_on_c, 9, 59, 0
4, 10091, Note_on_c, 9, 59, 87
4, 10166, Note_on_c, 9, 59, 0
4, 10200, Note_on_c, 9, 59, 87
4, 10217, Note_on_c, 9, 59, 0
4, 10270, Note_on_c, 9, 59, 87
4, 10288, Note_on_c, 9, 59, 0
4, 10325, Note_on_c, 9, 59, 87
4, 10412, Note_on_c, 9, 59, 0
4, 10443, Note_on_c, 9, 59, 87
4, 10458, Note_on_c, 9, 59, 0
4, 10514, Note_on_c, 9, 59, 87
4, 10528, Note_on_c, 9, 59, 0
4, 10565, Note_on_c, 9, 59, 87
4, 10656, Note_on_c, 9, 59, 0
4, 10689, Note_on_c, 9, 59, 87
4, 10705, Note_on_c, 9, 59, 0
4, 10748, Note_on_c, 9, 59, 87
4, 10775, Note_on_c, 9, 59, 0
4, 10806, Note_on_c, 9, 59, 87
4, 10880, Note_on_c, 9, 59, 0
4, 10925, Note_on_c, 9, 59, 87
4, 10939, Note_on_c, 9, 59, 0
4, 10987, Note_on_c, 9, 59, 87
4, 11013, Note_on_c, 9, 59, 0
4, 11040, Note_on_c, 9, 59, 87
4, 11121, Note_on_c, 9, 59, 0
4, 11159, Note_on_c, 9, 59, 87
4, 11176, Note_on_c, 9, 59, 0
4, 11226, Note_on_c, 9, 59, 87
4, 11255, Note_on_c, 9, 59, 0
4, 11286, Note_on_c, 9, 59, 87
4, 11364, Note_on_c, 9, 59, 0
4, 11409, Note_on_c, 9, 59, 87
4, 11425, Note_on_c, 9, 59, 0
4, 11473, Note_on_c, 9, 59, 87
4, 11504, Note_on_c, 9, 59, 0
4, 11528, Note_on_c, 9, 59, 87
4, 11618, Note_on_c, 9, 59, 0
4, 11651, Note_on_c, 9, 59, 87
4, 11666, Note_on_c, 9, 59, 0
4, 11704, Note_on_c, 9, 59, 87
4, 11744, Note_on_c, 9, 59, 0
4, 11771, Note_on_c, 9, 59, 87
4, 11844, Note_on_c, 9, 59, 0
4, 11872, Note_on_c, 9, 59, 87
4, 11897, Note_on_c, 9, 59, 0
4, 11950, Note_on_c, 9, 59, 87
4, 12022, Note_on_c, 9, 59, 0
4, 12068, Note_on_c, 9, 59, 87
4, 12083, Note_on_c, 9, 59, 0
4, 12128, Note_on_c, 9, 59, 87
4, 12197, Note_on_c, 9, 59, 0
4, 12236, Note_on_c, 9, 59, 87
4, 12283, Note_on_c, 9, 59, 0
4, 12356, Note_on_c, 9, 59, 87
4, 12372, Note_on_c, 9, 59, 0
4, 12418, Note_on_c, 9, 59, 87
4, 12448, Note_on_c, 9, 59, 0
4, 12472, Note_on_c, 9, 59, 87
4, 12550, Note_on_c, 9, 59, 0
4, 12655, Note_on_c, 9, 59, 87
4, 12686, Note_on_c, 9, 59, 0
4, 12718, Note_on_c, 9, 59, 87
4, 12791, Note_on_c, 9, 59, 0
4, 12833, Note_on_c, 9, 59, 87
4, 12848, Note_on_c, 9, 59, 0
4, 12900, Note_on_c, 9, 59, 87
4, 12923, Note_on_c, 9, 59, 0
4, 12968, Note_on_c, 9, 59, 87
4, 13035, Note_on_c, 9, 59, 0
4, 13068, Note_on_c, 9, 59, 87
4, 13095, Note_on_c, 9, 59, 0
4, 13146, Note_on_c, 9, 59, 87
4, 13164, Note_on_c, 9, 59, 0
4, 13204, Note_on_c, 9, 59, 87
4, 13272, Note_on_c, 9, 59, 0
4, 13317, Note_on_c, 9, 59, 87
4, 13333, Note_on_c, 9, 59, 0
4, 13383, Note_on_c, 9, 59, 87
4, 13402, Note_on_c, 9, 59, 0
4, 13442, Note_on_c, 9, 59, 87
4, 13516, Note_on_c, 9, 59, 0
4, 13559, Note_on_c, 9, 59, 87
4, 13577, Note_on_c, 9, 59, 0
4, 13618, Note_on_c, 9, 59, 87
4, 13670, Note_on_c, 9, 59, 0
4, 13684, Note_on_c, 9, 59, 87
4, 13739, Note_on_c, 9, 59, 0
4, 13804, Note_on_c, 9, 59, 87
4, 13820, Note_on_c, 9, 59, 0
4, 13865, Note_on_c, 9, 59, 87
4, 13949, Note_on_c, 9, 59, 0
4, 13990, Note_on_c, 9, 59, 87
4, 14021, Note_on_c, 9, 59, 0
4, 14052, Note_on_c, 9, 59, 87
4, 14129, Note_on_c, 9, 59, 0
4, 14163, Note_on_c, 9, 59, 87
4, 14184, Note_on_c, 9, 59, 0
4, 14222, Note_on_c, 9, 59, 87
4, 14289, Note_on_c, 9, 59, 0
4, 14348, Note_on_c, 9, 59, 87
4, 14365, Note_on_c, 9, 59, 0
4, 14405, Note_on_c, 9, 59, 87
4, 14491, Note_on_c, 9, 59, 0
4, 14518, Note_on_c, 9, 59, 87
4, 14538, Note_on_c, 9, 59, 0
4, 14582, Note_on_c, 9, 59, 87
4, 14651, Note_on_c, 9, 59, 0
4, 14702, Note_on_c, 9, 59, 87
4, 14719, Note_on_c, 9, 59, 0
4, 14755, Note_on_c, 9, 59, 87
4, 14824, Note_on_c, 9, 59, 0
4, 14867, Note_on_c, 9, 59, 87
4, 14881, Note_on_c, 9, 59, 0
4, 14936, Note_on_c, 9, 59, 87
4, 14996, Note_on_c, 9, 59, 0
4, 15056, Note_on_c, 9, 59, 87
4, 15081, Note_on_c, 9, 59, 0
4, 15112, Note_on_c, 9, 59, 87
4, 15183, Note_on_c, 9, 59, 0
4, 15247, Note_on_c, 9, 59, 87
4, 15261, Note_on_c, 9, 59, 0
4, 15304, Note_on_c, 9, 59, 87
4, 15321, Note_on_c, 9, 59, 0
4, 15364, Note_on_c, 9, 59, 87
4, 15440, Note_on_c, 9, 59, 0
4, 15545, Note_on_c, 9, 59, 87
4, 15561, Note_on_c, 9, 59, 0
4, 15606, Note_on_c, 9, 59, 87
4, 15669, Note_on_c, 9, 59, 0
4, 15726, Note_on_c, 9, 59, 87
4, 15744, Note_on_c, 9, 59, 0
4, 15795, Note_on_c, 9, 59, 87
4, 15809, Note_on_c, 9, 59, 0
4, 15853, Note_on_c, 9, 59, 87
4, 15916, Note_on_c, 9, 59, 0
4, 15962, Note_on_c, 9, 59, 87
4, 15976, Note_on_c, 9, 59, 0
4, 16030, Note_on_c, 9, 59, 87
4, 16049, Note_on_c, 9, 59, 0
4, 16083, Note_on_c, 9, 59, 87
4, 16150, Note_on_c, 9, 59, 0
4, 16204, Note_on_c, 9, 59, 87
4, 16221, Note_on_c, 9, 59, 0
4, 16328, Note_on_c, 9, 59, 87
4, 16404, Note_on_c, 9, 59, 0
4, 16436, Note_on_c, 9, 59, 87
4, 16449, Note_on_c, 9, 59, 0
4, 16502, Note_on_c, 9, 59, 87
4, 16530, Note_on_c, 9, 59, 0
4, 16560, Note_on_c, 9, 59, 87
4, 16626, Note_on_c, 9, 59, 0
4, 16680, Note_on_c, 9, 59, 87
4, 16696, Note_on_c, 9, 59, 0
4, 16746, Note_on_c, 9, 59, 87
4, 16776, Note_on_c, 9, 59, 0
4, 16880, Note_on_c, 9, 59, 87
4, 16901, Note_on_c, 9, 59, 0
4, 16929, Note_on_c, 9, 59, 87
4, 16999, Note_on_c, 9, 59, 0
4, 17040, Note_on_c, 9, 59, 87
4, 17057, Note_on_c, 9, 59, 0
4, 17111, Note_on_c, 9, 59, 87
4, 17145, Note_on_c, 9, 59, 0
4, 17232, Note_on_c, 9, 59, 87
4, 17252, Note_on_c, 9, 59, 0
4, 17281, Note_on_c, 9, 59, 87
4, 17340, Note_on_c, 9, 59, 0
4, 17464, Note_on_c, 9, 59, 87
4, 17496, Note_on_c, 9, 59, 0
4, 17520, Note_on_c, 9, 59, 87
4, 17559, Note_on_c, 9, 59, 0
4, 17644, Note_on_c, 9, 59, 87
4, 17660, Note_on_c, 9, 59, 0
4, 17707, Note_on_c, 9, 59, 87
4, 17736, Note_on_c, 9, 59, 0
4, 17762, Note_on_c, 9, 59, 87
4, 17836, Note_on_c, 9, 59, 0
4, 17944, Note_on_c, 9, 59, 87
4, 17976, Note_on_c, 9, 59, 0
4, 18007, Note_on_c, 9, 59, 87
4, 18076, Note_on_c, 9, 59, 0
4, 18126, Note_on_c, 9, 59, 87
4, 18143, Note_on_c, 9, 59, 0
4, 18189, Note_on_c, 9, 59, 87
4, 18220, Note_on_c, 9, 59, 0
4, 18235, Note_on_c, 9, 59, 87
4, 18272, Note_on_c, 9, 59, 0
4, 18450, Note_on_c, 9, 59, 87
4, 18479, Note_on_c, 9, 59, 0
4, 18518, Note_on_c, 9, 59, 87
4, 18532, Note_on_c, 9, 59, 0
4, 18681, Note_on_c, 9, 59, 87
4, 18728, Note_on_c, 9, 59, 0
4, 18804, Note_on_c, 9, 59, 87
4, 18818, Note_on_c, 9, 59, 0
4, 18864, Note_on_c, 9, 59, 87
4, 18933, Note_on_c, 9, 59, 0
4, 18984, Note_on_c, 9, 59, 87
4, 18997, Note_on_c, 9, 59, 0
4, 19046, Note_on_c, 9, 59, 87
4, 19087, Note_on_c, 9, 59, 0
4, 19153, Note_on_c, 9, 59, 87
4, 19175, Note_on_c, 9, 59, 0
4, 19209, Note_on_c, 9, 59, 87
4, 19274, Note_on_c, 9, 59, 0
4, 19318, Note_on_c, 9, 59, 87
4, 19334, Note_on_c, 9, 59, 0
4, 19383, Note_on_c, 9, 59, 87
4, 19430, Note_on_c, 9, 59, 0
4, 19505, Note_on_c, 9, 59, 87
4, 19528, Note_on_c, 9, 59, 0
4, 19565, Note_on_c, 9, 59, 87
4, 19627, Note_on_c, 9, 59, 0
4, 19680, Note_on_c, 9, 59, 87
4, 19695, Note_on_c, 9, 59, 0
4, 19750, Note_on_c, 9, 59, 87
4, 19792, Note_on_c, 9, 59, 0
4, 19870, Note_on_c, 9, 59, 87
4, 19886, Note_on_c, 9, 59, 0
4, 19931, Note_on_c, 9, 59, 87
4, 19977, Note_on_c, 9, 59, 0
4, 20054, Note_on_c, 9, 59, 87
4, 20070, Note_on_c, 9, 59, 0
4, 20118, Note_on_c, 9, 59, 87
4, 20170, Note_on_c, 9, 59, 0
4, 20230, Note_on_c, 9, 59, 87
4, 20261, Note_on_c, 9, 59, 0
4, 20288, Note_on_c, 9, 59, 87
4, 20334, Note_on_c, 9, 59, 0
4, 20388, Note_on_c, 9, 53, 87
4, 20391, Note_on_c, 9, 59, 87
4, 20424, Note_on_c, 9, 59, 0
4, 20424, Note_on_c, 9, 53, 0
4, 20511, Note_on_c, 9, 59, 87
4, 20533, Note_on_c, 9, 59, 0
4, 20582, Note_on_c, 9, 59, 87
4, 20590, Note_on_c, 9, 53, 87
4, 20610, Note_on_c, 9, 53, 0
4, 20626, Note_on_c, 9, 59, 0
4, 20706, Note_on_c, 9, 59, 87
4, 20731, Note_on_c, 9, 59, 0
4, 20770, Note_on_c, 9, 59, 87
4, 20772, Note_on_c, 9, 53, 87
4, 20801, Note_on_c, 9, 53, 0
4, 20822, Note_on_c, 9, 59, 0
4, 20882, Note_on_c, 9, 59, 87
4, 20904, Note_on_c, 9, 59, 0
4, 20953, Note_on_c, 9, 59, 87
4, 20958, Note_on_c, 9, 53, 87
4, 20978, Note_on_c, 9, 53, 0
4, 20987, Note_on_c, 9, 59, 0
4, 21077, Note_on_c, 9, 59, 87
4, 21127, Note_on_c, 9, 53, 87
4, 21160, Note_on_c, 9, 59, 0
4, 21164, Note_on_c, 9, 53, 0
4, 21246, Note_on_c, 9, 59, 87
4, 21276, Note_on_c, 9, 59, 0
4, 21310, Note_on_c, 9, 59, 87
4, 21341, Note_on_c, 9, 59, 0
4, 21423, Note_on_c, 9, 59, 87
4, 21444, Note_on_c, 9, 59, 0
4, 21481, Note_on_c, 9, 59, 87
4, 21542, Note_on_c, 9, 59, 0
4, 21607, Note_on_c, 9, 59, 87
4, 21637, Note_on_c, 9, 59, 0
4, 21722, Note_on_c, 9, 59, 87
4, 21757, Note_on_c, 9, 59, 0
4, 21907, Note_on_c, 9, 59, 87
4, 21936, Note_on_c, 9, 59, 0
4, 22029, Note_on_c, 9, 59, 87
4, 22053, Note_on_c, 9, 59, 0
4, 22090, Note_on_c, 9, 59, 87
4, 22129, Note_on_c, 9, 59, 0
4, 22196, Note_on_c, 9, 59, 87
4, 22216, Note_on_c, 9, 59, 0
4, 22272, Note_on_c, 9, 59, 87
4, 22312, Note_on_c, 9, 59, 0
4, 22383, Note_on_c, 9, 59, 87
4, 22398, Note_on_c, 9, 59, 0
4, 22442, Note_on_c, 9, 59, 87
4, 22503, Note_on_c, 9, 59, 0
4, 22556, Note_on_c, 9, 59, 87
4, 22575, Note_on_c, 9, 59, 0
4, 22626, Note_on_c, 9, 59, 87
4, 22670, Note_on_c, 9, 59, 0
4, 22739, Note_on_c, 9, 59, 87
4, 22764, Note_on_c, 9, 59, 0
4, 22794, Note_on_c, 9, 59, 87
4, 22829, Note_on_c, 9, 59, 0
4, 22922, Note_on_c, 9, 59, 87
4, 22976, Note_on_c, 9, 59, 0
4, 23046, Note_on_c, 9, 59, 87
4, 23094, Note_on_c, 9, 59, 0
4, 23164, Note_on_c, 9, 59, 87
4, 23217, Note_on_c, 9, 59, 0
4, 23249, Note_on_c, 9, 59, 87
4, 23280, Note_on_c, 9, 59, 0
4, 23304, Note_on_c, 9, 59, 87
4, 23354, Note_on_c, 9, 59, 0
4, 23402, Note_on_c, 9, 59, 87
4, 23455, Note_on_c, 9, 59, 0
4, 23522, Note_on_c, 9, 59, 87
4, 23572, Note_on_c, 9, 59, 0
4, 23628, Note_on_c, 9, 59, 87
4, 23689, Note_on_c, 9, 59, 0
4, 23723, Note_on_c, 9, 59, 87
4, 23749, Note_on_c, 9, 59, 0
4, 23779, Note_on_c, 9, 59, 87
4, 23839, Note_on_c, 9, 59, 0
4, 23894, Note_on_c, 9, 59, 87
4, 23948, Note_on_c, 9, 59, 0
4, 23978, Note_on_c, 9, 59, 87
4, 23992, Note_on_c, 9, 59, 0
4, 24023, Note_on_c, 9, 59, 87
4, 24076, Note_on_c, 9, 59, 0
4, 24125, Note_on_c, 9, 59, 87
4, 24154, Note_on_c, 9, 59, 0
4, 24252, Note_on_c, 9, 59, 87
4, 24311, Note_on_c, 9, 59, 0
4, 24360, Note_on_c, 9, 59, 87
4, 24411, Note_on_c, 9, 59, 0
4, 24486, Note_on_c, 9, 59, 87
4, 24547, Note_on_c, 9, 59, 0
4, 24598, Note_on_c, 9, 59, 87
4, 24648, Note_on_c, 9, 59, 0
4, 24716, Note_on_c, 9, 59, 87
4, 24770, Note_on_c, 9, 59, 0
4, 25082, Note_on_c, 9, 59, 87
4, 25109, Note_on_c, 9, 59, 0
4, 25169, Note_on_c, 9, 59, 87
4, 25188, Note_on_c, 9, 59, 0
4, 25200, Note_on_c, 9, 59, 87
4, 25268, Note_on_c, 9, 59, 0
4, 25326, Note_on_c, 9, 59, 87
4, 25406, Note_on_c, 9, 59, 0
4, 25445, Note_on_c, 9, 59, 87
4, 25537, Note_on_c, 9, 59, 0
4, 25561, Note_on_c, 9, 59, 87
4, 25621, Note_on_c, 9, 59, 0
4, 25647, Note_on_c, 9, 59, 87
4, 25665, Note_on_c, 9, 59, 0
4, 25683, Note_on_c, 9, 59, 87
4, 25780, Note_on_c, 9, 59, 0
4, 25806, Note_on_c, 9, 59, 87
4, 25867, Note_on_c, 9, 59, 0
4, 25923, Note_on_c, 9, 59, 87
4, 25982, Note_on_c, 9, 59, 0
4, 26041, Note_on_c, 9, 59, 87
4, 26079, Note_on_c, 9, 59, 0
4, 26122, Note_on_c, 9, 59, 87
4, 26141, Note_on_c, 9, 59, 0
4, 26161, Note_on_c, 9, 59, 87
4, 26246, Note_on_c, 9, 59, 0
4, 26279, Note_on_c, 9, 59, 87
4, 26338, Note_on_c, 9, 59, 0
4, 26362, Note_on_c, 9, 59, 87
4, 26385, Note_on_c, 9, 59, 0
4, 26405, Note_on_c, 9, 59, 87
4, 26479, Note_on_c, 9, 59, 0
4, 26517, Note_on_c, 9, 59, 87
4, 26566, Note_on_c, 9, 59, 0
4, 26603, Note_on_c, 9, 59, 87
4, 26621, Note_on_c, 9, 59, 0
4, 26641, Note_on_c, 9, 59, 87
4, 26716, Note_on_c, 9, 59, 0
4, 26761, Note_on_c, 9, 59, 87
4, 26810, Note_on_c, 9, 59, 0
4, 26848, Note_on_c, 9, 59, 87
4, 26862, Note_on_c, 9, 59, 0
4, 26883, Note_on_c, 9, 59, 87
4, 26949, Note_on_c, 9, 59, 0
4, 27003, Note_on_c, 9, 59, 87
4, 27050, Note_on_c, 9, 59, 0
4, 27088, Note_on_c, 9, 59, 87
4, 27101, Note_on_c, 9, 59, 0
4, 27120, Note_on_c, 9, 59, 87
4, 27190, Note_on_c, 9, 59, 0
4, 27241, Note_on_c, 9, 59, 87
4, 27287, Note_on_c, 9, 59, 0
4, 27333, Note_on_c, 9, 59, 87
4, 27344, Note_on_c, 9, 59, 0
4, 27362, Note_on_c, 9, 59, 87
4, 27429, Note_on_c, 9, 59, 0
4, 27476, Note_on_c, 9, 59, 87
4, 27542, Note_on_c, 9, 59, 0
4, 27599, Note_on_c, 9, 59, 87
4, 27673, Note_on_c, 9, 59, 0
4, 27675, Note_on_c, 9, 53, 87
4, 27714, Note_on_c, 9, 53, 0
4, 27718, Note_on_c, 9, 59, 87
4, 27802, Note_on_c, 9, 59, 0
4, 27837, Note_on_c, 9, 59, 87
4, 27905, Note_on_c, 9, 59, 0
4, 27963, Note_on_c, 9, 59, 87
4, 28055, Note_on_c, 9, 59, 0
4, 28079, Note_on_c, 9, 59, 87
4, 28142, Note_on_c, 9, 59, 0
4, 28171, Note_on_c, 9, 59, 87
4, 28179, Note_on_c, 9, 59, 0
4, 28198, Note_on_c, 9, 59, 87
4, 28284, Note_on_c, 9, 59, 0
4, 28314, Note_on_c, 9, 59, 87
4, 28400, Note_on_c, 9, 59, 0
4, 28439, Note_on_c, 9, 59, 87
4, 28506, Note_on_c, 9, 59, 0
4, 28527, Note_on_c, 9, 59, 87
4, 28539, Note_on_c, 9, 59, 0
4, 28561, Note_on_c, 9, 59, 87
4, 28653, Note_on_c, 9, 59, 0
4, 28682, Note_on_c, 9, 59, 87
4, 28735, Note_on_c, 9, 59, 0
4, 28770, Note_on_c, 9, 59, 87
4, 28780, Note_on_c, 9, 59, 0
4, 28800, Note_on_c, 9, 59, 87
4, 28881, Note_on_c, 9, 59, 0
4, 28922, Note_on_c, 9, 59, 87
4, 28989, Note_on_c, 9, 59, 0
4, 29011, Note_on_c, 9, 59, 87
4, 29024, Note_on_c, 9, 59, 0
4, 29041, Note_on_c, 9, 59, 87
4, 29110, Note_on_c, 9, 59, 0
4, 29161, Note_on_c, 9, 59, 87
4, 29222, Note_on_c, 9, 59, 0
4, 29283, Note_on_c, 9, 59, 87
4, 29350, Note_on_c, 9, 59, 0
4, 29398, Note_on_c, 9, 59, 87
4, 29469, Note_on_c, 9, 59, 0
4, 29492, Note_on_c, 9, 59, 87
4, 29503, Note_on_c, 9, 59, 0
4, 29517, Note_on_c, 9, 59, 87
4, 29594, Note_on_c, 9, 59, 0
4, 29623, Note_on_c, 9, 59, 87
4, 29684, Note_on_c, 9, 59, 0
4, 29724, Note_on_c, 9, 59, 87
4, 29735, Note_on_c, 9, 59, 0
4, 29755, Note_on_c, 9, 59, 87
4, 29827, Note_on_c, 9, 59, 0
4, 29878, Note_on_c, 9, 59, 87
4, 29939, Note_on_c, 9, 59, 0
4, 29961, Note_on_c, 9, 59, 87
4, 29976, Note_on_c, 9, 59, 0
4, 29993, Note_on_c, 9, 59, 87
4, 30060, Note_on_c, 9, 59, 0
4, 30119, Note_on_c, 9, 59, 87
4, 30188, Note_on_c, 9, 59, 0
4, 30236, Note_on_c, 9, 59, 87
4, 30300, Note_on_c, 9, 59, 0
4, 30361, Note_on_c, 9, 59, 87
4, 30433, Note_on_c, 9, 59, 0
4, 30483, Note_on_c, 9, 59, 87
4, 30568, Note_on_c, 9, 59, 0
4, 30605, Note_on_c, 9, 59, 87
4, 30627, Note_on_c, 9, 59, 0
4, 30676, Note_on_c, 9, 59, 87
4, 30686, Note_on_c, 9, 59, 0
4, 30726, Note_on_c, 9, 59, 87
4, 30770, Note_on_c, 9, 59, 0
4, 30902, Note_on_c, 9, 59, 87
4, 30923, Note_on_c, 9, 59, 0
4, 30963, Note_on_c, 9, 59, 87
4, 31002, Note_on_c, 9, 59, 0
4, 31083, Note_on_c, 9, 59, 87
4, 31127, Note_on_c, 9, 59, 0
4, 31148, Note_on_c, 9, 59, 87
4, 31184, Note_on_c, 9, 59, 0
4, 31267, Note_on_c, 9, 59, 87
4, 31306, Note_on_c, 9, 59, 0
4, 31387, Note_on_c, 9, 59, 87
4, 31411, Note_on_c, 9, 59, 0
4, 31442, Note_on_c, 9, 59, 87
4, 31493, Note_on_c, 9, 59, 0
4, 31510, Note_on_c, 9, 59, 87
4, 31525, Note_on_c, 9, 59, 0
4, 31561, Note_on_c, 9, 59, 87
4, 31626, Note_on_c, 9, 59, 0
4, 31685, Note_on_c, 9, 59, 87
4, 31734, Note_on_c, 9, 59, 0
4, 31802, Note_on_c, 9, 59, 87
4, 31844, Note_on_c, 9, 59, 0
4, 31864, Note_on_c, 9, 59, 87
4, 31906, Note_on_c, 9, 59, 0
4, 31981, Note_on_c, 9, 59, 87
4, 32028, Note_on_c, 9, 59, 0
4, 32108, Note_on_c, 9, 59, 87
4, 32130, Note_on_c, 9, 59, 0
4, 32167, Note_on_c, 9, 59, 87
4, 32251, Note_on_c, 9, 59, 0
4, 32280, Note_on_c, 9, 59, 87
4, 32300, Note_on_c, 9, 59, 0
4, 32347, Note_on_c, 9, 59, 87
4, 32376, Note_on_c, 9, 59, 0
4, 32397, Note_on_c, 9, 59, 87
4, 32475, Note_on_c, 9, 59, 0
4, 32515, Note_on_c, 9, 59, 87
4, 32538, Note_on_c, 9, 59, 0
4, 32582, Note_on_c, 9, 59, 87
4, 32686, Note_on_c, 9, 59, 0
4, 32709, Note_on_c, 9, 59, 87
4, 32725, Note_on_c, 9, 59, 0
4, 32763, Note_on_c, 9, 59, 87
4, 32842, Note_on_c, 9, 59, 0
4, 32875, Note_on_c, 9, 59, 87
4, 32975, Note_on_c, 9, 59, 0
4, 32997, Note_on_c, 9, 59, 87
4, 33011, Note_on_c, 9, 59, 0
4, 33064, Note_on_c, 9, 59, 87
4, 33162, Note_on_c, 9, 59, 0
4, 33181, Note_on_c, 9, 59, 87
4, 33244, Note_on_c, 9, 59, 0
4, 33302, Note_on_c, 9, 59, 87
4, 33332, Note_on_c, 9, 59, 0
4, 33358, Note_on_c, 9, 59, 87
4, 33436, Note_on_c, 9, 59, 0
4, 33482, Note_on_c, 9, 59, 87
4, 33499, Note_on_c, 9, 59, 0
4, 33550, Note_on_c, 9, 59, 87
4, 33654, Note_on_c, 9, 59, 0
4, 33715, Note_on_c, 9, 59, 87
4, 33731, Note_on_c, 9, 59, 0
4, 33777, Note_on_c, 9, 59, 87
4, 33893, Note_on_c, 9, 59, 0
4, 33912, Note_on_c, 9, 59, 87
4, 33942, Note_on_c, 9, 59, 0
4, 33964, Note_on_c, 9, 59, 87
4, 34056, Note_on_c, 9, 59, 0
4, 34080, Note_on_c, 9, 59, 87
4, 34127, Note_on_c, 9, 59, 0
4, 34146, Note_on_c, 9, 59, 87
4, 34227, Note_on_c, 9, 59, 0
4, 34264, Note_on_c, 9, 59, 87
4, 34296, Note_on_c, 9, 59, 0
4, 34318, Note_on_c, 9, 59, 87
4, 34375, Note_on_c, 9, 59, 0
4, 34383, Note_on_c, 9, 53, 87
4, 34416, Note_on_c, 9, 53, 0
4, 34440, Note_on_c, 9, 59, 87
4, 34475, Note_on_c, 9, 59, 0
4, 34500, Note_on_c, 9, 59, 87
4, 34531, Note_on_c, 9, 59, 0
4, 34559, Note_on_c, 9, 59, 87
4, 34639, Note_on_c, 9, 59, 0
4, 34678, Note_on_c, 9, 59, 87
4, 34696, Note_on_c, 9, 59, 0
4, 34742, Note_on_c, 9, 59, 87
4, 34814, Note_on_c, 9, 59, 0
4, 34860, Note_on_c, 9, 59, 87
4, 34879, Note_on_c, 9, 59, 0
4, 34919, Note_on_c, 9, 59, 87
4, 34993, Note_on_c, 9, 59, 0
4, 35035, Note_on_c, 9, 59, 87
4, 35088, Note_on_c, 9, 59, 0
4, 35158, Note_on_c, 9, 59, 87
4, 35190, Note_on_c, 9, 59, 0
4, 35230, Note_on_c, 9, 59, 87
4, 35256, Note_on_c, 9, 59, 0
4, 35288, Note_on_c, 9, 59, 87
4, 35351, Note_on_c, 9, 59, 0
4, 35400, Note_on_c, 9, 59, 87
4, 35448, Note_on_c, 9, 59, 0
4, 35468, Note_on_c, 9, 59, 87
4, 35561, Note_on_c, 9, 59, 0
4, 35592, Note_on_c, 9, 59, 87
4, 35654, Note_on_c, 9, 59, 0
4, 35704, Note_on_c, 9, 59, 87
4, 35725, Note_on_c, 9, 59, 0
4, 35764, Note_on_c, 9, 59, 87
4, 35830, Note_on_c, 9, 59, 0
4, 35878, Note_on_c, 9, 59, 87
4, 35925, Note_on_c, 9, 59, 0
4, 35951, Note_on_c, 9, 59, 87
4, 36039, Note_on_c, 9, 59, 0
4, 36064, Note_on_c, 9, 59, 87
4, 36085, Note_on_c, 9, 59, 0
4, 36184, Note_on_c, 9, 59, 87
4, 36219, Note_on_c, 9, 59, 0
4, 36240, Note_on_c, 9, 59, 87
4, 36287, Note_on_c, 9, 59, 0
4, 36304, Note_on_c, 9, 59, 87
4, 36324, Note_on_c, 9, 59, 0
4, 36361, Note_on_c, 9, 59, 87
4, 36428, Note_on_c, 9, 59, 0
4, 36479, Note_on_c, 9, 59, 87
4, 36490, Note_on_c, 9, 59, 0
4, 36556, Note_on_c, 9, 59, 87
4, 36594, Note_on_c, 9, 59, 0
4, 36662, Note_on_c, 9, 59, 87
4, 36685, Note_on_c, 9, 59, 0
4, 36718, Note_on_c, 9, 59, 87
4, 36779, Note_on_c, 9, 59, 0
4, 36833, Note_on_c, 9, 59, 87
4, 36876, Note_on_c, 9, 59, 0
4, 36960, Note_on_c, 9, 59, 87
4, 36989, Note_on_c, 9, 59, 0
4, 37084, Note_on_c, 9, 59, 87
4, 37116, Note_on_c, 9, 59, 0
4, 37203, Note_on_c, 9, 59, 87
4, 37224, Note_on_c, 9, 59, 0
4, 37261, Note_on_c, 9, 59, 87
4, 37288, Note_on_c, 9, 59, 0
4, 37317, Note_on_c, 9, 59, 87
4, 37337, Note_on_c, 9, 59, 0
4, 37386, Note_on_c, 9, 59, 87
4, 37389, Note_on_c, 9, 53, 87
4, 37415, Note_on_c, 9, 53, 0
4, 37429, Note_on_c, 9, 59, 0
4, 37502, Note_on_c, 9, 53, 87
4, 37502, Note_on_c, 9, 59, 87
4, 37536, Note_on_c, 9, 59, 0
4, 37543, Note_on_c, 9, 53, 0
4, 37624, Note_on_c, 9, 59, 87
4, 37643, Note_on_c, 9, 59, 0
4, 37681, Note_on_c, 9, 59, 87
4, 37718, Note_on_c, 9, 59, 0
4, 37746, Note_on_c, 9, 53, 87
4, 37756, Note_on_c, 9, 53, 0
4, 37796, Note_on_c, 9, 59, 87
4, 37805, Note_on_c, 9, 59, 0
4, 37869, Note_on_c, 9, 59, 87
4, 37872, Note_on_c, 9, 53, 87
4, 37889, Note_on_c, 9, 59, 0
4, 37894, Note_on_c, 9, 53, 0
4, 37986, Note_on_c, 9, 59, 87
4, 37990, Note_on_c, 9, 53, 87
4, 38011, Note_on_c, 9, 59, 0
4, 38020, Note_on_c, 9, 53, 0
4, 38101, Note_on_c, 9, 53, 87
4, 38132, Note_on_c, 9, 53, 0
4, 38162, Note_on_c, 9, 59, 87
4, 38185, Note_on_c, 9, 59, 0
4, 38214, Note_on_c, 9, 53, 87
4, 38223, Note_on_c, 9, 53, 0
4, 38270, Note_on_c, 9, 53, 87
4, 38270, Note_on_c, 9, 59, 87
4, 38271, Note_on_c, 9, 57, 87
4, 38278, Note_on_c, 9, 53, 0
4, 38289, Note_on_c, 9, 57, 0
4, 38295, Note_on_c, 9, 59, 0
4, 38403, Note_on_c, 9, 59, 87
4, 38450, Note_on_c, 9, 59, 0
4, 38527, Note_on_c, 9, 59, 87
4, 38563, Note_on_c, 9, 59, 0
4, 38594, Note_on_c, 9, 59, 87
4, 38626, Note_on_c, 9, 59, 0
4, 38666, Note_on_c, 9, 59, 87
4, 38747, Note_on_c, 9, 59, 0
4, 38783, Note_on_c, 9, 59, 87
4, 38811, Note_on_c, 9, 59, 0
4, 38855, Note_on_c, 9, 59, 87
4, 38880, Note_on_c, 9, 59, 0
4, 38906, Note_on_c, 9, 59, 87
4, 38994, Note_on_c, 9, 59, 0
4, 39022, Note_on_c, 9, 59, 87
4, 39038, Note_on_c, 9, 59, 0
4, 39079, Note_on_c, 9, 59, 87
4, 39112, Note_on_c, 9, 59, 0
4, 39132, Note_on_c, 9, 59, 87
4, 39208, Note_on_c, 9, 59, 0
4, 39240, Note_on_c, 9, 59, 87
4, 39266, Note_on_c, 9, 59, 0
4, 39300, Note_on_c, 9, 59, 87
4, 39337, Note_on_c, 9, 59, 0
4, 39362, Note_on_c, 9, 59, 87
4, 39437, Note_on_c, 9, 59, 0
4, 39472, Note_on_c, 9, 59, 87
4, 39495, Note_on_c, 9, 59, 0
4, 39539, Note_on_c, 9, 59, 87
4, 39570, Note_on_c, 9, 59, 0
4, 39596, Note_on_c, 9, 59, 87
4, 39668, Note_on_c, 9, 59, 0
4, 39702, Note_on_c, 9, 59, 87
4, 39728, Note_on_c, 9, 59, 0
4, 39772, Note_on_c, 9, 59, 87
4, 39796, Note_on_c, 9, 59, 0
4, 39838, Note_on_c, 9, 59, 87
4, 39908, Note_on_c, 9, 59, 0
4, 39951, Note_on_c, 9, 59, 87
4, 39968, Note_on_c, 9, 59, 0
4, 40025, Note_on_c, 9, 59, 87
4, 40054, Note_on_c, 9, 59, 0
4, 40087, Note_on_c, 9, 59, 87
4, 40161, Note_on_c, 9, 59, 0
4, 40203, Note_on_c, 9, 59, 87
4, 40217, Note_on_c, 9, 59, 0
4, 40269, Note_on_c, 9, 59, 87
4, 40286, Note_on_c, 9, 59, 0
4, 40328, Note_on_c, 9, 59, 87
4, 40390, Note_on_c, 9, 59, 0
4, 40442, Note_on_c, 9, 59, 87
4, 40457, Note_on_c, 9, 59, 0
4, 40506, Note_on_c, 9, 59, 87
4, 40533, Note_on_c, 9, 59, 0
4, 40565, Note_on_c, 9, 59, 87
4, 40629, Note_on_c, 9, 59, 0
4, 40685, Note_on_c, 9, 59, 87
4, 40700, Note_on_c, 9, 59, 0
4, 40755, Note_on_c, 9, 59, 87
4, 40769, Note_on_c, 9, 59, 0
4, 40811, Note_on_c, 9, 59, 87
4, 40886, Note_on_c, 9, 59, 0
4, 40920, Note_on_c, 9, 59, 87
4, 40937, Note_on_c, 9, 59, 0
4, 40990, Note_on_c, 9, 59, 87
4, 41008, Note_on_c, 9, 59, 0
4, 41045, Note_on_c, 9, 59, 87
4, 41132, Note_on_c, 9, 59, 0
4, 41163, Note_on_c, 9, 59, 87
4, 41178, Note_on_c, 9, 59, 0
4, 41234, Note_on_c, 9, 59, 87
4, 41248, Note_on_c, 9, 59, 0
4, 41285, Note_on_c, 9, 59, 87
4, 41376, Note_on_c, 9, 59, 0
4, 41409, Note_on_c, 9, 59, 87
4, 41425, Note_on_c, 9, 59, 0
4, 41468, Note_on_c, 9, 59, 87
4, 41495, Note_on_c, 9, 59, 0
4, 41526, Note_on_c, 9, 59, 87
4, 41600, Note_on_c, 9, 59, 0
4, 41645, Note_on_c, 9, 59, 87
4, 41659, Note_on_c, 9, 59, 0
4, 41707, Note_on_c, 9, 59, 87
4, 41733, Note_on_c, 9, 59, 0
4, 41760, Note_on_c, 9, 59, 87
4, 41841, Note_on_c, 9, 59, 0
4, 41879, Note_on_c, 9, 59, 87
4, 41896, Note_on_c, 9, 59, 0
4, 41946, Note_on_c, 9, 59, 87
4, 41975, Note_on_c, 9, 59, 0
4, 42006, Note_on_c, 9, 59, 87
4, 42084, Note_on_c, 9, 59, 0
4, 42129, Note_on_c, 9, 59, 87
4, 42145, Note_on_c, 9, 59, 0
4, 42193, Note_on_c, 9, 59, 87
4, 42224, Note_on_c, 9, 59, 0
4, 42248, Note_on_c, 9, 59, 87
4, 42338, Note_on_c, 9, 59, 0
4, 42371, Note_on_c, 9, 59, 87
4, 42386, Note_on_c, 9, 59, 0
4, 42424, Note_on_c, 9, 59, 87
4, 42464, Note_on_c, 9, 59, 0
4, 42491, Note_on_c, 9, 59, 87
4, 42564, Note_on_c, 9, 59, 0
4, 42592, Note_on_c, 9, 59, 87
4, 42617, Note_on_c, 9, 59, 0
4, 42670, Note_on_c, 9, 59, 87
4, 42742, Note_on_c, 9, 59, 0
4, 42788, Note_on_c, 9, 59, 87
4, 42803, Note_on_c, 9, 59, 0
4, 42848, Note_on_c, 9, 59, 87
4, 42917, Note_on_c, 9, 59, 0
4, 42956, Note_on_c, 9, 59, 87
4, 43003, Note_on_c, 9, 59, 0
4, 43076, Note_on_c, 9, 59, 87
4, 43092, Note_on_c, 9, 59, 0
4, 43138, Note_on_c, 9, 59, 87
4, 43168, Note_on_c, 9, 59, 0
4, 43192, Note_on_c, 9, 59, 87
4, 43270, Note_on_c, 9, 59, 0
4, 43375, Note_on_c, 9, 59, 87
4, 43406, Note_on_c, 9, 59, 0
4, 43438, Note_on_c, 9, 59, 87
4, 43511, Note_on_c, 9, 59, 0
4, 43553, Note_on_c, 9, 59, 87
4, 43568, Note_on_c, 9, 59, 0
4, 43620, Note_on_c, 9, 59, 87
4, 43643, Note_on_c, 9, 59, 0
4, 43688, Note_on_c, 9, 59, 87
4, 43755, Note_on_c, 9, 59, 0
4, 43788, Note_on_c, 9, 59, 87
4, 43815, Note_on_c, 9, 59, 0
4, 43866, Note_on_c, 9, 59, 87
4, 43884, Note_on_c, 9, 59, 0
4, 43924, Note_on_c, 9, 59, 87
4, 43992, Note_on_c, 9, 59, 0
4, 44037, Note_on_c, 9, 59, 87
4, 44053, Note_on_c, 9, 59, 0
4, 44103, Note_on_c, 9, 59, 87
4, 44122, Note_on_c, 9, 59, 0
4, 44162, Note_on_c, 9, 59, 87
4, 44236, Note_on_c, 9, 59, 0
4, 44279, Note_on_c, 9, 59, 87
4, 44297, Note_on_c, 9, 59, 0
4, 44338, Note_on_c, 9, 59, 87
4, 44390, Note_on_c, 9, 59, 0
4, 44404, Note_on_c, 9, 59, 87
4, 44459, Note_on_c, 9, 59, 0
4, 44524, Note_on_c, 9, 59, 87
4, 44540, Note_on_c, 9, 59, 0
4, 44585, Note_on_c, 9, 59, 87
4, 44669, Note_on_c, 9, 59, 0
4, 44710, Note_on_c, 9, 59, 87
4, 44741, Note_on_c, 9, 59, 0
4, 44772, Note_on_c, 9, 59, 87
4, 44849, Note_on_c, 9, 59, 0
4, 44883, Note_on_c, 9, 59, 87
4, 44904, Note_on_c, 9, 59, 0
4, 44942, Note_on_c, 9, 59, 87
4, 45009, Note_on_c, 9, 59, 0
4, 45068, Note_on_c, 9, 59, 87
4, 45085, Note_on_c, 9, 59, 0
4, 45125, Note_on_c, 9, 59, 87
4, 45211, Note_on_c, 9, 59, 0
4, 45238, Note_on_c, 9, 59, 87
4, 45258, Note_on_c, 9, 59, 0
4, 45302, Note_on_c, 9, 59, 87
4, 45371, Note_on_c, 9, 59, 0
4, 45422, Note_on_c, 9, 59, 87
4, 45439, Note_on_c, 9, 59, 0
4, 45475, Note_on_c, 9, 59, 87
4, 45544, Note_on_c, 9, 59, 0
4, 45587, Note_on_c, 9, 59, 87
4, 45601, Note_on_c, 9, 59, 0
4, 45656, Note_on_c, 9, 59, 87
4, 45716, Note_on_c, 9, 59, 0
4, 45776, Note_on_c, 9, 59, 87
4, 45801, Note_on_c, 9, 59, 0
4, 45832, Note_on_c, 9, 59, 87
4, 45903, Note_on_c, 9, 59, 0
4, 45967, Note_on_c, 9, 59, 87
4, 45981, Note_on_c, 9, 59, 0
4, 46024, Note_on_c, 9, 59, 87
4, 46041, Note_on_c, 9, 59, 0
4, 46084, Note_on_c, 9, 59, 87
4, 46160, Note_on_c, 9, 59, 0
4, 46265, Note_on_c, 9, 59, 87
4, 46281, Note_on_c, 9, 59, 0
4, 46326, Note_on_c, 9, 59, 87
4, 46389, Note_on_c, 9, 59, 0
4, 46446, Note_on_c, 9, 59, 87
4, 46464, Note_on_c, 9, 59, 0
4, 46515, Note_on_c, 9, 59, 87
4, 46529, Note_on_c, 9, 59, 0
4, 46573, Note_on_c, 9, 59, 87
4, 46636, Note_on_c, 9, 59, 0
4, 46682, Note_on_c, 9, 59, 87
4, 46696, Note_on_c, 9, 59, 0
4, 46750, Note_on_c, 9, 59, 87
4, 46769, Note_on_c, 9, 59, 0
4, 46803, Note_on_c, 9, 59, 87
4, 46870, Note_on_c, 9, 59, 0
4, 46924, Note_on_c, 9, 59, 87
4, 46941, Note_on_c, 9, 59, 0
4, 47048, Note_on_c, 9, 59, 87
4, 47124, Note_on_c, 9, 59, 0
4, 47156, Note_on_c, 9, 59, 87
4, 47169, Note_on_c, 9, 59, 0
4, 47222, Note_on_c, 9, 59, 87
4, 47250, Note_on_c, 9, 59, 0
4, 47280, Note_on_c, 9, 59, 87
4, 47346, Note_on_c, 9, 59, 0
4, 47400, Note_on_c, 9, 59, 87
4, 47416, Note_on_c, 9, 59, 0
4, 47466, Note_on_c, 9, 59, 87
4, 47496, Note_on_c, 9, 59, 0
4, 47600, Note_on_c, 9, 59, 87
4, 47621, Note_on_c, 9, 59, 0
4, 47649, Note_on_c, 9, 59, 87
4, 47719, Note_on_c, 9, 59, 0
4, 47760, Note_on_c, 9, 59, 87
4, 47777, Note_on_c, 9, 59, 0
4, 47831, Note_on_c, 9, 59, 87
4, 47865, Note_on_c, 9, 59, 0
4, 47952, Note_on_c, 9, 59, 87
4, 47972, Note_on_c, 9, 59, 0
4, 48001, Note_on_c, 9, 59, 87
4, 48060, Note_on_c, 9, 59, 0
4, 48184, Note_on_c, 9, 59, 87
4, 48216, Note_on_c, 9, 59, 0
4, 48240, Note_on_c, 9, 59, 87
4, 48279, Note_on_c, 9, 59, 0
4, 48364, Note_on_c, 9, 59, 87
4, 48380, Note_on_c, 9, 59, 0
4, 48427, Note_on_c, 9, 59, 87
4, 48456, Note_on_c, 9, 59, 0
4, 48482, Note_on_c, 9, 59, 87
4, 48556, Note_on_c, 9, 59, 0
4, 48664, Note_on_c, 9, 59, 87
4, 48696, Note_on_c, 9, 59, 0
4, 48727, Note_on_c, 9, 59, 87
4, 48796, Note_on_c, 9, 59, 0
4, 48846, Note_on_c, 9, 59, 87
4, 48863, Note_on_c, 9, 59, 0
4, 48909, Note_on_c, 9, 59, 87
4, 48940, Note_on_c, 9, 59, 0
4, 48955, Note_on_c, 9, 59, 87
4, 48992, Note_on_c, 9, 59, 0
4, 49170, Note_on_c, 9, 59, 87
4, 49199, Note_on_c, 9, 59, 0
4, 49238, Note_on_c, 9, 59, 87
4, 49252, Note_on_c, 9, 59, 0
4, 49401, Note_on_c, 9, 59, 87
4, 49448, Note_on_c, 9, 59, 0
4, 49524, Note_on_c, 9, 59, 87
4, 49538, Note_on_c, 9, 59, 0
4, 49584, Note_on_c, 9, 59, 87
4, 49653, Note_on_c, 9, 59, 0
4, 49704, Note_on_c, 9, 59, 87
4, 49717, Note_on_c, 9, 59, 0
4, 49766, Note_on_c, 9, 59, 87
4, 49807, Note_on_c, 9, 59, 0
4, 49873, Note_on_c, 9, 59, 87
4, 49895, Note_on_c, 9, 59, 0
4, 49929, Note_on_c, 9, 59, 87
4, 49994, Note_on_c, 9, 59, 0
4, 50038, Note_on_c, 9, 59, 87
4, 50054, Note_on_c, 9, 59, 0
4, 50103, Note_on_c, 9, 59, 87
4, 50150, Note_on_c, 9, 59, 0
4, 50225, Note_on_c, 9, 59, 87
4, 50248, Note_on_c, 9, 59, 0
4, 50285, Note_on_c, 9, 59, 87
4, 50347, Note_on_c, 9, 59, 0
4, 50400, Note_on_c, 9, 59, 87
4, 50415, Note_on_c, 9, 59, 0
4, 50470, Note_on_c, 9, 59, 87
4, 50512, Note_on_c, 9, 59, 0
4, 50590, Note_on_c, 9, 59, 87
4, 50606, Note_on_c, 9, 59, 0
4, 50651, Note_on_c, 9, 59, 87
4, 50697, Note_on_c, 9, 59, 0
4, 50774, Note_on_c, 9, 59, 87
4, 50790, Note_on_c, 9, 59, 0
4, 50838, Note_on_c, 9, 59, 87
4, 50890, Note_on_c, 9, 59, 0
4, 50950, Note_on_c, 9, 59, 87
4, 50981, Note_on_c, 9, 59, 0
4, 51008, Note_on_c, 9, 59, 87
4, 51054, Note_on_c, 9, 59, 0
4, 51108, Note_on_c, 9, 53, 87
4, 51111, Note_on_c, 9, 59, 87
4, 51144, Note_on_c, 9, 59, 0
4, 51144, Note_on_c, 9, 53, 0
4, 51231, Note_on_c, 9, 59, 87
4, 51253, Note_on_c, 9, 59, 0
4, 51302, Note_on_c, 9, 59, 87
4, 51310, Note_on_c, 9, 53, 87
4, 51330, Note_on_c, 9, 53, 0
4, 51346, Note_on_c, 9, 59, 0
4, 51426, Note_on_c, 9, 59, 87
4, 51451, Note_on_c, 9, 59, 0
4, 51490, Note_on_c, 9, 59, 87
4, 51492, Note_on_c, 9, 53, 87
4, 51521, Note_on_c, 9, 53, 0
4, 51542, Note_on_c, 9, 59, 0
4, 51602, Note_on_c, 9, 59, 87
4, 51624, Note_on_c, 9, 59, 0
4, 51673, Note_on_c, 9, 59, 87
4, 51678, Note_on_c, 9, 53, 87
4, 51698, Note_on_c, 9, 53, 0
4, 51707, Note_on_c, 9, 59, 0
4, 51797, Note_on_c, 9, 59, 87
4, 51847, Note_on_c, 9, 53, 87
4, 51880, Note_on_c, 9, 59, 0
4, 51884, Note_on_c, 9, 53, 0
4, 51966, Note_on_c, 9, 59, 87
4, 51996, Note_on_c, 9, 59, 0
4, 52030, Note_on_c, 9, 59, 87
4, 52061, Note_on_c, 9, 59, 0
4, 52143, Note_on_c, 9, 59, 87
4, 52164, Note_on_c, 9, 59, 0
4, 52201, Note_on_c, 9, 59, 87
4, 52262, Note_on_c, 9, 59, 0
4, 52327, Note_on_c, 9, 59, 87
4, 52357, Note_on_c, 9, 59, 0
4, 52442, Note_on_c, 9, 59, 87
4, 52477, Note_on_c, 9, 59, 0
4, 52627, Note_on_c, 9, 59, 87
4, 52656, Note_on_c, 9, 59, 0
4, 52749, Note_on_c, 9, 59, 87
4, 52773, Note_on_c, 9, 59, 0
4, 52810, Note_on_c, 9, 59, 87
4, 52849, Note_on_c, 9, 59, 0
4, 52916, Note_on_c, 9, 59, 87
4, 52936, Note_on_c, 9, 59, 0
4, 52992, Note_on_c, 9, 59, 87
4, 53032, Note_on_c, 9, 59, 0
4, 53103, Note_on_c, 9, 59, 87
4, 53118, Note_on_c, 9, 59, 0
4, 53162, Note_on_c, 9, 59, 87
4, 53223, Note_on_c, 9, 59, 0
4, 53276, Note_on_c, 9, 59, 87
4, 53295, Note_on_c, 9, 59, 0
4, 53346, Note_on_c, 9, 59, 87
4, 53390, Note_on_c, 9, 59, 0
4, 53459, Note_on_c, 9, 59, 87
4, 53484, Note_on_c, 9, 59, 0
4, 53514, Note_on_c, 9, 59, 87
4, 53549, Note_on_c, 9, 59, 0
4, 53642, Note_on_c, 9, 59, 87
4, 53696, Note_on_c, 9, 59, 0
4, 53766, Note_on_c, 9, 59, 87
4, 53814, Note_on_c, 9, 59, 0
4, 53884, Note_on_c, 9, 59, 87
4, 53937, Note_on_c, 9, 59, 0
4, 53969, Note_on_c, 9, 59, 87
4, 54000, Note_on_c, 9, 59, 0
4, 54024, Note_on_c, 9, 59, 87
4, 54074, Note_on_c, 9, 59, 0
4, 54122, Note_on_c, 9, 59, 87
4, 54175, Note_on_c, 9, 59, 0
4, 54242, Note_on_c, 9, 59, 87
4, 54292, Note_on_c, 9, 59, 0
4, 54348, Note_on_c, 9, 59, 87
4, 54409, Note_on_c, 9, 59, 0
4, 54443, Note_on_c, 9, 59, 87
4, 54469, Note_on_c, 9, 59, 0
4, 54499, Note_on_c, 9, 59, 87
4, 54559, Note_on_c, 9, 59, 0
4, 54614, Note_on_c, 9, 59, 87
4, 54668, Note_on_c, 9, 59, 0
4, 54698, Note_on_c, 9, 59, 87
4, 54712, Note_on_c, 9, 59, 0
4, 54743, Note_on_c, 9, 59, 87
4, 54796, Note_on_c, 9, 59, 0
4, 54845, Note_on_c, 9, 59, 87
4, 54874, Note_on_c, 9, 59, 0
4, 54972, Note_on_c, 9, 59, 87
4, 55031, Note_on_c, 9, 59, 0
4, 55080, Note_on_c, 9, 59, 87
4, 55131, Note_on_c, 9, 59, 0
4, 55206, Note_on_c, 9, 59, 87
4, 55267, Note_on_c, 9, 59, 0
4, 55318, Note_on_c, 9, 59, 87
4, 55368, Note_on_c, 9, 59, 0
4, 55436, Note_on_c, 9, 59, 87
4, 55490, Note_on_c, 9, 59, 0
4, 55802, Note_on_c, 9, 59, 87
4, 55829, Note_on_c, 9, 59, 0
4, 55889, Note_on_c, 9, 59, 87
4, 55908, Note_on_c, 9, 59, 0
4, 55920, Note_on_c, 9, 59, 87
4, 55988, Note_on_c, 9, 59, 0
4, 56046, Note_on_c, 9, 59, 87
4, 56126, Note_on_c, 9, 59, 0
4, 56165, Note_on_c, 9, 59, 87
4, 56257, Note_on_c, 9, 59, 0
4, 56281, Note_on_c, 9, 59, 87
4, 56341, Note_on_c, 9, 59, 0
4, 56367, Note_on_c, 9, 59, 87
4, 56385, Note_on_c, 9, 59, 0
4, 56403, Note_on_c, 9, 59, 87
4, 56500, Note_on_c, 9, 59, 0
4, 56526, Note_on_c, 9, 59, 87
4, 56587, Note_on_c, 9, 59, 0
4, 56643, Note_on_c, 9, 59, 87
4, 56702, Note_on_c, 9, 59, 0
4, 56761, Note_on_c, 9, 59, 87
4, 56799, Note_on_c, 9, 59, 0
4, 56842, Note_on_c, 9, 59, 87
4, 56861, Note_on_c, 9, 59, 0
4, 56881, Note_on_c, 9, 59, 87
4, 56966, Note_on_c, 9, 59, 0
4, 56999, Note_on_c, 9, 59, 87
4, 57058, Note_on_c, 9, 59, 0
4, 57082, Note_on_c, 9, 59, 87
4, 57105, Note_on_c, 9, 59, 0
4, 57125, Note_on_c, 9, 59, 87
4, 57199, Note_on_c, 9, 59, 0
4, 57237, Note_on_c, 9, 59, 87
4, 57286, Note_on_c, 9, 59, 0
4, 57323, Note_on_c, 9, 59, 87
4, 57341, Note_on_c, 9, 59, 0
4, 57361, Note_on_c, 9, 59, 87
4, 57436, Note_on_c, 9, 59, 0
4, 57481, Note_on_c, 9, 59, 87
4, 57530, Note_on_c, 9, 59, 0
4, 57568, Note_on_c, 9, 59, 87
4, 57582, Note_on_c, 9, 59, 0
4, 57603, Note_on_c, 9, 59, 87
4, 57669, Note_on_c, 9, 59, 0
4, 57723, Note_on_c, 9, 59, 87
4, 57770, Note_on_c, 9, 59, 0
4, 57808, Note_on_c, 9, 59, 87
4, 57821, Note_on_c, 9, 59, 0
4, 57840, Note_on_c, 9, 59, 87
4, 57910, Note_on_c, 9, 59, 0
4, 57961, Note_on_c, 9, 59, 87
4, 58007, Note_on_c, 9, 59, 0
4, 58053, Note_on_c, 9, 59, 87
4, 58064, Note_on_c, 9, 59, 0
4, 58082, Note_on_c, 9, 59, 87
4, 58149, Note_on_c, 9, 59, 0
4, 58196, Note_on_c, 9, 59, 87
4, 58262, Note_on_c, 9, 59, 0
4, 58319, Note_on_c, 9, 59, 87
4, 58393, Note_on_c, 9, 59, 0
4, 58395, Note_on_c, 9, 53, 87
4, 58434, Note_on_c, 9, 53, 0
4, 58438, Note_on_c, 9, 59, 87
4, 58522, Note_on_c, 9, 59, 0
4, 58557, Note_on_c, 9, 59, 87
4, 58625, Note_on_c, 9, 59, 0
4, 58683, Note_on_c, 9, 59, 87
4, 58775, Note_on_c, 9, 59, 0
4, 58799, Note_on_c, 9, 59, 87
4, 58862, Note_on_c, 9, 59, 0
4, 58891, Note_on_c, 9, 59, 87
4, 58899, Note_on_c, 9, 59, 0
4, 58918, Note_on_c, 9, 59, 87
4, 59004, Note_on_c, 9, 59, 0
4, 59034, Note_on_c, 9, 59, 87
4, 59120, Note_on_c, 9, 59, 0
4, 59159, Note_on_c, 9, 59, 87
4, 59226, Note_on_c, 9, 59, 0
4, 59247, Note_on_c, 9, 59, 87
4, 59259, Note_on_c, 9, 59, 0
4, 59281, Note_on_c, 9, 59, 87
4, 59373, Note_on_c, 9, 59, 0
4, 59402, Note_on_c, 9, 59, 87
4, 59455, Note_on_c, 9, 59, 0
4, 59490, Note_on_c, 9, 59, 87
4, 59500, Note_on_c, 9, 59, 0
4, 59520, Note_on_c, 9, 59, 87
4, 59601, Note_on_c, 9, 59, 0
4, 59642, Note_on_c, 9, 59, 87
4, 59709, Note_on_c, 9, 59, 0
4, 59731, Note_on_c, 9, 59, 87
4, 59744, Note_on_c, 9, 59, 0
4, 59761, Note_on_c, 9, 59, 87
4, 59830, Note_on_c, 9, 59, 0
4, 59881, Note_on_c, 9, 59, 87
4, 59942, Note_on_c, 9, 59, 0
4, 60003, Note_on_c, 9, 59, 87
4, 60070, Note_on_c, 9, 59, 0
4, 60118, Note_on_c, 9, 59, 87
4, 60189, Note_on_c, 9, 59, 0
4, 60212, Note_on_c, 9, 59, 87
4, 60223, Note_on_c, 9, 59, 0
4, 60237, Note_on_c, 9, 59, 87
4, 60314, Note_on_c, 9, 59, 0
4, 60343, Note_on_c, 9, 59, 87
4, 60404, Note_on_c, 9, 59, 0
4, 60444, Note_on_c, 9, 59, 87
4, 60455, Note_on_c, 9, 59, 0
4, 60475, Note_on_c, 9, 59, 87
4, 60547, Note_on_c, 9, 59, 0
4, 60598, Note_on_c, 9, 59, 87
4, 60659, Note_on_c, 9, 59, 0
4, 60681, Note_on_c, 9, 59, 87
4, 60696, Note_on_c, 9, 59, 0
4, 60713, Note_on_c, 9, 59, 87
4, 60780, Note_on_c, 9, 59, 0
4, 60839, Note_on_c, 9, 59, 87
4, 60908, Note_on_c, 9, 59, 0
4, 60956, Note_on_c, 9, 59, 87
4, 61020, Note_on_c, 9, 59, 0
4, 61081, Note_on_c, 9, 59, 87
4, 61153, Note_on_c, 9, 59, 0
4, 61203, Note_on_c, 9, 59, 87
4, 61288, Note_on_c, 9, 59, 0
4, 61325, Note_on_c, 9, 59, 87
4, 61347, Note_on_c, 9, 59, 0
4, 61396, Note_on_c, 9, 59, 87
4, 61406, Note_on_c, 9, 59, 0
4, 61446, Note_on_c, 9, 59, 87
4, 61490, Note_on_c, 9, 59, 0
4, 61622, Note_on_c, 9, 59, 87
4, 61643, Note_on_c, 9, 59, 0
4, 61683, Note_on_c, 9, 59, 87
4, 61722, Note_on_c, 9, 59, 0
4, 61803, Note_on_c, 9, 59, 87
4, 61847, Note_on_c, 9, 59, 0
4, 61868, Note_on_c, 9, 59, 87
4, 61904, Note_on_c, 9, 59, 0
4, 61987, Note_on_c, 9, 59, 87
4, 62026, Note_on_c, 9, 59, 0
4, 62107, Note_on_c, 9, 59, 87
4, 62131, Note_on_c, 9, 59, 0
4, 62162, Note_on_c, 9, 59, 87
4, 62213, Note_on_c, 9, 59, 0
4, 62230, Note_on_c, 9, 59, 87
4, 62245, Note_on_c, 9, 59, 0
4, 62281, Note_on_c, 9, 59, 87
4, 62346, Note_on_c, 9, 59, 0
4, 62405, Note_on_c, 9, 59, 87
4, 62454, Note_on_c, 9, 59, 0
4, 62522, Note_on_c, 9, 59, 87
4, 62564, Note_on_c, 9, 59, 0
4, 62584, Note_on_c, 9, 59, 87
4, 62626, Note_on_c, 9, 59, 0
4, 62701, Note_on_c, 9, 59, 87
4, 62748, Note_on_c, 9, 59, 0
4, 62828, Note_on_c, 9, 59, 87
4, 62850, Note_on_c, 9, 59, 0
4, 62887, Note_on_c, 9, 59, 87
4, 62971, Note_on_c, 9, 59, 0
4, 63000, Note_on_c, 9, 59, 87
4, 63020, Note_on_c, 9, 59, 0
4, 63067, Note_on_c, 9, 59, 87
4, 63096, Note_on_c, 9, 59, 0
4, 63117, Note_on_c, 9, 59, 87
4, 63195, Note_on_c, 9, 59, 0
4, 63235, Note_on_c, 9, 59, 87
4, 63258, Note_on_c, 9, 59, 0
4, 63302, Note_on_c, 9, 59, 87
4, 63406, Note_on_c, 9, 59, 0
4, 63429, Note_on_c, 9, 59, 87
4, 63445, Note_on_c, 9, 59, 0
4, 63483, Note_on_c, 9, 59, 87
4, 63562, Note_on_c, 9, 59, 0
4, 63595, Note_on_c, 9, 59, 87
4, 63695, Note_on_c, 9, 59, 0
4, 63717, Note_on_c, 9, 59, 87
4, 63731, Note_on_c, 9, 59, 0
4, 63784, Note_on_c, 9, 59, 87
4, 63882, Note_on_c, 9, 59, 0
4, 63901, Note_on_c, 9, 59, 87
4, 63964, Note_on_c, 9, 59, 0
4, 64022, Note_on_c, 9, 59, 87
4, 64052, Note_on_c, 9, 59, 0
4, 64078, Note_on_c, 9, 59, 87
4, 64156, Note_on_c, 9, 59, 0
4, 64202, Note_on_c, 9, 59, 87
4, 64219, Note_on_c, 9, 59, 0
4, 64270, Note_on_c, 9, 59, 87
4, 64374, Note_on_c, 9, 59, 0
4, 64435, Note_on_c, 9, 59, 87
4, 64451, Note_on_c, 9, 59, 0
4, 64497, Note_on_c, 9, 59, 87
4, 64613, Note_on_c, 9, 59, 0
4, 64632, Note_on_c, 9, 59, 87
4, 64662, Note_on_c, 9, 59, 0
4, 64684, Note_on_c, 9, 59, 87
4, 64776, Note_on_c, 9, 59, 0
4, 64800, Note_on_c, 9, 59, 87
4, 64847, Note_on_c, 9, 59, 0
4, 64866, Note_on_c, 9, 59, 87
4, 64947, Note_on_c, 9, 59, 0
4, 64984, Note_on_c, 9, 59, 87
4, 65016, Note_on_c, 9, 59, 0
4, 65038, Note_on_c, 9, 59, 87
4, 65095, Note_on_c, 9, 59, 0
4, 65103, Note_on_c, 9, 53, 87
4, 65136, Note_on_c, 9, 53, 0
4, 65160, Note_on_c, 9, 59, 87
4, 65195, Note_on_c, 9, 59, 0
4, 65220, Note_on_c, 9, 59, 87
4, 65251, Note_on_c, 9, 59, 0
4, 65279, Note_on_c, 9, 59, 87
4, 65359, Note_on_c, 9, 59, 0
4, 65398, Note_on_c, 9, 59, 87
4, 65416, Note_on_c, 9, 59, 0
4, 65462, Note_on_c, 9, 59, 87
4, 65534, Note_on_c, 9, 59, 0
4, 65580, Note_on_c, 9, 59, 87
4, 65599, Note_on_c, 9, 59, 0
4, 65639, Note_on_c, 9, 59, 87
4, 65713, Note_on_c, 9, 59, 0
4, 65755, Note_on_c, 9, 59, 87
4, 65808, Note_on_c, 9, 59, 0
4, 65878, Note_on_c, 9, 59, 87
4, 65910, Note_on_c, 9, 59, 0
4, 65950, Note_on_c, 9, 59, 87
4, 65976, Note_on_c, 9, 59, 0
4, 66008, Note_on_c, 9, 59, 87
4, 66071, Note_on_c, 9, 59, 0
4, 66120, Note_on_c, 9, 59, 87
4, 66168, Note_on_c, 9, 59, 0
4, 66188, Note_on_c, 9, 59, 87
4, 66281, Note_on_c, 9, 59, 0
4, 66312, Note_on_c, 9, 59, 87
4, 66374, Note_on_c, 9, 59, 0
4, 66424, Note_on_c, 9, 59, 87
4, 66445, Note_on_c, 9, 59, 0
4, 66484, Note_on_c, 9, 59, 87
4, 66550, Note_on_c, 9, 59, 0
4, 66598, Note_on_c, 9, 59, 87
4, 66645, Note_on_c, 9, 59, 0
4, 66671, Note_on_c, 9, 59, 87
4, 66759, Note_on_c, 9, 59, 0
4, 66784, Note_on_c, 9, 59, 87
4, 66805, Note_on_c, 9, 59, 0
4, 66904, Note_on_c, 9, 59, 87
4, 66939, Note_on_c, 9, 59, 0
4, 66960, Note_on_c, 9, 59, 87
4, 67007, Note_on_c, 9, 59, 0
4, 67024, Note_on_c, 9, 59, 87
4, 67044, Note_on_c, 9, 59, 0
4, 67081, Note_on_c, 9, 59, 87
4, 67148, Note_on_c, 9, 59, 0
4, 67199, Note_on_c, 9, 59, 87
4, 67210, Note_on_c, 9, 59, 0
4, 67276, Note_on_c, 9, 59, 87
4, 67314, Note_on_c, 9, 59, 0
4, 67382, Note_on_c, 9, 59, 87
4, 67405, Note_on_c, 9, 59, 0
4, 67438, Note_on_c, 9, 59, 87
4, 67499, Note_on_c, 9, 59, 0
4, 67553, Note_on_c, 9, 59, 87
4, 67596, Note_on_c, 9, 59, 0
4, 67680, Note_on_c, 9, 59, 87
4, 67709, Note_on_c, 9, 59, 0
4, 67804, Note_on_c, 9, 59, 87
4, 67836, Note_on_c, 9, 59, 0
4, 67923, Note_on_c, 9, 59, 87
4, 67944, Note_on_c, 9, 59, 0
4, 67981, Note_on_c, 9, 59, 87
4, 68008, Note_on_c, 9, 59, 0
4, 68037, Note_on_c, 9, 59, 87
4, 68057, Note_on_c, 9, 59, 0
4, 68106, Note_on_c, 9, 59, 87
4, 68109, Note_on_c, 9, 53, 87
4, 68135, Note_on_c, 9, 53, 0
4, 68149, Note_on_c, 9, 59, 0
4, 68222, Note_on_c, 9, 53, 87
4, 68222, Note_on_c, 9, 59, 87
4, 68256, Note_on_c, 9, 59, 0
4, 68263, Note_on_c, 9, 53, 0
4, 68344, Note_on_c, 9, 59, 87
4, 68363, Note_on_c, 9, 59, 0
4, 68401, Note_on_c, 9, 59, 87
4, 68438, Note_on_c, 9, 59, 0
4, 68466, Note_on_c, 9, 53, 87
4, 68476, Note_on_c, 9, 53, 0
4, 68516, Note_on_c, 9, 59, 87
4, 68525, Note_on_c, 9, 59, 0
4, 68589, Note_on_c, 9, 59, 87
4, 68592, Note_on_c, 9, 53, 87
4, 68609, Note_on_c, 9, 59, 0
4, 68614, Note_on_c, 9, 53, 0
4, 68706, Note_on_c, 9, 59, 87
4, 68710, Note_on_c, 9, 53, 87
4, 68731, Note_on_c, 9, 59, 0
4, 68740, Note_on_c, 9, 53, 0
4, 68821, Note_on_c, 9, 53, 87
4, 68852, Note_on_c, 9, 53, 0
4, 68882, Note_on_c, 9, 59, 87
4, 68905, Note_on_c, 9, 59, 0
4, 68934, Note_on_c, 9, 53, 87
4, 68943, Note_on_c, 9, 53, 0
4, 68990, Note_on_c, 9, 53, 87
4, 68990, Note_on_c, 9, 59, 87
4, 68991, Note_on_c, 9, 57, 87
4, 68998, Note_on_c, 9, 53, 0
4, 69009, Note_on_c, 9, 57, 0
4, 69015, Note_on_c, 9, 59, 0
4, 69126, Note_on_c, 9, 59, 87
4, 69134, Note_on_c, 9, 59, 0
4, 69239, Note_on_c, 9, 59, 87
4, 69247, Note_on_c, 9, 59, 0
4, 69354, Note_on_c, 9, 59, 87
4, 69365, Note_on_c, 9, 59, 0
4, 69450, Note_on_c, 9, 59, 87
4, 69458, Note_on_c, 9, 59, 0
4, 69477, Note_on_c, 9, 59, 87
4, 69536, Note_on_c, 9, 59, 0
4, 69594, Note_on_c, 9, 59, 87
4, 69651, Note_on_c, 9, 59, 0
4, 69719, Note_on_c, 9, 53, 87
4, 69720, Note_on_c, 9, 59, 87
4, 69735, Note_on_c, 9, 53, 0
4, 69799, Note_on_c, 9, 59, 0
4, 69839, Note_on_c, 9, 59, 87
4, 69912, Note_on_c, 9, 59, 0
4, 69956, Note_on_c, 9, 59, 87
4, 70024, Note_on_c, 9, 59, 0
4, 70075, Note_on_c, 9, 59, 87
4, 70135, Note_on_c, 9, 59, 0
4, 70192, Note_on_c, 9, 59, 87
4, 70192, Note_on_c, 9, 53, 87
4, 70223, Note_on_c, 9, 53, 0
4, 70259, Note_on_c, 9, 59, 0
4, 70322, Note_on_c, 9, 59, 87
4, 70322, Note_on_c, 9, 53, 87
4, 70356, Note_on_c, 9, 53, 0
4, 70385, Note_on_c, 9, 59, 0
4, 70433, Note_on_c, 9, 59, 87
4, 70501, Note_on_c, 9, 59, 0
4, 70552, Note_on_c, 9, 59, 87
4, 70578, Note_on_c, 9, 59, 0
4, 70643, Note_on_c, 9, 59, 87
4, 70651, Note_on_c, 9, 59, 0
4, 70673, Note_on_c, 9, 59, 87
4, 70753, Note_on_c, 9, 59, 0
4, 70796, Note_on_c, 9, 59, 87
4, 70866, Note_on_c, 9, 59, 0
4, 70914, Note_on_c, 9, 59, 87
4, 70937, Note_on_c, 9, 59, 0
4, 71004, Note_on_c, 9, 59, 87
4, 71022, Note_on_c, 9, 59, 0
4, 71037, Note_on_c, 9, 59, 87
4, 71114, Note_on_c, 9, 59, 0
4, 71157, Note_on_c, 9, 59, 87
4, 71178, Note_on_c, 9, 59, 0
4, 71247, Note_on_c, 9, 59, 87
4, 71256, Note_on_c, 9, 59, 0
4, 71278, Note_on_c, 9, 59, 87
4, 71329, Note_on_c, 9, 59, 0
4, 71394, Note_on_c, 9, 59, 87
4, 71474, Note_on_c, 9, 59, 0
4, 71519, Note_on_c, 9, 59, 87
4, 71588, Note_on_c, 9, 59, 0
4, 71635, Note_on_c, 9, 59, 87
4, 71706, Note_on_c, 9, 59, 0
4, 71758, Note_on_c, 9, 59, 87
4, 71808, Note_on_c, 9, 59, 0
4, 71849, Note_on_c, 9, 59, 87
4, 71859, Note_on_c, 9, 59, 0
4, 71879, Note_on_c, 9, 59, 87
4, 71959, Note_on_c, 9, 59, 0
4, 71990, Note_on_c, 9, 59, 87
4, 72076, Note_on_c, 9, 59, 0
4, 72118, Note_on_c, 9, 59, 87
4, 72186, Note_on_c, 9, 59, 0
4, 72238, Note_on_c, 9, 59, 87
4, 72315, Note_on_c, 9, 59, 0
4, 72359, Note_on_c, 9, 59, 87
4, 72412, Note_on_c, 9, 59, 0
4, 72446, Note_on_c, 9, 59, 87
4, 72460, Note_on_c, 9, 59, 0
4, 72475, Note_on_c, 9, 59, 87
4, 72566, Note_on_c, 9, 59, 0
4, 72593, Note_on_c, 9, 59, 87
4, 72652, Note_on_c, 9, 59, 0
4, 72689, Note_on_c, 9, 59, 87
4, 72699, Note_on_c, 9, 59, 0
4, 72717, Note_on_c, 9, 59, 87
4, 72786, Note_on_c, 9, 59, 0
4, 72833, Note_on_c, 9, 59, 87
4, 72868, Note_on_c, 9, 59, 0
4, 72919, Note_on_c, 9, 59, 87
4, 72929, Note_on_c, 9, 59, 0
4, 72952, Note_on_c, 9, 59, 87
4, 73018, Note_on_c, 9, 59, 0
4, 73079, Note_on_c, 9, 59, 87
4, 73089, Note_on_c, 9, 59, 0
4, 73168, Note_on_c, 9, 59, 87
4, 73184, Note_on_c, 9, 59, 0
4, 73200, Note_on_c, 9, 59, 87
4, 73280, Note_on_c, 9, 59, 0
4, 73335, Note_on_c, 9, 59, 87
4, 73345, Note_on_c, 9, 59, 0
4, 73396, Note_on_c, 9, 59, 87
4, 73418, Note_on_c, 9, 59, 0
4, 73442, Note_on_c, 9, 59, 87
4, 73502, Note_on_c, 9, 59, 0
4, 73554, Note_on_c, 9, 59, 87
4, 73605, Note_on_c, 9, 59, 0
4, 73675, Note_on_c, 9, 59, 87
4, 73738, Note_on_c, 9, 59, 0
4, 73754, Note_on_c, 9, 53, 87
4, 73775, Note_on_c, 9, 53, 0
4, 73800, Note_on_c, 9, 59, 87
4, 73875, Note_on_c, 9, 59, 0
4, 73914, Note_on_c, 9, 59, 87
4, 73981, Note_on_c, 9, 59, 0
4, 74040, Note_on_c, 9, 59, 87
4, 74105, Note_on_c, 9, 59, 0
4, 74128, Note_on_c, 9, 59, 87
4, 74148, Note_on_c, 9, 59, 0
4, 74169, Note_on_c, 9, 59, 87
4, 74244, Note_on_c, 9, 59, 0
4, 74277, Note_on_c, 9, 59, 87
4, 74345, Note_on_c, 9, 59, 0
4, 74396, Note_on_c, 9, 59, 87
4, 74451, Note_on_c, 9, 59, 0
4, 74486, Note_on_c, 9, 59, 87
4, 74495, Note_on_c, 9, 59, 0
4, 74521, Note_on_c, 9, 59, 87
4, 74581, Note_on_c, 9, 59, 0
4, 74607, Note_on_c, 9, 59, 87
4, 74696, Note_on_c, 9, 59, 0
4, 74722, Note_on_c, 9, 53, 87
4, 74741, Note_on_c, 9, 53, 0
4, 74839, Note_on_c, 9, 53, 87
4, 74848, Note_on_c, 9, 53, 0
4, 74879, Note_on_c, 9, 59, 87
4, 74880, Note_on_c, 9, 53, 87
4, 74927, Note_on_c, 9, 53, 0
4, 74938, Note_on_c, 9, 59, 0
4, 75002, Note_on_c, 9, 59, 87
4, 75041, Note_on_c, 9, 59, 0
4, 75083, Note_on_c, 9, 59, 87
4, 75094, Note_on_c, 9, 59, 0
4, 75118, Note_on_c, 9, 59, 87
4, 75172, Note_on_c, 9, 59, 0
4, 75237, Note_on_c, 9, 59, 87
4, 75310, Note_on_c, 9, 59, 0
4, 75447, Note_on_c, 9, 59, 87
4, 75458, Note_on_c, 9, 59, 0
4, 75480, Note_on_c, 9, 59, 87
4, 75550, Note_on_c, 9, 59, 0
4, 75601, Note_on_c, 9, 59, 87
4, 75661, Note_on_c, 9, 59, 0
4, 75714, Note_on_c, 9, 59, 87
4, 75746, Note_on_c, 9, 59, 0
4, 75802, Note_on_c, 9, 59, 87
4, 75875, Note_on_c, 9, 59, 0
4, 75925, Note_on_c, 9, 59, 87
4, 75937, Note_on_c, 9, 59, 0
4, 75966, Note_on_c, 9, 59, 87
4, 76049, Note_on_c, 9, 59, 0
4, 76086, Note_on_c, 9, 59, 87
4, 76096, Note_on_c, 9, 59, 0
4, 76161, Note_on_c, 9, 59, 87
4, 76214, Note_on_c, 9, 59, 0
4, 76321, Note_on_c, 9, 59, 87
4, 76389, Note_on_c, 9, 59, 0
4, 76437, Note_on_c, 9, 59, 87
4, 76449, Note_on_c, 9, 59, 0
4, 76520, Note_on_c, 9, 59, 87
4, 76623, Note_on_c, 9, 59, 0
4, 76637, Note_on_c, 9, 51, 87
4, 76637, Note_on_c, 9, 53, 87
4, 76653, Note_on_c, 9, 53, 0
4, 76664, Note_on_c, 9, 51, 0
4, 76796, Note_on_c, 9, 51, 87
4, 76871, Note_on_c, 9, 51, 0
4, 76914, Note_on_c, 9, 51, 87
4, 76981, Note_on_c, 9, 51, 0
4, 77038, Note_on_c, 9, 51, 87
4, 77103, Note_on_c, 9, 51, 0
4, 77158, Note_on_c, 9, 51, 87
4, 77218, Note_on_c, 9, 51, 0
4, 77280, Note_on_c, 9, 51, 87
4, 77340, Note_on_c, 9, 51, 0
4, 77398, Note_on_c, 9, 51, 87
4, 77458, Note_on_c, 9, 51, 0
4, 77483, Note_on_c, 9, 51, 87
4, 77485, Note_on_c, 9, 53, 87
4, 77567, Note_on_c, 9, 51, 0
4, 77584, Note_on_c, 9, 53, 0
4, 77601, Note_on_c, 9, 51, 87
4, 77615, Note_on_c, 9, 51, 0
4, 77652, Note_on_c, 9, 51, 87
4, 77653, Note_on_c, 9, 53, 87
4, 77717, Note_on_c, 9, 51, 0
4, 77731, Note_on_c, 9, 53, 0
4, 77760, Note_on_c, 9, 51, 87
4, 77802, Note_on_c, 9, 51, 0
4, 77842, Note_on_c, 9, 51, 87
4, 77916, Note_on_c, 9, 51, 0
4, 77967, Note_on_c, 9, 51, 87
4, 77981, Note_on_c, 9, 51, 0
4, 78003, Note_on_c, 9, 51, 87
4, 78075, Note_on_c, 9, 51, 0
4, 78118, Note_on_c, 9, 51, 87
4, 78183, Note_on_c, 9, 51, 0
4, 78217, Note_on_c, 9, 51, 87
4, 78225, Note_on_c, 9, 51, 0
4, 78242, Note_on_c, 9, 51, 87
4, 78313, Note_on_c, 9, 51, 0
4, 78354, Note_on_c, 9, 51, 87
4, 78426, Note_on_c, 9, 51, 0
4, 78478, Note_on_c, 9, 51, 87
4, 78527, Note_on_c, 9, 51, 0
4, 78576, Note_on_c, 9, 51, 87
4, 78584, Note_on_c, 9, 51, 0
4, 78601, Note_on_c, 9, 51, 87
4, 78667, Note_on_c, 9, 51, 0
4, 78712, Note_on_c, 9, 51, 87
4, 78776, Note_on_c, 9, 51, 0
4, 78836, Note_on_c, 9, 51, 87
4, 78856, Note_on_c, 9, 51, 0
4, 78930, Note_on_c, 9, 51, 87
4, 78936, Note_on_c, 9, 51, 0
4, 78956, Note_on_c, 9, 51, 87
4, 78981, Note_on_c, 9, 51, 0
4, 79069, Note_on_c, 9, 51, 87
4, 79084, Note_on_c, 9, 51, 0
4, 79188, Note_on_c, 9, 51, 87
4, 79207, Note_on_c, 9, 51, 0
4, 79316, Note_on_c, 9, 51, 87
4, 79333, Note_on_c, 9, 51, 0
4, 79410, Note_on_c, 9, 51, 87
4, 79420, Note_on_c, 9, 51, 0
4, 79440, Note_on_c, 9, 51, 87
4, 79473, Note_on_c, 9, 51, 0
4, 79559, Note_on_c, 9, 51, 87
4, 79577, Note_on_c, 9, 51, 0
4, 79648, Note_on_c, 9, 51, 87
4, 79653, Note_on_c, 9, 51, 0
4, 79677, Note_on_c, 9, 51, 87
4, 79705, Note_on_c, 9, 51, 0
4, 79796, Note_on_c, 9, 51, 87
4, 79817, Note_on_c, 9, 51, 0
4, 79884, Note_on_c, 9, 51, 87
4, 79893, Note_on_c, 9, 51, 0
4, 79914, Note_on_c, 9, 51, 87
4, 79949, Note_on_c, 9, 51, 0
4, 80039, Note_on_c, 9, 51, 87
4, 80094, Note_on_c, 9, 51, 0
4, 80159, Note_on_c, 9, 51, 87
4, 80205, Note_on_c, 9, 51, 0
4, 80242, Note_on_c, 9, 51, 87
4, 80252, Note_on_c, 9, 51, 0
4, 80276, Note_on_c, 9, 51, 87
4, 80342, Note_on_c, 9, 51, 0
4, 80400, Note_on_c, 9, 51, 87
4, 80445, Note_on_c, 9, 51, 0
4, 80486, Note_on_c, 9, 51, 87
4, 80494, Note_on_c, 9, 51, 0
4, 80518, Note_on_c, 9, 51, 87
4, 80580, Note_on_c, 9, 51, 0
4, 80640, Note_on_c, 9, 51, 87
4, 80696, Note_on_c, 9, 51, 0
4, 80752, Note_on_c, 9, 51, 87
4, 80796, Note_on_c, 9, 51, 0
4, 80855, Note_on_c, 9, 51, 87
4, 80867, Note_on_c, 9, 51, 0
4, 80885, Note_on_c, 9, 51, 87
4, 80922, Note_on_c, 9, 51, 0
4, 80999, Note_on_c, 9, 51, 87
4, 81025, Note_on_c, 9, 51, 0
4, 81086, Note_on_c, 9, 51, 87
4, 81095, Note_on_c, 9, 51, 0
4, 81117, Note_on_c, 9, 51, 87
4, 81146, Note_on_c, 9, 51, 0
4, 81238, Note_on_c, 9, 51, 87
4, 81259, Note_on_c, 9, 51, 0
4, 81360, Note_on_c, 9, 51, 87
4, 81380, Note_on_c, 9, 51, 0
4, 81483, Note_on_c, 9, 51, 87
4, 81510, Note_on_c, 9, 51, 0
4, 81599, Note_on_c, 9, 51, 87
4, 81601, Note_on_c, 9, 53, 87
4, 81650, Note_on_c, 9, 53, 0
4, 81652, Note_on_c, 9, 51, 0
4, 81719, Note_on_c, 9, 51, 87
4, 81720, Note_on_c, 9, 53, 87
4, 81777, Note_on_c, 9, 53, 0
4, 81781, Note_on_c, 9, 51, 0
4, 81839, Note_on_c, 9, 51, 87
4, 81902, Note_on_c, 9, 51, 0
4, 81959, Note_on_c, 9, 51, 87
4, 81960, Note_on_c, 9, 53, 87
4, 82016, Note_on_c, 9, 53, 0
4, 82021, Note_on_c, 9, 51, 0
4, 82073, Note_on_c, 9, 51, 87
4, 82132, Note_on_c, 9, 51, 0
4, 82200, Note_on_c, 9, 51, 87
4, 82249, Note_on_c, 9, 51, 0
4, 82322, Note_on_c, 9, 51, 87
4, 82388, Note_on_c, 9, 51, 0
4, 82442, Note_on_c, 9, 51, 87
4, 82476, Note_on_c, 9, 51, 0
4, 82519, Note_on_c, 9, 57, 87
4, 82526, Note_on_c, 9, 51, 87
4, 82537, Note_on_c, 9, 57, 0
4, 82554, Note_on_c, 9, 51, 0
4, 82679, Note_on_c, 9, 51, 87
4, 82698, Note_on_c, 9, 51, 0
4, 82764, Note_on_c, 9, 51, 87
4, 82782, Note_on_c, 9, 51, 0
4, 82799, Note_on_c, 9, 51, 87
4, 82825, Note_on_c, 9, 51, 0
4, 82917, Note_on_c, 9, 51, 87
4, 82951, Note_on_c, 9, 51, 0
4, 82997, Note_on_c, 9, 51, 87
4, 83010, Note_on_c, 9, 51, 0
4, 83032, Note_on_c, 9, 51, 87
4, 83054, Note_on_c, 9, 51, 0
4, 83117, Note_on_c, 9, 51, 87
4, 83119, Note_on_c, 9, 53, 87
4, 83199, Note_on_c, 9, 51, 0
4, 83214, Note_on_c, 9, 53, 0
4, 83234, Note_on_c, 9, 51, 87
4, 83248, Note_on_c, 9, 51, 0
4, 83364, Note_on_c, 9, 51, 87
4, 83411, Note_on_c, 9, 51, 0
4, 83487, Note_on_c, 9, 51, 87
4, 83488, Note_on_c, 9, 53, 87
4, 83575, Note_on_c, 9, 51, 0
4, 83589, Note_on_c, 9, 53, 0
4, 83612, Note_on_c, 9, 51, 87
4, 83628, Note_on_c, 9, 51, 0
4, 83648, Note_on_c, 9, 51, 87
4, 83723, Note_on_c, 9, 51, 0
4, 83762, Note_on_c, 9, 51, 87
4, 83844, Note_on_c, 9, 51, 0
4, 83884, Note_on_c, 9, 51, 87
4, 83894, Note_on_c, 9, 51, 0
4, 83964, Note_on_c, 9, 51, 87
4, 84035, Note_on_c, 9, 51, 0
4, 84087, Note_on_c, 9, 51, 87
4, 84096, Note_on_c, 9, 51, 0
4, 84124, Note_on_c, 9, 51, 87
4, 84209, Note_on_c, 9, 51, 0
4, 84241, Note_on_c, 9, 51, 87
4, 84273, Note_on_c, 9, 51, 0
4, 84320, Note_on_c, 9, 51, 87
4, 84343, Note_on_c, 9, 51, 0
4, 84362, Note_on_c, 9, 53, 87
4, 84399, Note_on_c, 9, 53, 0
4, 84446, Note_on_c, 9, 51, 87
4, 84455, Note_on_c, 9, 51, 0
4, 84481, Note_on_c, 9, 59, 87
4, 84558, Note_on_c, 9, 59, 0
4, 84597, Note_on_c, 9, 59, 87
4, 84667, Note_on_c, 9, 59, 0
4, 84719, Note_on_c, 9, 59, 87
4, 84790, Note_on_c, 9, 59, 0
4, 84838, Note_on_c, 9, 59, 87
4, 84894, Note_on_c, 9, 59, 0
4, 84926, Note_on_c, 9, 59, 87
4, 84934, Note_on_c, 9, 59, 0
4, 84956, Note_on_c, 9, 59, 87
4, 85026, Note_on_c, 9, 59, 0
4, 85073, Note_on_c, 9, 59, 87
4, 85141, Note_on_c, 9, 59, 0
4, 85196, Note_on_c, 9, 59, 87
4, 85248, Note_on_c, 9, 59, 0
4, 85285, Note_on_c, 9, 59, 87
4, 85295, Note_on_c, 9, 59, 0
4, 85316, Note_on_c, 9, 59, 87
4, 85398, Note_on_c, 9, 59, 0
4, 85433, Note_on_c, 9, 59, 87
4, 85494, Note_on_c, 9, 59, 0
4, 85564, Note_on_c, 9, 59, 87
4, 85614, Note_on_c, 9, 59, 0
4, 85649, Note_on_c, 9, 59, 87
4, 85659, Note_on_c, 9, 59, 0
4, 85679, Note_on_c, 9, 59, 87
4, 85750, Note_on_c, 9, 59, 0
4, 85800, Note_on_c, 9, 59, 87
4, 85854, Note_on_c, 9, 59, 0
4, 85886, Note_on_c, 9, 59, 87
4, 85972, Note_on_c, 9, 59, 0
4, 85999, Note_on_c, 9, 59, 87
4, 86012, Note_on_c, 9, 59, 0
4, 86045, Note_on_c, 9, 59, 87
4, 86116, Note_on_c, 9, 59, 0
4, 86158, Note_on_c, 9, 59, 87
4, 86218, Note_on_c, 9, 59, 0
4, 86242, Note_on_c, 9, 59, 87
4, 86261, Note_on_c, 9, 59, 0
4, 86279, Note_on_c, 9, 59, 87
4, 86356, Note_on_c, 9, 59, 0
4, 86394, Note_on_c, 9, 59, 87
4, 86458, Note_on_c, 9, 59, 0
4, 86515, Note_on_c, 9, 59, 87
4, 86549, Note_on_c, 9, 59, 0
4, 86606, Note_on_c, 9, 59, 87
4, 86616, Note_on_c, 9, 59, 0
4, 86637, Note_on_c, 9, 59, 87
4, 86706, Note_on_c, 9, 59, 0
4, 86755, Note_on_c, 9, 59, 87
4, 86804, Note_on_c, 9, 59, 0
4, 86846, Note_on_c, 9, 59, 87
4, 86855, Note_on_c, 9, 59, 0
4, 86879, Note_on_c, 9, 59, 87
4, 86949, Note_on_c, 9, 59, 0
4, 86998, Note_on_c, 9, 59, 87
4, 87056, Note_on_c, 9, 59, 0
4, 87118, Note_on_c, 9, 59, 87
4, 87168, Note_on_c, 9, 59, 0
4, 87205, Note_on_c, 9, 59, 87
4, 87215, Note_on_c, 9, 59, 0
4, 87232, Note_on_c, 9, 59, 87
4, 87303, Note_on_c, 9, 59, 0
4, 87354, Note_on_c, 9, 59, 87
4, 87413, Note_on_c, 9, 59, 0
4, 87474, Note_on_c, 9, 59, 87
4, 87533, Note_on_c, 9, 59, 0
4, 87564, Note_on_c, 9, 59, 87
4, 87575, Note_on_c, 9, 59, 0
4, 87597, Note_on_c, 9, 59, 87
4, 87660, Note_on_c, 9, 59, 0
4, 87714, Note_on_c, 9, 59, 87
4, 87777, Note_on_c, 9, 59, 0
4, 87798, Note_on_c, 9, 59, 87
4, 87808, Note_on_c, 9, 59, 0
4, 87836, Note_on_c, 9, 59, 87
4, 87896, Note_on_c, 9, 59, 0
4, 87958, Note_on_c, 9, 59, 87
4, 88022, Note_on_c, 9, 59, 0
4, 88078, Note_on_c, 9, 59, 87
4, 88117, Note_on_c, 9, 59, 0
4, 88169, Note_on_c, 9, 59, 87
4, 88179, Note_on_c, 9, 59, 0
4, 88197, Note_on_c, 9, 59, 87
4, 88263, Note_on_c, 9, 59, 0
4, 88314, Note_on_c, 9, 59, 87
4, 88374, Note_on_c, 9, 59, 0
4, 88439, Note_on_c, 9, 59, 87
4, 88482, Note_on_c, 9, 59, 0
4, 88529, Note_on_c, 9, 59, 87
4, 88536, Note_on_c, 9, 59, 0
4, 88558, Note_on_c, 9, 59, 87
4, 88627, Note_on_c, 9, 59, 0
4, 88672, Note_on_c, 9, 59, 87
4, 88721, Note_on_c, 9, 59, 0
4, 88799, Note_on_c, 9, 59, 87
4, 88860, Note_on_c, 9, 59, 0
4, 88917, Note_on_c, 9, 59, 87
4, 88976, Note_on_c, 9, 59, 0
4, 89009, Note_on_c, 9, 59, 87
4, 89019, Note_on_c, 9, 59, 0
4, 89043, Note_on_c, 9, 59, 87
4, 89107, Note_on_c, 9, 59, 0
4, 89157, Note_on_c, 9, 59, 87
4, 89210, Note_on_c, 9, 59, 0
4, 89279, Note_on_c, 9, 59, 87
4, 89331, Note_on_c, 9, 59, 0
4, 89395, Note_on_c, 9, 59, 87
4, 89420, Note_on_c, 9, 59, 0
4, 89484, Note_on_c, 9, 59, 87
4, 89498, Note_on_c, 9, 59, 0
4, 89517, Note_on_c, 9, 59, 87
4, 89545, Note_on_c, 9, 59, 0
4, 89636, Note_on_c, 9, 59, 87
4, 89644, Note_on_c, 9, 59, 0
4, 89718, Note_on_c, 9, 59, 87
4, 89746, Note_on_c, 9, 59, 0
4, 89835, Note_on_c, 9, 59, 87
4, 89853, Note_on_c, 9, 59, 0
4, 89878, Note_on_c, 9, 59, 87
4, 89943, Note_on_c, 9, 59, 0
4, 89994, Note_on_c, 9, 59, 87
4, 90019, Note_on_c, 9, 59, 0
4, 90084, Note_on_c, 9, 59, 87
4, 90103, Note_on_c, 9, 59, 0
4, 90115, Note_on_c, 9, 59, 87
4, 90189, Note_on_c, 9, 59, 0
4, 90233, Note_on_c, 9, 59, 87
4, 90256, Note_on_c, 9, 59, 0
4, 90322, Note_on_c, 9, 59, 87
4, 90348, Note_on_c, 9, 59, 0
4, 90368, Note_on_c, 9, 59, 87
4, 90427, Note_on_c, 9, 59, 0
4, 90483, Note_on_c, 9, 59, 87
4, 90545, Note_on_c, 9, 59, 0
4, 90600, Note_on_c, 9, 59, 87
4, 90656, Note_on_c, 9, 59, 0
4, 90689, Note_on_c, 9, 59, 87
4, 90772, Note_on_c, 9, 59, 0
4, 90805, Note_on_c, 9, 59, 87
4, 90811, Note_on_c, 9, 59, 0
4, 90845, Note_on_c, 9, 59, 87
4, 90913, Note_on_c, 9, 59, 0
4, 90962, Note_on_c, 9, 59, 87
4, 91021, Note_on_c, 9, 59, 0
4, 91080, Note_on_c, 9, 59, 87
4, 91138, Note_on_c, 9, 59, 0
4, 91163, Note_on_c, 9, 59, 87
4, 91178, Note_on_c, 9, 59, 0
4, 91196, Note_on_c, 9, 59, 87
4, 91260, Note_on_c, 9, 59, 0
4, 91321, Note_on_c, 9, 59, 87
4, 91368, Note_on_c, 9, 59, 0
4, 91407, Note_on_c, 9, 59, 87
4, 91418, Note_on_c, 9, 59, 0
4, 91436, Note_on_c, 9, 59, 87
4, 91510, Note_on_c, 9, 59, 0
4, 91555, Note_on_c, 9, 59, 87
4, 91615, Note_on_c, 9, 59, 0
4, 91639, Note_on_c, 9, 59, 87
4, 91657, Note_on_c, 9, 59, 0
4, 91676, Note_on_c, 9, 59, 87
4, 91745, Note_on_c, 9, 59, 0
4, 91797, Note_on_c, 9, 59, 87
4, 91846, Note_on_c, 9, 59, 0
4, 91883, Note_on_c, 9, 59, 87
4, 91893, Note_on_c, 9, 59, 0
4, 91911, Note_on_c, 9, 59, 87
4, 91979, Note_on_c, 9, 59, 0
4, 92034, Note_on_c, 9, 59, 87
4, 92081, Note_on_c, 9, 59, 0
4, 92126, Note_on_c, 9, 59, 87
4, 92212, Note_on_c, 9, 59, 0
4, 92244, Note_on_c, 9, 59, 87
4, 92256, Note_on_c, 9, 59, 0
4, 92280, Note_on_c, 9, 59, 87
4, 92349, Note_on_c, 9, 59, 0
4, 92397, Note_on_c, 9, 59, 87
4, 92444, Note_on_c, 9, 59, 0
4, 92518, Note_on_c, 9, 59, 87
4, 92533, Note_on_c, 9, 59, 0
4, 92602, Note_on_c, 9, 59, 87
4, 92626, Note_on_c, 9, 59, 0
4, 92645, Note_on_c, 9, 59, 87
4, 92711, Note_on_c, 9, 59, 0
4, 92759, Note_on_c, 9, 59, 87
4, 92765, Note_on_c, 9, 59, 0
4, 92843, Note_on_c, 9, 59, 87
4, 92865, Note_on_c, 9, 59, 0
4, 92883, Note_on_c, 9, 59, 87
4, 92962, Note_on_c, 9, 59, 0
4, 92995, Note_on_c, 9, 59, 87
4, 93008, Note_on_c, 9, 59, 0
4, 93078, Note_on_c, 9, 53, 87
4, 93078, Note_on_c, 9, 59, 87
4, 93104, Note_on_c, 9, 59, 0
4, 93112, Note_on_c, 9, 53, 0
4, 93132, Note_on_c, 9, 59, 87
4, 93159, Note_on_c, 9, 59, 0
4, 93199, Note_on_c, 9, 59, 87
4, 93216, Note_on_c, 9, 59, 0
4, 93247, Note_on_c, 9, 59, 87
4, 93248, Note_on_c, 9, 53, 87
4, 93295, Note_on_c, 9, 59, 0
4, 93301, Note_on_c, 9, 53, 0
4, 93359, Note_on_c, 9, 59, 87
4, 93388, Note_on_c, 9, 59, 0
4, 93437, Note_on_c, 9, 59, 87
4, 93465, Note_on_c, 9, 59, 0
4, 93489, Note_on_c, 9, 59, 87
4, 93544, Note_on_c, 9, 59, 0
4, 93593, Note_on_c, 9, 59, 87
4, 93658, Note_on_c, 9, 59, 0
4, 93717, Note_on_c, 9, 59, 87
4, 93752, Note_on_c, 9, 59, 0
4, 93796, Note_on_c, 9, 53, 87
4, 93798, Note_on_c, 9, 59, 87
4, 93818, Note_on_c, 9, 59, 0
4, 93821, Note_on_c, 9, 53, 0
4, 93842, Note_on_c, 9, 59, 87
4, 93879, Note_on_c, 9, 59, 0
4, 93918, Note_on_c, 9, 59, 87
4, 93940, Note_on_c, 9, 59, 0
4, 93960, Note_on_c, 9, 59, 87
4, 93963, Note_on_c, 9, 53, 87
4, 93996, Note_on_c, 9, 53, 0
4, 94010, Note_on_c, 9, 59, 0
4, 94041, Note_on_c, 9, 59, 87
4, 94061, Note_on_c, 9, 59, 0
4, 94084, Note_on_c, 9, 59, 87
4, 94103, Note_on_c, 9, 59, 0
4, 94157, Note_on_c, 9, 53, 87
4, 94157, Note_on_c, 9, 59, 87
4, 94194, Note_on_c, 9, 53, 0
4, 94198, Note_on_c, 9, 59, 0
4, 94320, Note_on_c, 9, 59, 87
4, 94380, Note_on_c, 9, 59, 0
4, 94435, Note_on_c, 9, 59, 87
4, 94482, Note_on_c, 9, 59, 0
4, 94526, Note_on_c, 9, 59, 87
4, 94535, Note_on_c, 9, 59, 0
4, 94560, Note_on_c, 9, 59, 87
4, 94623, Note_on_c, 9, 59, 0
4, 94688, Note_on_c, 9, 59, 87
4, 94698, Note_on_c, 9, 59, 0
4, 94763, Note_on_c, 9, 59, 87
4, 94783, Note_on_c, 9, 59, 0
4, 94804, Note_on_c, 9, 59, 87
4, 94852, Note_on_c, 9, 59, 0
4, 94914, Note_on_c, 9, 59, 87
4, 94927, Note_on_c, 9, 59, 0
4, 95003, Note_on_c, 9, 59, 87
4, 95019, Note_on_c, 9, 59, 0
4, 95036, Note_on_c, 9, 59, 87
4, 95105, Note_on_c, 9, 59, 0
4, 95237, Note_on_c, 9, 59, 87
4, 95248, Note_on_c, 9, 59, 0
4, 95275, Note_on_c, 9, 59, 87
4, 95339, Note_on_c, 9, 59, 0
4, 95396, Note_on_c, 9, 59, 87
4, 95439, Note_on_c, 9, 59, 0
4, 95483, Note_on_c, 9, 59, 87
4, 95495, Note_on_c, 9, 59, 0
4, 95514, Note_on_c, 9, 59, 87
4, 95570, Note_on_c, 9, 59, 0
4, 95638, Note_on_c, 9, 59, 87
4, 95681, Note_on_c, 9, 59, 0
4, 95719, Note_on_c, 9, 59, 87
4, 95731, Note_on_c, 9, 59, 0
4, 95756, Note_on_c, 9, 59, 87
4, 95810, Note_on_c, 9, 59, 0
4, 95877, Note_on_c, 9, 59, 87
4, 95917, Note_on_c, 9, 59, 0
4, 95963, Note_on_c, 9, 59, 87
4, 95971, Note_on_c, 9, 59, 0
4, 95994, Note_on_c, 9, 59, 87
4, 96048, Note_on_c, 9, 59, 0
4, 96113, Note_on_c, 9, 59, 87
4, 96137, Note_on_c, 9, 59, 0
4, 96202, Note_on_c, 9, 59, 87
4, 96213, Note_on_c, 9, 59, 0
4, 96236, Note_on_c, 9, 59, 87
4, 96285, Note_on_c, 9, 59, 0
4, 96354, Note_on_c, 9, 59, 87
4, 96388, Note_on_c, 9, 59, 0
4, 96448, Note_on_c, 9, 59, 87
4, 96459, Note_on_c, 9, 59, 0
4, 96477, Note_on_c, 9, 59, 87
4, 96531, Note_on_c, 9, 59, 0
4, 96598, Note_on_c, 9, 59, 87
4, 96630, Note_on_c, 9, 59, 0
4, 96679, Note_on_c, 9, 59, 87
4, 96689, Note_on_c, 9, 59, 0
4, 96712, Note_on_c, 9, 59, 87
4, 96752, Note_on_c, 9, 59, 0
4, 96834, Note_on_c, 9, 59, 87
4, 96878, Note_on_c, 9, 59, 0
4, 96918, Note_on_c, 9, 59, 87
4, 96928, Note_on_c, 9, 59, 0
4, 96951, Note_on_c, 9, 59, 87
4, 97007, Note_on_c, 9, 59, 0
4, 97076, Note_on_c, 9, 59, 87
4, 97103, Note_on_c, 9, 59, 0
4, 97161, Note_on_c, 9, 53, 87
4, 97161, Note_on_c, 9, 59, 87
4, 97185, Note_on_c, 9, 59, 0
4, 97185, Note_on_c, 9, 53, 0
4, 97217, Note_on_c, 9, 59, 87
4, 97269, Note_on_c, 9, 59, 0
4, 97323, Note_on_c, 9, 59, 87
4, 97324, Note_on_c, 9, 53, 87
4, 97336, Note_on_c, 9, 53, 0
4, 97368, Note_on_c, 9, 59, 0
4, 97404, Note_on_c, 9, 59, 87
4, 97461, Note_on_c, 9, 59, 0
4, 97527, Note_on_c, 9, 59, 87
4, 97549, Note_on_c, 9, 59, 0
4, 97570, Note_on_c, 9, 59, 87
4, 97627, Note_on_c, 9, 59, 0
4, 97680, Note_on_c, 9, 59, 87
4, 97709, Note_on_c, 9, 59, 0
4, 97762, Note_on_c, 9, 59, 87
4, 97772, Note_on_c, 9, 59, 0
4, 97795, Note_on_c, 9, 59, 87
4, 97822, Note_on_c, 9, 59, 0
4, 97879, Note_on_c, 9, 57, 87
4, 97880, Note_on_c, 9, 59, 87
4, 97982, Note_on_c, 9, 57, 0
4, 98011, Note_on_c, 9, 59, 0
4, 98042, Note_on_c, 9, 59, 87
4, 98096, Note_on_c, 9, 59, 0
4, 98118, Note_on_c, 9, 59, 87
4, 98132, Note_on_c, 9, 59, 0
4, 98156, Note_on_c, 9, 59, 87
4, 98234, Note_on_c, 9, 59, 0
4, 98278, Note_on_c, 9, 59, 87
4, 98337, Note_on_c, 9, 59, 0
4, 98364, Note_on_c, 9, 59, 87
4, 98381, Note_on_c, 9, 59, 0
4, 98399, Note_on_c, 9, 59, 87
4, 98471, Note_on_c, 9, 59, 0
4, 98520, Note_on_c, 9, 59, 87
4, 98584, Note_on_c, 9, 59, 0
4, 98608, Note_on_c, 9, 59, 87
4, 98621, Note_on_c, 9, 59, 0
4, 98639, Note_on_c, 9, 59, 87
4, 98705, Note_on_c, 9, 59, 0
4, 98764, Note_on_c, 9, 59, 87
4, 98789, Note_on_c, 9, 59, 0
4, 98856, Note_on_c, 9, 59, 87
4, 98863, Note_on_c, 9, 59, 0
4, 98885, Note_on_c, 9, 59, 87
4, 98955, Note_on_c, 9, 59, 0
4, 99084, Note_on_c, 9, 59, 87
4, 99105, Note_on_c, 9, 59, 0
4, 99120, Note_on_c, 9, 59, 87
4, 99201, Note_on_c, 9, 59, 0
4, 99321, Note_on_c, 9, 59, 87
4, 99334, Note_on_c, 9, 59, 0
4, 99358, Note_on_c, 9, 59, 87
4, 99455, Note_on_c, 9, 59, 0
4, 99553, Note_on_c, 9, 59, 87
4, 99577, Note_on_c, 9, 59, 0
4, 99669, Note_on_c, 9, 59, 87
4, 99691, Note_on_c, 9, 59, 0
4, 99721, Note_on_c, 9, 59, 87
4, 99743, Note_on_c, 9, 59, 0
4, 99843, Note_on_c, 9, 59, 87
4, 99890, Note_on_c, 9, 59, 0
4, 99967, Note_on_c, 9, 59, 87
4, 100003, Note_on_c, 9, 59, 0
4, 100034, Note_on_c, 9, 59, 87
4, 100066, Note_on_c, 9, 59, 0
4, 100106, Note_on_c, 9, 59, 87
4, 100187, Note_on_c, 9, 59, 0
4, 100223, Note_on_c, 9, 59, 87
4, 100251, Note_on_c, 9, 59, 0
4, 100295, Note_on_c, 9, 59, 87
4, 100320, Note_on_c, 9, 59, 0
4, 100346, Note_on_c, 9, 59, 87
4, 100434, Note_on_c, 9, 59, 0
4, 100462, Note_on_c, 9, 59, 87
4, 100478, Note_on_c, 9, 59, 0
4, 100519, Note_on_c, 9, 59, 87
4, 100552, Note_on_c, 9, 59, 0
4, 100572, Note_on_c, 9, 59, 87
4, 100648, Note_on_c, 9, 59, 0
4, 100680, Note_on_c, 9, 59, 87
4, 100706, Note_on_c, 9, 59, 0
4, 100740, Note_on_c, 9, 59, 87
4, 100777, Note_on_c, 9, 59, 0
4, 100802, Note_on_c, 9, 59, 87
4, 100877, Note_on_c, 9, 59, 0
4, 100912, Note_on_c, 9, 59, 87
4, 100935, Note_on_c, 9, 59, 0
4, 100979, Note_on_c, 9, 59, 87
4, 101010, Note_on_c, 9, 59, 0
4, 101036, Note_on_c, 9, 59, 87
4, 101108, Note_on_c, 9, 59, 0
4, 101142, Note_on_c, 9, 59, 87
4, 101168, Note_on_c, 9, 59, 0
4, 101212, Note_on_c, 9, 59, 87
4, 101236, Note_on_c, 9, 59, 0
4, 101278, Note_on_c, 9, 59, 87
4, 101348, Note_on_c, 9, 59, 0
4, 101391, Note_on_c, 9, 59, 87
4, 101408, Note_on_c, 9, 59, 0
4, 101465, Note_on_c, 9, 59, 87
4, 101494, Note_on_c, 9, 59, 0
4, 101527, Note_on_c, 9, 59, 87
4, 101601, Note_on_c, 9, 59, 0
4, 101643, Note_on_c, 9, 59, 87
4, 101657, Note_on_c, 9, 59, 0
4, 101709, Note_on_c, 9, 59, 87
4, 101726, Note_on_c, 9, 59, 0
4, 101768, Note_on_c, 9, 59, 87
4, 101830, Note_on_c, 9, 59, 0
4, 101882, Note_on_c, 9, 59, 87
4, 101897, Note_on_c, 9, 59, 0
4, 101946, Note_on_c, 9, 59, 87
4, 101973, Note_on_c, 9, 59, 0
4, 102005, Note_on_c, 9, 59, 87
4, 102069, Note_on_c, 9, 59, 0
4, 102125, Note_on_c, 9, 59, 87
4, 102140, Note_on_c, 9, 59, 0
4, 102195, Note_on_c, 9, 59, 87
4, 102209, Note_on_c, 9, 59, 0
4, 102251, Note_on_c, 9, 59, 87
4, 102326, Note_on_c, 9, 59, 0
4, 102360, Note_on_c, 9, 59, 87
4, 102377, Note_on_c, 9, 59, 0
4, 102430, Note_on_c, 9, 59, 87
4, 102448, Note_on_c, 9, 59, 0
4, 102485, Note_on_c, 9, 59, 87
4, 102572, Note_on_c, 9, 59, 0
4, 102603, Note_on_c, 9, 59, 87
4, 102618, Note_on_c, 9, 59, 0
4, 102674, Note_on_c, 9, 59, 87
4, 102688, Note_on_c, 9, 59, 0
4, 102725, Note_on_c, 9, 59, 87
4, 102816, Note_on_c, 9, 59, 0
4, 102849, Note_on_c, 9, 59, 87
4, 102865, Note_on_c, 9, 59, 0
4, 102908, Note_on_c, 9, 59, 87
4, 102935, Note_on_c, 9, 59, 0
4, 102966, Note_on_c, 9, 59, 87
4, 103040, Note_on_c, 9, 59, 0
4, 103085, Note_on_c, 9, 59, 87
4, 103099, Note_on_c, 9, 59, 0
4, 103147, Note_on_c, 9, 59, 87
4, 103173, Note_on_c, 9, 59, 0
4, 103200, Note_on_c, 9, 59, 87
4, 103281, Note_on_c, 9, 59, 0
4, 103319, Note_on_c, 9, 59, 87
4, 103336, Note_on_c, 9, 59, 0
4, 103386, Note_on_c, 9, 59, 87
4, 103415, Note_on_c, 9, 59, 0
4, 103446, Note_on_c, 9, 59, 87
4, 103524, Note_on_c, 9, 59, 0
4, 103569, Note_on_c, 9, 59, 87
4, 103585, Note_on_c, 9, 59, 0
4, 103633, Note_on_c, 9, 59, 87
4, 103664, Note_on_c, 9, 59, 0
4, 103688, Note_on_c, 9, 59, 87
4, 103778, Note_on_c, 9, 59, 0
4, 103811, Note_on_c, 9, 59, 87
4, 103826, Note_on_c, 9, 59, 0
4, 103864, Note_on_c, 9, 59, 87
4, 103904, Note_on_c, 9, 59, 0
4, 103931, Note_on_c, 9, 59, 87
4, 104004, Note_on_c, 9, 59, 0
4, 104032, Note_on_c, 9, 59, 87
4, 104057, Note_on_c, 9, 59, 0
4, 104110, Note_on_c, 9, 59, 87
4, 104182, Note_on_c, 9, 59, 0
4, 104228, Note_on_c, 9, 59, 87
4, 104243, Note_on_c, 9, 59, 0
4, 104288, Note_on_c, 9, 59, 87
4, 104357, Note_on_c, 9, 59, 0
4, 104396, Note_on_c, 9, 59, 87
4, 104443, Note_on_c, 9, 59, 0
4, 104516, Note_on_c, 9, 59, 87
4, 104532, Note_on_c, 9, 59, 0
4, 104578, Note_on_c, 9, 59, 87
4, 104608, Note_on_c, 9, 59, 0
4, 104632, Note_on_c, 9, 59, 87
4, 104710, Note_on_c, 9, 59, 0
4, 104815, Note_on_c, 9, 59, 87
4, 104846, Note_on_c, 9, 59, 0
4, 104878, Note_on_c, 9, 59, 87
4, 104951, Note_on_c, 9, 59, 0
4, 104993, Note_on_c, 9, 59, 87
4, 105008, Note_on_c, 9, 59, 0
4, 105060, Note_on_c, 9, 59, 87
4, 105083, Note_on_c, 9, 59, 0
4, 105128, Note_on_c, 9, 59, 87
4, 105195, Note_on_c, 9, 59, 0
4, 105228, Note_on_c, 9, 59, 87
4, 105255, Note_on_c, 9, 59, 0
4, 105306, Note_on_c, 9, 59, 87
4, 105324, Note_on_c, 9, 59, 0
4, 105364, Note_on_c, 9, 59, 87
4, 105432, Note_on_c, 9, 59, 0
4, 105477, Note_on_c, 9, 59, 87
4, 105493, Note_on_c, 9, 59, 0
4, 105543, Note_on_c, 9, 59, 87
4, 105562, Note_on_c, 9, 59, 0
4, 105602, Note_on_c, 9, 59, 87
4, 105676, Note_on_c, 9, 59, 0
4, 105719, Note_on_c, 9, 59, 87
4, 105737, Note_on_c, 9, 59, 0
4, 105778, Note_on_c, 9, 59, 87
4, 105830, Note_on_c, 9, 59, 0
4, 105844, Note_on_c, 9, 59, 87
4, 105899, Note_on_c, 9, 59, 0
4, 105964, Note_on_c, 9, 59, 87
4, 105980, Note_on_c, 9, 59, 0
4, 106025, Note_on_c, 9, 59, 87
4, 106109, Note_on_c, 9, 59, 0
4, 106150, Note_on_c, 9, 59, 87
4, 106181, Note_on_c, 9, 59, 0
4, 106212, Note_on_c, 9, 59, 87
4, 106289, Note_on_c, 9, 59, 0
4, 106323, Note_on_c, 9, 59, 87
4, 106344, Note_on_c, 9, 59, 0
4, 106382, Note_on_c, 9, 59, 87
4, 106449, Note_on_c, 9, 59, 0
4, 106508, Note_on_c, 9, 59, 87
4, 106525, Note_on_c, 9, 59, 0
4, 106565, Note_on_c, 9, 59, 87
4, 106651, Note_on_c, 9, 59, 0
4, 106678, Note_on_c, 9, 59, 87
4, 106698, Note_on_c, 9, 59, 0
4, 106742, Note_on_c, 9, 59, 87
4, 106811, Note_on_c, 9, 59, 0
4, 106862, Note_on_c, 9, 59, 87
4, 106879, Note_on_c, 9, 59, 0
4, 106915, Note_on_c, 9, 59, 87
4, 106984, Note_on_c, 9, 59, 0
4, 107027, Note_on_c, 9, 59, 87
4, 107041, Note_on_c, 9, 59, 0
4, 107096, Note_on_c, 9, 59, 87
4, 107156, Note_on_c, 9, 59, 0
4, 107216, Note_on_c, 9, 59, 87
4, 107241, Note_on_c, 9, 59, 0
4, 107272, Note_on_c, 9, 59, 87
4, 107343, Note_on_c, 9, 59, 0
4, 107407, Note_on_c, 9, 59, 87
4, 107421, Note_on_c, 9, 59, 0
4, 107464, Note_on_c, 9, 59, 87
4, 107481, Note_on_c, 9, 59, 0
4, 107524, Note_on_c, 9, 59, 87
4, 107600, Note_on_c, 9, 59, 0
4, 107705, Note_on_c, 9, 59, 87
4, 107721, Note_on_c, 9, 59, 0
4, 107766, Note_on_c, 9, 59, 87
4, 107829, Note_on_c, 9, 59, 0
4, 107886, Note_on_c, 9, 59, 87
4, 107904, Note_on_c, 9, 59, 0
4, 107955, Note_on_c, 9, 59, 87
4, 107969, Note_on_c, 9, 59, 0
4, 108013, Note_on_c, 9, 59, 87
4, 108076, Note_on_c, 9, 59, 0
4, 108122, Note_on_c, 9, 59, 87
4, 108136, Note_on_c, 9, 59, 0
4, 108190, Note_on_c, 9, 59, 87
4, 108209, Note_on_c, 9, 59, 0
4, 108243, Note_on_c, 9, 59, 87
4, 108310, Note_on_c, 9, 59, 0
4, 108364, Note_on_c, 9, 59, 87
4, 108381, Note_on_c, 9, 59, 0
4, 108488, Note_on_c, 9, 59, 87
4, 108564, Note_on_c, 9, 59, 0
4, 108596, Note_on_c, 9, 59, 87
4, 108609, Note_on_c, 9, 59, 0
4, 108662, Note_on_c, 9, 59, 87
4, 108690, Note_on_c, 9, 59, 0
4, 108720, Note_on_c, 9, 59, 87
4, 108786, Note_on_c, 9, 59, 0
4, 108840, Note_on_c, 9, 59, 87
4, 108856, Note_on_c, 9, 59, 0
4, 108906, Note_on_c, 9, 59, 87
4, 108936, Note_on_c, 9, 59, 0
4, 109040, Note_on_c, 9, 59, 87
4, 109061, Note_on_c, 9, 59, 0
4, 109089, Note_on_c, 9, 59, 87
4, 109159, Note_on_c, 9, 59, 0
4, 109200, Note_on_c, 9, 59, 87
4, 109217, Note_on_c, 9, 59, 0
4, 109271, Note_on_c, 9, 59, 87
4, 109305, Note_on_c, 9, 59, 0
4, 109392, Note_on_c, 9, 59, 87
4, 109412, Note_on_c, 9, 59, 0
4, 109441, Note_on_c, 9, 59, 87
4, 109500, Note_on_c, 9, 59, 0
4, 109624, Note_on_c, 9, 59, 87
4, 109656, Note_on_c, 9, 59, 0
4, 109680, Note_on_c, 9, 59, 87
4, 109719, Note_on_c, 9, 59, 0
4, 109804, Note_on_c, 9, 59, 87
4, 109820, Note_on_c, 9, 59, 0
4, 109867, Note_on_c, 9, 59, 87
4, 109896, Note_on_c, 9, 59, 0
4, 109922, Note_on_c, 9, 59, 87
4, 109996, Note_on_c, 9, 59, 0
4, 110104, Note_on_c, 9, 59, 87
4, 110136, Note_on_c, 9, 59, 0
4, 110167, Note_on_c, 9, 59, 87
4, 110236, Note_on_c, 9, 59, 0
4, 110286, Note_on_c, 9, 59, 87
4, 110303, Note_on_c, 9, 59, 0
4, 110349, Note_on_c, 9, 59, 87
4, 110380, Note_on_c, 9, 59, 0
4, 110395, Note_on_c, 9, 59, 87
4, 110432, Note_on_c, 9, 59, 0
4, 110610, Note_on_c, 9, 59, 87
4, 110639, Note_on_c, 9, 59, 0
4, 110678, Note_on_c, 9, 59, 87
4, 110692, Note_on_c, 9, 59, 0
4, 110841, Note_on_c, 9, 59, 87
4, 110888, Note_on_c, 9, 59, 0
4, 110964, Note_on_c, 9, 59, 87
4, 110978, Note_on_c, 9, 59, 0
4, 111024, Note_on_c, 9, 59, 87
4, 111093, Note_on_c, 9, 59, 0
4, 111144, Note_on_c, 9, 59, 87
4, 111157, Note_on_c, 9, 59, 0
4, 111206, Note_on_c, 9, 59, 87
4, 111247, Note_on_c, 9, 59, 0
4, 111313, Note_on_c, 9, 59, 87
4, 111335, Note_on_c, 9, 59, 0
4, 111369, Note_on_c, 9, 59, 87
4, 111434, Note_on_c, 9, 59, 0
4, 111478, Note_on_c, 9, 59, 87
4, 111494, Note_on_c, 9, 59, 0
4, 111543, Note_on_c, 9, 59, 87
4, 111590, Note_on_c, 9, 59, 0
4, 111665, Note_on_c, 9, 59, 87
4, 111688, Note_on_c, 9, 59, 0
4, 111725, Note_on_c, 9, 59, 87
4, 111787, Note_on_c, 9, 59, 0
4, 111840, Note_on_c, 9, 59, 87
4, 111855, Note_on_c, 9, 59, 0
4, 111910, Note_on_c, 9, 59, 87
4, 111952, Note_on_c, 9, 59, 0
4, 112030, Note_on_c, 9, 59, 87
4, 112046, Note_on_c, 9, 59, 0
4, 112091, Note_on_c, 9, 59, 87
4, 112137, Note_on_c, 9, 59, 0
4, 112214, Note_on_c, 9, 59, 87
4, 112230, Note_on_c, 9, 59, 0
4, 112278, Note_on_c, 9, 59, 87
4, 112330, Note_on_c, 9, 59, 0
4, 112390, Note_on_c, 9, 59, 87
4, 112421, Note_on_c, 9, 59, 0
4, 112448, Note_on_c, 9, 59, 87
4, 112494, Note_on_c, 9, 59, 0
4, 112548, Note_on_c, 9, 53, 87
4, 112551, Note_on_c, 9, 59, 87
4, 112584, Note_on_c, 9, 59, 0
4, 112584, Note_on_c, 9, 53, 0
4, 112671, Note_on_c, 9, 59, 87
4, 112693, Note_on_c, 9, 59, 0
4, 112742, Note_on_c, 9, 59, 87
4, 112750, Note_on_c, 9, 53, 87
4, 112770, Note_on_c, 9, 53, 0
4, 112786, Note_on_c, 9, 59, 0
4, 112866, Note_on_c, 9, 59, 87
4, 112891, Note_on_c, 9, 59, 0
4, 112930, Note_on_c, 9, 59, 87
4, 112932, Note_on_c, 9, 53, 87
4, 112961, Note_on_c, 9, 53, 0
4, 112982, Note_on_c, 9, 59, 0
4, 113042, Note_on_c, 9, 59, 87
4, 113064, Note_on_c, 9, 59, 0
4, 113113, Note_on_c, 9, 59, 87
4, 113118, Note_on_c, 9, 53, 87
4, 113138, Note_on_c, 9, 53, 0
4, 113147, Note_on_c, 9, 59, 0
4, 113237, Note_on_c, 9, 59, 87
4, 113287, Note_on_c, 9, 53, 87
4, 113320, Note_on_c, 9, 59, 0
4, 113324, Note_on_c, 9, 53, 0
4, 113406, Note_on_c, 9, 59, 87
4, 113436, Note_on_c, 9, 59, 0
4, 113470, Note_on_c, 9, 59, 87
4, 113501, Note_on_c, 9, 59, 0
4, 113583, Note_on_c, 9, 59, 87
4, 113604, Note_on_c, 9, 59, 0
4, 113641, Note_on_c, 9, 59, 87
4, 113702, Note_on_c, 9, 59, 0
4, 113767, Note_on_c, 9, 59, 87
4, 113797, Note_on_c, 9, 59, 0
4, 113882, Note_on_c, 9, 59, 87
4, 113917, Note_on_c, 9, 59, 0
4, 114067, Note_on_c, 9, 59, 87
4, 114096, Note_on_c, 9, 59, 0
4, 114189, Note_on_c, 9, 59, 87
4, 114213, Note_on_c, 9, 59, 0
4, 114250, Note_on_c, 9, 59, 87
4, 114289, Note_on_c, 9, 59, 0
4, 114356, Note_on_c, 9, 59, 87
4, 114376, Note_on_c, 9, 59, 0
4, 114432, Note_on_c, 9, 59, 87
4, 114472, Note_on_c, 9, 59, 0
4, 114543, Note_on_c, 9, 59, 87
4, 114558, Note_on_c, 9, 59, 0
4, 114602, Note_on_c, 9, 59, 87
4, 114663, Note_on_c, 9, 59, 0
4, 114716, Note_on_c, 9, 59, 87
4, 114735, Note_on_c, 9, 59, 0
4, 114786, Note_on_c, 9, 59, 87
4, 114830, Note_on_c, 9, 59, 0
4, 114899, Note_on_c, 9, 59, 87
4, 114924, Note_on_c, 9, 59, 0
4, 114954, Note_on_c, 9, 59, 87
4, 114989, Note_on_c, 9, 59, 0
4, 115082, Note_on_c, 9, 59, 87
4, 115136, Note_on_c, 9, 59, 0
4, 115206, Note_on_c, 9, 59, 87
4, 115254, Note_on_c, 9, 59, 0
4, 115324, Note_on_c, 9, 59, 87
4, 115377, Note_on_c, 9, 59, 0
4, 115409, Note_on_c, 9, 59, 87
4, 115440, Note_on_c, 9, 59, 0
4, 115464, Note_on_c, 9, 59, 87
4, 115514, Note_on_c, 9, 59, 0
4, 115562, Note_on_c, 9, 59, 87
4, 115615, Note_on_c, 9, 59, 0
4, 115682, Note_on_c, 9, 59, 87
4, 115732, Note_on_c, 9, 59, 0
4, 115788, Note_on_c, 9, 59, 87
4, 115849, Note_on_c, 9, 59, 0
4, 115883, Note_on_c, 9, 59, 87
4, 115909, Note_on_c, 9, 59, 0
4, 115939, Note_on_c, 9, 59, 87
4, 115999, Note_on_c, 9, 59, 0
4, 116054, Note_on_c, 9, 59, 87
4, 116108, Note_on_c, 9, 59, 0
4, 116138, Note_on_c, 9, 59, 87
4, 116152, Note_on_c, 9, 59, 0
4, 116183, Note_on_c, 9, 59, 87
4, 116236, Note_on_c, 9, 59, 0
4, 116285, Note_on_c, 9, 59, 87
4, 116314, Note_on_c, 9, 59, 0
4, 116412, Note_on_c, 9, 59, 87
4, 116471, Note_on_c, 9, 59, 0
4, 116520, Note_on_c, 9, 59, 87
4, 116571, Note_on_c, 9, 59, 0
4, 116646, Note_on_c, 9, 59, 87
4, 116707, Note_on_c, 9, 59, 0
4, 116758, Note_on_c, 9, 59, 87
4, 116808, Note_on_c, 9, 59, 0
4, 116876, Note_on_c, 9, 59, 87
4, 116930, Note_on_c, 9, 59, 0
4, 117242, Note_on_c, 9, 59, 87
4, 117269, Note_on_c, 9, 59, 0
4, 117329, Note_on_c, 9, 59, 87
4, 117348, Note_on_c, 9, 59, 0
4, 117360, Note_on_c, 9, 59, 87
4, 117428, Note_on_c, 9, 59, 0
4, 117486, Note_on_c, 9, 59, 87
4, 117566, Note_on_c, 9, 59, 0
4, 117605, Note_on_c, 9, 59, 87
4, 117697, Note_on_c, 9, 59, 0
4, 117721, Note_on_c, 9, 59, 87
4, 117781, Note_on_c, 9, 59, 0
4, 117807, Note_on_c, 9, 59, 87
4, 117825, Note_on_c, 9, 59, 0
4, 117843, Note_on_c, 9, 59, 87
4, 117940, Note_on_c, 9, 59, 0
4, 117966, Note_on_c, 9, 59, 87
4, 118027, Note_on_c, 9, 59, 0
4, 118083, Note_on_c, 9, 59, 87
4, 118142, Note_on_c, 9, 59, 0
4, 118201, Note_on_c, 9, 59, 87
4, 118239, Note_on_c, 9, 59, 0
4, 118282, Note_on_c, 9, 59, 87
4, 118301, Note_on_c, 9, 59, 0
4, 118321, Note_on_c, 9, 59, 87
4, 118406, Note_on_c, 9, 59, 0
4, 118439, Note_on_c, 9, 59, 87
4, 118498, Note_on_c, 9, 59, 0
4, 118522, Note_on_c, 9, 59, 87
4, 118545, Note_on_c, 9, 59, 0
4, 118565, Note_on_c, 9, 59, 87
4, 118639, Note_on_c, 9, 59, 0
4, 118677, Note_on_c, 9, 59, 87
4, 118726, Note_on_c, 9, 59, 0
4, 118763, Note_on_c, 9, 59, 87
4, 118781, Note_on_c, 9, 59, 0
4, 118801, Note_on_c, 9, 59, 87
4, 118876, Note_on_c, 9, 59, 0
4, 118921, Note_on_c, 9, 59, 87
4, 118970, Note_on_c, 9, 59, 0
4, 119008, Note_on_c, 9, 59, 87
4, 119022, Note_on_c, 9, 59, 0
4, 119043, Note_on_c, 9, 59, 87
4, 119109, Note_on_c, 9, 59, 0
4, 119163, Note_on_c, 9, 59, 87
4, 119210, Note_on_c, 9, 59, 0
4, 119248, Note_on_c, 9, 59, 87
4, 119261, Note_on_c, 9, 59, 0
4, 119280, Note_on_c, 9, 59, 87
4, 119350, Note_on_c, 9, 59, 0
4, 119401, Note_on_c, 9, 59, 87
4, 119447, Note_on_c, 9, 59, 0
4, 119493, Note_on_c, 9, 59, 87
4, 119504, Note_on_c, 9, 59, 0
4, 119522, Note_on_c, 9, 59, 87
4, 119589, Note_on_c, 9, 59, 0
4, 119636, Note_on_c, 9, 59, 87
4, 119702, Note_on_c, 9, 59, 0
4, 119759, Note_on_c, 9, 59, 87
4, 119833, Note_on_c, 9, 59, 0
4, 119835, Note_on_c, 9, 53, 87
4, 119874, Note_on_c, 9, 53, 0
4, 119878, Note_on_c, 9, 59, 87
4, 119962, Note_on_c, 9, 59, 0
4, 119997, Note_on_c, 9, 59, 87
4, 120065, Note_on_c, 9, 59, 0
4, 120123, Note_on_c, 9, 59, 87
4, 120215, Note_on_c, 9, 59, 0
4, 120239, Note_on_c, 9, 59, 87
4, 120302, Note_on_c, 9, 59, 0
4, 120331, Note_on_c, 9, 59, 87
4, 120339, Note_on_c, 9, 59, 0
4, 120358, Note_on_c, 9, 59, 87
4, 120444, Note_on_c, 9, 59, 0
4, 120474, Note_on_c, 9, 59, 87
4, 120560, Note_on_c, 9, 59, 0
4, 120599, Note_on_c, 9, 59, 87
4, 120666, Note_on_c, 9, 59, 0
4, 120687, Note_on_c, 9, 59, 87
4, 120699, Note_on_c, 9, 59, 0
4, 120721, Note_on_c, 9, 59, 87
4, 120813, Note_on_c, 9, 59, 0
4, 120842, Note_on_c, 9, 59, 87
4, 120895, Note_on_c, 9, 59, 0
4, 120930, Note_on_c, 9, 59, 87
4, 120940, Note_on_c, 9, 59, 0
4, 120960, Note_on_c, 9, 59, 87
4, 121041, Note_on_c, 9, 59, 0
4, 121082, Note_on_c, 9, 59, 87
4, 121149, Note_on_c, 9, 59, 0
4, 121171, Note_on_c, 9, 59, 87
4, 121184, Note_on_c, 9, 59, 0
4, 121201, Note_on_c, 9, 59, 87
4, 121270, Note_on_c, 9, 59, 0
4, 121321, Note_on_c, 9, 59, 87
4, 121382, Note_on_c, 9, 59, 0
4, 121443, Note_on_c, 9, 59, 87
4, 121510, Note_on_c, 9, 59, 0
4, 121558, Note_on_c, 9, 59, 87
4, 121629, Note_on_c, 9, 59, 0
4, 121652, Note_on_c, 9, 59, 87
4, 121663, Note_on_c, 9, 59, 0
4, 121677, Note_on_c, 9, 59, 87
4, 121754, Note_on_c, 9, 59, 0
4, 121783, Note_on_c, 9, 59, 87
4, 121844, Note_on_c, 9, 59, 0
4, 121884, Note_on_c, 9, 59, 87
4, 121895, Note_on_c, 9, 59, 0
4, 121915, Note_on_c, 9, 59, 87
4, 121987, Note_on_c, 9, 59, 0
4, 122038, Note_on_c, 9, 59, 87
4, 122099, Note_on_c, 9, 59, 0
4, 122121, Note_on_c, 9, 59, 87
4, 122136, Note_on_c, 9, 59, 0
4, 122153, Note_on_c, 9, 59, 87
4, 122220, Note_on_c, 9, 59, 0
4, 122279, Note_on_c, 9, 59, 87
4, 122348, Note_on_c, 9, 59, 0
4, 122396, Note_on_c, 9, 59, 87
4, 122460, Note_on_c, 9, 59, 0
4, 122521, Note_on_c, 9, 59, 87
4, 122593, Note_on_c, 9, 59, 0
4, 122643, Note_on_c, 9, 59, 87
4, 122728, Note_on_c, 9, 59, 0
4, 122765, Note_on_c, 9, 59, 87
4, 122787, Note_on_c, 9, 59, 0
4, 122836, Note_on_c, 9, 59, 87
4, 122846, Note_on_c, 9, 59, 0
4, 122886, Note_on_c, 9, 59, 87
4, 122930, Note_on_c, 9, 59, 0
4, 123062, Note_on_c, 9, 59, 87
4, 123083, Note_on_c, 9, 59, 0
4, 123123, Note_on_c, 9, 59, 87
4, 123162, Note_on_c, 9, 59, 0
4, 123243, Note_on_c, 9, 59, 87
4, 123287, Note_on_c, 9, 59, 0
4, 123308, Note_on_c, 9, 59, 87
4, 123344, Note_on_c, 9, 59, 0
4, 123427, Note_on_c, 9, 59, 87
4, 123466, Note_on_c, 9, 59, 0
4, 123547, Note_on_c, 9, 59, 87
4, 123571, Note_on_c, 9, 59, 0
4, 123602, Note_on_c, 9, 59, 87
4, 123653, Note_on_c, 9, 59, 0
4, 123670, Note_on_c, 9, 59, 87
4, 123685, Note_on_c, 9, 59, 0
4, 123721, Note_on_c, 9, 59, 87
4, 123786, Note_on_c, 9, 59, 0
4, 123845, Note_on_c, 9, 59, 87
4, 123894, Note_on_c, 9, 59, 0
4, 123962, Note_on_c, 9, 59, 87
4, 124004, Note_on_c, 9, 59, 0
4, 124024, Note_on_c, 9, 59, 87
4, 124066, Note_on_c, 9, 59, 0
4, 124141, Note_on_c, 9, 59, 87
4, 124188, Note_on_c, 9, 59, 0
4, 124268, Note_on_c, 9, 59, 87
4, 124290, Note_on_c, 9, 59, 0
4, 124327, Note_on_c, 9, 59, 87
4, 124411, Note_on_c, 9, 59, 0
4, 124440, Note_on_c, 9, 59, 87
4, 124460, Note_on_c, 9, 59, 0
4, 124507, Note_on_c, 9, 59, 87
4, 124536, Note_on_c, 9, 59, 0
4, 124557, Note_on_c, 9, 59, 87
4, 124635, Note_on_c, 9, 59, 0
4, 124675, Note_on_c, 9, 59, 87
4, 124698, Note_on_c, 9, 59, 0
4, 124742, Note_on_c, 9, 59, 87
4, 124846, Note_on_c, 9, 59, 0
4, 124869, Note_on_c, 9, 59, 87
4, 124885, Note_on_c, 9, 59, 0
4, 124923, Note_on_c, 9, 59, 87
4, 125002, Note_on_c, 9, 59, 0
4, 125035, Note_on_c, 9, 59, 87
4, 125135, Note_on_c, 9, 59, 0
4, 125157, Note_on_c, 9, 59, 87
4, 125171, Note_on_c, 9, 59, 0
4, 125224, Note_on_c, 9, 59, 87
4, 125322, Note_on_c, 9, 59, 0
4, 125341, Note_on_c, 9, 59, 87
4, 125404, Note_on_c, 9, 59, 0
4, 125462, Note_on_c, 9, 59, 87
4, 125492, Note_on_c, 9, 59, 0
4, 125518, Note_on_c, 9, 59, 87
4, 125596, Note_on_c, 9, 59, 0
4, 125642, Note_on_c, 9, 59, 87
4, 125659, Note_on_c, 9, 59, 0
4, 125710, Note_on_c, 9, 59, 87
4, 125814, Note_on_c, 9, 59, 0
4, 125875, Note_on_c, 9, 59, 87
4, 125891, Note_on_c, 9, 59, 0
4, 125937, Note_on_c, 9, 59, 87
4, 126053, Note_on_c, 9, 59, 0
4, 126072, Note_on_c, 9, 59, 87
4, 126102, Note_on_c, 9, 59, 0
4, 126124, Note_on_c, 9, 59, 87
4, 126216, Note_on_c, 9, 59, 0
4, 126240, Note_on_c, 9, 59, 87
4, 126287, Note_on_c, 9, 59, 0
4, 126306, Note_on_c, 9, 59, 87
4, 126387, Note_on_c, 9, 59, 0
4, 126424, Note_on_c, 9, 59, 87
4, 126456, Note_on_c, 9, 59, 0
4, 126478, Note_on_c, 9, 59, 87
4, 126535, Note_on_c, 9, 59, 0
4, 126543, Note_on_c, 9, 53, 87
4, 126576, Note_on_c, 9, 53, 0
4, 126600, Note_on_c, 9, 59, 87
4, 126635, Note_on_c, 9, 59, 0
4, 126660, Note_on_c, 9, 59, 87
4, 126691, Note_on_c, 9, 59, 0
4, 126719, Note_on_c, 9, 59, 87
4, 126799, Note_on_c, 9, 59, 0
4, 126838, Note_on_c, 9, 59, 87
4, 126856, Note_on_c, 9, 59, 0
4, 126902, Note_on_c, 9, 59, 87
4, 126974, Note_on_c, 9, 59, 0
4, 127020, Note_on_c, 9, 59, 87
4, 127039, Note_on_c, 9, 59, 0
4, 127079, Note_on_c, 9, 59, 87
4, 127153, Note_on_c, 9, 59, 0
4, 127195, Note_on_c, 9, 59, 87
4, 127248, Note_on_c, 9, 59, 0
4, 127318, Note_on_c, 9, 59, 87
4, 127350, Note_on_c, 9, 59, 0
4, 127390, Note_on_c, 9, 59, 87
4, 127416, Note_on_c, 9, 59, 0
4, 127448, Note_on_c, 9, 59, 87
4, 127511, Note_on_c, 9, 59, 0
4, 127560, Note_on_c, 9, 59, 87
4, 127608, Note_on_c, 9, 59, 0
4, 127628, Note_on_c, 9, 59, 87
4, 127721, Note_on_c, 9, 59, 0
4, 127752, Note_on_c, 9, 59, 87
4, 127814, Note_on_c, 9, 59, 0
4, 127864, Note_on_c, 9, 59, 87
4, 127885, Note_on_c, 9, 59, 0
4, 127924, Note_on_c, 9, 59, 87
4, 127990, Note_on_c, 9, 59, 0
4, 128038, Note_on_c, 9, 59, 87
4, 128085, Note_on_c, 9, 59, 0
4, 128111, Note_on_c, 9, 59, 87
4, 128199, Note_on_c, 9, 59, 0
4, 128224, Note_on_c, 9, 59, 87
4, 128245, Note_on_c, 9, 59, 0
4, 128344, Note_on_c, 9, 59, 87
4, 128379, Note_on_c, 9, 59, 0
4, 128400, Note_on_c, 9, 59, 87
4, 128447, Note_on_c, 9, 59, 0
4, 128464, Note_on_c, 9, 59, 87
4, 128484, Note_on_c, 9, 59, 0
4, 128521, Note_on_c, 9, 59, 87
4, 128588, Note_on_c, 9, 59, 0
4, 128639, Note_on_c, 9, 59, 87
4, 128650, Note_on_c, 9, 59, 0
4, 128716, Note_on_c, 9, 59, 87
4, 128754, Note_on_c, 9, 59, 0
4, 128822, Note_on_c, 9, 59, 87
4, 128845, Note_on_c, 9, 59, 0
4, 128878, Note_on_c, 9, 59, 87
4, 128939, Note_on_c, 9, 59, 0
4, 128993, Note_on_c, 9, 59, 87
4, 129036, Note_on_c, 9, 59, 0
4, 129120, Note_on_c, 9, 59, 87
4, 129149, Note_on_c, 9, 59, 0
4, 129244, Note_on_c, 9, 59, 87
4, 129276, Note_on_c, 9, 59, 0
4, 129363, Note_on_c, 9, 59, 87
4, 129384, Note_on_c, 9, 59, 0
4, 129421, Note_on_c, 9, 59, 87
4, 129448, Note_on_c, 9, 59, 0
4, 129477, Note_on_c, 9, 59, 87
4, 129497, Note_on_c, 9, 59, 0
4, 129546, Note_on_c, 9, 59, 87
4, 129549, Note_on_c, 9, 53, 87
4, 129575, Note_on_c, 9, 53, 0
4, 129589, Note_on_c, 9, 59, 0
4, 129662, Note_on_c, 9, 53, 87
4, 129662, Note_on_c, 9, 59, 87
4, 129696, Note_on_c, 9, 59, 0
4, 129703, Note_on_c, 9, 53, 0
4, 129784, Note_on_c, 9, 59, 87
4, 129803, Note_on_c, 9, 59, 0
4, 129841, Note_on_c, 9, 59, 87
4, 129878, Note_on_c, 9, 59, 0
4, 129906, Note_on_c, 9, 53, 87
4, 129916, Note_on_c, 9, 53, 0
4, 129956, Note_on_c, 9, 59, 87
4, 129965, Note_on_c, 9, 59, 0
4, 130029, Note_on_c, 9, 59, 87
4, 130032, Note_on_c, 9, 53, 87
4, 130049, Note_on_c, 9, 59, 0
4, 130054, Note_on_c, 9, 53, 0
4, 130146, Note_on_c, 9, 59, 87
4, 130150, Note_on_c, 9, 53, 87
4, 130171, Note_on_c, 9, 59, 0
4, 130180, Note_on_c, 9, 53, 0
4, 130261, Note_on_c, 9, 53, 87
4, 130292, Note_on_c, 9, 53, 0
4, 130322, Note_on_c, 9, 59, 87
4, 130345, Note_on_c, 9, 59, 0
4, 130374, Note_on_c, 9, 53, 87
4, 130383, Note_on_c, 9, 53, 0
4, 130430, Note_on_c, 9, 53, 87
4, 130430, Note_on_c, 9, 59, 87
4, 130431, Note_on_c, 9, 57, 87
4, 130438, Note_on_c, 9, 53, 0
4, 130449, Note_on_c, 9, 57, 0
4, 130455, Note_on_c, 9, 59, 0
4, 130455, End_track
5, 0, Start_track
5, 0, MIDI_port, 0
5, 0, Title_t, "Congas"
5, 3956, Note_on_c, 9, 62, 64
5, 3984, Note_on_c, 9, 62, 0
5, 4192, Note_on_c, 9, 63, 64
5, 4226, Note_on_c, 9, 63, 0
5, 4262, Note_on_c, 9, 64, 64
5, 4262, Note_on_c, 9, 63, 64
5, 4304, Note_on_c, 9, 64, 0
5, 4307, Note_on_c, 9, 63, 0
5, 4437, Note_on_c, 9, 62, 64
5, 4485, Note_on_c, 9, 62, 0
5, 4680, Note_on_c, 9, 63, 64
5, 4683, Note_on_c, 9, 64, 64
5, 4722, Note_on_c, 9, 64, 0
5, 4725, Note_on_c, 9, 63, 0
5, 4738, Note_on_c, 9, 63, 64
5, 4742, Note_on_c, 9, 64, 64
5, 4773, Note_on_c, 9, 63, 0
5, 4774, Note_on_c, 9, 64, 0
5, 4916, Note_on_c, 9, 62, 64
5, 4965, Note_on_c, 9, 62, 0
5, 5156, Note_on_c, 9, 63, 64
5, 5158, Note_on_c, 9, 64, 64
5, 5201, Note_on_c, 9, 64, 0
5, 5204, Note_on_c, 9, 63, 0
5, 5225, Note_on_c, 9, 63, 64
5, 5227, Note_on_c, 9, 64, 64
5, 5248, Note_on_c, 9, 63, 0
5, 5256, Note_on_c, 9, 64, 0
5, 5347, Note_on_c, 9, 62, 64
5, 5383, Note_on_c, 9, 62, 0
5, 5403, Note_on_c, 9, 62, 64
5, 5445, Note_on_c, 9, 62, 0
5, 5589, Note_on_c, 9, 63, 64
5, 5591, Note_on_c, 9, 64, 64
5, 5645, Note_on_c, 9, 64, 0
5, 5650, Note_on_c, 9, 63, 0
5, 5704, Note_on_c, 9, 62, 64
5, 5724, Note_on_c, 9, 62, 0
5, 5768, Note_on_c, 9, 62, 64
5, 5794, Note_on_c, 9, 62, 0
5, 5887, Note_on_c, 9, 63, 64
5, 5889, Note_on_c, 9, 64, 64
5, 5913, Note_on_c, 9, 63, 0
5, 5922, Note_on_c, 9, 64, 0
5, 6301, Note_on_c, 9, 62, 64
5, 6325, Note_on_c, 9, 62, 0
5, 6417, Note_on_c, 9, 62, 64
5, 6443, Note_on_c, 9, 62, 0
5, 6477, Note_on_c, 9, 63, 64
5, 6478, Note_on_c, 9, 64, 64
5, 6513, Note_on_c, 9, 64, 0
5, 6515, Note_on_c, 9, 63, 0
5, 6535, Note_on_c, 9, 63, 64
5, 6537, Note_on_c, 9, 64, 64
5, 6559, Note_on_c, 9, 64, 0
5, 6563, Note_on_c, 9, 63, 0
5, 6848, Note_on_c, 9, 62, 64
5, 6873, Note_on_c, 9, 62, 0
5, 7082, Note_on_c, 9, 63, 64
5, 7082, Note_on_c, 9, 64, 64
5, 7121, Note_on_c, 9, 63, 0
5, 7123, Note_on_c, 9, 64, 0
5, 7146, Note_on_c, 9, 63, 64
5, 7149, Note_on_c, 9, 64, 64
5, 7182, Note_on_c, 9, 63, 0
5, 7189, Note_on_c, 9, 64, 0
5, 7261, Note_on_c, 9, 62, 64
5, 7295, Note_on_c, 9, 62, 0
5, 7380, Note_on_c, 9, 63, 64
5, 7393, Note_on_c, 9, 63, 0
5, 7440, Note_on_c, 9, 63, 64
5, 7441, Note_on_c, 9, 64, 64
5, 7480, Note_on_c, 9, 63, 0
5, 7484, Note_on_c, 9, 64, 0
5, 7500, Note_on_c, 9, 63, 64
5, 7502, Note_on_c, 9, 64, 64
5, 7534, Note_on_c, 9, 64, 0
5, 7535, Note_on_c, 9, 63, 0
5, 7556, Note_on_c, 9, 63, 64
5, 7557, Note_on_c, 9, 64, 64
5, 7590, Note_on_c, 9, 63, 0
5, 7595, Note_on_c, 9, 64, 0
5, 7615, Note_on_c, 9, 62, 64
5, 7644, Note_on_c, 9, 62, 0
5, 7673, Note_on_c, 9, 62, 64
5, 7694, Note_on_c, 9, 62, 0
5, 7802, Note_on_c, 9, 37, 64
5, 7843, Note_on_c, 9, 37, 0
5, 8040, Note_on_c, 9, 64, 64
5, 8053, Note_on_c, 9, 64, 0
5, 8100, Note_on_c, 9, 64, 64
5, 8113, Note_on_c, 9, 64, 0
5, 8284, Note_on_c, 9, 37, 64
5, 8324, Note_on_c, 9, 37, 0
5, 8532, Note_on_c, 9, 64, 64
5, 8546, Note_on_c, 9, 64, 0
5, 8580, Note_on_c, 9, 64, 64
5, 8596, Note_on_c, 9, 64, 0
5, 8754, Note_on_c, 9, 37, 64
5, 8781, Note_on_c, 9, 37, 0
5, 9001, Note_on_c, 9, 64, 64
5, 9015, Note_on_c, 9, 64, 0
5, 9060, Note_on_c, 9, 64, 64
5, 9079, Note_on_c, 9, 64, 0
5, 9241, Note_on_c, 9, 37, 64
5, 9285, Note_on_c, 9, 37, 0
5, 9474, Note_on_c, 9, 64, 64
5, 9503, Note_on_c, 9, 64, 0
5, 9537, Note_on_c, 9, 64, 64
5, 9558, Note_on_c, 9, 64, 0
5, 9723, Note_on_c, 9, 37, 64
5, 9772, Note_on_c, 9, 37, 0
5, 9955, Note_on_c, 9, 64, 64
5, 9985, Note_on_c, 9, 64, 0
5, 10015, Note_on_c, 9, 64, 64
5, 10039, Note_on_c, 9, 64, 0
5, 10204, Note_on_c, 9, 37, 64
5, 10259, Note_on_c, 9, 37, 0
5, 10441, Note_on_c, 9, 64, 64
5, 10470, Note_on_c, 9, 64, 0
5, 10502, Note_on_c, 9, 64, 64
5, 10518, Note_on_c, 9, 64, 0
5, 10680, Note_on_c, 9, 37, 64
5, 10730, Note_on_c, 9, 37, 0
5, 10921, Note_on_c, 9, 64, 64
5, 10951, Note_on_c, 9, 64, 0
5, 10979, Note_on_c, 9, 64, 64
5, 11000, Note_on_c, 9, 64, 0
5, 11155, Note_on_c, 9, 37, 64
5, 11202, Note_on_c, 9, 37, 0
5, 11398, Note_on_c, 9, 64, 64
5, 11434, Note_on_c, 9, 64, 0
5, 11458, Note_on_c, 9, 64, 64
5, 11480, Note_on_c, 9, 64, 0
5, 11639, Note_on_c, 9, 37, 64
5, 11685, Note_on_c, 9, 37, 0
5, 11881, Note_on_c, 9, 64, 64
5, 11892, Note_on_c, 9, 64, 0
5, 11940, Note_on_c, 9, 64, 64
5, 11972, Note_on_c, 9, 64, 0
5, 12116, Note_on_c, 9, 37, 64
5, 12165, Note_on_c, 9, 37, 0
5, 12234, Note_on_c, 9, 37, 64
5, 12267, Note_on_c, 9, 37, 0
5, 12365, Note_on_c, 9, 64, 64
5, 12374, Note_on_c, 9, 64, 0
5, 12422, Note_on_c, 9, 64, 64
5, 12444, Note_on_c, 9, 64, 0
5, 12599, Note_on_c, 9, 37, 64
5, 12646, Note_on_c, 9, 37, 0
5, 12844, Note_on_c, 9, 64, 64
5, 12876, Note_on_c, 9, 64, 0
5, 12903, Note_on_c, 9, 64, 64
5, 12924, Note_on_c, 9, 64, 0
5, 13084, Note_on_c, 9, 37, 64
5, 13134, Note_on_c, 9, 37, 0
5, 13319, Note_on_c, 9, 64, 64
5, 13319, Note_on_c, 9, 62, 64
5, 13358, Note_on_c, 9, 64, 0
5, 13362, Note_on_c, 9, 62, 0
5, 13381, Note_on_c, 9, 62, 64
5, 13381, Note_on_c, 9, 64, 64
5, 13398, Note_on_c, 9, 62, 0
5, 13399, Note_on_c, 9, 64, 0
5, 13560, Note_on_c, 9, 37, 64
5, 13609, Note_on_c, 9, 37, 0
5, 13801, Note_on_c, 9, 63, 64
5, 13803, Note_on_c, 9, 64, 64
5, 13841, Note_on_c, 9, 63, 0
5, 13845, Note_on_c, 9, 64, 0
5, 13872, Note_on_c, 9, 63, 64
5, 13873, Note_on_c, 9, 64, 64
5, 13899, Note_on_c, 9, 63, 0
5, 13902, Note_on_c, 9, 64, 0
5, 14032, Note_on_c, 9, 37, 64
5, 14097, Note_on_c, 9, 37, 0
5, 14281, Note_on_c, 9, 63, 64
5, 14284, Note_on_c, 9, 64, 64
5, 14325, Note_on_c, 9, 63, 0
5, 14332, Note_on_c, 9, 64, 0
5, 14348, Note_on_c, 9, 63, 64
5, 14349, Note_on_c, 9, 64, 64
5, 14366, Note_on_c, 9, 63, 0
5, 14368, Note_on_c, 9, 64, 0
5, 14516, Note_on_c, 9, 37, 64
5, 14581, Note_on_c, 9, 37, 0
5, 14765, Note_on_c, 9, 64, 64
5, 14778, Note_on_c, 9, 64, 0
5, 14826, Note_on_c, 9, 64, 64
5, 14857, Note_on_c, 9, 64, 0
5, 14992, Note_on_c, 9, 37, 64
5, 15054, Note_on_c, 9, 37, 0
5, 15239, Note_on_c, 9, 64, 64
5, 15249, Note_on_c, 9, 64, 0
5, 15305, Note_on_c, 9, 64, 64
5, 15306, Note_on_c, 9, 65, 64
5, 15314, Note_on_c, 9, 65, 0
5, 15317, Note_on_c, 9, 64, 0
5, 15475, Note_on_c, 9, 37, 64
5, 15511, Note_on_c, 9, 37, 0
5, 15718, Note_on_c, 9, 64, 64
5, 15743, Note_on_c, 9, 64, 0
5, 15776, Note_on_c, 9, 64, 64
5, 15796, Note_on_c, 9, 64, 0
5, 15854, Note_on_c, 9, 37, 64
5, 15905, Note_on_c, 9, 37, 0
5, 16443, Note_on_c, 9, 37, 64
5, 16487, Note_on_c, 9, 37, 0
5, 16679, Note_on_c, 9, 64, 64
5, 16725, Note_on_c, 9, 64, 0
5, 16743, Note_on_c, 9, 64, 64
5, 16761, Note_on_c, 9, 64, 0
5, 16916, Note_on_c, 9, 37, 64
5, 16964, Note_on_c, 9, 37, 0
5, 17162, Note_on_c, 9, 64, 64
5, 17214, Note_on_c, 9, 64, 0
5, 17229, Note_on_c, 9, 64, 64
5, 17250, Note_on_c, 9, 64, 0
5, 17396, Note_on_c, 9, 37, 64
5, 17448, Note_on_c, 9, 37, 0
5, 17640, Note_on_c, 9, 64, 64
5, 17685, Note_on_c, 9, 64, 0
5, 17705, Note_on_c, 9, 64, 64
5, 17728, Note_on_c, 9, 64, 0
5, 17880, Note_on_c, 9, 37, 64
5, 17940, Note_on_c, 9, 37, 0
5, 18121, Note_on_c, 9, 63, 64
5, 18124, Note_on_c, 9, 64, 64
5, 18145, Note_on_c, 9, 63, 0
5, 18158, Note_on_c, 9, 64, 0
5, 18188, Note_on_c, 9, 63, 64
5, 18189, Note_on_c, 9, 64, 64
5, 18208, Note_on_c, 9, 63, 0
5, 18218, Note_on_c, 9, 64, 0
5, 18357, Note_on_c, 9, 37, 64
5, 18408, Note_on_c, 9, 37, 0
5, 18597, Note_on_c, 9, 63, 64
5, 18600, Note_on_c, 9, 64, 64
5, 18634, Note_on_c, 9, 63, 0
5, 18644, Note_on_c, 9, 64, 0
5, 18672, Note_on_c, 9, 63, 64
5, 18673, Note_on_c, 9, 64, 64
5, 18706, Note_on_c, 9, 63, 0
5, 18713, Note_on_c, 9, 64, 0
5, 18838, Note_on_c, 9, 37, 64
5, 18898, Note_on_c, 9, 37, 0
5, 18957, Note_on_c, 9, 37, 64
5, 19003, Note_on_c, 9, 37, 0
5, 19089, Note_on_c, 9, 63, 64
5, 19091, Note_on_c, 9, 64, 64
5, 19132, Note_on_c, 9, 63, 0
5, 19135, Note_on_c, 9, 64, 0
5, 19151, Note_on_c, 9, 63, 64
5, 19153, Note_on_c, 9, 64, 64
5, 19191, Note_on_c, 9, 64, 0
5, 19192, Note_on_c, 9, 63, 0
5, 19319, Note_on_c, 9, 37, 64
5, 19365, Note_on_c, 9, 37, 0
5, 19557, Note_on_c, 9, 63, 64
5, 19559, Note_on_c, 9, 64, 64
5, 19590, Note_on_c, 9, 64, 0
5, 19591, Note_on_c, 9, 63, 0
5, 19625, Note_on_c, 9, 63, 64
5, 19628, Note_on_c, 9, 64, 64
5, 19646, Note_on_c, 9, 64, 0
5, 19650, Note_on_c, 9, 63, 0
5, 19790, Note_on_c, 9, 37, 64
5, 19839, Note_on_c, 9, 37, 0
5, 20041, Note_on_c, 9, 64, 64
5, 20088, Note_on_c, 9, 64, 0
5, 20107, Note_on_c, 9, 64, 64
5, 20129, Note_on_c, 9, 64, 0
5, 20283, Note_on_c, 9, 37, 64
5, 20338, Note_on_c, 9, 37, 0
5, 20519, Note_on_c, 9, 63, 64
5, 20521, Note_on_c, 9, 62, 64
5, 20563, Note_on_c, 9, 62, 0
5, 20565, Note_on_c, 9, 63, 0
5, 20582, Note_on_c, 9, 63, 64
5, 20583, Note_on_c, 9, 62, 64
5, 20598, Note_on_c, 9, 62, 0
5, 20603, Note_on_c, 9, 63, 0
5, 20755, Note_on_c, 9, 37, 64
5, 20812, Note_on_c, 9, 37, 0
5, 21001, Note_on_c, 9, 63, 64
5, 21004, Note_on_c, 9, 62, 64
5, 21046, Note_on_c, 9, 62, 0
5, 21051, Note_on_c, 9, 63, 0
5, 21071, Note_on_c, 9, 63, 64
5, 21072, Note_on_c, 9, 62, 64
5, 21092, Note_on_c, 9, 62, 0
5, 21102, Note_on_c, 9, 63, 0
5, 21239, Note_on_c, 9, 37, 64
5, 21295, Note_on_c, 9, 37, 0
5, 21480, Note_on_c, 9, 63, 64
5, 21482, Note_on_c, 9, 62, 64
5, 21498, Note_on_c, 9, 62, 0
5, 21514, Note_on_c, 9, 63, 0
5, 21552, Note_on_c, 9, 62, 64
5, 21557, Note_on_c, 9, 63, 64
5, 21592, Note_on_c, 9, 62, 0
5, 21593, Note_on_c, 9, 63, 0
5, 21716, Note_on_c, 9, 37, 64
5, 21778, Note_on_c, 9, 37, 0
5, 21956, Note_on_c, 9, 62, 64
5, 21957, Note_on_c, 9, 63, 64
5, 21985, Note_on_c, 9, 62, 0
5, 22001, Note_on_c, 9, 63, 0
5, 22034, Note_on_c, 9, 60, 64
5, 22034, Note_on_c, 9, 63, 64
5, 22035, Note_on_c, 9, 62, 64
5, 22061, Note_on_c, 9, 60, 0
5, 22065, Note_on_c, 9, 62, 0
5, 22078, Note_on_c, 9, 63, 0
5, 22199, Note_on_c, 9, 37, 64
5, 22259, Note_on_c, 9, 37, 0
5, 22439, Note_on_c, 9, 62, 64
5, 22440, Note_on_c, 9, 63, 64
5, 22490, Note_on_c, 9, 62, 0
5, 22491, Note_on_c, 9, 63, 0
5, 22512, Note_on_c, 9, 62, 64
5, 22512, Note_on_c, 9, 63, 64
5, 22557, Note_on_c, 9, 62, 0
5, 22560, Note_on_c, 9, 63, 0
5, 22755, Note_on_c, 9, 37, 64
5, 22797, Note_on_c, 9, 37, 0
5, 23164, Note_on_c, 9, 44, 64
5, 23203, Note_on_c, 9, 44, 0
5, 23401, Note_on_c, 9, 44, 64
5, 23476, Note_on_c, 9, 44, 0
5, 23639, Note_on_c, 9, 44, 64
5, 23709, Note_on_c, 9, 44, 0
5, 23878, Note_on_c, 9, 44, 64
5, 23938, Note_on_c, 9, 44, 0
5, 24123, Note_on_c, 9, 44, 64
5, 24157, Note_on_c, 9, 44, 0
5, 24357, Note_on_c, 9, 44, 64
5, 24422, Note_on_c, 9, 44, 0
5, 24599, Note_on_c, 9, 44, 64
5, 24631, Note_on_c, 9, 44, 0
5, 24839, Note_on_c, 9, 46, 64
5, 24871, Note_on_c, 9, 46, 0
5, 25078, Note_on_c, 9, 44, 64
5, 25111, Note_on_c, 9, 44, 0
5, 25313, Note_on_c, 9, 44, 64
5, 25348, Note_on_c, 9, 44, 0
5, 25565, Note_on_c, 9, 44, 64
5, 25602, Note_on_c, 9, 44, 0
5, 25803, Note_on_c, 9, 44, 64
5, 25851, Note_on_c, 9, 44, 0
5, 26042, Note_on_c, 9, 44, 64
5, 26076, Note_on_c, 9, 44, 0
5, 26277, Note_on_c, 9, 44, 64
5, 26313, Note_on_c, 9, 44, 0
5, 26517, Note_on_c, 9, 44, 64
5, 26549, Note_on_c, 9, 44, 0
5, 26756, Note_on_c, 9, 46, 64
5, 26783, Note_on_c, 9, 46, 0
5, 26998, Note_on_c, 9, 44, 64
5, 27031, Note_on_c, 9, 44, 0
5, 27240, Note_on_c, 9, 44, 64
5, 27279, Note_on_c, 9, 44, 0
5, 27481, Note_on_c, 9, 44, 64
5, 27513, Note_on_c, 9, 44, 0
5, 27720, Note_on_c, 9, 44, 64
5, 27779, Note_on_c, 9, 44, 0
5, 27957, Note_on_c, 9, 44, 64
5, 27996, Note_on_c, 9, 44, 0
5, 28201, Note_on_c, 9, 44, 64
5, 28236, Note_on_c, 9, 44, 0
5, 28443, Note_on_c, 9, 44, 64
5, 28476, Note_on_c, 9, 44, 0
5, 28677, Note_on_c, 9, 44, 64
5, 28735, Note_on_c, 9, 44, 0
5, 28922, Note_on_c, 9, 44, 64
5, 28985, Note_on_c, 9, 44, 0
5, 29161, Note_on_c, 9, 44, 64
5, 29202, Note_on_c, 9, 44, 0
5, 29399, Note_on_c, 9, 44, 64
5, 29431, Note_on_c, 9, 44, 0
5, 29633, Note_on_c, 9, 46, 64
5, 29658, Note_on_c, 9, 46, 0
5, 29880, Note_on_c, 9, 44, 64
5, 29915, Note_on_c, 9, 44, 0
5, 30115, Note_on_c, 9, 44, 64
5, 30152, Note_on_c, 9, 44, 0
5, 30359, Note_on_c, 9, 44, 64
5, 30396, Note_on_c, 9, 44, 0
5, 30597, Note_on_c, 9, 44, 64
5, 30638, Note_on_c, 9, 44, 0
5, 30837, Note_on_c, 9, 37, 64
5, 30882, Note_on_c, 9, 37, 0
5, 31081, Note_on_c, 9, 63, 64
5, 31081, Note_on_c, 9, 62, 64
5, 31111, Note_on_c, 9, 62, 0
5, 31122, Note_on_c, 9, 63, 0
5, 31145, Note_on_c, 9, 63, 64
5, 31145, Note_on_c, 9, 62, 64
5, 31165, Note_on_c, 9, 62, 0
5, 31167, Note_on_c, 9, 63, 0
5, 31318, Note_on_c, 9, 37, 64
5, 31352, Note_on_c, 9, 37, 0
5, 31566, Note_on_c, 9, 63, 64
5, 31567, Note_on_c, 9, 62, 64
5, 31577, Note_on_c, 9, 62, 0
5, 31583, Note_on_c, 9, 63, 0
5, 31630, Note_on_c, 9, 63, 64
5, 31631, Note_on_c, 9, 62, 64
5, 31648, Note_on_c, 9, 62, 0
5, 31650, Note_on_c, 9, 63, 0
5, 31800, Note_on_c, 9, 37, 64
5, 31836, Note_on_c, 9, 37, 0
5, 32040, Note_on_c, 9, 63, 64
5, 32040, Note_on_c, 9, 64, 64
5, 32075, Note_on_c, 9, 63, 0
5, 32082, Note_on_c, 9, 64, 0
5, 32106, Note_on_c, 9, 63, 64
5, 32108, Note_on_c, 9, 64, 64
5, 32125, Note_on_c, 9, 63, 0
5, 32128, Note_on_c, 9, 64, 0
5, 32275, Note_on_c, 9, 37, 64
5, 32315, Note_on_c, 9, 37, 0
5, 32515, Note_on_c, 9, 63, 64
5, 32516, Note_on_c, 9, 62, 64
5, 32554, Note_on_c, 9, 62, 0
5, 32557, Note_on_c, 9, 63, 0
5, 32581, Note_on_c, 9, 62, 64
5, 32583, Note_on_c, 9, 63, 64
5, 32604, Note_on_c, 9, 63, 0
5, 32604, Note_on_c, 9, 62, 0
5, 32755, Note_on_c, 9, 37, 64
5, 32787, Note_on_c, 9, 37, 0
5, 32996, Note_on_c, 9, 63, 64
5, 32999, Note_on_c, 9, 64, 64
5, 33037, Note_on_c, 9, 64, 0
5, 33040, Note_on_c, 9, 63, 0
5, 33230, Note_on_c, 9, 37, 64
5, 33266, Note_on_c, 9, 37, 0
5, 33479, Note_on_c, 9, 63, 64
5, 33479, Note_on_c, 9, 62, 64
5, 33507, Note_on_c, 9, 62, 0
5, 33517, Note_on_c, 9, 63, 0
5, 33546, Note_on_c, 9, 62, 64
5, 33549, Note_on_c, 9, 63, 64
5, 33558, Note_on_c, 9, 63, 0
5, 33558, Note_on_c, 9, 62, 0
5, 33725, Note_on_c, 9, 37, 64
5, 33745, Note_on_c, 9, 37, 0
5, 33959, Note_on_c, 9, 63, 64
5, 33959, Note_on_c, 9, 62, 64
5, 33982, Note_on_c, 9, 62, 0
5, 33988, Note_on_c, 9, 63, 0
5, 34019, Note_on_c, 9, 62, 64
5, 34021, Note_on_c, 9, 63, 64
5, 34041, Note_on_c, 9, 62, 0
5, 34043, Note_on_c, 9, 63, 0
5, 34198, Note_on_c, 9, 37, 64
5, 34235, Note_on_c, 9, 37, 0
5, 34438, Note_on_c, 9, 62, 64
5, 34439, Note_on_c, 9, 63, 64
5, 34468, Note_on_c, 9, 62, 0
5, 34469, Note_on_c, 9, 63, 0
5, 34504, Note_on_c, 9, 63, 64
5, 34505, Note_on_c, 9, 62, 64
5, 34522, Note_on_c, 9, 62, 0
5, 34523, Note_on_c, 9, 63, 0
5, 34675, Note_on_c, 9, 37, 64
5, 34712, Note_on_c, 9, 37, 0
5, 34911, Note_on_c, 9, 62, 64
5, 34912, Note_on_c, 9, 63, 64
5, 34954, Note_on_c, 9, 62, 0
5, 34959, Note_on_c, 9, 63, 0
5, 35146, Note_on_c, 9, 37, 64
5, 35176, Note_on_c, 9, 37, 0
5, 35406, Note_on_c, 9, 63, 64
5, 35407, Note_on_c, 9, 62, 64
5, 35450, Note_on_c, 9, 62, 0
5, 35451, Note_on_c, 9, 63, 0
5, 35466, Note_on_c, 9, 62, 64
5, 35467, Note_on_c, 9, 63, 64
5, 35494, Note_on_c, 9, 62, 0
5, 35495, Note_on_c, 9, 63, 0
5, 35723, Note_on_c, 9, 37, 64
5, 35750, Note_on_c, 9, 37, 0
5, 35878, Note_on_c, 9, 63, 64
5, 35880, Note_on_c, 9, 62, 64
5, 35911, Note_on_c, 9, 62, 0
5, 35916, Note_on_c, 9, 63, 0
5, 35940, Note_on_c, 9, 62, 64
5, 35941, Note_on_c, 9, 63, 64
5, 35961, Note_on_c, 9, 62, 0
5, 35965, Note_on_c, 9, 63, 0
5, 36125, Note_on_c, 9, 37, 64
5, 36164, Note_on_c, 9, 37, 0
5, 36359, Note_on_c, 9, 63, 64
5, 36359, Note_on_c, 9, 62, 64
5, 36393, Note_on_c, 9, 62, 0
5, 36397, Note_on_c, 9, 63, 0
5, 36426, Note_on_c, 9, 63, 64
5, 36426, Note_on_c, 9, 62, 64
5, 36442, Note_on_c, 9, 62, 0
5, 36445, Note_on_c, 9, 63, 0
5, 36596, Note_on_c, 9, 37, 64
5, 36638, Note_on_c, 9, 37, 0
5, 36841, Note_on_c, 9, 63, 64
5, 36842, Note_on_c, 9, 62, 64
5, 36882, Note_on_c, 9, 62, 0
5, 36887, Note_on_c, 9, 63, 0
5, 36905, Note_on_c, 9, 62, 64
5, 36905, Note_on_c, 9, 63, 64
5, 36928, Note_on_c, 9, 62, 0
5, 36932, Note_on_c, 9, 63, 0
5, 37072, Note_on_c, 9, 37, 64
5, 37110, Note_on_c, 9, 37, 0
5, 37319, Note_on_c, 9, 62, 64
5, 37320, Note_on_c, 9, 63, 64
5, 37363, Note_on_c, 9, 62, 0
5, 37368, Note_on_c, 9, 63, 0
5, 37382, Note_on_c, 9, 62, 64
5, 37384, Note_on_c, 9, 63, 64
5, 37407, Note_on_c, 9, 62, 0
5, 37409, Note_on_c, 9, 63, 0
5, 37564, Note_on_c, 9, 37, 64
5, 37603, Note_on_c, 9, 37, 0
5, 37799, Note_on_c, 9, 62, 64
5, 37799, Note_on_c, 9, 63, 64
5, 37832, Note_on_c, 9, 62, 0
5, 37837, Note_on_c, 9, 63, 0
5, 37864, Note_on_c, 9, 62, 64
5, 37865, Note_on_c, 9, 63, 64
5, 37884, Note_on_c, 9, 62, 0
5, 37894, Note_on_c, 9, 63, 0
5, 38117, Note_on_c, 9, 37, 64
5, 38151, Note_on_c, 9, 37, 0
5, 38230, Note_on_c, 9, 37, 64
5, 38257, Note_on_c, 9, 37, 0
5, 38283, Note_on_c, 9, 37, 64
5, 38317, Note_on_c, 9, 37, 0
5, 38522, Note_on_c, 9, 37, 64
5, 38563, Note_on_c, 9, 37, 0
5, 38760, Note_on_c, 9, 64, 64
5, 38773, Note_on_c, 9, 64, 0
5, 38820, Note_on_c, 9, 64, 64
5, 38833, Note_on_c, 9, 64, 0
5, 39004, Note_on_c, 9, 37, 64
5, 39044, Note_on_c, 9, 37, 0
5, 39252, Note_on_c, 9, 64, 64
5, 39266, Note_on_c, 9, 64, 0
5, 39300, Note_on_c, 9, 64, 64
5, 39316, Note_on_c, 9, 64, 0
5, 39474, Note_on_c, 9, 37, 64
5, 39501, Note_on_c, 9, 37, 0
5, 39721, Note_on_c, 9, 64, 64
5, 39735, Note_on_c, 9, 64, 0
5, 39780, Note_on_c, 9, 64, 64
5, 39799, Note_on_c, 9, 64, 0
5, 39961, Note_on_c, 9, 37, 64
5, 40005, Note_on_c, 9, 37, 0
5, 40194, Note_on_c, 9, 64, 64
5, 40223, Note_on_c, 9, 64, 0
5, 40257, Note_on_c, 9, 64, 64
5, 40278, Note_on_c, 9, 64, 0
5, 40443, Note_on_c, 9, 37, 64
5, 40492, Note_on_c, 9, 37, 0
5, 40675, Note_on_c, 9, 64, 64
5, 40705, Note_on_c, 9, 64, 0
5, 40735, Note_on_c, 9, 64, 64
5, 40759, Note_on_c, 9, 64, 0
5, 40924, Note_on_c, 9, 37, 64
5, 40979, Note_on_c, 9, 37, 0
5, 41161, Note_on_c, 9, 64, 64
5, 41190, Note_on_c, 9, 64, 0
5, 41222, Note_on_c, 9, 64, 64
5, 41238, Note_on_c, 9, 64, 0
5, 41400, Note_on_c, 9, 37, 64
5, 41450, Note_on_c, 9, 37, 0
5, 41641, Note_on_c, 9, 64, 64
5, 41671, Note_on_c, 9, 64, 0
5, 41699, Note_on_c, 9, 64, 64
5, 41720, Note_on_c, 9, 64, 0
5, 41875, Note_on_c, 9, 37, 64
5, 41922, Note_on_c, 9, 37, 0
5, 42118, Note_on_c, 9, 64, 64
5, 42154, Note_on_c, 9, 64, 0
5, 42178, Note_on_c, 9, 64, 64
5, 42200, Note_on_c, 9, 64, 0
5, 42359, Note_on_c, 9, 37, 64
5, 42405, Note_on_c, 9, 37, 0
5, 42601, Note_on_c, 9, 64, 64
5, 42612, Note_on_c, 9, 64, 0
5, 42660, Note_on_c, 9, 64, 64
5, 42692, Note_on_c, 9, 64, 0
5, 42836, Note_on_c, 9, 37, 64
5, 42885, Note_on_c, 9, 37, 0
5, 42954, Note_on_c, 9, 37, 64
5, 42987, Note_on_c, 9, 37, 0
5, 43085, Note_on_c, 9, 64, 64
5, 43094, Note_on_c, 9, 64, 0
5, 43142, Note_on_c, 9, 64, 64
5, 43164, Note_on_c, 9, 64, 0
5, 43319, Note_on_c, 9, 37, 64
5, 43366, Note_on_c, 9, 37, 0
5, 43564, Note_on_c, 9, 64, 64
5, 43596, Note_on_c, 9, 64, 0
5, 43623, Note_on_c, 9, 64, 64
5, 43644, Note_on_c, 9, 64, 0
5, 43804, Note_on_c, 9, 37, 64
5, 43854, Note_on_c, 9, 37, 0
5, 44039, Note_on_c, 9, 64, 64
5, 44039, Note_on_c, 9, 62, 64
5, 44078, Note_on_c, 9, 64, 0
5, 44082, Note_on_c, 9, 62, 0
5, 44101, Note_on_c, 9, 62, 64
5, 44101, Note_on_c, 9, 64, 64
5, 44118, Note_on_c, 9, 62, 0
5, 44119, Note_on_c, 9, 64, 0
5, 44280, Note_on_c, 9, 37, 64
5, 44329, Note_on_c, 9, 37, 0
5, 44521, Note_on_c, 9, 63, 64
5, 44523, Note_on_c, 9, 64, 64
5, 44561, Note_on_c, 9, 63, 0
5, 44565, Note_on_c, 9, 64, 0
5, 44592, Note_on_c, 9, 63, 64
5, 44593, Note_on_c, 9, 64, 64
5, 44619, Note_on_c, 9, 63, 0
5, 44622, Note_on_c, 9, 64, 0
5, 44752, Note_on_c, 9, 37, 64
5, 44817, Note_on_c, 9, 37, 0
5, 45001, Note_on_c, 9, 63, 64
5, 45004, Note_on_c, 9, 64, 64
5, 45045, Note_on_c, 9, 63, 0
5, 45052, Note_on_c, 9, 64, 0
5, 45068, Note_on_c, 9, 63, 64
5, 45069, Note_on_c, 9, 64, 64
5, 45086, Note_on_c, 9, 63, 0
5, 45088, Note_on_c, 9, 64, 0
5, 45236, Note_on_c, 9, 37, 64
5, 45301, Note_on_c, 9, 37, 0
5, 45485, Note_on_c, 9, 64, 64
5, 45498, Note_on_c, 9, 64, 0
5, 45546, Note_on_c, 9, 64, 64
5, 45577, Note_on_c, 9, 64, 0
5, 45712, Note_on_c, 9, 37, 64
5, 45774, Note_on_c, 9, 37, 0
5, 45959, Note_on_c, 9, 64, 64
5, 45969, Note_on_c, 9, 64, 0
5, 46025, Note_on_c, 9, 64, 64
5, 46026, Note_on_c, 9, 65, 64
5, 46034, Note_on_c, 9, 65, 0
5, 46037, Note_on_c, 9, 64, 0
5, 46195, Note_on_c, 9, 37, 64
5, 46231, Note_on_c, 9, 37, 0
5, 46438, Note_on_c, 9, 64, 64
5, 46463, Note_on_c, 9, 64, 0
5, 46496, Note_on_c, 9, 64, 64
5, 46516, Note_on_c, 9, 64, 0
5, 46574, Note_on_c, 9, 37, 64
5, 46625, Note_on_c, 9, 37, 0
5, 47163, Note_on_c, 9, 37, 64
5, 47207, Note_on_c, 9, 37, 0
5, 47399, Note_on_c, 9, 64, 64
5, 47445, Note_on_c, 9, 64, 0
5, 47463, Note_on_c, 9, 64, 64
5, 47481, Note_on_c, 9, 64, 0
5, 47636, Note_on_c, 9, 37, 64
5, 47684, Note_on_c, 9, 37, 0
5, 47882, Note_on_c, 9, 64, 64
5, 47934, Note_on_c, 9, 64, 0
5, 47949, Note_on_c, 9, 64, 64
5, 47970, Note_on_c, 9, 64, 0
5, 48116, Note_on_c, 9, 37, 64
5, 48168, Note_on_c, 9, 37, 0
5, 48360, Note_on_c, 9, 64, 64
5, 48405, Note_on_c, 9, 64, 0
5, 48425, Note_on_c, 9, 64, 64
5, 48448, Note_on_c, 9, 64, 0
5, 48600, Note_on_c, 9, 37, 64
5, 48660, Note_on_c, 9, 37, 0
5, 48841, Note_on_c, 9, 63, 64
5, 48844, Note_on_c, 9, 64, 64
5, 48865, Note_on_c, 9, 63, 0
5, 48878, Note_on_c, 9, 64, 0
5, 48908, Note_on_c, 9, 63, 64
5, 48909, Note_on_c, 9, 64, 64
5, 48928, Note_on_c, 9, 63, 0
5, 48938, Note_on_c, 9, 64, 0
5, 49077, Note_on_c, 9, 37, 64
5, 49128, Note_on_c, 9, 37, 0
5, 49317, Note_on_c, 9, 63, 64
5, 49320, Note_on_c, 9, 64, 64
5, 49354, Note_on_c, 9, 63, 0
5, 49364, Note_on_c, 9, 64, 0
5, 49392, Note_on_c, 9, 63, 64
5, 49393, Note_on_c, 9, 64, 64
5, 49426, Note_on_c, 9, 63, 0
5, 49433, Note_on_c, 9, 64, 0
5, 49558, Note_on_c, 9, 37, 64
5, 49618, Note_on_c, 9, 37, 0
5, 49677, Note_on_c, 9, 37, 64
5, 49723, Note_on_c, 9, 37, 0
5, 49809, Note_on_c, 9, 63, 64
5, 49811, Note_on_c, 9, 64, 64
5, 49852, Note_on_c, 9, 63, 0
5, 49855, Note_on_c, 9, 64, 0
5, 49871, Note_on_c, 9, 63, 64
5, 49873, Note_on_c, 9, 64, 64
5, 49911, Note_on_c, 9, 64, 0
5, 49912, Note_on_c, 9, 63, 0
5, 50039, Note_on_c, 9, 37, 64
5, 50085, Note_on_c, 9, 37, 0
5, 50277, Note_on_c, 9, 63, 64
5, 50279, Note_on_c, 9, 64, 64
5, 50310, Note_on_c, 9, 64, 0
5, 50311, Note_on_c, 9, 63, 0
5, 50345, Note_on_c, 9, 63, 64
5, 50348, Note_on_c, 9, 64, 64
5, 50366, Note_on_c, 9, 64, 0
5, 50370, Note_on_c, 9, 63, 0
5, 50510, Note_on_c, 9, 37, 64
5, 50559, Note_on_c, 9, 37, 0
5, 50761, Note_on_c, 9, 64, 64
5, 50808, Note_on_c, 9, 64, 0
5, 50827, Note_on_c, 9, 64, 64
5, 50849, Note_on_c, 9, 64, 0
5, 51003, Note_on_c, 9, 37, 64
5, 51058, Note_on_c, 9, 37, 0
5, 51239, Note_on_c, 9, 63, 64
5, 51241, Note_on_c, 9, 62, 64
5, 51283, Note_on_c, 9, 62, 0
5, 51285, Note_on_c, 9, 63, 0
5, 51302, Note_on_c, 9, 63, 64
5, 51303, Note_on_c, 9, 62, 64
5, 51318, Note_on_c, 9, 62, 0
5, 51323, Note_on_c, 9, 63, 0
5, 51475, Note_on_c, 9, 37, 64
5, 51532, Note_on_c, 9, 37, 0
5, 51721, Note_on_c, 9, 63, 64
5, 51724, Note_on_c, 9, 62, 64
5, 51766, Note_on_c, 9, 62, 0
5, 51771, Note_on_c, 9, 63, 0
5, 51791, Note_on_c, 9, 63, 64
5, 51792, Note_on_c, 9, 62, 64
5, 51812, Note_on_c, 9, 62, 0
5, 51822, Note_on_c, 9, 63, 0
5, 51959, Note_on_c, 9, 37, 64
5, 52015, Note_on_c, 9, 37, 0
5, 52200, Note_on_c, 9, 63, 64
5, 52202, Note_on_c, 9, 62, 64
5, 52218, Note_on_c, 9, 62, 0
5, 52234, Note_on_c, 9, 63, 0
5, 52272, Note_on_c, 9, 62, 64
5, 52277, Note_on_c, 9, 63, 64
5, 52312, Note_on_c, 9, 62, 0
5, 52313, Note_on_c, 9, 63, 0
5, 52436, Note_on_c, 9, 37, 64
5, 52498, Note_on_c, 9, 37, 0
5, 52676, Note_on_c, 9, 62, 64
5, 52677, Note_on_c, 9, 63, 64
5, 52705, Note_on_c, 9, 62, 0
5, 52721, Note_on_c, 9, 63, 0
5, 52754, Note_on_c, 9, 60, 64
5, 52754, Note_on_c, 9, 63, 64
5, 52755, Note_on_c, 9, 62, 64
5, 52781, Note_on_c, 9, 60, 0
5, 52785, Note_on_c, 9, 62, 0
5, 52798, Note_on_c, 9, 63, 0
5, 52919, Note_on_c, 9, 37, 64
5, 52979, Note_on_c, 9, 37, 0
5, 53159, Note_on_c, 9, 62, 64
5, 53160, Note_on_c, 9, 63, 64
5, 53210, Note_on_c, 9, 62, 0
5, 53211, Note_on_c, 9, 63, 0
5, 53232, Note_on_c, 9, 62, 64
5, 53232, Note_on_c, 9, 63, 64
5, 53277, Note_on_c, 9, 62, 0
5, 53280, Note_on_c, 9, 63, 0
5, 53475, Note_on_c, 9, 37, 64
5, 53517, Note_on_c, 9, 37, 0
5, 53884, Note_on_c, 9, 44, 64
5, 53923, Note_on_c, 9, 44, 0
5, 54121, Note_on_c, 9, 44, 64
5, 54196, Note_on_c, 9, 44, 0
5, 54359, Note_on_c, 9, 44, 64
5, 54429, Note_on_c, 9, 44, 0
5, 54598, Note_on_c, 9, 44, 64
5, 54658, Note_on_c, 9, 44, 0
5, 54843, Note_on_c, 9, 44, 64
5, 54877, Note_on_c, 9, 44, 0
5, 55077, Note_on_c, 9, 44, 64
5, 55142, Note_on_c, 9, 44, 0
5, 55319, Note_on_c, 9, 44, 64
5, 55351, Note_on_c, 9, 44, 0
5, 55559, Note_on_c, 9, 46, 64
5, 55591, Note_on_c, 9, 46, 0
5, 55798, Note_on_c, 9, 44, 64
5, 55831, Note_on_c, 9, 44, 0
5, 56033, Note_on_c, 9, 44, 64
5, 56068, Note_on_c, 9, 44, 0
5, 56285, Note_on_c, 9, 44, 64
5, 56322, Note_on_c, 9, 44, 0
5, 56523, Note_on_c, 9, 44, 64
5, 56571, Note_on_c, 9, 44, 0
5, 56762, Note_on_c, 9, 44, 64
5, 56796, Note_on_c, 9, 44, 0
5, 56997, Note_on_c, 9, 44, 64
5, 57033, Note_on_c, 9, 44, 0
5, 57237, Note_on_c, 9, 44, 64
5, 57269, Note_on_c, 9, 44, 0
5, 57476, Note_on_c, 9, 46, 64
5, 57503, Note_on_c, 9, 46, 0
5, 57718, Note_on_c, 9, 44, 64
5, 57751, Note_on_c, 9, 44, 0
5, 57960, Note_on_c, 9, 44, 64
5, 57999, Note_on_c, 9, 44, 0
5, 58201, Note_on_c, 9, 44, 64
5, 58233, Note_on_c, 9, 44, 0
5, 58440, Note_on_c, 9, 44, 64
5, 58499, Note_on_c, 9, 44, 0
5, 58677, Note_on_c, 9, 44, 64
5, 58716, Note_on_c, 9, 44, 0
5, 58921, Note_on_c, 9, 44, 64
5, 58956, Note_on_c, 9, 44, 0
5, 59163, Note_on_c, 9, 44, 64
5, 59196, Note_on_c, 9, 44, 0
5, 59397, Note_on_c, 9, 44, 64
5, 59455, Note_on_c, 9, 44, 0
5, 59642, Note_on_c, 9, 44, 64
5, 59705, Note_on_c, 9, 44, 0
5, 59881, Note_on_c, 9, 44, 64
5, 59922, Note_on_c, 9, 44, 0
5, 60119, Note_on_c, 9, 44, 64
5, 60151, Note_on_c, 9, 44, 0
5, 60353, Note_on_c, 9, 46, 64
5, 60378, Note_on_c, 9, 46, 0
5, 60600, Note_on_c, 9, 44, 64
5, 60635, Note_on_c, 9, 44, 0
5, 60835, Note_on_c, 9, 44, 64
5, 60872, Note_on_c, 9, 44, 0
5, 61079, Note_on_c, 9, 44, 64
5, 61116, Note_on_c, 9, 44, 0
5, 61317, Note_on_c, 9, 44, 64
5, 61358, Note_on_c, 9, 44, 0
5, 61557, Note_on_c, 9, 37, 64
5, 61602, Note_on_c, 9, 37, 0
5, 61801, Note_on_c, 9, 63, 64
5, 61801, Note_on_c, 9, 62, 64
5, 61831, Note_on_c, 9, 62, 0
5, 61842, Note_on_c, 9, 63, 0
5, 61865, Note_on_c, 9, 63, 64
5, 61865, Note_on_c, 9, 62, 64
5, 61885, Note_on_c, 9, 62, 0
5, 61887, Note_on_c, 9, 63, 0
5, 62038, Note_on_c, 9, 37, 64
5, 62072, Note_on_c, 9, 37, 0
5, 62286, Note_on_c, 9, 63, 64
5, 62287, Note_on_c, 9, 62, 64
5, 62297, Note_on_c, 9, 62, 0
5, 62303, Note_on_c, 9, 63, 0
5, 62350, Note_on_c, 9, 63, 64
5, 62351, Note_on_c, 9, 62, 64
5, 62368, Note_on_c, 9, 62, 0
5, 62370, Note_on_c, 9, 63, 0
5, 62520, Note_on_c, 9, 37, 64
5, 62556, Note_on_c, 9, 37, 0
5, 62760, Note_on_c, 9, 63, 64
5, 62760, Note_on_c, 9, 64, 64
5, 62795, Note_on_c, 9, 63, 0
5, 62802, Note_on_c, 9, 64, 0
5, 62826, Note_on_c, 9, 63, 64
5, 62828, Note_on_c, 9, 64, 64
5, 62845, Note_on_c, 9, 63, 0
5, 62848, Note_on_c, 9, 64, 0
5, 62995, Note_on_c, 9, 37, 64
5, 63035, Note_on_c, 9, 37, 0
5, 63235, Note_on_c, 9, 63, 64
5, 63236, Note_on_c, 9, 62, 64
5, 63274, Note_on_c, 9, 62, 0
5, 63277, Note_on_c, 9, 63, 0
5, 63301, Note_on_c, 9, 62, 64
5, 63303, Note_on_c, 9, 63, 64
5, 63324, Note_on_c, 9, 63, 0
5, 63324, Note_on_c, 9, 62, 0
5, 63475, Note_on_c, 9, 37, 64
5, 63507, Note_on_c, 9, 37, 0
5, 63716, Note_on_c, 9, 63, 64
5, 63719, Note_on_c, 9, 64, 64
5, 63757, Note_on_c, 9, 64, 0
5, 63760, Note_on_c, 9, 63, 0
5, 63950, Note_on_c, 9, 37, 64
5, 63986, Note_on_c, 9, 37, 0
5, 64199, Note_on_c, 9, 63, 64
5, 64199, Note_on_c, 9, 62, 64
5, 64227, Note_on_c, 9, 62, 0
5, 64237, Note_on_c, 9, 63, 0
5, 64266, Note_on_c, 9, 62, 64
5, 64269, Note_on_c, 9, 63, 64
5, 64278, Note_on_c, 9, 63, 0
5, 64278, Note_on_c, 9, 62, 0
5, 64445, Note_on_c, 9, 37, 64
5, 64465, Note_on_c, 9, 37, 0
5, 64679, Note_on_c, 9, 63, 64
5, 64679, Note_on_c, 9, 62, 64
5, 64702, Note_on_c, 9, 62, 0
5, 64708, Note_on_c, 9, 63, 0
5, 64739, Note_on_c, 9, 62, 64
5, 64741, Note_on_c, 9, 63, 64
5, 64761, Note_on_c, 9, 62, 0
5, 64763, Note_on_c, 9, 63, 0
5, 64918, Note_on_c, 9, 37, 64
5, 64955, Note_on_c, 9, 37, 0
5, 65158, Note_on_c, 9, 62, 64
5, 65159, Note_on_c, 9, 63, 64
5, 65188, Note_on_c, 9, 62, 0
5, 65189, Note_on_c, 9, 63, 0
5, 65224, Note_on_c, 9, 63, 64
5, 65225, Note_on_c, 9, 62, 64
5, 65242, Note_on_c, 9, 62, 0
5, 65243, Note_on_c, 9, 63, 0
5, 65395, Note_on_c, 9, 37, 64
5, 65432, Note_on_c, 9, 37, 0
5, 65631, Note_on_c, 9, 62, 64
5, 65632, Note_on_c, 9, 63, 64
5, 65674, Note_on_c, 9, 62, 0
5, 65679, Note_on_c, 9, 63, 0
5, 65866, Note_on_c, 9, 37, 64
5, 65896, Note_on_c, 9, 37, 0
5, 66126, Note_on_c, 9, 63, 64
5, 66127, Note_on_c, 9, 62, 64
5, 66170, Note_on_c, 9, 62, 0
5, 66171, Note_on_c, 9, 63, 0
5, 66186, Note_on_c, 9, 62, 64
5, 66187, Note_on_c, 9, 63, 64
5, 66214, Note_on_c, 9, 62, 0
5, 66215, Note_on_c, 9, 63, 0
5, 66443, Note_on_c, 9, 37, 64
5, 66470, Note_on_c, 9, 37, 0
5, 66598, Note_on_c, 9, 63, 64
5, 66600, Note_on_c, 9, 62, 64
5, 66631, Note_on_c, 9, 62, 0
5, 66636, Note_on_c, 9, 63, 0
5, 66660, Note_on_c, 9, 62, 64
5, 66661, Note_on_c, 9, 63, 64
5, 66681, Note_on_c, 9, 62, 0
5, 66685, Note_on_c, 9, 63, 0
5, 66845, Note_on_c, 9, 37, 64
5, 66884, Note_on_c, 9, 37, 0
5, 67079, Note_on_c, 9, 63, 64
5, 67079, Note_on_c, 9, 62, 64
5, 67113, Note_on_c, 9, 62, 0
5, 67117, Note_on_c, 9, 63, 0
5, 67146, Note_on_c, 9, 63, 64
5, 67146, Note_on_c, 9, 62, 64
5, 67162, Note_on_c, 9, 62, 0
5, 67165, Note_on_c, 9, 63, 0
5, 67316, Note_on_c, 9, 37, 64
5, 67358, Note_on_c, 9, 37, 0
5, 67561, Note_on_c, 9, 63, 64
5, 67562, Note_on_c, 9, 62, 64
5, 67602, Note_on_c, 9, 62, 0
5, 67607, Note_on_c, 9, 63, 0
5, 67625, Note_on_c, 9, 62, 64
5, 67625, Note_on_c, 9, 63, 64
5, 67648, Note_on_c, 9, 62, 0
5, 67652, Note_on_c, 9, 63, 0
5, 67792, Note_on_c, 9, 37, 64
5, 67830, Note_on_c, 9, 37, 0
5, 68039, Note_on_c, 9, 62, 64
5, 68040, Note_on_c, 9, 63, 64
5, 68083, Note_on_c, 9, 62, 0
5, 68088, Note_on_c, 9, 63, 0
5, 68102, Note_on_c, 9, 62, 64
5, 68104, Note_on_c, 9, 63, 64
5, 68127, Note_on_c, 9, 62, 0
5, 68129, Note_on_c, 9, 63, 0
5, 68284, Note_on_c, 9, 37, 64
5, 68323, Note_on_c, 9, 37, 0
5, 68519, Note_on_c, 9, 62, 64
5, 68519, Note_on_c, 9, 63, 64
5, 68552, Note_on_c, 9, 62, 0
5, 68557, Note_on_c, 9, 63, 0
5, 68584, Note_on_c, 9, 62, 64
5, 68585, Note_on_c, 9, 63, 64
5, 68604, Note_on_c, 9, 62, 0
5, 68614, Note_on_c, 9, 63, 0
5, 68837, Note_on_c, 9, 37, 64
5, 68871, Note_on_c, 9, 37, 0
5, 68950, Note_on_c, 9, 37, 64
5, 68977, Note_on_c, 9, 37, 0
5, 69003, Note_on_c, 9, 37, 64
5, 69037, Note_on_c, 9, 37, 0
5, 69240, Note_on_c, 9, 44, 64
5, 69282, Note_on_c, 9, 44, 0
5, 69949, Note_on_c, 9, 44, 64
5, 69996, Note_on_c, 9, 44, 0
5, 70428, Note_on_c, 9, 44, 64
5, 70484, Note_on_c, 9, 44, 0
5, 70545, Note_on_c, 9, 44, 64
5, 70609, Note_on_c, 9, 44, 0
5, 71146, Note_on_c, 9, 44, 64
5, 71197, Note_on_c, 9, 44, 0
5, 71638, Note_on_c, 9, 44, 64
5, 71703, Note_on_c, 9, 44, 0
5, 72360, Note_on_c, 9, 44, 64
5, 72401, Note_on_c, 9, 44, 0
5, 72595, Note_on_c, 9, 44, 64
5, 72649, Note_on_c, 9, 44, 0
5, 73068, Note_on_c, 9, 44, 64
5, 73127, Note_on_c, 9, 44, 0
5, 73317, Note_on_c, 9, 44, 64
5, 73378, Note_on_c, 9, 44, 0
5, 73788, Note_on_c, 9, 44, 64
5, 73845, Note_on_c, 9, 44, 0
5, 74027, Note_on_c, 9, 44, 64
5, 74086, Note_on_c, 9, 44, 0
5, 74513, Note_on_c, 9, 44, 64
5, 74560, Note_on_c, 9, 44, 0
5, 74755, Note_on_c, 9, 44, 64
5, 74800, Note_on_c, 9, 44, 0
5, 74998, Note_on_c, 9, 44, 64
5, 75038, Note_on_c, 9, 44, 0
5, 75121, Note_on_c, 9, 44, 64
5, 75168, Note_on_c, 9, 44, 0
5, 75357, Note_on_c, 9, 44, 64
5, 75425, Note_on_c, 9, 44, 0
5, 75475, Note_on_c, 9, 44, 64
5, 75538, Note_on_c, 9, 44, 0
5, 75726, Note_on_c, 9, 44, 64
5, 75789, Note_on_c, 9, 44, 0
5, 75949, Note_on_c, 9, 44, 64
5, 76006, Note_on_c, 9, 44, 0
5, 76068, Note_on_c, 9, 44, 64
5, 76132, Note_on_c, 9, 44, 0
5, 76308, Note_on_c, 9, 44, 64
5, 76367, Note_on_c, 9, 44, 0
5, 76429, Note_on_c, 9, 44, 64
5, 76478, Note_on_c, 9, 44, 0
5, 76674, Note_on_c, 9, 44, 64
5, 76727, Note_on_c, 9, 44, 0
5, 76794, Note_on_c, 9, 44, 64
5, 76845, Note_on_c, 9, 44, 0
5, 77033, Note_on_c, 9, 44, 64
5, 77093, Note_on_c, 9, 44, 0
5, 77156, Note_on_c, 9, 44, 64
5, 77221, Note_on_c, 9, 44, 0
5, 77399, Note_on_c, 9, 44, 64
5, 77438, Note_on_c, 9, 44, 0
5, 77632, Note_on_c, 9, 44, 64
5, 77662, Note_on_c, 9, 44, 0
5, 77874, Note_on_c, 9, 44, 64
5, 77921, Note_on_c, 9, 44, 0
5, 78117, Note_on_c, 9, 44, 64
5, 78156, Note_on_c, 9, 44, 0
5, 78353, Note_on_c, 9, 44, 64
5, 78416, Note_on_c, 9, 44, 0
5, 78841, Note_on_c, 9, 44, 64
5, 78871, Note_on_c, 9, 44, 0
5, 79079, Note_on_c, 9, 44, 64
5, 79121, Note_on_c, 9, 44, 0
5, 79560, Note_on_c, 9, 44, 64
5, 79605, Note_on_c, 9, 44, 0
5, 79798, Note_on_c, 9, 44, 64
5, 79844, Note_on_c, 9, 44, 0
5, 80035, Note_on_c, 9, 44, 64
5, 80078, Note_on_c, 9, 44, 0
5, 80517, Note_on_c, 9, 44, 64
5, 80556, Note_on_c, 9, 44, 0
5, 80758, Note_on_c, 9, 44, 64
5, 80792, Note_on_c, 9, 44, 0
5, 81006, Note_on_c, 9, 44, 64
5, 81045, Note_on_c, 9, 44, 0
5, 81247, Note_on_c, 9, 44, 64
5, 81286, Note_on_c, 9, 44, 0
5, 81483, Note_on_c, 9, 44, 64
5, 81519, Note_on_c, 9, 44, 0
5, 81726, Note_on_c, 9, 44, 64
5, 81756, Note_on_c, 9, 44, 0
5, 81962, Note_on_c, 9, 44, 64
5, 81991, Note_on_c, 9, 44, 0
5, 82191, Note_on_c, 9, 44, 64
5, 82221, Note_on_c, 9, 44, 0
5, 82674, Note_on_c, 9, 44, 64
5, 82699, Note_on_c, 9, 44, 0
5, 82912, Note_on_c, 9, 44, 64
5, 82943, Note_on_c, 9, 44, 0
5, 83158, Note_on_c, 9, 44, 64
5, 83187, Note_on_c, 9, 44, 0
5, 83389, Note_on_c, 9, 44, 64
5, 83417, Note_on_c, 9, 44, 0
5, 83631, Note_on_c, 9, 44, 64
5, 83663, Note_on_c, 9, 44, 0
5, 83875, Note_on_c, 9, 44, 64
5, 83907, Note_on_c, 9, 44, 0
5, 84111, Note_on_c, 9, 44, 64
5, 84134, Note_on_c, 9, 44, 0
5, 84354, Note_on_c, 9, 44, 64
5, 84382, Note_on_c, 9, 44, 0
5, 84469, Note_on_c, 9, 44, 64
5, 84513, Note_on_c, 9, 44, 0
5, 84594, Note_on_c, 9, 44, 64
5, 84793, Note_on_c, 9, 44, 0
5, 84828, Note_on_c, 9, 44, 64
5, 84902, Note_on_c, 9, 44, 0
5, 85077, Note_on_c, 9, 44, 64
5, 85125, Note_on_c, 9, 44, 0
5, 85308, Note_on_c, 9, 44, 64
5, 85486, Note_on_c, 9, 44, 0
5, 85554, Note_on_c, 9, 44, 64
5, 85601, Note_on_c, 9, 44, 0
5, 85801, Note_on_c, 9, 44, 64
5, 85847, Note_on_c, 9, 44, 0
5, 86038, Note_on_c, 9, 44, 64
5, 86075, Note_on_c, 9, 44, 0
5, 86270, Note_on_c, 9, 44, 64
5, 86312, Note_on_c, 9, 44, 0
5, 86508, Note_on_c, 9, 44, 64
5, 86551, Note_on_c, 9, 44, 0
5, 86756, Note_on_c, 9, 44, 64
5, 86789, Note_on_c, 9, 44, 0
5, 86994, Note_on_c, 9, 44, 64
5, 87027, Note_on_c, 9, 44, 0
5, 87235, Note_on_c, 9, 44, 64
5, 87264, Note_on_c, 9, 44, 0
5, 87475, Note_on_c, 9, 44, 64
5, 87510, Note_on_c, 9, 44, 0
5, 87716, Note_on_c, 9, 44, 64
5, 87751, Note_on_c, 9, 44, 0
5, 87950, Note_on_c, 9, 44, 64
5, 87978, Note_on_c, 9, 44, 0
5, 88195, Note_on_c, 9, 44, 64
5, 88223, Note_on_c, 9, 44, 0
5, 88434, Note_on_c, 9, 44, 64
5, 88462, Note_on_c, 9, 44, 0
5, 88678, Note_on_c, 9, 44, 64
5, 88711, Note_on_c, 9, 44, 0
5, 88920, Note_on_c, 9, 44, 64
5, 88944, Note_on_c, 9, 44, 0
5, 89161, Note_on_c, 9, 44, 64
5, 89187, Note_on_c, 9, 44, 0
5, 89401, Note_on_c, 9, 44, 64
5, 89427, Note_on_c, 9, 44, 0
5, 89637, Note_on_c, 9, 44, 64
5, 89664, Note_on_c, 9, 44, 0
5, 89875, Note_on_c, 9, 44, 64
5, 89897, Note_on_c, 9, 44, 0
5, 90112, Note_on_c, 9, 44, 64
5, 90137, Note_on_c, 9, 44, 0
5, 90352, Note_on_c, 9, 44, 64
5, 90376, Note_on_c, 9, 44, 0
5, 90598, Note_on_c, 9, 44, 64
5, 90619, Note_on_c, 9, 44, 0
5, 90838, Note_on_c, 9, 44, 64
5, 90865, Note_on_c, 9, 44, 0
5, 91072, Note_on_c, 9, 44, 64
5, 91095, Note_on_c, 9, 44, 0
5, 91310, Note_on_c, 9, 44, 64
5, 91339, Note_on_c, 9, 44, 0
5, 91557, Note_on_c, 9, 44, 64
5, 91579, Note_on_c, 9, 44, 0
5, 91797, Note_on_c, 9, 44, 64
5, 91815, Note_on_c, 9, 44, 0
5, 92038, Note_on_c, 9, 44, 64
5, 92076, Note_on_c, 9, 44, 0
5, 92272, Note_on_c, 9, 44, 64
5, 92330, Note_on_c, 9, 44, 0
5, 92990, Note_on_c, 9, 44, 64
5, 93024, Note_on_c, 9, 44, 0
5, 93960, Note_on_c, 9, 44, 64
5, 93990, Note_on_c, 9, 44, 0
5, 94440, Note_on_c, 9, 44, 64
5, 94467, Note_on_c, 9, 44, 0
5, 94920, Note_on_c, 9, 44, 64
5, 94948, Note_on_c, 9, 44, 0
5, 95160, Note_on_c, 9, 44, 64
5, 95192, Note_on_c, 9, 44, 0
5, 95635, Note_on_c, 9, 44, 64
5, 95672, Note_on_c, 9, 44, 0
5, 96108, Note_on_c, 9, 44, 64
5, 96134, Note_on_c, 9, 44, 0
5, 96594, Note_on_c, 9, 44, 64
5, 96622, Note_on_c, 9, 44, 0
5, 97080, Note_on_c, 9, 44, 64
5, 97113, Note_on_c, 9, 44, 0
5, 97323, Note_on_c, 9, 44, 64
5, 97355, Note_on_c, 9, 44, 0
5, 97561, Note_on_c, 9, 44, 64
5, 97584, Note_on_c, 9, 44, 0
5, 97797, Note_on_c, 9, 44, 64
5, 97827, Note_on_c, 9, 44, 0
5, 98036, Note_on_c, 9, 44, 64
5, 98065, Note_on_c, 9, 44, 0
5, 98277, Note_on_c, 9, 44, 64
5, 98324, Note_on_c, 9, 44, 0
5, 98519, Note_on_c, 9, 44, 64
5, 98565, Note_on_c, 9, 44, 0
5, 98763, Note_on_c, 9, 44, 64
5, 98802, Note_on_c, 9, 44, 0
5, 99015, Note_on_c, 9, 44, 64
5, 99040, Note_on_c, 9, 44, 0
5, 99472, Note_on_c, 9, 44, 64
5, 99509, Note_on_c, 9, 44, 0
5, 99962, Note_on_c, 9, 37, 64
5, 100003, Note_on_c, 9, 37, 0
5, 100200, Note_on_c, 9, 64, 64
5, 100213, Note_on_c, 9, 64, 0
5, 100260, Note_on_c, 9, 64, 64
5, 100273, Note_on_c, 9, 64, 0
5, 100444, Note_on_c, 9, 37, 64
5, 100484, Note_on_c, 9, 37, 0
5, 100692, Note_on_c, 9, 64, 64
5, 100706, Note_on_c, 9, 64, 0
5, 100740, Note_on_c, 9, 64, 64
5, 100756, Note_on_c, 9, 64, 0
5, 100914, Note_on_c, 9, 37, 64
5, 100941, Note_on_c, 9, 37, 0
5, 101161, Note_on_c, 9, 64, 64
5, 101175, Note_on_c, 9, 64, 0
5, 101220, Note_on_c, 9, 64, 64
5, 101239, Note_on_c, 9, 64, 0
5, 101401, Note_on_c, 9, 37, 64
5, 101445, Note_on_c, 9, 37, 0
5, 101634, Note_on_c, 9, 64, 64
5, 101663, Note_on_c, 9, 64, 0
5, 101697, Note_on_c, 9, 64, 64
5, 101718, Note_on_c, 9, 64, 0
5, 101883, Note_on_c, 9, 37, 64
5, 101932, Note_on_c, 9, 37, 0
5, 102115, Note_on_c, 9, 64, 64
5, 102145, Note_on_c, 9, 64, 0
5, 102175, Note_on_c, 9, 64, 64
5, 102199, Note_on_c, 9, 64, 0
5, 102364, Note_on_c, 9, 37, 64
5, 102419, Note_on_c, 9, 37, 0
5, 102601, Note_on_c, 9, 64, 64
5, 102630, Note_on_c, 9, 64, 0
5, 102662, Note_on_c, 9, 64, 64
5, 102678, Note_on_c, 9, 64, 0
5, 102840, Note_on_c, 9, 37, 64
5, 102890, Note_on_c, 9, 37, 0
5, 103081, Note_on_c, 9, 64, 64
5, 103111, Note_on_c, 9, 64, 0
5, 103139, Note_on_c, 9, 64, 64
5, 103160, Note_on_c, 9, 64, 0
5, 103315, Note_on_c, 9, 37, 64
5, 103362, Note_on_c, 9, 37, 0
5, 103558, Note_on_c, 9, 64, 64
5, 103594, Note_on_c, 9, 64, 0
5, 103618, Note_on_c, 9, 64, 64
5, 103640, Note_on_c, 9, 64, 0
5, 103799, Note_on_c, 9, 37, 64
5, 103845, Note_on_c, 9, 37, 0
5, 104041, Note_on_c, 9, 64, 64
5, 104052, Note_on_c, 9, 64, 0
5, 104100, Note_on_c, 9, 64, 64
5, 104132, Note_on_c, 9, 64, 0
5, 104276, Note_on_c, 9, 37, 64
5, 104325, Note_on_c, 9, 37, 0
5, 104394, Note_on_c, 9, 37, 64
5, 104427, Note_on_c, 9, 37, 0
5, 104525, Note_on_c, 9, 64, 64
5, 104534, Note_on_c, 9, 64, 0
5, 104582, Note_on_c, 9, 64, 64
5, 104604, Note_on_c, 9, 64, 0
5, 104759, Note_on_c, 9, 37, 64
5, 104806, Note_on_c, 9, 37, 0
5, 105004, Note_on_c, 9, 64, 64
5, 105036, Note_on_c, 9, 64, 0
5, 105063, Note_on_c, 9, 64, 64
5, 105084, Note_on_c, 9, 64, 0
5, 105244, Note_on_c, 9, 37, 64
5, 105294, Note_on_c, 9, 37, 0
5, 105479, Note_on_c, 9, 64, 64
5, 105479, Note_on_c, 9, 62, 64
5, 105518, Note_on_c, 9, 64, 0
5, 105522, Note_on_c, 9, 62, 0
5, 105541, Note_on_c, 9, 62, 64
5, 105541, Note_on_c, 9, 64, 64
5, 105558, Note_on_c, 9, 62, 0
5, 105559, Note_on_c, 9, 64, 0
5, 105720, Note_on_c, 9, 37, 64
5, 105769, Note_on_c, 9, 37, 0
5, 105961, Note_on_c, 9, 63, 64
5, 105963, Note_on_c, 9, 64, 64
5, 106001, Note_on_c, 9, 63, 0
5, 106005, Note_on_c, 9, 64, 0
5, 106032, Note_on_c, 9, 63, 64
5, 106033, Note_on_c, 9, 64, 64
5, 106059, Note_on_c, 9, 63, 0
5, 106062, Note_on_c, 9, 64, 0
5, 106192, Note_on_c, 9, 37, 64
5, 106257, Note_on_c, 9, 37, 0
5, 106441, Note_on_c, 9, 63, 64
5, 106444, Note_on_c, 9, 64, 64
5, 106485, Note_on_c, 9, 63, 0
5, 106492, Note_on_c, 9, 64, 0
5, 106508, Note_on_c, 9, 63, 64
5, 106509, Note_on_c, 9, 64, 64
5, 106526, Note_on_c, 9, 63, 0
5, 106528, Note_on_c, 9, 64, 0
5, 106676, Note_on_c, 9, 37, 64
5, 106741, Note_on_c, 9, 37, 0
5, 106925, Note_on_c, 9, 64, 64
5, 106938, Note_on_c, 9, 64, 0
5, 106986, Note_on_c, 9, 64, 64
5, 107017, Note_on_c, 9, 64, 0
5, 107152, Note_on_c, 9, 37, 64
5, 107214, Note_on_c, 9, 37, 0
5, 107399, Note_on_c, 9, 64, 64
5, 107409, Note_on_c, 9, 64, 0
5, 107465, Note_on_c, 9, 64, 64
5, 107466, Note_on_c, 9, 65, 64
5, 107474, Note_on_c, 9, 65, 0
5, 107477, Note_on_c, 9, 64, 0
5, 107635, Note_on_c, 9, 37, 64
5, 107671, Note_on_c, 9, 37, 0
5, 107878, Note_on_c, 9, 64, 64
5, 107903, Note_on_c, 9, 64, 0
5, 107936, Note_on_c, 9, 64, 64
5, 107956, Note_on_c, 9, 64, 0
5, 108014, Note_on_c, 9, 37, 64
5, 108065, Note_on_c, 9, 37, 0
5, 108603, Note_on_c, 9, 37, 64
5, 108647, Note_on_c, 9, 37, 0
5, 108839, Note_on_c, 9, 64, 64
5, 108885, Note_on_c, 9, 64, 0
5, 108903, Note_on_c, 9, 64, 64
5, 108921, Note_on_c, 9, 64, 0
5, 109076, Note_on_c, 9, 37, 64
5, 109124, Note_on_c, 9, 37, 0
5, 109322, Note_on_c, 9, 64, 64
5, 109374, Note_on_c, 9, 64, 0
5, 109389, Note_on_c, 9, 64, 64
5, 109410, Note_on_c, 9, 64, 0
5, 109556, Note_on_c, 9, 37, 64
5, 109608, Note_on_c, 9, 37, 0
5, 109800, Note_on_c, 9, 64, 64
5, 109845, Note_on_c, 9, 64, 0
5, 109865, Note_on_c, 9, 64, 64
5, 109888, Note_on_c, 9, 64, 0
5, 110040, Note_on_c, 9, 37, 64
5, 110100, Note_on_c, 9, 37, 0
5, 110281, Note_on_c, 9, 63, 64
5, 110284, Note_on_c, 9, 64, 64
5, 110305, Note_on_c, 9, 63, 0
5, 110318, Note_on_c, 9, 64, 0
5, 110348, Note_on_c, 9, 63, 64
5, 110349, Note_on_c, 9, 64, 64
5, 110368, Note_on_c, 9, 63, 0
5, 110378, Note_on_c, 9, 64, 0
5, 110517, Note_on_c, 9, 37, 64
5, 110568, Note_on_c, 9, 37, 0
5, 110757, Note_on_c, 9, 63, 64
5, 110760, Note_on_c, 9, 64, 64
5, 110794, Note_on_c, 9, 63, 0
5, 110804, Note_on_c, 9, 64, 0
5, 110832, Note_on_c, 9, 63, 64
5, 110833, Note_on_c, 9, 64, 64
5, 110866, Note_on_c, 9, 63, 0
5, 110873, Note_on_c, 9, 64, 0
5, 110998, Note_on_c, 9, 37, 64
5, 111058, Note_on_c, 9, 37, 0
5, 111117, Note_on_c, 9, 37, 64
5, 111163, Note_on_c, 9, 37, 0
5, 111249, Note_on_c, 9, 63, 64
5, 111251, Note_on_c, 9, 64, 64
5, 111292, Note_on_c, 9, 63, 0
5, 111295, Note_on_c, 9, 64, 0
5, 111311, Note_on_c, 9, 63, 64
5, 111313, Note_on_c, 9, 64, 64
5, 111351, Note_on_c, 9, 64, 0
5, 111352, Note_on_c, 9, 63, 0
5, 111479, Note_on_c, 9, 37, 64
5, 111525, Note_on_c, 9, 37, 0
5, 111717, Note_on_c, 9, 63, 64
5, 111719, Note_on_c, 9, 64, 64
5, 111750, Note_on_c, 9, 64, 0
5, 111751, Note_on_c, 9, 63, 0
5, 111785, Note_on_c, 9, 63, 64
5, 111788, Note_on_c, 9, 64, 64
5, 111806, Note_on_c, 9, 64, 0
5, 111810, Note_on_c, 9, 63, 0
5, 111950, Note_on_c, 9, 37, 64
5, 111999, Note_on_c, 9, 37, 0
5, 112201, Note_on_c, 9, 64, 64
5, 112248, Note_on_c, 9, 64, 0
5, 112267, Note_on_c, 9, 64, 64
5, 112289, Note_on_c, 9, 64, 0
5, 112443, Note_on_c, 9, 37, 64
5, 112498, Note_on_c, 9, 37, 0
5, 112679, Note_on_c, 9, 63, 64
5, 112681, Note_on_c, 9, 62, 64
5, 112723, Note_on_c, 9, 62, 0
5, 112725, Note_on_c, 9, 63, 0
5, 112742, Note_on_c, 9, 63, 64
5, 112743, Note_on_c, 9, 62, 64
5, 112758, Note_on_c, 9, 62, 0
5, 112763, Note_on_c, 9, 63, 0
5, 112915, Note_on_c, 9, 37, 64
5, 112972, Note_on_c, 9, 37, 0
5, 113161, Note_on_c, 9, 63, 64
5, 113164, Note_on_c, 9, 62, 64
5, 113206, Note_on_c, 9, 62, 0
5, 113211, Note_on_c, 9, 63, 0
5, 113231, Note_on_c, 9, 63, 64
5, 113232, Note_on_c, 9, 62, 64
5, 113252, Note_on_c, 9, 62, 0
5, 113262, Note_on_c, 9, 63, 0
5, 113399, Note_on_c, 9, 37, 64
5, 113455, Note_on_c, 9, 37, 0
5, 113640, Note_on_c, 9, 63, 64
5, 113642, Note_on_c, 9, 62, 64
5, 113658, Note_on_c, 9, 62, 0
5, 113674, Note_on_c, 9, 63, 0
5, 113712, Note_on_c, 9, 62, 64
5, 113717, Note_on_c, 9, 63, 64
5, 113752, Note_on_c, 9, 62, 0
5, 113753, Note_on_c, 9, 63, 0
5, 113876, Note_on_c, 9, 37, 64
5, 113938, Note_on_c, 9, 37, 0
5, 114116, Note_on_c, 9, 62, 64
5, 114117, Note_on_c, 9, 63, 64
5, 114145, Note_on_c, 9, 62, 0
5, 114161, Note_on_c, 9, 63, 0
5, 114194, Note_on_c, 9, 60, 64
5, 114194, Note_on_c, 9, 63, 64
5, 114195, Note_on_c, 9, 62, 64
5, 114221, Note_on_c, 9, 60, 0
5, 114225, Note_on_c, 9, 62, 0
5, 114238, Note_on_c, 9, 63, 0
5, 114359, Note_on_c, 9, 37, 64
5, 114419, Note_on_c, 9, 37, 0
5, 114599, Note_on_c, 9, 62, 64
5, 114600, Note_on_c, 9, 63, 64
5, 114650, Note_on_c, 9, 62, 0
5, 114651, Note_on_c, 9, 63, 0
5, 114672, Note_on_c, 9, 62, 64
5, 114672, Note_on_c, 9, 63, 64
5, 114717, Note_on_c, 9, 62, 0
5, 114720, Note_on_c, 9, 63, 0
5, 114915, Note_on_c, 9, 37, 64
5, 114957, Note_on_c, 9, 37, 0
5, 115324, Note_on_c, 9, 44, 64
5, 115363, Note_on_c, 9, 44, 0
5, 115561, Note_on_c, 9, 44, 64
5, 115636, Note_on_c, 9, 44, 0
5, 115799, Note_on_c, 9, 44, 64
5, 115869, Note_on_c, 9, 44, 0
5, 116038, Note_on_c, 9, 44, 64
5, 116098, Note_on_c, 9, 44, 0
5, 116283, Note_on_c, 9, 44, 64
5, 116317, Note_on_c, 9, 44, 0
5, 116517, Note_on_c, 9, 44, 64
5, 116582, Note_on_c, 9, 44, 0
5, 116759, Note_on_c, 9, 44, 64
5, 116791, Note_on_c, 9, 44, 0
5, 116999, Note_on_c, 9, 46, 64
5, 117031, Note_on_c, 9, 46, 0
5, 117238, Note_on_c, 9, 44, 64
5, 117271, Note_on_c, 9, 44, 0
5, 117473, Note_on_c, 9, 44, 64
5, 117508, Note_on_c, 9, 44, 0
5, 117725, Note_on_c, 9, 44, 64
5, 117762, Note_on_c, 9, 44, 0
5, 117963, Note_on_c, 9, 44, 64
5, 118011, Note_on_c, 9, 44, 0
5, 118202, Note_on_c, 9, 44, 64
5, 118236, Note_on_c, 9, 44, 0
5, 118437, Note_on_c, 9, 44, 64
5, 118473, Note_on_c, 9, 44, 0
5, 118677, Note_on_c, 9, 44, 64
5, 118709, Note_on_c, 9, 44, 0
5, 118916, Note_on_c, 9, 46, 64
5, 118943, Note_on_c, 9, 46, 0
5, 119158, Note_on_c, 9, 44, 64
5, 119191, Note_on_c, 9, 44, 0
5, 119400, Note_on_c, 9, 44, 64
5, 119439, Note_on_c, 9, 44, 0
5, 119641, Note_on_c, 9, 44, 64
5, 119673, Note_on_c, 9, 44, 0
5, 119880, Note_on_c, 9, 44, 64
5, 119939, Note_on_c, 9, 44, 0
5, 120117, Note_on_c, 9, 44, 64
5, 120156, Note_on_c, 9, 44, 0
5, 120361, Note_on_c, 9, 44, 64
5, 120396, Note_on_c, 9, 44, 0
5, 120603, Note_on_c, 9, 44, 64
5, 120636, Note_on_c, 9, 44, 0
5, 120837, Note_on_c, 9, 44, 64
5, 120895, Note_on_c, 9, 44, 0
5, 121082, Note_on_c, 9, 44, 64
5, 121145, Note_on_c, 9, 44, 0
5, 121321, Note_on_c, 9, 44, 64
5, 121362, Note_on_c, 9, 44, 0
5, 121559, Note_on_c, 9, 44, 64
5, 121591, Note_on_c, 9, 44, 0
5, 121793, Note_on_c, 9, 46, 64
5, 121818, Note_on_c, 9, 46, 0
5, 122040, Note_on_c, 9, 44, 64
5, 122075, Note_on_c, 9, 44, 0
5, 122275, Note_on_c, 9, 44, 64
5, 122312, Note_on_c, 9, 44, 0
5, 122519, Note_on_c, 9, 44, 64
5, 122556, Note_on_c, 9, 44, 0
5, 122757, Note_on_c, 9, 44, 64
5, 122798, Note_on_c, 9, 44, 0
5, 122997, Note_on_c, 9, 37, 64
5, 123042, Note_on_c, 9, 37, 0
5, 123241, Note_on_c, 9, 63, 64
5, 123241, Note_on_c, 9, 62, 64
5, 123271, Note_on_c, 9, 62, 0
5, 123282, Note_on_c, 9, 63, 0
5, 123305, Note_on_c, 9, 63, 64
5, 123305, Note_on_c, 9, 62, 64
5, 123325, Note_on_c, 9, 62, 0
5, 123327, Note_on_c, 9, 63, 0
5, 123478, Note_on_c, 9, 37, 64
5, 123512, Note_on_c, 9, 37, 0
5, 123726, Note_on_c, 9, 63, 64
5, 123727, Note_on_c, 9, 62, 64
5, 123737, Note_on_c, 9, 62, 0
5, 123743, Note_on_c, 9, 63, 0
5, 123790, Note_on_c, 9, 63, 64
5, 123791, Note_on_c, 9, 62, 64
5, 123808, Note_on_c, 9, 62, 0
5, 123810, Note_on_c, 9, 63, 0
5, 123960, Note_on_c, 9, 37, 64
5, 123996, Note_on_c, 9, 37, 0
5, 124200, Note_on_c, 9, 63, 64
5, 124200, Note_on_c, 9, 64, 64
5, 124235, Note_on_c, 9, 63, 0
5, 124242, Note_on_c, 9, 64, 0
5, 124266, Note_on_c, 9, 63, 64
5, 124268, Note_on_c, 9, 64, 64
5, 124285, Note_on_c, 9, 63, 0
5, 124288, Note_on_c, 9, 64, 0
5, 124435, Note_on_c, 9, 37, 64
5, 124475, Note_on_c, 9, 37, 0
5, 124675, Note_on_c, 9, 63, 64
5, 124676, Note_on_c, 9, 62, 64
5, 124714, Note_on_c, 9, 62, 0
5, 124717, Note_on_c, 9, 63, 0
5, 124741, Note_on_c, 9, 62, 64
5, 124743, Note_on_c, 9, 63, 64
5, 124764, Note_on_c, 9, 63, 0
5, 124764, Note_on_c, 9, 62, 0
5, 124915, Note_on_c, 9, 37, 64
5, 124947, Note_on_c, 9, 37, 0
5, 125156, Note_on_c, 9, 63, 64
5, 125159, Note_on_c, 9, 64, 64
5, 125197, Note_on_c, 9, 64, 0
5, 125200, Note_on_c, 9, 63, 0
5, 125390, Note_on_c, 9, 37, 64
5, 125426, Note_on_c, 9, 37, 0
5, 125639, Note_on_c, 9, 63, 64
5, 125639, Note_on_c, 9, 62, 64
5, 125667, Note_on_c, 9, 62, 0
5, 125677, Note_on_c, 9, 63, 0
5, 125706, Note_on_c, 9, 62, 64
5, 125709, Note_on_c, 9, 63, 64
5, 125718, Note_on_c, 9, 63, 0
5, 125718, Note_on_c, 9, 62, 0
5, 125885, Note_on_c, 9, 37, 64
5, 125905, Note_on_c, 9, 37, 0
5, 126119, Note_on_c, 9, 63, 64
5, 126119, Note_on_c, 9, 62, 64
5, 126142, Note_on_c, 9, 62, 0
5, 126148, Note_on_c, 9, 63, 0
5, 126179, Note_on_c, 9, 62, 64
5, 126181, Note_on_c, 9, 63, 64
5, 126201, Note_on_c, 9, 62, 0
5, 126203, Note_on_c, 9, 63, 0
5, 126358, Note_on_c, 9, 37, 64
5, 126395, Note_on_c, 9, 37, 0
5, 126598, Note_on_c, 9, 62, 64
5, 126599, Note_on_c, 9, 63, 64
5, 126628, Note_on_c, 9, 62, 0
5, 126629, Note_on_c, 9, 63, 0
5, 126664, Note_on_c, 9, 63, 64
5, 126665, Note_on_c, 9, 62, 64
5, 126682, Note_on_c, 9, 62, 0
5, 126683, Note_on_c, 9, 63, 0
5, 126835, Note_on_c, 9, 37, 64
5, 126872, Note_on_c, 9, 37, 0
5, 127071, Note_on_c, 9, 62, 64
5, 127072, Note_on_c, 9, 63, 64
5, 127114, Note_on_c, 9, 62, 0
5, 127119, Note_on_c, 9, 63, 0
5, 127306, Note_on_c, 9, 37, 64
5, 127336, Note_on_c, 9, 37, 0
5, 127566, Note_on_c, 9, 63, 64
5, 127567, Note_on_c, 9, 62, 64
5, 127610, Note_on_c, 9, 62, 0
5, 127611, Note_on_c, 9, 63, 0
5, 127626, Note_on_c, 9, 62, 64
5, 127627, Note_on_c, 9, 63, 64
5, 127654, Note_on_c, 9, 62, 0
5, 127655, Note_on_c, 9, 63, 0
5, 127883, Note_on_c, 9, 37, 64
5, 127910, Note_on_c, 9, 37, 0
5, 128038, Note_on_c, 9, 63, 64
5, 128040, Note_on_c, 9, 62, 64
5, 128071, Note_on_c, 9, 62, 0
5, 128076, Note_on_c, 9, 63, 0
5, 128100, Note_on_c, 9, 62, 64
5, 128101, Note_on_c, 9, 63, 64
5, 128121, Note_on_c, 9, 62, 0
5, 128125, Note_on_c, 9, 63, 0
5, 128285, Note_on_c, 9, 37, 64
5, 128324, Note_on_c, 9, 37, 0
5, 128519, Note_on_c, 9, 63, 64
5, 128519, Note_on_c, 9, 62, 64
5, 128553, Note_on_c, 9, 62, 0
5, 128557, Note_on_c, 9, 63, 0
5, 128586, Note_on_c, 9, 63, 64
5, 128586, Note_on_c, 9, 62, 64
5, 128602, Note_on_c, 9, 62, 0
5, 128605, Note_on_c, 9, 63, 0
5, 128756, Note_on_c, 9, 37, 64
5, 128798, Note_on_c, 9, 37, 0
5, 129001, Note_on_c, 9, 63, 64
5, 129002, Note_on_c, 9, 62, 64
5, 129042, Note_on_c, 9, 62, 0
5, 129047, Note_on_c, 9, 63, 0
5, 129065, Note_on_c, 9, 62, 64
5, 129065, Note_on_c, 9, 63, 64
5, 129088, Note_on_c, 9, 62, 0
5, 129092, Note_on_c, 9, 63, 0
5, 129232, Note_on_c, 9, 37, 64
5, 129270, Note_on_c, 9, 37, 0
5, 129479, Note_on_c, 9, 62, 64
5, 129480, Note_on_c, 9, 63, 64
5, 129523, Note_on_c, 9, 62, 0
5, 129528, Note_on_c, 9, 63, 0
5, 129542, Note_on_c, 9, 62, 64
5, 129544, Note_on_c, 9, 63, 64
5, 129567, Note_on_c, 9, 62, 0
5, 129569, Note_on_c, 9, 63, 0
5, 129724, Note_on_c, 9, 37, 64
5, 129763, Note_on_c, 9, 37, 0
5, 129959, Note_on_c, 9, 62, 64
5, 129959, Note_on_c, 9, 63, 64
5, 129992, Note_on_c, 9, 62, 0
5, 129997, Note_on_c, 9, 63, 0
5, 130024, Note_on_c, 9, 62, 64
5, 130025, Note_on_c, 9, 63, 64
5, 130044, Note_on_c, 9, 62, 0
5, 130054, Note_on_c, 9, 63, 0
5, 130277, Note_on_c, 9, 37, 64
5, 130311, Note_on_c, 9, 37, 0
5, 130390, Note_on_c, 9, 37, 64
5, 130417, Note_on_c, 9, 37, 0
5, 130443, Note_on_c, 9, 37, 64
5, 130477, Note_on_c, 9, 37, 0
5, 130477, End_track
6, 0, Start_track
6, 0, MIDI_port, 0
6, 0, Title_t, "Hits    "
6, 23844, Note_on_c, 9, 36, 39
6, 23852, Note_on_c, 9, 36, 0
6, 25221, Note_on_c, 9, 36, 39
6, 25229, Note_on_c, 9, 36, 0
6, 25996, Note_on_c, 9, 40, 39
6, 26020, Note_on_c, 9, 40, 0
6, 26810, Note_on_c, 9, 40, 39
6, 26821, Note_on_c, 9, 40, 0
6, 26844, Note_on_c, 9, 40, 39
6, 26853, Note_on_c, 9, 40, 0
6, 26887, Note_on_c, 9, 36, 39
6, 26915, Note_on_c, 9, 36, 0
6, 27080, Note_on_c, 9, 36, 39
6, 27095, Note_on_c, 9, 36, 0
6, 27125, Note_on_c, 9, 36, 39
6, 27147, Note_on_c, 9, 36, 0
6, 27322, Note_on_c, 9, 36, 39
6, 27330, Note_on_c, 9, 36, 0
6, 28162, Note_on_c, 9, 40, 39
6, 28171, Note_on_c, 9, 40, 0
6, 28278, Note_on_c, 9, 40, 39
6, 28294, Note_on_c, 9, 40, 0
6, 28400, Note_on_c, 9, 40, 39
6, 28416, Note_on_c, 9, 40, 0
6, 28514, Note_on_c, 9, 40, 39
6, 28523, Note_on_c, 9, 40, 0
6, 28637, Note_on_c, 9, 40, 39
6, 28656, Note_on_c, 9, 40, 0
6, 28756, Note_on_c, 9, 36, 39
6, 28779, Note_on_c, 9, 36, 0
6, 28803, Note_on_c, 9, 36, 39
6, 28836, Note_on_c, 9, 36, 0
6, 29085, Note_on_c, 9, 40, 39
6, 29097, Note_on_c, 9, 40, 0
6, 29119, Note_on_c, 9, 40, 39
6, 29137, Note_on_c, 9, 40, 0
6, 29164, Note_on_c, 9, 36, 39
6, 29207, Note_on_c, 9, 36, 0
6, 29594, Note_on_c, 9, 40, 39
6, 29608, Note_on_c, 9, 40, 0
6, 29713, Note_on_c, 9, 40, 39
6, 29739, Note_on_c, 9, 40, 0
6, 29844, Note_on_c, 9, 36, 39
6, 29864, Note_on_c, 9, 36, 0
6, 29898, Note_on_c, 9, 36, 39
6, 29917, Note_on_c, 9, 36, 0
6, 30558, Note_on_c, 9, 40, 39
6, 30578, Note_on_c, 9, 40, 0
6, 30647, Note_on_c, 9, 40, 39
6, 30690, Note_on_c, 9, 36, 39
6, 30692, Note_on_c, 9, 40, 0
6, 30706, Note_on_c, 9, 36, 0
6, 30730, Note_on_c, 9, 36, 39
6, 30732, Note_on_c, 9, 57, 39
6, 30744, Note_on_c, 9, 36, 0
6, 30748, Note_on_c, 9, 57, 0
6, 54564, Note_on_c, 9, 36, 39
6, 54572, Note_on_c, 9, 36, 0
6, 55941, Note_on_c, 9, 36, 39
6, 55949, Note_on_c, 9, 36, 0
6, 56716, Note_on_c, 9, 40, 39
6, 56740, Note_on_c, 9, 40, 0
6, 57530, Note_on_c, 9, 40, 39
6, 57541, Note_on_c, 9, 40, 0
6, 57564, Note_on_c, 9, 40, 39
6, 57573, Note_on_c, 9, 40, 0
6, 57607, Note_on_c, 9, 36, 39
6, 57635, Note_on_c, 9, 36, 0
6, 57800, Note_on_c, 9, 36, 39
6, 57815, Note_on_c, 9, 36, 0
6, 57845, Note_on_c, 9, 36, 39
6, 57867, Note_on_c, 9, 36, 0
6, 58042, Note_on_c, 9, 36, 39
6, 58050, Note_on_c, 9, 36, 0
6, 58882, Note_on_c, 9, 40, 39
6, 58891, Note_on_c, 9, 40, 0
6, 58998, Note_on_c, 9, 40, 39
6, 59014, Note_on_c, 9, 40, 0
6, 59120, Note_on_c, 9, 40, 39
6, 59136, Note_on_c, 9, 40, 0
6, 59234, Note_on_c, 9, 40, 39
6, 59243, Note_on_c, 9, 40, 0
6, 59357, Note_on_c, 9, 40, 39
6, 59376, Note_on_c, 9, 40, 0
6, 59476, Note_on_c, 9, 36, 39
6, 59499, Note_on_c, 9, 36, 0
6, 59523, Note_on_c, 9, 36, 39
6, 59556, Note_on_c, 9, 36, 0
6, 59805, Note_on_c, 9, 40, 39
6, 59817, Note_on_c, 9, 40, 0
6, 59839, Note_on_c, 9, 40, 39
6, 59857, Note_on_c, 9, 40, 0
6, 59884, Note_on_c, 9, 36, 39
6, 59927, Note_on_c, 9, 36, 0
6, 60314, Note_on_c, 9, 40, 39
6, 60328, Note_on_c, 9, 40, 0
6, 60433, Note_on_c, 9, 40, 39
6, 60459, Note_on_c, 9, 40, 0
6, 60564, Note_on_c, 9, 36, 39
6, 60584, Note_on_c, 9, 36, 0
6, 60618, Note_on_c, 9, 36, 39
6, 60637, Note_on_c, 9, 36, 0
6, 61278, Note_on_c, 9, 40, 39
6, 61298, Note_on_c, 9, 40, 0
6, 61367, Note_on_c, 9, 40, 39
6, 61410, Note_on_c, 9, 36, 39
6, 61412, Note_on_c, 9, 40, 0
6, 61426, Note_on_c, 9, 36, 0
6, 61450, Note_on_c, 9, 36, 39
6, 61452, Note_on_c, 9, 57, 39
6, 61464, Note_on_c, 9, 36, 0
6, 61468, Note_on_c, 9, 57, 0
6, 68632, Note_on_c, 9, 38, 39
6, 68653, Note_on_c, 9, 38, 0
6, 68753, Note_on_c, 9, 38, 39
6, 68772, Note_on_c, 9, 38, 0
6, 69074, Note_on_c, 9, 38, 39
6, 69096, Note_on_c, 9, 38, 0
6, 70023, Note_on_c, 9, 38, 39
6, 70035, Note_on_c, 9, 38, 0
6, 70055, Note_on_c, 9, 38, 39
6, 70064, Note_on_c, 9, 38, 0
6, 70094, Note_on_c, 9, 36, 39
6, 70105, Note_on_c, 9, 36, 0
6, 70166, Note_on_c, 9, 36, 39
6, 70185, Note_on_c, 9, 36, 0
6, 70320, Note_on_c, 9, 36, 39
6, 70348, Note_on_c, 9, 36, 0
6, 71160, Note_on_c, 9, 37, 39
6, 71202, Note_on_c, 9, 37, 0
6, 71394, Note_on_c, 9, 37, 39
6, 71439, Note_on_c, 9, 37, 0
6, 71757, Note_on_c, 9, 38, 39
6, 71770, Note_on_c, 9, 38, 0
6, 71794, Note_on_c, 9, 38, 39
6, 71810, Note_on_c, 9, 38, 0
6, 71876, Note_on_c, 9, 38, 39
6, 71897, Note_on_c, 9, 38, 0
6, 71914, Note_on_c, 9, 38, 39
6, 71931, Note_on_c, 9, 38, 0
6, 71953, Note_on_c, 9, 36, 39
6, 71990, Note_on_c, 9, 36, 0
6, 72836, Note_on_c, 9, 38, 39
6, 72851, Note_on_c, 9, 38, 0
6, 72918, Note_on_c, 9, 38, 39
6, 72945, Note_on_c, 9, 38, 0
6, 73921, Note_on_c, 9, 36, 39
6, 73944, Note_on_c, 9, 36, 0
6, 74003, Note_on_c, 9, 36, 39
6, 74020, Note_on_c, 9, 36, 0
6, 74357, Note_on_c, 9, 38, 39
6, 74369, Note_on_c, 9, 38, 0
6, 74469, Note_on_c, 9, 38, 39
6, 74491, Note_on_c, 9, 38, 0
6, 74588, Note_on_c, 9, 36, 39
6, 74603, Note_on_c, 9, 36, 0
6, 74631, Note_on_c, 9, 38, 39
6, 74686, Note_on_c, 9, 38, 0
6, 74707, Note_on_c, 9, 38, 39
6, 74719, Note_on_c, 9, 38, 0
6, 74827, Note_on_c, 9, 36, 39
6, 74840, Note_on_c, 9, 36, 0
6, 74865, Note_on_c, 9, 36, 39
6, 74887, Note_on_c, 9, 36, 0
6, 75562, Note_on_c, 9, 38, 39
6, 75581, Note_on_c, 9, 38, 0
6, 75604, Note_on_c, 9, 38, 39
6, 75662, Note_on_c, 9, 38, 0
6, 75683, Note_on_c, 9, 36, 39
6, 75695, Note_on_c, 9, 36, 0
6, 76186, Note_on_c, 9, 38, 39
6, 76205, Note_on_c, 9, 38, 0
6, 76224, Note_on_c, 9, 38, 39
6, 76236, Note_on_c, 9, 38, 0
6, 76266, Note_on_c, 9, 36, 39
6, 76282, Note_on_c, 9, 36, 0
6, 76508, Note_on_c, 9, 38, 39
6, 76518, Note_on_c, 9, 38, 0
6, 76623, Note_on_c, 9, 38, 39
6, 76641, Note_on_c, 9, 38, 0
6, 76708, Note_on_c, 9, 38, 39
6, 76716, Note_on_c, 9, 38, 0
6, 76746, Note_on_c, 9, 38, 39
6, 76776, Note_on_c, 9, 38, 0
6, 76788, Note_on_c, 9, 36, 39
6, 76790, Note_on_c, 9, 57, 39
6, 76797, Note_on_c, 9, 57, 0
6, 76803, Note_on_c, 9, 36, 0
6, 77093, Note_on_c, 9, 38, 39
6, 77101, Note_on_c, 9, 38, 0
6, 77126, Note_on_c, 9, 38, 39
6, 77154, Note_on_c, 9, 38, 0
6, 77169, Note_on_c, 9, 57, 39
6, 77170, Note_on_c, 9, 36, 39
6, 77187, Note_on_c, 9, 57, 0
6, 77212, Note_on_c, 9, 36, 0
6, 77837, Note_on_c, 9, 38, 39
6, 77843, Note_on_c, 9, 38, 0
6, 77946, Note_on_c, 9, 38, 39
6, 77955, Note_on_c, 9, 38, 0
6, 77995, Note_on_c, 9, 36, 39
6, 78046, Note_on_c, 9, 36, 0
6, 78961, Note_on_c, 9, 38, 39
6, 79007, Note_on_c, 9, 38, 0
6, 79037, Note_on_c, 9, 38, 39
6, 79060, Note_on_c, 9, 38, 0
6, 79158, Note_on_c, 9, 36, 39
6, 79179, Note_on_c, 9, 36, 0
6, 79203, Note_on_c, 9, 36, 39
6, 79263, Note_on_c, 9, 36, 0
6, 80118, Note_on_c, 9, 38, 39
6, 80139, Note_on_c, 9, 38, 0
6, 80169, Note_on_c, 9, 38, 39
6, 80208, Note_on_c, 9, 38, 0
6, 80239, Note_on_c, 9, 36, 39
6, 80252, Note_on_c, 9, 36, 0
6, 80478, Note_on_c, 9, 46, 39
6, 80508, Note_on_c, 9, 46, 0
6, 80562, Note_on_c, 9, 46, 39
6, 80604, Note_on_c, 9, 46, 0
6, 80917, Note_on_c, 9, 38, 39
6, 80926, Note_on_c, 9, 38, 0
6, 80953, Note_on_c, 9, 38, 39
6, 80972, Note_on_c, 9, 38, 0
6, 80992, Note_on_c, 9, 36, 39
6, 81025, Note_on_c, 9, 36, 0
6, 81562, Note_on_c, 9, 38, 39
6, 81570, Note_on_c, 9, 38, 0
6, 82271, Note_on_c, 9, 38, 39
6, 82284, Note_on_c, 9, 38, 0
6, 82315, Note_on_c, 9, 38, 39
6, 82355, Note_on_c, 9, 38, 0
6, 82390, Note_on_c, 9, 36, 39
6, 82402, Note_on_c, 9, 36, 0
6, 82506, Note_on_c, 9, 38, 39
6, 82524, Note_on_c, 9, 38, 0
6, 82553, Note_on_c, 9, 57, 39
6, 82554, Note_on_c, 9, 36, 39
6, 82562, Note_on_c, 9, 57, 0
6, 82565, Note_on_c, 9, 36, 0
6, 83032, Note_on_c, 9, 38, 39
6, 83093, Note_on_c, 9, 38, 0
6, 83118, Note_on_c, 9, 38, 39
6, 83130, Note_on_c, 9, 38, 0
6, 83160, Note_on_c, 9, 38, 39
6, 83208, Note_on_c, 9, 38, 0
6, 83232, Note_on_c, 9, 38, 39
6, 83249, Note_on_c, 9, 38, 0
6, 83281, Note_on_c, 9, 36, 39
6, 83333, Note_on_c, 9, 36, 0
6, 83351, Note_on_c, 9, 36, 39
6, 83374, Note_on_c, 9, 36, 0
6, 83997, Note_on_c, 9, 38, 39
6, 84006, Note_on_c, 9, 38, 0
6, 84075, Note_on_c, 9, 38, 39
6, 84083, Note_on_c, 9, 38, 0
6, 84240, Note_on_c, 9, 38, 39
6, 84286, Note_on_c, 9, 38, 0
6, 84312, Note_on_c, 9, 38, 39
6, 84328, Note_on_c, 9, 38, 0
6, 84436, Note_on_c, 9, 36, 39
6, 84442, Note_on_c, 9, 36, 0
6, 84470, Note_on_c, 9, 57, 39
6, 84474, Note_on_c, 9, 38, 39
6, 84483, Note_on_c, 9, 57, 0
6, 84502, Note_on_c, 9, 38, 0
6, 84795, Note_on_c, 9, 38, 39
6, 84814, Note_on_c, 9, 38, 0
6, 84841, Note_on_c, 9, 38, 39
6, 84892, Note_on_c, 9, 38, 0
6, 84913, Note_on_c, 9, 36, 39
6, 84930, Note_on_c, 9, 36, 0
6, 84956, Note_on_c, 9, 38, 39
6, 84991, Note_on_c, 9, 38, 0
6, 85023, Note_on_c, 9, 38, 39
6, 85041, Note_on_c, 9, 38, 0
6, 85639, Note_on_c, 9, 36, 39
6, 85668, Note_on_c, 9, 36, 0
6, 85686, Note_on_c, 9, 36, 39
6, 85738, Note_on_c, 9, 36, 0
6, 85759, Note_on_c, 9, 36, 39
6, 85790, Note_on_c, 9, 36, 0
6, 86284, Note_on_c, 9, 38, 39
6, 86315, Note_on_c, 9, 38, 0
6, 86521, Note_on_c, 9, 38, 39
6, 86560, Note_on_c, 9, 38, 0
6, 86987, Note_on_c, 9, 37, 39
6, 87038, Note_on_c, 9, 37, 0
6, 87240, Note_on_c, 9, 37, 39
6, 87296, Note_on_c, 9, 37, 0
6, 87479, Note_on_c, 9, 37, 39
6, 87530, Note_on_c, 9, 37, 0
6, 87684, Note_on_c, 9, 37, 39
6, 87713, Note_on_c, 9, 37, 0
6, 87762, Note_on_c, 9, 37, 39
6, 87804, Note_on_c, 9, 37, 0
6, 87844, Note_on_c, 9, 37, 39
6, 87887, Note_on_c, 9, 37, 0
6, 87923, Note_on_c, 9, 37, 39
6, 87953, Note_on_c, 9, 37, 0
6, 88157, Note_on_c, 9, 37, 39
6, 88183, Note_on_c, 9, 37, 0
6, 88232, Note_on_c, 9, 37, 39
6, 88248, Note_on_c, 9, 37, 0
6, 88272, Note_on_c, 9, 36, 39
6, 88285, Note_on_c, 9, 36, 0
6, 88310, Note_on_c, 9, 36, 39
6, 88337, Note_on_c, 9, 36, 0
6, 88637, Note_on_c, 9, 37, 39
6, 88665, Note_on_c, 9, 37, 0
6, 88680, Note_on_c, 9, 36, 39
6, 88680, Note_on_c, 9, 57, 39
6, 88718, Note_on_c, 9, 57, 0
6, 88731, Note_on_c, 9, 36, 0
6, 89118, Note_on_c, 9, 38, 39
6, 89126, Note_on_c, 9, 38, 0
6, 89159, Note_on_c, 9, 38, 39
6, 89168, Note_on_c, 9, 38, 0
6, 89238, Note_on_c, 9, 36, 39
6, 89249, Note_on_c, 9, 36, 0
6, 89280, Note_on_c, 9, 36, 39
6, 89333, Note_on_c, 9, 36, 0
6, 89357, Note_on_c, 9, 36, 39
6, 89371, Note_on_c, 9, 36, 0
6, 89644, Note_on_c, 9, 37, 39
6, 89652, Note_on_c, 9, 37, 0
6, 89671, Note_on_c, 9, 37, 39
6, 89686, Note_on_c, 9, 37, 0
6, 89756, Note_on_c, 9, 37, 39
6, 89778, Note_on_c, 9, 37, 0
6, 89793, Note_on_c, 9, 37, 39
6, 89806, Note_on_c, 9, 37, 0
6, 89839, Note_on_c, 9, 36, 39
6, 89859, Note_on_c, 9, 36, 0
6, 90087, Note_on_c, 9, 38, 39
6, 90115, Note_on_c, 9, 38, 0
6, 90202, Note_on_c, 9, 36, 39
6, 90223, Note_on_c, 9, 36, 0
6, 90243, Note_on_c, 9, 36, 39
6, 90270, Note_on_c, 9, 36, 0
6, 90682, Note_on_c, 9, 38, 39
6, 90705, Note_on_c, 9, 38, 0
6, 90725, Note_on_c, 9, 38, 39
6, 90763, Note_on_c, 9, 38, 0
6, 90799, Note_on_c, 9, 36, 39
6, 90825, Note_on_c, 9, 36, 0
6, 91441, Note_on_c, 9, 38, 39
6, 91479, Note_on_c, 9, 38, 0
6, 91677, Note_on_c, 9, 38, 39
6, 91717, Note_on_c, 9, 38, 0
6, 91792, Note_on_c, 9, 38, 39
6, 91835, Note_on_c, 9, 38, 0
6, 91918, Note_on_c, 9, 38, 39
6, 91972, Note_on_c, 9, 38, 0
6, 91994, Note_on_c, 9, 38, 39
6, 92025, Note_on_c, 9, 38, 0
6, 92113, Note_on_c, 9, 38, 39
6, 92135, Note_on_c, 9, 38, 0
6, 92158, Note_on_c, 9, 38, 39
6, 92158, Note_on_c, 9, 36, 39
6, 92159, Note_on_c, 9, 57, 39
6, 92307, Note_on_c, 9, 57, 0
6, 92371, Note_on_c, 9, 36, 0
6, 92388, Note_on_c, 9, 38, 0
6, 92468, Note_on_c, 9, 38, 39
6, 92493, Note_on_c, 9, 38, 0
6, 92510, Note_on_c, 9, 36, 39
6, 92568, Note_on_c, 9, 36, 0
6, 92591, Note_on_c, 9, 36, 39
6, 92642, Note_on_c, 9, 36, 0
6, 93077, Note_on_c, 9, 38, 39
6, 93090, Note_on_c, 9, 38, 0
6, 93152, Note_on_c, 9, 38, 39
6, 93192, Note_on_c, 9, 38, 0
6, 93243, Note_on_c, 9, 38, 39
6, 93282, Note_on_c, 9, 38, 0
6, 93325, Note_on_c, 9, 38, 39
6, 93360, Note_on_c, 9, 38, 0
6, 93404, Note_on_c, 9, 38, 39
6, 93447, Note_on_c, 9, 38, 0
6, 93493, Note_on_c, 9, 38, 39
6, 93515, Note_on_c, 9, 38, 0
6, 93576, Note_on_c, 9, 38, 39
6, 93605, Note_on_c, 9, 38, 0
6, 93654, Note_on_c, 9, 38, 39
6, 93681, Note_on_c, 9, 38, 0
6, 93889, Note_on_c, 9, 38, 39
6, 93921, Note_on_c, 9, 38, 0
6, 93960, Note_on_c, 9, 38, 39
6, 94012, Note_on_c, 9, 38, 0
6, 94038, Note_on_c, 9, 36, 39
6, 94064, Note_on_c, 9, 36, 0
6, 94086, Note_on_c, 9, 36, 39
6, 94126, Note_on_c, 9, 36, 0
6, 94876, Note_on_c, 9, 38, 39
6, 94887, Note_on_c, 9, 38, 0
6, 94925, Note_on_c, 9, 36, 39
6, 94946, Note_on_c, 9, 36, 0
6, 94996, Note_on_c, 9, 36, 39
6, 95022, Note_on_c, 9, 36, 0
6, 95632, Note_on_c, 9, 37, 39
6, 95668, Note_on_c, 9, 37, 0
6, 96317, Note_on_c, 9, 38, 39
6, 96325, Note_on_c, 9, 38, 0
6, 96362, Note_on_c, 9, 38, 39
6, 96379, Note_on_c, 9, 38, 0
6, 96435, Note_on_c, 9, 36, 39
6, 96455, Note_on_c, 9, 36, 0
6, 96479, Note_on_c, 9, 36, 39
6, 96511, Note_on_c, 9, 36, 0
6, 96795, Note_on_c, 9, 38, 39
6, 96806, Note_on_c, 9, 38, 0
6, 96917, Note_on_c, 9, 38, 39
6, 96935, Note_on_c, 9, 38, 0
6, 97154, Note_on_c, 9, 38, 39
6, 97178, Note_on_c, 9, 38, 0
6, 97200, Note_on_c, 9, 38, 39
6, 97257, Note_on_c, 9, 38, 0
6, 97276, Note_on_c, 9, 38, 39
6, 97294, Note_on_c, 9, 38, 0
6, 97400, Note_on_c, 9, 38, 39
6, 97420, Note_on_c, 9, 38, 0
6, 97451, Note_on_c, 9, 38, 39
6, 97513, Note_on_c, 9, 38, 0
6, 97532, Note_on_c, 9, 38, 39
6, 97541, Note_on_c, 9, 38, 0
6, 97646, Note_on_c, 9, 38, 39
6, 97669, Note_on_c, 9, 38, 0
6, 97689, Note_on_c, 9, 38, 39
6, 97724, Note_on_c, 9, 38, 0
6, 97876, Note_on_c, 9, 37, 39
6, 97892, Note_on_c, 9, 37, 0
6, 97921, Note_on_c, 9, 57, 39
6, 97922, Note_on_c, 9, 38, 39
6, 97922, Note_on_c, 9, 36, 39
6, 97938, Note_on_c, 9, 57, 0
6, 97939, Note_on_c, 9, 36, 0
6, 97943, Note_on_c, 9, 38, 0
6, 98234, Note_on_c, 9, 38, 39
6, 98258, Note_on_c, 9, 38, 0
6, 98352, Note_on_c, 9, 36, 39
6, 98376, Note_on_c, 9, 36, 0
6, 98711, Note_on_c, 9, 38, 39
6, 98733, Note_on_c, 9, 38, 0
6, 98760, Note_on_c, 9, 38, 39
6, 98794, Note_on_c, 9, 38, 0
6, 98881, Note_on_c, 9, 38, 39
6, 98905, Note_on_c, 9, 38, 0
6, 98937, Note_on_c, 9, 38, 39
6, 98961, Note_on_c, 9, 38, 0
6, 98996, Note_on_c, 9, 38, 39
6, 99024, Note_on_c, 9, 38, 0
6, 99060, Note_on_c, 9, 36, 39
6, 99077, Note_on_c, 9, 36, 0
6, 99554, Note_on_c, 9, 38, 39
6, 99577, Note_on_c, 9, 38, 0
6, 99671, Note_on_c, 9, 38, 39
6, 99710, Note_on_c, 9, 38, 0
6, 99787, Note_on_c, 9, 36, 39
6, 99802, Note_on_c, 9, 36, 0
6, 99838, Note_on_c, 9, 36, 39
6, 99870, Note_on_c, 9, 36, 0
6, 116004, Note_on_c, 9, 36, 39
6, 116012, Note_on_c, 9, 36, 0
6, 117381, Note_on_c, 9, 36, 39
6, 117389, Note_on_c, 9, 36, 0
6, 118156, Note_on_c, 9, 40, 39
6, 118180, Note_on_c, 9, 40, 0
6, 118970, Note_on_c, 9, 40, 39
6, 118981, Note_on_c, 9, 40, 0
6, 119004, Note_on_c, 9, 40, 39
6, 119013, Note_on_c, 9, 40, 0
6, 119047, Note_on_c, 9, 36, 39
6, 119075, Note_on_c, 9, 36, 0
6, 119240, Note_on_c, 9, 36, 39
6, 119255, Note_on_c, 9, 36, 0
6, 119285, Note_on_c, 9, 36, 39
6, 119307, Note_on_c, 9, 36, 0
6, 119482, Note_on_c, 9, 36, 39
6, 119490, Note_on_c, 9, 36, 0
6, 120322, Note_on_c, 9, 40, 39
6, 120331, Note_on_c, 9, 40, 0
6, 120438, Note_on_c, 9, 40, 39
6, 120454, Note_on_c, 9, 40, 0
6, 120560, Note_on_c, 9, 40, 39
6, 120576, Note_on_c, 9, 40, 0
6, 120674, Note_on_c, 9, 40, 39
6, 120683, Note_on_c, 9, 40, 0
6, 120797, Note_on_c, 9, 40, 39
6, 120816, Note_on_c, 9, 40, 0
6, 120916, Note_on_c, 9, 36, 39
6, 120939, Note_on_c, 9, 36, 0
6, 120963, Note_on_c, 9, 36, 39
6, 120996, Note_on_c, 9, 36, 0
6, 121245, Note_on_c, 9, 40, 39
6, 121257, Note_on_c, 9, 40, 0
6, 121279, Note_on_c, 9, 40, 39
6, 121297, Note_on_c, 9, 40, 0
6, 121324, Note_on_c, 9, 36, 39
6, 121367, Note_on_c, 9, 36, 0
6, 121754, Note_on_c, 9, 40, 39
6, 121768, Note_on_c, 9, 40, 0
6, 121873, Note_on_c, 9, 40, 39
6, 121899, Note_on_c, 9, 40, 0
6, 122004, Note_on_c, 9, 36, 39
6, 122024, Note_on_c, 9, 36, 0
6, 122058, Note_on_c, 9, 36, 39
6, 122077, Note_on_c, 9, 36, 0
6, 122718, Note_on_c, 9, 40, 39
6, 122738, Note_on_c, 9, 40, 0
6, 122807, Note_on_c, 9, 40, 39
6, 122850, Note_on_c, 9, 36, 39
6, 122852, Note_on_c, 9, 40, 0
6, 122866, Note_on_c, 9, 36, 0
6, 122890, Note_on_c, 9, 36, 39
6, 122892, Note_on_c, 9, 57, 39
6, 122904, Note_on_c, 9, 36, 0
6, 122908, Note_on_c, 9, 57, 0
6, 122908, End_track
0, 0, End_of_file
