0, 0, Header, 1, 4, 120
1, 0, Start_track
1, 0, Title_t, "Theme From Black Orpheus (Manha de Carnaval)"
1, 0, Text_t, "Sequence was done in several passes. First a simple Ride pattern on drums, then a bass line, then Piano  next. The Bass line was re-done to fit with the piano improvisation then drums re-done in several passes - first ride,then 'Hits' (snare,Hihats,kick)\012"
1, 0, Time_signature, 4, 2, 24, 8
1, 0, Key_signature, 0, "major"
1, 0, Tempo, 582524
1, 0, Marker_t, "Intro - 8 bars - Am with moving 5th (Am, Amb6)"
1, 480, Marker_t, "Piano could be accoustic or rhodes"
1, 1056, Marker_t, "Melodic line in intro is basically triad chords with surround/neighbouring tones"
1, 3841, Marker_t, "Main theme - Bass plays melodically"
1, 7795, Marker_t, "Snare on beat 2 - simulation of stick rebounding on snare when held loosely"
1, 12763, Marker_t, "Pedal - Hi-Hat used sparingly as another 'fill' sound - not in a regular pattern"
1, 19310, Marker_t, "Notes played twice in pairs a third apart moving down the C Major scale"
1, 20930, Marker_t, "The note C is enclosed by 2 chromatic tones below then above"
1, 22719, Marker_t, "On A7b9, phrase is based on Dim scale - up 4 notes back 1"
1, 26352, Marker_t, "Ascending phrase played with forefinger then thumb on each successive white note."
1, 27006, Marker_t, "A melodic phrase is repeated several times beginning on different notes"
1, 29388, Marker_t, "On A7, begins surrounding the root, then up the dim (1/2 - whole tone)  scale"
1, 32210, Marker_t, "Chords and fragments of chords played in a regular rhythmic pattern (and-a-1 and -a-2 and -a-3 etc)"
1, 37440, Marker_t, "On Cmaj7 the #11 (Lydian note)"
1, 43766, Marker_t, "Another short melodic phrase moved down through the appropriate scale"
1, 49924, Marker_t, "Final ending "
1, 51360, Marker_t, "Tag ending - Am - FMaj7-Bm7b5-E7b9 - played a number of times with substitutions"
1, 51360, End_track
2, 0, Start_track
2, 0, Title_t, "dougmck@pipeline.com.au"
2, 7, Note_on_c, 0, 45, 33
2, 8, Note_on_c, 0, 52, 37
2, 123, Note_on_c, 0, 70, 85
2, 144, Note_on_c, 0, 70, 0
2, 155, Note_on_c, 0, 71, 34
2, 174, Note_on_c, 0, 71, 0
2, 184, Note_on_c, 0, 77, 89
2, 222, Note_on_c, 0, 77, 0
2, 244, Note_on_c, 0, 76, 79
2, 392, Note_on_c, 0, 45, 0
2, 411, Note_on_c, 0, 45, 36
2, 433, Note_on_c, 0, 45, 0
2, 468, Note_on_c, 0, 52, 0
2, 472, Note_on_c, 0, 45, 36
2, 472, Note_on_c, 0, 53, 49
2, 564, Note_on_c, 0, 76, 0
2, 604, Note_on_c, 0, 76, 1
2, 631, Note_on_c, 0, 76, 0
2, 640, Note_on_c, 0, 45, 0
2, 659, Note_on_c, 0, 45, 48
2, 786, Note_on_c, 0, 79, 96
2, 816, Note_on_c, 0, 77, 68
2, 825, Note_on_c, 0, 79, 0
2, 842, Note_on_c, 0, 77, 0
2, 846, Note_on_c, 0, 72, 35
2, 873, Note_on_c, 0, 72, 0
2, 884, Note_on_c, 0, 67, 31
2, 893, Note_on_c, 0, 67, 0
2, 903, Note_on_c, 0, 74, 80
2, 926, Note_on_c, 0, 45, 0
2, 932, Note_on_c, 0, 53, 0
2, 938, Note_on_c, 0, 74, 0
2, 938, Note_on_c, 0, 72, 53
2, 954, Note_on_c, 0, 72, 0
2, 966, Note_on_c, 0, 45, 24
2, 972, Note_on_c, 0, 52, 16
2, 1079, Note_on_c, 0, 71, 94
2, 1109, Note_on_c, 0, 71, 0
2, 1116, Note_on_c, 0, 68, 29
2, 1130, Note_on_c, 0, 68, 0
2, 1141, Note_on_c, 0, 69, 64
2, 1144, Note_on_c, 0, 45, 0
2, 1168, Note_on_c, 0, 69, 0
2, 1176, Note_on_c, 0, 64, 51
2, 1179, Note_on_c, 0, 52, 0
2, 1187, Note_on_c, 0, 45, 33
2, 1190, Note_on_c, 0, 52, 11
2, 1191, Note_on_c, 0, 64, 0
2, 1205, Note_on_c, 0, 62, 13
2, 1235, Note_on_c, 0, 62, 0
2, 1239, Note_on_c, 0, 60, 45
2, 1246, Note_on_c, 0, 60, 0
2, 1262, Note_on_c, 0, 59, 37
2, 1288, Note_on_c, 0, 59, 0
2, 1293, Note_on_c, 0, 60, 66
2, 1305, Note_on_c, 0, 59, 44
2, 1308, Note_on_c, 0, 60, 0
2, 1321, Note_on_c, 0, 59, 0
2, 1324, Note_on_c, 0, 57, 36
2, 1340, Note_on_c, 0, 45, 0
2, 1345, Note_on_c, 0, 52, 0
2, 1348, Note_on_c, 0, 57, 0
2, 1358, Note_on_c, 0, 56, 50
2, 1369, Note_on_c, 0, 56, 0
2, 1375, Note_on_c, 0, 45, 42
2, 1375, Note_on_c, 0, 52, 38
2, 1378, Note_on_c, 0, 59, 69
2, 1399, Note_on_c, 0, 45, 0
2, 1409, Note_on_c, 0, 59, 0
2, 1415, Note_on_c, 0, 56, 33
2, 1428, Note_on_c, 0, 56, 0
2, 1428, Note_on_c, 0, 52, 0
2, 1439, Note_on_c, 0, 57, 57
2, 1441, Note_on_c, 0, 45, 25
2, 1446, Note_on_c, 0, 53, 11
2, 1467, Note_on_c, 0, 53, 0
2, 1473, Note_on_c, 0, 57, 0
2, 1505, Note_on_c, 0, 53, 34
2, 1540, Note_on_c, 0, 53, 0
2, 1559, Note_on_c, 0, 53, 50
2, 1601, Note_on_c, 0, 53, 0
2, 1616, Note_on_c, 0, 53, 59
2, 1651, Note_on_c, 0, 53, 0
2, 1652, Note_on_c, 0, 45, 0
2, 1656, Note_on_c, 0, 52, 36
2, 1677, Note_on_c, 0, 52, 0
2, 1678, Note_on_c, 0, 45, 26
2, 1680, Note_on_c, 0, 53, 42
2, 1709, Note_on_c, 0, 53, 0
2, 1714, Note_on_c, 0, 62, 63
2, 1733, Note_on_c, 0, 62, 0
2, 1777, Note_on_c, 0, 53, 34
2, 1785, Note_on_c, 0, 53, 0
2, 1800, Note_on_c, 0, 60, 90
2, 1843, Note_on_c, 0, 53, 38
2, 1852, Note_on_c, 0, 53, 0
2, 1876, Note_on_c, 0, 45, 0
2, 1894, Note_on_c, 0, 56, 34
2, 1896, Note_on_c, 0, 60, 0
2, 1907, Note_on_c, 0, 56, 0
2, 1919, Note_on_c, 0, 59, 63
2, 1921, Note_on_c, 0, 45, 31
2, 1923, Note_on_c, 0, 52, 31
2, 1954, Note_on_c, 0, 59, 0
2, 1958, Note_on_c, 0, 56, 31
2, 1968, Note_on_c, 0, 52, 0
2, 1973, Note_on_c, 0, 56, 0
2, 1981, Note_on_c, 0, 57, 54
2, 2007, Note_on_c, 0, 57, 0
2, 2016, Note_on_c, 0, 52, 45
2, 2024, Note_on_c, 0, 52, 0
2, 2040, Note_on_c, 0, 52, 58
2, 2079, Note_on_c, 0, 52, 0
2, 2096, Note_on_c, 0, 52, 63
2, 2106, Note_on_c, 0, 45, 0
2, 2128, Note_on_c, 0, 52, 0
2, 2136, Note_on_c, 0, 50, 29
2, 2152, Note_on_c, 0, 50, 0
2, 2159, Note_on_c, 0, 52, 37
2, 2184, Note_on_c, 0, 52, 0
2, 2196, Note_on_c, 0, 33, 50
2, 2202, Note_on_c, 0, 33, 0
2, 2281, Note_on_c, 0, 60, 50
2, 2283, Note_on_c, 0, 64, 40
2, 2284, Note_on_c, 0, 59, 50
2, 2296, Note_on_c, 0, 64, 0
2, 2296, Note_on_c, 0, 60, 0
2, 2300, Note_on_c, 0, 59, 0
2, 2345, Note_on_c, 0, 64, 49
2, 2345, Note_on_c, 0, 60, 57
2, 2348, Note_on_c, 0, 59, 46
2, 2362, Note_on_c, 0, 60, 0
2, 2362, Note_on_c, 0, 64, 0
2, 2364, Note_on_c, 0, 59, 0
2, 2437, Note_on_c, 0, 53, 46
2, 2440, Note_on_c, 0, 45, 36
2, 2455, Note_on_c, 0, 53, 0
2, 2456, Note_on_c, 0, 45, 0
2, 2523, Note_on_c, 0, 45, 48
2, 2523, Note_on_c, 0, 53, 44
2, 2538, Note_on_c, 0, 53, 0
2, 2540, Note_on_c, 0, 45, 0
2, 2584, Note_on_c, 0, 75, 75
2, 2585, Note_on_c, 0, 69, 83
2, 2585, Note_on_c, 0, 81, 79
2, 2609, Note_on_c, 0, 76, 51
2, 2610, Note_on_c, 0, 75, 0
2, 2618, Note_on_c, 0, 69, 0
2, 2621, Note_on_c, 0, 81, 0
2, 2625, Note_on_c, 0, 76, 0
2, 2679, Note_on_c, 0, 53, 49
2, 2681, Note_on_c, 0, 45, 40
2, 2694, Note_on_c, 0, 45, 0
2, 2695, Note_on_c, 0, 53, 0
2, 2761, Note_on_c, 0, 53, 50
2, 2762, Note_on_c, 0, 45, 47
2, 2772, Note_on_c, 0, 45, 0
2, 2772, Note_on_c, 0, 53, 0
2, 2799, Note_on_c, 0, 80, 52
2, 2812, Note_on_c, 0, 80, 0
2, 2829, Note_on_c, 0, 81, 46
2, 2840, Note_on_c, 0, 81, 0
2, 2858, Note_on_c, 0, 88, 85
2, 2872, Note_on_c, 0, 45, 34
2, 2873, Note_on_c, 0, 88, 0
2, 2889, Note_on_c, 0, 83, 46
2, 2901, Note_on_c, 0, 45, 0
2, 2906, Note_on_c, 0, 83, 0
2, 2972, Note_on_c, 0, 83, 68
2, 2982, Note_on_c, 0, 45, 32
2, 2986, Note_on_c, 0, 83, 0
2, 2991, Note_on_c, 0, 45, 0
2, 3000, Note_on_c, 0, 86, 81
2, 3017, Note_on_c, 0, 86, 0
2, 3059, Note_on_c, 0, 81, 64
2, 3065, Note_on_c, 0, 81, 0
2, 3096, Note_on_c, 0, 84, 80
2, 3108, Note_on_c, 0, 84, 0
2, 3154, Note_on_c, 0, 80, 51
2, 3166, Note_on_c, 0, 80, 0
2, 3178, Note_on_c, 0, 83, 79
2, 3206, Note_on_c, 0, 83, 0
2, 3212, Note_on_c, 0, 80, 37
2, 3226, Note_on_c, 0, 80, 0
2, 3241, Note_on_c, 0, 81, 64
2, 3245, Note_on_c, 0, 45, 41
2, 3255, Note_on_c, 0, 45, 0
2, 3278, Note_on_c, 0, 81, 0
2, 3300, Note_on_c, 0, 76, 33
2, 3340, Note_on_c, 0, 76, 0
2, 3482, Note_on_c, 0, 76, 118
2, 3508, Note_on_c, 0, 76, 0
2, 3514, Note_on_c, 0, 77, 66
2, 3533, Note_on_c, 0, 77, 0
2, 3541, Note_on_c, 0, 76, 58
2, 3566, Note_on_c, 0, 76, 0
2, 3576, Note_on_c, 0, 74, 74
2, 3595, Note_on_c, 0, 74, 0
2, 3608, Note_on_c, 0, 72, 28
2, 3622, Note_on_c, 0, 72, 0
2, 3635, Note_on_c, 0, 71, 71
2, 3661, Note_on_c, 0, 71, 0
2, 3664, Note_on_c, 0, 69, 40
2, 3687, Note_on_c, 0, 69, 0
2, 3697, Note_on_c, 0, 68, 43
2, 3707, Note_on_c, 0, 65, 33
2, 3709, Note_on_c, 0, 62, 36
2, 3712, Note_on_c, 0, 68, 0
2, 3713, Note_on_c, 0, 65, 0
2, 3716, Note_on_c, 0, 62, 0
2, 3719, Note_on_c, 0, 71, 79
2, 3755, Note_on_c, 0, 71, 0
2, 3756, Note_on_c, 0, 68, 45
2, 3770, Note_on_c, 0, 68, 0
2, 3782, Note_on_c, 0, 69, 68
2, 3828, Note_on_c, 0, 69, 0
2, 3844, Control_c, 0, 64, 0
2, 3848, Note_on_c, 0, 45, 24
2, 3850, Note_on_c, 0, 52, 32
2, 3850, Note_on_c, 0, 55, 22
2, 3956, Control_c, 0, 64, 127
2, 3957, Note_on_c, 0, 45, 0
2, 3962, Note_on_c, 0, 52, 0
2, 3968, Note_on_c, 0, 55, 0
2, 4083, Note_on_c, 0, 84, 79
2, 4085, Note_on_c, 0, 64, 54
2, 4088, Note_on_c, 0, 76, 57
2, 4091, Note_on_c, 0, 59, 35
2, 4091, Note_on_c, 0, 57, 28
2, 4091, Note_on_c, 0, 60, 44
2, 4105, Control_c, 0, 64, 0
2, 4108, Note_on_c, 0, 76, 0
2, 4123, Note_on_c, 0, 76, 22
2, 4123, Control_c, 0, 64, 127
2, 4129, Note_on_c, 0, 84, 0
2, 4135, Note_on_c, 0, 76, 0
2, 4148, Control_c, 0, 64, 0
2, 4153, Note_on_c, 0, 74, 64
2, 4155, Note_on_c, 0, 84, 51
2, 4155, Note_on_c, 0, 83, 43
2, 4176, Note_on_c, 0, 84, 0
2, 4181, Note_on_c, 0, 74, 0
2, 4186, Note_on_c, 0, 83, 0
2, 4187, Control_c, 0, 64, 127
2, 4208, Note_on_c, 0, 60, 0
2, 4210, Note_on_c, 0, 59, 0
2, 4211, Note_on_c, 0, 57, 0
2, 4212, Note_on_c, 0, 64, 0
2, 4241, Note_on_c, 0, 83, 44
2, 4244, Note_on_c, 0, 81, 43
2, 4250, Note_on_c, 0, 72, 22
2, 4257, Note_on_c, 0, 72, 0
2, 4265, Note_on_c, 0, 83, 0
2, 4267, Note_on_c, 0, 81, 0
2, 4317, Note_on_c, 0, 81, 58
2, 4320, Note_on_c, 0, 74, 46
2, 4323, Note_on_c, 0, 62, 34
2, 4324, Note_on_c, 0, 57, 35
2, 4325, Note_on_c, 0, 65, 34
2, 4328, Note_on_c, 0, 69, 20
2, 4330, Control_c, 0, 64, 0
2, 4429, Note_on_c, 0, 69, 0
2, 4435, Control_c, 0, 64, 127
2, 4439, Note_on_c, 0, 74, 0
2, 4440, Note_on_c, 0, 65, 0
2, 4442, Note_on_c, 0, 57, 0
2, 4445, Note_on_c, 0, 62, 0
2, 4464, Note_on_c, 0, 81, 0
2, 4620, Note_on_c, 0, 80, 75
2, 4621, Note_on_c, 0, 92, 81
2, 4621, Note_on_c, 0, 56, 74
2, 4622, Note_on_c, 0, 65, 81
2, 4623, Note_on_c, 0, 62, 74
2, 4636, Note_on_c, 0, 65, 0
2, 4638, Note_on_c, 0, 80, 0
2, 4642, Note_on_c, 0, 62, 0
2, 4645, Note_on_c, 0, 56, 0
2, 4648, Note_on_c, 0, 92, 0
2, 4679, Control_c, 0, 64, 0
2, 4681, Note_on_c, 0, 83, 60
2, 4683, Note_on_c, 0, 56, 46
2, 4684, Note_on_c, 0, 62, 49
2, 4684, Note_on_c, 0, 95, 36
2, 4684, Note_on_c, 0, 65, 37
2, 4688, Note_on_c, 0, 83, 0
2, 4690, Note_on_c, 0, 56, 0
2, 4692, Note_on_c, 0, 95, 0
2, 4692, Note_on_c, 0, 62, 0
2, 4693, Note_on_c, 0, 65, 0
2, 4739, Note_on_c, 0, 56, 64
2, 4743, Note_on_c, 0, 65, 44
2, 4751, Note_on_c, 0, 65, 0
2, 4758, Note_on_c, 0, 56, 0
2, 4801, Note_on_c, 0, 101, 71
2, 4802, Note_on_c, 0, 89, 62
2, 4804, Note_on_c, 0, 55, 58
2, 4805, Note_on_c, 0, 64, 58
2, 4805, Note_on_c, 0, 60, 50
2, 4809, Note_on_c, 0, 57, 34
2, 4810, Note_on_c, 0, 89, 0
2, 4811, Note_on_c, 0, 64, 0
2, 4812, Note_on_c, 0, 101, 0
2, 4812, Note_on_c, 0, 55, 0
2, 4813, Note_on_c, 0, 60, 0
2, 4818, Note_on_c, 0, 57, 0
2, 4866, Note_on_c, 0, 100, 82
2, 4867, Note_on_c, 0, 64, 66
2, 4867, Note_on_c, 0, 55, 71
2, 4868, Note_on_c, 0, 57, 60
2, 4868, Note_on_c, 0, 88, 74
2, 4869, Note_on_c, 0, 60, 60
2, 4919, Control_c, 0, 64, 127
2, 4932, Note_on_c, 0, 100, 0
2, 4940, Note_on_c, 0, 60, 0
2, 4945, Note_on_c, 0, 55, 0
2, 4946, Note_on_c, 0, 88, 0
2, 4947, Note_on_c, 0, 64, 0
2, 4950, Note_on_c, 0, 57, 0
2, 4986, Note_on_c, 0, 64, 50
2, 4986, Note_on_c, 0, 96, 53
2, 4988, Note_on_c, 0, 55, 48
2, 4989, Note_on_c, 0, 84, 45
2, 4991, Note_on_c, 0, 57, 42
2, 4991, Note_on_c, 0, 60, 50
2, 5014, Control_c, 0, 64, 0
2, 5047, Note_on_c, 0, 96, 0
2, 5055, Control_c, 0, 64, 127
2, 5067, Note_on_c, 0, 84, 0
2, 5079, Note_on_c, 0, 55, 0
2, 5089, Note_on_c, 0, 57, 0
2, 5103, Note_on_c, 0, 55, 40
2, 5126, Note_on_c, 0, 55, 0
2, 5130, Note_on_c, 0, 60, 0
2, 5152, Note_on_c, 0, 64, 0
2, 5168, Note_on_c, 0, 69, 34
2, 5177, Note_on_c, 0, 69, 0
2, 5222, Note_on_c, 0, 65, 50
2, 5225, Note_on_c, 0, 62, 47
2, 5225, Note_on_c, 0, 57, 39
2, 5233, Control_c, 0, 64, 0
2, 5315, Note_on_c, 0, 74, 90
2, 5353, Note_on_c, 0, 75, 58
2, 5364, Note_on_c, 0, 74, 0
2, 5370, Note_on_c, 0, 76, 65
2, 5375, Note_on_c, 0, 75, 0
2, 5384, Note_on_c, 0, 57, 0
2, 5387, Note_on_c, 0, 77, 72
2, 5392, Note_on_c, 0, 76, 0
2, 5398, Note_on_c, 0, 62, 0
2, 5404, Note_on_c, 0, 65, 0
2, 5413, Note_on_c, 0, 77, 0
2, 5434, Note_on_c, 0, 71, 73
2, 5468, Note_on_c, 0, 72, 37
2, 5477, Note_on_c, 0, 71, 0
2, 5481, Note_on_c, 0, 73, 43
2, 5493, Note_on_c, 0, 72, 0
2, 5507, Note_on_c, 0, 74, 71
2, 5508, Note_on_c, 0, 73, 0
2, 5526, Note_on_c, 0, 74, 0
2, 5563, Note_on_c, 0, 71, 33
2, 5573, Note_on_c, 0, 71, 0
2, 5626, Note_on_c, 0, 68, 45
2, 5628, Note_on_c, 0, 65, 32
2, 5634, Note_on_c, 0, 62, 30
2, 5638, Note_on_c, 0, 56, 25
2, 5668, Note_on_c, 0, 65, 0
2, 5672, Note_on_c, 0, 62, 0
2, 5677, Control_c, 0, 64, 127
2, 5681, Note_on_c, 0, 68, 0
2, 5692, Note_on_c, 0, 65, 35
2, 5706, Note_on_c, 0, 56, 0
2, 5736, Note_on_c, 0, 65, 0
2, 5756, Note_on_c, 0, 64, 27
2, 5758, Control_c, 0, 64, 0
2, 5760, Note_on_c, 0, 72, 24
2, 5761, Note_on_c, 0, 59, 27
2, 5761, Note_on_c, 0, 57, 27
2, 5763, Note_on_c, 0, 60, 35
2, 5874, Note_on_c, 0, 59, 0
2, 5876, Control_c, 0, 64, 127
2, 5877, Note_on_c, 0, 57, 0
2, 5878, Note_on_c, 0, 60, 0
2, 5883, Note_on_c, 0, 64, 0
2, 5910, Note_on_c, 0, 72, 0
2, 5917, Control_c, 0, 64, 0
2, 5934, Note_on_c, 0, 64, 35
2, 5941, Note_on_c, 0, 59, 22
2, 5948, Note_on_c, 0, 59, 0
2, 5951, Note_on_c, 0, 64, 0
2, 6002, Control_c, 0, 64, 127
2, 6008, Control_c, 0, 64, 0
2, 6053, Note_on_c, 0, 64, 54
2, 6061, Note_on_c, 0, 59, 34
2, 6071, Note_on_c, 0, 64, 0
2, 6072, Note_on_c, 0, 59, 0
2, 6107, Note_on_c, 0, 82, 67
2, 6109, Note_on_c, 0, 70, 82
2, 6132, Note_on_c, 0, 70, 0
2, 6136, Note_on_c, 0, 82, 0
2, 6144, Note_on_c, 0, 72, 25
2, 6168, Note_on_c, 0, 72, 0
2, 6170, Note_on_c, 0, 83, 39
2, 6198, Note_on_c, 0, 83, 0
2, 6241, Control_c, 0, 64, 127
2, 6292, Note_on_c, 0, 81, 74
2, 6292, Note_on_c, 0, 72, 67
2, 6310, Note_on_c, 0, 72, 0
2, 6316, Note_on_c, 0, 81, 0
2, 6320, Control_c, 0, 64, 0
2, 6349, Control_c, 0, 64, 127
2, 6373, Control_c, 0, 64, 0
2, 6405, Note_on_c, 0, 81, 68
2, 6406, Note_on_c, 0, 50, 47
2, 6408, Note_on_c, 0, 60, 54
2, 6408, Note_on_c, 0, 57, 45
2, 6409, Note_on_c, 0, 69, 62
2, 6417, Note_on_c, 0, 69, 0
2, 6421, Note_on_c, 0, 50, 0
2, 6422, Note_on_c, 0, 60, 0
2, 6426, Note_on_c, 0, 57, 0
2, 6428, Note_on_c, 0, 81, 0
2, 6489, Note_on_c, 0, 53, 57
2, 6489, Note_on_c, 0, 81, 78
2, 6491, Note_on_c, 0, 64, 61
2, 6491, Note_on_c, 0, 69, 74
2, 6491, Note_on_c, 0, 77, 58
2, 6492, Note_on_c, 0, 59, 61
2, 6510, Control_c, 0, 64, 127
2, 6534, Note_on_c, 0, 77, 0
2, 6535, Note_on_c, 0, 81, 0
2, 6536, Note_on_c, 0, 53, 0
2, 6537, Note_on_c, 0, 69, 0
2, 6541, Note_on_c, 0, 64, 0
2, 6546, Note_on_c, 0, 59, 0
2, 6563, Note_on_c, 0, 79, 46
2, 6566, Note_on_c, 0, 67, 57
2, 6566, Note_on_c, 0, 76, 57
2, 6568, Note_on_c, 0, 53, 52
2, 6569, Note_on_c, 0, 59, 44
2, 6569, Note_on_c, 0, 64, 51
2, 6576, Note_on_c, 0, 77, 32
2, 6582, Note_on_c, 0, 67, 0
2, 6586, Note_on_c, 0, 64, 0
2, 6588, Note_on_c, 0, 79, 0
2, 6589, Note_on_c, 0, 77, 0
2, 6590, Note_on_c, 0, 53, 0
2, 6590, Note_on_c, 0, 76, 0
2, 6591, Note_on_c, 0, 59, 0
2, 6645, Note_on_c, 0, 83, 69
2, 6646, Note_on_c, 0, 53, 70
2, 6646, Note_on_c, 0, 64, 68
2, 6647, Note_on_c, 0, 79, 62
2, 6648, Note_on_c, 0, 59, 63
2, 6649, Note_on_c, 0, 71, 71
2, 6653, Note_on_c, 0, 81, 35
2, 6662, Note_on_c, 0, 81, 0
2, 6662, Note_on_c, 0, 64, 0
2, 6663, Note_on_c, 0, 79, 0
2, 6666, Note_on_c, 0, 83, 0
2, 6670, Note_on_c, 0, 59, 0
2, 6673, Note_on_c, 0, 71, 0
2, 6673, Note_on_c, 0, 53, 0
2, 6723, Control_c, 0, 64, 0
2, 6726, Note_on_c, 0, 71, 58
2, 6726, Note_on_c, 0, 76, 54
2, 6728, Note_on_c, 0, 62, 43
2, 6730, Note_on_c, 0, 64, 49
2, 6730, Note_on_c, 0, 55, 51
2, 6731, Note_on_c, 0, 59, 42
2, 6732, Note_on_c, 0, 52, 35
2, 6775, Note_on_c, 0, 64, 0
2, 6794, Note_on_c, 0, 76, 0
2, 6794, Note_on_c, 0, 71, 0
2, 6796, Note_on_c, 0, 62, 0
2, 6799, Note_on_c, 0, 59, 0
2, 6800, Note_on_c, 0, 52, 0
2, 6801, Note_on_c, 0, 55, 0
2, 6805, Note_on_c, 0, 64, 44
2, 6813, Note_on_c, 0, 64, 0
2, 7022, Note_on_c, 0, 62, 54
2, 7026, Note_on_c, 0, 55, 48
2, 7031, Note_on_c, 0, 62, 0
2, 7036, Note_on_c, 0, 55, 0
2, 7086, Note_on_c, 0, 69, 35
2, 7100, Note_on_c, 0, 69, 0
2, 7114, Note_on_c, 0, 70, 45
2, 7126, Note_on_c, 0, 70, 0
2, 7140, Note_on_c, 0, 72, 70
2, 7158, Note_on_c, 0, 72, 0
2, 7165, Note_on_c, 0, 73, 53
2, 7180, Note_on_c, 0, 73, 0
2, 7194, Note_on_c, 0, 77, 64
2, 7213, Note_on_c, 0, 77, 0
2, 7297, Note_on_c, 0, 66, 49
2, 7304, Note_on_c, 0, 61, 32
2, 7310, Note_on_c, 0, 55, 20
2, 7323, Note_on_c, 0, 55, 0
2, 7327, Note_on_c, 0, 61, 0
2, 7327, Note_on_c, 0, 66, 0
2, 7387, Note_on_c, 0, 66, 56
2, 7390, Note_on_c, 0, 61, 37
2, 7394, Note_on_c, 0, 55, 36
2, 7406, Note_on_c, 0, 55, 0
2, 7415, Note_on_c, 0, 61, 0
2, 7415, Note_on_c, 0, 66, 0
2, 7500, Note_on_c, 0, 65, 62
2, 7500, Note_on_c, 0, 55, 60
2, 7501, Note_on_c, 0, 61, 47
2, 7521, Note_on_c, 0, 65, 0
2, 7561, Note_on_c, 0, 88, 80
2, 7566, Note_on_c, 0, 55, 0
2, 7567, Note_on_c, 0, 61, 0
2, 7580, Note_on_c, 0, 88, 0
2, 7591, Note_on_c, 0, 89, 65
2, 7608, Note_on_c, 0, 89, 0
2, 7621, Note_on_c, 0, 90, 73
2, 7643, Note_on_c, 0, 90, 0
2, 7653, Note_on_c, 0, 91, 75
2, 7676, Note_on_c, 0, 91, 0
2, 7679, Note_on_c, 0, 60, 35
2, 7679, Note_on_c, 0, 50, 24
2, 7681, Note_on_c, 0, 93, 79
2, 7682, Note_on_c, 0, 53, 47
2, 7683, Note_on_c, 0, 57, 43
2, 7720, Note_on_c, 0, 93, 0
2, 7724, Note_on_c, 0, 60, 0
2, 7726, Note_on_c, 0, 57, 0
2, 7730, Note_on_c, 0, 53, 0
2, 7732, Note_on_c, 0, 50, 0
2, 7754, Note_on_c, 0, 86, 36
2, 7762, Note_on_c, 0, 86, 0
2, 7809, Note_on_c, 0, 86, 78
2, 7830, Note_on_c, 0, 86, 0
2, 7838, Note_on_c, 0, 88, 38
2, 7857, Note_on_c, 0, 86, 51
2, 7859, Note_on_c, 0, 88, 0
2, 7872, Note_on_c, 0, 86, 0
2, 7872, Note_on_c, 0, 85, 49
2, 7881, Note_on_c, 0, 85, 0
2, 7893, Note_on_c, 0, 86, 58
2, 7909, Note_on_c, 0, 86, 0
2, 7988, Note_on_c, 0, 64, 53
2, 7996, Note_on_c, 0, 64, 0
2, 8042, Note_on_c, 0, 76, 64
2, 8043, Note_on_c, 0, 69, 60
2, 8043, Note_on_c, 0, 65, 57
2, 8044, Note_on_c, 0, 72, 36
2, 8050, Note_on_c, 0, 65, 0
2, 8050, Note_on_c, 0, 69, 0
2, 8053, Note_on_c, 0, 72, 0
2, 8060, Note_on_c, 0, 76, 0
2, 8096, Note_on_c, 0, 53, 54
2, 8114, Note_on_c, 0, 53, 0
2, 8219, Note_on_c, 0, 53, 61
2, 8220, Note_on_c, 0, 64, 55
2, 8222, Note_on_c, 0, 59, 61
2, 8246, Control_c, 0, 64, 127
2, 8288, Note_on_c, 0, 64, 0
2, 8296, Note_on_c, 0, 53, 0
2, 8308, Note_on_c, 0, 59, 0
2, 8343, Note_on_c, 0, 86, 96
2, 8344, Note_on_c, 0, 53, 82
2, 8344, Note_on_c, 0, 74, 94
2, 8344, Note_on_c, 0, 81, 87
2, 8344, Note_on_c, 0, 59, 80
2, 8345, Note_on_c, 0, 64, 89
2, 8376, Note_on_c, 0, 74, 0
2, 8382, Note_on_c, 0, 53, 0
2, 8383, Note_on_c, 0, 86, 0
2, 8384, Note_on_c, 0, 64, 0
2, 8385, Note_on_c, 0, 81, 0
2, 8391, Note_on_c, 0, 59, 0
2, 8403, Control_c, 0, 64, 0
2, 8404, Note_on_c, 0, 83, 87
2, 8405, Note_on_c, 0, 88, 89
2, 8405, Note_on_c, 0, 76, 87
2, 8405, Note_on_c, 0, 53, 80
2, 8406, Note_on_c, 0, 59, 77
2, 8406, Note_on_c, 0, 64, 83
2, 8413, Control_c, 0, 64, 127
2, 8442, Note_on_c, 0, 88, 0
2, 8449, Note_on_c, 0, 53, 0
2, 8450, Note_on_c, 0, 76, 0
2, 8450, Note_on_c, 0, 64, 0
2, 8454, Note_on_c, 0, 83, 0
2, 8455, Note_on_c, 0, 59, 0
2, 8463, Note_on_c, 0, 88, 70
2, 8465, Note_on_c, 0, 76, 74
2, 8465, Note_on_c, 0, 83, 68
2, 8466, Note_on_c, 0, 53, 68
2, 8467, Note_on_c, 0, 64, 71
2, 8469, Note_on_c, 0, 59, 81
2, 8494, Note_on_c, 0, 76, 0
2, 8499, Note_on_c, 0, 53, 0
2, 8500, Note_on_c, 0, 88, 0
2, 8500, Note_on_c, 0, 83, 0
2, 8502, Note_on_c, 0, 64, 0
2, 8508, Note_on_c, 0, 59, 0
2, 8520, Note_on_c, 0, 53, 68
2, 8520, Note_on_c, 0, 89, 84
2, 8520, Note_on_c, 0, 77, 83
2, 8521, Note_on_c, 0, 84, 82
2, 8521, Note_on_c, 0, 64, 74
2, 8521, Note_on_c, 0, 59, 80
2, 8545, Note_on_c, 0, 77, 0
2, 8549, Note_on_c, 0, 84, 0
2, 8552, Note_on_c, 0, 89, 0
2, 8555, Note_on_c, 0, 64, 0
2, 8559, Note_on_c, 0, 53, 0
2, 8562, Note_on_c, 0, 59, 0
2, 8580, Note_on_c, 0, 53, 70
2, 8581, Note_on_c, 0, 88, 89
2, 8582, Note_on_c, 0, 64, 75
2, 8582, Note_on_c, 0, 93, 89
2, 8582, Note_on_c, 0, 59, 66
2, 8583, Note_on_c, 0, 81, 83
2, 8608, Note_on_c, 0, 53, 0
2, 8610, Note_on_c, 0, 64, 0
2, 8611, Note_on_c, 0, 93, 0
2, 8616, Note_on_c, 0, 88, 0
2, 8616, Note_on_c, 0, 81, 0
2, 8620, Note_on_c, 0, 59, 0
2, 8630, Control_c, 0, 64, 0
2, 8637, Note_on_c, 0, 59, 46
2, 8639, Note_on_c, 0, 62, 73
2, 8639, Note_on_c, 0, 52, 59
2, 8640, Note_on_c, 0, 91, 67
2, 8642, Note_on_c, 0, 55, 66
2, 8642, Note_on_c, 0, 86, 76
2, 8643, Note_on_c, 0, 79, 47
2, 8663, Control_c, 0, 64, 127
2, 8692, Note_on_c, 0, 91, 0
2, 8701, Note_on_c, 0, 86, 0
2, 8710, Note_on_c, 0, 79, 0
2, 8717, Note_on_c, 0, 52, 0
2, 8720, Note_on_c, 0, 55, 0
2, 8722, Note_on_c, 0, 62, 0
2, 8725, Note_on_c, 0, 59, 0
2, 8751, Note_on_c, 0, 79, 47
2, 8753, Note_on_c, 0, 84, 49
2, 8755, Note_on_c, 0, 62, 54
2, 8755, Note_on_c, 0, 72, 38
2, 8757, Note_on_c, 0, 52, 37
2, 8758, Control_c, 0, 64, 0
2, 8758, Note_on_c, 0, 59, 40
2, 8760, Note_on_c, 0, 55, 54
2, 8762, Control_c, 0, 64, 127
2, 8795, Note_on_c, 0, 84, 0
2, 8799, Note_on_c, 0, 52, 0
2, 8801, Note_on_c, 0, 55, 0
2, 8802, Note_on_c, 0, 72, 0
2, 8803, Note_on_c, 0, 79, 0
2, 8804, Note_on_c, 0, 62, 0
2, 8809, Note_on_c, 0, 59, 0
2, 8825, Note_on_c, 0, 79, 47
2, 8826, Note_on_c, 0, 84, 50
2, 8826, Note_on_c, 0, 72, 32
2, 8826, Control_c, 0, 64, 0
2, 8828, Note_on_c, 0, 62, 44
2, 8830, Note_on_c, 0, 59, 36
2, 8831, Note_on_c, 0, 52, 30
2, 8831, Note_on_c, 0, 55, 42
2, 8833, Note_on_c, 0, 84, 0
2, 8833, Note_on_c, 0, 79, 0
2, 8836, Note_on_c, 0, 72, 0
2, 8841, Note_on_c, 0, 52, 0
2, 8842, Note_on_c, 0, 59, 0
2, 8843, Note_on_c, 0, 62, 0
2, 8844, Note_on_c, 0, 55, 0
2, 9003, Note_on_c, 0, 67, 62
2, 9008, Note_on_c, 0, 68, 64
2, 9018, Note_on_c, 0, 68, 0
2, 9019, Note_on_c, 0, 69, 78
2, 9022, Note_on_c, 0, 67, 0
2, 9039, Note_on_c, 0, 69, 0
2, 9050, Note_on_c, 0, 72, 82
2, 9074, Note_on_c, 0, 72, 0
2, 9094, Note_on_c, 0, 72, 66
2, 9116, Note_on_c, 0, 72, 0
2, 9126, Note_on_c, 0, 64, 33
2, 9129, Note_on_c, 0, 60, 40
2, 9130, Note_on_c, 0, 53, 19
2, 9132, Note_on_c, 0, 72, 53
2, 9134, Note_on_c, 0, 57, 32
2, 9155, Note_on_c, 0, 72, 0
2, 9169, Note_on_c, 0, 64, 0
2, 9172, Note_on_c, 0, 67, 46
2, 9176, Note_on_c, 0, 68, 46
2, 9185, Note_on_c, 0, 72, 32
2, 9189, Note_on_c, 0, 67, 0
2, 9196, Note_on_c, 0, 68, 0
2, 9198, Note_on_c, 0, 69, 46
2, 9199, Note_on_c, 0, 60, 0
2, 9209, Note_on_c, 0, 72, 0
2, 9217, Note_on_c, 0, 69, 0
2, 9229, Note_on_c, 0, 60, 55
2, 9366, Note_on_c, 0, 60, 0
2, 9366, Control_c, 0, 64, 127
2, 9385, Note_on_c, 0, 57, 0
2, 9407, Note_on_c, 0, 53, 0
2, 9424, Note_on_c, 0, 53, 31
2, 9428, Note_on_c, 0, 57, 40
2, 9482, Note_on_c, 0, 74, 57
2, 9492, Note_on_c, 0, 57, 0
2, 9499, Note_on_c, 0, 53, 0
2, 9502, Note_on_c, 0, 74, 0
2, 9526, Note_on_c, 0, 76, 78
2, 9547, Note_on_c, 0, 76, 0
2, 9571, Note_on_c, 0, 77, 81
2, 9603, Note_on_c, 0, 77, 0
2, 9614, Control_c, 0, 64, 0
2, 9619, Note_on_c, 0, 77, 71
2, 9622, Note_on_c, 0, 57, 53
2, 9624, Note_on_c, 0, 65, 46
2, 9626, Note_on_c, 0, 62, 47
2, 9709, Control_c, 0, 64, 127
2, 9735, Note_on_c, 0, 62, 0
2, 9737, Note_on_c, 0, 65, 0
2, 9740, Note_on_c, 0, 57, 0
2, 9782, Note_on_c, 0, 71, 53
2, 9783, Note_on_c, 0, 57, 41
2, 9786, Note_on_c, 0, 65, 29
2, 9788, Note_on_c, 0, 62, 34
2, 9804, Note_on_c, 0, 57, 0
2, 9805, Note_on_c, 0, 65, 0
2, 9807, Note_on_c, 0, 62, 0
2, 9812, Note_on_c, 0, 71, 0
2, 9841, Note_on_c, 0, 77, 0
2, 9848, Note_on_c, 0, 71, 57
2, 9851, Note_on_c, 0, 57, 31
2, 9853, Note_on_c, 0, 65, 24
2, 9859, Note_on_c, 0, 62, 30
2, 9879, Note_on_c, 0, 71, 0
2, 9952, Note_on_c, 0, 65, 0
2, 9954, Note_on_c, 0, 62, 0
2, 9955, Note_on_c, 0, 57, 0
2, 10016, Note_on_c, 0, 89, 96
2, 10022, Note_on_c, 0, 81, 89
2, 10028, Note_on_c, 0, 57, 38
2, 10029, Note_on_c, 0, 65, 31
2, 10038, Note_on_c, 0, 65, 0
2, 10042, Note_on_c, 0, 57, 0
2, 10050, Note_on_c, 0, 89, 0
2, 10051, Note_on_c, 0, 81, 0
2, 10079, Note_on_c, 0, 89, 78
2, 10079, Note_on_c, 0, 88, 73
2, 10084, Note_on_c, 0, 79, 81
2, 10085, Control_c, 0, 64, 0
2, 10086, Note_on_c, 0, 65, 53
2, 10087, Note_on_c, 0, 56, 42
2, 10090, Note_on_c, 0, 62, 37
2, 10093, Control_c, 0, 64, 127
2, 10100, Note_on_c, 0, 89, 0
2, 10108, Note_on_c, 0, 65, 0
2, 10114, Note_on_c, 0, 56, 0
2, 10117, Note_on_c, 0, 88, 0
2, 10122, Note_on_c, 0, 62, 0
2, 10122, Note_on_c, 0, 79, 0
2, 10139, Note_on_c, 0, 86, 79
2, 10143, Control_c, 0, 64, 0
2, 10145, Note_on_c, 0, 77, 68
2, 10149, Note_on_c, 0, 65, 36
2, 10153, Control_c, 0, 64, 127
2, 10155, Note_on_c, 0, 56, 25
2, 10155, Note_on_c, 0, 62, 32
2, 10168, Note_on_c, 0, 65, 0
2, 10169, Note_on_c, 0, 62, 0
2, 10172, Note_on_c, 0, 56, 0
2, 10175, Note_on_c, 0, 86, 0
2, 10184, Note_on_c, 0, 77, 0
2, 10192, Control_c, 0, 64, 0
2, 10200, Note_on_c, 0, 84, 68
2, 10204, Note_on_c, 0, 76, 57
2, 10206, Note_on_c, 0, 65, 40
2, 10211, Note_on_c, 0, 56, 25
2, 10212, Note_on_c, 0, 62, 33
2, 10219, Control_c, 0, 64, 127
2, 10256, Note_on_c, 0, 84, 0
2, 10264, Note_on_c, 0, 56, 0
2, 10267, Note_on_c, 0, 65, 0
2, 10273, Note_on_c, 0, 76, 0
2, 10286, Note_on_c, 0, 62, 0
2, 10306, Control_c, 0, 64, 0
2, 10308, Control_c, 0, 64, 127
2, 10315, Note_on_c, 0, 83, 44
2, 10319, Note_on_c, 0, 74, 43
2, 10319, Note_on_c, 0, 65, 37
2, 10322, Note_on_c, 0, 56, 23
2, 10327, Note_on_c, 0, 62, 22
2, 10337, Note_on_c, 0, 65, 0
2, 10341, Note_on_c, 0, 56, 0
2, 10343, Note_on_c, 0, 83, 0
2, 10345, Note_on_c, 0, 62, 0
2, 10348, Note_on_c, 0, 74, 0
2, 10374, Note_on_c, 0, 81, 58
2, 10376, Note_on_c, 0, 72, 38
2, 10377, Note_on_c, 0, 65, 36
2, 10378, Note_on_c, 0, 56, 29
2, 10382, Note_on_c, 0, 62, 29
2, 10394, Note_on_c, 0, 65, 0
2, 10397, Note_on_c, 0, 56, 0
2, 10398, Note_on_c, 0, 62, 0
2, 10404, Note_on_c, 0, 81, 0
2, 10408, Note_on_c, 0, 72, 0
2, 10413, Control_c, 0, 64, 0
2, 10435, Note_on_c, 0, 79, 51
2, 10438, Control_c, 0, 64, 127
2, 10440, Note_on_c, 0, 71, 41
2, 10441, Note_on_c, 0, 65, 39
2, 10442, Note_on_c, 0, 56, 32
2, 10444, Note_on_c, 0, 62, 30
2, 10461, Note_on_c, 0, 56, 0
2, 10461, Note_on_c, 0, 65, 0
2, 10464, Note_on_c, 0, 71, 0
2, 10468, Note_on_c, 0, 79, 0
2, 10471, Note_on_c, 0, 62, 0
2, 10494, Note_on_c, 0, 56, 36
2, 10518, Note_on_c, 0, 56, 0
2, 10555, Note_on_c, 0, 64, 38
2, 10556, Note_on_c, 0, 67, 37
2, 10557, Note_on_c, 0, 76, 48
2, 10560, Control_c, 0, 64, 0
2, 10560, Note_on_c, 0, 59, 38
2, 10560, Note_on_c, 0, 60, 44
2, 10563, Note_on_c, 0, 57, 26
2, 10593, Control_c, 0, 64, 127
2, 10624, Note_on_c, 0, 67, 0
2, 10625, Note_on_c, 0, 72, 32
2, 10638, Control_c, 0, 64, 0
2, 10649, Note_on_c, 0, 72, 0
2, 10671, Note_on_c, 0, 76, 0
2, 10678, Note_on_c, 0, 64, 0
2, 10678, Note_on_c, 0, 71, 47
2, 10679, Control_c, 0, 64, 127
2, 10681, Note_on_c, 0, 59, 0
2, 10685, Note_on_c, 0, 57, 0
2, 10686, Note_on_c, 0, 60, 0
2, 10740, Note_on_c, 0, 64, 29
2, 10744, Note_on_c, 0, 59, 24
2, 10747, Note_on_c, 0, 60, 28
2, 10752, Note_on_c, 0, 59, 0
2, 10753, Note_on_c, 0, 64, 0
2, 10757, Note_on_c, 0, 60, 0
2, 10856, Note_on_c, 0, 64, 39
2, 10864, Note_on_c, 0, 59, 33
2, 10865, Note_on_c, 0, 71, 0
2, 10865, Note_on_c, 0, 60, 35
2, 10868, Note_on_c, 0, 57, 29
2, 10952, Note_on_c, 0, 59, 0
2, 10953, Note_on_c, 0, 57, 0
2, 10953, Note_on_c, 0, 60, 0
2, 10958, Note_on_c, 0, 64, 0
2, 11046, Note_on_c, 0, 57, 31
2, 11047, Note_on_c, 0, 65, 27
2, 11049, Note_on_c, 0, 62, 33
2, 11095, Control_c, 0, 64, 0
2, 11134, Note_on_c, 0, 65, 0
2, 11136, Note_on_c, 0, 62, 0
2, 11136, Note_on_c, 0, 57, 0
2, 11284, Note_on_c, 0, 56, 71
2, 11415, Control_c, 0, 64, 127
2, 11466, Note_on_c, 0, 56, 0
2, 11524, Control_c, 0, 64, 0
2, 11528, Note_on_c, 0, 64, 43
2, 11531, Note_on_c, 0, 59, 38
2, 11531, Note_on_c, 0, 60, 45
2, 11532, Note_on_c, 0, 57, 36
2, 11644, Control_c, 0, 64, 127
2, 11652, Note_on_c, 0, 95, 69
2, 11655, Control_c, 0, 64, 0
2, 11671, Note_on_c, 0, 95, 0
2, 11681, Note_on_c, 0, 98, 78
2, 11706, Note_on_c, 0, 96, 65
2, 11709, Note_on_c, 0, 98, 0
2, 11728, Note_on_c, 0, 96, 0
2, 11734, Note_on_c, 0, 92, 57
2, 11749, Note_on_c, 0, 92, 0
2, 11760, Note_on_c, 0, 95, 51
2, 11784, Note_on_c, 0, 95, 0
2, 11790, Note_on_c, 0, 92, 45
2, 11795, Note_on_c, 0, 59, 0
2, 11797, Note_on_c, 0, 60, 0
2, 11802, Note_on_c, 0, 57, 0
2, 11805, Note_on_c, 0, 92, 0
2, 11809, Note_on_c, 0, 64, 0
2, 11822, Note_on_c, 0, 93, 60
2, 11842, Note_on_c, 0, 93, 0
2, 11850, Note_on_c, 0, 88, 58
2, 11861, Note_on_c, 0, 88, 0
2, 11884, Note_on_c, 0, 88, 42
2, 11895, Note_on_c, 0, 88, 0
2, 11940, Note_on_c, 0, 88, 63
2, 11951, Note_on_c, 0, 88, 0
2, 11999, Note_on_c, 0, 88, 67
2, 12028, Note_on_c, 0, 88, 0
2, 12033, Note_on_c, 0, 89, 51
2, 12053, Note_on_c, 0, 89, 0
2, 12053, Note_on_c, 0, 88, 45
2, 12067, Note_on_c, 0, 86, 39
2, 12068, Note_on_c, 0, 88, 0
2, 12078, Note_on_c, 0, 86, 0
2, 12092, Note_on_c, 0, 88, 46
2, 12107, Note_on_c, 0, 88, 0
2, 12173, Note_on_c, 0, 65, 54
2, 12175, Note_on_c, 0, 57, 43
2, 12177, Note_on_c, 0, 62, 41
2, 12184, Note_on_c, 0, 65, 0
2, 12185, Note_on_c, 0, 57, 0
2, 12186, Note_on_c, 0, 62, 0
2, 12240, Note_on_c, 0, 56, 55
2, 12243, Note_on_c, 0, 65, 37
2, 12246, Note_on_c, 0, 62, 28
2, 12252, Note_on_c, 0, 65, 0
2, 12253, Note_on_c, 0, 56, 0
2, 12255, Note_on_c, 0, 62, 0
2, 12301, Note_on_c, 0, 56, 76
2, 12302, Note_on_c, 0, 65, 78
2, 12304, Note_on_c, 0, 62, 68
2, 12343, Note_on_c, 0, 65, 0
2, 12344, Note_on_c, 0, 56, 0
2, 12351, Note_on_c, 0, 62, 0
2, 12355, Control_c, 0, 64, 127
2, 12362, Note_on_c, 0, 92, 67
2, 12364, Note_on_c, 0, 80, 68
2, 12366, Note_on_c, 0, 56, 68
2, 12368, Note_on_c, 0, 65, 65
2, 12368, Note_on_c, 0, 62, 69
2, 12379, Note_on_c, 0, 65, 0
2, 12379, Note_on_c, 0, 80, 0
2, 12382, Note_on_c, 0, 56, 0
2, 12385, Note_on_c, 0, 92, 0
2, 12387, Note_on_c, 0, 62, 0
2, 12426, Note_on_c, 0, 95, 92
2, 12426, Note_on_c, 0, 56, 80
2, 12427, Note_on_c, 0, 83, 94
2, 12428, Note_on_c, 0, 65, 90
2, 12428, Note_on_c, 0, 62, 80
2, 12434, Note_on_c, 0, 90, 33
2, 12435, Note_on_c, 0, 62, 0
2, 12439, Note_on_c, 0, 83, 0
2, 12440, Note_on_c, 0, 65, 0
2, 12441, Note_on_c, 0, 90, 0
2, 12445, Note_on_c, 0, 95, 0
2, 12453, Note_on_c, 0, 56, 0
2, 12481, Control_c, 0, 64, 0
2, 12484, Note_on_c, 0, 88, 84
2, 12485, Note_on_c, 0, 76, 80
2, 12486, Note_on_c, 0, 57, 69
2, 12487, Note_on_c, 0, 64, 66
2, 12488, Note_on_c, 0, 60, 70
2, 12489, Note_on_c, 0, 87, 59
2, 12489, Note_on_c, 0, 62, 68
2, 12496, Note_on_c, 0, 62, 0
2, 12496, Note_on_c, 0, 87, 0
2, 12516, Control_c, 0, 64, 127
2, 12527, Note_on_c, 0, 64, 0
2, 12531, Note_on_c, 0, 88, 0
2, 12532, Note_on_c, 0, 57, 0
2, 12534, Note_on_c, 0, 60, 0
2, 12537, Note_on_c, 0, 76, 0
2, 12547, Note_on_c, 0, 64, 49
2, 12547, Note_on_c, 0, 76, 36
2, 12548, Note_on_c, 0, 88, 55
2, 12550, Note_on_c, 0, 57, 52
2, 12552, Note_on_c, 0, 60, 63
2, 12572, Note_on_c, 0, 64, 0
2, 12573, Note_on_c, 0, 57, 0
2, 12574, Note_on_c, 0, 88, 0
2, 12577, Note_on_c, 0, 76, 0
2, 12577, Note_on_c, 0, 60, 0
2, 12603, Note_on_c, 0, 64, 67
2, 12604, Note_on_c, 0, 60, 70
2, 12604, Note_on_c, 0, 88, 71
2, 12605, Note_on_c, 0, 76, 67
2, 12614, Note_on_c, 0, 57, 29
2, 12626, Control_c, 0, 64, 0
2, 12632, Note_on_c, 0, 57, 0
2, 12641, Note_on_c, 0, 76, 0
2, 12643, Note_on_c, 0, 88, 0
2, 12643, Note_on_c, 0, 64, 0
2, 12646, Note_on_c, 0, 60, 0
2, 12665, Note_on_c, 0, 64, 67
2, 12666, Note_on_c, 0, 56, 63
2, 12667, Note_on_c, 0, 60, 64
2, 12669, Note_on_c, 0, 76, 58
2, 12670, Note_on_c, 0, 88, 54
2, 12725, Control_c, 0, 64, 127
2, 12755, Note_on_c, 0, 88, 0
2, 12755, Note_on_c, 0, 56, 0
2, 12757, Note_on_c, 0, 64, 0
2, 12757, Note_on_c, 0, 60, 0
2, 12760, Note_on_c, 0, 76, 0
2, 12792, Note_on_c, 0, 56, 47
2, 12792, Note_on_c, 0, 88, 39
2, 12793, Note_on_c, 0, 76, 38
2, 12793, Note_on_c, 0, 64, 43
2, 12798, Note_on_c, 0, 60, 39
2, 12824, Note_on_c, 0, 88, 0
2, 12845, Note_on_c, 0, 76, 0
2, 12875, Note_on_c, 0, 56, 0
2, 12901, Note_on_c, 0, 60, 0
2, 12926, Note_on_c, 0, 64, 0
2, 12960, Control_c, 0, 64, 0
2, 12963, Note_on_c, 0, 65, 53
2, 12966, Note_on_c, 0, 57, 45
2, 12967, Note_on_c, 0, 62, 51
2, 13027, Note_on_c, 0, 69, 51
2, 13053, Note_on_c, 0, 69, 0
2, 13078, Control_c, 0, 64, 127
2, 13083, Note_on_c, 0, 74, 63
2, 13084, Note_on_c, 0, 65, 0
2, 13091, Note_on_c, 0, 62, 0
2, 13110, Note_on_c, 0, 74, 0
2, 13114, Note_on_c, 0, 57, 0
2, 13147, Note_on_c, 0, 77, 75
2, 13168, Note_on_c, 0, 77, 0
2, 13198, Control_c, 0, 64, 0
2, 13207, Note_on_c, 0, 62, 35
2, 13208, Note_on_c, 0, 72, 27
2, 13209, Note_on_c, 0, 71, 34
2, 13209, Note_on_c, 0, 67, 32
2, 13209, Note_on_c, 0, 56, 38
2, 13211, Note_on_c, 0, 64, 24
2, 13222, Note_on_c, 0, 64, 0
2, 13227, Note_on_c, 0, 72, 0
2, 13243, Note_on_c, 0, 71, 0
2, 13244, Note_on_c, 0, 62, 0
2, 13254, Note_on_c, 0, 67, 0
2, 13262, Control_c, 0, 64, 127
2, 13263, Note_on_c, 0, 74, 51
2, 13266, Note_on_c, 0, 59, 64
2, 13272, Note_on_c, 0, 74, 0
2, 13320, Note_on_c, 0, 59, 0
2, 13322, Note_on_c, 0, 56, 0
2, 13323, Note_on_c, 0, 77, 58
2, 13323, Note_on_c, 0, 62, 69
2, 13324, Note_on_c, 0, 68, 69
2, 13327, Note_on_c, 0, 74, 58
2, 13337, Note_on_c, 0, 74, 0
2, 13342, Note_on_c, 0, 68, 0
2, 13346, Note_on_c, 0, 77, 0
2, 13362, Note_on_c, 0, 62, 0
2, 13372, Note_on_c, 0, 64, 67
2, 13381, Note_on_c, 0, 64, 0
2, 13381, Note_on_c, 0, 81, 74
2, 13405, Note_on_c, 0, 81, 0
2, 13443, Note_on_c, 0, 82, 80
2, 13444, Note_on_c, 0, 70, 83
2, 13445, Note_on_c, 0, 62, 74
2, 13446, Note_on_c, 0, 52, 64
2, 13446, Note_on_c, 0, 58, 58
2, 13446, Note_on_c, 0, 74, 74
2, 13453, Control_c, 0, 64, 0
2, 13556, Control_c, 0, 64, 127
2, 13569, Note_on_c, 0, 52, 0
2, 13570, Note_on_c, 0, 62, 0
2, 13574, Note_on_c, 0, 58, 0
2, 13592, Note_on_c, 0, 74, 0
2, 13614, Note_on_c, 0, 70, 0
2, 13615, Note_on_c, 0, 82, 0
2, 13623, Note_on_c, 0, 62, 60
2, 13624, Note_on_c, 0, 58, 42
2, 13630, Note_on_c, 0, 62, 0
2, 13633, Note_on_c, 0, 58, 0
2, 13671, Control_c, 0, 64, 0
2, 13686, Note_on_c, 0, 75, 88
2, 13688, Note_on_c, 0, 69, 92
2, 13689, Note_on_c, 0, 62, 91
2, 13689, Note_on_c, 0, 58, 78
2, 13690, Note_on_c, 0, 73, 55
2, 13690, Note_on_c, 0, 81, 76
2, 13691, Note_on_c, 0, 52, 78
2, 13692, Note_on_c, 0, 76, 80
2, 13693, Note_on_c, 0, 79, 42
2, 13693, Note_on_c, 0, 51, 36
2, 13696, Note_on_c, 0, 73, 0
2, 13697, Note_on_c, 0, 75, 0
2, 13700, Note_on_c, 0, 51, 0
2, 13729, Note_on_c, 0, 69, 0
2, 13738, Note_on_c, 0, 76, 0
2, 13739, Note_on_c, 0, 58, 0
2, 13740, Note_on_c, 0, 79, 0
2, 13740, Note_on_c, 0, 81, 0
2, 13741, Note_on_c, 0, 52, 0
2, 13741, Note_on_c, 0, 62, 0
2, 13768, Note_on_c, 0, 52, 44
2, 13768, Note_on_c, 0, 62, 56
2, 13768, Note_on_c, 0, 58, 58
2, 13768, Note_on_c, 0, 79, 63
2, 13771, Note_on_c, 0, 75, 64
2, 13772, Note_on_c, 0, 67, 66
2, 13796, Note_on_c, 0, 67, 0
2, 13797, Note_on_c, 0, 75, 0
2, 13801, Note_on_c, 0, 76, 46
2, 13802, Note_on_c, 0, 52, 0
2, 13807, Note_on_c, 0, 58, 0
2, 13808, Note_on_c, 0, 62, 0
2, 13812, Note_on_c, 0, 79, 0
2, 13813, Note_on_c, 0, 76, 0
2, 13856, Note_on_c, 0, 75, 67
2, 13858, Note_on_c, 0, 55, 66
2, 13858, Note_on_c, 0, 67, 70
2, 13860, Note_on_c, 0, 79, 55
2, 13862, Note_on_c, 0, 64, 47
2, 13863, Note_on_c, 0, 61, 43
2, 13893, Note_on_c, 0, 67, 0
2, 13896, Note_on_c, 0, 75, 0
2, 13896, Note_on_c, 0, 76, 50
2, 13905, Note_on_c, 0, 55, 0
2, 13906, Note_on_c, 0, 64, 0
2, 13906, Note_on_c, 0, 76, 0
2, 13908, Note_on_c, 0, 79, 0
2, 13914, Note_on_c, 0, 61, 0
2, 13942, Note_on_c, 0, 67, 60
2, 13942, Note_on_c, 0, 75, 49
2, 13942, Note_on_c, 0, 79, 45
2, 13945, Note_on_c, 0, 55, 60
2, 13946, Note_on_c, 0, 64, 41
2, 13947, Note_on_c, 0, 61, 39
2, 13984, Note_on_c, 0, 76, 54
2, 13986, Note_on_c, 0, 75, 0
2, 13987, Note_on_c, 0, 67, 0
2, 13991, Note_on_c, 0, 55, 0
2, 13994, Note_on_c, 0, 76, 0
2, 13995, Note_on_c, 0, 61, 0
2, 13995, Note_on_c, 0, 64, 0
2, 13996, Note_on_c, 0, 79, 0
2, 14060, Control_c, 0, 64, 127
2, 14162, Note_on_c, 0, 89, 91
2, 14163, Note_on_c, 0, 77, 94
2, 14163, Note_on_c, 0, 84, 92
2, 14165, Note_on_c, 0, 61, 86
2, 14166, Note_on_c, 0, 55, 91
2, 14166, Note_on_c, 0, 64, 87
2, 14171, Note_on_c, 0, 62, 55
2, 14178, Note_on_c, 0, 62, 0
2, 14187, Note_on_c, 0, 64, 0
2, 14189, Note_on_c, 0, 84, 0
2, 14191, Note_on_c, 0, 77, 0
2, 14195, Note_on_c, 0, 55, 0
2, 14195, Note_on_c, 0, 89, 0
2, 14203, Note_on_c, 0, 89, 67
2, 14203, Note_on_c, 0, 55, 57
2, 14205, Note_on_c, 0, 64, 75
2, 14205, Note_on_c, 0, 77, 67
2, 14206, Note_on_c, 0, 84, 69
2, 14228, Note_on_c, 0, 64, 0
2, 14229, Note_on_c, 0, 84, 0
2, 14230, Note_on_c, 0, 55, 0
2, 14230, Note_on_c, 0, 77, 0
2, 14232, Note_on_c, 0, 89, 0
2, 14233, Note_on_c, 0, 61, 0
2, 14250, Control_c, 0, 64, 0
2, 14258, Note_on_c, 0, 88, 79
2, 14260, Note_on_c, 0, 61, 77
2, 14260, Note_on_c, 0, 83, 74
2, 14260, Note_on_c, 0, 64, 80
2, 14261, Note_on_c, 0, 76, 70
2, 14261, Note_on_c, 0, 55, 80
2, 14273, Note_on_c, 0, 76, 0
2, 14275, Note_on_c, 0, 64, 0
2, 14275, Note_on_c, 0, 55, 0
2, 14276, Note_on_c, 0, 88, 0
2, 14276, Note_on_c, 0, 83, 0
2, 14276, Note_on_c, 0, 61, 0
2, 14291, Note_on_c, 0, 83, 58
2, 14291, Note_on_c, 0, 88, 69
2, 14291, Note_on_c, 0, 76, 48
2, 14292, Note_on_c, 0, 64, 55
2, 14292, Control_c, 0, 64, 127
2, 14294, Note_on_c, 0, 61, 48
2, 14294, Note_on_c, 0, 55, 69
2, 14302, Note_on_c, 0, 76, 0
2, 14303, Note_on_c, 0, 64, 0
2, 14304, Note_on_c, 0, 55, 0
2, 14307, Note_on_c, 0, 83, 0
2, 14307, Note_on_c, 0, 61, 0
2, 14315, Note_on_c, 0, 88, 0
2, 14317, Control_c, 0, 64, 0
2, 14349, Note_on_c, 0, 59, 62
2, 14350, Note_on_c, 0, 93, 78
2, 14350, Note_on_c, 0, 50, 44
2, 14350, Note_on_c, 0, 88, 75
2, 14351, Note_on_c, 0, 81, 68
2, 14359, Note_on_c, 0, 81, 0
2, 14360, Note_on_c, 0, 59, 0
2, 14364, Note_on_c, 0, 88, 0
2, 14364, Note_on_c, 0, 50, 0
2, 14366, Note_on_c, 0, 93, 0
2, 14384, Note_on_c, 0, 50, 64
2, 14386, Note_on_c, 0, 93, 72
2, 14386, Note_on_c, 0, 88, 70
2, 14387, Note_on_c, 0, 81, 68
2, 14388, Note_on_c, 0, 53, 55
2, 14389, Note_on_c, 0, 60, 63
2, 14392, Note_on_c, 0, 57, 47
2, 14394, Control_c, 0, 64, 127
2, 14400, Note_on_c, 0, 57, 0
2, 14400, Note_on_c, 0, 60, 0
2, 14403, Note_on_c, 0, 93, 0
2, 14405, Note_on_c, 0, 88, 0
2, 14408, Note_on_c, 0, 81, 0
2, 14410, Note_on_c, 0, 50, 0
2, 14412, Note_on_c, 0, 53, 0
2, 14423, Control_c, 0, 64, 0
2, 14439, Note_on_c, 0, 89, 71
2, 14442, Note_on_c, 0, 77, 32
2, 14443, Note_on_c, 0, 84, 57
2, 14444, Note_on_c, 0, 61, 68
2, 14445, Note_on_c, 0, 53, 40
2, 14447, Note_on_c, 0, 57, 50
2, 14449, Note_on_c, 0, 50, 26
2, 14451, Note_on_c, 0, 84, 0
2, 14455, Note_on_c, 0, 57, 0
2, 14456, Note_on_c, 0, 77, 0
2, 14457, Note_on_c, 0, 89, 0
2, 14458, Note_on_c, 0, 50, 0
2, 14459, Note_on_c, 0, 61, 0
2, 14462, Note_on_c, 0, 53, 0
2, 14470, Control_c, 0, 64, 127
2, 14471, Note_on_c, 0, 61, 37
2, 14471, Note_on_c, 0, 89, 58
2, 14473, Note_on_c, 0, 77, 54
2, 14475, Note_on_c, 0, 84, 61
2, 14477, Note_on_c, 0, 57, 35
2, 14478, Note_on_c, 0, 50, 11
2, 14478, Note_on_c, 0, 53, 20
2, 14491, Note_on_c, 0, 84, 0
2, 14493, Note_on_c, 0, 89, 0
2, 14493, Control_c, 0, 64, 0
2, 14495, Note_on_c, 0, 50, 0
2, 14496, Note_on_c, 0, 57, 0
2, 14501, Note_on_c, 0, 77, 0
2, 14502, Note_on_c, 0, 61, 0
2, 14503, Note_on_c, 0, 53, 0
2, 14523, Note_on_c, 0, 88, 54
2, 14525, Note_on_c, 0, 50, 42
2, 14525, Note_on_c, 0, 60, 53
2, 14526, Control_c, 0, 64, 127
2, 14526, Note_on_c, 0, 83, 57
2, 14527, Note_on_c, 0, 53, 32
2, 14527, Note_on_c, 0, 57, 36
2, 14528, Note_on_c, 0, 76, 43
2, 14551, Note_on_c, 0, 88, 0
2, 14569, Note_on_c, 0, 83, 0
2, 14572, Note_on_c, 0, 57, 0
2, 14575, Note_on_c, 0, 76, 0
2, 14581, Note_on_c, 0, 50, 0
2, 14582, Note_on_c, 0, 53, 0
2, 14583, Note_on_c, 0, 60, 0
2, 14651, Note_on_c, 0, 84, 45
2, 14654, Note_on_c, 0, 60, 34
2, 14655, Note_on_c, 0, 79, 34
2, 14656, Note_on_c, 0, 72, 19
2, 14657, Note_on_c, 0, 53, 30
2, 14658, Note_on_c, 0, 50, 20
2, 14658, Note_on_c, 0, 57, 39
2, 14662, Control_c, 0, 64, 0
2, 14704, Control_c, 0, 64, 127
2, 14711, Note_on_c, 0, 84, 0
2, 14718, Note_on_c, 0, 79, 0
2, 14732, Note_on_c, 0, 72, 0
2, 14743, Control_c, 0, 64, 0
2, 14773, Note_on_c, 0, 50, 0
2, 14774, Note_on_c, 0, 60, 0
2, 14778, Control_c, 0, 64, 127
2, 14819, Note_on_c, 0, 76, 82
2, 14820, Note_on_c, 0, 69, 83
2, 14821, Note_on_c, 0, 65, 81
2, 14822, Note_on_c, 0, 61, 79
2, 14859, Note_on_c, 0, 76, 0
2, 14864, Note_on_c, 0, 69, 0
2, 14866, Note_on_c, 0, 65, 0
2, 14868, Note_on_c, 0, 61, 0
2, 14873, Control_c, 0, 64, 0
2, 14880, Note_on_c, 0, 53, 0
2, 14881, Note_on_c, 0, 74, 60
2, 14883, Note_on_c, 0, 65, 53
2, 14883, Note_on_c, 0, 60, 62
2, 14884, Note_on_c, 0, 69, 54
2, 14900, Note_on_c, 0, 57, 0
2, 14927, Note_on_c, 0, 69, 0
2, 14931, Note_on_c, 0, 74, 0
2, 14939, Note_on_c, 0, 65, 0
2, 14941, Note_on_c, 0, 60, 0
2, 14944, Control_c, 0, 64, 127
2, 14944, Note_on_c, 0, 57, 35
2, 14954, Control_c, 0, 64, 0
2, 14992, Note_on_c, 0, 57, 0
2, 14997, Note_on_c, 0, 50, 39
2, 15002, Control_c, 0, 64, 127
2, 15062, Control_c, 0, 64, 0
2, 15064, Note_on_c, 0, 64, 50
2, 15065, Note_on_c, 0, 69, 47
2, 15067, Note_on_c, 0, 57, 43
2, 15067, Note_on_c, 0, 65, 51
2, 15101, Control_c, 0, 64, 127
2, 15155, Note_on_c, 0, 50, 0
2, 15174, Note_on_c, 0, 64, 0
2, 15181, Note_on_c, 0, 65, 0
2, 15189, Note_on_c, 0, 62, 35
2, 15215, Note_on_c, 0, 57, 0
2, 15227, Note_on_c, 0, 62, 0
2, 15233, Note_on_c, 0, 69, 0
2, 15355, Control_c, 0, 64, 0
2, 15357, Note_on_c, 0, 53, 51
2, 15358, Note_on_c, 0, 50, 48
2, 15360, Note_on_c, 0, 62, 44
2, 15362, Note_on_c, 0, 57, 41
2, 15374, Note_on_c, 0, 57, 0
2, 15375, Note_on_c, 0, 53, 0
2, 15379, Note_on_c, 0, 50, 0
2, 15381, Note_on_c, 0, 62, 0
2, 15398, Note_on_c, 0, 49, 20
2, 15419, Note_on_c, 0, 53, 47
2, 15421, Note_on_c, 0, 49, 0
2, 15422, Note_on_c, 0, 57, 50
2, 15423, Note_on_c, 0, 62, 42
2, 15424, Note_on_c, 0, 50, 36
2, 15437, Note_on_c, 0, 53, 0
2, 15441, Note_on_c, 0, 57, 0
2, 15449, Note_on_c, 0, 50, 0
2, 15453, Note_on_c, 0, 62, 0
2, 15548, Note_on_c, 0, 74, 79
2, 15558, Control_c, 0, 64, 127
2, 15570, Control_c, 0, 64, 0
2, 15595, Note_on_c, 0, 74, 0
2, 15607, Note_on_c, 0, 65, 40
2, 15611, Note_on_c, 0, 69, 33
2, 15615, Control_c, 0, 64, 127
2, 15666, Note_on_c, 0, 48, 46
2, 15672, Note_on_c, 0, 57, 24
2, 15676, Note_on_c, 0, 48, 0
2, 15683, Note_on_c, 0, 57, 0
2, 15700, Control_c, 0, 64, 0
2, 15737, Control_c, 0, 64, 127
2, 15744, Note_on_c, 0, 65, 0
2, 15771, Note_on_c, 0, 69, 0
2, 15846, Note_on_c, 0, 65, 51
2, 15849, Note_on_c, 0, 57, 36
2, 15851, Control_c, 0, 64, 0
2, 15852, Note_on_c, 0, 62, 54
2, 15963, Control_c, 0, 64, 127
2, 15967, Control_c, 0, 64, 0
2, 16019, Note_on_c, 0, 71, 68
2, 16039, Note_on_c, 0, 71, 0
2, 16055, Note_on_c, 0, 76, 78
2, 16070, Note_on_c, 0, 76, 0
2, 16075, Note_on_c, 0, 57, 0
2, 16076, Note_on_c, 0, 65, 0
2, 16078, Note_on_c, 0, 62, 0
2, 16130, Note_on_c, 0, 71, 68
2, 16143, Note_on_c, 0, 71, 0
2, 16204, Note_on_c, 0, 78, 46
2, 16205, Note_on_c, 0, 56, 53
2, 16206, Note_on_c, 0, 67, 47
2, 16211, Note_on_c, 0, 78, 0
2, 16212, Note_on_c, 0, 77, 32
2, 16214, Note_on_c, 0, 62, 52
2, 16214, Note_on_c, 0, 65, 28
2, 16221, Note_on_c, 0, 65, 0
2, 16221, Note_on_c, 0, 77, 0
2, 16264, Note_on_c, 0, 77, 88
2, 16278, Note_on_c, 0, 67, 0
2, 16285, Note_on_c, 0, 62, 0
2, 16294, Note_on_c, 0, 77, 0
2, 16315, Note_on_c, 0, 56, 0
2, 16324, Note_on_c, 0, 76, 89
2, 16340, Note_on_c, 0, 64, 42
2, 16341, Note_on_c, 0, 59, 35
2, 16344, Note_on_c, 0, 60, 44
2, 16350, Note_on_c, 0, 76, 0
2, 16351, Note_on_c, 0, 57, 30
2, 16375, Note_on_c, 0, 74, 74
2, 16407, Note_on_c, 0, 74, 0
2, 16408, Note_on_c, 0, 72, 42
2, 16427, Note_on_c, 0, 72, 0
2, 16438, Note_on_c, 0, 71, 46
2, 16464, Note_on_c, 0, 71, 0
2, 16476, Note_on_c, 0, 74, 63
2, 16507, Note_on_c, 0, 72, 63
2, 16515, Note_on_c, 0, 74, 0
2, 16532, Note_on_c, 0, 72, 0
2, 16567, Note_on_c, 0, 69, 32
2, 16570, Control_c, 0, 64, 127
2, 16576, Control_c, 0, 64, 0
2, 16582, Note_on_c, 0, 64, 0
2, 16608, Note_on_c, 0, 69, 0
2, 16613, Note_on_c, 0, 59, 0
2, 16617, Control_c, 0, 64, 127
2, 16626, Note_on_c, 0, 67, 45
2, 16641, Note_on_c, 0, 57, 0
2, 16643, Note_on_c, 0, 67, 0
2, 16647, Note_on_c, 0, 60, 0
2, 16655, Control_c, 0, 64, 0
2, 16690, Note_on_c, 0, 64, 19
2, 16694, Note_on_c, 0, 60, 34
2, 16737, Control_c, 0, 64, 127
2, 16742, Note_on_c, 0, 55, 38
2, 16756, Note_on_c, 0, 55, 0
2, 16757, Note_on_c, 0, 64, 0
2, 16761, Note_on_c, 0, 60, 0
2, 17037, Control_c, 0, 64, 0
2, 17042, Note_on_c, 0, 67, 82
2, 17043, Note_on_c, 0, 81, 85
2, 17043, Note_on_c, 0, 63, 62
2, 17043, Note_on_c, 0, 62, 76
2, 17043, Note_on_c, 0, 77, 80
2, 17044, Note_on_c, 0, 57, 74
2, 17044, Note_on_c, 0, 74, 84
2, 17044, Note_on_c, 0, 69, 91
2, 17071, Control_c, 0, 64, 127
2, 17091, Note_on_c, 0, 69, 0
2, 17091, Note_on_c, 0, 57, 0
2, 17092, Note_on_c, 0, 67, 0
2, 17093, Note_on_c, 0, 81, 0
2, 17094, Note_on_c, 0, 62, 0
2, 17094, Note_on_c, 0, 74, 0
2, 17097, Note_on_c, 0, 63, 0
2, 17099, Note_on_c, 0, 77, 0
2, 17108, Note_on_c, 0, 81, 71
2, 17109, Note_on_c, 0, 63, 62
2, 17109, Note_on_c, 0, 57, 64
2, 17109, Note_on_c, 0, 67, 63
2, 17109, Note_on_c, 0, 74, 62
2, 17111, Note_on_c, 0, 77, 63
2, 17111, Note_on_c, 0, 62, 79
2, 17112, Note_on_c, 0, 69, 70
2, 17141, Note_on_c, 0, 69, 0
2, 17141, Note_on_c, 0, 67, 0
2, 17142, Note_on_c, 0, 57, 0
2, 17148, Note_on_c, 0, 62, 0
2, 17149, Note_on_c, 0, 63, 0
2, 17150, Note_on_c, 0, 81, 0
2, 17152, Note_on_c, 0, 74, 0
2, 17153, Note_on_c, 0, 77, 0
2, 17231, Note_on_c, 0, 57, 40
2, 17242, Note_on_c, 0, 57, 0
2, 17278, Control_c, 0, 64, 0
2, 17280, Note_on_c, 0, 76, 83
2, 17282, Note_on_c, 0, 69, 91
2, 17283, Note_on_c, 0, 71, 83
2, 17284, Note_on_c, 0, 64, 82
2, 17316, Note_on_c, 0, 69, 0
2, 17317, Note_on_c, 0, 64, 0
2, 17318, Note_on_c, 0, 71, 0
2, 17318, Note_on_c, 0, 76, 0
2, 17341, Note_on_c, 0, 64, 42
2, 17343, Note_on_c, 0, 76, 50
2, 17343, Note_on_c, 0, 69, 60
2, 17345, Note_on_c, 0, 71, 65
2, 17365, Note_on_c, 0, 69, 0
2, 17366, Note_on_c, 0, 71, 0
2, 17366, Note_on_c, 0, 64, 0
2, 17370, Note_on_c, 0, 76, 0
2, 17401, Note_on_c, 0, 69, 64
2, 17401, Note_on_c, 0, 76, 61
2, 17403, Note_on_c, 0, 64, 54
2, 17403, Note_on_c, 0, 71, 66
2, 17425, Control_c, 0, 64, 127
2, 17452, Note_on_c, 0, 71, 0
2, 17455, Note_on_c, 0, 69, 0
2, 17455, Note_on_c, 0, 76, 0
2, 17469, Note_on_c, 0, 64, 0
2, 17524, Note_on_c, 0, 69, 66
2, 17525, Note_on_c, 0, 71, 62
2, 17526, Note_on_c, 0, 76, 50
2, 17529, Note_on_c, 0, 64, 43
2, 17530, Control_c, 0, 64, 0
2, 17535, Note_on_c, 0, 71, 0
2, 17535, Note_on_c, 0, 69, 0
2, 17538, Note_on_c, 0, 76, 0
2, 17538, Note_on_c, 0, 64, 0
2, 17584, Note_on_c, 0, 76, 67
2, 17585, Note_on_c, 0, 69, 68
2, 17587, Note_on_c, 0, 71, 60
2, 17588, Note_on_c, 0, 64, 48
2, 17594, Note_on_c, 0, 71, 0
2, 17595, Note_on_c, 0, 69, 0
2, 17597, Note_on_c, 0, 64, 0
2, 17601, Note_on_c, 0, 76, 0
2, 17644, Control_c, 0, 64, 127
2, 17646, Note_on_c, 0, 69, 77
2, 17647, Note_on_c, 0, 76, 64
2, 17647, Note_on_c, 0, 71, 66
2, 17647, Note_on_c, 0, 64, 59
2, 17674, Note_on_c, 0, 71, 0
2, 17686, Note_on_c, 0, 69, 0
2, 17687, Note_on_c, 0, 76, 0
2, 17708, Note_on_c, 0, 64, 0
2, 17711, Note_on_c, 0, 68, 75
2, 17711, Note_on_c, 0, 76, 75
2, 17713, Note_on_c, 0, 70, 73
2, 17714, Note_on_c, 0, 56, 60
2, 17715, Control_c, 0, 64, 0
2, 17716, Note_on_c, 0, 62, 66
2, 17742, Note_on_c, 0, 68, 0
2, 17745, Control_c, 0, 64, 127
2, 17755, Note_on_c, 0, 70, 0
2, 17761, Note_on_c, 0, 76, 0
2, 17785, Note_on_c, 0, 56, 0
2, 17786, Note_on_c, 0, 62, 0
2, 17830, Note_on_c, 0, 88, 62
2, 17830, Note_on_c, 0, 76, 58
2, 17839, Note_on_c, 0, 76, 0
2, 17841, Note_on_c, 0, 88, 0
2, 17945, Note_on_c, 0, 56, 48
2, 17946, Note_on_c, 0, 62, 72
2, 17946, Note_on_c, 0, 95, 80
2, 17947, Note_on_c, 0, 83, 77
2, 17981, Note_on_c, 0, 83, 0
2, 17987, Note_on_c, 0, 95, 0
2, 17990, Note_on_c, 0, 56, 0
2, 18008, Note_on_c, 0, 62, 0
2, 18064, Note_on_c, 0, 56, 60
2, 18066, Note_on_c, 0, 67, 68
2, 18066, Note_on_c, 0, 98, 79
2, 18066, Note_on_c, 0, 62, 62
2, 18066, Note_on_c, 0, 86, 85
2, 18090, Note_on_c, 0, 67, 0
2, 18098, Note_on_c, 0, 62, 0
2, 18101, Note_on_c, 0, 86, 0
2, 18111, Note_on_c, 0, 98, 0
2, 18112, Note_on_c, 0, 56, 0
2, 18187, Note_on_c, 0, 64, 76
2, 18187, Note_on_c, 0, 100, 84
2, 18188, Note_on_c, 0, 59, 66
2, 18188, Note_on_c, 0, 88, 82
2, 18189, Note_on_c, 0, 60, 74
2, 18190, Note_on_c, 0, 57, 61
2, 18191, Control_c, 0, 64, 0
2, 18216, Control_c, 0, 64, 127
2, 18217, Note_on_c, 0, 88, 0
2, 18223, Note_on_c, 0, 64, 0
2, 18226, Note_on_c, 0, 100, 0
2, 18229, Note_on_c, 0, 60, 0
2, 18230, Note_on_c, 0, 57, 0
2, 18233, Note_on_c, 0, 59, 0
2, 18307, Note_on_c, 0, 59, 76
2, 18308, Note_on_c, 0, 64, 84
2, 18309, Note_on_c, 0, 57, 69
2, 18309, Note_on_c, 0, 60, 76
2, 18310, Note_on_c, 0, 95, 87
2, 18310, Note_on_c, 0, 107, 99
2, 18312, Note_on_c, 0, 108, 59
2, 18314, Note_on_c, 0, 102, 49
2, 18319, Note_on_c, 0, 108, 0
2, 18321, Note_on_c, 0, 102, 0
2, 18322, Control_c, 0, 64, 0
2, 18334, Control_c, 0, 64, 127
2, 18369, Note_on_c, 0, 59, 0
2, 18369, Note_on_c, 0, 60, 0
2, 18371, Note_on_c, 0, 64, 0
2, 18375, Note_on_c, 0, 57, 0
2, 18377, Note_on_c, 0, 107, 0
2, 18380, Note_on_c, 0, 95, 0
2, 18424, Note_on_c, 0, 64, 81
2, 18425, Note_on_c, 0, 59, 73
2, 18425, Note_on_c, 0, 105, 83
2, 18426, Note_on_c, 0, 60, 68
2, 18427, Note_on_c, 0, 93, 83
2, 18428, Note_on_c, 0, 57, 61
2, 18437, Control_c, 0, 64, 0
2, 18458, Control_c, 0, 64, 127
2, 18461, Note_on_c, 0, 105, 0
2, 18473, Note_on_c, 0, 93, 0
2, 18474, Note_on_c, 0, 64, 0
2, 18488, Note_on_c, 0, 59, 0
2, 18495, Note_on_c, 0, 57, 0
2, 18496, Note_on_c, 0, 60, 0
2, 18544, Note_on_c, 0, 64, 79
2, 18544, Note_on_c, 0, 59, 71
2, 18546, Note_on_c, 0, 60, 70
2, 18546, Note_on_c, 0, 100, 82
2, 18547, Note_on_c, 0, 88, 82
2, 18548, Note_on_c, 0, 57, 58
2, 18563, Control_c, 0, 64, 0
2, 18580, Note_on_c, 0, 100, 0
2, 18590, Control_c, 0, 64, 127
2, 18593, Note_on_c, 0, 88, 0
2, 18614, Note_on_c, 0, 57, 0
2, 18636, Note_on_c, 0, 59, 0
2, 18639, Note_on_c, 0, 60, 0
2, 18647, Note_on_c, 0, 64, 0
2, 18666, Note_on_c, 0, 57, 48
2, 18675, Note_on_c, 0, 57, 0
2, 18724, Note_on_c, 0, 76, 91
2, 18725, Note_on_c, 0, 69, 94
2, 18725, Note_on_c, 0, 71, 85
2, 18725, Note_on_c, 0, 65, 99
2, 18726, Control_c, 0, 64, 0
2, 18728, Note_on_c, 0, 64, 96
2, 18778, Note_on_c, 0, 65, 0
2, 18779, Note_on_c, 0, 69, 0
2, 18782, Note_on_c, 0, 76, 0
2, 18783, Note_on_c, 0, 71, 0
2, 18786, Note_on_c, 0, 64, 0
2, 18789, Note_on_c, 0, 62, 50
2, 18813, Note_on_c, 0, 62, 0
2, 18843, Note_on_c, 0, 76, 88
2, 18844, Note_on_c, 0, 65, 94
2, 18844, Note_on_c, 0, 69, 88
2, 18844, Note_on_c, 0, 71, 78
2, 18845, Note_on_c, 0, 64, 80
2, 18867, Note_on_c, 0, 65, 0
2, 18868, Note_on_c, 0, 69, 0
2, 18869, Note_on_c, 0, 64, 0
2, 18873, Note_on_c, 0, 71, 0
2, 18874, Note_on_c, 0, 76, 0
2, 18905, Note_on_c, 0, 76, 83
2, 18905, Note_on_c, 0, 64, 81
2, 18906, Note_on_c, 0, 69, 88
2, 18906, Note_on_c, 0, 65, 89
2, 18906, Note_on_c, 0, 71, 74
2, 18933, Note_on_c, 0, 64, 0
2, 18937, Note_on_c, 0, 65, 0
2, 18941, Note_on_c, 0, 76, 0
2, 18941, Note_on_c, 0, 69, 0
2, 18944, Note_on_c, 0, 71, 0
2, 18947, Control_c, 0, 64, 127
2, 18970, Control_c, 0, 64, 0
2, 19021, Note_on_c, 0, 56, 74
2, 19021, Note_on_c, 0, 68, 79
2, 19021, Note_on_c, 0, 74, 80
2, 19022, Note_on_c, 0, 70, 71
2, 19022, Note_on_c, 0, 65, 85
2, 19022, Note_on_c, 0, 62, 84
2, 19051, Note_on_c, 0, 65, 0
2, 19053, Note_on_c, 0, 68, 0
2, 19054, Note_on_c, 0, 62, 0
2, 19056, Note_on_c, 0, 70, 0
2, 19060, Note_on_c, 0, 74, 0
2, 19061, Note_on_c, 0, 56, 0
2, 19069, Control_c, 0, 64, 127
2, 19082, Note_on_c, 0, 74, 64
2, 19083, Note_on_c, 0, 68, 73
2, 19083, Note_on_c, 0, 70, 68
2, 19084, Note_on_c, 0, 65, 81
2, 19084, Note_on_c, 0, 56, 79
2, 19084, Note_on_c, 0, 62, 82
2, 19110, Note_on_c, 0, 65, 0
2, 19113, Note_on_c, 0, 68, 0
2, 19118, Note_on_c, 0, 70, 0
2, 19120, Note_on_c, 0, 74, 0
2, 19121, Note_on_c, 0, 62, 0
2, 19122, Note_on_c, 0, 56, 0
2, 19200, Control_c, 0, 64, 0
2, 19205, Note_on_c, 0, 64, 36
2, 19206, Note_on_c, 0, 60, 46
2, 19209, Note_on_c, 0, 59, 31
2, 19213, Note_on_c, 0, 60, 0
2, 19213, Note_on_c, 0, 64, 0
2, 19216, Note_on_c, 0, 59, 0
2, 19264, Note_on_c, 0, 64, 46
2, 19264, Note_on_c, 0, 59, 48
2, 19264, Note_on_c, 0, 60, 54
2, 19272, Note_on_c, 0, 60, 0
2, 19272, Note_on_c, 0, 59, 0
2, 19272, Note_on_c, 0, 64, 0
2, 19324, Note_on_c, 0, 83, 103
2, 19340, Note_on_c, 0, 83, 0
2, 19358, Note_on_c, 0, 83, 80
2, 19370, Note_on_c, 0, 83, 0
2, 19380, Note_on_c, 0, 86, 95
2, 19399, Note_on_c, 0, 86, 0
2, 19415, Note_on_c, 0, 86, 88
2, 19436, Note_on_c, 0, 86, 0
2, 19444, Note_on_c, 0, 81, 50
2, 19459, Note_on_c, 0, 81, 0
2, 19478, Note_on_c, 0, 81, 46
2, 19490, Note_on_c, 0, 81, 0
2, 19502, Note_on_c, 0, 84, 77
2, 19518, Note_on_c, 0, 84, 0
2, 19534, Note_on_c, 0, 84, 75
2, 19557, Note_on_c, 0, 84, 0
2, 19563, Note_on_c, 0, 64, 34
2, 19563, Note_on_c, 0, 79, 58
2, 19564, Note_on_c, 0, 60, 40
2, 19571, Note_on_c, 0, 64, 0
2, 19572, Note_on_c, 0, 60, 0
2, 19578, Note_on_c, 0, 79, 0
2, 19593, Note_on_c, 0, 79, 42
2, 19608, Note_on_c, 0, 79, 0
2, 19618, Note_on_c, 0, 83, 58
2, 19625, Note_on_c, 0, 81, 24
2, 19631, Note_on_c, 0, 81, 0
2, 19637, Note_on_c, 0, 83, 0
2, 19652, Note_on_c, 0, 83, 61
2, 19675, Note_on_c, 0, 83, 0
2, 19681, Note_on_c, 0, 77, 56
2, 19683, Note_on_c, 0, 65, 30
2, 19683, Note_on_c, 0, 62, 25
2, 19686, Note_on_c, 0, 57, 35
2, 19701, Note_on_c, 0, 77, 0
2, 19711, Note_on_c, 0, 65, 0
2, 19711, Note_on_c, 0, 62, 0
2, 19713, Note_on_c, 0, 77, 33
2, 19717, Note_on_c, 0, 57, 0
2, 19733, Note_on_c, 0, 77, 0
2, 19741, Note_on_c, 0, 81, 55
2, 19759, Note_on_c, 0, 81, 0
2, 19772, Note_on_c, 0, 81, 66
2, 19797, Note_on_c, 0, 81, 0
2, 19800, Note_on_c, 0, 76, 31
2, 19824, Note_on_c, 0, 76, 0
2, 19864, Note_on_c, 0, 79, 83
2, 19900, Note_on_c, 0, 78, 36
2, 19910, Note_on_c, 0, 79, 0
2, 19912, Note_on_c, 0, 77, 57
2, 19922, Note_on_c, 0, 78, 0
2, 19928, Note_on_c, 0, 65, 34
2, 19930, Note_on_c, 0, 62, 25
2, 19934, Note_on_c, 0, 56, 25
2, 19934, Note_on_c, 0, 76, 49
2, 19937, Note_on_c, 0, 77, 0
2, 19983, Note_on_c, 0, 76, 0
2, 19986, Note_on_c, 0, 74, 66
2, 20007, Note_on_c, 0, 65, 0
2, 20035, Note_on_c, 0, 62, 0
2, 20039, Note_on_c, 0, 74, 0
2, 20047, Note_on_c, 0, 71, 45
2, 20050, Note_on_c, 0, 62, 14
2, 20051, Note_on_c, 0, 65, 37
2, 20087, Note_on_c, 0, 62, 0
2, 20089, Note_on_c, 0, 65, 0
2, 20105, Note_on_c, 0, 56, 0
2, 20129, Note_on_c, 0, 71, 0
2, 20143, Note_on_c, 0, 68, 45
2, 20159, Note_on_c, 0, 68, 0
2, 20165, Note_on_c, 0, 71, 54
2, 20166, Note_on_c, 0, 64, 20
2, 20169, Note_on_c, 0, 59, 24
2, 20170, Note_on_c, 0, 57, 32
2, 20173, Note_on_c, 0, 60, 24
2, 20196, Note_on_c, 0, 71, 0
2, 20205, Note_on_c, 0, 68, 33
2, 20215, Note_on_c, 0, 68, 0
2, 20224, Note_on_c, 0, 69, 46
2, 20251, Note_on_c, 0, 69, 0
2, 20261, Note_on_c, 0, 70, 44
2, 20274, Note_on_c, 0, 70, 0
2, 20283, Note_on_c, 0, 71, 58
2, 20324, Note_on_c, 0, 71, 0
2, 20335, Note_on_c, 0, 59, 0
2, 20337, Note_on_c, 0, 60, 0
2, 20340, Note_on_c, 0, 57, 0
2, 20341, Note_on_c, 0, 64, 0
2, 20404, Note_on_c, 0, 64, 32
2, 20409, Note_on_c, 0, 57, 31
2, 20410, Note_on_c, 0, 59, 32
2, 20412, Note_on_c, 0, 60, 24
2, 20417, Note_on_c, 0, 64, 0
2, 20418, Note_on_c, 0, 57, 0
2, 20418, Note_on_c, 0, 59, 0
2, 20419, Note_on_c, 0, 60, 0
2, 20468, Note_on_c, 0, 64, 28
2, 20471, Note_on_c, 0, 59, 46
2, 20474, Note_on_c, 0, 57, 35
2, 20474, Note_on_c, 0, 60, 34
2, 20525, Note_on_c, 0, 64, 0
2, 20527, Note_on_c, 0, 60, 0
2, 20530, Note_on_c, 0, 59, 0
2, 20541, Note_on_c, 0, 57, 0
2, 20588, Note_on_c, 0, 62, 90
2, 20588, Note_on_c, 0, 71, 77
2, 20588, Note_on_c, 0, 67, 82
2, 20590, Note_on_c, 0, 56, 69
2, 20616, Note_on_c, 0, 67, 0
2, 20617, Note_on_c, 0, 62, 0
2, 20619, Note_on_c, 0, 56, 0
2, 20624, Note_on_c, 0, 62, 37
2, 20625, Note_on_c, 0, 56, 26
2, 20626, Note_on_c, 0, 67, 50
2, 20644, Note_on_c, 0, 62, 0
2, 20648, Note_on_c, 0, 67, 0
2, 20657, Note_on_c, 0, 71, 0
2, 20669, Note_on_c, 0, 56, 0
2, 20683, Note_on_c, 0, 65, 87
2, 20683, Note_on_c, 0, 74, 77
2, 20684, Note_on_c, 0, 70, 63
2, 20684, Note_on_c, 0, 59, 74
2, 20685, Note_on_c, 0, 68, 45
2, 20692, Note_on_c, 0, 68, 0
2, 20695, Note_on_c, 0, 65, 0
2, 20703, Note_on_c, 0, 70, 0
2, 20704, Note_on_c, 0, 74, 0
2, 20717, Note_on_c, 0, 70, 52
2, 20717, Note_on_c, 0, 74, 49
2, 20720, Note_on_c, 0, 65, 28
2, 20726, Note_on_c, 0, 65, 0
2, 20733, Note_on_c, 0, 70, 0
2, 20734, Note_on_c, 0, 74, 0
2, 20774, Note_on_c, 0, 77, 62
2, 20776, Note_on_c, 0, 68, 60
2, 20777, Note_on_c, 0, 74, 62
2, 20778, Note_on_c, 0, 62, 61
2, 20785, Note_on_c, 0, 59, 0
2, 20786, Note_on_c, 0, 68, 0
2, 20794, Note_on_c, 0, 74, 0
2, 20795, Note_on_c, 0, 62, 0
2, 20796, Note_on_c, 0, 77, 0
2, 20891, Note_on_c, 0, 69, 49
2, 20891, Note_on_c, 0, 65, 55
2, 20897, Note_on_c, 0, 65, 0
2, 20898, Note_on_c, 0, 69, 0
2, 20947, Note_on_c, 0, 82, 83
2, 20979, Note_on_c, 0, 82, 0
2, 20980, Note_on_c, 0, 83, 72
2, 20998, Note_on_c, 0, 83, 0
2, 21007, Note_on_c, 0, 86, 95
2, 21038, Note_on_c, 0, 85, 77
2, 21043, Note_on_c, 0, 86, 0
2, 21043, Note_on_c, 0, 65, 52
2, 21049, Note_on_c, 0, 65, 0
2, 21056, Note_on_c, 0, 85, 0
2, 21066, Note_on_c, 0, 84, 50
2, 21092, Note_on_c, 0, 84, 0
2, 21102, Note_on_c, 0, 80, 36
2, 21116, Note_on_c, 0, 80, 0
2, 21124, Note_on_c, 0, 83, 68
2, 21125, Note_on_c, 0, 64, 36
2, 21126, Note_on_c, 0, 59, 31
2, 21128, Note_on_c, 0, 60, 40
2, 21132, Note_on_c, 0, 57, 34
2, 21155, Note_on_c, 0, 59, 0
2, 21159, Note_on_c, 0, 83, 0
2, 21164, Note_on_c, 0, 60, 0
2, 21164, Note_on_c, 0, 80, 26
2, 21168, Note_on_c, 0, 57, 0
2, 21170, Note_on_c, 0, 64, 0
2, 21174, Note_on_c, 0, 80, 0
2, 21187, Note_on_c, 0, 81, 58
2, 21212, Note_on_c, 0, 81, 0
2, 21220, Note_on_c, 0, 76, 50
2, 21235, Note_on_c, 0, 76, 0
2, 21245, Note_on_c, 0, 74, 42
2, 21270, Note_on_c, 0, 74, 0
2, 21300, Note_on_c, 0, 64, 27
2, 21305, Note_on_c, 0, 57, 30
2, 21306, Note_on_c, 0, 59, 32
2, 21306, Note_on_c, 0, 60, 34
2, 21426, Note_on_c, 0, 77, 94
2, 21459, Note_on_c, 0, 75, 62
2, 21462, Note_on_c, 0, 77, 0
2, 21465, Note_on_c, 0, 64, 0
2, 21476, Note_on_c, 0, 75, 0
2, 21482, Note_on_c, 0, 57, 0
2, 21484, Note_on_c, 0, 59, 0
2, 21488, Note_on_c, 0, 76, 61
2, 21494, Note_on_c, 0, 60, 0
2, 21517, Note_on_c, 0, 76, 0
2, 21520, Note_on_c, 0, 72, 62
2, 21529, Note_on_c, 0, 64, 32
2, 21533, Note_on_c, 0, 60, 29
2, 21537, Note_on_c, 0, 64, 0
2, 21539, Note_on_c, 0, 72, 0
2, 21541, Note_on_c, 0, 60, 0
2, 21550, Note_on_c, 0, 69, 45
2, 21586, Note_on_c, 0, 69, 0
2, 21587, Note_on_c, 0, 67, 51
2, 21593, Note_on_c, 0, 67, 0
2, 21611, Note_on_c, 0, 76, 80
2, 21611, Note_on_c, 0, 60, 20
2, 21612, Note_on_c, 0, 50, 24
2, 21614, Note_on_c, 0, 57, 40
2, 21669, Note_on_c, 0, 60, 0
2, 21670, Note_on_c, 0, 69, 53
2, 21689, Note_on_c, 0, 76, 0
2, 21694, Note_on_c, 0, 69, 0
2, 21703, Note_on_c, 0, 65, 53
2, 21719, Note_on_c, 0, 57, 0
2, 21722, Note_on_c, 0, 65, 0
2, 21736, Note_on_c, 0, 50, 0
2, 21744, Note_on_c, 0, 62, 20
2, 21776, Note_on_c, 0, 62, 0
2, 21789, Note_on_c, 0, 62, 38
2, 21808, Note_on_c, 0, 62, 0
2, 21849, Note_on_c, 0, 53, 31
2, 21849, Note_on_c, 0, 59, 39
2, 21849, Note_on_c, 0, 64, 19
2, 21868, Note_on_c, 0, 64, 0
2, 21870, Note_on_c, 0, 59, 0
2, 21884, Note_on_c, 0, 53, 0
2, 21914, Note_on_c, 0, 82, 85
2, 21940, Note_on_c, 0, 80, 62
2, 21948, Note_on_c, 0, 82, 0
2, 21950, Note_on_c, 0, 63, 29
2, 21957, Note_on_c, 0, 63, 0
2, 21968, Note_on_c, 0, 75, 51
2, 21974, Note_on_c, 0, 80, 0
2, 21992, Note_on_c, 0, 75, 0
2, 21998, Note_on_c, 0, 71, 39
2, 22021, Note_on_c, 0, 71, 0
2, 22078, Note_on_c, 0, 62, 48
2, 22080, Note_on_c, 0, 57, 44
2, 22088, Note_on_c, 0, 57, 0
2, 22091, Note_on_c, 0, 62, 0
2, 22185, Note_on_c, 0, 62, 41
2, 22189, Note_on_c, 0, 59, 24
2, 22189, Note_on_c, 0, 55, 44
2, 22195, Note_on_c, 0, 62, 0
2, 22197, Note_on_c, 0, 59, 0
2, 22200, Note_on_c, 0, 55, 0
2, 22269, Note_on_c, 0, 78, 74
2, 22293, Note_on_c, 0, 78, 0
2, 22305, Note_on_c, 0, 79, 72
2, 22329, Note_on_c, 0, 79, 0
2, 22331, Note_on_c, 0, 78, 46
2, 22363, Note_on_c, 0, 74, 62
2, 22372, Note_on_c, 0, 62, 44
2, 22377, Note_on_c, 0, 78, 0
2, 22379, Note_on_c, 0, 74, 0
2, 22381, Note_on_c, 0, 62, 0
2, 22392, Note_on_c, 0, 69, 19
2, 22410, Note_on_c, 0, 69, 0
2, 22426, Note_on_c, 0, 59, 31
2, 22435, Note_on_c, 0, 67, 29
2, 22439, Note_on_c, 0, 59, 0
2, 22445, Note_on_c, 0, 67, 0
2, 22490, Note_on_c, 0, 59, 28
2, 22498, Note_on_c, 0, 59, 0
2, 22505, Note_on_c, 0, 67, 47
2, 22535, Note_on_c, 0, 67, 0
2, 22540, Note_on_c, 0, 69, 66
2, 22561, Note_on_c, 0, 69, 0
2, 22564, Note_on_c, 0, 61, 34
2, 22566, Note_on_c, 0, 65, 27
2, 22568, Note_on_c, 0, 70, 42
2, 22572, Note_on_c, 0, 55, 26
2, 22595, Note_on_c, 0, 65, 0
2, 22602, Note_on_c, 0, 70, 0
2, 22622, Note_on_c, 0, 61, 0
2, 22624, Note_on_c, 0, 55, 0
2, 22634, Note_on_c, 0, 67, 31
2, 22641, Note_on_c, 0, 67, 0
2, 22710, Note_on_c, 0, 61, 54
2, 22710, Note_on_c, 0, 65, 55
2, 22717, Note_on_c, 0, 65, 0
2, 22724, Note_on_c, 0, 61, 0
2, 22739, Note_on_c, 0, 69, 74
2, 22756, Note_on_c, 0, 69, 0
2, 22772, Note_on_c, 0, 70, 59
2, 22798, Note_on_c, 0, 70, 0
2, 22798, Note_on_c, 0, 72, 38
2, 22819, Note_on_c, 0, 72, 0
2, 22828, Note_on_c, 0, 73, 49
2, 22835, Note_on_c, 0, 61, 39
2, 22849, Note_on_c, 0, 73, 0
2, 22858, Note_on_c, 0, 61, 0
2, 22860, Note_on_c, 0, 72, 54
2, 22892, Note_on_c, 0, 73, 57
2, 22895, Note_on_c, 0, 72, 0
2, 22903, Note_on_c, 0, 61, 20
2, 22915, Note_on_c, 0, 61, 0
2, 22916, Note_on_c, 0, 75, 56
2, 22918, Note_on_c, 0, 73, 0
2, 22950, Note_on_c, 0, 76, 72
2, 22951, Note_on_c, 0, 75, 0
2, 22953, Note_on_c, 0, 61, 47
2, 22953, Note_on_c, 0, 66, 55
2, 22959, Note_on_c, 0, 66, 0
2, 22963, Note_on_c, 0, 76, 0
2, 22969, Note_on_c, 0, 61, 0
2, 22976, Note_on_c, 0, 75, 54
2, 22996, Note_on_c, 0, 75, 0
2, 23008, Note_on_c, 0, 76, 60
2, 23032, Note_on_c, 0, 60, 33
2, 23035, Note_on_c, 0, 57, 37
2, 23042, Note_on_c, 0, 50, 24
2, 23042, Note_on_c, 0, 53, 20
2, 23043, Note_on_c, 0, 76, 0
2, 23043, Note_on_c, 0, 78, 30
2, 23059, Note_on_c, 0, 60, 0
2, 23068, Note_on_c, 0, 78, 0
2, 23073, Note_on_c, 0, 79, 66
2, 23091, Note_on_c, 0, 79, 0
2, 23101, Note_on_c, 0, 57, 0
2, 23102, Note_on_c, 0, 80, 49
2, 23107, Note_on_c, 0, 53, 0
2, 23128, Note_on_c, 0, 80, 0
2, 23128, Note_on_c, 0, 50, 0
2, 23133, Note_on_c, 0, 81, 65
2, 23149, Note_on_c, 0, 57, 22
2, 23150, Note_on_c, 0, 81, 0
2, 23157, Note_on_c, 0, 57, 0
2, 23163, Note_on_c, 0, 84, 90
2, 23196, Note_on_c, 0, 84, 0
2, 23225, Note_on_c, 0, 81, 57
2, 23265, Note_on_c, 0, 81, 0
2, 23284, Note_on_c, 0, 64, 34
2, 23286, Note_on_c, 0, 77, 20
2, 23290, Note_on_c, 0, 57, 33
2, 23290, Note_on_c, 0, 60, 34
2, 23293, Note_on_c, 0, 53, 25
2, 23326, Note_on_c, 0, 60, 0
2, 23334, Note_on_c, 0, 57, 0
2, 23339, Note_on_c, 0, 64, 0
2, 23345, Note_on_c, 0, 77, 0
2, 23347, Note_on_c, 0, 72, 47
2, 23351, Note_on_c, 0, 53, 0
2, 23393, Note_on_c, 0, 72, 0
2, 23404, Note_on_c, 0, 69, 24
2, 23408, Note_on_c, 0, 57, 37
2, 23409, Note_on_c, 0, 60, 34
2, 23409, Note_on_c, 0, 53, 22
2, 23410, Note_on_c, 0, 64, 19
2, 23444, Note_on_c, 0, 64, 0
2, 23445, Note_on_c, 0, 69, 0
2, 23451, Note_on_c, 0, 60, 0
2, 23466, Note_on_c, 0, 57, 0
2, 23471, Note_on_c, 0, 53, 0
2, 23473, Note_on_c, 0, 65, 36
2, 23517, Note_on_c, 0, 65, 0
2, 23524, Note_on_c, 0, 67, 57
2, 23526, Note_on_c, 0, 53, 29
2, 23527, Note_on_c, 0, 59, 45
2, 23527, Note_on_c, 0, 64, 31
2, 23616, Note_on_c, 0, 67, 0
2, 23644, Note_on_c, 0, 68, 88
2, 23653, Note_on_c, 0, 69, 51
2, 23674, Note_on_c, 0, 69, 0
2, 23678, Note_on_c, 0, 70, 72
2, 23695, Note_on_c, 0, 68, 0
2, 23704, Note_on_c, 0, 53, 0
2, 23705, Note_on_c, 0, 64, 0
2, 23705, Note_on_c, 0, 70, 0
2, 23708, Note_on_c, 0, 59, 0
2, 23733, Note_on_c, 0, 71, 101
2, 23739, Note_on_c, 0, 59, 60
2, 23739, Note_on_c, 0, 64, 60
2, 23743, Note_on_c, 0, 53, 32
2, 23754, Note_on_c, 0, 64, 0
2, 23755, Note_on_c, 0, 53, 0
2, 23759, Note_on_c, 0, 59, 0
2, 23764, Note_on_c, 0, 71, 0
2, 23789, Note_on_c, 0, 70, 77
2, 23798, Note_on_c, 0, 59, 34
2, 23810, Note_on_c, 0, 70, 0
2, 23811, Note_on_c, 0, 59, 0
2, 23818, Note_on_c, 0, 68, 37
2, 23850, Note_on_c, 0, 68, 0
2, 23851, Note_on_c, 0, 67, 65
2, 23866, Note_on_c, 0, 67, 0
2, 23881, Note_on_c, 0, 59, 22
2, 23885, Note_on_c, 0, 64, 12
2, 23886, Note_on_c, 0, 65, 55
2, 23887, Note_on_c, 0, 53, 22
2, 23897, Note_on_c, 0, 59, 0
2, 23919, Note_on_c, 0, 64, 0
2, 23920, Note_on_c, 0, 65, 0
2, 23923, Note_on_c, 0, 59, 24
2, 23931, Note_on_c, 0, 59, 0
2, 23942, Note_on_c, 0, 62, 51
2, 23944, Note_on_c, 0, 53, 0
2, 23968, Note_on_c, 0, 62, 0
2, 23976, Note_on_c, 0, 63, 46
2, 23994, Note_on_c, 0, 63, 0
2, 24001, Note_on_c, 0, 55, 30
2, 24003, Note_on_c, 0, 62, 20
2, 24003, Note_on_c, 0, 64, 37
2, 24005, Note_on_c, 0, 59, 19
2, 24028, Note_on_c, 0, 64, 0
2, 24039, Note_on_c, 0, 67, 61
2, 24045, Note_on_c, 0, 62, 0
2, 24046, Note_on_c, 0, 55, 0
2, 24055, Note_on_c, 0, 59, 0
2, 24055, Note_on_c, 0, 67, 0
2, 24066, Note_on_c, 0, 71, 91
2, 24096, Note_on_c, 0, 71, 0
2, 24100, Note_on_c, 0, 74, 80
2, 24131, Note_on_c, 0, 72, 39
2, 24133, Note_on_c, 0, 74, 0
2, 24175, Note_on_c, 0, 72, 0
2, 24186, Note_on_c, 0, 69, 54
2, 24245, Note_on_c, 0, 64, 31
2, 24275, Note_on_c, 0, 64, 0
2, 24280, Note_on_c, 0, 69, 0
2, 24307, Note_on_c, 0, 64, 25
2, 24314, Control_c, 0, 64, 127
2, 24316, Note_on_c, 0, 64, 0
2, 24348, Control_c, 0, 64, 0
2, 24368, Control_c, 0, 64, 127
2, 24368, Note_on_c, 0, 62, 41
2, 24371, Note_on_c, 0, 55, 34
2, 24377, Note_on_c, 0, 62, 0
2, 24379, Note_on_c, 0, 55, 0
2, 24422, Note_on_c, 0, 79, 71
2, 24435, Note_on_c, 0, 79, 0
2, 24455, Note_on_c, 0, 83, 78
2, 24469, Note_on_c, 0, 83, 0
2, 24483, Control_c, 0, 64, 0
2, 24485, Note_on_c, 0, 62, 73
2, 24485, Note_on_c, 0, 63, 72
2, 24486, Note_on_c, 0, 74, 92
2, 24486, Note_on_c, 0, 67, 80
2, 24487, Note_on_c, 0, 86, 91
2, 24487, Note_on_c, 0, 57, 70
2, 24489, Note_on_c, 0, 81, 70
2, 24489, Note_on_c, 0, 84, 62
2, 24496, Note_on_c, 0, 84, 0
2, 24514, Note_on_c, 0, 81, 0
2, 24526, Note_on_c, 0, 74, 0
2, 24528, Note_on_c, 0, 57, 0
2, 24532, Note_on_c, 0, 67, 0
2, 24534, Note_on_c, 0, 86, 0
2, 24535, Note_on_c, 0, 62, 0
2, 24536, Note_on_c, 0, 63, 0
2, 24549, Note_on_c, 0, 86, 77
2, 24550, Note_on_c, 0, 82, 75
2, 24550, Note_on_c, 0, 63, 55
2, 24551, Note_on_c, 0, 74, 84
2, 24551, Note_on_c, 0, 62, 73
2, 24552, Note_on_c, 0, 67, 70
2, 24553, Note_on_c, 0, 57, 62
2, 24592, Note_on_c, 0, 83, 64
2, 24596, Note_on_c, 0, 82, 0
2, 24606, Note_on_c, 0, 86, 0
2, 24608, Note_on_c, 0, 83, 0
2, 24609, Note_on_c, 0, 74, 0
2, 24612, Note_on_c, 0, 57, 0
2, 24614, Note_on_c, 0, 67, 0
2, 24615, Note_on_c, 0, 63, 0
2, 24616, Note_on_c, 0, 62, 0
2, 24617, Control_c, 0, 64, 127
2, 24638, Control_c, 0, 64, 0
2, 24643, Note_on_c, 0, 71, 61
2, 24643, Note_on_c, 0, 83, 52
2, 24643, Note_on_c, 0, 78, 52
2, 24647, Note_on_c, 0, 67, 54
2, 24647, Note_on_c, 0, 63, 45
2, 24649, Note_on_c, 0, 57, 51
2, 24649, Note_on_c, 0, 62, 47
2, 24681, Note_on_c, 0, 79, 30
2, 24683, Note_on_c, 0, 78, 0
2, 24692, Note_on_c, 0, 79, 0
2, 24692, Note_on_c, 0, 71, 0
2, 24693, Note_on_c, 0, 57, 0
2, 24693, Note_on_c, 0, 62, 0
2, 24694, Note_on_c, 0, 63, 0
2, 24694, Note_on_c, 0, 67, 0
2, 24695, Note_on_c, 0, 83, 0
2, 24731, Note_on_c, 0, 71, 67
2, 24731, Note_on_c, 0, 78, 60
2, 24732, Note_on_c, 0, 63, 48
2, 24732, Note_on_c, 0, 67, 57
2, 24733, Note_on_c, 0, 62, 48
2, 24734, Note_on_c, 0, 57, 50
2, 24734, Note_on_c, 0, 83, 47
2, 24764, Note_on_c, 0, 79, 37
2, 24769, Note_on_c, 0, 78, 0
2, 24785, Control_c, 0, 64, 127
2, 24786, Note_on_c, 0, 79, 0
2, 24786, Note_on_c, 0, 83, 0
2, 24793, Note_on_c, 0, 67, 0
2, 24794, Note_on_c, 0, 62, 0
2, 24794, Note_on_c, 0, 71, 0
2, 24796, Note_on_c, 0, 57, 0
2, 24797, Note_on_c, 0, 63, 0
2, 24830, Note_on_c, 0, 67, 66
2, 24830, Note_on_c, 0, 63, 52
2, 24830, Control_c, 0, 64, 0
2, 24833, Note_on_c, 0, 57, 43
2, 24833, Note_on_c, 0, 62, 56
2, 24850, Control_c, 0, 64, 127
2, 24861, Note_on_c, 0, 67, 0
2, 24864, Note_on_c, 0, 62, 0
2, 24865, Note_on_c, 0, 63, 0
2, 24869, Control_c, 0, 64, 0
2, 24878, Note_on_c, 0, 57, 0
2, 24910, Note_on_c, 0, 69, 77
2, 24910, Note_on_c, 0, 65, 58
2, 24911, Note_on_c, 0, 74, 62
2, 24912, Note_on_c, 0, 77, 50
2, 24915, Note_on_c, 0, 57, 37
2, 24956, Note_on_c, 0, 74, 0
2, 24959, Note_on_c, 0, 77, 0
2, 24969, Note_on_c, 0, 69, 0
2, 24971, Note_on_c, 0, 65, 0
2, 24997, Note_on_c, 0, 76, 64
2, 24998, Note_on_c, 0, 69, 64
2, 24999, Note_on_c, 0, 65, 53
2, 25000, Note_on_c, 0, 71, 62
2, 25002, Note_on_c, 0, 64, 49
2, 25012, Note_on_c, 0, 65, 0
2, 25016, Note_on_c, 0, 57, 0
2, 25018, Note_on_c, 0, 69, 0
2, 25020, Note_on_c, 0, 71, 0
2, 25025, Note_on_c, 0, 64, 0
2, 25025, Note_on_c, 0, 76, 0
2, 25085, Note_on_c, 0, 76, 58
2, 25087, Note_on_c, 0, 65, 55
2, 25087, Note_on_c, 0, 71, 49
2, 25087, Note_on_c, 0, 69, 56
2, 25088, Note_on_c, 0, 64, 46
2, 25125, Note_on_c, 0, 65, 0
2, 25127, Note_on_c, 0, 69, 0
2, 25132, Note_on_c, 0, 76, 0
2, 25132, Note_on_c, 0, 71, 0
2, 25144, Note_on_c, 0, 64, 0
2, 25148, Note_on_c, 0, 74, 39
2, 25148, Note_on_c, 0, 62, 29
2, 25149, Control_c, 0, 64, 127
2, 25151, Control_c, 0, 64, 0
2, 25170, Note_on_c, 0, 74, 0
2, 25180, Note_on_c, 0, 76, 56
2, 25181, Note_on_c, 0, 65, 52
2, 25182, Note_on_c, 0, 62, 0
2, 25183, Note_on_c, 0, 69, 51
2, 25184, Note_on_c, 0, 71, 49
2, 25187, Note_on_c, 0, 64, 53
2, 25191, Note_on_c, 0, 69, 0
2, 25191, Note_on_c, 0, 65, 0
2, 25192, Note_on_c, 0, 71, 0
2, 25201, Note_on_c, 0, 64, 0
2, 25201, Note_on_c, 0, 76, 0
2, 25242, Note_on_c, 0, 62, 27
2, 25260, Note_on_c, 0, 62, 0
2, 25260, Note_on_c, 0, 76, 48
2, 25262, Note_on_c, 0, 71, 47
2, 25262, Note_on_c, 0, 69, 51
2, 25262, Note_on_c, 0, 65, 43
2, 25265, Note_on_c, 0, 64, 48
2, 25305, Note_on_c, 0, 65, 0
2, 25308, Note_on_c, 0, 69, 0
2, 25313, Note_on_c, 0, 71, 0
2, 25318, Note_on_c, 0, 76, 0
2, 25321, Control_c, 0, 64, 127
2, 25325, Note_on_c, 0, 64, 0
2, 25326, Note_on_c, 0, 65, 48
2, 25328, Note_on_c, 0, 74, 47
2, 25329, Note_on_c, 0, 71, 27
2, 25329, Note_on_c, 0, 69, 45
2, 25330, Note_on_c, 0, 62, 40
2, 25403, Note_on_c, 0, 65, 0
2, 25412, Note_on_c, 0, 62, 0
2, 25416, Note_on_c, 0, 69, 0
2, 25421, Note_on_c, 0, 74, 0
2, 25423, Note_on_c, 0, 71, 0
2, 25469, Control_c, 0, 64, 0
2, 25504, Note_on_c, 0, 62, 36
2, 25504, Note_on_c, 0, 56, 35
2, 25625, Note_on_c, 0, 70, 94
2, 25656, Note_on_c, 0, 70, 0
2, 25658, Note_on_c, 0, 71, 67
2, 25685, Note_on_c, 0, 71, 0
2, 25687, Note_on_c, 0, 70, 56
2, 25698, Note_on_c, 0, 56, 0
2, 25722, Note_on_c, 0, 70, 0
2, 25742, Note_on_c, 0, 68, 59
2, 25764, Note_on_c, 0, 68, 0
2, 25767, Note_on_c, 0, 62, 0
2, 25777, Note_on_c, 0, 70, 37
2, 25784, Note_on_c, 0, 68, 49
2, 25786, Note_on_c, 0, 56, 30
2, 25794, Note_on_c, 0, 70, 0
2, 25804, Note_on_c, 0, 67, 51
2, 25807, Note_on_c, 0, 68, 0
2, 25810, Note_on_c, 0, 56, 0
2, 25826, Note_on_c, 0, 67, 0
2, 25840, Note_on_c, 0, 65, 70
2, 25860, Note_on_c, 0, 65, 0
2, 25868, Note_on_c, 0, 64, 22
2, 25891, Note_on_c, 0, 64, 0
2, 25904, Note_on_c, 0, 64, 40
2, 25912, Note_on_c, 0, 64, 0
2, 25923, Note_on_c, 0, 67, 70
2, 25957, Note_on_c, 0, 67, 0
2, 25963, Note_on_c, 0, 64, 40
2, 25975, Note_on_c, 0, 64, 0
2, 25989, Note_on_c, 0, 65, 64
2, 26013, Note_on_c, 0, 65, 0
2, 26022, Note_on_c, 0, 63, 47
2, 26039, Note_on_c, 0, 63, 0
2, 26049, Note_on_c, 0, 64, 57
2, 26071, Note_on_c, 0, 64, 0
2, 26082, Note_on_c, 0, 60, 58
2, 26099, Note_on_c, 0, 60, 0
2, 26118, Note_on_c, 0, 59, 14
2, 26141, Note_on_c, 0, 59, 0
2, 26142, Note_on_c, 0, 57, 53
2, 26146, Note_on_c, 0, 52, 22
2, 26149, Note_on_c, 0, 57, 0
2, 26154, Note_on_c, 0, 52, 0
2, 26166, Note_on_c, 0, 62, 62
2, 26195, Note_on_c, 0, 62, 0
2, 26202, Note_on_c, 0, 59, 37
2, 26216, Note_on_c, 0, 59, 0
2, 26227, Note_on_c, 0, 60, 51
2, 26276, Note_on_c, 0, 45, 26
2, 26282, Note_on_c, 0, 55, 32
2, 26294, Note_on_c, 0, 45, 0
2, 26296, Note_on_c, 0, 55, 0
2, 26331, Note_on_c, 0, 60, 0
2, 26341, Note_on_c, 0, 57, 48
2, 26353, Note_on_c, 0, 57, 0
2, 26364, Note_on_c, 0, 59, 54
2, 26379, Note_on_c, 0, 59, 0
2, 26386, Note_on_c, 0, 47, 29
2, 26388, Note_on_c, 0, 59, 58
2, 26397, Note_on_c, 0, 47, 0
2, 26404, Note_on_c, 0, 59, 0
2, 26406, Note_on_c, 0, 60, 66
2, 26420, Note_on_c, 0, 60, 0
2, 26427, Note_on_c, 0, 60, 66
2, 26447, Note_on_c, 0, 60, 0
2, 26449, Note_on_c, 0, 62, 69
2, 26464, Note_on_c, 0, 62, 0
2, 26469, Note_on_c, 0, 62, 57
2, 26488, Note_on_c, 0, 62, 0
2, 26490, Note_on_c, 0, 64, 74
2, 26503, Note_on_c, 0, 64, 0
2, 26513, Note_on_c, 0, 64, 72
2, 26530, Note_on_c, 0, 64, 0
2, 26531, Note_on_c, 0, 65, 74
2, 26545, Note_on_c, 0, 65, 0
2, 26553, Note_on_c, 0, 65, 55
2, 26567, Note_on_c, 0, 65, 0
2, 26574, Note_on_c, 0, 67, 56
2, 26584, Note_on_c, 0, 67, 0
2, 26632, Note_on_c, 0, 62, 31
2, 26634, Note_on_c, 0, 56, 33
2, 26639, Note_on_c, 0, 52, 25
2, 26657, Note_on_c, 0, 52, 0
2, 26666, Note_on_c, 0, 56, 0
2, 26666, Note_on_c, 0, 62, 0
2, 26707, Note_on_c, 0, 68, 56
2, 26724, Note_on_c, 0, 68, 0
2, 26733, Note_on_c, 0, 70, 58
2, 26749, Note_on_c, 0, 70, 0
2, 26764, Note_on_c, 0, 62, 52
2, 26765, Note_on_c, 0, 56, 35
2, 26782, Note_on_c, 0, 69, 64
2, 26800, Note_on_c, 0, 71, 74
2, 26802, Note_on_c, 0, 69, 0
2, 26817, Note_on_c, 0, 71, 0
2, 26826, Note_on_c, 0, 71, 62
2, 26834, Note_on_c, 0, 62, 0
2, 26840, Note_on_c, 0, 71, 0
2, 26841, Note_on_c, 0, 72, 60
2, 26854, Note_on_c, 0, 72, 0
2, 26862, Note_on_c, 0, 56, 0
2, 26865, Note_on_c, 0, 72, 62
2, 26882, Note_on_c, 0, 72, 0
2, 26882, Note_on_c, 0, 74, 57
2, 26905, Note_on_c, 0, 64, 26
2, 26907, Note_on_c, 0, 59, 30
2, 26908, Note_on_c, 0, 57, 32
2, 26910, Note_on_c, 0, 60, 30
2, 26911, Note_on_c, 0, 75, 51
2, 26920, Note_on_c, 0, 74, 0
2, 26929, Note_on_c, 0, 75, 0
2, 26929, Note_on_c, 0, 76, 59
2, 26947, Note_on_c, 0, 76, 0
2, 26956, Note_on_c, 0, 81, 69
2, 26961, Note_on_c, 0, 59, 0
2, 26964, Note_on_c, 0, 60, 0
2, 26966, Note_on_c, 0, 57, 0
2, 26969, Note_on_c, 0, 64, 0
2, 26975, Note_on_c, 0, 81, 0
2, 26998, Note_on_c, 0, 81, 75
2, 27020, Note_on_c, 0, 81, 0
2, 27039, Note_on_c, 0, 81, 68
2, 27057, Note_on_c, 0, 81, 0
2, 27071, Note_on_c, 0, 81, 61
2, 27091, Note_on_c, 0, 81, 0
2, 27103, Note_on_c, 0, 64, 19
2, 27103, Note_on_c, 0, 81, 60
2, 27106, Note_on_c, 0, 59, 30
2, 27106, Note_on_c, 0, 57, 34
2, 27108, Note_on_c, 0, 60, 32
2, 27124, Note_on_c, 0, 81, 0
2, 27139, Note_on_c, 0, 83, 72
2, 27179, Note_on_c, 0, 59, 0
2, 27180, Note_on_c, 0, 60, 0
2, 27186, Note_on_c, 0, 83, 0
2, 27189, Note_on_c, 0, 64, 0
2, 27191, Note_on_c, 0, 76, 24
2, 27192, Note_on_c, 0, 57, 0
2, 27229, Note_on_c, 0, 76, 0
2, 27247, Note_on_c, 0, 76, 46
2, 27364, Note_on_c, 0, 62, 36
2, 27365, Note_on_c, 0, 65, 25
2, 27366, Note_on_c, 0, 57, 26
2, 27377, Note_on_c, 0, 65, 0
2, 27378, Note_on_c, 0, 76, 0
2, 27380, Note_on_c, 0, 57, 0
2, 27381, Note_on_c, 0, 62, 0
2, 27452, Note_on_c, 0, 65, 36
2, 27456, Note_on_c, 0, 62, 36
2, 27460, Note_on_c, 0, 65, 0
2, 27466, Note_on_c, 0, 62, 0
2, 27479, Note_on_c, 0, 83, 92
2, 27500, Note_on_c, 0, 83, 0
2, 27540, Note_on_c, 0, 83, 99
2, 27555, Note_on_c, 0, 83, 0
2, 27569, Note_on_c, 0, 83, 82
2, 27594, Note_on_c, 0, 83, 0
2, 27598, Note_on_c, 0, 62, 37
2, 27602, Note_on_c, 0, 84, 78
2, 27602, Note_on_c, 0, 65, 36
2, 27605, Note_on_c, 0, 56, 33
2, 27640, Note_on_c, 0, 84, 0
2, 27661, Note_on_c, 0, 76, 47
2, 27698, Note_on_c, 0, 76, 0
2, 27707, Note_on_c, 0, 65, 0
2, 27711, Note_on_c, 0, 56, 0
2, 27717, Note_on_c, 0, 62, 0
2, 27718, Note_on_c, 0, 76, 50
2, 27751, Note_on_c, 0, 76, 0
2, 27776, Note_on_c, 0, 56, 46
2, 27776, Note_on_c, 0, 76, 6
2, 27779, Note_on_c, 0, 65, 26
2, 27786, Note_on_c, 0, 65, 0
2, 27801, Note_on_c, 0, 56, 0
2, 27825, Note_on_c, 0, 76, 0
2, 27842, Note_on_c, 0, 64, 32
2, 27843, Note_on_c, 0, 57, 46
2, 27844, Note_on_c, 0, 59, 24
2, 27848, Note_on_c, 0, 60, 30
2, 27904, Note_on_c, 0, 84, 110
2, 27918, Note_on_c, 0, 84, 0
2, 27935, Note_on_c, 0, 84, 85
2, 27955, Note_on_c, 0, 84, 0
2, 27959, Note_on_c, 0, 57, 0
2, 27960, Note_on_c, 0, 64, 0
2, 27962, Note_on_c, 0, 59, 0
2, 27965, Note_on_c, 0, 60, 0
2, 27967, Note_on_c, 0, 86, 101
2, 28025, Note_on_c, 0, 77, 32
2, 28026, Note_on_c, 0, 64, 27
2, 28027, Note_on_c, 0, 86, 0
2, 28031, Note_on_c, 0, 57, 33
2, 28031, Note_on_c, 0, 60, 34
2, 28031, Note_on_c, 0, 59, 24
2, 28041, Note_on_c, 0, 77, 0
2, 28047, Note_on_c, 0, 60, 0
2, 28049, Note_on_c, 0, 59, 0
2, 28068, Note_on_c, 0, 64, 0
2, 28076, Note_on_c, 0, 57, 0
2, 28085, Note_on_c, 0, 76, 51
2, 28140, Note_on_c, 0, 64, 44
2, 28147, Note_on_c, 0, 60, 31
2, 28149, Note_on_c, 0, 64, 0
2, 28154, Note_on_c, 0, 60, 0
2, 28218, Note_on_c, 0, 76, 0
2, 28244, Note_on_c, 0, 64, 41
2, 28251, Note_on_c, 0, 60, 34
2, 28252, Note_on_c, 0, 59, 29
2, 28259, Note_on_c, 0, 59, 0
2, 28260, Note_on_c, 0, 60, 0
2, 28267, Note_on_c, 0, 64, 0
2, 28323, Note_on_c, 0, 65, 49
2, 28325, Note_on_c, 0, 62, 48
2, 28328, Note_on_c, 0, 57, 36
2, 28387, Note_on_c, 0, 86, 110
2, 28389, Note_on_c, 0, 84, 81
2, 28394, Note_on_c, 0, 84, 0
2, 28398, Note_on_c, 0, 65, 0
2, 28400, Note_on_c, 0, 86, 0
2, 28404, Note_on_c, 0, 62, 0
2, 28410, Note_on_c, 0, 57, 0
2, 28418, Note_on_c, 0, 86, 91
2, 28437, Note_on_c, 0, 86, 0
2, 28449, Note_on_c, 0, 88, 95
2, 28459, Note_on_c, 0, 65, 51
2, 28463, Note_on_c, 0, 62, 44
2, 28464, Note_on_c, 0, 57, 33
2, 28515, Note_on_c, 0, 57, 0
2, 28515, Note_on_c, 0, 65, 0
2, 28520, Note_on_c, 0, 62, 0
2, 28565, Note_on_c, 0, 65, 43
2, 28565, Note_on_c, 0, 56, 38
2, 28566, Note_on_c, 0, 62, 41
2, 28613, Note_on_c, 0, 88, 0
2, 28627, Note_on_c, 0, 76, 62
2, 28632, Note_on_c, 0, 65, 0
2, 28647, Note_on_c, 0, 62, 0
2, 28654, Note_on_c, 0, 56, 0
2, 28688, Note_on_c, 0, 62, 24
2, 28689, Note_on_c, 0, 65, 36
2, 28693, Note_on_c, 0, 56, 25
2, 28726, Note_on_c, 0, 76, 0
2, 28736, Note_on_c, 0, 62, 0
2, 28747, Note_on_c, 0, 65, 0
2, 28751, Note_on_c, 0, 74, 71
2, 28772, Note_on_c, 0, 56, 0
2, 28778, Note_on_c, 0, 74, 0
2, 28785, Note_on_c, 0, 76, 61
2, 28804, Note_on_c, 0, 76, 0
2, 28815, Note_on_c, 0, 74, 50
2, 28861, Note_on_c, 0, 74, 0
2, 28874, Note_on_c, 0, 74, 12
2, 28885, Note_on_c, 0, 74, 0
2, 28924, Note_on_c, 0, 72, 75
2, 28925, Note_on_c, 0, 58, 34
2, 28926, Note_on_c, 0, 62, 38
2, 28933, Note_on_c, 0, 52, 24
2, 28943, Note_on_c, 0, 52, 0
2, 28944, Note_on_c, 0, 62, 0
2, 28944, Note_on_c, 0, 58, 0
2, 28945, Note_on_c, 0, 72, 0
2, 28958, Note_on_c, 0, 74, 40
2, 28968, Note_on_c, 0, 72, 24
2, 28976, Note_on_c, 0, 74, 0
2, 28986, Note_on_c, 0, 71, 60
2, 28991, Note_on_c, 0, 72, 0
2, 29013, Note_on_c, 0, 71, 0
2, 29022, Note_on_c, 0, 70, 57
2, 29030, Note_on_c, 0, 62, 42
2, 29033, Note_on_c, 0, 58, 25
2, 29039, Note_on_c, 0, 62, 0
2, 29044, Note_on_c, 0, 58, 0
2, 29047, Note_on_c, 0, 70, 0
2, 29056, Note_on_c, 0, 67, 39
2, 29081, Note_on_c, 0, 67, 0
2, 29166, Note_on_c, 0, 62, 47
2, 29167, Note_on_c, 0, 58, 35
2, 29173, Note_on_c, 0, 52, 20
2, 29181, Note_on_c, 0, 52, 0
2, 29183, Note_on_c, 0, 62, 0
2, 29185, Note_on_c, 0, 58, 0
2, 29262, Note_on_c, 0, 61, 44
2, 29264, Note_on_c, 0, 65, 49
2, 29265, Note_on_c, 0, 55, 45
2, 29356, Note_on_c, 0, 61, 0
2, 29372, Note_on_c, 0, 61, 38
2, 29379, Note_on_c, 0, 65, 0
2, 29398, Note_on_c, 0, 61, 0
2, 29399, Note_on_c, 0, 70, 74
2, 29408, Note_on_c, 0, 55, 0
2, 29429, Note_on_c, 0, 70, 0
2, 29431, Note_on_c, 0, 55, 14
2, 29435, Note_on_c, 0, 67, 45
2, 29446, Note_on_c, 0, 67, 0
2, 29452, Note_on_c, 0, 55, 0
2, 29467, Note_on_c, 0, 69, 33
2, 29487, Note_on_c, 0, 69, 0
2, 29492, Note_on_c, 0, 70, 69
2, 29502, Note_on_c, 0, 61, 31
2, 29511, Note_on_c, 0, 70, 0
2, 29519, Note_on_c, 0, 61, 0
2, 29521, Note_on_c, 0, 72, 53
2, 29543, Note_on_c, 0, 72, 0
2, 29554, Note_on_c, 0, 73, 49
2, 29573, Note_on_c, 0, 73, 0
2, 29580, Note_on_c, 0, 75, 60
2, 29605, Note_on_c, 0, 75, 0
2, 29612, Note_on_c, 0, 76, 70
2, 29629, Note_on_c, 0, 76, 0
2, 29638, Note_on_c, 0, 79, 79
2, 29643, Note_on_c, 0, 61, 29
2, 29644, Note_on_c, 0, 64, 28
2, 29648, Note_on_c, 0, 55, 31
2, 29670, Note_on_c, 0, 79, 0
2, 29678, Note_on_c, 0, 64, 0
2, 29679, Note_on_c, 0, 76, 48
2, 29687, Note_on_c, 0, 61, 0
2, 29689, Note_on_c, 0, 55, 0
2, 29692, Note_on_c, 0, 76, 0
2, 29705, Note_on_c, 0, 77, 65
2, 29740, Note_on_c, 0, 77, 0
2, 29741, Note_on_c, 0, 73, 39
2, 29752, Note_on_c, 0, 73, 0
2, 29766, Note_on_c, 0, 76, 78
2, 29802, Note_on_c, 0, 76, 0
2, 29803, Note_on_c, 0, 73, 37
2, 29813, Note_on_c, 0, 73, 0
2, 29826, Note_on_c, 0, 75, 64
2, 29857, Note_on_c, 0, 75, 0
2, 29864, Note_on_c, 0, 73, 31
2, 29879, Note_on_c, 0, 73, 0
2, 29888, Note_on_c, 0, 74, 56
2, 29913, Note_on_c, 0, 74, 0
2, 29922, Note_on_c, 0, 69, 60
2, 29937, Note_on_c, 0, 69, 0
2, 29946, Note_on_c, 0, 67, 44
2, 30002, Note_on_c, 0, 65, 68
2, 30007, Note_on_c, 0, 67, 0
2, 30110, Note_on_c, 0, 65, 0
2, 30129, Note_on_c, 0, 57, 36
2, 30129, Note_on_c, 0, 61, 34
2, 30133, Note_on_c, 0, 64, 52
2, 30159, Note_on_c, 0, 64, 0
2, 30166, Note_on_c, 0, 67, 49
2, 30191, Note_on_c, 0, 67, 0
2, 30193, Note_on_c, 0, 64, 35
2, 30228, Note_on_c, 0, 57, 0
2, 30229, Note_on_c, 0, 61, 0
2, 30242, Note_on_c, 0, 64, 0
2, 30248, Note_on_c, 0, 50, 18
2, 30248, Note_on_c, 0, 62, 51
2, 30254, Note_on_c, 0, 60, 19
2, 30254, Note_on_c, 0, 57, 19
2, 30273, Note_on_c, 0, 62, 0
2, 30287, Note_on_c, 0, 64, 42
2, 30297, Note_on_c, 0, 60, 0
2, 30310, Note_on_c, 0, 57, 0
2, 30310, Note_on_c, 0, 64, 0
2, 30313, Note_on_c, 0, 50, 0
2, 30314, Note_on_c, 0, 62, 33
2, 30355, Note_on_c, 0, 62, 0
2, 30363, Note_on_c, 0, 61, 46
2, 30363, Note_on_c, 0, 57, 34
2, 30387, Note_on_c, 0, 57, 0
2, 30389, Note_on_c, 0, 61, 0
2, 30398, Note_on_c, 0, 64, 45
2, 30424, Note_on_c, 0, 64, 0
2, 30425, Note_on_c, 0, 61, 31
2, 30465, Note_on_c, 0, 61, 0
2, 30470, Note_on_c, 0, 57, 32
2, 30477, Note_on_c, 0, 62, 51
2, 30480, Note_on_c, 0, 57, 0
2, 30506, Note_on_c, 0, 62, 0
2, 30515, Note_on_c, 0, 57, 42
2, 30576, Note_on_c, 0, 57, 0
2, 30581, Note_on_c, 0, 53, 26
2, 30602, Note_on_c, 0, 53, 0
2, 30604, Note_on_c, 0, 57, 45
2, 30709, Note_on_c, 0, 57, 0
2, 30787, Note_on_c, 0, 57, 32
2, 30787, Note_on_c, 0, 53, 35
2, 30789, Note_on_c, 0, 60, 20
2, 30798, Note_on_c, 0, 60, 0
2, 30799, Note_on_c, 0, 57, 0
2, 30807, Note_on_c, 0, 53, 0
2, 30848, Note_on_c, 0, 76, 80
2, 30849, Note_on_c, 0, 69, 87
2, 30877, Note_on_c, 0, 69, 0
2, 30879, Note_on_c, 0, 76, 0
2, 30884, Note_on_c, 0, 65, 37
2, 30900, Note_on_c, 0, 65, 0
2, 30939, Note_on_c, 0, 76, 69
2, 30941, Note_on_c, 0, 69, 68
2, 30960, Note_on_c, 0, 69, 0
2, 30962, Note_on_c, 0, 76, 0
2, 30978, Note_on_c, 0, 72, 30
2, 30978, Note_on_c, 0, 65, 39
2, 30999, Note_on_c, 0, 65, 0
2, 31010, Note_on_c, 0, 72, 0
2, 31041, Note_on_c, 0, 57, 30
2, 31041, Note_on_c, 0, 60, 32
2, 31041, Note_on_c, 0, 60, 0
2, 31043, Note_on_c, 0, 57, 0
2, 31088, Note_on_c, 0, 48, 44
2, 31091, Note_on_c, 0, 57, 31
2, 31146, Control_c, 0, 64, 127
2, 31153, Note_on_c, 0, 57, 0
2, 31153, Note_on_c, 0, 48, 0
2, 31182, Control_c, 0, 64, 0
2, 31206, Control_c, 0, 64, 127
2, 31209, Note_on_c, 0, 47, 36
2, 31210, Note_on_c, 0, 57, 36
2, 31216, Note_on_c, 0, 47, 0
2, 31225, Note_on_c, 0, 57, 0
2, 31270, Note_on_c, 0, 65, 48
2, 31270, Note_on_c, 0, 57, 33
2, 31274, Note_on_c, 0, 62, 52
2, 31283, Control_c, 0, 64, 0
2, 31389, Note_on_c, 0, 76, 108
2, 31420, Note_on_c, 0, 65, 0
2, 31424, Note_on_c, 0, 76, 0
2, 31424, Note_on_c, 0, 77, 66
2, 31425, Note_on_c, 0, 57, 0
2, 31428, Note_on_c, 0, 62, 0
2, 31442, Note_on_c, 0, 76, 51
2, 31448, Note_on_c, 0, 77, 0
2, 31460, Note_on_c, 0, 74, 45
2, 31462, Note_on_c, 0, 76, 0
2, 31479, Note_on_c, 0, 74, 0
2, 31507, Note_on_c, 0, 65, 50
2, 31507, Note_on_c, 0, 62, 49
2, 31512, Note_on_c, 0, 56, 25
2, 31564, Note_on_c, 0, 65, 0
2, 31564, Note_on_c, 0, 74, 78
2, 31564, Note_on_c, 0, 76, 72
2, 31577, Note_on_c, 0, 62, 0
2, 31581, Note_on_c, 0, 56, 0
2, 31583, Note_on_c, 0, 74, 0
2, 31583, Note_on_c, 0, 76, 0
2, 31596, Note_on_c, 0, 76, 41
2, 31603, Note_on_c, 0, 56, 19
2, 31608, Note_on_c, 0, 74, 55
2, 31608, Note_on_c, 0, 62, 16
2, 31614, Note_on_c, 0, 76, 0
2, 31626, Note_on_c, 0, 56, 0
2, 31628, Note_on_c, 0, 62, 0
2, 31632, Note_on_c, 0, 74, 0
2, 31633, Note_on_c, 0, 72, 38
2, 31649, Note_on_c, 0, 72, 0
2, 31662, Note_on_c, 0, 71, 72
2, 31665, Note_on_c, 0, 56, 35
2, 31688, Note_on_c, 0, 71, 0
2, 31690, Note_on_c, 0, 69, 39
2, 31703, Note_on_c, 0, 56, 0
2, 31712, Note_on_c, 0, 69, 0
2, 31735, Note_on_c, 0, 64, 24
2, 31748, Note_on_c, 0, 57, 17
2, 31749, Note_on_c, 0, 71, 56
2, 31784, Note_on_c, 0, 71, 0
2, 31786, Note_on_c, 0, 68, 34
2, 31789, Note_on_c, 0, 64, 0
2, 31801, Note_on_c, 0, 68, 0
2, 31811, Note_on_c, 0, 69, 47
2, 31813, Note_on_c, 0, 57, 0
2, 31835, Note_on_c, 0, 69, 0
2, 31844, Note_on_c, 0, 64, 50
2, 31854, Note_on_c, 0, 64, 0
2, 31865, Note_on_c, 0, 64, 22
2, 31890, Note_on_c, 0, 64, 0
2, 31904, Note_on_c, 0, 64, 66
2, 31919, Note_on_c, 0, 64, 0
2, 31932, Note_on_c, 0, 64, 44
2, 31963, Note_on_c, 0, 64, 0
2, 31987, Note_on_c, 0, 64, 53
2, 31991, Note_on_c, 0, 55, 42
2, 31992, Note_on_c, 0, 60, 28
2, 32057, Note_on_c, 0, 55, 0
2, 32078, Note_on_c, 0, 60, 0
2, 32103, Note_on_c, 0, 55, 40
2, 32109, Note_on_c, 0, 64, 0
2, 32111, Note_on_c, 0, 55, 0
2, 32163, Note_on_c, 0, 60, 32
2, 32164, Note_on_c, 0, 64, 24
2, 32164, Note_on_c, 0, 57, 29
2, 32165, Note_on_c, 0, 53, 28
2, 32222, Note_on_c, 0, 72, 74
2, 32223, Note_on_c, 0, 79, 68
2, 32237, Note_on_c, 0, 79, 0
2, 32244, Note_on_c, 0, 72, 0
2, 32260, Note_on_c, 0, 72, 49
2, 32263, Note_on_c, 0, 79, 52
2, 32273, Note_on_c, 0, 79, 0
2, 32275, Note_on_c, 0, 72, 0
2, 32286, Note_on_c, 0, 79, 52
2, 32287, Note_on_c, 0, 72, 52
2, 32291, Control_c, 0, 64, 127
2, 32308, Note_on_c, 0, 79, 0
2, 32310, Note_on_c, 0, 72, 0
2, 32317, Note_on_c, 0, 64, 0
2, 32319, Note_on_c, 0, 60, 0
2, 32320, Note_on_c, 0, 57, 0
2, 32342, Note_on_c, 0, 76, 56
2, 32343, Note_on_c, 0, 69, 52
2, 32349, Note_on_c, 0, 57, 29
2, 32357, Control_c, 0, 64, 0
2, 32358, Note_on_c, 0, 69, 0
2, 32362, Note_on_c, 0, 76, 0
2, 32376, Note_on_c, 0, 76, 57
2, 32378, Note_on_c, 0, 69, 66
2, 32392, Note_on_c, 0, 69, 0
2, 32392, Note_on_c, 0, 76, 0
2, 32403, Note_on_c, 0, 76, 43
2, 32404, Control_c, 0, 64, 127
2, 32406, Note_on_c, 0, 69, 62
2, 32408, Note_on_c, 0, 57, 0
2, 32428, Control_c, 0, 64, 0
2, 32437, Note_on_c, 0, 69, 0
2, 32449, Note_on_c, 0, 76, 0
2, 32456, Note_on_c, 0, 57, 19
2, 32461, Note_on_c, 0, 69, 52
2, 32462, Note_on_c, 0, 65, 44
2, 32473, Note_on_c, 0, 65, 0
2, 32477, Note_on_c, 0, 69, 0
2, 32484, Note_on_c, 0, 57, 0
2, 32494, Note_on_c, 0, 69, 51
2, 32495, Note_on_c, 0, 65, 60
2, 32509, Note_on_c, 0, 65, 0
2, 32511, Note_on_c, 0, 69, 0
2, 32517, Note_on_c, 0, 64, 19
2, 32523, Note_on_c, 0, 69, 57
2, 32524, Note_on_c, 0, 65, 40
2, 32524, Note_on_c, 0, 60, 16
2, 32545, Note_on_c, 0, 53, 0
2, 32554, Note_on_c, 0, 65, 0
2, 32557, Note_on_c, 0, 60, 0
2, 32559, Note_on_c, 0, 64, 0
2, 32561, Note_on_c, 0, 69, 0
2, 32580, Note_on_c, 0, 76, 63
2, 32582, Note_on_c, 0, 65, 66
2, 32583, Note_on_c, 0, 69, 68
2, 32583, Note_on_c, 0, 71, 60
2, 32587, Note_on_c, 0, 64, 72
2, 32596, Note_on_c, 0, 65, 0
2, 32599, Note_on_c, 0, 69, 0
2, 32603, Note_on_c, 0, 76, 0
2, 32604, Note_on_c, 0, 71, 0
2, 32610, Note_on_c, 0, 64, 0
2, 32617, Note_on_c, 0, 76, 68
2, 32618, Note_on_c, 0, 65, 67
2, 32619, Note_on_c, 0, 71, 58
2, 32620, Note_on_c, 0, 69, 71
2, 32625, Note_on_c, 0, 64, 43
2, 32630, Note_on_c, 0, 65, 0
2, 32634, Note_on_c, 0, 69, 0
2, 32637, Note_on_c, 0, 71, 0
2, 32648, Note_on_c, 0, 69, 56
2, 32648, Note_on_c, 0, 65, 54
2, 32650, Note_on_c, 0, 71, 65
2, 32679, Note_on_c, 0, 65, 0
2, 32679, Note_on_c, 0, 69, 0
2, 32684, Note_on_c, 0, 71, 0
2, 32685, Note_on_c, 0, 76, 0
2, 32698, Note_on_c, 0, 64, 0
2, 32700, Note_on_c, 0, 65, 47
2, 32700, Note_on_c, 0, 62, 52
2, 32701, Note_on_c, 0, 71, 51
2, 32702, Note_on_c, 0, 69, 50
2, 32702, Note_on_c, 0, 74, 47
2, 32711, Note_on_c, 0, 69, 0
2, 32714, Note_on_c, 0, 65, 0
2, 32718, Note_on_c, 0, 71, 0
2, 32720, Note_on_c, 0, 74, 0
2, 32721, Note_on_c, 0, 62, 0
2, 32733, Note_on_c, 0, 65, 55
2, 32733, Note_on_c, 0, 74, 54
2, 32735, Note_on_c, 0, 71, 49
2, 32737, Note_on_c, 0, 69, 61
2, 32737, Note_on_c, 0, 62, 38
2, 32743, Note_on_c, 0, 69, 0
2, 32748, Note_on_c, 0, 65, 0
2, 32752, Note_on_c, 0, 71, 0
2, 32753, Note_on_c, 0, 74, 0
2, 32765, Note_on_c, 0, 74, 54
2, 32766, Note_on_c, 0, 65, 37
2, 32768, Note_on_c, 0, 71, 59
2, 32769, Note_on_c, 0, 69, 61
2, 32792, Note_on_c, 0, 69, 0
2, 32793, Note_on_c, 0, 71, 0
2, 32795, Note_on_c, 0, 65, 0
2, 32795, Note_on_c, 0, 74, 0
2, 32803, Note_on_c, 0, 62, 0
2, 32819, Note_on_c, 0, 72, 32
2, 32821, Note_on_c, 0, 65, 37
2, 32821, Note_on_c, 0, 69, 47
2, 32823, Note_on_c, 0, 60, 33
2, 32833, Note_on_c, 0, 65, 0
2, 32835, Note_on_c, 0, 60, 0
2, 32835, Note_on_c, 0, 69, 0
2, 32839, Note_on_c, 0, 72, 0
2, 32853, Note_on_c, 0, 72, 39
2, 32854, Note_on_c, 0, 65, 56
2, 32855, Note_on_c, 0, 69, 64
2, 32859, Note_on_c, 0, 60, 46
2, 32869, Note_on_c, 0, 65, 0
2, 32870, Note_on_c, 0, 69, 0
2, 32872, Note_on_c, 0, 72, 0
2, 32872, Note_on_c, 0, 60, 0
2, 32886, Note_on_c, 0, 69, 61
2, 32886, Note_on_c, 0, 65, 49
2, 32886, Note_on_c, 0, 72, 50
2, 32889, Note_on_c, 0, 60, 34
2, 32914, Note_on_c, 0, 65, 0
2, 32919, Note_on_c, 0, 69, 0
2, 32925, Note_on_c, 0, 60, 0
2, 32929, Note_on_c, 0, 72, 0
2, 32944, Note_on_c, 0, 71, 51
2, 32946, Note_on_c, 0, 69, 43
2, 32947, Note_on_c, 0, 65, 22
2, 32954, Note_on_c, 0, 69, 0
2, 32955, Note_on_c, 0, 65, 0
2, 32960, Note_on_c, 0, 71, 0
2, 32975, Note_on_c, 0, 65, 47
2, 32975, Note_on_c, 0, 71, 59
2, 32978, Note_on_c, 0, 69, 63
2, 32982, Note_on_c, 0, 59, 28
2, 32984, Note_on_c, 0, 69, 0
2, 32988, Note_on_c, 0, 59, 0
2, 32989, Note_on_c, 0, 65, 0
2, 32992, Note_on_c, 0, 71, 0
2, 33006, Note_on_c, 0, 65, 50
2, 33006, Note_on_c, 0, 71, 67
2, 33008, Note_on_c, 0, 69, 71
2, 33009, Note_on_c, 0, 59, 32
2, 33036, Note_on_c, 0, 69, 0
2, 33041, Note_on_c, 0, 65, 0
2, 33046, Note_on_c, 0, 59, 0
2, 33054, Note_on_c, 0, 71, 0
2, 33065, Note_on_c, 0, 69, 45
2, 33066, Note_on_c, 0, 65, 45
2, 33074, Control_c, 0, 64, 127
2, 33085, Note_on_c, 0, 69, 0
2, 33087, Note_on_c, 0, 65, 0
2, 33090, Control_c, 0, 64, 0
2, 33121, Note_on_c, 0, 56, 34
2, 33121, Note_on_c, 0, 62, 42
2, 33123, Note_on_c, 0, 68, 42
2, 33125, Note_on_c, 0, 65, 44
2, 33128, Control_c, 0, 64, 127
2, 33130, Note_on_c, 0, 52, 26
2, 33141, Control_c, 0, 64, 0
2, 33147, Note_on_c, 0, 65, 0
2, 33149, Note_on_c, 0, 52, 0
2, 33150, Note_on_c, 0, 62, 0
2, 33153, Note_on_c, 0, 68, 0
2, 33156, Note_on_c, 0, 56, 0
2, 33185, Note_on_c, 0, 62, 34
2, 33185, Note_on_c, 0, 56, 28
2, 33185, Note_on_c, 0, 68, 36
2, 33189, Note_on_c, 0, 65, 38
2, 33190, Note_on_c, 0, 52, 34
2, 33244, Note_on_c, 0, 65, 0
2, 33244, Control_c, 0, 64, 127
2, 33252, Note_on_c, 0, 68, 0
2, 33264, Note_on_c, 0, 62, 0
2, 33308, Note_on_c, 0, 63, 47
2, 33318, Control_c, 0, 64, 0
2, 33331, Note_on_c, 0, 63, 0
2, 33347, Note_on_c, 0, 64, 34
2, 33358, Note_on_c, 0, 64, 0
2, 33402, Note_on_c, 0, 67, 73
2, 33404, Note_on_c, 0, 65, 73
2, 33410, Note_on_c, 0, 65, 0
2, 33418, Note_on_c, 0, 67, 0
2, 33456, Note_on_c, 0, 68, 71
2, 33471, Note_on_c, 0, 68, 0
2, 33473, Note_on_c, 0, 62, 1
2, 33476, Note_on_c, 0, 52, 0
2, 33480, Note_on_c, 0, 56, 0
2, 33494, Note_on_c, 0, 62, 0
2, 33494, Note_on_c, 0, 70, 71
2, 33526, Note_on_c, 0, 70, 0
2, 33527, Note_on_c, 0, 71, 68
2, 33548, Note_on_c, 0, 71, 0
2, 33566, Note_on_c, 0, 74, 82
2, 33590, Note_on_c, 0, 74, 0
2, 33603, Note_on_c, 0, 71, 64
2, 33618, Note_on_c, 0, 60, 29
2, 33619, Note_on_c, 0, 59, 34
2, 33623, Note_on_c, 0, 64, 19
2, 33628, Note_on_c, 0, 71, 0
2, 33647, Note_on_c, 0, 72, 61
2, 33675, Note_on_c, 0, 72, 0
2, 33686, Note_on_c, 0, 69, 57
2, 33704, Note_on_c, 0, 69, 0
2, 33738, Note_on_c, 0, 69, 60
2, 33761, Note_on_c, 0, 69, 0
2, 33791, Note_on_c, 0, 69, 64
2, 33816, Note_on_c, 0, 69, 0
2, 33838, Note_on_c, 0, 64, 0
2, 33849, Note_on_c, 0, 69, 60
2, 33857, Note_on_c, 0, 64, 8
2, 33875, Note_on_c, 0, 69, 0
2, 33905, Note_on_c, 0, 69, 55
2, 33916, Note_on_c, 0, 64, 0
2, 33936, Note_on_c, 0, 60, 0
2, 33937, Note_on_c, 0, 69, 0
2, 33939, Note_on_c, 0, 68, 35
2, 33955, Note_on_c, 0, 68, 0
2, 33959, Note_on_c, 0, 59, 0
2, 33967, Note_on_c, 0, 69, 51
2, 33977, Note_on_c, 0, 59, 11
2, 33978, Note_on_c, 0, 60, 24
2, 33979, Note_on_c, 0, 64, 15
2, 34024, Note_on_c, 0, 59, 0
2, 34025, Note_on_c, 0, 76, 64
2, 34026, Note_on_c, 0, 60, 0
2, 34031, Note_on_c, 0, 64, 0
2, 34046, Note_on_c, 0, 69, 0
2, 34151, Note_on_c, 0, 65, 24
2, 34152, Note_on_c, 0, 62, 28
2, 34155, Note_on_c, 0, 57, 20
2, 34158, Note_on_c, 0, 65, 0
2, 34160, Note_on_c, 0, 62, 0
2, 34162, Note_on_c, 0, 57, 0
2, 34210, Note_on_c, 0, 65, 32
2, 34210, Note_on_c, 0, 57, 34
2, 34212, Note_on_c, 0, 62, 36
2, 34265, Control_c, 0, 64, 127
2, 34268, Note_on_c, 0, 57, 0
2, 34279, Note_on_c, 0, 65, 0
2, 34281, Note_on_c, 0, 62, 0
2, 34324, Note_on_c, 0, 67, 50
2, 34326, Note_on_c, 0, 62, 45
2, 34326, Note_on_c, 0, 56, 28
2, 34331, Note_on_c, 0, 76, 0
2, 34337, Note_on_c, 0, 67, 0
2, 34338, Control_c, 0, 64, 0
2, 34341, Note_on_c, 0, 62, 0
2, 34341, Note_on_c, 0, 56, 0
2, 34389, Note_on_c, 0, 67, 35
2, 34389, Note_on_c, 0, 56, 31
2, 34392, Note_on_c, 0, 62, 38
2, 34470, Note_on_c, 0, 62, 0
2, 34472, Note_on_c, 0, 56, 0
2, 34472, Note_on_c, 0, 67, 0
2, 34555, Note_on_c, 0, 64, 37
2, 34558, Note_on_c, 0, 59, 39
2, 34559, Note_on_c, 0, 60, 47
2, 34677, Note_on_c, 0, 95, 91
2, 34699, Note_on_c, 0, 95, 0
2, 34711, Note_on_c, 0, 96, 81
2, 34730, Note_on_c, 0, 96, 0
2, 34737, Note_on_c, 0, 95, 60
2, 34751, Note_on_c, 0, 95, 0
2, 34799, Note_on_c, 0, 91, 65
2, 34812, Note_on_c, 0, 91, 0
2, 34859, Note_on_c, 0, 93, 87
2, 34879, Note_on_c, 0, 93, 0
2, 34924, Note_on_c, 0, 88, 60
2, 34956, Note_on_c, 0, 88, 0
2, 34971, Note_on_c, 0, 59, 0
2, 34973, Note_on_c, 0, 60, 0
2, 34983, Note_on_c, 0, 91, 74
2, 34984, Note_on_c, 0, 64, 0
2, 35042, Note_on_c, 0, 91, 0
2, 35045, Note_on_c, 0, 65, 33
2, 35050, Note_on_c, 0, 62, 45
2, 35050, Note_on_c, 0, 57, 37
2, 35107, Note_on_c, 0, 89, 90
2, 35137, Note_on_c, 0, 89, 0
2, 35167, Note_on_c, 0, 81, 63
2, 35181, Note_on_c, 0, 81, 0
2, 35223, Note_on_c, 0, 88, 96
2, 35224, Note_on_c, 0, 65, 0
2, 35225, Note_on_c, 0, 57, 0
2, 35226, Note_on_c, 0, 62, 0
2, 35239, Note_on_c, 0, 88, 0
2, 35286, Note_on_c, 0, 80, 56
2, 35318, Note_on_c, 0, 80, 0
2, 35340, Note_on_c, 0, 65, 62
2, 35341, Note_on_c, 0, 86, 90
2, 35342, Note_on_c, 0, 56, 53
2, 35343, Note_on_c, 0, 62, 60
2, 35355, Note_on_c, 0, 65, 0
2, 35358, Note_on_c, 0, 62, 0
2, 35359, Note_on_c, 0, 86, 0
2, 35365, Note_on_c, 0, 56, 0
2, 35406, Note_on_c, 0, 79, 49
2, 35425, Note_on_c, 0, 79, 0
2, 35461, Note_on_c, 0, 77, 70
2, 35482, Note_on_c, 0, 77, 0
2, 35524, Note_on_c, 0, 64, 26
2, 35527, Note_on_c, 0, 59, 36
2, 35528, Note_on_c, 0, 60, 43
2, 35528, Note_on_c, 0, 76, 62
2, 35529, Note_on_c, 0, 57, 32
2, 35554, Note_on_c, 0, 76, 0
2, 35560, Note_on_c, 0, 77, 56
2, 35590, Note_on_c, 0, 77, 0
2, 35592, Note_on_c, 0, 76, 50
2, 35617, Note_on_c, 0, 76, 0
2, 35644, Note_on_c, 0, 72, 35
2, 35703, Note_on_c, 0, 69, 55
2, 35728, Note_on_c, 0, 72, 0
2, 35792, Note_on_c, 0, 59, 0
2, 35795, Note_on_c, 0, 57, 0
2, 35795, Note_on_c, 0, 64, 0
2, 35795, Note_on_c, 0, 60, 0
2, 35916, Note_on_c, 0, 69, 0
2, 35948, Note_on_c, 0, 69, 92
2, 35975, Note_on_c, 0, 69, 0
2, 35976, Note_on_c, 0, 71, 68
2, 35998, Note_on_c, 0, 71, 0
2, 36004, Note_on_c, 0, 71, 57
2, 36033, Note_on_c, 0, 72, 58
2, 36039, Note_on_c, 0, 71, 0
2, 36057, Note_on_c, 0, 72, 0
2, 36057, Note_on_c, 0, 62, 35
2, 36058, Note_on_c, 0, 65, 32
2, 36062, Note_on_c, 0, 72, 39
2, 36064, Note_on_c, 0, 57, 34
2, 36093, Note_on_c, 0, 72, 0
2, 36095, Note_on_c, 0, 74, 70
2, 36114, Note_on_c, 0, 74, 0
2, 36124, Note_on_c, 0, 74, 60
2, 36150, Note_on_c, 0, 74, 0
2, 36158, Note_on_c, 0, 76, 80
2, 36177, Note_on_c, 0, 76, 0
2, 36186, Note_on_c, 0, 76, 85
2, 36201, Note_on_c, 0, 57, 0
2, 36204, Note_on_c, 0, 65, 0
2, 36209, Note_on_c, 0, 76, 0
2, 36210, Note_on_c, 0, 62, 0
2, 36217, Note_on_c, 0, 77, 69
2, 36237, Note_on_c, 0, 77, 0
2, 36249, Note_on_c, 0, 77, 66
2, 36250, Note_on_c, 0, 65, 35
2, 36250, Note_on_c, 0, 62, 34
2, 36250, Note_on_c, 0, 56, 34
2, 36275, Note_on_c, 0, 77, 0
2, 36282, Note_on_c, 0, 79, 69
2, 36297, Note_on_c, 0, 79, 0
2, 36310, Note_on_c, 0, 80, 58
2, 36318, Note_on_c, 0, 65, 0
2, 36339, Note_on_c, 0, 80, 0
2, 36339, Note_on_c, 0, 62, 0
2, 36368, Note_on_c, 0, 82, 65
2, 36368, Note_on_c, 0, 65, 31
2, 36371, Note_on_c, 0, 62, 36
2, 36385, Note_on_c, 0, 65, 0
2, 36389, Note_on_c, 0, 62, 0
2, 36403, Note_on_c, 0, 82, 0
2, 36403, Note_on_c, 0, 83, 78
2, 36416, Note_on_c, 0, 83, 0
2, 36419, Note_on_c, 0, 56, 0
2, 36428, Note_on_c, 0, 86, 101
2, 36461, Note_on_c, 0, 86, 0
2, 36464, Note_on_c, 0, 83, 54
2, 36481, Note_on_c, 0, 83, 0
2, 36490, Note_on_c, 0, 57, 34
2, 36493, Note_on_c, 0, 84, 74
2, 36493, Note_on_c, 0, 64, 20
2, 36495, Note_on_c, 0, 60, 41
2, 36497, Note_on_c, 0, 59, 32
2, 36517, Note_on_c, 0, 84, 0
2, 36527, Note_on_c, 0, 80, 34
2, 36541, Note_on_c, 0, 80, 0
2, 36550, Note_on_c, 0, 83, 66
2, 36554, Note_on_c, 0, 64, 0
2, 36555, Note_on_c, 0, 59, 0
2, 36557, Note_on_c, 0, 60, 0
2, 36564, Note_on_c, 0, 57, 0
2, 36580, Note_on_c, 0, 83, 0
2, 36580, Note_on_c, 0, 80, 37
2, 36594, Note_on_c, 0, 80, 0
2, 36610, Note_on_c, 0, 81, 59
2, 36632, Note_on_c, 0, 81, 0
2, 36640, Note_on_c, 0, 76, 59
2, 36654, Note_on_c, 0, 76, 0
2, 36666, Note_on_c, 0, 74, 49
2, 36694, Note_on_c, 0, 74, 0
2, 36699, Note_on_c, 0, 72, 45
2, 36716, Note_on_c, 0, 72, 0
2, 36716, Note_on_c, 0, 52, 31
2, 36718, Note_on_c, 0, 45, 32
2, 36726, Note_on_c, 0, 71, 50
2, 36732, Note_on_c, 0, 45, 0
2, 36735, Note_on_c, 0, 52, 0
2, 36773, Note_on_c, 0, 71, 0
2, 36786, Note_on_c, 0, 71, 65
2, 36832, Note_on_c, 0, 71, 0
2, 36906, Note_on_c, 0, 72, 95
2, 36999, Note_on_c, 0, 71, 58
2, 37001, Note_on_c, 0, 72, 0
2, 37007, Note_on_c, 0, 71, 0
2, 37007, Note_on_c, 0, 70, 69
2, 37033, Note_on_c, 0, 70, 0
2, 37034, Note_on_c, 0, 69, 58
2, 37069, Note_on_c, 0, 69, 0
2, 37096, Note_on_c, 0, 64, 50
2, 37177, Note_on_c, 0, 64, 0
2, 37184, Note_on_c, 0, 67, 80
2, 37196, Note_on_c, 0, 59, 45
2, 37198, Note_on_c, 0, 53, 28
2, 37204, Note_on_c, 0, 59, 0
2, 37204, Note_on_c, 0, 67, 0
2, 37211, Note_on_c, 0, 53, 0
2, 37217, Note_on_c, 0, 65, 67
2, 37269, Note_on_c, 0, 65, 0
2, 37272, Note_on_c, 0, 62, 61
2, 37356, Note_on_c, 0, 62, 0
2, 37360, Note_on_c, 0, 65, 70
2, 37368, Note_on_c, 0, 59, 31
2, 37369, Note_on_c, 0, 48, 29
2, 37375, Note_on_c, 0, 59, 0
2, 37379, Note_on_c, 0, 48, 0
2, 37384, Note_on_c, 0, 65, 0
2, 37397, Note_on_c, 0, 63, 35
2, 37419, Note_on_c, 0, 63, 0
2, 37425, Note_on_c, 0, 64, 51
2, 37442, Note_on_c, 0, 64, 0
2, 37452, Note_on_c, 0, 66, 77
2, 37624, Note_on_c, 0, 66, 0
2, 37625, Note_on_c, 0, 69, 74
2, 37657, Note_on_c, 0, 69, 0
2, 37665, Note_on_c, 0, 66, 33
2, 37688, Note_on_c, 0, 66, 0
2, 37690, Note_on_c, 0, 67, 58
2, 37791, Note_on_c, 0, 67, 0
2, 37792, Note_on_c, 0, 69, 57
2, 37815, Note_on_c, 0, 69, 0
2, 37822, Note_on_c, 0, 70, 42
2, 37845, Note_on_c, 0, 70, 0
2, 37852, Note_on_c, 0, 72, 69
2, 37874, Note_on_c, 0, 72, 0
2, 37877, Note_on_c, 0, 73, 42
2, 37904, Note_on_c, 0, 73, 0
2, 37909, Note_on_c, 0, 75, 67
2, 37922, Note_on_c, 0, 64, 54
2, 37924, Note_on_c, 0, 61, 32
2, 37928, Note_on_c, 0, 75, 0
2, 37931, Note_on_c, 0, 64, 0
2, 37932, Note_on_c, 0, 76, 45
2, 37942, Note_on_c, 0, 61, 0
2, 37961, Note_on_c, 0, 76, 0
2, 37962, Note_on_c, 0, 78, 57
2, 37977, Note_on_c, 0, 78, 0
2, 37986, Note_on_c, 0, 79, 63
2, 38008, Note_on_c, 0, 79, 0
2, 38017, Note_on_c, 0, 81, 77
2, 38038, Note_on_c, 0, 81, 0
2, 38046, Note_on_c, 0, 82, 61
2, 38064, Note_on_c, 0, 82, 0
2, 38075, Note_on_c, 0, 84, 79
2, 38085, Note_on_c, 0, 61, 55
2, 38085, Note_on_c, 0, 58, 55
2, 38085, Note_on_c, 0, 64, 58
2, 38089, Note_on_c, 0, 55, 42
2, 38092, Note_on_c, 0, 64, 0
2, 38093, Note_on_c, 0, 84, 0
2, 38096, Note_on_c, 0, 61, 0
2, 38096, Note_on_c, 0, 55, 0
2, 38097, Note_on_c, 0, 58, 0
2, 38103, Note_on_c, 0, 85, 71
2, 38123, Note_on_c, 0, 85, 0
2, 38132, Note_on_c, 0, 87, 77
2, 38137, Note_on_c, 0, 85, 27
2, 38143, Note_on_c, 0, 85, 0
2, 38156, Note_on_c, 0, 87, 0
2, 38161, Note_on_c, 0, 88, 72
2, 38181, Note_on_c, 0, 88, 0
2, 38191, Note_on_c, 0, 91, 87
2, 38213, Note_on_c, 0, 91, 0
2, 38213, Note_on_c, 0, 64, 67
2, 38215, Note_on_c, 0, 61, 48
2, 38217, Note_on_c, 0, 89, 74
2, 38218, Note_on_c, 0, 55, 36
2, 38219, Note_on_c, 0, 58, 25
2, 38220, Note_on_c, 0, 64, 0
2, 38222, Note_on_c, 0, 91, 19
2, 38225, Note_on_c, 0, 55, 0
2, 38228, Note_on_c, 0, 91, 0
2, 38230, Note_on_c, 0, 61, 0
2, 38232, Note_on_c, 0, 58, 0
2, 38258, Note_on_c, 0, 89, 0
2, 38285, Note_on_c, 0, 85, 57
2, 38310, Note_on_c, 0, 85, 0
2, 38315, Note_on_c, 0, 88, 68
2, 38337, Note_on_c, 0, 88, 0
2, 38344, Note_on_c, 0, 86, 64
2, 38401, Note_on_c, 0, 86, 0
2, 38406, Note_on_c, 0, 60, 43
2, 38407, Note_on_c, 0, 79, 36
2, 38411, Note_on_c, 0, 57, 31
2, 38412, Note_on_c, 0, 53, 27
2, 38415, Note_on_c, 0, 60, 0
2, 38420, Note_on_c, 0, 57, 0
2, 38421, Note_on_c, 0, 79, 0
2, 38423, Note_on_c, 0, 53, 0
2, 38532, Note_on_c, 0, 57, 31
2, 38533, Note_on_c, 0, 53, 30
2, 38534, Note_on_c, 0, 60, 25
2, 38540, Note_on_c, 0, 60, 0
2, 38542, Note_on_c, 0, 57, 0
2, 38544, Note_on_c, 0, 53, 0
2, 38614, Note_on_c, 0, 53, 35
2, 38614, Note_on_c, 0, 64, 40
2, 38617, Note_on_c, 0, 60, 43
2, 38622, Note_on_c, 0, 57, 32
2, 38630, Note_on_c, 0, 64, 0
2, 38634, Note_on_c, 0, 57, 0
2, 38636, Note_on_c, 0, 60, 0
2, 38636, Note_on_c, 0, 53, 0
2, 38700, Note_on_c, 0, 53, 33
2, 38702, Note_on_c, 0, 64, 39
2, 38702, Note_on_c, 0, 60, 47
2, 38705, Note_on_c, 0, 57, 45
2, 38767, Note_on_c, 0, 84, 103
2, 38796, Note_on_c, 0, 84, 0
2, 38806, Note_on_c, 0, 81, 63
2, 38809, Note_on_c, 0, 60, 0
2, 38810, Note_on_c, 0, 64, 0
2, 38814, Note_on_c, 0, 57, 0
2, 38820, Note_on_c, 0, 53, 0
2, 38829, Note_on_c, 0, 81, 0
2, 38854, Note_on_c, 0, 64, 49
2, 38854, Note_on_c, 0, 82, 72
2, 38856, Note_on_c, 0, 53, 34
2, 38857, Note_on_c, 0, 59, 54
2, 38872, Note_on_c, 0, 82, 0
2, 38872, Note_on_c, 0, 64, 0
2, 38875, Note_on_c, 0, 53, 0
2, 38875, Note_on_c, 0, 59, 0
2, 38915, Note_on_c, 0, 83, 63
2, 38940, Note_on_c, 0, 83, 0
2, 38971, Note_on_c, 0, 95, 90
2, 38978, Note_on_c, 0, 64, 45
2, 38978, Note_on_c, 0, 94, 34
2, 38978, Note_on_c, 0, 59, 55
2, 38979, Note_on_c, 0, 53, 42
2, 38984, Note_on_c, 0, 94, 0
2, 39027, Note_on_c, 0, 95, 0
2, 39034, Note_on_c, 0, 94, 78
2, 39051, Note_on_c, 0, 64, 0
2, 39057, Note_on_c, 0, 94, 0
2, 39062, Note_on_c, 0, 53, 0
2, 39065, Note_on_c, 0, 59, 0
2, 39065, Note_on_c, 0, 93, 71
2, 39087, Note_on_c, 0, 93, 0
2, 39122, Note_on_c, 0, 64, 40
2, 39122, Note_on_c, 0, 53, 44
2, 39125, Note_on_c, 0, 59, 50
2, 39141, Note_on_c, 0, 64, 0
2, 39143, Note_on_c, 0, 59, 0
2, 39144, Note_on_c, 0, 53, 0
2, 39189, Note_on_c, 0, 92, 27
2, 39199, Note_on_c, 0, 92, 0
2, 39213, Note_on_c, 0, 64, 24
2, 39214, Note_on_c, 0, 53, 31
2, 39217, Note_on_c, 0, 59, 42
2, 39221, Note_on_c, 0, 64, 0
2, 39232, Note_on_c, 0, 59, 0
2, 39239, Note_on_c, 0, 92, 91
2, 39241, Note_on_c, 0, 53, 0
2, 39267, Note_on_c, 0, 92, 0
2, 39271, Note_on_c, 0, 91, 69
2, 39274, Note_on_c, 0, 53, 45
2, 39277, Note_on_c, 0, 59, 40
2, 39278, Note_on_c, 0, 64, 24
2, 39285, Note_on_c, 0, 59, 0
2, 39286, Note_on_c, 0, 64, 0
2, 39292, Note_on_c, 0, 53, 0
2, 39295, Note_on_c, 0, 91, 0
2, 39302, Note_on_c, 0, 90, 60
2, 39323, Note_on_c, 0, 90, 0
2, 39332, Note_on_c, 0, 89, 51
2, 39349, Note_on_c, 0, 52, 24
2, 39354, Note_on_c, 0, 62, 27
2, 39357, Note_on_c, 0, 59, 30
2, 39359, Note_on_c, 0, 55, 36
2, 39361, Note_on_c, 0, 89, 0
2, 39363, Note_on_c, 0, 88, 62
2, 39394, Note_on_c, 0, 59, 0
2, 39394, Note_on_c, 0, 55, 0
2, 39395, Note_on_c, 0, 88, 0
2, 39395, Note_on_c, 0, 62, 0
2, 39399, Note_on_c, 0, 52, 0
2, 39421, Note_on_c, 0, 88, 74
2, 39450, Note_on_c, 0, 88, 0
2, 39482, Note_on_c, 0, 88, 75
2, 39505, Note_on_c, 0, 88, 0
2, 39516, Note_on_c, 0, 89, 67
2, 39535, Note_on_c, 0, 89, 0
2, 39539, Note_on_c, 0, 62, 49
2, 39543, Note_on_c, 0, 52, 29
2, 39544, Note_on_c, 0, 91, 64
2, 39545, Note_on_c, 0, 59, 34
2, 39548, Note_on_c, 0, 55, 39
2, 39565, Note_on_c, 0, 91, 0
2, 39570, Note_on_c, 0, 55, 0
2, 39579, Note_on_c, 0, 59, 0
2, 39582, Note_on_c, 0, 62, 0
2, 39593, Note_on_c, 0, 52, 0
2, 39606, Note_on_c, 0, 83, 37
2, 39608, Note_on_c, 0, 84, 38
2, 39614, Note_on_c, 0, 83, 0
2, 39622, Note_on_c, 0, 84, 0
2, 39666, Note_on_c, 0, 84, 84
2, 39687, Note_on_c, 0, 84, 0
2, 39723, Note_on_c, 0, 84, 75
2, 39743, Note_on_c, 0, 84, 0
2, 39759, Note_on_c, 0, 86, 73
2, 39774, Note_on_c, 0, 86, 0
2, 39784, Note_on_c, 0, 88, 66
2, 39804, Note_on_c, 0, 88, 0
2, 39818, Note_on_c, 0, 81, 66
2, 39818, Note_on_c, 0, 64, 40
2, 39818, Note_on_c, 0, 53, 36
2, 39820, Note_on_c, 0, 60, 44
2, 39824, Note_on_c, 0, 57, 35
2, 39826, Note_on_c, 0, 64, 0
2, 39828, Note_on_c, 0, 60, 0
2, 39832, Note_on_c, 0, 81, 0
2, 39832, Note_on_c, 0, 57, 0
2, 39833, Note_on_c, 0, 53, 0
2, 39844, Note_on_c, 0, 81, 65
2, 39914, Note_on_c, 0, 81, 0
2, 39932, Note_on_c, 0, 81, 83
2, 39936, Note_on_c, 0, 64, 50
2, 39940, Note_on_c, 0, 57, 39
2, 39940, Note_on_c, 0, 60, 40
2, 39942, Note_on_c, 0, 64, 0
2, 39947, Note_on_c, 0, 60, 0
2, 39949, Note_on_c, 0, 57, 0
2, 39968, Note_on_c, 0, 82, 35
2, 39982, Note_on_c, 0, 81, 0
2, 39982, Note_on_c, 0, 83, 64
2, 39996, Note_on_c, 0, 82, 0
2, 40001, Note_on_c, 0, 83, 0
2, 40004, Note_on_c, 0, 84, 77
2, 40030, Note_on_c, 0, 84, 0
2, 40102, Note_on_c, 0, 76, 80
2, 40112, Note_on_c, 0, 64, 48
2, 40119, Note_on_c, 0, 64, 0
2, 40134, Note_on_c, 0, 78, 48
2, 40144, Note_on_c, 0, 78, 0
2, 40146, Note_on_c, 0, 77, 48
2, 40155, Note_on_c, 0, 76, 0
2, 40157, Note_on_c, 0, 78, 31
2, 40164, Note_on_c, 0, 77, 0
2, 40174, Note_on_c, 0, 79, 63
2, 40183, Note_on_c, 0, 78, 0
2, 40191, Note_on_c, 0, 60, 33
2, 40192, Note_on_c, 0, 79, 0
2, 40194, Note_on_c, 0, 72, 72
2, 40199, Note_on_c, 0, 60, 0
2, 40232, Note_on_c, 0, 74, 53
2, 40238, Note_on_c, 0, 75, 51
2, 40239, Note_on_c, 0, 72, 0
2, 40248, Note_on_c, 0, 74, 0
2, 40252, Note_on_c, 0, 76, 70
2, 40260, Note_on_c, 0, 75, 0
2, 40277, Note_on_c, 0, 76, 0
2, 40290, Note_on_c, 0, 69, 74
2, 40295, Note_on_c, 0, 67, 62
2, 40301, Note_on_c, 0, 67, 0
2, 40333, Note_on_c, 0, 70, 30
2, 40340, Note_on_c, 0, 69, 0
2, 40344, Note_on_c, 0, 71, 60
2, 40350, Note_on_c, 0, 70, 0
2, 40361, Note_on_c, 0, 72, 38
2, 40367, Note_on_c, 0, 71, 0
2, 40377, Note_on_c, 0, 72, 0
2, 40384, Note_on_c, 0, 65, 65
2, 40418, Note_on_c, 0, 65, 0
2, 40486, Note_on_c, 0, 65, 45
2, 40487, Note_on_c, 0, 62, 49
2, 40487, Note_on_c, 0, 57, 38
2, 40495, Note_on_c, 0, 65, 0
2, 40497, Note_on_c, 0, 57, 0
2, 40500, Note_on_c, 0, 62, 0
2, 40565, Note_on_c, 0, 65, 54
2, 40568, Note_on_c, 0, 62, 48
2, 40569, Note_on_c, 0, 57, 30
2, 40576, Note_on_c, 0, 62, 0
2, 40578, Note_on_c, 0, 57, 0
2, 40578, Note_on_c, 0, 65, 0
2, 40655, Note_on_c, 0, 65, 50
2, 40656, Note_on_c, 0, 62, 47
2, 40657, Note_on_c, 0, 57, 44
2, 40741, Note_on_c, 0, 65, 0
2, 40742, Note_on_c, 0, 57, 0
2, 40763, Note_on_c, 0, 62, 0
2, 40799, Note_on_c, 0, 65, 44
2, 40799, Note_on_c, 0, 62, 27
2, 40801, Note_on_c, 0, 56, 35
2, 40892, Note_on_c, 0, 65, 0
2, 40899, Note_on_c, 0, 56, 0
2, 40900, Note_on_c, 0, 62, 0
2, 40921, Note_on_c, 0, 65, 50
2, 40922, Note_on_c, 0, 62, 57
2, 40924, Note_on_c, 0, 56, 35
2, 40981, Note_on_c, 0, 76, 108
2, 40986, Note_on_c, 0, 65, 0
2, 40993, Note_on_c, 0, 56, 0
2, 41011, Note_on_c, 0, 76, 0
2, 41014, Note_on_c, 0, 79, 78
2, 41037, Note_on_c, 0, 79, 0
2, 41038, Note_on_c, 0, 62, 0
2, 41071, Note_on_c, 0, 77, 80
2, 41092, Note_on_c, 0, 77, 0
2, 41135, Note_on_c, 0, 74, 82
2, 41149, Note_on_c, 0, 74, 0
2, 41193, Note_on_c, 0, 73, 62
2, 41216, Note_on_c, 0, 73, 0
2, 41319, Note_on_c, 0, 64, 53
2, 41324, Note_on_c, 0, 60, 43
2, 41326, Note_on_c, 0, 64, 0
2, 41326, Note_on_c, 0, 59, 39
2, 41333, Note_on_c, 0, 60, 0
2, 41334, Note_on_c, 0, 59, 0
2, 41336, Note_on_c, 0, 57, 18
2, 41341, Note_on_c, 0, 71, 96
2, 41342, Note_on_c, 0, 57, 0
2, 41369, Note_on_c, 0, 71, 0
2, 41374, Note_on_c, 0, 74, 71
2, 41397, Note_on_c, 0, 74, 0
2, 41404, Note_on_c, 0, 72, 39
2, 41426, Note_on_c, 0, 72, 0
2, 41430, Note_on_c, 0, 64, 38
2, 41436, Note_on_c, 0, 69, 70
2, 41437, Note_on_c, 0, 64, 0
2, 41450, Note_on_c, 0, 69, 0
2, 41464, Note_on_c, 0, 69, 46
2, 41492, Note_on_c, 0, 69, 0
2, 41501, Note_on_c, 0, 60, 30
2, 41504, Note_on_c, 0, 69, 69
2, 41509, Note_on_c, 0, 60, 0
2, 41519, Note_on_c, 0, 69, 0
2, 41526, Note_on_c, 0, 69, 54
2, 41557, Note_on_c, 0, 69, 0
2, 41570, Note_on_c, 0, 60, 27
2, 41578, Note_on_c, 0, 60, 0
2, 41585, Note_on_c, 0, 69, 68
2, 41605, Note_on_c, 0, 69, 0
2, 41623, Note_on_c, 0, 68, 55
2, 41647, Note_on_c, 0, 69, 62
2, 41655, Note_on_c, 0, 68, 0
2, 41679, Note_on_c, 0, 69, 0
2, 41702, Note_on_c, 0, 69, 70
2, 41731, Note_on_c, 0, 69, 0
2, 41735, Note_on_c, 0, 68, 49
2, 41758, Note_on_c, 0, 68, 0
2, 41759, Note_on_c, 0, 69, 55
2, 41761, Note_on_c, 0, 62, 22
2, 41765, Note_on_c, 0, 65, 11
2, 41765, Note_on_c, 0, 57, 33
2, 41787, Note_on_c, 0, 69, 0
2, 41793, Note_on_c, 0, 65, 0
2, 41813, Note_on_c, 0, 57, 0
2, 41817, Note_on_c, 0, 62, 0
2, 41817, Note_on_c, 0, 71, 62
2, 41849, Note_on_c, 0, 71, 0
2, 41852, Note_on_c, 0, 69, 44
2, 41869, Note_on_c, 0, 69, 0
2, 41871, Note_on_c, 0, 62, 17
2, 41876, Note_on_c, 0, 71, 53
2, 41883, Note_on_c, 0, 62, 0
2, 41907, Note_on_c, 0, 71, 0
2, 41948, Note_on_c, 0, 77, 48
2, 41952, Note_on_c, 0, 76, 35
2, 41961, Note_on_c, 0, 76, 0
2, 41962, Note_on_c, 0, 77, 0
2, 42003, Note_on_c, 0, 71, 63
2, 42005, Note_on_c, 0, 65, 43
2, 42009, Note_on_c, 0, 56, 23
2, 42009, Note_on_c, 0, 62, 46
2, 42017, Note_on_c, 0, 71, 0
2, 42035, Note_on_c, 0, 56, 0
2, 42040, Note_on_c, 0, 65, 0
2, 42060, Note_on_c, 0, 62, 0
2, 42065, Note_on_c, 0, 71, 80
2, 42094, Note_on_c, 0, 71, 0
2, 42124, Note_on_c, 0, 56, 37
2, 42124, Note_on_c, 0, 65, 42
2, 42124, Note_on_c, 0, 71, 73
2, 42127, Note_on_c, 0, 62, 40
2, 42147, Note_on_c, 0, 65, 0
2, 42150, Note_on_c, 0, 62, 0
2, 42157, Note_on_c, 0, 71, 0
2, 42162, Note_on_c, 0, 76, 64
2, 42176, Note_on_c, 0, 56, 0
2, 42194, Note_on_c, 0, 76, 0
2, 42228, Note_on_c, 0, 64, 39
2, 42233, Note_on_c, 0, 59, 34
2, 42235, Note_on_c, 0, 60, 35
2, 42236, Note_on_c, 0, 57, 26
2, 42245, Note_on_c, 0, 60, 0
2, 42249, Note_on_c, 0, 64, 0
2, 42249, Note_on_c, 0, 59, 0
2, 42250, Note_on_c, 0, 57, 0
2, 42332, Note_on_c, 0, 64, 46
2, 42338, Note_on_c, 0, 59, 37
2, 42339, Note_on_c, 0, 60, 37
2, 42342, Note_on_c, 0, 57, 20
2, 42348, Note_on_c, 0, 60, 0
2, 42350, Note_on_c, 0, 59, 0
2, 42351, Note_on_c, 0, 64, 0
2, 42351, Note_on_c, 0, 57, 0
2, 42423, Note_on_c, 0, 64, 42
2, 42428, Note_on_c, 0, 60, 39
2, 42429, Note_on_c, 0, 59, 39
2, 42430, Note_on_c, 0, 57, 26
2, 42443, Note_on_c, 0, 64, 0
2, 42449, Note_on_c, 0, 60, 0
2, 42452, Note_on_c, 0, 59, 0
2, 42472, Note_on_c, 0, 57, 0
2, 42482, Note_on_c, 0, 82, 78
2, 42483, Note_on_c, 0, 70, 84
2, 42500, Note_on_c, 0, 70, 0
2, 42506, Note_on_c, 0, 82, 0
2, 42506, Note_on_c, 0, 71, 52
2, 42531, Note_on_c, 0, 71, 0
2, 42534, Note_on_c, 0, 83, 51
2, 42547, Note_on_c, 0, 71, 44
2, 42550, Note_on_c, 0, 83, 0
2, 42571, Note_on_c, 0, 71, 0
2, 42572, Note_on_c, 0, 83, 49
2, 42588, Note_on_c, 0, 71, 50
2, 42588, Note_on_c, 0, 64, 54
2, 42590, Note_on_c, 0, 83, 0
2, 42596, Note_on_c, 0, 64, 0
2, 42598, Note_on_c, 0, 60, 24
2, 42604, Note_on_c, 0, 60, 0
2, 42609, Note_on_c, 0, 71, 0
2, 42613, Note_on_c, 0, 83, 44
2, 42627, Note_on_c, 0, 71, 36
2, 42628, Note_on_c, 0, 83, 0
2, 42650, Note_on_c, 0, 71, 0
2, 42652, Note_on_c, 0, 83, 53
2, 42667, Note_on_c, 0, 71, 44
2, 42669, Note_on_c, 0, 83, 0
2, 42692, Note_on_c, 0, 71, 0
2, 42722, Note_on_c, 0, 65, 48
2, 42724, Note_on_c, 0, 57, 34
2, 42725, Note_on_c, 0, 62, 36
2, 42731, Note_on_c, 0, 65, 0
2, 42735, Note_on_c, 0, 57, 0
2, 42737, Note_on_c, 0, 62, 0
2, 42820, Note_on_c, 0, 62, 47
2, 42820, Note_on_c, 0, 65, 43
2, 42824, Note_on_c, 0, 57, 27
2, 42828, Note_on_c, 0, 65, 0
2, 42831, Note_on_c, 0, 62, 0
2, 42832, Note_on_c, 0, 57, 0
2, 42940, Note_on_c, 0, 65, 70
2, 42942, Note_on_c, 0, 62, 62
2, 42944, Note_on_c, 0, 56, 37
2, 42947, Note_on_c, 0, 65, 0
2, 42949, Note_on_c, 0, 62, 0
2, 42951, Note_on_c, 0, 56, 0
2, 42964, Note_on_c, 0, 81, 89
2, 42965, Note_on_c, 0, 69, 89
2, 42974, Note_on_c, 0, 69, 0
2, 42988, Note_on_c, 0, 81, 0
2, 42992, Note_on_c, 0, 69, 58
2, 43008, Note_on_c, 0, 81, 57
2, 43009, Note_on_c, 0, 69, 0
2, 43019, Note_on_c, 0, 69, 25
2, 43028, Note_on_c, 0, 81, 0
2, 43034, Note_on_c, 0, 69, 0
2, 43059, Note_on_c, 0, 56, 53
2, 43061, Note_on_c, 0, 62, 60
2, 43069, Note_on_c, 0, 56, 0
2, 43072, Note_on_c, 0, 62, 0
2, 43084, Note_on_c, 0, 80, 70
2, 43084, Note_on_c, 0, 68, 75
2, 43101, Note_on_c, 0, 68, 0
2, 43104, Note_on_c, 0, 80, 0
2, 43139, Note_on_c, 0, 83, 77
2, 43140, Note_on_c, 0, 71, 77
2, 43183, Note_on_c, 0, 83, 0
2, 43184, Note_on_c, 0, 71, 0
2, 43190, Note_on_c, 0, 64, 58
2, 43197, Note_on_c, 0, 60, 40
2, 43198, Note_on_c, 0, 64, 0
2, 43200, Note_on_c, 0, 59, 25
2, 43201, Note_on_c, 0, 81, 66
2, 43202, Note_on_c, 0, 57, 26
2, 43205, Note_on_c, 0, 60, 0
2, 43208, Note_on_c, 0, 59, 0
2, 43212, Note_on_c, 0, 57, 0
2, 43237, Note_on_c, 0, 81, 0
2, 43258, Note_on_c, 0, 76, 62
2, 43282, Note_on_c, 0, 76, 0
2, 43314, Note_on_c, 0, 64, 32
2, 43320, Note_on_c, 0, 60, 37
2, 43320, Note_on_c, 0, 59, 35
2, 43322, Note_on_c, 0, 74, 64
2, 43324, Note_on_c, 0, 57, 25
2, 43333, Note_on_c, 0, 64, 0
2, 43339, Note_on_c, 0, 59, 0
2, 43346, Note_on_c, 0, 60, 0
2, 43348, Note_on_c, 0, 57, 0
2, 43348, Note_on_c, 0, 74, 0
2, 43415, Note_on_c, 0, 64, 32
2, 43422, Note_on_c, 0, 60, 30
2, 43424, Note_on_c, 0, 59, 20
2, 43430, Note_on_c, 0, 64, 0
2, 43433, Note_on_c, 0, 59, 0
2, 43433, Note_on_c, 0, 60, 0
2, 43502, Note_on_c, 0, 64, 43
2, 43506, Note_on_c, 0, 59, 34
2, 43507, Note_on_c, 0, 60, 35
2, 43517, Note_on_c, 0, 60, 0
2, 43519, Note_on_c, 0, 64, 0
2, 43520, Note_on_c, 0, 59, 0
2, 43591, Note_on_c, 0, 64, 54
2, 43595, Note_on_c, 0, 60, 42
2, 43598, Note_on_c, 0, 59, 32
2, 43606, Note_on_c, 0, 59, 0
2, 43609, Note_on_c, 0, 64, 0
2, 43610, Note_on_c, 0, 60, 0
2, 43679, Note_on_c, 0, 65, 54
2, 43680, Note_on_c, 0, 62, 55
2, 43681, Note_on_c, 0, 57, 45
2, 43689, Note_on_c, 0, 65, 0
2, 43690, Note_on_c, 0, 57, 0
2, 43699, Note_on_c, 0, 62, 0
2, 43770, Note_on_c, 0, 65, 71
2, 43772, Note_on_c, 0, 62, 58
2, 43773, Note_on_c, 0, 57, 42
2, 43776, Note_on_c, 0, 65, 0
2, 43781, Note_on_c, 0, 57, 0
2, 43782, Note_on_c, 0, 62, 0
2, 43799, Note_on_c, 0, 86, 96
2, 43815, Note_on_c, 0, 86, 0
2, 43850, Note_on_c, 0, 62, 31
2, 43859, Note_on_c, 0, 62, 0
2, 43862, Note_on_c, 0, 89, 94
2, 43879, Note_on_c, 0, 89, 0
2, 43895, Note_on_c, 0, 89, 75
2, 43902, Note_on_c, 0, 65, 63
2, 43902, Note_on_c, 0, 56, 58
2, 43904, Note_on_c, 0, 62, 56
2, 43909, Note_on_c, 0, 65, 0
2, 43911, Note_on_c, 0, 62, 0
2, 43912, Note_on_c, 0, 56, 0
2, 43917, Note_on_c, 0, 89, 0
2, 43926, Note_on_c, 0, 84, 57
2, 43943, Note_on_c, 0, 84, 0
2, 44018, Note_on_c, 0, 65, 65
2, 44019, Note_on_c, 0, 56, 49
2, 44020, Note_on_c, 0, 62, 53
2, 44024, Note_on_c, 0, 65, 0
2, 44028, Note_on_c, 0, 62, 0
2, 44029, Note_on_c, 0, 56, 0
2, 44039, Note_on_c, 0, 83, 84
2, 44074, Note_on_c, 0, 83, 0
2, 44099, Note_on_c, 0, 88, 89
2, 44120, Note_on_c, 0, 88, 0
2, 44133, Note_on_c, 0, 88, 74
2, 44156, Note_on_c, 0, 88, 0
2, 44165, Note_on_c, 0, 58, 40
2, 44165, Note_on_c, 0, 62, 54
2, 44165, Note_on_c, 0, 82, 63
2, 44171, Note_on_c, 0, 62, 0
2, 44172, Note_on_c, 0, 58, 0
2, 44193, Note_on_c, 0, 82, 0
2, 44256, Note_on_c, 0, 62, 72
2, 44256, Note_on_c, 0, 58, 59
2, 44262, Note_on_c, 0, 62, 0
2, 44270, Note_on_c, 0, 58, 0
2, 44285, Note_on_c, 0, 81, 70
2, 44317, Note_on_c, 0, 81, 0
2, 44339, Note_on_c, 0, 86, 105
2, 44357, Note_on_c, 0, 86, 0
2, 44375, Note_on_c, 0, 86, 90
2, 44385, Note_on_c, 0, 62, 55
2, 44389, Note_on_c, 0, 58, 35
2, 44392, Note_on_c, 0, 62, 0
2, 44397, Note_on_c, 0, 58, 0
2, 44401, Note_on_c, 0, 86, 0
2, 44404, Note_on_c, 0, 79, 63
2, 44431, Note_on_c, 0, 79, 0
2, 44497, Note_on_c, 0, 61, 45
2, 44505, Note_on_c, 0, 61, 0
2, 44515, Note_on_c, 0, 77, 96
2, 44537, Note_on_c, 0, 77, 0
2, 44576, Note_on_c, 0, 84, 88
2, 44597, Note_on_c, 0, 84, 0
2, 44612, Note_on_c, 0, 76, 62
2, 44629, Note_on_c, 0, 76, 0
2, 44636, Note_on_c, 0, 65, 50
2, 44638, Note_on_c, 0, 61, 42
2, 44643, Note_on_c, 0, 65, 0
2, 44654, Note_on_c, 0, 61, 0
2, 44737, Note_on_c, 0, 64, 62
2, 44739, Note_on_c, 0, 61, 49
2, 44743, Note_on_c, 0, 64, 0
2, 44746, Note_on_c, 0, 61, 0
2, 44763, Note_on_c, 0, 74, 82
2, 44787, Note_on_c, 0, 74, 0
2, 44796, Note_on_c, 0, 81, 73
2, 44817, Note_on_c, 0, 81, 0
2, 44825, Note_on_c, 0, 73, 30
2, 44852, Note_on_c, 0, 73, 0
2, 44855, Note_on_c, 0, 72, 63
2, 44861, Note_on_c, 0, 61, 42
2, 44868, Note_on_c, 0, 61, 0
2, 44873, Note_on_c, 0, 72, 0
2, 44885, Note_on_c, 0, 70, 35
2, 44909, Note_on_c, 0, 70, 0
2, 44917, Note_on_c, 0, 61, 37
2, 44923, Note_on_c, 0, 61, 0
2, 44945, Note_on_c, 0, 69, 76
2, 44968, Note_on_c, 0, 69, 0
2, 44976, Note_on_c, 0, 69, 44
2, 44977, Note_on_c, 0, 70, 76
2, 44978, Note_on_c, 0, 61, 33
2, 44985, Note_on_c, 0, 69, 0
2, 44989, Note_on_c, 0, 61, 0
2, 44996, Note_on_c, 0, 70, 0
2, 45006, Note_on_c, 0, 69, 26
2, 45033, Note_on_c, 0, 69, 0
2, 45034, Note_on_c, 0, 61, 52
2, 45035, Note_on_c, 0, 67, 73
2, 45046, Note_on_c, 0, 61, 0
2, 45055, Note_on_c, 0, 67, 0
2, 45060, Note_on_c, 0, 65, 41
2, 45098, Note_on_c, 0, 65, 0
2, 45114, Note_on_c, 0, 60, 55
2, 45117, Note_on_c, 0, 65, 68
2, 45119, Note_on_c, 0, 50, 20
2, 45120, Note_on_c, 0, 57, 41
2, 45124, Note_on_c, 0, 53, 24
2, 45135, Note_on_c, 0, 60, 0
2, 45141, Note_on_c, 0, 57, 0
2, 45141, Note_on_c, 0, 50, 0
2, 45144, Note_on_c, 0, 53, 0
2, 45206, Note_on_c, 0, 65, 0
2, 45214, Note_on_c, 0, 57, 41
2, 45219, Note_on_c, 0, 53, 22
2, 45222, Note_on_c, 0, 57, 0
2, 45228, Note_on_c, 0, 53, 0
2, 45237, Note_on_c, 0, 64, 75
2, 45268, Note_on_c, 0, 64, 0
2, 45273, Note_on_c, 0, 61, 63
2, 45293, Note_on_c, 0, 61, 0
2, 45303, Note_on_c, 0, 62, 74
2, 45329, Note_on_c, 0, 62, 0
2, 45340, Note_on_c, 0, 62, 79
2, 45361, Note_on_c, 0, 62, 0
2, 45369, Note_on_c, 0, 57, 67
2, 45409, Note_on_c, 0, 57, 0
2, 45422, Note_on_c, 0, 57, 71
2, 45461, Note_on_c, 0, 57, 0
2, 45602, Note_on_c, 0, 61, 53
2, 45603, Note_on_c, 0, 50, 30
2, 45605, Note_on_c, 0, 57, 51
2, 45614, Note_on_c, 0, 57, 0
2, 45618, Note_on_c, 0, 50, 0
2, 45618, Note_on_c, 0, 61, 0
2, 45665, Note_on_c, 0, 61, 51
2, 45665, Note_on_c, 0, 50, 39
2, 45669, Note_on_c, 0, 57, 48
2, 45689, Note_on_c, 0, 50, 0
2, 45690, Note_on_c, 0, 57, 0
2, 45694, Note_on_c, 0, 61, 0
2, 45761, Note_on_c, 0, 60, 52
2, 45762, Note_on_c, 0, 50, 24
2, 45764, Note_on_c, 0, 57, 39
2, 45772, Note_on_c, 0, 53, 16
2, 45780, Note_on_c, 0, 60, 0
2, 45784, Note_on_c, 0, 50, 0
2, 45785, Note_on_c, 0, 57, 0
2, 45787, Note_on_c, 0, 53, 0
2, 45851, Note_on_c, 0, 60, 45
2, 45853, Note_on_c, 0, 50, 26
2, 45854, Note_on_c, 0, 57, 35
2, 45859, Note_on_c, 0, 53, 19
2, 45867, Note_on_c, 0, 60, 0
2, 45870, Note_on_c, 0, 57, 0
2, 45872, Note_on_c, 0, 50, 0
2, 45875, Note_on_c, 0, 53, 0
2, 45940, Note_on_c, 0, 59, 57
2, 45942, Note_on_c, 0, 50, 32
2, 45942, Note_on_c, 0, 57, 55
2, 45943, Note_on_c, 0, 53, 42
2, 45946, Note_on_c, 0, 59, 0
2, 45950, Note_on_c, 0, 50, 0
2, 45951, Note_on_c, 0, 57, 0
2, 45959, Note_on_c, 0, 53, 0
2, 45964, Note_on_c, 0, 79, 81
2, 45966, Note_on_c, 0, 67, 85
2, 45998, Note_on_c, 0, 67, 0
2, 45998, Note_on_c, 0, 79, 0
2, 46022, Note_on_c, 0, 78, 72
2, 46064, Note_on_c, 0, 78, 0
2, 46076, Note_on_c, 0, 60, 46
2, 46081, Note_on_c, 0, 50, 22
2, 46083, Note_on_c, 0, 77, 65
2, 46083, Note_on_c, 0, 57, 33
2, 46086, Note_on_c, 0, 60, 0
2, 46091, Note_on_c, 0, 50, 0
2, 46096, Note_on_c, 0, 57, 0
2, 46109, Note_on_c, 0, 77, 0
2, 46148, Note_on_c, 0, 65, 18
2, 46171, Note_on_c, 0, 65, 0
2, 46198, Note_on_c, 0, 60, 24
2, 46204, Note_on_c, 0, 60, 0
2, 46204, Note_on_c, 0, 65, 50
2, 46221, Note_on_c, 0, 65, 0
2, 46388, Note_on_c, 0, 65, 60
2, 46391, Note_on_c, 0, 60, 44
2, 46394, Note_on_c, 0, 62, 38
2, 46402, Note_on_c, 0, 62, 0
2, 46402, Note_on_c, 0, 65, 0
2, 46408, Note_on_c, 0, 60, 0
2, 46484, Note_on_c, 0, 65, 68
2, 46486, Note_on_c, 0, 62, 50
2, 46498, Note_on_c, 0, 65, 0
2, 46500, Note_on_c, 0, 62, 0
2, 46565, Note_on_c, 0, 65, 56
2, 46567, Note_on_c, 0, 57, 50
2, 46567, Note_on_c, 0, 62, 51
2, 46579, Note_on_c, 0, 65, 0
2, 46582, Note_on_c, 0, 57, 0
2, 46586, Note_on_c, 0, 62, 0
2, 46623, Note_on_c, 0, 74, 105
2, 46710, Note_on_c, 0, 75, 71
2, 46716, Note_on_c, 0, 74, 0
2, 46716, Note_on_c, 0, 76, 69
2, 46718, Note_on_c, 0, 75, 0
2, 46731, Note_on_c, 0, 57, 20
2, 46741, Note_on_c, 0, 57, 0
2, 46744, Note_on_c, 0, 77, 74
2, 46748, Note_on_c, 0, 76, 0
2, 46766, Note_on_c, 0, 77, 0
2, 46802, Note_on_c, 0, 56, 50
2, 46804, Note_on_c, 0, 65, 48
2, 46810, Note_on_c, 0, 62, 31
2, 46829, Note_on_c, 0, 65, 0
2, 46839, Note_on_c, 0, 56, 0
2, 46856, Note_on_c, 0, 62, 0
2, 46897, Note_on_c, 0, 56, 47
2, 46897, Note_on_c, 0, 65, 51
2, 46898, Note_on_c, 0, 62, 49
2, 46904, Note_on_c, 0, 65, 0
2, 46910, Note_on_c, 0, 62, 0
2, 46911, Note_on_c, 0, 56, 0
2, 46960, Note_on_c, 0, 82, 78
2, 46981, Note_on_c, 0, 82, 0
2, 46987, Note_on_c, 0, 83, 71
2, 47005, Note_on_c, 0, 83, 0
2, 47017, Note_on_c, 0, 86, 90
2, 47019, Note_on_c, 0, 74, 71
2, 47026, Note_on_c, 0, 64, 58
2, 47031, Note_on_c, 0, 60, 47
2, 47032, Note_on_c, 0, 59, 36
2, 47033, Note_on_c, 0, 74, 0
2, 47034, Note_on_c, 0, 86, 0
2, 47047, Note_on_c, 0, 86, 74
2, 47049, Note_on_c, 0, 64, 0
2, 47049, Note_on_c, 0, 74, 55
2, 47052, Note_on_c, 0, 59, 0
2, 47060, Note_on_c, 0, 60, 0
2, 47063, Note_on_c, 0, 86, 0
2, 47065, Note_on_c, 0, 74, 0
2, 47077, Note_on_c, 0, 86, 66
2, 47079, Note_on_c, 0, 74, 55
2, 47094, Note_on_c, 0, 74, 0
2, 47094, Note_on_c, 0, 86, 0
2, 47108, Note_on_c, 0, 86, 71
2, 47108, Note_on_c, 0, 74, 46
2, 47123, Note_on_c, 0, 86, 0
2, 47125, Note_on_c, 0, 74, 0
2, 47137, Note_on_c, 0, 86, 64
2, 47139, Note_on_c, 0, 74, 57
2, 47159, Note_on_c, 0, 74, 0
2, 47159, Note_on_c, 0, 86, 0
2, 47159, Note_on_c, 0, 64, 40
2, 47163, Note_on_c, 0, 60, 38
2, 47167, Note_on_c, 0, 86, 75
2, 47169, Note_on_c, 0, 74, 47
2, 47171, Note_on_c, 0, 57, 22
2, 47195, Note_on_c, 0, 64, 0
2, 47206, Note_on_c, 0, 86, 0
2, 47207, Note_on_c, 0, 74, 0
2, 47216, Note_on_c, 0, 60, 0
2, 47224, Note_on_c, 0, 84, 68
2, 47226, Note_on_c, 0, 72, 41
2, 47235, Note_on_c, 0, 57, 0
2, 47242, Note_on_c, 0, 72, 0
2, 47249, Note_on_c, 0, 84, 0
2, 47282, Note_on_c, 0, 64, 52
2, 47283, Note_on_c, 0, 55, 55
2, 47284, Note_on_c, 0, 86, 84
2, 47285, Note_on_c, 0, 74, 70
2, 47286, Note_on_c, 0, 60, 46
2, 47298, Note_on_c, 0, 86, 0
2, 47299, Note_on_c, 0, 74, 0
2, 47305, Note_on_c, 0, 64, 0
2, 47307, Note_on_c, 0, 55, 0
2, 47312, Note_on_c, 0, 60, 0
2, 47344, Note_on_c, 0, 86, 81
2, 47345, Note_on_c, 0, 74, 71
2, 47359, Note_on_c, 0, 86, 0
2, 47361, Note_on_c, 0, 74, 0
2, 47382, Note_on_c, 0, 84, 66
2, 47383, Note_on_c, 0, 72, 44
2, 47391, Note_on_c, 0, 72, 0
2, 47392, Note_on_c, 0, 84, 0
2, 47395, Note_on_c, 0, 55, 45
2, 47397, Note_on_c, 0, 64, 30
2, 47400, Note_on_c, 0, 60, 44
2, 47406, Note_on_c, 0, 74, 57
2, 47406, Note_on_c, 0, 86, 64
2, 47428, Note_on_c, 0, 86, 0
2, 47437, Note_on_c, 0, 74, 0
2, 47445, Note_on_c, 0, 55, 0
2, 47448, Note_on_c, 0, 64, 0
2, 47460, Note_on_c, 0, 84, 59
2, 47463, Note_on_c, 0, 72, 46
2, 47469, Note_on_c, 0, 60, 0
2, 47479, Note_on_c, 0, 72, 0
2, 47487, Note_on_c, 0, 84, 0
2, 47564, Note_on_c, 0, 63, 70
2, 47566, Note_on_c, 0, 62, 80
2, 47566, Note_on_c, 0, 67, 77
2, 47567, Note_on_c, 0, 57, 69
2, 47648, Note_on_c, 0, 95, 73
2, 47658, Note_on_c, 0, 95, 0
2, 47703, Note_on_c, 0, 62, 0
2, 47706, Note_on_c, 0, 57, 0
2, 47707, Note_on_c, 0, 63, 0
2, 47707, Note_on_c, 0, 98, 96
2, 47710, Note_on_c, 0, 67, 0
2, 47727, Note_on_c, 0, 98, 0
2, 47881, Note_on_c, 0, 76, 103
2, 47895, Note_on_c, 0, 76, 0
2, 47940, Note_on_c, 0, 79, 81
2, 47956, Note_on_c, 0, 79, 0
2, 47999, Note_on_c, 0, 65, 44
2, 48001, Note_on_c, 0, 74, 77
2, 48002, Note_on_c, 0, 62, 46
2, 48009, Note_on_c, 0, 65, 0
2, 48011, Note_on_c, 0, 62, 0
2, 48012, Note_on_c, 0, 74, 0
2, 48063, Note_on_c, 0, 77, 81
2, 48082, Note_on_c, 0, 77, 0
2, 48125, Note_on_c, 0, 69, 46
2, 48138, Note_on_c, 0, 69, 0
2, 48186, Note_on_c, 0, 76, 92
2, 48187, Note_on_c, 0, 65, 40
2, 48194, Note_on_c, 0, 65, 0
2, 48209, Note_on_c, 0, 76, 0
2, 48248, Note_on_c, 0, 67, 37
2, 48260, Note_on_c, 0, 67, 0
2, 48305, Note_on_c, 0, 74, 81
2, 48326, Note_on_c, 0, 74, 0
2, 48367, Note_on_c, 0, 65, 48
2, 48388, Note_on_c, 0, 65, 0
2, 48425, Note_on_c, 0, 67, 84
2, 48443, Note_on_c, 0, 67, 0
2, 48487, Note_on_c, 0, 65, 82
2, 48488, Note_on_c, 0, 56, 36
2, 48489, Note_on_c, 0, 62, 44
2, 48499, Note_on_c, 0, 62, 0
2, 48502, Note_on_c, 0, 56, 0
2, 48513, Note_on_c, 0, 65, 0
2, 48522, Note_on_c, 0, 67, 51
2, 48530, Note_on_c, 0, 65, 47
2, 48537, Note_on_c, 0, 67, 0
2, 48543, Note_on_c, 0, 64, 33
2, 48552, Note_on_c, 0, 65, 0
2, 48576, Note_on_c, 0, 64, 0
2, 48602, Note_on_c, 0, 62, 47
2, 48604, Note_on_c, 0, 56, 32
2, 48605, Note_on_c, 0, 65, 69
2, 48614, Note_on_c, 0, 62, 0
2, 48617, Note_on_c, 0, 56, 0
2, 48620, Note_on_c, 0, 65, 0
2, 48662, Note_on_c, 0, 68, 64
2, 48679, Note_on_c, 0, 68, 0
2, 48698, Note_on_c, 0, 71, 64
2, 48713, Note_on_c, 0, 71, 0
2, 48754, Note_on_c, 0, 74, 81
2, 48763, Note_on_c, 0, 65, 37
2, 48765, Note_on_c, 0, 62, 34
2, 48766, Note_on_c, 0, 56, 20
2, 48770, Note_on_c, 0, 65, 0
2, 48771, Note_on_c, 0, 74, 0
2, 48776, Note_on_c, 0, 62, 0
2, 48776, Note_on_c, 0, 56, 0
2, 48781, Note_on_c, 0, 77, 58
2, 48799, Note_on_c, 0, 77, 0
2, 48814, Note_on_c, 0, 80, 67
2, 48815, Note_on_c, 0, 56, 45
2, 48816, Note_on_c, 0, 65, 35
2, 48818, Note_on_c, 0, 62, 36
2, 48824, Note_on_c, 0, 65, 0
2, 48827, Note_on_c, 0, 62, 0
2, 48832, Note_on_c, 0, 80, 0
2, 48837, Note_on_c, 0, 56, 0
2, 48844, Note_on_c, 0, 83, 69
2, 48862, Note_on_c, 0, 83, 0
2, 48872, Note_on_c, 0, 86, 99
2, 48892, Note_on_c, 0, 86, 0
2, 48902, Note_on_c, 0, 83, 52
2, 48915, Note_on_c, 0, 83, 0
2, 48932, Note_on_c, 0, 83, 68
2, 48948, Note_on_c, 0, 83, 0
2, 48956, Note_on_c, 0, 64, 24
2, 48960, Note_on_c, 0, 83, 72
2, 48960, Note_on_c, 0, 60, 36
2, 48961, Note_on_c, 0, 59, 34
2, 48966, Note_on_c, 0, 57, 26
2, 48977, Note_on_c, 0, 83, 0
2, 48988, Note_on_c, 0, 57, 0
2, 48990, Note_on_c, 0, 83, 61
2, 48992, Note_on_c, 0, 64, 0
2, 49003, Note_on_c, 0, 59, 0
2, 49007, Note_on_c, 0, 83, 0
2, 49011, Note_on_c, 0, 60, 0
2, 49019, Note_on_c, 0, 83, 64
2, 49037, Note_on_c, 0, 83, 0
2, 49052, Note_on_c, 0, 83, 71
2, 49060, Note_on_c, 0, 64, 36
2, 49065, Note_on_c, 0, 60, 36
2, 49068, Note_on_c, 0, 59, 26
2, 49069, Note_on_c, 0, 64, 0
2, 49069, Note_on_c, 0, 83, 0
2, 49078, Note_on_c, 0, 59, 0
2, 49080, Note_on_c, 0, 60, 0
2, 49081, Note_on_c, 0, 83, 69
2, 49109, Note_on_c, 0, 83, 0
2, 49117, Note_on_c, 0, 84, 74
2, 49136, Note_on_c, 0, 84, 0
2, 49146, Note_on_c, 0, 81, 62
2, 49166, Note_on_c, 0, 81, 0
2, 49200, Note_on_c, 0, 64, 26
2, 49202, Note_on_c, 0, 81, 63
2, 49205, Note_on_c, 0, 60, 33
2, 49208, Note_on_c, 0, 59, 24
2, 49217, Note_on_c, 0, 59, 0
2, 49217, Note_on_c, 0, 60, 0
2, 49217, Note_on_c, 0, 64, 0
2, 49225, Note_on_c, 0, 81, 0
2, 49263, Note_on_c, 0, 74, 50
2, 49284, Note_on_c, 0, 74, 0
2, 49323, Note_on_c, 0, 74, 75
2, 49326, Note_on_c, 0, 64, 24
2, 49334, Note_on_c, 0, 64, 0
2, 49374, Note_on_c, 0, 74, 0
2, 49384, Note_on_c, 0, 76, 77
2, 49406, Note_on_c, 0, 76, 0
2, 49446, Note_on_c, 0, 83, 91
2, 49456, Note_on_c, 0, 83, 0
2, 49504, Note_on_c, 0, 83, 87
2, 49516, Note_on_c, 0, 83, 0
2, 49567, Note_on_c, 0, 83, 91
2, 49625, Note_on_c, 0, 84, 76
2, 49629, Note_on_c, 0, 83, 0
2, 49640, Note_on_c, 0, 84, 0
2, 49684, Note_on_c, 0, 81, 69
2, 49698, Note_on_c, 0, 81, 0
2, 49743, Note_on_c, 0, 81, 71
2, 49761, Note_on_c, 0, 81, 0
2, 49807, Note_on_c, 0, 81, 69
2, 49860, Note_on_c, 0, 81, 0
2, 49866, Note_on_c, 0, 83, 68
2, 49912, Note_on_c, 0, 83, 0
2, 49923, Note_on_c, 0, 50, 27
2, 49927, Note_on_c, 0, 53, 20
2, 49928, Note_on_c, 0, 60, 19
2, 49928, Note_on_c, 0, 57, 33
2, 49929, Note_on_c, 0, 84, 68
2, 49930, Note_on_c, 0, 72, 46
2, 49976, Control_c, 0, 64, 127
2, 49996, Note_on_c, 0, 72, 0
2, 49998, Note_on_c, 0, 50, 0
2, 50000, Note_on_c, 0, 84, 0
2, 50002, Note_on_c, 0, 60, 0
2, 50005, Note_on_c, 0, 57, 0
2, 50006, Note_on_c, 0, 53, 0
2, 50024, Note_on_c, 0, 60, 54
2, 50024, Note_on_c, 0, 86, 90
2, 50026, Note_on_c, 0, 74, 73
2, 50027, Note_on_c, 0, 50, 40
2, 50027, Note_on_c, 0, 57, 38
2, 50027, Note_on_c, 0, 53, 36
2, 50059, Note_on_c, 0, 57, 0
2, 50061, Note_on_c, 0, 60, 0
2, 50062, Note_on_c, 0, 53, 0
2, 50063, Note_on_c, 0, 86, 0
2, 50065, Note_on_c, 0, 50, 0
2, 50077, Note_on_c, 0, 74, 0
2, 50106, Note_on_c, 0, 84, 79
2, 50108, Note_on_c, 0, 72, 66
2, 50121, Note_on_c, 0, 84, 0
2, 50130, Note_on_c, 0, 72, 0
2, 50168, Note_on_c, 0, 64, 51
2, 50168, Note_on_c, 0, 55, 54
2, 50168, Note_on_c, 0, 83, 72
2, 50169, Note_on_c, 0, 60, 54
2, 50170, Note_on_c, 0, 71, 73
2, 50170, Note_on_c, 0, 59, 54
2, 50171, Control_c, 0, 64, 0
2, 50207, Control_c, 0, 64, 127
2, 50228, Note_on_c, 0, 55, 0
2, 50231, Note_on_c, 0, 64, 0
2, 50233, Note_on_c, 0, 59, 0
2, 50236, Note_on_c, 0, 60, 0
2, 50237, Note_on_c, 0, 83, 0
2, 50248, Note_on_c, 0, 71, 0
2, 50262, Note_on_c, 0, 55, 47
2, 50263, Note_on_c, 0, 81, 62
2, 50263, Note_on_c, 0, 64, 31
2, 50264, Note_on_c, 0, 60, 50
2, 50264, Note_on_c, 0, 69, 60
2, 50266, Note_on_c, 0, 59, 45
2, 50323, Note_on_c, 0, 59, 0
2, 50323, Note_on_c, 0, 55, 0
2, 50326, Note_on_c, 0, 64, 0
2, 50329, Note_on_c, 0, 60, 0
2, 50332, Note_on_c, 0, 69, 0
2, 50332, Control_c, 0, 64, 0
2, 50339, Control_c, 0, 64, 127
2, 50340, Note_on_c, 0, 81, 0
2, 50380, Note_on_c, 0, 71, 64
2, 50381, Note_on_c, 0, 83, 57
2, 50393, Note_on_c, 0, 71, 0
2, 50394, Note_on_c, 0, 83, 0
2, 50407, Note_on_c, 0, 60, 65
2, 50408, Note_on_c, 0, 57, 53
2, 50409, Note_on_c, 0, 50, 38
2, 50409, Control_c, 0, 64, 0
2, 50410, Note_on_c, 0, 53, 47
2, 50411, Note_on_c, 0, 72, 53
2, 50412, Note_on_c, 0, 84, 70
2, 50418, Note_on_c, 0, 72, 0
2, 50418, Note_on_c, 0, 53, 0
2, 50418, Note_on_c, 0, 57, 0
2, 50419, Note_on_c, 0, 50, 0
2, 50419, Note_on_c, 0, 84, 0
2, 50420, Note_on_c, 0, 60, 0
2, 50469, Note_on_c, 0, 60, 68
2, 50469, Note_on_c, 0, 57, 56
2, 50469, Note_on_c, 0, 86, 88
2, 50470, Note_on_c, 0, 53, 41
2, 50470, Note_on_c, 0, 74, 73
2, 50471, Note_on_c, 0, 50, 41
2, 50476, Note_on_c, 0, 60, 0
2, 50477, Note_on_c, 0, 57, 0
2, 50479, Note_on_c, 0, 74, 0
2, 50480, Note_on_c, 0, 53, 0
2, 50480, Note_on_c, 0, 50, 0
2, 50481, Note_on_c, 0, 86, 0
2, 50530, Note_on_c, 0, 50, 43
2, 50531, Note_on_c, 0, 60, 66
2, 50534, Note_on_c, 0, 57, 47
2, 50534, Note_on_c, 0, 72, 54
2, 50535, Note_on_c, 0, 84, 45
2, 50537, Note_on_c, 0, 50, 0
2, 50537, Note_on_c, 0, 86, 46
2, 50540, Note_on_c, 0, 60, 0
2, 50540, Note_on_c, 0, 57, 0
2, 50541, Note_on_c, 0, 72, 0
2, 50541, Note_on_c, 0, 84, 0
2, 50544, Note_on_c, 0, 86, 0
2, 50591, Note_on_c, 0, 71, 77
2, 50591, Note_on_c, 0, 83, 72
2, 50593, Note_on_c, 0, 64, 44
2, 50596, Note_on_c, 0, 62, 42
2, 50598, Note_on_c, 0, 55, 20
2, 50598, Note_on_c, 0, 59, 39
2, 50599, Note_on_c, 0, 60, 42
2, 50620, Note_on_c, 0, 62, 0
2, 50630, Note_on_c, 0, 59, 0
2, 50630, Note_on_c, 0, 60, 0
2, 50648, Control_c, 0, 64, 127
2, 50659, Note_on_c, 0, 64, 0
2, 50680, Note_on_c, 0, 55, 0
2, 50705, Note_on_c, 0, 71, 0
2, 50709, Note_on_c, 0, 83, 0
2, 50714, Note_on_c, 0, 64, 38
2, 50716, Note_on_c, 0, 55, 39
2, 50716, Note_on_c, 0, 60, 50
2, 50719, Note_on_c, 0, 59, 43
2, 50780, Note_on_c, 0, 72, 79
2, 50780, Note_on_c, 0, 81, 80
2, 50795, Note_on_c, 0, 64, 0
2, 50797, Note_on_c, 0, 72, 0
2, 50799, Note_on_c, 0, 59, 0
2, 50801, Note_on_c, 0, 60, 0
2, 50802, Note_on_c, 0, 81, 0
2, 50812, Note_on_c, 0, 55, 0
2, 50839, Note_on_c, 0, 74, 88
2, 50840, Note_on_c, 0, 83, 74
2, 50843, Note_on_c, 0, 81, 55
2, 50850, Note_on_c, 0, 81, 0
2, 50866, Note_on_c, 0, 74, 0
2, 50870, Note_on_c, 0, 83, 0
2, 50896, Note_on_c, 0, 50, 42
2, 50897, Note_on_c, 0, 60, 57
2, 50897, Note_on_c, 0, 57, 49
2, 50899, Note_on_c, 0, 76, 88
2, 50899, Note_on_c, 0, 84, 88
2, 50900, Note_on_c, 0, 53, 43
2, 50900, Control_c, 0, 64, 0
2, 50944, Control_c, 0, 64, 127
2, 50960, Note_on_c, 0, 76, 0
2, 50962, Note_on_c, 0, 84, 0
2, 50985, Note_on_c, 0, 86, 89
2, 50986, Note_on_c, 0, 77, 73
2, 51021, Note_on_c, 0, 86, 0
2, 51022, Note_on_c, 0, 53, 0
2, 51023, Note_on_c, 0, 50, 0
2, 51027, Note_on_c, 0, 57, 0
2, 51032, Note_on_c, 0, 77, 0
2, 51038, Note_on_c, 0, 60, 0
2, 51062, Note_on_c, 0, 84, 60
2, 51062, Note_on_c, 0, 76, 54
2, 51080, Note_on_c, 0, 84, 0
2, 51088, Note_on_c, 0, 76, 0
2, 51118, Note_on_c, 0, 52, 36
2, 51119, Control_c, 0, 64, 0
2, 51120, Note_on_c, 0, 62, 38
2, 51121, Note_on_c, 0, 56, 33
2, 51124, Note_on_c, 0, 83, 50
2, 51128, Note_on_c, 0, 74, 34
2, 51180, Control_c, 0, 64, 127
2, 51225, Note_on_c, 0, 52, 0
2, 51233, Note_on_c, 0, 56, 0
2, 51235, Note_on_c, 0, 62, 0
2, 51271, Note_on_c, 0, 74, 0
2, 51273, Note_on_c, 0, 83, 0
2, 51299, Note_on_c, 0, 81, 46
2, 51320, Note_on_c, 0, 81, 0
2, 51334, Note_on_c, 0, 79, 24
2, 51351, Note_on_c, 0, 79, 0
2, 51357, Control_c, 0, 64, 0
2, 51363, Note_on_c, 0, 64, 12
2, 51363, Note_on_c, 0, 59, 34
2, 51363, Note_on_c, 0, 60, 32
2, 51364, Note_on_c, 0, 81, 38
2, 51365, Note_on_c, 0, 57, 28
2, 51478, Control_c, 0, 64, 127
2, 51618, Note_on_c, 0, 81, 0
2, 51702, Control_c, 0, 64, 0
2, 51723, Note_on_c, 0, 83, 74
2, 51734, Note_on_c, 0, 59, 0
2, 51734, Note_on_c, 0, 57, 0
2, 51736, Note_on_c, 0, 60, 0
2, 51737, Note_on_c, 0, 64, 0
2, 51744, Note_on_c, 0, 83, 0
2, 51749, Note_on_c, 0, 84, 72
2, 51772, Note_on_c, 0, 84, 0
2, 51779, Note_on_c, 0, 88, 67
2, 51801, Note_on_c, 0, 88, 0
2, 51807, Note_on_c, 0, 91, 70
2, 51828, Note_on_c, 0, 91, 0
2, 51838, Note_on_c, 0, 67, 50
2, 51839, Note_on_c, 0, 95, 77
2, 51840, Note_on_c, 0, 62, 56
2, 51842, Note_on_c, 0, 63, 37
2, 51842, Note_on_c, 0, 57, 40
2, 51869, Note_on_c, 0, 95, 0
2, 51872, Note_on_c, 0, 98, 87
2, 51900, Note_on_c, 0, 96, 68
2, 51919, Note_on_c, 0, 98, 0
2, 51937, Note_on_c, 0, 96, 0
2, 51959, Note_on_c, 0, 57, 0
2, 51959, Note_on_c, 0, 63, 0
2, 51960, Note_on_c, 0, 62, 0
2, 51961, Note_on_c, 0, 67, 0
2, 52082, Note_on_c, 0, 67, 42
2, 52085, Note_on_c, 0, 63, 33
2, 52086, Note_on_c, 0, 62, 35
2, 52091, Note_on_c, 0, 57, 22
2, 52095, Note_on_c, 0, 63, 0
2, 52098, Note_on_c, 0, 67, 0
2, 52099, Note_on_c, 0, 57, 0
2, 52101, Note_on_c, 0, 62, 0
2, 52145, Note_on_c, 0, 62, 38
2, 52146, Note_on_c, 0, 67, 42
2, 52148, Note_on_c, 0, 63, 36
2, 52150, Note_on_c, 0, 57, 29
2, 52168, Note_on_c, 0, 67, 0
2, 52169, Note_on_c, 0, 63, 0
2, 52171, Note_on_c, 0, 62, 0
2, 52175, Note_on_c, 0, 57, 0
2, 52320, Note_on_c, 0, 76, 48
2, 52322, Note_on_c, 0, 71, 44
2, 52322, Note_on_c, 0, 64, 41
2, 52322, Note_on_c, 0, 65, 36
2, 52325, Note_on_c, 0, 69, 48
2, 52379, Note_on_c, 0, 65, 0
2, 52379, Control_c, 0, 64, 127
2, 52384, Note_on_c, 0, 69, 0
2, 52388, Note_on_c, 0, 71, 0
2, 52392, Note_on_c, 0, 76, 0
2, 52446, Note_on_c, 0, 81, 110
2, 52469, Note_on_c, 0, 81, 0
2, 52477, Note_on_c, 0, 88, 88
2, 52504, Note_on_c, 0, 81, 38
2, 52508, Note_on_c, 0, 88, 0
2, 52522, Control_c, 0, 64, 0
2, 52531, Note_on_c, 0, 81, 0
2, 52546, Note_on_c, 0, 64, 0
2, 52677, Note_on_c, 0, 81, 88
2, 52700, Note_on_c, 0, 81, 0
2, 52709, Note_on_c, 0, 88, 87
2, 52727, Note_on_c, 0, 88, 0
2, 52738, Note_on_c, 0, 80, 49
2, 52765, Note_on_c, 0, 80, 0
2, 52772, Note_on_c, 0, 77, 29
2, 52782, Note_on_c, 0, 77, 0
2, 52797, Note_on_c, 0, 79, 58
2, 52819, Note_on_c, 0, 79, 0
2, 52827, Note_on_c, 0, 80, 42
2, 52843, Note_on_c, 0, 79, 50
2, 52847, Note_on_c, 0, 80, 0
2, 52860, Note_on_c, 0, 77, 37
2, 52862, Note_on_c, 0, 79, 0
2, 52885, Note_on_c, 0, 77, 0
2, 52898, Note_on_c, 0, 76, 45
2, 52916, Note_on_c, 0, 76, 0
2, 52927, Note_on_c, 0, 76, 15
2, 52955, Note_on_c, 0, 76, 0
2, 53016, Note_on_c, 0, 65, 43
2, 53017, Note_on_c, 0, 56, 33
2, 53020, Note_on_c, 0, 62, 31
2, 53030, Note_on_c, 0, 65, 0
2, 53031, Note_on_c, 0, 62, 0
2, 53033, Note_on_c, 0, 56, 0
2, 53077, Note_on_c, 0, 79, 83
2, 53103, Note_on_c, 0, 78, 61
2, 53105, Note_on_c, 0, 79, 0
2, 53135, Note_on_c, 0, 73, 40
2, 53137, Note_on_c, 0, 78, 0
2, 53144, Note_on_c, 0, 62, 31
2, 53146, Note_on_c, 0, 56, 25
2, 53159, Note_on_c, 0, 56, 0
2, 53163, Note_on_c, 0, 62, 0
2, 53164, Note_on_c, 0, 73, 0
2, 53165, Note_on_c, 0, 72, 33
2, 53187, Note_on_c, 0, 72, 0
2, 53203, Note_on_c, 0, 56, 37
2, 53205, Note_on_c, 0, 77, 84
2, 53226, Note_on_c, 0, 56, 0
2, 53245, Note_on_c, 0, 77, 0
2, 53288, Note_on_c, 0, 76, 80
2, 53289, Note_on_c, 0, 64, 33
2, 53291, Note_on_c, 0, 59, 32
2, 53292, Note_on_c, 0, 60, 37
2, 53294, Note_on_c, 0, 57, 32
2, 53367, Note_on_c, 0, 60, 0
2, 53381, Note_on_c, 0, 71, 61
2, 53382, Note_on_c, 0, 76, 0
2, 53386, Note_on_c, 0, 60, 11
2, 53393, Note_on_c, 0, 64, 0
2, 53397, Note_on_c, 0, 71, 0
2, 53412, Note_on_c, 0, 60, 0
2, 53417, Note_on_c, 0, 59, 0
2, 53430, Note_on_c, 0, 57, 0
2, 53441, Note_on_c, 0, 74, 81
2, 53462, Note_on_c, 0, 74, 0
2, 53496, Note_on_c, 0, 72, 66
2, 53504, Note_on_c, 0, 64, 28
2, 53507, Note_on_c, 0, 59, 35
2, 53510, Note_on_c, 0, 57, 29
2, 53511, Note_on_c, 0, 60, 29
2, 53515, Note_on_c, 0, 72, 0
2, 53518, Note_on_c, 0, 64, 0
2, 53530, Note_on_c, 0, 60, 0
2, 53532, Note_on_c, 0, 68, 48
2, 53562, Note_on_c, 0, 59, 0
2, 53572, Note_on_c, 0, 57, 0
2, 53573, Note_on_c, 0, 68, 0
2, 53579, Note_on_c, 0, 71, 62
2, 53702, Note_on_c, 0, 69, 64
2, 53731, Note_on_c, 0, 71, 0
2, 53735, Note_on_c, 0, 69, 0
2, 53762, Note_on_c, 0, 63, 25
2, 53764, Note_on_c, 0, 57, 32
2, 53765, Note_on_c, 0, 64, 45
2, 53872, Note_on_c, 0, 64, 0
2, 53876, Note_on_c, 0, 57, 0
2, 53881, Note_on_c, 0, 63, 0
2, 53887, Note_on_c, 0, 67, 47
2, 53922, Note_on_c, 0, 67, 0
2, 53925, Note_on_c, 0, 64, 32
2, 53936, Note_on_c, 0, 64, 0
2, 53949, Note_on_c, 0, 65, 51
2, 53983, Note_on_c, 0, 65, 0
2, 54063, Note_on_c, 0, 63, 44
2, 54063, Note_on_c, 0, 67, 55
2, 54066, Note_on_c, 0, 57, 43
2, 54081, Note_on_c, 0, 67, 0
2, 54086, Note_on_c, 0, 57, 0
2, 54092, Note_on_c, 0, 63, 0
2, 54156, Note_on_c, 0, 63, 39
2, 54157, Note_on_c, 0, 57, 48
2, 54158, Note_on_c, 0, 67, 34
2, 54173, Note_on_c, 0, 67, 0
2, 54179, Note_on_c, 0, 57, 0
2, 54189, Note_on_c, 0, 63, 0
2, 54243, Note_on_c, 0, 64, 29
2, 54245, Note_on_c, 0, 57, 38
2, 54247, Note_on_c, 0, 62, 40
2, 54269, Note_on_c, 0, 57, 0
2, 54270, Note_on_c, 0, 64, 0
2, 54271, Note_on_c, 0, 62, 0
2, 54304, Note_on_c, 0, 64, 36
2, 54307, Note_on_c, 0, 57, 41
2, 54311, Note_on_c, 0, 62, 35
2, 54368, Note_on_c, 0, 69, 58
2, 54384, Note_on_c, 0, 69, 0
2, 54403, Note_on_c, 0, 74, 78
2, 54418, Note_on_c, 0, 74, 0
2, 54427, Note_on_c, 0, 62, 0
2, 54430, Note_on_c, 0, 57, 0
2, 54430, Note_on_c, 0, 64, 0
2, 54430, Note_on_c, 0, 76, 92
2, 54454, Note_on_c, 0, 76, 0
2, 54463, Note_on_c, 0, 77, 76
2, 54486, Note_on_c, 0, 64, 22
2, 54487, Note_on_c, 0, 57, 27
2, 54490, Note_on_c, 0, 77, 0
2, 54491, Note_on_c, 0, 62, 38
2, 54494, Note_on_c, 0, 76, 54
2, 54517, Note_on_c, 0, 76, 0
2, 54546, Note_on_c, 0, 69, 53
2, 54547, Note_on_c, 0, 64, 0
2, 54554, Note_on_c, 0, 62, 0
2, 54557, Note_on_c, 0, 57, 0
2, 54563, Note_on_c, 0, 69, 0
2, 54580, Note_on_c, 0, 74, 68
2, 54594, Note_on_c, 0, 74, 0
2, 54608, Note_on_c, 0, 76, 82
2, 54612, Note_on_c, 0, 57, 35
2, 54612, Note_on_c, 0, 64, 25
2, 54615, Note_on_c, 0, 62, 43
2, 54632, Note_on_c, 0, 76, 0
2, 54640, Note_on_c, 0, 77, 74
2, 54647, Note_on_c, 0, 62, 0
2, 54651, Note_on_c, 0, 64, 0
2, 54656, Note_on_c, 0, 57, 0
2, 54668, Note_on_c, 0, 77, 0
2, 54669, Note_on_c, 0, 76, 56
2, 54694, Note_on_c, 0, 76, 0
2, 54726, Note_on_c, 0, 56, 27
2, 54729, Note_on_c, 0, 68, 37
2, 54731, Note_on_c, 0, 62, 17
2, 54744, Note_on_c, 0, 56, 0
2, 54748, Note_on_c, 0, 62, 0
2, 54750, Note_on_c, 0, 68, 0
2, 54761, Note_on_c, 0, 74, 60
2, 54789, Note_on_c, 0, 74, 0
2, 54791, Note_on_c, 0, 76, 54
2, 54811, Note_on_c, 0, 76, 0
2, 54820, Note_on_c, 0, 77, 66
2, 54849, Note_on_c, 0, 77, 0
2, 54850, Note_on_c, 0, 76, 46
2, 54873, Note_on_c, 0, 76, 0
2, 54911, Note_on_c, 0, 68, 21
2, 54923, Note_on_c, 0, 68, 0
2, 54964, Note_on_c, 0, 65, 43
2, 54968, Note_on_c, 0, 62, 30
2, 54979, Note_on_c, 0, 65, 0
2, 54987, Note_on_c, 0, 62, 0
2, 55030, Note_on_c, 0, 68, 48
2, 55047, Note_on_c, 0, 68, 0
2, 55059, Note_on_c, 0, 74, 69
2, 55079, Note_on_c, 0, 74, 0
2, 55080, Note_on_c, 0, 65, 24
2, 55087, Note_on_c, 0, 65, 0
2, 55087, Note_on_c, 0, 76, 77
2, 55111, Note_on_c, 0, 76, 0
2, 55116, Note_on_c, 0, 77, 70
2, 55145, Note_on_c, 0, 76, 54
2, 55146, Note_on_c, 0, 77, 0
2, 55169, Note_on_c, 0, 76, 0
2, 55174, Note_on_c, 0, 74, 57
2, 55202, Note_on_c, 0, 74, 0
2, 55208, Note_on_c, 0, 72, 22
2, 55209, Note_on_c, 0, 60, 19
2, 55209, Note_on_c, 0, 64, 12
2, 55214, Note_on_c, 0, 59, 13
2, 55233, Note_on_c, 0, 72, 0
2, 55239, Note_on_c, 0, 71, 41
2, 55254, Note_on_c, 0, 71, 0
2, 55263, Note_on_c, 0, 74, 59
2, 55276, Note_on_c, 0, 59, 0
2, 55277, Note_on_c, 0, 60, 0
2, 55280, Note_on_c, 0, 64, 0
2, 55293, Note_on_c, 0, 74, 0
2, 55296, Note_on_c, 0, 71, 43
2, 55316, Note_on_c, 0, 71, 0
2, 55325, Note_on_c, 0, 72, 44
2, 55373, Note_on_c, 0, 72, 0
2, 55383, Note_on_c, 0, 69, 44
2, 55406, Note_on_c, 0, 69, 0
2, 55486, Note_on_c, 0, 64, 44
2, 55490, Note_on_c, 0, 60, 38
2, 55492, Note_on_c, 0, 59, 32
2, 55492, Note_on_c, 0, 57, 30
2, 55496, Note_on_c, 0, 64, 0
2, 55498, Note_on_c, 0, 60, 0
2, 55499, Note_on_c, 0, 59, 0
2, 55501, Note_on_c, 0, 57, 0
2, 55553, Note_on_c, 0, 86, 72
2, 55560, Note_on_c, 0, 87, 56
2, 55567, Note_on_c, 0, 86, 0
2, 55570, Note_on_c, 0, 87, 0
2, 55573, Note_on_c, 0, 88, 64
2, 55589, Note_on_c, 0, 88, 0
2, 55601, Note_on_c, 0, 93, 89
2, 55621, Note_on_c, 0, 93, 0
2, 55655, Note_on_c, 0, 86, 110
2, 55670, Note_on_c, 0, 86, 0
2, 55672, Note_on_c, 0, 87, 59
2, 55698, Note_on_c, 0, 86, 68
2, 55706, Note_on_c, 0, 87, 0
2, 55719, Note_on_c, 0, 86, 0
2, 55721, Note_on_c, 0, 84, 62
2, 55736, Note_on_c, 0, 84, 0
2, 55745, Note_on_c, 0, 67, 36
2, 55745, Note_on_c, 0, 62, 34
2, 55745, Note_on_c, 0, 63, 34
2, 55747, Note_on_c, 0, 57, 38
2, 55750, Note_on_c, 0, 83, 50
2, 55903, Note_on_c, 0, 83, 0
2, 55946, Note_on_c, 0, 57, 0
2, 55947, Note_on_c, 0, 63, 0
2, 55947, Note_on_c, 0, 67, 0
2, 55948, Note_on_c, 0, 62, 0
2, 55965, Note_on_c, 0, 67, 56
2, 55967, Note_on_c, 0, 63, 36
2, 55969, Note_on_c, 0, 62, 44
2, 55975, Note_on_c, 0, 63, 0
2, 55976, Note_on_c, 0, 62, 0
2, 55976, Note_on_c, 0, 67, 0
2, 56045, Note_on_c, 0, 62, 60
2, 56046, Note_on_c, 0, 67, 61
2, 56047, Note_on_c, 0, 63, 37
2, 56049, Note_on_c, 0, 57, 41
2, 56147, Note_on_c, 0, 62, 0
2, 56148, Note_on_c, 0, 67, 0
2, 56156, Note_on_c, 0, 57, 0
2, 56159, Note_on_c, 0, 63, 0
2, 56220, Note_on_c, 0, 65, 52
2, 56221, Note_on_c, 0, 62, 50
2, 56224, Note_on_c, 0, 57, 38
2, 56232, Note_on_c, 0, 65, 0
2, 56233, Note_on_c, 0, 57, 0
2, 56233, Note_on_c, 0, 62, 0
2, 56283, Note_on_c, 0, 65, 54
2, 56285, Note_on_c, 0, 57, 52
2, 56285, Note_on_c, 0, 62, 46
2, 56346, Note_on_c, 0, 65, 0
2, 56347, Note_on_c, 0, 57, 0
2, 56347, Note_on_c, 0, 89, 89
2, 56347, Note_on_c, 0, 77, 91
2, 56350, Note_on_c, 0, 62, 0
2, 56361, Note_on_c, 0, 77, 0
2, 56362, Note_on_c, 0, 89, 0
2, 56406, Note_on_c, 0, 89, 90
2, 56407, Note_on_c, 0, 77, 94
2, 56419, Note_on_c, 0, 77, 0
2, 56421, Note_on_c, 0, 89, 0
2, 56463, Note_on_c, 0, 65, 34
2, 56464, Note_on_c, 0, 86, 74
2, 56464, Note_on_c, 0, 74, 66
2, 56465, Note_on_c, 0, 62, 34
2, 56472, Note_on_c, 0, 86, 0
2, 56472, Note_on_c, 0, 65, 0
2, 56474, Note_on_c, 0, 74, 0
2, 56477, Note_on_c, 0, 62, 0
2, 56525, Note_on_c, 0, 74, 68
2, 56525, Note_on_c, 0, 65, 32
2, 56525, Note_on_c, 0, 86, 70
2, 56527, Note_on_c, 0, 62, 30
2, 56531, Note_on_c, 0, 86, 0
2, 56531, Note_on_c, 0, 74, 0
2, 56532, Note_on_c, 0, 65, 0
2, 56534, Note_on_c, 0, 62, 0
2, 56581, Note_on_c, 0, 57, 71
2, 56583, Note_on_c, 0, 65, 57
2, 56584, Note_on_c, 0, 77, 88
2, 56584, Note_on_c, 0, 89, 83
2, 56585, Note_on_c, 0, 62, 43
2, 56587, Note_on_c, 0, 57, 0
2, 56589, Note_on_c, 0, 65, 0
2, 56592, Note_on_c, 0, 62, 0
2, 56596, Note_on_c, 0, 77, 0
2, 56596, Note_on_c, 0, 89, 0
2, 56641, Note_on_c, 0, 56, 81
2, 56642, Note_on_c, 0, 65, 81
2, 56642, Note_on_c, 0, 62, 74
2, 56645, Note_on_c, 0, 89, 94
2, 56646, Note_on_c, 0, 77, 96
2, 56658, Note_on_c, 0, 62, 0
2, 56659, Note_on_c, 0, 77, 0
2, 56659, Note_on_c, 0, 65, 0
2, 56660, Note_on_c, 0, 89, 0
2, 56677, Note_on_c, 0, 88, 74
2, 56678, Note_on_c, 0, 65, 61
2, 56678, Note_on_c, 0, 62, 24
2, 56679, Note_on_c, 0, 76, 67
2, 56692, Note_on_c, 0, 65, 0
2, 56693, Note_on_c, 0, 76, 0
2, 56696, Note_on_c, 0, 62, 0
2, 56697, Note_on_c, 0, 88, 0
2, 56701, Note_on_c, 0, 56, 0
2, 56763, Note_on_c, 0, 56, 67
2, 56763, Note_on_c, 0, 65, 66
2, 56764, Note_on_c, 0, 62, 57
2, 56765, Note_on_c, 0, 88, 84
2, 56766, Note_on_c, 0, 76, 74
2, 56784, Note_on_c, 0, 76, 0
2, 56785, Note_on_c, 0, 88, 0
2, 56786, Note_on_c, 0, 65, 0
2, 56800, Note_on_c, 0, 86, 65
2, 56802, Note_on_c, 0, 65, 61
2, 56804, Note_on_c, 0, 74, 62
2, 56816, Note_on_c, 0, 74, 0
2, 56819, Note_on_c, 0, 65, 0
2, 56820, Note_on_c, 0, 86, 0
2, 56821, Note_on_c, 0, 62, 0
2, 56826, Note_on_c, 0, 56, 0
2, 56881, Note_on_c, 0, 56, 61
2, 56883, Note_on_c, 0, 65, 56
2, 56885, Note_on_c, 0, 62, 46
2, 56887, Note_on_c, 0, 86, 80
2, 56888, Note_on_c, 0, 74, 68
2, 56896, Note_on_c, 0, 65, 0
2, 56901, Note_on_c, 0, 86, 0
2, 56906, Note_on_c, 0, 74, 0
2, 56909, Note_on_c, 0, 62, 0
2, 56909, Note_on_c, 0, 56, 0
2, 56920, Note_on_c, 0, 56, 25
2, 56922, Note_on_c, 0, 84, 66
2, 56922, Note_on_c, 0, 62, 27
2, 56923, Note_on_c, 0, 65, 36
2, 56923, Note_on_c, 0, 72, 44
2, 56933, Note_on_c, 0, 65, 0
2, 56935, Note_on_c, 0, 72, 0
2, 56937, Note_on_c, 0, 84, 0
2, 56938, Note_on_c, 0, 62, 0
2, 56942, Note_on_c, 0, 56, 0
2, 56997, Note_on_c, 0, 56, 48
2, 57000, Note_on_c, 0, 65, 40
2, 57001, Note_on_c, 0, 62, 41
2, 57003, Note_on_c, 0, 84, 60
2, 57004, Note_on_c, 0, 72, 54
2, 57011, Note_on_c, 0, 65, 0
2, 57021, Note_on_c, 0, 84, 0
2, 57029, Note_on_c, 0, 56, 0
2, 57030, Note_on_c, 0, 72, 0
2, 57035, Note_on_c, 0, 62, 0
2, 57055, Note_on_c, 0, 56, 40
2, 57059, Note_on_c, 0, 83, 58
2, 57060, Note_on_c, 0, 71, 56
2, 57061, Note_on_c, 0, 65, 19
2, 57067, Note_on_c, 0, 65, 0
2, 57074, Note_on_c, 0, 83, 0
2, 57077, Note_on_c, 0, 71, 0
2, 57083, Note_on_c, 0, 56, 0
2, 57119, Note_on_c, 0, 64, 40
2, 57121, Note_on_c, 0, 59, 35
2, 57122, Note_on_c, 0, 57, 43
2, 57123, Note_on_c, 0, 71, 66
2, 57123, Note_on_c, 0, 83, 62
2, 57126, Note_on_c, 0, 60, 34
2, 57160, Note_on_c, 0, 83, 0
2, 57161, Control_c, 0, 64, 127
2, 57162, Note_on_c, 0, 71, 0
2, 57181, Note_on_c, 0, 72, 50
2, 57183, Note_on_c, 0, 84, 64
2, 57184, Control_c, 0, 64, 0
2, 57186, Note_on_c, 0, 60, 0
2, 57189, Note_on_c, 0, 57, 0
2, 57190, Note_on_c, 0, 59, 0
2, 57190, Note_on_c, 0, 64, 0
2, 57190, Note_on_c, 0, 84, 0
2, 57194, Note_on_c, 0, 72, 0
2, 57241, Note_on_c, 0, 64, 26
2, 57243, Note_on_c, 0, 84, 65
2, 57244, Note_on_c, 0, 59, 38
2, 57244, Note_on_c, 0, 72, 43
2, 57245, Note_on_c, 0, 60, 35
2, 57248, Note_on_c, 0, 57, 27
2, 57249, Note_on_c, 0, 84, 0
2, 57252, Note_on_c, 0, 72, 0
2, 57254, Note_on_c, 0, 60, 0
2, 57254, Note_on_c, 0, 59, 0
2, 57255, Note_on_c, 0, 64, 0
2, 57258, Note_on_c, 0, 57, 0
2, 57300, Note_on_c, 0, 81, 60
2, 57302, Note_on_c, 0, 64, 38
2, 57302, Note_on_c, 0, 69, 57
2, 57309, Note_on_c, 0, 59, 32
2, 57310, Note_on_c, 0, 60, 32
2, 57313, Note_on_c, 0, 57, 24
2, 57317, Note_on_c, 0, 59, 0
2, 57317, Note_on_c, 0, 69, 0
2, 57317, Note_on_c, 0, 81, 0
2, 57317, Note_on_c, 0, 64, 0
2, 57318, Note_on_c, 0, 60, 0
2, 57321, Note_on_c, 0, 57, 0
2, 57365, Note_on_c, 0, 64, 38
2, 57368, Note_on_c, 0, 81, 62
2, 57371, Note_on_c, 0, 69, 52
2, 57372, Note_on_c, 0, 59, 31
2, 57372, Note_on_c, 0, 60, 35
2, 57375, Note_on_c, 0, 57, 34
2, 57417, Control_c, 0, 64, 127
2, 57466, Note_on_c, 0, 59, 0
2, 57467, Note_on_c, 0, 60, 0
2, 57468, Note_on_c, 0, 57, 0
2, 57470, Note_on_c, 0, 64, 0
2, 57504, Note_on_c, 0, 69, 0
2, 57610, Note_on_c, 0, 66, 47
2, 57611, Note_on_c, 0, 69, 40
2, 57612, Note_on_c, 0, 58, 33
2, 57613, Note_on_c, 0, 62, 53
2, 57619, Control_c, 0, 64, 0
2, 57620, Note_on_c, 0, 81, 0
2, 57733, Note_on_c, 0, 86, 91
2, 57734, Note_on_c, 0, 88, 84
2, 57756, Note_on_c, 0, 88, 0
2, 57760, Note_on_c, 0, 86, 0
2, 57770, Note_on_c, 0, 90, 69
2, 57789, Note_on_c, 0, 90, 0
2, 57823, Note_on_c, 0, 93, 89
2, 57841, Note_on_c, 0, 93, 0
2, 57881, Note_on_c, 0, 86, 67
2, 57891, Note_on_c, 0, 86, 0
2, 57908, Note_on_c, 0, 90, 69
2, 57937, Note_on_c, 0, 90, 0
2, 57963, Note_on_c, 0, 83, 53
2, 57987, Note_on_c, 0, 66, 0
2, 57991, Note_on_c, 0, 83, 0
2, 58008, Note_on_c, 0, 69, 0
2, 58017, Note_on_c, 0, 62, 0
2, 58025, Note_on_c, 0, 58, 0
2, 58025, Note_on_c, 0, 86, 77
2, 58041, Note_on_c, 0, 86, 0
2, 58140, Note_on_c, 0, 65, 43
2, 58150, Note_on_c, 0, 62, 22
2, 58156, Note_on_c, 0, 65, 0
2, 58158, Note_on_c, 0, 62, 0
2, 58199, Note_on_c, 0, 65, 42
2, 58204, Note_on_c, 0, 57, 40
2, 58207, Note_on_c, 0, 62, 29
2, 58217, Note_on_c, 0, 65, 0
2, 58218, Note_on_c, 0, 62, 0
2, 58218, Note_on_c, 0, 57, 0
2, 58382, Note_on_c, 0, 63, 31
2, 58382, Note_on_c, 0, 65, 42
2, 58382, Note_on_c, 0, 57, 48
2, 58392, Note_on_c, 0, 65, 0
2, 58393, Note_on_c, 0, 57, 0
2, 58395, Note_on_c, 0, 63, 0
2, 58446, Note_on_c, 0, 86, 89
2, 58477, Note_on_c, 0, 88, 71
2, 58481, Note_on_c, 0, 86, 0
2, 58496, Note_on_c, 0, 88, 0
2, 58502, Note_on_c, 0, 89, 75
2, 58525, Note_on_c, 0, 89, 0
2, 58538, Note_on_c, 0, 65, 56
2, 58541, Note_on_c, 0, 62, 55
2, 58542, Note_on_c, 0, 56, 32
2, 58553, Note_on_c, 0, 65, 0
2, 58556, Note_on_c, 0, 56, 0
2, 58557, Note_on_c, 0, 62, 0
2, 58595, Note_on_c, 0, 86, 94
2, 58612, Note_on_c, 0, 86, 0
2, 58653, Note_on_c, 0, 84, 77
2, 58666, Note_on_c, 0, 56, 33
2, 58668, Note_on_c, 0, 65, 29
2, 58669, Note_on_c, 0, 62, 37
2, 58675, Note_on_c, 0, 84, 0
2, 58684, Note_on_c, 0, 83, 56
2, 58703, Note_on_c, 0, 62, 0
2, 58716, Note_on_c, 0, 83, 0
2, 58724, Note_on_c, 0, 65, 0
2, 58733, Note_on_c, 0, 56, 0
2, 58739, Note_on_c, 0, 81, 53
2, 58756, Note_on_c, 0, 81, 0
2, 58800, Note_on_c, 0, 80, 62
2, 58802, Note_on_c, 0, 65, 35
2, 58804, Note_on_c, 0, 56, 26
2, 58805, Note_on_c, 0, 62, 39
2, 58811, Note_on_c, 0, 65, 0
2, 58818, Note_on_c, 0, 56, 0
2, 58820, Note_on_c, 0, 62, 0
2, 58823, Note_on_c, 0, 80, 0
2, 58857, Note_on_c, 0, 86, 78
2, 58893, Note_on_c, 0, 86, 0
2, 58917, Note_on_c, 0, 77, 50
2, 58918, Note_on_c, 0, 56, 32
2, 58923, Note_on_c, 0, 62, 24
2, 58936, Note_on_c, 0, 62, 0
2, 58938, Note_on_c, 0, 77, 0
2, 58942, Note_on_c, 0, 56, 0
2, 58952, Note_on_c, 0, 76, 54
2, 58978, Note_on_c, 0, 76, 0
2, 58981, Note_on_c, 0, 74, 48
2, 59002, Note_on_c, 0, 74, 0
2, 59013, Note_on_c, 0, 72, 36
2, 59034, Note_on_c, 0, 45, 33
2, 59036, Note_on_c, 0, 72, 0
2, 59038, Note_on_c, 0, 52, 28
2, 59045, Note_on_c, 0, 71, 43
2, 59049, Note_on_c, 0, 57, 18
2, 59114, Control_c, 0, 64, 127
2, 59148, Note_on_c, 0, 71, 0
2, 59175, Note_on_c, 0, 57, 0
2, 59221, Note_on_c, 0, 71, 48
2, 59223, Note_on_c, 0, 64, 51
2, 59226, Note_on_c, 0, 57, 30
2, 59235, Control_c, 0, 64, 0
2, 59282, Control_c, 0, 64, 127
2, 59319, Note_on_c, 0, 64, 0
2, 59336, Note_on_c, 0, 64, 29
2, 59339, Note_on_c, 0, 59, 35
2, 59343, Note_on_c, 0, 60, 30
2, 59365, Control_c, 0, 64, 0
2, 59390, Control_c, 0, 64, 127
2, 59408, Note_on_c, 0, 52, 0
2, 59447, Note_on_c, 0, 60, 0
2, 59454, Note_on_c, 0, 59, 0
2, 59458, Note_on_c, 0, 52, 33
2, 59465, Note_on_c, 0, 64, 0
2, 59481, Note_on_c, 0, 45, 0
2, 59492, Note_on_c, 0, 52, 0
2, 59500, Control_c, 0, 64, 0
2, 59528, Note_on_c, 0, 57, 0
2, 59579, Note_on_c, 0, 59, 40
2, 59581, Note_on_c, 0, 60, 33
2, 59581, Note_on_c, 0, 64, 36
2, 59582, Note_on_c, 0, 45, 20
2, 59583, Note_on_c, 0, 52, 36
2, 59591, Note_on_c, 0, 64, 0
2, 59591, Note_on_c, 0, 60, 0
2, 59592, Note_on_c, 0, 59, 0
2, 59593, Note_on_c, 0, 52, 0
2, 59596, Note_on_c, 0, 45, 0
2, 59644, Note_on_c, 0, 45, 32
2, 59645, Note_on_c, 0, 64, 41
2, 59645, Note_on_c, 0, 59, 35
2, 59646, Note_on_c, 0, 52, 31
2, 59647, Note_on_c, 0, 60, 33
2, 59649, Note_on_c, 0, 57, 34
2, 59711, Note_on_c, 0, 60, 0
2, 59711, Note_on_c, 0, 59, 0
2, 59718, Note_on_c, 0, 45, 51
2, 59729, Note_on_c, 0, 45, 0
2, 59730, Note_on_c, 0, 64, 0
2, 59733, Note_on_c, 0, 45, 0
2, 59737, Note_on_c, 0, 57, 0
2, 59739, Note_on_c, 0, 52, 0
2, 59749, Note_on_c, 0, 71, 0
2, 59776, Note_on_c, 0, 52, 36
2, 59789, Note_on_c, 0, 52, 0
2, 59835, Note_on_c, 0, 52, 51
2, 59928, Note_on_c, 0, 52, 0
2, 59949, Control_c, 0, 64, 127
2, 59949, Note_on_c, 0, 52, 44
2, 60008, Note_on_c, 0, 71, 51
2, 60009, Note_on_c, 0, 52, 0
2, 60009, Control_c, 0, 64, 0
2, 60012, Note_on_c, 0, 64, 50
2, 60013, Note_on_c, 0, 59, 36
2, 60014, Note_on_c, 0, 60, 36
2, 60017, Note_on_c, 0, 45, 40
2, 60054, Control_c, 0, 64, 127
2, 60064, Note_on_c, 0, 60, 0
2, 60064, Note_on_c, 0, 59, 0
2, 60071, Note_on_c, 0, 52, 44
2, 60075, Note_on_c, 0, 64, 0
2, 60080, Note_on_c, 0, 45, 0
2, 60091, Note_on_c, 0, 52, 0
2, 60096, Note_on_c, 0, 71, 0
2, 60139, Note_on_c, 0, 76, 33
2, 60159, Note_on_c, 0, 76, 0
2, 60192, Note_on_c, 0, 83, 55
2, 60197, Note_on_c, 0, 60, 44
2, 60197, Note_on_c, 0, 64, 33
2, 60199, Note_on_c, 0, 59, 31
2, 60290, Note_on_c, 0, 60, 0
2, 60299, Note_on_c, 0, 59, 0
2, 60312, Note_on_c, 0, 83, 0
2, 60312, Note_on_c, 0, 60, 33
2, 60319, Note_on_c, 0, 64, 0
2, 60325, Note_on_c, 0, 60, 0
2, 60420, Note_on_c, 0, 88, 51
2, 60437, Note_on_c, 0, 88, 0
2, 60490, Note_on_c, 0, 60, 40
2, 60491, Note_on_c, 0, 59, 37
2, 60491, Note_on_c, 0, 95, 74
2, 60493, Note_on_c, 0, 64, 27
2, 60581, Note_on_c, 0, 64, 0
2, 60583, Note_on_c, 0, 60, 0
2, 60585, Note_on_c, 0, 59, 0
2, 60608, Note_on_c, 0, 95, 0
2, 60617, Note_on_c, 0, 93, 43
2, 60634, Note_on_c, 0, 93, 0
2, 60691, Note_on_c, 0, 98, 80
2, 60692, Note_on_c, 0, 64, 40
2, 60694, Note_on_c, 0, 59, 44
2, 60694, Note_on_c, 0, 60, 44
2, 60779, Note_on_c, 0, 64, 0
2, 60780, Note_on_c, 0, 60, 0
2, 60780, Note_on_c, 0, 59, 0
2, 60796, Note_on_c, 0, 98, 0
2, 60798, Note_on_c, 0, 60, 32
2, 60800, Note_on_c, 0, 96, 62
2, 60800, Note_on_c, 0, 64, 34
2, 60803, Note_on_c, 0, 59, 34
2, 60841, Note_on_c, 0, 64, 0
2, 60844, Note_on_c, 0, 60, 0
2, 60846, Note_on_c, 0, 59, 0
2, 60872, Note_on_c, 0, 96, 0
2, 60922, Note_on_c, 0, 52, 32
2, 60947, Note_on_c, 0, 52, 0
2, 60980, Note_on_c, 0, 95, 51
2, 60982, Note_on_c, 0, 88, 62
2, 60986, Note_on_c, 0, 45, 38
2, 60990, Control_c, 0, 64, 0
2, 61008, Control_c, 0, 64, 127
2, 61032, Note_on_c, 0, 95, 0
2, 61043, Note_on_c, 0, 88, 0
2, 61072, Note_on_c, 0, 52, 34
2, 61160, Note_on_c, 0, 71, 38
2, 61165, Note_on_c, 0, 64, 31
2, 61168, Note_on_c, 0, 60, 32
2, 61168, Note_on_c, 0, 59, 33
2, 61171, Note_on_c, 0, 57, 33
2, 61343, Note_on_c, 0, 57, 0
2, 61392, Note_on_c, 0, 52, 0
2, 61407, Note_on_c, 0, 45, 0
2, 61570, Note_on_c, 0, 59, 0
2, 61572, Note_on_c, 0, 64, 0
2, 61573, Note_on_c, 0, 60, 0
2, 61589, Note_on_c, 0, 71, 0
2, 61872, Control_c, 0, 64, 0
2, 61872, End_track
3, 0, Start_track
3, 0, Title_t, ""
3, 0, Program_c, 1, 35
3, 0, Note_on_c, 1, 33, 78
3, 298, Note_on_c, 1, 45, 91
3, 315, Note_on_c, 1, 33, 0
3, 338, Note_on_c, 1, 45, 0
3, 355, Note_on_c, 1, 40, 75
3, 369, Note_on_c, 1, 40, 0
3, 412, Note_on_c, 1, 33, 96
3, 662, Note_on_c, 1, 47, 96
3, 688, Note_on_c, 1, 33, 0
3, 719, Note_on_c, 1, 47, 0
3, 725, Note_on_c, 1, 45, 71
3, 745, Note_on_c, 1, 45, 0
3, 780, Note_on_c, 1, 40, 65
3, 826, Note_on_c, 1, 40, 0
3, 843, Note_on_c, 1, 31, 58
3, 877, Note_on_c, 1, 31, 0
3, 900, Note_on_c, 1, 32, 73
3, 953, Note_on_c, 1, 32, 0
3, 962, Note_on_c, 1, 33, 64
3, 1264, Note_on_c, 1, 45, 69
3, 1281, Note_on_c, 1, 45, 0
3, 1318, Note_on_c, 1, 33, 0
3, 1324, Note_on_c, 1, 40, 33
3, 1340, Note_on_c, 1, 40, 0
3, 1380, Note_on_c, 1, 33, 87
3, 1824, Note_on_c, 1, 33, 0
3, 1854, Note_on_c, 1, 31, 58
3, 1862, Note_on_c, 1, 31, 0
3, 1915, Note_on_c, 1, 33, 80
3, 2163, Note_on_c, 1, 47, 80
3, 2217, Note_on_c, 1, 47, 0
3, 2223, Note_on_c, 1, 45, 71
3, 2228, Note_on_c, 1, 33, 0
3, 2279, Note_on_c, 1, 45, 0
3, 2282, Note_on_c, 1, 40, 44
3, 2342, Note_on_c, 1, 33, 75
3, 2390, Note_on_c, 1, 33, 0
3, 2401, Note_on_c, 1, 40, 0
3, 2403, Note_on_c, 1, 33, 78
3, 2698, Note_on_c, 1, 45, 66
3, 2730, Note_on_c, 1, 33, 0
3, 2761, Note_on_c, 1, 45, 0
3, 2823, Note_on_c, 1, 33, 83
3, 2871, Note_on_c, 1, 33, 0
3, 2882, Note_on_c, 1, 33, 85
3, 3177, Note_on_c, 1, 33, 0
3, 3177, Note_on_c, 1, 40, 91
3, 3300, Note_on_c, 1, 33, 73
3, 3338, Note_on_c, 1, 33, 0
3, 3354, Note_on_c, 1, 40, 0
3, 3359, Note_on_c, 1, 33, 82
3, 3541, Note_on_c, 1, 45, 90
3, 3556, Note_on_c, 1, 33, 0
3, 3654, Note_on_c, 1, 45, 0
3, 3663, Note_on_c, 1, 40, 78
3, 3776, Note_on_c, 1, 40, 0
3, 3776, Note_on_c, 1, 33, 64
3, 3795, Note_on_c, 1, 33, 0
3, 3835, Note_on_c, 1, 33, 64
3, 3840, Note_on_c, 1, 33, 87
3, 3850, Note_on_c, 1, 33, 0
3, 4264, Note_on_c, 1, 48, 99
3, 4267, Note_on_c, 1, 47, 66
3, 4272, Note_on_c, 1, 47, 0
3, 4284, Note_on_c, 1, 33, 0
3, 4319, Note_on_c, 1, 48, 0
3, 4320, Note_on_c, 1, 47, 80
3, 4601, Note_on_c, 1, 40, 60
3, 4602, Note_on_c, 1, 47, 0
3, 4607, Note_on_c, 1, 40, 0
3, 4620, Note_on_c, 1, 35, 53
3, 4638, Note_on_c, 1, 35, 0
3, 4685, Note_on_c, 1, 28, 53
3, 4685, Note_on_c, 1, 26, 56
3, 4707, Note_on_c, 1, 26, 0
3, 4724, Note_on_c, 1, 28, 0
3, 4738, Note_on_c, 1, 28, 83
3, 4796, Note_on_c, 1, 28, 0
3, 4800, Note_on_c, 1, 33, 81
3, 4983, Note_on_c, 1, 47, 81
3, 5010, Note_on_c, 1, 47, 0
3, 5014, Note_on_c, 1, 45, 65
3, 5037, Note_on_c, 1, 45, 0
3, 5046, Note_on_c, 1, 47, 51
3, 5048, Note_on_c, 1, 33, 0
3, 5101, Note_on_c, 1, 47, 0
3, 5108, Note_on_c, 1, 33, 74
3, 5146, Note_on_c, 1, 33, 0
3, 5159, Note_on_c, 1, 34, 62
3, 5216, Note_on_c, 1, 34, 0
3, 5221, Note_on_c, 1, 35, 84
3, 5463, Note_on_c, 1, 50, 65
3, 5475, Note_on_c, 1, 50, 0
3, 5520, Note_on_c, 1, 52, 84
3, 5522, Note_on_c, 1, 35, 0
3, 5572, Control_c, 1, 1, 13
3, 5573, Control_c, 1, 1, 15
3, 5574, Control_c, 1, 1, 16
3, 5574, Control_c, 1, 1, 17
3, 5575, Control_c, 1, 1, 18
3, 5576, Control_c, 1, 1, 19
3, 5577, Control_c, 1, 1, 20
3, 5580, Control_c, 1, 1, 21
3, 5585, Control_c, 1, 1, 20
3, 5587, Control_c, 1, 1, 19
3, 5589, Control_c, 1, 1, 17
3, 5591, Control_c, 1, 1, 16
3, 5593, Control_c, 1, 1, 13
3, 5594, Control_c, 1, 1, 11
3, 5596, Control_c, 1, 1, 10
3, 5598, Control_c, 1, 1, 8
3, 5600, Control_c, 1, 1, 7
3, 5602, Control_c, 1, 1, 6
3, 5603, Control_c, 1, 1, 4
3, 5605, Control_c, 1, 1, 3
3, 5607, Control_c, 1, 1, 2
3, 5608, Control_c, 1, 1, 1
3, 5820, Note_on_c, 1, 52, 0
3, 5824, Note_on_c, 1, 47, 57
3, 5879, Note_on_c, 1, 47, 0
3, 5883, Note_on_c, 1, 45, 57
3, 5900, Note_on_c, 1, 45, 0
3, 5941, Note_on_c, 1, 40, 65
3, 5997, Note_on_c, 1, 40, 0
3, 5999, Note_on_c, 1, 33, 79
3, 6177, Note_on_c, 1, 33, 0
3, 6179, Note_on_c, 1, 37, 67
3, 6236, Note_on_c, 1, 37, 0
3, 6238, Note_on_c, 1, 38, 85
3, 6423, Note_on_c, 1, 53, 108
3, 6427, Note_on_c, 1, 38, 0
3, 6544, Note_on_c, 1, 47, 68
3, 6547, Note_on_c, 1, 53, 0
3, 6601, Note_on_c, 1, 47, 0
3, 6607, Note_on_c, 1, 43, 54
3, 6652, Note_on_c, 1, 43, 0
3, 6664, Note_on_c, 1, 35, 64
3, 6723, Note_on_c, 1, 35, 0
3, 6725, Note_on_c, 1, 36, 75
3, 7022, Note_on_c, 1, 53, 108
3, 7074, Note_on_c, 1, 53, 0
3, 7077, Note_on_c, 1, 36, 0
3, 7080, Note_on_c, 1, 52, 66
3, 7126, Note_on_c, 1, 52, 0
3, 7139, Note_on_c, 1, 46, 64
3, 7191, Note_on_c, 1, 46, 0
3, 7199, Note_on_c, 1, 45, 64
3, 7258, Note_on_c, 1, 45, 0
3, 7259, Note_on_c, 1, 33, 101
3, 7380, Note_on_c, 1, 35, 96
3, 7390, Note_on_c, 1, 33, 0
3, 7499, Note_on_c, 1, 36, 89
3, 7507, Note_on_c, 1, 35, 0
3, 7616, Note_on_c, 1, 36, 0
3, 7618, Note_on_c, 1, 37, 84
3, 7678, Note_on_c, 1, 37, 0
3, 7681, Note_on_c, 1, 38, 74
3, 8217, Note_on_c, 1, 48, 110
3, 8225, Note_on_c, 1, 38, 0
3, 8267, Note_on_c, 1, 48, 0
3, 8271, Note_on_c, 1, 47, 69
3, 8328, Note_on_c, 1, 47, 0
3, 8340, Note_on_c, 1, 43, 71
3, 8463, Note_on_c, 1, 31, 89
3, 8470, Note_on_c, 1, 43, 0
3, 8525, Note_on_c, 1, 35, 75
3, 8528, Note_on_c, 1, 31, 0
3, 8571, Note_on_c, 1, 35, 0
3, 8583, Note_on_c, 1, 35, 87
3, 8632, Note_on_c, 1, 35, 0
3, 8639, Note_on_c, 1, 36, 88
3, 8768, Note_on_c, 1, 36, 0
3, 8887, Note_on_c, 1, 45, 105
3, 8905, Pitch_bend_c, 1, 8192
3, 8906, Pitch_bend_c, 1, 8192
3, 8908, Pitch_bend_c, 1, 7680
3, 8909, Pitch_bend_c, 1, 7296
3, 8911, Pitch_bend_c, 1, 7040
3, 8912, Pitch_bend_c, 1, 6656
3, 8913, Pitch_bend_c, 1, 6144
3, 8914, Pitch_bend_c, 1, 5760
3, 8916, Pitch_bend_c, 1, 5504
3, 8917, Pitch_bend_c, 1, 4992
3, 8918, Pitch_bend_c, 1, 4608
3, 8919, Pitch_bend_c, 1, 4352
3, 8920, Pitch_bend_c, 1, 3968
3, 8922, Pitch_bend_c, 1, 3712
3, 8923, Pitch_bend_c, 1, 3456
3, 8924, Pitch_bend_c, 1, 3200
3, 8925, Pitch_bend_c, 1, 2944
3, 8927, Pitch_bend_c, 1, 2688
3, 8928, Pitch_bend_c, 1, 2560
3, 8929, Pitch_bend_c, 1, 2432
3, 8930, Pitch_bend_c, 1, 2304
3, 8931, Pitch_bend_c, 1, 2176
3, 8933, Pitch_bend_c, 1, 2048
3, 8939, Pitch_bend_c, 1, 2304
3, 8940, Pitch_bend_c, 1, 2560
3, 8942, Pitch_bend_c, 1, 2816
3, 8943, Pitch_bend_c, 1, 3200
3, 8944, Pitch_bend_c, 1, 3584
3, 8945, Pitch_bend_c, 1, 4096
3, 8946, Pitch_bend_c, 1, 4608
3, 8948, Pitch_bend_c, 1, 5120
3, 8949, Pitch_bend_c, 1, 5888
3, 8950, Pitch_bend_c, 1, 6528
3, 8951, Pitch_bend_c, 1, 7040
3, 8953, Pitch_bend_c, 1, 7552
3, 8954, Pitch_bend_c, 1, 8192
3, 8954, Pitch_bend_c, 1, 8192
3, 9062, Note_on_c, 1, 43, 80
3, 9071, Note_on_c, 1, 45, 0
3, 9186, Note_on_c, 1, 41, 78
3, 9187, Note_on_c, 1, 43, 0
3, 9307, Note_on_c, 1, 36, 79
3, 9309, Note_on_c, 1, 41, 0
3, 9418, Note_on_c, 1, 36, 0
3, 9422, Note_on_c, 1, 33, 78
3, 9537, Note_on_c, 1, 33, 0
3, 9539, Note_on_c, 1, 34, 79
3, 9593, Note_on_c, 1, 34, 0
3, 9600, Note_on_c, 1, 35, 85
3, 9787, Note_on_c, 1, 47, 88
3, 9797, Note_on_c, 1, 35, 0
3, 9816, Note_on_c, 1, 47, 0
3, 9849, Note_on_c, 1, 47, 96
3, 9868, Control_c, 1, 1, 3
3, 9869, Control_c, 1, 1, 5
3, 9870, Control_c, 1, 1, 6
3, 9870, Control_c, 1, 1, 8
3, 9871, Control_c, 1, 1, 10
3, 9871, Control_c, 1, 1, 12
3, 9872, Control_c, 1, 1, 13
3, 9873, Control_c, 1, 1, 16
3, 9873, Control_c, 1, 1, 17
3, 9874, Control_c, 1, 1, 20
3, 9874, Control_c, 1, 1, 21
3, 9875, Control_c, 1, 1, 23
3, 9876, Control_c, 1, 1, 24
3, 9877, Control_c, 1, 1, 26
3, 9877, Control_c, 1, 1, 28
3, 9878, Control_c, 1, 1, 29
3, 9878, Control_c, 1, 1, 31
3, 9879, Control_c, 1, 1, 33
3, 9880, Control_c, 1, 1, 34
3, 9880, Control_c, 1, 1, 35
3, 9881, Control_c, 1, 1, 37
3, 9882, Control_c, 1, 1, 38
3, 9882, Control_c, 1, 1, 40
3, 9883, Control_c, 1, 1, 41
3, 9883, Control_c, 1, 1, 43
3, 9884, Control_c, 1, 1, 44
3, 9885, Control_c, 1, 1, 46
3, 9885, Control_c, 1, 1, 47
3, 9886, Control_c, 1, 1, 49
3, 9887, Control_c, 1, 1, 50
3, 9887, Control_c, 1, 1, 52
3, 9888, Control_c, 1, 1, 54
3, 9889, Control_c, 1, 1, 56
3, 9889, Control_c, 1, 1, 57
3, 9890, Control_c, 1, 1, 59
3, 9890, Control_c, 1, 1, 61
3, 9891, Control_c, 1, 1, 63
3, 9892, Control_c, 1, 1, 65
3, 9892, Control_c, 1, 1, 67
3, 9893, Control_c, 1, 1, 68
3, 9894, Control_c, 1, 1, 70
3, 9894, Control_c, 1, 1, 72
3, 9895, Control_c, 1, 1, 74
3, 9896, Control_c, 1, 1, 75
3, 9896, Control_c, 1, 1, 77
3, 9897, Control_c, 1, 1, 79
3, 9897, Control_c, 1, 1, 80
3, 9898, Control_c, 1, 1, 82
3, 9899, Control_c, 1, 1, 83
3, 9899, Control_c, 1, 1, 85
3, 9900, Control_c, 1, 1, 86
3, 9901, Control_c, 1, 1, 88
3, 9901, Control_c, 1, 1, 89
3, 9902, Control_c, 1, 1, 90
3, 9903, Control_c, 1, 1, 91
3, 9903, Control_c, 1, 1, 93
3, 9904, Control_c, 1, 1, 94
3, 9904, Control_c, 1, 1, 95
3, 9905, Control_c, 1, 1, 97
3, 9906, Control_c, 1, 1, 98
3, 9906, Control_c, 1, 1, 99
3, 9907, Control_c, 1, 1, 101
3, 9909, Control_c, 1, 1, 104
3, 9910, Control_c, 1, 1, 105
3, 9910, Control_c, 1, 1, 106
3, 9911, Control_c, 1, 1, 107
3, 9911, Control_c, 1, 1, 108
3, 9912, Control_c, 1, 1, 109
3, 9913, Control_c, 1, 1, 111
3, 9914, Control_c, 1, 1, 113
3, 9915, Control_c, 1, 1, 114
3, 9917, Control_c, 1, 1, 117
3, 9919, Control_c, 1, 1, 119
3, 9919, Control_c, 1, 1, 120
3, 9921, Control_c, 1, 1, 123
3, 9923, Control_c, 1, 1, 125
3, 9924, Control_c, 1, 1, 126
3, 9926, Control_c, 1, 1, 127
3, 9949, Control_c, 1, 1, 126
3, 9950, Control_c, 1, 1, 125
3, 9950, Control_c, 1, 1, 124
3, 9951, Control_c, 1, 1, 123
3, 9953, Control_c, 1, 1, 120
3, 9954, Control_c, 1, 1, 119
3, 9954, Control_c, 1, 1, 117
3, 9955, Control_c, 1, 1, 116
3, 9955, Control_c, 1, 1, 115
3, 9956, Control_c, 1, 1, 113
3, 9957, Control_c, 1, 1, 112
3, 9957, Control_c, 1, 1, 110
3, 9958, Control_c, 1, 1, 108
3, 9959, Control_c, 1, 1, 107
3, 9959, Control_c, 1, 1, 105
3, 9960, Control_c, 1, 1, 103
3, 9961, Control_c, 1, 1, 101
3, 9961, Control_c, 1, 1, 99
3, 9962, Control_c, 1, 1, 97
3, 9962, Control_c, 1, 1, 95
3, 9963, Control_c, 1, 1, 93
3, 9964, Control_c, 1, 1, 90
3, 9964, Control_c, 1, 1, 89
3, 9965, Control_c, 1, 1, 86
3, 9966, Control_c, 1, 1, 84
3, 9966, Control_c, 1, 1, 81
3, 9967, Control_c, 1, 1, 79
3, 9967, Control_c, 1, 1, 76
3, 9968, Control_c, 1, 1, 74
3, 9969, Control_c, 1, 1, 71
3, 9969, Control_c, 1, 1, 69
3, 9970, Control_c, 1, 1, 66
3, 9971, Control_c, 1, 1, 63
3, 9971, Control_c, 1, 1, 60
3, 9972, Control_c, 1, 1, 57
3, 9973, Control_c, 1, 1, 55
3, 9973, Control_c, 1, 1, 52
3, 9974, Control_c, 1, 1, 49
3, 9974, Control_c, 1, 1, 47
3, 9975, Control_c, 1, 1, 43
3, 9976, Control_c, 1, 1, 41
3, 9976, Control_c, 1, 1, 38
3, 9977, Control_c, 1, 1, 35
3, 9978, Control_c, 1, 1, 32
3, 9978, Control_c, 1, 1, 29
3, 9979, Control_c, 1, 1, 26
3, 9980, Control_c, 1, 1, 22
3, 9980, Control_c, 1, 1, 19
3, 9981, Control_c, 1, 1, 16
3, 9982, Control_c, 1, 1, 12
3, 9982, Control_c, 1, 1, 9
3, 9983, Control_c, 1, 1, 6
3, 9984, Control_c, 1, 1, 3
3, 9984, Control_c, 1, 1, 1
3, 10021, Note_on_c, 1, 47, 0
3, 10043, Note_on_c, 1, 41, 85
3, 10148, Note_on_c, 1, 41, 0
3, 10151, Note_on_c, 1, 40, 83
3, 10257, Note_on_c, 1, 35, 81
3, 10262, Note_on_c, 1, 40, 0
3, 10314, Note_on_c, 1, 35, 0
3, 10317, Note_on_c, 1, 28, 91
3, 10437, Note_on_c, 1, 28, 0
3, 10440, Note_on_c, 1, 35, 70
3, 10454, Note_on_c, 1, 35, 0
3, 10474, Note_on_c, 1, 32, 75
3, 10486, Note_on_c, 1, 32, 0
3, 10502, Note_on_c, 1, 32, 81
3, 10550, Note_on_c, 1, 32, 0
3, 10556, Note_on_c, 1, 33, 79
3, 10682, Note_on_c, 1, 47, 94
3, 10709, Note_on_c, 1, 47, 0
3, 10715, Note_on_c, 1, 45, 59
3, 10738, Note_on_c, 1, 45, 0
3, 10745, Note_on_c, 1, 47, 71
3, 10759, Note_on_c, 1, 33, 0
3, 10803, Note_on_c, 1, 47, 0
3, 10809, Note_on_c, 1, 45, 70
3, 10859, Note_on_c, 1, 45, 0
3, 10865, Note_on_c, 1, 33, 76
3, 10915, Note_on_c, 1, 33, 0
3, 10919, Note_on_c, 1, 34, 80
3, 10971, Note_on_c, 1, 34, 0
3, 10982, Note_on_c, 1, 35, 94
3, 11041, Note_on_c, 1, 52, 115
3, 11100, Note_on_c, 1, 52, 0
3, 11102, Note_on_c, 1, 50, 78
3, 11212, Note_on_c, 1, 35, 0
3, 11221, Note_on_c, 1, 47, 51
3, 11271, Note_on_c, 1, 50, 0
3, 11282, Note_on_c, 1, 47, 0
3, 11285, Note_on_c, 1, 40, 88
3, 11347, Note_on_c, 1, 40, 0
3, 11347, Note_on_c, 1, 35, 78
3, 11459, Note_on_c, 1, 35, 0
3, 11461, Note_on_c, 1, 32, 77
3, 11513, Note_on_c, 1, 32, 0
3, 11520, Note_on_c, 1, 33, 79
3, 11818, Note_on_c, 1, 45, 105
3, 11826, Note_on_c, 1, 33, 0
3, 11832, Note_on_c, 1, 45, 0
3, 11879, Note_on_c, 1, 40, 68
3, 11891, Note_on_c, 1, 40, 0
3, 11937, Note_on_c, 1, 36, 88
3, 11990, Note_on_c, 1, 36, 0
3, 11998, Note_on_c, 1, 35, 80
3, 12114, Note_on_c, 1, 47, 95
3, 12121, Note_on_c, 1, 35, 0
3, 12298, Note_on_c, 1, 40, 68
3, 12314, Note_on_c, 1, 40, 0
3, 12350, Note_on_c, 1, 47, 0
3, 12361, Note_on_c, 1, 40, 87
3, 12363, Note_on_c, 1, 35, 35
3, 12379, Note_on_c, 1, 35, 0
3, 12423, Note_on_c, 1, 35, 79
3, 12457, Note_on_c, 1, 40, 0
3, 12471, Note_on_c, 1, 35, 0
3, 12481, Note_on_c, 1, 33, 85
3, 12664, Note_on_c, 1, 40, 79
3, 12671, Note_on_c, 1, 33, 0
3, 12712, Note_on_c, 1, 40, 0
3, 12727, Note_on_c, 1, 47, 89
3, 12758, Note_on_c, 1, 47, 0
3, 12759, Note_on_c, 1, 46, 74
3, 12779, Note_on_c, 1, 46, 0
3, 12787, Note_on_c, 1, 45, 80
3, 12904, Note_on_c, 1, 40, 64
3, 12906, Note_on_c, 1, 45, 0
3, 12955, Note_on_c, 1, 40, 0
3, 12961, Note_on_c, 1, 35, 85
3, 13128, Note_on_c, 1, 35, 0
3, 13140, Note_on_c, 1, 39, 60
3, 13169, Note_on_c, 1, 39, 0
3, 13202, Note_on_c, 1, 40, 78
3, 13219, Note_on_c, 1, 40, 0
3, 13265, Note_on_c, 1, 40, 84
3, 13379, Note_on_c, 1, 40, 0
3, 13383, Note_on_c, 1, 38, 58
3, 13400, Note_on_c, 1, 38, 0
3, 13414, Note_on_c, 1, 39, 69
3, 13433, Note_on_c, 1, 39, 0
3, 13442, Note_on_c, 1, 40, 75
3, 13628, Note_on_c, 1, 50, 57
3, 13646, Note_on_c, 1, 50, 0
3, 13659, Note_on_c, 1, 57, 80
3, 13676, Note_on_c, 1, 40, 0
3, 13679, Note_on_c, 1, 57, 0
3, 13687, Note_on_c, 1, 55, 74
3, 13747, Note_on_c, 1, 55, 0
3, 13749, Note_on_c, 1, 50, 54
3, 13783, Note_on_c, 1, 50, 0
3, 13812, Note_on_c, 1, 46, 54
3, 13833, Note_on_c, 1, 46, 0
3, 13867, Note_on_c, 1, 45, 69
3, 13983, Note_on_c, 1, 40, 56
3, 13996, Note_on_c, 1, 45, 0
3, 14030, Note_on_c, 1, 40, 0
3, 14036, Note_on_c, 1, 33, 80
3, 14398, Note_on_c, 1, 33, 0
3, 14404, Note_on_c, 1, 38, 74
3, 14562, Note_on_c, 1, 38, 0
3, 14580, Note_on_c, 1, 45, 64
3, 14594, Note_on_c, 1, 45, 0
3, 14639, Note_on_c, 1, 53, 96
3, 14658, Pitch_bend_c, 1, 8192
3, 14658, Pitch_bend_c, 1, 8192
3, 14660, Pitch_bend_c, 1, 8192
3, 14663, Pitch_bend_c, 1, 7680
3, 14664, Pitch_bend_c, 1, 7552
3, 14665, Pitch_bend_c, 1, 7296
3, 14666, Pitch_bend_c, 1, 7040
3, 14667, Pitch_bend_c, 1, 6784
3, 14669, Pitch_bend_c, 1, 6528
3, 14670, Pitch_bend_c, 1, 6144
3, 14671, Pitch_bend_c, 1, 5760
3, 14672, Pitch_bend_c, 1, 5376
3, 14674, Pitch_bend_c, 1, 4992
3, 14675, Pitch_bend_c, 1, 4608
3, 14676, Pitch_bend_c, 1, 4224
3, 14677, Pitch_bend_c, 1, 3840
3, 14678, Pitch_bend_c, 1, 3584
3, 14680, Pitch_bend_c, 1, 3200
3, 14681, Pitch_bend_c, 1, 2816
3, 14682, Pitch_bend_c, 1, 2432
3, 14683, Pitch_bend_c, 1, 2176
3, 14685, Pitch_bend_c, 1, 1792
3, 14686, Pitch_bend_c, 1, 1536
3, 14687, Pitch_bend_c, 1, 1152
3, 14688, Pitch_bend_c, 1, 896
3, 14689, Pitch_bend_c, 1, 768
3, 14691, Pitch_bend_c, 1, 512
3, 14692, Pitch_bend_c, 1, 384
3, 14693, Pitch_bend_c, 1, 128
3, 14697, Pitch_bend_c, 1, 0
3, 14702, Pitch_bend_c, 1, 384
3, 14703, Pitch_bend_c, 1, 640
3, 14704, Pitch_bend_c, 1, 896
3, 14706, Pitch_bend_c, 1, 1408
3, 14707, Pitch_bend_c, 1, 1920
3, 14708, Pitch_bend_c, 1, 2688
3, 14709, Pitch_bend_c, 1, 3328
3, 14710, Pitch_bend_c, 1, 3968
3, 14712, Pitch_bend_c, 1, 4736
3, 14713, Pitch_bend_c, 1, 5632
3, 14714, Pitch_bend_c, 1, 6400
3, 14715, Pitch_bend_c, 1, 7040
3, 14717, Pitch_bend_c, 1, 7552
3, 14718, Pitch_bend_c, 1, 8192
3, 14719, Pitch_bend_c, 1, 8192
3, 14821, Note_on_c, 1, 53, 0
3, 14824, Note_on_c, 1, 50, 82
3, 14943, Note_on_c, 1, 50, 0
3, 14946, Note_on_c, 1, 45, 59
3, 15182, Note_on_c, 1, 45, 0
3, 15184, Note_on_c, 1, 43, 74
3, 15226, Note_on_c, 1, 43, 0
3, 15243, Note_on_c, 1, 41, 49
3, 15285, Note_on_c, 1, 41, 0
3, 15298, Note_on_c, 1, 40, 63
3, 15346, Note_on_c, 1, 40, 0
3, 15365, Note_on_c, 1, 38, 55
3, 15386, Note_on_c, 1, 38, 0
3, 15422, Note_on_c, 1, 38, 62
3, 15591, Note_on_c, 1, 34, 23
3, 15605, Note_on_c, 1, 34, 0
3, 15606, Note_on_c, 1, 38, 0
3, 15607, Note_on_c, 1, 50, 110
3, 15620, Note_on_c, 1, 50, 0
3, 15635, Note_on_c, 1, 50, 77
3, 15665, Note_on_c, 1, 49, 74
3, 15667, Note_on_c, 1, 50, 0
3, 15722, Note_on_c, 1, 49, 0
3, 15727, Note_on_c, 1, 48, 79
3, 15832, Note_on_c, 1, 48, 0
3, 15843, Note_on_c, 1, 47, 74
3, 15855, Note_on_c, 1, 47, 0
3, 15904, Note_on_c, 1, 35, 79
3, 16018, Note_on_c, 1, 28, 77
3, 16028, Note_on_c, 1, 35, 0
3, 16250, Note_on_c, 1, 28, 0
3, 16257, Note_on_c, 1, 32, 71
3, 16315, Note_on_c, 1, 32, 0
3, 16321, Note_on_c, 1, 33, 70
3, 16503, Note_on_c, 1, 45, 95
3, 16507, Note_on_c, 1, 33, 0
3, 16514, Note_on_c, 1, 45, 0
3, 16561, Note_on_c, 1, 45, 103
3, 16677, Note_on_c, 1, 45, 0
3, 16684, Note_on_c, 1, 43, 80
3, 16791, Note_on_c, 1, 43, 0
3, 16800, Note_on_c, 1, 41, 80
3, 16813, Control_c, 1, 1, 3
3, 16813, Control_c, 1, 1, 5
3, 16814, Control_c, 1, 1, 6
3, 16814, Control_c, 1, 1, 8
3, 16815, Control_c, 1, 1, 10
3, 16816, Control_c, 1, 1, 12
3, 16817, Control_c, 1, 1, 14
3, 16817, Control_c, 1, 1, 17
3, 16818, Control_c, 1, 1, 18
3, 16818, Control_c, 1, 1, 21
3, 16819, Control_c, 1, 1, 23
3, 16820, Control_c, 1, 1, 26
3, 16820, Control_c, 1, 1, 29
3, 16821, Control_c, 1, 1, 32
3, 16822, Control_c, 1, 1, 34
3, 16822, Control_c, 1, 1, 37
3, 16823, Control_c, 1, 1, 40
3, 16824, Control_c, 1, 1, 42
3, 16824, Control_c, 1, 1, 45
3, 16825, Control_c, 1, 1, 48
3, 16825, Control_c, 1, 1, 50
3, 16826, Control_c, 1, 1, 53
3, 16827, Control_c, 1, 1, 56
3, 16827, Control_c, 1, 1, 59
3, 16828, Control_c, 1, 1, 61
3, 16829, Control_c, 1, 1, 64
3, 16829, Control_c, 1, 1, 67
3, 16830, Control_c, 1, 1, 69
3, 16831, Control_c, 1, 1, 72
3, 16831, Control_c, 1, 1, 75
3, 16832, Control_c, 1, 1, 77
3, 16832, Control_c, 1, 1, 79
3, 16833, Control_c, 1, 1, 81
3, 16834, Control_c, 1, 1, 84
3, 16834, Control_c, 1, 1, 85
3, 16835, Control_c, 1, 1, 87
3, 16836, Control_c, 1, 1, 90
3, 16836, Control_c, 1, 1, 91
3, 16837, Control_c, 1, 1, 94
3, 16837, Control_c, 1, 1, 96
3, 16838, Control_c, 1, 1, 98
3, 16839, Control_c, 1, 1, 100
3, 16839, Control_c, 1, 1, 101
3, 16840, Control_c, 1, 1, 104
3, 16841, Control_c, 1, 1, 106
3, 16842, Control_c, 1, 1, 108
3, 16842, Control_c, 1, 1, 110
3, 16843, Control_c, 1, 1, 112
3, 16843, Control_c, 1, 1, 114
3, 16844, Control_c, 1, 1, 115
3, 16845, Control_c, 1, 1, 117
3, 16845, Control_c, 1, 1, 119
3, 16846, Control_c, 1, 1, 121
3, 16846, Control_c, 1, 1, 123
3, 16847, Control_c, 1, 1, 124
3, 16848, Control_c, 1, 1, 126
3, 16848, Control_c, 1, 1, 127
3, 16901, Control_c, 1, 1, 123
3, 16901, Control_c, 1, 1, 122
3, 16902, Control_c, 1, 1, 120
3, 16903, Control_c, 1, 1, 118
3, 16903, Control_c, 1, 1, 116
3, 16904, Control_c, 1, 1, 114
3, 16904, Control_c, 1, 1, 111
3, 16905, Control_c, 1, 1, 109
3, 16906, Control_c, 1, 1, 106
3, 16906, Control_c, 1, 1, 103
3, 16907, Control_c, 1, 1, 100
3, 16908, Control_c, 1, 1, 97
3, 16908, Control_c, 1, 1, 94
3, 16909, Control_c, 1, 1, 90
3, 16910, Control_c, 1, 1, 87
3, 16910, Control_c, 1, 1, 83
3, 16911, Control_c, 1, 1, 79
3, 16912, Control_c, 1, 1, 76
3, 16912, Control_c, 1, 1, 72
3, 16913, Control_c, 1, 1, 67
3, 16914, Control_c, 1, 1, 63
3, 16914, Control_c, 1, 1, 59
3, 16915, Control_c, 1, 1, 54
3, 16915, Control_c, 1, 1, 50
3, 16916, Control_c, 1, 1, 46
3, 16917, Control_c, 1, 1, 41
3, 16918, Control_c, 1, 1, 35
3, 16918, Control_c, 1, 1, 31
3, 16919, Control_c, 1, 1, 26
3, 16919, Control_c, 1, 1, 20
3, 16920, Control_c, 1, 1, 14
3, 16921, Control_c, 1, 1, 9
3, 16921, Control_c, 1, 1, 4
3, 16922, Control_c, 1, 1, 1
3, 17081, Note_on_c, 1, 41, 0
3, 17102, Note_on_c, 1, 45, 95
3, 17118, Note_on_c, 1, 45, 0
3, 17161, Note_on_c, 1, 41, 71
3, 17167, Note_on_c, 1, 41, 0
3, 17221, Note_on_c, 1, 34, 72
3, 17242, Note_on_c, 1, 34, 0
3, 17280, Note_on_c, 1, 35, 88
3, 17462, Note_on_c, 1, 47, 51
3, 17477, Note_on_c, 1, 47, 0
3, 17491, Note_on_c, 1, 53, 72
3, 17515, Note_on_c, 1, 53, 0
3, 17516, Note_on_c, 1, 35, 0
3, 17517, Note_on_c, 1, 52, 75
3, 17706, Note_on_c, 1, 47, 55
3, 17708, Note_on_c, 1, 52, 0
3, 17827, Note_on_c, 1, 40, 90
3, 17829, Note_on_c, 1, 47, 0
3, 17938, Note_on_c, 1, 40, 0
3, 17943, Note_on_c, 1, 28, 99
3, 18176, Note_on_c, 1, 28, 0
3, 18179, Note_on_c, 1, 32, 86
3, 18304, Note_on_c, 1, 32, 0
3, 18304, Note_on_c, 1, 33, 105
3, 18425, Note_on_c, 1, 40, 78
3, 18465, Note_on_c, 1, 40, 0
3, 18489, Note_on_c, 1, 47, 88
3, 18500, Note_on_c, 1, 33, 0
3, 18524, Note_on_c, 1, 47, 0
3, 18548, Note_on_c, 1, 47, 83
3, 18599, Note_on_c, 1, 47, 0
3, 18608, Note_on_c, 1, 45, 65
3, 18662, Note_on_c, 1, 45, 0
3, 18668, Note_on_c, 1, 35, 113
3, 18712, Note_on_c, 1, 35, 0
3, 18725, Note_on_c, 1, 35, 96
3, 18889, Note_on_c, 1, 35, 0
3, 18901, Note_on_c, 1, 52, 101
3, 18916, Note_on_c, 1, 52, 0
3, 18963, Note_on_c, 1, 52, 108
3, 18983, Pitch_bend_c, 1, 8192
3, 18983, Pitch_bend_c, 1, 8192
3, 18985, Pitch_bend_c, 1, 8192
3, 18986, Pitch_bend_c, 1, 7680
3, 18987, Pitch_bend_c, 1, 7424
3, 18989, Pitch_bend_c, 1, 7168
3, 18990, Pitch_bend_c, 1, 6912
3, 18991, Pitch_bend_c, 1, 6656
3, 18992, Pitch_bend_c, 1, 6400
3, 18994, Pitch_bend_c, 1, 6016
3, 18995, Pitch_bend_c, 1, 5760
3, 18996, Pitch_bend_c, 1, 5504
3, 18997, Pitch_bend_c, 1, 5120
3, 18998, Pitch_bend_c, 1, 4864
3, 19000, Pitch_bend_c, 1, 4608
3, 19001, Pitch_bend_c, 1, 4352
3, 19002, Pitch_bend_c, 1, 4096
3, 19003, Pitch_bend_c, 1, 3968
3, 19005, Pitch_bend_c, 1, 3712
3, 19007, Pitch_bend_c, 1, 3584
3, 19010, Pitch_bend_c, 1, 3328
3, 19011, Pitch_bend_c, 1, 3200
3, 19012, Pitch_bend_c, 1, 3072
3, 19014, Pitch_bend_c, 1, 2944
3, 19015, Pitch_bend_c, 1, 2816
3, 19017, Pitch_bend_c, 1, 2688
3, 19021, Pitch_bend_c, 1, 2944
3, 19023, Pitch_bend_c, 1, 3200
3, 19024, Pitch_bend_c, 1, 3456
3, 19025, Pitch_bend_c, 1, 3840
3, 19026, Pitch_bend_c, 1, 4352
3, 19027, Pitch_bend_c, 1, 4864
3, 19029, Pitch_bend_c, 1, 5632
3, 19030, Pitch_bend_c, 1, 6272
3, 19031, Pitch_bend_c, 1, 6912
3, 19032, Pitch_bend_c, 1, 7424
3, 19034, Pitch_bend_c, 1, 8192
3, 19034, Pitch_bend_c, 1, 8192
3, 19150, Note_on_c, 1, 52, 0
3, 19206, Note_on_c, 1, 33, 80
3, 19375, Note_on_c, 1, 40, 69
3, 19379, Note_on_c, 1, 33, 0
3, 19562, Note_on_c, 1, 47, 83
3, 19563, Note_on_c, 1, 40, 0
3, 19610, Note_on_c, 1, 47, 0
3, 19621, Note_on_c, 1, 45, 83
3, 19793, Note_on_c, 1, 45, 0
3, 19796, Note_on_c, 1, 35, 78
3, 19888, Note_on_c, 1, 35, 0
3, 19892, Note_on_c, 1, 41, 76
3, 19902, Note_on_c, 1, 41, 0
3, 19916, Note_on_c, 1, 40, 74
3, 19942, Note_on_c, 1, 34, 27
3, 19949, Note_on_c, 1, 34, 0
3, 19981, Note_on_c, 1, 40, 0
3, 19981, Note_on_c, 1, 35, 62
3, 20004, Note_on_c, 1, 35, 0
3, 20013, Note_on_c, 1, 32, 71
3, 20028, Note_on_c, 1, 32, 0
3, 20038, Note_on_c, 1, 32, 67
3, 20090, Note_on_c, 1, 32, 0
3, 20100, Note_on_c, 1, 32, 67
3, 20160, Note_on_c, 1, 33, 71
3, 20163, Note_on_c, 1, 32, 0
3, 20255, Note_on_c, 1, 47, 54
3, 20268, Note_on_c, 1, 33, 0
3, 20274, Note_on_c, 1, 47, 0
3, 20282, Note_on_c, 1, 45, 49
3, 20373, Note_on_c, 1, 39, 54
3, 20381, Note_on_c, 1, 45, 0
3, 20394, Note_on_c, 1, 39, 0
3, 20398, Note_on_c, 1, 40, 58
3, 20522, Note_on_c, 1, 40, 0
3, 20522, Note_on_c, 1, 35, 61
3, 20544, Note_on_c, 1, 35, 0
3, 20556, Note_on_c, 1, 31, 53
3, 20569, Note_on_c, 1, 31, 0
3, 20577, Note_on_c, 1, 32, 52
3, 20589, Note_on_c, 1, 32, 0
3, 20610, Note_on_c, 1, 34, 71
3, 20616, Note_on_c, 1, 34, 0
3, 20641, Note_on_c, 1, 35, 73
3, 20699, Note_on_c, 1, 35, 0
3, 20706, Note_on_c, 1, 35, 79
3, 20769, Note_on_c, 1, 47, 101
3, 20770, Note_on_c, 1, 35, 0
3, 20773, Note_on_c, 1, 48, 47
3, 20778, Note_on_c, 1, 48, 0
3, 20866, Note_on_c, 1, 39, 57
3, 20881, Note_on_c, 1, 47, 0
3, 20889, Note_on_c, 1, 39, 0
3, 20889, Note_on_c, 1, 40, 71
3, 20933, Note_on_c, 1, 39, 57
3, 20945, Note_on_c, 1, 40, 0
3, 20947, Note_on_c, 1, 53, 84
3, 20952, Note_on_c, 1, 39, 0
3, 21002, Note_on_c, 1, 53, 0
3, 21006, Note_on_c, 1, 52, 69
3, 21093, Note_on_c, 1, 52, 0
3, 21093, Note_on_c, 1, 50, 65
3, 21115, Note_on_c, 1, 50, 0
3, 21121, Note_on_c, 1, 48, 56
3, 21176, Note_on_c, 1, 48, 0
3, 21178, Note_on_c, 1, 47, 49
3, 21237, Note_on_c, 1, 47, 0
3, 21244, Note_on_c, 1, 45, 39
3, 21300, Note_on_c, 1, 45, 0
3, 21301, Note_on_c, 1, 40, 66
3, 21358, Note_on_c, 1, 40, 0
3, 21362, Note_on_c, 1, 33, 62
3, 21415, Note_on_c, 1, 33, 0
3, 21423, Note_on_c, 1, 33, 58
3, 21657, Note_on_c, 1, 33, 0
3, 21666, Note_on_c, 1, 38, 96
3, 21696, Note_on_c, 1, 38, 0
3, 21704, Note_on_c, 1, 38, 91
3, 21778, Note_on_c, 1, 38, 0
3, 21787, Note_on_c, 1, 38, 89
3, 21837, Note_on_c, 1, 38, 0
3, 21843, Note_on_c, 1, 31, 79
3, 21897, Note_on_c, 1, 31, 0
3, 21905, Note_on_c, 1, 31, 84
3, 22023, Note_on_c, 1, 36, 68
3, 22024, Note_on_c, 1, 31, 0
3, 22036, Note_on_c, 1, 36, 0
3, 22059, Note_on_c, 1, 36, 80
3, 22074, Note_on_c, 1, 36, 0
3, 22082, Note_on_c, 1, 36, 91
3, 22330, Note_on_c, 1, 43, 59
3, 22335, Note_on_c, 1, 43, 0
3, 22387, Note_on_c, 1, 42, 92
3, 22391, Note_on_c, 1, 36, 0
3, 22498, Note_on_c, 1, 42, 0
3, 22500, Note_on_c, 1, 41, 79
3, 22623, Note_on_c, 1, 36, 85
3, 22629, Note_on_c, 1, 41, 0
3, 22738, Note_on_c, 1, 36, 0
3, 22743, Note_on_c, 1, 33, 80
3, 22860, Note_on_c, 1, 33, 0
3, 22861, Note_on_c, 1, 37, 83
3, 22979, Note_on_c, 1, 38, 101
3, 22985, Note_on_c, 1, 37, 0
3, 23160, Note_on_c, 1, 45, 78
3, 23167, Note_on_c, 1, 45, 0
3, 23221, Note_on_c, 1, 48, 103
3, 23233, Note_on_c, 1, 38, 0
3, 23396, Note_on_c, 1, 38, 44
3, 23402, Note_on_c, 1, 38, 0
3, 23407, Note_on_c, 1, 48, 0
3, 23407, Note_on_c, 1, 45, 71
3, 23440, Note_on_c, 1, 46, 63
3, 23443, Note_on_c, 1, 45, 0
3, 23453, Note_on_c, 1, 46, 0
3, 23465, Note_on_c, 1, 48, 89
3, 23491, Note_on_c, 1, 48, 0
3, 23497, Note_on_c, 1, 46, 51
3, 23515, Note_on_c, 1, 46, 0
3, 23524, Note_on_c, 1, 47, 58
3, 23554, Note_on_c, 1, 47, 0
3, 23554, Note_on_c, 1, 43, 54
3, 23569, Note_on_c, 1, 43, 0
3, 23584, Note_on_c, 1, 38, 66
3, 23642, Note_on_c, 1, 38, 0
3, 23643, Note_on_c, 1, 31, 76
3, 23692, Note_on_c, 1, 31, 0
3, 23701, Note_on_c, 1, 31, 89
3, 23877, Note_on_c, 1, 31, 0
3, 23878, Note_on_c, 1, 34, 68
3, 23907, Note_on_c, 1, 34, 0
3, 23913, Note_on_c, 1, 35, 64
3, 23931, Note_on_c, 1, 35, 0
3, 23938, Note_on_c, 1, 38, 85
3, 23969, Note_on_c, 1, 38, 0
3, 23973, Note_on_c, 1, 35, 54
3, 23999, Note_on_c, 1, 35, 0
3, 24001, Note_on_c, 1, 36, 79
3, 24159, Note_on_c, 1, 43, 26
3, 24170, Note_on_c, 1, 43, 0
3, 24187, Note_on_c, 1, 53, 84
3, 24242, Note_on_c, 1, 53, 0
3, 24246, Note_on_c, 1, 36, 0
3, 24248, Note_on_c, 1, 52, 58
3, 24340, Note_on_c, 1, 38, 32
3, 24347, Note_on_c, 1, 38, 0
3, 24363, Note_on_c, 1, 52, 0
3, 24365, Note_on_c, 1, 43, 54
3, 24417, Note_on_c, 1, 43, 0
3, 24423, Note_on_c, 1, 40, 58
3, 24480, Note_on_c, 1, 40, 0
3, 24481, Note_on_c, 1, 41, 73
3, 24544, Note_on_c, 1, 50, 95
3, 24551, Note_on_c, 1, 41, 0
3, 24647, Note_on_c, 1, 41, 31
3, 24654, Note_on_c, 1, 41, 0
3, 24656, Note_on_c, 1, 50, 0
3, 24664, Note_on_c, 1, 48, 73
3, 24781, Note_on_c, 1, 48, 0
3, 24784, Note_on_c, 1, 45, 74
3, 24908, Note_on_c, 1, 36, 49
3, 24914, Note_on_c, 1, 36, 0
3, 24929, Note_on_c, 1, 45, 0
3, 24962, Note_on_c, 1, 35, 76
3, 25079, Note_on_c, 1, 47, 66
3, 25089, Note_on_c, 1, 47, 0
3, 25140, Note_on_c, 1, 47, 90
3, 25171, Note_on_c, 1, 35, 0
3, 25261, Note_on_c, 1, 47, 0
3, 25261, Note_on_c, 1, 35, 64
3, 25275, Note_on_c, 1, 35, 0
3, 25319, Note_on_c, 1, 35, 60
3, 25386, Note_on_c, 1, 38, 63
3, 25389, Note_on_c, 1, 35, 0
3, 25402, Note_on_c, 1, 38, 0
3, 25414, Note_on_c, 1, 39, 57
3, 25432, Note_on_c, 1, 39, 0
3, 25438, Note_on_c, 1, 40, 55
3, 25485, Note_on_c, 1, 40, 0
3, 25498, Note_on_c, 1, 40, 53
3, 25544, Note_on_c, 1, 40, 0
3, 25559, Note_on_c, 1, 53, 76
3, 25618, Note_on_c, 1, 53, 0
3, 25622, Note_on_c, 1, 52, 66
3, 25801, Note_on_c, 1, 52, 0
3, 25805, Note_on_c, 1, 44, 49
3, 25827, Note_on_c, 1, 44, 0
3, 25837, Note_on_c, 1, 47, 50
3, 25852, Note_on_c, 1, 47, 0
3, 25862, Note_on_c, 1, 50, 74
3, 25896, Note_on_c, 1, 50, 0
3, 25899, Note_on_c, 1, 47, 40
3, 25914, Note_on_c, 1, 47, 0
3, 25924, Note_on_c, 1, 48, 60
3, 25960, Note_on_c, 1, 48, 0
3, 25965, Note_on_c, 1, 47, 60
3, 25980, Note_on_c, 1, 47, 0
3, 25985, Note_on_c, 1, 45, 54
3, 26030, Note_on_c, 1, 45, 0
3, 26043, Note_on_c, 1, 45, 60
3, 26166, Note_on_c, 1, 40, 53
3, 26173, Note_on_c, 1, 40, 0
3, 26174, Note_on_c, 1, 45, 0
3, 26220, Note_on_c, 1, 33, 76
3, 26337, Note_on_c, 1, 33, 0
3, 26343, Note_on_c, 1, 34, 65
3, 26456, Note_on_c, 1, 34, 0
3, 26462, Note_on_c, 1, 35, 85
3, 26582, Note_on_c, 1, 39, 87
3, 26588, Note_on_c, 1, 35, 0
3, 26698, Note_on_c, 1, 39, 0
3, 26700, Note_on_c, 1, 40, 81
3, 26756, Note_on_c, 1, 40, 0
3, 26764, Note_on_c, 1, 35, 77
3, 26814, Note_on_c, 1, 35, 0
3, 26817, Note_on_c, 1, 31, 79
3, 26848, Note_on_c, 1, 31, 0
3, 26857, Note_on_c, 1, 32, 76
3, 26874, Note_on_c, 1, 32, 0
3, 26882, Note_on_c, 1, 33, 79
3, 26933, Note_on_c, 1, 33, 0
3, 26943, Note_on_c, 1, 33, 75
3, 27003, Note_on_c, 1, 47, 92
3, 27080, Note_on_c, 1, 33, 0
3, 27099, Note_on_c, 1, 32, 70
3, 27113, Note_on_c, 1, 32, 0
3, 27116, Note_on_c, 1, 47, 0
3, 27125, Note_on_c, 1, 45, 64
3, 27183, Note_on_c, 1, 45, 0
3, 27183, Note_on_c, 1, 40, 76
3, 27298, Note_on_c, 1, 40, 0
3, 27303, Note_on_c, 1, 36, 66
3, 27354, Note_on_c, 1, 36, 0
3, 27362, Note_on_c, 1, 35, 71
3, 27529, Note_on_c, 1, 35, 0
3, 27539, Note_on_c, 1, 39, 53
3, 27588, Note_on_c, 1, 39, 0
3, 27600, Note_on_c, 1, 40, 62
3, 27606, Note_on_c, 1, 40, 0
3, 27659, Note_on_c, 1, 56, 77
3, 27672, Pitch_bend_c, 1, 8192
3, 27674, Pitch_bend_c, 1, 8192
3, 27676, Pitch_bend_c, 1, 7680
3, 27677, Pitch_bend_c, 1, 7552
3, 27678, Pitch_bend_c, 1, 7424
3, 27679, Pitch_bend_c, 1, 7296
3, 27682, Pitch_bend_c, 1, 7168
3, 27683, Pitch_bend_c, 1, 7040
3, 27686, Pitch_bend_c, 1, 6912
3, 27692, Pitch_bend_c, 1, 6784
3, 27699, Pitch_bend_c, 1, 6656
3, 27701, Pitch_bend_c, 1, 6400
3, 27703, Pitch_bend_c, 1, 6272
3, 27704, Pitch_bend_c, 1, 6144
3, 27705, Pitch_bend_c, 1, 6016
3, 27706, Pitch_bend_c, 1, 5760
3, 27707, Pitch_bend_c, 1, 5632
3, 27708, Pitch_bend_c, 1, 5504
3, 27709, Pitch_bend_c, 1, 5376
3, 27711, Pitch_bend_c, 1, 5120
3, 27712, Pitch_bend_c, 1, 4992
3, 27713, Pitch_bend_c, 1, 4864
3, 27714, Pitch_bend_c, 1, 4736
3, 27717, Pitch_bend_c, 1, 4480
3, 27719, Pitch_bend_c, 1, 4352
3, 27720, Pitch_bend_c, 1, 4224
3, 27722, Pitch_bend_c, 1, 4096
3, 27725, Pitch_bend_c, 1, 3968
3, 27729, Pitch_bend_c, 1, 3840
3, 27732, Pitch_bend_c, 1, 3712
3, 27750, Pitch_bend_c, 1, 3840
3, 27754, Pitch_bend_c, 1, 4096
3, 27758, Pitch_bend_c, 1, 4224
3, 27759, Pitch_bend_c, 1, 4352
3, 27761, Pitch_bend_c, 1, 4608
3, 27762, Pitch_bend_c, 1, 4736
3, 27763, Pitch_bend_c, 1, 4864
3, 27765, Pitch_bend_c, 1, 4992
3, 27766, Pitch_bend_c, 1, 5376
3, 27767, Pitch_bend_c, 1, 5504
3, 27768, Pitch_bend_c, 1, 5760
3, 27769, Pitch_bend_c, 1, 6016
3, 27770, Pitch_bend_c, 1, 6144
3, 27772, Pitch_bend_c, 1, 6400
3, 27773, Pitch_bend_c, 1, 6528
3, 27774, Pitch_bend_c, 1, 6784
3, 27775, Pitch_bend_c, 1, 6912
3, 27776, Pitch_bend_c, 1, 7040
3, 27778, Pitch_bend_c, 1, 7296
3, 27779, Pitch_bend_c, 1, 7424
3, 27780, Pitch_bend_c, 1, 7552
3, 27781, Pitch_bend_c, 1, 7680
3, 27782, Pitch_bend_c, 1, 8192
3, 27783, Pitch_bend_c, 1, 8192
3, 27785, Pitch_bend_c, 1, 8192
3, 27787, Pitch_bend_c, 1, 8192
3, 27903, Note_on_c, 1, 56, 0
3, 27906, Note_on_c, 1, 57, 77
3, 28019, Note_on_c, 1, 57, 0
3, 28020, Note_on_c, 1, 52, 58
3, 28145, Note_on_c, 1, 52, 0
3, 28145, Note_on_c, 1, 55, 71
3, 28261, Note_on_c, 1, 45, 64
3, 28267, Note_on_c, 1, 55, 0
3, 28314, Note_on_c, 1, 45, 0
3, 28318, Note_on_c, 1, 47, 62
3, 28447, Note_on_c, 1, 41, 64
3, 28451, Note_on_c, 1, 47, 0
3, 28534, Note_on_c, 1, 41, 0
3, 28541, Note_on_c, 1, 39, 59
3, 28557, Note_on_c, 1, 39, 0
3, 28564, Note_on_c, 1, 40, 52
3, 28727, Note_on_c, 1, 40, 0
3, 28744, Note_on_c, 1, 27, 86
3, 28781, Note_on_c, 1, 27, 0
3, 28804, Note_on_c, 1, 28, 103
3, 28980, Note_on_c, 1, 28, 0
3, 28984, Note_on_c, 1, 34, 92
3, 29166, Note_on_c, 1, 38, 78
3, 29169, Note_on_c, 1, 34, 0
3, 29192, Note_on_c, 1, 38, 0
3, 29198, Note_on_c, 1, 34, 67
3, 29209, Note_on_c, 1, 34, 0
3, 29224, Note_on_c, 1, 32, 75
3, 29274, Note_on_c, 1, 32, 0
3, 29281, Note_on_c, 1, 33, 73
3, 29339, Note_on_c, 1, 33, 0
3, 29343, Note_on_c, 1, 35, 66
3, 29361, Note_on_c, 1, 35, 0
3, 29375, Note_on_c, 1, 36, 68
3, 29388, Note_on_c, 1, 36, 0
3, 29402, Note_on_c, 1, 37, 77
3, 29534, Note_on_c, 1, 37, 0
3, 29693, Note_on_c, 1, 37, 78
3, 29761, Note_on_c, 1, 38, 82
3, 29763, Note_on_c, 1, 37, 0
3, 29940, Note_on_c, 1, 45, 56
3, 29960, Note_on_c, 1, 45, 0
3, 29977, Note_on_c, 1, 53, 65
3, 29988, Note_on_c, 1, 38, 0
3, 29994, Note_on_c, 1, 53, 0
3, 30003, Note_on_c, 1, 52, 67
3, 30102, Note_on_c, 1, 38, 54
3, 30111, Note_on_c, 1, 38, 0
3, 30116, Note_on_c, 1, 52, 0
3, 30125, Note_on_c, 1, 50, 44
3, 30222, Note_on_c, 1, 45, 66
3, 30225, Note_on_c, 1, 50, 0
3, 30227, Note_on_c, 1, 45, 0
3, 30249, Note_on_c, 1, 41, 31
3, 30278, Note_on_c, 1, 41, 0
3, 30306, Note_on_c, 1, 41, 76
3, 30365, Note_on_c, 1, 41, 0
3, 30369, Note_on_c, 1, 38, 75
3, 30537, Note_on_c, 1, 38, 0
3, 30539, Note_on_c, 1, 33, 83
3, 30629, Note_on_c, 1, 33, 0
3, 30633, Note_on_c, 1, 34, 56
3, 30646, Note_on_c, 1, 34, 0
3, 30662, Note_on_c, 1, 35, 42
3, 30682, Note_on_c, 1, 35, 0
3, 30691, Note_on_c, 1, 36, 54
3, 30706, Note_on_c, 1, 36, 0
3, 30722, Note_on_c, 1, 38, 80
3, 30910, Note_on_c, 1, 50, 96
3, 30918, Note_on_c, 1, 38, 0
3, 30923, Note_on_c, 1, 50, 0
3, 30939, Note_on_c, 1, 50, 87
3, 30968, Note_on_c, 1, 48, 75
3, 30973, Note_on_c, 1, 50, 0
3, 31008, Note_on_c, 1, 48, 0
3, 31030, Note_on_c, 1, 48, 90
3, 31122, Note_on_c, 1, 48, 0
3, 31124, Note_on_c, 1, 45, 54
3, 31136, Note_on_c, 1, 45, 0
3, 31148, Note_on_c, 1, 46, 59
3, 31169, Note_on_c, 1, 46, 0
3, 31180, Note_on_c, 1, 46, 72
3, 31198, Note_on_c, 1, 46, 0
3, 31206, Note_on_c, 1, 47, 82
3, 31252, Note_on_c, 1, 47, 0
3, 31268, Note_on_c, 1, 47, 92
3, 31383, Note_on_c, 1, 39, 73
3, 31393, Note_on_c, 1, 47, 0
3, 31445, Note_on_c, 1, 40, 87
3, 31448, Note_on_c, 1, 39, 0
3, 31500, Note_on_c, 1, 40, 0
3, 31504, Note_on_c, 1, 34, 88
3, 31619, Note_on_c, 1, 34, 0
3, 31627, Note_on_c, 1, 33, 88
3, 31628, Note_on_c, 1, 34, 68
3, 31639, Note_on_c, 1, 34, 0
3, 31749, Note_on_c, 1, 33, 0
3, 31749, Note_on_c, 1, 45, 99
3, 31921, Note_on_c, 1, 45, 0
3, 31925, Note_on_c, 1, 43, 64
3, 31976, Note_on_c, 1, 43, 0
3, 31985, Note_on_c, 1, 43, 85
3, 32159, Note_on_c, 1, 43, 0
3, 32164, Note_on_c, 1, 41, 72
3, 32178, Note_on_c, 1, 41, 0
3, 32199, Note_on_c, 1, 41, 69
3, 32209, Note_on_c, 1, 41, 0
3, 32222, Note_on_c, 1, 41, 79
3, 32385, Note_on_c, 1, 41, 0
3, 32404, Note_on_c, 1, 41, 69
3, 32415, Note_on_c, 1, 41, 0
3, 32441, Note_on_c, 1, 41, 79
3, 32452, Note_on_c, 1, 41, 0
3, 32463, Note_on_c, 1, 41, 80
3, 32578, Note_on_c, 1, 41, 0
3, 32586, Note_on_c, 1, 36, 62
3, 32592, Note_on_c, 1, 36, 0
3, 32617, Note_on_c, 1, 36, 68
3, 32630, Note_on_c, 1, 36, 0
3, 32642, Note_on_c, 1, 35, 78
3, 32692, Note_on_c, 1, 35, 0
3, 32702, Note_on_c, 1, 35, 73
3, 32823, Note_on_c, 1, 40, 66
3, 32833, Note_on_c, 1, 35, 0
3, 32847, Note_on_c, 1, 40, 0
3, 32885, Note_on_c, 1, 40, 76
3, 33005, Note_on_c, 1, 40, 0
3, 33005, Note_on_c, 1, 47, 80
3, 33061, Note_on_c, 1, 47, 0
3, 33065, Note_on_c, 1, 45, 73
3, 33114, Note_on_c, 1, 45, 0
3, 33123, Note_on_c, 1, 44, 65
3, 33128, Control_c, 1, 1, 3
3, 33128, Control_c, 1, 1, 5
3, 33129, Control_c, 1, 1, 6
3, 33130, Control_c, 1, 1, 7
3, 33130, Control_c, 1, 1, 9
3, 33131, Control_c, 1, 1, 10
3, 33131, Control_c, 1, 1, 12
3, 33132, Control_c, 1, 1, 14
3, 33133, Control_c, 1, 1, 16
3, 33133, Control_c, 1, 1, 17
3, 33134, Control_c, 1, 1, 19
3, 33135, Control_c, 1, 1, 20
3, 33135, Control_c, 1, 1, 22
3, 33136, Control_c, 1, 1, 24
3, 33136, Control_c, 1, 1, 26
3, 33137, Control_c, 1, 1, 27
3, 33138, Control_c, 1, 1, 29
3, 33138, Control_c, 1, 1, 30
3, 33139, Control_c, 1, 1, 32
3, 33139, Control_c, 1, 1, 34
3, 33140, Control_c, 1, 1, 35
3, 33141, Control_c, 1, 1, 36
3, 33141, Control_c, 1, 1, 37
3, 33142, Control_c, 1, 1, 39
3, 33142, Control_c, 1, 1, 40
3, 33143, Control_c, 1, 1, 41
3, 33144, Control_c, 1, 1, 42
3, 33144, Control_c, 1, 1, 44
3, 33145, Control_c, 1, 1, 45
3, 33146, Control_c, 1, 1, 46
3, 33146, Control_c, 1, 1, 47
3, 33148, Control_c, 1, 1, 50
3, 33148, Control_c, 1, 1, 51
3, 33149, Control_c, 1, 1, 52
3, 33150, Control_c, 1, 1, 53
3, 33150, Control_c, 1, 1, 54
3, 33151, Control_c, 1, 1, 55
3, 33151, Control_c, 1, 1, 56
3, 33152, Control_c, 1, 1, 58
3, 33153, Control_c, 1, 1, 59
3, 33153, Control_c, 1, 1, 60
3, 33154, Control_c, 1, 1, 61
3, 33156, Control_c, 1, 1, 63
3, 33156, Control_c, 1, 1, 64
3, 33157, Control_c, 1, 1, 65
3, 33157, Control_c, 1, 1, 66
3, 33159, Control_c, 1, 1, 69
3, 33160, Control_c, 1, 1, 70
3, 33162, Control_c, 1, 1, 72
3, 33163, Control_c, 1, 1, 74
3, 33164, Control_c, 1, 1, 75
3, 33166, Control_c, 1, 1, 76
3, 33166, Control_c, 1, 1, 77
3, 33168, Control_c, 1, 1, 79
3, 33170, Control_c, 1, 1, 80
3, 33172, Control_c, 1, 1, 82
3, 33174, Control_c, 1, 1, 84
3, 33176, Control_c, 1, 1, 85
3, 33178, Control_c, 1, 1, 86
3, 33180, Control_c, 1, 1, 88
3, 33182, Control_c, 1, 1, 89
3, 33184, Control_c, 1, 1, 90
3, 33187, Control_c, 1, 1, 91
3, 33194, Control_c, 1, 1, 90
3, 33196, Control_c, 1, 1, 88
3, 33197, Control_c, 1, 1, 87
3, 33198, Control_c, 1, 1, 85
3, 33199, Control_c, 1, 1, 84
3, 33201, Control_c, 1, 1, 82
3, 33201, Control_c, 1, 1, 81
3, 33202, Control_c, 1, 1, 80
3, 33203, Control_c, 1, 1, 79
3, 33204, Control_c, 1, 1, 76
3, 33205, Control_c, 1, 1, 75
3, 33206, Control_c, 1, 1, 74
3, 33206, Control_c, 1, 1, 73
3, 33207, Control_c, 1, 1, 72
3, 33207, Control_c, 1, 1, 71
3, 33208, Control_c, 1, 1, 70
3, 33209, Control_c, 1, 1, 69
3, 33209, Control_c, 1, 1, 68
3, 33210, Control_c, 1, 1, 67
3, 33210, Control_c, 1, 1, 66
3, 33212, Control_c, 1, 1, 63
3, 33213, Control_c, 1, 1, 62
3, 33215, Control_c, 1, 1, 60
3, 33215, Control_c, 1, 1, 59
3, 33216, Control_c, 1, 1, 58
3, 33217, Control_c, 1, 1, 57
3, 33217, Control_c, 1, 1, 56
3, 33218, Control_c, 1, 1, 55
3, 33218, Control_c, 1, 1, 54
3, 33219, Control_c, 1, 1, 53
3, 33219, Control_c, 1, 1, 51
3, 33220, Control_c, 1, 1, 50
3, 33221, Control_c, 1, 1, 49
3, 33221, Control_c, 1, 1, 48
3, 33222, Control_c, 1, 1, 47
3, 33223, Control_c, 1, 1, 46
3, 33223, Control_c, 1, 1, 45
3, 33224, Control_c, 1, 1, 44
3, 33224, Control_c, 1, 1, 42
3, 33225, Control_c, 1, 1, 41
3, 33227, Control_c, 1, 1, 38
3, 33227, Control_c, 1, 1, 37
3, 33228, Control_c, 1, 1, 36
3, 33229, Control_c, 1, 1, 35
3, 33229, Control_c, 1, 1, 34
3, 33230, Control_c, 1, 1, 32
3, 33230, Control_c, 1, 1, 31
3, 33231, Control_c, 1, 1, 29
3, 33232, Control_c, 1, 1, 28
3, 33232, Control_c, 1, 1, 27
3, 33233, Control_c, 1, 1, 25
3, 33233, Control_c, 1, 1, 23
3, 33234, Control_c, 1, 1, 21
3, 33235, Control_c, 1, 1, 20
3, 33235, Control_c, 1, 1, 18
3, 33236, Control_c, 1, 1, 16
3, 33237, Control_c, 1, 1, 14
3, 33237, Control_c, 1, 1, 12
3, 33238, Control_c, 1, 1, 10
3, 33238, Control_c, 1, 1, 8
3, 33239, Control_c, 1, 1, 6
3, 33240, Control_c, 1, 1, 4
3, 33240, Control_c, 1, 1, 2
3, 33241, Control_c, 1, 1, 1
3, 33305, Note_on_c, 1, 41, 61
3, 33307, Note_on_c, 1, 44, 0
3, 33319, Note_on_c, 1, 41, 0
3, 33362, Note_on_c, 1, 40, 66
3, 33511, Note_on_c, 1, 35, 75
3, 33524, Note_on_c, 1, 35, 0
3, 33535, Note_on_c, 1, 40, 0
3, 33538, Note_on_c, 1, 28, 88
3, 33598, Note_on_c, 1, 28, 0
3, 33604, Note_on_c, 1, 33, 90
3, 33607, Note_on_c, 1, 31, 58
3, 33613, Note_on_c, 1, 31, 0
3, 34080, Note_on_c, 1, 33, 0
3, 34087, Note_on_c, 1, 35, 80
3, 34103, Note_on_c, 1, 35, 0
3, 34147, Note_on_c, 1, 35, 89
3, 34346, Note_on_c, 1, 35, 0
3, 34387, Note_on_c, 1, 40, 80
3, 34400, Note_on_c, 1, 40, 0
3, 34445, Note_on_c, 1, 40, 85
3, 34499, Note_on_c, 1, 40, 0
3, 34536, Note_on_c, 1, 40, 61
3, 34544, Note_on_c, 1, 40, 0
3, 34566, Note_on_c, 1, 33, 61
3, 34581, Note_on_c, 1, 33, 0
3, 34623, Note_on_c, 1, 33, 66
3, 34737, Note_on_c, 1, 40, 58
3, 34745, Note_on_c, 1, 33, 0
3, 34748, Note_on_c, 1, 40, 0
3, 34800, Note_on_c, 1, 47, 91
3, 34819, Note_on_c, 1, 47, 0
3, 34857, Note_on_c, 1, 46, 71
3, 34911, Note_on_c, 1, 46, 0
3, 34917, Note_on_c, 1, 45, 68
3, 34976, Note_on_c, 1, 40, 68
3, 34980, Note_on_c, 1, 45, 0
3, 34984, Note_on_c, 1, 40, 0
3, 35039, Note_on_c, 1, 35, 72
3, 35166, Note_on_c, 1, 47, 87
3, 35171, Note_on_c, 1, 35, 0
3, 35273, Note_on_c, 1, 47, 0
3, 35283, Note_on_c, 1, 40, 74
3, 35322, Pitch_bend_c, 1, 8192
3, 35323, Pitch_bend_c, 1, 8192
3, 35324, Pitch_bend_c, 1, 8712
3, 35325, Pitch_bend_c, 1, 9362
3, 35327, Pitch_bend_c, 1, 9882
3, 35328, Pitch_bend_c, 1, 10532
3, 35329, Pitch_bend_c, 1, 11312
3, 35330, Pitch_bend_c, 1, 11832
3, 35332, Pitch_bend_c, 1, 12482
3, 35333, Pitch_bend_c, 1, 13002
3, 35334, Pitch_bend_c, 1, 13652
3, 35336, Pitch_bend_c, 1, 14042
3, 35337, Pitch_bend_c, 1, 14302
3, 35338, Pitch_bend_c, 1, 14562
3, 35343, Pitch_bend_c, 1, 14302
3, 35344, Pitch_bend_c, 1, 13912
3, 35345, Pitch_bend_c, 1, 13392
3, 35346, Pitch_bend_c, 1, 12872
3, 35348, Pitch_bend_c, 1, 12222
3, 35349, Pitch_bend_c, 1, 11572
3, 35350, Pitch_bend_c, 1, 10922
3, 35352, Pitch_bend_c, 1, 10012
3, 35353, Pitch_bend_c, 1, 9232
3, 35354, Pitch_bend_c, 1, 8192
3, 35355, Pitch_bend_c, 1, 8192
3, 35380, Pitch_bend_c, 1, 8192
3, 35382, Pitch_bend_c, 1, 8712
3, 35383, Pitch_bend_c, 1, 9232
3, 35384, Pitch_bend_c, 1, 9882
3, 35385, Pitch_bend_c, 1, 10402
3, 35387, Pitch_bend_c, 1, 10922
3, 35388, Pitch_bend_c, 1, 11572
3, 35389, Pitch_bend_c, 1, 12092
3, 35391, Pitch_bend_c, 1, 12612
3, 35392, Pitch_bend_c, 1, 13002
3, 35393, Pitch_bend_c, 1, 13392
3, 35394, Pitch_bend_c, 1, 13782
3, 35396, Pitch_bend_c, 1, 14172
3, 35397, Pitch_bend_c, 1, 14432
3, 35398, Pitch_bend_c, 1, 14562
3, 35399, Pitch_bend_c, 1, 14822
3, 35401, Pitch_bend_c, 1, 14968
3, 35402, Pitch_bend_c, 1, 15082
3, 35406, Pitch_bend_c, 1, 14822
3, 35407, Pitch_bend_c, 1, 14562
3, 35408, Pitch_bend_c, 1, 14042
3, 35410, Pitch_bend_c, 1, 13392
3, 35411, Pitch_bend_c, 1, 12742
3, 35412, Pitch_bend_c, 1, 11962
3, 35413, Pitch_bend_c, 1, 11312
3, 35415, Pitch_bend_c, 1, 10402
3, 35416, Pitch_bend_c, 1, 9622
3, 35417, Pitch_bend_c, 1, 8712
3, 35418, Pitch_bend_c, 1, 8192
3, 35578, Note_on_c, 1, 40, 0
3, 35582, Note_on_c, 1, 33, 64
3, 35699, Note_on_c, 1, 47, 94
3, 35711, Note_on_c, 1, 33, 0
3, 35755, Note_on_c, 1, 47, 0
3, 35761, Note_on_c, 1, 45, 75
3, 35938, Note_on_c, 1, 41, 96
3, 35939, Note_on_c, 1, 45, 0
3, 36059, Note_on_c, 1, 53, 115
3, 36163, Note_on_c, 1, 53, 0
3, 36176, Note_on_c, 1, 52, 110
3, 36190, Note_on_c, 1, 41, 0
3, 36300, Note_on_c, 1, 40, 90
3, 36303, Note_on_c, 1, 52, 0
3, 36425, Note_on_c, 1, 35, 59
3, 36426, Note_on_c, 1, 40, 0
3, 36438, Note_on_c, 1, 35, 0
3, 36456, Note_on_c, 1, 34, 64
3, 36468, Note_on_c, 1, 34, 0
3, 36485, Note_on_c, 1, 33, 71
3, 36609, Note_on_c, 1, 47, 74
3, 36623, Note_on_c, 1, 47, 0
3, 36635, Note_on_c, 1, 33, 0
3, 36639, Note_on_c, 1, 46, 73
3, 36655, Note_on_c, 1, 46, 0
3, 36667, Note_on_c, 1, 45, 75
3, 36818, Note_on_c, 1, 40, 43
3, 36820, Note_on_c, 1, 45, 0
3, 36829, Note_on_c, 1, 40, 0
3, 36843, Note_on_c, 1, 52, 75
3, 36861, Note_on_c, 1, 52, 0
3, 36875, Note_on_c, 1, 51, 82
3, 36892, Note_on_c, 1, 51, 0
3, 36908, Note_on_c, 1, 50, 60
3, 36909, Note_on_c, 1, 49, 76
3, 36914, Note_on_c, 1, 50, 0
3, 36955, Note_on_c, 1, 49, 0
3, 36964, Note_on_c, 1, 50, 61
3, 37021, Note_on_c, 1, 50, 0
3, 37022, Note_on_c, 1, 45, 72
3, 37035, Note_on_c, 1, 45, 0
3, 37083, Note_on_c, 1, 38, 61
3, 37203, Note_on_c, 1, 38, 0
3, 37208, Note_on_c, 1, 43, 65
3, 37222, Note_on_c, 1, 43, 0
3, 37264, Note_on_c, 1, 31, 77
3, 37366, Note_on_c, 1, 31, 0
3, 37378, Note_on_c, 1, 36, 79
3, 37561, Note_on_c, 1, 43, 49
3, 37568, Note_on_c, 1, 43, 0
3, 37625, Note_on_c, 1, 52, 95
3, 37778, Note_on_c, 1, 36, 0
3, 37866, Note_on_c, 1, 43, 67
3, 37869, Note_on_c, 1, 52, 0
3, 37876, Note_on_c, 1, 43, 0
3, 37898, Note_on_c, 1, 44, 67
3, 37915, Note_on_c, 1, 44, 0
3, 37921, Note_on_c, 1, 45, 75
3, 38047, Note_on_c, 1, 59, 79
3, 38062, Note_on_c, 1, 59, 0
3, 38077, Note_on_c, 1, 60, 73
3, 38092, Note_on_c, 1, 60, 0
3, 38107, Note_on_c, 1, 61, 77
3, 38211, Note_on_c, 1, 45, 0
3, 38222, Note_on_c, 1, 49, 51
3, 38271, Note_on_c, 1, 49, 0
3, 38278, Note_on_c, 1, 52, 75
3, 38286, Note_on_c, 1, 61, 0
3, 38340, Note_on_c, 1, 51, 60
3, 38342, Note_on_c, 1, 52, 0
3, 38361, Note_on_c, 1, 51, 0
3, 38402, Note_on_c, 1, 50, 69
3, 38493, Note_on_c, 1, 45, 48
3, 38496, Note_on_c, 1, 50, 0
3, 38511, Note_on_c, 1, 45, 0
3, 38519, Note_on_c, 1, 38, 55
3, 38617, Note_on_c, 1, 45, 57
3, 38623, Note_on_c, 1, 45, 0
3, 38629, Note_on_c, 1, 38, 0
3, 38636, Note_on_c, 1, 45, 57
3, 38728, Note_on_c, 1, 45, 0
3, 38729, Note_on_c, 1, 38, 53
3, 38735, Note_on_c, 1, 38, 0
3, 38752, Note_on_c, 1, 38, 50
3, 38811, Note_on_c, 1, 32, 62
3, 38814, Note_on_c, 1, 38, 0
3, 38864, Note_on_c, 1, 32, 0
3, 38876, Note_on_c, 1, 31, 62
3, 38974, Note_on_c, 1, 38, 47
3, 38982, Note_on_c, 1, 38, 0
3, 38999, Note_on_c, 1, 31, 0
3, 39003, Note_on_c, 1, 48, 67
3, 39027, Note_on_c, 1, 48, 0
3, 39062, Note_on_c, 1, 48, 64
3, 39062, Note_on_c, 1, 47, 60
3, 39098, Note_on_c, 1, 48, 0
3, 39158, Note_on_c, 1, 38, 46
3, 39164, Note_on_c, 1, 38, 0
3, 39174, Note_on_c, 1, 47, 0
3, 39179, Note_on_c, 1, 45, 65
3, 39209, Note_on_c, 1, 45, 0
3, 39242, Note_on_c, 1, 43, 61
3, 39340, Note_on_c, 1, 38, 73
3, 39352, Note_on_c, 1, 38, 0
3, 39352, Note_on_c, 1, 43, 0
3, 39363, Note_on_c, 1, 36, 72
3, 39407, Note_on_c, 1, 36, 0
3, 39420, Note_on_c, 1, 36, 71
3, 39575, Note_on_c, 1, 43, 57
3, 39584, Note_on_c, 1, 43, 0
3, 39602, Note_on_c, 1, 54, 70
3, 39638, Note_on_c, 1, 55, 78
3, 39642, Note_on_c, 1, 54, 0
3, 39662, Note_on_c, 1, 55, 0
3, 39664, Note_on_c, 1, 54, 53
3, 39722, Note_on_c, 1, 54, 0
3, 39726, Note_on_c, 1, 50, 40
3, 39778, Note_on_c, 1, 36, 0
3, 39784, Note_on_c, 1, 43, 53
3, 39786, Note_on_c, 1, 50, 0
3, 39838, Note_on_c, 1, 43, 0
3, 39842, Note_on_c, 1, 41, 64
3, 40017, Note_on_c, 1, 50, 95
3, 40026, Note_on_c, 1, 41, 0
3, 40107, Note_on_c, 1, 41, 49
3, 40114, Note_on_c, 1, 41, 0
3, 40126, Note_on_c, 1, 50, 0
3, 40138, Note_on_c, 1, 48, 79
3, 40234, Note_on_c, 1, 41, 58
3, 40241, Note_on_c, 1, 41, 0
3, 40253, Note_on_c, 1, 48, 0
3, 40258, Note_on_c, 1, 45, 50
3, 40311, Note_on_c, 1, 45, 0
3, 40318, Note_on_c, 1, 47, 57
3, 40446, Note_on_c, 1, 41, 68
3, 40451, Note_on_c, 1, 47, 0
3, 40566, Note_on_c, 1, 41, 0
3, 40568, Note_on_c, 1, 35, 49
3, 40598, Note_on_c, 1, 35, 0
3, 40624, Note_on_c, 1, 35, 62
3, 40739, Note_on_c, 1, 35, 0
3, 40741, Note_on_c, 1, 41, 71
3, 40788, Note_on_c, 1, 41, 0
3, 40802, Note_on_c, 1, 40, 61
3, 40816, Note_on_c, 1, 40, 0
3, 40864, Note_on_c, 1, 40, 62
3, 40983, Note_on_c, 1, 32, 60
3, 40996, Note_on_c, 1, 32, 0
3, 41028, Note_on_c, 1, 40, 0
3, 41041, Note_on_c, 1, 32, 72
3, 41150, Note_on_c, 1, 32, 0
3, 41162, Note_on_c, 1, 33, 63
3, 41177, Note_on_c, 1, 33, 0
3, 41220, Note_on_c, 1, 33, 78
3, 41326, Note_on_c, 1, 33, 0
3, 41341, Note_on_c, 1, 33, 62
3, 41356, Note_on_c, 1, 33, 0
3, 41400, Note_on_c, 1, 33, 74
3, 41522, Note_on_c, 1, 40, 41
3, 41536, Note_on_c, 1, 40, 0
3, 41582, Note_on_c, 1, 40, 67
3, 41645, Note_on_c, 1, 48, 103
3, 41646, Note_on_c, 1, 40, 0
3, 41663, Note_on_c, 1, 33, 0
3, 41696, Note_on_c, 1, 48, 0
3, 41700, Note_on_c, 1, 40, 65
3, 41756, Note_on_c, 1, 40, 0
3, 41762, Note_on_c, 1, 35, 77
3, 41811, Note_on_c, 1, 35, 0
3, 41821, Note_on_c, 1, 35, 85
3, 41883, Note_on_c, 1, 47, 96
3, 41952, Note_on_c, 1, 35, 0
3, 41971, Note_on_c, 1, 39, 62
3, 41976, Note_on_c, 1, 47, 0
3, 41989, Note_on_c, 1, 39, 0
3, 41998, Note_on_c, 1, 40, 71
3, 42082, Note_on_c, 1, 40, 0
3, 42096, Note_on_c, 1, 40, 57
3, 42121, Note_on_c, 1, 53, 87
3, 42126, Note_on_c, 1, 40, 0
3, 42153, Note_on_c, 1, 53, 0
3, 42155, Note_on_c, 1, 52, 60
3, 42172, Note_on_c, 1, 52, 0
3, 42182, Note_on_c, 1, 50, 60
3, 42244, Note_on_c, 1, 50, 0
3, 42246, Note_on_c, 1, 48, 71
3, 42257, Note_on_c, 1, 48, 0
3, 42303, Note_on_c, 1, 45, 70
3, 42314, Note_on_c, 1, 45, 0
3, 42366, Note_on_c, 1, 45, 80
3, 42456, Note_on_c, 1, 40, 49
3, 42464, Note_on_c, 1, 40, 0
3, 42482, Note_on_c, 1, 33, 57
3, 42521, Note_on_c, 1, 33, 0
3, 42543, Note_on_c, 1, 33, 70
3, 42642, Note_on_c, 1, 33, 0
3, 42660, Note_on_c, 1, 34, 57
3, 42706, Note_on_c, 1, 34, 0
3, 42710, Note_on_c, 1, 45, 0
3, 42715, Note_on_c, 1, 35, 63
3, 42746, Note_on_c, 1, 35, 0
3, 42780, Note_on_c, 1, 35, 66
3, 42836, Note_on_c, 1, 35, 0
3, 42843, Note_on_c, 1, 41, 66
3, 42864, Note_on_c, 1, 41, 0
3, 42881, Note_on_c, 1, 39, 70
3, 42888, Note_on_c, 1, 40, 54
3, 42889, Note_on_c, 1, 39, 0
3, 42894, Note_on_c, 1, 40, 0
3, 42906, Note_on_c, 1, 40, 66
3, 43006, Note_on_c, 1, 39, 43
3, 43026, Note_on_c, 1, 52, 82
3, 43027, Note_on_c, 1, 39, 0
3, 43038, Note_on_c, 1, 52, 0
3, 43083, Note_on_c, 1, 52, 92
3, 43097, Note_on_c, 1, 40, 0
3, 43177, Note_on_c, 1, 40, 50
3, 43185, Note_on_c, 1, 40, 0
3, 43189, Note_on_c, 1, 52, 0
3, 43199, Note_on_c, 1, 50, 56
3, 43224, Note_on_c, 1, 50, 0
3, 43260, Note_on_c, 1, 48, 74
3, 43354, Note_on_c, 1, 43, 44
3, 43361, Note_on_c, 1, 43, 0
3, 43369, Note_on_c, 1, 48, 0
3, 43379, Note_on_c, 1, 47, 44
3, 43412, Note_on_c, 1, 47, 0
3, 43441, Note_on_c, 1, 45, 58
3, 43798, Note_on_c, 1, 40, 68
3, 43810, Note_on_c, 1, 40, 0
3, 43812, Note_on_c, 1, 45, 0
3, 43859, Note_on_c, 1, 40, 77
3, 43978, Note_on_c, 1, 52, 83
3, 43987, Note_on_c, 1, 40, 0
3, 43990, Note_on_c, 1, 52, 0
3, 44037, Note_on_c, 1, 52, 85
3, 44135, Note_on_c, 1, 39, 68
3, 44144, Note_on_c, 1, 52, 0
3, 44155, Note_on_c, 1, 39, 0
3, 44162, Note_on_c, 1, 40, 63
3, 44195, Note_on_c, 1, 40, 0
3, 44220, Note_on_c, 1, 40, 66
3, 44326, Note_on_c, 1, 40, 0
3, 44379, Control_c, 1, 1, 2
3, 44380, Control_c, 1, 1, 3
3, 44380, Control_c, 1, 1, 4
3, 44381, Control_c, 1, 1, 5
3, 44381, Control_c, 1, 1, 6
3, 44382, Control_c, 1, 1, 7
3, 44383, Control_c, 1, 1, 9
3, 44384, Control_c, 1, 1, 10
3, 44384, Note_on_c, 1, 46, 88
3, 44384, Control_c, 1, 1, 12
3, 44385, Control_c, 1, 1, 15
3, 44386, Control_c, 1, 1, 17
3, 44387, Control_c, 1, 1, 19
3, 44387, Control_c, 1, 1, 21
3, 44388, Control_c, 1, 1, 22
3, 44389, Control_c, 1, 1, 25
3, 44389, Control_c, 1, 1, 27
3, 44390, Control_c, 1, 1, 29
3, 44391, Control_c, 1, 1, 32
3, 44391, Control_c, 1, 1, 34
3, 44392, Control_c, 1, 1, 37
3, 44393, Control_c, 1, 1, 39
3, 44393, Control_c, 1, 1, 42
3, 44394, Control_c, 1, 1, 44
3, 44395, Control_c, 1, 1, 47
3, 44395, Control_c, 1, 1, 49
3, 44396, Control_c, 1, 1, 52
3, 44397, Control_c, 1, 1, 54
3, 44397, Control_c, 1, 1, 56
3, 44398, Control_c, 1, 1, 59
3, 44399, Control_c, 1, 1, 62
3, 44399, Control_c, 1, 1, 64
3, 44400, Control_c, 1, 1, 66
3, 44401, Control_c, 1, 1, 68
3, 44401, Control_c, 1, 1, 71
3, 44402, Control_c, 1, 1, 72
3, 44403, Control_c, 1, 1, 75
3, 44403, Control_c, 1, 1, 77
3, 44404, Control_c, 1, 1, 79
3, 44405, Control_c, 1, 1, 80
3, 44405, Control_c, 1, 1, 82
3, 44406, Control_c, 1, 1, 84
3, 44407, Control_c, 1, 1, 86
3, 44407, Control_c, 1, 1, 87
3, 44408, Control_c, 1, 1, 89
3, 44409, Control_c, 1, 1, 90
3, 44409, Control_c, 1, 1, 92
3, 44410, Control_c, 1, 1, 94
3, 44411, Control_c, 1, 1, 95
3, 44411, Control_c, 1, 1, 96
3, 44412, Control_c, 1, 1, 97
3, 44413, Control_c, 1, 1, 98
3, 44413, Control_c, 1, 1, 100
3, 44414, Control_c, 1, 1, 101
3, 44415, Control_c, 1, 1, 102
3, 44415, Control_c, 1, 1, 103
3, 44416, Control_c, 1, 1, 104
3, 44417, Control_c, 1, 1, 105
3, 44419, Control_c, 1, 1, 106
3, 44419, Control_c, 1, 1, 107
3, 44421, Control_c, 1, 1, 109
3, 44423, Control_c, 1, 1, 110
3, 44427, Control_c, 1, 1, 111
3, 44430, Control_c, 1, 1, 112
3, 44442, Control_c, 1, 1, 111
3, 44444, Control_c, 1, 1, 110
3, 44446, Control_c, 1, 1, 109
3, 44448, Control_c, 1, 1, 107
3, 44450, Control_c, 1, 1, 105
3, 44452, Control_c, 1, 1, 102
3, 44454, Control_c, 1, 1, 99
3, 44454, Control_c, 1, 1, 98
3, 44455, Control_c, 1, 1, 97
3, 44456, Control_c, 1, 1, 95
3, 44456, Control_c, 1, 1, 94
3, 44457, Control_c, 1, 1, 92
3, 44458, Control_c, 1, 1, 90
3, 44458, Control_c, 1, 1, 89
3, 44459, Control_c, 1, 1, 87
3, 44460, Control_c, 1, 1, 85
3, 44460, Control_c, 1, 1, 83
3, 44461, Control_c, 1, 1, 80
3, 44462, Control_c, 1, 1, 78
3, 44462, Control_c, 1, 1, 76
3, 44463, Control_c, 1, 1, 74
3, 44464, Control_c, 1, 1, 71
3, 44465, Control_c, 1, 1, 68
3, 44465, Control_c, 1, 1, 66
3, 44466, Control_c, 1, 1, 63
3, 44467, Control_c, 1, 1, 60
3, 44467, Control_c, 1, 1, 57
3, 44468, Control_c, 1, 1, 54
3, 44469, Control_c, 1, 1, 51
3, 44469, Control_c, 1, 1, 48
3, 44470, Control_c, 1, 1, 46
3, 44470, Control_c, 1, 1, 42
3, 44471, Control_c, 1, 1, 39
3, 44472, Control_c, 1, 1, 36
3, 44472, Control_c, 1, 1, 33
3, 44473, Control_c, 1, 1, 30
3, 44474, Control_c, 1, 1, 27
3, 44474, Control_c, 1, 1, 24
3, 44475, Control_c, 1, 1, 21
3, 44476, Control_c, 1, 1, 17
3, 44477, Control_c, 1, 1, 14
3, 44477, Control_c, 1, 1, 11
3, 44478, Control_c, 1, 1, 8
3, 44479, Control_c, 1, 1, 5
3, 44479, Control_c, 1, 1, 2
3, 44480, Control_c, 1, 1, 1
3, 44520, Note_on_c, 1, 45, 74
3, 44528, Note_on_c, 1, 46, 0
3, 44537, Note_on_c, 1, 45, 0
3, 44614, Note_on_c, 1, 43, 68
3, 44630, Note_on_c, 1, 43, 0
3, 44679, Note_on_c, 1, 41, 78
3, 44692, Note_on_c, 1, 41, 0
3, 44733, Note_on_c, 1, 40, 66
3, 44747, Note_on_c, 1, 40, 0
3, 44790, Note_on_c, 1, 37, 78
3, 44806, Note_on_c, 1, 37, 0
3, 44855, Note_on_c, 1, 34, 71
3, 44867, Note_on_c, 1, 34, 0
3, 44881, Note_on_c, 1, 33, 78
3, 44932, Note_on_c, 1, 33, 0
3, 44941, Note_on_c, 1, 33, 80
3, 45057, Note_on_c, 1, 33, 0
3, 45059, Note_on_c, 1, 37, 45
3, 45070, Note_on_c, 1, 37, 0
3, 45093, Note_on_c, 1, 37, 59
3, 45113, Note_on_c, 1, 37, 0
3, 45116, Note_on_c, 1, 38, 57
3, 45160, Note_on_c, 1, 38, 0
3, 45175, Note_on_c, 1, 38, 55
3, 45297, Note_on_c, 1, 40, 53
3, 45299, Note_on_c, 1, 38, 0
3, 45305, Note_on_c, 1, 40, 0
3, 45332, Note_on_c, 1, 40, 66
3, 45349, Note_on_c, 1, 40, 0
3, 45362, Note_on_c, 1, 41, 65
3, 45458, Note_on_c, 1, 39, 42
3, 45472, Note_on_c, 1, 41, 0
3, 45478, Note_on_c, 1, 39, 0
3, 45479, Note_on_c, 1, 45, 59
3, 45493, Note_on_c, 1, 45, 0
3, 45507, Note_on_c, 1, 45, 55
3, 45521, Note_on_c, 1, 45, 0
3, 45537, Note_on_c, 1, 53, 68
3, 45637, Note_on_c, 1, 41, 33
3, 45648, Note_on_c, 1, 41, 0
3, 45651, Note_on_c, 1, 53, 0
3, 45659, Note_on_c, 1, 52, 54
3, 45714, Note_on_c, 1, 52, 0
3, 45724, Note_on_c, 1, 50, 52
3, 45842, Note_on_c, 1, 50, 0
3, 45848, Note_on_c, 1, 45, 60
3, 45962, Note_on_c, 1, 41, 57
3, 45968, Note_on_c, 1, 45, 0
3, 45975, Note_on_c, 1, 41, 0
3, 46021, Note_on_c, 1, 40, 60
3, 46069, Note_on_c, 1, 40, 0
3, 46085, Note_on_c, 1, 38, 71
3, 46498, Note_on_c, 1, 38, 0
3, 46500, Note_on_c, 1, 48, 91
3, 46555, Note_on_c, 1, 48, 0
3, 46559, Note_on_c, 1, 47, 72
3, 46739, Note_on_c, 1, 47, 0
3, 46741, Note_on_c, 1, 41, 70
3, 46793, Note_on_c, 1, 41, 0
3, 46802, Note_on_c, 1, 40, 62
3, 46923, Note_on_c, 1, 40, 0
3, 46925, Note_on_c, 1, 47, 80
3, 46938, Note_on_c, 1, 47, 0
3, 46985, Note_on_c, 1, 46, 73
3, 47003, Note_on_c, 1, 46, 0
3, 47047, Note_on_c, 1, 45, 78
3, 47138, Note_on_c, 1, 40, 54
3, 47146, Note_on_c, 1, 45, 0
3, 47148, Note_on_c, 1, 40, 0
3, 47161, Note_on_c, 1, 33, 65
3, 47208, Note_on_c, 1, 33, 0
3, 47222, Note_on_c, 1, 33, 66
3, 47340, Note_on_c, 1, 33, 0
3, 47344, Note_on_c, 1, 43, 76
3, 47357, Note_on_c, 1, 43, 0
3, 47378, Note_on_c, 1, 38, 64
3, 47392, Note_on_c, 1, 38, 0
3, 47405, Note_on_c, 1, 31, 76
3, 47458, Note_on_c, 1, 31, 0
3, 47468, Note_on_c, 1, 31, 83
3, 47528, Note_on_c, 1, 43, 80
3, 47529, Note_on_c, 1, 31, 0
3, 47546, Note_on_c, 1, 43, 0
3, 47555, Note_on_c, 1, 41, 73
3, 47568, Note_on_c, 1, 41, 0
3, 47584, Note_on_c, 1, 29, 70
3, 47631, Note_on_c, 1, 29, 0
3, 47645, Note_on_c, 1, 29, 70
3, 47817, Note_on_c, 1, 29, 0
3, 47821, Note_on_c, 1, 41, 75
3, 47835, Note_on_c, 1, 41, 0
3, 47884, Note_on_c, 1, 41, 80
3, 47993, Note_on_c, 1, 41, 0
3, 48002, Note_on_c, 1, 35, 64
3, 48025, Note_on_c, 1, 35, 0
3, 48060, Note_on_c, 1, 35, 66
3, 48181, Note_on_c, 1, 47, 71
3, 48189, Note_on_c, 1, 47, 0
3, 48241, Note_on_c, 1, 47, 88
3, 48243, Note_on_c, 1, 35, 0
3, 48340, Note_on_c, 1, 40, 53
3, 48355, Note_on_c, 1, 40, 0
3, 48355, Note_on_c, 1, 47, 0
3, 48367, Note_on_c, 1, 41, 61
3, 48387, Note_on_c, 1, 41, 0
3, 48423, Note_on_c, 1, 41, 72
3, 48477, Note_on_c, 1, 41, 0
3, 48486, Note_on_c, 1, 40, 70
3, 48519, Note_on_c, 1, 40, 0
3, 48542, Note_on_c, 1, 40, 76
3, 48603, Note_on_c, 1, 56, 69
3, 48830, Note_on_c, 1, 56, 0
3, 48832, Note_on_c, 1, 40, 0
3, 48839, Note_on_c, 1, 47, 58
3, 48857, Note_on_c, 1, 47, 0
3, 48868, Note_on_c, 1, 46, 60
3, 48882, Note_on_c, 1, 46, 0
3, 48900, Note_on_c, 1, 44, 61
3, 48953, Note_on_c, 1, 44, 0
3, 48961, Note_on_c, 1, 45, 66
3, 49134, Note_on_c, 1, 45, 0
3, 49139, Note_on_c, 1, 40, 60
3, 49200, Note_on_c, 1, 40, 0
3, 49202, Note_on_c, 1, 33, 53
3, 49236, Note_on_c, 1, 33, 0
3, 49259, Note_on_c, 1, 33, 65
3, 49368, Note_on_c, 1, 33, 0
3, 49379, Note_on_c, 1, 40, 58
3, 49388, Note_on_c, 1, 40, 0
3, 49447, Note_on_c, 1, 45, 77
3, 49447, Note_on_c, 1, 43, 78
3, 49479, Note_on_c, 1, 43, 0
3, 49626, Note_on_c, 1, 40, 67
3, 49629, Note_on_c, 1, 45, 0
3, 49644, Note_on_c, 1, 40, 0
3, 49691, Note_on_c, 1, 33, 76
3, 49712, Note_on_c, 1, 33, 0
3, 49751, Note_on_c, 1, 33, 80
3, 49877, Note_on_c, 1, 40, 51
3, 49887, Note_on_c, 1, 40, 0
3, 49895, Note_on_c, 1, 33, 0
3, 49934, Note_on_c, 1, 38, 92
3, 50104, Note_on_c, 1, 38, 0
3, 50109, Note_on_c, 1, 38, 66
3, 50168, Note_on_c, 1, 38, 0
3, 50179, Note_on_c, 1, 45, 88
3, 50404, Note_on_c, 1, 45, 0
3, 50412, Note_on_c, 1, 38, 82
3, 50591, Note_on_c, 1, 38, 0
3, 50593, Note_on_c, 1, 33, 84
3, 50716, Note_on_c, 1, 40, 82
3, 50725, Note_on_c, 1, 33, 0
3, 50817, Note_on_c, 1, 40, 0
3, 50825, Note_on_c, 1, 37, 69
3, 50876, Note_on_c, 1, 37, 0
3, 50885, Note_on_c, 1, 38, 76
3, 51063, Note_on_c, 1, 38, 0
3, 51068, Note_on_c, 1, 40, 96
3, 51357, Note_on_c, 1, 40, 0
3, 51363, Note_on_c, 1, 33, 94
3, 51365, Note_on_c, 1, 40, 32
3, 51373, Note_on_c, 1, 40, 0
3, 51650, Note_on_c, 1, 33, 0
3, 51657, Note_on_c, 1, 31, 69
3, 51673, Note_on_c, 1, 31, 0
3, 51719, Note_on_c, 1, 30, 67
3, 51740, Note_on_c, 1, 30, 0
3, 51778, Note_on_c, 1, 29, 74
3, 52139, Note_on_c, 1, 29, 0
3, 52141, Note_on_c, 1, 36, 92
3, 52169, Note_on_c, 1, 36, 0
3, 52200, Note_on_c, 1, 29, 59
3, 52211, Note_on_c, 1, 29, 0
3, 52260, Note_on_c, 1, 35, 99
3, 52414, Note_on_c, 1, 35, 0
3, 52419, Note_on_c, 1, 29, 80
3, 52693, Note_on_c, 1, 29, 0
3, 52742, Note_on_c, 1, 30, 87
3, 52790, Note_on_c, 1, 30, 0
3, 52806, Note_on_c, 1, 28, 64
3, 52855, Note_on_c, 1, 28, 0
3, 52868, Note_on_c, 1, 28, 80
3, 52896, Note_on_c, 1, 28, 0
3, 52988, Note_on_c, 1, 35, 94
3, 53025, Note_on_c, 1, 35, 0
3, 53103, Note_on_c, 1, 42, 88
3, 53219, Note_on_c, 1, 42, 0
3, 53227, Note_on_c, 1, 43, 71
3, 53252, Note_on_c, 1, 43, 0
3, 53290, Note_on_c, 1, 45, 94
3, 53462, Note_on_c, 1, 40, 53
3, 53472, Note_on_c, 1, 40, 0
3, 53528, Note_on_c, 1, 33, 66
3, 53538, Note_on_c, 1, 33, 0
3, 53587, Note_on_c, 1, 33, 83
3, 53681, Note_on_c, 1, 33, 0
3, 53681, Note_on_c, 1, 45, 0
3, 53703, Note_on_c, 1, 29, 80
3, 53948, Note_on_c, 1, 41, 79
3, 53954, Note_on_c, 1, 29, 0
3, 53970, Note_on_c, 1, 41, 0
3, 54065, Note_on_c, 1, 41, 94
3, 54068, Note_on_c, 1, 43, 49
3, 54076, Note_on_c, 1, 43, 0
3, 54175, Note_on_c, 1, 41, 0
3, 54196, Note_on_c, 1, 46, 28
3, 54203, Note_on_c, 1, 46, 0
3, 54220, Note_on_c, 1, 46, 55
3, 54242, Note_on_c, 1, 46, 0
3, 54251, Note_on_c, 1, 47, 77
3, 54313, Note_on_c, 1, 47, 0
3, 54318, Note_on_c, 1, 41, 68
3, 54430, Note_on_c, 1, 41, 0
3, 54434, Note_on_c, 1, 38, 78
3, 54548, Note_on_c, 1, 38, 0
3, 54551, Note_on_c, 1, 39, 85
3, 54663, Note_on_c, 1, 39, 0
3, 54669, Note_on_c, 1, 40, 90
3, 54790, Note_on_c, 1, 35, 74
3, 54796, Note_on_c, 1, 40, 0
3, 54816, Note_on_c, 1, 35, 0
3, 54844, Note_on_c, 1, 28, 88
3, 54963, Note_on_c, 1, 28, 0
3, 54969, Note_on_c, 1, 31, 77
3, 54991, Note_on_c, 1, 31, 0
3, 55024, Note_on_c, 1, 31, 69
3, 55076, Note_on_c, 1, 31, 0
3, 55084, Note_on_c, 1, 32, 76
3, 55139, Note_on_c, 1, 32, 0
3, 55149, Note_on_c, 1, 33, 75
3, 55266, Note_on_c, 1, 47, 74
3, 55321, Note_on_c, 1, 47, 0
3, 55327, Note_on_c, 1, 45, 82
3, 55414, Note_on_c, 1, 33, 0
3, 55503, Note_on_c, 1, 33, 71
3, 55522, Note_on_c, 1, 33, 0
3, 55566, Note_on_c, 1, 31, 82
3, 55580, Note_on_c, 1, 31, 0
3, 55628, Note_on_c, 1, 31, 83
3, 55628, Note_on_c, 1, 29, 79
3, 55640, Note_on_c, 1, 31, 0
3, 55731, Note_on_c, 1, 29, 0
3, 55740, Note_on_c, 1, 29, 76
3, 55747, Note_on_c, 1, 45, 0
3, 55865, Note_on_c, 1, 45, 99
3, 55977, Note_on_c, 1, 45, 0
3, 55985, Note_on_c, 1, 44, 52
3, 56041, Note_on_c, 1, 44, 0
3, 56050, Note_on_c, 1, 45, 80
3, 56068, Note_on_c, 1, 29, 0
3, 56106, Note_on_c, 1, 29, 59
3, 56112, Note_on_c, 1, 45, 0
3, 56123, Note_on_c, 1, 29, 0
3, 56163, Note_on_c, 1, 35, 90
3, 56220, Note_on_c, 1, 35, 0
3, 56232, Note_on_c, 1, 35, 87
3, 56345, Note_on_c, 1, 47, 113
3, 56361, Note_on_c, 1, 35, 0
3, 56462, Note_on_c, 1, 47, 0
3, 56464, Note_on_c, 1, 29, 94
3, 56548, Note_on_c, 1, 29, 0
3, 56583, Note_on_c, 1, 28, 101
3, 56682, Note_on_c, 1, 28, 0
3, 56701, Note_on_c, 1, 28, 83
3, 56754, Note_on_c, 1, 28, 0
3, 56765, Note_on_c, 1, 35, 95
3, 56943, Note_on_c, 1, 32, 76
3, 56951, Note_on_c, 1, 35, 0
3, 56996, Note_on_c, 1, 32, 0
3, 57001, Note_on_c, 1, 34, 62
3, 57051, Note_on_c, 1, 34, 0
3, 57060, Note_on_c, 1, 32, 69
3, 57112, Note_on_c, 1, 32, 0
3, 57121, Note_on_c, 1, 33, 80
3, 57426, Note_on_c, 1, 34, 71
3, 57443, Note_on_c, 1, 33, 0
3, 57472, Note_on_c, 1, 34, 0
3, 57485, Note_on_c, 1, 35, 69
3, 57507, Note_on_c, 1, 35, 0
3, 57552, Note_on_c, 1, 36, 95
3, 57788, Note_on_c, 1, 48, 101
3, 57867, Note_on_c, 1, 36, 0
3, 57904, Note_on_c, 1, 36, 68
3, 57916, Note_on_c, 1, 36, 0
3, 57972, Note_on_c, 1, 36, 78
3, 57988, Note_on_c, 1, 36, 0
3, 58029, Note_on_c, 1, 36, 88
3, 58069, Note_on_c, 1, 36, 0
3, 58078, Note_on_c, 1, 48, 0
3, 58084, Note_on_c, 1, 35, 91
3, 58267, Note_on_c, 1, 47, 99
3, 58285, Note_on_c, 1, 35, 0
3, 58382, Note_on_c, 1, 35, 62
3, 58399, Note_on_c, 1, 35, 0
3, 58447, Note_on_c, 1, 29, 57
3, 58463, Note_on_c, 1, 29, 0
3, 58502, Note_on_c, 1, 29, 74
3, 58544, Note_on_c, 1, 29, 0
3, 58560, Note_on_c, 1, 28, 82
3, 58566, Note_on_c, 1, 47, 0
3, 58633, Note_on_c, 1, 28, 0
3, 58634, Note_on_c, 1, 34, 82
3, 58770, Note_on_c, 1, 46, 94
3, 58816, Note_on_c, 1, 34, 0
3, 58861, Note_on_c, 1, 31, 74
3, 58878, Note_on_c, 1, 46, 0
3, 58941, Note_on_c, 1, 31, 0
3, 58951, Note_on_c, 1, 32, 77
3, 59027, Note_on_c, 1, 32, 0
3, 59037, Note_on_c, 1, 33, 88
3, 59534, Note_on_c, 1, 45, 40
3, 59550, Note_on_c, 1, 45, 0
3, 59588, Note_on_c, 1, 45, 65
3, 59777, Note_on_c, 1, 33, 0
3, 59821, Note_on_c, 1, 33, 45
3, 59837, Note_on_c, 1, 33, 0
3, 59885, Note_on_c, 1, 33, 46
3, 59916, Note_on_c, 1, 33, 0
3, 59944, Note_on_c, 1, 33, 67
3, 59976, Note_on_c, 1, 45, 0
3, 60461, Note_on_c, 1, 33, 0
3, 60476, Note_on_c, 1, 33, 58
3, 60923, Note_on_c, 1, 33, 0
3, 60960, Note_on_c, 1, 33, 35
3, 61022, Note_on_c, 1, 33, 0
3, 61022, End_track
4, 0, Start_track
4, 0, Title_t, ""
4, 0, Program_c, 9, 32
4, 0, Note_on_c, 9, 59, 82
4, 0, Note_on_c, 9, 57, 76
4, 4, Note_on_c, 9, 57, 30
4, 8, Note_on_c, 9, 57, 0
4, 15, Note_on_c, 9, 59, 0
4, 23, Note_on_c, 9, 57, 0
4, 60, Note_on_c, 9, 59, 75
4, 70, Note_on_c, 9, 59, 0
4, 120, Note_on_c, 9, 59, 71
4, 127, Note_on_c, 9, 59, 0
4, 180, Note_on_c, 9, 59, 42
4, 190, Note_on_c, 9, 59, 0
4, 240, Note_on_c, 9, 59, 72
4, 249, Note_on_c, 9, 59, 0
4, 300, Note_on_c, 9, 59, 73
4, 311, Note_on_c, 9, 59, 0
4, 420, Note_on_c, 9, 59, 61
4, 437, Note_on_c, 9, 59, 0
4, 480, Note_on_c, 9, 59, 70
4, 500, Note_on_c, 9, 59, 0
4, 536, Note_on_c, 9, 44, 39
4, 540, Note_on_c, 9, 59, 68
4, 556, Note_on_c, 9, 44, 0
4, 598, Note_on_c, 9, 59, 0
4, 650, Note_on_c, 9, 44, 37
4, 660, Note_on_c, 9, 59, 67
4, 675, Note_on_c, 9, 44, 0
4, 690, Note_on_c, 9, 59, 0
4, 720, Note_on_c, 9, 59, 65
4, 728, Note_on_c, 9, 59, 0
4, 780, Note_on_c, 9, 59, 100
4, 787, Note_on_c, 9, 59, 0
4, 840, Note_on_c, 9, 59, 127
4, 873, Note_on_c, 9, 59, 0
4, 960, Note_on_c, 9, 59, 45
4, 968, Note_on_c, 9, 59, 0
4, 1020, Note_on_c, 9, 59, 72
4, 1031, Note_on_c, 9, 59, 0
4, 1080, Note_on_c, 9, 59, 76
4, 1128, Note_on_c, 9, 59, 0
4, 1200, Note_on_c, 9, 59, 68
4, 1217, Note_on_c, 9, 59, 0
4, 1260, Note_on_c, 9, 59, 63
4, 1278, Note_on_c, 9, 59, 0
4, 1320, Note_on_c, 9, 59, 65
4, 1321, Note_on_c, 9, 37, 51
4, 1338, Note_on_c, 9, 37, 0
4, 1341, Note_on_c, 9, 59, 0
4, 1380, Note_on_c, 9, 59, 83
4, 1398, Note_on_c, 9, 59, 0
4, 1440, Note_on_c, 9, 59, 92
4, 1461, Note_on_c, 9, 59, 0
4, 1500, Note_on_c, 9, 59, 45
4, 1517, Note_on_c, 9, 59, 0
4, 1560, Note_on_c, 9, 59, 61
4, 1590, Note_on_c, 9, 59, 0
4, 1620, Note_on_c, 9, 59, 52
4, 1621, Note_on_c, 9, 44, 62
4, 1635, Note_on_c, 9, 59, 0
4, 1642, Note_on_c, 9, 44, 0
4, 1680, Note_on_c, 9, 59, 85
4, 1687, Note_on_c, 9, 59, 0
4, 1734, Note_on_c, 9, 44, 53
4, 1760, Note_on_c, 9, 44, 0
4, 1770, Note_on_c, 9, 45, 18
4, 1776, Note_on_c, 9, 45, 0
4, 1859, Note_on_c, 9, 37, 60
4, 1860, Note_on_c, 9, 59, 67
4, 1874, Note_on_c, 9, 37, 0
4, 1878, Note_on_c, 9, 59, 0
4, 1920, Note_on_c, 9, 59, 82
4, 1930, Note_on_c, 9, 59, 71
4, 1935, Note_on_c, 9, 59, 0
4, 1937, Note_on_c, 9, 59, 0
4, 1980, Note_on_c, 9, 59, 75
4, 1990, Note_on_c, 9, 59, 0
4, 2040, Note_on_c, 9, 59, 71
4, 2047, Note_on_c, 9, 59, 0
4, 2100, Note_on_c, 9, 59, 42
4, 2104, Note_on_c, 9, 59, 61
4, 2110, Note_on_c, 9, 59, 0
4, 2111, Note_on_c, 9, 59, 0
4, 2133, Note_on_c, 9, 59, 74
4, 2145, Note_on_c, 9, 59, 0
4, 2157, Note_on_c, 9, 59, 66
4, 2160, Note_on_c, 9, 59, 72
4, 2169, Note_on_c, 9, 59, 0
4, 2169, Note_on_c, 9, 59, 64
4, 2173, Note_on_c, 9, 59, 0
4, 2176, Note_on_c, 9, 59, 0
4, 2219, Note_on_c, 9, 44, 43
4, 2220, Note_on_c, 9, 38, 40
4, 2220, Note_on_c, 9, 59, 73
4, 2228, Note_on_c, 9, 38, 0
4, 2231, Note_on_c, 9, 59, 0
4, 2249, Note_on_c, 9, 44, 0
4, 2263, Note_on_c, 9, 59, 64
4, 2270, Note_on_c, 9, 59, 0
4, 2290, Note_on_c, 9, 59, 67
4, 2305, Note_on_c, 9, 59, 0
4, 2340, Note_on_c, 9, 59, 61
4, 2345, Note_on_c, 9, 59, 79
4, 2357, Note_on_c, 9, 59, 0
4, 2361, Note_on_c, 9, 59, 0
4, 2400, Note_on_c, 9, 59, 70
4, 2403, Note_on_c, 9, 59, 68
4, 2410, Note_on_c, 9, 59, 0
4, 2420, Note_on_c, 9, 59, 0
4, 2460, Note_on_c, 9, 59, 68
4, 2518, Note_on_c, 9, 59, 0
4, 2520, Note_on_c, 9, 38, 55
4, 2525, Note_on_c, 9, 38, 0
4, 2530, Note_on_c, 9, 38, 46
4, 2535, Note_on_c, 9, 38, 0
4, 2542, Note_on_c, 9, 38, 30
4, 2550, Note_on_c, 9, 38, 0
4, 2550, Note_on_c, 9, 38, 24
4, 2555, Note_on_c, 9, 38, 0
4, 2560, Note_on_c, 9, 38, 19
4, 2565, Note_on_c, 9, 38, 0
4, 2570, Note_on_c, 9, 38, 15
4, 2574, Note_on_c, 9, 38, 0
4, 2578, Note_on_c, 9, 59, 68
4, 2580, Note_on_c, 9, 38, 13
4, 2580, Note_on_c, 9, 59, 67
4, 2584, Note_on_c, 9, 38, 0
4, 2585, Note_on_c, 9, 59, 0
4, 2590, Note_on_c, 9, 38, 11
4, 2597, Note_on_c, 9, 38, 0
4, 2610, Note_on_c, 9, 59, 0
4, 2639, Note_on_c, 9, 59, 77
4, 2640, Note_on_c, 9, 59, 65
4, 2647, Note_on_c, 9, 59, 0
4, 2648, Note_on_c, 9, 59, 0
4, 2700, Note_on_c, 9, 38, 58
4, 2700, Note_on_c, 9, 59, 100
4, 2703, Note_on_c, 9, 59, 66
4, 2704, Note_on_c, 9, 59, 45
4, 2707, Note_on_c, 9, 59, 0
4, 2713, Note_on_c, 9, 59, 0
4, 2713, Note_on_c, 9, 59, 0
4, 2715, Note_on_c, 9, 38, 0
4, 2760, Note_on_c, 9, 38, 39
4, 2760, Note_on_c, 9, 59, 127
4, 2765, Note_on_c, 9, 59, 74
4, 2789, Note_on_c, 9, 38, 0
4, 2793, Note_on_c, 9, 59, 0
4, 2793, Note_on_c, 9, 59, 0
4, 2820, Note_on_c, 9, 52, 31
4, 2820, Note_on_c, 9, 36, 39
4, 2829, Note_on_c, 9, 52, 0
4, 2830, Note_on_c, 9, 36, 0
4, 2880, Note_on_c, 9, 59, 45
4, 2888, Note_on_c, 9, 59, 0
4, 2940, Note_on_c, 9, 59, 72
4, 2943, Note_on_c, 9, 59, 66
4, 2950, Note_on_c, 9, 59, 0
4, 2951, Note_on_c, 9, 59, 0
4, 3000, Note_on_c, 9, 59, 76
4, 3005, Note_on_c, 9, 59, 95
4, 3007, Note_on_c, 9, 59, 57
4, 3015, Note_on_c, 9, 59, 0
4, 3022, Note_on_c, 9, 59, 0
4, 3048, Note_on_c, 9, 59, 0
4, 3062, Note_on_c, 9, 59, 80
4, 3077, Note_on_c, 9, 59, 0
4, 3120, Note_on_c, 9, 59, 68
4, 3124, Note_on_c, 9, 59, 66
4, 3131, Note_on_c, 9, 59, 0
4, 3137, Note_on_c, 9, 59, 0
4, 3175, Note_on_c, 9, 40, 42
4, 3180, Note_on_c, 9, 38, 65
4, 3180, Note_on_c, 9, 59, 63
4, 3183, Note_on_c, 9, 40, 0
4, 3185, Note_on_c, 9, 59, 113
4, 3192, Note_on_c, 9, 38, 0
4, 3198, Note_on_c, 9, 59, 0
4, 3202, Note_on_c, 9, 59, 0
4, 3240, Note_on_c, 9, 59, 65
4, 3243, Note_on_c, 9, 59, 76
4, 3252, Note_on_c, 9, 59, 0
4, 3261, Note_on_c, 9, 59, 0
4, 3298, Note_on_c, 9, 40, 40
4, 3300, Note_on_c, 9, 59, 83
4, 3305, Note_on_c, 9, 59, 58
4, 3312, Note_on_c, 9, 59, 0
4, 3318, Note_on_c, 9, 59, 0
4, 3319, Note_on_c, 9, 40, 0
4, 3338, Note_on_c, 9, 40, 46
4, 3340, Note_on_c, 9, 59, 62
4, 3347, Note_on_c, 9, 59, 0
4, 3360, Note_on_c, 9, 59, 92
4, 3361, Note_on_c, 9, 40, 0
4, 3363, Note_on_c, 9, 36, 44
4, 3366, Note_on_c, 9, 59, 60
4, 3374, Note_on_c, 9, 59, 0
4, 3381, Note_on_c, 9, 59, 0
4, 3387, Note_on_c, 9, 36, 0
4, 3420, Note_on_c, 9, 59, 45
4, 3425, Note_on_c, 9, 36, 35
4, 3425, Note_on_c, 9, 36, 32
4, 3426, Note_on_c, 9, 59, 74
4, 3434, Note_on_c, 9, 36, 0
4, 3435, Note_on_c, 9, 59, 0
4, 3437, Note_on_c, 9, 36, 0
4, 3437, Note_on_c, 9, 59, 0
4, 3460, Note_on_c, 9, 59, 80
4, 3475, Note_on_c, 9, 59, 0
4, 3480, Note_on_c, 9, 59, 61
4, 3485, Note_on_c, 9, 59, 80
4, 3499, Note_on_c, 9, 59, 0
4, 3510, Note_on_c, 9, 59, 0
4, 3517, Note_on_c, 9, 36, 28
4, 3526, Note_on_c, 9, 36, 0
4, 3540, Note_on_c, 9, 59, 52
4, 3543, Note_on_c, 9, 59, 58
4, 3555, Note_on_c, 9, 59, 0
4, 3555, Note_on_c, 9, 59, 0
4, 3570, Note_on_c, 9, 38, 32
4, 3577, Note_on_c, 9, 59, 74
4, 3579, Note_on_c, 9, 38, 0
4, 3590, Note_on_c, 9, 59, 0
4, 3600, Note_on_c, 9, 38, 21
4, 3600, Note_on_c, 9, 59, 85
4, 3603, Note_on_c, 9, 59, 83
4, 3607, Note_on_c, 9, 59, 0
4, 3616, Note_on_c, 9, 59, 0
4, 3634, Note_on_c, 9, 38, 0
4, 3660, Note_on_c, 9, 38, 36
4, 3665, Note_on_c, 9, 59, 85
4, 3673, Note_on_c, 9, 38, 0
4, 3688, Note_on_c, 9, 59, 0
4, 3690, Note_on_c, 9, 45, 18
4, 3696, Note_on_c, 9, 45, 0
4, 3702, Note_on_c, 9, 36, 24
4, 3711, Note_on_c, 9, 36, 0
4, 3715, Note_on_c, 9, 40, 38
4, 3719, Note_on_c, 9, 59, 36
4, 3720, Note_on_c, 9, 38, 37
4, 3722, Note_on_c, 9, 40, 0
4, 3728, Note_on_c, 9, 59, 0
4, 3749, Note_on_c, 9, 40, 49
4, 3772, Note_on_c, 9, 40, 0
4, 3775, Note_on_c, 9, 38, 0
4, 3777, Note_on_c, 9, 36, 52
4, 3780, Note_on_c, 9, 59, 67
4, 3788, Note_on_c, 9, 36, 0
4, 3798, Note_on_c, 9, 59, 0
4, 3813, Note_on_c, 9, 59, 82
4, 3815, Note_on_c, 9, 57, 85
4, 3825, Note_on_c, 9, 59, 0
4, 3828, Note_on_c, 9, 57, 0
4, 3834, Note_on_c, 9, 57, 87
4, 3840, Note_on_c, 9, 57, 72
4, 3840, Note_on_c, 9, 59, 80
4, 3841, Note_on_c, 9, 36, 58
4, 3842, Note_on_c, 9, 45, 56
4, 3850, Note_on_c, 9, 45, 0
4, 3850, Note_on_c, 9, 57, 0
4, 3851, Note_on_c, 9, 59, 0
4, 3852, Note_on_c, 9, 57, 0
4, 3854, Note_on_c, 9, 36, 0
4, 3900, Note_on_c, 9, 59, 108
4, 3913, Note_on_c, 9, 59, 0
4, 3958, Note_on_c, 9, 38, 79
4, 3962, Note_on_c, 9, 38, 0
4, 3978, Note_on_c, 9, 38, 64
4, 3982, Note_on_c, 9, 38, 0
4, 3999, Note_on_c, 9, 38, 43
4, 4003, Note_on_c, 9, 38, 0
4, 4020, Note_on_c, 9, 38, 29
4, 4020, Note_on_c, 9, 38, 29
4, 4020, Note_on_c, 9, 59, 117
4, 4031, Note_on_c, 9, 38, 0
4, 4033, Note_on_c, 9, 38, 0
4, 4033, Note_on_c, 9, 38, 25
4, 4038, Note_on_c, 9, 38, 0
4, 4042, Note_on_c, 9, 59, 0
4, 4047, Note_on_c, 9, 38, 16
4, 4052, Note_on_c, 9, 38, 0
4, 4059, Note_on_c, 9, 38, 15
4, 4064, Note_on_c, 9, 38, 0
4, 4071, Note_on_c, 9, 38, 9
4, 4076, Note_on_c, 9, 38, 0
4, 4080, Note_on_c, 9, 36, 6
4, 4080, Note_on_c, 9, 52, 9
4, 4085, Note_on_c, 9, 38, 8
4, 4087, Note_on_c, 9, 52, 0
4, 4090, Note_on_c, 9, 38, 0
4, 4092, Note_on_c, 9, 36, 0
4, 4095, Note_on_c, 9, 38, 7
4, 4100, Note_on_c, 9, 38, 0
4, 4107, Note_on_c, 9, 38, 6
4, 4112, Note_on_c, 9, 38, 0
4, 4121, Note_on_c, 9, 38, 5
4, 4126, Note_on_c, 9, 38, 0
4, 4131, Note_on_c, 9, 38, 5
4, 4136, Note_on_c, 9, 38, 0
4, 4140, Note_on_c, 9, 52, 3
4, 4140, Note_on_c, 9, 36, 2
4, 4140, Note_on_c, 9, 59, 113
4, 4151, Note_on_c, 9, 52, 0
4, 4161, Note_on_c, 9, 36, 0
4, 4170, Note_on_c, 9, 59, 0
4, 4320, Note_on_c, 9, 59, 66
4, 4344, Note_on_c, 9, 59, 0
4, 4380, Note_on_c, 9, 59, 87
4, 4387, Note_on_c, 9, 59, 0
4, 4440, Note_on_c, 9, 59, 93
4, 4448, Note_on_c, 9, 59, 0
4, 4500, Note_on_c, 9, 38, 22
4, 4509, Note_on_c, 9, 38, 0
4, 4620, Note_on_c, 9, 38, 25
4, 4620, Note_on_c, 9, 59, 92
4, 4630, Note_on_c, 9, 38, 0
4, 4632, Note_on_c, 9, 59, 0
4, 4650, Note_on_c, 9, 59, 110
4, 4675, Note_on_c, 9, 59, 0
4, 4680, Note_on_c, 9, 59, 108
4, 4728, Note_on_c, 9, 59, 0
4, 4800, Note_on_c, 9, 59, 80
4, 4820, Note_on_c, 9, 59, 0
4, 4860, Note_on_c, 9, 59, 91
4, 4874, Note_on_c, 9, 59, 0
4, 4920, Note_on_c, 9, 38, 77
4, 4920, Note_on_c, 9, 59, 106
4, 4928, Note_on_c, 9, 38, 0
4, 4940, Note_on_c, 9, 38, 55
4, 4943, Note_on_c, 9, 59, 0
4, 4944, Note_on_c, 9, 38, 0
4, 4960, Note_on_c, 9, 38, 39
4, 4964, Note_on_c, 9, 38, 0
4, 4980, Note_on_c, 9, 38, 27
4, 4980, Note_on_c, 9, 59, 48
4, 4984, Note_on_c, 9, 38, 0
4, 4988, Note_on_c, 9, 59, 0
4, 4990, Note_on_c, 9, 38, 19
4, 4994, Note_on_c, 9, 38, 0
4, 5000, Note_on_c, 9, 38, 15
4, 5004, Note_on_c, 9, 38, 0
4, 5010, Note_on_c, 9, 38, 12
4, 5014, Note_on_c, 9, 38, 0
4, 5020, Note_on_c, 9, 38, 10
4, 5024, Note_on_c, 9, 38, 0
4, 5030, Note_on_c, 9, 38, 4
4, 5035, Note_on_c, 9, 38, 0
4, 5040, Note_on_c, 9, 59, 98
4, 5041, Note_on_c, 9, 38, 4
4, 5046, Note_on_c, 9, 38, 0
4, 5057, Note_on_c, 9, 59, 0
4, 5097, Note_on_c, 9, 38, 59
4, 5100, Note_on_c, 9, 53, 74
4, 5102, Note_on_c, 9, 38, 0
4, 5133, Note_on_c, 9, 53, 0
4, 5220, Note_on_c, 9, 59, 85
4, 5227, Note_on_c, 9, 59, 0
4, 5280, Note_on_c, 9, 59, 111
4, 5300, Note_on_c, 9, 59, 0
4, 5340, Note_on_c, 9, 59, 70
4, 5351, Note_on_c, 9, 59, 0
4, 5370, Note_on_c, 9, 38, 21
4, 5379, Note_on_c, 9, 38, 0
4, 5400, Note_on_c, 9, 59, 88
4, 5438, Note_on_c, 9, 59, 0
4, 5460, Note_on_c, 9, 38, 29
4, 5467, Note_on_c, 9, 38, 0
4, 5520, Note_on_c, 9, 59, 92
4, 5538, Note_on_c, 9, 59, 0
4, 5580, Note_on_c, 9, 38, 35
4, 5580, Note_on_c, 9, 59, 88
4, 5587, Note_on_c, 9, 59, 0
4, 5587, Note_on_c, 9, 38, 0
4, 5640, Note_on_c, 9, 59, 98
4, 5692, Note_on_c, 9, 59, 0
4, 5700, Note_on_c, 9, 38, 28
4, 5710, Note_on_c, 9, 38, 0
4, 5760, Note_on_c, 9, 59, 51
4, 5768, Note_on_c, 9, 59, 0
4, 5820, Note_on_c, 9, 59, 81
4, 5830, Note_on_c, 9, 59, 0
4, 5880, Note_on_c, 9, 59, 100
4, 5883, Note_on_c, 9, 38, 64
4, 5891, Note_on_c, 9, 38, 0
4, 5903, Note_on_c, 9, 38, 48
4, 5907, Note_on_c, 9, 38, 0
4, 5911, Note_on_c, 9, 59, 0
4, 5923, Note_on_c, 9, 38, 30
4, 5927, Note_on_c, 9, 38, 0
4, 5940, Note_on_c, 9, 44, 40
4, 5941, Note_on_c, 9, 38, 20
4, 5945, Note_on_c, 9, 38, 0
4, 5948, Note_on_c, 9, 44, 0
4, 5959, Note_on_c, 9, 38, 19
4, 5963, Note_on_c, 9, 38, 0
4, 5973, Note_on_c, 9, 38, 18
4, 5977, Note_on_c, 9, 38, 0
4, 5983, Note_on_c, 9, 38, 17
4, 5988, Note_on_c, 9, 38, 0
4, 5994, Note_on_c, 9, 38, 16
4, 5999, Note_on_c, 9, 38, 0
4, 6000, Note_on_c, 9, 59, 88
4, 6010, Note_on_c, 9, 59, 0
4, 6060, Note_on_c, 9, 44, 60
4, 6060, Note_on_c, 9, 38, 59
4, 6060, Note_on_c, 9, 59, 106
4, 6065, Note_on_c, 9, 38, 0
4, 6071, Note_on_c, 9, 44, 0
4, 6091, Note_on_c, 9, 59, 0
4, 6120, Note_on_c, 9, 59, 35
4, 6127, Note_on_c, 9, 59, 0
4, 6180, Note_on_c, 9, 44, 53
4, 6190, Note_on_c, 9, 44, 0
4, 6240, Note_on_c, 9, 59, 77
4, 6255, Note_on_c, 9, 59, 0
4, 6300, Note_on_c, 9, 38, 28
4, 6300, Note_on_c, 9, 59, 80
4, 6307, Note_on_c, 9, 59, 0
4, 6309, Note_on_c, 9, 38, 0
4, 6360, Note_on_c, 9, 38, 30
4, 6360, Note_on_c, 9, 59, 88
4, 6396, Note_on_c, 9, 38, 0
4, 6405, Note_on_c, 9, 59, 0
4, 6480, Note_on_c, 9, 36, 27
4, 6480, Note_on_c, 9, 59, 68
4, 6487, Note_on_c, 9, 59, 0
4, 6489, Note_on_c, 9, 36, 0
4, 6540, Note_on_c, 9, 59, 118
4, 6558, Note_on_c, 9, 59, 0
4, 6600, Note_on_c, 9, 59, 80
4, 6647, Note_on_c, 9, 59, 0
4, 6780, Note_on_c, 9, 38, 25
4, 6780, Note_on_c, 9, 59, 52
4, 6789, Note_on_c, 9, 59, 0
4, 6791, Note_on_c, 9, 38, 0
4, 6840, Note_on_c, 9, 52, 35
4, 6840, Note_on_c, 9, 36, 41
4, 6840, Note_on_c, 9, 59, 106
4, 6847, Note_on_c, 9, 52, 0
4, 6864, Note_on_c, 9, 36, 0
4, 6872, Note_on_c, 9, 59, 0
4, 6960, Note_on_c, 9, 59, 82
4, 6967, Note_on_c, 9, 59, 0
4, 7020, Note_on_c, 9, 59, 113
4, 7037, Note_on_c, 9, 59, 0
4, 7080, Note_on_c, 9, 41, 46
4, 7080, Note_on_c, 9, 43, 41
4, 7088, Note_on_c, 9, 43, 0
4, 7091, Note_on_c, 9, 41, 0
4, 7110, Note_on_c, 9, 43, 68
4, 7110, Note_on_c, 9, 59, 80
4, 7119, Note_on_c, 9, 59, 0
4, 7125, Note_on_c, 9, 43, 0
4, 7140, Note_on_c, 9, 36, 28
4, 7140, Note_on_c, 9, 59, 95
4, 7155, Note_on_c, 9, 36, 0
4, 7168, Note_on_c, 9, 59, 0
4, 7200, Note_on_c, 9, 36, 33
4, 7200, Note_on_c, 9, 59, 82
4, 7215, Note_on_c, 9, 59, 0
4, 7229, Note_on_c, 9, 36, 0
4, 7260, Note_on_c, 9, 36, 46
4, 7260, Note_on_c, 9, 59, 96
4, 7278, Note_on_c, 9, 59, 0
4, 7283, Note_on_c, 9, 36, 0
4, 7320, Note_on_c, 9, 59, 93
4, 7369, Note_on_c, 9, 59, 0
4, 7440, Note_on_c, 9, 43, 69
4, 7440, Note_on_c, 9, 59, 43
4, 7448, Note_on_c, 9, 43, 0
4, 7450, Note_on_c, 9, 59, 0
4, 7470, Note_on_c, 9, 43, 55
4, 7477, Note_on_c, 9, 43, 0
4, 7500, Note_on_c, 9, 38, 8
4, 7500, Note_on_c, 9, 59, 72
4, 7514, Note_on_c, 9, 38, 0
4, 7527, Note_on_c, 9, 59, 0
4, 7560, Note_on_c, 9, 38, 36
4, 7560, Note_on_c, 9, 59, 82
4, 7577, Note_on_c, 9, 38, 0
4, 7586, Note_on_c, 9, 59, 0
4, 7620, Note_on_c, 9, 38, 37
4, 7641, Note_on_c, 9, 38, 0
4, 7680, Note_on_c, 9, 52, 36
4, 7680, Note_on_c, 9, 36, 51
4, 7680, Note_on_c, 9, 59, 60
4, 7686, Note_on_c, 9, 52, 0
4, 7692, Note_on_c, 9, 59, 0
4, 7694, Note_on_c, 9, 36, 0
4, 7740, Note_on_c, 9, 59, 75
4, 7748, Note_on_c, 9, 59, 0
4, 7800, Note_on_c, 9, 38, 81
4, 7800, Note_on_c, 9, 59, 113
4, 7808, Note_on_c, 9, 38, 0
4, 7820, Note_on_c, 9, 59, 0
4, 7820, Note_on_c, 9, 38, 57
4, 7824, Note_on_c, 9, 38, 0
4, 7840, Note_on_c, 9, 38, 41
4, 7844, Note_on_c, 9, 38, 0
4, 7850, Note_on_c, 9, 38, 38
4, 7855, Note_on_c, 9, 38, 0
4, 7860, Note_on_c, 9, 38, 34
4, 7864, Note_on_c, 9, 38, 0
4, 7870, Note_on_c, 9, 38, 27
4, 7874, Note_on_c, 9, 38, 0
4, 7880, Note_on_c, 9, 38, 23
4, 7884, Note_on_c, 9, 38, 0
4, 7890, Note_on_c, 9, 38, 21
4, 7894, Note_on_c, 9, 38, 0
4, 7900, Note_on_c, 9, 38, 19
4, 7904, Note_on_c, 9, 38, 0
4, 7910, Note_on_c, 9, 38, 18
4, 7915, Note_on_c, 9, 38, 0
4, 7920, Note_on_c, 9, 38, 15
4, 7925, Note_on_c, 9, 38, 0
4, 7932, Note_on_c, 9, 38, 15
4, 7937, Note_on_c, 9, 38, 0
4, 7944, Note_on_c, 9, 38, 15
4, 7949, Note_on_c, 9, 38, 0
4, 7954, Note_on_c, 9, 38, 15
4, 7959, Note_on_c, 9, 38, 0
4, 7977, Note_on_c, 9, 44, 38
4, 7977, Note_on_c, 9, 38, 59
4, 7980, Note_on_c, 9, 59, 100
4, 7982, Note_on_c, 9, 38, 0
4, 7985, Note_on_c, 9, 44, 0
4, 8008, Note_on_c, 9, 59, 0
4, 8040, Note_on_c, 9, 59, 62
4, 8048, Note_on_c, 9, 59, 0
4, 8100, Note_on_c, 9, 41, 66
4, 8100, Note_on_c, 9, 59, 97
4, 8107, Note_on_c, 9, 41, 0
4, 8117, Note_on_c, 9, 59, 0
4, 8130, Note_on_c, 9, 41, 63
4, 8138, Note_on_c, 9, 41, 0
4, 8160, Note_on_c, 9, 36, 37
4, 8160, Note_on_c, 9, 59, 80
4, 8180, Note_on_c, 9, 36, 0
4, 8189, Note_on_c, 9, 59, 0
4, 8220, Note_on_c, 9, 36, 51
4, 8250, Note_on_c, 9, 36, 0
4, 8280, Note_on_c, 9, 59, 63
4, 8290, Note_on_c, 9, 59, 0
4, 8340, Note_on_c, 9, 59, 58
4, 8360, Note_on_c, 9, 59, 0
4, 8400, Note_on_c, 9, 38, 27
4, 8400, Note_on_c, 9, 59, 68
4, 8411, Note_on_c, 9, 38, 0
4, 8413, Note_on_c, 9, 59, 0
4, 8460, Note_on_c, 9, 38, 36
4, 8460, Note_on_c, 9, 59, 80
4, 8480, Note_on_c, 9, 38, 0
4, 8486, Note_on_c, 9, 59, 0
4, 8520, Note_on_c, 9, 36, 33
4, 8529, Note_on_c, 9, 36, 0
4, 8580, Note_on_c, 9, 36, 41
4, 8580, Note_on_c, 9, 59, 83
4, 8600, Note_on_c, 9, 59, 0
4, 8603, Note_on_c, 9, 36, 0
4, 8640, Note_on_c, 9, 59, 81
4, 8660, Note_on_c, 9, 59, 0
4, 8700, Note_on_c, 9, 59, 80
4, 8715, Note_on_c, 9, 59, 0
4, 8760, Note_on_c, 9, 52, 24
4, 8760, Note_on_c, 9, 59, 75
4, 8768, Note_on_c, 9, 52, 0
4, 8790, Note_on_c, 9, 52, 26
4, 8797, Note_on_c, 9, 52, 0
4, 8809, Note_on_c, 9, 59, 0
4, 8820, Note_on_c, 9, 38, 27
4, 8841, Note_on_c, 9, 38, 0
4, 8880, Note_on_c, 9, 59, 57
4, 8893, Note_on_c, 9, 59, 0
4, 8940, Note_on_c, 9, 38, 21
4, 8940, Note_on_c, 9, 59, 63
4, 8949, Note_on_c, 9, 38, 0
4, 8953, Note_on_c, 9, 59, 0
4, 9000, Note_on_c, 9, 59, 57
4, 9042, Note_on_c, 9, 59, 0
4, 9060, Note_on_c, 9, 38, 34
4, 9109, Note_on_c, 9, 38, 0
4, 9180, Note_on_c, 9, 36, 16
4, 9180, Note_on_c, 9, 59, 78
4, 9191, Note_on_c, 9, 36, 0
4, 9221, Note_on_c, 9, 59, 0
4, 9240, Note_on_c, 9, 38, 28
4, 9240, Note_on_c, 9, 59, 71
4, 9249, Note_on_c, 9, 38, 0
4, 9254, Note_on_c, 9, 59, 0
4, 9300, Note_on_c, 9, 38, 45
4, 9300, Note_on_c, 9, 59, 83
4, 9323, Note_on_c, 9, 38, 0
4, 9324, Note_on_c, 9, 59, 0
4, 9360, Note_on_c, 9, 38, 37
4, 9360, Note_on_c, 9, 59, 90
4, 9385, Note_on_c, 9, 38, 0
4, 9388, Note_on_c, 9, 59, 0
4, 9420, Note_on_c, 9, 36, 27
4, 9420, Note_on_c, 9, 59, 45
4, 9429, Note_on_c, 9, 59, 0
4, 9429, Note_on_c, 9, 36, 0
4, 9480, Note_on_c, 9, 38, 30
4, 9480, Note_on_c, 9, 59, 81
4, 9492, Note_on_c, 9, 38, 0
4, 9495, Note_on_c, 9, 59, 0
4, 9540, Note_on_c, 9, 38, 34
4, 9540, Note_on_c, 9, 59, 76
4, 9549, Note_on_c, 9, 59, 0
4, 9556, Note_on_c, 9, 38, 0
4, 9600, Note_on_c, 9, 36, 56
4, 9600, Note_on_c, 9, 57, 38
4, 9607, Note_on_c, 9, 57, 0
4, 9614, Note_on_c, 9, 36, 0
4, 9660, Note_on_c, 9, 59, 71
4, 9672, Note_on_c, 9, 59, 0
4, 9720, Note_on_c, 9, 59, 68
4, 9744, Note_on_c, 9, 59, 0
4, 9780, Note_on_c, 9, 38, 26
4, 9780, Note_on_c, 9, 59, 61
4, 9789, Note_on_c, 9, 59, 0
4, 9791, Note_on_c, 9, 38, 0
4, 9840, Note_on_c, 9, 59, 72
4, 9849, Note_on_c, 9, 59, 0
4, 9900, Note_on_c, 9, 38, 26
4, 9934, Note_on_c, 9, 38, 0
4, 9960, Note_on_c, 9, 36, 20
4, 9969, Note_on_c, 9, 36, 0
4, 10020, Note_on_c, 9, 36, 44
4, 10020, Note_on_c, 9, 57, 30
4, 10020, Note_on_c, 9, 59, 96
4, 10027, Note_on_c, 9, 57, 0
4, 10032, Note_on_c, 9, 59, 0
4, 10034, Note_on_c, 9, 36, 0
4, 10080, Note_on_c, 9, 59, 115
4, 10108, Note_on_c, 9, 59, 0
4, 10140, Note_on_c, 9, 59, 63
4, 10154, Note_on_c, 9, 59, 0
4, 10200, Note_on_c, 9, 59, 81
4, 10220, Note_on_c, 9, 59, 0
4, 10320, Note_on_c, 9, 59, 46
4, 10330, Note_on_c, 9, 59, 0
4, 10350, Note_on_c, 9, 38, 24
4, 10359, Note_on_c, 9, 38, 0
4, 10380, Note_on_c, 9, 36, 23
4, 10380, Note_on_c, 9, 59, 77
4, 10394, Note_on_c, 9, 59, 0
4, 10395, Note_on_c, 9, 36, 0
4, 10440, Note_on_c, 9, 36, 35
4, 10440, Note_on_c, 9, 59, 93
4, 10448, Note_on_c, 9, 36, 0
4, 10494, Note_on_c, 9, 59, 0
4, 10500, Note_on_c, 9, 38, 31
4, 10508, Note_on_c, 9, 38, 0
4, 10530, Note_on_c, 9, 38, 33
4, 10538, Note_on_c, 9, 38, 0
4, 10560, Note_on_c, 9, 36, 25
4, 10560, Note_on_c, 9, 59, 58
4, 10571, Note_on_c, 9, 59, 0
4, 10576, Note_on_c, 9, 36, 0
4, 10620, Note_on_c, 9, 36, 28
4, 10620, Note_on_c, 9, 59, 56
4, 10632, Note_on_c, 9, 59, 0
4, 10638, Note_on_c, 9, 36, 0
4, 10680, Note_on_c, 9, 59, 73
4, 10705, Note_on_c, 9, 59, 0
4, 10740, Note_on_c, 9, 59, 66
4, 10748, Note_on_c, 9, 59, 0
4, 10800, Note_on_c, 9, 38, 37
4, 10800, Note_on_c, 9, 59, 71
4, 10809, Note_on_c, 9, 38, 0
4, 10812, Note_on_c, 9, 59, 0
4, 10830, Note_on_c, 9, 38, 31
4, 10838, Note_on_c, 9, 38, 0
4, 10860, Note_on_c, 9, 36, 21
4, 10860, Note_on_c, 9, 59, 71
4, 10869, Note_on_c, 9, 59, 0
4, 10870, Note_on_c, 9, 36, 0
4, 10920, Note_on_c, 9, 38, 34
4, 10920, Note_on_c, 9, 59, 76
4, 10927, Note_on_c, 9, 38, 0
4, 10965, Note_on_c, 9, 59, 0
4, 10980, Note_on_c, 9, 36, 34
4, 10989, Note_on_c, 9, 36, 0
4, 11010, Note_on_c, 9, 38, 34
4, 11017, Note_on_c, 9, 38, 0
4, 11040, Note_on_c, 9, 38, 26
4, 11040, Note_on_c, 9, 59, 57
4, 11051, Note_on_c, 9, 59, 0
4, 11053, Note_on_c, 9, 38, 0
4, 11100, Note_on_c, 9, 36, 27
4, 11100, Note_on_c, 9, 59, 66
4, 11110, Note_on_c, 9, 59, 0
4, 11112, Note_on_c, 9, 36, 0
4, 11160, Note_on_c, 9, 59, 77
4, 11180, Note_on_c, 9, 59, 0
4, 11220, Note_on_c, 9, 38, 32
4, 11220, Note_on_c, 9, 59, 63
4, 11227, Note_on_c, 9, 59, 0
4, 11227, Note_on_c, 9, 38, 0
4, 11280, Note_on_c, 9, 59, 81
4, 11296, Note_on_c, 9, 59, 0
4, 11340, Note_on_c, 9, 38, 32
4, 11340, Note_on_c, 9, 59, 60
4, 11347, Note_on_c, 9, 38, 0
4, 11349, Note_on_c, 9, 59, 0
4, 11400, Note_on_c, 9, 38, 26
4, 11409, Note_on_c, 9, 38, 0
4, 11460, Note_on_c, 9, 57, 28
4, 11460, Note_on_c, 9, 36, 49
4, 11467, Note_on_c, 9, 57, 0
4, 11471, Note_on_c, 9, 36, 0
4, 11520, Note_on_c, 9, 57, 34
4, 11520, Note_on_c, 9, 36, 53
4, 11520, Note_on_c, 9, 59, 83
4, 11527, Note_on_c, 9, 57, 0
4, 11535, Note_on_c, 9, 36, 0
4, 11548, Note_on_c, 9, 59, 0
4, 11580, Note_on_c, 9, 59, 68
4, 11591, Note_on_c, 9, 59, 0
4, 11640, Note_on_c, 9, 59, 82
4, 11648, Note_on_c, 9, 38, 56
4, 11655, Note_on_c, 9, 38, 0
4, 11658, Note_on_c, 9, 38, 49
4, 11662, Note_on_c, 9, 38, 0
4, 11665, Note_on_c, 9, 59, 0
4, 11668, Note_on_c, 9, 38, 42
4, 11678, Note_on_c, 9, 38, 31
4, 11682, Note_on_c, 9, 38, 0
4, 11683, Note_on_c, 9, 38, 0
4, 11688, Note_on_c, 9, 38, 18
4, 11693, Note_on_c, 9, 38, 0
4, 11698, Note_on_c, 9, 38, 13
4, 11700, Note_on_c, 9, 59, 60
4, 11702, Note_on_c, 9, 38, 0
4, 11708, Note_on_c, 9, 38, 12
4, 11709, Note_on_c, 9, 59, 0
4, 11712, Note_on_c, 9, 38, 0
4, 11718, Note_on_c, 9, 38, 10
4, 11722, Note_on_c, 9, 38, 0
4, 11728, Note_on_c, 9, 38, 9
4, 11732, Note_on_c, 9, 38, 0
4, 11738, Note_on_c, 9, 38, 8
4, 11742, Note_on_c, 9, 38, 0
4, 11748, Note_on_c, 9, 38, 8
4, 11753, Note_on_c, 9, 38, 0
4, 11760, Note_on_c, 9, 59, 75
4, 11775, Note_on_c, 9, 59, 0
4, 11790, Note_on_c, 9, 38, 32
4, 11803, Note_on_c, 9, 38, 0
4, 11820, Note_on_c, 9, 59, 67
4, 11839, Note_on_c, 9, 59, 0
4, 11880, Note_on_c, 9, 36, 31
4, 11894, Note_on_c, 9, 36, 0
4, 11940, Note_on_c, 9, 36, 42
4, 11940, Note_on_c, 9, 59, 77
4, 11955, Note_on_c, 9, 59, 0
4, 11955, Note_on_c, 9, 36, 0
4, 12000, Note_on_c, 9, 59, 91
4, 12014, Note_on_c, 9, 59, 0
4, 12060, Note_on_c, 9, 59, 100
4, 12080, Note_on_c, 9, 59, 0
4, 12180, Note_on_c, 9, 59, 71
4, 12195, Note_on_c, 9, 59, 0
4, 12240, Note_on_c, 9, 59, 77
4, 12248, Note_on_c, 9, 59, 0
4, 12300, Note_on_c, 9, 38, 23
4, 12309, Note_on_c, 9, 38, 0
4, 12330, Note_on_c, 9, 38, 28
4, 12337, Note_on_c, 9, 38, 0
4, 12420, Note_on_c, 9, 36, 23
4, 12429, Note_on_c, 9, 36, 0
4, 12480, Note_on_c, 9, 36, 39
4, 12480, Note_on_c, 9, 59, 92
4, 12490, Note_on_c, 9, 36, 0
4, 12493, Note_on_c, 9, 59, 0
4, 12540, Note_on_c, 9, 36, 35
4, 12540, Note_on_c, 9, 59, 108
4, 12553, Note_on_c, 9, 36, 0
4, 12558, Note_on_c, 9, 59, 0
4, 12660, Note_on_c, 9, 59, 85
4, 12667, Note_on_c, 9, 59, 0
4, 12720, Note_on_c, 9, 59, 90
4, 12736, Note_on_c, 9, 59, 0
4, 12780, Note_on_c, 9, 44, 48
4, 12787, Note_on_c, 9, 44, 0
4, 12840, Note_on_c, 9, 59, 85
4, 12847, Note_on_c, 9, 59, 0
4, 12900, Note_on_c, 9, 44, 59
4, 12900, Note_on_c, 9, 59, 103
4, 12910, Note_on_c, 9, 44, 0
4, 12913, Note_on_c, 9, 59, 0
4, 12960, Note_on_c, 9, 59, 112
4, 12979, Note_on_c, 9, 59, 0
4, 13020, Note_on_c, 9, 38, 26
4, 13020, Note_on_c, 9, 59, 67
4, 13027, Note_on_c, 9, 59, 0
4, 13029, Note_on_c, 9, 38, 0
4, 13080, Note_on_c, 9, 38, 42
4, 13098, Note_on_c, 9, 38, 0
4, 13110, Note_on_c, 9, 59, 110
4, 13131, Note_on_c, 9, 59, 0
4, 13140, Note_on_c, 9, 36, 30
4, 13148, Note_on_c, 9, 36, 0
4, 13260, Note_on_c, 9, 38, 35
4, 13260, Note_on_c, 9, 59, 75
4, 13269, Note_on_c, 9, 59, 0
4, 13279, Note_on_c, 9, 38, 0
4, 13320, Note_on_c, 9, 38, 35
4, 13340, Note_on_c, 9, 38, 0
4, 13380, Note_on_c, 9, 36, 32
4, 13380, Note_on_c, 9, 59, 80
4, 13387, Note_on_c, 9, 59, 0
4, 13389, Note_on_c, 9, 36, 0
4, 13410, Note_on_c, 9, 59, 106
4, 13429, Note_on_c, 9, 59, 0
4, 13440, Note_on_c, 9, 38, 29
4, 13454, Note_on_c, 9, 38, 0
4, 13470, Note_on_c, 9, 59, 108
4, 13491, Note_on_c, 9, 59, 0
4, 13500, Note_on_c, 9, 38, 29
4, 13500, Note_on_c, 9, 59, 85
4, 13510, Note_on_c, 9, 38, 0
4, 13515, Note_on_c, 9, 59, 0
4, 13558, Note_on_c, 9, 38, 100
4, 13573, Note_on_c, 9, 38, 0
4, 13577, Note_on_c, 9, 38, 72
4, 13584, Note_on_c, 9, 38, 0
4, 13591, Note_on_c, 9, 38, 43
4, 13606, Note_on_c, 9, 38, 0
4, 13607, Note_on_c, 9, 38, 24
4, 13612, Note_on_c, 9, 38, 0
4, 13617, Note_on_c, 9, 38, 19
4, 13620, Note_on_c, 9, 59, 55
4, 13621, Note_on_c, 9, 38, 0
4, 13627, Note_on_c, 9, 38, 16
4, 13628, Note_on_c, 9, 59, 0
4, 13631, Note_on_c, 9, 38, 0
4, 13637, Note_on_c, 9, 38, 13
4, 13641, Note_on_c, 9, 38, 0
4, 13647, Note_on_c, 9, 38, 11
4, 13651, Note_on_c, 9, 38, 0
4, 13657, Note_on_c, 9, 38, 9
4, 13661, Note_on_c, 9, 38, 0
4, 13667, Note_on_c, 9, 38, 8
4, 13672, Note_on_c, 9, 38, 0
4, 13680, Note_on_c, 9, 59, 55
4, 13687, Note_on_c, 9, 59, 0
4, 13740, Note_on_c, 9, 59, 110
4, 13755, Note_on_c, 9, 59, 0
4, 13800, Note_on_c, 9, 59, 113
4, 13845, Note_on_c, 9, 59, 0
4, 13920, Note_on_c, 9, 45, 29
4, 13920, Note_on_c, 9, 59, 112
4, 13927, Note_on_c, 9, 45, 0
4, 13950, Note_on_c, 9, 45, 46
4, 13957, Note_on_c, 9, 59, 0
4, 13961, Note_on_c, 9, 45, 0
4, 13980, Note_on_c, 9, 38, 49
4, 13980, Note_on_c, 9, 59, 66
4, 13987, Note_on_c, 9, 59, 0
4, 13988, Note_on_c, 9, 38, 0
4, 14040, Note_on_c, 9, 38, 60
4, 14040, Note_on_c, 9, 59, 93
4, 14057, Note_on_c, 9, 38, 0
4, 14067, Note_on_c, 9, 59, 0
4, 14100, Note_on_c, 9, 59, 65
4, 14108, Note_on_c, 9, 59, 0
4, 14160, Note_on_c, 9, 59, 92
4, 14169, Note_on_c, 9, 59, 0
4, 14220, Note_on_c, 9, 59, 87
4, 14229, Note_on_c, 9, 59, 0
4, 14250, Note_on_c, 9, 45, 51
4, 14257, Note_on_c, 9, 45, 0
4, 14280, Note_on_c, 9, 38, 37
4, 14298, Note_on_c, 9, 38, 0
4, 14340, Note_on_c, 9, 36, 43
4, 14340, Note_on_c, 9, 59, 110
4, 14357, Note_on_c, 9, 59, 0
4, 14366, Note_on_c, 9, 36, 0
4, 14400, Note_on_c, 9, 36, 42
4, 14400, Note_on_c, 9, 59, 120
4, 14418, Note_on_c, 9, 36, 0
4, 14444, Note_on_c, 9, 59, 0
4, 14460, Note_on_c, 9, 36, 44
4, 14460, Note_on_c, 9, 59, 33
4, 14467, Note_on_c, 9, 59, 0
4, 14479, Note_on_c, 9, 36, 0
4, 14520, Note_on_c, 9, 59, 100
4, 14553, Note_on_c, 9, 59, 0
4, 14580, Note_on_c, 9, 38, 34
4, 14580, Note_on_c, 9, 59, 43
4, 14588, Note_on_c, 9, 59, 0
4, 14591, Note_on_c, 9, 38, 0
4, 14640, Note_on_c, 9, 36, 44
4, 14640, Note_on_c, 9, 57, 37
4, 14647, Note_on_c, 9, 57, 0
4, 14650, Note_on_c, 9, 36, 0
4, 14700, Note_on_c, 9, 59, 95
4, 14715, Note_on_c, 9, 59, 0
4, 14820, Note_on_c, 9, 38, 29
4, 14820, Note_on_c, 9, 59, 78
4, 14827, Note_on_c, 9, 59, 0
4, 14830, Note_on_c, 9, 38, 0
4, 14880, Note_on_c, 9, 59, 106
4, 14909, Note_on_c, 9, 59, 0
4, 14940, Note_on_c, 9, 38, 34
4, 14940, Note_on_c, 9, 52, 29
4, 14948, Note_on_c, 9, 52, 0
4, 14963, Note_on_c, 9, 38, 0
4, 14998, Note_on_c, 9, 38, 72
4, 15000, Note_on_c, 9, 59, 68
4, 15005, Note_on_c, 9, 38, 0
4, 15018, Note_on_c, 9, 38, 65
4, 15022, Note_on_c, 9, 38, 0
4, 15022, Note_on_c, 9, 59, 0
4, 15038, Note_on_c, 9, 38, 52
4, 15042, Note_on_c, 9, 38, 0
4, 15058, Note_on_c, 9, 38, 29
4, 15062, Note_on_c, 9, 38, 0
4, 15068, Note_on_c, 9, 38, 20
4, 15072, Note_on_c, 9, 38, 0
4, 15078, Note_on_c, 9, 38, 12
4, 15082, Note_on_c, 9, 38, 0
4, 15088, Note_on_c, 9, 38, 9
4, 15090, Note_on_c, 9, 53, 36
4, 15092, Note_on_c, 9, 38, 0
4, 15098, Note_on_c, 9, 38, 7
4, 15102, Note_on_c, 9, 38, 0
4, 15104, Note_on_c, 9, 53, 0
4, 15108, Note_on_c, 9, 38, 7
4, 15113, Note_on_c, 9, 38, 0
4, 15120, Note_on_c, 9, 59, 83
4, 15126, Note_on_c, 9, 59, 0
4, 15180, Note_on_c, 9, 38, 29
4, 15180, Note_on_c, 9, 59, 103
4, 15195, Note_on_c, 9, 38, 0
4, 15201, Note_on_c, 9, 59, 0
4, 15240, Note_on_c, 9, 38, 29
4, 15240, Note_on_c, 9, 59, 95
4, 15247, Note_on_c, 9, 38, 0
4, 15267, Note_on_c, 9, 59, 0
4, 15300, Note_on_c, 9, 37, 73
4, 15318, Note_on_c, 9, 37, 0
4, 15360, Note_on_c, 9, 36, 52
4, 15360, Note_on_c, 9, 52, 41
4, 15360, Note_on_c, 9, 59, 67
4, 15369, Note_on_c, 9, 52, 0
4, 15374, Note_on_c, 9, 36, 0
4, 15383, Note_on_c, 9, 59, 0
4, 15420, Note_on_c, 9, 53, 41
4, 15433, Note_on_c, 9, 53, 0
4, 15480, Note_on_c, 9, 59, 102
4, 15510, Note_on_c, 9, 59, 0
4, 15600, Note_on_c, 9, 53, 49
4, 15611, Note_on_c, 9, 53, 0
4, 15780, Note_on_c, 9, 59, 73
4, 15802, Note_on_c, 9, 59, 0
4, 15840, Note_on_c, 9, 59, 100
4, 15876, Note_on_c, 9, 59, 0
4, 15900, Note_on_c, 9, 53, 48
4, 15917, Note_on_c, 9, 53, 0
4, 15960, Note_on_c, 9, 38, 37
4, 15960, Note_on_c, 9, 59, 106
4, 15967, Note_on_c, 9, 38, 0
4, 15989, Note_on_c, 9, 59, 0
4, 15990, Note_on_c, 9, 38, 36
4, 16009, Note_on_c, 9, 38, 0
4, 16020, Note_on_c, 9, 37, 39
4, 16020, Note_on_c, 9, 53, 28
4, 16027, Note_on_c, 9, 37, 0
4, 16028, Note_on_c, 9, 53, 0
4, 16080, Note_on_c, 9, 52, 41
4, 16080, Note_on_c, 9, 36, 56
4, 16095, Note_on_c, 9, 52, 0
4, 16096, Note_on_c, 9, 36, 0
4, 16140, Note_on_c, 9, 52, 42
4, 16140, Note_on_c, 9, 36, 51
4, 16140, Note_on_c, 9, 59, 110
4, 16160, Note_on_c, 9, 52, 0
4, 16162, Note_on_c, 9, 59, 0
4, 16164, Note_on_c, 9, 36, 0
4, 16230, Note_on_c, 9, 59, 91
4, 16245, Note_on_c, 9, 59, 0
4, 16260, Note_on_c, 9, 59, 91
4, 16275, Note_on_c, 9, 59, 0
4, 16320, Note_on_c, 9, 59, 117
4, 16350, Note_on_c, 9, 59, 0
4, 16500, Note_on_c, 9, 38, 24
4, 16500, Note_on_c, 9, 59, 100
4, 16512, Note_on_c, 9, 38, 0
4, 16515, Note_on_c, 9, 59, 0
4, 16560, Note_on_c, 9, 38, 31
4, 16588, Note_on_c, 9, 38, 0
4, 16680, Note_on_c, 9, 36, 19
4, 16690, Note_on_c, 9, 36, 0
4, 16740, Note_on_c, 9, 36, 39
4, 16740, Note_on_c, 9, 59, 92
4, 16755, Note_on_c, 9, 59, 0
4, 16761, Note_on_c, 9, 36, 0
4, 16800, Note_on_c, 9, 59, 93
4, 16824, Note_on_c, 9, 59, 0
4, 16920, Note_on_c, 9, 59, 93
4, 16930, Note_on_c, 9, 59, 0
4, 16980, Note_on_c, 9, 53, 48
4, 16988, Note_on_c, 9, 53, 0
4, 17190, Note_on_c, 9, 52, 27
4, 17199, Note_on_c, 9, 52, 0
4, 17220, Note_on_c, 9, 52, 30
4, 17227, Note_on_c, 9, 52, 0
4, 17280, Note_on_c, 9, 59, 32
4, 17283, Note_on_c, 9, 38, 87
4, 17286, Note_on_c, 9, 59, 0
4, 17290, Note_on_c, 9, 38, 0
4, 17307, Note_on_c, 9, 38, 50
4, 17322, Note_on_c, 9, 38, 0
4, 17327, Note_on_c, 9, 38, 23
4, 17332, Note_on_c, 9, 38, 0
4, 17337, Note_on_c, 9, 38, 16
4, 17341, Note_on_c, 9, 38, 0
4, 17347, Note_on_c, 9, 38, 10
4, 17351, Note_on_c, 9, 38, 0
4, 17357, Note_on_c, 9, 38, 10
4, 17361, Note_on_c, 9, 38, 0
4, 17367, Note_on_c, 9, 38, 9
4, 17371, Note_on_c, 9, 38, 0
4, 17377, Note_on_c, 9, 38, 8
4, 17381, Note_on_c, 9, 38, 0
4, 17387, Note_on_c, 9, 38, 8
4, 17392, Note_on_c, 9, 38, 0
4, 17400, Note_on_c, 9, 36, 26
4, 17409, Note_on_c, 9, 36, 0
4, 17459, Note_on_c, 9, 59, 77
4, 17472, Note_on_c, 9, 59, 0
4, 17522, Note_on_c, 9, 59, 85
4, 17529, Note_on_c, 9, 59, 0
4, 17643, Note_on_c, 9, 53, 76
4, 17650, Note_on_c, 9, 53, 0
4, 17707, Note_on_c, 9, 53, 96
4, 17725, Note_on_c, 9, 53, 0
4, 17820, Note_on_c, 9, 59, 55
4, 17832, Note_on_c, 9, 59, 0
4, 17882, Note_on_c, 9, 59, 80
4, 17897, Note_on_c, 9, 59, 0
4, 18008, Note_on_c, 9, 53, 59
4, 18018, Note_on_c, 9, 53, 0
4, 18060, Note_on_c, 9, 38, 44
4, 18068, Note_on_c, 9, 53, 78
4, 18081, Note_on_c, 9, 38, 0
4, 18084, Note_on_c, 9, 53, 0
4, 18125, Note_on_c, 9, 53, 91
4, 18145, Note_on_c, 9, 53, 0
4, 18300, Note_on_c, 9, 59, 54
4, 18307, Note_on_c, 9, 59, 0
4, 18360, Note_on_c, 9, 59, 110
4, 18378, Note_on_c, 9, 59, 0
4, 18420, Note_on_c, 9, 59, 38
4, 18425, Note_on_c, 9, 59, 47
4, 18429, Note_on_c, 9, 59, 0
4, 18433, Note_on_c, 9, 59, 0
4, 18480, Note_on_c, 9, 59, 47
4, 18487, Note_on_c, 9, 59, 0
4, 18540, Note_on_c, 9, 59, 94
4, 18551, Note_on_c, 9, 59, 0
4, 18600, Note_on_c, 9, 53, 94
4, 18650, Note_on_c, 9, 53, 0
4, 18660, Note_on_c, 9, 59, 51
4, 18668, Note_on_c, 9, 59, 0
4, 18720, Note_on_c, 9, 59, 48
4, 18727, Note_on_c, 9, 59, 0
4, 18780, Note_on_c, 9, 59, 103
4, 18780, Note_on_c, 9, 53, 101
4, 18796, Note_on_c, 9, 59, 0
4, 18799, Note_on_c, 9, 53, 0
4, 18900, Note_on_c, 9, 59, 58
4, 18900, Note_on_c, 9, 53, 66
4, 18907, Note_on_c, 9, 53, 0
4, 18907, Note_on_c, 9, 59, 0
4, 18960, Note_on_c, 9, 59, 94
4, 18960, Note_on_c, 9, 53, 91
4, 18975, Note_on_c, 9, 59, 0
4, 18980, Note_on_c, 9, 53, 0
4, 19050, Note_on_c, 9, 59, 77
4, 19059, Note_on_c, 9, 59, 0
4, 19080, Note_on_c, 9, 53, 88
4, 19087, Note_on_c, 9, 38, 56
4, 19094, Note_on_c, 9, 38, 0
4, 19094, Note_on_c, 9, 53, 0
4, 19097, Note_on_c, 9, 38, 49
4, 19101, Note_on_c, 9, 38, 0
4, 19107, Note_on_c, 9, 38, 42
4, 19117, Note_on_c, 9, 38, 31
4, 19121, Note_on_c, 9, 38, 0
4, 19122, Note_on_c, 9, 38, 0
4, 19127, Note_on_c, 9, 38, 18
4, 19132, Note_on_c, 9, 38, 0
4, 19137, Note_on_c, 9, 38, 13
4, 19140, Note_on_c, 9, 53, 87
4, 19140, Note_on_c, 9, 59, 83
4, 19141, Note_on_c, 9, 38, 0
4, 19146, Note_on_c, 9, 59, 39
4, 19147, Note_on_c, 9, 38, 12
4, 19151, Note_on_c, 9, 38, 0
4, 19155, Note_on_c, 9, 59, 0
4, 19155, Note_on_c, 9, 59, 0
4, 19157, Note_on_c, 9, 38, 10
4, 19158, Note_on_c, 9, 53, 0
4, 19161, Note_on_c, 9, 38, 0
4, 19167, Note_on_c, 9, 38, 9
4, 19171, Note_on_c, 9, 38, 0
4, 19177, Note_on_c, 9, 38, 8
4, 19181, Note_on_c, 9, 38, 0
4, 19187, Note_on_c, 9, 38, 8
4, 19192, Note_on_c, 9, 38, 0
4, 19200, Note_on_c, 9, 51, 85
4, 19218, Note_on_c, 9, 51, 0
4, 19230, Note_on_c, 9, 51, 57
4, 19243, Note_on_c, 9, 51, 0
4, 19260, Note_on_c, 9, 44, 55
4, 19260, Note_on_c, 9, 51, 56
4, 19273, Note_on_c, 9, 51, 0
4, 19273, Note_on_c, 9, 44, 0
4, 19320, Note_on_c, 9, 51, 84
4, 19332, Note_on_c, 9, 51, 0
4, 19380, Note_on_c, 9, 53, 83
4, 19393, Note_on_c, 9, 53, 0
4, 19500, Note_on_c, 9, 51, 49
4, 19500, Note_on_c, 9, 38, 40
4, 19508, Note_on_c, 9, 38, 0
4, 19513, Note_on_c, 9, 51, 0
4, 19650, Note_on_c, 9, 51, 67
4, 19664, Note_on_c, 9, 51, 0
4, 19680, Note_on_c, 9, 51, 74
4, 19715, Note_on_c, 9, 51, 0
4, 19740, Note_on_c, 9, 51, 71
4, 19770, Note_on_c, 9, 38, 50
4, 19776, Note_on_c, 9, 38, 0
4, 19791, Note_on_c, 9, 51, 0
4, 19800, Note_on_c, 9, 38, 48
4, 19800, Note_on_c, 9, 53, 71
4, 19800, Note_on_c, 9, 38, 55
4, 19805, Note_on_c, 9, 38, 0
4, 19810, Note_on_c, 9, 38, 0
4, 19810, Note_on_c, 9, 38, 46
4, 19815, Note_on_c, 9, 38, 0
4, 19822, Note_on_c, 9, 38, 30
4, 19830, Note_on_c, 9, 38, 0
4, 19830, Note_on_c, 9, 38, 24
4, 19831, Note_on_c, 9, 53, 0
4, 19835, Note_on_c, 9, 38, 0
4, 19840, Note_on_c, 9, 38, 19
4, 19845, Note_on_c, 9, 38, 0
4, 19850, Note_on_c, 9, 38, 15
4, 19854, Note_on_c, 9, 38, 0
4, 19860, Note_on_c, 9, 51, 63
4, 19860, Note_on_c, 9, 38, 13
4, 19864, Note_on_c, 9, 38, 0
4, 19870, Note_on_c, 9, 38, 11
4, 19877, Note_on_c, 9, 38, 0
4, 19877, Note_on_c, 9, 51, 0
4, 19920, Note_on_c, 9, 51, 51
4, 19931, Note_on_c, 9, 51, 0
4, 19980, Note_on_c, 9, 44, 42
4, 19980, Note_on_c, 9, 51, 68
4, 19980, Note_on_c, 9, 38, 58
4, 19987, Note_on_c, 9, 44, 0
4, 19995, Note_on_c, 9, 38, 0
4, 20040, Note_on_c, 9, 38, 39
4, 20060, Note_on_c, 9, 51, 0
4, 20069, Note_on_c, 9, 38, 0
4, 20100, Note_on_c, 9, 51, 64
4, 20112, Note_on_c, 9, 51, 0
4, 20220, Note_on_c, 9, 44, 50
4, 20232, Note_on_c, 9, 44, 0
4, 20250, Note_on_c, 9, 51, 61
4, 20258, Note_on_c, 9, 51, 0
4, 20280, Note_on_c, 9, 51, 59
4, 20334, Note_on_c, 9, 51, 0
4, 20340, Note_on_c, 9, 44, 40
4, 20353, Note_on_c, 9, 44, 0
4, 20400, Note_on_c, 9, 51, 36
4, 20418, Note_on_c, 9, 51, 0
4, 20460, Note_on_c, 9, 51, 57
4, 20460, Note_on_c, 9, 38, 65
4, 20472, Note_on_c, 9, 38, 0
4, 20475, Note_on_c, 9, 51, 0
4, 20520, Note_on_c, 9, 53, 60
4, 20528, Note_on_c, 9, 53, 0
4, 20550, Note_on_c, 9, 53, 60
4, 20569, Note_on_c, 9, 53, 0
4, 20580, Note_on_c, 9, 51, 55
4, 20611, Note_on_c, 9, 51, 0
4, 20760, Note_on_c, 9, 51, 68
4, 20770, Note_on_c, 9, 51, 0
4, 20790, Note_on_c, 9, 51, 69
4, 20805, Note_on_c, 9, 51, 0
4, 20850, Note_on_c, 9, 38, 32
4, 20859, Note_on_c, 9, 38, 0
4, 20880, Note_on_c, 9, 36, 33
4, 20880, Note_on_c, 9, 38, 21
4, 20889, Note_on_c, 9, 36, 0
4, 20910, Note_on_c, 9, 36, 32
4, 20914, Note_on_c, 9, 38, 0
4, 20931, Note_on_c, 9, 36, 0
4, 20940, Note_on_c, 9, 51, 48
4, 20940, Note_on_c, 9, 38, 36
4, 20948, Note_on_c, 9, 51, 0
4, 20953, Note_on_c, 9, 38, 0
4, 20970, Note_on_c, 9, 51, 62
4, 20983, Note_on_c, 9, 51, 0
4, 21000, Note_on_c, 9, 36, 35
4, 21000, Note_on_c, 9, 38, 37
4, 21008, Note_on_c, 9, 36, 0
4, 21030, Note_on_c, 9, 36, 32
4, 21030, Note_on_c, 9, 51, 67
4, 21038, Note_on_c, 9, 36, 0
4, 21044, Note_on_c, 9, 51, 0
4, 21055, Note_on_c, 9, 38, 0
4, 21060, Note_on_c, 9, 51, 77
4, 21090, Note_on_c, 9, 36, 46
4, 21096, Note_on_c, 9, 51, 0
4, 21099, Note_on_c, 9, 36, 0
4, 21120, Note_on_c, 9, 57, 57
4, 21120, Note_on_c, 9, 36, 35
4, 21120, Note_on_c, 9, 51, 34
4, 21127, Note_on_c, 9, 51, 0
4, 21135, Note_on_c, 9, 57, 0
4, 21142, Note_on_c, 9, 36, 0
4, 21150, Note_on_c, 9, 51, 64
4, 21162, Note_on_c, 9, 51, 0
4, 21180, Note_on_c, 9, 51, 70
4, 21213, Note_on_c, 9, 51, 0
4, 21238, Note_on_c, 9, 38, 68
4, 21240, Note_on_c, 9, 51, 71
4, 21240, Note_on_c, 9, 53, 72
4, 21242, Note_on_c, 9, 38, 0
4, 21258, Note_on_c, 9, 38, 43
4, 21262, Note_on_c, 9, 38, 0
4, 21272, Note_on_c, 9, 51, 0
4, 21277, Note_on_c, 9, 53, 0
4, 21279, Note_on_c, 9, 38, 35
4, 21283, Note_on_c, 9, 38, 0
4, 21288, Note_on_c, 9, 38, 29
4, 21293, Note_on_c, 9, 38, 0
4, 21300, Note_on_c, 9, 51, 50
4, 21300, Note_on_c, 9, 38, 23
4, 21300, Note_on_c, 9, 38, 23
4, 21311, Note_on_c, 9, 38, 0
4, 21311, Note_on_c, 9, 51, 0
4, 21313, Note_on_c, 9, 38, 0
4, 21313, Note_on_c, 9, 38, 18
4, 21318, Note_on_c, 9, 38, 0
4, 21327, Note_on_c, 9, 38, 12
4, 21330, Note_on_c, 9, 51, 77
4, 21330, Note_on_c, 9, 53, 75
4, 21332, Note_on_c, 9, 38, 0
4, 21339, Note_on_c, 9, 38, 9
4, 21344, Note_on_c, 9, 38, 0
4, 21351, Note_on_c, 9, 38, 9
4, 21356, Note_on_c, 9, 38, 0
4, 21359, Note_on_c, 9, 51, 0
4, 21364, Note_on_c, 9, 53, 0
4, 21365, Note_on_c, 9, 38, 8
4, 21370, Note_on_c, 9, 38, 0
4, 21375, Note_on_c, 9, 38, 7
4, 21380, Note_on_c, 9, 38, 0
4, 21387, Note_on_c, 9, 38, 6
4, 21390, Note_on_c, 9, 51, 53
4, 21392, Note_on_c, 9, 38, 0
4, 21399, Note_on_c, 9, 51, 0
4, 21401, Note_on_c, 9, 38, 5
4, 21406, Note_on_c, 9, 38, 0
4, 21411, Note_on_c, 9, 38, 5
4, 21416, Note_on_c, 9, 38, 0
4, 21420, Note_on_c, 9, 51, 68
4, 21420, Note_on_c, 9, 53, 72
4, 21457, Note_on_c, 9, 53, 0
4, 21458, Note_on_c, 9, 51, 0
4, 21480, Note_on_c, 9, 51, 40
4, 21489, Note_on_c, 9, 51, 0
4, 21510, Note_on_c, 9, 51, 59
4, 21521, Note_on_c, 9, 51, 0
4, 21540, Note_on_c, 9, 44, 60
4, 21550, Note_on_c, 9, 44, 0
4, 21570, Note_on_c, 9, 51, 25
4, 21582, Note_on_c, 9, 51, 0
4, 21600, Note_on_c, 9, 51, 58
4, 21614, Note_on_c, 9, 51, 0
4, 21690, Note_on_c, 9, 51, 53
4, 21695, Note_on_c, 9, 51, 0
4, 21720, Note_on_c, 9, 51, 74
4, 21742, Note_on_c, 9, 51, 0
4, 21780, Note_on_c, 9, 38, 22
4, 21789, Note_on_c, 9, 38, 0
4, 21810, Note_on_c, 9, 36, 42
4, 21818, Note_on_c, 9, 36, 0
4, 21840, Note_on_c, 9, 36, 34
4, 21840, Note_on_c, 9, 51, 37
4, 21840, Note_on_c, 9, 51, 54
4, 21845, Note_on_c, 9, 51, 0
4, 21859, Note_on_c, 9, 36, 0
4, 21900, Note_on_c, 9, 36, 35
4, 21900, Note_on_c, 9, 38, 25
4, 21910, Note_on_c, 9, 38, 0
4, 21914, Note_on_c, 9, 51, 0
4, 21918, Note_on_c, 9, 36, 0
4, 21960, Note_on_c, 9, 57, 68
4, 21960, Note_on_c, 9, 51, 51
4, 21966, Note_on_c, 9, 51, 0
4, 21966, Note_on_c, 9, 57, 0
4, 22050, Note_on_c, 9, 51, 45
4, 22058, Note_on_c, 9, 51, 0
4, 22080, Note_on_c, 9, 51, 63
4, 22100, Note_on_c, 9, 51, 0
4, 22140, Note_on_c, 9, 51, 91
4, 22160, Note_on_c, 9, 51, 0
4, 22200, Note_on_c, 9, 51, 92
4, 22200, Note_on_c, 9, 38, 56
4, 22208, Note_on_c, 9, 38, 0
4, 22218, Note_on_c, 9, 51, 0
4, 22220, Note_on_c, 9, 38, 33
4, 22224, Note_on_c, 9, 38, 0
4, 22230, Note_on_c, 9, 51, 57
4, 22240, Note_on_c, 9, 38, 24
4, 22241, Note_on_c, 9, 51, 0
4, 22244, Note_on_c, 9, 38, 0
4, 22250, Note_on_c, 9, 38, 20
4, 22255, Note_on_c, 9, 38, 0
4, 22260, Note_on_c, 9, 51, 74
4, 22260, Note_on_c, 9, 38, 15
4, 22264, Note_on_c, 9, 38, 0
4, 22270, Note_on_c, 9, 38, 12
4, 22274, Note_on_c, 9, 38, 0
4, 22279, Note_on_c, 9, 51, 0
4, 22280, Note_on_c, 9, 38, 10
4, 22284, Note_on_c, 9, 38, 0
4, 22290, Note_on_c, 9, 38, 8
4, 22294, Note_on_c, 9, 38, 0
4, 22300, Note_on_c, 9, 38, 6
4, 22304, Note_on_c, 9, 38, 0
4, 22310, Note_on_c, 9, 38, 4
4, 22315, Note_on_c, 9, 38, 0
4, 22320, Note_on_c, 9, 51, 77
4, 22321, Note_on_c, 9, 38, 4
4, 22326, Note_on_c, 9, 38, 0
4, 22330, Note_on_c, 9, 51, 0
4, 22410, Note_on_c, 9, 44, 38
4, 22417, Note_on_c, 9, 44, 0
4, 22440, Note_on_c, 9, 44, 42
4, 22447, Note_on_c, 9, 44, 0
4, 22500, Note_on_c, 9, 53, 76
4, 22510, Note_on_c, 9, 53, 0
4, 22560, Note_on_c, 9, 51, 40
4, 22565, Note_on_c, 9, 51, 0
4, 22620, Note_on_c, 9, 44, 45
4, 22620, Note_on_c, 9, 51, 73
4, 22626, Note_on_c, 9, 44, 0
4, 22630, Note_on_c, 9, 51, 0
4, 22650, Note_on_c, 9, 38, 21
4, 22659, Note_on_c, 9, 38, 0
4, 22680, Note_on_c, 9, 51, 72
4, 22691, Note_on_c, 9, 51, 0
4, 22710, Note_on_c, 9, 51, 67
4, 22722, Note_on_c, 9, 51, 0
4, 22740, Note_on_c, 9, 51, 39
4, 22740, Note_on_c, 9, 38, 29
4, 22747, Note_on_c, 9, 38, 0
4, 22751, Note_on_c, 9, 51, 0
4, 22800, Note_on_c, 9, 40, 46
4, 22800, Note_on_c, 9, 51, 49
4, 22811, Note_on_c, 9, 51, 0
4, 22811, Note_on_c, 9, 40, 0
4, 22830, Note_on_c, 9, 40, 39
4, 22842, Note_on_c, 9, 40, 0
4, 22860, Note_on_c, 9, 51, 52
4, 22860, Note_on_c, 9, 38, 35
4, 22867, Note_on_c, 9, 38, 0
4, 22880, Note_on_c, 9, 51, 0
4, 22920, Note_on_c, 9, 51, 52
4, 22943, Note_on_c, 9, 51, 0
4, 22980, Note_on_c, 9, 40, 39
4, 22980, Note_on_c, 9, 51, 83
4, 22980, Note_on_c, 9, 38, 28
4, 22986, Note_on_c, 9, 40, 0
4, 22990, Note_on_c, 9, 38, 0
4, 22995, Note_on_c, 9, 51, 0
4, 23040, Note_on_c, 9, 51, 91
4, 23054, Note_on_c, 9, 51, 0
4, 23100, Note_on_c, 9, 51, 52
4, 23105, Note_on_c, 9, 51, 0
4, 23220, Note_on_c, 9, 51, 40
4, 23226, Note_on_c, 9, 51, 0
4, 23250, Note_on_c, 9, 51, 67
4, 23256, Note_on_c, 9, 51, 0
4, 23280, Note_on_c, 9, 51, 71
4, 23293, Note_on_c, 9, 51, 0
4, 23340, Note_on_c, 9, 51, 70
4, 23353, Note_on_c, 9, 51, 0
4, 23400, Note_on_c, 9, 53, 67
4, 23417, Note_on_c, 9, 53, 0
4, 23460, Note_on_c, 9, 51, 60
4, 23472, Note_on_c, 9, 51, 0
4, 23580, Note_on_c, 9, 38, 28
4, 23589, Note_on_c, 9, 38, 0
4, 23640, Note_on_c, 9, 51, 65
4, 23640, Note_on_c, 9, 38, 30
4, 23652, Note_on_c, 9, 51, 0
4, 23676, Note_on_c, 9, 38, 0
4, 23730, Note_on_c, 9, 40, 28
4, 23730, Note_on_c, 9, 51, 47
4, 23738, Note_on_c, 9, 40, 0
4, 23741, Note_on_c, 9, 51, 0
4, 23760, Note_on_c, 9, 40, 40
4, 23760, Note_on_c, 9, 51, 64
4, 23777, Note_on_c, 9, 40, 0
4, 23793, Note_on_c, 9, 51, 0
4, 23850, Note_on_c, 9, 40, 34
4, 23850, Note_on_c, 9, 51, 47
4, 23860, Note_on_c, 9, 40, 0
4, 23861, Note_on_c, 9, 51, 0
4, 23880, Note_on_c, 9, 40, 51
4, 23880, Note_on_c, 9, 51, 71
4, 23897, Note_on_c, 9, 40, 0
4, 23909, Note_on_c, 9, 51, 0
4, 23940, Note_on_c, 9, 51, 75
4, 23970, Note_on_c, 9, 51, 0
4, 23970, Note_on_c, 9, 40, 44
4, 23984, Note_on_c, 9, 40, 0
4, 24000, Note_on_c, 9, 36, 47
4, 24000, Note_on_c, 9, 57, 51
4, 24000, Note_on_c, 9, 51, 70
4, 24011, Note_on_c, 9, 57, 0
4, 24023, Note_on_c, 9, 36, 0
4, 24035, Note_on_c, 9, 51, 0
4, 24060, Note_on_c, 9, 36, 50
4, 24060, Note_on_c, 9, 57, 66
4, 24060, Note_on_c, 9, 38, 25
4, 24071, Note_on_c, 9, 38, 0
4, 24072, Note_on_c, 9, 57, 0
4, 24093, Note_on_c, 9, 36, 0
4, 24120, Note_on_c, 9, 51, 75
4, 24151, Note_on_c, 9, 51, 0
4, 24240, Note_on_c, 9, 51, 72
4, 24253, Note_on_c, 9, 51, 0
4, 24270, Note_on_c, 9, 51, 56
4, 24281, Note_on_c, 9, 51, 0
4, 24300, Note_on_c, 9, 51, 57
4, 24319, Note_on_c, 9, 51, 0
4, 24360, Note_on_c, 9, 45, 23
4, 24360, Note_on_c, 9, 51, 82
4, 24368, Note_on_c, 9, 45, 0
4, 24373, Note_on_c, 9, 51, 0
4, 24390, Note_on_c, 9, 45, 48
4, 24400, Note_on_c, 9, 45, 0
4, 24450, Note_on_c, 9, 51, 64
4, 24460, Note_on_c, 9, 51, 0
4, 24480, Note_on_c, 9, 51, 59
4, 24497, Note_on_c, 9, 51, 0
4, 24540, Note_on_c, 9, 51, 81
4, 24553, Note_on_c, 9, 51, 0
4, 24630, Note_on_c, 9, 51, 59
4, 24640, Note_on_c, 9, 51, 0
4, 24660, Note_on_c, 9, 45, 35
4, 24660, Note_on_c, 9, 51, 62
4, 24667, Note_on_c, 9, 45, 0
4, 24674, Note_on_c, 9, 51, 0
4, 24690, Note_on_c, 9, 45, 43
4, 24696, Note_on_c, 9, 45, 0
4, 24720, Note_on_c, 9, 51, 83
4, 24734, Note_on_c, 9, 51, 0
4, 24780, Note_on_c, 9, 38, 8
4, 24794, Note_on_c, 9, 38, 0
4, 24810, Note_on_c, 9, 51, 49
4, 24817, Note_on_c, 9, 51, 0
4, 24840, Note_on_c, 9, 51, 62
4, 24840, Note_on_c, 9, 38, 36
4, 24855, Note_on_c, 9, 51, 0
4, 24857, Note_on_c, 9, 38, 0
4, 24900, Note_on_c, 9, 51, 86
4, 24900, Note_on_c, 9, 38, 37
4, 24915, Note_on_c, 9, 51, 0
4, 24921, Note_on_c, 9, 38, 0
4, 24990, Note_on_c, 9, 51, 46
4, 25001, Note_on_c, 9, 51, 0
4, 25020, Note_on_c, 9, 51, 60
4, 25034, Note_on_c, 9, 51, 0
4, 25080, Note_on_c, 9, 51, 77
4, 25080, Note_on_c, 9, 38, 106
4, 25088, Note_on_c, 9, 38, 0
4, 25092, Note_on_c, 9, 51, 0
4, 25100, Note_on_c, 9, 38, 57
4, 25104, Note_on_c, 9, 38, 0
4, 25120, Note_on_c, 9, 38, 41
4, 25124, Note_on_c, 9, 38, 0
4, 25130, Note_on_c, 9, 38, 38
4, 25135, Note_on_c, 9, 38, 0
4, 25140, Note_on_c, 9, 38, 34
4, 25144, Note_on_c, 9, 38, 0
4, 25150, Note_on_c, 9, 38, 27
4, 25154, Note_on_c, 9, 38, 0
4, 25160, Note_on_c, 9, 38, 23
4, 25164, Note_on_c, 9, 38, 0
4, 25170, Note_on_c, 9, 38, 21
4, 25174, Note_on_c, 9, 38, 0
4, 25180, Note_on_c, 9, 38, 19
4, 25184, Note_on_c, 9, 38, 0
4, 25190, Note_on_c, 9, 38, 18
4, 25195, Note_on_c, 9, 38, 0
4, 25200, Note_on_c, 9, 51, 68
4, 25200, Note_on_c, 9, 38, 15
4, 25205, Note_on_c, 9, 38, 0
4, 25207, Note_on_c, 9, 51, 0
4, 25212, Note_on_c, 9, 38, 15
4, 25217, Note_on_c, 9, 38, 0
4, 25224, Note_on_c, 9, 38, 15
4, 25229, Note_on_c, 9, 38, 0
4, 25234, Note_on_c, 9, 38, 15
4, 25239, Note_on_c, 9, 38, 0
4, 25257, Note_on_c, 9, 38, 59
4, 25260, Note_on_c, 9, 51, 49
4, 25262, Note_on_c, 9, 38, 0
4, 25270, Note_on_c, 9, 51, 0
4, 25320, Note_on_c, 9, 51, 65
4, 25336, Note_on_c, 9, 51, 0
4, 25380, Note_on_c, 9, 51, 74
4, 25395, Note_on_c, 9, 51, 0
4, 25440, Note_on_c, 9, 51, 62
4, 25458, Note_on_c, 9, 51, 0
4, 25500, Note_on_c, 9, 44, 53
4, 25500, Note_on_c, 9, 51, 33
4, 25510, Note_on_c, 9, 44, 0
4, 25527, Note_on_c, 9, 51, 0
4, 25560, Note_on_c, 9, 51, 59
4, 25586, Note_on_c, 9, 51, 0
4, 25620, Note_on_c, 9, 51, 51
4, 25626, Note_on_c, 9, 51, 0
4, 25650, Note_on_c, 9, 51, 62
4, 25658, Note_on_c, 9, 51, 0
4, 25680, Note_on_c, 9, 38, 27
4, 25691, Note_on_c, 9, 38, 0
4, 25740, Note_on_c, 9, 38, 36
4, 25760, Note_on_c, 9, 38, 0
4, 25770, Note_on_c, 9, 45, 37
4, 25770, Note_on_c, 9, 51, 53
4, 25775, Note_on_c, 9, 45, 0
4, 25781, Note_on_c, 9, 51, 0
4, 25800, Note_on_c, 9, 45, 42
4, 25800, Note_on_c, 9, 51, 46
4, 25810, Note_on_c, 9, 45, 0
4, 25821, Note_on_c, 9, 51, 0
4, 25860, Note_on_c, 9, 40, 30
4, 25878, Note_on_c, 9, 40, 0
4, 25920, Note_on_c, 9, 40, 35
4, 25920, Note_on_c, 9, 51, 42
4, 25934, Note_on_c, 9, 51, 0
4, 25937, Note_on_c, 9, 40, 0
4, 25950, Note_on_c, 9, 51, 54
4, 25961, Note_on_c, 9, 51, 0
4, 25977, Note_on_c, 9, 44, 37
4, 25980, Note_on_c, 9, 51, 37
4, 25994, Note_on_c, 9, 51, 0
4, 25997, Note_on_c, 9, 44, 0
4, 26040, Note_on_c, 9, 51, 69
4, 26047, Note_on_c, 9, 51, 0
4, 26100, Note_on_c, 9, 38, 27
4, 26121, Note_on_c, 9, 38, 0
4, 26130, Note_on_c, 9, 51, 35
4, 26136, Note_on_c, 9, 51, 0
4, 26160, Note_on_c, 9, 51, 59
4, 26180, Note_on_c, 9, 51, 0
4, 26220, Note_on_c, 9, 45, 32
4, 26220, Note_on_c, 9, 38, 21
4, 26227, Note_on_c, 9, 45, 0
4, 26229, Note_on_c, 9, 38, 0
4, 26250, Note_on_c, 9, 45, 49
4, 26250, Note_on_c, 9, 51, 48
4, 26256, Note_on_c, 9, 45, 0
4, 26261, Note_on_c, 9, 51, 0
4, 26280, Note_on_c, 9, 36, 25
4, 26280, Note_on_c, 9, 51, 43
4, 26297, Note_on_c, 9, 51, 0
4, 26298, Note_on_c, 9, 36, 0
4, 26340, Note_on_c, 9, 36, 40
4, 26340, Note_on_c, 9, 38, 34
4, 26357, Note_on_c, 9, 36, 0
4, 26389, Note_on_c, 9, 38, 0
4, 26400, Note_on_c, 9, 51, 68
4, 26413, Note_on_c, 9, 51, 0
4, 26460, Note_on_c, 9, 51, 38
4, 26466, Note_on_c, 9, 51, 0
4, 26520, Note_on_c, 9, 51, 57
4, 26520, Note_on_c, 9, 38, 28
4, 26529, Note_on_c, 9, 38, 0
4, 26537, Note_on_c, 9, 51, 0
4, 26580, Note_on_c, 9, 51, 70
4, 26580, Note_on_c, 9, 38, 45
4, 26597, Note_on_c, 9, 51, 0
4, 26603, Note_on_c, 9, 38, 0
4, 26640, Note_on_c, 9, 38, 37
4, 26665, Note_on_c, 9, 38, 0
4, 26670, Note_on_c, 9, 51, 55
4, 26679, Note_on_c, 9, 51, 0
4, 26696, Note_on_c, 9, 44, 58
4, 26700, Note_on_c, 9, 51, 55
4, 26716, Note_on_c, 9, 44, 0
4, 26726, Note_on_c, 9, 51, 0
4, 26760, Note_on_c, 9, 51, 81
4, 26760, Note_on_c, 9, 38, 30
4, 26772, Note_on_c, 9, 38, 0
4, 26783, Note_on_c, 9, 51, 0
4, 26790, Note_on_c, 9, 40, 50
4, 26802, Note_on_c, 9, 40, 0
4, 26820, Note_on_c, 9, 40, 22
4, 26820, Note_on_c, 9, 38, 34
4, 26832, Note_on_c, 9, 40, 0
4, 26836, Note_on_c, 9, 38, 0
4, 26850, Note_on_c, 9, 40, 44
4, 26850, Note_on_c, 9, 51, 67
4, 26860, Note_on_c, 9, 51, 0
4, 26867, Note_on_c, 9, 40, 0
4, 26880, Note_on_c, 9, 36, 46
4, 26880, Note_on_c, 9, 57, 66
4, 26880, Note_on_c, 9, 51, 68
4, 26899, Note_on_c, 9, 51, 0
4, 26900, Note_on_c, 9, 57, 0
4, 26910, Note_on_c, 9, 36, 0
4, 26940, Note_on_c, 9, 51, 70
4, 26940, Note_on_c, 9, 53, 50
4, 26940, Note_on_c, 9, 52, 57
4, 26945, Note_on_c, 9, 52, 0
4, 26955, Note_on_c, 9, 51, 0
4, 26961, Note_on_c, 9, 53, 0
4, 27060, Note_on_c, 9, 38, 26
4, 27071, Note_on_c, 9, 38, 0
4, 27090, Note_on_c, 9, 51, 33
4, 27096, Note_on_c, 9, 51, 0
4, 27120, Note_on_c, 9, 51, 70
4, 27151, Note_on_c, 9, 51, 0
4, 27180, Note_on_c, 9, 38, 26
4, 27210, Note_on_c, 9, 51, 55
4, 27214, Note_on_c, 9, 38, 0
4, 27218, Note_on_c, 9, 51, 0
4, 27238, Note_on_c, 9, 44, 42
4, 27240, Note_on_c, 9, 51, 59
4, 27254, Note_on_c, 9, 44, 0
4, 27256, Note_on_c, 9, 51, 0
4, 27270, Note_on_c, 9, 40, 53
4, 27287, Note_on_c, 9, 40, 0
4, 27300, Note_on_c, 9, 36, 28
4, 27300, Note_on_c, 9, 59, 73
4, 27317, Note_on_c, 9, 59, 0
4, 27319, Note_on_c, 9, 36, 0
4, 27360, Note_on_c, 9, 36, 55
4, 27360, Note_on_c, 9, 57, 58
4, 27374, Note_on_c, 9, 57, 0
4, 27378, Note_on_c, 9, 36, 0
4, 27420, Note_on_c, 9, 57, 65
4, 27420, Note_on_c, 9, 36, 51
4, 27420, Note_on_c, 9, 51, 72
4, 27420, Note_on_c, 9, 59, 63
4, 27427, Note_on_c, 9, 59, 0
4, 27432, Note_on_c, 9, 51, 0
4, 27439, Note_on_c, 9, 57, 0
4, 27456, Note_on_c, 9, 36, 0
4, 27480, Note_on_c, 9, 51, 77
4, 27480, Note_on_c, 9, 59, 75
4, 27494, Note_on_c, 9, 59, 0
4, 27496, Note_on_c, 9, 51, 0
4, 27540, Note_on_c, 9, 51, 56
4, 27551, Note_on_c, 9, 51, 0
4, 27600, Note_on_c, 9, 51, 78
4, 27600, Note_on_c, 9, 59, 75
4, 27609, Note_on_c, 9, 59, 0
4, 27609, Note_on_c, 9, 51, 0
4, 27630, Note_on_c, 9, 38, 24
4, 27639, Note_on_c, 9, 38, 0
4, 27660, Note_on_c, 9, 51, 81
4, 27660, Note_on_c, 9, 59, 74
4, 27672, Note_on_c, 9, 59, 0
4, 27672, Note_on_c, 9, 51, 0
4, 27720, Note_on_c, 9, 53, 71
4, 27733, Note_on_c, 9, 53, 0
4, 27780, Note_on_c, 9, 51, 77
4, 27780, Note_on_c, 9, 59, 72
4, 27780, Note_on_c, 9, 38, 31
4, 27781, Note_on_c, 9, 44, 33
4, 27788, Note_on_c, 9, 38, 0
4, 27789, Note_on_c, 9, 59, 0
4, 27790, Note_on_c, 9, 44, 0
4, 27792, Note_on_c, 9, 51, 0
4, 27810, Note_on_c, 9, 38, 33
4, 27811, Note_on_c, 9, 44, 40
4, 27818, Note_on_c, 9, 38, 0
4, 27822, Note_on_c, 9, 44, 0
4, 27840, Note_on_c, 9, 51, 83
4, 27840, Note_on_c, 9, 59, 77
4, 27852, Note_on_c, 9, 59, 0
4, 27852, Note_on_c, 9, 51, 0
4, 27900, Note_on_c, 9, 53, 71
4, 27913, Note_on_c, 9, 53, 0
4, 27960, Note_on_c, 9, 51, 76
4, 27960, Note_on_c, 9, 59, 62
4, 27966, Note_on_c, 9, 59, 0
4, 27969, Note_on_c, 9, 51, 0
4, 28020, Note_on_c, 9, 51, 84
4, 28020, Note_on_c, 9, 59, 75
4, 28025, Note_on_c, 9, 59, 0
4, 28032, Note_on_c, 9, 51, 0
4, 28080, Note_on_c, 9, 40, 22
4, 28080, Note_on_c, 9, 38, 37
4, 28088, Note_on_c, 9, 40, 0
4, 28089, Note_on_c, 9, 38, 0
4, 28110, Note_on_c, 9, 40, 39
4, 28110, Note_on_c, 9, 38, 31
4, 28118, Note_on_c, 9, 38, 0
4, 28118, Note_on_c, 9, 40, 0
4, 28118, Note_on_c, 9, 44, 44
4, 28127, Note_on_c, 9, 44, 0
4, 28140, Note_on_c, 9, 36, 39
4, 28154, Note_on_c, 9, 36, 0
4, 28198, Note_on_c, 9, 44, 35
4, 28200, Note_on_c, 9, 51, 44
4, 28200, Note_on_c, 9, 59, 49
4, 28200, Note_on_c, 9, 38, 34
4, 28206, Note_on_c, 9, 59, 0
4, 28207, Note_on_c, 9, 38, 0
4, 28208, Note_on_c, 9, 44, 0
4, 28211, Note_on_c, 9, 51, 0
4, 28230, Note_on_c, 9, 51, 52
4, 28230, Note_on_c, 9, 59, 72
4, 28241, Note_on_c, 9, 59, 0
4, 28244, Note_on_c, 9, 51, 0
4, 28260, Note_on_c, 9, 51, 68
4, 28260, Note_on_c, 9, 59, 84
4, 28280, Note_on_c, 9, 59, 0
4, 28290, Note_on_c, 9, 38, 34
4, 28297, Note_on_c, 9, 38, 0
4, 28298, Note_on_c, 9, 51, 0
4, 28320, Note_on_c, 9, 53, 55
4, 28320, Note_on_c, 9, 38, 26
4, 28328, Note_on_c, 9, 53, 0
4, 28333, Note_on_c, 9, 38, 0
4, 28350, Note_on_c, 9, 53, 64
4, 28358, Note_on_c, 9, 53, 0
4, 28410, Note_on_c, 9, 51, 46
4, 28420, Note_on_c, 9, 51, 0
4, 28440, Note_on_c, 9, 51, 42
4, 28457, Note_on_c, 9, 51, 0
4, 28478, Note_on_c, 9, 44, 28
4, 28485, Note_on_c, 9, 44, 0
4, 28500, Note_on_c, 9, 59, 62
4, 28500, Note_on_c, 9, 51, 61
4, 28500, Note_on_c, 9, 38, 32
4, 28507, Note_on_c, 9, 38, 0
4, 28512, Note_on_c, 9, 59, 0
4, 28516, Note_on_c, 9, 51, 0
4, 28567, Note_on_c, 9, 44, 38
4, 28576, Note_on_c, 9, 44, 0
4, 28590, Note_on_c, 9, 51, 52
4, 28605, Note_on_c, 9, 51, 0
4, 28620, Note_on_c, 9, 38, 32
4, 28627, Note_on_c, 9, 38, 0
4, 28650, Note_on_c, 9, 51, 59
4, 28660, Note_on_c, 9, 44, 39
4, 28667, Note_on_c, 9, 44, 0
4, 28668, Note_on_c, 9, 51, 0
4, 28680, Note_on_c, 9, 59, 74
4, 28680, Note_on_c, 9, 38, 26
4, 28689, Note_on_c, 9, 38, 0
4, 28706, Note_on_c, 9, 59, 0
4, 28710, Note_on_c, 9, 51, 71
4, 28729, Note_on_c, 9, 51, 0
4, 28740, Note_on_c, 9, 59, 89
4, 28747, Note_on_c, 9, 44, 42
4, 28758, Note_on_c, 9, 44, 0
4, 28769, Note_on_c, 9, 59, 0
4, 28770, Note_on_c, 9, 40, 25
4, 28770, Note_on_c, 9, 51, 88
4, 28779, Note_on_c, 9, 40, 0
4, 28789, Note_on_c, 9, 51, 0
4, 28800, Note_on_c, 9, 40, 39
4, 28800, Note_on_c, 9, 59, 94
4, 28813, Note_on_c, 9, 40, 0
4, 28830, Note_on_c, 9, 59, 0
4, 28833, Note_on_c, 9, 44, 39
4, 28840, Note_on_c, 9, 44, 0
4, 28860, Note_on_c, 9, 40, 46
4, 28860, Note_on_c, 9, 59, 55
4, 28867, Note_on_c, 9, 59, 0
4, 28875, Note_on_c, 9, 40, 0
4, 28920, Note_on_c, 9, 38, 71
4, 28924, Note_on_c, 9, 44, 38
4, 28927, Note_on_c, 9, 38, 0
4, 28935, Note_on_c, 9, 44, 0
4, 28946, Note_on_c, 9, 38, 52
4, 28958, Note_on_c, 9, 38, 42
4, 28961, Note_on_c, 9, 38, 0
4, 28968, Note_on_c, 9, 38, 22
4, 28973, Note_on_c, 9, 38, 0
4, 28973, Note_on_c, 9, 38, 0
4, 28978, Note_on_c, 9, 38, 15
4, 28980, Note_on_c, 9, 51, 57
4, 28982, Note_on_c, 9, 38, 0
4, 28985, Note_on_c, 9, 51, 0
4, 28988, Note_on_c, 9, 38, 14
4, 28992, Note_on_c, 9, 38, 0
4, 28998, Note_on_c, 9, 38, 12
4, 29002, Note_on_c, 9, 38, 0
4, 29008, Note_on_c, 9, 38, 10
4, 29010, Note_on_c, 9, 51, 74
4, 29012, Note_on_c, 9, 38, 0
4, 29018, Note_on_c, 9, 38, 6
4, 29020, Note_on_c, 9, 51, 0
4, 29022, Note_on_c, 9, 38, 0
4, 29028, Note_on_c, 9, 38, 6
4, 29033, Note_on_c, 9, 38, 0
4, 29040, Note_on_c, 9, 51, 78
4, 29059, Note_on_c, 9, 51, 0
4, 29092, Note_on_c, 9, 38, 32
4, 29105, Note_on_c, 9, 38, 0
4, 29130, Note_on_c, 9, 51, 67
4, 29143, Note_on_c, 9, 51, 0
4, 29160, Note_on_c, 9, 51, 77
4, 29181, Note_on_c, 9, 51, 0
4, 29250, Note_on_c, 9, 51, 72
4, 29260, Note_on_c, 9, 51, 0
4, 29280, Note_on_c, 9, 51, 54
4, 29292, Note_on_c, 9, 51, 0
4, 29340, Note_on_c, 9, 37, 62
4, 29340, Note_on_c, 9, 51, 28
4, 29348, Note_on_c, 9, 51, 0
4, 29350, Note_on_c, 9, 37, 0
4, 29400, Note_on_c, 9, 51, 56
4, 29429, Note_on_c, 9, 51, 0
4, 29460, Note_on_c, 9, 37, 55
4, 29460, Note_on_c, 9, 51, 60
4, 29476, Note_on_c, 9, 51, 0
4, 29477, Note_on_c, 9, 37, 0
4, 29520, Note_on_c, 9, 51, 62
4, 29537, Note_on_c, 9, 51, 0
4, 29580, Note_on_c, 9, 37, 48
4, 29580, Note_on_c, 9, 51, 71
4, 29580, Note_on_c, 9, 38, 23
4, 29589, Note_on_c, 9, 38, 0
4, 29594, Note_on_c, 9, 51, 0
4, 29603, Note_on_c, 9, 37, 0
4, 29610, Note_on_c, 9, 38, 28
4, 29617, Note_on_c, 9, 38, 0
4, 29640, Note_on_c, 9, 51, 70
4, 29657, Note_on_c, 9, 51, 0
4, 29696, Note_on_c, 9, 44, 40
4, 29700, Note_on_c, 9, 37, 45
4, 29700, Note_on_c, 9, 59, 75
4, 29706, Note_on_c, 9, 44, 0
4, 29712, Note_on_c, 9, 59, 0
4, 29721, Note_on_c, 9, 37, 0
4, 29760, Note_on_c, 9, 59, 85
4, 29781, Note_on_c, 9, 59, 0
4, 29821, Note_on_c, 9, 44, 38
4, 29833, Note_on_c, 9, 44, 0
4, 29880, Note_on_c, 9, 59, 76
4, 29892, Note_on_c, 9, 59, 0
4, 29910, Note_on_c, 9, 59, 68
4, 29916, Note_on_c, 9, 59, 0
4, 29940, Note_on_c, 9, 44, 42
4, 29958, Note_on_c, 9, 44, 0
4, 30000, Note_on_c, 9, 59, 74
4, 30015, Note_on_c, 9, 59, 0
4, 30060, Note_on_c, 9, 51, 53
4, 30071, Note_on_c, 9, 51, 0
4, 30090, Note_on_c, 9, 36, 37
4, 30102, Note_on_c, 9, 36, 0
4, 30120, Note_on_c, 9, 36, 31
4, 30120, Note_on_c, 9, 53, 68
4, 30125, Note_on_c, 9, 53, 0
4, 30143, Note_on_c, 9, 36, 0
4, 30150, Note_on_c, 9, 53, 68
4, 30158, Note_on_c, 9, 53, 0
4, 30180, Note_on_c, 9, 36, 40
4, 30199, Note_on_c, 9, 36, 0
4, 30240, Note_on_c, 9, 53, 73
4, 30247, Note_on_c, 9, 53, 0
4, 30300, Note_on_c, 9, 38, 26
4, 30309, Note_on_c, 9, 38, 0
4, 30360, Note_on_c, 9, 38, 42
4, 30378, Note_on_c, 9, 38, 0
4, 30450, Note_on_c, 9, 53, 51
4, 30456, Note_on_c, 9, 53, 0
4, 30480, Note_on_c, 9, 45, 56
4, 30480, Note_on_c, 9, 53, 64
4, 30491, Note_on_c, 9, 45, 0
4, 30499, Note_on_c, 9, 53, 0
4, 30540, Note_on_c, 9, 45, 63
4, 30540, Note_on_c, 9, 38, 35
4, 30553, Note_on_c, 9, 45, 0
4, 30559, Note_on_c, 9, 38, 0
4, 30570, Note_on_c, 9, 53, 37
4, 30578, Note_on_c, 9, 53, 0
4, 30600, Note_on_c, 9, 53, 65
4, 30600, Note_on_c, 9, 38, 35
4, 30618, Note_on_c, 9, 53, 0
4, 30620, Note_on_c, 9, 38, 0
4, 30660, Note_on_c, 9, 40, 21
4, 30660, Note_on_c, 9, 51, 50
4, 30666, Note_on_c, 9, 51, 0
4, 30667, Note_on_c, 9, 40, 0
4, 30690, Note_on_c, 9, 40, 26
4, 30698, Note_on_c, 9, 44, 25
4, 30699, Note_on_c, 9, 40, 0
4, 30704, Note_on_c, 9, 44, 0
4, 30720, Note_on_c, 9, 36, 46
4, 30720, Note_on_c, 9, 57, 71
4, 30720, Note_on_c, 9, 51, 83
4, 30720, Note_on_c, 9, 38, 29
4, 30734, Note_on_c, 9, 38, 0
4, 30734, Note_on_c, 9, 57, 0
4, 30735, Note_on_c, 9, 51, 0
4, 30754, Note_on_c, 9, 36, 0
4, 30780, Note_on_c, 9, 38, 29
4, 30790, Note_on_c, 9, 38, 0
4, 30810, Note_on_c, 9, 51, 46
4, 30817, Note_on_c, 9, 51, 0
4, 30840, Note_on_c, 9, 51, 67
4, 30843, Note_on_c, 9, 38, 66
4, 30850, Note_on_c, 9, 38, 0
4, 30857, Note_on_c, 9, 38, 58
4, 30861, Note_on_c, 9, 38, 0
4, 30865, Note_on_c, 9, 51, 0
4, 30877, Note_on_c, 9, 38, 37
4, 30881, Note_on_c, 9, 38, 0
4, 30887, Note_on_c, 9, 38, 33
4, 30892, Note_on_c, 9, 38, 0
4, 30897, Note_on_c, 9, 38, 25
4, 30901, Note_on_c, 9, 38, 0
4, 30907, Note_on_c, 9, 38, 19
4, 30911, Note_on_c, 9, 38, 0
4, 30917, Note_on_c, 9, 38, 17
4, 30921, Note_on_c, 9, 38, 0
4, 30927, Note_on_c, 9, 38, 15
4, 30930, Note_on_c, 9, 51, 53
4, 30931, Note_on_c, 9, 38, 0
4, 30936, Note_on_c, 9, 51, 0
4, 30937, Note_on_c, 9, 38, 14
4, 30941, Note_on_c, 9, 38, 0
4, 30947, Note_on_c, 9, 38, 14
4, 30952, Note_on_c, 9, 38, 0
4, 30960, Note_on_c, 9, 51, 72
4, 30980, Note_on_c, 9, 51, 0
4, 31080, Note_on_c, 9, 51, 29
4, 31080, Note_on_c, 9, 59, 75
4, 31080, Note_on_c, 9, 51, 57
4, 31085, Note_on_c, 9, 51, 0
4, 31106, Note_on_c, 9, 59, 0
4, 31108, Note_on_c, 9, 51, 0
4, 31110, Note_on_c, 9, 40, 51
4, 31118, Note_on_c, 9, 40, 0
4, 31140, Note_on_c, 9, 40, 42
4, 31140, Note_on_c, 9, 59, 78
4, 31140, Note_on_c, 9, 51, 68
4, 31146, Note_on_c, 9, 40, 0
4, 31172, Note_on_c, 9, 59, 0
4, 31189, Note_on_c, 9, 51, 0
4, 31230, Note_on_c, 9, 59, 52
4, 31236, Note_on_c, 9, 59, 0
4, 31260, Note_on_c, 9, 51, 60
4, 31260, Note_on_c, 9, 59, 71
4, 31260, Note_on_c, 9, 38, 49
4, 31266, Note_on_c, 9, 44, 47
4, 31268, Note_on_c, 9, 38, 0
4, 31277, Note_on_c, 9, 44, 0
4, 31287, Note_on_c, 9, 59, 0
4, 31292, Note_on_c, 9, 51, 0
4, 31320, Note_on_c, 9, 59, 78
4, 31320, Note_on_c, 9, 51, 71
4, 31320, Note_on_c, 9, 38, 60
4, 31337, Note_on_c, 9, 38, 0
4, 31344, Note_on_c, 9, 59, 0
4, 31353, Note_on_c, 9, 51, 0
4, 31410, Note_on_c, 9, 59, 51
4, 31416, Note_on_c, 9, 59, 0
4, 31440, Note_on_c, 9, 51, 56
4, 31440, Note_on_c, 9, 59, 71
4, 31458, Note_on_c, 9, 59, 0
4, 31462, Note_on_c, 9, 51, 0
4, 31500, Note_on_c, 9, 59, 89
4, 31500, Note_on_c, 9, 51, 77
4, 31521, Note_on_c, 9, 59, 0
4, 31530, Note_on_c, 9, 51, 0
4, 31560, Note_on_c, 9, 38, 37
4, 31578, Note_on_c, 9, 38, 0
4, 31590, Note_on_c, 9, 59, 66
4, 31590, Note_on_c, 9, 51, 62
4, 31596, Note_on_c, 9, 59, 0
4, 31602, Note_on_c, 9, 51, 0
4, 31620, Note_on_c, 9, 59, 81
4, 31620, Note_on_c, 9, 51, 59
4, 31647, Note_on_c, 9, 59, 0
4, 31650, Note_on_c, 9, 40, 39
4, 31653, Note_on_c, 9, 51, 0
4, 31657, Note_on_c, 9, 40, 0
4, 31680, Note_on_c, 9, 40, 33
4, 31680, Note_on_c, 9, 59, 84
4, 31680, Note_on_c, 9, 51, 77
4, 31687, Note_on_c, 9, 40, 0
4, 31708, Note_on_c, 9, 59, 0
4, 31710, Note_on_c, 9, 51, 0
4, 31740, Note_on_c, 9, 40, 39
4, 31743, Note_on_c, 9, 44, 52
4, 31751, Note_on_c, 9, 40, 0
4, 31755, Note_on_c, 9, 44, 0
4, 31770, Note_on_c, 9, 59, 60
4, 31777, Note_on_c, 9, 59, 0
4, 31800, Note_on_c, 9, 59, 68
4, 31817, Note_on_c, 9, 59, 0
4, 31860, Note_on_c, 9, 38, 34
4, 31871, Note_on_c, 9, 38, 0
4, 31890, Note_on_c, 9, 51, 52
4, 31898, Note_on_c, 9, 51, 0
4, 31920, Note_on_c, 9, 59, 63
4, 31920, Note_on_c, 9, 51, 57
4, 31940, Note_on_c, 9, 59, 0
4, 31943, Note_on_c, 9, 51, 0
4, 31980, Note_on_c, 9, 59, 69
4, 31980, Note_on_c, 9, 51, 62
4, 32002, Note_on_c, 9, 59, 0
4, 32008, Note_on_c, 9, 51, 0
4, 32070, Note_on_c, 9, 59, 50
4, 32076, Note_on_c, 9, 59, 0
4, 32100, Note_on_c, 9, 38, 29
4, 32110, Note_on_c, 9, 38, 0
4, 32190, Note_on_c, 9, 51, 56
4, 32204, Note_on_c, 9, 51, 0
4, 32220, Note_on_c, 9, 59, 31
4, 32220, Note_on_c, 9, 38, 34
4, 32222, Note_on_c, 9, 44, 54
4, 32231, Note_on_c, 9, 59, 0
4, 32236, Note_on_c, 9, 44, 0
4, 32243, Note_on_c, 9, 38, 0
4, 32250, Note_on_c, 9, 36, 39
4, 32250, Note_on_c, 9, 59, 61
4, 32257, Note_on_c, 9, 59, 0
4, 32257, Note_on_c, 9, 36, 0
4, 32280, Note_on_c, 9, 36, 33
4, 32280, Note_on_c, 9, 59, 67
4, 32280, Note_on_c, 9, 38, 74
4, 32287, Note_on_c, 9, 38, 0
4, 32287, Note_on_c, 9, 59, 0
4, 32300, Note_on_c, 9, 36, 0
4, 32302, Note_on_c, 9, 38, 53
4, 32310, Note_on_c, 9, 51, 49
4, 32317, Note_on_c, 9, 38, 0
4, 32318, Note_on_c, 9, 38, 40
4, 32323, Note_on_c, 9, 38, 0
4, 32325, Note_on_c, 9, 51, 0
4, 32332, Note_on_c, 9, 38, 30
4, 32336, Note_on_c, 9, 38, 0
4, 32348, Note_on_c, 9, 38, 21
4, 32352, Note_on_c, 9, 38, 0
4, 32358, Note_on_c, 9, 38, 15
4, 32362, Note_on_c, 9, 38, 0
4, 32368, Note_on_c, 9, 38, 11
4, 32370, Note_on_c, 9, 36, 34
4, 32372, Note_on_c, 9, 38, 0
4, 32376, Note_on_c, 9, 36, 0
4, 32378, Note_on_c, 9, 38, 9
4, 32382, Note_on_c, 9, 38, 0
4, 32388, Note_on_c, 9, 38, 7
4, 32393, Note_on_c, 9, 38, 0
4, 32400, Note_on_c, 9, 36, 39
4, 32422, Note_on_c, 9, 36, 0
4, 32460, Note_on_c, 9, 38, 29
4, 32475, Note_on_c, 9, 38, 0
4, 32476, Control_c, 9, 64, 127
4, 32478, Control_c, 9, 64, 0
4, 32490, Note_on_c, 9, 36, 46
4, 32490, Note_on_c, 9, 59, 64
4, 32496, Note_on_c, 9, 59, 0
4, 32497, Note_on_c, 9, 36, 0
4, 32520, Note_on_c, 9, 36, 40
4, 32520, Note_on_c, 9, 51, 47
4, 32520, Note_on_c, 9, 38, 29
4, 32527, Note_on_c, 9, 38, 0
4, 32528, Note_on_c, 9, 36, 0
4, 32537, Note_on_c, 9, 51, 0
4, 32550, Note_on_c, 9, 59, 68
4, 32557, Note_on_c, 9, 59, 0
4, 32580, Note_on_c, 9, 51, 36
4, 32597, Note_on_c, 9, 51, 0
4, 32610, Note_on_c, 9, 40, 46
4, 32622, Note_on_c, 9, 40, 0
4, 32640, Note_on_c, 9, 57, 55
4, 32640, Note_on_c, 9, 36, 49
4, 32649, Note_on_c, 9, 57, 0
4, 32651, Note_on_c, 9, 36, 0
4, 32700, Note_on_c, 9, 36, 45
4, 32700, Note_on_c, 9, 57, 66
4, 32702, Note_on_c, 9, 44, 44
4, 32718, Note_on_c, 9, 57, 0
4, 32719, Note_on_c, 9, 44, 0
4, 32730, Note_on_c, 9, 36, 0
4, 32730, Note_on_c, 9, 59, 58
4, 32736, Note_on_c, 9, 59, 0
4, 32760, Note_on_c, 9, 59, 66
4, 32767, Note_on_c, 9, 59, 0
4, 32790, Note_on_c, 9, 59, 72
4, 32803, Note_on_c, 9, 59, 0
4, 32820, Note_on_c, 9, 59, 89
4, 32834, Note_on_c, 9, 59, 0
4, 32880, Note_on_c, 9, 53, 43
4, 32887, Note_on_c, 9, 53, 0
4, 32910, Note_on_c, 9, 53, 68
4, 32923, Note_on_c, 9, 53, 0
4, 32940, Note_on_c, 9, 53, 75
4, 32955, Note_on_c, 9, 53, 0
4, 33000, Note_on_c, 9, 53, 61
4, 33010, Note_on_c, 9, 53, 0
4, 33030, Note_on_c, 9, 53, 60
4, 33038, Note_on_c, 9, 53, 0
4, 33060, Note_on_c, 9, 53, 80
4, 33084, Note_on_c, 9, 53, 0
4, 33090, Note_on_c, 9, 40, 43
4, 33098, Note_on_c, 9, 40, 0
4, 33120, Note_on_c, 9, 40, 37
4, 33120, Note_on_c, 9, 53, 48
4, 33128, Note_on_c, 9, 53, 0
4, 33140, Note_on_c, 9, 40, 0
4, 33150, Note_on_c, 9, 53, 67
4, 33163, Note_on_c, 9, 53, 0
4, 33180, Note_on_c, 9, 40, 44
4, 33180, Note_on_c, 9, 53, 80
4, 33181, Note_on_c, 9, 44, 52
4, 33199, Note_on_c, 9, 44, 0
4, 33199, Note_on_c, 9, 40, 0
4, 33212, Note_on_c, 9, 53, 0
4, 33240, Note_on_c, 9, 53, 29
4, 33240, Note_on_c, 9, 38, 37
4, 33246, Note_on_c, 9, 53, 0
4, 33247, Note_on_c, 9, 38, 0
4, 33270, Note_on_c, 9, 36, 55
4, 33270, Note_on_c, 9, 53, 71
4, 33270, Note_on_c, 9, 38, 36
4, 33282, Note_on_c, 9, 36, 0
4, 33283, Note_on_c, 9, 53, 0
4, 33289, Note_on_c, 9, 38, 0
4, 33300, Note_on_c, 9, 53, 80
4, 33318, Note_on_c, 9, 53, 0
4, 33360, Note_on_c, 9, 36, 53
4, 33376, Note_on_c, 9, 36, 0
4, 33390, Note_on_c, 9, 59, 73
4, 33402, Note_on_c, 9, 59, 0
4, 33420, Note_on_c, 9, 44, 42
4, 33420, Note_on_c, 9, 59, 75
4, 33425, Note_on_c, 9, 44, 0
4, 33443, Note_on_c, 9, 59, 0
4, 33450, Note_on_c, 9, 53, 54
4, 33465, Note_on_c, 9, 53, 0
4, 33480, Note_on_c, 9, 36, 42
4, 33480, Note_on_c, 9, 36, 30
4, 33480, Note_on_c, 9, 59, 70
4, 33486, Note_on_c, 9, 36, 0
4, 33490, Note_on_c, 9, 36, 0
4, 33498, Note_on_c, 9, 59, 0
4, 33510, Note_on_c, 9, 53, 66
4, 33510, Note_on_c, 9, 51, 48
4, 33523, Note_on_c, 9, 53, 0
4, 33530, Note_on_c, 9, 51, 0
4, 33540, Note_on_c, 9, 36, 44
4, 33540, Note_on_c, 9, 59, 79
4, 33540, Note_on_c, 9, 53, 65
4, 33540, Note_on_c, 9, 51, 35
4, 33553, Note_on_c, 9, 36, 0
4, 33564, Note_on_c, 9, 59, 0
4, 33571, Note_on_c, 9, 53, 0
4, 33575, Note_on_c, 9, 51, 0
4, 33600, Note_on_c, 9, 59, 69
4, 33622, Note_on_c, 9, 59, 0
4, 33720, Note_on_c, 9, 59, 57
4, 33729, Note_on_c, 9, 59, 0
4, 33750, Note_on_c, 9, 59, 70
4, 33757, Note_on_c, 9, 59, 0
4, 33780, Note_on_c, 9, 38, 24
4, 33781, Note_on_c, 9, 44, 32
4, 33792, Note_on_c, 9, 38, 0
4, 33793, Note_on_c, 9, 44, 0
4, 33810, Note_on_c, 9, 51, 59
4, 33810, Note_on_c, 9, 53, 57
4, 33816, Note_on_c, 9, 53, 0
4, 33825, Note_on_c, 9, 51, 0
4, 33840, Note_on_c, 9, 59, 61
4, 33840, Note_on_c, 9, 38, 31
4, 33854, Note_on_c, 9, 59, 0
4, 33868, Note_on_c, 9, 38, 0
4, 33870, Note_on_c, 9, 46, 70
4, 33886, Note_on_c, 9, 46, 0
4, 33900, Note_on_c, 9, 59, 57
4, 33902, Note_on_c, 9, 44, 31
4, 33914, Note_on_c, 9, 59, 0
4, 33917, Note_on_c, 9, 44, 0
4, 33960, Note_on_c, 9, 40, 38
4, 33960, Note_on_c, 9, 59, 68
4, 33967, Note_on_c, 9, 40, 0
4, 33975, Note_on_c, 9, 59, 0
4, 33990, Note_on_c, 9, 40, 48
4, 34004, Note_on_c, 9, 40, 0
4, 34020, Note_on_c, 9, 36, 39
4, 34020, Note_on_c, 9, 53, 50
4, 34027, Note_on_c, 9, 53, 0
4, 34030, Note_on_c, 9, 36, 0
4, 34080, Note_on_c, 9, 36, 48
4, 34080, Note_on_c, 9, 59, 68
4, 34080, Note_on_c, 9, 53, 65
4, 34092, Note_on_c, 9, 59, 0
4, 34093, Note_on_c, 9, 53, 0
4, 34095, Note_on_c, 9, 36, 0
4, 34139, Note_on_c, 9, 44, 33
4, 34140, Note_on_c, 9, 59, 74
4, 34140, Note_on_c, 9, 53, 64
4, 34155, Note_on_c, 9, 59, 0
4, 34157, Note_on_c, 9, 53, 0
4, 34158, Note_on_c, 9, 44, 0
4, 34200, Note_on_c, 9, 59, 57
4, 34207, Note_on_c, 9, 59, 0
4, 34230, Note_on_c, 9, 59, 79
4, 34242, Note_on_c, 9, 59, 0
4, 34264, Note_on_c, 9, 44, 34
4, 34286, Note_on_c, 9, 44, 0
4, 34290, Note_on_c, 9, 40, 44
4, 34290, Note_on_c, 9, 59, 66
4, 34290, Note_on_c, 9, 53, 45
4, 34296, Note_on_c, 9, 59, 0
4, 34297, Note_on_c, 9, 53, 0
4, 34299, Note_on_c, 9, 40, 0
4, 34320, Note_on_c, 9, 40, 44
4, 34320, Note_on_c, 9, 59, 90
4, 34337, Note_on_c, 9, 40, 0
4, 34345, Note_on_c, 9, 59, 0
4, 34380, Note_on_c, 9, 59, 51
4, 34386, Note_on_c, 9, 59, 0
4, 34410, Note_on_c, 9, 40, 46
4, 34410, Note_on_c, 9, 59, 75
4, 34410, Note_on_c, 9, 53, 58
4, 34419, Note_on_c, 9, 53, 0
4, 34420, Note_on_c, 9, 40, 0
4, 34423, Note_on_c, 9, 59, 0
4, 34440, Note_on_c, 9, 40, 37
4, 34447, Note_on_c, 9, 40, 0
4, 34470, Note_on_c, 9, 53, 64
4, 34480, Note_on_c, 9, 53, 0
4, 34500, Note_on_c, 9, 53, 64
4, 34500, Note_on_c, 9, 59, 60
4, 34511, Note_on_c, 9, 59, 0
4, 34512, Note_on_c, 9, 53, 0
4, 34530, Note_on_c, 9, 40, 46
4, 34530, Note_on_c, 9, 57, 80
4, 34530, Note_on_c, 9, 38, 26
4, 34540, Note_on_c, 9, 57, 0
4, 34542, Note_on_c, 9, 40, 0
4, 34543, Note_on_c, 9, 38, 0
4, 34560, Note_on_c, 9, 57, 65
4, 34560, Note_on_c, 9, 36, 49
4, 34560, Note_on_c, 9, 51, 85
4, 34567, Note_on_c, 9, 57, 0
4, 34574, Note_on_c, 9, 36, 0
4, 34578, Note_on_c, 9, 51, 0
4, 34590, Note_on_c, 9, 51, 57
4, 34603, Note_on_c, 9, 51, 0
4, 34620, Note_on_c, 9, 51, 56
4, 34620, Note_on_c, 9, 44, 55
4, 34633, Note_on_c, 9, 44, 0
4, 34633, Note_on_c, 9, 51, 0
4, 34680, Note_on_c, 9, 51, 84
4, 34692, Note_on_c, 9, 51, 0
4, 34740, Note_on_c, 9, 53, 83
4, 34753, Note_on_c, 9, 53, 0
4, 34860, Note_on_c, 9, 51, 49
4, 34860, Note_on_c, 9, 38, 40
4, 34868, Note_on_c, 9, 38, 0
4, 34873, Note_on_c, 9, 51, 0
4, 35010, Note_on_c, 9, 51, 67
4, 35024, Note_on_c, 9, 51, 0
4, 35040, Note_on_c, 9, 51, 74
4, 35075, Note_on_c, 9, 51, 0
4, 35100, Note_on_c, 9, 51, 71
4, 35130, Note_on_c, 9, 38, 50
4, 35136, Note_on_c, 9, 38, 0
4, 35151, Note_on_c, 9, 51, 0
4, 35160, Note_on_c, 9, 53, 71
4, 35160, Note_on_c, 9, 38, 55
4, 35160, Note_on_c, 9, 38, 48
4, 35165, Note_on_c, 9, 38, 0
4, 35170, Note_on_c, 9, 38, 0
4, 35170, Note_on_c, 9, 38, 46
4, 35175, Note_on_c, 9, 38, 0
4, 35182, Note_on_c, 9, 38, 30
4, 35190, Note_on_c, 9, 38, 0
4, 35190, Note_on_c, 9, 38, 24
4, 35191, Note_on_c, 9, 53, 0
4, 35195, Note_on_c, 9, 38, 0
4, 35200, Note_on_c, 9, 38, 19
4, 35205, Note_on_c, 9, 38, 0
4, 35210, Note_on_c, 9, 38, 15
4, 35214, Note_on_c, 9, 38, 0
4, 35220, Note_on_c, 9, 51, 63
4, 35220, Note_on_c, 9, 38, 13
4, 35224, Note_on_c, 9, 38, 0
4, 35230, Note_on_c, 9, 38, 11
4, 35237, Note_on_c, 9, 38, 0
4, 35237, Note_on_c, 9, 51, 0
4, 35280, Note_on_c, 9, 51, 51
4, 35291, Note_on_c, 9, 51, 0
4, 35340, Note_on_c, 9, 51, 68
4, 35340, Note_on_c, 9, 38, 58
4, 35340, Note_on_c, 9, 44, 42
4, 35347, Note_on_c, 9, 44, 0
4, 35355, Note_on_c, 9, 38, 0
4, 35400, Note_on_c, 9, 38, 39
4, 35420, Note_on_c, 9, 51, 0
4, 35429, Note_on_c, 9, 38, 0
4, 35460, Note_on_c, 9, 51, 64
4, 35472, Note_on_c, 9, 51, 0
4, 35580, Note_on_c, 9, 44, 50
4, 35592, Note_on_c, 9, 44, 0
4, 35610, Note_on_c, 9, 51, 61
4, 35618, Note_on_c, 9, 51, 0
4, 35640, Note_on_c, 9, 51, 59
4, 35694, Note_on_c, 9, 51, 0
4, 35700, Note_on_c, 9, 44, 40
4, 35713, Note_on_c, 9, 44, 0
4, 35760, Note_on_c, 9, 51, 36
4, 35778, Note_on_c, 9, 51, 0
4, 35820, Note_on_c, 9, 51, 57
4, 35820, Note_on_c, 9, 38, 65
4, 35832, Note_on_c, 9, 38, 0
4, 35835, Note_on_c, 9, 51, 0
4, 35880, Note_on_c, 9, 53, 60
4, 35888, Note_on_c, 9, 53, 0
4, 35910, Note_on_c, 9, 53, 60
4, 35929, Note_on_c, 9, 53, 0
4, 35940, Note_on_c, 9, 51, 55
4, 35971, Note_on_c, 9, 51, 0
4, 36120, Note_on_c, 9, 51, 68
4, 36130, Note_on_c, 9, 51, 0
4, 36150, Note_on_c, 9, 51, 69
4, 36165, Note_on_c, 9, 51, 0
4, 36210, Note_on_c, 9, 38, 32
4, 36219, Note_on_c, 9, 38, 0
4, 36240, Note_on_c, 9, 38, 21
4, 36240, Note_on_c, 9, 36, 33
4, 36249, Note_on_c, 9, 36, 0
4, 36270, Note_on_c, 9, 36, 32
4, 36274, Note_on_c, 9, 38, 0
4, 36291, Note_on_c, 9, 36, 0
4, 36300, Note_on_c, 9, 51, 48
4, 36300, Note_on_c, 9, 38, 36
4, 36308, Note_on_c, 9, 51, 0
4, 36313, Note_on_c, 9, 38, 0
4, 36330, Note_on_c, 9, 51, 62
4, 36343, Note_on_c, 9, 51, 0
4, 36360, Note_on_c, 9, 38, 37
4, 36360, Note_on_c, 9, 36, 35
4, 36368, Note_on_c, 9, 36, 0
4, 36390, Note_on_c, 9, 51, 67
4, 36390, Note_on_c, 9, 36, 32
4, 36398, Note_on_c, 9, 36, 0
4, 36404, Note_on_c, 9, 51, 0
4, 36415, Note_on_c, 9, 38, 0
4, 36420, Note_on_c, 9, 51, 77
4, 36450, Note_on_c, 9, 36, 46
4, 36456, Note_on_c, 9, 51, 0
4, 36459, Note_on_c, 9, 36, 0
4, 36480, Note_on_c, 9, 51, 34
4, 36480, Note_on_c, 9, 57, 57
4, 36480, Note_on_c, 9, 36, 35
4, 36487, Note_on_c, 9, 51, 0
4, 36495, Note_on_c, 9, 57, 0
4, 36502, Note_on_c, 9, 36, 0
4, 36510, Note_on_c, 9, 51, 64
4, 36522, Note_on_c, 9, 51, 0
4, 36540, Note_on_c, 9, 51, 70
4, 36573, Note_on_c, 9, 51, 0
4, 36598, Note_on_c, 9, 38, 68
4, 36600, Note_on_c, 9, 51, 71
4, 36600, Note_on_c, 9, 53, 72
4, 36602, Note_on_c, 9, 38, 0
4, 36618, Note_on_c, 9, 38, 43
4, 36622, Note_on_c, 9, 38, 0
4, 36632, Note_on_c, 9, 51, 0
4, 36637, Note_on_c, 9, 53, 0
4, 36639, Note_on_c, 9, 38, 35
4, 36643, Note_on_c, 9, 38, 0
4, 36648, Note_on_c, 9, 38, 29
4, 36653, Note_on_c, 9, 38, 0
4, 36660, Note_on_c, 9, 51, 50
4, 36660, Note_on_c, 9, 38, 23
4, 36660, Note_on_c, 9, 38, 23
4, 36671, Note_on_c, 9, 38, 0
4, 36671, Note_on_c, 9, 51, 0
4, 36673, Note_on_c, 9, 38, 0
4, 36673, Note_on_c, 9, 38, 18
4, 36678, Note_on_c, 9, 38, 0
4, 36687, Note_on_c, 9, 38, 12
4, 36690, Note_on_c, 9, 51, 77
4, 36690, Note_on_c, 9, 53, 75
4, 36692, Note_on_c, 9, 38, 0
4, 36699, Note_on_c, 9, 38, 9
4, 36704, Note_on_c, 9, 38, 0
4, 36711, Note_on_c, 9, 38, 9
4, 36716, Note_on_c, 9, 38, 0
4, 36719, Note_on_c, 9, 51, 0
4, 36724, Note_on_c, 9, 53, 0
4, 36725, Note_on_c, 9, 38, 8
4, 36730, Note_on_c, 9, 38, 0
4, 36735, Note_on_c, 9, 38, 7
4, 36740, Note_on_c, 9, 38, 0
4, 36747, Note_on_c, 9, 38, 6
4, 36750, Note_on_c, 9, 51, 53
4, 36752, Note_on_c, 9, 38, 0
4, 36759, Note_on_c, 9, 51, 0
4, 36761, Note_on_c, 9, 38, 5
4, 36766, Note_on_c, 9, 38, 0
4, 36771, Note_on_c, 9, 38, 5
4, 36776, Note_on_c, 9, 38, 0
4, 36780, Note_on_c, 9, 51, 68
4, 36780, Note_on_c, 9, 53, 72
4, 36817, Note_on_c, 9, 53, 0
4, 36818, Note_on_c, 9, 51, 0
4, 36840, Note_on_c, 9, 51, 40
4, 36849, Note_on_c, 9, 51, 0
4, 36870, Note_on_c, 9, 51, 59
4, 36881, Note_on_c, 9, 51, 0
4, 36900, Note_on_c, 9, 44, 60
4, 36910, Note_on_c, 9, 44, 0
4, 36930, Note_on_c, 9, 51, 25
4, 36942, Note_on_c, 9, 51, 0
4, 36960, Note_on_c, 9, 51, 58
4, 36974, Note_on_c, 9, 51, 0
4, 37050, Note_on_c, 9, 51, 53
4, 37055, Note_on_c, 9, 51, 0
4, 37080, Note_on_c, 9, 51, 74
4, 37102, Note_on_c, 9, 51, 0
4, 37140, Note_on_c, 9, 38, 22
4, 37149, Note_on_c, 9, 38, 0
4, 37170, Note_on_c, 9, 36, 42
4, 37178, Note_on_c, 9, 36, 0
4, 37200, Note_on_c, 9, 51, 37
4, 37200, Note_on_c, 9, 51, 54
4, 37200, Note_on_c, 9, 36, 34
4, 37205, Note_on_c, 9, 51, 0
4, 37219, Note_on_c, 9, 36, 0
4, 37260, Note_on_c, 9, 38, 25
4, 37260, Note_on_c, 9, 36, 35
4, 37270, Note_on_c, 9, 38, 0
4, 37274, Note_on_c, 9, 51, 0
4, 37278, Note_on_c, 9, 36, 0
4, 37320, Note_on_c, 9, 51, 51
4, 37320, Note_on_c, 9, 57, 68
4, 37326, Note_on_c, 9, 57, 0
4, 37326, Note_on_c, 9, 51, 0
4, 37410, Note_on_c, 9, 51, 45
4, 37418, Note_on_c, 9, 51, 0
4, 37440, Note_on_c, 9, 51, 63
4, 37460, Note_on_c, 9, 51, 0
4, 37500, Note_on_c, 9, 51, 91
4, 37520, Note_on_c, 9, 51, 0
4, 37560, Note_on_c, 9, 51, 92
4, 37560, Note_on_c, 9, 38, 56
4, 37568, Note_on_c, 9, 38, 0
4, 37578, Note_on_c, 9, 51, 0
4, 37580, Note_on_c, 9, 38, 33
4, 37584, Note_on_c, 9, 38, 0
4, 37590, Note_on_c, 9, 51, 57
4, 37600, Note_on_c, 9, 38, 24
4, 37601, Note_on_c, 9, 51, 0
4, 37604, Note_on_c, 9, 38, 0
4, 37610, Note_on_c, 9, 38, 20
4, 37615, Note_on_c, 9, 38, 0
4, 37620, Note_on_c, 9, 51, 74
4, 37620, Note_on_c, 9, 38, 15
4, 37624, Note_on_c, 9, 38, 0
4, 37630, Note_on_c, 9, 38, 12
4, 37634, Note_on_c, 9, 38, 0
4, 37639, Note_on_c, 9, 51, 0
4, 37640, Note_on_c, 9, 38, 10
4, 37644, Note_on_c, 9, 38, 0
4, 37650, Note_on_c, 9, 38, 8
4, 37654, Note_on_c, 9, 38, 0
4, 37660, Note_on_c, 9, 38, 6
4, 37664, Note_on_c, 9, 38, 0
4, 37670, Note_on_c, 9, 38, 4
4, 37675, Note_on_c, 9, 38, 0
4, 37680, Note_on_c, 9, 51, 77
4, 37681, Note_on_c, 9, 38, 4
4, 37686, Note_on_c, 9, 38, 0
4, 37690, Note_on_c, 9, 51, 0
4, 37770, Note_on_c, 9, 44, 38
4, 37777, Note_on_c, 9, 44, 0
4, 37800, Note_on_c, 9, 44, 42
4, 37807, Note_on_c, 9, 44, 0
4, 37860, Note_on_c, 9, 53, 76
4, 37870, Note_on_c, 9, 53, 0
4, 37920, Note_on_c, 9, 51, 40
4, 37925, Note_on_c, 9, 51, 0
4, 37980, Note_on_c, 9, 51, 73
4, 37980, Note_on_c, 9, 44, 45
4, 37986, Note_on_c, 9, 44, 0
4, 37990, Note_on_c, 9, 51, 0
4, 38010, Note_on_c, 9, 38, 21
4, 38019, Note_on_c, 9, 38, 0
4, 38040, Note_on_c, 9, 51, 72
4, 38051, Note_on_c, 9, 51, 0
4, 38070, Note_on_c, 9, 51, 67
4, 38082, Note_on_c, 9, 51, 0
4, 38100, Note_on_c, 9, 51, 39
4, 38100, Note_on_c, 9, 38, 29
4, 38107, Note_on_c, 9, 38, 0
4, 38111, Note_on_c, 9, 51, 0
4, 38160, Note_on_c, 9, 51, 49
4, 38160, Note_on_c, 9, 40, 46
4, 38171, Note_on_c, 9, 40, 0
4, 38171, Note_on_c, 9, 51, 0
4, 38190, Note_on_c, 9, 40, 39
4, 38202, Note_on_c, 9, 40, 0
4, 38220, Note_on_c, 9, 51, 52
4, 38220, Note_on_c, 9, 38, 35
4, 38227, Note_on_c, 9, 38, 0
4, 38240, Note_on_c, 9, 51, 0
4, 38280, Note_on_c, 9, 51, 52
4, 38303, Note_on_c, 9, 51, 0
4, 38340, Note_on_c, 9, 51, 83
4, 38340, Note_on_c, 9, 38, 28
4, 38340, Note_on_c, 9, 40, 39
4, 38346, Note_on_c, 9, 40, 0
4, 38350, Note_on_c, 9, 38, 0
4, 38355, Note_on_c, 9, 51, 0
4, 38400, Note_on_c, 9, 51, 91
4, 38414, Note_on_c, 9, 51, 0
4, 38460, Note_on_c, 9, 51, 52
4, 38465, Note_on_c, 9, 51, 0
4, 38580, Note_on_c, 9, 51, 40
4, 38586, Note_on_c, 9, 51, 0
4, 38610, Note_on_c, 9, 51, 67
4, 38616, Note_on_c, 9, 51, 0
4, 38640, Note_on_c, 9, 51, 71
4, 38653, Note_on_c, 9, 51, 0
4, 38700, Note_on_c, 9, 51, 70
4, 38713, Note_on_c, 9, 51, 0
4, 38760, Note_on_c, 9, 53, 67
4, 38777, Note_on_c, 9, 53, 0
4, 38820, Note_on_c, 9, 51, 60
4, 38832, Note_on_c, 9, 51, 0
4, 38940, Note_on_c, 9, 38, 28
4, 38949, Note_on_c, 9, 38, 0
4, 39000, Note_on_c, 9, 51, 65
4, 39000, Note_on_c, 9, 38, 30
4, 39012, Note_on_c, 9, 51, 0
4, 39036, Note_on_c, 9, 38, 0
4, 39090, Note_on_c, 9, 51, 47
4, 39090, Note_on_c, 9, 40, 28
4, 39098, Note_on_c, 9, 40, 0
4, 39101, Note_on_c, 9, 51, 0
4, 39120, Note_on_c, 9, 51, 64
4, 39120, Note_on_c, 9, 40, 40
4, 39137, Note_on_c, 9, 40, 0
4, 39153, Note_on_c, 9, 51, 0
4, 39210, Note_on_c, 9, 51, 47
4, 39210, Note_on_c, 9, 40, 34
4, 39220, Note_on_c, 9, 40, 0
4, 39221, Note_on_c, 9, 51, 0
4, 39240, Note_on_c, 9, 51, 71
4, 39240, Note_on_c, 9, 40, 51
4, 39257, Note_on_c, 9, 40, 0
4, 39269, Note_on_c, 9, 51, 0
4, 39300, Note_on_c, 9, 51, 75
4, 39330, Note_on_c, 9, 51, 0
4, 39330, Note_on_c, 9, 40, 44
4, 39344, Note_on_c, 9, 40, 0
4, 39360, Note_on_c, 9, 51, 70
4, 39360, Note_on_c, 9, 36, 47
4, 39360, Note_on_c, 9, 57, 51
4, 39371, Note_on_c, 9, 57, 0
4, 39383, Note_on_c, 9, 36, 0
4, 39395, Note_on_c, 9, 51, 0
4, 39420, Note_on_c, 9, 38, 25
4, 39420, Note_on_c, 9, 36, 50
4, 39420, Note_on_c, 9, 57, 66
4, 39431, Note_on_c, 9, 38, 0
4, 39432, Note_on_c, 9, 57, 0
4, 39453, Note_on_c, 9, 36, 0
4, 39480, Note_on_c, 9, 51, 75
4, 39511, Note_on_c, 9, 51, 0
4, 39600, Note_on_c, 9, 51, 72
4, 39613, Note_on_c, 9, 51, 0
4, 39630, Note_on_c, 9, 51, 56
4, 39641, Note_on_c, 9, 51, 0
4, 39660, Note_on_c, 9, 51, 57
4, 39679, Note_on_c, 9, 51, 0
4, 39720, Note_on_c, 9, 51, 82
4, 39720, Note_on_c, 9, 45, 23
4, 39728, Note_on_c, 9, 45, 0
4, 39733, Note_on_c, 9, 51, 0
4, 39750, Note_on_c, 9, 45, 48
4, 39760, Note_on_c, 9, 45, 0
4, 39810, Note_on_c, 9, 51, 64
4, 39820, Note_on_c, 9, 51, 0
4, 39840, Note_on_c, 9, 51, 59
4, 39857, Note_on_c, 9, 51, 0
4, 39900, Note_on_c, 9, 51, 81
4, 39913, Note_on_c, 9, 51, 0
4, 39990, Note_on_c, 9, 51, 59
4, 40000, Note_on_c, 9, 51, 0
4, 40020, Note_on_c, 9, 51, 62
4, 40020, Note_on_c, 9, 45, 35
4, 40027, Note_on_c, 9, 45, 0
4, 40034, Note_on_c, 9, 51, 0
4, 40050, Note_on_c, 9, 45, 43
4, 40056, Note_on_c, 9, 45, 0
4, 40080, Note_on_c, 9, 51, 83
4, 40094, Note_on_c, 9, 51, 0
4, 40140, Note_on_c, 9, 38, 8
4, 40154, Note_on_c, 9, 38, 0
4, 40170, Note_on_c, 9, 51, 49
4, 40177, Note_on_c, 9, 51, 0
4, 40200, Note_on_c, 9, 51, 62
4, 40200, Note_on_c, 9, 38, 36
4, 40215, Note_on_c, 9, 51, 0
4, 40217, Note_on_c, 9, 38, 0
4, 40260, Note_on_c, 9, 51, 86
4, 40260, Note_on_c, 9, 38, 37
4, 40275, Note_on_c, 9, 51, 0
4, 40281, Note_on_c, 9, 38, 0
4, 40350, Note_on_c, 9, 51, 46
4, 40361, Note_on_c, 9, 51, 0
4, 40380, Note_on_c, 9, 51, 60
4, 40394, Note_on_c, 9, 51, 0
4, 40440, Note_on_c, 9, 51, 77
4, 40440, Note_on_c, 9, 38, 106
4, 40448, Note_on_c, 9, 38, 0
4, 40452, Note_on_c, 9, 51, 0
4, 40460, Note_on_c, 9, 38, 57
4, 40464, Note_on_c, 9, 38, 0
4, 40480, Note_on_c, 9, 38, 41
4, 40484, Note_on_c, 9, 38, 0
4, 40490, Note_on_c, 9, 38, 38
4, 40495, Note_on_c, 9, 38, 0
4, 40500, Note_on_c, 9, 38, 34
4, 40504, Note_on_c, 9, 38, 0
4, 40510, Note_on_c, 9, 38, 27
4, 40514, Note_on_c, 9, 38, 0
4, 40520, Note_on_c, 9, 38, 23
4, 40524, Note_on_c, 9, 38, 0
4, 40530, Note_on_c, 9, 38, 21
4, 40534, Note_on_c, 9, 38, 0
4, 40540, Note_on_c, 9, 38, 19
4, 40544, Note_on_c, 9, 38, 0
4, 40550, Note_on_c, 9, 38, 18
4, 40555, Note_on_c, 9, 38, 0
4, 40560, Note_on_c, 9, 51, 68
4, 40560, Note_on_c, 9, 38, 15
4, 40565, Note_on_c, 9, 38, 0
4, 40567, Note_on_c, 9, 51, 0
4, 40572, Note_on_c, 9, 38, 15
4, 40577, Note_on_c, 9, 38, 0
4, 40584, Note_on_c, 9, 38, 15
4, 40589, Note_on_c, 9, 38, 0
4, 40594, Note_on_c, 9, 38, 15
4, 40599, Note_on_c, 9, 38, 0
4, 40617, Note_on_c, 9, 38, 59
4, 40620, Note_on_c, 9, 51, 49
4, 40622, Note_on_c, 9, 38, 0
4, 40630, Note_on_c, 9, 51, 0
4, 40680, Note_on_c, 9, 51, 65
4, 40696, Note_on_c, 9, 51, 0
4, 40740, Note_on_c, 9, 51, 74
4, 40755, Note_on_c, 9, 51, 0
4, 40800, Note_on_c, 9, 51, 62
4, 40818, Note_on_c, 9, 51, 0
4, 40860, Note_on_c, 9, 51, 33
4, 40860, Note_on_c, 9, 44, 53
4, 40870, Note_on_c, 9, 44, 0
4, 40887, Note_on_c, 9, 51, 0
4, 40920, Note_on_c, 9, 51, 59
4, 40946, Note_on_c, 9, 51, 0
4, 40980, Note_on_c, 9, 51, 51
4, 40986, Note_on_c, 9, 51, 0
4, 41010, Note_on_c, 9, 51, 62
4, 41018, Note_on_c, 9, 51, 0
4, 41040, Note_on_c, 9, 38, 27
4, 41051, Note_on_c, 9, 38, 0
4, 41100, Note_on_c, 9, 38, 36
4, 41120, Note_on_c, 9, 38, 0
4, 41130, Note_on_c, 9, 51, 53
4, 41130, Note_on_c, 9, 45, 37
4, 41135, Note_on_c, 9, 45, 0
4, 41141, Note_on_c, 9, 51, 0
4, 41160, Note_on_c, 9, 51, 46
4, 41160, Note_on_c, 9, 45, 42
4, 41170, Note_on_c, 9, 45, 0
4, 41181, Note_on_c, 9, 51, 0
4, 41220, Note_on_c, 9, 40, 30
4, 41238, Note_on_c, 9, 40, 0
4, 41280, Note_on_c, 9, 51, 42
4, 41280, Note_on_c, 9, 40, 35
4, 41294, Note_on_c, 9, 51, 0
4, 41297, Note_on_c, 9, 40, 0
4, 41310, Note_on_c, 9, 51, 54
4, 41321, Note_on_c, 9, 51, 0
4, 41337, Note_on_c, 9, 44, 37
4, 41340, Note_on_c, 9, 51, 37
4, 41354, Note_on_c, 9, 51, 0
4, 41357, Note_on_c, 9, 44, 0
4, 41400, Note_on_c, 9, 51, 69
4, 41407, Note_on_c, 9, 51, 0
4, 41460, Note_on_c, 9, 38, 27
4, 41481, Note_on_c, 9, 38, 0
4, 41490, Note_on_c, 9, 51, 35
4, 41496, Note_on_c, 9, 51, 0
4, 41520, Note_on_c, 9, 51, 59
4, 41540, Note_on_c, 9, 51, 0
4, 41580, Note_on_c, 9, 38, 21
4, 41580, Note_on_c, 9, 45, 32
4, 41587, Note_on_c, 9, 45, 0
4, 41589, Note_on_c, 9, 38, 0
4, 41610, Note_on_c, 9, 51, 48
4, 41610, Note_on_c, 9, 45, 49
4, 41616, Note_on_c, 9, 45, 0
4, 41621, Note_on_c, 9, 51, 0
4, 41640, Note_on_c, 9, 51, 43
4, 41640, Note_on_c, 9, 36, 25
4, 41657, Note_on_c, 9, 51, 0
4, 41658, Note_on_c, 9, 36, 0
4, 41700, Note_on_c, 9, 38, 34
4, 41700, Note_on_c, 9, 36, 40
4, 41717, Note_on_c, 9, 36, 0
4, 41749, Note_on_c, 9, 38, 0
4, 41760, Note_on_c, 9, 51, 68
4, 41773, Note_on_c, 9, 51, 0
4, 41820, Note_on_c, 9, 51, 38
4, 41826, Note_on_c, 9, 51, 0
4, 41880, Note_on_c, 9, 51, 57
4, 41880, Note_on_c, 9, 38, 28
4, 41889, Note_on_c, 9, 38, 0
4, 41897, Note_on_c, 9, 51, 0
4, 41940, Note_on_c, 9, 51, 70
4, 41940, Note_on_c, 9, 38, 45
4, 41957, Note_on_c, 9, 51, 0
4, 41963, Note_on_c, 9, 38, 0
4, 42000, Note_on_c, 9, 38, 37
4, 42025, Note_on_c, 9, 38, 0
4, 42030, Note_on_c, 9, 51, 55
4, 42039, Note_on_c, 9, 51, 0
4, 42056, Note_on_c, 9, 44, 58
4, 42060, Note_on_c, 9, 51, 55
4, 42076, Note_on_c, 9, 44, 0
4, 42086, Note_on_c, 9, 51, 0
4, 42120, Note_on_c, 9, 51, 81
4, 42120, Note_on_c, 9, 38, 30
4, 42132, Note_on_c, 9, 38, 0
4, 42143, Note_on_c, 9, 51, 0
4, 42150, Note_on_c, 9, 40, 50
4, 42162, Note_on_c, 9, 40, 0
4, 42180, Note_on_c, 9, 38, 34
4, 42180, Note_on_c, 9, 40, 22
4, 42192, Note_on_c, 9, 40, 0
4, 42196, Note_on_c, 9, 38, 0
4, 42210, Note_on_c, 9, 51, 67
4, 42210, Note_on_c, 9, 40, 44
4, 42220, Note_on_c, 9, 51, 0
4, 42227, Note_on_c, 9, 40, 0
4, 42240, Note_on_c, 9, 51, 68
4, 42240, Note_on_c, 9, 36, 46
4, 42240, Note_on_c, 9, 57, 66
4, 42259, Note_on_c, 9, 51, 0
4, 42260, Note_on_c, 9, 57, 0
4, 42270, Note_on_c, 9, 36, 0
4, 42300, Note_on_c, 9, 51, 70
4, 42300, Note_on_c, 9, 53, 50
4, 42300, Note_on_c, 9, 52, 57
4, 42305, Note_on_c, 9, 52, 0
4, 42315, Note_on_c, 9, 51, 0
4, 42321, Note_on_c, 9, 53, 0
4, 42420, Note_on_c, 9, 38, 26
4, 42431, Note_on_c, 9, 38, 0
4, 42450, Note_on_c, 9, 51, 33
4, 42456, Note_on_c, 9, 51, 0
4, 42480, Note_on_c, 9, 51, 70
4, 42511, Note_on_c, 9, 51, 0
4, 42540, Note_on_c, 9, 38, 26
4, 42570, Note_on_c, 9, 51, 55
4, 42574, Note_on_c, 9, 38, 0
4, 42578, Note_on_c, 9, 51, 0
4, 42598, Note_on_c, 9, 44, 42
4, 42600, Note_on_c, 9, 51, 59
4, 42614, Note_on_c, 9, 44, 0
4, 42616, Note_on_c, 9, 51, 0
4, 42630, Note_on_c, 9, 40, 53
4, 42647, Note_on_c, 9, 40, 0
4, 42660, Note_on_c, 9, 59, 73
4, 42660, Note_on_c, 9, 36, 28
4, 42677, Note_on_c, 9, 59, 0
4, 42679, Note_on_c, 9, 36, 0
4, 42720, Note_on_c, 9, 36, 55
4, 42720, Note_on_c, 9, 57, 58
4, 42734, Note_on_c, 9, 57, 0
4, 42738, Note_on_c, 9, 36, 0
4, 42780, Note_on_c, 9, 51, 72
4, 42780, Note_on_c, 9, 59, 63
4, 42780, Note_on_c, 9, 57, 65
4, 42780, Note_on_c, 9, 36, 51
4, 42787, Note_on_c, 9, 59, 0
4, 42792, Note_on_c, 9, 51, 0
4, 42799, Note_on_c, 9, 57, 0
4, 42816, Note_on_c, 9, 36, 0
4, 42840, Note_on_c, 9, 51, 77
4, 42840, Note_on_c, 9, 59, 75
4, 42854, Note_on_c, 9, 59, 0
4, 42856, Note_on_c, 9, 51, 0
4, 42900, Note_on_c, 9, 51, 56
4, 42911, Note_on_c, 9, 51, 0
4, 42960, Note_on_c, 9, 51, 78
4, 42960, Note_on_c, 9, 59, 75
4, 42969, Note_on_c, 9, 59, 0
4, 42969, Note_on_c, 9, 51, 0
4, 42990, Note_on_c, 9, 38, 24
4, 42999, Note_on_c, 9, 38, 0
4, 43020, Note_on_c, 9, 51, 81
4, 43020, Note_on_c, 9, 59, 74
4, 43032, Note_on_c, 9, 59, 0
4, 43032, Note_on_c, 9, 51, 0
4, 43080, Note_on_c, 9, 53, 71
4, 43093, Note_on_c, 9, 53, 0
4, 43140, Note_on_c, 9, 51, 77
4, 43140, Note_on_c, 9, 59, 72
4, 43140, Note_on_c, 9, 38, 31
4, 43141, Note_on_c, 9, 44, 33
4, 43148, Note_on_c, 9, 38, 0
4, 43149, Note_on_c, 9, 59, 0
4, 43150, Note_on_c, 9, 44, 0
4, 43152, Note_on_c, 9, 51, 0
4, 43170, Note_on_c, 9, 38, 33
4, 43171, Note_on_c, 9, 44, 40
4, 43178, Note_on_c, 9, 38, 0
4, 43182, Note_on_c, 9, 44, 0
4, 43200, Note_on_c, 9, 51, 83
4, 43200, Note_on_c, 9, 59, 77
4, 43212, Note_on_c, 9, 59, 0
4, 43212, Note_on_c, 9, 51, 0
4, 43260, Note_on_c, 9, 53, 71
4, 43273, Note_on_c, 9, 53, 0
4, 43320, Note_on_c, 9, 51, 76
4, 43320, Note_on_c, 9, 59, 62
4, 43326, Note_on_c, 9, 59, 0
4, 43329, Note_on_c, 9, 51, 0
4, 43380, Note_on_c, 9, 51, 84
4, 43380, Note_on_c, 9, 59, 75
4, 43385, Note_on_c, 9, 59, 0
4, 43392, Note_on_c, 9, 51, 0
4, 43440, Note_on_c, 9, 38, 37
4, 43440, Note_on_c, 9, 40, 22
4, 43448, Note_on_c, 9, 40, 0
4, 43449, Note_on_c, 9, 38, 0
4, 43470, Note_on_c, 9, 38, 31
4, 43470, Note_on_c, 9, 40, 39
4, 43478, Note_on_c, 9, 40, 0
4, 43478, Note_on_c, 9, 38, 0
4, 43478, Note_on_c, 9, 44, 44
4, 43487, Note_on_c, 9, 44, 0
4, 43500, Note_on_c, 9, 36, 39
4, 43514, Note_on_c, 9, 36, 0
4, 43558, Note_on_c, 9, 44, 35
4, 43560, Note_on_c, 9, 51, 44
4, 43560, Note_on_c, 9, 59, 49
4, 43560, Note_on_c, 9, 38, 34
4, 43566, Note_on_c, 9, 59, 0
4, 43567, Note_on_c, 9, 38, 0
4, 43568, Note_on_c, 9, 44, 0
4, 43571, Note_on_c, 9, 51, 0
4, 43590, Note_on_c, 9, 51, 52
4, 43590, Note_on_c, 9, 59, 72
4, 43601, Note_on_c, 9, 59, 0
4, 43604, Note_on_c, 9, 51, 0
4, 43620, Note_on_c, 9, 51, 68
4, 43620, Note_on_c, 9, 59, 84
4, 43640, Note_on_c, 9, 59, 0
4, 43650, Note_on_c, 9, 38, 34
4, 43657, Note_on_c, 9, 38, 0
4, 43658, Note_on_c, 9, 51, 0
4, 43680, Note_on_c, 9, 53, 55
4, 43680, Note_on_c, 9, 38, 26
4, 43688, Note_on_c, 9, 53, 0
4, 43693, Note_on_c, 9, 38, 0
4, 43710, Note_on_c, 9, 53, 64
4, 43718, Note_on_c, 9, 53, 0
4, 43770, Note_on_c, 9, 51, 46
4, 43780, Note_on_c, 9, 51, 0
4, 43800, Note_on_c, 9, 51, 42
4, 43817, Note_on_c, 9, 51, 0
4, 43838, Note_on_c, 9, 44, 28
4, 43845, Note_on_c, 9, 44, 0
4, 43860, Note_on_c, 9, 59, 62
4, 43860, Note_on_c, 9, 51, 61
4, 43860, Note_on_c, 9, 38, 32
4, 43867, Note_on_c, 9, 38, 0
4, 43872, Note_on_c, 9, 59, 0
4, 43876, Note_on_c, 9, 51, 0
4, 43927, Note_on_c, 9, 44, 38
4, 43936, Note_on_c, 9, 44, 0
4, 43950, Note_on_c, 9, 51, 52
4, 43965, Note_on_c, 9, 51, 0
4, 43980, Note_on_c, 9, 38, 32
4, 43987, Note_on_c, 9, 38, 0
4, 44010, Note_on_c, 9, 51, 59
4, 44020, Note_on_c, 9, 44, 39
4, 44027, Note_on_c, 9, 44, 0
4, 44028, Note_on_c, 9, 51, 0
4, 44040, Note_on_c, 9, 59, 74
4, 44040, Note_on_c, 9, 38, 26
4, 44049, Note_on_c, 9, 38, 0
4, 44066, Note_on_c, 9, 59, 0
4, 44070, Note_on_c, 9, 51, 71
4, 44089, Note_on_c, 9, 51, 0
4, 44100, Note_on_c, 9, 59, 89
4, 44107, Note_on_c, 9, 44, 42
4, 44118, Note_on_c, 9, 44, 0
4, 44129, Note_on_c, 9, 59, 0
4, 44130, Note_on_c, 9, 51, 88
4, 44130, Note_on_c, 9, 40, 25
4, 44139, Note_on_c, 9, 40, 0
4, 44149, Note_on_c, 9, 51, 0
4, 44160, Note_on_c, 9, 59, 94
4, 44160, Note_on_c, 9, 40, 39
4, 44173, Note_on_c, 9, 40, 0
4, 44190, Note_on_c, 9, 59, 0
4, 44193, Note_on_c, 9, 44, 39
4, 44200, Note_on_c, 9, 44, 0
4, 44220, Note_on_c, 9, 59, 55
4, 44220, Note_on_c, 9, 40, 46
4, 44227, Note_on_c, 9, 59, 0
4, 44235, Note_on_c, 9, 40, 0
4, 44280, Note_on_c, 9, 38, 107
4, 44284, Note_on_c, 9, 44, 107
4, 44287, Note_on_c, 9, 38, 0
4, 44295, Note_on_c, 9, 44, 0
4, 44306, Note_on_c, 9, 38, 52
4, 44318, Note_on_c, 9, 38, 42
4, 44321, Note_on_c, 9, 38, 0
4, 44328, Note_on_c, 9, 38, 22
4, 44333, Note_on_c, 9, 38, 0
4, 44333, Note_on_c, 9, 38, 0
4, 44338, Note_on_c, 9, 38, 15
4, 44340, Note_on_c, 9, 51, 57
4, 44342, Note_on_c, 9, 38, 0
4, 44345, Note_on_c, 9, 51, 0
4, 44348, Note_on_c, 9, 38, 14
4, 44352, Note_on_c, 9, 38, 0
4, 44358, Note_on_c, 9, 38, 12
4, 44362, Note_on_c, 9, 38, 0
4, 44368, Note_on_c, 9, 38, 10
4, 44370, Note_on_c, 9, 51, 74
4, 44372, Note_on_c, 9, 38, 0
4, 44378, Note_on_c, 9, 38, 6
4, 44380, Note_on_c, 9, 51, 0
4, 44382, Note_on_c, 9, 38, 0
4, 44388, Note_on_c, 9, 38, 6
4, 44393, Note_on_c, 9, 38, 0
4, 44400, Note_on_c, 9, 51, 78
4, 44419, Note_on_c, 9, 51, 0
4, 44452, Note_on_c, 9, 38, 32
4, 44465, Note_on_c, 9, 38, 0
4, 44490, Note_on_c, 9, 51, 67
4, 44503, Note_on_c, 9, 51, 0
4, 44520, Note_on_c, 9, 51, 77
4, 44541, Note_on_c, 9, 51, 0
4, 44610, Note_on_c, 9, 51, 72
4, 44620, Note_on_c, 9, 51, 0
4, 44640, Note_on_c, 9, 51, 54
4, 44652, Note_on_c, 9, 51, 0
4, 44700, Note_on_c, 9, 51, 28
4, 44700, Note_on_c, 9, 37, 62
4, 44708, Note_on_c, 9, 51, 0
4, 44710, Note_on_c, 9, 37, 0
4, 44760, Note_on_c, 9, 51, 56
4, 44789, Note_on_c, 9, 51, 0
4, 44820, Note_on_c, 9, 51, 60
4, 44820, Note_on_c, 9, 37, 55
4, 44836, Note_on_c, 9, 51, 0
4, 44837, Note_on_c, 9, 37, 0
4, 44880, Note_on_c, 9, 51, 62
4, 44897, Note_on_c, 9, 51, 0
4, 44940, Note_on_c, 9, 51, 71
4, 44940, Note_on_c, 9, 38, 23
4, 44940, Note_on_c, 9, 37, 48
4, 44949, Note_on_c, 9, 38, 0
4, 44954, Note_on_c, 9, 51, 0
4, 44963, Note_on_c, 9, 37, 0
4, 44970, Note_on_c, 9, 38, 28
4, 44977, Note_on_c, 9, 38, 0
4, 45000, Note_on_c, 9, 51, 70
4, 45017, Note_on_c, 9, 51, 0
4, 45056, Note_on_c, 9, 44, 40
4, 45060, Note_on_c, 9, 59, 75
4, 45060, Note_on_c, 9, 37, 45
4, 45066, Note_on_c, 9, 44, 0
4, 45072, Note_on_c, 9, 59, 0
4, 45081, Note_on_c, 9, 37, 0
4, 45120, Note_on_c, 9, 59, 85
4, 45141, Note_on_c, 9, 59, 0
4, 45181, Note_on_c, 9, 44, 38
4, 45193, Note_on_c, 9, 44, 0
4, 45240, Note_on_c, 9, 59, 76
4, 45252, Note_on_c, 9, 59, 0
4, 45270, Note_on_c, 9, 59, 68
4, 45276, Note_on_c, 9, 59, 0
4, 45300, Note_on_c, 9, 44, 42
4, 45318, Note_on_c, 9, 44, 0
4, 45360, Note_on_c, 9, 59, 74
4, 45375, Note_on_c, 9, 59, 0
4, 45420, Note_on_c, 9, 51, 53
4, 45431, Note_on_c, 9, 51, 0
4, 45450, Note_on_c, 9, 36, 37
4, 45462, Note_on_c, 9, 36, 0
4, 45480, Note_on_c, 9, 53, 68
4, 45480, Note_on_c, 9, 36, 31
4, 45485, Note_on_c, 9, 53, 0
4, 45503, Note_on_c, 9, 36, 0
4, 45510, Note_on_c, 9, 53, 68
4, 45518, Note_on_c, 9, 53, 0
4, 45540, Note_on_c, 9, 36, 40
4, 45559, Note_on_c, 9, 36, 0
4, 45600, Note_on_c, 9, 53, 73
4, 45607, Note_on_c, 9, 53, 0
4, 45660, Note_on_c, 9, 38, 26
4, 45669, Note_on_c, 9, 38, 0
4, 45720, Note_on_c, 9, 38, 42
4, 45738, Note_on_c, 9, 38, 0
4, 45810, Note_on_c, 9, 53, 51
4, 45816, Note_on_c, 9, 53, 0
4, 45840, Note_on_c, 9, 53, 64
4, 45840, Note_on_c, 9, 45, 56
4, 45851, Note_on_c, 9, 45, 0
4, 45859, Note_on_c, 9, 53, 0
4, 45900, Note_on_c, 9, 38, 35
4, 45900, Note_on_c, 9, 45, 63
4, 45913, Note_on_c, 9, 45, 0
4, 45919, Note_on_c, 9, 38, 0
4, 45930, Note_on_c, 9, 53, 37
4, 45938, Note_on_c, 9, 53, 0
4, 45960, Note_on_c, 9, 53, 65
4, 45960, Note_on_c, 9, 38, 35
4, 45978, Note_on_c, 9, 53, 0
4, 45980, Note_on_c, 9, 38, 0
4, 46020, Note_on_c, 9, 51, 50
4, 46020, Note_on_c, 9, 40, 21
4, 46026, Note_on_c, 9, 51, 0
4, 46027, Note_on_c, 9, 40, 0
4, 46050, Note_on_c, 9, 40, 26
4, 46058, Note_on_c, 9, 44, 25
4, 46059, Note_on_c, 9, 40, 0
4, 46064, Note_on_c, 9, 44, 0
4, 46080, Note_on_c, 9, 51, 83
4, 46080, Note_on_c, 9, 38, 29
4, 46080, Note_on_c, 9, 36, 46
4, 46080, Note_on_c, 9, 57, 71
4, 46094, Note_on_c, 9, 57, 0
4, 46094, Note_on_c, 9, 38, 0
4, 46095, Note_on_c, 9, 51, 0
4, 46114, Note_on_c, 9, 36, 0
4, 46140, Note_on_c, 9, 38, 29
4, 46150, Note_on_c, 9, 38, 0
4, 46170, Note_on_c, 9, 51, 46
4, 46177, Note_on_c, 9, 51, 0
4, 46200, Note_on_c, 9, 51, 67
4, 46203, Note_on_c, 9, 38, 66
4, 46210, Note_on_c, 9, 38, 0
4, 46217, Note_on_c, 9, 38, 58
4, 46221, Note_on_c, 9, 38, 0
4, 46225, Note_on_c, 9, 51, 0
4, 46237, Note_on_c, 9, 38, 37
4, 46241, Note_on_c, 9, 38, 0
4, 46247, Note_on_c, 9, 38, 33
4, 46252, Note_on_c, 9, 38, 0
4, 46257, Note_on_c, 9, 38, 25
4, 46261, Note_on_c, 9, 38, 0
4, 46267, Note_on_c, 9, 38, 19
4, 46271, Note_on_c, 9, 38, 0
4, 46277, Note_on_c, 9, 38, 17
4, 46281, Note_on_c, 9, 38, 0
4, 46287, Note_on_c, 9, 38, 15
4, 46290, Note_on_c, 9, 51, 53
4, 46291, Note_on_c, 9, 38, 0
4, 46296, Note_on_c, 9, 51, 0
4, 46297, Note_on_c, 9, 38, 14
4, 46301, Note_on_c, 9, 38, 0
4, 46307, Note_on_c, 9, 38, 14
4, 46312, Note_on_c, 9, 38, 0
4, 46320, Note_on_c, 9, 51, 72
4, 46340, Note_on_c, 9, 51, 0
4, 46440, Note_on_c, 9, 51, 29
4, 46440, Note_on_c, 9, 59, 75
4, 46440, Note_on_c, 9, 51, 57
4, 46445, Note_on_c, 9, 51, 0
4, 46466, Note_on_c, 9, 59, 0
4, 46468, Note_on_c, 9, 51, 0
4, 46470, Note_on_c, 9, 40, 51
4, 46478, Note_on_c, 9, 40, 0
4, 46500, Note_on_c, 9, 59, 78
4, 46500, Note_on_c, 9, 51, 68
4, 46500, Note_on_c, 9, 40, 42
4, 46506, Note_on_c, 9, 40, 0
4, 46532, Note_on_c, 9, 59, 0
4, 46549, Note_on_c, 9, 51, 0
4, 46590, Note_on_c, 9, 59, 52
4, 46596, Note_on_c, 9, 59, 0
4, 46620, Note_on_c, 9, 51, 60
4, 46620, Note_on_c, 9, 59, 71
4, 46620, Note_on_c, 9, 38, 49
4, 46626, Note_on_c, 9, 44, 47
4, 46628, Note_on_c, 9, 38, 0
4, 46637, Note_on_c, 9, 44, 0
4, 46647, Note_on_c, 9, 59, 0
4, 46652, Note_on_c, 9, 51, 0
4, 46680, Note_on_c, 9, 59, 78
4, 46680, Note_on_c, 9, 51, 71
4, 46680, Note_on_c, 9, 38, 60
4, 46697, Note_on_c, 9, 38, 0
4, 46704, Note_on_c, 9, 59, 0
4, 46713, Note_on_c, 9, 51, 0
4, 46770, Note_on_c, 9, 59, 51
4, 46776, Note_on_c, 9, 59, 0
4, 46800, Note_on_c, 9, 51, 56
4, 46800, Note_on_c, 9, 59, 71
4, 46818, Note_on_c, 9, 59, 0
4, 46822, Note_on_c, 9, 51, 0
4, 46860, Note_on_c, 9, 59, 89
4, 46860, Note_on_c, 9, 51, 77
4, 46881, Note_on_c, 9, 59, 0
4, 46890, Note_on_c, 9, 51, 0
4, 46920, Note_on_c, 9, 38, 37
4, 46938, Note_on_c, 9, 38, 0
4, 46950, Note_on_c, 9, 59, 66
4, 46950, Note_on_c, 9, 51, 62
4, 46956, Note_on_c, 9, 59, 0
4, 46962, Note_on_c, 9, 51, 0
4, 46980, Note_on_c, 9, 59, 81
4, 46980, Note_on_c, 9, 51, 59
4, 47007, Note_on_c, 9, 59, 0
4, 47010, Note_on_c, 9, 40, 39
4, 47013, Note_on_c, 9, 51, 0
4, 47017, Note_on_c, 9, 40, 0
4, 47040, Note_on_c, 9, 59, 84
4, 47040, Note_on_c, 9, 51, 77
4, 47040, Note_on_c, 9, 40, 33
4, 47047, Note_on_c, 9, 40, 0
4, 47068, Note_on_c, 9, 59, 0
4, 47070, Note_on_c, 9, 51, 0
4, 47100, Note_on_c, 9, 40, 39
4, 47103, Note_on_c, 9, 44, 52
4, 47111, Note_on_c, 9, 40, 0
4, 47115, Note_on_c, 9, 44, 0
4, 47130, Note_on_c, 9, 59, 60
4, 47137, Note_on_c, 9, 59, 0
4, 47160, Note_on_c, 9, 59, 68
4, 47177, Note_on_c, 9, 59, 0
4, 47220, Note_on_c, 9, 38, 34
4, 47231, Note_on_c, 9, 38, 0
4, 47250, Note_on_c, 9, 51, 52
4, 47258, Note_on_c, 9, 51, 0
4, 47280, Note_on_c, 9, 59, 63
4, 47280, Note_on_c, 9, 51, 57
4, 47300, Note_on_c, 9, 59, 0
4, 47303, Note_on_c, 9, 51, 0
4, 47340, Note_on_c, 9, 59, 69
4, 47340, Note_on_c, 9, 51, 62
4, 47362, Note_on_c, 9, 59, 0
4, 47368, Note_on_c, 9, 51, 0
4, 47430, Note_on_c, 9, 59, 50
4, 47436, Note_on_c, 9, 59, 0
4, 47460, Note_on_c, 9, 38, 29
4, 47470, Note_on_c, 9, 38, 0
4, 47550, Note_on_c, 9, 51, 56
4, 47564, Note_on_c, 9, 51, 0
4, 47580, Note_on_c, 9, 59, 31
4, 47580, Note_on_c, 9, 38, 34
4, 47582, Note_on_c, 9, 44, 54
4, 47591, Note_on_c, 9, 59, 0
4, 47596, Note_on_c, 9, 44, 0
4, 47603, Note_on_c, 9, 38, 0
4, 47610, Note_on_c, 9, 59, 61
4, 47610, Note_on_c, 9, 36, 39
4, 47617, Note_on_c, 9, 36, 0
4, 47617, Note_on_c, 9, 59, 0
4, 47640, Note_on_c, 9, 59, 67
4, 47640, Note_on_c, 9, 38, 74
4, 47640, Note_on_c, 9, 36, 33
4, 47647, Note_on_c, 9, 38, 0
4, 47647, Note_on_c, 9, 59, 0
4, 47660, Note_on_c, 9, 36, 0
4, 47662, Note_on_c, 9, 38, 53
4, 47670, Note_on_c, 9, 51, 49
4, 47677, Note_on_c, 9, 38, 0
4, 47678, Note_on_c, 9, 38, 40
4, 47683, Note_on_c, 9, 38, 0
4, 47685, Note_on_c, 9, 51, 0
4, 47692, Note_on_c, 9, 38, 30
4, 47696, Note_on_c, 9, 38, 0
4, 47708, Note_on_c, 9, 38, 21
4, 47712, Note_on_c, 9, 38, 0
4, 47718, Note_on_c, 9, 38, 15
4, 47722, Note_on_c, 9, 38, 0
4, 47728, Note_on_c, 9, 38, 11
4, 47730, Note_on_c, 9, 36, 34
4, 47732, Note_on_c, 9, 38, 0
4, 47736, Note_on_c, 9, 36, 0
4, 47738, Note_on_c, 9, 38, 9
4, 47742, Note_on_c, 9, 38, 0
4, 47748, Note_on_c, 9, 38, 7
4, 47753, Note_on_c, 9, 38, 0
4, 47760, Note_on_c, 9, 36, 39
4, 47782, Note_on_c, 9, 36, 0
4, 47820, Note_on_c, 9, 38, 29
4, 47835, Note_on_c, 9, 38, 0
4, 47836, Control_c, 9, 64, 127
4, 47838, Control_c, 9, 64, 0
4, 47850, Note_on_c, 9, 59, 64
4, 47850, Note_on_c, 9, 36, 46
4, 47856, Note_on_c, 9, 59, 0
4, 47857, Note_on_c, 9, 36, 0
4, 47880, Note_on_c, 9, 51, 47
4, 47880, Note_on_c, 9, 38, 29
4, 47880, Note_on_c, 9, 36, 40
4, 47887, Note_on_c, 9, 38, 0
4, 47888, Note_on_c, 9, 36, 0
4, 47897, Note_on_c, 9, 51, 0
4, 47910, Note_on_c, 9, 59, 68
4, 47917, Note_on_c, 9, 59, 0
4, 47940, Note_on_c, 9, 51, 36
4, 47957, Note_on_c, 9, 51, 0
4, 47970, Note_on_c, 9, 40, 46
4, 47982, Note_on_c, 9, 40, 0
4, 48000, Note_on_c, 9, 57, 55
4, 48000, Note_on_c, 9, 36, 49
4, 48009, Note_on_c, 9, 57, 0
4, 48011, Note_on_c, 9, 36, 0
4, 48060, Note_on_c, 9, 36, 45
4, 48060, Note_on_c, 9, 57, 66
4, 48062, Note_on_c, 9, 44, 44
4, 48078, Note_on_c, 9, 57, 0
4, 48079, Note_on_c, 9, 44, 0
4, 48090, Note_on_c, 9, 36, 0
4, 48090, Note_on_c, 9, 59, 58
4, 48096, Note_on_c, 9, 59, 0
4, 48120, Note_on_c, 9, 59, 66
4, 48127, Note_on_c, 9, 59, 0
4, 48150, Note_on_c, 9, 59, 72
4, 48163, Note_on_c, 9, 59, 0
4, 48180, Note_on_c, 9, 59, 89
4, 48194, Note_on_c, 9, 59, 0
4, 48240, Note_on_c, 9, 53, 43
4, 48247, Note_on_c, 9, 53, 0
4, 48270, Note_on_c, 9, 53, 68
4, 48283, Note_on_c, 9, 53, 0
4, 48300, Note_on_c, 9, 53, 75
4, 48315, Note_on_c, 9, 53, 0
4, 48360, Note_on_c, 9, 53, 61
4, 48370, Note_on_c, 9, 53, 0
4, 48390, Note_on_c, 9, 53, 60
4, 48398, Note_on_c, 9, 53, 0
4, 48420, Note_on_c, 9, 53, 80
4, 48444, Note_on_c, 9, 53, 0
4, 48450, Note_on_c, 9, 40, 43
4, 48458, Note_on_c, 9, 40, 0
4, 48480, Note_on_c, 9, 53, 48
4, 48480, Note_on_c, 9, 40, 37
4, 48488, Note_on_c, 9, 53, 0
4, 48500, Note_on_c, 9, 40, 0
4, 48510, Note_on_c, 9, 53, 67
4, 48523, Note_on_c, 9, 53, 0
4, 48540, Note_on_c, 9, 53, 80
4, 48540, Note_on_c, 9, 40, 44
4, 48541, Note_on_c, 9, 44, 52
4, 48559, Note_on_c, 9, 44, 0
4, 48559, Note_on_c, 9, 40, 0
4, 48572, Note_on_c, 9, 53, 0
4, 48600, Note_on_c, 9, 53, 29
4, 48600, Note_on_c, 9, 38, 37
4, 48606, Note_on_c, 9, 53, 0
4, 48607, Note_on_c, 9, 38, 0
4, 48630, Note_on_c, 9, 53, 71
4, 48630, Note_on_c, 9, 38, 36
4, 48630, Note_on_c, 9, 36, 55
4, 48642, Note_on_c, 9, 36, 0
4, 48643, Note_on_c, 9, 53, 0
4, 48649, Note_on_c, 9, 38, 0
4, 48660, Note_on_c, 9, 53, 80
4, 48678, Note_on_c, 9, 53, 0
4, 48720, Note_on_c, 9, 36, 53
4, 48736, Note_on_c, 9, 36, 0
4, 48750, Note_on_c, 9, 59, 73
4, 48762, Note_on_c, 9, 59, 0
4, 48780, Note_on_c, 9, 59, 75
4, 48780, Note_on_c, 9, 44, 42
4, 48785, Note_on_c, 9, 44, 0
4, 48803, Note_on_c, 9, 59, 0
4, 48810, Note_on_c, 9, 53, 54
4, 48825, Note_on_c, 9, 53, 0
4, 48840, Note_on_c, 9, 59, 70
4, 48840, Note_on_c, 9, 36, 42
4, 48840, Note_on_c, 9, 36, 30
4, 48846, Note_on_c, 9, 36, 0
4, 48850, Note_on_c, 9, 36, 0
4, 48858, Note_on_c, 9, 59, 0
4, 48870, Note_on_c, 9, 53, 66
4, 48870, Note_on_c, 9, 51, 48
4, 48883, Note_on_c, 9, 53, 0
4, 48890, Note_on_c, 9, 51, 0
4, 48900, Note_on_c, 9, 59, 79
4, 48900, Note_on_c, 9, 53, 65
4, 48900, Note_on_c, 9, 51, 35
4, 48900, Note_on_c, 9, 36, 44
4, 48913, Note_on_c, 9, 36, 0
4, 48924, Note_on_c, 9, 59, 0
4, 48931, Note_on_c, 9, 53, 0
4, 48935, Note_on_c, 9, 51, 0
4, 48960, Note_on_c, 9, 59, 69
4, 48982, Note_on_c, 9, 59, 0
4, 49080, Note_on_c, 9, 59, 57
4, 49089, Note_on_c, 9, 59, 0
4, 49110, Note_on_c, 9, 59, 70
4, 49117, Note_on_c, 9, 59, 0
4, 49140, Note_on_c, 9, 38, 24
4, 49141, Note_on_c, 9, 44, 32
4, 49152, Note_on_c, 9, 38, 0
4, 49153, Note_on_c, 9, 44, 0
4, 49170, Note_on_c, 9, 51, 59
4, 49170, Note_on_c, 9, 53, 57
4, 49176, Note_on_c, 9, 53, 0
4, 49185, Note_on_c, 9, 51, 0
4, 49200, Note_on_c, 9, 59, 61
4, 49200, Note_on_c, 9, 38, 31
4, 49214, Note_on_c, 9, 59, 0
4, 49228, Note_on_c, 9, 38, 0
4, 49230, Note_on_c, 9, 46, 70
4, 49246, Note_on_c, 9, 46, 0
4, 49260, Note_on_c, 9, 59, 57
4, 49262, Note_on_c, 9, 44, 31
4, 49274, Note_on_c, 9, 59, 0
4, 49277, Note_on_c, 9, 44, 0
4, 49320, Note_on_c, 9, 59, 68
4, 49320, Note_on_c, 9, 40, 38
4, 49327, Note_on_c, 9, 40, 0
4, 49335, Note_on_c, 9, 59, 0
4, 49350, Note_on_c, 9, 40, 48
4, 49364, Note_on_c, 9, 40, 0
4, 49380, Note_on_c, 9, 53, 50
4, 49380, Note_on_c, 9, 36, 39
4, 49387, Note_on_c, 9, 53, 0
4, 49390, Note_on_c, 9, 36, 0
4, 49440, Note_on_c, 9, 59, 68
4, 49440, Note_on_c, 9, 53, 65
4, 49440, Note_on_c, 9, 36, 48
4, 49452, Note_on_c, 9, 59, 0
4, 49453, Note_on_c, 9, 53, 0
4, 49455, Note_on_c, 9, 36, 0
4, 49499, Note_on_c, 9, 44, 33
4, 49500, Note_on_c, 9, 59, 74
4, 49500, Note_on_c, 9, 53, 64
4, 49515, Note_on_c, 9, 59, 0
4, 49517, Note_on_c, 9, 53, 0
4, 49518, Note_on_c, 9, 44, 0
4, 49560, Note_on_c, 9, 59, 57
4, 49567, Note_on_c, 9, 59, 0
4, 49590, Note_on_c, 9, 59, 79
4, 49602, Note_on_c, 9, 59, 0
4, 49624, Note_on_c, 9, 44, 34
4, 49646, Note_on_c, 9, 44, 0
4, 49650, Note_on_c, 9, 59, 66
4, 49650, Note_on_c, 9, 53, 45
4, 49650, Note_on_c, 9, 40, 44
4, 49656, Note_on_c, 9, 59, 0
4, 49657, Note_on_c, 9, 53, 0
4, 49659, Note_on_c, 9, 40, 0
4, 49680, Note_on_c, 9, 59, 90
4, 49680, Note_on_c, 9, 40, 44
4, 49697, Note_on_c, 9, 40, 0
4, 49705, Note_on_c, 9, 59, 0
4, 49740, Note_on_c, 9, 59, 51
4, 49746, Note_on_c, 9, 59, 0
4, 49770, Note_on_c, 9, 59, 75
4, 49770, Note_on_c, 9, 53, 58
4, 49770, Note_on_c, 9, 40, 46
4, 49779, Note_on_c, 9, 53, 0
4, 49780, Note_on_c, 9, 40, 0
4, 49783, Note_on_c, 9, 59, 0
4, 49800, Note_on_c, 9, 40, 37
4, 49807, Note_on_c, 9, 40, 0
4, 49830, Note_on_c, 9, 53, 64
4, 49840, Note_on_c, 9, 53, 0
4, 49860, Note_on_c, 9, 53, 64
4, 49860, Note_on_c, 9, 59, 60
4, 49871, Note_on_c, 9, 59, 0
4, 49872, Note_on_c, 9, 53, 0
4, 49890, Note_on_c, 9, 57, 80
4, 49890, Note_on_c, 9, 38, 26
4, 49890, Note_on_c, 9, 40, 46
4, 49900, Note_on_c, 9, 57, 0
4, 49902, Note_on_c, 9, 40, 0
4, 49903, Note_on_c, 9, 38, 0
4, 49920, Note_on_c, 9, 57, 65
4, 49920, Note_on_c, 9, 36, 49
4, 49920, Note_on_c, 9, 51, 85
4, 49927, Note_on_c, 9, 57, 0
4, 49934, Note_on_c, 9, 36, 0
4, 49938, Note_on_c, 9, 51, 0
4, 49950, Note_on_c, 9, 51, 57
4, 49963, Note_on_c, 9, 51, 0
4, 49980, Note_on_c, 9, 51, 56
4, 49980, Note_on_c, 9, 44, 55
4, 49993, Note_on_c, 9, 44, 0
4, 49993, Note_on_c, 9, 51, 0
4, 50040, Note_on_c, 9, 51, 84
4, 50052, Note_on_c, 9, 51, 0
4, 50100, Note_on_c, 9, 53, 83
4, 50113, Note_on_c, 9, 53, 0
4, 50220, Note_on_c, 9, 51, 49
4, 50233, Note_on_c, 9, 51, 0
4, 50370, Note_on_c, 9, 51, 67
4, 50384, Note_on_c, 9, 51, 0
4, 50400, Note_on_c, 9, 51, 74
4, 50435, Note_on_c, 9, 51, 0
4, 50460, Note_on_c, 9, 51, 71
4, 50490, Note_on_c, 9, 38, 50
4, 50496, Note_on_c, 9, 38, 0
4, 50511, Note_on_c, 9, 51, 0
4, 50520, Note_on_c, 9, 53, 71
4, 50520, Note_on_c, 9, 38, 48
4, 50530, Note_on_c, 9, 38, 0
4, 50551, Note_on_c, 9, 53, 0
4, 50580, Note_on_c, 9, 51, 63
4, 50597, Note_on_c, 9, 51, 0
4, 50640, Note_on_c, 9, 51, 51
4, 50651, Note_on_c, 9, 51, 0
4, 50700, Note_on_c, 9, 51, 68
4, 50700, Note_on_c, 9, 44, 42
4, 50707, Note_on_c, 9, 44, 0
4, 50780, Note_on_c, 9, 51, 0
4, 50820, Note_on_c, 9, 51, 64
4, 50832, Note_on_c, 9, 51, 0
4, 50940, Note_on_c, 9, 44, 50
4, 50952, Note_on_c, 9, 44, 0
4, 50970, Note_on_c, 9, 51, 61
4, 50978, Note_on_c, 9, 51, 0
4, 51000, Note_on_c, 9, 51, 59
4, 51054, Note_on_c, 9, 51, 0
4, 51060, Note_on_c, 9, 44, 40
4, 51073, Note_on_c, 9, 44, 0
4, 51120, Note_on_c, 9, 51, 36
4, 51138, Note_on_c, 9, 51, 0
4, 51180, Note_on_c, 9, 51, 57
4, 51195, Note_on_c, 9, 51, 0
4, 51240, Note_on_c, 9, 53, 60
4, 51248, Note_on_c, 9, 53, 0
4, 51270, Note_on_c, 9, 53, 60
4, 51289, Note_on_c, 9, 53, 0
4, 51300, Note_on_c, 9, 51, 55
4, 51331, Note_on_c, 9, 51, 0
4, 51480, Note_on_c, 9, 51, 68
4, 51490, Note_on_c, 9, 51, 0
4, 51510, Note_on_c, 9, 51, 69
4, 51525, Note_on_c, 9, 51, 0
4, 51600, Note_on_c, 9, 36, 33
4, 51609, Note_on_c, 9, 36, 0
4, 51630, Note_on_c, 9, 36, 32
4, 51651, Note_on_c, 9, 36, 0
4, 51660, Note_on_c, 9, 51, 48
4, 51668, Note_on_c, 9, 51, 0
4, 51690, Note_on_c, 9, 51, 62
4, 51703, Note_on_c, 9, 51, 0
4, 51720, Note_on_c, 9, 36, 35
4, 51728, Note_on_c, 9, 36, 0
4, 51750, Note_on_c, 9, 51, 67
4, 51750, Note_on_c, 9, 36, 32
4, 51758, Note_on_c, 9, 36, 0
4, 51764, Note_on_c, 9, 51, 0
4, 51780, Note_on_c, 9, 51, 77
4, 51810, Note_on_c, 9, 36, 46
4, 51816, Note_on_c, 9, 51, 0
4, 51819, Note_on_c, 9, 36, 0
4, 51840, Note_on_c, 9, 51, 34
4, 51840, Note_on_c, 9, 57, 57
4, 51840, Note_on_c, 9, 36, 35
4, 51847, Note_on_c, 9, 51, 0
4, 51855, Note_on_c, 9, 57, 0
4, 51862, Note_on_c, 9, 36, 0
4, 51870, Note_on_c, 9, 51, 64
4, 51882, Note_on_c, 9, 51, 0
4, 51900, Note_on_c, 9, 51, 70
4, 51933, Note_on_c, 9, 51, 0
4, 51960, Note_on_c, 9, 51, 71
4, 51960, Note_on_c, 9, 53, 72
4, 51992, Note_on_c, 9, 51, 0
4, 51997, Note_on_c, 9, 53, 0
4, 52020, Note_on_c, 9, 51, 50
4, 52031, Note_on_c, 9, 51, 0
4, 52050, Note_on_c, 9, 51, 77
4, 52050, Note_on_c, 9, 53, 75
4, 52079, Note_on_c, 9, 51, 0
4, 52084, Note_on_c, 9, 53, 0
4, 52110, Note_on_c, 9, 51, 53
4, 52119, Note_on_c, 9, 51, 0
4, 52140, Note_on_c, 9, 51, 68
4, 52140, Note_on_c, 9, 53, 72
4, 52177, Note_on_c, 9, 53, 0
4, 52178, Note_on_c, 9, 51, 0
4, 52200, Note_on_c, 9, 51, 40
4, 52209, Note_on_c, 9, 51, 0
4, 52230, Note_on_c, 9, 51, 59
4, 52241, Note_on_c, 9, 51, 0
4, 52260, Note_on_c, 9, 44, 60
4, 52270, Note_on_c, 9, 44, 0
4, 52290, Note_on_c, 9, 51, 25
4, 52302, Note_on_c, 9, 51, 0
4, 52320, Note_on_c, 9, 51, 58
4, 52334, Note_on_c, 9, 51, 0
4, 52410, Note_on_c, 9, 51, 53
4, 52415, Note_on_c, 9, 51, 0
4, 52440, Note_on_c, 9, 51, 74
4, 52462, Note_on_c, 9, 51, 0
4, 52530, Note_on_c, 9, 36, 42
4, 52538, Note_on_c, 9, 36, 0
4, 52560, Note_on_c, 9, 51, 37
4, 52560, Note_on_c, 9, 51, 54
4, 52560, Note_on_c, 9, 36, 34
4, 52565, Note_on_c, 9, 51, 0
4, 52579, Note_on_c, 9, 36, 0
4, 52620, Note_on_c, 9, 36, 35
4, 52634, Note_on_c, 9, 51, 0
4, 52638, Note_on_c, 9, 36, 0
4, 52680, Note_on_c, 9, 51, 51
4, 52680, Note_on_c, 9, 57, 68
4, 52686, Note_on_c, 9, 57, 0
4, 52686, Note_on_c, 9, 51, 0
4, 52770, Note_on_c, 9, 51, 45
4, 52778, Note_on_c, 9, 51, 0
4, 52800, Note_on_c, 9, 51, 63
4, 52820, Note_on_c, 9, 51, 0
4, 52860, Note_on_c, 9, 51, 91
4, 52880, Note_on_c, 9, 51, 0
4, 52920, Note_on_c, 9, 51, 92
4, 52938, Note_on_c, 9, 51, 0
4, 52950, Note_on_c, 9, 51, 57
4, 52961, Note_on_c, 9, 51, 0
4, 52980, Note_on_c, 9, 51, 74
4, 52999, Note_on_c, 9, 51, 0
4, 53040, Note_on_c, 9, 51, 77
4, 53050, Note_on_c, 9, 51, 0
4, 53130, Note_on_c, 9, 44, 38
4, 53137, Note_on_c, 9, 44, 0
4, 53160, Note_on_c, 9, 44, 42
4, 53167, Note_on_c, 9, 44, 0
4, 53220, Note_on_c, 9, 53, 76
4, 53230, Note_on_c, 9, 53, 0
4, 53280, Note_on_c, 9, 51, 40
4, 53285, Note_on_c, 9, 51, 0
4, 53340, Note_on_c, 9, 51, 73
4, 53340, Note_on_c, 9, 44, 45
4, 53346, Note_on_c, 9, 44, 0
4, 53350, Note_on_c, 9, 51, 0
4, 53400, Note_on_c, 9, 51, 72
4, 53411, Note_on_c, 9, 51, 0
4, 53430, Note_on_c, 9, 51, 67
4, 53442, Note_on_c, 9, 51, 0
4, 53460, Note_on_c, 9, 51, 39
4, 53471, Note_on_c, 9, 51, 0
4, 53520, Note_on_c, 9, 51, 49
4, 53520, Note_on_c, 9, 40, 46
4, 53531, Note_on_c, 9, 40, 0
4, 53531, Note_on_c, 9, 51, 0
4, 53550, Note_on_c, 9, 40, 39
4, 53562, Note_on_c, 9, 40, 0
4, 53580, Note_on_c, 9, 51, 52
4, 53600, Note_on_c, 9, 51, 0
4, 53640, Note_on_c, 9, 51, 52
4, 53663, Note_on_c, 9, 51, 0
4, 53700, Note_on_c, 9, 51, 83
4, 53700, Note_on_c, 9, 40, 39
4, 53706, Note_on_c, 9, 40, 0
4, 53715, Note_on_c, 9, 51, 0
4, 53760, Note_on_c, 9, 51, 91
4, 53774, Note_on_c, 9, 51, 0
4, 53820, Note_on_c, 9, 51, 52
4, 53825, Note_on_c, 9, 51, 0
4, 53940, Note_on_c, 9, 51, 40
4, 53946, Note_on_c, 9, 51, 0
4, 53970, Note_on_c, 9, 51, 67
4, 53976, Note_on_c, 9, 51, 0
4, 54000, Note_on_c, 9, 51, 71
4, 54013, Note_on_c, 9, 51, 0
4, 54060, Note_on_c, 9, 51, 70
4, 54073, Note_on_c, 9, 51, 0
4, 54120, Note_on_c, 9, 53, 67
4, 54137, Note_on_c, 9, 53, 0
4, 54180, Note_on_c, 9, 51, 60
4, 54192, Note_on_c, 9, 51, 0
4, 54360, Note_on_c, 9, 51, 65
4, 54372, Note_on_c, 9, 51, 0
4, 54450, Note_on_c, 9, 51, 47
4, 54450, Note_on_c, 9, 40, 28
4, 54458, Note_on_c, 9, 40, 0
4, 54461, Note_on_c, 9, 51, 0
4, 54480, Note_on_c, 9, 51, 64
4, 54480, Note_on_c, 9, 40, 40
4, 54497, Note_on_c, 9, 40, 0
4, 54513, Note_on_c, 9, 51, 0
4, 54570, Note_on_c, 9, 51, 47
4, 54570, Note_on_c, 9, 40, 34
4, 54580, Note_on_c, 9, 40, 0
4, 54581, Note_on_c, 9, 51, 0
4, 54600, Note_on_c, 9, 51, 71
4, 54600, Note_on_c, 9, 40, 51
4, 54617, Note_on_c, 9, 40, 0
4, 54629, Note_on_c, 9, 51, 0
4, 54660, Note_on_c, 9, 51, 75
4, 54690, Note_on_c, 9, 51, 0
4, 54690, Note_on_c, 9, 40, 44
4, 54704, Note_on_c, 9, 40, 0
4, 54720, Note_on_c, 9, 51, 70
4, 54720, Note_on_c, 9, 36, 47
4, 54720, Note_on_c, 9, 57, 51
4, 54731, Note_on_c, 9, 57, 0
4, 54743, Note_on_c, 9, 36, 0
4, 54755, Note_on_c, 9, 51, 0
4, 54780, Note_on_c, 9, 36, 50
4, 54780, Note_on_c, 9, 57, 66
4, 54792, Note_on_c, 9, 57, 0
4, 54813, Note_on_c, 9, 36, 0
4, 54840, Note_on_c, 9, 51, 75
4, 54871, Note_on_c, 9, 51, 0
4, 54960, Note_on_c, 9, 51, 72
4, 54973, Note_on_c, 9, 51, 0
4, 54990, Note_on_c, 9, 51, 56
4, 55001, Note_on_c, 9, 51, 0
4, 55020, Note_on_c, 9, 51, 57
4, 55039, Note_on_c, 9, 51, 0
4, 55080, Note_on_c, 9, 51, 82
4, 55080, Note_on_c, 9, 45, 23
4, 55088, Note_on_c, 9, 45, 0
4, 55093, Note_on_c, 9, 51, 0
4, 55110, Note_on_c, 9, 45, 48
4, 55120, Note_on_c, 9, 45, 0
4, 55170, Note_on_c, 9, 51, 64
4, 55180, Note_on_c, 9, 51, 0
4, 55200, Note_on_c, 9, 51, 59
4, 55217, Note_on_c, 9, 51, 0
4, 55260, Note_on_c, 9, 51, 81
4, 55273, Note_on_c, 9, 51, 0
4, 55350, Note_on_c, 9, 51, 59
4, 55360, Note_on_c, 9, 51, 0
4, 55380, Note_on_c, 9, 51, 62
4, 55380, Note_on_c, 9, 45, 35
4, 55387, Note_on_c, 9, 45, 0
4, 55394, Note_on_c, 9, 51, 0
4, 55410, Note_on_c, 9, 45, 43
4, 55416, Note_on_c, 9, 45, 0
4, 55440, Note_on_c, 9, 51, 83
4, 55454, Note_on_c, 9, 51, 0
4, 55530, Note_on_c, 9, 51, 49
4, 55537, Note_on_c, 9, 51, 0
4, 55560, Note_on_c, 9, 51, 62
4, 55575, Note_on_c, 9, 51, 0
4, 55620, Note_on_c, 9, 51, 86
4, 55635, Note_on_c, 9, 51, 0
4, 55710, Note_on_c, 9, 51, 46
4, 55721, Note_on_c, 9, 51, 0
4, 55740, Note_on_c, 9, 51, 60
4, 55754, Note_on_c, 9, 51, 0
4, 55800, Note_on_c, 9, 51, 77
4, 55812, Note_on_c, 9, 51, 0
4, 55920, Note_on_c, 9, 51, 68
4, 55927, Note_on_c, 9, 51, 0
4, 55980, Note_on_c, 9, 51, 49
4, 55990, Note_on_c, 9, 51, 0
4, 56040, Note_on_c, 9, 51, 65
4, 56056, Note_on_c, 9, 51, 0
4, 56100, Note_on_c, 9, 51, 74
4, 56115, Note_on_c, 9, 51, 0
4, 56160, Note_on_c, 9, 51, 62
4, 56178, Note_on_c, 9, 51, 0
4, 56220, Note_on_c, 9, 51, 33
4, 56220, Note_on_c, 9, 44, 53
4, 56230, Note_on_c, 9, 44, 0
4, 56247, Note_on_c, 9, 51, 0
4, 56280, Note_on_c, 9, 51, 59
4, 56306, Note_on_c, 9, 51, 0
4, 56340, Note_on_c, 9, 51, 51
4, 56346, Note_on_c, 9, 51, 0
4, 56370, Note_on_c, 9, 51, 62
4, 56378, Note_on_c, 9, 51, 0
4, 56490, Note_on_c, 9, 51, 53
4, 56490, Note_on_c, 9, 45, 37
4, 56495, Note_on_c, 9, 45, 0
4, 56501, Note_on_c, 9, 51, 0
4, 56520, Note_on_c, 9, 51, 46
4, 56520, Note_on_c, 9, 45, 42
4, 56530, Note_on_c, 9, 45, 0
4, 56541, Note_on_c, 9, 51, 0
4, 56580, Note_on_c, 9, 40, 30
4, 56598, Note_on_c, 9, 40, 0
4, 56640, Note_on_c, 9, 51, 42
4, 56640, Note_on_c, 9, 40, 35
4, 56654, Note_on_c, 9, 51, 0
4, 56657, Note_on_c, 9, 40, 0
4, 56670, Note_on_c, 9, 51, 54
4, 56681, Note_on_c, 9, 51, 0
4, 56700, Note_on_c, 9, 51, 37
4, 56714, Note_on_c, 9, 51, 0
4, 56760, Note_on_c, 9, 51, 69
4, 56767, Note_on_c, 9, 51, 0
4, 56850, Note_on_c, 9, 51, 35
4, 56856, Note_on_c, 9, 51, 0
4, 56880, Note_on_c, 9, 51, 59
4, 56900, Note_on_c, 9, 51, 0
4, 56940, Note_on_c, 9, 45, 32
4, 56947, Note_on_c, 9, 45, 0
4, 56970, Note_on_c, 9, 51, 48
4, 56970, Note_on_c, 9, 45, 49
4, 56976, Note_on_c, 9, 45, 0
4, 56981, Note_on_c, 9, 51, 0
4, 57000, Note_on_c, 9, 51, 43
4, 57000, Note_on_c, 9, 36, 25
4, 57017, Note_on_c, 9, 51, 0
4, 57018, Note_on_c, 9, 36, 0
4, 57060, Note_on_c, 9, 36, 40
4, 57077, Note_on_c, 9, 36, 0
4, 57120, Note_on_c, 9, 51, 68
4, 57133, Note_on_c, 9, 51, 0
4, 57180, Note_on_c, 9, 51, 38
4, 57186, Note_on_c, 9, 51, 0
4, 57240, Note_on_c, 9, 51, 57
4, 57257, Note_on_c, 9, 51, 0
4, 57300, Note_on_c, 9, 51, 70
4, 57317, Note_on_c, 9, 51, 0
4, 57390, Note_on_c, 9, 51, 55
4, 57399, Note_on_c, 9, 51, 0
4, 57420, Note_on_c, 9, 51, 55
4, 57446, Note_on_c, 9, 51, 0
4, 57480, Note_on_c, 9, 51, 81
4, 57503, Note_on_c, 9, 51, 0
4, 57510, Note_on_c, 9, 40, 50
4, 57522, Note_on_c, 9, 40, 0
4, 57540, Note_on_c, 9, 40, 22
4, 57552, Note_on_c, 9, 40, 0
4, 57570, Note_on_c, 9, 51, 67
4, 57570, Note_on_c, 9, 40, 44
4, 57580, Note_on_c, 9, 51, 0
4, 57587, Note_on_c, 9, 40, 0
4, 57600, Note_on_c, 9, 51, 68
4, 57600, Note_on_c, 9, 36, 46
4, 57600, Note_on_c, 9, 57, 66
4, 57619, Note_on_c, 9, 51, 0
4, 57620, Note_on_c, 9, 57, 0
4, 57630, Note_on_c, 9, 36, 0
4, 57660, Note_on_c, 9, 51, 70
4, 57660, Note_on_c, 9, 53, 50
4, 57660, Note_on_c, 9, 52, 57
4, 57665, Note_on_c, 9, 52, 0
4, 57675, Note_on_c, 9, 51, 0
4, 57681, Note_on_c, 9, 53, 0
4, 57810, Note_on_c, 9, 51, 33
4, 57816, Note_on_c, 9, 51, 0
4, 57840, Note_on_c, 9, 51, 70
4, 57871, Note_on_c, 9, 51, 0
4, 57930, Note_on_c, 9, 51, 55
4, 57938, Note_on_c, 9, 51, 0
4, 57960, Note_on_c, 9, 51, 59
4, 57976, Note_on_c, 9, 51, 0
4, 57990, Note_on_c, 9, 40, 53
4, 58007, Note_on_c, 9, 40, 0
4, 58020, Note_on_c, 9, 59, 73
4, 58020, Note_on_c, 9, 36, 28
4, 58037, Note_on_c, 9, 59, 0
4, 58039, Note_on_c, 9, 36, 0
4, 58080, Note_on_c, 9, 36, 55
4, 58080, Note_on_c, 9, 57, 58
4, 58094, Note_on_c, 9, 57, 0
4, 58098, Note_on_c, 9, 36, 0
4, 58140, Note_on_c, 9, 51, 72
4, 58140, Note_on_c, 9, 59, 63
4, 58140, Note_on_c, 9, 57, 65
4, 58140, Note_on_c, 9, 36, 51
4, 58147, Note_on_c, 9, 59, 0
4, 58152, Note_on_c, 9, 51, 0
4, 58159, Note_on_c, 9, 57, 0
4, 58176, Note_on_c, 9, 36, 0
4, 58200, Note_on_c, 9, 51, 77
4, 58200, Note_on_c, 9, 59, 75
4, 58214, Note_on_c, 9, 59, 0
4, 58216, Note_on_c, 9, 51, 0
4, 58260, Note_on_c, 9, 51, 56
4, 58271, Note_on_c, 9, 51, 0
4, 58320, Note_on_c, 9, 51, 78
4, 58320, Note_on_c, 9, 59, 75
4, 58329, Note_on_c, 9, 59, 0
4, 58329, Note_on_c, 9, 51, 0
4, 58380, Note_on_c, 9, 51, 81
4, 58380, Note_on_c, 9, 59, 74
4, 58392, Note_on_c, 9, 59, 0
4, 58392, Note_on_c, 9, 51, 0
4, 58440, Note_on_c, 9, 53, 71
4, 58453, Note_on_c, 9, 53, 0
4, 58500, Note_on_c, 9, 51, 77
4, 58500, Note_on_c, 9, 59, 72
4, 58509, Note_on_c, 9, 59, 0
4, 58512, Note_on_c, 9, 51, 0
4, 58560, Note_on_c, 9, 51, 83
4, 58560, Note_on_c, 9, 59, 77
4, 58572, Note_on_c, 9, 59, 0
4, 58572, Note_on_c, 9, 51, 0
4, 58620, Note_on_c, 9, 53, 71
4, 58633, Note_on_c, 9, 53, 0
4, 58680, Note_on_c, 9, 51, 76
4, 58680, Note_on_c, 9, 59, 62
4, 58686, Note_on_c, 9, 59, 0
4, 58689, Note_on_c, 9, 51, 0
4, 58740, Note_on_c, 9, 51, 84
4, 58740, Note_on_c, 9, 59, 75
4, 58745, Note_on_c, 9, 59, 0
4, 58752, Note_on_c, 9, 51, 0
4, 58800, Note_on_c, 9, 40, 22
4, 58808, Note_on_c, 9, 40, 0
4, 58830, Note_on_c, 9, 40, 39
4, 58838, Note_on_c, 9, 40, 0
4, 58860, Note_on_c, 9, 36, 39
4, 58874, Note_on_c, 9, 36, 0
4, 58920, Note_on_c, 9, 51, 44
4, 58920, Note_on_c, 9, 59, 49
4, 58926, Note_on_c, 9, 59, 0
4, 58931, Note_on_c, 9, 51, 0
4, 58950, Note_on_c, 9, 51, 52
4, 58950, Note_on_c, 9, 59, 72
4, 58961, Note_on_c, 9, 59, 0
4, 58964, Note_on_c, 9, 51, 0
4, 58980, Note_on_c, 9, 51, 68
4, 58980, Note_on_c, 9, 59, 84
4, 59000, Note_on_c, 9, 59, 0
4, 59018, Note_on_c, 9, 51, 0
4, 59040, Note_on_c, 9, 53, 55
4, 59048, Note_on_c, 9, 53, 0
4, 59070, Note_on_c, 9, 53, 64
4, 59078, Note_on_c, 9, 53, 0
4, 59130, Note_on_c, 9, 51, 46
4, 59140, Note_on_c, 9, 51, 0
4, 59160, Note_on_c, 9, 51, 42
4, 59177, Note_on_c, 9, 51, 0
4, 59220, Note_on_c, 9, 59, 62
4, 59220, Note_on_c, 9, 51, 61
4, 59232, Note_on_c, 9, 59, 0
4, 59236, Note_on_c, 9, 51, 0
4, 59310, Note_on_c, 9, 51, 52
4, 59325, Note_on_c, 9, 51, 0
4, 59370, Note_on_c, 9, 51, 59
4, 59388, Note_on_c, 9, 51, 0
4, 59400, Note_on_c, 9, 59, 74
4, 59426, Note_on_c, 9, 59, 0
4, 59430, Note_on_c, 9, 51, 71
4, 59449, Note_on_c, 9, 51, 0
4, 59460, Note_on_c, 9, 59, 89
4, 59489, Note_on_c, 9, 59, 0
4, 59490, Note_on_c, 9, 51, 88
4, 59490, Note_on_c, 9, 40, 25
4, 59499, Note_on_c, 9, 40, 0
4, 59509, Note_on_c, 9, 51, 0
4, 59520, Note_on_c, 9, 59, 94
4, 59520, Note_on_c, 9, 40, 39
4, 59533, Note_on_c, 9, 40, 0
4, 59550, Note_on_c, 9, 59, 0
4, 59580, Note_on_c, 9, 59, 55
4, 59580, Note_on_c, 9, 40, 46
4, 59587, Note_on_c, 9, 59, 0
4, 59595, Note_on_c, 9, 40, 0
4, 59700, Note_on_c, 9, 51, 57
4, 59705, Note_on_c, 9, 51, 0
4, 59730, Note_on_c, 9, 51, 74
4, 59740, Note_on_c, 9, 51, 0
4, 59760, Note_on_c, 9, 51, 78
4, 59779, Note_on_c, 9, 51, 0
4, 59850, Note_on_c, 9, 51, 67
4, 59863, Note_on_c, 9, 51, 0
4, 59880, Note_on_c, 9, 51, 77
4, 59901, Note_on_c, 9, 51, 0
4, 59970, Note_on_c, 9, 51, 72
4, 59980, Note_on_c, 9, 51, 0
4, 60000, Note_on_c, 9, 51, 54
4, 60012, Note_on_c, 9, 51, 0
4, 60060, Note_on_c, 9, 51, 28
4, 60060, Note_on_c, 9, 37, 62
4, 60068, Note_on_c, 9, 51, 0
4, 60070, Note_on_c, 9, 37, 0
4, 60120, Note_on_c, 9, 51, 56
4, 60149, Note_on_c, 9, 51, 0
4, 60180, Note_on_c, 9, 51, 60
4, 60180, Note_on_c, 9, 37, 55
4, 60196, Note_on_c, 9, 51, 0
4, 60197, Note_on_c, 9, 37, 0
4, 60240, Note_on_c, 9, 51, 62
4, 60257, Note_on_c, 9, 51, 0
4, 60300, Note_on_c, 9, 51, 71
4, 60300, Note_on_c, 9, 37, 48
4, 60314, Note_on_c, 9, 51, 0
4, 60323, Note_on_c, 9, 37, 0
4, 60360, Note_on_c, 9, 51, 70
4, 60377, Note_on_c, 9, 51, 0
4, 60420, Note_on_c, 9, 59, 75
4, 60420, Note_on_c, 9, 37, 45
4, 60432, Note_on_c, 9, 59, 0
4, 60441, Note_on_c, 9, 37, 0
4, 60480, Note_on_c, 9, 59, 85
4, 60501, Note_on_c, 9, 59, 0
4, 60600, Note_on_c, 9, 59, 76
4, 60612, Note_on_c, 9, 59, 0
4, 60630, Note_on_c, 9, 59, 68
4, 60636, Note_on_c, 9, 59, 0
4, 60720, Note_on_c, 9, 59, 74
4, 60735, Note_on_c, 9, 59, 0
4, 60780, Note_on_c, 9, 51, 53
4, 60791, Note_on_c, 9, 51, 0
4, 60810, Note_on_c, 9, 36, 37
4, 60822, Note_on_c, 9, 36, 0
4, 60840, Note_on_c, 9, 53, 68
4, 60840, Note_on_c, 9, 36, 31
4, 60845, Note_on_c, 9, 53, 0
4, 60863, Note_on_c, 9, 36, 0
4, 60870, Note_on_c, 9, 53, 68
4, 60878, Note_on_c, 9, 53, 0
4, 60900, Note_on_c, 9, 36, 41
4, 60919, Note_on_c, 9, 36, 0
4, 60960, Note_on_c, 9, 53, 73
4, 60967, Note_on_c, 9, 53, 0
4, 60967, End_track
0, 0, End_of_file
