0, 0, Header, 0, 1, 120
1, 0, Start_track
1, 0, Title_t, "Cast Your Fate To the Winds"
1, 0, Text_t, "Vince Guaraldi"
1, 0, Text_t, "dougmck@pipeline.com.au\012"
1, 0, Time_signature, 4, 2, 24, 8
1, 0, Key_signature, 0, "major"
1, 0, Tempo, 465116
1, 0, Program_c, 0, 0
1, 7, Note_on_c, 0, 76, 44
1, 8, Note_on_c, 0, 53, 50
1, 9, Note_on_c, 0, 67, 57
1, 100, Control_c, 0, 64, 127
1, 146, Note_on_c, 0, 72, 45
1, 150, Note_on_c, 0, 67, 0
1, 164, Note_on_c, 0, 76, 0
1, 218, Note_on_c, 0, 67, 64
1, 239, Control_c, 0, 64, 0
1, 257, Control_c, 0, 64, 127
1, 297, Note_on_c, 0, 53, 0
1, 341, Note_on_c, 0, 53, 35
1, 354, Note_on_c, 0, 72, 0
1, 372, Note_on_c, 0, 67, 0
1, 395, Note_on_c, 0, 53, 0
1, 463, Note_on_c, 0, 65, 73
1, 475, Note_on_c, 0, 48, 27
1, 484, Note_on_c, 0, 65, 0
1, 485, Note_on_c, 0, 48, 0
1, 527, Control_c, 0, 64, 0
1, 529, Note_on_c, 0, 53, 71
1, 530, Note_on_c, 0, 69, 87
1, 530, Note_on_c, 0, 60, 88
1, 531, Note_on_c, 0, 41, 64
1, 572, Control_c, 0, 64, 127
1, 593, Note_on_c, 0, 69, 0
1, 617, Note_on_c, 0, 60, 0
1, 645, Note_on_c, 0, 53, 0
1, 651, Note_on_c, 0, 65, 53
1, 709, Note_on_c, 0, 65, 0
1, 718, Note_on_c, 0, 60, 52
1, 719, Note_on_c, 0, 57, 50
1, 720, Control_c, 0, 64, 0
1, 723, Note_on_c, 0, 53, 32
1, 752, Control_c, 0, 64, 127
1, 805, Note_on_c, 0, 53, 0
1, 843, Note_on_c, 0, 57, 0
1, 845, Note_on_c, 0, 53, 42
1, 861, Note_on_c, 0, 60, 0
1, 901, Note_on_c, 0, 53, 0
1, 983, Note_on_c, 0, 41, 0
1, 984, Note_on_c, 0, 53, 52
1, 999, Note_on_c, 0, 53, 0
1, 1047, Note_on_c, 0, 76, 79
1, 1048, Note_on_c, 0, 67, 91
1, 1051, Control_c, 0, 64, 0
1, 1051, Note_on_c, 0, 53, 61
1, 1051, Note_on_c, 0, 55, 66
1, 1064, Note_on_c, 0, 55, 0
1, 1105, Note_on_c, 0, 53, 0
1, 1105, Control_c, 0, 64, 127
1, 1233, Note_on_c, 0, 53, 64
1, 1267, Note_on_c, 0, 76, 0
1, 1268, Note_on_c, 0, 67, 0
1, 1340, Note_on_c, 0, 72, 84
1, 1375, Note_on_c, 0, 53, 0
1, 1401, Note_on_c, 0, 67, 50
1, 1453, Note_on_c, 0, 67, 0
1, 1460, Note_on_c, 0, 64, 48
1, 1471, Note_on_c, 0, 64, 0
1, 1476, Note_on_c, 0, 72, 0
1, 1523, Note_on_c, 0, 70, 60
1, 1525, Note_on_c, 0, 62, 60
1, 1526, Note_on_c, 0, 65, 51
1, 1527, Control_c, 0, 64, 0
1, 1529, Note_on_c, 0, 53, 39
1, 1615, Control_c, 0, 64, 127
1, 1646, Note_on_c, 0, 41, 44
1, 1648, Note_on_c, 0, 65, 0
1, 1652, Note_on_c, 0, 70, 0
1, 1670, Note_on_c, 0, 62, 0
1, 1694, Note_on_c, 0, 53, 0
1, 1714, Note_on_c, 0, 65, 55
1, 1761, Control_c, 0, 64, 0
1, 1772, Note_on_c, 0, 62, 54
1, 1773, Note_on_c, 0, 58, 48
1, 1832, Note_on_c, 0, 53, 68
1, 1862, Note_on_c, 0, 58, 0
1, 1875, Note_on_c, 0, 62, 0
1, 1895, Note_on_c, 0, 58, 33
1, 1897, Control_c, 0, 64, 127
1, 1910, Note_on_c, 0, 58, 0
1, 1910, Note_on_c, 0, 65, 0
1, 1919, Note_on_c, 0, 41, 0
1, 1961, Note_on_c, 0, 41, 62
1, 1987, Note_on_c, 0, 53, 0
1, 2020, Control_c, 0, 64, 0
1, 2022, Note_on_c, 0, 41, 0
1, 2024, Note_on_c, 0, 76, 79
1, 2025, Note_on_c, 0, 67, 96
1, 2026, Note_on_c, 0, 53, 84
1, 2058, Control_c, 0, 64, 127
1, 2079, Note_on_c, 0, 76, 0
1, 2088, Note_on_c, 0, 67, 0
1, 2137, Note_on_c, 0, 72, 62
1, 2139, Note_on_c, 0, 64, 60
1, 2150, Note_on_c, 0, 64, 0
1, 2156, Note_on_c, 0, 72, 0
1, 2190, Note_on_c, 0, 53, 0
1, 2202, Control_c, 0, 64, 0
1, 2203, Note_on_c, 0, 67, 50
1, 2206, Note_on_c, 0, 60, 34
1, 2207, Note_on_c, 0, 53, 58
1, 2210, Note_on_c, 0, 64, 38
1, 2292, Note_on_c, 0, 53, 0
1, 2326, Note_on_c, 0, 53, 62
1, 2343, Note_on_c, 0, 64, 0
1, 2367, Control_c, 0, 64, 127
1, 2409, Note_on_c, 0, 60, 0
1, 2425, Note_on_c, 0, 67, 0
1, 2438, Note_on_c, 0, 65, 51
1, 2444, Note_on_c, 0, 53, 0
1, 2458, Note_on_c, 0, 65, 0
1, 2479, Control_c, 0, 64, 0
1, 2494, Note_on_c, 0, 69, 61
1, 2494, Note_on_c, 0, 65, 54
1, 2496, Note_on_c, 0, 60, 52
1, 2496, Note_on_c, 0, 53, 48
1, 2515, Control_c, 0, 64, 127
1, 2524, Note_on_c, 0, 69, 0
1, 2525, Note_on_c, 0, 65, 0
1, 2540, Note_on_c, 0, 60, 0
1, 2584, Note_on_c, 0, 53, 0
1, 2612, Note_on_c, 0, 53, 26
1, 2616, Note_on_c, 0, 57, 32
1, 2616, Note_on_c, 0, 65, 45
1, 2652, Note_on_c, 0, 53, 0
1, 2659, Note_on_c, 0, 57, 0
1, 2668, Note_on_c, 0, 65, 0
1, 2682, Control_c, 0, 64, 0
1, 2683, Note_on_c, 0, 57, 49
1, 2684, Note_on_c, 0, 60, 54
1, 2686, Note_on_c, 0, 53, 42
1, 2744, Control_c, 0, 64, 127
1, 2789, Note_on_c, 0, 57, 0
1, 2810, Note_on_c, 0, 60, 0
1, 2814, Note_on_c, 0, 57, 54
1, 2847, Note_on_c, 0, 57, 0
1, 2873, Note_on_c, 0, 60, 63
1, 2880, Note_on_c, 0, 60, 44
1, 2883, Note_on_c, 0, 45, 47
1, 2884, Note_on_c, 0, 61, 54
1, 2884, Note_on_c, 0, 53, 36
1, 2890, Note_on_c, 0, 60, 0
1, 2892, Control_c, 0, 64, 0
1, 2902, Note_on_c, 0, 61, 0
1, 2908, Note_on_c, 0, 60, 0
1, 2910, Note_on_c, 0, 62, 39
1, 2919, Note_on_c, 0, 53, 0
1, 2936, Note_on_c, 0, 62, 0
1, 2944, Control_c, 0, 64, 127
1, 2946, Note_on_c, 0, 65, 84
1, 2983, Note_on_c, 0, 65, 0
1, 2986, Note_on_c, 0, 53, 0
1, 2996, Note_on_c, 0, 45, 0
1, 3001, Control_c, 0, 64, 0
1, 3007, Note_on_c, 0, 62, 31
1, 3010, Note_on_c, 0, 53, 58
1, 3011, Note_on_c, 0, 58, 54
1, 3013, Note_on_c, 0, 46, 34
1, 3045, Control_c, 0, 64, 127
1, 3087, Note_on_c, 0, 53, 0
1, 3106, Note_on_c, 0, 46, 0
1, 3128, Note_on_c, 0, 62, 0
1, 3132, Note_on_c, 0, 53, 44
1, 3145, Note_on_c, 0, 53, 0
1, 3156, Note_on_c, 0, 58, 0
1, 3189, Note_on_c, 0, 43, 48
1, 3213, Note_on_c, 0, 43, 0
1, 3249, Control_c, 0, 64, 0
1, 3252, Note_on_c, 0, 58, 51
1, 3253, Note_on_c, 0, 48, 48
1, 3255, Note_on_c, 0, 62, 44
1, 3255, Note_on_c, 0, 65, 48
1, 3255, Note_on_c, 0, 36, 40
1, 3256, Note_on_c, 0, 53, 36
1, 3288, Control_c, 0, 64, 127
1, 3324, Note_on_c, 0, 53, 0
1, 3335, Note_on_c, 0, 48, 0
1, 3346, Note_on_c, 0, 65, 0
1, 3354, Note_on_c, 0, 36, 0
1, 3368, Note_on_c, 0, 53, 31
1, 3382, Note_on_c, 0, 53, 0
1, 3382, Note_on_c, 0, 58, 0
1, 3408, Note_on_c, 0, 62, 0
1, 3438, Note_on_c, 0, 57, 49
1, 3439, Note_on_c, 0, 41, 50
1, 3441, Note_on_c, 0, 65, 47
1, 3441, Note_on_c, 0, 29, 41
1, 3444, Note_on_c, 0, 60, 48
1, 3451, Control_c, 0, 64, 0
1, 3464, Note_on_c, 0, 57, 0
1, 3479, Note_on_c, 0, 60, 0
1, 3486, Note_on_c, 0, 65, 0
1, 3500, Control_c, 0, 64, 127
1, 3553, Note_on_c, 0, 29, 0
1, 3575, Note_on_c, 0, 41, 0
1, 3598, Control_c, 0, 64, 0
1, 3604, Note_on_c, 0, 41, 44
1, 3606, Note_on_c, 0, 65, 59
1, 3607, Note_on_c, 0, 29, 31
1, 3609, Note_on_c, 0, 60, 55
1, 3610, Note_on_c, 0, 57, 50
1, 3714, Note_on_c, 0, 57, 0
1, 3722, Control_c, 0, 64, 127
1, 3738, Note_on_c, 0, 60, 0
1, 3748, Note_on_c, 0, 65, 0
1, 3750, Note_on_c, 0, 41, 0
1, 3770, Note_on_c, 0, 29, 0
1, 3789, Note_on_c, 0, 33, 70
1, 3790, Note_on_c, 0, 65, 78
1, 3790, Note_on_c, 0, 41, 64
1, 3792, Note_on_c, 0, 60, 84
1, 3793, Note_on_c, 0, 57, 75
1, 3798, Control_c, 0, 64, 0
1, 3834, Control_c, 0, 64, 127
1, 3864, Note_on_c, 0, 65, 0
1, 3875, Note_on_c, 0, 57, 0
1, 3880, Note_on_c, 0, 60, 0
1, 3939, Note_on_c, 0, 41, 0
1, 3951, Note_on_c, 0, 33, 0
1, 3958, Control_c, 0, 64, 0
1, 3962, Note_on_c, 0, 34, 71
1, 3966, Note_on_c, 0, 58, 91
1, 3966, Note_on_c, 0, 67, 87
1, 3967, Note_on_c, 0, 62, 82
1, 3997, Control_c, 0, 64, 127
1, 4056, Note_on_c, 0, 34, 0
1, 4104, Note_on_c, 0, 67, 0
1, 4105, Note_on_c, 0, 58, 0
1, 4122, Note_on_c, 0, 62, 0
1, 4213, Note_on_c, 0, 60, 64
1, 4217, Note_on_c, 0, 61, 61
1, 4223, Note_on_c, 0, 58, 62
1, 4227, Note_on_c, 0, 48, 38
1, 4229, Control_c, 0, 64, 0
1, 4235, Note_on_c, 0, 61, 0
1, 4241, Note_on_c, 0, 62, 45
1, 4256, Note_on_c, 0, 60, 0
1, 4286, Control_c, 0, 64, 127
1, 4294, Note_on_c, 0, 65, 69
1, 4315, Note_on_c, 0, 58, 0
1, 4326, Note_on_c, 0, 48, 0
1, 4371, Note_on_c, 0, 62, 0
1, 4384, Note_on_c, 0, 65, 0
1, 4407, Note_on_c, 0, 48, 41
1, 4446, Note_on_c, 0, 48, 0
1, 4466, Note_on_c, 0, 65, 58
1, 4467, Note_on_c, 0, 56, 49
1, 4471, Note_on_c, 0, 48, 15
1, 4472, Note_on_c, 0, 41, 47
1, 4474, Note_on_c, 0, 53, 44
1, 4475, Control_c, 0, 64, 0
1, 4481, Note_on_c, 0, 56, 0
1, 4491, Note_on_c, 0, 57, 41
1, 4525, Control_c, 0, 64, 127
1, 4591, Note_on_c, 0, 53, 0
1, 4599, Note_on_c, 0, 48, 0
1, 4643, Note_on_c, 0, 41, 0
1, 4658, Note_on_c, 0, 65, 0
1, 4668, Note_on_c, 0, 57, 0
1, 4694, Note_on_c, 0, 44, 34
1, 4724, Note_on_c, 0, 44, 0
1, 4726, Control_c, 0, 64, 0
1, 4727, Note_on_c, 0, 65, 76
1, 4727, Note_on_c, 0, 45, 74
1, 4729, Note_on_c, 0, 57, 77
1, 4730, Note_on_c, 0, 60, 68
1, 4765, Control_c, 0, 64, 127
1, 4776, Note_on_c, 0, 65, 0
1, 4782, Note_on_c, 0, 57, 0
1, 4790, Note_on_c, 0, 60, 0
1, 4800, Note_on_c, 0, 65, 67
1, 4802, Note_on_c, 0, 60, 48
1, 4803, Note_on_c, 0, 57, 71
1, 4804, Note_on_c, 0, 33, 56
1, 4809, Control_c, 0, 64, 0
1, 4822, Note_on_c, 0, 57, 0
1, 4830, Note_on_c, 0, 65, 0
1, 4831, Note_on_c, 0, 33, 0
1, 4831, Note_on_c, 0, 60, 0
1, 4838, Control_c, 0, 64, 127
1, 4845, Note_on_c, 0, 45, 0
1, 4907, Note_on_c, 0, 67, 79
1, 4909, Note_on_c, 0, 62, 74
1, 4910, Note_on_c, 0, 58, 73
1, 4910, Note_on_c, 0, 46, 62
1, 4910, Note_on_c, 0, 34, 64
1, 4919, Control_c, 0, 64, 0
1, 4965, Control_c, 0, 64, 127
1, 5044, Note_on_c, 0, 34, 0
1, 5058, Note_on_c, 0, 46, 0
1, 5069, Note_on_c, 0, 58, 0
1, 5074, Note_on_c, 0, 62, 0
1, 5075, Note_on_c, 0, 67, 0
1, 5190, Note_on_c, 0, 67, 77
1, 5192, Note_on_c, 0, 64, 81
1, 5192, Note_on_c, 0, 60, 84
1, 5194, Note_on_c, 0, 48, 78
1, 5195, Note_on_c, 0, 36, 76
1, 5196, Control_c, 0, 64, 0
1, 5210, Note_on_c, 0, 60, 0
1, 5221, Note_on_c, 0, 64, 0
1, 5227, Note_on_c, 0, 67, 0
1, 5232, Note_on_c, 0, 36, 0
1, 5235, Note_on_c, 0, 48, 0
1, 5318, Note_on_c, 0, 64, 64
1, 5319, Note_on_c, 0, 37, 60
1, 5319, Note_on_c, 0, 61, 52
1, 5319, Note_on_c, 0, 49, 59
1, 5323, Note_on_c, 0, 57, 57
1, 5332, Note_on_c, 0, 57, 0
1, 5350, Note_on_c, 0, 64, 0
1, 5352, Note_on_c, 0, 37, 0
1, 5354, Note_on_c, 0, 61, 0
1, 5355, Note_on_c, 0, 49, 0
1, 5442, Note_on_c, 0, 57, 57
1, 5443, Note_on_c, 0, 65, 59
1, 5443, Note_on_c, 0, 62, 45
1, 5446, Note_on_c, 0, 50, 46
1, 5447, Note_on_c, 0, 38, 34
1, 5465, Control_c, 0, 64, 127
1, 5544, Note_on_c, 0, 50, 0
1, 5548, Note_on_c, 0, 62, 0
1, 5555, Note_on_c, 0, 65, 0
1, 5567, Note_on_c, 0, 57, 0
1, 5593, Note_on_c, 0, 38, 0
1, 5644, Note_on_c, 0, 42, 57
1, 5662, Note_on_c, 0, 44, 46
1, 5670, Note_on_c, 0, 42, 0
1, 5677, Note_on_c, 0, 44, 0
1, 5681, Note_on_c, 0, 43, 28
1, 5690, Note_on_c, 0, 43, 0
1, 5693, Note_on_c, 0, 58, 79
1, 5694, Note_on_c, 0, 54, 77
1, 5694, Note_on_c, 0, 65, 80
1, 5695, Note_on_c, 0, 44, 77
1, 5696, Note_on_c, 0, 60, 78
1, 5698, Control_c, 0, 64, 0
1, 5737, Note_on_c, 0, 65, 0
1, 5752, Control_c, 0, 64, 127
1, 5758, Note_on_c, 0, 63, 56
1, 5800, Note_on_c, 0, 63, 0
1, 5801, Control_c, 0, 64, 0
1, 5804, Note_on_c, 0, 54, 0
1, 5807, Note_on_c, 0, 60, 0
1, 5810, Note_on_c, 0, 58, 0
1, 5818, Note_on_c, 0, 62, 51
1, 5832, Control_c, 0, 64, 127
1, 5839, Note_on_c, 0, 44, 0
1, 5865, Note_on_c, 0, 62, 0
1, 5893, Note_on_c, 0, 62, 63
1, 5896, Note_on_c, 0, 53, 55
1, 5899, Note_on_c, 0, 59, 49
1, 5903, Note_on_c, 0, 43, 40
1, 5907, Control_c, 0, 64, 0
1, 5964, Control_c, 0, 64, 127
1, 6017, Note_on_c, 0, 31, 74
1, 6039, Control_c, 0, 64, 0
1, 6065, Control_c, 0, 64, 127
1, 6085, Note_on_c, 0, 53, 0
1, 6090, Note_on_c, 0, 43, 0
1, 6102, Note_on_c, 0, 62, 0
1, 6105, Note_on_c, 0, 59, 0
1, 6138, Note_on_c, 0, 34, 49
1, 6140, Note_on_c, 0, 31, 0
1, 6146, Note_on_c, 0, 35, 72
1, 6188, Note_on_c, 0, 34, 0
1, 6189, Note_on_c, 0, 60, 44
1, 6194, Note_on_c, 0, 35, 0
1, 6200, Control_c, 0, 64, 0
1, 6200, Note_on_c, 0, 61, 51
1, 6203, Note_on_c, 0, 36, 64
1, 6222, Note_on_c, 0, 61, 0
1, 6222, Note_on_c, 0, 62, 56
1, 6224, Note_on_c, 0, 60, 0
1, 6253, Note_on_c, 0, 62, 0
1, 6266, Note_on_c, 0, 24, 78
1, 6267, Note_on_c, 0, 65, 76
1, 6268, Note_on_c, 0, 58, 67
1, 6269, Note_on_c, 0, 62, 71
1, 6269, Note_on_c, 0, 53, 67
1, 6301, Note_on_c, 0, 53, 0
1, 6302, Note_on_c, 0, 65, 0
1, 6305, Note_on_c, 0, 58, 0
1, 6309, Note_on_c, 0, 62, 0
1, 6314, Control_c, 0, 64, 127
1, 6325, Note_on_c, 0, 24, 0
1, 6327, Note_on_c, 0, 65, 63
1, 6332, Note_on_c, 0, 58, 47
1, 6333, Note_on_c, 0, 62, 51
1, 6337, Note_on_c, 0, 36, 0
1, 6337, Note_on_c, 0, 53, 25
1, 6355, Note_on_c, 0, 53, 0
1, 6361, Note_on_c, 0, 62, 0
1, 6365, Note_on_c, 0, 65, 0
1, 6367, Note_on_c, 0, 58, 0
1, 6392, Note_on_c, 0, 58, 38
1, 6393, Note_on_c, 0, 62, 40
1, 6395, Note_on_c, 0, 53, 31
1, 6396, Note_on_c, 0, 65, 40
1, 6407, Note_on_c, 0, 53, 0
1, 6411, Note_on_c, 0, 65, 0
1, 6412, Note_on_c, 0, 58, 0
1, 6434, Note_on_c, 0, 62, 0
1, 6446, Control_c, 0, 64, 0
1, 6452, Note_on_c, 0, 65, 80
1, 6453, Note_on_c, 0, 57, 75
1, 6454, Note_on_c, 0, 60, 74
1, 6455, Note_on_c, 0, 41, 75
1, 6475, Note_on_c, 0, 57, 0
1, 6484, Control_c, 0, 64, 127
1, 6502, Note_on_c, 0, 60, 0
1, 6512, Note_on_c, 0, 65, 0
1, 6551, Note_on_c, 0, 41, 0
1, 6636, Note_on_c, 0, 53, 45
1, 6755, Note_on_c, 0, 76, 50
1, 6759, Note_on_c, 0, 72, 50
1, 6760, Note_on_c, 0, 65, 50
1, 6768, Note_on_c, 0, 60, 29
1, 6808, Note_on_c, 0, 72, 0
1, 6815, Note_on_c, 0, 76, 0
1, 6827, Note_on_c, 0, 53, 0
1, 6872, Note_on_c, 0, 53, 48
1, 6894, Note_on_c, 0, 65, 0
1, 6917, Note_on_c, 0, 60, 0
1, 6935, Control_c, 0, 64, 0
1, 6936, Note_on_c, 0, 65, 65
1, 6936, Note_on_c, 0, 81, 84
1, 6937, Note_on_c, 0, 72, 94
1, 6946, Note_on_c, 0, 60, 40
1, 6953, Control_c, 0, 64, 127
1, 6982, Note_on_c, 0, 81, 0
1, 6994, Note_on_c, 0, 72, 0
1, 7015, Note_on_c, 0, 53, 0
1, 7037, Note_on_c, 0, 65, 0
1, 7047, Note_on_c, 0, 53, 47
1, 7047, Note_on_c, 0, 77, 55
1, 7053, Note_on_c, 0, 69, 34
1, 7068, Note_on_c, 0, 69, 0
1, 7082, Note_on_c, 0, 60, 0
1, 7086, Note_on_c, 0, 77, 0
1, 7123, Note_on_c, 0, 72, 54
1, 7126, Note_on_c, 0, 65, 38
1, 7129, Note_on_c, 0, 69, 41
1, 7132, Note_on_c, 0, 60, 25
1, 7134, Control_c, 0, 64, 0
1, 7141, Control_c, 0, 64, 127
1, 7174, Note_on_c, 0, 53, 0
1, 7181, Note_on_c, 0, 65, 0
1, 7201, Note_on_c, 0, 69, 0
1, 7219, Note_on_c, 0, 72, 0
1, 7230, Note_on_c, 0, 53, 56
1, 7256, Note_on_c, 0, 53, 0
1, 7298, Note_on_c, 0, 60, 0
1, 7318, Note_on_c, 0, 53, 67
1, 7393, Note_on_c, 0, 88, 82
1, 7397, Note_on_c, 0, 79, 76
1, 7398, Note_on_c, 0, 64, 60
1, 7406, Note_on_c, 0, 60, 31
1, 7428, Note_on_c, 0, 88, 0
1, 7441, Note_on_c, 0, 79, 0
1, 7460, Note_on_c, 0, 53, 0
1, 7484, Note_on_c, 0, 84, 62
1, 7486, Note_on_c, 0, 53, 67
1, 7491, Note_on_c, 0, 76, 32
1, 7506, Note_on_c, 0, 76, 0
1, 7511, Note_on_c, 0, 84, 0
1, 7530, Note_on_c, 0, 64, 0
1, 7531, Note_on_c, 0, 60, 0
1, 7594, Note_on_c, 0, 79, 57
1, 7595, Note_on_c, 0, 72, 62
1, 7600, Note_on_c, 0, 64, 48
1, 7602, Note_on_c, 0, 60, 41
1, 7656, Note_on_c, 0, 72, 0
1, 7661, Note_on_c, 0, 53, 0
1, 7678, Note_on_c, 0, 79, 0
1, 7704, Note_on_c, 0, 53, 47
1, 7705, Note_on_c, 0, 76, 33
1, 7708, Note_on_c, 0, 72, 53
1, 7711, Note_on_c, 0, 67, 46
1, 7720, Note_on_c, 0, 64, 0
1, 7724, Note_on_c, 0, 72, 0
1, 7725, Note_on_c, 0, 67, 0
1, 7730, Note_on_c, 0, 76, 0
1, 7735, Note_on_c, 0, 60, 0
1, 7813, Note_on_c, 0, 77, 57
1, 7815, Note_on_c, 0, 70, 48
1, 7816, Note_on_c, 0, 74, 38
1, 7817, Note_on_c, 0, 62, 35
1, 7818, Note_on_c, 0, 65, 51
1, 7820, Control_c, 0, 64, 0
1, 7821, Note_on_c, 0, 58, 42
1, 7848, Control_c, 0, 64, 127
1, 7849, Note_on_c, 0, 53, 0
1, 7851, Note_on_c, 0, 74, 0
1, 7856, Note_on_c, 0, 77, 0
1, 7863, Note_on_c, 0, 70, 0
1, 7881, Note_on_c, 0, 65, 0
1, 7922, Note_on_c, 0, 74, 35
1, 7925, Note_on_c, 0, 70, 45
1, 7928, Note_on_c, 0, 62, 0
1, 7928, Note_on_c, 0, 65, 51
1, 7929, Note_on_c, 0, 53, 33
1, 7938, Note_on_c, 0, 65, 0
1, 7938, Note_on_c, 0, 58, 0
1, 7943, Note_on_c, 0, 70, 0
1, 7947, Note_on_c, 0, 74, 0
1, 7950, Note_on_c, 0, 53, 0
1, 8027, Note_on_c, 0, 70, 55
1, 8031, Note_on_c, 0, 62, 60
1, 8037, Note_on_c, 0, 65, 39
1, 8043, Note_on_c, 0, 53, 39
1, 8047, Note_on_c, 0, 65, 0
1, 8049, Note_on_c, 0, 70, 0
1, 8052, Note_on_c, 0, 62, 0
1, 8073, Note_on_c, 0, 53, 0
1, 8099, Note_on_c, 0, 53, 54
1, 8107, Note_on_c, 0, 65, 69
1, 8108, Note_on_c, 0, 58, 63
1, 8110, Note_on_c, 0, 62, 49
1, 8184, Note_on_c, 0, 58, 0
1, 8188, Note_on_c, 0, 62, 0
1, 8215, Note_on_c, 0, 48, 39
1, 8215, Note_on_c, 0, 62, 55
1, 8216, Note_on_c, 0, 58, 49
1, 8229, Note_on_c, 0, 48, 0
1, 8229, Note_on_c, 0, 65, 0
1, 8237, Note_on_c, 0, 62, 0
1, 8250, Note_on_c, 0, 58, 0
1, 8272, Note_on_c, 0, 48, 49
1, 8318, Note_on_c, 0, 53, 0
1, 8328, Note_on_c, 0, 48, 0
1, 8338, Note_on_c, 0, 41, 77
1, 8340, Note_on_c, 0, 64, 91
1, 8341, Note_on_c, 0, 55, 81
1, 8344, Note_on_c, 0, 57, 84
1, 8347, Control_c, 0, 64, 0
1, 8353, Note_on_c, 0, 57, 0
1, 8378, Control_c, 0, 64, 127
1, 8395, Note_on_c, 0, 64, 0
1, 8399, Note_on_c, 0, 55, 0
1, 8446, Note_on_c, 0, 41, 0
1, 8454, Note_on_c, 0, 60, 62
1, 8518, Note_on_c, 0, 60, 0
1, 8531, Note_on_c, 0, 55, 53
1, 8532, Note_on_c, 0, 52, 58
1, 8533, Note_on_c, 0, 41, 58
1, 8544, Control_c, 0, 64, 0
1, 8578, Control_c, 0, 64, 127
1, 8594, Note_on_c, 0, 52, 0
1, 8632, Note_on_c, 0, 55, 0
1, 8642, Note_on_c, 0, 29, 69
1, 8656, Note_on_c, 0, 41, 0
1, 8664, Note_on_c, 0, 29, 0
1, 8757, Note_on_c, 0, 41, 62
1, 8788, Note_on_c, 0, 41, 0
1, 8816, Note_on_c, 0, 41, 51
1, 8820, Note_on_c, 0, 69, 85
1, 8820, Note_on_c, 0, 53, 72
1, 8821, Note_on_c, 0, 60, 91
1, 8821, Note_on_c, 0, 65, 79
1, 8823, Control_c, 0, 64, 0
1, 8860, Control_c, 0, 64, 127
1, 8867, Note_on_c, 0, 65, 0
1, 8869, Note_on_c, 0, 69, 0
1, 8882, Note_on_c, 0, 60, 0
1, 8888, Note_on_c, 0, 53, 0
1, 8941, Note_on_c, 0, 65, 55
1, 8941, Note_on_c, 0, 53, 48
1, 8947, Note_on_c, 0, 62, 38
1, 8970, Note_on_c, 0, 53, 0
1, 8979, Note_on_c, 0, 41, 0
1, 8988, Note_on_c, 0, 62, 0
1, 8991, Note_on_c, 0, 65, 0
1, 9014, Note_on_c, 0, 60, 46
1, 9015, Note_on_c, 0, 45, 55
1, 9019, Note_on_c, 0, 57, 34
1, 9019, Note_on_c, 0, 53, 50
1, 9025, Control_c, 0, 64, 0
1, 9059, Control_c, 0, 64, 127
1, 9090, Note_on_c, 0, 45, 0
1, 9094, Note_on_c, 0, 57, 0
1, 9115, Note_on_c, 0, 60, 0
1, 9128, Note_on_c, 0, 45, 57
1, 9174, Note_on_c, 0, 53, 0
1, 9190, Note_on_c, 0, 60, 64
1, 9199, Control_c, 0, 64, 0
1, 9204, Note_on_c, 0, 45, 0
1, 9230, Note_on_c, 0, 61, 49
1, 9245, Note_on_c, 0, 60, 0
1, 9250, Note_on_c, 0, 61, 0
1, 9252, Note_on_c, 0, 62, 55
1, 9282, Note_on_c, 0, 62, 0
1, 9363, Note_on_c, 0, 46, 56
1, 9368, Note_on_c, 0, 62, 55
1, 9370, Note_on_c, 0, 34, 34
1, 9370, Note_on_c, 0, 58, 53
1, 9376, Note_on_c, 0, 53, 27
1, 9400, Note_on_c, 0, 53, 0
1, 9407, Note_on_c, 0, 58, 0
1, 9408, Note_on_c, 0, 62, 0
1, 9419, Note_on_c, 0, 34, 0
1, 9422, Note_on_c, 0, 46, 0
1, 9476, Note_on_c, 0, 34, 46
1, 9479, Note_on_c, 0, 46, 39
1, 9479, Note_on_c, 0, 62, 59
1, 9483, Control_c, 0, 64, 127
1, 9484, Note_on_c, 0, 58, 47
1, 9486, Note_on_c, 0, 53, 40
1, 9501, Note_on_c, 0, 53, 0
1, 9502, Note_on_c, 0, 34, 0
1, 9507, Note_on_c, 0, 58, 0
1, 9511, Note_on_c, 0, 46, 0
1, 9521, Note_on_c, 0, 62, 0
1, 9538, Control_c, 0, 64, 0
1, 9545, Note_on_c, 0, 64, 57
1, 9548, Note_on_c, 0, 55, 34
1, 9550, Note_on_c, 0, 48, 33
1, 9550, Note_on_c, 0, 58, 40
1, 9598, Note_on_c, 0, 58, 0
1, 9598, Note_on_c, 0, 55, 0
1, 9604, Note_on_c, 0, 64, 0
1, 9615, Note_on_c, 0, 48, 0
1, 9658, Note_on_c, 0, 64, 49
1, 9663, Note_on_c, 0, 58, 39
1, 9663, Note_on_c, 0, 48, 35
1, 9664, Note_on_c, 0, 55, 39
1, 9667, Control_c, 0, 64, 127
1, 9686, Note_on_c, 0, 48, 0
1, 9690, Note_on_c, 0, 55, 0
1, 9693, Note_on_c, 0, 58, 0
1, 9726, Note_on_c, 0, 64, 0
1, 9737, Control_c, 0, 64, 0
1, 9782, Note_on_c, 0, 57, 41
1, 9784, Note_on_c, 0, 53, 31
1, 9784, Note_on_c, 0, 65, 47
1, 9784, Note_on_c, 0, 48, 29
1, 9786, Control_c, 0, 64, 127
1, 9789, Note_on_c, 0, 41, 24
1, 9790, Note_on_c, 0, 60, 33
1, 9916, Note_on_c, 0, 41, 0
1, 9940, Note_on_c, 0, 57, 0
1, 9953, Note_on_c, 0, 65, 0
1, 9956, Note_on_c, 0, 60, 0
1, 9975, Note_on_c, 0, 41, 50
1, 9991, Note_on_c, 0, 53, 0
1, 10011, Note_on_c, 0, 48, 0
1, 10014, Note_on_c, 0, 41, 0
1, 10039, Control_c, 0, 64, 0
1, 10047, Note_on_c, 0, 45, 36
1, 10117, Note_on_c, 0, 63, 57
1, 10118, Note_on_c, 0, 57, 68
1, 10120, Note_on_c, 0, 65, 61
1, 10123, Note_on_c, 0, 53, 48
1, 10133, Note_on_c, 0, 57, 0
1, 10136, Note_on_c, 0, 53, 0
1, 10138, Note_on_c, 0, 65, 0
1, 10150, Note_on_c, 0, 63, 0
1, 10153, Note_on_c, 0, 45, 0
1, 10200, Control_c, 0, 64, 127
1, 10213, Note_on_c, 0, 63, 46
1, 10215, Note_on_c, 0, 65, 57
1, 10217, Note_on_c, 0, 57, 51
1, 10217, Note_on_c, 0, 45, 41
1, 10220, Note_on_c, 0, 53, 29
1, 10241, Note_on_c, 0, 57, 0
1, 10254, Note_on_c, 0, 53, 0
1, 10264, Note_on_c, 0, 65, 0
1, 10268, Note_on_c, 0, 63, 0
1, 10271, Note_on_c, 0, 45, 0
1, 10293, Control_c, 0, 64, 0
1, 10296, Note_on_c, 0, 65, 54
1, 10298, Note_on_c, 0, 46, 48
1, 10299, Note_on_c, 0, 58, 47
1, 10300, Note_on_c, 0, 62, 57
1, 10304, Note_on_c, 0, 53, 36
1, 10345, Control_c, 0, 64, 127
1, 10372, Note_on_c, 0, 53, 0
1, 10381, Note_on_c, 0, 58, 0
1, 10413, Note_on_c, 0, 65, 0
1, 10420, Note_on_c, 0, 62, 0
1, 10449, Note_on_c, 0, 46, 0
1, 10503, Note_on_c, 0, 46, 54
1, 10533, Note_on_c, 0, 46, 0
1, 10536, Control_c, 0, 64, 0
1, 10544, Note_on_c, 0, 65, 55
1, 10545, Note_on_c, 0, 62, 45
1, 10545, Note_on_c, 0, 58, 51
1, 10546, Note_on_c, 0, 48, 53
1, 10547, Note_on_c, 0, 55, 38
1, 10572, Control_c, 0, 64, 127
1, 10621, Note_on_c, 0, 55, 0
1, 10631, Note_on_c, 0, 58, 0
1, 10633, Note_on_c, 0, 62, 0
1, 10636, Note_on_c, 0, 65, 0
1, 10660, Control_c, 0, 64, 0
1, 10663, Note_on_c, 0, 48, 0
1, 10667, Note_on_c, 0, 49, 60
1, 10683, Note_on_c, 0, 61, 21
1, 10683, Note_on_c, 0, 67, 20
1, 10686, Control_c, 0, 64, 127
1, 10692, Note_on_c, 0, 67, 0
1, 10711, Note_on_c, 0, 61, 0
1, 10743, Note_on_c, 0, 65, 80
1, 10746, Note_on_c, 0, 49, 0
1, 10746, Control_c, 0, 64, 0
1, 10746, Note_on_c, 0, 62, 75
1, 10747, Note_on_c, 0, 57, 78
1, 10747, Note_on_c, 0, 50, 80
1, 10811, Control_c, 0, 64, 127
1, 10860, Note_on_c, 0, 38, 72
1, 10872, Note_on_c, 0, 50, 0
1, 10906, Note_on_c, 0, 62, 0
1, 10907, Note_on_c, 0, 65, 0
1, 10927, Note_on_c, 0, 57, 0
1, 10986, Note_on_c, 0, 42, 54
1, 10990, Note_on_c, 0, 38, 0
1, 10995, Note_on_c, 0, 40, 24
1, 11007, Note_on_c, 0, 40, 0
1, 11010, Note_on_c, 0, 43, 35
1, 11026, Note_on_c, 0, 43, 0
1, 11028, Note_on_c, 0, 42, 0
1, 11040, Note_on_c, 0, 65, 87
1, 11040, Note_on_c, 0, 58, 85
1, 11041, Control_c, 0, 64, 0
1, 11043, Note_on_c, 0, 54, 84
1, 11043, Note_on_c, 0, 44, 90
1, 11045, Note_on_c, 0, 60, 80
1, 11049, Note_on_c, 0, 63, 46
1, 11089, Note_on_c, 0, 65, 0
1, 11098, Note_on_c, 0, 63, 0
1, 11098, Control_c, 0, 64, 127
1, 11111, Note_on_c, 0, 63, 76
1, 11142, Note_on_c, 0, 60, 0
1, 11142, Note_on_c, 0, 54, 0
1, 11147, Note_on_c, 0, 63, 0
1, 11157, Control_c, 0, 64, 0
1, 11166, Note_on_c, 0, 58, 0
1, 11170, Note_on_c, 0, 62, 45
1, 11170, Note_on_c, 0, 54, 37
1, 11175, Control_c, 0, 64, 127
1, 11193, Note_on_c, 0, 54, 0
1, 11196, Note_on_c, 0, 62, 0
1, 11227, Note_on_c, 0, 44, 0
1, 11232, Note_on_c, 0, 39, 34
1, 11240, Note_on_c, 0, 62, 60
1, 11243, Note_on_c, 0, 53, 64
1, 11244, Note_on_c, 0, 39, 0
1, 11244, Note_on_c, 0, 58, 69
1, 11254, Note_on_c, 0, 43, 60
1, 11255, Control_c, 0, 64, 0
1, 11305, Control_c, 0, 64, 127
1, 11367, Note_on_c, 0, 31, 55
1, 11390, Note_on_c, 0, 43, 0
1, 11396, Note_on_c, 0, 53, 0
1, 11409, Note_on_c, 0, 31, 0
1, 11411, Note_on_c, 0, 58, 0
1, 11418, Note_on_c, 0, 62, 0
1, 11418, Note_on_c, 0, 34, 47
1, 11431, Control_c, 0, 64, 0
1, 11481, Note_on_c, 0, 34, 0
1, 11493, Control_c, 0, 64, 127
1, 11494, Note_on_c, 0, 35, 58
1, 11537, Note_on_c, 0, 35, 0
1, 11545, Control_c, 0, 64, 0
1, 11553, Note_on_c, 0, 61, 59
1, 11555, Note_on_c, 0, 36, 57
1, 11560, Note_on_c, 0, 58, 34
1, 11568, Note_on_c, 0, 61, 0
1, 11569, Note_on_c, 0, 62, 57
1, 11593, Note_on_c, 0, 58, 0
1, 11603, Note_on_c, 0, 62, 0
1, 11619, Note_on_c, 0, 58, 60
1, 11620, Note_on_c, 0, 53, 71
1, 11622, Note_on_c, 0, 65, 62
1, 11623, Note_on_c, 0, 24, 65
1, 11623, Note_on_c, 0, 62, 62
1, 11626, Control_c, 0, 64, 127
1, 11629, Note_on_c, 0, 64, 46
1, 11638, Note_on_c, 0, 64, 0
1, 11639, Note_on_c, 0, 53, 0
1, 11644, Note_on_c, 0, 65, 0
1, 11645, Note_on_c, 0, 58, 0
1, 11646, Note_on_c, 0, 24, 0
1, 11648, Note_on_c, 0, 62, 0
1, 11655, Note_on_c, 0, 36, 0
1, 11684, Note_on_c, 0, 65, 71
1, 11686, Note_on_c, 0, 58, 50
1, 11689, Note_on_c, 0, 53, 46
1, 11710, Note_on_c, 0, 53, 0
1, 11719, Note_on_c, 0, 58, 0
1, 11721, Note_on_c, 0, 65, 0
1, 11752, Note_on_c, 0, 48, 27
1, 11753, Note_on_c, 0, 62, 38
1, 11768, Note_on_c, 0, 62, 0
1, 11787, Note_on_c, 0, 48, 0
1, 11809, Control_c, 0, 64, 0
1, 11811, Note_on_c, 0, 48, 79
1, 11812, Note_on_c, 0, 41, 81
1, 11813, Note_on_c, 0, 57, 99
1, 11813, Note_on_c, 0, 65, 89
1, 11815, Note_on_c, 0, 60, 89
1, 11918, Control_c, 0, 64, 127
1, 12011, Note_on_c, 0, 53, 57
1, 12032, Note_on_c, 0, 53, 0
1, 12081, Note_on_c, 0, 53, 44
1, 12106, Note_on_c, 0, 57, 0
1, 12115, Note_on_c, 0, 41, 0
1, 12148, Note_on_c, 0, 41, 48
1, 12160, Note_on_c, 0, 60, 0
1, 12215, Note_on_c, 0, 41, 0
1, 12264, Note_on_c, 0, 41, 57
1, 12352, Note_on_c, 0, 41, 0
1, 12390, Note_on_c, 0, 41, 52
1, 12432, Note_on_c, 0, 41, 0
1, 12505, Note_on_c, 0, 41, 40
1, 12514, Note_on_c, 0, 53, 0
1, 12539, Note_on_c, 0, 65, 0
1, 12563, Note_on_c, 0, 62, 38
1, 12567, Note_on_c, 0, 58, 47
1, 12567, Note_on_c, 0, 53, 37
1, 12572, Control_c, 0, 64, 0
1, 12590, Control_c, 0, 64, 127
1, 12632, Note_on_c, 0, 41, 0
1, 12685, Note_on_c, 0, 41, 41
1, 12712, Note_on_c, 0, 41, 0
1, 12739, Note_on_c, 0, 58, 0
1, 12749, Note_on_c, 0, 41, 49
1, 12750, Note_on_c, 0, 62, 0
1, 12766, Note_on_c, 0, 53, 0
1, 12808, Note_on_c, 0, 65, 48
1, 12809, Note_on_c, 0, 57, 45
1, 12810, Control_c, 0, 64, 0
1, 12811, Note_on_c, 0, 53, 48
1, 12812, Note_on_c, 0, 60, 50
1, 12844, Control_c, 0, 64, 127
1, 12850, Note_on_c, 0, 41, 0
1, 12907, Note_on_c, 0, 57, 0
1, 12930, Note_on_c, 0, 41, 38
1, 12960, Note_on_c, 0, 41, 0
1, 13000, Note_on_c, 0, 41, 59
1, 13043, Note_on_c, 0, 41, 0
1, 13063, Note_on_c, 0, 60, 0
1, 13074, Note_on_c, 0, 65, 0
1, 13120, Note_on_c, 0, 41, 58
1, 13160, Note_on_c, 0, 41, 0
1, 13237, Note_on_c, 0, 41, 60
1, 13298, Note_on_c, 0, 48, 0
1, 13325, Note_on_c, 0, 41, 0
1, 13354, Note_on_c, 0, 41, 62
1, 13395, Note_on_c, 0, 53, 0
1, 13474, Note_on_c, 0, 53, 60
1, 13496, Note_on_c, 0, 53, 0
1, 13537, Note_on_c, 0, 53, 49
1, 13562, Note_on_c, 0, 53, 0
1, 13652, Note_on_c, 0, 41, 0
1, 13656, Note_on_c, 0, 53, 58
1, 13667, Note_on_c, 0, 53, 0
1, 13774, Note_on_c, 0, 76, 46
1, 13778, Note_on_c, 0, 67, 51
1, 13784, Note_on_c, 0, 65, 47
1, 13869, Note_on_c, 0, 67, 0
1, 13905, Note_on_c, 0, 53, 24
1, 13910, Note_on_c, 0, 65, 0
1, 13965, Note_on_c, 0, 67, 52
1, 13971, Note_on_c, 0, 65, 49
1, 13974, Note_on_c, 0, 72, 32
1, 13998, Note_on_c, 0, 65, 0
1, 14090, Note_on_c, 0, 65, 60
1, 14115, Note_on_c, 0, 67, 0
1, 14133, Note_on_c, 0, 72, 0
1, 14145, Note_on_c, 0, 76, 0
1, 14163, Note_on_c, 0, 53, 0
1, 14201, Note_on_c, 0, 53, 44
1, 14220, Note_on_c, 0, 65, 0
1, 14264, Control_c, 0, 64, 0
1, 14269, Note_on_c, 0, 81, 83
1, 14271, Note_on_c, 0, 72, 90
1, 14272, Note_on_c, 0, 65, 67
1, 14293, Control_c, 0, 64, 127
1, 14330, Note_on_c, 0, 53, 0
1, 14347, Note_on_c, 0, 81, 0
1, 14367, Note_on_c, 0, 72, 0
1, 14387, Note_on_c, 0, 53, 35
1, 14401, Note_on_c, 0, 65, 0
1, 14460, Note_on_c, 0, 69, 51
1, 14461, Note_on_c, 0, 72, 36
1, 14467, Note_on_c, 0, 65, 46
1, 14520, Note_on_c, 0, 53, 0
1, 14532, Note_on_c, 0, 69, 0
1, 14544, Note_on_c, 0, 72, 0
1, 14572, Note_on_c, 0, 53, 44
1, 14595, Note_on_c, 0, 53, 0
1, 14623, Note_on_c, 0, 65, 0
1, 14638, Note_on_c, 0, 53, 40
1, 14643, Note_on_c, 0, 76, 75
1, 14644, Note_on_c, 0, 84, 87
1, 14720, Note_on_c, 0, 84, 0
1, 14724, Note_on_c, 0, 76, 0
1, 14749, Note_on_c, 0, 79, 42
1, 14755, Note_on_c, 0, 64, 30
1, 14756, Note_on_c, 0, 72, 54
1, 14779, Note_on_c, 0, 79, 0
1, 14795, Note_on_c, 0, 72, 0
1, 14801, Note_on_c, 0, 64, 0
1, 14827, Note_on_c, 0, 64, 55
1, 14851, Note_on_c, 0, 64, 0
1, 14935, Note_on_c, 0, 76, 31
1, 14937, Note_on_c, 0, 64, 49
1, 14941, Note_on_c, 0, 72, 40
1, 14943, Note_on_c, 0, 67, 35
1, 14998, Note_on_c, 0, 53, 0
1, 15057, Note_on_c, 0, 53, 46
1, 15079, Note_on_c, 0, 67, 0
1, 15098, Note_on_c, 0, 72, 0
1, 15104, Note_on_c, 0, 53, 0
1, 15111, Note_on_c, 0, 76, 0
1, 15133, Note_on_c, 0, 53, 69
1, 15152, Note_on_c, 0, 64, 0
1, 15237, Note_on_c, 0, 82, 75
1, 15239, Note_on_c, 0, 65, 67
1, 15240, Control_c, 0, 64, 0
1, 15240, Note_on_c, 0, 62, 51
1, 15241, Note_on_c, 0, 74, 62
1, 15241, Note_on_c, 0, 70, 70
1, 15243, Note_on_c, 0, 78, 54
1, 15266, Control_c, 0, 64, 127
1, 15292, Note_on_c, 0, 65, 0
1, 15306, Note_on_c, 0, 53, 0
1, 15335, Note_on_c, 0, 74, 0
1, 15336, Note_on_c, 0, 82, 0
1, 15337, Note_on_c, 0, 78, 0
1, 15352, Note_on_c, 0, 70, 0
1, 15352, Note_on_c, 0, 53, 52
1, 15376, Note_on_c, 0, 62, 0
1, 15425, Note_on_c, 0, 70, 37
1, 15426, Note_on_c, 0, 62, 52
1, 15426, Note_on_c, 0, 77, 40
1, 15427, Note_on_c, 0, 74, 32
1, 15427, Note_on_c, 0, 65, 52
1, 15444, Control_c, 0, 64, 0
1, 15449, Control_c, 0, 64, 127
1, 15467, Note_on_c, 0, 77, 0
1, 15468, Note_on_c, 0, 74, 0
1, 15488, Note_on_c, 0, 53, 0
1, 15508, Note_on_c, 0, 70, 0
1, 15510, Note_on_c, 0, 65, 0
1, 15535, Note_on_c, 0, 53, 44
1, 15543, Note_on_c, 0, 62, 0
1, 15572, Note_on_c, 0, 53, 0
1, 15601, Note_on_c, 0, 70, 73
1, 15601, Note_on_c, 0, 74, 53
1, 15602, Note_on_c, 0, 65, 80
1, 15676, Note_on_c, 0, 74, 0
1, 15683, Note_on_c, 0, 65, 0
1, 15691, Note_on_c, 0, 70, 0
1, 15721, Note_on_c, 0, 64, 45
1, 15722, Note_on_c, 0, 41, 50
1, 15722, Note_on_c, 0, 72, 45
1, 15723, Note_on_c, 0, 53, 46
1, 15726, Control_c, 0, 64, 0
1, 15727, Note_on_c, 0, 67, 47
1, 15750, Control_c, 0, 64, 127
1, 15798, Note_on_c, 0, 64, 0
1, 15827, Note_on_c, 0, 67, 0
1, 15832, Note_on_c, 0, 53, 0
1, 15832, Note_on_c, 0, 72, 0
1, 15839, Note_on_c, 0, 64, 35
1, 15851, Note_on_c, 0, 64, 0
1, 15910, Note_on_c, 0, 64, 43
1, 15912, Note_on_c, 0, 60, 40
1, 15915, Note_on_c, 0, 67, 45
1, 15917, Note_on_c, 0, 53, 40
1, 15928, Control_c, 0, 64, 0
1, 15938, Control_c, 0, 64, 127
1, 15971, Note_on_c, 0, 41, 0
1, 16030, Note_on_c, 0, 41, 61
1, 16062, Note_on_c, 0, 41, 0
1, 16075, Note_on_c, 0, 60, 0
1, 16091, Note_on_c, 0, 64, 0
1, 16094, Note_on_c, 0, 67, 0
1, 16094, Note_on_c, 0, 41, 45
1, 16127, Note_on_c, 0, 53, 0
1, 16218, Note_on_c, 0, 57, 25
1, 16219, Note_on_c, 0, 65, 34
1, 16220, Control_c, 0, 64, 0
1, 16222, Note_on_c, 0, 60, 36
1, 16224, Note_on_c, 0, 53, 31
1, 16262, Control_c, 0, 64, 127
1, 16345, Note_on_c, 0, 41, 0
1, 16363, Note_on_c, 0, 57, 0
1, 16388, Note_on_c, 0, 60, 0
1, 16391, Note_on_c, 0, 65, 0
1, 16397, Note_on_c, 0, 41, 62
1, 16421, Note_on_c, 0, 53, 0
1, 16459, Note_on_c, 0, 41, 0
1, 16464, Note_on_c, 0, 63, 82
1, 16467, Note_on_c, 0, 45, 64
1, 16469, Note_on_c, 0, 53, 54
1, 16487, Control_c, 0, 64, 0
1, 16512, Note_on_c, 0, 63, 0
1, 16529, Note_on_c, 0, 62, 60
1, 16571, Note_on_c, 0, 62, 0
1, 16598, Control_c, 0, 64, 127
1, 16598, Note_on_c, 0, 60, 24
1, 16621, Note_on_c, 0, 60, 0
1, 16641, Note_on_c, 0, 53, 0
1, 16648, Note_on_c, 0, 45, 0
1, 16649, Note_on_c, 0, 62, 57
1, 16652, Note_on_c, 0, 58, 59
1, 16656, Note_on_c, 0, 46, 53
1, 16666, Control_c, 0, 64, 0
1, 16717, Control_c, 0, 64, 127
1, 16821, Note_on_c, 0, 53, 34
1, 16855, Note_on_c, 0, 53, 0
1, 16862, Note_on_c, 0, 62, 0
1, 16864, Note_on_c, 0, 58, 0
1, 16890, Note_on_c, 0, 44, 35
1, 16921, Note_on_c, 0, 46, 0
1, 16926, Note_on_c, 0, 44, 0
1, 16937, Note_on_c, 0, 60, 28
1, 16940, Note_on_c, 0, 61, 48
1, 16943, Note_on_c, 0, 48, 45
1, 16945, Control_c, 0, 64, 0
1, 16949, Note_on_c, 0, 61, 0
1, 16958, Note_on_c, 0, 62, 40
1, 16965, Note_on_c, 0, 60, 0
1, 16998, Note_on_c, 0, 62, 0
1, 17012, Note_on_c, 0, 65, 55
1, 17016, Note_on_c, 0, 62, 31
1, 17017, Note_on_c, 0, 58, 35
1, 17019, Note_on_c, 0, 36, 46
1, 17019, Note_on_c, 0, 53, 30
1, 17064, Note_on_c, 0, 48, 0
1, 17064, Control_c, 0, 64, 127
1, 17097, Note_on_c, 0, 53, 0
1, 17124, Note_on_c, 0, 58, 0
1, 17125, Note_on_c, 0, 65, 0
1, 17130, Note_on_c, 0, 38, 17
1, 17132, Note_on_c, 0, 62, 0
1, 17140, Note_on_c, 0, 36, 0
1, 17144, Note_on_c, 0, 38, 0
1, 17153, Note_on_c, 0, 40, 26
1, 17169, Note_on_c, 0, 40, 0
1, 17185, Note_on_c, 0, 56, 30
1, 17185, Note_on_c, 0, 65, 44
1, 17188, Control_c, 0, 64, 0
1, 17190, Note_on_c, 0, 41, 40
1, 17193, Note_on_c, 0, 56, 0
1, 17203, Note_on_c, 0, 57, 32
1, 17227, Control_c, 0, 64, 127
1, 17295, Note_on_c, 0, 29, 22
1, 17298, Note_on_c, 0, 57, 0
1, 17303, Note_on_c, 0, 65, 0
1, 17304, Note_on_c, 0, 29, 0
1, 17314, Note_on_c, 0, 41, 0
1, 17421, Control_c, 0, 64, 0
1, 17428, Note_on_c, 0, 67, 79
1, 17428, Note_on_c, 0, 64, 79
1, 17429, Note_on_c, 0, 57, 96
1, 17430, Note_on_c, 0, 61, 60
1, 17431, Note_on_c, 0, 49, 77
1, 17436, Note_on_c, 0, 65, 54
1, 17444, Note_on_c, 0, 65, 0
1, 17460, Control_c, 0, 64, 127
1, 17567, Note_on_c, 0, 57, 0
1, 17573, Note_on_c, 0, 61, 0
1, 17578, Note_on_c, 0, 64, 0
1, 17579, Note_on_c, 0, 67, 0
1, 17613, Note_on_c, 0, 49, 0
1, 17614, Note_on_c, 0, 65, 59
1, 17616, Note_on_c, 0, 57, 58
1, 17618, Note_on_c, 0, 62, 44
1, 17622, Note_on_c, 0, 50, 48
1, 17623, Control_c, 0, 64, 0
1, 17659, Control_c, 0, 64, 127
1, 17764, Note_on_c, 0, 50, 0
1, 17801, Note_on_c, 0, 62, 0
1, 17803, Note_on_c, 0, 65, 0
1, 17813, Note_on_c, 0, 57, 0
1, 18018, Note_on_c, 0, 44, 56
1, 18018, Note_on_c, 0, 62, 64
1, 18019, Note_on_c, 0, 32, 51
1, 18031, Control_c, 0, 64, 0
1, 18032, Note_on_c, 0, 62, 0
1, 18034, Note_on_c, 0, 44, 0
1, 18038, Note_on_c, 0, 32, 0
1, 18135, Note_on_c, 0, 62, 47
1, 18141, Note_on_c, 0, 43, 45
1, 18141, Note_on_c, 0, 59, 51
1, 18142, Note_on_c, 0, 53, 30
1, 18143, Note_on_c, 0, 31, 38
1, 18154, Control_c, 0, 64, 127
1, 18257, Note_on_c, 0, 43, 0
1, 18272, Note_on_c, 0, 53, 0
1, 18275, Note_on_c, 0, 59, 0
1, 18285, Note_on_c, 0, 62, 0
1, 18290, Note_on_c, 0, 31, 0
1, 18389, Note_on_c, 0, 58, 28
1, 18390, Note_on_c, 0, 62, 50
1, 18392, Note_on_c, 0, 36, 71
1, 18397, Control_c, 0, 64, 0
1, 18408, Note_on_c, 0, 24, 33
1, 18434, Note_on_c, 0, 58, 0
1, 18448, Note_on_c, 0, 62, 0
1, 18463, Note_on_c, 0, 58, 82
1, 18463, Note_on_c, 0, 53, 87
1, 18464, Note_on_c, 0, 65, 82
1, 18465, Note_on_c, 0, 62, 84
1, 18493, Control_c, 0, 64, 127
1, 18557, Note_on_c, 0, 53, 0
1, 18570, Note_on_c, 0, 65, 0
1, 18582, Note_on_c, 0, 27, 45
1, 18593, Note_on_c, 0, 58, 0
1, 18599, Note_on_c, 0, 62, 0
1, 18606, Note_on_c, 0, 36, 0
1, 18622, Note_on_c, 0, 27, 0
1, 18626, Note_on_c, 0, 24, 0
1, 18635, Control_c, 0, 64, 0
1, 18635, Note_on_c, 0, 65, 81
1, 18636, Note_on_c, 0, 29, 85
1, 18637, Note_on_c, 0, 56, 82
1, 18662, Note_on_c, 0, 57, 80
1, 18665, Note_on_c, 0, 56, 0
1, 18764, Control_c, 0, 64, 127
1, 18828, Note_on_c, 0, 57, 0
1, 18842, Note_on_c, 0, 65, 0
1, 18845, Note_on_c, 0, 27, 29
1, 18891, Control_c, 0, 64, 0
1, 18892, Note_on_c, 0, 63, 55
1, 18893, Note_on_c, 0, 29, 0
1, 18894, Note_on_c, 0, 33, 66
1, 18897, Note_on_c, 0, 57, 57
1, 18898, Note_on_c, 0, 65, 50
1, 18899, Note_on_c, 0, 27, 0
1, 19002, Control_c, 0, 64, 127
1, 19006, Note_on_c, 0, 57, 0
1, 19027, Note_on_c, 0, 65, 0
1, 19030, Note_on_c, 0, 63, 0
1, 19066, Note_on_c, 0, 33, 0
1, 19081, Note_on_c, 0, 34, 51
1, 19084, Note_on_c, 0, 65, 54
1, 19084, Note_on_c, 0, 62, 47
1, 19085, Note_on_c, 0, 58, 50
1, 19087, Note_on_c, 0, 53, 36
1, 19101, Control_c, 0, 64, 0
1, 19103, Note_on_c, 0, 53, 0
1, 19110, Note_on_c, 0, 58, 0
1, 19114, Note_on_c, 0, 62, 0
1, 19116, Note_on_c, 0, 34, 0
1, 19117, Note_on_c, 0, 65, 0
1, 19202, Note_on_c, 0, 60, 71
1, 19222, Note_on_c, 0, 60, 0
1, 19259, Note_on_c, 0, 61, 40
1, 19277, Note_on_c, 0, 61, 0
1, 19279, Note_on_c, 0, 62, 55
1, 19306, Note_on_c, 0, 62, 0
1, 19322, Note_on_c, 0, 65, 74
1, 19323, Note_on_c, 0, 58, 69
1, 19325, Note_on_c, 0, 53, 71
1, 19326, Note_on_c, 0, 62, 71
1, 19326, Note_on_c, 0, 36, 71
1, 19339, Note_on_c, 0, 24, 30
1, 19350, Note_on_c, 0, 24, 0
1, 19358, Note_on_c, 0, 53, 0
1, 19365, Note_on_c, 0, 65, 0
1, 19368, Note_on_c, 0, 58, 0
1, 19374, Note_on_c, 0, 62, 0
1, 19387, Note_on_c, 0, 65, 41
1, 19389, Note_on_c, 0, 58, 33
1, 19392, Note_on_c, 0, 53, 34
1, 19394, Note_on_c, 0, 62, 53
1, 19418, Note_on_c, 0, 53, 0
1, 19426, Note_on_c, 0, 58, 0
1, 19426, Note_on_c, 0, 65, 0
1, 19430, Note_on_c, 0, 62, 0
1, 19509, Note_on_c, 0, 58, 42
1, 19510, Note_on_c, 0, 24, 36
1, 19511, Note_on_c, 0, 62, 40
1, 19512, Note_on_c, 0, 53, 31
1, 19515, Note_on_c, 0, 65, 25
1, 19545, Note_on_c, 0, 53, 0
1, 19546, Note_on_c, 0, 65, 0
1, 19563, Note_on_c, 0, 62, 0
1, 19567, Note_on_c, 0, 58, 0
1, 19580, Note_on_c, 0, 24, 0
1, 19623, Note_on_c, 0, 56, 39
1, 19625, Note_on_c, 0, 36, 0
1, 19626, Note_on_c, 0, 65, 48
1, 19634, Note_on_c, 0, 29, 40
1, 19651, Note_on_c, 0, 56, 0
1, 19663, Note_on_c, 0, 57, 32
1, 19766, Control_c, 0, 64, 127
1, 19782, Note_on_c, 0, 57, 0
1, 19816, Note_on_c, 0, 65, 0
1, 19885, Control_c, 0, 64, 0
1, 19893, Note_on_c, 0, 33, 62
1, 19909, Note_on_c, 0, 29, 0
1, 19958, Note_on_c, 0, 65, 65
1, 19967, Note_on_c, 0, 57, 66
1, 19990, Note_on_c, 0, 57, 0
1, 20025, Note_on_c, 0, 65, 0
1, 20053, Control_c, 0, 64, 127
1, 20066, Control_c, 0, 64, 0
1, 20077, Note_on_c, 0, 62, 50
1, 20078, Note_on_c, 0, 65, 62
1, 20078, Note_on_c, 0, 58, 59
1, 20079, Note_on_c, 0, 34, 59
1, 20084, Note_on_c, 0, 33, 0
1, 20085, Note_on_c, 0, 53, 39
1, 20103, Note_on_c, 0, 53, 0
1, 20155, Note_on_c, 0, 34, 0
1, 20161, Control_c, 0, 64, 127
1, 20196, Note_on_c, 0, 35, 83
1, 20237, Control_c, 0, 64, 0
1, 20244, Note_on_c, 0, 65, 0
1, 20245, Note_on_c, 0, 58, 0
1, 20245, Note_on_c, 0, 35, 0
1, 20246, Note_on_c, 0, 62, 0
1, 20259, Note_on_c, 0, 36, 85
1, 20321, Note_on_c, 0, 36, 0
1, 20327, Note_on_c, 0, 24, 70
1, 20352, Note_on_c, 0, 24, 0
1, 20379, Note_on_c, 0, 62, 52
1, 20379, Note_on_c, 0, 58, 62
1, 20380, Note_on_c, 0, 36, 64
1, 20380, Note_on_c, 0, 65, 60
1, 20383, Note_on_c, 0, 53, 55
1, 20390, Note_on_c, 0, 24, 46
1, 20401, Note_on_c, 0, 24, 0
1, 20406, Note_on_c, 0, 53, 0
1, 20417, Note_on_c, 0, 58, 0
1, 20425, Note_on_c, 0, 62, 0
1, 20430, Note_on_c, 0, 65, 0
1, 20450, Note_on_c, 0, 36, 0
1, 20500, Note_on_c, 0, 58, 53
1, 20501, Note_on_c, 0, 36, 48
1, 20503, Note_on_c, 0, 62, 37
1, 20504, Note_on_c, 0, 53, 44
1, 20506, Note_on_c, 0, 27, 34
1, 20516, Control_c, 0, 64, 127
1, 20526, Note_on_c, 0, 53, 0
1, 20544, Note_on_c, 0, 58, 0
1, 20556, Note_on_c, 0, 62, 0
1, 20580, Note_on_c, 0, 36, 0
1, 20591, Note_on_c, 0, 27, 0
1, 20601, Control_c, 0, 64, 0
1, 20621, Note_on_c, 0, 65, 54
1, 20622, Note_on_c, 0, 29, 56
1, 20623, Note_on_c, 0, 57, 49
1, 20626, Note_on_c, 0, 60, 52
1, 20635, Control_c, 0, 64, 127
1, 20640, Note_on_c, 0, 57, 0
1, 20647, Note_on_c, 0, 29, 0
1, 20653, Note_on_c, 0, 60, 0
1, 20659, Note_on_c, 0, 65, 0
1, 20748, Note_on_c, 0, 67, 47
1, 20749, Note_on_c, 0, 76, 32
1, 20821, Note_on_c, 0, 53, 34
1, 20822, Note_on_c, 0, 76, 0
1, 20826, Note_on_c, 0, 67, 0
1, 20934, Note_on_c, 0, 72, 48
1, 20936, Note_on_c, 0, 64, 38
1, 20940, Note_on_c, 0, 60, 34
1, 20989, Note_on_c, 0, 64, 0
1, 21011, Note_on_c, 0, 53, 0
1, 21015, Note_on_c, 0, 72, 0
1, 21056, Note_on_c, 0, 53, 45
1, 21084, Note_on_c, 0, 53, 0
1, 21116, Note_on_c, 0, 60, 0
1, 21120, Note_on_c, 0, 53, 49
1, 21189, Note_on_c, 0, 81, 75
1, 21190, Note_on_c, 0, 72, 77
1, 21193, Note_on_c, 0, 65, 54
1, 21201, Note_on_c, 0, 60, 30
1, 21226, Note_on_c, 0, 81, 0
1, 21232, Note_on_c, 0, 72, 0
1, 21267, Note_on_c, 0, 53, 0
1, 21301, Note_on_c, 0, 77, 45
1, 21301, Note_on_c, 0, 53, 39
1, 21303, Note_on_c, 0, 69, 42
1, 21327, Note_on_c, 0, 77, 0
1, 21328, Note_on_c, 0, 69, 0
1, 21330, Note_on_c, 0, 65, 0
1, 21342, Note_on_c, 0, 60, 0
1, 21416, Note_on_c, 0, 72, 48
1, 21418, Note_on_c, 0, 69, 51
1, 21426, Note_on_c, 0, 65, 34
1, 21430, Note_on_c, 0, 60, 29
1, 21435, Note_on_c, 0, 69, 0
1, 21448, Note_on_c, 0, 72, 0
1, 21478, Note_on_c, 0, 53, 0
1, 21534, Note_on_c, 0, 53, 52
1, 21538, Note_on_c, 0, 65, 0
1, 21562, Note_on_c, 0, 53, 0
1, 21581, Note_on_c, 0, 60, 0
1, 21590, Control_c, 0, 64, 0
1, 21593, Note_on_c, 0, 88, 87
1, 21594, Note_on_c, 0, 60, 29
1, 21596, Note_on_c, 0, 64, 67
1, 21597, Note_on_c, 0, 53, 46
1, 21597, Note_on_c, 0, 79, 80
1, 21626, Control_c, 0, 64, 127
1, 21646, Note_on_c, 0, 88, 0
1, 21658, Note_on_c, 0, 79, 0
1, 21681, Note_on_c, 0, 64, 0
1, 21696, Note_on_c, 0, 60, 0
1, 21710, Note_on_c, 0, 84, 56
1, 21714, Note_on_c, 0, 76, 39
1, 21720, Note_on_c, 0, 84, 0
1, 21734, Note_on_c, 0, 76, 0
1, 21784, Note_on_c, 0, 79, 43
1, 21790, Note_on_c, 0, 72, 37
1, 21795, Note_on_c, 0, 64, 29
1, 21803, Note_on_c, 0, 60, 29
1, 21839, Note_on_c, 0, 72, 0
1, 21844, Note_on_c, 0, 53, 0
1, 21866, Note_on_c, 0, 79, 0
1, 21895, Note_on_c, 0, 76, 36
1, 21900, Note_on_c, 0, 67, 36
1, 21902, Note_on_c, 0, 53, 32
1, 21910, Note_on_c, 0, 67, 0
1, 21913, Note_on_c, 0, 64, 0
1, 21919, Note_on_c, 0, 60, 0
1, 21924, Note_on_c, 0, 76, 0
1, 22004, Note_on_c, 0, 82, 63
1, 22006, Note_on_c, 0, 74, 48
1, 22007, Note_on_c, 0, 62, 33
1, 22008, Note_on_c, 0, 70, 43
1, 22012, Note_on_c, 0, 65, 55
1, 22014, Control_c, 0, 64, 0
1, 22031, Note_on_c, 0, 74, 0
1, 22032, Note_on_c, 0, 82, 0
1, 22035, Control_c, 0, 64, 127
1, 22037, Note_on_c, 0, 70, 0
1, 22059, Note_on_c, 0, 65, 0
1, 22079, Note_on_c, 0, 53, 0
1, 22118, Note_on_c, 0, 77, 48
1, 22119, Note_on_c, 0, 70, 51
1, 22121, Note_on_c, 0, 53, 45
1, 22121, Note_on_c, 0, 74, 34
1, 22122, Note_on_c, 0, 65, 60
1, 22134, Note_on_c, 0, 74, 0
1, 22136, Note_on_c, 0, 65, 0
1, 22142, Note_on_c, 0, 77, 0
1, 22143, Note_on_c, 0, 70, 0
1, 22144, Note_on_c, 0, 62, 0
1, 22229, Note_on_c, 0, 62, 62
1, 22231, Note_on_c, 0, 74, 34
1, 22232, Note_on_c, 0, 70, 49
1, 22235, Note_on_c, 0, 65, 64
1, 22236, Control_c, 0, 64, 0
1, 22242, Note_on_c, 0, 70, 0
1, 22242, Note_on_c, 0, 62, 0
1, 22245, Note_on_c, 0, 74, 0
1, 22248, Note_on_c, 0, 65, 0
1, 22262, Control_c, 0, 64, 127
1, 22274, Note_on_c, 0, 53, 0
1, 22296, Note_on_c, 0, 70, 57
1, 22300, Note_on_c, 0, 62, 49
1, 22300, Note_on_c, 0, 53, 66
1, 22309, Note_on_c, 0, 65, 54
1, 22373, Note_on_c, 0, 65, 0
1, 22373, Note_on_c, 0, 70, 0
1, 22383, Note_on_c, 0, 62, 0
1, 22399, Note_on_c, 0, 41, 49
1, 22428, Note_on_c, 0, 41, 0
1, 22460, Note_on_c, 0, 41, 57
1, 22499, Note_on_c, 0, 53, 0
1, 22506, Note_on_c, 0, 41, 0
1, 22521, Note_on_c, 0, 64, 78
1, 22523, Note_on_c, 0, 55, 79
1, 22523, Note_on_c, 0, 53, 72
1, 22523, Note_on_c, 0, 41, 78
1, 22524, Note_on_c, 0, 60, 74
1, 22526, Control_c, 0, 64, 0
1, 22562, Control_c, 0, 64, 127
1, 22610, Note_on_c, 0, 55, 0
1, 22623, Note_on_c, 0, 60, 0
1, 22629, Note_on_c, 0, 64, 0
1, 22659, Note_on_c, 0, 41, 0
1, 22693, Note_on_c, 0, 41, 68
1, 22712, Note_on_c, 0, 53, 0
1, 22758, Note_on_c, 0, 76, 74
1, 22760, Note_on_c, 0, 53, 73
1, 22760, Note_on_c, 0, 67, 92
1, 22777, Note_on_c, 0, 67, 0
1, 22781, Note_on_c, 0, 76, 0
1, 22820, Note_on_c, 0, 72, 70
1, 22823, Note_on_c, 0, 64, 64
1, 22842, Note_on_c, 0, 64, 0
1, 22852, Note_on_c, 0, 72, 0
1, 22868, Note_on_c, 0, 41, 0
1, 22877, Note_on_c, 0, 67, 56
1, 22886, Note_on_c, 0, 67, 0
1, 22939, Note_on_c, 0, 41, 59
1, 22953, Note_on_c, 0, 53, 0
1, 22977, Control_c, 0, 64, 0
1, 22996, Note_on_c, 0, 69, 80
1, 22997, Note_on_c, 0, 53, 68
1, 22997, Note_on_c, 0, 60, 85
1, 22999, Note_on_c, 0, 65, 71
1, 23016, Control_c, 0, 64, 127
1, 23021, Note_on_c, 0, 65, 0
1, 23030, Note_on_c, 0, 69, 0
1, 23040, Note_on_c, 0, 60, 0
1, 23054, Note_on_c, 0, 53, 0
1, 23071, Note_on_c, 0, 65, 64
1, 23076, Note_on_c, 0, 53, 51
1, 23078, Note_on_c, 0, 57, 60
1, 23089, Note_on_c, 0, 57, 0
1, 23133, Note_on_c, 0, 53, 0
1, 23166, Note_on_c, 0, 65, 0
1, 23169, Note_on_c, 0, 41, 0
1, 23179, Note_on_c, 0, 53, 58
1, 23179, Note_on_c, 0, 60, 60
1, 23180, Note_on_c, 0, 45, 50
1, 23181, Control_c, 0, 64, 0
1, 23182, Note_on_c, 0, 57, 51
1, 23214, Note_on_c, 0, 65, 1
1, 23220, Control_c, 0, 64, 127
1, 23226, Note_on_c, 0, 57, 0
1, 23253, Note_on_c, 0, 60, 0
1, 23258, Note_on_c, 0, 65, 0
1, 23301, Note_on_c, 0, 60, 92
1, 23319, Note_on_c, 0, 53, 0
1, 23327, Note_on_c, 0, 60, 0
1, 23335, Note_on_c, 0, 60, 26
1, 23344, Note_on_c, 0, 45, 0
1, 23344, Control_c, 0, 64, 0
1, 23357, Note_on_c, 0, 61, 40
1, 23380, Note_on_c, 0, 61, 0
1, 23386, Note_on_c, 0, 62, 40
1, 23396, Note_on_c, 0, 60, 0
1, 23408, Note_on_c, 0, 62, 0
1, 23422, Note_on_c, 0, 65, 74
1, 23451, Note_on_c, 0, 65, 0
1, 23591, Note_on_c, 0, 46, 35
1, 23593, Note_on_c, 0, 34, 33
1, 23597, Note_on_c, 0, 58, 44
1, 23598, Note_on_c, 0, 53, 31
1, 23599, Note_on_c, 0, 62, 31
1, 23599, Note_on_c, 0, 65, 30
1, 23615, Note_on_c, 0, 53, 0
1, 23624, Note_on_c, 0, 58, 0
1, 23628, Note_on_c, 0, 65, 0
1, 23629, Note_on_c, 0, 62, 0
1, 23643, Note_on_c, 0, 34, 0
1, 23653, Note_on_c, 0, 46, 0
1, 23730, Control_c, 0, 64, 127
1, 23778, Note_on_c, 0, 36, 27
1, 23783, Note_on_c, 0, 62, 31
1, 23783, Note_on_c, 0, 65, 35
1, 23784, Note_on_c, 0, 48, 24
1, 23784, Note_on_c, 0, 58, 42
1, 23785, Note_on_c, 0, 53, 31
1, 23809, Note_on_c, 0, 48, 0
1, 23813, Note_on_c, 0, 53, 0
1, 23824, Note_on_c, 0, 65, 0
1, 23824, Note_on_c, 0, 36, 0
1, 23828, Note_on_c, 0, 62, 0
1, 23830, Note_on_c, 0, 58, 0
1, 23834, Control_c, 0, 64, 0
1, 23946, Note_on_c, 0, 56, 39
1, 23950, Note_on_c, 0, 65, 44
1, 23955, Note_on_c, 0, 41, 44
1, 23958, Note_on_c, 0, 29, 26
1, 23976, Note_on_c, 0, 56, 0
1, 24009, Note_on_c, 0, 57, 14
1, 24090, Control_c, 0, 64, 127
1, 24091, Note_on_c, 0, 65, 0
1, 24093, Note_on_c, 0, 57, 0
1, 24191, Note_on_c, 0, 29, 0
1, 24196, Control_c, 0, 64, 0
1, 24203, Note_on_c, 0, 68, 39
1, 24210, Note_on_c, 0, 57, 36
1, 24211, Note_on_c, 0, 63, 32
1, 24213, Note_on_c, 0, 33, 39
1, 24258, Control_c, 0, 64, 127
1, 24307, Note_on_c, 0, 68, 0
1, 24310, Note_on_c, 0, 63, 0
1, 24317, Note_on_c, 0, 57, 0
1, 24346, Note_on_c, 0, 41, 0
1, 24386, Note_on_c, 0, 33, 0
1, 24395, Control_c, 0, 64, 0
1, 24396, Note_on_c, 0, 65, 44
1, 24396, Note_on_c, 0, 34, 42
1, 24397, Note_on_c, 0, 58, 35
1, 24397, Note_on_c, 0, 62, 34
1, 24400, Note_on_c, 0, 53, 22
1, 24491, Control_c, 0, 64, 127
1, 24558, Note_on_c, 0, 53, 0
1, 24562, Note_on_c, 0, 62, 0
1, 24566, Note_on_c, 0, 58, 0
1, 24567, Note_on_c, 0, 65, 0
1, 24638, Note_on_c, 0, 32, 25
1, 24651, Note_on_c, 0, 32, 0
1, 24656, Note_on_c, 0, 34, 0
1, 24671, Note_on_c, 0, 70, 51
1, 24672, Control_c, 0, 64, 0
1, 24673, Note_on_c, 0, 36, 42
1, 24678, Note_on_c, 0, 62, 38
1, 24682, Note_on_c, 0, 58, 21
1, 24684, Note_on_c, 0, 65, 33
1, 24713, Control_c, 0, 64, 127
1, 24768, Control_c, 0, 64, 0
1, 24775, Note_on_c, 0, 62, 0
1, 24776, Note_on_c, 0, 65, 0
1, 24783, Note_on_c, 0, 70, 0
1, 24783, Note_on_c, 0, 24, 38
1, 24786, Note_on_c, 0, 58, 0
1, 24789, Note_on_c, 0, 36, 0
1, 24793, Control_c, 0, 64, 127
1, 24843, Control_c, 0, 64, 0
1, 24849, Note_on_c, 0, 24, 0
1, 24857, Note_on_c, 0, 69, 35
1, 24857, Note_on_c, 0, 65, 40
1, 24858, Note_on_c, 0, 29, 39
1, 24859, Note_on_c, 0, 57, 27
1, 25017, Note_on_c, 0, 69, 0
1, 25022, Note_on_c, 0, 65, 0
1, 25024, Control_c, 0, 64, 127
1, 25049, Note_on_c, 0, 57, 0
1, 25095, Note_on_c, 0, 27, 29
1, 25130, Note_on_c, 0, 56, 43
1, 25132, Note_on_c, 0, 65, 57
1, 25132, Control_c, 0, 64, 0
1, 25133, Note_on_c, 0, 29, 0
1, 25138, Note_on_c, 0, 33, 42
1, 25139, Note_on_c, 0, 56, 0
1, 25143, Note_on_c, 0, 27, 0
1, 25161, Note_on_c, 0, 57, 24
1, 25254, Note_on_c, 0, 57, 0
1, 25254, Control_c, 0, 64, 127
1, 25270, Note_on_c, 0, 65, 0
1, 25311, Control_c, 0, 64, 0
1, 25315, Note_on_c, 0, 34, 46
1, 25316, Note_on_c, 0, 33, 0
1, 25318, Note_on_c, 0, 65, 52
1, 25320, Note_on_c, 0, 58, 47
1, 25322, Note_on_c, 0, 62, 40
1, 25477, Control_c, 0, 64, 127
1, 25499, Note_on_c, 0, 62, 0
1, 25503, Note_on_c, 0, 58, 0
1, 25505, Note_on_c, 0, 65, 0
1, 25593, Control_c, 0, 64, 0
1, 25599, Note_on_c, 0, 70, 56
1, 25602, Note_on_c, 0, 62, 50
1, 25607, Note_on_c, 0, 34, 0
1, 25610, Note_on_c, 0, 36, 36
1, 25679, Note_on_c, 0, 62, 0
1, 25680, Note_on_c, 0, 70, 0
1, 25712, Note_on_c, 0, 37, 60
1, 25722, Note_on_c, 0, 36, 0
1, 25725, Control_c, 0, 64, 127
1, 25774, Control_c, 0, 64, 0
1, 25781, Note_on_c, 0, 37, 0
1, 25786, Note_on_c, 0, 65, 66
1, 25786, Note_on_c, 0, 62, 57
1, 25787, Note_on_c, 0, 57, 62
1, 25787, Note_on_c, 0, 38, 66
1, 25862, Control_c, 0, 64, 127
1, 25890, Note_on_c, 0, 26, 61
1, 25904, Note_on_c, 0, 26, 0
1, 25917, Note_on_c, 0, 38, 0
1, 25932, Note_on_c, 0, 65, 0
1, 25932, Note_on_c, 0, 62, 0
1, 25958, Note_on_c, 0, 57, 0
1, 26059, Note_on_c, 0, 44, 67
1, 26061, Note_on_c, 0, 65, 76
1, 26062, Note_on_c, 0, 54, 68
1, 26064, Note_on_c, 0, 60, 57
1, 26065, Note_on_c, 0, 58, 77
1, 26066, Control_c, 0, 64, 0
1, 26144, Control_c, 0, 64, 127
1, 26179, Note_on_c, 0, 54, 0
1, 26183, Note_on_c, 0, 65, 0
1, 26203, Note_on_c, 0, 60, 0
1, 26210, Note_on_c, 0, 58, 0
1, 26211, Note_on_c, 0, 44, 0
1, 26309, Note_on_c, 0, 43, 52
1, 26309, Note_on_c, 0, 53, 60
1, 26311, Note_on_c, 0, 57, 66
1, 26311, Note_on_c, 0, 50, 51
1, 26315, Control_c, 0, 64, 0
1, 26315, Note_on_c, 0, 60, 64
1, 26423, Control_c, 0, 64, 127
1, 26470, Note_on_c, 0, 53, 0
1, 26472, Note_on_c, 0, 50, 0
1, 26473, Note_on_c, 0, 60, 0
1, 26478, Note_on_c, 0, 57, 0
1, 26514, Control_c, 0, 64, 0
1, 26515, Note_on_c, 0, 59, 60
1, 26517, Note_on_c, 0, 53, 46
1, 26518, Note_on_c, 0, 50, 42
1, 26560, Control_c, 0, 64, 127
1, 26565, Note_on_c, 0, 43, 0
1, 26626, Note_on_c, 0, 43, 62
1, 26639, Note_on_c, 0, 50, 0
1, 26652, Note_on_c, 0, 53, 0
1, 26659, Note_on_c, 0, 43, 0
1, 26671, Note_on_c, 0, 59, 0
1, 26736, Note_on_c, 0, 31, 56
1, 26765, Note_on_c, 0, 31, 0
1, 26799, Note_on_c, 0, 36, 61
1, 26801, Note_on_c, 0, 24, 62
1, 26804, Note_on_c, 0, 62, 52
1, 26805, Note_on_c, 0, 58, 33
1, 26809, Control_c, 0, 64, 0
1, 26836, Note_on_c, 0, 58, 0
1, 26844, Note_on_c, 0, 62, 0
1, 26860, Note_on_c, 0, 65, 38
1, 26862, Note_on_c, 0, 58, 37
1, 26863, Note_on_c, 0, 53, 31
1, 26865, Note_on_c, 0, 62, 53
1, 26895, Note_on_c, 0, 65, 0
1, 26897, Note_on_c, 0, 53, 0
1, 26898, Note_on_c, 0, 62, 0
1, 26902, Note_on_c, 0, 58, 0
1, 26920, Note_on_c, 0, 65, 32
1, 26924, Note_on_c, 0, 53, 24
1, 26924, Note_on_c, 0, 58, 27
1, 26926, Note_on_c, 0, 62, 39
1, 26933, Note_on_c, 0, 36, 0
1, 26949, Note_on_c, 0, 53, 0
1, 26955, Note_on_c, 0, 58, 0
1, 26956, Note_on_c, 0, 65, 0
1, 26957, Note_on_c, 0, 62, 0
1, 26988, Note_on_c, 0, 65, 51
1, 26989, Note_on_c, 0, 58, 48
1, 26991, Note_on_c, 0, 62, 36
1, 26992, Note_on_c, 0, 53, 38
1, 26996, Note_on_c, 0, 36, 50
1, 27014, Note_on_c, 0, 36, 0
1, 27017, Note_on_c, 0, 53, 0
1, 27023, Note_on_c, 0, 65, 0
1, 27024, Note_on_c, 0, 58, 0
1, 27027, Note_on_c, 0, 62, 0
1, 27047, Control_c, 0, 64, 127
1, 27050, Note_on_c, 0, 36, 49
1, 27052, Note_on_c, 0, 58, 34
1, 27053, Note_on_c, 0, 65, 24
1, 27053, Note_on_c, 0, 62, 44
1, 27054, Note_on_c, 0, 53, 27
1, 27062, Control_c, 0, 64, 0
1, 27071, Note_on_c, 0, 53, 0
1, 27074, Note_on_c, 0, 36, 0
1, 27078, Note_on_c, 0, 58, 0
1, 27082, Note_on_c, 0, 62, 0
1, 27084, Note_on_c, 0, 65, 0
1, 27157, Note_on_c, 0, 24, 0
1, 27171, Control_c, 0, 64, 127
1, 27174, Note_on_c, 0, 58, 47
1, 27177, Note_on_c, 0, 62, 37
1, 27177, Note_on_c, 0, 53, 35
1, 27179, Note_on_c, 0, 65, 38
1, 27189, Note_on_c, 0, 53, 0
1, 27201, Note_on_c, 0, 58, 0
1, 27204, Note_on_c, 0, 62, 0
1, 27213, Note_on_c, 0, 65, 0
1, 27299, Note_on_c, 0, 53, 53
1, 27300, Note_on_c, 0, 76, 35
1, 27300, Control_c, 0, 64, 0
1, 27302, Note_on_c, 0, 67, 47
1, 27311, Control_c, 0, 64, 127
1, 27341, Note_on_c, 0, 76, 0
1, 27352, Note_on_c, 0, 67, 0
1, 27411, Note_on_c, 0, 72, 43
1, 27422, Note_on_c, 0, 60, 27
1, 27469, Note_on_c, 0, 60, 0
1, 27486, Note_on_c, 0, 64, 53
1, 27488, Note_on_c, 0, 67, 51
1, 27499, Note_on_c, 0, 60, 37
1, 27533, Note_on_c, 0, 60, 0
1, 27557, Note_on_c, 0, 64, 0
1, 27589, Note_on_c, 0, 67, 0
1, 27600, Note_on_c, 0, 60, 57
1, 27601, Note_on_c, 0, 72, 0
1, 27636, Note_on_c, 0, 53, 0
1, 27707, Note_on_c, 0, 53, 57
1, 27726, Note_on_c, 0, 60, 0
1, 27753, Control_c, 0, 64, 0
1, 27771, Note_on_c, 0, 81, 88
1, 27771, Note_on_c, 0, 65, 72
1, 27772, Note_on_c, 0, 60, 55
1, 27772, Note_on_c, 0, 72, 90
1, 27782, Control_c, 0, 64, 127
1, 27811, Note_on_c, 0, 81, 0
1, 27818, Note_on_c, 0, 72, 0
1, 27844, Note_on_c, 0, 53, 0
1, 27878, Note_on_c, 0, 53, 57
1, 27882, Note_on_c, 0, 77, 47
1, 27892, Note_on_c, 0, 65, 0
1, 27911, Note_on_c, 0, 60, 0
1, 27914, Note_on_c, 0, 77, 0
1, 27956, Note_on_c, 0, 72, 51
1, 27957, Note_on_c, 0, 60, 44
1, 27958, Note_on_c, 0, 65, 53
1, 27961, Note_on_c, 0, 69, 44
1, 27963, Control_c, 0, 64, 0
1, 28002, Control_c, 0, 64, 127
1, 28007, Note_on_c, 0, 53, 0
1, 28039, Note_on_c, 0, 65, 0
1, 28057, Note_on_c, 0, 69, 0
1, 28063, Note_on_c, 0, 72, 0
1, 28066, Note_on_c, 0, 53, 57
1, 28099, Note_on_c, 0, 53, 0
1, 28166, Note_on_c, 0, 60, 0
1, 28179, Note_on_c, 0, 88, 87
1, 28181, Note_on_c, 0, 79, 75
1, 28186, Note_on_c, 0, 53, 73
1, 28188, Control_c, 0, 64, 0
1, 28214, Control_c, 0, 64, 127
1, 28222, Note_on_c, 0, 88, 0
1, 28230, Note_on_c, 0, 79, 0
1, 28295, Note_on_c, 0, 84, 61
1, 28297, Note_on_c, 0, 64, 49
1, 28300, Note_on_c, 0, 76, 47
1, 28303, Note_on_c, 0, 60, 36
1, 28319, Note_on_c, 0, 84, 0
1, 28325, Note_on_c, 0, 76, 0
1, 28362, Note_on_c, 0, 64, 0
1, 28369, Note_on_c, 0, 60, 0
1, 28409, Note_on_c, 0, 79, 49
1, 28414, Note_on_c, 0, 72, 33
1, 28420, Note_on_c, 0, 64, 27
1, 28421, Note_on_c, 0, 60, 31
1, 28451, Note_on_c, 0, 72, 0
1, 28471, Note_on_c, 0, 79, 0
1, 28476, Note_on_c, 0, 76, 30
1, 28480, Note_on_c, 0, 72, 36
1, 28480, Note_on_c, 0, 67, 44
1, 28514, Note_on_c, 0, 53, 0
1, 28575, Note_on_c, 0, 67, 0
1, 28580, Note_on_c, 0, 72, 0
1, 28591, Note_on_c, 0, 76, 0
1, 28592, Note_on_c, 0, 53, 34
1, 28623, Note_on_c, 0, 53, 0
1, 28641, Note_on_c, 0, 64, 0
1, 28650, Note_on_c, 0, 53, 66
1, 28663, Note_on_c, 0, 60, 0
1, 28708, Control_c, 0, 64, 0
1, 28711, Note_on_c, 0, 82, 71
1, 28712, Note_on_c, 0, 74, 64
1, 28715, Note_on_c, 0, 58, 69
1, 28715, Note_on_c, 0, 70, 62
1, 28715, Note_on_c, 0, 62, 68
1, 28742, Control_c, 0, 64, 127
1, 28772, Note_on_c, 0, 53, 0
1, 28803, Note_on_c, 0, 74, 0
1, 28809, Note_on_c, 0, 82, 0
1, 28818, Note_on_c, 0, 70, 0
1, 28829, Note_on_c, 0, 53, 36
1, 28842, Note_on_c, 0, 58, 0
1, 28846, Note_on_c, 0, 62, 0
1, 28896, Note_on_c, 0, 70, 38
1, 28897, Note_on_c, 0, 77, 49
1, 28901, Note_on_c, 0, 65, 47
1, 28903, Note_on_c, 0, 62, 39
1, 28905, Control_c, 0, 64, 0
1, 28910, Note_on_c, 0, 74, 17
1, 28912, Note_on_c, 0, 58, 31
1, 28936, Control_c, 0, 64, 127
1, 28937, Note_on_c, 0, 74, 0
1, 28942, Note_on_c, 0, 53, 0
1, 28964, Note_on_c, 0, 65, 0
1, 28966, Note_on_c, 0, 70, 0
1, 28989, Note_on_c, 0, 77, 0
1, 29005, Note_on_c, 0, 74, 42
1, 29008, Note_on_c, 0, 58, 0
1, 29008, Note_on_c, 0, 62, 0
1, 29008, Note_on_c, 0, 53, 41
1, 29008, Note_on_c, 0, 70, 47
1, 29011, Note_on_c, 0, 65, 53
1, 29025, Note_on_c, 0, 65, 0
1, 29028, Note_on_c, 0, 53, 0
1, 29030, Note_on_c, 0, 74, 0
1, 29039, Note_on_c, 0, 70, 0
1, 29115, Note_on_c, 0, 41, 72
1, 29169, Control_c, 0, 64, 0
1, 29186, Note_on_c, 0, 76, 80
1, 29187, Note_on_c, 0, 67, 99
1, 29190, Note_on_c, 0, 53, 74
1, 29221, Control_c, 0, 64, 127
1, 29235, Note_on_c, 0, 76, 0
1, 29247, Note_on_c, 0, 67, 0
1, 29263, Note_on_c, 0, 53, 0
1, 29300, Note_on_c, 0, 72, 53
1, 29303, Note_on_c, 0, 53, 46
1, 29304, Note_on_c, 0, 64, 48
1, 29317, Note_on_c, 0, 72, 0
1, 29323, Note_on_c, 0, 64, 0
1, 29328, Note_on_c, 0, 53, 0
1, 29379, Note_on_c, 0, 60, 48
1, 29379, Note_on_c, 0, 53, 46
1, 29380, Note_on_c, 0, 67, 43
1, 29381, Note_on_c, 0, 64, 44
1, 29384, Control_c, 0, 64, 0
1, 29432, Note_on_c, 0, 41, 0
1, 29433, Control_c, 0, 64, 127
1, 29490, Note_on_c, 0, 41, 58
1, 29524, Note_on_c, 0, 64, 0
1, 29530, Note_on_c, 0, 67, 0
1, 29532, Note_on_c, 0, 60, 0
1, 29563, Note_on_c, 0, 53, 0
1, 29605, Note_on_c, 0, 53, 41
1, 29618, Note_on_c, 0, 53, 0
1, 29656, Control_c, 0, 64, 0
1, 29667, Note_on_c, 0, 53, 49
1, 29667, Note_on_c, 0, 69, 54
1, 29668, Note_on_c, 0, 60, 50
1, 29670, Note_on_c, 0, 65, 53
1, 29694, Control_c, 0, 64, 127
1, 29695, Note_on_c, 0, 65, 0
1, 29701, Note_on_c, 0, 69, 0
1, 29711, Note_on_c, 0, 60, 0
1, 29725, Note_on_c, 0, 53, 0
1, 29781, Note_on_c, 0, 65, 62
1, 29782, Note_on_c, 0, 53, 42
1, 29832, Note_on_c, 0, 41, 0
1, 29841, Note_on_c, 0, 65, 0
1, 29849, Note_on_c, 0, 57, 63
1, 29852, Note_on_c, 0, 60, 47
1, 29857, Note_on_c, 0, 45, 60
1, 29863, Control_c, 0, 64, 0
1, 29904, Control_c, 0, 64, 127
1, 29921, Note_on_c, 0, 57, 0
1, 29929, Note_on_c, 0, 45, 0
1, 29949, Note_on_c, 0, 60, 0
1, 29969, Note_on_c, 0, 45, 58
1, 30013, Control_c, 0, 64, 0
1, 30021, Note_on_c, 0, 60, 32
1, 30043, Note_on_c, 0, 45, 0
1, 30069, Note_on_c, 0, 60, 0
1, 30080, Control_c, 0, 64, 127
1, 30093, Note_on_c, 0, 65, 76
1, 30099, Note_on_c, 0, 45, 46
1, 30117, Note_on_c, 0, 53, 0
1, 30126, Note_on_c, 0, 65, 0
1, 30133, Note_on_c, 0, 45, 0
1, 30139, Control_c, 0, 64, 0
1, 30152, Note_on_c, 0, 62, 47
1, 30158, Note_on_c, 0, 58, 30
1, 30159, Note_on_c, 0, 53, 20
1, 30160, Note_on_c, 0, 46, 31
1, 30191, Control_c, 0, 64, 127
1, 30213, Note_on_c, 0, 53, 0
1, 30219, Note_on_c, 0, 62, 0
1, 30222, Note_on_c, 0, 58, 0
1, 30225, Note_on_c, 0, 46, 0
1, 30235, Control_c, 0, 64, 0
1, 30270, Note_on_c, 0, 62, 47
1, 30271, Note_on_c, 0, 46, 34
1, 30273, Note_on_c, 0, 53, 28
1, 30273, Note_on_c, 0, 58, 31
1, 30276, Control_c, 0, 64, 127
1, 30290, Note_on_c, 0, 53, 0
1, 30298, Note_on_c, 0, 58, 0
1, 30306, Note_on_c, 0, 46, 0
1, 30311, Note_on_c, 0, 62, 0
1, 30329, Note_on_c, 0, 46, 45
1, 30371, Note_on_c, 0, 46, 0
1, 30383, Control_c, 0, 64, 0
1, 30391, Note_on_c, 0, 48, 36
1, 30392, Note_on_c, 0, 64, 45
1, 30399, Note_on_c, 0, 58, 28
1, 30402, Note_on_c, 0, 55, 20
1, 30427, Control_c, 0, 64, 127
1, 30435, Note_on_c, 0, 64, 0
1, 30435, Note_on_c, 0, 48, 0
1, 30453, Note_on_c, 0, 65, 55
1, 30457, Note_on_c, 0, 55, 0
1, 30457, Note_on_c, 0, 50, 41
1, 30460, Note_on_c, 0, 58, 0
1, 30464, Note_on_c, 0, 64, 27
1, 30470, Note_on_c, 0, 65, 0
1, 30479, Note_on_c, 0, 64, 0
1, 30496, Control_c, 0, 64, 0
1, 30508, Note_on_c, 0, 67, 78
1, 30510, Note_on_c, 0, 50, 0
1, 30510, Note_on_c, 0, 52, 70
1, 30515, Note_on_c, 0, 59, 31
1, 30525, Control_c, 0, 64, 127
1, 30534, Note_on_c, 0, 59, 0
1, 30542, Note_on_c, 0, 67, 0
1, 30558, Note_on_c, 0, 52, 0
1, 30577, Control_c, 0, 64, 0
1, 30577, Note_on_c, 0, 65, 76
1, 30579, Note_on_c, 0, 57, 74
1, 30580, Note_on_c, 0, 53, 71
1, 30581, Note_on_c, 0, 60, 76
1, 30644, Control_c, 0, 64, 127
1, 30689, Note_on_c, 0, 41, 68
1, 30777, Note_on_c, 0, 41, 0
1, 30802, Note_on_c, 0, 57, 0
1, 30811, Note_on_c, 0, 41, 60
1, 30817, Note_on_c, 0, 65, 0
1, 30820, Note_on_c, 0, 60, 0
1, 30844, Note_on_c, 0, 53, 0
1, 30857, Note_on_c, 0, 41, 0
1, 30870, Note_on_c, 0, 65, 62
1, 30872, Control_c, 0, 64, 0
1, 30873, Note_on_c, 0, 53, 51
1, 30875, Note_on_c, 0, 57, 47
1, 30877, Note_on_c, 0, 45, 63
1, 30885, Note_on_c, 0, 60, 34
1, 30909, Note_on_c, 0, 60, 0
1, 30920, Note_on_c, 0, 65, 0
1, 30923, Note_on_c, 0, 57, 0
1, 30940, Note_on_c, 0, 63, 33
1, 30973, Note_on_c, 0, 63, 0
1, 30983, Note_on_c, 0, 45, 0
1, 30996, Control_c, 0, 64, 127
1, 30999, Note_on_c, 0, 45, 52
1, 31058, Note_on_c, 0, 45, 0
1, 31069, Note_on_c, 0, 58, 84
1, 31069, Note_on_c, 0, 67, 77
1, 31070, Note_on_c, 0, 46, 69
1, 31071, Note_on_c, 0, 62, 71
1, 31074, Control_c, 0, 64, 0
1, 31128, Control_c, 0, 64, 127
1, 31222, Note_on_c, 0, 53, 0
1, 31229, Note_on_c, 0, 67, 0
1, 31230, Note_on_c, 0, 58, 0
1, 31230, Note_on_c, 0, 46, 0
1, 31245, Note_on_c, 0, 62, 0
1, 31284, Note_on_c, 0, 46, 39
1, 31322, Note_on_c, 0, 46, 0
1, 31340, Control_c, 0, 64, 0
1, 31345, Note_on_c, 0, 70, 55
1, 31348, Note_on_c, 0, 62, 53
1, 31349, Note_on_c, 0, 48, 47
1, 31355, Note_on_c, 0, 65, 45
1, 31367, Note_on_c, 0, 65, 0
1, 31368, Note_on_c, 0, 36, 19
1, 31371, Note_on_c, 0, 62, 0
1, 31379, Note_on_c, 0, 70, 0
1, 31382, Note_on_c, 0, 36, 0
1, 31387, Note_on_c, 0, 48, 0
1, 31431, Note_on_c, 0, 70, 47
1, 31434, Note_on_c, 0, 36, 35
1, 31434, Note_on_c, 0, 62, 44
1, 31435, Note_on_c, 0, 58, 39
1, 31435, Note_on_c, 0, 48, 30
1, 31440, Note_on_c, 0, 65, 41
1, 31449, Note_on_c, 0, 48, 0
1, 31452, Note_on_c, 0, 65, 0
1, 31454, Note_on_c, 0, 58, 0
1, 31456, Note_on_c, 0, 62, 0
1, 31462, Note_on_c, 0, 70, 0
1, 31476, Note_on_c, 0, 36, 0
1, 31477, Control_c, 0, 64, 127
1, 31539, Control_c, 0, 64, 0
1, 31544, Note_on_c, 0, 41, 43
1, 31548, Note_on_c, 0, 69, 42
1, 31549, Note_on_c, 0, 57, 43
1, 31549, Note_on_c, 0, 65, 49
1, 31588, Control_c, 0, 64, 127
1, 31663, Note_on_c, 0, 29, 35
1, 31666, Note_on_c, 0, 69, 0
1, 31672, Note_on_c, 0, 65, 0
1, 31686, Note_on_c, 0, 57, 0
1, 31729, Note_on_c, 0, 29, 0
1, 31779, Note_on_c, 0, 29, 46
1, 31793, Note_on_c, 0, 60, 41
1, 31803, Note_on_c, 0, 60, 0
1, 31817, Note_on_c, 0, 29, 0
1, 31839, Note_on_c, 0, 60, 38
1, 31844, Control_c, 0, 64, 0
1, 31848, Note_on_c, 0, 61, 54
1, 31848, Note_on_c, 0, 33, 46
1, 31870, Note_on_c, 0, 61, 0
1, 31871, Note_on_c, 0, 62, 48
1, 31876, Note_on_c, 0, 60, 0
1, 31902, Note_on_c, 0, 62, 0
1, 31918, Note_on_c, 0, 65, 80
1, 31971, Control_c, 0, 64, 127
1, 32011, Note_on_c, 0, 65, 0
1, 32066, Note_on_c, 0, 41, 0
1, 32078, Note_on_c, 0, 65, 48
1, 32079, Note_on_c, 0, 33, 0
1, 32080, Control_c, 0, 64, 0
1, 32080, Note_on_c, 0, 34, 42
1, 32081, Note_on_c, 0, 58, 40
1, 32089, Note_on_c, 0, 58, 0
1, 32096, Note_on_c, 0, 65, 0
1, 32103, Note_on_c, 0, 34, 0
1, 32138, Note_on_c, 0, 34, 56
1, 32141, Note_on_c, 0, 70, 71
1, 32143, Note_on_c, 0, 58, 73
1, 32147, Note_on_c, 0, 62, 51
1, 32159, Note_on_c, 0, 62, 0
1, 32177, Note_on_c, 0, 58, 0
1, 32179, Note_on_c, 0, 70, 0
1, 32182, Note_on_c, 0, 34, 0
1, 32191, Note_on_c, 0, 35, 56
1, 32202, Note_on_c, 0, 69, 62
1, 32213, Note_on_c, 0, 69, 0
1, 32247, Note_on_c, 0, 35, 0
1, 32261, Note_on_c, 0, 36, 57
1, 32266, Control_c, 0, 64, 127
1, 32274, Note_on_c, 0, 36, 0
1, 32308, Control_c, 0, 64, 0
1, 32316, Note_on_c, 0, 61, 52
1, 32321, Note_on_c, 0, 36, 34
1, 32329, Note_on_c, 0, 61, 0
1, 32334, Note_on_c, 0, 62, 43
1, 32387, Note_on_c, 0, 58, 36
1, 32389, Note_on_c, 0, 53, 79
1, 32390, Note_on_c, 0, 65, 80
1, 32392, Note_on_c, 0, 24, 84
1, 32399, Note_on_c, 0, 64, 40
1, 32409, Note_on_c, 0, 64, 0
1, 32450, Control_c, 0, 64, 127
1, 32477, Note_on_c, 0, 53, 0
1, 32503, Note_on_c, 0, 65, 0
1, 32505, Note_on_c, 0, 27, 37
1, 32509, Note_on_c, 0, 62, 0
1, 32513, Note_on_c, 0, 58, 0
1, 32533, Note_on_c, 0, 36, 0
1, 32545, Note_on_c, 0, 27, 0
1, 32546, Note_on_c, 0, 24, 0
1, 32553, Note_on_c, 0, 56, 43
1, 32553, Control_c, 0, 64, 0
1, 32554, Note_on_c, 0, 65, 55
1, 32560, Note_on_c, 0, 29, 55
1, 32591, Note_on_c, 0, 56, 0
1, 32601, Note_on_c, 0, 57, 24
1, 32693, Control_c, 0, 64, 127
1, 32751, Note_on_c, 0, 57, 0
1, 32757, Note_on_c, 0, 65, 0
1, 32763, Note_on_c, 0, 27, 23
1, 32804, Control_c, 0, 64, 0
1, 32807, Note_on_c, 0, 29, 0
1, 32807, Note_on_c, 0, 33, 44
1, 32809, Note_on_c, 0, 27, 0
1, 32809, Note_on_c, 0, 65, 41
1, 32818, Note_on_c, 0, 57, 24
1, 32847, Note_on_c, 0, 65, 0
1, 32853, Note_on_c, 0, 57, 0
1, 32881, Note_on_c, 0, 65, 34
1, 32885, Note_on_c, 0, 57, 34
1, 32903, Control_c, 0, 64, 127
1, 32910, Note_on_c, 0, 57, 0
1, 32915, Note_on_c, 0, 65, 0
1, 33040, Control_c, 0, 64, 0
1, 33044, Note_on_c, 0, 34, 40
1, 33050, Note_on_c, 0, 67, 25
1, 33050, Note_on_c, 0, 62, 30
1, 33056, Note_on_c, 0, 33, 0
1, 33148, Control_c, 0, 64, 127
1, 33161, Note_on_c, 0, 67, 0
1, 33178, Note_on_c, 0, 62, 0
1, 33290, Note_on_c, 0, 34, 0
1, 33296, Control_c, 0, 64, 0
1, 33296, Note_on_c, 0, 36, 62
1, 33370, Note_on_c, 0, 24, 46
1, 33423, Control_c, 0, 64, 127
1, 33511, Note_on_c, 0, 36, 0
1, 33543, Note_on_c, 0, 24, 0
1, 33549, Note_on_c, 0, 29, 36
1, 33549, Note_on_c, 0, 65, 39
1, 33550, Note_on_c, 0, 57, 33
1, 33550, Control_c, 0, 64, 0
1, 33554, Note_on_c, 0, 60, 32
1, 33666, Control_c, 0, 64, 127
1, 33669, Note_on_c, 0, 60, 0
1, 33672, Note_on_c, 0, 57, 0
1, 33674, Note_on_c, 0, 65, 0
1, 33793, Control_c, 0, 64, 0
1, 33795, Note_on_c, 0, 29, 0
1, 33795, Note_on_c, 0, 68, 57
1, 33800, Note_on_c, 0, 63, 52
1, 33802, Note_on_c, 0, 33, 38
1, 33803, Note_on_c, 0, 57, 56
1, 33845, Control_c, 0, 64, 127
1, 33858, Note_on_c, 0, 57, 0
1, 33861, Note_on_c, 0, 68, 0
1, 33865, Note_on_c, 0, 67, 63
1, 33888, Note_on_c, 0, 63, 0
1, 33906, Note_on_c, 0, 67, 0
1, 33924, Note_on_c, 0, 65, 50
1, 33972, Note_on_c, 0, 65, 0
1, 34004, Note_on_c, 0, 65, 51
1, 34005, Note_on_c, 0, 62, 53
1, 34005, Control_c, 0, 64, 0
1, 34006, Note_on_c, 0, 58, 42
1, 34007, Note_on_c, 0, 34, 52
1, 34015, Note_on_c, 0, 33, 0
1, 34052, Control_c, 0, 64, 127
1, 34063, Note_on_c, 0, 62, 0
1, 34078, Note_on_c, 0, 58, 0
1, 34085, Note_on_c, 0, 65, 0
1, 34148, Note_on_c, 0, 60, 101
1, 34198, Note_on_c, 0, 60, 0
1, 34212, Note_on_c, 0, 34, 0
1, 34226, Note_on_c, 0, 60, 83
1, 34266, Note_on_c, 0, 60, 0
1, 34309, Note_on_c, 0, 60, 87
1, 34338, Note_on_c, 0, 60, 0
1, 34392, Note_on_c, 0, 61, 44
1, 34394, Note_on_c, 0, 58, 37
1, 34401, Note_on_c, 0, 36, 48
1, 34404, Note_on_c, 0, 61, 0
1, 34405, Note_on_c, 0, 48, 36
1, 34408, Note_on_c, 0, 62, 51
1, 34414, Control_c, 0, 64, 0
1, 34494, Note_on_c, 0, 65, 57
1, 34501, Note_on_c, 0, 53, 38
1, 34539, Control_c, 0, 64, 127
1, 34556, Note_on_c, 0, 65, 0
1, 34570, Note_on_c, 0, 53, 0
1, 34572, Note_on_c, 0, 62, 0
1, 34577, Note_on_c, 0, 58, 0
1, 34609, Note_on_c, 0, 65, 54
1, 34618, Note_on_c, 0, 48, 0
1, 34619, Note_on_c, 0, 53, 20
1, 34648, Note_on_c, 0, 36, 0
1, 34695, Note_on_c, 0, 53, 0
1, 34709, Note_on_c, 0, 65, 0
1, 34724, Note_on_c, 0, 62, 34
1, 34791, Note_on_c, 0, 62, 0
1, 35012, Note_on_c, 0, 56, 30
1, 35013, Note_on_c, 0, 65, 40
1, 35024, Note_on_c, 0, 41, 43
1, 35028, Note_on_c, 0, 29, 31
1, 35036, Note_on_c, 0, 56, 0
1, 35038, Control_c, 0, 64, 0
1, 35048, Note_on_c, 0, 57, 24
1, 35136, Control_c, 0, 64, 127
1, 35208, Note_on_c, 0, 57, 0
1, 35234, Note_on_c, 0, 65, 0
1, 35363, Note_on_c, 0, 29, 0
1, 35372, Note_on_c, 0, 41, 0
1, 35928, Control_c, 0, 64, 0
1, 35928, End_track
0, 0, End_of_file
