0, 0, Header, 1, 4, 120
1, 0, Start_track
1, 0, Title_t, "Chelsea Bridge"
1, 0, Text_t, "by Billy Strayhorn\012"
1, 0, Text_t, "Doug McKenzie\012"
1, 0, Text_t, "Lots of opportunities for Whole Tone Scales in this wonderful song - can be played with the first 2 bars of the A section  as Eb9#11 then Db9#11 - 2 dominant chords that contain all the 6  notes of the Whole Tone scale beginning on any of these Db Eb F G\012"
1, 0, Text_t, "See The New Real Book (Volume 1) page 51 for lead sheet.\012"
1, 0, Text_t, "dougmck@pipeline.com.au\012"
1, 0, Time_signature, 4, 2, 24, 8
1, 0, Key_signature, -5, "major"
1, 0, Tempo, 857143
1, 6240, Key_signature, -3, "major"
1, 8515, Marker_t, "Lots of opportunities for Whole Tone Scales in this wonderful song - can be played with the first 2 bars of the A section  as Eb9#11 then Db9#11 - 2 dominant chords that contain all the 6  notes of the Whole Tone scale beginning on any of these Db Eb F G A B "
1, 14400, Key_signature, 0, "major"
1, 20640, Key_signature, -3, "major"
1, 20640, End_track
2, 0, Start_track
2, 0, End_track
3, 0, Start_track
3, 0, Title_t, "Played in Real Time"
3, 0, Program_c, 0, 0
3, 0, Control_c, 0, 7, 118
3, 115, Note_on_c, 0, 82, 54
3, 118, Note_on_c, 0, 58, 52
3, 194, Note_on_c, 0, 84, 79
3, 195, Note_on_c, 0, 60, 64
3, 199, Note_on_c, 0, 82, 0
3, 199, Control_c, 0, 64, 127
3, 241, Note_on_c, 0, 58, 0
3, 258, Control_c, 0, 64, 0
3, 262, Note_on_c, 0, 84, 0
3, 264, Note_on_c, 0, 85, 86
3, 267, Note_on_c, 0, 60, 0
3, 267, Note_on_c, 0, 61, 77
3, 271, Control_c, 0, 64, 127
3, 294, Note_on_c, 0, 85, 0
3, 336, Note_on_c, 0, 63, 54
3, 337, Note_on_c, 0, 61, 0
3, 338, Note_on_c, 0, 87, 69
3, 410, Note_on_c, 0, 87, 0
3, 411, Note_on_c, 0, 63, 0
3, 413, Note_on_c, 0, 65, 48
3, 414, Note_on_c, 0, 89, 62
3, 548, Note_on_c, 0, 89, 0
3, 555, Note_on_c, 0, 91, 46
3, 559, Note_on_c, 0, 67, 53
3, 576, Note_on_c, 0, 65, 0
3, 638, Note_on_c, 0, 91, 0
3, 647, Note_on_c, 0, 67, 0
3, 673, Note_on_c, 0, 92, 68
3, 726, Note_on_c, 0, 92, 0
3, 812, Note_on_c, 0, 93, 77
3, 813, Note_on_c, 0, 39, 47
3, 813, Control_c, 0, 64, 0
3, 835, Control_c, 0, 64, 127
3, 867, Note_on_c, 0, 93, 0
3, 887, Note_on_c, 0, 39, 0
3, 889, Note_on_c, 0, 46, 51
3, 936, Note_on_c, 0, 46, 0
3, 1049, Note_on_c, 0, 55, 63
3, 1065, Note_on_c, 0, 60, 44
3, 1070, Note_on_c, 0, 61, 43
3, 1075, Note_on_c, 0, 65, 63
3, 1084, Note_on_c, 0, 60, 0
3, 1092, Note_on_c, 0, 69, 51
3, 1103, Note_on_c, 0, 69, 0
3, 1103, Note_on_c, 0, 65, 0
3, 1104, Note_on_c, 0, 72, 61
3, 1115, Note_on_c, 0, 72, 0
3, 1120, Note_on_c, 0, 77, 65
3, 1132, Note_on_c, 0, 81, 65
3, 1135, Note_on_c, 0, 77, 0
3, 1146, Note_on_c, 0, 84, 86
3, 1147, Note_on_c, 0, 81, 0
3, 1396, Note_on_c, 0, 84, 0
3, 1454, Note_on_c, 0, 91, 30
3, 1464, Note_on_c, 0, 92, 67
3, 1468, Note_on_c, 0, 91, 0
3, 1476, Note_on_c, 0, 93, 51
3, 1481, Note_on_c, 0, 93, 0
3, 1487, Note_on_c, 0, 94, 95
3, 1490, Note_on_c, 0, 92, 0
3, 1526, Note_on_c, 0, 55, 0
3, 1526, Note_on_c, 0, 61, 0
3, 1590, Note_on_c, 0, 94, 0
3, 1593, Note_on_c, 0, 91, 58
3, 1598, Note_on_c, 0, 49, 40
3, 1600, Control_c, 0, 64, 0
3, 1627, Control_c, 0, 64, 127
3, 1655, Note_on_c, 0, 91, 0
3, 1741, Note_on_c, 0, 70, 41
3, 1747, Note_on_c, 0, 67, 56
3, 1748, Note_on_c, 0, 63, 47
3, 1749, Note_on_c, 0, 53, 48
3, 1751, Note_on_c, 0, 59, 43
3, 1770, Note_on_c, 0, 63, 0
3, 1776, Note_on_c, 0, 67, 0
3, 1777, Note_on_c, 0, 70, 0
3, 1778, Note_on_c, 0, 53, 0
3, 1782, Note_on_c, 0, 59, 0
3, 1824, Note_on_c, 0, 70, 58
3, 1828, Note_on_c, 0, 63, 47
3, 1828, Note_on_c, 0, 67, 52
3, 1828, Note_on_c, 0, 58, 43
3, 1832, Note_on_c, 0, 59, 37
3, 1834, Note_on_c, 0, 53, 39
3, 1857, Note_on_c, 0, 63, 0
3, 1859, Note_on_c, 0, 53, 0
3, 1860, Note_on_c, 0, 58, 0
3, 1860, Note_on_c, 0, 67, 0
3, 1862, Note_on_c, 0, 59, 0
3, 1867, Note_on_c, 0, 70, 0
3, 1900, Note_on_c, 0, 70, 45
3, 1901, Note_on_c, 0, 67, 55
3, 1903, Note_on_c, 0, 58, 38
3, 1903, Note_on_c, 0, 63, 45
3, 1904, Note_on_c, 0, 53, 40
3, 1906, Note_on_c, 0, 59, 48
3, 1929, Note_on_c, 0, 53, 0
3, 1931, Note_on_c, 0, 59, 0
3, 1934, Note_on_c, 0, 67, 0
3, 1934, Note_on_c, 0, 63, 0
3, 1935, Note_on_c, 0, 58, 0
3, 1946, Note_on_c, 0, 70, 0
3, 1981, Note_on_c, 0, 67, 51
3, 1981, Note_on_c, 0, 58, 46
3, 1983, Note_on_c, 0, 63, 48
3, 1988, Note_on_c, 0, 59, 39
3, 1989, Note_on_c, 0, 53, 32
3, 2009, Note_on_c, 0, 63, 0
3, 2010, Note_on_c, 0, 58, 0
3, 2012, Note_on_c, 0, 53, 0
3, 2013, Note_on_c, 0, 59, 0
3, 2015, Note_on_c, 0, 67, 0
3, 2071, Note_on_c, 0, 70, 38
3, 2073, Note_on_c, 0, 63, 48
3, 2073, Note_on_c, 0, 67, 51
3, 2075, Note_on_c, 0, 53, 42
3, 2075, Note_on_c, 0, 58, 34
3, 2080, Note_on_c, 0, 59, 43
3, 2191, Note_on_c, 0, 67, 0
3, 2194, Note_on_c, 0, 58, 0
3, 2205, Note_on_c, 0, 63, 0
3, 2232, Note_on_c, 0, 70, 0
3, 2234, Note_on_c, 0, 59, 0
3, 2249, Note_on_c, 0, 53, 0
3, 2313, Note_on_c, 0, 54, 49
3, 2313, Note_on_c, 0, 89, 39
3, 2320, Note_on_c, 0, 90, 55
3, 2323, Note_on_c, 0, 89, 0
3, 2324, Note_on_c, 0, 49, 0
3, 2325, Note_on_c, 0, 91, 64
3, 2328, Note_on_c, 0, 55, 65
3, 2331, Note_on_c, 0, 91, 0
3, 2332, Note_on_c, 0, 54, 0
3, 2336, Note_on_c, 0, 90, 0
3, 2338, Control_c, 0, 64, 0
3, 2338, Note_on_c, 0, 92, 92
3, 2338, Note_on_c, 0, 56, 87
3, 2339, Note_on_c, 0, 55, 0
3, 2364, Control_c, 0, 64, 127
3, 2479, Note_on_c, 0, 56, 0
3, 2515, Note_on_c, 0, 92, 0
3, 2569, Note_on_c, 0, 55, 67
3, 2572, Note_on_c, 0, 60, 64
3, 2572, Note_on_c, 0, 93, 86
3, 2576, Note_on_c, 0, 61, 71
3, 2576, Note_on_c, 0, 89, 81
3, 2577, Note_on_c, 0, 58, 40
3, 2579, Note_on_c, 0, 85, 72
3, 2581, Control_c, 0, 64, 0
3, 2581, Note_on_c, 0, 65, 83
3, 2584, Note_on_c, 0, 81, 51
3, 2616, Control_c, 0, 64, 127
3, 2641, Note_on_c, 0, 89, 0
3, 2646, Note_on_c, 0, 85, 0
3, 2647, Note_on_c, 0, 93, 0
3, 2654, Note_on_c, 0, 81, 0
3, 2688, Note_on_c, 0, 94, 82
3, 2695, Note_on_c, 0, 60, 0
3, 2701, Note_on_c, 0, 65, 0
3, 2711, Note_on_c, 0, 55, 0
3, 2715, Note_on_c, 0, 61, 0
3, 2715, Note_on_c, 0, 94, 0
3, 2720, Note_on_c, 0, 58, 0
3, 2787, Note_on_c, 0, 91, 65
3, 2788, Note_on_c, 0, 87, 61
3, 2791, Note_on_c, 0, 83, 70
3, 2792, Control_c, 0, 64, 0
3, 2792, Note_on_c, 0, 59, 61
3, 2793, Note_on_c, 0, 53, 60
3, 2793, Note_on_c, 0, 63, 55
3, 2795, Note_on_c, 0, 79, 55
3, 2824, Control_c, 0, 64, 127
3, 2923, Note_on_c, 0, 83, 0
3, 2925, Note_on_c, 0, 91, 0
3, 2929, Note_on_c, 0, 79, 0
3, 2932, Note_on_c, 0, 87, 0
3, 2980, Note_on_c, 0, 63, 0
3, 2989, Note_on_c, 0, 92, 65
3, 3007, Note_on_c, 0, 59, 0
3, 3018, Note_on_c, 0, 92, 0
3, 3023, Note_on_c, 0, 53, 0
3, 3139, Note_on_c, 0, 46, 48
3, 3141, Note_on_c, 0, 74, 77
3, 3142, Control_c, 0, 64, 0
3, 3170, Control_c, 0, 64, 127
3, 3183, Note_on_c, 0, 46, 0
3, 3232, Note_on_c, 0, 56, 57
3, 3240, Note_on_c, 0, 74, 0
3, 3276, Note_on_c, 0, 58, 66
3, 3314, Note_on_c, 0, 59, 67
3, 3338, Note_on_c, 0, 59, 0
3, 3350, Note_on_c, 0, 58, 0
3, 3357, Note_on_c, 0, 62, 57
3, 3375, Note_on_c, 0, 62, 0
3, 3391, Note_on_c, 0, 67, 71
3, 3395, Note_on_c, 0, 56, 0
3, 3403, Note_on_c, 0, 67, 0
3, 3431, Note_on_c, 0, 74, 95
3, 3457, Note_on_c, 0, 74, 0
3, 3474, Note_on_c, 0, 79, 91
3, 3520, Note_on_c, 0, 70, 50
3, 3550, Note_on_c, 0, 79, 0
3, 3553, Note_on_c, 0, 70, 0
3, 3562, Note_on_c, 0, 71, 62
3, 3575, Note_on_c, 0, 71, 0
3, 3612, Note_on_c, 0, 82, 60
3, 3642, Note_on_c, 0, 82, 0
3, 3654, Note_on_c, 0, 83, 48
3, 3675, Note_on_c, 0, 83, 0
3, 3704, Note_on_c, 0, 96, 50
3, 3761, Note_on_c, 0, 96, 0
3, 3762, Note_on_c, 0, 92, 50
3, 3826, Note_on_c, 0, 95, 54
3, 3971, Note_on_c, 0, 92, 0
3, 3981, Note_on_c, 0, 95, 0
3, 3981, Note_on_c, 0, 94, 66
3, 4028, Note_on_c, 0, 94, 0
3, 4040, Note_on_c, 0, 93, 75
3, 4077, Note_on_c, 0, 92, 60
3, 4090, Note_on_c, 0, 93, 0
3, 4098, Note_on_c, 0, 92, 0
3, 4106, Note_on_c, 0, 91, 65
3, 4129, Note_on_c, 0, 91, 0
3, 4134, Note_on_c, 0, 90, 64
3, 4163, Note_on_c, 0, 90, 0
3, 4170, Control_c, 0, 64, 0
3, 4170, Note_on_c, 0, 89, 69
3, 4171, Note_on_c, 0, 39, 53
3, 4171, Note_on_c, 0, 54, 48
3, 4192, Control_c, 0, 64, 127
3, 4238, Note_on_c, 0, 101, 89
3, 4241, Note_on_c, 0, 39, 0
3, 4254, Note_on_c, 0, 54, 0
3, 4294, Note_on_c, 0, 89, 0
3, 4295, Note_on_c, 0, 101, 0
3, 4302, Note_on_c, 0, 97, 100
3, 4302, Note_on_c, 0, 54, 43
3, 4303, Note_on_c, 0, 58, 60
3, 4304, Note_on_c, 0, 65, 62
3, 4305, Note_on_c, 0, 61, 60
3, 4348, Note_on_c, 0, 97, 0
3, 4366, Note_on_c, 0, 97, 117
3, 4401, Note_on_c, 0, 65, 0
3, 4402, Note_on_c, 0, 61, 0
3, 4408, Note_on_c, 0, 97, 0
3, 4429, Note_on_c, 0, 61, 57
3, 4432, Note_on_c, 0, 97, 117
3, 4432, Note_on_c, 0, 65, 56
3, 4478, Note_on_c, 0, 97, 0
3, 4510, Note_on_c, 0, 97, 98
3, 4557, Note_on_c, 0, 97, 0
3, 4564, Note_on_c, 0, 65, 0
3, 4578, Note_on_c, 0, 61, 0
3, 4580, Note_on_c, 0, 58, 0
3, 4582, Note_on_c, 0, 54, 0
3, 4587, Note_on_c, 0, 97, 95
3, 4633, Note_on_c, 0, 97, 0
3, 4780, Note_on_c, 0, 98, 32
3, 4792, Note_on_c, 0, 99, 53
3, 4793, Note_on_c, 0, 98, 0
3, 4807, Note_on_c, 0, 100, 81
3, 4812, Note_on_c, 0, 99, 0
3, 4821, Note_on_c, 0, 100, 0
3, 4823, Control_c, 0, 64, 0
3, 4824, Note_on_c, 0, 32, 65
3, 4825, Note_on_c, 0, 101, 96
3, 4825, Note_on_c, 0, 44, 52
3, 4856, Control_c, 0, 64, 127
3, 4875, Note_on_c, 0, 32, 0
3, 4883, Note_on_c, 0, 44, 0
3, 4941, Note_on_c, 0, 101, 0
3, 5089, Note_on_c, 0, 104, 76
3, 5172, Note_on_c, 0, 104, 0
3, 5179, Note_on_c, 0, 93, 51
3, 5180, Note_on_c, 0, 98, 52
3, 5181, Note_on_c, 0, 54, 40
3, 5184, Note_on_c, 0, 64, 41
3, 5184, Note_on_c, 0, 60, 49
3, 5222, Note_on_c, 0, 98, 0
3, 5252, Note_on_c, 0, 93, 0
3, 5530, Note_on_c, 0, 89, 104
3, 5565, Note_on_c, 0, 89, 0
3, 5568, Note_on_c, 0, 64, 0
3, 5588, Note_on_c, 0, 89, 110
3, 5613, Note_on_c, 0, 89, 0
3, 5613, Note_on_c, 0, 60, 0
3, 5627, Note_on_c, 0, 54, 0
3, 5636, Note_on_c, 0, 89, 104
3, 5661, Note_on_c, 0, 89, 0
3, 5690, Note_on_c, 0, 53, 59
3, 5691, Control_c, 0, 64, 0
3, 5691, Note_on_c, 0, 89, 105
3, 5692, Note_on_c, 0, 63, 49
3, 5692, Note_on_c, 0, 56, 50
3, 5723, Control_c, 0, 64, 127
3, 5740, Note_on_c, 0, 89, 0
3, 5745, Note_on_c, 0, 63, 0
3, 5747, Note_on_c, 0, 85, 86
3, 5753, Note_on_c, 0, 60, 49
3, 5760, Note_on_c, 0, 53, 0
3, 5768, Note_on_c, 0, 85, 0
3, 5807, Note_on_c, 0, 60, 0
3, 5809, Note_on_c, 0, 85, 79
3, 5813, Note_on_c, 0, 65, 50
3, 5818, Note_on_c, 0, 56, 0
3, 5832, Note_on_c, 0, 85, 0
3, 5877, Note_on_c, 0, 80, 48
3, 5889, Note_on_c, 0, 65, 0
3, 5895, Note_on_c, 0, 80, 0
3, 5940, Note_on_c, 0, 80, 62
3, 5946, Note_on_c, 0, 63, 42
3, 6008, Note_on_c, 0, 73, 50
3, 6011, Note_on_c, 0, 80, 0
3, 6062, Note_on_c, 0, 73, 0
3, 6094, Note_on_c, 0, 73, 40
3, 6101, Note_on_c, 0, 63, 0
3, 6129, Note_on_c, 0, 60, 16
3, 6157, Note_on_c, 0, 73, 0
3, 6187, Note_on_c, 0, 73, 42
3, 6223, Note_on_c, 0, 60, 0
3, 6264, Note_on_c, 0, 73, 0
3, 6287, Note_on_c, 0, 73, 45
3, 6289, Note_on_c, 0, 58, 42
3, 6289, Note_on_c, 0, 53, 35
3, 6291, Note_on_c, 0, 63, 29
3, 6369, Note_on_c, 0, 63, 0
3, 6405, Note_on_c, 0, 53, 0
3, 6422, Note_on_c, 0, 58, 0
3, 6448, Note_on_c, 0, 73, 0
3, 6728, Note_on_c, 0, 94, 70
3, 6740, Note_on_c, 0, 82, 52
3, 6741, Note_on_c, 0, 58, 61
3, 6743, Control_c, 0, 64, 0
3, 6767, Control_c, 0, 64, 127
3, 6787, Note_on_c, 0, 82, 0
3, 6788, Note_on_c, 0, 94, 0
3, 6825, Note_on_c, 0, 96, 79
3, 6837, Control_c, 0, 64, 0
3, 6838, Note_on_c, 0, 58, 0
3, 6839, Note_on_c, 0, 60, 54
3, 6841, Note_on_c, 0, 84, 62
3, 6865, Control_c, 0, 64, 127
3, 6906, Note_on_c, 0, 96, 0
3, 6930, Note_on_c, 0, 84, 0
3, 6939, Note_on_c, 0, 60, 0
3, 6973, Note_on_c, 0, 97, 98
3, 6985, Control_c, 0, 64, 0
3, 6985, Note_on_c, 0, 61, 53
3, 6986, Note_on_c, 0, 85, 69
3, 7010, Control_c, 0, 64, 127
3, 7043, Note_on_c, 0, 85, 0
3, 7043, Note_on_c, 0, 97, 0
3, 7119, Note_on_c, 0, 99, 68
3, 7127, Note_on_c, 0, 63, 48
3, 7129, Note_on_c, 0, 87, 57
3, 7133, Note_on_c, 0, 61, 0
3, 7164, Note_on_c, 0, 87, 0
3, 7165, Note_on_c, 0, 99, 0
3, 7200, Note_on_c, 0, 101, 50
3, 7209, Note_on_c, 0, 89, 59
3, 7211, Note_on_c, 0, 65, 50
3, 7215, Note_on_c, 0, 63, 0
3, 7235, Note_on_c, 0, 101, 0
3, 7240, Note_on_c, 0, 89, 0
3, 7280, Note_on_c, 0, 103, 50
3, 7283, Note_on_c, 0, 65, 0
3, 7286, Note_on_c, 0, 90, 50
3, 7286, Note_on_c, 0, 66, 43
3, 7320, Note_on_c, 0, 103, 0
3, 7331, Note_on_c, 0, 90, 0
3, 7339, Note_on_c, 0, 66, 0
3, 7412, Note_on_c, 0, 104, 65
3, 7414, Note_on_c, 0, 92, 51
3, 7418, Note_on_c, 0, 68, 44
3, 7468, Note_on_c, 0, 68, 0
3, 7621, Note_on_c, 0, 104, 0
3, 7626, Note_on_c, 0, 92, 0
3, 7692, Note_on_c, 0, 105, 66
3, 7694, Note_on_c, 0, 101, 60
3, 7695, Note_on_c, 0, 39, 51
3, 7699, Control_c, 0, 64, 0
3, 7718, Control_c, 0, 64, 127
3, 7745, Note_on_c, 0, 39, 0
3, 7747, Note_on_c, 0, 105, 0
3, 7750, Note_on_c, 0, 46, 48
3, 7754, Note_on_c, 0, 101, 0
3, 7783, Note_on_c, 0, 46, 0
3, 7795, Note_on_c, 0, 57, 60
3, 7831, Note_on_c, 0, 58, 65
3, 7832, Note_on_c, 0, 57, 0
3, 7874, Note_on_c, 0, 62, 48
3, 7875, Note_on_c, 0, 69, 61
3, 7884, Note_on_c, 0, 62, 0
3, 7911, Note_on_c, 0, 69, 0
3, 7917, Note_on_c, 0, 72, 46
3, 7918, Note_on_c, 0, 67, 45
3, 7924, Note_on_c, 0, 72, 0
3, 7961, Note_on_c, 0, 81, 62
3, 7990, Note_on_c, 0, 67, 0
3, 8009, Note_on_c, 0, 72, 43
3, 8021, Note_on_c, 0, 65, 30
3, 8044, Note_on_c, 0, 72, 0
3, 8065, Note_on_c, 0, 72, 45
3, 8067, Note_on_c, 0, 81, 0
3, 8069, Note_on_c, 0, 77, 51
3, 8080, Note_on_c, 0, 58, 0
3, 8103, Note_on_c, 0, 77, 0
3, 8135, Note_on_c, 0, 82, 66
3, 8141, Note_on_c, 0, 58, 47
3, 8142, Note_on_c, 0, 65, 0
3, 8175, Note_on_c, 0, 82, 0
3, 8186, Note_on_c, 0, 72, 0
3, 8187, Note_on_c, 0, 58, 0
3, 8315, Note_on_c, 0, 79, 44
3, 8318, Note_on_c, 0, 71, 47
3, 8321, Control_c, 0, 64, 0
3, 8322, Note_on_c, 0, 65, 52
3, 8322, Note_on_c, 0, 67, 49
3, 8324, Note_on_c, 0, 37, 43
3, 8356, Control_c, 0, 64, 127
3, 8367, Note_on_c, 0, 67, 0
3, 8368, Note_on_c, 0, 65, 0
3, 8424, Note_on_c, 0, 44, 42
3, 8445, Note_on_c, 0, 37, 0
3, 8461, Note_on_c, 0, 44, 0
3, 8473, Note_on_c, 0, 79, 0
3, 8474, Note_on_c, 0, 49, 48
3, 8475, Note_on_c, 0, 71, 0
3, 8491, Note_on_c, 0, 49, 0
3, 8522, Note_on_c, 0, 51, 47
3, 8557, Note_on_c, 0, 53, 68
3, 8563, Note_on_c, 0, 51, 0
3, 8575, Note_on_c, 0, 53, 0
3, 8586, Note_on_c, 0, 55, 67
3, 8602, Note_on_c, 0, 55, 0
3, 8610, Note_on_c, 0, 57, 45
3, 8626, Note_on_c, 0, 57, 0
3, 8630, Note_on_c, 0, 59, 49
3, 8640, Note_on_c, 0, 59, 0
3, 8640, Note_on_c, 0, 61, 51
3, 8650, Note_on_c, 0, 63, 53
3, 8654, Note_on_c, 0, 61, 0
3, 8655, Note_on_c, 0, 63, 0
3, 8660, Note_on_c, 0, 65, 55
3, 8674, Note_on_c, 0, 65, 0
3, 8680, Note_on_c, 0, 67, 59
3, 8690, Note_on_c, 0, 69, 61
3, 8690, Note_on_c, 0, 71, 61
3, 8694, Note_on_c, 0, 71, 0
3, 8696, Note_on_c, 0, 67, 0
3, 8697, Note_on_c, 0, 69, 0
3, 8700, Note_on_c, 0, 73, 63
3, 8705, Note_on_c, 0, 73, 0
3, 8710, Note_on_c, 0, 75, 65
3, 8715, Note_on_c, 0, 75, 0
3, 8720, Note_on_c, 0, 77, 67
3, 8730, Note_on_c, 0, 79, 69
3, 8732, Note_on_c, 0, 77, 0
3, 8740, Note_on_c, 0, 81, 71
3, 8742, Note_on_c, 0, 79, 0
3, 8745, Note_on_c, 0, 81, 0
3, 8750, Note_on_c, 0, 83, 73
3, 8750, Note_on_c, 0, 85, 73
3, 8754, Note_on_c, 0, 85, 0
3, 8755, Note_on_c, 0, 83, 0
3, 8770, Note_on_c, 0, 89, 77
3, 8780, Note_on_c, 0, 91, 79
3, 8786, Note_on_c, 0, 89, 0
3, 8790, Note_on_c, 0, 93, 81
3, 8794, Note_on_c, 0, 91, 0
3, 8801, Note_on_c, 0, 93, 0
3, 8810, Note_on_c, 0, 95, 85
3, 8821, Note_on_c, 0, 95, 0
3, 9131, Note_on_c, 0, 92, 51
3, 9133, Note_on_c, 0, 56, 48
3, 9139, Control_c, 0, 64, 0
3, 9194, Control_c, 0, 64, 127
3, 9226, Note_on_c, 0, 56, 0
3, 9231, Note_on_c, 0, 92, 0
3, 9278, Note_on_c, 0, 93, 77
3, 9284, Note_on_c, 0, 89, 75
3, 9287, Note_on_c, 0, 55, 58
3, 9288, Note_on_c, 0, 61, 45
3, 9289, Note_on_c, 0, 85, 46
3, 9292, Note_on_c, 0, 65, 49
3, 9294, Control_c, 0, 64, 0
3, 9298, Note_on_c, 0, 60, 24
3, 9298, Note_on_c, 0, 81, 34
3, 9328, Control_c, 0, 64, 127
3, 9341, Note_on_c, 0, 93, 0
3, 9343, Note_on_c, 0, 85, 0
3, 9343, Note_on_c, 0, 89, 0
3, 9355, Note_on_c, 0, 81, 0
3, 9391, Note_on_c, 0, 94, 70
3, 9402, Note_on_c, 0, 65, 0
3, 9406, Note_on_c, 0, 60, 0
3, 9408, Note_on_c, 0, 94, 0
3, 9411, Note_on_c, 0, 55, 0
3, 9417, Note_on_c, 0, 61, 0
3, 9475, Note_on_c, 0, 91, 50
3, 9476, Note_on_c, 0, 53, 56
3, 9476, Note_on_c, 0, 59, 50
3, 9476, Note_on_c, 0, 83, 52
3, 9477, Note_on_c, 0, 63, 46
3, 9478, Note_on_c, 0, 77, 44
3, 9479, Note_on_c, 0, 89, 44
3, 9480, Note_on_c, 0, 79, 44
3, 9481, Control_c, 0, 64, 0
3, 9516, Control_c, 0, 64, 127
3, 9526, Note_on_c, 0, 79, 0
3, 9530, Note_on_c, 0, 77, 0
3, 9531, Note_on_c, 0, 89, 0
3, 9534, Note_on_c, 0, 91, 0
3, 9538, Note_on_c, 0, 83, 0
3, 9558, Note_on_c, 0, 92, 82
3, 9561, Note_on_c, 0, 63, 0
3, 9568, Note_on_c, 0, 59, 0
3, 9571, Note_on_c, 0, 92, 0
3, 9574, Note_on_c, 0, 53, 0
3, 9641, Note_on_c, 0, 74, 50
3, 9643, Note_on_c, 0, 86, 51
3, 9646, Note_on_c, 0, 46, 51
3, 9646, Control_c, 0, 64, 0
3, 9680, Control_c, 0, 64, 127
3, 9703, Note_on_c, 0, 46, 0
3, 9739, Note_on_c, 0, 61, 62
3, 9781, Note_on_c, 0, 86, 0
3, 9801, Note_on_c, 0, 74, 0
3, 9827, Note_on_c, 0, 61, 0
3, 9829, Note_on_c, 0, 62, 65
3, 9939, Note_on_c, 0, 74, 72
3, 9963, Note_on_c, 0, 62, 0
3, 9992, Note_on_c, 0, 74, 0
3, 10056, Note_on_c, 0, 77, 76
3, 10062, Note_on_c, 0, 39, 54
3, 10064, Note_on_c, 0, 70, 61
3, 10065, Note_on_c, 0, 54, 36
3, 10068, Control_c, 0, 64, 0
3, 10070, Note_on_c, 0, 66, 40
3, 10100, Control_c, 0, 64, 127
3, 10128, Note_on_c, 0, 54, 0
3, 10137, Note_on_c, 0, 46, 50
3, 10142, Note_on_c, 0, 39, 0
3, 10150, Note_on_c, 0, 46, 0
3, 10182, Note_on_c, 0, 70, 0
3, 10192, Note_on_c, 0, 66, 0
3, 10209, Note_on_c, 0, 70, 71
3, 10209, Note_on_c, 0, 66, 62
3, 10272, Note_on_c, 0, 65, 105
3, 10294, Note_on_c, 0, 70, 0
3, 10303, Note_on_c, 0, 66, 0
3, 10342, Note_on_c, 0, 70, 71
3, 10343, Note_on_c, 0, 66, 58
3, 10415, Note_on_c, 0, 63, 98
3, 10416, Note_on_c, 0, 65, 0
3, 10425, Note_on_c, 0, 66, 0
3, 10425, Note_on_c, 0, 70, 0
3, 10489, Note_on_c, 0, 66, 50
3, 10489, Note_on_c, 0, 70, 62
3, 10534, Note_on_c, 0, 66, 0
3, 10551, Note_on_c, 0, 63, 0
3, 10580, Note_on_c, 0, 61, 54
3, 10588, Note_on_c, 0, 77, 0
3, 10601, Note_on_c, 0, 61, 0
3, 10601, Note_on_c, 0, 70, 0
3, 10719, Note_on_c, 0, 32, 70
3, 10720, Note_on_c, 0, 65, 62
3, 10720, Note_on_c, 0, 54, 51
3, 10721, Note_on_c, 0, 57, 72
3, 10721, Note_on_c, 0, 44, 50
3, 10722, Control_c, 0, 64, 0
3, 10722, Note_on_c, 0, 62, 82
3, 10772, Control_c, 0, 64, 127
3, 10870, Note_on_c, 0, 57, 0
3, 10875, Note_on_c, 0, 54, 0
3, 10880, Note_on_c, 0, 62, 0
3, 10881, Note_on_c, 0, 32, 0
3, 10883, Note_on_c, 0, 65, 0
3, 10890, Note_on_c, 0, 44, 0
3, 11049, Note_on_c, 0, 68, 54
3, 11049, Note_on_c, 0, 60, 57
3, 11054, Note_on_c, 0, 65, 64
3, 11054, Note_on_c, 0, 44, 46
3, 11058, Control_c, 0, 64, 0
3, 11103, Control_c, 0, 64, 127
3, 11159, Note_on_c, 0, 52, 43
3, 11159, Control_c, 0, 64, 0
3, 11185, Control_c, 0, 64, 127
3, 11245, Note_on_c, 0, 52, 0
3, 11249, Control_c, 0, 64, 0
3, 11260, Note_on_c, 0, 53, 50
3, 11281, Control_c, 0, 64, 127
3, 11320, Note_on_c, 0, 60, 0
3, 11339, Note_on_c, 0, 60, 64
3, 11390, Note_on_c, 0, 65, 0
3, 11396, Note_on_c, 0, 63, 85
3, 11399, Note_on_c, 0, 68, 0
3, 11433, Note_on_c, 0, 53, 0
3, 11445, Note_on_c, 0, 44, 0
3, 11454, Note_on_c, 0, 68, 80
3, 11477, Note_on_c, 0, 68, 0
3, 11477, Note_on_c, 0, 63, 0
3, 11488, Note_on_c, 0, 60, 0
3, 11518, Note_on_c, 0, 37, 62
3, 11519, Note_on_c, 0, 65, 89
3, 11523, Control_c, 0, 64, 0
3, 11568, Control_c, 0, 64, 127
3, 11580, Note_on_c, 0, 44, 65
3, 11587, Note_on_c, 0, 37, 0
3, 11640, Note_on_c, 0, 61, 63
3, 11644, Note_on_c, 0, 52, 60
3, 11649, Control_c, 0, 64, 0
3, 11654, Note_on_c, 0, 44, 0
3, 11672, Control_c, 0, 64, 127
3, 11713, Note_on_c, 0, 53, 76
3, 11715, Note_on_c, 0, 52, 0
3, 11719, Control_c, 0, 64, 0
3, 11760, Control_c, 0, 64, 127
3, 11782, Note_on_c, 0, 56, 84
3, 11814, Note_on_c, 0, 61, 0
3, 11850, Note_on_c, 0, 56, 0
3, 11851, Note_on_c, 0, 65, 0
3, 11855, Note_on_c, 0, 61, 87
3, 11913, Note_on_c, 0, 61, 0
3, 11927, Note_on_c, 0, 61, 77
3, 11948, Note_on_c, 0, 61, 0
3, 12000, Note_on_c, 0, 65, 96
3, 12054, Note_on_c, 0, 65, 0
3, 12079, Note_on_c, 0, 53, 0
3, 12080, Note_on_c, 0, 65, 100
3, 12081, Control_c, 0, 64, 0
3, 12082, Note_on_c, 0, 47, 61
3, 12084, Note_on_c, 0, 57, 57
3, 12115, Control_c, 0, 64, 127
3, 12135, Note_on_c, 0, 65, 0
3, 12150, Note_on_c, 0, 69, 86
3, 12150, Note_on_c, 0, 65, 79
3, 12152, Note_on_c, 0, 57, 0
3, 12152, Note_on_c, 0, 60, 73
3, 12154, Note_on_c, 0, 51, 53
3, 12210, Note_on_c, 0, 60, 0
3, 12210, Note_on_c, 0, 65, 0
3, 12215, Note_on_c, 0, 69, 0
3, 12232, Note_on_c, 0, 65, 78
3, 12233, Note_on_c, 0, 69, 83
3, 12233, Note_on_c, 0, 57, 63
3, 12234, Control_c, 0, 64, 0
3, 12236, Note_on_c, 0, 60, 60
3, 12253, Control_c, 0, 64, 127
3, 12268, Note_on_c, 0, 69, 0
3, 12268, Note_on_c, 0, 65, 0
3, 12285, Note_on_c, 0, 60, 0
3, 12304, Note_on_c, 0, 47, 0
3, 12306, Note_on_c, 0, 71, 99
3, 12317, Note_on_c, 0, 57, 0
3, 12323, Note_on_c, 0, 51, 0
3, 12362, Note_on_c, 0, 71, 0
3, 12389, Note_on_c, 0, 71, 73
3, 12390, Note_on_c, 0, 66, 57
3, 12391, Note_on_c, 0, 47, 56
3, 12392, Note_on_c, 0, 64, 71
3, 12392, Control_c, 0, 64, 0
3, 12393, Note_on_c, 0, 57, 51
3, 12393, Note_on_c, 0, 60, 51
3, 12430, Control_c, 0, 64, 127
3, 12470, Note_on_c, 0, 54, 52
3, 12480, Note_on_c, 0, 57, 0
3, 12482, Note_on_c, 0, 64, 0
3, 12486, Note_on_c, 0, 60, 0
3, 12550, Note_on_c, 0, 59, 47
3, 12553, Note_on_c, 0, 71, 0
3, 12553, Note_on_c, 0, 63, 33
3, 12556, Note_on_c, 0, 57, 41
3, 12584, Note_on_c, 0, 59, 0
3, 12601, Note_on_c, 0, 57, 0
3, 12604, Note_on_c, 0, 63, 0
3, 12605, Note_on_c, 0, 47, 0
3, 12609, Note_on_c, 0, 54, 0
3, 12612, Note_on_c, 0, 66, 0
3, 12684, Note_on_c, 0, 80, 47
3, 12698, Note_on_c, 0, 80, 0
3, 12705, Control_c, 0, 64, 0
3, 12709, Note_on_c, 0, 83, 71
3, 12710, Note_on_c, 0, 71, 60
3, 12715, Note_on_c, 0, 42, 52
3, 12716, Note_on_c, 0, 76, 48
3, 12716, Note_on_c, 0, 80, 36
3, 12734, Note_on_c, 0, 52, 16
3, 12734, Control_c, 0, 64, 127
3, 12747, Note_on_c, 0, 80, 0
3, 12748, Note_on_c, 0, 76, 0
3, 12750, Note_on_c, 0, 42, 0
3, 12757, Note_on_c, 0, 52, 0
3, 12760, Note_on_c, 0, 71, 0
3, 12766, Note_on_c, 0, 83, 0
3, 12794, Note_on_c, 0, 80, 50
3, 12813, Note_on_c, 0, 80, 0
3, 12827, Note_on_c, 0, 83, 73
3, 12827, Note_on_c, 0, 80, 64
3, 12827, Note_on_c, 0, 54, 51
3, 12827, Note_on_c, 0, 61, 64
3, 12828, Note_on_c, 0, 71, 71
3, 12829, Note_on_c, 0, 57, 74
3, 12830, Note_on_c, 0, 64, 60
3, 12830, Control_c, 0, 64, 0
3, 12830, Note_on_c, 0, 76, 61
3, 12835, Note_on_c, 0, 64, 0
3, 12835, Note_on_c, 0, 71, 0
3, 12836, Note_on_c, 0, 76, 0
3, 12839, Note_on_c, 0, 80, 0
3, 12840, Note_on_c, 0, 61, 0
3, 12840, Note_on_c, 0, 83, 0
3, 12841, Note_on_c, 0, 54, 0
3, 12842, Note_on_c, 0, 57, 0
3, 12865, Control_c, 0, 64, 127
3, 12906, Note_on_c, 0, 83, 72
3, 12911, Note_on_c, 0, 71, 41
3, 12911, Note_on_c, 0, 76, 45
3, 12917, Note_on_c, 0, 76, 0
3, 12929, Note_on_c, 0, 71, 0
3, 12932, Note_on_c, 0, 83, 0
3, 12943, Control_c, 0, 64, 0
3, 12949, Note_on_c, 0, 83, 59
3, 12950, Note_on_c, 0, 78, 51
3, 12951, Note_on_c, 0, 71, 49
3, 12952, Note_on_c, 0, 47, 49
3, 12952, Note_on_c, 0, 75, 53
3, 12955, Note_on_c, 0, 57, 39
3, 12970, Control_c, 0, 64, 127
3, 12980, Note_on_c, 0, 47, 0
3, 12988, Note_on_c, 0, 57, 0
3, 13033, Note_on_c, 0, 75, 0
3, 13042, Note_on_c, 0, 71, 0
3, 13047, Note_on_c, 0, 78, 0
3, 13068, Note_on_c, 0, 63, 48
3, 13069, Note_on_c, 0, 71, 62
3, 13070, Note_on_c, 0, 75, 48
3, 13074, Note_on_c, 0, 78, 33
3, 13075, Note_on_c, 0, 57, 51
3, 13076, Note_on_c, 0, 59, 48
3, 13089, Note_on_c, 0, 57, 0
3, 13099, Note_on_c, 0, 59, 0
3, 13101, Note_on_c, 0, 63, 0
3, 13104, Note_on_c, 0, 83, 0
3, 13112, Note_on_c, 0, 71, 0
3, 13168, Note_on_c, 0, 75, 0
3, 13168, Note_on_c, 0, 78, 0
3, 13193, Note_on_c, 0, 80, 54
3, 13194, Note_on_c, 0, 75, 55
3, 13195, Note_on_c, 0, 68, 48
3, 13195, Note_on_c, 0, 52, 48
3, 13195, Note_on_c, 0, 63, 45
3, 13196, Control_c, 0, 64, 0
3, 13196, Note_on_c, 0, 59, 58
3, 13221, Control_c, 0, 64, 127
3, 13224, Note_on_c, 0, 63, 0
3, 13229, Note_on_c, 0, 80, 0
3, 13233, Note_on_c, 0, 75, 0
3, 13236, Note_on_c, 0, 68, 0
3, 13271, Note_on_c, 0, 59, 0
3, 13283, Note_on_c, 0, 63, 101
3, 13310, Note_on_c, 0, 63, 0
3, 13323, Note_on_c, 0, 64, 94
3, 13324, Note_on_c, 0, 59, 70
3, 13325, Control_c, 0, 64, 0
3, 13349, Control_c, 0, 64, 127
3, 13350, Note_on_c, 0, 64, 0
3, 13357, Note_on_c, 0, 68, 83
3, 13360, Note_on_c, 0, 52, 0
3, 13361, Note_on_c, 0, 59, 0
3, 13383, Note_on_c, 0, 68, 0
3, 13394, Note_on_c, 0, 71, 91
3, 13433, Note_on_c, 0, 71, 0
3, 13441, Note_on_c, 0, 75, 77
3, 13442, Note_on_c, 0, 71, 79
3, 13443, Control_c, 0, 64, 0
3, 13443, Note_on_c, 0, 68, 59
3, 13443, Note_on_c, 0, 64, 73
3, 13444, Note_on_c, 0, 49, 58
3, 13448, Note_on_c, 0, 59, 49
3, 13474, Control_c, 0, 64, 127
3, 13523, Note_on_c, 0, 59, 0
3, 13545, Note_on_c, 0, 64, 0
3, 13549, Note_on_c, 0, 71, 0
3, 13551, Note_on_c, 0, 75, 0
3, 13556, Note_on_c, 0, 68, 0
3, 13572, Note_on_c, 0, 76, 75
3, 13573, Note_on_c, 0, 64, 66
3, 13575, Note_on_c, 0, 59, 59
3, 13595, Note_on_c, 0, 76, 0
3, 13614, Note_on_c, 0, 49, 0
3, 13619, Note_on_c, 0, 59, 0
3, 13623, Note_on_c, 0, 64, 0
3, 13646, Note_on_c, 0, 73, 52
3, 13679, Note_on_c, 0, 73, 0
3, 13694, Note_on_c, 0, 71, 64
3, 13694, Control_c, 0, 64, 0
3, 13694, Note_on_c, 0, 61, 40
3, 13695, Note_on_c, 0, 59, 58
3, 13696, Note_on_c, 0, 68, 47
3, 13696, Note_on_c, 0, 57, 57
3, 13697, Note_on_c, 0, 64, 43
3, 13727, Control_c, 0, 64, 127
3, 13774, Note_on_c, 0, 73, 16
3, 13781, Note_on_c, 0, 61, 0
3, 13782, Note_on_c, 0, 59, 0
3, 13785, Note_on_c, 0, 57, 0
3, 13786, Note_on_c, 0, 64, 0
3, 13789, Note_on_c, 0, 68, 0
3, 13809, Note_on_c, 0, 71, 0
3, 13816, Note_on_c, 0, 61, 52
3, 13817, Note_on_c, 0, 68, 49
3, 13819, Note_on_c, 0, 73, 0
3, 13820, Note_on_c, 0, 64, 55
3, 13824, Note_on_c, 0, 57, 45
3, 13824, Note_on_c, 0, 59, 48
3, 13838, Note_on_c, 0, 59, 0
3, 13842, Note_on_c, 0, 57, 0
3, 13843, Note_on_c, 0, 61, 0
3, 13876, Note_on_c, 0, 68, 0
3, 13877, Note_on_c, 0, 64, 0
3, 13942, Note_on_c, 0, 72, 62
3, 13946, Note_on_c, 0, 69, 72
3, 13947, Control_c, 0, 64, 0
3, 13947, Note_on_c, 0, 51, 47
3, 13948, Note_on_c, 0, 47, 56
3, 13948, Note_on_c, 0, 65, 62
3, 13951, Note_on_c, 0, 57, 48
3, 13953, Note_on_c, 0, 60, 45
3, 13987, Control_c, 0, 64, 127
3, 14020, Note_on_c, 0, 57, 0
3, 14029, Note_on_c, 0, 65, 0
3, 14036, Note_on_c, 0, 51, 0
3, 14038, Note_on_c, 0, 69, 0
3, 14039, Note_on_c, 0, 60, 0
3, 14078, Note_on_c, 0, 65, 58
3, 14080, Note_on_c, 0, 60, 45
3, 14081, Note_on_c, 0, 51, 41
3, 14086, Note_on_c, 0, 57, 33
3, 14112, Note_on_c, 0, 60, 0
3, 14116, Note_on_c, 0, 72, 0
3, 14119, Note_on_c, 0, 65, 0
3, 14148, Note_on_c, 0, 57, 0
3, 14156, Note_on_c, 0, 47, 0
3, 14157, Note_on_c, 0, 74, 107
3, 14162, Note_on_c, 0, 51, 0
3, 14216, Note_on_c, 0, 66, 67
3, 14217, Control_c, 0, 64, 0
3, 14218, Note_on_c, 0, 47, 58
3, 14218, Note_on_c, 0, 54, 41
3, 14219, Note_on_c, 0, 62, 69
3, 14219, Note_on_c, 0, 57, 55
3, 14251, Control_c, 0, 64, 127
3, 14262, Note_on_c, 0, 47, 0
3, 14269, Note_on_c, 0, 62, 0
3, 14273, Note_on_c, 0, 54, 0
3, 14275, Note_on_c, 0, 57, 0
3, 14277, Note_on_c, 0, 66, 0
3, 14281, Note_on_c, 0, 74, 0
3, 14299, Note_on_c, 0, 78, 90
3, 14356, Note_on_c, 0, 66, 49
3, 14357, Note_on_c, 0, 62, 50
3, 14357, Note_on_c, 0, 57, 61
3, 14392, Note_on_c, 0, 69, 77
3, 14393, Note_on_c, 0, 74, 75
3, 14405, Note_on_c, 0, 69, 0
3, 14412, Note_on_c, 0, 78, 0
3, 14412, Note_on_c, 0, 74, 0
3, 14437, Note_on_c, 0, 91, 99
3, 14451, Note_on_c, 0, 57, 0
3, 14462, Note_on_c, 0, 66, 0
3, 14468, Note_on_c, 0, 62, 0
3, 14488, Note_on_c, 0, 67, 73
3, 14488, Note_on_c, 0, 62, 42
3, 14488, Note_on_c, 0, 56, 57
3, 14491, Control_c, 0, 64, 0
3, 14515, Control_c, 0, 64, 127
3, 14527, Note_on_c, 0, 90, 82
3, 14540, Note_on_c, 0, 91, 0
3, 14568, Note_on_c, 0, 67, 0
3, 14579, Note_on_c, 0, 62, 0
3, 14608, Note_on_c, 0, 90, 0
3, 14616, Note_on_c, 0, 88, 81
3, 14617, Note_on_c, 0, 62, 52
3, 14618, Note_on_c, 0, 65, 50
3, 14645, Note_on_c, 0, 88, 0
3, 14665, Note_on_c, 0, 65, 0
3, 14673, Note_on_c, 0, 62, 0
3, 14679, Note_on_c, 0, 56, 0
3, 14695, Note_on_c, 0, 90, 88
3, 14742, Note_on_c, 0, 90, 0
3, 14749, Control_c, 0, 64, 0
3, 14750, Note_on_c, 0, 92, 88
3, 14752, Note_on_c, 0, 45, 66
3, 14772, Control_c, 0, 64, 127
3, 14776, Note_on_c, 0, 45, 0
3, 14870, Note_on_c, 0, 92, 0
3, 14883, Note_on_c, 0, 54, 50
3, 14884, Note_on_c, 0, 61, 47
3, 14885, Note_on_c, 0, 64, 45
3, 14890, Note_on_c, 0, 59, 46
3, 14938, Note_on_c, 0, 54, 0
3, 14952, Note_on_c, 0, 59, 0
3, 14953, Note_on_c, 0, 64, 0
3, 14962, Note_on_c, 0, 93, 90
3, 14963, Note_on_c, 0, 61, 0
3, 14999, Note_on_c, 0, 93, 0
3, 15027, Note_on_c, 0, 52, 75
3, 15027, Note_on_c, 0, 88, 92
3, 15027, Note_on_c, 0, 100, 98
3, 15028, Note_on_c, 0, 58, 69
3, 15028, Note_on_c, 0, 62, 78
3, 15030, Control_c, 0, 64, 0
3, 15060, Control_c, 0, 64, 127
3, 15118, Note_on_c, 0, 62, 0
3, 15124, Note_on_c, 0, 58, 0
3, 15143, Note_on_c, 0, 100, 0
3, 15156, Note_on_c, 0, 88, 0
3, 15164, Note_on_c, 0, 62, 62
3, 15164, Note_on_c, 0, 58, 59
3, 15196, Note_on_c, 0, 62, 0
3, 15205, Note_on_c, 0, 58, 0
3, 15211, Note_on_c, 0, 52, 0
3, 15213, Note_on_c, 0, 98, 83
3, 15213, Note_on_c, 0, 86, 81
3, 15230, Note_on_c, 0, 86, 0
3, 15230, Note_on_c, 0, 98, 0
3, 15255, Note_on_c, 0, 96, 70
3, 15257, Note_on_c, 0, 84, 51
3, 15271, Note_on_c, 0, 96, 0
3, 15274, Note_on_c, 0, 84, 0
3, 15291, Control_c, 0, 64, 0
3, 15295, Note_on_c, 0, 50, 52
3, 15296, Note_on_c, 0, 83, 60
3, 15296, Note_on_c, 0, 43, 49
3, 15296, Note_on_c, 0, 54, 49
3, 15297, Note_on_c, 0, 95, 64
3, 15310, Note_on_c, 0, 83, 0
3, 15311, Note_on_c, 0, 95, 0
3, 15313, Control_c, 0, 64, 127
3, 15332, Note_on_c, 0, 43, 0
3, 15333, Note_on_c, 0, 50, 0
3, 15336, Note_on_c, 0, 98, 75
3, 15347, Note_on_c, 0, 54, 0
3, 15354, Note_on_c, 0, 98, 0
3, 15423, Note_on_c, 0, 54, 52
3, 15424, Note_on_c, 0, 62, 65
3, 15424, Note_on_c, 0, 59, 60
3, 15456, Note_on_c, 0, 62, 0
3, 15458, Note_on_c, 0, 59, 0
3, 15473, Note_on_c, 0, 54, 0
3, 15553, Note_on_c, 0, 67, 73
3, 15556, Note_on_c, 0, 62, 65
3, 15556, Note_on_c, 0, 59, 70
3, 15560, Note_on_c, 0, 55, 59
3, 15562, Control_c, 0, 64, 0
3, 15607, Control_c, 0, 64, 127
3, 15625, Note_on_c, 0, 55, 0
3, 15629, Note_on_c, 0, 50, 58
3, 15633, Note_on_c, 0, 59, 0
3, 15636, Note_on_c, 0, 62, 0
3, 15645, Note_on_c, 0, 67, 0
3, 15693, Note_on_c, 0, 69, 86
3, 15694, Note_on_c, 0, 62, 91
3, 15695, Note_on_c, 0, 59, 70
3, 15703, Note_on_c, 0, 59, 0
3, 15761, Note_on_c, 0, 44, 52
3, 15766, Note_on_c, 0, 69, 0
3, 15767, Note_on_c, 0, 50, 0
3, 15789, Note_on_c, 0, 44, 0
3, 15799, Note_on_c, 0, 62, 0
3, 15833, Note_on_c, 0, 70, 77
3, 15834, Control_c, 0, 64, 0
3, 15834, Note_on_c, 0, 62, 87
3, 15835, Note_on_c, 0, 43, 59
3, 15836, Note_on_c, 0, 58, 67
3, 15838, Note_on_c, 0, 53, 50
3, 15865, Control_c, 0, 64, 127
3, 15892, Note_on_c, 0, 43, 0
3, 15910, Note_on_c, 0, 43, 77
3, 15915, Note_on_c, 0, 62, 0
3, 15918, Note_on_c, 0, 58, 0
3, 15932, Note_on_c, 0, 70, 0
3, 15954, Note_on_c, 0, 53, 0
3, 15980, Note_on_c, 0, 67, 118
3, 15983, Note_on_c, 0, 53, 60
3, 16016, Note_on_c, 0, 43, 0
3, 16040, Note_on_c, 0, 67, 0
3, 16052, Note_on_c, 0, 43, 72
3, 16054, Note_on_c, 0, 53, 0
3, 16054, Note_on_c, 0, 70, 102
3, 16066, Note_on_c, 0, 43, 0
3, 16105, Note_on_c, 0, 70, 0
3, 16134, Note_on_c, 0, 74, 87
3, 16136, Note_on_c, 0, 67, 87
3, 16138, Note_on_c, 0, 48, 57
3, 16138, Note_on_c, 0, 62, 80
3, 16139, Note_on_c, 0, 58, 51
3, 16143, Control_c, 0, 64, 0
3, 16185, Control_c, 0, 64, 127
3, 16197, Note_on_c, 0, 48, 0
3, 16225, Note_on_c, 0, 48, 53
3, 16250, Note_on_c, 0, 58, 0
3, 16263, Note_on_c, 0, 67, 0
3, 16273, Note_on_c, 0, 62, 0
3, 16310, Note_on_c, 0, 74, 0
3, 16314, Note_on_c, 0, 70, 60
3, 16318, Note_on_c, 0, 62, 45
3, 16321, Note_on_c, 0, 58, 35
3, 16322, Note_on_c, 0, 67, 43
3, 16360, Note_on_c, 0, 48, 0
3, 16413, Note_on_c, 0, 58, 0
3, 16415, Note_on_c, 0, 48, 55
3, 16417, Note_on_c, 0, 74, 71
3, 16431, Note_on_c, 0, 62, 0
3, 16435, Note_on_c, 0, 67, 0
3, 16442, Note_on_c, 0, 48, 0
3, 16466, Note_on_c, 0, 70, 0
3, 16475, Note_on_c, 0, 74, 0
3, 16643, Note_on_c, 0, 79, 35
3, 16647, Note_on_c, 0, 71, 51
3, 16649, Note_on_c, 0, 67, 61
3, 16649, Note_on_c, 0, 65, 64
3, 16652, Control_c, 0, 64, 0
3, 16654, Note_on_c, 0, 49, 38
3, 16697, Control_c, 0, 64, 127
3, 16732, Note_on_c, 0, 49, 0
3, 16736, Note_on_c, 0, 59, 47
3, 16794, Note_on_c, 0, 59, 0
3, 16795, Note_on_c, 0, 61, 49
3, 16813, Note_on_c, 0, 65, 0
3, 16814, Note_on_c, 0, 67, 0
3, 16824, Note_on_c, 0, 79, 0
3, 16826, Note_on_c, 0, 71, 0
3, 16839, Note_on_c, 0, 63, 52
3, 16876, Note_on_c, 0, 65, 53
3, 16888, Note_on_c, 0, 65, 0
3, 16907, Note_on_c, 0, 67, 63
3, 16924, Note_on_c, 0, 67, 0
3, 16927, Note_on_c, 0, 61, 0
3, 16930, Note_on_c, 0, 63, 0
3, 16940, Note_on_c, 0, 69, 70
3, 16962, Note_on_c, 0, 69, 0
3, 16970, Note_on_c, 0, 71, 70
3, 17002, Note_on_c, 0, 49, 52
3, 17002, Note_on_c, 0, 67, 59
3, 17004, Note_on_c, 0, 71, 0
3, 17004, Control_c, 0, 64, 0
3, 17016, Note_on_c, 0, 49, 0
3, 17020, Control_c, 0, 64, 127
3, 17059, Note_on_c, 0, 58, 54
3, 17079, Note_on_c, 0, 58, 0
3, 17097, Note_on_c, 0, 59, 45
3, 17129, Note_on_c, 0, 59, 0
3, 17130, Note_on_c, 0, 61, 61
3, 17164, Note_on_c, 0, 63, 52
3, 17167, Note_on_c, 0, 61, 0
3, 17204, Note_on_c, 0, 67, 0
3, 17204, Note_on_c, 0, 69, 59
3, 17213, Note_on_c, 0, 63, 0
3, 17235, Note_on_c, 0, 69, 0
3, 17244, Note_on_c, 0, 71, 64
3, 17248, Note_on_c, 0, 65, 43
3, 17266, Note_on_c, 0, 71, 0
3, 17294, Note_on_c, 0, 73, 46
3, 17351, Note_on_c, 0, 75, 57
3, 17358, Note_on_c, 0, 73, 0
3, 17359, Note_on_c, 0, 63, 30
3, 17395, Note_on_c, 0, 75, 0
3, 17408, Note_on_c, 0, 77, 54
3, 17474, Note_on_c, 0, 77, 0
3, 17478, Note_on_c, 0, 79, 60
3, 17593, Note_on_c, 0, 79, 0
3, 17615, Note_on_c, 0, 65, 0
3, 17625, Note_on_c, 0, 63, 0
3, 17683, Note_on_c, 0, 94, 60
3, 17688, Note_on_c, 0, 58, 47
3, 17692, Note_on_c, 0, 82, 43
3, 17692, Control_c, 0, 64, 0
3, 17703, Control_c, 0, 64, 127
3, 17725, Note_on_c, 0, 82, 0
3, 17730, Note_on_c, 0, 94, 0
3, 17744, Note_on_c, 0, 96, 57
3, 17745, Note_on_c, 0, 84, 59
3, 17746, Note_on_c, 0, 60, 54
3, 17747, Note_on_c, 0, 58, 0
3, 17751, Control_c, 0, 64, 0
3, 17759, Control_c, 0, 64, 127
3, 17784, Note_on_c, 0, 84, 0
3, 17786, Note_on_c, 0, 96, 0
3, 17807, Note_on_c, 0, 60, 0
3, 17807, Note_on_c, 0, 97, 89
3, 17808, Note_on_c, 0, 61, 70
3, 17809, Note_on_c, 0, 85, 54
3, 17810, Control_c, 0, 64, 0
3, 17821, Control_c, 0, 64, 127
3, 17845, Note_on_c, 0, 85, 0
3, 17846, Note_on_c, 0, 97, 0
3, 17854, Note_on_c, 0, 61, 0
3, 17866, Note_on_c, 0, 63, 69
3, 17867, Note_on_c, 0, 99, 83
3, 17868, Note_on_c, 0, 87, 66
3, 17889, Note_on_c, 0, 99, 0
3, 17891, Note_on_c, 0, 87, 0
3, 17929, Note_on_c, 0, 101, 79
3, 17930, Note_on_c, 0, 89, 77
3, 17931, Note_on_c, 0, 65, 72
3, 17934, Note_on_c, 0, 63, 0
3, 17958, Note_on_c, 0, 101, 0
3, 17975, Note_on_c, 0, 89, 0
3, 17998, Note_on_c, 0, 102, 64
3, 17998, Note_on_c, 0, 90, 55
3, 17998, Note_on_c, 0, 66, 65
3, 18003, Control_c, 0, 64, 0
3, 18004, Note_on_c, 0, 65, 0
3, 18014, Control_c, 0, 64, 127
3, 18040, Note_on_c, 0, 90, 0
3, 18042, Note_on_c, 0, 102, 0
3, 18076, Note_on_c, 0, 92, 52
3, 18077, Note_on_c, 0, 104, 57
3, 18077, Note_on_c, 0, 68, 53
3, 18084, Note_on_c, 0, 66, 0
3, 18095, Note_on_c, 0, 68, 0
3, 18114, Note_on_c, 0, 104, 0
3, 18116, Note_on_c, 0, 92, 0
3, 18198, Note_on_c, 0, 105, 51
3, 18200, Note_on_c, 0, 101, 53
3, 18203, Note_on_c, 0, 39, 46
3, 18207, Control_c, 0, 64, 0
3, 18231, Control_c, 0, 64, 127
3, 18263, Note_on_c, 0, 39, 0
3, 18263, Note_on_c, 0, 105, 0
3, 18265, Note_on_c, 0, 46, 50
3, 18268, Note_on_c, 0, 101, 0
3, 18302, Note_on_c, 0, 46, 0
3, 18315, Note_on_c, 0, 55, 48
3, 18358, Note_on_c, 0, 58, 60
3, 18362, Note_on_c, 0, 55, 0
3, 18410, Note_on_c, 0, 77, 70
3, 18411, Note_on_c, 0, 60, 47
3, 18411, Note_on_c, 0, 81, 74
3, 18468, Note_on_c, 0, 65, 51
3, 18490, Note_on_c, 0, 60, 0
3, 18534, Note_on_c, 0, 72, 47
3, 18539, Note_on_c, 0, 60, 37
3, 18543, Note_on_c, 0, 77, 0
3, 18545, Note_on_c, 0, 81, 0
3, 18568, Note_on_c, 0, 60, 0
3, 18605, Note_on_c, 0, 72, 0
3, 18607, Note_on_c, 0, 82, 65
3, 18611, Note_on_c, 0, 60, 37
3, 18613, Note_on_c, 0, 65, 0
3, 18620, Note_on_c, 0, 60, 0
3, 18627, Note_on_c, 0, 58, 0
3, 18658, Note_on_c, 0, 82, 0
3, 18676, Note_on_c, 0, 79, 61
3, 18676, Note_on_c, 0, 75, 50
3, 18676, Note_on_c, 0, 71, 53
3, 18684, Control_c, 0, 64, 0
3, 18686, Note_on_c, 0, 49, 36
3, 18724, Control_c, 0, 64, 127
3, 18729, Note_on_c, 0, 49, 0
3, 18732, Note_on_c, 0, 59, 45
3, 18771, Note_on_c, 0, 59, 0
3, 18778, Note_on_c, 0, 61, 57
3, 18806, Note_on_c, 0, 79, 0
3, 18815, Note_on_c, 0, 75, 0
3, 18816, Note_on_c, 0, 71, 0
3, 18825, Note_on_c, 0, 63, 52
3, 18872, Note_on_c, 0, 65, 50
3, 18914, Note_on_c, 0, 65, 0
3, 18921, Note_on_c, 0, 67, 62
3, 18964, Note_on_c, 0, 63, 0
3, 18965, Note_on_c, 0, 61, 0
3, 18967, Note_on_c, 0, 69, 69
3, 18991, Note_on_c, 0, 67, 0
3, 19002, Note_on_c, 0, 69, 0
3, 19007, Note_on_c, 0, 70, 65
3, 19048, Note_on_c, 0, 70, 0
3, 19049, Note_on_c, 0, 69, 73
3, 19053, Note_on_c, 0, 55, 54
3, 19056, Control_c, 0, 64, 0
3, 19090, Control_c, 0, 64, 127
3, 19093, Note_on_c, 0, 61, 51
3, 19141, Note_on_c, 0, 65, 64
3, 19174, Note_on_c, 0, 65, 0
3, 19183, Note_on_c, 0, 69, 0
3, 19185, Note_on_c, 0, 70, 75
3, 19199, Note_on_c, 0, 61, 0
3, 19202, Note_on_c, 0, 55, 0
3, 19230, Note_on_c, 0, 67, 68
3, 19233, Note_on_c, 0, 63, 49
3, 19238, Note_on_c, 0, 59, 32
3, 19242, Control_c, 0, 64, 0
3, 19273, Note_on_c, 0, 70, 0
3, 19276, Note_on_c, 0, 49, 65
3, 19301, Control_c, 0, 64, 127
3, 19310, Note_on_c, 0, 59, 0
3, 19322, Note_on_c, 0, 56, 45
3, 19356, Note_on_c, 0, 67, 0
3, 19361, Note_on_c, 0, 56, 0
3, 19368, Note_on_c, 0, 49, 0
3, 19370, Note_on_c, 0, 68, 46
3, 19406, Note_on_c, 0, 63, 0
3, 19417, Note_on_c, 0, 68, 0
3, 19420, Note_on_c, 0, 62, 69
3, 19422, Note_on_c, 0, 46, 42
3, 19429, Control_c, 0, 64, 0
3, 19469, Note_on_c, 0, 56, 45
3, 19471, Control_c, 0, 64, 127
3, 19484, Note_on_c, 0, 62, 0
3, 19519, Note_on_c, 0, 73, 48
3, 19524, Note_on_c, 0, 61, 43
3, 19564, Note_on_c, 0, 73, 0
3, 19567, Note_on_c, 0, 61, 0
3, 19568, Note_on_c, 0, 56, 0
3, 19572, Note_on_c, 0, 46, 0
3, 19574, Note_on_c, 0, 74, 59
3, 19576, Note_on_c, 0, 62, 45
3, 19585, Note_on_c, 0, 62, 0
3, 19595, Note_on_c, 0, 74, 0
3, 19633, Note_on_c, 0, 85, 72
3, 19634, Note_on_c, 0, 73, 48
3, 19675, Note_on_c, 0, 85, 0
3, 19679, Note_on_c, 0, 73, 0
3, 19693, Note_on_c, 0, 74, 47
3, 19694, Note_on_c, 0, 86, 48
3, 19704, Note_on_c, 0, 74, 0
3, 19711, Note_on_c, 0, 86, 0
3, 19780, Note_on_c, 0, 98, 57
3, 19784, Note_on_c, 0, 86, 52
3, 19786, Note_on_c, 0, 56, 40
3, 19789, Note_on_c, 0, 67, 31
3, 19789, Note_on_c, 0, 62, 50
3, 19857, Note_on_c, 0, 62, 0
3, 19857, Note_on_c, 0, 67, 0
3, 19859, Note_on_c, 0, 98, 0
3, 19861, Note_on_c, 0, 56, 0
3, 19864, Note_on_c, 0, 86, 0
3, 20035, Control_c, 0, 64, 0
3, 20045, Control_c, 0, 64, 127
3, 20081, Control_c, 0, 64, 0
3, 20083, Note_on_c, 0, 61, 52
3, 20085, Note_on_c, 0, 65, 71
3, 20087, Note_on_c, 0, 58, 64
3, 20087, Note_on_c, 0, 39, 46
3, 20088, Note_on_c, 0, 54, 51
3, 20089, Note_on_c, 0, 46, 43
3, 20113, Control_c, 0, 64, 127
3, 20165, Note_on_c, 0, 58, 0
3, 20165, Note_on_c, 0, 61, 0
3, 20166, Note_on_c, 0, 54, 0
3, 20177, Note_on_c, 0, 65, 0
3, 20183, Note_on_c, 0, 61, 70
3, 20183, Note_on_c, 0, 54, 76
3, 20184, Note_on_c, 0, 58, 79
3, 20185, Note_on_c, 0, 51, 60
3, 20201, Note_on_c, 0, 46, 0
3, 20232, Note_on_c, 0, 54, 0
3, 20235, Note_on_c, 0, 58, 0
3, 20236, Note_on_c, 0, 51, 0
3, 20237, Note_on_c, 0, 61, 0
3, 20264, Note_on_c, 0, 54, 87
3, 20264, Note_on_c, 0, 61, 79
3, 20264, Note_on_c, 0, 58, 88
3, 20267, Note_on_c, 0, 51, 66
3, 20313, Note_on_c, 0, 51, 0
3, 20316, Note_on_c, 0, 54, 0
3, 20321, Note_on_c, 0, 58, 0
3, 20322, Note_on_c, 0, 61, 0
3, 20337, Note_on_c, 0, 61, 64
3, 20337, Note_on_c, 0, 54, 77
3, 20338, Note_on_c, 0, 58, 75
3, 20341, Note_on_c, 0, 51, 61
3, 20378, Note_on_c, 0, 51, 0
3, 20384, Note_on_c, 0, 54, 0
3, 20384, Note_on_c, 0, 58, 0
3, 20386, Note_on_c, 0, 61, 0
3, 20413, Note_on_c, 0, 54, 65
3, 20414, Note_on_c, 0, 61, 62
3, 20415, Note_on_c, 0, 51, 41
3, 20415, Note_on_c, 0, 58, 66
3, 20419, Note_on_c, 0, 51, 0
3, 20432, Note_on_c, 0, 39, 0
3, 20465, Note_on_c, 0, 61, 0
3, 20467, Note_on_c, 0, 58, 0
3, 20469, Note_on_c, 0, 54, 0
3, 20491, Note_on_c, 0, 54, 72
3, 20493, Note_on_c, 0, 61, 65
3, 20494, Note_on_c, 0, 58, 70
3, 20494, Note_on_c, 0, 39, 51
3, 20494, Note_on_c, 0, 27, 64
3, 20555, Note_on_c, 0, 61, 0
3, 20556, Note_on_c, 0, 54, 0
3, 20556, Note_on_c, 0, 58, 0
3, 20570, Note_on_c, 0, 39, 0
3, 20585, Note_on_c, 0, 54, 64
3, 20586, Note_on_c, 0, 39, 50
3, 20586, Note_on_c, 0, 61, 64
3, 20587, Note_on_c, 0, 58, 66
3, 20629, Note_on_c, 0, 61, 0
3, 20629, Note_on_c, 0, 39, 0
3, 20629, Note_on_c, 0, 27, 0
3, 20632, Note_on_c, 0, 58, 0
3, 20634, Note_on_c, 0, 54, 0
3, 20685, Note_on_c, 0, 54, 62
3, 20687, Note_on_c, 0, 61, 61
3, 20687, Note_on_c, 0, 27, 51
3, 20687, Note_on_c, 0, 39, 46
3, 20691, Note_on_c, 0, 58, 51
3, 20760, Note_on_c, 0, 27, 0
3, 20763, Note_on_c, 0, 39, 0
3, 20768, Note_on_c, 0, 58, 0
3, 20770, Note_on_c, 0, 54, 0
3, 20771, Note_on_c, 0, 61, 0
3, 21061, Note_on_c, 0, 65, 89
3, 21062, Note_on_c, 0, 54, 85
3, 21062, Note_on_c, 0, 58, 87
3, 21063, Note_on_c, 0, 32, 70
3, 21063, Note_on_c, 0, 60, 86
3, 21064, Note_on_c, 0, 44, 67
3, 21065, Control_c, 0, 64, 0
3, 21112, Control_c, 0, 64, 127
3, 21149, Note_on_c, 0, 54, 0
3, 21151, Note_on_c, 0, 60, 0
3, 21151, Note_on_c, 0, 65, 0
3, 21156, Note_on_c, 0, 58, 0
3, 21197, Note_on_c, 0, 32, 0
3, 21216, Note_on_c, 0, 44, 0
3, 21261, Note_on_c, 0, 68, 105
3, 21428, Note_on_c, 0, 68, 0
3, 21458, Note_on_c, 0, 68, 67
3, 21459, Note_on_c, 0, 60, 68
3, 21459, Note_on_c, 0, 64, 75
3, 21459, Note_on_c, 0, 44, 52
3, 21470, Control_c, 0, 64, 0
3, 21526, Note_on_c, 0, 52, 51
3, 21529, Control_c, 0, 64, 127
3, 21581, Note_on_c, 0, 52, 0
3, 21584, Note_on_c, 0, 44, 0
3, 21584, Note_on_c, 0, 54, 58
3, 21643, Note_on_c, 0, 54, 0
3, 21649, Note_on_c, 0, 57, 59
3, 21683, Note_on_c, 0, 60, 0
3, 21703, Note_on_c, 0, 64, 0
3, 21723, Note_on_c, 0, 60, 53
3, 21797, Note_on_c, 0, 64, 64
3, 21839, Note_on_c, 0, 68, 0
3, 21878, Note_on_c, 0, 68, 46
3, 21886, Note_on_c, 0, 64, 0
3, 21902, Note_on_c, 0, 68, 0
3, 21970, Note_on_c, 0, 80, 51
3, 22069, Note_on_c, 0, 57, 0
3, 22083, Note_on_c, 0, 60, 0
3, 22115, Note_on_c, 0, 80, 0
3, 22215, Note_on_c, 0, 77, 109
3, 22221, Note_on_c, 0, 49, 66
3, 22229, Control_c, 0, 64, 0
3, 22261, Control_c, 0, 64, 127
3, 22322, Note_on_c, 0, 76, 56
3, 22329, Note_on_c, 0, 77, 0
3, 22338, Note_on_c, 0, 75, 62
3, 22346, Note_on_c, 0, 76, 0
3, 22355, Note_on_c, 0, 75, 0
3, 22358, Note_on_c, 0, 74, 65
3, 22372, Note_on_c, 0, 74, 0
3, 22374, Note_on_c, 0, 73, 58
3, 22496, Note_on_c, 0, 56, 36
3, 22549, Note_on_c, 0, 49, 0
3, 22559, Note_on_c, 0, 56, 0
3, 22561, Note_on_c, 0, 60, 44
3, 22613, Note_on_c, 0, 60, 0
3, 22625, Note_on_c, 0, 65, 51
3, 22696, Note_on_c, 0, 72, 48
3, 22697, Note_on_c, 0, 73, 0
3, 22697, Note_on_c, 0, 68, 41
3, 22723, Note_on_c, 0, 72, 0
3, 22780, Note_on_c, 0, 77, 56
3, 22782, Note_on_c, 0, 72, 42
3, 22813, Note_on_c, 0, 68, 0
3, 22853, Note_on_c, 0, 77, 0
3, 22857, Note_on_c, 0, 68, 43
3, 22859, Note_on_c, 0, 80, 43
3, 22866, Note_on_c, 0, 80, 0
3, 22906, Note_on_c, 0, 65, 0
3, 22979, Note_on_c, 0, 72, 0
3, 23011, Note_on_c, 0, 99, 55
3, 23013, Note_on_c, 0, 65, 44
3, 23021, Note_on_c, 0, 68, 0
3, 23029, Note_on_c, 0, 65, 0
3, 23131, Note_on_c, 0, 99, 0
3, 23273, Note_on_c, 0, 25, 52
3, 23274, Note_on_c, 0, 104, 52
3, 23331, Note_on_c, 0, 104, 0
3, 23338, Note_on_c, 0, 25, 0
3, 23951, Control_c, 0, 64, 0
3, 23951, End_track
4, 0, Start_track
4, 0, Title_t, "Played in Real Time"
4, 0, End_track
0, 0, End_of_file
