0, 0, Header, 1, 3, 384
1, 0, Start_track
1, 0, Title_t, "untitled"
1, 0, System_exclusive, 5, 126, 127, 9, 1, 247
1, 0, Time_signature, 3, 2, 24, 8
1, 0, Key_signature, -4, "major"
1, 0, Tempo, 500000
1, 0, Sequencer_specific, 21, 67, 115, 10, 0, 5, 75, 79, 79, 79, 79, 79, 79, 79, 79, 79, 79, 79, 79, 79, 79, 79
1, 0, Sequencer_specific, 6, 67, 115, 10, 0, 4, 1
1, 0, Sequencer_specific, 9, 67, 123, 0, 88, 70, 48, 50, 0, 0
1, 91653, Tempo, 504202
1, 91653, End_track
2, 0, Start_track
2, 0, Title_t, "ChopinWaltz3 (1)"
2, 385, Control_c, 0, 7, 101
2, 385, Control_c, 0, 10, 64
2, 385, End_track
3, 0, Start_track
3, 0, Title_t, "Track 2"
3, 384, Control_c, 0, 0, 0
3, 384, Control_c, 0, 32, 122
3, 384, Program_c, 0, 0
3, 385, Control_c, 0, 7, 107
3, 385, Control_c, 0, 10, 64
3, 385, Control_c, 0, 91, 10
3, 385, Control_c, 0, 93, 0
3, 2304, Note_on_c, 0, 82, 1
3, 2328, Note_on_c, 0, 82, 0
3, 2764, Note_on_c, 0, 75, 72
3, 2836, Control_c, 0, 64, 127
3, 3024, Note_on_c, 0, 75, 0
3, 3068, Note_on_c, 0, 74, 60
3, 3336, Control_c, 0, 64, 0
3, 3344, Note_on_c, 0, 74, 0
3, 3388, Note_on_c, 0, 73, 48
3, 3404, Note_on_c, 0, 53, 39
3, 3492, Control_c, 0, 64, 127
3, 3660, Note_on_c, 0, 73, 0
3, 3660, Note_on_c, 0, 75, 66
3, 3776, Note_on_c, 0, 73, 66
3, 3868, Note_on_c, 0, 75, 0
3, 3928, Note_on_c, 0, 73, 0
3, 3932, Control_c, 0, 64, 0
3, 3936, Note_on_c, 0, 72, 76
3, 3936, Note_on_c, 0, 61, 47
3, 4008, Control_c, 0, 64, 127
3, 4208, Note_on_c, 0, 73, 85
3, 4248, Note_on_c, 0, 61, 0
3, 4256, Note_on_c, 0, 72, 0
3, 4432, Note_on_c, 0, 73, 0
3, 4444, Note_on_c, 0, 61, 51
3, 4476, Note_on_c, 0, 77, 89
3, 4752, Note_on_c, 0, 53, 0
3, 4756, Note_on_c, 0, 75, 68
3, 4760, Note_on_c, 0, 77, 0
3, 5076, Note_on_c, 0, 61, 0
3, 5076, Note_on_c, 0, 73, 57
3, 5096, Note_on_c, 0, 52, 48
3, 5108, Control_c, 0, 64, 0
3, 5144, Note_on_c, 0, 75, 0
3, 5244, Control_c, 0, 64, 127
3, 5528, Note_on_c, 0, 60, 41
3, 5568, Note_on_c, 0, 58, 27
3, 5696, Note_on_c, 0, 58, 0
3, 5732, Note_on_c, 0, 60, 0
3, 5948, Note_on_c, 0, 73, 0
3, 6008, Note_on_c, 0, 60, 38
3, 6012, Note_on_c, 0, 72, 55
3, 6012, Note_on_c, 0, 58, 40
3, 6208, Note_on_c, 0, 52, 0
3, 6468, Control_c, 0, 64, 0
3, 6512, Note_on_c, 0, 51, 48
3, 6548, Note_on_c, 0, 60, 0
3, 6556, Note_on_c, 0, 58, 0
3, 6632, Control_c, 0, 64, 127
3, 6912, Note_on_c, 0, 72, 0
3, 7044, Note_on_c, 0, 60, 34
3, 7052, Note_on_c, 0, 69, 56
3, 7068, Note_on_c, 0, 57, 37
3, 7300, Note_on_c, 0, 70, 83
3, 7352, Note_on_c, 0, 69, 0
3, 7368, Note_on_c, 0, 60, 0
3, 7380, Note_on_c, 0, 57, 0
3, 7492, Note_on_c, 0, 72, 83
3, 7536, Note_on_c, 0, 70, 0
3, 7660, Note_on_c, 0, 72, 0
3, 7692, Note_on_c, 0, 60, 48
3, 7700, Note_on_c, 0, 57, 48
3, 7716, Note_on_c, 0, 75, 90
3, 8004, Note_on_c, 0, 60, 0
3, 8012, Note_on_c, 0, 73, 75
3, 8048, Note_on_c, 0, 75, 0
3, 8148, Note_on_c, 0, 51, 0
3, 8228, Note_on_c, 0, 57, 0
3, 8272, Note_on_c, 0, 73, 0
3, 8332, Note_on_c, 0, 49, 45
3, 8336, Note_on_c, 0, 72, 55
3, 8356, Control_c, 0, 64, 0
3, 8492, Control_c, 0, 64, 127
3, 8760, Note_on_c, 0, 61, 28
3, 8760, Note_on_c, 0, 58, 38
3, 8764, Note_on_c, 0, 65, 43
3, 8836, Note_on_c, 0, 58, 0
3, 9148, Note_on_c, 0, 49, 0
3, 9196, Note_on_c, 0, 72, 0
3, 9248, Note_on_c, 0, 49, 35
3, 9260, Note_on_c, 0, 70, 60
3, 9560, Note_on_c, 0, 61, 0
3, 9600, Note_on_c, 0, 65, 0
3, 9672, Note_on_c, 0, 49, 0
3, 9808, Note_on_c, 0, 62, 40
3, 9812, Note_on_c, 0, 70, 0
3, 9816, Note_on_c, 0, 65, 48
3, 9820, Control_c, 0, 64, 0
3, 9820, Note_on_c, 0, 50, 45
3, 9828, Note_on_c, 0, 58, 22
3, 9984, Control_c, 0, 64, 127
3, 10140, Note_on_c, 0, 58, 0
3, 10312, Note_on_c, 0, 62, 0
3, 10320, Note_on_c, 0, 70, 75
3, 10324, Note_on_c, 0, 65, 0
3, 10336, Note_on_c, 0, 58, 48
3, 10624, Note_on_c, 0, 70, 0
3, 10628, Note_on_c, 0, 58, 0
3, 10644, Note_on_c, 0, 68, 81
3, 10884, Note_on_c, 0, 68, 0
3, 10960, Note_on_c, 0, 68, 75
3, 10972, Note_on_c, 0, 58, 42
3, 11120, Note_on_c, 0, 50, 0
3, 11212, Note_on_c, 0, 68, 0
3, 11244, Note_on_c, 0, 58, 0
3, 11264, Note_on_c, 0, 67, 75
3, 11404, Note_on_c, 0, 67, 0
3, 11456, Note_on_c, 0, 65, 59
3, 11524, Note_on_c, 0, 65, 0
3, 11732, Note_on_c, 0, 65, 60
3, 11736, Note_on_c, 0, 51, 49
3, 11748, Control_c, 0, 64, 0
3, 11892, Control_c, 0, 64, 127
3, 12168, Note_on_c, 0, 56, 48
3, 12192, Note_on_c, 0, 60, 49
3, 12348, Note_on_c, 0, 56, 0
3, 12432, Note_on_c, 0, 60, 0
3, 12732, Note_on_c, 0, 65, 0
3, 12764, Note_on_c, 0, 56, 42
3, 12768, Note_on_c, 0, 63, 54
3, 12868, Note_on_c, 0, 56, 0
3, 12920, Note_on_c, 0, 51, 0
3, 13448, Note_on_c, 0, 27, 50
3, 13448, Control_c, 0, 64, 0
3, 13452, Note_on_c, 0, 39, 45
3, 13464, Note_on_c, 0, 63, 0
3, 13544, Control_c, 0, 64, 127
3, 13664, Note_on_c, 0, 27, 0
3, 13708, Note_on_c, 0, 39, 0
3, 13992, Note_on_c, 0, 63, 21
3, 14040, Note_on_c, 0, 63, 0
3, 14300, Note_on_c, 0, 79, 64
3, 14316, Note_on_c, 0, 63, 45
3, 14360, Note_on_c, 0, 58, 38
3, 14716, Note_on_c, 0, 77, 80
3, 14760, Note_on_c, 0, 79, 0
3, 14928, Note_on_c, 0, 63, 0
3, 15016, Note_on_c, 0, 63, 43
3, 15032, Note_on_c, 0, 75, 68
3, 15700, Note_on_c, 0, 63, 0
3, 15716, Note_on_c, 0, 77, 0
3, 15880, Note_on_c, 0, 73, 37
3, 15944, Note_on_c, 0, 58, 0
3, 15980, Note_on_c, 0, 75, 0
3, 16076, Note_on_c, 0, 73, 0
3, 16604, Control_c, 0, 64, 0
3, 16624, Note_on_c, 0, 44, 36
3, 16624, Note_on_c, 0, 71, 49
3, 16712, Control_c, 0, 64, 127
3, 17156, Note_on_c, 0, 59, 35
3, 17400, Note_on_c, 0, 59, 0
3, 17404, Note_on_c, 0, 71, 0
3, 17796, Note_on_c, 0, 72, 41
3, 17812, Note_on_c, 0, 60, 26
3, 17816, Note_on_c, 0, 56, 33
3, 17872, Note_on_c, 0, 44, 0
3, 18056, Note_on_c, 0, 56, 0
3, 18132, Note_on_c, 0, 60, 0
3, 18392, Note_on_c, 0, 72, 0
3, 18440, Control_c, 0, 64, 0
3, 18492, Note_on_c, 0, 53, 27
3, 18536, Control_c, 0, 64, 127
3, 18784, Note_on_c, 0, 73, 63
3, 19040, Note_on_c, 0, 73, 0
3, 19064, Note_on_c, 0, 61, 46
3, 19064, Note_on_c, 0, 82, 87
3, 19320, Note_on_c, 0, 82, 0
3, 19364, Note_on_c, 0, 80, 79
3, 19392, Note_on_c, 0, 61, 0
3, 19656, Note_on_c, 0, 80, 0
3, 19676, Note_on_c, 0, 61, 36
3, 19680, Note_on_c, 0, 77, 63
3, 19996, Note_on_c, 0, 77, 0
3, 20012, Note_on_c, 0, 73, 55
3, 20092, Note_on_c, 0, 53, 0
3, 20244, Note_on_c, 0, 73, 0
3, 20260, Note_on_c, 0, 61, 0
3, 20340, Note_on_c, 0, 73, 50
3, 20344, Control_c, 0, 64, 0
3, 20348, Note_on_c, 0, 52, 36
3, 20488, Control_c, 0, 64, 127
3, 20772, Note_on_c, 0, 73, 0
3, 20808, Note_on_c, 0, 60, 38
3, 20820, Note_on_c, 0, 72, 57
3, 20840, Note_on_c, 0, 58, 36
3, 21028, Note_on_c, 0, 58, 0
3, 21044, Note_on_c, 0, 60, 0
3, 21312, Note_on_c, 0, 60, 41
3, 21320, Note_on_c, 0, 72, 0
3, 21324, Note_on_c, 0, 58, 38
3, 21500, Note_on_c, 0, 52, 0
3, 21772, Control_c, 0, 64, 0
3, 21776, Note_on_c, 0, 60, 0
3, 21792, Note_on_c, 0, 51, 44
3, 21804, Note_on_c, 0, 69, 72
3, 21820, Note_on_c, 0, 58, 0
3, 21932, Control_c, 0, 64, 127
3, 21980, Note_on_c, 0, 69, 0
3, 21988, Note_on_c, 0, 70, 64
3, 22096, Note_on_c, 0, 69, 54
3, 22144, Note_on_c, 0, 70, 0
3, 22212, Note_on_c, 0, 68, 66
3, 22216, Note_on_c, 0, 69, 0
3, 22284, Note_on_c, 0, 68, 0
3, 22344, Control_c, 0, 64, 0
3, 22352, Note_on_c, 0, 69, 59
3, 22396, Note_on_c, 0, 60, 32
3, 22448, Control_c, 0, 64, 127
3, 22480, Note_on_c, 0, 69, 0
3, 22612, Note_on_c, 0, 72, 60
3, 22676, Note_on_c, 0, 60, 0
3, 22764, Note_on_c, 0, 72, 0
3, 22796, Note_on_c, 0, 75, 67
3, 22904, Note_on_c, 0, 75, 0
3, 22956, Note_on_c, 0, 77, 83
3, 23096, Note_on_c, 0, 77, 0
3, 23100, Control_c, 0, 64, 0
3, 23148, Note_on_c, 0, 78, 84
3, 23164, Note_on_c, 0, 60, 43
3, 23192, Control_c, 0, 64, 127
3, 23528, Note_on_c, 0, 60, 0
3, 23576, Note_on_c, 0, 69, 46
3, 23580, Note_on_c, 0, 78, 0
3, 23964, Note_on_c, 0, 51, 0
3, 24572, Note_on_c, 0, 69, 0
3, 24588, Note_on_c, 0, 71, 41
3, 24612, Note_on_c, 0, 49, 38
3, 24624, Note_on_c, 0, 72, 44
3, 24628, Note_on_c, 0, 71, 0
3, 24632, Control_c, 0, 64, 0
3, 24836, Control_c, 0, 64, 127
3, 25060, Note_on_c, 0, 61, 41
3, 25084, Note_on_c, 0, 58, 33
3, 25148, Note_on_c, 0, 58, 0
3, 25276, Note_on_c, 0, 72, 0
3, 25404, Note_on_c, 0, 61, 0
3, 25540, Note_on_c, 0, 58, 37
3, 25548, Note_on_c, 0, 70, 57
3, 25688, Note_on_c, 0, 58, 0
3, 25788, Note_on_c, 0, 49, 0
3, 25936, Note_on_c, 0, 70, 0
3, 26056, Note_on_c, 0, 70, 67
3, 26056, Note_on_c, 0, 50, 46
3, 26072, Control_c, 0, 64, 0
3, 26356, Control_c, 0, 64, 127
3, 26572, Note_on_c, 0, 70, 0
3, 26580, Note_on_c, 0, 65, 46
3, 26600, Note_on_c, 0, 58, 37
3, 26604, Note_on_c, 0, 62, 45
3, 26848, Note_on_c, 0, 62, 0
3, 26860, Note_on_c, 0, 58, 0
3, 26864, Note_on_c, 0, 68, 75
3, 26908, Note_on_c, 0, 65, 0
3, 27168, Note_on_c, 0, 67, 68
3, 27176, Note_on_c, 0, 58, 45
3, 27232, Note_on_c, 0, 68, 0
3, 27372, Note_on_c, 0, 58, 0
3, 27408, Note_on_c, 0, 50, 0
3, 27440, Note_on_c, 0, 67, 0
3, 27468, Note_on_c, 0, 65, 63
3, 27528, Note_on_c, 0, 65, 0
3, 27776, Note_on_c, 0, 44, 45
3, 27784, Note_on_c, 0, 65, 57
3, 27808, Control_c, 0, 64, 0
3, 27892, Control_c, 0, 64, 127
3, 28316, Note_on_c, 0, 56, 43
3, 28328, Note_on_c, 0, 60, 46
3, 28336, Note_on_c, 0, 51, 31
3, 28428, Note_on_c, 0, 51, 0
3, 28552, Note_on_c, 0, 56, 0
3, 28708, Note_on_c, 0, 65, 0
3, 28884, Note_on_c, 0, 63, 52
3, 28892, Note_on_c, 0, 60, 0
3, 28996, Note_on_c, 0, 44, 0
3, 29156, Note_on_c, 0, 63, 0
3, 29400, Control_c, 0, 64, 0
3, 29444, Note_on_c, 0, 27, 45
3, 29452, Note_on_c, 0, 63, 50
3, 29496, Control_c, 0, 64, 127
3, 29544, Note_on_c, 0, 27, 0
3, 29788, Note_on_c, 0, 63, 0
3, 29808, Note_on_c, 0, 65, 55
3, 29948, Note_on_c, 0, 63, 61
3, 29952, Note_on_c, 0, 65, 0
3, 30180, Note_on_c, 0, 62, 58
3, 30180, Note_on_c, 0, 55, 39
3, 30200, Note_on_c, 0, 58, 40
3, 30224, Note_on_c, 0, 63, 0
3, 30552, Note_on_c, 0, 63, 57
3, 30568, Note_on_c, 0, 62, 0
3, 30672, Note_on_c, 0, 63, 0
3, 30716, Note_on_c, 0, 58, 0
3, 30992, Note_on_c, 0, 65, 56
3, 30992, Note_on_c, 0, 73, 55
3, 31232, Note_on_c, 0, 73, 0
3, 31352, Note_on_c, 0, 55, 0
3, 31356, Note_on_c, 0, 65, 0
3, 31468, Note_on_c, 0, 72, 48
3, 31468, Note_on_c, 0, 67, 42
3, 31628, Note_on_c, 0, 67, 0
3, 31636, Note_on_c, 0, 72, 0
3, 32112, Note_on_c, 0, 60, 39
3, 32116, Note_on_c, 0, 44, 32
3, 32120, Note_on_c, 0, 68, 35
3, 32120, Control_c, 0, 64, 0
3, 32152, Note_on_c, 0, 51, 29
3, 32320, Control_c, 0, 64, 127
3, 32480, Note_on_c, 0, 60, 0
3, 32956, Note_on_c, 0, 63, 37
3, 32968, Note_on_c, 0, 60, 23
3, 32980, Note_on_c, 0, 56, 31
3, 33829, Control_c, 0, 11, 127
3, 33829, Control_c, 0, 94, 0
3, 33829, Control_c, 0, 101, 0
3, 33830, Control_c, 0, 100, 1
3, 33831, Control_c, 0, 6, 64
3, 33832, Control_c, 0, 38, 0
3, 33832, Control_c, 0, 71, 43
3, 33832, Control_c, 0, 74, 46
3, 33832, Control_c, 0, 64, 0
3, 34236, Note_on_c, 0, 60, 0
3, 34248, Note_on_c, 0, 63, 0
3, 34252, Note_on_c, 0, 68, 0
3, 34260, Note_on_c, 0, 56, 0
3, 34288, Note_on_c, 0, 51, 0
3, 34308, Note_on_c, 0, 44, 0
3, 34380, Control_c, 0, 64, 0
3, 34597, Note_on_c, 0, 77, 96
3, 34625, Note_on_c, 0, 53, 50
3, 34685, Control_c, 0, 64, 127
3, 34909, Note_on_c, 0, 68, 64
3, 35241, Note_on_c, 0, 73, 60
3, 35245, Note_on_c, 0, 65, 45
3, 35349, Note_on_c, 0, 68, 0
3, 35461, Note_on_c, 0, 77, 0
3, 35537, Note_on_c, 0, 68, 54
3, 35641, Note_on_c, 0, 53, 0
3, 35785, Note_on_c, 0, 73, 0
3, 35789, Note_on_c, 0, 68, 0
3, 35813, Note_on_c, 0, 77, 82
3, 35825, Note_on_c, 0, 53, 47
3, 35917, Note_on_c, 0, 65, 0
3, 36049, Note_on_c, 0, 53, 0
3, 36065, Note_on_c, 0, 68, 67
3, 36229, Note_on_c, 0, 77, 0
3, 36269, Note_on_c, 0, 68, 0
3, 36317, Control_c, 0, 64, 0
3, 36329, Note_on_c, 0, 75, 88
3, 36337, Note_on_c, 0, 52, 57
3, 36433, Control_c, 0, 64, 127
3, 36497, Note_on_c, 0, 75, 0
3, 36565, Note_on_c, 0, 76, 88
3, 36705, Note_on_c, 0, 76, 0
3, 36793, Note_on_c, 0, 58, 46
3, 36793, Note_on_c, 0, 73, 88
3, 36797, Note_on_c, 0, 64, 51
3, 37009, Note_on_c, 0, 73, 0
3, 37045, Note_on_c, 0, 72, 83
3, 37057, Note_on_c, 0, 64, 0
3, 37101, Note_on_c, 0, 58, 0
3, 37261, Note_on_c, 0, 72, 0
3, 37297, Note_on_c, 0, 58, 52
3, 37313, Note_on_c, 0, 71, 63
3, 37321, Note_on_c, 0, 64, 55
3, 37413, Note_on_c, 0, 64, 0
3, 37485, Note_on_c, 0, 52, 0
3, 37509, Note_on_c, 0, 71, 0
3, 37533, Note_on_c, 0, 58, 0
3, 37577, Note_on_c, 0, 70, 73
3, 37817, Note_on_c, 0, 70, 0
3, 37853, Control_c, 0, 64, 0
3, 37853, Note_on_c, 0, 69, 71
3, 37873, Note_on_c, 0, 51, 42
3, 37997, Control_c, 0, 64, 127
3, 38137, Note_on_c, 0, 66, 65
3, 38153, Note_on_c, 0, 69, 0
3, 38345, Note_on_c, 0, 66, 0
3, 38401, Note_on_c, 0, 60, 34
3, 38409, Control_c, 0, 64, 0
3, 38413, Note_on_c, 0, 65, 54
3, 38485, Control_c, 0, 64, 127
3, 38625, Note_on_c, 0, 65, 0
3, 38665, Note_on_c, 0, 60, 0
3, 38689, Note_on_c, 0, 64, 34
3, 38941, Note_on_c, 0, 64, 0
3, 38981, Note_on_c, 0, 60, 31
3, 38985, Note_on_c, 0, 63, 47
3, 39073, Note_on_c, 0, 60, 0
3, 39277, Note_on_c, 0, 61, 46
3, 39341, Note_on_c, 0, 51, 0
3, 39493, Note_on_c, 0, 61, 0
3, 39521, Note_on_c, 0, 63, 0
3, 39569, Note_on_c, 0, 61, 47
3, 39585, Control_c, 0, 64, 0
3, 39601, Note_on_c, 0, 49, 33
3, 39717, Control_c, 0, 64, 127
3, 39813, Note_on_c, 0, 61, 0
3, 39881, Note_on_c, 0, 60, 51
3, 39985, Note_on_c, 0, 60, 0
3, 40025, Note_on_c, 0, 61, 63
3, 40117, Note_on_c, 0, 61, 0
3, 40197, Note_on_c, 0, 65, 66
3, 40209, Note_on_c, 0, 60, 27
3, 40261, Control_c, 0, 64, 0
3, 40297, Note_on_c, 0, 65, 0
3, 40313, Control_c, 0, 64, 127
3, 40345, Note_on_c, 0, 70, 61
3, 40417, Note_on_c, 0, 60, 0
3, 40437, Note_on_c, 0, 70, 0
3, 40477, Note_on_c, 0, 72, 75
3, 40585, Note_on_c, 0, 72, 0
3, 40609, Note_on_c, 0, 73, 75
3, 40685, Note_on_c, 0, 73, 0
3, 40761, Note_on_c, 0, 77, 81
3, 40769, Note_on_c, 0, 60, 53
3, 40873, Note_on_c, 0, 77, 0
3, 40913, Note_on_c, 0, 80, 66
3, 41017, Note_on_c, 0, 80, 0
3, 41049, Note_on_c, 0, 60, 0
3, 41061, Note_on_c, 0, 84, 70
3, 41069, Note_on_c, 0, 49, 0
3, 41165, Note_on_c, 0, 84, 0
3, 41213, Note_on_c, 0, 85, 86
3, 41341, Note_on_c, 0, 85, 0
3, 41373, Control_c, 0, 64, 0
3, 41389, Note_on_c, 0, 86, 79
3, 41401, Note_on_c, 0, 50, 47
3, 41545, Note_on_c, 0, 86, 0
3, 41557, Note_on_c, 0, 80, 57
3, 41585, Note_on_c, 0, 80, 0
3, 41729, Note_on_c, 0, 77, 49
3, 41757, Note_on_c, 0, 77, 0
3, 42073, Note_on_c, 0, 56, 34
3, 42073, Note_on_c, 0, 70, 42
3, 42077, Note_on_c, 0, 60, 24
3, 42181, Control_c, 0, 64, 127
3, 42357, Note_on_c, 0, 56, 0
3, 42405, Note_on_c, 0, 60, 0
3, 42641, Note_on_c, 0, 60, 36
3, 42641, Note_on_c, 0, 56, 40
3, 42825, Note_on_c, 0, 50, 0
3, 43197, Control_c, 0, 64, 0
3, 43201, Note_on_c, 0, 70, 0
3, 43201, Note_on_c, 0, 60, 0
3, 43221, Note_on_c, 0, 56, 0
3, 43225, Note_on_c, 0, 51, 40
3, 43321, Control_c, 0, 64, 127
3, 43453, Note_on_c, 0, 67, 53
3, 43569, Note_on_c, 0, 67, 0
3, 43593, Note_on_c, 0, 68, 68
3, 43701, Note_on_c, 0, 68, 0
3, 43709, Note_on_c, 0, 70, 64
3, 43765, Control_c, 0, 64, 0
3, 43773, Note_on_c, 0, 70, 0
3, 43793, Note_on_c, 0, 60, 37
3, 43805, Note_on_c, 0, 72, 66
3, 43881, Note_on_c, 0, 72, 0
3, 43881, Control_c, 0, 64, 127
3, 43901, Note_on_c, 0, 75, 62
3, 43929, Note_on_c, 0, 75, 0
3, 43997, Note_on_c, 0, 77, 68
3, 44029, Note_on_c, 0, 60, 0
3, 44049, Note_on_c, 0, 77, 0
3, 44073, Note_on_c, 0, 80, 68
3, 44153, Note_on_c, 0, 80, 0
3, 44165, Note_on_c, 0, 82, 63
3, 44189, Note_on_c, 0, 82, 0
3, 44229, Note_on_c, 0, 84, 67
3, 44301, Note_on_c, 0, 84, 0
3, 44325, Note_on_c, 0, 87, 74
3, 44357, Note_on_c, 0, 87, 0
3, 44425, Note_on_c, 0, 89, 78
3, 44437, Note_on_c, 0, 60, 42
3, 44489, Note_on_c, 0, 89, 0
3, 44521, Note_on_c, 0, 92, 74
3, 44605, Note_on_c, 0, 92, 0
3, 44617, Note_on_c, 0, 60, 0
3, 44645, Note_on_c, 0, 94, 79
3, 44705, Note_on_c, 0, 51, 0
3, 44745, Note_on_c, 0, 94, 0
3, 44781, Note_on_c, 0, 96, 77
3, 44877, Note_on_c, 0, 96, 0
3, 44917, Note_on_c, 0, 97, 76
3, 44985, Note_on_c, 0, 97, 0
3, 45045, Note_on_c, 0, 98, 82
3, 45133, Note_on_c, 0, 98, 0
3, 45133, Control_c, 0, 64, 0
3, 45181, Note_on_c, 0, 27, 58
3, 45193, Note_on_c, 0, 99, 81
3, 45245, Control_c, 0, 64, 127
3, 45273, Note_on_c, 0, 27, 0
3, 45449, Note_on_c, 0, 99, 0
3, 45869, Note_on_c, 0, 75, 88
3, 45877, Note_on_c, 0, 63, 56
3, 45897, Note_on_c, 0, 67, 59
3, 46069, Note_on_c, 0, 75, 0
3, 46105, Note_on_c, 0, 67, 0
3, 46137, Note_on_c, 0, 63, 0
3, 46181, Note_on_c, 0, 73, 81
3, 46325, Note_on_c, 0, 73, 0
3, 46485, Note_on_c, 0, 72, 72
3, 46497, Note_on_c, 0, 58, 50
3, 46541, Note_on_c, 0, 58, 0
3, 46705, Note_on_c, 0, 72, 0
3, 46793, Note_on_c, 0, 70, 66
3, 47141, Note_on_c, 0, 70, 0
3, 47173, Note_on_c, 0, 68, 53
3, 47193, Note_on_c, 0, 44, 37
3, 47201, Control_c, 0, 64, 0
3, 47353, Control_c, 0, 64, 127
3, 47533, Note_on_c, 0, 51, 40
3, 47825, Note_on_c, 0, 44, 0
3, 47833, Note_on_c, 0, 51, 0
3, 47865, Note_on_c, 0, 55, 36
3, 48109, Note_on_c, 0, 55, 0
3, 48141, Note_on_c, 0, 56, 55
3, 48429, Note_on_c, 0, 60, 59
3, 48625, Note_on_c, 0, 60, 0
3, 48685, Note_on_c, 0, 63, 60
3, 48833, Note_on_c, 0, 63, 0
3, 48905, Note_on_c, 0, 68, 0
3, 48941, Note_on_c, 0, 61, 41
3, 48945, Note_on_c, 0, 56, 0
3, 48953, Note_on_c, 0, 65, 50
3, 48957, Control_c, 0, 64, 0
3, 48989, Note_on_c, 0, 53, 39
3, 49109, Control_c, 0, 64, 127
3, 49209, Note_on_c, 0, 68, 60
3, 49241, Note_on_c, 0, 56, 37
3, 49301, Note_on_c, 0, 61, 0
3, 49433, Note_on_c, 0, 65, 0
3, 49441, Note_on_c, 0, 68, 0
3, 49461, Note_on_c, 0, 73, 85
3, 49473, Note_on_c, 0, 61, 49
3, 49489, Note_on_c, 0, 68, 26
3, 49521, Note_on_c, 0, 56, 0
3, 49557, Note_on_c, 0, 68, 0
3, 49685, Note_on_c, 0, 73, 0
3, 49701, Note_on_c, 0, 65, 78
3, 49717, Note_on_c, 0, 56, 57
3, 49725, Note_on_c, 0, 61, 0
3, 49809, Note_on_c, 0, 65, 0
3, 49933, Note_on_c, 0, 61, 55
3, 49941, Note_on_c, 0, 77, 120
3, 49961, Note_on_c, 0, 56, 0
3, 50189, Note_on_c, 0, 56, 54
3, 50197, Note_on_c, 0, 65, 71
3, 50209, Note_on_c, 0, 53, 0
3, 50249, Note_on_c, 0, 61, 0
3, 50329, Note_on_c, 0, 65, 0
3, 50361, Note_on_c, 0, 77, 0
3, 50453, Note_on_c, 0, 56, 0
3, 50461, Note_on_c, 0, 75, 86
3, 50473, Control_c, 0, 64, 0
3, 50477, Note_on_c, 0, 52, 52
3, 50645, Control_c, 0, 64, 127
3, 50677, Note_on_c, 0, 75, 0
3, 50709, Note_on_c, 0, 76, 88
3, 50901, Note_on_c, 0, 76, 0
3, 50917, Control_c, 0, 64, 0
3, 50925, Note_on_c, 0, 73, 81
3, 50937, Note_on_c, 0, 60, 51
3, 51029, Control_c, 0, 64, 127
3, 51121, Note_on_c, 0, 73, 0
3, 51129, Note_on_c, 0, 72, 72
3, 51217, Note_on_c, 0, 60, 0
3, 51289, Note_on_c, 0, 72, 0
3, 51349, Note_on_c, 0, 70, 66
3, 51381, Note_on_c, 0, 60, 38
3, 51473, Note_on_c, 0, 52, 0
3, 51521, Note_on_c, 0, 70, 0
3, 51553, Note_on_c, 0, 67, 73
3, 51573, Note_on_c, 0, 52, 39
3, 51645, Note_on_c, 0, 52, 0
3, 51737, Note_on_c, 0, 67, 0
3, 51805, Note_on_c, 0, 66, 73
3, 51809, Control_c, 0, 64, 0
3, 51809, Note_on_c, 0, 51, 56
3, 51833, Note_on_c, 0, 60, 0
3, 51957, Control_c, 0, 64, 127
3, 52005, Note_on_c, 0, 66, 0
3, 52085, Note_on_c, 0, 66, 50
3, 52153, Note_on_c, 0, 66, 0
3, 52153, Note_on_c, 0, 65, 66
3, 52277, Note_on_c, 0, 65, 0
3, 52281, Note_on_c, 0, 64, 68
3, 52325, Control_c, 0, 64, 0
3, 52333, Note_on_c, 0, 60, 35
3, 52485, Note_on_c, 0, 63, 68
3, 52501, Note_on_c, 0, 64, 0
3, 52533, Control_c, 0, 64, 127
3, 52581, Note_on_c, 0, 60, 0
3, 52733, Note_on_c, 0, 60, 63
3, 52753, Note_on_c, 0, 63, 0
3, 52921, Note_on_c, 0, 60, 0
3, 53001, Note_on_c, 0, 63, 60
3, 53009, Note_on_c, 0, 60, 40
3, 53149, Note_on_c, 0, 60, 0
3, 53217, Note_on_c, 0, 63, 0
3, 53241, Note_on_c, 0, 65, 66
3, 53281, Note_on_c, 0, 51, 0
3, 53501, Note_on_c, 0, 65, 0
3, 53573, Note_on_c, 0, 49, 46
3, 53585, Control_c, 0, 64, 0
3, 53609, Note_on_c, 0, 71, 48
3, 53613, Note_on_c, 0, 69, 55
3, 53817, Note_on_c, 0, 69, 0
3, 53825, Note_on_c, 0, 71, 0
3, 53837, Control_c, 0, 64, 127
3, 53881, Note_on_c, 0, 70, 72
3, 53893, Note_on_c, 0, 60, 38
3, 53909, Note_on_c, 0, 49, 0
3, 53969, Note_on_c, 0, 60, 0
3, 54141, Note_on_c, 0, 70, 0
3, 54181, Note_on_c, 0, 65, 49
3, 54201, Note_on_c, 0, 61, 41
3, 54201, Note_on_c, 0, 60, 49
3, 54209, Note_on_c, 0, 69, 72
3, 54429, Note_on_c, 0, 61, 0
3, 54445, Note_on_c, 0, 69, 0
3, 54449, Note_on_c, 0, 70, 81
3, 54469, Note_on_c, 0, 65, 0
3, 54637, Note_on_c, 0, 70, 0
3, 54681, Note_on_c, 0, 72, 90
3, 54689, Note_on_c, 0, 61, 57
3, 54689, Note_on_c, 0, 65, 60
3, 54861, Note_on_c, 0, 65, 0
3, 54897, Note_on_c, 0, 72, 0
3, 54901, Note_on_c, 0, 60, 0
3, 54921, Note_on_c, 0, 61, 0
3, 54933, Note_on_c, 0, 73, 76
3, 55157, Note_on_c, 0, 73, 0
3, 55185, Note_on_c, 0, 74, 81
3, 55189, Control_c, 0, 64, 0
3, 55197, Note_on_c, 0, 46, 62
3, 55289, Control_c, 0, 64, 127
3, 55321, Note_on_c, 0, 46, 0
3, 55457, Note_on_c, 0, 74, 0
3, 55465, Note_on_c, 0, 75, 78
3, 55605, Note_on_c, 0, 76, 81
3, 55609, Note_on_c, 0, 75, 0
3, 55733, Note_on_c, 0, 76, 0
3, 55741, Note_on_c, 0, 77, 81
3, 55757, Control_c, 0, 64, 0
3, 55765, Note_on_c, 0, 65, 54
3, 55769, Note_on_c, 0, 56, 52
3, 55777, Note_on_c, 0, 62, 42
3, 55857, Control_c, 0, 64, 127
3, 55921, Note_on_c, 0, 77, 0
3, 55945, Note_on_c, 0, 80, 77
3, 56049, Note_on_c, 0, 65, 0
3, 56053, Note_on_c, 0, 80, 0
3, 56093, Note_on_c, 0, 83, 81
3, 56165, Note_on_c, 0, 62, 0
3, 56193, Note_on_c, 0, 83, 0
3, 56245, Note_on_c, 0, 86, 83
3, 56377, Note_on_c, 0, 86, 0
3, 56437, Note_on_c, 0, 89, 76
3, 56441, Note_on_c, 0, 65, 51
3, 56453, Note_on_c, 0, 62, 49
3, 56653, Note_on_c, 0, 65, 0
3, 56721, Note_on_c, 0, 62, 0
3, 56761, Note_on_c, 0, 89, 0
3, 56761, Note_on_c, 0, 86, 68
3, 56797, Note_on_c, 0, 56, 0
3, 57073, Note_on_c, 0, 86, 0
3, 57085, Control_c, 0, 64, 0
3, 57089, Note_on_c, 0, 87, 56
3, 57113, Note_on_c, 0, 44, 49
3, 57181, Control_c, 0, 64, 127
3, 57245, Note_on_c, 0, 44, 0
3, 57453, Note_on_c, 0, 84, 50
3, 57625, Note_on_c, 0, 87, 0
3, 57801, Note_on_c, 0, 84, 0
3, 57805, Note_on_c, 0, 63, 40
3, 57817, Note_on_c, 0, 80, 51
3, 57841, Note_on_c, 0, 56, 32
3, 57881, Note_on_c, 0, 63, 0
3, 57905, Note_on_c, 0, 56, 0
3, 58157, Note_on_c, 0, 77, 48
3, 58165, Note_on_c, 0, 51, 63
3, 58477, Control_c, 0, 64, 0
3, 58489, Note_on_c, 0, 87, 90
3, 58501, Note_on_c, 0, 60, 51
3, 58513, Note_on_c, 0, 63, 50
3, 58585, Control_c, 0, 64, 127
3, 58673, Note_on_c, 0, 63, 0
3, 58689, Note_on_c, 0, 51, 0
3, 58769, Note_on_c, 0, 80, 0
3, 58785, Note_on_c, 0, 87, 0
3, 58813, Note_on_c, 0, 51, 64
3, 58821, Note_on_c, 0, 84, 75
3, 58825, Note_on_c, 0, 80, 21
3, 58857, Note_on_c, 0, 77, 0
3, 58865, Note_on_c, 0, 60, 0
3, 59021, Note_on_c, 0, 51, 0
3, 59085, Note_on_c, 0, 84, 0
3, 59105, Note_on_c, 0, 80, 0
3, 59137, Control_c, 0, 64, 0
3, 59141, Note_on_c, 0, 85, 92
3, 59145, Note_on_c, 0, 51, 66
3, 59285, Control_c, 0, 64, 127
3, 59377, Note_on_c, 0, 85, 0
3, 59413, Note_on_c, 0, 87, 87
3, 59601, Note_on_c, 0, 87, 0
3, 59637, Control_c, 0, 64, 0
3, 59645, Note_on_c, 0, 61, 50
3, 59649, Note_on_c, 0, 85, 82
3, 59665, Note_on_c, 0, 58, 50
3, 59773, Control_c, 0, 64, 127
3, 59829, Note_on_c, 0, 85, 0
3, 59873, Note_on_c, 0, 84, 69
3, 59917, Note_on_c, 0, 61, 0
3, 60001, Note_on_c, 0, 58, 0
3, 60013, Note_on_c, 0, 84, 0
3, 60097, Note_on_c, 0, 82, 68
3, 60109, Note_on_c, 0, 61, 39
3, 60117, Note_on_c, 0, 58, 40
3, 60153, Note_on_c, 0, 61, 0
3, 60201, Note_on_c, 0, 58, 0
3, 60217, Note_on_c, 0, 51, 0
3, 60309, Note_on_c, 0, 82, 0
3, 60333, Note_on_c, 0, 80, 61
3, 60501, Note_on_c, 0, 80, 0
3, 60541, Control_c, 0, 64, 0
3, 60569, Note_on_c, 0, 44, 48
3, 60577, Note_on_c, 0, 79, 60
3, 60685, Control_c, 0, 64, 127
3, 60777, Note_on_c, 0, 79, 0
3, 60813, Note_on_c, 0, 82, 67
3, 60993, Note_on_c, 0, 82, 0
3, 61045, Note_on_c, 0, 80, 70
3, 61049, Note_on_c, 0, 51, 46
3, 61073, Note_on_c, 0, 82, 31
3, 61109, Note_on_c, 0, 82, 0
3, 61225, Note_on_c, 0, 80, 0
3, 61289, Note_on_c, 0, 79, 82
3, 61473, Note_on_c, 0, 79, 0
3, 61525, Note_on_c, 0, 80, 89
3, 61537, Note_on_c, 0, 55, 55
3, 61549, Note_on_c, 0, 51, 0
3, 61557, Note_on_c, 0, 44, 0
3, 61645, Note_on_c, 0, 55, 0
3, 61689, Note_on_c, 0, 80, 0
3, 61761, Note_on_c, 0, 82, 90
3, 61969, Note_on_c, 0, 82, 0
3, 61985, Control_c, 0, 64, 0
3, 62009, Note_on_c, 0, 80, 85
3, 62009, Note_on_c, 0, 53, 56
3, 62025, Note_on_c, 0, 82, 57
3, 62201, Note_on_c, 0, 82, 0
3, 62213, Note_on_c, 0, 80, 0
3, 62237, Note_on_c, 0, 77, 68
3, 62413, Note_on_c, 0, 77, 0
3, 62453, Note_on_c, 0, 61, 45
3, 62453, Note_on_c, 0, 73, 55
3, 62601, Note_on_c, 0, 73, 0
3, 62697, Note_on_c, 0, 72, 55
3, 62725, Note_on_c, 0, 61, 0
3, 62853, Note_on_c, 0, 72, 0
3, 62905, Note_on_c, 0, 70, 52
3, 62925, Note_on_c, 0, 61, 39
3, 63133, Note_on_c, 0, 53, 0
3, 63141, Note_on_c, 0, 68, 56
3, 63173, Note_on_c, 0, 70, 0
3, 63309, Note_on_c, 0, 61, 0
3, 63337, Note_on_c, 0, 68, 0
3, 63373, Note_on_c, 0, 52, 38
3, 63377, Note_on_c, 0, 67, 50
3, 63605, Note_on_c, 0, 67, 0
3, 63869, Note_on_c, 0, 60, 36
3, 63877, Note_on_c, 0, 58, 39
3, 63945, Note_on_c, 0, 60, 0
3, 63949, Note_on_c, 0, 84, 39
3, 64013, Note_on_c, 0, 84, 0
3, 64017, Note_on_c, 0, 85, 68
3, 64033, Note_on_c, 0, 58, 0
3, 64101, Note_on_c, 0, 85, 0
3, 64145, Note_on_c, 0, 83, 51
3, 64173, Note_on_c, 0, 83, 0
3, 64217, Note_on_c, 0, 82, 57
3, 64289, Note_on_c, 0, 79, 58
3, 64293, Note_on_c, 0, 82, 0
3, 64313, Note_on_c, 0, 79, 0
3, 64373, Note_on_c, 0, 76, 47
3, 64389, Note_on_c, 0, 60, 27
3, 64397, Note_on_c, 0, 58, 36
3, 64405, Note_on_c, 0, 76, 0
3, 64473, Note_on_c, 0, 73, 57
3, 64541, Note_on_c, 0, 73, 0
3, 64585, Note_on_c, 0, 72, 29
3, 64629, Note_on_c, 0, 72, 0
3, 64681, Note_on_c, 0, 71, 38
3, 64717, Note_on_c, 0, 71, 0
3, 64721, Note_on_c, 0, 52, 0
3, 64913, Note_on_c, 0, 51, 48
3, 64937, Note_on_c, 0, 58, 0
3, 64949, Note_on_c, 0, 60, 0
3, 65253, Note_on_c, 0, 89, 70
3, 65257, Note_on_c, 0, 88, 75
3, 65285, Note_on_c, 0, 88, 0
3, 65325, Note_on_c, 0, 89, 0
3, 65345, Note_on_c, 0, 90, 80
3, 65413, Note_on_c, 0, 60, 52
3, 65445, Note_on_c, 0, 89, 55
3, 65469, Note_on_c, 0, 90, 0
3, 65497, Note_on_c, 0, 89, 0
3, 65509, Note_on_c, 0, 88, 68
3, 65541, Note_on_c, 0, 88, 0
3, 65645, Note_on_c, 0, 60, 0
3, 65669, Note_on_c, 0, 83, 43
3, 65729, Note_on_c, 0, 83, 0
3, 65753, Note_on_c, 0, 81, 66
3, 65781, Note_on_c, 0, 81, 0
3, 65861, Note_on_c, 0, 78, 62
3, 65937, Note_on_c, 0, 77, 57
3, 65945, Note_on_c, 0, 78, 0
3, 65993, Note_on_c, 0, 60, 33
3, 66001, Note_on_c, 0, 77, 0
3, 66029, Note_on_c, 0, 76, 47
3, 66041, Note_on_c, 0, 57, 22
3, 66109, Note_on_c, 0, 76, 0
3, 66145, Note_on_c, 0, 75, 54
3, 66233, Note_on_c, 0, 75, 0
3, 66253, Note_on_c, 0, 74, 56
3, 66301, Note_on_c, 0, 60, 0
3, 66353, Note_on_c, 0, 74, 0
3, 66377, Note_on_c, 0, 57, 0
3, 66377, Note_on_c, 0, 73, 63
3, 66445, Note_on_c, 0, 51, 0
3, 66485, Note_on_c, 0, 73, 0
3, 66525, Note_on_c, 0, 75, 81
3, 66533, Note_on_c, 0, 49, 60
3, 66733, Note_on_c, 0, 75, 0
3, 66753, Note_on_c, 0, 72, 77
3, 66965, Note_on_c, 0, 72, 0
3, 67057, Note_on_c, 0, 60, 36
3, 67081, Note_on_c, 0, 56, 40
3, 67085, Note_on_c, 0, 69, 80
3, 67309, Note_on_c, 0, 69, 0
3, 67333, Note_on_c, 0, 60, 0
3, 67337, Note_on_c, 0, 70, 69
3, 67357, Control_c, 0, 64, 127
3, 67477, Note_on_c, 0, 56, 0
3, 67549, Note_on_c, 0, 70, 0
3, 67569, Control_c, 0, 64, 0
3, 67585, Note_on_c, 0, 65, 50
3, 67613, Note_on_c, 0, 56, 39
3, 67705, Control_c, 0, 64, 127
3, 67797, Note_on_c, 0, 49, 0
3, 67853, Note_on_c, 0, 61, 52
3, 67869, Note_on_c, 0, 49, 46
3, 68013, Note_on_c, 0, 49, 0
3, 68025, Note_on_c, 0, 65, 0
3, 68085, Note_on_c, 0, 61, 0
3, 68109, Note_on_c, 0, 56, 0
3, 68109, Control_c, 0, 64, 0
3, 68133, Note_on_c, 0, 62, 51
3, 68149, Note_on_c, 0, 50, 40
3, 68417, Note_on_c, 0, 63, 63
3, 68437, Note_on_c, 0, 62, 0
3, 68493, Note_on_c, 0, 60, 22
3, 68589, Note_on_c, 0, 60, 0
3, 68657, Note_on_c, 0, 64, 65
3, 68677, Note_on_c, 0, 63, 0
3, 68717, Note_on_c, 0, 60, 39
3, 68733, Note_on_c, 0, 65, 55
3, 68869, Note_on_c, 0, 64, 0
3, 68921, Note_on_c, 0, 65, 0
3, 68969, Note_on_c, 0, 65, 75
3, 69097, Note_on_c, 0, 50, 0
3, 69205, Note_on_c, 0, 65, 0
3, 69229, Note_on_c, 0, 50, 43
3, 69261, Note_on_c, 0, 65, 72
3, 69461, Control_c, 0, 64, 127
3, 69473, Note_on_c, 0, 65, 0
3, 69481, Note_on_c, 0, 50, 0
3, 69533, Note_on_c, 0, 65, 67
3, 69713, Note_on_c, 0, 65, 0
3, 69733, Control_c, 0, 64, 0
3, 69789, Note_on_c, 0, 60, 0
3, 69797, Note_on_c, 0, 65, 60
3, 69813, Note_on_c, 0, 51, 43
3, 70009, Note_on_c, 0, 65, 0
3, 70061, Note_on_c, 0, 68, 63
3, 70333, Note_on_c, 0, 60, 58
3, 70345, Note_on_c, 0, 68, 0
3, 70465, Note_on_c, 0, 60, 0
3, 70485, Note_on_c, 0, 63, 58
3, 70569, Note_on_c, 0, 63, 0
3, 70569, Control_c, 0, 64, 127
3, 70609, Note_on_c, 0, 65, 65
3, 70697, Note_on_c, 0, 65, 0
3, 70717, Note_on_c, 0, 68, 65
3, 70809, Note_on_c, 0, 68, 0
3, 70873, Note_on_c, 0, 71, 49
3, 70881, Note_on_c, 0, 72, 42
3, 70901, Note_on_c, 0, 60, 45
3, 70901, Control_c, 0, 64, 0
3, 70917, Note_on_c, 0, 71, 0
3, 70957, Note_on_c, 0, 72, 0
3, 71017, Control_c, 0, 64, 127
3, 71113, Note_on_c, 0, 77, 62
3, 71205, Note_on_c, 0, 77, 0
3, 71225, Note_on_c, 0, 80, 60
3, 71301, Note_on_c, 0, 51, 0
3, 71357, Note_on_c, 0, 80, 0
3, 71401, Note_on_c, 0, 82, 70
3, 71425, Note_on_c, 0, 51, 51
3, 71429, Note_on_c, 0, 60, 0
3, 71429, Control_c, 0, 64, 0
3, 71581, Note_on_c, 0, 82, 0
3, 71589, Note_on_c, 0, 84, 61
3, 71657, Control_c, 0, 64, 127
3, 71725, Note_on_c, 0, 84, 0
3, 71769, Note_on_c, 0, 79, 56
3, 72033, Control_c, 0, 64, 72
3, 72037, Control_c, 0, 64, 0
3, 72045, Note_on_c, 0, 75, 44
3, 72061, Note_on_c, 0, 61, 33
3, 72073, Note_on_c, 0, 79, 0
3, 72093, Note_on_c, 0, 58, 29
3, 72217, Control_c, 0, 64, 127
3, 72409, Note_on_c, 0, 61, 0
3, 72441, Note_on_c, 0, 58, 0
3, 72629, Note_on_c, 0, 82, 56
3, 72649, Note_on_c, 0, 61, 26
3, 72661, Note_on_c, 0, 58, 32
3, 72741, Note_on_c, 0, 61, 0
3, 72837, Note_on_c, 0, 58, 0
3, 72881, Note_on_c, 0, 82, 0
3, 72897, Note_on_c, 0, 51, 0
3, 72937, Note_on_c, 0, 75, 0
3, 72993, Note_on_c, 0, 82, 62
3, 73217, Note_on_c, 0, 82, 0
3, 73297, Control_c, 0, 64, 0
3, 73321, Note_on_c, 0, 83, 66
3, 73325, Note_on_c, 0, 44, 42
3, 73593, Note_on_c, 0, 83, 0
3, 73621, Note_on_c, 0, 84, 74
3, 73641, Note_on_c, 0, 51, 39
3, 73713, Control_c, 0, 64, 127
3, 73845, Note_on_c, 0, 84, 0
3, 73941, Note_on_c, 0, 82, 72
3, 73953, Note_on_c, 0, 44, 0
3, 73953, Note_on_c, 0, 56, 49
3, 73957, Note_on_c, 0, 51, 0
3, 73997, Note_on_c, 0, 56, 0
3, 74225, Note_on_c, 0, 60, 52
3, 74505, Note_on_c, 0, 63, 54
3, 74517, Note_on_c, 0, 72, 63
3, 74593, Note_on_c, 0, 60, 0
3, 74673, Note_on_c, 0, 63, 0
3, 74709, Note_on_c, 0, 82, 0
3, 74761, Note_on_c, 0, 72, 0
3, 74785, Note_on_c, 0, 60, 49
3, 74785, Note_on_c, 0, 84, 82
3, 74889, Note_on_c, 0, 84, 0
3, 75049, Control_c, 0, 64, 0
3, 75077, Note_on_c, 0, 60, 0
3, 75089, Note_on_c, 0, 85, 92
3, 75101, Note_on_c, 0, 53, 56
3, 75377, Note_on_c, 0, 73, 58
3, 75421, Note_on_c, 0, 56, 39
3, 75513, Control_c, 0, 64, 127
3, 75625, Note_on_c, 0, 73, 0
3, 75657, Note_on_c, 0, 85, 0
3, 75677, Note_on_c, 0, 77, 58
3, 75689, Note_on_c, 0, 63, 36
3, 75689, Note_on_c, 0, 73, 27
3, 75701, Control_c, 0, 64, 0
3, 75833, Note_on_c, 0, 53, 0
3, 75845, Note_on_c, 0, 73, 0
3, 75873, Control_c, 0, 64, 127
3, 75957, Note_on_c, 0, 77, 0
3, 75957, Note_on_c, 0, 53, 55
3, 75977, Note_on_c, 0, 73, 60
3, 76073, Note_on_c, 0, 63, 0
3, 76133, Note_on_c, 0, 73, 0
3, 76197, Control_c, 0, 64, 0
3, 76249, Note_on_c, 0, 63, 55
3, 76249, Note_on_c, 0, 87, 87
3, 76285, Note_on_c, 0, 53, 0
3, 76321, Control_c, 0, 64, 127
3, 76469, Note_on_c, 0, 63, 0
3, 76497, Note_on_c, 0, 87, 0
3, 76509, Note_on_c, 0, 53, 47
3, 76533, Note_on_c, 0, 73, 44
3, 76621, Note_on_c, 0, 53, 0
3, 76749, Note_on_c, 0, 73, 0
3, 76845, Note_on_c, 0, 56, 0
3, 76845, Note_on_c, 0, 52, 56
3, 76861, Note_on_c, 0, 85, 40
3, 76885, Control_c, 0, 64, 0
3, 76921, Note_on_c, 0, 85, 0
3, 76957, Note_on_c, 0, 85, 40
3, 77113, Note_on_c, 0, 85, 0
3, 77157, Note_on_c, 0, 58, 53
3, 77173, Note_on_c, 0, 84, 68
3, 77225, Control_c, 0, 64, 127
3, 77457, Note_on_c, 0, 72, 59
3, 77461, Note_on_c, 0, 84, 0
3, 77477, Note_on_c, 0, 60, 36
3, 77549, Note_on_c, 0, 58, 0
3, 77713, Note_on_c, 0, 72, 0
3, 77757, Note_on_c, 0, 58, 49
3, 77765, Note_on_c, 0, 60, 0
3, 78041, Note_on_c, 0, 64, 57
3, 78081, Note_on_c, 0, 60, 30
3, 78089, Note_on_c, 0, 52, 0
3, 78165, Note_on_c, 0, 64, 0
3, 78337, Note_on_c, 0, 52, 54
3, 78357, Note_on_c, 0, 78, 87
3, 78437, Note_on_c, 0, 52, 0
3, 78541, Note_on_c, 0, 78, 0
3, 78637, Note_on_c, 0, 60, 0
3, 78641, Control_c, 0, 64, 0
3, 78661, Note_on_c, 0, 58, 0
3, 78661, Note_on_c, 0, 51, 58
3, 78661, Note_on_c, 0, 77, 107
3, 78825, Control_c, 0, 64, 127
3, 78873, Note_on_c, 0, 77, 0
3, 78953, Note_on_c, 0, 72, 80
3, 78969, Note_on_c, 0, 57, 49
3, 79189, Control_c, 0, 64, 0
3, 79245, Note_on_c, 0, 69, 68
3, 79257, Note_on_c, 0, 65, 58
3, 79257, Note_on_c, 0, 60, 49
3, 79365, Control_c, 0, 64, 127
3, 79429, Note_on_c, 0, 57, 0
3, 79453, Note_on_c, 0, 65, 0
3, 79533, Note_on_c, 0, 57, 46
3, 79545, Note_on_c, 0, 65, 54
3, 79553, Note_on_c, 0, 60, 0
3, 79565, Note_on_c, 0, 69, 0
3, 79573, Note_on_c, 0, 72, 0
3, 79849, Note_on_c, 0, 77, 79
3, 79857, Control_c, 0, 64, 0
3, 79857, Note_on_c, 0, 60, 44
3, 79961, Control_c, 0, 64, 127
3, 80001, Note_on_c, 0, 51, 0
3, 80141, Note_on_c, 0, 77, 0
3, 80161, Note_on_c, 0, 75, 68
3, 80165, Note_on_c, 0, 51, 43
3, 80237, Note_on_c, 0, 60, 0
3, 80253, Note_on_c, 0, 57, 0
3, 80361, Note_on_c, 0, 51, 0
3, 80441, Note_on_c, 0, 75, 0
3, 80473, Control_c, 0, 64, 0
3, 80481, Note_on_c, 0, 73, 63
3, 80497, Note_on_c, 0, 49, 46
3, 80737, Control_c, 0, 64, 127
3, 80749, Note_on_c, 0, 56, 43
3, 80793, Note_on_c, 0, 73, 0
3, 80805, Note_on_c, 0, 72, 58
3, 81029, Control_c, 0, 64, 0
3, 81053, Note_on_c, 0, 73, 80
3, 81061, Note_on_c, 0, 72, 0
3, 81073, Note_on_c, 0, 60, 39
3, 81149, Control_c, 0, 64, 127
3, 81173, Note_on_c, 0, 56, 0
3, 81289, Note_on_c, 0, 65, 0
3, 81313, Note_on_c, 0, 68, 67
3, 81325, Note_on_c, 0, 73, 0
3, 81349, Note_on_c, 0, 56, 40
3, 81361, Note_on_c, 0, 60, 0
3, 81577, Control_c, 0, 64, 88
3, 81577, Control_c, 0, 64, 0
3, 81585, Note_on_c, 0, 68, 0
3, 81597, Note_on_c, 0, 72, 81
3, 81621, Note_on_c, 0, 60, 46
3, 81677, Control_c, 0, 64, 56
3, 81681, Control_c, 0, 64, 127
3, 81701, Note_on_c, 0, 49, 0
3, 81789, Note_on_c, 0, 60, 0
3, 81857, Note_on_c, 0, 72, 0
3, 81881, Note_on_c, 0, 49, 48
3, 81881, Note_on_c, 0, 70, 72
3, 82029, Note_on_c, 0, 49, 0
3, 82149, Control_c, 0, 64, 0
3, 82169, Note_on_c, 0, 56, 0
3, 82197, Note_on_c, 0, 70, 0
3, 82201, Note_on_c, 0, 68, 56
3, 82213, Note_on_c, 0, 50, 49
3, 82269, Control_c, 0, 64, 127
3, 82461, Note_on_c, 0, 68, 0
3, 82609, Note_on_c, 0, 56, 42
3, 82613, Note_on_c, 0, 60, 34
3, 82901, Note_on_c, 0, 89, 84
3, 82905, Note_on_c, 0, 60, 0
3, 82933, Note_on_c, 0, 56, 0
3, 82993, Note_on_c, 0, 89, 0
3, 83009, Note_on_c, 0, 92, 75
3, 83113, Note_on_c, 0, 89, 65
3, 83161, Note_on_c, 0, 92, 0
3, 83169, Control_c, 0, 64, 0
3, 83193, Note_on_c, 0, 89, 0
3, 83209, Note_on_c, 0, 56, 38
3, 83213, Note_on_c, 0, 86, 66
3, 83217, Note_on_c, 0, 59, 33
3, 83269, Note_on_c, 0, 86, 0
3, 83313, Note_on_c, 0, 59, 0
3, 83313, Note_on_c, 0, 85, 65
3, 83397, Note_on_c, 0, 84, 64
3, 83417, Note_on_c, 0, 85, 0
3, 83449, Note_on_c, 0, 84, 0
3, 83457, Control_c, 0, 64, 127
3, 83485, Note_on_c, 0, 83, 57
3, 83517, Note_on_c, 0, 83, 0
3, 83549, Note_on_c, 0, 56, 0
3, 83569, Note_on_c, 0, 82, 60
3, 83637, Note_on_c, 0, 82, 0
3, 83657, Note_on_c, 0, 81, 65
3, 83737, Note_on_c, 0, 81, 0
3, 83741, Note_on_c, 0, 80, 63
3, 83813, Control_c, 0, 64, 0
3, 83841, Note_on_c, 0, 80, 0
3, 83841, Note_on_c, 0, 77, 63
3, 83881, Note_on_c, 0, 59, 32
3, 83897, Note_on_c, 0, 56, 28
3, 84097, Note_on_c, 0, 77, 0
3, 84101, Control_c, 0, 64, 127
3, 84117, Note_on_c, 0, 74, 59
3, 84261, Note_on_c, 0, 74, 0
3, 84273, Note_on_c, 0, 73, 56
3, 84381, Note_on_c, 0, 73, 0
3, 84409, Note_on_c, 0, 72, 52
3, 84457, Note_on_c, 0, 50, 0
3, 84493, Note_on_c, 0, 72, 0
3, 84533, Note_on_c, 0, 71, 50
3, 84633, Note_on_c, 0, 71, 0
3, 84645, Note_on_c, 0, 70, 45
3, 84689, Note_on_c, 0, 70, 0
3, 84853, Control_c, 0, 64, 0
3, 84869, Note_on_c, 0, 70, 60
3, 84917, Note_on_c, 0, 59, 0
3, 84917, Note_on_c, 0, 56, 0
3, 84929, Note_on_c, 0, 51, 33
3, 85121, Note_on_c, 0, 68, 55
3, 85305, Note_on_c, 0, 68, 0
3, 85305, Note_on_c, 0, 70, 0
3, 85373, Note_on_c, 0, 65, 55
3, 85385, Note_on_c, 0, 60, 40
3, 85425, Note_on_c, 0, 56, 37
3, 85473, Control_c, 0, 64, 127
3, 85557, Note_on_c, 0, 60, 0
3, 85585, Note_on_c, 0, 65, 0
3, 85657, Note_on_c, 0, 63, 54
3, 85661, Note_on_c, 0, 56, 0
3, 85889, Note_on_c, 0, 63, 0
3, 85981, Note_on_c, 0, 63, 50
3, 85993, Note_on_c, 0, 56, 43
3, 86173, Note_on_c, 0, 51, 0
3, 86281, Note_on_c, 0, 63, 0
3, 86305, Note_on_c, 0, 51, 49
3, 86337, Note_on_c, 0, 63, 48
3, 86413, Note_on_c, 0, 56, 0
3, 86477, Note_on_c, 0, 51, 0
3, 86601, Note_on_c, 0, 63, 0
3, 86965, Note_on_c, 0, 27, 50
3, 86969, Note_on_c, 0, 63, 56
3, 86989, Control_c, 0, 64, 0
3, 87097, Control_c, 0, 64, 127
3, 87137, Note_on_c, 0, 27, 0
3, 87233, Note_on_c, 0, 63, 0
3, 87369, Note_on_c, 0, 54, 71
3, 87385, Note_on_c, 0, 63, 42
3, 87421, Note_on_c, 0, 63, 0
3, 87649, Note_on_c, 0, 54, 0
3, 87693, Control_c, 0, 64, 0
3, 87709, Note_on_c, 0, 55, 66
3, 87725, Note_on_c, 0, 39, 39
3, 87729, Note_on_c, 0, 51, 36
3, 87961, Note_on_c, 0, 55, 0
3, 87981, Note_on_c, 0, 51, 0
3, 87997, Control_c, 0, 64, 127
3, 88013, Note_on_c, 0, 56, 59
3, 88013, Note_on_c, 0, 61, 48
3, 88033, Note_on_c, 0, 46, 38
3, 88085, Note_on_c, 0, 61, 0
3, 88281, Note_on_c, 0, 56, 0
3, 88317, Note_on_c, 0, 58, 61
3, 88329, Note_on_c, 0, 51, 42
3, 88465, Note_on_c, 0, 39, 0
3, 88597, Note_on_c, 0, 58, 0
3, 88657, Note_on_c, 0, 39, 33
3, 88665, Note_on_c, 0, 61, 58
3, 88681, Note_on_c, 0, 46, 0
3, 88709, Note_on_c, 0, 39, 0
3, 88929, Note_on_c, 0, 61, 0
3, 88945, Note_on_c, 0, 51, 0
3, 89041, Control_c, 0, 64, 0
3, 89057, Note_on_c, 0, 61, 56
3, 89093, Note_on_c, 0, 44, 34
3, 89253, Control_c, 0, 64, 127
3, 89509, Note_on_c, 0, 51, 38
3, 89901, Note_on_c, 0, 61, 0
3, 89961, Control_c, 0, 64, 0
3, 90001, Note_on_c, 0, 60, 49
3, 90005, Note_on_c, 0, 56, 52
3, 90113, Control_c, 0, 64, 127
3, 90217, Note_on_c, 0, 51, 0
3, 90281, Note_on_c, 0, 56, 0
3, 90321, Note_on_c, 0, 60, 0
3, 90417, Note_on_c, 0, 51, 40
3, 90885, Note_on_c, 0, 56, 46
3, 91105, Note_on_c, 0, 51, 0
3, 91117, Note_on_c, 0, 44, 0
3, 91229, Note_on_c, 0, 56, 0
3, 91637, Note_on_c, 0, 75, 66
3, 92073, Note_on_c, 0, 75, 0
3, 92097, Control_c, 0, 64, 0
3, 92105, Note_on_c, 0, 74, 58
3, 92125, Note_on_c, 0, 56, 39
3, 92413, Note_on_c, 0, 74, 0
3, 92421, Control_c, 0, 64, 127
3, 92425, Note_on_c, 0, 73, 58
3, 92661, Control_c, 0, 64, 0
3, 92677, Note_on_c, 0, 73, 0
3, 92693, Note_on_c, 0, 58, 37
3, 92701, Note_on_c, 0, 65, 35
3, 92701, Note_on_c, 0, 74, 59
3, 92821, Control_c, 0, 64, 40
3, 92825, Control_c, 0, 64, 127
3, 92945, Note_on_c, 0, 74, 0
3, 92949, Note_on_c, 0, 77, 68
3, 93017, Note_on_c, 0, 65, 0
3, 93145, Note_on_c, 0, 77, 0
3, 93201, Note_on_c, 0, 65, 40
3, 93217, Note_on_c, 0, 84, 84
3, 93341, Note_on_c, 0, 56, 0
3, 93489, Note_on_c, 0, 84, 0
3, 93489, Note_on_c, 0, 82, 72
3, 93501, Note_on_c, 0, 56, 40
3, 93697, Note_on_c, 0, 56, 0
3, 93709, Note_on_c, 0, 65, 0
3, 93745, Note_on_c, 0, 58, 0
3, 93753, Control_c, 0, 64, 0
3, 93757, Note_on_c, 0, 82, 0
3, 93797, Note_on_c, 0, 80, 57
3, 93825, Note_on_c, 0, 55, 40
3, 94017, Note_on_c, 0, 80, 0
3, 94061, Note_on_c, 0, 79, 50
3, 94281, Note_on_c, 0, 79, 0
3, 94297, Note_on_c, 0, 63, 39
3, 94317, Note_on_c, 0, 82, 58
3, 94345, Note_on_c, 0, 58, 27
3, 94353, Note_on_c, 0, 82, 0
3, 94393, Note_on_c, 0, 63, 0
3, 94409, Note_on_c, 0, 58, 0
3, 94573, Note_on_c, 0, 75, 42
3, 94761, Note_on_c, 0, 75, 0
3, 94805, Note_on_c, 0, 63, 39
3, 94809, Note_on_c, 0, 79, 57
3, 94825, Note_on_c, 0, 58, 37
3, 94853, Note_on_c, 0, 79, 0
3, 94929, Note_on_c, 0, 55, 0
3, 95061, Note_on_c, 0, 73, 45
3, 95237, Note_on_c, 0, 73, 0
3, 95285, Note_on_c, 0, 63, 0
3, 95285, Note_on_c, 0, 58, 0
3, 95289, Note_on_c, 0, 56, 41
3, 95293, Note_on_c, 0, 75, 50
3, 95381, Note_on_c, 0, 75, 0
3, 95537, Note_on_c, 0, 70, 40
3, 95645, Note_on_c, 0, 70, 0
3, 95761, Note_on_c, 0, 74, 53
3, 95789, Note_on_c, 0, 58, 26
3, 95789, Note_on_c, 0, 62, 36
3, 95821, Note_on_c, 0, 74, 0
3, 95837, Note_on_c, 0, 62, 0
3, 95881, Note_on_c, 0, 58, 0
3, 96009, Note_on_c, 0, 68, 46
3, 96113, Note_on_c, 0, 68, 0
3, 96225, Note_on_c, 0, 58, 45
3, 96233, Note_on_c, 0, 70, 48
3, 96241, Note_on_c, 0, 65, 22
3, 96241, Note_on_c, 0, 62, 35
3, 96297, Note_on_c, 0, 65, 0
3, 96345, Note_on_c, 0, 70, 0
3, 96353, Note_on_c, 0, 62, 0
3, 96357, Note_on_c, 0, 56, 0
3, 96477, Note_on_c, 0, 66, 36
3, 96641, Note_on_c, 0, 66, 0
3, 96677, Note_on_c, 0, 58, 0
3, 96677, Note_on_c, 0, 67, 45
3, 96709, Note_on_c, 0, 55, 29
3, 96881, Note_on_c, 0, 67, 0
3, 96905, Note_on_c, 0, 70, 51
3, 96969, Note_on_c, 0, 70, 0
3, 97145, Note_on_c, 0, 63, 35
3, 97161, Note_on_c, 0, 75, 39
3, 97173, Note_on_c, 0, 58, 36
3, 97373, Note_on_c, 0, 58, 0
3, 97429, Note_on_c, 0, 63, 0
3, 97581, Note_on_c, 0, 75, 0
3, 97633, Control_c, 0, 64, 127
3, 97661, Note_on_c, 0, 63, 34
3, 97661, Note_on_c, 0, 75, 49
3, 97665, Note_on_c, 0, 58, 38
3, 97821, Note_on_c, 0, 55, 0
3, 98125, Note_on_c, 0, 58, 0
3, 98137, Note_on_c, 0, 63, 0
3, 98137, Control_c, 0, 64, 0
3, 98149, Note_on_c, 0, 56, 64
3, 98589, Note_on_c, 0, 62, 42
3, 98625, Note_on_c, 0, 58, 36
3, 98781, Note_on_c, 0, 67, 58
3, 98797, Note_on_c, 0, 75, 0
3, 98885, Note_on_c, 0, 58, 0
3, 98893, Note_on_c, 0, 62, 0
3, 98921, Note_on_c, 0, 68, 70
3, 98937, Note_on_c, 0, 67, 0
3, 99065, Note_on_c, 0, 70, 67
3, 99101, Note_on_c, 0, 68, 0
3, 99101, Note_on_c, 0, 58, 43
3, 99113, Note_on_c, 0, 62, 30
3, 99173, Note_on_c, 0, 70, 0
3, 99213, Note_on_c, 0, 72, 68
3, 99313, Note_on_c, 0, 72, 0
3, 99349, Note_on_c, 0, 74, 77
3, 99381, Note_on_c, 0, 56, 0
3, 99457, Note_on_c, 0, 74, 0
3, 99501, Note_on_c, 0, 62, 0
3, 99517, Note_on_c, 0, 75, 67
3, 99529, Note_on_c, 0, 55, 50
3, 99605, Note_on_c, 0, 58, 0
3, 99609, Note_on_c, 0, 75, 0
3, 99669, Note_on_c, 0, 77, 58
3, 99721, Note_on_c, 0, 77, 0
3, 99817, Note_on_c, 0, 78, 60
3, 99925, Note_on_c, 0, 78, 0
3, 99973, Note_on_c, 0, 63, 39
3, 99981, Note_on_c, 0, 79, 50
3, 99993, Note_on_c, 0, 58, 36
3, 100109, Note_on_c, 0, 79, 0
3, 100129, Note_on_c, 0, 82, 63
3, 100201, Note_on_c, 0, 82, 0
3, 100221, Note_on_c, 0, 63, 0
3, 100233, Note_on_c, 0, 58, 0
3, 100301, Note_on_c, 0, 87, 85
3, 100401, Note_on_c, 0, 87, 0
3, 100477, Note_on_c, 0, 63, 49
3, 100477, Note_on_c, 0, 91, 117
3, 100513, Note_on_c, 0, 58, 39
3, 100649, Note_on_c, 0, 55, 0
3, 100693, Note_on_c, 0, 91, 0
3, 100733, Note_on_c, 0, 87, 84
3, 100945, Note_on_c, 0, 87, 0
3, 100957, Note_on_c, 0, 63, 0
3, 100969, Note_on_c, 0, 58, 0
3, 100977, Note_on_c, 0, 56, 47
3, 100985, Note_on_c, 0, 89, 59
3, 101133, Note_on_c, 0, 56, 0
3, 101153, Note_on_c, 0, 89, 0
3, 101213, Note_on_c, 0, 86, 62
3, 101289, Control_c, 0, 64, 127
3, 101409, Note_on_c, 0, 86, 0
3, 101441, Note_on_c, 0, 34, 56
3, 101457, Note_on_c, 0, 82, 52
3, 101469, Note_on_c, 0, 34, 0
3, 101937, Note_on_c, 0, 58, 42
3, 102033, Note_on_c, 0, 58, 0
3, 102153, Note_on_c, 0, 82, 0
3, 102193, Note_on_c, 0, 80, 48
3, 102385, Note_on_c, 0, 80, 0
3, 102421, Control_c, 0, 64, 0
3, 102461, Note_on_c, 0, 79, 45
3, 102465, Note_on_c, 0, 51, 39
3, 102473, Note_on_c, 0, 58, 34
3, 102733, Note_on_c, 0, 91, 41
3, 102841, Control_c, 0, 64, 127
3, 102933, Note_on_c, 0, 91, 0
3, 103057, Note_on_c, 0, 63, 41
3, 103065, Note_on_c, 0, 91, 55
3, 103305, Note_on_c, 0, 91, 0
3, 103329, Note_on_c, 0, 63, 0
3, 103345, Note_on_c, 0, 87, 57
3, 103449, Note_on_c, 0, 58, 0
3, 103497, Note_on_c, 0, 87, 0
3, 103609, Note_on_c, 0, 79, 0
3, 103661, Note_on_c, 0, 87, 57
3, 103677, Note_on_c, 0, 58, 37
3, 103881, Note_on_c, 0, 58, 0
3, 103921, Note_on_c, 0, 87, 0
3, 103921, Note_on_c, 0, 51, 0
3, 103949, Note_on_c, 0, 84, 54
3, 104105, Note_on_c, 0, 84, 0
3, 104289, Note_on_c, 0, 84, 56
3, 104297, Note_on_c, 0, 34, 54
3, 104357, Control_c, 0, 64, 0
3, 104477, Control_c, 0, 64, 127
3, 104493, Note_on_c, 0, 34, 0
3, 104581, Note_on_c, 0, 86, 70
3, 104593, Note_on_c, 0, 84, 0
3, 104769, Note_on_c, 0, 86, 0
3, 104865, Note_on_c, 0, 86, 83
3, 104873, Note_on_c, 0, 56, 52
3, 105089, Note_on_c, 0, 86, 0
3, 105117, Note_on_c, 0, 82, 82
3, 105309, Note_on_c, 0, 82, 0
3, 105397, Note_on_c, 0, 65, 52
3, 105397, Note_on_c, 0, 58, 49
3, 105397, Note_on_c, 0, 82, 94
3, 105417, Note_on_c, 0, 62, 45
3, 105641, Note_on_c, 0, 82, 0
3, 105713, Note_on_c, 0, 87, 89
3, 105913, Note_on_c, 0, 62, 0
3, 105925, Note_on_c, 0, 65, 0
3, 105949, Note_on_c, 0, 87, 0
3, 105989, Note_on_c, 0, 56, 0
3, 106001, Note_on_c, 0, 58, 0
3, 106025, Control_c, 0, 64, 0
3, 106041, Note_on_c, 0, 87, 85
3, 106073, Note_on_c, 0, 55, 41
3, 106173, Control_c, 0, 64, 127
3, 106285, Note_on_c, 0, 82, 72
3, 106429, Note_on_c, 0, 82, 0
3, 106461, Note_on_c, 0, 87, 0
3, 106521, Note_on_c, 0, 82, 66
3, 106533, Note_on_c, 0, 63, 36
3, 106541, Note_on_c, 0, 58, 36
3, 106729, Note_on_c, 0, 82, 0
3, 106753, Note_on_c, 0, 79, 81
3, 106769, Note_on_c, 0, 58, 0
3, 106789, Note_on_c, 0, 63, 0
3, 106905, Note_on_c, 0, 79, 0
3, 106989, Control_c, 0, 64, 0
3, 107005, Note_on_c, 0, 79, 72
3, 107009, Note_on_c, 0, 63, 49
3, 107017, Note_on_c, 0, 58, 43
3, 107049, Control_c, 0, 64, 127
3, 107105, Note_on_c, 0, 55, 0
3, 107265, Note_on_c, 0, 91, 78
3, 107417, Note_on_c, 0, 91, 0
3, 107489, Note_on_c, 0, 58, 0
3, 107493, Control_c, 0, 64, 0
3, 107557, Note_on_c, 0, 63, 0
3, 107565, Note_on_c, 0, 91, 70
3, 107565, Note_on_c, 0, 56, 50
3, 107709, Control_c, 0, 64, 127
3, 107765, Note_on_c, 0, 91, 0
3, 107773, Note_on_c, 0, 79, 0
3, 107825, Note_on_c, 0, 89, 48
3, 107985, Control_c, 0, 64, 0
3, 108029, Note_on_c, 0, 89, 0
3, 108057, Note_on_c, 0, 65, 38
3, 108069, Note_on_c, 0, 86, 56
3, 108081, Control_c, 0, 64, 127
3, 108089, Note_on_c, 0, 58, 31
3, 108113, Note_on_c, 0, 65, 0
3, 108197, Note_on_c, 0, 58, 0
3, 108213, Note_on_c, 0, 56, 0
3, 108317, Note_on_c, 0, 86, 0
3, 108349, Note_on_c, 0, 82, 56
3, 108605, Control_c, 0, 64, 0
3, 108609, Note_on_c, 0, 82, 0
3, 108641, Note_on_c, 0, 80, 50
3, 108645, Note_on_c, 0, 56, 35
3, 108653, Note_on_c, 0, 46, 36
3, 108709, Control_c, 0, 64, 127
3, 108841, Note_on_c, 0, 80, 0
3, 108857, Note_on_c, 0, 46, 0
3, 108933, Note_on_c, 0, 78, 43
3, 108949, Note_on_c, 0, 56, 0
3, 109165, Note_on_c, 0, 78, 0
3, 109201, Control_c, 0, 64, 0
3, 109213, Note_on_c, 0, 79, 49
3, 109221, Note_on_c, 0, 58, 31
3, 109233, Note_on_c, 0, 51, 35
3, 109457, Control_c, 0, 64, 127
3, 109481, Note_on_c, 0, 82, 57
3, 109489, Note_on_c, 0, 79, 0
3, 109561, Note_on_c, 0, 51, 0
3, 109749, Note_on_c, 0, 58, 0
3, 109757, Note_on_c, 0, 82, 0
3, 109757, Control_c, 0, 64, 0
3, 109773, Note_on_c, 0, 87, 54
3, 109777, Note_on_c, 0, 63, 36
3, 109809, Note_on_c, 0, 55, 39
3, 109873, Control_c, 0, 64, 127
3, 110073, Note_on_c, 0, 75, 51
3, 110085, Note_on_c, 0, 87, 0
3, 110173, Note_on_c, 0, 63, 0
3, 110357, Note_on_c, 0, 79, 52
3, 110365, Note_on_c, 0, 63, 35
3, 110393, Note_on_c, 0, 58, 31
3, 110501, Note_on_c, 0, 55, 0
3, 110561, Note_on_c, 0, 58, 0
3, 110657, Note_on_c, 0, 75, 0
3, 110693, Note_on_c, 0, 87, 75
3, 110705, Note_on_c, 0, 79, 0
3, 110745, Note_on_c, 0, 63, 0
3, 110989, Note_on_c, 0, 87, 0
3, 111025, Note_on_c, 0, 85, 61
3, 111049, Note_on_c, 0, 85, 0
3, 111049, Note_on_c, 0, 56, 52
3, 111053, Note_on_c, 0, 86, 75
3, 111053, Control_c, 0, 64, 0
3, 111221, Control_c, 0, 64, 127
3, 111269, Note_on_c, 0, 86, 0
3, 111309, Note_on_c, 0, 87, 82
3, 111509, Note_on_c, 0, 87, 0
3, 111557, Control_c, 0, 64, 0
3, 111573, Note_on_c, 0, 89, 98
3, 111573, Note_on_c, 0, 65, 44
3, 111577, Note_on_c, 0, 58, 43
3, 111597, Note_on_c, 0, 62, 46
3, 111713, Control_c, 0, 64, 127
3, 111801, Note_on_c, 0, 89, 0
3, 111841, Note_on_c, 0, 86, 82
3, 111845, Note_on_c, 0, 65, 0
3, 111857, Note_on_c, 0, 58, 0
3, 111873, Note_on_c, 0, 62, 0
3, 112105, Note_on_c, 0, 86, 0
3, 112125, Note_on_c, 0, 82, 66
3, 112137, Control_c, 0, 64, 0
3, 112149, Note_on_c, 0, 58, 36
3, 112157, Note_on_c, 0, 65, 21
3, 112161, Note_on_c, 0, 62, 33
3, 112221, Control_c, 0, 64, 127
3, 112369, Note_on_c, 0, 82, 0
3, 112377, Note_on_c, 0, 56, 0
3, 112413, Note_on_c, 0, 80, 62
3, 112481, Note_on_c, 0, 56, 30
3, 112621, Note_on_c, 0, 65, 0
3, 112621, Note_on_c, 0, 62, 0
3, 112645, Note_on_c, 0, 80, 0
3, 112669, Note_on_c, 0, 58, 0
3, 112685, Control_c, 0, 64, 0
3, 112697, Note_on_c, 0, 56, 0
3, 112705, Note_on_c, 0, 79, 58
3, 112745, Note_on_c, 0, 55, 39
3, 112869, Control_c, 0, 64, 127
3, 113005, Note_on_c, 0, 82, 39
3, 113249, Note_on_c, 0, 82, 0
3, 113269, Note_on_c, 0, 87, 63
3, 113281, Note_on_c, 0, 63, 31
3, 113293, Note_on_c, 0, 79, 0
3, 113305, Note_on_c, 0, 58, 32
3, 113541, Note_on_c, 0, 58, 0
3, 113553, Note_on_c, 0, 79, 49
3, 113561, Note_on_c, 0, 63, 0
3, 113649, Note_on_c, 0, 87, 0
3, 113797, Note_on_c, 0, 63, 39
3, 113809, Note_on_c, 0, 80, 68
3, 113829, Note_on_c, 0, 58, 38
3, 113897, Note_on_c, 0, 55, 0
3, 113909, Note_on_c, 0, 79, 0
3, 114025, Note_on_c, 0, 80, 0
3, 114069, Note_on_c, 0, 82, 75
3, 114273, Note_on_c, 0, 63, 0
3, 114297, Note_on_c, 0, 58, 0
3, 114385, Note_on_c, 0, 80, 75
3, 114437, Note_on_c, 0, 82, 0
3, 114445, Note_on_c, 0, 46, 46
3, 114501, Control_c, 0, 64, 0
3, 114649, Control_c, 0, 64, 127
3, 114665, Note_on_c, 0, 80, 0
3, 114693, Note_on_c, 0, 79, 66
3, 114941, Control_c, 0, 64, 0
3, 114969, Note_on_c, 0, 79, 0
3, 114993, Note_on_c, 0, 56, 37
3, 115001, Note_on_c, 0, 77, 62
3, 115033, Control_c, 0, 64, 127
3, 115265, Note_on_c, 0, 77, 0
3, 115269, Note_on_c, 0, 56, 0
3, 115289, Note_on_c, 0, 75, 59
3, 115589, Note_on_c, 0, 74, 54
3, 115597, Note_on_c, 0, 75, 0
3, 115601, Note_on_c, 0, 56, 35
3, 115609, Note_on_c, 0, 46, 0
3, 115901, Note_on_c, 0, 77, 53
3, 115969, Note_on_c, 0, 74, 0
3, 116193, Control_c, 0, 64, 0
3, 116221, Note_on_c, 0, 77, 0
3, 116229, Note_on_c, 0, 75, 49
3, 116241, Note_on_c, 0, 51, 39
3, 116253, Note_on_c, 0, 56, 0
3, 116357, Control_c, 0, 64, 127
3, 116605, Note_on_c, 0, 67, 40
3, 116669, Note_on_c, 0, 75, 0
3, 116921, Note_on_c, 0, 67, 0
3, 116949, Note_on_c, 0, 70, 48
3, 116969, Note_on_c, 0, 63, 21
3, 117001, Note_on_c, 0, 58, 25
3, 117245, Note_on_c, 0, 72, 66
3, 117277, Note_on_c, 0, 70, 0
3, 117405, Note_on_c, 0, 58, 0
3, 117405, Note_on_c, 0, 63, 0
3, 117505, Note_on_c, 0, 72, 0
3, 117541, Note_on_c, 0, 73, 69
3, 117605, Note_on_c, 0, 58, 25
3, 117749, Note_on_c, 0, 51, 0
3, 117817, Note_on_c, 0, 73, 0
3, 117849, Note_on_c, 0, 75, 74
3, 118097, Note_on_c, 0, 75, 0
3, 118145, Control_c, 0, 64, 0
3, 118157, Note_on_c, 0, 53, 47
3, 118161, Note_on_c, 0, 77, 78
3, 118169, Note_on_c, 0, 58, 0
3, 118397, Note_on_c, 0, 75, 4
3, 118449, Note_on_c, 0, 65, 71
3, 118457, Control_c, 0, 64, 56
3, 118457, Control_c, 0, 64, 127
3, 118501, Note_on_c, 0, 77, 0
3, 118633, Note_on_c, 0, 75, 0
3, 118701, Note_on_c, 0, 61, 52
3, 118701, Control_c, 0, 64, 0
3, 118725, Note_on_c, 0, 68, 81
3, 118909, Control_c, 0, 64, 127
3, 118973, Note_on_c, 0, 73, 85
3, 119037, Note_on_c, 0, 61, 0
3, 119197, Note_on_c, 0, 73, 0
3, 119217, Control_c, 0, 64, 0
3, 119241, Note_on_c, 0, 61, 55
3, 119241, Note_on_c, 0, 75, 87
3, 119269, Note_on_c, 0, 68, 0
3, 119325, Control_c, 0, 64, 127
3, 119441, Note_on_c, 0, 53, 0
3, 119445, Note_on_c, 0, 65, 0
3, 119489, Note_on_c, 0, 75, 0
3, 119521, Note_on_c, 0, 76, 86
3, 119525, Note_on_c, 0, 53, 49
3, 119733, Note_on_c, 0, 53, 0
3, 119781, Note_on_c, 0, 76, 0
3, 119801, Note_on_c, 0, 61, 0
3, 119817, Note_on_c, 0, 75, 79
3, 119833, Control_c, 0, 64, 0
3, 119849, Note_on_c, 0, 52, 43
3, 120093, Note_on_c, 0, 73, 66
3, 120121, Control_c, 0, 64, 127
3, 120133, Note_on_c, 0, 75, 0
3, 120321, Note_on_c, 0, 73, 0
3, 120353, Control_c, 0, 64, 0
3, 120357, Note_on_c, 0, 72, 55
3, 120385, Note_on_c, 0, 58, 39
3, 120389, Note_on_c, 0, 60, 29
3, 120565, Control_c, 0, 64, 127
3, 120673, Note_on_c, 0, 58, 0
3, 120697, Note_on_c, 0, 60, 0
3, 120925, Note_on_c, 0, 58, 41
3, 120933, Note_on_c, 0, 60, 30
3, 121037, Note_on_c, 0, 72, 0
3, 121213, Note_on_c, 0, 52, 0
3, 121465, Control_c, 0, 64, 0
3, 121485, Note_on_c, 0, 51, 41
3, 121497, Note_on_c, 0, 58, 0
3, 121513, Note_on_c, 0, 60, 0
3, 121677, Note_on_c, 0, 89, 52
3, 121761, Note_on_c, 0, 90, 75
3, 121765, Note_on_c, 0, 89, 0
3, 121853, Note_on_c, 0, 89, 60
3, 121869, Note_on_c, 0, 90, 0
3, 121909, Note_on_c, 0, 89, 0
3, 121913, Note_on_c, 0, 88, 68
3, 121969, Note_on_c, 0, 88, 0
3, 122013, Note_on_c, 0, 87, 63
3, 122017, Note_on_c, 0, 60, 38
3, 122049, Note_on_c, 0, 57, 36
3, 122097, Note_on_c, 0, 87, 0
3, 122097, Note_on_c, 0, 84, 63
3, 122125, Note_on_c, 0, 84, 0
3, 122185, Note_on_c, 0, 81, 55
3, 122213, Note_on_c, 0, 81, 0
3, 122273, Note_on_c, 0, 60, 0
3, 122277, Note_on_c, 0, 78, 63
3, 122325, Note_on_c, 0, 57, 0
3, 122361, Note_on_c, 0, 77, 63
3, 122365, Note_on_c, 0, 78, 0
3, 122397, Note_on_c, 0, 77, 0
3, 122445, Note_on_c, 0, 76, 50
3, 122473, Note_on_c, 0, 76, 0
3, 122533, Note_on_c, 0, 75, 49
3, 122589, Note_on_c, 0, 75, 0
3, 122609, Note_on_c, 0, 72, 49
3, 122641, Note_on_c, 0, 72, 0
3, 122645, Note_on_c, 0, 60, 16
3, 122653, Note_on_c, 0, 57, 30
3, 122689, Note_on_c, 0, 69, 53
3, 122741, Note_on_c, 0, 69, 0
3, 122797, Note_on_c, 0, 66, 56
3, 122809, Note_on_c, 0, 60, 0
3, 122869, Note_on_c, 0, 66, 0
3, 122881, Note_on_c, 0, 65, 59
3, 122933, Note_on_c, 0, 65, 0
3, 122937, Control_c, 0, 64, 127
3, 122961, Note_on_c, 0, 57, 0
3, 122989, Note_on_c, 0, 64, 43
3, 123065, Note_on_c, 0, 64, 0
3, 123081, Note_on_c, 0, 63, 43
3, 123085, Note_on_c, 0, 51, 0
3, 123109, Note_on_c, 0, 63, 0
3, 123169, Note_on_c, 0, 62, 49
3, 123225, Control_c, 0, 64, 0
3, 123237, Note_on_c, 0, 62, 0
3, 123269, Note_on_c, 0, 61, 58
3, 123521, Control_c, 0, 64, 127
3, 123537, Note_on_c, 0, 46, 56
3, 123761, Note_on_c, 0, 61, 0
3, 123797, Note_on_c, 0, 46, 0
3, 123829, Note_on_c, 0, 57, 57
3, 124081, Control_c, 0, 64, 0
3, 124097, Note_on_c, 0, 57, 0
3, 124109, Note_on_c, 0, 58, 62
3, 124225, Control_c, 0, 64, 127
3, 124385, Note_on_c, 0, 60, 60
3, 124481, Note_on_c, 0, 60, 0
3, 124585, Note_on_c, 0, 58, 0
3, 124665, Note_on_c, 0, 61, 55
3, 124901, Note_on_c, 0, 61, 0
3, 124905, Control_c, 0, 64, 0
3, 124953, Note_on_c, 0, 62, 54
3, 124961, Note_on_c, 0, 58, 31
3, 124981, Note_on_c, 0, 50, 38
3, 125113, Control_c, 0, 64, 127
3, 125173, Note_on_c, 0, 58, 0
3, 125221, Note_on_c, 0, 62, 0
3, 125229, Note_on_c, 0, 65, 62
3, 125361, Note_on_c, 0, 65, 0
3, 125441, Note_on_c, 0, 50, 0
3, 125473, Control_c, 0, 64, 0
3, 125517, Note_on_c, 0, 68, 53
3, 125533, Note_on_c, 0, 56, 40
3, 125553, Note_on_c, 0, 68, 0
3, 125573, Control_c, 0, 64, 127
3, 125721, Note_on_c, 0, 56, 0
3, 125793, Note_on_c, 0, 71, 68
3, 125801, Note_on_c, 0, 62, 73
3, 125801, Note_on_c, 0, 67, 70
3, 125813, Note_on_c, 0, 56, 36
3, 125877, Note_on_c, 0, 62, 0
3, 125933, Note_on_c, 0, 71, 0
3, 125945, Note_on_c, 0, 67, 0
3, 126009, Control_c, 0, 64, 0
3, 126013, Note_on_c, 0, 56, 0
3, 126069, Control_c, 0, 64, 127
3, 126077, Note_on_c, 0, 74, 81
3, 126089, Note_on_c, 0, 59, 57
3, 126161, Note_on_c, 0, 74, 0
3, 126373, Note_on_c, 0, 77, 71
3, 126377, Note_on_c, 0, 68, 56
3, 126377, Note_on_c, 0, 62, 52
3, 126385, Note_on_c, 0, 74, 65
3, 126409, Note_on_c, 0, 59, 0
3, 126429, Note_on_c, 0, 62, 0
3, 126477, Note_on_c, 0, 74, 0
3, 126557, Note_on_c, 0, 68, 0
3, 126565, Note_on_c, 0, 77, 0
3, 126669, Control_c, 0, 64, 0
3, 126681, Note_on_c, 0, 51, 41
3, 126689, Note_on_c, 0, 77, 65
3, 126709, Note_on_c, 0, 72, 50
3, 126829, Control_c, 0, 64, 127
3, 126933, Note_on_c, 0, 77, 0
3, 126961, Note_on_c, 0, 72, 0
3, 126977, Note_on_c, 0, 75, 60
3, 126985, Note_on_c, 0, 60, 39
3, 127053, Note_on_c, 0, 75, 0
3, 127105, Note_on_c, 0, 60, 0
3, 127241, Control_c, 0, 64, 0
3, 127293, Note_on_c, 0, 63, 43
3, 127297, Note_on_c, 0, 72, 52
3, 127301, Note_on_c, 0, 68, 48
3, 127313, Note_on_c, 0, 60, 35
3, 127365, Control_c, 0, 64, 127
3, 127469, Note_on_c, 0, 63, 0
3, 127473, Note_on_c, 0, 51, 0
3, 127597, Note_on_c, 0, 51, 49
3, 127609, Note_on_c, 0, 60, 0
3, 127609, Note_on_c, 0, 72, 0
3, 127673, Note_on_c, 0, 68, 0
3, 127913, Note_on_c, 0, 60, 39
3, 127917, Note_on_c, 0, 75, 53
3, 127921, Note_on_c, 0, 63, 44
3, 127925, Note_on_c, 0, 68, 43
3, 127945, Note_on_c, 0, 60, 0
3, 127953, Note_on_c, 0, 72, 37
3, 128029, Note_on_c, 0, 51, 0
3, 128057, Note_on_c, 0, 75, 0
3, 128109, Note_on_c, 0, 72, 0
3, 128149, Note_on_c, 0, 63, 0
3, 128213, Note_on_c, 0, 75, 63
3, 128273, Note_on_c, 0, 68, 0
3, 128381, Note_on_c, 0, 75, 0
3, 128453, Control_c, 0, 64, 0
3, 128513, Note_on_c, 0, 27, 50
3, 128525, Note_on_c, 0, 75, 63
3, 128541, Note_on_c, 0, 63, 34
3, 128553, Note_on_c, 0, 27, 0
3, 128553, Note_on_c, 0, 67, 40
3, 128561, Note_on_c, 0, 39, 31
3, 128573, Control_c, 0, 64, 127
3, 128609, Note_on_c, 0, 39, 0
3, 128685, Note_on_c, 0, 75, 0
3, 128813, Note_on_c, 0, 63, 0
3, 128849, Note_on_c, 0, 73, 66
3, 128857, Note_on_c, 0, 61, 48
3, 128957, Note_on_c, 0, 63, 1
3, 129037, Note_on_c, 0, 61, 0
3, 129049, Note_on_c, 0, 73, 0
3, 129069, Note_on_c, 0, 63, 0
3, 129105, Note_on_c, 0, 67, 0
3, 129169, Note_on_c, 0, 63, 45
3, 129173, Note_on_c, 0, 72, 60
3, 129181, Note_on_c, 0, 67, 35
3, 129381, Note_on_c, 0, 72, 0
3, 129469, Note_on_c, 0, 70, 66
3, 129497, Note_on_c, 0, 58, 40
3, 129537, Note_on_c, 0, 58, 0
3, 129537, Note_on_c, 0, 67, 0
3, 129693, Note_on_c, 0, 63, 0
3, 129789, Note_on_c, 0, 68, 63
3, 129885, Note_on_c, 0, 70, 0
3, 130029, Note_on_c, 0, 68, 0
3, 130073, Note_on_c, 0, 68, 31
3, 130105, Note_on_c, 0, 67, 63
3, 130113, Note_on_c, 0, 68, 0
3, 130393, Note_on_c, 0, 67, 0
3, 130405, Control_c, 0, 64, 40
3, 130409, Control_c, 0, 64, 0
3, 130465, Note_on_c, 0, 71, 63
3, 130477, Note_on_c, 0, 44, 36
3, 130585, Control_c, 0, 64, 127
3, 130813, Note_on_c, 0, 51, 33
3, 130853, Note_on_c, 0, 71, 0
3, 131165, Note_on_c, 0, 72, 60
3, 131185, Note_on_c, 0, 55, 33
3, 131485, Note_on_c, 0, 70, 9
3, 131501, Note_on_c, 0, 72, 0
3, 131505, Note_on_c, 0, 60, 66
3, 131533, Note_on_c, 0, 55, 0
3, 131753, Note_on_c, 0, 70, 0
3, 131789, Note_on_c, 0, 60, 0
3, 131833, Note_on_c, 0, 63, 50
3, 131841, Note_on_c, 0, 55, 45
3, 131917, Note_on_c, 0, 63, 0
3, 132009, Note_on_c, 0, 51, 0
3, 132029, Note_on_c, 0, 44, 0
3, 132201, Note_on_c, 0, 72, 75
3, 132217, Note_on_c, 0, 55, 0
3, 132409, Note_on_c, 0, 72, 0
3, 132537, Note_on_c, 0, 73, 85
3, 132541, Control_c, 0, 64, 0
3, 132561, Note_on_c, 0, 53, 43
3, 132801, Control_c, 0, 64, 127
3, 132845, Note_on_c, 0, 65, 71
3, 132853, Note_on_c, 0, 61, 46
3, 133081, Note_on_c, 0, 65, 0
3, 133105, Note_on_c, 0, 73, 0
3, 133113, Note_on_c, 0, 68, 81
3, 133125, Note_on_c, 0, 61, 0
3, 133193, Note_on_c, 0, 68, 0
3, 133405, Note_on_c, 0, 61, 57
3, 133405, Note_on_c, 0, 77, 111
3, 133633, Note_on_c, 0, 61, 0
3, 133701, Note_on_c, 0, 77, 0
3, 133733, Note_on_c, 0, 75, 86
3, 133737, Note_on_c, 0, 61, 49
3, 133865, Note_on_c, 0, 53, 0
3, 134049, Note_on_c, 0, 53, 43
3, 134053, Note_on_c, 0, 73, 82
3, 134097, Note_on_c, 0, 75, 0
3, 134189, Note_on_c, 0, 53, 0
3, 134273, Note_on_c, 0, 61, 0
3, 134365, Note_on_c, 0, 73, 0
3, 134397, Note_on_c, 0, 75, 85
3, 134409, Control_c, 0, 64, 0
3, 134421, Note_on_c, 0, 52, 46
3, 134641, Note_on_c, 0, 75, 0
3, 134653, Control_c, 0, 64, 88
3, 134657, Control_c, 0, 64, 127
3, 134665, Note_on_c, 0, 76, 90
3, 134901, Control_c, 0, 64, 0
3, 134917, Note_on_c, 0, 73, 83
3, 134929, Note_on_c, 0, 76, 0
3, 134933, Note_on_c, 0, 60, 50
3, 135061, Control_c, 0, 64, 127
3, 135137, Note_on_c, 0, 72, 80
3, 135157, Note_on_c, 0, 73, 0
3, 135253, Note_on_c, 0, 72, 0
3, 135253, Note_on_c, 0, 60, 0
3, 135300, Note_on_c, 0, 70, 74
3, 135457, Note_on_c, 0, 70, 0
3, 135457, Note_on_c, 0, 67, 78
3, 135477, Control_c, 0, 64, 0
3, 135481, Note_on_c, 0, 60, 51
3, 135581, Note_on_c, 0, 67, 0
3, 135593, Control_c, 0, 64, 127
3, 135625, Note_on_c, 0, 64, 48
3, 135633, Note_on_c, 0, 60, 0
3, 135721, Note_on_c, 0, 64, 0
3, 135765, Note_on_c, 0, 61, 61
3, 135877, Note_on_c, 0, 52, 0
3, 135905, Note_on_c, 0, 61, 0
3, 135941, Note_on_c, 0, 60, 60
3, 136093, Note_on_c, 0, 60, 0
3, 136101, Note_on_c, 0, 58, 60
3, 136281, Note_on_c, 0, 58, 0
3, 136297, Control_c, 0, 64, 0
3, 136309, Note_on_c, 0, 57, 57
3, 136321, Note_on_c, 0, 51, 35
3, 136353, Note_on_c, 0, 41, 31
3, 136573, Note_on_c, 0, 51, 0
3, 136593, Control_c, 0, 64, 127
3, 136609, Note_on_c, 0, 41, 0
3, 136609, Note_on_c, 0, 54, 55
3, 136833, Note_on_c, 0, 57, 0
3, 136873, Note_on_c, 0, 54, 0
3, 136873, Control_c, 0, 64, 0
3, 136921, Note_on_c, 0, 53, 54
3, 136921, Note_on_c, 0, 51, 41
3, 137005, Control_c, 0, 64, 127
3, 137129, Note_on_c, 0, 53, 0
3, 137193, Note_on_c, 0, 57, 62
3, 137221, Note_on_c, 0, 57, 0
3, 137497, Note_on_c, 0, 69, 62
3, 137501, Note_on_c, 0, 60, 55
3, 137509, Note_on_c, 0, 65, 55
3, 137569, Note_on_c, 0, 57, 18
3, 137673, Note_on_c, 0, 57, 0
3, 137841, Note_on_c, 0, 72, 66
3, 137861, Note_on_c, 0, 57, 45
3, 137909, Note_on_c, 0, 69, 0
3, 138009, Note_on_c, 0, 57, 0
3, 138061, Note_on_c, 0, 60, 0
3, 138101, Note_on_c, 0, 65, 0
3, 138113, Note_on_c, 0, 72, 0
3, 138113, Note_on_c, 0, 51, 0
3, 138213, Control_c, 0, 64, 0
3, 138225, Note_on_c, 0, 72, 40
3, 138225, Note_on_c, 0, 49, 54
3, 138233, Note_on_c, 0, 65, 58
3, 138245, Note_on_c, 0, 61, 49
3, 138385, Note_on_c, 0, 72, 0
3, 138405, Control_c, 0, 64, 127
3, 138509, Note_on_c, 0, 61, 0
3, 138537, Note_on_c, 0, 57, 48
3, 138541, Note_on_c, 0, 73, 74
3, 138625, Note_on_c, 0, 61, 1
3, 138733, Note_on_c, 0, 65, 0
3, 138745, Note_on_c, 0, 57, 0
3, 138789, Note_on_c, 0, 61, 0
3, 138857, Note_on_c, 0, 61, 56
3, 138857, Control_c, 0, 64, 0
3, 138869, Note_on_c, 0, 65, 66
3, 138877, Note_on_c, 0, 60, 68
3, 138901, Note_on_c, 0, 49, 0
3, 139189, Note_on_c, 0, 58, 70
3, 139201, Note_on_c, 0, 60, 0
3, 139261, Note_on_c, 0, 65, 0
3, 139269, Control_c, 0, 64, 127
3, 139313, Note_on_c, 0, 61, 0
3, 139477, Control_c, 0, 64, 0
3, 139529, Note_on_c, 0, 61, 46
3, 139549, Note_on_c, 0, 65, 47
3, 139581, Control_c, 0, 64, 127
3, 139641, Note_on_c, 0, 73, 0
3, 139893, Note_on_c, 0, 57, 46
3, 139913, Note_on_c, 0, 58, 0
3, 140125, Note_on_c, 0, 70, 20
3, 140165, Note_on_c, 0, 65, 0
3, 140189, Note_on_c, 0, 61, 0
3, 140229, Note_on_c, 0, 70, 0
3, 140245, Note_on_c, 0, 65, 49
3, 140245, Control_c, 0, 64, 0
3, 140253, Note_on_c, 0, 57, 0
3, 140257, Note_on_c, 0, 62, 46
3, 140261, Note_on_c, 0, 56, 47
3, 140397, Control_c, 0, 64, 127
3, 140549, Note_on_c, 0, 56, 0
3, 140557, Note_on_c, 0, 62, 0
3, 140573, Note_on_c, 0, 65, 0
3, 140609, Note_on_c, 0, 50, 21
3, 140797, Note_on_c, 0, 50, 0
3, 140817, Control_c, 0, 64, 0
3, 140861, Note_on_c, 0, 62, 56
3, 140869, Note_on_c, 0, 71, 62
3, 140873, Note_on_c, 0, 67, 61
3, 140877, Note_on_c, 0, 56, 52
3, 140905, Control_c, 0, 64, 127
3, 140989, Note_on_c, 0, 62, 0
3, 141001, Note_on_c, 0, 71, 0
3, 141097, Note_on_c, 0, 67, 0
3, 141149, Note_on_c, 0, 74, 77
3, 141161, Note_on_c, 0, 59, 69
3, 141221, Note_on_c, 0, 74, 0
3, 141417, Note_on_c, 0, 59, 0
3, 141437, Note_on_c, 0, 77, 76
3, 141441, Note_on_c, 0, 56, 0
3, 141445, Note_on_c, 0, 68, 72
3, 141445, Note_on_c, 0, 62, 62
3, 141509, Note_on_c, 0, 77, 0
3, 141517, Note_on_c, 0, 68, 0
3, 141585, Note_on_c, 0, 62, 0
3, 141749, Note_on_c, 0, 80, 75
3, 141749, Note_on_c, 0, 65, 54
3, 141781, Note_on_c, 0, 65, 0
3, 142001, Note_on_c, 0, 80, 0
3, 142157, Note_on_c, 0, 80, 60
3, 142181, Control_c, 0, 64, 0
3, 142197, Note_on_c, 0, 27, 31
3, 142297, Control_c, 0, 64, 127
3, 142317, Note_on_c, 0, 27, 0
3, 142417, Note_on_c, 0, 80, 0
3, 142553, Note_on_c, 0, 84, 56
3, 142565, Note_on_c, 0, 83, 47
3, 142593, Note_on_c, 0, 83, 0
3, 142625, Note_on_c, 0, 84, 0
3, 142917, Note_on_c, 0, 80, 40
3, 142929, Note_on_c, 0, 72, 39
3, 142937, Note_on_c, 0, 60, 36
3, 142941, Note_on_c, 0, 51, 35
3, 142957, Note_on_c, 0, 56, 41
3, 143069, Note_on_c, 0, 56, 0
3, 143113, Note_on_c, 0, 51, 0
3, 143121, Note_on_c, 0, 60, 0
3, 143273, Note_on_c, 0, 80, 0
3, 143297, Note_on_c, 0, 51, 48
3, 143301, Note_on_c, 0, 72, 0
3, 143653, Note_on_c, 0, 65, 44
3, 143653, Note_on_c, 0, 72, 49
3, 143657, Note_on_c, 0, 56, 40
3, 143673, Note_on_c, 0, 68, 42
3, 143677, Note_on_c, 0, 60, 21
3, 143813, Note_on_c, 0, 51, 0
3, 143965, Note_on_c, 0, 72, 0
3, 143965, Note_on_c, 0, 60, 0
3, 143981, Note_on_c, 0, 51, 55
3, 143997, Note_on_c, 0, 65, 0
3, 144017, Note_on_c, 0, 56, 0
3, 144081, Note_on_c, 0, 51, 0
3, 144101, Note_on_c, 0, 68, 0
3, 144333, Control_c, 0, 64, 0
3, 144385, Note_on_c, 0, 27, 50
3, 144389, Note_on_c, 0, 75, 55
3, 144401, Note_on_c, 0, 39, 40
3, 144405, Note_on_c, 0, 64, 38
3, 144421, Note_on_c, 0, 67, 29
3, 144457, Control_c, 0, 64, 127
3, 144529, Note_on_c, 0, 39, 0
3, 144545, Note_on_c, 0, 75, 0
3, 144549, Note_on_c, 0, 67, 0
3, 144605, Note_on_c, 0, 64, 0
3, 144657, Note_on_c, 0, 27, 0
3, 144805, Note_on_c, 0, 60, 60
3, 145013, Note_on_c, 0, 60, 0
3, 145073, Note_on_c, 0, 61, 68
3, 145145, Note_on_c, 0, 58, 39
3, 145305, Note_on_c, 0, 63, 66
3, 145341, Note_on_c, 0, 61, 0
3, 145453, Note_on_c, 0, 63, 0
3, 145505, Note_on_c, 0, 65, 69
3, 145621, Note_on_c, 0, 65, 0
3, 145657, Note_on_c, 0, 67, 74
3, 145765, Note_on_c, 0, 67, 0
3, 145797, Note_on_c, 0, 68, 77
3, 145893, Note_on_c, 0, 61, 45
3, 145897, Note_on_c, 0, 65, 41
3, 145933, Note_on_c, 0, 70, 65
3, 145941, Note_on_c, 0, 65, 0
3, 145953, Note_on_c, 0, 68, 0
3, 146001, Note_on_c, 0, 70, 0
3, 146053, Note_on_c, 0, 72, 72
3, 146101, Note_on_c, 0, 61, 0
3, 146129, Note_on_c, 0, 58, 0
3, 146149, Note_on_c, 0, 72, 0
3, 146173, Note_on_c, 0, 73, 72
3, 146297, Note_on_c, 0, 75, 67
3, 146305, Note_on_c, 0, 73, 0
3, 146373, Note_on_c, 0, 75, 0
3, 146425, Note_on_c, 0, 77, 78
3, 146509, Note_on_c, 0, 77, 0
3, 146545, Note_on_c, 0, 79, 76
3, 146649, Note_on_c, 0, 79, 0
3, 146701, Note_on_c, 0, 80, 75
3, 146817, Note_on_c, 0, 80, 0
3, 146849, Note_on_c, 0, 82, 72
3, 146981, Note_on_c, 0, 82, 0
3, 147049, Note_on_c, 0, 83, 61
3, 147061, Note_on_c, 0, 44, 46
3, 147073, Control_c, 0, 64, 0
3, 147417, Note_on_c, 0, 83, 0
3, 147417, Control_c, 0, 64, 127
3, 147417, Note_on_c, 0, 51, 31
3, 147421, Note_on_c, 0, 84, 54
3, 147681, Note_on_c, 0, 84, 0
3, 147789, Note_on_c, 0, 44, 0
3, 147801, Note_on_c, 0, 51, 0
3, 147809, Note_on_c, 0, 84, 56
3, 147825, Note_on_c, 0, 55, 34
3, 147913, Note_on_c, 0, 55, 0
3, 148213, Note_on_c, 0, 56, 39
3, 148621, Note_on_c, 0, 60, 38
3, 148857, Note_on_c, 0, 60, 0
3, 148865, Note_on_c, 0, 84, 0
3, 148881, Control_c, 0, 64, 0
3, 148885, Note_on_c, 0, 56, 0
3, 148885, End_track
0, 0, End_of_file
