0, 0, Header, 1, 4, 960
1, 0, Start_track
1, 0, Title_t, "Cinema Paradiso"
1, 0, Text_t, "Video and leadsheet is at  http://web.newsguy.com/dougmck/\012"
1, 0, Time_signature, 4, 2, 24, 8
1, 0, Key_signature, 0, "major"
1, 0, Tempo, 600000
1, 0, Marker_t, "Improvised versions of 'Cinema Paradiso'"
1, 3840, Marker_t, "First solo piano, then with bass and drums"
1, 8001, Marker_t, "Video of this at http://web.newsguy.com/dougmck/"
1, 16354, Marker_t, "Piano  begins at 10;07"
1, 24063, Marker_t, "Rubato at first"
1, 61652, Marker_t, "Dim scale on C#dim chord"
1, 130560, Key_signature, -3, "major"
1, 133459, Tempo, 600000
1, 133461, Tempo, 983607
1, 137356, Marker_t, "'Trio' begins"
1, 150625, Marker_t, "Chromatic connection between chord (EbMaj7) tones -  Bb and G"
1, 170458, Marker_t, "'Rhapsodic' style - RH octaves with chord tones = LH rootless voicings"
1, 177753, Marker_t, "Phrase is chord tones 'surrounded by neighbours"
1, 234778, Marker_t, "This figure based on Dim scale phrase moving down by aminor 3rd"
1, 257593, Marker_t, "'Locked hands' style - block chords harmonise melodic phrase"
1, 259636, Marker_t, "'Close' position with LH doubling melody  8va lower"
1, 266225, Marker_t, "More 'locked hands' - this time harmonises diminished scale line"
1, 266225, End_track
2, 0, Start_track
2, 0, Title_t, "Piano"
2, 16582, Note_on_c, 0, 70, 81
2, 16618, Note_on_c, 0, 43, 57
2, 16654, Control_c, 0, 64, 0
2, 17051, Control_c, 0, 64, 127
2, 17443, Note_on_c, 0, 50, 51
2, 18269, Note_on_c, 0, 55, 30
2, 19114, Note_on_c, 0, 43, 0
2, 19355, Note_on_c, 0, 50, 0
2, 19530, Note_on_c, 0, 62, 81
2, 20016, Note_on_c, 0, 70, 0
2, 20456, Note_on_c, 0, 63, 72
2, 20470, Note_on_c, 0, 62, 0
2, 20470, Note_on_c, 0, 55, 0
2, 20514, Note_on_c, 0, 48, 44
2, 20515, Control_c, 0, 64, 24
2, 20520, Control_c, 0, 64, 0
2, 20808, Control_c, 0, 64, 127
2, 21027, Note_on_c, 0, 63, 0
2, 21814, Note_on_c, 0, 82, 81
2, 21821, Note_on_c, 0, 55, 41
2, 21867, Note_on_c, 0, 79, 81
2, 21904, Note_on_c, 0, 75, 76
2, 21907, Note_on_c, 0, 58, 57
2, 21914, Note_on_c, 0, 70, 79
2, 22357, Note_on_c, 0, 79, 0
2, 22514, Note_on_c, 0, 82, 0
2, 22635, Note_on_c, 0, 55, 0
2, 23210, Note_on_c, 0, 48, 0
2, 23248, Note_on_c, 0, 81, 90
2, 23262, Note_on_c, 0, 55, 50
2, 23302, Note_on_c, 0, 58, 0
2, 23371, Note_on_c, 0, 55, 0
2, 23667, Note_on_c, 0, 81, 0
2, 23726, Note_on_c, 0, 70, 0
2, 23733, Note_on_c, 0, 79, 75
2, 24230, Note_on_c, 0, 75, 0
2, 24242, Note_on_c, 0, 79, 0
2, 24243, Control_c, 0, 64, 0
2, 24269, Note_on_c, 0, 29, 57
2, 24302, Note_on_c, 0, 81, 82
2, 24365, Control_c, 0, 64, 127
2, 24438, Note_on_c, 0, 29, 0
2, 24586, Note_on_c, 0, 81, 0
2, 25211, Note_on_c, 0, 84, 89
2, 25232, Note_on_c, 0, 74, 81
2, 25238, Note_on_c, 0, 51, 59
2, 25243, Note_on_c, 0, 57, 57
2, 25541, Note_on_c, 0, 84, 0
2, 25606, Note_on_c, 0, 74, 0
2, 25674, Note_on_c, 0, 57, 0
2, 25678, Note_on_c, 0, 51, 0
2, 26202, Note_on_c, 0, 77, 65
2, 26227, Note_on_c, 0, 65, 38
2, 26243, Note_on_c, 0, 57, 48
2, 26253, Note_on_c, 0, 51, 49
2, 26773, Note_on_c, 0, 77, 0
2, 26920, Note_on_c, 0, 65, 0
2, 27008, Note_on_c, 0, 75, 72
2, 27050, Note_on_c, 0, 57, 0
2, 27234, Note_on_c, 0, 75, 0
2, 27728, Note_on_c, 0, 51, 0
2, 27949, Control_c, 0, 64, 0
2, 27960, Note_on_c, 0, 75, 58
2, 27974, Note_on_c, 0, 63, 43
2, 28018, Note_on_c, 0, 67, 45
2, 28024, Note_on_c, 0, 46, 34
2, 28093, Note_on_c, 0, 53, 36
2, 28256, Control_c, 0, 64, 127
2, 28893, Note_on_c, 0, 58, 41
2, 28912, Note_on_c, 0, 67, 0
2, 29120, Note_on_c, 0, 75, 0
2, 29186, Note_on_c, 0, 63, 0
2, 29509, Note_on_c, 0, 58, 0
2, 29768, Note_on_c, 0, 62, 49
2, 29779, Note_on_c, 0, 74, 50
2, 29784, Note_on_c, 0, 58, 42
2, 29786, Note_on_c, 0, 70, 54
2, 30442, Note_on_c, 0, 46, 0
2, 31206, Note_on_c, 0, 58, 0
2, 31334, Note_on_c, 0, 53, 0
2, 31362, Note_on_c, 0, 57, 60
2, 32050, Note_on_c, 0, 57, 0
2, 32114, Note_on_c, 0, 74, 0
2, 32134, Note_on_c, 0, 58, 77
2, 32138, Note_on_c, 0, 70, 0
2, 32213, Note_on_c, 0, 62, 0
2, 32224, Control_c, 0, 64, 0
2, 32331, Control_c, 0, 64, 127
2, 32826, Note_on_c, 0, 62, 99
2, 33294, Note_on_c, 0, 62, 0
2, 33304, Note_on_c, 0, 58, 0
2, 33408, Note_on_c, 0, 65, 79
2, 33410, Note_on_c, 0, 58, 80
2, 33411, Control_c, 0, 64, 0
2, 33414, Note_on_c, 0, 62, 84
2, 33429, Note_on_c, 0, 57, 71
2, 33606, Control_c, 0, 64, 127
2, 33638, Note_on_c, 0, 65, 0
2, 33818, Note_on_c, 0, 58, 0
2, 33982, Note_on_c, 0, 62, 0
2, 34062, Note_on_c, 0, 69, 81
2, 34085, Note_on_c, 0, 55, 64
2, 34091, Note_on_c, 0, 68, 63
2, 34123, Note_on_c, 0, 57, 0
2, 34157, Note_on_c, 0, 55, 0
2, 34210, Note_on_c, 0, 68, 0
2, 34291, Note_on_c, 0, 69, 0
2, 34763, Note_on_c, 0, 72, 85
2, 34765, Control_c, 0, 64, 0
2, 34774, Note_on_c, 0, 65, 81
2, 34787, Note_on_c, 0, 62, 80
2, 34818, Note_on_c, 0, 43, 63
2, 35082, Control_c, 0, 64, 127
2, 35230, Note_on_c, 0, 72, 0
2, 35349, Note_on_c, 0, 62, 0
2, 35392, Note_on_c, 0, 50, 69
2, 35402, Note_on_c, 0, 70, 85
2, 35459, Note_on_c, 0, 62, 24
2, 35656, Note_on_c, 0, 62, 0
2, 35826, Note_on_c, 0, 65, 0
2, 35853, Note_on_c, 0, 70, 0
2, 35874, Note_on_c, 0, 43, 0
2, 35912, Note_on_c, 0, 50, 0
2, 35941, Note_on_c, 0, 65, 81
2, 35949, Note_on_c, 0, 55, 60
2, 35963, Note_on_c, 0, 62, 77
2, 35965, Note_on_c, 0, 69, 76
2, 36083, Note_on_c, 0, 55, 0
2, 36285, Note_on_c, 0, 69, 0
2, 36307, Note_on_c, 0, 62, 0
2, 36478, Note_on_c, 0, 70, 82
2, 36490, Note_on_c, 0, 62, 45
2, 36499, Note_on_c, 0, 58, 66
2, 36555, Note_on_c, 0, 62, 0
2, 36563, Note_on_c, 0, 65, 0
2, 36782, Note_on_c, 0, 70, 0
2, 37038, Control_c, 0, 64, 0
2, 37059, Note_on_c, 0, 74, 120
2, 37069, Note_on_c, 0, 53, 70
2, 37075, Note_on_c, 0, 58, 0
2, 37130, Note_on_c, 0, 73, 51
2, 37186, Note_on_c, 0, 73, 0
2, 37331, Control_c, 0, 64, 127
2, 37712, Note_on_c, 0, 62, 60
2, 38394, Note_on_c, 0, 65, 62
2, 38410, Note_on_c, 0, 58, 52
2, 38413, Note_on_c, 0, 62, 0
2, 38530, Note_on_c, 0, 58, 0
2, 38554, Note_on_c, 0, 53, 0
2, 38598, Note_on_c, 0, 65, 0
2, 38621, Note_on_c, 0, 74, 0
2, 39264, Control_c, 0, 64, 0
2, 39312, Note_on_c, 0, 66, 63
2, 39315, Note_on_c, 0, 38, 45
2, 39317, Note_on_c, 0, 61, 61
2, 39320, Note_on_c, 0, 54, 60
2, 39320, Note_on_c, 0, 26, 55
2, 39530, Control_c, 0, 64, 127
2, 39736, Note_on_c, 0, 26, 0
2, 39846, Note_on_c, 0, 38, 0
2, 39885, Note_on_c, 0, 54, 0
2, 39960, Note_on_c, 0, 66, 0
2, 39995, Note_on_c, 0, 61, 0
2, 40370, Control_c, 0, 64, 0
2, 40382, Note_on_c, 0, 67, 61
2, 40398, Note_on_c, 0, 55, 52
2, 40416, Note_on_c, 0, 62, 52
2, 40443, Note_on_c, 0, 27, 40
2, 40450, Note_on_c, 0, 39, 36
2, 40642, Control_c, 0, 64, 127
2, 40771, Note_on_c, 0, 67, 0
2, 40834, Note_on_c, 0, 55, 0
2, 40882, Note_on_c, 0, 62, 0
2, 40917, Note_on_c, 0, 39, 0
2, 40968, Note_on_c, 0, 27, 0
2, 41090, Control_c, 0, 64, 0
2, 41157, Note_on_c, 0, 66, 59
2, 41182, Note_on_c, 0, 26, 51
2, 41186, Note_on_c, 0, 61, 57
2, 41190, Note_on_c, 0, 54, 49
2, 41195, Note_on_c, 0, 38, 46
2, 41320, Control_c, 0, 64, 127
2, 41413, Note_on_c, 0, 26, 0
2, 41453, Note_on_c, 0, 38, 0
2, 41565, Note_on_c, 0, 54, 0
2, 41635, Note_on_c, 0, 66, 0
2, 41640, Note_on_c, 0, 61, 0
2, 41902, Control_c, 0, 64, 0
2, 41976, Note_on_c, 0, 67, 55
2, 41992, Note_on_c, 0, 55, 44
2, 42000, Note_on_c, 0, 62, 56
2, 42058, Note_on_c, 0, 39, 39
2, 42061, Note_on_c, 0, 27, 40
2, 42122, Control_c, 0, 64, 127
2, 42149, Note_on_c, 0, 27, 0
2, 42171, Note_on_c, 0, 55, 0
2, 42250, Note_on_c, 0, 39, 0
2, 42286, Note_on_c, 0, 62, 0
2, 42392, Note_on_c, 0, 67, 0
2, 43301, Control_c, 0, 64, 0
2, 43306, Note_on_c, 0, 77, 81
2, 43325, Note_on_c, 0, 70, 74
2, 43344, Note_on_c, 0, 58, 51
2, 43358, Note_on_c, 0, 65, 64
2, 43370, Note_on_c, 0, 50, 49
2, 43506, Control_c, 0, 64, 127
2, 43589, Note_on_c, 0, 77, 0
2, 43632, Note_on_c, 0, 70, 0
2, 43693, Note_on_c, 0, 50, 0
2, 43709, Note_on_c, 0, 65, 0
2, 43867, Note_on_c, 0, 58, 0
2, 44165, Note_on_c, 0, 75, 62
2, 44197, Note_on_c, 0, 67, 48
2, 44202, Control_c, 0, 64, 0
2, 44205, Note_on_c, 0, 58, 44
2, 44210, Note_on_c, 0, 63, 49
2, 44221, Note_on_c, 0, 48, 47
2, 44494, Control_c, 0, 64, 127
2, 44707, Note_on_c, 0, 48, 0
2, 44786, Note_on_c, 0, 67, 0
2, 44802, Note_on_c, 0, 58, 0
2, 44803, Note_on_c, 0, 75, 0
2, 44830, Note_on_c, 0, 55, 48
2, 44890, Note_on_c, 0, 55, 0
2, 44920, Note_on_c, 0, 63, 0
2, 45357, Note_on_c, 0, 46, 38
2, 45382, Note_on_c, 0, 63, 54
2, 45397, Note_on_c, 0, 60, 33
2, 45402, Control_c, 0, 64, 0
2, 45418, Note_on_c, 0, 55, 40
2, 45621, Control_c, 0, 64, 127
2, 45682, Note_on_c, 0, 46, 0
2, 45922, Note_on_c, 0, 60, 0
2, 45970, Note_on_c, 0, 46, 56
2, 45981, Note_on_c, 0, 63, 0
2, 46416, Note_on_c, 0, 46, 0
2, 46501, Note_on_c, 0, 55, 0
2, 46586, Control_c, 0, 64, 0
2, 46611, Note_on_c, 0, 45, 64
2, 46669, Note_on_c, 0, 45, 0
2, 46726, Control_c, 0, 64, 127
2, 47302, Note_on_c, 0, 63, 53
2, 47314, Note_on_c, 0, 72, 76
2, 47333, Note_on_c, 0, 60, 42
2, 47346, Note_on_c, 0, 55, 37
2, 47347, Note_on_c, 0, 57, 48
2, 47658, Note_on_c, 0, 72, 0
2, 48024, Note_on_c, 0, 79, 122
2, 48427, Note_on_c, 0, 63, 0
2, 48466, Note_on_c, 0, 57, 0
2, 48501, Note_on_c, 0, 55, 0
2, 48557, Note_on_c, 0, 60, 0
2, 48637, Note_on_c, 0, 79, 0
2, 48720, Note_on_c, 0, 77, 88
2, 49226, Note_on_c, 0, 77, 0
2, 49419, Note_on_c, 0, 75, 28
2, 49421, Note_on_c, 0, 76, 49
2, 49474, Control_c, 0, 64, 0
2, 49499, Note_on_c, 0, 75, 0
2, 49517, Note_on_c, 0, 60, 45
2, 49547, Note_on_c, 0, 50, 44
2, 49557, Note_on_c, 0, 77, 66
2, 49579, Note_on_c, 0, 76, 0
2, 49934, Control_c, 0, 64, 127
2, 50230, Note_on_c, 0, 50, 0
2, 50282, Note_on_c, 0, 75, 57
2, 50323, Note_on_c, 0, 60, 0
2, 50357, Note_on_c, 0, 77, 0
2, 50861, Note_on_c, 0, 75, 0
2, 50904, Note_on_c, 0, 60, 38
2, 50926, Note_on_c, 0, 74, 47
2, 51376, Note_on_c, 0, 74, 0
2, 51402, Note_on_c, 0, 60, 0
2, 51470, Note_on_c, 0, 72, 54
2, 52034, Note_on_c, 0, 72, 0
2, 52074, Note_on_c, 0, 70, 55
2, 52101, Note_on_c, 0, 55, 36
2, 52112, Control_c, 0, 64, 0
2, 52437, Control_c, 0, 64, 127
2, 52699, Note_on_c, 0, 58, 49
2, 53421, Note_on_c, 0, 62, 43
2, 54387, Note_on_c, 0, 70, 0
2, 54566, Note_on_c, 0, 70, 63
2, 54786, Note_on_c, 0, 70, 0
2, 54805, Note_on_c, 0, 62, 0
2, 54922, Note_on_c, 0, 58, 0
2, 55222, Note_on_c, 0, 72, 88
2, 55677, Note_on_c, 0, 55, 0
2, 55826, Note_on_c, 0, 72, 0
2, 55893, Note_on_c, 0, 70, 75
2, 56120, Note_on_c, 0, 70, 0
2, 56693, Control_c, 0, 64, 0
2, 56706, Note_on_c, 0, 69, 66
2, 56720, Note_on_c, 0, 60, 49
2, 56750, Note_on_c, 0, 53, 39
2, 56757, Note_on_c, 0, 65, 55
2, 56909, Control_c, 0, 64, 127
2, 56968, Note_on_c, 0, 65, 0
2, 57120, Note_on_c, 0, 53, 0
2, 57198, Note_on_c, 0, 60, 0
2, 57269, Note_on_c, 0, 65, 65
2, 57291, Note_on_c, 0, 69, 0
2, 57402, Note_on_c, 0, 65, 0
2, 57915, Note_on_c, 0, 67, 60
2, 57925, Note_on_c, 0, 55, 48
2, 57930, Note_on_c, 0, 62, 57
2, 57936, Note_on_c, 0, 39, 44
2, 57987, Control_c, 0, 64, 0
2, 58296, Control_c, 0, 64, 127
2, 58675, Note_on_c, 0, 46, 52
2, 59011, Note_on_c, 0, 55, 0
2, 59069, Note_on_c, 0, 62, 0
2, 59419, Note_on_c, 0, 50, 75
2, 59461, Control_c, 0, 64, 0
2, 59730, Control_c, 0, 64, 127
2, 59957, Note_on_c, 0, 39, 0
2, 60058, Note_on_c, 0, 46, 0
2, 60218, Note_on_c, 0, 55, 52
2, 60589, Note_on_c, 0, 67, 0
2, 60702, Note_on_c, 0, 55, 0
2, 61016, Control_c, 0, 64, 0
2, 61053, Note_on_c, 0, 50, 0
2, 61075, Note_on_c, 0, 61, 48
2, 61086, Note_on_c, 0, 49, 54
2, 61088, Note_on_c, 0, 55, 41
2, 61091, Note_on_c, 0, 58, 46
2, 61283, Control_c, 0, 64, 127
2, 61362, Note_on_c, 0, 55, 0
2, 61558, Note_on_c, 0, 58, 0
2, 61690, Note_on_c, 0, 61, 0
2, 61808, Note_on_c, 0, 60, 59
2, 62120, Note_on_c, 0, 49, 0
2, 62133, Note_on_c, 0, 60, 0
2, 62182, Note_on_c, 0, 61, 81
2, 62421, Note_on_c, 0, 61, 0
2, 62490, Note_on_c, 0, 63, 81
2, 62701, Note_on_c, 0, 63, 0
2, 62730, Note_on_c, 0, 64, 76
2, 62934, Note_on_c, 0, 64, 0
2, 62997, Note_on_c, 0, 66, 85
2, 63083, Note_on_c, 0, 58, 48
2, 63176, Note_on_c, 0, 66, 0
2, 63282, Note_on_c, 0, 67, 77
2, 63488, Note_on_c, 0, 69, 78
2, 63528, Note_on_c, 0, 67, 0
2, 63738, Note_on_c, 0, 70, 81
2, 63771, Note_on_c, 0, 69, 0
2, 63893, Note_on_c, 0, 70, 0
2, 63949, Note_on_c, 0, 72, 77
2, 64152, Note_on_c, 0, 72, 0
2, 64202, Note_on_c, 0, 73, 79
2, 64403, Note_on_c, 0, 73, 0
2, 64437, Note_on_c, 0, 74, 70
2, 64650, Note_on_c, 0, 58, 0
2, 64733, Note_on_c, 0, 75, 75
2, 64768, Note_on_c, 0, 74, 0
2, 65019, Note_on_c, 0, 75, 0
2, 65019, Note_on_c, 0, 76, 66
2, 65267, Note_on_c, 0, 76, 0
2, 65323, Note_on_c, 0, 77, 74
2, 65702, Note_on_c, 0, 63, 40
2, 65704, Note_on_c, 0, 75, 57
2, 65709, Note_on_c, 0, 77, 0
2, 65789, Note_on_c, 0, 55, 37
2, 65790, Control_c, 0, 64, 0
2, 66115, Control_c, 0, 64, 127
2, 66251, Note_on_c, 0, 69, 59
2, 66290, Note_on_c, 0, 75, 0
2, 66306, Note_on_c, 0, 63, 0
2, 66326, Note_on_c, 0, 60, 37
2, 66925, Note_on_c, 0, 81, 70
2, 66931, Note_on_c, 0, 63, 48
2, 66976, Note_on_c, 0, 60, 0
2, 66976, Note_on_c, 0, 55, 0
2, 66998, Note_on_c, 0, 63, 0
2, 67530, Note_on_c, 0, 81, 0
2, 67638, Note_on_c, 0, 50, 60
2, 67656, Note_on_c, 0, 69, 0
2, 68486, Note_on_c, 0, 74, 66
2, 68517, Control_c, 0, 64, 56
2, 68520, Control_c, 0, 64, 0
2, 68544, Note_on_c, 0, 63, 42
2, 68557, Note_on_c, 0, 67, 41
2, 68562, Note_on_c, 0, 38, 47
2, 68701, Control_c, 0, 64, 127
2, 68850, Note_on_c, 0, 38, 0
2, 68984, Note_on_c, 0, 50, 0
2, 69238, Note_on_c, 0, 74, 0
2, 69400, Note_on_c, 0, 72, 59
2, 69509, Note_on_c, 0, 67, 0
2, 69909, Note_on_c, 0, 63, 0
2, 70435, Note_on_c, 0, 63, 47
2, 70467, Note_on_c, 0, 67, 49
2, 70470, Note_on_c, 0, 62, 40
2, 70557, Control_c, 0, 64, 0
2, 70749, Control_c, 0, 64, 127
2, 72115, Note_on_c, 0, 50, 39
2, 72549, Note_on_c, 0, 72, 0
2, 72582, Note_on_c, 0, 62, 0
2, 72635, Note_on_c, 0, 67, 0
2, 72770, Note_on_c, 0, 50, 0
2, 72781, Note_on_c, 0, 63, 0
2, 73429, Note_on_c, 0, 58, 41
2, 73430, Control_c, 0, 64, 0
2, 73461, Note_on_c, 0, 62, 45
2, 73470, Note_on_c, 0, 50, 35
2, 73474, Note_on_c, 0, 55, 30
2, 73482, Note_on_c, 0, 43, 28
2, 73661, Control_c, 0, 64, 127
2, 74008, Note_on_c, 0, 58, 0
2, 74123, Note_on_c, 0, 55, 0
2, 74320, Note_on_c, 0, 70, 85
2, 74411, Note_on_c, 0, 68, 38
2, 74438, Note_on_c, 0, 62, 0
2, 74509, Note_on_c, 0, 68, 0
2, 74675, Note_on_c, 0, 70, 0
2, 74962, Note_on_c, 0, 70, 84
2, 74997, Note_on_c, 0, 55, 50
2, 75005, Note_on_c, 0, 43, 0
2, 75010, Note_on_c, 0, 58, 45
2, 75046, Note_on_c, 0, 68, 38
2, 75091, Note_on_c, 0, 50, 0
2, 75130, Note_on_c, 0, 68, 0
2, 75275, Note_on_c, 0, 70, 0
2, 75309, Note_on_c, 0, 58, 0
2, 75397, Note_on_c, 0, 55, 0
2, 75477, Note_on_c, 0, 62, 76
2, 75502, Note_on_c, 0, 50, 50
2, 75651, Note_on_c, 0, 62, 0
2, 76024, Note_on_c, 0, 50, 0
2, 76054, Note_on_c, 0, 63, 68
2, 76056, Control_c, 0, 64, 0
2, 76075, Note_on_c, 0, 58, 62
2, 76080, Note_on_c, 0, 55, 55
2, 76109, Note_on_c, 0, 48, 52
2, 76227, Note_on_c, 0, 55, 0
2, 76269, Control_c, 0, 64, 127
2, 76307, Note_on_c, 0, 58, 0
2, 76395, Note_on_c, 0, 63, 0
2, 77133, Control_c, 0, 64, 0
2, 77146, Note_on_c, 0, 70, 66
2, 77168, Note_on_c, 0, 63, 57
2, 77176, Note_on_c, 0, 60, 57
2, 77186, Note_on_c, 0, 55, 55
2, 77198, Note_on_c, 0, 67, 49
2, 77317, Control_c, 0, 64, 127
2, 77339, Note_on_c, 0, 48, 0
2, 77637, Note_on_c, 0, 67, 0
2, 77672, Note_on_c, 0, 70, 0
2, 77781, Note_on_c, 0, 69, 78
2, 78062, Note_on_c, 0, 60, 0
2, 78077, Note_on_c, 0, 55, 0
2, 78150, Note_on_c, 0, 69, 0
2, 78182, Note_on_c, 0, 63, 0
2, 78234, Note_on_c, 0, 67, 74
2, 78637, Note_on_c, 0, 67, 0
2, 78666, Control_c, 0, 64, 0
2, 78717, Note_on_c, 0, 69, 70
2, 78734, Note_on_c, 0, 41, 62
2, 78758, Note_on_c, 0, 60, 65
2, 78763, Note_on_c, 0, 65, 63
2, 78850, Control_c, 0, 64, 127
2, 78888, Note_on_c, 0, 41, 0
2, 79022, Note_on_c, 0, 60, 0
2, 79075, Note_on_c, 0, 69, 0
2, 79197, Note_on_c, 0, 65, 0
2, 79302, Note_on_c, 0, 72, 72
2, 79386, Note_on_c, 0, 51, 50
2, 79514, Note_on_c, 0, 72, 0
2, 79944, Note_on_c, 0, 65, 68
2, 79955, Note_on_c, 0, 60, 57
2, 79987, Note_on_c, 0, 59, 46
2, 80006, Note_on_c, 0, 57, 40
2, 80138, Note_on_c, 0, 59, 0
2, 80571, Note_on_c, 0, 63, 69
2, 80576, Note_on_c, 0, 60, 0
2, 80606, Note_on_c, 0, 57, 0
2, 80814, Note_on_c, 0, 65, 0
2, 81072, Note_on_c, 0, 51, 0
2, 81074, Note_on_c, 0, 63, 0
2, 81726, Note_on_c, 0, 63, 61
2, 81758, Note_on_c, 0, 58, 50
2, 81792, Control_c, 0, 64, 0
2, 81821, Note_on_c, 0, 53, 48
2, 81976, Control_c, 0, 64, 127
2, 82395, Note_on_c, 0, 63, 0
2, 82397, Note_on_c, 0, 58, 0
2, 82520, Control_c, 0, 64, 0
2, 82536, Note_on_c, 0, 62, 65
2, 82538, Note_on_c, 0, 53, 0
2, 82562, Note_on_c, 0, 46, 43
2, 82586, Note_on_c, 0, 58, 26
2, 82667, Note_on_c, 0, 58, 0
2, 82720, Control_c, 0, 64, 127
2, 82774, Note_on_c, 0, 62, 0
2, 83638, Note_on_c, 0, 46, 0
2, 84307, Note_on_c, 0, 74, 68
2, 84350, Note_on_c, 0, 65, 50
2, 84358, Note_on_c, 0, 58, 39
2, 84437, Control_c, 0, 64, 0
2, 84461, Control_c, 0, 64, 127
2, 84658, Note_on_c, 0, 65, 0
2, 84659, Note_on_c, 0, 74, 0
2, 84986, Note_on_c, 0, 58, 0
2, 85165, Note_on_c, 0, 69, 63
2, 85174, Note_on_c, 0, 77, 72
2, 85208, Note_on_c, 0, 57, 48
2, 85416, Note_on_c, 0, 77, 0
2, 85458, Note_on_c, 0, 69, 0
2, 85763, Note_on_c, 0, 57, 0
2, 85931, Note_on_c, 0, 81, 81
2, 85962, Note_on_c, 0, 69, 57
2, 85976, Note_on_c, 0, 57, 46
2, 86136, Note_on_c, 0, 69, 0
2, 86186, Note_on_c, 0, 81, 0
2, 86374, Note_on_c, 0, 57, 0
2, 86986, Note_on_c, 0, 84, 62
2, 87043, Note_on_c, 0, 77, 49
2, 87061, Control_c, 0, 64, 0
2, 87085, Note_on_c, 0, 43, 43
2, 87318, Control_c, 0, 64, 127
2, 87733, Note_on_c, 0, 57, 49
2, 87760, Note_on_c, 0, 43, 0
2, 88374, Note_on_c, 0, 70, 51
2, 88413, Note_on_c, 0, 84, 0
2, 88418, Note_on_c, 0, 58, 41
2, 88506, Note_on_c, 0, 57, 0
2, 88962, Note_on_c, 0, 70, 0
2, 89030, Note_on_c, 0, 77, 0
2, 89040, Note_on_c, 0, 82, 63
2, 89048, Note_on_c, 0, 62, 45
2, 89277, Note_on_c, 0, 82, 0
2, 89624, Note_on_c, 0, 62, 0
2, 89682, Note_on_c, 0, 86, 69
2, 89704, Note_on_c, 0, 53, 48
2, 89712, Control_c, 0, 64, 0
2, 89720, Note_on_c, 0, 77, 46
2, 89725, Note_on_c, 0, 58, 0
2, 89947, Control_c, 0, 64, 127
2, 90406, Note_on_c, 0, 62, 44
2, 90709, Note_on_c, 0, 86, 0
2, 91091, Note_on_c, 0, 74, 39
2, 91186, Note_on_c, 0, 77, 0
2, 91291, Note_on_c, 0, 74, 0
2, 91424, Note_on_c, 0, 53, 0
2, 92074, Note_on_c, 0, 72, 57
2, 92138, Note_on_c, 0, 53, 29
2, 92333, Note_on_c, 0, 53, 0
2, 93550, Note_on_c, 0, 70, 49
2, 93802, Note_on_c, 0, 72, 0
2, 94422, Note_on_c, 0, 51, 36
2, 94432, Note_on_c, 0, 69, 41
2, 94506, Note_on_c, 0, 70, 0
2, 94570, Control_c, 0, 64, 0
2, 94754, Control_c, 0, 64, 127
2, 95270, Note_on_c, 0, 67, 63
2, 95290, Note_on_c, 0, 62, 0
2, 95314, Note_on_c, 0, 58, 38
2, 95317, Note_on_c, 0, 69, 0
2, 95998, Note_on_c, 0, 66, 71
2, 96002, Control_c, 0, 64, 0
2, 96050, Note_on_c, 0, 62, 42
2, 96118, Control_c, 0, 64, 127
2, 96120, Note_on_c, 0, 67, 0
2, 96315, Note_on_c, 0, 51, 0
2, 96458, Note_on_c, 0, 62, 0
2, 96613, Note_on_c, 0, 66, 0
2, 96650, Note_on_c, 0, 67, 61
2, 96683, Note_on_c, 0, 51, 45
2, 96786, Note_on_c, 0, 67, 0
2, 97064, Note_on_c, 0, 58, 0
2, 97155, Note_on_c, 0, 51, 0
2, 97379, Control_c, 0, 64, 0
2, 97400, Note_on_c, 0, 77, 90
2, 97403, Note_on_c, 0, 58, 48
2, 97427, Note_on_c, 0, 50, 52
2, 97549, Control_c, 0, 64, 127
2, 97747, Note_on_c, 0, 77, 0
2, 98134, Note_on_c, 0, 75, 72
2, 98162, Note_on_c, 0, 50, 0
2, 98360, Note_on_c, 0, 58, 0
2, 98627, Note_on_c, 0, 75, 0
2, 98886, Control_c, 0, 64, 0
2, 98920, Note_on_c, 0, 75, 65
2, 98934, Note_on_c, 0, 58, 45
2, 98952, Note_on_c, 0, 63, 44
2, 98966, Note_on_c, 0, 67, 43
2, 98976, Note_on_c, 0, 48, 39
2, 99054, Control_c, 0, 64, 127
2, 99213, Note_on_c, 0, 48, 0
2, 99374, Note_on_c, 0, 58, 0
2, 99690, Control_c, 0, 64, 0
2, 99712, Note_on_c, 0, 46, 65
2, 99790, Control_c, 0, 64, 127
2, 99802, Note_on_c, 0, 67, 0
2, 99837, Note_on_c, 0, 63, 0
2, 99890, Note_on_c, 0, 75, 0
2, 100309, Note_on_c, 0, 46, 0
2, 100470, Control_c, 0, 64, 0
2, 100502, Note_on_c, 0, 67, 63
2, 100506, Note_on_c, 0, 60, 62
2, 100526, Note_on_c, 0, 45, 54
2, 100558, Note_on_c, 0, 55, 49
2, 100586, Note_on_c, 0, 45, 0
2, 100642, Note_on_c, 0, 60, 0
2, 100646, Control_c, 0, 64, 127
2, 100709, Note_on_c, 0, 55, 0
2, 100733, Note_on_c, 0, 67, 0
2, 101818, Note_on_c, 0, 63, 64
2, 101824, Note_on_c, 0, 79, 84
2, 101843, Note_on_c, 0, 67, 81
2, 101851, Note_on_c, 0, 57, 56
2, 101875, Control_c, 0, 64, 24
2, 101877, Note_on_c, 0, 55, 61
2, 101878, Control_c, 0, 64, 0
2, 101915, Note_on_c, 0, 60, 42
2, 101918, Note_on_c, 0, 56, 37
2, 102064, Control_c, 0, 64, 127
2, 102131, Note_on_c, 0, 56, 0
2, 102389, Note_on_c, 0, 55, 0
2, 102509, Note_on_c, 0, 57, 0
2, 102509, Note_on_c, 0, 63, 0
2, 102610, Note_on_c, 0, 67, 0
2, 102654, Note_on_c, 0, 60, 0
2, 102738, Note_on_c, 0, 79, 0
2, 103336, Note_on_c, 0, 77, 76
2, 103355, Note_on_c, 0, 63, 57
2, 103360, Note_on_c, 0, 65, 58
2, 103475, Note_on_c, 0, 57, 31
2, 103579, Note_on_c, 0, 63, 0
2, 103581, Note_on_c, 0, 57, 0
2, 103618, Note_on_c, 0, 65, 0
2, 103674, Note_on_c, 0, 77, 0
2, 104304, Control_c, 0, 64, 0
2, 104363, Note_on_c, 0, 77, 76
2, 104374, Note_on_c, 0, 66, 63
2, 104389, Note_on_c, 0, 72, 66
2, 104405, Note_on_c, 0, 60, 56
2, 104426, Note_on_c, 0, 50, 48
2, 104605, Control_c, 0, 64, 127
2, 105219, Note_on_c, 0, 77, 0
2, 105365, Note_on_c, 0, 75, 61
2, 105400, Note_on_c, 0, 54, 42
2, 105474, Note_on_c, 0, 60, 0
2, 105597, Note_on_c, 0, 72, 0
2, 105822, Note_on_c, 0, 66, 0
2, 105822, Note_on_c, 0, 75, 0
2, 106358, Note_on_c, 0, 74, 68
2, 106363, Note_on_c, 0, 66, 49
2, 106365, Control_c, 0, 64, 0
2, 106371, Note_on_c, 0, 68, 48
2, 106408, Note_on_c, 0, 60, 36
2, 106614, Control_c, 0, 64, 127
2, 106874, Note_on_c, 0, 50, 0
2, 107222, Note_on_c, 0, 74, 0
2, 107277, Note_on_c, 0, 60, 0
2, 107326, Note_on_c, 0, 50, 40
2, 107331, Note_on_c, 0, 72, 50
2, 107413, Note_on_c, 0, 66, 0
2, 107448, Note_on_c, 0, 72, 0
2, 107542, Note_on_c, 0, 68, 0
2, 107552, Note_on_c, 0, 54, 0
2, 107579, Note_on_c, 0, 50, 0
2, 108330, Control_c, 0, 64, 0
2, 108346, Note_on_c, 0, 43, 46
2, 108354, Note_on_c, 0, 70, 51
2, 108381, Note_on_c, 0, 58, 36
2, 108384, Note_on_c, 0, 55, 38
2, 108394, Note_on_c, 0, 50, 34
2, 108395, Note_on_c, 0, 62, 47
2, 108632, Control_c, 0, 64, 127
2, 108802, Note_on_c, 0, 43, 0
2, 108918, Note_on_c, 0, 55, 0
2, 109189, Note_on_c, 0, 57, 75
2, 109654, Note_on_c, 0, 70, 0
2, 109699, Note_on_c, 0, 58, 0
2, 109739, Note_on_c, 0, 62, 0
2, 109760, Note_on_c, 0, 57, 0
2, 109912, Control_c, 0, 64, 0
2, 109957, Note_on_c, 0, 70, 73
2, 109965, Note_on_c, 0, 55, 63
2, 109973, Note_on_c, 0, 58, 66
2, 109982, Note_on_c, 0, 62, 66
2, 110101, Control_c, 0, 64, 127
2, 110387, Note_on_c, 0, 70, 0
2, 110670, Note_on_c, 0, 70, 81
2, 110754, Note_on_c, 0, 68, 38
2, 110763, Note_on_c, 0, 58, 0
2, 110784, Note_on_c, 0, 62, 0
2, 110829, Note_on_c, 0, 68, 0
2, 110957, Note_on_c, 0, 70, 0
2, 111026, Note_on_c, 0, 55, 0
2, 111301, Note_on_c, 0, 72, 82
2, 111317, Note_on_c, 0, 65, 68
2, 111322, Note_on_c, 0, 62, 73
2, 111714, Note_on_c, 0, 72, 0
2, 111765, Note_on_c, 0, 62, 0
2, 111936, Note_on_c, 0, 70, 82
2, 111946, Note_on_c, 0, 55, 57
2, 112120, Note_on_c, 0, 65, 0
2, 112211, Note_on_c, 0, 55, 0
2, 112269, Note_on_c, 0, 70, 0
2, 112520, Control_c, 0, 64, 0
2, 112592, Note_on_c, 0, 69, 78
2, 112597, Note_on_c, 0, 53, 69
2, 112600, Note_on_c, 0, 60, 74
2, 112611, Note_on_c, 0, 65, 68
2, 112770, Control_c, 0, 64, 127
2, 112816, Note_on_c, 0, 65, 0
2, 112976, Note_on_c, 0, 50, 0
2, 113093, Note_on_c, 0, 60, 0
2, 113123, Note_on_c, 0, 53, 0
2, 113222, Note_on_c, 0, 69, 0
2, 113237, Note_on_c, 0, 65, 72
2, 113374, Note_on_c, 0, 65, 0
2, 113971, Note_on_c, 0, 67, 72
2, 113973, Control_c, 0, 64, 0
2, 113981, Note_on_c, 0, 62, 67
2, 113989, Note_on_c, 0, 55, 62
2, 114008, Note_on_c, 0, 46, 50
2, 114026, Note_on_c, 0, 39, 47
2, 114280, Control_c, 0, 64, 127
2, 114608, Note_on_c, 0, 67, 0
2, 114786, Note_on_c, 0, 67, 79
2, 114891, Note_on_c, 0, 62, 0
2, 115022, Note_on_c, 0, 55, 0
2, 115272, Note_on_c, 0, 67, 0
2, 115458, Note_on_c, 0, 39, 0
2, 115482, Note_on_c, 0, 67, 64
2, 115488, Note_on_c, 0, 58, 72
2, 115496, Control_c, 0, 64, 0
2, 115504, Note_on_c, 0, 50, 78
2, 115509, Note_on_c, 0, 55, 66
2, 115525, Note_on_c, 0, 62, 59
2, 115598, Note_on_c, 0, 46, 0
2, 115802, Control_c, 0, 64, 127
2, 116030, Note_on_c, 0, 67, 0
2, 116142, Note_on_c, 0, 55, 0
2, 116176, Note_on_c, 0, 62, 0
2, 116282, Note_on_c, 0, 67, 80
2, 116325, Note_on_c, 0, 55, 31
2, 116402, Note_on_c, 0, 55, 0
2, 116448, Note_on_c, 0, 58, 0
2, 116693, Note_on_c, 0, 67, 0
2, 117070, Control_c, 0, 64, 24
2, 117075, Control_c, 0, 64, 0
2, 117082, Note_on_c, 0, 67, 66
2, 117090, Note_on_c, 0, 58, 68
2, 117093, Note_on_c, 0, 61, 65
2, 117102, Note_on_c, 0, 50, 0
2, 117109, Note_on_c, 0, 49, 66
2, 117122, Note_on_c, 0, 55, 62
2, 117422, Control_c, 0, 64, 127
2, 117630, Note_on_c, 0, 67, 0
2, 117776, Note_on_c, 0, 55, 0
2, 117952, Note_on_c, 0, 61, 0
2, 117976, Note_on_c, 0, 67, 72
2, 118043, Note_on_c, 0, 58, 0
2, 118155, Note_on_c, 0, 67, 0
2, 118720, Control_c, 0, 64, 0
2, 118738, Note_on_c, 0, 69, 82
2, 118765, Note_on_c, 0, 58, 84
2, 118787, Note_on_c, 0, 64, 68
2, 118790, Note_on_c, 0, 61, 66
2, 118795, Note_on_c, 0, 57, 75
2, 118840, Note_on_c, 0, 67, 37
2, 118981, Control_c, 0, 64, 127
2, 119186, Note_on_c, 0, 49, 0
2, 119213, Note_on_c, 0, 69, 0
2, 119229, Note_on_c, 0, 67, 0
2, 119338, Note_on_c, 0, 58, 0
2, 119382, Note_on_c, 0, 61, 0
2, 119475, Note_on_c, 0, 64, 0
2, 119506, Note_on_c, 0, 57, 0
2, 119605, Note_on_c, 0, 70, 83
2, 119627, Note_on_c, 0, 49, 54
2, 119706, Note_on_c, 0, 49, 0
2, 119814, Note_on_c, 0, 70, 0
2, 120528, Control_c, 0, 64, 0
2, 120533, Note_on_c, 0, 29, 70
2, 120538, Note_on_c, 0, 65, 73
2, 120542, Note_on_c, 0, 41, 66
2, 120555, Note_on_c, 0, 58, 71
2, 120563, Note_on_c, 0, 62, 68
2, 120570, Note_on_c, 0, 53, 71
2, 120605, Note_on_c, 0, 63, 36
2, 120611, Note_on_c, 0, 64, 47
2, 120795, Control_c, 0, 64, 127
2, 120890, Note_on_c, 0, 53, 0
2, 120947, Note_on_c, 0, 64, 0
2, 120963, Note_on_c, 0, 29, 0
2, 120968, Note_on_c, 0, 63, 0
2, 121024, Note_on_c, 0, 62, 0
2, 121035, Note_on_c, 0, 58, 0
2, 121064, Note_on_c, 0, 41, 0
2, 121149, Note_on_c, 0, 65, 0
2, 122469, Note_on_c, 0, 77, 65
2, 122470, Note_on_c, 0, 70, 58
2, 122474, Note_on_c, 0, 53, 60
2, 122475, Note_on_c, 0, 74, 62
2, 122478, Note_on_c, 0, 65, 57
2, 122811, Note_on_c, 0, 74, 0
2, 122821, Note_on_c, 0, 77, 0
2, 122870, Note_on_c, 0, 53, 0
2, 122958, Note_on_c, 0, 70, 0
2, 122976, Note_on_c, 0, 65, 0
2, 124376, Note_on_c, 0, 65, 56
2, 124386, Note_on_c, 0, 63, 51
2, 124392, Control_c, 0, 64, 0
2, 124403, Note_on_c, 0, 55, 43
2, 124405, Note_on_c, 0, 58, 54
2, 124443, Note_on_c, 0, 41, 46
2, 124453, Note_on_c, 0, 29, 45
2, 124613, Control_c, 0, 64, 127
2, 124786, Note_on_c, 0, 55, 0
2, 124882, Note_on_c, 0, 29, 0
2, 124883, Note_on_c, 0, 58, 0
2, 124963, Note_on_c, 0, 63, 0
2, 124987, Note_on_c, 0, 41, 0
2, 125013, Note_on_c, 0, 65, 0
2, 126517, Note_on_c, 0, 75, 54
2, 126554, Note_on_c, 0, 67, 42
2, 126560, Note_on_c, 0, 70, 49
2, 126571, Note_on_c, 0, 65, 45
2, 127066, Note_on_c, 0, 65, 0
2, 127261, Note_on_c, 0, 67, 0
2, 127266, Note_on_c, 0, 70, 0
2, 127555, Note_on_c, 0, 75, 0
2, 128611, Note_on_c, 0, 75, 54
2, 128634, Control_c, 0, 64, 0
2, 128648, Note_on_c, 0, 63, 38
2, 128658, Note_on_c, 0, 67, 48
2, 128675, Note_on_c, 0, 58, 35
2, 128704, Note_on_c, 0, 46, 31
2, 128939, Control_c, 0, 64, 127
2, 129563, Note_on_c, 0, 58, 0
2, 129766, Note_on_c, 0, 57, 41
2, 130243, Note_on_c, 0, 57, 0
2, 130296, Note_on_c, 0, 67, 0
2, 130550, Note_on_c, 0, 63, 0
2, 130840, Note_on_c, 0, 63, 40
2, 130870, Note_on_c, 0, 58, 39
2, 130877, Note_on_c, 0, 67, 46
2, 131541, Note_on_c, 0, 46, 0
2, 132056, Note_on_c, 0, 46, 36
2, 132253, Note_on_c, 0, 67, 0
2, 132330, Note_on_c, 0, 75, 0
2, 132438, Note_on_c, 0, 63, 0
2, 132474, Note_on_c, 0, 46, 0
2, 132539, Note_on_c, 0, 58, 0
2, 133747, Note_on_c, 0, 74, 48
2, 133750, Note_on_c, 0, 62, 39
2, 133766, Note_on_c, 0, 46, 41
2, 133797, Control_c, 0, 64, 0
2, 134200, Control_c, 0, 64, 127
2, 135267, Note_on_c, 0, 74, 0
2, 135296, Note_on_c, 0, 46, 0
2, 135424, Note_on_c, 0, 62, 0
2, 136912, Note_on_c, 0, 65, 43
2, 136926, Note_on_c, 0, 54, 39
2, 136971, Note_on_c, 0, 60, 46
2, 136979, Control_c, 0, 64, 88
2, 136986, Control_c, 0, 64, 0
2, 137000, Note_on_c, 0, 26, 36
2, 137046, Note_on_c, 0, 38, 22
2, 137525, Control_c, 0, 64, 127
2, 138014, Control_c, 0, 64, 127
2, 138022, Control_c, 0, 64, 0
2, 138051, Note_on_c, 0, 70, 74
2, 138059, Note_on_c, 0, 50, 49
2, 138062, Note_on_c, 0, 43, 44
2, 138073, Note_on_c, 0, 55, 42
2, 138096, Note_on_c, 0, 62, 63
2, 138224, Control_c, 0, 64, 88
2, 138227, Control_c, 0, 64, 127
2, 138270, Control_c, 0, 64, 0
2, 138292, Control_c, 0, 64, 127
2, 138452, Control_c, 0, 64, 0
2, 138483, Control_c, 0, 64, 127
2, 138802, Note_on_c, 0, 55, 0
2, 138976, Control_c, 0, 64, 0
2, 139036, Control_c, 0, 64, 127
2, 139061, Note_on_c, 0, 65, 0
2, 139100, Note_on_c, 0, 55, 34
2, 139426, Note_on_c, 0, 43, 0
2, 139436, Note_on_c, 0, 62, 0
2, 139483, Note_on_c, 0, 50, 0
2, 139543, Note_on_c, 0, 55, 0
2, 139625, Note_on_c, 0, 62, 49
2, 139965, Note_on_c, 0, 70, 0
2, 140020, Control_c, 0, 64, 0
2, 140022, Note_on_c, 0, 62, 0
2, 140120, Note_on_c, 0, 63, 57
2, 140125, Note_on_c, 0, 58, 34
2, 140127, Note_on_c, 0, 48, 40
2, 140145, Note_on_c, 0, 55, 41
2, 140307, Control_c, 0, 64, 127
2, 140463, Note_on_c, 0, 63, 0
2, 140587, Note_on_c, 0, 55, 0
2, 140699, Note_on_c, 0, 58, 0
2, 141051, Note_on_c, 0, 82, 88
2, 141069, Note_on_c, 0, 58, 47
2, 141074, Note_on_c, 0, 74, 82
2, 141101, Note_on_c, 0, 55, 12
2, 141261, Note_on_c, 0, 48, 0
2, 141270, Note_on_c, 0, 82, 0
2, 141309, Note_on_c, 0, 55, 0
2, 141318, Note_on_c, 0, 74, 0
2, 141436, Note_on_c, 0, 58, 0
2, 141450, Note_on_c, 0, 81, 77
2, 141467, Note_on_c, 0, 72, 49
2, 141611, Note_on_c, 0, 72, 0
2, 141622, Note_on_c, 0, 81, 0
2, 141729, Note_on_c, 0, 79, 61
2, 141943, Note_on_c, 0, 79, 0
2, 141960, Control_c, 0, 64, 0
2, 142001, Note_on_c, 0, 63, 37
2, 142016, Note_on_c, 0, 69, 42
2, 142018, Note_on_c, 0, 81, 54
2, 142026, Note_on_c, 0, 75, 48
2, 142034, Note_on_c, 0, 58, 45
2, 142088, Note_on_c, 0, 53, 29
2, 142176, Note_on_c, 0, 60, 0
2, 142179, Control_c, 0, 64, 127
2, 142184, Note_on_c, 0, 54, 0
2, 142212, Note_on_c, 0, 69, 0
2, 142232, Note_on_c, 0, 81, 0
2, 142259, Note_on_c, 0, 26, 0
2, 142278, Note_on_c, 0, 38, 0
2, 142280, Note_on_c, 0, 75, 0
2, 142375, Note_on_c, 0, 84, 58
2, 142471, Note_on_c, 0, 84, 0
2, 142636, Note_on_c, 0, 63, 0
2, 142826, Note_on_c, 0, 58, 0
2, 142934, Note_on_c, 0, 63, 46
2, 142946, Note_on_c, 0, 77, 56
2, 142965, Note_on_c, 0, 60, 23
2, 142968, Note_on_c, 0, 69, 30
2, 142982, Note_on_c, 0, 72, 40
2, 143210, Note_on_c, 0, 53, 0
2, 143381, Note_on_c, 0, 63, 0
2, 143492, Note_on_c, 0, 60, 0
2, 143498, Note_on_c, 0, 69, 0
2, 143583, Note_on_c, 0, 72, 0
2, 143618, Note_on_c, 0, 77, 0
2, 143623, Note_on_c, 0, 75, 57
2, 143789, Note_on_c, 0, 75, 0
2, 143861, Control_c, 0, 64, 0
2, 143911, Note_on_c, 0, 75, 50
2, 143935, Note_on_c, 0, 67, 41
2, 143946, Note_on_c, 0, 70, 46
2, 143956, Note_on_c, 0, 58, 35
2, 144032, Control_c, 0, 64, 127
2, 144251, Note_on_c, 0, 58, 0
2, 144416, Note_on_c, 0, 58, 43
2, 144479, Note_on_c, 0, 67, 0
2, 144687, Note_on_c, 0, 58, 0
2, 144752, Note_on_c, 0, 70, 0
2, 144784, Note_on_c, 0, 75, 0
2, 144879, Control_c, 0, 64, 0
2, 144904, Note_on_c, 0, 70, 39
2, 144906, Note_on_c, 0, 65, 42
2, 144916, Note_on_c, 0, 74, 55
2, 145074, Control_c, 0, 64, 127
2, 145370, Note_on_c, 0, 57, 82
2, 145406, Control_c, 0, 64, 0
2, 145488, Control_c, 0, 64, 127
2, 145757, Control_c, 0, 64, 0
2, 145842, Note_on_c, 0, 58, 73
2, 145847, Note_on_c, 0, 57, 0
2, 145897, Note_on_c, 0, 74, 0
2, 145976, Control_c, 0, 64, 127
2, 145980, Note_on_c, 0, 70, 0
2, 146009, Note_on_c, 0, 65, 0
2, 146317, Note_on_c, 0, 62, 88
2, 146624, Note_on_c, 0, 62, 0
2, 146654, Note_on_c, 0, 56, 43
2, 146666, Note_on_c, 0, 58, 0
2, 146740, Control_c, 0, 64, 0
2, 146778, Note_on_c, 0, 57, 84
2, 146780, Note_on_c, 0, 65, 127
2, 146788, Note_on_c, 0, 56, 0
2, 146975, Control_c, 0, 64, 127
2, 147033, Control_c, 0, 64, 0
2, 147043, Note_on_c, 0, 65, 0
2, 147110, Note_on_c, 0, 65, 87
2, 147205, Control_c, 0, 64, 127
2, 147331, Note_on_c, 0, 65, 0
2, 147385, Control_c, 0, 64, 0
2, 147429, Note_on_c, 0, 69, 92
2, 147470, Control_c, 0, 64, 127
2, 147559, Note_on_c, 0, 69, 0
2, 147710, Control_c, 0, 64, 0
2, 147752, Note_on_c, 0, 57, 0
2, 147776, Note_on_c, 0, 72, 82
2, 147788, Note_on_c, 0, 55, 56
2, 147905, Control_c, 0, 64, 127
2, 147934, Note_on_c, 0, 55, 0
2, 148163, Note_on_c, 0, 72, 0
2, 148185, Note_on_c, 0, 58, 45
2, 148187, Note_on_c, 0, 70, 62
2, 148189, Note_on_c, 0, 57, 39
2, 148200, Note_on_c, 0, 62, 39
2, 148418, Note_on_c, 0, 58, 0
2, 148456, Note_on_c, 0, 62, 0
2, 148537, Note_on_c, 0, 57, 0
2, 148767, Note_on_c, 0, 62, 41
2, 148772, Note_on_c, 0, 58, 43
2, 148774, Note_on_c, 0, 57, 37
2, 148832, Note_on_c, 0, 70, 0
2, 149120, Note_on_c, 0, 69, 49
2, 149319, Note_on_c, 0, 69, 0
2, 149324, Note_on_c, 0, 62, 0
2, 149340, Note_on_c, 0, 57, 0
2, 149418, Note_on_c, 0, 70, 52
2, 149480, Note_on_c, 0, 58, 0
2, 149655, Control_c, 0, 64, 0
2, 149672, Note_on_c, 0, 70, 0
2, 149704, Note_on_c, 0, 74, 60
2, 149713, Note_on_c, 0, 62, 34
2, 149714, Note_on_c, 0, 58, 39
2, 149739, Note_on_c, 0, 53, 40
2, 149858, Control_c, 0, 64, 127
2, 150107, Note_on_c, 0, 58, 0
2, 150109, Note_on_c, 0, 62, 0
2, 150285, Note_on_c, 0, 74, 0
2, 150647, Note_on_c, 0, 62, 27
2, 150653, Note_on_c, 0, 58, 37
2, 151036, Note_on_c, 0, 94, 85
2, 151139, Note_on_c, 0, 53, 0
2, 151161, Note_on_c, 0, 58, 0
2, 151208, Note_on_c, 0, 62, 0
2, 151293, Note_on_c, 0, 94, 0
2, 151306, Note_on_c, 0, 93, 68
2, 151446, Note_on_c, 0, 92, 57
2, 151504, Note_on_c, 0, 93, 0
2, 151581, Note_on_c, 0, 92, 0
2, 151597, Control_c, 0, 64, 0
2, 151604, Note_on_c, 0, 91, 49
2, 151648, Note_on_c, 0, 60, 39
2, 151650, Note_on_c, 0, 55, 29
2, 151656, Note_on_c, 0, 65, 26
2, 151697, Note_on_c, 0, 91, 0
2, 151718, Note_on_c, 0, 90, 45
2, 151896, Note_on_c, 0, 90, 0
2, 151916, Note_on_c, 0, 91, 53
2, 151989, Control_c, 0, 64, 127
2, 152217, Note_on_c, 0, 65, 0
2, 152242, Note_on_c, 0, 60, 0
2, 152537, Note_on_c, 0, 65, 37
2, 152549, Note_on_c, 0, 60, 39
2, 152730, Note_on_c, 0, 65, 0
2, 152771, Note_on_c, 0, 91, 0
2, 152775, Note_on_c, 0, 90, 63
2, 152863, Note_on_c, 0, 60, 0
2, 152908, Note_on_c, 0, 90, 0
2, 152943, Note_on_c, 0, 55, 0
2, 152984, Note_on_c, 0, 91, 74
2, 153067, Note_on_c, 0, 91, 0
2, 153267, Note_on_c, 0, 101, 81
2, 153427, Control_c, 0, 64, 0
2, 153472, Note_on_c, 0, 101, 0
2, 153517, Note_on_c, 0, 48, 46
2, 153545, Note_on_c, 0, 99, 69
2, 153648, Control_c, 0, 64, 127
2, 153746, Note_on_c, 0, 99, 0
2, 153855, Note_on_c, 0, 48, 0
2, 153875, Note_on_c, 0, 55, 52
2, 154000, Note_on_c, 0, 55, 0
2, 154152, Note_on_c, 0, 62, 71
2, 154483, Note_on_c, 0, 62, 0
2, 154487, Note_on_c, 0, 60, 76
2, 154494, Control_c, 0, 64, 0
2, 154587, Control_c, 0, 64, 127
2, 154693, Control_c, 0, 64, 0
2, 154764, Note_on_c, 0, 60, 0
2, 154797, Note_on_c, 0, 58, 79
2, 155082, Note_on_c, 0, 63, 60
2, 155104, Control_c, 0, 64, 127
2, 155232, Note_on_c, 0, 63, 0
2, 155288, Control_c, 0, 64, 0
2, 155319, Note_on_c, 0, 58, 0
2, 155339, Note_on_c, 0, 57, 52
2, 155353, Note_on_c, 0, 67, 57
2, 155389, Control_c, 0, 64, 127
2, 155512, Note_on_c, 0, 67, 0
2, 155552, Note_on_c, 0, 57, 0
2, 155734, Note_on_c, 0, 72, 82
2, 155871, Note_on_c, 0, 72, 0
2, 156035, Note_on_c, 0, 79, 127
2, 156315, Note_on_c, 0, 79, 0
2, 156363, Note_on_c, 0, 63, 58
2, 156375, Note_on_c, 0, 55, 54
2, 156376, Control_c, 0, 64, 0
2, 156382, Note_on_c, 0, 79, 117
2, 156393, Note_on_c, 0, 60, 38
2, 156397, Note_on_c, 0, 57, 47
2, 156504, Control_c, 0, 64, 127
2, 156655, Note_on_c, 0, 79, 0
2, 156719, Note_on_c, 0, 77, 102
2, 156902, Note_on_c, 0, 55, 0
2, 156934, Note_on_c, 0, 63, 0
2, 156935, Note_on_c, 0, 77, 0
2, 156958, Note_on_c, 0, 57, 0
2, 157011, Note_on_c, 0, 60, 0
2, 157093, Note_on_c, 0, 76, 75
2, 157168, Note_on_c, 0, 77, 84
2, 157213, Note_on_c, 0, 76, 0
2, 157263, Control_c, 0, 64, 0
2, 157341, Note_on_c, 0, 54, 45
2, 157370, Note_on_c, 0, 60, 51
2, 157374, Note_on_c, 0, 65, 29
2, 157410, Note_on_c, 0, 77, 0
2, 157488, Note_on_c, 0, 77, 75
2, 157589, Control_c, 0, 64, 127
2, 157756, Note_on_c, 0, 75, 60
2, 157948, Note_on_c, 0, 65, 0
2, 158015, Note_on_c, 0, 77, 0
2, 158026, Note_on_c, 0, 60, 0
2, 158164, Note_on_c, 0, 54, 0
2, 158203, Note_on_c, 0, 75, 0
2, 158295, Note_on_c, 0, 74, 46
2, 158302, Note_on_c, 0, 54, 25
2, 158320, Note_on_c, 0, 65, 24
2, 158326, Note_on_c, 0, 60, 33
2, 158603, Note_on_c, 0, 65, 0
2, 158655, Note_on_c, 0, 60, 0
2, 158848, Note_on_c, 0, 54, 0
2, 159227, Control_c, 0, 64, 0
2, 159301, Note_on_c, 0, 58, 31
2, 159305, Note_on_c, 0, 55, 32
2, 159307, Note_on_c, 0, 62, 21
2, 159322, Note_on_c, 0, 57, 26
2, 159517, Note_on_c, 0, 74, 0
2, 159601, Note_on_c, 0, 72, 72
2, 159944, Note_on_c, 0, 71, 49
2, 159966, Note_on_c, 0, 62, 0
2, 159991, Note_on_c, 0, 72, 0
2, 160023, Note_on_c, 0, 70, 46
2, 160024, Note_on_c, 0, 58, 0
2, 160032, Note_on_c, 0, 71, 0
2, 160150, Note_on_c, 0, 70, 0
2, 160152, Note_on_c, 0, 69, 41
2, 160226, Note_on_c, 0, 58, 39
2, 160237, Note_on_c, 0, 62, 33
2, 160269, Note_on_c, 0, 69, 0
2, 160311, Note_on_c, 0, 70, 56
2, 160424, Control_c, 0, 64, 127
2, 160692, Control_c, 0, 64, 0
2, 160785, Note_on_c, 0, 62, 0
2, 160884, Note_on_c, 0, 70, 0
2, 160888, Note_on_c, 0, 58, 0
2, 160933, Note_on_c, 0, 57, 0
2, 161024, Note_on_c, 0, 70, 83
2, 161090, Control_c, 0, 64, 127
2, 161151, Note_on_c, 0, 70, 0
2, 161200, Control_c, 0, 64, 0
2, 161234, Note_on_c, 0, 57, 4
2, 161257, Note_on_c, 0, 58, 49
2, 161264, Note_on_c, 0, 62, 46
2, 161284, Note_on_c, 0, 72, 115
2, 161389, Control_c, 0, 64, 127
2, 161499, Note_on_c, 0, 57, 0
2, 161588, Note_on_c, 0, 70, 82
2, 161700, Note_on_c, 0, 72, 0
2, 161926, Note_on_c, 0, 62, 0
2, 162000, Note_on_c, 0, 55, 0
2, 162028, Control_c, 0, 64, 0
2, 162078, Note_on_c, 0, 70, 0
2, 162103, Note_on_c, 0, 62, 31
2, 162107, Note_on_c, 0, 53, 41
2, 162127, Note_on_c, 0, 69, 63
2, 162298, Control_c, 0, 64, 127
2, 162537, Note_on_c, 0, 62, 0
2, 162604, Note_on_c, 0, 53, 0
2, 162652, Note_on_c, 0, 58, 0
2, 162807, Note_on_c, 0, 65, 47
2, 162904, Control_c, 0, 64, 0
2, 162958, Note_on_c, 0, 69, 0
2, 162964, Note_on_c, 0, 65, 0
2, 163021, Note_on_c, 0, 51, 39
2, 163024, Note_on_c, 0, 58, 33
2, 163025, Note_on_c, 0, 62, 30
2, 163042, Note_on_c, 0, 67, 43
2, 163062, Note_on_c, 0, 55, 37
2, 163120, Control_c, 0, 64, 127
2, 163358, Note_on_c, 0, 62, 0
2, 163378, Note_on_c, 0, 55, 0
2, 163457, Note_on_c, 0, 58, 0
2, 163505, Control_c, 0, 64, 0
2, 163647, Note_on_c, 0, 51, 0
2, 163930, Note_on_c, 0, 58, 41
2, 163951, Note_on_c, 0, 50, 42
2, 164465, Control_c, 0, 64, 127
2, 164641, Note_on_c, 0, 50, 0
2, 164711, Control_c, 0, 64, 0
2, 164869, Note_on_c, 0, 49, 48
2, 165397, Note_on_c, 0, 55, 57
2, 165412, Control_c, 0, 64, 127
2, 165686, Note_on_c, 0, 67, 0
2, 165882, Note_on_c, 0, 69, 122
2, 166135, Note_on_c, 0, 69, 0
2, 166248, Note_on_c, 0, 55, 0
2, 166261, Note_on_c, 0, 69, 107
2, 166327, Note_on_c, 0, 49, 0
2, 166330, Note_on_c, 0, 58, 0
2, 166514, Note_on_c, 0, 69, 0
2, 166563, Note_on_c, 0, 70, 75
2, 166788, Control_c, 0, 64, 0
2, 166811, Note_on_c, 0, 70, 0
2, 166864, Note_on_c, 0, 62, 45
2, 166871, Note_on_c, 0, 69, 61
2, 166873, Note_on_c, 0, 67, 59
2, 166997, Control_c, 0, 64, 127
2, 167156, Note_on_c, 0, 67, 0
2, 167173, Note_on_c, 0, 69, 0
2, 167231, Note_on_c, 0, 50, 51
2, 167576, Note_on_c, 0, 86, 115
2, 167803, Note_on_c, 0, 62, 0
2, 167905, Note_on_c, 0, 74, 50
2, 167926, Note_on_c, 0, 62, 38
2, 168109, Note_on_c, 0, 74, 0
2, 168184, Note_on_c, 0, 86, 0
2, 168241, Note_on_c, 0, 74, 49
2, 168499, Note_on_c, 0, 62, 0
2, 168563, Note_on_c, 0, 86, 45
2, 168596, Note_on_c, 0, 74, 0
2, 168699, Note_on_c, 0, 86, 0
2, 168866, Note_on_c, 0, 73, 41
2, 168869, Note_on_c, 0, 62, 34
2, 169058, Note_on_c, 0, 62, 0
2, 169067, Note_on_c, 0, 73, 0
2, 169184, Note_on_c, 0, 74, 47
2, 169588, Note_on_c, 0, 74, 0
2, 169760, Note_on_c, 0, 62, 35
2, 169974, Note_on_c, 0, 50, 0
2, 170036, Note_on_c, 0, 62, 0
2, 170214, Note_on_c, 0, 50, 45
2, 170254, Note_on_c, 0, 50, 0
2, 170664, Control_c, 0, 64, 0
2, 170723, Note_on_c, 0, 94, 46
2, 170726, Note_on_c, 0, 82, 39
2, 170730, Note_on_c, 0, 62, 32
2, 170739, Note_on_c, 0, 58, 41
2, 170764, Note_on_c, 0, 57, 34
2, 170764, Control_c, 0, 64, 127
2, 170773, Note_on_c, 0, 53, 33
2, 170784, Note_on_c, 0, 89, 38
2, 170974, Note_on_c, 0, 53, 0
2, 170978, Note_on_c, 0, 62, 0
2, 170979, Note_on_c, 0, 89, 0
2, 170980, Note_on_c, 0, 57, 0
2, 170990, Note_on_c, 0, 58, 0
2, 170991, Note_on_c, 0, 82, 0
2, 170991, Note_on_c, 0, 94, 0
2, 171089, Note_on_c, 0, 94, 53
2, 171096, Note_on_c, 0, 82, 52
2, 171110, Note_on_c, 0, 62, 48
2, 171116, Note_on_c, 0, 58, 42
2, 171117, Note_on_c, 0, 89, 52
2, 171129, Note_on_c, 0, 57, 42
2, 171130, Note_on_c, 0, 53, 43
2, 171292, Note_on_c, 0, 89, 0
2, 171296, Note_on_c, 0, 82, 0
2, 171300, Note_on_c, 0, 53, 0
2, 171306, Note_on_c, 0, 62, 0
2, 171310, Note_on_c, 0, 57, 0
2, 171314, Note_on_c, 0, 94, 0
2, 171320, Note_on_c, 0, 58, 0
2, 171413, Note_on_c, 0, 94, 60
2, 171424, Note_on_c, 0, 82, 54
2, 171428, Note_on_c, 0, 62, 52
2, 171430, Note_on_c, 0, 58, 41
2, 171442, Note_on_c, 0, 89, 59
2, 171447, Note_on_c, 0, 57, 48
2, 171448, Note_on_c, 0, 53, 43
2, 171614, Note_on_c, 0, 53, 0
2, 171629, Note_on_c, 0, 89, 0
2, 171630, Note_on_c, 0, 94, 0
2, 171632, Note_on_c, 0, 82, 0
2, 171636, Note_on_c, 0, 62, 0
2, 171650, Note_on_c, 0, 57, 0
2, 171657, Note_on_c, 0, 58, 0
2, 171782, Note_on_c, 0, 94, 70
2, 171795, Note_on_c, 0, 62, 56
2, 171800, Note_on_c, 0, 58, 47
2, 171805, Note_on_c, 0, 82, 57
2, 171815, Note_on_c, 0, 89, 52
2, 171818, Note_on_c, 0, 57, 46
2, 171833, Note_on_c, 0, 53, 40
2, 171845, Note_on_c, 0, 89, 0
2, 171862, Note_on_c, 0, 94, 0
2, 171900, Note_on_c, 0, 82, 0
2, 171900, Note_on_c, 0, 53, 0
2, 171907, Note_on_c, 0, 62, 0
2, 171947, Note_on_c, 0, 57, 0
2, 171974, Note_on_c, 0, 58, 0
2, 172192, Note_on_c, 0, 62, 53
2, 172196, Note_on_c, 0, 86, 49
2, 172199, Note_on_c, 0, 58, 50
2, 172212, Note_on_c, 0, 57, 41
2, 172235, Note_on_c, 0, 74, 33
2, 172239, Note_on_c, 0, 53, 38
2, 172351, Note_on_c, 0, 86, 0
2, 172360, Note_on_c, 0, 74, 0
2, 172366, Note_on_c, 0, 53, 0
2, 172390, Note_on_c, 0, 62, 0
2, 172398, Note_on_c, 0, 58, 0
2, 172405, Note_on_c, 0, 57, 0
2, 172484, Note_on_c, 0, 74, 69
2, 172497, Note_on_c, 0, 86, 55
2, 172504, Note_on_c, 0, 62, 48
2, 172514, Note_on_c, 0, 58, 42
2, 172527, Note_on_c, 0, 57, 40
2, 172533, Note_on_c, 0, 86, 0
2, 172562, Note_on_c, 0, 62, 0
2, 172563, Note_on_c, 0, 74, 0
2, 172568, Note_on_c, 0, 57, 0
2, 172598, Note_on_c, 0, 58, 0
2, 172634, Note_on_c, 0, 86, 63
2, 172653, Note_on_c, 0, 74, 57
2, 172657, Note_on_c, 0, 62, 42
2, 172660, Note_on_c, 0, 58, 34
2, 172681, Note_on_c, 0, 74, 0
2, 172697, Note_on_c, 0, 86, 0
2, 172710, Note_on_c, 0, 62, 0
2, 172726, Note_on_c, 0, 58, 0
2, 172782, Control_c, 0, 64, 0
2, 172814, Note_on_c, 0, 62, 50
2, 172818, Note_on_c, 0, 75, 68
2, 172821, Note_on_c, 0, 58, 51
2, 172825, Note_on_c, 0, 87, 73
2, 172832, Note_on_c, 0, 55, 57
2, 172897, Control_c, 0, 64, 127
2, 172932, Note_on_c, 0, 85, 22
2, 173011, Note_on_c, 0, 62, 0
2, 173029, Note_on_c, 0, 75, 0
2, 173044, Note_on_c, 0, 85, 0
2, 173061, Note_on_c, 0, 87, 0
2, 173069, Note_on_c, 0, 55, 0
2, 173073, Note_on_c, 0, 58, 0
2, 173483, Note_on_c, 0, 94, 87
2, 173486, Note_on_c, 0, 58, 72
2, 173488, Note_on_c, 0, 62, 75
2, 173492, Note_on_c, 0, 55, 72
2, 173495, Note_on_c, 0, 82, 92
2, 173514, Note_on_c, 0, 92, 52
2, 173623, Note_on_c, 0, 94, 0
2, 173655, Note_on_c, 0, 62, 0
2, 173666, Note_on_c, 0, 55, 0
2, 173681, Note_on_c, 0, 92, 0
2, 173683, Note_on_c, 0, 58, 0
2, 173684, Note_on_c, 0, 82, 0
2, 173766, Note_on_c, 0, 93, 85
2, 173774, Note_on_c, 0, 88, 83
2, 173777, Note_on_c, 0, 58, 64
2, 173779, Note_on_c, 0, 55, 66
2, 173783, Note_on_c, 0, 81, 80
2, 173786, Note_on_c, 0, 62, 75
2, 173957, Note_on_c, 0, 88, 0
2, 173966, Note_on_c, 0, 62, 0
2, 173975, Note_on_c, 0, 93, 0
2, 173979, Note_on_c, 0, 81, 0
2, 173982, Note_on_c, 0, 55, 0
2, 174024, Note_on_c, 0, 58, 0
2, 174115, Note_on_c, 0, 93, 84
2, 174120, Note_on_c, 0, 88, 76
2, 174124, Note_on_c, 0, 58, 57
2, 174127, Note_on_c, 0, 81, 73
2, 174131, Note_on_c, 0, 62, 64
2, 174137, Note_on_c, 0, 55, 66
2, 174217, Note_on_c, 0, 62, 0
2, 174226, Note_on_c, 0, 88, 0
2, 174235, Note_on_c, 0, 93, 0
2, 174261, Note_on_c, 0, 81, 0
2, 174283, Note_on_c, 0, 58, 0
2, 174382, Note_on_c, 0, 58, 61
2, 174391, Note_on_c, 0, 62, 47
2, 174395, Note_on_c, 0, 91, 78
2, 174396, Note_on_c, 0, 55, 0
2, 174406, Note_on_c, 0, 79, 57
2, 174415, Note_on_c, 0, 86, 60
2, 174436, Note_on_c, 0, 62, 0
2, 174474, Note_on_c, 0, 86, 0
2, 174476, Note_on_c, 0, 79, 0
2, 174494, Note_on_c, 0, 58, 0
2, 174540, Note_on_c, 0, 91, 0
2, 174649, Control_c, 0, 64, 0
2, 174697, Note_on_c, 0, 60, 53
2, 174701, Note_on_c, 0, 93, 77
2, 174705, Note_on_c, 0, 63, 45
2, 174712, Note_on_c, 0, 53, 45
2, 174715, Note_on_c, 0, 81, 63
2, 174718, Note_on_c, 0, 88, 63
2, 174773, Note_on_c, 0, 57, 23
2, 174842, Note_on_c, 0, 81, 0
2, 174863, Control_c, 0, 64, 127
2, 174878, Note_on_c, 0, 88, 0
2, 174903, Note_on_c, 0, 93, 0
2, 174921, Note_on_c, 0, 53, 0
2, 174931, Note_on_c, 0, 63, 0
2, 174946, Note_on_c, 0, 57, 0
2, 174979, Note_on_c, 0, 60, 0
2, 175034, Note_on_c, 0, 96, 75
2, 175039, Note_on_c, 0, 63, 52
2, 175048, Note_on_c, 0, 84, 53
2, 175056, Note_on_c, 0, 91, 60
2, 175077, Note_on_c, 0, 60, 36
2, 175084, Note_on_c, 0, 57, 35
2, 175156, Note_on_c, 0, 57, 0
2, 175159, Note_on_c, 0, 63, 0
2, 175165, Note_on_c, 0, 96, 0
2, 175166, Note_on_c, 0, 91, 0
2, 175220, Note_on_c, 0, 60, 0
2, 175228, Note_on_c, 0, 84, 0
2, 175598, Note_on_c, 0, 63, 47
2, 175614, Note_on_c, 0, 89, 61
2, 175633, Note_on_c, 0, 60, 45
2, 175638, Note_on_c, 0, 77, 41
2, 175645, Note_on_c, 0, 84, 49
2, 175661, Note_on_c, 0, 57, 39
2, 175767, Note_on_c, 0, 89, 0
2, 175822, Note_on_c, 0, 77, 0
2, 175824, Note_on_c, 0, 84, 0
2, 175956, Note_on_c, 0, 63, 0
2, 175962, Note_on_c, 0, 57, 0
2, 176027, Note_on_c, 0, 60, 0
2, 176333, Note_on_c, 0, 87, 57
2, 176337, Note_on_c, 0, 75, 51
2, 176398, Note_on_c, 0, 75, 0
2, 176441, Note_on_c, 0, 87, 0
2, 176544, Control_c, 0, 64, 0
2, 176557, Note_on_c, 0, 87, 48
2, 176570, Note_on_c, 0, 46, 38
2, 176572, Note_on_c, 0, 58, 37
2, 176575, Note_on_c, 0, 75, 39
2, 176594, Note_on_c, 0, 53, 39
2, 176637, Control_c, 0, 64, 127
2, 176648, Note_on_c, 0, 82, 35
2, 176801, Note_on_c, 0, 82, 0
2, 176845, Note_on_c, 0, 87, 0
2, 176869, Note_on_c, 0, 75, 0
2, 176902, Note_on_c, 0, 53, 0
2, 176922, Note_on_c, 0, 58, 0
2, 176992, Note_on_c, 0, 46, 0
2, 177060, Note_on_c, 0, 46, 32
2, 177096, Note_on_c, 0, 57, 33
2, 177106, Note_on_c, 0, 74, 45
2, 177109, Note_on_c, 0, 86, 36
2, 177418, Note_on_c, 0, 86, 0
2, 177487, Note_on_c, 0, 74, 0
2, 177516, Note_on_c, 0, 46, 0
2, 177564, Note_on_c, 0, 57, 0
2, 177814, Note_on_c, 0, 81, 111
2, 177967, Note_on_c, 0, 81, 0
2, 178028, Note_on_c, 0, 82, 85
2, 178219, Note_on_c, 0, 82, 0
2, 178262, Note_on_c, 0, 84, 82
2, 178286, Note_on_c, 0, 62, 48
2, 178289, Note_on_c, 0, 58, 45
2, 178296, Note_on_c, 0, 57, 42
2, 178325, Control_c, 0, 64, 24
2, 178328, Control_c, 0, 64, 0
2, 178458, Note_on_c, 0, 84, 0
2, 178517, Note_on_c, 0, 81, 63
2, 178659, Control_c, 0, 64, 127
2, 178703, Note_on_c, 0, 81, 0
2, 178784, Note_on_c, 0, 74, 31
2, 178930, Note_on_c, 0, 74, 0
2, 178974, Note_on_c, 0, 75, 39
2, 179011, Note_on_c, 0, 62, 0
2, 179044, Note_on_c, 0, 58, 0
2, 179144, Note_on_c, 0, 75, 0
2, 179194, Note_on_c, 0, 77, 58
2, 179240, Note_on_c, 0, 62, 33
2, 179260, Note_on_c, 0, 58, 25
2, 179312, Note_on_c, 0, 77, 0
2, 179423, Note_on_c, 0, 74, 43
2, 179546, Note_on_c, 0, 74, 0
2, 179650, Note_on_c, 0, 69, 25
2, 179659, Note_on_c, 0, 62, 0
2, 179750, Note_on_c, 0, 69, 0
2, 179775, Note_on_c, 0, 57, 0
2, 179882, Note_on_c, 0, 70, 38
2, 179909, Note_on_c, 0, 58, 0
2, 179970, Note_on_c, 0, 70, 0
2, 180085, Note_on_c, 0, 71, 73
2, 180259, Note_on_c, 0, 71, 0
2, 180298, Note_on_c, 0, 58, 35
2, 180309, Note_on_c, 0, 55, 39
2, 180310, Note_on_c, 0, 72, 81
2, 180318, Note_on_c, 0, 62, 39
2, 180334, Control_c, 0, 64, 0
2, 180490, Control_c, 0, 64, 127
2, 180555, Note_on_c, 0, 70, 56
2, 180621, Note_on_c, 0, 72, 0
2, 180728, Note_on_c, 0, 70, 0
2, 180804, Note_on_c, 0, 69, 45
2, 180876, Note_on_c, 0, 62, 0
2, 180976, Note_on_c, 0, 58, 0
2, 181021, Note_on_c, 0, 69, 0
2, 181042, Note_on_c, 0, 70, 61
2, 181235, Note_on_c, 0, 70, 0
2, 181300, Note_on_c, 0, 72, 57
2, 181304, Note_on_c, 0, 62, 37
2, 181319, Note_on_c, 0, 58, 39
2, 181344, Control_c, 0, 64, 0
2, 181450, Control_c, 0, 64, 127
2, 181748, Note_on_c, 0, 72, 0
2, 181763, Note_on_c, 0, 74, 75
2, 182000, Note_on_c, 0, 62, 0
2, 182059, Note_on_c, 0, 74, 0
2, 182114, Note_on_c, 0, 58, 0
2, 182115, Note_on_c, 0, 55, 0
2, 182243, Note_on_c, 0, 74, 56
2, 182280, Note_on_c, 0, 65, 48
2, 182281, Control_c, 0, 64, 56
2, 182286, Note_on_c, 0, 62, 31
2, 182287, Control_c, 0, 64, 0
2, 182290, Note_on_c, 0, 58, 35
2, 182303, Note_on_c, 0, 53, 32
2, 182426, Control_c, 0, 64, 127
2, 182689, Note_on_c, 0, 62, 0
2, 182726, Note_on_c, 0, 58, 0
2, 183169, Note_on_c, 0, 58, 41
2, 183171, Note_on_c, 0, 62, 30
2, 183244, Note_on_c, 0, 65, 0
2, 183363, Note_on_c, 0, 62, 0
2, 183396, Note_on_c, 0, 53, 0
2, 183416, Note_on_c, 0, 74, 0
2, 183518, Note_on_c, 0, 58, 0
2, 184103, Note_on_c, 0, 58, 58
2, 184106, Note_on_c, 0, 74, 75
2, 184107, Note_on_c, 0, 51, 58
2, 184109, Note_on_c, 0, 62, 62
2, 184109, Note_on_c, 0, 79, 79
2, 184110, Note_on_c, 0, 67, 75
2, 184111, Control_c, 0, 64, 0
2, 184251, Control_c, 0, 64, 127
2, 184310, Note_on_c, 0, 62, 0
2, 184335, Note_on_c, 0, 79, 0
2, 184339, Note_on_c, 0, 58, 0
2, 184362, Note_on_c, 0, 67, 0
2, 184384, Note_on_c, 0, 74, 0
2, 184397, Note_on_c, 0, 51, 0
2, 184541, Control_c, 0, 64, 0
2, 184583, Note_on_c, 0, 50, 56
2, 184595, Note_on_c, 0, 78, 71
2, 184596, Note_on_c, 0, 60, 51
2, 184599, Note_on_c, 0, 54, 52
2, 184606, Note_on_c, 0, 73, 72
2, 184609, Note_on_c, 0, 66, 65
2, 184662, Control_c, 0, 64, 40
2, 184665, Control_c, 0, 64, 127
2, 184716, Note_on_c, 0, 50, 0
2, 184737, Note_on_c, 0, 60, 0
2, 184762, Note_on_c, 0, 54, 0
2, 184831, Note_on_c, 0, 73, 0
2, 184834, Note_on_c, 0, 78, 0
2, 184835, Note_on_c, 0, 66, 0
2, 185029, Control_c, 0, 64, 0
2, 185072, Note_on_c, 0, 79, 55
2, 185076, Note_on_c, 0, 51, 54
2, 185082, Note_on_c, 0, 74, 67
2, 185085, Note_on_c, 0, 67, 59
2, 185087, Note_on_c, 0, 58, 54
2, 185097, Note_on_c, 0, 62, 42
2, 185160, Note_on_c, 0, 62, 0
2, 185175, Note_on_c, 0, 67, 0
2, 185185, Control_c, 0, 64, 127
2, 185225, Note_on_c, 0, 74, 0
2, 185252, Note_on_c, 0, 79, 0
2, 185335, Note_on_c, 0, 58, 0
2, 185377, Note_on_c, 0, 51, 0
2, 185783, Note_on_c, 0, 89, 84
2, 185919, Note_on_c, 0, 89, 0
2, 186057, Note_on_c, 0, 87, 61
2, 186062, Note_on_c, 0, 58, 53
2, 186063, Control_c, 0, 64, 0
2, 186073, Note_on_c, 0, 75, 37
2, 186088, Note_on_c, 0, 48, 43
2, 186215, Control_c, 0, 64, 127
2, 186395, Note_on_c, 0, 87, 0
2, 186467, Note_on_c, 0, 75, 0
2, 186500, Note_on_c, 0, 58, 0
2, 186603, Note_on_c, 0, 55, 34
2, 186912, Note_on_c, 0, 55, 0
2, 186989, Note_on_c, 0, 48, 0
2, 187043, Note_on_c, 0, 63, 63
2, 187048, Note_on_c, 0, 62, 57
2, 187501, Control_c, 0, 64, 0
2, 187525, Note_on_c, 0, 46, 56
2, 187529, Note_on_c, 0, 55, 52
2, 187626, Control_c, 0, 64, 127
2, 187733, Note_on_c, 0, 62, 0
2, 187826, Note_on_c, 0, 55, 0
2, 187907, Note_on_c, 0, 46, 0
2, 187940, Note_on_c, 0, 63, 0
2, 187966, Control_c, 0, 64, 0
2, 188014, Note_on_c, 0, 60, 48
2, 188031, Note_on_c, 0, 55, 43
2, 188032, Note_on_c, 0, 45, 41
2, 188076, Control_c, 0, 64, 127
2, 188083, Note_on_c, 0, 45, 0
2, 188141, Note_on_c, 0, 55, 0
2, 188223, Note_on_c, 0, 60, 0
2, 188906, Note_on_c, 0, 63, 43
2, 188962, Note_on_c, 0, 60, 22
2, 188966, Note_on_c, 0, 57, 23
2, 188970, Note_on_c, 0, 55, 34
2, 189029, Control_c, 0, 64, 0
2, 189139, Note_on_c, 0, 77, 31
2, 189194, Note_on_c, 0, 77, 0
2, 189212, Note_on_c, 0, 78, 67
2, 189302, Note_on_c, 0, 77, 52
2, 189311, Note_on_c, 0, 78, 0
2, 189339, Note_on_c, 0, 63, 0
2, 189340, Note_on_c, 0, 55, 0
2, 189348, Note_on_c, 0, 77, 0
2, 189381, Note_on_c, 0, 76, 66
2, 189423, Note_on_c, 0, 76, 0
2, 189426, Note_on_c, 0, 57, 0
2, 189502, Note_on_c, 0, 75, 57
2, 189610, Note_on_c, 0, 72, 60
2, 189611, Note_on_c, 0, 75, 0
2, 189654, Note_on_c, 0, 72, 0
2, 189709, Note_on_c, 0, 69, 64
2, 189772, Note_on_c, 0, 69, 0
2, 189867, Note_on_c, 0, 66, 50
2, 189919, Note_on_c, 0, 66, 0
2, 189943, Note_on_c, 0, 54, 36
2, 190094, Note_on_c, 0, 60, 0
2, 190098, Note_on_c, 0, 64, 49
2, 190194, Note_on_c, 0, 64, 0
2, 190267, Note_on_c, 0, 63, 49
2, 190472, Control_c, 0, 64, 127
2, 190723, Note_on_c, 0, 54, 0
2, 190805, Note_on_c, 0, 63, 0
2, 190824, Note_on_c, 0, 54, 46
2, 190931, Note_on_c, 0, 54, 0
2, 191044, Note_on_c, 0, 62, 54
2, 191073, Control_c, 0, 64, 0
2, 191123, Note_on_c, 0, 62, 0
2, 191134, Note_on_c, 0, 63, 56
2, 191228, Note_on_c, 0, 62, 48
2, 191247, Note_on_c, 0, 63, 0
2, 191283, Note_on_c, 0, 62, 0
2, 191316, Note_on_c, 0, 60, 56
2, 191407, Note_on_c, 0, 60, 0
2, 191554, Control_c, 0, 64, 127
2, 191676, Note_on_c, 0, 57, 53
2, 191728, Note_on_c, 0, 57, 0
2, 191754, Control_c, 0, 64, 0
2, 191809, Note_on_c, 0, 53, 36
2, 191811, Note_on_c, 0, 50, 1
2, 191813, Note_on_c, 0, 58, 55
2, 191831, Note_on_c, 0, 43, 37
2, 191931, Control_c, 0, 64, 127
2, 192031, Note_on_c, 0, 43, 0
2, 192065, Note_on_c, 0, 50, 0
2, 192093, Note_on_c, 0, 58, 0
2, 192117, Note_on_c, 0, 53, 0
2, 192845, Note_on_c, 0, 58, 44
2, 192852, Note_on_c, 0, 62, 34
2, 192866, Note_on_c, 0, 55, 43
2, 193321, Note_on_c, 0, 70, 94
2, 193376, Note_on_c, 0, 58, 0
2, 193414, Note_on_c, 0, 70, 0
2, 193416, Note_on_c, 0, 62, 0
2, 193586, Note_on_c, 0, 70, 89
2, 193710, Note_on_c, 0, 70, 0
2, 193756, Note_on_c, 0, 70, 45
2, 193772, Note_on_c, 0, 55, 0
2, 193788, Note_on_c, 0, 70, 0
2, 193789, Note_on_c, 0, 71, 82
2, 193807, Note_on_c, 0, 58, 41
2, 193831, Control_c, 0, 64, 0
2, 193834, Note_on_c, 0, 53, 45
2, 193837, Note_on_c, 0, 62, 45
2, 193880, Note_on_c, 0, 72, 77
2, 193933, Note_on_c, 0, 71, 0
2, 194101, Control_c, 0, 64, 127
2, 194289, Note_on_c, 0, 62, 0
2, 194290, Note_on_c, 0, 72, 0
2, 194336, Note_on_c, 0, 70, 87
2, 194385, Note_on_c, 0, 58, 0
2, 194734, Note_on_c, 0, 70, 0
2, 194817, Note_on_c, 0, 69, 75
2, 194837, Note_on_c, 0, 58, 42
2, 194845, Note_on_c, 0, 62, 24
2, 195045, Note_on_c, 0, 53, 0
2, 195061, Note_on_c, 0, 62, 0
2, 195277, Note_on_c, 0, 53, 39
2, 195322, Note_on_c, 0, 53, 0
2, 195508, Note_on_c, 0, 65, 56
2, 195539, Note_on_c, 0, 58, 0
2, 195603, Note_on_c, 0, 65, 0
2, 195607, Note_on_c, 0, 69, 0
2, 195715, Control_c, 0, 64, 0
2, 195738, Note_on_c, 0, 67, 66
2, 195746, Note_on_c, 0, 58, 38
2, 195763, Note_on_c, 0, 51, 41
2, 195764, Note_on_c, 0, 62, 36
2, 195776, Note_on_c, 0, 55, 41
2, 195875, Control_c, 0, 64, 127
2, 196022, Note_on_c, 0, 62, 0
2, 196065, Note_on_c, 0, 55, 0
2, 196167, Note_on_c, 0, 58, 0
2, 196225, Note_on_c, 0, 51, 0
2, 196635, Control_c, 0, 64, 0
2, 196647, Note_on_c, 0, 58, 50
2, 196676, Note_on_c, 0, 50, 43
2, 196740, Note_on_c, 0, 67, 0
2, 196787, Control_c, 0, 64, 127
2, 197214, Note_on_c, 0, 50, 0
2, 197345, Note_on_c, 0, 58, 0
2, 197619, Control_c, 0, 64, 0
2, 197626, Note_on_c, 0, 58, 31
2, 197634, Note_on_c, 0, 49, 36
2, 197663, Note_on_c, 0, 55, 35
2, 197799, Control_c, 0, 64, 127
2, 197915, Note_on_c, 0, 85, 75
2, 198085, Note_on_c, 0, 85, 0
2, 198111, Note_on_c, 0, 82, 61
2, 198256, Note_on_c, 0, 82, 0
2, 198323, Note_on_c, 0, 58, 0
2, 198326, Note_on_c, 0, 84, 73
2, 198466, Note_on_c, 0, 84, 0
2, 198614, Note_on_c, 0, 82, 82
2, 198634, Note_on_c, 0, 58, 43
2, 198643, Control_c, 0, 64, 0
2, 198772, Note_on_c, 0, 82, 0
2, 198859, Note_on_c, 0, 79, 69
2, 198873, Control_c, 0, 64, 127
2, 198993, Note_on_c, 0, 79, 0
2, 199044, Note_on_c, 0, 76, 58
2, 199073, Note_on_c, 0, 55, 0
2, 199134, Note_on_c, 0, 58, 0
2, 199138, Note_on_c, 0, 49, 0
2, 199189, Note_on_c, 0, 73, 61
2, 199201, Note_on_c, 0, 76, 0
2, 199330, Note_on_c, 0, 73, 0
2, 199379, Note_on_c, 0, 72, 54
2, 199529, Note_on_c, 0, 72, 0
2, 199543, Note_on_c, 0, 73, 49
2, 199582, Control_c, 0, 64, 0
2, 199586, Note_on_c, 0, 73, 0
2, 199593, Note_on_c, 0, 58, 37
2, 199602, Note_on_c, 0, 62, 31
2, 199622, Note_on_c, 0, 53, 24
2, 199879, Note_on_c, 0, 74, 56
2, 199992, Note_on_c, 0, 75, 59
2, 199995, Note_on_c, 0, 74, 0
2, 200094, Note_on_c, 0, 76, 54
2, 200095, Note_on_c, 0, 75, 0
2, 200181, Note_on_c, 0, 76, 0
2, 200240, Note_on_c, 0, 77, 59
2, 200303, Control_c, 0, 64, 127
2, 200326, Note_on_c, 0, 62, 0
2, 200347, Note_on_c, 0, 77, 0
2, 200382, Note_on_c, 0, 58, 0
2, 200473, Note_on_c, 0, 77, 66
2, 200520, Note_on_c, 0, 62, 24
2, 200525, Note_on_c, 0, 58, 37
2, 200579, Note_on_c, 0, 77, 0
2, 200696, Note_on_c, 0, 77, 56
2, 200818, Note_on_c, 0, 77, 0
2, 200848, Note_on_c, 0, 62, 0
2, 200904, Note_on_c, 0, 53, 0
2, 200909, Note_on_c, 0, 65, 43
2, 200973, Note_on_c, 0, 65, 0
2, 201031, Note_on_c, 0, 58, 0
2, 201085, Note_on_c, 0, 65, 51
2, 201174, Note_on_c, 0, 65, 0
2, 201276, Note_on_c, 0, 65, 48
2, 201336, Note_on_c, 0, 65, 0
2, 201493, Note_on_c, 0, 67, 50
2, 201498, Note_on_c, 0, 77, 49
2, 201499, Control_c, 0, 64, 0
2, 201509, Note_on_c, 0, 63, 37
2, 201517, Note_on_c, 0, 53, 36
2, 201524, Note_on_c, 0, 60, 41
2, 201664, Control_c, 0, 64, 127
2, 201887, Note_on_c, 0, 63, 0
2, 202132, Note_on_c, 0, 67, 0
2, 202248, Note_on_c, 0, 60, 0
2, 202420, Note_on_c, 0, 63, 46
2, 202434, Note_on_c, 0, 67, 50
2, 202451, Note_on_c, 0, 60, 18
2, 202569, Note_on_c, 0, 53, 0
2, 202583, Note_on_c, 0, 77, 0
2, 202730, Note_on_c, 0, 63, 0
2, 202758, Note_on_c, 0, 67, 0
2, 202869, Note_on_c, 0, 75, 68
2, 202889, Note_on_c, 0, 53, 39
2, 202938, Note_on_c, 0, 53, 0
2, 202947, Note_on_c, 0, 60, 0
2, 203048, Note_on_c, 0, 75, 0
2, 203294, Control_c, 0, 64, 0
2, 203343, Note_on_c, 0, 75, 68
2, 203348, Note_on_c, 0, 58, 46
2, 203360, Note_on_c, 0, 67, 49
2, 203362, Note_on_c, 0, 70, 59
2, 203424, Control_c, 0, 64, 127
2, 203570, Note_on_c, 0, 58, 0
2, 203839, Note_on_c, 0, 58, 56
2, 204053, Note_on_c, 0, 58, 0
2, 204118, Note_on_c, 0, 67, 0
2, 204222, Note_on_c, 0, 75, 0
2, 204232, Note_on_c, 0, 70, 0
2, 204322, Note_on_c, 0, 58, 52
2, 204333, Note_on_c, 0, 65, 55
2, 204336, Note_on_c, 0, 74, 61
2, 204499, Note_on_c, 0, 58, 0
2, 204797, Note_on_c, 0, 57, 77
2, 205066, Note_on_c, 0, 65, 0
2, 205112, Note_on_c, 0, 74, 0
2, 205249, Note_on_c, 0, 65, 74
2, 205256, Note_on_c, 0, 74, 73
2, 205262, Note_on_c, 0, 58, 82
2, 205275, Note_on_c, 0, 57, 0
2, 205289, Control_c, 0, 64, 0
2, 205426, Control_c, 0, 64, 127
2, 205685, Note_on_c, 0, 58, 0
2, 205747, Note_on_c, 0, 58, 84
2, 205946, Note_on_c, 0, 65, 0
2, 205976, Note_on_c, 0, 74, 0
2, 206058, Note_on_c, 0, 58, 0
2, 206208, Note_on_c, 0, 77, 87
2, 206216, Control_c, 0, 64, 0
2, 206219, Note_on_c, 0, 60, 82
2, 206222, Note_on_c, 0, 72, 82
2, 206223, Note_on_c, 0, 50, 75
2, 206225, Note_on_c, 0, 66, 87
2, 206231, Note_on_c, 0, 54, 66
2, 206429, Control_c, 0, 64, 127
2, 206689, Note_on_c, 0, 57, 53
2, 206703, Note_on_c, 0, 60, 0
2, 206704, Note_on_c, 0, 50, 0
2, 206736, Note_on_c, 0, 54, 0
2, 206739, Note_on_c, 0, 57, 0
2, 206813, Note_on_c, 0, 77, 0
2, 206910, Note_on_c, 0, 75, 77
2, 206925, Note_on_c, 0, 66, 0
2, 206955, Note_on_c, 0, 72, 0
2, 207065, Note_on_c, 0, 74, 80
2, 207130, Note_on_c, 0, 75, 0
2, 207189, Note_on_c, 0, 73, 52
2, 207213, Control_c, 0, 64, 56
2, 207217, Control_c, 0, 64, 0
2, 207223, Note_on_c, 0, 72, 74
2, 207225, Note_on_c, 0, 73, 0
2, 207234, Note_on_c, 0, 74, 0
2, 207250, Note_on_c, 0, 58, 49
2, 207254, Note_on_c, 0, 57, 42
2, 207262, Note_on_c, 0, 62, 48
2, 207278, Note_on_c, 0, 55, 40
2, 207479, Note_on_c, 0, 70, 71
2, 207480, Note_on_c, 0, 72, 0
2, 207481, Control_c, 0, 64, 127
2, 207698, Note_on_c, 0, 57, 0
2, 207744, Note_on_c, 0, 55, 0
2, 207760, Note_on_c, 0, 62, 0
2, 207778, Note_on_c, 0, 58, 0
2, 208145, Note_on_c, 0, 70, 0
2, 208155, Note_on_c, 0, 58, 49
2, 208170, Note_on_c, 0, 62, 36
2, 208191, Note_on_c, 0, 55, 35
2, 208199, Note_on_c, 0, 57, 36
2, 208553, Note_on_c, 0, 57, 0
2, 208594, Note_on_c, 0, 55, 0
2, 208596, Note_on_c, 0, 62, 0
2, 208619, Note_on_c, 0, 58, 0
2, 208918, Note_on_c, 0, 74, 66
2, 209050, Note_on_c, 0, 74, 0
2, 209093, Control_c, 0, 64, 0
2, 209106, Note_on_c, 0, 63, 42
2, 209107, Note_on_c, 0, 67, 40
2, 209121, Note_on_c, 0, 58, 37
2, 209133, Note_on_c, 0, 62, 35
2, 209144, Note_on_c, 0, 75, 40
2, 209267, Note_on_c, 0, 75, 0
2, 209418, Note_on_c, 0, 82, 72
2, 209445, Note_on_c, 0, 62, 0
2, 209448, Note_on_c, 0, 82, 0
2, 209471, Note_on_c, 0, 67, 0
2, 209493, Note_on_c, 0, 58, 0
2, 209515, Note_on_c, 0, 63, 0
2, 210070, Note_on_c, 0, 67, 36
2, 210074, Note_on_c, 0, 63, 39
2, 210082, Note_on_c, 0, 58, 36
2, 210215, Note_on_c, 0, 67, 0
2, 210228, Note_on_c, 0, 63, 0
2, 210263, Note_on_c, 0, 58, 0
2, 210566, Note_on_c, 0, 79, 68
2, 210794, Note_on_c, 0, 79, 0
2, 210870, Note_on_c, 0, 82, 81
2, 211011, Note_on_c, 0, 82, 0
2, 211047, Note_on_c, 0, 63, 42
2, 211055, Note_on_c, 0, 67, 38
2, 211101, Note_on_c, 0, 57, 28
2, 211118, Note_on_c, 0, 80, 49
2, 211222, Note_on_c, 0, 81, 54
2, 211232, Note_on_c, 0, 80, 0
2, 211307, Note_on_c, 0, 81, 0
2, 211398, Note_on_c, 0, 57, 0
2, 211412, Note_on_c, 0, 67, 0
2, 211519, Note_on_c, 0, 63, 0
2, 211569, Note_on_c, 0, 78, 58
2, 211764, Note_on_c, 0, 78, 0
2, 211873, Note_on_c, 0, 77, 62
2, 211899, Note_on_c, 0, 63, 41
2, 211920, Note_on_c, 0, 67, 32
2, 211955, Note_on_c, 0, 57, 25
2, 212070, Note_on_c, 0, 77, 0
2, 212086, Note_on_c, 0, 67, 0
2, 212111, Note_on_c, 0, 78, 52
2, 212183, Note_on_c, 0, 63, 0
2, 212232, Note_on_c, 0, 78, 0
2, 212236, Note_on_c, 0, 77, 60
2, 212266, Note_on_c, 0, 57, 0
2, 212331, Note_on_c, 0, 77, 0
2, 212351, Note_on_c, 0, 76, 55
2, 212462, Note_on_c, 0, 76, 0
2, 212497, Note_on_c, 0, 63, 43
2, 212506, Note_on_c, 0, 57, 31
2, 212508, Note_on_c, 0, 67, 27
2, 212557, Note_on_c, 0, 75, 46
2, 212574, Note_on_c, 0, 67, 0
2, 212643, Note_on_c, 0, 57, 0
2, 212716, Note_on_c, 0, 63, 0
2, 212841, Note_on_c, 0, 75, 0
2, 212872, Note_on_c, 0, 73, 60
2, 212932, Note_on_c, 0, 65, 37
2, 212981, Note_on_c, 0, 73, 0
2, 212995, Note_on_c, 0, 60, 34
2, 213006, Note_on_c, 0, 62, 23
2, 213051, Note_on_c, 0, 74, 61
2, 213110, Note_on_c, 0, 65, 0
2, 213261, Control_c, 0, 64, 127
2, 213282, Note_on_c, 0, 74, 0
2, 213382, Note_on_c, 0, 67, 29
2, 213432, Note_on_c, 0, 67, 0
2, 213436, Control_c, 0, 64, 0
2, 213455, Note_on_c, 0, 53, 31
2, 213534, Note_on_c, 0, 72, 75
2, 213605, Note_on_c, 0, 62, 0
2, 213658, Note_on_c, 0, 60, 0
2, 213830, Note_on_c, 0, 67, 31
2, 213887, Note_on_c, 0, 72, 0
2, 213895, Note_on_c, 0, 67, 0
2, 213923, Note_on_c, 0, 60, 28
2, 213939, Note_on_c, 0, 62, 23
2, 213981, Control_c, 0, 64, 127
2, 213996, Note_on_c, 0, 70, 73
2, 214055, Note_on_c, 0, 53, 0
2, 214217, Note_on_c, 0, 62, 0
2, 214233, Note_on_c, 0, 60, 0
2, 214250, Note_on_c, 0, 70, 0
2, 214303, Note_on_c, 0, 65, 45
2, 214310, Note_on_c, 0, 53, 39
2, 214344, Note_on_c, 0, 65, 0
2, 214388, Control_c, 0, 64, 0
2, 214414, Note_on_c, 0, 53, 0
2, 214510, Note_on_c, 0, 69, 62
2, 214529, Control_c, 0, 64, 127
2, 214691, Note_on_c, 0, 69, 0
2, 214774, Note_on_c, 0, 70, 89
2, 214798, Control_c, 0, 64, 0
2, 214818, Note_on_c, 0, 65, 53
2, 214841, Note_on_c, 0, 62, 48
2, 214856, Note_on_c, 0, 60, 39
2, 214937, Note_on_c, 0, 70, 0
2, 214987, Note_on_c, 0, 72, 84
2, 215024, Control_c, 0, 64, 127
2, 215219, Note_on_c, 0, 72, 0
2, 215220, Note_on_c, 0, 65, 0
2, 215271, Note_on_c, 0, 69, 68
2, 215387, Note_on_c, 0, 69, 0
2, 215439, Note_on_c, 0, 60, 0
2, 215453, Note_on_c, 0, 65, 43
2, 215506, Note_on_c, 0, 62, 0
2, 215652, Note_on_c, 0, 65, 0
2, 215713, Note_on_c, 0, 67, 68
2, 215739, Control_c, 0, 64, 0
2, 215749, Note_on_c, 0, 62, 47
2, 215832, Note_on_c, 0, 67, 0
2, 215859, Note_on_c, 0, 62, 0
2, 215882, Control_c, 0, 64, 88
2, 215886, Control_c, 0, 64, 127
2, 215917, Note_on_c, 0, 69, 73
2, 216108, Note_on_c, 0, 69, 0
2, 216189, Note_on_c, 0, 62, 50
2, 216304, Note_on_c, 0, 62, 0
2, 216372, Note_on_c, 0, 63, 49
2, 216592, Note_on_c, 0, 63, 0
2, 216645, Note_on_c, 0, 65, 48
2, 216767, Note_on_c, 0, 65, 0
2, 216768, Control_c, 0, 64, 0
2, 216836, Note_on_c, 0, 62, 57
2, 216841, Note_on_c, 0, 43, 34
2, 216847, Note_on_c, 0, 53, 34
2, 216850, Note_on_c, 0, 50, 33
2, 216941, Control_c, 0, 64, 127
2, 217092, Note_on_c, 0, 62, 0
2, 217136, Note_on_c, 0, 58, 52
2, 217152, Note_on_c, 0, 43, 0
2, 217188, Note_on_c, 0, 50, 0
2, 217195, Note_on_c, 0, 53, 0
2, 217227, Note_on_c, 0, 58, 0
2, 217778, Note_on_c, 0, 84, 63
2, 217787, Note_on_c, 0, 72, 54
2, 217795, Note_on_c, 0, 62, 39
2, 217798, Note_on_c, 0, 58, 49
2, 217803, Note_on_c, 0, 79, 57
2, 217811, Note_on_c, 0, 55, 39
2, 217823, Note_on_c, 0, 53, 45
2, 217958, Note_on_c, 0, 53, 0
2, 217964, Note_on_c, 0, 79, 0
2, 217966, Note_on_c, 0, 72, 0
2, 217973, Note_on_c, 0, 84, 0
2, 217987, Note_on_c, 0, 55, 0
2, 217988, Note_on_c, 0, 62, 0
2, 218022, Note_on_c, 0, 58, 0
2, 218118, Note_on_c, 0, 86, 74
2, 218131, Note_on_c, 0, 79, 66
2, 218132, Note_on_c, 0, 58, 42
2, 218139, Note_on_c, 0, 74, 57
2, 218141, Note_on_c, 0, 62, 42
2, 218154, Note_on_c, 0, 55, 43
2, 218173, Note_on_c, 0, 53, 27
2, 218201, Note_on_c, 0, 74, 0
2, 218225, Note_on_c, 0, 53, 0
2, 218227, Note_on_c, 0, 62, 0
2, 218241, Note_on_c, 0, 86, 0
2, 218246, Note_on_c, 0, 79, 0
2, 218282, Note_on_c, 0, 55, 0
2, 218307, Note_on_c, 0, 58, 0
2, 218432, Note_on_c, 0, 87, 76
2, 218442, Note_on_c, 0, 58, 45
2, 218447, Note_on_c, 0, 75, 58
2, 218487, Note_on_c, 0, 75, 0
2, 218514, Note_on_c, 0, 87, 0
2, 218547, Note_on_c, 0, 58, 0
2, 218655, Note_on_c, 0, 76, 68
2, 218668, Note_on_c, 0, 88, 56
2, 218718, Note_on_c, 0, 76, 0
2, 218723, Note_on_c, 0, 88, 0
2, 218779, Control_c, 0, 64, 0
2, 218842, Note_on_c, 0, 60, 51
2, 218845, Note_on_c, 0, 89, 76
2, 218849, Note_on_c, 0, 53, 50
2, 218860, Note_on_c, 0, 50, 48
2, 218863, Note_on_c, 0, 57, 48
2, 218866, Note_on_c, 0, 77, 67
2, 218993, Control_c, 0, 64, 127
2, 219215, Note_on_c, 0, 89, 0
2, 219279, Note_on_c, 0, 50, 0
2, 219279, Note_on_c, 0, 53, 0
2, 219287, Note_on_c, 0, 60, 0
2, 219306, Note_on_c, 0, 77, 0
2, 219342, Note_on_c, 0, 57, 0
2, 219729, Note_on_c, 0, 86, 48
2, 219731, Note_on_c, 0, 74, 42
2, 219745, Note_on_c, 0, 60, 29
2, 219752, Note_on_c, 0, 53, 37
2, 219754, Note_on_c, 0, 81, 45
2, 219777, Note_on_c, 0, 50, 35
2, 219778, Note_on_c, 0, 57, 37
2, 219995, Note_on_c, 0, 53, 0
2, 220002, Note_on_c, 0, 86, 0
2, 220016, Note_on_c, 0, 81, 0
2, 220016, Note_on_c, 0, 50, 0
2, 220017, Note_on_c, 0, 57, 0
2, 220074, Note_on_c, 0, 60, 0
2, 220108, Note_on_c, 0, 74, 0
2, 220648, Note_on_c, 0, 62, 30
2, 220652, Note_on_c, 0, 58, 40
2, 220653, Control_c, 0, 64, 0
2, 220660, Note_on_c, 0, 51, 41
2, 220692, Note_on_c, 0, 55, 34
2, 221108, Note_on_c, 0, 62, 0
2, 221133, Note_on_c, 0, 73, 92
2, 221200, Note_on_c, 0, 55, 0
2, 221275, Note_on_c, 0, 58, 0
2, 221341, Note_on_c, 0, 73, 0
2, 221404, Note_on_c, 0, 74, 89
2, 221503, Note_on_c, 0, 51, 0
2, 221577, Note_on_c, 0, 74, 0
2, 221605, Note_on_c, 0, 58, 43
2, 221628, Note_on_c, 0, 50, 52
2, 221639, Note_on_c, 0, 77, 92
2, 221813, Note_on_c, 0, 77, 0
2, 221912, Note_on_c, 0, 74, 76
2, 222021, Note_on_c, 0, 74, 0
2, 222139, Note_on_c, 0, 70, 39
2, 222212, Note_on_c, 0, 50, 0
2, 222341, Note_on_c, 0, 70, 0
2, 222415, Note_on_c, 0, 58, 0
2, 222441, Note_on_c, 0, 55, 39
2, 222606, Note_on_c, 0, 55, 0
2, 222622, Note_on_c, 0, 70, 73
2, 222624, Note_on_c, 0, 58, 42
2, 222643, Note_on_c, 0, 48, 41
2, 222886, Note_on_c, 0, 70, 0
2, 222938, Note_on_c, 0, 66, 39
2, 223007, Note_on_c, 0, 66, 0
2, 223118, Note_on_c, 0, 67, 63
2, 223313, Note_on_c, 0, 48, 0
2, 223363, Note_on_c, 0, 58, 0
2, 223368, Note_on_c, 0, 67, 0
2, 223555, Note_on_c, 0, 46, 57
2, 223564, Note_on_c, 0, 65, 64
2, 223568, Note_on_c, 0, 55, 45
2, 223786, Note_on_c, 0, 65, 0
2, 224046, Note_on_c, 0, 63, 54
2, 224220, Note_on_c, 0, 63, 0
2, 224285, Note_on_c, 0, 55, 0
2, 224294, Note_on_c, 0, 65, 41
2, 224333, Note_on_c, 0, 63, 49
2, 224398, Note_on_c, 0, 65, 0
2, 224416, Note_on_c, 0, 46, 0
2, 224477, Note_on_c, 0, 62, 66
2, 224480, Note_on_c, 0, 63, 0
2, 224534, Note_on_c, 0, 55, 37
2, 224547, Note_on_c, 0, 45, 32
2, 224565, Note_on_c, 0, 62, 0
2, 224632, Note_on_c, 0, 63, 52
2, 225020, Note_on_c, 0, 63, 0
2, 225032, Note_on_c, 0, 60, 42
2, 225076, Note_on_c, 0, 55, 0
2, 225182, Control_c, 0, 64, 127
2, 225287, Control_c, 0, 64, 0
2, 225372, Note_on_c, 0, 55, 45
2, 225478, Control_c, 0, 64, 127
2, 225714, Note_on_c, 0, 45, 0
2, 225772, Note_on_c, 0, 55, 0
2, 225786, Note_on_c, 0, 62, 64
2, 225794, Note_on_c, 0, 60, 0
2, 225910, Note_on_c, 0, 62, 0
2, 225939, Note_on_c, 0, 63, 66
2, 225975, Control_c, 0, 64, 0
2, 225999, Note_on_c, 0, 63, 0
2, 226124, Note_on_c, 0, 67, 46
2, 226191, Note_on_c, 0, 67, 0
2, 226273, Note_on_c, 0, 72, 77
2, 226381, Note_on_c, 0, 72, 0
2, 226421, Note_on_c, 0, 74, 78
2, 226498, Note_on_c, 0, 60, 36
2, 226511, Note_on_c, 0, 50, 37
2, 226520, Note_on_c, 0, 54, 41
2, 226548, Note_on_c, 0, 74, 0
2, 226615, Note_on_c, 0, 75, 79
2, 226775, Note_on_c, 0, 75, 0
2, 226834, Note_on_c, 0, 77, 80
2, 226947, Note_on_c, 0, 77, 0
2, 226974, Note_on_c, 0, 50, 0
2, 226979, Note_on_c, 0, 54, 0
2, 227015, Note_on_c, 0, 74, 63
2, 227045, Note_on_c, 0, 60, 0
2, 227321, Note_on_c, 0, 54, 43
2, 227323, Note_on_c, 0, 65, 45
2, 227325, Note_on_c, 0, 60, 46
2, 227468, Control_c, 0, 64, 127
2, 227803, Note_on_c, 0, 65, 0
2, 227812, Note_on_c, 0, 60, 0
2, 227918, Note_on_c, 0, 54, 0
2, 228111, Note_on_c, 0, 74, 0
2, 228159, Note_on_c, 0, 72, 63
2, 228299, Note_on_c, 0, 72, 0
2, 228301, Control_c, 0, 64, 0
2, 228351, Note_on_c, 0, 58, 39
2, 228353, Note_on_c, 0, 57, 33
2, 228361, Note_on_c, 0, 62, 32
2, 228368, Note_on_c, 0, 55, 43
2, 228370, Note_on_c, 0, 70, 48
2, 228438, Note_on_c, 0, 57, 0
2, 228476, Note_on_c, 0, 62, 0
2, 228492, Note_on_c, 0, 55, 0
2, 228524, Note_on_c, 0, 58, 0
2, 228549, Note_on_c, 0, 70, 0
2, 228597, Note_on_c, 0, 69, 46
2, 228675, Note_on_c, 0, 69, 0
2, 228719, Note_on_c, 0, 70, 57
2, 228758, Note_on_c, 0, 70, 0
2, 228961, Note_on_c, 0, 74, 55
2, 229006, Note_on_c, 0, 74, 0
2, 229110, Note_on_c, 0, 77, 78
2, 229185, Note_on_c, 0, 77, 0
2, 229247, Note_on_c, 0, 81, 81
2, 229344, Note_on_c, 0, 81, 0
2, 229406, Note_on_c, 0, 84, 96
2, 229421, Note_on_c, 0, 58, 40
2, 229444, Note_on_c, 0, 62, 21
2, 229474, Note_on_c, 0, 55, 29
2, 229519, Note_on_c, 0, 84, 0
2, 229578, Note_on_c, 0, 55, 0
2, 229606, Note_on_c, 0, 58, 0
2, 229610, Note_on_c, 0, 62, 0
2, 229651, Note_on_c, 0, 82, 75
2, 229749, Note_on_c, 0, 82, 0
2, 229871, Note_on_c, 0, 78, 54
2, 229922, Note_on_c, 0, 78, 0
2, 230134, Note_on_c, 0, 81, 78
2, 230242, Note_on_c, 0, 81, 0
2, 230405, Note_on_c, 0, 79, 63
2, 230424, Note_on_c, 0, 58, 38
2, 230458, Note_on_c, 0, 55, 30
2, 230473, Note_on_c, 0, 79, 0
2, 230564, Note_on_c, 0, 74, 59
2, 230604, Control_c, 0, 64, 127
2, 230658, Note_on_c, 0, 74, 0
2, 230880, Note_on_c, 0, 74, 63
2, 231171, Note_on_c, 0, 55, 0
2, 231212, Note_on_c, 0, 74, 0
2, 231218, Note_on_c, 0, 58, 0
2, 231288, Note_on_c, 0, 58, 26
2, 231289, Control_c, 0, 64, 0
2, 231294, Note_on_c, 0, 77, 66
2, 231305, Note_on_c, 0, 62, 31
2, 231307, Note_on_c, 0, 53, 40
2, 231423, Note_on_c, 0, 77, 0
2, 231505, Note_on_c, 0, 74, 56
2, 231550, Note_on_c, 0, 74, 0
2, 231719, Control_c, 0, 64, 127
2, 231785, Note_on_c, 0, 74, 64
2, 231819, Note_on_c, 0, 62, 0
2, 231861, Note_on_c, 0, 53, 0
2, 232098, Note_on_c, 0, 58, 0
2, 232147, Note_on_c, 0, 74, 0
2, 232164, Control_c, 0, 64, 0
2, 232188, Note_on_c, 0, 77, 48
2, 232213, Note_on_c, 0, 58, 27
2, 232227, Note_on_c, 0, 62, 28
2, 232252, Note_on_c, 0, 55, 31
2, 232262, Note_on_c, 0, 51, 36
2, 232377, Note_on_c, 0, 77, 0
2, 232410, Note_on_c, 0, 79, 40
2, 232450, Note_on_c, 0, 79, 0
2, 232738, Control_c, 0, 64, 127
2, 232749, Note_on_c, 0, 70, 58
2, 232766, Note_on_c, 0, 62, 0
2, 232839, Note_on_c, 0, 55, 0
2, 232898, Note_on_c, 0, 58, 0
2, 233192, Note_on_c, 0, 58, 39
2, 233218, Note_on_c, 0, 62, 23
2, 233373, Note_on_c, 0, 62, 0
2, 233453, Note_on_c, 0, 51, 0
2, 233457, Note_on_c, 0, 58, 0
2, 233590, Control_c, 0, 64, 0
2, 233616, Note_on_c, 0, 58, 50
2, 233625, Note_on_c, 0, 50, 57
2, 233727, Control_c, 0, 64, 127
2, 233892, Note_on_c, 0, 50, 0
2, 233909, Note_on_c, 0, 58, 0
2, 234148, Note_on_c, 0, 49, 68
2, 234149, Control_c, 0, 64, 0
2, 234383, Control_c, 0, 64, 127
2, 234527, Note_on_c, 0, 49, 0
2, 234633, Note_on_c, 0, 70, 0
2, 235049, Control_c, 0, 64, 0
2, 235051, Note_on_c, 0, 84, 102
2, 235057, Note_on_c, 0, 64, 48
2, 235066, Note_on_c, 0, 61, 41
2, 235072, Note_on_c, 0, 58, 43
2, 235078, Note_on_c, 0, 55, 34
2, 235187, Note_on_c, 0, 84, 0
2, 235202, Note_on_c, 0, 81, 66
2, 235296, Note_on_c, 0, 81, 0
2, 235353, Note_on_c, 0, 82, 55
2, 235470, Note_on_c, 0, 79, 59
2, 235496, Note_on_c, 0, 82, 0
2, 235548, Note_on_c, 0, 79, 0
2, 235576, Note_on_c, 0, 76, 53
2, 235590, Note_on_c, 0, 64, 0
2, 235632, Control_c, 0, 64, 127
2, 235695, Note_on_c, 0, 73, 57
2, 235720, Note_on_c, 0, 76, 0
2, 235742, Note_on_c, 0, 55, 0
2, 235762, Note_on_c, 0, 61, 0
2, 235776, Note_on_c, 0, 73, 0
2, 235778, Note_on_c, 0, 58, 0
2, 235840, Note_on_c, 0, 81, 81
2, 235850, Control_c, 0, 64, 0
2, 235960, Note_on_c, 0, 81, 0
2, 235974, Note_on_c, 0, 78, 57
2, 236088, Note_on_c, 0, 78, 0
2, 236125, Note_on_c, 0, 79, 68
2, 236253, Note_on_c, 0, 75, 56
2, 236288, Note_on_c, 0, 79, 0
2, 236326, Note_on_c, 0, 63, 40
2, 236349, Note_on_c, 0, 60, 26
2, 236415, Note_on_c, 0, 55, 23
2, 236444, Note_on_c, 0, 57, 24
2, 236451, Note_on_c, 0, 72, 36
2, 236471, Note_on_c, 0, 75, 0
2, 236509, Note_on_c, 0, 72, 0
2, 236793, Note_on_c, 0, 60, 0
2, 236931, Note_on_c, 0, 60, 50
2, 237038, Note_on_c, 0, 77, 96
2, 237043, Note_on_c, 0, 63, 0
2, 237122, Note_on_c, 0, 77, 0
2, 237131, Note_on_c, 0, 78, 65
2, 237240, Note_on_c, 0, 77, 46
2, 237243, Note_on_c, 0, 57, 0
2, 237265, Note_on_c, 0, 60, 0
2, 237275, Note_on_c, 0, 78, 0
2, 237311, Note_on_c, 0, 77, 0
2, 237320, Note_on_c, 0, 76, 72
2, 237398, Note_on_c, 0, 76, 0
2, 237447, Note_on_c, 0, 75, 63
2, 237519, Note_on_c, 0, 63, 35
2, 237547, Note_on_c, 0, 72, 57
2, 237556, Note_on_c, 0, 60, 24
2, 237583, Note_on_c, 0, 75, 0
2, 237630, Note_on_c, 0, 72, 0
2, 237633, Note_on_c, 0, 63, 0
2, 237661, Note_on_c, 0, 69, 56
2, 237743, Note_on_c, 0, 69, 0
2, 237762, Note_on_c, 0, 60, 0
2, 237798, Note_on_c, 0, 66, 53
2, 237828, Note_on_c, 0, 55, 0
2, 237899, Note_on_c, 0, 65, 54
2, 237904, Note_on_c, 0, 66, 0
2, 237987, Note_on_c, 0, 65, 0
2, 238036, Note_on_c, 0, 64, 43
2, 238146, Note_on_c, 0, 64, 0
2, 238162, Note_on_c, 0, 63, 55
2, 238433, Control_c, 0, 64, 127
2, 238799, Control_c, 0, 64, 0
2, 238825, Note_on_c, 0, 63, 0
2, 238871, Note_on_c, 0, 62, 56
2, 239057, Control_c, 0, 64, 127
2, 239147, Control_c, 0, 64, 0
2, 239159, Note_on_c, 0, 62, 0
2, 239175, Note_on_c, 0, 63, 65
2, 239256, Note_on_c, 0, 62, 67
2, 239320, Note_on_c, 0, 63, 0
2, 239328, Note_on_c, 0, 60, 44
2, 239368, Note_on_c, 0, 62, 0
2, 239584, Note_on_c, 0, 60, 0
2, 239597, Note_on_c, 0, 58, 60
2, 239733, Control_c, 0, 64, 127
2, 239746, Note_on_c, 0, 50, 40
2, 239778, Note_on_c, 0, 57, 48
2, 239788, Note_on_c, 0, 58, 0
2, 239804, Control_c, 0, 64, 0
2, 239853, Note_on_c, 0, 53, 31
2, 239992, Note_on_c, 0, 50, 0
2, 240078, Note_on_c, 0, 57, 0
2, 240089, Note_on_c, 0, 58, 54
2, 240207, Note_on_c, 0, 58, 0
2, 240282, Note_on_c, 0, 62, 57
2, 240385, Note_on_c, 0, 53, 0
2, 240438, Note_on_c, 0, 62, 0
2, 240578, Note_on_c, 0, 66, 71
2, 240681, Note_on_c, 0, 66, 0
2, 240687, Note_on_c, 0, 43, 58
2, 240724, Note_on_c, 0, 43, 0
2, 240766, Note_on_c, 0, 69, 82
2, 240995, Note_on_c, 0, 69, 0
2, 241072, Note_on_c, 0, 66, 51
2, 241172, Note_on_c, 0, 66, 0
2, 241252, Note_on_c, 0, 58, 38
2, 241267, Note_on_c, 0, 67, 40
2, 241273, Note_on_c, 0, 55, 24
2, 241339, Note_on_c, 0, 55, 0
2, 241368, Note_on_c, 0, 58, 0
2, 241395, Note_on_c, 0, 67, 0
2, 241552, Note_on_c, 0, 69, 58
2, 241710, Note_on_c, 0, 69, 0
2, 241758, Note_on_c, 0, 70, 54
2, 241957, Note_on_c, 0, 70, 0
2, 242042, Note_on_c, 0, 71, 50
2, 242142, Note_on_c, 0, 71, 0
2, 242222, Note_on_c, 0, 74, 94
2, 242230, Note_on_c, 0, 58, 52
2, 242237, Note_on_c, 0, 55, 50
2, 242249, Note_on_c, 0, 48, 48
2, 242289, Note_on_c, 0, 48, 0
2, 242321, Note_on_c, 0, 58, 0
2, 242340, Note_on_c, 0, 55, 0
2, 242537, Note_on_c, 0, 74, 0
2, 242567, Note_on_c, 0, 71, 43
2, 242623, Note_on_c, 0, 71, 0
2, 242665, Control_c, 0, 64, 127
2, 242761, Note_on_c, 0, 72, 54
2, 242991, Note_on_c, 0, 72, 0
2, 243042, Note_on_c, 0, 74, 70
2, 243069, Note_on_c, 0, 67, 50
2, 243072, Note_on_c, 0, 63, 48
2, 243084, Note_on_c, 0, 62, 41
2, 243090, Note_on_c, 0, 58, 31
2, 243106, Note_on_c, 0, 67, 0
2, 243131, Note_on_c, 0, 62, 0
2, 243179, Note_on_c, 0, 58, 0
2, 243181, Note_on_c, 0, 74, 0
2, 243187, Note_on_c, 0, 63, 0
2, 243258, Note_on_c, 0, 75, 54
2, 243329, Note_on_c, 0, 75, 0
2, 243540, Note_on_c, 0, 79, 70
2, 243621, Note_on_c, 0, 79, 0
2, 243703, Control_c, 0, 64, 0
2, 243734, Note_on_c, 0, 83, 92
2, 243739, Note_on_c, 0, 63, 54
2, 243746, Note_on_c, 0, 62, 48
2, 243748, Note_on_c, 0, 67, 52
2, 243754, Note_on_c, 0, 57, 49
2, 244003, Note_on_c, 0, 83, 0
2, 244032, Note_on_c, 0, 86, 85
2, 244175, Note_on_c, 0, 86, 0
2, 244227, Note_on_c, 0, 84, 57
2, 244247, Note_on_c, 0, 63, 0
2, 244252, Note_on_c, 0, 67, 0
2, 244263, Note_on_c, 0, 57, 0
2, 244288, Control_c, 0, 64, 127
2, 244309, Note_on_c, 0, 62, 0
2, 244434, Note_on_c, 0, 84, 0
2, 244601, Control_c, 0, 64, 0
2, 244682, Note_on_c, 0, 63, 40
2, 244684, Note_on_c, 0, 80, 55
2, 244706, Note_on_c, 0, 67, 32
2, 244720, Note_on_c, 0, 57, 34
2, 244777, Note_on_c, 0, 81, 46
2, 244786, Note_on_c, 0, 80, 0
2, 244816, Note_on_c, 0, 67, 0
2, 244840, Note_on_c, 0, 81, 0
2, 244864, Note_on_c, 0, 57, 0
2, 244870, Note_on_c, 0, 63, 0
2, 245184, Note_on_c, 0, 63, 40
2, 245207, Note_on_c, 0, 77, 50
2, 245208, Note_on_c, 0, 57, 36
2, 245212, Note_on_c, 0, 67, 30
2, 245227, Control_c, 0, 64, 127
2, 245290, Note_on_c, 0, 67, 0
2, 245341, Note_on_c, 0, 77, 0
2, 245350, Note_on_c, 0, 63, 0
2, 245383, Note_on_c, 0, 57, 0
2, 245639, Control_c, 0, 64, 0
2, 245690, Note_on_c, 0, 75, 57
2, 245738, Note_on_c, 0, 62, 37
2, 245799, Note_on_c, 0, 60, 26
2, 245861, Note_on_c, 0, 60, 0
2, 245882, Note_on_c, 0, 62, 0
2, 245943, Control_c, 0, 64, 127
2, 246146, Note_on_c, 0, 75, 0
2, 246394, Note_on_c, 0, 74, 50
2, 246478, Note_on_c, 0, 74, 0
2, 246487, Note_on_c, 0, 75, 57
2, 246576, Note_on_c, 0, 74, 52
2, 246591, Note_on_c, 0, 75, 0
2, 246638, Note_on_c, 0, 73, 49
2, 246658, Note_on_c, 0, 74, 0
2, 246661, Control_c, 0, 64, 0
2, 246687, Note_on_c, 0, 73, 0
2, 246738, Note_on_c, 0, 65, 30
2, 246754, Note_on_c, 0, 62, 33
2, 246764, Note_on_c, 0, 74, 50
2, 246768, Note_on_c, 0, 60, 37
2, 246867, Control_c, 0, 64, 127
2, 246881, Note_on_c, 0, 65, 0
2, 246966, Note_on_c, 0, 74, 0
2, 247191, Note_on_c, 0, 65, 52
2, 247205, Note_on_c, 0, 53, 41
2, 247279, Note_on_c, 0, 62, 0
2, 247343, Note_on_c, 0, 60, 0
2, 247622, Note_on_c, 0, 53, 0
2, 247770, Note_on_c, 0, 65, 0
2, 248100, Note_on_c, 0, 65, 33
2, 248121, Note_on_c, 0, 62, 39
2, 248122, Control_c, 0, 64, 0
2, 248130, Note_on_c, 0, 60, 39
2, 248278, Note_on_c, 0, 65, 0
2, 248329, Control_c, 0, 64, 127
2, 248358, Note_on_c, 0, 60, 0
2, 248365, Note_on_c, 0, 62, 0
2, 248431, Control_c, 0, 64, 0
2, 248540, Note_on_c, 0, 57, 49
2, 248543, Note_on_c, 0, 69, 122
2, 248557, Note_on_c, 0, 62, 44
2, 248559, Note_on_c, 0, 65, 40
2, 248741, Note_on_c, 0, 69, 0
2, 248801, Note_on_c, 0, 70, 81
2, 248899, Note_on_c, 0, 70, 0
2, 248903, Control_c, 0, 64, 127
2, 248974, Note_on_c, 0, 65, 0
2, 248975, Note_on_c, 0, 72, 102
2, 249032, Note_on_c, 0, 57, 0
2, 249146, Note_on_c, 0, 62, 0
2, 249273, Note_on_c, 0, 72, 0
2, 249352, Control_c, 0, 64, 0
2, 249406, Note_on_c, 0, 70, 89
2, 249412, Note_on_c, 0, 74, 87
2, 249414, Note_on_c, 0, 65, 52
2, 249418, Note_on_c, 0, 58, 48
2, 249428, Note_on_c, 0, 62, 52
2, 249441, Note_on_c, 0, 55, 43
2, 249551, Control_c, 0, 64, 127
2, 249794, Note_on_c, 0, 74, 0
2, 249823, Note_on_c, 0, 70, 0
2, 249849, Note_on_c, 0, 65, 0
2, 249891, Note_on_c, 0, 72, 81
2, 249896, Note_on_c, 0, 69, 85
2, 249997, Note_on_c, 0, 62, 0
2, 250014, Note_on_c, 0, 58, 0
2, 250190, Note_on_c, 0, 69, 0
2, 250286, Control_c, 0, 64, 0
2, 250290, Note_on_c, 0, 72, 0
2, 250353, Note_on_c, 0, 67, 67
2, 250354, Note_on_c, 0, 70, 72
2, 250366, Note_on_c, 0, 58, 47
2, 250369, Note_on_c, 0, 62, 40
2, 250413, Control_c, 0, 64, 127
2, 250518, Note_on_c, 0, 55, 0
2, 250544, Note_on_c, 0, 67, 0
2, 250795, Note_on_c, 0, 55, 44
2, 250871, Note_on_c, 0, 62, 0
2, 250950, Note_on_c, 0, 55, 0
2, 250968, Note_on_c, 0, 58, 0
2, 250975, Note_on_c, 0, 70, 0
2, 251071, Note_on_c, 0, 69, 54
2, 251163, Note_on_c, 0, 69, 0
2, 251284, Control_c, 0, 64, 0
2, 251301, Note_on_c, 0, 65, 56
2, 251308, Note_on_c, 0, 69, 53
2, 251328, Note_on_c, 0, 53, 44
2, 251330, Note_on_c, 0, 62, 49
2, 251524, Control_c, 0, 64, 127
2, 251694, Note_on_c, 0, 53, 0
2, 251737, Note_on_c, 0, 62, 0
2, 251830, Note_on_c, 0, 53, 38
2, 251843, Note_on_c, 0, 62, 46
2, 251915, Note_on_c, 0, 65, 0
2, 252237, Note_on_c, 0, 62, 0
2, 252244, Note_on_c, 0, 53, 0
2, 252261, Note_on_c, 0, 69, 0
2, 252306, Note_on_c, 0, 65, 49
2, 252361, Note_on_c, 0, 65, 0
2, 252757, Note_on_c, 0, 62, 32
2, 252783, Note_on_c, 0, 53, 27
2, 252822, Note_on_c, 0, 62, 0
2, 252840, Note_on_c, 0, 53, 0
2, 253020, Note_on_c, 0, 94, 82
2, 253024, Note_on_c, 0, 53, 58
2, 253025, Note_on_c, 0, 62, 57
2, 253031, Note_on_c, 0, 82, 82
2, 253036, Note_on_c, 0, 87, 74
2, 253057, Note_on_c, 0, 53, 0
2, 253069, Note_on_c, 0, 87, 0
2, 253111, Note_on_c, 0, 82, 0
2, 253113, Note_on_c, 0, 94, 0
2, 253115, Note_on_c, 0, 62, 0
2, 253222, Control_c, 0, 64, 0
2, 253271, Note_on_c, 0, 55, 63
2, 253274, Note_on_c, 0, 65, 66
2, 253281, Note_on_c, 0, 86, 72
2, 253291, Note_on_c, 0, 91, 61
2, 253296, Note_on_c, 0, 60, 57
2, 253300, Note_on_c, 0, 79, 56
2, 253309, Note_on_c, 0, 87, 34
2, 253357, Note_on_c, 0, 87, 0
2, 253385, Control_c, 0, 64, 72
2, 253388, Control_c, 0, 64, 127
2, 253507, Note_on_c, 0, 91, 0
2, 253510, Note_on_c, 0, 86, 0
2, 253565, Note_on_c, 0, 60, 0
2, 253570, Note_on_c, 0, 79, 0
2, 253583, Note_on_c, 0, 65, 0
2, 253588, Note_on_c, 0, 55, 0
2, 253774, Note_on_c, 0, 87, 56
2, 253780, Note_on_c, 0, 75, 51
2, 253783, Note_on_c, 0, 65, 50
2, 253784, Note_on_c, 0, 82, 64
2, 253791, Note_on_c, 0, 55, 43
2, 253800, Note_on_c, 0, 60, 54
2, 253960, Note_on_c, 0, 65, 0
2, 253970, Note_on_c, 0, 87, 0
2, 253974, Note_on_c, 0, 82, 0
2, 253988, Note_on_c, 0, 55, 0
2, 253996, Note_on_c, 0, 60, 0
2, 254000, Note_on_c, 0, 75, 0
2, 254174, Control_c, 0, 64, 0
2, 254210, Note_on_c, 0, 62, 60
2, 254244, Note_on_c, 0, 82, 63
2, 254250, Note_on_c, 0, 74, 64
2, 254255, Note_on_c, 0, 86, 59
2, 254276, Note_on_c, 0, 58, 42
2, 254364, Control_c, 0, 64, 127
2, 254443, Note_on_c, 0, 86, 0
2, 254490, Note_on_c, 0, 82, 0
2, 254492, Note_on_c, 0, 74, 0
2, 254503, Note_on_c, 0, 62, 0
2, 254510, Note_on_c, 0, 58, 0
2, 254995, Note_on_c, 0, 84, 58
2, 255000, Note_on_c, 0, 72, 58
2, 255074, Note_on_c, 0, 84, 0
2, 255105, Note_on_c, 0, 72, 0
2, 255200, Control_c, 0, 64, 0
2, 255273, Note_on_c, 0, 58, 42
2, 255275, Note_on_c, 0, 82, 57
2, 255279, Note_on_c, 0, 70, 54
2, 255286, Note_on_c, 0, 48, 39
2, 255288, Note_on_c, 0, 55, 36
2, 255383, Control_c, 0, 64, 127
2, 255596, Note_on_c, 0, 82, 0
2, 255601, Note_on_c, 0, 70, 0
2, 255768, Note_on_c, 0, 67, 42
2, 255775, Note_on_c, 0, 58, 0
2, 255817, Note_on_c, 0, 79, 42
2, 255945, Note_on_c, 0, 55, 0
2, 256014, Note_on_c, 0, 67, 0
2, 256037, Note_on_c, 0, 79, 0
2, 256253, Note_on_c, 0, 79, 58
2, 256262, Note_on_c, 0, 58, 31
2, 256265, Note_on_c, 0, 67, 39
2, 256328, Note_on_c, 0, 48, 0
2, 256479, Note_on_c, 0, 58, 0
2, 257003, Note_on_c, 0, 67, 0
2, 257080, Control_c, 0, 64, 0
2, 257140, Note_on_c, 0, 45, 45
2, 257149, Note_on_c, 0, 55, 44
2, 257204, Control_c, 0, 64, 127
2, 257242, Note_on_c, 0, 45, 0
2, 257288, Note_on_c, 0, 79, 0
2, 257290, Note_on_c, 0, 55, 0
2, 257658, Note_on_c, 0, 79, 111
2, 257660, Note_on_c, 0, 69, 92
2, 257662, Note_on_c, 0, 72, 85
2, 257663, Control_c, 0, 64, 0
2, 257666, Note_on_c, 0, 67, 84
2, 257668, Note_on_c, 0, 75, 75
2, 257688, Note_on_c, 0, 71, 57
2, 257699, Note_on_c, 0, 75, 0
2, 257721, Note_on_c, 0, 71, 0
2, 257733, Note_on_c, 0, 75, 31
2, 257799, Control_c, 0, 64, 127
2, 257861, Note_on_c, 0, 79, 0
2, 257874, Note_on_c, 0, 72, 0
2, 257878, Note_on_c, 0, 75, 0
2, 257943, Note_on_c, 0, 69, 0
2, 257946, Note_on_c, 0, 67, 0
2, 258048, Control_c, 0, 64, 0
2, 258102, Note_on_c, 0, 75, 72
2, 258118, Note_on_c, 0, 67, 56
2, 258122, Note_on_c, 0, 69, 52
2, 258133, Note_on_c, 0, 72, 48
2, 258135, Note_on_c, 0, 63, 58
2, 258173, Note_on_c, 0, 72, 0
2, 258177, Control_c, 0, 64, 127
2, 258201, Note_on_c, 0, 69, 0
2, 258216, Note_on_c, 0, 75, 0
2, 258227, Note_on_c, 0, 63, 0
2, 258244, Note_on_c, 0, 67, 0
2, 258415, Control_c, 0, 64, 0
2, 258434, Note_on_c, 0, 63, 54
2, 258438, Note_on_c, 0, 72, 58
2, 258460, Note_on_c, 0, 60, 58
2, 258463, Note_on_c, 0, 67, 57
2, 258472, Note_on_c, 0, 69, 39
2, 258554, Note_on_c, 0, 72, 0
2, 258557, Note_on_c, 0, 67, 0
2, 258561, Note_on_c, 0, 63, 0
2, 258565, Note_on_c, 0, 60, 0
2, 258577, Note_on_c, 0, 69, 0
2, 258795, Note_on_c, 0, 74, 81
2, 258800, Note_on_c, 0, 63, 67
2, 258809, Note_on_c, 0, 66, 58
2, 258819, Note_on_c, 0, 62, 63
2, 258832, Note_on_c, 0, 69, 39
2, 259013, Note_on_c, 0, 74, 0
2, 259037, Note_on_c, 0, 63, 0
2, 259042, Note_on_c, 0, 66, 0
2, 259062, Note_on_c, 0, 69, 0
2, 259080, Note_on_c, 0, 62, 0
2, 259111, Note_on_c, 0, 73, 56
2, 259117, Note_on_c, 0, 63, 49
2, 259122, Note_on_c, 0, 61, 52
2, 259125, Note_on_c, 0, 66, 50
2, 259137, Control_c, 0, 64, 127
2, 259148, Note_on_c, 0, 69, 29
2, 259310, Note_on_c, 0, 66, 0
2, 259311, Note_on_c, 0, 73, 0
2, 259331, Note_on_c, 0, 63, 0
2, 259333, Note_on_c, 0, 69, 0
2, 259344, Control_c, 0, 64, 0
2, 259384, Note_on_c, 0, 61, 0
2, 259435, Note_on_c, 0, 60, 49
2, 259442, Note_on_c, 0, 63, 39
2, 259447, Note_on_c, 0, 72, 50
2, 259453, Note_on_c, 0, 66, 45
2, 259474, Control_c, 0, 64, 127
2, 259486, Note_on_c, 0, 72, 0
2, 259498, Note_on_c, 0, 60, 0
2, 259562, Note_on_c, 0, 66, 0
2, 259578, Note_on_c, 0, 63, 0
2, 259703, Control_c, 0, 64, 0
2, 259783, Note_on_c, 0, 60, 54
2, 259789, Note_on_c, 0, 57, 44
2, 259796, Note_on_c, 0, 63, 46
2, 259798, Note_on_c, 0, 69, 56
2, 259800, Note_on_c, 0, 66, 38
2, 259943, Control_c, 0, 64, 127
2, 260207, Note_on_c, 0, 66, 0
2, 260298, Note_on_c, 0, 60, 0
2, 260310, Note_on_c, 0, 63, 0
2, 260611, Note_on_c, 0, 69, 0
2, 260701, Note_on_c, 0, 54, 49
2, 260705, Note_on_c, 0, 66, 41
2, 260713, Note_on_c, 0, 57, 0
2, 260746, Note_on_c, 0, 66, 0
2, 260818, Control_c, 0, 64, 0
2, 260878, Note_on_c, 0, 54, 0
2, 260890, Note_on_c, 0, 72, 68
2, 260892, Note_on_c, 0, 65, 68
2, 260894, Note_on_c, 0, 62, 61
2, 260909, Note_on_c, 0, 55, 31
2, 260911, Note_on_c, 0, 57, 62
2, 260953, Note_on_c, 0, 55, 0
2, 261058, Note_on_c, 0, 62, 0
2, 261064, Note_on_c, 0, 72, 0
2, 261084, Note_on_c, 0, 65, 0
2, 261160, Note_on_c, 0, 57, 0
2, 261162, Note_on_c, 0, 71, 68
2, 261169, Note_on_c, 0, 65, 54
2, 261180, Note_on_c, 0, 56, 57
2, 261183, Note_on_c, 0, 62, 40
2, 261228, Note_on_c, 0, 62, 0
2, 261256, Note_on_c, 0, 71, 0
2, 261274, Note_on_c, 0, 65, 0
2, 261367, Note_on_c, 0, 56, 0
2, 261387, Note_on_c, 0, 62, 45
2, 261388, Note_on_c, 0, 70, 48
2, 261396, Note_on_c, 0, 55, 50
2, 261406, Note_on_c, 0, 65, 39
2, 261487, Control_c, 0, 64, 127
2, 261564, Note_on_c, 0, 65, 0
2, 261579, Note_on_c, 0, 70, 0
2, 261586, Note_on_c, 0, 62, 0
2, 261659, Note_on_c, 0, 55, 0
2, 261814, Control_c, 0, 64, 0
2, 261878, Note_on_c, 0, 58, 52
2, 261883, Note_on_c, 0, 62, 61
2, 261901, Note_on_c, 0, 55, 43
2, 262030, Control_c, 0, 64, 127
2, 262294, Note_on_c, 0, 55, 0
2, 262346, Control_c, 0, 64, 0
2, 262371, Note_on_c, 0, 50, 58
2, 262558, Control_c, 0, 64, 127
2, 262639, Note_on_c, 0, 58, 0
2, 262722, Note_on_c, 0, 62, 0
2, 262788, Control_c, 0, 64, 0
2, 262906, Note_on_c, 0, 43, 60
2, 262929, Control_c, 0, 64, 127
2, 262939, Note_on_c, 0, 50, 0
2, 262999, Note_on_c, 0, 43, 0
2, 263702, Control_c, 0, 64, 0
2, 263705, Note_on_c, 0, 58, 77
2, 263730, Note_on_c, 0, 72, 85
2, 263732, Note_on_c, 0, 62, 102
2, 263738, Note_on_c, 0, 68, 41
2, 263741, Note_on_c, 0, 65, 75
2, 263745, Note_on_c, 0, 60, 79
2, 263748, Note_on_c, 0, 69, 76
2, 263750, Note_on_c, 0, 64, 70
2, 263776, Note_on_c, 0, 58, 0
2, 263782, Note_on_c, 0, 64, 0
2, 263785, Note_on_c, 0, 68, 0
2, 263793, Note_on_c, 0, 59, 48
2, 263828, Note_on_c, 0, 59, 0
2, 263950, Note_on_c, 0, 72, 0
2, 263964, Note_on_c, 0, 62, 0
2, 263987, Note_on_c, 0, 69, 0
2, 263992, Note_on_c, 0, 65, 0
2, 264042, Note_on_c, 0, 60, 0
2, 264056, Control_c, 0, 64, 127
2, 264059, Note_on_c, 0, 58, 66
2, 264068, Note_on_c, 0, 70, 75
2, 264070, Note_on_c, 0, 65, 71
2, 264078, Note_on_c, 0, 62, 63
2, 264247, Note_on_c, 0, 62, 0
2, 264328, Note_on_c, 0, 70, 0
2, 264343, Note_on_c, 0, 65, 0
2, 264411, Note_on_c, 0, 58, 0
2, 264439, Note_on_c, 0, 57, 56
2, 264441, Note_on_c, 0, 62, 58
2, 264442, Note_on_c, 0, 69, 67
2, 264463, Note_on_c, 0, 65, 48
2, 264666, Note_on_c, 0, 62, 0
2, 264701, Note_on_c, 0, 65, 0
2, 264783, Control_c, 0, 64, 0
2, 264793, Note_on_c, 0, 69, 0
2, 264829, Note_on_c, 0, 57, 0
2, 264896, Note_on_c, 0, 67, 63
2, 264900, Note_on_c, 0, 62, 49
2, 264910, Note_on_c, 0, 51, 43
2, 264917, Note_on_c, 0, 58, 43
2, 264967, Control_c, 0, 64, 127
2, 265381, Note_on_c, 0, 58, 0
2, 265535, Note_on_c, 0, 51, 0
2, 265658, Note_on_c, 0, 62, 0
2, 265714, Control_c, 0, 64, 0
2, 265806, Note_on_c, 0, 67, 0
2, 265813, Note_on_c, 0, 58, 42
2, 265819, Note_on_c, 0, 50, 47
2, 265853, Control_c, 0, 64, 127
2, 265919, Note_on_c, 0, 50, 0
2, 265920, Note_on_c, 0, 58, 0
2, 266281, Control_c, 0, 64, 0
2, 266313, Note_on_c, 0, 84, 85
2, 266314, Note_on_c, 0, 76, 90
2, 266327, Note_on_c, 0, 73, 80
2, 266332, Note_on_c, 0, 72, 82
2, 266356, Note_on_c, 0, 82, 41
2, 266399, Note_on_c, 0, 82, 0
2, 266453, Control_c, 0, 64, 127
2, 266535, Control_c, 0, 64, 0
2, 266543, Note_on_c, 0, 84, 0
2, 266584, Note_on_c, 0, 73, 0
2, 266616, Note_on_c, 0, 72, 0
2, 266656, Note_on_c, 0, 82, 66
2, 266662, Note_on_c, 0, 73, 69
2, 266668, Note_on_c, 0, 70, 67
2, 266718, Note_on_c, 0, 76, 0
2, 266734, Control_c, 0, 64, 127
2, 266748, Note_on_c, 0, 82, 0
2, 266834, Note_on_c, 0, 73, 0
2, 266898, Note_on_c, 0, 70, 0
2, 266953, Control_c, 0, 64, 0
2, 267008, Control_c, 0, 64, 127
2, 267010, Note_on_c, 0, 73, 63
2, 267013, Note_on_c, 0, 81, 79
2, 267015, Note_on_c, 0, 69, 68
2, 267018, Note_on_c, 0, 70, 61
2, 267203, Note_on_c, 0, 81, 0
2, 267222, Control_c, 0, 64, 0
2, 267234, Note_on_c, 0, 73, 0
2, 267236, Note_on_c, 0, 70, 0
2, 267243, Note_on_c, 0, 69, 0
2, 267274, Note_on_c, 0, 70, 38
2, 267294, Note_on_c, 0, 79, 62
2, 267296, Note_on_c, 0, 67, 66
2, 267320, Note_on_c, 0, 73, 49
2, 267346, Control_c, 0, 64, 88
2, 267349, Control_c, 0, 64, 127
2, 267395, Note_on_c, 0, 79, 0
2, 267443, Note_on_c, 0, 73, 0
2, 267471, Note_on_c, 0, 70, 0
2, 267556, Control_c, 0, 64, 0
2, 267579, Note_on_c, 0, 67, 0
2, 267645, Note_on_c, 0, 66, 60
2, 267655, Note_on_c, 0, 78, 67
2, 267670, Note_on_c, 0, 70, 52
2, 267678, Note_on_c, 0, 73, 54
2, 267679, Note_on_c, 0, 67, 42
2, 267696, Control_c, 0, 64, 127
2, 267891, Note_on_c, 0, 67, 0
2, 267915, Note_on_c, 0, 78, 0
2, 267918, Note_on_c, 0, 73, 0
2, 267936, Note_on_c, 0, 70, 0
2, 267966, Control_c, 0, 64, 0
2, 268029, Note_on_c, 0, 76, 61
2, 268030, Note_on_c, 0, 67, 48
2, 268047, Note_on_c, 0, 64, 39
2, 268049, Note_on_c, 0, 66, 0
2, 268115, Note_on_c, 0, 67, 0
2, 268126, Control_c, 0, 64, 127
2, 268171, Note_on_c, 0, 76, 0
2, 268201, Note_on_c, 0, 64, 0
2, 268347, Note_on_c, 0, 73, 57
2, 268360, Note_on_c, 0, 63, 36
2, 268410, Note_on_c, 0, 63, 0
2, 268439, Note_on_c, 0, 73, 0
2, 268522, Note_on_c, 0, 63, 28
2, 268610, Control_c, 0, 64, 0
2, 268613, Note_on_c, 0, 63, 0
2, 268677, Note_on_c, 0, 70, 52
2, 268680, Note_on_c, 0, 65, 54
2, 268691, Note_on_c, 0, 74, 57
2, 268698, Note_on_c, 0, 77, 59
2, 268834, Control_c, 0, 64, 127
2, 268991, Note_on_c, 0, 53, 45
2, 269026, Note_on_c, 0, 65, 0
2, 269135, Note_on_c, 0, 53, 0
2, 269493, Note_on_c, 0, 77, 0
2, 269504, Note_on_c, 0, 74, 0
2, 269705, Note_on_c, 0, 70, 0
2, 269719, Note_on_c, 0, 41, 49
2, 269998, Note_on_c, 0, 41, 0
2, 270148, Note_on_c, 0, 41, 52
2, 270619, Control_c, 0, 64, 0
2, 270638, Note_on_c, 0, 63, 57
2, 270640, Note_on_c, 0, 65, 49
2, 270651, Note_on_c, 0, 58, 56
2, 270672, Note_on_c, 0, 53, 39
2, 270816, Control_c, 0, 64, 127
2, 271275, Note_on_c, 0, 41, 0
2, 271534, Note_on_c, 0, 41, 50
2, 271610, Note_on_c, 0, 53, 0
2, 271823, Note_on_c, 0, 41, 0
2, 271950, Note_on_c, 0, 63, 0
2, 271974, Note_on_c, 0, 58, 0
2, 272193, Note_on_c, 0, 65, 0
2, 272410, Control_c, 0, 64, 0
2, 272444, Note_on_c, 0, 63, 68
2, 272451, Note_on_c, 0, 58, 71
2, 272453, Note_on_c, 0, 55, 66
2, 272466, Note_on_c, 0, 34, 54
2, 272472, Note_on_c, 0, 46, 48
2, 272618, Control_c, 0, 64, 127
2, 273030, Note_on_c, 0, 46, 0
2, 273393, Note_on_c, 0, 46, 40
2, 273817, Note_on_c, 0, 55, 0
2, 273965, Note_on_c, 0, 34, 0
2, 273994, Note_on_c, 0, 46, 0
2, 274130, Note_on_c, 0, 58, 0
2, 274132, Note_on_c, 0, 63, 0
2, 274383, Control_c, 0, 64, 0
2, 274395, Note_on_c, 0, 34, 45
2, 274397, Note_on_c, 0, 46, 39
2, 274399, Note_on_c, 0, 62, 52
2, 274410, Note_on_c, 0, 58, 42
2, 274419, Note_on_c, 0, 53, 31
2, 275619, Note_on_c, 0, 53, 0
2, 275653, Note_on_c, 0, 62, 0
2, 275659, Note_on_c, 0, 58, 0
2, 275660, Note_on_c, 0, 34, 0
2, 275668, Note_on_c, 0, 46, 0
2, 275668, End_track
3, 0, Start_track
3, 0, Title_t, "Bass"
3, 0, Program_c, 1, 32
3, 0, Control_c, 1, 7, 86
3, 138029, Note_on_c, 1, 31, 108
3, 139064, Control_c, 1, 64, 127
3, 139944, Control_c, 1, 64, 0
3, 140024, Note_on_c, 1, 36, 110
3, 140079, Note_on_c, 1, 31, 0
3, 141924, Note_on_c, 1, 41, 118
3, 141984, Note_on_c, 1, 36, 0
3, 143754, Note_on_c, 1, 46, 107
3, 144224, Note_on_c, 1, 41, 0
3, 145554, Note_on_c, 1, 45, 86
3, 145594, Note_on_c, 1, 46, 0
3, 145744, Note_on_c, 1, 45, 0
3, 145804, Note_on_c, 1, 46, 98
3, 146754, Note_on_c, 1, 45, 92
3, 146764, Note_on_c, 1, 46, 0
3, 147724, Note_on_c, 1, 43, 105
3, 147754, Note_on_c, 1, 45, 0
3, 149574, Note_on_c, 1, 41, 106
3, 149624, Note_on_c, 1, 43, 0
3, 151514, Note_on_c, 1, 39, 105
3, 151564, Note_on_c, 1, 41, 0
3, 152414, Note_on_c, 1, 39, 0
3, 152434, Note_on_c, 1, 38, 104
3, 153364, Note_on_c, 1, 38, 0
3, 153404, Note_on_c, 1, 36, 90
3, 154332, Note_on_c, 1, 34, 95
3, 154654, Note_on_c, 1, 36, 0
3, 155122, Note_on_c, 1, 34, 0
3, 155354, Note_on_c, 1, 33, 96
3, 157244, Control_c, 1, 64, 127
3, 157434, Control_c, 1, 64, 0
3, 157574, Control_c, 1, 64, 127
3, 158194, Control_c, 1, 64, 0
3, 158254, Note_on_c, 1, 38, 101
3, 158284, Note_on_c, 1, 33, 0
3, 159164, Note_on_c, 1, 43, 108
3, 159234, Note_on_c, 1, 38, 0
3, 162494, Note_on_c, 1, 41, 101
3, 162544, Note_on_c, 1, 43, 0
3, 162964, Note_on_c, 1, 39, 102
3, 163014, Note_on_c, 1, 41, 0
3, 163904, Note_on_c, 1, 39, 0
3, 163914, Note_on_c, 1, 38, 109
3, 164924, Note_on_c, 1, 37, 102
3, 164984, Note_on_c, 1, 38, 0
3, 166654, Note_on_c, 1, 37, 0
3, 166654, Note_on_c, 1, 38, 88
3, 166814, Note_on_c, 1, 39, 101
3, 166834, Note_on_c, 1, 38, 0
3, 166924, Note_on_c, 1, 39, 0
3, 166974, Note_on_c, 1, 38, 95
3, 168314, Note_on_c, 1, 50, 68
3, 168474, Note_on_c, 1, 50, 0
3, 168484, Note_on_c, 1, 51, 75
3, 168624, Note_on_c, 1, 51, 0
3, 168654, Note_on_c, 1, 50, 66
3, 170234, Note_on_c, 1, 38, 0
3, 170244, Note_on_c, 1, 45, 82
3, 170484, Note_on_c, 1, 45, 0
3, 170514, Note_on_c, 1, 44, 83
3, 170754, Note_on_c, 1, 44, 0
3, 170754, Note_on_c, 1, 43, 98
3, 170804, Note_on_c, 1, 50, 0
3, 172144, Note_on_c, 1, 38, 86
3, 172174, Note_on_c, 1, 43, 0
3, 172664, Note_on_c, 1, 36, 98
3, 172674, Note_on_c, 1, 38, 0
3, 174594, Note_on_c, 1, 41, 112
3, 174654, Note_on_c, 1, 36, 0
3, 176424, Note_on_c, 1, 34, 107
3, 176454, Note_on_c, 1, 41, 0
3, 178354, Note_on_c, 1, 34, 0
3, 178354, Note_on_c, 1, 46, 110
3, 178744, Control_c, 1, 64, 127
3, 178774, Control_c, 1, 64, 0
3, 179294, Note_on_c, 1, 46, 0
3, 179324, Note_on_c, 1, 45, 104
3, 180314, Note_on_c, 1, 43, 106
3, 180354, Note_on_c, 1, 45, 0
3, 182172, Note_on_c, 1, 41, 96
3, 182374, Note_on_c, 1, 43, 0
3, 184052, Note_on_c, 1, 41, 0
3, 184134, Note_on_c, 1, 39, 110
3, 184434, Note_on_c, 1, 39, 0
3, 184559, Note_on_c, 1, 38, 62
3, 185019, Note_on_c, 1, 39, 103
3, 185049, Note_on_c, 1, 38, 0
3, 186054, Note_on_c, 1, 36, 108
3, 186109, Note_on_c, 1, 39, 0
3, 186954, Note_on_c, 1, 36, 0
3, 186974, Note_on_c, 1, 34, 100
3, 187954, Note_on_c, 1, 33, 97
3, 188004, Note_on_c, 1, 34, 0
3, 189864, Note_on_c, 1, 38, 102
3, 189894, Note_on_c, 1, 33, 0
3, 191894, Note_on_c, 1, 43, 103
3, 191944, Note_on_c, 1, 38, 0
3, 195174, Note_on_c, 1, 41, 101
3, 195204, Note_on_c, 1, 43, 0
3, 195654, Note_on_c, 1, 39, 101
3, 195694, Note_on_c, 1, 41, 0
3, 196634, Note_on_c, 1, 39, 0
3, 196644, Note_on_c, 1, 38, 106
3, 197634, Note_on_c, 1, 37, 101
3, 197684, Note_on_c, 1, 38, 0
3, 199004, Note_on_c, 1, 40, 110
3, 199054, Note_on_c, 1, 37, 0
3, 199482, Note_on_c, 1, 40, 0
3, 199492, Note_on_c, 1, 41, 103
3, 200532, Note_on_c, 1, 29, 101
3, 202222, Note_on_c, 1, 41, 0
3, 202292, Note_on_c, 1, 41, 109
3, 203242, Note_on_c, 1, 29, 0
3, 203242, Note_on_c, 1, 34, 102
3, 203282, Note_on_c, 1, 41, 0
3, 205252, Note_on_c, 1, 46, 90
3, 205322, Note_on_c, 1, 34, 0
3, 206769, Control_c, 1, 0, 0
3, 206769, Control_c, 1, 32, 122
3, 206772, Control_c, 1, 32, 122
3, 206772, Control_c, 1, 0, 0
3, 206772, Control_c, 1, 11, 127
3, 206772, Control_c, 1, 91, 16
3, 206772, Control_c, 1, 101, 0
3, 206773, Control_c, 1, 100, 1
3, 206774, Control_c, 1, 6, 64
3, 206775, Control_c, 1, 38, 0
3, 206779, Control_c, 1, 74, 64
3, 206779, Control_c, 1, 7, 127
3, 206779, Control_c, 1, 10, 64
3, 206779, Control_c, 1, 0, 0
3, 206779, Control_c, 1, 32, 122
3, 206779, Control_c, 1, 0, 0
3, 206779, Control_c, 1, 32, 122
3, 206779, Control_c, 1, 0, 0
3, 206779, Control_c, 1, 32, 122
3, 206779, Control_c, 1, 0, 0
3, 206779, Control_c, 1, 32, 122
3, 206779, Control_c, 1, 0, 0
3, 206779, Control_c, 1, 32, 122
3, 206779, Program_c, 1, 32
3, 206779, Control_c, 1, 93, 0
3, 206779, Control_c, 1, 94, 0
3, 206779, Pitch_bend_c, 1, 8192
3, 206912, Note_on_c, 1, 46, 0
3, 207132, Note_on_c, 1, 43, 77
3, 208872, Note_on_c, 1, 43, 0
3, 209042, Note_on_c, 1, 36, 81
3, 210782, Note_on_c, 1, 43, 103
3, 210942, Note_on_c, 1, 43, 0
3, 211012, Note_on_c, 1, 41, 105
3, 211022, Note_on_c, 1, 36, 0
3, 211982, Note_on_c, 1, 29, 110
3, 212952, Note_on_c, 1, 29, 0
3, 212952, Note_on_c, 1, 34, 107
3, 213002, Note_on_c, 1, 41, 0
3, 214612, Note_on_c, 1, 46, 87
3, 214732, Note_on_c, 1, 46, 0
3, 214752, Note_on_c, 1, 45, 79
3, 214832, Note_on_c, 1, 45, 0
3, 214952, Note_on_c, 1, 46, 94
3, 216182, Note_on_c, 1, 41, 68
3, 216242, Note_on_c, 1, 34, 0
3, 216272, Note_on_c, 1, 41, 0
3, 216272, Note_on_c, 1, 46, 0
3, 216332, Note_on_c, 1, 45, 99
3, 216792, Note_on_c, 1, 45, 0
3, 216842, Note_on_c, 1, 43, 91
3, 218712, Note_on_c, 1, 41, 95
3, 218732, Note_on_c, 1, 43, 0
3, 220632, Note_on_c, 1, 39, 105
3, 220642, Note_on_c, 1, 41, 0
3, 221422, Note_on_c, 1, 37, 77
3, 221482, Note_on_c, 1, 39, 0
3, 221572, Note_on_c, 1, 38, 104
3, 221582, Note_on_c, 1, 37, 0
3, 222422, Note_on_c, 1, 38, 0
3, 222432, Note_on_c, 1, 35, 58
3, 222532, Note_on_c, 1, 36, 88
3, 222552, Note_on_c, 1, 35, 0
3, 223482, Note_on_c, 1, 34, 100
3, 223502, Note_on_c, 1, 36, 0
3, 224462, Note_on_c, 1, 34, 0
3, 224472, Note_on_c, 1, 33, 84
3, 226142, Note_on_c, 1, 51, 91
3, 226282, Note_on_c, 1, 49, 83
3, 226302, Note_on_c, 1, 51, 0
3, 226402, Note_on_c, 1, 49, 0
3, 226452, Note_on_c, 1, 50, 94
3, 226792, Note_on_c, 1, 33, 0
3, 226942, Note_on_c, 1, 38, 119
3, 227372, Note_on_c, 1, 38, 0
3, 227392, Note_on_c, 1, 38, 86
3, 227582, Note_on_c, 1, 50, 0
3, 227872, Note_on_c, 1, 32, 95
3, 227932, Note_on_c, 1, 38, 0
3, 228362, Note_on_c, 1, 31, 107
3, 228372, Note_on_c, 1, 32, 0
3, 230262, Note_on_c, 1, 43, 119
3, 230682, Note_on_c, 1, 43, 0
3, 230712, Note_on_c, 1, 43, 101
3, 230742, Note_on_c, 1, 31, 0
3, 231942, Note_on_c, 1, 41, 83
3, 231992, Note_on_c, 1, 43, 0
3, 232062, Note_on_c, 1, 41, 0
3, 232132, Note_on_c, 1, 41, 99
3, 232572, Note_on_c, 1, 41, 0
3, 232582, Note_on_c, 1, 39, 78
3, 233562, Note_on_c, 1, 38, 88
3, 233572, Note_on_c, 1, 39, 0
3, 234022, Note_on_c, 1, 38, 0
3, 234052, Note_on_c, 1, 37, 94
3, 235662, Note_on_c, 1, 40, 76
3, 235672, Note_on_c, 1, 37, 0
3, 235812, Note_on_c, 1, 37, 78
3, 235832, Note_on_c, 1, 40, 0
3, 235932, Note_on_c, 1, 37, 0
3, 236002, Note_on_c, 1, 38, 108
3, 236962, Note_on_c, 1, 50, 84
3, 237082, Note_on_c, 1, 50, 0
3, 237132, Note_on_c, 1, 51, 82
3, 237272, Note_on_c, 1, 50, 92
3, 237302, Note_on_c, 1, 51, 0
3, 239192, Note_on_c, 1, 38, 0
3, 239332, Note_on_c, 1, 38, 91
3, 239822, Note_on_c, 1, 38, 0
3, 239822, Note_on_c, 1, 50, 0
3, 239822, Note_on_c, 1, 43, 106
3, 240282, Note_on_c, 1, 42, 81
3, 240342, Note_on_c, 1, 43, 0
3, 240772, Note_on_c, 1, 43, 96
3, 240792, Note_on_c, 1, 42, 0
3, 241592, Note_on_c, 1, 50, 127
3, 241722, Note_on_c, 1, 43, 0
3, 241772, Note_on_c, 1, 50, 0
3, 241802, Note_on_c, 1, 48, 105
3, 242082, Note_on_c, 1, 43, 99
3, 242132, Note_on_c, 1, 48, 0
3, 242302, Note_on_c, 1, 43, 0
3, 242332, Note_on_c, 1, 38, 63
3, 242332, Note_on_c, 1, 39, 62
3, 242422, Note_on_c, 1, 38, 0
3, 242432, Note_on_c, 1, 39, 0
3, 242752, Note_on_c, 1, 36, 100
3, 243132, Note_on_c, 1, 36, 0
3, 243202, Note_on_c, 1, 36, 103
3, 243682, Note_on_c, 1, 36, 0
3, 243702, Note_on_c, 1, 41, 92
3, 244172, Note_on_c, 1, 29, 101
3, 245572, Note_on_c, 1, 34, 103
3, 245582, Note_on_c, 1, 29, 0
3, 245612, Note_on_c, 1, 41, 0
3, 247492, Note_on_c, 1, 46, 112
3, 247582, Note_on_c, 1, 34, 0
3, 248272, Note_on_c, 1, 34, 62
3, 248372, Note_on_c, 1, 46, 0
3, 248442, Note_on_c, 1, 34, 0
3, 248452, Note_on_c, 1, 45, 109
3, 249282, Note_on_c, 1, 42, 62
3, 249352, Note_on_c, 1, 45, 0
3, 249432, Note_on_c, 1, 43, 103
3, 249452, Note_on_c, 1, 42, 0
3, 251294, Note_on_c, 1, 41, 108
3, 251472, Note_on_c, 1, 43, 0
3, 253154, Note_on_c, 1, 41, 0
3, 253282, Note_on_c, 1, 39, 88
3, 253582, Note_on_c, 1, 55, 90
3, 254172, Note_on_c, 1, 55, 0
3, 254212, Note_on_c, 1, 53, 70
3, 254212, Note_on_c, 1, 38, 77
3, 254232, Note_on_c, 1, 39, 0
3, 255192, Note_on_c, 1, 38, 0
3, 255192, Note_on_c, 1, 53, 0
3, 255202, Note_on_c, 1, 36, 69
3, 255212, Note_on_c, 1, 51, 64
3, 256172, Note_on_c, 1, 36, 0
3, 256182, Note_on_c, 1, 34, 98
3, 256712, Note_on_c, 1, 51, 0
3, 257122, Note_on_c, 1, 33, 96
3, 257182, Note_on_c, 1, 34, 0
3, 258532, Note_on_c, 1, 39, 99
3, 258582, Note_on_c, 1, 33, 0
3, 258872, Note_on_c, 1, 37, 72
3, 258882, Note_on_c, 1, 39, 0
3, 259012, Note_on_c, 1, 38, 92
3, 259022, Note_on_c, 1, 37, 0
3, 259812, Note_on_c, 1, 37, 69
3, 259962, Note_on_c, 1, 37, 0
3, 259992, Note_on_c, 1, 54, 96
3, 260812, Note_on_c, 1, 37, 72
3, 260872, Note_on_c, 1, 38, 0
3, 260892, Note_on_c, 1, 54, 0
3, 260952, Note_on_c, 1, 55, 95
3, 260962, Note_on_c, 1, 37, 0
3, 261352, Note_on_c, 1, 55, 0
3, 261462, Note_on_c, 1, 51, 94
3, 261802, Note_on_c, 1, 42, 43
3, 261852, Note_on_c, 1, 42, 0
3, 261852, Note_on_c, 1, 51, 0
3, 261952, Note_on_c, 1, 50, 89
3, 262432, Note_on_c, 1, 43, 88
3, 262452, Note_on_c, 1, 50, 0
3, 262912, Note_on_c, 1, 43, 0
3, 262922, Note_on_c, 1, 38, 88
3, 263432, Note_on_c, 1, 38, 0
3, 263442, Note_on_c, 1, 43, 104
3, 263932, Note_on_c, 1, 41, 102
3, 263992, Note_on_c, 1, 43, 0
3, 264372, Note_on_c, 1, 41, 0
3, 264422, Note_on_c, 1, 41, 105
3, 264872, Note_on_c, 1, 39, 103
3, 264932, Note_on_c, 1, 41, 0
3, 265792, Note_on_c, 1, 39, 0
3, 265802, Note_on_c, 1, 38, 106
3, 266762, Note_on_c, 1, 37, 95
3, 266792, Note_on_c, 1, 38, 0
3, 268182, Note_on_c, 1, 40, 101
3, 268212, Note_on_c, 1, 37, 0
3, 268222, Note_on_c, 1, 38, 52
3, 268282, Note_on_c, 1, 38, 0
3, 268632, Note_on_c, 1, 40, 0
3, 268682, Note_on_c, 1, 41, 102
3, 269172, Note_on_c, 1, 29, 76
3, 269582, Note_on_c, 1, 29, 0
3, 269642, Note_on_c, 1, 29, 96
3, 270962, Note_on_c, 1, 41, 0
3, 271052, Note_on_c, 1, 41, 95
3, 271452, Note_on_c, 1, 41, 0
3, 271502, Note_on_c, 1, 41, 89
3, 271932, Note_on_c, 1, 34, 81
3, 271952, Note_on_c, 1, 29, 0
3, 272002, Note_on_c, 1, 34, 0
3, 272012, Note_on_c, 1, 29, 42
3, 272072, Note_on_c, 1, 29, 0
3, 272402, Note_on_c, 1, 34, 101
3, 272462, Note_on_c, 1, 41, 0
3, 274342, Note_on_c, 1, 46, 109
3, 275412, Note_on_c, 1, 46, 0
3, 275582, Note_on_c, 1, 34, 0
3, 275582, End_track
4, 0, Start_track
4, 0, Title_t, "Drums"
4, 0, Program_c, 9, 40
4, 0, Control_c, 9, 7, 73
4, 138028, Note_on_c, 9, 51, 52
4, 138049, Note_on_c, 9, 57, 29
4, 138049, Note_on_c, 9, 35, 24
4, 138119, Note_on_c, 9, 57, 0
4, 138129, Note_on_c, 9, 35, 0
4, 138964, Note_on_c, 9, 51, 65
4, 138973, Note_on_c, 9, 51, 0
4, 138974, Note_on_c, 9, 44, 73
4, 139934, Note_on_c, 9, 51, 0
4, 139964, Note_on_c, 9, 51, 55
4, 140029, Note_on_c, 9, 44, 0
4, 140894, Note_on_c, 9, 51, 0
4, 140894, Note_on_c, 9, 44, 77
4, 140949, Note_on_c, 9, 51, 67
4, 141854, Note_on_c, 9, 51, 0
4, 141893, Note_on_c, 9, 51, 50
4, 141994, Note_on_c, 9, 44, 0
4, 142813, Note_on_c, 9, 51, 0
4, 142814, Note_on_c, 9, 44, 70
4, 142859, Note_on_c, 9, 51, 62
4, 143734, Note_on_c, 9, 44, 0
4, 143774, Note_on_c, 9, 51, 0
4, 143869, Note_on_c, 9, 51, 67
4, 144734, Note_on_c, 9, 51, 0
4, 144734, Note_on_c, 9, 46, 39
4, 144774, Note_on_c, 9, 51, 50
4, 144779, Note_on_c, 9, 46, 0
4, 145274, Note_on_c, 9, 51, 52
4, 145694, Note_on_c, 9, 51, 0
4, 145724, Note_on_c, 9, 51, 57
4, 146654, Note_on_c, 9, 51, 0
4, 146654, Note_on_c, 9, 51, 0
4, 146654, Note_on_c, 9, 44, 52
4, 146734, Note_on_c, 9, 51, 62
4, 146859, Note_on_c, 9, 44, 0
4, 147614, Note_on_c, 9, 51, 0
4, 147709, Note_on_c, 9, 51, 52
4, 148574, Note_on_c, 9, 51, 0
4, 148574, Note_on_c, 9, 44, 61
4, 148604, Note_on_c, 9, 51, 52
4, 148874, Note_on_c, 9, 44, 0
4, 149534, Note_on_c, 9, 51, 0
4, 149539, Note_on_c, 9, 51, 47
4, 150494, Note_on_c, 9, 51, 0
4, 150494, Note_on_c, 9, 44, 62
4, 150549, Note_on_c, 9, 51, 52
4, 150644, Note_on_c, 9, 44, 0
4, 151454, Note_on_c, 9, 51, 0
4, 151474, Note_on_c, 9, 51, 55
4, 151949, Note_on_c, 9, 51, 47
4, 152414, Note_on_c, 9, 51, 0
4, 152414, Note_on_c, 9, 44, 51
4, 152414, Note_on_c, 9, 51, 67
4, 152659, Note_on_c, 9, 44, 0
4, 153174, Note_on_c, 9, 35, 27
4, 153214, Note_on_c, 9, 35, 0
4, 153374, Note_on_c, 9, 51, 0
4, 153374, Note_on_c, 9, 51, 0
4, 153394, Note_on_c, 9, 51, 77
4, 154334, Note_on_c, 9, 51, 0
4, 154334, Note_on_c, 9, 44, 52
4, 154394, Note_on_c, 9, 51, 52
4, 154494, Note_on_c, 9, 44, 0
4, 155139, Note_on_c, 9, 35, 33
4, 155179, Note_on_c, 9, 35, 0
4, 155294, Note_on_c, 9, 51, 0
4, 155374, Note_on_c, 9, 51, 77
4, 156254, Note_on_c, 9, 51, 0
4, 156254, Note_on_c, 9, 44, 55
4, 156324, Note_on_c, 9, 51, 70
4, 156404, Note_on_c, 9, 44, 0
4, 157214, Note_on_c, 9, 51, 0
4, 157274, Note_on_c, 9, 51, 52
4, 158174, Note_on_c, 9, 51, 0
4, 158174, Note_on_c, 9, 44, 56
4, 158204, Note_on_c, 9, 51, 55
4, 158294, Note_on_c, 9, 44, 0
4, 158939, Note_on_c, 9, 35, 30
4, 159054, Note_on_c, 9, 35, 0
4, 159134, Note_on_c, 9, 51, 0
4, 159174, Note_on_c, 9, 51, 57
4, 159179, Note_on_c, 9, 35, 36
4, 159179, Note_on_c, 9, 59, 34
4, 159244, Note_on_c, 9, 35, 0
4, 159259, Note_on_c, 9, 59, 0
4, 159654, Note_on_c, 9, 59, 38
4, 159654, Note_on_c, 9, 35, 32
4, 159764, Note_on_c, 9, 59, 0
4, 159774, Note_on_c, 9, 35, 0
4, 160094, Note_on_c, 9, 51, 0
4, 160094, Note_on_c, 9, 46, 25
4, 160114, Note_on_c, 9, 51, 65
4, 160214, Note_on_c, 9, 46, 0
4, 161054, Note_on_c, 9, 51, 0
4, 161059, Note_on_c, 9, 51, 77
4, 161074, Note_on_c, 9, 51, 62
4, 162014, Note_on_c, 9, 51, 0
4, 162014, Note_on_c, 9, 51, 0
4, 162014, Note_on_c, 9, 44, 69
4, 162029, Note_on_c, 9, 51, 72
4, 162284, Note_on_c, 9, 44, 0
4, 162964, Note_on_c, 9, 51, 62
4, 162974, Note_on_c, 9, 51, 0
4, 163934, Note_on_c, 9, 51, 0
4, 163934, Note_on_c, 9, 44, 53
4, 163939, Note_on_c, 9, 51, 60
4, 164164, Note_on_c, 9, 44, 0
4, 164699, Note_on_c, 9, 35, 48
4, 164739, Note_on_c, 9, 35, 0
4, 164894, Note_on_c, 9, 51, 0
4, 164894, Note_on_c, 9, 59, 40
4, 164894, Note_on_c, 9, 51, 55
4, 164899, Note_on_c, 9, 35, 35
4, 165019, Note_on_c, 9, 59, 0
4, 165044, Note_on_c, 9, 35, 0
4, 165854, Note_on_c, 9, 51, 0
4, 165854, Note_on_c, 9, 44, 71
4, 165869, Note_on_c, 9, 51, 52
4, 166014, Note_on_c, 9, 44, 0
4, 166814, Note_on_c, 9, 51, 0
4, 166819, Note_on_c, 9, 51, 67
4, 166854, Note_on_c, 9, 35, 32
4, 166924, Note_on_c, 9, 35, 0
4, 167339, Note_on_c, 9, 35, 35
4, 167574, Note_on_c, 9, 35, 0
4, 167764, Note_on_c, 9, 51, 65
4, 167774, Note_on_c, 9, 51, 0
4, 167774, Note_on_c, 9, 46, 55
4, 167844, Note_on_c, 9, 46, 0
4, 168139, Note_on_c, 9, 35, 60
4, 168204, Note_on_c, 9, 35, 0
4, 168334, Note_on_c, 9, 35, 47
4, 168334, Note_on_c, 9, 59, 26
4, 168374, Note_on_c, 9, 59, 0
4, 168379, Note_on_c, 9, 35, 0
4, 168684, Note_on_c, 9, 51, 70
4, 168734, Note_on_c, 9, 51, 0
4, 168774, Note_on_c, 9, 35, 47
4, 168774, Note_on_c, 9, 59, 54
4, 168819, Note_on_c, 9, 59, 0
4, 168829, Note_on_c, 9, 35, 0
4, 169294, Note_on_c, 9, 59, 61
4, 169299, Note_on_c, 9, 35, 32
4, 169379, Note_on_c, 9, 59, 0
4, 169499, Note_on_c, 9, 35, 0
4, 169694, Note_on_c, 9, 51, 0
4, 169694, Note_on_c, 9, 44, 45
4, 169739, Note_on_c, 9, 51, 60
4, 169829, Note_on_c, 9, 44, 0
4, 170654, Note_on_c, 9, 51, 0
4, 170694, Note_on_c, 9, 51, 70
4, 171614, Note_on_c, 9, 51, 0
4, 171614, Note_on_c, 9, 44, 70
4, 171634, Note_on_c, 9, 51, 47
4, 171869, Note_on_c, 9, 44, 0
4, 172574, Note_on_c, 9, 51, 0
4, 172619, Note_on_c, 9, 51, 80
4, 173534, Note_on_c, 9, 51, 0
4, 173534, Note_on_c, 9, 44, 75
4, 173614, Note_on_c, 9, 51, 50
4, 173814, Note_on_c, 9, 44, 0
4, 174494, Note_on_c, 9, 51, 0
4, 174514, Note_on_c, 9, 51, 47
4, 175454, Note_on_c, 9, 51, 0
4, 175454, Note_on_c, 9, 44, 69
4, 175454, Note_on_c, 9, 51, 50
4, 175734, Note_on_c, 9, 44, 0
4, 176219, Note_on_c, 9, 51, 60
4, 176414, Note_on_c, 9, 51, 0
4, 176429, Note_on_c, 9, 51, 37
4, 177354, Note_on_c, 9, 51, 52
4, 177374, Note_on_c, 9, 51, 0
4, 177374, Note_on_c, 9, 51, 0
4, 177374, Note_on_c, 9, 44, 69
4, 177669, Note_on_c, 9, 44, 0
4, 178324, Note_on_c, 9, 51, 55
4, 178334, Note_on_c, 9, 51, 0
4, 179294, Note_on_c, 9, 51, 0
4, 179294, Note_on_c, 9, 44, 70
4, 179324, Note_on_c, 9, 51, 45
4, 179534, Note_on_c, 9, 44, 0
4, 179794, Note_on_c, 9, 51, 47
4, 180254, Note_on_c, 9, 51, 0
4, 180259, Note_on_c, 9, 51, 60
4, 181214, Note_on_c, 9, 51, 0
4, 181214, Note_on_c, 9, 51, 0
4, 181214, Note_on_c, 9, 44, 62
4, 181284, Note_on_c, 9, 51, 52
4, 181339, Note_on_c, 9, 37, 25
4, 181379, Note_on_c, 9, 37, 0
4, 181429, Note_on_c, 9, 44, 0
4, 182174, Note_on_c, 9, 51, 0
4, 182214, Note_on_c, 9, 51, 52
4, 183134, Note_on_c, 9, 51, 0
4, 183134, Note_on_c, 9, 44, 64
4, 183134, Note_on_c, 9, 51, 75
4, 183314, Note_on_c, 9, 44, 0
4, 184019, Note_on_c, 9, 35, 37
4, 184069, Note_on_c, 9, 51, 62
4, 184084, Note_on_c, 9, 35, 0
4, 184094, Note_on_c, 9, 51, 0
4, 184234, Note_on_c, 9, 35, 32
4, 184404, Note_on_c, 9, 35, 0
4, 184694, Note_on_c, 9, 59, 60
4, 184709, Note_on_c, 9, 35, 35
4, 184734, Note_on_c, 9, 59, 0
4, 184834, Note_on_c, 9, 35, 0
4, 185054, Note_on_c, 9, 51, 0
4, 185054, Note_on_c, 9, 44, 55
4, 185094, Note_on_c, 9, 51, 62
4, 185139, Note_on_c, 9, 44, 0
4, 185974, Note_on_c, 9, 51, 75
4, 186014, Note_on_c, 9, 51, 0
4, 186974, Note_on_c, 9, 51, 0
4, 186974, Note_on_c, 9, 44, 74
4, 187139, Note_on_c, 9, 44, 0
4, 187429, Note_on_c, 9, 51, 55
4, 187914, Note_on_c, 9, 51, 62
4, 187934, Note_on_c, 9, 51, 0
4, 188454, Note_on_c, 9, 51, 67
4, 188894, Note_on_c, 9, 51, 0
4, 188894, Note_on_c, 9, 44, 75
4, 188894, Note_on_c, 9, 44, 70
4, 188894, Note_on_c, 9, 44, 58
4, 188994, Note_on_c, 9, 44, 0
4, 189044, Note_on_c, 9, 44, 0
4, 189269, Note_on_c, 9, 44, 0
4, 189854, Note_on_c, 9, 51, 0
4, 189894, Note_on_c, 9, 51, 75
4, 190814, Note_on_c, 9, 51, 0
4, 190814, Note_on_c, 9, 44, 54
4, 190814, Note_on_c, 9, 44, 55
4, 190884, Note_on_c, 9, 51, 60
4, 190939, Note_on_c, 9, 44, 0
4, 191244, Note_on_c, 9, 44, 0
4, 191774, Note_on_c, 9, 51, 0
4, 191854, Note_on_c, 9, 51, 62
4, 192734, Note_on_c, 9, 51, 0
4, 192734, Note_on_c, 9, 44, 56
4, 192734, Note_on_c, 9, 44, 60
4, 192819, Note_on_c, 9, 51, 60
4, 192854, Note_on_c, 9, 44, 0
4, 192884, Note_on_c, 9, 35, 29
4, 192924, Note_on_c, 9, 35, 0
4, 193054, Note_on_c, 9, 44, 0
4, 193309, Note_on_c, 9, 51, 65
4, 193694, Note_on_c, 9, 51, 0
4, 193774, Note_on_c, 9, 51, 67
4, 194269, Note_on_c, 9, 35, 27
4, 194564, Note_on_c, 9, 35, 0
4, 194654, Note_on_c, 9, 51, 0
4, 194654, Note_on_c, 9, 51, 0
4, 194654, Note_on_c, 9, 44, 51
4, 194654, Note_on_c, 9, 44, 62
4, 194674, Note_on_c, 9, 51, 55
4, 194734, Note_on_c, 9, 44, 0
4, 194914, Note_on_c, 9, 44, 0
4, 195614, Note_on_c, 9, 51, 0
4, 195654, Note_on_c, 9, 51, 60
4, 196574, Note_on_c, 9, 51, 0
4, 196574, Note_on_c, 9, 44, 58
4, 196574, Note_on_c, 9, 44, 60
4, 196644, Note_on_c, 9, 44, 0
4, 196659, Note_on_c, 9, 51, 55
4, 196834, Note_on_c, 9, 44, 0
4, 197154, Note_on_c, 9, 35, 28
4, 197234, Note_on_c, 9, 35, 0
4, 197534, Note_on_c, 9, 51, 0
4, 197554, Note_on_c, 9, 51, 65
4, 198494, Note_on_c, 9, 51, 0
4, 198494, Note_on_c, 9, 46, 44
4, 198494, Note_on_c, 9, 46, 34
4, 198549, Note_on_c, 9, 46, 0
4, 198549, Note_on_c, 9, 51, 55
4, 198774, Note_on_c, 9, 46, 0
4, 199284, Note_on_c, 9, 35, 31
4, 199354, Note_on_c, 9, 35, 0
4, 199419, Note_on_c, 9, 51, 37
4, 199454, Note_on_c, 9, 51, 0
4, 199522, Note_on_c, 9, 35, 37
4, 199542, Note_on_c, 9, 59, 40
4, 199547, Note_on_c, 9, 51, 52
4, 199742, Note_on_c, 9, 35, 0
4, 199762, Note_on_c, 9, 59, 0
4, 200012, Note_on_c, 9, 35, 37
4, 200022, Note_on_c, 9, 59, 31
4, 200202, Note_on_c, 9, 59, 0
4, 200212, Note_on_c, 9, 35, 0
4, 200422, Note_on_c, 9, 51, 0
4, 200422, Note_on_c, 9, 51, 0
4, 200422, Note_on_c, 9, 44, 79
4, 200422, Note_on_c, 9, 44, 34
4, 200427, Note_on_c, 9, 51, 47
4, 200692, Note_on_c, 9, 44, 0
4, 200692, Note_on_c, 9, 44, 0
4, 201362, Note_on_c, 9, 51, 52
4, 201382, Note_on_c, 9, 51, 0
4, 202282, Note_on_c, 9, 51, 65
4, 202342, Note_on_c, 9, 51, 0
4, 202342, Note_on_c, 9, 44, 55
4, 202342, Note_on_c, 9, 44, 50
4, 202477, Note_on_c, 9, 44, 0
4, 202612, Note_on_c, 9, 44, 0
4, 203267, Note_on_c, 9, 51, 72
4, 203302, Note_on_c, 9, 51, 0
4, 203772, Note_on_c, 9, 51, 55
4, 204262, Note_on_c, 9, 51, 0
4, 204262, Note_on_c, 9, 51, 0
4, 204262, Note_on_c, 9, 44, 57
4, 204262, Note_on_c, 9, 44, 44
4, 204347, Note_on_c, 9, 44, 0
4, 204562, Note_on_c, 9, 44, 0
4, 204742, Note_on_c, 9, 51, 55
4, 205197, Note_on_c, 9, 51, 75
4, 206182, Note_on_c, 9, 51, 0
4, 206182, Note_on_c, 9, 51, 0
4, 206182, Note_on_c, 9, 44, 58
4, 206182, Note_on_c, 9, 44, 48
4, 206227, Note_on_c, 9, 51, 52
4, 206382, Note_on_c, 9, 44, 0
4, 206427, Note_on_c, 9, 44, 0
4, 206982, Note_on_c, 9, 35, 31
4, 207027, Note_on_c, 9, 35, 0
4, 207142, Note_on_c, 9, 51, 0
4, 207157, Note_on_c, 9, 51, 52
4, 207182, Note_on_c, 9, 57, 29
4, 207182, Note_on_c, 9, 35, 24
4, 207252, Note_on_c, 9, 57, 0
4, 207262, Note_on_c, 9, 35, 0
4, 208092, Note_on_c, 9, 51, 65
4, 208102, Note_on_c, 9, 51, 0
4, 208102, Note_on_c, 9, 44, 73
4, 209062, Note_on_c, 9, 51, 0
4, 209092, Note_on_c, 9, 51, 55
4, 209157, Note_on_c, 9, 44, 0
4, 210022, Note_on_c, 9, 51, 0
4, 210022, Note_on_c, 9, 44, 77
4, 210077, Note_on_c, 9, 51, 67
4, 210982, Note_on_c, 9, 51, 0
4, 211022, Note_on_c, 9, 51, 50
4, 211122, Note_on_c, 9, 44, 0
4, 211942, Note_on_c, 9, 51, 0
4, 211942, Note_on_c, 9, 44, 70
4, 211987, Note_on_c, 9, 51, 62
4, 212862, Note_on_c, 9, 44, 0
4, 212902, Note_on_c, 9, 51, 0
4, 212997, Note_on_c, 9, 51, 67
4, 213862, Note_on_c, 9, 51, 0
4, 213862, Note_on_c, 9, 46, 39
4, 213902, Note_on_c, 9, 51, 50
4, 213907, Note_on_c, 9, 46, 0
4, 214402, Note_on_c, 9, 51, 52
4, 214822, Note_on_c, 9, 51, 0
4, 214852, Note_on_c, 9, 51, 57
4, 215782, Note_on_c, 9, 51, 0
4, 215782, Note_on_c, 9, 51, 0
4, 215782, Note_on_c, 9, 44, 52
4, 215862, Note_on_c, 9, 51, 62
4, 215987, Note_on_c, 9, 44, 0
4, 216742, Note_on_c, 9, 51, 0
4, 216837, Note_on_c, 9, 51, 52
4, 217702, Note_on_c, 9, 51, 0
4, 217702, Note_on_c, 9, 44, 61
4, 217732, Note_on_c, 9, 51, 52
4, 218002, Note_on_c, 9, 44, 0
4, 218662, Note_on_c, 9, 51, 0
4, 218667, Note_on_c, 9, 51, 47
4, 219622, Note_on_c, 9, 51, 0
4, 219622, Note_on_c, 9, 44, 62
4, 219677, Note_on_c, 9, 51, 52
4, 219772, Note_on_c, 9, 44, 0
4, 220582, Note_on_c, 9, 51, 0
4, 220602, Note_on_c, 9, 51, 55
4, 221077, Note_on_c, 9, 51, 47
4, 221542, Note_on_c, 9, 51, 0
4, 221542, Note_on_c, 9, 44, 51
4, 221542, Note_on_c, 9, 51, 67
4, 221787, Note_on_c, 9, 44, 0
4, 222302, Note_on_c, 9, 35, 27
4, 222342, Note_on_c, 9, 35, 0
4, 222502, Note_on_c, 9, 51, 0
4, 222502, Note_on_c, 9, 51, 0
4, 222522, Note_on_c, 9, 51, 77
4, 223462, Note_on_c, 9, 51, 0
4, 223462, Note_on_c, 9, 44, 52
4, 223522, Note_on_c, 9, 51, 52
4, 223622, Note_on_c, 9, 44, 0
4, 224267, Note_on_c, 9, 35, 33
4, 224307, Note_on_c, 9, 35, 0
4, 224422, Note_on_c, 9, 51, 0
4, 224502, Note_on_c, 9, 51, 77
4, 225382, Note_on_c, 9, 51, 0
4, 225382, Note_on_c, 9, 44, 55
4, 225452, Note_on_c, 9, 51, 70
4, 225532, Note_on_c, 9, 44, 0
4, 226342, Note_on_c, 9, 51, 0
4, 226402, Note_on_c, 9, 51, 52
4, 227302, Note_on_c, 9, 51, 0
4, 227302, Note_on_c, 9, 44, 56
4, 227332, Note_on_c, 9, 51, 55
4, 227422, Note_on_c, 9, 44, 0
4, 228067, Note_on_c, 9, 35, 30
4, 228182, Note_on_c, 9, 35, 0
4, 228262, Note_on_c, 9, 51, 0
4, 228302, Note_on_c, 9, 51, 57
4, 228307, Note_on_c, 9, 35, 36
4, 228307, Note_on_c, 9, 59, 34
4, 228372, Note_on_c, 9, 35, 0
4, 228387, Note_on_c, 9, 59, 0
4, 228782, Note_on_c, 9, 59, 38
4, 228782, Note_on_c, 9, 35, 32
4, 228892, Note_on_c, 9, 59, 0
4, 228902, Note_on_c, 9, 35, 0
4, 229222, Note_on_c, 9, 51, 0
4, 229222, Note_on_c, 9, 46, 25
4, 229242, Note_on_c, 9, 51, 65
4, 229342, Note_on_c, 9, 46, 0
4, 230182, Note_on_c, 9, 51, 0
4, 230187, Note_on_c, 9, 51, 77
4, 230202, Note_on_c, 9, 51, 62
4, 231142, Note_on_c, 9, 51, 0
4, 231142, Note_on_c, 9, 51, 0
4, 231142, Note_on_c, 9, 44, 69
4, 231157, Note_on_c, 9, 51, 72
4, 231412, Note_on_c, 9, 44, 0
4, 232092, Note_on_c, 9, 51, 62
4, 232102, Note_on_c, 9, 51, 0
4, 233062, Note_on_c, 9, 51, 0
4, 233062, Note_on_c, 9, 44, 53
4, 233067, Note_on_c, 9, 51, 60
4, 233292, Note_on_c, 9, 44, 0
4, 233827, Note_on_c, 9, 35, 48
4, 233867, Note_on_c, 9, 35, 0
4, 234022, Note_on_c, 9, 51, 0
4, 234022, Note_on_c, 9, 59, 40
4, 234022, Note_on_c, 9, 51, 55
4, 234027, Note_on_c, 9, 35, 35
4, 234147, Note_on_c, 9, 59, 0
4, 234172, Note_on_c, 9, 35, 0
4, 234982, Note_on_c, 9, 51, 0
4, 234982, Note_on_c, 9, 44, 71
4, 234997, Note_on_c, 9, 51, 52
4, 235142, Note_on_c, 9, 44, 0
4, 235942, Note_on_c, 9, 51, 0
4, 235947, Note_on_c, 9, 51, 67
4, 235982, Note_on_c, 9, 35, 32
4, 236052, Note_on_c, 9, 35, 0
4, 236467, Note_on_c, 9, 35, 35
4, 236702, Note_on_c, 9, 35, 0
4, 236892, Note_on_c, 9, 51, 65
4, 236902, Note_on_c, 9, 51, 0
4, 236902, Note_on_c, 9, 46, 55
4, 236972, Note_on_c, 9, 46, 0
4, 237267, Note_on_c, 9, 35, 60
4, 237332, Note_on_c, 9, 35, 0
4, 237462, Note_on_c, 9, 35, 47
4, 237462, Note_on_c, 9, 59, 26
4, 237502, Note_on_c, 9, 59, 0
4, 237507, Note_on_c, 9, 35, 0
4, 237812, Note_on_c, 9, 51, 70
4, 237862, Note_on_c, 9, 51, 0
4, 237902, Note_on_c, 9, 35, 47
4, 237902, Note_on_c, 9, 59, 54
4, 237947, Note_on_c, 9, 59, 0
4, 237957, Note_on_c, 9, 35, 0
4, 238422, Note_on_c, 9, 59, 61
4, 238427, Note_on_c, 9, 35, 32
4, 238507, Note_on_c, 9, 59, 0
4, 238627, Note_on_c, 9, 35, 0
4, 238822, Note_on_c, 9, 51, 0
4, 238822, Note_on_c, 9, 44, 45
4, 238867, Note_on_c, 9, 51, 60
4, 238957, Note_on_c, 9, 44, 0
4, 239782, Note_on_c, 9, 51, 0
4, 239822, Note_on_c, 9, 51, 70
4, 240742, Note_on_c, 9, 51, 0
4, 240742, Note_on_c, 9, 44, 70
4, 240762, Note_on_c, 9, 51, 47
4, 240997, Note_on_c, 9, 44, 0
4, 241702, Note_on_c, 9, 51, 0
4, 241747, Note_on_c, 9, 51, 80
4, 242662, Note_on_c, 9, 51, 0
4, 242662, Note_on_c, 9, 44, 75
4, 242742, Note_on_c, 9, 51, 50
4, 242942, Note_on_c, 9, 44, 0
4, 243622, Note_on_c, 9, 51, 0
4, 243642, Note_on_c, 9, 51, 47
4, 244582, Note_on_c, 9, 51, 0
4, 244582, Note_on_c, 9, 44, 69
4, 244582, Note_on_c, 9, 51, 50
4, 244862, Note_on_c, 9, 44, 0
4, 245347, Note_on_c, 9, 51, 60
4, 245542, Note_on_c, 9, 51, 0
4, 245557, Note_on_c, 9, 51, 37
4, 246482, Note_on_c, 9, 51, 52
4, 246502, Note_on_c, 9, 51, 0
4, 246502, Note_on_c, 9, 51, 0
4, 246502, Note_on_c, 9, 44, 69
4, 246797, Note_on_c, 9, 44, 0
4, 247452, Note_on_c, 9, 51, 55
4, 247462, Note_on_c, 9, 51, 0
4, 248422, Note_on_c, 9, 51, 0
4, 248422, Note_on_c, 9, 44, 70
4, 248452, Note_on_c, 9, 51, 45
4, 248662, Note_on_c, 9, 44, 0
4, 248922, Note_on_c, 9, 51, 47
4, 249382, Note_on_c, 9, 51, 0
4, 249387, Note_on_c, 9, 51, 60
4, 250342, Note_on_c, 9, 51, 0
4, 250342, Note_on_c, 9, 51, 0
4, 250342, Note_on_c, 9, 44, 62
4, 250412, Note_on_c, 9, 51, 52
4, 250467, Note_on_c, 9, 37, 25
4, 250507, Note_on_c, 9, 37, 0
4, 250557, Note_on_c, 9, 44, 0
4, 251302, Note_on_c, 9, 51, 0
4, 251342, Note_on_c, 9, 51, 52
4, 252262, Note_on_c, 9, 51, 0
4, 252262, Note_on_c, 9, 44, 64
4, 252262, Note_on_c, 9, 51, 75
4, 252442, Note_on_c, 9, 44, 0
4, 253147, Note_on_c, 9, 35, 37
4, 253197, Note_on_c, 9, 51, 62
4, 253212, Note_on_c, 9, 35, 0
4, 253222, Note_on_c, 9, 51, 0
4, 253362, Note_on_c, 9, 35, 32
4, 253532, Note_on_c, 9, 35, 0
4, 253822, Note_on_c, 9, 59, 60
4, 253837, Note_on_c, 9, 35, 35
4, 253862, Note_on_c, 9, 59, 0
4, 253962, Note_on_c, 9, 35, 0
4, 254182, Note_on_c, 9, 51, 0
4, 254182, Note_on_c, 9, 44, 55
4, 254222, Note_on_c, 9, 51, 62
4, 254267, Note_on_c, 9, 44, 0
4, 255102, Note_on_c, 9, 51, 75
4, 255142, Note_on_c, 9, 51, 0
4, 256102, Note_on_c, 9, 51, 0
4, 256102, Note_on_c, 9, 44, 74
4, 256267, Note_on_c, 9, 44, 0
4, 256557, Note_on_c, 9, 51, 55
4, 257042, Note_on_c, 9, 51, 62
4, 257062, Note_on_c, 9, 51, 0
4, 257582, Note_on_c, 9, 51, 67
4, 258022, Note_on_c, 9, 51, 0
4, 258022, Note_on_c, 9, 44, 75
4, 258022, Note_on_c, 9, 44, 70
4, 258022, Note_on_c, 9, 44, 58
4, 258122, Note_on_c, 9, 44, 0
4, 258172, Note_on_c, 9, 44, 0
4, 258397, Note_on_c, 9, 44, 0
4, 258982, Note_on_c, 9, 51, 0
4, 259022, Note_on_c, 9, 51, 75
4, 259942, Note_on_c, 9, 51, 0
4, 259942, Note_on_c, 9, 44, 54
4, 259942, Note_on_c, 9, 44, 55
4, 260012, Note_on_c, 9, 51, 60
4, 260067, Note_on_c, 9, 44, 0
4, 260372, Note_on_c, 9, 44, 0
4, 260902, Note_on_c, 9, 51, 0
4, 260982, Note_on_c, 9, 51, 62
4, 261862, Note_on_c, 9, 51, 0
4, 261862, Note_on_c, 9, 44, 56
4, 261862, Note_on_c, 9, 44, 60
4, 261947, Note_on_c, 9, 51, 60
4, 261982, Note_on_c, 9, 44, 0
4, 262012, Note_on_c, 9, 35, 29
4, 262052, Note_on_c, 9, 35, 0
4, 262182, Note_on_c, 9, 44, 0
4, 262437, Note_on_c, 9, 51, 65
4, 262822, Note_on_c, 9, 51, 0
4, 262902, Note_on_c, 9, 51, 67
4, 263397, Note_on_c, 9, 35, 27
4, 263692, Note_on_c, 9, 35, 0
4, 263782, Note_on_c, 9, 51, 0
4, 263782, Note_on_c, 9, 51, 0
4, 263782, Note_on_c, 9, 44, 51
4, 263782, Note_on_c, 9, 44, 62
4, 263802, Note_on_c, 9, 51, 55
4, 263862, Note_on_c, 9, 44, 0
4, 264042, Note_on_c, 9, 44, 0
4, 264742, Note_on_c, 9, 51, 0
4, 264782, Note_on_c, 9, 51, 60
4, 265702, Note_on_c, 9, 51, 0
4, 265702, Note_on_c, 9, 44, 58
4, 265702, Note_on_c, 9, 44, 60
4, 265772, Note_on_c, 9, 44, 0
4, 265787, Note_on_c, 9, 51, 55
4, 265962, Note_on_c, 9, 44, 0
4, 266282, Note_on_c, 9, 35, 28
4, 266362, Note_on_c, 9, 35, 0
4, 266662, Note_on_c, 9, 51, 0
4, 266682, Note_on_c, 9, 51, 65
4, 267622, Note_on_c, 9, 51, 0
4, 267622, Note_on_c, 9, 46, 44
4, 267622, Note_on_c, 9, 46, 34
4, 267677, Note_on_c, 9, 46, 0
4, 267677, Note_on_c, 9, 51, 55
4, 267902, Note_on_c, 9, 46, 0
4, 268412, Note_on_c, 9, 35, 31
4, 268482, Note_on_c, 9, 35, 0
4, 268547, Note_on_c, 9, 51, 37
4, 268582, Note_on_c, 9, 51, 0
4, 268642, Note_on_c, 9, 35, 37
4, 268662, Note_on_c, 9, 59, 40
4, 268667, Note_on_c, 9, 51, 52
4, 268862, Note_on_c, 9, 35, 0
4, 268882, Note_on_c, 9, 59, 0
4, 269132, Note_on_c, 9, 35, 37
4, 269142, Note_on_c, 9, 59, 31
4, 269322, Note_on_c, 9, 59, 0
4, 269332, Note_on_c, 9, 35, 0
4, 269542, Note_on_c, 9, 51, 0
4, 269542, Note_on_c, 9, 51, 0
4, 269542, Note_on_c, 9, 44, 79
4, 269542, Note_on_c, 9, 44, 34
4, 269547, Note_on_c, 9, 51, 47
4, 269812, Note_on_c, 9, 44, 0
4, 269812, Note_on_c, 9, 44, 0
4, 270482, Note_on_c, 9, 51, 52
4, 270502, Note_on_c, 9, 51, 0
4, 271402, Note_on_c, 9, 51, 65
4, 271462, Note_on_c, 9, 51, 0
4, 271462, Note_on_c, 9, 44, 55
4, 271462, Note_on_c, 9, 44, 50
4, 271597, Note_on_c, 9, 44, 0
4, 271732, Note_on_c, 9, 44, 0
4, 272387, Note_on_c, 9, 51, 72
4, 272422, Note_on_c, 9, 51, 0
4, 272892, Note_on_c, 9, 51, 55
4, 273382, Note_on_c, 9, 51, 0
4, 273382, Note_on_c, 9, 51, 0
4, 273382, Note_on_c, 9, 44, 57
4, 273382, Note_on_c, 9, 44, 44
4, 273467, Note_on_c, 9, 44, 0
4, 273682, Note_on_c, 9, 44, 0
4, 273862, Note_on_c, 9, 51, 55
4, 274317, Note_on_c, 9, 51, 75
4, 275302, Note_on_c, 9, 51, 0
4, 275302, Note_on_c, 9, 51, 0
4, 275302, Note_on_c, 9, 44, 58
4, 275302, Note_on_c, 9, 44, 48
4, 275347, Note_on_c, 9, 51, 52
4, 275502, Note_on_c, 9, 44, 0
4, 275547, Note_on_c, 9, 44, 0
4, 276262, Note_on_c, 9, 51, 0
4, 276262, End_track
0, 0, End_of_file
