0, 0, Header, 1, 3, 960
1, 0, Start_track
1, 0, Title_t, "untitled"
1, 0, Copyright_t, "Copyright © 2006 by Gordon TAFE"
1, 0, Text_t, "Gordon TAFE\012"
1, 0, Time_signature, 4, 2, 24, 8
1, 0, Key_signature, -3, "major"
1, 0, Tempo, 501253
1, 0, End_track
2, 0, Start_track
2, 0, Title_t, "Track 1"
2, 0, Control_c, 0, 7, 101
2, 0, Control_c, 0, 10, 64
2, 0, End_track
3, 0, Start_track
3, 0, Title_t, "Track 2"
3, 0, Program_c, 0, 0
3, 8005, Control_c, 0, 11, 127
3, 8005, Control_c, 0, 94, 0
3, 8005, Control_c, 0, 101, 0
3, 8006, Control_c, 0, 100, 1
3, 8007, Control_c, 0, 6, 64
3, 8008, Control_c, 0, 38, 0
3, 8008, Pitch_bend_c, 0, 8192
3, 8008, Control_c, 0, 71, 43
3, 8008, Control_c, 0, 74, 46
3, 8008, Control_c, 0, 64, 0
3, 9925, Note_on_c, 0, 32, 72
3, 9925, Note_on_c, 0, 44, 64
3, 10215, Control_c, 0, 64, 127
3, 10945, Note_on_c, 0, 32, 0
3, 11065, Note_on_c, 0, 44, 0
3, 12495, Note_on_c, 0, 60, 89
3, 12495, Note_on_c, 0, 48, 77
3, 13475, Note_on_c, 0, 60, 0
3, 13545, Note_on_c, 0, 51, 72
3, 13545, Note_on_c, 0, 63, 85
3, 14195, Note_on_c, 0, 63, 0
3, 14335, Note_on_c, 0, 48, 0
3, 14335, Note_on_c, 0, 55, 79
3, 14335, Note_on_c, 0, 67, 94
3, 14455, Note_on_c, 0, 51, 0
3, 14885, Note_on_c, 0, 67, 0
3, 15025, Note_on_c, 0, 55, 0
3, 15045, Note_on_c, 0, 58, 87
3, 15045, Note_on_c, 0, 70, 94
3, 15805, Note_on_c, 0, 58, 0
3, 15815, Note_on_c, 0, 56, 69
3, 15815, Note_on_c, 0, 68, 84
3, 15845, Control_c, 0, 64, 0
3, 15925, Note_on_c, 0, 70, 0
3, 16045, Control_c, 0, 64, 127
3, 16065, Note_on_c, 0, 70, 25
3, 16455, Note_on_c, 0, 70, 0
3, 16555, Note_on_c, 0, 56, 0
3, 16565, Note_on_c, 0, 68, 0
3, 16635, Note_on_c, 0, 63, 61
3, 16665, Note_on_c, 0, 51, 46
3, 18465, Note_on_c, 0, 63, 0
3, 18495, Note_on_c, 0, 65, 50
3, 18575, Note_on_c, 0, 53, 37
3, 18615, Note_on_c, 0, 51, 0
3, 18685, Note_on_c, 0, 53, 0
3, 19215, Note_on_c, 0, 65, 0
3, 20015, Control_c, 0, 64, 0
3, 20075, Note_on_c, 0, 67, 52
3, 20085, Note_on_c, 0, 59, 48
3, 20105, Note_on_c, 0, 63, 47
3, 20115, Note_on_c, 0, 43, 35
3, 20125, Note_on_c, 0, 31, 40
3, 20335, Control_c, 0, 64, 127
3, 20345, Note_on_c, 0, 59, 0
3, 20485, Note_on_c, 0, 67, 0
3, 20495, Note_on_c, 0, 31, 0
3, 20525, Note_on_c, 0, 63, 0
3, 20635, Note_on_c, 0, 43, 0
3, 21735, Note_on_c, 0, 71, 35
3, 21755, Note_on_c, 0, 79, 43
3, 21755, Note_on_c, 0, 75, 41
3, 21785, Note_on_c, 0, 65, 39
3, 22315, Note_on_c, 0, 71, 0
3, 22355, Note_on_c, 0, 65, 0
3, 22385, Note_on_c, 0, 79, 0
3, 22415, Note_on_c, 0, 75, 0
3, 22955, Note_on_c, 0, 79, 40
3, 22955, Note_on_c, 0, 65, 38
3, 22955, Note_on_c, 0, 75, 40
3, 22995, Note_on_c, 0, 71, 23
3, 23395, Note_on_c, 0, 79, 0
3, 23405, Note_on_c, 0, 65, 0
3, 23405, Note_on_c, 0, 71, 0
3, 23475, Note_on_c, 0, 75, 0
3, 24085, Note_on_c, 0, 75, 38
3, 24115, Note_on_c, 0, 65, 34
3, 24125, Note_on_c, 0, 71, 34
3, 24145, Note_on_c, 0, 79, 37
3, 24435, Note_on_c, 0, 65, 0
3, 24495, Note_on_c, 0, 71, 0
3, 24525, Note_on_c, 0, 75, 0
3, 24565, Note_on_c, 0, 79, 0
3, 27035, Note_on_c, 0, 65, 32
3, 27035, Note_on_c, 0, 71, 32
3, 27055, Note_on_c, 0, 75, 41
3, 27055, Note_on_c, 0, 79, 33
3, 27285, Note_on_c, 0, 65, 0
3, 27485, Note_on_c, 0, 71, 0
3, 27625, Note_on_c, 0, 75, 0
3, 27645, Note_on_c, 0, 79, 0
3, 29285, Note_on_c, 0, 46, 48
3, 29325, Control_c, 0, 64, 0
3, 29465, Control_c, 0, 64, 127
3, 29675, Note_on_c, 0, 46, 0
3, 30725, Note_on_c, 0, 79, 49
3, 30755, Note_on_c, 0, 74, 48
3, 30795, Note_on_c, 0, 71, 50
3, 30805, Note_on_c, 0, 68, 44
3, 30825, Note_on_c, 0, 67, 41
3, 31765, Note_on_c, 0, 67, 0
3, 31865, Note_on_c, 0, 79, 0
3, 32005, Note_on_c, 0, 74, 0
3, 32055, Note_on_c, 0, 71, 0
3, 32205, Note_on_c, 0, 68, 0
3, 34315, Control_c, 0, 64, 0
3, 34325, Note_on_c, 0, 55, 45
3, 34335, Note_on_c, 0, 59, 52
3, 34375, Note_on_c, 0, 50, 32
3, 34375, Note_on_c, 0, 43, 38
3, 34575, Control_c, 0, 64, 127
3, 34845, Note_on_c, 0, 55, 0
3, 34955, Note_on_c, 0, 59, 0
3, 36105, Note_on_c, 0, 50, 0
3, 37905, Note_on_c, 0, 43, 0
3, 38115, Note_on_c, 0, 59, 48
3, 38115, Note_on_c, 0, 63, 55
3, 38135, Note_on_c, 0, 67, 46
3, 38135, Note_on_c, 0, 53, 42
3, 38195, Note_on_c, 0, 59, 0
3, 38325, Note_on_c, 0, 63, 0
3, 38325, Note_on_c, 0, 67, 0
3, 39265, Note_on_c, 0, 53, 0
3, 39325, Note_on_c, 0, 71, 63
3, 39335, Note_on_c, 0, 67, 63
3, 39335, Note_on_c, 0, 63, 54
3, 39345, Control_c, 0, 64, 0
3, 39365, Note_on_c, 0, 55, 56
3, 39615, Control_c, 0, 64, 127
3, 39925, Note_on_c, 0, 63, 0
3, 40155, Note_on_c, 0, 67, 0
3, 40235, Note_on_c, 0, 71, 0
3, 41405, Note_on_c, 0, 74, 68
3, 41435, Note_on_c, 0, 68, 52
3, 41445, Note_on_c, 0, 71, 50
3, 41455, Note_on_c, 0, 65, 43
3, 41465, Control_c, 0, 64, 0
3, 41485, Note_on_c, 0, 59, 40
3, 41525, Note_on_c, 0, 55, 0
3, 41545, Control_c, 0, 64, 127
3, 41655, Note_on_c, 0, 71, 0
3, 41735, Note_on_c, 0, 65, 0
3, 41745, Note_on_c, 0, 74, 0
3, 41785, Note_on_c, 0, 59, 0
3, 41795, Note_on_c, 0, 68, 0
3, 42545, Note_on_c, 0, 77, 78
3, 42565, Note_on_c, 0, 68, 67
3, 42575, Note_on_c, 0, 71, 64
3, 42575, Note_on_c, 0, 74, 65
3, 42575, Note_on_c, 0, 62, 56
3, 42615, Control_c, 0, 64, 0
3, 42895, Control_c, 0, 64, 127
3, 43275, Note_on_c, 0, 74, 0
3, 43485, Note_on_c, 0, 77, 0
3, 43655, Note_on_c, 0, 62, 0
3, 43655, Note_on_c, 0, 75, 67
3, 43675, Note_on_c, 0, 60, 52
3, 43685, Control_c, 0, 64, 0
3, 43895, Control_c, 0, 64, 127
3, 44345, Note_on_c, 0, 68, 0
3, 44535, Note_on_c, 0, 71, 0
3, 44605, Note_on_c, 0, 75, 0
3, 44625, Note_on_c, 0, 60, 0
3, 44635, Control_c, 0, 64, 0
3, 44645, Note_on_c, 0, 68, 44
3, 44675, Note_on_c, 0, 59, 41
3, 44685, Note_on_c, 0, 71, 20
3, 44695, Note_on_c, 0, 74, 49
3, 44925, Control_c, 0, 64, 127
3, 46195, Note_on_c, 0, 74, 0
3, 47415, Note_on_c, 0, 74, 58
3, 47455, Note_on_c, 0, 62, 36
3, 47625, Note_on_c, 0, 62, 0
3, 47835, Note_on_c, 0, 59, 0
3, 48005, Note_on_c, 0, 74, 0
3, 48015, Note_on_c, 0, 71, 0
3, 48215, Note_on_c, 0, 68, 0
3, 50015, Control_c, 0, 64, 0
3, 50095, Note_on_c, 0, 75, 47
3, 50105, Note_on_c, 0, 63, 38
3, 50115, Note_on_c, 0, 36, 36
3, 50155, Note_on_c, 0, 24, 39
3, 50355, Control_c, 0, 64, 127
3, 50425, Note_on_c, 0, 63, 0
3, 50465, Note_on_c, 0, 24, 0
3, 50635, Note_on_c, 0, 36, 0
3, 50725, Note_on_c, 0, 75, 0
3, 52175, Control_c, 0, 64, 0
3, 52195, Note_on_c, 0, 70, 82
3, 52195, Note_on_c, 0, 67, 72
3, 52205, Note_on_c, 0, 77, 81
3, 52205, Note_on_c, 0, 74, 81
3, 52205, Note_on_c, 0, 63, 58
3, 52205, Note_on_c, 0, 65, 63
3, 52325, Control_c, 0, 64, 127
3, 52605, Note_on_c, 0, 65, 0
3, 52615, Note_on_c, 0, 67, 0
3, 52675, Note_on_c, 0, 74, 0
3, 52675, Note_on_c, 0, 77, 0
3, 52725, Note_on_c, 0, 63, 0
3, 52755, Note_on_c, 0, 70, 0
3, 53065, Control_c, 0, 64, 0
3, 53065, Note_on_c, 0, 76, 85
3, 53075, Note_on_c, 0, 66, 72
3, 53075, Note_on_c, 0, 73, 82
3, 53095, Note_on_c, 0, 69, 82
3, 53105, Note_on_c, 0, 64, 63
3, 53105, Note_on_c, 0, 62, 62
3, 53225, Control_c, 0, 64, 127
3, 53415, Note_on_c, 0, 64, 0
3, 53435, Note_on_c, 0, 76, 0
3, 53445, Note_on_c, 0, 62, 0
3, 53475, Note_on_c, 0, 69, 0
3, 53485, Note_on_c, 0, 61, 22
3, 53595, Note_on_c, 0, 61, 0
3, 53605, Note_on_c, 0, 66, 0
3, 53625, Note_on_c, 0, 73, 0
3, 53865, Control_c, 0, 64, 0
3, 53875, Note_on_c, 0, 65, 63
3, 53905, Note_on_c, 0, 75, 74
3, 53915, Note_on_c, 0, 61, 55
3, 53915, Note_on_c, 0, 68, 71
3, 53915, Note_on_c, 0, 63, 61
3, 53915, Note_on_c, 0, 72, 72
3, 54065, Control_c, 0, 64, 127
3, 54305, Note_on_c, 0, 65, 0
3, 54445, Note_on_c, 0, 63, 0
3, 54455, Note_on_c, 0, 72, 0
3, 54485, Note_on_c, 0, 68, 0
3, 54495, Note_on_c, 0, 61, 0
3, 54495, Note_on_c, 0, 75, 0
3, 54865, Control_c, 0, 64, 0
3, 54885, Note_on_c, 0, 64, 51
3, 54885, Note_on_c, 0, 74, 65
3, 54885, Note_on_c, 0, 67, 59
3, 54905, Note_on_c, 0, 62, 50
3, 54905, Note_on_c, 0, 71, 61
3, 54935, Note_on_c, 0, 60, 51
3, 55095, Control_c, 0, 64, 127
3, 55265, Note_on_c, 0, 62, 0
3, 55275, Note_on_c, 0, 74, 0
3, 55275, Note_on_c, 0, 60, 0
3, 55315, Note_on_c, 0, 64, 0
3, 55355, Note_on_c, 0, 67, 0
3, 55385, Note_on_c, 0, 71, 0
3, 55905, Control_c, 0, 64, 0
3, 55915, Note_on_c, 0, 63, 46
3, 55955, Note_on_c, 0, 61, 48
3, 55955, Note_on_c, 0, 66, 53
3, 55965, Note_on_c, 0, 73, 46
3, 55965, Note_on_c, 0, 70, 57
3, 55975, Note_on_c, 0, 59, 48
3, 56145, Control_c, 0, 64, 72
3, 56145, Control_c, 0, 64, 127
3, 56305, Note_on_c, 0, 59, 0
3, 56395, Note_on_c, 0, 61, 0
3, 56445, Note_on_c, 0, 63, 0
3, 56485, Note_on_c, 0, 73, 0
3, 56505, Note_on_c, 0, 66, 0
3, 56565, Note_on_c, 0, 70, 0
3, 56925, Control_c, 0, 64, 0
3, 56965, Note_on_c, 0, 62, 43
3, 56985, Note_on_c, 0, 58, 42
3, 57005, Note_on_c, 0, 65, 47
3, 57035, Note_on_c, 0, 72, 48
3, 57035, Note_on_c, 0, 69, 40
3, 57055, Note_on_c, 0, 60, 41
3, 57135, Control_c, 0, 64, 127
3, 57255, Note_on_c, 0, 60, 0
3, 57365, Note_on_c, 0, 62, 0
3, 57375, Note_on_c, 0, 72, 0
3, 57385, Note_on_c, 0, 69, 0
3, 57475, Note_on_c, 0, 58, 0
3, 57485, Note_on_c, 0, 65, 0
3, 57985, Note_on_c, 0, 61, 46
3, 58045, Control_c, 0, 64, 0
3, 58065, Note_on_c, 0, 59, 43
3, 58065, Note_on_c, 0, 68, 51
3, 58075, Note_on_c, 0, 71, 45
3, 58095, Note_on_c, 0, 64, 39
3, 58165, Note_on_c, 0, 57, 23
3, 58265, Control_c, 0, 64, 127
3, 58325, Note_on_c, 0, 59, 0
3, 58385, Note_on_c, 0, 57, 0
3, 58495, Note_on_c, 0, 61, 0
3, 58505, Note_on_c, 0, 71, 0
3, 58525, Note_on_c, 0, 64, 0
3, 58715, Note_on_c, 0, 68, 0
3, 59175, Control_c, 0, 64, 0
3, 59285, Note_on_c, 0, 63, 42
3, 59295, Note_on_c, 0, 70, 45
3, 59305, Note_on_c, 0, 56, 30
3, 59305, Note_on_c, 0, 58, 43
3, 59325, Note_on_c, 0, 60, 40
3, 59325, Note_on_c, 0, 67, 50
3, 59465, Control_c, 0, 64, 127
3, 59595, Note_on_c, 0, 60, 0
3, 59635, Note_on_c, 0, 58, 0
3, 59665, Note_on_c, 0, 56, 0
3, 59785, Note_on_c, 0, 67, 0
3, 59885, Note_on_c, 0, 70, 0
3, 59895, Note_on_c, 0, 63, 0
3, 60935, Note_on_c, 0, 56, 45
3, 60965, Note_on_c, 0, 60, 53
3, 60975, Control_c, 0, 64, 0
3, 60985, Note_on_c, 0, 51, 34
3, 60985, Note_on_c, 0, 53, 26
3, 60995, Note_on_c, 0, 41, 43
3, 61085, Note_on_c, 0, 48, 25
3, 61235, Note_on_c, 0, 48, 0
3, 61255, Control_c, 0, 64, 127
3, 61925, Note_on_c, 0, 53, 0
3, 62085, Note_on_c, 0, 56, 0
3, 62135, Note_on_c, 0, 60, 0
3, 62235, Note_on_c, 0, 41, 0
3, 62245, Note_on_c, 0, 51, 0
3, 62285, Note_on_c, 0, 56, 58
3, 62295, Note_on_c, 0, 53, 50
3, 62295, Note_on_c, 0, 63, 49
3, 62305, Note_on_c, 0, 48, 50
3, 62315, Note_on_c, 0, 60, 32
3, 62415, Note_on_c, 0, 53, 0
3, 62535, Note_on_c, 0, 56, 0
3, 62575, Note_on_c, 0, 60, 0
3, 62645, Note_on_c, 0, 63, 0
3, 63115, Note_on_c, 0, 65, 68
3, 63135, Note_on_c, 0, 56, 58
3, 63135, Note_on_c, 0, 63, 51
3, 63145, Note_on_c, 0, 53, 58
3, 63145, Note_on_c, 0, 60, 60
3, 63235, Note_on_c, 0, 48, 0
3, 63345, Note_on_c, 0, 56, 0
3, 63365, Note_on_c, 0, 65, 0
3, 63465, Note_on_c, 0, 60, 0
3, 63525, Note_on_c, 0, 63, 0
3, 63725, Note_on_c, 0, 53, 0
3, 63785, Note_on_c, 0, 54, 45
3, 63825, Note_on_c, 0, 51, 31
3, 63875, Note_on_c, 0, 54, 0
3, 63895, Note_on_c, 0, 53, 64
3, 63975, Note_on_c, 0, 51, 0
3, 63975, Note_on_c, 0, 67, 81
3, 63985, Note_on_c, 0, 60, 77
3, 63995, Note_on_c, 0, 56, 75
3, 63995, Note_on_c, 0, 63, 64
3, 63995, Note_on_c, 0, 55, 72
3, 64005, Control_c, 0, 64, 0
3, 64075, Note_on_c, 0, 53, 0
3, 64295, Control_c, 0, 64, 127
3, 64775, Note_on_c, 0, 60, 0
3, 64785, Note_on_c, 0, 67, 0
3, 64805, Note_on_c, 0, 63, 0
3, 64835, Note_on_c, 0, 56, 0
3, 65025, Note_on_c, 0, 63, 60
3, 65035, Note_on_c, 0, 56, 60
3, 65045, Control_c, 0, 64, 0
3, 65045, Note_on_c, 0, 60, 66
3, 65045, Note_on_c, 0, 51, 67
3, 65095, Note_on_c, 0, 55, 0
3, 65245, Control_c, 0, 64, 127
3, 65925, Note_on_c, 0, 60, 0
3, 65955, Note_on_c, 0, 56, 0
3, 66025, Note_on_c, 0, 63, 0
3, 66035, Note_on_c, 0, 51, 0
3, 66525, Note_on_c, 0, 51, 48
3, 66555, Note_on_c, 0, 63, 56
3, 66565, Note_on_c, 0, 56, 35
3, 66625, Note_on_c, 0, 60, 31
3, 67175, Note_on_c, 0, 60, 0
3, 67515, Note_on_c, 0, 56, 0
3, 67655, Note_on_c, 0, 51, 0
3, 67715, Note_on_c, 0, 56, 37
3, 67725, Note_on_c, 0, 48, 39
3, 67785, Note_on_c, 0, 60, 46
3, 68005, Note_on_c, 0, 48, 0
3, 68215, Note_on_c, 0, 56, 0
3, 68435, Note_on_c, 0, 60, 0
3, 68565, Note_on_c, 0, 63, 0
3, 69355, Note_on_c, 0, 22, 57
3, 69365, Control_c, 0, 64, 0
3, 69605, Control_c, 0, 64, 127
3, 69995, Note_on_c, 0, 22, 0
3, 71575, Note_on_c, 0, 87, 56
3, 71585, Note_on_c, 0, 75, 42
3, 71615, Note_on_c, 0, 68, 35
3, 71625, Note_on_c, 0, 80, 54
3, 71645, Note_on_c, 0, 63, 43
3, 71645, Note_on_c, 0, 58, 39
3, 71665, Note_on_c, 0, 84, 52
3, 71685, Note_on_c, 0, 60, 42
3, 72215, Note_on_c, 0, 58, 0
3, 72225, Note_on_c, 0, 63, 0
3, 72255, Note_on_c, 0, 60, 0
3, 72255, Note_on_c, 0, 68, 0
3, 72255, Note_on_c, 0, 87, 0
3, 72275, Note_on_c, 0, 75, 0
3, 72285, Note_on_c, 0, 80, 0
3, 72295, Note_on_c, 0, 84, 0
3, 72805, Note_on_c, 0, 68, 61
3, 72865, Note_on_c, 0, 87, 42
3, 72865, Note_on_c, 0, 58, 40
3, 72875, Note_on_c, 0, 80, 43
3, 72885, Note_on_c, 0, 75, 26
3, 72905, Note_on_c, 0, 60, 43
3, 72915, Note_on_c, 0, 63, 44
3, 72915, Note_on_c, 0, 84, 43
3, 73405, Note_on_c, 0, 63, 0
3, 73405, Note_on_c, 0, 58, 0
3, 73415, Note_on_c, 0, 60, 0
3, 73425, Note_on_c, 0, 68, 0
3, 73435, Note_on_c, 0, 87, 0
3, 73435, Note_on_c, 0, 75, 0
3, 73465, Note_on_c, 0, 80, 0
3, 73485, Note_on_c, 0, 84, 0
3, 74055, Note_on_c, 0, 68, 46
3, 74075, Note_on_c, 0, 87, 41
3, 74125, Note_on_c, 0, 58, 38
3, 74135, Note_on_c, 0, 63, 47
3, 74135, Note_on_c, 0, 75, 25
3, 74135, Note_on_c, 0, 80, 41
3, 74175, Note_on_c, 0, 60, 39
3, 74215, Note_on_c, 0, 84, 33
3, 74635, Note_on_c, 0, 84, 0
3, 74675, Note_on_c, 0, 63, 0
3, 74695, Note_on_c, 0, 75, 0
3, 74695, Note_on_c, 0, 60, 0
3, 74705, Note_on_c, 0, 58, 0
3, 74705, Note_on_c, 0, 80, 0
3, 74705, Note_on_c, 0, 87, 0
3, 74745, Note_on_c, 0, 68, 0
3, 75355, Note_on_c, 0, 87, 42
3, 75355, Note_on_c, 0, 68, 37
3, 75405, Note_on_c, 0, 58, 33
3, 75415, Note_on_c, 0, 63, 44
3, 75415, Note_on_c, 0, 80, 46
3, 75415, Note_on_c, 0, 75, 26
3, 75495, Note_on_c, 0, 84, 33
3, 75545, Note_on_c, 0, 60, 24
3, 75895, Note_on_c, 0, 63, 0
3, 75905, Note_on_c, 0, 84, 0
3, 75915, Note_on_c, 0, 58, 0
3, 75925, Note_on_c, 0, 68, 0
3, 75935, Note_on_c, 0, 60, 0
3, 75965, Note_on_c, 0, 80, 0
3, 75975, Note_on_c, 0, 75, 0
3, 76085, Note_on_c, 0, 87, 0
3, 76605, Note_on_c, 0, 68, 40
3, 76625, Note_on_c, 0, 87, 39
3, 76635, Note_on_c, 0, 58, 36
3, 76665, Note_on_c, 0, 63, 39
3, 76695, Note_on_c, 0, 75, 28
3, 76695, Note_on_c, 0, 80, 38
3, 76815, Note_on_c, 0, 84, 22
3, 76855, Note_on_c, 0, 68, 0
3, 76915, Note_on_c, 0, 63, 0
3, 77035, Note_on_c, 0, 58, 0
3, 79175, Control_c, 0, 64, 0
3, 79195, Note_on_c, 0, 22, 60
3, 79445, Note_on_c, 0, 84, 0
3, 79525, Control_c, 0, 64, 127
3, 79645, Note_on_c, 0, 80, 0
3, 79825, Note_on_c, 0, 22, 0
3, 79905, Note_on_c, 0, 87, 0
3, 79945, Note_on_c, 0, 75, 0
3, 81415, Note_on_c, 0, 56, 46
3, 81725, Note_on_c, 0, 58, 47
3, 81775, Note_on_c, 0, 56, 0
3, 81825, Note_on_c, 0, 58, 0
3, 81905, Note_on_c, 0, 59, 52
3, 82095, Note_on_c, 0, 62, 57
3, 82135, Note_on_c, 0, 59, 0
3, 82275, Note_on_c, 0, 64, 52
3, 82375, Note_on_c, 0, 62, 0
3, 82445, Note_on_c, 0, 64, 0
3, 82455, Note_on_c, 0, 67, 41
3, 82505, Note_on_c, 0, 68, 60
3, 82545, Note_on_c, 0, 67, 0
3, 82605, Note_on_c, 0, 70, 55
3, 82755, Note_on_c, 0, 71, 49
3, 82765, Note_on_c, 0, 70, 0
3, 82775, Note_on_c, 0, 68, 0
3, 82895, Note_on_c, 0, 71, 0
3, 82965, Note_on_c, 0, 74, 61
3, 83075, Note_on_c, 0, 76, 52
3, 83185, Note_on_c, 0, 74, 0
3, 83235, Note_on_c, 0, 76, 0
3, 83235, Note_on_c, 0, 79, 57
3, 83305, Note_on_c, 0, 79, 0
3, 83345, Note_on_c, 0, 80, 55
3, 83555, Note_on_c, 0, 80, 0
3, 83575, Note_on_c, 0, 83, 39
3, 83745, Note_on_c, 0, 86, 55
3, 83755, Note_on_c, 0, 83, 0
3, 83865, Note_on_c, 0, 88, 42
3, 83945, Note_on_c, 0, 86, 0
3, 84005, Note_on_c, 0, 88, 0
3, 84005, Note_on_c, 0, 91, 60
3, 84075, Note_on_c, 0, 91, 0
3, 84445, Note_on_c, 0, 95, 52
3, 84575, Note_on_c, 0, 95, 0
3, 84615, Note_on_c, 0, 98, 57
3, 84715, Note_on_c, 0, 100, 56
3, 84985, Note_on_c, 0, 103, 68
3, 85825, Note_on_c, 0, 103, 0
3, 85915, Note_on_c, 0, 100, 0
3, 85955, Note_on_c, 0, 98, 0
3, 88735, Note_on_c, 0, 82, 82
3, 90075, Note_on_c, 0, 82, 0
3, 90965, Control_c, 0, 64, 0
3, 91025, Note_on_c, 0, 79, 54
3, 91035, Note_on_c, 0, 67, 39
3, 91065, Note_on_c, 0, 46, 38
3, 91085, Note_on_c, 0, 39, 37
3, 91215, Control_c, 0, 64, 127
3, 91495, Note_on_c, 0, 39, 0
3, 91545, Note_on_c, 0, 46, 0
3, 91945, Note_on_c, 0, 67, 0
3, 91955, Note_on_c, 0, 79, 0
3, 93115, Note_on_c, 0, 67, 34
3, 93125, Note_on_c, 0, 70, 42
3, 93135, Note_on_c, 0, 58, 39
3, 93455, Note_on_c, 0, 58, 0
3, 93665, Note_on_c, 0, 70, 0
3, 93765, Note_on_c, 0, 67, 0
3, 95095, Control_c, 0, 64, 0
3, 95095, Note_on_c, 0, 56, 48
3, 95155, Note_on_c, 0, 59, 46
3, 95165, Note_on_c, 0, 53, 24
3, 95205, Note_on_c, 0, 50, 34
3, 95215, Note_on_c, 0, 43, 34
3, 95325, Control_c, 0, 64, 127
3, 95545, Note_on_c, 0, 56, 0
3, 95625, Note_on_c, 0, 43, 0
3, 95685, Note_on_c, 0, 59, 0
3, 95695, Note_on_c, 0, 50, 0
3, 95775, Note_on_c, 0, 53, 0
3, 97075, Note_on_c, 0, 65, 48
3, 97075, Note_on_c, 0, 56, 28
3, 97115, Note_on_c, 0, 62, 31
3, 97115, Note_on_c, 0, 59, 40
3, 97155, Note_on_c, 0, 53, 33
3, 97305, Note_on_c, 0, 65, 0
3, 97745, Note_on_c, 0, 62, 0
3, 97785, Note_on_c, 0, 59, 0
3, 97835, Note_on_c, 0, 71, 66
3, 97895, Note_on_c, 0, 53, 0
3, 97895, Note_on_c, 0, 56, 0
3, 97965, Note_on_c, 0, 71, 0
3, 98455, Note_on_c, 0, 74, 107
3, 98795, Note_on_c, 0, 74, 0
3, 98865, Note_on_c, 0, 77, 96
3, 99095, Control_c, 0, 64, 0
3, 99205, Note_on_c, 0, 44, 49
3, 99225, Note_on_c, 0, 55, 41
3, 99245, Note_on_c, 0, 77, 0
3, 99295, Note_on_c, 0, 75, 75
3, 99425, Control_c, 0, 64, 127
3, 99705, Note_on_c, 0, 44, 0
3, 99795, Note_on_c, 0, 55, 0
3, 99875, Note_on_c, 0, 67, 58
3, 100075, Note_on_c, 0, 75, 0
3, 100285, Note_on_c, 0, 67, 0
3, 100545, Note_on_c, 0, 70, 60
3, 100555, Note_on_c, 0, 67, 48
3, 101135, Note_on_c, 0, 63, 44
3, 101205, Note_on_c, 0, 60, 40
3, 101505, Note_on_c, 0, 63, 0
3, 101535, Note_on_c, 0, 60, 0
3, 101715, Note_on_c, 0, 70, 0
3, 101765, Note_on_c, 0, 67, 0
3, 103135, Control_c, 0, 64, 0
3, 103145, Note_on_c, 0, 60, 48
3, 103155, Note_on_c, 0, 57, 43
3, 103175, Note_on_c, 0, 54, 41
3, 103245, Note_on_c, 0, 45, 31
3, 103435, Control_c, 0, 64, 127
3, 103645, Note_on_c, 0, 57, 0
3, 103665, Note_on_c, 0, 60, 0
3, 103665, Note_on_c, 0, 45, 0
3, 103835, Note_on_c, 0, 54, 0
3, 105175, Note_on_c, 0, 57, 37
3, 105175, Note_on_c, 0, 63, 40
3, 105195, Note_on_c, 0, 66, 41
3, 105415, Note_on_c, 0, 66, 0
3, 105415, Note_on_c, 0, 63, 0
3, 106085, Note_on_c, 0, 65, 46
3, 106095, Note_on_c, 0, 57, 0
3, 106285, Note_on_c, 0, 65, 0
3, 106645, Note_on_c, 0, 67, 59
3, 106905, Note_on_c, 0, 67, 0
3, 106965, Note_on_c, 0, 69, 71
3, 107225, Note_on_c, 0, 69, 0
3, 107335, Control_c, 0, 64, 0
3, 107365, Note_on_c, 0, 70, 74
3, 107365, Note_on_c, 0, 46, 51
3, 107405, Note_on_c, 0, 65, 45
3, 107435, Note_on_c, 0, 62, 23
3, 107705, Control_c, 0, 64, 127
3, 108085, Note_on_c, 0, 62, 0
3, 108105, Note_on_c, 0, 65, 0
3, 108375, Note_on_c, 0, 65, 41
3, 108395, Note_on_c, 0, 62, 39
3, 108535, Note_on_c, 0, 62, 0
3, 108575, Note_on_c, 0, 65, 0
3, 109385, Note_on_c, 0, 62, 36
3, 109395, Note_on_c, 0, 56, 36
3, 109395, Note_on_c, 0, 65, 43
3, 109815, Note_on_c, 0, 46, 0
3, 110095, Note_on_c, 0, 46, 48
3, 110455, Note_on_c, 0, 46, 0
3, 110475, Note_on_c, 0, 65, 0
3, 110685, Note_on_c, 0, 62, 0
3, 110745, Note_on_c, 0, 46, 54
3, 111065, Note_on_c, 0, 46, 0
3, 111075, Note_on_c, 0, 56, 0
3, 111115, Note_on_c, 0, 70, 0
3, 111385, Control_c, 0, 64, 0
3, 111395, Note_on_c, 0, 56, 42
3, 111405, Note_on_c, 0, 62, 54
3, 111415, Note_on_c, 0, 59, 42
3, 111435, Note_on_c, 0, 47, 43
3, 111635, Control_c, 0, 64, 127
3, 111735, Note_on_c, 0, 59, 0
3, 111805, Note_on_c, 0, 62, 0
3, 111825, Note_on_c, 0, 47, 0
3, 111915, Note_on_c, 0, 56, 0
3, 112605, Note_on_c, 0, 68, 66
3, 112605, Note_on_c, 0, 74, 66
3, 112615, Note_on_c, 0, 65, 63
3, 112625, Note_on_c, 0, 59, 57
3, 112775, Note_on_c, 0, 65, 0
3, 112835, Note_on_c, 0, 59, 0
3, 112835, Note_on_c, 0, 74, 0
3, 112865, Note_on_c, 0, 68, 0
3, 113275, Note_on_c, 0, 58, 26
3, 113415, Note_on_c, 0, 77, 88
3, 113425, Note_on_c, 0, 71, 82
3, 113435, Note_on_c, 0, 58, 0
3, 113435, Note_on_c, 0, 62, 68
3, 113435, Note_on_c, 0, 68, 83
3, 113465, Note_on_c, 0, 60, 47
3, 113535, Note_on_c, 0, 60, 0
3, 113835, Note_on_c, 0, 77, 0
3, 113975, Note_on_c, 0, 62, 0
3, 113985, Note_on_c, 0, 68, 0
3, 114115, Note_on_c, 0, 77, 74
3, 114125, Note_on_c, 0, 68, 61
3, 114135, Note_on_c, 0, 62, 68
3, 114515, Note_on_c, 0, 68, 0
3, 114655, Note_on_c, 0, 77, 0
3, 114675, Note_on_c, 0, 71, 0
3, 114675, Note_on_c, 0, 62, 0
3, 114745, Note_on_c, 0, 68, 55
3, 114775, Note_on_c, 0, 59, 53
3, 114815, Note_on_c, 0, 74, 48
3, 114995, Note_on_c, 0, 68, 0
3, 115015, Note_on_c, 0, 74, 0
3, 115335, Note_on_c, 0, 59, 0
3, 115365, Control_c, 0, 64, 0
3, 115465, Note_on_c, 0, 60, 48
3, 115465, Note_on_c, 0, 75, 56
3, 115495, Note_on_c, 0, 67, 45
3, 115525, Note_on_c, 0, 70, 48
3, 115765, Control_c, 0, 64, 127
3, 116045, Note_on_c, 0, 60, 0
3, 116115, Note_on_c, 0, 70, 0
3, 116145, Note_on_c, 0, 75, 0
3, 116145, Note_on_c, 0, 48, 39
3, 116185, Note_on_c, 0, 67, 0
3, 116245, Note_on_c, 0, 48, 0
3, 116825, Note_on_c, 0, 62, 45
3, 117525, Note_on_c, 0, 63, 43
3, 117545, Note_on_c, 0, 67, 48
3, 117575, Control_c, 0, 64, 0
3, 117595, Note_on_c, 0, 62, 0
3, 117615, Note_on_c, 0, 60, 39
3, 117775, Control_c, 0, 64, 127
3, 118825, Note_on_c, 0, 60, 0
3, 119035, Note_on_c, 0, 67, 0
3, 119065, Note_on_c, 0, 63, 0
3, 119615, Note_on_c, 0, 63, 40
3, 119645, Note_on_c, 0, 55, 32
3, 119645, Note_on_c, 0, 67, 43
3, 119685, Control_c, 0, 64, 0
3, 119875, Control_c, 0, 64, 127
3, 120845, Note_on_c, 0, 46, 73
3, 120955, Note_on_c, 0, 63, 0
3, 121075, Note_on_c, 0, 67, 0
3, 121265, Note_on_c, 0, 55, 0
3, 121735, Note_on_c, 0, 63, 55
3, 121755, Note_on_c, 0, 55, 50
3, 121765, Note_on_c, 0, 67, 49
3, 121785, Note_on_c, 0, 46, 0
3, 121915, Note_on_c, 0, 55, 0
3, 122155, Note_on_c, 0, 63, 0
3, 122225, Note_on_c, 0, 67, 0
3, 122405, Note_on_c, 0, 72, 63
3, 122405, Note_on_c, 0, 63, 62
3, 122405, Note_on_c, 0, 67, 61
3, 122505, Note_on_c, 0, 72, 0
3, 122625, Note_on_c, 0, 63, 0
3, 122695, Note_on_c, 0, 67, 0
3, 122995, Note_on_c, 0, 74, 81
3, 123215, Note_on_c, 0, 74, 0
3, 123615, Control_c, 0, 64, 0
3, 123695, Note_on_c, 0, 75, 62
3, 123725, Note_on_c, 0, 45, 45
3, 123855, Control_c, 0, 64, 127
3, 124075, Note_on_c, 0, 45, 0
3, 124095, Note_on_c, 0, 75, 0
3, 125035, Note_on_c, 0, 87, 67
3, 125695, Note_on_c, 0, 63, 41
3, 125725, Note_on_c, 0, 55, 31
3, 125735, Control_c, 0, 64, 0
3, 125735, Note_on_c, 0, 75, 39
3, 125815, Note_on_c, 0, 57, 30
3, 125975, Control_c, 0, 64, 127
3, 126015, Note_on_c, 0, 55, 0
3, 126025, Note_on_c, 0, 63, 0
3, 126125, Note_on_c, 0, 57, 0
3, 126175, Note_on_c, 0, 75, 0
3, 126345, Note_on_c, 0, 87, 0
3, 126415, Note_on_c, 0, 75, 41
3, 127085, Note_on_c, 0, 87, 56
3, 127505, Note_on_c, 0, 87, 0
3, 127625, Note_on_c, 0, 75, 0
3, 127735, Control_c, 0, 64, 0
3, 127775, Note_on_c, 0, 26, 40
3, 127795, Note_on_c, 0, 74, 31
3, 127815, Note_on_c, 0, 86, 46
3, 127925, Control_c, 0, 64, 127
3, 128105, Note_on_c, 0, 26, 0
3, 128835, Note_on_c, 0, 86, 0
3, 128885, Note_on_c, 0, 74, 0
3, 129345, Note_on_c, 0, 84, 56
3, 129355, Note_on_c, 0, 72, 45
3, 129975, Note_on_c, 0, 54, 43
3, 129985, Note_on_c, 0, 65, 41
3, 130015, Note_on_c, 0, 60, 43
3, 130035, Note_on_c, 0, 84, 0
3, 130175, Note_on_c, 0, 72, 0
3, 130945, Note_on_c, 0, 65, 0
3, 131035, Note_on_c, 0, 60, 0
3, 131275, Note_on_c, 0, 54, 0
3, 132085, Control_c, 0, 64, 0
3, 132155, Note_on_c, 0, 55, 38
3, 132175, Note_on_c, 0, 82, 48
3, 132175, Note_on_c, 0, 58, 37
3, 132185, Note_on_c, 0, 57, 33
3, 132185, Note_on_c, 0, 70, 40
3, 132215, Note_on_c, 0, 62, 22
3, 132315, Control_c, 0, 64, 127
3, 132425, Note_on_c, 0, 70, 0
3, 132485, Note_on_c, 0, 82, 0
3, 132775, Note_on_c, 0, 84, 60
3, 132785, Note_on_c, 0, 72, 55
3, 132965, Note_on_c, 0, 57, 0
3, 132985, Note_on_c, 0, 72, 0
3, 133065, Note_on_c, 0, 84, 0
3, 133245, Note_on_c, 0, 55, 0
3, 133455, Note_on_c, 0, 54, 66
3, 134085, Note_on_c, 0, 54, 0
3, 134255, Control_c, 0, 64, 0
3, 134255, Note_on_c, 0, 86, 71
3, 134285, Note_on_c, 0, 74, 57
3, 134315, Note_on_c, 0, 53, 45
3, 134485, Control_c, 0, 64, 127
3, 134795, Note_on_c, 0, 58, 0
3, 134835, Note_on_c, 0, 86, 0
3, 134865, Note_on_c, 0, 62, 0
3, 134995, Note_on_c, 0, 74, 0
3, 135925, Note_on_c, 0, 53, 0
3, 136395, Note_on_c, 0, 62, 61
3, 136415, Note_on_c, 0, 58, 56
3, 136475, Note_on_c, 0, 53, 49
3, 138035, Note_on_c, 0, 62, 0
3, 138045, Note_on_c, 0, 58, 0
3, 138635, Note_on_c, 0, 58, 41
3, 138665, Note_on_c, 0, 62, 55
3, 138995, Note_on_c, 0, 62, 0
3, 139185, Note_on_c, 0, 62, 57
3, 139405, Note_on_c, 0, 62, 0
3, 139505, Note_on_c, 0, 58, 0
3, 139555, Note_on_c, 0, 53, 0
3, 139615, Note_on_c, 0, 67, 81
3, 139995, Note_on_c, 0, 67, 0
3, 140095, Note_on_c, 0, 69, 92
3, 140375, Note_on_c, 0, 69, 0
3, 140625, Note_on_c, 0, 70, 79
3, 140625, Note_on_c, 0, 57, 39
3, 140625, Note_on_c, 0, 62, 47
3, 140625, Note_on_c, 0, 58, 43
3, 140635, Control_c, 0, 64, 0
3, 140675, Note_on_c, 0, 52, 46
3, 141205, Note_on_c, 0, 70, 0
3, 141275, Note_on_c, 0, 72, 54
3, 141515, Note_on_c, 0, 70, 55
3, 141545, Note_on_c, 0, 72, 0
3, 141785, Note_on_c, 0, 70, 0
3, 141815, Note_on_c, 0, 69, 49
3, 141925, Control_c, 0, 64, 127
3, 142025, Note_on_c, 0, 62, 0
3, 142045, Note_on_c, 0, 69, 0
3, 142105, Note_on_c, 0, 58, 0
3, 142175, Note_on_c, 0, 70, 76
3, 142245, Note_on_c, 0, 57, 0
3, 142485, Note_on_c, 0, 70, 0
3, 142535, Note_on_c, 0, 72, 69
3, 142595, Control_c, 0, 64, 0
3, 142625, Note_on_c, 0, 57, 18
3, 142655, Note_on_c, 0, 58, 41
3, 142685, Note_on_c, 0, 62, 30
3, 142855, Note_on_c, 0, 72, 0
3, 142955, Control_c, 0, 64, 127
3, 142965, Note_on_c, 0, 70, 60
3, 143355, Note_on_c, 0, 62, 0
3, 143415, Note_on_c, 0, 57, 0
3, 143425, Note_on_c, 0, 58, 0
3, 143505, Note_on_c, 0, 52, 0
3, 144785, Note_on_c, 0, 61, 49
3, 144855, Note_on_c, 0, 55, 38
3, 144865, Note_on_c, 0, 64, 41
3, 144875, Note_on_c, 0, 45, 40
3, 144885, Control_c, 0, 64, 40
3, 144885, Control_c, 0, 64, 0
3, 145285, Control_c, 0, 64, 127
3, 145505, Note_on_c, 0, 70, 0
3, 145525, Note_on_c, 0, 64, 0
3, 145695, Note_on_c, 0, 55, 0
3, 145725, Note_on_c, 0, 61, 0
3, 146935, Note_on_c, 0, 45, 0
3, 146985, Note_on_c, 0, 61, 50
3, 146985, Note_on_c, 0, 58, 46
3, 147465, Note_on_c, 0, 58, 0
3, 147505, Note_on_c, 0, 61, 0
3, 147695, Note_on_c, 0, 61, 63
3, 147705, Note_on_c, 0, 58, 63
3, 147705, Note_on_c, 0, 69, 76
3, 147745, Note_on_c, 0, 57, 66
3, 148125, Note_on_c, 0, 58, 0
3, 148145, Note_on_c, 0, 69, 0
3, 148275, Note_on_c, 0, 61, 0
3, 148305, Note_on_c, 0, 57, 0
3, 148315, Note_on_c, 0, 58, 58
3, 148345, Note_on_c, 0, 67, 62
3, 148345, Note_on_c, 0, 61, 35
3, 148365, Note_on_c, 0, 55, 59
3, 148635, Note_on_c, 0, 61, 0
3, 148635, Note_on_c, 0, 58, 0
3, 148815, Note_on_c, 0, 67, 0
3, 148965, Control_c, 0, 64, 0
3, 149005, Note_on_c, 0, 55, 0
3, 149075, Note_on_c, 0, 60, 50
3, 149085, Note_on_c, 0, 53, 53
3, 149095, Note_on_c, 0, 68, 49
3, 149095, Note_on_c, 0, 63, 49
3, 149115, Note_on_c, 0, 65, 48
3, 149285, Control_c, 0, 64, 127
3, 149615, Note_on_c, 0, 53, 0
3, 149715, Note_on_c, 0, 65, 0
3, 149765, Note_on_c, 0, 41, 55
3, 149795, Note_on_c, 0, 63, 0
3, 149845, Note_on_c, 0, 60, 0
3, 150045, Note_on_c, 0, 68, 0
3, 150365, Note_on_c, 0, 41, 0
3, 150425, Note_on_c, 0, 48, 75
3, 151645, Note_on_c, 0, 48, 0
3, 151855, Note_on_c, 0, 56, 54
3, 152165, Note_on_c, 0, 56, 0
3, 152475, Note_on_c, 0, 60, 55
3, 152655, Note_on_c, 0, 60, 0
3, 153155, Control_c, 0, 64, 0
3, 153195, Note_on_c, 0, 59, 49
3, 153195, Note_on_c, 0, 46, 46
3, 153205, Note_on_c, 0, 64, 48
3, 153215, Note_on_c, 0, 62, 41
3, 153215, Note_on_c, 0, 56, 39
3, 153245, Note_on_c, 0, 53, 36
3, 153555, Control_c, 0, 64, 127
3, 154415, Note_on_c, 0, 59, 0
3, 154535, Note_on_c, 0, 64, 0
3, 154555, Note_on_c, 0, 62, 0
3, 154555, Note_on_c, 0, 56, 0
3, 154625, Note_on_c, 0, 46, 0
3, 155455, Note_on_c, 0, 62, 48
3, 155455, Control_c, 0, 64, 0
3, 155465, Note_on_c, 0, 56, 42
3, 155465, Note_on_c, 0, 65, 48
3, 155465, Note_on_c, 0, 46, 42
3, 155615, Note_on_c, 0, 53, 0
3, 155745, Control_c, 0, 64, 127
3, 155925, Note_on_c, 0, 56, 0
3, 156105, Note_on_c, 0, 46, 0
3, 156295, Note_on_c, 0, 62, 0
3, 156805, Note_on_c, 0, 46, 39
3, 156915, Note_on_c, 0, 46, 0
3, 157155, Note_on_c, 0, 65, 0
3, 157495, Control_c, 0, 64, 0
3, 157585, Note_on_c, 0, 67, 39
3, 157585, Note_on_c, 0, 55, 46
3, 157595, Note_on_c, 0, 62, 42
3, 157635, Note_on_c, 0, 39, 44
3, 157765, Control_c, 0, 64, 127
3, 157775, Note_on_c, 0, 55, 0
3, 157845, Note_on_c, 0, 62, 0
3, 158035, Note_on_c, 0, 67, 0
3, 158245, Note_on_c, 0, 39, 0
3, 158335, Note_on_c, 0, 46, 49
3, 158425, Note_on_c, 0, 46, 0
3, 159775, Note_on_c, 0, 55, 35
3, 159775, Note_on_c, 0, 65, 39
3, 159785, Note_on_c, 0, 60, 43
3, 160605, Note_on_c, 0, 65, 0
3, 160695, Note_on_c, 0, 60, 0
3, 160805, Note_on_c, 0, 55, 0
3, 160985, Note_on_c, 0, 67, 48
3, 161145, Note_on_c, 0, 67, 0
3, 161425, Note_on_c, 0, 74, 47
3, 161635, Note_on_c, 0, 74, 0
3, 161815, Note_on_c, 0, 79, 86
3, 162095, Note_on_c, 0, 79, 0
3, 162165, Note_on_c, 0, 43, 61
3, 162205, Control_c, 0, 64, 0
3, 162345, Note_on_c, 0, 82, 87
3, 162515, Control_c, 0, 64, 127
3, 162745, Note_on_c, 0, 43, 0
3, 162925, Note_on_c, 0, 80, 66
3, 163255, Note_on_c, 0, 80, 0
3, 163255, Note_on_c, 0, 75, 65
3, 163285, Note_on_c, 0, 82, 0
3, 163455, Note_on_c, 0, 75, 0
3, 163525, Note_on_c, 0, 71, 57
3, 163725, Note_on_c, 0, 71, 0
3, 163805, Note_on_c, 0, 70, 43
3, 163915, Note_on_c, 0, 70, 0
3, 164055, Note_on_c, 0, 69, 39
3, 164215, Note_on_c, 0, 69, 0
3, 164245, Control_c, 0, 64, 0
3, 164265, Note_on_c, 0, 68, 57
3, 164385, Note_on_c, 0, 63, 39
3, 164395, Note_on_c, 0, 59, 22
3, 164455, Note_on_c, 0, 53, 42
3, 164625, Note_on_c, 0, 68, 0
3, 164665, Note_on_c, 0, 67, 55
3, 164715, Control_c, 0, 64, 127
3, 165415, Note_on_c, 0, 63, 0
3, 165565, Note_on_c, 0, 67, 0
3, 165595, Note_on_c, 0, 59, 0
3, 165645, Note_on_c, 0, 53, 0
3, 165805, Note_on_c, 0, 65, 60
3, 166325, Note_on_c, 0, 65, 0
3, 166335, Note_on_c, 0, 62, 47
3, 166885, Note_on_c, 0, 62, 0
3, 166885, Note_on_c, 0, 63, 57
3, 166995, Control_c, 0, 64, 0
3, 167475, Note_on_c, 0, 44, 54
3, 167795, Note_on_c, 0, 44, 0
3, 167885, Control_c, 0, 64, 127
3, 167955, Control_c, 0, 64, 0
3, 168215, Note_on_c, 0, 50, 57
3, 168445, Control_c, 0, 64, 127
3, 168865, Note_on_c, 0, 50, 0
3, 168905, Control_c, 0, 64, 0
3, 168925, Note_on_c, 0, 51, 51
3, 168955, Note_on_c, 0, 60, 54
3, 169055, Note_on_c, 0, 55, 20
3, 169215, Control_c, 0, 64, 127
3, 169745, Note_on_c, 0, 53, 66
3, 169795, Note_on_c, 0, 55, 0
3, 170445, Note_on_c, 0, 46, 66
3, 170485, Note_on_c, 0, 53, 0
3, 170535, Note_on_c, 0, 60, 0
3, 170975, Note_on_c, 0, 46, 0
3, 171075, Note_on_c, 0, 51, 0
3, 171105, Note_on_c, 0, 63, 0
3, 171115, Control_c, 0, 64, 0
3, 171145, Note_on_c, 0, 60, 56
3, 171165, Note_on_c, 0, 57, 48
3, 171175, Note_on_c, 0, 45, 49
3, 171435, Control_c, 0, 64, 127
3, 171765, Note_on_c, 0, 60, 0
3, 171875, Note_on_c, 0, 57, 0
3, 172425, Control_c, 0, 64, 0
3, 172465, Note_on_c, 0, 65, 62
3, 172485, Note_on_c, 0, 57, 75
3, 172505, Note_on_c, 0, 54, 60
3, 172505, Note_on_c, 0, 53, 65
3, 172525, Note_on_c, 0, 60, 49
3, 172645, Control_c, 0, 64, 127
3, 172815, Note_on_c, 0, 63, 17
3, 172855, Note_on_c, 0, 57, 0
3, 172905, Note_on_c, 0, 54, 0
3, 172905, Note_on_c, 0, 60, 0
3, 173085, Note_on_c, 0, 65, 0
3, 173345, Note_on_c, 0, 63, 0
3, 173475, Note_on_c, 0, 53, 0
3, 174005, Note_on_c, 0, 67, 78
3, 174025, Note_on_c, 0, 66, 37
3, 174215, Note_on_c, 0, 66, 0
3, 174265, Note_on_c, 0, 67, 0
3, 174615, Note_on_c, 0, 68, 81
3, 174625, Note_on_c, 0, 45, 0
3, 174835, Note_on_c, 0, 68, 0
3, 175305, Control_c, 0, 64, 0
3, 175325, Note_on_c, 0, 46, 50
3, 175335, Note_on_c, 0, 70, 52
3, 175365, Note_on_c, 0, 62, 48
3, 175425, Note_on_c, 0, 65, 36
3, 175615, Control_c, 0, 64, 127
3, 175725, Note_on_c, 0, 70, 0
3, 176015, Note_on_c, 0, 70, 55
3, 176195, Note_on_c, 0, 62, 0
3, 176205, Note_on_c, 0, 65, 0
3, 176715, Note_on_c, 0, 58, 48
3, 176775, Note_on_c, 0, 62, 45
3, 176905, Note_on_c, 0, 58, 0
3, 177325, Note_on_c, 0, 62, 0
3, 177365, Note_on_c, 0, 58, 53
3, 177495, Note_on_c, 0, 53, 1
3, 177775, Note_on_c, 0, 46, 0
3, 178025, Note_on_c, 0, 46, 56
3, 178035, Note_on_c, 0, 70, 0
3, 178695, Note_on_c, 0, 58, 0
3, 178775, Note_on_c, 0, 46, 0
3, 179185, Note_on_c, 0, 53, 0
3, 179265, Control_c, 0, 64, 0
3, 179385, Note_on_c, 0, 68, 45
3, 179395, Note_on_c, 0, 56, 35
3, 179405, Note_on_c, 0, 62, 39
3, 179425, Note_on_c, 0, 47, 35
3, 179445, Note_on_c, 0, 65, 33
3, 179495, Control_c, 0, 64, 127
3, 179585, Note_on_c, 0, 62, 0
3, 179625, Note_on_c, 0, 65, 0
3, 179725, Note_on_c, 0, 68, 0
3, 179995, Note_on_c, 0, 47, 0
3, 180085, Note_on_c, 0, 56, 0
3, 180255, Note_on_c, 0, 77, 56
3, 180505, Note_on_c, 0, 77, 0
3, 181525, Note_on_c, 0, 68, 48
3, 181525, Note_on_c, 0, 83, 56
3, 181545, Note_on_c, 0, 74, 46
3, 181615, Note_on_c, 0, 74, 0
3, 181625, Note_on_c, 0, 83, 0
3, 182165, Note_on_c, 0, 68, 0
3, 182495, Note_on_c, 0, 89, 84
3, 182515, Note_on_c, 0, 80, 67
3, 182555, Note_on_c, 0, 71, 57
3, 182645, Control_c, 0, 64, 0
3, 182785, Control_c, 0, 64, 127
3, 183265, Note_on_c, 0, 89, 0
3, 183335, Note_on_c, 0, 86, 68
3, 183395, Note_on_c, 0, 68, 38
3, 183405, Note_on_c, 0, 71, 0
3, 183465, Note_on_c, 0, 80, 0
3, 183545, Note_on_c, 0, 86, 0
3, 183645, Note_on_c, 0, 68, 0
3, 183785, Note_on_c, 0, 87, 53
3, 183805, Note_on_c, 0, 79, 56
3, 183865, Note_on_c, 0, 87, 0
3, 183885, Note_on_c, 0, 79, 0
3, 184295, Note_on_c, 0, 86, 83
3, 184295, Control_c, 0, 64, 0
3, 184655, Control_c, 0, 64, 127
3, 184775, Note_on_c, 0, 75, 57
3, 184975, Note_on_c, 0, 75, 0
3, 185035, Note_on_c, 0, 86, 0
3, 185345, Note_on_c, 0, 55, 48
3, 185475, Note_on_c, 0, 55, 0
3, 185945, Note_on_c, 0, 63, 42
3, 185975, Note_on_c, 0, 67, 46
3, 185975, Note_on_c, 0, 62, 36
3, 186555, Note_on_c, 0, 62, 0
3, 186575, Note_on_c, 0, 60, 47
3, 186935, Note_on_c, 0, 60, 0
3, 186995, Note_on_c, 0, 63, 0
3, 187235, Note_on_c, 0, 67, 0
3, 187945, Note_on_c, 0, 55, 42
3, 187955, Note_on_c, 0, 63, 48
3, 187965, Note_on_c, 0, 62, 39
3, 187975, Note_on_c, 0, 46, 37
3, 188015, Control_c, 0, 64, 0
3, 188265, Control_c, 0, 64, 127
3, 188715, Note_on_c, 0, 62, 0
3, 188855, Note_on_c, 0, 63, 0
3, 189135, Note_on_c, 0, 46, 0
3, 189295, Note_on_c, 0, 46, 56
3, 190055, Note_on_c, 0, 67, 66
3, 190385, Note_on_c, 0, 67, 0
3, 190675, Note_on_c, 0, 72, 83
3, 190875, Note_on_c, 0, 55, 0
3, 190945, Note_on_c, 0, 72, 0
3, 191105, Note_on_c, 0, 46, 0
3, 191285, Note_on_c, 0, 74, 87
3, 191465, Note_on_c, 0, 74, 0
3, 191945, Control_c, 0, 64, 0
3, 191995, Note_on_c, 0, 45, 53
3, 192015, Note_on_c, 0, 74, 89
3, 192045, Note_on_c, 0, 81, 76
3, 192285, Control_c, 0, 64, 127
3, 192475, Note_on_c, 0, 45, 0
3, 192655, Note_on_c, 0, 74, 0
3, 192715, Note_on_c, 0, 75, 51
3, 192905, Note_on_c, 0, 81, 0
3, 192935, Note_on_c, 0, 74, 52
3, 193025, Note_on_c, 0, 75, 0
3, 193155, Note_on_c, 0, 74, 0
3, 193225, Note_on_c, 0, 72, 48
3, 193365, Note_on_c, 0, 72, 0
3, 193565, Note_on_c, 0, 81, 79
3, 193565, Note_on_c, 0, 74, 85
3, 193935, Note_on_c, 0, 75, 68
3, 194055, Note_on_c, 0, 74, 0
3, 194145, Note_on_c, 0, 81, 0
3, 194165, Control_c, 0, 64, 0
3, 194215, Note_on_c, 0, 75, 0
3, 194255, Note_on_c, 0, 63, 38
3, 194265, Note_on_c, 0, 55, 43
3, 194285, Note_on_c, 0, 74, 58
3, 194305, Note_on_c, 0, 60, 29
3, 194325, Note_on_c, 0, 81, 57
3, 194345, Note_on_c, 0, 57, 39
3, 194495, Control_c, 0, 64, 127
3, 194655, Note_on_c, 0, 63, 0
3, 194665, Note_on_c, 0, 60, 0
3, 194665, Note_on_c, 0, 57, 0
3, 194715, Note_on_c, 0, 55, 0
3, 196345, Control_c, 0, 64, 0
3, 196375, Note_on_c, 0, 26, 51
3, 196575, Control_c, 0, 64, 127
3, 196755, Note_on_c, 0, 26, 0
3, 197145, Note_on_c, 0, 81, 0
3, 197305, Note_on_c, 0, 74, 0
3, 198565, Note_on_c, 0, 54, 43
3, 198585, Note_on_c, 0, 60, 39
3, 199375, Note_on_c, 0, 65, 61
3, 199665, Note_on_c, 0, 60, 0
3, 199785, Note_on_c, 0, 65, 0
3, 199905, Note_on_c, 0, 54, 0
3, 200095, Note_on_c, 0, 70, 63
3, 200315, Note_on_c, 0, 70, 0
3, 200475, Note_on_c, 0, 72, 66
3, 200685, Note_on_c, 0, 72, 0
3, 200965, Note_on_c, 0, 73, 56
3, 200975, Note_on_c, 0, 65, 57
3, 200995, Control_c, 0, 64, 0
3, 201025, Note_on_c, 0, 61, 46
3, 201535, Note_on_c, 0, 55, 40
3, 201845, Note_on_c, 0, 55, 0
3, 202265, Note_on_c, 0, 56, 56
3, 202495, Control_c, 0, 64, 127
3, 202775, Note_on_c, 0, 65, 0
3, 202795, Note_on_c, 0, 61, 0
3, 202945, Note_on_c, 0, 56, 0
3, 202965, Note_on_c, 0, 61, 45
3, 202995, Note_on_c, 0, 65, 45
3, 202995, Note_on_c, 0, 58, 50
3, 203035, Control_c, 0, 64, 0
3, 203275, Control_c, 0, 64, 127
3, 203645, Note_on_c, 0, 58, 0
3, 203725, Note_on_c, 0, 59, 54
3, 203745, Control_c, 0, 64, 0
3, 203835, Note_on_c, 0, 68, 1
3, 203975, Control_c, 0, 64, 127
3, 204185, Note_on_c, 0, 65, 0
3, 204255, Note_on_c, 0, 61, 0
3, 204315, Note_on_c, 0, 59, 0
3, 204415, Note_on_c, 0, 68, 0
3, 204965, Control_c, 0, 64, 0
3, 204975, Note_on_c, 0, 67, 46
3, 204995, Note_on_c, 0, 64, 38
3, 205045, Note_on_c, 0, 60, 43
3, 205245, Control_c, 0, 64, 127
3, 205625, Note_on_c, 0, 60, 0
3, 205745, Note_on_c, 0, 48, 41
3, 205785, Note_on_c, 0, 67, 0
3, 205815, Note_on_c, 0, 64, 0
3, 206465, Note_on_c, 0, 73, 0
3, 207125, Note_on_c, 0, 60, 48
3, 207135, Note_on_c, 0, 58, 39
3, 207155, Note_on_c, 0, 64, 48
3, 207535, Note_on_c, 0, 60, 0
3, 207675, Note_on_c, 0, 58, 0
3, 207965, Note_on_c, 0, 64, 0
3, 208075, Note_on_c, 0, 48, 0
3, 208365, Note_on_c, 0, 72, 66
3, 208475, Note_on_c, 0, 72, 0
3, 209155, Control_c, 0, 64, 0
3, 209225, Note_on_c, 0, 56, 39
3, 209225, Note_on_c, 0, 51, 37
3, 209225, Note_on_c, 0, 65, 46
3, 209235, Note_on_c, 0, 41, 46
3, 209265, Note_on_c, 0, 63, 43
3, 209305, Note_on_c, 0, 60, 39
3, 209535, Control_c, 0, 64, 127
3, 209715, Note_on_c, 0, 41, 0
3, 209715, Note_on_c, 0, 56, 0
3, 209725, Note_on_c, 0, 60, 0
3, 209815, Note_on_c, 0, 65, 0
3, 209885, Note_on_c, 0, 63, 0
3, 209895, Note_on_c, 0, 51, 0
3, 211295, Note_on_c, 0, 72, 55
3, 211305, Note_on_c, 0, 63, 48
3, 211305, Note_on_c, 0, 65, 57
3, 211315, Note_on_c, 0, 68, 51
3, 211355, Note_on_c, 0, 60, 42
3, 211685, Note_on_c, 0, 63, 0
3, 211765, Note_on_c, 0, 60, 0
3, 212175, Note_on_c, 0, 65, 0
3, 212775, Note_on_c, 0, 68, 0
3, 212895, Note_on_c, 0, 72, 0
3, 213365, Control_c, 0, 64, 0
3, 213395, Note_on_c, 0, 66, 54
3, 213435, Note_on_c, 0, 56, 36
3, 213435, Note_on_c, 0, 46, 36
3, 213455, Note_on_c, 0, 62, 37
3, 213635, Control_c, 0, 64, 127
3, 213795, Note_on_c, 0, 62, 0
3, 213945, Note_on_c, 0, 46, 0
3, 214035, Note_on_c, 0, 56, 0
3, 214115, Note_on_c, 0, 68, 58
3, 214235, Note_on_c, 0, 66, 0
3, 214485, Note_on_c, 0, 68, 0
3, 214595, Note_on_c, 0, 70, 65
3, 214865, Note_on_c, 0, 70, 0
3, 215025, Note_on_c, 0, 72, 67
3, 215315, Note_on_c, 0, 72, 0
3, 215565, Note_on_c, 0, 74, 68
3, 215575, Note_on_c, 0, 66, 49
3, 215615, Control_c, 0, 64, 0
3, 215615, Note_on_c, 0, 56, 40
3, 215625, Note_on_c, 0, 62, 39
3, 215785, Note_on_c, 0, 74, 0
3, 215905, Control_c, 0, 64, 127
3, 216105, Note_on_c, 0, 76, 53
3, 216275, Note_on_c, 0, 66, 0
3, 216375, Note_on_c, 0, 76, 0
3, 216435, Note_on_c, 0, 62, 0
3, 216485, Note_on_c, 0, 78, 65
3, 216645, Note_on_c, 0, 56, 0
3, 216665, Note_on_c, 0, 78, 0
3, 216785, Note_on_c, 0, 80, 67
3, 216975, Note_on_c, 0, 80, 0
3, 217105, Note_on_c, 0, 82, 68
3, 217375, Note_on_c, 0, 82, 0
3, 217435, Note_on_c, 0, 84, 75
3, 217855, Control_c, 0, 64, 0
3, 218015, Control_c, 0, 64, 127
3, 218235, Note_on_c, 0, 83, 63
3, 218345, Note_on_c, 0, 84, 0
3, 219015, Note_on_c, 0, 82, 82
3, 219065, Note_on_c, 0, 83, 0
3, 219145, Control_c, 0, 64, 0
3, 219565, Control_c, 0, 64, 127
3, 219655, Note_on_c, 0, 43, 63
3, 219745, Note_on_c, 0, 43, 0
3, 220365, Note_on_c, 0, 78, 58
3, 220375, Note_on_c, 0, 58, 41
3, 220465, Note_on_c, 0, 58, 0
3, 220525, Note_on_c, 0, 82, 0
3, 220945, Note_on_c, 0, 78, 0
3, 220985, Note_on_c, 0, 82, 57
3, 221325, Note_on_c, 0, 82, 0
3, 221425, Note_on_c, 0, 83, 63
3, 221755, Note_on_c, 0, 83, 0
3, 221865, Note_on_c, 0, 72, 56
3, 221885, Note_on_c, 0, 84, 58
3, 221925, Control_c, 0, 64, 0
3, 221945, Note_on_c, 0, 44, 45
3, 222165, Control_c, 0, 64, 127
3, 222405, Note_on_c, 0, 84, 0
3, 222535, Note_on_c, 0, 72, 0
3, 222655, Note_on_c, 0, 52, 31
3, 222955, Note_on_c, 0, 52, 0
3, 223215, Note_on_c, 0, 53, 43
3, 223255, Note_on_c, 0, 44, 0
3, 224005, Note_on_c, 0, 53, 0
3, 224035, Note_on_c, 0, 75, 50
3, 224045, Note_on_c, 0, 65, 46
3, 224075, Note_on_c, 0, 56, 43
3, 225355, Note_on_c, 0, 65, 0
3, 225395, Note_on_c, 0, 60, 41
3, 225465, Note_on_c, 0, 60, 0
3, 225565, Note_on_c, 0, 56, 0
3, 225895, Note_on_c, 0, 75, 0
3, 226135, Control_c, 0, 64, 0
3, 226185, Note_on_c, 0, 67, 44
3, 226215, Note_on_c, 0, 72, 46
3, 226215, Note_on_c, 0, 45, 41
3, 226245, Note_on_c, 0, 55, 38
3, 226365, Control_c, 0, 64, 127
3, 226375, Note_on_c, 0, 67, 0
3, 226565, Note_on_c, 0, 72, 0
3, 226655, Note_on_c, 0, 45, 0
3, 226785, Note_on_c, 0, 55, 0
3, 227625, Note_on_c, 0, 63, 72
3, 227635, Note_on_c, 0, 55, 64
3, 227645, Note_on_c, 0, 57, 66
3, 227645, Note_on_c, 0, 60, 60
3, 227645, Note_on_c, 0, 75, 78
3, 227645, Note_on_c, 0, 87, 73
3, 227645, Note_on_c, 0, 84, 74
3, 228035, Note_on_c, 0, 84, 0
3, 228055, Note_on_c, 0, 55, 0
3, 228075, Note_on_c, 0, 75, 0
3, 228125, Note_on_c, 0, 87, 0
3, 228145, Note_on_c, 0, 57, 0
3, 228145, Note_on_c, 0, 63, 0
3, 228225, Note_on_c, 0, 60, 0
3, 228425, Note_on_c, 0, 63, 81
3, 228435, Note_on_c, 0, 84, 85
3, 228435, Note_on_c, 0, 60, 61
3, 228435, Note_on_c, 0, 89, 98
3, 228445, Note_on_c, 0, 55, 68
3, 228455, Note_on_c, 0, 57, 72
3, 228455, Note_on_c, 0, 77, 85
3, 228855, Note_on_c, 0, 55, 0
3, 228935, Note_on_c, 0, 57, 0
3, 228945, Note_on_c, 0, 63, 0
3, 228955, Note_on_c, 0, 89, 0
3, 228955, Note_on_c, 0, 77, 0
3, 228965, Note_on_c, 0, 84, 0
3, 229035, Note_on_c, 0, 60, 0
3, 229115, Note_on_c, 0, 63, 58
3, 229125, Note_on_c, 0, 89, 75
3, 229135, Note_on_c, 0, 57, 54
3, 229135, Note_on_c, 0, 55, 63
3, 229135, Note_on_c, 0, 60, 31
3, 229135, Note_on_c, 0, 84, 72
3, 229135, Note_on_c, 0, 77, 65
3, 229345, Note_on_c, 0, 89, 0
3, 229425, Note_on_c, 0, 77, 0
3, 229465, Note_on_c, 0, 55, 0
3, 229475, Note_on_c, 0, 84, 0
3, 229485, Note_on_c, 0, 63, 0
3, 229565, Note_on_c, 0, 57, 0
3, 229635, Note_on_c, 0, 60, 0
3, 229795, Note_on_c, 0, 63, 61
3, 229815, Note_on_c, 0, 55, 55
3, 229815, Note_on_c, 0, 87, 67
3, 229845, Note_on_c, 0, 63, 0
3, 229845, Note_on_c, 0, 75, 53
3, 229845, Note_on_c, 0, 82, 66
3, 230005, Note_on_c, 0, 55, 0
3, 230135, Note_on_c, 0, 75, 0
3, 230165, Note_on_c, 0, 82, 0
3, 230195, Note_on_c, 0, 87, 0
3, 230685, Note_on_c, 0, 38, 74
3, 230705, Control_c, 0, 64, 0
3, 230945, Control_c, 0, 64, 127
3, 231075, Note_on_c, 0, 38, 0
3, 232215, Note_on_c, 0, 78, 66
3, 232225, Note_on_c, 0, 86, 72
3, 232245, Note_on_c, 0, 65, 63
3, 232245, Note_on_c, 0, 74, 63
3, 232245, Note_on_c, 0, 81, 56
3, 232255, Note_on_c, 0, 58, 50
3, 232255, Note_on_c, 0, 54, 47
3, 232285, Note_on_c, 0, 60, 48
3, 233165, Note_on_c, 0, 86, 0
3, 233305, Note_on_c, 0, 74, 0
3, 233485, Note_on_c, 0, 81, 0
3, 233605, Note_on_c, 0, 78, 0
3, 233675, Note_on_c, 0, 65, 0
3, 233915, Note_on_c, 0, 60, 0
3, 233955, Note_on_c, 0, 54, 0
3, 234075, Note_on_c, 0, 58, 0
3, 234145, Note_on_c, 0, 84, 61
3, 234655, Note_on_c, 0, 84, 0
3, 234795, Note_on_c, 0, 82, 48
3, 235065, Note_on_c, 0, 82, 0
3, 235175, Note_on_c, 0, 84, 49
3, 235445, Note_on_c, 0, 84, 0
3, 235455, Control_c, 0, 64, 0
3, 235575, Note_on_c, 0, 43, 42
3, 235625, Note_on_c, 0, 86, 49
3, 235625, Note_on_c, 0, 50, 40
3, 235705, Control_c, 0, 64, 127
3, 235865, Note_on_c, 0, 43, 0
3, 235995, Note_on_c, 0, 50, 0
3, 236465, Note_on_c, 0, 86, 0
3, 236725, Note_on_c, 0, 84, 1
3, 237175, Note_on_c, 0, 84, 0
3, 237835, Note_on_c, 0, 85, 58
3, 237845, Note_on_c, 0, 73, 44
3, 237845, Note_on_c, 0, 53, 34
3, 237885, Note_on_c, 0, 55, 41
3, 237895, Note_on_c, 0, 58, 39
3, 237985, Note_on_c, 0, 53, 0
3, 238105, Note_on_c, 0, 58, 0
3, 238215, Note_on_c, 0, 55, 0
3, 239005, Note_on_c, 0, 73, 0
3, 239225, Note_on_c, 0, 43, 40
3, 239405, Note_on_c, 0, 85, 0
3, 239945, Note_on_c, 0, 43, 0
3, 239995, Note_on_c, 0, 36, 48
3, 240025, Control_c, 0, 64, 0
3, 240045, Note_on_c, 0, 52, 35
3, 240265, Control_c, 0, 64, 127
3, 240365, Note_on_c, 0, 84, 40
3, 240435, Note_on_c, 0, 36, 0
3, 240555, Note_on_c, 0, 85, 73
3, 240575, Note_on_c, 0, 84, 0
3, 240675, Note_on_c, 0, 52, 0
3, 240785, Note_on_c, 0, 85, 0
3, 240845, Note_on_c, 0, 83, 61
3, 240935, Note_on_c, 0, 83, 0
3, 241005, Note_on_c, 0, 82, 60
3, 241265, Note_on_c, 0, 79, 66
3, 241275, Note_on_c, 0, 82, 0
3, 241365, Note_on_c, 0, 79, 0
3, 241485, Note_on_c, 0, 76, 54
3, 241555, Note_on_c, 0, 76, 0
3, 241745, Note_on_c, 0, 73, 56
3, 241925, Note_on_c, 0, 73, 0
3, 241925, Note_on_c, 0, 72, 57
3, 242105, Note_on_c, 0, 72, 0
3, 242175, Note_on_c, 0, 71, 55
3, 242265, Note_on_c, 0, 71, 0
3, 242305, Control_c, 0, 64, 0
3, 242355, Note_on_c, 0, 58, 29
3, 242405, Note_on_c, 0, 60, 35
3, 242425, Note_on_c, 0, 52, 39
3, 242425, Note_on_c, 0, 70, 46
3, 242905, Control_c, 0, 64, 127
3, 243705, Note_on_c, 0, 67, 41
3, 243755, Note_on_c, 0, 60, 0
3, 243795, Note_on_c, 0, 52, 0
3, 243915, Note_on_c, 0, 58, 0
3, 244025, Note_on_c, 0, 67, 0
3, 244025, Note_on_c, 0, 70, 0
3, 244125, Note_on_c, 0, 64, 51
3, 244485, Note_on_c, 0, 64, 0
3, 244515, Note_on_c, 0, 61, 50
3, 244965, Control_c, 0, 64, 0
3, 244995, Note_on_c, 0, 61, 0
3, 245015, Note_on_c, 0, 60, 55
3, 245265, Note_on_c, 0, 41, 32
3, 245345, Control_c, 0, 64, 127
3, 245725, Note_on_c, 0, 60, 0
3, 246005, Note_on_c, 0, 41, 0
3, 246135, Note_on_c, 0, 63, 56
3, 246135, Note_on_c, 0, 67, 63
3, 246135, Note_on_c, 0, 56, 69
3, 246155, Note_on_c, 0, 60, 67
3, 246215, Note_on_c, 0, 55, 61
3, 246895, Note_on_c, 0, 60, 0
3, 246925, Note_on_c, 0, 67, 0
3, 247025, Note_on_c, 0, 56, 0
3, 247135, Note_on_c, 0, 55, 0
3, 247145, Control_c, 0, 64, 0
3, 247155, Note_on_c, 0, 48, 48
3, 247165, Note_on_c, 0, 60, 48
3, 247185, Note_on_c, 0, 56, 46
3, 247195, Note_on_c, 0, 63, 0
3, 247285, Control_c, 0, 64, 127
3, 247615, Note_on_c, 0, 56, 0
3, 247765, Note_on_c, 0, 51, 54
3, 247835, Note_on_c, 0, 63, 57
3, 248245, Note_on_c, 0, 48, 0
3, 248265, Note_on_c, 0, 60, 0
3, 248335, Note_on_c, 0, 63, 0
3, 248415, Note_on_c, 0, 51, 0
3, 248455, Note_on_c, 0, 65, 51
3, 248475, Note_on_c, 0, 56, 35
3, 248585, Note_on_c, 0, 56, 0
3, 248775, Note_on_c, 0, 65, 0
3, 249115, Control_c, 0, 64, 0
3, 249205, Note_on_c, 0, 66, 55
3, 249205, Note_on_c, 0, 46, 49
3, 249215, Note_on_c, 0, 58, 56
3, 249235, Note_on_c, 0, 56, 37
3, 249255, Note_on_c, 0, 61, 50
3, 249355, Note_on_c, 0, 61, 0
3, 249365, Control_c, 0, 64, 127
3, 249415, Note_on_c, 0, 58, 0
3, 249515, Note_on_c, 0, 46, 0
3, 249575, Note_on_c, 0, 66, 0
3, 249575, Note_on_c, 0, 56, 0
3, 250685, Note_on_c, 0, 56, 50
3, 250685, Note_on_c, 0, 73, 55
3, 250685, Note_on_c, 0, 66, 55
3, 250685, Note_on_c, 0, 78, 61
3, 250705, Note_on_c, 0, 62, 49
3, 251065, Note_on_c, 0, 73, 0
3, 251105, Note_on_c, 0, 56, 0
3, 251175, Note_on_c, 0, 62, 0
3, 251205, Note_on_c, 0, 66, 0
3, 251235, Note_on_c, 0, 78, 0
3, 251545, Note_on_c, 0, 78, 57
3, 251555, Note_on_c, 0, 56, 50
3, 251575, Note_on_c, 0, 66, 50
3, 251585, Note_on_c, 0, 70, 52
3, 251595, Note_on_c, 0, 62, 48
3, 251605, Note_on_c, 0, 73, 45
3, 251705, Note_on_c, 0, 73, 0
3, 251775, Note_on_c, 0, 66, 0
3, 251835, Note_on_c, 0, 70, 0
3, 251875, Note_on_c, 0, 56, 0
3, 251925, Note_on_c, 0, 62, 0
3, 251955, Note_on_c, 0, 78, 0
3, 252905, Note_on_c, 0, 66, 52
3, 252915, Note_on_c, 0, 83, 56
3, 252925, Note_on_c, 0, 78, 60
3, 252935, Note_on_c, 0, 75, 57
3, 252935, Note_on_c, 0, 56, 44
3, 252975, Note_on_c, 0, 71, 53
3, 253085, Note_on_c, 0, 62, 14
3, 253145, Note_on_c, 0, 66, 0
3, 253195, Note_on_c, 0, 71, 0
3, 253205, Note_on_c, 0, 83, 0
3, 253255, Note_on_c, 0, 62, 0
3, 253285, Note_on_c, 0, 75, 0
3, 253315, Note_on_c, 0, 56, 0
3, 253375, Note_on_c, 0, 78, 0
3, 253675, Control_c, 0, 64, 0
3, 253795, Note_on_c, 0, 82, 57
3, 253805, Note_on_c, 0, 65, 42
3, 253815, Note_on_c, 0, 62, 39
3, 253815, Note_on_c, 0, 70, 42
3, 253845, Note_on_c, 0, 77, 55
3, 253845, Note_on_c, 0, 55, 37
3, 253845, Note_on_c, 0, 60, 48
3, 253955, Control_c, 0, 64, 127
3, 254235, Note_on_c, 0, 82, 0
3, 254245, Note_on_c, 0, 77, 0
3, 254285, Note_on_c, 0, 65, 0
3, 254335, Note_on_c, 0, 62, 0
3, 254345, Note_on_c, 0, 70, 0
3, 254345, Note_on_c, 0, 60, 0
3, 254485, Note_on_c, 0, 55, 0
3, 254775, Note_on_c, 0, 55, 48
3, 254785, Note_on_c, 0, 70, 47
3, 254805, Note_on_c, 0, 60, 43
3, 254805, Note_on_c, 0, 65, 60
3, 254825, Control_c, 0, 64, 0
3, 254945, Control_c, 0, 64, 127
3, 255095, Note_on_c, 0, 60, 0
3, 255095, Note_on_c, 0, 70, 0
3, 255105, Control_c, 0, 64, 0
3, 255135, Note_on_c, 0, 65, 0
3, 255315, Note_on_c, 0, 55, 0
3, 255365, Control_c, 0, 64, 127
3, 255375, Note_on_c, 0, 54, 39
3, 255385, Note_on_c, 0, 69, 42
3, 255435, Note_on_c, 0, 59, 23
3, 255445, Note_on_c, 0, 64, 37
3, 255455, Note_on_c, 0, 65, 32
3, 255605, Note_on_c, 0, 69, 0
3, 255645, Note_on_c, 0, 59, 0
3, 255695, Note_on_c, 0, 65, 0
3, 255725, Note_on_c, 0, 64, 0
3, 255905, Control_c, 0, 64, 0
3, 256055, Note_on_c, 0, 70, 52
3, 256055, Note_on_c, 0, 55, 53
3, 256095, Note_on_c, 0, 65, 42
3, 256135, Note_on_c, 0, 60, 28
3, 256155, Note_on_c, 0, 54, 0
3, 256285, Note_on_c, 0, 60, 0
3, 256325, Control_c, 0, 64, 127
3, 256345, Note_on_c, 0, 65, 0
3, 256345, Note_on_c, 0, 55, 0
3, 256395, Note_on_c, 0, 70, 0
3, 256765, Control_c, 0, 64, 0
3, 256805, Note_on_c, 0, 74, 61
3, 256825, Note_on_c, 0, 60, 56
3, 256835, Note_on_c, 0, 65, 48
3, 256845, Note_on_c, 0, 70, 53
3, 256865, Note_on_c, 0, 67, 53
3, 256935, Control_c, 0, 64, 127
3, 257095, Note_on_c, 0, 67, 0
3, 257095, Note_on_c, 0, 65, 0
3, 257155, Note_on_c, 0, 70, 0
3, 257155, Note_on_c, 0, 74, 0
3, 257205, Note_on_c, 0, 60, 0
3, 257495, Note_on_c, 0, 65, 77
3, 257505, Note_on_c, 0, 77, 85
3, 257505, Note_on_c, 0, 70, 84
3, 257515, Control_c, 0, 64, 0
3, 257515, Note_on_c, 0, 67, 84
3, 257515, Note_on_c, 0, 74, 80
3, 257795, Control_c, 0, 64, 127
3, 258005, Note_on_c, 0, 67, 0
3, 258015, Note_on_c, 0, 77, 0
3, 258025, Note_on_c, 0, 70, 0
3, 258035, Note_on_c, 0, 74, 0
3, 258095, Control_c, 0, 64, 0
3, 258145, Note_on_c, 0, 65, 0
3, 258175, Note_on_c, 0, 75, 84
3, 258185, Note_on_c, 0, 70, 71
3, 258185, Note_on_c, 0, 63, 76
3, 258215, Note_on_c, 0, 67, 72
3, 258335, Control_c, 0, 64, 127
3, 258495, Note_on_c, 0, 70, 0
3, 258515, Note_on_c, 0, 75, 0
3, 258525, Note_on_c, 0, 67, 0
3, 258725, Note_on_c, 0, 63, 0
3, 258815, Control_c, 0, 64, 0
3, 258875, Note_on_c, 0, 74, 78
3, 258885, Note_on_c, 0, 67, 74
3, 258885, Note_on_c, 0, 62, 65
3, 258895, Note_on_c, 0, 63, 54
3, 258915, Note_on_c, 0, 70, 52
3, 259125, Control_c, 0, 64, 127
3, 259355, Note_on_c, 0, 67, 0
3, 259365, Note_on_c, 0, 70, 0
3, 259395, Note_on_c, 0, 63, 0
3, 259455, Note_on_c, 0, 74, 0
3, 259555, Note_on_c, 0, 63, 50
3, 259565, Note_on_c, 0, 58, 55
3, 259565, Note_on_c, 0, 70, 56
3, 259585, Note_on_c, 0, 62, 0
3, 259585, Note_on_c, 0, 67, 38
3, 259595, Control_c, 0, 64, 0
3, 259595, Control_c, 0, 64, 127
3, 259795, Note_on_c, 0, 67, 0
3, 259855, Note_on_c, 0, 63, 0
3, 260105, Note_on_c, 0, 70, 0
3, 260135, Control_c, 0, 64, 0
3, 260225, Note_on_c, 0, 58, 0
3, 260275, Note_on_c, 0, 72, 60
3, 260295, Note_on_c, 0, 67, 57
3, 260305, Note_on_c, 0, 60, 52
3, 260385, Control_c, 0, 64, 127
3, 260495, Note_on_c, 0, 67, 0
3, 260585, Note_on_c, 0, 72, 0
3, 260815, Note_on_c, 0, 60, 0
3, 260985, Note_on_c, 0, 63, 44
3, 261005, Note_on_c, 0, 55, 43
3, 261015, Note_on_c, 0, 67, 45
3, 261025, Note_on_c, 0, 62, 36
3, 261105, Note_on_c, 0, 55, 0
3, 261155, Note_on_c, 0, 62, 0
3, 261205, Note_on_c, 0, 63, 0
3, 261295, Note_on_c, 0, 67, 0
3, 261605, Note_on_c, 0, 51, 48
3, 261615, Note_on_c, 0, 70, 58
3, 261665, Note_on_c, 0, 63, 38
3, 261675, Note_on_c, 0, 62, 39
3, 261735, Note_on_c, 0, 67, 26
3, 261915, Note_on_c, 0, 63, 0
3, 261995, Note_on_c, 0, 62, 0
3, 261995, Note_on_c, 0, 70, 0
3, 262095, Note_on_c, 0, 51, 0
3, 262105, Note_on_c, 0, 67, 0
3, 262245, Control_c, 0, 64, 0
3, 262325, Note_on_c, 0, 68, 57
3, 262345, Note_on_c, 0, 56, 46
3, 262365, Note_on_c, 0, 65, 49
3, 262365, Note_on_c, 0, 60, 39
3, 262365, Note_on_c, 0, 50, 36
3, 262575, Control_c, 0, 64, 127
3, 263025, Note_on_c, 0, 60, 0
3, 263255, Note_on_c, 0, 65, 0
3, 263605, Note_on_c, 0, 68, 0
3, 263605, Note_on_c, 0, 56, 0
3, 264435, Note_on_c, 0, 56, 45
3, 264465, Note_on_c, 0, 60, 31
3, 264665, Note_on_c, 0, 60, 0
3, 264785, Control_c, 0, 64, 0
3, 264845, Note_on_c, 0, 68, 40
3, 264855, Note_on_c, 0, 56, 0
3, 264895, Note_on_c, 0, 50, 0
3, 265055, Note_on_c, 0, 68, 0
3, 265145, Note_on_c, 0, 70, 63
3, 265145, Control_c, 0, 64, 127
3, 265245, Control_c, 0, 64, 0
3, 265395, Note_on_c, 0, 68, 56
3, 265465, Note_on_c, 0, 70, 0
3, 265705, Note_on_c, 0, 68, 0
3, 265735, Note_on_c, 0, 67, 54
3, 265735, Control_c, 0, 64, 127
3, 265895, Note_on_c, 0, 67, 0
3, 265945, Note_on_c, 0, 68, 49
3, 266225, Note_on_c, 0, 68, 0
3, 266255, Note_on_c, 0, 69, 58
3, 266345, Control_c, 0, 64, 0
3, 266465, Note_on_c, 0, 69, 0
3, 266495, Note_on_c, 0, 43, 42
3, 266545, Note_on_c, 0, 70, 63
3, 266605, Note_on_c, 0, 59, 37
3, 266805, Control_c, 0, 64, 127
3, 267045, Note_on_c, 0, 43, 0
3, 267245, Note_on_c, 0, 59, 0
3, 267705, Note_on_c, 0, 68, 68
3, 268265, Note_on_c, 0, 70, 0
3, 268425, Note_on_c, 0, 68, 0
3, 268495, Note_on_c, 0, 63, 43
3, 268545, Note_on_c, 0, 59, 42
3, 268545, Note_on_c, 0, 67, 61
3, 268555, Note_on_c, 0, 53, 41
3, 269115, Note_on_c, 0, 63, 0
3, 269325, Note_on_c, 0, 59, 0
3, 269555, Note_on_c, 0, 53, 0
3, 269845, Note_on_c, 0, 67, 0
3, 269945, Note_on_c, 0, 65, 43
3, 270425, Note_on_c, 0, 65, 0
3, 270625, Note_on_c, 0, 67, 48
3, 270625, Control_c, 0, 64, 0
3, 270635, Note_on_c, 0, 63, 48
3, 270665, Note_on_c, 0, 58, 33
3, 270665, Note_on_c, 0, 48, 38
3, 270705, Note_on_c, 0, 55, 33
3, 270995, Control_c, 0, 64, 127
3, 271005, Note_on_c, 0, 55, 0
3, 271345, Note_on_c, 0, 54, 54
3, 271405, Control_c, 0, 64, 0
3, 271605, Control_c, 0, 64, 127
3, 271935, Note_on_c, 0, 54, 0
3, 272025, Note_on_c, 0, 55, 73
3, 272085, Note_on_c, 0, 58, 0
3, 272285, Note_on_c, 0, 63, 0
3, 272775, Note_on_c, 0, 63, 57
3, 272795, Note_on_c, 0, 58, 50
3, 273035, Note_on_c, 0, 55, 0
3, 273475, Note_on_c, 0, 56, 78
3, 273495, Control_c, 0, 64, 0
3, 273765, Note_on_c, 0, 55, 22
3, 273795, Control_c, 0, 64, 127
3, 273845, Note_on_c, 0, 56, 0
3, 273885, Note_on_c, 0, 55, 0
3, 274135, Note_on_c, 0, 55, 72
3, 274445, Note_on_c, 0, 48, 0
3, 274525, Note_on_c, 0, 58, 0
3, 274595, Note_on_c, 0, 63, 0
3, 274695, Note_on_c, 0, 55, 0
3, 274795, Control_c, 0, 64, 0
3, 274865, Note_on_c, 0, 58, 60
3, 274865, Note_on_c, 0, 63, 58
3, 274885, Note_on_c, 0, 55, 56
3, 274895, Note_on_c, 0, 46, 63
3, 275085, Control_c, 0, 64, 127
3, 275145, Note_on_c, 0, 58, 0
3, 275305, Note_on_c, 0, 67, 0
3, 275355, Note_on_c, 0, 63, 0
3, 275585, Note_on_c, 0, 55, 0
3, 275655, Note_on_c, 0, 67, 78
3, 275935, Note_on_c, 0, 67, 0
3, 276295, Note_on_c, 0, 72, 122
3, 276705, Note_on_c, 0, 72, 0
3, 276945, Control_c, 0, 64, 0
3, 276965, Note_on_c, 0, 55, 60
3, 276975, Note_on_c, 0, 74, 127
3, 277135, Control_c, 0, 64, 127
3, 277505, Note_on_c, 0, 74, 0
3, 277645, Note_on_c, 0, 75, 99
3, 277995, Note_on_c, 0, 75, 0
3, 278335, Note_on_c, 0, 55, 0
3, 278355, Note_on_c, 0, 74, 122
3, 278785, Note_on_c, 0, 46, 0
3, 278885, Note_on_c, 0, 74, 0
3, 279035, Note_on_c, 0, 75, 86
3, 279045, Control_c, 0, 64, 0
3, 279055, Note_on_c, 0, 55, 55
3, 279075, Note_on_c, 0, 45, 56
3, 279135, Note_on_c, 0, 81, 48
3, 279495, Control_c, 0, 64, 127
3, 279545, Note_on_c, 0, 45, 0
3, 279665, Note_on_c, 0, 55, 0
3, 279755, Note_on_c, 0, 74, 73
3, 279835, Note_on_c, 0, 75, 0
3, 280135, Note_on_c, 0, 81, 0
3, 280295, Note_on_c, 0, 74, 0
3, 280425, Note_on_c, 0, 75, 75
3, 280455, Note_on_c, 0, 81, 69
3, 280965, Note_on_c, 0, 81, 0
3, 281035, Note_on_c, 0, 75, 0
3, 281085, Note_on_c, 0, 81, 14
3, 281095, Note_on_c, 0, 74, 57
3, 281095, Note_on_c, 0, 63, 40
3, 281115, Control_c, 0, 64, 0
3, 281115, Note_on_c, 0, 55, 39
3, 281145, Note_on_c, 0, 60, 35
3, 281165, Note_on_c, 0, 57, 42
3, 281345, Control_c, 0, 64, 127
3, 281745, Note_on_c, 0, 60, 0
3, 281755, Note_on_c, 0, 74, 0
3, 281765, Note_on_c, 0, 57, 0
3, 281785, Note_on_c, 0, 63, 0
3, 281795, Note_on_c, 0, 55, 0
3, 281835, Note_on_c, 0, 75, 62
3, 282205, Note_on_c, 0, 81, 0
3, 282475, Note_on_c, 0, 74, 60
3, 282555, Note_on_c, 0, 75, 0
3, 283065, Note_on_c, 0, 74, 0
3, 283065, Note_on_c, 0, 75, 55
3, 283255, Note_on_c, 0, 75, 0
3, 283255, Control_c, 0, 64, 0
3, 283265, Note_on_c, 0, 76, 68
3, 283265, Note_on_c, 0, 54, 31
3, 283295, Note_on_c, 0, 50, 41
3, 283315, Note_on_c, 0, 60, 21
3, 283465, Note_on_c, 0, 76, 0
3, 283535, Note_on_c, 0, 77, 55
3, 283685, Control_c, 0, 64, 127
3, 284245, Note_on_c, 0, 50, 0
3, 284305, Note_on_c, 0, 75, 56
3, 284325, Note_on_c, 0, 54, 0
3, 284385, Note_on_c, 0, 60, 0
3, 284795, Note_on_c, 0, 77, 0
3, 285265, Note_on_c, 0, 65, 45
3, 285275, Note_on_c, 0, 54, 39
3, 285285, Note_on_c, 0, 60, 40
3, 285645, Note_on_c, 0, 75, 0
3, 286015, Note_on_c, 0, 74, 62
3, 286125, Note_on_c, 0, 65, 0
3, 286135, Note_on_c, 0, 60, 0
3, 286335, Note_on_c, 0, 54, 0
3, 286605, Note_on_c, 0, 74, 0
3, 286645, Note_on_c, 0, 72, 55
3, 287215, Note_on_c, 0, 72, 0
3, 287235, Control_c, 0, 64, 0
3, 287285, Note_on_c, 0, 55, 42
3, 287285, Note_on_c, 0, 58, 46
3, 287295, Note_on_c, 0, 70, 58
3, 287325, Note_on_c, 0, 62, 36
3, 287535, Control_c, 0, 64, 127
3, 287985, Note_on_c, 0, 67, 57
3, 288055, Note_on_c, 0, 62, 0
3, 288055, Note_on_c, 0, 70, 0
3, 288205, Note_on_c, 0, 58, 0
3, 288385, Note_on_c, 0, 55, 0
3, 288545, Note_on_c, 0, 67, 0
3, 289415, Control_c, 0, 64, 0
3, 289435, Note_on_c, 0, 70, 56
3, 289465, Note_on_c, 0, 64, 44
3, 289475, Note_on_c, 0, 48, 38
3, 289485, Note_on_c, 0, 58, 36
3, 289515, Note_on_c, 0, 67, 36
3, 289535, Note_on_c, 0, 55, 39
3, 289655, Control_c, 0, 64, 127
3, 290205, Note_on_c, 0, 70, 0
3, 290375, Note_on_c, 0, 48, 0
3, 290435, Note_on_c, 0, 64, 0
3, 290555, Note_on_c, 0, 55, 0
3, 290665, Note_on_c, 0, 58, 0
3, 290775, Note_on_c, 0, 74, 67
3, 290895, Note_on_c, 0, 67, 0
3, 290935, Note_on_c, 0, 74, 0
3, 291605, Note_on_c, 0, 63, 49
3, 291615, Note_on_c, 0, 72, 46
3, 291625, Note_on_c, 0, 68, 53
3, 291625, Control_c, 0, 64, 0
3, 291645, Note_on_c, 0, 60, 46
3, 291995, Control_c, 0, 64, 127
3, 292375, Note_on_c, 0, 58, 55
3, 292385, Note_on_c, 0, 60, 0
3, 292545, Note_on_c, 0, 58, 0
3, 293085, Note_on_c, 0, 63, 0
3, 293375, Note_on_c, 0, 68, 0
3, 293635, Note_on_c, 0, 72, 0
3, 293835, Note_on_c, 0, 67, 48
3, 293865, Note_on_c, 0, 62, 43
3, 293875, Control_c, 0, 64, 0
3, 293895, Note_on_c, 0, 46, 38
3, 293935, Note_on_c, 0, 56, 31
3, 293975, Note_on_c, 0, 53, 39
3, 294135, Control_c, 0, 64, 127
3, 294535, Note_on_c, 0, 67, 0
3, 294585, Note_on_c, 0, 56, 0
3, 294695, Note_on_c, 0, 53, 0
3, 294815, Note_on_c, 0, 46, 0
3, 294895, Note_on_c, 0, 62, 0
3, 295255, Note_on_c, 0, 66, 49
3, 295695, Note_on_c, 0, 66, 0
3, 295975, Control_c, 0, 64, 0
3, 296045, Note_on_c, 0, 67, 43
3, 296075, Note_on_c, 0, 62, 34
3, 296085, Note_on_c, 0, 39, 43
3, 296275, Control_c, 0, 64, 127
3, 296535, Note_on_c, 0, 39, 0
3, 296605, Note_on_c, 0, 46, 48
3, 296715, Note_on_c, 0, 62, 0
3, 296905, Note_on_c, 0, 67, 0
3, 296945, Note_on_c, 0, 46, 0
3, 297125, Note_on_c, 0, 55, 47
3, 297585, Note_on_c, 0, 58, 47
3, 297645, Note_on_c, 0, 55, 0
3, 298195, Note_on_c, 0, 77, 58
3, 298195, Note_on_c, 0, 65, 49
3, 298245, Note_on_c, 0, 70, 42
3, 298275, Note_on_c, 0, 67, 34
3, 299305, Note_on_c, 0, 65, 0
3, 299445, Note_on_c, 0, 58, 0
3, 299485, Note_on_c, 0, 77, 0
3, 299545, Note_on_c, 0, 67, 0
3, 299595, Note_on_c, 0, 70, 0
3, 300255, Control_c, 0, 64, 0
3, 300305, Note_on_c, 0, 68, 54
3, 300305, Note_on_c, 0, 63, 39
3, 300325, Note_on_c, 0, 65, 43
3, 300335, Note_on_c, 0, 53, 39
3, 300355, Note_on_c, 0, 59, 41
3, 300505, Control_c, 0, 64, 127
3, 300635, Note_on_c, 0, 53, 0
3, 300645, Note_on_c, 0, 63, 0
3, 300675, Note_on_c, 0, 59, 0
3, 301225, Note_on_c, 0, 65, 0
3, 301415, Note_on_c, 0, 43, 78
3, 301425, Note_on_c, 0, 68, 0
3, 301625, Note_on_c, 0, 43, 0
3, 302415, Note_on_c, 0, 65, 89
3, 302425, Note_on_c, 0, 77, 86
3, 302445, Note_on_c, 0, 71, 82
3, 302455, Control_c, 0, 64, 0
3, 302455, Note_on_c, 0, 68, 86
3, 302475, Note_on_c, 0, 74, 63
3, 302495, Note_on_c, 0, 64, 47
3, 302585, Note_on_c, 0, 64, 0
3, 302755, Control_c, 0, 64, 127
3, 302975, Note_on_c, 0, 77, 0
3, 302995, Note_on_c, 0, 74, 0
3, 303025, Note_on_c, 0, 65, 0
3, 303025, Note_on_c, 0, 71, 0
3, 303075, Note_on_c, 0, 68, 0
3, 303125, Note_on_c, 0, 63, 64
3, 303335, Note_on_c, 0, 63, 0
3, 303395, Note_on_c, 0, 62, 69
3, 303405, Control_c, 0, 64, 0
3, 303485, Note_on_c, 0, 68, 59
3, 303485, Note_on_c, 0, 71, 56
3, 303505, Note_on_c, 0, 65, 58
3, 303505, Note_on_c, 0, 74, 58
3, 303655, Control_c, 0, 64, 127
3, 303705, Note_on_c, 0, 59, 57
3, 303755, Note_on_c, 0, 62, 0
3, 303845, Note_on_c, 0, 74, 0
3, 303855, Note_on_c, 0, 65, 0
3, 303875, Note_on_c, 0, 71, 0
3, 303935, Note_on_c, 0, 68, 0
3, 304185, Control_c, 0, 64, 0
3, 304235, Control_c, 0, 64, 127
3, 304265, Note_on_c, 0, 62, 56
3, 304275, Note_on_c, 0, 59, 0
3, 304275, Note_on_c, 0, 77, 82
3, 304275, Note_on_c, 0, 68, 75
3, 304365, Note_on_c, 0, 71, 48
3, 304395, Note_on_c, 0, 62, 0
3, 304535, Note_on_c, 0, 68, 0
3, 304545, Note_on_c, 0, 77, 0
3, 304585, Note_on_c, 0, 71, 0
3, 304825, Control_c, 0, 64, 0
3, 304825, Note_on_c, 0, 67, 75
3, 304825, Note_on_c, 0, 75, 82
3, 305375, Control_c, 0, 64, 127
3, 305415, Note_on_c, 0, 44, 58
3, 305885, Note_on_c, 0, 75, 0
3, 305905, Note_on_c, 0, 67, 0
3, 306045, Note_on_c, 0, 50, 62
3, 306445, Note_on_c, 0, 50, 0
3, 306715, Control_c, 0, 64, 0
3, 306755, Note_on_c, 0, 63, 48
3, 306775, Note_on_c, 0, 58, 50
3, 306785, Note_on_c, 0, 55, 40
3, 306795, Note_on_c, 0, 60, 49
3, 306805, Note_on_c, 0, 51, 49
3, 307035, Control_c, 0, 64, 127
3, 307645, Note_on_c, 0, 44, 0
3, 307935, Note_on_c, 0, 55, 0
3, 307995, Note_on_c, 0, 63, 0
3, 308015, Note_on_c, 0, 44, 52
3, 308165, Note_on_c, 0, 60, 0
3, 308355, Note_on_c, 0, 58, 0
3, 308395, Note_on_c, 0, 44, 0
3, 308455, Note_on_c, 0, 51, 0
3, 308665, Control_c, 0, 64, 0
3, 308785, Note_on_c, 0, 63, 45
3, 308795, Note_on_c, 0, 51, 40
3, 308795, Note_on_c, 0, 54, 46
3, 308815, Note_on_c, 0, 45, 41
3, 308825, Note_on_c, 0, 57, 48
3, 308875, Note_on_c, 0, 60, 41
3, 308925, Control_c, 0, 64, 127
3, 309005, Note_on_c, 0, 54, 0
3, 309095, Note_on_c, 0, 57, 0
3, 309155, Note_on_c, 0, 60, 0
3, 309245, Note_on_c, 0, 63, 0
3, 311005, Note_on_c, 0, 65, 63
3, 311385, Note_on_c, 0, 65, 0
3, 311775, Note_on_c, 0, 67, 86
3, 311925, Note_on_c, 0, 51, 0
3, 312035, Note_on_c, 0, 45, 0
3, 312435, Note_on_c, 0, 67, 0
3, 312585, Note_on_c, 0, 68, 68
3, 313005, Note_on_c, 0, 68, 0
3, 313205, Control_c, 0, 64, 0
3, 313225, Note_on_c, 0, 70, 55
3, 313235, Note_on_c, 0, 46, 41
3, 313235, Note_on_c, 0, 65, 52
3, 313235, Note_on_c, 0, 62, 43
3, 313595, Control_c, 0, 64, 127
3, 313925, Note_on_c, 0, 56, 52
3, 314495, Note_on_c, 0, 65, 0
3, 314555, Note_on_c, 0, 62, 0
3, 314995, Note_on_c, 0, 56, 0
3, 315445, Note_on_c, 0, 57, 61
3, 316085, Note_on_c, 0, 57, 0
3, 316465, Note_on_c, 0, 58, 63
3, 316935, Note_on_c, 0, 46, 0
3, 317035, Note_on_c, 0, 58, 0
3, 317325, Note_on_c, 0, 70, 0
3, 317485, Note_on_c, 0, 62, 54
3, 317485, Note_on_c, 0, 59, 59
3, 317495, Note_on_c, 0, 65, 55
3, 317535, Control_c, 0, 64, 0
3, 317845, Control_c, 0, 64, 127
3, 318355, Note_on_c, 0, 59, 0
3, 318455, Note_on_c, 0, 47, 57
3, 318565, Note_on_c, 0, 62, 0
3, 318655, Note_on_c, 0, 65, 0
3, 319455, Note_on_c, 0, 56, 64
3, 320395, Note_on_c, 0, 59, 60
3, 320545, Note_on_c, 0, 47, 0
3, 320765, Note_on_c, 0, 59, 0
3, 320985, Note_on_c, 0, 56, 0
3, 321425, Note_on_c, 0, 58, 49
3, 321445, Note_on_c, 0, 67, 56
3, 321465, Note_on_c, 0, 48, 45
3, 321475, Control_c, 0, 64, 0
3, 321475, Note_on_c, 0, 63, 34
3, 321695, Control_c, 0, 64, 127
3, 321805, Note_on_c, 0, 48, 0
3, 321985, Note_on_c, 0, 58, 0
3, 322085, Note_on_c, 0, 63, 0
3, 322165, Note_on_c, 0, 67, 0
3, 322445, Note_on_c, 0, 62, 56
3, 322455, Note_on_c, 0, 63, 51
3, 322455, Note_on_c, 0, 74, 62
3, 322465, Note_on_c, 0, 67, 49
3, 323135, Note_on_c, 0, 63, 0
3, 323195, Note_on_c, 0, 67, 0
3, 323325, Note_on_c, 0, 74, 0
3, 323485, Note_on_c, 0, 63, 51
3, 323505, Note_on_c, 0, 67, 49
3, 323525, Note_on_c, 0, 62, 0
3, 323535, Note_on_c, 0, 72, 54
3, 323535, Note_on_c, 0, 60, 45
3, 324005, Note_on_c, 0, 60, 0
3, 324095, Note_on_c, 0, 67, 0
3, 324275, Note_on_c, 0, 63, 0
3, 324515, Note_on_c, 0, 60, 53
3, 324615, Note_on_c, 0, 60, 0
3, 325135, Note_on_c, 0, 72, 0
3, 325485, Control_c, 0, 64, 0
3, 325495, Note_on_c, 0, 63, 47
3, 325515, Note_on_c, 0, 67, 50
3, 325535, Note_on_c, 0, 46, 41
3, 325545, Note_on_c, 0, 55, 46
3, 325565, Control_c, 0, 64, 127
3, 325795, Note_on_c, 0, 63, 0
3, 325865, Note_on_c, 0, 67, 0
3, 325885, Note_on_c, 0, 55, 0
3, 326535, Note_on_c, 0, 75, 81
3, 326575, Note_on_c, 0, 67, 63
3, 326585, Note_on_c, 0, 55, 48
3, 326755, Note_on_c, 0, 67, 0
3, 326855, Note_on_c, 0, 75, 0
3, 326995, Note_on_c, 0, 55, 0
3, 327565, Note_on_c, 0, 79, 99
3, 327575, Note_on_c, 0, 55, 43
3, 327575, Note_on_c, 0, 75, 96
3, 327975, Note_on_c, 0, 55, 0
3, 327995, Note_on_c, 0, 79, 0
3, 328035, Note_on_c, 0, 75, 0
3, 328375, Note_on_c, 0, 79, 80
3, 328395, Note_on_c, 0, 75, 85
3, 328455, Note_on_c, 0, 55, 43
3, 328875, Note_on_c, 0, 55, 0
3, 328885, Note_on_c, 0, 75, 0
3, 328885, Note_on_c, 0, 79, 0
3, 329075, Note_on_c, 0, 77, 72
3, 329095, Note_on_c, 0, 74, 68
3, 329195, Note_on_c, 0, 46, 0
3, 329475, Note_on_c, 0, 74, 0
3, 329625, Note_on_c, 0, 77, 0
3, 329675, Control_c, 0, 64, 0
3, 329745, Note_on_c, 0, 72, 55
3, 329765, Note_on_c, 0, 75, 60
3, 329775, Note_on_c, 0, 45, 42
3, 329785, Note_on_c, 0, 55, 38
3, 329945, Control_c, 0, 64, 127
3, 330115, Note_on_c, 0, 45, 0
3, 330255, Note_on_c, 0, 55, 0
3, 330265, Note_on_c, 0, 72, 0
3, 331755, Note_on_c, 0, 60, 11
3, 331775, Note_on_c, 0, 63, 40
3, 331785, Note_on_c, 0, 55, 40
3, 331795, Note_on_c, 0, 72, 56
3, 331805, Note_on_c, 0, 67, 41
3, 331885, Note_on_c, 0, 57, 32
3, 332335, Note_on_c, 0, 60, 0
3, 332355, Note_on_c, 0, 63, 0
3, 332365, Note_on_c, 0, 57, 0
3, 332475, Note_on_c, 0, 55, 0
3, 332555, Note_on_c, 0, 67, 0
3, 332715, Note_on_c, 0, 72, 0
3, 333165, Note_on_c, 0, 75, 0
3, 333875, Control_c, 0, 64, 0
3, 333875, Note_on_c, 0, 50, 47
3, 333905, Note_on_c, 0, 60, 33
3, 334115, Control_c, 0, 64, 127
3, 335225, Note_on_c, 0, 60, 0
3, 335335, Note_on_c, 0, 65, 48
3, 335515, Note_on_c, 0, 65, 0
3, 336105, Control_c, 0, 64, 0
3, 336135, Note_on_c, 0, 65, 53
3, 336135, Note_on_c, 0, 70, 49
3, 336165, Note_on_c, 0, 58, 47
3, 336255, Control_c, 0, 64, 127
3, 336375, Note_on_c, 0, 65, 0
3, 336445, Note_on_c, 0, 58, 0
3, 336785, Note_on_c, 0, 70, 0
3, 336885, Control_c, 0, 64, 0
3, 336925, Note_on_c, 0, 50, 0
3, 336975, Note_on_c, 0, 72, 61
3, 336985, Note_on_c, 0, 66, 57
3, 336985, Note_on_c, 0, 63, 50
3, 336985, Note_on_c, 0, 60, 48
3, 337035, Note_on_c, 0, 69, 48
3, 337085, Control_c, 0, 64, 127
3, 337475, Note_on_c, 0, 72, 0
3, 337515, Note_on_c, 0, 69, 0
3, 337575, Note_on_c, 0, 63, 0
3, 337615, Note_on_c, 0, 54, 48
3, 337645, Note_on_c, 0, 60, 0
3, 337705, Note_on_c, 0, 66, 0
3, 338225, Note_on_c, 0, 54, 0
3, 338255, Control_c, 0, 64, 0
3, 338255, Note_on_c, 0, 73, 54
3, 338285, Note_on_c, 0, 65, 50
3, 338285, Note_on_c, 0, 61, 39
3, 338305, Note_on_c, 0, 55, 48
3, 338605, Control_c, 0, 64, 127
3, 338965, Note_on_c, 0, 43, 50
3, 339125, Note_on_c, 0, 43, 0
3, 339245, Note_on_c, 0, 55, 0
3, 339655, Note_on_c, 0, 60, 70
3, 339845, Note_on_c, 0, 65, 0
3, 339955, Note_on_c, 0, 61, 0
3, 340395, Note_on_c, 0, 61, 41
3, 340435, Note_on_c, 0, 65, 47
3, 341105, Note_on_c, 0, 58, 66
3, 341145, Note_on_c, 0, 60, 0
3, 341255, Note_on_c, 0, 65, 0
3, 341515, Note_on_c, 0, 61, 0
3, 341785, Note_on_c, 0, 61, 41
3, 341835, Note_on_c, 0, 65, 52
3, 341875, Note_on_c, 0, 58, 0
3, 342475, Note_on_c, 0, 56, 66
3, 342525, Control_c, 0, 64, 0
3, 342735, Note_on_c, 0, 65, 0
3, 342765, Control_c, 0, 64, 127
3, 342915, Note_on_c, 0, 61, 0
3, 343255, Note_on_c, 0, 65, 41
3, 343255, Note_on_c, 0, 61, 31
3, 343485, Note_on_c, 0, 73, 0
3, 343665, Note_on_c, 0, 65, 0
3, 343725, Note_on_c, 0, 61, 0
3, 343795, Note_on_c, 0, 56, 0
3, 343915, Note_on_c, 0, 61, 45
3, 343945, Control_c, 0, 64, 0
3, 343975, Note_on_c, 0, 64, 53
3, 343995, Note_on_c, 0, 55, 43
3, 344315, Control_c, 0, 64, 127
3, 344635, Note_on_c, 0, 48, 49
3, 344685, Note_on_c, 0, 55, 0
3, 344815, Note_on_c, 0, 48, 0
3, 344875, Note_on_c, 0, 61, 0
3, 344885, Note_on_c, 0, 64, 0
3, 345445, Note_on_c, 0, 60, 24
3, 346175, Note_on_c, 0, 60, 0
3, 346175, Note_on_c, 0, 63, 43
3, 346375, Note_on_c, 0, 63, 0
3, 347185, Control_c, 0, 64, 0
3, 347185, Note_on_c, 0, 67, 39
3, 347205, Note_on_c, 0, 56, 57
3, 347225, Note_on_c, 0, 51, 30
3, 347225, Note_on_c, 0, 63, 41
3, 347225, Note_on_c, 0, 41, 39
3, 347235, Note_on_c, 0, 60, 40
3, 347495, Control_c, 0, 64, 127
3, 348235, Note_on_c, 0, 60, 0
3, 348525, Note_on_c, 0, 56, 0
3, 348775, Note_on_c, 0, 51, 0
3, 348785, Note_on_c, 0, 67, 0
3, 348805, Note_on_c, 0, 63, 0
3, 349535, Note_on_c, 0, 56, 63
3, 349545, Note_on_c, 0, 51, 46
3, 349555, Note_on_c, 0, 67, 40
3, 349565, Note_on_c, 0, 60, 58
3, 349575, Note_on_c, 0, 63, 48
3, 349935, Note_on_c, 0, 67, 0
3, 350005, Note_on_c, 0, 60, 0
3, 350025, Note_on_c, 0, 56, 0
3, 350145, Note_on_c, 0, 63, 0
3, 350205, Note_on_c, 0, 60, 76
3, 350605, Note_on_c, 0, 41, 0
3, 350655, Note_on_c, 0, 60, 0
3, 350735, Note_on_c, 0, 63, 76
3, 350955, Note_on_c, 0, 51, 0
3, 351175, Note_on_c, 0, 63, 0
3, 351305, Note_on_c, 0, 65, 71
3, 351795, Note_on_c, 0, 65, 0
3, 352165, Note_on_c, 0, 66, 56
3, 352175, Note_on_c, 0, 62, 66
3, 352175, Note_on_c, 0, 56, 50
3, 352195, Note_on_c, 0, 46, 46
3, 352205, Control_c, 0, 64, 0
3, 352605, Control_c, 0, 64, 127
3, 352935, Note_on_c, 0, 62, 0
3, 352995, Note_on_c, 0, 56, 0
3, 353035, Note_on_c, 0, 46, 0
3, 353075, Note_on_c, 0, 66, 0
3, 353625, Note_on_c, 0, 66, 54
3, 353625, Note_on_c, 0, 46, 41
3, 354085, Note_on_c, 0, 46, 0
3, 354435, Note_on_c, 0, 66, 0
3, 355955, Note_on_c, 0, 66, 42
3, 355985, Note_on_c, 0, 56, 42
3, 356015, Note_on_c, 0, 62, 41
3, 356015, Note_on_c, 0, 70, 49
3, 356025, Note_on_c, 0, 78, 56
3, 356035, Note_on_c, 0, 73, 48
3, 357435, Note_on_c, 0, 73, 0
3, 357645, Note_on_c, 0, 66, 0
3, 357725, Note_on_c, 0, 78, 0
3, 357995, Note_on_c, 0, 62, 0
3, 357995, Note_on_c, 0, 74, 55
3, 358335, Note_on_c, 0, 56, 0
3, 359245, Note_on_c, 0, 77, 50
3, 360395, Note_on_c, 0, 74, 0
3, 360455, Note_on_c, 0, 77, 0
3, 361115, Note_on_c, 0, 70, 0
3, 361195, Control_c, 0, 64, 0
3, 361205, Note_on_c, 0, 75, 46
3, 361275, Note_on_c, 0, 39, 37
3, 361465, Control_c, 0, 64, 127
3, 361735, Note_on_c, 0, 39, 0
3, 361955, Note_on_c, 0, 46, 41
3, 361975, Note_on_c, 0, 75, 0
3, 362435, Note_on_c, 0, 46, 0
3, 362605, Note_on_c, 0, 62, 39
3, 362665, Note_on_c, 0, 55, 43
3, 362865, Note_on_c, 0, 62, 0
3, 363265, Note_on_c, 0, 77, 56
3, 363275, Note_on_c, 0, 55, 0
3, 363315, Note_on_c, 0, 58, 43
3, 363785, Note_on_c, 0, 77, 0
3, 364025, Note_on_c, 0, 70, 44
3, 364055, Note_on_c, 0, 67, 34
3, 364095, Note_on_c, 0, 62, 39
3, 364545, Note_on_c, 0, 67, 0
3, 364565, Note_on_c, 0, 62, 0
3, 365785, Note_on_c, 0, 70, 0
3, 365795, Note_on_c, 0, 67, 39
3, 365885, Note_on_c, 0, 62, 35
3, 366015, Note_on_c, 0, 58, 0
3, 366445, Note_on_c, 0, 62, 0
3, 366525, Note_on_c, 0, 58, 33
3, 366535, Note_on_c, 0, 77, 60
3, 366635, Note_on_c, 0, 58, 0
3, 366635, Note_on_c, 0, 67, 0
3, 367205, Note_on_c, 0, 77, 0
3, 367445, Control_c, 0, 64, 0
3, 367465, Note_on_c, 0, 70, 41
3, 367465, Note_on_c, 0, 74, 55
3, 367485, Note_on_c, 0, 32, 52
3, 367485, Note_on_c, 0, 65, 36
3, 367705, Control_c, 0, 64, 127
3, 368205, Note_on_c, 0, 44, 54
3, 368255, Note_on_c, 0, 32, 0
3, 368305, Note_on_c, 0, 44, 0
3, 368525, Note_on_c, 0, 65, 0
3, 368605, Note_on_c, 0, 74, 0
3, 368665, Note_on_c, 0, 70, 0
3, 368955, Note_on_c, 0, 74, 54
3, 368965, Note_on_c, 0, 70, 45
3, 368985, Note_on_c, 0, 54, 45
3, 368995, Note_on_c, 0, 65, 32
3, 369125, Note_on_c, 0, 65, 0
3, 369525, Note_on_c, 0, 74, 0
3, 369655, Note_on_c, 0, 70, 0
3, 369665, Note_on_c, 0, 77, 58
3, 369735, Note_on_c, 0, 60, 43
3, 369765, Note_on_c, 0, 77, 0
3, 370475, Note_on_c, 0, 89, 49
3, 370485, Note_on_c, 0, 65, 45
3, 370505, Note_on_c, 0, 82, 57
3, 370645, Note_on_c, 0, 60, 0
3, 371105, Note_on_c, 0, 89, 0
3, 371295, Note_on_c, 0, 65, 0
3, 371305, Note_on_c, 0, 86, 47
3, 371335, Note_on_c, 0, 60, 43
3, 371385, Note_on_c, 0, 82, 0
3, 371915, Note_on_c, 0, 86, 0
3, 372195, Note_on_c, 0, 65, 42
3, 372205, Note_on_c, 0, 89, 52
3, 372215, Note_on_c, 0, 82, 50
3, 372295, Note_on_c, 0, 60, 0
3, 372805, Note_on_c, 0, 89, 0
3, 372915, Note_on_c, 0, 65, 0
3, 372935, Note_on_c, 0, 82, 0
3, 373175, Note_on_c, 0, 86, 46
3, 373185, Note_on_c, 0, 60, 40
3, 373245, Note_on_c, 0, 77, 32
3, 373275, Note_on_c, 0, 60, 0
3, 373275, Note_on_c, 0, 82, 12
3, 373375, Note_on_c, 0, 54, 0
3, 373475, Note_on_c, 0, 77, 0
3, 373705, Note_on_c, 0, 82, 0
3, 373775, Note_on_c, 0, 86, 0
3, 374485, Control_c, 0, 64, 0
3, 374545, Note_on_c, 0, 89, 50
3, 374585, Note_on_c, 0, 79, 37
3, 374585, Note_on_c, 0, 39, 42
3, 374815, Control_c, 0, 64, 127
3, 374945, Note_on_c, 0, 89, 0
3, 375105, Note_on_c, 0, 39, 0
3, 375115, Note_on_c, 0, 79, 0
3, 375295, Note_on_c, 0, 46, 49
3, 375755, Note_on_c, 0, 46, 0
3, 375955, Note_on_c, 0, 55, 42
3, 376435, Note_on_c, 0, 55, 0
3, 376445, Note_on_c, 0, 60, 49
3, 376445, Note_on_c, 0, 58, 38
3, 376655, Note_on_c, 0, 60, 0
3, 376825, Note_on_c, 0, 62, 51
3, 376975, Note_on_c, 0, 62, 0
3, 377175, Note_on_c, 0, 65, 56
3, 377375, Note_on_c, 0, 65, 0
3, 377535, Note_on_c, 0, 67, 50
3, 377775, Note_on_c, 0, 67, 0
3, 377915, Note_on_c, 0, 69, 40
3, 378045, Note_on_c, 0, 67, 33
3, 378075, Note_on_c, 0, 69, 0
3, 378265, Note_on_c, 0, 72, 51
3, 378505, Note_on_c, 0, 72, 0
3, 378585, Note_on_c, 0, 74, 54
3, 378725, Note_on_c, 0, 74, 0
3, 378875, Note_on_c, 0, 77, 61
3, 379105, Note_on_c, 0, 77, 0
3, 379125, Note_on_c, 0, 79, 62
3, 379355, Note_on_c, 0, 79, 0
3, 379395, Note_on_c, 0, 81, 50
3, 379465, Note_on_c, 0, 81, 0
3, 379595, Note_on_c, 0, 83, 45
3, 379605, Note_on_c, 0, 84, 48
3, 379745, Note_on_c, 0, 83, 0
3, 379775, Note_on_c, 0, 84, 0
3, 379845, Note_on_c, 0, 86, 68
3, 380015, Note_on_c, 0, 86, 0
3, 380125, Note_on_c, 0, 88, 64
3, 380315, Note_on_c, 0, 88, 0
3, 381075, Note_on_c, 0, 89, 57
3, 381195, Note_on_c, 0, 89, 0
3, 381345, Note_on_c, 0, 91, 54
3, 381585, Note_on_c, 0, 91, 0
3, 381675, Note_on_c, 0, 93, 54
3, 381795, Note_on_c, 0, 93, 0
3, 382035, Note_on_c, 0, 96, 39
3, 382325, Note_on_c, 0, 96, 0
3, 382455, Note_on_c, 0, 98, 53
3, 382805, Note_on_c, 0, 98, 0
3, 382915, Note_on_c, 0, 101, 54
3, 383415, Note_on_c, 0, 101, 0
3, 383485, Note_on_c, 0, 103, 42
3, 383915, Note_on_c, 0, 67, 0
3, 384015, Note_on_c, 0, 103, 0
3, 384035, Note_on_c, 0, 105, 57
3, 384155, Note_on_c, 0, 58, 0
3, 384595, Note_on_c, 0, 105, 0
3, 384825, Note_on_c, 0, 105, 57
3, 385495, Note_on_c, 0, 105, 0
3, 385685, Note_on_c, 0, 105, 49
3, 386195, Note_on_c, 0, 105, 0
3, 386595, Note_on_c, 0, 105, 48
3, 386605, Note_on_c, 0, 27, 44
3, 390865, Note_on_c, 0, 27, 0
3, 390925, Note_on_c, 0, 105, 0
3, 392525, Control_c, 0, 64, 0
3, 392525, End_track
0, 0, End_of_file
