0, 0, Header, 0, 1, 384
1, 0, Start_track
1, 0, Title_t, "untitled"
1, 0, System_exclusive, 5, 126, 127, 9, 1, 247
1, 1, System_exclusive, 8, 67, 16, 76, 0, 0, 126, 0, 247
1, 1, System_exclusive, 8, 67, 16, 76, 8, 15, 0, 1, 247
1, 1, System_exclusive, 8, 67, 16, 76, 8, 14, 0, 1, 247
1, 1, System_exclusive, 8, 67, 16, 76, 8, 13, 0, 1, 247
1, 1, System_exclusive, 8, 67, 16, 76, 8, 12, 0, 1, 247
1, 1, System_exclusive, 8, 67, 16, 76, 8, 11, 0, 1, 247
1, 1, System_exclusive, 8, 67, 16, 76, 8, 10, 0, 1, 247
1, 1, System_exclusive, 8, 67, 16, 76, 8, 9, 0, 0, 247
1, 1, System_exclusive, 8, 67, 16, 76, 8, 8, 0, 1, 247
1, 1, System_exclusive, 8, 67, 16, 76, 8, 7, 0, 1, 247
1, 1, System_exclusive, 8, 67, 16, 76, 8, 6, 0, 1, 247
1, 1, System_exclusive, 8, 67, 16, 76, 8, 5, 0, 1, 247
1, 1, System_exclusive, 8, 67, 16, 76, 8, 4, 0, 2, 247
1, 1, System_exclusive, 8, 67, 16, 76, 8, 3, 0, 2, 247
1, 1, System_exclusive, 8, 67, 16, 76, 8, 2, 0, 4, 247
1, 1, System_exclusive, 8, 67, 16, 76, 8, 1, 0, 4, 247
1, 1, System_exclusive, 8, 67, 16, 76, 8, 0, 0, 8, 247
1, 1, System_exclusive, 8, 67, 16, 76, 8, 0, 7, 0, 247
1, 1, System_exclusive, 8, 67, 16, 76, 8, 1, 7, 0, 247
1, 1, System_exclusive, 8, 67, 16, 76, 8, 2, 7, 0, 247
1, 1, System_exclusive, 8, 67, 16, 76, 8, 3, 7, 0, 247
1, 1, System_exclusive, 8, 67, 16, 76, 8, 4, 7, 0, 247
1, 1, System_exclusive, 8, 67, 16, 76, 8, 5, 7, 0, 247
1, 1, System_exclusive, 8, 67, 16, 76, 8, 6, 7, 0, 247
1, 1, System_exclusive, 8, 67, 16, 76, 8, 7, 7, 0, 247
1, 1, System_exclusive, 8, 67, 16, 76, 8, 8, 7, 0, 247
1, 1, System_exclusive, 8, 67, 16, 76, 8, 9, 7, 2, 247
1, 1, System_exclusive, 8, 67, 16, 76, 8, 10, 7, 0, 247
1, 1, System_exclusive, 8, 67, 16, 76, 8, 11, 7, 0, 247
1, 1, System_exclusive, 8, 67, 16, 76, 8, 12, 7, 0, 247
1, 1, System_exclusive, 8, 67, 16, 76, 8, 13, 7, 0, 247
1, 1, System_exclusive, 8, 67, 16, 76, 8, 14, 7, 0, 247
1, 1, System_exclusive, 8, 67, 16, 76, 8, 15, 7, 0, 247
1, 1, System_exclusive, 9, 67, 16, 76, 2, 1, 0, 1, 0, 247
1, 1, System_exclusive, 9, 67, 16, 76, 2, 1, 32, 65, 0, 247
1, 1, System_exclusive, 9, 67, 16, 76, 2, 1, 64, 5, 0, 247
1, 1, System_exclusive, 8, 67, 16, 76, 8, 0, 114, 64, 247
1, 1, System_exclusive, 8, 67, 16, 76, 8, 0, 115, 95, 247
1, 1, System_exclusive, 8, 67, 16, 76, 8, 0, 119, 46, 247
1, 1, Time_signature, 4, 2, 24, 8
1, 1, Key_signature, 0, "major"
1, 1, Tempo, 500000
1, 1, Sequencer_specific, 21, 67, 115, 10, 0, 5, 75, 79, 79, 79, 79, 79, 79, 79, 79, 79, 79, 79, 79, 79, 79, 79
1, 1, Sequencer_specific, 6, 67, 115, 10, 0, 4, 1
1, 1, Sequencer_specific, 9, 67, 123, 0, 88, 70, 48, 50, 0, 0
1, 385, Program_c, 0, 0
1, 386, Control_c, 0, 7, 107
1, 386, Control_c, 0, 10, 64
1, 386, Control_c, 0, 91, 10
1, 386, Control_c, 0, 93, 0
1, 769, Control_c, 0, 11, 127
1, 769, Control_c, 0, 94, 0
1, 769, Control_c, 0, 101, 0
1, 770, Control_c, 0, 100, 1
1, 771, Control_c, 0, 6, 64
1, 772, Control_c, 0, 38, 0
1, 772, Pitch_bend_c, 0, 8192
1, 772, Control_c, 0, 71, 43
1, 772, Control_c, 0, 74, 46
1, 1537, Note_on_c, 0, 46, 58
1, 1681, Note_on_c, 0, 46, 0
1, 1733, Note_on_c, 0, 39, 49
1, 1849, Control_c, 0, 64, 127
1, 2137, Note_on_c, 0, 67, 58
1, 2141, Note_on_c, 0, 55, 51
1, 2141, Note_on_c, 0, 62, 60
1, 2149, Note_on_c, 0, 46, 46
1, 2409, Note_on_c, 0, 39, 0
1, 2417, Note_on_c, 0, 46, 0
1, 2653, Note_on_c, 0, 55, 0
1, 2661, Note_on_c, 0, 62, 0
1, 2685, Note_on_c, 0, 67, 0
1, 2773, Note_on_c, 0, 50, 39
1, 2949, Note_on_c, 0, 50, 0
1, 2953, Control_c, 0, 64, 0
1, 2965, Note_on_c, 0, 56, 55
1, 2973, Note_on_c, 0, 65, 53
1, 2973, Note_on_c, 0, 53, 44
1, 2973, Note_on_c, 0, 59, 57
1, 2989, Note_on_c, 0, 43, 35
1, 3161, Control_c, 0, 64, 127
1, 3369, Note_on_c, 0, 56, 0
1, 3385, Note_on_c, 0, 59, 0
1, 3489, Note_on_c, 0, 53, 0
1, 3493, Note_on_c, 0, 65, 0
1, 3533, Control_c, 0, 64, 0
1, 3565, Note_on_c, 0, 56, 39
1, 3565, Note_on_c, 0, 62, 46
1, 3589, Note_on_c, 0, 50, 36
1, 3589, Note_on_c, 0, 59, 38
1, 3693, Control_c, 0, 64, 127
1, 3729, Note_on_c, 0, 59, 0
1, 3741, Note_on_c, 0, 43, 0
1, 3785, Note_on_c, 0, 56, 0
1, 3797, Note_on_c, 0, 50, 0
1, 3857, Note_on_c, 0, 62, 0
1, 3957, Note_on_c, 0, 55, 52
1, 3961, Control_c, 0, 64, 0
1, 3965, Note_on_c, 0, 63, 44
1, 3981, Note_on_c, 0, 60, 50
1, 4021, Note_on_c, 0, 60, 0
1, 4025, Note_on_c, 0, 55, 0
1, 4117, Note_on_c, 0, 63, 0
1, 4117, Control_c, 0, 64, 127
1, 4125, Note_on_c, 0, 44, 39
1, 4145, Note_on_c, 0, 51, 36
1, 4233, Note_on_c, 0, 51, 0
1, 4233, Note_on_c, 0, 44, 0
1, 4381, Note_on_c, 0, 67, 36
1, 4481, Note_on_c, 0, 67, 0
1, 4553, Note_on_c, 0, 70, 57
1, 4685, Note_on_c, 0, 70, 0
1, 4729, Note_on_c, 0, 63, 36
1, 4749, Note_on_c, 0, 60, 36
1, 4749, Note_on_c, 0, 72, 49
1, 4785, Note_on_c, 0, 63, 0
1, 4801, Note_on_c, 0, 60, 0
1, 4861, Note_on_c, 0, 72, 0
1, 4921, Note_on_c, 0, 74, 54
1, 5045, Note_on_c, 0, 74, 0
1, 5113, Note_on_c, 0, 75, 63
1, 5265, Control_c, 0, 64, 0
1, 5297, Note_on_c, 0, 54, 37
1, 5313, Note_on_c, 0, 45, 38
1, 5381, Control_c, 0, 64, 127
1, 5437, Note_on_c, 0, 45, 0
1, 5497, Note_on_c, 0, 54, 0
1, 5933, Note_on_c, 0, 63, 36
1, 5953, Note_on_c, 0, 54, 39
1, 5965, Note_on_c, 0, 60, 39
1, 5973, Note_on_c, 0, 75, 0
1, 6049, Note_on_c, 0, 63, 0
1, 6053, Note_on_c, 0, 60, 0
1, 6081, Note_on_c, 0, 54, 0
1, 6189, Note_on_c, 0, 77, 64
1, 6321, Note_on_c, 0, 77, 0
1, 6401, Note_on_c, 0, 79, 85
1, 6541, Control_c, 0, 64, 0
1, 6541, Note_on_c, 0, 80, 82
1, 6541, Note_on_c, 0, 60, 57
1, 6549, Note_on_c, 0, 68, 52
1, 6553, Note_on_c, 0, 63, 55
1, 6557, Note_on_c, 0, 79, 0
1, 6701, Note_on_c, 0, 80, 0
1, 6709, Control_c, 0, 64, 127
1, 6729, Note_on_c, 0, 82, 81
1, 6845, Note_on_c, 0, 82, 0
1, 6893, Note_on_c, 0, 68, 0
1, 6897, Note_on_c, 0, 82, 70
1, 6949, Note_on_c, 0, 60, 0
1, 6989, Note_on_c, 0, 63, 0
1, 7001, Note_on_c, 0, 82, 0
1, 7093, Note_on_c, 0, 67, 50
1, 7109, Control_c, 0, 64, 0
1, 7117, Note_on_c, 0, 82, 60
1, 7117, Note_on_c, 0, 56, 41
1, 7121, Note_on_c, 0, 62, 39
1, 7205, Control_c, 0, 64, 127
1, 7213, Note_on_c, 0, 82, 0
1, 7249, Note_on_c, 0, 67, 0
1, 7269, Note_on_c, 0, 62, 0
1, 7297, Note_on_c, 0, 82, 43
1, 7333, Note_on_c, 0, 56, 0
1, 7401, Note_on_c, 0, 82, 0
1, 7533, Note_on_c, 0, 83, 60
1, 7621, Control_c, 0, 64, 0
1, 7693, Note_on_c, 0, 56, 40
1, 7713, Note_on_c, 0, 47, 39
1, 7741, Note_on_c, 0, 83, 0
1, 7753, Control_c, 0, 64, 127
1, 7825, Note_on_c, 0, 47, 0
1, 7885, Note_on_c, 0, 56, 0
1, 8089, Note_on_c, 0, 89, 83
1, 8193, Note_on_c, 0, 89, 0
1, 8273, Note_on_c, 0, 62, 50
1, 8277, Control_c, 0, 64, 0
1, 8285, Note_on_c, 0, 56, 42
1, 8301, Note_on_c, 0, 62, 0
1, 8333, Note_on_c, 0, 56, 0
1, 8465, Note_on_c, 0, 83, 57
1, 8545, Note_on_c, 0, 83, 0
1, 8553, Control_c, 0, 64, 127
1, 8653, Note_on_c, 0, 86, 68
1, 8709, Note_on_c, 0, 86, 0
1, 8789, Control_c, 0, 64, 0
1, 8857, Note_on_c, 0, 89, 81
1, 8873, Note_on_c, 0, 48, 25
1, 8905, Note_on_c, 0, 48, 0
1, 8921, Note_on_c, 0, 89, 0
1, 9053, Note_on_c, 0, 87, 60
1, 9125, Control_c, 0, 64, 127
1, 9129, Note_on_c, 0, 87, 0
1, 9241, Note_on_c, 0, 86, 68
1, 9317, Note_on_c, 0, 86, 0
1, 9349, Note_on_c, 0, 87, 60
1, 9381, Control_c, 0, 64, 0
1, 9413, Note_on_c, 0, 86, 60
1, 9417, Note_on_c, 0, 87, 0
1, 9437, Note_on_c, 0, 63, 36
1, 9445, Note_on_c, 0, 60, 32
1, 9453, Note_on_c, 0, 67, 25
1, 9489, Note_on_c, 0, 86, 0
1, 9509, Note_on_c, 0, 84, 38
1, 9585, Note_on_c, 0, 84, 0
1, 9609, Note_on_c, 0, 83, 43
1, 9685, Note_on_c, 0, 83, 0
1, 9753, Note_on_c, 0, 86, 73
1, 9781, Note_on_c, 0, 67, 0
1, 9821, Note_on_c, 0, 86, 0
1, 9829, Note_on_c, 0, 60, 0
1, 9889, Note_on_c, 0, 63, 0
1, 9889, Note_on_c, 0, 84, 67
1, 9973, Note_on_c, 0, 84, 0
1, 10001, Note_on_c, 0, 67, 32
1, 10005, Note_on_c, 0, 63, 35
1, 10009, Note_on_c, 0, 59, 35
1, 10037, Control_c, 0, 64, 127
1, 10037, Note_on_c, 0, 79, 50
1, 10117, Note_on_c, 0, 79, 0
1, 10213, Note_on_c, 0, 75, 60
1, 10277, Note_on_c, 0, 75, 0
1, 10281, Note_on_c, 0, 67, 0
1, 10317, Note_on_c, 0, 59, 0
1, 10401, Note_on_c, 0, 74, 57
1, 10493, Note_on_c, 0, 63, 0
1, 10525, Note_on_c, 0, 74, 0
1, 10593, Note_on_c, 0, 74, 61
1, 10721, Note_on_c, 0, 74, 0
1, 10777, Note_on_c, 0, 75, 57
1, 10905, Note_on_c, 0, 75, 0
1, 10977, Note_on_c, 0, 77, 68
1, 11117, Note_on_c, 0, 77, 0
1, 11129, Control_c, 0, 64, 0
1, 11165, Note_on_c, 0, 63, 41
1, 11173, Note_on_c, 0, 75, 57
1, 11181, Note_on_c, 0, 55, 39
1, 11185, Note_on_c, 0, 60, 34
1, 11233, Control_c, 0, 64, 127
1, 11257, Note_on_c, 0, 63, 0
1, 11265, Note_on_c, 0, 60, 0
1, 11277, Note_on_c, 0, 55, 0
1, 11337, Note_on_c, 0, 75, 0
1, 11373, Note_on_c, 0, 67, 44
1, 11413, Note_on_c, 0, 67, 0
1, 11573, Note_on_c, 0, 45, 52
1, 11597, Note_on_c, 0, 45, 0
1, 11785, Note_on_c, 0, 63, 59
1, 11789, Note_on_c, 0, 74, 60
1, 11789, Control_c, 0, 64, 0
1, 11797, Note_on_c, 0, 67, 52
1, 11805, Note_on_c, 0, 62, 45
1, 11909, Note_on_c, 0, 74, 0
1, 11925, Note_on_c, 0, 63, 0
1, 11937, Note_on_c, 0, 62, 0
1, 11941, Note_on_c, 0, 67, 0
1, 11965, Note_on_c, 0, 72, 57
1, 12033, Note_on_c, 0, 72, 0
1, 12089, Control_c, 0, 64, 24
1, 12093, Control_c, 0, 64, 127
1, 12173, Note_on_c, 0, 50, 60
1, 12177, Note_on_c, 0, 63, 56
1, 12181, Control_c, 0, 64, 0
1, 12185, Note_on_c, 0, 66, 58
1, 12185, Note_on_c, 0, 60, 46
1, 12345, Control_c, 0, 64, 127
1, 12473, Note_on_c, 0, 60, 0
1, 12585, Note_on_c, 0, 63, 0
1, 12593, Note_on_c, 0, 66, 0
1, 13029, Note_on_c, 0, 63, 51
1, 13029, Note_on_c, 0, 60, 57
1, 13029, Note_on_c, 0, 57, 49
1, 13061, Note_on_c, 0, 57, 0
1, 13065, Note_on_c, 0, 63, 0
1, 13069, Note_on_c, 0, 60, 0
1, 13157, Note_on_c, 0, 50, 0
1, 13229, Note_on_c, 0, 62, 83
1, 13377, Note_on_c, 0, 61, 57
1, 13405, Note_on_c, 0, 62, 0
1, 13457, Note_on_c, 0, 60, 49
1, 13473, Note_on_c, 0, 61, 0
1, 13545, Note_on_c, 0, 60, 0
1, 13545, Note_on_c, 0, 59, 60
1, 13617, Note_on_c, 0, 59, 0
1, 13637, Control_c, 0, 64, 0
1, 13649, Note_on_c, 0, 58, 66
1, 13657, Note_on_c, 0, 53, 41
1, 13665, Note_on_c, 0, 43, 42
1, 13809, Control_c, 0, 64, 127
1, 13833, Control_c, 0, 64, 0
1, 13893, Note_on_c, 0, 58, 0
1, 13921, Note_on_c, 0, 60, 43
1, 13953, Note_on_c, 0, 58, 60
1, 13957, Note_on_c, 0, 53, 0
1, 13965, Note_on_c, 0, 60, 0
1, 14065, Note_on_c, 0, 57, 57
1, 14073, Note_on_c, 0, 58, 0
1, 14153, Note_on_c, 0, 57, 0
1, 14217, Note_on_c, 0, 58, 61
1, 14253, Note_on_c, 0, 53, 47
1, 14289, Note_on_c, 0, 58, 0
1, 14349, Note_on_c, 0, 43, 0
1, 14369, Note_on_c, 0, 62, 54
1, 14413, Note_on_c, 0, 53, 0
1, 14461, Note_on_c, 0, 62, 0
1, 14505, Note_on_c, 0, 66, 75
1, 14521, Control_c, 0, 64, 127
1, 14601, Note_on_c, 0, 66, 0
1, 14633, Note_on_c, 0, 69, 96
1, 14777, Note_on_c, 0, 69, 0
1, 14801, Note_on_c, 0, 66, 81
1, 14833, Control_c, 0, 64, 0
1, 14845, Note_on_c, 0, 62, 39
1, 14857, Note_on_c, 0, 58, 47
1, 14881, Note_on_c, 0, 53, 37
1, 14917, Note_on_c, 0, 66, 0
1, 14945, Note_on_c, 0, 67, 65
1, 15065, Note_on_c, 0, 67, 0
1, 15085, Note_on_c, 0, 69, 72
1, 15153, Note_on_c, 0, 58, 0
1, 15157, Control_c, 0, 64, 127
1, 15169, Note_on_c, 0, 62, 0
1, 15177, Note_on_c, 0, 69, 0
1, 15221, Note_on_c, 0, 70, 74
1, 15305, Note_on_c, 0, 70, 0
1, 15377, Note_on_c, 0, 74, 79
1, 15421, Note_on_c, 0, 62, 46
1, 15429, Note_on_c, 0, 58, 45
1, 15465, Note_on_c, 0, 62, 0
1, 15469, Control_c, 0, 64, 0
1, 15473, Note_on_c, 0, 74, 0
1, 15521, Note_on_c, 0, 78, 83
1, 15529, Note_on_c, 0, 58, 0
1, 15541, Note_on_c, 0, 53, 0
1, 15625, Note_on_c, 0, 78, 0
1, 15645, Control_c, 0, 64, 127
1, 15661, Note_on_c, 0, 81, 85
1, 15753, Note_on_c, 0, 81, 0
1, 15797, Note_on_c, 0, 82, 75
1, 15897, Note_on_c, 0, 82, 0
1, 15957, Note_on_c, 0, 84, 79
1, 16029, Note_on_c, 0, 84, 0
1, 16065, Control_c, 0, 64, 0
1, 16085, Note_on_c, 0, 40, 46
1, 16105, Note_on_c, 0, 55, 40
1, 16121, Note_on_c, 0, 82, 56
1, 16201, Control_c, 0, 64, 127
1, 16205, Note_on_c, 0, 40, 0
1, 16277, Note_on_c, 0, 82, 0
1, 16289, Note_on_c, 0, 55, 0
1, 16293, Note_on_c, 0, 74, 57
1, 16405, Note_on_c, 0, 74, 0
1, 16497, Note_on_c, 0, 74, 54
1, 16625, Note_on_c, 0, 74, 0
1, 16713, Note_on_c, 0, 62, 39
1, 16717, Note_on_c, 0, 74, 49
1, 16717, Note_on_c, 0, 58, 39
1, 16733, Control_c, 0, 64, 0
1, 16745, Note_on_c, 0, 52, 32
1, 16785, Control_c, 0, 64, 127
1, 16885, Note_on_c, 0, 74, 0
1, 16917, Note_on_c, 0, 84, 68
1, 16953, Note_on_c, 0, 52, 0
1, 16977, Note_on_c, 0, 58, 0
1, 17021, Note_on_c, 0, 84, 0
1, 17041, Note_on_c, 0, 62, 0
1, 17105, Note_on_c, 0, 82, 63
1, 17309, Note_on_c, 0, 73, 49
1, 17329, Note_on_c, 0, 66, 41
1, 17333, Note_on_c, 0, 61, 39
1, 17365, Note_on_c, 0, 55, 33
1, 17381, Control_c, 0, 64, 0
1, 17441, Note_on_c, 0, 73, 0
1, 17501, Note_on_c, 0, 82, 0
1, 17517, Note_on_c, 0, 73, 45
1, 17589, Control_c, 0, 64, 127
1, 17673, Note_on_c, 0, 73, 0
1, 17733, Note_on_c, 0, 66, 0
1, 17745, Note_on_c, 0, 72, 46
1, 17761, Note_on_c, 0, 61, 0
1, 17797, Note_on_c, 0, 55, 0
1, 17961, Note_on_c, 0, 65, 45
1, 17965, Note_on_c, 0, 61, 43
1, 17985, Note_on_c, 0, 55, 34
1, 18149, Note_on_c, 0, 65, 0
1, 18225, Note_on_c, 0, 55, 0
1, 18277, Note_on_c, 0, 61, 0
1, 18277, Note_on_c, 0, 72, 0
1, 18361, Note_on_c, 0, 70, 54
1, 18525, Note_on_c, 0, 70, 0
1, 18577, Control_c, 0, 64, 0
1, 18585, Note_on_c, 0, 63, 39
1, 18605, Note_on_c, 0, 68, 42
1, 18613, Note_on_c, 0, 60, 38
1, 18613, Note_on_c, 0, 56, 41
1, 18625, Note_on_c, 0, 53, 28
1, 18729, Note_on_c, 0, 68, 0
1, 18777, Note_on_c, 0, 70, 48
1, 18837, Note_on_c, 0, 63, 0
1, 18849, Note_on_c, 0, 70, 0
1, 18861, Note_on_c, 0, 68, 45
1, 18929, Note_on_c, 0, 68, 0
1, 18933, Note_on_c, 0, 60, 0
1, 18933, Note_on_c, 0, 67, 53
1, 18957, Note_on_c, 0, 56, 0
1, 18981, Note_on_c, 0, 67, 0
1, 19101, Note_on_c, 0, 53, 0
1, 19113, Note_on_c, 0, 70, 47
1, 19141, Note_on_c, 0, 70, 0
1, 19193, Note_on_c, 0, 72, 63
1, 19233, Note_on_c, 0, 72, 0
1, 19285, Note_on_c, 0, 74, 69
1, 19349, Note_on_c, 0, 74, 0
1, 19429, Note_on_c, 0, 75, 68
1, 19457, Note_on_c, 0, 75, 0
1, 19569, Note_on_c, 0, 76, 74
1, 19645, Note_on_c, 0, 76, 0
1, 19713, Note_on_c, 0, 77, 80
1, 19713, Control_c, 0, 64, 127
1, 19805, Note_on_c, 0, 77, 0
1, 19873, Note_on_c, 0, 74, 60
1, 19881, Note_on_c, 0, 67, 38
1, 19885, Note_on_c, 0, 56, 38
1, 19901, Note_on_c, 0, 62, 40
1, 20021, Note_on_c, 0, 67, 0
1, 20061, Note_on_c, 0, 62, 0
1, 20073, Note_on_c, 0, 68, 48
1, 20101, Note_on_c, 0, 56, 0
1, 20181, Note_on_c, 0, 74, 0
1, 20205, Note_on_c, 0, 68, 0
1, 20269, Note_on_c, 0, 46, 49
1, 20493, Note_on_c, 0, 71, 72
1, 20501, Note_on_c, 0, 66, 63
1, 20513, Note_on_c, 0, 62, 49
1, 20517, Control_c, 0, 64, 0
1, 20525, Note_on_c, 0, 66, 0
1, 20525, Note_on_c, 0, 56, 46
1, 20561, Note_on_c, 0, 67, 45
1, 20621, Control_c, 0, 64, 127
1, 20761, Note_on_c, 0, 56, 0
1, 20793, Note_on_c, 0, 62, 0
1, 20861, Note_on_c, 0, 67, 0
1, 20873, Note_on_c, 0, 71, 0
1, 20885, Note_on_c, 0, 56, 43
1, 21033, Note_on_c, 0, 56, 0
1, 21117, Control_c, 0, 64, 0
1, 21129, Note_on_c, 0, 70, 53
1, 21133, Note_on_c, 0, 60, 54
1, 21137, Note_on_c, 0, 55, 49
1, 21137, Note_on_c, 0, 65, 56
1, 21157, Note_on_c, 0, 70, 0
1, 21161, Note_on_c, 0, 65, 0
1, 21165, Note_on_c, 0, 55, 0
1, 21165, Note_on_c, 0, 60, 0
1, 21205, Note_on_c, 0, 46, 0
1, 21365, Control_c, 0, 64, 127
1, 21589, Note_on_c, 0, 61, 56
1, 21589, Note_on_c, 0, 66, 49
1, 21589, Note_on_c, 0, 54, 50
1, 21605, Note_on_c, 0, 38, 69
1, 21689, Note_on_c, 0, 38, 0
1, 21753, Control_c, 0, 64, 0
1, 21757, Note_on_c, 0, 54, 0
1, 21793, Note_on_c, 0, 61, 0
1, 21805, Note_on_c, 0, 66, 0
1, 21829, Note_on_c, 0, 55, 56
1, 21833, Note_on_c, 0, 39, 54
1, 21837, Note_on_c, 0, 67, 63
1, 21841, Note_on_c, 0, 62, 56
1, 21845, Note_on_c, 0, 46, 46
1, 21977, Control_c, 0, 64, 127
1, 22141, Note_on_c, 0, 39, 0
1, 22153, Note_on_c, 0, 62, 0
1, 22153, Note_on_c, 0, 46, 0
1, 22181, Note_on_c, 0, 55, 0
1, 22185, Note_on_c, 0, 67, 0
1, 22497, Note_on_c, 0, 65, 52
1, 22501, Note_on_c, 0, 56, 39
1, 22505, Control_c, 0, 64, 0
1, 22505, Note_on_c, 0, 59, 49
1, 22509, Note_on_c, 0, 53, 46
1, 22513, Note_on_c, 0, 62, 43
1, 22513, Note_on_c, 0, 47, 41
1, 22673, Control_c, 0, 64, 127
1, 22849, Note_on_c, 0, 53, 0
1, 22877, Note_on_c, 0, 56, 0
1, 22961, Note_on_c, 0, 47, 0
1, 22973, Note_on_c, 0, 59, 0
1, 22997, Note_on_c, 0, 65, 0
1, 23025, Note_on_c, 0, 62, 0
1, 23133, Note_on_c, 0, 56, 50
1, 23133, Note_on_c, 0, 43, 48
1, 23137, Control_c, 0, 64, 0
1, 23149, Note_on_c, 0, 59, 49
1, 23149, Note_on_c, 0, 53, 40
1, 23233, Control_c, 0, 64, 127
1, 23321, Note_on_c, 0, 56, 0
1, 23341, Note_on_c, 0, 43, 0
1, 23361, Note_on_c, 0, 59, 0
1, 23369, Note_on_c, 0, 53, 0
1, 23693, Control_c, 0, 64, 0
1, 23749, Note_on_c, 0, 63, 42
1, 23753, Note_on_c, 0, 55, 36
1, 23753, Note_on_c, 0, 44, 43
1, 23765, Note_on_c, 0, 51, 40
1, 23777, Note_on_c, 0, 60, 38
1, 23781, Control_c, 0, 64, 127
1, 23793, Note_on_c, 0, 55, 0
1, 23813, Note_on_c, 0, 60, 0
1, 23833, Note_on_c, 0, 63, 0
1, 23877, Note_on_c, 0, 44, 0
1, 23889, Note_on_c, 0, 51, 0
1, 24053, Note_on_c, 0, 70, 85
1, 24057, Note_on_c, 0, 63, 81
1, 24061, Note_on_c, 0, 60, 84
1, 24061, Note_on_c, 0, 58, 75
1, 24065, Control_c, 0, 64, 0
1, 24073, Note_on_c, 0, 67, 59
1, 24185, Note_on_c, 0, 67, 0
1, 24217, Note_on_c, 0, 60, 0
1, 24225, Note_on_c, 0, 70, 0
1, 24257, Note_on_c, 0, 58, 0
1, 24257, Note_on_c, 0, 56, 66
1, 24257, Note_on_c, 0, 68, 76
1, 24265, Note_on_c, 0, 60, 63
1, 24269, Control_c, 0, 64, 72
1, 24273, Control_c, 0, 64, 127
1, 24393, Note_on_c, 0, 60, 0
1, 24413, Note_on_c, 0, 68, 0
1, 24425, Note_on_c, 0, 63, 0
1, 24429, Control_c, 0, 64, 0
1, 24445, Note_on_c, 0, 56, 0
1, 24481, Note_on_c, 0, 55, 50
1, 24485, Note_on_c, 0, 60, 58
1, 24489, Note_on_c, 0, 67, 61
1, 24493, Note_on_c, 0, 63, 55
1, 24509, Note_on_c, 0, 66, 43
1, 24541, Control_c, 0, 64, 127
1, 24569, Note_on_c, 0, 66, 0
1, 24641, Note_on_c, 0, 60, 0
1, 24645, Note_on_c, 0, 67, 0
1, 24661, Note_on_c, 0, 55, 0
1, 24681, Note_on_c, 0, 63, 0
1, 24689, Note_on_c, 0, 56, 48
1, 24697, Note_on_c, 0, 68, 56
1, 24765, Note_on_c, 0, 56, 0
1, 24793, Note_on_c, 0, 68, 0
1, 24901, Control_c, 0, 64, 0
1, 24905, Note_on_c, 0, 69, 63
1, 24905, Note_on_c, 0, 54, 54
1, 24925, Note_on_c, 0, 66, 57
1, 24925, Note_on_c, 0, 63, 56
1, 24929, Note_on_c, 0, 60, 51
1, 25013, Note_on_c, 0, 60, 0
1, 25013, Note_on_c, 0, 69, 0
1, 25017, Control_c, 0, 64, 127
1, 25037, Note_on_c, 0, 63, 0
1, 25041, Note_on_c, 0, 66, 0
1, 25057, Note_on_c, 0, 54, 0
1, 25381, Note_on_c, 0, 74, 85
1, 25385, Note_on_c, 0, 66, 72
1, 25385, Note_on_c, 0, 62, 70
1, 25385, Note_on_c, 0, 63, 74
1, 25397, Control_c, 0, 64, 0
1, 25425, Note_on_c, 0, 69, 27
1, 25497, Note_on_c, 0, 74, 0
1, 25533, Control_c, 0, 64, 127
1, 25545, Note_on_c, 0, 63, 0
1, 25553, Note_on_c, 0, 66, 0
1, 25553, Note_on_c, 0, 69, 0
1, 25561, Note_on_c, 0, 62, 0
1, 25589, Note_on_c, 0, 61, 61
1, 25753, Note_on_c, 0, 61, 0
1, 25769, Control_c, 0, 64, 0
1, 25805, Note_on_c, 0, 60, 55
1, 25809, Note_on_c, 0, 72, 66
1, 25813, Note_on_c, 0, 63, 64
1, 25817, Note_on_c, 0, 66, 63
1, 25849, Control_c, 0, 64, 127
1, 25909, Note_on_c, 0, 72, 0
1, 25945, Note_on_c, 0, 63, 0
1, 25977, Note_on_c, 0, 60, 0
1, 25977, Note_on_c, 0, 66, 0
1, 26037, Note_on_c, 0, 57, 37
1, 26181, Note_on_c, 0, 57, 0
1, 26237, Note_on_c, 0, 63, 61
1, 26241, Note_on_c, 0, 72, 48
1, 26249, Note_on_c, 0, 66, 54
1, 26373, Note_on_c, 0, 72, 0
1, 26389, Note_on_c, 0, 63, 0
1, 26445, Note_on_c, 0, 66, 0
1, 26461, Control_c, 0, 64, 0
1, 26481, Note_on_c, 0, 70, 58
1, 26501, Note_on_c, 0, 46, 41
1, 26509, Note_on_c, 0, 62, 35
1, 26509, Note_on_c, 0, 56, 34
1, 26525, Note_on_c, 0, 65, 35
1, 26565, Control_c, 0, 64, 127
1, 26593, Note_on_c, 0, 62, 0
1, 26609, Note_on_c, 0, 65, 0
1, 26609, Note_on_c, 0, 46, 0
1, 26649, Note_on_c, 0, 56, 0
1, 26697, Note_on_c, 0, 70, 0
1, 27173, Note_on_c, 0, 56, 35
1, 27189, Note_on_c, 0, 62, 35
1, 27225, Note_on_c, 0, 62, 0
1, 27281, Note_on_c, 0, 56, 0
1, 27469, Note_on_c, 0, 55, 55
1, 27533, Note_on_c, 0, 55, 0
1, 27557, Note_on_c, 0, 56, 56
1, 27637, Note_on_c, 0, 58, 57
1, 27645, Note_on_c, 0, 56, 0
1, 27665, Note_on_c, 0, 58, 0
1, 27701, Note_on_c, 0, 59, 74
1, 27781, Note_on_c, 0, 59, 0
1, 27781, Control_c, 0, 64, 0
1, 27793, Note_on_c, 0, 60, 51
1, 27845, Note_on_c, 0, 56, 22
1, 27853, Note_on_c, 0, 60, 0
1, 27853, Note_on_c, 0, 61, 54
1, 27853, Note_on_c, 0, 47, 32
1, 27889, Note_on_c, 0, 61, 0
1, 28025, Note_on_c, 0, 62, 33
1, 28049, Note_on_c, 0, 63, 3
1, 28089, Note_on_c, 0, 62, 0
1, 28109, Note_on_c, 0, 63, 0
1, 28141, Note_on_c, 0, 56, 0
1, 28161, Note_on_c, 0, 64, 13
1, 28189, Note_on_c, 0, 65, 11
1, 28209, Note_on_c, 0, 64, 0
1, 28393, Control_c, 0, 64, 127
1, 28497, Control_c, 0, 64, 0
1, 28509, Note_on_c, 0, 56, 55
1, 28609, Note_on_c, 0, 65, 0
1, 28769, Note_on_c, 0, 64, 55
1, 28825, Note_on_c, 0, 63, 69
1, 28849, Note_on_c, 0, 64, 0
1, 28901, Note_on_c, 0, 62, 71
1, 28937, Note_on_c, 0, 47, 0
1, 28961, Note_on_c, 0, 63, 0
1, 29005, Note_on_c, 0, 62, 0
1, 29021, Note_on_c, 0, 56, 0
1, 29045, Note_on_c, 0, 65, 82
1, 29165, Note_on_c, 0, 62, 66
1, 29177, Note_on_c, 0, 65, 0
1, 29181, Note_on_c, 0, 58, 42
1, 29197, Note_on_c, 0, 55, 48
1, 29209, Note_on_c, 0, 48, 39
1, 29301, Note_on_c, 0, 62, 0
1, 29305, Note_on_c, 0, 58, 0
1, 29333, Note_on_c, 0, 55, 0
1, 29333, Note_on_c, 0, 63, 57
1, 29465, Note_on_c, 0, 55, 60
1, 29561, Note_on_c, 0, 63, 0
1, 29565, Control_c, 0, 64, 127
1, 29573, Note_on_c, 0, 55, 0
1, 29629, Note_on_c, 0, 60, 62
1, 29733, Note_on_c, 0, 60, 0
1, 29785, Note_on_c, 0, 62, 79
1, 29833, Control_c, 0, 64, 0
1, 29873, Note_on_c, 0, 62, 0
1, 29897, Note_on_c, 0, 55, 49
1, 29929, Note_on_c, 0, 63, 55
1, 29953, Note_on_c, 0, 63, 0
1, 30021, Control_c, 0, 64, 127
1, 30069, Note_on_c, 0, 67, 56
1, 30141, Note_on_c, 0, 67, 0
1, 30181, Note_on_c, 0, 48, 0
1, 30213, Note_on_c, 0, 70, 89
1, 30289, Note_on_c, 0, 70, 0
1, 30305, Note_on_c, 0, 55, 0
1, 30369, Note_on_c, 0, 74, 122
1, 30469, Note_on_c, 0, 74, 0
1, 30477, Control_c, 0, 64, 0
1, 30541, Note_on_c, 0, 77, 127
1, 30545, Note_on_c, 0, 46, 61
1, 30557, Note_on_c, 0, 55, 54
1, 30629, Control_c, 0, 64, 127
1, 30689, Note_on_c, 0, 77, 0
1, 30741, Note_on_c, 0, 46, 0
1, 30765, Note_on_c, 0, 77, 90
1, 30769, Note_on_c, 0, 55, 0
1, 30877, Note_on_c, 0, 77, 0
1, 30965, Note_on_c, 0, 67, 62
1, 31109, Note_on_c, 0, 67, 0
1, 31177, Note_on_c, 0, 63, 51
1, 31189, Note_on_c, 0, 72, 45
1, 31209, Note_on_c, 0, 60, 42
1, 31229, Control_c, 0, 64, 0
1, 31257, Note_on_c, 0, 60, 0
1, 31265, Note_on_c, 0, 63, 0
1, 31269, Control_c, 0, 64, 127
1, 31353, Note_on_c, 0, 72, 0
1, 31385, Note_on_c, 0, 74, 58
1, 31529, Note_on_c, 0, 74, 0
1, 31609, Note_on_c, 0, 75, 61
1, 31785, Note_on_c, 0, 75, 0
1, 31801, Control_c, 0, 64, 0
1, 31833, Note_on_c, 0, 45, 47
1, 31837, Note_on_c, 0, 55, 39
1, 31837, Note_on_c, 0, 74, 56
1, 31949, Control_c, 0, 64, 127
1, 31985, Note_on_c, 0, 45, 0
1, 31989, Note_on_c, 0, 74, 0
1, 32017, Note_on_c, 0, 75, 57
1, 32033, Note_on_c, 0, 55, 0
1, 32105, Note_on_c, 0, 74, 57
1, 32109, Note_on_c, 0, 75, 0
1, 32165, Control_c, 0, 64, 0
1, 32169, Note_on_c, 0, 74, 0
1, 32209, Note_on_c, 0, 72, 37
1, 32233, Control_c, 0, 64, 127
1, 32261, Note_on_c, 0, 72, 0
1, 32305, Note_on_c, 0, 74, 60
1, 32385, Note_on_c, 0, 74, 0
1, 32401, Note_on_c, 0, 75, 64
1, 32429, Note_on_c, 0, 75, 0
1, 32489, Control_c, 0, 64, 0
1, 32505, Note_on_c, 0, 63, 47
1, 32513, Note_on_c, 0, 79, 62
1, 32537, Note_on_c, 0, 55, 33
1, 32557, Note_on_c, 0, 60, 18
1, 32565, Note_on_c, 0, 79, 0
1, 32573, Note_on_c, 0, 57, 23
1, 32661, Note_on_c, 0, 84, 49
1, 32709, Note_on_c, 0, 84, 0
1, 32725, Note_on_c, 0, 63, 0
1, 32733, Note_on_c, 0, 60, 0
1, 32733, Note_on_c, 0, 55, 0
1, 32737, Note_on_c, 0, 57, 0
1, 32785, Note_on_c, 0, 86, 79
1, 32837, Note_on_c, 0, 86, 0
1, 32917, Note_on_c, 0, 87, 80
1, 32929, Control_c, 0, 64, 127
1, 32989, Note_on_c, 0, 87, 0
1, 33045, Note_on_c, 0, 89, 89
1, 33109, Control_c, 0, 64, 0
1, 33125, Note_on_c, 0, 89, 0
1, 33181, Note_on_c, 0, 54, 38
1, 33185, Note_on_c, 0, 60, 32
1, 33189, Note_on_c, 0, 87, 77
1, 33201, Note_on_c, 0, 50, 37
1, 33265, Note_on_c, 0, 87, 0
1, 33361, Note_on_c, 0, 86, 66
1, 33433, Note_on_c, 0, 86, 0
1, 33465, Note_on_c, 0, 87, 63
1, 33509, Note_on_c, 0, 50, 0
1, 33517, Note_on_c, 0, 54, 0
1, 33541, Note_on_c, 0, 86, 50
1, 33549, Note_on_c, 0, 60, 0
1, 33561, Control_c, 0, 64, 127
1, 33577, Note_on_c, 0, 87, 0
1, 33629, Note_on_c, 0, 86, 0
1, 33637, Note_on_c, 0, 84, 58
1, 33705, Note_on_c, 0, 84, 0
1, 33745, Note_on_c, 0, 82, 61
1, 33813, Control_c, 0, 64, 0
1, 33853, Note_on_c, 0, 82, 0
1, 33869, Note_on_c, 0, 54, 41
1, 33873, Note_on_c, 0, 62, 38
1, 33877, Note_on_c, 0, 81, 59
1, 33877, Note_on_c, 0, 60, 27
1, 33985, Note_on_c, 0, 81, 0
1, 34025, Note_on_c, 0, 84, 69
1, 34065, Control_c, 0, 64, 127
1, 34153, Note_on_c, 0, 60, 0
1, 34165, Note_on_c, 0, 84, 0
1, 34165, Note_on_c, 0, 81, 63
1, 34205, Note_on_c, 0, 62, 0
1, 34269, Note_on_c, 0, 81, 0
1, 34317, Note_on_c, 0, 54, 0
1, 34325, Note_on_c, 0, 82, 56
1, 34445, Note_on_c, 0, 82, 0
1, 34465, Note_on_c, 0, 84, 70
1, 34509, Control_c, 0, 64, 0
1, 34585, Note_on_c, 0, 61, 24
1, 34585, Note_on_c, 0, 58, 39
1, 34589, Note_on_c, 0, 84, 0
1, 34601, Note_on_c, 0, 55, 30
1, 34609, Note_on_c, 0, 53, 31
1, 34625, Note_on_c, 0, 73, 60
1, 34629, Note_on_c, 0, 85, 60
1, 34649, Control_c, 0, 64, 127
1, 34697, Note_on_c, 0, 61, 0
1, 34713, Note_on_c, 0, 58, 0
1, 34713, Note_on_c, 0, 55, 0
1, 34729, Note_on_c, 0, 53, 0
1, 34837, Note_on_c, 0, 85, 0
1, 34873, Note_on_c, 0, 73, 0
1, 35017, Note_on_c, 0, 43, 51
1, 35041, Note_on_c, 0, 43, 0
1, 35293, Note_on_c, 0, 55, 46
1, 35293, Note_on_c, 0, 70, 60
1, 35305, Note_on_c, 0, 61, 53
1, 35321, Note_on_c, 0, 65, 48
1, 35401, Note_on_c, 0, 55, 0
1, 35413, Note_on_c, 0, 70, 0
1, 35441, Note_on_c, 0, 61, 0
1, 35497, Note_on_c, 0, 72, 72
1, 35525, Note_on_c, 0, 61, 36
1, 35609, Note_on_c, 0, 61, 0
1, 35625, Note_on_c, 0, 72, 0
1, 35677, Note_on_c, 0, 65, 0
1, 35717, Note_on_c, 0, 70, 65
1, 35785, Note_on_c, 0, 70, 0
1, 35973, Control_c, 0, 64, 0
1, 36001, Note_on_c, 0, 72, 49
1, 36001, Note_on_c, 0, 58, 57
1, 36021, Note_on_c, 0, 48, 39
1, 36073, Note_on_c, 0, 72, 0
1, 36097, Note_on_c, 0, 73, 49
1, 36165, Note_on_c, 0, 72, 54
1, 36193, Note_on_c, 0, 73, 0
1, 36265, Note_on_c, 0, 72, 0
1, 36273, Note_on_c, 0, 71, 57
1, 36341, Note_on_c, 0, 71, 0
1, 36453, Note_on_c, 0, 70, 68
1, 36493, Note_on_c, 0, 58, 0
1, 36545, Note_on_c, 0, 70, 0
1, 36625, Note_on_c, 0, 67, 65
1, 36629, Note_on_c, 0, 58, 53
1, 36713, Note_on_c, 0, 58, 0
1, 36733, Note_on_c, 0, 67, 0
1, 36769, Note_on_c, 0, 48, 0
1, 36773, Control_c, 0, 64, 127
1, 36789, Note_on_c, 0, 64, 48
1, 36865, Note_on_c, 0, 64, 0
1, 36901, Control_c, 0, 64, 0
1, 36929, Note_on_c, 0, 61, 55
1, 37033, Note_on_c, 0, 61, 0
1, 37037, Note_on_c, 0, 60, 56
1, 37121, Note_on_c, 0, 60, 0
1, 37125, Control_c, 0, 64, 127
1, 37149, Note_on_c, 0, 59, 52
1, 37181, Note_on_c, 0, 59, 0
1, 37225, Note_on_c, 0, 58, 45
1, 37257, Note_on_c, 0, 58, 0
1, 37277, Control_c, 0, 64, 0
1, 37309, Note_on_c, 0, 57, 55
1, 37373, Note_on_c, 0, 57, 0
1, 37397, Note_on_c, 0, 56, 66
1, 37413, Note_on_c, 0, 51, 38
1, 37429, Note_on_c, 0, 41, 43
1, 37549, Control_c, 0, 64, 127
1, 37681, Note_on_c, 0, 51, 0
1, 38081, Note_on_c, 0, 53, 43
1, 38081, Note_on_c, 0, 51, 38
1, 38165, Note_on_c, 0, 56, 0
1, 38169, Note_on_c, 0, 41, 0
1, 38169, Note_on_c, 0, 53, 0
1, 38205, Note_on_c, 0, 51, 0
1, 38513, Note_on_c, 0, 41, 41
1, 38533, Note_on_c, 0, 74, 57
1, 38545, Note_on_c, 0, 41, 0
1, 38645, Note_on_c, 0, 74, 0
1, 38721, Control_c, 0, 64, 0
1, 38773, Note_on_c, 0, 62, 41
1, 38777, Note_on_c, 0, 46, 37
1, 38781, Note_on_c, 0, 56, 32
1, 38797, Note_on_c, 0, 66, 31
1, 38841, Note_on_c, 0, 66, 0
1, 38905, Control_c, 0, 64, 127
1, 39005, Note_on_c, 0, 62, 0
1, 39017, Note_on_c, 0, 66, 65
1, 39077, Note_on_c, 0, 56, 0
1, 39121, Note_on_c, 0, 66, 0
1, 39209, Note_on_c, 0, 72, 77
1, 39381, Note_on_c, 0, 72, 0
1, 39437, Note_on_c, 0, 64, 54
1, 39441, Note_on_c, 0, 56, 49
1, 39441, Note_on_c, 0, 68, 55
1, 39449, Control_c, 0, 64, 0
1, 39553, Control_c, 0, 64, 127
1, 39589, Note_on_c, 0, 64, 0
1, 39625, Note_on_c, 0, 68, 0
1, 39797, Note_on_c, 0, 56, 0
1, 39893, Note_on_c, 0, 70, 63
1, 39893, Note_on_c, 0, 74, 65
1, 39901, Note_on_c, 0, 46, 0
1, 40001, Note_on_c, 0, 74, 0
1, 40093, Note_on_c, 0, 70, 0
1, 40165, Note_on_c, 0, 43, 60
1, 40169, Control_c, 0, 64, 0
1, 40269, Control_c, 0, 64, 127
1, 40349, Note_on_c, 0, 43, 0
1, 40633, Note_on_c, 0, 67, 49
1, 40685, Note_on_c, 0, 67, 0
1, 40857, Note_on_c, 0, 63, 59
1, 40865, Note_on_c, 0, 59, 50
1, 40873, Note_on_c, 0, 53, 49
1, 41077, Note_on_c, 0, 71, 80
1, 41081, Note_on_c, 0, 63, 0
1, 41117, Note_on_c, 0, 59, 0
1, 41141, Note_on_c, 0, 53, 0
1, 41181, Note_on_c, 0, 71, 0
1, 41297, Note_on_c, 0, 75, 85
1, 41373, Note_on_c, 0, 75, 0
1, 41453, Note_on_c, 0, 68, 29
1, 41489, Note_on_c, 0, 68, 0
1, 41529, Note_on_c, 0, 75, 61
1, 41565, Note_on_c, 0, 63, 85
1, 41565, Note_on_c, 0, 67, 77
1, 41593, Note_on_c, 0, 70, 39
1, 41593, Control_c, 0, 64, 0
1, 41601, Note_on_c, 0, 75, 0
1, 41605, Note_on_c, 0, 74, 79
1, 41633, Note_on_c, 0, 70, 0
1, 41785, Note_on_c, 0, 61, 83
1, 42005, Note_on_c, 0, 60, 84
1, 42021, Note_on_c, 0, 61, 0
1, 42033, Control_c, 0, 64, 127
1, 42117, Control_c, 0, 64, 0
1, 42161, Note_on_c, 0, 63, 0
1, 42173, Note_on_c, 0, 74, 0
1, 42181, Note_on_c, 0, 67, 0
1, 42241, Note_on_c, 0, 63, 50
1, 42249, Note_on_c, 0, 72, 60
1, 42265, Note_on_c, 0, 67, 46
1, 42293, Control_c, 0, 64, 127
1, 42329, Note_on_c, 0, 67, 0
1, 42353, Note_on_c, 0, 72, 0
1, 42381, Note_on_c, 0, 60, 0
1, 42433, Note_on_c, 0, 63, 0
1, 42681, Note_on_c, 0, 46, 56
1, 42813, Note_on_c, 0, 46, 0
1, 42905, Control_c, 0, 64, 88
1, 42909, Control_c, 0, 64, 0
1, 42949, Note_on_c, 0, 63, 48
1, 42965, Note_on_c, 0, 55, 36
1, 42969, Note_on_c, 0, 45, 42
1, 42973, Note_on_c, 0, 60, 34
1, 43029, Control_c, 0, 64, 127
1, 43097, Note_on_c, 0, 60, 0
1, 43137, Note_on_c, 0, 45, 0
1, 43153, Note_on_c, 0, 63, 0
1, 43169, Note_on_c, 0, 55, 0
1, 43965, Control_c, 0, 64, 0
1, 44025, Note_on_c, 0, 77, 83
1, 44025, Note_on_c, 0, 72, 79
1, 44033, Note_on_c, 0, 69, 73
1, 44037, Note_on_c, 0, 60, 56
1, 44041, Note_on_c, 0, 61, 50
1, 44041, Note_on_c, 0, 65, 58
1, 44053, Note_on_c, 0, 55, 51
1, 44065, Note_on_c, 0, 58, 39
1, 44081, Control_c, 0, 64, 127
1, 44157, Note_on_c, 0, 77, 0
1, 44189, Note_on_c, 0, 65, 0
1, 44193, Note_on_c, 0, 72, 0
1, 44197, Note_on_c, 0, 69, 0
1, 44233, Note_on_c, 0, 61, 0
1, 44241, Note_on_c, 0, 55, 0
1, 44245, Note_on_c, 0, 60, 0
1, 44285, Note_on_c, 0, 58, 0
1, 44429, Control_c, 0, 64, 0
1, 44449, Note_on_c, 0, 75, 65
1, 44453, Note_on_c, 0, 66, 60
1, 44465, Note_on_c, 0, 70, 57
1, 44473, Note_on_c, 0, 64, 50
1, 44473, Note_on_c, 0, 60, 48
1, 44477, Note_on_c, 0, 72, 45
1, 44481, Note_on_c, 0, 54, 40
1, 44585, Control_c, 0, 64, 127
1, 44713, Note_on_c, 0, 64, 0
1, 44725, Note_on_c, 0, 60, 0
1, 44773, Note_on_c, 0, 54, 0
1, 44777, Note_on_c, 0, 72, 0
1, 44805, Note_on_c, 0, 70, 0
1, 44825, Note_on_c, 0, 75, 0
1, 44829, Note_on_c, 0, 66, 0
1, 45157, Note_on_c, 0, 66, 50
1, 45161, Note_on_c, 0, 63, 46
1, 45165, Note_on_c, 0, 60, 33
1, 45165, Note_on_c, 0, 54, 35
1, 45173, Note_on_c, 0, 50, 36
1, 45341, Note_on_c, 0, 63, 0
1, 45441, Note_on_c, 0, 54, 0
1, 45453, Note_on_c, 0, 66, 0
1, 45477, Note_on_c, 0, 50, 0
1, 45481, Note_on_c, 0, 60, 0
1, 45597, Note_on_c, 0, 66, 59
1, 45597, Note_on_c, 0, 57, 52
1, 45601, Note_on_c, 0, 63, 48
1, 45609, Note_on_c, 0, 72, 46
1, 45629, Note_on_c, 0, 57, 0
1, 45633, Note_on_c, 0, 63, 0
1, 45649, Note_on_c, 0, 72, 0
1, 45689, Note_on_c, 0, 66, 0
1, 45793, Control_c, 0, 64, 0
1, 45853, Note_on_c, 0, 65, 53
1, 45861, Note_on_c, 0, 74, 54
1, 45861, Note_on_c, 0, 67, 51
1, 45865, Note_on_c, 0, 58, 50
1, 45865, Note_on_c, 0, 70, 44
1, 45873, Note_on_c, 0, 62, 36
1, 45921, Control_c, 0, 64, 127
1, 45953, Note_on_c, 0, 62, 0
1, 45977, Note_on_c, 0, 58, 0
1, 46077, Note_on_c, 0, 74, 0
1, 46081, Note_on_c, 0, 65, 0
1, 46117, Note_on_c, 0, 67, 0
1, 46133, Note_on_c, 0, 70, 0
1, 46565, Control_c, 0, 64, 24
1, 46569, Control_c, 0, 64, 0
1, 46585, Note_on_c, 0, 64, 45
1, 46589, Note_on_c, 0, 73, 43
1, 46597, Note_on_c, 0, 70, 49
1, 46605, Note_on_c, 0, 52, 35
1, 46717, Control_c, 0, 64, 127
1, 46793, Note_on_c, 0, 64, 0
1, 46809, Note_on_c, 0, 52, 0
1, 46833, Note_on_c, 0, 36, 54
1, 46861, Note_on_c, 0, 70, 0
1, 46869, Note_on_c, 0, 36, 0
1, 46897, Note_on_c, 0, 73, 0
1, 47289, Note_on_c, 0, 85, 58
1, 47297, Note_on_c, 0, 70, 49
1, 47301, Note_on_c, 0, 64, 45
1, 47317, Note_on_c, 0, 58, 41
1, 47389, Control_c, 0, 64, 0
1, 47401, Note_on_c, 0, 64, 0
1, 47417, Note_on_c, 0, 85, 0
1, 47417, Note_on_c, 0, 70, 0
1, 47417, Note_on_c, 0, 58, 0
1, 47657, Note_on_c, 0, 85, 55
1, 47661, Note_on_c, 0, 70, 51
1, 47681, Note_on_c, 0, 64, 44
1, 47689, Note_on_c, 0, 58, 43
1, 47781, Note_on_c, 0, 64, 0
1, 47809, Note_on_c, 0, 58, 0
1, 47817, Note_on_c, 0, 70, 0
1, 47829, Note_on_c, 0, 85, 0
1, 48017, Control_c, 0, 64, 127
1, 48021, Note_on_c, 0, 85, 54
1, 48033, Note_on_c, 0, 70, 43
1, 48037, Note_on_c, 0, 64, 43
1, 48049, Note_on_c, 0, 58, 42
1, 48137, Note_on_c, 0, 64, 0
1, 48161, Note_on_c, 0, 70, 0
1, 48165, Note_on_c, 0, 58, 0
1, 48177, Note_on_c, 0, 85, 0
1, 48277, Note_on_c, 0, 85, 54
1, 48289, Note_on_c, 0, 58, 48
1, 48297, Note_on_c, 0, 64, 39
1, 48297, Note_on_c, 0, 70, 44
1, 48381, Note_on_c, 0, 85, 0
1, 48389, Note_on_c, 0, 58, 0
1, 48393, Note_on_c, 0, 64, 0
1, 48457, Note_on_c, 0, 70, 0
1, 48765, Note_on_c, 0, 79, 69
1, 48765, Note_on_c, 0, 75, 61
1, 48765, Note_on_c, 0, 63, 48
1, 48773, Note_on_c, 0, 68, 52
1, 48773, Note_on_c, 0, 72, 57
1, 48781, Control_c, 0, 64, 0
1, 48789, Note_on_c, 0, 60, 46
1, 48857, Control_c, 0, 64, 127
1, 49041, Note_on_c, 0, 58, 73
1, 49073, Note_on_c, 0, 68, 0
1, 49093, Note_on_c, 0, 60, 0
1, 49125, Note_on_c, 0, 79, 0
1, 49133, Note_on_c, 0, 63, 0
1, 49137, Note_on_c, 0, 72, 0
1, 49153, Note_on_c, 0, 58, 0
1, 49153, Note_on_c, 0, 75, 0
1, 49545, Note_on_c, 0, 60, 90
1, 49717, Note_on_c, 0, 60, 0
1, 49789, Note_on_c, 0, 63, 80
1, 49901, Note_on_c, 0, 63, 0
1, 50009, Note_on_c, 0, 65, 77
1, 50101, Note_on_c, 0, 65, 0
1, 50213, Control_c, 0, 64, 0
1, 50257, Note_on_c, 0, 66, 57
1, 50265, Note_on_c, 0, 61, 53
1, 50273, Note_on_c, 0, 46, 53
1, 50321, Control_c, 0, 64, 127
1, 50337, Note_on_c, 0, 46, 0
1, 50365, Note_on_c, 0, 61, 0
1, 50381, Note_on_c, 0, 66, 0
1, 50753, Note_on_c, 0, 66, 60
1, 50757, Note_on_c, 0, 70, 77
1, 50765, Note_on_c, 0, 56, 45
1, 50777, Note_on_c, 0, 62, 49
1, 50777, Note_on_c, 0, 82, 37
1, 50837, Note_on_c, 0, 70, 0
1, 50861, Note_on_c, 0, 82, 0
1, 50909, Note_on_c, 0, 66, 0
1, 50913, Note_on_c, 0, 56, 0
1, 50953, Note_on_c, 0, 62, 0
1, 51017, Note_on_c, 0, 85, 69
1, 51025, Note_on_c, 0, 73, 63
1, 51025, Note_on_c, 0, 66, 55
1, 51033, Note_on_c, 0, 56, 52
1, 51049, Note_on_c, 0, 62, 54
1, 51061, Note_on_c, 0, 73, 0
1, 51101, Note_on_c, 0, 85, 0
1, 51109, Note_on_c, 0, 66, 0
1, 51117, Note_on_c, 0, 56, 0
1, 51169, Note_on_c, 0, 62, 0
1, 51245, Note_on_c, 0, 78, 70
1, 51245, Note_on_c, 0, 90, 67
1, 51253, Note_on_c, 0, 66, 55
1, 51257, Note_on_c, 0, 56, 54
1, 51261, Note_on_c, 0, 62, 46
1, 51277, Note_on_c, 0, 78, 0
1, 51297, Note_on_c, 0, 62, 0
1, 51301, Note_on_c, 0, 56, 0
1, 51301, Note_on_c, 0, 66, 0
1, 51313, Note_on_c, 0, 90, 0
1, 51485, Note_on_c, 0, 56, 67
1, 51485, Note_on_c, 0, 66, 70
1, 51489, Note_on_c, 0, 94, 82
1, 51497, Note_on_c, 0, 82, 74
1, 51509, Note_on_c, 0, 62, 49
1, 51529, Note_on_c, 0, 82, 0
1, 51585, Note_on_c, 0, 94, 0
1, 51597, Note_on_c, 0, 66, 0
1, 51645, Note_on_c, 0, 56, 0
1, 51649, Note_on_c, 0, 62, 0
1, 51713, Control_c, 0, 64, 0
1, 51717, Note_on_c, 0, 62, 50
1, 51729, Note_on_c, 0, 65, 58
1, 51733, Note_on_c, 0, 55, 57
1, 51733, Note_on_c, 0, 96, 75
1, 51733, Note_on_c, 0, 84, 69
1, 51733, Note_on_c, 0, 60, 55
1, 51801, Note_on_c, 0, 65, 0
1, 51817, Control_c, 0, 64, 127
1, 51849, Note_on_c, 0, 84, 0
1, 51857, Note_on_c, 0, 96, 0
1, 51869, Note_on_c, 0, 62, 0
1, 51885, Note_on_c, 0, 60, 0
1, 51901, Note_on_c, 0, 55, 0
1, 51977, Note_on_c, 0, 94, 56
1, 51981, Note_on_c, 0, 86, 56
1, 51981, Note_on_c, 0, 98, 60
1, 51993, Note_on_c, 0, 91, 62
1, 52013, Note_on_c, 0, 86, 0
1, 52017, Note_on_c, 0, 91, 0
1, 52045, Note_on_c, 0, 94, 0
1, 52053, Note_on_c, 0, 98, 0
1, 52197, Control_c, 0, 64, 0
1, 52205, Note_on_c, 0, 39, 74
1, 52209, Note_on_c, 0, 46, 77
1, 52221, Note_on_c, 0, 101, 85
1, 52241, Control_c, 0, 64, 127
1, 52341, Note_on_c, 0, 39, 0
1, 52361, Note_on_c, 0, 46, 0
1, 52409, Note_on_c, 0, 101, 0
1, 52673, Note_on_c, 0, 98, 84
1, 52677, Note_on_c, 0, 65, 69
1, 52677, Note_on_c, 0, 55, 67
1, 52685, Note_on_c, 0, 94, 61
1, 52685, Note_on_c, 0, 91, 68
1, 52685, Note_on_c, 0, 60, 63
1, 52685, Note_on_c, 0, 86, 67
1, 52917, Note_on_c, 0, 98, 0
1, 52937, Note_on_c, 0, 60, 0
1, 52949, Note_on_c, 0, 65, 0
1, 52969, Note_on_c, 0, 91, 0
1, 52969, Note_on_c, 0, 94, 0
1, 52985, Note_on_c, 0, 86, 0
1, 52989, Note_on_c, 0, 55, 0
1, 53441, Note_on_c, 0, 94, 83
1, 53449, Note_on_c, 0, 82, 81
1, 53453, Note_on_c, 0, 65, 70
1, 53453, Note_on_c, 0, 55, 68
1, 53453, Note_on_c, 0, 89, 77
1, 53453, Note_on_c, 0, 60, 62
1, 53565, Note_on_c, 0, 82, 0
1, 53573, Note_on_c, 0, 65, 0
1, 53589, Note_on_c, 0, 89, 0
1, 53597, Note_on_c, 0, 94, 0
1, 53601, Note_on_c, 0, 55, 0
1, 53609, Note_on_c, 0, 60, 0
1, 53645, Note_on_c, 0, 94, 63
1, 53653, Note_on_c, 0, 55, 47
1, 53657, Note_on_c, 0, 82, 57
1, 53661, Note_on_c, 0, 89, 63
1, 53661, Note_on_c, 0, 65, 48
1, 53661, Note_on_c, 0, 60, 50
1, 53721, Note_on_c, 0, 89, 0
1, 53741, Note_on_c, 0, 94, 0
1, 53745, Note_on_c, 0, 65, 0
1, 53745, Note_on_c, 0, 82, 0
1, 53785, Note_on_c, 0, 55, 0
1, 53797, Note_on_c, 0, 60, 0
1, 53905, Note_on_c, 0, 91, 57
1, 53905, Note_on_c, 0, 55, 52
1, 53905, Note_on_c, 0, 65, 43
1, 53913, Note_on_c, 0, 60, 46
1, 53937, Note_on_c, 0, 79, 23
1, 53953, Note_on_c, 0, 65, 0
1, 53989, Note_on_c, 0, 60, 0
1, 54049, Note_on_c, 0, 55, 0
1, 54069, Note_on_c, 0, 79, 0
1, 54093, Note_on_c, 0, 91, 0
1, 54357, Note_on_c, 0, 51, 60
1, 54409, Note_on_c, 0, 56, 35
1, 54501, Note_on_c, 0, 56, 0
1, 54525, Note_on_c, 0, 51, 0
1, 54601, Control_c, 0, 64, 0
1, 54633, Note_on_c, 0, 91, 115
1, 54637, Note_on_c, 0, 60, 63
1, 54641, Note_on_c, 0, 50, 54
1, 54641, Note_on_c, 0, 56, 55
1, 54781, Note_on_c, 0, 91, 0
1, 54809, Note_on_c, 0, 92, 63
1, 54893, Note_on_c, 0, 91, 64
1, 54921, Note_on_c, 0, 60, 0
1, 54937, Note_on_c, 0, 92, 0
1, 54981, Note_on_c, 0, 91, 0
1, 54985, Note_on_c, 0, 89, 75
1, 55057, Note_on_c, 0, 89, 0
1, 55101, Note_on_c, 0, 56, 0
1, 55133, Note_on_c, 0, 87, 79
1, 55233, Note_on_c, 0, 87, 0
1, 55285, Note_on_c, 0, 86, 73
1, 55297, Note_on_c, 0, 56, 50
1, 55301, Note_on_c, 0, 60, 46
1, 55425, Note_on_c, 0, 86, 0
1, 55485, Control_c, 0, 64, 127
1, 55573, Note_on_c, 0, 87, 54
1, 55613, Note_on_c, 0, 50, 0
1, 55629, Note_on_c, 0, 56, 0
1, 55649, Note_on_c, 0, 88, 71
1, 55653, Note_on_c, 0, 87, 0
1, 55669, Note_on_c, 0, 60, 0
1, 55725, Note_on_c, 0, 88, 0
1, 55737, Note_on_c, 0, 89, 92
1, 55873, Note_on_c, 0, 89, 0
1, 55909, Note_on_c, 0, 86, 81
1, 55917, Control_c, 0, 64, 0
1, 55969, Note_on_c, 0, 59, 39
1, 55981, Note_on_c, 0, 64, 31
1, 55989, Note_on_c, 0, 53, 29
1, 56033, Note_on_c, 0, 86, 0
1, 56077, Control_c, 0, 64, 127
1, 56077, Note_on_c, 0, 83, 61
1, 56089, Note_on_c, 0, 64, 0
1, 56113, Note_on_c, 0, 59, 0
1, 56137, Note_on_c, 0, 53, 0
1, 56185, Note_on_c, 0, 83, 0
1, 56225, Note_on_c, 0, 80, 56
1, 56309, Note_on_c, 0, 80, 0
1, 56385, Note_on_c, 0, 43, 60
1, 56393, Note_on_c, 0, 79, 63
1, 56409, Note_on_c, 0, 43, 0
1, 56537, Note_on_c, 0, 79, 0
1, 56689, Note_on_c, 0, 82, 85
1, 56693, Note_on_c, 0, 53, 56
1, 56697, Note_on_c, 0, 64, 63
1, 56705, Control_c, 0, 64, 0
1, 56705, Note_on_c, 0, 59, 57
1, 56837, Control_c, 0, 64, 127
1, 56845, Note_on_c, 0, 82, 0
1, 56901, Note_on_c, 0, 75, 77
1, 57029, Note_on_c, 0, 75, 0
1, 57033, Note_on_c, 0, 53, 0
1, 57037, Note_on_c, 0, 59, 0
1, 57085, Note_on_c, 0, 71, 52
1, 57121, Note_on_c, 0, 64, 0
1, 57225, Note_on_c, 0, 71, 0
1, 57257, Note_on_c, 0, 77, 82
1, 57329, Control_c, 0, 64, 0
1, 57385, Note_on_c, 0, 63, 52
1, 57385, Note_on_c, 0, 67, 51
1, 57409, Note_on_c, 0, 60, 44
1, 57421, Note_on_c, 0, 75, 67
1, 57449, Note_on_c, 0, 77, 0
1, 57477, Control_c, 0, 64, 127
1, 57501, Note_on_c, 0, 67, 0
1, 57545, Note_on_c, 0, 63, 0
1, 57557, Note_on_c, 0, 60, 0
1, 57561, Note_on_c, 0, 75, 0
1, 57757, Note_on_c, 0, 74, 80
1, 57897, Note_on_c, 0, 74, 0
1, 57925, Note_on_c, 0, 72, 62
1, 58093, Note_on_c, 0, 67, 54
1, 58221, Control_c, 0, 64, 0
1, 58285, Note_on_c, 0, 63, 62
1, 58441, Note_on_c, 0, 67, 0
1, 58457, Note_on_c, 0, 63, 0
1, 58465, Control_c, 0, 64, 127
1, 58489, Note_on_c, 0, 47, 50
1, 58493, Note_on_c, 0, 55, 51
1, 58561, Note_on_c, 0, 47, 0
1, 58629, Note_on_c, 0, 55, 0
1, 58717, Control_c, 0, 64, 0
1, 58749, Note_on_c, 0, 46, 54
1, 58757, Note_on_c, 0, 55, 45
1, 58913, Control_c, 0, 64, 127
1, 58945, Note_on_c, 0, 72, 0
1, 59061, Note_on_c, 0, 55, 0
1, 59489, Note_on_c, 0, 63, 41
1, 59497, Note_on_c, 0, 55, 37
1, 59501, Note_on_c, 0, 60, 42
1, 59541, Note_on_c, 0, 63, 0
1, 59553, Note_on_c, 0, 60, 0
1, 59669, Note_on_c, 0, 46, 0
1, 59705, Note_on_c, 0, 74, 74
1, 59709, Note_on_c, 0, 55, 0
1, 59849, Note_on_c, 0, 74, 0
1, 59921, Note_on_c, 0, 72, 64
1, 60141, Note_on_c, 0, 63, 49
1, 60165, Note_on_c, 0, 67, 47
1, 60177, Control_c, 0, 64, 0
1, 60193, Note_on_c, 0, 62, 32
1, 60201, Note_on_c, 0, 67, 0
1, 60213, Note_on_c, 0, 63, 0
1, 60237, Note_on_c, 0, 62, 0
1, 60377, Note_on_c, 0, 63, 38
1, 60389, Note_on_c, 0, 67, 43
1, 60393, Note_on_c, 0, 62, 40
1, 60433, Note_on_c, 0, 62, 0
1, 60433, Note_on_c, 0, 67, 0
1, 60441, Note_on_c, 0, 63, 0
1, 60605, Note_on_c, 0, 63, 43
1, 60617, Note_on_c, 0, 62, 44
1, 60617, Note_on_c, 0, 67, 45
1, 60669, Note_on_c, 0, 63, 0
1, 60673, Note_on_c, 0, 62, 0
1, 60681, Note_on_c, 0, 67, 0
1, 60965, Control_c, 0, 64, 127
1, 61037, Note_on_c, 0, 63, 31
1, 61037, Note_on_c, 0, 67, 41
1, 61049, Note_on_c, 0, 62, 36
1, 61081, Note_on_c, 0, 63, 0
1, 61089, Note_on_c, 0, 62, 0
1, 61097, Note_on_c, 0, 67, 0
1, 61253, Note_on_c, 0, 63, 40
1, 61261, Note_on_c, 0, 67, 47
1, 61261, Note_on_c, 0, 62, 41
1, 61341, Note_on_c, 0, 62, 0
1, 61381, Note_on_c, 0, 67, 0
1, 61389, Note_on_c, 0, 63, 0
1, 61469, Control_c, 0, 64, 0
1, 61509, Note_on_c, 0, 66, 46
1, 61517, Note_on_c, 0, 63, 30
1, 61517, Control_c, 0, 64, 127
1, 61517, Note_on_c, 0, 60, 32
1, 61521, Note_on_c, 0, 50, 38
1, 61621, Note_on_c, 0, 63, 0
1, 61629, Note_on_c, 0, 72, 0
1, 61633, Note_on_c, 0, 66, 0
1, 61729, Note_on_c, 0, 60, 0
1, 61753, Note_on_c, 0, 77, 82
1, 61785, Note_on_c, 0, 57, 31
1, 61821, Note_on_c, 0, 50, 0
1, 61845, Note_on_c, 0, 57, 0
1, 62073, Note_on_c, 0, 77, 0
1, 62189, Note_on_c, 0, 66, 56
1, 62201, Note_on_c, 0, 65, 52
1, 62229, Note_on_c, 0, 69, 39
1, 62337, Note_on_c, 0, 66, 0
1, 62353, Note_on_c, 0, 65, 0
1, 62433, Note_on_c, 0, 74, 66
1, 62561, Note_on_c, 0, 69, 0
1, 62589, Note_on_c, 0, 74, 0
1, 62649, Note_on_c, 0, 75, 76
1, 62761, Note_on_c, 0, 75, 0
1, 62881, Control_c, 0, 64, 0
1, 62885, Note_on_c, 0, 74, 70
1, 62897, Note_on_c, 0, 55, 37
1, 62905, Note_on_c, 0, 58, 46
1, 62957, Control_c, 0, 64, 88
1, 62961, Control_c, 0, 64, 127
1, 63069, Note_on_c, 0, 55, 0
1, 63133, Note_on_c, 0, 53, 43
1, 63161, Note_on_c, 0, 58, 0
1, 63165, Note_on_c, 0, 53, 0
1, 63201, Note_on_c, 0, 74, 0
1, 63357, Note_on_c, 0, 49, 52
1, 63489, Note_on_c, 0, 49, 0
1, 63605, Note_on_c, 0, 58, 52
1, 63609, Control_c, 0, 64, 0
1, 63617, Note_on_c, 0, 60, 42
1, 63625, Note_on_c, 0, 48, 41
1, 63637, Note_on_c, 0, 64, 38
1, 63661, Control_c, 0, 64, 127
1, 63789, Note_on_c, 0, 60, 0
1, 63841, Note_on_c, 0, 67, 69
1, 63877, Note_on_c, 0, 48, 0
1, 63881, Note_on_c, 0, 58, 0
1, 63901, Note_on_c, 0, 64, 0
1, 64013, Note_on_c, 0, 67, 0
1, 64081, Note_on_c, 0, 68, 80
1, 64285, Note_on_c, 0, 68, 0
1, 64553, Control_c, 0, 64, 0
1, 64573, Note_on_c, 0, 63, 60
1, 64573, Note_on_c, 0, 70, 62
1, 64577, Note_on_c, 0, 41, 68
1, 64585, Note_on_c, 0, 67, 57
1, 64589, Note_on_c, 0, 60, 55
1, 64657, Control_c, 0, 64, 127
1, 64725, Note_on_c, 0, 60, 0
1, 64741, Note_on_c, 0, 67, 0
1, 64757, Note_on_c, 0, 63, 0
1, 64769, Note_on_c, 0, 70, 0
1, 64773, Note_on_c, 0, 41, 0
1, 64829, Note_on_c, 0, 72, 90
1, 65165, Note_on_c, 0, 72, 0
1, 65253, Control_c, 0, 64, 0
1, 65273, Note_on_c, 0, 67, 63
1, 65277, Note_on_c, 0, 62, 66
1, 65293, Note_on_c, 0, 56, 48
1, 65349, Control_c, 0, 64, 127
1, 65473, Note_on_c, 0, 56, 0
1, 65509, Note_on_c, 0, 71, 76
1, 65585, Note_on_c, 0, 62, 0
1, 65585, Note_on_c, 0, 67, 0
1, 65725, Note_on_c, 0, 71, 0
1, 65757, Control_c, 0, 64, 24
1, 65761, Control_c, 0, 64, 0
1, 65769, Note_on_c, 0, 70, 56
1, 65773, Note_on_c, 0, 62, 46
1, 65785, Note_on_c, 0, 67, 50
1, 65793, Note_on_c, 0, 39, 43
1, 65897, Control_c, 0, 64, 127
1, 66021, Note_on_c, 0, 46, 55
1, 66041, Note_on_c, 0, 39, 0
1, 66233, Note_on_c, 0, 62, 0
1, 66269, Note_on_c, 0, 55, 64
1, 66505, Note_on_c, 0, 67, 0
1, 66521, Note_on_c, 0, 62, 59
1, 66601, Note_on_c, 0, 70, 0
1, 66625, Note_on_c, 0, 62, 0
1, 66653, Note_on_c, 0, 46, 0
1, 66677, Note_on_c, 0, 55, 0
1, 66701, Note_on_c, 0, 67, 62
1, 66797, Note_on_c, 0, 67, 0
1, 66833, Note_on_c, 0, 68, 75
1, 66929, Note_on_c, 0, 68, 0
1, 66957, Note_on_c, 0, 70, 71
1, 67025, Note_on_c, 0, 70, 0
1, 67045, Note_on_c, 0, 71, 79
1, 67137, Control_c, 0, 64, 0
1, 67161, Note_on_c, 0, 72, 67
1, 67169, Note_on_c, 0, 71, 0
1, 67185, Note_on_c, 0, 43, 54
1, 67237, Control_c, 0, 64, 127
1, 67265, Note_on_c, 0, 73, 69
1, 67273, Note_on_c, 0, 72, 0
1, 67277, Note_on_c, 0, 43, 0
1, 67329, Note_on_c, 0, 73, 0
1, 67357, Note_on_c, 0, 74, 76
1, 67421, Note_on_c, 0, 74, 0
1, 67453, Note_on_c, 0, 75, 47
1, 67521, Note_on_c, 0, 76, 79
1, 67525, Note_on_c, 0, 75, 0
1, 67577, Note_on_c, 0, 76, 0
1, 67589, Control_c, 0, 64, 0
1, 67613, Note_on_c, 0, 77, 107
1, 67653, Control_c, 0, 64, 127
1, 67853, Note_on_c, 0, 74, 75
1, 67897, Note_on_c, 0, 59, 49
1, 67901, Note_on_c, 0, 62, 47
1, 67905, Note_on_c, 0, 53, 46
1, 67921, Note_on_c, 0, 77, 0
1, 67929, Control_c, 0, 64, 0
1, 68045, Control_c, 0, 64, 127
1, 68085, Note_on_c, 0, 71, 65
1, 68177, Note_on_c, 0, 74, 0
1, 68221, Note_on_c, 0, 62, 0
1, 68249, Note_on_c, 0, 71, 0
1, 68273, Note_on_c, 0, 68, 56
1, 68281, Note_on_c, 0, 59, 0
1, 68321, Note_on_c, 0, 53, 0
1, 68377, Note_on_c, 0, 68, 0
1, 68457, Note_on_c, 0, 67, 48
1, 68581, Note_on_c, 0, 67, 0
1, 68649, Note_on_c, 0, 77, 82
1, 68729, Control_c, 0, 64, 0
1, 68765, Note_on_c, 0, 44, 48
1, 68773, Note_on_c, 0, 55, 47
1, 68821, Note_on_c, 0, 77, 0
1, 68853, Control_c, 0, 64, 127
1, 68897, Note_on_c, 0, 75, 63
1, 68945, Note_on_c, 0, 44, 0
1, 68985, Note_on_c, 0, 55, 0
1, 69121, Note_on_c, 0, 67, 48
1, 69353, Note_on_c, 0, 67, 0
1, 69485, Note_on_c, 0, 75, 0
1, 69489, Note_on_c, 0, 63, 48
1, 69509, Note_on_c, 0, 67, 50
1, 69517, Note_on_c, 0, 60, 44
1, 69613, Note_on_c, 0, 63, 0
1, 69625, Note_on_c, 0, 60, 0
1, 69721, Note_on_c, 0, 67, 0
1, 70209, Control_c, 0, 64, 72
1, 70213, Control_c, 0, 64, 0
1, 70249, Control_c, 0, 64, 127
1, 70253, Note_on_c, 0, 60, 44
1, 70257, Note_on_c, 0, 54, 31
1, 70261, Note_on_c, 0, 57, 38
1, 70293, Note_on_c, 0, 45, 22
1, 70361, Note_on_c, 0, 45, 0
1, 70361, Note_on_c, 0, 57, 0
1, 70365, Note_on_c, 0, 60, 0
1, 70425, Note_on_c, 0, 54, 0
1, 70733, Note_on_c, 0, 63, 48
1, 70733, Note_on_c, 0, 72, 50
1, 70733, Note_on_c, 0, 66, 52
1, 70741, Note_on_c, 0, 57, 44
1, 70769, Note_on_c, 0, 63, 0
1, 70789, Note_on_c, 0, 57, 0
1, 70801, Note_on_c, 0, 66, 0
1, 70809, Note_on_c, 0, 72, 0
1, 70973, Control_c, 0, 64, 0
1, 71005, Note_on_c, 0, 75, 58
1, 71013, Note_on_c, 0, 66, 50
1, 71013, Control_c, 0, 64, 127
1, 71017, Note_on_c, 0, 60, 48
1, 71029, Note_on_c, 0, 72, 45
1, 71029, Note_on_c, 0, 69, 49
1, 71261, Note_on_c, 0, 72, 0
1, 71265, Note_on_c, 0, 69, 0
1, 71297, Note_on_c, 0, 75, 0
1, 71313, Note_on_c, 0, 60, 0
1, 71313, Note_on_c, 0, 66, 0
1, 71329, Note_on_c, 0, 59, 39
1, 71373, Note_on_c, 0, 59, 0
1, 71397, Note_on_c, 0, 58, 57
1, 71453, Control_c, 0, 64, 0
1, 71477, Note_on_c, 0, 58, 0
1, 71485, Note_on_c, 0, 66, 61
1, 71497, Note_on_c, 0, 63, 51
1, 71501, Note_on_c, 0, 69, 57
1, 71517, Note_on_c, 0, 57, 54
1, 71553, Control_c, 0, 64, 127
1, 71629, Note_on_c, 0, 57, 0
1, 71629, Note_on_c, 0, 69, 0
1, 71629, Note_on_c, 0, 63, 0
1, 71673, Note_on_c, 0, 66, 0
1, 71725, Note_on_c, 0, 60, 65
1, 71729, Note_on_c, 0, 66, 48
1, 71737, Note_on_c, 0, 74, 61
1, 71761, Note_on_c, 0, 74, 0
1, 71761, Note_on_c, 0, 60, 0
1, 71877, Note_on_c, 0, 66, 0
1, 71953, Control_c, 0, 64, 56
1, 71953, Note_on_c, 0, 56, 54
1, 71953, Note_on_c, 0, 70, 59
1, 71957, Control_c, 0, 64, 0
1, 71961, Note_on_c, 0, 62, 53
1, 71973, Note_on_c, 0, 65, 57
1, 72125, Control_c, 0, 64, 127
1, 72173, Note_on_c, 0, 46, 59
1, 72425, Note_on_c, 0, 46, 0
1, 72429, Note_on_c, 0, 62, 0
1, 72437, Note_on_c, 0, 65, 0
1, 72561, Note_on_c, 0, 46, 73
1, 72833, Note_on_c, 0, 46, 0
1, 72981, Note_on_c, 0, 46, 73
1, 73097, Note_on_c, 0, 46, 0
1, 73249, Note_on_c, 0, 46, 72
1, 73321, Note_on_c, 0, 46, 0
1, 73425, Note_on_c, 0, 47, 71
1, 73441, Control_c, 0, 64, 0
1, 73473, Note_on_c, 0, 70, 0
1, 73473, Note_on_c, 0, 65, 53
1, 73473, Note_on_c, 0, 62, 55
1, 73557, Control_c, 0, 64, 127
1, 73589, Note_on_c, 0, 70, 13
1, 73621, Note_on_c, 0, 62, 0
1, 73657, Note_on_c, 0, 65, 0
1, 73657, Note_on_c, 0, 47, 0
1, 73685, Note_on_c, 0, 56, 0
1, 73709, Note_on_c, 0, 70, 0
1, 74185, Note_on_c, 0, 71, 54
1, 74185, Note_on_c, 0, 65, 46
1, 74185, Note_on_c, 0, 68, 45
1, 74189, Note_on_c, 0, 59, 46
1, 74281, Note_on_c, 0, 65, 0
1, 74281, Note_on_c, 0, 71, 0
1, 74285, Note_on_c, 0, 68, 0
1, 74417, Note_on_c, 0, 77, 102
1, 74481, Note_on_c, 0, 59, 0
1, 74609, Note_on_c, 0, 77, 0
1, 74665, Note_on_c, 0, 75, 86
1, 74897, Note_on_c, 0, 73, 26
1, 74905, Note_on_c, 0, 63, 54
1, 74921, Control_c, 0, 64, 0
1, 74929, Note_on_c, 0, 48, 42
1, 74961, Note_on_c, 0, 55, 26
1, 75045, Note_on_c, 0, 48, 0
1, 75089, Note_on_c, 0, 75, 0
1, 75109, Control_c, 0, 64, 127
1, 75153, Note_on_c, 0, 62, 63
1, 75381, Note_on_c, 0, 75, 1
1, 75481, Note_on_c, 0, 63, 0
1, 75501, Note_on_c, 0, 62, 0
1, 75649, Note_on_c, 0, 63, 48
1, 75653, Note_on_c, 0, 60, 46
1, 75661, Note_on_c, 0, 67, 50
1, 75665, Note_on_c, 0, 75, 0
1, 75801, Note_on_c, 0, 60, 0
1, 75905, Note_on_c, 0, 67, 0
1, 75949, Note_on_c, 0, 73, 0
1, 76001, Note_on_c, 0, 63, 0
1, 76105, Note_on_c, 0, 48, 54
1, 76109, Note_on_c, 0, 55, 0
1, 76173, Note_on_c, 0, 48, 0
1, 76381, Note_on_c, 0, 46, 40
1, 76405, Note_on_c, 0, 55, 39
1, 76433, Control_c, 0, 64, 0
1, 76633, Note_on_c, 0, 63, 47
1, 76645, Note_on_c, 0, 62, 30
1, 76669, Note_on_c, 0, 63, 0
1, 76681, Note_on_c, 0, 62, 0
1, 76737, Note_on_c, 0, 55, 0
1, 76849, Note_on_c, 0, 62, 67
1, 76861, Note_on_c, 0, 63, 55
1, 76881, Note_on_c, 0, 67, 30
1, 76905, Note_on_c, 0, 63, 0
1, 76909, Note_on_c, 0, 62, 0
1, 76917, Note_on_c, 0, 67, 0
1, 77105, Note_on_c, 0, 62, 66
1, 77105, Note_on_c, 0, 63, 62
1, 77109, Note_on_c, 0, 67, 57
1, 77117, Note_on_c, 0, 55, 39
1, 77213, Note_on_c, 0, 67, 0
1, 77245, Control_c, 0, 64, 127
1, 77281, Note_on_c, 0, 62, 0
1, 77333, Note_on_c, 0, 60, 49
1, 77353, Note_on_c, 0, 46, 0
1, 77357, Note_on_c, 0, 63, 0
1, 77569, Note_on_c, 0, 60, 0
1, 77573, Note_on_c, 0, 46, 65
1, 77665, Note_on_c, 0, 55, 0
1, 77725, Note_on_c, 0, 46, 0
1, 77797, Control_c, 0, 64, 0
1, 77849, Note_on_c, 0, 45, 57
1, 77849, Control_c, 0, 64, 127
1, 77873, Note_on_c, 0, 45, 0
1, 78325, Note_on_c, 0, 63, 74
1, 78329, Note_on_c, 0, 86, 82
1, 78337, Note_on_c, 0, 55, 63
1, 78337, Note_on_c, 0, 81, 82
1, 78337, Note_on_c, 0, 60, 54
1, 78337, Note_on_c, 0, 74, 80
1, 78341, Note_on_c, 0, 57, 58
1, 78441, Note_on_c, 0, 86, 0
1, 78445, Note_on_c, 0, 74, 0
1, 78493, Note_on_c, 0, 81, 0
1, 78505, Note_on_c, 0, 55, 0
1, 78517, Note_on_c, 0, 63, 0
1, 78529, Note_on_c, 0, 57, 0
1, 78537, Note_on_c, 0, 60, 0
1, 78609, Note_on_c, 0, 87, 86
1, 78613, Note_on_c, 0, 63, 81
1, 78613, Note_on_c, 0, 81, 85
1, 78617, Note_on_c, 0, 75, 82
1, 78621, Note_on_c, 0, 60, 66
1, 78621, Note_on_c, 0, 57, 56
1, 78625, Note_on_c, 0, 55, 63
1, 78737, Note_on_c, 0, 81, 0
1, 78741, Note_on_c, 0, 60, 0
1, 78745, Note_on_c, 0, 75, 0
1, 78757, Note_on_c, 0, 87, 0
1, 78765, Note_on_c, 0, 55, 0
1, 78769, Note_on_c, 0, 57, 0
1, 78773, Note_on_c, 0, 63, 0
1, 79073, Note_on_c, 0, 81, 90
1, 79073, Note_on_c, 0, 89, 90
1, 79073, Control_c, 0, 64, 0
1, 79077, Note_on_c, 0, 60, 75
1, 79077, Note_on_c, 0, 61, 72
1, 79081, Note_on_c, 0, 77, 86
1, 79081, Note_on_c, 0, 84, 73
1, 79081, Note_on_c, 0, 65, 88
1, 79085, Note_on_c, 0, 55, 75
1, 79097, Note_on_c, 0, 58, 57
1, 79185, Control_c, 0, 64, 127
1, 79265, Note_on_c, 0, 89, 0
1, 79285, Note_on_c, 0, 77, 0
1, 79293, Note_on_c, 0, 81, 0
1, 79293, Note_on_c, 0, 60, 0
1, 79293, Note_on_c, 0, 65, 0
1, 79301, Note_on_c, 0, 55, 0
1, 79305, Note_on_c, 0, 84, 0
1, 79333, Note_on_c, 0, 58, 0
1, 79337, Note_on_c, 0, 61, 0
1, 79517, Note_on_c, 0, 87, 72
1, 79517, Control_c, 0, 64, 0
1, 79521, Note_on_c, 0, 54, 68
1, 79521, Note_on_c, 0, 64, 72
1, 79521, Note_on_c, 0, 75, 67
1, 79521, Note_on_c, 0, 60, 61
1, 79521, Note_on_c, 0, 81, 68
1, 79529, Note_on_c, 0, 84, 60
1, 79605, Control_c, 0, 64, 127
1, 79685, Note_on_c, 0, 64, 0
1, 79693, Note_on_c, 0, 60, 0
1, 79713, Note_on_c, 0, 84, 0
1, 79717, Note_on_c, 0, 81, 0
1, 79737, Note_on_c, 0, 54, 0
1, 79749, Note_on_c, 0, 75, 0
1, 79765, Note_on_c, 0, 87, 0
1, 79937, Control_c, 0, 64, 0
1, 79953, Note_on_c, 0, 78, 58
1, 79953, Note_on_c, 0, 86, 65
1, 79961, Note_on_c, 0, 74, 61
1, 79965, Note_on_c, 0, 60, 54
1, 79965, Note_on_c, 0, 50, 57
1, 79973, Note_on_c, 0, 81, 57
1, 79977, Note_on_c, 0, 54, 48
1, 80021, Control_c, 0, 64, 127
1, 80081, Note_on_c, 0, 60, 0
1, 80121, Note_on_c, 0, 50, 0
1, 80121, Note_on_c, 0, 54, 0
1, 80129, Note_on_c, 0, 86, 0
1, 80149, Note_on_c, 0, 81, 0
1, 80153, Note_on_c, 0, 74, 0
1, 80253, Note_on_c, 0, 78, 0
1, 80397, Note_on_c, 0, 44, 60
1, 80397, Note_on_c, 0, 54, 50
1, 80397, Note_on_c, 0, 78, 66
1, 80397, Note_on_c, 0, 84, 57
1, 80409, Note_on_c, 0, 72, 55
1, 80481, Note_on_c, 0, 84, 0
1, 80485, Note_on_c, 0, 72, 0
1, 80525, Note_on_c, 0, 54, 0
1, 80533, Note_on_c, 0, 78, 0
1, 80565, Note_on_c, 0, 44, 0
1, 80709, Note_on_c, 0, 85, 66
1, 80709, Control_c, 0, 64, 0
1, 80709, Note_on_c, 0, 70, 63
1, 80721, Note_on_c, 0, 43, 57
1, 80729, Note_on_c, 0, 53, 46
1, 80793, Control_c, 0, 64, 127
1, 80945, Note_on_c, 0, 43, 0
1, 81001, Note_on_c, 0, 53, 0
1, 81017, Note_on_c, 0, 70, 0
1, 81017, Note_on_c, 0, 85, 0
1, 81197, Note_on_c, 0, 85, 58
1, 81201, Note_on_c, 0, 70, 55
1, 81417, Note_on_c, 0, 61, 59
1, 81433, Note_on_c, 0, 55, 51
1, 81457, Note_on_c, 0, 53, 26
1, 81489, Control_c, 0, 64, 0
1, 81493, Note_on_c, 0, 61, 0
1, 81501, Note_on_c, 0, 53, 0
1, 81521, Note_on_c, 0, 55, 0
1, 81541, Note_on_c, 0, 85, 0
1, 81561, Control_c, 0, 64, 127
1, 81573, Note_on_c, 0, 70, 0
1, 81585, Control_c, 0, 64, 0
1, 81665, Note_on_c, 0, 85, 54
1, 81669, Note_on_c, 0, 70, 46
1, 81701, Control_c, 0, 64, 127
1, 81769, Note_on_c, 0, 70, 0
1, 81789, Note_on_c, 0, 85, 0
1, 81885, Note_on_c, 0, 82, 49
1, 81921, Note_on_c, 0, 82, 0
1, 82093, Control_c, 0, 64, 0
1, 82125, Note_on_c, 0, 36, 45
1, 82133, Note_on_c, 0, 70, 50
1, 82137, Note_on_c, 0, 85, 47
1, 82153, Note_on_c, 0, 52, 31
1, 82173, Control_c, 0, 64, 127
1, 82249, Note_on_c, 0, 36, 0
1, 82361, Note_on_c, 0, 52, 0
1, 82389, Note_on_c, 0, 70, 0
1, 82433, Note_on_c, 0, 85, 0
1, 82629, Note_on_c, 0, 87, 65
1, 82637, Note_on_c, 0, 75, 49
1, 82737, Note_on_c, 0, 75, 0
1, 82737, Note_on_c, 0, 87, 0
1, 83205, Note_on_c, 0, 84, 60
1, 83225, Note_on_c, 0, 64, 37
1, 83225, Note_on_c, 0, 72, 43
1, 83233, Note_on_c, 0, 61, 32
1, 83245, Note_on_c, 0, 58, 39
1, 83341, Note_on_c, 0, 84, 0
1, 83405, Note_on_c, 0, 58, 0
1, 83421, Note_on_c, 0, 64, 0
1, 83421, Note_on_c, 0, 61, 0
1, 83445, Note_on_c, 0, 72, 0
1, 83725, Note_on_c, 0, 72, 54
1, 83733, Note_on_c, 0, 82, 59
1, 83733, Note_on_c, 0, 70, 49
1, 83741, Note_on_c, 0, 75, 56
1, 83753, Note_on_c, 0, 68, 48
1, 83765, Note_on_c, 0, 79, 43
1, 83769, Control_c, 0, 64, 0
1, 83793, Note_on_c, 0, 68, 0
1, 83817, Control_c, 0, 64, 127
1, 83861, Note_on_c, 0, 79, 0
1, 83885, Note_on_c, 0, 70, 0
1, 83889, Note_on_c, 0, 82, 0
1, 83901, Note_on_c, 0, 75, 0
1, 83917, Note_on_c, 0, 72, 0
1, 84157, Note_on_c, 0, 68, 45
1, 84161, Note_on_c, 0, 75, 56
1, 84161, Note_on_c, 0, 67, 53
1, 84161, Note_on_c, 0, 72, 54
1, 84213, Note_on_c, 0, 67, 0
1, 84221, Note_on_c, 0, 72, 0
1, 84245, Note_on_c, 0, 75, 0
1, 84277, Note_on_c, 0, 68, 0
1, 84453, Note_on_c, 0, 75, 49
1, 84465, Note_on_c, 0, 68, 54
1, 84469, Note_on_c, 0, 63, 46
1, 84481, Note_on_c, 0, 65, 39
1, 84541, Note_on_c, 0, 75, 0
1, 84549, Note_on_c, 0, 68, 0
1, 84557, Note_on_c, 0, 65, 0
1, 84597, Note_on_c, 0, 63, 0
1, 84641, Note_on_c, 0, 73, 25
1, 84677, Note_on_c, 0, 73, 0
1, 84869, Note_on_c, 0, 60, 45
1, 84873, Note_on_c, 0, 72, 48
1, 84873, Note_on_c, 0, 68, 52
1, 84881, Note_on_c, 0, 62, 45
1, 84901, Note_on_c, 0, 60, 0
1, 84953, Note_on_c, 0, 62, 0
1, 85021, Note_on_c, 0, 72, 0
1, 85025, Note_on_c, 0, 68, 0
1, 85173, Control_c, 0, 64, 0
1, 85197, Note_on_c, 0, 66, 54
1, 85213, Note_on_c, 0, 62, 39
1, 85217, Note_on_c, 0, 56, 44
1, 85221, Note_on_c, 0, 71, 54
1, 85265, Note_on_c, 0, 66, 0
1, 85273, Note_on_c, 0, 67, 40
1, 85305, Control_c, 0, 64, 127
1, 85657, Note_on_c, 0, 46, 56
1, 85665, Note_on_c, 0, 62, 0
1, 85685, Note_on_c, 0, 67, 0
1, 85821, Note_on_c, 0, 56, 0
1, 85977, Note_on_c, 0, 62, 54
1, 85981, Note_on_c, 0, 67, 54
1, 85981, Note_on_c, 0, 56, 48
1, 86153, Note_on_c, 0, 46, 0
1, 86165, Note_on_c, 0, 56, 0
1, 86281, Note_on_c, 0, 67, 0
1, 86293, Note_on_c, 0, 62, 0
1, 86301, Note_on_c, 0, 71, 0
1, 86449, Note_on_c, 0, 46, 55
1, 86545, Note_on_c, 0, 46, 0
1, 86753, Control_c, 0, 64, 0
1, 86793, Note_on_c, 0, 39, 49
1, 86937, Control_c, 0, 64, 127
1, 86973, Note_on_c, 0, 39, 0
1, 87021, Note_on_c, 0, 46, 39
1, 87289, Note_on_c, 0, 55, 45
1, 87617, Note_on_c, 0, 70, 42
1, 87621, Note_on_c, 0, 60, 39
1, 87629, Note_on_c, 0, 65, 47
1, 87877, Note_on_c, 0, 46, 0
1, 88141, Note_on_c, 0, 46, 45
1, 88353, Note_on_c, 0, 46, 0
1, 88529, Note_on_c, 0, 46, 43
1, 88829, Note_on_c, 0, 46, 0
1, 88973, Note_on_c, 0, 46, 39
1, 89045, Note_on_c, 0, 55, 0
1, 89121, Note_on_c, 0, 46, 0
1, 89513, Note_on_c, 0, 39, 49
1, 89997, Note_on_c, 0, 60, 0
1, 90017, Note_on_c, 0, 39, 0
1, 90157, Note_on_c, 0, 65, 0
1, 90181, Note_on_c, 0, 70, 0
1, 91305, Note_on_c, 0, 55, 72
1, 91313, Note_on_c, 0, 60, 68
1, 91325, Note_on_c, 0, 44, 57
1, 91325, Note_on_c, 0, 32, 57
1, 91329, Control_c, 0, 64, 0
1, 91473, Control_c, 0, 64, 127
1, 91609, Note_on_c, 0, 55, 0
1, 91621, Note_on_c, 0, 60, 0
1, 91645, Note_on_c, 0, 32, 0
1, 91661, Note_on_c, 0, 44, 0
1, 92165, Note_on_c, 0, 84, 82
1, 92173, Note_on_c, 0, 48, 66
1, 92173, Note_on_c, 0, 72, 73
1, 92301, Note_on_c, 0, 72, 0
1, 92313, Note_on_c, 0, 84, 0
1, 92413, Note_on_c, 0, 48, 0
1, 92533, Note_on_c, 0, 51, 68
1, 92537, Note_on_c, 0, 85, 80
1, 92537, Note_on_c, 0, 73, 68
1, 92573, Note_on_c, 0, 73, 0
1, 92609, Note_on_c, 0, 85, 0
1, 92853, Note_on_c, 0, 51, 0
1, 93541, Note_on_c, 0, 87, 77
1, 93545, Note_on_c, 0, 75, 72
1, 93553, Note_on_c, 0, 51, 72
1, 93637, Note_on_c, 0, 75, 0
1, 93661, Note_on_c, 0, 87, 0
1, 93777, Note_on_c, 0, 51, 0
1, 93777, Note_on_c, 0, 79, 81
1, 93777, Note_on_c, 0, 91, 71
1, 93785, Note_on_c, 0, 55, 64
1, 93805, Note_on_c, 0, 90, 49
1, 93865, Note_on_c, 0, 79, 0
1, 93873, Note_on_c, 0, 91, 0
1, 93913, Note_on_c, 0, 90, 0
1, 93953, Note_on_c, 0, 55, 0
1, 94033, Note_on_c, 0, 58, 81
1, 94037, Note_on_c, 0, 94, 92
1, 94037, Note_on_c, 0, 82, 94
1, 94221, Note_on_c, 0, 94, 0
1, 94241, Note_on_c, 0, 82, 0
1, 94317, Note_on_c, 0, 92, 68
1, 94317, Note_on_c, 0, 56, 64
1, 94321, Note_on_c, 0, 58, 0
1, 94329, Note_on_c, 0, 80, 75
1, 94401, Note_on_c, 0, 80, 0
1, 94401, Note_on_c, 0, 92, 0
1, 94437, Note_on_c, 0, 56, 0
1, 94557, Control_c, 0, 64, 0
1, 94577, Note_on_c, 0, 51, 58
1, 94585, Note_on_c, 0, 87, 68
1, 94589, Note_on_c, 0, 75, 63
1, 94613, Control_c, 0, 64, 127
1, 94673, Note_on_c, 0, 75, 0
1, 94697, Note_on_c, 0, 87, 0
1, 94853, Note_on_c, 0, 89, 72
1, 94861, Note_on_c, 0, 53, 51
1, 94869, Note_on_c, 0, 77, 56
1, 94881, Note_on_c, 0, 51, 0
1, 94893, Note_on_c, 0, 53, 0
1, 94937, Note_on_c, 0, 77, 0
1, 94973, Note_on_c, 0, 89, 0
1, 95225, Control_c, 0, 64, 0
1, 95245, Note_on_c, 0, 91, 60
1, 95245, Note_on_c, 0, 83, 48
1, 95253, Note_on_c, 0, 87, 49
1, 95257, Note_on_c, 0, 43, 46
1, 95261, Note_on_c, 0, 31, 49
1, 95337, Control_c, 0, 64, 127
1, 95349, Note_on_c, 0, 31, 0
1, 95365, Note_on_c, 0, 91, 0
1, 95409, Note_on_c, 0, 43, 0
1, 95409, Note_on_c, 0, 87, 0
1, 95417, Note_on_c, 0, 83, 0
1, 96033, Note_on_c, 0, 59, 48
1, 96209, Note_on_c, 0, 67, 56
1, 96317, Note_on_c, 0, 67, 0
1, 96553, Note_on_c, 0, 69, 50
1, 96637, Note_on_c, 0, 69, 0
1, 96709, Note_on_c, 0, 71, 60
1, 96785, Note_on_c, 0, 71, 0
1, 96829, Note_on_c, 0, 73, 58
1, 96909, Note_on_c, 0, 73, 0
1, 96925, Note_on_c, 0, 75, 67
1, 96969, Note_on_c, 0, 75, 0
1, 97009, Note_on_c, 0, 77, 75
1, 97089, Note_on_c, 0, 77, 0
1, 97097, Note_on_c, 0, 79, 60
1, 97125, Note_on_c, 0, 79, 0
1, 97165, Note_on_c, 0, 81, 66
1, 97193, Note_on_c, 0, 81, 0
1, 97245, Note_on_c, 0, 83, 63
1, 97313, Note_on_c, 0, 83, 0
1, 97317, Note_on_c, 0, 85, 68
1, 97393, Note_on_c, 0, 85, 0
1, 97405, Note_on_c, 0, 87, 66
1, 97433, Note_on_c, 0, 87, 0
1, 97481, Note_on_c, 0, 89, 66
1, 97565, Note_on_c, 0, 89, 0
1, 97585, Note_on_c, 0, 91, 66
1, 97645, Note_on_c, 0, 91, 0
1, 97673, Note_on_c, 0, 93, 48
1, 97697, Note_on_c, 0, 93, 0
1, 97785, Note_on_c, 0, 95, 46
1, 97829, Note_on_c, 0, 95, 0
1, 97905, Note_on_c, 0, 97, 51
1, 97993, Note_on_c, 0, 97, 0
1, 98033, Note_on_c, 0, 99, 63
1, 98085, Note_on_c, 0, 59, 0
1, 98145, Note_on_c, 0, 99, 0
1, 98177, Note_on_c, 0, 101, 70
1, 98337, Note_on_c, 0, 101, 0
1, 98353, Note_on_c, 0, 98, 62
1, 98497, Note_on_c, 0, 98, 0
1, 98509, Note_on_c, 0, 99, 61
1, 98629, Note_on_c, 0, 99, 0
1, 98677, Note_on_c, 0, 100, 69
1, 98805, Note_on_c, 0, 100, 0
1, 98849, Note_on_c, 0, 101, 61
1, 98989, Note_on_c, 0, 101, 0
1, 99053, Note_on_c, 0, 103, 52
1, 99081, Control_c, 0, 64, 0
1, 99085, Note_on_c, 0, 31, 46
1, 99141, Control_c, 0, 64, 127
1, 99201, Note_on_c, 0, 31, 0
1, 99201, Note_on_c, 0, 103, 0
1, 99537, Note_on_c, 0, 59, 27
1, 99869, Note_on_c, 0, 59, 0
1, 99869, Note_on_c, 0, 75, 51
1, 99869, Note_on_c, 0, 79, 52
1, 99877, Note_on_c, 0, 71, 39
1, 99893, Note_on_c, 0, 62, 43
1, 100109, Note_on_c, 0, 71, 0
1, 100129, Note_on_c, 0, 79, 0
1, 100141, Note_on_c, 0, 75, 0
1, 100309, Note_on_c, 0, 62, 0
1, 101049, Note_on_c, 0, 68, 55
1, 101061, Note_on_c, 0, 74, 55
1, 101069, Note_on_c, 0, 83, 47
1, 101069, Note_on_c, 0, 80, 46
1, 101105, Note_on_c, 0, 74, 0
1, 101137, Note_on_c, 0, 80, 0
1, 101145, Note_on_c, 0, 83, 0
1, 101357, Note_on_c, 0, 86, 66
1, 101365, Note_on_c, 0, 80, 60
1, 101369, Note_on_c, 0, 68, 0
1, 101369, Note_on_c, 0, 71, 56
1, 101369, Note_on_c, 0, 77, 52
1, 101401, Note_on_c, 0, 77, 0
1, 101429, Note_on_c, 0, 86, 0
1, 101437, Note_on_c, 0, 80, 0
1, 101525, Note_on_c, 0, 71, 0
1, 101701, Note_on_c, 0, 89, 75
1, 101705, Note_on_c, 0, 67, 56
1, 101705, Note_on_c, 0, 80, 57
1, 101761, Note_on_c, 0, 67, 0
1, 101793, Note_on_c, 0, 89, 0
1, 101817, Note_on_c, 0, 80, 0
1, 102237, Note_on_c, 0, 86, 71
1, 102261, Note_on_c, 0, 62, 48
1, 102297, Note_on_c, 0, 74, 17
1, 102445, Note_on_c, 0, 74, 0
1, 102489, Note_on_c, 0, 86, 0
1, 102597, Note_on_c, 0, 62, 0
1, 102653, Note_on_c, 0, 74, 42
1, 102673, Note_on_c, 0, 55, 36
1, 102785, Note_on_c, 0, 74, 0
1, 103013, Note_on_c, 0, 55, 0
1, 103073, Note_on_c, 0, 89, 63
1, 103181, Note_on_c, 0, 89, 0
1, 103481, Control_c, 0, 64, 88
1, 103485, Control_c, 0, 64, 0
1, 103489, Note_on_c, 0, 87, 54
1, 103509, Note_on_c, 0, 48, 46
1, 103537, Control_c, 0, 64, 127
1, 103557, Note_on_c, 0, 87, 0
1, 103601, Note_on_c, 0, 48, 0
1, 103797, Note_on_c, 0, 55, 31
1, 103849, Note_on_c, 0, 62, 57
1, 103893, Note_on_c, 0, 62, 0
1, 103993, Note_on_c, 0, 63, 31
1, 104009, Note_on_c, 0, 55, 0
1, 104049, Note_on_c, 0, 63, 0
1, 104093, Note_on_c, 0, 67, 32
1, 104153, Note_on_c, 0, 67, 0
1, 104233, Note_on_c, 0, 77, 79
1, 104641, Note_on_c, 0, 77, 0
1, 104641, Note_on_c, 0, 70, 56
1, 104653, Note_on_c, 0, 74, 60
1, 104657, Note_on_c, 0, 67, 39
1, 104665, Note_on_c, 0, 63, 36
1, 104673, Note_on_c, 0, 65, 33
1, 104853, Note_on_c, 0, 65, 0
1, 104861, Note_on_c, 0, 67, 0
1, 104881, Note_on_c, 0, 74, 0
1, 104885, Note_on_c, 0, 70, 0
1, 104889, Note_on_c, 0, 77, 68
1, 104913, Note_on_c, 0, 63, 0
1, 105053, Note_on_c, 0, 77, 0
1, 105081, Control_c, 0, 64, 0
1, 105093, Note_on_c, 0, 69, 52
1, 105105, Note_on_c, 0, 73, 45
1, 105105, Note_on_c, 0, 66, 33
1, 105109, Note_on_c, 0, 64, 36
1, 105117, Note_on_c, 0, 62, 39
1, 105133, Control_c, 0, 64, 127
1, 105221, Note_on_c, 0, 64, 0
1, 105225, Note_on_c, 0, 69, 0
1, 105229, Note_on_c, 0, 62, 0
1, 105249, Note_on_c, 0, 77, 50
1, 105257, Note_on_c, 0, 66, 0
1, 105293, Note_on_c, 0, 77, 0
1, 105349, Note_on_c, 0, 73, 0
1, 105357, Control_c, 0, 64, 0
1, 105377, Note_on_c, 0, 65, 50
1, 105401, Note_on_c, 0, 72, 40
1, 105401, Note_on_c, 0, 63, 41
1, 105401, Note_on_c, 0, 61, 39
1, 105405, Control_c, 0, 64, 127
1, 105421, Note_on_c, 0, 68, 31
1, 105481, Note_on_c, 0, 65, 0
1, 105529, Note_on_c, 0, 72, 0
1, 105537, Note_on_c, 0, 68, 0
1, 105557, Note_on_c, 0, 63, 0
1, 105561, Note_on_c, 0, 61, 0
1, 105745, Note_on_c, 0, 64, 46
1, 105753, Note_on_c, 0, 67, 43
1, 105753, Note_on_c, 0, 71, 49
1, 105761, Control_c, 0, 64, 72
1, 105765, Control_c, 0, 64, 0
1, 105773, Note_on_c, 0, 62, 40
1, 105781, Note_on_c, 0, 60, 34
1, 105825, Control_c, 0, 64, 127
1, 105833, Note_on_c, 0, 64, 0
1, 105837, Note_on_c, 0, 62, 0
1, 105849, Note_on_c, 0, 60, 0
1, 105861, Note_on_c, 0, 67, 0
1, 105921, Note_on_c, 0, 75, 36
1, 105941, Note_on_c, 0, 71, 0
1, 105989, Note_on_c, 0, 75, 0
1, 105989, Control_c, 0, 64, 0
1, 106029, Note_on_c, 0, 63, 33
1, 106041, Note_on_c, 0, 61, 41
1, 106049, Note_on_c, 0, 66, 39
1, 106053, Note_on_c, 0, 70, 46
1, 106053, Note_on_c, 0, 59, 41
1, 106069, Control_c, 0, 64, 127
1, 106137, Note_on_c, 0, 59, 0
1, 106161, Note_on_c, 0, 63, 0
1, 106161, Note_on_c, 0, 61, 0
1, 106177, Note_on_c, 0, 70, 0
1, 106197, Note_on_c, 0, 73, 50
1, 106237, Note_on_c, 0, 73, 0
1, 106285, Note_on_c, 0, 66, 0
1, 106309, Control_c, 0, 64, 0
1, 106361, Note_on_c, 0, 62, 41
1, 106365, Note_on_c, 0, 65, 49
1, 106373, Note_on_c, 0, 69, 54
1, 106373, Note_on_c, 0, 58, 39
1, 106401, Note_on_c, 0, 60, 49
1, 106413, Control_c, 0, 64, 127
1, 106629, Note_on_c, 0, 60, 0
1, 106633, Note_on_c, 0, 62, 0
1, 106673, Note_on_c, 0, 65, 0
1, 106673, Note_on_c, 0, 69, 0
1, 106697, Note_on_c, 0, 58, 0
1, 106817, Note_on_c, 0, 68, 48
1, 106817, Note_on_c, 0, 64, 46
1, 106825, Note_on_c, 0, 61, 34
1, 106837, Note_on_c, 0, 59, 37
1, 106845, Note_on_c, 0, 57, 38
1, 106889, Note_on_c, 0, 64, 0
1, 106893, Note_on_c, 0, 61, 0
1, 106933, Note_on_c, 0, 59, 0
1, 106945, Note_on_c, 0, 57, 0
1, 106949, Note_on_c, 0, 68, 0
1, 106985, Note_on_c, 0, 71, 48
1, 107001, Note_on_c, 0, 61, 31
1, 107049, Note_on_c, 0, 61, 0
1, 107057, Note_on_c, 0, 71, 0
1, 107157, Control_c, 0, 64, 0
1, 107173, Note_on_c, 0, 63, 43
1, 107189, Note_on_c, 0, 67, 48
1, 107193, Note_on_c, 0, 60, 43
1, 107197, Note_on_c, 0, 70, 45
1, 107201, Note_on_c, 0, 56, 40
1, 107209, Note_on_c, 0, 58, 43
1, 107269, Control_c, 0, 64, 127
1, 107381, Note_on_c, 0, 60, 0
1, 107393, Note_on_c, 0, 58, 0
1, 107409, Note_on_c, 0, 56, 0
1, 107653, Note_on_c, 0, 67, 0
1, 107653, Note_on_c, 0, 41, 57
1, 107669, Note_on_c, 0, 70, 0
1, 107701, Note_on_c, 0, 63, 0
1, 107897, Note_on_c, 0, 41, 0
1, 107905, Note_on_c, 0, 48, 53
1, 108045, Note_on_c, 0, 51, 49
1, 108197, Note_on_c, 0, 55, 58
1, 108353, Note_on_c, 0, 56, 64
1, 108377, Note_on_c, 0, 55, 0
1, 108473, Note_on_c, 0, 51, 0
1, 108521, Note_on_c, 0, 58, 75
1, 108569, Note_on_c, 0, 56, 0
1, 108677, Note_on_c, 0, 58, 0
1, 108697, Note_on_c, 0, 60, 79
1, 108845, Note_on_c, 0, 60, 0
1, 108845, Note_on_c, 0, 48, 0
1, 108869, Note_on_c, 0, 62, 85
1, 109025, Note_on_c, 0, 62, 0
1, 109053, Note_on_c, 0, 63, 87
1, 109213, Note_on_c, 0, 63, 0
1, 109249, Note_on_c, 0, 65, 82
1, 109409, Note_on_c, 0, 65, 0
1, 109445, Note_on_c, 0, 67, 84
1, 109605, Note_on_c, 0, 67, 0
1, 109653, Note_on_c, 0, 68, 84
1, 109853, Note_on_c, 0, 68, 0
1, 109877, Note_on_c, 0, 70, 78
1, 110089, Note_on_c, 0, 70, 0
1, 110173, Note_on_c, 0, 72, 68
1, 110177, Control_c, 0, 64, 0
1, 110181, Note_on_c, 0, 67, 60
1, 110185, Note_on_c, 0, 46, 49
1, 110189, Note_on_c, 0, 60, 59
1, 110197, Note_on_c, 0, 56, 45
1, 110297, Control_c, 0, 64, 72
1, 110297, Control_c, 0, 64, 127
1, 110349, Note_on_c, 0, 72, 0
1, 110373, Note_on_c, 0, 60, 0
1, 110413, Note_on_c, 0, 67, 0
1, 110457, Note_on_c, 0, 56, 0
1, 110465, Note_on_c, 0, 74, 73
1, 110481, Note_on_c, 0, 67, 37
1, 110501, Note_on_c, 0, 53, 41
1, 110573, Note_on_c, 0, 74, 0
1, 110601, Note_on_c, 0, 67, 0
1, 110757, Control_c, 0, 64, 0
1, 110793, Note_on_c, 0, 75, 63
1, 110805, Note_on_c, 0, 56, 36
1, 110809, Note_on_c, 0, 63, 41
1, 110833, Control_c, 0, 64, 127
1, 110897, Note_on_c, 0, 63, 0
1, 110897, Note_on_c, 0, 75, 0
1, 110917, Note_on_c, 0, 53, 0
1, 110949, Note_on_c, 0, 46, 0
1, 110997, Note_on_c, 0, 56, 0
1, 111093, Note_on_c, 0, 77, 64
1, 111105, Note_on_c, 0, 65, 45
1, 111125, Note_on_c, 0, 72, 48
1, 111165, Note_on_c, 0, 65, 0
1, 111177, Note_on_c, 0, 72, 0
1, 111177, Note_on_c, 0, 77, 0
1, 111445, Control_c, 0, 64, 0
1, 111457, Note_on_c, 0, 79, 49
1, 111461, Note_on_c, 0, 67, 41
1, 111461, Note_on_c, 0, 75, 49
1, 111469, Note_on_c, 0, 72, 48
1, 111481, Note_on_c, 0, 63, 37
1, 111485, Note_on_c, 0, 60, 39
1, 111513, Control_c, 0, 64, 127
1, 111537, Note_on_c, 0, 67, 0
1, 111541, Note_on_c, 0, 79, 0
1, 111629, Note_on_c, 0, 72, 0
1, 111661, Note_on_c, 0, 75, 0
1, 111737, Note_on_c, 0, 60, 0
1, 111829, Note_on_c, 0, 80, 52
1, 111841, Note_on_c, 0, 58, 33
1, 111845, Note_on_c, 0, 68, 31
1, 111849, Note_on_c, 0, 75, 38
1, 111853, Note_on_c, 0, 63, 0
1, 111881, Note_on_c, 0, 58, 0
1, 111909, Note_on_c, 0, 68, 0
1, 111917, Note_on_c, 0, 75, 0
1, 111953, Note_on_c, 0, 80, 0
1, 112345, Note_on_c, 0, 82, 48
1, 112353, Note_on_c, 0, 70, 33
1, 112365, Note_on_c, 0, 56, 38
1, 112365, Control_c, 0, 64, 0
1, 112369, Note_on_c, 0, 73, 41
1, 112369, Note_on_c, 0, 46, 38
1, 112397, Note_on_c, 0, 77, 37
1, 112465, Control_c, 0, 64, 127
1, 112753, Note_on_c, 0, 77, 0
1, 112769, Note_on_c, 0, 73, 0
1, 112833, Note_on_c, 0, 70, 0
1, 113133, Note_on_c, 0, 56, 0
1, 113169, Note_on_c, 0, 82, 0
1, 113429, Note_on_c, 0, 46, 0
1, 113573, Note_on_c, 0, 71, 38
1, 113581, Note_on_c, 0, 83, 32
1, 113589, Note_on_c, 0, 46, 32
1, 113589, Note_on_c, 0, 75, 41
1, 113593, Note_on_c, 0, 56, 34
1, 113597, Control_c, 0, 64, 0
1, 113601, Note_on_c, 0, 78, 39
1, 113677, Control_c, 0, 64, 127
1, 113841, Note_on_c, 0, 56, 0
1, 113937, Note_on_c, 0, 46, 0
1, 114197, Note_on_c, 0, 83, 0
1, 114233, Note_on_c, 0, 71, 0
1, 114313, Note_on_c, 0, 78, 0
1, 114369, Note_on_c, 0, 75, 0
1, 114637, Control_c, 0, 64, 0
1, 114649, Note_on_c, 0, 82, 52
1, 114653, Note_on_c, 0, 70, 40
1, 114665, Note_on_c, 0, 27, 43
1, 114673, Note_on_c, 0, 74, 47
1, 114673, Note_on_c, 0, 39, 31
1, 114713, Control_c, 0, 64, 127
1, 114773, Note_on_c, 0, 27, 0
1, 114817, Note_on_c, 0, 39, 0
1, 114949, Note_on_c, 0, 82, 0
1, 114973, Note_on_c, 0, 74, 0
1, 115017, Note_on_c, 0, 70, 0
1, 115193, Note_on_c, 0, 51, 48
1, 115389, Note_on_c, 0, 51, 0
1, 115397, Note_on_c, 0, 58, 47
1, 115557, Note_on_c, 0, 62, 51
1, 115693, Note_on_c, 0, 65, 56
1, 115769, Note_on_c, 0, 65, 0
1, 115825, Note_on_c, 0, 67, 57
1, 115913, Note_on_c, 0, 67, 0
1, 115953, Note_on_c, 0, 70, 60
1, 116025, Note_on_c, 0, 70, 0
1, 116085, Note_on_c, 0, 72, 56
1, 116157, Note_on_c, 0, 72, 0
1, 116197, Note_on_c, 0, 74, 61
1, 116225, Note_on_c, 0, 74, 0
1, 116325, Note_on_c, 0, 77, 61
1, 116401, Note_on_c, 0, 77, 0
1, 116453, Note_on_c, 0, 79, 58
1, 116521, Note_on_c, 0, 79, 0
1, 116577, Note_on_c, 0, 86, 74
1, 116681, Note_on_c, 0, 86, 0
1, 116717, Note_on_c, 0, 81, 54
1, 116797, Note_on_c, 0, 81, 0
1, 116845, Note_on_c, 0, 82, 57
1, 116897, Note_on_c, 0, 82, 0
1, 116969, Note_on_c, 0, 86, 66
1, 117045, Note_on_c, 0, 86, 0
1, 117109, Note_on_c, 0, 89, 54
1, 117213, Note_on_c, 0, 89, 0
1, 117217, Note_on_c, 0, 93, 69
1, 117301, Note_on_c, 0, 93, 0
1, 117349, Note_on_c, 0, 96, 76
1, 117453, Note_on_c, 0, 96, 0
1, 117477, Note_on_c, 0, 93, 72
1, 117541, Note_on_c, 0, 93, 0
1, 117613, Note_on_c, 0, 94, 63
1, 117661, Note_on_c, 0, 94, 0
1, 117753, Note_on_c, 0, 98, 72
1, 117837, Note_on_c, 0, 98, 0
1, 117905, Note_on_c, 0, 62, 0
1, 117905, Note_on_c, 0, 101, 48
1, 117985, Note_on_c, 0, 58, 0
1, 118005, Note_on_c, 0, 101, 0
1, 118053, Note_on_c, 0, 105, 58
1, 118129, Note_on_c, 0, 105, 0
1, 118197, Note_on_c, 0, 106, 66
1, 118357, Note_on_c, 0, 106, 0
1, 118369, Note_on_c, 0, 107, 71
1, 118505, Note_on_c, 0, 107, 0
1, 118569, Note_on_c, 0, 108, 58
1, 118749, Note_on_c, 0, 108, 0
1, 118861, Note_on_c, 0, 108, 60
1, 118997, Note_on_c, 0, 108, 0
1, 119149, Note_on_c, 0, 108, 59
1, 119173, Note_on_c, 0, 27, 42
1, 119325, Note_on_c, 0, 27, 0
1, 119405, Note_on_c, 0, 108, 0
1, 119609, Note_on_c, 0, 108, 42
1, 119633, Note_on_c, 0, 27, 31
1, 119785, Note_on_c, 0, 27, 0
1, 119793, Note_on_c, 0, 108, 0
1, 120081, Note_on_c, 0, 108, 46
1, 120097, Note_on_c, 0, 27, 38
1, 120345, Note_on_c, 0, 108, 0
1, 120377, Note_on_c, 0, 27, 0
1, 121485, Control_c, 0, 64, 0
1, 121485, End_track
0, 0, End_of_file
