0, 0, Header, 1, 4, 120
1, 0, Start_track
1, 0, Title_t, "Close Your Eyes"
1, 0, Title_t, "Sequence by dougmck@pipeline.com.au"
1, 0, MIDI_port, 0
1, 0, System_exclusive, 5, 126, 127, 9, 1, 247
1, 0, MIDI_port, 0
1, 0, Time_signature, 4, 2, 24, 8
1, 0, Key_signature, -3, "major"
1, 0, Tempo, 375000
1, 480, Marker_t, "Close Your Eyes sequence by dougmck@pipeline.com.au"
1, 480, End_track
2, 0, Start_track
2, 0, MIDI_port, 0
2, 0, Title_t, ""
2, 122, Program_c, 0, 0
2, 123, Control_c, 0, 7, 100
2, 1197, Note_on_c, 0, 104, 55
2, 1201, Note_on_c, 0, 96, 44
2, 1201, Note_on_c, 0, 87, 60
2, 1240, Note_on_c, 0, 96, 0
2, 1244, Note_on_c, 0, 104, 0
2, 1250, Note_on_c, 0, 87, 0
2, 1406, Note_on_c, 0, 104, 62
2, 1411, Note_on_c, 0, 87, 60
2, 1413, Note_on_c, 0, 96, 57
2, 1446, Note_on_c, 0, 104, 0
2, 1458, Note_on_c, 0, 96, 0
2, 1463, Note_on_c, 0, 87, 0
2, 2054, Note_on_c, 0, 95, 64
2, 2057, Note_on_c, 0, 83, 38
2, 2145, Note_on_c, 0, 95, 0
2, 2160, Note_on_c, 0, 83, 0
2, 2176, Note_on_c, 0, 94, 55
2, 2180, Note_on_c, 0, 82, 28
2, 2215, Note_on_c, 0, 94, 0
2, 2228, Note_on_c, 0, 82, 0
2, 2250, Note_on_c, 0, 80, 23
2, 2253, Note_on_c, 0, 92, 40
2, 2268, Note_on_c, 0, 80, 0
2, 2291, Note_on_c, 0, 92, 0
2, 2292, Note_on_c, 0, 89, 47
2, 2353, Note_on_c, 0, 89, 0
2, 2365, Note_on_c, 0, 75, 25
2, 2368, Note_on_c, 0, 87, 47
2, 2395, Note_on_c, 0, 87, 0
2, 2398, Note_on_c, 0, 75, 0
2, 2414, Note_on_c, 0, 77, 32
2, 2416, Note_on_c, 0, 89, 47
2, 2469, Note_on_c, 0, 89, 0
2, 2472, Note_on_c, 0, 77, 0
2, 2490, Note_on_c, 0, 89, 52
2, 2499, Note_on_c, 0, 77, 32
2, 2504, Note_on_c, 0, 89, 0
2, 2515, Note_on_c, 0, 77, 0
2, 3601, Note_on_c, 0, 92, 59
2, 3603, Note_on_c, 0, 84, 49
2, 3607, Note_on_c, 0, 75, 33
2, 3648, Note_on_c, 0, 92, 0
2, 3654, Note_on_c, 0, 84, 0
2, 3665, Note_on_c, 0, 75, 0
2, 3679, Note_on_c, 0, 92, 45
2, 3680, Note_on_c, 0, 75, 31
2, 3683, Note_on_c, 0, 84, 48
2, 3697, Note_on_c, 0, 84, 0
2, 3706, Note_on_c, 0, 92, 0
2, 3710, Note_on_c, 0, 75, 0
2, 3844, Note_on_c, 0, 75, 48
2, 3852, Note_on_c, 0, 92, 59
2, 3853, Note_on_c, 0, 84, 57
2, 3895, Note_on_c, 0, 84, 0
2, 3897, Note_on_c, 0, 92, 0
2, 3901, Note_on_c, 0, 75, 0
2, 4038, Note_on_c, 0, 92, 45
2, 4042, Note_on_c, 0, 84, 40
2, 4043, Note_on_c, 0, 75, 48
2, 4086, Note_on_c, 0, 75, 0
2, 4088, Note_on_c, 0, 84, 0
2, 4088, Note_on_c, 0, 92, 0
2, 4198, Note_on_c, 0, 92, 57
2, 4199, Note_on_c, 0, 75, 53
2, 4199, Note_on_c, 0, 84, 54
2, 4263, Note_on_c, 0, 84, 0
2, 4267, Note_on_c, 0, 92, 0
2, 4281, Note_on_c, 0, 75, 0
2, 4802, Note_on_c, 0, 97, 57
2, 4805, Note_on_c, 0, 74, 31
2, 4822, Note_on_c, 0, 97, 0
2, 4827, Note_on_c, 0, 98, 50
2, 4836, Note_on_c, 0, 74, 0
2, 4869, Note_on_c, 0, 98, 0
2, 4885, Note_on_c, 0, 77, 50
2, 4886, Note_on_c, 0, 101, 80
2, 4996, Note_on_c, 0, 101, 0
2, 5019, Note_on_c, 0, 77, 0
2, 5052, Note_on_c, 0, 98, 62
2, 5059, Note_on_c, 0, 74, 44
2, 5099, Note_on_c, 0, 98, 0
2, 5122, Note_on_c, 0, 74, 0
2, 5134, Note_on_c, 0, 89, 56
2, 5142, Note_on_c, 0, 65, 35
2, 5194, Note_on_c, 0, 89, 0
2, 5195, Note_on_c, 0, 65, 0
2, 5849, Note_on_c, 0, 75, 19
2, 5863, Note_on_c, 0, 75, 0
2, 5878, Note_on_c, 0, 92, 59
2, 5883, Note_on_c, 0, 84, 45
2, 5900, Note_on_c, 0, 75, 21
2, 5918, Note_on_c, 0, 75, 0
2, 5930, Note_on_c, 0, 92, 0
2, 5933, Note_on_c, 0, 84, 0
2, 6009, Note_on_c, 0, 92, 50
2, 6015, Note_on_c, 0, 84, 38
2, 6020, Note_on_c, 0, 75, 28
2, 6049, Note_on_c, 0, 92, 0
2, 6050, Note_on_c, 0, 75, 0
2, 6057, Note_on_c, 0, 84, 0
2, 6085, Note_on_c, 0, 92, 44
2, 6092, Note_on_c, 0, 75, 31
2, 6092, Note_on_c, 0, 84, 37
2, 6105, Note_on_c, 0, 84, 0
2, 6136, Note_on_c, 0, 92, 0
2, 6142, Note_on_c, 0, 75, 0
2, 7868, Note_on_c, 0, 58, 31
2, 7903, Note_on_c, 0, 58, 0
2, 7907, Note_on_c, 0, 84, 70
2, 7909, Note_on_c, 0, 60, 71
2, 7942, Note_on_c, 0, 60, 0
2, 7943, Note_on_c, 0, 84, 0
2, 8024, Note_on_c, 0, 56, 32
2, 8031, Note_on_c, 0, 79, 59
2, 8033, Note_on_c, 0, 55, 45
2, 8035, Note_on_c, 0, 56, 0
2, 8042, Note_on_c, 0, 55, 0
2, 8056, Note_on_c, 0, 79, 0
2, 8153, Note_on_c, 0, 82, 59
2, 8156, Note_on_c, 0, 70, 46
2, 8160, Note_on_c, 0, 59, 32
2, 8161, Note_on_c, 0, 63, 36
2, 8163, Note_on_c, 0, 53, 40
2, 8252, Control_c, 0, 64, 127
2, 8300, Note_on_c, 0, 59, 0
2, 8304, Note_on_c, 0, 63, 0
2, 8306, Note_on_c, 0, 53, 0
2, 8306, Note_on_c, 0, 82, 0
2, 8314, Note_on_c, 0, 70, 0
2, 8402, Control_c, 0, 64, 0
2, 8404, Note_on_c, 0, 63, 67
2, 8406, Note_on_c, 0, 68, 60
2, 8419, Note_on_c, 0, 59, 19
2, 8521, Note_on_c, 0, 68, 0
2, 8524, Control_c, 0, 64, 127
2, 8525, Note_on_c, 0, 59, 0
2, 8553, Note_on_c, 0, 63, 0
2, 8600, Control_c, 0, 64, 0
2, 8603, Note_on_c, 0, 58, 46
2, 8605, Note_on_c, 0, 67, 43
2, 8608, Note_on_c, 0, 64, 48
2, 8609, Note_on_c, 0, 55, 46
2, 8611, Note_on_c, 0, 48, 33
2, 8617, Note_on_c, 0, 58, 0
2, 8618, Note_on_c, 0, 64, 0
2, 8623, Note_on_c, 0, 55, 0
2, 8625, Note_on_c, 0, 48, 0
2, 8625, Note_on_c, 0, 67, 0
2, 8758, Control_c, 0, 64, 127
2, 8778, Control_c, 0, 64, 0
2, 8838, Note_on_c, 0, 84, 87
2, 8839, Note_on_c, 0, 78, 82
2, 8840, Note_on_c, 0, 72, 78
2, 8841, Note_on_c, 0, 58, 77
2, 8843, Note_on_c, 0, 64, 75
2, 8844, Note_on_c, 0, 69, 80
2, 8852, Note_on_c, 0, 67, 34
2, 8861, Note_on_c, 0, 67, 0
2, 8863, Note_on_c, 0, 69, 0
2, 8865, Note_on_c, 0, 72, 0
2, 8878, Note_on_c, 0, 78, 0
2, 8879, Note_on_c, 0, 58, 0
2, 8881, Note_on_c, 0, 64, 0
2, 8885, Note_on_c, 0, 84, 0
2, 8963, Note_on_c, 0, 79, 70
2, 8964, Note_on_c, 0, 58, 58
2, 8964, Note_on_c, 0, 72, 64
2, 8964, Note_on_c, 0, 64, 63
2, 8966, Note_on_c, 0, 69, 65
2, 8973, Note_on_c, 0, 72, 0
2, 8974, Note_on_c, 0, 69, 0
2, 8983, Note_on_c, 0, 79, 0
2, 8986, Note_on_c, 0, 64, 0
2, 8991, Note_on_c, 0, 58, 0
2, 9084, Note_on_c, 0, 82, 81
2, 9084, Note_on_c, 0, 58, 60
2, 9084, Note_on_c, 0, 77, 74
2, 9084, Note_on_c, 0, 53, 66
2, 9084, Note_on_c, 0, 70, 84
2, 9086, Note_on_c, 0, 61, 71
2, 9088, Note_on_c, 0, 55, 57
2, 9099, Note_on_c, 0, 55, 0
2, 9109, Note_on_c, 0, 55, 20
2, 9122, Control_c, 0, 64, 127
2, 9163, Note_on_c, 0, 70, 0
2, 9165, Note_on_c, 0, 77, 0
2, 9176, Note_on_c, 0, 82, 0
2, 9177, Note_on_c, 0, 53, 0
2, 9182, Note_on_c, 0, 55, 0
2, 9182, Note_on_c, 0, 61, 0
2, 9191, Note_on_c, 0, 58, 0
2, 9206, Note_on_c, 0, 84, 65
2, 9208, Note_on_c, 0, 61, 56
2, 9208, Note_on_c, 0, 53, 53
2, 9209, Note_on_c, 0, 77, 60
2, 9210, Note_on_c, 0, 72, 50
2, 9211, Note_on_c, 0, 58, 60
2, 9211, Note_on_c, 0, 83, 55
2, 9218, Note_on_c, 0, 72, 0
2, 9218, Note_on_c, 0, 55, 26
2, 9220, Note_on_c, 0, 83, 0
2, 9226, Note_on_c, 0, 61, 0
2, 9226, Note_on_c, 0, 84, 0
2, 9226, Note_on_c, 0, 55, 0
2, 9231, Note_on_c, 0, 53, 0
2, 9232, Note_on_c, 0, 77, 0
2, 9235, Control_c, 0, 64, 0
2, 9237, Note_on_c, 0, 58, 0
2, 9246, Note_on_c, 0, 61, 35
2, 9248, Note_on_c, 0, 53, 33
2, 9249, Note_on_c, 0, 58, 21
2, 9250, Note_on_c, 0, 77, 26
2, 9256, Note_on_c, 0, 55, 33
2, 9259, Note_on_c, 0, 70, 15
2, 9274, Note_on_c, 0, 77, 0
2, 9281, Note_on_c, 0, 53, 0
2, 9298, Note_on_c, 0, 70, 0
2, 9299, Note_on_c, 0, 61, 0
2, 9303, Note_on_c, 0, 55, 0
2, 9313, Note_on_c, 0, 58, 0
2, 9360, Note_on_c, 0, 61, 51
2, 9364, Note_on_c, 0, 79, 42
2, 9364, Note_on_c, 0, 53, 48
2, 9364, Note_on_c, 0, 67, 41
2, 9366, Note_on_c, 0, 58, 38
2, 9384, Note_on_c, 0, 67, 0
2, 9390, Note_on_c, 0, 79, 0
2, 9390, Note_on_c, 0, 61, 0
2, 9391, Note_on_c, 0, 53, 0
2, 9397, Note_on_c, 0, 58, 0
2, 9448, Note_on_c, 0, 82, 62
2, 9457, Note_on_c, 0, 70, 32
2, 9459, Note_on_c, 0, 58, 29
2, 9465, Note_on_c, 0, 70, 0
2, 9469, Note_on_c, 0, 82, 0
2, 9470, Note_on_c, 0, 58, 0
2, 9486, Note_on_c, 0, 61, 44
2, 9488, Note_on_c, 0, 53, 1
2, 9494, Note_on_c, 0, 79, 53
2, 9500, Note_on_c, 0, 65, 41
2, 9503, Note_on_c, 0, 79, 0
2, 9512, Note_on_c, 0, 65, 0
2, 9537, Note_on_c, 0, 53, 0
2, 9545, Note_on_c, 0, 61, 0
2, 9599, Note_on_c, 0, 76, 35
2, 9602, Note_on_c, 0, 68, 40
2, 9602, Note_on_c, 0, 64, 44
2, 9606, Note_on_c, 0, 60, 50
2, 9607, Note_on_c, 0, 58, 34
2, 9610, Note_on_c, 0, 72, 36
2, 9616, Note_on_c, 0, 52, 24
2, 9621, Note_on_c, 0, 72, 0
2, 9622, Note_on_c, 0, 64, 0
2, 9627, Note_on_c, 0, 68, 0
2, 9628, Note_on_c, 0, 52, 0
2, 9629, Note_on_c, 0, 60, 0
2, 9630, Note_on_c, 0, 76, 0
2, 9641, Note_on_c, 0, 58, 0
2, 9715, Control_c, 0, 64, 127
2, 9822, Note_on_c, 0, 63, 26
2, 9833, Control_c, 0, 64, 0
2, 9834, Note_on_c, 0, 63, 0
2, 9836, Note_on_c, 0, 80, 83
2, 9839, Note_on_c, 0, 70, 93
2, 9840, Note_on_c, 0, 73, 81
2, 9840, Note_on_c, 0, 64, 79
2, 9842, Note_on_c, 0, 77, 37
2, 9843, Note_on_c, 0, 76, 66
2, 9852, Note_on_c, 0, 77, 0
2, 9903, Note_on_c, 0, 76, 0
2, 9908, Note_on_c, 0, 73, 0
2, 9908, Note_on_c, 0, 70, 0
2, 9923, Note_on_c, 0, 80, 0
2, 9932, Note_on_c, 0, 64, 0
2, 9959, Note_on_c, 0, 70, 38
2, 9960, Note_on_c, 0, 61, 44
2, 9960, Control_c, 0, 64, 127
2, 9960, Note_on_c, 0, 76, 34
2, 9961, Note_on_c, 0, 73, 37
2, 9995, Note_on_c, 0, 76, 0
2, 10001, Note_on_c, 0, 61, 0
2, 10002, Note_on_c, 0, 70, 0
2, 10011, Note_on_c, 0, 73, 0
2, 10043, Note_on_c, 0, 68, 62
2, 10044, Control_c, 0, 64, 0
2, 10044, Note_on_c, 0, 77, 40
2, 10045, Note_on_c, 0, 56, 36
2, 10049, Note_on_c, 0, 72, 37
2, 10050, Note_on_c, 0, 60, 49
2, 10057, Note_on_c, 0, 53, 30
2, 10059, Note_on_c, 0, 72, 0
2, 10061, Note_on_c, 0, 68, 0
2, 10067, Note_on_c, 0, 60, 0
2, 10068, Note_on_c, 0, 77, 0
2, 10072, Note_on_c, 0, 53, 0
2, 10074, Note_on_c, 0, 56, 0
2, 10196, Control_c, 0, 64, 127
2, 10316, Control_c, 0, 64, 0
2, 10320, Note_on_c, 0, 101, 70
2, 10323, Note_on_c, 0, 65, 60
2, 10324, Note_on_c, 0, 89, 50
2, 10326, Note_on_c, 0, 60, 54
2, 10326, Note_on_c, 0, 58, 37
2, 10329, Note_on_c, 0, 54, 47
2, 10437, Control_c, 0, 64, 127
2, 10459, Note_on_c, 0, 101, 0
2, 10473, Note_on_c, 0, 60, 0
2, 10473, Note_on_c, 0, 89, 0
2, 10495, Note_on_c, 0, 65, 0
2, 10536, Note_on_c, 0, 58, 0
2, 10537, Note_on_c, 0, 54, 0
2, 10558, Control_c, 0, 64, 0
2, 10559, Note_on_c, 0, 85, 38
2, 10561, Note_on_c, 0, 97, 36
2, 10561, Note_on_c, 0, 64, 28
2, 10561, Note_on_c, 0, 59, 40
2, 10563, Note_on_c, 0, 53, 34
2, 10681, Control_c, 0, 64, 127
2, 10699, Note_on_c, 0, 97, 0
2, 10703, Note_on_c, 0, 59, 0
2, 10706, Note_on_c, 0, 85, 0
2, 10706, Note_on_c, 0, 64, 0
2, 10710, Note_on_c, 0, 53, 0
2, 10797, Control_c, 0, 64, 0
2, 10802, Note_on_c, 0, 63, 46
2, 10805, Note_on_c, 0, 58, 38
2, 10811, Note_on_c, 0, 52, 36
2, 10888, Note_on_c, 0, 65, 62
2, 10899, Note_on_c, 0, 65, 0
2, 10930, Note_on_c, 0, 67, 48
2, 10942, Note_on_c, 0, 67, 0
2, 10957, Note_on_c, 0, 63, 0
2, 10959, Note_on_c, 0, 52, 0
2, 10970, Note_on_c, 0, 68, 78
2, 10976, Note_on_c, 0, 58, 0
2, 10987, Note_on_c, 0, 68, 0
2, 11003, Note_on_c, 0, 70, 87
2, 11031, Note_on_c, 0, 70, 0
2, 11045, Note_on_c, 0, 56, 49
2, 11046, Note_on_c, 0, 60, 58
2, 11047, Note_on_c, 0, 72, 82
2, 11047, Note_on_c, 0, 53, 51
2, 11167, Control_c, 0, 64, 127
2, 11269, Note_on_c, 0, 72, 0
2, 11352, Note_on_c, 0, 53, 0
2, 11354, Note_on_c, 0, 60, 0
2, 11359, Note_on_c, 0, 72, 54
2, 11370, Note_on_c, 0, 56, 0
2, 11373, Note_on_c, 0, 72, 0
2, 11378, Control_c, 0, 64, 0
2, 11395, Note_on_c, 0, 76, 47
2, 11421, Note_on_c, 0, 76, 0
2, 11437, Note_on_c, 0, 84, 62
2, 11439, Note_on_c, 0, 83, 48
2, 11448, Note_on_c, 0, 83, 0
2, 11449, Note_on_c, 0, 84, 0
2, 11483, Note_on_c, 0, 88, 43
2, 11488, Control_c, 0, 64, 127
2, 11493, Note_on_c, 0, 88, 0
2, 11508, Control_c, 0, 64, 0
2, 11525, Note_on_c, 0, 91, 63
2, 11541, Note_on_c, 0, 91, 0
2, 11566, Note_on_c, 0, 96, 87
2, 11567, Note_on_c, 0, 84, 71
2, 11568, Note_on_c, 0, 67, 47
2, 11569, Note_on_c, 0, 64, 47
2, 11572, Note_on_c, 0, 98, 31
2, 11572, Note_on_c, 0, 56, 37
2, 11572, Note_on_c, 0, 60, 58
2, 11575, Note_on_c, 0, 86, 35
2, 11581, Note_on_c, 0, 98, 0
2, 11585, Note_on_c, 0, 86, 0
2, 11620, Note_on_c, 0, 67, 0
2, 11620, Note_on_c, 0, 60, 0
2, 11622, Note_on_c, 0, 56, 0
2, 11624, Note_on_c, 0, 84, 0
2, 11625, Note_on_c, 0, 96, 0
2, 11626, Note_on_c, 0, 64, 0
2, 11646, Note_on_c, 0, 56, 52
2, 11647, Note_on_c, 0, 67, 60
2, 11647, Note_on_c, 0, 64, 74
2, 11649, Note_on_c, 0, 96, 79
2, 11650, Note_on_c, 0, 60, 66
2, 11651, Note_on_c, 0, 84, 76
2, 11771, Control_c, 0, 64, 127
2, 11812, Note_on_c, 0, 96, 0
2, 11846, Note_on_c, 0, 96, 95
2, 11848, Control_c, 0, 64, 0
2, 11869, Note_on_c, 0, 67, 0
2, 11873, Note_on_c, 0, 84, 0
2, 11874, Note_on_c, 0, 60, 0
2, 11875, Note_on_c, 0, 64, 0
2, 11890, Note_on_c, 0, 56, 0
2, 11893, Note_on_c, 0, 91, 51
2, 11918, Note_on_c, 0, 96, 0
2, 11942, Note_on_c, 0, 91, 0
2, 11995, Note_on_c, 0, 94, 64
2, 11996, Note_on_c, 0, 82, 51
2, 12030, Note_on_c, 0, 94, 0
2, 12047, Note_on_c, 0, 82, 0
2, 12207, Note_on_c, 0, 54, 35
2, 12225, Note_on_c, 0, 70, 55
2, 12225, Note_on_c, 0, 61, 44
2, 12228, Note_on_c, 0, 65, 52
2, 12233, Note_on_c, 0, 55, 40
2, 12256, Note_on_c, 0, 54, 0
2, 12330, Note_on_c, 0, 55, 0
2, 12341, Note_on_c, 0, 65, 0
2, 12344, Control_c, 0, 64, 127
2, 12354, Note_on_c, 0, 70, 0
2, 12383, Note_on_c, 0, 61, 0
2, 12416, Control_c, 0, 64, 0
2, 12430, Note_on_c, 0, 68, 45
2, 12431, Note_on_c, 0, 47, 30
2, 12432, Note_on_c, 0, 61, 45
2, 12432, Note_on_c, 0, 58, 33
2, 12437, Note_on_c, 0, 48, 42
2, 12440, Note_on_c, 0, 64, 39
2, 12445, Note_on_c, 0, 47, 0
2, 12450, Note_on_c, 0, 58, 0
2, 12453, Note_on_c, 0, 64, 0
2, 12454, Note_on_c, 0, 61, 0
2, 12458, Note_on_c, 0, 48, 0
2, 12467, Note_on_c, 0, 68, 0
2, 12551, Note_on_c, 0, 24, 71
2, 12553, Note_on_c, 0, 36, 50
2, 12557, Note_on_c, 0, 35, 47
2, 12569, Note_on_c, 0, 35, 0
2, 12709, Note_on_c, 0, 31, 33
2, 12714, Note_on_c, 0, 24, 0
2, 12722, Note_on_c, 0, 31, 0
2, 12727, Note_on_c, 0, 72, 110
2, 12729, Note_on_c, 0, 36, 0
2, 12777, Note_on_c, 0, 72, 0
2, 12839, Note_on_c, 0, 67, 77
2, 12865, Note_on_c, 0, 67, 0
2, 12955, Note_on_c, 0, 70, 70
2, 12955, Note_on_c, 0, 61, 70
2, 12956, Note_on_c, 0, 65, 73
2, 12957, Note_on_c, 0, 55, 61
2, 12960, Control_c, 0, 64, 127
2, 13015, Note_on_c, 0, 70, 0
2, 13021, Note_on_c, 0, 61, 0
2, 13034, Note_on_c, 0, 72, 58
2, 13036, Note_on_c, 0, 55, 0
2, 13038, Note_on_c, 0, 56, 51
2, 13040, Control_c, 0, 64, 0
2, 13063, Note_on_c, 0, 72, 0
2, 13065, Note_on_c, 0, 65, 0
2, 13074, Note_on_c, 0, 56, 0
2, 13078, Note_on_c, 0, 70, 53
2, 13083, Note_on_c, 0, 55, 40
2, 13084, Note_on_c, 0, 65, 19
2, 13090, Note_on_c, 0, 61, 17
2, 13100, Note_on_c, 0, 65, 0
2, 13120, Control_c, 0, 64, 127
2, 13125, Note_on_c, 0, 61, 0
2, 13126, Note_on_c, 0, 70, 0
2, 13146, Control_c, 0, 64, 0
2, 13148, Note_on_c, 0, 55, 0
2, 13154, Note_on_c, 0, 61, 51
2, 13155, Note_on_c, 0, 67, 60
2, 13157, Note_on_c, 0, 52, 60
2, 13161, Note_on_c, 0, 64, 49
2, 13172, Note_on_c, 0, 64, 0
2, 13179, Note_on_c, 0, 61, 0
2, 13180, Note_on_c, 0, 52, 0
2, 13186, Note_on_c, 0, 67, 0
2, 13268, Note_on_c, 0, 70, 67
2, 13272, Note_on_c, 0, 55, 55
2, 13272, Note_on_c, 0, 61, 55
2, 13277, Note_on_c, 0, 64, 46
2, 13279, Note_on_c, 0, 67, 53
2, 13289, Note_on_c, 0, 64, 0
2, 13301, Note_on_c, 0, 55, 0
2, 13301, Note_on_c, 0, 70, 0
2, 13304, Note_on_c, 0, 67, 0
2, 13306, Note_on_c, 0, 61, 0
2, 13314, Note_on_c, 0, 52, 50
2, 13327, Control_c, 0, 64, 127
2, 13375, Note_on_c, 0, 52, 0
2, 13394, Control_c, 0, 64, 0
2, 13394, Note_on_c, 0, 64, 68
2, 13395, Note_on_c, 0, 61, 72
2, 13395, Note_on_c, 0, 58, 69
2, 13416, Note_on_c, 0, 58, 0
2, 13424, Note_on_c, 0, 61, 0
2, 13427, Note_on_c, 0, 64, 0
2, 13465, Control_c, 0, 64, 127
2, 13507, Note_on_c, 0, 36, 84
2, 13507, Control_c, 0, 64, 0
2, 13532, Note_on_c, 0, 36, 0
2, 13566, Control_c, 0, 64, 127
2, 13641, Note_on_c, 0, 58, 51
2, 13651, Note_on_c, 0, 58, 0
2, 13651, Control_c, 0, 64, 0
2, 13672, Note_on_c, 0, 80, 77
2, 13675, Note_on_c, 0, 58, 83
2, 13675, Note_on_c, 0, 68, 85
2, 13677, Note_on_c, 0, 64, 82
2, 13678, Note_on_c, 0, 73, 69
2, 13686, Note_on_c, 0, 73, 0
2, 13727, Note_on_c, 0, 68, 0
2, 13729, Note_on_c, 0, 58, 0
2, 13730, Note_on_c, 0, 64, 0
2, 13731, Note_on_c, 0, 80, 0
2, 13790, Note_on_c, 0, 58, 76
2, 13790, Note_on_c, 0, 80, 79
2, 13792, Note_on_c, 0, 64, 74
2, 13793, Note_on_c, 0, 68, 83
2, 13794, Note_on_c, 0, 73, 77
2, 13839, Note_on_c, 0, 64, 0
2, 13839, Control_c, 0, 64, 127
2, 13848, Note_on_c, 0, 80, 0
2, 13850, Note_on_c, 0, 68, 0
2, 13858, Note_on_c, 0, 58, 0
2, 13859, Note_on_c, 0, 73, 0
2, 13900, Control_c, 0, 64, 0
2, 13908, Note_on_c, 0, 77, 57
2, 13913, Note_on_c, 0, 72, 57
2, 13913, Note_on_c, 0, 63, 56
2, 13914, Note_on_c, 0, 68, 51
2, 13917, Note_on_c, 0, 56, 35
2, 13918, Note_on_c, 0, 60, 50
2, 13924, Note_on_c, 0, 53, 33
2, 13978, Note_on_c, 0, 68, 0
2, 13985, Note_on_c, 0, 60, 0
2, 13985, Note_on_c, 0, 72, 0
2, 13985, Note_on_c, 0, 53, 0
2, 13992, Note_on_c, 0, 77, 0
2, 13993, Note_on_c, 0, 56, 0
2, 13994, Note_on_c, 0, 63, 0
2, 14043, Control_c, 0, 64, 127
2, 14111, Note_on_c, 0, 89, 87
2, 14112, Note_on_c, 0, 82, 83
2, 14112, Note_on_c, 0, 65, 84
2, 14113, Note_on_c, 0, 58, 71
2, 14115, Note_on_c, 0, 77, 80
2, 14115, Note_on_c, 0, 54, 79
2, 14115, Note_on_c, 0, 60, 77
2, 14115, Control_c, 0, 64, 0
2, 14172, Control_c, 0, 64, 127
2, 14267, Note_on_c, 0, 77, 0
2, 14269, Note_on_c, 0, 82, 0
2, 14279, Note_on_c, 0, 89, 0
2, 14288, Note_on_c, 0, 65, 0
2, 14288, Note_on_c, 0, 60, 0
2, 14359, Note_on_c, 0, 54, 0
2, 14362, Note_on_c, 0, 58, 0
2, 14392, Control_c, 0, 64, 0
2, 14393, Note_on_c, 0, 94, 67
2, 14396, Note_on_c, 0, 64, 60
2, 14396, Note_on_c, 0, 59, 54
2, 14398, Note_on_c, 0, 82, 50
2, 14401, Note_on_c, 0, 87, 55
2, 14402, Note_on_c, 0, 91, 39
2, 14404, Note_on_c, 0, 53, 37
2, 14509, Control_c, 0, 64, 127
2, 14515, Note_on_c, 0, 91, 0
2, 14523, Note_on_c, 0, 53, 0
2, 14525, Note_on_c, 0, 64, 0
2, 14526, Note_on_c, 0, 94, 0
2, 14526, Note_on_c, 0, 87, 0
2, 14526, Note_on_c, 0, 59, 0
2, 14536, Note_on_c, 0, 82, 0
2, 14597, Note_on_c, 0, 63, 67
2, 14597, Note_on_c, 0, 58, 60
2, 14603, Note_on_c, 0, 52, 53
2, 14609, Control_c, 0, 64, 0
2, 14685, Note_on_c, 0, 77, 53
2, 14700, Note_on_c, 0, 77, 0
2, 14721, Note_on_c, 0, 79, 64
2, 14741, Note_on_c, 0, 79, 0
2, 14765, Note_on_c, 0, 80, 78
2, 14786, Note_on_c, 0, 80, 0
2, 14800, Note_on_c, 0, 52, 0
2, 14803, Note_on_c, 0, 82, 67
2, 14819, Note_on_c, 0, 58, 0
2, 14819, Note_on_c, 0, 63, 0
2, 14824, Note_on_c, 0, 82, 0
2, 14843, Note_on_c, 0, 83, 84
2, 14868, Note_on_c, 0, 83, 0
2, 14882, Note_on_c, 0, 60, 46
2, 14883, Note_on_c, 0, 53, 40
2, 14884, Note_on_c, 0, 84, 83
2, 14887, Note_on_c, 0, 57, 59
2, 14889, Note_on_c, 0, 64, 28
2, 14899, Note_on_c, 0, 64, 0
2, 14994, Note_on_c, 0, 60, 0
2, 14996, Control_c, 0, 64, 127
2, 15000, Note_on_c, 0, 57, 0
2, 15013, Note_on_c, 0, 53, 0
2, 15069, Note_on_c, 0, 48, 72
2, 15071, Note_on_c, 0, 47, 71
2, 15072, Note_on_c, 0, 84, 0
2, 15084, Control_c, 0, 64, 0
2, 15088, Note_on_c, 0, 47, 0
2, 15194, Note_on_c, 0, 48, 0
2, 15194, Note_on_c, 0, 36, 57
2, 15199, Note_on_c, 0, 38, 32
2, 15204, Note_on_c, 0, 36, 0
2, 15210, Note_on_c, 0, 38, 0
2, 15228, Note_on_c, 0, 67, 62
2, 15230, Note_on_c, 0, 62, 70
2, 15233, Note_on_c, 0, 57, 56
2, 15235, Note_on_c, 0, 52, 68
2, 15309, Note_on_c, 0, 67, 0
2, 15318, Note_on_c, 0, 57, 0
2, 15321, Note_on_c, 0, 62, 0
2, 15350, Note_on_c, 0, 66, 48
2, 15355, Note_on_c, 0, 56, 34
2, 15355, Note_on_c, 0, 61, 51
2, 15355, Note_on_c, 0, 51, 47
2, 15357, Note_on_c, 0, 52, 0
2, 15418, Note_on_c, 0, 61, 0
2, 15418, Note_on_c, 0, 66, 0
2, 15419, Note_on_c, 0, 56, 0
2, 15438, Note_on_c, 0, 67, 58
2, 15439, Note_on_c, 0, 57, 64
2, 15440, Note_on_c, 0, 51, 0
2, 15440, Note_on_c, 0, 62, 58
2, 15441, Note_on_c, 0, 52, 58
2, 15447, Note_on_c, 0, 57, 0
2, 15449, Note_on_c, 0, 62, 0
2, 15452, Note_on_c, 0, 52, 0
2, 15459, Note_on_c, 0, 67, 0
2, 15591, Note_on_c, 0, 77, 59
2, 15592, Note_on_c, 0, 79, 77
2, 15592, Note_on_c, 0, 76, 52
2, 15601, Note_on_c, 0, 76, 0
2, 15633, Note_on_c, 0, 79, 0
2, 15659, Note_on_c, 0, 77, 0
2, 15713, Note_on_c, 0, 72, 58
2, 15796, Note_on_c, 0, 72, 0
2, 15838, Note_on_c, 0, 75, 69
2, 15841, Note_on_c, 0, 66, 43
2, 15866, Note_on_c, 0, 66, 0
2, 16082, Note_on_c, 0, 63, 50
2, 16086, Note_on_c, 0, 53, 37
2, 16089, Note_on_c, 0, 58, 48
2, 16114, Note_on_c, 0, 53, 0
2, 16118, Note_on_c, 0, 63, 0
2, 16119, Note_on_c, 0, 58, 0
2, 16281, Note_on_c, 0, 62, 62
2, 16283, Note_on_c, 0, 51, 49
2, 16285, Note_on_c, 0, 57, 54
2, 16295, Note_on_c, 0, 57, 0
2, 16300, Note_on_c, 0, 62, 0
2, 16302, Note_on_c, 0, 75, 0
2, 16304, Note_on_c, 0, 51, 0
2, 16444, Note_on_c, 0, 77, 80
2, 16447, Note_on_c, 0, 89, 85
2, 16470, Note_on_c, 0, 77, 0
2, 16501, Note_on_c, 0, 77, 51
2, 16502, Note_on_c, 0, 89, 0
2, 16525, Note_on_c, 0, 89, 51
2, 16528, Note_on_c, 0, 77, 0
2, 16559, Note_on_c, 0, 89, 0
2, 16560, Note_on_c, 0, 77, 36
2, 16584, Note_on_c, 0, 89, 35
2, 16585, Note_on_c, 0, 77, 0
2, 16617, Note_on_c, 0, 89, 0
2, 16622, Note_on_c, 0, 77, 45
2, 16636, Note_on_c, 0, 56, 67
2, 16641, Note_on_c, 0, 62, 60
2, 16644, Note_on_c, 0, 56, 0
2, 16650, Note_on_c, 0, 62, 0
2, 16654, Note_on_c, 0, 57, 25
2, 16657, Note_on_c, 0, 89, 51
2, 16664, Note_on_c, 0, 57, 0
2, 16666, Note_on_c, 0, 77, 0
2, 16682, Note_on_c, 0, 89, 0
2, 16707, Note_on_c, 0, 72, 61
2, 16713, Note_on_c, 0, 84, 43
2, 16723, Note_on_c, 0, 84, 0
2, 16747, Note_on_c, 0, 72, 0
2, 16880, Note_on_c, 0, 58, 60
2, 16882, Note_on_c, 0, 87, 78
2, 16883, Note_on_c, 0, 67, 65
2, 16883, Note_on_c, 0, 75, 76
2, 16884, Note_on_c, 0, 63, 53
2, 16902, Note_on_c, 0, 67, 0
2, 16910, Note_on_c, 0, 58, 0
2, 16921, Note_on_c, 0, 75, 0
2, 16924, Note_on_c, 0, 63, 0
2, 16927, Note_on_c, 0, 87, 0
2, 16942, Note_on_c, 0, 89, 59
2, 16946, Note_on_c, 0, 77, 37
2, 16976, Note_on_c, 0, 89, 0
2, 16980, Note_on_c, 0, 77, 0
2, 17006, Note_on_c, 0, 87, 77
2, 17010, Note_on_c, 0, 75, 59
2, 17013, Note_on_c, 0, 63, 40
2, 17021, Note_on_c, 0, 63, 0
2, 17025, Note_on_c, 0, 75, 0
2, 17035, Note_on_c, 0, 87, 0
2, 17059, Note_on_c, 0, 72, 52
2, 17061, Note_on_c, 0, 84, 38
2, 17091, Note_on_c, 0, 84, 0
2, 17091, Note_on_c, 0, 72, 0
2, 17128, Note_on_c, 0, 75, 71
2, 17129, Note_on_c, 0, 87, 75
2, 17129, Note_on_c, 0, 58, 53
2, 17130, Note_on_c, 0, 67, 56
2, 17131, Note_on_c, 0, 63, 44
2, 17141, Note_on_c, 0, 67, 0
2, 17144, Note_on_c, 0, 75, 0
2, 17145, Note_on_c, 0, 87, 0
2, 17167, Note_on_c, 0, 67, 37
2, 17173, Note_on_c, 0, 84, 32
2, 17173, Note_on_c, 0, 72, 54
2, 17196, Note_on_c, 0, 84, 0
2, 17204, Note_on_c, 0, 72, 0
2, 17215, Note_on_c, 0, 67, 0
2, 17234, Note_on_c, 0, 58, 0
2, 17234, Note_on_c, 0, 63, 0
2, 17245, Note_on_c, 0, 63, 36
2, 17245, Note_on_c, 0, 57, 62
2, 17245, Note_on_c, 0, 68, 71
2, 17246, Note_on_c, 0, 67, 37
2, 17247, Note_on_c, 0, 80, 53
2, 17254, Note_on_c, 0, 67, 0
2, 17286, Note_on_c, 0, 68, 0
2, 17292, Note_on_c, 0, 81, 33
2, 17305, Note_on_c, 0, 69, 24
2, 17322, Note_on_c, 0, 80, 0
2, 17336, Note_on_c, 0, 63, 0
2, 17338, Note_on_c, 0, 69, 0
2, 17342, Note_on_c, 0, 81, 0
2, 17358, Note_on_c, 0, 67, 27
2, 17366, Note_on_c, 0, 63, 40
2, 17375, Note_on_c, 0, 67, 0
2, 17393, Note_on_c, 0, 84, 71
2, 17395, Note_on_c, 0, 83, 74
2, 17395, Note_on_c, 0, 72, 64
2, 17399, Note_on_c, 0, 63, 0
2, 17404, Note_on_c, 0, 83, 0
2, 17465, Note_on_c, 0, 84, 0
2, 17469, Note_on_c, 0, 72, 0
2, 17479, Note_on_c, 0, 63, 45
2, 17481, Note_on_c, 0, 81, 73
2, 17505, Note_on_c, 0, 63, 0
2, 17518, Note_on_c, 0, 81, 0
2, 17533, Note_on_c, 0, 57, 0
2, 17534, Note_on_c, 0, 77, 47
2, 17583, Note_on_c, 0, 77, 0
2, 17600, Note_on_c, 0, 79, 64
2, 17603, Note_on_c, 0, 63, 39
2, 17603, Note_on_c, 0, 80, 35
2, 17603, Note_on_c, 0, 67, 37
2, 17608, Note_on_c, 0, 57, 38
2, 17618, Note_on_c, 0, 80, 0
2, 17624, Note_on_c, 0, 67, 0
2, 17631, Note_on_c, 0, 79, 0
2, 17648, Note_on_c, 0, 77, 20
2, 17650, Note_on_c, 0, 57, 0
2, 17680, Note_on_c, 0, 63, 0
2, 17685, Note_on_c, 0, 77, 0
2, 17723, Note_on_c, 0, 63, 50
2, 17723, Note_on_c, 0, 56, 51
2, 17724, Note_on_c, 0, 67, 55
2, 17727, Note_on_c, 0, 60, 66
2, 17755, Control_c, 0, 64, 127
2, 17766, Control_c, 0, 64, 0
2, 17818, Note_on_c, 0, 63, 0
2, 17843, Note_on_c, 0, 63, 23
2, 17846, Note_on_c, 0, 67, 0
2, 17874, Note_on_c, 0, 86, 89
2, 17874, Note_on_c, 0, 80, 93
2, 17892, Note_on_c, 0, 63, 0
2, 17943, Note_on_c, 0, 86, 0
2, 17956, Note_on_c, 0, 80, 0
2, 17963, Note_on_c, 0, 77, 24
2, 17971, Note_on_c, 0, 60, 0
2, 17976, Note_on_c, 0, 77, 0
2, 17981, Note_on_c, 0, 63, 25
2, 17982, Note_on_c, 0, 56, 0
2, 17990, Control_c, 0, 64, 127
2, 17999, Note_on_c, 0, 79, 62
2, 18001, Note_on_c, 0, 86, 66
2, 18030, Note_on_c, 0, 63, 0
2, 18036, Note_on_c, 0, 86, 0
2, 18054, Control_c, 0, 64, 0
2, 18070, Note_on_c, 0, 79, 0
2, 18078, Note_on_c, 0, 74, 51
2, 18086, Note_on_c, 0, 63, 21
2, 18090, Note_on_c, 0, 74, 0
2, 18099, Note_on_c, 0, 56, 17
2, 18113, Note_on_c, 0, 77, 57
2, 18118, Note_on_c, 0, 67, 20
2, 18138, Note_on_c, 0, 60, 1
2, 18150, Control_c, 0, 64, 127
2, 18152, Note_on_c, 0, 67, 0
2, 18152, Note_on_c, 0, 56, 0
2, 18164, Note_on_c, 0, 60, 0
2, 18167, Note_on_c, 0, 63, 0
2, 18174, Note_on_c, 0, 77, 0
2, 18187, Control_c, 0, 64, 0
2, 18192, Note_on_c, 0, 77, 72
2, 18192, Note_on_c, 0, 60, 59
2, 18194, Note_on_c, 0, 63, 40
2, 18195, Note_on_c, 0, 56, 51
2, 18196, Note_on_c, 0, 67, 55
2, 18336, Note_on_c, 0, 67, 0
2, 18354, Note_on_c, 0, 67, 24
2, 18358, Note_on_c, 0, 74, 34
2, 18364, Control_c, 0, 64, 127
2, 18369, Note_on_c, 0, 77, 0
2, 18380, Note_on_c, 0, 63, 0
2, 18392, Note_on_c, 0, 67, 0
2, 18408, Note_on_c, 0, 56, 0
2, 18421, Note_on_c, 0, 60, 0
2, 18426, Note_on_c, 0, 74, 0
2, 18440, Note_on_c, 0, 67, 55
2, 18441, Control_c, 0, 64, 0
2, 18444, Note_on_c, 0, 60, 30
2, 18444, Note_on_c, 0, 77, 50
2, 18445, Note_on_c, 0, 62, 56
2, 18454, Note_on_c, 0, 77, 0
2, 18455, Note_on_c, 0, 62, 0
2, 18457, Note_on_c, 0, 67, 0
2, 18473, Note_on_c, 0, 60, 0
2, 18558, Note_on_c, 0, 67, 64
2, 18561, Note_on_c, 0, 62, 58
2, 18561, Note_on_c, 0, 77, 76
2, 18563, Note_on_c, 0, 56, 32
2, 18572, Note_on_c, 0, 67, 0
2, 18572, Note_on_c, 0, 60, 49
2, 18572, Note_on_c, 0, 60, 0
2, 18584, Note_on_c, 0, 62, 0
2, 18590, Note_on_c, 0, 77, 0
2, 18591, Note_on_c, 0, 56, 0
2, 18607, Control_c, 0, 64, 127
2, 18608, Note_on_c, 0, 79, 40
2, 18667, Note_on_c, 0, 79, 0
2, 18681, Note_on_c, 0, 77, 53
2, 18702, Note_on_c, 0, 77, 0
2, 18708, Control_c, 0, 64, 0
2, 18719, Note_on_c, 0, 63, 62
2, 18719, Note_on_c, 0, 80, 68
2, 18720, Note_on_c, 0, 56, 39
2, 18722, Note_on_c, 0, 59, 57
2, 18722, Note_on_c, 0, 68, 58
2, 18725, Note_on_c, 0, 53, 36
2, 18746, Control_c, 0, 64, 127
2, 18771, Note_on_c, 0, 53, 0
2, 18773, Note_on_c, 0, 68, 0
2, 18778, Note_on_c, 0, 63, 0
2, 18778, Note_on_c, 0, 80, 0
2, 18783, Note_on_c, 0, 59, 0
2, 18784, Note_on_c, 0, 56, 0
2, 18800, Note_on_c, 0, 82, 73
2, 18801, Note_on_c, 0, 70, 61
2, 18803, Note_on_c, 0, 63, 55
2, 18805, Note_on_c, 0, 75, 61
2, 18806, Note_on_c, 0, 59, 49
2, 18807, Note_on_c, 0, 56, 42
2, 18811, Note_on_c, 0, 53, 31
2, 18816, Note_on_c, 0, 70, 0
2, 18817, Note_on_c, 0, 59, 0
2, 18821, Note_on_c, 0, 82, 0
2, 18821, Control_c, 0, 64, 0
2, 18822, Note_on_c, 0, 63, 0
2, 18822, Note_on_c, 0, 53, 0
2, 18830, Note_on_c, 0, 75, 0
2, 18833, Note_on_c, 0, 56, 0
2, 18841, Note_on_c, 0, 63, 43
2, 18841, Note_on_c, 0, 80, 33
2, 18847, Note_on_c, 0, 68, 33
2, 18848, Note_on_c, 0, 75, 15
2, 18849, Note_on_c, 0, 56, 20
2, 18850, Note_on_c, 0, 59, 53
2, 18851, Note_on_c, 0, 53, 33
2, 18859, Control_c, 0, 64, 127
2, 18886, Note_on_c, 0, 59, 0
2, 18897, Note_on_c, 0, 53, 0
2, 18899, Note_on_c, 0, 68, 0
2, 18901, Note_on_c, 0, 75, 0
2, 18901, Note_on_c, 0, 56, 0
2, 18905, Note_on_c, 0, 80, 0
2, 18908, Note_on_c, 0, 63, 0
2, 18919, Control_c, 0, 64, 0
2, 18955, Note_on_c, 0, 82, 69
2, 18955, Note_on_c, 0, 63, 68
2, 18957, Note_on_c, 0, 70, 69
2, 18959, Note_on_c, 0, 56, 45
2, 18961, Note_on_c, 0, 75, 60
2, 18962, Control_c, 0, 64, 127
2, 18964, Note_on_c, 0, 53, 40
2, 18964, Note_on_c, 0, 59, 52
2, 18995, Note_on_c, 0, 53, 0
2, 18999, Note_on_c, 0, 82, 0
2, 19000, Note_on_c, 0, 70, 0
2, 19004, Note_on_c, 0, 63, 0
2, 19005, Note_on_c, 0, 59, 0
2, 19008, Note_on_c, 0, 75, 0
2, 19010, Note_on_c, 0, 56, 0
2, 19043, Note_on_c, 0, 80, 48
2, 19043, Note_on_c, 0, 63, 37
2, 19044, Note_on_c, 0, 75, 56
2, 19045, Note_on_c, 0, 68, 48
2, 19048, Note_on_c, 0, 56, 35
2, 19050, Note_on_c, 0, 59, 28
2, 19051, Note_on_c, 0, 53, 30
2, 19052, Note_on_c, 0, 63, 0
2, 19055, Note_on_c, 0, 68, 0
2, 19055, Control_c, 0, 64, 0
2, 19061, Note_on_c, 0, 75, 0
2, 19061, Note_on_c, 0, 59, 0
2, 19063, Note_on_c, 0, 56, 0
2, 19064, Note_on_c, 0, 53, 0
2, 19065, Note_on_c, 0, 80, 0
2, 19073, Control_c, 0, 64, 127
2, 19141, Control_c, 0, 64, 0
2, 19157, Note_on_c, 0, 48, 105
2, 19157, Note_on_c, 0, 79, 88
2, 19157, Note_on_c, 0, 36, 105
2, 19159, Note_on_c, 0, 67, 90
2, 19160, Note_on_c, 0, 76, 80
2, 19176, Note_on_c, 0, 67, 0
2, 19178, Note_on_c, 0, 76, 0
2, 19185, Note_on_c, 0, 79, 0
2, 19194, Note_on_c, 0, 36, 0
2, 19203, Note_on_c, 0, 48, 0
2, 19432, Note_on_c, 0, 59, 49
2, 19440, Note_on_c, 0, 59, 0
2, 19440, Note_on_c, 0, 60, 68
2, 19442, Note_on_c, 0, 84, 68
2, 19469, Note_on_c, 0, 84, 0
2, 19474, Note_on_c, 0, 60, 0
2, 19554, Note_on_c, 0, 79, 48
2, 19557, Note_on_c, 0, 55, 45
2, 19582, Note_on_c, 0, 55, 0
2, 19599, Note_on_c, 0, 79, 0
2, 19681, Note_on_c, 0, 82, 72
2, 19685, Note_on_c, 0, 58, 57
2, 19757, Note_on_c, 0, 58, 0
2, 19763, Note_on_c, 0, 82, 0
2, 19811, Control_c, 0, 64, 127
2, 19900, Control_c, 0, 64, 0
2, 19920, Note_on_c, 0, 68, 51
2, 19925, Note_on_c, 0, 56, 51
2, 19926, Note_on_c, 0, 58, 54
2, 19930, Note_on_c, 0, 64, 50
2, 20051, Note_on_c, 0, 49, 28
2, 20058, Control_c, 0, 64, 127
2, 20066, Note_on_c, 0, 56, 0
2, 20070, Note_on_c, 0, 64, 0
2, 20085, Note_on_c, 0, 58, 0
2, 20092, Note_on_c, 0, 49, 0
2, 20097, Note_on_c, 0, 68, 0
2, 20116, Control_c, 0, 64, 0
2, 20118, Note_on_c, 0, 58, 56
2, 20121, Note_on_c, 0, 61, 56
2, 20123, Note_on_c, 0, 67, 42
2, 20124, Note_on_c, 0, 55, 50
2, 20125, Note_on_c, 0, 64, 47
2, 20128, Note_on_c, 0, 48, 39
2, 20134, Note_on_c, 0, 55, 0
2, 20135, Note_on_c, 0, 64, 0
2, 20137, Note_on_c, 0, 61, 0
2, 20138, Note_on_c, 0, 58, 0
2, 20150, Note_on_c, 0, 67, 0
2, 20153, Note_on_c, 0, 48, 0
2, 20233, Note_on_c, 0, 24, 82
2, 20237, Note_on_c, 0, 36, 48
2, 20239, Note_on_c, 0, 35, 51
2, 20251, Note_on_c, 0, 35, 0
2, 20256, Note_on_c, 0, 36, 0
2, 20263, Note_on_c, 0, 24, 0
2, 20271, Control_c, 0, 64, 127
2, 20377, Note_on_c, 0, 58, 39
2, 20394, Control_c, 0, 64, 0
2, 20397, Note_on_c, 0, 58, 0
2, 20403, Note_on_c, 0, 60, 88
2, 20403, Note_on_c, 0, 84, 90
2, 20405, Note_on_c, 0, 72, 91
2, 20447, Note_on_c, 0, 72, 0
2, 20450, Note_on_c, 0, 84, 0
2, 20460, Note_on_c, 0, 60, 0
2, 20513, Note_on_c, 0, 55, 66
2, 20517, Note_on_c, 0, 79, 77
2, 20536, Note_on_c, 0, 55, 0
2, 20542, Note_on_c, 0, 79, 0
2, 20634, Control_c, 0, 64, 127
2, 20639, Note_on_c, 0, 59, 38
2, 20639, Note_on_c, 0, 63, 43
2, 20639, Note_on_c, 0, 82, 68
2, 20641, Note_on_c, 0, 70, 64
2, 20644, Note_on_c, 0, 53, 28
2, 20685, Note_on_c, 0, 53, 0
2, 20688, Note_on_c, 0, 70, 0
2, 20690, Note_on_c, 0, 82, 0
2, 20691, Note_on_c, 0, 63, 0
2, 20698, Note_on_c, 0, 59, 0
2, 20714, Note_on_c, 0, 84, 59
2, 20721, Note_on_c, 0, 72, 36
2, 20724, Note_on_c, 0, 59, 38
2, 20725, Note_on_c, 0, 63, 26
2, 20731, Note_on_c, 0, 72, 0
2, 20734, Note_on_c, 0, 84, 0
2, 20735, Note_on_c, 0, 59, 0
2, 20735, Note_on_c, 0, 63, 0
2, 20745, Control_c, 0, 64, 0
2, 20759, Note_on_c, 0, 63, 26
2, 20760, Note_on_c, 0, 82, 55
2, 20761, Note_on_c, 0, 70, 59
2, 20762, Note_on_c, 0, 53, 41
2, 20764, Note_on_c, 0, 59, 49
2, 20792, Control_c, 0, 64, 127
2, 20793, Note_on_c, 0, 82, 0
2, 20800, Note_on_c, 0, 70, 0
2, 20806, Note_on_c, 0, 53, 0
2, 20807, Note_on_c, 0, 63, 0
2, 20808, Note_on_c, 0, 59, 0
2, 20817, Control_c, 0, 64, 0
2, 20844, Note_on_c, 0, 63, 43
2, 20846, Note_on_c, 0, 79, 41
2, 20848, Note_on_c, 0, 67, 57
2, 20848, Note_on_c, 0, 59, 38
2, 20862, Note_on_c, 0, 63, 0
2, 20865, Note_on_c, 0, 67, 0
2, 20871, Note_on_c, 0, 79, 0
2, 20872, Note_on_c, 0, 59, 0
2, 20962, Note_on_c, 0, 82, 69
2, 20963, Note_on_c, 0, 70, 73
2, 20963, Note_on_c, 0, 59, 53
2, 20975, Note_on_c, 0, 59, 0
2, 20978, Note_on_c, 0, 70, 0
2, 20979, Note_on_c, 0, 82, 0
2, 20998, Note_on_c, 0, 63, 38
2, 21003, Note_on_c, 0, 59, 32
2, 21011, Note_on_c, 0, 67, 40
2, 21018, Control_c, 0, 64, 127
2, 21021, Note_on_c, 0, 67, 0
2, 21021, Note_on_c, 0, 59, 0
2, 21042, Note_on_c, 0, 63, 0
2, 21079, Note_on_c, 0, 76, 55
2, 21081, Note_on_c, 0, 68, 57
2, 21081, Note_on_c, 0, 64, 57
2, 21084, Control_c, 0, 64, 0
2, 21088, Note_on_c, 0, 58, 62
2, 21091, Note_on_c, 0, 72, 33
2, 21099, Note_on_c, 0, 64, 0
2, 21102, Note_on_c, 0, 72, 0
2, 21102, Note_on_c, 0, 68, 0
2, 21108, Note_on_c, 0, 76, 0
2, 21117, Note_on_c, 0, 58, 0
2, 21237, Control_c, 0, 64, 127
2, 21336, Control_c, 0, 64, 0
2, 21351, Note_on_c, 0, 59, 57
2, 21352, Note_on_c, 0, 80, 60
2, 21355, Note_on_c, 0, 68, 55
2, 21355, Note_on_c, 0, 75, 53
2, 21356, Note_on_c, 0, 72, 53
2, 21362, Note_on_c, 0, 59, 0
2, 21366, Note_on_c, 0, 72, 0
2, 21370, Note_on_c, 0, 68, 0
2, 21374, Note_on_c, 0, 80, 0
2, 21375, Note_on_c, 0, 75, 0
2, 21482, Control_c, 0, 64, 127
2, 21560, Note_on_c, 0, 76, 46
2, 21576, Note_on_c, 0, 76, 0
2, 21598, Control_c, 0, 64, 0
2, 21606, Note_on_c, 0, 68, 54
2, 21606, Note_on_c, 0, 77, 50
2, 21608, Note_on_c, 0, 72, 44
2, 21610, Note_on_c, 0, 64, 38
2, 21614, Note_on_c, 0, 60, 43
2, 21615, Note_on_c, 0, 56, 32
2, 21617, Note_on_c, 0, 53, 27
2, 21713, Control_c, 0, 64, 127
2, 21730, Note_on_c, 0, 53, 0
2, 21737, Note_on_c, 0, 56, 0
2, 21741, Note_on_c, 0, 60, 0
2, 21743, Note_on_c, 0, 68, 0
2, 21746, Note_on_c, 0, 64, 0
2, 21838, Control_c, 0, 64, 0
2, 21843, Note_on_c, 0, 65, 82
2, 21844, Note_on_c, 0, 60, 68
2, 21845, Note_on_c, 0, 58, 61
2, 21846, Note_on_c, 0, 54, 71
2, 21952, Control_c, 0, 64, 127
2, 21986, Note_on_c, 0, 72, 0
2, 21989, Note_on_c, 0, 60, 0
2, 22004, Note_on_c, 0, 65, 0
2, 22011, Note_on_c, 0, 77, 0
2, 22065, Note_on_c, 0, 54, 0
2, 22067, Note_on_c, 0, 58, 0
2, 22087, Note_on_c, 0, 64, 55
2, 22090, Control_c, 0, 64, 0
2, 22091, Note_on_c, 0, 53, 47
2, 22093, Note_on_c, 0, 59, 38
2, 22269, Note_on_c, 0, 64, 0
2, 22270, Note_on_c, 0, 53, 0
2, 22279, Note_on_c, 0, 67, 87
2, 22287, Note_on_c, 0, 59, 0
2, 22315, Note_on_c, 0, 67, 0
2, 22324, Note_on_c, 0, 63, 48
2, 22325, Note_on_c, 0, 52, 57
2, 22325, Note_on_c, 0, 58, 46
2, 22327, Note_on_c, 0, 68, 72
2, 22383, Note_on_c, 0, 68, 0
2, 22411, Note_on_c, 0, 70, 54
2, 22428, Note_on_c, 0, 63, 0
2, 22433, Note_on_c, 0, 70, 0
2, 22441, Note_on_c, 0, 73, 77
2, 22448, Note_on_c, 0, 72, 83
2, 22476, Note_on_c, 0, 52, 0
2, 22477, Note_on_c, 0, 58, 0
2, 22498, Note_on_c, 0, 73, 0
2, 22517, Note_on_c, 0, 72, 0
2, 22569, Note_on_c, 0, 77, 101
2, 22614, Note_on_c, 0, 77, 0
2, 22648, Note_on_c, 0, 48, 68
2, 22653, Note_on_c, 0, 47, 62
2, 22674, Note_on_c, 0, 47, 0
2, 22804, Control_c, 0, 64, 127
2, 22843, Control_c, 0, 64, 0
2, 23041, Note_on_c, 0, 48, 0
2, 23523, Note_on_c, 0, 63, 48
2, 23529, Note_on_c, 0, 84, 73
2, 23529, Note_on_c, 0, 52, 42
2, 23531, Note_on_c, 0, 72, 62
2, 23532, Note_on_c, 0, 58, 48
2, 23576, Note_on_c, 0, 72, 0
2, 23578, Note_on_c, 0, 84, 0
2, 23582, Note_on_c, 0, 52, 0
2, 23585, Note_on_c, 0, 63, 0
2, 23590, Note_on_c, 0, 58, 0
2, 23599, Note_on_c, 0, 63, 21
2, 23602, Note_on_c, 0, 72, 49
2, 23605, Note_on_c, 0, 84, 44
2, 23615, Note_on_c, 0, 72, 0
2, 23621, Note_on_c, 0, 63, 0
2, 23623, Note_on_c, 0, 84, 0
2, 23876, Note_on_c, 0, 84, 66
2, 23878, Note_on_c, 0, 72, 48
2, 23881, Note_on_c, 0, 63, 46
2, 23884, Note_on_c, 0, 58, 32
2, 23885, Note_on_c, 0, 52, 49
2, 23921, Note_on_c, 0, 52, 0
2, 23929, Note_on_c, 0, 84, 0
2, 23930, Note_on_c, 0, 72, 0
2, 23934, Note_on_c, 0, 63, 0
2, 23943, Note_on_c, 0, 58, 0
2, 23954, Note_on_c, 0, 84, 51
2, 23955, Note_on_c, 0, 63, 48
2, 23955, Note_on_c, 0, 72, 43
2, 23961, Note_on_c, 0, 58, 25
2, 23961, Note_on_c, 0, 52, 32
2, 23972, Note_on_c, 0, 72, 0
2, 23976, Note_on_c, 0, 52, 0
2, 23977, Note_on_c, 0, 63, 0
2, 23985, Note_on_c, 0, 84, 0
2, 23986, Note_on_c, 0, 58, 0
2, 24212, Note_on_c, 0, 82, 88
2, 24258, Note_on_c, 0, 82, 0
2, 24258, Note_on_c, 0, 83, 64
2, 24298, Note_on_c, 0, 82, 42
2, 24304, Note_on_c, 0, 83, 0
2, 24331, Note_on_c, 0, 80, 34
2, 24335, Note_on_c, 0, 82, 0
2, 24354, Note_on_c, 0, 77, 40
2, 24356, Note_on_c, 0, 80, 0
2, 24372, Note_on_c, 0, 77, 0
2, 24381, Note_on_c, 0, 82, 87
2, 24465, Note_on_c, 0, 82, 0
2, 24491, Note_on_c, 0, 63, 50
2, 24493, Note_on_c, 0, 58, 50
2, 24495, Note_on_c, 0, 80, 72
2, 24495, Note_on_c, 0, 52, 44
2, 24514, Note_on_c, 0, 82, 20
2, 24553, Note_on_c, 0, 52, 0
2, 24558, Note_on_c, 0, 63, 0
2, 24564, Note_on_c, 0, 82, 0
2, 24567, Note_on_c, 0, 80, 0
2, 24575, Note_on_c, 0, 63, 49
2, 24579, Note_on_c, 0, 78, 70
2, 24581, Note_on_c, 0, 52, 45
2, 24603, Note_on_c, 0, 78, 0
2, 24603, Note_on_c, 0, 63, 0
2, 24606, Note_on_c, 0, 58, 0
2, 24607, Note_on_c, 0, 52, 0
2, 24798, Note_on_c, 0, 58, 42
2, 24811, Note_on_c, 0, 58, 0
2, 24826, Note_on_c, 0, 75, 57
2, 24830, Note_on_c, 0, 63, 62
2, 24830, Note_on_c, 0, 76, 64
2, 24834, Note_on_c, 0, 52, 53
2, 24835, Note_on_c, 0, 58, 53
2, 24860, Note_on_c, 0, 75, 0
2, 24881, Note_on_c, 0, 52, 0
2, 24888, Note_on_c, 0, 63, 0
2, 24894, Note_on_c, 0, 76, 0
2, 24897, Note_on_c, 0, 58, 0
2, 24910, Note_on_c, 0, 73, 67
2, 24915, Note_on_c, 0, 63, 52
2, 24919, Note_on_c, 0, 58, 55
2, 24923, Note_on_c, 0, 52, 47
2, 24941, Note_on_c, 0, 52, 0
2, 24953, Note_on_c, 0, 73, 0
2, 24957, Note_on_c, 0, 63, 0
2, 24960, Note_on_c, 0, 58, 0
2, 25192, Note_on_c, 0, 70, 88
2, 25193, Note_on_c, 0, 63, 70
2, 25194, Note_on_c, 0, 52, 70
2, 25196, Note_on_c, 0, 58, 60
2, 25232, Note_on_c, 0, 52, 0
2, 25233, Note_on_c, 0, 63, 0
2, 25249, Note_on_c, 0, 58, 0
2, 25252, Note_on_c, 0, 70, 0
2, 25273, Note_on_c, 0, 68, 77
2, 25286, Note_on_c, 0, 58, 34
2, 25288, Note_on_c, 0, 52, 43
2, 25305, Note_on_c, 0, 63, 10
2, 25317, Note_on_c, 0, 68, 0
2, 25320, Note_on_c, 0, 67, 44
2, 25362, Note_on_c, 0, 52, 0
2, 25381, Note_on_c, 0, 67, 0
2, 25382, Note_on_c, 0, 58, 0
2, 25391, Note_on_c, 0, 63, 0
2, 25444, Note_on_c, 0, 53, 35
2, 25445, Note_on_c, 0, 67, 51
2, 25448, Note_on_c, 0, 56, 37
2, 25449, Note_on_c, 0, 60, 41
2, 25451, Note_on_c, 0, 64, 25
2, 25506, Note_on_c, 0, 64, 0
2, 25512, Note_on_c, 0, 67, 0
2, 25512, Note_on_c, 0, 60, 0
2, 25528, Note_on_c, 0, 64, 33
2, 25532, Note_on_c, 0, 67, 55
2, 25537, Note_on_c, 0, 60, 32
2, 25545, Note_on_c, 0, 67, 0
2, 25550, Note_on_c, 0, 60, 0
2, 25554, Note_on_c, 0, 64, 0
2, 25556, Note_on_c, 0, 53, 0
2, 25564, Note_on_c, 0, 56, 0
2, 25776, Note_on_c, 0, 56, 30
2, 25777, Note_on_c, 0, 53, 26
2, 25784, Note_on_c, 0, 60, 40
2, 25798, Note_on_c, 0, 60, 0
2, 25805, Note_on_c, 0, 79, 69
2, 25807, Note_on_c, 0, 68, 73
2, 25809, Note_on_c, 0, 72, 65
2, 25810, Note_on_c, 0, 64, 70
2, 25822, Note_on_c, 0, 76, 24
2, 25845, Note_on_c, 0, 76, 0
2, 25863, Note_on_c, 0, 64, 0
2, 25865, Note_on_c, 0, 68, 0
2, 25869, Note_on_c, 0, 72, 0
2, 25871, Note_on_c, 0, 79, 0
2, 25882, Note_on_c, 0, 56, 0
2, 25885, Note_on_c, 0, 68, 63
2, 25886, Note_on_c, 0, 77, 61
2, 25892, Note_on_c, 0, 72, 53
2, 25893, Note_on_c, 0, 62, 60
2, 25902, Note_on_c, 0, 72, 0
2, 25904, Note_on_c, 0, 68, 0
2, 25906, Note_on_c, 0, 62, 0
2, 25920, Note_on_c, 0, 77, 0
2, 25923, Note_on_c, 0, 53, 0
2, 26248, Note_on_c, 0, 79, 49
2, 26248, Note_on_c, 0, 64, 58
2, 26249, Note_on_c, 0, 68, 56
2, 26254, Note_on_c, 0, 72, 30
2, 26258, Note_on_c, 0, 64, 0
2, 26259, Note_on_c, 0, 68, 0
2, 26262, Note_on_c, 0, 79, 0
2, 26265, Note_on_c, 0, 72, 0
2, 26299, Note_on_c, 0, 82, 85
2, 26300, Note_on_c, 0, 75, 83
2, 26303, Note_on_c, 0, 72, 74
2, 26313, Note_on_c, 0, 72, 0
2, 26315, Note_on_c, 0, 79, 36
2, 26325, Note_on_c, 0, 72, 17
2, 26337, Note_on_c, 0, 72, 0
2, 26343, Note_on_c, 0, 79, 0
2, 26346, Note_on_c, 0, 75, 0
2, 26347, Note_on_c, 0, 82, 0
2, 26371, Note_on_c, 0, 82, 67
2, 26372, Note_on_c, 0, 70, 80
2, 26376, Note_on_c, 0, 75, 67
2, 26378, Note_on_c, 0, 79, 53
2, 26378, Note_on_c, 0, 72, 76
2, 26407, Note_on_c, 0, 79, 0
2, 26414, Note_on_c, 0, 75, 0
2, 26415, Note_on_c, 0, 70, 0
2, 26419, Note_on_c, 0, 72, 0
2, 26420, Note_on_c, 0, 82, 0
2, 26437, Note_on_c, 0, 68, 62
2, 26439, Note_on_c, 0, 80, 51
2, 26440, Note_on_c, 0, 75, 31
2, 26445, Note_on_c, 0, 72, 41
2, 26454, Note_on_c, 0, 75, 0
2, 26457, Note_on_c, 0, 72, 0
2, 26462, Note_on_c, 0, 80, 0
2, 26486, Note_on_c, 0, 68, 0
2, 26524, Note_on_c, 0, 79, 60
2, 26524, Note_on_c, 0, 68, 64
2, 26525, Note_on_c, 0, 67, 46
2, 26536, Note_on_c, 0, 72, 36
2, 26557, Note_on_c, 0, 72, 0
2, 26569, Note_on_c, 0, 68, 0
2, 26577, Note_on_c, 0, 79, 0
2, 26583, Note_on_c, 0, 67, 0
2, 26601, Note_on_c, 0, 72, 44
2, 26603, Note_on_c, 0, 68, 46
2, 26624, Note_on_c, 0, 64, 17
2, 26652, Note_on_c, 0, 64, 0
2, 26663, Note_on_c, 0, 72, 0
2, 26666, Note_on_c, 0, 68, 0
2, 26711, Note_on_c, 0, 68, 68
2, 26711, Note_on_c, 0, 79, 66
2, 26713, Note_on_c, 0, 67, 50
2, 26716, Note_on_c, 0, 72, 53
2, 26727, Note_on_c, 0, 72, 0
2, 26740, Note_on_c, 0, 68, 0
2, 26742, Note_on_c, 0, 67, 0
2, 26744, Note_on_c, 0, 79, 0
2, 26761, Note_on_c, 0, 65, 37
2, 26769, Note_on_c, 0, 77, 28
2, 26772, Note_on_c, 0, 72, 24
2, 26815, Note_on_c, 0, 72, 0
2, 26816, Note_on_c, 0, 77, 0
2, 26826, Note_on_c, 0, 65, 0
2, 27240, Note_on_c, 0, 84, 90
2, 27240, Note_on_c, 0, 72, 91
2, 27293, Note_on_c, 0, 72, 0
2, 27294, Note_on_c, 0, 84, 0
2, 27361, Note_on_c, 0, 53, 48
2, 27362, Note_on_c, 0, 84, 69
2, 27363, Note_on_c, 0, 63, 56
2, 27366, Note_on_c, 0, 72, 60
2, 27373, Note_on_c, 0, 58, 38
2, 27417, Note_on_c, 0, 53, 0
2, 27419, Note_on_c, 0, 84, 0
2, 27421, Note_on_c, 0, 72, 0
2, 27426, Note_on_c, 0, 63, 0
2, 27427, Note_on_c, 0, 58, 0
2, 27446, Note_on_c, 0, 63, 35
2, 27447, Note_on_c, 0, 84, 35
2, 27447, Note_on_c, 0, 72, 40
2, 27457, Note_on_c, 0, 58, 37
2, 27461, Note_on_c, 0, 72, 0
2, 27462, Note_on_c, 0, 84, 0
2, 27466, Note_on_c, 0, 63, 0
2, 27471, Note_on_c, 0, 58, 0
2, 27720, Note_on_c, 0, 63, 33
2, 27720, Note_on_c, 0, 84, 53
2, 27727, Note_on_c, 0, 72, 27
2, 27728, Note_on_c, 0, 58, 36
2, 27730, Note_on_c, 0, 52, 48
2, 27773, Note_on_c, 0, 52, 0
2, 27777, Note_on_c, 0, 72, 0
2, 27780, Note_on_c, 0, 84, 0
2, 27781, Note_on_c, 0, 63, 0
2, 27786, Note_on_c, 0, 58, 0
2, 27805, Note_on_c, 0, 72, 49
2, 27807, Note_on_c, 0, 84, 49
2, 27808, Note_on_c, 0, 63, 37
2, 27815, Note_on_c, 0, 58, 44
2, 27818, Note_on_c, 0, 72, 0
2, 27826, Note_on_c, 0, 63, 0
2, 27833, Note_on_c, 0, 84, 0
2, 27833, Note_on_c, 0, 58, 0
2, 27964, Note_on_c, 0, 95, 85
2, 27967, Note_on_c, 0, 96, 84
2, 27973, Note_on_c, 0, 94, 43
2, 27982, Note_on_c, 0, 94, 0
2, 27984, Note_on_c, 0, 95, 0
2, 28040, Note_on_c, 0, 96, 0
2, 28083, Note_on_c, 0, 94, 82
2, 28136, Note_on_c, 0, 94, 0
2, 28163, Note_on_c, 0, 90, 73
2, 28211, Note_on_c, 0, 90, 0
2, 28226, Note_on_c, 0, 88, 26
2, 28283, Note_on_c, 0, 88, 0
2, 28402, Note_on_c, 0, 63, 59
2, 28403, Note_on_c, 0, 58, 54
2, 28419, Note_on_c, 0, 63, 0
2, 28422, Note_on_c, 0, 58, 0
2, 28523, Note_on_c, 0, 88, 105
2, 28565, Note_on_c, 0, 88, 0
2, 28579, Note_on_c, 0, 87, 57
2, 28630, Note_on_c, 0, 87, 0
2, 28640, Note_on_c, 0, 85, 62
2, 28679, Note_on_c, 0, 85, 0
2, 28694, Note_on_c, 0, 84, 34
2, 28756, Note_on_c, 0, 84, 0
2, 28804, Note_on_c, 0, 82, 53
2, 28805, Note_on_c, 0, 63, 36
2, 28807, Note_on_c, 0, 58, 38
2, 28813, Note_on_c, 0, 52, 44
2, 28870, Note_on_c, 0, 82, 0
2, 28884, Note_on_c, 0, 80, 35
2, 28895, Note_on_c, 0, 80, 0
2, 28896, Note_on_c, 0, 52, 0
2, 28900, Note_on_c, 0, 63, 0
2, 28914, Note_on_c, 0, 58, 0
2, 28998, Note_on_c, 0, 78, 61
2, 29000, Note_on_c, 0, 63, 52
2, 29001, Note_on_c, 0, 58, 49
2, 29005, Note_on_c, 0, 79, 49
2, 29022, Note_on_c, 0, 63, 0
2, 29025, Note_on_c, 0, 78, 0
2, 29032, Note_on_c, 0, 58, 0
2, 29033, Note_on_c, 0, 79, 0
2, 29112, Note_on_c, 0, 76, 67
2, 29116, Note_on_c, 0, 63, 61
2, 29117, Note_on_c, 0, 58, 60
2, 29120, Note_on_c, 0, 52, 61
2, 29147, Note_on_c, 0, 76, 0
2, 29165, Note_on_c, 0, 72, 44
2, 29201, Note_on_c, 0, 52, 0
2, 29210, Note_on_c, 0, 72, 0
2, 29210, Note_on_c, 0, 58, 0
2, 29235, Note_on_c, 0, 63, 0
2, 29244, Note_on_c, 0, 56, 46
2, 29249, Note_on_c, 0, 60, 50
2, 29259, Note_on_c, 0, 60, 0
2, 29271, Note_on_c, 0, 53, 33
2, 29276, Note_on_c, 0, 79, 70
2, 29278, Note_on_c, 0, 68, 69
2, 29281, Note_on_c, 0, 72, 68
2, 29281, Note_on_c, 0, 60, 57
2, 29281, Note_on_c, 0, 64, 67
2, 29333, Note_on_c, 0, 68, 0
2, 29338, Note_on_c, 0, 79, 0
2, 29340, Note_on_c, 0, 72, 0
2, 29340, Note_on_c, 0, 64, 0
2, 29344, Note_on_c, 0, 60, 0
2, 29346, Note_on_c, 0, 53, 0
2, 29352, Note_on_c, 0, 56, 0
2, 29358, Note_on_c, 0, 79, 55
2, 29359, Note_on_c, 0, 68, 49
2, 29361, Note_on_c, 0, 64, 57
2, 29367, Note_on_c, 0, 72, 41
2, 29371, Note_on_c, 0, 60, 51
2, 29372, Note_on_c, 0, 56, 25
2, 29376, Note_on_c, 0, 72, 0
2, 29376, Note_on_c, 0, 68, 0
2, 29379, Note_on_c, 0, 64, 0
2, 29381, Note_on_c, 0, 60, 0
2, 29384, Note_on_c, 0, 79, 0
2, 29399, Note_on_c, 0, 56, 0
2, 29476, Note_on_c, 0, 77, 55
2, 29478, Note_on_c, 0, 68, 50
2, 29479, Note_on_c, 0, 62, 63
2, 29482, Note_on_c, 0, 72, 47
2, 29483, Note_on_c, 0, 56, 27
2, 29489, Note_on_c, 0, 77, 0
2, 29489, Note_on_c, 0, 60, 32
2, 29490, Note_on_c, 0, 68, 0
2, 29492, Note_on_c, 0, 72, 0
2, 29492, Note_on_c, 0, 62, 0
2, 29500, Note_on_c, 0, 60, 0
2, 29506, Note_on_c, 0, 56, 0
2, 29633, Note_on_c, 0, 75, 68
2, 29637, Note_on_c, 0, 68, 70
2, 29640, Note_on_c, 0, 65, 66
2, 29640, Note_on_c, 0, 72, 61
2, 29694, Note_on_c, 0, 65, 0
2, 29699, Note_on_c, 0, 72, 0
2, 29699, Note_on_c, 0, 68, 0
2, 29702, Note_on_c, 0, 75, 0
2, 29718, Note_on_c, 0, 75, 51
2, 29718, Note_on_c, 0, 63, 47
2, 29723, Note_on_c, 0, 68, 45
2, 29725, Note_on_c, 0, 65, 25
2, 29730, Note_on_c, 0, 72, 42
2, 29735, Note_on_c, 0, 65, 0
2, 29740, Note_on_c, 0, 63, 0
2, 29740, Note_on_c, 0, 72, 0
2, 29748, Note_on_c, 0, 75, 0
2, 29753, Note_on_c, 0, 68, 0
2, 29967, Note_on_c, 0, 56, 52
2, 29993, Note_on_c, 0, 70, 69
2, 29994, Note_on_c, 0, 63, 69
2, 29997, Note_on_c, 0, 56, 0
2, 29997, Note_on_c, 0, 60, 74
2, 29997, Note_on_c, 0, 67, 58
2, 29997, Note_on_c, 0, 58, 74
2, 30051, Note_on_c, 0, 67, 0
2, 30054, Note_on_c, 0, 60, 0
2, 30056, Note_on_c, 0, 70, 0
2, 30070, Note_on_c, 0, 63, 0
2, 30072, Note_on_c, 0, 58, 0
2, 30077, Note_on_c, 0, 68, 75
2, 30081, Note_on_c, 0, 56, 51
2, 30081, Note_on_c, 0, 63, 35
2, 30118, Note_on_c, 0, 63, 0
2, 30124, Note_on_c, 0, 68, 0
2, 30133, Note_on_c, 0, 56, 0
2, 30214, Note_on_c, 0, 53, 26
2, 30226, Note_on_c, 0, 53, 0
2, 30243, Note_on_c, 0, 55, 64
2, 30243, Note_on_c, 0, 67, 57
2, 30249, Note_on_c, 0, 63, 35
2, 30250, Note_on_c, 0, 60, 45
2, 30312, Note_on_c, 0, 60, 0
2, 30317, Note_on_c, 0, 55, 0
2, 30318, Note_on_c, 0, 67, 0
2, 30327, Note_on_c, 0, 51, 37
2, 30328, Note_on_c, 0, 63, 0
2, 30354, Note_on_c, 0, 51, 0
2, 30363, Note_on_c, 0, 65, 57
2, 30366, Note_on_c, 0, 53, 46
2, 30366, Note_on_c, 0, 60, 58
2, 30372, Note_on_c, 0, 56, 44
2, 30489, Note_on_c, 0, 53, 0
2, 30526, Note_on_c, 0, 65, 0
2, 30543, Note_on_c, 0, 60, 0
2, 30544, Note_on_c, 0, 56, 0
2, 30574, Note_on_c, 0, 46, 37
2, 30602, Note_on_c, 0, 64, 68
2, 30606, Note_on_c, 0, 50, 50
2, 30607, Note_on_c, 0, 55, 68
2, 30608, Note_on_c, 0, 46, 0
2, 30608, Note_on_c, 0, 60, 73
2, 30610, Note_on_c, 0, 57, 64
2, 30741, Control_c, 0, 64, 127
2, 30763, Note_on_c, 0, 60, 0
2, 30764, Note_on_c, 0, 55, 0
2, 30768, Note_on_c, 0, 57, 0
2, 30770, Note_on_c, 0, 50, 0
2, 30783, Note_on_c, 0, 46, 36
2, 30789, Note_on_c, 0, 64, 0
2, 30795, Note_on_c, 0, 60, 71
2, 30801, Control_c, 0, 64, 0
2, 30802, Note_on_c, 0, 55, 56
2, 30803, Note_on_c, 0, 46, 0
2, 30803, Note_on_c, 0, 57, 48
2, 30808, Note_on_c, 0, 48, 43
2, 30941, Note_on_c, 0, 57, 0
2, 30941, Note_on_c, 0, 55, 0
2, 30944, Note_on_c, 0, 60, 0
2, 30947, Note_on_c, 0, 48, 0
2, 30959, Note_on_c, 0, 77, 96
2, 30969, Note_on_c, 0, 48, 39
2, 30969, Note_on_c, 0, 60, 74
2, 30971, Note_on_c, 0, 55, 46
2, 30971, Note_on_c, 0, 57, 49
2, 31021, Note_on_c, 0, 77, 0
2, 31029, Note_on_c, 0, 55, 0
2, 31033, Note_on_c, 0, 57, 0
2, 31035, Note_on_c, 0, 60, 0
2, 31037, Note_on_c, 0, 48, 0
2, 31043, Note_on_c, 0, 74, 38
2, 31073, Note_on_c, 0, 74, 0
2, 31086, Note_on_c, 0, 75, 59
2, 31130, Note_on_c, 0, 75, 0
2, 31156, Note_on_c, 0, 79, 62
2, 31164, Note_on_c, 0, 67, 32
2, 31166, Note_on_c, 0, 58, 33
2, 31168, Note_on_c, 0, 62, 43
2, 31173, Note_on_c, 0, 63, 25
2, 31176, Note_on_c, 0, 67, 0
2, 31179, Note_on_c, 0, 62, 0
2, 31183, Note_on_c, 0, 63, 0
2, 31185, Note_on_c, 0, 58, 0
2, 31191, Note_on_c, 0, 79, 0
2, 31220, Note_on_c, 0, 83, 41
2, 31265, Note_on_c, 0, 83, 0
2, 31281, Note_on_c, 0, 86, 80
2, 31285, Note_on_c, 0, 74, 66
2, 31308, Note_on_c, 0, 74, 0
2, 31314, Note_on_c, 0, 86, 0
2, 31446, Note_on_c, 0, 86, 66
2, 31449, Note_on_c, 0, 74, 42
2, 31479, Note_on_c, 0, 74, 0
2, 31483, Note_on_c, 0, 86, 0
2, 31693, Note_on_c, 0, 67, 35
2, 31693, Note_on_c, 0, 63, 39
2, 31695, Note_on_c, 0, 57, 49
2, 31735, Note_on_c, 0, 57, 0
2, 31744, Note_on_c, 0, 63, 0
2, 31744, Note_on_c, 0, 67, 0
2, 31807, Note_on_c, 0, 57, 47
2, 31808, Note_on_c, 0, 67, 38
2, 31812, Note_on_c, 0, 63, 44
2, 31843, Note_on_c, 0, 57, 0
2, 31857, Note_on_c, 0, 67, 0
2, 31859, Note_on_c, 0, 63, 0
2, 32006, Note_on_c, 0, 67, 45
2, 32019, Note_on_c, 0, 67, 0
2, 32019, Note_on_c, 0, 57, 24
2, 32030, Note_on_c, 0, 57, 0
2, 32125, Note_on_c, 0, 86, 101
2, 32151, Note_on_c, 0, 86, 0
2, 32175, Note_on_c, 0, 89, 95
2, 32219, Note_on_c, 0, 89, 0
2, 32242, Note_on_c, 0, 87, 81
2, 32249, Note_on_c, 0, 67, 47
2, 32256, Note_on_c, 0, 62, 39
2, 32258, Note_on_c, 0, 63, 20
2, 32264, Note_on_c, 0, 67, 0
2, 32267, Note_on_c, 0, 62, 0
2, 32272, Note_on_c, 0, 63, 0
2, 32284, Note_on_c, 0, 87, 0
2, 32291, Note_on_c, 0, 83, 53
2, 32338, Note_on_c, 0, 83, 0
2, 32353, Note_on_c, 0, 86, 78
2, 32381, Note_on_c, 0, 62, 33
2, 32392, Note_on_c, 0, 86, 0
2, 32396, Note_on_c, 0, 62, 0
2, 32406, Note_on_c, 0, 84, 58
2, 32451, Note_on_c, 0, 84, 0
2, 32474, Note_on_c, 0, 77, 57
2, 32480, Note_on_c, 0, 62, 34
2, 32484, Note_on_c, 0, 67, 41
2, 32488, Note_on_c, 0, 63, 23
2, 32498, Note_on_c, 0, 67, 0
2, 32498, Note_on_c, 0, 62, 0
2, 32506, Note_on_c, 0, 77, 0
2, 32517, Note_on_c, 0, 63, 0
2, 32635, Note_on_c, 0, 67, 44
2, 32641, Note_on_c, 0, 63, 33
2, 32665, Note_on_c, 0, 67, 0
2, 32670, Note_on_c, 0, 63, 0
2, 32850, Note_on_c, 0, 67, 35
2, 32856, Note_on_c, 0, 63, 30
2, 32860, Note_on_c, 0, 57, 32
2, 32870, Note_on_c, 0, 67, 0
2, 32874, Note_on_c, 0, 84, 115
2, 32875, Note_on_c, 0, 57, 0
2, 32892, Note_on_c, 0, 63, 0
2, 32950, Note_on_c, 0, 84, 0
2, 32957, Note_on_c, 0, 81, 49
2, 32969, Note_on_c, 0, 63, 23
2, 32971, Note_on_c, 0, 57, 26
2, 32985, Note_on_c, 0, 57, 0
2, 32990, Note_on_c, 0, 81, 0
2, 33001, Note_on_c, 0, 82, 53
2, 33028, Note_on_c, 0, 63, 0
2, 33062, Note_on_c, 0, 82, 0
2, 33073, Note_on_c, 0, 84, 69
2, 33080, Note_on_c, 0, 67, 44
2, 33083, Note_on_c, 0, 63, 44
2, 33089, Note_on_c, 0, 56, 27
2, 33091, Note_on_c, 0, 60, 42
2, 33103, Note_on_c, 0, 60, 0
2, 33104, Note_on_c, 0, 56, 0
2, 33105, Note_on_c, 0, 67, 0
2, 33115, Note_on_c, 0, 84, 0
2, 33126, Note_on_c, 0, 80, 37
2, 33131, Note_on_c, 0, 63, 0
2, 33189, Note_on_c, 0, 80, 0
2, 33209, Note_on_c, 0, 77, 32
2, 33224, Note_on_c, 0, 77, 0
2, 33241, Note_on_c, 0, 79, 71
2, 33298, Note_on_c, 0, 79, 0
2, 33315, Note_on_c, 0, 80, 47
2, 33335, Note_on_c, 0, 79, 49
2, 33336, Note_on_c, 0, 82, 29
2, 33347, Note_on_c, 0, 80, 0
2, 33350, Note_on_c, 0, 82, 0
2, 33375, Note_on_c, 0, 79, 0
2, 33375, Note_on_c, 0, 77, 40
2, 33444, Note_on_c, 0, 77, 0
2, 33445, Note_on_c, 0, 75, 46
2, 33477, Note_on_c, 0, 75, 0
2, 33484, Note_on_c, 0, 74, 42
2, 33504, Note_on_c, 0, 74, 0
2, 33504, Note_on_c, 0, 72, 15
2, 33543, Note_on_c, 0, 72, 0
2, 33564, Note_on_c, 0, 73, 83
2, 33603, Note_on_c, 0, 73, 0
2, 33619, Note_on_c, 0, 74, 48
2, 33666, Note_on_c, 0, 74, 0
2, 33688, Note_on_c, 0, 65, 59
2, 33754, Note_on_c, 0, 65, 0
2, 33841, Note_on_c, 0, 67, 66
2, 33906, Note_on_c, 0, 67, 0
2, 33961, Note_on_c, 0, 67, 56
2, 34022, Note_on_c, 0, 67, 0
2, 34041, Note_on_c, 0, 68, 74
2, 34044, Note_on_c, 0, 63, 38
2, 34045, Note_on_c, 0, 53, 33
2, 34046, Note_on_c, 0, 59, 49
2, 34148, Note_on_c, 0, 68, 0
2, 34157, Note_on_c, 0, 70, 64
2, 34194, Note_on_c, 0, 70, 0
2, 34195, Note_on_c, 0, 63, 0
2, 34204, Note_on_c, 0, 68, 39
2, 34218, Note_on_c, 0, 53, 0
2, 34236, Note_on_c, 0, 59, 0
2, 34275, Note_on_c, 0, 68, 0
2, 34321, Note_on_c, 0, 70, 83
2, 34391, Note_on_c, 0, 70, 0
2, 34400, Note_on_c, 0, 65, 42
2, 34405, Note_on_c, 0, 59, 30
2, 34409, Note_on_c, 0, 63, 25
2, 34412, Note_on_c, 0, 65, 0
2, 34424, Note_on_c, 0, 63, 0
2, 34424, Note_on_c, 0, 59, 0
2, 34444, Note_on_c, 0, 66, 54
2, 34506, Note_on_c, 0, 66, 0
2, 34519, Note_on_c, 0, 62, 41
2, 34520, Note_on_c, 0, 58, 53
2, 34520, Note_on_c, 0, 67, 60
2, 34530, Note_on_c, 0, 62, 0
2, 34535, Note_on_c, 0, 58, 0
2, 34537, Note_on_c, 0, 52, 18
2, 34548, Note_on_c, 0, 52, 0
2, 34554, Note_on_c, 0, 67, 0
2, 35007, Note_on_c, 0, 81, 37
2, 35025, Note_on_c, 0, 81, 0
2, 35037, Note_on_c, 0, 84, 62
2, 35043, Note_on_c, 0, 72, 51
2, 35045, Note_on_c, 0, 63, 45
2, 35052, Note_on_c, 0, 52, 47
2, 35053, Note_on_c, 0, 58, 47
2, 35101, Note_on_c, 0, 72, 0
2, 35101, Note_on_c, 0, 84, 0
2, 35114, Note_on_c, 0, 58, 0
2, 35119, Note_on_c, 0, 72, 34
2, 35123, Note_on_c, 0, 84, 56
2, 35132, Note_on_c, 0, 58, 19
2, 35142, Note_on_c, 0, 52, 0
2, 35144, Note_on_c, 0, 72, 0
2, 35147, Note_on_c, 0, 84, 0
2, 35148, Note_on_c, 0, 58, 0
2, 35151, Note_on_c, 0, 63, 0
2, 35396, Note_on_c, 0, 84, 62
2, 35402, Note_on_c, 0, 72, 54
2, 35404, Note_on_c, 0, 63, 57
2, 35406, Note_on_c, 0, 58, 46
2, 35410, Note_on_c, 0, 52, 58
2, 35448, Note_on_c, 0, 84, 0
2, 35449, Note_on_c, 0, 52, 0
2, 35450, Note_on_c, 0, 63, 0
2, 35456, Note_on_c, 0, 72, 0
2, 35463, Note_on_c, 0, 58, 0
2, 35479, Note_on_c, 0, 84, 53
2, 35480, Note_on_c, 0, 63, 55
2, 35481, Note_on_c, 0, 72, 55
2, 35487, Note_on_c, 0, 52, 41
2, 35488, Note_on_c, 0, 58, 51
2, 35500, Note_on_c, 0, 52, 0
2, 35500, Note_on_c, 0, 72, 0
2, 35505, Note_on_c, 0, 63, 0
2, 35511, Note_on_c, 0, 84, 0
2, 35517, Note_on_c, 0, 58, 0
2, 35657, Note_on_c, 0, 81, 92
2, 35712, Note_on_c, 0, 81, 0
2, 35726, Note_on_c, 0, 84, 90
2, 35783, Note_on_c, 0, 82, 59
2, 35784, Note_on_c, 0, 84, 0
2, 35844, Note_on_c, 0, 78, 67
2, 35862, Note_on_c, 0, 82, 0
2, 35879, Note_on_c, 0, 78, 0
2, 35887, Note_on_c, 0, 76, 41
2, 35950, Note_on_c, 0, 76, 0
2, 35959, Note_on_c, 0, 73, 49
2, 35978, Note_on_c, 0, 73, 0
2, 36000, Note_on_c, 0, 63, 35
2, 36005, Note_on_c, 0, 58, 42
2, 36006, Note_on_c, 0, 72, 34
2, 36008, Note_on_c, 0, 52, 42
2, 36055, Note_on_c, 0, 52, 0
2, 36058, Note_on_c, 0, 72, 0
2, 36060, Note_on_c, 0, 63, 0
2, 36068, Note_on_c, 0, 58, 0
2, 36078, Note_on_c, 0, 72, 37
2, 36083, Note_on_c, 0, 63, 32
2, 36089, Note_on_c, 0, 58, 25
2, 36090, Note_on_c, 0, 72, 0
2, 36106, Note_on_c, 0, 63, 0
2, 36114, Note_on_c, 0, 58, 0
2, 36356, Note_on_c, 0, 63, 50
2, 36357, Note_on_c, 0, 70, 40
2, 36362, Note_on_c, 0, 58, 25
2, 36367, Note_on_c, 0, 52, 47
2, 36397, Note_on_c, 0, 52, 0
2, 36404, Note_on_c, 0, 63, 0
2, 36414, Note_on_c, 0, 58, 0
2, 36425, Note_on_c, 0, 70, 0
2, 36434, Note_on_c, 0, 63, 45
2, 36437, Note_on_c, 0, 72, 61
2, 36441, Note_on_c, 0, 52, 41
2, 36442, Note_on_c, 0, 58, 46
2, 36456, Note_on_c, 0, 52, 0
2, 36458, Note_on_c, 0, 63, 0
2, 36462, Note_on_c, 0, 72, 0
2, 36462, Note_on_c, 0, 58, 0
2, 36673, Note_on_c, 0, 76, 62
2, 36687, Note_on_c, 0, 76, 0
2, 36741, Note_on_c, 0, 79, 90
2, 36911, Note_on_c, 0, 78, 38
2, 36927, Note_on_c, 0, 79, 0
2, 36930, Note_on_c, 0, 77, 55
2, 36940, Note_on_c, 0, 78, 0
2, 36962, Note_on_c, 0, 76, 51
2, 36966, Note_on_c, 0, 77, 0
2, 36966, Note_on_c, 0, 64, 34
2, 36966, Note_on_c, 0, 56, 31
2, 36967, Note_on_c, 0, 60, 40
2, 36969, Note_on_c, 0, 53, 26
2, 37011, Note_on_c, 0, 64, 0
2, 37016, Note_on_c, 0, 60, 0
2, 37030, Note_on_c, 0, 76, 0
2, 37038, Note_on_c, 0, 64, 34
2, 37042, Note_on_c, 0, 76, 60
2, 37044, Note_on_c, 0, 60, 55
2, 37068, Note_on_c, 0, 76, 0
2, 37068, Note_on_c, 0, 64, 0
2, 37070, Note_on_c, 0, 60, 0
2, 37077, Note_on_c, 0, 53, 0
2, 37086, Note_on_c, 0, 56, 0
2, 37323, Note_on_c, 0, 72, 66
2, 37331, Note_on_c, 0, 64, 39
2, 37332, Note_on_c, 0, 56, 35
2, 37332, Note_on_c, 0, 53, 32
2, 37335, Note_on_c, 0, 60, 41
2, 37384, Note_on_c, 0, 60, 0
2, 37385, Note_on_c, 0, 64, 0
2, 37386, Note_on_c, 0, 72, 0
2, 37387, Note_on_c, 0, 53, 0
2, 37395, Note_on_c, 0, 56, 0
2, 37409, Note_on_c, 0, 72, 61
2, 37410, Note_on_c, 0, 64, 51
2, 37415, Note_on_c, 0, 60, 46
2, 37416, Note_on_c, 0, 56, 27
2, 37420, Note_on_c, 0, 72, 0
2, 37427, Note_on_c, 0, 60, 0
2, 37429, Note_on_c, 0, 64, 0
2, 37445, Note_on_c, 0, 56, 0
2, 37686, Note_on_c, 0, 67, 62
2, 37686, Note_on_c, 0, 64, 65
2, 37690, Note_on_c, 0, 56, 23
2, 37696, Note_on_c, 0, 60, 36
2, 37699, Note_on_c, 0, 53, 33
2, 37746, Note_on_c, 0, 64, 0
2, 37758, Note_on_c, 0, 53, 0
2, 37769, Note_on_c, 0, 60, 0
2, 37775, Note_on_c, 0, 56, 0
2, 37790, Note_on_c, 0, 67, 0
2, 37805, Note_on_c, 0, 62, 36
2, 37806, Note_on_c, 0, 65, 34
2, 37812, Note_on_c, 0, 56, 26
2, 37822, Note_on_c, 0, 53, 22
2, 37833, Note_on_c, 0, 62, 0
2, 37855, Note_on_c, 0, 53, 0
2, 37868, Note_on_c, 0, 56, 0
2, 37874, Note_on_c, 0, 65, 0
2, 37927, Note_on_c, 0, 64, 63
2, 37929, Note_on_c, 0, 67, 58
2, 37930, Note_on_c, 0, 56, 35
2, 37934, Note_on_c, 0, 60, 51
2, 37936, Note_on_c, 0, 53, 38
2, 37974, Note_on_c, 0, 60, 0
2, 37980, Note_on_c, 0, 67, 0
2, 37984, Note_on_c, 0, 53, 0
2, 37986, Note_on_c, 0, 64, 0
2, 37989, Note_on_c, 0, 56, 0
2, 38002, Note_on_c, 0, 64, 34
2, 38007, Note_on_c, 0, 67, 54
2, 38020, Note_on_c, 0, 67, 0
2, 38025, Note_on_c, 0, 64, 0
2, 38169, Note_on_c, 0, 68, 94
2, 38237, Note_on_c, 0, 68, 0
2, 38287, Note_on_c, 0, 67, 36
2, 38358, Note_on_c, 0, 67, 0
2, 38369, Note_on_c, 0, 68, 87
2, 38601, Note_on_c, 0, 68, 0
2, 38616, Note_on_c, 0, 65, 61
2, 38652, Note_on_c, 0, 65, 0
2, 38663, Note_on_c, 0, 67, 49
2, 38714, Note_on_c, 0, 67, 0
2, 38728, Note_on_c, 0, 68, 70
2, 38767, Note_on_c, 0, 68, 0
2, 38781, Note_on_c, 0, 70, 38
2, 38824, Note_on_c, 0, 70, 0
2, 38845, Note_on_c, 0, 72, 63
2, 38885, Note_on_c, 0, 72, 0
2, 38891, Note_on_c, 0, 53, 49
2, 38891, Note_on_c, 0, 63, 46
2, 38894, Note_on_c, 0, 59, 37
2, 38899, Note_on_c, 0, 73, 56
2, 38904, Note_on_c, 0, 53, 0
2, 38907, Note_on_c, 0, 59, 0
2, 38909, Note_on_c, 0, 63, 0
2, 38963, Note_on_c, 0, 73, 0
2, 38971, Note_on_c, 0, 75, 51
2, 38995, Note_on_c, 0, 75, 0
2, 39024, Note_on_c, 0, 76, 32
2, 39069, Note_on_c, 0, 76, 0
2, 39084, Note_on_c, 0, 78, 71
2, 39091, Note_on_c, 0, 63, 44
2, 39092, Note_on_c, 0, 59, 50
2, 39101, Note_on_c, 0, 63, 0
2, 39102, Note_on_c, 0, 59, 0
2, 39120, Note_on_c, 0, 78, 0
2, 39138, Note_on_c, 0, 80, 36
2, 39184, Note_on_c, 0, 80, 0
2, 39200, Note_on_c, 0, 83, 69
2, 39236, Note_on_c, 0, 83, 0
2, 39255, Note_on_c, 0, 85, 51
2, 39302, Note_on_c, 0, 85, 0
2, 39321, Note_on_c, 0, 58, 64
2, 39321, Note_on_c, 0, 63, 71
2, 39323, Note_on_c, 0, 88, 43
2, 39325, Note_on_c, 0, 52, 55
2, 39337, Note_on_c, 0, 52, 0
2, 39339, Note_on_c, 0, 63, 0
2, 39346, Note_on_c, 0, 58, 0
2, 39363, Note_on_c, 0, 88, 0
2, 39405, Note_on_c, 0, 91, 32
2, 39463, Note_on_c, 0, 91, 0
2, 39486, Note_on_c, 0, 96, 51
2, 39489, Note_on_c, 0, 84, 47
2, 39494, Note_on_c, 0, 95, 36
2, 39506, Note_on_c, 0, 95, 0
2, 39541, Note_on_c, 0, 96, 0
2, 39544, Note_on_c, 0, 84, 0
2, 39570, Note_on_c, 0, 96, 64
2, 39572, Note_on_c, 0, 84, 50
2, 39590, Note_on_c, 0, 84, 0
2, 39590, Note_on_c, 0, 96, 0
2, 39718, Note_on_c, 0, 36, 60
2, 39719, Note_on_c, 0, 48, 46
2, 39781, Note_on_c, 0, 36, 0
2, 39784, Note_on_c, 0, 48, 0
2, 39803, Note_on_c, 0, 48, 55
2, 39803, Note_on_c, 0, 36, 71
2, 39824, Note_on_c, 0, 48, 0
2, 39826, Note_on_c, 0, 36, 0
2, 40085, Note_on_c, 0, 63, 56
2, 40090, Note_on_c, 0, 58, 52
2, 40090, Note_on_c, 0, 52, 36
2, 40104, Note_on_c, 0, 52, 0
2, 40105, Note_on_c, 0, 63, 0
2, 40110, Note_on_c, 0, 58, 0
2, 40205, Note_on_c, 0, 75, 92
2, 40206, Note_on_c, 0, 87, 91
2, 40266, Note_on_c, 0, 75, 0
2, 40267, Note_on_c, 0, 87, 0
2, 40273, Note_on_c, 0, 88, 37
2, 40286, Note_on_c, 0, 88, 0
2, 40407, Note_on_c, 0, 63, 64
2, 40411, Note_on_c, 0, 58, 49
2, 40419, Note_on_c, 0, 52, 25
2, 40427, Note_on_c, 0, 63, 0
2, 40429, Note_on_c, 0, 58, 0
2, 40431, Note_on_c, 0, 52, 0
2, 40519, Note_on_c, 0, 87, 85
2, 40521, Note_on_c, 0, 75, 95
2, 40575, Note_on_c, 0, 87, 0
2, 40587, Note_on_c, 0, 75, 0
2, 40590, Note_on_c, 0, 76, 57
2, 40614, Note_on_c, 0, 76, 0
2, 40627, Note_on_c, 0, 88, 41
2, 40646, Note_on_c, 0, 88, 0
2, 40647, Note_on_c, 0, 76, 44
2, 40692, Note_on_c, 0, 76, 0
2, 40695, Note_on_c, 0, 88, 49
2, 40725, Note_on_c, 0, 88, 0
2, 40729, Note_on_c, 0, 76, 44
2, 40749, Note_on_c, 0, 64, 59
2, 40753, Note_on_c, 0, 60, 51
2, 40755, Note_on_c, 0, 56, 36
2, 40761, Note_on_c, 0, 64, 0
2, 40764, Note_on_c, 0, 76, 0
2, 40764, Note_on_c, 0, 60, 0
2, 40768, Note_on_c, 0, 88, 58
2, 40788, Note_on_c, 0, 56, 0
2, 40799, Note_on_c, 0, 88, 0
2, 40804, Note_on_c, 0, 76, 39
2, 40837, Note_on_c, 0, 76, 0
2, 40842, Note_on_c, 0, 88, 35
2, 40884, Note_on_c, 0, 76, 44
2, 40888, Note_on_c, 0, 88, 0
2, 40898, Note_on_c, 0, 76, 0
2, 40926, Note_on_c, 0, 79, 75
2, 40928, Note_on_c, 0, 91, 79
2, 40993, Note_on_c, 0, 91, 0
2, 41004, Note_on_c, 0, 79, 0
2, 41041, Note_on_c, 0, 88, 64
2, 41046, Note_on_c, 0, 76, 48
2, 41093, Note_on_c, 0, 88, 0
2, 41099, Note_on_c, 0, 76, 0
2, 41135, Note_on_c, 0, 72, 51
2, 41136, Note_on_c, 0, 84, 48
2, 41150, Note_on_c, 0, 72, 0
2, 41152, Note_on_c, 0, 84, 0
2, 41406, Note_on_c, 0, 64, 50
2, 41406, Note_on_c, 0, 67, 65
2, 41410, Note_on_c, 0, 56, 36
2, 41411, Note_on_c, 0, 60, 56
2, 41461, Note_on_c, 0, 67, 0
2, 41464, Note_on_c, 0, 56, 0
2, 41466, Note_on_c, 0, 60, 0
2, 41467, Note_on_c, 0, 64, 0
2, 41486, Note_on_c, 0, 67, 53
2, 41491, Note_on_c, 0, 64, 63
2, 41491, Note_on_c, 0, 56, 36
2, 41495, Note_on_c, 0, 60, 58
2, 41505, Note_on_c, 0, 60, 0
2, 41506, Note_on_c, 0, 67, 0
2, 41517, Note_on_c, 0, 64, 0
2, 41528, Note_on_c, 0, 67, 62
2, 41528, Note_on_c, 0, 64, 33
2, 41535, Note_on_c, 0, 60, 30
2, 41580, Note_on_c, 0, 67, 0
2, 41583, Note_on_c, 0, 56, 0
2, 41583, Note_on_c, 0, 64, 0
2, 41586, Note_on_c, 0, 60, 0
2, 41619, Note_on_c, 0, 65, 68
2, 41622, Note_on_c, 0, 56, 39
2, 41626, Note_on_c, 0, 60, 30
2, 41626, Note_on_c, 0, 62, 48
2, 41630, Note_on_c, 0, 65, 0
2, 41636, Note_on_c, 0, 62, 0
2, 41640, Note_on_c, 0, 56, 0
2, 41642, Note_on_c, 0, 60, 0
2, 41882, Note_on_c, 0, 64, 62
2, 41886, Note_on_c, 0, 56, 44
2, 41886, Note_on_c, 0, 67, 60
2, 41891, Note_on_c, 0, 60, 42
2, 42087, Note_on_c, 0, 91, 82
2, 42089, Note_on_c, 0, 79, 80
2, 42099, Note_on_c, 0, 64, 0
2, 42110, Note_on_c, 0, 79, 0
2, 42126, Note_on_c, 0, 91, 0
2, 42137, Note_on_c, 0, 67, 0
2, 42143, Note_on_c, 0, 56, 0
2, 42147, Note_on_c, 0, 88, 43
2, 42163, Note_on_c, 0, 60, 0
2, 42183, Note_on_c, 0, 88, 0
2, 42207, Note_on_c, 0, 67, 68
2, 42207, Note_on_c, 0, 91, 88
2, 42209, Note_on_c, 0, 62, 66
2, 42210, Note_on_c, 0, 56, 59
2, 42229, Note_on_c, 0, 79, 82
2, 42338, Note_on_c, 0, 79, 0
2, 42345, Note_on_c, 0, 91, 0
2, 42358, Note_on_c, 0, 67, 0
2, 42362, Note_on_c, 0, 88, 80
2, 42399, Note_on_c, 0, 62, 0
2, 42405, Note_on_c, 0, 56, 0
2, 42417, Note_on_c, 0, 88, 0
2, 42435, Note_on_c, 0, 62, 50
2, 42435, Note_on_c, 0, 67, 36
2, 42436, Note_on_c, 0, 84, 70
2, 42448, Note_on_c, 0, 67, 0
2, 42479, Note_on_c, 0, 84, 0
2, 42490, Note_on_c, 0, 62, 0
2, 42490, Note_on_c, 0, 79, 44
2, 42528, Note_on_c, 0, 79, 0
2, 42548, Note_on_c, 0, 56, 39
2, 42552, Note_on_c, 0, 75, 59
2, 42572, Note_on_c, 0, 56, 0
2, 42596, Note_on_c, 0, 75, 0
2, 42615, Note_on_c, 0, 72, 24
2, 42668, Note_on_c, 0, 72, 0
2, 42672, Note_on_c, 0, 64, 44
2, 42674, Note_on_c, 0, 79, 67
2, 42681, Note_on_c, 0, 60, 33
2, 42685, Note_on_c, 0, 64, 0
2, 42686, Note_on_c, 0, 56, 17
2, 42692, Note_on_c, 0, 60, 0
2, 42716, Note_on_c, 0, 56, 0
2, 42735, Note_on_c, 0, 77, 44
2, 42738, Note_on_c, 0, 79, 0
2, 42780, Note_on_c, 0, 77, 0
2, 42794, Note_on_c, 0, 72, 73
2, 42795, Note_on_c, 0, 63, 69
2, 42798, Note_on_c, 0, 58, 55
2, 42813, Note_on_c, 0, 63, 0
2, 42831, Note_on_c, 0, 72, 0
2, 42847, Note_on_c, 0, 70, 58
2, 42852, Note_on_c, 0, 58, 0
2, 42907, Note_on_c, 0, 70, 0
2, 43038, Note_on_c, 0, 63, 51
2, 43043, Note_on_c, 0, 58, 45
2, 43051, Note_on_c, 0, 52, 20
2, 43059, Note_on_c, 0, 63, 0
2, 43068, Note_on_c, 0, 52, 0
2, 43088, Note_on_c, 0, 68, 79
2, 43094, Note_on_c, 0, 58, 0
2, 43117, Note_on_c, 0, 68, 0
2, 43142, Note_on_c, 0, 70, 44
2, 43166, Note_on_c, 0, 68, 50
2, 43177, Note_on_c, 0, 56, 25
2, 43178, Note_on_c, 0, 59, 22
2, 43185, Note_on_c, 0, 70, 0
2, 43200, Note_on_c, 0, 67, 51
2, 43203, Note_on_c, 0, 68, 0
2, 43203, Note_on_c, 0, 59, 0
2, 43217, Note_on_c, 0, 56, 0
2, 43259, Note_on_c, 0, 67, 0
2, 43274, Note_on_c, 0, 65, 54
2, 43285, Note_on_c, 0, 63, 34
2, 43287, Note_on_c, 0, 59, 40
2, 43295, Note_on_c, 0, 63, 0
2, 43301, Note_on_c, 0, 59, 0
2, 43311, Note_on_c, 0, 65, 0
2, 43331, Note_on_c, 0, 64, 29
2, 43389, Note_on_c, 0, 64, 0
2, 43522, Note_on_c, 0, 59, 54
2, 43536, Note_on_c, 0, 59, 0
2, 43540, Note_on_c, 0, 56, 21
2, 43564, Note_on_c, 0, 63, 61
2, 43568, Note_on_c, 0, 56, 0
2, 43617, Note_on_c, 0, 63, 0
2, 43635, Note_on_c, 0, 64, 51
2, 43655, Note_on_c, 0, 56, 20
2, 43673, Note_on_c, 0, 64, 0
2, 43689, Note_on_c, 0, 56, 0
2, 43693, Note_on_c, 0, 66, 36
2, 43727, Note_on_c, 0, 66, 0
2, 43750, Note_on_c, 0, 68, 80
2, 43753, Note_on_c, 0, 66, 33
2, 43758, Note_on_c, 0, 63, 37
2, 43761, Note_on_c, 0, 59, 45
2, 43764, Note_on_c, 0, 66, 0
2, 43768, Note_on_c, 0, 63, 0
2, 43772, Note_on_c, 0, 56, 19
2, 43783, Note_on_c, 0, 59, 0
2, 43786, Note_on_c, 0, 68, 0
2, 43799, Note_on_c, 0, 71, 71
2, 43817, Note_on_c, 0, 56, 0
2, 43851, Note_on_c, 0, 71, 0
2, 43872, Note_on_c, 0, 66, 53
2, 43904, Note_on_c, 0, 66, 0
2, 43924, Note_on_c, 0, 67, 34
2, 43974, Note_on_c, 0, 67, 0
2, 43988, Note_on_c, 0, 69, 70
2, 44015, Note_on_c, 0, 69, 0
2, 44040, Note_on_c, 0, 70, 55
2, 44096, Note_on_c, 0, 70, 0
2, 44109, Note_on_c, 0, 58, 39
2, 44113, Note_on_c, 0, 72, 57
2, 44117, Note_on_c, 0, 70, 47
2, 44127, Note_on_c, 0, 70, 0
2, 44142, Note_on_c, 0, 72, 0
2, 44154, Note_on_c, 0, 58, 0
2, 44171, Note_on_c, 0, 74, 79
2, 44219, Note_on_c, 0, 74, 0
2, 44226, Note_on_c, 0, 58, 42
2, 44252, Note_on_c, 0, 67, 33
2, 44264, Note_on_c, 0, 67, 0
2, 44269, Note_on_c, 0, 58, 0
2, 44355, Note_on_c, 0, 70, 61
2, 44356, Note_on_c, 0, 63, 37
2, 44357, Note_on_c, 0, 58, 46
2, 44367, Note_on_c, 0, 63, 0
2, 44387, Note_on_c, 0, 70, 0
2, 44392, Note_on_c, 0, 58, 0
2, 44466, Note_on_c, 0, 73, 75
2, 44467, Note_on_c, 0, 63, 54
2, 44469, Note_on_c, 0, 58, 43
2, 44477, Note_on_c, 0, 63, 0
2, 44495, Note_on_c, 0, 58, 0
2, 44498, Note_on_c, 0, 73, 0
2, 44524, Note_on_c, 0, 75, 47
2, 44559, Note_on_c, 0, 75, 0
2, 44585, Note_on_c, 0, 76, 77
2, 44586, Note_on_c, 0, 60, 64
2, 44587, Note_on_c, 0, 64, 67
2, 44588, Note_on_c, 0, 56, 42
2, 44596, Note_on_c, 0, 53, 36
2, 44599, Note_on_c, 0, 64, 0
2, 44608, Note_on_c, 0, 53, 0
2, 44613, Note_on_c, 0, 60, 0
2, 44624, Note_on_c, 0, 76, 0
2, 44624, Note_on_c, 0, 56, 0
2, 44634, Note_on_c, 0, 79, 81
2, 44693, Note_on_c, 0, 79, 0
2, 44700, Note_on_c, 0, 75, 69
2, 44706, Note_on_c, 0, 76, 68
2, 44708, Note_on_c, 0, 41, 58
2, 44709, Note_on_c, 0, 53, 54
2, 44712, Note_on_c, 0, 75, 0
2, 44718, Note_on_c, 0, 41, 0
2, 44720, Note_on_c, 0, 53, 0
2, 44728, Note_on_c, 0, 76, 0
2, 44750, Note_on_c, 0, 77, 80
2, 44753, Note_on_c, 0, 76, 64
2, 44802, Note_on_c, 0, 76, 0
2, 44814, Note_on_c, 0, 77, 0
2, 44832, Note_on_c, 0, 72, 75
2, 44854, Note_on_c, 0, 56, 23
2, 44863, Note_on_c, 0, 72, 0
2, 44871, Note_on_c, 0, 56, 0
2, 44883, Note_on_c, 0, 68, 52
2, 44921, Note_on_c, 0, 68, 0
2, 44961, Note_on_c, 0, 67, 29
2, 44976, Note_on_c, 0, 67, 0
2, 44997, Note_on_c, 0, 70, 90
2, 45050, Note_on_c, 0, 70, 0
2, 45078, Note_on_c, 0, 63, 64
2, 45078, Note_on_c, 0, 68, 87
2, 45081, Note_on_c, 0, 59, 54
2, 45096, Note_on_c, 0, 63, 0
2, 45097, Note_on_c, 0, 59, 0
2, 45129, Note_on_c, 0, 68, 0
2, 45143, Note_on_c, 0, 70, 60
2, 45170, Note_on_c, 0, 68, 26
2, 45188, Note_on_c, 0, 70, 0
2, 45205, Note_on_c, 0, 67, 60
2, 45211, Note_on_c, 0, 68, 0
2, 45228, Note_on_c, 0, 67, 0
2, 45228, Note_on_c, 0, 46, 28
2, 45237, Note_on_c, 0, 46, 0
2, 45253, Note_on_c, 0, 65, 68
2, 45317, Note_on_c, 0, 65, 0
2, 45330, Note_on_c, 0, 64, 38
2, 45332, Note_on_c, 0, 48, 26
2, 45341, Note_on_c, 0, 48, 0
2, 45349, Note_on_c, 0, 64, 0
2, 45364, Note_on_c, 0, 67, 73
2, 45429, Note_on_c, 0, 67, 0
2, 45443, Note_on_c, 0, 64, 43
2, 45465, Note_on_c, 0, 64, 0
2, 45487, Note_on_c, 0, 65, 78
2, 45546, Note_on_c, 0, 65, 0
2, 45560, Note_on_c, 0, 60, 66
2, 45573, Note_on_c, 0, 48, 27
2, 45584, Note_on_c, 0, 48, 0
2, 45598, Note_on_c, 0, 60, 0
2, 45625, Note_on_c, 0, 56, 40
2, 45675, Note_on_c, 0, 56, 0
2, 45680, Note_on_c, 0, 48, 35
2, 45695, Note_on_c, 0, 48, 0
2, 45710, Note_on_c, 0, 55, 65
2, 45760, Note_on_c, 0, 55, 0
2, 45796, Note_on_c, 0, 53, 60
2, 45869, Note_on_c, 0, 29, 60
2, 45870, Note_on_c, 0, 41, 44
2, 45896, Note_on_c, 0, 41, 0
2, 45901, Note_on_c, 0, 29, 0
2, 45960, Note_on_c, 0, 41, 69
2, 45962, Note_on_c, 0, 29, 66
2, 46026, Note_on_c, 0, 29, 0
2, 46027, Note_on_c, 0, 41, 0
2, 46046, Note_on_c, 0, 41, 80
2, 46047, Note_on_c, 0, 29, 71
2, 46067, Note_on_c, 0, 53, 0
2, 46256, Note_on_c, 0, 29, 0
2, 46270, Note_on_c, 0, 41, 0
2, 46295, Note_on_c, 0, 41, 54
2, 46297, Note_on_c, 0, 29, 56
2, 46326, Note_on_c, 0, 29, 0
2, 46326, Note_on_c, 0, 74, 113
2, 46344, Note_on_c, 0, 41, 0
2, 46410, Note_on_c, 0, 74, 0
2, 46410, Note_on_c, 0, 71, 46
2, 46428, Note_on_c, 0, 71, 0
2, 46457, Note_on_c, 0, 72, 50
2, 46523, Note_on_c, 0, 74, 60
2, 46524, Note_on_c, 0, 72, 0
2, 46535, Note_on_c, 0, 62, 43
2, 46536, Note_on_c, 0, 63, 42
2, 46538, Note_on_c, 0, 67, 41
2, 46541, Note_on_c, 0, 58, 47
2, 46562, Note_on_c, 0, 74, 0
2, 46584, Note_on_c, 0, 75, 74
2, 46699, Note_on_c, 0, 67, 0
2, 46705, Note_on_c, 0, 58, 0
2, 46705, Note_on_c, 0, 62, 0
2, 46708, Note_on_c, 0, 63, 0
2, 46757, Note_on_c, 0, 67, 66
2, 46761, Note_on_c, 0, 63, 44
2, 46762, Note_on_c, 0, 62, 47
2, 46765, Note_on_c, 0, 58, 26
2, 46773, Note_on_c, 0, 62, 0
2, 46773, Note_on_c, 0, 67, 0
2, 46779, Note_on_c, 0, 58, 0
2, 46783, Note_on_c, 0, 63, 0
2, 46871, Note_on_c, 0, 75, 0
2, 46878, Note_on_c, 0, 72, 62
2, 46885, Note_on_c, 0, 63, 23
2, 46890, Note_on_c, 0, 62, 54
2, 46898, Note_on_c, 0, 72, 0
2, 46900, Note_on_c, 0, 63, 0
2, 46921, Note_on_c, 0, 74, 38
2, 46922, Note_on_c, 0, 62, 0
2, 46970, Note_on_c, 0, 74, 0
2, 46999, Note_on_c, 0, 75, 60
2, 47004, Note_on_c, 0, 63, 35
2, 47016, Note_on_c, 0, 63, 0
2, 47029, Note_on_c, 0, 75, 0
2, 47040, Note_on_c, 0, 63, 56
2, 47042, Note_on_c, 0, 67, 55
2, 47043, Note_on_c, 0, 77, 78
2, 47044, Note_on_c, 0, 57, 60
2, 47094, Note_on_c, 0, 67, 0
2, 47095, Note_on_c, 0, 57, 0
2, 47115, Note_on_c, 0, 77, 0
2, 47115, Note_on_c, 0, 63, 0
2, 47173, Control_c, 0, 64, 127
2, 47236, Note_on_c, 0, 63, 64
2, 47238, Note_on_c, 0, 67, 64
2, 47245, Control_c, 0, 64, 0
2, 47248, Note_on_c, 0, 67, 0
2, 47265, Note_on_c, 0, 63, 0
2, 47362, Note_on_c, 0, 72, 53
2, 47382, Note_on_c, 0, 72, 0
2, 47410, Note_on_c, 0, 74, 32
2, 47454, Note_on_c, 0, 74, 0
2, 47477, Note_on_c, 0, 75, 67
2, 47484, Note_on_c, 0, 62, 49
2, 47485, Note_on_c, 0, 63, 38
2, 47485, Note_on_c, 0, 67, 42
2, 47496, Note_on_c, 0, 67, 0
2, 47499, Note_on_c, 0, 62, 0
2, 47512, Note_on_c, 0, 75, 0
2, 47516, Note_on_c, 0, 63, 0
2, 47534, Note_on_c, 0, 77, 39
2, 47597, Note_on_c, 0, 77, 0
2, 47601, Note_on_c, 0, 78, 70
2, 47614, Note_on_c, 0, 63, 19
2, 47625, Note_on_c, 0, 63, 0
2, 47633, Note_on_c, 0, 78, 0
2, 47657, Note_on_c, 0, 80, 38
2, 47704, Note_on_c, 0, 80, 0
2, 47715, Note_on_c, 0, 81, 69
2, 47721, Note_on_c, 0, 62, 48
2, 47721, Note_on_c, 0, 67, 50
2, 47726, Note_on_c, 0, 63, 31
2, 47733, Note_on_c, 0, 67, 0
2, 47745, Note_on_c, 0, 63, 0
2, 47748, Note_on_c, 0, 81, 0
2, 47750, Note_on_c, 0, 62, 0
2, 47773, Note_on_c, 0, 83, 61
2, 47805, Note_on_c, 0, 83, 0
2, 47811, Control_c, 0, 64, 127
2, 47841, Note_on_c, 0, 84, 68
2, 47841, Note_on_c, 0, 62, 51
2, 47842, Control_c, 0, 64, 0
2, 47842, Note_on_c, 0, 67, 40
2, 47842, Note_on_c, 0, 63, 34
2, 47852, Note_on_c, 0, 62, 0
2, 47853, Note_on_c, 0, 67, 0
2, 47854, Note_on_c, 0, 63, 0
2, 47862, Note_on_c, 0, 84, 0
2, 47881, Note_on_c, 0, 62, 57
2, 47881, Note_on_c, 0, 86, 68
2, 47885, Note_on_c, 0, 63, 53
2, 47886, Note_on_c, 0, 67, 37
2, 47886, Note_on_c, 0, 58, 48
2, 47915, Control_c, 0, 64, 127
2, 47920, Note_on_c, 0, 86, 0
2, 47921, Note_on_c, 0, 67, 0
2, 47936, Note_on_c, 0, 62, 0
2, 47937, Note_on_c, 0, 63, 0
2, 47953, Note_on_c, 0, 58, 0
2, 47957, Control_c, 0, 64, 0
2, 47964, Note_on_c, 0, 75, 81
2, 47967, Note_on_c, 0, 63, 51
2, 47967, Note_on_c, 0, 67, 57
2, 47968, Note_on_c, 0, 87, 81
2, 47969, Note_on_c, 0, 57, 75
2, 48013, Control_c, 0, 64, 127
2, 48018, Note_on_c, 0, 67, 0
2, 48022, Note_on_c, 0, 57, 0
2, 48030, Note_on_c, 0, 75, 0
2, 48032, Note_on_c, 0, 63, 0
2, 48035, Note_on_c, 0, 87, 0
2, 48046, Note_on_c, 0, 57, 64
2, 48047, Note_on_c, 0, 67, 51
2, 48048, Note_on_c, 0, 63, 61
2, 48050, Note_on_c, 0, 77, 68
2, 48051, Note_on_c, 0, 89, 73
2, 48096, Note_on_c, 0, 77, 0
2, 48098, Note_on_c, 0, 67, 0
2, 48098, Note_on_c, 0, 57, 0
2, 48101, Note_on_c, 0, 89, 0
2, 48108, Note_on_c, 0, 63, 0
2, 48114, Control_c, 0, 64, 0
2, 48124, Note_on_c, 0, 57, 68
2, 48127, Note_on_c, 0, 67, 54
2, 48127, Note_on_c, 0, 79, 66
2, 48127, Note_on_c, 0, 63, 76
2, 48129, Note_on_c, 0, 91, 67
2, 48153, Control_c, 0, 64, 127
2, 48165, Note_on_c, 0, 91, 0
2, 48175, Note_on_c, 0, 79, 0
2, 48175, Note_on_c, 0, 57, 0
2, 48176, Note_on_c, 0, 67, 0
2, 48179, Control_c, 0, 64, 0
2, 48185, Note_on_c, 0, 63, 0
2, 48203, Note_on_c, 0, 57, 59
2, 48204, Note_on_c, 0, 63, 74
2, 48204, Note_on_c, 0, 67, 53
2, 48207, Note_on_c, 0, 80, 69
2, 48208, Note_on_c, 0, 92, 81
2, 48239, Control_c, 0, 64, 127
2, 48244, Note_on_c, 0, 67, 0
2, 48248, Note_on_c, 0, 80, 0
2, 48248, Note_on_c, 0, 57, 0
2, 48254, Note_on_c, 0, 92, 0
2, 48257, Note_on_c, 0, 63, 0
2, 48269, Note_on_c, 0, 57, 28
2, 48274, Note_on_c, 0, 67, 44
2, 48275, Note_on_c, 0, 63, 56
2, 48279, Note_on_c, 0, 93, 79
2, 48279, Note_on_c, 0, 81, 70
2, 48291, Note_on_c, 0, 92, 25
2, 48299, Note_on_c, 0, 67, 0
2, 48308, Note_on_c, 0, 93, 0
2, 48309, Note_on_c, 0, 81, 0
2, 48312, Note_on_c, 0, 92, 0
2, 48316, Note_on_c, 0, 63, 0
2, 48320, Note_on_c, 0, 57, 0
2, 48338, Control_c, 0, 64, 0
2, 48351, Note_on_c, 0, 57, 55
2, 48351, Note_on_c, 0, 94, 74
2, 48352, Note_on_c, 0, 82, 75
2, 48353, Note_on_c, 0, 63, 63
2, 48353, Note_on_c, 0, 67, 67
2, 48360, Note_on_c, 0, 61, 37
2, 48373, Control_c, 0, 64, 127
2, 48374, Note_on_c, 0, 61, 0
2, 48377, Note_on_c, 0, 67, 0
2, 48378, Note_on_c, 0, 57, 0
2, 48383, Note_on_c, 0, 82, 0
2, 48392, Note_on_c, 0, 94, 0
2, 48402, Note_on_c, 0, 63, 0
2, 48426, Note_on_c, 0, 63, 63
2, 48429, Note_on_c, 0, 67, 69
2, 48431, Note_on_c, 0, 56, 57
2, 48434, Control_c, 0, 64, 0
2, 48434, Note_on_c, 0, 83, 82
2, 48436, Note_on_c, 0, 95, 80
2, 48437, Note_on_c, 0, 60, 61
2, 48459, Note_on_c, 0, 95, 0
2, 48461, Note_on_c, 0, 83, 0
2, 48463, Note_on_c, 0, 67, 0
2, 48464, Note_on_c, 0, 56, 0
2, 48478, Note_on_c, 0, 60, 0
2, 48479, Note_on_c, 0, 63, 0
2, 48506, Control_c, 0, 64, 127
2, 48506, Note_on_c, 0, 63, 59
2, 48510, Note_on_c, 0, 56, 60
2, 48512, Note_on_c, 0, 67, 73
2, 48513, Note_on_c, 0, 60, 55
2, 48514, Note_on_c, 0, 96, 87
2, 48517, Note_on_c, 0, 84, 74
2, 48517, Note_on_c, 0, 89, 70
2, 48521, Note_on_c, 0, 93, 58
2, 48529, Note_on_c, 0, 64, 33
2, 48530, Note_on_c, 0, 93, 0
2, 48545, Note_on_c, 0, 64, 0
2, 48550, Note_on_c, 0, 89, 0
2, 48554, Note_on_c, 0, 63, 0
2, 48557, Note_on_c, 0, 84, 0
2, 48560, Note_on_c, 0, 60, 0
2, 48564, Note_on_c, 0, 67, 0
2, 48566, Note_on_c, 0, 96, 0
2, 48573, Note_on_c, 0, 56, 0
2, 48575, Control_c, 0, 64, 0
2, 48593, Note_on_c, 0, 67, 55
2, 48594, Note_on_c, 0, 56, 45
2, 48596, Note_on_c, 0, 64, 72
2, 48597, Note_on_c, 0, 60, 60
2, 48597, Note_on_c, 0, 96, 78
2, 48602, Note_on_c, 0, 84, 75
2, 48603, Note_on_c, 0, 89, 63
2, 48607, Note_on_c, 0, 93, 47
2, 48619, Note_on_c, 0, 93, 0
2, 48638, Note_on_c, 0, 89, 0
2, 48642, Note_on_c, 0, 84, 0
2, 48648, Note_on_c, 0, 67, 0
2, 48651, Note_on_c, 0, 96, 0
2, 48652, Note_on_c, 0, 56, 0
2, 48657, Note_on_c, 0, 60, 0
2, 48661, Note_on_c, 0, 64, 0
2, 48683, Note_on_c, 0, 64, 79
2, 48686, Note_on_c, 0, 56, 70
2, 48687, Note_on_c, 0, 67, 74
2, 48687, Note_on_c, 0, 96, 82
2, 48687, Note_on_c, 0, 60, 68
2, 48689, Note_on_c, 0, 84, 79
2, 48689, Note_on_c, 0, 89, 75
2, 48692, Note_on_c, 0, 93, 72
2, 48738, Control_c, 0, 64, 127
2, 48798, Control_c, 0, 64, 0
2, 48842, Control_c, 0, 64, 127
2, 48901, Note_on_c, 0, 84, 0
2, 48904, Note_on_c, 0, 89, 0
2, 48908, Note_on_c, 0, 64, 0
2, 48915, Note_on_c, 0, 93, 0
2, 48916, Note_on_c, 0, 96, 0
2, 48917, Note_on_c, 0, 67, 0
2, 48917, Note_on_c, 0, 56, 0
2, 48917, Note_on_c, 0, 60, 0
2, 48960, Control_c, 0, 64, 0
2, 48965, Note_on_c, 0, 64, 68
2, 48967, Note_on_c, 0, 67, 73
2, 48967, Note_on_c, 0, 56, 39
2, 48969, Note_on_c, 0, 100, 80
2, 48969, Note_on_c, 0, 60, 60
2, 48969, Note_on_c, 0, 88, 79
2, 48975, Note_on_c, 0, 95, 54
2, 48985, Note_on_c, 0, 95, 0
2, 48986, Note_on_c, 0, 88, 0
2, 48990, Note_on_c, 0, 67, 0
2, 48993, Note_on_c, 0, 64, 0
2, 49000, Note_on_c, 0, 60, 0
2, 49000, Note_on_c, 0, 56, 0
2, 49002, Note_on_c, 0, 100, 0
2, 49083, Note_on_c, 0, 64, 70
2, 49086, Note_on_c, 0, 67, 74
2, 49088, Note_on_c, 0, 56, 57
2, 49088, Note_on_c, 0, 91, 77
2, 49088, Note_on_c, 0, 103, 80
2, 49089, Note_on_c, 0, 60, 55
2, 49089, Note_on_c, 0, 98, 79
2, 49118, Note_on_c, 0, 64, 0
2, 49129, Note_on_c, 0, 91, 0
2, 49130, Note_on_c, 0, 67, 0
2, 49131, Note_on_c, 0, 56, 0
2, 49134, Note_on_c, 0, 98, 0
2, 49134, Note_on_c, 0, 103, 0
2, 49152, Note_on_c, 0, 60, 0
2, 49204, Control_c, 0, 64, 127
2, 49204, Note_on_c, 0, 67, 68
2, 49205, Note_on_c, 0, 62, 64
2, 49207, Note_on_c, 0, 56, 55
2, 49208, Note_on_c, 0, 101, 80
2, 49209, Note_on_c, 0, 60, 51
2, 49210, Note_on_c, 0, 89, 74
2, 49213, Note_on_c, 0, 96, 72
2, 49245, Note_on_c, 0, 96, 0
2, 49245, Note_on_c, 0, 101, 0
2, 49253, Note_on_c, 0, 89, 0
2, 49254, Note_on_c, 0, 60, 0
2, 49258, Note_on_c, 0, 67, 0
2, 49265, Note_on_c, 0, 56, 0
2, 49272, Note_on_c, 0, 62, 0
2, 49295, Note_on_c, 0, 67, 48
2, 49298, Note_on_c, 0, 56, 46
2, 49299, Note_on_c, 0, 98, 46
2, 49299, Note_on_c, 0, 62, 67
2, 49299, Note_on_c, 0, 86, 39
2, 49305, Note_on_c, 0, 60, 36
2, 49308, Control_c, 0, 64, 0
2, 49310, Note_on_c, 0, 98, 0
2, 49315, Note_on_c, 0, 86, 0
2, 49316, Note_on_c, 0, 60, 0
2, 49317, Note_on_c, 0, 67, 0
2, 49324, Note_on_c, 0, 62, 0
2, 49342, Note_on_c, 0, 56, 0
2, 49411, Note_on_c, 0, 53, 80
2, 49411, Note_on_c, 0, 64, 88
2, 49412, Note_on_c, 0, 59, 79
2, 49413, Note_on_c, 0, 82, 85
2, 49413, Note_on_c, 0, 94, 75
2, 49415, Note_on_c, 0, 56, 42
2, 49422, Note_on_c, 0, 95, 47
2, 49424, Note_on_c, 0, 56, 0
2, 49428, Note_on_c, 0, 96, 40
2, 49439, Note_on_c, 0, 96, 0
2, 49448, Note_on_c, 0, 95, 0
2, 49496, Control_c, 0, 64, 127
2, 49539, Note_on_c, 0, 82, 0
2, 49539, Note_on_c, 0, 94, 0
2, 49547, Control_c, 0, 64, 0
2, 49570, Note_on_c, 0, 94, 49
2, 49581, Control_c, 0, 64, 127
2, 49594, Note_on_c, 0, 64, 0
2, 49596, Note_on_c, 0, 53, 0
2, 49608, Note_on_c, 0, 94, 0
2, 49630, Note_on_c, 0, 59, 0
2, 49643, Note_on_c, 0, 82, 73
2, 49644, Note_on_c, 0, 97, 73
2, 49645, Note_on_c, 0, 63, 86
2, 49647, Control_c, 0, 64, 0
2, 49647, Note_on_c, 0, 59, 64
2, 49648, Note_on_c, 0, 56, 55
2, 49649, Note_on_c, 0, 53, 74
2, 49654, Note_on_c, 0, 94, 47
2, 49662, Note_on_c, 0, 94, 0
2, 49698, Control_c, 0, 64, 127
2, 49739, Note_on_c, 0, 59, 0
2, 49769, Note_on_c, 0, 97, 0
2, 49771, Note_on_c, 0, 82, 0
2, 49777, Control_c, 0, 64, 0
2, 49778, Note_on_c, 0, 63, 0
2, 49805, Note_on_c, 0, 94, 51
2, 49810, Control_c, 0, 64, 127
2, 49832, Note_on_c, 0, 53, 0
2, 49854, Note_on_c, 0, 56, 0
2, 49861, Note_on_c, 0, 94, 0
2, 49880, Note_on_c, 0, 58, 81
2, 49881, Note_on_c, 0, 62, 75
2, 49881, Note_on_c, 0, 84, 74
2, 49882, Note_on_c, 0, 96, 81
2, 49884, Note_on_c, 0, 91, 66
2, 49887, Note_on_c, 0, 52, 76
2, 49895, Note_on_c, 0, 62, 0
2, 49899, Control_c, 0, 64, 0
2, 49904, Note_on_c, 0, 84, 0
2, 49905, Note_on_c, 0, 96, 0
2, 49906, Note_on_c, 0, 91, 0
2, 49907, Note_on_c, 0, 58, 0
2, 49919, Note_on_c, 0, 52, 0
2, 49997, Note_on_c, 0, 46, 78
2, 50001, Note_on_c, 0, 48, 87
2, 50003, Note_on_c, 0, 47, 91
2, 50006, Note_on_c, 0, 46, 0
2, 50033, Note_on_c, 0, 47, 0
2, 50121, Note_on_c, 0, 47, 66
2, 50152, Control_c, 0, 64, 127
2, 50153, Note_on_c, 0, 47, 0
2, 50159, Note_on_c, 0, 87, 91
2, 50160, Control_c, 0, 64, 0
2, 50196, Note_on_c, 0, 87, 0
2, 50234, Note_on_c, 0, 46, 46
2, 50237, Note_on_c, 0, 88, 91
2, 50256, Note_on_c, 0, 48, 0
2, 50263, Note_on_c, 0, 46, 0
2, 50271, Note_on_c, 0, 88, 0
2, 50296, Note_on_c, 0, 87, 60
2, 50337, Note_on_c, 0, 87, 0
2, 50352, Note_on_c, 0, 85, 74
2, 50362, Note_on_c, 0, 58, 33
2, 50376, Note_on_c, 0, 58, 0
2, 50396, Note_on_c, 0, 85, 0
2, 50413, Note_on_c, 0, 84, 35
2, 50446, Note_on_c, 0, 84, 0
2, 50473, Note_on_c, 0, 82, 71
2, 50484, Note_on_c, 0, 58, 36
2, 50493, Note_on_c, 0, 58, 0
2, 50507, Note_on_c, 0, 82, 0
2, 50528, Note_on_c, 0, 81, 59
2, 50575, Note_on_c, 0, 81, 0
2, 50591, Note_on_c, 0, 82, 49
2, 50606, Note_on_c, 0, 81, 54
2, 50616, Note_on_c, 0, 58, 31
2, 50621, Note_on_c, 0, 82, 0
2, 50629, Note_on_c, 0, 58, 0
2, 50648, Note_on_c, 0, 81, 0
2, 50652, Note_on_c, 0, 79, 40
2, 50696, Note_on_c, 0, 79, 0
2, 50718, Note_on_c, 0, 78, 58
2, 50723, Note_on_c, 0, 61, 63
2, 50726, Note_on_c, 0, 58, 50
2, 50733, Note_on_c, 0, 61, 0
2, 50739, Note_on_c, 0, 58, 0
2, 50755, Note_on_c, 0, 78, 0
2, 50777, Note_on_c, 0, 76, 30
2, 50819, Note_on_c, 0, 76, 0
2, 50835, Note_on_c, 0, 75, 62
2, 50875, Note_on_c, 0, 75, 0
2, 50889, Note_on_c, 0, 73, 38
2, 50927, Control_c, 0, 64, 127
2, 50952, Note_on_c, 0, 73, 0
2, 50954, Note_on_c, 0, 72, 67
2, 50961, Note_on_c, 0, 61, 70
2, 50965, Note_on_c, 0, 58, 49
2, 50974, Note_on_c, 0, 61, 0
2, 50975, Control_c, 0, 64, 0
2, 50976, Note_on_c, 0, 58, 0
2, 50979, Note_on_c, 0, 72, 0
2, 51014, Note_on_c, 0, 70, 61
2, 51075, Note_on_c, 0, 68, 71
2, 51084, Note_on_c, 0, 58, 35
2, 51090, Note_on_c, 0, 70, 0
2, 51101, Note_on_c, 0, 58, 0
2, 51111, Note_on_c, 0, 68, 0
2, 51126, Note_on_c, 0, 66, 30
2, 51172, Note_on_c, 0, 66, 0
2, 51195, Note_on_c, 0, 64, 71
2, 51203, Note_on_c, 0, 58, 48
2, 51216, Note_on_c, 0, 58, 0
2, 51227, Note_on_c, 0, 64, 0
2, 51247, Note_on_c, 0, 63, 37
2, 51314, Note_on_c, 0, 61, 65
2, 51319, Note_on_c, 0, 48, 56
2, 51336, Note_on_c, 0, 63, 0
2, 51352, Note_on_c, 0, 61, 0
2, 51372, Note_on_c, 0, 60, 27
2, 51438, Note_on_c, 0, 47, 29
2, 51442, Note_on_c, 0, 48, 0
2, 51443, Note_on_c, 0, 60, 0
2, 51449, Note_on_c, 0, 47, 0
2, 51474, Note_on_c, 0, 58, 71
2, 51475, Control_c, 0, 64, 127
2, 51535, Control_c, 0, 64, 0
2, 51543, Note_on_c, 0, 58, 0
2, 51550, Note_on_c, 0, 48, 36
2, 51557, Note_on_c, 0, 46, 23
2, 51557, Note_on_c, 0, 52, 35
2, 51563, Note_on_c, 0, 48, 0
2, 51569, Note_on_c, 0, 46, 0
2, 51583, Note_on_c, 0, 52, 0
2, 51603, Note_on_c, 0, 54, 38
2, 51622, Control_c, 0, 64, 127
2, 51646, Control_c, 0, 64, 0
2, 51669, Note_on_c, 0, 54, 0
2, 51674, Note_on_c, 0, 56, 57
2, 51705, Note_on_c, 0, 56, 0
2, 51731, Note_on_c, 0, 59, 42
2, 51737, Control_c, 0, 64, 127
2, 51780, Note_on_c, 0, 59, 0
2, 51794, Note_on_c, 0, 61, 71
2, 51797, Control_c, 0, 64, 0
2, 51798, Note_on_c, 0, 52, 47
2, 51810, Note_on_c, 0, 52, 0
2, 51828, Note_on_c, 0, 61, 0
2, 51846, Note_on_c, 0, 63, 46
2, 51881, Control_c, 0, 64, 127
2, 51893, Note_on_c, 0, 63, 0
2, 51896, Control_c, 0, 64, 0
2, 51902, Note_on_c, 0, 64, 80
2, 51906, Note_on_c, 0, 54, 71
2, 51906, Note_on_c, 0, 59, 64
2, 51910, Note_on_c, 0, 62, 59
2, 51920, Note_on_c, 0, 62, 0
2, 51959, Note_on_c, 0, 66, 47
2, 52017, Note_on_c, 0, 66, 0
2, 52028, Note_on_c, 0, 68, 65
2, 52059, Note_on_c, 0, 68, 0
2, 52078, Note_on_c, 0, 71, 64
2, 52100, Note_on_c, 0, 64, 0
2, 52101, Note_on_c, 0, 59, 0
2, 52128, Note_on_c, 0, 54, 0
2, 52134, Note_on_c, 0, 71, 0
2, 52149, Note_on_c, 0, 72, 71
2, 52151, Note_on_c, 0, 63, 83
2, 52151, Note_on_c, 0, 53, 76
2, 52155, Note_on_c, 0, 58, 68
2, 52208, Note_on_c, 0, 73, 65
2, 52217, Note_on_c, 0, 72, 0
2, 52257, Control_c, 0, 64, 127
2, 52278, Note_on_c, 0, 58, 0
2, 52278, Note_on_c, 0, 75, 67
2, 52280, Note_on_c, 0, 53, 0
2, 52284, Note_on_c, 0, 63, 0
2, 52301, Note_on_c, 0, 73, 0
2, 52302, Control_c, 0, 64, 0
2, 52322, Note_on_c, 0, 53, 57
2, 52323, Note_on_c, 0, 75, 0
2, 52323, Note_on_c, 0, 64, 71
2, 52323, Note_on_c, 0, 56, 35
2, 52323, Note_on_c, 0, 60, 69
2, 52326, Note_on_c, 0, 76, 68
2, 52378, Note_on_c, 0, 76, 0
2, 52395, Note_on_c, 0, 79, 83
2, 52446, Note_on_c, 0, 79, 0
2, 52446, Note_on_c, 0, 76, 44
2, 52485, Control_c, 0, 64, 127
2, 52498, Note_on_c, 0, 76, 0
2, 52512, Note_on_c, 0, 77, 77
2, 52521, Control_c, 0, 64, 0
2, 52525, Note_on_c, 0, 64, 0
2, 52553, Note_on_c, 0, 60, 0
2, 52565, Note_on_c, 0, 77, 0
2, 52570, Note_on_c, 0, 72, 38
2, 52570, Note_on_c, 0, 74, 40
2, 52581, Note_on_c, 0, 74, 0
2, 52584, Note_on_c, 0, 53, 0
2, 52586, Note_on_c, 0, 56, 0
2, 52632, Note_on_c, 0, 68, 71
2, 52634, Note_on_c, 0, 60, 62
2, 52641, Note_on_c, 0, 56, 33
2, 52644, Note_on_c, 0, 72, 0
2, 52650, Note_on_c, 0, 53, 24
2, 52654, Note_on_c, 0, 60, 0
2, 52663, Note_on_c, 0, 68, 0
2, 52672, Note_on_c, 0, 56, 0
2, 52674, Note_on_c, 0, 53, 0
2, 52681, Note_on_c, 0, 67, 32
2, 52722, Control_c, 0, 64, 127
2, 52762, Note_on_c, 0, 67, 0
2, 52765, Control_c, 0, 64, 0
2, 52795, Note_on_c, 0, 67, 46
2, 52870, Note_on_c, 0, 67, 0
2, 52915, Note_on_c, 0, 67, 57
2, 52923, Control_c, 0, 64, 127
2, 52983, Note_on_c, 0, 67, 0
2, 52997, Note_on_c, 0, 65, 24
2, 53011, Control_c, 0, 64, 0
2, 53023, Note_on_c, 0, 65, 0
2, 53042, Note_on_c, 0, 67, 45
2, 53097, Note_on_c, 0, 67, 0
2, 53114, Note_on_c, 0, 68, 70
2, 53132, Note_on_c, 0, 48, 26
2, 53142, Note_on_c, 0, 48, 0
2, 53147, Note_on_c, 0, 68, 0
2, 53159, Note_on_c, 0, 67, 34
2, 53229, Note_on_c, 0, 67, 0
2, 53249, Note_on_c, 0, 65, 32
2, 53264, Note_on_c, 0, 65, 0
2, 53288, Note_on_c, 0, 67, 65
2, 53318, Control_c, 0, 64, 127
2, 53336, Control_c, 0, 64, 0
2, 53345, Note_on_c, 0, 67, 0
2, 53354, Note_on_c, 0, 68, 64
2, 53364, Note_on_c, 0, 48, 69
2, 53365, Note_on_c, 0, 47, 72
2, 53375, Note_on_c, 0, 47, 0
2, 53378, Note_on_c, 0, 68, 0
2, 53384, Note_on_c, 0, 67, 47
2, 53499, Note_on_c, 0, 67, 0
2, 53521, Note_on_c, 0, 65, 59
2, 53522, Control_c, 0, 64, 127
2, 53567, Control_c, 0, 64, 0
2, 53587, Note_on_c, 0, 47, 41
2, 53598, Note_on_c, 0, 47, 0
2, 53606, Note_on_c, 0, 65, 0
2, 53617, Note_on_c, 0, 64, 58
2, 53622, Note_on_c, 0, 43, 19
2, 53645, Note_on_c, 0, 43, 0
2, 53646, Note_on_c, 0, 64, 0
2, 53647, Note_on_c, 0, 48, 0
2, 53711, Note_on_c, 0, 48, 89
2, 53714, Note_on_c, 0, 47, 72
2, 53724, Note_on_c, 0, 47, 0
2, 53796, Control_c, 0, 64, 127
2, 53811, Control_c, 0, 64, 0
2, 53837, Note_on_c, 0, 47, 43
2, 53838, Note_on_c, 0, 84, 90
2, 53839, Note_on_c, 0, 72, 91
2, 53849, Note_on_c, 0, 47, 0
2, 53857, Note_on_c, 0, 72, 0
2, 53875, Note_on_c, 0, 84, 0
2, 53914, Control_c, 0, 64, 127
2, 53925, Note_on_c, 0, 77, 84
2, 53925, Note_on_c, 0, 89, 89
2, 53952, Note_on_c, 0, 77, 0
2, 53957, Note_on_c, 0, 89, 0
2, 53979, Control_c, 0, 64, 0
2, 53998, Note_on_c, 0, 46, 53
2, 54004, Note_on_c, 0, 80, 70
2, 54006, Note_on_c, 0, 92, 83
2, 54012, Control_c, 0, 64, 127
2, 54017, Note_on_c, 0, 48, 0
2, 54021, Note_on_c, 0, 46, 0
2, 54035, Note_on_c, 0, 80, 0
2, 54050, Note_on_c, 0, 92, 0
2, 54086, Note_on_c, 0, 93, 82
2, 54087, Control_c, 0, 64, 0
2, 54089, Note_on_c, 0, 81, 71
2, 54112, Note_on_c, 0, 81, 0
2, 54114, Note_on_c, 0, 93, 0
2, 54129, Control_c, 0, 64, 127
2, 54167, Note_on_c, 0, 94, 71
2, 54168, Note_on_c, 0, 82, 75
2, 54198, Note_on_c, 0, 82, 0
2, 54203, Note_on_c, 0, 94, 0
2, 54238, Control_c, 0, 64, 0
2, 54248, Note_on_c, 0, 58, 59
2, 54249, Note_on_c, 0, 69, 62
2, 54254, Note_on_c, 0, 84, 71
2, 54254, Note_on_c, 0, 96, 76
2, 54256, Note_on_c, 0, 64, 53
2, 54303, Note_on_c, 0, 96, 0
2, 54303, Note_on_c, 0, 84, 0
2, 54305, Note_on_c, 0, 64, 0
2, 54307, Note_on_c, 0, 69, 0
2, 54310, Note_on_c, 0, 58, 0
2, 54386, Control_c, 0, 64, 127
2, 54446, Control_c, 0, 64, 0
2, 54491, Note_on_c, 0, 97, 83
2, 54492, Note_on_c, 0, 61, 64
2, 54492, Note_on_c, 0, 85, 81
2, 54494, Note_on_c, 0, 58, 70
2, 54494, Note_on_c, 0, 64, 66
2, 54494, Note_on_c, 0, 69, 65
2, 54497, Note_on_c, 0, 92, 69
2, 54498, Note_on_c, 0, 71, 46
2, 54501, Control_c, 0, 64, 127
2, 54507, Note_on_c, 0, 71, 0
2, 54538, Note_on_c, 0, 85, 0
2, 54544, Note_on_c, 0, 92, 0
2, 54551, Note_on_c, 0, 97, 0
2, 54552, Note_on_c, 0, 69, 0
2, 54553, Note_on_c, 0, 58, 0
2, 54555, Note_on_c, 0, 61, 0
2, 54561, Note_on_c, 0, 64, 0
2, 54578, Note_on_c, 0, 99, 72
2, 54580, Note_on_c, 0, 87, 73
2, 54582, Note_on_c, 0, 69, 52
2, 54584, Note_on_c, 0, 61, 46
2, 54586, Note_on_c, 0, 94, 56
2, 54587, Note_on_c, 0, 64, 59
2, 54592, Note_on_c, 0, 58, 38
2, 54593, Control_c, 0, 64, 0
2, 54596, Note_on_c, 0, 94, 0
2, 54597, Note_on_c, 0, 87, 0
2, 54599, Note_on_c, 0, 99, 0
2, 54621, Note_on_c, 0, 85, 53
2, 54623, Note_on_c, 0, 97, 37
2, 54628, Note_on_c, 0, 92, 35
2, 54632, Note_on_c, 0, 69, 0
2, 54636, Control_c, 0, 64, 127
2, 54641, Note_on_c, 0, 64, 0
2, 54645, Note_on_c, 0, 92, 0
2, 54648, Note_on_c, 0, 61, 0
2, 54649, Note_on_c, 0, 58, 0
2, 54666, Note_on_c, 0, 85, 0
2, 54671, Note_on_c, 0, 97, 0
2, 54695, Note_on_c, 0, 63, 77
2, 54695, Note_on_c, 0, 96, 68
2, 54696, Control_c, 0, 64, 0
2, 54698, Note_on_c, 0, 58, 69
2, 54699, Note_on_c, 0, 84, 48
2, 54705, Note_on_c, 0, 96, 0
2, 54708, Note_on_c, 0, 58, 0
2, 54708, Note_on_c, 0, 52, 35
2, 54713, Note_on_c, 0, 63, 0
2, 54716, Note_on_c, 0, 84, 0
2, 54720, Note_on_c, 0, 52, 0
2, 54862, Control_c, 0, 64, 127
2, 54951, Control_c, 0, 64, 0
2, 55080, Note_on_c, 0, 63, 85
2, 55082, Note_on_c, 0, 53, 67
2, 55083, Note_on_c, 0, 58, 69
2, 55083, Note_on_c, 0, 85, 88
2, 55083, Note_on_c, 0, 73, 91
2, 55088, Note_on_c, 0, 80, 74
2, 55119, Note_on_c, 0, 80, 0
2, 55119, Note_on_c, 0, 73, 0
2, 55122, Note_on_c, 0, 63, 0
2, 55122, Note_on_c, 0, 53, 0
2, 55126, Note_on_c, 0, 85, 0
2, 55128, Note_on_c, 0, 58, 0
2, 55200, Note_on_c, 0, 63, 83
2, 55202, Note_on_c, 0, 53, 73
2, 55203, Note_on_c, 0, 58, 64
2, 55205, Note_on_c, 0, 87, 85
2, 55206, Note_on_c, 0, 75, 91
2, 55208, Note_on_c, 0, 82, 82
2, 55261, Note_on_c, 0, 87, 0
2, 55269, Note_on_c, 0, 53, 0
2, 55272, Note_on_c, 0, 75, 0
2, 55274, Note_on_c, 0, 63, 0
2, 55278, Note_on_c, 0, 82, 0
2, 55293, Note_on_c, 0, 63, 64
2, 55295, Note_on_c, 0, 73, 69
2, 55296, Note_on_c, 0, 85, 57
2, 55298, Note_on_c, 0, 53, 66
2, 55301, Note_on_c, 0, 80, 40
2, 55317, Note_on_c, 0, 80, 0
2, 55320, Note_on_c, 0, 63, 0
2, 55321, Note_on_c, 0, 73, 0
2, 55328, Note_on_c, 0, 53, 0
2, 55335, Note_on_c, 0, 85, 0
2, 55337, Note_on_c, 0, 58, 0
2, 55350, Control_c, 0, 64, 127
2, 55396, Control_c, 0, 64, 0
2, 55403, Note_on_c, 0, 58, 63
2, 55403, Note_on_c, 0, 63, 71
2, 55406, Note_on_c, 0, 84, 70
2, 55407, Note_on_c, 0, 72, 73
2, 55408, Note_on_c, 0, 79, 63
2, 55413, Note_on_c, 0, 52, 24
2, 55421, Note_on_c, 0, 72, 0
2, 55422, Note_on_c, 0, 63, 0
2, 55423, Note_on_c, 0, 79, 0
2, 55427, Note_on_c, 0, 84, 0
2, 55431, Note_on_c, 0, 58, 0
2, 55433, Note_on_c, 0, 52, 0
2, 55521, Note_on_c, 0, 48, 89
2, 55523, Note_on_c, 0, 36, 94
2, 55554, Control_c, 0, 64, 127
2, 55557, Control_c, 0, 64, 0
2, 55667, Note_on_c, 0, 48, 0
2, 55668, Note_on_c, 0, 43, 51
2, 55682, Note_on_c, 0, 43, 0
2, 55703, Note_on_c, 0, 48, 22
2, 55715, Note_on_c, 0, 48, 0
2, 55732, Note_on_c, 0, 49, 53
2, 55755, Note_on_c, 0, 49, 0
2, 55758, Note_on_c, 0, 43, 30
2, 55759, Note_on_c, 0, 51, 59
2, 55782, Note_on_c, 0, 51, 0
2, 55782, Note_on_c, 0, 43, 0
2, 55789, Note_on_c, 0, 52, 73
2, 55800, Note_on_c, 0, 48, 26
2, 55815, Note_on_c, 0, 52, 0
2, 55818, Note_on_c, 0, 48, 0
2, 55827, Note_on_c, 0, 54, 46
2, 55840, Note_on_c, 0, 54, 0
2, 55860, Note_on_c, 0, 43, 27
2, 55864, Note_on_c, 0, 55, 36
2, 55879, Note_on_c, 0, 43, 0
2, 55881, Note_on_c, 0, 55, 0
2, 55883, Note_on_c, 0, 36, 0
2, 55894, Note_on_c, 0, 57, 60
2, 55895, Note_on_c, 0, 48, 27
2, 55913, Note_on_c, 0, 48, 0
2, 55919, Note_on_c, 0, 57, 0
2, 55925, Note_on_c, 0, 58, 56
2, 55949, Note_on_c, 0, 58, 0
2, 55962, Note_on_c, 0, 60, 62
2, 55978, Note_on_c, 0, 60, 0
2, 55987, Note_on_c, 0, 61, 59
2, 56019, Note_on_c, 0, 61, 0
2, 56022, Note_on_c, 0, 63, 28
2, 56057, Note_on_c, 0, 63, 0
2, 56064, Note_on_c, 0, 64, 50
2, 56091, Note_on_c, 0, 64, 0
2, 56099, Note_on_c, 0, 67, 68
2, 56106, Note_on_c, 0, 69, 51
2, 56118, Note_on_c, 0, 69, 0
2, 56120, Note_on_c, 0, 56, 37
2, 56121, Note_on_c, 0, 60, 38
2, 56127, Note_on_c, 0, 67, 0
2, 56133, Note_on_c, 0, 60, 0
2, 56135, Note_on_c, 0, 64, 58
2, 56158, Note_on_c, 0, 56, 0
2, 56160, Note_on_c, 0, 64, 0
2, 56170, Note_on_c, 0, 65, 53
2, 56208, Note_on_c, 0, 65, 0
2, 56208, Note_on_c, 0, 67, 66
2, 56232, Note_on_c, 0, 67, 0
2, 56269, Note_on_c, 0, 71, 40
2, 56281, Note_on_c, 0, 71, 0
2, 56318, Note_on_c, 0, 76, 64
2, 56341, Note_on_c, 0, 76, 0
2, 56347, Note_on_c, 0, 79, 90
2, 56363, Note_on_c, 0, 60, 29
2, 56368, Note_on_c, 0, 56, 25
2, 56388, Note_on_c, 0, 60, 0
2, 56394, Note_on_c, 0, 77, 64
2, 56400, Note_on_c, 0, 56, 0
2, 56412, Note_on_c, 0, 79, 0
2, 56446, Note_on_c, 0, 73, 77
2, 56463, Note_on_c, 0, 77, 0
2, 56485, Note_on_c, 0, 73, 0
2, 56526, Note_on_c, 0, 74, 51
2, 56527, Note_on_c, 0, 72, 44
2, 56540, Note_on_c, 0, 74, 0
2, 56552, Note_on_c, 0, 72, 0
2, 56596, Note_on_c, 0, 68, 79
2, 56610, Note_on_c, 0, 56, 33
2, 56629, Note_on_c, 0, 68, 0
2, 56633, Note_on_c, 0, 56, 0
2, 56651, Note_on_c, 0, 67, 44
2, 56703, Note_on_c, 0, 67, 0
2, 56723, Note_on_c, 0, 70, 78
2, 56728, Note_on_c, 0, 60, 60
2, 56730, Note_on_c, 0, 56, 43
2, 56739, Note_on_c, 0, 60, 0
2, 56754, Note_on_c, 0, 70, 0
2, 56757, Note_on_c, 0, 56, 0
2, 56773, Note_on_c, 0, 68, 56
2, 56814, Note_on_c, 0, 68, 0
2, 56840, Note_on_c, 0, 70, 38
2, 56851, Note_on_c, 0, 68, 71
2, 56859, Note_on_c, 0, 59, 43
2, 56861, Note_on_c, 0, 63, 33
2, 56870, Note_on_c, 0, 63, 0
2, 56871, Note_on_c, 0, 70, 0
2, 56876, Note_on_c, 0, 59, 0
2, 56888, Note_on_c, 0, 67, 46
2, 56891, Note_on_c, 0, 68, 0
2, 56941, Note_on_c, 0, 67, 0
2, 56963, Note_on_c, 0, 66, 52
2, 56988, Note_on_c, 0, 66, 0
2, 57000, Note_on_c, 0, 65, 37
2, 57051, Control_c, 0, 64, 127
2, 57075, Note_on_c, 0, 65, 0
2, 57084, Note_on_c, 0, 64, 44
2, 57085, Note_on_c, 0, 58, 61
2, 57095, Note_on_c, 0, 58, 0
2, 57096, Control_c, 0, 64, 0
2, 57097, Note_on_c, 0, 48, 24
2, 57106, Note_on_c, 0, 64, 0
2, 57119, Note_on_c, 0, 48, 0
2, 57122, Note_on_c, 0, 67, 78
2, 57189, Note_on_c, 0, 67, 0
2, 57213, Note_on_c, 0, 64, 25
2, 57223, Note_on_c, 0, 64, 0
2, 57236, Note_on_c, 0, 47, 57
2, 57237, Note_on_c, 0, 48, 60
2, 57242, Note_on_c, 0, 65, 78
2, 57248, Note_on_c, 0, 47, 0
2, 57318, Note_on_c, 0, 65, 0
2, 57323, Note_on_c, 0, 60, 57
2, 57336, Note_on_c, 0, 60, 0
2, 57360, Control_c, 0, 64, 127
2, 57433, Note_on_c, 0, 62, 80
2, 57438, Note_on_c, 0, 46, 36
2, 57442, Control_c, 0, 64, 0
2, 57449, Note_on_c, 0, 48, 0
2, 57453, Note_on_c, 0, 46, 0
2, 57463, Note_on_c, 0, 62, 0
2, 57490, Note_on_c, 0, 63, 44
2, 57508, Control_c, 0, 64, 127
2, 57532, Note_on_c, 0, 63, 0
2, 57555, Note_on_c, 0, 64, 69
2, 57555, Note_on_c, 0, 56, 64
2, 57555, Note_on_c, 0, 46, 59
2, 57559, Control_c, 0, 64, 0
2, 57578, Note_on_c, 0, 56, 0
2, 57583, Note_on_c, 0, 46, 0
2, 57590, Note_on_c, 0, 64, 0
2, 57604, Control_c, 0, 64, 127
2, 57611, Note_on_c, 0, 67, 55
2, 57673, Note_on_c, 0, 62, 31
2, 57674, Note_on_c, 0, 56, 29
2, 57676, Note_on_c, 0, 67, 0
2, 57676, Note_on_c, 0, 72, 74
2, 57687, Note_on_c, 0, 56, 0
2, 57687, Note_on_c, 0, 62, 0
2, 57698, Control_c, 0, 64, 0
2, 57700, Note_on_c, 0, 72, 0
2, 57719, Note_on_c, 0, 62, 43
2, 57723, Note_on_c, 0, 56, 25
2, 57734, Note_on_c, 0, 62, 0
2, 57734, Control_c, 0, 64, 127
2, 57735, Note_on_c, 0, 56, 0
2, 57788, Note_on_c, 0, 76, 65
2, 57789, Note_on_c, 0, 56, 58
2, 57789, Note_on_c, 0, 62, 71
2, 57790, Note_on_c, 0, 67, 60
2, 57800, Note_on_c, 0, 67, 0
2, 57803, Control_c, 0, 64, 0
2, 57808, Note_on_c, 0, 76, 0
2, 57812, Note_on_c, 0, 62, 0
2, 57813, Note_on_c, 0, 56, 0
2, 57842, Note_on_c, 0, 62, 47
2, 57857, Note_on_c, 0, 62, 0
2, 57879, Control_c, 0, 64, 127
2, 57908, Note_on_c, 0, 62, 67
2, 57910, Note_on_c, 0, 81, 71
2, 57912, Control_c, 0, 64, 0
2, 57912, Note_on_c, 0, 56, 49
2, 57912, Note_on_c, 0, 67, 55
2, 57920, Note_on_c, 0, 81, 0
2, 57921, Note_on_c, 0, 67, 0
2, 57922, Note_on_c, 0, 56, 0
2, 57932, Note_on_c, 0, 62, 0
2, 57954, Note_on_c, 0, 62, 71
2, 57960, Note_on_c, 0, 56, 35
2, 57975, Note_on_c, 0, 56, 0
2, 57976, Note_on_c, 0, 62, 0
2, 57976, Control_c, 0, 64, 127
2, 58038, Note_on_c, 0, 82, 62
2, 58056, Note_on_c, 0, 82, 0
2, 58066, Control_c, 0, 64, 0
2, 58081, Note_on_c, 0, 63, 90
2, 58082, Note_on_c, 0, 73, 83
2, 58083, Note_on_c, 0, 85, 86
2, 58084, Note_on_c, 0, 52, 82
2, 58086, Note_on_c, 0, 58, 48
2, 58087, Note_on_c, 0, 80, 58
2, 58098, Note_on_c, 0, 57, 36
2, 58100, Note_on_c, 0, 82, 18
2, 58112, Note_on_c, 0, 57, 0
2, 58116, Note_on_c, 0, 73, 0
2, 58120, Note_on_c, 0, 80, 0
2, 58121, Note_on_c, 0, 82, 0
2, 58121, Note_on_c, 0, 58, 0
2, 58121, Note_on_c, 0, 85, 0
2, 58127, Note_on_c, 0, 63, 0
2, 58131, Note_on_c, 0, 52, 0
2, 58158, Note_on_c, 0, 63, 73
2, 58158, Note_on_c, 0, 87, 77
2, 58159, Note_on_c, 0, 52, 66
2, 58160, Note_on_c, 0, 75, 81
2, 58162, Note_on_c, 0, 58, 70
2, 58162, Note_on_c, 0, 82, 71
2, 58182, Note_on_c, 0, 75, 0
2, 58184, Note_on_c, 0, 87, 0
2, 58189, Note_on_c, 0, 63, 0
2, 58191, Note_on_c, 0, 52, 0
2, 58193, Note_on_c, 0, 82, 0
2, 58199, Note_on_c, 0, 58, 0
2, 58209, Note_on_c, 0, 85, 47
2, 58210, Note_on_c, 0, 63, 62
2, 58213, Note_on_c, 0, 73, 45
2, 58214, Note_on_c, 0, 58, 38
2, 58216, Note_on_c, 0, 52, 49
2, 58242, Note_on_c, 0, 52, 0
2, 58245, Note_on_c, 0, 85, 0
2, 58247, Note_on_c, 0, 73, 0
2, 58251, Note_on_c, 0, 63, 0
2, 58258, Note_on_c, 0, 58, 0
2, 58281, Note_on_c, 0, 87, 76
2, 58282, Note_on_c, 0, 63, 69
2, 58282, Note_on_c, 0, 75, 77
2, 58283, Note_on_c, 0, 58, 63
2, 58286, Note_on_c, 0, 82, 67
2, 58288, Note_on_c, 0, 52, 64
2, 58299, Note_on_c, 0, 52, 0
2, 58305, Note_on_c, 0, 75, 0
2, 58307, Note_on_c, 0, 63, 0
2, 58308, Note_on_c, 0, 87, 0
2, 58317, Note_on_c, 0, 58, 0
2, 58319, Note_on_c, 0, 82, 0
2, 58331, Note_on_c, 0, 63, 50
2, 58337, Note_on_c, 0, 58, 50
2, 58337, Note_on_c, 0, 52, 61
2, 58340, Note_on_c, 0, 85, 56
2, 58342, Note_on_c, 0, 73, 53
2, 58347, Note_on_c, 0, 80, 45
2, 58349, Control_c, 0, 64, 127
2, 58377, Note_on_c, 0, 52, 0
2, 58380, Note_on_c, 0, 73, 0
2, 58386, Note_on_c, 0, 85, 0
2, 58386, Note_on_c, 0, 80, 0
2, 58391, Note_on_c, 0, 63, 0
2, 58400, Control_c, 0, 64, 0
2, 58401, Note_on_c, 0, 58, 0
2, 58443, Note_on_c, 0, 63, 71
2, 58446, Note_on_c, 0, 58, 57
2, 58447, Note_on_c, 0, 87, 75
2, 58447, Note_on_c, 0, 52, 62
2, 58449, Note_on_c, 0, 75, 71
2, 58451, Note_on_c, 0, 82, 67
2, 58461, Control_c, 0, 64, 127
2, 58482, Note_on_c, 0, 52, 0
2, 58485, Note_on_c, 0, 87, 0
2, 58487, Note_on_c, 0, 63, 0
2, 58488, Note_on_c, 0, 58, 0
2, 58488, Note_on_c, 0, 82, 0
2, 58491, Note_on_c, 0, 75, 0
2, 58527, Note_on_c, 0, 80, 51
2, 58533, Control_c, 0, 64, 0
2, 58534, Note_on_c, 0, 64, 57
2, 58538, Note_on_c, 0, 60, 50
2, 58538, Note_on_c, 0, 84, 49
2, 58544, Note_on_c, 0, 64, 0
2, 58549, Note_on_c, 0, 60, 0
2, 58550, Note_on_c, 0, 84, 0
2, 58552, Note_on_c, 0, 80, 0
2, 58687, Control_c, 0, 64, 127
2, 58782, Control_c, 0, 64, 0
2, 58806, Note_on_c, 0, 64, 84
2, 58806, Note_on_c, 0, 97, 85
2, 58807, Note_on_c, 0, 85, 92
2, 58808, Note_on_c, 0, 53, 71
2, 58809, Note_on_c, 0, 59, 66
2, 58812, Note_on_c, 0, 56, 35
2, 58812, Note_on_c, 0, 92, 73
2, 58821, Note_on_c, 0, 56, 0
2, 58848, Note_on_c, 0, 85, 0
2, 58850, Note_on_c, 0, 92, 0
2, 58851, Note_on_c, 0, 53, 0
2, 58853, Note_on_c, 0, 64, 0
2, 58859, Note_on_c, 0, 97, 0
2, 58859, Note_on_c, 0, 59, 0
2, 58927, Note_on_c, 0, 99, 84
2, 58928, Note_on_c, 0, 87, 90
2, 58929, Note_on_c, 0, 59, 77
2, 58929, Note_on_c, 0, 64, 81
2, 58930, Note_on_c, 0, 94, 77
2, 58931, Note_on_c, 0, 53, 74
2, 58937, Note_on_c, 0, 56, 30
2, 58943, Control_c, 0, 64, 127
2, 58953, Note_on_c, 0, 56, 0
2, 58955, Note_on_c, 0, 64, 0
2, 58965, Note_on_c, 0, 53, 0
2, 58971, Note_on_c, 0, 94, 0
2, 58973, Note_on_c, 0, 59, 0
2, 58974, Note_on_c, 0, 99, 0
2, 58977, Note_on_c, 0, 87, 0
2, 59022, Control_c, 0, 64, 0
2, 59047, Note_on_c, 0, 58, 61
2, 59048, Note_on_c, 0, 63, 77
2, 59052, Note_on_c, 0, 52, 62
2, 59052, Note_on_c, 0, 96, 85
2, 59053, Note_on_c, 0, 84, 77
2, 59175, Control_c, 0, 64, 127
2, 59196, Note_on_c, 0, 84, 0
2, 59212, Note_on_c, 0, 96, 0
2, 59232, Note_on_c, 0, 52, 0
2, 59243, Note_on_c, 0, 63, 0
2, 59245, Note_on_c, 0, 58, 0
2, 59272, Control_c, 0, 64, 0
2, 59285, Note_on_c, 0, 63, 75
2, 59287, Note_on_c, 0, 58, 71
2, 59288, Note_on_c, 0, 52, 72
2, 59291, Note_on_c, 0, 85, 87
2, 59293, Note_on_c, 0, 97, 80
2, 59336, Note_on_c, 0, 97, 0
2, 59337, Note_on_c, 0, 85, 0
2, 59344, Note_on_c, 0, 52, 0
2, 59349, Note_on_c, 0, 63, 0
2, 59370, Note_on_c, 0, 63, 60
2, 59372, Note_on_c, 0, 99, 74
2, 59372, Note_on_c, 0, 52, 62
2, 59375, Note_on_c, 0, 87, 53
2, 59393, Note_on_c, 0, 87, 0
2, 59401, Note_on_c, 0, 99, 0
2, 59407, Note_on_c, 0, 52, 0
2, 59411, Note_on_c, 0, 63, 0
2, 59421, Control_c, 0, 64, 127
2, 59436, Note_on_c, 0, 58, 0
2, 59457, Control_c, 0, 64, 0
2, 59481, Note_on_c, 0, 64, 75
2, 59481, Note_on_c, 0, 59, 66
2, 59483, Note_on_c, 0, 53, 61
2, 59484, Note_on_c, 0, 100, 80
2, 59485, Note_on_c, 0, 88, 84
2, 59507, Note_on_c, 0, 88, 0
2, 59510, Note_on_c, 0, 64, 0
2, 59517, Note_on_c, 0, 100, 0
2, 59521, Note_on_c, 0, 59, 0
2, 59523, Note_on_c, 0, 53, 0
2, 59598, Note_on_c, 0, 63, 79
2, 59599, Note_on_c, 0, 58, 73
2, 59599, Note_on_c, 0, 101, 77
2, 59599, Note_on_c, 0, 89, 84
2, 59602, Note_on_c, 0, 52, 68
2, 59612, Note_on_c, 0, 52, 0
2, 59619, Note_on_c, 0, 63, 0
2, 59627, Note_on_c, 0, 89, 0
2, 59628, Note_on_c, 0, 58, 0
2, 59630, Note_on_c, 0, 101, 0
2, 59706, Note_on_c, 0, 58, 83
2, 59707, Note_on_c, 0, 63, 85
2, 59712, Note_on_c, 0, 52, 72
2, 59712, Note_on_c, 0, 90, 83
2, 59715, Note_on_c, 0, 103, 71
2, 59716, Note_on_c, 0, 102, 46
2, 59722, Note_on_c, 0, 101, 55
2, 59733, Note_on_c, 0, 101, 0
2, 59733, Note_on_c, 0, 63, 0
2, 59738, Note_on_c, 0, 52, 0
2, 59743, Note_on_c, 0, 103, 0
2, 59746, Note_on_c, 0, 102, 0
2, 59747, Note_on_c, 0, 90, 0
2, 59753, Note_on_c, 0, 58, 0
2, 59781, Note_on_c, 0, 63, 76
2, 59782, Note_on_c, 0, 58, 68
2, 59786, Note_on_c, 0, 102, 60
2, 59786, Note_on_c, 0, 52, 70
2, 59786, Note_on_c, 0, 90, 73
2, 59790, Control_c, 0, 64, 127
2, 59793, Note_on_c, 0, 103, 66
2, 59798, Note_on_c, 0, 101, 54
2, 59807, Note_on_c, 0, 90, 0
2, 59808, Note_on_c, 0, 91, 68
2, 59809, Note_on_c, 0, 101, 0
2, 59826, Control_c, 0, 64, 0
2, 59827, Note_on_c, 0, 63, 0
2, 59829, Note_on_c, 0, 103, 0
2, 59835, Note_on_c, 0, 52, 0
2, 59837, Note_on_c, 0, 91, 0
2, 59841, Note_on_c, 0, 102, 0
2, 59842, Note_on_c, 0, 58, 0
2, 59870, Note_on_c, 0, 58, 56
2, 59871, Note_on_c, 0, 52, 55
2, 59872, Note_on_c, 0, 63, 67
2, 59879, Note_on_c, 0, 99, 75
2, 59880, Note_on_c, 0, 87, 74
2, 59899, Note_on_c, 0, 87, 0
2, 59910, Note_on_c, 0, 88, 24
2, 59912, Note_on_c, 0, 89, 34
2, 59916, Control_c, 0, 64, 127
2, 59925, Note_on_c, 0, 89, 0
2, 59925, Note_on_c, 0, 52, 0
2, 59925, Note_on_c, 0, 99, 0
2, 59925, Note_on_c, 0, 88, 0
2, 59933, Note_on_c, 0, 63, 0
2, 59941, Note_on_c, 0, 58, 0
2, 59952, Control_c, 0, 64, 0
2, 59957, Note_on_c, 0, 64, 56
2, 59960, Note_on_c, 0, 96, 79
2, 59964, Note_on_c, 0, 53, 49
2, 59964, Note_on_c, 0, 84, 77
2, 59964, Note_on_c, 0, 60, 71
2, 59965, Note_on_c, 0, 56, 58
2, 60092, Note_on_c, 0, 96, 0
2, 60095, Note_on_c, 0, 84, 0
2, 60121, Note_on_c, 0, 92, 78
2, 60131, Note_on_c, 0, 94, 34
2, 60146, Note_on_c, 0, 94, 0
2, 60160, Note_on_c, 0, 92, 0
2, 60205, Note_on_c, 0, 64, 0
2, 60209, Note_on_c, 0, 91, 96
2, 60242, Note_on_c, 0, 60, 0
2, 60249, Note_on_c, 0, 53, 0
2, 60252, Note_on_c, 0, 56, 0
2, 60268, Note_on_c, 0, 91, 0
2, 60279, Note_on_c, 0, 92, 52
2, 60303, Note_on_c, 0, 92, 0
2, 60311, Note_on_c, 0, 91, 64
2, 60337, Note_on_c, 0, 89, 59
2, 60344, Note_on_c, 0, 91, 0
2, 60363, Note_on_c, 0, 89, 0
2, 60381, Note_on_c, 0, 88, 75
2, 60435, Note_on_c, 0, 88, 0
2, 60450, Note_on_c, 0, 91, 76
2, 60466, Note_on_c, 0, 60, 26
2, 60478, Note_on_c, 0, 60, 0
2, 60497, Note_on_c, 0, 91, 0
2, 60501, Note_on_c, 0, 89, 62
2, 60556, Note_on_c, 0, 89, 0
2, 60564, Note_on_c, 0, 84, 71
2, 60567, Note_on_c, 0, 64, 44
2, 60569, Note_on_c, 0, 56, 29
2, 60572, Note_on_c, 0, 60, 38
2, 60579, Note_on_c, 0, 64, 0
2, 60588, Note_on_c, 0, 84, 0
2, 60588, Note_on_c, 0, 60, 0
2, 60599, Note_on_c, 0, 56, 0
2, 60722, Note_on_c, 0, 79, 55
2, 60790, Note_on_c, 0, 79, 0
2, 60800, Note_on_c, 0, 80, 60
2, 60802, Note_on_c, 0, 53, 53
2, 60815, Note_on_c, 0, 53, 0
2, 60817, Note_on_c, 0, 79, 48
2, 60831, Note_on_c, 0, 77, 44
2, 60835, Note_on_c, 0, 80, 0
2, 60848, Note_on_c, 0, 79, 0
2, 60907, Note_on_c, 0, 77, 0
2, 60923, Note_on_c, 0, 76, 60
2, 60945, Note_on_c, 0, 76, 0
2, 60961, Note_on_c, 0, 79, 76
2, 61022, Note_on_c, 0, 79, 0
2, 61034, Note_on_c, 0, 76, 48
2, 61060, Note_on_c, 0, 76, 0
2, 61072, Control_c, 0, 64, 127
2, 61076, Note_on_c, 0, 77, 62
2, 61156, Control_c, 0, 64, 0
2, 61158, Note_on_c, 0, 72, 66
2, 61176, Note_on_c, 0, 60, 31
2, 61189, Note_on_c, 0, 60, 0
2, 61205, Control_c, 0, 64, 127
2, 61213, Note_on_c, 0, 77, 0
2, 61221, Note_on_c, 0, 72, 0
2, 61287, Note_on_c, 0, 56, 31
2, 61304, Note_on_c, 0, 56, 0
2, 61307, Control_c, 0, 64, 0
2, 61320, Note_on_c, 0, 74, 56
2, 61323, Note_on_c, 0, 68, 60
2, 61325, Note_on_c, 0, 64, 47
2, 61327, Note_on_c, 0, 58, 58
2, 61352, Control_c, 0, 64, 127
2, 61370, Note_on_c, 0, 74, 0
2, 61386, Note_on_c, 0, 64, 0
2, 61389, Note_on_c, 0, 68, 0
2, 61397, Control_c, 0, 64, 0
2, 61399, Note_on_c, 0, 58, 0
2, 61408, Note_on_c, 0, 72, 56
2, 61410, Note_on_c, 0, 67, 57
2, 61411, Note_on_c, 0, 62, 57
2, 61415, Note_on_c, 0, 57, 68
2, 61455, Note_on_c, 0, 72, 0
2, 61455, Control_c, 0, 64, 127
2, 61458, Note_on_c, 0, 67, 0
2, 61493, Note_on_c, 0, 62, 0
2, 61510, Note_on_c, 0, 57, 0
2, 61520, Note_on_c, 0, 51, 51
2, 61532, Control_c, 0, 64, 0
2, 61545, Note_on_c, 0, 51, 0
2, 61562, Note_on_c, 0, 53, 41
2, 61566, Note_on_c, 0, 69, 31
2, 61568, Note_on_c, 0, 60, 47
2, 61571, Control_c, 0, 64, 127
2, 61579, Note_on_c, 0, 69, 0
2, 61587, Note_on_c, 0, 60, 0
2, 61634, Control_c, 0, 64, 0
2, 61643, Note_on_c, 0, 65, 61
2, 61648, Note_on_c, 0, 53, 0
2, 61648, Note_on_c, 0, 62, 49
2, 61648, Note_on_c, 0, 57, 52
2, 61648, Note_on_c, 0, 60, 57
2, 61651, Note_on_c, 0, 50, 47
2, 61664, Note_on_c, 0, 50, 0
2, 61683, Control_c, 0, 64, 127
2, 61710, Note_on_c, 0, 57, 0
2, 61715, Note_on_c, 0, 60, 0
2, 61724, Note_on_c, 0, 62, 0
2, 61727, Note_on_c, 0, 65, 0
2, 61765, Note_on_c, 0, 42, 77
2, 61771, Note_on_c, 0, 52, 72
2, 61773, Control_c, 0, 64, 0
2, 61781, Note_on_c, 0, 52, 0
2, 61877, Note_on_c, 0, 42, 0
2, 61883, Note_on_c, 0, 67, 90
2, 61885, Note_on_c, 0, 62, 110
2, 61899, Note_on_c, 0, 51, 59
2, 61899, Note_on_c, 0, 41, 61
2, 61930, Note_on_c, 0, 63, 36
2, 61931, Note_on_c, 0, 67, 36
2, 61931, Note_on_c, 0, 58, 38
2, 61931, Note_on_c, 0, 62, 35
2, 61996, Note_on_c, 0, 62, 0
2, 62002, Note_on_c, 0, 51, 0
2, 62011, Note_on_c, 0, 67, 0
2, 62011, Note_on_c, 0, 75, 84
2, 62037, Note_on_c, 0, 75, 0
2, 62059, Note_on_c, 0, 41, 0
2, 62061, Note_on_c, 0, 71, 30
2, 62114, Note_on_c, 0, 71, 0
2, 62125, Note_on_c, 0, 74, 72
2, 62151, Note_on_c, 0, 74, 0
2, 62167, Note_on_c, 0, 67, 0
2, 62170, Note_on_c, 0, 72, 49
2, 62229, Note_on_c, 0, 72, 0
2, 62245, Note_on_c, 0, 65, 43
2, 62309, Control_c, 0, 64, 127
2, 62314, Note_on_c, 0, 62, 0
2, 62334, Note_on_c, 0, 63, 0
2, 62361, Note_on_c, 0, 58, 0
2, 62381, Control_c, 0, 64, 0
2, 62393, Note_on_c, 0, 63, 42
2, 62396, Note_on_c, 0, 57, 47
2, 62439, Note_on_c, 0, 66, 49
2, 62447, Note_on_c, 0, 65, 0
2, 62470, Note_on_c, 0, 66, 0
2, 62476, Note_on_c, 0, 68, 56
2, 62504, Note_on_c, 0, 68, 0
2, 62515, Note_on_c, 0, 69, 50
2, 62546, Note_on_c, 0, 69, 0
2, 62559, Note_on_c, 0, 70, 65
2, 62571, Note_on_c, 0, 57, 0
2, 62573, Note_on_c, 0, 63, 0
2, 62582, Note_on_c, 0, 70, 0
2, 62598, Note_on_c, 0, 71, 60
2, 62627, Note_on_c, 0, 71, 0
2, 62639, Note_on_c, 0, 74, 82
2, 62675, Note_on_c, 0, 74, 0
2, 62679, Note_on_c, 0, 71, 40
2, 62703, Note_on_c, 0, 71, 0
2, 62719, Note_on_c, 0, 72, 66
2, 62746, Note_on_c, 0, 72, 0
2, 62758, Note_on_c, 0, 74, 55
2, 62786, Note_on_c, 0, 74, 0
2, 62798, Note_on_c, 0, 75, 60
2, 62816, Note_on_c, 0, 75, 0
2, 62838, Note_on_c, 0, 79, 62
2, 62858, Note_on_c, 0, 79, 0
2, 62881, Note_on_c, 0, 83, 67
2, 62896, Note_on_c, 0, 83, 0
2, 62922, Note_on_c, 0, 86, 87
2, 62922, Note_on_c, 0, 74, 80
2, 62941, Note_on_c, 0, 74, 0
2, 62947, Note_on_c, 0, 86, 0
2, 63003, Note_on_c, 0, 63, 50
2, 63003, Note_on_c, 0, 74, 84
2, 63003, Note_on_c, 0, 67, 57
2, 63003, Note_on_c, 0, 86, 88
2, 63005, Note_on_c, 0, 58, 45
2, 63008, Note_on_c, 0, 62, 48
2, 63022, Note_on_c, 0, 62, 0
2, 63029, Note_on_c, 0, 67, 0
2, 63032, Note_on_c, 0, 74, 0
2, 63033, Note_on_c, 0, 58, 0
2, 63033, Note_on_c, 0, 86, 0
2, 63036, Note_on_c, 0, 63, 0
2, 63086, Note_on_c, 0, 67, 73
2, 63086, Note_on_c, 0, 86, 89
2, 63087, Note_on_c, 0, 74, 82
2, 63087, Note_on_c, 0, 63, 59
2, 63087, Note_on_c, 0, 58, 67
2, 63087, Note_on_c, 0, 62, 65
2, 63187, Note_on_c, 0, 86, 0
2, 63188, Control_c, 0, 64, 127
2, 63206, Note_on_c, 0, 85, 74
2, 63235, Note_on_c, 0, 74, 0
2, 63236, Control_c, 0, 64, 0
2, 63239, Note_on_c, 0, 85, 0
2, 63257, Note_on_c, 0, 84, 68
2, 63313, Note_on_c, 0, 62, 0
2, 63323, Note_on_c, 0, 67, 0
2, 63325, Note_on_c, 0, 77, 58
2, 63329, Note_on_c, 0, 63, 0
2, 63331, Note_on_c, 0, 84, 0
2, 63337, Control_c, 0, 64, 127
2, 63343, Note_on_c, 0, 77, 0
2, 63343, Control_c, 0, 64, 0
2, 63354, Note_on_c, 0, 58, 0
2, 63368, Note_on_c, 0, 57, 52
2, 63369, Note_on_c, 0, 67, 41
2, 63371, Note_on_c, 0, 63, 35
2, 63449, Note_on_c, 0, 63, 0
2, 63467, Note_on_c, 0, 63, 30
2, 63489, Note_on_c, 0, 86, 89
2, 63519, Note_on_c, 0, 86, 0
2, 63530, Note_on_c, 0, 89, 80
2, 63553, Note_on_c, 0, 89, 0
2, 63556, Note_on_c, 0, 63, 0
2, 63560, Note_on_c, 0, 67, 0
2, 63607, Note_on_c, 0, 63, 37
2, 63618, Note_on_c, 0, 91, 90
2, 63619, Note_on_c, 0, 63, 0
2, 63677, Note_on_c, 0, 91, 0
2, 63692, Note_on_c, 0, 87, 78
2, 63697, Note_on_c, 0, 63, 25
2, 63727, Note_on_c, 0, 87, 0
2, 63746, Note_on_c, 0, 63, 0
2, 63746, Note_on_c, 0, 84, 48
2, 63752, Note_on_c, 0, 57, 0
2, 63792, Note_on_c, 0, 84, 0
2, 63808, Note_on_c, 0, 81, 53
2, 63840, Note_on_c, 0, 81, 0
2, 63849, Note_on_c, 0, 62, 35
2, 63849, Note_on_c, 0, 67, 28
2, 63850, Note_on_c, 0, 80, 46
2, 63853, Note_on_c, 0, 56, 26
2, 63927, Note_on_c, 0, 80, 0
2, 63931, Note_on_c, 0, 82, 77
2, 63964, Note_on_c, 0, 82, 0
2, 63964, Note_on_c, 0, 67, 0
2, 63977, Note_on_c, 0, 79, 43
2, 63981, Note_on_c, 0, 56, 0
2, 64006, Note_on_c, 0, 62, 0
2, 64034, Note_on_c, 0, 79, 0
2, 64045, Note_on_c, 0, 78, 62
2, 64046, Note_on_c, 0, 82, 46
2, 64058, Note_on_c, 0, 67, 33
2, 64062, Note_on_c, 0, 62, 30
2, 64065, Note_on_c, 0, 56, 25
2, 64076, Note_on_c, 0, 78, 0
2, 64080, Note_on_c, 0, 67, 0
2, 64081, Note_on_c, 0, 62, 0
2, 64084, Note_on_c, 0, 56, 0
2, 64087, Note_on_c, 0, 77, 43
2, 64149, Note_on_c, 0, 77, 0
2, 64161, Note_on_c, 0, 73, 46
2, 64163, Note_on_c, 0, 62, 22
2, 64169, Note_on_c, 0, 73, 0
2, 64180, Note_on_c, 0, 82, 0
2, 64197, Note_on_c, 0, 82, 39
2, 64199, Note_on_c, 0, 73, 26
2, 64199, Note_on_c, 0, 74, 78
2, 64204, Note_on_c, 0, 62, 0
2, 64205, Note_on_c, 0, 73, 0
2, 64249, Note_on_c, 0, 82, 0
2, 64261, Note_on_c, 0, 74, 0
2, 64277, Note_on_c, 0, 82, 62
2, 64277, Note_on_c, 0, 75, 74
2, 64282, Note_on_c, 0, 67, 40
2, 64283, Note_on_c, 0, 62, 36
2, 64283, Note_on_c, 0, 56, 36
2, 64295, Note_on_c, 0, 67, 0
2, 64297, Note_on_c, 0, 62, 0
2, 64304, Note_on_c, 0, 82, 0
2, 64304, Note_on_c, 0, 75, 0
2, 64307, Note_on_c, 0, 56, 0
2, 64318, Note_on_c, 0, 56, 15
2, 64320, Note_on_c, 0, 76, 57
2, 64320, Note_on_c, 0, 82, 48
2, 64322, Note_on_c, 0, 67, 24
2, 64322, Note_on_c, 0, 62, 36
2, 64336, Note_on_c, 0, 76, 0
2, 64337, Note_on_c, 0, 67, 0
2, 64338, Note_on_c, 0, 56, 0
2, 64339, Note_on_c, 0, 82, 0
2, 64345, Note_on_c, 0, 62, 0
2, 64358, Note_on_c, 0, 67, 55
2, 64359, Note_on_c, 0, 77, 79
2, 64360, Note_on_c, 0, 82, 62
2, 64360, Note_on_c, 0, 56, 61
2, 64360, Note_on_c, 0, 62, 63
2, 64361, Note_on_c, 0, 78, 42
2, 64390, Note_on_c, 0, 78, 0
2, 64418, Note_on_c, 0, 82, 0
2, 64418, Note_on_c, 0, 56, 0
2, 64420, Note_on_c, 0, 67, 0
2, 64427, Note_on_c, 0, 77, 0
2, 64428, Note_on_c, 0, 62, 0
2, 64441, Note_on_c, 0, 73, 63
2, 64441, Note_on_c, 0, 82, 69
2, 64445, Note_on_c, 0, 56, 59
2, 64446, Note_on_c, 0, 62, 64
2, 64447, Note_on_c, 0, 67, 37
2, 64451, Note_on_c, 0, 73, 0
2, 64455, Note_on_c, 0, 74, 53
2, 64481, Note_on_c, 0, 74, 0
2, 64502, Note_on_c, 0, 82, 0
2, 64503, Note_on_c, 0, 56, 0
2, 64504, Note_on_c, 0, 67, 0
2, 64514, Note_on_c, 0, 62, 0
2, 64520, Note_on_c, 0, 82, 50
2, 64523, Note_on_c, 0, 70, 60
2, 64526, Note_on_c, 0, 67, 36
2, 64527, Note_on_c, 0, 56, 45
2, 64528, Note_on_c, 0, 62, 46
2, 64532, Note_on_c, 0, 80, 25
2, 64602, Control_c, 0, 64, 127
2, 64691, Note_on_c, 0, 67, 0
2, 64695, Note_on_c, 0, 62, 0
2, 64706, Note_on_c, 0, 70, 0
2, 64711, Note_on_c, 0, 56, 0
2, 64714, Note_on_c, 0, 82, 0
2, 64725, Note_on_c, 0, 80, 0
2, 64740, Control_c, 0, 64, 0
2, 64760, Note_on_c, 0, 81, 70
2, 64760, Note_on_c, 0, 76, 68
2, 64761, Note_on_c, 0, 54, 71
2, 64761, Note_on_c, 0, 69, 78
2, 64762, Note_on_c, 0, 64, 44
2, 64763, Note_on_c, 0, 65, 51
2, 64763, Note_on_c, 0, 78, 52
2, 64764, Note_on_c, 0, 60, 60
2, 64770, Note_on_c, 0, 78, 0
2, 64774, Control_c, 0, 64, 127
2, 64775, Note_on_c, 0, 65, 0
2, 64782, Note_on_c, 0, 81, 0
2, 64783, Note_on_c, 0, 60, 0
2, 64784, Note_on_c, 0, 69, 0
2, 64785, Note_on_c, 0, 64, 0
2, 64796, Note_on_c, 0, 76, 0
2, 64800, Note_on_c, 0, 54, 0
2, 64802, Control_c, 0, 64, 0
2, 64815, Note_on_c, 0, 64, 38
2, 64817, Note_on_c, 0, 80, 57
2, 64818, Note_on_c, 0, 53, 33
2, 64818, Note_on_c, 0, 75, 60
2, 64819, Note_on_c, 0, 59, 50
2, 64819, Note_on_c, 0, 68, 47
2, 64861, Note_on_c, 0, 64, 0
2, 64863, Note_on_c, 0, 59, 0
2, 64864, Note_on_c, 0, 53, 0
2, 64865, Note_on_c, 0, 68, 0
2, 64865, Note_on_c, 0, 75, 0
2, 64869, Note_on_c, 0, 80, 0
2, 64923, Note_on_c, 0, 63, 57
2, 64925, Note_on_c, 0, 59, 37
2, 64925, Note_on_c, 0, 53, 53
2, 64925, Note_on_c, 0, 80, 55
2, 64927, Note_on_c, 0, 68, 58
2, 64929, Note_on_c, 0, 75, 55
2, 64981, Note_on_c, 0, 53, 0
2, 64985, Note_on_c, 0, 68, 0
2, 64985, Note_on_c, 0, 80, 0
2, 64988, Note_on_c, 0, 75, 0
2, 64991, Note_on_c, 0, 63, 0
2, 64991, Note_on_c, 0, 59, 0
2, 65042, Note_on_c, 0, 63, 50
2, 65043, Note_on_c, 0, 80, 60
2, 65043, Note_on_c, 0, 53, 58
2, 65044, Note_on_c, 0, 59, 41
2, 65044, Control_c, 0, 64, 127
2, 65045, Note_on_c, 0, 68, 59
2, 65047, Note_on_c, 0, 75, 53
2, 65080, Note_on_c, 0, 68, 0
2, 65084, Note_on_c, 0, 53, 0
2, 65089, Note_on_c, 0, 80, 0
2, 65091, Note_on_c, 0, 63, 0
2, 65093, Note_on_c, 0, 59, 0
2, 65100, Note_on_c, 0, 75, 0
2, 65114, Note_on_c, 0, 82, 64
2, 65117, Note_on_c, 0, 70, 49
2, 65119, Note_on_c, 0, 75, 34
2, 65121, Note_on_c, 0, 59, 40
2, 65122, Note_on_c, 0, 53, 34
2, 65123, Note_on_c, 0, 63, 28
2, 65130, Note_on_c, 0, 63, 0
2, 65133, Note_on_c, 0, 53, 0
2, 65137, Note_on_c, 0, 82, 0
2, 65139, Note_on_c, 0, 70, 0
2, 65141, Control_c, 0, 64, 0
2, 65143, Note_on_c, 0, 59, 0
2, 65148, Note_on_c, 0, 75, 0
2, 65161, Note_on_c, 0, 63, 38
2, 65161, Note_on_c, 0, 80, 42
2, 65162, Note_on_c, 0, 53, 42
2, 65163, Note_on_c, 0, 75, 33
2, 65164, Note_on_c, 0, 68, 38
2, 65164, Note_on_c, 0, 59, 30
2, 65176, Note_on_c, 0, 59, 0
2, 65178, Control_c, 0, 64, 127
2, 65195, Note_on_c, 0, 53, 0
2, 65198, Note_on_c, 0, 75, 0
2, 65204, Note_on_c, 0, 68, 0
2, 65207, Note_on_c, 0, 63, 0
2, 65208, Note_on_c, 0, 80, 0
2, 65243, Note_on_c, 0, 63, 59
2, 65246, Note_on_c, 0, 67, 48
2, 65247, Note_on_c, 0, 79, 45
2, 65247, Control_c, 0, 64, 0
2, 65250, Note_on_c, 0, 58, 46
2, 65250, Note_on_c, 0, 52, 40
2, 65262, Note_on_c, 0, 67, 0
2, 65262, Note_on_c, 0, 63, 0
2, 65267, Note_on_c, 0, 58, 0
2, 65267, Note_on_c, 0, 79, 0
2, 65268, Note_on_c, 0, 52, 0
2, 65360, Note_on_c, 0, 48, 80
2, 65361, Note_on_c, 0, 47, 79
2, 65377, Note_on_c, 0, 47, 0
2, 65480, Note_on_c, 0, 36, 67
2, 65569, Note_on_c, 0, 84, 89
2, 65594, Note_on_c, 0, 84, 0
2, 65597, Note_on_c, 0, 36, 0
2, 65607, Note_on_c, 0, 78, 73
2, 65621, Note_on_c, 0, 48, 0
2, 65633, Note_on_c, 0, 78, 0
2, 65646, Note_on_c, 0, 82, 74
2, 65684, Note_on_c, 0, 82, 0
2, 65687, Note_on_c, 0, 78, 30
2, 65715, Note_on_c, 0, 78, 0
2, 65724, Note_on_c, 0, 81, 75
2, 65743, Note_on_c, 0, 62, 35
2, 65745, Note_on_c, 0, 57, 25
2, 65745, Note_on_c, 0, 58, 36
2, 65753, Note_on_c, 0, 81, 0
2, 65764, Note_on_c, 0, 79, 68
2, 65857, Note_on_c, 0, 79, 0
2, 65874, Note_on_c, 0, 78, 72
2, 65882, Note_on_c, 0, 58, 0
2, 65883, Note_on_c, 0, 62, 0
2, 65895, Note_on_c, 0, 57, 0
2, 65985, Note_on_c, 0, 78, 0
2, 65989, Note_on_c, 0, 76, 51
2, 66066, Note_on_c, 0, 76, 0
2, 66075, Note_on_c, 0, 75, 64
2, 66080, Note_on_c, 0, 63, 36
2, 66082, Note_on_c, 0, 59, 31
2, 66084, Note_on_c, 0, 53, 30
2, 66105, Note_on_c, 0, 75, 0
2, 66126, Note_on_c, 0, 59, 0
2, 66130, Note_on_c, 0, 73, 42
2, 66152, Note_on_c, 0, 63, 0
2, 66154, Note_on_c, 0, 53, 0
2, 66193, Note_on_c, 0, 73, 0
2, 66202, Note_on_c, 0, 72, 51
2, 66204, Note_on_c, 0, 62, 50
2, 66205, Note_on_c, 0, 58, 33
2, 66208, Note_on_c, 0, 52, 45
2, 66275, Control_c, 0, 64, 127
2, 66322, Control_c, 0, 64, 0
2, 66352, Control_c, 0, 64, 127
2, 66410, Note_on_c, 0, 62, 0
2, 66420, Control_c, 0, 64, 0
2, 66505, Note_on_c, 0, 72, 0
2, 66513, Note_on_c, 0, 58, 0
2, 66517, Note_on_c, 0, 70, 50
2, 66547, Note_on_c, 0, 70, 0
2, 66551, Note_on_c, 0, 68, 63
2, 66560, Note_on_c, 0, 58, 33
2, 66563, Note_on_c, 0, 62, 17
2, 66574, Note_on_c, 0, 62, 0
2, 66579, Note_on_c, 0, 68, 0
2, 66597, Note_on_c, 0, 67, 60
2, 66610, Note_on_c, 0, 52, 0
2, 66621, Note_on_c, 0, 58, 0
2, 66641, Note_on_c, 0, 67, 0
2, 66649, Note_on_c, 0, 68, 39
2, 66669, Note_on_c, 0, 67, 37
2, 66676, Note_on_c, 0, 68, 0
2, 66695, Note_on_c, 0, 65, 42
2, 66698, Note_on_c, 0, 67, 0
2, 66713, Note_on_c, 0, 65, 0
2, 66802, Note_on_c, 0, 63, 49
2, 66807, Note_on_c, 0, 56, 37
2, 66808, Note_on_c, 0, 59, 45
2, 66811, Note_on_c, 0, 53, 26
2, 66814, Note_on_c, 0, 59, 0
2, 66817, Note_on_c, 0, 63, 0
2, 66819, Note_on_c, 0, 53, 0
2, 66822, Note_on_c, 0, 56, 0
2, 66955, Note_on_c, 0, 63, 39
2, 66961, Note_on_c, 0, 56, 32
2, 66961, Note_on_c, 0, 59, 39
2, 66963, Note_on_c, 0, 53, 28
2, 67041, Note_on_c, 0, 65, 45
2, 67047, Note_on_c, 0, 65, 0
2, 67075, Note_on_c, 0, 67, 80
2, 67081, Note_on_c, 0, 63, 0
2, 67090, Note_on_c, 0, 59, 0
2, 67108, Note_on_c, 0, 53, 0
2, 67136, Note_on_c, 0, 67, 0
2, 67144, Note_on_c, 0, 56, 0
2, 67157, Note_on_c, 0, 68, 84
2, 67161, Note_on_c, 0, 58, 59
2, 67183, Note_on_c, 0, 58, 0
2, 67187, Note_on_c, 0, 68, 0
2, 67201, Note_on_c, 0, 67, 66
2, 67236, Note_on_c, 0, 67, 0
2, 67254, Note_on_c, 0, 68, 35
2, 67271, Note_on_c, 0, 67, 50
2, 67280, Note_on_c, 0, 68, 0
2, 67297, Note_on_c, 0, 65, 60
2, 67299, Note_on_c, 0, 67, 0
2, 67317, Note_on_c, 0, 65, 0
2, 67339, Note_on_c, 0, 64, 73
2, 67391, Note_on_c, 0, 64, 0
2, 67407, Note_on_c, 0, 61, 61
2, 67407, Note_on_c, 0, 47, 53
2, 67409, Note_on_c, 0, 48, 50
2, 67415, Note_on_c, 0, 47, 0
2, 67443, Note_on_c, 0, 61, 0
2, 67457, Note_on_c, 0, 60, 33
2, 67506, Note_on_c, 0, 60, 0
2, 67518, Note_on_c, 0, 58, 64
2, 67554, Note_on_c, 0, 58, 0
2, 67561, Note_on_c, 0, 56, 56
2, 67563, Note_on_c, 0, 48, 0
2, 67646, Note_on_c, 0, 53, 40
2, 67647, Note_on_c, 0, 48, 30
2, 67648, Note_on_c, 0, 56, 0
2, 67661, Note_on_c, 0, 48, 0
2, 67661, Note_on_c, 0, 53, 0
2, 67682, Note_on_c, 0, 55, 66
2, 67687, Note_on_c, 0, 41, 32
2, 67713, Note_on_c, 0, 55, 0
2, 67723, Note_on_c, 0, 56, 40
2, 67747, Note_on_c, 0, 56, 0
2, 67750, Note_on_c, 0, 55, 37
2, 67777, Note_on_c, 0, 55, 0
2, 67789, Note_on_c, 0, 52, 24
2, 67798, Note_on_c, 0, 52, 0
2, 67813, Note_on_c, 0, 55, 64
2, 67837, Note_on_c, 0, 55, 0
2, 67853, Note_on_c, 0, 52, 31
2, 67863, Note_on_c, 0, 52, 0
2, 67880, Note_on_c, 0, 53, 44
2, 67896, Note_on_c, 0, 53, 0
2, 67911, Note_on_c, 0, 55, 69
2, 67927, Note_on_c, 0, 55, 0
2, 67939, Note_on_c, 0, 56, 51
2, 67963, Note_on_c, 0, 56, 0
2, 67971, Note_on_c, 0, 53, 33
2, 67982, Note_on_c, 0, 53, 0
2, 67996, Note_on_c, 0, 55, 64
2, 68015, Note_on_c, 0, 55, 0
2, 68015, Note_on_c, 0, 41, 0
2, 68026, Note_on_c, 0, 56, 55
2, 68050, Note_on_c, 0, 56, 0
2, 68051, Note_on_c, 0, 58, 45
2, 68067, Note_on_c, 0, 58, 0
2, 68079, Note_on_c, 0, 60, 46
2, 68091, Note_on_c, 0, 60, 0
2, 68107, Note_on_c, 0, 62, 44
2, 68115, Note_on_c, 0, 62, 0
2, 68243, Note_on_c, 0, 61, 44
2, 68243, Note_on_c, 0, 53, 35
2, 68245, Note_on_c, 0, 58, 38
2, 68248, Note_on_c, 0, 55, 36
2, 68255, Note_on_c, 0, 53, 0
2, 68257, Note_on_c, 0, 55, 0
2, 68260, Note_on_c, 0, 61, 0
2, 68267, Note_on_c, 0, 58, 0
2, 68283, Note_on_c, 0, 67, 36
2, 68290, Note_on_c, 0, 67, 0
2, 68321, Note_on_c, 0, 68, 69
2, 68338, Note_on_c, 0, 68, 0
2, 68356, Note_on_c, 0, 70, 82
2, 68383, Note_on_c, 0, 70, 0
2, 68395, Note_on_c, 0, 58, 44
2, 68396, Note_on_c, 0, 63, 46
2, 68399, Note_on_c, 0, 52, 47
2, 68400, Note_on_c, 0, 72, 66
2, 68451, Note_on_c, 0, 72, 0
2, 68452, Note_on_c, 0, 52, 0
2, 68455, Note_on_c, 0, 63, 0
2, 68461, Note_on_c, 0, 58, 0
2, 68473, Note_on_c, 0, 63, 48
2, 68473, Note_on_c, 0, 73, 77
2, 68474, Note_on_c, 0, 52, 44
2, 68477, Note_on_c, 0, 58, 40
2, 68490, Note_on_c, 0, 63, 0
2, 68500, Note_on_c, 0, 73, 0
2, 68515, Note_on_c, 0, 63, 37
2, 68521, Note_on_c, 0, 72, 48
2, 68546, Note_on_c, 0, 52, 0
2, 68550, Note_on_c, 0, 72, 0
2, 68557, Note_on_c, 0, 58, 0
2, 68558, Note_on_c, 0, 63, 0
2, 68593, Note_on_c, 0, 70, 72
2, 68599, Note_on_c, 0, 64, 37
2, 68601, Note_on_c, 0, 56, 31
2, 68601, Note_on_c, 0, 60, 40
2, 68609, Note_on_c, 0, 60, 0
2, 68609, Note_on_c, 0, 64, 0
2, 68621, Note_on_c, 0, 70, 0
2, 68622, Note_on_c, 0, 56, 0
2, 68637, Note_on_c, 0, 64, 30
2, 68638, Note_on_c, 0, 56, 21
2, 68640, Note_on_c, 0, 53, 26
2, 68640, Note_on_c, 0, 68, 50
2, 68642, Note_on_c, 0, 60, 29
2, 68652, Note_on_c, 0, 60, 0
2, 68653, Note_on_c, 0, 64, 0
2, 68661, Note_on_c, 0, 53, 0
2, 68668, Note_on_c, 0, 56, 0
2, 68669, Note_on_c, 0, 68, 0
2, 68722, Note_on_c, 0, 65, 45
2, 68731, Note_on_c, 0, 65, 0
2, 68757, Note_on_c, 0, 67, 70
2, 68758, Note_on_c, 0, 64, 36
2, 68760, Note_on_c, 0, 56, 34
2, 68761, Note_on_c, 0, 60, 45
2, 68762, Note_on_c, 0, 53, 29
2, 68830, Note_on_c, 0, 67, 0
2, 68831, Note_on_c, 0, 68, 59
2, 68856, Note_on_c, 0, 67, 30
2, 68865, Note_on_c, 0, 68, 0
2, 68881, Note_on_c, 0, 67, 0
2, 68882, Note_on_c, 0, 65, 36
2, 68883, Note_on_c, 0, 64, 0
2, 68899, Note_on_c, 0, 60, 0
2, 68915, Note_on_c, 0, 56, 0
2, 68951, Note_on_c, 0, 65, 0
2, 68959, Note_on_c, 0, 67, 51
2, 68962, Note_on_c, 0, 56, 31
2, 68965, Note_on_c, 0, 64, 37
2, 68965, Note_on_c, 0, 60, 44
2, 69265, Note_on_c, 0, 67, 0
2, 69281, Note_on_c, 0, 60, 0
2, 69285, Note_on_c, 0, 64, 0
2, 69351, Note_on_c, 0, 53, 0
2, 69360, Note_on_c, 0, 56, 0
2, 69367, Note_on_c, 0, 84, 94
2, 69413, Note_on_c, 0, 84, 0
2, 69484, Note_on_c, 0, 79, 81
2, 69522, Note_on_c, 0, 79, 0
2, 69604, Note_on_c, 0, 82, 84
2, 69844, Note_on_c, 0, 73, 42
2, 69845, Note_on_c, 0, 53, 45
2, 69850, Note_on_c, 0, 61, 27
2, 69859, Note_on_c, 0, 58, 27
2, 69860, Note_on_c, 0, 55, 35
2, 69940, Note_on_c, 0, 55, 0
2, 69953, Note_on_c, 0, 53, 0
2, 69982, Note_on_c, 0, 61, 0
2, 70000, Note_on_c, 0, 58, 0
2, 70013, Note_on_c, 0, 73, 0
2, 70031, Note_on_c, 0, 63, 33
2, 70031, Note_on_c, 0, 72, 35
2, 70032, Note_on_c, 0, 58, 18
2, 70039, Note_on_c, 0, 52, 39
2, 70051, Note_on_c, 0, 82, 0
2, 70168, Note_on_c, 0, 72, 0
2, 70264, Note_on_c, 0, 83, 82
2, 70278, Note_on_c, 0, 84, 80
2, 70294, Note_on_c, 0, 83, 0
2, 70322, Note_on_c, 0, 84, 0
2, 70354, Note_on_c, 0, 84, 81
2, 70411, Note_on_c, 0, 84, 0
2, 70432, Note_on_c, 0, 79, 65
2, 70435, Note_on_c, 0, 52, 0
2, 70452, Note_on_c, 0, 63, 0
2, 70455, Note_on_c, 0, 58, 0
2, 70473, Note_on_c, 0, 79, 0
2, 70518, Note_on_c, 0, 82, 95
2, 70525, Note_on_c, 0, 58, 68
2, 70525, Note_on_c, 0, 53, 62
2, 70558, Note_on_c, 0, 63, 44
2, 70626, Note_on_c, 0, 82, 0
2, 70634, Note_on_c, 0, 84, 69
2, 70676, Note_on_c, 0, 84, 0
2, 70684, Note_on_c, 0, 82, 53
2, 70703, Note_on_c, 0, 58, 0
2, 70718, Note_on_c, 0, 63, 0
2, 70718, Note_on_c, 0, 53, 0
2, 70734, Note_on_c, 0, 82, 0
2, 70753, Note_on_c, 0, 63, 44
2, 70755, Note_on_c, 0, 79, 66
2, 70761, Note_on_c, 0, 58, 44
2, 70779, Note_on_c, 0, 79, 0
2, 70779, Note_on_c, 0, 63, 0
2, 70784, Note_on_c, 0, 58, 0
2, 70873, Note_on_c, 0, 82, 67
2, 70876, Note_on_c, 0, 63, 52
2, 70880, Note_on_c, 0, 53, 38
2, 70892, Note_on_c, 0, 58, 25
2, 70897, Note_on_c, 0, 53, 0
2, 70905, Note_on_c, 0, 63, 0
2, 70911, Note_on_c, 0, 82, 0
2, 70918, Note_on_c, 0, 58, 0
2, 70926, Note_on_c, 0, 79, 35
2, 70983, Note_on_c, 0, 79, 0
2, 70996, Note_on_c, 0, 63, 43
2, 70998, Note_on_c, 0, 76, 51
2, 71000, Note_on_c, 0, 58, 37
2, 71003, Note_on_c, 0, 52, 39
2, 71023, Note_on_c, 0, 76, 0
2, 71175, Control_c, 0, 64, 127
2, 71211, Control_c, 0, 64, 0
2, 71251, Note_on_c, 0, 52, 0
2, 71278, Control_c, 0, 64, 127
2, 71279, Note_on_c, 0, 63, 0
2, 71283, Note_on_c, 0, 58, 0
2, 71351, Note_on_c, 0, 68, 92
2, 71351, Note_on_c, 0, 80, 85
2, 71351, Note_on_c, 0, 72, 85
2, 71354, Note_on_c, 0, 75, 74
2, 71354, Note_on_c, 0, 58, 79
2, 71354, Note_on_c, 0, 64, 77
2, 71356, Control_c, 0, 64, 0
2, 71423, Control_c, 0, 64, 127
2, 71456, Note_on_c, 0, 72, 0
2, 71463, Note_on_c, 0, 78, 15
2, 71465, Note_on_c, 0, 75, 0
2, 71468, Note_on_c, 0, 68, 0
2, 71471, Note_on_c, 0, 64, 0
2, 71478, Note_on_c, 0, 78, 0
2, 71480, Note_on_c, 0, 58, 0
2, 71482, Note_on_c, 0, 80, 0
2, 71506, Control_c, 0, 64, 0
2, 71520, Note_on_c, 0, 79, 80
2, 71521, Note_on_c, 0, 72, 83
2, 71521, Note_on_c, 0, 68, 83
2, 71522, Note_on_c, 0, 64, 73
2, 71522, Note_on_c, 0, 53, 64
2, 71524, Note_on_c, 0, 76, 64
2, 71526, Note_on_c, 0, 60, 64
2, 71654, Control_c, 0, 64, 127
2, 71716, Note_on_c, 0, 53, 0
2, 71726, Note_on_c, 0, 79, 0
2, 71726, Note_on_c, 0, 76, 0
2, 71739, Note_on_c, 0, 60, 0
2, 71749, Note_on_c, 0, 64, 0
2, 71750, Note_on_c, 0, 72, 0
2, 71752, Note_on_c, 0, 68, 0
2, 71846, Control_c, 0, 64, 0
2, 71846, Note_on_c, 0, 77, 64
2, 71847, Note_on_c, 0, 66, 64
2, 71849, Note_on_c, 0, 70, 62
2, 71851, Note_on_c, 0, 65, 67
2, 71855, Note_on_c, 0, 72, 48
2, 71855, Note_on_c, 0, 60, 59
2, 71858, Note_on_c, 0, 54, 43
2, 71927, Control_c, 0, 64, 127
2, 71936, Note_on_c, 0, 77, 0
2, 71945, Note_on_c, 0, 72, 0
2, 71959, Note_on_c, 0, 70, 0
2, 71961, Note_on_c, 0, 60, 0
2, 71963, Note_on_c, 0, 65, 0
2, 71983, Note_on_c, 0, 66, 0
2, 71997, Note_on_c, 0, 54, 0
2, 72009, Control_c, 0, 64, 0
2, 72015, Note_on_c, 0, 75, 55
2, 72020, Note_on_c, 0, 68, 69
2, 72020, Note_on_c, 0, 64, 54
2, 72023, Note_on_c, 0, 53, 48
2, 72024, Note_on_c, 0, 71, 53
2, 72029, Note_on_c, 0, 59, 50
2, 72118, Note_on_c, 0, 71, 0
2, 72129, Control_c, 0, 64, 127
2, 72132, Note_on_c, 0, 64, 0
2, 72132, Note_on_c, 0, 75, 0
2, 72135, Note_on_c, 0, 53, 0
2, 72139, Note_on_c, 0, 59, 0
2, 72142, Note_on_c, 0, 68, 0
2, 72201, Note_on_c, 0, 73, 62
2, 72205, Note_on_c, 0, 68, 62
2, 72206, Note_on_c, 0, 64, 54
2, 72208, Note_on_c, 0, 70, 59
2, 72208, Control_c, 0, 64, 0
2, 72212, Note_on_c, 0, 58, 45
2, 72212, Note_on_c, 0, 63, 52
2, 72214, Note_on_c, 0, 52, 46
2, 72285, Control_c, 0, 64, 127
2, 72303, Note_on_c, 0, 64, 0
2, 72306, Note_on_c, 0, 52, 0
2, 72314, Note_on_c, 0, 58, 0
2, 72325, Note_on_c, 0, 63, 0
2, 72328, Note_on_c, 0, 68, 0
2, 72329, Note_on_c, 0, 70, 0
2, 72339, Note_on_c, 0, 73, 0
2, 72357, Control_c, 0, 64, 0
2, 72368, Note_on_c, 0, 68, 53
2, 72370, Note_on_c, 0, 64, 34
2, 72370, Note_on_c, 0, 72, 60
2, 72372, Note_on_c, 0, 67, 57
2, 72375, Note_on_c, 0, 53, 39
2, 72377, Note_on_c, 0, 60, 55
2, 72379, Note_on_c, 0, 56, 38
2, 72488, Control_c, 0, 64, 127
2, 72505, Note_on_c, 0, 67, 0
2, 72520, Note_on_c, 0, 72, 0
2, 72520, Note_on_c, 0, 68, 0
2, 72680, Note_on_c, 0, 64, 0
2, 72687, Note_on_c, 0, 60, 0
2, 72694, Note_on_c, 0, 53, 0
2, 72706, Control_c, 0, 64, 0
2, 72718, Note_on_c, 0, 72, 52
2, 72719, Note_on_c, 0, 56, 0
2, 72740, Note_on_c, 0, 72, 0
2, 72795, Note_on_c, 0, 76, 34
2, 72826, Note_on_c, 0, 76, 0
2, 72837, Note_on_c, 0, 79, 48
2, 72854, Note_on_c, 0, 79, 0
2, 72915, Note_on_c, 0, 84, 62
2, 72932, Note_on_c, 0, 84, 0
2, 72973, Note_on_c, 0, 88, 53
2, 72984, Note_on_c, 0, 88, 0
2, 73043, Note_on_c, 0, 79, 64
2, 73043, Note_on_c, 0, 91, 66
2, 73045, Note_on_c, 0, 67, 50
2, 73053, Note_on_c, 0, 91, 0
2, 73053, Note_on_c, 0, 79, 0
2, 73058, Note_on_c, 0, 67, 0
2, 73088, Note_on_c, 0, 56, 29
2, 73090, Note_on_c, 0, 67, 32
2, 73091, Note_on_c, 0, 91, 71
2, 73092, Note_on_c, 0, 79, 54
2, 73094, Note_on_c, 0, 62, 54
2, 73106, Note_on_c, 0, 62, 0
2, 73110, Note_on_c, 0, 79, 0
2, 73113, Note_on_c, 0, 67, 0
2, 73116, Note_on_c, 0, 91, 0
2, 73116, Note_on_c, 0, 56, 0
2, 73153, Note_on_c, 0, 67, 51
2, 73155, Note_on_c, 0, 62, 44
2, 73158, Note_on_c, 0, 56, 40
2, 73161, Note_on_c, 0, 79, 66
2, 73161, Note_on_c, 0, 91, 75
2, 73171, Note_on_c, 0, 56, 0
2, 73174, Note_on_c, 0, 67, 0
2, 73175, Note_on_c, 0, 62, 0
2, 73175, Note_on_c, 0, 79, 0
2, 73180, Note_on_c, 0, 91, 0
2, 73206, Note_on_c, 0, 67, 45
2, 73206, Note_on_c, 0, 56, 53
2, 73207, Note_on_c, 0, 62, 60
2, 73211, Note_on_c, 0, 91, 65
2, 73212, Note_on_c, 0, 79, 62
2, 73229, Note_on_c, 0, 67, 0
2, 73233, Note_on_c, 0, 91, 0
2, 73234, Note_on_c, 0, 79, 0
2, 73236, Note_on_c, 0, 62, 0
2, 73236, Note_on_c, 0, 56, 0
2, 73269, Note_on_c, 0, 62, 50
2, 73272, Note_on_c, 0, 56, 47
2, 73275, Note_on_c, 0, 67, 47
2, 73277, Note_on_c, 0, 79, 66
2, 73277, Note_on_c, 0, 91, 71
2, 73285, Note_on_c, 0, 56, 0
2, 73286, Note_on_c, 0, 67, 0
2, 73288, Note_on_c, 0, 91, 0
2, 73294, Note_on_c, 0, 79, 0
2, 73297, Note_on_c, 0, 62, 0
2, 73321, Note_on_c, 0, 56, 39
2, 73321, Note_on_c, 0, 62, 66
2, 73325, Note_on_c, 0, 67, 22
2, 73327, Note_on_c, 0, 91, 59
2, 73328, Note_on_c, 0, 79, 55
2, 73336, Note_on_c, 0, 67, 0
2, 73337, Note_on_c, 0, 91, 0
2, 73339, Note_on_c, 0, 56, 0
2, 73344, Note_on_c, 0, 62, 0
2, 73344, Note_on_c, 0, 79, 0
2, 73387, Note_on_c, 0, 56, 47
2, 73387, Note_on_c, 0, 62, 46
2, 73394, Note_on_c, 0, 91, 73
2, 73395, Note_on_c, 0, 79, 55
2, 73405, Note_on_c, 0, 91, 0
2, 73405, Note_on_c, 0, 62, 0
2, 73407, Note_on_c, 0, 79, 0
2, 73415, Note_on_c, 0, 56, 0
2, 73446, Note_on_c, 0, 82, 75
2, 73447, Note_on_c, 0, 94, 83
2, 73449, Note_on_c, 0, 55, 69
2, 73450, Note_on_c, 0, 58, 61
2, 73450, Note_on_c, 0, 61, 67
2, 73451, Note_on_c, 0, 65, 66
2, 73566, Control_c, 0, 64, 127
2, 73583, Note_on_c, 0, 82, 0
2, 73589, Note_on_c, 0, 94, 0
2, 73591, Note_on_c, 0, 55, 0
2, 73591, Note_on_c, 0, 65, 0
2, 73595, Note_on_c, 0, 58, 0
2, 73604, Note_on_c, 0, 61, 0
2, 73636, Note_on_c, 0, 61, 68
2, 73636, Note_on_c, 0, 96, 90
2, 73637, Note_on_c, 0, 84, 89
2, 73637, Note_on_c, 0, 55, 80
2, 73638, Control_c, 0, 64, 0
2, 73638, Note_on_c, 0, 58, 71
2, 73640, Note_on_c, 0, 65, 80
2, 73691, Control_c, 0, 64, 127
2, 73700, Note_on_c, 0, 65, 0
2, 73702, Note_on_c, 0, 55, 0
2, 73712, Note_on_c, 0, 61, 0
2, 73716, Note_on_c, 0, 96, 0
2, 73716, Note_on_c, 0, 58, 0
2, 73736, Note_on_c, 0, 84, 0
2, 73906, Control_c, 0, 64, 0
2, 73921, Note_on_c, 0, 63, 52
2, 73924, Note_on_c, 0, 91, 43
2, 73924, Note_on_c, 0, 58, 42
2, 73928, Note_on_c, 0, 79, 29
2, 73928, Note_on_c, 0, 52, 42
2, 73984, Note_on_c, 0, 91, 0
2, 74011, Note_on_c, 0, 79, 0
2, 74047, Control_c, 0, 64, 127
2, 74065, Note_on_c, 0, 63, 0
2, 74085, Note_on_c, 0, 58, 0
2, 74122, Note_on_c, 0, 56, 39
2, 74136, Note_on_c, 0, 58, 38
2, 74157, Control_c, 0, 64, 0
2, 74162, Note_on_c, 0, 72, 87
2, 74163, Note_on_c, 0, 63, 85
2, 74164, Note_on_c, 0, 56, 0
2, 74166, Note_on_c, 0, 60, 80
2, 74182, Note_on_c, 0, 58, 0
2, 74192, Note_on_c, 0, 63, 0
2, 74202, Note_on_c, 0, 60, 0
2, 74208, Note_on_c, 0, 52, 0
2, 74209, Note_on_c, 0, 72, 0
2, 74292, Note_on_c, 0, 67, 53
2, 74304, Note_on_c, 0, 67, 0
2, 74397, Note_on_c, 0, 63, 42
2, 74399, Note_on_c, 0, 59, 44
2, 74400, Note_on_c, 0, 70, 62
2, 74406, Note_on_c, 0, 53, 25
2, 74444, Note_on_c, 0, 70, 0
2, 74481, Note_on_c, 0, 72, 44
2, 74499, Note_on_c, 0, 72, 0
2, 74519, Note_on_c, 0, 70, 47
2, 74566, Note_on_c, 0, 70, 0
2, 74587, Note_on_c, 0, 67, 61
2, 74603, Note_on_c, 0, 67, 0
2, 74607, Note_on_c, 0, 53, 0
2, 74615, Note_on_c, 0, 63, 0
2, 74621, Note_on_c, 0, 59, 0
2, 74691, Note_on_c, 0, 70, 65
2, 74703, Note_on_c, 0, 63, 49
2, 74710, Note_on_c, 0, 59, 38
2, 74711, Note_on_c, 0, 53, 29
2, 74724, Note_on_c, 0, 59, 0
2, 74725, Note_on_c, 0, 70, 0
2, 74731, Note_on_c, 0, 53, 0
2, 74738, Note_on_c, 0, 63, 0
2, 74742, Note_on_c, 0, 67, 37
2, 74791, Note_on_c, 0, 67, 0
2, 74811, Note_on_c, 0, 64, 46
2, 74814, Note_on_c, 0, 58, 39
2, 74829, Note_on_c, 0, 64, 0
2, 74843, Note_on_c, 0, 58, 0
2, 75101, Note_on_c, 0, 68, 67
2, 75103, Note_on_c, 0, 56, 51
2, 75104, Note_on_c, 0, 64, 66
2, 75105, Note_on_c, 0, 58, 57
2, 75132, Note_on_c, 0, 58, 0
2, 75140, Note_on_c, 0, 64, 0
2, 75148, Note_on_c, 0, 56, 0
2, 75151, Note_on_c, 0, 68, 0
2, 75224, Note_on_c, 0, 64, 59
2, 75231, Note_on_c, 0, 52, 41
2, 75233, Note_on_c, 0, 58, 44
2, 75249, Note_on_c, 0, 58, 0
2, 75259, Note_on_c, 0, 64, 0
2, 75274, Note_on_c, 0, 52, 0
2, 75347, Note_on_c, 0, 67, 54
2, 75349, Note_on_c, 0, 56, 50
2, 75350, Note_on_c, 0, 60, 65
2, 75356, Note_on_c, 0, 55, 47
2, 75424, Note_on_c, 0, 55, 0
2, 75431, Note_on_c, 0, 54, 35
2, 75452, Note_on_c, 0, 54, 0
2, 75472, Note_on_c, 0, 53, 48
2, 75527, Note_on_c, 0, 67, 0
2, 75528, Note_on_c, 0, 53, 0
2, 75556, Note_on_c, 0, 60, 0
2, 75558, Note_on_c, 0, 56, 0
2, 75671, Note_on_c, 0, 54, 59
2, 75672, Note_on_c, 0, 65, 60
2, 75675, Note_on_c, 0, 60, 60
2, 75679, Note_on_c, 0, 50, 55
2, 75683, Note_on_c, 0, 65, 0
2, 75686, Note_on_c, 0, 60, 0
2, 75688, Note_on_c, 0, 54, 0
2, 75707, Note_on_c, 0, 50, 0
2, 75781, Note_on_c, 0, 42, 58
2, 75810, Note_on_c, 0, 42, 0
2, 75825, Note_on_c, 0, 53, 55
2, 75826, Note_on_c, 0, 61, 55
2, 75828, Note_on_c, 0, 58, 54
2, 75831, Note_on_c, 0, 43, 44
2, 75954, Note_on_c, 0, 53, 0
2, 75962, Note_on_c, 0, 61, 0
2, 75963, Control_c, 0, 64, 127
2, 75969, Note_on_c, 0, 58, 0
2, 75997, Note_on_c, 0, 43, 0
2, 75998, Control_c, 0, 64, 0
2, 76014, Note_on_c, 0, 56, 61
2, 76015, Note_on_c, 0, 63, 57
2, 76016, Note_on_c, 0, 52, 64
2, 76021, Note_on_c, 0, 60, 65
2, 76024, Note_on_c, 0, 61, 33
2, 76024, Note_on_c, 0, 48, 53
2, 76090, Note_on_c, 0, 48, 0
2, 76129, Note_on_c, 0, 39, 46
2, 76146, Note_on_c, 0, 52, 0
2, 76158, Note_on_c, 0, 60, 0
2, 76159, Note_on_c, 0, 61, 0
2, 76162, Note_on_c, 0, 39, 0
2, 76179, Note_on_c, 0, 56, 0
2, 76181, Note_on_c, 0, 63, 0
2, 76186, Note_on_c, 0, 40, 44
2, 76252, Note_on_c, 0, 40, 0
2, 76262, Note_on_c, 0, 57, 78
2, 76263, Note_on_c, 0, 60, 79
2, 76265, Note_on_c, 0, 55, 76
2, 76267, Note_on_c, 0, 41, 67
2, 76319, Note_on_c, 0, 55, 0
2, 76339, Control_c, 0, 64, 127
2, 76343, Note_on_c, 0, 57, 0
2, 76360, Note_on_c, 0, 60, 0
2, 76386, Note_on_c, 0, 29, 87
2, 76439, Note_on_c, 0, 29, 0
2, 76455, Note_on_c, 0, 41, 0
2, 76644, Note_on_c, 0, 79, 90
2, 76644, Note_on_c, 0, 74, 89
2, 76645, Note_on_c, 0, 64, 94
2, 76646, Note_on_c, 0, 69, 94
2, 76651, Note_on_c, 0, 71, 53
2, 76653, Control_c, 0, 64, 0
2, 76662, Note_on_c, 0, 71, 0
2, 76707, Control_c, 0, 64, 127
2, 76733, Note_on_c, 0, 79, 0
2, 76742, Note_on_c, 0, 74, 0
2, 76752, Note_on_c, 0, 64, 0
2, 76752, Note_on_c, 0, 69, 0
2, 76869, Note_on_c, 0, 74, 75
2, 76869, Note_on_c, 0, 58, 77
2, 76871, Control_c, 0, 64, 0
2, 76872, Note_on_c, 0, 69, 77
2, 76873, Note_on_c, 0, 64, 74
2, 76944, Control_c, 0, 64, 127
2, 76986, Note_on_c, 0, 74, 0
2, 76995, Note_on_c, 0, 69, 0
2, 77007, Note_on_c, 0, 64, 0
2, 77031, Control_c, 0, 64, 0
2, 77033, Note_on_c, 0, 58, 0
2, 77044, Note_on_c, 0, 57, 75
2, 77044, Note_on_c, 0, 72, 71
2, 77047, Note_on_c, 0, 62, 72
2, 77047, Note_on_c, 0, 67, 71
2, 77136, Note_on_c, 0, 57, 0
2, 77138, Note_on_c, 0, 62, 0
2, 77144, Control_c, 0, 64, 127
2, 77155, Note_on_c, 0, 67, 0
2, 77160, Note_on_c, 0, 72, 0
2, 77243, Control_c, 0, 64, 0
2, 77264, Note_on_c, 0, 67, 45
2, 77268, Note_on_c, 0, 58, 31
2, 77269, Note_on_c, 0, 63, 42
2, 77270, Note_on_c, 0, 62, 41
2, 77270, Note_on_c, 0, 75, 65
2, 77283, Note_on_c, 0, 67, 0
2, 77284, Note_on_c, 0, 62, 0
2, 77289, Note_on_c, 0, 58, 0
2, 77293, Note_on_c, 0, 63, 0
2, 77338, Note_on_c, 0, 75, 0
2, 77347, Note_on_c, 0, 74, 50
2, 77373, Note_on_c, 0, 74, 0
2, 77392, Note_on_c, 0, 75, 44
2, 77510, Note_on_c, 0, 67, 51
2, 77515, Note_on_c, 0, 62, 37
2, 77520, Note_on_c, 0, 63, 26
2, 77520, Note_on_c, 0, 58, 25
2, 77529, Note_on_c, 0, 62, 0
2, 77530, Note_on_c, 0, 67, 0
2, 77532, Note_on_c, 0, 63, 0
2, 77538, Note_on_c, 0, 58, 0
2, 77712, Note_on_c, 0, 67, 41
2, 77713, Note_on_c, 0, 63, 38
2, 77723, Note_on_c, 0, 57, 26
2, 77735, Note_on_c, 0, 67, 0
2, 77737, Note_on_c, 0, 57, 0
2, 77746, Note_on_c, 0, 75, 0
2, 77747, Note_on_c, 0, 63, 0
2, 77966, Note_on_c, 0, 67, 72
2, 77968, Note_on_c, 0, 63, 59
2, 77972, Note_on_c, 0, 57, 46
2, 77976, Note_on_c, 0, 67, 0
2, 77983, Note_on_c, 0, 57, 0
2, 77989, Note_on_c, 0, 63, 0
2, 78009, Note_on_c, 0, 77, 76
2, 78011, Note_on_c, 0, 89, 85
2, 78030, Note_on_c, 0, 77, 0
2, 78057, Note_on_c, 0, 89, 0
2, 78070, Note_on_c, 0, 77, 46
2, 78097, Note_on_c, 0, 77, 0
2, 78100, Note_on_c, 0, 89, 49
2, 78134, Note_on_c, 0, 89, 0
2, 78135, Note_on_c, 0, 77, 39
2, 78173, Note_on_c, 0, 77, 0
2, 78181, Note_on_c, 0, 89, 73
2, 78210, Note_on_c, 0, 63, 44
2, 78212, Note_on_c, 0, 89, 0
2, 78214, Note_on_c, 0, 67, 24
2, 78221, Note_on_c, 0, 63, 0
2, 78225, Note_on_c, 0, 67, 0
2, 78320, Note_on_c, 0, 84, 62
2, 78322, Note_on_c, 0, 72, 51
2, 78336, Note_on_c, 0, 72, 0
2, 78352, Note_on_c, 0, 84, 0
2, 78433, Note_on_c, 0, 75, 75
2, 78433, Note_on_c, 0, 87, 74
2, 78438, Note_on_c, 0, 67, 51
2, 78439, Note_on_c, 0, 63, 46
2, 78443, Note_on_c, 0, 58, 37
2, 78449, Note_on_c, 0, 67, 0
2, 78453, Note_on_c, 0, 75, 0
2, 78455, Note_on_c, 0, 58, 0
2, 78458, Note_on_c, 0, 63, 0
2, 78463, Note_on_c, 0, 87, 0
2, 78561, Note_on_c, 0, 89, 76
2, 78562, Note_on_c, 0, 67, 64
2, 78565, Note_on_c, 0, 58, 55
2, 78565, Note_on_c, 0, 63, 43
2, 78574, Note_on_c, 0, 67, 0
2, 78576, Note_on_c, 0, 58, 0
2, 78587, Note_on_c, 0, 63, 0
2, 78590, Note_on_c, 0, 89, 0
2, 78614, Note_on_c, 0, 87, 62
2, 78670, Note_on_c, 0, 87, 0
2, 78713, Note_on_c, 0, 84, 57
2, 78716, Note_on_c, 0, 63, 53
2, 78720, Note_on_c, 0, 67, 44
2, 78721, Note_on_c, 0, 57, 46
2, 78779, Note_on_c, 0, 84, 0
2, 78786, Note_on_c, 0, 67, 0
2, 78801, Note_on_c, 0, 87, 71
2, 78814, Note_on_c, 0, 57, 0
2, 78826, Note_on_c, 0, 63, 0
2, 78844, Note_on_c, 0, 87, 0
2, 78847, Note_on_c, 0, 84, 33
2, 78893, Note_on_c, 0, 84, 0
2, 78911, Note_on_c, 0, 67, 38
2, 78912, Note_on_c, 0, 63, 44
2, 78914, Note_on_c, 0, 81, 51
2, 78925, Note_on_c, 0, 67, 0
2, 78948, Note_on_c, 0, 63, 0
2, 78954, Note_on_c, 0, 81, 0
2, 79028, Note_on_c, 0, 63, 58
2, 79031, Note_on_c, 0, 57, 57
2, 79032, Note_on_c, 0, 84, 70
2, 79033, Note_on_c, 0, 67, 32
2, 79044, Note_on_c, 0, 57, 0
2, 79047, Note_on_c, 0, 67, 0
2, 79070, Note_on_c, 0, 84, 0
2, 79082, Note_on_c, 0, 63, 0
2, 79091, Note_on_c, 0, 81, 22
2, 79131, Note_on_c, 0, 81, 0
2, 79184, Note_on_c, 0, 67, 49
2, 79187, Note_on_c, 0, 63, 39
2, 79191, Note_on_c, 0, 60, 45
2, 79192, Note_on_c, 0, 80, 52
2, 79194, Note_on_c, 0, 56, 25
2, 79239, Note_on_c, 0, 60, 0
2, 79239, Note_on_c, 0, 67, 0
2, 79239, Note_on_c, 0, 63, 0
2, 79243, Note_on_c, 0, 56, 0
2, 79253, Note_on_c, 0, 80, 0
2, 79306, Note_on_c, 0, 79, 60
2, 79375, Note_on_c, 0, 79, 0
2, 79387, Note_on_c, 0, 80, 50
2, 79405, Note_on_c, 0, 79, 42
2, 79405, Note_on_c, 0, 63, 32
2, 79414, Note_on_c, 0, 80, 0
2, 79445, Note_on_c, 0, 63, 0
2, 79448, Note_on_c, 0, 77, 43
2, 79461, Note_on_c, 0, 79, 0
2, 79498, Note_on_c, 0, 77, 0
2, 79513, Note_on_c, 0, 76, 57
2, 79516, Note_on_c, 0, 63, 25
2, 79530, Note_on_c, 0, 63, 0
2, 79535, Note_on_c, 0, 76, 0
2, 79555, Note_on_c, 0, 79, 69
2, 79612, Note_on_c, 0, 79, 0
2, 79632, Note_on_c, 0, 76, 37
2, 79648, Note_on_c, 0, 76, 0
2, 79663, Note_on_c, 0, 63, 36
2, 79665, Note_on_c, 0, 67, 29
2, 79669, Note_on_c, 0, 56, 25
2, 79675, Note_on_c, 0, 60, 36
2, 79683, Note_on_c, 0, 77, 52
2, 79743, Note_on_c, 0, 77, 0
2, 79777, Note_on_c, 0, 56, 0
2, 79778, Note_on_c, 0, 67, 0
2, 79786, Note_on_c, 0, 60, 0
2, 79808, Note_on_c, 0, 63, 0
2, 79866, Note_on_c, 0, 67, 56
2, 79867, Note_on_c, 0, 63, 49
2, 79870, Note_on_c, 0, 56, 30
2, 79877, Note_on_c, 0, 60, 50
2, 79884, Note_on_c, 0, 67, 0
2, 79888, Note_on_c, 0, 60, 0
2, 79892, Note_on_c, 0, 56, 0
2, 79899, Note_on_c, 0, 63, 0
2, 79910, Control_c, 0, 64, 127
2, 79967, Control_c, 0, 64, 0
2, 79986, Note_on_c, 0, 63, 64
2, 79989, Note_on_c, 0, 77, 37
2, 79992, Note_on_c, 0, 76, 41
2, 79992, Note_on_c, 0, 67, 45
2, 79992, Note_on_c, 0, 56, 42
2, 79994, Note_on_c, 0, 60, 54
2, 80002, Note_on_c, 0, 76, 0
2, 80003, Note_on_c, 0, 67, 0
2, 80006, Note_on_c, 0, 77, 0
2, 80019, Note_on_c, 0, 60, 0
2, 80022, Note_on_c, 0, 63, 0
2, 80030, Note_on_c, 0, 56, 0
2, 80033, Note_on_c, 0, 79, 53
2, 80044, Control_c, 0, 64, 127
2, 80067, Note_on_c, 0, 79, 0
2, 80096, Control_c, 0, 64, 0
2, 80107, Note_on_c, 0, 68, 76
2, 80107, Note_on_c, 0, 80, 71
2, 80107, Note_on_c, 0, 77, 62
2, 80112, Note_on_c, 0, 63, 73
2, 80115, Note_on_c, 0, 56, 57
2, 80118, Note_on_c, 0, 59, 64
2, 80121, Note_on_c, 0, 53, 53
2, 80231, Note_on_c, 0, 68, 0
2, 80233, Note_on_c, 0, 80, 0
2, 80235, Note_on_c, 0, 53, 0
2, 80246, Note_on_c, 0, 77, 0
2, 80246, Note_on_c, 0, 63, 0
2, 80252, Note_on_c, 0, 59, 0
2, 80253, Note_on_c, 0, 56, 0
2, 80269, Note_on_c, 0, 63, 50
2, 80270, Note_on_c, 0, 82, 70
2, 80273, Note_on_c, 0, 70, 56
2, 80277, Note_on_c, 0, 75, 49
2, 80278, Note_on_c, 0, 53, 38
2, 80278, Note_on_c, 0, 59, 49
2, 80280, Note_on_c, 0, 56, 34
2, 80289, Note_on_c, 0, 77, 20
2, 80300, Note_on_c, 0, 53, 0
2, 80301, Note_on_c, 0, 82, 0
2, 80302, Note_on_c, 0, 63, 0
2, 80308, Note_on_c, 0, 70, 0
2, 80321, Note_on_c, 0, 75, 0
2, 80322, Note_on_c, 0, 59, 0
2, 80324, Note_on_c, 0, 77, 0
2, 80325, Note_on_c, 0, 56, 0
2, 80390, Note_on_c, 0, 80, 52
2, 80391, Note_on_c, 0, 68, 60
2, 80392, Note_on_c, 0, 63, 52
2, 80394, Control_c, 0, 64, 127
2, 80398, Note_on_c, 0, 75, 49
2, 80399, Note_on_c, 0, 59, 51
2, 80400, Note_on_c, 0, 56, 37
2, 80402, Note_on_c, 0, 53, 37
2, 80423, Note_on_c, 0, 80, 0
2, 80423, Control_c, 0, 64, 0
2, 80428, Note_on_c, 0, 53, 0
2, 80432, Note_on_c, 0, 68, 0
2, 80442, Note_on_c, 0, 75, 0
2, 80444, Note_on_c, 0, 63, 0
2, 80450, Note_on_c, 0, 59, 0
2, 80454, Note_on_c, 0, 56, 0
2, 80475, Note_on_c, 0, 63, 50
2, 80479, Note_on_c, 0, 82, 47
2, 80479, Note_on_c, 0, 70, 49
2, 80480, Note_on_c, 0, 75, 37
2, 80487, Note_on_c, 0, 56, 34
2, 80490, Note_on_c, 0, 82, 0
2, 80493, Note_on_c, 0, 53, 34
2, 80508, Note_on_c, 0, 70, 0
2, 80512, Note_on_c, 0, 63, 0
2, 80512, Note_on_c, 0, 53, 0
2, 80516, Control_c, 0, 64, 127
2, 80521, Note_on_c, 0, 75, 0
2, 80526, Note_on_c, 0, 56, 0
2, 80554, Control_c, 0, 64, 0
2, 80587, Note_on_c, 0, 74, 68
2, 80587, Note_on_c, 0, 67, 71
2, 80588, Note_on_c, 0, 79, 66
2, 80590, Note_on_c, 0, 58, 74
2, 80593, Note_on_c, 0, 62, 57
2, 80594, Note_on_c, 0, 52, 67
2, 80598, Note_on_c, 0, 67, 0
2, 80604, Note_on_c, 0, 62, 0
2, 80610, Note_on_c, 0, 58, 0
2, 80613, Note_on_c, 0, 74, 0
2, 80617, Note_on_c, 0, 79, 0
2, 80627, Note_on_c, 0, 52, 0
2, 80875, Note_on_c, 0, 46, 71
2, 80884, Note_on_c, 0, 84, 85
2, 80886, Note_on_c, 0, 46, 0
2, 80890, Note_on_c, 0, 48, 52
2, 80917, Note_on_c, 0, 84, 0
2, 80937, Note_on_c, 0, 48, 0
2, 81008, Note_on_c, 0, 79, 64
2, 81010, Note_on_c, 0, 43, 41
2, 81022, Note_on_c, 0, 43, 0
2, 81028, Note_on_c, 0, 79, 0
2, 81119, Note_on_c, 0, 82, 79
2, 81228, Control_c, 0, 64, 127
2, 81258, Note_on_c, 0, 82, 0
2, 81370, Control_c, 0, 64, 0
2, 81372, Note_on_c, 0, 68, 25
2, 81376, Note_on_c, 0, 59, 33
2, 81378, Note_on_c, 0, 53, 32
2, 81440, Control_c, 0, 64, 127
2, 81456, Note_on_c, 0, 59, 0
2, 81500, Note_on_c, 0, 53, 0
2, 81528, Note_on_c, 0, 68, 0
2, 81545, Control_c, 0, 64, 0
2, 81550, Note_on_c, 0, 64, 43
2, 81552, Note_on_c, 0, 67, 24
2, 81553, Note_on_c, 0, 58, 33
2, 81562, Note_on_c, 0, 52, 36
2, 81692, Note_on_c, 0, 64, 0
2, 81698, Note_on_c, 0, 67, 0
2, 81709, Control_c, 0, 64, 127
2, 81863, Note_on_c, 0, 52, 0
2, 81896, Control_c, 0, 64, 0
2, 81896, Note_on_c, 0, 84, 79
2, 81899, Note_on_c, 0, 58, 0
2, 81920, Note_on_c, 0, 55, 46
2, 81932, Note_on_c, 0, 84, 0
2, 81937, Note_on_c, 0, 55, 0
2, 81941, Note_on_c, 0, 79, 52
2, 81966, Note_on_c, 0, 79, 0
2, 82020, Note_on_c, 0, 82, 68
2, 82033, Note_on_c, 0, 63, 32
2, 82043, Note_on_c, 0, 63, 0
2, 82054, Note_on_c, 0, 82, 0
2, 82144, Note_on_c, 0, 84, 81
2, 82173, Note_on_c, 0, 84, 0
2, 82195, Note_on_c, 0, 82, 65
2, 82248, Note_on_c, 0, 82, 0
2, 82306, Note_on_c, 0, 78, 53
2, 82317, Note_on_c, 0, 63, 37
2, 82323, Note_on_c, 0, 59, 30
2, 82327, Note_on_c, 0, 79, 60
2, 82331, Note_on_c, 0, 78, 0
2, 82347, Note_on_c, 0, 63, 0
2, 82353, Note_on_c, 0, 59, 0
2, 82365, Note_on_c, 0, 79, 0
2, 82405, Note_on_c, 0, 82, 65
2, 82443, Note_on_c, 0, 82, 0
2, 82489, Note_on_c, 0, 79, 55
2, 82537, Note_on_c, 0, 79, 0
2, 82563, Note_on_c, 0, 63, 30
2, 82567, Note_on_c, 0, 76, 56
2, 82571, Note_on_c, 0, 58, 40
2, 82571, Note_on_c, 0, 52, 35
2, 82682, Control_c, 0, 64, 127
2, 82691, Note_on_c, 0, 76, 0
2, 82728, Note_on_c, 0, 52, 0
2, 82735, Note_on_c, 0, 58, 0
2, 82741, Note_on_c, 0, 63, 0
2, 82859, Note_on_c, 0, 80, 75
2, 82862, Note_on_c, 0, 58, 65
2, 82864, Note_on_c, 0, 70, 80
2, 82865, Note_on_c, 0, 64, 67
2, 82865, Note_on_c, 0, 73, 67
2, 82873, Control_c, 0, 64, 0
2, 82875, Note_on_c, 0, 73, 0
2, 82917, Note_on_c, 0, 80, 0
2, 82926, Control_c, 0, 64, 127
2, 82938, Note_on_c, 0, 76, 58
2, 82939, Note_on_c, 0, 64, 0
2, 82955, Note_on_c, 0, 70, 0
2, 82957, Note_on_c, 0, 58, 0
2, 82978, Note_on_c, 0, 76, 0
2, 83028, Note_on_c, 0, 77, 68
2, 83031, Note_on_c, 0, 68, 69
2, 83031, Control_c, 0, 64, 0
2, 83032, Note_on_c, 0, 64, 55
2, 83034, Note_on_c, 0, 60, 56
2, 83035, Note_on_c, 0, 56, 42
2, 83035, Note_on_c, 0, 72, 64
2, 83036, Note_on_c, 0, 53, 44
2, 83134, Control_c, 0, 64, 127
2, 83146, Note_on_c, 0, 53, 0
2, 83154, Note_on_c, 0, 56, 0
2, 83158, Note_on_c, 0, 60, 0
2, 83158, Note_on_c, 0, 68, 0
2, 83159, Note_on_c, 0, 72, 0
2, 83164, Note_on_c, 0, 64, 0
2, 83200, Note_on_c, 0, 77, 0
2, 83255, Note_on_c, 0, 58, 83
2, 83256, Note_on_c, 0, 60, 89
2, 83257, Note_on_c, 0, 65, 103
2, 83257, Note_on_c, 0, 54, 87
2, 83262, Control_c, 0, 64, 0
2, 83391, Control_c, 0, 64, 127
2, 83422, Note_on_c, 0, 60, 0
2, 83427, Note_on_c, 0, 65, 0
2, 83452, Note_on_c, 0, 58, 0
2, 83453, Note_on_c, 0, 54, 0
2, 83467, Control_c, 0, 64, 0
2, 83472, Note_on_c, 0, 64, 76
2, 83476, Note_on_c, 0, 53, 71
2, 83477, Note_on_c, 0, 59, 71
2, 83595, Note_on_c, 0, 67, 89
2, 83638, Control_c, 0, 64, 127
2, 83674, Note_on_c, 0, 53, 0
2, 83674, Note_on_c, 0, 64, 0
2, 83676, Note_on_c, 0, 59, 0
2, 83729, Note_on_c, 0, 67, 0
2, 83743, Control_c, 0, 64, 0
2, 83755, Note_on_c, 0, 63, 62
2, 83758, Note_on_c, 0, 58, 47
2, 83760, Note_on_c, 0, 52, 49
2, 83764, Note_on_c, 0, 68, 72
2, 83804, Note_on_c, 0, 68, 0
2, 83841, Note_on_c, 0, 70, 65
2, 83866, Note_on_c, 0, 52, 0
2, 83877, Note_on_c, 0, 70, 0
2, 83878, Note_on_c, 0, 63, 0
2, 83883, Note_on_c, 0, 58, 0
2, 83888, Control_c, 0, 64, 127
2, 83895, Note_on_c, 0, 72, 64
2, 83921, Note_on_c, 0, 72, 0
2, 83971, Control_c, 0, 64, 0
2, 83986, Note_on_c, 0, 64, 77
2, 83986, Note_on_c, 0, 77, 89
2, 83986, Note_on_c, 0, 56, 58
2, 83988, Note_on_c, 0, 60, 73
2, 83988, Note_on_c, 0, 53, 67
2, 84032, Control_c, 0, 64, 127
2, 84045, Note_on_c, 0, 64, 0
2, 84047, Note_on_c, 0, 60, 0
2, 84062, Note_on_c, 0, 56, 0
2, 84064, Note_on_c, 0, 53, 0
2, 84094, Note_on_c, 0, 77, 0
2, 84094, Control_c, 0, 64, 0
2, 84219, Control_c, 0, 64, 127
2, 84386, Note_on_c, 0, 60, 96
2, 84429, Note_on_c, 0, 60, 0
2, 84486, Note_on_c, 0, 60, 101
2, 84521, Note_on_c, 0, 60, 0
2, 84576, Note_on_c, 0, 60, 83
2, 84626, Note_on_c, 0, 60, 0
2, 84673, Note_on_c, 0, 60, 90
2, 84708, Note_on_c, 0, 60, 0
2, 84816, Control_c, 0, 64, 0
2, 84821, Note_on_c, 0, 22, 61
2, 84822, Note_on_c, 0, 60, 88
2, 84823, Note_on_c, 0, 67, 74
2, 84824, Note_on_c, 0, 34, 69
2, 84826, Note_on_c, 0, 56, 79
2, 84827, Note_on_c, 0, 64, 70
2, 84839, Note_on_c, 0, 65, 31
2, 84850, Note_on_c, 0, 65, 0
2, 84865, Note_on_c, 0, 56, 0
2, 84876, Note_on_c, 0, 60, 0
2, 84883, Note_on_c, 0, 64, 0
2, 84883, Control_c, 0, 64, 127
2, 84894, Note_on_c, 0, 67, 0
2, 84909, Note_on_c, 0, 22, 0
2, 84923, Note_on_c, 0, 34, 0
2, 85006, Note_on_c, 0, 79, 80
2, 85013, Note_on_c, 0, 72, 57
2, 85094, Note_on_c, 0, 79, 0
2, 85101, Note_on_c, 0, 72, 0
2, 85133, Note_on_c, 0, 76, 51
2, 85133, Note_on_c, 0, 72, 48
2, 85136, Note_on_c, 0, 56, 46
2, 85137, Note_on_c, 0, 68, 35
2, 85154, Note_on_c, 0, 68, 0
2, 85161, Note_on_c, 0, 72, 0
2, 85177, Note_on_c, 0, 76, 0
2, 85245, Note_on_c, 0, 62, 44
2, 85255, Note_on_c, 0, 91, 74
2, 85258, Note_on_c, 0, 84, 57
2, 85329, Note_on_c, 0, 84, 0
2, 85334, Note_on_c, 0, 91, 0
2, 85367, Note_on_c, 0, 79, 35
2, 85369, Note_on_c, 0, 67, 36
2, 85369, Note_on_c, 0, 88, 55
2, 85370, Note_on_c, 0, 84, 31
2, 85380, Note_on_c, 0, 79, 0
2, 85382, Note_on_c, 0, 84, 0
2, 85399, Note_on_c, 0, 88, 0
2, 85415, Note_on_c, 0, 62, 0
2, 85485, Note_on_c, 0, 103, 68
2, 85487, Note_on_c, 0, 96, 59
2, 85492, Note_on_c, 0, 62, 31
2, 85523, Note_on_c, 0, 67, 0
2, 85582, Note_on_c, 0, 96, 0
2, 85600, Note_on_c, 0, 103, 0
2, 85619, Note_on_c, 0, 96, 42
2, 85620, Note_on_c, 0, 100, 55
2, 85621, Note_on_c, 0, 91, 38
2, 85623, Note_on_c, 0, 67, 36
2, 86170, Note_on_c, 0, 91, 0
2, 86177, Note_on_c, 0, 96, 0
2, 86182, Note_on_c, 0, 100, 0
2, 86253, Control_c, 0, 64, 0
2, 86302, Note_on_c, 0, 62, 0
2, 86303, Note_on_c, 0, 56, 0
2, 86305, Note_on_c, 0, 67, 0
2, 86305, End_track
3, 0, Start_track
3, 0, MIDI_port, 1
3, 0, Title_t, ""
3, 132, Program_c, 2, 32
3, 133, Control_c, 2, 7, 102
3, 491, Note_on_c, 2, 51, 67
3, 545, Note_on_c, 2, 53, 56
3, 546, Note_on_c, 2, 51, 0
3, 589, Note_on_c, 2, 53, 0
3, 721, Note_on_c, 2, 51, 47
3, 770, Note_on_c, 2, 51, 0
3, 800, Note_on_c, 2, 53, 66
3, 827, Note_on_c, 2, 53, 0
3, 916, Note_on_c, 2, 56, 87
3, 961, Note_on_c, 2, 56, 0
3, 1045, Note_on_c, 2, 53, 103
3, 1343, Note_on_c, 2, 53, 0
3, 1449, Note_on_c, 2, 51, 93
3, 1506, Note_on_c, 2, 51, 0
3, 1526, Note_on_c, 2, 53, 71
3, 1548, Note_on_c, 2, 53, 0
3, 1646, Note_on_c, 2, 51, 82
3, 1683, Note_on_c, 2, 51, 0
3, 1767, Note_on_c, 2, 53, 79
3, 1793, Note_on_c, 2, 53, 0
3, 1817, Pitch_bend_c, 2, 8192
3, 1818, Pitch_bend_c, 2, 8192
3, 1820, Pitch_bend_c, 2, 8192
3, 1822, Pitch_bend_c, 2, 7552
3, 1824, Pitch_bend_c, 2, 7296
3, 1826, Pitch_bend_c, 2, 7040
3, 1827, Pitch_bend_c, 2, 6656
3, 1830, Pitch_bend_c, 2, 6272
3, 1831, Pitch_bend_c, 2, 5888
3, 1833, Pitch_bend_c, 2, 5504
3, 1834, Pitch_bend_c, 2, 4992
3, 1836, Pitch_bend_c, 2, 4480
3, 1839, Pitch_bend_c, 2, 4096
3, 1840, Pitch_bend_c, 2, 3584
3, 1842, Pitch_bend_c, 2, 3200
3, 1843, Pitch_bend_c, 2, 2816
3, 1846, Pitch_bend_c, 2, 2432
3, 1847, Pitch_bend_c, 2, 2176
3, 1849, Pitch_bend_c, 2, 1792
3, 1850, Pitch_bend_c, 2, 1664
3, 1852, Pitch_bend_c, 2, 1408
3, 1855, Pitch_bend_c, 2, 1152
3, 1856, Pitch_bend_c, 2, 1024
3, 1858, Pitch_bend_c, 2, 896
3, 1862, Pitch_bend_c, 2, 640
3, 1863, Pitch_bend_c, 2, 512
3, 1865, Pitch_bend_c, 2, 384
3, 1868, Pitch_bend_c, 2, 256
3, 1869, Pitch_bend_c, 2, 128
3, 1890, Note_on_c, 2, 47, 94
3, 1899, Pitch_bend_c, 2, 384
3, 1900, Pitch_bend_c, 2, 512
3, 1902, Pitch_bend_c, 2, 640
3, 1906, Pitch_bend_c, 2, 896
3, 1909, Pitch_bend_c, 2, 1024
3, 1914, Pitch_bend_c, 2, 1152
3, 1915, Pitch_bend_c, 2, 1280
3, 1917, Pitch_bend_c, 2, 1536
3, 1920, Pitch_bend_c, 2, 1664
3, 1921, Pitch_bend_c, 2, 1920
3, 1923, Pitch_bend_c, 2, 2176
3, 1924, Pitch_bend_c, 2, 2432
3, 1926, Pitch_bend_c, 2, 2560
3, 1928, Pitch_bend_c, 2, 2688
3, 1935, Pitch_bend_c, 2, 2816
3, 1952, Pitch_bend_c, 2, 2944
3, 1955, Pitch_bend_c, 2, 3200
3, 1958, Pitch_bend_c, 2, 3456
3, 1960, Pitch_bend_c, 2, 3584
3, 1962, Pitch_bend_c, 2, 3712
3, 1964, Pitch_bend_c, 2, 3840
3, 1965, Pitch_bend_c, 2, 3968
3, 1968, Pitch_bend_c, 2, 4096
3, 1969, Pitch_bend_c, 2, 4352
3, 1971, Pitch_bend_c, 2, 4480
3, 1974, Pitch_bend_c, 2, 4608
3, 1977, Pitch_bend_c, 2, 4736
3, 1980, Pitch_bend_c, 2, 4864
3, 1981, Pitch_bend_c, 2, 5120
3, 1984, Pitch_bend_c, 2, 5376
3, 1985, Pitch_bend_c, 2, 5504
3, 1987, Pitch_bend_c, 2, 5760
3, 1988, Pitch_bend_c, 2, 5888
3, 1991, Pitch_bend_c, 2, 6144
3, 1993, Pitch_bend_c, 2, 6272
3, 1994, Pitch_bend_c, 2, 6400
3, 1997, Pitch_bend_c, 2, 6528
3, 1998, Pitch_bend_c, 2, 6656
3, 2005, Pitch_bend_c, 2, 6784
3, 2012, Pitch_bend_c, 2, 6912
3, 2017, Pitch_bend_c, 2, 7040
3, 2021, Pitch_bend_c, 2, 7168
3, 2028, Pitch_bend_c, 2, 7296
3, 2037, Pitch_bend_c, 2, 7424
3, 2043, Pitch_bend_c, 2, 7552
3, 2047, Pitch_bend_c, 2, 8192
3, 2051, Pitch_bend_c, 2, 8192
3, 2054, Pitch_bend_c, 2, 8192
3, 2059, Pitch_bend_c, 2, 8192
3, 2062, Pitch_bend_c, 2, 8192
3, 2250, Note_on_c, 2, 47, 0
3, 2363, Note_on_c, 2, 41, 46
3, 2376, Note_on_c, 2, 41, 0
3, 2409, Note_on_c, 2, 44, 52
3, 2459, Note_on_c, 2, 44, 0
3, 2477, Note_on_c, 2, 46, 72
3, 2512, Note_on_c, 2, 46, 0
3, 2594, Note_on_c, 2, 44, 74
3, 2625, Note_on_c, 2, 44, 0
3, 2712, Note_on_c, 2, 46, 77
3, 2740, Note_on_c, 2, 46, 0
3, 2830, Note_on_c, 2, 46, 55
3, 2831, Note_on_c, 2, 47, 80
3, 2840, Note_on_c, 2, 46, 0
3, 2991, Note_on_c, 2, 47, 0
3, 3011, Note_on_c, 2, 46, 60
3, 3045, Note_on_c, 2, 46, 0
3, 3091, Note_on_c, 2, 44, 35
3, 3103, Note_on_c, 2, 44, 0
3, 3137, Note_on_c, 2, 46, 49
3, 3162, Note_on_c, 2, 46, 0
3, 3218, Note_on_c, 2, 44, 59
3, 3249, Note_on_c, 2, 44, 0
3, 3270, Note_on_c, 2, 41, 22
3, 3297, Note_on_c, 2, 41, 0
3, 3316, Note_on_c, 2, 39, 42
3, 3339, Note_on_c, 2, 39, 0
3, 3356, Note_on_c, 2, 41, 41
3, 3847, Note_on_c, 2, 41, 0
3, 4331, Note_on_c, 2, 51, 71
3, 4387, Note_on_c, 2, 51, 0
3, 4400, Note_on_c, 2, 53, 57
3, 4425, Note_on_c, 2, 53, 0
3, 4519, Note_on_c, 2, 51, 64
3, 4549, Note_on_c, 2, 51, 0
3, 4645, Note_on_c, 2, 53, 42
3, 4662, Note_on_c, 2, 53, 0
3, 4758, Note_on_c, 2, 58, 58
3, 4762, Note_on_c, 2, 59, 68
3, 4778, Note_on_c, 2, 58, 0
3, 4784, Note_on_c, 2, 59, 0
3, 4886, Note_on_c, 2, 58, 77
3, 5252, Note_on_c, 2, 58, 0
3, 5297, Note_on_c, 2, 51, 56
3, 5359, Note_on_c, 2, 51, 0
3, 5367, Note_on_c, 2, 53, 62
3, 5387, Note_on_c, 2, 53, 0
3, 5490, Note_on_c, 2, 51, 71
3, 5518, Note_on_c, 2, 51, 0
3, 5607, Note_on_c, 2, 53, 68
3, 5626, Note_on_c, 2, 53, 0
3, 5724, Note_on_c, 2, 47, 79
3, 6201, Note_on_c, 2, 47, 0
3, 6253, Note_on_c, 2, 44, 52
3, 6294, Note_on_c, 2, 44, 0
3, 6325, Note_on_c, 2, 46, 54
3, 6348, Note_on_c, 2, 46, 0
3, 6437, Note_on_c, 2, 46, 73
3, 6475, Note_on_c, 2, 46, 0
3, 6562, Note_on_c, 2, 44, 74
3, 6592, Note_on_c, 2, 44, 0
3, 6673, Note_on_c, 2, 46, 79
3, 6687, Note_on_c, 2, 47, 63
3, 6705, Note_on_c, 2, 46, 0
3, 6838, Note_on_c, 2, 47, 0
3, 6843, Note_on_c, 2, 46, 60
3, 6895, Note_on_c, 2, 46, 0
3, 6923, Note_on_c, 2, 44, 33
3, 6942, Note_on_c, 2, 44, 0
3, 6975, Note_on_c, 2, 46, 69
3, 7010, Note_on_c, 2, 46, 0
3, 7043, Note_on_c, 2, 44, 62
3, 7078, Note_on_c, 2, 44, 0
3, 7094, Note_on_c, 2, 41, 53
3, 7112, Note_on_c, 2, 41, 0
3, 7139, Note_on_c, 2, 39, 44
3, 7151, Note_on_c, 2, 39, 0
3, 7173, Note_on_c, 2, 41, 66
3, 7294, Note_on_c, 2, 41, 0
3, 7919, Note_on_c, 2, 48, 71
3, 7977, Note_on_c, 2, 48, 0
3, 8007, Note_on_c, 2, 39, 39
3, 8016, Note_on_c, 2, 39, 0
3, 8044, Note_on_c, 2, 42, 57
3, 8149, Note_on_c, 2, 42, 0
3, 8164, Note_on_c, 2, 43, 64
3, 8402, Note_on_c, 2, 37, 68
3, 8403, Note_on_c, 2, 43, 0
3, 8603, Note_on_c, 2, 34, 40
3, 8618, Note_on_c, 2, 37, 0
3, 8638, Note_on_c, 2, 34, 0
3, 8644, Note_on_c, 2, 36, 66
3, 8966, Note_on_c, 2, 32, 45
3, 8978, Note_on_c, 2, 32, 0
3, 8981, Note_on_c, 2, 36, 0
3, 9001, Note_on_c, 2, 44, 80
3, 9114, Note_on_c, 2, 44, 0
3, 9120, Note_on_c, 2, 43, 68
3, 9240, Note_on_c, 2, 55, 74
3, 9293, Note_on_c, 2, 43, 0
3, 9321, Note_on_c, 2, 43, 11
3, 9438, Note_on_c, 2, 43, 0
3, 9443, Note_on_c, 2, 42, 55
3, 9455, Note_on_c, 2, 42, 0
3, 9464, Note_on_c, 2, 55, 0
3, 9476, Note_on_c, 2, 49, 52
3, 9584, Note_on_c, 2, 49, 0
3, 9595, Note_on_c, 2, 48, 51
3, 9713, Note_on_c, 2, 48, 0
3, 9720, Note_on_c, 2, 36, 81
3, 9914, Note_on_c, 2, 36, 0
3, 9918, Note_on_c, 2, 39, 43
3, 9942, Note_on_c, 2, 39, 0
3, 9956, Note_on_c, 2, 40, 57
3, 10045, Note_on_c, 2, 39, 25
3, 10069, Note_on_c, 2, 40, 0
3, 10073, Note_on_c, 2, 39, 0
3, 10079, Note_on_c, 2, 41, 55
3, 10430, Note_on_c, 2, 41, 0
3, 10435, Note_on_c, 2, 38, 62
3, 10629, Note_on_c, 2, 38, 0
3, 10644, Note_on_c, 2, 38, 43
3, 10679, Note_on_c, 2, 43, 72
3, 10689, Note_on_c, 2, 38, 0
3, 10789, Note_on_c, 2, 43, 0
3, 10800, Note_on_c, 2, 42, 70
3, 10889, Note_on_c, 2, 42, 0
3, 10892, Note_on_c, 2, 37, 32
3, 10903, Note_on_c, 2, 37, 0
3, 10920, Note_on_c, 2, 42, 60
3, 11022, Note_on_c, 2, 42, 0
3, 11035, Note_on_c, 2, 41, 50
3, 11270, Note_on_c, 2, 41, 0
3, 11282, Note_on_c, 2, 36, 62
3, 11517, Note_on_c, 2, 36, 0
3, 11524, Note_on_c, 2, 34, 52
3, 11727, Note_on_c, 2, 50, 63
3, 11954, Note_on_c, 2, 37, 42
3, 11980, Note_on_c, 2, 34, 0
3, 11986, Note_on_c, 2, 37, 0
3, 11992, Note_on_c, 2, 50, 0
3, 11993, Note_on_c, 2, 43, 77
3, 12235, Note_on_c, 2, 43, 0
3, 12242, Note_on_c, 2, 37, 56
3, 12441, Note_on_c, 2, 37, 0
3, 12445, Note_on_c, 2, 36, 47
3, 12563, Note_on_c, 2, 52, 72
3, 12791, Note_on_c, 2, 37, 55
3, 12812, Note_on_c, 2, 36, 0
3, 12820, Note_on_c, 2, 37, 0
3, 12829, Note_on_c, 2, 52, 0
3, 12831, Note_on_c, 2, 48, 64
3, 12939, Note_on_c, 2, 48, 0
3, 12954, Note_on_c, 2, 43, 62
3, 13166, Note_on_c, 2, 37, 26
3, 13175, Note_on_c, 2, 37, 0
3, 13183, Note_on_c, 2, 43, 0
3, 13192, Note_on_c, 2, 49, 78
3, 13312, Note_on_c, 2, 49, 0
3, 13313, Note_on_c, 2, 48, 74
3, 13522, Note_on_c, 2, 34, 32
3, 13547, Note_on_c, 2, 48, 0
3, 13548, Note_on_c, 2, 34, 0
3, 13556, Note_on_c, 2, 36, 66
3, 13718, Note_on_c, 2, 36, 0
3, 13719, Note_on_c, 2, 38, 45
3, 13745, Note_on_c, 2, 38, 0
3, 13757, Note_on_c, 2, 39, 49
3, 13766, Note_on_c, 2, 39, 0
3, 13791, Note_on_c, 2, 40, 71
3, 13902, Note_on_c, 2, 40, 0
3, 13910, Note_on_c, 2, 41, 65
3, 14153, Note_on_c, 2, 41, 0
3, 14154, Note_on_c, 2, 38, 62
3, 14276, Note_on_c, 2, 43, 89
3, 14282, Note_on_c, 2, 38, 0
3, 14484, Note_on_c, 2, 43, 0
3, 14511, Note_on_c, 2, 46, 58
3, 14628, Note_on_c, 2, 46, 0
3, 14633, Note_on_c, 2, 48, 66
3, 14684, Note_on_c, 2, 48, 0
3, 14716, Note_on_c, 2, 39, 42
3, 14736, Note_on_c, 2, 39, 0
3, 14754, Note_on_c, 2, 40, 57
3, 14828, Note_on_c, 2, 40, 0
3, 14831, Note_on_c, 2, 41, 74
3, 14905, Note_on_c, 2, 41, 0
3, 14916, Note_on_c, 2, 36, 59
3, 14940, Note_on_c, 2, 36, 0
3, 14952, Note_on_c, 2, 34, 71
3, 14975, Note_on_c, 2, 34, 0
3, 14994, Note_on_c, 2, 33, 79
3, 15114, Note_on_c, 2, 33, 0
3, 15118, Note_on_c, 2, 34, 57
3, 15235, Note_on_c, 2, 34, 0
3, 15239, Note_on_c, 2, 35, 57
3, 15356, Note_on_c, 2, 35, 0
3, 15359, Note_on_c, 2, 36, 56
3, 15443, Note_on_c, 2, 34, 47
3, 15455, Note_on_c, 2, 36, 0
3, 15468, Note_on_c, 2, 34, 0
3, 15477, Note_on_c, 2, 43, 73
3, 15586, Note_on_c, 2, 43, 0
3, 15597, Note_on_c, 2, 41, 55
3, 15685, Note_on_c, 2, 34, 50
3, 15693, Note_on_c, 2, 34, 0
3, 15696, Note_on_c, 2, 41, 0
3, 15715, Note_on_c, 2, 50, 70
3, 15823, Note_on_c, 2, 50, 0
3, 15842, Note_on_c, 2, 48, 49
3, 15908, Note_on_c, 2, 48, 0
3, 15924, Note_on_c, 2, 43, 52
3, 15944, Note_on_c, 2, 43, 0
3, 15959, Note_on_c, 2, 39, 59
3, 16074, Note_on_c, 2, 39, 0
3, 16078, Note_on_c, 2, 43, 42
3, 16165, Note_on_c, 2, 39, 36
3, 16171, Note_on_c, 2, 43, 0
3, 16184, Note_on_c, 2, 39, 0
3, 16198, Note_on_c, 2, 42, 64
3, 16309, Note_on_c, 2, 42, 0
3, 16321, Note_on_c, 2, 41, 57
3, 16395, Note_on_c, 2, 41, 0
3, 16407, Note_on_c, 2, 36, 37
3, 16417, Note_on_c, 2, 36, 0
3, 16437, Note_on_c, 2, 33, 83
3, 16548, Note_on_c, 2, 33, 0
3, 16564, Note_on_c, 2, 40, 54
3, 16566, Note_on_c, 2, 38, 55
3, 16573, Note_on_c, 2, 40, 0
3, 16670, Note_on_c, 2, 38, 0
3, 16677, Note_on_c, 2, 37, 53
3, 16763, Note_on_c, 2, 34, 34
3, 16784, Note_on_c, 2, 37, 0
3, 16795, Note_on_c, 2, 34, 0
3, 16798, Note_on_c, 2, 36, 48
3, 16888, Note_on_c, 2, 37, 40
3, 16905, Note_on_c, 2, 36, 0
3, 16912, Note_on_c, 2, 37, 0
3, 16919, Note_on_c, 2, 50, 99
3, 17028, Note_on_c, 2, 50, 0
3, 17030, Note_on_c, 2, 43, 54
3, 17107, Note_on_c, 2, 39, 42
3, 17122, Note_on_c, 2, 43, 0
3, 17144, Note_on_c, 2, 39, 0
3, 17149, Note_on_c, 2, 42, 55
3, 17262, Note_on_c, 2, 42, 0
3, 17268, Note_on_c, 2, 41, 55
3, 17362, Note_on_c, 2, 42, 36
3, 17384, Note_on_c, 2, 41, 0
3, 17385, Note_on_c, 2, 55, 87
3, 17391, Note_on_c, 2, 42, 0
3, 17499, Note_on_c, 2, 55, 0
3, 17508, Note_on_c, 2, 53, 62
3, 17607, Note_on_c, 2, 53, 0
3, 17627, Note_on_c, 2, 51, 57
3, 17743, Note_on_c, 2, 51, 0
3, 17757, Note_on_c, 2, 50, 48
3, 17841, Note_on_c, 2, 46, 40
3, 17852, Note_on_c, 2, 46, 0
3, 17852, Note_on_c, 2, 50, 0
3, 17874, Note_on_c, 2, 48, 62
3, 17985, Note_on_c, 2, 48, 0
3, 17997, Note_on_c, 2, 46, 62
3, 18108, Note_on_c, 2, 46, 0
3, 18118, Note_on_c, 2, 45, 51
3, 18226, Note_on_c, 2, 45, 0
3, 18235, Note_on_c, 2, 46, 52
3, 18358, Note_on_c, 2, 41, 51
3, 18376, Note_on_c, 2, 46, 0
3, 18476, Note_on_c, 2, 38, 48
3, 18477, Note_on_c, 2, 41, 0
3, 18563, Note_on_c, 2, 41, 41
3, 18576, Note_on_c, 2, 38, 0
3, 18581, Note_on_c, 2, 41, 0
3, 18596, Note_on_c, 2, 50, 71
3, 18700, Note_on_c, 2, 50, 0
3, 18713, Note_on_c, 2, 49, 51
3, 18832, Note_on_c, 2, 43, 50
3, 18848, Note_on_c, 2, 49, 0
3, 18953, Note_on_c, 2, 43, 0
3, 18957, Note_on_c, 2, 37, 44
3, 19069, Note_on_c, 2, 37, 0
3, 19082, Note_on_c, 2, 35, 73
3, 19192, Note_on_c, 2, 35, 0
3, 19200, Note_on_c, 2, 36, 80
3, 19234, Note_on_c, 2, 36, 0
3, 19682, Note_on_c, 2, 43, 74
3, 19787, Note_on_c, 2, 43, 0
3, 19800, Note_on_c, 2, 37, 39
3, 19994, Note_on_c, 2, 34, 43
3, 19997, Note_on_c, 2, 37, 0
3, 20024, Note_on_c, 2, 34, 0
3, 20032, Note_on_c, 2, 35, 64
3, 20141, Note_on_c, 2, 35, 0
3, 20150, Note_on_c, 2, 36, 44
3, 20234, Note_on_c, 2, 50, 64
3, 20261, Note_on_c, 2, 50, 0
3, 20271, Note_on_c, 2, 36, 0
3, 20282, Note_on_c, 2, 48, 44
3, 20596, Note_on_c, 2, 42, 55
3, 20618, Note_on_c, 2, 48, 0
3, 20627, Note_on_c, 2, 42, 0
3, 20637, Note_on_c, 2, 43, 40
3, 20724, Note_on_c, 2, 42, 39
3, 20737, Note_on_c, 2, 43, 0
3, 20743, Note_on_c, 2, 42, 0
3, 20764, Note_on_c, 2, 55, 85
3, 20960, Note_on_c, 2, 46, 54
3, 20980, Note_on_c, 2, 46, 0
3, 20995, Note_on_c, 2, 55, 0
3, 21001, Note_on_c, 2, 47, 64
3, 21099, Note_on_c, 2, 47, 0
3, 21114, Note_on_c, 2, 48, 60
3, 21335, Note_on_c, 2, 39, 25
3, 21341, Note_on_c, 2, 48, 0
3, 21355, Note_on_c, 2, 39, 0
3, 21361, Note_on_c, 2, 42, 59
3, 21569, Note_on_c, 2, 39, 35
3, 21584, Note_on_c, 2, 42, 0
3, 21595, Note_on_c, 2, 39, 0
3, 21601, Note_on_c, 2, 41, 58
3, 21818, Note_on_c, 2, 39, 29
3, 21838, Note_on_c, 2, 41, 0
3, 21843, Note_on_c, 2, 39, 0
3, 21848, Note_on_c, 2, 50, 68
3, 22049, Note_on_c, 2, 37, 26
3, 22076, Note_on_c, 2, 50, 0
3, 22084, Note_on_c, 2, 37, 0
3, 22087, Note_on_c, 2, 43, 54
3, 22323, Note_on_c, 2, 43, 0
3, 22325, Note_on_c, 2, 36, 53
3, 22356, Note_on_c, 2, 36, 0
3, 22406, Note_on_c, 2, 39, 46
3, 22431, Note_on_c, 2, 39, 0
3, 22447, Note_on_c, 2, 40, 58
3, 22516, Note_on_c, 2, 40, 0
3, 22526, Note_on_c, 2, 41, 92
3, 22967, Note_on_c, 2, 41, 0
3, 23528, Note_on_c, 2, 48, 99
3, 23572, Note_on_c, 2, 48, 0
3, 23594, Note_on_c, 2, 48, 72
3, 23621, Note_on_c, 2, 48, 0
3, 23847, Note_on_c, 2, 35, 60
3, 23863, Note_on_c, 2, 35, 0
3, 23886, Note_on_c, 2, 35, 74
3, 23960, Note_on_c, 2, 36, 91
3, 23963, Note_on_c, 2, 35, 0
3, 24034, Note_on_c, 2, 36, 0
3, 24319, Note_on_c, 2, 36, 61
3, 24329, Note_on_c, 2, 36, 0
3, 24356, Note_on_c, 2, 46, 84
3, 24433, Note_on_c, 2, 46, 0
3, 24434, Note_on_c, 2, 47, 66
3, 24465, Note_on_c, 2, 47, 0
3, 24481, Note_on_c, 2, 48, 82
3, 24545, Note_on_c, 2, 48, 0
3, 24561, Note_on_c, 2, 48, 75
3, 24584, Note_on_c, 2, 48, 0
3, 24844, Note_on_c, 2, 36, 73
3, 24891, Note_on_c, 2, 36, 0
3, 24910, Note_on_c, 2, 36, 81
3, 24954, Note_on_c, 2, 36, 0
3, 25284, Note_on_c, 2, 36, 54
3, 25296, Note_on_c, 2, 36, 0
3, 25370, Note_on_c, 2, 39, 76
3, 25370, Note_on_c, 2, 39, 0
3, 25394, Note_on_c, 2, 40, 63
3, 25420, Note_on_c, 2, 40, 0
3, 25437, Note_on_c, 2, 41, 87
3, 25492, Note_on_c, 2, 41, 0
3, 25513, Note_on_c, 2, 41, 70
3, 25543, Note_on_c, 2, 41, 0
3, 25799, Note_on_c, 2, 29, 74
3, 25855, Note_on_c, 2, 29, 0
3, 25880, Note_on_c, 2, 29, 74
3, 25950, Note_on_c, 2, 29, 0
3, 26374, Note_on_c, 2, 40, 50
3, 26387, Note_on_c, 2, 40, 0
3, 26418, Note_on_c, 2, 41, 79
3, 26473, Note_on_c, 2, 41, 0
3, 26517, Note_on_c, 2, 41, 67
3, 26517, Note_on_c, 2, 41, 0
3, 26764, Note_on_c, 2, 29, 74
3, 26816, Note_on_c, 2, 29, 0
3, 26841, Note_on_c, 2, 29, 77
3, 26898, Note_on_c, 2, 29, 0
3, 27200, Note_on_c, 2, 34, 67
3, 27231, Note_on_c, 2, 34, 0
3, 27241, Note_on_c, 2, 35, 80
3, 27306, Note_on_c, 2, 35, 0
3, 27321, Note_on_c, 2, 36, 61
3, 27333, Note_on_c, 2, 36, 0
3, 27364, Note_on_c, 2, 48, 88
3, 27409, Note_on_c, 2, 48, 0
3, 27430, Note_on_c, 2, 48, 78
3, 27453, Note_on_c, 2, 48, 0
3, 27720, Note_on_c, 2, 36, 67
3, 27773, Note_on_c, 2, 36, 0
3, 27791, Note_on_c, 2, 36, 92
3, 27840, Note_on_c, 2, 36, 0
3, 28280, Note_on_c, 2, 47, 66
3, 28298, Note_on_c, 2, 47, 0
3, 28323, Note_on_c, 2, 48, 90
3, 28389, Note_on_c, 2, 48, 0
3, 28425, Note_on_c, 2, 48, 77
3, 28425, Note_on_c, 2, 48, 0
3, 28685, Note_on_c, 2, 36, 69
3, 28743, Note_on_c, 2, 36, 0
3, 28759, Note_on_c, 2, 36, 91
3, 28802, Note_on_c, 2, 36, 0
3, 29239, Note_on_c, 2, 36, 58
3, 29249, Note_on_c, 2, 36, 0
3, 29281, Note_on_c, 2, 41, 108
3, 29330, Note_on_c, 2, 41, 0
3, 29349, Note_on_c, 2, 41, 71
3, 29381, Note_on_c, 2, 41, 0
3, 29588, Note_on_c, 2, 36, 72
3, 29601, Note_on_c, 2, 36, 0
3, 29636, Note_on_c, 2, 29, 74
3, 29695, Note_on_c, 2, 29, 0
3, 29709, Note_on_c, 2, 29, 77
3, 29771, Note_on_c, 2, 29, 0
3, 29977, Note_on_c, 2, 29, 65
3, 29992, Note_on_c, 2, 29, 0
3, 30011, Note_on_c, 2, 39, 91
3, 30082, Note_on_c, 2, 39, 0
3, 30118, Note_on_c, 2, 40, 90
3, 30174, Note_on_c, 2, 40, 0
3, 30239, Note_on_c, 2, 41, 105
3, 30292, Note_on_c, 2, 41, 0
3, 30311, Note_on_c, 2, 41, 75
3, 30345, Note_on_c, 2, 41, 0
3, 30600, Note_on_c, 2, 29, 82
3, 30651, Note_on_c, 2, 29, 0
3, 30678, Note_on_c, 2, 29, 84
3, 30727, Note_on_c, 2, 29, 0
3, 30928, Note_on_c, 2, 39, 27
3, 30955, Note_on_c, 2, 39, 0
3, 30962, Note_on_c, 2, 53, 103
3, 31157, Note_on_c, 2, 53, 0
3, 31157, Note_on_c, 2, 49, 78
3, 31185, Note_on_c, 2, 49, 0
3, 31204, Note_on_c, 2, 48, 56
3, 31275, Note_on_c, 2, 39, 38
3, 31276, Note_on_c, 2, 48, 0
3, 31307, Note_on_c, 2, 39, 0
3, 31316, Note_on_c, 2, 43, 45
3, 31428, Note_on_c, 2, 43, 0
3, 31438, Note_on_c, 2, 39, 49
3, 31551, Note_on_c, 2, 39, 0
3, 31561, Note_on_c, 2, 42, 65
3, 31641, Note_on_c, 2, 39, 42
3, 31648, Note_on_c, 2, 42, 0
3, 31671, Note_on_c, 2, 39, 0
3, 31681, Note_on_c, 2, 41, 45
3, 31797, Note_on_c, 2, 41, 0
3, 31801, Note_on_c, 2, 39, 47
3, 31886, Note_on_c, 2, 37, 30
3, 31902, Note_on_c, 2, 39, 0
3, 31911, Note_on_c, 2, 37, 0
3, 31925, Note_on_c, 2, 38, 30
3, 32028, Note_on_c, 2, 38, 0
3, 32036, Note_on_c, 2, 37, 50
3, 32127, Note_on_c, 2, 34, 33
3, 32135, Note_on_c, 2, 37, 0
3, 32149, Note_on_c, 2, 34, 0
3, 32157, Note_on_c, 2, 36, 40
3, 32250, Note_on_c, 2, 34, 28
3, 32262, Note_on_c, 2, 36, 0
3, 32277, Note_on_c, 2, 50, 101
3, 32279, Note_on_c, 2, 34, 0
3, 32389, Note_on_c, 2, 50, 0
3, 32392, Note_on_c, 2, 48, 60
3, 32480, Note_on_c, 2, 43, 48
3, 32490, Note_on_c, 2, 48, 0
3, 32498, Note_on_c, 2, 43, 0
3, 32517, Note_on_c, 2, 42, 55
3, 32604, Note_on_c, 2, 39, 29
3, 32623, Note_on_c, 2, 42, 0
3, 32630, Note_on_c, 2, 39, 0
3, 32634, Note_on_c, 2, 41, 48
3, 32720, Note_on_c, 2, 42, 39
3, 32741, Note_on_c, 2, 41, 0
3, 32752, Note_on_c, 2, 42, 0
3, 32755, Note_on_c, 2, 57, 88
3, 32865, Note_on_c, 2, 57, 0
3, 32876, Note_on_c, 2, 55, 65
3, 32979, Note_on_c, 2, 55, 0
3, 32995, Note_on_c, 2, 53, 67
3, 33098, Note_on_c, 2, 53, 0
3, 33111, Note_on_c, 2, 50, 60
3, 33207, Note_on_c, 2, 45, 69
3, 33214, Note_on_c, 2, 50, 0
3, 33232, Note_on_c, 2, 45, 0
3, 33240, Note_on_c, 2, 46, 76
3, 33348, Note_on_c, 2, 46, 0
3, 33351, Note_on_c, 2, 44, 57
3, 33468, Note_on_c, 2, 44, 0
3, 33474, Note_on_c, 2, 43, 60
3, 33540, Note_on_c, 2, 43, 0
3, 33556, Note_on_c, 2, 42, 62
3, 33579, Note_on_c, 2, 42, 0
3, 33594, Note_on_c, 2, 41, 50
3, 33707, Note_on_c, 2, 41, 0
3, 33716, Note_on_c, 2, 38, 58
3, 33824, Note_on_c, 2, 38, 0
3, 33837, Note_on_c, 2, 34, 55
3, 33918, Note_on_c, 2, 38, 24
3, 33930, Note_on_c, 2, 34, 0
3, 33933, Note_on_c, 2, 38, 0
3, 33951, Note_on_c, 2, 44, 72
3, 34037, Note_on_c, 2, 38, 41
3, 34050, Note_on_c, 2, 38, 0
3, 34066, Note_on_c, 2, 44, 0
3, 34070, Note_on_c, 2, 43, 56
3, 34164, Note_on_c, 2, 38, 29
3, 34175, Note_on_c, 2, 38, 0
3, 34181, Note_on_c, 2, 43, 0
3, 34193, Note_on_c, 2, 49, 52
3, 34283, Note_on_c, 2, 42, 32
3, 34303, Note_on_c, 2, 42, 0
3, 34308, Note_on_c, 2, 49, 0
3, 34315, Note_on_c, 2, 55, 48
3, 34412, Note_on_c, 2, 55, 0
3, 34429, Note_on_c, 2, 49, 52
3, 34546, Note_on_c, 2, 49, 0
3, 34549, Note_on_c, 2, 48, 83
3, 34611, Note_on_c, 2, 48, 0
3, 35032, Note_on_c, 2, 48, 42
3, 35095, Note_on_c, 2, 48, 0
3, 35111, Note_on_c, 2, 48, 62
3, 35126, Note_on_c, 2, 48, 0
3, 35488, Note_on_c, 2, 48, 84
3, 35761, Note_on_c, 2, 48, 0
3, 35766, Note_on_c, 2, 46, 46
3, 35853, Note_on_c, 2, 46, 0
3, 35879, Note_on_c, 2, 47, 47
3, 35973, Note_on_c, 2, 47, 0
3, 36000, Note_on_c, 2, 48, 64
3, 36058, Note_on_c, 2, 48, 0
3, 36076, Note_on_c, 2, 48, 60
3, 36095, Note_on_c, 2, 48, 0
3, 36354, Note_on_c, 2, 36, 68
3, 36419, Note_on_c, 2, 36, 0
3, 36434, Note_on_c, 2, 36, 80
3, 36479, Note_on_c, 2, 36, 0
3, 36672, Note_on_c, 2, 36, 56
3, 36690, Note_on_c, 2, 36, 0
3, 36713, Note_on_c, 2, 39, 62
3, 36816, Note_on_c, 2, 39, 0
3, 36829, Note_on_c, 2, 40, 55
3, 36914, Note_on_c, 2, 39, 31
3, 36929, Note_on_c, 2, 40, 0
3, 36946, Note_on_c, 2, 39, 0
3, 36956, Note_on_c, 2, 41, 62
3, 37017, Note_on_c, 2, 41, 0
3, 37031, Note_on_c, 2, 41, 53
3, 37055, Note_on_c, 2, 41, 0
3, 37275, Note_on_c, 2, 39, 19
3, 37307, Note_on_c, 2, 39, 0
3, 37314, Note_on_c, 2, 41, 58
3, 37377, Note_on_c, 2, 41, 0
3, 37394, Note_on_c, 2, 41, 74
3, 37444, Note_on_c, 2, 41, 0
3, 37681, Note_on_c, 2, 39, 46
3, 37784, Note_on_c, 2, 39, 0
3, 37804, Note_on_c, 2, 40, 42
3, 37873, Note_on_c, 2, 40, 0
3, 37882, Note_on_c, 2, 41, 96
3, 37965, Note_on_c, 2, 41, 0
3, 38839, Note_on_c, 2, 56, 88
3, 38878, Note_on_c, 2, 56, 0
3, 38885, Note_on_c, 2, 55, 59
3, 38983, Note_on_c, 2, 55, 0
3, 38993, Note_on_c, 2, 49, 65
3, 39106, Note_on_c, 2, 49, 0
3, 39114, Note_on_c, 2, 48, 58
3, 39201, Note_on_c, 2, 43, 50
3, 39217, Note_on_c, 2, 48, 0
3, 39220, Note_on_c, 2, 43, 0
3, 39238, Note_on_c, 2, 37, 56
3, 39356, Note_on_c, 2, 37, 0
3, 39357, Note_on_c, 2, 36, 59
3, 39469, Note_on_c, 2, 36, 0
3, 39471, Note_on_c, 2, 38, 70
3, 39558, Note_on_c, 2, 39, 69
3, 39562, Note_on_c, 2, 38, 0
3, 39590, Note_on_c, 2, 39, 0
3, 39598, Note_on_c, 2, 40, 41
3, 39677, Note_on_c, 2, 39, 56
3, 39692, Note_on_c, 2, 39, 0
3, 39707, Note_on_c, 2, 40, 0
3, 39713, Note_on_c, 2, 43, 57
3, 39806, Note_on_c, 2, 40, 34
3, 39810, Note_on_c, 2, 43, 0
3, 39819, Note_on_c, 2, 40, 0
3, 39832, Note_on_c, 2, 49, 54
3, 39951, Note_on_c, 2, 44, 60
3, 39975, Note_on_c, 2, 49, 0
3, 40077, Note_on_c, 2, 41, 53
3, 40078, Note_on_c, 2, 44, 0
3, 40184, Note_on_c, 2, 41, 0
3, 40193, Note_on_c, 2, 42, 53
3, 40288, Note_on_c, 2, 39, 30
3, 40298, Note_on_c, 2, 39, 0
3, 40307, Note_on_c, 2, 42, 0
3, 40313, Note_on_c, 2, 43, 50
3, 40424, Note_on_c, 2, 43, 0
3, 40435, Note_on_c, 2, 49, 46
3, 40526, Note_on_c, 2, 39, 32
3, 40538, Note_on_c, 2, 39, 0
3, 40538, Note_on_c, 2, 49, 0
3, 40554, Note_on_c, 2, 52, 62
3, 40659, Note_on_c, 2, 52, 0
3, 40674, Note_on_c, 2, 55, 71
3, 40780, Note_on_c, 2, 55, 0
3, 40788, Note_on_c, 2, 53, 59
3, 40882, Note_on_c, 2, 53, 0
3, 40915, Note_on_c, 2, 51, 76
3, 41027, Note_on_c, 2, 51, 0
3, 41036, Note_on_c, 2, 50, 53
3, 41124, Note_on_c, 2, 41, 52
3, 41136, Note_on_c, 2, 41, 0
3, 41143, Note_on_c, 2, 50, 0
3, 41156, Note_on_c, 2, 44, 54
3, 41241, Note_on_c, 2, 42, 33
3, 41261, Note_on_c, 2, 44, 0
3, 41265, Note_on_c, 2, 42, 0
3, 41275, Note_on_c, 2, 43, 34
3, 41362, Note_on_c, 2, 42, 25
3, 41375, Note_on_c, 2, 43, 0
3, 41393, Note_on_c, 2, 42, 0
3, 41395, Note_on_c, 2, 49, 74
3, 41500, Note_on_c, 2, 49, 0
3, 41514, Note_on_c, 2, 48, 58
3, 41595, Note_on_c, 2, 39, 44
3, 41598, Note_on_c, 2, 48, 0
3, 41620, Note_on_c, 2, 39, 0
3, 41634, Note_on_c, 2, 42, 52
3, 41719, Note_on_c, 2, 39, 37
3, 41734, Note_on_c, 2, 42, 0
3, 41747, Note_on_c, 2, 39, 0
3, 41754, Note_on_c, 2, 41, 41
3, 41844, Note_on_c, 2, 39, 25
3, 41863, Note_on_c, 2, 41, 0
3, 41876, Note_on_c, 2, 55, 95
3, 41881, Note_on_c, 2, 39, 0
3, 41985, Note_on_c, 2, 55, 0
3, 41995, Note_on_c, 2, 53, 57
3, 42113, Note_on_c, 2, 45, 60
3, 42117, Note_on_c, 2, 53, 0
3, 42226, Note_on_c, 2, 45, 0
3, 42229, Note_on_c, 2, 46, 62
3, 42350, Note_on_c, 2, 58, 94
3, 42388, Note_on_c, 2, 46, 0
3, 42438, Note_on_c, 2, 46, 23
3, 42456, Note_on_c, 2, 46, 0
3, 42477, Note_on_c, 2, 53, 51
3, 42478, Note_on_c, 2, 58, 0
3, 42560, Note_on_c, 2, 46, 33
3, 42579, Note_on_c, 2, 46, 0
3, 42601, Note_on_c, 2, 53, 0
3, 42604, Note_on_c, 2, 49, 48
3, 42711, Note_on_c, 2, 49, 0
3, 42719, Note_on_c, 2, 55, 66
3, 42821, Note_on_c, 2, 55, 0
3, 42834, Note_on_c, 2, 49, 58
3, 42942, Note_on_c, 2, 49, 0
3, 42952, Note_on_c, 2, 48, 55
3, 43065, Note_on_c, 2, 48, 0
3, 43077, Note_on_c, 2, 37, 50
3, 43156, Note_on_c, 2, 34, 31
3, 43177, Note_on_c, 2, 37, 0
3, 43189, Note_on_c, 2, 34, 0
3, 43197, Note_on_c, 2, 36, 44
3, 43287, Note_on_c, 2, 37, 35
3, 43301, Note_on_c, 2, 36, 0
3, 43305, Note_on_c, 2, 37, 0
3, 43319, Note_on_c, 2, 49, 78
3, 43434, Note_on_c, 2, 49, 0
3, 43436, Note_on_c, 2, 48, 54
3, 43527, Note_on_c, 2, 34, 43
3, 43535, Note_on_c, 2, 48, 0
3, 43560, Note_on_c, 2, 37, 72
3, 43570, Note_on_c, 2, 34, 0
3, 43658, Note_on_c, 2, 34, 26
3, 43666, Note_on_c, 2, 37, 0
3, 43671, Note_on_c, 2, 34, 0
3, 43679, Note_on_c, 2, 36, 62
3, 43763, Note_on_c, 2, 37, 36
3, 43774, Note_on_c, 2, 36, 0
3, 43778, Note_on_c, 2, 37, 0
3, 43796, Note_on_c, 2, 49, 81
3, 43898, Note_on_c, 2, 49, 0
3, 43913, Note_on_c, 2, 51, 74
3, 44015, Note_on_c, 2, 51, 0
3, 44034, Note_on_c, 2, 49, 73
3, 44141, Note_on_c, 2, 49, 0
3, 44158, Note_on_c, 2, 48, 54
3, 44260, Note_on_c, 2, 48, 0
3, 44277, Note_on_c, 2, 44, 59
3, 44389, Note_on_c, 2, 44, 0
3, 44394, Note_on_c, 2, 43, 53
3, 44512, Note_on_c, 2, 43, 0
3, 44518, Note_on_c, 2, 42, 61
3, 44605, Note_on_c, 2, 42, 0
3, 44611, Note_on_c, 2, 41, 60
3, 44723, Note_on_c, 2, 36, 56
3, 44729, Note_on_c, 2, 41, 0
3, 44750, Note_on_c, 2, 36, 0
3, 44757, Note_on_c, 2, 39, 54
3, 44869, Note_on_c, 2, 39, 0
3, 44877, Note_on_c, 2, 38, 44
3, 44997, Note_on_c, 2, 38, 0
3, 44998, Note_on_c, 2, 37, 55
3, 45078, Note_on_c, 2, 34, 33
3, 45095, Note_on_c, 2, 37, 0
3, 45106, Note_on_c, 2, 34, 0
3, 45112, Note_on_c, 2, 36, 52
3, 45223, Note_on_c, 2, 36, 0
3, 45230, Note_on_c, 2, 34, 60
3, 45343, Note_on_c, 2, 34, 0
3, 45353, Note_on_c, 2, 32, 77
3, 45412, Note_on_c, 2, 32, 0
3, 45431, Note_on_c, 2, 32, 46
3, 45467, Note_on_c, 2, 31, 73
3, 45477, Note_on_c, 2, 32, 0
3, 45580, Note_on_c, 2, 31, 0
3, 45592, Note_on_c, 2, 29, 69
3, 45709, Note_on_c, 2, 36, 66
3, 45710, Note_on_c, 2, 29, 0
3, 45796, Note_on_c, 2, 34, 45
3, 45817, Note_on_c, 2, 34, 0
3, 45826, Note_on_c, 2, 36, 0
3, 45832, Note_on_c, 2, 43, 77
3, 45954, Note_on_c, 2, 43, 0
3, 45957, Note_on_c, 2, 41, 66
3, 46047, Note_on_c, 2, 36, 40
3, 46059, Note_on_c, 2, 36, 0
3, 46060, Note_on_c, 2, 41, 0
3, 46078, Note_on_c, 2, 50, 75
3, 46184, Note_on_c, 2, 50, 0
3, 46197, Note_on_c, 2, 48, 68
3, 46277, Note_on_c, 2, 41, 29
3, 46287, Note_on_c, 2, 41, 0
3, 46303, Note_on_c, 2, 48, 0
3, 46318, Note_on_c, 2, 45, 40
3, 46418, Note_on_c, 2, 45, 0
3, 46432, Note_on_c, 2, 47, 64
3, 46543, Note_on_c, 2, 47, 0
3, 46555, Note_on_c, 2, 48, 58
3, 46644, Note_on_c, 2, 43, 31
3, 46655, Note_on_c, 2, 43, 0
3, 46655, Note_on_c, 2, 48, 0
3, 46675, Note_on_c, 2, 51, 69
3, 46787, Note_on_c, 2, 51, 0
3, 46798, Note_on_c, 2, 55, 82
3, 46891, Note_on_c, 2, 55, 0
3, 46913, Note_on_c, 2, 54, 74
3, 47027, Note_on_c, 2, 54, 0
3, 47035, Note_on_c, 2, 53, 55
3, 47125, Note_on_c, 2, 48, 29
3, 47133, Note_on_c, 2, 48, 0
3, 47140, Note_on_c, 2, 53, 0
3, 47154, Note_on_c, 2, 51, 43
3, 47274, Note_on_c, 2, 48, 61
3, 47289, Note_on_c, 2, 51, 0
3, 47390, Note_on_c, 2, 48, 0
3, 47399, Note_on_c, 2, 47, 58
3, 47409, Note_on_c, 2, 47, 0
3, 47425, Note_on_c, 2, 47, 20
3, 47499, Note_on_c, 2, 47, 0
3, 47521, Note_on_c, 2, 48, 68
3, 47617, Note_on_c, 2, 48, 0
3, 47633, Note_on_c, 2, 43, 54
3, 47733, Note_on_c, 2, 43, 0
3, 47752, Note_on_c, 2, 39, 57
3, 47822, Note_on_c, 2, 39, 0
3, 47841, Note_on_c, 2, 39, 49
3, 47863, Note_on_c, 2, 39, 0
3, 47872, Note_on_c, 2, 40, 61
3, 47981, Note_on_c, 2, 40, 0
3, 47993, Note_on_c, 2, 41, 61
3, 48064, Note_on_c, 2, 41, 0
3, 48082, Note_on_c, 2, 41, 61
3, 48104, Note_on_c, 2, 41, 0
3, 48113, Note_on_c, 2, 43, 66
3, 48215, Note_on_c, 2, 43, 0
3, 48227, Note_on_c, 2, 44, 62
3, 48341, Note_on_c, 2, 44, 0
3, 48355, Note_on_c, 2, 45, 55
3, 48461, Note_on_c, 2, 45, 0
3, 48477, Note_on_c, 2, 46, 49
3, 48599, Note_on_c, 2, 37, 50
3, 48601, Note_on_c, 2, 46, 0
3, 48716, Note_on_c, 2, 37, 0
3, 48720, Note_on_c, 2, 38, 50
3, 48805, Note_on_c, 2, 37, 37
3, 48818, Note_on_c, 2, 38, 0
3, 48837, Note_on_c, 2, 48, 96
3, 48843, Note_on_c, 2, 37, 0
3, 48940, Note_on_c, 2, 48, 0
3, 48957, Note_on_c, 2, 46, 65
3, 49042, Note_on_c, 2, 37, 31
3, 49053, Note_on_c, 2, 37, 0
3, 49065, Note_on_c, 2, 46, 0
3, 49077, Note_on_c, 2, 43, 57
3, 49172, Note_on_c, 2, 43, 0
3, 49196, Note_on_c, 2, 38, 45
3, 49301, Note_on_c, 2, 38, 0
3, 49315, Note_on_c, 2, 38, 76
3, 49427, Note_on_c, 2, 38, 0
3, 49435, Note_on_c, 2, 37, 55
3, 49555, Note_on_c, 2, 43, 61
3, 49566, Note_on_c, 2, 37, 0
3, 49642, Note_on_c, 2, 37, 44
3, 49656, Note_on_c, 2, 43, 0
3, 49663, Note_on_c, 2, 37, 0
3, 49675, Note_on_c, 2, 49, 63
3, 49760, Note_on_c, 2, 37, 23
3, 49782, Note_on_c, 2, 37, 0
3, 49793, Note_on_c, 2, 43, 55
3, 49796, Note_on_c, 2, 49, 0
3, 49880, Note_on_c, 2, 37, 31
3, 49890, Note_on_c, 2, 37, 0
3, 49897, Note_on_c, 2, 43, 0
3, 49914, Note_on_c, 2, 48, 64
3, 49989, Note_on_c, 2, 48, 0
3, 49995, Note_on_c, 2, 43, 56
3, 50011, Note_on_c, 2, 43, 0
3, 50029, Note_on_c, 2, 37, 70
3, 50140, Note_on_c, 2, 37, 0
3, 50147, Note_on_c, 2, 36, 66
3, 50229, Note_on_c, 2, 37, 45
3, 50241, Note_on_c, 2, 37, 0
3, 50242, Note_on_c, 2, 36, 0
3, 50268, Note_on_c, 2, 42, 61
3, 50357, Note_on_c, 2, 37, 27
3, 50368, Note_on_c, 2, 37, 0
3, 50377, Note_on_c, 2, 42, 0
3, 50387, Note_on_c, 2, 43, 52
3, 50483, Note_on_c, 2, 37, 31
3, 50492, Note_on_c, 2, 37, 0
3, 50493, Note_on_c, 2, 43, 0
3, 50511, Note_on_c, 2, 49, 77
3, 50628, Note_on_c, 2, 49, 0
3, 50636, Note_on_c, 2, 48, 60
3, 50749, Note_on_c, 2, 48, 0
3, 50755, Note_on_c, 2, 37, 55
3, 50871, Note_on_c, 2, 37, 0
3, 50876, Note_on_c, 2, 36, 61
3, 50958, Note_on_c, 2, 37, 46
3, 50973, Note_on_c, 2, 36, 0
3, 50986, Note_on_c, 2, 37, 0
3, 50993, Note_on_c, 2, 61, 80
3, 51105, Note_on_c, 2, 61, 0
3, 51118, Note_on_c, 2, 60, 64
3, 51222, Note_on_c, 2, 60, 0
3, 51235, Note_on_c, 2, 58, 69
3, 51353, Note_on_c, 2, 58, 0
3, 51359, Note_on_c, 2, 56, 67
3, 51462, Note_on_c, 2, 56, 0
3, 51478, Note_on_c, 2, 55, 73
3, 51586, Note_on_c, 2, 55, 0
3, 51595, Note_on_c, 2, 53, 54
3, 51672, Note_on_c, 2, 46, 37
3, 51673, Note_on_c, 2, 53, 0
3, 51705, Note_on_c, 2, 46, 0
3, 51710, Note_on_c, 2, 49, 53
3, 51798, Note_on_c, 2, 46, 33
3, 51809, Note_on_c, 2, 49, 0
3, 51821, Note_on_c, 2, 46, 0
3, 51831, Note_on_c, 2, 48, 43
3, 51945, Note_on_c, 2, 48, 0
3, 51953, Note_on_c, 2, 43, 53
3, 52062, Note_on_c, 2, 43, 0
3, 52075, Note_on_c, 2, 39, 56
3, 52123, Note_on_c, 2, 39, 0
3, 52156, Note_on_c, 2, 39, 47
3, 52178, Note_on_c, 2, 39, 0
3, 52189, Note_on_c, 2, 40, 62
3, 52273, Note_on_c, 2, 39, 35
3, 52295, Note_on_c, 2, 40, 0
3, 52304, Note_on_c, 2, 39, 0
3, 52311, Note_on_c, 2, 41, 48
3, 52401, Note_on_c, 2, 39, 33
3, 52419, Note_on_c, 2, 41, 0
3, 52434, Note_on_c, 2, 51, 69
3, 52441, Note_on_c, 2, 39, 0
3, 52544, Note_on_c, 2, 51, 0
3, 52553, Note_on_c, 2, 50, 59
3, 52636, Note_on_c, 2, 42, 33
3, 52652, Note_on_c, 2, 50, 0
3, 52666, Note_on_c, 2, 42, 0
3, 52677, Note_on_c, 2, 44, 53
3, 52788, Note_on_c, 2, 44, 0
3, 52792, Note_on_c, 2, 43, 50
3, 52900, Note_on_c, 2, 43, 0
3, 52916, Note_on_c, 2, 49, 83
3, 53026, Note_on_c, 2, 49, 0
3, 53035, Note_on_c, 2, 48, 66
3, 53110, Note_on_c, 2, 48, 0
3, 53116, Note_on_c, 2, 39, 42
3, 53140, Note_on_c, 2, 39, 0
3, 53155, Note_on_c, 2, 40, 51
3, 53235, Note_on_c, 2, 39, 38
3, 53256, Note_on_c, 2, 40, 0
3, 53263, Note_on_c, 2, 39, 0
3, 53274, Note_on_c, 2, 41, 55
3, 53357, Note_on_c, 2, 39, 38
3, 53380, Note_on_c, 2, 41, 0
3, 53389, Note_on_c, 2, 39, 0
3, 53397, Note_on_c, 2, 48, 105
3, 53495, Note_on_c, 2, 48, 0
3, 53515, Note_on_c, 2, 48, 75
3, 53600, Note_on_c, 2, 39, 49
3, 53608, Note_on_c, 2, 48, 0
3, 53614, Note_on_c, 2, 39, 0
3, 53634, Note_on_c, 2, 47, 62
3, 53747, Note_on_c, 2, 47, 0
3, 53761, Note_on_c, 2, 46, 55
3, 53846, Note_on_c, 2, 34, 80
3, 53855, Note_on_c, 2, 46, 0
3, 54008, Note_on_c, 2, 46, 71
3, 54023, Note_on_c, 2, 34, 0
3, 54090, Note_on_c, 2, 46, 0
3, 54092, Note_on_c, 2, 34, 57
3, 54111, Note_on_c, 2, 34, 0
3, 54129, Note_on_c, 2, 42, 77
3, 54237, Note_on_c, 2, 42, 0
3, 54250, Note_on_c, 2, 43, 58
3, 54336, Note_on_c, 2, 39, 38
3, 54348, Note_on_c, 2, 43, 0
3, 54356, Note_on_c, 2, 39, 0
3, 54365, Note_on_c, 2, 49, 87
3, 54473, Note_on_c, 2, 49, 0
3, 54483, Note_on_c, 2, 46, 55
3, 54571, Note_on_c, 2, 43, 32
3, 54581, Note_on_c, 2, 43, 0
3, 54594, Note_on_c, 2, 46, 0
3, 54599, Note_on_c, 2, 47, 59
3, 54714, Note_on_c, 2, 47, 0
3, 54721, Note_on_c, 2, 48, 66
3, 54803, Note_on_c, 2, 43, 53
3, 54814, Note_on_c, 2, 43, 0
3, 54818, Note_on_c, 2, 48, 0
3, 54839, Note_on_c, 2, 37, 55
3, 54951, Note_on_c, 2, 37, 0
3, 54960, Note_on_c, 2, 36, 55
3, 55045, Note_on_c, 2, 43, 34
3, 55046, Note_on_c, 2, 36, 0
3, 55057, Note_on_c, 2, 43, 0
3, 55073, Note_on_c, 2, 49, 81
3, 55187, Note_on_c, 2, 49, 0
3, 55192, Note_on_c, 2, 48, 71
3, 55281, Note_on_c, 2, 43, 30
3, 55294, Note_on_c, 2, 43, 0
3, 55294, Note_on_c, 2, 48, 0
3, 55313, Note_on_c, 2, 61, 74
3, 55435, Note_on_c, 2, 60, 74
3, 55472, Note_on_c, 2, 61, 0
3, 55536, Note_on_c, 2, 60, 0
3, 55553, Note_on_c, 2, 48, 51
3, 55668, Note_on_c, 2, 48, 0
3, 55677, Note_on_c, 2, 43, 46
3, 55791, Note_on_c, 2, 37, 61
3, 55793, Note_on_c, 2, 43, 0
3, 55900, Note_on_c, 2, 37, 0
3, 55910, Note_on_c, 2, 36, 49
3, 56036, Note_on_c, 2, 42, 56
3, 56041, Note_on_c, 2, 36, 0
3, 56118, Note_on_c, 2, 39, 49
3, 56130, Note_on_c, 2, 42, 0
3, 56147, Note_on_c, 2, 39, 0
3, 56156, Note_on_c, 2, 41, 61
3, 56241, Note_on_c, 2, 55, 96
3, 56249, Note_on_c, 2, 41, 0
3, 56251, Note_on_c, 2, 54, 31
3, 56259, Note_on_c, 2, 54, 0
3, 56284, Note_on_c, 2, 53, 57
3, 56292, Note_on_c, 2, 55, 0
3, 56392, Note_on_c, 2, 53, 0
3, 56399, Note_on_c, 2, 51, 60
3, 56509, Note_on_c, 2, 51, 0
3, 56518, Note_on_c, 2, 50, 57
3, 56605, Note_on_c, 2, 50, 0
3, 56605, Note_on_c, 2, 42, 53
3, 56625, Note_on_c, 2, 42, 0
3, 56638, Note_on_c, 2, 43, 47
3, 56721, Note_on_c, 2, 42, 36
3, 56754, Note_on_c, 2, 42, 0
3, 56759, Note_on_c, 2, 43, 0
3, 56759, Note_on_c, 2, 55, 81
3, 56836, Note_on_c, 2, 42, 39
3, 56851, Note_on_c, 2, 42, 0
3, 56875, Note_on_c, 2, 55, 0
3, 56880, Note_on_c, 2, 48, 51
3, 56956, Note_on_c, 2, 43, 53
3, 56966, Note_on_c, 2, 48, 0
3, 56969, Note_on_c, 2, 43, 0
3, 56996, Note_on_c, 2, 36, 57
3, 57079, Note_on_c, 2, 36, 0
3, 57089, Note_on_c, 2, 40, 32
3, 57100, Note_on_c, 2, 40, 0
3, 57113, Note_on_c, 2, 41, 62
3, 57212, Note_on_c, 2, 41, 0
3, 57229, Note_on_c, 2, 41, 69
3, 57339, Note_on_c, 2, 41, 0
3, 57352, Note_on_c, 2, 36, 54
3, 57403, Note_on_c, 2, 36, 0
3, 57429, Note_on_c, 2, 36, 58
3, 57451, Note_on_c, 2, 36, 0
3, 57464, Note_on_c, 2, 35, 68
3, 57585, Note_on_c, 2, 35, 0
3, 57595, Note_on_c, 2, 34, 53
3, 57709, Note_on_c, 2, 34, 0
3, 57711, Note_on_c, 2, 46, 72
3, 57836, Note_on_c, 2, 46, 0
3, 57838, Note_on_c, 2, 41, 33
3, 57927, Note_on_c, 2, 38, 31
3, 57938, Note_on_c, 2, 38, 0
3, 57946, Note_on_c, 2, 41, 0
3, 57954, Note_on_c, 2, 42, 57
3, 58066, Note_on_c, 2, 42, 0
3, 58074, Note_on_c, 2, 43, 51
3, 58190, Note_on_c, 2, 43, 0
3, 58200, Note_on_c, 2, 55, 60
3, 58321, Note_on_c, 2, 55, 0
3, 58324, Note_on_c, 2, 49, 51
3, 58440, Note_on_c, 2, 47, 56
3, 58448, Note_on_c, 2, 49, 0
3, 58553, Note_on_c, 2, 47, 0
3, 58559, Note_on_c, 2, 48, 61
3, 58645, Note_on_c, 2, 43, 54
3, 58656, Note_on_c, 2, 48, 0
3, 58658, Note_on_c, 2, 43, 0
3, 58678, Note_on_c, 2, 37, 62
3, 58800, Note_on_c, 2, 37, 0
3, 58803, Note_on_c, 2, 36, 80
3, 58887, Note_on_c, 2, 43, 55
3, 58897, Note_on_c, 2, 43, 0
3, 58904, Note_on_c, 2, 36, 0
3, 58922, Note_on_c, 2, 49, 88
3, 59039, Note_on_c, 2, 48, 70
3, 59041, Note_on_c, 2, 49, 0
3, 59120, Note_on_c, 2, 43, 47
3, 59131, Note_on_c, 2, 43, 0
3, 59132, Note_on_c, 2, 48, 0
3, 59154, Note_on_c, 2, 37, 72
3, 59264, Note_on_c, 2, 37, 0
3, 59279, Note_on_c, 2, 36, 71
3, 59358, Note_on_c, 2, 43, 45
3, 59362, Note_on_c, 2, 36, 0
3, 59368, Note_on_c, 2, 43, 0
3, 59398, Note_on_c, 2, 49, 85
3, 59558, Note_on_c, 2, 48, 75
3, 59566, Note_on_c, 2, 48, 0
3, 59571, Note_on_c, 2, 49, 0
3, 59598, Note_on_c, 2, 43, 64
3, 59621, Note_on_c, 2, 43, 0
3, 59638, Note_on_c, 2, 37, 76
3, 59744, Note_on_c, 2, 37, 0
3, 59753, Note_on_c, 2, 36, 69
3, 59818, Note_on_c, 2, 36, 0
3, 59837, Note_on_c, 2, 39, 37
3, 59859, Note_on_c, 2, 39, 0
3, 59873, Note_on_c, 2, 40, 62
3, 59953, Note_on_c, 2, 39, 33
3, 59976, Note_on_c, 2, 40, 0
3, 59983, Note_on_c, 2, 39, 0
3, 59995, Note_on_c, 2, 41, 60
3, 60071, Note_on_c, 2, 41, 0
3, 60078, Note_on_c, 2, 36, 49
3, 60088, Note_on_c, 2, 36, 0
3, 60119, Note_on_c, 2, 32, 71
3, 60223, Note_on_c, 2, 32, 0
3, 60233, Note_on_c, 2, 33, 59
3, 60346, Note_on_c, 2, 33, 0
3, 60352, Note_on_c, 2, 36, 68
3, 60417, Note_on_c, 2, 36, 0
3, 60433, Note_on_c, 2, 37, 52
3, 60463, Note_on_c, 2, 37, 0
3, 60472, Note_on_c, 2, 38, 60
3, 60583, Note_on_c, 2, 38, 0
3, 60589, Note_on_c, 2, 32, 68
3, 60693, Note_on_c, 2, 32, 0
3, 60719, Note_on_c, 2, 31, 34
3, 60797, Note_on_c, 2, 36, 68
3, 60798, Note_on_c, 2, 31, 0
3, 60817, Note_on_c, 2, 36, 0
3, 60834, Note_on_c, 2, 40, 71
3, 60942, Note_on_c, 2, 40, 0
3, 60957, Note_on_c, 2, 41, 58
3, 61034, Note_on_c, 2, 34, 55
3, 61052, Note_on_c, 2, 34, 0
3, 61056, Note_on_c, 2, 41, 0
3, 61084, Note_on_c, 2, 35, 26
3, 61084, Note_on_c, 2, 36, 70
3, 61094, Note_on_c, 2, 35, 0
3, 61193, Note_on_c, 2, 36, 0
3, 61199, Note_on_c, 2, 33, 56
3, 61279, Note_on_c, 2, 34, 30
3, 61289, Note_on_c, 2, 33, 0
3, 61293, Note_on_c, 2, 34, 0
3, 61313, Note_on_c, 2, 35, 54
3, 61429, Note_on_c, 2, 35, 0
3, 61431, Note_on_c, 2, 36, 49
3, 61521, Note_on_c, 2, 34, 33
3, 61532, Note_on_c, 2, 36, 0
3, 61545, Note_on_c, 2, 34, 0
3, 61557, Note_on_c, 2, 45, 59
3, 61674, Note_on_c, 2, 45, 0
3, 61677, Note_on_c, 2, 43, 40
3, 61770, Note_on_c, 2, 40, 24
3, 61772, Note_on_c, 2, 43, 0
3, 61780, Note_on_c, 2, 40, 0
3, 61798, Note_on_c, 2, 47, 56
3, 61911, Note_on_c, 2, 47, 0
3, 61919, Note_on_c, 2, 48, 58
3, 62036, Note_on_c, 2, 48, 0
3, 62038, Note_on_c, 2, 43, 38
3, 62146, Note_on_c, 2, 43, 0
3, 62154, Note_on_c, 2, 39, 50
3, 62241, Note_on_c, 2, 37, 32
3, 62267, Note_on_c, 2, 37, 0
3, 62274, Note_on_c, 2, 39, 0
3, 62276, Note_on_c, 2, 51, 74
3, 62387, Note_on_c, 2, 51, 0
3, 62399, Note_on_c, 2, 50, 60
3, 62511, Note_on_c, 2, 50, 0
3, 62518, Note_on_c, 2, 49, 62
3, 62628, Note_on_c, 2, 49, 0
3, 62638, Note_on_c, 2, 48, 50
3, 62755, Note_on_c, 2, 48, 0
3, 62759, Note_on_c, 2, 47, 55
3, 62875, Note_on_c, 2, 47, 0
3, 62883, Note_on_c, 2, 48, 55
3, 62988, Note_on_c, 2, 48, 0
3, 63002, Note_on_c, 2, 55, 74
3, 63111, Note_on_c, 2, 55, 0
3, 63121, Note_on_c, 2, 51, 48
3, 63167, Note_on_c, 2, 51, 0
3, 63198, Note_on_c, 2, 51, 40
3, 63222, Note_on_c, 2, 51, 0
3, 63237, Note_on_c, 2, 52, 71
3, 63343, Note_on_c, 2, 52, 0
3, 63358, Note_on_c, 2, 53, 65
3, 63417, Note_on_c, 2, 53, 0
3, 63440, Note_on_c, 2, 53, 49
3, 63471, Note_on_c, 2, 53, 0
3, 63483, Note_on_c, 2, 48, 53
3, 63592, Note_on_c, 2, 48, 0
3, 63600, Note_on_c, 2, 45, 50
3, 63700, Note_on_c, 2, 45, 0
3, 63717, Note_on_c, 2, 33, 67
3, 63833, Note_on_c, 2, 33, 0
3, 63839, Note_on_c, 2, 34, 62
3, 63957, Note_on_c, 2, 34, 0
3, 63957, Note_on_c, 2, 36, 61
3, 64044, Note_on_c, 2, 36, 0
3, 64044, Note_on_c, 2, 34, 36
3, 64077, Note_on_c, 2, 38, 55
3, 64078, Note_on_c, 2, 34, 0
3, 64163, Note_on_c, 2, 34, 32
3, 64188, Note_on_c, 2, 38, 0
3, 64199, Note_on_c, 2, 41, 53
3, 64202, Note_on_c, 2, 34, 0
3, 64302, Note_on_c, 2, 41, 0
3, 64319, Note_on_c, 2, 48, 69
3, 64425, Note_on_c, 2, 48, 0
3, 64439, Note_on_c, 2, 46, 57
3, 64556, Note_on_c, 2, 46, 0
3, 64557, Note_on_c, 2, 41, 33
3, 64664, Note_on_c, 2, 41, 0
3, 64675, Note_on_c, 2, 44, 65
3, 64792, Note_on_c, 2, 44, 0
3, 64793, Note_on_c, 2, 43, 57
3, 64880, Note_on_c, 2, 37, 29
3, 64888, Note_on_c, 2, 37, 0
3, 64896, Note_on_c, 2, 43, 0
3, 64912, Note_on_c, 2, 49, 75
3, 65027, Note_on_c, 2, 49, 0
3, 65039, Note_on_c, 2, 51, 74
3, 65146, Note_on_c, 2, 51, 0
3, 65161, Note_on_c, 2, 49, 64
3, 65273, Note_on_c, 2, 49, 0
3, 65276, Note_on_c, 2, 48, 67
3, 65360, Note_on_c, 2, 34, 78
3, 65367, Note_on_c, 2, 48, 0
3, 65387, Note_on_c, 2, 34, 0
3, 65400, Note_on_c, 2, 35, 60
3, 65511, Note_on_c, 2, 36, 68
3, 65513, Note_on_c, 2, 35, 0
3, 65596, Note_on_c, 2, 34, 56
3, 65612, Note_on_c, 2, 36, 0
3, 65626, Note_on_c, 2, 34, 0
3, 65636, Note_on_c, 2, 46, 74
3, 65748, Note_on_c, 2, 46, 0
3, 65754, Note_on_c, 2, 43, 57
3, 65862, Note_on_c, 2, 43, 0
3, 65873, Note_on_c, 2, 49, 81
3, 65980, Note_on_c, 2, 49, 0
3, 66000, Note_on_c, 2, 48, 59
3, 66114, Note_on_c, 2, 37, 67
3, 66120, Note_on_c, 2, 48, 0
3, 66234, Note_on_c, 2, 36, 60
3, 66235, Note_on_c, 2, 37, 0
3, 66315, Note_on_c, 2, 37, 49
3, 66321, Note_on_c, 2, 36, 0
3, 66339, Note_on_c, 2, 37, 0
3, 66350, Note_on_c, 2, 44, 60
3, 66466, Note_on_c, 2, 44, 0
3, 66473, Note_on_c, 2, 43, 47
3, 66556, Note_on_c, 2, 34, 65
3, 66572, Note_on_c, 2, 43, 0
3, 66578, Note_on_c, 2, 34, 0
3, 66599, Note_on_c, 2, 35, 53
3, 66681, Note_on_c, 2, 34, 28
3, 66699, Note_on_c, 2, 34, 0
3, 66703, Note_on_c, 2, 35, 0
3, 66711, Note_on_c, 2, 36, 50
3, 66798, Note_on_c, 2, 34, 36
3, 66812, Note_on_c, 2, 36, 0
3, 66827, Note_on_c, 2, 34, 0
3, 66835, Note_on_c, 2, 49, 83
3, 66943, Note_on_c, 2, 49, 0
3, 66951, Note_on_c, 2, 48, 61
3, 67059, Note_on_c, 2, 48, 0
3, 67075, Note_on_c, 2, 55, 89
3, 67190, Note_on_c, 2, 55, 0
3, 67199, Note_on_c, 2, 49, 65
3, 67306, Note_on_c, 2, 49, 0
3, 67317, Note_on_c, 2, 48, 71
3, 67428, Note_on_c, 2, 48, 0
3, 67435, Note_on_c, 2, 43, 58
3, 67519, Note_on_c, 2, 39, 51
3, 67522, Note_on_c, 2, 43, 0
3, 67549, Note_on_c, 2, 39, 0
3, 67554, Note_on_c, 2, 42, 55
3, 67638, Note_on_c, 2, 39, 36
3, 67653, Note_on_c, 2, 42, 0
3, 67665, Note_on_c, 2, 39, 0
3, 67674, Note_on_c, 2, 41, 52
3, 67760, Note_on_c, 2, 39, 27
3, 67780, Note_on_c, 2, 41, 0
3, 67792, Note_on_c, 2, 46, 79
3, 67802, Note_on_c, 2, 39, 0
3, 67878, Note_on_c, 2, 39, 20
3, 67891, Note_on_c, 2, 39, 0
3, 67902, Note_on_c, 2, 46, 0
3, 67913, Note_on_c, 2, 44, 62
3, 67998, Note_on_c, 2, 39, 31
3, 68006, Note_on_c, 2, 39, 0
3, 68023, Note_on_c, 2, 44, 0
3, 68033, Note_on_c, 2, 43, 61
3, 68138, Note_on_c, 2, 43, 0
3, 68154, Note_on_c, 2, 41, 58
3, 68261, Note_on_c, 2, 41, 0
3, 68274, Note_on_c, 2, 35, 55
3, 68383, Note_on_c, 2, 35, 0
3, 68389, Note_on_c, 2, 36, 56
3, 68472, Note_on_c, 2, 34, 33
3, 68478, Note_on_c, 2, 36, 0
3, 68487, Note_on_c, 2, 34, 0
3, 68510, Note_on_c, 2, 40, 54
3, 68619, Note_on_c, 2, 40, 0
3, 68633, Note_on_c, 2, 41, 74
3, 69206, Note_on_c, 2, 41, 0
3, 69345, Note_on_c, 2, 48, 71
3, 69403, Note_on_c, 2, 48, 0
3, 69433, Note_on_c, 2, 39, 39
3, 69442, Note_on_c, 2, 39, 0
3, 69470, Note_on_c, 2, 42, 57
3, 69575, Note_on_c, 2, 42, 0
3, 69590, Note_on_c, 2, 43, 64
3, 69828, Note_on_c, 2, 37, 68
3, 69829, Note_on_c, 2, 43, 0
3, 70029, Note_on_c, 2, 34, 40
3, 70044, Note_on_c, 2, 37, 0
3, 70064, Note_on_c, 2, 34, 0
3, 70070, Note_on_c, 2, 36, 66
3, 70392, Note_on_c, 2, 32, 45
3, 70404, Note_on_c, 2, 32, 0
3, 70407, Note_on_c, 2, 36, 0
3, 70427, Note_on_c, 2, 44, 80
3, 70540, Note_on_c, 2, 44, 0
3, 70546, Note_on_c, 2, 43, 68
3, 70666, Note_on_c, 2, 55, 74
3, 70719, Note_on_c, 2, 43, 0
3, 70747, Note_on_c, 2, 43, 11
3, 70864, Note_on_c, 2, 43, 0
3, 70869, Note_on_c, 2, 42, 55
3, 70881, Note_on_c, 2, 42, 0
3, 70890, Note_on_c, 2, 55, 0
3, 70902, Note_on_c, 2, 49, 52
3, 71010, Note_on_c, 2, 49, 0
3, 71021, Note_on_c, 2, 48, 51
3, 71139, Note_on_c, 2, 48, 0
3, 71146, Note_on_c, 2, 36, 81
3, 71340, Note_on_c, 2, 36, 0
3, 71344, Note_on_c, 2, 39, 43
3, 71368, Note_on_c, 2, 39, 0
3, 71382, Note_on_c, 2, 40, 57
3, 71471, Note_on_c, 2, 39, 25
3, 71495, Note_on_c, 2, 40, 0
3, 71499, Note_on_c, 2, 39, 0
3, 71505, Note_on_c, 2, 41, 55
3, 71856, Note_on_c, 2, 41, 0
3, 71861, Note_on_c, 2, 38, 62
3, 72055, Note_on_c, 2, 38, 0
3, 72070, Note_on_c, 2, 38, 43
3, 72105, Note_on_c, 2, 43, 72
3, 72115, Note_on_c, 2, 38, 0
3, 72215, Note_on_c, 2, 43, 0
3, 72226, Note_on_c, 2, 42, 70
3, 72315, Note_on_c, 2, 42, 0
3, 72318, Note_on_c, 2, 37, 32
3, 72329, Note_on_c, 2, 37, 0
3, 72346, Note_on_c, 2, 42, 60
3, 72448, Note_on_c, 2, 42, 0
3, 72461, Note_on_c, 2, 41, 50
3, 72696, Note_on_c, 2, 41, 0
3, 72708, Note_on_c, 2, 36, 62
3, 72943, Note_on_c, 2, 36, 0
3, 72950, Note_on_c, 2, 34, 52
3, 73153, Note_on_c, 2, 50, 63
3, 73380, Note_on_c, 2, 37, 42
3, 73406, Note_on_c, 2, 34, 0
3, 73412, Note_on_c, 2, 37, 0
3, 73418, Note_on_c, 2, 50, 0
3, 73419, Note_on_c, 2, 43, 77
3, 73661, Note_on_c, 2, 43, 0
3, 73668, Note_on_c, 2, 37, 56
3, 73867, Note_on_c, 2, 37, 0
3, 73871, Note_on_c, 2, 36, 47
3, 73989, Note_on_c, 2, 52, 72
3, 74217, Note_on_c, 2, 37, 55
3, 74238, Note_on_c, 2, 36, 0
3, 74246, Note_on_c, 2, 37, 0
3, 74255, Note_on_c, 2, 52, 0
3, 74257, Note_on_c, 2, 48, 64
3, 74365, Note_on_c, 2, 48, 0
3, 74380, Note_on_c, 2, 43, 62
3, 74592, Note_on_c, 2, 37, 26
3, 74601, Note_on_c, 2, 37, 0
3, 74609, Note_on_c, 2, 43, 0
3, 74618, Note_on_c, 2, 49, 78
3, 74738, Note_on_c, 2, 49, 0
3, 74739, Note_on_c, 2, 48, 74
3, 74948, Note_on_c, 2, 34, 32
3, 74973, Note_on_c, 2, 48, 0
3, 74974, Note_on_c, 2, 34, 0
3, 74982, Note_on_c, 2, 36, 66
3, 75144, Note_on_c, 2, 36, 0
3, 75145, Note_on_c, 2, 38, 45
3, 75171, Note_on_c, 2, 38, 0
3, 75183, Note_on_c, 2, 39, 49
3, 75192, Note_on_c, 2, 39, 0
3, 75217, Note_on_c, 2, 40, 71
3, 75328, Note_on_c, 2, 40, 0
3, 75336, Note_on_c, 2, 41, 65
3, 75579, Note_on_c, 2, 41, 0
3, 75580, Note_on_c, 2, 38, 62
3, 75702, Note_on_c, 2, 43, 89
3, 75708, Note_on_c, 2, 38, 0
3, 75910, Note_on_c, 2, 43, 0
3, 75937, Note_on_c, 2, 46, 58
3, 76054, Note_on_c, 2, 46, 0
3, 76059, Note_on_c, 2, 48, 66
3, 76110, Note_on_c, 2, 48, 0
3, 76142, Note_on_c, 2, 39, 42
3, 76162, Note_on_c, 2, 39, 0
3, 76180, Note_on_c, 2, 40, 57
3, 76254, Note_on_c, 2, 40, 0
3, 76257, Note_on_c, 2, 41, 74
3, 76331, Note_on_c, 2, 41, 0
3, 76342, Note_on_c, 2, 36, 59
3, 76366, Note_on_c, 2, 36, 0
3, 76378, Note_on_c, 2, 34, 71
3, 76401, Note_on_c, 2, 34, 0
3, 76420, Note_on_c, 2, 33, 79
3, 76540, Note_on_c, 2, 33, 0
3, 76544, Note_on_c, 2, 34, 57
3, 76661, Note_on_c, 2, 34, 0
3, 76665, Note_on_c, 2, 35, 57
3, 76782, Note_on_c, 2, 35, 0
3, 76785, Note_on_c, 2, 36, 56
3, 76869, Note_on_c, 2, 34, 47
3, 76881, Note_on_c, 2, 36, 0
3, 76894, Note_on_c, 2, 34, 0
3, 76903, Note_on_c, 2, 43, 73
3, 77012, Note_on_c, 2, 43, 0
3, 77023, Note_on_c, 2, 41, 55
3, 77111, Note_on_c, 2, 34, 50
3, 77119, Note_on_c, 2, 34, 0
3, 77122, Note_on_c, 2, 41, 0
3, 77141, Note_on_c, 2, 50, 70
3, 77249, Note_on_c, 2, 50, 0
3, 77268, Note_on_c, 2, 48, 49
3, 77334, Note_on_c, 2, 48, 0
3, 77350, Note_on_c, 2, 43, 52
3, 77370, Note_on_c, 2, 43, 0
3, 77385, Note_on_c, 2, 39, 59
3, 77500, Note_on_c, 2, 39, 0
3, 77504, Note_on_c, 2, 43, 42
3, 77591, Note_on_c, 2, 39, 36
3, 77597, Note_on_c, 2, 43, 0
3, 77610, Note_on_c, 2, 39, 0
3, 77624, Note_on_c, 2, 42, 64
3, 77735, Note_on_c, 2, 42, 0
3, 77747, Note_on_c, 2, 41, 57
3, 77821, Note_on_c, 2, 41, 0
3, 77833, Note_on_c, 2, 36, 37
3, 77843, Note_on_c, 2, 36, 0
3, 77863, Note_on_c, 2, 33, 83
3, 77974, Note_on_c, 2, 33, 0
3, 77990, Note_on_c, 2, 40, 54
3, 77992, Note_on_c, 2, 38, 55
3, 77999, Note_on_c, 2, 40, 0
3, 78096, Note_on_c, 2, 38, 0
3, 78103, Note_on_c, 2, 37, 53
3, 78189, Note_on_c, 2, 34, 34
3, 78210, Note_on_c, 2, 37, 0
3, 78221, Note_on_c, 2, 34, 0
3, 78224, Note_on_c, 2, 36, 48
3, 78314, Note_on_c, 2, 37, 40
3, 78331, Note_on_c, 2, 36, 0
3, 78338, Note_on_c, 2, 37, 0
3, 78345, Note_on_c, 2, 50, 99
3, 78454, Note_on_c, 2, 50, 0
3, 78456, Note_on_c, 2, 43, 54
3, 78533, Note_on_c, 2, 39, 42
3, 78548, Note_on_c, 2, 43, 0
3, 78570, Note_on_c, 2, 39, 0
3, 78575, Note_on_c, 2, 42, 55
3, 78688, Note_on_c, 2, 42, 0
3, 78694, Note_on_c, 2, 41, 55
3, 78788, Note_on_c, 2, 42, 36
3, 78810, Note_on_c, 2, 41, 0
3, 78811, Note_on_c, 2, 55, 87
3, 78817, Note_on_c, 2, 42, 0
3, 78925, Note_on_c, 2, 55, 0
3, 78934, Note_on_c, 2, 53, 62
3, 79033, Note_on_c, 2, 53, 0
3, 79053, Note_on_c, 2, 51, 57
3, 79169, Note_on_c, 2, 51, 0
3, 79183, Note_on_c, 2, 50, 48
3, 79267, Note_on_c, 2, 46, 40
3, 79278, Note_on_c, 2, 46, 0
3, 79278, Note_on_c, 2, 50, 0
3, 79300, Note_on_c, 2, 48, 62
3, 79411, Note_on_c, 2, 48, 0
3, 79423, Note_on_c, 2, 46, 62
3, 79534, Note_on_c, 2, 46, 0
3, 79544, Note_on_c, 2, 45, 51
3, 79652, Note_on_c, 2, 45, 0
3, 79661, Note_on_c, 2, 46, 52
3, 79784, Note_on_c, 2, 41, 51
3, 79802, Note_on_c, 2, 46, 0
3, 79902, Note_on_c, 2, 38, 48
3, 79903, Note_on_c, 2, 41, 0
3, 79989, Note_on_c, 2, 41, 41
3, 80002, Note_on_c, 2, 38, 0
3, 80007, Note_on_c, 2, 41, 0
3, 80022, Note_on_c, 2, 50, 71
3, 80126, Note_on_c, 2, 50, 0
3, 80139, Note_on_c, 2, 49, 51
3, 80258, Note_on_c, 2, 43, 50
3, 80274, Note_on_c, 2, 49, 0
3, 80379, Note_on_c, 2, 43, 0
3, 80383, Note_on_c, 2, 37, 44
3, 80495, Note_on_c, 2, 37, 0
3, 80508, Note_on_c, 2, 35, 73
3, 80618, Note_on_c, 2, 35, 0
3, 80626, Note_on_c, 2, 36, 80
3, 80660, Note_on_c, 2, 36, 0
3, 81108, Note_on_c, 2, 43, 74
3, 81213, Note_on_c, 2, 43, 0
3, 81226, Note_on_c, 2, 37, 39
3, 81420, Note_on_c, 2, 34, 43
3, 81423, Note_on_c, 2, 37, 0
3, 81450, Note_on_c, 2, 34, 0
3, 81458, Note_on_c, 2, 35, 64
3, 81567, Note_on_c, 2, 35, 0
3, 81576, Note_on_c, 2, 36, 44
3, 81660, Note_on_c, 2, 50, 64
3, 81687, Note_on_c, 2, 50, 0
3, 81697, Note_on_c, 2, 36, 0
3, 81708, Note_on_c, 2, 48, 44
3, 82022, Note_on_c, 2, 42, 55
3, 82044, Note_on_c, 2, 48, 0
3, 82053, Note_on_c, 2, 42, 0
3, 82063, Note_on_c, 2, 43, 40
3, 82150, Note_on_c, 2, 42, 39
3, 82163, Note_on_c, 2, 43, 0
3, 82169, Note_on_c, 2, 42, 0
3, 82190, Note_on_c, 2, 55, 85
3, 82386, Note_on_c, 2, 46, 54
3, 82406, Note_on_c, 2, 46, 0
3, 82421, Note_on_c, 2, 55, 0
3, 82427, Note_on_c, 2, 47, 64
3, 82525, Note_on_c, 2, 47, 0
3, 82540, Note_on_c, 2, 48, 60
3, 82761, Note_on_c, 2, 39, 25
3, 82767, Note_on_c, 2, 48, 0
3, 82781, Note_on_c, 2, 39, 0
3, 82787, Note_on_c, 2, 42, 59
3, 82995, Note_on_c, 2, 39, 35
3, 83010, Note_on_c, 2, 42, 0
3, 83021, Note_on_c, 2, 39, 0
3, 83027, Note_on_c, 2, 41, 58
3, 83244, Note_on_c, 2, 39, 29
3, 83264, Note_on_c, 2, 41, 0
3, 83269, Note_on_c, 2, 39, 0
3, 83274, Note_on_c, 2, 50, 68
3, 83475, Note_on_c, 2, 37, 26
3, 83502, Note_on_c, 2, 50, 0
3, 83510, Note_on_c, 2, 37, 0
3, 83513, Note_on_c, 2, 43, 54
3, 83749, Note_on_c, 2, 43, 0
3, 83751, Note_on_c, 2, 36, 53
3, 83782, Note_on_c, 2, 36, 0
3, 83832, Note_on_c, 2, 39, 46
3, 83857, Note_on_c, 2, 39, 0
3, 83873, Note_on_c, 2, 40, 58
3, 83942, Note_on_c, 2, 40, 0
3, 83952, Note_on_c, 2, 41, 92
3, 84393, Note_on_c, 2, 41, 0
3, 84879, Note_on_c, 2, 34, 80
3, 85314, Note_on_c, 2, 46, 94
3, 85755, Note_on_c, 2, 34, 0
3, 86393, Note_on_c, 2, 46, 0
3, 86393, End_track
4, 0, Start_track
4, 0, MIDI_port, 0
4, 0, Title_t, ""
4, 167, Program_c, 9, 0
4, 168, Control_c, 9, 7, 90
4, 1405, Note_on_c, 9, 53, 50
4, 1416, Note_on_c, 9, 53, 0
4, 1450, Note_on_c, 9, 53, 36
4, 1464, Note_on_c, 9, 53, 0
4, 1523, Note_on_c, 9, 59, 65
4, 1539, Note_on_c, 9, 59, 0
4, 2006, Note_on_c, 9, 59, 70
4, 2032, Note_on_c, 9, 59, 0
4, 2124, Note_on_c, 9, 59, 69
4, 2150, Note_on_c, 9, 59, 0
4, 2244, Note_on_c, 9, 59, 71
4, 2273, Note_on_c, 9, 59, 0
4, 2293, Note_on_c, 9, 53, 34
4, 2312, Note_on_c, 9, 53, 0
4, 2367, Note_on_c, 9, 53, 51
4, 2381, Note_on_c, 9, 53, 0
4, 2415, Note_on_c, 9, 53, 45
4, 2437, Note_on_c, 9, 53, 0
4, 2594, Note_on_c, 9, 53, 56
4, 2605, Note_on_c, 9, 53, 0
4, 2822, Note_on_c, 9, 51, 53
4, 2839, Note_on_c, 9, 51, 0
4, 2867, Note_on_c, 9, 53, 48
4, 2887, Note_on_c, 9, 53, 0
4, 2953, Note_on_c, 9, 53, 44
4, 2966, Note_on_c, 9, 53, 0
4, 3071, Note_on_c, 9, 53, 58
4, 3084, Note_on_c, 9, 53, 0
4, 3202, Note_on_c, 9, 53, 45
4, 3225, Note_on_c, 9, 53, 0
4, 3254, Note_on_c, 9, 53, 40
4, 3280, Note_on_c, 9, 53, 0
4, 3328, Note_on_c, 9, 53, 37
4, 3341, Note_on_c, 9, 53, 0
4, 3371, Note_on_c, 9, 53, 44
4, 3383, Note_on_c, 9, 53, 0
4, 3565, Note_on_c, 9, 53, 54
4, 3576, Note_on_c, 9, 53, 0
4, 4034, Note_on_c, 9, 40, 74
4, 4059, Note_on_c, 9, 40, 0
4, 4086, Note_on_c, 9, 40, 48
4, 4113, Note_on_c, 9, 40, 0
4, 4155, Note_on_c, 9, 34, 61
4, 4183, Note_on_c, 9, 34, 0
4, 4270, Note_on_c, 9, 59, 71
4, 4272, Note_on_c, 9, 35, 59
4, 4281, Note_on_c, 9, 59, 0
4, 4281, Note_on_c, 9, 53, 48
4, 4288, Note_on_c, 9, 35, 0
4, 4292, Note_on_c, 9, 53, 0
4, 4335, Note_on_c, 9, 53, 28
4, 4347, Note_on_c, 9, 53, 0
4, 4403, Note_on_c, 9, 59, 67
4, 4420, Note_on_c, 9, 59, 0
4, 4515, Note_on_c, 9, 59, 70
4, 4541, Note_on_c, 9, 59, 0
4, 4637, Note_on_c, 9, 59, 62
4, 4663, Note_on_c, 9, 59, 0
4, 4754, Note_on_c, 9, 59, 64
4, 4777, Note_on_c, 9, 59, 0
4, 4875, Note_on_c, 9, 53, 59
4, 4897, Note_on_c, 9, 53, 0
4, 4930, Note_on_c, 9, 53, 35
4, 4949, Note_on_c, 9, 53, 0
4, 4999, Note_on_c, 9, 53, 57
4, 5012, Note_on_c, 9, 53, 0
4, 5054, Note_on_c, 9, 53, 46
4, 5066, Note_on_c, 9, 53, 0
4, 5311, Note_on_c, 9, 53, 24
4, 5321, Note_on_c, 9, 53, 0
4, 5375, Note_on_c, 9, 59, 73
4, 5392, Note_on_c, 9, 59, 0
4, 5486, Note_on_c, 9, 59, 80
4, 5509, Note_on_c, 9, 59, 0
4, 5610, Note_on_c, 9, 59, 76
4, 5636, Note_on_c, 9, 59, 0
4, 5722, Note_on_c, 9, 51, 51
4, 5733, Note_on_c, 9, 51, 0
4, 6080, Note_on_c, 9, 59, 85
4, 6085, Note_on_c, 9, 40, 35
4, 6106, Note_on_c, 9, 40, 0
4, 6110, Note_on_c, 9, 59, 0
4, 6135, Note_on_c, 9, 51, 44
4, 6147, Note_on_c, 9, 51, 0
4, 6205, Note_on_c, 9, 51, 44
4, 6219, Note_on_c, 9, 51, 0
4, 6256, Note_on_c, 9, 51, 34
4, 6269, Note_on_c, 9, 51, 0
4, 6324, Note_on_c, 9, 51, 65
4, 6345, Note_on_c, 9, 51, 0
4, 6444, Note_on_c, 9, 51, 65
4, 6466, Note_on_c, 9, 51, 0
4, 6559, Note_on_c, 9, 51, 64
4, 6580, Note_on_c, 9, 51, 0
4, 6677, Note_on_c, 9, 29, 31
4, 6679, Note_on_c, 9, 53, 60
4, 6691, Note_on_c, 9, 53, 0
4, 6694, Note_on_c, 9, 29, 0
4, 6727, Note_on_c, 9, 53, 41
4, 6733, Note_on_c, 9, 40, 39
4, 6739, Note_on_c, 9, 53, 0
4, 6771, Note_on_c, 9, 40, 0
4, 6799, Note_on_c, 9, 51, 58
4, 6809, Note_on_c, 9, 51, 0
4, 6924, Note_on_c, 9, 51, 69
4, 6935, Note_on_c, 9, 51, 0
4, 7045, Note_on_c, 9, 51, 52
4, 7056, Note_on_c, 9, 51, 0
4, 7090, Note_on_c, 9, 51, 33
4, 7101, Note_on_c, 9, 51, 0
4, 7158, Note_on_c, 9, 51, 82
4, 7180, Note_on_c, 9, 51, 0
4, 7328, Note_on_c, 9, 40, 73
4, 7353, Note_on_c, 9, 40, 0
4, 7448, Note_on_c, 9, 40, 73
4, 7481, Note_on_c, 9, 40, 0
4, 7514, Note_on_c, 9, 40, 65
4, 7544, Note_on_c, 9, 40, 0
4, 7641, Note_on_c, 9, 57, 83
4, 7641, Note_on_c, 9, 40, 84
4, 7652, Note_on_c, 9, 57, 0
4, 7668, Note_on_c, 9, 40, 0
4, 7878, Note_on_c, 9, 59, 46
4, 7890, Note_on_c, 9, 59, 0
4, 7915, Note_on_c, 9, 59, 50
4, 7942, Note_on_c, 9, 59, 0
4, 8110, Note_on_c, 9, 40, 60
4, 8116, Note_on_c, 9, 59, 49
4, 8118, Note_on_c, 9, 40, 0
4, 8127, Note_on_c, 9, 59, 0
4, 8151, Note_on_c, 9, 35, 51
4, 8154, Note_on_c, 9, 59, 63
4, 8180, Note_on_c, 9, 35, 0
4, 8199, Note_on_c, 9, 59, 0
4, 8361, Note_on_c, 9, 59, 42
4, 8371, Note_on_c, 9, 59, 0
4, 8400, Note_on_c, 9, 59, 63
4, 8474, Note_on_c, 9, 59, 0
4, 8604, Note_on_c, 9, 59, 37
4, 8614, Note_on_c, 9, 59, 0
4, 8648, Note_on_c, 9, 59, 32
4, 8664, Note_on_c, 9, 59, 0
4, 8719, Note_on_c, 9, 59, 68
4, 8730, Note_on_c, 9, 59, 0
4, 8759, Note_on_c, 9, 59, 89
4, 8841, Note_on_c, 9, 59, 0
4, 8884, Note_on_c, 9, 59, 35
4, 8896, Note_on_c, 9, 59, 0
4, 8953, Note_on_c, 9, 59, 74
4, 8975, Note_on_c, 9, 59, 0
4, 9048, Note_on_c, 9, 40, 47
4, 9060, Note_on_c, 9, 40, 0
4, 9084, Note_on_c, 9, 59, 40
4, 9084, Note_on_c, 9, 40, 40
4, 9094, Note_on_c, 9, 59, 0
4, 9095, Note_on_c, 9, 40, 0
4, 9119, Note_on_c, 9, 59, 60
4, 9125, Note_on_c, 9, 35, 33
4, 9139, Note_on_c, 9, 35, 0
4, 9197, Note_on_c, 9, 59, 0
4, 9206, Note_on_c, 9, 35, 28
4, 9269, Note_on_c, 9, 35, 0
4, 9323, Note_on_c, 9, 35, 50
4, 9329, Note_on_c, 9, 59, 44
4, 9334, Note_on_c, 9, 35, 0
4, 9338, Note_on_c, 9, 59, 0
4, 9362, Note_on_c, 9, 59, 57
4, 9412, Note_on_c, 9, 35, 46
4, 9414, Note_on_c, 9, 35, 0
4, 9417, Note_on_c, 9, 59, 0
4, 9567, Note_on_c, 9, 59, 33
4, 9578, Note_on_c, 9, 59, 0
4, 9599, Note_on_c, 9, 59, 41
4, 9635, Note_on_c, 9, 59, 0
4, 9683, Note_on_c, 9, 59, 87
4, 9699, Note_on_c, 9, 59, 0
4, 9720, Note_on_c, 9, 59, 81
4, 9798, Note_on_c, 9, 59, 0
4, 9836, Note_on_c, 9, 59, 51
4, 9852, Note_on_c, 9, 59, 0
4, 9922, Note_on_c, 9, 35, 39
4, 9924, Note_on_c, 9, 59, 37
4, 9932, Note_on_c, 9, 35, 0
4, 9935, Note_on_c, 9, 59, 0
4, 9959, Note_on_c, 9, 59, 36
4, 9975, Note_on_c, 9, 59, 0
4, 10039, Note_on_c, 9, 59, 80
4, 10056, Note_on_c, 9, 59, 0
4, 10077, Note_on_c, 9, 59, 71
4, 10139, Note_on_c, 9, 59, 0
4, 10205, Note_on_c, 9, 40, 29
4, 10216, Note_on_c, 9, 40, 0
4, 10279, Note_on_c, 9, 40, 66
4, 10285, Note_on_c, 9, 59, 44
4, 10297, Note_on_c, 9, 59, 0
4, 10304, Note_on_c, 9, 40, 0
4, 10324, Note_on_c, 9, 40, 32
4, 10327, Note_on_c, 9, 59, 29
4, 10351, Note_on_c, 9, 40, 0
4, 10370, Note_on_c, 9, 59, 0
4, 10397, Note_on_c, 9, 53, 62
4, 10399, Note_on_c, 9, 35, 42
4, 10413, Note_on_c, 9, 35, 0
4, 10420, Note_on_c, 9, 53, 0
4, 10444, Note_on_c, 9, 35, 36
4, 10447, Note_on_c, 9, 59, 32
4, 10483, Note_on_c, 9, 59, 0
4, 10486, Note_on_c, 9, 35, 0
4, 10516, Note_on_c, 9, 35, 42
4, 10535, Note_on_c, 9, 35, 0
4, 10559, Note_on_c, 9, 59, 51
4, 10611, Note_on_c, 9, 59, 0
4, 10771, Note_on_c, 9, 59, 48
4, 10786, Note_on_c, 9, 59, 0
4, 10808, Note_on_c, 9, 59, 44
4, 10830, Note_on_c, 9, 59, 0
4, 10889, Note_on_c, 9, 59, 91
4, 10925, Note_on_c, 9, 37, 38
4, 10948, Note_on_c, 9, 59, 0
4, 10974, Note_on_c, 9, 37, 0
4, 10999, Note_on_c, 9, 37, 37
4, 11008, Note_on_c, 9, 59, 22
4, 11019, Note_on_c, 9, 37, 0
4, 11022, Note_on_c, 9, 59, 0
4, 11056, Note_on_c, 9, 59, 87
4, 11126, Note_on_c, 9, 59, 0
4, 11130, Note_on_c, 9, 35, 33
4, 11141, Note_on_c, 9, 35, 0
4, 11172, Note_on_c, 9, 59, 48
4, 11181, Note_on_c, 9, 59, 0
4, 11240, Note_on_c, 9, 59, 87
4, 11281, Note_on_c, 9, 40, 40
4, 11294, Note_on_c, 9, 40, 0
4, 11312, Note_on_c, 9, 59, 0
4, 11319, Note_on_c, 9, 40, 46
4, 11332, Note_on_c, 9, 40, 0
4, 11414, Note_on_c, 9, 59, 89
4, 11479, Note_on_c, 9, 59, 0
4, 11582, Note_on_c, 9, 35, 45
4, 11591, Note_on_c, 9, 35, 0
4, 11594, Note_on_c, 9, 59, 65
4, 11613, Note_on_c, 9, 40, 42
4, 11615, Note_on_c, 9, 59, 0
4, 11622, Note_on_c, 9, 40, 0
4, 11639, Note_on_c, 9, 59, 44
4, 11645, Note_on_c, 9, 40, 35
4, 11675, Note_on_c, 9, 40, 0
4, 11682, Note_on_c, 9, 59, 0
4, 11720, Note_on_c, 9, 40, 47
4, 11731, Note_on_c, 9, 59, 80
4, 11734, Note_on_c, 9, 40, 0
4, 11753, Note_on_c, 9, 59, 0
4, 11799, Note_on_c, 9, 40, 50
4, 11809, Note_on_c, 9, 40, 0
4, 11835, Note_on_c, 9, 40, 44
4, 11846, Note_on_c, 9, 40, 0
4, 11855, Note_on_c, 9, 59, 37
4, 11867, Note_on_c, 9, 59, 0
4, 11879, Note_on_c, 9, 35, 40
4, 11889, Note_on_c, 9, 35, 0
4, 11894, Note_on_c, 9, 59, 51
4, 11916, Note_on_c, 9, 59, 0
4, 11929, Note_on_c, 9, 40, 68
4, 11948, Note_on_c, 9, 40, 0
4, 11962, Note_on_c, 9, 40, 75
4, 11968, Note_on_c, 9, 59, 51
4, 11978, Note_on_c, 9, 59, 0
4, 11980, Note_on_c, 9, 40, 0
4, 12000, Note_on_c, 9, 35, 52
4, 12005, Note_on_c, 9, 59, 60
4, 12031, Note_on_c, 9, 59, 0
4, 12043, Note_on_c, 9, 35, 0
4, 12198, Note_on_c, 9, 59, 49
4, 12208, Note_on_c, 9, 59, 0
4, 12232, Note_on_c, 9, 59, 41
4, 12268, Note_on_c, 9, 59, 0
4, 12475, Note_on_c, 9, 59, 49
4, 12508, Note_on_c, 9, 59, 0
4, 12559, Note_on_c, 9, 53, 42
4, 12567, Note_on_c, 9, 53, 0
4, 12678, Note_on_c, 9, 59, 50
4, 12688, Note_on_c, 9, 59, 0
4, 12718, Note_on_c, 9, 59, 51
4, 12738, Note_on_c, 9, 59, 0
4, 12798, Note_on_c, 9, 53, 61
4, 12806, Note_on_c, 9, 53, 0
4, 12848, Note_on_c, 9, 59, 29
4, 12859, Note_on_c, 9, 59, 0
4, 12917, Note_on_c, 9, 34, 68
4, 12942, Note_on_c, 9, 34, 0
4, 12951, Note_on_c, 9, 59, 72
4, 12967, Note_on_c, 9, 35, 40
4, 12972, Note_on_c, 9, 59, 0
4, 13006, Note_on_c, 9, 35, 0
4, 13039, Note_on_c, 9, 40, 39
4, 13050, Note_on_c, 9, 40, 0
4, 13085, Note_on_c, 9, 40, 31
4, 13097, Note_on_c, 9, 40, 0
4, 13155, Note_on_c, 9, 40, 55
4, 13160, Note_on_c, 9, 59, 50
4, 13165, Note_on_c, 9, 40, 0
4, 13174, Note_on_c, 9, 59, 0
4, 13274, Note_on_c, 9, 59, 82
4, 13279, Note_on_c, 9, 35, 30
4, 13290, Note_on_c, 9, 35, 0
4, 13293, Note_on_c, 9, 59, 0
4, 13547, Note_on_c, 9, 59, 33
4, 13580, Note_on_c, 9, 59, 0
4, 13629, Note_on_c, 9, 59, 67
4, 13636, Note_on_c, 9, 40, 34
4, 13648, Note_on_c, 9, 59, 0
4, 13662, Note_on_c, 9, 40, 0
4, 13673, Note_on_c, 9, 59, 62
4, 13738, Note_on_c, 9, 59, 0
4, 13751, Note_on_c, 9, 40, 40
4, 13764, Note_on_c, 9, 40, 0
4, 13799, Note_on_c, 9, 40, 28
4, 13818, Note_on_c, 9, 40, 0
4, 13872, Note_on_c, 9, 35, 44
4, 13886, Note_on_c, 9, 35, 0
4, 13919, Note_on_c, 9, 35, 39
4, 13955, Note_on_c, 9, 59, 33
4, 13958, Note_on_c, 9, 35, 0
4, 13966, Note_on_c, 9, 59, 0
4, 13990, Note_on_c, 9, 59, 49
4, 13996, Note_on_c, 9, 35, 32
4, 14010, Note_on_c, 9, 35, 0
4, 14017, Note_on_c, 9, 59, 0
4, 14034, Note_on_c, 9, 59, 74
4, 14089, Note_on_c, 9, 59, 0
4, 14115, Note_on_c, 9, 59, 84
4, 14202, Note_on_c, 9, 59, 0
4, 14230, Note_on_c, 9, 40, 36
4, 14238, Note_on_c, 9, 59, 33
4, 14241, Note_on_c, 9, 40, 0
4, 14249, Note_on_c, 9, 59, 0
4, 14272, Note_on_c, 9, 35, 46
4, 14284, Note_on_c, 9, 59, 47
4, 14293, Note_on_c, 9, 59, 0
4, 14302, Note_on_c, 9, 35, 0
4, 14360, Note_on_c, 9, 59, 95
4, 14423, Note_on_c, 9, 59, 0
4, 14480, Note_on_c, 9, 59, 68
4, 14489, Note_on_c, 9, 59, 0
4, 14596, Note_on_c, 9, 59, 79
4, 14622, Note_on_c, 9, 59, 0
4, 14632, Note_on_c, 9, 40, 24
4, 14643, Note_on_c, 9, 40, 0
4, 14715, Note_on_c, 9, 59, 33
4, 14717, Note_on_c, 9, 40, 55
4, 14726, Note_on_c, 9, 59, 0
4, 14732, Note_on_c, 9, 40, 0
4, 14753, Note_on_c, 9, 59, 46
4, 14765, Note_on_c, 9, 59, 0
4, 14871, Note_on_c, 9, 59, 113
4, 14890, Note_on_c, 9, 59, 0
4, 15113, Note_on_c, 9, 59, 72
4, 15113, Note_on_c, 9, 40, 36
4, 15130, Note_on_c, 9, 40, 0
4, 15135, Note_on_c, 9, 59, 0
4, 15151, Note_on_c, 9, 40, 53
4, 15161, Note_on_c, 9, 40, 0
4, 15239, Note_on_c, 9, 59, 68
4, 15265, Note_on_c, 9, 59, 0
4, 15348, Note_on_c, 9, 40, 38
4, 15361, Note_on_c, 9, 40, 0
4, 15388, Note_on_c, 9, 40, 44
4, 15400, Note_on_c, 9, 40, 0
4, 15446, Note_on_c, 9, 59, 24
4, 15455, Note_on_c, 9, 59, 0
4, 15474, Note_on_c, 9, 40, 59
4, 15520, Note_on_c, 9, 40, 0
4, 15552, Note_on_c, 9, 59, 72
4, 15552, Note_on_c, 9, 40, 56
4, 15561, Note_on_c, 9, 40, 0
4, 15571, Note_on_c, 9, 59, 0
4, 15636, Note_on_c, 9, 40, 57
4, 15645, Note_on_c, 9, 40, 0
4, 15675, Note_on_c, 9, 35, 58
4, 15683, Note_on_c, 9, 59, 48
4, 15692, Note_on_c, 9, 59, 0
4, 15698, Note_on_c, 9, 35, 0
4, 15716, Note_on_c, 9, 59, 71
4, 15719, Note_on_c, 9, 40, 57
4, 15730, Note_on_c, 9, 40, 0
4, 15748, Note_on_c, 9, 59, 0
4, 15793, Note_on_c, 9, 51, 72
4, 15794, Note_on_c, 9, 34, 67
4, 15808, Note_on_c, 9, 51, 0
4, 15819, Note_on_c, 9, 34, 0
4, 15832, Note_on_c, 9, 51, 59
4, 15833, Note_on_c, 9, 40, 53
4, 15835, Note_on_c, 9, 35, 55
4, 15847, Note_on_c, 9, 40, 0
4, 15863, Note_on_c, 9, 35, 0
4, 15903, Note_on_c, 9, 51, 0
4, 15952, Note_on_c, 9, 51, 82
4, 16026, Note_on_c, 9, 51, 0
4, 16047, Note_on_c, 9, 40, 56
4, 16055, Note_on_c, 9, 40, 0
4, 16081, Note_on_c, 9, 51, 77
4, 16147, Note_on_c, 9, 51, 0
4, 16204, Note_on_c, 9, 51, 85
4, 16257, Note_on_c, 9, 51, 0
4, 16286, Note_on_c, 9, 35, 30
4, 16295, Note_on_c, 9, 51, 56
4, 16301, Note_on_c, 9, 35, 0
4, 16311, Note_on_c, 9, 51, 0
4, 16324, Note_on_c, 9, 51, 78
4, 16325, Note_on_c, 9, 35, 43
4, 16389, Note_on_c, 9, 35, 0
4, 16396, Note_on_c, 9, 51, 0
4, 16408, Note_on_c, 9, 35, 43
4, 16418, Note_on_c, 9, 35, 0
4, 16437, Note_on_c, 9, 51, 82
4, 16506, Note_on_c, 9, 51, 0
4, 16559, Note_on_c, 9, 51, 83
4, 16621, Note_on_c, 9, 51, 0
4, 16639, Note_on_c, 9, 35, 38
4, 16644, Note_on_c, 9, 53, 72
4, 16651, Note_on_c, 9, 35, 0
4, 16671, Note_on_c, 9, 53, 0
4, 16682, Note_on_c, 9, 51, 62
4, 16769, Note_on_c, 9, 51, 0
4, 16795, Note_on_c, 9, 51, 74
4, 16871, Note_on_c, 9, 51, 0
4, 16917, Note_on_c, 9, 51, 82
4, 16979, Note_on_c, 9, 51, 0
4, 17006, Note_on_c, 9, 35, 37
4, 17015, Note_on_c, 9, 51, 42
4, 17019, Note_on_c, 9, 35, 0
4, 17025, Note_on_c, 9, 51, 0
4, 17042, Note_on_c, 9, 51, 63
4, 17123, Note_on_c, 9, 51, 0
4, 17159, Note_on_c, 9, 51, 82
4, 17160, Note_on_c, 9, 37, 95
4, 17198, Note_on_c, 9, 37, 0
4, 17238, Note_on_c, 9, 51, 0
4, 17239, Note_on_c, 9, 35, 46
4, 17251, Note_on_c, 9, 35, 0
4, 17256, Note_on_c, 9, 51, 51
4, 17271, Note_on_c, 9, 51, 0
4, 17278, Note_on_c, 9, 35, 29
4, 17282, Note_on_c, 9, 51, 72
4, 17321, Note_on_c, 9, 35, 0
4, 17366, Note_on_c, 9, 51, 0
4, 17399, Note_on_c, 9, 51, 82
4, 17469, Note_on_c, 9, 51, 0
4, 17515, Note_on_c, 9, 51, 82
4, 17581, Note_on_c, 9, 51, 0
4, 17599, Note_on_c, 9, 51, 49
4, 17613, Note_on_c, 9, 51, 0
4, 17629, Note_on_c, 9, 51, 71
4, 17634, Note_on_c, 9, 37, 95
4, 17677, Note_on_c, 9, 37, 0
4, 17713, Note_on_c, 9, 51, 0
4, 17715, Note_on_c, 9, 35, 47
4, 17727, Note_on_c, 9, 35, 0
4, 17750, Note_on_c, 9, 51, 82
4, 17763, Note_on_c, 9, 35, 18
4, 17796, Note_on_c, 9, 35, 0
4, 17824, Note_on_c, 9, 51, 0
4, 17872, Note_on_c, 9, 51, 79
4, 17934, Note_on_c, 9, 51, 0
4, 17964, Note_on_c, 9, 51, 49
4, 17975, Note_on_c, 9, 51, 0
4, 17989, Note_on_c, 9, 51, 71
4, 18065, Note_on_c, 9, 51, 0
4, 18110, Note_on_c, 9, 51, 81
4, 18118, Note_on_c, 9, 37, 97
4, 18164, Note_on_c, 9, 37, 0
4, 18177, Note_on_c, 9, 51, 0
4, 18197, Note_on_c, 9, 51, 39
4, 18212, Note_on_c, 9, 51, 0
4, 18231, Note_on_c, 9, 51, 67
4, 18303, Note_on_c, 9, 51, 0
4, 18352, Note_on_c, 9, 51, 83
4, 18423, Note_on_c, 9, 51, 0
4, 18468, Note_on_c, 9, 40, 47
4, 18477, Note_on_c, 9, 51, 83
4, 18478, Note_on_c, 9, 40, 0
4, 18541, Note_on_c, 9, 51, 0
4, 18558, Note_on_c, 9, 35, 26
4, 18564, Note_on_c, 9, 51, 45
4, 18565, Note_on_c, 9, 35, 0
4, 18579, Note_on_c, 9, 51, 0
4, 18595, Note_on_c, 9, 37, 93
4, 18596, Note_on_c, 9, 51, 72
4, 18651, Note_on_c, 9, 37, 0
4, 18666, Note_on_c, 9, 51, 0
4, 18716, Note_on_c, 9, 51, 86
4, 18762, Note_on_c, 9, 51, 0
4, 18838, Note_on_c, 9, 51, 77
4, 18922, Note_on_c, 9, 51, 0
4, 18925, Note_on_c, 9, 37, 23
4, 18938, Note_on_c, 9, 37, 0
4, 18962, Note_on_c, 9, 51, 70
4, 19011, Note_on_c, 9, 51, 0
4, 19040, Note_on_c, 9, 51, 52
4, 19056, Note_on_c, 9, 51, 0
4, 19079, Note_on_c, 9, 37, 97
4, 19080, Note_on_c, 9, 51, 44
4, 19091, Note_on_c, 9, 51, 0
4, 19125, Note_on_c, 9, 37, 0
4, 19151, Note_on_c, 9, 57, 79
4, 19152, Note_on_c, 9, 51, 81
4, 19170, Note_on_c, 9, 57, 0
4, 19171, Note_on_c, 9, 51, 0
4, 19523, Note_on_c, 9, 40, 33
4, 19533, Note_on_c, 9, 40, 0
4, 19564, Note_on_c, 9, 40, 40
4, 19577, Note_on_c, 9, 40, 0
4, 19642, Note_on_c, 9, 35, 52
4, 19655, Note_on_c, 9, 35, 0
4, 19685, Note_on_c, 9, 59, 64
4, 19690, Note_on_c, 9, 35, 51
4, 19731, Note_on_c, 9, 35, 0
4, 19738, Note_on_c, 9, 59, 0
4, 19885, Note_on_c, 9, 59, 50
4, 19895, Note_on_c, 9, 59, 0
4, 19922, Note_on_c, 9, 59, 51
4, 19990, Note_on_c, 9, 59, 0
4, 20008, Note_on_c, 9, 35, 27
4, 20011, Note_on_c, 9, 59, 54
4, 20018, Note_on_c, 9, 35, 0
4, 20021, Note_on_c, 9, 59, 0
4, 20047, Note_on_c, 9, 40, 35
4, 20094, Note_on_c, 9, 40, 0
4, 20118, Note_on_c, 9, 59, 88
4, 20120, Note_on_c, 9, 40, 51
4, 20135, Note_on_c, 9, 40, 0
4, 20139, Note_on_c, 9, 59, 0
4, 20236, Note_on_c, 9, 35, 38
4, 20249, Note_on_c, 9, 35, 0
4, 20283, Note_on_c, 9, 35, 28
4, 20327, Note_on_c, 9, 35, 0
4, 20358, Note_on_c, 9, 59, 51
4, 20362, Note_on_c, 9, 35, 74
4, 20369, Note_on_c, 9, 59, 0
4, 20398, Note_on_c, 9, 59, 60
4, 20401, Note_on_c, 9, 35, 0
4, 20453, Note_on_c, 9, 59, 0
4, 20605, Note_on_c, 9, 59, 33
4, 20616, Note_on_c, 9, 59, 0
4, 20635, Note_on_c, 9, 59, 62
4, 20701, Note_on_c, 9, 59, 0
4, 20956, Note_on_c, 9, 59, 74
4, 20959, Note_on_c, 9, 40, 27
4, 20970, Note_on_c, 9, 40, 0
4, 20983, Note_on_c, 9, 59, 0
4, 21009, Note_on_c, 9, 53, 32
4, 21023, Note_on_c, 9, 53, 0
4, 21078, Note_on_c, 9, 40, 48
4, 21089, Note_on_c, 9, 40, 0
4, 21197, Note_on_c, 9, 59, 55
4, 21203, Note_on_c, 9, 40, 34
4, 21206, Note_on_c, 9, 59, 0
4, 21217, Note_on_c, 9, 40, 0
4, 21232, Note_on_c, 9, 59, 74
4, 21295, Note_on_c, 9, 59, 0
4, 21309, Note_on_c, 9, 59, 90
4, 21320, Note_on_c, 9, 40, 38
4, 21330, Note_on_c, 9, 40, 0
4, 21357, Note_on_c, 9, 59, 0
4, 21434, Note_on_c, 9, 40, 42
4, 21444, Note_on_c, 9, 40, 0
4, 21555, Note_on_c, 9, 40, 57
4, 21559, Note_on_c, 9, 59, 37
4, 21563, Note_on_c, 9, 40, 0
4, 21569, Note_on_c, 9, 59, 0
4, 21593, Note_on_c, 9, 59, 58
4, 21600, Note_on_c, 9, 35, 29
4, 21624, Note_on_c, 9, 35, 0
4, 21657, Note_on_c, 9, 59, 0
4, 21679, Note_on_c, 9, 59, 55
4, 21682, Note_on_c, 9, 40, 39
4, 21690, Note_on_c, 9, 59, 0
4, 21692, Note_on_c, 9, 40, 0
4, 21801, Note_on_c, 9, 40, 41
4, 21804, Note_on_c, 9, 59, 51
4, 21812, Note_on_c, 9, 59, 0
4, 21820, Note_on_c, 9, 40, 0
4, 21840, Note_on_c, 9, 59, 71
4, 21891, Note_on_c, 9, 59, 0
4, 21916, Note_on_c, 9, 40, 45
4, 21928, Note_on_c, 9, 40, 0
4, 22032, Note_on_c, 9, 40, 58
4, 22041, Note_on_c, 9, 40, 0
4, 22082, Note_on_c, 9, 59, 64
4, 22127, Note_on_c, 9, 59, 0
4, 22162, Note_on_c, 9, 35, 33
4, 22174, Note_on_c, 9, 35, 0
4, 22210, Note_on_c, 9, 59, 60
4, 22210, Note_on_c, 9, 53, 48
4, 22258, Note_on_c, 9, 53, 0
4, 22261, Note_on_c, 9, 59, 0
4, 22322, Note_on_c, 9, 53, 76
4, 22323, Note_on_c, 9, 59, 92
4, 22324, Note_on_c, 9, 40, 38
4, 22371, Note_on_c, 9, 59, 0
4, 22375, Note_on_c, 9, 53, 0
4, 22381, Note_on_c, 9, 40, 0
4, 22398, Note_on_c, 9, 53, 57
4, 22400, Note_on_c, 9, 59, 30
4, 22406, Note_on_c, 9, 35, 29
4, 22412, Note_on_c, 9, 59, 0
4, 22417, Note_on_c, 9, 35, 0
4, 22418, Note_on_c, 9, 53, 0
4, 22433, Note_on_c, 9, 53, 40
4, 22433, Note_on_c, 9, 59, 47
4, 22449, Note_on_c, 9, 40, 32
4, 22459, Note_on_c, 9, 40, 0
4, 22478, Note_on_c, 9, 59, 0
4, 22488, Note_on_c, 9, 53, 0
4, 22516, Note_on_c, 9, 53, 95
4, 22517, Note_on_c, 9, 59, 115
4, 22520, Note_on_c, 9, 40, 57
4, 22531, Note_on_c, 9, 40, 0
4, 22554, Note_on_c, 9, 59, 0
4, 22557, Note_on_c, 9, 57, 83
4, 22560, Note_on_c, 9, 35, 69
4, 22562, Note_on_c, 9, 53, 0
4, 22572, Note_on_c, 9, 57, 0
4, 22587, Note_on_c, 9, 35, 0
4, 23044, Note_on_c, 9, 40, 38
4, 23097, Note_on_c, 9, 40, 0
4, 23162, Note_on_c, 9, 40, 99
4, 23230, Note_on_c, 9, 40, 0
4, 23356, Note_on_c, 9, 40, 78
4, 23403, Note_on_c, 9, 40, 0
4, 23451, Note_on_c, 9, 34, 55
4, 23459, Note_on_c, 9, 34, 0
4, 23483, Note_on_c, 9, 34, 62
4, 23512, Note_on_c, 9, 40, 42
4, 23513, Note_on_c, 9, 34, 0
4, 23521, Note_on_c, 9, 40, 0
4, 23528, Note_on_c, 9, 35, 68
4, 23580, Note_on_c, 9, 35, 0
4, 23830, Note_on_c, 9, 35, 50
4, 23857, Note_on_c, 9, 35, 0
4, 23857, Note_on_c, 9, 59, 44
4, 23868, Note_on_c, 9, 59, 0
4, 23873, Note_on_c, 9, 40, 32
4, 23892, Note_on_c, 9, 59, 36
4, 23930, Note_on_c, 9, 40, 0
4, 23947, Note_on_c, 9, 59, 0
4, 23952, Note_on_c, 9, 40, 63
4, 23969, Note_on_c, 9, 59, 65
4, 23970, Note_on_c, 9, 40, 0
4, 23982, Note_on_c, 9, 59, 0
4, 24195, Note_on_c, 9, 40, 44
4, 24205, Note_on_c, 9, 40, 0
4, 24210, Note_on_c, 9, 59, 41
4, 24222, Note_on_c, 9, 59, 0
4, 24239, Note_on_c, 9, 40, 40
4, 24246, Note_on_c, 9, 59, 48
4, 24251, Note_on_c, 9, 40, 0
4, 24325, Note_on_c, 9, 59, 0
4, 24367, Note_on_c, 9, 59, 75
4, 24433, Note_on_c, 9, 59, 0
4, 24446, Note_on_c, 9, 35, 49
4, 24459, Note_on_c, 9, 59, 40
4, 24466, Note_on_c, 9, 35, 0
4, 24473, Note_on_c, 9, 59, 0
4, 24491, Note_on_c, 9, 59, 45
4, 24498, Note_on_c, 9, 40, 38
4, 24543, Note_on_c, 9, 40, 0
4, 24561, Note_on_c, 9, 59, 0
4, 24564, Note_on_c, 9, 40, 51
4, 24578, Note_on_c, 9, 40, 0
4, 24603, Note_on_c, 9, 59, 71
4, 24667, Note_on_c, 9, 59, 0
4, 24693, Note_on_c, 9, 59, 48
4, 24706, Note_on_c, 9, 59, 0
4, 24727, Note_on_c, 9, 59, 53
4, 24795, Note_on_c, 9, 34, 25
4, 24804, Note_on_c, 9, 34, 0
4, 24809, Note_on_c, 9, 59, 0
4, 24820, Note_on_c, 9, 35, 31
4, 24826, Note_on_c, 9, 40, 32
4, 24846, Note_on_c, 9, 59, 80
4, 24887, Note_on_c, 9, 35, 0
4, 24888, Note_on_c, 9, 40, 0
4, 24906, Note_on_c, 9, 40, 58
4, 24909, Note_on_c, 9, 35, 45
4, 24920, Note_on_c, 9, 40, 0
4, 24922, Note_on_c, 9, 35, 0
4, 24939, Note_on_c, 9, 59, 0
4, 24973, Note_on_c, 9, 59, 35
4, 25008, Note_on_c, 9, 59, 0
4, 25055, Note_on_c, 9, 59, 24
4, 25066, Note_on_c, 9, 59, 0
4, 25087, Note_on_c, 9, 59, 79
4, 25169, Note_on_c, 9, 59, 0
4, 25170, Note_on_c, 9, 40, 31
4, 25179, Note_on_c, 9, 40, 0
4, 25202, Note_on_c, 9, 59, 47
4, 25215, Note_on_c, 9, 40, 29
4, 25225, Note_on_c, 9, 40, 0
4, 25251, Note_on_c, 9, 59, 0
4, 25277, Note_on_c, 9, 40, 60
4, 25286, Note_on_c, 9, 40, 0
4, 25290, Note_on_c, 9, 59, 36
4, 25305, Note_on_c, 9, 59, 0
4, 25325, Note_on_c, 9, 59, 69
4, 25406, Note_on_c, 9, 35, 33
4, 25409, Note_on_c, 9, 59, 0
4, 25416, Note_on_c, 9, 35, 0
4, 25438, Note_on_c, 9, 40, 49
4, 25453, Note_on_c, 9, 59, 68
4, 25500, Note_on_c, 9, 40, 0
4, 25509, Note_on_c, 9, 59, 0
4, 25520, Note_on_c, 9, 40, 50
4, 25524, Note_on_c, 9, 35, 32
4, 25527, Note_on_c, 9, 40, 0
4, 25532, Note_on_c, 9, 59, 44
4, 25533, Note_on_c, 9, 35, 0
4, 25543, Note_on_c, 9, 59, 0
4, 25640, Note_on_c, 9, 59, 80
4, 25686, Note_on_c, 9, 59, 0
4, 25760, Note_on_c, 9, 59, 24
4, 25782, Note_on_c, 9, 59, 0
4, 25792, Note_on_c, 9, 35, 18
4, 25793, Note_on_c, 9, 40, 26
4, 25800, Note_on_c, 9, 59, 68
4, 25847, Note_on_c, 9, 35, 0
4, 25853, Note_on_c, 9, 40, 0
4, 25855, Note_on_c, 9, 59, 0
4, 25877, Note_on_c, 9, 59, 81
4, 25884, Note_on_c, 9, 40, 30
4, 25893, Note_on_c, 9, 40, 0
4, 25972, Note_on_c, 9, 59, 0
4, 25996, Note_on_c, 9, 34, 46
4, 26004, Note_on_c, 9, 34, 0
4, 26007, Note_on_c, 9, 59, 37
4, 26021, Note_on_c, 9, 59, 0
4, 26045, Note_on_c, 9, 59, 66
4, 26120, Note_on_c, 9, 34, 50
4, 26129, Note_on_c, 9, 59, 0
4, 26139, Note_on_c, 9, 34, 0
4, 26169, Note_on_c, 9, 59, 75
4, 26238, Note_on_c, 9, 59, 0
4, 26238, Note_on_c, 9, 34, 47
4, 26265, Note_on_c, 9, 34, 0
4, 26304, Note_on_c, 9, 59, 26
4, 26315, Note_on_c, 9, 59, 0
4, 26361, Note_on_c, 9, 34, 52
4, 26363, Note_on_c, 9, 59, 91
4, 26377, Note_on_c, 9, 40, 42
4, 26388, Note_on_c, 9, 40, 0
4, 26388, Note_on_c, 9, 34, 0
4, 26411, Note_on_c, 9, 40, 47
4, 26414, Note_on_c, 9, 35, 38
4, 26434, Note_on_c, 9, 59, 0
4, 26467, Note_on_c, 9, 35, 0
4, 26467, Note_on_c, 9, 40, 0
4, 26482, Note_on_c, 9, 40, 42
4, 26489, Note_on_c, 9, 35, 39
4, 26490, Note_on_c, 9, 59, 27
4, 26493, Note_on_c, 9, 40, 0
4, 26502, Note_on_c, 9, 59, 0
4, 26503, Note_on_c, 9, 35, 0
4, 26523, Note_on_c, 9, 59, 75
4, 26586, Note_on_c, 9, 59, 0
4, 26607, Note_on_c, 9, 59, 57
4, 26618, Note_on_c, 9, 59, 0
4, 26643, Note_on_c, 9, 59, 60
4, 26709, Note_on_c, 9, 59, 0
4, 26721, Note_on_c, 9, 53, 75
4, 26726, Note_on_c, 9, 59, 51
4, 26747, Note_on_c, 9, 40, 36
4, 26749, Note_on_c, 9, 59, 0
4, 26751, Note_on_c, 9, 35, 38
4, 26815, Note_on_c, 9, 40, 0
4, 26817, Note_on_c, 9, 35, 0
4, 26831, Note_on_c, 9, 40, 59
4, 26833, Note_on_c, 9, 35, 57
4, 26843, Note_on_c, 9, 40, 0
4, 26848, Note_on_c, 9, 35, 0
4, 26850, Note_on_c, 9, 59, 57
4, 26863, Note_on_c, 9, 59, 0
4, 26888, Note_on_c, 9, 59, 73
4, 26917, Note_on_c, 9, 53, 0
4, 26959, Note_on_c, 9, 59, 0
4, 26972, Note_on_c, 9, 59, 34
4, 26986, Note_on_c, 9, 59, 0
4, 27014, Note_on_c, 9, 59, 43
4, 27048, Note_on_c, 9, 59, 0
4, 27078, Note_on_c, 9, 59, 87
4, 27189, Note_on_c, 9, 59, 0
4, 27189, Note_on_c, 9, 40, 56
4, 27200, Note_on_c, 9, 53, 49
4, 27202, Note_on_c, 9, 40, 0
4, 27212, Note_on_c, 9, 53, 0
4, 27240, Note_on_c, 9, 59, 82
4, 27288, Note_on_c, 9, 34, 29
4, 27297, Note_on_c, 9, 34, 0
4, 27297, Note_on_c, 9, 59, 0
4, 27313, Note_on_c, 9, 34, 37
4, 27324, Note_on_c, 9, 59, 64
4, 27331, Note_on_c, 9, 34, 0
4, 27347, Note_on_c, 9, 59, 0
4, 27359, Note_on_c, 9, 35, 57
4, 27363, Note_on_c, 9, 40, 62
4, 27363, Note_on_c, 9, 59, 68
4, 27393, Note_on_c, 9, 35, 0
4, 27398, Note_on_c, 9, 40, 0
4, 27423, Note_on_c, 9, 59, 0
4, 27435, Note_on_c, 9, 40, 54
4, 27438, Note_on_c, 9, 35, 51
4, 27445, Note_on_c, 9, 40, 0
4, 27445, Note_on_c, 9, 59, 65
4, 27447, Note_on_c, 9, 35, 0
4, 27470, Note_on_c, 9, 59, 0
4, 27495, Note_on_c, 9, 59, 56
4, 27508, Note_on_c, 9, 59, 0
4, 27563, Note_on_c, 9, 59, 92
4, 27657, Note_on_c, 9, 59, 0
4, 27678, Note_on_c, 9, 34, 31
4, 27681, Note_on_c, 9, 59, 42
4, 27689, Note_on_c, 9, 34, 0
4, 27694, Note_on_c, 9, 59, 0
4, 27718, Note_on_c, 9, 40, 37
4, 27721, Note_on_c, 9, 35, 44
4, 27722, Note_on_c, 9, 59, 77
4, 27778, Note_on_c, 9, 35, 0
4, 27778, Note_on_c, 9, 40, 0
4, 27785, Note_on_c, 9, 59, 0
4, 27792, Note_on_c, 9, 40, 66
4, 27795, Note_on_c, 9, 35, 57
4, 27805, Note_on_c, 9, 59, 51
4, 27806, Note_on_c, 9, 40, 0
4, 27807, Note_on_c, 9, 35, 0
4, 27839, Note_on_c, 9, 59, 0
4, 27861, Note_on_c, 9, 59, 39
4, 27874, Note_on_c, 9, 59, 0
4, 27964, Note_on_c, 9, 59, 91
4, 28020, Note_on_c, 9, 59, 0
4, 28049, Note_on_c, 9, 59, 37
4, 28082, Note_on_c, 9, 59, 0
4, 28107, Note_on_c, 9, 59, 24
4, 28122, Note_on_c, 9, 59, 0
4, 28165, Note_on_c, 9, 59, 92
4, 28199, Note_on_c, 9, 40, 47
4, 28210, Note_on_c, 9, 40, 0
4, 28238, Note_on_c, 9, 40, 53
4, 28248, Note_on_c, 9, 40, 0
4, 28257, Note_on_c, 9, 59, 0
4, 28283, Note_on_c, 9, 59, 39
4, 28296, Note_on_c, 9, 59, 0
4, 28323, Note_on_c, 9, 40, 57
4, 28323, Note_on_c, 9, 35, 51
4, 28329, Note_on_c, 9, 59, 81
4, 28370, Note_on_c, 9, 40, 0
4, 28374, Note_on_c, 9, 35, 0
4, 28380, Note_on_c, 9, 59, 0
4, 28390, Note_on_c, 9, 40, 50
4, 28395, Note_on_c, 9, 35, 35
4, 28399, Note_on_c, 9, 40, 0
4, 28401, Note_on_c, 9, 59, 65
4, 28406, Note_on_c, 9, 35, 0
4, 28429, Note_on_c, 9, 59, 0
4, 28511, Note_on_c, 9, 59, 70
4, 28537, Note_on_c, 9, 59, 0
4, 28567, Note_on_c, 9, 59, 22
4, 28580, Note_on_c, 9, 59, 0
4, 28636, Note_on_c, 9, 35, 22
4, 28643, Note_on_c, 9, 35, 0
4, 28666, Note_on_c, 9, 35, 37
4, 28672, Note_on_c, 9, 40, 42
4, 28676, Note_on_c, 9, 59, 83
4, 28723, Note_on_c, 9, 35, 0
4, 28727, Note_on_c, 9, 59, 0
4, 28727, Note_on_c, 9, 40, 0
4, 28742, Note_on_c, 9, 40, 67
4, 28742, Note_on_c, 9, 35, 52
4, 28755, Note_on_c, 9, 40, 0
4, 28766, Note_on_c, 9, 59, 36
4, 28768, Note_on_c, 9, 35, 0
4, 28780, Note_on_c, 9, 59, 0
4, 28802, Note_on_c, 9, 59, 69
4, 28878, Note_on_c, 9, 59, 0
4, 28920, Note_on_c, 9, 59, 83
4, 28991, Note_on_c, 9, 59, 0
4, 29050, Note_on_c, 9, 59, 58
4, 29085, Note_on_c, 9, 59, 0
4, 29135, Note_on_c, 9, 59, 41
4, 29148, Note_on_c, 9, 59, 0
4, 29168, Note_on_c, 9, 59, 77
4, 29188, Note_on_c, 9, 40, 55
4, 29200, Note_on_c, 9, 40, 0
4, 29229, Note_on_c, 9, 40, 54
4, 29238, Note_on_c, 9, 40, 0
4, 29250, Note_on_c, 9, 59, 0
4, 29271, Note_on_c, 9, 35, 42
4, 29285, Note_on_c, 9, 40, 62
4, 29287, Note_on_c, 9, 59, 49
4, 29292, Note_on_c, 9, 40, 0
4, 29316, Note_on_c, 9, 35, 0
4, 29350, Note_on_c, 9, 40, 57
4, 29352, Note_on_c, 9, 59, 0
4, 29356, Note_on_c, 9, 35, 35
4, 29357, Note_on_c, 9, 40, 0
4, 29368, Note_on_c, 9, 35, 0
4, 29399, Note_on_c, 9, 59, 74
4, 29471, Note_on_c, 9, 59, 0
4, 29490, Note_on_c, 9, 59, 53
4, 29507, Note_on_c, 9, 59, 0
4, 29523, Note_on_c, 9, 59, 59
4, 29587, Note_on_c, 9, 34, 42
4, 29601, Note_on_c, 9, 34, 0
4, 29604, Note_on_c, 9, 59, 0
4, 29628, Note_on_c, 9, 40, 44
4, 29638, Note_on_c, 9, 35, 33
4, 29643, Note_on_c, 9, 59, 77
4, 29682, Note_on_c, 9, 35, 0
4, 29684, Note_on_c, 9, 40, 0
4, 29706, Note_on_c, 9, 40, 54
4, 29712, Note_on_c, 9, 35, 44
4, 29714, Note_on_c, 9, 40, 0
4, 29720, Note_on_c, 9, 59, 0
4, 29723, Note_on_c, 9, 35, 0
4, 29762, Note_on_c, 9, 59, 58
4, 29819, Note_on_c, 9, 59, 0
4, 29861, Note_on_c, 9, 59, 32
4, 29874, Note_on_c, 9, 59, 0
4, 29892, Note_on_c, 9, 59, 76
4, 29981, Note_on_c, 9, 59, 0
4, 30006, Note_on_c, 9, 59, 58
4, 30075, Note_on_c, 9, 59, 0
4, 30101, Note_on_c, 9, 59, 32
4, 30114, Note_on_c, 9, 59, 0
4, 30131, Note_on_c, 9, 59, 53
4, 30196, Note_on_c, 9, 35, 46
4, 30197, Note_on_c, 9, 59, 0
4, 30205, Note_on_c, 9, 53, 66
4, 30207, Note_on_c, 9, 35, 0
4, 30230, Note_on_c, 9, 53, 0
4, 30241, Note_on_c, 9, 40, 27
4, 30248, Note_on_c, 9, 59, 33
4, 30255, Note_on_c, 9, 40, 0
4, 30305, Note_on_c, 9, 59, 0
4, 30323, Note_on_c, 9, 53, 73
4, 30360, Note_on_c, 9, 59, 46
4, 30363, Note_on_c, 9, 53, 0
4, 30415, Note_on_c, 9, 59, 0
4, 30435, Note_on_c, 9, 53, 54
4, 30458, Note_on_c, 9, 53, 0
4, 30474, Note_on_c, 9, 59, 62
4, 30546, Note_on_c, 9, 59, 0
4, 30553, Note_on_c, 9, 53, 73
4, 30582, Note_on_c, 9, 53, 0
4, 30615, Note_on_c, 9, 59, 46
4, 30633, Note_on_c, 9, 59, 0
4, 30727, Note_on_c, 9, 59, 74
4, 30757, Note_on_c, 9, 45, 58
4, 30776, Note_on_c, 9, 45, 0
4, 30780, Note_on_c, 9, 59, 0
4, 30804, Note_on_c, 9, 59, 49
4, 30816, Note_on_c, 9, 59, 0
4, 30845, Note_on_c, 9, 43, 67
4, 30845, Note_on_c, 9, 59, 51
4, 30860, Note_on_c, 9, 43, 0
4, 30879, Note_on_c, 9, 43, 68
4, 30888, Note_on_c, 9, 59, 0
4, 30901, Note_on_c, 9, 43, 0
4, 30920, Note_on_c, 9, 59, 68
4, 30942, Note_on_c, 9, 59, 0
4, 30960, Note_on_c, 9, 41, 60
4, 30963, Note_on_c, 9, 59, 71
4, 30973, Note_on_c, 9, 41, 0
4, 30993, Note_on_c, 9, 41, 69
4, 31005, Note_on_c, 9, 59, 0
4, 31015, Note_on_c, 9, 41, 0
4, 31040, Note_on_c, 9, 53, 85
4, 31044, Note_on_c, 9, 35, 31
4, 31053, Note_on_c, 9, 35, 0
4, 31080, Note_on_c, 9, 40, 69
4, 31094, Note_on_c, 9, 40, 0
4, 31158, Note_on_c, 9, 35, 74
4, 31163, Note_on_c, 9, 51, 63
4, 31172, Note_on_c, 9, 53, 0
4, 31176, Note_on_c, 9, 35, 0
4, 31179, Note_on_c, 9, 51, 0
4, 31200, Note_on_c, 9, 40, 65
4, 31201, Note_on_c, 9, 35, 44
4, 31202, Note_on_c, 9, 51, 71
4, 31247, Note_on_c, 9, 40, 0
4, 31250, Note_on_c, 9, 35, 0
4, 31283, Note_on_c, 9, 51, 0
4, 31319, Note_on_c, 9, 51, 76
4, 31402, Note_on_c, 9, 51, 0
4, 31438, Note_on_c, 9, 51, 56
4, 31513, Note_on_c, 9, 51, 0
4, 31518, Note_on_c, 9, 35, 58
4, 31527, Note_on_c, 9, 35, 0
4, 31554, Note_on_c, 9, 51, 74
4, 31556, Note_on_c, 9, 57, 78
4, 31558, Note_on_c, 9, 40, 66
4, 31558, Note_on_c, 9, 35, 61
4, 31582, Note_on_c, 9, 57, 0
4, 31590, Note_on_c, 9, 40, 0
4, 31599, Note_on_c, 9, 35, 0
4, 31624, Note_on_c, 9, 51, 0
4, 31647, Note_on_c, 9, 51, 44
4, 31662, Note_on_c, 9, 51, 0
4, 31683, Note_on_c, 9, 51, 65
4, 31751, Note_on_c, 9, 51, 0
4, 31801, Note_on_c, 9, 51, 93
4, 31871, Note_on_c, 9, 51, 0
4, 31917, Note_on_c, 9, 40, 47
4, 31920, Note_on_c, 9, 51, 62
4, 31927, Note_on_c, 9, 40, 0
4, 31966, Note_on_c, 9, 51, 0
4, 31997, Note_on_c, 9, 40, 53
4, 32007, Note_on_c, 9, 51, 38
4, 32011, Note_on_c, 9, 40, 0
4, 32020, Note_on_c, 9, 51, 0
4, 32047, Note_on_c, 9, 51, 65
4, 32127, Note_on_c, 9, 51, 0
4, 32166, Note_on_c, 9, 51, 80
4, 32228, Note_on_c, 9, 51, 0
4, 32280, Note_on_c, 9, 51, 68
4, 32339, Note_on_c, 9, 51, 0
4, 32367, Note_on_c, 9, 51, 46
4, 32389, Note_on_c, 9, 51, 0
4, 32406, Note_on_c, 9, 51, 74
4, 32472, Note_on_c, 9, 51, 0
4, 32523, Note_on_c, 9, 51, 86
4, 32584, Note_on_c, 9, 51, 0
4, 32610, Note_on_c, 9, 51, 53
4, 32625, Note_on_c, 9, 51, 0
4, 32645, Note_on_c, 9, 51, 72
4, 32711, Note_on_c, 9, 51, 0
4, 32762, Note_on_c, 9, 51, 87
4, 32823, Note_on_c, 9, 51, 0
4, 32878, Note_on_c, 9, 40, 46
4, 32879, Note_on_c, 9, 51, 68
4, 32888, Note_on_c, 9, 40, 0
4, 32918, Note_on_c, 9, 40, 64
4, 32925, Note_on_c, 9, 51, 0
4, 32927, Note_on_c, 9, 40, 0
4, 32958, Note_on_c, 9, 35, 44
4, 32966, Note_on_c, 9, 51, 47
4, 32968, Note_on_c, 9, 35, 0
4, 32977, Note_on_c, 9, 51, 0
4, 32990, Note_on_c, 9, 40, 55
4, 32996, Note_on_c, 9, 51, 68
4, 33002, Note_on_c, 9, 40, 0
4, 33030, Note_on_c, 9, 40, 58
4, 33048, Note_on_c, 9, 40, 0
4, 33064, Note_on_c, 9, 51, 0
4, 33072, Note_on_c, 9, 35, 54
4, 33083, Note_on_c, 9, 35, 0
4, 33105, Note_on_c, 9, 40, 44
4, 33117, Note_on_c, 9, 51, 83
4, 33124, Note_on_c, 9, 40, 0
4, 33144, Note_on_c, 9, 40, 32
4, 33162, Note_on_c, 9, 40, 0
4, 33174, Note_on_c, 9, 51, 0
4, 33184, Note_on_c, 9, 40, 71
4, 33198, Note_on_c, 9, 40, 0
4, 33230, Note_on_c, 9, 35, 44
4, 33241, Note_on_c, 9, 35, 0
4, 33241, Note_on_c, 9, 51, 79
4, 33289, Note_on_c, 9, 51, 0
4, 33333, Note_on_c, 9, 51, 47
4, 33350, Note_on_c, 9, 51, 0
4, 33364, Note_on_c, 9, 51, 46
4, 33425, Note_on_c, 9, 51, 0
4, 33483, Note_on_c, 9, 51, 83
4, 33528, Note_on_c, 9, 51, 0
4, 33602, Note_on_c, 9, 51, 70
4, 33646, Note_on_c, 9, 51, 0
4, 33718, Note_on_c, 9, 51, 73
4, 33764, Note_on_c, 9, 51, 0
4, 33806, Note_on_c, 9, 51, 47
4, 33822, Note_on_c, 9, 51, 0
4, 33842, Note_on_c, 9, 51, 74
4, 33893, Note_on_c, 9, 51, 0
4, 33909, Note_on_c, 9, 40, 41
4, 33930, Note_on_c, 9, 40, 0
4, 33957, Note_on_c, 9, 40, 50
4, 33959, Note_on_c, 9, 51, 87
4, 33985, Note_on_c, 9, 40, 0
4, 34016, Note_on_c, 9, 51, 0
4, 34034, Note_on_c, 9, 35, 41
4, 34047, Note_on_c, 9, 35, 0
4, 34047, Note_on_c, 9, 51, 43
4, 34063, Note_on_c, 9, 51, 0
4, 34080, Note_on_c, 9, 51, 71
4, 34081, Note_on_c, 9, 40, 34
4, 34130, Note_on_c, 9, 40, 0
4, 34134, Note_on_c, 9, 51, 0
4, 34150, Note_on_c, 9, 40, 47
4, 34184, Note_on_c, 9, 40, 0
4, 34197, Note_on_c, 9, 51, 83
4, 34200, Note_on_c, 9, 40, 58
4, 34223, Note_on_c, 9, 40, 0
4, 34247, Note_on_c, 9, 51, 0
4, 34274, Note_on_c, 9, 35, 34
4, 34287, Note_on_c, 9, 35, 0
4, 34318, Note_on_c, 9, 51, 69
4, 34327, Note_on_c, 9, 40, 36
4, 34339, Note_on_c, 9, 40, 0
4, 34341, Note_on_c, 9, 51, 0
4, 34399, Note_on_c, 9, 40, 38
4, 34401, Note_on_c, 9, 51, 62
4, 34418, Note_on_c, 9, 40, 0
4, 34426, Note_on_c, 9, 51, 0
4, 34433, Note_on_c, 9, 53, 76
4, 34441, Note_on_c, 9, 40, 49
4, 34455, Note_on_c, 9, 40, 0
4, 34496, Note_on_c, 9, 53, 0
4, 34515, Note_on_c, 9, 35, 45
4, 34518, Note_on_c, 9, 53, 67
4, 34534, Note_on_c, 9, 35, 0
4, 34558, Note_on_c, 9, 40, 29
4, 34575, Note_on_c, 9, 40, 0
4, 34625, Note_on_c, 9, 53, 0
4, 34629, Note_on_c, 9, 40, 65
4, 34647, Note_on_c, 9, 40, 0
4, 34647, Note_on_c, 9, 51, 48
4, 34658, Note_on_c, 9, 51, 0
4, 34677, Note_on_c, 9, 40, 37
4, 34677, Note_on_c, 9, 53, 74
4, 34687, Note_on_c, 9, 40, 0
4, 34731, Note_on_c, 9, 53, 0
4, 34750, Note_on_c, 9, 40, 75
4, 34755, Note_on_c, 9, 53, 79
4, 34767, Note_on_c, 9, 40, 0
4, 34809, Note_on_c, 9, 53, 0
4, 34872, Note_on_c, 9, 53, 41
4, 34876, Note_on_c, 9, 40, 55
4, 34884, Note_on_c, 9, 53, 0
4, 34896, Note_on_c, 9, 40, 0
4, 34911, Note_on_c, 9, 59, 87
4, 34917, Note_on_c, 9, 40, 51
4, 34934, Note_on_c, 9, 40, 0
4, 34962, Note_on_c, 9, 59, 0
4, 34997, Note_on_c, 9, 35, 39
4, 35006, Note_on_c, 9, 35, 0
4, 35036, Note_on_c, 9, 40, 65
4, 35038, Note_on_c, 9, 59, 82
4, 35039, Note_on_c, 9, 35, 54
4, 35085, Note_on_c, 9, 59, 0
4, 35095, Note_on_c, 9, 35, 0
4, 35096, Note_on_c, 9, 40, 0
4, 35112, Note_on_c, 9, 59, 60
4, 35113, Note_on_c, 9, 40, 58
4, 35114, Note_on_c, 9, 35, 45
4, 35125, Note_on_c, 9, 40, 0
4, 35129, Note_on_c, 9, 35, 0
4, 35130, Note_on_c, 9, 59, 0
4, 35229, Note_on_c, 9, 59, 65
4, 35240, Note_on_c, 9, 59, 0
4, 35270, Note_on_c, 9, 59, 57
4, 35348, Note_on_c, 9, 59, 0
4, 35350, Note_on_c, 9, 35, 29
4, 35361, Note_on_c, 9, 35, 0
4, 35387, Note_on_c, 9, 40, 41
4, 35390, Note_on_c, 9, 35, 24
4, 35393, Note_on_c, 9, 59, 74
4, 35418, Note_on_c, 9, 40, 0
4, 35421, Note_on_c, 9, 35, 0
4, 35427, Note_on_c, 9, 59, 0
4, 35468, Note_on_c, 9, 59, 80
4, 35471, Note_on_c, 9, 57, 54
4, 35473, Note_on_c, 9, 40, 51
4, 35473, Note_on_c, 9, 35, 58
4, 35479, Note_on_c, 9, 57, 0
4, 35488, Note_on_c, 9, 35, 0
4, 35488, Note_on_c, 9, 40, 0
4, 35497, Note_on_c, 9, 59, 0
4, 35601, Note_on_c, 9, 59, 44
4, 35614, Note_on_c, 9, 59, 0
4, 35635, Note_on_c, 9, 59, 71
4, 35706, Note_on_c, 9, 59, 0
4, 35763, Note_on_c, 9, 59, 79
4, 35818, Note_on_c, 9, 59, 0
4, 35848, Note_on_c, 9, 59, 38
4, 35866, Note_on_c, 9, 59, 0
4, 35886, Note_on_c, 9, 59, 64
4, 35889, Note_on_c, 9, 40, 54
4, 35902, Note_on_c, 9, 40, 0
4, 35922, Note_on_c, 9, 40, 61
4, 35933, Note_on_c, 9, 59, 0
4, 35940, Note_on_c, 9, 40, 0
4, 35965, Note_on_c, 9, 35, 47
4, 35975, Note_on_c, 9, 35, 0
4, 36004, Note_on_c, 9, 40, 71
4, 36006, Note_on_c, 9, 35, 68
4, 36007, Note_on_c, 9, 59, 88
4, 36049, Note_on_c, 9, 40, 0
4, 36052, Note_on_c, 9, 35, 0
4, 36060, Note_on_c, 9, 59, 0
4, 36072, Note_on_c, 9, 40, 58
4, 36076, Note_on_c, 9, 35, 52
4, 36084, Note_on_c, 9, 59, 55
4, 36090, Note_on_c, 9, 40, 0
4, 36099, Note_on_c, 9, 59, 0
4, 36102, Note_on_c, 9, 35, 0
4, 36198, Note_on_c, 9, 59, 91
4, 36232, Note_on_c, 9, 59, 0
4, 36303, Note_on_c, 9, 34, 39
4, 36315, Note_on_c, 9, 59, 41
4, 36322, Note_on_c, 9, 34, 0
4, 36327, Note_on_c, 9, 59, 0
4, 36346, Note_on_c, 9, 40, 44
4, 36351, Note_on_c, 9, 35, 37
4, 36351, Note_on_c, 9, 59, 71
4, 36395, Note_on_c, 9, 40, 0
4, 36405, Note_on_c, 9, 35, 0
4, 36406, Note_on_c, 9, 59, 0
4, 36423, Note_on_c, 9, 40, 74
4, 36425, Note_on_c, 9, 35, 56
4, 36430, Note_on_c, 9, 59, 73
4, 36440, Note_on_c, 9, 40, 0
4, 36445, Note_on_c, 9, 35, 0
4, 36465, Note_on_c, 9, 59, 0
4, 36555, Note_on_c, 9, 59, 47
4, 36567, Note_on_c, 9, 59, 0
4, 36592, Note_on_c, 9, 59, 64
4, 36659, Note_on_c, 9, 59, 0
4, 36719, Note_on_c, 9, 59, 91
4, 36745, Note_on_c, 9, 40, 41
4, 36755, Note_on_c, 9, 40, 0
4, 36788, Note_on_c, 9, 40, 51
4, 36791, Note_on_c, 9, 59, 0
4, 36800, Note_on_c, 9, 40, 0
4, 36840, Note_on_c, 9, 59, 43
4, 36852, Note_on_c, 9, 59, 0
4, 36882, Note_on_c, 9, 40, 60
4, 36893, Note_on_c, 9, 40, 0
4, 36912, Note_on_c, 9, 40, 54
4, 36918, Note_on_c, 9, 59, 48
4, 36928, Note_on_c, 9, 59, 0
4, 36930, Note_on_c, 9, 40, 0
4, 36951, Note_on_c, 9, 59, 59
4, 36955, Note_on_c, 9, 35, 49
4, 36956, Note_on_c, 9, 40, 64
4, 37004, Note_on_c, 9, 40, 0
4, 37013, Note_on_c, 9, 35, 0
4, 37019, Note_on_c, 9, 59, 0
4, 37025, Note_on_c, 9, 40, 53
4, 37032, Note_on_c, 9, 35, 43
4, 37038, Note_on_c, 9, 40, 0
4, 37043, Note_on_c, 9, 35, 0
4, 37171, Note_on_c, 9, 59, 32
4, 37184, Note_on_c, 9, 59, 0
4, 37202, Note_on_c, 9, 59, 74
4, 37267, Note_on_c, 9, 34, 36
4, 37274, Note_on_c, 9, 59, 0
4, 37278, Note_on_c, 9, 34, 0
4, 37288, Note_on_c, 9, 59, 64
4, 37299, Note_on_c, 9, 59, 0
4, 37304, Note_on_c, 9, 40, 46
4, 37310, Note_on_c, 9, 35, 40
4, 37363, Note_on_c, 9, 35, 0
4, 37364, Note_on_c, 9, 40, 0
4, 37379, Note_on_c, 9, 40, 62
4, 37382, Note_on_c, 9, 35, 48
4, 37396, Note_on_c, 9, 40, 0
4, 37403, Note_on_c, 9, 35, 0
4, 37405, Note_on_c, 9, 59, 85
4, 37426, Note_on_c, 9, 59, 0
4, 37655, Note_on_c, 9, 59, 34
4, 37668, Note_on_c, 9, 59, 0
4, 37685, Note_on_c, 9, 59, 81
4, 37761, Note_on_c, 9, 59, 0
4, 37882, Note_on_c, 9, 35, 40
4, 37884, Note_on_c, 9, 40, 48
4, 37885, Note_on_c, 9, 59, 66
4, 37895, Note_on_c, 9, 59, 0
4, 37900, Note_on_c, 9, 35, 0
4, 37901, Note_on_c, 9, 40, 0
4, 37924, Note_on_c, 9, 40, 51
4, 37927, Note_on_c, 9, 35, 32
4, 37976, Note_on_c, 9, 35, 0
4, 37977, Note_on_c, 9, 40, 0
4, 38000, Note_on_c, 9, 40, 59
4, 38002, Note_on_c, 9, 35, 41
4, 38008, Note_on_c, 9, 40, 0
4, 38010, Note_on_c, 9, 59, 36
4, 38013, Note_on_c, 9, 35, 0
4, 38023, Note_on_c, 9, 59, 0
4, 38051, Note_on_c, 9, 59, 82
4, 38129, Note_on_c, 9, 59, 0
4, 38235, Note_on_c, 9, 34, 34
4, 38245, Note_on_c, 9, 34, 0
4, 38246, Note_on_c, 9, 59, 80
4, 38276, Note_on_c, 9, 40, 63
4, 38283, Note_on_c, 9, 40, 0
4, 38289, Note_on_c, 9, 59, 0
4, 38354, Note_on_c, 9, 29, 80
4, 38490, Note_on_c, 9, 59, 37
4, 38502, Note_on_c, 9, 59, 0
4, 38523, Note_on_c, 9, 59, 84
4, 38597, Note_on_c, 9, 59, 0
4, 38639, Note_on_c, 9, 59, 95
4, 38774, Note_on_c, 9, 59, 0
4, 38852, Note_on_c, 9, 34, 86
4, 38853, Note_on_c, 9, 32, 44
4, 38855, Note_on_c, 9, 57, 88
4, 38858, Note_on_c, 9, 31, 34
4, 38862, Note_on_c, 9, 32, 0
4, 38868, Note_on_c, 9, 31, 0
4, 38875, Note_on_c, 9, 29, 0
4, 38875, Note_on_c, 9, 51, 82
4, 38888, Note_on_c, 9, 57, 0
4, 38893, Note_on_c, 9, 34, 0
4, 38896, Note_on_c, 9, 35, 64
4, 38961, Note_on_c, 9, 51, 0
4, 38997, Note_on_c, 9, 51, 76
4, 39079, Note_on_c, 9, 51, 0
4, 39123, Note_on_c, 9, 51, 74
4, 39177, Note_on_c, 9, 35, 0
4, 39179, Note_on_c, 9, 51, 0
4, 39194, Note_on_c, 9, 34, 71
4, 39214, Note_on_c, 9, 34, 0
4, 39229, Note_on_c, 9, 35, 84
4, 39230, Note_on_c, 9, 57, 99
4, 39238, Note_on_c, 9, 51, 74
4, 39281, Note_on_c, 9, 51, 0
4, 39297, Note_on_c, 9, 57, 0
4, 39322, Note_on_c, 9, 35, 0
4, 39329, Note_on_c, 9, 51, 57
4, 39344, Note_on_c, 9, 51, 0
4, 39363, Note_on_c, 9, 51, 76
4, 39426, Note_on_c, 9, 51, 0
4, 39478, Note_on_c, 9, 51, 84
4, 39534, Note_on_c, 9, 51, 0
4, 39576, Note_on_c, 9, 51, 44
4, 39587, Note_on_c, 9, 51, 0
4, 39603, Note_on_c, 9, 51, 74
4, 39642, Note_on_c, 9, 40, 41
4, 39651, Note_on_c, 9, 40, 0
4, 39657, Note_on_c, 9, 51, 0
4, 39685, Note_on_c, 9, 40, 62
4, 39696, Note_on_c, 9, 40, 0
4, 39719, Note_on_c, 9, 51, 84
4, 39724, Note_on_c, 9, 40, 57
4, 39766, Note_on_c, 9, 40, 0
4, 39767, Note_on_c, 9, 51, 0
4, 39798, Note_on_c, 9, 40, 60
4, 39809, Note_on_c, 9, 51, 52
4, 39819, Note_on_c, 9, 51, 0
4, 39821, Note_on_c, 9, 40, 0
4, 39837, Note_on_c, 9, 51, 61
4, 39885, Note_on_c, 9, 51, 0
4, 39959, Note_on_c, 9, 51, 85
4, 40005, Note_on_c, 9, 51, 0
4, 40033, Note_on_c, 9, 35, 49
4, 40042, Note_on_c, 9, 35, 0
4, 40085, Note_on_c, 9, 51, 79
4, 40118, Note_on_c, 9, 51, 0
4, 40207, Note_on_c, 9, 51, 82
4, 40240, Note_on_c, 9, 51, 0
4, 40326, Note_on_c, 9, 51, 79
4, 40358, Note_on_c, 9, 51, 0
4, 40411, Note_on_c, 9, 51, 54
4, 40423, Note_on_c, 9, 51, 0
4, 40443, Note_on_c, 9, 51, 71
4, 40505, Note_on_c, 9, 51, 0
4, 40566, Note_on_c, 9, 51, 83
4, 40614, Note_on_c, 9, 51, 0
4, 40684, Note_on_c, 9, 51, 82
4, 40722, Note_on_c, 9, 51, 0
4, 40762, Note_on_c, 9, 35, 44
4, 40772, Note_on_c, 9, 51, 49
4, 40782, Note_on_c, 9, 35, 0
4, 40783, Note_on_c, 9, 51, 0
4, 40801, Note_on_c, 9, 35, 47
4, 40801, Note_on_c, 9, 51, 67
4, 40845, Note_on_c, 9, 51, 0
4, 40852, Note_on_c, 9, 35, 0
4, 40872, Note_on_c, 9, 35, 35
4, 40888, Note_on_c, 9, 35, 0
4, 40920, Note_on_c, 9, 51, 83
4, 40952, Note_on_c, 9, 51, 0
4, 41043, Note_on_c, 9, 51, 78
4, 41087, Note_on_c, 9, 51, 0
4, 41166, Note_on_c, 9, 51, 79
4, 41200, Note_on_c, 9, 51, 0
4, 41230, Note_on_c, 9, 29, 42
4, 41253, Note_on_c, 9, 51, 49
4, 41265, Note_on_c, 9, 51, 0
4, 41285, Note_on_c, 9, 51, 67
4, 41289, Note_on_c, 9, 35, 41
4, 41301, Note_on_c, 9, 29, 0
4, 41305, Note_on_c, 9, 35, 0
4, 41329, Note_on_c, 9, 51, 0
4, 41401, Note_on_c, 9, 51, 84
4, 41412, Note_on_c, 9, 29, 44
4, 41439, Note_on_c, 9, 51, 0
4, 41489, Note_on_c, 9, 51, 67
4, 41492, Note_on_c, 9, 29, 0
4, 41495, Note_on_c, 9, 35, 18
4, 41505, Note_on_c, 9, 51, 0
4, 41519, Note_on_c, 9, 35, 0
4, 41523, Note_on_c, 9, 51, 71
4, 41567, Note_on_c, 9, 51, 0
4, 41597, Note_on_c, 9, 29, 60
4, 41643, Note_on_c, 9, 51, 90
4, 41646, Note_on_c, 9, 35, 36
4, 41676, Note_on_c, 9, 29, 0
4, 41681, Note_on_c, 9, 51, 0
4, 41690, Note_on_c, 9, 35, 0
4, 41723, Note_on_c, 9, 35, 46
4, 41725, Note_on_c, 9, 51, 58
4, 41726, Note_on_c, 9, 40, 46
4, 41734, Note_on_c, 9, 40, 0
4, 41736, Note_on_c, 9, 35, 0
4, 41740, Note_on_c, 9, 51, 0
4, 41760, Note_on_c, 9, 51, 71
4, 41795, Note_on_c, 9, 51, 0
4, 41876, Note_on_c, 9, 51, 82
4, 41915, Note_on_c, 9, 51, 0
4, 42002, Note_on_c, 9, 51, 78
4, 42038, Note_on_c, 9, 51, 0
4, 42043, Note_on_c, 9, 40, 50
4, 42056, Note_on_c, 9, 40, 0
4, 42084, Note_on_c, 9, 40, 62
4, 42091, Note_on_c, 9, 40, 0
4, 42122, Note_on_c, 9, 51, 81
4, 42128, Note_on_c, 9, 40, 68
4, 42143, Note_on_c, 9, 40, 0
4, 42155, Note_on_c, 9, 51, 0
4, 42198, Note_on_c, 9, 35, 57
4, 42208, Note_on_c, 9, 35, 0
4, 42244, Note_on_c, 9, 51, 80
4, 42285, Note_on_c, 9, 51, 0
4, 42330, Note_on_c, 9, 51, 48
4, 42340, Note_on_c, 9, 51, 0
4, 42361, Note_on_c, 9, 51, 56
4, 42406, Note_on_c, 9, 51, 0
4, 42480, Note_on_c, 9, 51, 82
4, 42522, Note_on_c, 9, 51, 0
4, 42559, Note_on_c, 9, 40, 40
4, 42572, Note_on_c, 9, 40, 0
4, 42596, Note_on_c, 9, 51, 81
4, 42627, Note_on_c, 9, 51, 0
4, 42681, Note_on_c, 9, 35, 30
4, 42687, Note_on_c, 9, 51, 44
4, 42692, Note_on_c, 9, 35, 0
4, 42699, Note_on_c, 9, 51, 0
4, 42722, Note_on_c, 9, 51, 67
4, 42764, Note_on_c, 9, 51, 0
4, 42841, Note_on_c, 9, 40, 33
4, 42843, Note_on_c, 9, 51, 86
4, 42852, Note_on_c, 9, 40, 0
4, 42896, Note_on_c, 9, 51, 0
4, 42918, Note_on_c, 9, 40, 63
4, 42938, Note_on_c, 9, 40, 0
4, 42958, Note_on_c, 9, 40, 47
4, 42963, Note_on_c, 9, 51, 49
4, 42975, Note_on_c, 9, 51, 0
4, 42979, Note_on_c, 9, 40, 0
4, 43039, Note_on_c, 9, 35, 17
4, 43046, Note_on_c, 9, 51, 43
4, 43054, Note_on_c, 9, 35, 0
4, 43057, Note_on_c, 9, 51, 0
4, 43080, Note_on_c, 9, 51, 76
4, 43081, Note_on_c, 9, 35, 41
4, 43106, Note_on_c, 9, 35, 0
4, 43157, Note_on_c, 9, 51, 0
4, 43157, Note_on_c, 9, 35, 57
4, 43183, Note_on_c, 9, 35, 0
4, 43201, Note_on_c, 9, 51, 54
4, 43212, Note_on_c, 9, 51, 0
4, 43287, Note_on_c, 9, 51, 64
4, 43305, Note_on_c, 9, 51, 0
4, 43324, Note_on_c, 9, 51, 81
4, 43407, Note_on_c, 9, 51, 0
4, 43448, Note_on_c, 9, 51, 47
4, 43461, Note_on_c, 9, 51, 0
4, 43530, Note_on_c, 9, 51, 47
4, 43539, Note_on_c, 9, 51, 0
4, 43565, Note_on_c, 9, 51, 67
4, 43605, Note_on_c, 9, 51, 0
4, 43646, Note_on_c, 9, 51, 90
4, 43701, Note_on_c, 9, 51, 0
4, 43769, Note_on_c, 9, 51, 31
4, 43780, Note_on_c, 9, 51, 0
4, 43808, Note_on_c, 9, 51, 71
4, 43892, Note_on_c, 9, 51, 0
4, 43917, Note_on_c, 9, 40, 48
4, 43926, Note_on_c, 9, 40, 0
4, 43928, Note_on_c, 9, 51, 27
4, 43939, Note_on_c, 9, 51, 0
4, 43994, Note_on_c, 9, 51, 77
4, 44049, Note_on_c, 9, 51, 0
4, 44121, Note_on_c, 9, 51, 81
4, 44151, Note_on_c, 9, 40, 41
4, 44160, Note_on_c, 9, 40, 0
4, 44180, Note_on_c, 9, 51, 0
4, 44192, Note_on_c, 9, 34, 60
4, 44237, Note_on_c, 9, 34, 0
4, 44243, Note_on_c, 9, 51, 67
4, 44266, Note_on_c, 9, 51, 0
4, 44272, Note_on_c, 9, 34, 77
4, 44282, Note_on_c, 9, 51, 77
4, 44318, Note_on_c, 9, 34, 0
4, 44338, Note_on_c, 9, 51, 0
4, 44361, Note_on_c, 9, 51, 57
4, 44380, Note_on_c, 9, 51, 0
4, 44398, Note_on_c, 9, 51, 79
4, 44458, Note_on_c, 9, 51, 0
4, 44518, Note_on_c, 9, 51, 88
4, 44524, Note_on_c, 9, 40, 30
4, 44533, Note_on_c, 9, 40, 0
4, 44560, Note_on_c, 9, 40, 62
4, 44568, Note_on_c, 9, 40, 0
4, 44577, Note_on_c, 9, 51, 0
4, 44600, Note_on_c, 9, 35, 63
4, 44617, Note_on_c, 9, 51, 33
4, 44621, Note_on_c, 9, 35, 0
4, 44627, Note_on_c, 9, 51, 0
4, 44643, Note_on_c, 9, 51, 76
4, 44692, Note_on_c, 9, 51, 0
4, 44761, Note_on_c, 9, 51, 86
4, 44818, Note_on_c, 9, 51, 0
4, 44858, Note_on_c, 9, 51, 42
4, 44868, Note_on_c, 9, 51, 0
4, 44885, Note_on_c, 9, 51, 75
4, 44924, Note_on_c, 9, 40, 53
4, 44933, Note_on_c, 9, 51, 0
4, 44937, Note_on_c, 9, 40, 0
4, 44962, Note_on_c, 9, 40, 60
4, 44986, Note_on_c, 9, 40, 0
4, 45002, Note_on_c, 9, 51, 83
4, 45003, Note_on_c, 9, 57, 61
4, 45005, Note_on_c, 9, 35, 54
4, 45020, Note_on_c, 9, 57, 0
4, 45034, Note_on_c, 9, 35, 0
4, 45058, Note_on_c, 9, 51, 0
4, 45096, Note_on_c, 9, 51, 44
4, 45107, Note_on_c, 9, 51, 0
4, 45124, Note_on_c, 9, 51, 70
4, 45168, Note_on_c, 9, 51, 0
4, 45239, Note_on_c, 9, 51, 84
4, 45286, Note_on_c, 9, 51, 0
4, 45361, Note_on_c, 9, 51, 79
4, 45409, Note_on_c, 9, 51, 0
4, 45479, Note_on_c, 9, 51, 81
4, 45525, Note_on_c, 9, 51, 0
4, 45563, Note_on_c, 9, 40, 49
4, 45566, Note_on_c, 9, 51, 55
4, 45572, Note_on_c, 9, 40, 0
4, 45576, Note_on_c, 9, 51, 0
4, 45594, Note_on_c, 9, 51, 74
4, 45605, Note_on_c, 9, 40, 42
4, 45614, Note_on_c, 9, 40, 0
4, 45641, Note_on_c, 9, 51, 0
4, 45682, Note_on_c, 9, 35, 39
4, 45693, Note_on_c, 9, 35, 0
4, 45716, Note_on_c, 9, 51, 86
4, 45727, Note_on_c, 9, 40, 26
4, 45763, Note_on_c, 9, 51, 0
4, 45764, Note_on_c, 9, 40, 0
4, 45810, Note_on_c, 9, 51, 52
4, 45823, Note_on_c, 9, 51, 0
4, 45840, Note_on_c, 9, 40, 32
4, 45841, Note_on_c, 9, 51, 69
4, 45853, Note_on_c, 9, 40, 0
4, 45881, Note_on_c, 9, 51, 0
4, 45955, Note_on_c, 9, 40, 29
4, 45956, Note_on_c, 9, 51, 77
4, 45992, Note_on_c, 9, 51, 0
4, 46013, Note_on_c, 9, 40, 0
4, 46077, Note_on_c, 9, 51, 77
4, 46111, Note_on_c, 9, 51, 0
4, 46168, Note_on_c, 9, 40, 36
4, 46178, Note_on_c, 9, 40, 0
4, 46197, Note_on_c, 9, 51, 75
4, 46206, Note_on_c, 9, 40, 79
4, 46232, Note_on_c, 9, 51, 0
4, 46270, Note_on_c, 9, 40, 0
4, 46283, Note_on_c, 9, 51, 56
4, 46293, Note_on_c, 9, 51, 0
4, 46316, Note_on_c, 9, 51, 64
4, 46324, Note_on_c, 9, 40, 105
4, 46351, Note_on_c, 9, 51, 0
4, 46365, Note_on_c, 9, 40, 0
4, 46404, Note_on_c, 9, 40, 64
4, 46416, Note_on_c, 9, 40, 0
4, 46438, Note_on_c, 9, 51, 81
4, 46449, Note_on_c, 9, 34, 65
4, 46467, Note_on_c, 9, 34, 0
4, 46467, Note_on_c, 9, 51, 0
4, 46524, Note_on_c, 9, 57, 101
4, 46526, Note_on_c, 9, 35, 80
4, 46542, Note_on_c, 9, 57, 0
4, 46558, Note_on_c, 9, 51, 81
4, 46562, Note_on_c, 9, 35, 0
4, 46590, Note_on_c, 9, 51, 0
4, 46679, Note_on_c, 9, 51, 81
4, 46696, Note_on_c, 9, 40, 43
4, 46709, Note_on_c, 9, 40, 0
4, 46710, Note_on_c, 9, 51, 0
4, 46761, Note_on_c, 9, 40, 75
4, 46785, Note_on_c, 9, 40, 0
4, 46801, Note_on_c, 9, 51, 69
4, 46830, Note_on_c, 9, 51, 0
4, 46913, Note_on_c, 9, 51, 82
4, 46946, Note_on_c, 9, 51, 0
4, 46992, Note_on_c, 9, 35, 37
4, 47000, Note_on_c, 9, 51, 55
4, 47003, Note_on_c, 9, 35, 0
4, 47016, Note_on_c, 9, 51, 0
4, 47035, Note_on_c, 9, 51, 73
4, 47083, Note_on_c, 9, 51, 0
4, 47160, Note_on_c, 9, 51, 80
4, 47206, Note_on_c, 9, 51, 0
4, 47250, Note_on_c, 9, 51, 56
4, 47252, Note_on_c, 9, 40, 26
4, 47262, Note_on_c, 9, 40, 0
4, 47262, Note_on_c, 9, 51, 0
4, 47283, Note_on_c, 9, 51, 70
4, 47323, Note_on_c, 9, 51, 0
4, 47352, Note_on_c, 9, 40, 35
4, 47367, Note_on_c, 9, 40, 0
4, 47404, Note_on_c, 9, 40, 22
4, 47404, Note_on_c, 9, 51, 83
4, 47413, Note_on_c, 9, 40, 0
4, 47445, Note_on_c, 9, 51, 0
4, 47529, Note_on_c, 9, 51, 81
4, 47567, Note_on_c, 9, 51, 0
4, 47644, Note_on_c, 9, 51, 78
4, 47683, Note_on_c, 9, 51, 0
4, 47687, Note_on_c, 9, 40, 33
4, 47698, Note_on_c, 9, 40, 0
4, 47733, Note_on_c, 9, 51, 47
4, 47746, Note_on_c, 9, 51, 0
4, 47763, Note_on_c, 9, 51, 76
4, 47805, Note_on_c, 9, 51, 0
4, 47878, Note_on_c, 9, 40, 39
4, 47878, Note_on_c, 9, 51, 83
4, 47889, Note_on_c, 9, 40, 0
4, 47909, Note_on_c, 9, 51, 0
4, 47915, Note_on_c, 9, 40, 36
4, 47931, Note_on_c, 9, 40, 0
4, 47967, Note_on_c, 9, 51, 51
4, 47979, Note_on_c, 9, 51, 0
4, 47999, Note_on_c, 9, 51, 67
4, 48041, Note_on_c, 9, 51, 0
4, 48059, Note_on_c, 9, 40, 42
4, 48069, Note_on_c, 9, 40, 0
4, 48096, Note_on_c, 9, 40, 44
4, 48106, Note_on_c, 9, 40, 0
4, 48118, Note_on_c, 9, 51, 83
4, 48134, Note_on_c, 9, 35, 43
4, 48144, Note_on_c, 9, 35, 0
4, 48153, Note_on_c, 9, 51, 0
4, 48209, Note_on_c, 9, 51, 59
4, 48228, Note_on_c, 9, 51, 0
4, 48230, Note_on_c, 9, 40, 44
4, 48241, Note_on_c, 9, 51, 63
4, 48242, Note_on_c, 9, 40, 0
4, 48278, Note_on_c, 9, 40, 54
4, 48284, Note_on_c, 9, 51, 0
4, 48292, Note_on_c, 9, 40, 0
4, 48359, Note_on_c, 9, 51, 83
4, 48394, Note_on_c, 9, 40, 35
4, 48405, Note_on_c, 9, 40, 0
4, 48406, Note_on_c, 9, 51, 0
4, 48426, Note_on_c, 9, 40, 51
4, 48445, Note_on_c, 9, 40, 0
4, 48472, Note_on_c, 9, 35, 29
4, 48483, Note_on_c, 9, 51, 84
4, 48488, Note_on_c, 9, 35, 0
4, 48519, Note_on_c, 9, 51, 0
4, 48587, Note_on_c, 9, 40, 44
4, 48603, Note_on_c, 9, 51, 83
4, 48604, Note_on_c, 9, 40, 0
4, 48625, Note_on_c, 9, 40, 47
4, 48646, Note_on_c, 9, 40, 0
4, 48650, Note_on_c, 9, 51, 0
4, 48678, Note_on_c, 9, 35, 33
4, 48692, Note_on_c, 9, 35, 0
4, 48693, Note_on_c, 9, 51, 50
4, 48707, Note_on_c, 9, 51, 0
4, 48726, Note_on_c, 9, 51, 73
4, 48746, Note_on_c, 9, 40, 53
4, 48755, Note_on_c, 9, 40, 0
4, 48770, Note_on_c, 9, 51, 0
4, 48778, Note_on_c, 9, 40, 47
4, 48796, Note_on_c, 9, 40, 0
4, 48848, Note_on_c, 9, 51, 84
4, 48885, Note_on_c, 9, 51, 0
4, 48933, Note_on_c, 9, 51, 42
4, 48944, Note_on_c, 9, 51, 0
4, 48965, Note_on_c, 9, 51, 65
4, 49008, Note_on_c, 9, 51, 0
4, 49031, Note_on_c, 9, 40, 45
4, 49040, Note_on_c, 9, 40, 0
4, 49085, Note_on_c, 9, 51, 86
4, 49123, Note_on_c, 9, 40, 48
4, 49125, Note_on_c, 9, 51, 0
4, 49135, Note_on_c, 9, 40, 0
4, 49204, Note_on_c, 9, 51, 83
4, 49212, Note_on_c, 9, 40, 56
4, 49222, Note_on_c, 9, 40, 0
4, 49251, Note_on_c, 9, 51, 0
4, 49292, Note_on_c, 9, 40, 58
4, 49294, Note_on_c, 9, 51, 30
4, 49299, Note_on_c, 9, 40, 0
4, 49305, Note_on_c, 9, 51, 0
4, 49320, Note_on_c, 9, 51, 65
4, 49350, Note_on_c, 9, 51, 0
4, 49369, Note_on_c, 9, 40, 56
4, 49378, Note_on_c, 9, 40, 0
4, 49401, Note_on_c, 9, 53, 82
4, 49406, Note_on_c, 9, 35, 49
4, 49416, Note_on_c, 9, 35, 0
4, 49447, Note_on_c, 9, 40, 55
4, 49489, Note_on_c, 9, 40, 0
4, 49493, Note_on_c, 9, 53, 0
4, 49519, Note_on_c, 9, 51, 71
4, 49526, Note_on_c, 9, 40, 65
4, 49539, Note_on_c, 9, 40, 0
4, 49540, Note_on_c, 9, 51, 0
4, 49561, Note_on_c, 9, 51, 68
4, 49600, Note_on_c, 9, 51, 0
4, 49603, Note_on_c, 9, 40, 64
4, 49614, Note_on_c, 9, 40, 0
4, 49637, Note_on_c, 9, 35, 49
4, 49641, Note_on_c, 9, 51, 84
4, 49649, Note_on_c, 9, 35, 0
4, 49680, Note_on_c, 9, 40, 60
4, 49707, Note_on_c, 9, 51, 0
4, 49728, Note_on_c, 9, 40, 0
4, 49755, Note_on_c, 9, 51, 46
4, 49763, Note_on_c, 9, 40, 63
4, 49770, Note_on_c, 9, 51, 0
4, 49778, Note_on_c, 9, 40, 0
4, 49797, Note_on_c, 9, 53, 84
4, 49845, Note_on_c, 9, 40, 62
4, 49867, Note_on_c, 9, 40, 0
4, 49877, Note_on_c, 9, 53, 0
4, 49889, Note_on_c, 9, 35, 60
4, 49900, Note_on_c, 9, 35, 0
4, 49908, Note_on_c, 9, 51, 49
4, 49925, Note_on_c, 9, 40, 57
4, 49930, Note_on_c, 9, 51, 0
4, 49953, Note_on_c, 9, 40, 0
4, 49992, Note_on_c, 9, 53, 82
4, 49995, Note_on_c, 9, 40, 69
4, 50014, Note_on_c, 9, 40, 0
4, 50052, Note_on_c, 9, 53, 0
4, 50082, Note_on_c, 9, 40, 68
4, 50099, Note_on_c, 9, 40, 0
4, 50110, Note_on_c, 9, 51, 48
4, 50120, Note_on_c, 9, 35, 53
4, 50123, Note_on_c, 9, 51, 0
4, 50140, Note_on_c, 9, 35, 0
4, 50156, Note_on_c, 9, 40, 54
4, 50162, Note_on_c, 9, 53, 88
4, 50185, Note_on_c, 9, 40, 0
4, 50231, Note_on_c, 9, 34, 60
4, 50232, Note_on_c, 9, 53, 0
4, 50247, Note_on_c, 9, 34, 0
4, 50271, Note_on_c, 9, 40, 55
4, 50273, Note_on_c, 9, 51, 36
4, 50279, Note_on_c, 9, 57, 39
4, 50288, Note_on_c, 9, 57, 0
4, 50289, Note_on_c, 9, 40, 0
4, 50308, Note_on_c, 9, 51, 0
4, 50343, Note_on_c, 9, 51, 80
4, 50351, Note_on_c, 9, 34, 64
4, 50351, Note_on_c, 9, 54, 57
4, 50355, Note_on_c, 9, 40, 48
4, 50360, Note_on_c, 9, 54, 0
4, 50364, Note_on_c, 9, 40, 0
4, 50372, Note_on_c, 9, 34, 0
4, 50380, Note_on_c, 9, 51, 0
4, 50394, Note_on_c, 9, 57, 80
4, 50395, Note_on_c, 9, 40, 68
4, 50396, Note_on_c, 9, 35, 72
4, 50397, Note_on_c, 9, 51, 60
4, 50458, Note_on_c, 9, 57, 0
4, 50471, Note_on_c, 9, 51, 0
4, 50512, Note_on_c, 9, 51, 67
4, 50549, Note_on_c, 9, 35, 0
4, 50558, Note_on_c, 9, 51, 0
4, 50572, Note_on_c, 9, 40, 0
4, 50634, Note_on_c, 9, 51, 79
4, 50675, Note_on_c, 9, 40, 42
4, 50684, Note_on_c, 9, 40, 0
4, 50695, Note_on_c, 9, 51, 0
4, 50728, Note_on_c, 9, 51, 38
4, 50742, Note_on_c, 9, 51, 0
4, 50756, Note_on_c, 9, 40, 51
4, 50760, Note_on_c, 9, 51, 75
4, 50805, Note_on_c, 9, 40, 0
4, 50838, Note_on_c, 9, 40, 61
4, 50839, Note_on_c, 9, 51, 0
4, 50845, Note_on_c, 9, 40, 0
4, 50883, Note_on_c, 9, 51, 80
4, 50942, Note_on_c, 9, 51, 0
4, 51003, Note_on_c, 9, 51, 77
4, 51062, Note_on_c, 9, 51, 0
4, 51092, Note_on_c, 9, 51, 46
4, 51108, Note_on_c, 9, 51, 0
4, 51123, Note_on_c, 9, 51, 69
4, 51186, Note_on_c, 9, 51, 0
4, 51198, Note_on_c, 9, 35, 37
4, 51209, Note_on_c, 9, 35, 0
4, 51241, Note_on_c, 9, 51, 92
4, 51243, Note_on_c, 9, 35, 22
4, 51290, Note_on_c, 9, 35, 0
4, 51300, Note_on_c, 9, 51, 0
4, 51318, Note_on_c, 9, 35, 49
4, 51329, Note_on_c, 9, 35, 0
4, 51336, Note_on_c, 9, 51, 39
4, 51346, Note_on_c, 9, 51, 0
4, 51363, Note_on_c, 9, 51, 64
4, 51425, Note_on_c, 9, 51, 0
4, 51483, Note_on_c, 9, 51, 90
4, 51557, Note_on_c, 9, 51, 0
4, 51605, Note_on_c, 9, 51, 79
4, 51660, Note_on_c, 9, 51, 0
4, 51695, Note_on_c, 9, 51, 53
4, 51712, Note_on_c, 9, 51, 0
4, 51729, Note_on_c, 9, 51, 79
4, 51794, Note_on_c, 9, 51, 0
4, 51842, Note_on_c, 9, 40, 61
4, 51843, Note_on_c, 9, 51, 82
4, 51850, Note_on_c, 9, 40, 0
4, 51869, Note_on_c, 9, 40, 57
4, 51877, Note_on_c, 9, 40, 0
4, 51890, Note_on_c, 9, 51, 0
4, 51959, Note_on_c, 9, 51, 81
4, 52002, Note_on_c, 9, 51, 0
4, 52054, Note_on_c, 9, 51, 59
4, 52070, Note_on_c, 9, 51, 0
4, 52080, Note_on_c, 9, 40, 55
4, 52084, Note_on_c, 9, 51, 56
4, 52088, Note_on_c, 9, 40, 0
4, 52104, Note_on_c, 9, 40, 55
4, 52114, Note_on_c, 9, 40, 0
4, 52130, Note_on_c, 9, 51, 0
4, 52196, Note_on_c, 9, 51, 83
4, 52199, Note_on_c, 9, 40, 57
4, 52207, Note_on_c, 9, 40, 0
4, 52235, Note_on_c, 9, 51, 0
4, 52277, Note_on_c, 9, 35, 65
4, 52287, Note_on_c, 9, 35, 0
4, 52321, Note_on_c, 9, 51, 81
4, 52356, Note_on_c, 9, 51, 0
4, 52437, Note_on_c, 9, 51, 78
4, 52474, Note_on_c, 9, 51, 0
4, 52530, Note_on_c, 9, 51, 52
4, 52543, Note_on_c, 9, 51, 0
4, 52562, Note_on_c, 9, 51, 70
4, 52608, Note_on_c, 9, 51, 0
4, 52683, Note_on_c, 9, 51, 84
4, 52713, Note_on_c, 9, 51, 0
4, 52768, Note_on_c, 9, 51, 56
4, 52780, Note_on_c, 9, 51, 0
4, 52801, Note_on_c, 9, 51, 64
4, 52842, Note_on_c, 9, 51, 0
4, 52912, Note_on_c, 9, 40, 64
4, 52920, Note_on_c, 9, 51, 82
4, 52921, Note_on_c, 9, 40, 0
4, 52971, Note_on_c, 9, 51, 0
4, 53003, Note_on_c, 9, 35, 22
4, 53010, Note_on_c, 9, 35, 0
4, 53040, Note_on_c, 9, 40, 57
4, 53047, Note_on_c, 9, 51, 78
4, 53050, Note_on_c, 9, 40, 0
4, 53094, Note_on_c, 9, 51, 0
4, 53117, Note_on_c, 9, 35, 58
4, 53134, Note_on_c, 9, 35, 0
4, 53165, Note_on_c, 9, 51, 74
4, 53192, Note_on_c, 9, 51, 0
4, 53249, Note_on_c, 9, 51, 53
4, 53262, Note_on_c, 9, 51, 0
4, 53280, Note_on_c, 9, 40, 44
4, 53284, Note_on_c, 9, 51, 69
4, 53329, Note_on_c, 9, 40, 0
4, 53333, Note_on_c, 9, 51, 0
4, 53361, Note_on_c, 9, 35, 44
4, 53370, Note_on_c, 9, 35, 0
4, 53398, Note_on_c, 9, 40, 57
4, 53404, Note_on_c, 9, 51, 84
4, 53437, Note_on_c, 9, 51, 0
4, 53461, Note_on_c, 9, 40, 0
4, 53481, Note_on_c, 9, 40, 38
4, 53491, Note_on_c, 9, 40, 0
4, 53526, Note_on_c, 9, 51, 77
4, 53553, Note_on_c, 9, 51, 0
4, 53642, Note_on_c, 9, 51, 83
4, 53670, Note_on_c, 9, 51, 0
4, 53732, Note_on_c, 9, 51, 56
4, 53742, Note_on_c, 9, 51, 0
4, 53763, Note_on_c, 9, 51, 60
4, 53796, Note_on_c, 9, 51, 0
4, 53883, Note_on_c, 9, 51, 83
4, 53917, Note_on_c, 9, 51, 0
4, 53972, Note_on_c, 9, 51, 59
4, 53982, Note_on_c, 9, 51, 0
4, 54005, Note_on_c, 9, 51, 68
4, 54041, Note_on_c, 9, 51, 0
4, 54082, Note_on_c, 9, 29, 66
4, 54100, Note_on_c, 9, 29, 0
4, 54129, Note_on_c, 9, 51, 83
4, 54133, Note_on_c, 9, 34, 46
4, 54140, Note_on_c, 9, 34, 0
4, 54158, Note_on_c, 9, 51, 0
4, 54208, Note_on_c, 9, 34, 64
4, 54215, Note_on_c, 9, 51, 60
4, 54224, Note_on_c, 9, 34, 0
4, 54226, Note_on_c, 9, 51, 0
4, 54248, Note_on_c, 9, 40, 51
4, 54251, Note_on_c, 9, 51, 64
4, 54254, Note_on_c, 9, 35, 48
4, 54289, Note_on_c, 9, 51, 0
4, 54305, Note_on_c, 9, 35, 0
4, 54305, Note_on_c, 9, 40, 0
4, 54330, Note_on_c, 9, 35, 34
4, 54342, Note_on_c, 9, 35, 0
4, 54370, Note_on_c, 9, 51, 86
4, 54404, Note_on_c, 9, 51, 0
4, 54458, Note_on_c, 9, 51, 56
4, 54468, Note_on_c, 9, 51, 0
4, 54494, Note_on_c, 9, 51, 59
4, 54526, Note_on_c, 9, 51, 0
4, 54535, Note_on_c, 9, 40, 57
4, 54543, Note_on_c, 9, 40, 0
4, 54577, Note_on_c, 9, 40, 40
4, 54587, Note_on_c, 9, 40, 0
4, 54611, Note_on_c, 9, 51, 85
4, 54617, Note_on_c, 9, 40, 67
4, 54629, Note_on_c, 9, 40, 0
4, 54639, Note_on_c, 9, 51, 0
4, 54691, Note_on_c, 9, 40, 72
4, 54698, Note_on_c, 9, 51, 49
4, 54708, Note_on_c, 9, 51, 0
4, 54710, Note_on_c, 9, 40, 0
4, 54729, Note_on_c, 9, 51, 53
4, 54760, Note_on_c, 9, 51, 0
4, 54842, Note_on_c, 9, 51, 90
4, 54867, Note_on_c, 9, 51, 0
4, 54917, Note_on_c, 9, 35, 57
4, 54928, Note_on_c, 9, 35, 0
4, 54961, Note_on_c, 9, 35, 45
4, 54962, Note_on_c, 9, 51, 69
4, 54974, Note_on_c, 9, 51, 0
4, 55017, Note_on_c, 9, 35, 0
4, 55035, Note_on_c, 9, 35, 52
4, 55049, Note_on_c, 9, 51, 52
4, 55060, Note_on_c, 9, 51, 0
4, 55065, Note_on_c, 9, 35, 0
4, 55085, Note_on_c, 9, 51, 62
4, 55107, Note_on_c, 9, 51, 0
4, 55199, Note_on_c, 9, 51, 81
4, 55220, Note_on_c, 9, 51, 0
4, 55316, Note_on_c, 9, 51, 82
4, 55353, Note_on_c, 9, 51, 0
4, 55438, Note_on_c, 9, 51, 69
4, 55468, Note_on_c, 9, 51, 0
4, 55552, Note_on_c, 9, 40, 65
4, 55552, Note_on_c, 9, 35, 46
4, 55555, Note_on_c, 9, 51, 83
4, 55605, Note_on_c, 9, 51, 0
4, 55605, Note_on_c, 9, 40, 0
4, 55616, Note_on_c, 9, 35, 0
4, 55676, Note_on_c, 9, 51, 50
4, 55682, Note_on_c, 9, 40, 71
4, 55684, Note_on_c, 9, 35, 26
4, 55689, Note_on_c, 9, 51, 0
4, 55737, Note_on_c, 9, 35, 0
4, 55743, Note_on_c, 9, 40, 0
4, 55749, Note_on_c, 9, 51, 76
4, 55755, Note_on_c, 9, 40, 54
4, 55757, Note_on_c, 9, 35, 41
4, 55765, Note_on_c, 9, 40, 0
4, 55778, Note_on_c, 9, 35, 0
4, 55780, Note_on_c, 9, 51, 0
4, 55874, Note_on_c, 9, 51, 64
4, 55898, Note_on_c, 9, 51, 0
4, 55921, Note_on_c, 9, 51, 76
4, 55985, Note_on_c, 9, 51, 0
4, 56037, Note_on_c, 9, 51, 57
4, 56060, Note_on_c, 9, 51, 0
4, 56112, Note_on_c, 9, 51, 87
4, 56115, Note_on_c, 9, 40, 59
4, 56125, Note_on_c, 9, 40, 0
4, 56159, Note_on_c, 9, 51, 0
4, 56161, Note_on_c, 9, 35, 44
4, 56205, Note_on_c, 9, 35, 0
4, 56234, Note_on_c, 9, 35, 42
4, 56234, Note_on_c, 9, 51, 40
4, 56247, Note_on_c, 9, 35, 0
4, 56248, Note_on_c, 9, 51, 0
4, 56277, Note_on_c, 9, 51, 75
4, 56283, Note_on_c, 9, 53, 66
4, 56345, Note_on_c, 9, 51, 0
4, 56351, Note_on_c, 9, 53, 0
4, 56395, Note_on_c, 9, 51, 49
4, 56419, Note_on_c, 9, 51, 0
4, 56479, Note_on_c, 9, 51, 83
4, 56484, Note_on_c, 9, 53, 62
4, 56555, Note_on_c, 9, 51, 0
4, 56564, Note_on_c, 9, 53, 0
4, 56600, Note_on_c, 9, 51, 62
4, 56624, Note_on_c, 9, 51, 0
4, 56647, Note_on_c, 9, 51, 69
4, 56711, Note_on_c, 9, 51, 0
4, 56715, Note_on_c, 9, 40, 48
4, 56723, Note_on_c, 9, 40, 0
4, 56763, Note_on_c, 9, 51, 77
4, 56806, Note_on_c, 9, 51, 0
4, 56842, Note_on_c, 9, 40, 37
4, 56850, Note_on_c, 9, 51, 56
4, 56852, Note_on_c, 9, 40, 0
4, 56864, Note_on_c, 9, 51, 0
4, 56890, Note_on_c, 9, 51, 62
4, 56946, Note_on_c, 9, 51, 0
4, 57005, Note_on_c, 9, 51, 84
4, 57042, Note_on_c, 9, 51, 0
4, 57075, Note_on_c, 9, 40, 36
4, 57085, Note_on_c, 9, 40, 0
4, 57090, Note_on_c, 9, 51, 48
4, 57101, Note_on_c, 9, 51, 0
4, 57124, Note_on_c, 9, 51, 53
4, 57155, Note_on_c, 9, 51, 0
4, 57199, Note_on_c, 9, 40, 44
4, 57201, Note_on_c, 9, 51, 75
4, 57203, Note_on_c, 9, 53, 71
4, 57208, Note_on_c, 9, 40, 0
4, 57279, Note_on_c, 9, 51, 0
4, 57280, Note_on_c, 9, 53, 0
4, 57315, Note_on_c, 9, 35, 20
4, 57323, Note_on_c, 9, 35, 0
4, 57323, Note_on_c, 9, 51, 36
4, 57334, Note_on_c, 9, 51, 0
4, 57368, Note_on_c, 9, 53, 71
4, 57372, Note_on_c, 9, 52, 82
4, 57377, Note_on_c, 9, 35, 25
4, 57388, Note_on_c, 9, 35, 0
4, 57405, Note_on_c, 9, 52, 0
4, 57428, Note_on_c, 9, 53, 0
4, 57475, Note_on_c, 9, 51, 59
4, 57502, Note_on_c, 9, 51, 0
4, 57548, Note_on_c, 9, 51, 85
4, 57608, Note_on_c, 9, 51, 0
4, 57668, Note_on_c, 9, 51, 60
4, 57681, Note_on_c, 9, 51, 0
4, 57707, Note_on_c, 9, 51, 84
4, 57787, Note_on_c, 9, 51, 0
4, 57792, Note_on_c, 9, 40, 56
4, 57799, Note_on_c, 9, 40, 0
4, 57837, Note_on_c, 9, 51, 70
4, 57864, Note_on_c, 9, 51, 0
4, 57909, Note_on_c, 9, 40, 71
4, 57926, Note_on_c, 9, 40, 0
4, 57933, Note_on_c, 9, 51, 32
4, 57944, Note_on_c, 9, 51, 0
4, 57960, Note_on_c, 9, 51, 78
4, 58012, Note_on_c, 9, 51, 0
4, 58031, Note_on_c, 9, 40, 78
4, 58048, Note_on_c, 9, 40, 0
4, 58071, Note_on_c, 9, 35, 45
4, 58080, Note_on_c, 9, 51, 83
4, 58125, Note_on_c, 9, 51, 0
4, 58125, Note_on_c, 9, 35, 0
4, 58154, Note_on_c, 9, 35, 50
4, 58179, Note_on_c, 9, 35, 0
4, 58198, Note_on_c, 9, 35, 27
4, 58200, Note_on_c, 9, 51, 73
4, 58246, Note_on_c, 9, 51, 0
4, 58264, Note_on_c, 9, 35, 0
4, 58282, Note_on_c, 9, 35, 62
4, 58296, Note_on_c, 9, 51, 46
4, 58310, Note_on_c, 9, 51, 0
4, 58310, Note_on_c, 9, 35, 0
4, 58328, Note_on_c, 9, 51, 72
4, 58371, Note_on_c, 9, 51, 0
4, 58447, Note_on_c, 9, 51, 86
4, 58512, Note_on_c, 9, 51, 0
4, 58568, Note_on_c, 9, 51, 46
4, 58569, Note_on_c, 9, 40, 26
4, 58581, Note_on_c, 9, 51, 0
4, 58620, Note_on_c, 9, 40, 0
4, 58638, Note_on_c, 9, 40, 64
4, 58655, Note_on_c, 9, 51, 35
4, 58667, Note_on_c, 9, 51, 0
4, 58669, Note_on_c, 9, 40, 0
4, 58689, Note_on_c, 9, 51, 65
4, 58692, Note_on_c, 9, 40, 33
4, 58746, Note_on_c, 9, 40, 0
4, 58755, Note_on_c, 9, 51, 0
4, 58759, Note_on_c, 9, 40, 77
4, 58788, Note_on_c, 9, 40, 0
4, 58806, Note_on_c, 9, 51, 74
4, 58809, Note_on_c, 9, 40, 59
4, 58862, Note_on_c, 9, 40, 0
4, 58863, Note_on_c, 9, 51, 0
4, 58883, Note_on_c, 9, 35, 35
4, 58894, Note_on_c, 9, 35, 0
4, 58925, Note_on_c, 9, 51, 49
4, 58930, Note_on_c, 9, 34, 34
4, 58946, Note_on_c, 9, 51, 0
4, 58995, Note_on_c, 9, 34, 0
4, 59004, Note_on_c, 9, 40, 57
4, 59006, Note_on_c, 9, 35, 65
4, 59016, Note_on_c, 9, 51, 32
4, 59024, Note_on_c, 9, 40, 0
4, 59028, Note_on_c, 9, 51, 0
4, 59047, Note_on_c, 9, 51, 64
4, 59080, Note_on_c, 9, 35, 0
4, 59122, Note_on_c, 9, 51, 0
4, 59169, Note_on_c, 9, 51, 44
4, 59190, Note_on_c, 9, 51, 0
4, 59238, Note_on_c, 9, 40, 66
4, 59253, Note_on_c, 9, 51, 42
4, 59266, Note_on_c, 9, 51, 0
4, 59266, Note_on_c, 9, 40, 0
4, 59285, Note_on_c, 9, 51, 69
4, 59290, Note_on_c, 9, 40, 66
4, 59343, Note_on_c, 9, 51, 0
4, 59346, Note_on_c, 9, 40, 0
4, 59361, Note_on_c, 9, 40, 66
4, 59379, Note_on_c, 9, 40, 0
4, 59402, Note_on_c, 9, 51, 71
4, 59447, Note_on_c, 9, 51, 0
4, 59488, Note_on_c, 9, 51, 46
4, 59500, Note_on_c, 9, 51, 0
4, 59522, Note_on_c, 9, 51, 62
4, 59580, Note_on_c, 9, 51, 0
4, 59646, Note_on_c, 9, 51, 75
4, 59687, Note_on_c, 9, 51, 0
4, 59760, Note_on_c, 9, 51, 72
4, 59763, Note_on_c, 9, 40, 30
4, 59772, Note_on_c, 9, 40, 0
4, 59787, Note_on_c, 9, 40, 62
4, 59794, Note_on_c, 9, 51, 0
4, 59798, Note_on_c, 9, 40, 0
4, 59850, Note_on_c, 9, 51, 52
4, 59862, Note_on_c, 9, 51, 0
4, 59870, Note_on_c, 9, 40, 68
4, 59882, Note_on_c, 9, 51, 72
4, 59887, Note_on_c, 9, 40, 0
4, 59930, Note_on_c, 9, 51, 0
4, 59953, Note_on_c, 9, 40, 68
4, 59965, Note_on_c, 9, 40, 0
4, 60002, Note_on_c, 9, 51, 74
4, 60044, Note_on_c, 9, 51, 0
4, 60118, Note_on_c, 9, 51, 74
4, 60157, Note_on_c, 9, 51, 0
4, 60214, Note_on_c, 9, 51, 46
4, 60226, Note_on_c, 9, 51, 0
4, 60244, Note_on_c, 9, 51, 64
4, 60286, Note_on_c, 9, 51, 0
4, 60360, Note_on_c, 9, 51, 69
4, 60402, Note_on_c, 9, 51, 0
4, 60444, Note_on_c, 9, 40, 60
4, 60451, Note_on_c, 9, 40, 0
4, 60480, Note_on_c, 9, 51, 71
4, 60488, Note_on_c, 9, 40, 62
4, 60522, Note_on_c, 9, 51, 0
4, 60549, Note_on_c, 9, 40, 0
4, 60564, Note_on_c, 9, 40, 57
4, 60573, Note_on_c, 9, 40, 0
4, 60590, Note_on_c, 9, 51, 67
4, 60635, Note_on_c, 9, 51, 0
4, 60717, Note_on_c, 9, 51, 72
4, 60754, Note_on_c, 9, 51, 0
4, 60833, Note_on_c, 9, 51, 69
4, 60876, Note_on_c, 9, 51, 0
4, 60916, Note_on_c, 9, 51, 60
4, 60939, Note_on_c, 9, 51, 0
4, 60955, Note_on_c, 9, 51, 76
4, 61011, Note_on_c, 9, 51, 0
4, 61077, Note_on_c, 9, 51, 74
4, 61115, Note_on_c, 9, 51, 0
4, 61169, Note_on_c, 9, 51, 49
4, 61180, Note_on_c, 9, 51, 0
4, 61200, Note_on_c, 9, 51, 62
4, 61232, Note_on_c, 9, 37, 25
4, 61240, Note_on_c, 9, 37, 0
4, 61251, Note_on_c, 9, 51, 0
4, 61318, Note_on_c, 9, 37, 57
4, 61322, Note_on_c, 9, 51, 78
4, 61337, Note_on_c, 9, 37, 0
4, 61356, Note_on_c, 9, 51, 0
4, 61402, Note_on_c, 9, 37, 49
4, 61416, Note_on_c, 9, 37, 0
4, 61442, Note_on_c, 9, 51, 77
4, 61475, Note_on_c, 9, 51, 0
4, 61482, Note_on_c, 9, 37, 56
4, 61498, Note_on_c, 9, 37, 0
4, 61562, Note_on_c, 9, 37, 69
4, 61562, Note_on_c, 9, 51, 75
4, 61577, Note_on_c, 9, 37, 0
4, 61595, Note_on_c, 9, 51, 0
4, 61652, Note_on_c, 9, 51, 49
4, 61653, Note_on_c, 9, 34, 27
4, 61662, Note_on_c, 9, 34, 0
4, 61664, Note_on_c, 9, 51, 0
4, 61683, Note_on_c, 9, 51, 70
4, 61721, Note_on_c, 9, 37, 63
4, 61729, Note_on_c, 9, 51, 0
4, 61752, Note_on_c, 9, 37, 0
4, 61801, Note_on_c, 9, 37, 63
4, 61802, Note_on_c, 9, 51, 79
4, 61822, Note_on_c, 9, 37, 0
4, 61836, Note_on_c, 9, 51, 0
4, 61881, Note_on_c, 9, 40, 56
4, 61881, Note_on_c, 9, 35, 42
4, 61886, Note_on_c, 9, 57, 42
4, 61894, Note_on_c, 9, 57, 0
4, 61894, Note_on_c, 9, 40, 0
4, 61895, Note_on_c, 9, 51, 46
4, 61898, Note_on_c, 9, 35, 0
4, 61907, Note_on_c, 9, 51, 0
4, 61927, Note_on_c, 9, 51, 68
4, 61966, Note_on_c, 9, 51, 0
4, 62045, Note_on_c, 9, 51, 79
4, 62096, Note_on_c, 9, 51, 0
4, 62166, Note_on_c, 9, 51, 64
4, 62206, Note_on_c, 9, 51, 0
4, 62285, Note_on_c, 9, 51, 88
4, 62317, Note_on_c, 9, 51, 0
4, 62360, Note_on_c, 9, 40, 60
4, 62379, Note_on_c, 9, 51, 44
4, 62384, Note_on_c, 9, 40, 0
4, 62390, Note_on_c, 9, 51, 0
4, 62402, Note_on_c, 9, 40, 38
4, 62410, Note_on_c, 9, 51, 67
4, 62451, Note_on_c, 9, 51, 0
4, 62461, Note_on_c, 9, 40, 0
4, 62478, Note_on_c, 9, 40, 57
4, 62487, Note_on_c, 9, 40, 0
4, 62524, Note_on_c, 9, 51, 82
4, 62556, Note_on_c, 9, 51, 0
4, 62616, Note_on_c, 9, 51, 34
4, 62625, Note_on_c, 9, 51, 0
4, 62647, Note_on_c, 9, 51, 54
4, 62692, Note_on_c, 9, 51, 0
4, 62765, Note_on_c, 9, 51, 75
4, 62793, Note_on_c, 9, 51, 0
4, 62843, Note_on_c, 9, 35, 54
4, 62873, Note_on_c, 9, 35, 0
4, 62885, Note_on_c, 9, 51, 71
4, 62909, Note_on_c, 9, 51, 0
4, 63000, Note_on_c, 9, 51, 73
4, 63029, Note_on_c, 9, 51, 0
4, 63128, Note_on_c, 9, 51, 69
4, 63158, Note_on_c, 9, 51, 0
4, 63203, Note_on_c, 9, 35, 25
4, 63213, Note_on_c, 9, 35, 0
4, 63230, Note_on_c, 9, 40, 42
4, 63246, Note_on_c, 9, 51, 69
4, 63247, Note_on_c, 9, 40, 0
4, 63271, Note_on_c, 9, 40, 55
4, 63279, Note_on_c, 9, 51, 0
4, 63291, Note_on_c, 9, 40, 0
4, 63313, Note_on_c, 9, 40, 74
4, 63351, Note_on_c, 9, 40, 0
4, 63366, Note_on_c, 9, 51, 46
4, 63389, Note_on_c, 9, 51, 0
4, 63401, Note_on_c, 9, 40, 28
4, 63416, Note_on_c, 9, 40, 0
4, 63441, Note_on_c, 9, 40, 51
4, 63444, Note_on_c, 9, 51, 52
4, 63451, Note_on_c, 9, 40, 0
4, 63457, Note_on_c, 9, 51, 0
4, 63483, Note_on_c, 9, 51, 73
4, 63486, Note_on_c, 9, 40, 72
4, 63542, Note_on_c, 9, 40, 0
4, 63542, Note_on_c, 9, 51, 0
4, 63602, Note_on_c, 9, 51, 61
4, 63615, Note_on_c, 9, 40, 1
4, 63635, Note_on_c, 9, 51, 0
4, 63646, Note_on_c, 9, 40, 0
4, 63662, Note_on_c, 9, 40, 77
4, 63682, Note_on_c, 9, 51, 79
4, 63684, Note_on_c, 9, 40, 0
4, 63748, Note_on_c, 9, 51, 0
4, 63773, Note_on_c, 9, 37, 58
4, 63794, Note_on_c, 9, 37, 0
4, 63800, Note_on_c, 9, 51, 52
4, 63807, Note_on_c, 9, 37, 48
4, 63810, Note_on_c, 9, 51, 0
4, 63823, Note_on_c, 9, 37, 0
4, 63848, Note_on_c, 9, 35, 62
4, 63851, Note_on_c, 9, 57, 68
4, 63857, Note_on_c, 9, 51, 83
4, 63877, Note_on_c, 9, 57, 0
4, 63907, Note_on_c, 9, 35, 0
4, 63918, Note_on_c, 9, 51, 0
4, 63959, Note_on_c, 9, 51, 56
4, 63976, Note_on_c, 9, 51, 0
4, 64037, Note_on_c, 9, 51, 80
4, 64093, Note_on_c, 9, 51, 0
4, 64154, Note_on_c, 9, 51, 46
4, 64171, Note_on_c, 9, 51, 0
4, 64205, Note_on_c, 9, 51, 74
4, 64267, Note_on_c, 9, 51, 0
4, 64278, Note_on_c, 9, 40, 43
4, 64289, Note_on_c, 9, 40, 0
4, 64320, Note_on_c, 9, 51, 53
4, 64351, Note_on_c, 9, 51, 0
4, 64401, Note_on_c, 9, 51, 73
4, 64404, Note_on_c, 9, 35, 31
4, 64413, Note_on_c, 9, 35, 0
4, 64414, Note_on_c, 9, 53, 20
4, 64442, Note_on_c, 9, 53, 0
4, 64445, Note_on_c, 9, 40, 36
4, 64470, Note_on_c, 9, 51, 0
4, 64507, Note_on_c, 9, 40, 0
4, 64524, Note_on_c, 9, 51, 32
4, 64527, Note_on_c, 9, 35, 20
4, 64534, Note_on_c, 9, 51, 0
4, 64554, Note_on_c, 9, 35, 0
4, 64562, Note_on_c, 9, 40, 37
4, 64574, Note_on_c, 9, 51, 70
4, 64577, Note_on_c, 9, 53, 64
4, 64625, Note_on_c, 9, 40, 0
4, 64637, Note_on_c, 9, 51, 0
4, 64652, Note_on_c, 9, 53, 0
4, 64687, Note_on_c, 9, 51, 51
4, 64706, Note_on_c, 9, 51, 0
4, 64761, Note_on_c, 9, 51, 73
4, 64763, Note_on_c, 9, 53, 68
4, 64821, Note_on_c, 9, 51, 0
4, 64824, Note_on_c, 9, 53, 0
4, 64880, Note_on_c, 9, 35, 29
4, 64889, Note_on_c, 9, 35, 0
4, 64924, Note_on_c, 9, 40, 37
4, 64931, Note_on_c, 9, 51, 69
4, 64972, Note_on_c, 9, 51, 0
4, 64983, Note_on_c, 9, 40, 0
4, 65001, Note_on_c, 9, 35, 47
4, 65003, Note_on_c, 9, 51, 59
4, 65026, Note_on_c, 9, 35, 0
4, 65027, Note_on_c, 9, 51, 0
4, 65040, Note_on_c, 9, 40, 49
4, 65099, Note_on_c, 9, 40, 0
4, 65118, Note_on_c, 9, 51, 56
4, 65125, Note_on_c, 9, 35, 19
4, 65132, Note_on_c, 9, 51, 0
4, 65148, Note_on_c, 9, 35, 0
4, 65165, Note_on_c, 9, 51, 69
4, 65168, Note_on_c, 9, 53, 68
4, 65215, Note_on_c, 9, 51, 0
4, 65226, Note_on_c, 9, 53, 0
4, 65248, Note_on_c, 9, 35, 36
4, 65264, Note_on_c, 9, 35, 0
4, 65276, Note_on_c, 9, 51, 33
4, 65285, Note_on_c, 9, 40, 50
4, 65292, Note_on_c, 9, 51, 0
4, 65353, Note_on_c, 9, 51, 79
4, 65355, Note_on_c, 9, 40, 0
4, 65365, Note_on_c, 9, 35, 53
4, 65394, Note_on_c, 9, 35, 0
4, 65402, Note_on_c, 9, 51, 0
4, 65405, Note_on_c, 9, 40, 68
4, 65454, Note_on_c, 9, 40, 0
4, 65473, Note_on_c, 9, 51, 45
4, 65481, Note_on_c, 9, 40, 62
4, 65486, Note_on_c, 9, 51, 0
4, 65498, Note_on_c, 9, 40, 0
4, 65523, Note_on_c, 9, 51, 83
4, 65589, Note_on_c, 9, 51, 0
4, 65600, Note_on_c, 9, 35, 43
4, 65617, Note_on_c, 9, 35, 0
4, 65639, Note_on_c, 9, 51, 51
4, 65641, Note_on_c, 9, 40, 49
4, 65653, Note_on_c, 9, 51, 0
4, 65699, Note_on_c, 9, 40, 0
4, 65711, Note_on_c, 9, 51, 87
4, 65718, Note_on_c, 9, 40, 76
4, 65757, Note_on_c, 9, 40, 0
4, 65790, Note_on_c, 9, 40, 57
4, 65801, Note_on_c, 9, 51, 0
4, 65828, Note_on_c, 9, 40, 0
4, 65846, Note_on_c, 9, 51, 34
4, 65856, Note_on_c, 9, 35, 22
4, 65857, Note_on_c, 9, 51, 0
4, 65869, Note_on_c, 9, 35, 0
4, 65874, Note_on_c, 9, 40, 61
4, 65887, Note_on_c, 9, 51, 62
4, 65922, Note_on_c, 9, 40, 0
4, 65953, Note_on_c, 9, 40, 57
4, 65957, Note_on_c, 9, 51, 0
4, 65979, Note_on_c, 9, 40, 0
4, 66008, Note_on_c, 9, 51, 74
4, 66050, Note_on_c, 9, 51, 0
4, 66125, Note_on_c, 9, 51, 74
4, 66157, Note_on_c, 9, 51, 0
4, 66215, Note_on_c, 9, 51, 37
4, 66227, Note_on_c, 9, 51, 0
4, 66241, Note_on_c, 9, 51, 52
4, 66288, Note_on_c, 9, 51, 0
4, 66358, Note_on_c, 9, 51, 79
4, 66402, Note_on_c, 9, 51, 0
4, 66454, Note_on_c, 9, 51, 59
4, 66467, Note_on_c, 9, 51, 0
4, 66491, Note_on_c, 9, 51, 62
4, 66524, Note_on_c, 9, 51, 0
4, 66560, Note_on_c, 9, 40, 51
4, 66585, Note_on_c, 9, 40, 0
4, 66602, Note_on_c, 9, 51, 82
4, 66613, Note_on_c, 9, 40, 24
4, 66640, Note_on_c, 9, 51, 0
4, 66665, Note_on_c, 9, 40, 0
4, 66681, Note_on_c, 9, 40, 27
4, 66708, Note_on_c, 9, 40, 0
4, 66717, Note_on_c, 9, 51, 74
4, 66733, Note_on_c, 9, 40, 36
4, 66755, Note_on_c, 9, 51, 0
4, 66785, Note_on_c, 9, 40, 0
4, 66805, Note_on_c, 9, 40, 40
4, 66815, Note_on_c, 9, 40, 0
4, 66839, Note_on_c, 9, 51, 76
4, 66867, Note_on_c, 9, 51, 0
4, 66929, Note_on_c, 9, 51, 57
4, 66946, Note_on_c, 9, 51, 0
4, 66965, Note_on_c, 9, 51, 71
4, 66999, Note_on_c, 9, 51, 0
4, 67030, Note_on_c, 9, 40, 35
4, 67046, Note_on_c, 9, 40, 0
4, 67077, Note_on_c, 9, 40, 40
4, 67080, Note_on_c, 9, 51, 79
4, 67087, Note_on_c, 9, 40, 0
4, 67108, Note_on_c, 9, 51, 0
4, 67170, Note_on_c, 9, 51, 46
4, 67180, Note_on_c, 9, 51, 0
4, 67199, Note_on_c, 9, 51, 64
4, 67228, Note_on_c, 9, 40, 58
4, 67235, Note_on_c, 9, 51, 0
4, 67240, Note_on_c, 9, 40, 0
4, 67317, Note_on_c, 9, 51, 81
4, 67331, Note_on_c, 9, 38, 24
4, 67339, Note_on_c, 9, 38, 0
4, 67350, Note_on_c, 9, 51, 0
4, 67398, Note_on_c, 9, 38, 42
4, 67406, Note_on_c, 9, 51, 62
4, 67407, Note_on_c, 9, 38, 0
4, 67416, Note_on_c, 9, 51, 0
4, 67446, Note_on_c, 9, 51, 64
4, 67472, Note_on_c, 9, 51, 0
4, 67476, Note_on_c, 9, 40, 33
4, 67488, Note_on_c, 9, 40, 0
4, 67563, Note_on_c, 9, 40, 44
4, 67563, Note_on_c, 9, 51, 78
4, 67579, Note_on_c, 9, 40, 0
4, 67583, Note_on_c, 9, 51, 0
4, 67639, Note_on_c, 9, 40, 62
4, 67653, Note_on_c, 9, 40, 0
4, 67682, Note_on_c, 9, 35, 30
4, 67686, Note_on_c, 9, 51, 68
4, 67692, Note_on_c, 9, 35, 0
4, 67726, Note_on_c, 9, 51, 0
4, 67799, Note_on_c, 9, 51, 70
4, 67833, Note_on_c, 9, 51, 0
4, 67882, Note_on_c, 9, 40, 34
4, 67887, Note_on_c, 9, 51, 55
4, 67891, Note_on_c, 9, 40, 0
4, 67899, Note_on_c, 9, 51, 0
4, 67914, Note_on_c, 9, 40, 40
4, 67920, Note_on_c, 9, 51, 68
4, 67936, Note_on_c, 9, 40, 0
4, 67969, Note_on_c, 9, 51, 0
4, 67994, Note_on_c, 9, 40, 52
4, 68003, Note_on_c, 9, 40, 0
4, 68034, Note_on_c, 9, 51, 82
4, 68081, Note_on_c, 9, 51, 0
4, 68118, Note_on_c, 9, 40, 48
4, 68130, Note_on_c, 9, 40, 0
4, 68160, Note_on_c, 9, 51, 73
4, 68171, Note_on_c, 9, 40, 48
4, 68195, Note_on_c, 9, 51, 0
4, 68218, Note_on_c, 9, 40, 0
4, 68235, Note_on_c, 9, 40, 49
4, 68245, Note_on_c, 9, 51, 53
4, 68249, Note_on_c, 9, 40, 0
4, 68255, Note_on_c, 9, 51, 0
4, 68280, Note_on_c, 9, 51, 60
4, 68322, Note_on_c, 9, 51, 0
4, 68400, Note_on_c, 9, 51, 71
4, 68445, Note_on_c, 9, 51, 0
4, 68475, Note_on_c, 9, 40, 45
4, 68481, Note_on_c, 9, 51, 53
4, 68483, Note_on_c, 9, 40, 0
4, 68492, Note_on_c, 9, 51, 0
4, 68514, Note_on_c, 9, 51, 62
4, 68543, Note_on_c, 9, 51, 0
4, 68593, Note_on_c, 9, 51, 90
4, 68648, Note_on_c, 9, 51, 0
4, 68710, Note_on_c, 9, 51, 60
4, 68716, Note_on_c, 9, 40, 42
4, 68725, Note_on_c, 9, 51, 0
4, 68729, Note_on_c, 9, 40, 0
4, 68751, Note_on_c, 9, 51, 67
4, 68758, Note_on_c, 9, 40, 29
4, 68768, Note_on_c, 9, 40, 0
4, 68782, Note_on_c, 9, 51, 0
4, 68833, Note_on_c, 9, 51, 87
4, 68834, Note_on_c, 9, 35, 33
4, 68846, Note_on_c, 9, 35, 0
4, 68879, Note_on_c, 9, 40, 40
4, 68895, Note_on_c, 9, 51, 0
4, 68922, Note_on_c, 9, 40, 0
4, 68951, Note_on_c, 9, 51, 33
4, 68962, Note_on_c, 9, 51, 0
4, 68999, Note_on_c, 9, 51, 71
4, 69005, Note_on_c, 9, 56, 34
4, 69007, Note_on_c, 9, 40, 32
4, 69020, Note_on_c, 9, 51, 0
4, 69024, Note_on_c, 9, 56, 0
4, 69029, Note_on_c, 9, 40, 0
4, 69075, Note_on_c, 9, 51, 95
4, 69087, Note_on_c, 9, 57, 54
4, 69087, Note_on_c, 9, 40, 60
4, 69093, Note_on_c, 9, 57, 0
4, 69104, Note_on_c, 9, 40, 0
4, 69132, Note_on_c, 9, 51, 0
4, 69304, Note_on_c, 9, 59, 46
4, 69316, Note_on_c, 9, 59, 0
4, 69341, Note_on_c, 9, 59, 50
4, 69368, Note_on_c, 9, 59, 0
4, 69438, Note_on_c, 9, 40, 73
4, 69455, Note_on_c, 9, 40, 0
4, 69479, Note_on_c, 9, 40, 60
4, 69507, Note_on_c, 9, 40, 0
4, 69536, Note_on_c, 9, 40, 60
4, 69542, Note_on_c, 9, 59, 49
4, 69544, Note_on_c, 9, 40, 0
4, 69553, Note_on_c, 9, 59, 0
4, 69555, Note_on_c, 9, 40, 75
4, 69574, Note_on_c, 9, 40, 0
4, 69577, Note_on_c, 9, 35, 51
4, 69580, Note_on_c, 9, 59, 63
4, 69606, Note_on_c, 9, 35, 0
4, 69625, Note_on_c, 9, 59, 0
4, 69787, Note_on_c, 9, 59, 42
4, 69797, Note_on_c, 9, 59, 0
4, 69826, Note_on_c, 9, 59, 63
4, 69900, Note_on_c, 9, 59, 0
4, 70030, Note_on_c, 9, 59, 37
4, 70040, Note_on_c, 9, 59, 0
4, 70074, Note_on_c, 9, 59, 32
4, 70090, Note_on_c, 9, 59, 0
4, 70145, Note_on_c, 9, 59, 68
4, 70156, Note_on_c, 9, 59, 0
4, 70185, Note_on_c, 9, 59, 89
4, 70267, Note_on_c, 9, 59, 0
4, 70310, Note_on_c, 9, 59, 35
4, 70322, Note_on_c, 9, 59, 0
4, 70379, Note_on_c, 9, 59, 74
4, 70401, Note_on_c, 9, 59, 0
4, 70474, Note_on_c, 9, 40, 47
4, 70486, Note_on_c, 9, 40, 0
4, 70510, Note_on_c, 9, 59, 40
4, 70510, Note_on_c, 9, 40, 40
4, 70520, Note_on_c, 9, 59, 0
4, 70521, Note_on_c, 9, 40, 0
4, 70545, Note_on_c, 9, 59, 60
4, 70551, Note_on_c, 9, 35, 33
4, 70565, Note_on_c, 9, 35, 0
4, 70623, Note_on_c, 9, 59, 0
4, 70632, Note_on_c, 9, 35, 28
4, 70695, Note_on_c, 9, 35, 0
4, 70749, Note_on_c, 9, 35, 50
4, 70755, Note_on_c, 9, 59, 44
4, 70760, Note_on_c, 9, 35, 0
4, 70764, Note_on_c, 9, 59, 0
4, 70788, Note_on_c, 9, 59, 57
4, 70838, Note_on_c, 9, 35, 46
4, 70840, Note_on_c, 9, 35, 0
4, 70843, Note_on_c, 9, 59, 0
4, 70993, Note_on_c, 9, 59, 33
4, 71004, Note_on_c, 9, 59, 0
4, 71025, Note_on_c, 9, 59, 41
4, 71061, Note_on_c, 9, 59, 0
4, 71109, Note_on_c, 9, 59, 87
4, 71125, Note_on_c, 9, 59, 0
4, 71146, Note_on_c, 9, 59, 81
4, 71224, Note_on_c, 9, 59, 0
4, 71262, Note_on_c, 9, 59, 51
4, 71278, Note_on_c, 9, 59, 0
4, 71348, Note_on_c, 9, 35, 39
4, 71350, Note_on_c, 9, 59, 37
4, 71358, Note_on_c, 9, 35, 0
4, 71361, Note_on_c, 9, 59, 0
4, 71385, Note_on_c, 9, 59, 36
4, 71401, Note_on_c, 9, 59, 0
4, 71465, Note_on_c, 9, 59, 80
4, 71482, Note_on_c, 9, 59, 0
4, 71503, Note_on_c, 9, 59, 71
4, 71565, Note_on_c, 9, 59, 0
4, 71631, Note_on_c, 9, 40, 29
4, 71642, Note_on_c, 9, 40, 0
4, 71705, Note_on_c, 9, 40, 66
4, 71711, Note_on_c, 9, 59, 44
4, 71723, Note_on_c, 9, 59, 0
4, 71730, Note_on_c, 9, 40, 0
4, 71750, Note_on_c, 9, 40, 32
4, 71753, Note_on_c, 9, 59, 29
4, 71777, Note_on_c, 9, 40, 0
4, 71796, Note_on_c, 9, 59, 0
4, 71823, Note_on_c, 9, 53, 62
4, 71825, Note_on_c, 9, 35, 42
4, 71839, Note_on_c, 9, 35, 0
4, 71846, Note_on_c, 9, 53, 0
4, 71870, Note_on_c, 9, 35, 36
4, 71873, Note_on_c, 9, 59, 32
4, 71909, Note_on_c, 9, 59, 0
4, 71912, Note_on_c, 9, 35, 0
4, 71942, Note_on_c, 9, 35, 42
4, 71961, Note_on_c, 9, 35, 0
4, 71985, Note_on_c, 9, 59, 51
4, 72037, Note_on_c, 9, 59, 0
4, 72197, Note_on_c, 9, 59, 48
4, 72212, Note_on_c, 9, 59, 0
4, 72234, Note_on_c, 9, 59, 44
4, 72256, Note_on_c, 9, 59, 0
4, 72315, Note_on_c, 9, 59, 91
4, 72351, Note_on_c, 9, 37, 38
4, 72374, Note_on_c, 9, 59, 0
4, 72400, Note_on_c, 9, 37, 0
4, 72425, Note_on_c, 9, 37, 37
4, 72434, Note_on_c, 9, 59, 22
4, 72445, Note_on_c, 9, 37, 0
4, 72448, Note_on_c, 9, 59, 0
4, 72482, Note_on_c, 9, 59, 87
4, 72552, Note_on_c, 9, 59, 0
4, 72556, Note_on_c, 9, 35, 33
4, 72567, Note_on_c, 9, 35, 0
4, 72598, Note_on_c, 9, 59, 48
4, 72607, Note_on_c, 9, 59, 0
4, 72666, Note_on_c, 9, 59, 87
4, 72707, Note_on_c, 9, 40, 40
4, 72720, Note_on_c, 9, 40, 0
4, 72738, Note_on_c, 9, 59, 0
4, 72745, Note_on_c, 9, 40, 46
4, 72758, Note_on_c, 9, 40, 0
4, 72840, Note_on_c, 9, 59, 89
4, 72905, Note_on_c, 9, 59, 0
4, 73008, Note_on_c, 9, 35, 45
4, 73017, Note_on_c, 9, 35, 0
4, 73020, Note_on_c, 9, 59, 65
4, 73039, Note_on_c, 9, 40, 42
4, 73041, Note_on_c, 9, 59, 0
4, 73048, Note_on_c, 9, 40, 0
4, 73065, Note_on_c, 9, 59, 44
4, 73071, Note_on_c, 9, 40, 35
4, 73101, Note_on_c, 9, 40, 0
4, 73108, Note_on_c, 9, 59, 0
4, 73146, Note_on_c, 9, 40, 47
4, 73157, Note_on_c, 9, 59, 80
4, 73160, Note_on_c, 9, 40, 0
4, 73179, Note_on_c, 9, 59, 0
4, 73225, Note_on_c, 9, 40, 50
4, 73235, Note_on_c, 9, 40, 0
4, 73261, Note_on_c, 9, 40, 44
4, 73272, Note_on_c, 9, 40, 0
4, 73281, Note_on_c, 9, 59, 37
4, 73293, Note_on_c, 9, 59, 0
4, 73305, Note_on_c, 9, 35, 40
4, 73315, Note_on_c, 9, 35, 0
4, 73320, Note_on_c, 9, 59, 51
4, 73342, Note_on_c, 9, 59, 0
4, 73355, Note_on_c, 9, 40, 68
4, 73374, Note_on_c, 9, 40, 0
4, 73388, Note_on_c, 9, 40, 75
4, 73394, Note_on_c, 9, 59, 51
4, 73404, Note_on_c, 9, 59, 0
4, 73406, Note_on_c, 9, 40, 0
4, 73426, Note_on_c, 9, 35, 52
4, 73431, Note_on_c, 9, 59, 60
4, 73457, Note_on_c, 9, 59, 0
4, 73469, Note_on_c, 9, 35, 0
4, 73624, Note_on_c, 9, 59, 49
4, 73634, Note_on_c, 9, 59, 0
4, 73658, Note_on_c, 9, 59, 41
4, 73694, Note_on_c, 9, 59, 0
4, 73901, Note_on_c, 9, 59, 49
4, 73934, Note_on_c, 9, 59, 0
4, 73985, Note_on_c, 9, 53, 42
4, 73993, Note_on_c, 9, 53, 0
4, 74104, Note_on_c, 9, 59, 50
4, 74114, Note_on_c, 9, 59, 0
4, 74144, Note_on_c, 9, 59, 51
4, 74164, Note_on_c, 9, 59, 0
4, 74224, Note_on_c, 9, 53, 61
4, 74232, Note_on_c, 9, 53, 0
4, 74274, Note_on_c, 9, 59, 29
4, 74285, Note_on_c, 9, 59, 0
4, 74343, Note_on_c, 9, 34, 68
4, 74368, Note_on_c, 9, 34, 0
4, 74377, Note_on_c, 9, 59, 72
4, 74393, Note_on_c, 9, 35, 40
4, 74398, Note_on_c, 9, 59, 0
4, 74432, Note_on_c, 9, 35, 0
4, 74465, Note_on_c, 9, 40, 39
4, 74476, Note_on_c, 9, 40, 0
4, 74511, Note_on_c, 9, 40, 31
4, 74523, Note_on_c, 9, 40, 0
4, 74581, Note_on_c, 9, 40, 55
4, 74586, Note_on_c, 9, 59, 50
4, 74591, Note_on_c, 9, 40, 0
4, 74600, Note_on_c, 9, 59, 0
4, 74700, Note_on_c, 9, 59, 82
4, 74705, Note_on_c, 9, 35, 30
4, 74716, Note_on_c, 9, 35, 0
4, 74719, Note_on_c, 9, 59, 0
4, 74973, Note_on_c, 9, 59, 33
4, 75006, Note_on_c, 9, 59, 0
4, 75055, Note_on_c, 9, 59, 67
4, 75062, Note_on_c, 9, 40, 34
4, 75074, Note_on_c, 9, 59, 0
4, 75088, Note_on_c, 9, 40, 0
4, 75099, Note_on_c, 9, 59, 62
4, 75164, Note_on_c, 9, 59, 0
4, 75177, Note_on_c, 9, 40, 40
4, 75190, Note_on_c, 9, 40, 0
4, 75225, Note_on_c, 9, 40, 28
4, 75244, Note_on_c, 9, 40, 0
4, 75298, Note_on_c, 9, 35, 44
4, 75312, Note_on_c, 9, 35, 0
4, 75345, Note_on_c, 9, 35, 39
4, 75381, Note_on_c, 9, 59, 33
4, 75384, Note_on_c, 9, 35, 0
4, 75392, Note_on_c, 9, 59, 0
4, 75416, Note_on_c, 9, 59, 49
4, 75422, Note_on_c, 9, 35, 32
4, 75436, Note_on_c, 9, 35, 0
4, 75443, Note_on_c, 9, 59, 0
4, 75460, Note_on_c, 9, 59, 74
4, 75515, Note_on_c, 9, 59, 0
4, 75541, Note_on_c, 9, 59, 84
4, 75628, Note_on_c, 9, 59, 0
4, 75656, Note_on_c, 9, 40, 36
4, 75664, Note_on_c, 9, 59, 33
4, 75667, Note_on_c, 9, 40, 0
4, 75675, Note_on_c, 9, 59, 0
4, 75698, Note_on_c, 9, 35, 46
4, 75710, Note_on_c, 9, 59, 47
4, 75719, Note_on_c, 9, 59, 0
4, 75728, Note_on_c, 9, 35, 0
4, 75786, Note_on_c, 9, 59, 95
4, 75849, Note_on_c, 9, 59, 0
4, 75906, Note_on_c, 9, 59, 68
4, 75915, Note_on_c, 9, 59, 0
4, 76022, Note_on_c, 9, 59, 79
4, 76048, Note_on_c, 9, 59, 0
4, 76058, Note_on_c, 9, 40, 24
4, 76069, Note_on_c, 9, 40, 0
4, 76141, Note_on_c, 9, 59, 33
4, 76143, Note_on_c, 9, 40, 55
4, 76152, Note_on_c, 9, 59, 0
4, 76158, Note_on_c, 9, 40, 0
4, 76179, Note_on_c, 9, 59, 46
4, 76191, Note_on_c, 9, 59, 0
4, 76297, Note_on_c, 9, 59, 113
4, 76316, Note_on_c, 9, 59, 0
4, 76539, Note_on_c, 9, 59, 72
4, 76539, Note_on_c, 9, 40, 36
4, 76556, Note_on_c, 9, 40, 0
4, 76561, Note_on_c, 9, 59, 0
4, 76577, Note_on_c, 9, 40, 53
4, 76587, Note_on_c, 9, 40, 0
4, 76665, Note_on_c, 9, 59, 68
4, 76691, Note_on_c, 9, 59, 0
4, 76774, Note_on_c, 9, 40, 38
4, 76787, Note_on_c, 9, 40, 0
4, 76814, Note_on_c, 9, 40, 44
4, 76826, Note_on_c, 9, 40, 0
4, 76872, Note_on_c, 9, 59, 24
4, 76881, Note_on_c, 9, 59, 0
4, 76900, Note_on_c, 9, 40, 59
4, 76946, Note_on_c, 9, 40, 0
4, 76978, Note_on_c, 9, 59, 72
4, 76978, Note_on_c, 9, 40, 56
4, 76987, Note_on_c, 9, 40, 0
4, 76997, Note_on_c, 9, 59, 0
4, 77062, Note_on_c, 9, 40, 57
4, 77071, Note_on_c, 9, 40, 0
4, 77101, Note_on_c, 9, 35, 58
4, 77109, Note_on_c, 9, 59, 48
4, 77118, Note_on_c, 9, 59, 0
4, 77124, Note_on_c, 9, 35, 0
4, 77142, Note_on_c, 9, 59, 71
4, 77145, Note_on_c, 9, 40, 57
4, 77156, Note_on_c, 9, 40, 0
4, 77174, Note_on_c, 9, 59, 0
4, 77219, Note_on_c, 9, 51, 72
4, 77220, Note_on_c, 9, 34, 67
4, 77234, Note_on_c, 9, 51, 0
4, 77245, Note_on_c, 9, 34, 0
4, 77258, Note_on_c, 9, 51, 59
4, 77259, Note_on_c, 9, 40, 53
4, 77261, Note_on_c, 9, 35, 55
4, 77273, Note_on_c, 9, 40, 0
4, 77289, Note_on_c, 9, 35, 0
4, 77329, Note_on_c, 9, 51, 0
4, 77378, Note_on_c, 9, 51, 82
4, 77452, Note_on_c, 9, 51, 0
4, 77473, Note_on_c, 9, 40, 56
4, 77481, Note_on_c, 9, 40, 0
4, 77507, Note_on_c, 9, 51, 77
4, 77573, Note_on_c, 9, 51, 0
4, 77630, Note_on_c, 9, 51, 85
4, 77683, Note_on_c, 9, 51, 0
4, 77712, Note_on_c, 9, 35, 30
4, 77721, Note_on_c, 9, 51, 56
4, 77727, Note_on_c, 9, 35, 0
4, 77737, Note_on_c, 9, 51, 0
4, 77750, Note_on_c, 9, 51, 78
4, 77751, Note_on_c, 9, 35, 43
4, 77815, Note_on_c, 9, 35, 0
4, 77822, Note_on_c, 9, 51, 0
4, 77834, Note_on_c, 9, 35, 43
4, 77844, Note_on_c, 9, 35, 0
4, 77863, Note_on_c, 9, 51, 82
4, 77932, Note_on_c, 9, 51, 0
4, 77985, Note_on_c, 9, 51, 83
4, 78047, Note_on_c, 9, 51, 0
4, 78065, Note_on_c, 9, 35, 38
4, 78070, Note_on_c, 9, 53, 72
4, 78077, Note_on_c, 9, 35, 0
4, 78097, Note_on_c, 9, 53, 0
4, 78108, Note_on_c, 9, 51, 62
4, 78195, Note_on_c, 9, 51, 0
4, 78221, Note_on_c, 9, 51, 74
4, 78297, Note_on_c, 9, 51, 0
4, 78343, Note_on_c, 9, 51, 82
4, 78405, Note_on_c, 9, 51, 0
4, 78432, Note_on_c, 9, 35, 37
4, 78441, Note_on_c, 9, 51, 42
4, 78445, Note_on_c, 9, 35, 0
4, 78451, Note_on_c, 9, 51, 0
4, 78468, Note_on_c, 9, 51, 63
4, 78549, Note_on_c, 9, 51, 0
4, 78585, Note_on_c, 9, 51, 82
4, 78586, Note_on_c, 9, 37, 95
4, 78624, Note_on_c, 9, 37, 0
4, 78664, Note_on_c, 9, 51, 0
4, 78665, Note_on_c, 9, 35, 46
4, 78677, Note_on_c, 9, 35, 0
4, 78682, Note_on_c, 9, 51, 51
4, 78697, Note_on_c, 9, 51, 0
4, 78704, Note_on_c, 9, 35, 29
4, 78708, Note_on_c, 9, 51, 72
4, 78747, Note_on_c, 9, 35, 0
4, 78792, Note_on_c, 9, 51, 0
4, 78825, Note_on_c, 9, 51, 82
4, 78895, Note_on_c, 9, 51, 0
4, 78941, Note_on_c, 9, 51, 82
4, 79007, Note_on_c, 9, 51, 0
4, 79025, Note_on_c, 9, 51, 49
4, 79039, Note_on_c, 9, 51, 0
4, 79055, Note_on_c, 9, 51, 71
4, 79060, Note_on_c, 9, 37, 95
4, 79103, Note_on_c, 9, 37, 0
4, 79139, Note_on_c, 9, 51, 0
4, 79141, Note_on_c, 9, 35, 47
4, 79153, Note_on_c, 9, 35, 0
4, 79176, Note_on_c, 9, 51, 82
4, 79189, Note_on_c, 9, 35, 18
4, 79222, Note_on_c, 9, 35, 0
4, 79250, Note_on_c, 9, 51, 0
4, 79298, Note_on_c, 9, 51, 79
4, 79360, Note_on_c, 9, 51, 0
4, 79390, Note_on_c, 9, 51, 49
4, 79401, Note_on_c, 9, 51, 0
4, 79415, Note_on_c, 9, 51, 71
4, 79491, Note_on_c, 9, 51, 0
4, 79536, Note_on_c, 9, 51, 81
4, 79544, Note_on_c, 9, 37, 97
4, 79590, Note_on_c, 9, 37, 0
4, 79603, Note_on_c, 9, 51, 0
4, 79623, Note_on_c, 9, 51, 39
4, 79638, Note_on_c, 9, 51, 0
4, 79657, Note_on_c, 9, 51, 67
4, 79729, Note_on_c, 9, 51, 0
4, 79778, Note_on_c, 9, 51, 83
4, 79849, Note_on_c, 9, 51, 0
4, 79894, Note_on_c, 9, 40, 47
4, 79903, Note_on_c, 9, 51, 83
4, 79904, Note_on_c, 9, 40, 0
4, 79967, Note_on_c, 9, 51, 0
4, 79984, Note_on_c, 9, 35, 26
4, 79990, Note_on_c, 9, 51, 45
4, 79991, Note_on_c, 9, 35, 0
4, 80005, Note_on_c, 9, 51, 0
4, 80021, Note_on_c, 9, 37, 93
4, 80022, Note_on_c, 9, 51, 72
4, 80077, Note_on_c, 9, 37, 0
4, 80092, Note_on_c, 9, 51, 0
4, 80142, Note_on_c, 9, 51, 86
4, 80188, Note_on_c, 9, 51, 0
4, 80264, Note_on_c, 9, 51, 77
4, 80348, Note_on_c, 9, 51, 0
4, 80351, Note_on_c, 9, 37, 23
4, 80364, Note_on_c, 9, 37, 0
4, 80388, Note_on_c, 9, 51, 70
4, 80437, Note_on_c, 9, 51, 0
4, 80466, Note_on_c, 9, 51, 52
4, 80482, Note_on_c, 9, 51, 0
4, 80505, Note_on_c, 9, 37, 97
4, 80506, Note_on_c, 9, 51, 44
4, 80517, Note_on_c, 9, 51, 0
4, 80551, Note_on_c, 9, 37, 0
4, 80577, Note_on_c, 9, 57, 79
4, 80578, Note_on_c, 9, 51, 81
4, 80596, Note_on_c, 9, 57, 0
4, 80597, Note_on_c, 9, 51, 0
4, 80949, Note_on_c, 9, 40, 33
4, 80959, Note_on_c, 9, 40, 0
4, 80990, Note_on_c, 9, 40, 40
4, 81003, Note_on_c, 9, 40, 0
4, 81068, Note_on_c, 9, 35, 52
4, 81081, Note_on_c, 9, 35, 0
4, 81111, Note_on_c, 9, 59, 64
4, 81116, Note_on_c, 9, 35, 51
4, 81157, Note_on_c, 9, 35, 0
4, 81164, Note_on_c, 9, 59, 0
4, 81311, Note_on_c, 9, 59, 50
4, 81321, Note_on_c, 9, 59, 0
4, 81348, Note_on_c, 9, 59, 51
4, 81416, Note_on_c, 9, 59, 0
4, 81434, Note_on_c, 9, 35, 27
4, 81437, Note_on_c, 9, 59, 54
4, 81444, Note_on_c, 9, 35, 0
4, 81447, Note_on_c, 9, 59, 0
4, 81473, Note_on_c, 9, 40, 35
4, 81520, Note_on_c, 9, 40, 0
4, 81544, Note_on_c, 9, 59, 88
4, 81546, Note_on_c, 9, 40, 51
4, 81561, Note_on_c, 9, 40, 0
4, 81565, Note_on_c, 9, 59, 0
4, 81662, Note_on_c, 9, 35, 38
4, 81675, Note_on_c, 9, 35, 0
4, 81709, Note_on_c, 9, 35, 28
4, 81753, Note_on_c, 9, 35, 0
4, 81784, Note_on_c, 9, 59, 51
4, 81788, Note_on_c, 9, 35, 74
4, 81795, Note_on_c, 9, 59, 0
4, 81824, Note_on_c, 9, 59, 60
4, 81827, Note_on_c, 9, 35, 0
4, 81879, Note_on_c, 9, 59, 0
4, 82031, Note_on_c, 9, 59, 33
4, 82042, Note_on_c, 9, 59, 0
4, 82061, Note_on_c, 9, 59, 62
4, 82127, Note_on_c, 9, 59, 0
4, 82382, Note_on_c, 9, 59, 74
4, 82385, Note_on_c, 9, 40, 27
4, 82396, Note_on_c, 9, 40, 0
4, 82409, Note_on_c, 9, 59, 0
4, 82435, Note_on_c, 9, 53, 32
4, 82449, Note_on_c, 9, 53, 0
4, 82504, Note_on_c, 9, 40, 48
4, 82515, Note_on_c, 9, 40, 0
4, 82623, Note_on_c, 9, 59, 55
4, 82629, Note_on_c, 9, 40, 34
4, 82632, Note_on_c, 9, 59, 0
4, 82643, Note_on_c, 9, 40, 0
4, 82658, Note_on_c, 9, 59, 74
4, 82721, Note_on_c, 9, 59, 0
4, 82735, Note_on_c, 9, 59, 90
4, 82746, Note_on_c, 9, 40, 38
4, 82756, Note_on_c, 9, 40, 0
4, 82783, Note_on_c, 9, 59, 0
4, 82860, Note_on_c, 9, 40, 42
4, 82870, Note_on_c, 9, 40, 0
4, 82981, Note_on_c, 9, 40, 57
4, 82985, Note_on_c, 9, 59, 37
4, 82989, Note_on_c, 9, 40, 0
4, 82995, Note_on_c, 9, 59, 0
4, 83019, Note_on_c, 9, 59, 58
4, 83026, Note_on_c, 9, 35, 29
4, 83050, Note_on_c, 9, 35, 0
4, 83083, Note_on_c, 9, 59, 0
4, 83105, Note_on_c, 9, 59, 55
4, 83108, Note_on_c, 9, 40, 39
4, 83116, Note_on_c, 9, 59, 0
4, 83118, Note_on_c, 9, 40, 0
4, 83227, Note_on_c, 9, 40, 41
4, 83230, Note_on_c, 9, 59, 51
4, 83238, Note_on_c, 9, 59, 0
4, 83246, Note_on_c, 9, 40, 0
4, 83266, Note_on_c, 9, 59, 71
4, 83317, Note_on_c, 9, 59, 0
4, 83342, Note_on_c, 9, 40, 45
4, 83354, Note_on_c, 9, 40, 0
4, 83458, Note_on_c, 9, 40, 58
4, 83467, Note_on_c, 9, 40, 0
4, 83508, Note_on_c, 9, 59, 64
4, 83553, Note_on_c, 9, 59, 0
4, 83588, Note_on_c, 9, 35, 33
4, 83600, Note_on_c, 9, 35, 0
4, 83636, Note_on_c, 9, 59, 60
4, 83636, Note_on_c, 9, 53, 48
4, 83684, Note_on_c, 9, 53, 0
4, 83687, Note_on_c, 9, 59, 0
4, 83748, Note_on_c, 9, 53, 76
4, 83749, Note_on_c, 9, 59, 92
4, 83750, Note_on_c, 9, 40, 38
4, 83797, Note_on_c, 9, 59, 0
4, 83801, Note_on_c, 9, 53, 0
4, 83807, Note_on_c, 9, 40, 0
4, 83824, Note_on_c, 9, 53, 57
4, 83826, Note_on_c, 9, 59, 30
4, 83832, Note_on_c, 9, 35, 29
4, 83838, Note_on_c, 9, 59, 0
4, 83843, Note_on_c, 9, 35, 0
4, 83844, Note_on_c, 9, 53, 0
4, 83859, Note_on_c, 9, 53, 40
4, 83859, Note_on_c, 9, 59, 47
4, 83875, Note_on_c, 9, 40, 32
4, 83885, Note_on_c, 9, 40, 0
4, 83904, Note_on_c, 9, 59, 0
4, 83914, Note_on_c, 9, 53, 0
4, 83942, Note_on_c, 9, 53, 95
4, 83943, Note_on_c, 9, 59, 115
4, 83946, Note_on_c, 9, 40, 57
4, 83957, Note_on_c, 9, 40, 0
4, 83980, Note_on_c, 9, 59, 0
4, 83983, Note_on_c, 9, 57, 83
4, 83986, Note_on_c, 9, 35, 69
4, 83988, Note_on_c, 9, 53, 0
4, 83998, Note_on_c, 9, 57, 0
4, 84013, Note_on_c, 9, 35, 0
4, 85945, Note_on_c, 9, 38, 45
4, 85976, Note_on_c, 9, 38, 0
4, 86012, Note_on_c, 9, 34, 67
4, 86046, Note_on_c, 9, 34, 0
4, 86093, Note_on_c, 9, 57, 67
4, 86093, Note_on_c, 9, 36, 74
4, 86188, Note_on_c, 9, 57, 0
4, 86327, Note_on_c, 9, 36, 0
4, 86327, End_track
0, 0, End_of_file
