0, 0, Header, 1, 4, 960
1, 0, Start_track
1, 0, Title_t, "Come Rain or Come Shine  - 2 piono duo"
1, 0, Text_t, "Johnny Mercer and Harold Arlen"
1, 0, Text_t, "dougmck@pipeline.com.au. Played in real time.\012"
1, 0, Text_t, "Accompaniment played first - then second part on Midi Channel 1 2 tracks on separate midi channels so sustain pedal from accompniment does not interfere with the other track.\012"
1, 0, Time_signature, 4, 2, 24, 8
1, 0, Key_signature, -1, "major"
1, 0, Tempo, 600000
1, 0, End_track
2, 0, Start_track
2, 0, Title_t, "Added solo track"
2, 0, Control_c, 0, 7, 113
2, 0, Control_c, 0, 10, 64
2, 105, Note_on_c, 0, 68, 81
2, 641, Note_on_c, 0, 68, 0
2, 716, Note_on_c, 0, 69, 78
2, 998, Note_on_c, 0, 69, 0
2, 1080, Note_on_c, 0, 69, 83
2, 1316, Note_on_c, 0, 69, 0
2, 1656, Note_on_c, 0, 68, 63
2, 1823, Note_on_c, 0, 68, 0
2, 2011, Note_on_c, 0, 69, 64
2, 2496, Note_on_c, 0, 69, 0
2, 2597, Note_on_c, 0, 69, 58
2, 4169, Note_on_c, 0, 69, 0
2, 4414, Note_on_c, 0, 68, 92
2, 4483, Note_on_c, 0, 69, 62
2, 4554, Note_on_c, 0, 69, 0
2, 4588, Note_on_c, 0, 68, 0
2, 4788, Note_on_c, 0, 69, 113
2, 5000, Note_on_c, 0, 69, 0
2, 5382, Note_on_c, 0, 69, 115
2, 5619, Note_on_c, 0, 69, 0
2, 5807, Note_on_c, 0, 69, 96
2, 6104, Note_on_c, 0, 68, 71
2, 6106, Note_on_c, 0, 69, 0
2, 6363, Note_on_c, 0, 68, 0
2, 6439, Note_on_c, 0, 67, 68
2, 7271, Note_on_c, 0, 67, 0
2, 7316, Note_on_c, 0, 65, 48
2, 7549, Note_on_c, 0, 65, 0
2, 7664, Note_on_c, 0, 66, 71
2, 7700, Note_on_c, 0, 67, 76
2, 7710, Note_on_c, 0, 66, 0
2, 8305, Note_on_c, 0, 67, 0
2, 8341, Note_on_c, 0, 65, 60
2, 8626, Note_on_c, 0, 65, 0
2, 8691, Note_on_c, 0, 62, 43
2, 8924, Note_on_c, 0, 62, 0
2, 9053, Note_on_c, 0, 60, 29
2, 9162, Note_on_c, 0, 60, 0
2, 9327, Note_on_c, 0, 62, 62
2, 14600, Note_on_c, 0, 62, 0
2, 15042, Note_on_c, 0, 62, 1
2, 15632, Note_on_c, 0, 62, 0
2, 17652, Note_on_c, 0, 68, 85
2, 17874, Note_on_c, 0, 68, 0
2, 17953, Note_on_c, 0, 69, 94
2, 18146, Note_on_c, 0, 69, 0
2, 18295, Note_on_c, 0, 74, 108
2, 18494, Note_on_c, 0, 74, 0
2, 18605, Note_on_c, 0, 74, 80
2, 18837, Note_on_c, 0, 74, 0
2, 18947, Note_on_c, 0, 68, 53
2, 18970, Note_on_c, 0, 74, 36
2, 19148, Note_on_c, 0, 74, 0
2, 19258, Note_on_c, 0, 68, 0
2, 19336, Note_on_c, 0, 67, 30
2, 19586, Note_on_c, 0, 67, 0
2, 19632, Note_on_c, 0, 62, 44
2, 19836, Note_on_c, 0, 62, 0
2, 19922, Note_on_c, 0, 65, 61
2, 22052, Note_on_c, 0, 65, 0
2, 22081, Note_on_c, 0, 62, 45
2, 22307, Note_on_c, 0, 62, 0
2, 22344, Note_on_c, 0, 63, 56
2, 22552, Note_on_c, 0, 63, 0
2, 22616, Note_on_c, 0, 64, 55
2, 22806, Note_on_c, 0, 64, 0
2, 22884, Note_on_c, 0, 67, 75
2, 23092, Note_on_c, 0, 67, 0
2, 23151, Note_on_c, 0, 64, 38
2, 23376, Note_on_c, 0, 64, 0
2, 23398, Note_on_c, 0, 65, 55
2, 23545, Note_on_c, 0, 65, 0
2, 24970, Note_on_c, 0, 67, 89
2, 25201, Note_on_c, 0, 67, 0
2, 25216, Note_on_c, 0, 64, 35
2, 25403, Note_on_c, 0, 64, 0
2, 25472, Note_on_c, 0, 65, 58
2, 25639, Note_on_c, 0, 65, 0
2, 25725, Note_on_c, 0, 67, 69
2, 25885, Note_on_c, 0, 67, 0
2, 25983, Note_on_c, 0, 68, 47
2, 26118, Note_on_c, 0, 68, 0
2, 26228, Note_on_c, 0, 69, 57
2, 26357, Note_on_c, 0, 69, 0
2, 26458, Note_on_c, 0, 72, 80
2, 26621, Note_on_c, 0, 72, 0
2, 26719, Note_on_c, 0, 76, 92
2, 26896, Note_on_c, 0, 76, 0
2, 26968, Note_on_c, 0, 79, 85
2, 27202, Note_on_c, 0, 79, 0
2, 27284, Note_on_c, 0, 78, 77
2, 27500, Note_on_c, 0, 78, 0
2, 27571, Note_on_c, 0, 77, 70
2, 27795, Note_on_c, 0, 77, 0
2, 27916, Note_on_c, 0, 72, 45
2, 28138, Note_on_c, 0, 72, 0
2, 28219, Note_on_c, 0, 75, 83
2, 28469, Note_on_c, 0, 75, 0
2, 28484, Note_on_c, 0, 74, 74
2, 28763, Note_on_c, 0, 74, 0
2, 28845, Note_on_c, 0, 70, 39
2, 29080, Note_on_c, 0, 70, 0
2, 29125, Note_on_c, 0, 72, 66
2, 29394, Note_on_c, 0, 72, 0
2, 29432, Note_on_c, 0, 71, 53
2, 29469, Note_on_c, 0, 72, 35
2, 29563, Note_on_c, 0, 72, 0
2, 29710, Note_on_c, 0, 71, 0
2, 30087, Note_on_c, 0, 70, 52
2, 30175, Note_on_c, 0, 71, 25
2, 30240, Note_on_c, 0, 71, 0
2, 30318, Note_on_c, 0, 70, 0
2, 30443, Note_on_c, 0, 69, 27
2, 30522, Note_on_c, 0, 69, 0
2, 32661, Note_on_c, 0, 70, 87
2, 32786, Note_on_c, 0, 70, 0
2, 33140, Note_on_c, 0, 70, 92
2, 33273, Note_on_c, 0, 70, 0
2, 33632, Note_on_c, 0, 70, 91
2, 34056, Note_on_c, 0, 70, 0
2, 34093, Note_on_c, 0, 68, 59
2, 34248, Note_on_c, 0, 68, 0
2, 34360, Note_on_c, 0, 70, 64
2, 34509, Note_on_c, 0, 70, 0
2, 34625, Note_on_c, 0, 72, 73
2, 34928, Note_on_c, 0, 72, 0
2, 34963, Note_on_c, 0, 65, 60
2, 35085, Note_on_c, 0, 65, 0
2, 35517, Note_on_c, 0, 65, 58
2, 35717, Note_on_c, 0, 65, 0
2, 35969, Note_on_c, 0, 65, 54
2, 36152, Note_on_c, 0, 65, 0
2, 36243, Note_on_c, 0, 64, 27
2, 36412, Note_on_c, 0, 65, 48
2, 36419, Note_on_c, 0, 64, 0
2, 36676, Note_on_c, 0, 65, 0
2, 36729, Note_on_c, 0, 72, 56
2, 36869, Note_on_c, 0, 72, 0
2, 39955, Note_on_c, 0, 73, 83
2, 40367, Note_on_c, 0, 73, 0
2, 40484, Note_on_c, 0, 70, 72
2, 42803, Note_on_c, 0, 70, 0
2, 42885, Note_on_c, 0, 72, 91
2, 43204, Note_on_c, 0, 72, 0
2, 43269, Note_on_c, 0, 69, 59
2, 43771, Note_on_c, 0, 69, 0
2, 43877, Note_on_c, 0, 66, 68
2, 44183, Note_on_c, 0, 66, 0
2, 44239, Note_on_c, 0, 67, 53
2, 44749, Note_on_c, 0, 67, 0
2, 44807, Note_on_c, 0, 61, 57
2, 45120, Note_on_c, 0, 61, 0
2, 45195, Note_on_c, 0, 60, 31
2, 45758, Note_on_c, 0, 60, 0
2, 45850, Note_on_c, 0, 76, 85
2, 46217, Note_on_c, 0, 76, 0
2, 46257, Note_on_c, 0, 72, 65
2, 46737, Note_on_c, 0, 72, 0
2, 46768, Note_on_c, 0, 74, 62
2, 47027, Note_on_c, 0, 74, 0
2, 47121, Note_on_c, 0, 68, 51
2, 48358, Note_on_c, 0, 68, 0
2, 48597, Note_on_c, 0, 74, 84
2, 48604, Note_on_c, 0, 73, 52
2, 48706, Note_on_c, 0, 73, 0
2, 48842, Note_on_c, 0, 74, 0
2, 48947, Note_on_c, 0, 74, 71
2, 49205, Note_on_c, 0, 74, 0
2, 49260, Note_on_c, 0, 72, 41
2, 49460, Note_on_c, 0, 72, 0
2, 49544, Note_on_c, 0, 74, 74
2, 49800, Note_on_c, 0, 74, 0
2, 49892, Note_on_c, 0, 75, 67
2, 50474, Note_on_c, 0, 75, 0
2, 50501, Note_on_c, 0, 72, 42
2, 52900, Note_on_c, 0, 72, 0
2, 53160, Note_on_c, 0, 72, 60
2, 53287, Note_on_c, 0, 72, 0
2, 53483, Note_on_c, 0, 74, 69
2, 53687, Note_on_c, 0, 74, 0
2, 53820, Note_on_c, 0, 75, 91
2, 54303, Note_on_c, 0, 75, 0
2, 54383, Note_on_c, 0, 75, 74
2, 54685, Note_on_c, 0, 75, 0
2, 54754, Note_on_c, 0, 74, 68
2, 55536, Note_on_c, 0, 74, 0
2, 55698, Note_on_c, 0, 72, 59
2, 56548, Note_on_c, 0, 72, 0
2, 56638, Note_on_c, 0, 70, 65
2, 57282, Note_on_c, 0, 70, 0
2, 57287, Note_on_c, 0, 67, 27
2, 57454, Note_on_c, 0, 67, 0
2, 57587, Note_on_c, 0, 68, 54
2, 57655, Note_on_c, 0, 69, 72
2, 57716, Note_on_c, 0, 68, 0
2, 58234, Note_on_c, 0, 69, 0
2, 58259, Note_on_c, 0, 68, 67
2, 58539, Note_on_c, 0, 68, 0
2, 58621, Note_on_c, 0, 67, 60
2, 59093, Note_on_c, 0, 67, 0
2, 59238, Note_on_c, 0, 60, 31
2, 59803, Note_on_c, 0, 61, 67
2, 59841, Note_on_c, 0, 60, 0
2, 60110, Note_on_c, 0, 62, 75
2, 60166, Note_on_c, 0, 61, 0
2, 60340, Note_on_c, 0, 63, 74
2, 60355, Note_on_c, 0, 62, 0
2, 60518, Note_on_c, 0, 63, 0
2, 60561, Note_on_c, 0, 64, 63
2, 60729, Note_on_c, 0, 64, 0
2, 60738, Note_on_c, 0, 65, 67
2, 60882, Note_on_c, 0, 65, 0
2, 60930, Note_on_c, 0, 66, 51
2, 60952, Note_on_c, 0, 67, 40
2, 61039, Note_on_c, 0, 66, 0
2, 61052, Note_on_c, 0, 68, 44
2, 61057, Note_on_c, 0, 67, 0
2, 61207, Note_on_c, 0, 69, 43
2, 61227, Note_on_c, 0, 68, 0
2, 61324, Note_on_c, 0, 69, 0
2, 61346, Note_on_c, 0, 70, 68
2, 61523, Note_on_c, 0, 70, 0
2, 61528, Note_on_c, 0, 69, 64
2, 61898, Note_on_c, 0, 69, 0
2, 61946, Note_on_c, 0, 60, 53
2, 62059, Note_on_c, 0, 60, 0
2, 62397, Note_on_c, 0, 60, 45
2, 62582, Note_on_c, 0, 60, 0
2, 62876, Note_on_c, 0, 60, 54
2, 63054, Note_on_c, 0, 60, 0
2, 63317, Note_on_c, 0, 60, 57
2, 63502, Note_on_c, 0, 60, 0
2, 63791, Note_on_c, 0, 60, 55
2, 63983, Note_on_c, 0, 60, 0
2, 64092, Note_on_c, 0, 59, 32
2, 64252, Note_on_c, 0, 59, 0
2, 64291, Note_on_c, 0, 60, 28
2, 64470, Note_on_c, 0, 60, 0
2, 64609, Note_on_c, 0, 69, 64
2, 65221, Note_on_c, 0, 69, 0
2, 65309, Note_on_c, 0, 64, 43
2, 65565, Note_on_c, 0, 64, 0
2, 65795, Note_on_c, 0, 64, 67
2, 66045, Note_on_c, 0, 64, 0
2, 66263, Note_on_c, 0, 64, 70
2, 66420, Note_on_c, 0, 64, 0
2, 66722, Note_on_c, 0, 64, 67
2, 66948, Note_on_c, 0, 64, 0
2, 66985, Note_on_c, 0, 63, 53
2, 67083, Note_on_c, 0, 63, 0
2, 67163, Note_on_c, 0, 64, 53
2, 67397, Note_on_c, 0, 64, 0
2, 67521, Note_on_c, 0, 72, 87
2, 68145, Note_on_c, 0, 72, 0
2, 68176, Note_on_c, 0, 69, 61
2, 68365, Note_on_c, 0, 69, 0
2, 68617, Note_on_c, 0, 69, 84
2, 68799, Note_on_c, 0, 69, 0
2, 69067, Note_on_c, 0, 69, 87
2, 69301, Note_on_c, 0, 69, 0
2, 69556, Note_on_c, 0, 69, 89
2, 69784, Note_on_c, 0, 69, 0
2, 69837, Note_on_c, 0, 68, 45
2, 69939, Note_on_c, 0, 68, 0
2, 70007, Note_on_c, 0, 69, 56
2, 70262, Note_on_c, 0, 69, 0
2, 70341, Note_on_c, 0, 76, 90
2, 71017, Note_on_c, 0, 76, 0
2, 71065, Note_on_c, 0, 74, 71
2, 71602, Note_on_c, 0, 74, 0
2, 71621, Note_on_c, 0, 68, 70
2, 71735, Note_on_c, 0, 68, 0
2, 71754, Note_on_c, 0, 69, 55
2, 72044, Note_on_c, 0, 69, 0
2, 72107, Note_on_c, 0, 65, 46
2, 72573, Note_on_c, 0, 65, 0
2, 72595, Note_on_c, 0, 62, 48
2, 72767, Note_on_c, 0, 62, 0
2, 72939, Note_on_c, 0, 65, 44
2, 73352, Note_on_c, 0, 65, 0
2, 73381, Note_on_c, 0, 67, 47
2, 73540, Note_on_c, 0, 67, 0
2, 73552, Note_on_c, 0, 65, 33
2, 73714, Note_on_c, 0, 65, 0
2, 73726, Note_on_c, 0, 62, 47
2, 73895, Note_on_c, 0, 62, 0
2, 73956, Note_on_c, 0, 65, 50
2, 75895, Note_on_c, 0, 65, 0
2, 76699, Note_on_c, 0, 78, 95
2, 76701, Note_on_c, 0, 82, 85
2, 76934, Note_on_c, 0, 82, 0
2, 76960, Note_on_c, 0, 78, 0
2, 77075, Note_on_c, 0, 83, 74
2, 77077, Note_on_c, 0, 79, 71
2, 77264, Note_on_c, 0, 79, 0
2, 77284, Note_on_c, 0, 83, 0
2, 77375, Note_on_c, 0, 74, 58
2, 77526, Note_on_c, 0, 74, 0
2, 77680, Note_on_c, 0, 71, 57
2, 77952, Note_on_c, 0, 71, 0
2, 78347, Note_on_c, 0, 71, 62
2, 79805, Note_on_c, 0, 71, 0
2, 80626, Note_on_c, 0, 82, 86
2, 80631, Note_on_c, 0, 78, 88
2, 80668, Note_on_c, 0, 79, 59
2, 80714, Note_on_c, 0, 79, 0
2, 80839, Note_on_c, 0, 82, 0
2, 80885, Note_on_c, 0, 78, 0
2, 80941, Note_on_c, 0, 83, 79
2, 80980, Note_on_c, 0, 79, 45
2, 81028, Note_on_c, 0, 79, 0
2, 81179, Note_on_c, 0, 83, 0
2, 81270, Note_on_c, 0, 83, 66
2, 81273, Note_on_c, 0, 80, 74
2, 81520, Note_on_c, 0, 83, 0
2, 81561, Note_on_c, 0, 80, 0
2, 81599, Note_on_c, 0, 76, 41
2, 81779, Note_on_c, 0, 76, 0
2, 81903, Note_on_c, 0, 74, 50
2, 82064, Note_on_c, 0, 74, 0
2, 82260, Note_on_c, 0, 71, 67
2, 82448, Note_on_c, 0, 71, 0
2, 82603, Note_on_c, 0, 69, 55
2, 82615, Note_on_c, 0, 76, 48
2, 82814, Note_on_c, 0, 76, 0
2, 82822, Note_on_c, 0, 69, 0
2, 83254, Note_on_c, 0, 68, 49
2, 83269, Note_on_c, 0, 76, 64
2, 84062, Note_on_c, 0, 76, 0
2, 84156, Note_on_c, 0, 64, 49
2, 84317, Note_on_c, 0, 68, 0
2, 84349, Note_on_c, 0, 64, 0
2, 84608, Note_on_c, 0, 73, 61
2, 85112, Note_on_c, 0, 73, 0
2, 85128, Note_on_c, 0, 69, 46
2, 85848, Note_on_c, 0, 69, 0
2, 85868, Note_on_c, 0, 71, 48
2, 86036, Note_on_c, 0, 69, 53
2, 86041, Note_on_c, 0, 71, 0
2, 86218, Note_on_c, 0, 69, 0
2, 86244, Note_on_c, 0, 68, 38
2, 86385, Note_on_c, 0, 68, 0
2, 86532, Note_on_c, 0, 69, 44
2, 88647, Note_on_c, 0, 69, 0
2, 88708, Note_on_c, 0, 57, 48
2, 89021, Note_on_c, 0, 58, 67
2, 89218, Note_on_c, 0, 57, 0
2, 89282, Note_on_c, 0, 58, 0
2, 89369, Note_on_c, 0, 60, 71
2, 89665, Note_on_c, 0, 61, 86
2, 89721, Note_on_c, 0, 60, 0
2, 89973, Note_on_c, 0, 61, 0
2, 90330, Note_on_c, 0, 63, 82
2, 90554, Note_on_c, 0, 63, 0
2, 90600, Note_on_c, 0, 64, 73
2, 91148, Note_on_c, 0, 64, 0
2, 91220, Note_on_c, 0, 66, 67
2, 91463, Note_on_c, 0, 66, 0
2, 91523, Note_on_c, 0, 67, 64
2, 91690, Note_on_c, 0, 67, 0
2, 91832, Note_on_c, 0, 69, 59
2, 92082, Note_on_c, 0, 69, 0
2, 92153, Note_on_c, 0, 70, 37
2, 92381, Note_on_c, 0, 70, 0
2, 92462, Note_on_c, 0, 71, 57
2, 92667, Note_on_c, 0, 71, 0
2, 92785, Note_on_c, 0, 74, 91
2, 93067, Note_on_c, 0, 74, 0
2, 93130, Note_on_c, 0, 71, 60
2, 93419, Note_on_c, 0, 71, 0
2, 94145, Note_on_c, 0, 69, 83
2, 94415, Note_on_c, 0, 70, 72
2, 94466, Note_on_c, 0, 69, 0
2, 94640, Note_on_c, 0, 70, 0
2, 94719, Note_on_c, 0, 71, 80
2, 94971, Note_on_c, 0, 71, 0
2, 95048, Note_on_c, 0, 74, 89
2, 95278, Note_on_c, 0, 74, 0
2, 95338, Note_on_c, 0, 71, 47
2, 95583, Note_on_c, 0, 71, 0
2, 95653, Note_on_c, 0, 72, 68
2, 95994, Note_on_c, 0, 69, 56
2, 96055, Note_on_c, 0, 72, 0
2, 96184, Note_on_c, 0, 69, 0
2, 96287, Note_on_c, 0, 64, 40
2, 96619, Note_on_c, 0, 61, 63
2, 96664, Note_on_c, 0, 64, 0
2, 96895, Note_on_c, 0, 61, 0
2, 96970, Note_on_c, 0, 62, 48
2, 98484, Note_on_c, 0, 62, 0
2, 99527, Note_on_c, 0, 75, 90
2, 99734, Note_on_c, 0, 75, 0
2, 99938, Note_on_c, 0, 76, 103
2, 100220, Note_on_c, 0, 76, 0
2, 100540, Note_on_c, 0, 79, 96
2, 100805, Note_on_c, 0, 79, 0
2, 100937, Note_on_c, 0, 77, 76
2, 101262, Note_on_c, 0, 77, 0
2, 101508, Note_on_c, 0, 73, 64
2, 101559, Note_on_c, 0, 74, 81
2, 101624, Note_on_c, 0, 73, 0
2, 101892, Note_on_c, 0, 74, 0
2, 101983, Note_on_c, 0, 72, 66
2, 102494, Note_on_c, 0, 72, 0
2, 102507, Note_on_c, 0, 69, 51
2, 102724, Note_on_c, 0, 69, 0
2, 102825, Note_on_c, 0, 70, 59
2, 103325, Note_on_c, 0, 70, 0
2, 103419, Note_on_c, 0, 71, 68
2, 103732, Note_on_c, 0, 71, 0
2, 103809, Note_on_c, 0, 67, 49
2, 104279, Note_on_c, 0, 67, 0
2, 104360, Note_on_c, 0, 62, 50
2, 106544, Note_on_c, 0, 62, 0
2, 106576, Note_on_c, 0, 68, 47
2, 106721, Note_on_c, 0, 68, 0
2, 106870, Note_on_c, 0, 69, 53
2, 107044, Note_on_c, 0, 69, 0
2, 107211, Note_on_c, 0, 74, 89
2, 107460, Note_on_c, 0, 74, 0
2, 107564, Note_on_c, 0, 69, 59
2, 108836, Note_on_c, 0, 69, 0
2, 108953, Note_on_c, 0, 69, 66
2, 109126, Note_on_c, 0, 69, 0
2, 109434, Note_on_c, 0, 70, 67
2, 109542, Note_on_c, 0, 70, 0
2, 109906, Note_on_c, 0, 71, 66
2, 109936, Note_on_c, 0, 69, 38
2, 109982, Note_on_c, 0, 69, 0
2, 110008, Note_on_c, 0, 71, 0
2, 110384, Note_on_c, 0, 74, 83
2, 110604, Note_on_c, 0, 74, 0
2, 110903, Note_on_c, 0, 74, 89
2, 111119, Note_on_c, 0, 74, 0
2, 111355, Note_on_c, 0, 76, 94
2, 111775, Note_on_c, 0, 76, 0
2, 111927, Note_on_c, 0, 76, 90
2, 112180, Note_on_c, 0, 76, 0
2, 112355, Note_on_c, 0, 76, 87
2, 112560, Note_on_c, 0, 76, 0
2, 112666, Note_on_c, 0, 74, 58
2, 112818, Note_on_c, 0, 74, 0
2, 113052, Note_on_c, 0, 76, 96
2, 114782, Note_on_c, 0, 76, 0
2, 114855, Note_on_c, 0, 74, 65
2, 115072, Note_on_c, 0, 74, 0
2, 115836, Note_on_c, 0, 77, 108
2, 116670, Note_on_c, 0, 76, 60
2, 116705, Note_on_c, 0, 77, 0
2, 116815, Note_on_c, 0, 75, 68
2, 116831, Note_on_c, 0, 76, 0
2, 117003, Note_on_c, 0, 74, 70
2, 117016, Note_on_c, 0, 75, 0
2, 117268, Note_on_c, 0, 74, 0
2, 117419, Note_on_c, 0, 74, 61
2, 119371, Note_on_c, 0, 74, 0
2, 119700, Note_on_c, 0, 81, 99
2, 119991, Note_on_c, 0, 81, 0
2, 120143, Note_on_c, 0, 80, 64
2, 120423, Note_on_c, 0, 80, 0
2, 120737, Note_on_c, 0, 79, 74
2, 121105, Note_on_c, 0, 79, 0
2, 121234, Note_on_c, 0, 77, 58
2, 121515, Note_on_c, 0, 77, 0
2, 121740, Note_on_c, 0, 75, 78
2, 121999, Note_on_c, 0, 75, 0
2, 122131, Note_on_c, 0, 76, 80
2, 122331, Note_on_c, 0, 76, 0
2, 122598, Note_on_c, 0, 72, 72
2, 122778, Note_on_c, 0, 72, 0
2, 123021, Note_on_c, 0, 70, 45
2, 123327, Note_on_c, 0, 70, 0
2, 123595, Note_on_c, 0, 68, 64
2, 123774, Note_on_c, 0, 68, 0
2, 123947, Note_on_c, 0, 69, 65
2, 124181, Note_on_c, 0, 69, 0
2, 124568, Note_on_c, 0, 65, 56
2, 124842, Note_on_c, 0, 65, 0
2, 124932, Note_on_c, 0, 60, 40
2, 125822, Note_on_c, 0, 60, 0
2, 126522, Note_on_c, 0, 58, 57
2, 126746, Note_on_c, 0, 58, 0
2, 126866, Note_on_c, 0, 57, 47
2, 127237, Note_on_c, 0, 54, 57
2, 127279, Note_on_c, 0, 57, 0
2, 127435, Note_on_c, 0, 54, 0
2, 127544, Note_on_c, 0, 55, 71
2, 127824, Note_on_c, 0, 55, 0
2, 127895, Note_on_c, 0, 57, 61
2, 128190, Note_on_c, 0, 57, 0
2, 128260, Note_on_c, 0, 58, 62
2, 128465, Note_on_c, 0, 58, 0
2, 128591, Note_on_c, 0, 60, 78
2, 128894, Note_on_c, 0, 60, 0
2, 128965, Note_on_c, 0, 61, 71
2, 129278, Note_on_c, 0, 61, 0
2, 129324, Note_on_c, 0, 63, 85
2, 129572, Note_on_c, 0, 63, 0
2, 129596, Note_on_c, 0, 64, 80
2, 129898, Note_on_c, 0, 64, 0
2, 129967, Note_on_c, 0, 66, 80
2, 130240, Note_on_c, 0, 66, 0
2, 130294, Note_on_c, 0, 67, 74
2, 130525, Note_on_c, 0, 67, 0
2, 130618, Note_on_c, 0, 68, 77
2, 130861, Note_on_c, 0, 68, 0
2, 130951, Note_on_c, 0, 69, 62
2, 131193, Note_on_c, 0, 69, 0
2, 131276, Note_on_c, 0, 72, 71
2, 131492, Note_on_c, 0, 72, 0
2, 131566, Note_on_c, 0, 76, 84
2, 131842, Note_on_c, 0, 76, 0
2, 131877, Note_on_c, 0, 79, 75
2, 132118, Note_on_c, 0, 79, 0
2, 132170, Note_on_c, 0, 76, 49
2, 132330, Note_on_c, 0, 76, 0
2, 132408, Note_on_c, 0, 79, 68
2, 132639, Note_on_c, 0, 79, 0
2, 132678, Note_on_c, 0, 76, 58
2, 133455, Note_on_c, 0, 72, 56
2, 133540, Note_on_c, 0, 76, 0
2, 134046, Note_on_c, 0, 72, 0
2, 134068, Note_on_c, 0, 69, 32
2, 134326, Note_on_c, 0, 69, 0
2, 134436, Note_on_c, 0, 73, 46
2, 134972, Note_on_c, 0, 73, 0
2, 135008, Note_on_c, 0, 76, 51
2, 135264, Note_on_c, 0, 76, 0
2, 135348, Note_on_c, 0, 73, 35
2, 135988, Note_on_c, 0, 73, 0
2, 136020, Note_on_c, 0, 74, 54
2, 136865, Note_on_c, 0, 74, 0
2, 137336, Note_on_c, 0, 80, 59
2, 137483, Note_on_c, 0, 80, 0
2, 137624, Note_on_c, 0, 81, 44
2, 137765, Note_on_c, 0, 81, 0
2, 137853, Note_on_c, 0, 86, 84
2, 138049, Note_on_c, 0, 86, 0
2, 138304, Note_on_c, 0, 86, 84
2, 138439, Note_on_c, 0, 86, 0
2, 138785, Note_on_c, 0, 86, 84
2, 138914, Note_on_c, 0, 86, 0
2, 139242, Note_on_c, 0, 86, 84
2, 139408, Note_on_c, 0, 86, 0
2, 139701, Note_on_c, 0, 81, 57
2, 139836, Note_on_c, 0, 81, 0
2, 140170, Note_on_c, 0, 81, 75
2, 140372, Note_on_c, 0, 81, 0
2, 140648, Note_on_c, 0, 77, 52
2, 140782, Note_on_c, 0, 77, 0
2, 141118, Note_on_c, 0, 77, 62
2, 141310, Note_on_c, 0, 77, 0
2, 141645, Note_on_c, 0, 88, 94
2, 141778, Note_on_c, 0, 88, 0
2, 142117, Note_on_c, 0, 88, 99
2, 142446, Note_on_c, 0, 88, 0
2, 142560, Note_on_c, 0, 85, 69
2, 142733, Note_on_c, 0, 85, 0
2, 143037, Note_on_c, 0, 85, 69
2, 143527, Note_on_c, 0, 85, 0
2, 143532, Note_on_c, 0, 86, 73
2, 143721, Note_on_c, 0, 86, 0
2, 144586, Note_on_c, 0, 84, 96
2, 144854, Note_on_c, 0, 84, 0
2, 145083, Note_on_c, 0, 82, 78
2, 145292, Note_on_c, 0, 82, 0
2, 145377, Note_on_c, 0, 80, 47
2, 145487, Note_on_c, 0, 80, 0
2, 145576, Note_on_c, 0, 81, 82
2, 145816, Note_on_c, 0, 81, 0
2, 145867, Note_on_c, 0, 76, 56
2, 145976, Note_on_c, 0, 76, 0
2, 146086, Note_on_c, 0, 79, 79
2, 146288, Note_on_c, 0, 79, 0
2, 146342, Note_on_c, 0, 78, 60
2, 146474, Note_on_c, 0, 78, 0
2, 146532, Note_on_c, 0, 77, 59
2, 146732, Note_on_c, 0, 77, 0
2, 146795, Note_on_c, 0, 72, 58
2, 146878, Note_on_c, 0, 72, 0
2, 147435, Note_on_c, 0, 70, 67
2, 147687, Note_on_c, 0, 70, 0
2, 147892, Note_on_c, 0, 69, 68
2, 148095, Note_on_c, 0, 69, 0
2, 148201, Note_on_c, 0, 70, 48
2, 148320, Note_on_c, 0, 70, 0
2, 148367, Note_on_c, 0, 72, 74
2, 148699, Note_on_c, 0, 72, 0
2, 148876, Note_on_c, 0, 69, 62
2, 149308, Note_on_c, 0, 69, 0
2, 149348, Note_on_c, 0, 65, 64
2, 149591, Note_on_c, 0, 65, 0
2, 149822, Note_on_c, 0, 65, 69
2, 149972, Note_on_c, 0, 65, 0
2, 150132, Note_on_c, 0, 67, 47
2, 150198, Note_on_c, 0, 67, 0
2, 150313, Note_on_c, 0, 69, 71
2, 150587, Note_on_c, 0, 69, 0
2, 150792, Note_on_c, 0, 63, 51
2, 150959, Note_on_c, 0, 63, 0
2, 151108, Note_on_c, 0, 65, 28
2, 151190, Note_on_c, 0, 65, 0
2, 151268, Note_on_c, 0, 67, 53
2, 151430, Note_on_c, 0, 67, 0
2, 151733, Note_on_c, 0, 61, 66
2, 151940, Note_on_c, 0, 61, 0
2, 152028, Note_on_c, 0, 63, 42
2, 152284, Note_on_c, 0, 63, 0
2, 152700, Note_on_c, 0, 59, 54
2, 152915, Note_on_c, 0, 59, 0
2, 152990, Note_on_c, 0, 61, 43
2, 153161, Note_on_c, 0, 61, 0
2, 153190, Note_on_c, 0, 63, 55
2, 153562, Note_on_c, 0, 63, 0
2, 153656, Note_on_c, 0, 60, 35
2, 154148, Note_on_c, 0, 60, 0
2, 154177, Note_on_c, 0, 57, 34
2, 154588, Note_on_c, 0, 57, 0
2, 154660, Note_on_c, 0, 58, 49
2, 155382, Note_on_c, 0, 58, 0
2, 155555, Note_on_c, 0, 60, 60
2, 155761, Note_on_c, 0, 60, 0
2, 155829, Note_on_c, 0, 57, 38
2, 155933, Note_on_c, 0, 57, 0
2, 156033, Note_on_c, 0, 58, 48
2, 156216, Note_on_c, 0, 58, 0
2, 156297, Note_on_c, 0, 60, 48
2, 156452, Note_on_c, 0, 60, 0
2, 156516, Note_on_c, 0, 61, 68
2, 156704, Note_on_c, 0, 61, 0
2, 156776, Note_on_c, 0, 63, 74
2, 156874, Note_on_c, 0, 63, 0
2, 156976, Note_on_c, 0, 63, 60
2, 156994, Note_on_c, 0, 64, 92
2, 157021, Note_on_c, 0, 63, 0
2, 157164, Note_on_c, 0, 64, 0
2, 157272, Note_on_c, 0, 67, 99
2, 157430, Note_on_c, 0, 67, 0
2, 157479, Note_on_c, 0, 64, 54
2, 157652, Note_on_c, 0, 64, 0
2, 157721, Note_on_c, 0, 65, 80
2, 157894, Note_on_c, 0, 65, 0
2, 157966, Note_on_c, 0, 60, 54
2, 158186, Note_on_c, 0, 60, 0
2, 158541, Note_on_c, 0, 55, 57
2, 158665, Note_on_c, 0, 55, 0
2, 158787, Note_on_c, 0, 58, 71
2, 158959, Note_on_c, 0, 58, 0
2, 159401, Note_on_c, 0, 58, 71
2, 159610, Note_on_c, 0, 58, 0
2, 159881, Note_on_c, 0, 58, 74
2, 160088, Note_on_c, 0, 58, 0
2, 160158, Note_on_c, 0, 56, 33
2, 160285, Note_on_c, 0, 56, 0
2, 160357, Note_on_c, 0, 58, 57
2, 160561, Note_on_c, 0, 58, 0
2, 160606, Note_on_c, 0, 56, 57
2, 160730, Note_on_c, 0, 56, 0
2, 160822, Note_on_c, 0, 55, 40
2, 160999, Note_on_c, 0, 55, 0
2, 161113, Note_on_c, 0, 53, 35
2, 161184, Note_on_c, 0, 53, 0
2, 161260, Note_on_c, 0, 60, 40
2, 161558, Note_on_c, 0, 60, 0
2, 161716, Note_on_c, 0, 60, 33
2, 162069, Note_on_c, 0, 60, 0
2, 162206, Note_on_c, 0, 58, 52
2, 162850, Note_on_c, 0, 58, 0
2, 164097, Note_on_c, 0, 82, 82
2, 164274, Note_on_c, 0, 82, 0
2, 164365, Note_on_c, 0, 80, 63
2, 164529, Note_on_c, 0, 80, 0
2, 164635, Note_on_c, 0, 79, 35
2, 164763, Note_on_c, 0, 79, 0
2, 167154, Note_on_c, 0, 91, 95
2, 167399, Note_on_c, 0, 90, 68
2, 167456, Note_on_c, 0, 91, 0
2, 167615, Note_on_c, 0, 85, 53
2, 167652, Note_on_c, 0, 90, 0
2, 167861, Note_on_c, 0, 85, 0
2, 167867, Note_on_c, 0, 84, 51
2, 167943, Note_on_c, 0, 84, 0
2, 168071, Note_on_c, 0, 89, 78
2, 168322, Note_on_c, 0, 89, 0
2, 168379, Note_on_c, 0, 83, 38
2, 168442, Note_on_c, 0, 83, 0
2, 168556, Note_on_c, 0, 88, 77
2, 168774, Note_on_c, 0, 88, 0
2, 168828, Note_on_c, 0, 87, 67
2, 168978, Note_on_c, 0, 87, 0
2, 169041, Note_on_c, 0, 86, 62
2, 169194, Note_on_c, 0, 86, 0
2, 169364, Note_on_c, 0, 80, 54
2, 169549, Note_on_c, 0, 80, 0
2, 169621, Note_on_c, 0, 77, 22
2, 169763, Note_on_c, 0, 77, 0
2, 170547, Note_on_c, 0, 76, 39
2, 170606, Note_on_c, 0, 76, 0
2, 170970, Note_on_c, 0, 76, 90
2, 171158, Note_on_c, 0, 76, 0
2, 171219, Note_on_c, 0, 79, 78
2, 171415, Note_on_c, 0, 78, 64
2, 171455, Note_on_c, 0, 79, 0
2, 171566, Note_on_c, 0, 78, 0
2, 171694, Note_on_c, 0, 77, 75
2, 171865, Note_on_c, 0, 77, 0
2, 171921, Note_on_c, 0, 72, 60
2, 172113, Note_on_c, 0, 72, 0
2, 172170, Note_on_c, 0, 68, 52
2, 172299, Note_on_c, 0, 68, 0
2, 172568, Note_on_c, 0, 67, 25
2, 172727, Note_on_c, 0, 67, 0
2, 172827, Note_on_c, 0, 77, 74
2, 173224, Note_on_c, 0, 77, 0
2, 173344, Note_on_c, 0, 73, 43
2, 173359, Note_on_c, 0, 77, 53
2, 173531, Note_on_c, 0, 77, 0
2, 173557, Note_on_c, 0, 73, 0
2, 173798, Note_on_c, 0, 73, 50
2, 173818, Note_on_c, 0, 77, 54
2, 174172, Note_on_c, 0, 73, 0
2, 174183, Note_on_c, 0, 77, 0
2, 174245, Note_on_c, 0, 75, 46
2, 174253, Note_on_c, 0, 72, 55
2, 174393, Note_on_c, 0, 72, 0
2, 174441, Note_on_c, 0, 75, 0
2, 174728, Note_on_c, 0, 75, 58
2, 174743, Note_on_c, 0, 72, 61
2, 175135, Note_on_c, 0, 72, 0
2, 175141, Note_on_c, 0, 75, 0
2, 175223, Note_on_c, 0, 73, 32
2, 175226, Note_on_c, 0, 70, 45
2, 175363, Note_on_c, 0, 70, 0
2, 175386, Note_on_c, 0, 73, 0
2, 175694, Note_on_c, 0, 70, 46
2, 175698, Note_on_c, 0, 73, 42
2, 176040, Note_on_c, 0, 70, 0
2, 176065, Note_on_c, 0, 73, 0
2, 176175, Note_on_c, 0, 72, 46
2, 176200, Note_on_c, 0, 69, 34
2, 176277, Note_on_c, 0, 69, 0
2, 176311, Note_on_c, 0, 72, 0
2, 176665, Note_on_c, 0, 72, 66
2, 176681, Note_on_c, 0, 69, 56
2, 177041, Note_on_c, 0, 69, 0
2, 177086, Note_on_c, 0, 72, 0
2, 177177, Note_on_c, 0, 72, 80
2, 177188, Note_on_c, 0, 75, 75
2, 177372, Note_on_c, 0, 72, 0
2, 177406, Note_on_c, 0, 75, 0
2, 177644, Note_on_c, 0, 75, 83
2, 177647, Note_on_c, 0, 72, 91
2, 177921, Note_on_c, 0, 72, 0
2, 178066, Note_on_c, 0, 75, 0
2, 178140, Note_on_c, 0, 72, 76
2, 178142, Note_on_c, 0, 69, 62
2, 178323, Note_on_c, 0, 72, 0
2, 178352, Note_on_c, 0, 69, 0
2, 178606, Note_on_c, 0, 72, 68
2, 178614, Note_on_c, 0, 69, 65
2, 178771, Note_on_c, 0, 69, 0
2, 179054, Note_on_c, 0, 72, 0
2, 179124, Note_on_c, 0, 69, 57
2, 179134, Note_on_c, 0, 66, 40
2, 179377, Note_on_c, 0, 69, 0
2, 179423, Note_on_c, 0, 66, 0
2, 179619, Note_on_c, 0, 69, 51
2, 179639, Note_on_c, 0, 66, 30
2, 179938, Note_on_c, 0, 69, 0
2, 179956, Note_on_c, 0, 66, 0
2, 180088, Note_on_c, 0, 72, 77
2, 180091, Note_on_c, 0, 69, 80
2, 180372, Note_on_c, 0, 69, 0
2, 180421, Note_on_c, 0, 72, 0
2, 180557, Note_on_c, 0, 72, 58
2, 180565, Note_on_c, 0, 69, 70
2, 180952, Note_on_c, 0, 69, 0
2, 181022, Note_on_c, 0, 72, 0
2, 181075, Note_on_c, 0, 70, 56
2, 181085, Note_on_c, 0, 67, 37
2, 181283, Note_on_c, 0, 70, 0
2, 181326, Note_on_c, 0, 67, 0
2, 181570, Note_on_c, 0, 67, 46
2, 181578, Note_on_c, 0, 70, 50
2, 181729, Note_on_c, 0, 67, 0
2, 181941, Note_on_c, 0, 70, 0
2, 182005, Note_on_c, 0, 69, 62
2, 182026, Note_on_c, 0, 66, 51
2, 182218, Note_on_c, 0, 66, 0
2, 182226, Note_on_c, 0, 69, 0
2, 182490, Note_on_c, 0, 66, 40
2, 182505, Note_on_c, 0, 69, 55
2, 182707, Note_on_c, 0, 69, 0
2, 182763, Note_on_c, 0, 66, 0
2, 182961, Note_on_c, 0, 68, 49
2, 182981, Note_on_c, 0, 65, 44
2, 183140, Note_on_c, 0, 65, 0
2, 183161, Note_on_c, 0, 68, 0
2, 183414, Note_on_c, 0, 68, 56
2, 183429, Note_on_c, 0, 65, 46
2, 183738, Note_on_c, 0, 65, 0
2, 183817, Note_on_c, 0, 68, 0
2, 183900, Note_on_c, 0, 64, 48
2, 183903, Note_on_c, 0, 67, 58
2, 184047, Note_on_c, 0, 64, 0
2, 184070, Note_on_c, 0, 67, 0
2, 184379, Note_on_c, 0, 67, 66
2, 184388, Note_on_c, 0, 64, 49
2, 184648, Note_on_c, 0, 64, 0
2, 184846, Note_on_c, 0, 67, 0
2, 184889, Note_on_c, 0, 65, 57
2, 184909, Note_on_c, 0, 69, 55
2, 185114, Note_on_c, 0, 69, 0
2, 185170, Note_on_c, 0, 65, 0
2, 185407, Note_on_c, 0, 65, 44
2, 185411, Note_on_c, 0, 69, 55
2, 185658, Note_on_c, 0, 65, 0
2, 185819, Note_on_c, 0, 69, 0
2, 185841, Note_on_c, 0, 65, 71
2, 185875, Note_on_c, 0, 60, 47
2, 186162, Note_on_c, 0, 60, 0
2, 186186, Note_on_c, 0, 65, 0
2, 186347, Note_on_c, 0, 65, 61
2, 186371, Note_on_c, 0, 60, 37
2, 187637, Note_on_c, 0, 60, 0
2, 188301, Note_on_c, 0, 65, 0
2, 189657, Note_on_c, 0, 76, 105
2, 189903, Note_on_c, 0, 76, 0
2, 189936, Note_on_c, 0, 79, 82
2, 190155, Note_on_c, 0, 79, 0
2, 190247, Note_on_c, 0, 77, 78
2, 190509, Note_on_c, 0, 77, 0
2, 190565, Note_on_c, 0, 74, 68
2, 190738, Note_on_c, 0, 74, 0
2, 190900, Note_on_c, 0, 70, 78
2, 191157, Note_on_c, 0, 70, 0
2, 191263, Note_on_c, 0, 69, 66
2, 192501, Note_on_c, 0, 67, 68
2, 192510, Note_on_c, 0, 69, 0
2, 192666, Note_on_c, 0, 67, 0
2, 192771, Note_on_c, 0, 65, 71
2, 193013, Note_on_c, 0, 65, 0
2, 193103, Note_on_c, 0, 64, 48
2, 195305, Note_on_c, 0, 64, 0
2, 195309, Note_on_c, 0, 62, 57
2, 195537, Note_on_c, 0, 62, 0
2, 195580, Note_on_c, 0, 61, 56
2, 195707, Note_on_c, 0, 61, 0
2, 195843, Note_on_c, 0, 62, 59
2, 196398, Note_on_c, 0, 62, 0
2, 196824, Note_on_c, 0, 62, 59
2, 197047, Note_on_c, 0, 62, 0
2, 197097, Note_on_c, 0, 61, 37
2, 197203, Note_on_c, 0, 61, 0
2, 197333, Note_on_c, 0, 62, 52
2, 198918, Note_on_c, 0, 62, 0
2, 202219, Note_on_c, 0, 69, 68
2, 202352, Note_on_c, 0, 69, 0
2, 202453, Note_on_c, 0, 73, 54
2, 202585, Note_on_c, 0, 73, 0
2, 202703, Note_on_c, 0, 76, 94
2, 202924, Note_on_c, 0, 76, 0
2, 202982, Note_on_c, 0, 79, 85
2, 203148, Note_on_c, 0, 79, 0
2, 203209, Note_on_c, 0, 77, 73
2, 203392, Note_on_c, 0, 77, 0
2, 203474, Note_on_c, 0, 74, 74
2, 203653, Note_on_c, 0, 74, 0
2, 203719, Note_on_c, 0, 70, 55
2, 203897, Note_on_c, 0, 70, 0
2, 205176, Note_on_c, 0, 71, 118
2, 205401, Note_on_c, 0, 71, 0
2, 205573, Note_on_c, 0, 71, 103
2, 206035, Note_on_c, 0, 71, 0
2, 206149, Note_on_c, 0, 74, 89
2, 206426, Note_on_c, 0, 74, 0
2, 206488, Note_on_c, 0, 70, 57
2, 206534, Note_on_c, 0, 70, 0
2, 206538, Note_on_c, 0, 71, 66
2, 207082, Note_on_c, 0, 72, 43
2, 207187, Note_on_c, 0, 71, 0
2, 207206, Note_on_c, 0, 72, 0
2, 207407, Note_on_c, 0, 73, 67
2, 207968, Note_on_c, 0, 69, 43
2, 208020, Note_on_c, 0, 73, 0
2, 208237, Note_on_c, 0, 69, 0
2, 208342, Note_on_c, 0, 68, 23
2, 208894, Note_on_c, 0, 68, 0
2, 208984, Note_on_c, 0, 69, 50
2, 209608, Note_on_c, 0, 69, 0
2, 209653, Note_on_c, 0, 73, 34
2, 209823, Note_on_c, 0, 73, 0
2, 210002, Note_on_c, 0, 76, 44
2, 210149, Note_on_c, 0, 76, 0
2, 211876, Note_on_c, 0, 87, 86
2, 211881, Note_on_c, 0, 75, 93
2, 212157, Note_on_c, 0, 75, 0
2, 212180, Note_on_c, 0, 87, 0
2, 212314, Note_on_c, 0, 88, 68
2, 212339, Note_on_c, 0, 76, 68
2, 212509, Note_on_c, 0, 88, 0
2, 212529, Note_on_c, 0, 76, 0
2, 212861, Note_on_c, 0, 68, 67
2, 212869, Note_on_c, 0, 80, 56
2, 213123, Note_on_c, 0, 80, 0
2, 213136, Note_on_c, 0, 68, 0
2, 213328, Note_on_c, 0, 81, 53
2, 213360, Note_on_c, 0, 69, 46
2, 213487, Note_on_c, 0, 81, 0
2, 213541, Note_on_c, 0, 69, 0
2, 213793, Note_on_c, 0, 75, 52
2, 213828, Note_on_c, 0, 63, 34
2, 214035, Note_on_c, 0, 75, 0
2, 214089, Note_on_c, 0, 63, 0
2, 214227, Note_on_c, 0, 76, 56
2, 214273, Note_on_c, 0, 64, 15
2, 214349, Note_on_c, 0, 64, 0
2, 214371, Note_on_c, 0, 76, 0
2, 214727, Note_on_c, 0, 60, 36
2, 214836, Note_on_c, 0, 60, 0
2, 215130, Note_on_c, 0, 73, 47
2, 215135, Note_on_c, 0, 61, 63
2, 215495, Note_on_c, 0, 61, 0
2, 215504, Note_on_c, 0, 73, 0
2, 215668, Note_on_c, 0, 62, 60
2, 215671, Note_on_c, 0, 74, 56
2, 215822, Note_on_c, 0, 62, 0
2, 215825, Note_on_c, 0, 74, 0
2, 216049, Note_on_c, 0, 74, 48
2, 216058, Note_on_c, 0, 62, 55
2, 216181, Note_on_c, 0, 62, 0
2, 216468, Note_on_c, 0, 74, 0
2, 217586, Note_on_c, 0, 83, 88
2, 217739, Note_on_c, 0, 83, 0
2, 217845, Note_on_c, 0, 83, 58
2, 218005, Note_on_c, 0, 83, 0
2, 218206, Note_on_c, 0, 85, 74
2, 218209, Note_on_c, 0, 73, 61
2, 218324, Note_on_c, 0, 85, 0
2, 218328, Note_on_c, 0, 86, 46
2, 218342, Note_on_c, 0, 73, 0
2, 218360, Note_on_c, 0, 74, 53
2, 218385, Note_on_c, 0, 84, 40
2, 218509, Note_on_c, 0, 86, 0
2, 218530, Note_on_c, 0, 84, 0
2, 218536, Note_on_c, 0, 74, 0
2, 218648, Note_on_c, 0, 86, 68
2, 218659, Note_on_c, 0, 74, 66
2, 218818, Note_on_c, 0, 86, 0
2, 218830, Note_on_c, 0, 74, 0
2, 218944, Note_on_c, 0, 86, 66
2, 218954, Note_on_c, 0, 74, 63
2, 219082, Note_on_c, 0, 86, 0
2, 219084, Note_on_c, 0, 74, 0
2, 219332, Note_on_c, 0, 85, 49
2, 219337, Note_on_c, 0, 73, 43
2, 219535, Note_on_c, 0, 85, 0
2, 219544, Note_on_c, 0, 73, 0
2, 219570, Note_on_c, 0, 86, 49
2, 219586, Note_on_c, 0, 74, 34
2, 219709, Note_on_c, 0, 86, 0
2, 219714, Note_on_c, 0, 74, 0
2, 219966, Note_on_c, 0, 86, 66
2, 219987, Note_on_c, 0, 74, 53
2, 222090, Note_on_c, 0, 74, 0
2, 222214, Note_on_c, 0, 86, 0
2, 222771, Note_on_c, 0, 80, 80
2, 223192, Note_on_c, 0, 80, 0
2, 223326, Note_on_c, 0, 81, 81
2, 223485, Note_on_c, 0, 81, 0
2, 223696, Note_on_c, 0, 86, 95
2, 223951, Note_on_c, 0, 86, 0
2, 224265, Note_on_c, 0, 86, 75
2, 224270, Note_on_c, 0, 80, 81
2, 224420, Note_on_c, 0, 80, 0
2, 224431, Note_on_c, 0, 81, 51
2, 224564, Note_on_c, 0, 86, 0
2, 224583, Note_on_c, 0, 81, 0
2, 224824, Note_on_c, 0, 79, 71
2, 224833, Note_on_c, 0, 86, 68
2, 225374, Note_on_c, 0, 79, 0
2, 225413, Note_on_c, 0, 86, 0
2, 225578, Note_on_c, 0, 77, 50
2, 226161, Note_on_c, 0, 77, 0
2, 226204, Note_on_c, 0, 74, 45
2, 226481, Note_on_c, 0, 74, 0
2, 226551, Note_on_c, 0, 86, 67
2, 227035, Note_on_c, 0, 86, 0
2, 227168, Note_on_c, 0, 74, 47
2, 228323, Note_on_c, 0, 74, 0
2, 228508, Note_on_c, 0, 74, 46
2, 230379, Note_on_c, 0, 74, 0
2, 231055, Note_on_c, 0, 81, 115
2, 231247, Note_on_c, 0, 81, 0
2, 231425, Note_on_c, 0, 81, 89
2, 231613, Note_on_c, 0, 81, 0
2, 231723, Note_on_c, 0, 82, 61
2, 231887, Note_on_c, 0, 82, 0
2, 232085, Note_on_c, 0, 83, 92
2, 232612, Note_on_c, 0, 83, 0
2, 232706, Note_on_c, 0, 86, 69
2, 232718, Note_on_c, 0, 74, 61
2, 233079, Note_on_c, 0, 74, 0
2, 233087, Note_on_c, 0, 86, 0
2, 233427, Note_on_c, 0, 86, 60
2, 233449, Note_on_c, 0, 74, 37
2, 233756, Note_on_c, 0, 74, 0
2, 233836, Note_on_c, 0, 86, 0
2, 234332, Note_on_c, 0, 88, 89
2, 234340, Note_on_c, 0, 76, 92
2, 234748, Note_on_c, 0, 88, 0
2, 234752, Note_on_c, 0, 76, 0
2, 234957, Note_on_c, 0, 88, 85
2, 234967, Note_on_c, 0, 76, 82
2, 235176, Note_on_c, 0, 76, 0
2, 235181, Note_on_c, 0, 88, 0
2, 235349, Note_on_c, 0, 86, 62
2, 235655, Note_on_c, 0, 86, 0
2, 235919, Note_on_c, 0, 88, 89
2, 235921, Note_on_c, 0, 76, 90
2, 237659, Note_on_c, 0, 88, 0
2, 237689, Note_on_c, 0, 76, 0
2, 237802, Note_on_c, 0, 86, 58
2, 237922, Note_on_c, 0, 86, 0
2, 238214, Note_on_c, 0, 89, 92
2, 238697, Note_on_c, 0, 88, 50
2, 238792, Note_on_c, 0, 89, 0
2, 238838, Note_on_c, 0, 87, 64
2, 238874, Note_on_c, 0, 88, 0
2, 239029, Note_on_c, 0, 86, 43
2, 239041, Note_on_c, 0, 87, 0
2, 239295, Note_on_c, 0, 86, 0
2, 239709, Note_on_c, 0, 86, 61
2, 241488, Note_on_c, 0, 86, 0
2, 241622, Note_on_c, 0, 77, 32
2, 241685, Note_on_c, 0, 77, 0
2, 242032, Note_on_c, 0, 80, 90
2, 242033, Note_on_c, 0, 86, 83
2, 242279, Note_on_c, 0, 80, 0
2, 242286, Note_on_c, 0, 81, 47
2, 242388, Note_on_c, 0, 86, 0
2, 242449, Note_on_c, 0, 81, 0
2, 242633, Note_on_c, 0, 80, 83
2, 242636, Note_on_c, 0, 86, 75
2, 242859, Note_on_c, 0, 86, 0
2, 242921, Note_on_c, 0, 80, 0
2, 243083, Note_on_c, 0, 86, 60
2, 243091, Note_on_c, 0, 79, 62
2, 243258, Note_on_c, 0, 86, 0
2, 243330, Note_on_c, 0, 79, 0
2, 243394, Note_on_c, 0, 77, 37
2, 243539, Note_on_c, 0, 77, 0
2, 243702, Note_on_c, 0, 74, 37
2, 243861, Note_on_c, 0, 74, 0
2, 243972, Note_on_c, 0, 77, 55
2, 244714, Note_on_c, 0, 77, 0
2, 244727, Note_on_c, 0, 79, 46
2, 244822, Note_on_c, 0, 79, 0
2, 245917, Note_on_c, 0, 81, 113
2, 245920, Note_on_c, 0, 86, 94
2, 246340, Note_on_c, 0, 86, 0
2, 246373, Note_on_c, 0, 81, 0
2, 246522, Note_on_c, 0, 81, 92
2, 246527, Note_on_c, 0, 86, 82
2, 246752, Note_on_c, 0, 86, 0
2, 246786, Note_on_c, 0, 81, 0
2, 246958, Note_on_c, 0, 80, 71
2, 246962, Note_on_c, 0, 86, 69
2, 247231, Note_on_c, 0, 86, 0
2, 247291, Note_on_c, 0, 80, 0
2, 247518, Note_on_c, 0, 80, 77
2, 247544, Note_on_c, 0, 86, 69
2, 247766, Note_on_c, 0, 86, 0
2, 247816, Note_on_c, 0, 80, 0
2, 247927, Note_on_c, 0, 86, 66
2, 247933, Note_on_c, 0, 79, 64
2, 249408, Note_on_c, 0, 79, 0
2, 249417, Note_on_c, 0, 77, 55
2, 249434, Note_on_c, 0, 86, 0
2, 249928, Note_on_c, 0, 78, 77
2, 249941, Note_on_c, 0, 77, 0
2, 253225, Note_on_c, 0, 78, 0
2, 253225, End_track
3, 0, Start_track
3, 0, Title_t, "Accompaniment"
3, 0, Control_c, 0, 7, 89
3, 0, Control_c, 0, 10, 66
3, 0, Note_on_c, 0, 57, 42
3, 14, Note_on_c, 0, 64, 48
3, 29, Note_on_c, 0, 69, 53
3, 30, Note_on_c, 0, 48, 31
3, 55, Note_on_c, 0, 41, 37
3, 98, Control_c, 0, 64, 127
3, 271, Note_on_c, 0, 64, 0
3, 477, Note_on_c, 0, 57, 0
3, 678, Note_on_c, 0, 69, 0
3, 956, Note_on_c, 0, 53, 28
3, 958, Note_on_c, 0, 57, 35
3, 973, Note_on_c, 0, 60, 28
3, 1084, Note_on_c, 0, 53, 0
3, 1426, Note_on_c, 0, 60, 0
3, 1525, Note_on_c, 0, 57, 0
3, 1547, Note_on_c, 0, 41, 0
3, 1860, Control_c, 0, 64, 0
3, 1882, Note_on_c, 0, 61, 63
3, 1892, Note_on_c, 0, 48, 0
3, 1899, Note_on_c, 0, 57, 42
3, 1908, Note_on_c, 0, 41, 44
3, 1914, Note_on_c, 0, 49, 36
3, 2221, Control_c, 0, 64, 127
3, 2364, Note_on_c, 0, 49, 0
3, 2540, Note_on_c, 0, 57, 0
3, 2574, Note_on_c, 0, 61, 0
3, 2755, Control_c, 0, 64, 0
3, 2802, Note_on_c, 0, 62, 67
3, 2811, Note_on_c, 0, 57, 51
3, 2812, Note_on_c, 0, 50, 36
3, 2922, Note_on_c, 0, 41, 0
3, 2987, Control_c, 0, 64, 127
3, 3047, Note_on_c, 0, 50, 0
3, 3198, Note_on_c, 0, 57, 0
3, 3420, Note_on_c, 0, 62, 0
3, 3705, Note_on_c, 0, 40, 50
3, 3717, Note_on_c, 0, 47, 33
3, 3722, Control_c, 0, 64, 0
3, 3737, Note_on_c, 0, 69, 78
3, 3747, Note_on_c, 0, 62, 74
3, 3750, Note_on_c, 0, 58, 80
3, 3751, Note_on_c, 0, 55, 47
3, 3763, Note_on_c, 0, 64, 53
3, 4031, Control_c, 0, 64, 127
3, 4169, Note_on_c, 0, 40, 0
3, 4251, Note_on_c, 0, 55, 0
3, 4308, Note_on_c, 0, 47, 0
3, 4347, Note_on_c, 0, 58, 0
3, 4476, Note_on_c, 0, 69, 0
3, 4511, Note_on_c, 0, 62, 0
3, 4624, Note_on_c, 0, 64, 0
3, 4723, Control_c, 0, 64, 0
3, 4730, Note_on_c, 0, 62, 55
3, 4733, Note_on_c, 0, 46, 40
3, 4751, Note_on_c, 0, 56, 38
3, 4755, Note_on_c, 0, 58, 50
3, 5087, Note_on_c, 0, 62, 0
3, 5096, Note_on_c, 0, 56, 0
3, 5111, Note_on_c, 0, 58, 0
3, 5247, Note_on_c, 0, 46, 0
3, 5659, Note_on_c, 0, 61, 51
3, 5663, Note_on_c, 0, 55, 39
3, 5666, Note_on_c, 0, 52, 38
3, 5668, Note_on_c, 0, 45, 37
3, 5683, Note_on_c, 0, 58, 40
3, 5950, Control_c, 0, 64, 127
3, 6067, Note_on_c, 0, 55, 0
3, 6191, Note_on_c, 0, 58, 0
3, 6257, Note_on_c, 0, 61, 0
3, 6599, Control_c, 0, 64, 0
3, 6601, Note_on_c, 0, 52, 0
3, 6640, Note_on_c, 0, 58, 64
3, 6642, Note_on_c, 0, 67, 54
3, 6646, Note_on_c, 0, 55, 55
3, 6659, Note_on_c, 0, 61, 57
3, 6674, Note_on_c, 0, 64, 41
3, 7194, Note_on_c, 0, 55, 0
3, 7202, Note_on_c, 0, 45, 0
3, 7232, Note_on_c, 0, 64, 0
3, 7288, Note_on_c, 0, 52, 44
3, 7395, Note_on_c, 0, 67, 0
3, 7495, Note_on_c, 0, 58, 0
3, 7518, Note_on_c, 0, 61, 0
3, 7540, Note_on_c, 0, 52, 0
3, 7654, Note_on_c, 0, 57, 41
3, 7665, Note_on_c, 0, 65, 51
3, 7667, Note_on_c, 0, 50, 47
3, 7695, Note_on_c, 0, 62, 38
3, 7726, Control_c, 0, 64, 127
3, 7875, Note_on_c, 0, 57, 0
3, 7932, Note_on_c, 0, 50, 0
3, 7955, Note_on_c, 0, 65, 0
3, 7956, Note_on_c, 0, 62, 0
3, 8587, Note_on_c, 0, 69, 94
3, 8590, Note_on_c, 0, 76, 92
3, 8591, Note_on_c, 0, 65, 94
3, 8603, Note_on_c, 0, 64, 75
3, 8636, Control_c, 0, 64, 0
3, 8952, Control_c, 0, 64, 127
3, 9353, Note_on_c, 0, 65, 0
3, 9371, Note_on_c, 0, 64, 0
3, 9374, Note_on_c, 0, 69, 0
3, 9490, Note_on_c, 0, 76, 0
3, 9546, Control_c, 0, 64, 0
3, 9549, Note_on_c, 0, 65, 51
3, 9562, Note_on_c, 0, 62, 56
3, 9566, Note_on_c, 0, 69, 43
3, 9567, Note_on_c, 0, 74, 53
3, 9877, Control_c, 0, 64, 127
3, 10074, Note_on_c, 0, 69, 0
3, 10168, Note_on_c, 0, 65, 0
3, 10426, Control_c, 0, 64, 0
3, 10462, Note_on_c, 0, 65, 41
3, 10464, Note_on_c, 0, 69, 49
3, 10466, Note_on_c, 0, 62, 0
3, 10473, Note_on_c, 0, 61, 54
3, 10672, Control_c, 0, 64, 127
3, 10955, Note_on_c, 0, 65, 0
3, 10979, Note_on_c, 0, 74, 0
3, 11087, Note_on_c, 0, 69, 0
3, 11321, Control_c, 0, 64, 0
3, 11398, Note_on_c, 0, 61, 0
3, 11418, Note_on_c, 0, 73, 35
3, 11429, Note_on_c, 0, 69, 48
3, 11432, Note_on_c, 0, 65, 36
3, 11434, Note_on_c, 0, 60, 33
3, 11609, Control_c, 0, 64, 127
3, 12028, Note_on_c, 0, 69, 0
3, 12050, Note_on_c, 0, 65, 0
3, 12156, Note_on_c, 0, 73, 0
3, 12321, Note_on_c, 0, 60, 0
3, 12332, Control_c, 0, 64, 0
3, 12390, Note_on_c, 0, 72, 43
3, 12403, Note_on_c, 0, 65, 31
3, 12416, Note_on_c, 0, 57, 26
3, 12417, Note_on_c, 0, 69, 35
3, 12420, Note_on_c, 0, 50, 22
3, 12548, Control_c, 0, 64, 127
3, 12676, Note_on_c, 0, 57, 0
3, 12776, Note_on_c, 0, 69, 0
3, 12799, Note_on_c, 0, 72, 0
3, 12862, Note_on_c, 0, 65, 0
3, 13399, Note_on_c, 0, 50, 0
3, 13411, Note_on_c, 0, 60, 36
3, 13414, Note_on_c, 0, 67, 44
3, 13416, Note_on_c, 0, 64, 33
3, 13425, Note_on_c, 0, 57, 36
3, 13429, Control_c, 0, 64, 0
3, 13445, Note_on_c, 0, 55, 42
3, 13674, Control_c, 0, 64, 127
3, 13997, Note_on_c, 0, 55, 0
3, 14043, Note_on_c, 0, 57, 0
3, 14072, Note_on_c, 0, 60, 0
3, 14090, Note_on_c, 0, 64, 0
3, 14224, Note_on_c, 0, 67, 0
3, 14309, Control_c, 0, 64, 0
3, 14371, Note_on_c, 0, 65, 58
3, 14374, Note_on_c, 0, 57, 38
3, 14383, Note_on_c, 0, 44, 34
3, 14407, Note_on_c, 0, 60, 24
3, 14411, Note_on_c, 0, 54, 21
3, 14563, Note_on_c, 0, 60, 0
3, 14568, Control_c, 0, 64, 127
3, 14756, Note_on_c, 0, 57, 0
3, 14787, Note_on_c, 0, 54, 0
3, 14841, Note_on_c, 0, 44, 0
3, 15103, Note_on_c, 0, 65, 0
3, 15277, Control_c, 0, 64, 0
3, 15332, Note_on_c, 0, 61, 45
3, 15347, Note_on_c, 0, 59, 34
3, 15365, Note_on_c, 0, 53, 31
3, 15369, Note_on_c, 0, 43, 32
3, 16056, Note_on_c, 0, 59, 0
3, 16184, Note_on_c, 0, 61, 0
3, 16276, Note_on_c, 0, 50, 26
3, 16278, Note_on_c, 0, 62, 52
3, 16292, Note_on_c, 0, 59, 32
3, 16591, Control_c, 0, 64, 127
3, 16669, Note_on_c, 0, 62, 0
3, 16690, Note_on_c, 0, 43, 0
3, 16809, Note_on_c, 0, 50, 0
3, 16839, Note_on_c, 0, 53, 0
3, 16888, Note_on_c, 0, 59, 0
3, 16920, Note_on_c, 0, 43, 42
3, 17117, Note_on_c, 0, 43, 0
3, 17153, Control_c, 0, 64, 0
3, 17254, Note_on_c, 0, 64, 81
3, 17258, Note_on_c, 0, 69, 83
3, 17263, Note_on_c, 0, 59, 82
3, 17267, Note_on_c, 0, 53, 74
3, 17719, Note_on_c, 0, 69, 0
3, 17757, Note_on_c, 0, 59, 0
3, 17759, Note_on_c, 0, 64, 0
3, 17882, Note_on_c, 0, 53, 0
3, 17920, Note_on_c, 0, 52, 51
3, 17924, Note_on_c, 0, 68, 45
3, 18085, Note_on_c, 0, 68, 0
3, 18181, Note_on_c, 0, 52, 0
3, 18212, Note_on_c, 0, 64, 62
3, 18223, Note_on_c, 0, 59, 62
3, 18229, Note_on_c, 0, 53, 53
3, 18230, Note_on_c, 0, 69, 65
3, 18468, Note_on_c, 0, 53, 0
3, 18550, Note_on_c, 0, 59, 0
3, 18670, Control_c, 0, 64, 127
3, 18701, Note_on_c, 0, 64, 0
3, 18707, Note_on_c, 0, 69, 0
3, 19175, Control_c, 0, 64, 0
3, 19184, Note_on_c, 0, 72, 62
3, 19187, Note_on_c, 0, 60, 42
3, 19198, Note_on_c, 0, 65, 53
3, 19200, Note_on_c, 0, 62, 51
3, 19578, Control_c, 0, 64, 127
3, 19976, Note_on_c, 0, 62, 0
3, 20066, Note_on_c, 0, 60, 0
3, 20068, Note_on_c, 0, 65, 0
3, 20121, Note_on_c, 0, 48, 50
3, 20166, Note_on_c, 0, 72, 0
3, 21037, Control_c, 0, 64, 0
3, 21038, Note_on_c, 0, 76, 68
3, 21070, Note_on_c, 0, 72, 70
3, 21082, Note_on_c, 0, 68, 74
3, 21084, Note_on_c, 0, 58, 56
3, 21093, Note_on_c, 0, 64, 71
3, 21442, Control_c, 0, 64, 127
3, 21518, Note_on_c, 0, 58, 0
3, 21601, Note_on_c, 0, 48, 0
3, 22028, Note_on_c, 0, 48, 58
3, 22249, Note_on_c, 0, 76, 0
3, 22264, Note_on_c, 0, 64, 0
3, 22298, Note_on_c, 0, 72, 0
3, 22468, Note_on_c, 0, 68, 0
3, 22884, Control_c, 0, 64, 0
3, 22971, Note_on_c, 0, 72, 85
3, 22972, Note_on_c, 0, 57, 62
3, 22994, Note_on_c, 0, 67, 90
3, 23003, Note_on_c, 0, 62, 90
3, 23538, Note_on_c, 0, 48, 0
3, 23852, Control_c, 0, 64, 127
3, 23892, Note_on_c, 0, 48, 49
3, 23992, Note_on_c, 0, 57, 0
3, 24084, Note_on_c, 0, 72, 0
3, 24107, Note_on_c, 0, 67, 0
3, 24221, Note_on_c, 0, 62, 0
3, 24818, Control_c, 0, 64, 0
3, 24875, Note_on_c, 0, 65, 50
3, 24886, Note_on_c, 0, 62, 41
3, 24906, Note_on_c, 0, 60, 33
3, 24908, Note_on_c, 0, 57, 41
3, 25415, Note_on_c, 0, 48, 0
3, 25787, Note_on_c, 0, 60, 0
3, 25796, Note_on_c, 0, 65, 0
3, 25806, Note_on_c, 0, 62, 0
3, 25819, Note_on_c, 0, 57, 0
3, 25823, Note_on_c, 0, 48, 46
3, 25829, Control_c, 0, 64, 127
3, 26711, Control_c, 0, 64, 0
3, 26718, Note_on_c, 0, 77, 71
3, 26759, Note_on_c, 0, 58, 31
3, 26765, Note_on_c, 0, 62, 49
3, 26768, Note_on_c, 0, 70, 70
3, 26797, Note_on_c, 0, 67, 56
3, 27143, Note_on_c, 0, 58, 0
3, 27173, Control_c, 0, 64, 127
3, 27340, Note_on_c, 0, 48, 0
3, 27526, Note_on_c, 0, 62, 0
3, 27664, Note_on_c, 0, 77, 0
3, 27724, Note_on_c, 0, 48, 36
3, 27765, Note_on_c, 0, 70, 0
3, 27805, Note_on_c, 0, 67, 0
3, 27845, Note_on_c, 0, 48, 0
3, 28617, Control_c, 0, 64, 0
3, 28676, Note_on_c, 0, 62, 38
3, 28680, Note_on_c, 0, 65, 45
3, 28699, Note_on_c, 0, 57, 29
3, 28711, Note_on_c, 0, 47, 30
3, 29078, Control_c, 0, 64, 127
3, 29560, Note_on_c, 0, 62, 0
3, 29633, Note_on_c, 0, 53, 37
3, 29634, Note_on_c, 0, 57, 0
3, 29658, Note_on_c, 0, 47, 0
3, 29769, Note_on_c, 0, 65, 0
3, 29868, Note_on_c, 0, 53, 0
3, 30436, Control_c, 0, 64, 0
3, 30558, Note_on_c, 0, 56, 36
3, 30564, Note_on_c, 0, 73, 29
3, 30570, Note_on_c, 0, 65, 50
3, 30580, Note_on_c, 0, 61, 25
3, 30594, Note_on_c, 0, 46, 25
3, 30681, Control_c, 0, 64, 127
3, 30879, Note_on_c, 0, 61, 0
3, 30879, Note_on_c, 0, 65, 0
3, 30903, Note_on_c, 0, 46, 0
3, 30950, Note_on_c, 0, 56, 0
3, 31040, Note_on_c, 0, 73, 0
3, 31576, Control_c, 0, 64, 0
3, 31600, Note_on_c, 0, 84, 87
3, 31616, Note_on_c, 0, 77, 80
3, 31619, Note_on_c, 0, 73, 73
3, 31627, Note_on_c, 0, 69, 82
3, 31640, Note_on_c, 0, 81, 66
3, 31835, Control_c, 0, 64, 127
3, 32295, Note_on_c, 0, 73, 0
3, 32344, Note_on_c, 0, 84, 0
3, 32357, Note_on_c, 0, 81, 0
3, 32401, Note_on_c, 0, 77, 0
3, 32471, Control_c, 0, 64, 0
3, 32550, Note_on_c, 0, 82, 60
3, 32557, Note_on_c, 0, 69, 0
3, 32563, Note_on_c, 0, 73, 35
3, 32568, Note_on_c, 0, 77, 57
3, 32612, Note_on_c, 0, 67, 31
3, 32674, Control_c, 0, 64, 127
3, 32735, Note_on_c, 0, 67, 0
3, 32809, Note_on_c, 0, 77, 0
3, 32813, Note_on_c, 0, 82, 0
3, 32838, Note_on_c, 0, 73, 0
3, 33438, Control_c, 0, 64, 0
3, 33487, Note_on_c, 0, 59, 32
3, 33490, Note_on_c, 0, 62, 34
3, 33497, Note_on_c, 0, 65, 38
3, 33542, Note_on_c, 0, 49, 25
3, 33654, Control_c, 0, 64, 127
3, 33875, Note_on_c, 0, 59, 0
3, 33997, Note_on_c, 0, 62, 0
3, 34061, Note_on_c, 0, 65, 0
3, 34067, Note_on_c, 0, 49, 0
3, 34459, Note_on_c, 0, 60, 42
3, 34462, Note_on_c, 0, 64, 51
3, 34492, Control_c, 0, 64, 0
3, 34510, Note_on_c, 0, 58, 34
3, 34580, Note_on_c, 0, 60, 0
3, 34583, Note_on_c, 0, 58, 0
3, 34600, Note_on_c, 0, 64, 0
3, 35414, Note_on_c, 0, 60, 49
3, 35443, Note_on_c, 0, 67, 38
3, 35444, Note_on_c, 0, 41, 33
3, 35447, Note_on_c, 0, 56, 35
3, 35452, Note_on_c, 0, 53, 35
3, 35459, Note_on_c, 0, 48, 33
3, 35620, Note_on_c, 0, 53, 0
3, 35656, Note_on_c, 0, 60, 0
3, 35663, Note_on_c, 0, 56, 0
3, 35666, Note_on_c, 0, 67, 0
3, 35669, Note_on_c, 0, 48, 0
3, 35715, Note_on_c, 0, 41, 0
3, 36369, Note_on_c, 0, 67, 48
3, 36381, Note_on_c, 0, 56, 37
3, 36396, Note_on_c, 0, 60, 26
3, 36400, Note_on_c, 0, 52, 33
3, 36406, Note_on_c, 0, 41, 35
3, 36778, Control_c, 0, 64, 127
3, 36890, Note_on_c, 0, 52, 0
3, 36995, Note_on_c, 0, 60, 0
3, 37009, Note_on_c, 0, 56, 0
3, 37138, Note_on_c, 0, 67, 0
3, 37238, Control_c, 0, 64, 0
3, 37345, Note_on_c, 0, 50, 47
3, 37355, Note_on_c, 0, 56, 54
3, 37366, Note_on_c, 0, 65, 58
3, 37371, Note_on_c, 0, 60, 35
3, 37426, Control_c, 0, 64, 127
3, 37463, Note_on_c, 0, 41, 0
3, 37505, Note_on_c, 0, 50, 0
3, 37536, Note_on_c, 0, 56, 0
3, 37568, Note_on_c, 0, 60, 0
3, 37635, Note_on_c, 0, 65, 0
3, 38292, Control_c, 0, 64, 0
3, 38339, Note_on_c, 0, 72, 85
3, 38343, Note_on_c, 0, 65, 87
3, 38346, Note_on_c, 0, 61, 90
3, 38367, Note_on_c, 0, 57, 75
3, 38370, Note_on_c, 0, 46, 69
3, 38654, Control_c, 0, 64, 127
3, 38867, Note_on_c, 0, 57, 0
3, 39050, Note_on_c, 0, 61, 0
3, 39105, Note_on_c, 0, 65, 0
3, 39172, Note_on_c, 0, 72, 0
3, 39231, Control_c, 0, 64, 0
3, 39311, Note_on_c, 0, 55, 44
3, 39312, Note_on_c, 0, 61, 58
3, 39315, Note_on_c, 0, 70, 60
3, 39329, Note_on_c, 0, 65, 49
3, 39404, Control_c, 0, 64, 127
3, 39614, Note_on_c, 0, 65, 0
3, 39673, Note_on_c, 0, 55, 0
3, 39696, Note_on_c, 0, 61, 0
3, 39803, Note_on_c, 0, 46, 0
3, 40184, Control_c, 0, 64, 0
3, 40238, Note_on_c, 0, 63, 55
3, 40251, Note_on_c, 0, 59, 46
3, 40261, Note_on_c, 0, 54, 35
3, 40274, Note_on_c, 0, 44, 36
3, 40573, Control_c, 0, 64, 127
3, 40906, Note_on_c, 0, 59, 0
3, 40907, Note_on_c, 0, 54, 0
3, 41106, Note_on_c, 0, 70, 0
3, 41136, Control_c, 0, 64, 0
3, 41203, Note_on_c, 0, 59, 56
3, 41234, Note_on_c, 0, 54, 34
3, 41280, Control_c, 0, 64, 127
3, 41449, Note_on_c, 0, 44, 0
3, 41743, Note_on_c, 0, 59, 0
3, 41894, Note_on_c, 0, 44, 35
3, 41976, Note_on_c, 0, 63, 0
3, 42090, Note_on_c, 0, 54, 0
3, 42133, Control_c, 0, 64, 0
3, 42215, Note_on_c, 0, 62, 55
3, 42216, Note_on_c, 0, 44, 0
3, 42228, Note_on_c, 0, 58, 44
3, 42255, Note_on_c, 0, 53, 35
3, 42258, Note_on_c, 0, 43, 35
3, 42364, Control_c, 0, 64, 127
3, 42506, Note_on_c, 0, 43, 0
3, 42553, Note_on_c, 0, 58, 0
3, 42587, Note_on_c, 0, 62, 0
3, 42625, Note_on_c, 0, 53, 0
3, 43085, Control_c, 0, 64, 0
3, 43138, Note_on_c, 0, 65, 81
3, 43141, Note_on_c, 0, 69, 74
3, 43144, Note_on_c, 0, 72, 75
3, 43147, Note_on_c, 0, 62, 87
3, 43152, Note_on_c, 0, 57, 59
3, 43331, Control_c, 0, 64, 127
3, 43557, Note_on_c, 0, 69, 0
3, 43602, Note_on_c, 0, 72, 0
3, 43638, Note_on_c, 0, 62, 0
3, 43667, Note_on_c, 0, 57, 0
3, 43694, Note_on_c, 0, 65, 0
3, 44024, Control_c, 0, 64, 0
3, 44107, Note_on_c, 0, 70, 54
3, 44116, Note_on_c, 0, 61, 47
3, 44126, Note_on_c, 0, 64, 37
3, 44129, Note_on_c, 0, 48, 38
3, 44156, Note_on_c, 0, 58, 25
3, 44175, Note_on_c, 0, 67, 35
3, 44299, Control_c, 0, 64, 127
3, 44382, Note_on_c, 0, 58, 0
3, 44408, Note_on_c, 0, 48, 0
3, 44418, Note_on_c, 0, 67, 0
3, 44470, Note_on_c, 0, 64, 0
3, 44567, Note_on_c, 0, 61, 0
3, 44633, Note_on_c, 0, 70, 0
3, 44991, Control_c, 0, 64, 0
3, 45062, Note_on_c, 0, 42, 30
3, 45063, Note_on_c, 0, 58, 44
3, 45078, Note_on_c, 0, 61, 39
3, 45081, Note_on_c, 0, 64, 35
3, 45082, Note_on_c, 0, 52, 20
3, 45222, Control_c, 0, 64, 127
3, 45297, Note_on_c, 0, 52, 0
3, 45369, Note_on_c, 0, 64, 0
3, 45429, Note_on_c, 0, 42, 0
3, 45435, Note_on_c, 0, 58, 0
3, 45461, Note_on_c, 0, 61, 0
3, 45930, Control_c, 0, 64, 0
3, 46030, Note_on_c, 0, 60, 30
3, 46031, Note_on_c, 0, 56, 45
3, 46041, Note_on_c, 0, 53, 41
3, 46071, Note_on_c, 0, 50, 29
3, 46089, Note_on_c, 0, 41, 35
3, 46175, Control_c, 0, 64, 127
3, 46176, Note_on_c, 0, 53, 0
3, 46283, Note_on_c, 0, 60, 0
3, 46284, Note_on_c, 0, 56, 0
3, 46309, Note_on_c, 0, 41, 0
3, 46368, Note_on_c, 0, 50, 0
3, 46969, Control_c, 0, 64, 0
3, 46983, Note_on_c, 0, 68, 53
3, 46985, Note_on_c, 0, 76, 64
3, 46987, Note_on_c, 0, 64, 56
3, 46990, Note_on_c, 0, 65, 63
3, 46999, Note_on_c, 0, 72, 42
3, 47200, Control_c, 0, 64, 127
3, 47575, Note_on_c, 0, 65, 0
3, 47602, Note_on_c, 0, 72, 0
3, 47618, Note_on_c, 0, 68, 0
3, 47664, Note_on_c, 0, 76, 0
3, 47908, Control_c, 0, 64, 0
3, 47910, Note_on_c, 0, 64, 0
3, 47926, Note_on_c, 0, 76, 55
3, 47935, Note_on_c, 0, 68, 42
3, 47939, Note_on_c, 0, 65, 47
3, 47942, Note_on_c, 0, 72, 43
3, 47962, Note_on_c, 0, 62, 36
3, 48154, Control_c, 0, 64, 127
3, 48488, Note_on_c, 0, 65, 0
3, 48551, Note_on_c, 0, 68, 0
3, 48614, Note_on_c, 0, 72, 0
3, 48714, Note_on_c, 0, 76, 0
3, 48755, Note_on_c, 0, 62, 0
3, 48861, Note_on_c, 0, 74, 53
3, 48869, Note_on_c, 0, 65, 44
3, 48872, Note_on_c, 0, 60, 24
3, 48875, Note_on_c, 0, 68, 43
3, 49059, Note_on_c, 0, 60, 0
3, 49126, Note_on_c, 0, 74, 0
3, 49136, Note_on_c, 0, 65, 0
3, 49160, Note_on_c, 0, 68, 0
3, 49755, Control_c, 0, 64, 0
3, 49782, Note_on_c, 0, 77, 74
3, 49801, Note_on_c, 0, 70, 68
3, 49808, Note_on_c, 0, 74, 57
3, 49814, Note_on_c, 0, 66, 53
3, 49833, Note_on_c, 0, 62, 35
3, 49834, Note_on_c, 0, 64, 28
3, 49840, Note_on_c, 0, 51, 32
3, 49895, Note_on_c, 0, 64, 0
3, 50073, Control_c, 0, 64, 127
3, 50381, Note_on_c, 0, 62, 0
3, 50567, Note_on_c, 0, 66, 0
3, 50570, Note_on_c, 0, 74, 0
3, 50620, Note_on_c, 0, 70, 0
3, 50675, Note_on_c, 0, 77, 0
3, 50767, Note_on_c, 0, 60, 29
3, 50777, Note_on_c, 0, 75, 57
3, 50781, Note_on_c, 0, 70, 43
3, 50783, Note_on_c, 0, 66, 34
3, 50907, Note_on_c, 0, 60, 0
3, 51019, Note_on_c, 0, 51, 0
3, 51227, Note_on_c, 0, 70, 0
3, 51232, Note_on_c, 0, 66, 0
3, 51245, Note_on_c, 0, 75, 0
3, 51690, Control_c, 0, 64, 0
3, 51743, Note_on_c, 0, 44, 29
3, 51745, Note_on_c, 0, 54, 25
3, 51746, Note_on_c, 0, 60, 28
3, 51750, Note_on_c, 0, 65, 54
3, 52011, Control_c, 0, 64, 127
3, 52527, Note_on_c, 0, 60, 0
3, 52700, Note_on_c, 0, 54, 0
3, 52747, Note_on_c, 0, 51, 36
3, 52750, Note_on_c, 0, 60, 37
3, 52762, Note_on_c, 0, 65, 0
3, 52916, Note_on_c, 0, 44, 0
3, 52944, Note_on_c, 0, 51, 0
3, 53032, Note_on_c, 0, 60, 0
3, 53509, Note_on_c, 0, 54, 31
3, 53613, Note_on_c, 0, 56, 40
3, 53628, Control_c, 0, 64, 0
3, 53677, Note_on_c, 0, 75, 69
3, 53683, Note_on_c, 0, 57, 56
3, 53695, Note_on_c, 0, 66, 64
3, 53708, Note_on_c, 0, 69, 63
3, 53744, Note_on_c, 0, 56, 0
3, 53774, Note_on_c, 0, 54, 0
3, 53916, Control_c, 0, 64, 127
3, 54207, Note_on_c, 0, 69, 0
3, 54289, Note_on_c, 0, 75, 0
3, 54482, Note_on_c, 0, 66, 0
3, 54611, Control_c, 0, 64, 0
3, 54674, Note_on_c, 0, 65, 58
3, 54675, Note_on_c, 0, 57, 0
3, 54690, Note_on_c, 0, 56, 51
3, 54841, Control_c, 0, 64, 127
3, 55148, Note_on_c, 0, 65, 0
3, 55490, Control_c, 0, 64, 0
3, 55585, Note_on_c, 0, 56, 0
3, 55641, Note_on_c, 0, 64, 49
3, 55642, Note_on_c, 0, 55, 45
3, 55721, Control_c, 0, 64, 127
3, 56121, Note_on_c, 0, 64, 0
3, 56516, Control_c, 0, 64, 0
3, 56560, Note_on_c, 0, 55, 0
3, 56591, Note_on_c, 0, 61, 50
3, 56596, Note_on_c, 0, 52, 39
3, 56611, Note_on_c, 0, 64, 45
3, 56746, Control_c, 0, 64, 127
3, 57034, Note_on_c, 0, 64, 0
3, 57115, Note_on_c, 0, 61, 0
3, 57541, Control_c, 0, 64, 0
3, 57552, Note_on_c, 0, 52, 0
3, 57575, Note_on_c, 0, 69, 55
3, 57580, Note_on_c, 0, 60, 35
3, 57584, Note_on_c, 0, 51, 48
3, 57588, Note_on_c, 0, 63, 49
3, 57599, Note_on_c, 0, 66, 35
3, 57829, Control_c, 0, 64, 127
3, 58065, Note_on_c, 0, 60, 0
3, 58107, Note_on_c, 0, 66, 0
3, 58176, Note_on_c, 0, 69, 0
3, 58216, Note_on_c, 0, 63, 0
3, 58436, Control_c, 0, 64, 0
3, 58497, Note_on_c, 0, 51, 0
3, 58517, Note_on_c, 0, 50, 38
3, 58526, Note_on_c, 0, 67, 44
3, 58532, Note_on_c, 0, 59, 30
3, 58545, Note_on_c, 0, 62, 39
3, 58753, Control_c, 0, 64, 127
3, 58951, Note_on_c, 0, 62, 0
3, 58971, Note_on_c, 0, 67, 0
3, 59017, Note_on_c, 0, 59, 0
3, 59345, Control_c, 0, 64, 0
3, 59447, Note_on_c, 0, 50, 0
3, 59450, Note_on_c, 0, 59, 40
3, 59467, Note_on_c, 0, 63, 42
3, 59486, Note_on_c, 0, 49, 37
3, 59590, Control_c, 0, 64, 127
3, 59615, Note_on_c, 0, 49, 0
3, 59879, Note_on_c, 0, 59, 0
3, 60074, Note_on_c, 0, 63, 0
3, 60313, Control_c, 0, 64, 0
3, 60381, Note_on_c, 0, 43, 18
3, 60385, Note_on_c, 0, 36, 40
3, 60404, Note_on_c, 0, 58, 37
3, 60419, Note_on_c, 0, 64, 36
3, 60438, Note_on_c, 0, 52, 28
3, 60543, Control_c, 0, 64, 127
3, 60556, Note_on_c, 0, 36, 0
3, 60582, Note_on_c, 0, 43, 0
3, 60707, Note_on_c, 0, 52, 0
3, 60778, Note_on_c, 0, 58, 0
3, 60824, Note_on_c, 0, 64, 0
3, 61096, Note_on_c, 0, 69, 77
3, 61102, Note_on_c, 0, 57, 65
3, 61237, Control_c, 0, 64, 0
3, 61394, Note_on_c, 0, 48, 24
3, 61422, Note_on_c, 0, 41, 22
3, 61497, Control_c, 0, 64, 127
3, 61629, Note_on_c, 0, 69, 0
3, 61746, Note_on_c, 0, 57, 0
3, 62303, Note_on_c, 0, 48, 0
3, 62348, Control_c, 0, 64, 0
3, 62374, Note_on_c, 0, 60, 32
3, 62378, Note_on_c, 0, 53, 39
3, 62385, Note_on_c, 0, 57, 35
3, 62398, Note_on_c, 0, 50, 41
3, 62973, Note_on_c, 0, 53, 0
3, 62974, Note_on_c, 0, 57, 0
3, 63036, Note_on_c, 0, 60, 0
3, 63056, Control_c, 0, 64, 127
3, 63215, Control_c, 0, 64, 0
3, 63337, Note_on_c, 0, 53, 41
3, 63359, Note_on_c, 0, 60, 25
3, 63674, Note_on_c, 0, 57, 1
3, 63749, Control_c, 0, 64, 127
3, 63888, Note_on_c, 0, 53, 0
3, 63906, Note_on_c, 0, 57, 0
3, 63972, Note_on_c, 0, 60, 0
3, 64109, Control_c, 0, 64, 0
3, 64263, Note_on_c, 0, 48, 43
3, 64267, Note_on_c, 0, 50, 0
3, 64287, Note_on_c, 0, 60, 29
3, 64303, Note_on_c, 0, 53, 44
3, 64395, Note_on_c, 0, 41, 0
3, 64413, Control_c, 0, 64, 127
3, 64423, Note_on_c, 0, 48, 0
3, 64593, Note_on_c, 0, 53, 0
3, 64678, Note_on_c, 0, 60, 0
3, 65178, Control_c, 0, 64, 0
3, 65212, Note_on_c, 0, 47, 24
3, 65218, Note_on_c, 0, 40, 46
3, 65231, Note_on_c, 0, 69, 66
3, 65254, Note_on_c, 0, 58, 52
3, 65255, Note_on_c, 0, 55, 40
3, 65261, Note_on_c, 0, 64, 42
3, 65262, Note_on_c, 0, 62, 54
3, 65274, Note_on_c, 0, 53, 32
3, 65365, Note_on_c, 0, 53, 0
3, 65510, Control_c, 0, 64, 127
3, 65637, Note_on_c, 0, 40, 0
3, 65680, Note_on_c, 0, 55, 0
3, 65817, Note_on_c, 0, 47, 0
3, 65902, Note_on_c, 0, 58, 0
3, 65933, Note_on_c, 0, 69, 0
3, 65940, Note_on_c, 0, 62, 0
3, 66125, Note_on_c, 0, 64, 0
3, 66217, Control_c, 0, 64, 0
3, 66236, Note_on_c, 0, 46, 47
3, 66247, Note_on_c, 0, 58, 47
3, 66253, Note_on_c, 0, 62, 41
3, 66262, Note_on_c, 0, 56, 29
3, 66420, Control_c, 0, 64, 127
3, 66737, Note_on_c, 0, 56, 0
3, 66777, Note_on_c, 0, 62, 0
3, 66851, Note_on_c, 0, 46, 0
3, 66872, Note_on_c, 0, 58, 0
3, 67055, Control_c, 0, 64, 0
3, 67155, Note_on_c, 0, 55, 45
3, 67158, Note_on_c, 0, 61, 50
3, 67160, Note_on_c, 0, 58, 44
3, 67172, Note_on_c, 0, 45, 35
3, 67401, Control_c, 0, 64, 127
3, 67569, Note_on_c, 0, 58, 0
3, 67653, Note_on_c, 0, 55, 0
3, 67679, Note_on_c, 0, 61, 0
3, 68023, Control_c, 0, 64, 0
3, 68069, Note_on_c, 0, 69, 81
3, 68075, Note_on_c, 0, 64, 68
3, 68078, Note_on_c, 0, 58, 83
3, 68079, Note_on_c, 0, 61, 80
3, 68095, Note_on_c, 0, 55, 61
3, 68142, Note_on_c, 0, 45, 0
3, 68325, Control_c, 0, 64, 127
3, 68570, Note_on_c, 0, 61, 0
3, 68574, Note_on_c, 0, 58, 0
3, 68605, Note_on_c, 0, 64, 0
3, 68669, Note_on_c, 0, 69, 0
3, 68964, Note_on_c, 0, 55, 0
3, 69047, Control_c, 0, 64, 0
3, 69061, Note_on_c, 0, 69, 83
3, 69064, Note_on_c, 0, 65, 81
3, 69070, Note_on_c, 0, 64, 80
3, 69078, Note_on_c, 0, 57, 61
3, 69095, Note_on_c, 0, 50, 58
3, 69408, Control_c, 0, 64, 127
3, 69635, Note_on_c, 0, 64, 0
3, 69653, Note_on_c, 0, 65, 0
3, 70070, Note_on_c, 0, 62, 45
3, 70089, Note_on_c, 0, 65, 36
3, 70291, Note_on_c, 0, 62, 0
3, 70379, Note_on_c, 0, 65, 0
3, 70383, Note_on_c, 0, 69, 0
3, 70880, Control_c, 0, 64, 0
3, 70966, Note_on_c, 0, 76, 55
3, 70975, Note_on_c, 0, 61, 46
3, 70992, Note_on_c, 0, 69, 38
3, 71021, Note_on_c, 0, 65, 15
3, 71162, Note_on_c, 0, 65, 0
3, 71175, Note_on_c, 0, 69, 0
3, 71208, Note_on_c, 0, 61, 0
3, 71227, Note_on_c, 0, 76, 0
3, 71450, Note_on_c, 0, 76, 62
3, 71459, Note_on_c, 0, 61, 42
3, 71474, Note_on_c, 0, 69, 54
3, 71487, Note_on_c, 0, 65, 42
3, 71689, Note_on_c, 0, 65, 0
3, 71709, Note_on_c, 0, 69, 0
3, 71764, Note_on_c, 0, 61, 0
3, 71787, Note_on_c, 0, 76, 0
3, 71902, Note_on_c, 0, 60, 31
3, 71903, Note_on_c, 0, 65, 40
3, 71905, Note_on_c, 0, 74, 50
3, 71921, Note_on_c, 0, 69, 36
3, 71938, Control_c, 0, 64, 127
3, 72354, Note_on_c, 0, 60, 0
3, 72441, Note_on_c, 0, 50, 0
3, 72456, Note_on_c, 0, 69, 0
3, 72485, Note_on_c, 0, 65, 0
3, 72599, Note_on_c, 0, 57, 0
3, 72854, Note_on_c, 0, 74, 0
3, 72861, Control_c, 0, 64, 0
3, 72883, Note_on_c, 0, 65, 39
3, 72886, Note_on_c, 0, 69, 49
3, 72922, Note_on_c, 0, 57, 31
3, 72923, Note_on_c, 0, 50, 43
3, 73151, Control_c, 0, 64, 127
3, 73184, Note_on_c, 0, 69, 0
3, 73270, Note_on_c, 0, 57, 0
3, 73279, Note_on_c, 0, 65, 0
3, 73367, Note_on_c, 0, 50, 0
3, 73814, Control_c, 0, 64, 0
3, 73879, Note_on_c, 0, 65, 51
3, 73892, Note_on_c, 0, 50, 32
3, 73894, Note_on_c, 0, 60, 26
3, 74003, Control_c, 0, 64, 127
3, 74292, Note_on_c, 0, 65, 0
3, 74455, Note_on_c, 0, 60, 0
3, 74768, Control_c, 0, 64, 0
3, 74814, Note_on_c, 0, 50, 0
3, 74835, Note_on_c, 0, 61, 47
3, 74844, Note_on_c, 0, 59, 36
3, 74858, Note_on_c, 0, 53, 29
3, 74878, Note_on_c, 0, 43, 22
3, 75128, Control_c, 0, 64, 127
3, 75535, Note_on_c, 0, 61, 0
3, 75537, Note_on_c, 0, 59, 0
3, 75745, Note_on_c, 0, 50, 40
3, 75757, Note_on_c, 0, 62, 53
3, 75777, Note_on_c, 0, 59, 35
3, 75797, Note_on_c, 0, 53, 0
3, 76094, Note_on_c, 0, 43, 0
3, 76156, Note_on_c, 0, 50, 0
3, 76228, Note_on_c, 0, 59, 0
3, 76262, Note_on_c, 0, 62, 0
3, 76677, Note_on_c, 0, 64, 68
3, 76681, Note_on_c, 0, 71, 75
3, 76684, Note_on_c, 0, 59, 71
3, 76689, Control_c, 0, 64, 0
3, 77240, Note_on_c, 0, 41, 60
3, 77293, Control_c, 0, 64, 127
3, 77350, Note_on_c, 0, 59, 0
3, 77400, Note_on_c, 0, 64, 0
3, 77714, Note_on_c, 0, 48, 53
3, 77936, Note_on_c, 0, 48, 0
3, 78163, Note_on_c, 0, 57, 50
3, 78175, Note_on_c, 0, 41, 0
3, 78264, Note_on_c, 0, 71, 0
3, 78335, Note_on_c, 0, 57, 0
3, 78661, Note_on_c, 0, 71, 73
3, 78675, Note_on_c, 0, 67, 72
3, 78678, Note_on_c, 0, 63, 70
3, 78713, Note_on_c, 0, 57, 32
3, 78880, Note_on_c, 0, 57, 0
3, 79432, Note_on_c, 0, 67, 0
3, 79433, Note_on_c, 0, 63, 0
3, 79474, Note_on_c, 0, 71, 0
3, 79604, Control_c, 0, 64, 0
3, 79645, Note_on_c, 0, 63, 49
3, 79646, Note_on_c, 0, 57, 38
3, 79648, Note_on_c, 0, 71, 41
3, 79668, Note_on_c, 0, 67, 40
3, 79694, Control_c, 0, 64, 127
3, 80055, Note_on_c, 0, 67, 0
3, 80057, Note_on_c, 0, 57, 0
3, 80068, Note_on_c, 0, 63, 0
3, 80352, Note_on_c, 0, 71, 0
3, 80598, Note_on_c, 0, 71, 45
3, 80604, Control_c, 0, 64, 0
3, 80610, Note_on_c, 0, 69, 57
3, 80613, Note_on_c, 0, 64, 49
3, 80624, Note_on_c, 0, 52, 44
3, 80921, Control_c, 0, 64, 127
3, 81187, Note_on_c, 0, 64, 0
3, 81206, Note_on_c, 0, 69, 0
3, 81314, Note_on_c, 0, 71, 0
3, 81533, Note_on_c, 0, 59, 36
3, 81546, Note_on_c, 0, 71, 46
3, 81573, Note_on_c, 0, 64, 41
3, 81598, Note_on_c, 0, 69, 40
3, 82058, Note_on_c, 0, 64, 0
3, 82410, Note_on_c, 0, 59, 0
3, 82798, Note_on_c, 0, 69, 0
3, 83108, Note_on_c, 0, 71, 0
3, 83432, Note_on_c, 0, 64, 48
3, 83435, Note_on_c, 0, 59, 44
3, 83436, Note_on_c, 0, 68, 60
3, 83580, Note_on_c, 0, 59, 0
3, 83641, Note_on_c, 0, 52, 0
3, 83860, Note_on_c, 0, 68, 0
3, 84213, Control_c, 0, 64, 0
3, 84375, Note_on_c, 0, 45, 67
3, 84457, Control_c, 0, 64, 127
3, 84528, Note_on_c, 0, 45, 0
3, 84607, Note_on_c, 0, 64, 0
3, 88328, Note_on_c, 0, 74, 76
3, 88340, Note_on_c, 0, 61, 75
3, 88341, Note_on_c, 0, 66, 79
3, 88342, Note_on_c, 0, 69, 78
3, 88357, Note_on_c, 0, 59, 68
3, 88368, Note_on_c, 0, 57, 59
3, 88389, Control_c, 0, 64, 0
3, 88619, Control_c, 0, 64, 127
3, 88930, Note_on_c, 0, 74, 0
3, 89096, Note_on_c, 0, 69, 0
3, 89168, Note_on_c, 0, 66, 0
3, 89240, Note_on_c, 0, 74, 71
3, 89283, Note_on_c, 0, 61, 0
3, 89460, Note_on_c, 0, 57, 0
3, 89487, Note_on_c, 0, 59, 0
3, 89489, Note_on_c, 0, 74, 0
3, 90209, Control_c, 0, 64, 0
3, 90230, Note_on_c, 0, 73, 40
3, 90250, Note_on_c, 0, 55, 38
3, 90261, Note_on_c, 0, 61, 28
3, 90279, Note_on_c, 0, 45, 30
3, 90425, Control_c, 0, 64, 127
3, 90514, Note_on_c, 0, 73, 0
3, 90636, Note_on_c, 0, 61, 0
3, 90798, Note_on_c, 0, 55, 0
3, 91153, Note_on_c, 0, 58, 33
3, 91162, Note_on_c, 0, 64, 32
3, 91163, Note_on_c, 0, 52, 28
3, 91173, Note_on_c, 0, 61, 34
3, 91257, Note_on_c, 0, 45, 0
3, 91310, Note_on_c, 0, 52, 0
3, 91359, Note_on_c, 0, 58, 0
3, 91372, Note_on_c, 0, 64, 0
3, 91410, Note_on_c, 0, 61, 0
3, 92086, Note_on_c, 0, 74, 50
3, 92099, Control_c, 0, 64, 0
3, 92104, Note_on_c, 0, 69, 46
3, 92107, Note_on_c, 0, 64, 34
3, 92122, Note_on_c, 0, 67, 41
3, 92125, Note_on_c, 0, 62, 40
3, 92582, Note_on_c, 0, 50, 34
3, 92676, Control_c, 0, 64, 127
3, 92773, Note_on_c, 0, 64, 0
3, 92838, Note_on_c, 0, 67, 0
3, 92851, Note_on_c, 0, 62, 0
3, 93053, Note_on_c, 0, 74, 0
3, 93058, Note_on_c, 0, 69, 0
3, 93093, Note_on_c, 0, 64, 38
3, 93116, Note_on_c, 0, 67, 45
3, 93162, Note_on_c, 0, 64, 0
3, 93213, Note_on_c, 0, 67, 0
3, 93617, Note_on_c, 0, 86, 75
3, 93778, Note_on_c, 0, 86, 0
3, 94095, Note_on_c, 0, 74, 76
3, 94154, Note_on_c, 0, 62, 38
3, 94451, Note_on_c, 0, 50, 0
3, 94585, Note_on_c, 0, 50, 35
3, 94810, Note_on_c, 0, 62, 0
3, 95067, Note_on_c, 0, 64, 32
3, 95072, Note_on_c, 0, 67, 41
3, 95125, Note_on_c, 0, 62, 31
3, 95412, Note_on_c, 0, 50, 0
3, 95551, Note_on_c, 0, 50, 40
3, 95599, Note_on_c, 0, 64, 0
3, 95661, Note_on_c, 0, 67, 0
3, 95793, Note_on_c, 0, 62, 0
3, 96039, Note_on_c, 0, 66, 59
3, 96046, Note_on_c, 0, 63, 67
3, 96090, Note_on_c, 0, 62, 48
3, 96097, Control_c, 0, 64, 0
3, 96149, Note_on_c, 0, 62, 0
3, 96386, Control_c, 0, 64, 127
3, 96523, Note_on_c, 0, 62, 39
3, 96810, Note_on_c, 0, 50, 0
3, 96954, Note_on_c, 0, 50, 33
3, 97299, Note_on_c, 0, 50, 0
3, 97478, Note_on_c, 0, 63, 0
3, 97485, Note_on_c, 0, 50, 25
3, 97510, Note_on_c, 0, 62, 0
3, 97941, Note_on_c, 0, 62, 48
3, 98042, Note_on_c, 0, 66, 0
3, 98155, Note_on_c, 0, 71, 1
3, 98562, Note_on_c, 0, 62, 0
3, 98813, Note_on_c, 0, 50, 0
3, 98814, Note_on_c, 0, 74, 0
3, 98872, Note_on_c, 0, 63, 56
3, 98875, Note_on_c, 0, 66, 37
3, 98880, Note_on_c, 0, 71, 0
3, 99099, Note_on_c, 0, 63, 0
3, 99122, Note_on_c, 0, 66, 0
3, 99360, Note_on_c, 0, 50, 24
3, 99441, Note_on_c, 0, 50, 0
3, 99765, Control_c, 0, 64, 0
3, 99803, Note_on_c, 0, 53, 42
3, 99824, Note_on_c, 0, 60, 36
3, 99825, Note_on_c, 0, 57, 32
3, 99835, Note_on_c, 0, 43, 41
3, 100054, Control_c, 0, 64, 127
3, 100080, Note_on_c, 0, 53, 0
3, 100169, Note_on_c, 0, 57, 0
3, 100178, Note_on_c, 0, 60, 0
3, 100353, Note_on_c, 0, 50, 49
3, 100364, Note_on_c, 0, 43, 0
3, 100420, Note_on_c, 0, 50, 0
3, 100850, Note_on_c, 0, 74, 81
3, 100860, Note_on_c, 0, 69, 87
3, 100862, Note_on_c, 0, 65, 85
3, 100895, Control_c, 0, 64, 0
3, 101345, Note_on_c, 0, 64, 74
3, 101573, Control_c, 0, 64, 127
3, 101749, Note_on_c, 0, 64, 0
3, 101789, Control_c, 0, 64, 0
3, 101813, Note_on_c, 0, 62, 54
3, 102126, Note_on_c, 0, 65, 0
3, 102136, Control_c, 0, 64, 127
3, 102240, Note_on_c, 0, 69, 0
3, 102457, Note_on_c, 0, 74, 0
3, 102692, Note_on_c, 0, 74, 55
3, 102696, Note_on_c, 0, 65, 44
3, 102701, Control_c, 0, 64, 0
3, 102702, Note_on_c, 0, 61, 59
3, 102722, Note_on_c, 0, 69, 42
3, 102753, Note_on_c, 0, 62, 0
3, 102887, Control_c, 0, 64, 127
3, 102957, Note_on_c, 0, 65, 0
3, 103094, Note_on_c, 0, 69, 0
3, 103196, Note_on_c, 0, 74, 0
3, 103537, Control_c, 0, 64, 0
3, 103563, Note_on_c, 0, 61, 0
3, 103586, Note_on_c, 0, 74, 53
3, 103592, Note_on_c, 0, 60, 33
3, 103608, Note_on_c, 0, 65, 41
3, 103611, Note_on_c, 0, 69, 48
3, 103710, Control_c, 0, 64, 127
3, 103784, Note_on_c, 0, 60, 0
3, 103894, Note_on_c, 0, 74, 0
3, 103916, Note_on_c, 0, 69, 0
3, 103992, Note_on_c, 0, 65, 0
3, 104093, Note_on_c, 0, 50, 27
3, 104570, Note_on_c, 0, 62, 40
3, 104583, Note_on_c, 0, 53, 34
3, 104591, Note_on_c, 0, 57, 33
3, 104604, Control_c, 0, 64, 0
3, 104622, Note_on_c, 0, 59, 38
3, 105087, Note_on_c, 0, 43, 43
3, 105175, Note_on_c, 0, 53, 0
3, 105185, Note_on_c, 0, 50, 0
3, 105240, Control_c, 0, 64, 127
3, 105523, Note_on_c, 0, 57, 0
3, 105605, Note_on_c, 0, 53, 35
3, 105611, Note_on_c, 0, 62, 0
3, 105711, Note_on_c, 0, 59, 0
3, 105772, Note_on_c, 0, 53, 0
3, 106085, Note_on_c, 0, 53, 51
3, 106582, Note_on_c, 0, 76, 92
3, 106615, Note_on_c, 0, 43, 0
3, 106695, Note_on_c, 0, 53, 0
3, 106883, Note_on_c, 0, 76, 0
3, 107008, Note_on_c, 0, 76, 83
3, 107087, Note_on_c, 0, 75, 30
3, 107136, Note_on_c, 0, 75, 0
3, 107444, Note_on_c, 0, 65, 47
3, 107446, Note_on_c, 0, 69, 51
3, 107450, Control_c, 0, 64, 0
3, 107458, Note_on_c, 0, 64, 36
3, 107738, Control_c, 0, 64, 127
3, 108036, Note_on_c, 0, 65, 0
3, 108057, Note_on_c, 0, 69, 0
3, 108091, Note_on_c, 0, 62, 47
3, 108094, Note_on_c, 0, 64, 0
3, 108697, Note_on_c, 0, 62, 0
3, 109210, Note_on_c, 0, 76, 0
3, 109413, Control_c, 0, 64, 0
3, 109424, Note_on_c, 0, 47, 45
3, 109657, Control_c, 0, 64, 127
3, 110012, Note_on_c, 0, 62, 55
3, 110013, Note_on_c, 0, 57, 34
3, 110513, Note_on_c, 0, 47, 0
3, 110598, Note_on_c, 0, 57, 0
3, 110694, Note_on_c, 0, 62, 0
3, 110759, Note_on_c, 0, 67, 53
3, 110956, Note_on_c, 0, 67, 0
3, 111406, Control_c, 0, 64, 0
3, 111423, Note_on_c, 0, 62, 58
3, 111434, Note_on_c, 0, 57, 35
3, 111455, Note_on_c, 0, 52, 35
3, 111460, Note_on_c, 0, 58, 48
3, 111679, Control_c, 0, 64, 127
3, 112337, Note_on_c, 0, 52, 0
3, 112366, Note_on_c, 0, 57, 0
3, 112390, Note_on_c, 0, 58, 0
3, 112441, Note_on_c, 0, 62, 0
3, 113210, Control_c, 0, 64, 0
3, 113260, Note_on_c, 0, 62, 66
3, 113265, Note_on_c, 0, 67, 80
3, 113266, Note_on_c, 0, 79, 91
3, 113276, Note_on_c, 0, 72, 95
3, 113279, Note_on_c, 0, 56, 73
3, 113440, Control_c, 0, 64, 127
3, 113695, Note_on_c, 0, 67, 0
3, 113711, Note_on_c, 0, 62, 0
3, 113722, Note_on_c, 0, 79, 0
3, 113754, Note_on_c, 0, 72, 0
3, 113853, Note_on_c, 0, 56, 0
3, 114162, Control_c, 0, 64, 0
3, 114192, Note_on_c, 0, 77, 62
3, 114214, Note_on_c, 0, 66, 56
3, 114216, Note_on_c, 0, 70, 55
3, 114232, Note_on_c, 0, 61, 46
3, 114237, Note_on_c, 0, 55, 42
3, 114365, Control_c, 0, 64, 127
3, 114415, Note_on_c, 0, 66, 0
3, 114438, Note_on_c, 0, 55, 0
3, 114460, Note_on_c, 0, 61, 0
3, 114527, Note_on_c, 0, 77, 0
3, 114725, Note_on_c, 0, 70, 0
3, 115144, Control_c, 0, 64, 0
3, 115171, Note_on_c, 0, 60, 44
3, 115173, Note_on_c, 0, 77, 60
3, 115178, Note_on_c, 0, 66, 51
3, 115190, Note_on_c, 0, 50, 39
3, 115196, Note_on_c, 0, 70, 53
3, 115210, Note_on_c, 0, 72, 46
3, 115245, Note_on_c, 0, 70, 0
3, 115268, Note_on_c, 0, 66, 0
3, 115282, Note_on_c, 0, 72, 0
3, 115294, Note_on_c, 0, 60, 0
3, 115314, Note_on_c, 0, 77, 0
3, 115315, Note_on_c, 0, 50, 0
3, 115740, Note_on_c, 0, 66, 52
3, 115754, Note_on_c, 0, 60, 36
3, 115762, Note_on_c, 0, 70, 48
3, 115766, Note_on_c, 0, 72, 42
3, 115769, Note_on_c, 0, 57, 30
3, 115780, Note_on_c, 0, 50, 32
3, 116274, Control_c, 0, 64, 127
3, 116496, Note_on_c, 0, 72, 0
3, 116729, Note_on_c, 0, 50, 0
3, 116746, Note_on_c, 0, 66, 0
3, 116777, Note_on_c, 0, 60, 0
3, 116813, Note_on_c, 0, 70, 0
3, 116824, Note_on_c, 0, 57, 0
3, 117096, Control_c, 0, 64, 0
3, 117150, Note_on_c, 0, 50, 33
3, 117161, Note_on_c, 0, 66, 40
3, 117171, Note_on_c, 0, 60, 28
3, 117357, Control_c, 0, 64, 127
3, 117811, Note_on_c, 0, 66, 0
3, 117922, Note_on_c, 0, 60, 0
3, 118086, Note_on_c, 0, 66, 29
3, 118093, Note_on_c, 0, 57, 26
3, 118247, Note_on_c, 0, 57, 0
3, 118330, Note_on_c, 0, 50, 0
3, 118364, Note_on_c, 0, 66, 0
3, 118973, Control_c, 0, 64, 0
3, 119002, Note_on_c, 0, 64, 38
3, 119003, Note_on_c, 0, 68, 39
3, 119016, Note_on_c, 0, 59, 30
3, 119020, Note_on_c, 0, 43, 29
3, 119026, Note_on_c, 0, 53, 26
3, 119334, Control_c, 0, 64, 127
3, 119536, Note_on_c, 0, 64, 0
3, 119546, Note_on_c, 0, 53, 0
3, 119719, Note_on_c, 0, 59, 0
3, 119991, Note_on_c, 0, 59, 34
3, 119994, Note_on_c, 0, 63, 36
3, 120012, Note_on_c, 0, 53, 20
3, 120014, Note_on_c, 0, 43, 0
3, 120157, Note_on_c, 0, 53, 0
3, 120346, Note_on_c, 0, 59, 0
3, 120633, Note_on_c, 0, 63, 0
3, 120751, Note_on_c, 0, 68, 0
3, 120822, Control_c, 0, 64, 0
3, 120889, Note_on_c, 0, 62, 40
3, 120911, Note_on_c, 0, 36, 30
3, 120930, Note_on_c, 0, 58, 28
3, 120934, Note_on_c, 0, 43, 16
3, 121095, Control_c, 0, 64, 127
3, 121153, Note_on_c, 0, 43, 0
3, 121261, Note_on_c, 0, 62, 0
3, 121277, Note_on_c, 0, 58, 0
3, 121388, Note_on_c, 0, 36, 0
3, 121861, Note_on_c, 0, 52, 39
3, 121864, Note_on_c, 0, 61, 47
3, 121879, Note_on_c, 0, 58, 38
3, 121882, Note_on_c, 0, 36, 40
3, 121903, Control_c, 0, 64, 0
3, 121988, Note_on_c, 0, 36, 0
3, 121995, Note_on_c, 0, 52, 0
3, 122010, Note_on_c, 0, 58, 0
3, 122013, Note_on_c, 0, 61, 0
3, 122598, Note_on_c, 0, 73, 56
3, 122605, Note_on_c, 0, 63, 67
3, 122608, Note_on_c, 0, 58, 59
3, 122620, Note_on_c, 0, 68, 55
3, 122804, Note_on_c, 0, 58, 0
3, 122813, Note_on_c, 0, 73, 0
3, 122843, Note_on_c, 0, 68, 0
3, 122860, Note_on_c, 0, 63, 0
3, 122987, Note_on_c, 0, 62, 55
3, 123003, Note_on_c, 0, 57, 41
3, 123009, Note_on_c, 0, 67, 48
3, 123085, Control_c, 0, 64, 127
3, 123389, Note_on_c, 0, 67, 0
3, 123563, Note_on_c, 0, 62, 0
3, 123875, Note_on_c, 0, 57, 0
3, 123880, Control_c, 0, 64, 0
3, 123923, Note_on_c, 0, 69, 53
3, 123926, Note_on_c, 0, 60, 33
3, 123937, Note_on_c, 0, 64, 48
3, 123962, Note_on_c, 0, 53, 38
3, 124025, Control_c, 0, 64, 127
3, 124211, Note_on_c, 0, 53, 0
3, 124269, Note_on_c, 0, 64, 0
3, 124293, Note_on_c, 0, 69, 0
3, 124372, Note_on_c, 0, 60, 0
3, 124862, Control_c, 0, 64, 0
3, 124886, Note_on_c, 0, 57, 34
3, 124896, Note_on_c, 0, 60, 24
3, 124902, Note_on_c, 0, 65, 34
3, 124904, Note_on_c, 0, 41, 33
3, 124909, Note_on_c, 0, 48, 27
3, 125180, Control_c, 0, 64, 127
3, 125196, Note_on_c, 0, 41, 0
3, 125404, Note_on_c, 0, 60, 0
3, 125412, Note_on_c, 0, 57, 0
3, 125794, Note_on_c, 0, 65, 0
3, 125887, Note_on_c, 0, 48, 0
3, 125904, Note_on_c, 0, 57, 35
3, 125906, Note_on_c, 0, 60, 34
3, 126050, Note_on_c, 0, 57, 0
3, 126092, Note_on_c, 0, 60, 0
3, 126489, Note_on_c, 0, 70, 87
3, 126501, Note_on_c, 0, 58, 82
3, 126502, Note_on_c, 0, 62, 84
3, 126601, Note_on_c, 0, 62, 0
3, 126665, Note_on_c, 0, 70, 0
3, 126770, Note_on_c, 0, 58, 0
3, 126855, Control_c, 0, 64, 0
3, 126872, Note_on_c, 0, 69, 70
3, 126908, Note_on_c, 0, 58, 67
3, 126910, Note_on_c, 0, 62, 70
3, 126922, Note_on_c, 0, 64, 49
3, 126928, Note_on_c, 0, 57, 65
3, 127187, Control_c, 0, 64, 127
3, 127393, Note_on_c, 0, 57, 0
3, 127447, Note_on_c, 0, 62, 0
3, 127482, Note_on_c, 0, 58, 0
3, 127483, Note_on_c, 0, 64, 0
3, 127611, Note_on_c, 0, 69, 0
3, 127808, Control_c, 0, 64, 0
3, 127860, Note_on_c, 0, 55, 46
3, 127863, Note_on_c, 0, 67, 51
3, 127864, Note_on_c, 0, 58, 46
3, 127886, Note_on_c, 0, 62, 42
3, 127890, Note_on_c, 0, 45, 36
3, 127923, Note_on_c, 0, 64, 27
3, 128140, Control_c, 0, 64, 127
3, 128172, Note_on_c, 0, 67, 0
3, 128216, Note_on_c, 0, 64, 0
3, 128230, Note_on_c, 0, 62, 0
3, 128250, Note_on_c, 0, 58, 0
3, 128262, Note_on_c, 0, 55, 0
3, 128681, Note_on_c, 0, 45, 0
3, 128731, Control_c, 0, 64, 0
3, 128786, Note_on_c, 0, 61, 46
3, 128802, Note_on_c, 0, 64, 42
3, 128813, Note_on_c, 0, 55, 37
3, 128820, Note_on_c, 0, 49, 38
3, 128829, Note_on_c, 0, 58, 32
3, 129006, Control_c, 0, 64, 127
3, 129092, Note_on_c, 0, 55, 0
3, 129150, Note_on_c, 0, 58, 0
3, 129159, Note_on_c, 0, 61, 0
3, 129201, Note_on_c, 0, 64, 0
3, 129627, Control_c, 0, 64, 0
3, 129689, Note_on_c, 0, 58, 38
3, 129691, Note_on_c, 0, 61, 49
3, 129693, Note_on_c, 0, 67, 48
3, 129703, Note_on_c, 0, 52, 37
3, 129751, Note_on_c, 0, 64, 22
3, 129755, Note_on_c, 0, 49, 0
3, 129815, Control_c, 0, 64, 127
3, 129892, Note_on_c, 0, 64, 0
3, 129900, Note_on_c, 0, 52, 0
3, 129934, Note_on_c, 0, 58, 0
3, 130024, Note_on_c, 0, 67, 0
3, 130106, Note_on_c, 0, 61, 0
3, 130580, Control_c, 0, 64, 0
3, 130635, Note_on_c, 0, 67, 67
3, 130638, Note_on_c, 0, 64, 66
3, 130649, Note_on_c, 0, 57, 32
3, 130655, Note_on_c, 0, 50, 33
3, 131028, Control_c, 0, 64, 127
3, 131304, Note_on_c, 0, 64, 0
3, 131437, Note_on_c, 0, 67, 0
3, 131446, Control_c, 0, 64, 0
3, 131556, Note_on_c, 0, 65, 63
3, 131566, Note_on_c, 0, 61, 54
3, 131577, Note_on_c, 0, 62, 50
3, 131591, Control_c, 0, 64, 127
3, 131906, Note_on_c, 0, 62, 0
3, 131971, Note_on_c, 0, 65, 0
3, 132278, Note_on_c, 0, 61, 0
3, 132514, Control_c, 0, 64, 0
3, 132523, Note_on_c, 0, 76, 84
3, 132528, Note_on_c, 0, 57, 0
3, 132536, Note_on_c, 0, 65, 75
3, 132538, Note_on_c, 0, 69, 74
3, 132562, Note_on_c, 0, 60, 42
3, 132933, Control_c, 0, 64, 127
3, 133110, Note_on_c, 0, 69, 0
3, 133162, Note_on_c, 0, 65, 0
3, 133356, Note_on_c, 0, 76, 0
3, 133392, Note_on_c, 0, 60, 0
3, 133464, Note_on_c, 0, 57, 40
3, 133466, Note_on_c, 0, 74, 50
3, 133477, Note_on_c, 0, 65, 39
3, 133496, Note_on_c, 0, 69, 52
3, 133669, Note_on_c, 0, 50, 0
3, 133695, Note_on_c, 0, 74, 0
3, 133739, Note_on_c, 0, 57, 0
3, 133742, Note_on_c, 0, 69, 0
3, 133797, Note_on_c, 0, 65, 0
3, 134400, Note_on_c, 0, 59, 40
3, 134406, Control_c, 0, 64, 0
3, 134408, Note_on_c, 0, 64, 40
3, 134418, Note_on_c, 0, 43, 30
3, 134422, Note_on_c, 0, 53, 44
3, 134738, Control_c, 0, 64, 127
3, 134897, Note_on_c, 0, 53, 0
3, 135034, Note_on_c, 0, 64, 0
3, 135143, Note_on_c, 0, 59, 0
3, 135358, Control_c, 0, 64, 0
3, 135387, Note_on_c, 0, 59, 36
3, 135390, Note_on_c, 0, 63, 34
3, 135392, Note_on_c, 0, 54, 52
3, 135662, Control_c, 0, 64, 127
3, 135891, Note_on_c, 0, 54, 0
3, 136036, Note_on_c, 0, 59, 0
3, 136111, Note_on_c, 0, 63, 0
3, 136225, Control_c, 0, 64, 0
3, 136323, Note_on_c, 0, 62, 58
3, 136343, Note_on_c, 0, 59, 31
3, 136357, Note_on_c, 0, 53, 38
3, 136407, Note_on_c, 0, 59, 0
3, 136441, Control_c, 0, 64, 127
3, 136480, Note_on_c, 0, 62, 0
3, 136486, Note_on_c, 0, 43, 0
3, 137233, Note_on_c, 0, 53, 0
3, 137275, Note_on_c, 0, 43, 48
3, 137318, Note_on_c, 0, 76, 94
3, 137322, Note_on_c, 0, 69, 99
3, 137392, Note_on_c, 0, 43, 0
3, 138003, Note_on_c, 0, 69, 0
3, 138245, Note_on_c, 0, 69, 56
3, 138252, Note_on_c, 0, 65, 44
3, 138275, Note_on_c, 0, 64, 41
3, 138288, Control_c, 0, 64, 0
3, 138635, Control_c, 0, 64, 127
3, 138934, Note_on_c, 0, 69, 0
3, 138941, Note_on_c, 0, 65, 0
3, 139170, Control_c, 0, 64, 0
3, 139184, Note_on_c, 0, 64, 0
3, 139200, Note_on_c, 0, 62, 55
3, 139270, Control_c, 0, 64, 127
3, 139272, Note_on_c, 0, 76, 0
3, 139439, Note_on_c, 0, 62, 0
3, 140152, Control_c, 0, 64, 0
3, 140155, Note_on_c, 0, 64, 39
3, 140160, Note_on_c, 0, 53, 44
3, 140162, Note_on_c, 0, 59, 39
3, 140489, Note_on_c, 0, 64, 0
3, 140515, Note_on_c, 0, 53, 0
3, 140555, Note_on_c, 0, 59, 0
3, 140708, Note_on_c, 0, 63, 48
3, 140709, Note_on_c, 0, 59, 44
3, 140713, Note_on_c, 0, 54, 31
3, 140801, Control_c, 0, 64, 127
3, 140960, Control_c, 0, 64, 0
3, 140986, Note_on_c, 0, 59, 0
3, 141017, Note_on_c, 0, 54, 0
3, 141049, Note_on_c, 0, 63, 0
3, 141147, Note_on_c, 0, 62, 45
3, 141154, Note_on_c, 0, 53, 35
3, 141163, Note_on_c, 0, 59, 30
3, 141206, Control_c, 0, 64, 127
3, 141389, Note_on_c, 0, 53, 0
3, 141455, Note_on_c, 0, 59, 0
3, 141534, Note_on_c, 0, 62, 0
3, 142071, Control_c, 0, 64, 0
3, 142093, Note_on_c, 0, 72, 56
3, 142109, Note_on_c, 0, 65, 48
3, 142110, Note_on_c, 0, 60, 29
3, 142123, Note_on_c, 0, 62, 42
3, 142462, Control_c, 0, 64, 127
3, 142610, Note_on_c, 0, 60, 0
3, 142626, Note_on_c, 0, 48, 44
3, 142698, Note_on_c, 0, 62, 0
3, 142764, Note_on_c, 0, 65, 0
3, 143117, Note_on_c, 0, 72, 0
3, 143151, Note_on_c, 0, 65, 51
3, 143163, Note_on_c, 0, 62, 42
3, 143506, Note_on_c, 0, 65, 0
3, 143644, Note_on_c, 0, 62, 0
3, 144060, Note_on_c, 0, 69, 72
3, 144076, Note_on_c, 0, 58, 64
3, 144079, Note_on_c, 0, 62, 68
3, 144096, Note_on_c, 0, 65, 54
3, 144107, Control_c, 0, 64, 0
3, 144118, Note_on_c, 0, 57, 34
3, 144343, Note_on_c, 0, 48, 0
3, 144574, Note_on_c, 0, 48, 64
3, 144786, Control_c, 0, 64, 127
3, 145388, Note_on_c, 0, 48, 0
3, 145516, Note_on_c, 0, 48, 54
3, 145520, Note_on_c, 0, 69, 0
3, 145563, Note_on_c, 0, 57, 0
3, 145576, Note_on_c, 0, 62, 0
3, 145609, Note_on_c, 0, 65, 0
3, 145641, Note_on_c, 0, 58, 0
3, 146071, Control_c, 0, 64, 0
3, 146185, Control_c, 0, 64, 127
3, 146347, Note_on_c, 0, 48, 0
3, 146455, Note_on_c, 0, 48, 68
3, 146807, Control_c, 0, 64, 0
3, 146905, Note_on_c, 0, 60, 65
3, 146907, Note_on_c, 0, 67, 75
3, 146910, Note_on_c, 0, 57, 80
3, 146917, Note_on_c, 0, 64, 62
3, 147133, Note_on_c, 0, 48, 0
3, 147313, Control_c, 0, 64, 127
3, 147402, Note_on_c, 0, 48, 51
3, 147650, Note_on_c, 0, 48, 0
3, 147910, Note_on_c, 0, 48, 57
3, 147948, Note_on_c, 0, 64, 0
3, 148067, Note_on_c, 0, 60, 0
3, 148093, Note_on_c, 0, 57, 0
3, 148148, Note_on_c, 0, 67, 0
3, 148396, Control_c, 0, 64, 0
3, 148443, Note_on_c, 0, 57, 46
3, 148448, Note_on_c, 0, 60, 37
3, 148456, Note_on_c, 0, 62, 48
3, 148461, Note_on_c, 0, 65, 37
3, 148785, Control_c, 0, 64, 127
3, 148949, Note_on_c, 0, 48, 0
3, 149254, Note_on_c, 0, 57, 0
3, 149304, Note_on_c, 0, 48, 41
3, 149410, Note_on_c, 0, 62, 0
3, 149417, Note_on_c, 0, 60, 0
3, 149686, Note_on_c, 0, 65, 0
3, 149795, Control_c, 0, 64, 0
3, 149823, Note_on_c, 0, 63, 53
3, 149844, Note_on_c, 0, 58, 44
3, 149847, Note_on_c, 0, 55, 35
3, 150041, Control_c, 0, 64, 127
3, 150165, Note_on_c, 0, 48, 0
3, 150230, Note_on_c, 0, 55, 0
3, 150286, Control_c, 0, 64, 0
3, 150344, Note_on_c, 0, 58, 0
3, 150356, Note_on_c, 0, 47, 56
3, 150377, Note_on_c, 0, 63, 0
3, 150474, Control_c, 0, 64, 127
3, 151212, Note_on_c, 0, 74, 71
3, 151240, Control_c, 0, 64, 0
3, 151248, Note_on_c, 0, 66, 39
3, 151273, Note_on_c, 0, 69, 28
3, 151279, Note_on_c, 0, 57, 34
3, 151294, Note_on_c, 0, 63, 25
3, 151499, Control_c, 0, 64, 127
3, 151613, Note_on_c, 0, 74, 0
3, 151637, Note_on_c, 0, 69, 0
3, 151652, Note_on_c, 0, 57, 0
3, 151673, Note_on_c, 0, 63, 0
3, 151678, Note_on_c, 0, 66, 0
3, 151758, Control_c, 0, 64, 0
3, 151787, Note_on_c, 0, 71, 60
3, 151800, Note_on_c, 0, 63, 44
3, 151819, Note_on_c, 0, 57, 30
3, 151822, Note_on_c, 0, 66, 48
3, 152062, Control_c, 0, 64, 127
3, 152402, Note_on_c, 0, 57, 0
3, 152432, Note_on_c, 0, 63, 0
3, 152507, Note_on_c, 0, 66, 0
3, 152566, Note_on_c, 0, 71, 0
3, 152639, Control_c, 0, 64, 0
3, 152670, Note_on_c, 0, 57, 35
3, 152675, Note_on_c, 0, 66, 51
3, 152681, Note_on_c, 0, 63, 50
3, 152769, Control_c, 0, 64, 127
3, 152938, Note_on_c, 0, 47, 0
3, 152949, Note_on_c, 0, 57, 0
3, 153158, Note_on_c, 0, 63, 0
3, 153430, Note_on_c, 0, 66, 0
3, 153519, Control_c, 0, 64, 0
3, 153580, Note_on_c, 0, 46, 32
3, 153591, Note_on_c, 0, 57, 26
3, 153601, Note_on_c, 0, 61, 43
3, 153609, Note_on_c, 0, 65, 37
3, 153823, Control_c, 0, 64, 127
3, 154285, Note_on_c, 0, 57, 0
3, 154330, Note_on_c, 0, 65, 0
3, 154363, Note_on_c, 0, 61, 0
3, 154588, Note_on_c, 0, 61, 55
3, 154594, Note_on_c, 0, 72, 59
3, 154596, Note_on_c, 0, 57, 40
3, 154599, Note_on_c, 0, 65, 59
3, 154604, Control_c, 0, 64, 0
3, 154949, Control_c, 0, 64, 127
3, 155086, Note_on_c, 0, 57, 0
3, 155260, Note_on_c, 0, 61, 0
3, 155313, Note_on_c, 0, 65, 0
3, 155377, Note_on_c, 0, 72, 0
3, 155541, Control_c, 0, 64, 0
3, 155584, Note_on_c, 0, 61, 46
3, 155586, Note_on_c, 0, 70, 57
3, 155612, Note_on_c, 0, 55, 35
3, 155619, Note_on_c, 0, 65, 50
3, 155773, Control_c, 0, 64, 127
3, 155792, Note_on_c, 0, 46, 0
3, 155879, Note_on_c, 0, 61, 0
3, 155888, Note_on_c, 0, 65, 0
3, 155891, Note_on_c, 0, 55, 0
3, 155983, Note_on_c, 0, 70, 0
3, 156478, Note_on_c, 0, 76, 88
3, 156480, Note_on_c, 0, 68, 84
3, 156486, Note_on_c, 0, 65, 91
3, 156494, Control_c, 0, 64, 0
3, 156496, Note_on_c, 0, 72, 74
3, 156503, Note_on_c, 0, 64, 76
3, 156885, Control_c, 0, 64, 127
3, 157183, Note_on_c, 0, 72, 0
3, 157216, Note_on_c, 0, 65, 0
3, 157253, Note_on_c, 0, 64, 0
3, 157283, Note_on_c, 0, 76, 0
3, 157291, Note_on_c, 0, 68, 0
3, 157433, Control_c, 0, 64, 0
3, 157466, Note_on_c, 0, 68, 53
3, 157468, Note_on_c, 0, 62, 51
3, 157471, Note_on_c, 0, 76, 63
3, 157479, Note_on_c, 0, 72, 50
3, 157484, Note_on_c, 0, 53, 43
3, 157485, Note_on_c, 0, 65, 54
3, 157793, Control_c, 0, 64, 127
3, 158129, Note_on_c, 0, 72, 0
3, 158179, Note_on_c, 0, 68, 0
3, 158189, Note_on_c, 0, 65, 0
3, 158322, Note_on_c, 0, 62, 0
3, 158342, Control_c, 0, 64, 0
3, 158345, Note_on_c, 0, 76, 0
3, 158381, Note_on_c, 0, 72, 52
3, 158394, Note_on_c, 0, 60, 30
3, 158399, Note_on_c, 0, 65, 48
3, 158410, Note_on_c, 0, 68, 35
3, 158602, Control_c, 0, 64, 127
3, 158744, Note_on_c, 0, 65, 0
3, 158790, Note_on_c, 0, 72, 0
3, 158791, Note_on_c, 0, 68, 0
3, 159285, Note_on_c, 0, 79, 64
3, 159295, Control_c, 0, 64, 0
3, 159314, Note_on_c, 0, 68, 37
3, 159317, Note_on_c, 0, 72, 51
3, 159320, Note_on_c, 0, 64, 46
3, 159387, Note_on_c, 0, 60, 0
3, 159585, Control_c, 0, 64, 127
3, 159730, Note_on_c, 0, 64, 0
3, 159962, Note_on_c, 0, 68, 0
3, 159994, Note_on_c, 0, 72, 0
3, 160051, Note_on_c, 0, 79, 0
3, 160231, Note_on_c, 0, 62, 45
3, 160257, Note_on_c, 0, 68, 34
3, 160258, Note_on_c, 0, 77, 57
3, 160267, Note_on_c, 0, 72, 46
3, 160368, Note_on_c, 0, 62, 0
3, 160420, Note_on_c, 0, 68, 0
3, 160431, Note_on_c, 0, 53, 0
3, 160443, Note_on_c, 0, 72, 0
3, 160477, Note_on_c, 0, 77, 0
3, 161114, Control_c, 0, 64, 0
3, 161160, Note_on_c, 0, 84, 69
3, 161176, Note_on_c, 0, 46, 34
3, 161189, Note_on_c, 0, 77, 55
3, 161190, Note_on_c, 0, 56, 31
3, 161192, Note_on_c, 0, 73, 32
3, 161392, Note_on_c, 0, 46, 0
3, 161403, Control_c, 0, 64, 127
3, 161451, Note_on_c, 0, 56, 0
3, 161886, Note_on_c, 0, 77, 0
3, 161897, Note_on_c, 0, 73, 0
3, 161969, Note_on_c, 0, 84, 0
3, 162127, Note_on_c, 0, 73, 34
3, 162133, Note_on_c, 0, 65, 38
3, 162135, Note_on_c, 0, 82, 56
3, 162146, Note_on_c, 0, 60, 27
3, 162165, Note_on_c, 0, 77, 50
3, 162171, Note_on_c, 0, 61, 33
3, 162463, Note_on_c, 0, 65, 0
3, 162506, Note_on_c, 0, 73, 0
3, 162509, Note_on_c, 0, 60, 0
3, 162562, Note_on_c, 0, 61, 0
3, 162571, Note_on_c, 0, 77, 0
3, 162885, Note_on_c, 0, 82, 0
3, 163121, Control_c, 0, 64, 0
3, 163146, Note_on_c, 0, 82, 53
3, 163147, Note_on_c, 0, 70, 55
3, 163150, Note_on_c, 0, 63, 30
3, 163154, Note_on_c, 0, 58, 40
3, 163179, Note_on_c, 0, 59, 45
3, 163514, Control_c, 0, 64, 127
3, 163778, Note_on_c, 0, 82, 0
3, 163870, Note_on_c, 0, 70, 0
3, 164037, Note_on_c, 0, 63, 0
3, 164043, Note_on_c, 0, 59, 0
3, 164197, Note_on_c, 0, 56, 47
3, 164260, Note_on_c, 0, 58, 0
3, 164355, Note_on_c, 0, 56, 0
3, 164763, Note_on_c, 0, 44, 47
3, 165005, Note_on_c, 0, 44, 0
3, 165131, Control_c, 0, 64, 0
3, 165169, Note_on_c, 0, 62, 68
3, 165176, Note_on_c, 0, 58, 56
3, 165193, Note_on_c, 0, 43, 36
3, 165195, Note_on_c, 0, 53, 47
3, 165362, Control_c, 0, 64, 127
3, 165581, Note_on_c, 0, 62, 0
3, 165625, Note_on_c, 0, 53, 0
3, 165631, Note_on_c, 0, 58, 0
3, 166113, Note_on_c, 0, 65, 72
3, 166119, Note_on_c, 0, 58, 81
3, 166125, Note_on_c, 0, 62, 74
3, 166135, Note_on_c, 0, 55, 78
3, 166138, Note_on_c, 0, 53, 64
3, 166142, Control_c, 0, 64, 0
3, 166363, Note_on_c, 0, 43, 0
3, 166459, Control_c, 0, 64, 127
3, 166505, Note_on_c, 0, 53, 0
3, 166691, Note_on_c, 0, 55, 0
3, 166785, Note_on_c, 0, 62, 0
3, 166806, Note_on_c, 0, 65, 0
3, 166808, Note_on_c, 0, 58, 0
3, 167081, Control_c, 0, 64, 0
3, 167114, Note_on_c, 0, 65, 65
3, 167117, Note_on_c, 0, 58, 63
3, 167120, Note_on_c, 0, 62, 55
3, 167133, Note_on_c, 0, 55, 64
3, 167134, Note_on_c, 0, 36, 53
3, 167274, Note_on_c, 0, 36, 0
3, 167369, Control_c, 0, 64, 127
3, 167576, Note_on_c, 0, 62, 0
3, 167683, Note_on_c, 0, 55, 0
3, 167723, Note_on_c, 0, 58, 0
3, 167798, Note_on_c, 0, 65, 0
3, 167975, Control_c, 0, 64, 0
3, 168049, Note_on_c, 0, 64, 57
3, 168056, Note_on_c, 0, 58, 52
3, 168060, Note_on_c, 0, 55, 58
3, 168075, Note_on_c, 0, 48, 47
3, 168089, Note_on_c, 0, 61, 44
3, 168177, Control_c, 0, 64, 127
3, 168208, Note_on_c, 0, 55, 0
3, 168225, Note_on_c, 0, 48, 0
3, 168322, Note_on_c, 0, 58, 0
3, 168379, Note_on_c, 0, 61, 0
3, 168389, Note_on_c, 0, 64, 0
3, 169004, Note_on_c, 0, 76, 78
3, 169006, Note_on_c, 0, 68, 73
3, 169009, Note_on_c, 0, 65, 82
3, 169011, Note_on_c, 0, 72, 64
3, 169025, Note_on_c, 0, 64, 72
3, 169030, Control_c, 0, 64, 0
3, 169375, Control_c, 0, 64, 127
3, 169643, Note_on_c, 0, 65, 0
3, 169678, Note_on_c, 0, 64, 0
3, 169683, Note_on_c, 0, 68, 0
3, 169768, Note_on_c, 0, 72, 0
3, 169777, Note_on_c, 0, 76, 0
3, 169852, Control_c, 0, 64, 0
3, 169961, Note_on_c, 0, 62, 49
3, 169971, Note_on_c, 0, 74, 54
3, 169980, Note_on_c, 0, 68, 42
3, 169991, Note_on_c, 0, 65, 51
3, 170012, Control_c, 0, 64, 127
3, 170537, Note_on_c, 0, 65, 0
3, 170572, Note_on_c, 0, 68, 0
3, 170912, Note_on_c, 0, 68, 45
3, 170936, Note_on_c, 0, 65, 44
3, 171384, Note_on_c, 0, 65, 0
3, 171467, Note_on_c, 0, 74, 0
3, 171470, Note_on_c, 0, 68, 0
3, 171780, Note_on_c, 0, 62, 0
3, 171888, Note_on_c, 0, 62, 41
3, 171897, Note_on_c, 0, 74, 55
3, 171901, Note_on_c, 0, 68, 39
3, 171916, Note_on_c, 0, 65, 30
3, 172180, Note_on_c, 0, 62, 0
3, 172203, Note_on_c, 0, 65, 0
3, 172264, Note_on_c, 0, 74, 0
3, 172282, Note_on_c, 0, 68, 0
3, 172817, Note_on_c, 0, 77, 81
3, 172834, Note_on_c, 0, 70, 67
3, 172837, Note_on_c, 0, 66, 60
3, 172838, Note_on_c, 0, 73, 42
3, 172840, Note_on_c, 0, 65, 71
3, 172858, Control_c, 0, 64, 0
3, 173177, Control_c, 0, 64, 127
3, 173504, Note_on_c, 0, 65, 0
3, 173532, Note_on_c, 0, 70, 0
3, 173540, Note_on_c, 0, 66, 0
3, 173547, Note_on_c, 0, 73, 0
3, 173639, Note_on_c, 0, 77, 0
3, 173763, Note_on_c, 0, 63, 47
3, 173765, Note_on_c, 0, 75, 64
3, 173767, Note_on_c, 0, 66, 47
3, 173779, Note_on_c, 0, 70, 62
3, 173843, Note_on_c, 0, 63, 0
3, 174394, Note_on_c, 0, 70, 0
3, 174422, Note_on_c, 0, 66, 0
3, 174733, Note_on_c, 0, 70, 54
3, 174738, Note_on_c, 0, 66, 31
3, 174749, Control_c, 0, 64, 0
3, 174751, Note_on_c, 0, 62, 40
3, 174777, Note_on_c, 0, 51, 23
3, 175024, Control_c, 0, 64, 127
3, 175047, Note_on_c, 0, 62, 0
3, 175377, Note_on_c, 0, 51, 0
3, 175406, Note_on_c, 0, 66, 0
3, 175412, Note_on_c, 0, 70, 0
3, 175613, Note_on_c, 0, 75, 0
3, 175674, Control_c, 0, 64, 0
3, 175698, Note_on_c, 0, 44, 47
3, 175721, Note_on_c, 0, 54, 27
3, 175723, Note_on_c, 0, 65, 43
3, 175847, Control_c, 0, 64, 127
3, 176149, Note_on_c, 0, 44, 0
3, 176268, Note_on_c, 0, 54, 0
3, 176361, Note_on_c, 0, 65, 0
3, 176685, Control_c, 0, 64, 0
3, 176699, Note_on_c, 0, 75, 50
3, 176704, Note_on_c, 0, 67, 52
3, 176728, Note_on_c, 0, 72, 51
3, 176736, Note_on_c, 0, 45, 34
3, 176744, Note_on_c, 0, 55, 35
3, 177003, Control_c, 0, 64, 127
3, 177295, Note_on_c, 0, 55, 0
3, 177438, Note_on_c, 0, 67, 0
3, 177469, Note_on_c, 0, 72, 0
3, 177688, Note_on_c, 0, 55, 51
3, 177729, Note_on_c, 0, 75, 0
3, 177773, Note_on_c, 0, 45, 0
3, 178096, Note_on_c, 0, 55, 0
3, 178293, Note_on_c, 0, 54, 43
3, 178453, Note_on_c, 0, 54, 0
3, 178669, Note_on_c, 0, 50, 46
3, 178684, Note_on_c, 0, 66, 55
3, 178690, Control_c, 0, 64, 0
3, 178705, Note_on_c, 0, 69, 45
3, 178708, Note_on_c, 0, 61, 25
3, 178980, Control_c, 0, 64, 127
3, 179039, Note_on_c, 0, 50, 0
3, 179284, Note_on_c, 0, 69, 0
3, 179338, Note_on_c, 0, 66, 0
3, 179349, Note_on_c, 0, 61, 0
3, 179500, Control_c, 0, 64, 0
3, 179537, Note_on_c, 0, 44, 56
3, 179549, Note_on_c, 0, 66, 48
3, 179553, Note_on_c, 0, 61, 36
3, 179565, Note_on_c, 0, 54, 33
3, 179716, Control_c, 0, 64, 127
3, 179907, Note_on_c, 0, 66, 0
3, 179920, Note_on_c, 0, 54, 0
3, 179974, Note_on_c, 0, 44, 0
3, 180011, Note_on_c, 0, 61, 0
3, 180481, Control_c, 0, 64, 0
3, 180513, Note_on_c, 0, 58, 53
3, 180526, Note_on_c, 0, 62, 55
3, 180532, Note_on_c, 0, 65, 49
3, 180539, Note_on_c, 0, 53, 48
3, 180560, Note_on_c, 0, 43, 32
3, 180857, Control_c, 0, 64, 127
3, 181149, Note_on_c, 0, 62, 0
3, 181175, Note_on_c, 0, 58, 0
3, 181274, Note_on_c, 0, 65, 0
3, 181313, Note_on_c, 0, 53, 0
3, 181369, Note_on_c, 0, 43, 0
3, 181472, Note_on_c, 0, 62, 56
3, 181477, Note_on_c, 0, 58, 39
3, 181493, Note_on_c, 0, 50, 38
3, 181900, Note_on_c, 0, 62, 0
3, 181916, Note_on_c, 0, 58, 0
3, 182334, Note_on_c, 0, 50, 0
3, 182344, Control_c, 0, 64, 0
3, 182443, Note_on_c, 0, 59, 50
3, 182450, Note_on_c, 0, 63, 53
3, 182465, Note_on_c, 0, 49, 32
3, 182733, Control_c, 0, 64, 127
3, 182891, Note_on_c, 0, 59, 0
3, 183090, Note_on_c, 0, 63, 0
3, 183135, Note_on_c, 0, 49, 0
3, 183369, Control_c, 0, 64, 0
3, 183413, Note_on_c, 0, 58, 43
3, 183424, Note_on_c, 0, 48, 31
3, 183444, Note_on_c, 0, 64, 37
3, 183622, Note_on_c, 0, 48, 0
3, 183671, Control_c, 0, 64, 127
3, 183820, Note_on_c, 0, 58, 0
3, 183885, Note_on_c, 0, 64, 0
3, 184322, Control_c, 0, 64, 0
3, 184358, Note_on_c, 0, 64, 40
3, 184360, Note_on_c, 0, 57, 36
3, 184377, Note_on_c, 0, 69, 34
3, 184380, Note_on_c, 0, 41, 39
3, 184390, Note_on_c, 0, 48, 27
3, 184646, Note_on_c, 0, 57, 0
3, 184730, Control_c, 0, 64, 127
3, 184760, Note_on_c, 0, 41, 0
3, 184849, Note_on_c, 0, 64, 0
3, 184893, Note_on_c, 0, 69, 0
3, 184903, Note_on_c, 0, 48, 0
3, 185322, Control_c, 0, 64, 0
3, 185355, Note_on_c, 0, 74, 73
3, 185356, Note_on_c, 0, 58, 62
3, 185366, Note_on_c, 0, 64, 56
3, 185369, Note_on_c, 0, 68, 62
3, 185595, Control_c, 0, 64, 127
3, 185935, Note_on_c, 0, 58, 0
3, 185948, Note_on_c, 0, 74, 0
3, 186019, Note_on_c, 0, 64, 0
3, 186076, Note_on_c, 0, 68, 0
3, 186259, Control_c, 0, 64, 0
3, 186324, Note_on_c, 0, 72, 49
3, 186344, Note_on_c, 0, 57, 37
3, 186357, Note_on_c, 0, 67, 47
3, 186359, Note_on_c, 0, 62, 34
3, 186563, Control_c, 0, 64, 127
3, 186603, Note_on_c, 0, 72, 0
3, 186621, Note_on_c, 0, 67, 0
3, 186729, Note_on_c, 0, 62, 0
3, 186776, Note_on_c, 0, 57, 0
3, 187198, Control_c, 0, 64, 0
3, 187234, Note_on_c, 0, 60, 28
3, 187264, Note_on_c, 0, 64, 31
3, 187276, Note_on_c, 0, 53, 44
3, 187413, Note_on_c, 0, 53, 0
3, 187444, Control_c, 0, 64, 127
3, 187686, Note_on_c, 0, 60, 0
3, 187878, Note_on_c, 0, 64, 0
3, 188136, Control_c, 0, 64, 0
3, 188226, Note_on_c, 0, 62, 55
3, 188230, Note_on_c, 0, 58, 44
3, 188232, Note_on_c, 0, 40, 37
3, 188266, Note_on_c, 0, 55, 44
3, 188285, Note_on_c, 0, 53, 32
3, 188353, Control_c, 0, 64, 127
3, 188359, Note_on_c, 0, 53, 0
3, 188379, Note_on_c, 0, 40, 0
3, 188395, Note_on_c, 0, 58, 0
3, 188503, Note_on_c, 0, 62, 0
3, 188508, Note_on_c, 0, 55, 0
3, 189191, Control_c, 0, 64, 0
3, 189204, Note_on_c, 0, 62, 73
3, 189207, Note_on_c, 0, 79, 84
3, 189210, Note_on_c, 0, 76, 88
3, 189211, Note_on_c, 0, 67, 84
3, 189213, Note_on_c, 0, 72, 94
3, 189226, Note_on_c, 0, 56, 77
3, 189465, Control_c, 0, 64, 127
3, 189629, Note_on_c, 0, 67, 0
3, 189660, Note_on_c, 0, 79, 0
3, 189681, Note_on_c, 0, 76, 0
3, 189688, Note_on_c, 0, 62, 0
3, 189711, Note_on_c, 0, 72, 0
3, 189826, Note_on_c, 0, 56, 0
3, 190128, Control_c, 0, 64, 0
3, 190186, Note_on_c, 0, 76, 75
3, 190193, Note_on_c, 0, 61, 65
3, 190209, Note_on_c, 0, 73, 48
3, 190211, Note_on_c, 0, 66, 67
3, 190213, Note_on_c, 0, 70, 63
3, 190225, Note_on_c, 0, 67, 53
3, 190232, Note_on_c, 0, 55, 48
3, 190475, Control_c, 0, 64, 127
3, 190606, Note_on_c, 0, 55, 0
3, 190621, Note_on_c, 0, 66, 0
3, 190690, Note_on_c, 0, 61, 0
3, 190736, Note_on_c, 0, 67, 0
3, 190777, Note_on_c, 0, 70, 0
3, 190916, Note_on_c, 0, 76, 0
3, 190990, Note_on_c, 0, 73, 0
3, 191110, Control_c, 0, 64, 0
3, 191134, Note_on_c, 0, 70, 60
3, 191144, Note_on_c, 0, 51, 33
3, 191155, Note_on_c, 0, 61, 27
3, 191162, Note_on_c, 0, 67, 47
3, 191443, Control_c, 0, 64, 127
3, 191571, Note_on_c, 0, 61, 0
3, 191573, Note_on_c, 0, 51, 0
3, 191671, Note_on_c, 0, 67, 0
3, 191878, Note_on_c, 0, 70, 0
3, 191991, Control_c, 0, 64, 0
3, 192029, Note_on_c, 0, 69, 49
3, 192041, Note_on_c, 0, 57, 28
3, 192045, Note_on_c, 0, 62, 41
3, 192048, Note_on_c, 0, 65, 30
3, 192057, Note_on_c, 0, 50, 30
3, 192323, Control_c, 0, 64, 127
3, 192337, Note_on_c, 0, 65, 0
3, 192382, Note_on_c, 0, 69, 0
3, 192470, Note_on_c, 0, 62, 0
3, 192506, Note_on_c, 0, 50, 0
3, 192885, Note_on_c, 0, 57, 0
3, 192900, Control_c, 0, 64, 0
3, 192984, Note_on_c, 0, 79, 41
3, 192987, Note_on_c, 0, 76, 41
3, 192992, Note_on_c, 0, 64, 37
3, 193003, Note_on_c, 0, 72, 35
3, 193069, Note_on_c, 0, 79, 0
3, 193075, Note_on_c, 0, 64, 0
3, 193076, Note_on_c, 0, 72, 0
3, 193106, Note_on_c, 0, 76, 0
3, 193485, Note_on_c, 0, 64, 45
3, 193498, Note_on_c, 0, 76, 48
3, 193504, Note_on_c, 0, 69, 47
3, 193510, Note_on_c, 0, 79, 36
3, 193512, Note_on_c, 0, 72, 47
3, 193575, Note_on_c, 0, 79, 0
3, 193576, Note_on_c, 0, 72, 0
3, 193582, Note_on_c, 0, 69, 0
3, 193610, Note_on_c, 0, 64, 0
3, 193623, Note_on_c, 0, 76, 0
3, 193868, Control_c, 0, 64, 127
3, 193949, Note_on_c, 0, 64, 36
3, 193956, Note_on_c, 0, 79, 47
3, 193959, Note_on_c, 0, 69, 48
3, 193961, Note_on_c, 0, 76, 46
3, 193964, Note_on_c, 0, 72, 53
3, 194372, Note_on_c, 0, 79, 0
3, 194422, Note_on_c, 0, 76, 0
3, 194479, Note_on_c, 0, 72, 0
3, 194494, Note_on_c, 0, 69, 0
3, 194736, Note_on_c, 0, 64, 0
3, 194778, Control_c, 0, 64, 0
3, 194811, Note_on_c, 0, 77, 47
3, 194834, Note_on_c, 0, 62, 51
3, 194836, Note_on_c, 0, 69, 45
3, 194847, Note_on_c, 0, 72, 51
3, 194901, Note_on_c, 0, 69, 0
3, 194903, Note_on_c, 0, 72, 0
3, 194945, Note_on_c, 0, 62, 0
3, 194948, Note_on_c, 0, 77, 0
3, 195312, Note_on_c, 0, 77, 53
3, 195322, Note_on_c, 0, 69, 48
3, 195330, Note_on_c, 0, 72, 47
3, 195333, Note_on_c, 0, 62, 57
3, 195400, Note_on_c, 0, 62, 0
3, 195402, Note_on_c, 0, 72, 0
3, 195413, Note_on_c, 0, 69, 0
3, 195439, Note_on_c, 0, 77, 0
3, 195716, Control_c, 0, 64, 127
3, 195783, Note_on_c, 0, 77, 58
3, 195796, Note_on_c, 0, 69, 54
3, 195798, Note_on_c, 0, 72, 60
3, 195799, Note_on_c, 0, 62, 59
3, 196179, Note_on_c, 0, 72, 0
3, 196188, Note_on_c, 0, 77, 0
3, 196266, Note_on_c, 0, 69, 0
3, 196713, Note_on_c, 0, 62, 0
3, 196784, Note_on_c, 0, 65, 54
3, 196801, Note_on_c, 0, 61, 55
3, 196803, Note_on_c, 0, 69, 55
3, 196807, Note_on_c, 0, 76, 51
3, 196813, Control_c, 0, 64, 0
3, 197174, Control_c, 0, 64, 127
3, 197413, Note_on_c, 0, 65, 0
3, 197465, Note_on_c, 0, 69, 0
3, 197613, Note_on_c, 0, 76, 0
3, 197755, Note_on_c, 0, 61, 0
3, 197799, Note_on_c, 0, 74, 57
3, 197812, Note_on_c, 0, 60, 41
3, 197814, Note_on_c, 0, 65, 37
3, 197815, Note_on_c, 0, 69, 48
3, 198149, Note_on_c, 0, 69, 0
3, 198244, Note_on_c, 0, 65, 0
3, 198365, Note_on_c, 0, 60, 0
3, 198714, Note_on_c, 0, 57, 48
3, 198738, Note_on_c, 0, 69, 49
3, 198747, Note_on_c, 0, 65, 43
3, 198849, Note_on_c, 0, 57, 0
3, 199016, Note_on_c, 0, 74, 0
3, 199114, Note_on_c, 0, 69, 0
3, 199195, Note_on_c, 0, 65, 0
3, 199484, Note_on_c, 0, 41, 48
3, 199592, Note_on_c, 0, 48, 50
3, 199642, Control_c, 0, 64, 0
3, 199680, Note_on_c, 0, 57, 46
3, 199691, Note_on_c, 0, 63, 61
3, 199701, Note_on_c, 0, 71, 64
3, 199709, Note_on_c, 0, 67, 64
3, 199975, Control_c, 0, 64, 127
3, 200298, Note_on_c, 0, 57, 0
3, 200331, Note_on_c, 0, 67, 0
3, 200404, Note_on_c, 0, 63, 0
3, 200597, Note_on_c, 0, 41, 0
3, 200702, Note_on_c, 0, 63, 30
3, 200707, Note_on_c, 0, 67, 44
3, 201019, Note_on_c, 0, 67, 0
3, 201106, Note_on_c, 0, 71, 0
3, 201116, Note_on_c, 0, 63, 0
3, 201193, Note_on_c, 0, 57, 50
3, 201658, Note_on_c, 0, 71, 70
3, 201677, Note_on_c, 0, 63, 74
3, 201680, Note_on_c, 0, 67, 63
3, 201778, Note_on_c, 0, 48, 0
3, 201994, Note_on_c, 0, 57, 0
3, 202203, Note_on_c, 0, 48, 71
3, 202445, Note_on_c, 0, 63, 0
3, 202570, Note_on_c, 0, 71, 0
3, 202645, Note_on_c, 0, 63, 53
3, 202668, Note_on_c, 0, 59, 50
3, 202844, Note_on_c, 0, 59, 0
3, 203075, Note_on_c, 0, 67, 0
3, 203129, Note_on_c, 0, 41, 45
3, 203140, Note_on_c, 0, 63, 0
3, 203149, Note_on_c, 0, 48, 0
3, 203245, Note_on_c, 0, 41, 0
3, 203584, Control_c, 0, 64, 0
3, 203598, Note_on_c, 0, 40, 61
3, 203601, Note_on_c, 0, 28, 64
3, 203620, Note_on_c, 0, 71, 66
3, 203625, Note_on_c, 0, 69, 67
3, 203844, Control_c, 0, 64, 127
3, 203876, Note_on_c, 0, 28, 0
3, 203997, Note_on_c, 0, 40, 0
3, 204127, Note_on_c, 0, 69, 0
3, 204135, Note_on_c, 0, 71, 0
3, 204582, Note_on_c, 0, 71, 88
3, 204584, Note_on_c, 0, 69, 94
3, 204599, Note_on_c, 0, 64, 76
3, 204995, Note_on_c, 0, 64, 0
3, 205102, Note_on_c, 0, 69, 0
3, 205300, Note_on_c, 0, 71, 0
3, 205538, Note_on_c, 0, 71, 57
3, 205551, Note_on_c, 0, 62, 40
3, 205552, Note_on_c, 0, 68, 58
3, 205575, Control_c, 0, 64, 0
3, 205600, Note_on_c, 0, 56, 33
3, 205879, Control_c, 0, 64, 127
3, 206127, Note_on_c, 0, 68, 0
3, 206344, Note_on_c, 0, 62, 0
3, 206432, Note_on_c, 0, 52, 46
3, 206441, Note_on_c, 0, 68, 39
3, 206459, Note_on_c, 0, 65, 42
3, 206534, Note_on_c, 0, 56, 0
3, 206605, Note_on_c, 0, 52, 0
3, 207100, Note_on_c, 0, 65, 0
3, 207159, Note_on_c, 0, 71, 0
3, 207323, Control_c, 0, 64, 0
3, 207352, Note_on_c, 0, 45, 67
3, 207538, Note_on_c, 0, 45, 0
3, 207568, Control_c, 0, 64, 127
3, 207755, Note_on_c, 0, 68, 0
3, 208346, Note_on_c, 0, 76, 71
3, 208354, Note_on_c, 0, 73, 50
3, 208363, Note_on_c, 0, 69, 62
3, 208370, Note_on_c, 0, 64, 52
3, 208372, Note_on_c, 0, 62, 59
3, 208375, Note_on_c, 0, 66, 54
3, 208380, Control_c, 0, 64, 0
3, 208413, Note_on_c, 0, 69, 0
3, 208426, Note_on_c, 0, 64, 0
3, 208445, Note_on_c, 0, 66, 0
3, 208457, Note_on_c, 0, 62, 0
3, 208474, Note_on_c, 0, 76, 0
3, 208483, Note_on_c, 0, 73, 0
3, 208814, Control_c, 0, 64, 127
3, 209276, Control_c, 0, 64, 0
3, 209347, Note_on_c, 0, 66, 56
3, 209365, Note_on_c, 0, 76, 64
3, 209377, Control_c, 0, 64, 127
3, 209378, Note_on_c, 0, 62, 41
3, 209383, Note_on_c, 0, 73, 34
3, 209385, Note_on_c, 0, 69, 58
3, 209445, Note_on_c, 0, 62, 0
3, 209466, Note_on_c, 0, 66, 0
3, 209603, Note_on_c, 0, 76, 0
3, 209620, Note_on_c, 0, 73, 0
3, 209645, Note_on_c, 0, 69, 0
3, 210230, Control_c, 0, 64, 0
3, 210245, Note_on_c, 0, 71, 54
3, 210273, Note_on_c, 0, 62, 57
3, 210281, Note_on_c, 0, 46, 51
3, 210286, Note_on_c, 0, 56, 40
3, 210288, Note_on_c, 0, 64, 43
3, 210301, Note_on_c, 0, 67, 32
3, 210445, Control_c, 0, 64, 127
3, 210643, Note_on_c, 0, 67, 0
3, 210690, Note_on_c, 0, 64, 0
3, 210699, Note_on_c, 0, 56, 0
3, 210710, Note_on_c, 0, 71, 0
3, 210783, Note_on_c, 0, 62, 0
3, 210803, Note_on_c, 0, 46, 0
3, 211196, Control_c, 0, 64, 0
3, 211236, Note_on_c, 0, 64, 37
3, 211239, Note_on_c, 0, 69, 48
3, 211240, Note_on_c, 0, 62, 45
3, 211243, Note_on_c, 0, 59, 34
3, 211269, Note_on_c, 0, 55, 31
3, 211275, Note_on_c, 0, 45, 34
3, 211499, Control_c, 0, 64, 127
3, 211740, Note_on_c, 0, 62, 0
3, 211845, Note_on_c, 0, 59, 0
3, 212008, Note_on_c, 0, 64, 0
3, 212042, Note_on_c, 0, 69, 0
3, 212090, Note_on_c, 0, 55, 0
3, 212184, Note_on_c, 0, 62, 45
3, 212204, Note_on_c, 0, 59, 37
3, 212209, Note_on_c, 0, 52, 29
3, 212466, Note_on_c, 0, 62, 0
3, 212587, Note_on_c, 0, 59, 0
3, 213043, Note_on_c, 0, 45, 0
3, 213095, Note_on_c, 0, 52, 0
3, 213117, Control_c, 0, 64, 0
3, 213142, Note_on_c, 0, 63, 53
3, 213155, Note_on_c, 0, 58, 47
3, 213157, Note_on_c, 0, 55, 35
3, 213174, Note_on_c, 0, 49, 42
3, 213193, Note_on_c, 0, 61, 36
3, 213376, Control_c, 0, 64, 127
3, 213507, Note_on_c, 0, 55, 0
3, 213580, Note_on_c, 0, 58, 0
3, 213596, Note_on_c, 0, 61, 0
3, 213669, Note_on_c, 0, 63, 0
3, 214107, Note_on_c, 0, 67, 54
3, 214112, Note_on_c, 0, 61, 59
3, 214118, Note_on_c, 0, 52, 48
3, 214125, Note_on_c, 0, 64, 42
3, 214126, Note_on_c, 0, 58, 48
3, 214162, Note_on_c, 0, 49, 0
3, 214289, Note_on_c, 0, 52, 0
3, 214333, Note_on_c, 0, 58, 0
3, 214379, Note_on_c, 0, 64, 0
3, 214433, Note_on_c, 0, 67, 0
3, 214441, Note_on_c, 0, 61, 0
3, 215033, Note_on_c, 0, 74, 70
3, 215058, Note_on_c, 0, 67, 67
3, 215059, Note_on_c, 0, 64, 53
3, 215069, Control_c, 0, 64, 0
3, 215075, Note_on_c, 0, 62, 54
3, 215516, Control_c, 0, 64, 127
3, 215589, Note_on_c, 0, 50, 47
3, 215710, Note_on_c, 0, 64, 0
3, 215717, Note_on_c, 0, 67, 0
3, 215786, Note_on_c, 0, 62, 0
3, 216064, Note_on_c, 0, 74, 0
3, 216067, Note_on_c, 0, 64, 36
3, 216071, Note_on_c, 0, 67, 44
3, 216100, Note_on_c, 0, 62, 42
3, 216142, Note_on_c, 0, 64, 0
3, 216192, Note_on_c, 0, 67, 0
3, 216328, Note_on_c, 0, 50, 0
3, 216501, Note_on_c, 0, 50, 30
3, 216571, Note_on_c, 0, 62, 0
3, 217002, Note_on_c, 0, 86, 87
3, 217010, Note_on_c, 0, 74, 88
3, 217012, Note_on_c, 0, 62, 55
3, 217225, Note_on_c, 0, 50, 0
3, 217363, Note_on_c, 0, 86, 0
3, 217480, Note_on_c, 0, 74, 0
3, 217491, Note_on_c, 0, 50, 44
3, 217608, Note_on_c, 0, 62, 0
3, 217975, Note_on_c, 0, 67, 50
3, 217977, Note_on_c, 0, 64, 37
3, 218015, Note_on_c, 0, 62, 35
3, 218099, Note_on_c, 0, 74, 7
3, 218198, Note_on_c, 0, 50, 0
3, 218427, Note_on_c, 0, 67, 0
3, 218465, Note_on_c, 0, 50, 35
3, 218483, Note_on_c, 0, 64, 0
3, 218538, Note_on_c, 0, 62, 0
3, 218841, Note_on_c, 0, 74, 0
3, 218918, Note_on_c, 0, 64, 45
3, 218935, Note_on_c, 0, 60, 28
3, 218937, Note_on_c, 0, 68, 45
3, 218938, Note_on_c, 0, 74, 25
3, 218980, Control_c, 0, 64, 0
3, 219255, Note_on_c, 0, 50, 0
3, 219374, Note_on_c, 0, 64, 0
3, 219385, Control_c, 0, 64, 127
3, 219436, Note_on_c, 0, 50, 29
3, 219477, Note_on_c, 0, 60, 0
3, 219594, Note_on_c, 0, 68, 0
3, 219870, Note_on_c, 0, 68, 52
3, 219877, Note_on_c, 0, 64, 39
3, 219886, Note_on_c, 0, 74, 0
3, 220072, Note_on_c, 0, 50, 0
3, 220144, Note_on_c, 0, 64, 0
3, 220239, Note_on_c, 0, 68, 0
3, 220332, Note_on_c, 0, 50, 47
3, 220793, Note_on_c, 0, 62, 67
3, 220799, Note_on_c, 0, 86, 82
3, 220808, Note_on_c, 0, 80, 77
3, 220812, Note_on_c, 0, 76, 77
3, 221005, Note_on_c, 0, 50, 0
3, 221081, Note_on_c, 0, 86, 0
3, 221185, Note_on_c, 0, 80, 0
3, 221219, Note_on_c, 0, 76, 0
3, 221283, Note_on_c, 0, 50, 44
3, 221328, Note_on_c, 0, 62, 0
3, 221768, Note_on_c, 0, 74, 41
3, 221772, Note_on_c, 0, 68, 37
3, 221790, Note_on_c, 0, 62, 36
3, 221829, Note_on_c, 0, 64, 15
3, 221944, Note_on_c, 0, 50, 0
3, 222187, Note_on_c, 0, 64, 0
3, 222232, Note_on_c, 0, 50, 38
3, 222261, Note_on_c, 0, 62, 0
3, 222441, Note_on_c, 0, 74, 0
3, 222510, Note_on_c, 0, 68, 0
3, 222668, Note_on_c, 0, 60, 33
3, 222677, Control_c, 0, 64, 0
3, 222682, Note_on_c, 0, 65, 39
3, 222688, Note_on_c, 0, 69, 47
3, 222700, Note_on_c, 0, 74, 39
3, 222877, Note_on_c, 0, 50, 0
3, 222966, Control_c, 0, 64, 127
3, 223021, Note_on_c, 0, 65, 0
3, 223110, Note_on_c, 0, 69, 0
3, 223156, Note_on_c, 0, 50, 39
3, 223159, Note_on_c, 0, 74, 0
3, 223241, Note_on_c, 0, 60, 0
3, 223611, Note_on_c, 0, 86, 85
3, 223624, Note_on_c, 0, 62, 71
3, 223626, Note_on_c, 0, 77, 82
3, 223629, Note_on_c, 0, 81, 90
3, 223826, Note_on_c, 0, 50, 0
3, 223895, Note_on_c, 0, 86, 0
3, 223925, Note_on_c, 0, 81, 0
3, 223970, Note_on_c, 0, 77, 0
3, 224111, Note_on_c, 0, 50, 40
3, 224261, Note_on_c, 0, 62, 0
3, 224598, Note_on_c, 0, 69, 51
3, 224599, Note_on_c, 0, 74, 51
3, 224602, Note_on_c, 0, 65, 50
3, 224611, Note_on_c, 0, 60, 32
3, 224625, Control_c, 0, 64, 0
3, 224842, Control_c, 0, 64, 127
3, 224871, Note_on_c, 0, 50, 0
3, 225112, Note_on_c, 0, 65, 0
3, 225125, Note_on_c, 0, 50, 35
3, 225126, Note_on_c, 0, 60, 0
3, 225130, Note_on_c, 0, 69, 0
3, 225561, Note_on_c, 0, 60, 30
3, 225568, Note_on_c, 0, 65, 37
3, 225573, Note_on_c, 0, 69, 38
3, 225718, Note_on_c, 0, 50, 0
3, 225994, Note_on_c, 0, 65, 0
3, 226009, Note_on_c, 0, 69, 0
3, 226043, Note_on_c, 0, 60, 0
3, 226056, Note_on_c, 0, 50, 30
3, 226202, Note_on_c, 0, 50, 0
3, 226218, Note_on_c, 0, 74, 0
3, 226517, Note_on_c, 0, 59, 44
3, 226519, Note_on_c, 0, 74, 48
3, 226526, Note_on_c, 0, 64, 44
3, 226527, Note_on_c, 0, 69, 57
3, 226529, Note_on_c, 0, 65, 51
3, 226533, Control_c, 0, 64, 0
3, 226864, Control_c, 0, 64, 127
3, 226893, Note_on_c, 0, 64, 0
3, 226938, Note_on_c, 0, 69, 0
3, 226977, Note_on_c, 0, 74, 0
3, 226984, Note_on_c, 0, 53, 41
3, 226985, Note_on_c, 0, 59, 0
3, 227017, Note_on_c, 0, 65, 0
3, 227129, Note_on_c, 0, 53, 0
3, 227457, Note_on_c, 0, 59, 51
3, 227468, Note_on_c, 0, 64, 43
3, 227529, Note_on_c, 0, 44, 35
3, 227625, Note_on_c, 0, 54, 21
3, 227799, Note_on_c, 0, 44, 0
3, 227904, Note_on_c, 0, 59, 0
3, 227917, Note_on_c, 0, 64, 0
3, 227947, Note_on_c, 0, 44, 36
3, 228179, Note_on_c, 0, 54, 0
3, 228407, Note_on_c, 0, 44, 0
3, 228468, Note_on_c, 0, 59, 37
3, 228478, Note_on_c, 0, 62, 43
3, 228510, Control_c, 0, 64, 0
3, 228519, Note_on_c, 0, 53, 39
3, 228533, Note_on_c, 0, 43, 28
3, 228798, Control_c, 0, 64, 127
3, 229145, Note_on_c, 0, 59, 0
3, 229187, Note_on_c, 0, 62, 0
3, 229364, Note_on_c, 0, 53, 0
3, 229495, Note_on_c, 0, 50, 36
3, 229502, Note_on_c, 0, 59, 49
3, 229521, Note_on_c, 0, 43, 0
3, 229611, Note_on_c, 0, 50, 0
3, 229649, Note_on_c, 0, 59, 0
3, 230386, Control_c, 0, 64, 0
3, 230422, Note_on_c, 0, 64, 54
3, 230425, Note_on_c, 0, 69, 59
3, 230434, Note_on_c, 0, 65, 60
3, 230456, Note_on_c, 0, 50, 34
3, 230471, Note_on_c, 0, 57, 35
3, 230849, Control_c, 0, 64, 127
3, 231034, Note_on_c, 0, 64, 0
3, 231056, Note_on_c, 0, 65, 0
3, 231076, Note_on_c, 0, 69, 0
3, 231422, Note_on_c, 0, 65, 53
3, 231423, Note_on_c, 0, 64, 47
3, 231438, Note_on_c, 0, 69, 41
3, 231471, Note_on_c, 0, 57, 0
3, 231567, Note_on_c, 0, 50, 0
3, 232081, Note_on_c, 0, 64, 0
3, 232315, Note_on_c, 0, 65, 0
3, 232330, Note_on_c, 0, 69, 0
3, 232378, Control_c, 0, 64, 0
3, 232390, Note_on_c, 0, 65, 32
3, 232418, Note_on_c, 0, 47, 33
3, 232430, Note_on_c, 0, 57, 34
3, 232451, Note_on_c, 0, 62, 40
3, 232754, Control_c, 0, 64, 127
3, 232833, Note_on_c, 0, 57, 0
3, 233079, Note_on_c, 0, 62, 0
3, 233105, Note_on_c, 0, 65, 0
3, 233305, Note_on_c, 0, 35, 46
3, 233366, Note_on_c, 0, 47, 0
3, 233379, Note_on_c, 0, 35, 0
3, 234270, Control_c, 0, 64, 0
3, 234272, Note_on_c, 0, 76, 96
3, 234274, Note_on_c, 0, 72, 96
3, 234282, Note_on_c, 0, 62, 75
3, 234287, Note_on_c, 0, 67, 87
3, 234293, Note_on_c, 0, 56, 83
3, 234689, Control_c, 0, 64, 127
3, 235055, Note_on_c, 0, 72, 0
3, 235098, Note_on_c, 0, 76, 0
3, 235268, Note_on_c, 0, 76, 62
3, 235269, Note_on_c, 0, 72, 56
3, 235514, Note_on_c, 0, 67, 0
3, 235523, Note_on_c, 0, 62, 0
3, 235569, Note_on_c, 0, 72, 0
3, 235586, Note_on_c, 0, 76, 0
3, 235739, Note_on_c, 0, 56, 0
3, 236218, Control_c, 0, 64, 0
3, 236248, Note_on_c, 0, 77, 52
3, 236253, Note_on_c, 0, 73, 28
3, 236260, Note_on_c, 0, 61, 47
3, 236262, Note_on_c, 0, 70, 35
3, 236264, Note_on_c, 0, 55, 44
3, 236269, Note_on_c, 0, 66, 33
3, 236525, Control_c, 0, 64, 127
3, 236721, Note_on_c, 0, 66, 0
3, 236784, Note_on_c, 0, 55, 0
3, 236845, Note_on_c, 0, 61, 0
3, 237208, Note_on_c, 0, 77, 0
3, 237463, Note_on_c, 0, 70, 0
3, 237503, Note_on_c, 0, 73, 0
3, 238070, Control_c, 0, 64, 0
3, 238099, Note_on_c, 0, 66, 74
3, 238108, Note_on_c, 0, 77, 72
3, 238112, Note_on_c, 0, 57, 40
3, 238115, Note_on_c, 0, 72, 68
3, 238121, Note_on_c, 0, 50, 50
3, 238461, Control_c, 0, 64, 127
3, 239363, Note_on_c, 0, 72, 0
3, 239539, Note_on_c, 0, 66, 0
3, 239865, Note_on_c, 0, 77, 0
3, 240092, Note_on_c, 0, 66, 23
3, 240095, Note_on_c, 0, 68, 46
3, 240111, Note_on_c, 0, 62, 24
3, 240415, Note_on_c, 0, 57, 0
3, 240652, Note_on_c, 0, 62, 0
3, 240766, Note_on_c, 0, 66, 0
3, 240777, Note_on_c, 0, 68, 0
3, 240973, Note_on_c, 0, 57, 33
3, 241021, Note_on_c, 0, 65, 48
3, 241076, Note_on_c, 0, 57, 0
3, 241156, Note_on_c, 0, 50, 0
3, 241414, Note_on_c, 0, 65, 0
3, 241713, Note_on_c, 0, 50, 20
3, 241911, Note_on_c, 0, 50, 0
3, 241940, Control_c, 0, 64, 0
3, 241952, Note_on_c, 0, 64, 64
3, 241954, Note_on_c, 0, 69, 68
3, 241965, Note_on_c, 0, 59, 60
3, 241974, Note_on_c, 0, 53, 48
3, 241978, Note_on_c, 0, 43, 34
3, 242257, Control_c, 0, 64, 127
3, 242716, Note_on_c, 0, 64, 0
3, 242733, Note_on_c, 0, 59, 0
3, 242747, Note_on_c, 0, 69, 0
3, 242920, Note_on_c, 0, 64, 55
3, 242936, Note_on_c, 0, 59, 26
3, 242938, Note_on_c, 0, 68, 74
3, 243413, Note_on_c, 0, 53, 0
3, 243930, Note_on_c, 0, 53, 36
3, 244444, Note_on_c, 0, 59, 0
3, 244534, Note_on_c, 0, 64, 0
3, 244670, Note_on_c, 0, 53, 0
3, 244725, Note_on_c, 0, 68, 0
3, 244828, Note_on_c, 0, 43, 0
3, 244864, Note_on_c, 0, 59, 52
3, 244909, Note_on_c, 0, 67, 34
3, 245074, Note_on_c, 0, 59, 0
3, 245370, Note_on_c, 0, 67, 0
3, 245780, Control_c, 0, 64, 0
3, 245806, Note_on_c, 0, 69, 63
3, 245812, Note_on_c, 0, 58, 57
3, 245825, Note_on_c, 0, 62, 55
3, 245856, Note_on_c, 0, 53, 33
3, 245858, Note_on_c, 0, 43, 31
3, 245869, Note_on_c, 0, 64, 34
3, 246113, Control_c, 0, 64, 127
3, 246375, Note_on_c, 0, 69, 0
3, 246414, Note_on_c, 0, 53, 0
3, 246559, Note_on_c, 0, 62, 0
3, 246561, Note_on_c, 0, 58, 0
3, 246566, Note_on_c, 0, 64, 0
3, 246841, Note_on_c, 0, 68, 50
3, 246850, Note_on_c, 0, 58, 46
3, 246874, Note_on_c, 0, 62, 44
3, 246882, Note_on_c, 0, 53, 36
3, 246896, Note_on_c, 0, 64, 30
3, 247877, Note_on_c, 0, 53, 0
3, 247882, Note_on_c, 0, 43, 0
3, 248058, Note_on_c, 0, 64, 0
3, 248080, Note_on_c, 0, 68, 0
3, 248234, Note_on_c, 0, 58, 0
3, 248297, Note_on_c, 0, 62, 0
3, 248781, Note_on_c, 0, 67, 36
3, 248782, Note_on_c, 0, 58, 32
3, 248821, Note_on_c, 0, 62, 36
3, 249124, Note_on_c, 0, 62, 0
3, 249155, Note_on_c, 0, 67, 0
3, 249197, Note_on_c, 0, 58, 0
3, 249752, Note_on_c, 0, 66, 31
3, 249762, Note_on_c, 0, 57, 30
3, 249763, Note_on_c, 0, 62, 34
3, 249766, Control_c, 0, 64, 0
3, 249776, Note_on_c, 0, 38, 27
3, 249779, Note_on_c, 0, 26, 36
3, 252598, Note_on_c, 0, 57, 0
3, 252630, Note_on_c, 0, 62, 0
3, 252698, Note_on_c, 0, 66, 0
3, 253012, Note_on_c, 0, 26, 0
3, 253094, Note_on_c, 0, 38, 0
3, 253094, End_track
4, 0, Start_track
4, 0, Title_t, "Accompaniment"
4, 0, End_track
0, 0, End_of_file
