0, 0, Header, 1, 2, 960
1, 0, Start_track
1, 0, Title_t, "Come Rain or Come Shine - solo piano"
1, 0, Text_t, "dougmck@pipeline.com.au\012"
1, 0, Text_t, "Played in real time - no 'click track' so notation does not line up with beat/bar lines\012"
1, 0, Time_signature, 4, 2, 24, 8
1, 0, Key_signature, -1, "major"
1, 0, Tempo, 480000
1, 192000, Marker_t, "Wholetone scale  - LH plays Blaknotes, RH plays white"
1, 209320, Marker_t, "On F triad notes, this phrase uses upper neighbour tones"
1, 220876, Marker_t, "In RH on Bbm7, the 10th (Bb & Db) are easy to reach, even for small hands!"
1, 220876, End_track
2, 0, Start_track
2, 0, Title_t, "MIDI 1"
2, 0, Note_on_c, 0, 80, 61
2, 301, Note_on_c, 0, 80, 0
2, 397, Note_on_c, 0, 81, 54
2, 439, Note_on_c, 0, 41, 25
2, 470, Note_on_c, 0, 48, 20
2, 511, Note_on_c, 0, 41, 0
2, 557, Note_on_c, 0, 48, 0
2, 682, Note_on_c, 0, 81, 0
2, 1218, Note_on_c, 0, 81, 58
2, 1394, Note_on_c, 0, 81, 0
2, 1634, Note_on_c, 0, 60, 28
2, 1637, Note_on_c, 0, 81, 48
2, 1640, Note_on_c, 0, 62, 42
2, 1679, Note_on_c, 0, 77, 54
2, 1695, Note_on_c, 0, 62, 0
2, 1724, Note_on_c, 0, 60, 0
2, 1759, Note_on_c, 0, 77, 0
2, 1784, Note_on_c, 0, 81, 0
2, 2405, Note_on_c, 0, 81, 50
2, 2412, Note_on_c, 0, 69, 45
2, 2431, Note_on_c, 0, 77, 50
2, 2906, Note_on_c, 0, 36, 37
2, 3445, Note_on_c, 0, 69, 0
2, 3480, Note_on_c, 0, 81, 0
2, 3576, Note_on_c, 0, 77, 0
2, 3581, Note_on_c, 0, 36, 0
2, 3663, Note_on_c, 0, 77, 39
2, 3669, Note_on_c, 0, 81, 55
2, 3674, Note_on_c, 0, 69, 55
2, 4114, Note_on_c, 0, 62, 48
2, 4133, Note_on_c, 0, 60, 29
2, 4166, Note_on_c, 0, 62, 0
2, 4194, Note_on_c, 0, 57, 22
2, 4199, Note_on_c, 0, 60, 0
2, 4244, Note_on_c, 0, 53, 24
2, 4261, Note_on_c, 0, 57, 0
2, 4312, Note_on_c, 0, 53, 0
2, 4839, Note_on_c, 0, 69, 0
2, 4922, Note_on_c, 0, 47, 53
2, 5197, Note_on_c, 0, 81, 0
2, 5317, Note_on_c, 0, 77, 0
2, 5342, Note_on_c, 0, 40, 45
2, 5381, Note_on_c, 0, 55, 51
2, 5396, Note_on_c, 0, 81, 44
2, 5423, Note_on_c, 0, 74, 62
2, 5431, Note_on_c, 0, 69, 60
2, 5904, Control_c, 0, 64, 127
2, 6050, Control_c, 0, 64, 0
2, 6130, Note_on_c, 0, 40, 0
2, 6205, Note_on_c, 0, 47, 0
2, 6242, Control_c, 0, 64, 127
2, 6244, Note_on_c, 0, 69, 0
2, 6272, Note_on_c, 0, 55, 0
2, 6396, Note_on_c, 0, 74, 0
2, 6445, Note_on_c, 0, 81, 0
2, 6588, Note_on_c, 0, 81, 68
2, 6589, Note_on_c, 0, 62, 69
2, 6596, Note_on_c, 0, 69, 54
2, 6603, Note_on_c, 0, 58, 59
2, 6605, Note_on_c, 0, 74, 65
2, 6631, Note_on_c, 0, 52, 56
2, 6674, Control_c, 0, 64, 0
2, 6836, Control_c, 0, 64, 127
2, 6983, Note_on_c, 0, 62, 0
2, 7026, Note_on_c, 0, 58, 0
2, 7036, Note_on_c, 0, 52, 0
2, 7514, Note_on_c, 0, 74, 0
2, 7597, Note_on_c, 0, 69, 0
2, 7621, Control_c, 0, 64, 0
2, 7663, Note_on_c, 0, 81, 0
2, 7808, Note_on_c, 0, 81, 53
2, 7816, Note_on_c, 0, 45, 51
2, 7837, Note_on_c, 0, 73, 25
2, 7839, Note_on_c, 0, 76, 53
2, 7852, Note_on_c, 0, 69, 30
2, 7911, Control_c, 0, 64, 127
2, 8023, Control_c, 0, 64, 0
2, 8196, Note_on_c, 0, 45, 0
2, 8431, Note_on_c, 0, 69, 0
2, 8485, Note_on_c, 0, 73, 0
2, 8516, Note_on_c, 0, 81, 0
2, 8519, Note_on_c, 0, 76, 0
2, 8637, Note_on_c, 0, 81, 39
2, 8655, Note_on_c, 0, 69, 32
2, 8656, Note_on_c, 0, 73, 25
2, 8658, Note_on_c, 0, 76, 50
2, 9056, Note_on_c, 0, 61, 48
2, 9066, Note_on_c, 0, 64, 40
2, 9103, Note_on_c, 0, 58, 35
2, 9109, Note_on_c, 0, 55, 30
2, 9207, Note_on_c, 0, 64, 0
2, 9272, Note_on_c, 0, 61, 0
2, 9328, Note_on_c, 0, 58, 0
2, 9336, Note_on_c, 0, 55, 0
2, 9498, Control_c, 0, 64, 127
2, 9546, Control_c, 0, 64, 0
2, 9696, Note_on_c, 0, 69, 0
2, 9714, Note_on_c, 0, 81, 0
2, 9722, Note_on_c, 0, 76, 0
2, 9783, Note_on_c, 0, 45, 56
2, 9831, Note_on_c, 0, 79, 42
2, 9885, Note_on_c, 0, 73, 0
2, 10124, Note_on_c, 0, 79, 0
2, 10212, Note_on_c, 0, 38, 64
2, 10220, Control_c, 0, 64, 127
2, 10223, Note_on_c, 0, 81, 65
2, 10224, Note_on_c, 0, 72, 60
2, 10237, Note_on_c, 0, 77, 64
2, 10308, Note_on_c, 0, 79, 19
2, 10372, Note_on_c, 0, 79, 0
2, 10373, Note_on_c, 0, 45, 0
2, 10431, Note_on_c, 0, 38, 0
2, 10760, Note_on_c, 0, 77, 0
2, 10792, Note_on_c, 0, 81, 0
2, 10794, Note_on_c, 0, 72, 0
2, 10992, Note_on_c, 0, 79, 44
2, 11047, Note_on_c, 0, 76, 45
2, 11083, Note_on_c, 0, 71, 26
2, 11154, Note_on_c, 0, 71, 0
2, 11197, Note_on_c, 0, 79, 0
2, 11202, Note_on_c, 0, 76, 0
2, 11469, Note_on_c, 0, 64, 66
2, 11476, Note_on_c, 0, 77, 54
2, 11503, Note_on_c, 0, 72, 61
2, 11504, Note_on_c, 0, 67, 52
2, 11567, Control_c, 0, 64, 0
2, 11712, Control_c, 0, 64, 127
2, 11936, Note_on_c, 0, 72, 0
2, 11943, Note_on_c, 0, 77, 0
2, 12365, Note_on_c, 0, 67, 0
2, 12426, Note_on_c, 0, 64, 0
2, 12602, Note_on_c, 0, 76, 44
2, 12616, Note_on_c, 0, 62, 51
2, 12632, Note_on_c, 0, 65, 38
2, 12664, Note_on_c, 0, 69, 43
2, 12674, Control_c, 0, 64, 0
2, 12996, Control_c, 0, 64, 127
2, 13549, Note_on_c, 0, 69, 0
2, 13586, Note_on_c, 0, 65, 0
2, 13765, Control_c, 0, 64, 0
2, 13770, Note_on_c, 0, 74, 51
2, 13773, Note_on_c, 0, 76, 0
2, 13783, Note_on_c, 0, 65, 37
2, 13799, Note_on_c, 0, 62, 0
2, 13804, Note_on_c, 0, 69, 36
2, 13810, Note_on_c, 0, 61, 38
2, 13989, Control_c, 0, 64, 127
2, 14341, Note_on_c, 0, 74, 0
2, 14400, Note_on_c, 0, 69, 0
2, 14423, Note_on_c, 0, 65, 0
2, 14910, Note_on_c, 0, 61, 0
2, 14920, Control_c, 0, 64, 0
2, 14944, Note_on_c, 0, 72, 38
2, 14976, Note_on_c, 0, 60, 29
2, 14986, Note_on_c, 0, 69, 35
2, 15000, Note_on_c, 0, 65, 35
2, 15018, Note_on_c, 0, 62, 15
2, 15144, Control_c, 0, 64, 127
2, 15352, Note_on_c, 0, 60, 0
2, 15714, Note_on_c, 0, 69, 0
2, 15722, Note_on_c, 0, 57, 54
2, 15748, Note_on_c, 0, 72, 0
2, 15770, Note_on_c, 0, 62, 0
2, 15776, Note_on_c, 0, 65, 0
2, 16402, Note_on_c, 0, 57, 0
2, 16476, Note_on_c, 0, 61, 69
2, 16650, Note_on_c, 0, 61, 0
2, 16736, Note_on_c, 0, 64, 66
2, 16927, Note_on_c, 0, 64, 0
2, 17026, Note_on_c, 0, 69, 84
2, 17240, Note_on_c, 0, 69, 0
2, 17306, Note_on_c, 0, 76, 84
2, 17455, Note_on_c, 0, 76, 0
2, 17594, Note_on_c, 0, 81, 88
2, 17856, Note_on_c, 0, 85, 85
2, 17940, Note_on_c, 0, 81, 0
2, 18140, Note_on_c, 0, 88, 83
2, 18170, Note_on_c, 0, 85, 0
2, 18431, Note_on_c, 0, 86, 72
2, 18523, Note_on_c, 0, 88, 0
2, 18634, Note_on_c, 0, 86, 0
2, 18754, Note_on_c, 0, 84, 65
2, 18904, Note_on_c, 0, 84, 0
2, 19048, Note_on_c, 0, 82, 39
2, 19260, Note_on_c, 0, 82, 0
2, 19375, Note_on_c, 0, 81, 71
2, 19570, Note_on_c, 0, 81, 0
2, 19621, Control_c, 0, 64, 0
2, 19656, Note_on_c, 0, 62, 51
2, 19692, Note_on_c, 0, 81, 47
2, 19695, Note_on_c, 0, 58, 48
2, 19732, Note_on_c, 0, 57, 17
2, 19988, Note_on_c, 0, 53, 1
2, 20037, Control_c, 0, 64, 127
2, 20143, Note_on_c, 0, 62, 0
2, 20152, Note_on_c, 0, 58, 0
2, 20157, Note_on_c, 0, 57, 0
2, 20207, Note_on_c, 0, 81, 0
2, 20208, Note_on_c, 0, 53, 0
2, 20556, Note_on_c, 0, 43, 46
2, 20620, Note_on_c, 0, 43, 0
2, 20944, Note_on_c, 0, 69, 49
2, 20949, Note_on_c, 0, 64, 43
2, 20952, Note_on_c, 0, 59, 35
2, 20967, Control_c, 0, 64, 0
2, 20983, Note_on_c, 0, 54, 48
2, 21272, Control_c, 0, 64, 127
2, 21701, Note_on_c, 0, 54, 0
2, 21724, Note_on_c, 0, 59, 0
2, 21826, Note_on_c, 0, 69, 0
2, 21828, Note_on_c, 0, 64, 0
2, 22122, Control_c, 0, 64, 0
2, 22144, Note_on_c, 0, 59, 34
2, 22154, Note_on_c, 0, 64, 35
2, 22157, Note_on_c, 0, 69, 37
2, 22181, Note_on_c, 0, 53, 36
2, 22587, Control_c, 0, 64, 127
2, 22895, Note_on_c, 0, 64, 0
2, 22942, Note_on_c, 0, 59, 0
2, 23325, Control_c, 0, 64, 0
2, 23343, Note_on_c, 0, 43, 33
2, 23367, Note_on_c, 0, 63, 35
2, 23368, Note_on_c, 0, 59, 35
2, 23493, Note_on_c, 0, 43, 0
2, 23647, Control_c, 0, 64, 127
2, 23672, Note_on_c, 0, 53, 0
2, 23805, Note_on_c, 0, 69, 0
2, 23938, Note_on_c, 0, 59, 0
2, 24090, Note_on_c, 0, 63, 0
2, 24176, Note_on_c, 0, 58, 51
2, 24184, Note_on_c, 0, 62, 46
2, 24231, Note_on_c, 0, 58, 0
2, 24255, Note_on_c, 0, 62, 0
2, 24384, Control_c, 0, 64, 0
2, 24514, Note_on_c, 0, 43, 22
2, 24524, Note_on_c, 0, 36, 33
2, 24556, Note_on_c, 0, 52, 24
2, 24640, Control_c, 0, 64, 127
2, 24767, Note_on_c, 0, 36, 0
2, 24820, Note_on_c, 0, 43, 0
2, 24863, Note_on_c, 0, 84, 70
2, 24869, Note_on_c, 0, 72, 68
2, 24935, Note_on_c, 0, 52, 0
2, 25722, Note_on_c, 0, 64, 43
2, 25748, Control_c, 0, 64, 0
2, 25775, Note_on_c, 0, 58, 37
2, 25930, Note_on_c, 0, 84, 0
2, 25940, Control_c, 0, 64, 127
2, 26130, Note_on_c, 0, 72, 0
2, 26437, Note_on_c, 0, 64, 0
2, 26474, Note_on_c, 0, 81, 78
2, 26477, Note_on_c, 0, 73, 56
2, 26485, Note_on_c, 0, 69, 76
2, 26486, Note_on_c, 0, 58, 0
2, 26496, Note_on_c, 0, 76, 74
2, 26805, Note_on_c, 0, 69, 0
2, 26847, Note_on_c, 0, 73, 0
2, 26861, Note_on_c, 0, 81, 0
2, 26880, Note_on_c, 0, 76, 0
2, 26980, Note_on_c, 0, 64, 66
2, 26981, Note_on_c, 0, 81, 68
2, 26994, Note_on_c, 0, 73, 60
2, 26997, Note_on_c, 0, 76, 72
2, 27003, Note_on_c, 0, 69, 78
2, 27015, Control_c, 0, 64, 0
2, 27304, Control_c, 0, 64, 127
2, 27540, Note_on_c, 0, 81, 0
2, 27564, Note_on_c, 0, 76, 0
2, 27637, Note_on_c, 0, 73, 0
2, 27647, Note_on_c, 0, 69, 0
2, 27652, Note_on_c, 0, 64, 0
2, 28218, Control_c, 0, 64, 0
2, 28220, Note_on_c, 0, 76, 51
2, 28224, Note_on_c, 0, 64, 38
2, 28236, Note_on_c, 0, 73, 35
2, 28246, Note_on_c, 0, 68, 44
2, 28296, Note_on_c, 0, 58, 26
2, 28458, Control_c, 0, 64, 127
2, 29045, Note_on_c, 0, 76, 0
2, 29087, Note_on_c, 0, 58, 0
2, 29114, Note_on_c, 0, 64, 0
2, 29180, Note_on_c, 0, 68, 0
2, 29214, Note_on_c, 0, 73, 0
2, 29389, Control_c, 0, 64, 0
2, 29444, Note_on_c, 0, 64, 43
2, 29445, Note_on_c, 0, 74, 44
2, 29466, Note_on_c, 0, 68, 50
2, 29490, Note_on_c, 0, 58, 30
2, 29895, Note_on_c, 0, 74, 0
2, 30002, Note_on_c, 0, 64, 0
2, 30042, Note_on_c, 0, 68, 0
2, 30094, Note_on_c, 0, 58, 0
2, 30124, Note_on_c, 0, 72, 48
2, 30149, Note_on_c, 0, 67, 57
2, 30150, Note_on_c, 0, 62, 42
2, 30154, Note_on_c, 0, 57, 44
2, 30196, Note_on_c, 0, 72, 0
2, 30204, Note_on_c, 0, 67, 0
2, 30210, Note_on_c, 0, 62, 0
2, 30223, Note_on_c, 0, 57, 0
2, 30704, Control_c, 0, 64, 127
2, 30706, Note_on_c, 0, 69, 62
2, 30717, Note_on_c, 0, 64, 54
2, 30735, Note_on_c, 0, 60, 28
2, 30740, Note_on_c, 0, 53, 48
2, 30783, Note_on_c, 0, 64, 0
2, 30808, Note_on_c, 0, 69, 0
2, 30887, Note_on_c, 0, 60, 0
2, 31134, Note_on_c, 0, 53, 0
2, 31306, Note_on_c, 0, 65, 50
2, 31317, Note_on_c, 0, 60, 40
2, 31319, Note_on_c, 0, 57, 43
2, 31442, Note_on_c, 0, 57, 0
2, 31560, Note_on_c, 0, 60, 0
2, 31592, Note_on_c, 0, 65, 0
2, 31888, Note_on_c, 0, 60, 45
2, 31890, Note_on_c, 0, 57, 51
2, 31892, Note_on_c, 0, 65, 60
2, 32620, Note_on_c, 0, 60, 0
2, 32654, Note_on_c, 0, 57, 0
2, 33191, Note_on_c, 0, 60, 29
2, 33653, Note_on_c, 0, 65, 0
2, 33711, Note_on_c, 0, 60, 0
2, 33820, Note_on_c, 0, 65, 46
2, 34202, Note_on_c, 0, 65, 0
2, 34383, Note_on_c, 0, 47, 46
2, 34400, Note_on_c, 0, 65, 37
2, 34405, Note_on_c, 0, 63, 58
2, 34415, Control_c, 0, 64, 0
2, 34421, Note_on_c, 0, 57, 33
2, 34428, Note_on_c, 0, 61, 46
2, 34847, Control_c, 0, 64, 127
2, 35172, Note_on_c, 0, 57, 0
2, 35322, Note_on_c, 0, 61, 0
2, 35426, Note_on_c, 0, 63, 0
2, 35712, Note_on_c, 0, 57, 31
2, 35716, Note_on_c, 0, 61, 42
2, 36226, Note_on_c, 0, 57, 0
2, 36706, Note_on_c, 0, 61, 0
2, 36861, Note_on_c, 0, 65, 0
2, 37015, Note_on_c, 0, 63, 45
2, 37024, Note_on_c, 0, 61, 50
2, 37026, Note_on_c, 0, 65, 48
2, 37631, Note_on_c, 0, 57, 74
2, 37978, Note_on_c, 0, 61, 0
2, 38056, Note_on_c, 0, 63, 0
2, 38109, Note_on_c, 0, 65, 0
2, 38294, Note_on_c, 0, 61, 42
2, 38298, Note_on_c, 0, 65, 43
2, 38301, Note_on_c, 0, 63, 44
2, 38765, Note_on_c, 0, 57, 0
2, 38919, Note_on_c, 0, 61, 0
2, 38930, Note_on_c, 0, 65, 0
2, 38956, Note_on_c, 0, 53, 53
2, 38965, Note_on_c, 0, 63, 0
2, 39020, Note_on_c, 0, 47, 0
2, 39532, Control_c, 0, 64, 0
2, 39556, Note_on_c, 0, 53, 0
2, 39565, Note_on_c, 0, 61, 42
2, 39589, Note_on_c, 0, 46, 35
2, 39600, Note_on_c, 0, 65, 43
2, 39607, Note_on_c, 0, 56, 34
2, 39804, Control_c, 0, 64, 127
2, 40013, Note_on_c, 0, 46, 0
2, 40055, Note_on_c, 0, 61, 0
2, 40104, Note_on_c, 0, 56, 0
2, 40122, Note_on_c, 0, 65, 0
2, 40536, Note_on_c, 0, 70, 59
2, 40619, Note_on_c, 0, 70, 0
2, 40624, Note_on_c, 0, 72, 59
2, 40767, Note_on_c, 0, 70, 55
2, 40826, Note_on_c, 0, 72, 0
2, 40879, Control_c, 0, 64, 0
2, 40952, Note_on_c, 0, 70, 0
2, 40962, Note_on_c, 0, 65, 20
2, 40986, Note_on_c, 0, 69, 44
2, 40991, Note_on_c, 0, 60, 28
2, 40996, Note_on_c, 0, 58, 28
2, 41468, Note_on_c, 0, 70, 62
2, 41485, Note_on_c, 0, 69, 0
2, 41492, Note_on_c, 0, 65, 0
2, 41525, Note_on_c, 0, 60, 0
2, 41653, Note_on_c, 0, 58, 0
2, 41783, Note_on_c, 0, 70, 0
2, 41861, Note_on_c, 0, 72, 62
2, 41986, Control_c, 0, 64, 127
2, 42258, Control_c, 0, 64, 0
2, 42264, Note_on_c, 0, 61, 35
2, 42306, Note_on_c, 0, 70, 55
2, 42317, Note_on_c, 0, 58, 42
2, 42324, Note_on_c, 0, 72, 0
2, 42452, Note_on_c, 0, 55, 4
2, 42596, Control_c, 0, 64, 127
2, 42644, Note_on_c, 0, 61, 0
2, 42658, Note_on_c, 0, 55, 0
2, 42674, Note_on_c, 0, 58, 0
2, 42728, Note_on_c, 0, 65, 54
2, 42743, Note_on_c, 0, 70, 0
2, 43214, Note_on_c, 0, 59, 43
2, 43229, Note_on_c, 0, 49, 32
2, 43382, Note_on_c, 0, 59, 0
2, 43490, Note_on_c, 0, 49, 0
2, 43583, Note_on_c, 0, 65, 0
2, 43589, Control_c, 0, 64, 0
2, 43653, Note_on_c, 0, 64, 40
2, 43655, Note_on_c, 0, 58, 48
2, 43672, Note_on_c, 0, 48, 36
2, 43879, Control_c, 0, 64, 127
2, 43957, Note_on_c, 0, 58, 0
2, 43962, Note_on_c, 0, 48, 0
2, 44256, Note_on_c, 0, 64, 0
2, 44808, Control_c, 0, 64, 0
2, 44839, Note_on_c, 0, 50, 36
2, 44840, Note_on_c, 0, 60, 30
2, 44844, Note_on_c, 0, 65, 43
2, 44968, Note_on_c, 0, 41, 17
2, 45071, Note_on_c, 0, 60, 0
2, 45082, Control_c, 0, 64, 127
2, 45140, Note_on_c, 0, 65, 0
2, 45333, Note_on_c, 0, 41, 0
2, 45381, Note_on_c, 0, 50, 0
2, 45624, Note_on_c, 0, 76, 80
2, 45794, Note_on_c, 0, 76, 0
2, 46116, Note_on_c, 0, 79, 83
2, 46124, Control_c, 0, 64, 0
2, 46143, Note_on_c, 0, 72, 71
2, 46144, Note_on_c, 0, 64, 68
2, 46181, Note_on_c, 0, 68, 42
2, 46444, Note_on_c, 0, 79, 0
2, 46573, Control_c, 0, 64, 127
2, 46575, Note_on_c, 0, 79, 64
2, 46804, Note_on_c, 0, 64, 0
2, 46829, Control_c, 0, 64, 0
2, 46830, Note_on_c, 0, 68, 0
2, 46840, Note_on_c, 0, 79, 0
2, 46887, Note_on_c, 0, 72, 0
2, 46983, Note_on_c, 0, 62, 54
2, 46986, Note_on_c, 0, 68, 34
2, 46996, Note_on_c, 0, 77, 58
2, 46997, Note_on_c, 0, 72, 31
2, 47119, Control_c, 0, 64, 127
2, 47266, Note_on_c, 0, 77, 0
2, 47437, Note_on_c, 0, 77, 54
2, 47591, Note_on_c, 0, 72, 0
2, 47618, Note_on_c, 0, 68, 0
2, 47719, Note_on_c, 0, 77, 0
2, 47792, Control_c, 0, 64, 0
2, 47836, Note_on_c, 0, 68, 33
2, 47839, Note_on_c, 0, 79, 47
2, 47845, Note_on_c, 0, 72, 45
2, 47858, Note_on_c, 0, 60, 34
2, 47871, Note_on_c, 0, 62, 0
2, 48052, Note_on_c, 0, 79, 0
2, 48082, Control_c, 0, 64, 127
2, 48175, Note_on_c, 0, 68, 0
2, 48253, Note_on_c, 0, 79, 48
2, 48447, Note_on_c, 0, 72, 0
2, 48511, Note_on_c, 0, 79, 0
2, 48522, Note_on_c, 0, 60, 0
2, 48596, Control_c, 0, 64, 0
2, 48628, Note_on_c, 0, 60, 35
2, 48648, Note_on_c, 0, 68, 25
2, 48690, Note_on_c, 0, 76, 44
2, 48712, Note_on_c, 0, 72, 33
2, 48789, Note_on_c, 0, 72, 0
2, 48791, Note_on_c, 0, 76, 0
2, 48836, Control_c, 0, 64, 127
2, 48855, Note_on_c, 0, 68, 0
2, 48964, Note_on_c, 0, 56, 9
2, 49039, Note_on_c, 0, 60, 0
2, 49426, Note_on_c, 0, 65, 52
2, 49463, Note_on_c, 0, 56, 0
2, 49474, Note_on_c, 0, 53, 44
2, 49560, Note_on_c, 0, 65, 0
2, 49589, Note_on_c, 0, 53, 0
2, 49941, Control_c, 0, 64, 0
2, 49962, Note_on_c, 0, 61, 32
2, 49967, Note_on_c, 0, 56, 46
2, 49976, Note_on_c, 0, 46, 37
2, 49989, Note_on_c, 0, 65, 50
2, 50199, Control_c, 0, 64, 127
2, 50312, Note_on_c, 0, 61, 0
2, 50354, Note_on_c, 0, 46, 0
2, 50429, Note_on_c, 0, 65, 0
2, 50456, Note_on_c, 0, 56, 0
2, 51255, Note_on_c, 0, 65, 43
2, 51264, Note_on_c, 0, 61, 50
2, 51274, Note_on_c, 0, 56, 33
2, 51287, Note_on_c, 0, 60, 25
2, 51762, Note_on_c, 0, 65, 0
2, 51819, Note_on_c, 0, 60, 0
2, 51935, Note_on_c, 0, 61, 0
2, 51967, Note_on_c, 0, 56, 0
2, 52048, Note_on_c, 0, 82, 86
2, 52061, Note_on_c, 0, 70, 88
2, 52412, Note_on_c, 0, 82, 0
2, 52415, Note_on_c, 0, 70, 0
2, 52530, Note_on_c, 0, 63, 64
2, 52541, Control_c, 0, 64, 0
2, 52548, Note_on_c, 0, 82, 62
2, 52557, Note_on_c, 0, 59, 55
2, 52560, Note_on_c, 0, 58, 51
2, 52562, Note_on_c, 0, 54, 53
2, 52565, Note_on_c, 0, 70, 73
2, 52861, Control_c, 0, 64, 127
2, 53094, Note_on_c, 0, 82, 0
2, 53165, Note_on_c, 0, 70, 0
2, 53252, Note_on_c, 0, 59, 0
2, 53348, Note_on_c, 0, 63, 0
2, 53365, Note_on_c, 0, 58, 0
2, 53410, Note_on_c, 0, 80, 50
2, 53429, Note_on_c, 0, 68, 37
2, 53612, Note_on_c, 0, 68, 0
2, 53621, Note_on_c, 0, 80, 0
2, 53792, Control_c, 0, 64, 0
2, 53840, Note_on_c, 0, 63, 48
2, 53864, Note_on_c, 0, 58, 33
2, 53890, Note_on_c, 0, 59, 37
2, 53895, Note_on_c, 0, 68, 52
2, 53911, Note_on_c, 0, 82, 51
2, 53925, Note_on_c, 0, 80, 32
2, 54032, Control_c, 0, 64, 127
2, 54077, Note_on_c, 0, 59, 0
2, 54082, Note_on_c, 0, 82, 0
2, 54114, Note_on_c, 0, 63, 0
2, 54154, Note_on_c, 0, 80, 0
2, 54162, Note_on_c, 0, 68, 0
2, 54186, Note_on_c, 0, 58, 0
2, 54266, Note_on_c, 0, 54, 0
2, 54706, Note_on_c, 0, 84, 63
2, 54736, Note_on_c, 0, 77, 59
2, 54808, Note_on_c, 0, 77, 0
2, 54834, Note_on_c, 0, 84, 0
2, 55124, Control_c, 0, 64, 0
2, 55184, Note_on_c, 0, 43, 44
2, 55348, Control_c, 0, 64, 127
2, 55687, Note_on_c, 0, 72, 38
2, 55698, Note_on_c, 0, 65, 67
2, 55757, Note_on_c, 0, 58, 29
2, 56015, Note_on_c, 0, 43, 0
2, 56519, Control_c, 0, 64, 0
2, 56520, Note_on_c, 0, 55, 36
2, 56580, Note_on_c, 0, 55, 0
2, 56948, Note_on_c, 0, 43, 41
2, 57071, Note_on_c, 0, 43, 0
2, 57381, Note_on_c, 0, 37, 54
2, 57493, Note_on_c, 0, 65, 0
2, 57530, Control_c, 0, 64, 127
2, 57674, Control_c, 0, 64, 0
2, 57739, Note_on_c, 0, 37, 0
2, 57980, Control_c, 0, 64, 127
2, 58140, Control_c, 0, 64, 0
2, 58172, Note_on_c, 0, 70, 1
2, 58226, Note_on_c, 0, 36, 45
2, 58360, Note_on_c, 0, 58, 0
2, 58428, Control_c, 0, 64, 127
2, 58485, Note_on_c, 0, 36, 0
2, 58685, Note_on_c, 0, 52, 53
2, 58842, Note_on_c, 0, 72, 0
2, 59109, Note_on_c, 0, 58, 65
2, 59344, Note_on_c, 0, 52, 0
2, 59494, Note_on_c, 0, 70, 0
2, 59508, Note_on_c, 0, 58, 0
2, 59540, Note_on_c, 0, 64, 40
2, 59789, Note_on_c, 0, 64, 0
2, 59941, Note_on_c, 0, 73, 53
2, 60220, Note_on_c, 0, 73, 0
2, 60434, Control_c, 0, 64, 0
2, 60436, Note_on_c, 0, 65, 32
2, 60437, Note_on_c, 0, 72, 43
2, 60439, Note_on_c, 0, 68, 48
2, 60448, Note_on_c, 0, 74, 37
2, 60863, Note_on_c, 0, 64, 55
2, 61300, Control_c, 0, 64, 127
2, 61508, Note_on_c, 0, 65, 0
2, 61533, Note_on_c, 0, 68, 0
2, 61557, Note_on_c, 0, 74, 0
2, 61602, Note_on_c, 0, 72, 0
2, 61767, Note_on_c, 0, 74, 32
2, 61768, Note_on_c, 0, 72, 28
2, 61770, Note_on_c, 0, 65, 42
2, 61794, Note_on_c, 0, 68, 30
2, 62477, Note_on_c, 0, 64, 0
2, 62600, Note_on_c, 0, 62, 84
2, 62906, Note_on_c, 0, 65, 0
2, 62925, Note_on_c, 0, 68, 0
2, 62997, Note_on_c, 0, 74, 0
2, 63048, Control_c, 0, 64, 0
2, 63052, Note_on_c, 0, 72, 0
2, 63138, Note_on_c, 0, 74, 48
2, 63144, Note_on_c, 0, 65, 40
2, 63152, Note_on_c, 0, 68, 42
2, 63157, Note_on_c, 0, 72, 22
2, 63384, Control_c, 0, 64, 127
2, 63941, Note_on_c, 0, 60, 51
2, 64002, Note_on_c, 0, 62, 0
2, 64029, Note_on_c, 0, 68, 0
2, 64064, Note_on_c, 0, 65, 0
2, 64392, Note_on_c, 0, 60, 0
2, 65197, Note_on_c, 0, 74, 0
2, 65223, Note_on_c, 0, 72, 0
2, 65368, Note_on_c, 0, 46, 36
2, 65741, Note_on_c, 0, 46, 0
2, 65791, Control_c, 0, 64, 0
2, 65818, Note_on_c, 0, 75, 55
2, 65821, Note_on_c, 0, 54, 39
2, 65842, Note_on_c, 0, 39, 37
2, 65861, Note_on_c, 0, 66, 25
2, 65884, Note_on_c, 0, 70, 32
2, 66079, Control_c, 0, 64, 127
2, 66272, Note_on_c, 0, 39, 0
2, 66480, Note_on_c, 0, 54, 0
2, 66823, Note_on_c, 0, 70, 0
2, 66826, Note_on_c, 0, 66, 0
2, 67162, Note_on_c, 0, 66, 33
2, 67164, Note_on_c, 0, 65, 56
2, 67165, Note_on_c, 0, 72, 50
2, 67168, Note_on_c, 0, 60, 29
2, 67172, Control_c, 0, 64, 0
2, 67216, Note_on_c, 0, 54, 32
2, 67394, Control_c, 0, 64, 127
2, 67416, Note_on_c, 0, 75, 0
2, 67909, Note_on_c, 0, 65, 0
2, 67980, Note_on_c, 0, 60, 0
2, 68052, Note_on_c, 0, 54, 0
2, 68501, Control_c, 0, 64, 0
2, 68565, Note_on_c, 0, 44, 47
2, 68620, Note_on_c, 0, 54, 18
2, 68711, Control_c, 0, 64, 127
2, 68955, Note_on_c, 0, 44, 0
2, 69026, Note_on_c, 0, 66, 0
2, 69047, Note_on_c, 0, 54, 0
2, 69173, Note_on_c, 0, 72, 0
2, 69453, Note_on_c, 0, 72, 96
2, 69887, Note_on_c, 0, 65, 44
2, 69896, Note_on_c, 0, 60, 30
2, 69920, Note_on_c, 0, 54, 28
2, 70023, Note_on_c, 0, 65, 0
2, 70080, Note_on_c, 0, 60, 0
2, 70350, Note_on_c, 0, 73, 59
2, 70565, Note_on_c, 0, 54, 0
2, 70589, Note_on_c, 0, 72, 0
2, 70596, Note_on_c, 0, 73, 0
2, 70783, Note_on_c, 0, 74, 72
2, 71098, Note_on_c, 0, 58, 42
2, 71131, Note_on_c, 0, 74, 0
2, 71165, Control_c, 0, 64, 0
2, 71191, Note_on_c, 0, 59, 53
2, 71212, Note_on_c, 0, 58, 0
2, 71268, Note_on_c, 0, 75, 57
2, 71275, Note_on_c, 0, 66, 31
2, 71277, Note_on_c, 0, 60, 38
2, 71300, Note_on_c, 0, 72, 38
2, 71306, Note_on_c, 0, 69, 39
2, 71308, Note_on_c, 0, 59, 0
2, 71517, Control_c, 0, 64, 127
2, 72008, Note_on_c, 0, 69, 0
2, 72192, Note_on_c, 0, 72, 0
2, 72416, Note_on_c, 0, 75, 0
2, 72514, Note_on_c, 0, 66, 0
2, 72516, Note_on_c, 0, 60, 0
2, 72544, Control_c, 0, 64, 0
2, 72570, Note_on_c, 0, 74, 53
2, 72572, Note_on_c, 0, 65, 48
2, 72586, Note_on_c, 0, 59, 37
2, 72800, Control_c, 0, 64, 127
2, 73154, Note_on_c, 0, 74, 0
2, 73456, Note_on_c, 0, 65, 0
2, 73860, Control_c, 0, 64, 0
2, 73916, Note_on_c, 0, 59, 0
2, 73941, Note_on_c, 0, 64, 32
2, 73957, Note_on_c, 0, 73, 30
2, 73983, Note_on_c, 0, 70, 42
2, 73989, Note_on_c, 0, 58, 35
2, 73997, Note_on_c, 0, 67, 31
2, 74100, Control_c, 0, 64, 127
2, 74552, Note_on_c, 0, 58, 0
2, 74701, Note_on_c, 0, 67, 0
2, 74760, Note_on_c, 0, 70, 0
2, 74781, Note_on_c, 0, 73, 0
2, 74856, Note_on_c, 0, 64, 0
2, 75318, Control_c, 0, 64, 0
2, 75348, Note_on_c, 0, 55, 49
2, 75360, Note_on_c, 0, 70, 45
2, 75362, Note_on_c, 0, 61, 33
2, 75373, Note_on_c, 0, 64, 34
2, 75397, Note_on_c, 0, 67, 37
2, 75608, Control_c, 0, 64, 127
2, 76135, Note_on_c, 0, 64, 0
2, 76143, Note_on_c, 0, 67, 0
2, 76328, Note_on_c, 0, 61, 0
2, 76367, Note_on_c, 0, 70, 0
2, 76698, Control_c, 0, 64, 0
2, 76765, Note_on_c, 0, 55, 0
2, 76791, Note_on_c, 0, 60, 25
2, 76794, Note_on_c, 0, 66, 34
2, 76807, Note_on_c, 0, 69, 36
2, 76808, Note_on_c, 0, 63, 37
2, 76821, Note_on_c, 0, 54, 29
2, 77004, Control_c, 0, 64, 127
2, 77495, Note_on_c, 0, 60, 0
2, 77607, Note_on_c, 0, 54, 0
2, 77671, Note_on_c, 0, 63, 0
2, 77734, Note_on_c, 0, 66, 0
2, 77792, Note_on_c, 0, 69, 0
2, 78077, Control_c, 0, 64, 0
2, 78171, Note_on_c, 0, 59, 34
2, 78178, Note_on_c, 0, 67, 40
2, 78183, Note_on_c, 0, 53, 34
2, 78204, Note_on_c, 0, 63, 34
2, 78367, Control_c, 0, 64, 127
2, 78573, Note_on_c, 0, 53, 0
2, 78805, Note_on_c, 0, 59, 0
2, 78821, Note_on_c, 0, 63, 0
2, 78845, Note_on_c, 0, 67, 0
2, 79442, Control_c, 0, 64, 0
2, 79536, Note_on_c, 0, 68, 36
2, 79540, Note_on_c, 0, 59, 31
2, 79556, Note_on_c, 0, 37, 36
2, 79573, Note_on_c, 0, 63, 36
2, 79586, Note_on_c, 0, 44, 30
2, 79602, Note_on_c, 0, 65, 33
2, 79730, Control_c, 0, 64, 127
2, 79868, Note_on_c, 0, 37, 0
2, 79992, Note_on_c, 0, 44, 0
2, 80199, Note_on_c, 0, 65, 0
2, 80239, Note_on_c, 0, 59, 0
2, 80319, Note_on_c, 0, 68, 0
2, 80367, Note_on_c, 0, 63, 0
2, 81012, Note_on_c, 0, 58, 47
2, 81018, Note_on_c, 0, 69, 54
2, 81034, Note_on_c, 0, 61, 42
2, 81063, Note_on_c, 0, 64, 37
2, 81141, Control_c, 0, 64, 0
2, 81702, Control_c, 0, 64, 127
2, 81903, Note_on_c, 0, 36, 40
2, 81916, Note_on_c, 0, 69, 0
2, 81980, Note_on_c, 0, 61, 0
2, 81989, Note_on_c, 0, 36, 0
2, 81996, Note_on_c, 0, 64, 0
2, 82018, Note_on_c, 0, 58, 0
2, 82344, Control_c, 0, 64, 0
2, 82432, Note_on_c, 0, 57, 37
2, 82445, Note_on_c, 0, 48, 31
2, 82501, Note_on_c, 0, 41, 24
2, 82618, Control_c, 0, 64, 127
2, 82677, Note_on_c, 0, 57, 0
2, 82800, Note_on_c, 0, 41, 0
2, 82816, Note_on_c, 0, 48, 0
2, 83348, Note_on_c, 0, 81, 77
2, 83548, Note_on_c, 0, 81, 0
2, 83741, Control_c, 0, 64, 0
2, 83781, Note_on_c, 0, 69, 44
2, 84047, Note_on_c, 0, 69, 0
2, 84111, Note_on_c, 0, 73, 37
2, 84255, Control_c, 0, 64, 127
2, 84376, Note_on_c, 0, 73, 0
2, 84424, Note_on_c, 0, 76, 81
2, 84720, Note_on_c, 0, 79, 76
2, 84762, Note_on_c, 0, 76, 0
2, 84949, Note_on_c, 0, 79, 0
2, 84976, Control_c, 0, 64, 0
2, 84991, Note_on_c, 0, 61, 29
2, 85004, Note_on_c, 0, 64, 33
2, 85021, Note_on_c, 0, 77, 65
2, 85028, Note_on_c, 0, 57, 33
2, 85356, Note_on_c, 0, 77, 0
2, 85621, Note_on_c, 0, 75, 78
2, 85919, Note_on_c, 0, 76, 79
2, 85948, Note_on_c, 0, 64, 0
2, 85959, Note_on_c, 0, 53, 1
2, 85974, Note_on_c, 0, 75, 0
2, 86066, Control_c, 0, 64, 127
2, 86088, Note_on_c, 0, 61, 0
2, 86159, Note_on_c, 0, 76, 0
2, 86164, Control_c, 0, 64, 0
2, 86212, Note_on_c, 0, 62, 47
2, 86242, Note_on_c, 0, 74, 57
2, 86311, Note_on_c, 0, 76, 22
2, 86493, Note_on_c, 0, 74, 0
2, 86516, Control_c, 0, 64, 127
2, 86538, Note_on_c, 0, 76, 0
2, 86615, Note_on_c, 0, 69, 57
2, 86735, Note_on_c, 0, 53, 0
2, 86808, Note_on_c, 0, 69, 0
2, 87002, Note_on_c, 0, 53, 45
2, 87133, Note_on_c, 0, 62, 0
2, 87192, Note_on_c, 0, 57, 0
2, 87312, Note_on_c, 0, 53, 0
2, 87445, Control_c, 0, 64, 0
2, 87474, Note_on_c, 0, 62, 52
2, 87548, Note_on_c, 0, 58, 35
2, 87549, Note_on_c, 0, 52, 36
2, 87767, Control_c, 0, 64, 127
2, 88066, Note_on_c, 0, 62, 0
2, 88204, Note_on_c, 0, 58, 0
2, 88356, Note_on_c, 0, 67, 90
2, 88678, Note_on_c, 0, 67, 0
2, 88835, Note_on_c, 0, 58, 60
2, 88839, Note_on_c, 0, 62, 54
2, 89018, Control_c, 0, 64, 0
2, 89130, Control_c, 0, 64, 127
2, 89282, Note_on_c, 0, 62, 0
2, 89317, Note_on_c, 0, 69, 108
2, 89442, Note_on_c, 0, 58, 0
2, 89533, Note_on_c, 0, 52, 0
2, 89578, Note_on_c, 0, 69, 0
2, 89719, Note_on_c, 0, 68, 84
2, 90029, Control_c, 0, 64, 0
2, 90031, Note_on_c, 0, 68, 0
2, 90152, Note_on_c, 0, 45, 51
2, 90154, Note_on_c, 0, 69, 67
2, 90269, Control_c, 0, 64, 127
2, 90319, Note_on_c, 0, 45, 0
2, 90510, Note_on_c, 0, 69, 0
2, 90596, Note_on_c, 0, 70, 59
2, 90876, Note_on_c, 0, 70, 0
2, 91008, Note_on_c, 0, 72, 75
2, 91434, Note_on_c, 0, 61, 49
2, 91440, Control_c, 0, 64, 0
2, 91442, Note_on_c, 0, 77, 68
2, 91448, Note_on_c, 0, 66, 46
2, 91477, Note_on_c, 0, 55, 32
2, 91528, Note_on_c, 0, 72, 0
2, 91698, Control_c, 0, 64, 127
2, 91802, Note_on_c, 0, 77, 0
2, 91870, Note_on_c, 0, 82, 62
2, 92135, Note_on_c, 0, 82, 0
2, 92333, Note_on_c, 0, 84, 84
2, 92495, Note_on_c, 0, 84, 0
2, 92588, Note_on_c, 0, 66, 0
2, 92679, Note_on_c, 0, 55, 0
2, 92690, Note_on_c, 0, 61, 0
2, 92757, Note_on_c, 0, 72, 53
2, 93100, Note_on_c, 0, 72, 0
2, 93194, Note_on_c, 0, 79, 68
2, 93549, Note_on_c, 0, 79, 0
2, 93623, Control_c, 0, 64, 0
2, 93640, Note_on_c, 0, 69, 32
2, 93650, Note_on_c, 0, 64, 32
2, 94055, Control_c, 0, 64, 127
2, 94084, Note_on_c, 0, 77, 64
2, 94319, Note_on_c, 0, 77, 0
2, 94322, Note_on_c, 0, 69, 0
2, 94548, Note_on_c, 0, 69, 30
2, 94554, Note_on_c, 0, 64, 0
2, 94936, Control_c, 0, 64, 0
2, 94940, Note_on_c, 0, 76, 62
2, 94951, Note_on_c, 0, 61, 39
2, 95360, Note_on_c, 0, 76, 0
2, 95384, Note_on_c, 0, 69, 0
2, 95418, Control_c, 0, 64, 127
2, 95692, Control_c, 0, 64, 0
2, 95773, Note_on_c, 0, 74, 44
2, 95781, Note_on_c, 0, 60, 27
2, 95794, Note_on_c, 0, 61, 0
2, 95916, Control_c, 0, 64, 127
2, 96005, Note_on_c, 0, 74, 0
2, 96268, Note_on_c, 0, 74, 19
2, 96274, Note_on_c, 0, 72, 19
2, 96352, Note_on_c, 0, 74, 0
2, 96565, Note_on_c, 0, 72, 0
2, 96568, Note_on_c, 0, 60, 0
2, 96676, Note_on_c, 0, 65, 33
2, 96679, Note_on_c, 0, 60, 22
2, 96765, Control_c, 0, 64, 0
2, 96879, Note_on_c, 0, 60, 0
2, 97007, Note_on_c, 0, 65, 0
2, 97119, Control_c, 0, 64, 127
2, 97132, Note_on_c, 0, 53, 42
2, 97213, Note_on_c, 0, 53, 0
2, 97540, Note_on_c, 0, 44, 50
2, 97806, Note_on_c, 0, 44, 0
2, 97888, Control_c, 0, 64, 0
2, 98002, Note_on_c, 0, 61, 39
2, 98016, Note_on_c, 0, 59, 40
2, 98055, Note_on_c, 0, 53, 34
2, 98084, Note_on_c, 0, 43, 29
2, 98194, Control_c, 0, 64, 127
2, 99008, Note_on_c, 0, 53, 0
2, 99196, Note_on_c, 0, 59, 0
2, 99442, Note_on_c, 0, 59, 36
2, 99461, Control_c, 0, 64, 0
2, 99466, Note_on_c, 0, 53, 31
2, 99480, Note_on_c, 0, 62, 29
2, 99618, Note_on_c, 0, 61, 0
2, 100884, Note_on_c, 0, 50, 36
2, 101016, Control_c, 0, 64, 127
2, 101400, Note_on_c, 0, 59, 0
2, 101765, Note_on_c, 0, 43, 0
2, 101864, Note_on_c, 0, 57, 37
2, 102293, Note_on_c, 0, 57, 0
2, 102311, Note_on_c, 0, 43, 45
2, 102512, Note_on_c, 0, 50, 0
2, 102514, Note_on_c, 0, 62, 0
2, 102541, Note_on_c, 0, 43, 0
2, 102604, Note_on_c, 0, 53, 0
2, 103381, Note_on_c, 0, 41, 42
2, 103544, Note_on_c, 0, 48, 34
2, 103632, Note_on_c, 0, 57, 51
2, 103648, Note_on_c, 0, 71, 60
2, 103664, Note_on_c, 0, 63, 50
2, 103669, Note_on_c, 0, 67, 50
2, 103680, Control_c, 0, 64, 0
2, 104064, Control_c, 0, 64, 127
2, 104261, Note_on_c, 0, 71, 0
2, 104436, Note_on_c, 0, 67, 0
2, 104496, Note_on_c, 0, 71, 64
2, 104512, Note_on_c, 0, 57, 0
2, 104580, Note_on_c, 0, 63, 0
2, 104628, Note_on_c, 0, 48, 0
2, 104844, Note_on_c, 0, 71, 0
2, 105029, Note_on_c, 0, 71, 46
2, 105056, Note_on_c, 0, 63, 34
2, 105058, Note_on_c, 0, 59, 45
2, 105074, Note_on_c, 0, 67, 42
2, 105076, Note_on_c, 0, 48, 35
2, 105292, Note_on_c, 0, 41, 0
2, 105304, Note_on_c, 0, 48, 0
2, 105402, Note_on_c, 0, 59, 0
2, 105654, Note_on_c, 0, 71, 0
2, 105719, Note_on_c, 0, 67, 0
2, 105820, Note_on_c, 0, 63, 0
2, 105944, Note_on_c, 0, 71, 74
2, 106279, Note_on_c, 0, 71, 0
2, 106439, Control_c, 0, 64, 0
2, 106440, Note_on_c, 0, 71, 66
2, 106456, Note_on_c, 0, 63, 51
2, 106466, Note_on_c, 0, 62, 54
2, 106468, Note_on_c, 0, 67, 54
2, 106469, Note_on_c, 0, 59, 58
2, 106714, Note_on_c, 0, 59, 0
2, 106722, Note_on_c, 0, 71, 0
2, 106919, Note_on_c, 0, 71, 40
2, 106936, Control_c, 0, 64, 127
2, 107056, Note_on_c, 0, 62, 0
2, 107375, Note_on_c, 0, 53, 45
2, 107495, Note_on_c, 0, 67, 0
2, 107575, Note_on_c, 0, 63, 0
2, 107594, Control_c, 0, 64, 0
2, 107693, Note_on_c, 0, 53, 0
2, 107824, Note_on_c, 0, 63, 49
2, 107837, Note_on_c, 0, 59, 54
2, 107871, Note_on_c, 0, 67, 35
2, 108261, Note_on_c, 0, 48, 36
2, 108534, Note_on_c, 0, 48, 0
2, 108637, Control_c, 0, 64, 127
2, 108702, Note_on_c, 0, 41, 51
2, 108853, Note_on_c, 0, 41, 0
2, 109213, Control_c, 0, 64, 0
2, 109226, Note_on_c, 0, 59, 0
2, 109232, Note_on_c, 0, 28, 56
2, 109396, Note_on_c, 0, 63, 0
2, 109460, Note_on_c, 0, 67, 0
2, 109519, Control_c, 0, 64, 127
2, 109740, Note_on_c, 0, 28, 0
2, 110408, Note_on_c, 0, 71, 0
2, 110632, Note_on_c, 0, 64, 44
2, 110644, Note_on_c, 0, 62, 38
2, 110936, Note_on_c, 0, 64, 0
2, 111095, Note_on_c, 0, 62, 0
2, 111490, Note_on_c, 0, 71, 105
2, 111874, Note_on_c, 0, 71, 0
2, 112028, Note_on_c, 0, 71, 80
2, 112053, Note_on_c, 0, 64, 74
2, 112069, Control_c, 0, 64, 0
2, 112341, Control_c, 0, 64, 127
2, 112562, Note_on_c, 0, 64, 0
2, 112924, Note_on_c, 0, 52, 42
2, 113389, Note_on_c, 0, 71, 0
2, 113400, Control_c, 0, 64, 0
2, 113412, Note_on_c, 0, 68, 29
2, 113463, Note_on_c, 0, 62, 28
2, 113485, Note_on_c, 0, 64, 36
2, 113528, Note_on_c, 0, 56, 31
2, 113658, Control_c, 0, 64, 127
2, 113828, Note_on_c, 0, 64, 0
2, 113844, Note_on_c, 0, 52, 0
2, 113940, Note_on_c, 0, 62, 0
2, 113984, Note_on_c, 0, 56, 0
2, 114132, Note_on_c, 0, 68, 0
2, 114346, Note_on_c, 0, 72, 63
2, 114468, Note_on_c, 0, 72, 0
2, 114797, Control_c, 0, 64, 0
2, 114852, Note_on_c, 0, 85, 69
2, 114861, Note_on_c, 0, 73, 44
2, 114866, Note_on_c, 0, 54, 27
2, 114899, Note_on_c, 0, 61, 38
2, 114911, Note_on_c, 0, 66, 43
2, 114920, Note_on_c, 0, 54, 0
2, 114936, Note_on_c, 0, 55, 45
2, 115325, Control_c, 0, 64, 127
2, 115690, Note_on_c, 0, 55, 0
2, 116074, Note_on_c, 0, 61, 0
2, 116085, Note_on_c, 0, 66, 0
2, 116199, Note_on_c, 0, 85, 0
2, 116208, Note_on_c, 0, 73, 0
2, 117077, Note_on_c, 0, 81, 68
2, 117251, Note_on_c, 0, 81, 0
2, 117375, Note_on_c, 0, 80, 45
2, 117597, Note_on_c, 0, 80, 0
2, 117684, Control_c, 0, 64, 0
2, 117701, Note_on_c, 0, 62, 38
2, 117703, Note_on_c, 0, 67, 37
2, 117717, Note_on_c, 0, 81, 58
2, 117728, Note_on_c, 0, 56, 32
2, 118213, Control_c, 0, 64, 127
2, 118578, Note_on_c, 0, 72, 54
2, 118588, Note_on_c, 0, 81, 0
2, 118746, Note_on_c, 0, 72, 0
2, 118807, Control_c, 0, 64, 0
2, 118898, Note_on_c, 0, 77, 54
2, 119133, Note_on_c, 0, 77, 0
2, 119178, Note_on_c, 0, 82, 61
2, 119191, Control_c, 0, 64, 127
2, 119301, Note_on_c, 0, 82, 0
2, 119477, Note_on_c, 0, 84, 73
2, 119688, Note_on_c, 0, 84, 0
2, 119725, Note_on_c, 0, 62, 0
2, 119730, Note_on_c, 0, 67, 0
2, 119772, Note_on_c, 0, 89, 74
2, 119980, Note_on_c, 0, 56, 0
2, 119994, Note_on_c, 0, 89, 0
2, 120061, Note_on_c, 0, 94, 78
2, 120298, Control_c, 0, 64, 0
2, 120312, Note_on_c, 0, 94, 0
2, 120380, Note_on_c, 0, 66, 36
2, 120388, Note_on_c, 0, 96, 65
2, 120389, Note_on_c, 0, 55, 38
2, 120400, Note_on_c, 0, 61, 38
2, 120661, Note_on_c, 0, 96, 0
2, 120727, Note_on_c, 0, 92, 57
2, 120858, Note_on_c, 0, 92, 0
2, 120876, Note_on_c, 0, 93, 55
2, 121228, Control_c, 0, 64, 127
2, 121634, Note_on_c, 0, 93, 0
2, 121638, Note_on_c, 0, 88, 49
2, 122383, Note_on_c, 0, 88, 0
2, 122488, Note_on_c, 0, 55, 0
2, 122511, Note_on_c, 0, 86, 45
2, 122565, Note_on_c, 0, 61, 0
2, 122612, Note_on_c, 0, 66, 0
2, 122738, Note_on_c, 0, 86, 0
2, 122928, Control_c, 0, 64, 0
2, 122965, Note_on_c, 0, 61, 33
2, 122981, Note_on_c, 0, 65, 26
2, 122983, Note_on_c, 0, 85, 33
2, 123012, Note_on_c, 0, 55, 28
2, 123218, Note_on_c, 0, 85, 0
2, 123373, Note_on_c, 0, 88, 42
2, 123578, Note_on_c, 0, 88, 0
2, 123773, Note_on_c, 0, 82, 47
2, 123940, Control_c, 0, 64, 127
2, 123951, Note_on_c, 0, 61, 0
2, 123988, Note_on_c, 0, 65, 0
2, 124310, Note_on_c, 0, 65, 27
2, 124312, Note_on_c, 0, 61, 42
2, 124632, Note_on_c, 0, 82, 0
2, 124706, Note_on_c, 0, 55, 0
2, 124789, Note_on_c, 0, 81, 50
2, 124882, Note_on_c, 0, 81, 0
2, 125093, Note_on_c, 0, 65, 0
2, 125221, Note_on_c, 0, 55, 36
2, 125285, Note_on_c, 0, 61, 0
2, 125379, Note_on_c, 0, 55, 0
2, 125672, Control_c, 0, 64, 0
2, 125680, Note_on_c, 0, 74, 44
2, 125696, Note_on_c, 0, 69, 44
2, 125701, Note_on_c, 0, 67, 33
2, 125703, Note_on_c, 0, 62, 50
2, 125727, Note_on_c, 0, 64, 19
2, 126189, Control_c, 0, 64, 127
2, 126355, Note_on_c, 0, 74, 0
2, 126421, Note_on_c, 0, 64, 0
2, 126450, Note_on_c, 0, 62, 0
2, 126453, Note_on_c, 0, 69, 0
2, 126508, Note_on_c, 0, 67, 0
2, 126556, Note_on_c, 0, 74, 63
2, 126992, Note_on_c, 0, 74, 0
2, 127077, Note_on_c, 0, 74, 25
2, 127111, Note_on_c, 0, 60, 28
2, 127114, Note_on_c, 0, 64, 34
2, 127119, Control_c, 0, 64, 0
2, 127122, Note_on_c, 0, 67, 33
2, 127125, Note_on_c, 0, 69, 38
2, 127472, Control_c, 0, 64, 127
2, 127986, Note_on_c, 0, 67, 0
2, 128013, Note_on_c, 0, 50, 28
2, 128104, Note_on_c, 0, 64, 0
2, 128173, Note_on_c, 0, 60, 0
2, 128452, Control_c, 0, 64, 0
2, 128456, Note_on_c, 0, 74, 0
2, 128588, Note_on_c, 0, 63, 43
2, 128600, Note_on_c, 0, 66, 35
2, 128602, Note_on_c, 0, 60, 27
2, 128612, Control_c, 0, 64, 127
2, 129330, Note_on_c, 0, 60, 0
2, 129535, Note_on_c, 0, 63, 0
2, 129586, Note_on_c, 0, 66, 0
2, 129954, Note_on_c, 0, 69, 0
2, 129983, Note_on_c, 0, 66, 43
2, 130000, Note_on_c, 0, 63, 37
2, 130083, Note_on_c, 0, 50, 0
2, 130424, Control_c, 0, 64, 0
2, 130460, Note_on_c, 0, 49, 62
2, 130855, Note_on_c, 0, 49, 0
2, 130906, Control_c, 0, 64, 127
2, 130919, Note_on_c, 0, 50, 50
2, 130975, Note_on_c, 0, 50, 0
2, 131354, Control_c, 0, 64, 0
2, 131415, Note_on_c, 0, 26, 62
2, 131482, Control_c, 0, 64, 127
2, 131485, Note_on_c, 0, 63, 0
2, 131652, Note_on_c, 0, 66, 0
2, 131653, Note_on_c, 0, 26, 0
2, 132479, Note_on_c, 0, 87, 85
2, 132482, Note_on_c, 0, 75, 95
2, 132484, Note_on_c, 0, 61, 71
2, 132487, Note_on_c, 0, 82, 85
2, 132493, Control_c, 0, 64, 0
2, 132506, Note_on_c, 0, 66, 81
2, 132508, Note_on_c, 0, 55, 57
2, 132703, Control_c, 0, 64, 127
2, 132879, Note_on_c, 0, 55, 0
2, 132941, Note_on_c, 0, 87, 0
2, 132960, Note_on_c, 0, 82, 0
2, 132965, Note_on_c, 0, 75, 0
2, 132997, Note_on_c, 0, 66, 0
2, 133023, Note_on_c, 0, 61, 0
2, 133061, Note_on_c, 0, 86, 72
2, 133071, Control_c, 0, 64, 0
2, 133076, Note_on_c, 0, 81, 68
2, 133079, Note_on_c, 0, 60, 54
2, 133080, Note_on_c, 0, 74, 52
2, 133082, Note_on_c, 0, 65, 74
2, 133100, Note_on_c, 0, 54, 49
2, 133472, Control_c, 0, 64, 127
2, 133933, Note_on_c, 0, 86, 0
2, 133964, Note_on_c, 0, 81, 0
2, 134044, Note_on_c, 0, 65, 0
2, 134064, Note_on_c, 0, 74, 0
2, 134423, Note_on_c, 0, 60, 0
2, 134487, Note_on_c, 0, 74, 49
2, 135388, Note_on_c, 0, 62, 38
2, 135754, Note_on_c, 0, 54, 0
2, 136351, Note_on_c, 0, 50, 39
2, 136503, Control_c, 0, 64, 0
2, 136572, Note_on_c, 0, 74, 0
2, 136664, Control_c, 0, 64, 127
2, 136669, Note_on_c, 0, 50, 0
2, 136690, Note_on_c, 0, 62, 0
2, 136858, Note_on_c, 0, 43, 55
2, 137274, Control_c, 0, 64, 0
2, 137372, Note_on_c, 0, 53, 59
2, 137373, Note_on_c, 0, 60, 38
2, 137380, Note_on_c, 0, 57, 47
2, 137562, Control_c, 0, 64, 127
2, 137860, Note_on_c, 0, 53, 0
2, 137877, Note_on_c, 0, 57, 0
2, 137959, Note_on_c, 0, 60, 0
2, 138008, Note_on_c, 0, 43, 0
2, 138784, Note_on_c, 0, 74, 80
2, 138789, Note_on_c, 0, 64, 79
2, 138799, Note_on_c, 0, 65, 82
2, 138805, Note_on_c, 0, 72, 68
2, 138807, Note_on_c, 0, 69, 75
2, 138813, Control_c, 0, 64, 0
2, 139087, Note_on_c, 0, 65, 0
2, 139092, Note_on_c, 0, 69, 0
2, 139103, Note_on_c, 0, 74, 0
2, 139130, Note_on_c, 0, 72, 0
2, 139240, Note_on_c, 0, 65, 33
2, 139256, Note_on_c, 0, 74, 53
2, 139269, Note_on_c, 0, 69, 46
2, 139271, Note_on_c, 0, 72, 42
2, 139343, Note_on_c, 0, 69, 0
2, 139356, Note_on_c, 0, 72, 0
2, 139370, Note_on_c, 0, 65, 0
2, 139381, Note_on_c, 0, 74, 0
2, 139741, Note_on_c, 0, 65, 60
2, 139743, Note_on_c, 0, 74, 49
2, 139752, Note_on_c, 0, 64, 0
2, 139759, Note_on_c, 0, 72, 44
2, 139765, Note_on_c, 0, 62, 48
2, 139767, Note_on_c, 0, 69, 40
2, 139824, Note_on_c, 0, 69, 0
2, 139829, Note_on_c, 0, 65, 0
2, 139834, Note_on_c, 0, 72, 0
2, 139858, Note_on_c, 0, 74, 0
2, 140943, Note_on_c, 0, 74, 57
2, 140949, Note_on_c, 0, 65, 59
2, 140964, Note_on_c, 0, 72, 46
2, 140967, Note_on_c, 0, 61, 61
2, 140980, Note_on_c, 0, 69, 37
2, 140992, Note_on_c, 0, 62, 0
2, 141020, Note_on_c, 0, 65, 0
2, 141031, Note_on_c, 0, 72, 0
2, 141040, Note_on_c, 0, 69, 0
2, 141063, Note_on_c, 0, 74, 0
2, 141988, Note_on_c, 0, 74, 57
2, 141999, Note_on_c, 0, 65, 49
2, 142018, Note_on_c, 0, 69, 33
2, 142055, Control_c, 0, 64, 127
2, 142092, Note_on_c, 0, 69, 0
2, 142143, Note_on_c, 0, 65, 0
2, 142204, Note_on_c, 0, 74, 0
2, 142413, Note_on_c, 0, 73, 33
2, 142734, Note_on_c, 0, 73, 0
2, 142774, Control_c, 0, 64, 0
2, 142820, Note_on_c, 0, 61, 0
2, 142868, Note_on_c, 0, 74, 57
2, 142898, Note_on_c, 0, 65, 38
2, 142904, Note_on_c, 0, 60, 25
2, 142935, Note_on_c, 0, 69, 32
2, 143000, Control_c, 0, 64, 127
2, 143130, Note_on_c, 0, 60, 0
2, 143208, Note_on_c, 0, 74, 0
2, 143234, Note_on_c, 0, 69, 0
2, 143322, Note_on_c, 0, 65, 0
2, 143784, Note_on_c, 0, 50, 24
2, 143903, Note_on_c, 0, 50, 0
2, 144312, Note_on_c, 0, 53, 35
2, 144314, Note_on_c, 0, 62, 40
2, 144332, Control_c, 0, 64, 0
2, 144343, Note_on_c, 0, 43, 26
2, 144351, Note_on_c, 0, 57, 27
2, 144352, Note_on_c, 0, 59, 40
2, 144368, Note_on_c, 0, 50, 16
2, 144605, Control_c, 0, 64, 127
2, 145114, Note_on_c, 0, 53, 0
2, 145173, Note_on_c, 0, 57, 0
2, 145256, Note_on_c, 0, 50, 0
2, 145418, Note_on_c, 0, 59, 0
2, 145804, Note_on_c, 0, 56, 52
2, 145820, Note_on_c, 0, 53, 40
2, 145856, Control_c, 0, 64, 0
2, 145864, Note_on_c, 0, 54, 34
2, 146160, Control_c, 0, 64, 127
2, 146476, Note_on_c, 0, 53, 0
2, 146533, Note_on_c, 0, 54, 0
2, 146895, Note_on_c, 0, 56, 0
2, 147061, Note_on_c, 0, 62, 0
2, 147336, Note_on_c, 0, 56, 42
2, 147354, Note_on_c, 0, 59, 41
2, 147364, Control_c, 0, 64, 0
2, 147380, Note_on_c, 0, 53, 25
2, 147508, Control_c, 0, 64, 127
2, 147578, Note_on_c, 0, 43, 0
2, 147788, Note_on_c, 0, 56, 0
2, 147797, Note_on_c, 0, 53, 0
2, 147903, Note_on_c, 0, 59, 0
2, 148322, Note_on_c, 0, 57, 32
2, 148488, Note_on_c, 0, 57, 0
2, 148807, Control_c, 0, 64, 0
2, 148820, Note_on_c, 0, 57, 30
2, 148826, Note_on_c, 0, 50, 40
2, 148829, Note_on_c, 0, 69, 49
2, 148842, Note_on_c, 0, 64, 44
2, 148843, Note_on_c, 0, 65, 44
2, 149112, Control_c, 0, 64, 127
2, 149485, Note_on_c, 0, 69, 0
2, 149760, Note_on_c, 0, 64, 0
2, 149781, Note_on_c, 0, 57, 0
2, 149800, Note_on_c, 0, 65, 0
2, 149866, Note_on_c, 0, 64, 27
2, 149869, Note_on_c, 0, 69, 62
2, 150359, Note_on_c, 0, 64, 0
2, 150392, Note_on_c, 0, 69, 0
2, 150423, Note_on_c, 0, 57, 24
2, 151058, Note_on_c, 0, 57, 0
2, 151206, Note_on_c, 0, 50, 0
2, 151314, Note_on_c, 0, 70, 70
2, 151701, Note_on_c, 0, 70, 0
2, 151807, Control_c, 0, 64, 0
2, 151821, Note_on_c, 0, 71, 66
2, 151850, Note_on_c, 0, 62, 63
2, 151852, Note_on_c, 0, 67, 59
2, 151861, Note_on_c, 0, 55, 39
2, 151868, Note_on_c, 0, 47, 36
2, 152062, Control_c, 0, 64, 127
2, 152578, Note_on_c, 0, 62, 0
2, 152580, Note_on_c, 0, 67, 0
2, 152616, Note_on_c, 0, 71, 0
2, 152719, Note_on_c, 0, 55, 0
2, 152815, Note_on_c, 0, 74, 70
2, 152839, Note_on_c, 0, 62, 44
2, 152842, Note_on_c, 0, 67, 54
2, 153423, Note_on_c, 0, 55, 42
2, 153618, Note_on_c, 0, 55, 0
2, 153666, Note_on_c, 0, 47, 0
2, 153696, Note_on_c, 0, 67, 0
2, 153748, Note_on_c, 0, 74, 0
2, 154098, Note_on_c, 0, 62, 0
2, 154858, Note_on_c, 0, 47, 30
2, 154871, Control_c, 0, 64, 0
2, 154872, Note_on_c, 0, 40, 53
2, 154892, Note_on_c, 0, 55, 62
2, 154896, Note_on_c, 0, 64, 59
2, 154904, Note_on_c, 0, 58, 58
2, 154905, Note_on_c, 0, 62, 59
2, 155302, Control_c, 0, 64, 127
2, 155566, Note_on_c, 0, 64, 0
2, 155733, Note_on_c, 0, 62, 0
2, 155735, Note_on_c, 0, 58, 0
2, 155768, Note_on_c, 0, 55, 0
2, 155864, Note_on_c, 0, 58, 48
2, 155869, Note_on_c, 0, 64, 70
2, 156223, Note_on_c, 0, 40, 0
2, 156364, Note_on_c, 0, 58, 0
2, 156413, Note_on_c, 0, 55, 40
2, 156501, Note_on_c, 0, 55, 0
2, 156586, Note_on_c, 0, 47, 0
2, 156791, Note_on_c, 0, 64, 0
2, 156834, Note_on_c, 0, 62, 69
2, 157040, Note_on_c, 0, 62, 0
2, 157855, Control_c, 0, 64, 0
2, 157860, Note_on_c, 0, 62, 79
2, 157871, Note_on_c, 0, 76, 95
2, 157874, Note_on_c, 0, 72, 96
2, 157884, Note_on_c, 0, 56, 77
2, 157887, Note_on_c, 0, 67, 96
2, 158244, Control_c, 0, 64, 127
2, 158764, Note_on_c, 0, 62, 0
2, 158852, Note_on_c, 0, 67, 0
2, 158991, Note_on_c, 0, 72, 0
2, 159087, Note_on_c, 0, 56, 0
2, 159205, Note_on_c, 0, 76, 0
2, 159415, Control_c, 0, 64, 0
2, 159416, Note_on_c, 0, 74, 55
2, 159428, Note_on_c, 0, 65, 44
2, 159429, Note_on_c, 0, 70, 53
2, 159440, Note_on_c, 0, 61, 51
2, 159450, Note_on_c, 0, 55, 41
2, 159783, Control_c, 0, 64, 127
2, 160038, Note_on_c, 0, 61, 0
2, 160084, Note_on_c, 0, 55, 0
2, 160247, Note_on_c, 0, 65, 0
2, 160280, Note_on_c, 0, 74, 0
2, 160484, Note_on_c, 0, 70, 0
2, 160938, Control_c, 0, 64, 0
2, 160981, Note_on_c, 0, 77, 60
2, 160989, Note_on_c, 0, 66, 53
2, 161004, Note_on_c, 0, 50, 40
2, 161005, Note_on_c, 0, 70, 55
2, 161226, Note_on_c, 0, 77, 0
2, 161356, Control_c, 0, 64, 127
2, 161517, Note_on_c, 0, 76, 68
2, 161856, Note_on_c, 0, 76, 0
2, 161965, Note_on_c, 0, 75, 55
2, 162125, Note_on_c, 0, 66, 0
2, 162218, Note_on_c, 0, 70, 0
2, 162338, Note_on_c, 0, 75, 0
2, 162514, Note_on_c, 0, 66, 30
2, 162532, Note_on_c, 0, 62, 30
2, 162533, Note_on_c, 0, 74, 44
2, 162543, Control_c, 0, 64, 0
2, 162549, Note_on_c, 0, 70, 31
2, 162799, Control_c, 0, 64, 127
2, 163263, Note_on_c, 0, 74, 0
2, 163276, Note_on_c, 0, 62, 0
2, 163412, Note_on_c, 0, 66, 0
2, 163470, Note_on_c, 0, 70, 0
2, 163568, Note_on_c, 0, 66, 25
2, 163576, Note_on_c, 0, 60, 31
2, 163599, Note_on_c, 0, 74, 47
2, 163607, Note_on_c, 0, 69, 47
2, 163714, Control_c, 0, 64, 0
2, 164018, Control_c, 0, 64, 127
2, 165208, Note_on_c, 0, 57, 38
2, 165624, Note_on_c, 0, 50, 0
2, 165808, Note_on_c, 0, 74, 0
2, 165856, Note_on_c, 0, 69, 0
2, 165976, Note_on_c, 0, 60, 0
2, 166112, Note_on_c, 0, 66, 0
2, 166280, Note_on_c, 0, 50, 33
2, 166396, Note_on_c, 0, 57, 0
2, 166445, Note_on_c, 0, 50, 0
2, 166776, Note_on_c, 0, 44, 23
2, 166842, Note_on_c, 0, 44, 0
2, 167207, Note_on_c, 0, 64, 40
2, 167213, Note_on_c, 0, 59, 38
2, 167231, Note_on_c, 0, 53, 33
2, 167237, Note_on_c, 0, 43, 33
2, 167242, Control_c, 0, 64, 0
2, 167644, Control_c, 0, 64, 127
2, 167981, Note_on_c, 0, 53, 0
2, 168071, Note_on_c, 0, 64, 0
2, 168220, Note_on_c, 0, 59, 0
2, 168762, Note_on_c, 0, 59, 34
2, 168774, Note_on_c, 0, 53, 29
2, 168788, Note_on_c, 0, 63, 25
2, 168831, Control_c, 0, 64, 0
2, 168927, Note_on_c, 0, 43, 0
2, 168991, Control_c, 0, 64, 127
2, 169141, Note_on_c, 0, 53, 0
2, 169568, Note_on_c, 0, 59, 0
2, 169869, Note_on_c, 0, 63, 0
2, 170226, Control_c, 0, 64, 0
2, 170317, Note_on_c, 0, 58, 25
2, 170319, Note_on_c, 0, 62, 34
2, 170322, Note_on_c, 0, 36, 35
2, 170327, Note_on_c, 0, 43, 24
2, 170333, Note_on_c, 0, 52, 30
2, 170448, Note_on_c, 0, 58, 0
2, 170500, Control_c, 0, 64, 127
2, 170567, Note_on_c, 0, 62, 0
2, 170951, Note_on_c, 0, 72, 71
2, 171117, Note_on_c, 0, 52, 0
2, 171268, Note_on_c, 0, 72, 0
2, 171333, Note_on_c, 0, 73, 67
2, 171551, Note_on_c, 0, 73, 0
2, 171706, Note_on_c, 0, 36, 0
2, 171760, Note_on_c, 0, 74, 66
2, 171797, Control_c, 0, 64, 0
2, 171808, Note_on_c, 0, 52, 43
2, 171874, Note_on_c, 0, 43, 0
2, 171962, Note_on_c, 0, 74, 0
2, 171992, Note_on_c, 0, 52, 0
2, 172068, Note_on_c, 0, 77, 35
2, 172071, Control_c, 0, 64, 127
2, 172250, Note_on_c, 0, 77, 0
2, 172282, Note_on_c, 0, 81, 71
2, 172471, Note_on_c, 0, 81, 0
2, 172546, Note_on_c, 0, 84, 74
2, 172701, Note_on_c, 0, 84, 0
2, 172858, Note_on_c, 0, 86, 80
2, 173109, Note_on_c, 0, 86, 0
2, 173202, Note_on_c, 0, 84, 37
2, 173253, Note_on_c, 0, 48, 24
2, 173274, Control_c, 0, 64, 0
2, 173279, Note_on_c, 0, 41, 34
2, 173292, Note_on_c, 0, 57, 40
2, 173484, Note_on_c, 0, 84, 0
2, 173528, Note_on_c, 0, 85, 57
2, 173653, Note_on_c, 0, 85, 0
2, 173834, Note_on_c, 0, 86, 60
2, 173852, Control_c, 0, 64, 127
2, 173876, Note_on_c, 0, 41, 0
2, 173944, Note_on_c, 0, 48, 0
2, 174012, Note_on_c, 0, 86, 0
2, 174109, Note_on_c, 0, 89, 68
2, 174111, Note_on_c, 0, 57, 0
2, 174282, Note_on_c, 0, 89, 0
2, 174410, Note_on_c, 0, 93, 76
2, 174572, Note_on_c, 0, 93, 0
2, 174669, Note_on_c, 0, 98, 85
2, 174820, Note_on_c, 0, 64, 48
2, 174861, Control_c, 0, 64, 0
2, 174864, Note_on_c, 0, 60, 22
2, 174868, Note_on_c, 0, 57, 36
2, 174872, Note_on_c, 0, 53, 31
2, 174965, Note_on_c, 0, 98, 0
2, 175013, Note_on_c, 0, 95, 69
2, 175213, Note_on_c, 0, 95, 0
2, 175310, Note_on_c, 0, 96, 75
2, 175562, Note_on_c, 0, 96, 0
2, 175626, Note_on_c, 0, 93, 72
2, 175733, Note_on_c, 0, 64, 0
2, 175744, Control_c, 0, 64, 127
2, 175820, Note_on_c, 0, 93, 0
2, 175885, Note_on_c, 0, 60, 0
2, 175906, Note_on_c, 0, 57, 0
2, 175959, Note_on_c, 0, 89, 43
2, 176175, Note_on_c, 0, 89, 0
2, 176245, Note_on_c, 0, 84, 53
2, 176306, Note_on_c, 0, 62, 47
2, 176324, Note_on_c, 0, 60, 25
2, 176338, Control_c, 0, 64, 0
2, 176340, Note_on_c, 0, 57, 28
2, 176464, Note_on_c, 0, 84, 0
2, 176591, Note_on_c, 0, 62, 0
2, 176637, Note_on_c, 0, 81, 42
2, 176640, Note_on_c, 0, 60, 0
2, 176706, Note_on_c, 0, 57, 0
2, 176820, Note_on_c, 0, 53, 0
2, 176898, Note_on_c, 0, 81, 0
2, 176916, Note_on_c, 0, 86, 68
2, 177213, Note_on_c, 0, 79, 62
2, 177220, Control_c, 0, 64, 127
2, 177375, Note_on_c, 0, 48, 17
2, 177376, Note_on_c, 0, 86, 0
2, 177402, Note_on_c, 0, 79, 0
2, 177533, Note_on_c, 0, 81, 65
2, 177756, Note_on_c, 0, 81, 0
2, 177765, Control_c, 0, 64, 0
2, 177831, Note_on_c, 0, 50, 33
2, 177834, Note_on_c, 0, 48, 0
2, 177876, Note_on_c, 0, 41, 31
2, 177884, Note_on_c, 0, 77, 35
2, 178146, Note_on_c, 0, 77, 0
2, 178167, Control_c, 0, 64, 127
2, 178200, Note_on_c, 0, 74, 53
2, 178434, Note_on_c, 0, 74, 0
2, 178552, Note_on_c, 0, 72, 50
2, 178560, Note_on_c, 0, 41, 0
2, 178637, Note_on_c, 0, 50, 0
2, 178775, Note_on_c, 0, 72, 0
2, 178933, Note_on_c, 0, 69, 34
2, 179071, Note_on_c, 0, 69, 0
2, 179288, Control_c, 0, 64, 0
2, 179292, Note_on_c, 0, 70, 55
2, 179306, Note_on_c, 0, 67, 37
2, 179320, Note_on_c, 0, 62, 62
2, 179327, Note_on_c, 0, 58, 49
2, 179352, Note_on_c, 0, 52, 45
2, 179884, Control_c, 0, 64, 127
2, 180224, Note_on_c, 0, 58, 0
2, 180343, Note_on_c, 0, 52, 0
2, 180349, Note_on_c, 0, 62, 0
2, 180516, Note_on_c, 0, 67, 0
2, 180803, Note_on_c, 0, 67, 64
2, 180818, Note_on_c, 0, 62, 59
2, 180829, Control_c, 0, 64, 0
2, 180863, Note_on_c, 0, 56, 54
2, 181197, Control_c, 0, 64, 127
2, 181645, Note_on_c, 0, 67, 0
2, 181647, Note_on_c, 0, 62, 0
2, 181892, Note_on_c, 0, 56, 0
2, 182192, Control_c, 0, 64, 0
2, 182239, Note_on_c, 0, 66, 45
2, 182286, Note_on_c, 0, 55, 30
2, 182290, Note_on_c, 0, 61, 36
2, 182530, Control_c, 0, 64, 127
2, 182692, Note_on_c, 0, 66, 0
2, 182711, Note_on_c, 0, 55, 0
2, 182717, Note_on_c, 0, 69, 60
2, 182748, Note_on_c, 0, 61, 0
2, 182789, Note_on_c, 0, 70, 0
2, 183103, Note_on_c, 0, 69, 0
2, 183186, Note_on_c, 0, 70, 77
2, 183392, Note_on_c, 0, 70, 0
2, 183656, Note_on_c, 0, 72, 66
2, 183687, Note_on_c, 0, 45, 47
2, 183701, Control_c, 0, 64, 0
2, 183706, Note_on_c, 0, 55, 38
2, 184005, Control_c, 0, 64, 127
2, 184032, Note_on_c, 0, 45, 0
2, 184064, Note_on_c, 0, 72, 0
2, 184074, Note_on_c, 0, 77, 69
2, 184159, Note_on_c, 0, 55, 0
2, 184368, Note_on_c, 0, 77, 0
2, 184408, Note_on_c, 0, 82, 78
2, 184661, Note_on_c, 0, 82, 0
2, 184735, Note_on_c, 0, 84, 79
2, 184794, Note_on_c, 0, 82, 26
2, 184846, Note_on_c, 0, 82, 0
2, 184911, Note_on_c, 0, 84, 0
2, 185028, Note_on_c, 0, 57, 38
2, 185032, Control_c, 0, 64, 0
2, 185034, Note_on_c, 0, 50, 44
2, 185088, Note_on_c, 0, 91, 80
2, 185095, Note_on_c, 0, 88, 83
2, 185354, Note_on_c, 0, 88, 0
2, 185416, Control_c, 0, 64, 127
2, 185456, Note_on_c, 0, 91, 0
2, 185464, Note_on_c, 0, 90, 64
2, 185468, Note_on_c, 0, 87, 71
2, 185784, Note_on_c, 0, 90, 0
2, 185794, Note_on_c, 0, 87, 0
2, 185856, Note_on_c, 0, 89, 68
2, 185872, Note_on_c, 0, 86, 58
2, 186363, Note_on_c, 0, 86, 0
2, 186373, Note_on_c, 0, 89, 0
2, 186444, Control_c, 0, 64, 0
2, 186445, Note_on_c, 0, 88, 57
2, 186448, Note_on_c, 0, 62, 53
2, 186450, Note_on_c, 0, 85, 56
2, 186716, Control_c, 0, 64, 127
2, 186757, Note_on_c, 0, 85, 0
2, 186784, Note_on_c, 0, 88, 0
2, 186855, Note_on_c, 0, 89, 54
2, 187119, Note_on_c, 0, 89, 0
2, 187122, Note_on_c, 0, 62, 0
2, 187685, Note_on_c, 0, 50, 0
2, 187813, Note_on_c, 0, 85, 64
2, 187815, Note_on_c, 0, 81, 56
2, 187829, Note_on_c, 0, 61, 65
2, 187855, Control_c, 0, 64, 0
2, 187864, Note_on_c, 0, 50, 27
2, 188096, Control_c, 0, 64, 127
2, 188743, Note_on_c, 0, 85, 0
2, 188770, Note_on_c, 0, 81, 0
2, 188773, Note_on_c, 0, 86, 61
2, 188853, Note_on_c, 0, 61, 0
2, 189008, Note_on_c, 0, 57, 0
2, 189192, Note_on_c, 0, 86, 0
2, 189292, Note_on_c, 0, 60, 26
2, 189300, Control_c, 0, 64, 0
2, 189333, Note_on_c, 0, 77, 27
2, 189348, Note_on_c, 0, 57, 24
2, 189356, Note_on_c, 0, 84, 43
2, 189587, Control_c, 0, 64, 127
2, 189642, Note_on_c, 0, 84, 0
2, 189717, Note_on_c, 0, 50, 0
2, 189804, Note_on_c, 0, 77, 0
2, 190239, Note_on_c, 0, 50, 28
2, 190258, Note_on_c, 0, 57, 0
2, 190287, Note_on_c, 0, 60, 0
2, 190407, Note_on_c, 0, 50, 0
2, 190775, Control_c, 0, 64, 0
2, 190815, Note_on_c, 0, 59, 32
2, 190821, Note_on_c, 0, 64, 36
2, 190839, Note_on_c, 0, 53, 44
2, 190876, Note_on_c, 0, 43, 28
2, 190983, Control_c, 0, 64, 127
2, 191424, Note_on_c, 0, 43, 0
2, 191434, Note_on_c, 0, 59, 0
2, 191463, Note_on_c, 0, 64, 0
2, 191516, Note_on_c, 0, 53, 0
2, 192212, Note_on_c, 0, 61, 55
2, 192284, Note_on_c, 0, 61, 0
2, 192296, Note_on_c, 0, 63, 49
2, 192300, Control_c, 0, 64, 0
2, 192349, Note_on_c, 0, 65, 51
2, 192375, Note_on_c, 0, 63, 0
2, 192484, Note_on_c, 0, 67, 55
2, 192557, Note_on_c, 0, 65, 0
2, 192626, Note_on_c, 0, 69, 49
2, 192704, Note_on_c, 0, 71, 66
2, 192706, Note_on_c, 0, 67, 0
2, 192708, Note_on_c, 0, 69, 0
2, 192812, Note_on_c, 0, 73, 46
2, 192823, Note_on_c, 0, 71, 0
2, 192887, Note_on_c, 0, 73, 0
2, 192887, Note_on_c, 0, 75, 33
2, 192940, Note_on_c, 0, 75, 0
2, 192988, Note_on_c, 0, 77, 50
2, 193122, Note_on_c, 0, 77, 0
2, 193127, Note_on_c, 0, 79, 32
2, 193133, Control_c, 0, 64, 127
2, 193204, Note_on_c, 0, 79, 0
2, 193277, Note_on_c, 0, 83, 32
2, 193341, Note_on_c, 0, 83, 0
2, 193359, Note_on_c, 0, 87, 51
2, 193412, Note_on_c, 0, 87, 0
2, 193469, Note_on_c, 0, 89, 62
2, 193573, Note_on_c, 0, 91, 36
2, 193626, Note_on_c, 0, 89, 0
2, 193687, Note_on_c, 0, 93, 42
2, 193695, Note_on_c, 0, 91, 0
2, 193740, Note_on_c, 0, 95, 58
2, 193749, Note_on_c, 0, 93, 0
2, 193792, Note_on_c, 0, 95, 0
2, 193983, Note_on_c, 0, 101, 59
2, 194068, Note_on_c, 0, 103, 46
2, 194109, Note_on_c, 0, 101, 0
2, 194146, Note_on_c, 0, 105, 68
2, 194215, Note_on_c, 0, 103, 0
2, 194266, Note_on_c, 0, 107, 80
2, 194269, Note_on_c, 0, 105, 0
2, 194431, Note_on_c, 0, 107, 0
2, 195103, Note_on_c, 0, 62, 66
2, 195114, Note_on_c, 0, 60, 68
2, 195170, Note_on_c, 0, 44, 34
2, 195186, Control_c, 0, 64, 0
2, 195277, Note_on_c, 0, 54, 8
2, 195316, Note_on_c, 0, 60, 0
2, 195362, Control_c, 0, 64, 127
2, 195560, Note_on_c, 0, 64, 36
2, 195616, Note_on_c, 0, 64, 0
2, 195700, Note_on_c, 0, 64, 20
2, 196088, Note_on_c, 0, 50, 20
2, 196103, Note_on_c, 0, 64, 0
2, 196234, Note_on_c, 0, 54, 0
2, 196533, Note_on_c, 0, 44, 0
2, 196576, Note_on_c, 0, 50, 0
2, 196660, Note_on_c, 0, 57, 37
2, 196677, Control_c, 0, 64, 0
2, 196700, Note_on_c, 0, 53, 30
2, 196712, Note_on_c, 0, 58, 18
2, 196716, Note_on_c, 0, 43, 24
2, 197127, Control_c, 0, 64, 127
2, 197156, Note_on_c, 0, 57, 0
2, 197420, Note_on_c, 0, 53, 0
2, 197519, Note_on_c, 0, 58, 0
2, 197626, Note_on_c, 0, 57, 51
2, 197652, Note_on_c, 0, 50, 47
2, 197701, Note_on_c, 0, 62, 0
2, 197703, Note_on_c, 0, 57, 0
2, 197724, Note_on_c, 0, 43, 0
2, 197797, Note_on_c, 0, 50, 0
2, 198186, Control_c, 0, 64, 0
2, 198224, Note_on_c, 0, 59, 58
2, 198228, Note_on_c, 0, 69, 53
2, 198240, Note_on_c, 0, 53, 34
2, 198280, Note_on_c, 0, 64, 48
2, 198478, Note_on_c, 0, 69, 0
2, 198520, Note_on_c, 0, 59, 0
2, 198566, Note_on_c, 0, 53, 0
2, 198586, Note_on_c, 0, 64, 0
2, 198674, Note_on_c, 0, 59, 53
2, 198676, Note_on_c, 0, 69, 54
2, 198688, Note_on_c, 0, 64, 54
2, 198722, Note_on_c, 0, 53, 50
2, 198805, Note_on_c, 0, 64, 0
2, 198946, Note_on_c, 0, 69, 0
2, 198959, Note_on_c, 0, 59, 0
2, 199127, Note_on_c, 0, 53, 0
2, 199152, Note_on_c, 0, 52, 44
2, 199154, Note_on_c, 0, 68, 64
2, 199160, Note_on_c, 0, 59, 33
2, 199218, Note_on_c, 0, 64, 33
2, 199384, Note_on_c, 0, 64, 0
2, 199400, Note_on_c, 0, 52, 0
2, 199429, Note_on_c, 0, 68, 0
2, 199490, Note_on_c, 0, 59, 0
2, 199568, Note_on_c, 0, 52, 34
2, 199575, Note_on_c, 0, 68, 39
2, 199623, Note_on_c, 0, 59, 19
2, 199810, Note_on_c, 0, 59, 0
2, 199940, Note_on_c, 0, 52, 0
2, 199954, Note_on_c, 0, 68, 0
2, 200000, Note_on_c, 0, 59, 46
2, 200005, Note_on_c, 0, 69, 55
2, 200016, Note_on_c, 0, 64, 41
2, 200021, Note_on_c, 0, 53, 48
2, 200239, Note_on_c, 0, 69, 0
2, 200268, Note_on_c, 0, 53, 0
2, 200304, Note_on_c, 0, 64, 0
2, 200308, Note_on_c, 0, 59, 0
2, 200366, Control_c, 0, 64, 127
2, 200442, Note_on_c, 0, 69, 47
2, 200445, Note_on_c, 0, 59, 28
2, 200448, Note_on_c, 0, 53, 39
2, 200450, Note_on_c, 0, 64, 51
2, 200516, Note_on_c, 0, 59, 0
2, 200568, Note_on_c, 0, 64, 0
2, 200591, Note_on_c, 0, 53, 0
2, 200605, Note_on_c, 0, 69, 0
2, 200768, Control_c, 0, 64, 0
2, 200872, Note_on_c, 0, 72, 68
2, 200877, Note_on_c, 0, 62, 66
2, 200892, Note_on_c, 0, 67, 56
2, 200895, Note_on_c, 0, 57, 38
2, 200916, Note_on_c, 0, 64, 34
2, 200946, Note_on_c, 0, 67, 0
2, 200970, Note_on_c, 0, 64, 0
2, 200991, Note_on_c, 0, 62, 0
2, 200994, Note_on_c, 0, 57, 0
2, 201002, Note_on_c, 0, 72, 0
2, 201325, Note_on_c, 0, 69, 60
2, 201343, Note_on_c, 0, 59, 49
2, 201344, Note_on_c, 0, 53, 52
2, 201356, Note_on_c, 0, 64, 48
2, 201503, Note_on_c, 0, 69, 0
2, 201504, Note_on_c, 0, 59, 0
2, 201524, Note_on_c, 0, 64, 0
2, 201656, Note_on_c, 0, 53, 0
2, 201741, Note_on_c, 0, 68, 55
2, 201752, Note_on_c, 0, 52, 39
2, 201789, Note_on_c, 0, 63, 43
2, 201810, Control_c, 0, 64, 127
2, 202050, Note_on_c, 0, 68, 0
2, 202093, Note_on_c, 0, 63, 0
2, 202100, Control_c, 0, 64, 0
2, 202119, Note_on_c, 0, 52, 0
2, 202221, Note_on_c, 0, 67, 45
2, 202224, Note_on_c, 0, 58, 42
2, 202228, Note_on_c, 0, 62, 53
2, 202669, Note_on_c, 0, 43, 37
2, 202877, Note_on_c, 0, 43, 0
2, 203031, Control_c, 0, 64, 127
2, 203640, Control_c, 0, 64, 0
2, 203654, Note_on_c, 0, 24, 32
2, 203752, Control_c, 0, 64, 127
2, 203840, Note_on_c, 0, 24, 0
2, 203840, Note_on_c, 0, 58, 0
2, 203930, Note_on_c, 0, 62, 0
2, 203952, Note_on_c, 0, 67, 0
2, 204669, Note_on_c, 0, 72, 74
2, 205088, Note_on_c, 0, 72, 0
2, 205116, Control_c, 0, 64, 0
2, 205156, Note_on_c, 0, 61, 34
2, 205164, Note_on_c, 0, 64, 20
2, 205175, Note_on_c, 0, 58, 32
2, 205437, Control_c, 0, 64, 127
2, 205543, Note_on_c, 0, 64, 0
2, 205576, Note_on_c, 0, 69, 49
2, 205588, Note_on_c, 0, 61, 0
2, 205640, Note_on_c, 0, 58, 0
2, 205818, Note_on_c, 0, 69, 0
2, 206269, Note_on_c, 0, 72, 32
2, 206511, Control_c, 0, 64, 0
2, 206519, Note_on_c, 0, 72, 0
2, 206551, Note_on_c, 0, 58, 50
2, 206576, Note_on_c, 0, 75, 64
2, 206680, Note_on_c, 0, 58, 0
2, 206718, Control_c, 0, 64, 127
2, 206895, Note_on_c, 0, 75, 0
2, 206946, Note_on_c, 0, 80, 57
2, 207066, Note_on_c, 0, 80, 0
2, 207237, Note_on_c, 0, 84, 77
2, 207439, Note_on_c, 0, 84, 0
2, 207567, Note_on_c, 0, 88, 87
2, 207810, Control_c, 0, 64, 0
2, 207824, Note_on_c, 0, 88, 0
2, 207829, Note_on_c, 0, 48, 33
2, 207832, Note_on_c, 0, 41, 33
2, 207861, Note_on_c, 0, 91, 83
2, 207877, Note_on_c, 0, 57, 66
2, 208196, Control_c, 0, 64, 127
2, 208268, Note_on_c, 0, 88, 53
2, 208423, Note_on_c, 0, 91, 0
2, 208447, Note_on_c, 0, 41, 0
2, 208488, Note_on_c, 0, 48, 0
2, 208512, Note_on_c, 0, 88, 0
2, 208579, Note_on_c, 0, 89, 78
2, 208639, Note_on_c, 0, 57, 0
2, 208888, Note_on_c, 0, 89, 0
2, 208949, Note_on_c, 0, 84, 48
2, 209248, Note_on_c, 0, 56, 37
2, 209293, Note_on_c, 0, 64, 39
2, 209317, Control_c, 0, 64, 0
2, 209341, Note_on_c, 0, 56, 0
2, 209349, Note_on_c, 0, 84, 0
2, 209354, Note_on_c, 0, 81, 55
2, 209357, Note_on_c, 0, 53, 26
2, 209373, Note_on_c, 0, 60, 30
2, 209429, Note_on_c, 0, 57, 24
2, 209671, Control_c, 0, 64, 127
2, 209805, Note_on_c, 0, 86, 79
2, 209806, Note_on_c, 0, 81, 0
2, 210148, Note_on_c, 0, 86, 0
2, 210218, Note_on_c, 0, 64, 0
2, 210253, Note_on_c, 0, 84, 74
2, 210296, Note_on_c, 0, 60, 0
2, 210344, Note_on_c, 0, 57, 0
2, 210535, Note_on_c, 0, 84, 0
2, 210780, Note_on_c, 0, 62, 31
2, 210815, Note_on_c, 0, 60, 20
2, 210828, Note_on_c, 0, 57, 24
2, 210890, Control_c, 0, 64, 0
2, 210970, Control_c, 0, 64, 127
2, 211162, Note_on_c, 0, 62, 0
2, 211164, Note_on_c, 0, 60, 0
2, 211234, Note_on_c, 0, 57, 0
2, 211276, Note_on_c, 0, 82, 77
2, 211354, Note_on_c, 0, 53, 0
2, 211616, Note_on_c, 0, 82, 0
2, 211749, Note_on_c, 0, 81, 70
2, 212199, Note_on_c, 0, 72, 41
2, 212205, Control_c, 0, 64, 0
2, 212226, Note_on_c, 0, 41, 40
2, 212239, Note_on_c, 0, 50, 25
2, 212261, Note_on_c, 0, 81, 0
2, 212527, Control_c, 0, 64, 127
2, 212695, Note_on_c, 0, 79, 71
2, 212722, Note_on_c, 0, 41, 0
2, 212735, Note_on_c, 0, 72, 0
2, 212794, Note_on_c, 0, 50, 0
2, 213052, Note_on_c, 0, 79, 0
2, 213162, Note_on_c, 0, 77, 62
2, 213570, Note_on_c, 0, 77, 0
2, 213655, Note_on_c, 0, 60, 30
2, 213660, Note_on_c, 0, 64, 30
2, 213676, Note_on_c, 0, 57, 30
2, 213680, Control_c, 0, 64, 0
2, 213685, Note_on_c, 0, 53, 24
2, 213698, Note_on_c, 0, 65, 38
2, 213726, Note_on_c, 0, 64, 0
2, 213808, Note_on_c, 0, 60, 0
2, 213986, Control_c, 0, 64, 127
2, 214047, Note_on_c, 0, 57, 0
2, 214124, Note_on_c, 0, 53, 0
2, 214151, Note_on_c, 0, 74, 63
2, 214501, Note_on_c, 0, 74, 0
2, 214509, Note_on_c, 0, 65, 0
2, 214615, Note_on_c, 0, 72, 59
2, 214996, Note_on_c, 0, 72, 0
2, 215069, Note_on_c, 0, 48, 41
2, 215072, Note_on_c, 0, 47, 46
2, 215133, Note_on_c, 0, 47, 0
2, 215173, Control_c, 0, 64, 0
2, 215557, Control_c, 0, 64, 127
2, 215574, Note_on_c, 0, 60, 30
2, 216060, Note_on_c, 0, 67, 58
2, 216141, Note_on_c, 0, 60, 0
2, 216199, Note_on_c, 0, 48, 0
2, 216365, Note_on_c, 0, 67, 0
2, 216548, Note_on_c, 0, 65, 37
2, 216562, Note_on_c, 0, 48, 36
2, 216568, Control_c, 0, 64, 0
2, 216570, Note_on_c, 0, 58, 29
2, 216599, Note_on_c, 0, 63, 47
2, 216856, Control_c, 0, 64, 127
2, 217434, Note_on_c, 0, 48, 0
2, 217479, Note_on_c, 0, 63, 0
2, 217492, Note_on_c, 0, 58, 0
2, 217882, Note_on_c, 0, 65, 0
2, 218055, Note_on_c, 0, 57, 37
2, 218076, Note_on_c, 0, 63, 48
2, 218085, Note_on_c, 0, 45, 39
2, 218088, Note_on_c, 0, 51, 25
2, 218109, Control_c, 0, 64, 0
2, 218429, Control_c, 0, 64, 127
2, 218744, Note_on_c, 0, 51, 0
2, 218804, Note_on_c, 0, 57, 0
2, 219311, Note_on_c, 0, 45, 0
2, 219485, Note_on_c, 0, 63, 0
2, 219520, Control_c, 0, 64, 0
2, 219597, Note_on_c, 0, 61, 42
2, 219613, Note_on_c, 0, 58, 32
2, 219620, Note_on_c, 0, 46, 30
2, 219760, Control_c, 0, 64, 127
2, 219854, Note_on_c, 0, 58, 0
2, 219898, Note_on_c, 0, 46, 0
2, 219924, Note_on_c, 0, 61, 0
2, 221047, Note_on_c, 0, 65, 36
2, 221052, Note_on_c, 0, 60, 27
2, 221058, Note_on_c, 0, 85, 57
2, 221060, Note_on_c, 0, 61, 34
2, 221062, Control_c, 0, 64, 0
2, 221068, Note_on_c, 0, 70, 42
2, 221383, Note_on_c, 0, 85, 0
2, 221388, Note_on_c, 0, 70, 0
2, 221637, Note_on_c, 0, 85, 47
2, 221672, Note_on_c, 0, 70, 35
2, 221920, Note_on_c, 0, 85, 0
2, 221941, Note_on_c, 0, 70, 0
2, 222082, Note_on_c, 0, 65, 0
2, 222199, Control_c, 0, 64, 127
2, 222300, Note_on_c, 0, 82, 44
2, 222396, Note_on_c, 0, 60, 0
2, 222424, Control_c, 0, 64, 0
2, 222431, Note_on_c, 0, 82, 0
2, 222549, Note_on_c, 0, 65, 31
2, 222580, Note_on_c, 0, 70, 58
2, 222594, Note_on_c, 0, 85, 54
2, 222613, Note_on_c, 0, 58, 27
2, 222861, Note_on_c, 0, 85, 0
2, 222888, Control_c, 0, 64, 127
2, 222901, Note_on_c, 0, 70, 0
2, 223088, Note_on_c, 0, 85, 38
2, 223096, Note_on_c, 0, 70, 34
2, 223143, Note_on_c, 0, 65, 0
2, 223240, Note_on_c, 0, 61, 0
2, 223293, Note_on_c, 0, 85, 0
2, 223298, Note_on_c, 0, 70, 0
2, 223367, Note_on_c, 0, 58, 0
2, 224044, Control_c, 0, 64, 0
2, 224066, Note_on_c, 0, 59, 35
2, 224124, Note_on_c, 0, 49, 25
2, 224365, Control_c, 0, 64, 127
2, 224468, Note_on_c, 0, 59, 0
2, 224589, Note_on_c, 0, 49, 0
2, 225106, Note_on_c, 0, 48, 32
2, 225504, Control_c, 0, 64, 0
2, 225505, Note_on_c, 0, 48, 0
2, 225604, Note_on_c, 0, 50, 36
2, 225615, Note_on_c, 0, 41, 38
2, 225728, Control_c, 0, 64, 127
2, 226111, Note_on_c, 0, 41, 0
2, 226114, Note_on_c, 0, 80, 74
2, 226122, Note_on_c, 0, 88, 77
2, 226192, Note_on_c, 0, 50, 0
2, 226549, Note_on_c, 0, 88, 0
2, 226581, Note_on_c, 0, 84, 73
2, 226602, Note_on_c, 0, 76, 65
2, 226671, Note_on_c, 0, 80, 0
2, 226952, Note_on_c, 0, 76, 0
2, 227008, Note_on_c, 0, 84, 0
2, 227082, Note_on_c, 0, 80, 34
2, 227088, Note_on_c, 0, 88, 70
2, 227093, Control_c, 0, 64, 0
2, 227095, Note_on_c, 0, 64, 33
2, 227127, Note_on_c, 0, 56, 43
2, 227130, Note_on_c, 0, 60, 26
2, 227138, Note_on_c, 0, 53, 29
2, 227349, Control_c, 0, 64, 127
2, 227474, Note_on_c, 0, 88, 0
2, 227479, Note_on_c, 0, 80, 0
2, 227578, Note_on_c, 0, 84, 50
2, 227602, Note_on_c, 0, 76, 45
2, 227627, Note_on_c, 0, 64, 0
2, 227656, Note_on_c, 0, 84, 0
2, 227823, Note_on_c, 0, 76, 0
2, 228069, Note_on_c, 0, 84, 60
2, 228084, Note_on_c, 0, 60, 0
2, 228104, Note_on_c, 0, 77, 61
2, 228434, Note_on_c, 0, 84, 0
2, 228509, Note_on_c, 0, 80, 42
2, 228559, Note_on_c, 0, 64, 48
2, 228562, Note_on_c, 0, 72, 54
2, 228565, Note_on_c, 0, 77, 0
2, 228570, Note_on_c, 0, 60, 31
2, 228636, Note_on_c, 0, 80, 0
2, 228740, Note_on_c, 0, 72, 0
2, 228954, Note_on_c, 0, 64, 0
2, 229024, Note_on_c, 0, 79, 70
2, 229045, Note_on_c, 0, 72, 77
2, 229211, Note_on_c, 0, 60, 0
2, 229322, Note_on_c, 0, 79, 0
2, 229397, Note_on_c, 0, 72, 0
2, 229530, Note_on_c, 0, 76, 55
2, 229538, Note_on_c, 0, 68, 44
2, 229580, Note_on_c, 0, 72, 33
2, 229671, Note_on_c, 0, 72, 0
2, 229695, Note_on_c, 0, 76, 0
2, 229813, Note_on_c, 0, 68, 0
2, 229992, Note_on_c, 0, 60, 26
2, 230018, Note_on_c, 0, 68, 34
2, 230022, Note_on_c, 0, 53, 0
2, 230044, Note_on_c, 0, 65, 36
2, 230327, Note_on_c, 0, 65, 0
2, 230472, Note_on_c, 0, 68, 0
2, 230503, Note_on_c, 0, 60, 0
2, 230531, Note_on_c, 0, 53, 47
2, 230544, Note_on_c, 0, 65, 41
2, 230626, Note_on_c, 0, 56, 0
2, 230644, Note_on_c, 0, 65, 0
2, 230725, Note_on_c, 0, 53, 0
2, 231050, Note_on_c, 0, 55, 47
2, 231254, Note_on_c, 0, 55, 0
2, 231538, Note_on_c, 0, 61, 57
2, 231551, Control_c, 0, 64, 0
2, 231557, Note_on_c, 0, 65, 57
2, 231572, Note_on_c, 0, 58, 53
2, 231594, Note_on_c, 0, 70, 38
2, 231856, Control_c, 0, 64, 127
2, 232328, Note_on_c, 0, 58, 0
2, 232588, Note_on_c, 0, 65, 0
2, 232592, Note_on_c, 0, 61, 0
2, 233028, Note_on_c, 0, 61, 45
2, 233060, Note_on_c, 0, 65, 45
2, 233063, Note_on_c, 0, 56, 36
2, 233090, Control_c, 0, 64, 0
2, 233236, Control_c, 0, 64, 127
2, 233455, Note_on_c, 0, 70, 0
2, 233786, Note_on_c, 0, 65, 0
2, 233864, Note_on_c, 0, 61, 0
2, 233908, Note_on_c, 0, 56, 0
2, 234581, Note_on_c, 0, 59, 37
2, 234584, Note_on_c, 0, 63, 45
2, 234602, Note_on_c, 0, 54, 27
2, 234607, Note_on_c, 0, 44, 27
2, 234615, Control_c, 0, 64, 0
2, 235016, Control_c, 0, 64, 127
2, 235893, Note_on_c, 0, 44, 0
2, 235898, Note_on_c, 0, 59, 0
2, 235925, Note_on_c, 0, 54, 0
2, 235926, Note_on_c, 0, 63, 0
2, 236126, Note_on_c, 0, 63, 79
2, 236130, Note_on_c, 0, 58, 72
2, 236133, Note_on_c, 0, 59, 79
2, 236143, Note_on_c, 0, 70, 71
2, 236144, Note_on_c, 0, 65, 71
2, 236156, Control_c, 0, 64, 0
2, 236168, Note_on_c, 0, 56, 34
2, 236396, Control_c, 0, 64, 127
2, 236593, Note_on_c, 0, 58, 0
2, 236706, Note_on_c, 0, 56, 0
2, 237069, Note_on_c, 0, 70, 0
2, 237175, Note_on_c, 0, 68, 55
2, 237314, Note_on_c, 0, 59, 0
2, 237327, Note_on_c, 0, 65, 0
2, 237402, Note_on_c, 0, 70, 63
2, 237407, Note_on_c, 0, 63, 0
2, 237437, Note_on_c, 0, 54, 39
2, 237445, Note_on_c, 0, 44, 44
2, 237484, Note_on_c, 0, 68, 0
2, 237530, Note_on_c, 0, 70, 0
2, 237602, Note_on_c, 0, 54, 0
2, 237685, Note_on_c, 0, 44, 0
2, 237791, Control_c, 0, 64, 0
2, 237797, Note_on_c, 0, 50, 63
2, 237800, Note_on_c, 0, 65, 74
2, 237808, Note_on_c, 0, 43, 59
2, 237812, Note_on_c, 0, 72, 61
2, 237858, Note_on_c, 0, 58, 40
2, 237866, Note_on_c, 0, 71, 33
2, 238176, Control_c, 0, 64, 127
2, 238432, Note_on_c, 0, 57, 61
2, 238445, Note_on_c, 0, 43, 0
2, 238461, Note_on_c, 0, 50, 0
2, 238639, Note_on_c, 0, 58, 0
2, 238874, Note_on_c, 0, 57, 0
2, 238922, Note_on_c, 0, 65, 0
2, 238942, Note_on_c, 0, 58, 64
2, 240023, Note_on_c, 0, 62, 46
2, 240397, Note_on_c, 0, 62, 0
2, 240436, Note_on_c, 0, 71, 0
2, 240476, Note_on_c, 0, 65, 55
2, 240810, Note_on_c, 0, 65, 0
2, 240965, Note_on_c, 0, 58, 0
2, 241007, Note_on_c, 0, 64, 50
2, 241023, Note_on_c, 0, 68, 50
2, 241176, Control_c, 0, 64, 0
2, 241516, Note_on_c, 0, 61, 49
2, 241898, Control_c, 0, 64, 127
2, 242216, Note_on_c, 0, 64, 0
2, 242445, Note_on_c, 0, 68, 0
2, 242560, Note_on_c, 0, 67, 27
2, 242578, Note_on_c, 0, 64, 29
2, 242580, Note_on_c, 0, 60, 28
2, 242635, Note_on_c, 0, 61, 0
2, 243125, Note_on_c, 0, 64, 0
2, 243399, Note_on_c, 0, 60, 0
2, 243516, Note_on_c, 0, 64, 32
2, 243615, Note_on_c, 0, 67, 0
2, 243620, Note_on_c, 0, 64, 0
2, 243650, Note_on_c, 0, 72, 0
2, 244118, Note_on_c, 0, 65, 47
2, 244132, Note_on_c, 0, 68, 51
2, 244135, Note_on_c, 0, 72, 42
2, 244136, Note_on_c, 0, 74, 50
2, 244238, Control_c, 0, 64, 0
2, 244664, Note_on_c, 0, 64, 39
2, 245186, Control_c, 0, 64, 127
2, 245376, Note_on_c, 0, 65, 0
2, 245415, Note_on_c, 0, 68, 0
2, 245508, Note_on_c, 0, 64, 0
2, 245511, Note_on_c, 0, 72, 0
2, 245512, Note_on_c, 0, 74, 0
2, 245672, Note_on_c, 0, 74, 38
2, 245674, Note_on_c, 0, 65, 53
2, 245685, Note_on_c, 0, 72, 40
2, 245687, Note_on_c, 0, 68, 50
2, 245690, Note_on_c, 0, 62, 53
2, 245714, Control_c, 0, 64, 0
2, 246052, Control_c, 0, 64, 127
2, 246211, Control_c, 0, 64, 0
2, 246431, Note_on_c, 0, 62, 0
2, 246444, Note_on_c, 0, 61, 81
2, 246501, Control_c, 0, 64, 127
2, 246789, Note_on_c, 0, 65, 0
2, 246807, Note_on_c, 0, 74, 0
2, 246810, Note_on_c, 0, 68, 0
2, 246880, Note_on_c, 0, 72, 0
2, 247126, Control_c, 0, 64, 0
2, 247159, Note_on_c, 0, 72, 55
2, 247162, Note_on_c, 0, 60, 44
2, 247165, Note_on_c, 0, 74, 58
2, 247167, Note_on_c, 0, 65, 66
2, 247172, Note_on_c, 0, 68, 57
2, 247196, Note_on_c, 0, 61, 0
2, 247480, Control_c, 0, 64, 127
2, 247925, Note_on_c, 0, 56, 62
2, 248162, Note_on_c, 0, 72, 0
2, 248384, Note_on_c, 0, 65, 0
2, 248528, Note_on_c, 0, 68, 0
2, 248538, Note_on_c, 0, 74, 0
2, 248698, Note_on_c, 0, 72, 64
2, 248730, Note_on_c, 0, 65, 51
2, 248732, Note_on_c, 0, 68, 45
2, 248847, Note_on_c, 0, 60, 0
2, 248996, Note_on_c, 0, 56, 0
2, 249467, Note_on_c, 0, 74, 54
2, 249570, Note_on_c, 0, 65, 0
2, 249596, Note_on_c, 0, 68, 0
2, 249676, Note_on_c, 0, 74, 0
2, 249720, Note_on_c, 0, 72, 0
2, 250207, Control_c, 0, 64, 0
2, 250240, Note_on_c, 0, 75, 43
2, 250244, Note_on_c, 0, 39, 43
2, 250269, Note_on_c, 0, 54, 25
2, 250284, Note_on_c, 0, 66, 23
2, 250285, Note_on_c, 0, 70, 33
2, 250448, Control_c, 0, 64, 127
2, 250594, Note_on_c, 0, 39, 0
2, 250796, Note_on_c, 0, 54, 0
2, 250853, Note_on_c, 0, 66, 0
2, 250948, Note_on_c, 0, 72, 62
2, 250954, Note_on_c, 0, 75, 0
2, 251184, Note_on_c, 0, 70, 0
2, 251317, Note_on_c, 0, 72, 0
2, 251767, Note_on_c, 0, 65, 48
2, 251805, Note_on_c, 0, 54, 30
2, 251808, Note_on_c, 0, 61, 33
2, 251831, Note_on_c, 0, 58, 37
2, 252418, Note_on_c, 0, 104, 57
2, 252624, Note_on_c, 0, 65, 0
2, 252629, Note_on_c, 0, 104, 0
2, 252682, Note_on_c, 0, 106, 70
2, 252730, Note_on_c, 0, 54, 0
2, 252744, Note_on_c, 0, 61, 0
2, 252861, Note_on_c, 0, 104, 55
2, 252936, Note_on_c, 0, 106, 0
2, 253023, Note_on_c, 0, 58, 0
2, 253036, Note_on_c, 0, 102, 53
2, 253084, Note_on_c, 0, 104, 0
2, 253181, Note_on_c, 0, 102, 0
2, 253231, Note_on_c, 0, 101, 58
2, 253263, Note_on_c, 0, 60, 30
2, 253271, Control_c, 0, 64, 0
2, 253282, Note_on_c, 0, 65, 36
2, 253319, Note_on_c, 0, 54, 25
2, 253332, Note_on_c, 0, 101, 0
2, 253480, Note_on_c, 0, 99, 52
2, 253579, Note_on_c, 0, 99, 0
2, 253591, Control_c, 0, 64, 127
2, 253628, Note_on_c, 0, 97, 53
2, 253644, Note_on_c, 0, 65, 0
2, 253741, Note_on_c, 0, 97, 0
2, 253743, Note_on_c, 0, 60, 0
2, 253812, Note_on_c, 0, 96, 30
2, 253861, Note_on_c, 0, 54, 0
2, 253868, Note_on_c, 0, 96, 0
2, 254002, Note_on_c, 0, 94, 52
2, 254109, Note_on_c, 0, 92, 39
2, 254178, Note_on_c, 0, 94, 0
2, 254234, Note_on_c, 0, 90, 42
2, 254256, Note_on_c, 0, 92, 0
2, 254756, Note_on_c, 0, 44, 29
2, 254762, Note_on_c, 0, 54, 25
2, 254778, Control_c, 0, 64, 0
2, 255276, Control_c, 0, 64, 127
2, 255445, Note_on_c, 0, 44, 0
2, 255536, Note_on_c, 0, 54, 0
2, 256056, Note_on_c, 0, 58, 42
2, 256091, Note_on_c, 0, 59, 70
2, 256121, Note_on_c, 0, 75, 69
2, 256139, Note_on_c, 0, 66, 70
2, 256140, Note_on_c, 0, 58, 0
2, 256144, Note_on_c, 0, 69, 72
2, 256148, Note_on_c, 0, 60, 57
2, 256156, Control_c, 0, 64, 0
2, 256160, Note_on_c, 0, 72, 63
2, 256196, Note_on_c, 0, 59, 0
2, 256444, Control_c, 0, 64, 127
2, 256748, Note_on_c, 0, 72, 0
2, 256884, Note_on_c, 0, 66, 0
2, 256924, Note_on_c, 0, 69, 0
2, 257114, Note_on_c, 0, 90, 0
2, 257302, Note_on_c, 0, 75, 0
2, 257504, Control_c, 0, 64, 0
2, 257529, Note_on_c, 0, 74, 57
2, 257547, Note_on_c, 0, 71, 64
2, 257566, Note_on_c, 0, 65, 50
2, 257593, Note_on_c, 0, 60, 0
2, 257598, Note_on_c, 0, 59, 38
2, 257793, Control_c, 0, 64, 127
2, 257800, Note_on_c, 0, 68, 1
2, 257892, Note_on_c, 0, 74, 0
2, 257990, Note_on_c, 0, 71, 0
2, 258048, Note_on_c, 0, 65, 0
2, 258112, Note_on_c, 0, 68, 0
2, 258387, Note_on_c, 0, 59, 0
2, 258735, Control_c, 0, 64, 0
2, 258758, Note_on_c, 0, 72, 58
2, 258770, Note_on_c, 0, 63, 42
2, 258777, Note_on_c, 0, 57, 36
2, 258790, Note_on_c, 0, 66, 42
2, 258810, Note_on_c, 0, 69, 40
2, 259073, Control_c, 0, 64, 127
2, 259494, Note_on_c, 0, 69, 0
2, 259556, Note_on_c, 0, 72, 0
2, 259716, Note_on_c, 0, 63, 0
2, 259750, Note_on_c, 0, 66, 0
2, 260190, Note_on_c, 0, 57, 0
2, 260260, Control_c, 0, 64, 0
2, 260282, Note_on_c, 0, 70, 39
2, 260287, Note_on_c, 0, 61, 35
2, 260303, Note_on_c, 0, 54, 30
2, 260313, Note_on_c, 0, 64, 38
2, 260332, Note_on_c, 0, 67, 36
2, 260532, Control_c, 0, 64, 127
2, 260809, Note_on_c, 0, 54, 0
2, 261049, Note_on_c, 0, 67, 0
2, 261161, Note_on_c, 0, 64, 0
2, 261234, Note_on_c, 0, 61, 0
2, 261361, Note_on_c, 0, 70, 0
2, 261513, Control_c, 0, 64, 0
2, 261524, Note_on_c, 0, 59, 42
2, 261526, Note_on_c, 0, 64, 43
2, 261540, Note_on_c, 0, 69, 45
2, 261548, Note_on_c, 0, 53, 36
2, 261576, Note_on_c, 0, 43, 29
2, 261819, Control_c, 0, 64, 127
2, 262331, Note_on_c, 0, 53, 0
2, 262401, Note_on_c, 0, 43, 0
2, 262523, Note_on_c, 0, 64, 0
2, 262579, Note_on_c, 0, 59, 0
2, 262700, Note_on_c, 0, 69, 0
2, 263070, Control_c, 0, 64, 0
2, 263072, Note_on_c, 0, 68, 49
2, 263097, Note_on_c, 0, 59, 35
2, 263102, Note_on_c, 0, 37, 32
2, 263113, Note_on_c, 0, 64, 36
2, 263139, Note_on_c, 0, 49, 20
2, 263326, Control_c, 0, 64, 127
2, 263446, Note_on_c, 0, 49, 0
2, 263470, Note_on_c, 0, 37, 0
2, 263963, Note_on_c, 0, 59, 0
2, 264070, Note_on_c, 0, 64, 0
2, 264147, Note_on_c, 0, 68, 0
2, 264625, Control_c, 0, 64, 0
2, 264663, Note_on_c, 0, 43, 20
2, 264667, Note_on_c, 0, 58, 34
2, 264691, Note_on_c, 0, 36, 29
2, 264694, Note_on_c, 0, 67, 33
2, 264702, Note_on_c, 0, 64, 36
2, 264704, Note_on_c, 0, 52, 38
2, 264857, Note_on_c, 0, 58, 0
2, 264867, Control_c, 0, 64, 127
2, 265068, Note_on_c, 0, 67, 0
2, 265078, Note_on_c, 0, 64, 0
2, 265238, Note_on_c, 0, 60, 60
2, 265518, Note_on_c, 0, 60, 0
2, 265657, Note_on_c, 0, 52, 0
2, 265748, Note_on_c, 0, 62, 108
2, 266038, Note_on_c, 0, 62, 0
2, 266230, Control_c, 0, 64, 0
2, 266236, Note_on_c, 0, 36, 0
2, 266248, Note_on_c, 0, 65, 90
2, 266310, Note_on_c, 0, 52, 41
2, 266358, Control_c, 0, 64, 127
2, 266520, Note_on_c, 0, 65, 0
2, 266536, Note_on_c, 0, 43, 0
2, 266695, Note_on_c, 0, 52, 0
2, 266761, Note_on_c, 0, 68, 95
2, 266776, Note_on_c, 0, 74, 83
2, 266812, Note_on_c, 0, 73, 35
2, 266840, Control_c, 0, 64, 0
2, 266876, Note_on_c, 0, 73, 0
2, 267147, Note_on_c, 0, 74, 0
2, 267192, Control_c, 0, 64, 127
2, 267217, Note_on_c, 0, 68, 0
2, 267283, Note_on_c, 0, 74, 57
2, 267289, Note_on_c, 0, 69, 69
2, 267705, Note_on_c, 0, 69, 0
2, 267785, Note_on_c, 0, 48, 26
2, 267798, Note_on_c, 0, 41, 31
2, 267803, Control_c, 0, 64, 0
2, 267804, Note_on_c, 0, 57, 38
2, 267819, Note_on_c, 0, 74, 0
2, 267865, Note_on_c, 0, 65, 17
2, 268280, Note_on_c, 0, 65, 0
2, 268340, Note_on_c, 0, 62, 40
2, 268582, Note_on_c, 0, 57, 0
2, 268748, Control_c, 0, 64, 127
2, 268830, Note_on_c, 0, 65, 55
2, 268862, Note_on_c, 0, 62, 0
2, 268878, Note_on_c, 0, 48, 0
2, 269212, Note_on_c, 0, 41, 0
2, 269294, Control_c, 0, 64, 0
2, 269329, Note_on_c, 0, 48, 44
2, 269332, Note_on_c, 0, 50, 43
2, 269483, Note_on_c, 0, 48, 0
2, 269840, Control_c, 0, 64, 127
2, 270385, Note_on_c, 0, 60, 25
2, 270776, Note_on_c, 0, 65, 0
2, 270830, Note_on_c, 0, 60, 0
2, 270889, Note_on_c, 0, 57, 38
2, 270897, Control_c, 0, 64, 0
2, 270905, Note_on_c, 0, 62, 45
2, 271396, Note_on_c, 0, 48, 50
2, 271403, Note_on_c, 0, 50, 0
2, 271475, Note_on_c, 0, 48, 0
2, 271960, Note_on_c, 0, 36, 51
2, 272398, Note_on_c, 0, 36, 0
2, 272446, Note_on_c, 0, 38, 45
2, 272870, Control_c, 0, 64, 127
2, 272872, Note_on_c, 0, 38, 0
2, 272926, Note_on_c, 0, 29, 48
2, 272979, Note_on_c, 0, 57, 0
2, 273072, Note_on_c, 0, 29, 0
2, 273921, Note_on_c, 0, 62, 0
2, 274044, Note_on_c, 0, 58, 46
2, 274065, Note_on_c, 0, 55, 53
2, 274107, Control_c, 0, 64, 0
2, 274683, Control_c, 0, 64, 127
2, 275043, Note_on_c, 0, 40, 50
2, 275068, Control_c, 0, 64, 0
2, 275308, Control_c, 0, 64, 127
2, 275332, Note_on_c, 0, 55, 0
2, 275488, Note_on_c, 0, 58, 0
2, 275491, Note_on_c, 0, 40, 0
2, 276545, Control_c, 0, 64, 0
2, 276569, Note_on_c, 0, 62, 69
2, 276574, Note_on_c, 0, 67, 67
2, 276641, Note_on_c, 0, 56, 42
2, 276753, Control_c, 0, 64, 127
2, 277004, Note_on_c, 0, 67, 0
2, 277052, Note_on_c, 0, 62, 0
2, 277115, Note_on_c, 0, 56, 0
2, 277201, Control_c, 0, 64, 0
2, 277204, Note_on_c, 0, 55, 64
2, 277216, Note_on_c, 0, 66, 52
2, 277217, Note_on_c, 0, 61, 50
2, 277523, Control_c, 0, 64, 127
2, 277708, Note_on_c, 0, 84, 68
2, 277720, Note_on_c, 0, 72, 66
2, 277771, Note_on_c, 0, 66, 0
2, 277792, Note_on_c, 0, 55, 0
2, 277846, Note_on_c, 0, 61, 0
2, 278753, Note_on_c, 0, 45, 47
2, 278790, Control_c, 0, 64, 0
2, 278928, Note_on_c, 0, 45, 0
2, 278950, Control_c, 0, 64, 127
2, 279361, Note_on_c, 0, 72, 0
2, 279363, Note_on_c, 0, 84, 0
2, 279388, Note_on_c, 0, 81, 66
2, 279634, Note_on_c, 0, 81, 0
2, 279847, Note_on_c, 0, 76, 35
2, 280259, Note_on_c, 0, 57, 42
2, 280268, Note_on_c, 0, 50, 46
2, 280281, Control_c, 0, 64, 0
2, 280619, Control_c, 0, 64, 127
2, 280774, Note_on_c, 0, 79, 74
2, 280814, Note_on_c, 0, 76, 0
2, 281222, Note_on_c, 0, 79, 0
2, 281377, Note_on_c, 0, 76, 78
2, 281808, Note_on_c, 0, 61, 60
2, 282310, Note_on_c, 0, 76, 0
2, 282318, Note_on_c, 0, 65, 50
2, 282320, Note_on_c, 0, 69, 54
2, 282801, Note_on_c, 0, 74, 72
2, 283046, Note_on_c, 0, 61, 0
2, 283297, Note_on_c, 0, 57, 0
2, 283316, Note_on_c, 0, 60, 36
2, 283377, Control_c, 0, 64, 0
2, 283587, Note_on_c, 0, 69, 0
2, 283699, Control_c, 0, 64, 127
2, 283710, Note_on_c, 0, 65, 0
2, 283812, Note_on_c, 0, 74, 0
2, 283822, Note_on_c, 0, 69, 53
2, 284352, Note_on_c, 0, 57, 32
2, 284408, Note_on_c, 0, 60, 0
2, 284881, Note_on_c, 0, 69, 0
2, 284907, Note_on_c, 0, 64, 43
2, 284924, Note_on_c, 0, 50, 0
2, 285441, Note_on_c, 0, 50, 47
2, 285611, Note_on_c, 0, 57, 0
2, 285721, Note_on_c, 0, 50, 0
2, 285857, Note_on_c, 0, 64, 0
2, 285966, Note_on_c, 0, 60, 34
2, 286280, Note_on_c, 0, 60, 0
2, 286507, Note_on_c, 0, 59, 38
2, 286547, Note_on_c, 0, 61, 49
2, 286553, Control_c, 0, 64, 0
2, 286556, Note_on_c, 0, 43, 27
2, 286561, Note_on_c, 0, 53, 29
2, 286579, Note_on_c, 0, 50, 24
2, 286939, Control_c, 0, 64, 127
2, 287481, Note_on_c, 0, 50, 0
2, 287508, Note_on_c, 0, 53, 0
2, 287616, Note_on_c, 0, 59, 0
2, 287720, Note_on_c, 0, 61, 0
2, 288103, Note_on_c, 0, 43, 0
2, 288107, Note_on_c, 0, 62, 55
2, 288108, Note_on_c, 0, 53, 48
2, 288142, Control_c, 0, 64, 0
2, 288144, Note_on_c, 0, 61, 38
2, 288156, Note_on_c, 0, 57, 30
2, 288163, Note_on_c, 0, 49, 37
2, 288446, Control_c, 0, 64, 127
2, 288857, Note_on_c, 0, 49, 0
2, 288891, Note_on_c, 0, 50, 55
2, 289230, Note_on_c, 0, 57, 0
2, 289283, Note_on_c, 0, 53, 0
2, 289324, Note_on_c, 0, 61, 0
2, 289339, Note_on_c, 0, 62, 0
2, 289633, Control_c, 0, 64, 0
2, 289686, Note_on_c, 0, 60, 46
2, 289688, Note_on_c, 0, 65, 65
2, 289689, Note_on_c, 0, 57, 58
2, 289702, Note_on_c, 0, 53, 66
2, 289712, Note_on_c, 0, 62, 55
2, 289723, Note_on_c, 0, 50, 0
2, 289907, Control_c, 0, 64, 127
2, 290390, Note_on_c, 0, 57, 0
2, 290410, Note_on_c, 0, 53, 0
2, 290489, Note_on_c, 0, 62, 0
2, 290516, Note_on_c, 0, 60, 0
2, 290520, Note_on_c, 0, 65, 0
2, 291190, Control_c, 0, 64, 0
2, 291196, Note_on_c, 0, 60, 34
2, 291206, Note_on_c, 0, 69, 50
2, 291211, Note_on_c, 0, 64, 41
2, 291232, Note_on_c, 0, 57, 36
2, 291398, Control_c, 0, 64, 127
2, 291920, Note_on_c, 0, 57, 0
2, 291929, Note_on_c, 0, 60, 0
2, 291931, Note_on_c, 0, 69, 0
2, 292024, Note_on_c, 0, 64, 0
2, 292649, Control_c, 0, 64, 0
2, 292673, Note_on_c, 0, 71, 46
2, 292683, Note_on_c, 0, 59, 42
2, 292686, Note_on_c, 0, 64, 42
2, 292708, Note_on_c, 0, 42, 35
2, 292731, Note_on_c, 0, 52, 25
2, 292867, Note_on_c, 0, 59, 0
2, 292875, Control_c, 0, 64, 127
2, 292974, Note_on_c, 0, 64, 0
2, 293068, Note_on_c, 0, 71, 0
2, 293145, Note_on_c, 0, 42, 0
2, 293220, Note_on_c, 0, 52, 0
2, 293732, Note_on_c, 0, 83, 94
2, 294110, Note_on_c, 0, 83, 0
2, 294251, Note_on_c, 0, 67, 54
2, 294268, Note_on_c, 0, 63, 43
2, 294286, Control_c, 0, 64, 0
2, 294288, Note_on_c, 0, 62, 25
2, 294289, Note_on_c, 0, 83, 60
2, 294292, Note_on_c, 0, 75, 51
2, 294302, Note_on_c, 0, 71, 41
2, 294394, Note_on_c, 0, 67, 0
2, 294427, Note_on_c, 0, 75, 0
2, 294457, Note_on_c, 0, 62, 0
2, 294488, Note_on_c, 0, 63, 0
2, 294540, Note_on_c, 0, 71, 0
2, 294561, Note_on_c, 0, 83, 0
2, 294750, Control_c, 0, 64, 127
2, 294796, Note_on_c, 0, 83, 54
2, 294867, Note_on_c, 0, 71, 18
2, 295062, Note_on_c, 0, 71, 0
2, 295134, Note_on_c, 0, 83, 0
2, 295295, Note_on_c, 0, 81, 60
2, 295342, Note_on_c, 0, 71, 25
2, 295425, Note_on_c, 0, 71, 0
2, 295612, Note_on_c, 0, 81, 0
2, 295809, Note_on_c, 0, 83, 58
2, 295822, Note_on_c, 0, 71, 48
2, 295843, Note_on_c, 0, 75, 37
2, 295854, Note_on_c, 0, 79, 35
2, 295859, Control_c, 0, 64, 0
2, 296334, Note_on_c, 0, 48, 51
2, 296488, Note_on_c, 0, 48, 0
2, 296798, Note_on_c, 0, 41, 53
2, 296866, Control_c, 0, 64, 127
2, 296868, Note_on_c, 0, 41, 0
2, 297344, Note_on_c, 0, 67, 65
2, 297369, Note_on_c, 0, 63, 50
2, 297377, Note_on_c, 0, 62, 32
2, 297404, Note_on_c, 0, 57, 26
2, 297665, Note_on_c, 0, 79, 0
2, 297672, Note_on_c, 0, 71, 0
2, 297731, Note_on_c, 0, 75, 0
2, 297750, Note_on_c, 0, 67, 0
2, 297769, Note_on_c, 0, 63, 0
2, 297796, Note_on_c, 0, 57, 0
2, 297801, Note_on_c, 0, 62, 0
2, 297812, Note_on_c, 0, 83, 0
2, 297868, Note_on_c, 0, 62, 52
2, 297872, Note_on_c, 0, 67, 67
2, 297875, Note_on_c, 0, 57, 47
2, 297876, Note_on_c, 0, 63, 72
2, 298316, Note_on_c, 0, 67, 0
2, 298347, Note_on_c, 0, 62, 0
2, 298371, Note_on_c, 0, 63, 0
2, 298408, Note_on_c, 0, 57, 0
2, 298880, Note_on_c, 0, 52, 82
2, 298889, Control_c, 0, 64, 0
2, 299065, Control_c, 0, 64, 127
2, 299769, Note_on_c, 0, 52, 0
2, 299827, Note_on_c, 0, 76, 81
2, 299835, Note_on_c, 0, 69, 85
2, 299838, Note_on_c, 0, 65, 83
2, 299844, Note_on_c, 0, 71, 74
2, 299870, Note_on_c, 0, 64, 88
2, 300848, Note_on_c, 0, 76, 0
2, 301062, Note_on_c, 0, 76, 62
2, 301364, Note_on_c, 0, 76, 0
2, 301594, Note_on_c, 0, 76, 62
2, 301600, Note_on_c, 0, 64, 0
2, 301681, Note_on_c, 0, 71, 0
2, 301684, Note_on_c, 0, 69, 0
2, 301752, Note_on_c, 0, 65, 0
2, 301948, Note_on_c, 0, 76, 0
2, 302094, Note_on_c, 0, 76, 56
2, 302100, Note_on_c, 0, 70, 53
2, 302113, Control_c, 0, 64, 0
2, 302120, Note_on_c, 0, 62, 42
2, 302123, Note_on_c, 0, 56, 48
2, 302124, Note_on_c, 0, 68, 37
2, 302139, Note_on_c, 0, 65, 37
2, 302451, Control_c, 0, 64, 127
2, 303020, Note_on_c, 0, 62, 0
2, 303123, Note_on_c, 0, 56, 0
2, 303128, Note_on_c, 0, 76, 0
2, 303304, Note_on_c, 0, 65, 0
2, 303369, Note_on_c, 0, 70, 0
2, 303412, Note_on_c, 0, 68, 0
2, 303729, Note_on_c, 0, 65, 37
2, 303734, Control_c, 0, 64, 0
2, 303737, Note_on_c, 0, 56, 37
2, 303739, Note_on_c, 0, 74, 44
2, 303745, Note_on_c, 0, 68, 35
2, 303759, Note_on_c, 0, 46, 28
2, 303990, Control_c, 0, 64, 127
2, 304577, Note_on_c, 0, 74, 0
2, 304590, Note_on_c, 0, 65, 0
2, 304643, Note_on_c, 0, 56, 0
2, 304826, Note_on_c, 0, 52, 36
2, 304844, Note_on_c, 0, 46, 0
2, 305030, Note_on_c, 0, 52, 0
2, 305035, Note_on_c, 0, 68, 0
2, 305371, Control_c, 0, 64, 0
2, 305401, Note_on_c, 0, 73, 31
2, 305403, Note_on_c, 0, 61, 43
2, 305424, Note_on_c, 0, 45, 30
2, 305435, Note_on_c, 0, 55, 29
2, 305480, Note_on_c, 0, 67, 28
2, 305595, Control_c, 0, 64, 127
2, 305926, Note_on_c, 0, 67, 0
2, 305963, Note_on_c, 0, 61, 0
2, 306068, Note_on_c, 0, 73, 0
2, 306440, Note_on_c, 0, 55, 0
2, 306518, Note_on_c, 0, 76, 84
2, 307108, Note_on_c, 0, 69, 59
2, 307140, Note_on_c, 0, 55, 39
2, 307257, Note_on_c, 0, 76, 0
2, 307559, Note_on_c, 0, 45, 0
2, 307603, Note_on_c, 0, 69, 0
2, 307968, Note_on_c, 0, 55, 0
2, 308083, Note_on_c, 0, 45, 39
2, 308220, Note_on_c, 0, 45, 0
2, 308665, Note_on_c, 0, 62, 89
2, 308673, Note_on_c, 0, 57, 80
2, 308692, Note_on_c, 0, 47, 65
2, 308707, Control_c, 0, 64, 0
2, 309042, Control_c, 0, 64, 127
2, 309662, Note_on_c, 0, 62, 0
2, 309734, Note_on_c, 0, 66, 83
2, 309825, Note_on_c, 0, 67, 48
2, 310008, Note_on_c, 0, 67, 0
2, 310171, Note_on_c, 0, 66, 0
2, 310326, Control_c, 0, 64, 0
2, 310342, Note_on_c, 0, 62, 62
2, 310552, Control_c, 0, 64, 127
2, 310881, Note_on_c, 0, 57, 0
2, 311218, Note_on_c, 0, 62, 0
2, 311360, Note_on_c, 0, 35, 38
2, 311564, Note_on_c, 0, 47, 0
2, 311641, Note_on_c, 0, 35, 0
2, 311867, Control_c, 0, 64, 0
2, 311947, Note_on_c, 0, 63, 38
2, 311953, Note_on_c, 0, 54, 29
2, 311974, Note_on_c, 0, 48, 33
2, 311976, Note_on_c, 0, 57, 29
2, 311996, Note_on_c, 0, 60, 24
2, 312091, Control_c, 0, 64, 127
2, 312204, Note_on_c, 0, 57, 0
2, 312227, Note_on_c, 0, 60, 0
2, 312270, Note_on_c, 0, 54, 0
2, 312297, Note_on_c, 0, 63, 0
2, 312326, Note_on_c, 0, 48, 0
2, 313489, Note_on_c, 0, 55, 43
2, 313536, Control_c, 0, 64, 0
2, 313566, Note_on_c, 0, 72, 55
2, 313571, Note_on_c, 0, 57, 47
2, 313587, Note_on_c, 0, 55, 0
2, 313592, Note_on_c, 0, 66, 37
2, 313604, Note_on_c, 0, 63, 42
2, 313627, Note_on_c, 0, 72, 0
2, 313689, Note_on_c, 0, 57, 0
2, 313696, Note_on_c, 0, 66, 0
2, 313729, Note_on_c, 0, 63, 0
2, 314110, Note_on_c, 0, 48, 49
2, 314134, Note_on_c, 0, 69, 44
2, 314145, Note_on_c, 0, 63, 43
2, 314158, Note_on_c, 0, 66, 40
2, 314174, Note_on_c, 0, 60, 17
2, 314305, Control_c, 0, 64, 127
2, 314572, Note_on_c, 0, 60, 0
2, 314656, Note_on_c, 0, 63, 0
2, 314966, Note_on_c, 0, 69, 0
2, 315009, Note_on_c, 0, 66, 0
2, 315022, Note_on_c, 0, 48, 0
2, 315123, Control_c, 0, 64, 0
2, 315136, Note_on_c, 0, 64, 37
2, 315140, Note_on_c, 0, 57, 27
2, 315144, Note_on_c, 0, 61, 36
2, 315160, Note_on_c, 0, 49, 31
2, 315556, Control_c, 0, 64, 127
2, 316212, Note_on_c, 0, 57, 0
2, 316305, Note_on_c, 0, 61, 0
2, 316366, Note_on_c, 0, 64, 0
2, 316753, Note_on_c, 0, 61, 34
2, 316755, Note_on_c, 0, 57, 24
2, 316848, Note_on_c, 0, 57, 0
2, 316947, Note_on_c, 0, 61, 0
2, 317155, Note_on_c, 0, 49, 0
2, 317790, Note_on_c, 0, 85, 87
2, 317793, Note_on_c, 0, 73, 88
2, 317817, Note_on_c, 0, 79, 73
2, 317872, Note_on_c, 0, 79, 0
2, 318049, Note_on_c, 0, 73, 0
2, 318086, Note_on_c, 0, 85, 0
2, 318230, Note_on_c, 0, 85, 51
2, 318266, Note_on_c, 0, 73, 58
2, 318286, Note_on_c, 0, 64, 57
2, 318288, Note_on_c, 0, 60, 38
2, 318297, Note_on_c, 0, 79, 51
2, 318315, Control_c, 0, 64, 0
2, 318321, Note_on_c, 0, 55, 35
2, 318323, Note_on_c, 0, 59, 44
2, 318398, Note_on_c, 0, 59, 0
2, 318419, Note_on_c, 0, 60, 0
2, 318420, Note_on_c, 0, 64, 0
2, 318422, Note_on_c, 0, 55, 0
2, 318459, Note_on_c, 0, 79, 0
2, 318630, Note_on_c, 0, 85, 0
2, 318676, Note_on_c, 0, 73, 0
2, 318734, Note_on_c, 0, 79, 35
2, 318736, Note_on_c, 0, 86, 48
2, 318737, Note_on_c, 0, 74, 50
2, 318807, Note_on_c, 0, 84, 28
2, 318878, Note_on_c, 0, 74, 0
2, 318884, Note_on_c, 0, 86, 0
2, 318886, Note_on_c, 0, 79, 0
2, 318891, Note_on_c, 0, 84, 0
2, 319070, Note_on_c, 0, 86, 32
2, 319078, Note_on_c, 0, 74, 33
2, 319086, Note_on_c, 0, 83, 37
2, 319091, Note_on_c, 0, 79, 36
2, 319209, Note_on_c, 0, 86, 0
2, 319249, Note_on_c, 0, 79, 0
2, 319252, Note_on_c, 0, 74, 0
2, 319286, Note_on_c, 0, 83, 0
2, 319419, Note_on_c, 0, 86, 50
2, 319464, Note_on_c, 0, 74, 36
2, 319486, Note_on_c, 0, 79, 40
2, 319550, Control_c, 0, 64, 127
2, 319633, Note_on_c, 0, 74, 0
2, 319640, Note_on_c, 0, 86, 0
2, 319648, Note_on_c, 0, 79, 0
2, 319678, Control_c, 0, 64, 0
2, 319770, Note_on_c, 0, 64, 49
2, 319784, Note_on_c, 0, 86, 40
2, 319788, Note_on_c, 0, 60, 32
2, 319820, Note_on_c, 0, 74, 27
2, 319827, Note_on_c, 0, 79, 45
2, 319841, Note_on_c, 0, 55, 19
2, 319851, Note_on_c, 0, 64, 0
2, 319883, Note_on_c, 0, 60, 0
2, 319904, Note_on_c, 0, 79, 0
2, 319940, Note_on_c, 0, 74, 0
2, 319955, Note_on_c, 0, 55, 0
2, 319968, Note_on_c, 0, 86, 0
2, 320257, Note_on_c, 0, 52, 70
2, 320545, Note_on_c, 0, 52, 0
2, 320641, Control_c, 0, 64, 127
2, 320724, Note_on_c, 0, 39, 53
2, 321036, Note_on_c, 0, 39, 0
2, 321203, Control_c, 0, 64, 0
2, 321268, Note_on_c, 0, 54, 59
2, 321323, Note_on_c, 0, 50, 29
2, 321326, Note_on_c, 0, 38, 43
2, 321426, Control_c, 0, 64, 127
2, 321737, Note_on_c, 0, 54, 0
2, 321755, Note_on_c, 0, 38, 0
2, 321860, Note_on_c, 0, 50, 0
2, 322788, Note_on_c, 0, 62, 49
2, 322830, Note_on_c, 0, 60, 27
2, 322833, Note_on_c, 0, 57, 30
2, 323148, Note_on_c, 0, 60, 0
2, 323174, Note_on_c, 0, 62, 0
2, 323267, Note_on_c, 0, 57, 0
2, 323755, Note_on_c, 0, 86, 89
2, 323763, Note_on_c, 0, 74, 92
2, 323895, Note_on_c, 0, 86, 0
2, 323924, Note_on_c, 0, 74, 0
2, 324372, Note_on_c, 0, 74, 62
2, 324392, Note_on_c, 0, 71, 71
2, 324393, Note_on_c, 0, 66, 69
2, 324398, Control_c, 0, 64, 0
2, 324414, Note_on_c, 0, 59, 58
2, 324428, Note_on_c, 0, 50, 45
2, 324715, Control_c, 0, 64, 127
2, 325339, Note_on_c, 0, 72, 1
2, 325550, Note_on_c, 0, 66, 0
2, 325552, Note_on_c, 0, 59, 0
2, 325630, Note_on_c, 0, 74, 0
2, 325652, Note_on_c, 0, 71, 0
2, 325729, Note_on_c, 0, 72, 0
2, 326067, Note_on_c, 0, 58, 47
2, 326073, Note_on_c, 0, 66, 36
2, 326078, Control_c, 0, 64, 0
2, 326083, Note_on_c, 0, 74, 43
2, 326100, Note_on_c, 0, 70, 33
2, 326272, Control_c, 0, 64, 127
2, 326457, Note_on_c, 0, 50, 0
2, 326870, Note_on_c, 0, 74, 0
2, 327003, Note_on_c, 0, 70, 0
2, 327039, Note_on_c, 0, 66, 0
2, 327144, Note_on_c, 0, 50, 35
2, 327224, Note_on_c, 0, 58, 0
2, 327704, Note_on_c, 0, 66, 25
2, 327708, Note_on_c, 0, 69, 42
2, 327721, Note_on_c, 0, 60, 20
2, 327726, Note_on_c, 0, 63, 35
2, 327731, Control_c, 0, 64, 0
2, 327734, Note_on_c, 0, 57, 31
2, 328018, Control_c, 0, 64, 127
2, 328092, Note_on_c, 0, 50, 0
2, 328785, Note_on_c, 0, 50, 38
2, 328841, Note_on_c, 0, 57, 0
2, 328889, Note_on_c, 0, 60, 0
2, 328940, Note_on_c, 0, 69, 0
2, 328984, Note_on_c, 0, 66, 0
2, 328993, Note_on_c, 0, 63, 0
2, 329503, Note_on_c, 0, 55, 40
2, 329531, Note_on_c, 0, 56, 48
2, 329544, Control_c, 0, 64, 0
2, 329617, Note_on_c, 0, 55, 0
2, 329652, Note_on_c, 0, 56, 0
2, 329673, Note_on_c, 0, 57, 61
2, 329865, Note_on_c, 0, 57, 0
2, 329995, Note_on_c, 0, 60, 74
2, 330219, Note_on_c, 0, 60, 0
2, 330326, Note_on_c, 0, 50, 0
2, 330350, Note_on_c, 0, 62, 82
2, 330491, Control_c, 0, 64, 127
2, 330664, Note_on_c, 0, 62, 0
2, 330686, Note_on_c, 0, 57, 55
2, 330970, Note_on_c, 0, 57, 0
2, 331116, Control_c, 0, 64, 0
2, 331161, Note_on_c, 0, 43, 32
2, 331164, Note_on_c, 0, 57, 44
2, 331201, Note_on_c, 0, 50, 32
2, 331426, Note_on_c, 0, 53, 17
2, 331635, Note_on_c, 0, 53, 0
2, 331716, Note_on_c, 0, 57, 0
2, 331745, Note_on_c, 0, 50, 0
2, 331769, Note_on_c, 0, 53, 44
2, 331840, Note_on_c, 0, 58, 52
2, 331867, Note_on_c, 0, 56, 21
2, 331998, Control_c, 0, 64, 127
2, 332208, Note_on_c, 0, 53, 0
2, 332235, Note_on_c, 0, 56, 0
2, 332284, Note_on_c, 0, 58, 0
2, 332352, Control_c, 0, 64, 0
2, 332387, Note_on_c, 0, 53, 49
2, 332403, Note_on_c, 0, 59, 54
2, 332412, Note_on_c, 0, 50, 29
2, 332704, Control_c, 0, 64, 127
2, 332852, Note_on_c, 0, 53, 0
2, 332939, Note_on_c, 0, 59, 0
2, 333118, Note_on_c, 0, 43, 0
2, 333160, Note_on_c, 0, 50, 0
2, 333448, Note_on_c, 0, 74, 84
2, 333678, Note_on_c, 0, 74, 0
2, 333876, Note_on_c, 0, 74, 81
2, 334136, Note_on_c, 0, 74, 0
2, 334288, Note_on_c, 0, 74, 49
2, 334308, Control_c, 0, 64, 0
2, 334310, Note_on_c, 0, 64, 41
2, 334316, Note_on_c, 0, 69, 54
2, 334321, Note_on_c, 0, 65, 42
2, 334681, Note_on_c, 0, 64, 0
2, 334700, Note_on_c, 0, 63, 40
2, 335032, Note_on_c, 0, 63, 0
2, 335113, Note_on_c, 0, 62, 43
2, 335142, Control_c, 0, 64, 127
2, 335254, Control_c, 0, 64, 0
2, 335416, Note_on_c, 0, 62, 0
2, 335432, Note_on_c, 0, 69, 0
2, 335454, Note_on_c, 0, 65, 0
2, 335464, Control_c, 0, 64, 127
2, 335481, Note_on_c, 0, 61, 51
2, 335528, Note_on_c, 0, 74, 0
2, 335720, Control_c, 0, 64, 0
2, 335870, Note_on_c, 0, 74, 46
2, 335880, Note_on_c, 0, 65, 42
2, 335886, Note_on_c, 0, 69, 45
2, 335896, Note_on_c, 0, 61, 0
2, 335936, Note_on_c, 0, 60, 24
2, 336041, Control_c, 0, 64, 127
2, 336782, Note_on_c, 0, 74, 0
2, 336865, Note_on_c, 0, 73, 49
2, 336998, Note_on_c, 0, 69, 0
2, 337128, Note_on_c, 0, 65, 0
2, 337179, Note_on_c, 0, 60, 0
2, 337259, Note_on_c, 0, 73, 0
2, 337340, Control_c, 0, 64, 0
2, 337388, Note_on_c, 0, 60, 24
2, 337419, Note_on_c, 0, 50, 31
2, 337427, Note_on_c, 0, 69, 37
2, 337428, Note_on_c, 0, 74, 41
2, 337456, Note_on_c, 0, 57, 28
2, 337537, Note_on_c, 0, 65, 10
2, 337596, Control_c, 0, 64, 127
2, 337817, Note_on_c, 0, 69, 0
2, 337822, Note_on_c, 0, 60, 0
2, 337833, Note_on_c, 0, 74, 0
2, 337900, Note_on_c, 0, 65, 0
2, 337908, Note_on_c, 0, 57, 0
2, 338102, Note_on_c, 0, 50, 0
2, 338481, Note_on_c, 0, 62, 54
2, 338880, Note_on_c, 0, 62, 0
2, 339046, Note_on_c, 0, 62, 48
2, 339099, Note_on_c, 0, 53, 28
2, 339107, Note_on_c, 0, 60, 24
2, 339120, Control_c, 0, 64, 0
2, 339123, Note_on_c, 0, 50, 26
2, 339132, Note_on_c, 0, 57, 19
2, 339393, Control_c, 0, 64, 127
2, 340068, Note_on_c, 0, 57, 0
2, 340097, Note_on_c, 0, 53, 0
2, 340156, Note_on_c, 0, 43, 33
2, 340192, Note_on_c, 0, 62, 0
2, 340212, Note_on_c, 0, 60, 0
2, 340566, Note_on_c, 0, 50, 0
2, 340703, Note_on_c, 0, 53, 37
2, 340713, Note_on_c, 0, 60, 32
2, 340720, Note_on_c, 0, 52, 34
2, 340724, Control_c, 0, 64, 0
2, 340726, Note_on_c, 0, 57, 35
2, 341028, Control_c, 0, 64, 127
2, 341635, Note_on_c, 0, 57, 0
2, 341894, Note_on_c, 0, 52, 0
2, 341928, Note_on_c, 0, 53, 0
2, 342113, Note_on_c, 0, 60, 0
2, 342425, Control_c, 0, 64, 0
2, 342569, Control_c, 0, 64, 127
2, 343003, Note_on_c, 0, 63, 55
2, 343164, Note_on_c, 0, 43, 0
2, 343208, Note_on_c, 0, 63, 0
2, 343504, Note_on_c, 0, 64, 29
2, 343561, Note_on_c, 0, 64, 0
2, 343964, Control_c, 0, 64, 0
2, 344011, Note_on_c, 0, 38, 35
2, 344014, Note_on_c, 0, 50, 32
2, 344016, Note_on_c, 0, 62, 41
2, 344019, Note_on_c, 0, 65, 46
2, 344030, Note_on_c, 0, 45, 29
2, 344040, Note_on_c, 0, 57, 26
2, 344190, Control_c, 0, 64, 127
2, 344304, Note_on_c, 0, 38, 0
2, 344331, Note_on_c, 0, 45, 0
2, 344337, Note_on_c, 0, 57, 0
2, 344404, Note_on_c, 0, 50, 0
2, 344459, Note_on_c, 0, 62, 0
2, 344708, Note_on_c, 0, 65, 0
2, 345724, Note_on_c, 0, 60, 31
2, 345768, Note_on_c, 0, 57, 26
2, 345800, Note_on_c, 0, 50, 18
2, 345825, Note_on_c, 0, 53, 22
2, 346243, Note_on_c, 0, 69, 88
2, 346588, Note_on_c, 0, 69, 0
2, 346707, Note_on_c, 0, 50, 0
2, 346708, Note_on_c, 0, 53, 0
2, 346716, Note_on_c, 0, 57, 0
2, 346721, Note_on_c, 0, 70, 88
2, 346876, Note_on_c, 0, 60, 0
2, 347068, Note_on_c, 0, 70, 0
2, 347254, Control_c, 0, 64, 0
2, 347268, Note_on_c, 0, 71, 92
2, 347307, Note_on_c, 0, 53, 51
2, 347310, Note_on_c, 0, 59, 55
2, 347313, Note_on_c, 0, 64, 49
2, 347542, Control_c, 0, 64, 127
2, 347782, Note_on_c, 0, 74, 88
2, 347840, Note_on_c, 0, 71, 0
2, 348351, Note_on_c, 0, 59, 0
2, 348390, Note_on_c, 0, 64, 0
2, 348969, Note_on_c, 0, 64, 28
2, 348984, Note_on_c, 0, 59, 35
2, 349481, Note_on_c, 0, 59, 0
2, 349529, Note_on_c, 0, 53, 0
2, 349648, Note_on_c, 0, 64, 0
2, 349822, Note_on_c, 0, 74, 0
2, 350622, Control_c, 0, 64, 0
2, 350652, Note_on_c, 0, 76, 60
2, 350664, Note_on_c, 0, 71, 53
2, 350675, Note_on_c, 0, 64, 32
2, 350683, Note_on_c, 0, 67, 42
2, 350700, Note_on_c, 0, 59, 33
2, 350912, Control_c, 0, 64, 127
2, 351083, Note_on_c, 0, 76, 0
2, 351233, Note_on_c, 0, 76, 55
2, 351623, Note_on_c, 0, 76, 0
2, 351659, Note_on_c, 0, 64, 0
2, 351683, Note_on_c, 0, 74, 44
2, 351784, Note_on_c, 0, 67, 0
2, 351852, Note_on_c, 0, 71, 0
2, 351974, Note_on_c, 0, 59, 0
2, 352054, Note_on_c, 0, 74, 0
2, 352294, Note_on_c, 0, 64, 33
2, 352297, Note_on_c, 0, 67, 50
2, 352302, Note_on_c, 0, 76, 55
2, 352312, Note_on_c, 0, 71, 44
2, 352316, Note_on_c, 0, 59, 34
2, 352564, Note_on_c, 0, 76, 0
2, 352929, Note_on_c, 0, 76, 61
2, 353046, Note_on_c, 0, 64, 0
2, 353092, Note_on_c, 0, 59, 0
2, 353300, Note_on_c, 0, 76, 0
2, 353315, Note_on_c, 0, 67, 0
2, 353417, Note_on_c, 0, 74, 45
2, 353520, Note_on_c, 0, 71, 0
2, 353796, Note_on_c, 0, 74, 0
2, 354260, Note_on_c, 0, 68, 44
2, 354265, Control_c, 0, 64, 0
2, 354270, Note_on_c, 0, 62, 38
2, 354275, Note_on_c, 0, 72, 52
2, 354280, Note_on_c, 0, 76, 60
2, 354288, Note_on_c, 0, 56, 39
2, 354567, Control_c, 0, 64, 127
2, 355137, Note_on_c, 0, 76, 0
2, 355327, Note_on_c, 0, 72, 0
2, 355414, Note_on_c, 0, 62, 0
2, 355420, Note_on_c, 0, 74, 44
2, 355838, Note_on_c, 0, 74, 0
2, 355966, Note_on_c, 0, 56, 0
2, 356048, Note_on_c, 0, 68, 0
2, 356505, Note_on_c, 0, 61, 36
2, 356524, Control_c, 0, 64, 0
2, 356539, Note_on_c, 0, 67, 35
2, 356545, Note_on_c, 0, 76, 40
2, 356587, Note_on_c, 0, 55, 33
2, 356814, Control_c, 0, 64, 127
2, 357294, Note_on_c, 0, 76, 0
2, 357540, Note_on_c, 0, 67, 0
2, 358036, Note_on_c, 0, 61, 0
2, 358126, Note_on_c, 0, 77, 48
2, 358563, Note_on_c, 0, 55, 0
2, 358792, Note_on_c, 0, 77, 0
2, 359732, Control_c, 0, 64, 0
2, 359820, Note_on_c, 0, 77, 65
2, 359839, Note_on_c, 0, 66, 48
2, 359843, Note_on_c, 0, 57, 35
2, 359856, Note_on_c, 0, 50, 39
2, 359859, Note_on_c, 0, 70, 52
2, 359883, Note_on_c, 0, 72, 44
2, 359942, Note_on_c, 0, 75, 26
2, 359990, Control_c, 0, 64, 127
2, 360204, Note_on_c, 0, 77, 0
2, 360305, Note_on_c, 0, 75, 0
2, 360390, Note_on_c, 0, 76, 80
2, 360457, Note_on_c, 0, 72, 0
2, 360753, Note_on_c, 0, 76, 0
2, 360827, Note_on_c, 0, 66, 0
2, 360883, Note_on_c, 0, 75, 60
2, 361104, Note_on_c, 0, 57, 0
2, 361140, Note_on_c, 0, 70, 0
2, 361284, Note_on_c, 0, 75, 0
2, 361616, Note_on_c, 0, 74, 54
2, 361620, Note_on_c, 0, 62, 40
2, 361624, Note_on_c, 0, 66, 29
2, 361630, Note_on_c, 0, 57, 24
2, 361643, Control_c, 0, 64, 0
2, 361647, Note_on_c, 0, 70, 45
2, 362011, Control_c, 0, 64, 127
2, 362576, Note_on_c, 0, 62, 0
2, 362612, Note_on_c, 0, 57, 0
2, 362782, Note_on_c, 0, 50, 0
2, 364976, Note_on_c, 0, 66, 0
2, 365353, Note_on_c, 0, 70, 0
2, 365675, Note_on_c, 0, 38, 31
2, 365684, Note_on_c, 0, 69, 34
2, 365693, Note_on_c, 0, 66, 19
2, 365702, Note_on_c, 0, 50, 18
2, 365913, Note_on_c, 0, 38, 0
2, 366158, Note_on_c, 0, 50, 0
2, 366763, Note_on_c, 0, 74, 0
2, 367134, Note_on_c, 0, 69, 0
2, 367273, Note_on_c, 0, 66, 0
2, 367404, Note_on_c, 0, 43, 37
2, 367584, Note_on_c, 0, 50, 25
2, 367681, Note_on_c, 0, 59, 66
2, 367694, Note_on_c, 0, 69, 78
2, 367696, Note_on_c, 0, 74, 74
2, 367699, Note_on_c, 0, 65, 79
2, 367721, Control_c, 0, 64, 0
2, 368043, Control_c, 0, 64, 127
2, 368824, Note_on_c, 0, 59, 0
2, 368899, Note_on_c, 0, 69, 0
2, 369070, Note_on_c, 0, 65, 0
2, 369478, Note_on_c, 0, 68, 48
2, 369488, Note_on_c, 0, 65, 54
2, 369518, Note_on_c, 0, 59, 45
2, 372377, Note_on_c, 0, 65, 0
2, 372396, Note_on_c, 0, 68, 0
2, 372446, Note_on_c, 0, 43, 0
2, 372603, Note_on_c, 0, 50, 0
2, 372900, Note_on_c, 0, 59, 0
2, 372953, Note_on_c, 0, 67, 46
2, 373209, Note_on_c, 0, 74, 0
2, 373500, Note_on_c, 0, 67, 0
2, 375312, Note_on_c, 0, 43, 35
2, 375536, Note_on_c, 0, 50, 55
2, 375547, Note_on_c, 0, 62, 42
2, 375584, Note_on_c, 0, 43, 0
2, 375673, Note_on_c, 0, 64, 38
2, 375752, Note_on_c, 0, 62, 0
2, 375883, Note_on_c, 0, 58, 60
2, 375899, Note_on_c, 0, 69, 29
2, 375910, Note_on_c, 0, 64, 0
2, 375960, Note_on_c, 0, 74, 70
2, 376186, Note_on_c, 0, 69, 0
2, 377780, Note_on_c, 0, 68, 54
2, 381688, Note_on_c, 0, 58, 0
2, 381804, Note_on_c, 0, 50, 0
2, 381868, Note_on_c, 0, 68, 0
2, 382148, Note_on_c, 0, 67, 43
2, 382316, Note_on_c, 0, 74, 0
2, 383313, Note_on_c, 0, 67, 0
2, 384940, Note_on_c, 0, 66, 29
2, 384953, Note_on_c, 0, 57, 28
2, 384955, Note_on_c, 0, 62, 40
2, 384979, Note_on_c, 0, 38, 30
2, 385009, Note_on_c, 0, 26, 36
2, 385046, Control_c, 0, 64, 0
2, 385512, Control_c, 0, 64, 127
2, 385822, Note_on_c, 0, 57, 0
2, 385929, Note_on_c, 0, 62, 0
2, 386048, Note_on_c, 0, 26, 0
2, 386126, Note_on_c, 0, 38, 0
2, 386302, Note_on_c, 0, 66, 0
2, 388489, Note_on_c, 0, 102, 38
2, 388516, Note_on_c, 0, 86, 45
2, 388524, Note_on_c, 0, 93, 29
2, 388531, Note_on_c, 0, 98, 48
2, 388678, Note_on_c, 0, 93, 0
2, 388689, Note_on_c, 0, 86, 0
2, 388707, Note_on_c, 0, 98, 0
2, 388744, Note_on_c, 0, 102, 0
2, 391848, Control_c, 0, 64, 0
2, 391848, End_track
0, 0, End_of_file
