0, 0, Header, 1, 4, 120
1, 0, Start_track
1, 0, Title_t, "untitled"
1, 0, Copyright_t, "Copyright © 1997 by Doug McKenzie"
1, 0, Text_t, "Doug McKenzie\012"
1, 0, Time_signature, 4, 2, 24, 8
1, 0, Key_signature, 0, "major"
1, 0, Tempo, 731707
1, 0, End_track
2, 0, Start_track
2, 8, Note_on_c, 0, 84, 37
2, 8, Note_on_c, 0, 63, 30
2, 9, Note_on_c, 0, 67, 42
2, 10, Note_on_c, 0, 62, 30
2, 10, Note_on_c, 0, 85, 64
2, 11, Note_on_c, 0, 57, 42
2, 15, Note_on_c, 0, 84, 0
2, 16, Control_c, 0, 64, 127
2, 21, Note_on_c, 0, 85, 0
2, 24, Note_on_c, 0, 86, 56
2, 61, Note_on_c, 0, 86, 0
2, 108, Note_on_c, 0, 63, 0
2, 108, Note_on_c, 0, 67, 0
2, 118, Note_on_c, 0, 62, 0
2, 147, Note_on_c, 0, 57, 0
2, 205, Note_on_c, 0, 91, 84
2, 206, Note_on_c, 0, 58, 58
2, 206, Note_on_c, 0, 68, 52
2, 206, Note_on_c, 0, 79, 77
2, 207, Note_on_c, 0, 86, 79
2, 208, Note_on_c, 0, 63, 42
2, 211, Note_on_c, 0, 62, 30
2, 218, Note_on_c, 0, 62, 0
2, 220, Note_on_c, 0, 68, 0
2, 235, Note_on_c, 0, 86, 0
2, 236, Note_on_c, 0, 91, 0
2, 239, Note_on_c, 0, 58, 0
2, 240, Note_on_c, 0, 63, 0
2, 241, Control_c, 0, 64, 0
2, 242, Note_on_c, 0, 79, 0
2, 253, Note_on_c, 0, 63, 27
2, 255, Note_on_c, 0, 67, 49
2, 256, Note_on_c, 0, 89, 65
2, 257, Note_on_c, 0, 62, 31
2, 257, Note_on_c, 0, 77, 48
2, 257, Note_on_c, 0, 57, 43
2, 259, Note_on_c, 0, 84, 60
2, 264, Control_c, 0, 64, 127
2, 316, Note_on_c, 0, 77, 0
2, 321, Note_on_c, 0, 62, 0
2, 321, Note_on_c, 0, 84, 0
2, 325, Note_on_c, 0, 67, 0
2, 326, Note_on_c, 0, 63, 0
2, 326, Note_on_c, 0, 89, 0
2, 329, Note_on_c, 0, 57, 0
2, 364, Note_on_c, 0, 91, 62
2, 365, Note_on_c, 0, 63, 35
2, 365, Note_on_c, 0, 67, 41
2, 365, Note_on_c, 0, 62, 33
2, 365, Note_on_c, 0, 79, 51
2, 365, Note_on_c, 0, 86, 60
2, 366, Note_on_c, 0, 57, 39
2, 394, Note_on_c, 0, 62, 0
2, 399, Note_on_c, 0, 67, 0
2, 402, Note_on_c, 0, 79, 0
2, 403, Note_on_c, 0, 63, 0
2, 408, Note_on_c, 0, 57, 0
2, 411, Note_on_c, 0, 86, 0
2, 414, Note_on_c, 0, 91, 0
2, 474, Control_c, 0, 64, 0
2, 478, Note_on_c, 0, 89, 38
2, 479, Note_on_c, 0, 55, 50
2, 479, Note_on_c, 0, 84, 62
2, 481, Note_on_c, 0, 93, 58
2, 481, Note_on_c, 0, 65, 35
2, 481, Note_on_c, 0, 61, 35
2, 484, Note_on_c, 0, 81, 37
2, 492, Note_on_c, 0, 65, 0
2, 493, Control_c, 0, 64, 127
2, 500, Note_on_c, 0, 61, 0
2, 503, Note_on_c, 0, 55, 0
2, 506, Note_on_c, 0, 93, 0
2, 511, Note_on_c, 0, 89, 0
2, 512, Note_on_c, 0, 84, 0
2, 514, Note_on_c, 0, 81, 0
2, 545, Note_on_c, 0, 39, 46
2, 572, Note_on_c, 0, 46, 60
2, 573, Note_on_c, 0, 39, 0
2, 600, Note_on_c, 0, 46, 0
2, 605, Note_on_c, 0, 61, 74
2, 606, Note_on_c, 0, 69, 65
2, 607, Note_on_c, 0, 65, 70
2, 608, Note_on_c, 0, 55, 51
2, 621, Note_on_c, 0, 55, 0
2, 640, Note_on_c, 0, 57, 85
2, 661, Note_on_c, 0, 65, 0
2, 663, Note_on_c, 0, 69, 0
2, 664, Note_on_c, 0, 61, 0
2, 672, Note_on_c, 0, 58, 70
2, 673, Note_on_c, 0, 61, 69
2, 674, Note_on_c, 0, 57, 0
2, 674, Note_on_c, 0, 65, 55
2, 676, Note_on_c, 0, 69, 64
2, 683, Control_c, 0, 64, 0
2, 697, Control_c, 0, 64, 127
2, 706, Note_on_c, 0, 58, 0
2, 707, Note_on_c, 0, 60, 62
2, 725, Control_c, 0, 64, 0
2, 729, Note_on_c, 0, 60, 0
2, 736, Note_on_c, 0, 58, 47
2, 746, Control_c, 0, 64, 127
2, 801, Note_on_c, 0, 65, 0
2, 808, Note_on_c, 0, 61, 0
2, 820, Note_on_c, 0, 69, 0
2, 844, Note_on_c, 0, 58, 0
2, 845, Note_on_c, 0, 57, 41
2, 845, Note_on_c, 0, 61, 33
2, 847, Note_on_c, 0, 65, 36
2, 856, Note_on_c, 0, 65, 0
2, 866, Note_on_c, 0, 57, 0
2, 874, Note_on_c, 0, 61, 0
2, 889, Note_on_c, 0, 67, 55
2, 917, Note_on_c, 0, 67, 0
2, 923, Note_on_c, 0, 65, 49
2, 948, Note_on_c, 0, 65, 0
2, 964, Note_on_c, 0, 57, 47
2, 964, Note_on_c, 0, 62, 39
2, 965, Control_c, 0, 64, 0
2, 965, Note_on_c, 0, 41, 36
2, 966, Note_on_c, 0, 51, 25
2, 988, Control_c, 0, 64, 127
2, 1024, Note_on_c, 0, 57, 0
2, 1043, Note_on_c, 0, 41, 0
2, 1057, Note_on_c, 0, 51, 0
2, 1063, Note_on_c, 0, 62, 0
2, 1151, Control_c, 0, 64, 0
2, 1153, Note_on_c, 0, 56, 71
2, 1153, Note_on_c, 0, 65, 66
2, 1153, Note_on_c, 0, 62, 65
2, 1154, Note_on_c, 0, 46, 52
2, 1168, Control_c, 0, 64, 127
2, 1174, Note_on_c, 0, 46, 0
2, 1179, Note_on_c, 0, 62, 0
2, 1179, Note_on_c, 0, 56, 0
2, 1202, Note_on_c, 0, 65, 0
2, 1220, Note_on_c, 0, 67, 61
2, 1221, Note_on_c, 0, 61, 60
2, 1221, Note_on_c, 0, 64, 62
2, 1221, Note_on_c, 0, 58, 58
2, 1221, Control_c, 0, 64, 0
2, 1222, Note_on_c, 0, 45, 33
2, 1222, Note_on_c, 0, 55, 42
2, 1243, Control_c, 0, 64, 127
2, 1272, Note_on_c, 0, 58, 0
2, 1275, Note_on_c, 0, 67, 0
2, 1277, Note_on_c, 0, 64, 0
2, 1281, Note_on_c, 0, 61, 0
2, 1283, Note_on_c, 0, 45, 0
2, 1284, Note_on_c, 0, 55, 0
2, 1335, Note_on_c, 0, 70, 56
2, 1338, Control_c, 0, 64, 0
2, 1338, Note_on_c, 0, 65, 49
2, 1340, Note_on_c, 0, 54, 27
2, 1340, Note_on_c, 0, 44, 32
2, 1341, Note_on_c, 0, 60, 32
2, 1365, Control_c, 0, 64, 127
2, 1396, Note_on_c, 0, 54, 0
2, 1398, Note_on_c, 0, 44, 0
2, 1399, Note_on_c, 0, 65, 0
2, 1400, Note_on_c, 0, 70, 0
2, 1410, Note_on_c, 0, 60, 0
2, 1439, Control_c, 0, 64, 0
2, 1446, Note_on_c, 0, 43, 39
2, 1450, Note_on_c, 0, 64, 33
2, 1450, Note_on_c, 0, 69, 40
2, 1452, Note_on_c, 0, 59, 24
2, 1454, Note_on_c, 0, 53, 13
2, 1459, Control_c, 0, 64, 127
2, 1470, Note_on_c, 0, 59, 0
2, 1471, Note_on_c, 0, 43, 0
2, 1480, Note_on_c, 0, 53, 0
2, 1485, Note_on_c, 0, 64, 0
2, 1488, Note_on_c, 0, 69, 0
2, 1564, Note_on_c, 0, 65, 31
2, 1566, Control_c, 0, 64, 0
2, 1566, Note_on_c, 0, 60, 37
2, 1566, Note_on_c, 0, 54, 30
2, 1576, Control_c, 0, 64, 127
2, 1596, Note_on_c, 0, 69, 39
2, 1604, Note_on_c, 0, 69, 0
2, 1622, Note_on_c, 0, 73, 52
2, 1627, Note_on_c, 0, 73, 0
2, 1636, Note_on_c, 0, 60, 0
2, 1639, Note_on_c, 0, 65, 0
2, 1649, Note_on_c, 0, 76, 59
2, 1663, Note_on_c, 0, 76, 0
2, 1666, Note_on_c, 0, 54, 0
2, 1675, Control_c, 0, 64, 0
2, 1676, Note_on_c, 0, 88, 76
2, 1676, Note_on_c, 0, 81, 71
2, 1679, Note_on_c, 0, 64, 34
2, 1680, Note_on_c, 0, 53, 36
2, 1682, Note_on_c, 0, 59, 34
2, 1693, Control_c, 0, 64, 127
2, 1695, Note_on_c, 0, 88, 0
2, 1701, Note_on_c, 0, 64, 0
2, 1703, Note_on_c, 0, 59, 0
2, 1709, Note_on_c, 0, 81, 0
2, 1713, Note_on_c, 0, 53, 0
2, 1714, Note_on_c, 0, 85, 43
2, 1728, Note_on_c, 0, 85, 0
2, 1741, Note_on_c, 0, 86, 55
2, 1744, Note_on_c, 0, 81, 58
2, 1790, Note_on_c, 0, 81, 0
2, 1793, Control_c, 0, 64, 0
2, 1796, Note_on_c, 0, 86, 0
2, 1796, Note_on_c, 0, 43, 42
2, 1798, Note_on_c, 0, 53, 33
2, 1802, Control_c, 0, 64, 127
2, 1855, Note_on_c, 0, 43, 0
2, 1862, Note_on_c, 0, 53, 0
2, 1877, Note_on_c, 0, 43, 30
2, 1885, Note_on_c, 0, 43, 0
2, 1923, Note_on_c, 0, 74, 85
2, 1923, Note_on_c, 0, 63, 81
2, 1924, Control_c, 0, 64, 0
2, 1924, Note_on_c, 0, 67, 77
2, 1925, Note_on_c, 0, 70, 74
2, 1926, Note_on_c, 0, 36, 68
2, 1928, Note_on_c, 0, 24, 64
2, 1956, Control_c, 0, 64, 127
2, 2000, Note_on_c, 0, 74, 0
2, 2007, Note_on_c, 0, 67, 0
2, 2017, Note_on_c, 0, 63, 0
2, 2021, Note_on_c, 0, 24, 0
2, 2024, Note_on_c, 0, 70, 0
2, 2034, Note_on_c, 0, 36, 0
2, 2054, Note_on_c, 0, 65, 50
2, 2056, Note_on_c, 0, 72, 51
2, 2056, Note_on_c, 0, 69, 50
2, 2057, Note_on_c, 0, 38, 48
2, 2057, Note_on_c, 0, 26, 44
2, 2058, Control_c, 0, 64, 0
2, 2059, Note_on_c, 0, 60, 36
2, 2084, Control_c, 0, 64, 127
2, 2101, Note_on_c, 0, 69, 0
2, 2108, Note_on_c, 0, 72, 0
2, 2120, Note_on_c, 0, 65, 0
2, 2128, Note_on_c, 0, 60, 0
2, 2131, Note_on_c, 0, 26, 0
2, 2139, Note_on_c, 0, 38, 0
2, 2175, Control_c, 0, 64, 0
2, 2175, Note_on_c, 0, 70, 42
2, 2176, Note_on_c, 0, 58, 30
2, 2177, Note_on_c, 0, 63, 42
2, 2178, Note_on_c, 0, 39, 35
2, 2179, Note_on_c, 0, 67, 36
2, 2182, Note_on_c, 0, 27, 27
2, 2197, Control_c, 0, 64, 127
2, 2221, Note_on_c, 0, 67, 0
2, 2229, Note_on_c, 0, 70, 0
2, 2237, Note_on_c, 0, 27, 0
2, 2240, Note_on_c, 0, 63, 0
2, 2241, Note_on_c, 0, 58, 0
2, 2244, Note_on_c, 0, 39, 0
2, 2290, Control_c, 0, 64, 0
2, 2290, Note_on_c, 0, 58, 32
2, 2291, Note_on_c, 0, 67, 33
2, 2291, Note_on_c, 0, 40, 30
2, 2292, Note_on_c, 0, 61, 37
2, 2292, Note_on_c, 0, 64, 34
2, 2292, Note_on_c, 0, 28, 31
2, 2314, Control_c, 0, 64, 127
2, 2339, Note_on_c, 0, 64, 0
2, 2339, Note_on_c, 0, 67, 0
2, 2344, Note_on_c, 0, 28, 0
2, 2351, Note_on_c, 0, 58, 0
2, 2361, Note_on_c, 0, 61, 0
2, 2363, Note_on_c, 0, 40, 0
2, 2418, Note_on_c, 0, 63, 29
2, 2418, Control_c, 0, 64, 0
2, 2419, Note_on_c, 0, 58, 33
2, 2420, Note_on_c, 0, 65, 38
2, 2420, Note_on_c, 0, 55, 28
2, 2421, Note_on_c, 0, 41, 29
2, 2426, Note_on_c, 0, 29, 19
2, 2446, Control_c, 0, 64, 127
2, 2476, Note_on_c, 0, 58, 0
2, 2490, Note_on_c, 0, 55, 0
2, 2530, Note_on_c, 0, 63, 0
2, 2531, Note_on_c, 0, 65, 0
2, 2535, Note_on_c, 0, 60, 50
2, 2546, Control_c, 0, 64, 0
2, 2546, Note_on_c, 0, 61, 49
2, 2556, Note_on_c, 0, 60, 0
2, 2557, Note_on_c, 0, 61, 0
2, 2558, Note_on_c, 0, 62, 58
2, 2572, Note_on_c, 0, 62, 0
2, 2585, Note_on_c, 0, 65, 81
2, 2600, Control_c, 0, 64, 127
2, 2608, Note_on_c, 0, 29, 0
2, 2618, Note_on_c, 0, 41, 0
2, 2666, Note_on_c, 0, 60, 44
2, 2668, Note_on_c, 0, 58, 34
2, 2670, Note_on_c, 0, 53, 45
2, 2672, Control_c, 0, 64, 0
2, 2715, Control_c, 0, 64, 127
2, 2752, Note_on_c, 0, 58, 0
2, 2755, Note_on_c, 0, 53, 0
2, 2759, Note_on_c, 0, 60, 0
2, 2783, Note_on_c, 0, 63, 29
2, 2784, Note_on_c, 0, 57, 46
2, 2785, Note_on_c, 0, 61, 47
2, 2786, Note_on_c, 0, 53, 29
2, 2790, Control_c, 0, 64, 0
2, 2816, Control_c, 0, 64, 127
2, 2849, Note_on_c, 0, 57, 0
2, 2852, Note_on_c, 0, 53, 0
2, 2863, Note_on_c, 0, 45, 22
2, 2865, Note_on_c, 0, 61, 0
2, 2868, Note_on_c, 0, 45, 0
2, 2886, Note_on_c, 0, 63, 0
2, 2887, Note_on_c, 0, 65, 0
2, 2902, Note_on_c, 0, 46, 42
2, 2903, Note_on_c, 0, 62, 33
2, 2903, Note_on_c, 0, 58, 25
2, 2905, Control_c, 0, 64, 0
2, 2907, Note_on_c, 0, 53, 19
2, 2934, Control_c, 0, 64, 127
2, 2963, Note_on_c, 0, 53, 0
2, 2967, Note_on_c, 0, 34, 43
2, 2974, Note_on_c, 0, 62, 0
2, 2978, Note_on_c, 0, 58, 0
2, 2979, Note_on_c, 0, 34, 0
2, 2980, Note_on_c, 0, 46, 0
2, 3073, Control_c, 0, 64, 0
2, 3075, Note_on_c, 0, 82, 70
2, 3075, Note_on_c, 0, 88, 71
2, 3076, Note_on_c, 0, 62, 48
2, 3076, Note_on_c, 0, 76, 62
2, 3077, Note_on_c, 0, 66, 50
2, 3077, Note_on_c, 0, 56, 48
2, 3093, Control_c, 0, 64, 127
2, 3096, Note_on_c, 0, 62, 0
2, 3099, Note_on_c, 0, 83, 37
2, 3101, Note_on_c, 0, 82, 0
2, 3102, Note_on_c, 0, 76, 0
2, 3106, Note_on_c, 0, 88, 0
2, 3108, Note_on_c, 0, 66, 0
2, 3109, Note_on_c, 0, 83, 0
2, 3113, Note_on_c, 0, 56, 0
2, 3126, Note_on_c, 0, 87, 64
2, 3127, Control_c, 0, 64, 0
2, 3127, Note_on_c, 0, 55, 49
2, 3127, Note_on_c, 0, 75, 50
2, 3128, Note_on_c, 0, 82, 53
2, 3130, Note_on_c, 0, 65, 34
2, 3130, Note_on_c, 0, 61, 37
2, 3152, Control_c, 0, 64, 127
2, 3302, Note_on_c, 0, 55, 0
2, 3305, Note_on_c, 0, 61, 0
2, 3309, Note_on_c, 0, 65, 0
2, 3310, Note_on_c, 0, 82, 0
2, 3310, Note_on_c, 0, 75, 0
2, 3313, Note_on_c, 0, 87, 0
2, 3359, Note_on_c, 0, 89, 58
2, 3359, Control_c, 0, 64, 0
2, 3360, Note_on_c, 0, 65, 42
2, 3360, Note_on_c, 0, 77, 44
2, 3361, Note_on_c, 0, 84, 51
2, 3364, Note_on_c, 0, 62, 29
2, 3366, Note_on_c, 0, 60, 33
2, 3379, Control_c, 0, 64, 127
2, 3383, Note_on_c, 0, 65, 0
2, 3403, Note_on_c, 0, 89, 0
2, 3405, Note_on_c, 0, 84, 0
2, 3425, Note_on_c, 0, 77, 0
2, 3485, Note_on_c, 0, 53, 25
2, 3491, Note_on_c, 0, 60, 0
2, 3491, Note_on_c, 0, 62, 0
2, 3539, Note_on_c, 0, 53, 0
2, 3606, Note_on_c, 0, 63, 51
2, 3609, Note_on_c, 0, 56, 43
2, 3611, Note_on_c, 0, 59, 48
2, 3611, Note_on_c, 0, 52, 40
2, 3612, Control_c, 0, 64, 0
2, 3613, Note_on_c, 0, 42, 38
2, 3633, Control_c, 0, 64, 127
2, 3636, Note_on_c, 0, 52, 0
2, 3644, Note_on_c, 0, 59, 0
2, 3645, Note_on_c, 0, 56, 0
2, 3650, Note_on_c, 0, 63, 0
2, 3667, Note_on_c, 0, 42, 0
2, 3669, Note_on_c, 0, 30, 61
2, 3679, Note_on_c, 0, 30, 0
2, 3728, Note_on_c, 0, 75, 72
2, 3729, Note_on_c, 0, 68, 78
2, 3729, Note_on_c, 0, 71, 74
2, 3732, Note_on_c, 0, 64, 77
2, 3765, Note_on_c, 0, 64, 0
2, 3786, Note_on_c, 0, 66, 59
2, 3802, Note_on_c, 0, 66, 0
2, 3806, Note_on_c, 0, 71, 0
2, 3829, Note_on_c, 0, 75, 0
2, 3833, Note_on_c, 0, 68, 0
2, 3848, Note_on_c, 0, 74, 59
2, 3850, Note_on_c, 0, 67, 54
2, 3852, Control_c, 0, 64, 0
2, 3853, Note_on_c, 0, 62, 48
2, 3853, Note_on_c, 0, 63, 30
2, 3877, Control_c, 0, 64, 127
2, 3898, Note_on_c, 0, 63, 0
2, 3902, Note_on_c, 0, 67, 0
2, 3911, Note_on_c, 0, 74, 0
2, 3911, Note_on_c, 0, 53, 43
2, 3918, Note_on_c, 0, 62, 0
2, 3970, Note_on_c, 0, 74, 91
2, 3975, Note_on_c, 0, 63, 27
2, 3986, Note_on_c, 0, 63, 0
2, 4009, Note_on_c, 0, 74, 0
2, 4027, Note_on_c, 0, 63, 53
2, 4028, Note_on_c, 0, 79, 92
2, 4029, Note_on_c, 0, 67, 60
2, 4078, Note_on_c, 0, 67, 0
2, 4079, Note_on_c, 0, 79, 0
2, 4090, Note_on_c, 0, 77, 69
2, 4092, Note_on_c, 0, 67, 41
2, 4095, Note_on_c, 0, 63, 0
2, 4109, Note_on_c, 0, 53, 0
2, 4145, Note_on_c, 0, 67, 0
2, 4148, Note_on_c, 0, 53, 51
2, 4183, Note_on_c, 0, 77, 0
2, 4208, Note_on_c, 0, 75, 59
2, 4208, Note_on_c, 0, 79, 59
2, 4212, Note_on_c, 0, 72, 49
2, 4213, Note_on_c, 0, 63, 19
2, 4240, Note_on_c, 0, 63, 0
2, 4250, Note_on_c, 0, 53, 0
2, 4258, Note_on_c, 0, 72, 0
2, 4265, Note_on_c, 0, 75, 0
2, 4265, Note_on_c, 0, 53, 44
2, 4267, Note_on_c, 0, 79, 0
2, 4282, Note_on_c, 0, 53, 0
2, 4318, Note_on_c, 0, 55, 25
2, 4321, Note_on_c, 0, 60, 39
2, 4328, Note_on_c, 0, 84, 62
2, 4329, Note_on_c, 0, 61, 34
2, 4329, Control_c, 0, 64, 0
2, 4331, Note_on_c, 0, 65, 55
2, 4331, Note_on_c, 0, 81, 58
2, 4332, Note_on_c, 0, 77, 62
2, 4337, Note_on_c, 0, 73, 35
2, 4357, Control_c, 0, 64, 127
2, 4362, Note_on_c, 0, 65, 0
2, 4366, Note_on_c, 0, 60, 0
2, 4367, Note_on_c, 0, 61, 0
2, 4371, Note_on_c, 0, 55, 0
2, 4398, Note_on_c, 0, 84, 0
2, 4402, Note_on_c, 0, 81, 0
2, 4405, Note_on_c, 0, 77, 0
2, 4410, Note_on_c, 0, 73, 0
2, 4411, Note_on_c, 0, 39, 37
2, 4447, Note_on_c, 0, 39, 0
2, 4450, Note_on_c, 0, 46, 50
2, 4472, Note_on_c, 0, 46, 0
2, 4478, Note_on_c, 0, 55, 67
2, 4495, Note_on_c, 0, 55, 0
2, 4506, Note_on_c, 0, 57, 72
2, 4530, Note_on_c, 0, 57, 0
2, 4537, Note_on_c, 0, 58, 68
2, 4558, Note_on_c, 0, 58, 0
2, 4571, Note_on_c, 0, 61, 51
2, 4572, Note_on_c, 0, 65, 58
2, 4573, Note_on_c, 0, 69, 55
2, 4574, Control_c, 0, 64, 0
2, 4574, Note_on_c, 0, 60, 59
2, 4597, Control_c, 0, 64, 127
2, 4653, Note_on_c, 0, 65, 0
2, 4657, Note_on_c, 0, 61, 0
2, 4687, Note_on_c, 0, 60, 0
2, 4691, Note_on_c, 0, 69, 0
2, 4698, Note_on_c, 0, 61, 26
2, 4700, Note_on_c, 0, 65, 36
2, 4715, Note_on_c, 0, 65, 0
2, 4723, Note_on_c, 0, 61, 0
2, 4772, Note_on_c, 0, 42, 37
2, 4796, Note_on_c, 0, 42, 0
2, 4812, Control_c, 0, 64, 0
2, 4815, Note_on_c, 0, 62, 40
2, 4816, Note_on_c, 0, 57, 39
2, 4816, Note_on_c, 0, 50, 33
2, 4820, Note_on_c, 0, 41, 24
2, 4835, Control_c, 0, 64, 127
2, 4840, Note_on_c, 0, 41, 0
2, 4849, Note_on_c, 0, 50, 0
2, 4855, Note_on_c, 0, 57, 0
2, 4882, Note_on_c, 0, 62, 0
2, 4932, Note_on_c, 0, 60, 48
2, 4933, Note_on_c, 0, 57, 44
2, 4934, Note_on_c, 0, 53, 44
2, 4935, Note_on_c, 0, 65, 34
2, 4943, Note_on_c, 0, 57, 0
2, 4945, Note_on_c, 0, 53, 0
2, 4952, Note_on_c, 0, 60, 0
2, 4958, Note_on_c, 0, 65, 0
2, 5052, Note_on_c, 0, 66, 70
2, 5052, Note_on_c, 0, 55, 70
2, 5053, Note_on_c, 0, 61, 62
2, 5054, Note_on_c, 0, 86, 78
2, 5054, Note_on_c, 0, 91, 76
2, 5054, Note_on_c, 0, 79, 69
2, 5056, Control_c, 0, 64, 0
2, 5079, Control_c, 0, 64, 127
2, 5120, Note_on_c, 0, 79, 0
2, 5124, Note_on_c, 0, 55, 0
2, 5125, Note_on_c, 0, 86, 0
2, 5125, Note_on_c, 0, 91, 0
2, 5128, Note_on_c, 0, 66, 0
2, 5159, Note_on_c, 0, 61, 0
2, 5177, Note_on_c, 0, 94, 67
2, 5178, Note_on_c, 0, 82, 51
2, 5179, Control_c, 0, 64, 0
2, 5179, Note_on_c, 0, 60, 49
2, 5179, Note_on_c, 0, 65, 53
2, 5181, Note_on_c, 0, 89, 54
2, 5181, Note_on_c, 0, 54, 37
2, 5206, Control_c, 0, 64, 127
2, 5239, Note_on_c, 0, 60, 0
2, 5243, Note_on_c, 0, 65, 0
2, 5244, Note_on_c, 0, 89, 0
2, 5247, Note_on_c, 0, 82, 0
2, 5248, Note_on_c, 0, 94, 0
2, 5253, Note_on_c, 0, 54, 0
2, 5294, Control_c, 0, 64, 0
2, 5296, Note_on_c, 0, 93, 50
2, 5298, Note_on_c, 0, 64, 37
2, 5298, Note_on_c, 0, 88, 36
2, 5299, Note_on_c, 0, 81, 33
2, 5301, Note_on_c, 0, 59, 39
2, 5302, Note_on_c, 0, 53, 34
2, 5316, Control_c, 0, 64, 127
2, 5322, Note_on_c, 0, 93, 0
2, 5326, Note_on_c, 0, 88, 0
2, 5330, Note_on_c, 0, 64, 0
2, 5333, Note_on_c, 0, 81, 0
2, 5335, Note_on_c, 0, 59, 0
2, 5346, Note_on_c, 0, 53, 0
2, 5375, Note_on_c, 0, 60, 64
2, 5409, Note_on_c, 0, 60, 0
2, 5418, Note_on_c, 0, 60, 24
2, 5418, Note_on_c, 0, 57, 46
2, 5422, Note_on_c, 0, 53, 30
2, 5423, Control_c, 0, 64, 0
2, 5438, Note_on_c, 0, 53, 0
2, 5438, Note_on_c, 0, 60, 0
2, 5445, Control_c, 0, 64, 127
2, 5485, Note_on_c, 0, 57, 0
2, 5488, Control_c, 0, 64, 0
2, 5493, Control_c, 0, 64, 127
2, 5494, Note_on_c, 0, 58, 35
2, 5531, Note_on_c, 0, 58, 0
2, 5535, Control_c, 0, 64, 0
2, 5536, Note_on_c, 0, 59, 50
2, 5537, Note_on_c, 0, 53, 31
2, 5539, Note_on_c, 0, 31, 28
2, 5541, Note_on_c, 0, 43, 15
2, 5552, Note_on_c, 0, 43, 0
2, 5555, Note_on_c, 0, 31, 0
2, 5561, Control_c, 0, 64, 127
2, 5583, Note_on_c, 0, 53, 0
2, 5603, Note_on_c, 0, 59, 0
2, 5653, Note_on_c, 0, 43, 41
2, 5653, Note_on_c, 0, 53, 36
2, 5668, Note_on_c, 0, 53, 0
2, 5697, Note_on_c, 0, 43, 0
2, 5766, Control_c, 0, 64, 0
2, 5766, Note_on_c, 0, 36, 58
2, 5766, Note_on_c, 0, 63, 76
2, 5766, Note_on_c, 0, 24, 55
2, 5767, Note_on_c, 0, 74, 80
2, 5767, Note_on_c, 0, 67, 74
2, 5768, Note_on_c, 0, 70, 64
2, 5792, Control_c, 0, 64, 127
2, 5820, Note_on_c, 0, 70, 0
2, 5834, Note_on_c, 0, 67, 0
2, 5843, Note_on_c, 0, 24, 0
2, 5843, Note_on_c, 0, 63, 0
2, 5843, Note_on_c, 0, 72, 59
2, 5848, Note_on_c, 0, 70, 62
2, 5849, Note_on_c, 0, 74, 0
2, 5858, Note_on_c, 0, 36, 0
2, 5858, Note_on_c, 0, 24, 34
2, 5859, Note_on_c, 0, 72, 0
2, 5865, Note_on_c, 0, 63, 43
2, 5867, Note_on_c, 0, 36, 14
2, 5872, Note_on_c, 0, 24, 0
2, 5874, Note_on_c, 0, 70, 0
2, 5874, Note_on_c, 0, 63, 0
2, 5875, Note_on_c, 0, 36, 0
2, 5887, Note_on_c, 0, 72, 71
2, 5887, Note_on_c, 0, 69, 66
2, 5888, Note_on_c, 0, 60, 65
2, 5888, Note_on_c, 0, 38, 73
2, 5889, Note_on_c, 0, 65, 63
2, 5890, Note_on_c, 0, 26, 56
2, 5890, Control_c, 0, 64, 0
2, 5892, Note_on_c, 0, 62, 26
2, 5896, Note_on_c, 0, 62, 0
2, 5920, Control_c, 0, 64, 127
2, 5936, Note_on_c, 0, 69, 0
2, 5953, Note_on_c, 0, 65, 0
2, 5962, Note_on_c, 0, 60, 0
2, 5972, Note_on_c, 0, 69, 39
2, 5979, Note_on_c, 0, 72, 0
2, 5981, Note_on_c, 0, 69, 0
2, 5981, Note_on_c, 0, 65, 33
2, 5989, Note_on_c, 0, 26, 0
2, 5990, Note_on_c, 0, 65, 0
2, 5991, Note_on_c, 0, 38, 0
2, 5993, Note_on_c, 0, 60, 20
2, 5998, Note_on_c, 0, 60, 0
2, 6009, Note_on_c, 0, 61, 59
2, 6009, Note_on_c, 0, 70, 63
2, 6010, Note_on_c, 0, 39, 63
2, 6011, Note_on_c, 0, 27, 59
2, 6012, Control_c, 0, 64, 0
2, 6013, Note_on_c, 0, 67, 44
2, 6048, Control_c, 0, 64, 127
2, 6084, Note_on_c, 0, 67, 0
2, 6090, Note_on_c, 0, 27, 0
2, 6091, Note_on_c, 0, 70, 0
2, 6103, Note_on_c, 0, 61, 0
2, 6107, Note_on_c, 0, 27, 46
2, 6126, Note_on_c, 0, 27, 0
2, 6126, Note_on_c, 0, 39, 0
2, 6135, Note_on_c, 0, 58, 36
2, 6135, Note_on_c, 0, 64, 45
2, 6136, Note_on_c, 0, 40, 54
2, 6136, Control_c, 0, 64, 0
2, 6137, Note_on_c, 0, 61, 40
2, 6137, Note_on_c, 0, 28, 35
2, 6138, Note_on_c, 0, 67, 29
2, 6166, Control_c, 0, 64, 127
2, 6177, Note_on_c, 0, 67, 0
2, 6183, Note_on_c, 0, 64, 0
2, 6196, Note_on_c, 0, 58, 0
2, 6198, Note_on_c, 0, 61, 0
2, 6198, Note_on_c, 0, 28, 0
2, 6213, Note_on_c, 0, 40, 0
2, 6251, Note_on_c, 0, 63, 35
2, 6252, Note_on_c, 0, 58, 36
2, 6252, Control_c, 0, 64, 0
2, 6253, Note_on_c, 0, 41, 39
2, 6255, Note_on_c, 0, 55, 32
2, 6256, Note_on_c, 0, 65, 37
2, 6257, Note_on_c, 0, 29, 22
2, 6285, Control_c, 0, 64, 127
2, 6304, Note_on_c, 0, 55, 0
2, 6311, Note_on_c, 0, 58, 0
2, 6339, Note_on_c, 0, 41, 0
2, 6375, Note_on_c, 0, 41, 40
2, 6411, Note_on_c, 0, 63, 0
2, 6413, Note_on_c, 0, 65, 0
2, 6418, Note_on_c, 0, 60, 38
2, 6423, Note_on_c, 0, 61, 55
2, 6425, Note_on_c, 0, 41, 0
2, 6431, Note_on_c, 0, 29, 0
2, 6432, Note_on_c, 0, 60, 0
2, 6435, Note_on_c, 0, 61, 0
2, 6438, Note_on_c, 0, 62, 35
2, 6447, Note_on_c, 0, 62, 0
2, 6456, Control_c, 0, 64, 0
2, 6462, Note_on_c, 0, 65, 82
2, 6469, Control_c, 0, 64, 127
2, 6507, Control_c, 0, 64, 0
2, 6507, Note_on_c, 0, 41, 37
2, 6509, Note_on_c, 0, 61, 55
2, 6518, Note_on_c, 0, 61, 0
2, 6522, Note_on_c, 0, 60, 53
2, 6536, Note_on_c, 0, 60, 0
2, 6544, Note_on_c, 0, 58, 47
2, 6586, Control_c, 0, 64, 127
2, 6611, Note_on_c, 0, 41, 0
2, 6694, Note_on_c, 0, 58, 0
2, 6701, Note_on_c, 0, 57, 10
2, 6716, Note_on_c, 0, 57, 0
2, 6730, Note_on_c, 0, 46, 48
2, 6732, Note_on_c, 0, 58, 32
2, 6734, Control_c, 0, 64, 0
2, 6754, Control_c, 0, 64, 127
2, 6779, Note_on_c, 0, 58, 0
2, 6780, Note_on_c, 0, 65, 0
2, 6851, Note_on_c, 0, 70, 49
2, 6854, Note_on_c, 0, 65, 42
2, 6855, Note_on_c, 0, 55, 34
2, 6855, Note_on_c, 0, 60, 30
2, 6953, Note_on_c, 0, 55, 0
2, 6961, Note_on_c, 0, 65, 0
2, 6963, Note_on_c, 0, 60, 0
2, 6965, Note_on_c, 0, 70, 0
2, 6969, Note_on_c, 0, 46, 0
2, 7037, Note_on_c, 0, 65, 45
2, 7039, Note_on_c, 0, 55, 42
2, 7039, Note_on_c, 0, 60, 50
2, 7040, Note_on_c, 0, 39, 32
2, 7040, Note_on_c, 0, 61, 36
2, 7041, Note_on_c, 0, 27, 30
2, 7048, Control_c, 0, 64, 0
2, 7072, Control_c, 0, 64, 127
2, 7108, Note_on_c, 0, 39, 0
2, 7115, Note_on_c, 0, 27, 0
2, 7127, Note_on_c, 0, 60, 0
2, 7135, Note_on_c, 0, 65, 0
2, 7138, Note_on_c, 0, 55, 0
2, 7141, Note_on_c, 0, 61, 0
2, 7199, Control_c, 0, 64, 0
2, 7201, Note_on_c, 0, 62, 32
2, 7201, Note_on_c, 0, 58, 32
2, 7203, Note_on_c, 0, 22, 28
2, 7204, Note_on_c, 0, 34, 21
2, 7222, Note_on_c, 0, 53, 1
2, 7227, Control_c, 0, 64, 127
2, 7258, Note_on_c, 0, 53, 0
2, 7293, Note_on_c, 0, 58, 0
2, 7298, Note_on_c, 0, 34, 0
2, 7332, Note_on_c, 0, 58, 30
2, 7336, Note_on_c, 0, 53, 17
2, 7341, Note_on_c, 0, 34, 20
2, 7343, Note_on_c, 0, 22, 0
2, 7353, Note_on_c, 0, 34, 0
2, 7363, Note_on_c, 0, 53, 0
2, 7422, Note_on_c, 0, 58, 0
2, 7436, Note_on_c, 0, 62, 0
2, 7452, Note_on_c, 0, 58, 43
2, 7456, Note_on_c, 0, 53, 34
2, 7463, Note_on_c, 0, 53, 0
2, 7479, Note_on_c, 0, 58, 0
2, 7569, Note_on_c, 0, 87, 78
2, 7569, Note_on_c, 0, 60, 54
2, 7570, Note_on_c, 0, 61, 37
2, 7570, Note_on_c, 0, 65, 63
2, 7570, Note_on_c, 0, 55, 64
2, 7571, Note_on_c, 0, 75, 78
2, 7572, Control_c, 0, 64, 0
2, 7572, Note_on_c, 0, 82, 70
2, 7575, Note_on_c, 0, 58, 28
2, 7596, Control_c, 0, 64, 127
2, 7638, Note_on_c, 0, 65, 0
2, 7641, Note_on_c, 0, 60, 0
2, 7642, Note_on_c, 0, 75, 0
2, 7643, Note_on_c, 0, 87, 0
2, 7646, Note_on_c, 0, 61, 0
2, 7647, Note_on_c, 0, 82, 0
2, 7647, Note_on_c, 0, 55, 0
2, 7652, Note_on_c, 0, 58, 0
2, 7695, Control_c, 0, 64, 0
2, 7696, Note_on_c, 0, 86, 48
2, 7698, Note_on_c, 0, 74, 34
2, 7699, Note_on_c, 0, 81, 48
2, 7701, Note_on_c, 0, 64, 26
2, 7701, Note_on_c, 0, 60, 31
2, 7701, Note_on_c, 0, 54, 25
2, 7718, Control_c, 0, 64, 127
2, 7729, Note_on_c, 0, 86, 0
2, 7731, Note_on_c, 0, 64, 0
2, 7732, Note_on_c, 0, 81, 0
2, 7733, Note_on_c, 0, 60, 0
2, 7742, Note_on_c, 0, 74, 0
2, 7743, Note_on_c, 0, 54, 0
2, 7815, Note_on_c, 0, 60, 27
2, 7816, Note_on_c, 0, 50, 32
2, 7817, Note_on_c, 0, 54, 29
2, 7827, Note_on_c, 0, 60, 0
2, 7838, Note_on_c, 0, 54, 0
2, 7838, Note_on_c, 0, 50, 0
2, 7894, Note_on_c, 0, 74, 89
2, 7925, Note_on_c, 0, 74, 0
2, 7933, Control_c, 0, 64, 0
2, 7937, Note_on_c, 0, 39, 39
2, 7937, Note_on_c, 0, 46, 39
2, 7938, Note_on_c, 0, 75, 69
2, 7951, Control_c, 0, 64, 127
2, 7960, Note_on_c, 0, 39, 0
2, 7962, Note_on_c, 0, 46, 0
2, 8049, Note_on_c, 0, 75, 0
2, 8049, Note_on_c, 0, 65, 34
2, 8049, Note_on_c, 0, 61, 36
2, 8051, Note_on_c, 0, 55, 32
2, 8107, Note_on_c, 0, 65, 0
2, 8126, Note_on_c, 0, 55, 0
2, 8127, Note_on_c, 0, 69, 54
2, 8137, Note_on_c, 0, 69, 0
2, 8144, Note_on_c, 0, 61, 0
2, 8166, Note_on_c, 0, 71, 51
2, 8167, Note_on_c, 0, 74, 63
2, 8168, Note_on_c, 0, 68, 48
2, 8168, Control_c, 0, 64, 0
2, 8169, Note_on_c, 0, 60, 38
2, 8170, Note_on_c, 0, 64, 35
2, 8192, Control_c, 0, 64, 127
2, 8224, Note_on_c, 0, 64, 0
2, 8226, Note_on_c, 0, 71, 0
2, 8230, Note_on_c, 0, 60, 0
2, 8233, Note_on_c, 0, 74, 0
2, 8236, Note_on_c, 0, 68, 0
2, 8284, Note_on_c, 0, 60, 71
2, 8285, Note_on_c, 0, 74, 84
2, 8285, Note_on_c, 0, 70, 77
2, 8286, Note_on_c, 0, 65, 76
2, 8286, Control_c, 0, 64, 0
2, 8306, Control_c, 0, 64, 127
2, 8322, Note_on_c, 0, 65, 0
2, 8330, Note_on_c, 0, 74, 0
2, 8335, Note_on_c, 0, 70, 0
2, 8347, Note_on_c, 0, 60, 0
2, 8347, Control_c, 0, 64, 0
2, 8347, Note_on_c, 0, 63, 55
2, 8347, Note_on_c, 0, 72, 62
2, 8348, Note_on_c, 0, 68, 59
2, 8350, Note_on_c, 0, 58, 45
2, 8364, Control_c, 0, 64, 127
2, 8381, Note_on_c, 0, 72, 0
2, 8388, Note_on_c, 0, 68, 0
2, 8392, Note_on_c, 0, 63, 0
2, 8395, Note_on_c, 0, 58, 0
2, 8409, Note_on_c, 0, 56, 38
2, 8410, Note_on_c, 0, 70, 52
2, 8411, Note_on_c, 0, 61, 39
2, 8412, Note_on_c, 0, 66, 38
2, 8414, Control_c, 0, 64, 0
2, 8434, Control_c, 0, 64, 127
2, 8467, Note_on_c, 0, 56, 0
2, 8473, Note_on_c, 0, 56, 51
2, 8488, Note_on_c, 0, 54, 30
2, 8490, Note_on_c, 0, 66, 0
2, 8494, Note_on_c, 0, 54, 0
2, 8504, Note_on_c, 0, 61, 0
2, 8507, Note_on_c, 0, 70, 0
2, 8524, Note_on_c, 0, 56, 0
2, 8530, Note_on_c, 0, 60, 49
2, 8531, Note_on_c, 0, 69, 54
2, 8532, Note_on_c, 0, 55, 53
2, 8533, Note_on_c, 0, 65, 58
2, 8535, Control_c, 0, 64, 0
2, 8554, Control_c, 0, 64, 127
2, 8584, Note_on_c, 0, 60, 0
2, 8588, Note_on_c, 0, 44, 51
2, 8591, Note_on_c, 0, 65, 0
2, 8595, Note_on_c, 0, 69, 0
2, 8600, Note_on_c, 0, 55, 0
2, 8629, Note_on_c, 0, 44, 0
2, 8643, Control_c, 0, 64, 0
2, 8644, Note_on_c, 0, 72, 36
2, 8646, Note_on_c, 0, 65, 62
2, 8647, Note_on_c, 0, 43, 44
2, 8649, Note_on_c, 0, 53, 36
2, 8668, Control_c, 0, 64, 127
2, 8691, Note_on_c, 0, 53, 0
2, 8692, Note_on_c, 0, 43, 0
2, 8717, Note_on_c, 0, 65, 0
2, 8758, Note_on_c, 0, 72, 0
2, 8764, Note_on_c, 0, 58, 46
2, 8764, Note_on_c, 0, 65, 56
2, 8768, Control_c, 0, 64, 0
2, 8768, Note_on_c, 0, 57, 43
2, 8784, Control_c, 0, 64, 127
2, 8812, Note_on_c, 0, 58, 0
2, 8815, Note_on_c, 0, 65, 0
2, 8825, Note_on_c, 0, 57, 0
2, 8827, Note_on_c, 0, 70, 62
2, 8828, Note_on_c, 0, 56, 53
2, 8829, Note_on_c, 0, 65, 54
2, 8829, Note_on_c, 0, 58, 55
2, 8831, Control_c, 0, 64, 0
2, 8846, Control_c, 0, 64, 127
2, 8852, Note_on_c, 0, 65, 0
2, 8856, Note_on_c, 0, 70, 0
2, 8870, Note_on_c, 0, 58, 0
2, 8886, Note_on_c, 0, 56, 0
2, 8888, Note_on_c, 0, 58, 47
2, 8888, Control_c, 0, 64, 0
2, 8889, Note_on_c, 0, 69, 54
2, 8890, Note_on_c, 0, 55, 51
2, 8890, Note_on_c, 0, 62, 49
2, 8892, Note_on_c, 0, 65, 43
2, 8912, Control_c, 0, 64, 127
2, 8939, Control_c, 0, 64, 0
2, 8947, Note_on_c, 0, 54, 57
2, 8952, Note_on_c, 0, 55, 0
2, 8952, Control_c, 0, 64, 127
2, 8969, Note_on_c, 0, 65, 0
2, 8971, Note_on_c, 0, 62, 0
2, 8975, Note_on_c, 0, 58, 0
2, 8985, Note_on_c, 0, 69, 0
2, 8999, Control_c, 0, 64, 0
2, 9003, Note_on_c, 0, 58, 44
2, 9004, Note_on_c, 0, 54, 0
2, 9006, Note_on_c, 0, 62, 48
2, 9008, Note_on_c, 0, 67, 40
2, 9008, Note_on_c, 0, 53, 49
2, 9009, Note_on_c, 0, 65, 40
2, 9016, Note_on_c, 0, 53, 0
2, 9019, Control_c, 0, 64, 127
2, 9040, Note_on_c, 0, 67, 0
2, 9043, Note_on_c, 0, 65, 0
2, 9047, Note_on_c, 0, 62, 0
2, 9054, Note_on_c, 0, 58, 0
2, 9066, Note_on_c, 0, 45, 54
2, 9070, Note_on_c, 0, 45, 0
2, 9123, Control_c, 0, 64, 0
2, 9125, Note_on_c, 0, 62, 35
2, 9126, Note_on_c, 0, 58, 36
2, 9127, Note_on_c, 0, 36, 33
2, 9127, Note_on_c, 0, 24, 42
2, 9144, Note_on_c, 0, 24, 0
2, 9145, Control_c, 0, 64, 127
2, 9154, Note_on_c, 0, 62, 0
2, 9154, Note_on_c, 0, 58, 0
2, 9159, Note_on_c, 0, 36, 0
2, 9189, Note_on_c, 0, 74, 71
2, 9215, Note_on_c, 0, 74, 0
2, 9245, Note_on_c, 0, 66, 43
2, 9246, Note_on_c, 0, 74, 34
2, 9246, Note_on_c, 0, 62, 32
2, 9252, Note_on_c, 0, 58, 34
2, 9254, Note_on_c, 0, 62, 0
2, 9260, Note_on_c, 0, 66, 0
2, 9266, Note_on_c, 0, 74, 0
2, 9309, Note_on_c, 0, 86, 66
2, 9333, Note_on_c, 0, 58, 0
2, 9335, Note_on_c, 0, 86, 0
2, 9366, Note_on_c, 0, 86, 48
2, 9369, Note_on_c, 0, 74, 32
2, 9370, Note_on_c, 0, 82, 36
2, 9370, Note_on_c, 0, 79, 37
2, 9373, Note_on_c, 0, 64, 22
2, 9375, Note_on_c, 0, 58, 23
2, 9410, Note_on_c, 0, 58, 0
2, 9413, Note_on_c, 0, 79, 0
2, 9414, Note_on_c, 0, 74, 0
2, 9414, Note_on_c, 0, 64, 0
2, 9429, Note_on_c, 0, 74, 34
2, 9444, Note_on_c, 0, 74, 0
2, 9474, Note_on_c, 0, 82, 0
2, 9490, Note_on_c, 0, 58, 25
2, 9490, Note_on_c, 0, 74, 50
2, 9491, Control_c, 0, 64, 0
2, 9492, Note_on_c, 0, 78, 31
2, 9493, Note_on_c, 0, 62, 28
2, 9506, Note_on_c, 0, 86, 0
2, 9510, Control_c, 0, 64, 127
2, 9516, Note_on_c, 0, 78, 0
2, 9517, Note_on_c, 0, 74, 0
2, 9535, Note_on_c, 0, 62, 0
2, 9551, Note_on_c, 0, 52, 50
2, 9552, Note_on_c, 0, 58, 0
2, 9557, Note_on_c, 0, 52, 0
2, 9614, Note_on_c, 0, 69, 46
2, 9615, Note_on_c, 0, 63, 42
2, 9616, Control_c, 0, 64, 0
2, 9616, Note_on_c, 0, 60, 34
2, 9617, Note_on_c, 0, 41, 33
2, 9618, Note_on_c, 0, 65, 33
2, 9619, Note_on_c, 0, 51, 25
2, 9638, Control_c, 0, 64, 127
2, 9676, Note_on_c, 0, 60, 0
2, 9691, Note_on_c, 0, 63, 0
2, 9691, Note_on_c, 0, 65, 0
2, 9691, Note_on_c, 0, 51, 0
2, 9726, Note_on_c, 0, 69, 0
2, 9735, Note_on_c, 0, 41, 0
2, 9740, Note_on_c, 0, 63, 38
2, 9742, Note_on_c, 0, 65, 35
2, 9742, Note_on_c, 0, 60, 33
2, 9805, Note_on_c, 0, 55, 89
2, 9808, Note_on_c, 0, 60, 0
2, 9813, Note_on_c, 0, 65, 0
2, 9821, Note_on_c, 0, 63, 0
2, 9862, Note_on_c, 0, 70, 63
2, 9862, Note_on_c, 0, 60, 66
2, 9863, Note_on_c, 0, 63, 62
2, 9864, Note_on_c, 0, 67, 63
2, 9866, Note_on_c, 0, 55, 0
2, 9867, Control_c, 0, 64, 0
2, 9890, Control_c, 0, 64, 127
2, 9925, Note_on_c, 0, 60, 0
2, 9927, Note_on_c, 0, 67, 0
2, 9927, Note_on_c, 0, 48, 50
2, 9936, Note_on_c, 0, 63, 0
2, 9948, Note_on_c, 0, 70, 0
2, 9985, Note_on_c, 0, 63, 45
2, 9985, Note_on_c, 0, 60, 50
2, 9986, Note_on_c, 0, 67, 52
2, 9992, Note_on_c, 0, 55, 33
2, 10010, Note_on_c, 0, 48, 0
2, 10041, Note_on_c, 0, 48, 49
2, 10042, Note_on_c, 0, 67, 0
2, 10042, Note_on_c, 0, 55, 0
2, 10062, Note_on_c, 0, 60, 0
2, 10065, Note_on_c, 0, 63, 0
2, 10092, Note_on_c, 0, 63, 55
2, 10092, Note_on_c, 0, 69, 59
2, 10093, Note_on_c, 0, 60, 52
2, 10094, Note_on_c, 0, 48, 0
2, 10094, Note_on_c, 0, 65, 53
2, 10095, Control_c, 0, 64, 0
2, 10096, Note_on_c, 0, 57, 46
2, 10119, Control_c, 0, 64, 127
2, 10169, Note_on_c, 0, 60, 0
2, 10170, Note_on_c, 0, 63, 0
2, 10179, Note_on_c, 0, 65, 0
2, 10191, Note_on_c, 0, 69, 0
2, 10200, Note_on_c, 0, 57, 0
2, 10206, Note_on_c, 0, 63, 53
2, 10208, Note_on_c, 0, 67, 50
2, 10209, Note_on_c, 0, 60, 41
2, 10211, Note_on_c, 0, 55, 39
2, 10221, Note_on_c, 0, 55, 0
2, 10258, Note_on_c, 0, 67, 0
2, 10265, Note_on_c, 0, 60, 0
2, 10265, Note_on_c, 0, 63, 0
2, 10310, Note_on_c, 0, 42, 57
2, 10316, Note_on_c, 0, 43, 64
2, 10322, Note_on_c, 0, 42, 0
2, 10327, Note_on_c, 0, 65, 62
2, 10328, Note_on_c, 0, 54, 52
2, 10328, Note_on_c, 0, 60, 62
2, 10329, Note_on_c, 0, 44, 63
2, 10333, Control_c, 0, 64, 0
2, 10334, Note_on_c, 0, 43, 0
2, 10363, Control_c, 0, 64, 127
2, 10417, Note_on_c, 0, 65, 0
2, 10421, Note_on_c, 0, 60, 0
2, 10433, Note_on_c, 0, 39, 28
2, 10435, Note_on_c, 0, 54, 0
2, 10437, Note_on_c, 0, 44, 0
2, 10438, Note_on_c, 0, 42, 36
2, 10450, Note_on_c, 0, 63, 52
2, 10453, Note_on_c, 0, 53, 41
2, 10453, Note_on_c, 0, 59, 44
2, 10454, Note_on_c, 0, 39, 0
2, 10454, Note_on_c, 0, 43, 53
2, 10457, Control_c, 0, 64, 0
2, 10460, Note_on_c, 0, 42, 0
2, 10484, Control_c, 0, 64, 127
2, 10513, Note_on_c, 0, 59, 0
2, 10522, Note_on_c, 0, 63, 0
2, 10527, Note_on_c, 0, 43, 0
2, 10533, Note_on_c, 0, 53, 0
2, 10572, Note_on_c, 0, 62, 37
2, 10573, Control_c, 0, 64, 0
2, 10575, Note_on_c, 0, 46, 28
2, 10575, Note_on_c, 0, 55, 47
2, 10575, Note_on_c, 0, 58, 31
2, 10576, Note_on_c, 0, 36, 41
2, 10578, Note_on_c, 0, 52, 27
2, 10597, Note_on_c, 0, 52, 0
2, 10597, Control_c, 0, 64, 127
2, 10599, Note_on_c, 0, 36, 0
2, 10601, Note_on_c, 0, 55, 0
2, 10615, Note_on_c, 0, 46, 0
2, 10618, Note_on_c, 0, 58, 0
2, 10621, Note_on_c, 0, 62, 0
2, 10691, Note_on_c, 0, 63, 31
2, 10691, Note_on_c, 0, 79, 62
2, 10692, Note_on_c, 0, 67, 49
2, 10693, Note_on_c, 0, 58, 35
2, 10718, Note_on_c, 0, 58, 0
2, 10719, Note_on_c, 0, 63, 0
2, 10741, Note_on_c, 0, 67, 0
2, 10757, Note_on_c, 0, 79, 0
2, 10803, Note_on_c, 0, 81, 61
2, 10804, Note_on_c, 0, 76, 56
2, 10805, Note_on_c, 0, 64, 50
2, 10806, Note_on_c, 0, 69, 45
2, 10806, Note_on_c, 0, 68, 33
2, 10807, Control_c, 0, 64, 0
2, 10828, Control_c, 0, 64, 127
2, 10833, Note_on_c, 0, 64, 0
2, 10836, Note_on_c, 0, 68, 0
2, 10866, Note_on_c, 0, 69, 0
2, 10869, Note_on_c, 0, 76, 0
2, 10872, Note_on_c, 0, 81, 0
2, 10924, Control_c, 0, 64, 0
2, 10924, Note_on_c, 0, 82, 56
2, 10925, Note_on_c, 0, 58, 33
2, 10926, Note_on_c, 0, 62, 31
2, 10927, Note_on_c, 0, 70, 43
2, 10928, Note_on_c, 0, 75, 48
2, 10928, Note_on_c, 0, 52, 35
2, 10930, Note_on_c, 0, 79, 38
2, 10938, Control_c, 0, 64, 127
2, 10940, Note_on_c, 0, 52, 0
2, 10943, Note_on_c, 0, 62, 0
2, 10944, Note_on_c, 0, 79, 0
2, 10948, Note_on_c, 0, 82, 0
2, 10953, Note_on_c, 0, 75, 0
2, 10955, Note_on_c, 0, 70, 0
2, 10956, Note_on_c, 0, 58, 0
2, 11045, Note_on_c, 0, 63, 47
2, 11046, Control_c, 0, 64, 0
2, 11046, Note_on_c, 0, 56, 50
2, 11047, Note_on_c, 0, 30, 44
2, 11047, Note_on_c, 0, 52, 41
2, 11049, Note_on_c, 0, 59, 53
2, 11049, Note_on_c, 0, 42, 29
2, 11051, Note_on_c, 0, 61, 29
2, 11064, Control_c, 0, 64, 127
2, 11065, Note_on_c, 0, 52, 0
2, 11072, Note_on_c, 0, 59, 0
2, 11075, Note_on_c, 0, 56, 0
2, 11076, Note_on_c, 0, 61, 0
2, 11079, Note_on_c, 0, 63, 0
2, 11098, Note_on_c, 0, 30, 0
2, 11107, Note_on_c, 0, 42, 0
2, 11119, Note_on_c, 0, 73, 82
2, 11156, Note_on_c, 0, 73, 0
2, 11176, Note_on_c, 0, 73, 73
2, 11178, Note_on_c, 0, 68, 72
2, 11179, Note_on_c, 0, 64, 67
2, 11222, Note_on_c, 0, 64, 0
2, 11236, Note_on_c, 0, 68, 0
2, 11236, Note_on_c, 0, 66, 88
2, 11268, Note_on_c, 0, 73, 0
2, 11292, Note_on_c, 0, 66, 0
2, 11298, Note_on_c, 0, 73, 69
2, 11298, Note_on_c, 0, 68, 68
2, 11299, Note_on_c, 0, 64, 58
2, 11331, Note_on_c, 0, 64, 0
2, 11357, Note_on_c, 0, 64, 76
2, 11381, Note_on_c, 0, 68, 0
2, 11396, Note_on_c, 0, 64, 0
2, 11402, Note_on_c, 0, 73, 0
2, 11418, Note_on_c, 0, 73, 49
2, 11420, Note_on_c, 0, 68, 52
2, 11422, Note_on_c, 0, 64, 38
2, 11472, Note_on_c, 0, 64, 0
2, 11476, Note_on_c, 0, 61, 46
2, 11503, Note_on_c, 0, 68, 0
2, 11508, Note_on_c, 0, 73, 0
2, 11531, Note_on_c, 0, 61, 0
2, 11534, Control_c, 0, 64, 0
2, 11534, Note_on_c, 0, 63, 51
2, 11535, Note_on_c, 0, 74, 55
2, 11536, Note_on_c, 0, 69, 61
2, 11538, Note_on_c, 0, 62, 29
2, 11541, Note_on_c, 0, 53, 30
2, 11558, Control_c, 0, 64, 127
2, 11587, Note_on_c, 0, 63, 0
2, 11594, Note_on_c, 0, 69, 0
2, 11598, Note_on_c, 0, 74, 0
2, 11599, Note_on_c, 0, 60, 32
2, 11604, Note_on_c, 0, 53, 0
2, 11606, Note_on_c, 0, 60, 0
2, 11609, Note_on_c, 0, 62, 0
2, 11711, Control_c, 0, 64, 0
2, 11714, Note_on_c, 0, 68, 38
2, 11715, Note_on_c, 0, 79, 70
2, 11717, Note_on_c, 0, 58, 33
2, 11718, Note_on_c, 0, 74, 60
2, 11719, Note_on_c, 0, 63, 32
2, 11721, Note_on_c, 0, 62, 24
2, 11731, Control_c, 0, 64, 127
2, 11737, Note_on_c, 0, 62, 0
2, 11748, Note_on_c, 0, 68, 0
2, 11752, Note_on_c, 0, 79, 0
2, 11752, Note_on_c, 0, 58, 0
2, 11758, Note_on_c, 0, 74, 0
2, 11764, Note_on_c, 0, 63, 0
2, 11777, Note_on_c, 0, 63, 13
2, 11777, Note_on_c, 0, 62, 25
2, 11778, Note_on_c, 0, 67, 43
2, 11778, Note_on_c, 0, 77, 55
2, 11780, Control_c, 0, 64, 0
2, 11781, Note_on_c, 0, 72, 38
2, 11781, Note_on_c, 0, 57, 38
2, 11799, Control_c, 0, 64, 127
2, 11810, Note_on_c, 0, 67, 0
2, 11812, Note_on_c, 0, 62, 0
2, 11817, Note_on_c, 0, 63, 0
2, 11818, Note_on_c, 0, 57, 0
2, 11846, Note_on_c, 0, 77, 0
2, 11859, Note_on_c, 0, 72, 0
2, 11891, Note_on_c, 0, 53, 41
2, 11892, Note_on_c, 0, 63, 29
2, 11947, Note_on_c, 0, 53, 0
2, 11957, Note_on_c, 0, 63, 0
2, 11965, Note_on_c, 0, 79, 81
2, 11977, Note_on_c, 0, 79, 0
2, 12006, Note_on_c, 0, 80, 61
2, 12011, Control_c, 0, 64, 0
2, 12016, Note_on_c, 0, 61, 30
2, 12016, Note_on_c, 0, 55, 37
2, 12018, Note_on_c, 0, 65, 25
2, 12019, Note_on_c, 0, 81, 52
2, 12022, Note_on_c, 0, 80, 0
2, 12037, Note_on_c, 0, 81, 0
2, 12047, Note_on_c, 0, 84, 73
2, 12049, Control_c, 0, 64, 127
2, 12073, Note_on_c, 0, 65, 0
2, 12079, Note_on_c, 0, 73, 57
2, 12082, Note_on_c, 0, 61, 0
2, 12084, Note_on_c, 0, 55, 0
2, 12177, Note_on_c, 0, 65, 38
2, 12178, Note_on_c, 0, 61, 29
2, 12179, Note_on_c, 0, 60, 33
2, 12216, Note_on_c, 0, 65, 0
2, 12220, Note_on_c, 0, 60, 0
2, 12226, Note_on_c, 0, 61, 0
2, 12247, Control_c, 0, 64, 0
2, 12249, Note_on_c, 0, 61, 39
2, 12251, Note_on_c, 0, 60, 40
2, 12251, Note_on_c, 0, 65, 44
2, 12283, Note_on_c, 0, 60, 0
2, 12284, Note_on_c, 0, 58, 47
2, 12292, Control_c, 0, 64, 127
2, 12326, Note_on_c, 0, 65, 0
2, 12333, Note_on_c, 0, 58, 0
2, 12341, Note_on_c, 0, 61, 0
2, 12365, Control_c, 0, 64, 0
2, 12367, Note_on_c, 0, 61, 30
2, 12368, Note_on_c, 0, 57, 52
2, 12369, Note_on_c, 0, 65, 44
2, 12381, Control_c, 0, 64, 127
2, 12393, Note_on_c, 0, 84, 0
2, 12401, Note_on_c, 0, 57, 0
2, 12408, Note_on_c, 0, 73, 0
2, 12408, Note_on_c, 0, 55, 37
2, 12437, Note_on_c, 0, 65, 0
2, 12440, Note_on_c, 0, 55, 0
2, 12441, Note_on_c, 0, 61, 0
2, 12484, Note_on_c, 0, 60, 20
2, 12484, Control_c, 0, 64, 0
2, 12486, Note_on_c, 0, 53, 52
2, 12486, Note_on_c, 0, 69, 36
2, 12487, Note_on_c, 0, 74, 50
2, 12504, Control_c, 0, 64, 127
2, 12509, Note_on_c, 0, 60, 0
2, 12515, Note_on_c, 0, 74, 0
2, 12521, Note_on_c, 0, 53, 0
2, 12523, Note_on_c, 0, 69, 0
2, 12605, Note_on_c, 0, 65, 41
2, 12605, Note_on_c, 0, 60, 46
2, 12605, Note_on_c, 0, 62, 32
2, 12606, Note_on_c, 0, 57, 46
2, 12669, Note_on_c, 0, 65, 0
2, 12670, Note_on_c, 0, 57, 0
2, 12670, Note_on_c, 0, 62, 0
2, 12670, Note_on_c, 0, 46, 45
2, 12674, Note_on_c, 0, 60, 0
2, 12696, Note_on_c, 0, 46, 0
2, 12731, Note_on_c, 0, 67, 53
2, 12731, Control_c, 0, 64, 0
2, 12732, Note_on_c, 0, 61, 49
2, 12732, Note_on_c, 0, 45, 40
2, 12733, Note_on_c, 0, 58, 37
2, 12735, Note_on_c, 0, 55, 38
2, 12735, Note_on_c, 0, 64, 37
2, 12754, Control_c, 0, 64, 127
2, 12783, Note_on_c, 0, 64, 0
2, 12784, Note_on_c, 0, 67, 0
2, 12787, Note_on_c, 0, 58, 0
2, 12789, Note_on_c, 0, 61, 0
2, 12793, Note_on_c, 0, 45, 0
2, 12793, Note_on_c, 0, 55, 0
2, 12849, Control_c, 0, 64, 0
2, 12850, Note_on_c, 0, 70, 44
2, 12852, Note_on_c, 0, 65, 41
2, 12853, Note_on_c, 0, 60, 24
2, 12853, Note_on_c, 0, 54, 27
2, 12855, Note_on_c, 0, 44, 33
2, 12873, Control_c, 0, 64, 127
2, 12903, Note_on_c, 0, 54, 0
2, 12904, Note_on_c, 0, 70, 0
2, 12905, Note_on_c, 0, 65, 0
2, 12907, Note_on_c, 0, 44, 0
2, 12914, Note_on_c, 0, 60, 0
2, 12968, Note_on_c, 0, 69, 41
2, 12969, Note_on_c, 0, 64, 34
2, 12970, Control_c, 0, 64, 0
2, 12970, Note_on_c, 0, 53, 34
2, 12971, Note_on_c, 0, 59, 20
2, 12972, Note_on_c, 0, 43, 30
2, 12990, Control_c, 0, 64, 127
2, 13011, Note_on_c, 0, 64, 0
2, 13013, Note_on_c, 0, 53, 0
2, 13021, Note_on_c, 0, 59, 0
2, 13050, Note_on_c, 0, 63, 33
2, 13051, Note_on_c, 0, 54, 30
2, 13052, Note_on_c, 0, 59, 36
2, 13072, Note_on_c, 0, 54, 0
2, 13075, Note_on_c, 0, 59, 0
2, 13083, Note_on_c, 0, 63, 0
2, 13092, Control_c, 0, 64, 0
2, 13093, Note_on_c, 0, 59, 34
2, 13094, Note_on_c, 0, 62, 32
2, 13094, Note_on_c, 0, 53, 37
2, 13112, Control_c, 0, 64, 127
2, 13129, Note_on_c, 0, 62, 0
2, 13135, Note_on_c, 0, 43, 0
2, 13135, Note_on_c, 0, 69, 0
2, 13141, Note_on_c, 0, 59, 0
2, 13172, Note_on_c, 0, 43, 45
2, 13181, Note_on_c, 0, 53, 0
2, 13208, Note_on_c, 0, 43, 0
2, 13218, Note_on_c, 0, 60, 39
2, 13220, Note_on_c, 0, 45, 33
2, 13222, Note_on_c, 0, 53, 30
2, 13224, Control_c, 0, 64, 0
2, 13234, Note_on_c, 0, 53, 0
2, 13237, Note_on_c, 0, 60, 0
2, 13251, Note_on_c, 0, 45, 0
2, 13253, Note_on_c, 0, 61, 29
2, 13254, Note_on_c, 0, 46, 37
2, 13255, Note_on_c, 0, 53, 25
2, 13273, Note_on_c, 0, 53, 0
2, 13283, Note_on_c, 0, 46, 0
2, 13283, Note_on_c, 0, 61, 0
2, 13294, Note_on_c, 0, 47, 50
2, 13295, Note_on_c, 0, 62, 46
2, 13296, Note_on_c, 0, 53, 25
2, 13297, Note_on_c, 0, 59, 33
2, 13317, Control_c, 0, 64, 127
2, 13322, Control_c, 0, 64, 0
2, 13332, Note_on_c, 0, 47, 0
2, 13340, Control_c, 0, 64, 127
2, 13361, Note_on_c, 0, 53, 0
2, 13375, Note_on_c, 0, 59, 0
2, 13376, Note_on_c, 0, 43, 53
2, 13382, Note_on_c, 0, 43, 0
2, 13383, Note_on_c, 0, 62, 0
2, 13408, Control_c, 0, 64, 0
2, 13422, Control_c, 0, 64, 127
2, 13463, Note_on_c, 0, 36, 43
2, 13463, Note_on_c, 0, 24, 55
2, 13464, Note_on_c, 0, 70, 49
2, 13468, Control_c, 0, 64, 0
2, 13468, Note_on_c, 0, 74, 50
2, 13496, Control_c, 0, 64, 127
2, 13504, Note_on_c, 0, 70, 0
2, 13525, Note_on_c, 0, 74, 0
2, 13529, Note_on_c, 0, 24, 0
2, 13540, Control_c, 0, 64, 0
2, 13544, Note_on_c, 0, 24, 68
2, 13546, Note_on_c, 0, 74, 63
2, 13547, Note_on_c, 0, 70, 57
2, 13547, Note_on_c, 0, 63, 48
2, 13549, Note_on_c, 0, 67, 50
2, 13552, Control_c, 0, 64, 127
2, 13557, Note_on_c, 0, 74, 0
2, 13564, Note_on_c, 0, 67, 0
2, 13572, Note_on_c, 0, 24, 0
2, 13574, Note_on_c, 0, 63, 0
2, 13580, Note_on_c, 0, 36, 0
2, 13581, Note_on_c, 0, 70, 0
2, 13592, Note_on_c, 0, 26, 45
2, 13593, Note_on_c, 0, 38, 49
2, 13594, Note_on_c, 0, 60, 48
2, 13595, Note_on_c, 0, 65, 52
2, 13595, Note_on_c, 0, 69, 44
2, 13596, Note_on_c, 0, 72, 47
2, 13596, Control_c, 0, 64, 0
2, 13618, Control_c, 0, 64, 127
2, 13643, Note_on_c, 0, 69, 0
2, 13644, Note_on_c, 0, 72, 0
2, 13655, Note_on_c, 0, 65, 0
2, 13660, Note_on_c, 0, 26, 0
2, 13664, Note_on_c, 0, 60, 0
2, 13669, Note_on_c, 0, 38, 0
2, 13705, Control_c, 0, 64, 0
2, 13706, Note_on_c, 0, 70, 46
2, 13707, Note_on_c, 0, 63, 53
2, 13707, Note_on_c, 0, 58, 47
2, 13708, Note_on_c, 0, 27, 44
2, 13709, Note_on_c, 0, 67, 40
2, 13709, Note_on_c, 0, 39, 38
2, 13726, Control_c, 0, 64, 127
2, 13750, Note_on_c, 0, 67, 0
2, 13760, Note_on_c, 0, 70, 0
2, 13768, Note_on_c, 0, 27, 0
2, 13770, Note_on_c, 0, 58, 0
2, 13773, Note_on_c, 0, 39, 0
2, 13774, Note_on_c, 0, 63, 0
2, 13815, Control_c, 0, 64, 0
2, 13817, Note_on_c, 0, 67, 36
2, 13817, Note_on_c, 0, 58, 38
2, 13818, Note_on_c, 0, 28, 44
2, 13818, Note_on_c, 0, 40, 35
2, 13819, Note_on_c, 0, 61, 42
2, 13819, Note_on_c, 0, 64, 35
2, 13842, Control_c, 0, 64, 127
2, 13854, Note_on_c, 0, 67, 0
2, 13855, Note_on_c, 0, 64, 0
2, 13863, Note_on_c, 0, 58, 0
2, 13863, Note_on_c, 0, 28, 0
2, 13873, Note_on_c, 0, 40, 0
2, 13875, Note_on_c, 0, 61, 0
2, 13929, Control_c, 0, 64, 0
2, 13930, Note_on_c, 0, 65, 38
2, 13930, Note_on_c, 0, 58, 37
2, 13932, Note_on_c, 0, 41, 33
2, 13933, Note_on_c, 0, 55, 40
2, 13934, Note_on_c, 0, 29, 29
2, 13935, Note_on_c, 0, 63, 37
2, 13964, Control_c, 0, 64, 127
2, 13987, Note_on_c, 0, 55, 0
2, 13997, Note_on_c, 0, 58, 0
2, 14005, Note_on_c, 0, 41, 0
2, 14031, Note_on_c, 0, 65, 0
2, 14034, Note_on_c, 0, 63, 0
2, 14043, Note_on_c, 0, 60, 55
2, 14048, Note_on_c, 0, 41, 37
2, 14052, Control_c, 0, 64, 0
2, 14052, Note_on_c, 0, 61, 46
2, 14062, Note_on_c, 0, 61, 0
2, 14062, Note_on_c, 0, 60, 0
2, 14063, Note_on_c, 0, 62, 54
2, 14075, Note_on_c, 0, 62, 0
2, 14091, Note_on_c, 0, 65, 89
2, 14117, Control_c, 0, 64, 127
2, 14140, Note_on_c, 0, 41, 0
2, 14157, Note_on_c, 0, 65, 0
2, 14166, Note_on_c, 0, 61, 51
2, 14170, Note_on_c, 0, 41, 30
2, 14173, Control_c, 0, 64, 0
2, 14174, Note_on_c, 0, 61, 0
2, 14178, Note_on_c, 0, 60, 49
2, 14191, Note_on_c, 0, 60, 0
2, 14227, Note_on_c, 0, 58, 60
2, 14255, Note_on_c, 0, 41, 0
2, 14258, Control_c, 0, 64, 127
2, 14293, Note_on_c, 0, 41, 33
2, 14301, Note_on_c, 0, 41, 0
2, 14308, Note_on_c, 0, 29, 0
2, 14347, Control_c, 0, 64, 0
2, 14360, Note_on_c, 0, 58, 0
2, 14364, Note_on_c, 0, 44, 40
2, 14365, Note_on_c, 0, 32, 36
2, 14366, Note_on_c, 0, 56, 33
2, 14368, Control_c, 0, 64, 127
2, 14372, Note_on_c, 0, 32, 0
2, 14373, Note_on_c, 0, 44, 0
2, 14379, Note_on_c, 0, 56, 0
2, 14388, Note_on_c, 0, 57, 44
2, 14390, Note_on_c, 0, 45, 48
2, 14398, Note_on_c, 0, 45, 0
2, 14409, Note_on_c, 0, 57, 0
2, 14409, Control_c, 0, 64, 0
2, 14419, Note_on_c, 0, 58, 43
2, 14421, Note_on_c, 0, 34, 37
2, 14424, Note_on_c, 0, 46, 23
2, 14430, Note_on_c, 0, 34, 0
2, 14430, Control_c, 0, 64, 127
2, 14431, Note_on_c, 0, 58, 0
2, 14436, Note_on_c, 0, 46, 0
2, 14487, Note_on_c, 0, 80, 56
2, 14488, Note_on_c, 0, 68, 59
2, 14490, Note_on_c, 0, 75, 54
2, 14496, Note_on_c, 0, 75, 0
2, 14500, Note_on_c, 0, 68, 0
2, 14506, Note_on_c, 0, 80, 0
2, 14515, Note_on_c, 0, 81, 72
2, 14516, Note_on_c, 0, 69, 57
2, 14518, Note_on_c, 0, 76, 56
2, 14521, Note_on_c, 0, 62, 48
2, 14526, Note_on_c, 0, 62, 0
2, 14526, Note_on_c, 0, 69, 0
2, 14529, Note_on_c, 0, 81, 0
2, 14532, Note_on_c, 0, 76, 0
2, 14545, Control_c, 0, 64, 0
2, 14546, Note_on_c, 0, 67, 62
2, 14547, Note_on_c, 0, 82, 80
2, 14547, Note_on_c, 0, 62, 43
2, 14547, Note_on_c, 0, 70, 77
2, 14547, Note_on_c, 0, 77, 78
2, 14551, Note_on_c, 0, 56, 49
2, 14564, Control_c, 0, 64, 127
2, 14609, Note_on_c, 0, 67, 0
2, 14612, Note_on_c, 0, 70, 0
2, 14616, Note_on_c, 0, 77, 0
2, 14617, Note_on_c, 0, 62, 0
2, 14622, Note_on_c, 0, 82, 0
2, 14623, Note_on_c, 0, 56, 0
2, 14650, Control_c, 0, 64, 0
2, 14655, Note_on_c, 0, 87, 76
2, 14656, Note_on_c, 0, 75, 59
2, 14658, Note_on_c, 0, 73, 52
2, 14659, Note_on_c, 0, 39, 59
2, 14659, Note_on_c, 0, 51, 46
2, 14663, Note_on_c, 0, 73, 0
2, 14666, Note_on_c, 0, 51, 0
2, 14670, Note_on_c, 0, 39, 0
2, 14671, Control_c, 0, 64, 127
2, 14681, Note_on_c, 0, 73, 1
2, 14707, Note_on_c, 0, 75, 0
2, 14739, Note_on_c, 0, 61, 48
2, 14740, Note_on_c, 0, 55, 41
2, 14742, Note_on_c, 0, 65, 22
2, 14774, Note_on_c, 0, 65, 0
2, 14778, Note_on_c, 0, 87, 0
2, 14789, Note_on_c, 0, 61, 0
2, 14790, Note_on_c, 0, 73, 0
2, 14792, Note_on_c, 0, 55, 0
2, 14837, Control_c, 0, 64, 0
2, 14843, Note_on_c, 0, 66, 40
2, 14844, Note_on_c, 0, 61, 52
2, 14849, Note_on_c, 0, 57, 20
2, 14849, Note_on_c, 0, 47, 32
2, 14852, Control_c, 0, 64, 127
2, 14860, Note_on_c, 0, 47, 0
2, 14864, Note_on_c, 0, 57, 0
2, 14875, Note_on_c, 0, 66, 0
2, 14880, Note_on_c, 0, 61, 0
2, 14890, Note_on_c, 0, 56, 37
2, 14891, Note_on_c, 0, 65, 37
2, 14893, Control_c, 0, 64, 0
2, 14894, Note_on_c, 0, 62, 30
2, 14897, Note_on_c, 0, 46, 31
2, 14899, Note_on_c, 0, 60, 20
2, 14920, Control_c, 0, 64, 127
2, 14973, Note_on_c, 0, 62, 0
2, 14974, Note_on_c, 0, 60, 0
2, 14974, Note_on_c, 0, 56, 0
2, 14991, Note_on_c, 0, 65, 0
2, 15011, Note_on_c, 0, 56, 36
2, 15013, Note_on_c, 0, 60, 40
2, 15014, Note_on_c, 0, 62, 24
2, 15015, Note_on_c, 0, 46, 0
2, 15052, Note_on_c, 0, 62, 0
2, 15062, Note_on_c, 0, 60, 0
2, 15063, Note_on_c, 0, 56, 0
2, 15126, Note_on_c, 0, 56, 42
2, 15127, Note_on_c, 0, 63, 42
2, 15128, Note_on_c, 0, 52, 43
2, 15129, Note_on_c, 0, 42, 30
2, 15130, Control_c, 0, 64, 0
2, 15131, Note_on_c, 0, 30, 28
2, 15132, Note_on_c, 0, 59, 45
2, 15161, Control_c, 0, 64, 127
2, 15188, Note_on_c, 0, 52, 0
2, 15199, Note_on_c, 0, 42, 0
2, 15201, Note_on_c, 0, 59, 0
2, 15209, Note_on_c, 0, 56, 0
2, 15227, Note_on_c, 0, 63, 0
2, 15249, Note_on_c, 0, 42, 36
2, 15251, Note_on_c, 0, 52, 22
2, 15251, Note_on_c, 0, 59, 34
2, 15252, Note_on_c, 0, 30, 0
2, 15255, Note_on_c, 0, 52, 0
2, 15258, Note_on_c, 0, 42, 0
2, 15258, Note_on_c, 0, 59, 0
2, 15308, Note_on_c, 0, 71, 72
2, 15324, Note_on_c, 0, 71, 0
2, 15334, Note_on_c, 0, 74, 83
2, 15357, Note_on_c, 0, 74, 0
2, 15362, Control_c, 0, 64, 0
2, 15363, Note_on_c, 0, 41, 33
2, 15366, Note_on_c, 0, 71, 55
2, 15368, Note_on_c, 0, 57, 30
2, 15380, Note_on_c, 0, 41, 0
2, 15383, Control_c, 0, 64, 127
2, 15388, Note_on_c, 0, 71, 0
2, 15392, Note_on_c, 0, 57, 0
2, 15396, Note_on_c, 0, 72, 58
2, 15411, Note_on_c, 0, 72, 0
2, 15424, Note_on_c, 0, 74, 65
2, 15440, Note_on_c, 0, 74, 0
2, 15451, Note_on_c, 0, 75, 60
2, 15461, Note_on_c, 0, 75, 0
2, 15476, Note_on_c, 0, 63, 37
2, 15478, Note_on_c, 0, 67, 30
2, 15478, Note_on_c, 0, 62, 34
2, 15478, Note_on_c, 0, 79, 53
2, 15480, Note_on_c, 0, 57, 35
2, 15483, Control_c, 0, 64, 0
2, 15497, Note_on_c, 0, 79, 0
2, 15504, Control_c, 0, 64, 127
2, 15508, Note_on_c, 0, 83, 63
2, 15525, Note_on_c, 0, 83, 0
2, 15529, Note_on_c, 0, 57, 0
2, 15537, Note_on_c, 0, 86, 92
2, 15538, Note_on_c, 0, 62, 0
2, 15541, Note_on_c, 0, 63, 0
2, 15542, Note_on_c, 0, 67, 0
2, 15560, Note_on_c, 0, 86, 0
2, 15567, Note_on_c, 0, 83, 66
2, 15583, Note_on_c, 0, 83, 0
2, 15591, Control_c, 0, 64, 0
2, 15595, Note_on_c, 0, 68, 52
2, 15595, Note_on_c, 0, 64, 45
2, 15596, Note_on_c, 0, 84, 69
2, 15600, Note_on_c, 0, 58, 31
2, 15602, Note_on_c, 0, 62, 24
2, 15612, Control_c, 0, 64, 127
2, 15625, Note_on_c, 0, 84, 0
2, 15628, Note_on_c, 0, 86, 62
2, 15631, Note_on_c, 0, 64, 0
2, 15638, Note_on_c, 0, 68, 0
2, 15644, Note_on_c, 0, 86, 0
2, 15646, Note_on_c, 0, 62, 0
2, 15655, Note_on_c, 0, 87, 56
2, 15660, Note_on_c, 0, 58, 0
2, 15662, Note_on_c, 0, 87, 0
2, 15686, Note_on_c, 0, 91, 64
2, 15701, Note_on_c, 0, 91, 0
2, 15711, Control_c, 0, 64, 0
2, 15714, Note_on_c, 0, 95, 87
2, 15715, Note_on_c, 0, 63, 43
2, 15716, Note_on_c, 0, 67, 55
2, 15716, Note_on_c, 0, 62, 36
2, 15718, Note_on_c, 0, 57, 52
2, 15734, Control_c, 0, 64, 127
2, 15738, Note_on_c, 0, 95, 0
2, 15746, Note_on_c, 0, 98, 84
2, 15765, Note_on_c, 0, 98, 0
2, 15773, Note_on_c, 0, 62, 0
2, 15775, Note_on_c, 0, 67, 0
2, 15776, Note_on_c, 0, 63, 0
2, 15776, Note_on_c, 0, 96, 70
2, 15786, Note_on_c, 0, 57, 0
2, 15795, Note_on_c, 0, 96, 0
2, 15808, Note_on_c, 0, 93, 74
2, 15825, Note_on_c, 0, 93, 0
2, 15828, Control_c, 0, 64, 0
2, 15837, Note_on_c, 0, 89, 63
2, 15837, Note_on_c, 0, 65, 49
2, 15837, Note_on_c, 0, 60, 36
2, 15838, Note_on_c, 0, 61, 34
2, 15844, Note_on_c, 0, 65, 0
2, 15848, Note_on_c, 0, 55, 17
2, 15850, Note_on_c, 0, 60, 0
2, 15851, Note_on_c, 0, 61, 0
2, 15854, Control_c, 0, 64, 127
2, 15858, Note_on_c, 0, 55, 0
2, 15866, Note_on_c, 0, 85, 61
2, 15867, Note_on_c, 0, 89, 0
2, 15880, Note_on_c, 0, 85, 0
2, 15901, Note_on_c, 0, 84, 36
2, 15916, Note_on_c, 0, 84, 0
2, 15929, Note_on_c, 0, 82, 49
2, 15950, Note_on_c, 0, 82, 0
2, 15958, Control_c, 0, 64, 0
2, 15963, Note_on_c, 0, 46, 34
2, 15964, Note_on_c, 0, 39, 29
2, 15964, Note_on_c, 0, 84, 52
2, 15978, Control_c, 0, 64, 127
2, 16000, Note_on_c, 0, 84, 0
2, 16001, Note_on_c, 0, 82, 56
2, 16009, Note_on_c, 0, 39, 0
2, 16014, Note_on_c, 0, 46, 0
2, 16084, Note_on_c, 0, 65, 44
2, 16085, Note_on_c, 0, 60, 30
2, 16086, Note_on_c, 0, 61, 33
2, 16086, Control_c, 0, 64, 0
2, 16087, Note_on_c, 0, 55, 36
2, 16103, Control_c, 0, 64, 127
2, 16112, Note_on_c, 0, 84, 1
2, 16120, Note_on_c, 0, 82, 0
2, 16128, Note_on_c, 0, 84, 0
2, 16154, Note_on_c, 0, 60, 0
2, 16157, Note_on_c, 0, 65, 0
2, 16159, Note_on_c, 0, 61, 0
2, 16169, Note_on_c, 0, 55, 0
2, 16210, Note_on_c, 0, 60, 27
2, 16210, Note_on_c, 0, 65, 46
2, 16212, Note_on_c, 0, 61, 31
2, 16217, Note_on_c, 0, 65, 0
2, 16221, Note_on_c, 0, 61, 0
2, 16221, Note_on_c, 0, 60, 0
2, 16297, Note_on_c, 0, 67, 71
2, 16310, Note_on_c, 0, 67, 0
2, 16331, Note_on_c, 0, 41, 40
2, 16332, Control_c, 0, 64, 0
2, 16353, Control_c, 0, 64, 127
2, 16369, Note_on_c, 0, 41, 0
2, 16449, Note_on_c, 0, 55, 45
2, 16451, Note_on_c, 0, 65, 36
2, 16452, Note_on_c, 0, 61, 38
2, 16465, Note_on_c, 0, 65, 0
2, 16479, Note_on_c, 0, 55, 0
2, 16486, Note_on_c, 0, 61, 0
2, 16490, Note_on_c, 0, 74, 69
2, 16507, Note_on_c, 0, 74, 0
2, 16528, Note_on_c, 0, 77, 69
2, 16546, Note_on_c, 0, 77, 0
2, 16566, Control_c, 0, 64, 0
2, 16567, Note_on_c, 0, 79, 55
2, 16567, Note_on_c, 0, 66, 46
2, 16568, Note_on_c, 0, 61, 39
2, 16569, Note_on_c, 0, 55, 50
2, 16569, Note_on_c, 0, 67, 46
2, 16570, Note_on_c, 0, 73, 45
2, 16570, Note_on_c, 0, 76, 43
2, 16589, Note_on_c, 0, 79, 0
2, 16590, Control_c, 0, 64, 127
2, 16596, Note_on_c, 0, 67, 0
2, 16602, Note_on_c, 0, 76, 0
2, 16611, Note_on_c, 0, 81, 68
2, 16614, Note_on_c, 0, 69, 42
2, 16627, Note_on_c, 0, 69, 0
2, 16630, Note_on_c, 0, 81, 0
2, 16631, Note_on_c, 0, 73, 0
2, 16638, Note_on_c, 0, 66, 0
2, 16649, Note_on_c, 0, 55, 0
2, 16650, Note_on_c, 0, 82, 70
2, 16651, Note_on_c, 0, 70, 56
2, 16683, Note_on_c, 0, 61, 0
2, 16689, Control_c, 0, 64, 0
2, 16692, Note_on_c, 0, 60, 48
2, 16693, Note_on_c, 0, 65, 39
2, 16693, Note_on_c, 0, 54, 44
2, 16713, Control_c, 0, 64, 127
2, 16766, Note_on_c, 0, 60, 0
2, 16766, Note_on_c, 0, 82, 0
2, 16766, Note_on_c, 0, 70, 0
2, 16767, Note_on_c, 0, 65, 0
2, 16779, Note_on_c, 0, 54, 0
2, 16816, Control_c, 0, 64, 0
2, 16820, Note_on_c, 0, 81, 47
2, 16823, Note_on_c, 0, 69, 41
2, 16823, Note_on_c, 0, 73, 28
2, 16824, Note_on_c, 0, 76, 41
2, 16824, Note_on_c, 0, 64, 34
2, 16825, Note_on_c, 0, 59, 35
2, 16827, Note_on_c, 0, 53, 31
2, 16838, Note_on_c, 0, 64, 0
2, 16838, Control_c, 0, 64, 127
2, 16839, Note_on_c, 0, 59, 0
2, 16847, Note_on_c, 0, 53, 0
2, 16852, Note_on_c, 0, 81, 0
2, 16857, Note_on_c, 0, 76, 0
2, 16862, Note_on_c, 0, 69, 0
2, 16864, Note_on_c, 0, 73, 0
2, 16943, Note_on_c, 0, 53, 35
2, 16945, Note_on_c, 0, 43, 32
2, 16948, Control_c, 0, 64, 0
2, 16973, Note_on_c, 0, 58, 57
2, 16989, Note_on_c, 0, 58, 0
2, 16994, Note_on_c, 0, 59, 58
2, 17006, Note_on_c, 0, 59, 0
2, 17009, Note_on_c, 0, 53, 0
2, 17018, Note_on_c, 0, 61, 48
2, 17029, Note_on_c, 0, 61, 0
2, 17045, Note_on_c, 0, 62, 26
2, 17046, Control_c, 0, 64, 127
2, 17047, Note_on_c, 0, 64, 24
2, 17050, Note_on_c, 0, 62, 0
2, 17053, Note_on_c, 0, 64, 0
2, 17062, Note_on_c, 0, 53, 48
2, 17068, Control_c, 0, 64, 0
2, 17086, Note_on_c, 0, 70, 67
2, 17097, Note_on_c, 0, 43, 0
2, 17099, Control_c, 0, 64, 127
2, 17106, Note_on_c, 0, 53, 0
2, 17108, Note_on_c, 0, 70, 0
2, 17110, Note_on_c, 0, 66, 40
2, 17117, Note_on_c, 0, 66, 0
2, 17128, Note_on_c, 0, 67, 44
2, 17144, Note_on_c, 0, 67, 0
2, 17171, Note_on_c, 0, 69, 36
2, 17178, Note_on_c, 0, 69, 0
2, 17186, Note_on_c, 0, 64, 35
2, 17188, Note_on_c, 0, 59, 40
2, 17188, Note_on_c, 0, 53, 30
2, 17189, Note_on_c, 0, 70, 53
2, 17190, Control_c, 0, 64, 0
2, 17200, Note_on_c, 0, 70, 0
2, 17211, Note_on_c, 0, 71, 55
2, 17217, Note_on_c, 0, 71, 0
2, 17229, Note_on_c, 0, 72, 44
2, 17230, Control_c, 0, 64, 127
2, 17239, Note_on_c, 0, 72, 0
2, 17240, Note_on_c, 0, 53, 0
2, 17242, Note_on_c, 0, 73, 47
2, 17243, Note_on_c, 0, 59, 0
2, 17244, Note_on_c, 0, 64, 0
2, 17258, Note_on_c, 0, 73, 0
2, 17268, Note_on_c, 0, 75, 48
2, 17281, Note_on_c, 0, 75, 0
2, 17283, Note_on_c, 0, 76, 40
2, 17292, Note_on_c, 0, 76, 0
2, 17296, Note_on_c, 0, 77, 72
2, 17314, Control_c, 0, 64, 0
2, 17316, Note_on_c, 0, 62, 22
2, 17317, Note_on_c, 0, 58, 26
2, 17317, Note_on_c, 0, 57, 27
2, 17319, Note_on_c, 0, 77, 0
2, 17319, Note_on_c, 0, 74, 57
2, 17335, Note_on_c, 0, 62, 0
2, 17338, Note_on_c, 0, 57, 0
2, 17341, Note_on_c, 0, 58, 0
2, 17341, Control_c, 0, 64, 127
2, 17345, Note_on_c, 0, 74, 0
2, 17345, Note_on_c, 0, 70, 58
2, 17362, Note_on_c, 0, 70, 0
2, 17369, Note_on_c, 0, 67, 38
2, 17383, Note_on_c, 0, 67, 0
2, 17428, Note_on_c, 0, 74, 47
2, 17428, Note_on_c, 0, 58, 37
2, 17430, Control_c, 0, 64, 0
2, 17430, Note_on_c, 0, 63, 43
2, 17452, Control_c, 0, 64, 127
2, 17458, Note_on_c, 0, 74, 0
2, 17466, Note_on_c, 0, 72, 59
2, 17492, Note_on_c, 0, 48, 38
2, 17503, Note_on_c, 0, 72, 0
2, 17514, Note_on_c, 0, 48, 0
2, 17521, Note_on_c, 0, 63, 0
2, 17533, Note_on_c, 0, 50, 58
2, 17540, Control_c, 0, 64, 0
2, 17551, Note_on_c, 0, 50, 0
2, 17555, Note_on_c, 0, 58, 0
2, 17556, Note_on_c, 0, 51, 45
2, 17578, Control_c, 0, 64, 127
2, 17648, Note_on_c, 0, 58, 38
2, 17651, Note_on_c, 0, 51, 0
2, 17651, Note_on_c, 0, 61, 43
2, 17651, Note_on_c, 0, 64, 38
2, 17652, Control_c, 0, 64, 0
2, 17653, Note_on_c, 0, 52, 45
2, 17671, Control_c, 0, 64, 127
2, 17678, Note_on_c, 0, 64, 0
2, 17679, Note_on_c, 0, 58, 0
2, 17688, Note_on_c, 0, 58, 32
2, 17689, Note_on_c, 0, 67, 61
2, 17713, Note_on_c, 0, 52, 0
2, 17718, Note_on_c, 0, 67, 0
2, 17728, Note_on_c, 0, 58, 0
2, 17729, Note_on_c, 0, 61, 0
2, 17729, Note_on_c, 0, 52, 37
2, 17765, Note_on_c, 0, 52, 0
2, 17767, Control_c, 0, 64, 0
2, 17769, Note_on_c, 0, 63, 38
2, 17771, Note_on_c, 0, 58, 37
2, 17771, Note_on_c, 0, 65, 43
2, 17772, Note_on_c, 0, 55, 33
2, 17776, Note_on_c, 0, 53, 34
2, 17797, Control_c, 0, 64, 127
2, 17814, Note_on_c, 0, 55, 0
2, 17833, Note_on_c, 0, 41, 71
2, 17835, Note_on_c, 0, 58, 0
2, 17836, Note_on_c, 0, 65, 0
2, 17849, Note_on_c, 0, 63, 0
2, 17859, Note_on_c, 0, 41, 0
2, 17868, Note_on_c, 0, 53, 0
2, 17953, Note_on_c, 0, 74, 76
2, 17954, Note_on_c, 0, 66, 76
2, 17954, Note_on_c, 0, 63, 73
2, 17955, Note_on_c, 0, 62, 74
2, 17955, Note_on_c, 0, 69, 74
2, 17973, Note_on_c, 0, 63, 0
2, 17977, Note_on_c, 0, 62, 0
2, 17977, Note_on_c, 0, 69, 0
2, 17978, Note_on_c, 0, 66, 0
2, 17983, Note_on_c, 0, 74, 0
2, 18113, Control_c, 0, 64, 0
2, 18119, Note_on_c, 0, 92, 81
2, 18171, Control_c, 0, 64, 0
2, 18175, Note_on_c, 0, 68, 82
2, 18176, Note_on_c, 0, 92, 0
2, 18178, Note_on_c, 0, 60, 55
2, 18178, Note_on_c, 0, 65, 52
2, 18179, Note_on_c, 0, 54, 42
2, 18187, Control_c, 0, 64, 127
2, 18190, Note_on_c, 0, 65, 0
2, 18194, Note_on_c, 0, 60, 0
2, 18195, Note_on_c, 0, 54, 0
2, 18205, Control_c, 0, 64, 0
2, 18206, Note_on_c, 0, 68, 0
2, 18215, Note_on_c, 0, 66, 63
2, 18215, Note_on_c, 0, 69, 79
2, 18217, Note_on_c, 0, 55, 52
2, 18217, Note_on_c, 0, 61, 49
2, 18222, Control_c, 0, 64, 127
2, 18234, Note_on_c, 0, 55, 0
2, 18245, Note_on_c, 0, 66, 0
2, 18246, Note_on_c, 0, 69, 0
2, 18252, Note_on_c, 0, 61, 0
2, 18259, Note_on_c, 0, 67, 68
2, 18259, Note_on_c, 0, 70, 77
2, 18261, Note_on_c, 0, 56, 55
2, 18261, Note_on_c, 0, 62, 58
2, 18261, Control_c, 0, 64, 0
2, 18285, Control_c, 0, 64, 127
2, 18359, Note_on_c, 0, 70, 0
2, 18371, Note_on_c, 0, 62, 0
2, 18373, Note_on_c, 0, 67, 0
2, 18376, Note_on_c, 0, 56, 0
2, 18431, Control_c, 0, 64, 0
2, 18434, Note_on_c, 0, 68, 64
2, 18434, Note_on_c, 0, 56, 57
2, 18435, Note_on_c, 0, 82, 69
2, 18436, Note_on_c, 0, 88, 75
2, 18436, Note_on_c, 0, 76, 69
2, 18437, Note_on_c, 0, 63, 48
2, 18453, Control_c, 0, 64, 127
2, 18455, Note_on_c, 0, 82, 0
2, 18457, Note_on_c, 0, 83, 49
2, 18458, Note_on_c, 0, 68, 0
2, 18458, Note_on_c, 0, 63, 0
2, 18465, Note_on_c, 0, 76, 0
2, 18466, Note_on_c, 0, 88, 0
2, 18474, Note_on_c, 0, 56, 0
2, 18476, Note_on_c, 0, 83, 0
2, 18490, Note_on_c, 0, 87, 65
2, 18491, Note_on_c, 0, 55, 41
2, 18491, Control_c, 0, 64, 0
2, 18492, Note_on_c, 0, 61, 48
2, 18493, Note_on_c, 0, 75, 46
2, 18493, Note_on_c, 0, 65, 28
2, 18493, Note_on_c, 0, 82, 60
2, 18515, Control_c, 0, 64, 127
2, 18583, Note_on_c, 0, 75, 0
2, 18583, Note_on_c, 0, 87, 0
2, 18585, Note_on_c, 0, 55, 0
2, 18587, Note_on_c, 0, 65, 0
2, 18590, Note_on_c, 0, 82, 0
2, 18597, Note_on_c, 0, 61, 0
2, 18606, Note_on_c, 0, 85, 56
2, 18608, Note_on_c, 0, 73, 40
2, 18609, Control_c, 0, 64, 0
2, 18609, Note_on_c, 0, 61, 32
2, 18609, Note_on_c, 0, 80, 46
2, 18611, Note_on_c, 0, 65, 36
2, 18613, Note_on_c, 0, 55, 33
2, 18625, Control_c, 0, 64, 127
2, 18654, Note_on_c, 0, 85, 0
2, 18655, Note_on_c, 0, 73, 0
2, 18657, Note_on_c, 0, 80, 0
2, 18667, Note_on_c, 0, 55, 0
2, 18675, Note_on_c, 0, 65, 0
2, 18686, Note_on_c, 0, 61, 0
2, 18729, Note_on_c, 0, 82, 48
2, 18730, Control_c, 0, 64, 0
2, 18731, Note_on_c, 0, 67, 34
2, 18732, Note_on_c, 0, 70, 28
2, 18733, Note_on_c, 0, 62, 32
2, 18734, Note_on_c, 0, 77, 36
2, 18734, Note_on_c, 0, 56, 26
2, 18754, Control_c, 0, 64, 127
2, 18786, Note_on_c, 0, 77, 0
2, 18787, Note_on_c, 0, 67, 0
2, 18796, Note_on_c, 0, 56, 0
2, 18798, Note_on_c, 0, 62, 0
2, 18800, Note_on_c, 0, 70, 0
2, 18817, Note_on_c, 0, 82, 0
2, 18845, Note_on_c, 0, 67, 31
2, 18848, Note_on_c, 0, 62, 35
2, 18849, Note_on_c, 0, 56, 27
2, 18850, Note_on_c, 0, 77, 39
2, 18850, Note_on_c, 0, 70, 40
2, 18853, Note_on_c, 0, 67, 0
2, 18858, Note_on_c, 0, 77, 0
2, 18859, Note_on_c, 0, 62, 0
2, 18869, Note_on_c, 0, 70, 0
2, 18872, Note_on_c, 0, 56, 0
2, 18914, Note_on_c, 0, 54, 83
2, 18919, Control_c, 0, 64, 0
2, 18925, Control_c, 0, 64, 127
2, 18973, Note_on_c, 0, 63, 55
2, 18973, Note_on_c, 0, 56, 52
2, 18976, Note_on_c, 0, 52, 35
2, 18976, Note_on_c, 0, 59, 58
2, 18978, Control_c, 0, 64, 0
2, 18996, Control_c, 0, 64, 127
2, 19017, Note_on_c, 0, 52, 0
2, 19034, Note_on_c, 0, 59, 0
2, 19036, Note_on_c, 0, 56, 0
2, 19036, Note_on_c, 0, 42, 67
2, 19041, Note_on_c, 0, 63, 0
2, 19062, Note_on_c, 0, 42, 0
2, 19071, Note_on_c, 0, 54, 0
2, 19097, Note_on_c, 0, 75, 71
2, 19097, Note_on_c, 0, 68, 73
2, 19098, Note_on_c, 0, 71, 73
2, 19100, Note_on_c, 0, 64, 71
2, 19155, Note_on_c, 0, 63, 81
2, 19169, Note_on_c, 0, 64, 0
2, 19174, Note_on_c, 0, 71, 0
2, 19192, Note_on_c, 0, 75, 0
2, 19197, Note_on_c, 0, 63, 0
2, 19200, Note_on_c, 0, 68, 0
2, 19217, Note_on_c, 0, 74, 75
2, 19219, Note_on_c, 0, 67, 72
2, 19219, Note_on_c, 0, 63, 59
2, 19220, Control_c, 0, 64, 0
2, 19220, Note_on_c, 0, 69, 68
2, 19222, Note_on_c, 0, 62, 67
2, 19242, Control_c, 0, 64, 127
2, 19278, Note_on_c, 0, 53, 58
2, 19311, Note_on_c, 0, 63, 0
2, 19311, Note_on_c, 0, 67, 0
2, 19316, Note_on_c, 0, 69, 0
2, 19330, Note_on_c, 0, 74, 0
2, 19336, Note_on_c, 0, 63, 59
2, 19337, Note_on_c, 0, 67, 57
2, 19338, Note_on_c, 0, 62, 0
2, 19395, Note_on_c, 0, 63, 0
2, 19395, Note_on_c, 0, 62, 85
2, 19423, Note_on_c, 0, 67, 0
2, 19454, Note_on_c, 0, 63, 47
2, 19455, Note_on_c, 0, 67, 40
2, 19458, Note_on_c, 0, 69, 37
2, 19511, Note_on_c, 0, 60, 42
2, 19517, Note_on_c, 0, 62, 0
2, 19530, Note_on_c, 0, 63, 0
2, 19540, Note_on_c, 0, 53, 0
2, 19542, Note_on_c, 0, 67, 0
2, 19554, Note_on_c, 0, 69, 0
2, 19575, Note_on_c, 0, 63, 45
2, 19576, Note_on_c, 0, 67, 51
2, 19587, Note_on_c, 0, 63, 0
2, 19591, Note_on_c, 0, 67, 0
2, 19627, Note_on_c, 0, 60, 0
2, 19633, Note_on_c, 0, 53, 36
2, 19639, Note_on_c, 0, 53, 0
2, 19697, Note_on_c, 0, 69, 44
2, 19697, Note_on_c, 0, 61, 34
2, 19697, Note_on_c, 0, 65, 50
2, 19701, Control_c, 0, 64, 0
2, 19703, Note_on_c, 0, 39, 27
2, 19723, Note_on_c, 0, 39, 0
2, 19724, Control_c, 0, 64, 127
2, 19730, Note_on_c, 0, 46, 42
2, 19744, Note_on_c, 0, 46, 0
2, 19759, Note_on_c, 0, 55, 44
2, 19766, Note_on_c, 0, 55, 0
2, 19786, Note_on_c, 0, 57, 48
2, 19788, Note_on_c, 0, 65, 0
2, 19792, Note_on_c, 0, 69, 0
2, 19792, Note_on_c, 0, 61, 0
2, 19805, Note_on_c, 0, 57, 0
2, 19815, Note_on_c, 0, 61, 37
2, 19817, Note_on_c, 0, 58, 39
2, 19819, Note_on_c, 0, 69, 49
2, 19819, Note_on_c, 0, 65, 39
2, 19821, Control_c, 0, 64, 0
2, 19842, Note_on_c, 0, 58, 0
2, 19847, Note_on_c, 0, 60, 51
2, 19853, Control_c, 0, 64, 127
2, 19861, Note_on_c, 0, 61, 0
2, 19862, Note_on_c, 0, 65, 0
2, 19868, Note_on_c, 0, 69, 0
2, 19876, Note_on_c, 0, 61, 36
2, 19876, Note_on_c, 0, 69, 22
2, 19876, Note_on_c, 0, 65, 40
2, 19890, Note_on_c, 0, 65, 0
2, 19892, Note_on_c, 0, 61, 0
2, 19904, Note_on_c, 0, 69, 0
2, 19909, Note_on_c, 0, 58, 45
2, 19915, Note_on_c, 0, 60, 0
2, 19963, Note_on_c, 0, 58, 0
2, 19963, Note_on_c, 0, 61, 67
2, 19964, Note_on_c, 0, 69, 62
2, 19965, Note_on_c, 0, 65, 55
2, 19968, Note_on_c, 0, 61, 0
2, 19970, Note_on_c, 0, 65, 0
2, 19979, Note_on_c, 0, 69, 0
2, 19991, Note_on_c, 0, 58, 44
2, 20024, Note_on_c, 0, 84, 92
2, 20025, Note_on_c, 0, 77, 80
2, 20046, Note_on_c, 0, 84, 0
2, 20047, Note_on_c, 0, 77, 0
2, 20057, Note_on_c, 0, 81, 62
2, 20057, Note_on_c, 0, 73, 55
2, 20073, Note_on_c, 0, 81, 0
2, 20074, Note_on_c, 0, 73, 0
2, 20089, Note_on_c, 0, 60, 39
2, 20098, Note_on_c, 0, 58, 0
2, 20114, Note_on_c, 0, 60, 0
2, 20177, Note_on_c, 0, 63, 38
2, 20178, Note_on_c, 0, 69, 55
2, 20179, Note_on_c, 0, 62, 37
2, 20179, Control_c, 0, 64, 0
2, 20180, Note_on_c, 0, 53, 36
2, 20181, Note_on_c, 0, 74, 30
2, 20208, Control_c, 0, 64, 127
2, 20235, Note_on_c, 0, 62, 0
2, 20236, Note_on_c, 0, 74, 0
2, 20239, Note_on_c, 0, 69, 0
2, 20251, Note_on_c, 0, 63, 0
2, 20285, Note_on_c, 0, 53, 0
2, 20298, Note_on_c, 0, 53, 52
2, 20299, Note_on_c, 0, 60, 47
2, 20307, Note_on_c, 0, 60, 0
2, 20315, Note_on_c, 0, 53, 0
2, 20335, Note_on_c, 0, 62, 67
2, 20362, Note_on_c, 0, 62, 0
2, 20371, Note_on_c, 0, 65, 64
2, 20386, Note_on_c, 0, 65, 0
2, 20415, Note_on_c, 0, 67, 50
2, 20416, Control_c, 0, 64, 0
2, 20417, Note_on_c, 0, 58, 30
2, 20417, Note_on_c, 0, 61, 42
2, 20418, Note_on_c, 0, 45, 32
2, 20418, Note_on_c, 0, 64, 41
2, 20420, Note_on_c, 0, 55, 29
2, 20441, Control_c, 0, 64, 127
2, 20474, Note_on_c, 0, 61, 0
2, 20477, Note_on_c, 0, 64, 0
2, 20477, Note_on_c, 0, 67, 0
2, 20478, Note_on_c, 0, 58, 0
2, 20483, Note_on_c, 0, 55, 0
2, 20483, Note_on_c, 0, 45, 0
2, 20532, Note_on_c, 0, 70, 55
2, 20534, Note_on_c, 0, 60, 36
2, 20535, Note_on_c, 0, 65, 47
2, 20537, Control_c, 0, 64, 0
2, 20538, Note_on_c, 0, 54, 18
2, 20539, Note_on_c, 0, 44, 27
2, 20565, Control_c, 0, 64, 127
2, 20597, Note_on_c, 0, 54, 0
2, 20600, Note_on_c, 0, 70, 0
2, 20601, Note_on_c, 0, 44, 0
2, 20602, Note_on_c, 0, 65, 0
2, 20607, Note_on_c, 0, 60, 0
2, 20652, Control_c, 0, 64, 0
2, 20653, Note_on_c, 0, 59, 37
2, 20654, Note_on_c, 0, 69, 38
2, 20655, Note_on_c, 0, 53, 31
2, 20655, Note_on_c, 0, 64, 35
2, 20656, Note_on_c, 0, 43, 31
2, 20663, Note_on_c, 0, 53, 0
2, 20673, Control_c, 0, 64, 127
2, 20676, Note_on_c, 0, 43, 0
2, 20687, Note_on_c, 0, 64, 0
2, 20687, Note_on_c, 0, 69, 0
2, 20697, Note_on_c, 0, 59, 0
2, 20720, Control_c, 0, 64, 0
2, 20733, Note_on_c, 0, 37, 34
2, 20736, Note_on_c, 0, 63, 18
2, 20737, Control_c, 0, 64, 127
2, 20745, Note_on_c, 0, 53, 8
2, 20756, Note_on_c, 0, 53, 0
2, 20761, Note_on_c, 0, 63, 0
2, 20770, Note_on_c, 0, 37, 0
2, 20772, Control_c, 0, 64, 0
2, 20775, Note_on_c, 0, 53, 35
2, 20775, Note_on_c, 0, 38, 33
2, 20778, Note_on_c, 0, 57, 39
2, 20779, Note_on_c, 0, 59, 29
2, 20779, Note_on_c, 0, 64, 28
2, 20814, Note_on_c, 0, 53, 0
2, 20817, Note_on_c, 0, 64, 0
2, 20817, Note_on_c, 0, 57, 0
2, 20819, Note_on_c, 0, 59, 0
2, 20820, Note_on_c, 0, 38, 0
2, 20858, Note_on_c, 0, 30, 36
2, 20865, Control_c, 0, 64, 127
2, 20882, Control_c, 0, 64, 0
2, 20893, Note_on_c, 0, 30, 0
2, 20900, Note_on_c, 0, 53, 35
2, 20900, Note_on_c, 0, 31, 44
2, 20901, Note_on_c, 0, 62, 34
2, 20904, Note_on_c, 0, 57, 28
2, 20905, Note_on_c, 0, 59, 30
2, 20905, Control_c, 0, 64, 127
2, 20911, Note_on_c, 0, 31, 0
2, 20914, Note_on_c, 0, 53, 0
2, 20915, Note_on_c, 0, 57, 0
2, 20920, Note_on_c, 0, 59, 0
2, 20930, Note_on_c, 0, 62, 0
2, 20977, Note_on_c, 0, 76, 81
2, 20978, Note_on_c, 0, 69, 82
2, 20979, Note_on_c, 0, 65, 80
2, 20979, Note_on_c, 0, 64, 79
2, 20980, Note_on_c, 0, 71, 74
2, 20982, Note_on_c, 0, 74, 50
2, 21009, Note_on_c, 0, 76, 0
2, 21012, Note_on_c, 0, 74, 0
2, 21014, Note_on_c, 0, 69, 0
2, 21015, Note_on_c, 0, 64, 0
2, 21016, Note_on_c, 0, 65, 0
2, 21017, Note_on_c, 0, 71, 0
2, 21018, Control_c, 0, 64, 0
2, 21026, Note_on_c, 0, 74, 62
2, 21028, Note_on_c, 0, 65, 49
2, 21028, Note_on_c, 0, 69, 50
2, 21029, Note_on_c, 0, 62, 57
2, 21032, Note_on_c, 0, 71, 46
2, 21035, Control_c, 0, 64, 127
2, 21039, Note_on_c, 0, 71, 0
2, 21043, Note_on_c, 0, 74, 0
2, 21044, Note_on_c, 0, 69, 0
2, 21046, Note_on_c, 0, 62, 0
2, 21050, Note_on_c, 0, 65, 0
2, 21103, Note_on_c, 0, 55, 30
2, 21141, Note_on_c, 0, 55, 0
2, 21143, Note_on_c, 0, 74, 53
2, 21143, Note_on_c, 0, 58, 47
2, 21143, Control_c, 0, 64, 0
2, 21144, Note_on_c, 0, 70, 53
2, 21145, Note_on_c, 0, 67, 56
2, 21145, Note_on_c, 0, 63, 44
2, 21148, Note_on_c, 0, 48, 38
2, 21155, Note_on_c, 0, 48, 0
2, 21155, Note_on_c, 0, 58, 0
2, 21164, Control_c, 0, 64, 127
2, 21172, Note_on_c, 0, 70, 0
2, 21178, Note_on_c, 0, 67, 0
2, 21180, Note_on_c, 0, 74, 0
2, 21182, Note_on_c, 0, 72, 65
2, 21183, Note_on_c, 0, 63, 0
2, 21211, Note_on_c, 0, 70, 52
2, 21216, Note_on_c, 0, 67, 43
2, 21217, Control_c, 0, 64, 0
2, 21224, Control_c, 0, 64, 127
2, 21226, Note_on_c, 0, 72, 0
2, 21236, Note_on_c, 0, 67, 0
2, 21239, Note_on_c, 0, 70, 0
2, 21239, Note_on_c, 0, 63, 33
2, 21244, Note_on_c, 0, 63, 0
2, 21265, Control_c, 0, 64, 0
2, 21266, Note_on_c, 0, 65, 50
2, 21266, Note_on_c, 0, 38, 29
2, 21266, Note_on_c, 0, 72, 50
2, 21267, Note_on_c, 0, 69, 49
2, 21267, Note_on_c, 0, 60, 42
2, 21269, Note_on_c, 0, 26, 29
2, 21291, Control_c, 0, 64, 127
2, 21313, Note_on_c, 0, 69, 0
2, 21316, Note_on_c, 0, 65, 0
2, 21317, Note_on_c, 0, 72, 0
2, 21330, Note_on_c, 0, 60, 0
2, 21343, Note_on_c, 0, 26, 0
2, 21351, Note_on_c, 0, 38, 0
2, 21377, Control_c, 0, 64, 0
2, 21378, Note_on_c, 0, 70, 51
2, 21379, Note_on_c, 0, 58, 46
2, 21379, Note_on_c, 0, 63, 53
2, 21381, Note_on_c, 0, 27, 40
2, 21381, Note_on_c, 0, 39, 33
2, 21381, Note_on_c, 0, 67, 40
2, 21397, Control_c, 0, 64, 127
2, 21398, Note_on_c, 0, 67, 0
2, 21407, Note_on_c, 0, 63, 0
2, 21408, Note_on_c, 0, 58, 0
2, 21422, Note_on_c, 0, 67, 48
2, 21429, Note_on_c, 0, 70, 0
2, 21432, Note_on_c, 0, 63, 58
2, 21437, Note_on_c, 0, 27, 0
2, 21444, Note_on_c, 0, 67, 0
2, 21451, Note_on_c, 0, 58, 48
2, 21454, Note_on_c, 0, 27, 56
2, 21457, Note_on_c, 0, 63, 0
2, 21462, Note_on_c, 0, 58, 0
2, 21481, Note_on_c, 0, 39, 0
2, 21482, Note_on_c, 0, 27, 0
2, 21489, Note_on_c, 0, 64, 36
2, 21490, Control_c, 0, 64, 0
2, 21490, Note_on_c, 0, 58, 54
2, 21491, Note_on_c, 0, 28, 51
2, 21491, Note_on_c, 0, 40, 37
2, 21491, Note_on_c, 0, 67, 50
2, 21493, Note_on_c, 0, 61, 49
2, 21515, Control_c, 0, 64, 127
2, 21546, Note_on_c, 0, 28, 0
2, 21552, Note_on_c, 0, 67, 0
2, 21556, Note_on_c, 0, 64, 0
2, 21567, Note_on_c, 0, 58, 0
2, 21572, Note_on_c, 0, 61, 0
2, 21572, Note_on_c, 0, 28, 45
2, 21589, Note_on_c, 0, 28, 0
2, 21601, Note_on_c, 0, 40, 0
2, 21613, Note_on_c, 0, 63, 43
2, 21615, Control_c, 0, 64, 0
2, 21615, Note_on_c, 0, 29, 31
2, 21615, Note_on_c, 0, 41, 32
2, 21618, Note_on_c, 0, 65, 37
2, 21620, Note_on_c, 0, 58, 21
2, 21621, Note_on_c, 0, 55, 20
2, 21647, Control_c, 0, 64, 127
2, 21678, Note_on_c, 0, 55, 0
2, 21691, Note_on_c, 0, 41, 0
2, 21691, Note_on_c, 0, 58, 0
2, 21692, Note_on_c, 0, 63, 0
2, 21705, Note_on_c, 0, 65, 0
2, 21732, Note_on_c, 0, 58, 23
2, 21733, Note_on_c, 0, 41, 34
2, 21733, Note_on_c, 0, 55, 35
2, 21734, Note_on_c, 0, 63, 27
2, 21741, Note_on_c, 0, 55, 0
2, 21741, Note_on_c, 0, 29, 0
2, 21749, Note_on_c, 0, 41, 0
2, 21752, Note_on_c, 0, 58, 0
2, 21754, Note_on_c, 0, 63, 0
2, 21856, Note_on_c, 0, 87, 73
2, 21857, Note_on_c, 0, 56, 55
2, 21857, Note_on_c, 0, 82, 67
2, 21858, Note_on_c, 0, 75, 59
2, 21859, Note_on_c, 0, 66, 58
2, 21859, Control_c, 0, 64, 0
2, 21860, Note_on_c, 0, 61, 51
2, 21880, Control_c, 0, 64, 127
2, 21933, Note_on_c, 0, 66, 0
2, 21933, Note_on_c, 0, 56, 0
2, 21935, Note_on_c, 0, 61, 0
2, 21953, Note_on_c, 0, 82, 0
2, 21955, Note_on_c, 0, 75, 0
2, 21960, Note_on_c, 0, 87, 0
2, 21976, Control_c, 0, 64, 0
2, 21976, Note_on_c, 0, 88, 57
2, 21976, Note_on_c, 0, 65, 48
2, 21976, Note_on_c, 0, 82, 46
2, 21976, Note_on_c, 0, 76, 50
2, 21977, Note_on_c, 0, 60, 45
2, 21978, Note_on_c, 0, 54, 37
2, 21995, Control_c, 0, 64, 127
2, 22026, Note_on_c, 0, 60, 0
2, 22032, Note_on_c, 0, 65, 0
2, 22033, Note_on_c, 0, 76, 0
2, 22036, Note_on_c, 0, 54, 0
2, 22044, Note_on_c, 0, 88, 0
2, 22047, Note_on_c, 0, 82, 0
2, 22094, Note_on_c, 0, 89, 54
2, 22095, Control_c, 0, 64, 0
2, 22095, Note_on_c, 0, 65, 40
2, 22097, Note_on_c, 0, 84, 42
2, 22097, Note_on_c, 0, 62, 36
2, 22099, Note_on_c, 0, 77, 22
2, 22100, Note_on_c, 0, 60, 31
2, 22115, Control_c, 0, 64, 127
2, 22123, Note_on_c, 0, 65, 0
2, 22125, Note_on_c, 0, 89, 0
2, 22128, Note_on_c, 0, 84, 0
2, 22136, Note_on_c, 0, 77, 0
2, 22160, Note_on_c, 0, 53, 43
2, 22205, Note_on_c, 0, 60, 0
2, 22210, Note_on_c, 0, 62, 0
2, 22211, Note_on_c, 0, 82, 50
2, 22217, Note_on_c, 0, 70, 47
2, 22249, Note_on_c, 0, 82, 0
2, 22256, Note_on_c, 0, 70, 0
2, 22275, Note_on_c, 0, 62, 42
2, 22275, Note_on_c, 0, 60, 32
2, 22276, Note_on_c, 0, 65, 34
2, 22290, Note_on_c, 0, 65, 0
2, 22329, Note_on_c, 0, 53, 0
2, 22331, Note_on_c, 0, 77, 60
2, 22333, Note_on_c, 0, 65, 42
2, 22391, Note_on_c, 0, 65, 0
2, 22395, Note_on_c, 0, 53, 45
2, 22450, Note_on_c, 0, 60, 0
2, 22452, Note_on_c, 0, 62, 0
2, 22452, Note_on_c, 0, 70, 35
2, 22453, Note_on_c, 0, 65, 37
2, 22466, Note_on_c, 0, 65, 0
2, 22512, Note_on_c, 0, 62, 52
2, 22513, Note_on_c, 0, 70, 0
2, 22513, Note_on_c, 0, 65, 58
2, 22514, Note_on_c, 0, 60, 43
2, 22545, Note_on_c, 0, 65, 0
2, 22570, Note_on_c, 0, 53, 0
2, 22571, Note_on_c, 0, 70, 38
2, 22573, Note_on_c, 0, 65, 35
2, 22573, Note_on_c, 0, 67, 36
2, 22635, Note_on_c, 0, 65, 0
2, 22635, Note_on_c, 0, 53, 62
2, 22638, Note_on_c, 0, 67, 0
2, 22644, Note_on_c, 0, 70, 0
2, 22696, Note_on_c, 0, 70, 44
2, 22697, Note_on_c, 0, 65, 43
2, 22698, Note_on_c, 0, 67, 41
2, 22703, Note_on_c, 0, 60, 0
2, 22704, Note_on_c, 0, 62, 0
2, 22710, Note_on_c, 0, 67, 0
2, 22712, Note_on_c, 0, 65, 0
2, 22755, Note_on_c, 0, 65, 65
2, 22755, Note_on_c, 0, 62, 58
2, 22757, Note_on_c, 0, 60, 50
2, 22776, Note_on_c, 0, 70, 0
2, 22781, Note_on_c, 0, 65, 0
2, 22814, Note_on_c, 0, 70, 52
2, 22816, Note_on_c, 0, 67, 51
2, 22816, Note_on_c, 0, 65, 58
2, 22823, Note_on_c, 0, 53, 0
2, 22868, Note_on_c, 0, 65, 0
2, 22876, Note_on_c, 0, 67, 0
2, 22876, Note_on_c, 0, 53, 58
2, 22882, Note_on_c, 0, 70, 0
2, 22934, Note_on_c, 0, 70, 46
2, 22937, Note_on_c, 0, 65, 31
2, 22937, Note_on_c, 0, 67, 29
2, 22943, Note_on_c, 0, 62, 0
2, 22944, Note_on_c, 0, 60, 0
2, 22946, Note_on_c, 0, 65, 0
2, 22947, Note_on_c, 0, 67, 0
2, 22954, Note_on_c, 0, 53, 0
2, 22960, Note_on_c, 0, 77, 0
2, 22979, Note_on_c, 0, 70, 0
2, 22992, Note_on_c, 0, 51, 53
2, 23013, Note_on_c, 0, 51, 0
2, 23041, Note_on_c, 0, 38, 47
2, 23041, Note_on_c, 0, 45, 25
2, 23052, Control_c, 0, 64, 127
2, 23060, Note_on_c, 0, 45, 0
2, 23063, Note_on_c, 0, 38, 0
2, 23123, Note_on_c, 0, 78, 58
2, 23124, Note_on_c, 0, 81, 57
2, 23124, Note_on_c, 0, 86, 65
2, 23124, Note_on_c, 0, 74, 74
2, 23126, Note_on_c, 0, 84, 69
2, 23150, Note_on_c, 0, 84, 0
2, 23151, Note_on_c, 0, 74, 0
2, 23154, Note_on_c, 0, 86, 0
2, 23154, Note_on_c, 0, 78, 0
2, 23156, Note_on_c, 0, 81, 0
2, 23158, Control_c, 0, 64, 0
2, 23159, Note_on_c, 0, 54, 31
2, 23161, Note_on_c, 0, 60, 25
2, 23164, Note_on_c, 0, 62, 17
2, 23167, Note_on_c, 0, 86, 53
2, 23169, Note_on_c, 0, 74, 46
2, 23169, Note_on_c, 0, 78, 35
2, 23169, Note_on_c, 0, 81, 47
2, 23175, Control_c, 0, 64, 127
2, 23183, Note_on_c, 0, 62, 0
2, 23189, Note_on_c, 0, 60, 0
2, 23192, Note_on_c, 0, 54, 0
2, 23204, Note_on_c, 0, 74, 0
2, 23204, Note_on_c, 0, 78, 0
2, 23204, Note_on_c, 0, 81, 0
2, 23209, Note_on_c, 0, 86, 0
2, 23239, Note_on_c, 0, 78, 38
2, 23240, Note_on_c, 0, 86, 50
2, 23240, Note_on_c, 0, 74, 57
2, 23254, Note_on_c, 0, 74, 0
2, 23254, Note_on_c, 0, 78, 0
2, 23255, Note_on_c, 0, 86, 0
2, 23283, Note_on_c, 0, 87, 62
2, 23283, Control_c, 0, 64, 0
2, 23284, Note_on_c, 0, 75, 51
2, 23288, Note_on_c, 0, 84, 48
2, 23288, Note_on_c, 0, 81, 50
2, 23306, Control_c, 0, 64, 127
2, 23354, Note_on_c, 0, 81, 0
2, 23354, Note_on_c, 0, 84, 0
2, 23357, Note_on_c, 0, 87, 0
2, 23357, Note_on_c, 0, 39, 37
2, 23367, Note_on_c, 0, 75, 0
2, 23377, Note_on_c, 0, 39, 0
2, 23397, Note_on_c, 0, 46, 57
2, 23412, Note_on_c, 0, 46, 0
2, 23431, Note_on_c, 0, 55, 37
2, 23438, Note_on_c, 0, 55, 0
2, 23466, Note_on_c, 0, 60, 35
2, 23480, Note_on_c, 0, 60, 0
2, 23482, Note_on_c, 0, 61, 35
2, 23497, Note_on_c, 0, 63, 59
2, 23498, Note_on_c, 0, 73, 59
2, 23499, Note_on_c, 0, 81, 65
2, 23511, Note_on_c, 0, 63, 0
2, 23512, Note_on_c, 0, 61, 0
2, 23516, Note_on_c, 0, 73, 0
2, 23519, Note_on_c, 0, 81, 0
2, 23530, Note_on_c, 0, 78, 49
2, 23531, Control_c, 0, 64, 0
2, 23533, Note_on_c, 0, 64, 56
2, 23535, Note_on_c, 0, 54, 35
2, 23535, Note_on_c, 0, 60, 50
2, 23537, Note_on_c, 0, 74, 26
2, 23553, Control_c, 0, 64, 127
2, 23576, Note_on_c, 0, 64, 0
2, 23579, Note_on_c, 0, 60, 0
2, 23584, Note_on_c, 0, 74, 0
2, 23589, Note_on_c, 0, 54, 0
2, 23591, Note_on_c, 0, 78, 0
2, 23597, Note_on_c, 0, 86, 75
2, 23599, Note_on_c, 0, 76, 62
2, 23601, Note_on_c, 0, 81, 60
2, 23602, Note_on_c, 0, 78, 17
2, 23616, Note_on_c, 0, 78, 0
2, 23628, Note_on_c, 0, 76, 0
2, 23630, Note_on_c, 0, 86, 0
2, 23636, Note_on_c, 0, 81, 0
2, 23643, Control_c, 0, 64, 0
2, 23645, Note_on_c, 0, 84, 54
2, 23646, Note_on_c, 0, 60, 34
2, 23647, Note_on_c, 0, 54, 33
2, 23650, Note_on_c, 0, 50, 32
2, 23651, Note_on_c, 0, 81, 25
2, 23655, Note_on_c, 0, 78, 10
2, 23663, Control_c, 0, 64, 127
2, 23681, Note_on_c, 0, 84, 0
2, 23687, Note_on_c, 0, 81, 0
2, 23698, Note_on_c, 0, 50, 0
2, 23703, Note_on_c, 0, 54, 0
2, 23706, Note_on_c, 0, 60, 0
2, 23717, Note_on_c, 0, 78, 0
2, 23759, Note_on_c, 0, 82, 60
2, 23762, Note_on_c, 0, 70, 39
2, 23763, Note_on_c, 0, 76, 57
2, 23763, Note_on_c, 0, 66, 62
2, 23764, Note_on_c, 0, 61, 50
2, 23766, Control_c, 0, 64, 0
2, 23787, Control_c, 0, 64, 127
2, 23824, Note_on_c, 0, 66, 0
2, 23831, Note_on_c, 0, 76, 0
2, 23834, Note_on_c, 0, 70, 0
2, 23836, Note_on_c, 0, 82, 0
2, 23841, Note_on_c, 0, 61, 0
2, 23883, Note_on_c, 0, 81, 44
2, 23885, Note_on_c, 0, 76, 39
2, 23885, Note_on_c, 0, 65, 38
2, 23886, Note_on_c, 0, 69, 29
2, 23886, Note_on_c, 0, 60, 41
2, 23886, Control_c, 0, 64, 0
2, 23888, Note_on_c, 0, 54, 29
2, 23904, Control_c, 0, 64, 127
2, 23918, Note_on_c, 0, 81, 0
2, 23926, Note_on_c, 0, 65, 0
2, 23928, Note_on_c, 0, 76, 0
2, 23941, Note_on_c, 0, 60, 0
2, 23948, Note_on_c, 0, 69, 0
2, 23952, Note_on_c, 0, 54, 0
2, 23997, Note_on_c, 0, 58, 34
2, 24004, Note_on_c, 0, 72, 84
2, 24007, Note_on_c, 0, 60, 51
2, 24010, Note_on_c, 0, 69, 74
2, 24014, Note_on_c, 0, 65, 64
2, 24015, Control_c, 0, 64, 0
2, 24017, Note_on_c, 0, 64, 30
2, 24018, Note_on_c, 0, 62, 27
2, 24026, Note_on_c, 0, 64, 0
2, 24040, Control_c, 0, 64, 127
2, 24065, Note_on_c, 0, 60, 0
2, 24070, Note_on_c, 0, 62, 0
2, 24112, Note_on_c, 0, 69, 0
2, 24114, Note_on_c, 0, 65, 0
2, 24128, Note_on_c, 0, 65, 38
2, 24130, Note_on_c, 0, 69, 51
2, 24130, Note_on_c, 0, 62, 34
2, 24165, Note_on_c, 0, 69, 0
2, 24166, Note_on_c, 0, 72, 0
2, 24166, Note_on_c, 0, 62, 0
2, 24172, Note_on_c, 0, 65, 0
2, 24177, Note_on_c, 0, 58, 0
2, 24195, Note_on_c, 0, 70, 83
2, 24195, Note_on_c, 0, 58, 48
2, 24230, Note_on_c, 0, 70, 0
2, 24235, Note_on_c, 0, 58, 0
2, 24261, Note_on_c, 0, 61, 67
2, 24261, Note_on_c, 0, 68, 27
2, 24261, Note_on_c, 0, 58, 57
2, 24262, Note_on_c, 0, 69, 75
2, 24263, Note_on_c, 0, 57, 55
2, 24263, Note_on_c, 0, 64, 54
2, 24266, Control_c, 0, 64, 0
2, 24276, Note_on_c, 0, 68, 0
2, 24295, Control_c, 0, 64, 127
2, 24322, Note_on_c, 0, 57, 0
2, 24325, Note_on_c, 0, 56, 39
2, 24350, Note_on_c, 0, 64, 0
2, 24352, Note_on_c, 0, 58, 0
2, 24354, Note_on_c, 0, 61, 0
2, 24361, Note_on_c, 0, 69, 0
2, 24376, Control_c, 0, 64, 0
2, 24377, Note_on_c, 0, 58, 35
2, 24378, Note_on_c, 0, 61, 32
2, 24380, Note_on_c, 0, 64, 36
2, 24380, Note_on_c, 0, 55, 36
2, 24380, Note_on_c, 0, 67, 32
2, 24388, Note_on_c, 0, 56, 0
2, 24396, Control_c, 0, 64, 127
2, 24398, Note_on_c, 0, 58, 0
2, 24404, Note_on_c, 0, 67, 0
2, 24405, Note_on_c, 0, 64, 0
2, 24406, Note_on_c, 0, 61, 0
2, 24434, Note_on_c, 0, 55, 0
2, 24445, Note_on_c, 0, 70, 25
2, 24449, Note_on_c, 0, 70, 0
2, 24485, Control_c, 0, 64, 0
2, 24488, Note_on_c, 0, 74, 40
2, 24489, Note_on_c, 0, 62, 25
2, 24489, Note_on_c, 0, 66, 30
2, 24490, Note_on_c, 0, 69, 34
2, 24500, Note_on_c, 0, 58, 9
2, 24505, Control_c, 0, 64, 127
2, 24506, Note_on_c, 0, 62, 0
2, 24510, Note_on_c, 0, 66, 0
2, 24514, Note_on_c, 0, 69, 0
2, 24522, Note_on_c, 0, 74, 0
2, 24526, Note_on_c, 0, 58, 0
2, 24559, Note_on_c, 0, 94, 64
2, 24577, Note_on_c, 0, 94, 0
2, 24585, Note_on_c, 0, 98, 80
2, 24608, Note_on_c, 0, 98, 0
2, 24610, Control_c, 0, 64, 0
2, 24613, Note_on_c, 0, 62, 35
2, 24615, Note_on_c, 0, 58, 30
2, 24616, Note_on_c, 0, 57, 27
2, 24617, Note_on_c, 0, 88, 51
2, 24629, Control_c, 0, 64, 127
2, 24641, Note_on_c, 0, 88, 0
2, 24646, Note_on_c, 0, 87, 64
2, 24653, Note_on_c, 0, 57, 0
2, 24655, Note_on_c, 0, 62, 0
2, 24665, Note_on_c, 0, 87, 0
2, 24680, Note_on_c, 0, 86, 61
2, 24694, Note_on_c, 0, 86, 0
2, 24694, Note_on_c, 0, 58, 0
2, 24710, Note_on_c, 0, 85, 67
2, 24730, Note_on_c, 0, 85, 0
2, 24735, Control_c, 0, 64, 0
2, 24736, Note_on_c, 0, 63, 35
2, 24738, Note_on_c, 0, 58, 32
2, 24738, Note_on_c, 0, 84, 42
2, 24741, Note_on_c, 0, 52, 35
2, 24758, Control_c, 0, 64, 127
2, 24765, Note_on_c, 0, 52, 0
2, 24767, Note_on_c, 0, 63, 0
2, 24773, Note_on_c, 0, 84, 0
2, 24775, Note_on_c, 0, 58, 0
2, 24775, Note_on_c, 0, 88, 68
2, 24793, Note_on_c, 0, 88, 0
2, 24806, Note_on_c, 0, 84, 31
2, 24818, Note_on_c, 0, 84, 0
2, 24830, Note_on_c, 0, 82, 62
2, 24851, Note_on_c, 0, 82, 0
2, 24853, Control_c, 0, 64, 0
2, 24855, Note_on_c, 0, 58, 27
2, 24856, Note_on_c, 0, 48, 44
2, 24859, Note_on_c, 0, 81, 54
2, 24870, Note_on_c, 0, 58, 0
2, 24870, Control_c, 0, 64, 127
2, 24872, Note_on_c, 0, 48, 0
2, 24882, Note_on_c, 0, 81, 0
2, 24890, Note_on_c, 0, 79, 39
2, 24898, Note_on_c, 0, 79, 0
2, 24919, Note_on_c, 0, 80, 51
2, 24938, Note_on_c, 0, 80, 0
2, 24951, Note_on_c, 0, 82, 57
2, 24968, Note_on_c, 0, 82, 0
2, 24975, Control_c, 0, 64, 0
2, 24975, Note_on_c, 0, 41, 25
2, 24980, Note_on_c, 0, 57, 45
2, 24983, Note_on_c, 0, 81, 56
2, 24996, Control_c, 0, 64, 127
2, 24999, Note_on_c, 0, 81, 0
2, 25002, Note_on_c, 0, 41, 0
2, 25015, Note_on_c, 0, 57, 0
2, 25028, Note_on_c, 0, 69, 30
2, 25033, Note_on_c, 0, 69, 0
2, 25061, Note_on_c, 0, 69, 52
2, 25074, Note_on_c, 0, 69, 0
2, 25093, Note_on_c, 0, 67, 36
2, 25094, Note_on_c, 0, 69, 57
2, 25096, Note_on_c, 0, 63, 29
2, 25096, Note_on_c, 0, 62, 31
2, 25099, Note_on_c, 0, 57, 31
2, 25108, Note_on_c, 0, 69, 0
2, 25113, Note_on_c, 0, 67, 0
2, 25128, Note_on_c, 0, 69, 53
2, 25135, Note_on_c, 0, 69, 0
2, 25145, Note_on_c, 0, 57, 0
2, 25158, Note_on_c, 0, 69, 48
2, 25167, Note_on_c, 0, 69, 0
2, 25176, Note_on_c, 0, 62, 0
2, 25184, Note_on_c, 0, 63, 0
2, 25185, Note_on_c, 0, 69, 53
2, 25193, Note_on_c, 0, 69, 0
2, 25210, Note_on_c, 0, 69, 66
2, 25214, Note_on_c, 0, 67, 39
2, 25216, Note_on_c, 0, 63, 32
2, 25218, Control_c, 0, 64, 0
2, 25219, Note_on_c, 0, 58, 25
2, 25224, Note_on_c, 0, 69, 0
2, 25236, Note_on_c, 0, 67, 0
2, 25237, Note_on_c, 0, 70, 62
2, 25241, Note_on_c, 0, 62, 1
2, 25242, Control_c, 0, 64, 127
2, 25269, Note_on_c, 0, 67, 58
2, 25272, Note_on_c, 0, 70, 0
2, 25302, Note_on_c, 0, 63, 0
2, 25308, Note_on_c, 0, 58, 0
2, 25316, Note_on_c, 0, 62, 0
2, 25332, Note_on_c, 0, 62, 25
2, 25333, Note_on_c, 0, 63, 25
2, 25336, Note_on_c, 0, 58, 29
2, 25374, Note_on_c, 0, 62, 0
2, 25378, Note_on_c, 0, 67, 0
2, 25392, Note_on_c, 0, 63, 0
2, 25405, Note_on_c, 0, 58, 0
2, 25407, Note_on_c, 0, 68, 57
2, 25442, Note_on_c, 0, 68, 0
2, 25445, Control_c, 0, 64, 0
2, 25451, Note_on_c, 0, 57, 32
2, 25451, Note_on_c, 0, 67, 31
2, 25451, Note_on_c, 0, 69, 50
2, 25451, Note_on_c, 0, 63, 36
2, 25469, Control_c, 0, 64, 127
2, 25528, Note_on_c, 0, 67, 0
2, 25531, Note_on_c, 0, 69, 0
2, 25537, Note_on_c, 0, 63, 0
2, 25540, Note_on_c, 0, 57, 0
2, 25569, Note_on_c, 0, 73, 64
2, 25569, Note_on_c, 0, 67, 67
2, 25569, Note_on_c, 0, 79, 75
2, 25570, Control_c, 0, 64, 0
2, 25572, Note_on_c, 0, 63, 40
2, 25574, Note_on_c, 0, 57, 41
2, 25591, Control_c, 0, 64, 127
2, 25591, Note_on_c, 0, 74, 52
2, 25592, Note_on_c, 0, 73, 0
2, 25625, Note_on_c, 0, 57, 0
2, 25626, Note_on_c, 0, 63, 0
2, 25652, Note_on_c, 0, 79, 0
2, 25659, Note_on_c, 0, 67, 0
2, 25661, Note_on_c, 0, 74, 0
2, 25693, Note_on_c, 0, 65, 50
2, 25693, Note_on_c, 0, 72, 45
2, 25694, Note_on_c, 0, 60, 44
2, 25695, Note_on_c, 0, 54, 35
2, 25695, Note_on_c, 0, 79, 33
2, 25696, Note_on_c, 0, 77, 34
2, 25698, Control_c, 0, 64, 0
2, 25707, Note_on_c, 0, 79, 0
2, 25721, Control_c, 0, 64, 127
2, 25751, Note_on_c, 0, 60, 0
2, 25755, Note_on_c, 0, 65, 0
2, 25758, Note_on_c, 0, 72, 0
2, 25769, Note_on_c, 0, 54, 0
2, 25777, Note_on_c, 0, 77, 0
2, 25808, Note_on_c, 0, 75, 46
2, 25809, Note_on_c, 0, 65, 32
2, 25809, Control_c, 0, 64, 0
2, 25810, Note_on_c, 0, 71, 51
2, 25811, Note_on_c, 0, 64, 38
2, 25811, Note_on_c, 0, 53, 37
2, 25812, Note_on_c, 0, 59, 37
2, 25833, Control_c, 0, 64, 127
2, 25859, Note_on_c, 0, 59, 0
2, 25862, Note_on_c, 0, 64, 0
2, 25865, Note_on_c, 0, 75, 0
2, 25870, Note_on_c, 0, 71, 0
2, 25873, Note_on_c, 0, 53, 0
2, 25880, Note_on_c, 0, 65, 0
2, 25927, Control_c, 0, 64, 0
2, 25928, Note_on_c, 0, 58, 23
2, 25928, Note_on_c, 0, 62, 31
2, 25929, Note_on_c, 0, 70, 36
2, 25930, Note_on_c, 0, 64, 40
2, 25931, Note_on_c, 0, 74, 33
2, 25932, Note_on_c, 0, 52, 33
2, 25951, Control_c, 0, 64, 127
2, 25958, Note_on_c, 0, 62, 0
2, 25963, Note_on_c, 0, 58, 0
2, 25964, Note_on_c, 0, 52, 0
2, 25968, Note_on_c, 0, 74, 0
2, 25970, Note_on_c, 0, 70, 0
2, 25976, Note_on_c, 0, 64, 0
2, 26047, Note_on_c, 0, 67, 65
2, 26048, Note_on_c, 0, 58, 55
2, 26049, Note_on_c, 0, 62, 57
2, 26050, Note_on_c, 0, 64, 48
2, 26051, Note_on_c, 0, 57, 62
2, 26054, Control_c, 0, 64, 0
2, 26111, Note_on_c, 0, 56, 52
2, 26115, Note_on_c, 0, 67, 0
2, 26115, Control_c, 0, 64, 127
2, 26117, Note_on_c, 0, 57, 0
2, 26118, Note_on_c, 0, 64, 0
2, 26124, Note_on_c, 0, 62, 0
2, 26134, Note_on_c, 0, 58, 0
2, 26167, Note_on_c, 0, 56, 0
2, 26168, Control_c, 0, 64, 0
2, 26170, Note_on_c, 0, 69, 47
2, 26170, Note_on_c, 0, 55, 40
2, 26170, Note_on_c, 0, 58, 42
2, 26171, Note_on_c, 0, 64, 45
2, 26173, Note_on_c, 0, 62, 39
2, 26199, Control_c, 0, 64, 127
2, 26230, Note_on_c, 0, 48, 29
2, 26233, Note_on_c, 0, 69, 0
2, 26260, Note_on_c, 0, 62, 0
2, 26261, Note_on_c, 0, 58, 0
2, 26265, Note_on_c, 0, 64, 0
2, 26293, Note_on_c, 0, 70, 49
2, 26294, Note_on_c, 0, 58, 33
2, 26296, Note_on_c, 0, 48, 0
2, 26297, Note_on_c, 0, 62, 36
2, 26298, Note_on_c, 0, 64, 37
2, 26323, Note_on_c, 0, 70, 0
2, 26338, Note_on_c, 0, 64, 0
2, 26339, Note_on_c, 0, 62, 0
2, 26348, Note_on_c, 0, 55, 0
2, 26348, Note_on_c, 0, 58, 0
2, 26353, Note_on_c, 0, 48, 36
2, 26374, Note_on_c, 0, 48, 0
2, 26415, Note_on_c, 0, 59, 62
2, 26416, Note_on_c, 0, 61, 50
2, 26418, Control_c, 0, 64, 0
2, 26453, Control_c, 0, 64, 127
2, 26477, Note_on_c, 0, 42, 53
2, 26522, Note_on_c, 0, 59, 0
2, 26538, Note_on_c, 0, 52, 60
2, 26547, Note_on_c, 0, 52, 0
2, 26555, Note_on_c, 0, 61, 0
2, 26580, Note_on_c, 0, 42, 0
2, 26597, Note_on_c, 0, 42, 64
2, 26659, Note_on_c, 0, 73, 74
2, 26662, Note_on_c, 0, 68, 77
2, 26665, Note_on_c, 0, 64, 69
2, 26724, Note_on_c, 0, 54, 74
2, 26755, Note_on_c, 0, 68, 0
2, 26756, Note_on_c, 0, 64, 0
2, 26763, Note_on_c, 0, 42, 0
2, 26790, Note_on_c, 0, 64, 44
2, 26791, Note_on_c, 0, 68, 42
2, 26829, Note_on_c, 0, 64, 0
2, 26843, Note_on_c, 0, 42, 45
2, 26848, Note_on_c, 0, 54, 0
2, 26853, Note_on_c, 0, 73, 0
2, 26855, Note_on_c, 0, 68, 0
2, 26856, Note_on_c, 0, 42, 0
2, 26889, Note_on_c, 0, 41, 32
2, 26901, Control_c, 0, 64, 0
2, 26902, Note_on_c, 0, 41, 0
2, 26903, Note_on_c, 0, 74, 49
2, 26904, Note_on_c, 0, 63, 37
2, 26904, Note_on_c, 0, 69, 61
2, 26906, Note_on_c, 0, 48, 17
2, 26906, Note_on_c, 0, 57, 54
2, 26924, Control_c, 0, 64, 127
2, 26927, Note_on_c, 0, 48, 0
2, 26939, Note_on_c, 0, 57, 0
2, 26947, Note_on_c, 0, 63, 0
2, 26960, Note_on_c, 0, 69, 0
2, 26965, Note_on_c, 0, 74, 0
2, 27009, Note_on_c, 0, 58, 47
2, 27012, Note_on_c, 0, 73, 55
2, 27012, Note_on_c, 0, 79, 58
2, 27014, Note_on_c, 0, 68, 18
2, 27015, Control_c, 0, 64, 0
2, 27016, Note_on_c, 0, 69, 29
2, 27017, Note_on_c, 0, 63, 35
2, 27025, Note_on_c, 0, 73, 0
2, 27028, Note_on_c, 0, 74, 43
2, 27036, Control_c, 0, 64, 127
2, 27038, Note_on_c, 0, 68, 0
2, 27072, Note_on_c, 0, 69, 0
2, 27079, Note_on_c, 0, 58, 0
2, 27081, Note_on_c, 0, 74, 0
2, 27083, Note_on_c, 0, 79, 0
2, 27100, Note_on_c, 0, 63, 0
2, 27126, Control_c, 0, 64, 0
2, 27127, Note_on_c, 0, 77, 40
2, 27129, Note_on_c, 0, 72, 41
2, 27131, Note_on_c, 0, 65, 24
2, 27131, Note_on_c, 0, 63, 29
2, 27135, Note_on_c, 0, 57, 30
2, 27145, Control_c, 0, 64, 127
2, 27159, Note_on_c, 0, 57, 0
2, 27159, Note_on_c, 0, 63, 0
2, 27179, Note_on_c, 0, 65, 0
2, 27193, Note_on_c, 0, 77, 0
2, 27243, Note_on_c, 0, 63, 32
2, 27245, Note_on_c, 0, 53, 33
2, 27250, Note_on_c, 0, 63, 0
2, 27255, Note_on_c, 0, 53, 0
2, 27256, Note_on_c, 0, 72, 0
2, 27329, Note_on_c, 0, 79, 57
2, 27330, Note_on_c, 0, 46, 38
2, 27336, Note_on_c, 0, 79, 0
2, 27363, Note_on_c, 0, 46, 0
2, 27371, Control_c, 0, 64, 0
2, 27373, Note_on_c, 0, 46, 32
2, 27374, Note_on_c, 0, 77, 57
2, 27374, Note_on_c, 0, 81, 61
2, 27375, Note_on_c, 0, 53, 44
2, 27376, Note_on_c, 0, 73, 42
2, 27392, Control_c, 0, 64, 127
2, 27393, Note_on_c, 0, 53, 0
2, 27406, Note_on_c, 0, 73, 0
2, 27409, Note_on_c, 0, 46, 0
2, 27410, Note_on_c, 0, 81, 0
2, 27410, Note_on_c, 0, 77, 0
2, 27412, Note_on_c, 0, 84, 65
2, 27423, Note_on_c, 0, 84, 0
2, 27450, Note_on_c, 0, 98, 73
2, 27452, Note_on_c, 0, 96, 74
2, 27452, Note_on_c, 0, 91, 62
2, 27467, Note_on_c, 0, 98, 0
2, 27468, Note_on_c, 0, 91, 0
2, 27469, Note_on_c, 0, 96, 0
2, 27490, Note_on_c, 0, 85, 63
2, 27495, Note_on_c, 0, 65, 57
2, 27495, Note_on_c, 0, 61, 49
2, 27497, Note_on_c, 0, 55, 55
2, 27498, Note_on_c, 0, 93, 66
2, 27499, Control_c, 0, 64, 0
2, 27520, Control_c, 0, 64, 127
2, 27527, Note_on_c, 0, 93, 0
2, 27532, Note_on_c, 0, 55, 0
2, 27535, Note_on_c, 0, 85, 0
2, 27541, Note_on_c, 0, 65, 0
2, 27549, Note_on_c, 0, 61, 0
2, 27555, Note_on_c, 0, 56, 73
2, 27556, Note_on_c, 0, 66, 76
2, 27558, Note_on_c, 0, 61, 53
2, 27564, Control_c, 0, 64, 0
2, 27573, Control_c, 0, 64, 127
2, 27597, Note_on_c, 0, 66, 0
2, 27604, Note_on_c, 0, 56, 0
2, 27611, Note_on_c, 0, 61, 0
2, 27619, Note_on_c, 0, 73, 74
2, 27619, Note_on_c, 0, 81, 75
2, 27619, Note_on_c, 0, 77, 76
2, 27620, Note_on_c, 0, 65, 70
2, 27620, Control_c, 0, 64, 0
2, 27621, Note_on_c, 0, 61, 73
2, 27621, Note_on_c, 0, 55, 71
2, 27639, Control_c, 0, 64, 127
2, 27668, Note_on_c, 0, 81, 0
2, 27675, Note_on_c, 0, 77, 0
2, 27680, Note_on_c, 0, 73, 0
2, 27693, Note_on_c, 0, 65, 0
2, 27706, Note_on_c, 0, 61, 0
2, 27739, Note_on_c, 0, 73, 48
2, 27742, Note_on_c, 0, 65, 37
2, 27743, Note_on_c, 0, 61, 33
2, 27744, Note_on_c, 0, 69, 40
2, 27754, Note_on_c, 0, 69, 0
2, 27762, Note_on_c, 0, 73, 0
2, 27767, Note_on_c, 0, 65, 0
2, 27781, Note_on_c, 0, 79, 66
2, 27782, Note_on_c, 0, 72, 66
2, 27798, Note_on_c, 0, 55, 0
2, 27799, Note_on_c, 0, 79, 0
2, 27810, Note_on_c, 0, 72, 0
2, 27813, Note_on_c, 0, 61, 0
2, 27816, Note_on_c, 0, 77, 66
2, 27842, Note_on_c, 0, 77, 0
2, 27853, Control_c, 0, 64, 0
2, 27858, Note_on_c, 0, 65, 34
2, 27859, Note_on_c, 0, 74, 46
2, 27861, Note_on_c, 0, 57, 35
2, 27861, Note_on_c, 0, 63, 36
2, 27874, Control_c, 0, 64, 127
2, 27883, Note_on_c, 0, 63, 0
2, 27886, Note_on_c, 0, 74, 0
2, 27890, Note_on_c, 0, 57, 0
2, 27897, Note_on_c, 0, 65, 0
2, 27975, Note_on_c, 0, 60, 43
2, 27975, Note_on_c, 0, 57, 43
2, 27975, Note_on_c, 0, 62, 25
2, 27977, Note_on_c, 0, 65, 41
2, 28043, Note_on_c, 0, 65, 0
2, 28045, Note_on_c, 0, 62, 0
2, 28048, Note_on_c, 0, 60, 0
2, 28052, Note_on_c, 0, 57, 0
2, 28071, Note_on_c, 0, 42, 34
2, 28081, Note_on_c, 0, 42, 0
2, 28082, Note_on_c, 0, 44, 43
2, 28091, Note_on_c, 0, 58, 42
2, 28092, Note_on_c, 0, 44, 0
2, 28092, Note_on_c, 0, 67, 33
2, 28092, Note_on_c, 0, 61, 49
2, 28093, Note_on_c, 0, 64, 43
2, 28093, Note_on_c, 0, 45, 44
2, 28094, Control_c, 0, 64, 0
2, 28118, Control_c, 0, 64, 127
2, 28165, Note_on_c, 0, 67, 0
2, 28167, Note_on_c, 0, 64, 0
2, 28171, Note_on_c, 0, 58, 0
2, 28172, Note_on_c, 0, 61, 0
2, 28196, Note_on_c, 0, 45, 0
2, 28201, Note_on_c, 0, 42, 34
2, 28207, Note_on_c, 0, 42, 0
2, 28215, Note_on_c, 0, 70, 51
2, 28215, Note_on_c, 0, 65, 50
2, 28215, Note_on_c, 0, 60, 48
2, 28215, Note_on_c, 0, 44, 47
2, 28219, Control_c, 0, 64, 0
2, 28243, Control_c, 0, 64, 127
2, 28287, Note_on_c, 0, 32, 48
2, 28290, Note_on_c, 0, 65, 0
2, 28298, Note_on_c, 0, 70, 0
2, 28300, Note_on_c, 0, 44, 0
2, 28300, Note_on_c, 0, 60, 0
2, 28322, Note_on_c, 0, 32, 0
2, 28335, Note_on_c, 0, 69, 42
2, 28335, Note_on_c, 0, 59, 38
2, 28336, Note_on_c, 0, 64, 43
2, 28336, Note_on_c, 0, 31, 47
2, 28338, Control_c, 0, 64, 0
2, 28353, Note_on_c, 0, 31, 0
2, 28364, Control_c, 0, 64, 127
2, 28411, Note_on_c, 0, 64, 0
2, 28429, Note_on_c, 0, 59, 0
2, 28454, Note_on_c, 0, 63, 35
2, 28455, Note_on_c, 0, 59, 26
2, 28456, Note_on_c, 0, 44, 34
2, 28456, Note_on_c, 0, 54, 29
2, 28459, Control_c, 0, 64, 0
2, 28484, Control_c, 0, 64, 127
2, 28507, Note_on_c, 0, 54, 0
2, 28512, Note_on_c, 0, 44, 0
2, 28537, Note_on_c, 0, 59, 0
2, 28538, Note_on_c, 0, 63, 0
2, 28568, Control_c, 0, 64, 0
2, 28571, Note_on_c, 0, 59, 33
2, 28571, Note_on_c, 0, 62, 35
2, 28573, Note_on_c, 0, 43, 34
2, 28574, Note_on_c, 0, 53, 34
2, 28590, Control_c, 0, 64, 127
2, 28595, Note_on_c, 0, 43, 0
2, 28620, Note_on_c, 0, 59, 0
2, 28635, Note_on_c, 0, 62, 0
2, 28638, Note_on_c, 0, 69, 0
2, 28647, Note_on_c, 0, 43, 62
2, 28657, Note_on_c, 0, 53, 0
2, 28671, Note_on_c, 0, 43, 0
2, 28808, Note_on_c, 0, 73, 63
2, 28821, Note_on_c, 0, 73, 0
2, 28821, Control_c, 0, 64, 0
2, 28824, Note_on_c, 0, 58, 33
2, 28825, Note_on_c, 0, 48, 49
2, 28825, Note_on_c, 0, 74, 71
2, 28846, Control_c, 0, 64, 127
2, 28875, Note_on_c, 0, 74, 0
2, 28878, Note_on_c, 0, 58, 0
2, 28894, Note_on_c, 0, 67, 44
2, 28927, Note_on_c, 0, 67, 0
2, 28934, Note_on_c, 0, 48, 0
2, 28938, Note_on_c, 0, 63, 40
2, 28939, Note_on_c, 0, 58, 33
2, 28939, Note_on_c, 0, 72, 49
2, 28939, Control_c, 0, 64, 0
2, 28939, Note_on_c, 0, 67, 58
2, 28943, Note_on_c, 0, 50, 44
2, 28957, Note_on_c, 0, 63, 0
2, 28960, Note_on_c, 0, 67, 0
2, 28960, Control_c, 0, 64, 127
2, 28972, Note_on_c, 0, 67, 49
2, 28977, Note_on_c, 0, 72, 0
2, 28977, Note_on_c, 0, 63, 18
2, 28990, Note_on_c, 0, 67, 0
2, 29005, Note_on_c, 0, 63, 0
2, 29013, Note_on_c, 0, 58, 0
2, 29052, Note_on_c, 0, 50, 0
2, 29053, Control_c, 0, 64, 0
2, 29056, Note_on_c, 0, 70, 29
2, 29056, Note_on_c, 0, 64, 37
2, 29057, Note_on_c, 0, 67, 33
2, 29058, Note_on_c, 0, 61, 29
2, 29058, Note_on_c, 0, 58, 30
2, 29060, Note_on_c, 0, 51, 31
2, 29075, Control_c, 0, 64, 127
2, 29085, Note_on_c, 0, 58, 0
2, 29098, Note_on_c, 0, 67, 0
2, 29101, Note_on_c, 0, 70, 0
2, 29104, Note_on_c, 0, 64, 0
2, 29115, Note_on_c, 0, 61, 0
2, 29161, Note_on_c, 0, 51, 0
2, 29170, Note_on_c, 0, 58, 37
2, 29172, Control_c, 0, 64, 0
2, 29172, Note_on_c, 0, 67, 32
2, 29172, Note_on_c, 0, 52, 38
2, 29172, Note_on_c, 0, 64, 34
2, 29173, Note_on_c, 0, 61, 40
2, 29200, Control_c, 0, 64, 127
2, 29217, Note_on_c, 0, 67, 0
2, 29220, Note_on_c, 0, 64, 0
2, 29229, Note_on_c, 0, 58, 0
2, 29240, Note_on_c, 0, 61, 0
2, 29256, Note_on_c, 0, 50, 32
2, 29262, Note_on_c, 0, 52, 0
2, 29286, Note_on_c, 0, 50, 0
2, 29287, Note_on_c, 0, 63, 28
2, 29288, Note_on_c, 0, 52, 47
2, 29289, Note_on_c, 0, 57, 31
2, 29289, Note_on_c, 0, 60, 40
2, 29290, Control_c, 0, 64, 0
2, 29291, Note_on_c, 0, 65, 40
2, 29292, Note_on_c, 0, 53, 45
2, 29294, Note_on_c, 0, 52, 0
2, 29307, Note_on_c, 0, 65, 0
2, 29308, Note_on_c, 0, 57, 0
2, 29312, Note_on_c, 0, 60, 0
2, 29317, Note_on_c, 0, 63, 0
2, 29356, Control_c, 0, 64, 127
2, 29358, Note_on_c, 0, 41, 45
2, 29405, Note_on_c, 0, 60, 45
2, 29412, Note_on_c, 0, 61, 43
2, 29413, Control_c, 0, 64, 0
2, 29421, Note_on_c, 0, 60, 0
2, 29424, Note_on_c, 0, 61, 0
2, 29426, Note_on_c, 0, 62, 43
2, 29438, Note_on_c, 0, 62, 0
2, 29480, Note_on_c, 0, 65, 71
2, 29491, Note_on_c, 0, 65, 0
2, 29499, Control_c, 0, 64, 127
2, 29523, Control_c, 0, 64, 0
2, 29542, Control_c, 0, 64, 127
2, 29573, Note_on_c, 0, 41, 0
2, 29595, Control_c, 0, 64, 0
2, 29604, Note_on_c, 0, 41, 33
2, 29610, Control_c, 0, 64, 127
2, 29657, Note_on_c, 0, 61, 46
2, 29657, Control_c, 0, 64, 0
2, 29662, Note_on_c, 0, 53, 0
2, 29663, Note_on_c, 0, 61, 0
2, 29665, Note_on_c, 0, 63, 20
2, 29669, Note_on_c, 0, 60, 38
2, 29683, Note_on_c, 0, 63, 0
2, 29686, Note_on_c, 0, 60, 0
2, 29690, Note_on_c, 0, 58, 68
2, 29706, Note_on_c, 0, 58, 0
2, 29707, Note_on_c, 0, 41, 0
2, 29711, Note_on_c, 0, 56, 59
2, 29719, Control_c, 0, 64, 127
2, 29724, Note_on_c, 0, 56, 0
2, 29751, Control_c, 0, 64, 0
2, 29752, Note_on_c, 0, 58, 65
2, 29755, Note_on_c, 0, 34, 46
2, 29778, Control_c, 0, 64, 127
2, 29805, Note_on_c, 0, 34, 0
2, 29808, Note_on_c, 0, 58, 0
2, 29890, Control_c, 0, 64, 0
2, 29891, Note_on_c, 0, 82, 69
2, 29892, Note_on_c, 0, 56, 45
2, 29893, Note_on_c, 0, 76, 66
2, 29894, Note_on_c, 0, 88, 59
2, 29910, Control_c, 0, 64, 127
2, 29912, Note_on_c, 0, 83, 55
2, 29913, Note_on_c, 0, 82, 0
2, 29925, Note_on_c, 0, 76, 0
2, 29927, Note_on_c, 0, 88, 0
2, 29934, Note_on_c, 0, 56, 0
2, 29936, Note_on_c, 0, 83, 0
2, 29965, Note_on_c, 0, 87, 53
2, 29966, Note_on_c, 0, 75, 36
2, 29968, Note_on_c, 0, 82, 45
2, 29968, Note_on_c, 0, 55, 37
2, 29968, Note_on_c, 0, 65, 40
2, 29969, Note_on_c, 0, 61, 33
2, 29973, Control_c, 0, 64, 0
2, 29994, Control_c, 0, 64, 127
2, 30100, Note_on_c, 0, 55, 0
2, 30100, Note_on_c, 0, 87, 0
2, 30101, Note_on_c, 0, 75, 0
2, 30105, Note_on_c, 0, 82, 0
2, 30110, Note_on_c, 0, 65, 0
2, 30115, Note_on_c, 0, 61, 0
2, 30125, Control_c, 0, 64, 0
2, 30131, Note_on_c, 0, 85, 45
2, 30134, Note_on_c, 0, 73, 28
2, 30134, Note_on_c, 0, 61, 31
2, 30136, Note_on_c, 0, 55, 34
2, 30137, Note_on_c, 0, 80, 32
2, 30139, Control_c, 0, 64, 127
2, 30159, Note_on_c, 0, 85, 0
2, 30161, Note_on_c, 0, 80, 0
2, 30162, Note_on_c, 0, 55, 0
2, 30164, Note_on_c, 0, 73, 0
2, 30177, Note_on_c, 0, 61, 0
2, 30212, Note_on_c, 0, 82, 39
2, 30215, Note_on_c, 0, 70, 25
2, 30216, Note_on_c, 0, 67, 24
2, 30216, Note_on_c, 0, 62, 32
2, 30217, Note_on_c, 0, 56, 29
2, 30218, Note_on_c, 0, 77, 34
2, 30220, Control_c, 0, 64, 0
2, 30246, Control_c, 0, 64, 127
2, 30309, Note_on_c, 0, 67, 0
2, 30315, Note_on_c, 0, 62, 0
2, 30325, Note_on_c, 0, 56, 0
2, 30378, Note_on_c, 0, 77, 0
2, 30383, Note_on_c, 0, 70, 0
2, 30404, Note_on_c, 0, 82, 0
2, 30503, Note_on_c, 0, 22, 31
2, 30503, Note_on_c, 0, 106, 59
2, 30527, Note_on_c, 0, 106, 0
2, 30547, Note_on_c, 0, 22, 0
2, 30547, End_track
3, 0, Start_track
3, 0, End_track
4, 0, Start_track
4, 0, End_track
0, 0, End_of_file
