0, 0, Header, 1, 5, 120
1, 0, Start_track
1, 0, Title_t, "I Could Write a Book"
1, 0, Text_t, "dougmck@pipeline.com.au\012"
1, 0, Time_signature, 4, 2, 24, 8
1, 0, Key_signature, 0, "major"
1, 0, Tempo, 500000
1, 480, Marker_t, "I Could Write a Book   dougmck@pipeline.com.au"
1, 480, End_track
2, 0, Start_track
2, 0, Control_c, 0, 10, 63
2, 956, Note_on_c, 0, 69, 55
2, 957, Note_on_c, 0, 79, 46
2, 957, Note_on_c, 0, 74, 57
2, 963, Note_on_c, 0, 64, 35
2, 997, Control_c, 0, 64, 127
2, 1076, Note_on_c, 0, 69, 0
2, 1077, Note_on_c, 0, 64, 0
2, 1087, Note_on_c, 0, 74, 0
2, 1095, Note_on_c, 0, 79, 0
2, 1191, Note_on_c, 0, 83, 76
2, 1192, Note_on_c, 0, 71, 54
2, 1193, Note_on_c, 0, 64, 52
2, 1193, Note_on_c, 0, 76, 67
2, 1193, Note_on_c, 0, 72, 59
2, 1196, Note_on_c, 0, 60, 40
2, 1196, Note_on_c, 0, 55, 40
2, 1196, Note_on_c, 0, 59, 48
2, 1205, Control_c, 0, 64, 0
2, 1257, Control_c, 0, 64, 127
2, 1310, Note_on_c, 0, 71, 0
2, 1311, Note_on_c, 0, 72, 0
2, 1316, Note_on_c, 0, 59, 0
2, 1318, Note_on_c, 0, 76, 0
2, 1320, Note_on_c, 0, 64, 0
2, 1327, Note_on_c, 0, 55, 0
2, 1328, Note_on_c, 0, 60, 0
2, 1336, Note_on_c, 0, 83, 0
2, 1441, Note_on_c, 0, 93, 67
2, 1441, Note_on_c, 0, 91, 55
2, 1442, Note_on_c, 0, 88, 77
2, 1443, Note_on_c, 0, 53, 55
2, 1445, Note_on_c, 0, 64, 62
2, 1445, Note_on_c, 0, 84, 72
2, 1446, Note_on_c, 0, 57, 57
2, 1446, Note_on_c, 0, 60, 42
2, 1446, Note_on_c, 0, 81, 67
2, 1450, Control_c, 0, 64, 0
2, 1510, Control_c, 0, 64, 127
2, 1563, Note_on_c, 0, 93, 0
2, 1567, Note_on_c, 0, 91, 0
2, 1570, Note_on_c, 0, 60, 0
2, 1571, Note_on_c, 0, 53, 0
2, 1572, Note_on_c, 0, 88, 0
2, 1573, Note_on_c, 0, 64, 0
2, 1573, Note_on_c, 0, 84, 0
2, 1577, Note_on_c, 0, 81, 0
2, 1577, Note_on_c, 0, 57, 0
2, 1670, Note_on_c, 0, 53, 40
2, 1670, Note_on_c, 0, 91, 75
2, 1675, Note_on_c, 0, 87, 76
2, 1675, Note_on_c, 0, 90, 62
2, 1677, Note_on_c, 0, 57, 48
2, 1680, Note_on_c, 0, 83, 70
2, 1682, Control_c, 0, 64, 0
2, 1682, Note_on_c, 0, 59, 58
2, 1688, Note_on_c, 0, 79, 54
2, 1690, Note_on_c, 0, 64, 53
2, 1693, Note_on_c, 0, 90, 0
2, 1745, Control_c, 0, 64, 127
2, 1796, Note_on_c, 0, 91, 0
2, 1807, Note_on_c, 0, 83, 0
2, 1816, Note_on_c, 0, 79, 0
2, 1821, Note_on_c, 0, 59, 0
2, 1823, Note_on_c, 0, 57, 0
2, 1826, Note_on_c, 0, 64, 0
2, 1832, Note_on_c, 0, 87, 0
2, 1850, Note_on_c, 0, 53, 0
2, 1921, Note_on_c, 0, 88, 68
2, 1927, Note_on_c, 0, 52, 35
2, 1927, Note_on_c, 0, 83, 55
2, 1930, Note_on_c, 0, 79, 55
2, 1932, Note_on_c, 0, 57, 37
2, 1933, Note_on_c, 0, 62, 38
2, 1935, Control_c, 0, 64, 0
2, 1936, Note_on_c, 0, 76, 52
2, 2001, Control_c, 0, 64, 127
2, 2097, Note_on_c, 0, 88, 0
2, 2111, Note_on_c, 0, 79, 0
2, 2112, Note_on_c, 0, 76, 0
2, 2113, Note_on_c, 0, 83, 0
2, 2143, Note_on_c, 0, 62, 0
2, 2146, Note_on_c, 0, 52, 0
2, 2146, Note_on_c, 0, 57, 0
2, 2477, Note_on_c, 0, 67, 76
2, 2477, Note_on_c, 0, 62, 77
2, 2477, Note_on_c, 0, 64, 75
2, 2478, Note_on_c, 0, 59, 74
2, 2480, Note_on_c, 0, 55, 73
2, 2492, Control_c, 0, 64, 0
2, 2563, Note_on_c, 0, 67, 0
2, 2570, Note_on_c, 0, 64, 0
2, 2572, Note_on_c, 0, 62, 0
2, 2577, Note_on_c, 0, 59, 0
2, 2583, Note_on_c, 0, 55, 0
2, 2642, Note_on_c, 0, 43, 37
2, 2642, Note_on_c, 0, 64, 42
2, 2642, Note_on_c, 0, 52, 40
2, 2643, Note_on_c, 0, 56, 34
2, 2645, Note_on_c, 0, 59, 44
2, 2646, Note_on_c, 0, 53, 24
2, 2752, Control_c, 0, 64, 127
2, 2811, Note_on_c, 0, 64, 0
2, 2821, Note_on_c, 0, 59, 0
2, 2830, Note_on_c, 0, 52, 0
2, 2832, Note_on_c, 0, 56, 0
2, 2837, Note_on_c, 0, 53, 0
2, 2837, Note_on_c, 0, 50, 35
2, 2838, Note_on_c, 0, 62, 30
2, 2848, Note_on_c, 0, 50, 0
2, 2862, Note_on_c, 0, 62, 0
2, 2865, Control_c, 0, 64, 0
2, 2880, Note_on_c, 0, 64, 33
2, 2882, Note_on_c, 0, 55, 25
2, 2882, Note_on_c, 0, 52, 47
2, 2882, Note_on_c, 0, 59, 35
2, 2901, Control_c, 0, 64, 127
2, 2903, Note_on_c, 0, 55, 0
2, 2907, Note_on_c, 0, 59, 0
2, 2915, Note_on_c, 0, 64, 0
2, 2937, Note_on_c, 0, 52, 0
2, 2960, Control_c, 0, 64, 0
2, 2961, Note_on_c, 0, 67, 46
2, 2963, Note_on_c, 0, 62, 55
2, 2965, Note_on_c, 0, 59, 44
2, 2965, Note_on_c, 0, 52, 47
2, 2971, Note_on_c, 0, 62, 0
2, 2972, Note_on_c, 0, 59, 0
2, 2975, Note_on_c, 0, 52, 0
2, 2975, Note_on_c, 0, 67, 0
2, 2986, Note_on_c, 0, 43, 0
2, 3130, Control_c, 0, 64, 127
2, 3320, Control_c, 0, 64, 0
2, 3323, Note_on_c, 0, 56, 72
2, 3323, Note_on_c, 0, 59, 57
2, 3325, Note_on_c, 0, 43, 55
2, 3325, Note_on_c, 0, 53, 57
2, 3325, Note_on_c, 0, 64, 65
2, 3332, Note_on_c, 0, 62, 28
2, 3338, Control_c, 0, 64, 127
2, 3363, Note_on_c, 0, 53, 0
2, 3365, Note_on_c, 0, 62, 0
2, 3366, Note_on_c, 0, 56, 0
2, 3371, Note_on_c, 0, 59, 0
2, 3371, Note_on_c, 0, 64, 0
2, 3383, Control_c, 0, 64, 0
2, 3392, Note_on_c, 0, 62, 26
2, 3395, Note_on_c, 0, 64, 26
2, 3395, Note_on_c, 0, 55, 45
2, 3397, Note_on_c, 0, 52, 40
2, 3397, Note_on_c, 0, 59, 38
2, 3413, Control_c, 0, 64, 127
2, 3495, Note_on_c, 0, 55, 0
2, 3498, Note_on_c, 0, 43, 0
2, 3505, Note_on_c, 0, 52, 0
2, 3512, Note_on_c, 0, 59, 0
2, 3521, Note_on_c, 0, 62, 0
2, 3521, Note_on_c, 0, 64, 0
2, 3600, Note_on_c, 0, 79, 84
2, 3601, Note_on_c, 0, 70, 77
2, 3601, Note_on_c, 0, 73, 77
2, 3601, Note_on_c, 0, 64, 75
2, 3603, Control_c, 0, 64, 0
2, 3618, Note_on_c, 0, 70, 0
2, 3620, Note_on_c, 0, 79, 0
2, 3621, Note_on_c, 0, 73, 0
2, 3627, Note_on_c, 0, 64, 0
2, 3647, Note_on_c, 0, 61, 55
2, 3650, Note_on_c, 0, 76, 71
2, 3650, Note_on_c, 0, 70, 57
2, 3652, Note_on_c, 0, 67, 61
2, 3677, Control_c, 0, 64, 127
2, 3702, Note_on_c, 0, 70, 0
2, 3703, Note_on_c, 0, 67, 0
2, 3718, Note_on_c, 0, 76, 0
2, 3726, Control_c, 0, 64, 0
2, 3731, Note_on_c, 0, 67, 49
2, 3731, Note_on_c, 0, 73, 43
2, 3731, Note_on_c, 0, 70, 44
2, 3732, Note_on_c, 0, 61, 0
2, 3732, Control_c, 0, 64, 127
2, 3735, Note_on_c, 0, 58, 42
2, 3762, Note_on_c, 0, 67, 0
2, 3768, Note_on_c, 0, 70, 0
2, 3770, Note_on_c, 0, 73, 0
2, 3803, Note_on_c, 0, 58, 0
2, 3812, Note_on_c, 0, 64, 33
2, 3812, Note_on_c, 0, 72, 46
2, 3812, Note_on_c, 0, 69, 43
2, 3816, Note_on_c, 0, 65, 29
2, 3817, Note_on_c, 0, 57, 37
2, 3825, Control_c, 0, 64, 0
2, 3838, Note_on_c, 0, 65, 0
2, 3888, Control_c, 0, 64, 127
2, 3963, Note_on_c, 0, 69, 0
2, 3981, Note_on_c, 0, 64, 0
2, 4051, Note_on_c, 0, 72, 0
2, 4062, Note_on_c, 0, 57, 0
2, 4170, Note_on_c, 0, 67, 67
2, 4172, Note_on_c, 0, 57, 41
2, 4172, Note_on_c, 0, 60, 53
2, 4173, Note_on_c, 0, 53, 40
2, 4173, Note_on_c, 0, 64, 60
2, 4176, Note_on_c, 0, 55, 36
2, 4181, Control_c, 0, 64, 0
2, 4210, Control_c, 0, 64, 127
2, 4235, Note_on_c, 0, 55, 0
2, 4241, Note_on_c, 0, 57, 0
2, 4247, Note_on_c, 0, 53, 0
2, 4266, Note_on_c, 0, 64, 0
2, 4266, Note_on_c, 0, 60, 0
2, 4268, Note_on_c, 0, 67, 0
2, 4327, Control_c, 0, 64, 0
2, 4330, Note_on_c, 0, 59, 47
2, 4332, Note_on_c, 0, 63, 42
2, 4333, Note_on_c, 0, 67, 41
2, 4333, Note_on_c, 0, 53, 40
2, 4335, Note_on_c, 0, 43, 37
2, 4386, Control_c, 0, 64, 127
2, 4475, Note_on_c, 0, 53, 0
2, 4525, Note_on_c, 0, 43, 0
2, 4526, Note_on_c, 0, 59, 0
2, 4542, Note_on_c, 0, 63, 0
2, 4545, Note_on_c, 0, 67, 0
2, 4720, Note_on_c, 0, 62, 66
2, 4721, Note_on_c, 0, 71, 58
2, 4722, Note_on_c, 0, 68, 51
2, 4732, Note_on_c, 0, 62, 0
2, 4736, Note_on_c, 0, 71, 0
2, 4740, Note_on_c, 0, 68, 0
2, 4760, Note_on_c, 0, 74, 77
2, 4760, Note_on_c, 0, 56, 55
2, 4775, Note_on_c, 0, 74, 0
2, 4777, Note_on_c, 0, 56, 0
2, 4802, Note_on_c, 0, 72, 62
2, 4805, Note_on_c, 0, 67, 55
2, 4806, Note_on_c, 0, 57, 57
2, 4807, Control_c, 0, 64, 0
2, 4808, Note_on_c, 0, 60, 60
2, 4891, Control_c, 0, 64, 127
2, 4953, Note_on_c, 0, 60, 0
2, 4958, Note_on_c, 0, 57, 0
2, 4986, Note_on_c, 0, 67, 0
2, 5002, Note_on_c, 0, 72, 0
2, 5123, Note_on_c, 0, 68, 75
2, 5125, Note_on_c, 0, 72, 74
2, 5125, Note_on_c, 0, 65, 81
2, 5125, Note_on_c, 0, 61, 56
2, 5126, Note_on_c, 0, 58, 44
2, 5127, Note_on_c, 0, 54, 57
2, 5127, Control_c, 0, 64, 0
2, 5157, Control_c, 0, 64, 127
2, 5226, Note_on_c, 0, 58, 0
2, 5230, Note_on_c, 0, 72, 0
2, 5230, Note_on_c, 0, 68, 0
2, 5235, Note_on_c, 0, 54, 0
2, 5237, Note_on_c, 0, 65, 0
2, 5240, Note_on_c, 0, 61, 0
2, 5280, Control_c, 0, 64, 0
2, 5281, Note_on_c, 0, 69, 59
2, 5282, Note_on_c, 0, 65, 52
2, 5283, Note_on_c, 0, 60, 41
2, 5283, Note_on_c, 0, 72, 49
2, 5285, Note_on_c, 0, 53, 43
2, 5285, Note_on_c, 0, 64, 53
2, 5286, Note_on_c, 0, 57, 54
2, 5352, Control_c, 0, 64, 127
2, 5382, Note_on_c, 0, 60, 0
2, 5393, Note_on_c, 0, 57, 0
2, 5396, Note_on_c, 0, 72, 0
2, 5398, Note_on_c, 0, 69, 0
2, 5400, Note_on_c, 0, 65, 0
2, 5403, Note_on_c, 0, 53, 0
2, 5407, Note_on_c, 0, 64, 0
2, 5591, Note_on_c, 0, 68, 77
2, 5591, Note_on_c, 0, 71, 75
2, 5592, Note_on_c, 0, 59, 70
2, 5592, Note_on_c, 0, 64, 90
2, 5595, Note_on_c, 0, 53, 60
2, 5601, Control_c, 0, 64, 0
2, 5638, Control_c, 0, 64, 127
2, 5683, Note_on_c, 0, 59, 0
2, 5686, Note_on_c, 0, 53, 0
2, 5695, Note_on_c, 0, 68, 0
2, 5703, Note_on_c, 0, 64, 0
2, 5712, Note_on_c, 0, 71, 0
2, 5751, Note_on_c, 0, 64, 62
2, 5751, Note_on_c, 0, 69, 64
2, 5752, Note_on_c, 0, 60, 53
2, 5753, Control_c, 0, 64, 0
2, 5753, Note_on_c, 0, 57, 49
2, 5758, Note_on_c, 0, 52, 39
2, 5811, Control_c, 0, 64, 127
2, 5848, Note_on_c, 0, 52, 0
2, 5860, Note_on_c, 0, 57, 0
2, 5867, Note_on_c, 0, 60, 0
2, 5885, Note_on_c, 0, 64, 0
2, 5895, Note_on_c, 0, 69, 0
2, 5986, Note_on_c, 0, 75, 57
2, 5986, Note_on_c, 0, 63, 56
2, 5988, Note_on_c, 0, 68, 58
2, 5990, Control_c, 0, 64, 0
2, 5990, Note_on_c, 0, 60, 53
2, 5990, Note_on_c, 0, 72, 53
2, 5991, Note_on_c, 0, 54, 42
2, 5993, Note_on_c, 0, 50, 40
2, 6062, Control_c, 0, 64, 127
2, 6113, Note_on_c, 0, 60, 0
2, 6128, Note_on_c, 0, 72, 0
2, 6130, Note_on_c, 0, 63, 0
2, 6137, Note_on_c, 0, 54, 0
2, 6138, Note_on_c, 0, 75, 0
2, 6146, Note_on_c, 0, 68, 0
2, 6202, Note_on_c, 0, 50, 0
2, 6222, Control_c, 0, 64, 0
2, 6223, Note_on_c, 0, 74, 60
2, 6223, Note_on_c, 0, 50, 20
2, 6223, Note_on_c, 0, 66, 48
2, 6225, Note_on_c, 0, 71, 54
2, 6228, Note_on_c, 0, 59, 39
2, 6238, Note_on_c, 0, 50, 0
2, 6242, Note_on_c, 0, 74, 0
2, 6245, Note_on_c, 0, 71, 0
2, 6252, Note_on_c, 0, 66, 0
2, 6258, Control_c, 0, 64, 127
2, 6305, Note_on_c, 0, 70, 9
2, 6308, Control_c, 0, 64, 0
2, 6308, Note_on_c, 0, 66, 51
2, 6311, Note_on_c, 0, 50, 59
2, 6327, Note_on_c, 0, 50, 0
2, 6327, Note_on_c, 0, 66, 0
2, 6332, Note_on_c, 0, 70, 0
2, 6332, Note_on_c, 0, 59, 0
2, 6427, Note_on_c, 0, 67, 71
2, 6428, Note_on_c, 0, 62, 68
2, 6428, Note_on_c, 0, 74, 64
2, 6431, Note_on_c, 0, 71, 55
2, 6431, Note_on_c, 0, 51, 52
2, 6432, Note_on_c, 0, 57, 53
2, 6440, Note_on_c, 0, 57, 0
2, 6440, Note_on_c, 0, 71, 0
2, 6441, Note_on_c, 0, 67, 0
2, 6443, Note_on_c, 0, 62, 0
2, 6447, Note_on_c, 0, 74, 0
2, 6450, Note_on_c, 0, 51, 0
2, 6552, Note_on_c, 0, 71, 62
2, 6553, Note_on_c, 0, 66, 49
2, 6555, Note_on_c, 0, 62, 54
2, 6560, Note_on_c, 0, 57, 41
2, 6561, Note_on_c, 0, 51, 48
2, 6592, Control_c, 0, 64, 127
2, 6613, Note_on_c, 0, 57, 0
2, 6626, Note_on_c, 0, 71, 0
2, 6630, Note_on_c, 0, 66, 0
2, 6635, Note_on_c, 0, 62, 0
2, 6641, Note_on_c, 0, 51, 0
2, 6717, Note_on_c, 0, 59, 67
2, 6718, Note_on_c, 0, 69, 60
2, 6718, Note_on_c, 0, 66, 48
2, 6718, Note_on_c, 0, 62, 64
2, 6720, Note_on_c, 0, 57, 68
2, 6721, Control_c, 0, 64, 0
2, 6751, Note_on_c, 0, 62, 0
2, 6751, Note_on_c, 0, 59, 0
2, 6752, Note_on_c, 0, 69, 0
2, 6753, Note_on_c, 0, 66, 0
2, 6760, Note_on_c, 0, 57, 0
2, 6766, Note_on_c, 0, 55, 52
2, 6775, Note_on_c, 0, 55, 0
2, 6791, Note_on_c, 0, 57, 55
2, 6795, Note_on_c, 0, 59, 52
2, 6795, Note_on_c, 0, 69, 45
2, 6795, Note_on_c, 0, 66, 38
2, 6796, Note_on_c, 0, 62, 55
2, 6896, Control_c, 0, 64, 127
2, 6938, Note_on_c, 0, 59, 0
2, 6942, Note_on_c, 0, 62, 0
2, 6946, Note_on_c, 0, 66, 0
2, 6952, Note_on_c, 0, 69, 0
2, 6957, Note_on_c, 0, 57, 0
2, 6957, Control_c, 0, 64, 0
2, 6958, Note_on_c, 0, 67, 43
2, 6960, Note_on_c, 0, 55, 50
2, 6962, Note_on_c, 0, 59, 16
2, 6965, Note_on_c, 0, 62, 24
2, 7008, Note_on_c, 0, 62, 0
2, 7012, Note_on_c, 0, 59, 0
2, 7012, Control_c, 0, 64, 127
2, 7026, Note_on_c, 0, 67, 0
2, 7031, Note_on_c, 0, 55, 0
2, 7032, Note_on_c, 0, 54, 47
2, 7033, Note_on_c, 0, 59, 24
2, 7037, Note_on_c, 0, 66, 25
2, 7050, Control_c, 0, 64, 0
2, 7052, Note_on_c, 0, 59, 0
2, 7056, Note_on_c, 0, 66, 0
2, 7073, Note_on_c, 0, 59, 26
2, 7076, Note_on_c, 0, 55, 39
2, 7077, Note_on_c, 0, 67, 49
2, 7078, Note_on_c, 0, 66, 17
2, 7081, Note_on_c, 0, 62, 29
2, 7091, Note_on_c, 0, 62, 0
2, 7093, Control_c, 0, 64, 127
2, 7102, Note_on_c, 0, 54, 0
2, 7105, Note_on_c, 0, 66, 0
2, 7106, Note_on_c, 0, 59, 0
2, 7128, Note_on_c, 0, 67, 0
2, 7130, Note_on_c, 0, 55, 0
2, 7162, Note_on_c, 0, 55, 54
2, 7162, Note_on_c, 0, 64, 55
2, 7162, Note_on_c, 0, 67, 52
2, 7163, Note_on_c, 0, 60, 30
2, 7163, Control_c, 0, 64, 0
2, 7170, Note_on_c, 0, 52, 54
2, 7256, Control_c, 0, 64, 127
2, 7303, Note_on_c, 0, 52, 0
2, 7306, Note_on_c, 0, 55, 0
2, 7322, Note_on_c, 0, 60, 0
2, 7331, Note_on_c, 0, 64, 0
2, 7353, Note_on_c, 0, 67, 0
2, 7398, Note_on_c, 0, 60, 48
2, 7400, Note_on_c, 0, 66, 45
2, 7400, Note_on_c, 0, 69, 48
2, 7401, Note_on_c, 0, 57, 42
2, 7405, Control_c, 0, 64, 0
2, 7406, Note_on_c, 0, 50, 38
2, 7448, Control_c, 0, 64, 127
2, 7466, Note_on_c, 0, 60, 0
2, 7483, Note_on_c, 0, 50, 0
2, 7486, Note_on_c, 0, 66, 0
2, 7486, Note_on_c, 0, 57, 0
2, 7490, Note_on_c, 0, 69, 0
2, 7686, Note_on_c, 0, 92, 64
2, 7687, Note_on_c, 0, 87, 69
2, 7687, Note_on_c, 0, 78, 67
2, 7687, Note_on_c, 0, 65, 76
2, 7688, Note_on_c, 0, 58, 61
2, 7690, Note_on_c, 0, 54, 62
2, 7691, Note_on_c, 0, 60, 60
2, 7692, Control_c, 0, 64, 0
2, 7765, Control_c, 0, 64, 127
2, 8033, Note_on_c, 0, 78, 0
2, 8035, Note_on_c, 0, 60, 0
2, 8037, Note_on_c, 0, 92, 0
2, 8040, Note_on_c, 0, 65, 0
2, 8040, Note_on_c, 0, 87, 0
2, 8052, Note_on_c, 0, 58, 0
2, 8058, Note_on_c, 0, 54, 0
2, 8153, Note_on_c, 0, 91, 83
2, 8156, Note_on_c, 0, 79, 71
2, 8156, Note_on_c, 0, 86, 80
2, 8156, Note_on_c, 0, 77, 78
2, 8156, Note_on_c, 0, 64, 87
2, 8158, Note_on_c, 0, 59, 78
2, 8158, Note_on_c, 0, 53, 73
2, 8166, Control_c, 0, 64, 0
2, 8178, Note_on_c, 0, 91, 0
2, 8180, Note_on_c, 0, 64, 0
2, 8180, Note_on_c, 0, 86, 0
2, 8181, Note_on_c, 0, 77, 0
2, 8182, Note_on_c, 0, 79, 0
2, 8183, Note_on_c, 0, 59, 0
2, 8188, Note_on_c, 0, 53, 0
2, 8271, Note_on_c, 0, 43, 91
2, 8273, Note_on_c, 0, 31, 91
2, 8340, Control_c, 0, 64, 127
2, 8381, Note_on_c, 0, 31, 0
2, 8392, Note_on_c, 0, 43, 0
2, 8608, Note_on_c, 0, 50, 32
2, 8623, Note_on_c, 0, 50, 0
2, 8631, Note_on_c, 0, 57, 39
2, 8632, Note_on_c, 0, 67, 39
2, 8632, Note_on_c, 0, 62, 45
2, 8635, Control_c, 0, 64, 0
2, 8636, Note_on_c, 0, 52, 47
2, 8712, Control_c, 0, 64, 127
2, 8753, Note_on_c, 0, 52, 0
2, 8756, Note_on_c, 0, 57, 0
2, 8766, Note_on_c, 0, 62, 0
2, 8771, Note_on_c, 0, 67, 0
2, 8873, Note_on_c, 0, 71, 78
2, 8875, Note_on_c, 0, 61, 81
2, 8876, Note_on_c, 0, 63, 76
2, 8876, Note_on_c, 0, 67, 71
2, 8877, Note_on_c, 0, 59, 81
2, 8883, Control_c, 0, 64, 0
2, 8970, Control_c, 0, 64, 127
2, 9035, Note_on_c, 0, 63, 0
2, 9042, Note_on_c, 0, 67, 0
2, 9042, Note_on_c, 0, 59, 0
2, 9046, Note_on_c, 0, 71, 0
2, 9051, Note_on_c, 0, 61, 0
2, 9123, Control_c, 0, 64, 0
2, 9126, Note_on_c, 0, 60, 46
2, 9126, Note_on_c, 0, 65, 54
2, 9127, Note_on_c, 0, 69, 54
2, 9128, Note_on_c, 0, 57, 31
2, 9131, Note_on_c, 0, 50, 39
2, 9182, Control_c, 0, 64, 127
2, 9198, Note_on_c, 0, 60, 0
2, 9220, Note_on_c, 0, 50, 0
2, 9225, Note_on_c, 0, 65, 0
2, 9231, Note_on_c, 0, 57, 0
2, 9240, Note_on_c, 0, 69, 0
2, 9347, Note_on_c, 0, 82, 67
2, 9355, Note_on_c, 0, 79, 64
2, 9356, Note_on_c, 0, 75, 70
2, 9358, Note_on_c, 0, 70, 61
2, 9358, Note_on_c, 0, 64, 36
2, 9360, Note_on_c, 0, 53, 44
2, 9360, Note_on_c, 0, 59, 51
2, 9361, Control_c, 0, 64, 0
2, 9421, Control_c, 0, 64, 127
2, 9486, Note_on_c, 0, 59, 0
2, 9495, Note_on_c, 0, 64, 0
2, 9497, Note_on_c, 0, 79, 0
2, 9505, Note_on_c, 0, 82, 0
2, 9515, Note_on_c, 0, 53, 0
2, 9518, Note_on_c, 0, 70, 0
2, 9526, Note_on_c, 0, 75, 0
2, 9596, Note_on_c, 0, 79, 58
2, 9601, Note_on_c, 0, 62, 37
2, 9601, Control_c, 0, 64, 0
2, 9601, Note_on_c, 0, 71, 44
2, 9602, Note_on_c, 0, 57, 35
2, 9603, Note_on_c, 0, 76, 42
2, 9605, Note_on_c, 0, 52, 41
2, 9605, Note_on_c, 0, 74, 48
2, 9607, Note_on_c, 0, 69, 33
2, 9677, Control_c, 0, 64, 127
2, 9721, Note_on_c, 0, 79, 0
2, 9723, Note_on_c, 0, 76, 0
2, 9737, Note_on_c, 0, 71, 0
2, 9740, Note_on_c, 0, 74, 0
2, 9753, Note_on_c, 0, 69, 0
2, 9763, Note_on_c, 0, 62, 0
2, 9803, Note_on_c, 0, 57, 0
2, 9835, Note_on_c, 0, 52, 0
2, 10153, Note_on_c, 0, 67, 59
2, 10155, Note_on_c, 0, 57, 55
2, 10155, Note_on_c, 0, 60, 57
2, 10156, Note_on_c, 0, 55, 66
2, 10157, Note_on_c, 0, 64, 47
2, 10163, Note_on_c, 0, 57, 0
2, 10165, Note_on_c, 0, 55, 0
2, 10166, Note_on_c, 0, 60, 0
2, 10167, Note_on_c, 0, 64, 0
2, 10171, Control_c, 0, 64, 0
2, 10172, Note_on_c, 0, 67, 0
2, 10276, Note_on_c, 0, 64, 51
2, 10276, Note_on_c, 0, 60, 54
2, 10276, Note_on_c, 0, 56, 42
2, 10277, Note_on_c, 0, 53, 44
2, 10280, Note_on_c, 0, 43, 44
2, 10280, Note_on_c, 0, 52, 40
2, 10503, Note_on_c, 0, 53, 0
2, 10503, Control_c, 0, 64, 127
2, 10511, Note_on_c, 0, 64, 0
2, 10518, Note_on_c, 0, 60, 0
2, 10520, Note_on_c, 0, 56, 0
2, 10521, Note_on_c, 0, 50, 36
2, 10522, Note_on_c, 0, 52, 0
2, 10532, Note_on_c, 0, 50, 0
2, 10551, Control_c, 0, 64, 0
2, 10567, Note_on_c, 0, 62, 1
2, 10568, Note_on_c, 0, 55, 49
2, 10572, Note_on_c, 0, 59, 50
2, 10575, Note_on_c, 0, 64, 28
2, 10576, Note_on_c, 0, 52, 45
2, 10736, Control_c, 0, 64, 127
2, 10822, Note_on_c, 0, 59, 0
2, 10825, Note_on_c, 0, 55, 0
2, 10828, Note_on_c, 0, 52, 0
2, 10841, Note_on_c, 0, 62, 0
2, 10841, Note_on_c, 0, 64, 0
2, 10921, Control_c, 0, 64, 0
2, 10921, Note_on_c, 0, 64, 65
2, 10921, Note_on_c, 0, 56, 59
2, 10923, Note_on_c, 0, 53, 64
2, 10925, Note_on_c, 0, 59, 65
2, 10926, Note_on_c, 0, 52, 54
2, 10976, Note_on_c, 0, 56, 0
2, 10981, Note_on_c, 0, 53, 0
2, 10981, Control_c, 0, 64, 127
2, 10986, Note_on_c, 0, 59, 0
2, 10995, Note_on_c, 0, 52, 0
2, 10996, Note_on_c, 0, 64, 0
2, 11008, Note_on_c, 0, 62, 29
2, 11011, Note_on_c, 0, 55, 67
2, 11013, Note_on_c, 0, 64, 53
2, 11016, Note_on_c, 0, 59, 68
2, 11016, Control_c, 0, 64, 0
2, 11017, Note_on_c, 0, 52, 44
2, 11102, Control_c, 0, 64, 127
2, 11160, Note_on_c, 0, 55, 0
2, 11160, Note_on_c, 0, 43, 0
2, 11170, Note_on_c, 0, 52, 0
2, 11175, Note_on_c, 0, 59, 0
2, 11185, Note_on_c, 0, 64, 0
2, 11186, Note_on_c, 0, 62, 0
2, 11267, Note_on_c, 0, 79, 75
2, 11268, Note_on_c, 0, 70, 70
2, 11270, Note_on_c, 0, 73, 70
2, 11270, Note_on_c, 0, 64, 68
2, 11276, Control_c, 0, 64, 0
2, 11311, Note_on_c, 0, 79, 0
2, 11315, Note_on_c, 0, 73, 0
2, 11316, Note_on_c, 0, 70, 0
2, 11320, Control_c, 0, 64, 127
2, 11351, Note_on_c, 0, 64, 0
2, 11352, Note_on_c, 0, 76, 62
2, 11353, Note_on_c, 0, 61, 31
2, 11355, Note_on_c, 0, 70, 45
2, 11356, Note_on_c, 0, 67, 38
2, 11360, Control_c, 0, 64, 0
2, 11368, Note_on_c, 0, 67, 0
2, 11377, Note_on_c, 0, 76, 0
2, 11381, Note_on_c, 0, 70, 0
2, 11395, Note_on_c, 0, 61, 0
2, 11396, Note_on_c, 0, 58, 31
2, 11446, Control_c, 0, 64, 127
2, 11458, Note_on_c, 0, 58, 0
2, 11470, Control_c, 0, 64, 0
2, 11471, Note_on_c, 0, 65, 34
2, 11472, Note_on_c, 0, 76, 37
2, 11473, Note_on_c, 0, 69, 55
2, 11475, Note_on_c, 0, 60, 43
2, 11475, Note_on_c, 0, 72, 44
2, 11573, Control_c, 0, 64, 127
2, 11638, Note_on_c, 0, 65, 0
2, 11640, Note_on_c, 0, 69, 0
2, 11642, Note_on_c, 0, 72, 0
2, 11652, Note_on_c, 0, 76, 0
2, 11657, Note_on_c, 0, 60, 0
2, 11756, Note_on_c, 0, 79, 69
2, 11757, Note_on_c, 0, 64, 61
2, 11757, Note_on_c, 0, 69, 68
2, 11758, Note_on_c, 0, 73, 58
2, 11758, Note_on_c, 0, 76, 61
2, 11758, Control_c, 0, 64, 0
2, 11778, Note_on_c, 0, 69, 0
2, 11780, Note_on_c, 0, 73, 0
2, 11781, Note_on_c, 0, 76, 0
2, 11785, Note_on_c, 0, 79, 0
2, 11787, Note_on_c, 0, 64, 0
2, 11790, Note_on_c, 0, 61, 37
2, 11843, Control_c, 0, 64, 127
2, 11850, Note_on_c, 0, 61, 0
2, 11850, Control_c, 0, 64, 0
2, 11876, Note_on_c, 0, 73, 50
2, 11876, Note_on_c, 0, 61, 49
2, 11877, Note_on_c, 0, 65, 47
2, 11881, Note_on_c, 0, 69, 44
2, 11891, Note_on_c, 0, 69, 0
2, 11895, Control_c, 0, 64, 127
2, 11896, Note_on_c, 0, 65, 0
2, 11896, Note_on_c, 0, 73, 0
2, 11910, Note_on_c, 0, 61, 0
2, 11920, Note_on_c, 0, 60, 48
2, 11927, Control_c, 0, 64, 0
2, 11967, Control_c, 0, 64, 127
2, 11980, Control_c, 0, 64, 0
2, 11981, Note_on_c, 0, 60, 0
2, 11995, Note_on_c, 0, 65, 47
2, 11996, Note_on_c, 0, 69, 54
2, 11997, Note_on_c, 0, 57, 46
2, 12001, Note_on_c, 0, 60, 24
2, 12010, Note_on_c, 0, 60, 0
2, 12010, Note_on_c, 0, 65, 0
2, 12015, Note_on_c, 0, 69, 0
2, 12030, Note_on_c, 0, 57, 0
2, 12077, Note_on_c, 0, 43, 43
2, 12117, Note_on_c, 0, 59, 48
2, 12118, Note_on_c, 0, 63, 51
2, 12120, Note_on_c, 0, 67, 42
2, 12123, Note_on_c, 0, 53, 22
2, 12172, Control_c, 0, 64, 127
2, 12275, Note_on_c, 0, 59, 0
2, 12277, Note_on_c, 0, 43, 0
2, 12283, Note_on_c, 0, 53, 0
2, 12288, Note_on_c, 0, 63, 0
2, 12291, Note_on_c, 0, 67, 0
2, 12397, Note_on_c, 0, 56, 58
2, 12398, Note_on_c, 0, 62, 66
2, 12400, Note_on_c, 0, 71, 62
2, 12401, Note_on_c, 0, 68, 44
2, 12408, Note_on_c, 0, 62, 0
2, 12412, Note_on_c, 0, 71, 0
2, 12413, Note_on_c, 0, 68, 0
2, 12432, Note_on_c, 0, 74, 78
2, 12433, Note_on_c, 0, 59, 61
2, 12436, Note_on_c, 0, 65, 56
2, 12443, Note_on_c, 0, 65, 0
2, 12448, Note_on_c, 0, 74, 0
2, 12453, Note_on_c, 0, 59, 0
2, 12462, Note_on_c, 0, 56, 0
2, 12465, Control_c, 0, 64, 0
2, 12473, Note_on_c, 0, 72, 60
2, 12475, Note_on_c, 0, 67, 54
2, 12478, Note_on_c, 0, 60, 31
2, 12478, Note_on_c, 0, 57, 36
2, 12480, Note_on_c, 0, 62, 36
2, 12488, Note_on_c, 0, 62, 0
2, 12565, Control_c, 0, 64, 127
2, 12610, Note_on_c, 0, 57, 0
2, 12625, Note_on_c, 0, 60, 0
2, 12677, Note_on_c, 0, 72, 0
2, 12680, Note_on_c, 0, 67, 0
2, 12721, Note_on_c, 0, 64, 50
2, 12725, Note_on_c, 0, 68, 48
2, 12725, Control_c, 0, 64, 0
2, 12726, Note_on_c, 0, 72, 36
2, 12727, Note_on_c, 0, 56, 40
2, 12773, Control_c, 0, 64, 127
2, 12857, Note_on_c, 0, 56, 0
2, 12902, Note_on_c, 0, 72, 0
2, 12902, Note_on_c, 0, 64, 0
2, 12920, Note_on_c, 0, 68, 0
2, 12951, Note_on_c, 0, 72, 48
2, 12952, Control_c, 0, 64, 0
2, 12955, Note_on_c, 0, 67, 41
2, 12956, Note_on_c, 0, 64, 31
2, 12956, Note_on_c, 0, 55, 44
2, 12960, Control_c, 0, 64, 127
2, 12973, Note_on_c, 0, 64, 0
2, 12987, Note_on_c, 0, 67, 0
2, 12996, Note_on_c, 0, 72, 0
2, 13002, Note_on_c, 0, 55, 0
2, 13083, Note_on_c, 0, 88, 84
2, 13083, Note_on_c, 0, 81, 80
2, 13085, Note_on_c, 0, 76, 77
2, 13085, Note_on_c, 0, 64, 81
2, 13086, Note_on_c, 0, 84, 79
2, 13086, Note_on_c, 0, 54, 69
2, 13087, Note_on_c, 0, 57, 70
2, 13087, Note_on_c, 0, 60, 66
2, 13095, Control_c, 0, 64, 0
2, 13132, Control_c, 0, 64, 127
2, 13193, Note_on_c, 0, 88, 0
2, 13197, Note_on_c, 0, 84, 0
2, 13197, Note_on_c, 0, 81, 0
2, 13197, Note_on_c, 0, 76, 0
2, 13198, Note_on_c, 0, 57, 0
2, 13205, Note_on_c, 0, 60, 0
2, 13211, Note_on_c, 0, 64, 0
2, 13212, Note_on_c, 0, 54, 0
2, 13277, Note_on_c, 0, 81, 57
2, 13278, Note_on_c, 0, 84, 62
2, 13280, Note_on_c, 0, 64, 45
2, 13280, Note_on_c, 0, 72, 50
2, 13281, Control_c, 0, 64, 0
2, 13281, Note_on_c, 0, 54, 38
2, 13281, Note_on_c, 0, 77, 51
2, 13282, Note_on_c, 0, 57, 39
2, 13282, Note_on_c, 0, 60, 31
2, 13306, Control_c, 0, 64, 127
2, 13336, Note_on_c, 0, 84, 0
2, 13338, Note_on_c, 0, 60, 0
2, 13340, Note_on_c, 0, 81, 0
2, 13341, Note_on_c, 0, 57, 0
2, 13347, Note_on_c, 0, 72, 0
2, 13348, Note_on_c, 0, 64, 0
2, 13350, Note_on_c, 0, 77, 0
2, 13357, Note_on_c, 0, 54, 0
2, 13433, Note_on_c, 0, 82, 54
2, 13433, Note_on_c, 0, 55, 48
2, 13435, Control_c, 0, 64, 0
2, 13436, Note_on_c, 0, 62, 37
2, 13436, Note_on_c, 0, 53, 41
2, 13437, Note_on_c, 0, 70, 38
2, 13438, Note_on_c, 0, 58, 38
2, 13441, Note_on_c, 0, 77, 46
2, 13481, Control_c, 0, 64, 127
2, 13538, Note_on_c, 0, 77, 0
2, 13541, Note_on_c, 0, 82, 0
2, 13548, Note_on_c, 0, 53, 0
2, 13550, Note_on_c, 0, 55, 0
2, 13551, Note_on_c, 0, 70, 0
2, 13553, Note_on_c, 0, 62, 0
2, 13558, Note_on_c, 0, 58, 0
2, 13673, Control_c, 0, 64, 0
2, 13675, Note_on_c, 0, 75, 75
2, 13675, Note_on_c, 0, 68, 83
2, 13675, Note_on_c, 0, 63, 83
2, 13676, Note_on_c, 0, 72, 74
2, 13677, Note_on_c, 0, 64, 88
2, 13737, Note_on_c, 0, 64, 0
2, 13737, Note_on_c, 0, 68, 0
2, 13740, Note_on_c, 0, 75, 0
2, 13742, Note_on_c, 0, 72, 0
2, 13750, Note_on_c, 0, 63, 0
2, 13751, Control_c, 0, 64, 127
2, 13753, Note_on_c, 0, 73, 62
2, 13755, Note_on_c, 0, 61, 51
2, 13755, Note_on_c, 0, 68, 44
2, 13756, Note_on_c, 0, 64, 56
2, 13782, Control_c, 0, 64, 0
2, 13785, Note_on_c, 0, 64, 0
2, 13792, Note_on_c, 0, 73, 0
2, 13795, Note_on_c, 0, 61, 0
2, 13803, Note_on_c, 0, 60, 45
2, 13808, Note_on_c, 0, 72, 33
2, 13815, Note_on_c, 0, 64, 17
2, 13848, Note_on_c, 0, 64, 0
2, 13848, Note_on_c, 0, 68, 0
2, 13858, Note_on_c, 0, 72, 0
2, 13858, Control_c, 0, 64, 127
2, 13861, Note_on_c, 0, 60, 0
2, 13876, Note_on_c, 0, 58, 38
2, 13876, Note_on_c, 0, 70, 50
2, 13877, Note_on_c, 0, 68, 33
2, 13878, Note_on_c, 0, 64, 51
2, 13892, Note_on_c, 0, 68, 0
2, 13896, Note_on_c, 0, 64, 0
2, 13896, Note_on_c, 0, 70, 0
2, 13913, Control_c, 0, 64, 0
2, 13916, Note_on_c, 0, 58, 0
2, 13927, Note_on_c, 0, 57, 46
2, 13928, Note_on_c, 0, 69, 49
2, 13931, Note_on_c, 0, 60, 26
2, 13935, Note_on_c, 0, 64, 32
2, 13967, Note_on_c, 0, 64, 0
2, 13975, Note_on_c, 0, 60, 0
2, 13987, Note_on_c, 0, 69, 0
2, 13990, Note_on_c, 0, 57, 0
2, 14001, Note_on_c, 0, 60, 36
2, 14002, Note_on_c, 0, 53, 44
2, 14002, Note_on_c, 0, 64, 40
2, 14011, Note_on_c, 0, 64, 0
2, 14015, Note_on_c, 0, 53, 0
2, 14017, Note_on_c, 0, 60, 0
2, 14121, Note_on_c, 0, 56, 60
2, 14122, Note_on_c, 0, 63, 51
2, 14123, Note_on_c, 0, 67, 54
2, 14123, Note_on_c, 0, 60, 54
2, 14126, Note_on_c, 0, 55, 53
2, 14135, Note_on_c, 0, 55, 0
2, 14137, Note_on_c, 0, 67, 0
2, 14141, Note_on_c, 0, 60, 0
2, 14142, Note_on_c, 0, 56, 0
2, 14147, Note_on_c, 0, 63, 0
2, 14240, Note_on_c, 0, 65, 57
2, 14240, Note_on_c, 0, 56, 43
2, 14241, Note_on_c, 0, 53, 37
2, 14242, Note_on_c, 0, 58, 43
2, 14242, Note_on_c, 0, 62, 46
2, 14245, Note_on_c, 0, 46, 25
2, 14271, Note_on_c, 0, 53, 0
2, 14291, Control_c, 0, 64, 127
2, 14322, Note_on_c, 0, 46, 0
2, 14358, Note_on_c, 0, 58, 0
2, 14358, Note_on_c, 0, 62, 0
2, 14361, Note_on_c, 0, 56, 0
2, 14362, Note_on_c, 0, 65, 0
2, 14398, Control_c, 0, 64, 0
2, 14402, Note_on_c, 0, 64, 35
2, 14403, Note_on_c, 0, 52, 30
2, 14405, Note_on_c, 0, 55, 28
2, 14408, Note_on_c, 0, 59, 20
2, 14445, Control_c, 0, 64, 127
2, 14477, Note_on_c, 0, 43, 53
2, 14498, Note_on_c, 0, 43, 0
2, 14505, Note_on_c, 0, 55, 0
2, 14505, Note_on_c, 0, 52, 0
2, 14508, Note_on_c, 0, 59, 0
2, 14540, Note_on_c, 0, 64, 0
2, 14640, Note_on_c, 0, 65, 66
2, 14640, Note_on_c, 0, 61, 57
2, 14641, Note_on_c, 0, 72, 57
2, 14641, Note_on_c, 0, 60, 49
2, 14642, Note_on_c, 0, 69, 49
2, 14643, Control_c, 0, 64, 0
2, 14671, Note_on_c, 0, 60, 0
2, 14680, Control_c, 0, 64, 127
2, 14718, Note_on_c, 0, 43, 61
2, 14727, Control_c, 0, 64, 0
2, 14746, Control_c, 0, 64, 127
2, 14757, Note_on_c, 0, 43, 0
2, 14781, Note_on_c, 0, 69, 0
2, 14782, Note_on_c, 0, 72, 0
2, 14790, Note_on_c, 0, 65, 0
2, 14807, Note_on_c, 0, 61, 0
2, 14878, Note_on_c, 0, 62, 47
2, 14882, Note_on_c, 0, 57, 43
2, 14883, Note_on_c, 0, 55, 49
2, 14885, Note_on_c, 0, 60, 29
2, 14886, Control_c, 0, 64, 0
2, 14943, Note_on_c, 0, 55, 0
2, 14961, Note_on_c, 0, 43, 76
2, 14986, Control_c, 0, 64, 127
2, 15031, Note_on_c, 0, 57, 0
2, 15035, Note_on_c, 0, 60, 0
2, 15041, Note_on_c, 0, 62, 0
2, 15118, Note_on_c, 0, 70, 71
2, 15121, Control_c, 0, 64, 0
2, 15122, Note_on_c, 0, 63, 63
2, 15122, Note_on_c, 0, 53, 54
2, 15125, Note_on_c, 0, 67, 54
2, 15125, Note_on_c, 0, 59, 53
2, 15143, Note_on_c, 0, 43, 0
2, 15198, Note_on_c, 0, 43, 55
2, 15223, Control_c, 0, 64, 127
2, 15273, Note_on_c, 0, 67, 0
2, 15276, Note_on_c, 0, 70, 0
2, 15302, Note_on_c, 0, 63, 0
2, 15302, Note_on_c, 0, 53, 0
2, 15302, Note_on_c, 0, 59, 0
2, 15352, Note_on_c, 0, 57, 46
2, 15352, Note_on_c, 0, 67, 48
2, 15355, Note_on_c, 0, 62, 46
2, 15355, Note_on_c, 0, 52, 39
2, 15358, Note_on_c, 0, 43, 0
2, 15362, Control_c, 0, 64, 0
2, 15435, Note_on_c, 0, 43, 71
2, 15480, Control_c, 0, 64, 127
2, 15631, Note_on_c, 0, 52, 0
2, 15680, Note_on_c, 0, 57, 0
2, 15683, Note_on_c, 0, 55, 92
2, 15848, Note_on_c, 0, 62, 0
2, 15958, Note_on_c, 0, 67, 0
2, 15965, Note_on_c, 0, 55, 0
2, 16151, Note_on_c, 0, 43, 0
2, 16321, Note_on_c, 0, 79, 62
2, 16321, Note_on_c, 0, 69, 61
2, 16325, Note_on_c, 0, 74, 51
2, 16327, Note_on_c, 0, 62, 58
2, 16328, Control_c, 0, 64, 0
2, 16328, Note_on_c, 0, 57, 53
2, 16331, Note_on_c, 0, 52, 36
2, 16335, Note_on_c, 0, 74, 0
2, 16336, Note_on_c, 0, 62, 0
2, 16337, Note_on_c, 0, 69, 0
2, 16338, Note_on_c, 0, 57, 0
2, 16340, Note_on_c, 0, 79, 0
2, 16341, Note_on_c, 0, 52, 0
2, 16446, Control_c, 0, 64, 127
2, 16558, Control_c, 0, 64, 0
2, 16561, Note_on_c, 0, 95, 50
2, 16562, Note_on_c, 0, 64, 37
2, 16563, Note_on_c, 0, 55, 41
2, 16563, Note_on_c, 0, 83, 40
2, 16563, Note_on_c, 0, 59, 54
2, 16563, Note_on_c, 0, 90, 40
2, 16566, Note_on_c, 0, 87, 43
2, 16566, Note_on_c, 0, 61, 44
2, 16577, Control_c, 0, 64, 127
2, 16592, Note_on_c, 0, 87, 0
2, 16597, Note_on_c, 0, 90, 0
2, 16598, Note_on_c, 0, 83, 0
2, 16600, Note_on_c, 0, 95, 0
2, 16601, Note_on_c, 0, 59, 0
2, 16601, Control_c, 0, 64, 0
2, 16603, Note_on_c, 0, 64, 0
2, 16603, Note_on_c, 0, 55, 0
2, 16607, Note_on_c, 0, 61, 0
2, 16671, Control_c, 0, 64, 127
2, 16677, Note_on_c, 0, 95, 57
2, 16678, Note_on_c, 0, 90, 46
2, 16680, Note_on_c, 0, 64, 47
2, 16680, Note_on_c, 0, 83, 44
2, 16680, Note_on_c, 0, 61, 39
2, 16681, Note_on_c, 0, 87, 52
2, 16683, Note_on_c, 0, 59, 31
2, 16683, Note_on_c, 0, 55, 37
2, 16730, Note_on_c, 0, 59, 0
2, 16731, Note_on_c, 0, 83, 0
2, 16731, Note_on_c, 0, 61, 0
2, 16731, Note_on_c, 0, 87, 0
2, 16732, Note_on_c, 0, 55, 0
2, 16736, Note_on_c, 0, 90, 0
2, 16738, Note_on_c, 0, 95, 0
2, 16740, Note_on_c, 0, 64, 0
2, 16800, Note_on_c, 0, 65, 62
2, 16801, Note_on_c, 0, 96, 54
2, 16801, Note_on_c, 0, 84, 45
2, 16802, Note_on_c, 0, 55, 39
2, 16803, Note_on_c, 0, 57, 52
2, 16803, Note_on_c, 0, 93, 36
2, 16803, Note_on_c, 0, 60, 51
2, 16806, Note_on_c, 0, 89, 49
2, 16806, Control_c, 0, 64, 0
2, 16850, Control_c, 0, 64, 127
2, 16913, Note_on_c, 0, 96, 0
2, 16916, Note_on_c, 0, 84, 0
2, 16918, Note_on_c, 0, 93, 0
2, 16920, Note_on_c, 0, 89, 0
2, 16921, Note_on_c, 0, 65, 0
2, 16922, Note_on_c, 0, 60, 0
2, 16935, Note_on_c, 0, 55, 0
2, 16937, Note_on_c, 0, 57, 0
2, 16995, Note_on_c, 0, 91, 51
2, 16996, Note_on_c, 0, 79, 45
2, 16997, Note_on_c, 0, 64, 44
2, 16998, Note_on_c, 0, 86, 54
2, 16998, Note_on_c, 0, 59, 42
2, 17002, Note_on_c, 0, 53, 37
2, 17003, Control_c, 0, 64, 0
2, 17032, Control_c, 0, 64, 127
2, 17153, Note_on_c, 0, 91, 0
2, 17160, Note_on_c, 0, 86, 0
2, 17173, Note_on_c, 0, 79, 0
2, 17178, Note_on_c, 0, 59, 0
2, 17180, Note_on_c, 0, 64, 0
2, 17195, Note_on_c, 0, 53, 0
2, 17273, Control_c, 0, 64, 0
2, 17278, Note_on_c, 0, 62, 57
2, 17281, Note_on_c, 0, 52, 52
2, 17282, Note_on_c, 0, 83, 43
2, 17283, Note_on_c, 0, 57, 51
2, 17286, Note_on_c, 0, 75, 26
2, 17286, Note_on_c, 0, 71, 30
2, 17287, Note_on_c, 0, 79, 34
2, 17302, Note_on_c, 0, 75, 0
2, 17303, Note_on_c, 0, 79, 0
2, 17305, Note_on_c, 0, 71, 0
2, 17308, Note_on_c, 0, 52, 0
2, 17312, Note_on_c, 0, 57, 0
2, 17312, Note_on_c, 0, 83, 0
2, 17315, Note_on_c, 0, 62, 0
2, 17343, Control_c, 0, 64, 127
2, 17361, Note_on_c, 0, 83, 57
2, 17361, Note_on_c, 0, 71, 57
2, 17362, Note_on_c, 0, 62, 62
2, 17363, Note_on_c, 0, 52, 62
2, 17363, Note_on_c, 0, 57, 56
2, 17363, Note_on_c, 0, 79, 40
2, 17383, Note_on_c, 0, 52, 0
2, 17383, Note_on_c, 0, 71, 0
2, 17385, Note_on_c, 0, 62, 0
2, 17386, Note_on_c, 0, 79, 0
2, 17387, Note_on_c, 0, 57, 0
2, 17387, Note_on_c, 0, 83, 0
2, 17392, Control_c, 0, 64, 0
2, 17408, Note_on_c, 0, 62, 46
2, 17408, Note_on_c, 0, 83, 38
2, 17410, Note_on_c, 0, 71, 47
2, 17410, Note_on_c, 0, 57, 37
2, 17411, Note_on_c, 0, 79, 38
2, 17412, Note_on_c, 0, 52, 37
2, 17421, Note_on_c, 0, 52, 0
2, 17422, Note_on_c, 0, 79, 0
2, 17423, Note_on_c, 0, 71, 0
2, 17423, Note_on_c, 0, 83, 0
2, 17425, Note_on_c, 0, 62, 0
2, 17426, Note_on_c, 0, 57, 0
2, 17460, Control_c, 0, 64, 127
2, 17482, Note_on_c, 0, 62, 49
2, 17483, Note_on_c, 0, 71, 58
2, 17483, Note_on_c, 0, 83, 52
2, 17485, Note_on_c, 0, 57, 40
2, 17486, Note_on_c, 0, 79, 37
2, 17487, Note_on_c, 0, 52, 29
2, 17498, Note_on_c, 0, 52, 0
2, 17502, Note_on_c, 0, 71, 0
2, 17502, Note_on_c, 0, 57, 0
2, 17503, Note_on_c, 0, 62, 0
2, 17505, Note_on_c, 0, 83, 0
2, 17511, Note_on_c, 0, 79, 0
2, 17530, Control_c, 0, 64, 0
2, 17538, Note_on_c, 0, 81, 64
2, 17540, Note_on_c, 0, 62, 51
2, 17541, Note_on_c, 0, 57, 56
2, 17541, Note_on_c, 0, 69, 51
2, 17543, Note_on_c, 0, 52, 36
2, 17550, Note_on_c, 0, 69, 0
2, 17550, Note_on_c, 0, 57, 0
2, 17550, Note_on_c, 0, 62, 0
2, 17552, Note_on_c, 0, 52, 0
2, 17555, Note_on_c, 0, 81, 0
2, 17631, Control_c, 0, 64, 127
2, 17711, Note_on_c, 0, 76, 65
2, 17713, Note_on_c, 0, 64, 65
2, 17717, Note_on_c, 0, 55, 35
2, 17718, Note_on_c, 0, 60, 40
2, 17721, Note_on_c, 0, 57, 33
2, 17727, Note_on_c, 0, 64, 0
2, 17727, Control_c, 0, 64, 0
2, 17732, Note_on_c, 0, 57, 0
2, 17732, Note_on_c, 0, 55, 0
2, 17738, Note_on_c, 0, 76, 0
2, 17738, Note_on_c, 0, 60, 0
2, 17763, Note_on_c, 0, 79, 68
2, 17765, Note_on_c, 0, 74, 54
2, 17765, Note_on_c, 0, 67, 41
2, 17766, Note_on_c, 0, 60, 36
2, 17766, Note_on_c, 0, 55, 30
2, 17768, Note_on_c, 0, 65, 24
2, 17770, Note_on_c, 0, 57, 36
2, 17787, Note_on_c, 0, 65, 0
2, 17797, Note_on_c, 0, 74, 0
2, 17798, Note_on_c, 0, 79, 0
2, 17800, Note_on_c, 0, 67, 0
2, 17801, Note_on_c, 0, 55, 0
2, 17802, Note_on_c, 0, 60, 0
2, 17806, Note_on_c, 0, 57, 0
2, 17808, Control_c, 0, 64, 127
2, 17835, Control_c, 0, 64, 0
2, 17875, Control_c, 0, 64, 127
2, 17948, Note_on_c, 0, 64, 68
2, 17950, Note_on_c, 0, 68, 46
2, 17953, Note_on_c, 0, 76, 39
2, 17955, Note_on_c, 0, 59, 33
2, 17956, Note_on_c, 0, 53, 28
2, 17963, Note_on_c, 0, 68, 0
2, 17966, Note_on_c, 0, 74, 22
2, 17968, Note_on_c, 0, 53, 0
2, 17970, Note_on_c, 0, 64, 0
2, 17972, Note_on_c, 0, 76, 0
2, 17975, Note_on_c, 0, 74, 0
2, 17983, Note_on_c, 0, 59, 0
2, 17996, Control_c, 0, 64, 0
2, 18001, Note_on_c, 0, 59, 59
2, 18001, Note_on_c, 0, 63, 69
2, 18002, Note_on_c, 0, 79, 66
2, 18002, Note_on_c, 0, 67, 52
2, 18003, Note_on_c, 0, 56, 49
2, 18011, Note_on_c, 0, 67, 0
2, 18018, Note_on_c, 0, 63, 0
2, 18022, Note_on_c, 0, 79, 0
2, 18026, Note_on_c, 0, 59, 0
2, 18030, Note_on_c, 0, 56, 0
2, 18078, Note_on_c, 0, 76, 52
2, 18081, Note_on_c, 0, 63, 51
2, 18081, Note_on_c, 0, 68, 38
2, 18083, Note_on_c, 0, 56, 42
2, 18083, Note_on_c, 0, 59, 51
2, 18083, Note_on_c, 0, 64, 45
2, 18083, Note_on_c, 0, 71, 52
2, 18086, Note_on_c, 0, 53, 37
2, 18110, Control_c, 0, 64, 127
2, 18142, Note_on_c, 0, 59, 0
2, 18153, Note_on_c, 0, 76, 0
2, 18163, Note_on_c, 0, 63, 0
2, 18163, Note_on_c, 0, 71, 0
2, 18166, Note_on_c, 0, 64, 0
2, 18173, Note_on_c, 0, 53, 0
2, 18186, Note_on_c, 0, 68, 0
2, 18213, Note_on_c, 0, 56, 0
2, 18236, Note_on_c, 0, 57, 45
2, 18238, Note_on_c, 0, 52, 42
2, 18240, Control_c, 0, 64, 0
2, 18301, Note_on_c, 0, 52, 0
2, 18301, Control_c, 0, 64, 127
2, 18311, Note_on_c, 0, 57, 0
2, 18318, Note_on_c, 0, 57, 28
2, 18320, Note_on_c, 0, 52, 52
2, 18321, Note_on_c, 0, 59, 54
2, 18322, Note_on_c, 0, 62, 50
2, 18323, Note_on_c, 0, 64, 48
2, 18325, Control_c, 0, 64, 0
2, 18368, Control_c, 0, 64, 127
2, 18405, Note_on_c, 0, 57, 0
2, 18441, Note_on_c, 0, 62, 0
2, 18443, Note_on_c, 0, 59, 0
2, 18457, Note_on_c, 0, 64, 0
2, 18477, Note_on_c, 0, 52, 0
2, 18481, Note_on_c, 0, 58, 51
2, 18481, Note_on_c, 0, 55, 58
2, 18482, Note_on_c, 0, 64, 49
2, 18483, Note_on_c, 0, 61, 50
2, 18485, Note_on_c, 0, 67, 33
2, 18487, Control_c, 0, 64, 0
2, 18528, Note_on_c, 0, 67, 0
2, 18533, Control_c, 0, 64, 127
2, 18536, Note_on_c, 0, 64, 0
2, 18546, Note_on_c, 0, 58, 0
2, 18557, Note_on_c, 0, 61, 0
2, 18577, Control_c, 0, 64, 0
2, 18587, Note_on_c, 0, 55, 0
2, 18595, Note_on_c, 0, 64, 38
2, 18596, Note_on_c, 0, 58, 35
2, 18598, Note_on_c, 0, 52, 45
2, 18600, Note_on_c, 0, 61, 25
2, 18601, Note_on_c, 0, 55, 33
2, 18606, Control_c, 0, 64, 127
2, 18650, Note_on_c, 0, 55, 0
2, 18671, Note_on_c, 0, 61, 0
2, 18682, Note_on_c, 0, 64, 0
2, 18683, Note_on_c, 0, 58, 0
2, 18686, Note_on_c, 0, 52, 0
2, 18710, Note_on_c, 0, 55, 58
2, 18711, Note_on_c, 0, 64, 38
2, 18712, Control_c, 0, 64, 0
2, 18713, Note_on_c, 0, 60, 41
2, 18717, Note_on_c, 0, 53, 17
2, 18723, Note_on_c, 0, 59, 28
2, 18732, Note_on_c, 0, 53, 0
2, 18795, Note_on_c, 0, 52, 69
2, 18826, Control_c, 0, 64, 127
2, 18846, Note_on_c, 0, 55, 0
2, 18852, Note_on_c, 0, 52, 0
2, 18865, Note_on_c, 0, 59, 0
2, 18866, Note_on_c, 0, 60, 0
2, 18872, Note_on_c, 0, 64, 0
2, 18951, Note_on_c, 0, 79, 80
2, 18952, Note_on_c, 0, 70, 77
2, 18952, Note_on_c, 0, 73, 77
2, 18953, Note_on_c, 0, 64, 64
2, 18957, Control_c, 0, 64, 0
2, 18998, Control_c, 0, 64, 127
2, 19003, Note_on_c, 0, 79, 0
2, 19013, Note_on_c, 0, 73, 0
2, 19015, Note_on_c, 0, 70, 0
2, 19036, Note_on_c, 0, 64, 0
2, 19036, Note_on_c, 0, 61, 59
2, 19038, Note_on_c, 0, 70, 45
2, 19038, Note_on_c, 0, 67, 56
2, 19040, Note_on_c, 0, 76, 59
2, 19051, Note_on_c, 0, 67, 0
2, 19062, Control_c, 0, 64, 0
2, 19063, Note_on_c, 0, 76, 0
2, 19067, Note_on_c, 0, 70, 0
2, 19071, Note_on_c, 0, 61, 0
2, 19076, Note_on_c, 0, 58, 37
2, 19088, Control_c, 0, 64, 127
2, 19156, Note_on_c, 0, 76, 47
2, 19156, Note_on_c, 0, 65, 41
2, 19158, Note_on_c, 0, 58, 0
2, 19158, Note_on_c, 0, 72, 52
2, 19158, Note_on_c, 0, 69, 58
2, 19162, Note_on_c, 0, 60, 45
2, 19166, Control_c, 0, 64, 0
2, 19210, Control_c, 0, 64, 127
2, 19236, Note_on_c, 0, 76, 0
2, 19237, Note_on_c, 0, 72, 0
2, 19241, Note_on_c, 0, 69, 0
2, 19266, Note_on_c, 0, 65, 0
2, 19312, Note_on_c, 0, 60, 0
2, 19313, Control_c, 0, 64, 0
2, 19315, Note_on_c, 0, 72, 32
2, 19317, Note_on_c, 0, 62, 34
2, 19317, Note_on_c, 0, 69, 39
2, 19317, Note_on_c, 0, 65, 37
2, 19318, Note_on_c, 0, 57, 36
2, 19332, Control_c, 0, 64, 127
2, 19340, Note_on_c, 0, 69, 0
2, 19343, Note_on_c, 0, 72, 0
2, 19351, Note_on_c, 0, 65, 0
2, 19358, Note_on_c, 0, 62, 0
2, 19392, Note_on_c, 0, 69, 50
2, 19393, Note_on_c, 0, 64, 53
2, 19393, Note_on_c, 0, 60, 50
2, 19393, Note_on_c, 0, 53, 58
2, 19393, Note_on_c, 0, 65, 52
2, 19396, Note_on_c, 0, 57, 0
2, 19402, Note_on_c, 0, 67, 31
2, 19412, Note_on_c, 0, 65, 0
2, 19413, Note_on_c, 0, 69, 0
2, 19415, Note_on_c, 0, 67, 0
2, 19416, Note_on_c, 0, 64, 0
2, 19425, Note_on_c, 0, 53, 0
2, 19426, Note_on_c, 0, 60, 0
2, 19428, Control_c, 0, 64, 0
2, 19455, Note_on_c, 0, 65, 49
2, 19458, Note_on_c, 0, 57, 32
2, 19460, Note_on_c, 0, 60, 43
2, 19460, Note_on_c, 0, 62, 31
2, 19477, Note_on_c, 0, 62, 0
2, 19478, Note_on_c, 0, 65, 0
2, 19480, Note_on_c, 0, 60, 0
2, 19491, Note_on_c, 0, 57, 0
2, 19638, Note_on_c, 0, 60, 43
2, 19640, Note_on_c, 0, 53, 34
2, 19640, Note_on_c, 0, 43, 40
2, 19643, Note_on_c, 0, 57, 33
2, 19645, Note_on_c, 0, 50, 35
2, 19652, Note_on_c, 0, 57, 0
2, 19653, Note_on_c, 0, 53, 0
2, 19660, Note_on_c, 0, 60, 0
2, 19668, Note_on_c, 0, 50, 0
2, 19680, Note_on_c, 0, 56, 51
2, 19681, Note_on_c, 0, 53, 47
2, 19682, Note_on_c, 0, 59, 57
2, 19682, Note_on_c, 0, 64, 47
2, 19706, Note_on_c, 0, 56, 0
2, 19707, Note_on_c, 0, 59, 0
2, 19711, Note_on_c, 0, 64, 0
2, 19711, Note_on_c, 0, 53, 0
2, 19731, Note_on_c, 0, 50, 30
2, 19743, Note_on_c, 0, 50, 0
2, 19758, Note_on_c, 0, 56, 56
2, 19758, Note_on_c, 0, 64, 64
2, 19760, Note_on_c, 0, 59, 58
2, 19762, Note_on_c, 0, 53, 54
2, 19803, Control_c, 0, 64, 127
2, 19863, Note_on_c, 0, 53, 0
2, 19882, Note_on_c, 0, 59, 0
2, 19890, Note_on_c, 0, 56, 0
2, 19903, Note_on_c, 0, 64, 0
2, 19913, Control_c, 0, 64, 0
2, 19917, Note_on_c, 0, 56, 31
2, 19917, Note_on_c, 0, 62, 33
2, 19921, Note_on_c, 0, 59, 45
2, 19922, Note_on_c, 0, 52, 36
2, 19925, Note_on_c, 0, 53, 34
2, 19942, Note_on_c, 0, 43, 0
2, 19992, Note_on_c, 0, 53, 0
2, 19996, Note_on_c, 0, 43, 70
2, 20010, Control_c, 0, 64, 127
2, 20013, Note_on_c, 0, 56, 0
2, 20020, Note_on_c, 0, 43, 0
2, 20025, Note_on_c, 0, 52, 0
2, 20026, Note_on_c, 0, 59, 0
2, 20051, Note_on_c, 0, 62, 0
2, 20145, Note_on_c, 0, 72, 62
2, 20146, Note_on_c, 0, 64, 52
2, 20146, Note_on_c, 0, 62, 46
2, 20146, Note_on_c, 0, 67, 58
2, 20147, Note_on_c, 0, 52, 45
2, 20148, Note_on_c, 0, 57, 44
2, 20151, Control_c, 0, 64, 0
2, 20256, Control_c, 0, 64, 127
2, 20278, Note_on_c, 0, 64, 0
2, 20281, Note_on_c, 0, 57, 0
2, 20282, Note_on_c, 0, 52, 0
2, 20282, Note_on_c, 0, 62, 0
2, 20291, Note_on_c, 0, 67, 0
2, 20300, Note_on_c, 0, 72, 0
2, 20513, Note_on_c, 0, 61, 58
2, 20513, Control_c, 0, 64, 0
2, 20513, Note_on_c, 0, 65, 75
2, 20515, Note_on_c, 0, 80, 59
2, 20515, Note_on_c, 0, 77, 76
2, 20515, Note_on_c, 0, 84, 80
2, 20515, Note_on_c, 0, 60, 62
2, 20516, Note_on_c, 0, 55, 65
2, 20516, Note_on_c, 0, 72, 74
2, 20553, Note_on_c, 0, 77, 0
2, 20555, Note_on_c, 0, 72, 0
2, 20560, Note_on_c, 0, 84, 0
2, 20560, Note_on_c, 0, 80, 0
2, 20560, Note_on_c, 0, 60, 0
2, 20561, Note_on_c, 0, 65, 0
2, 20567, Note_on_c, 0, 55, 0
2, 20578, Note_on_c, 0, 61, 0
2, 20637, Note_on_c, 0, 81, 62
2, 20640, Note_on_c, 0, 84, 63
2, 20640, Note_on_c, 0, 64, 61
2, 20641, Note_on_c, 0, 77, 62
2, 20641, Note_on_c, 0, 57, 51
2, 20642, Note_on_c, 0, 60, 34
2, 20642, Note_on_c, 0, 72, 53
2, 20642, Note_on_c, 0, 53, 51
2, 20738, Control_c, 0, 64, 127
2, 20777, Note_on_c, 0, 84, 0
2, 20778, Note_on_c, 0, 81, 0
2, 20781, Note_on_c, 0, 77, 0
2, 20781, Note_on_c, 0, 60, 0
2, 20786, Note_on_c, 0, 57, 0
2, 20787, Note_on_c, 0, 72, 0
2, 20792, Note_on_c, 0, 64, 0
2, 20802, Note_on_c, 0, 53, 0
2, 20843, Note_on_c, 0, 71, 46
2, 20846, Note_on_c, 0, 80, 37
2, 20846, Note_on_c, 0, 83, 43
2, 20847, Note_on_c, 0, 64, 53
2, 20847, Note_on_c, 0, 76, 53
2, 20848, Note_on_c, 0, 59, 53
2, 20851, Note_on_c, 0, 53, 33
2, 20857, Control_c, 0, 64, 0
2, 20957, Control_c, 0, 64, 127
2, 21001, Note_on_c, 0, 83, 0
2, 21003, Note_on_c, 0, 53, 0
2, 21006, Note_on_c, 0, 80, 0
2, 21007, Note_on_c, 0, 59, 0
2, 21010, Note_on_c, 0, 76, 0
2, 21012, Note_on_c, 0, 64, 0
2, 21020, Note_on_c, 0, 71, 0
2, 21122, Note_on_c, 0, 64, 40
2, 21123, Note_on_c, 0, 69, 50
2, 21126, Note_on_c, 0, 76, 40
2, 21126, Note_on_c, 0, 72, 38
2, 21127, Note_on_c, 0, 57, 31
2, 21128, Control_c, 0, 64, 0
2, 21128, Note_on_c, 0, 60, 33
2, 21136, Note_on_c, 0, 69, 0
2, 21142, Note_on_c, 0, 60, 0
2, 21145, Note_on_c, 0, 72, 0
2, 21145, Note_on_c, 0, 64, 0
2, 21146, Note_on_c, 0, 76, 0
2, 21150, Note_on_c, 0, 57, 0
2, 21270, Control_c, 0, 64, 127
2, 21357, Note_on_c, 0, 54, 42
2, 21357, Note_on_c, 0, 64, 38
2, 21360, Note_on_c, 0, 60, 34
2, 21360, Note_on_c, 0, 81, 42
2, 21362, Note_on_c, 0, 93, 36
2, 21362, Note_on_c, 0, 87, 39
2, 21363, Note_on_c, 0, 90, 31
2, 21381, Note_on_c, 0, 81, 0
2, 21382, Note_on_c, 0, 87, 0
2, 21383, Note_on_c, 0, 64, 0
2, 21385, Note_on_c, 0, 90, 0
2, 21387, Note_on_c, 0, 60, 0
2, 21388, Note_on_c, 0, 93, 0
2, 21391, Note_on_c, 0, 54, 0
2, 21475, Control_c, 0, 64, 0
2, 21481, Note_on_c, 0, 96, 85
2, 21481, Note_on_c, 0, 54, 64
2, 21481, Note_on_c, 0, 60, 58
2, 21481, Note_on_c, 0, 84, 78
2, 21482, Note_on_c, 0, 64, 64
2, 21482, Note_on_c, 0, 91, 71
2, 21498, Control_c, 0, 64, 127
2, 21523, Note_on_c, 0, 96, 0
2, 21527, Note_on_c, 0, 60, 0
2, 21528, Note_on_c, 0, 84, 0
2, 21528, Note_on_c, 0, 91, 0
2, 21530, Note_on_c, 0, 64, 0
2, 21542, Note_on_c, 0, 54, 0
2, 21588, Control_c, 0, 64, 0
2, 21600, Note_on_c, 0, 95, 77
2, 21601, Note_on_c, 0, 59, 54
2, 21602, Note_on_c, 0, 83, 60
2, 21602, Note_on_c, 0, 54, 50
2, 21602, Note_on_c, 0, 90, 58
2, 21602, Note_on_c, 0, 62, 57
2, 21617, Control_c, 0, 64, 127
2, 21632, Note_on_c, 0, 95, 0
2, 21638, Note_on_c, 0, 90, 0
2, 21643, Note_on_c, 0, 83, 0
2, 21650, Note_on_c, 0, 59, 0
2, 21655, Note_on_c, 0, 62, 0
2, 21655, Note_on_c, 0, 54, 0
2, 21687, Note_on_c, 0, 78, 48
2, 21691, Note_on_c, 0, 54, 42
2, 21691, Note_on_c, 0, 62, 40
2, 21692, Note_on_c, 0, 90, 30
2, 21692, Note_on_c, 0, 59, 41
2, 21701, Control_c, 0, 64, 0
2, 21711, Control_c, 0, 64, 127
2, 21742, Note_on_c, 0, 59, 0
2, 21747, Note_on_c, 0, 62, 0
2, 21751, Note_on_c, 0, 90, 0
2, 21756, Note_on_c, 0, 78, 0
2, 21760, Note_on_c, 0, 54, 0
2, 21825, Control_c, 0, 64, 0
2, 21836, Note_on_c, 0, 51, 42
2, 21837, Note_on_c, 0, 62, 35
2, 21837, Control_c, 0, 64, 127
2, 21840, Note_on_c, 0, 75, 49
2, 21842, Note_on_c, 0, 87, 32
2, 21845, Note_on_c, 0, 57, 25
2, 21850, Note_on_c, 0, 87, 0
2, 21851, Note_on_c, 0, 75, 0
2, 21857, Note_on_c, 0, 57, 0
2, 21861, Note_on_c, 0, 62, 0
2, 21868, Note_on_c, 0, 51, 0
2, 21917, Note_on_c, 0, 83, 55
2, 21922, Note_on_c, 0, 51, 51
2, 21922, Note_on_c, 0, 71, 50
2, 21923, Note_on_c, 0, 76, 51
2, 21923, Note_on_c, 0, 62, 52
2, 21923, Note_on_c, 0, 57, 54
2, 21927, Control_c, 0, 64, 0
2, 21950, Control_c, 0, 64, 127
2, 21975, Note_on_c, 0, 83, 0
2, 21977, Note_on_c, 0, 76, 0
2, 21987, Note_on_c, 0, 57, 0
2, 21988, Note_on_c, 0, 51, 0
2, 22005, Note_on_c, 0, 71, 0
2, 22006, Note_on_c, 0, 62, 0
2, 22053, Control_c, 0, 64, 0
2, 22075, Note_on_c, 0, 62, 33
2, 22076, Note_on_c, 0, 69, 60
2, 22077, Note_on_c, 0, 81, 45
2, 22077, Note_on_c, 0, 57, 38
2, 22078, Note_on_c, 0, 52, 31
2, 22078, Control_c, 0, 64, 127
2, 22078, Note_on_c, 0, 78, 31
2, 22083, Note_on_c, 0, 74, 36
2, 22087, Note_on_c, 0, 57, 0
2, 22090, Note_on_c, 0, 52, 0
2, 22091, Note_on_c, 0, 62, 0
2, 22091, Note_on_c, 0, 81, 0
2, 22091, Note_on_c, 0, 74, 0
2, 22092, Note_on_c, 0, 69, 0
2, 22095, Note_on_c, 0, 78, 0
2, 22157, Note_on_c, 0, 78, 55
2, 22157, Note_on_c, 0, 74, 62
2, 22158, Note_on_c, 0, 66, 51
2, 22158, Note_on_c, 0, 62, 61
2, 22160, Note_on_c, 0, 57, 59
2, 22161, Note_on_c, 0, 52, 62
2, 22162, Control_c, 0, 64, 0
2, 22192, Control_c, 0, 64, 127
2, 22227, Note_on_c, 0, 74, 0
2, 22231, Note_on_c, 0, 78, 0
2, 22237, Note_on_c, 0, 66, 0
2, 22247, Note_on_c, 0, 57, 0
2, 22250, Note_on_c, 0, 62, 0
2, 22257, Note_on_c, 0, 52, 0
2, 22306, Control_c, 0, 64, 0
2, 22320, Note_on_c, 0, 74, 41
2, 22321, Note_on_c, 0, 66, 27
2, 22321, Note_on_c, 0, 62, 36
2, 22322, Note_on_c, 0, 52, 36
2, 22323, Note_on_c, 0, 69, 40
2, 22323, Note_on_c, 0, 57, 29
2, 22326, Control_c, 0, 64, 127
2, 22343, Note_on_c, 0, 69, 0
2, 22346, Note_on_c, 0, 66, 0
2, 22347, Note_on_c, 0, 57, 0
2, 22351, Note_on_c, 0, 62, 0
2, 22351, Note_on_c, 0, 52, 0
2, 22368, Note_on_c, 0, 74, 0
2, 22401, Note_on_c, 0, 69, 58
2, 22402, Note_on_c, 0, 66, 38
2, 22402, Note_on_c, 0, 62, 42
2, 22403, Note_on_c, 0, 57, 44
2, 22403, Note_on_c, 0, 52, 45
2, 22408, Control_c, 0, 64, 0
2, 22438, Control_c, 0, 64, 127
2, 22465, Note_on_c, 0, 57, 0
2, 22465, Note_on_c, 0, 69, 0
2, 22471, Note_on_c, 0, 52, 0
2, 22477, Note_on_c, 0, 62, 0
2, 22486, Note_on_c, 0, 66, 0
2, 22541, Control_c, 0, 64, 0
2, 22547, Note_on_c, 0, 60, 29
2, 22547, Note_on_c, 0, 67, 45
2, 22550, Note_on_c, 0, 57, 28
2, 22551, Note_on_c, 0, 64, 36
2, 22553, Note_on_c, 0, 55, 39
2, 22567, Control_c, 0, 64, 127
2, 22592, Note_on_c, 0, 64, 0
2, 22602, Note_on_c, 0, 60, 0
2, 22621, Note_on_c, 0, 67, 0
2, 22623, Note_on_c, 0, 57, 0
2, 22626, Note_on_c, 0, 55, 0
2, 22631, Note_on_c, 0, 69, 68
2, 22631, Note_on_c, 0, 59, 56
2, 22633, Note_on_c, 0, 60, 55
2, 22633, Note_on_c, 0, 64, 47
2, 22648, Note_on_c, 0, 55, 12
2, 22652, Note_on_c, 0, 59, 0
2, 22657, Note_on_c, 0, 60, 0
2, 22662, Note_on_c, 0, 64, 0
2, 22666, Note_on_c, 0, 69, 0
2, 22667, Control_c, 0, 64, 0
2, 22687, Note_on_c, 0, 57, 20
2, 22691, Note_on_c, 0, 67, 19
2, 22692, Note_on_c, 0, 60, 13
2, 22700, Control_c, 0, 64, 127
2, 22725, Note_on_c, 0, 60, 0
2, 22737, Note_on_c, 0, 67, 0
2, 22756, Note_on_c, 0, 57, 0
2, 22756, Note_on_c, 0, 69, 57
2, 22756, Note_on_c, 0, 60, 54
2, 22757, Note_on_c, 0, 59, 53
2, 22758, Note_on_c, 0, 64, 43
2, 22768, Note_on_c, 0, 64, 0
2, 22768, Note_on_c, 0, 55, 0
2, 22776, Note_on_c, 0, 69, 0
2, 22786, Note_on_c, 0, 60, 0
2, 22793, Note_on_c, 0, 59, 0
2, 22806, Control_c, 0, 64, 0
2, 22808, Note_on_c, 0, 56, 37
2, 22812, Note_on_c, 0, 60, 17
2, 22813, Note_on_c, 0, 68, 39
2, 22816, Note_on_c, 0, 63, 31
2, 22821, Note_on_c, 0, 66, 32
2, 22852, Note_on_c, 0, 63, 0
2, 22856, Note_on_c, 0, 66, 0
2, 22860, Note_on_c, 0, 60, 0
2, 22860, Control_c, 0, 64, 127
2, 22877, Note_on_c, 0, 60, 57
2, 22878, Note_on_c, 0, 63, 47
2, 22878, Note_on_c, 0, 69, 66
2, 22878, Note_on_c, 0, 66, 39
2, 22881, Note_on_c, 0, 56, 0
2, 22882, Note_on_c, 0, 57, 48
2, 22891, Note_on_c, 0, 69, 0
2, 22897, Note_on_c, 0, 63, 0
2, 22901, Note_on_c, 0, 68, 0
2, 22908, Note_on_c, 0, 60, 0
2, 22911, Note_on_c, 0, 66, 0
2, 22918, Control_c, 0, 64, 0
2, 22923, Note_on_c, 0, 58, 46
2, 22925, Note_on_c, 0, 70, 40
2, 22933, Note_on_c, 0, 57, 0
2, 22965, Note_on_c, 0, 70, 0
2, 22976, Control_c, 0, 64, 127
2, 22995, Note_on_c, 0, 60, 55
2, 22996, Note_on_c, 0, 71, 45
2, 22996, Note_on_c, 0, 59, 69
2, 22996, Note_on_c, 0, 63, 28
2, 23002, Note_on_c, 0, 68, 35
2, 23006, Note_on_c, 0, 60, 0
2, 23010, Note_on_c, 0, 68, 0
2, 23013, Note_on_c, 0, 63, 0
2, 23015, Note_on_c, 0, 71, 0
2, 23035, Note_on_c, 0, 58, 0
2, 23035, Control_c, 0, 64, 0
2, 23037, Note_on_c, 0, 62, 58
2, 23040, Note_on_c, 0, 59, 0
2, 23040, Note_on_c, 0, 72, 53
2, 23040, Note_on_c, 0, 65, 50
2, 23042, Note_on_c, 0, 60, 56
2, 23043, Note_on_c, 0, 69, 49
2, 23053, Note_on_c, 0, 69, 0
2, 23060, Note_on_c, 0, 72, 0
2, 23061, Note_on_c, 0, 62, 0
2, 23061, Note_on_c, 0, 65, 0
2, 23067, Note_on_c, 0, 60, 0
2, 23237, Note_on_c, 0, 65, 55
2, 23237, Note_on_c, 0, 57, 54
2, 23240, Note_on_c, 0, 60, 55
2, 23245, Note_on_c, 0, 53, 26
2, 23246, Note_on_c, 0, 62, 28
2, 23251, Note_on_c, 0, 65, 0
2, 23252, Note_on_c, 0, 62, 0
2, 23257, Note_on_c, 0, 53, 0
2, 23257, Note_on_c, 0, 60, 0
2, 23257, Control_c, 0, 64, 127
2, 23267, Note_on_c, 0, 57, 0
2, 23287, Note_on_c, 0, 43, 33
2, 23291, Control_c, 0, 64, 0
2, 23293, Note_on_c, 0, 57, 35
2, 23293, Note_on_c, 0, 64, 34
2, 23296, Note_on_c, 0, 60, 28
2, 23300, Note_on_c, 0, 53, 29
2, 23301, Note_on_c, 0, 50, 24
2, 23317, Note_on_c, 0, 50, 0
2, 23320, Note_on_c, 0, 57, 0
2, 23320, Note_on_c, 0, 53, 0
2, 23323, Note_on_c, 0, 60, 0
2, 23327, Note_on_c, 0, 64, 0
2, 23328, Note_on_c, 0, 43, 0
2, 23398, Note_on_c, 0, 43, 33
2, 23401, Note_on_c, 0, 53, 30
2, 23401, Note_on_c, 0, 60, 39
2, 23401, Note_on_c, 0, 57, 33
2, 23403, Note_on_c, 0, 50, 32
2, 23438, Note_on_c, 0, 50, 0
2, 23446, Note_on_c, 0, 53, 0
2, 23448, Note_on_c, 0, 43, 0
2, 23450, Note_on_c, 0, 57, 0
2, 23452, Note_on_c, 0, 60, 0
2, 23465, Control_c, 0, 64, 127
2, 23481, Control_c, 0, 64, 0
2, 23516, Note_on_c, 0, 43, 35
2, 23518, Note_on_c, 0, 63, 31
2, 23518, Note_on_c, 0, 56, 44
2, 23522, Note_on_c, 0, 59, 45
2, 23537, Control_c, 0, 64, 127
2, 23571, Note_on_c, 0, 56, 0
2, 23572, Note_on_c, 0, 43, 0
2, 23573, Note_on_c, 0, 63, 0
2, 23576, Note_on_c, 0, 59, 0
2, 23595, Note_on_c, 0, 56, 44
2, 23596, Note_on_c, 0, 64, 60
2, 23597, Note_on_c, 0, 59, 53
2, 23598, Note_on_c, 0, 43, 40
2, 23600, Note_on_c, 0, 55, 51
2, 23617, Note_on_c, 0, 59, 0
2, 23620, Note_on_c, 0, 56, 0
2, 23621, Note_on_c, 0, 55, 0
2, 23623, Note_on_c, 0, 64, 0
2, 23630, Note_on_c, 0, 43, 0
2, 23646, Note_on_c, 0, 66, 65
2, 23650, Control_c, 0, 64, 0
2, 23652, Note_on_c, 0, 66, 0
2, 23652, Note_on_c, 0, 43, 44
2, 23655, Note_on_c, 0, 65, 58
2, 23655, Note_on_c, 0, 56, 27
2, 23672, Note_on_c, 0, 65, 0
2, 23687, Note_on_c, 0, 43, 0
2, 23692, Note_on_c, 0, 56, 0
2, 23717, Note_on_c, 0, 66, 59
2, 23718, Note_on_c, 0, 56, 58
2, 23721, Note_on_c, 0, 43, 48
2, 23723, Note_on_c, 0, 59, 57
2, 23723, Note_on_c, 0, 55, 55
2, 23741, Note_on_c, 0, 55, 0
2, 23745, Note_on_c, 0, 59, 0
2, 23752, Note_on_c, 0, 56, 0
2, 23757, Note_on_c, 0, 66, 0
2, 23758, Note_on_c, 0, 43, 0
2, 23781, Note_on_c, 0, 43, 31
2, 23781, Note_on_c, 0, 56, 35
2, 23783, Note_on_c, 0, 67, 41
2, 23783, Note_on_c, 0, 59, 46
2, 23787, Note_on_c, 0, 62, 36
2, 23790, Note_on_c, 0, 53, 30
2, 23793, Control_c, 0, 64, 127
2, 23821, Note_on_c, 0, 43, 0
2, 23822, Note_on_c, 0, 67, 0
2, 23823, Note_on_c, 0, 59, 0
2, 23826, Note_on_c, 0, 56, 0
2, 23826, Note_on_c, 0, 62, 0
2, 23830, Note_on_c, 0, 53, 0
2, 23848, Note_on_c, 0, 56, 53
2, 23850, Note_on_c, 0, 43, 38
2, 23851, Note_on_c, 0, 53, 41
2, 23852, Note_on_c, 0, 59, 46
2, 23853, Control_c, 0, 64, 0
2, 23880, Control_c, 0, 64, 127
2, 23881, Note_on_c, 0, 59, 0
2, 23888, Note_on_c, 0, 53, 0
2, 23892, Note_on_c, 0, 56, 0
2, 23956, Note_on_c, 0, 67, 60
2, 23957, Note_on_c, 0, 57, 56
2, 23958, Note_on_c, 0, 62, 58
2, 23960, Note_on_c, 0, 52, 57
2, 23966, Control_c, 0, 64, 0
2, 24018, Note_on_c, 0, 43, 0
2, 24051, Control_c, 0, 64, 127
2, 24115, Note_on_c, 0, 57, 0
2, 24121, Note_on_c, 0, 52, 0
2, 24126, Note_on_c, 0, 62, 0
2, 24138, Note_on_c, 0, 67, 0
2, 24240, Note_on_c, 0, 83, 51
2, 24241, Note_on_c, 0, 71, 53
2, 24242, Note_on_c, 0, 75, 52
2, 24242, Note_on_c, 0, 78, 36
2, 24246, Note_on_c, 0, 58, 40
2, 24247, Note_on_c, 0, 61, 35
2, 24247, Note_on_c, 0, 55, 45
2, 24248, Note_on_c, 0, 65, 30
2, 24251, Control_c, 0, 64, 0
2, 24288, Control_c, 0, 64, 127
2, 24372, Note_on_c, 0, 65, 0
2, 24378, Note_on_c, 0, 55, 0
2, 24378, Note_on_c, 0, 71, 0
2, 24390, Note_on_c, 0, 78, 0
2, 24390, Note_on_c, 0, 75, 0
2, 24393, Note_on_c, 0, 83, 0
2, 24397, Note_on_c, 0, 58, 0
2, 24462, Note_on_c, 0, 61, 0
2, 24473, Note_on_c, 0, 84, 55
2, 24475, Note_on_c, 0, 77, 45
2, 24476, Control_c, 0, 64, 0
2, 24476, Note_on_c, 0, 72, 37
2, 24476, Note_on_c, 0, 64, 47
2, 24477, Note_on_c, 0, 81, 44
2, 24477, Note_on_c, 0, 60, 36
2, 24478, Note_on_c, 0, 57, 41
2, 24481, Note_on_c, 0, 53, 32
2, 24518, Control_c, 0, 64, 127
2, 24550, Note_on_c, 0, 72, 0
2, 24556, Note_on_c, 0, 77, 0
2, 24565, Note_on_c, 0, 81, 0
2, 24567, Note_on_c, 0, 64, 0
2, 24568, Note_on_c, 0, 84, 0
2, 24570, Note_on_c, 0, 60, 0
2, 24573, Note_on_c, 0, 53, 0
2, 24578, Note_on_c, 0, 57, 0
2, 24671, Note_on_c, 0, 64, 74
2, 24671, Note_on_c, 0, 88, 80
2, 24671, Note_on_c, 0, 93, 85
2, 24671, Note_on_c, 0, 81, 76
2, 24672, Note_on_c, 0, 59, 66
2, 24672, Note_on_c, 0, 53, 60
2, 24683, Control_c, 0, 64, 0
2, 24732, Control_c, 0, 64, 127
2, 24836, Note_on_c, 0, 64, 0
2, 24837, Note_on_c, 0, 93, 0
2, 24838, Note_on_c, 0, 53, 0
2, 24843, Note_on_c, 0, 88, 0
2, 24848, Note_on_c, 0, 81, 0
2, 24853, Note_on_c, 0, 59, 0
2, 24911, Note_on_c, 0, 91, 66
2, 24911, Note_on_c, 0, 79, 55
2, 24912, Note_on_c, 0, 59, 46
2, 24912, Note_on_c, 0, 62, 64
2, 24913, Note_on_c, 0, 86, 61
2, 24915, Note_on_c, 0, 52, 60
2, 24915, Note_on_c, 0, 55, 64
2, 24917, Control_c, 0, 64, 0
2, 24975, Control_c, 0, 64, 127
2, 25066, Note_on_c, 0, 91, 0
2, 25072, Note_on_c, 0, 86, 0
2, 25075, Note_on_c, 0, 79, 0
2, 25090, Note_on_c, 0, 52, 0
2, 25092, Note_on_c, 0, 55, 0
2, 25100, Note_on_c, 0, 62, 0
2, 25102, Note_on_c, 0, 59, 0
2, 25155, Note_on_c, 0, 88, 63
2, 25156, Note_on_c, 0, 83, 64
2, 25157, Note_on_c, 0, 76, 54
2, 25158, Note_on_c, 0, 59, 48
2, 25158, Note_on_c, 0, 62, 62
2, 25160, Note_on_c, 0, 55, 58
2, 25162, Note_on_c, 0, 52, 53
2, 25163, Control_c, 0, 64, 0
2, 25207, Control_c, 0, 64, 127
2, 25280, Note_on_c, 0, 52, 0
2, 25282, Note_on_c, 0, 55, 0
2, 25292, Note_on_c, 0, 59, 0
2, 25297, Note_on_c, 0, 62, 0
2, 25307, Note_on_c, 0, 88, 0
2, 25313, Note_on_c, 0, 83, 0
2, 25318, Note_on_c, 0, 76, 0
2, 25396, Note_on_c, 0, 65, 74
2, 25398, Note_on_c, 0, 60, 62
2, 25401, Note_on_c, 0, 55, 62
2, 25401, Note_on_c, 0, 57, 57
2, 25406, Control_c, 0, 64, 0
2, 25483, Control_c, 0, 64, 127
2, 25553, Note_on_c, 0, 65, 0
2, 25560, Note_on_c, 0, 60, 0
2, 25562, Note_on_c, 0, 55, 0
2, 25563, Note_on_c, 0, 57, 0
2, 25631, Note_on_c, 0, 68, 76
2, 25631, Note_on_c, 0, 79, 78
2, 25631, Note_on_c, 0, 75, 65
2, 25632, Note_on_c, 0, 71, 73
2, 25633, Note_on_c, 0, 63, 72
2, 25635, Note_on_c, 0, 59, 66
2, 25637, Note_on_c, 0, 53, 62
2, 25640, Control_c, 0, 64, 0
2, 25716, Control_c, 0, 64, 127
2, 25766, Note_on_c, 0, 53, 0
2, 25767, Note_on_c, 0, 63, 0
2, 25772, Note_on_c, 0, 79, 0
2, 25788, Control_c, 0, 64, 0
2, 25793, Note_on_c, 0, 77, 55
2, 25793, Note_on_c, 0, 53, 44
2, 25795, Note_on_c, 0, 63, 37
2, 25812, Note_on_c, 0, 71, 0
2, 25818, Note_on_c, 0, 59, 0
2, 25821, Note_on_c, 0, 75, 0
2, 25821, Note_on_c, 0, 68, 0
2, 25822, Note_on_c, 0, 77, 0
2, 25823, Note_on_c, 0, 63, 0
2, 25835, Note_on_c, 0, 53, 0
2, 25921, Note_on_c, 0, 76, 42
2, 25922, Note_on_c, 0, 67, 24
2, 25925, Note_on_c, 0, 62, 32
2, 25926, Note_on_c, 0, 52, 37
2, 25926, Note_on_c, 0, 57, 37
2, 25926, Note_on_c, 0, 71, 35
2, 25976, Note_on_c, 0, 67, 0
2, 25977, Note_on_c, 0, 71, 0
2, 25981, Note_on_c, 0, 76, 0
2, 25981, Note_on_c, 0, 62, 0
2, 25982, Note_on_c, 0, 52, 0
2, 25983, Note_on_c, 0, 57, 0
2, 26106, Control_c, 0, 64, 127
2, 26137, Control_c, 0, 64, 0
2, 26147, Note_on_c, 0, 64, 35
2, 26147, Note_on_c, 0, 60, 38
2, 26148, Note_on_c, 0, 57, 39
2, 26151, Note_on_c, 0, 55, 40
2, 26175, Note_on_c, 0, 57, 0
2, 26176, Note_on_c, 0, 55, 0
2, 26178, Note_on_c, 0, 64, 0
2, 26181, Note_on_c, 0, 60, 0
2, 26236, Note_on_c, 0, 43, 40
2, 26277, Note_on_c, 0, 62, 40
2, 26277, Note_on_c, 0, 55, 32
2, 26278, Note_on_c, 0, 56, 25
2, 26286, Note_on_c, 0, 55, 0
2, 26313, Note_on_c, 0, 56, 0
2, 26358, Note_on_c, 0, 64, 47
2, 26358, Note_on_c, 0, 55, 39
2, 26361, Note_on_c, 0, 52, 42
2, 26362, Note_on_c, 0, 59, 61
2, 26376, Note_on_c, 0, 55, 0
2, 26380, Note_on_c, 0, 62, 0
2, 26381, Note_on_c, 0, 59, 0
2, 26385, Note_on_c, 0, 52, 0
2, 26387, Note_on_c, 0, 64, 0
2, 26391, Note_on_c, 0, 43, 0
2, 26510, Note_on_c, 0, 64, 52
2, 26510, Note_on_c, 0, 72, 48
2, 26512, Note_on_c, 0, 67, 49
2, 26527, Note_on_c, 0, 64, 0
2, 26533, Note_on_c, 0, 67, 0
2, 26536, Note_on_c, 0, 72, 0
2, 26638, Note_on_c, 0, 76, 71
2, 26641, Note_on_c, 0, 70, 51
2, 26641, Note_on_c, 0, 67, 61
2, 26642, Note_on_c, 0, 64, 51
2, 26645, Note_on_c, 0, 73, 28
2, 26655, Note_on_c, 0, 64, 0
2, 26658, Note_on_c, 0, 73, 0
2, 26665, Note_on_c, 0, 76, 0
2, 26666, Note_on_c, 0, 67, 0
2, 26666, Note_on_c, 0, 70, 0
2, 26837, Control_c, 0, 64, 127
2, 26845, Note_on_c, 0, 73, 60
2, 26847, Note_on_c, 0, 70, 52
2, 26848, Note_on_c, 0, 64, 43
2, 26848, Note_on_c, 0, 61, 45
2, 26873, Note_on_c, 0, 64, 0
2, 26876, Note_on_c, 0, 73, 0
2, 26886, Note_on_c, 0, 70, 0
2, 26888, Note_on_c, 0, 61, 0
2, 26902, Control_c, 0, 64, 0
2, 26903, Note_on_c, 0, 62, 35
2, 26905, Note_on_c, 0, 60, 40
2, 26905, Note_on_c, 0, 69, 41
2, 26907, Note_on_c, 0, 72, 27
2, 26923, Note_on_c, 0, 69, 0
2, 26926, Note_on_c, 0, 72, 0
2, 26926, Note_on_c, 0, 62, 0
2, 26932, Note_on_c, 0, 60, 0
2, 26985, Note_on_c, 0, 69, 37
2, 26985, Note_on_c, 0, 60, 29
2, 26986, Note_on_c, 0, 65, 37
2, 26987, Note_on_c, 0, 57, 33
2, 26988, Note_on_c, 0, 64, 30
2, 26996, Note_on_c, 0, 65, 0
2, 26997, Note_on_c, 0, 64, 0
2, 26997, Note_on_c, 0, 60, 0
2, 26998, Note_on_c, 0, 57, 0
2, 27001, Note_on_c, 0, 69, 0
2, 27050, Note_on_c, 0, 65, 50
2, 27051, Note_on_c, 0, 59, 32
2, 27055, Note_on_c, 0, 53, 31
2, 27056, Note_on_c, 0, 62, 25
2, 27058, Note_on_c, 0, 60, 24
2, 27067, Note_on_c, 0, 59, 0
2, 27068, Note_on_c, 0, 62, 0
2, 27068, Note_on_c, 0, 60, 0
2, 27070, Note_on_c, 0, 53, 0
2, 27072, Note_on_c, 0, 65, 0
2, 27126, Note_on_c, 0, 43, 37
2, 27136, Note_on_c, 0, 43, 0
2, 27182, Note_on_c, 0, 55, 37
2, 27185, Note_on_c, 0, 60, 48
2, 27185, Note_on_c, 0, 64, 33
2, 27186, Note_on_c, 0, 57, 38
2, 27201, Note_on_c, 0, 57, 0
2, 27207, Note_on_c, 0, 60, 0
2, 27210, Note_on_c, 0, 64, 0
2, 27212, Note_on_c, 0, 55, 0
2, 27248, Note_on_c, 0, 43, 36
2, 27253, Note_on_c, 0, 53, 34
2, 27256, Note_on_c, 0, 60, 24
2, 27267, Note_on_c, 0, 53, 0
2, 27271, Note_on_c, 0, 60, 0
2, 27280, Note_on_c, 0, 43, 0
2, 27321, Note_on_c, 0, 56, 46
2, 27322, Note_on_c, 0, 64, 42
2, 27322, Note_on_c, 0, 59, 50
2, 27323, Note_on_c, 0, 55, 42
2, 27428, Control_c, 0, 64, 127
2, 27432, Note_on_c, 0, 55, 0
2, 27433, Note_on_c, 0, 43, 65
2, 27461, Note_on_c, 0, 43, 0
2, 27461, Note_on_c, 0, 56, 0
2, 27465, Note_on_c, 0, 59, 0
2, 27488, Note_on_c, 0, 64, 0
2, 27760, Note_on_c, 0, 69, 44
2, 27770, Note_on_c, 0, 69, 0
2, 27792, Note_on_c, 0, 71, 57
2, 27815, Note_on_c, 0, 71, 0
2, 27830, Control_c, 0, 64, 0
2, 27831, Note_on_c, 0, 57, 38
2, 27831, Note_on_c, 0, 64, 31
2, 27833, Note_on_c, 0, 72, 51
2, 27835, Note_on_c, 0, 60, 35
2, 27908, Control_c, 0, 64, 127
2, 27961, Note_on_c, 0, 64, 0
2, 27962, Note_on_c, 0, 72, 0
2, 27992, Note_on_c, 0, 57, 0
2, 27992, Note_on_c, 0, 60, 0
2, 28185, Control_c, 0, 64, 0
2, 28197, Note_on_c, 0, 84, 57
2, 28198, Note_on_c, 0, 56, 46
2, 28201, Note_on_c, 0, 72, 44
2, 28201, Note_on_c, 0, 64, 43
2, 28201, Note_on_c, 0, 77, 44
2, 28201, Note_on_c, 0, 80, 39
2, 28203, Note_on_c, 0, 60, 34
2, 28222, Note_on_c, 0, 77, 0
2, 28231, Note_on_c, 0, 72, 0
2, 28233, Note_on_c, 0, 80, 0
2, 28236, Note_on_c, 0, 64, 0
2, 28236, Note_on_c, 0, 60, 0
2, 28236, Note_on_c, 0, 84, 0
2, 28251, Note_on_c, 0, 56, 0
2, 28322, Note_on_c, 0, 84, 48
2, 28323, Note_on_c, 0, 64, 43
2, 28327, Note_on_c, 0, 60, 33
2, 28328, Note_on_c, 0, 55, 43
2, 28328, Note_on_c, 0, 72, 29
2, 28330, Note_on_c, 0, 76, 40
2, 28332, Note_on_c, 0, 81, 19
2, 28353, Control_c, 0, 64, 127
2, 28393, Note_on_c, 0, 76, 0
2, 28395, Note_on_c, 0, 72, 0
2, 28415, Note_on_c, 0, 64, 0
2, 28415, Note_on_c, 0, 81, 0
2, 28417, Note_on_c, 0, 60, 0
2, 28430, Note_on_c, 0, 55, 0
2, 28432, Note_on_c, 0, 84, 0
2, 28562, Note_on_c, 0, 54, 64
2, 28563, Note_on_c, 0, 64, 64
2, 28563, Note_on_c, 0, 60, 55
2, 28563, Note_on_c, 0, 96, 79
2, 28565, Control_c, 0, 64, 0
2, 28566, Note_on_c, 0, 84, 65
2, 28568, Note_on_c, 0, 89, 60
2, 28568, Note_on_c, 0, 93, 53
2, 28588, Note_on_c, 0, 93, 0
2, 28593, Note_on_c, 0, 89, 0
2, 28596, Note_on_c, 0, 96, 0
2, 28597, Note_on_c, 0, 84, 0
2, 28601, Note_on_c, 0, 60, 0
2, 28603, Note_on_c, 0, 64, 0
2, 28610, Note_on_c, 0, 54, 0
2, 28676, Control_c, 0, 64, 127
2, 28682, Note_on_c, 0, 93, 66
2, 28682, Note_on_c, 0, 54, 57
2, 28683, Note_on_c, 0, 64, 55
2, 28685, Note_on_c, 0, 81, 48
2, 28685, Note_on_c, 0, 89, 50
2, 28686, Note_on_c, 0, 60, 44
2, 28686, Note_on_c, 0, 86, 49
2, 28705, Note_on_c, 0, 64, 0
2, 28706, Note_on_c, 0, 60, 0
2, 28710, Note_on_c, 0, 81, 0
2, 28712, Note_on_c, 0, 93, 0
2, 28716, Note_on_c, 0, 86, 0
2, 28718, Note_on_c, 0, 89, 0
2, 28736, Note_on_c, 0, 54, 0
2, 28798, Control_c, 0, 64, 0
2, 28801, Note_on_c, 0, 94, 63
2, 28801, Note_on_c, 0, 55, 61
2, 28802, Note_on_c, 0, 82, 40
2, 28802, Note_on_c, 0, 62, 62
2, 28803, Note_on_c, 0, 86, 54
2, 28805, Note_on_c, 0, 53, 54
2, 28805, Note_on_c, 0, 58, 46
2, 28807, Note_on_c, 0, 89, 40
2, 28850, Control_c, 0, 64, 127
2, 28903, Note_on_c, 0, 86, 0
2, 28908, Note_on_c, 0, 89, 0
2, 28911, Note_on_c, 0, 62, 0
2, 28912, Note_on_c, 0, 82, 0
2, 28918, Note_on_c, 0, 53, 0
2, 28925, Note_on_c, 0, 94, 0
2, 28925, Note_on_c, 0, 58, 0
2, 28926, Note_on_c, 0, 55, 0
2, 28995, Note_on_c, 0, 96, 83
2, 28996, Note_on_c, 0, 62, 80
2, 28996, Note_on_c, 0, 58, 64
2, 28997, Note_on_c, 0, 92, 69
2, 28997, Note_on_c, 0, 84, 77
2, 28998, Note_on_c, 0, 52, 74
2, 29002, Note_on_c, 0, 90, 42
2, 29003, Control_c, 0, 64, 0
2, 29008, Note_on_c, 0, 90, 0
2, 29037, Note_on_c, 0, 96, 0
2, 29041, Note_on_c, 0, 84, 0
2, 29045, Note_on_c, 0, 92, 0
2, 29056, Note_on_c, 0, 52, 0
2, 29058, Note_on_c, 0, 62, 0
2, 29062, Note_on_c, 0, 58, 0
2, 29122, Note_on_c, 0, 94, 77
2, 29122, Note_on_c, 0, 82, 74
2, 29123, Note_on_c, 0, 58, 71
2, 29123, Note_on_c, 0, 90, 56
2, 29125, Note_on_c, 0, 87, 55
2, 29126, Note_on_c, 0, 62, 74
2, 29126, Note_on_c, 0, 52, 74
2, 29131, Note_on_c, 0, 87, 0
2, 29162, Control_c, 0, 64, 127
2, 29163, Note_on_c, 0, 90, 0
2, 29168, Note_on_c, 0, 82, 0
2, 29171, Note_on_c, 0, 94, 0
2, 29171, Note_on_c, 0, 52, 0
2, 29178, Note_on_c, 0, 58, 0
2, 29186, Note_on_c, 0, 62, 0
2, 29232, Control_c, 0, 64, 0
2, 29247, Note_on_c, 0, 93, 66
2, 29247, Note_on_c, 0, 81, 62
2, 29250, Note_on_c, 0, 88, 64
2, 29250, Note_on_c, 0, 60, 51
2, 29250, Note_on_c, 0, 64, 71
2, 29251, Note_on_c, 0, 57, 55
2, 29251, Note_on_c, 0, 53, 52
2, 29295, Control_c, 0, 64, 127
2, 29345, Note_on_c, 0, 93, 0
2, 29352, Note_on_c, 0, 88, 0
2, 29371, Note_on_c, 0, 81, 0
2, 29382, Note_on_c, 0, 53, 0
2, 29383, Note_on_c, 0, 64, 0
2, 29390, Note_on_c, 0, 57, 0
2, 29392, Note_on_c, 0, 60, 0
2, 29507, Control_c, 0, 64, 0
2, 29510, Note_on_c, 0, 91, 84
2, 29510, Note_on_c, 0, 63, 73
2, 29510, Note_on_c, 0, 79, 81
2, 29510, Note_on_c, 0, 87, 71
2, 29510, Note_on_c, 0, 84, 85
2, 29512, Note_on_c, 0, 67, 82
2, 29513, Note_on_c, 0, 60, 64
2, 29513, Note_on_c, 0, 56, 62
2, 29553, Note_on_c, 0, 84, 0
2, 29556, Note_on_c, 0, 79, 0
2, 29558, Note_on_c, 0, 67, 0
2, 29558, Note_on_c, 0, 91, 0
2, 29561, Note_on_c, 0, 63, 0
2, 29563, Note_on_c, 0, 56, 0
2, 29566, Note_on_c, 0, 87, 0
2, 29567, Note_on_c, 0, 60, 0
2, 29626, Note_on_c, 0, 86, 63
2, 29627, Note_on_c, 0, 82, 60
2, 29628, Note_on_c, 0, 89, 69
2, 29628, Note_on_c, 0, 67, 75
2, 29630, Note_on_c, 0, 56, 60
2, 29630, Note_on_c, 0, 77, 62
2, 29630, Note_on_c, 0, 62, 62
2, 29632, Note_on_c, 0, 60, 49
2, 29647, Control_c, 0, 64, 127
2, 29660, Note_on_c, 0, 67, 0
2, 29662, Note_on_c, 0, 62, 0
2, 29665, Note_on_c, 0, 60, 0
2, 29671, Note_on_c, 0, 77, 0
2, 29671, Note_on_c, 0, 89, 0
2, 29671, Note_on_c, 0, 86, 0
2, 29678, Note_on_c, 0, 82, 0
2, 29683, Note_on_c, 0, 56, 0
2, 29748, Control_c, 0, 64, 0
2, 29752, Note_on_c, 0, 88, 60
2, 29753, Note_on_c, 0, 64, 46
2, 29753, Note_on_c, 0, 76, 57
2, 29755, Note_on_c, 0, 55, 47
2, 29755, Note_on_c, 0, 83, 59
2, 29755, Note_on_c, 0, 57, 45
2, 29757, Note_on_c, 0, 60, 44
2, 29801, Control_c, 0, 64, 127
2, 29842, Note_on_c, 0, 55, 0
2, 29847, Note_on_c, 0, 76, 0
2, 29848, Note_on_c, 0, 64, 0
2, 29848, Note_on_c, 0, 60, 0
2, 29851, Note_on_c, 0, 57, 0
2, 29856, Note_on_c, 0, 83, 0
2, 29862, Note_on_c, 0, 88, 0
2, 29957, Note_on_c, 0, 96, 88
2, 29958, Note_on_c, 0, 60, 74
2, 29958, Note_on_c, 0, 61, 69
2, 29958, Note_on_c, 0, 89, 83
2, 29958, Note_on_c, 0, 84, 89
2, 29960, Note_on_c, 0, 93, 78
2, 29960, Note_on_c, 0, 65, 84
2, 29961, Note_on_c, 0, 55, 78
2, 29966, Control_c, 0, 64, 0
2, 30046, Control_c, 0, 64, 127
2, 30112, Note_on_c, 0, 96, 0
2, 30117, Note_on_c, 0, 93, 0
2, 30120, Note_on_c, 0, 60, 0
2, 30122, Note_on_c, 0, 89, 0
2, 30122, Note_on_c, 0, 84, 0
2, 30123, Note_on_c, 0, 65, 0
2, 30128, Note_on_c, 0, 55, 0
2, 30135, Note_on_c, 0, 61, 0
2, 30220, Control_c, 0, 64, 0
2, 30226, Note_on_c, 0, 86, 70
2, 30228, Note_on_c, 0, 74, 58
2, 30228, Note_on_c, 0, 60, 49
2, 30228, Note_on_c, 0, 81, 55
2, 30231, Note_on_c, 0, 64, 59
2, 30231, Note_on_c, 0, 57, 51
2, 30232, Note_on_c, 0, 53, 46
2, 30286, Control_c, 0, 64, 127
2, 30311, Note_on_c, 0, 74, 0
2, 30322, Note_on_c, 0, 64, 0
2, 30325, Note_on_c, 0, 81, 0
2, 30325, Note_on_c, 0, 60, 0
2, 30328, Note_on_c, 0, 53, 0
2, 30335, Note_on_c, 0, 57, 0
2, 30335, Note_on_c, 0, 86, 0
2, 30427, Note_on_c, 0, 95, 84
2, 30428, Note_on_c, 0, 83, 80
2, 30428, Note_on_c, 0, 59, 78
2, 30430, Note_on_c, 0, 92, 62
2, 30430, Note_on_c, 0, 64, 82
2, 30430, Note_on_c, 0, 88, 79
2, 30431, Note_on_c, 0, 53, 77
2, 30436, Control_c, 0, 64, 0
2, 30511, Control_c, 0, 64, 127
2, 30587, Note_on_c, 0, 95, 0
2, 30595, Note_on_c, 0, 83, 0
2, 30595, Note_on_c, 0, 88, 0
2, 30596, Note_on_c, 0, 92, 0
2, 30597, Note_on_c, 0, 59, 0
2, 30602, Note_on_c, 0, 64, 0
2, 30613, Note_on_c, 0, 53, 0
2, 30708, Note_on_c, 0, 84, 46
2, 30708, Note_on_c, 0, 72, 50
2, 30710, Note_on_c, 0, 62, 62
2, 30712, Note_on_c, 0, 79, 42
2, 30712, Note_on_c, 0, 57, 49
2, 30713, Note_on_c, 0, 52, 57
2, 30713, Control_c, 0, 64, 0
2, 30767, Control_c, 0, 64, 127
2, 30811, Note_on_c, 0, 52, 0
2, 30816, Note_on_c, 0, 57, 0
2, 30818, Note_on_c, 0, 72, 0
2, 30825, Note_on_c, 0, 62, 0
2, 30827, Note_on_c, 0, 79, 0
2, 30835, Note_on_c, 0, 84, 0
2, 30912, Note_on_c, 0, 58, 77
2, 30912, Note_on_c, 0, 61, 80
2, 30913, Note_on_c, 0, 65, 91
2, 30913, Note_on_c, 0, 55, 84
2, 30926, Control_c, 0, 64, 0
2, 31018, Control_c, 0, 64, 127
2, 31101, Note_on_c, 0, 55, 0
2, 31112, Note_on_c, 0, 65, 0
2, 31133, Note_on_c, 0, 58, 0
2, 31148, Note_on_c, 0, 61, 0
2, 31155, Note_on_c, 0, 60, 74
2, 31156, Note_on_c, 0, 64, 78
2, 31157, Note_on_c, 0, 57, 68
2, 31158, Note_on_c, 0, 53, 69
2, 31167, Control_c, 0, 64, 0
2, 31241, Control_c, 0, 64, 127
2, 31282, Note_on_c, 0, 64, 0
2, 31288, Note_on_c, 0, 60, 0
2, 31293, Note_on_c, 0, 57, 0
2, 31305, Note_on_c, 0, 53, 0
2, 31422, Note_on_c, 0, 63, 45
2, 31423, Note_on_c, 0, 56, 45
2, 31423, Note_on_c, 0, 53, 53
2, 31423, Note_on_c, 0, 59, 50
2, 31426, Note_on_c, 0, 43, 45
2, 31433, Control_c, 0, 64, 0
2, 31456, Note_on_c, 0, 53, 0
2, 31460, Note_on_c, 0, 56, 0
2, 31462, Note_on_c, 0, 59, 0
2, 31468, Note_on_c, 0, 63, 0
2, 31473, Note_on_c, 0, 43, 0
2, 31541, Note_on_c, 0, 63, 44
2, 31545, Note_on_c, 0, 59, 61
2, 31545, Note_on_c, 0, 51, 44
2, 31547, Note_on_c, 0, 43, 36
2, 31548, Note_on_c, 0, 56, 25
2, 31551, Note_on_c, 0, 67, 28
2, 31572, Note_on_c, 0, 59, 0
2, 31578, Note_on_c, 0, 67, 0
2, 31598, Note_on_c, 0, 56, 0
2, 31601, Note_on_c, 0, 63, 0
2, 31627, Note_on_c, 0, 51, 0
2, 31638, Note_on_c, 0, 50, 31
2, 31641, Note_on_c, 0, 43, 0
2, 31661, Note_on_c, 0, 67, 47
2, 31663, Note_on_c, 0, 50, 0
2, 31663, Note_on_c, 0, 57, 40
2, 31666, Note_on_c, 0, 62, 40
2, 31667, Note_on_c, 0, 52, 51
2, 31728, Note_on_c, 0, 62, 0
2, 31736, Note_on_c, 0, 57, 0
2, 31738, Note_on_c, 0, 67, 0
2, 31751, Note_on_c, 0, 52, 0
2, 31757, Note_on_c, 0, 51, 32
2, 31783, Note_on_c, 0, 67, 34
2, 31785, Note_on_c, 0, 51, 0
2, 31785, Note_on_c, 0, 57, 34
2, 31787, Note_on_c, 0, 52, 37
2, 31787, Note_on_c, 0, 62, 40
2, 31836, Note_on_c, 0, 67, 0
2, 31838, Note_on_c, 0, 62, 0
2, 31843, Note_on_c, 0, 57, 0
2, 31848, Note_on_c, 0, 52, 0
2, 31870, Note_on_c, 0, 67, 48
2, 31871, Note_on_c, 0, 57, 47
2, 31871, Note_on_c, 0, 62, 51
2, 31872, Note_on_c, 0, 52, 43
2, 31878, Note_on_c, 0, 67, 0
2, 31880, Note_on_c, 0, 57, 0
2, 31880, Note_on_c, 0, 62, 0
2, 31883, Note_on_c, 0, 52, 0
2, 31936, Note_on_c, 0, 59, 53
2, 31937, Note_on_c, 0, 63, 49
2, 31937, Note_on_c, 0, 61, 34
2, 31938, Note_on_c, 0, 71, 46
2, 31943, Note_on_c, 0, 67, 31
2, 31975, Note_on_c, 0, 67, 0
2, 31975, Note_on_c, 0, 63, 0
2, 31980, Note_on_c, 0, 59, 0
2, 31982, Note_on_c, 0, 71, 0
2, 31987, Note_on_c, 0, 61, 0
2, 32020, Note_on_c, 0, 61, 35
2, 32020, Note_on_c, 0, 63, 43
2, 32023, Note_on_c, 0, 67, 49
2, 32023, Note_on_c, 0, 59, 44
2, 32025, Note_on_c, 0, 71, 36
2, 32043, Control_c, 0, 64, 127
2, 32053, Note_on_c, 0, 63, 0
2, 32068, Note_on_c, 0, 71, 0
2, 32080, Note_on_c, 0, 67, 0
2, 32093, Note_on_c, 0, 59, 0
2, 32098, Note_on_c, 0, 61, 0
2, 32113, Note_on_c, 0, 69, 52
2, 32116, Note_on_c, 0, 65, 45
2, 32117, Note_on_c, 0, 60, 48
2, 32118, Control_c, 0, 64, 0
2, 32121, Note_on_c, 0, 57, 42
2, 32280, Control_c, 0, 64, 127
2, 32291, Note_on_c, 0, 60, 0
2, 32297, Note_on_c, 0, 57, 0
2, 32301, Note_on_c, 0, 65, 0
2, 32312, Note_on_c, 0, 69, 0
2, 32396, Control_c, 0, 64, 0
2, 32397, Note_on_c, 0, 76, 58
2, 32397, Note_on_c, 0, 68, 59
2, 32398, Note_on_c, 0, 64, 62
2, 32400, Note_on_c, 0, 71, 50
2, 32400, Note_on_c, 0, 59, 52
2, 32402, Note_on_c, 0, 53, 36
2, 32413, Note_on_c, 0, 68, 0
2, 32417, Note_on_c, 0, 71, 0
2, 32417, Note_on_c, 0, 76, 0
2, 32417, Note_on_c, 0, 64, 0
2, 32423, Note_on_c, 0, 53, 0
2, 32425, Note_on_c, 0, 59, 0
2, 32436, Note_on_c, 0, 76, 30
2, 32436, Note_on_c, 0, 68, 34
2, 32438, Note_on_c, 0, 71, 40
2, 32438, Note_on_c, 0, 64, 36
2, 32442, Note_on_c, 0, 59, 19
2, 32448, Note_on_c, 0, 71, 0
2, 32450, Note_on_c, 0, 76, 0
2, 32450, Note_on_c, 0, 68, 0
2, 32452, Note_on_c, 0, 64, 0
2, 32455, Note_on_c, 0, 59, 0
2, 32517, Note_on_c, 0, 71, 47
2, 32517, Note_on_c, 0, 64, 40
2, 32518, Note_on_c, 0, 68, 38
2, 32518, Note_on_c, 0, 59, 51
2, 32522, Note_on_c, 0, 53, 40
2, 32535, Note_on_c, 0, 53, 0
2, 32535, Note_on_c, 0, 68, 0
2, 32540, Note_on_c, 0, 59, 0
2, 32540, Note_on_c, 0, 71, 0
2, 32541, Note_on_c, 0, 64, 0
2, 32550, Control_c, 0, 64, 127
2, 32551, Note_on_c, 0, 64, 20
2, 32553, Note_on_c, 0, 71, 34
2, 32555, Note_on_c, 0, 68, 32
2, 32556, Note_on_c, 0, 59, 19
2, 32557, Note_on_c, 0, 53, 34
2, 32571, Note_on_c, 0, 71, 0
2, 32575, Note_on_c, 0, 59, 0
2, 32575, Note_on_c, 0, 64, 0
2, 32581, Note_on_c, 0, 68, 0
2, 32583, Note_on_c, 0, 53, 0
2, 32625, Control_c, 0, 64, 0
2, 32636, Note_on_c, 0, 62, 35
2, 32637, Note_on_c, 0, 52, 32
2, 32640, Note_on_c, 0, 57, 22
2, 32640, Note_on_c, 0, 67, 29
2, 32827, Note_on_c, 0, 67, 0
2, 32830, Note_on_c, 0, 62, 0
2, 32837, Note_on_c, 0, 52, 0
2, 32840, Note_on_c, 0, 57, 0
2, 32871, Note_on_c, 0, 57, 34
2, 32871, Note_on_c, 0, 62, 36
2, 32871, Note_on_c, 0, 67, 40
2, 32875, Note_on_c, 0, 52, 32
2, 32881, Note_on_c, 0, 67, 0
2, 32885, Note_on_c, 0, 52, 0
2, 32886, Note_on_c, 0, 62, 0
2, 32887, Note_on_c, 0, 57, 0
2, 33230, Note_on_c, 0, 71, 72
2, 33231, Note_on_c, 0, 79, 68
2, 33232, Note_on_c, 0, 67, 66
2, 33235, Note_on_c, 0, 76, 39
2, 33240, Note_on_c, 0, 72, 26
2, 33241, Note_on_c, 0, 71, 0
2, 33243, Note_on_c, 0, 76, 0
2, 33246, Note_on_c, 0, 72, 0
2, 33267, Note_on_c, 0, 67, 0
2, 33272, Note_on_c, 0, 79, 0
2, 33433, Note_on_c, 0, 56, 62
2, 33433, Note_on_c, 0, 63, 53
2, 33435, Note_on_c, 0, 59, 68
2, 33437, Note_on_c, 0, 55, 63
2, 33437, Note_on_c, 0, 67, 55
2, 33446, Note_on_c, 0, 67, 0
2, 33450, Note_on_c, 0, 56, 0
2, 33451, Note_on_c, 0, 55, 0
2, 33453, Note_on_c, 0, 59, 0
2, 33458, Note_on_c, 0, 63, 0
2, 33466, Note_on_c, 0, 56, 49
2, 33467, Note_on_c, 0, 67, 49
2, 33468, Note_on_c, 0, 63, 33
2, 33470, Note_on_c, 0, 59, 68
2, 33473, Note_on_c, 0, 55, 36
2, 33477, Note_on_c, 0, 59, 0
2, 33486, Note_on_c, 0, 67, 0
2, 33486, Note_on_c, 0, 56, 0
2, 33487, Note_on_c, 0, 55, 0
2, 33492, Note_on_c, 0, 63, 0
2, 33538, Note_on_c, 0, 56, 70
2, 33538, Note_on_c, 0, 63, 56
2, 33541, Note_on_c, 0, 59, 66
2, 33542, Note_on_c, 0, 67, 53
2, 33542, Note_on_c, 0, 55, 46
2, 33547, Note_on_c, 0, 59, 0
2, 33551, Note_on_c, 0, 67, 0
2, 33552, Note_on_c, 0, 56, 0
2, 33565, Note_on_c, 0, 63, 0
2, 33568, Note_on_c, 0, 55, 0
2, 33581, Note_on_c, 0, 51, 30
2, 33607, Note_on_c, 0, 51, 0
2, 33611, Note_on_c, 0, 67, 62
2, 33611, Note_on_c, 0, 57, 60
2, 33615, Note_on_c, 0, 52, 50
2, 33616, Note_on_c, 0, 62, 51
2, 33637, Note_on_c, 0, 57, 0
2, 33637, Note_on_c, 0, 67, 0
2, 33638, Note_on_c, 0, 62, 0
2, 33650, Note_on_c, 0, 52, 0
2, 33688, Note_on_c, 0, 66, 39
2, 33688, Note_on_c, 0, 51, 48
2, 33691, Note_on_c, 0, 61, 55
2, 33691, Note_on_c, 0, 56, 36
2, 33722, Note_on_c, 0, 66, 0
2, 33727, Note_on_c, 0, 61, 0
2, 33728, Note_on_c, 0, 56, 0
2, 33731, Note_on_c, 0, 51, 0
2, 33747, Note_on_c, 0, 67, 39
2, 33747, Note_on_c, 0, 52, 57
2, 33751, Note_on_c, 0, 57, 27
2, 33753, Note_on_c, 0, 62, 36
2, 33772, Note_on_c, 0, 67, 0
2, 33775, Note_on_c, 0, 62, 0
2, 33780, Note_on_c, 0, 52, 0
2, 33781, Note_on_c, 0, 57, 0
2, 33808, Note_on_c, 0, 51, 46
2, 33810, Note_on_c, 0, 66, 48
2, 33811, Note_on_c, 0, 56, 44
2, 33813, Note_on_c, 0, 61, 55
2, 33840, Note_on_c, 0, 56, 0
2, 33846, Note_on_c, 0, 66, 0
2, 33850, Note_on_c, 0, 51, 0
2, 33851, Note_on_c, 0, 61, 0
2, 33862, Note_on_c, 0, 52, 36
2, 33865, Note_on_c, 0, 67, 36
2, 33866, Note_on_c, 0, 57, 35
2, 33871, Note_on_c, 0, 62, 41
2, 33890, Note_on_c, 0, 62, 0
2, 33890, Note_on_c, 0, 57, 0
2, 33890, Note_on_c, 0, 67, 0
2, 33898, Note_on_c, 0, 52, 0
2, 34185, Note_on_c, 0, 67, 55
2, 34185, Note_on_c, 0, 57, 63
2, 34186, Note_on_c, 0, 62, 60
2, 34187, Note_on_c, 0, 52, 64
2, 34221, Note_on_c, 0, 67, 0
2, 34223, Note_on_c, 0, 62, 0
2, 34231, Note_on_c, 0, 57, 0
2, 34271, Note_on_c, 0, 52, 0
2, 34272, Note_on_c, 0, 66, 62
2, 34272, Note_on_c, 0, 51, 55
2, 34273, Note_on_c, 0, 56, 62
2, 34275, Note_on_c, 0, 61, 60
2, 34296, Note_on_c, 0, 56, 0
2, 34308, Note_on_c, 0, 61, 0
2, 34308, Note_on_c, 0, 66, 0
2, 34321, Note_on_c, 0, 51, 0
2, 34325, Note_on_c, 0, 58, 37
2, 34326, Note_on_c, 0, 67, 42
2, 34326, Note_on_c, 0, 52, 50
2, 34330, Note_on_c, 0, 61, 26
2, 34331, Note_on_c, 0, 64, 38
2, 34366, Note_on_c, 0, 64, 0
2, 34375, Note_on_c, 0, 58, 0
2, 34381, Note_on_c, 0, 67, 0
2, 34382, Note_on_c, 0, 61, 0
2, 34395, Note_on_c, 0, 52, 0
2, 34400, Note_on_c, 0, 58, 40
2, 34402, Note_on_c, 0, 61, 31
2, 34403, Note_on_c, 0, 49, 36
2, 34405, Note_on_c, 0, 64, 35
2, 34421, Note_on_c, 0, 58, 0
2, 34423, Note_on_c, 0, 64, 0
2, 34431, Note_on_c, 0, 61, 0
2, 34432, Note_on_c, 0, 49, 0
2, 34563, Note_on_c, 0, 67, 64
2, 34565, Note_on_c, 0, 57, 66
2, 34566, Note_on_c, 0, 60, 49
2, 34566, Note_on_c, 0, 64, 63
2, 34570, Note_on_c, 0, 65, 51
2, 34571, Note_on_c, 0, 52, 59
2, 34576, Note_on_c, 0, 65, 0
2, 34631, Note_on_c, 0, 67, 0
2, 34641, Note_on_c, 0, 60, 0
2, 34642, Note_on_c, 0, 52, 0
2, 34642, Note_on_c, 0, 57, 0
2, 34643, Note_on_c, 0, 64, 0
2, 34647, Note_on_c, 0, 51, 48
2, 34680, Note_on_c, 0, 51, 0
2, 34686, Note_on_c, 0, 67, 44
2, 34686, Note_on_c, 0, 57, 47
2, 34687, Note_on_c, 0, 64, 47
2, 34687, Note_on_c, 0, 52, 55
2, 34691, Note_on_c, 0, 60, 46
2, 34716, Note_on_c, 0, 64, 0
2, 34726, Note_on_c, 0, 60, 0
2, 34726, Note_on_c, 0, 67, 0
2, 34737, Note_on_c, 0, 57, 0
2, 34763, Note_on_c, 0, 52, 0
2, 34763, Note_on_c, 0, 64, 47
2, 34767, Note_on_c, 0, 60, 33
2, 34768, Note_on_c, 0, 50, 61
2, 34770, Note_on_c, 0, 53, 37
2, 34771, Note_on_c, 0, 57, 46
2, 34781, Note_on_c, 0, 53, 0
2, 34781, Note_on_c, 0, 50, 0
2, 34782, Note_on_c, 0, 57, 0
2, 34788, Note_on_c, 0, 60, 0
2, 34798, Note_on_c, 0, 64, 0
2, 34915, Note_on_c, 0, 55, 49
2, 34915, Note_on_c, 0, 64, 54
2, 34915, Note_on_c, 0, 67, 61
2, 34916, Note_on_c, 0, 57, 54
2, 34917, Note_on_c, 0, 60, 60
2, 34977, Note_on_c, 0, 60, 0
2, 34981, Note_on_c, 0, 57, 0
2, 34983, Note_on_c, 0, 55, 0
2, 34985, Note_on_c, 0, 67, 0
2, 34985, Note_on_c, 0, 64, 0
2, 35000, Note_on_c, 0, 51, 32
2, 35028, Note_on_c, 0, 51, 0
2, 35035, Note_on_c, 0, 67, 44
2, 35035, Note_on_c, 0, 57, 48
2, 35035, Note_on_c, 0, 64, 34
2, 35036, Note_on_c, 0, 55, 49
2, 35037, Note_on_c, 0, 60, 34
2, 35060, Note_on_c, 0, 64, 0
2, 35070, Note_on_c, 0, 60, 0
2, 35077, Note_on_c, 0, 55, 0
2, 35081, Note_on_c, 0, 57, 0
2, 35085, Note_on_c, 0, 65, 25
2, 35090, Note_on_c, 0, 67, 0
2, 35116, Note_on_c, 0, 56, 27
2, 35117, Note_on_c, 0, 59, 24
2, 35118, Note_on_c, 0, 62, 38
2, 35120, Note_on_c, 0, 53, 33
2, 35137, Note_on_c, 0, 53, 0
2, 35138, Note_on_c, 0, 59, 0
2, 35141, Note_on_c, 0, 62, 0
2, 35146, Note_on_c, 0, 56, 0
2, 35146, Note_on_c, 0, 65, 0
2, 35361, Note_on_c, 0, 74, 62
2, 35363, Note_on_c, 0, 64, 40
2, 35363, Note_on_c, 0, 69, 62
2, 35366, Note_on_c, 0, 58, 42
2, 35382, Note_on_c, 0, 69, 0
2, 35383, Note_on_c, 0, 74, 0
2, 35385, Note_on_c, 0, 64, 0
2, 35413, Note_on_c, 0, 58, 0
2, 35415, Note_on_c, 0, 56, 37
2, 35416, Note_on_c, 0, 73, 63
2, 35420, Note_on_c, 0, 63, 44
2, 35422, Note_on_c, 0, 68, 52
2, 35445, Control_c, 0, 64, 127
2, 35467, Note_on_c, 0, 73, 0
2, 35473, Note_on_c, 0, 63, 0
2, 35475, Note_on_c, 0, 68, 0
2, 35486, Note_on_c, 0, 56, 0
2, 35490, Note_on_c, 0, 62, 53
2, 35491, Note_on_c, 0, 72, 45
2, 35493, Note_on_c, 0, 67, 53
2, 35496, Control_c, 0, 64, 0
2, 35496, Note_on_c, 0, 57, 36
2, 35571, Control_c, 0, 64, 127
2, 35662, Note_on_c, 0, 67, 0
2, 35676, Note_on_c, 0, 72, 0
2, 35678, Note_on_c, 0, 66, 2
2, 35693, Note_on_c, 0, 62, 0
2, 35710, Note_on_c, 0, 66, 0
2, 35735, Note_on_c, 0, 57, 0
2, 35742, Note_on_c, 0, 54, 32
2, 35762, Note_on_c, 0, 56, 18
2, 35766, Control_c, 0, 64, 0
2, 35767, Note_on_c, 0, 61, 88
2, 35767, Note_on_c, 0, 72, 87
2, 35768, Note_on_c, 0, 65, 84
2, 35770, Note_on_c, 0, 57, 81
2, 35770, Note_on_c, 0, 69, 74
2, 35775, Note_on_c, 0, 54, 0
2, 35778, Note_on_c, 0, 56, 0
2, 35836, Note_on_c, 0, 65, 0
2, 35836, Note_on_c, 0, 69, 0
2, 35837, Note_on_c, 0, 72, 0
2, 35843, Note_on_c, 0, 57, 0
2, 35848, Note_on_c, 0, 61, 0
2, 35856, Note_on_c, 0, 61, 32
2, 35856, Note_on_c, 0, 57, 48
2, 35857, Note_on_c, 0, 65, 68
2, 35857, Note_on_c, 0, 69, 71
2, 35877, Note_on_c, 0, 65, 0
2, 35891, Note_on_c, 0, 61, 0
2, 35895, Note_on_c, 0, 57, 0
2, 35903, Note_on_c, 0, 69, 0
2, 35911, Note_on_c, 0, 65, 32
2, 35928, Note_on_c, 0, 61, 17
2, 35935, Control_c, 0, 64, 127
2, 35967, Note_on_c, 0, 65, 0
2, 35976, Note_on_c, 0, 51, 37
2, 35986, Note_on_c, 0, 51, 0
2, 35990, Note_on_c, 0, 61, 0
2, 36008, Control_c, 0, 64, 0
2, 36012, Note_on_c, 0, 60, 38
2, 36012, Note_on_c, 0, 57, 51
2, 36013, Note_on_c, 0, 69, 40
2, 36016, Note_on_c, 0, 72, 40
2, 36017, Note_on_c, 0, 65, 44
2, 36045, Control_c, 0, 64, 127
2, 36048, Note_on_c, 0, 60, 0
2, 36051, Note_on_c, 0, 65, 0
2, 36055, Note_on_c, 0, 57, 0
2, 36062, Note_on_c, 0, 69, 0
2, 36066, Note_on_c, 0, 72, 0
2, 36087, Note_on_c, 0, 74, 58
2, 36090, Note_on_c, 0, 65, 36
2, 36091, Note_on_c, 0, 69, 47
2, 36095, Note_on_c, 0, 57, 46
2, 36098, Note_on_c, 0, 65, 0
2, 36098, Note_on_c, 0, 74, 0
2, 36098, Control_c, 0, 64, 0
2, 36100, Note_on_c, 0, 69, 0
2, 36103, Note_on_c, 0, 57, 0
2, 36202, Note_on_c, 0, 68, 40
2, 36202, Note_on_c, 0, 71, 46
2, 36205, Note_on_c, 0, 64, 44
2, 36211, Note_on_c, 0, 59, 34
2, 36215, Note_on_c, 0, 64, 0
2, 36218, Note_on_c, 0, 59, 0
2, 36218, Note_on_c, 0, 68, 0
2, 36225, Note_on_c, 0, 71, 0
2, 36323, Note_on_c, 0, 83, 65
2, 36325, Note_on_c, 0, 80, 43
2, 36325, Note_on_c, 0, 71, 62
2, 36326, Note_on_c, 0, 63, 60
2, 36326, Note_on_c, 0, 76, 60
2, 36328, Note_on_c, 0, 59, 46
2, 36328, Note_on_c, 0, 53, 48
2, 36330, Note_on_c, 0, 56, 39
2, 36366, Control_c, 0, 64, 127
2, 36397, Note_on_c, 0, 53, 0
2, 36405, Note_on_c, 0, 56, 0
2, 36405, Note_on_c, 0, 59, 0
2, 36417, Note_on_c, 0, 76, 0
2, 36420, Note_on_c, 0, 63, 0
2, 36422, Note_on_c, 0, 83, 0
2, 36422, Note_on_c, 0, 80, 0
2, 36423, Note_on_c, 0, 71, 0
2, 36481, Note_on_c, 0, 64, 50
2, 36481, Note_on_c, 0, 81, 25
2, 36481, Note_on_c, 0, 76, 42
2, 36482, Note_on_c, 0, 69, 45
2, 36485, Note_on_c, 0, 57, 40
2, 36485, Note_on_c, 0, 60, 32
2, 36486, Control_c, 0, 64, 0
2, 36502, Note_on_c, 0, 69, 0
2, 36502, Note_on_c, 0, 64, 0
2, 36506, Note_on_c, 0, 60, 0
2, 36512, Note_on_c, 0, 76, 0
2, 36512, Note_on_c, 0, 57, 0
2, 36518, Note_on_c, 0, 81, 0
2, 36610, Control_c, 0, 64, 127
2, 36708, Control_c, 0, 64, 0
2, 36710, Note_on_c, 0, 92, 72
2, 36711, Note_on_c, 0, 65, 75
2, 36711, Note_on_c, 0, 84, 81
2, 36711, Note_on_c, 0, 58, 57
2, 36711, Note_on_c, 0, 96, 80
2, 36712, Note_on_c, 0, 54, 62
2, 36712, Note_on_c, 0, 60, 60
2, 36718, Note_on_c, 0, 90, 26
2, 36725, Note_on_c, 0, 90, 0
2, 36742, Control_c, 0, 64, 127
2, 36757, Note_on_c, 0, 96, 0
2, 36771, Note_on_c, 0, 92, 0
2, 36776, Note_on_c, 0, 84, 0
2, 36780, Note_on_c, 0, 60, 0
2, 36782, Note_on_c, 0, 58, 0
2, 36788, Note_on_c, 0, 65, 0
2, 36791, Note_on_c, 0, 54, 0
2, 36836, Note_on_c, 0, 92, 61
2, 36836, Note_on_c, 0, 58, 40
2, 36836, Note_on_c, 0, 80, 51
2, 36837, Note_on_c, 0, 65, 51
2, 36837, Note_on_c, 0, 54, 45
2, 36838, Note_on_c, 0, 87, 56
2, 36840, Note_on_c, 0, 60, 42
2, 36866, Note_on_c, 0, 60, 0
2, 36866, Note_on_c, 0, 65, 0
2, 36872, Note_on_c, 0, 80, 0
2, 36875, Note_on_c, 0, 58, 0
2, 36876, Note_on_c, 0, 87, 0
2, 36877, Note_on_c, 0, 54, 0
2, 36878, Note_on_c, 0, 92, 0
2, 36955, Control_c, 0, 64, 0
2, 37036, Note_on_c, 0, 91, 78
2, 37037, Note_on_c, 0, 79, 71
2, 37038, Note_on_c, 0, 62, 69
2, 37038, Note_on_c, 0, 86, 69
2, 37038, Note_on_c, 0, 59, 61
2, 37041, Note_on_c, 0, 54, 50
2, 37042, Note_on_c, 0, 57, 65
2, 37061, Control_c, 0, 64, 127
2, 37065, Note_on_c, 0, 91, 0
2, 37067, Note_on_c, 0, 86, 0
2, 37075, Note_on_c, 0, 79, 0
2, 37085, Note_on_c, 0, 62, 0
2, 37086, Note_on_c, 0, 57, 0
2, 37087, Note_on_c, 0, 54, 0
2, 37096, Note_on_c, 0, 59, 0
2, 37113, Control_c, 0, 64, 0
2, 37122, Note_on_c, 0, 73, 64
2, 37122, Note_on_c, 0, 85, 52
2, 37123, Note_on_c, 0, 59, 49
2, 37125, Note_on_c, 0, 54, 49
2, 37125, Note_on_c, 0, 62, 59
2, 37126, Note_on_c, 0, 57, 48
2, 37143, Control_c, 0, 64, 127
2, 37157, Note_on_c, 0, 59, 0
2, 37160, Note_on_c, 0, 57, 0
2, 37161, Note_on_c, 0, 85, 0
2, 37163, Note_on_c, 0, 62, 0
2, 37170, Note_on_c, 0, 73, 0
2, 37173, Note_on_c, 0, 54, 0
2, 37205, Note_on_c, 0, 62, 66
2, 37206, Control_c, 0, 64, 0
2, 37206, Note_on_c, 0, 51, 50
2, 37210, Note_on_c, 0, 57, 58
2, 37262, Control_c, 0, 64, 127
2, 37277, Note_on_c, 0, 62, 0
2, 37278, Note_on_c, 0, 57, 0
2, 37281, Note_on_c, 0, 51, 0
2, 37395, Note_on_c, 0, 51, 59
2, 37396, Note_on_c, 0, 62, 50
2, 37400, Note_on_c, 0, 57, 50
2, 37417, Note_on_c, 0, 62, 0
2, 37420, Note_on_c, 0, 51, 0
2, 37423, Note_on_c, 0, 57, 0
2, 37442, Note_on_c, 0, 69, 57
2, 37442, Note_on_c, 0, 62, 47
2, 37443, Note_on_c, 0, 57, 47
2, 37445, Note_on_c, 0, 66, 55
2, 37446, Note_on_c, 0, 52, 53
2, 37446, Control_c, 0, 64, 0
2, 37463, Note_on_c, 0, 62, 0
2, 37467, Note_on_c, 0, 52, 0
2, 37467, Note_on_c, 0, 57, 0
2, 37468, Note_on_c, 0, 66, 0
2, 37470, Note_on_c, 0, 69, 0
2, 37517, Note_on_c, 0, 62, 64
2, 37518, Note_on_c, 0, 66, 51
2, 37518, Note_on_c, 0, 69, 55
2, 37520, Note_on_c, 0, 57, 57
2, 37521, Note_on_c, 0, 52, 51
2, 37540, Note_on_c, 0, 69, 0
2, 37540, Note_on_c, 0, 62, 0
2, 37541, Note_on_c, 0, 52, 0
2, 37542, Note_on_c, 0, 57, 0
2, 37542, Note_on_c, 0, 66, 0
2, 37567, Note_on_c, 0, 66, 39
2, 37567, Note_on_c, 0, 69, 48
2, 37567, Note_on_c, 0, 62, 54
2, 37568, Note_on_c, 0, 52, 37
2, 37568, Note_on_c, 0, 57, 34
2, 37590, Note_on_c, 0, 52, 0
2, 37591, Note_on_c, 0, 62, 0
2, 37593, Note_on_c, 0, 69, 0
2, 37595, Note_on_c, 0, 57, 0
2, 37598, Note_on_c, 0, 66, 0
2, 37636, Note_on_c, 0, 67, 65
2, 37638, Note_on_c, 0, 62, 56
2, 37640, Note_on_c, 0, 52, 56
2, 37641, Note_on_c, 0, 57, 48
2, 37651, Note_on_c, 0, 62, 0
2, 37657, Note_on_c, 0, 57, 0
2, 37658, Note_on_c, 0, 52, 0
2, 37661, Note_on_c, 0, 67, 0
2, 37677, Note_on_c, 0, 62, 47
2, 37678, Note_on_c, 0, 57, 36
2, 37680, Note_on_c, 0, 52, 43
2, 37680, Note_on_c, 0, 66, 49
2, 37681, Note_on_c, 0, 69, 42
2, 37687, Note_on_c, 0, 62, 0
2, 37690, Note_on_c, 0, 69, 0
2, 37693, Note_on_c, 0, 52, 0
2, 37696, Note_on_c, 0, 57, 0
2, 37696, Note_on_c, 0, 66, 0
2, 37712, Note_on_c, 0, 70, 72
2, 37712, Note_on_c, 0, 66, 44
2, 37715, Note_on_c, 0, 57, 47
2, 37716, Note_on_c, 0, 52, 51
2, 37718, Note_on_c, 0, 62, 34
2, 37765, Note_on_c, 0, 62, 0
2, 37768, Note_on_c, 0, 66, 0
2, 37775, Note_on_c, 0, 70, 0
2, 37775, Note_on_c, 0, 52, 0
2, 37777, Note_on_c, 0, 57, 0
2, 37797, Note_on_c, 0, 62, 60
2, 37797, Note_on_c, 0, 66, 50
2, 37798, Note_on_c, 0, 69, 54
2, 37798, Note_on_c, 0, 52, 42
2, 37800, Note_on_c, 0, 57, 42
2, 37806, Control_c, 0, 64, 127
2, 37852, Note_on_c, 0, 62, 0
2, 37856, Note_on_c, 0, 57, 0
2, 37867, Note_on_c, 0, 66, 0
2, 37875, Note_on_c, 0, 69, 0
2, 37907, Control_c, 0, 64, 0
2, 37912, Note_on_c, 0, 59, 53
2, 37913, Note_on_c, 0, 67, 70
2, 37915, Note_on_c, 0, 57, 33
2, 37915, Note_on_c, 0, 55, 50
2, 37917, Note_on_c, 0, 60, 48
2, 37920, Note_on_c, 0, 64, 48
2, 37930, Note_on_c, 0, 64, 0
2, 37931, Note_on_c, 0, 59, 0
2, 37932, Note_on_c, 0, 60, 0
2, 37938, Note_on_c, 0, 57, 0
2, 37940, Note_on_c, 0, 55, 0
2, 37940, Note_on_c, 0, 67, 0
2, 37950, Note_on_c, 0, 52, 0
2, 37991, Note_on_c, 0, 67, 67
2, 37991, Note_on_c, 0, 57, 47
2, 37992, Note_on_c, 0, 59, 45
2, 37995, Note_on_c, 0, 55, 48
2, 37995, Note_on_c, 0, 60, 49
2, 37995, Note_on_c, 0, 64, 53
2, 38002, Note_on_c, 0, 60, 0
2, 38002, Note_on_c, 0, 59, 0
2, 38003, Note_on_c, 0, 64, 0
2, 38005, Note_on_c, 0, 55, 0
2, 38007, Note_on_c, 0, 57, 0
2, 38008, Note_on_c, 0, 67, 0
2, 38035, Note_on_c, 0, 59, 42
2, 38036, Note_on_c, 0, 67, 49
2, 38036, Note_on_c, 0, 64, 49
2, 38037, Note_on_c, 0, 60, 39
2, 38038, Note_on_c, 0, 57, 33
2, 38040, Note_on_c, 0, 55, 33
2, 38046, Note_on_c, 0, 59, 0
2, 38047, Note_on_c, 0, 60, 0
2, 38047, Note_on_c, 0, 64, 0
2, 38048, Note_on_c, 0, 55, 0
2, 38048, Note_on_c, 0, 57, 0
2, 38053, Note_on_c, 0, 67, 0
2, 38108, Note_on_c, 0, 63, 55
2, 38112, Note_on_c, 0, 66, 47
2, 38113, Control_c, 0, 64, 127
2, 38113, Note_on_c, 0, 60, 50
2, 38116, Note_on_c, 0, 59, 39
2, 38126, Note_on_c, 0, 59, 0
2, 38127, Note_on_c, 0, 60, 0
2, 38133, Note_on_c, 0, 66, 0
2, 38135, Note_on_c, 0, 63, 0
2, 38145, Control_c, 0, 64, 0
2, 38148, Note_on_c, 0, 59, 33
2, 38151, Note_on_c, 0, 55, 38
2, 38152, Note_on_c, 0, 60, 36
2, 38153, Note_on_c, 0, 67, 58
2, 38153, Control_c, 0, 64, 127
2, 38153, Note_on_c, 0, 64, 54
2, 38157, Note_on_c, 0, 57, 32
2, 38167, Note_on_c, 0, 57, 0
2, 38170, Note_on_c, 0, 59, 0
2, 38170, Note_on_c, 0, 55, 0
2, 38171, Note_on_c, 0, 64, 0
2, 38175, Note_on_c, 0, 67, 0
2, 38188, Note_on_c, 0, 60, 0
2, 38230, Note_on_c, 0, 68, 72
2, 38231, Note_on_c, 0, 60, 63
2, 38231, Note_on_c, 0, 64, 72
2, 38232, Note_on_c, 0, 54, 62
2, 38250, Note_on_c, 0, 60, 0
2, 38253, Control_c, 0, 64, 0
2, 38257, Note_on_c, 0, 54, 0
2, 38260, Note_on_c, 0, 64, 0
2, 38263, Note_on_c, 0, 68, 0
2, 38271, Note_on_c, 0, 54, 59
2, 38282, Control_c, 0, 64, 127
2, 38297, Note_on_c, 0, 54, 0
2, 38352, Note_on_c, 0, 57, 58
2, 38353, Note_on_c, 0, 50, 50
2, 38353, Note_on_c, 0, 64, 67
2, 38353, Note_on_c, 0, 67, 62
2, 38355, Note_on_c, 0, 60, 72
2, 38361, Control_c, 0, 64, 0
2, 38385, Control_c, 0, 64, 127
2, 38392, Note_on_c, 0, 57, 0
2, 38393, Note_on_c, 0, 50, 0
2, 38395, Note_on_c, 0, 60, 0
2, 38402, Note_on_c, 0, 64, 0
2, 38403, Note_on_c, 0, 67, 0
2, 38473, Note_on_c, 0, 79, 68
2, 38476, Note_on_c, 0, 72, 71
2, 38476, Note_on_c, 0, 64, 70
2, 38477, Note_on_c, 0, 67, 71
2, 38477, Note_on_c, 0, 54, 55
2, 38477, Note_on_c, 0, 76, 59
2, 38478, Note_on_c, 0, 60, 48
2, 38478, Note_on_c, 0, 57, 57
2, 38487, Control_c, 0, 64, 0
2, 38507, Control_c, 0, 64, 127
2, 38540, Note_on_c, 0, 76, 0
2, 38541, Note_on_c, 0, 79, 0
2, 38541, Note_on_c, 0, 72, 0
2, 38546, Note_on_c, 0, 64, 0
2, 38548, Note_on_c, 0, 67, 0
2, 38552, Note_on_c, 0, 57, 0
2, 38555, Note_on_c, 0, 60, 0
2, 38561, Note_on_c, 0, 54, 0
2, 38596, Note_on_c, 0, 54, 55
2, 38596, Note_on_c, 0, 76, 55
2, 38597, Note_on_c, 0, 64, 62
2, 38597, Note_on_c, 0, 69, 66
2, 38598, Note_on_c, 0, 57, 54
2, 38598, Note_on_c, 0, 72, 52
2, 38600, Note_on_c, 0, 60, 49
2, 38601, Control_c, 0, 64, 0
2, 38628, Control_c, 0, 64, 127
2, 38636, Note_on_c, 0, 76, 0
2, 38640, Note_on_c, 0, 69, 0
2, 38640, Note_on_c, 0, 72, 0
2, 38648, Note_on_c, 0, 64, 0
2, 38652, Note_on_c, 0, 60, 0
2, 38653, Note_on_c, 0, 57, 0
2, 38658, Note_on_c, 0, 54, 0
2, 38716, Note_on_c, 0, 65, 58
2, 38716, Note_on_c, 0, 54, 59
2, 38717, Note_on_c, 0, 69, 58
2, 38717, Note_on_c, 0, 60, 57
2, 38718, Note_on_c, 0, 72, 45
2, 38720, Note_on_c, 0, 57, 46
2, 38722, Control_c, 0, 64, 0
2, 38745, Note_on_c, 0, 57, 0
2, 38746, Control_c, 0, 64, 127
2, 38753, Note_on_c, 0, 69, 0
2, 38755, Note_on_c, 0, 72, 0
2, 38760, Note_on_c, 0, 65, 0
2, 38761, Note_on_c, 0, 54, 0
2, 38768, Note_on_c, 0, 60, 0
2, 38832, Note_on_c, 0, 68, 72
2, 38835, Note_on_c, 0, 60, 66
2, 38835, Note_on_c, 0, 44, 57
2, 38835, Note_on_c, 0, 54, 62
2, 38836, Note_on_c, 0, 63, 67
2, 38836, Control_c, 0, 64, 0
2, 38870, Control_c, 0, 64, 127
2, 38946, Note_on_c, 0, 63, 0
2, 38946, Note_on_c, 0, 60, 0
2, 38955, Note_on_c, 0, 54, 0
2, 38961, Note_on_c, 0, 68, 0
2, 38981, Note_on_c, 0, 44, 0
2, 38997, Note_on_c, 0, 67, 59
2, 38998, Note_on_c, 0, 63, 48
2, 38998, Note_on_c, 0, 59, 53
2, 39000, Note_on_c, 0, 43, 43
2, 39002, Control_c, 0, 64, 0
2, 39003, Note_on_c, 0, 53, 44
2, 39032, Note_on_c, 0, 67, 0
2, 39033, Note_on_c, 0, 53, 0
2, 39038, Note_on_c, 0, 63, 0
2, 39048, Note_on_c, 0, 59, 0
2, 39072, Control_c, 0, 64, 127
2, 39087, Control_c, 0, 64, 0
2, 39088, Note_on_c, 0, 46, 19
2, 39088, Note_on_c, 0, 49, 29
2, 39105, Note_on_c, 0, 49, 0
2, 39110, Note_on_c, 0, 46, 0
2, 39115, Note_on_c, 0, 56, 49
2, 39116, Note_on_c, 0, 59, 54
2, 39116, Note_on_c, 0, 53, 58
2, 39117, Note_on_c, 0, 64, 50
2, 39120, Note_on_c, 0, 52, 54
2, 39135, Control_c, 0, 64, 127
2, 39158, Note_on_c, 0, 59, 0
2, 39161, Note_on_c, 0, 64, 0
2, 39168, Note_on_c, 0, 56, 0
2, 39183, Note_on_c, 0, 53, 0
2, 39202, Note_on_c, 0, 52, 0
2, 39215, Note_on_c, 0, 50, 30
2, 39226, Note_on_c, 0, 50, 0
2, 39231, Control_c, 0, 64, 0
2, 39236, Note_on_c, 0, 56, 54
2, 39237, Note_on_c, 0, 65, 45
2, 39237, Note_on_c, 0, 52, 48
2, 39237, Note_on_c, 0, 62, 50
2, 39241, Note_on_c, 0, 59, 54
2, 39255, Control_c, 0, 64, 127
2, 39290, Note_on_c, 0, 59, 0
2, 39301, Note_on_c, 0, 62, 0
2, 39317, Note_on_c, 0, 56, 0
2, 39318, Note_on_c, 0, 52, 0
2, 39321, Note_on_c, 0, 65, 0
2, 39327, Note_on_c, 0, 48, 29
2, 39348, Note_on_c, 0, 48, 0
2, 39355, Note_on_c, 0, 64, 6
2, 39356, Note_on_c, 0, 52, 46
2, 39357, Note_on_c, 0, 43, 0
2, 39360, Note_on_c, 0, 55, 41
2, 39360, Note_on_c, 0, 59, 43
2, 39363, Control_c, 0, 64, 0
2, 39427, Control_c, 0, 64, 127
2, 39442, Note_on_c, 0, 55, 0
2, 39450, Note_on_c, 0, 59, 0
2, 39457, Note_on_c, 0, 52, 0
2, 39480, Note_on_c, 0, 64, 0
2, 39602, Control_c, 0, 64, 0
2, 39602, Note_on_c, 0, 65, 77
2, 39603, Note_on_c, 0, 75, 77
2, 39603, Note_on_c, 0, 83, 81
2, 39603, Note_on_c, 0, 58, 48
2, 39605, Note_on_c, 0, 61, 55
2, 39605, Note_on_c, 0, 55, 65
2, 39605, Note_on_c, 0, 71, 77
2, 39606, Note_on_c, 0, 78, 55
2, 39635, Note_on_c, 0, 75, 0
2, 39636, Note_on_c, 0, 71, 0
2, 39637, Note_on_c, 0, 65, 0
2, 39638, Note_on_c, 0, 78, 0
2, 39640, Note_on_c, 0, 55, 0
2, 39642, Note_on_c, 0, 58, 0
2, 39642, Note_on_c, 0, 83, 0
2, 39646, Note_on_c, 0, 61, 0
2, 39745, Control_c, 0, 64, 127
2, 39838, Control_c, 0, 64, 0
2, 39842, Note_on_c, 0, 60, 47
2, 39843, Note_on_c, 0, 72, 70
2, 39843, Note_on_c, 0, 84, 69
2, 39846, Note_on_c, 0, 64, 62
2, 39846, Note_on_c, 0, 81, 49
2, 39846, Note_on_c, 0, 77, 48
2, 39847, Note_on_c, 0, 53, 50
2, 39848, Note_on_c, 0, 57, 54
2, 39857, Note_on_c, 0, 77, 0
2, 39886, Note_on_c, 0, 72, 0
2, 39890, Note_on_c, 0, 81, 0
2, 39890, Note_on_c, 0, 64, 0
2, 39893, Note_on_c, 0, 60, 0
2, 39896, Note_on_c, 0, 57, 0
2, 39897, Note_on_c, 0, 53, 0
2, 39898, Note_on_c, 0, 84, 0
2, 39962, Note_on_c, 0, 59, 66
2, 39962, Note_on_c, 0, 64, 71
2, 39963, Note_on_c, 0, 89, 56
2, 39963, Note_on_c, 0, 53, 54
2, 39965, Note_on_c, 0, 84, 57
2, 39965, Note_on_c, 0, 77, 35
2, 39966, Note_on_c, 0, 57, 63
2, 39968, Note_on_c, 0, 76, 39
2, 40006, Note_on_c, 0, 76, 0
2, 40020, Note_on_c, 0, 77, 0
2, 40021, Note_on_c, 0, 84, 0
2, 40022, Note_on_c, 0, 57, 0
2, 40025, Note_on_c, 0, 64, 0
2, 40026, Note_on_c, 0, 59, 0
2, 40027, Note_on_c, 0, 89, 0
2, 40027, Note_on_c, 0, 53, 0
2, 40092, Control_c, 0, 64, 127
2, 40158, Note_on_c, 0, 95, 71
2, 40158, Note_on_c, 0, 87, 60
2, 40160, Note_on_c, 0, 83, 64
2, 40161, Note_on_c, 0, 53, 66
2, 40161, Note_on_c, 0, 63, 64
2, 40162, Note_on_c, 0, 59, 62
2, 40162, Note_on_c, 0, 92, 50
2, 40163, Note_on_c, 0, 56, 52
2, 40166, Control_c, 0, 64, 0
2, 40172, Note_on_c, 0, 92, 0
2, 40208, Note_on_c, 0, 95, 0
2, 40210, Note_on_c, 0, 87, 0
2, 40210, Note_on_c, 0, 59, 0
2, 40212, Note_on_c, 0, 83, 0
2, 40216, Note_on_c, 0, 63, 0
2, 40217, Note_on_c, 0, 53, 0
2, 40221, Note_on_c, 0, 56, 0
2, 40321, Note_on_c, 0, 91, 57
2, 40321, Note_on_c, 0, 62, 53
2, 40322, Note_on_c, 0, 79, 48
2, 40323, Note_on_c, 0, 86, 48
2, 40325, Note_on_c, 0, 52, 53
2, 40325, Note_on_c, 0, 57, 40
2, 40388, Control_c, 0, 64, 127
2, 40445, Note_on_c, 0, 91, 0
2, 40450, Note_on_c, 0, 86, 0
2, 40466, Note_on_c, 0, 79, 0
2, 40520, Note_on_c, 0, 62, 0
2, 40523, Note_on_c, 0, 57, 0
2, 40527, Note_on_c, 0, 52, 0
2, 40875, Note_on_c, 0, 43, 68
2, 40895, Note_on_c, 0, 43, 0
2, 40897, Control_c, 0, 64, 0
2, 40976, Note_on_c, 0, 67, 64
2, 40977, Note_on_c, 0, 55, 62
2, 40983, Note_on_c, 0, 67, 0
2, 40988, Note_on_c, 0, 55, 0
2, 41046, Note_on_c, 0, 64, 57
2, 41047, Note_on_c, 0, 56, 44
2, 41047, Note_on_c, 0, 53, 51
2, 41051, Note_on_c, 0, 59, 56
2, 41057, Note_on_c, 0, 43, 34
2, 41155, Control_c, 0, 64, 127
2, 41210, Note_on_c, 0, 53, 0
2, 41213, Note_on_c, 0, 64, 0
2, 41215, Note_on_c, 0, 59, 0
2, 41225, Note_on_c, 0, 56, 0
2, 41243, Note_on_c, 0, 50, 40
2, 41267, Note_on_c, 0, 50, 0
2, 41277, Control_c, 0, 64, 0
2, 41280, Note_on_c, 0, 67, 37
2, 41281, Note_on_c, 0, 57, 44
2, 41282, Note_on_c, 0, 52, 57
2, 41283, Note_on_c, 0, 62, 51
2, 41298, Note_on_c, 0, 62, 0
2, 41300, Note_on_c, 0, 57, 0
2, 41301, Note_on_c, 0, 67, 0
2, 41318, Note_on_c, 0, 52, 0
2, 41331, Note_on_c, 0, 51, 25
2, 41363, Note_on_c, 0, 67, 57
2, 41365, Note_on_c, 0, 51, 0
2, 41365, Note_on_c, 0, 57, 54
2, 41367, Note_on_c, 0, 62, 53
2, 41370, Note_on_c, 0, 52, 58
2, 41445, Control_c, 0, 64, 127
2, 41450, Note_on_c, 0, 43, 0
2, 41516, Control_c, 0, 64, 0
2, 41525, Note_on_c, 0, 43, 45
2, 41640, Control_c, 0, 64, 127
2, 41670, Note_on_c, 0, 62, 0
2, 41675, Note_on_c, 0, 67, 0
2, 41687, Note_on_c, 0, 57, 0
2, 41722, Note_on_c, 0, 52, 0
2, 41746, Note_on_c, 0, 52, 58
2, 41783, Note_on_c, 0, 43, 0
2, 41830, Control_c, 0, 64, 0
2, 41833, Note_on_c, 0, 64, 74
2, 41836, Note_on_c, 0, 43, 64
2, 41836, Note_on_c, 0, 55, 73
2, 41836, Note_on_c, 0, 59, 66
2, 41858, Control_c, 0, 64, 127
2, 41863, Note_on_c, 0, 55, 0
2, 41865, Note_on_c, 0, 52, 0
2, 41867, Note_on_c, 0, 43, 0
2, 41885, Note_on_c, 0, 59, 0
2, 41893, Note_on_c, 0, 64, 0
2, 41990, Note_on_c, 0, 72, 75
2, 41991, Note_on_c, 0, 61, 77
2, 41991, Note_on_c, 0, 64, 77
2, 41992, Note_on_c, 0, 60, 70
2, 41995, Note_on_c, 0, 67, 60
2, 41996, Control_c, 0, 64, 0
2, 42068, Control_c, 0, 64, 127
2, 42081, Note_on_c, 0, 67, 0
2, 42098, Note_on_c, 0, 61, 0
2, 42100, Note_on_c, 0, 64, 0
2, 42105, Note_on_c, 0, 72, 0
2, 42108, Note_on_c, 0, 60, 0
2, 42111, Note_on_c, 0, 61, 37
2, 42117, Note_on_c, 0, 67, 35
2, 42118, Note_on_c, 0, 57, 39
2, 42121, Note_on_c, 0, 64, 18
2, 42156, Note_on_c, 0, 57, 0
2, 42167, Note_on_c, 0, 64, 0
2, 42171, Note_on_c, 0, 67, 0
2, 42192, Note_on_c, 0, 61, 0
2, 42238, Note_on_c, 0, 67, 45
2, 42240, Note_on_c, 0, 60, 32
2, 42240, Note_on_c, 0, 50, 42
2, 42241, Note_on_c, 0, 64, 44
2, 42241, Control_c, 0, 64, 0
2, 42242, Note_on_c, 0, 57, 30
2, 42341, Control_c, 0, 64, 127
2, 42376, Note_on_c, 0, 64, 0
2, 42376, Note_on_c, 0, 60, 0
2, 42416, Note_on_c, 0, 57, 0
2, 42428, Note_on_c, 0, 67, 0
2, 42467, Note_on_c, 0, 64, 44
2, 42468, Note_on_c, 0, 69, 62
2, 42471, Note_on_c, 0, 60, 45
2, 42471, Note_on_c, 0, 65, 49
2, 42472, Control_c, 0, 64, 0
2, 42528, Control_c, 0, 64, 127
2, 42560, Note_on_c, 0, 64, 0
2, 42567, Note_on_c, 0, 50, 0
2, 42568, Note_on_c, 0, 65, 0
2, 42576, Note_on_c, 0, 60, 0
2, 42580, Note_on_c, 0, 69, 0
2, 42703, Note_on_c, 0, 79, 44
2, 42705, Note_on_c, 0, 64, 46
2, 42706, Note_on_c, 0, 67, 40
2, 42707, Note_on_c, 0, 59, 42
2, 42708, Note_on_c, 0, 74, 51
2, 42708, Control_c, 0, 64, 0
2, 42711, Note_on_c, 0, 53, 32
2, 42756, Control_c, 0, 64, 127
2, 42773, Note_on_c, 0, 67, 0
2, 42793, Note_on_c, 0, 74, 0
2, 42797, Note_on_c, 0, 64, 0
2, 42798, Note_on_c, 0, 53, 0
2, 42801, Note_on_c, 0, 59, 0
2, 42807, Note_on_c, 0, 79, 0
2, 42950, Note_on_c, 0, 64, 58
2, 42951, Note_on_c, 0, 81, 55
2, 42953, Note_on_c, 0, 93, 44
2, 42953, Note_on_c, 0, 56, 42
2, 42953, Note_on_c, 0, 87, 45
2, 42956, Note_on_c, 0, 90, 36
2, 42956, Note_on_c, 0, 60, 36
2, 42961, Control_c, 0, 64, 0
2, 42978, Note_on_c, 0, 60, 0
2, 42980, Note_on_c, 0, 64, 0
2, 42980, Note_on_c, 0, 81, 0
2, 42983, Note_on_c, 0, 56, 0
2, 42985, Note_on_c, 0, 90, 0
2, 42987, Note_on_c, 0, 93, 0
2, 42987, Note_on_c, 0, 87, 0
2, 43072, Note_on_c, 0, 56, 43
2, 43072, Note_on_c, 0, 64, 44
2, 43073, Note_on_c, 0, 95, 55
2, 43076, Note_on_c, 0, 83, 38
2, 43076, Note_on_c, 0, 88, 45
2, 43098, Note_on_c, 0, 64, 0
2, 43100, Note_on_c, 0, 83, 0
2, 43100, Note_on_c, 0, 88, 0
2, 43111, Note_on_c, 0, 56, 0
2, 43115, Note_on_c, 0, 95, 0
2, 43201, Note_on_c, 0, 55, 33
2, 43201, Note_on_c, 0, 57, 34
2, 43201, Note_on_c, 0, 84, 51
2, 43202, Note_on_c, 0, 96, 57
2, 43202, Note_on_c, 0, 64, 29
2, 43203, Note_on_c, 0, 60, 45
2, 43220, Control_c, 0, 64, 127
2, 43353, Note_on_c, 0, 84, 0
2, 43362, Note_on_c, 0, 64, 0
2, 43363, Note_on_c, 0, 55, 0
2, 43366, Note_on_c, 0, 60, 0
2, 43370, Note_on_c, 0, 57, 0
2, 43371, Note_on_c, 0, 96, 0
2, 43562, Note_on_c, 0, 64, 74
2, 43562, Note_on_c, 0, 56, 68
2, 43565, Note_on_c, 0, 60, 61
2, 43576, Control_c, 0, 64, 0
2, 43617, Note_on_c, 0, 60, 0
2, 43622, Note_on_c, 0, 56, 0
2, 43622, Control_c, 0, 64, 127
2, 43628, Note_on_c, 0, 64, 0
2, 43652, Control_c, 0, 64, 0
2, 43688, Note_on_c, 0, 55, 62
2, 43688, Note_on_c, 0, 64, 59
2, 43690, Note_on_c, 0, 60, 54
2, 43716, Control_c, 0, 64, 127
2, 43813, Note_on_c, 0, 64, 0
2, 43823, Note_on_c, 0, 60, 0
2, 43840, Note_on_c, 0, 55, 0
2, 43888, Note_on_c, 0, 64, 65
2, 43888, Note_on_c, 0, 76, 89
2, 43890, Note_on_c, 0, 69, 95
2, 43891, Note_on_c, 0, 60, 60
2, 43892, Note_on_c, 0, 54, 62
2, 43895, Control_c, 0, 64, 0
2, 43916, Note_on_c, 0, 64, 0
2, 43926, Note_on_c, 0, 60, 0
2, 43930, Note_on_c, 0, 69, 0
2, 43932, Note_on_c, 0, 54, 0
2, 43936, Note_on_c, 0, 76, 0
2, 43948, Note_on_c, 0, 54, 51
2, 43950, Note_on_c, 0, 64, 45
2, 43951, Note_on_c, 0, 60, 43
2, 43952, Note_on_c, 0, 72, 58
2, 43952, Note_on_c, 0, 69, 42
2, 43953, Control_c, 0, 64, 127
2, 44000, Note_on_c, 0, 69, 0
2, 44000, Note_on_c, 0, 54, 0
2, 44008, Note_on_c, 0, 64, 0
2, 44025, Note_on_c, 0, 60, 0
2, 44041, Note_on_c, 0, 72, 0
2, 44043, Note_on_c, 0, 69, 57
2, 44045, Note_on_c, 0, 54, 45
2, 44050, Note_on_c, 0, 64, 37
2, 44062, Note_on_c, 0, 69, 0
2, 44080, Note_on_c, 0, 64, 0
2, 44088, Note_on_c, 0, 54, 0
2, 44121, Note_on_c, 0, 62, 45
2, 44123, Note_on_c, 0, 67, 44
2, 44123, Note_on_c, 0, 58, 45
2, 44125, Note_on_c, 0, 53, 33
2, 44131, Control_c, 0, 64, 0
2, 44162, Control_c, 0, 64, 127
2, 44196, Note_on_c, 0, 67, 0
2, 44196, Note_on_c, 0, 62, 0
2, 44205, Note_on_c, 0, 58, 0
2, 44205, Note_on_c, 0, 53, 0
2, 44237, Note_on_c, 0, 62, 69
2, 44238, Note_on_c, 0, 72, 56
2, 44238, Note_on_c, 0, 67, 67
2, 44240, Note_on_c, 0, 53, 56
2, 44243, Note_on_c, 0, 58, 50
2, 44260, Note_on_c, 0, 62, 0
2, 44267, Note_on_c, 0, 53, 0
2, 44270, Note_on_c, 0, 72, 0
2, 44278, Note_on_c, 0, 67, 0
2, 44282, Note_on_c, 0, 53, 38
2, 44296, Note_on_c, 0, 62, 25
2, 44305, Note_on_c, 0, 62, 0
2, 44327, Note_on_c, 0, 53, 0
2, 44347, Note_on_c, 0, 58, 0
2, 44361, Note_on_c, 0, 75, 71
2, 44362, Note_on_c, 0, 64, 74
2, 44362, Note_on_c, 0, 72, 64
2, 44362, Note_on_c, 0, 68, 63
2, 44365, Note_on_c, 0, 63, 74
2, 44376, Control_c, 0, 64, 0
2, 44406, Note_on_c, 0, 64, 0
2, 44407, Note_on_c, 0, 68, 0
2, 44408, Note_on_c, 0, 72, 0
2, 44410, Note_on_c, 0, 75, 0
2, 44415, Note_on_c, 0, 63, 0
2, 44423, Note_on_c, 0, 61, 42
2, 44426, Note_on_c, 0, 68, 38
2, 44426, Note_on_c, 0, 73, 39
2, 44427, Note_on_c, 0, 64, 40
2, 44450, Control_c, 0, 64, 127
2, 44468, Note_on_c, 0, 73, 0
2, 44471, Note_on_c, 0, 64, 0
2, 44471, Note_on_c, 0, 68, 0
2, 44500, Note_on_c, 0, 61, 0
2, 44505, Control_c, 0, 64, 0
2, 44517, Note_on_c, 0, 64, 53
2, 44518, Note_on_c, 0, 72, 38
2, 44518, Note_on_c, 0, 60, 32
2, 44520, Note_on_c, 0, 68, 39
2, 44527, Note_on_c, 0, 72, 0
2, 44533, Note_on_c, 0, 68, 0
2, 44537, Note_on_c, 0, 64, 0
2, 44552, Note_on_c, 0, 60, 0
2, 44592, Note_on_c, 0, 58, 48
2, 44593, Control_c, 0, 64, 127
2, 44593, Note_on_c, 0, 70, 52
2, 44593, Note_on_c, 0, 62, 60
2, 44612, Control_c, 0, 64, 0
2, 44618, Note_on_c, 0, 70, 0
2, 44621, Note_on_c, 0, 62, 0
2, 44631, Note_on_c, 0, 58, 0
2, 44641, Note_on_c, 0, 57, 44
2, 44643, Note_on_c, 0, 69, 48
2, 44650, Note_on_c, 0, 60, 14
2, 44651, Note_on_c, 0, 64, 20
2, 44656, Note_on_c, 0, 69, 0
2, 44657, Note_on_c, 0, 64, 0
2, 44666, Note_on_c, 0, 57, 0
2, 44675, Note_on_c, 0, 60, 0
2, 44718, Note_on_c, 0, 64, 62
2, 44722, Note_on_c, 0, 60, 62
2, 44765, Note_on_c, 0, 64, 0
2, 44790, Note_on_c, 0, 60, 0
2, 44841, Note_on_c, 0, 41, 48
2, 44848, Note_on_c, 0, 41, 0
2, 44856, Control_c, 0, 64, 127
2, 44867, Control_c, 0, 64, 0
2, 44878, Note_on_c, 0, 56, 44
2, 44880, Note_on_c, 0, 63, 48
2, 44880, Note_on_c, 0, 60, 54
2, 44882, Note_on_c, 0, 67, 44
2, 44883, Note_on_c, 0, 55, 36
2, 44895, Note_on_c, 0, 55, 0
2, 44943, Control_c, 0, 64, 127
2, 44945, Note_on_c, 0, 67, 0
2, 44946, Note_on_c, 0, 60, 0
2, 44953, Note_on_c, 0, 63, 0
2, 44958, Note_on_c, 0, 56, 0
2, 44960, Note_on_c, 0, 51, 35
2, 44986, Control_c, 0, 64, 0
2, 44987, Note_on_c, 0, 51, 0
2, 44996, Note_on_c, 0, 58, 26
2, 44998, Note_on_c, 0, 53, 43
2, 44998, Note_on_c, 0, 56, 28
2, 45000, Note_on_c, 0, 62, 44
2, 45000, Note_on_c, 0, 65, 39
2, 45038, Note_on_c, 0, 65, 0
2, 45052, Note_on_c, 0, 53, 0
2, 45053, Control_c, 0, 64, 127
2, 45056, Note_on_c, 0, 56, 0
2, 45060, Note_on_c, 0, 62, 0
2, 45063, Note_on_c, 0, 58, 0
2, 45088, Note_on_c, 0, 50, 31
2, 45097, Control_c, 0, 64, 0
2, 45100, Note_on_c, 0, 50, 0
2, 45106, Note_on_c, 0, 64, 37
2, 45110, Note_on_c, 0, 55, 27
2, 45113, Note_on_c, 0, 59, 40
2, 45116, Note_on_c, 0, 52, 29
2, 45158, Note_on_c, 0, 59, 0
2, 45158, Note_on_c, 0, 55, 0
2, 45160, Note_on_c, 0, 52, 0
2, 45161, Note_on_c, 0, 64, 0
2, 45231, Note_on_c, 0, 58, 50
2, 45232, Note_on_c, 0, 55, 54
2, 45233, Note_on_c, 0, 67, 50
2, 45233, Note_on_c, 0, 64, 51
2, 45235, Note_on_c, 0, 61, 49
2, 45261, Note_on_c, 0, 67, 0
2, 45266, Note_on_c, 0, 58, 0
2, 45270, Note_on_c, 0, 64, 0
2, 45272, Note_on_c, 0, 55, 0
2, 45293, Note_on_c, 0, 61, 0
2, 45356, Note_on_c, 0, 67, 39
2, 45357, Note_on_c, 0, 58, 33
2, 45357, Note_on_c, 0, 61, 35
2, 45357, Note_on_c, 0, 55, 43
2, 45358, Note_on_c, 0, 64, 38
2, 45371, Control_c, 0, 64, 127
2, 45406, Note_on_c, 0, 64, 0
2, 45417, Note_on_c, 0, 58, 0
2, 45421, Note_on_c, 0, 67, 0
2, 45430, Note_on_c, 0, 55, 0
2, 45442, Note_on_c, 0, 61, 0
2, 45446, Control_c, 0, 64, 0
2, 45471, Note_on_c, 0, 58, 31
2, 45472, Note_on_c, 0, 64, 38
2, 45475, Control_c, 0, 64, 127
2, 45477, Note_on_c, 0, 52, 38
2, 45478, Note_on_c, 0, 61, 18
2, 45498, Note_on_c, 0, 64, 0
2, 45512, Note_on_c, 0, 58, 0
2, 45541, Note_on_c, 0, 52, 0
2, 45555, Control_c, 0, 64, 0
2, 45556, Note_on_c, 0, 60, 47
2, 45556, Note_on_c, 0, 57, 48
2, 45557, Note_on_c, 0, 65, 41
2, 45560, Note_on_c, 0, 50, 39
2, 45588, Control_c, 0, 64, 127
2, 45592, Note_on_c, 0, 57, 0
2, 45597, Note_on_c, 0, 50, 0
2, 45600, Note_on_c, 0, 60, 0
2, 45602, Note_on_c, 0, 65, 0
2, 45615, Note_on_c, 0, 61, 0
2, 45683, Note_on_c, 0, 62, 88
2, 45683, Note_on_c, 0, 72, 77
2, 45683, Note_on_c, 0, 69, 75
2, 45685, Note_on_c, 0, 65, 73
2, 45686, Note_on_c, 0, 57, 74
2, 45702, Control_c, 0, 64, 0
2, 45722, Control_c, 0, 64, 127
2, 45776, Note_on_c, 0, 69, 0
2, 45778, Note_on_c, 0, 65, 0
2, 45778, Note_on_c, 0, 72, 0
2, 45783, Note_on_c, 0, 62, 0
2, 45811, Note_on_c, 0, 57, 0
2, 45838, Control_c, 0, 64, 0
2, 45838, Note_on_c, 0, 59, 68
2, 45838, Note_on_c, 0, 71, 57
2, 45841, Note_on_c, 0, 68, 42
2, 45843, Note_on_c, 0, 64, 69
2, 45845, Note_on_c, 0, 53, 54
2, 45872, Note_on_c, 0, 64, 0
2, 45875, Note_on_c, 0, 68, 0
2, 45875, Note_on_c, 0, 53, 0
2, 45878, Note_on_c, 0, 59, 0
2, 45888, Note_on_c, 0, 71, 0
2, 45955, Note_on_c, 0, 68, 53
2, 45960, Note_on_c, 0, 53, 54
2, 45960, Note_on_c, 0, 59, 45
2, 45962, Note_on_c, 0, 64, 48
2, 45962, Control_c, 0, 64, 127
2, 45990, Note_on_c, 0, 64, 0
2, 45995, Note_on_c, 0, 68, 0
2, 45997, Note_on_c, 0, 53, 0
2, 46012, Note_on_c, 0, 59, 0
2, 46072, Note_on_c, 0, 57, 40
2, 46072, Control_c, 0, 64, 0
2, 46073, Note_on_c, 0, 52, 47
2, 46073, Note_on_c, 0, 62, 50
2, 46073, Note_on_c, 0, 67, 42
2, 46121, Control_c, 0, 64, 127
2, 46122, Note_on_c, 0, 67, 0
2, 46127, Note_on_c, 0, 57, 0
2, 46135, Note_on_c, 0, 62, 0
2, 46150, Note_on_c, 0, 52, 0
2, 46152, Note_on_c, 0, 51, 57
2, 46157, Control_c, 0, 64, 0
2, 46158, Note_on_c, 0, 66, 51
2, 46158, Note_on_c, 0, 56, 63
2, 46160, Note_on_c, 0, 61, 59
2, 46185, Note_on_c, 0, 51, 0
2, 46190, Note_on_c, 0, 56, 0
2, 46197, Note_on_c, 0, 52, 31
2, 46200, Note_on_c, 0, 66, 0
2, 46208, Note_on_c, 0, 67, 32
2, 46210, Note_on_c, 0, 62, 36
2, 46210, Note_on_c, 0, 57, 28
2, 46211, Note_on_c, 0, 61, 0
2, 46228, Note_on_c, 0, 67, 0
2, 46236, Note_on_c, 0, 57, 0
2, 46236, Note_on_c, 0, 62, 0
2, 46262, Note_on_c, 0, 52, 0
2, 46268, Note_on_c, 0, 51, 47
2, 46277, Note_on_c, 0, 66, 35
2, 46281, Note_on_c, 0, 56, 26
2, 46282, Note_on_c, 0, 61, 27
2, 46290, Note_on_c, 0, 66, 0
2, 46295, Note_on_c, 0, 51, 0
2, 46301, Note_on_c, 0, 56, 0
2, 46316, Note_on_c, 0, 61, 0
2, 46318, Note_on_c, 0, 67, 49
2, 46318, Note_on_c, 0, 57, 43
2, 46318, Note_on_c, 0, 62, 45
2, 46320, Note_on_c, 0, 52, 50
2, 46357, Note_on_c, 0, 67, 0
2, 46367, Control_c, 0, 64, 127
2, 46380, Note_on_c, 0, 57, 0
2, 46381, Note_on_c, 0, 62, 0
2, 46406, Control_c, 0, 64, 0
2, 46410, Note_on_c, 0, 52, 0
2, 46421, Control_c, 0, 64, 127
2, 46423, Note_on_c, 0, 51, 30
2, 46427, Note_on_c, 0, 66, 32
2, 46427, Note_on_c, 0, 56, 32
2, 46432, Note_on_c, 0, 61, 29
2, 46462, Note_on_c, 0, 61, 0
2, 46466, Note_on_c, 0, 56, 0
2, 46472, Note_on_c, 0, 66, 0
2, 46501, Note_on_c, 0, 51, 0
2, 46510, Note_on_c, 0, 55, 66
2, 46513, Note_on_c, 0, 60, 49
2, 46513, Note_on_c, 0, 57, 50
2, 46513, Note_on_c, 0, 65, 56
2, 46515, Note_on_c, 0, 67, 55
2, 46520, Control_c, 0, 64, 0
2, 46576, Control_c, 0, 64, 127
2, 46613, Note_on_c, 0, 57, 0
2, 46623, Note_on_c, 0, 60, 0
2, 46626, Note_on_c, 0, 65, 0
2, 46630, Note_on_c, 0, 67, 0
2, 46632, Note_on_c, 0, 43, 62
2, 46638, Note_on_c, 0, 55, 0
2, 46641, Note_on_c, 0, 43, 0
2, 46795, Note_on_c, 0, 64, 55
2, 46796, Note_on_c, 0, 76, 40
2, 46797, Note_on_c, 0, 59, 44
2, 46797, Note_on_c, 0, 88, 26
2, 46797, Note_on_c, 0, 80, 35
2, 46798, Note_on_c, 0, 53, 44
2, 46802, Note_on_c, 0, 83, 41
2, 46812, Control_c, 0, 64, 0
2, 46813, Note_on_c, 0, 64, 0
2, 46816, Note_on_c, 0, 53, 0
2, 46818, Note_on_c, 0, 59, 0
2, 46821, Note_on_c, 0, 76, 0
2, 46825, Note_on_c, 0, 83, 0
2, 46827, Note_on_c, 0, 80, 0
2, 46833, Note_on_c, 0, 88, 0
2, 46920, Note_on_c, 0, 64, 41
2, 46920, Note_on_c, 0, 89, 43
2, 46921, Note_on_c, 0, 77, 36
2, 46922, Note_on_c, 0, 53, 34
2, 46922, Note_on_c, 0, 84, 42
2, 46922, Note_on_c, 0, 59, 40
2, 46943, Note_on_c, 0, 77, 0
2, 46946, Note_on_c, 0, 84, 0
2, 46947, Note_on_c, 0, 64, 0
2, 46947, Note_on_c, 0, 59, 0
2, 46957, Note_on_c, 0, 89, 0
2, 46960, Note_on_c, 0, 53, 0
2, 47037, Note_on_c, 0, 91, 42
2, 47040, Note_on_c, 0, 62, 35
2, 47040, Note_on_c, 0, 79, 31
2, 47041, Note_on_c, 0, 57, 38
2, 47041, Note_on_c, 0, 86, 40
2, 47042, Note_on_c, 0, 52, 38
2, 47065, Control_c, 0, 64, 127
2, 47117, Note_on_c, 0, 79, 0
2, 47122, Note_on_c, 0, 86, 0
2, 47123, Note_on_c, 0, 52, 0
2, 47127, Note_on_c, 0, 57, 0
2, 47132, Note_on_c, 0, 62, 0
2, 47133, Note_on_c, 0, 91, 0
2, 47271, Control_c, 0, 64, 0
2, 47275, Note_on_c, 0, 61, 70
2, 47275, Note_on_c, 0, 58, 61
2, 47275, Note_on_c, 0, 95, 81
2, 47276, Note_on_c, 0, 65, 77
2, 47276, Note_on_c, 0, 83, 75
2, 47276, Note_on_c, 0, 87, 68
2, 47276, Note_on_c, 0, 90, 61
2, 47277, Note_on_c, 0, 55, 70
2, 47328, Note_on_c, 0, 87, 0
2, 47331, Note_on_c, 0, 83, 0
2, 47335, Note_on_c, 0, 90, 0
2, 47337, Note_on_c, 0, 55, 0
2, 47338, Note_on_c, 0, 95, 0
2, 47340, Note_on_c, 0, 65, 0
2, 47341, Note_on_c, 0, 58, 0
2, 47357, Note_on_c, 0, 61, 0
2, 47403, Control_c, 0, 64, 127
2, 47486, Note_on_c, 0, 96, 79
2, 47487, Note_on_c, 0, 60, 50
2, 47488, Note_on_c, 0, 64, 68
2, 47488, Note_on_c, 0, 84, 64
2, 47488, Note_on_c, 0, 93, 64
2, 47488, Note_on_c, 0, 57, 58
2, 47488, Note_on_c, 0, 89, 66
2, 47491, Note_on_c, 0, 53, 59
2, 47498, Control_c, 0, 64, 0
2, 47518, Control_c, 0, 64, 127
2, 47586, Note_on_c, 0, 96, 0
2, 47587, Note_on_c, 0, 93, 0
2, 47588, Note_on_c, 0, 84, 0
2, 47588, Note_on_c, 0, 89, 0
2, 47593, Note_on_c, 0, 57, 0
2, 47595, Note_on_c, 0, 60, 0
2, 47598, Note_on_c, 0, 64, 0
2, 47598, Note_on_c, 0, 53, 0
2, 47647, Control_c, 0, 64, 0
2, 47652, Note_on_c, 0, 64, 64
2, 47653, Note_on_c, 0, 53, 50
2, 47653, Note_on_c, 0, 88, 64
2, 47653, Note_on_c, 0, 93, 62
2, 47655, Note_on_c, 0, 60, 40
2, 47656, Note_on_c, 0, 57, 58
2, 47658, Note_on_c, 0, 81, 51
2, 47693, Control_c, 0, 64, 127
2, 47731, Note_on_c, 0, 81, 0
2, 47740, Note_on_c, 0, 60, 0
2, 47741, Note_on_c, 0, 88, 0
2, 47741, Note_on_c, 0, 64, 0
2, 47743, Note_on_c, 0, 53, 0
2, 47745, Note_on_c, 0, 93, 0
2, 47747, Note_on_c, 0, 57, 0
2, 47845, Note_on_c, 0, 95, 72
2, 47846, Note_on_c, 0, 92, 56
2, 47846, Note_on_c, 0, 98, 71
2, 47846, Note_on_c, 0, 86, 69
2, 47847, Note_on_c, 0, 59, 67
2, 47848, Note_on_c, 0, 64, 71
2, 47850, Note_on_c, 0, 53, 66
2, 47853, Control_c, 0, 64, 0
2, 47892, Control_c, 0, 64, 127
2, 47923, Note_on_c, 0, 95, 0
2, 47926, Note_on_c, 0, 98, 0
2, 47930, Note_on_c, 0, 92, 0
2, 47932, Note_on_c, 0, 86, 0
2, 47933, Note_on_c, 0, 59, 0
2, 47933, Note_on_c, 0, 64, 0
2, 47951, Note_on_c, 0, 53, 0
2, 47996, Control_c, 0, 64, 0
2, 48003, Note_on_c, 0, 83, 41
2, 48005, Note_on_c, 0, 52, 47
2, 48005, Note_on_c, 0, 62, 37
2, 48006, Note_on_c, 0, 57, 40
2, 48006, Note_on_c, 0, 95, 35
2, 48008, Note_on_c, 0, 91, 38
2, 48008, Note_on_c, 0, 88, 49
2, 48043, Control_c, 0, 64, 127
2, 48083, Note_on_c, 0, 52, 0
2, 48085, Note_on_c, 0, 83, 0
2, 48086, Note_on_c, 0, 88, 0
2, 48088, Note_on_c, 0, 57, 0
2, 48090, Note_on_c, 0, 62, 0
2, 48093, Note_on_c, 0, 91, 0
2, 48107, Note_on_c, 0, 95, 0
2, 48196, Note_on_c, 0, 100, 58
2, 48197, Note_on_c, 0, 88, 51
2, 48201, Note_on_c, 0, 52, 54
2, 48201, Note_on_c, 0, 95, 48
2, 48203, Note_on_c, 0, 57, 52
2, 48203, Note_on_c, 0, 62, 50
2, 48211, Control_c, 0, 64, 0
2, 48246, Control_c, 0, 64, 127
2, 48285, Note_on_c, 0, 95, 0
2, 48286, Note_on_c, 0, 100, 0
2, 48296, Note_on_c, 0, 88, 0
2, 48303, Note_on_c, 0, 52, 0
2, 48307, Note_on_c, 0, 57, 0
2, 48310, Note_on_c, 0, 62, 0
2, 48357, Note_on_c, 0, 57, 47
2, 48358, Note_on_c, 0, 52, 45
2, 48358, Note_on_c, 0, 96, 37
2, 48361, Control_c, 0, 64, 0
2, 48361, Note_on_c, 0, 62, 36
2, 48362, Note_on_c, 0, 84, 39
2, 48363, Note_on_c, 0, 91, 34
2, 48375, Note_on_c, 0, 52, 0
2, 48381, Note_on_c, 0, 84, 0
2, 48385, Note_on_c, 0, 57, 0
2, 48386, Note_on_c, 0, 91, 0
2, 48391, Note_on_c, 0, 62, 0
2, 48392, Note_on_c, 0, 96, 0
2, 48472, Note_on_c, 0, 65, 47
2, 48472, Note_on_c, 0, 103, 39
2, 48475, Note_on_c, 0, 60, 35
2, 48477, Note_on_c, 0, 91, 32
2, 48477, Note_on_c, 0, 55, 38
2, 48480, Note_on_c, 0, 98, 40
2, 48481, Note_on_c, 0, 57, 42
2, 48493, Note_on_c, 0, 98, 0
2, 48496, Note_on_c, 0, 91, 0
2, 48500, Note_on_c, 0, 55, 0
2, 48508, Note_on_c, 0, 103, 0
2, 48510, Note_on_c, 0, 60, 0
2, 48510, Note_on_c, 0, 57, 0
2, 48512, Note_on_c, 0, 65, 0
2, 48593, Note_on_c, 0, 65, 45
2, 48595, Note_on_c, 0, 103, 47
2, 48596, Control_c, 0, 64, 127
2, 48597, Note_on_c, 0, 55, 36
2, 48598, Note_on_c, 0, 60, 32
2, 48600, Note_on_c, 0, 91, 28
2, 48601, Note_on_c, 0, 98, 35
2, 48602, Note_on_c, 0, 57, 33
2, 48613, Control_c, 0, 64, 0
2, 48616, Note_on_c, 0, 91, 0
2, 48620, Note_on_c, 0, 98, 0
2, 48632, Note_on_c, 0, 103, 0
2, 48633, Note_on_c, 0, 65, 0
2, 48636, Note_on_c, 0, 60, 0
2, 48638, Note_on_c, 0, 57, 0
2, 48638, Note_on_c, 0, 55, 0
2, 48706, Control_c, 0, 64, 127
2, 48717, Note_on_c, 0, 53, 47
2, 48717, Note_on_c, 0, 59, 47
2, 48718, Note_on_c, 0, 64, 39
2, 48720, Note_on_c, 0, 99, 27
2, 48721, Note_on_c, 0, 103, 26
2, 48721, Note_on_c, 0, 91, 30
2, 48721, Note_on_c, 0, 95, 38
2, 48723, Note_on_c, 0, 101, 25
2, 48752, Note_on_c, 0, 101, 0
2, 48753, Note_on_c, 0, 95, 0
2, 48753, Note_on_c, 0, 53, 0
2, 48757, Note_on_c, 0, 103, 0
2, 48757, Note_on_c, 0, 64, 0
2, 48758, Note_on_c, 0, 91, 0
2, 48760, Note_on_c, 0, 99, 0
2, 48768, Note_on_c, 0, 59, 0
2, 48796, Note_on_c, 0, 99, 50
2, 48797, Note_on_c, 0, 63, 76
2, 48797, Note_on_c, 0, 59, 62
2, 48800, Note_on_c, 0, 53, 68
2, 48800, Note_on_c, 0, 91, 53
2, 48801, Note_on_c, 0, 103, 57
2, 48801, Note_on_c, 0, 95, 65
2, 48820, Control_c, 0, 64, 0
2, 48822, Note_on_c, 0, 63, 0
2, 48825, Note_on_c, 0, 91, 0
2, 48825, Note_on_c, 0, 53, 0
2, 48826, Note_on_c, 0, 95, 0
2, 48832, Note_on_c, 0, 103, 0
2, 48833, Note_on_c, 0, 59, 0
2, 48835, Note_on_c, 0, 99, 0
2, 48845, Note_on_c, 0, 63, 48
2, 48846, Control_c, 0, 64, 127
2, 48846, Note_on_c, 0, 99, 35
2, 48847, Note_on_c, 0, 103, 41
2, 48847, Note_on_c, 0, 59, 42
2, 48848, Note_on_c, 0, 91, 40
2, 48848, Note_on_c, 0, 95, 57
2, 48850, Note_on_c, 0, 53, 47
2, 48875, Note_on_c, 0, 95, 0
2, 48877, Note_on_c, 0, 59, 0
2, 48887, Note_on_c, 0, 91, 0
2, 48892, Note_on_c, 0, 103, 0
2, 48892, Note_on_c, 0, 53, 0
2, 48898, Note_on_c, 0, 63, 0
2, 48906, Note_on_c, 0, 99, 0
2, 48920, Note_on_c, 0, 103, 69
2, 48921, Note_on_c, 0, 62, 61
2, 48922, Note_on_c, 0, 91, 51
2, 48925, Note_on_c, 0, 98, 62
2, 48925, Note_on_c, 0, 52, 50
2, 48925, Note_on_c, 0, 57, 54
2, 48932, Control_c, 0, 64, 0
2, 48972, Control_c, 0, 64, 127
2, 49020, Note_on_c, 0, 103, 0
2, 49025, Note_on_c, 0, 98, 0
2, 49057, Note_on_c, 0, 91, 0
2, 49080, Note_on_c, 0, 57, 0
2, 49082, Note_on_c, 0, 62, 0
2, 49083, Note_on_c, 0, 52, 0
2, 49276, Note_on_c, 0, 76, 77
2, 49277, Note_on_c, 0, 68, 69
2, 49278, Note_on_c, 0, 64, 81
2, 49278, Note_on_c, 0, 65, 71
2, 49280, Note_on_c, 0, 71, 62
2, 49303, Control_c, 0, 64, 0
2, 49333, Control_c, 0, 64, 127
2, 49370, Note_on_c, 0, 64, 0
2, 49377, Note_on_c, 0, 76, 0
2, 49382, Note_on_c, 0, 65, 0
2, 49397, Note_on_c, 0, 71, 0
2, 49400, Note_on_c, 0, 68, 0
2, 49433, Control_c, 0, 64, 0
2, 49436, Note_on_c, 0, 64, 65
2, 49438, Note_on_c, 0, 67, 60
2, 49438, Note_on_c, 0, 71, 51
2, 49442, Note_on_c, 0, 74, 57
2, 49443, Note_on_c, 0, 59, 49
2, 49486, Control_c, 0, 64, 127
2, 49543, Note_on_c, 0, 74, 0
2, 49546, Note_on_c, 0, 59, 0
2, 49547, Note_on_c, 0, 71, 0
2, 49553, Note_on_c, 0, 67, 0
2, 49557, Note_on_c, 0, 64, 0
2, 49672, Note_on_c, 0, 69, 71
2, 49673, Note_on_c, 0, 58, 60
2, 49673, Note_on_c, 0, 61, 67
2, 49673, Control_c, 0, 64, 0
2, 49675, Note_on_c, 0, 57, 69
2, 49676, Note_on_c, 0, 64, 67
2, 49736, Note_on_c, 0, 64, 0
2, 49738, Note_on_c, 0, 69, 0
2, 49738, Note_on_c, 0, 58, 0
2, 49750, Control_c, 0, 64, 127
2, 49756, Note_on_c, 0, 57, 0
2, 49756, Note_on_c, 0, 58, 45
2, 49756, Note_on_c, 0, 67, 58
2, 49758, Note_on_c, 0, 55, 58
2, 49762, Control_c, 0, 64, 0
2, 49776, Note_on_c, 0, 67, 0
2, 49783, Note_on_c, 0, 58, 0
2, 49795, Note_on_c, 0, 55, 0
2, 49805, Note_on_c, 0, 58, 15
2, 49807, Note_on_c, 0, 66, 38
2, 49807, Note_on_c, 0, 54, 42
2, 49828, Control_c, 0, 64, 127
2, 49861, Note_on_c, 0, 66, 0
2, 49867, Note_on_c, 0, 58, 0
2, 49878, Note_on_c, 0, 54, 0
2, 49883, Note_on_c, 0, 57, 44
2, 49886, Note_on_c, 0, 53, 59
2, 49886, Note_on_c, 0, 65, 46
2, 49888, Note_on_c, 0, 62, 49
2, 49888, Note_on_c, 0, 60, 42
2, 49890, Control_c, 0, 64, 0
2, 49936, Note_on_c, 0, 61, 0
2, 50021, Control_c, 0, 64, 127
2, 50045, Note_on_c, 0, 57, 0
2, 50046, Note_on_c, 0, 53, 0
2, 50048, Note_on_c, 0, 62, 0
2, 50050, Note_on_c, 0, 60, 0
2, 50057, Note_on_c, 0, 65, 0
2, 50121, Note_on_c, 0, 76, 77
2, 50122, Note_on_c, 0, 61, 77
2, 50122, Note_on_c, 0, 69, 80
2, 50122, Note_on_c, 0, 65, 80
2, 50122, Note_on_c, 0, 73, 67
2, 50136, Control_c, 0, 64, 0
2, 50148, Note_on_c, 0, 65, 0
2, 50150, Note_on_c, 0, 69, 0
2, 50158, Note_on_c, 0, 76, 0
2, 50161, Note_on_c, 0, 73, 0
2, 50180, Note_on_c, 0, 79, 71
2, 50181, Note_on_c, 0, 69, 68
2, 50182, Note_on_c, 0, 64, 71
2, 50182, Note_on_c, 0, 73, 50
2, 50183, Note_on_c, 0, 76, 50
2, 50201, Note_on_c, 0, 61, 0
2, 50218, Control_c, 0, 64, 127
2, 50227, Note_on_c, 0, 76, 0
2, 50228, Note_on_c, 0, 64, 0
2, 50228, Note_on_c, 0, 79, 0
2, 50230, Note_on_c, 0, 73, 0
2, 50233, Note_on_c, 0, 69, 0
2, 50250, Note_on_c, 0, 77, 60
2, 50252, Note_on_c, 0, 69, 49
2, 50252, Note_on_c, 0, 73, 46
2, 50253, Note_on_c, 0, 62, 42
2, 50258, Control_c, 0, 64, 0
2, 50275, Note_on_c, 0, 73, 0
2, 50277, Note_on_c, 0, 69, 0
2, 50280, Note_on_c, 0, 77, 0
2, 50291, Note_on_c, 0, 62, 0
2, 50351, Note_on_c, 0, 76, 58
2, 50353, Note_on_c, 0, 65, 39
2, 50353, Note_on_c, 0, 61, 56
2, 50357, Note_on_c, 0, 69, 52
2, 50371, Note_on_c, 0, 69, 0
2, 50375, Note_on_c, 0, 76, 0
2, 50378, Note_on_c, 0, 65, 0
2, 50397, Note_on_c, 0, 61, 0
2, 50410, Note_on_c, 0, 60, 44
2, 50412, Note_on_c, 0, 72, 30
2, 50412, Note_on_c, 0, 69, 37
2, 50416, Note_on_c, 0, 65, 29
2, 50417, Note_on_c, 0, 62, 30
2, 50442, Note_on_c, 0, 69, 0
2, 50453, Note_on_c, 0, 65, 0
2, 50456, Note_on_c, 0, 62, 0
2, 50457, Note_on_c, 0, 60, 0
2, 50468, Note_on_c, 0, 72, 0
2, 50478, Note_on_c, 0, 69, 46
2, 50478, Note_on_c, 0, 57, 49
2, 50478, Note_on_c, 0, 62, 34
2, 50481, Note_on_c, 0, 65, 39
2, 50496, Note_on_c, 0, 65, 0
2, 50497, Note_on_c, 0, 62, 0
2, 50500, Note_on_c, 0, 69, 0
2, 50501, Note_on_c, 0, 57, 0
2, 50595, Note_on_c, 0, 71, 40
2, 50595, Note_on_c, 0, 63, 34
2, 50595, Note_on_c, 0, 67, 42
2, 50596, Note_on_c, 0, 59, 35
2, 50596, Note_on_c, 0, 57, 45
2, 50605, Note_on_c, 0, 57, 0
2, 50616, Note_on_c, 0, 59, 0
2, 50618, Note_on_c, 0, 67, 0
2, 50621, Note_on_c, 0, 71, 0
2, 50626, Note_on_c, 0, 63, 0
2, 50716, Note_on_c, 0, 69, 46
2, 50717, Note_on_c, 0, 59, 46
2, 50718, Note_on_c, 0, 64, 51
2, 50723, Note_on_c, 0, 57, 32
2, 50737, Note_on_c, 0, 59, 0
2, 50738, Note_on_c, 0, 57, 0
2, 50742, Note_on_c, 0, 64, 0
2, 50743, Note_on_c, 0, 69, 0
2, 50796, Note_on_c, 0, 70, 58
2, 50802, Note_on_c, 0, 70, 0
2, 50802, Note_on_c, 0, 63, 25
2, 50808, Note_on_c, 0, 63, 0
2, 50831, Control_c, 0, 64, 127
2, 50833, Note_on_c, 0, 71, 48
2, 50838, Note_on_c, 0, 56, 37
2, 50845, Note_on_c, 0, 71, 0
2, 50847, Note_on_c, 0, 56, 0
2, 50871, Control_c, 0, 64, 0
2, 50877, Note_on_c, 0, 65, 66
2, 50878, Note_on_c, 0, 72, 63
2, 50881, Note_on_c, 0, 57, 27
2, 50882, Note_on_c, 0, 52, 38
2, 50885, Note_on_c, 0, 53, 33
2, 50892, Note_on_c, 0, 53, 0
2, 51000, Control_c, 0, 64, 127
2, 51033, Note_on_c, 0, 52, 0
2, 51041, Note_on_c, 0, 57, 0
2, 51087, Note_on_c, 0, 65, 0
2, 51111, Note_on_c, 0, 72, 0
2, 51131, Note_on_c, 0, 61, 53
2, 51132, Note_on_c, 0, 72, 50
2, 51133, Note_on_c, 0, 65, 60
2, 51133, Control_c, 0, 64, 0
2, 51133, Note_on_c, 0, 69, 57
2, 51135, Note_on_c, 0, 51, 55
2, 51230, Control_c, 0, 64, 127
2, 51278, Note_on_c, 0, 69, 0
2, 51287, Note_on_c, 0, 61, 0
2, 51291, Note_on_c, 0, 72, 0
2, 51291, Note_on_c, 0, 51, 0
2, 51300, Note_on_c, 0, 65, 0
2, 51366, Note_on_c, 0, 72, 67
2, 51366, Control_c, 0, 64, 0
2, 51367, Note_on_c, 0, 69, 66
2, 51368, Note_on_c, 0, 65, 67
2, 51368, Note_on_c, 0, 64, 70
2, 51370, Note_on_c, 0, 60, 54
2, 51373, Note_on_c, 0, 50, 48
2, 51421, Control_c, 0, 64, 127
2, 51477, Note_on_c, 0, 50, 0
2, 51493, Note_on_c, 0, 64, 0
2, 51497, Note_on_c, 0, 60, 0
2, 51501, Note_on_c, 0, 72, 0
2, 51531, Note_on_c, 0, 65, 0
2, 51540, Note_on_c, 0, 69, 0
2, 51681, Note_on_c, 0, 74, 94
2, 51701, Note_on_c, 0, 74, 0
2, 51756, Note_on_c, 0, 71, 66
2, 51758, Note_on_c, 0, 64, 64
2, 51761, Note_on_c, 0, 68, 51
2, 51761, Note_on_c, 0, 56, 47
2, 51788, Note_on_c, 0, 64, 0
2, 51801, Note_on_c, 0, 68, 0
2, 51810, Note_on_c, 0, 71, 0
2, 51832, Note_on_c, 0, 56, 0
2, 51841, Control_c, 0, 64, 0
2, 51842, Note_on_c, 0, 69, 47
2, 51842, Note_on_c, 0, 64, 56
2, 51843, Note_on_c, 0, 60, 37
2, 51845, Note_on_c, 0, 57, 45
2, 51890, Control_c, 0, 64, 127
2, 51911, Note_on_c, 0, 60, 0
2, 51927, Note_on_c, 0, 64, 0
2, 51928, Note_on_c, 0, 57, 0
2, 51942, Note_on_c, 0, 69, 0
2, 52076, Note_on_c, 0, 75, 81
2, 52082, Note_on_c, 0, 72, 65
2, 52088, Note_on_c, 0, 68, 61
2, 52088, Note_on_c, 0, 60, 54
2, 52088, Note_on_c, 0, 54, 58
2, 52090, Control_c, 0, 64, 0
2, 52091, Note_on_c, 0, 74, 26
2, 52100, Note_on_c, 0, 74, 0
2, 52101, Note_on_c, 0, 63, 52
2, 52152, Control_c, 0, 64, 127
2, 52215, Note_on_c, 0, 63, 0
2, 52222, Note_on_c, 0, 60, 0
2, 52222, Note_on_c, 0, 72, 0
2, 52223, Note_on_c, 0, 68, 0
2, 52231, Note_on_c, 0, 75, 0
2, 52251, Note_on_c, 0, 54, 0
2, 52313, Note_on_c, 0, 81, 79
2, 52322, Note_on_c, 0, 78, 51
2, 52330, Note_on_c, 0, 54, 37
2, 52331, Note_on_c, 0, 74, 61
2, 52333, Note_on_c, 0, 59, 49
2, 52335, Note_on_c, 0, 79, 19
2, 52338, Control_c, 0, 64, 0
2, 52341, Note_on_c, 0, 79, 0
2, 52342, Note_on_c, 0, 62, 54
2, 52347, Note_on_c, 0, 69, 74
2, 52397, Control_c, 0, 64, 127
2, 52420, Note_on_c, 0, 69, 0
2, 52426, Note_on_c, 0, 74, 0
2, 52435, Note_on_c, 0, 81, 0
2, 52436, Note_on_c, 0, 78, 0
2, 52440, Note_on_c, 0, 59, 0
2, 52441, Note_on_c, 0, 62, 0
2, 52460, Note_on_c, 0, 54, 0
2, 52481, Note_on_c, 0, 86, 69
2, 52488, Note_on_c, 0, 83, 74
2, 52495, Note_on_c, 0, 84, 46
2, 52496, Note_on_c, 0, 79, 64
2, 52515, Note_on_c, 0, 84, 0
2, 52515, Note_on_c, 0, 74, 73
2, 52525, Note_on_c, 0, 86, 0
2, 52531, Note_on_c, 0, 83, 0
2, 52541, Note_on_c, 0, 79, 0
2, 52563, Note_on_c, 0, 62, 62
2, 52563, Note_on_c, 0, 51, 54
2, 52567, Note_on_c, 0, 57, 59
2, 52575, Control_c, 0, 64, 0
2, 52595, Control_c, 0, 64, 127
2, 52713, Note_on_c, 0, 57, 0
2, 52715, Note_on_c, 0, 74, 0
2, 52720, Note_on_c, 0, 51, 0
2, 52720, Note_on_c, 0, 83, 64
2, 52727, Note_on_c, 0, 78, 56
2, 52731, Note_on_c, 0, 62, 0
2, 52738, Note_on_c, 0, 75, 55
2, 52745, Note_on_c, 0, 83, 0
2, 52762, Note_on_c, 0, 71, 41
2, 52765, Note_on_c, 0, 78, 0
2, 52771, Note_on_c, 0, 75, 0
2, 52798, Note_on_c, 0, 71, 0
2, 52805, Note_on_c, 0, 81, 61
2, 52805, Note_on_c, 0, 74, 77
2, 52808, Note_on_c, 0, 62, 60
2, 52808, Note_on_c, 0, 52, 53
2, 52811, Note_on_c, 0, 57, 55
2, 52812, Control_c, 0, 64, 0
2, 52898, Control_c, 0, 64, 127
2, 52970, Note_on_c, 0, 62, 0
2, 52975, Note_on_c, 0, 57, 0
2, 52990, Note_on_c, 0, 74, 0
2, 53041, Note_on_c, 0, 78, 42
2, 53042, Note_on_c, 0, 74, 56
2, 53043, Note_on_c, 0, 62, 36
2, 53045, Note_on_c, 0, 81, 0
2, 53046, Note_on_c, 0, 69, 44
2, 53047, Note_on_c, 0, 57, 37
2, 53048, Control_c, 0, 64, 0
2, 53098, Control_c, 0, 64, 127
2, 53147, Note_on_c, 0, 57, 0
2, 53151, Note_on_c, 0, 62, 0
2, 53156, Note_on_c, 0, 52, 0
2, 53172, Note_on_c, 0, 69, 0
2, 53177, Note_on_c, 0, 74, 0
2, 53191, Note_on_c, 0, 78, 0
2, 53273, Note_on_c, 0, 64, 34
2, 53275, Note_on_c, 0, 55, 39
2, 53276, Note_on_c, 0, 60, 42
2, 53277, Note_on_c, 0, 71, 37
2, 53277, Note_on_c, 0, 83, 36
2, 53278, Note_on_c, 0, 59, 39
2, 53281, Note_on_c, 0, 76, 39
2, 53286, Note_on_c, 0, 79, 32
2, 53308, Note_on_c, 0, 76, 0
2, 53310, Note_on_c, 0, 79, 0
2, 53311, Note_on_c, 0, 71, 0
2, 53312, Note_on_c, 0, 81, 24
2, 53321, Note_on_c, 0, 81, 0
2, 53321, Note_on_c, 0, 59, 0
2, 53322, Note_on_c, 0, 60, 0
2, 53323, Note_on_c, 0, 64, 0
2, 53323, Note_on_c, 0, 55, 0
2, 53325, Note_on_c, 0, 83, 0
2, 53355, Note_on_c, 0, 64, 66
2, 53355, Note_on_c, 0, 55, 62
2, 53356, Note_on_c, 0, 60, 57
2, 53356, Note_on_c, 0, 74, 62
2, 53356, Note_on_c, 0, 86, 73
2, 53357, Note_on_c, 0, 59, 54
2, 53357, Note_on_c, 0, 79, 49
2, 53365, Note_on_c, 0, 79, 0
2, 53370, Note_on_c, 0, 74, 0
2, 53372, Note_on_c, 0, 55, 0
2, 53372, Note_on_c, 0, 64, 0
2, 53375, Note_on_c, 0, 86, 0
2, 53375, Note_on_c, 0, 59, 0
2, 53376, Note_on_c, 0, 60, 0
2, 53386, Control_c, 0, 64, 0
2, 53393, Note_on_c, 0, 64, 64
2, 53393, Note_on_c, 0, 55, 57
2, 53395, Note_on_c, 0, 60, 60
2, 53395, Note_on_c, 0, 76, 71
2, 53395, Note_on_c, 0, 88, 74
2, 53395, Control_c, 0, 64, 127
2, 53395, Note_on_c, 0, 59, 67
2, 53397, Note_on_c, 0, 81, 62
2, 53413, Note_on_c, 0, 81, 0
2, 53415, Note_on_c, 0, 76, 0
2, 53421, Note_on_c, 0, 55, 0
2, 53427, Note_on_c, 0, 88, 0
2, 53430, Note_on_c, 0, 60, 0
2, 53430, Note_on_c, 0, 59, 0
2, 53432, Note_on_c, 0, 64, 0
2, 53472, Note_on_c, 0, 55, 74
2, 53473, Note_on_c, 0, 91, 84
2, 53473, Note_on_c, 0, 79, 85
2, 53473, Note_on_c, 0, 64, 73
2, 53475, Note_on_c, 0, 84, 74
2, 53476, Note_on_c, 0, 60, 60
2, 53477, Note_on_c, 0, 88, 54
2, 53482, Note_on_c, 0, 84, 0
2, 53482, Note_on_c, 0, 89, 30
2, 53485, Note_on_c, 0, 88, 0
2, 53488, Note_on_c, 0, 79, 0
2, 53490, Note_on_c, 0, 89, 0
2, 53493, Note_on_c, 0, 64, 0
2, 53493, Note_on_c, 0, 91, 0
2, 53496, Note_on_c, 0, 55, 0
2, 53497, Note_on_c, 0, 60, 0
2, 53516, Control_c, 0, 64, 0
2, 53525, Note_on_c, 0, 54, 50
2, 53525, Note_on_c, 0, 65, 54
2, 53527, Note_on_c, 0, 60, 36
2, 53528, Note_on_c, 0, 80, 56
2, 53528, Note_on_c, 0, 87, 64
2, 53531, Note_on_c, 0, 92, 48
2, 53532, Note_on_c, 0, 58, 38
2, 53541, Control_c, 0, 64, 127
2, 53563, Note_on_c, 0, 87, 0
2, 53565, Note_on_c, 0, 80, 0
2, 53568, Note_on_c, 0, 92, 0
2, 53570, Note_on_c, 0, 65, 0
2, 53571, Note_on_c, 0, 58, 0
2, 53575, Note_on_c, 0, 60, 0
2, 53575, Note_on_c, 0, 54, 0
2, 53605, Note_on_c, 0, 54, 51
2, 53607, Note_on_c, 0, 65, 57
2, 53607, Note_on_c, 0, 84, 60
2, 53607, Note_on_c, 0, 58, 43
2, 53607, Note_on_c, 0, 60, 59
2, 53608, Note_on_c, 0, 96, 65
2, 53616, Note_on_c, 0, 94, 25
2, 53618, Control_c, 0, 64, 0
2, 53622, Note_on_c, 0, 94, 0
2, 53643, Control_c, 0, 64, 127
2, 53701, Note_on_c, 0, 54, 0
2, 53701, Note_on_c, 0, 60, 0
2, 53702, Note_on_c, 0, 96, 0
2, 53705, Note_on_c, 0, 58, 0
2, 53711, Note_on_c, 0, 65, 0
2, 53712, Note_on_c, 0, 84, 0
2, 53760, Note_on_c, 0, 65, 55
2, 53761, Note_on_c, 0, 81, 44
2, 53761, Note_on_c, 0, 88, 55
2, 53761, Note_on_c, 0, 93, 45
2, 53762, Control_c, 0, 64, 0
2, 53763, Note_on_c, 0, 60, 36
2, 53763, Note_on_c, 0, 55, 44
2, 53763, Note_on_c, 0, 57, 44
2, 53790, Control_c, 0, 64, 127
2, 53797, Note_on_c, 0, 81, 0
2, 53802, Note_on_c, 0, 55, 0
2, 53802, Note_on_c, 0, 88, 0
2, 53808, Note_on_c, 0, 93, 0
2, 53808, Note_on_c, 0, 65, 0
2, 53808, Note_on_c, 0, 57, 0
2, 53811, Note_on_c, 0, 60, 0
2, 53840, Note_on_c, 0, 60, 35
2, 53841, Note_on_c, 0, 96, 47
2, 53841, Note_on_c, 0, 84, 47
2, 53842, Note_on_c, 0, 57, 46
2, 53842, Note_on_c, 0, 65, 52
2, 53843, Note_on_c, 0, 55, 43
2, 53843, Note_on_c, 0, 91, 36
2, 53846, Control_c, 0, 64, 0
2, 53852, Note_on_c, 0, 55, 0
2, 53853, Note_on_c, 0, 84, 0
2, 53857, Note_on_c, 0, 65, 0
2, 53858, Note_on_c, 0, 91, 0
2, 53861, Note_on_c, 0, 96, 0
2, 53862, Note_on_c, 0, 57, 0
2, 53867, Note_on_c, 0, 60, 0
2, 53882, Control_c, 0, 64, 127
2, 53890, Note_on_c, 0, 100, 62
2, 53890, Note_on_c, 0, 88, 59
2, 53891, Note_on_c, 0, 95, 57
2, 53891, Note_on_c, 0, 60, 33
2, 53891, Note_on_c, 0, 65, 51
2, 53892, Note_on_c, 0, 57, 42
2, 53892, Note_on_c, 0, 55, 50
2, 53920, Note_on_c, 0, 88, 0
2, 53923, Note_on_c, 0, 95, 0
2, 53926, Note_on_c, 0, 55, 0
2, 53931, Note_on_c, 0, 65, 0
2, 53932, Note_on_c, 0, 100, 0
2, 53933, Note_on_c, 0, 57, 0
2, 53938, Note_on_c, 0, 60, 0
2, 53968, Note_on_c, 0, 55, 66
2, 53970, Note_on_c, 0, 65, 64
2, 53970, Note_on_c, 0, 60, 60
2, 53970, Note_on_c, 0, 105, 78
2, 53971, Note_on_c, 0, 57, 58
2, 53972, Note_on_c, 0, 93, 62
2, 53972, Note_on_c, 0, 100, 65
2, 53983, Control_c, 0, 64, 0
2, 54005, Control_c, 0, 64, 127
2, 54011, Note_on_c, 0, 93, 0
2, 54013, Note_on_c, 0, 55, 0
2, 54015, Note_on_c, 0, 105, 0
2, 54015, Note_on_c, 0, 65, 0
2, 54016, Note_on_c, 0, 100, 0
2, 54020, Note_on_c, 0, 57, 0
2, 54026, Note_on_c, 0, 60, 0
2, 54033, Control_c, 0, 64, 0
2, 54048, Note_on_c, 0, 60, 46
2, 54050, Note_on_c, 0, 65, 57
2, 54051, Note_on_c, 0, 55, 57
2, 54053, Note_on_c, 0, 57, 54
2, 54053, Note_on_c, 0, 92, 61
2, 54055, Control_c, 0, 64, 127
2, 54062, Note_on_c, 0, 104, 14
2, 54066, Note_on_c, 0, 99, 10
2, 54090, Note_on_c, 0, 55, 0
2, 54091, Note_on_c, 0, 99, 0
2, 54092, Note_on_c, 0, 65, 0
2, 54093, Note_on_c, 0, 57, 0
2, 54096, Note_on_c, 0, 104, 0
2, 54097, Note_on_c, 0, 92, 0
2, 54101, Note_on_c, 0, 60, 0
2, 54130, Note_on_c, 0, 55, 55
2, 54130, Note_on_c, 0, 65, 55
2, 54131, Note_on_c, 0, 60, 40
2, 54135, Note_on_c, 0, 57, 36
2, 54165, Note_on_c, 0, 65, 0
2, 54167, Note_on_c, 0, 60, 0
2, 54172, Note_on_c, 0, 57, 0
2, 54173, Note_on_c, 0, 55, 0
2, 54202, Note_on_c, 0, 103, 61
2, 54203, Note_on_c, 0, 91, 53
2, 54205, Note_on_c, 0, 64, 66
2, 54205, Note_on_c, 0, 59, 60
2, 54205, Note_on_c, 0, 98, 64
2, 54206, Note_on_c, 0, 53, 60
2, 54213, Control_c, 0, 64, 0
2, 54226, Note_on_c, 0, 64, 0
2, 54230, Note_on_c, 0, 59, 0
2, 54233, Note_on_c, 0, 103, 0
2, 54233, Control_c, 0, 64, 127
2, 54236, Note_on_c, 0, 98, 0
2, 54238, Note_on_c, 0, 53, 0
2, 54245, Note_on_c, 0, 91, 0
2, 54316, Note_on_c, 0, 43, 53
2, 54316, Note_on_c, 0, 41, 64
2, 54321, Note_on_c, 0, 31, 57
2, 54321, Note_on_c, 0, 29, 62
2, 54326, Control_c, 0, 64, 0
2, 54328, Note_on_c, 0, 29, 0
2, 54328, Note_on_c, 0, 41, 0
2, 54337, Note_on_c, 0, 31, 0
2, 54346, Note_on_c, 0, 43, 0
2, 54348, Control_c, 0, 64, 127
2, 54432, Note_on_c, 0, 62, 83
2, 54432, Note_on_c, 0, 59, 85
2, 54435, Note_on_c, 0, 56, 84
2, 54435, Note_on_c, 0, 55, 90
2, 54451, Control_c, 0, 64, 0
2, 54553, Note_on_c, 0, 43, 50
2, 54571, Note_on_c, 0, 55, 0
2, 54597, Note_on_c, 0, 55, 44
2, 54615, Control_c, 0, 64, 127
2, 54657, Note_on_c, 0, 56, 0
2, 54667, Note_on_c, 0, 55, 0
2, 54680, Note_on_c, 0, 59, 0
2, 54690, Note_on_c, 0, 50, 30
2, 54703, Note_on_c, 0, 62, 0
2, 54711, Control_c, 0, 64, 0
2, 54712, Note_on_c, 0, 50, 0
2, 54713, Note_on_c, 0, 64, 34
2, 54716, Note_on_c, 0, 55, 49
2, 54717, Note_on_c, 0, 59, 38
2, 54720, Note_on_c, 0, 52, 46
2, 54790, Control_c, 0, 64, 127
2, 54826, Note_on_c, 0, 55, 0
2, 54832, Note_on_c, 0, 43, 0
2, 54841, Note_on_c, 0, 52, 0
2, 54847, Note_on_c, 0, 59, 0
2, 54852, Note_on_c, 0, 64, 0
2, 54958, Note_on_c, 0, 71, 40
2, 54962, Note_on_c, 0, 67, 54
2, 54963, Note_on_c, 0, 64, 50
2, 54963, Note_on_c, 0, 55, 41
2, 54966, Note_on_c, 0, 61, 30
2, 54966, Control_c, 0, 64, 0
2, 55010, Control_c, 0, 64, 127
2, 55092, Note_on_c, 0, 55, 0
2, 55092, Note_on_c, 0, 64, 0
2, 55097, Note_on_c, 0, 67, 0
2, 55103, Note_on_c, 0, 71, 0
2, 55117, Note_on_c, 0, 61, 0
2, 55192, Note_on_c, 0, 79, 50
2, 55196, Note_on_c, 0, 67, 34
2, 55197, Note_on_c, 0, 72, 40
2, 55198, Note_on_c, 0, 64, 39
2, 55200, Note_on_c, 0, 76, 43
2, 55201, Control_c, 0, 64, 0
2, 55202, Note_on_c, 0, 60, 25
2, 55202, Note_on_c, 0, 57, 35
2, 55203, Note_on_c, 0, 53, 26
2, 55236, Control_c, 0, 64, 127
2, 55331, Note_on_c, 0, 64, 0
2, 55337, Note_on_c, 0, 67, 0
2, 55337, Note_on_c, 0, 79, 0
2, 55337, Note_on_c, 0, 60, 0
2, 55340, Note_on_c, 0, 72, 0
2, 55341, Note_on_c, 0, 76, 0
2, 55342, Note_on_c, 0, 57, 0
2, 55342, Note_on_c, 0, 53, 0
2, 55432, Note_on_c, 0, 76, 68
2, 55435, Note_on_c, 0, 59, 54
2, 55435, Note_on_c, 0, 64, 55
2, 55436, Note_on_c, 0, 68, 54
2, 55436, Note_on_c, 0, 71, 40
2, 55440, Note_on_c, 0, 53, 32
2, 55442, Control_c, 0, 64, 0
2, 55481, Control_c, 0, 64, 127
2, 55571, Note_on_c, 0, 64, 0
2, 55573, Note_on_c, 0, 59, 0
2, 55575, Note_on_c, 0, 68, 0
2, 55577, Note_on_c, 0, 71, 0
2, 55586, Note_on_c, 0, 76, 0
2, 55590, Note_on_c, 0, 53, 0
2, 55680, Note_on_c, 0, 79, 64
2, 55683, Note_on_c, 0, 62, 41
2, 55686, Note_on_c, 0, 74, 57
2, 55687, Note_on_c, 0, 69, 58
2, 55687, Control_c, 0, 64, 0
2, 55688, Note_on_c, 0, 57, 32
2, 55691, Note_on_c, 0, 52, 42
2, 55736, Control_c, 0, 64, 127
2, 55822, Note_on_c, 0, 79, 0
2, 55832, Note_on_c, 0, 74, 0
2, 55846, Note_on_c, 0, 69, 0
2, 55870, Note_on_c, 0, 62, 0
2, 55877, Note_on_c, 0, 57, 0
2, 55882, Note_on_c, 0, 52, 0
2, 56237, Note_on_c, 0, 67, 80
2, 56237, Note_on_c, 0, 59, 87
2, 56238, Note_on_c, 0, 64, 79
2, 56240, Note_on_c, 0, 55, 74
2, 56253, Control_c, 0, 64, 0
2, 56275, Control_c, 0, 64, 127
2, 56315, Note_on_c, 0, 64, 0
2, 56317, Note_on_c, 0, 67, 0
2, 56326, Note_on_c, 0, 59, 0
2, 56326, Note_on_c, 0, 55, 0
2, 56390, Note_on_c, 0, 64, 56
2, 56390, Note_on_c, 0, 56, 43
2, 56392, Note_on_c, 0, 59, 54
2, 56392, Note_on_c, 0, 53, 38
2, 56393, Control_c, 0, 64, 0
2, 56396, Note_on_c, 0, 43, 42
2, 56397, Note_on_c, 0, 52, 38
2, 56503, Control_c, 0, 64, 127
2, 56561, Note_on_c, 0, 64, 0
2, 56573, Note_on_c, 0, 52, 0
2, 56575, Note_on_c, 0, 59, 0
2, 56583, Note_on_c, 0, 56, 0
2, 56586, Note_on_c, 0, 53, 0
2, 56590, Note_on_c, 0, 62, 34
2, 56610, Note_on_c, 0, 62, 0
2, 56620, Control_c, 0, 64, 0
2, 56627, Note_on_c, 0, 64, 38
2, 56632, Note_on_c, 0, 55, 41
2, 56635, Note_on_c, 0, 52, 44
2, 56637, Note_on_c, 0, 59, 35
2, 56650, Control_c, 0, 64, 127
2, 56653, Note_on_c, 0, 55, 0
2, 56655, Note_on_c, 0, 59, 0
2, 56658, Note_on_c, 0, 64, 0
2, 56695, Note_on_c, 0, 43, 0
2, 56715, Note_on_c, 0, 67, 51
2, 56717, Note_on_c, 0, 43, 35
2, 56720, Note_on_c, 0, 57, 39
2, 56723, Note_on_c, 0, 62, 37
2, 56728, Control_c, 0, 64, 0
2, 56770, Control_c, 0, 64, 127
2, 56880, Note_on_c, 0, 62, 0
2, 56883, Note_on_c, 0, 57, 0
2, 56886, Note_on_c, 0, 67, 0
2, 56925, Note_on_c, 0, 52, 0
2, 57023, Note_on_c, 0, 43, 0
2, 57075, Note_on_c, 0, 43, 47
2, 57118, Control_c, 0, 64, 0
2, 57120, Note_on_c, 0, 64, 58
2, 57121, Note_on_c, 0, 55, 57
2, 57121, Note_on_c, 0, 59, 60
2, 57123, Note_on_c, 0, 52, 53
2, 57138, Note_on_c, 0, 55, 0
2, 57143, Note_on_c, 0, 43, 0
2, 57143, Control_c, 0, 64, 127
2, 57147, Note_on_c, 0, 52, 0
2, 57148, Note_on_c, 0, 59, 0
2, 57153, Note_on_c, 0, 64, 0
2, 57237, Note_on_c, 0, 60, 64
2, 57238, Note_on_c, 0, 72, 73
2, 57240, Note_on_c, 0, 64, 75
2, 57241, Note_on_c, 0, 67, 74
2, 57248, Control_c, 0, 64, 0
2, 57267, Note_on_c, 0, 60, 0
2, 57271, Control_c, 0, 64, 127
2, 57283, Note_on_c, 0, 72, 0
2, 57287, Note_on_c, 0, 67, 0
2, 57293, Note_on_c, 0, 64, 0
2, 57357, Note_on_c, 0, 69, 74
2, 57360, Note_on_c, 0, 58, 51
2, 57361, Note_on_c, 0, 64, 61
2, 57361, Note_on_c, 0, 61, 50
2, 57363, Note_on_c, 0, 57, 49
2, 57370, Control_c, 0, 64, 0
2, 57402, Control_c, 0, 64, 127
2, 57453, Note_on_c, 0, 58, 0
2, 57461, Note_on_c, 0, 61, 0
2, 57468, Note_on_c, 0, 64, 0
2, 57506, Note_on_c, 0, 57, 0
2, 57517, Note_on_c, 0, 69, 0
2, 57546, Note_on_c, 0, 67, 55
2, 57550, Note_on_c, 0, 58, 38
2, 57568, Note_on_c, 0, 67, 0
2, 57585, Note_on_c, 0, 58, 0
2, 57616, Note_on_c, 0, 57, 55
2, 57620, Note_on_c, 0, 60, 50
2, 57620, Control_c, 0, 64, 0
2, 57622, Note_on_c, 0, 67, 48
2, 57622, Note_on_c, 0, 55, 50
2, 57625, Note_on_c, 0, 64, 41
2, 57715, Control_c, 0, 64, 127
2, 57745, Note_on_c, 0, 55, 0
2, 57755, Note_on_c, 0, 64, 0
2, 57773, Note_on_c, 0, 67, 0
2, 57777, Note_on_c, 0, 57, 0
2, 57778, Note_on_c, 0, 60, 0
2, 57835, Note_on_c, 0, 65, 44
2, 57836, Note_on_c, 0, 60, 38
2, 57837, Control_c, 0, 64, 0
2, 57837, Note_on_c, 0, 57, 34
2, 57838, Note_on_c, 0, 53, 46
2, 57840, Note_on_c, 0, 62, 46
2, 57881, Control_c, 0, 64, 127
2, 57915, Note_on_c, 0, 53, 0
2, 57916, Note_on_c, 0, 43, 70
2, 57991, Note_on_c, 0, 62, 0
2, 57993, Note_on_c, 0, 57, 0
2, 58001, Note_on_c, 0, 60, 0
2, 58005, Note_on_c, 0, 65, 0
2, 58070, Note_on_c, 0, 60, 31
2, 58072, Note_on_c, 0, 55, 41
2, 58072, Note_on_c, 0, 57, 39
2, 58076, Control_c, 0, 64, 0
2, 58113, Control_c, 0, 64, 127
2, 58117, Note_on_c, 0, 43, 0
2, 58147, Note_on_c, 0, 43, 58
2, 58162, Note_on_c, 0, 55, 0
2, 58192, Note_on_c, 0, 57, 0
2, 58206, Note_on_c, 0, 60, 0
2, 58315, Note_on_c, 0, 43, 0
2, 58473, Note_on_c, 0, 71, 67
2, 58473, Note_on_c, 0, 68, 62
2, 58493, Note_on_c, 0, 71, 0
2, 58497, Note_on_c, 0, 68, 0
2, 58507, Note_on_c, 0, 74, 87
2, 58515, Note_on_c, 0, 56, 42
2, 58516, Note_on_c, 0, 64, 28
2, 58532, Note_on_c, 0, 64, 0
2, 58535, Note_on_c, 0, 74, 0
2, 58538, Note_on_c, 0, 56, 0
2, 58551, Note_on_c, 0, 69, 68
2, 58551, Note_on_c, 0, 72, 66
2, 58553, Note_on_c, 0, 64, 52
2, 58558, Note_on_c, 0, 60, 33
2, 58558, Control_c, 0, 64, 0
2, 58560, Note_on_c, 0, 57, 47
2, 58618, Control_c, 0, 64, 127
2, 58718, Note_on_c, 0, 64, 0
2, 58750, Note_on_c, 0, 60, 0
2, 58756, Note_on_c, 0, 69, 0
2, 58760, Note_on_c, 0, 72, 0
2, 58763, Note_on_c, 0, 57, 0
2, 58802, Note_on_c, 0, 64, 44
2, 58802, Note_on_c, 0, 68, 50
2, 58803, Note_on_c, 0, 72, 52
2, 58803, Control_c, 0, 64, 0
2, 58803, Note_on_c, 0, 56, 33
2, 58806, Note_on_c, 0, 60, 33
2, 58843, Control_c, 0, 64, 127
2, 58936, Note_on_c, 0, 68, 0
2, 58950, Note_on_c, 0, 60, 0
2, 58951, Note_on_c, 0, 64, 0
2, 58951, Note_on_c, 0, 56, 0
2, 58952, Note_on_c, 0, 72, 0
2, 59037, Control_c, 0, 64, 0
2, 59043, Note_on_c, 0, 79, 69
2, 59046, Note_on_c, 0, 55, 64
2, 59056, Control_c, 0, 64, 127
2, 59121, Note_on_c, 0, 79, 0
2, 59126, Note_on_c, 0, 64, 42
2, 59127, Note_on_c, 0, 55, 0
2, 59127, Note_on_c, 0, 88, 57
2, 59128, Note_on_c, 0, 60, 43
2, 59130, Note_on_c, 0, 84, 47
2, 59138, Note_on_c, 0, 64, 0
2, 59143, Note_on_c, 0, 88, 0
2, 59156, Note_on_c, 0, 84, 0
2, 59161, Control_c, 0, 64, 0
2, 59166, Note_on_c, 0, 60, 0
2, 59183, Control_c, 0, 64, 127
2, 59188, Control_c, 0, 64, 0
2, 59237, Note_on_c, 0, 78, 62
2, 59238, Note_on_c, 0, 60, 15
2, 59242, Note_on_c, 0, 64, 49
2, 59243, Note_on_c, 0, 54, 43
2, 59276, Control_c, 0, 64, 127
2, 59325, Note_on_c, 0, 60, 0
2, 59332, Note_on_c, 0, 64, 0
2, 59371, Note_on_c, 0, 64, 53
2, 59375, Note_on_c, 0, 60, 34
2, 59392, Note_on_c, 0, 60, 0
2, 59392, Note_on_c, 0, 64, 0
2, 59401, Note_on_c, 0, 78, 0
2, 59420, Note_on_c, 0, 54, 0
2, 59513, Control_c, 0, 64, 0
2, 59521, Note_on_c, 0, 55, 47
2, 59522, Note_on_c, 0, 58, 35
2, 59522, Note_on_c, 0, 62, 41
2, 59523, Note_on_c, 0, 82, 42
2, 59525, Note_on_c, 0, 77, 50
2, 59526, Note_on_c, 0, 86, 42
2, 59528, Control_c, 0, 64, 127
2, 59545, Note_on_c, 0, 86, 0
2, 59546, Note_on_c, 0, 82, 0
2, 59546, Note_on_c, 0, 77, 0
2, 59547, Note_on_c, 0, 62, 0
2, 59558, Note_on_c, 0, 58, 0
2, 59561, Note_on_c, 0, 55, 0
2, 59607, Note_on_c, 0, 77, 74
2, 59607, Note_on_c, 0, 89, 81
2, 59607, Note_on_c, 0, 58, 56
2, 59608, Note_on_c, 0, 55, 67
2, 59610, Note_on_c, 0, 62, 60
2, 59612, Note_on_c, 0, 53, 41
2, 59617, Note_on_c, 0, 62, 0
2, 59621, Note_on_c, 0, 53, 0
2, 59622, Note_on_c, 0, 77, 0
2, 59627, Note_on_c, 0, 55, 0
2, 59628, Note_on_c, 0, 58, 0
2, 59628, Note_on_c, 0, 89, 0
2, 59645, Control_c, 0, 64, 0
2, 59653, Note_on_c, 0, 58, 43
2, 59653, Note_on_c, 0, 55, 45
2, 59656, Note_on_c, 0, 93, 64
2, 59657, Note_on_c, 0, 81, 46
2, 59663, Note_on_c, 0, 93, 0
2, 59665, Note_on_c, 0, 81, 0
2, 59665, Note_on_c, 0, 55, 0
2, 59668, Note_on_c, 0, 58, 0
2, 59706, Control_c, 0, 64, 127
2, 59727, Note_on_c, 0, 58, 48
2, 59727, Note_on_c, 0, 96, 78
2, 59728, Note_on_c, 0, 62, 54
2, 59728, Note_on_c, 0, 84, 71
2, 59732, Note_on_c, 0, 91, 39
2, 59736, Note_on_c, 0, 62, 0
2, 59741, Note_on_c, 0, 91, 0
2, 59745, Note_on_c, 0, 96, 0
2, 59750, Note_on_c, 0, 84, 0
2, 59752, Note_on_c, 0, 58, 0
2, 59766, Control_c, 0, 64, 0
2, 59781, Note_on_c, 0, 58, 46
2, 59781, Note_on_c, 0, 62, 54
2, 59782, Note_on_c, 0, 52, 64
2, 59783, Note_on_c, 0, 94, 65
2, 59785, Note_on_c, 0, 82, 59
2, 59795, Note_on_c, 0, 62, 0
2, 59798, Note_on_c, 0, 58, 0
2, 59800, Note_on_c, 0, 82, 0
2, 59800, Note_on_c, 0, 52, 0
2, 59801, Note_on_c, 0, 94, 0
2, 59833, Control_c, 0, 64, 127
2, 59846, Control_c, 0, 64, 0
2, 59881, Note_on_c, 0, 91, 42
2, 59882, Control_c, 0, 64, 127
2, 59883, Note_on_c, 0, 79, 36
2, 59883, Note_on_c, 0, 58, 36
2, 59885, Note_on_c, 0, 62, 40
2, 59886, Note_on_c, 0, 86, 39
2, 59887, Note_on_c, 0, 52, 42
2, 59910, Note_on_c, 0, 79, 0
2, 59912, Note_on_c, 0, 52, 0
2, 59913, Note_on_c, 0, 86, 0
2, 59917, Note_on_c, 0, 91, 0
2, 59925, Note_on_c, 0, 58, 0
2, 59930, Note_on_c, 0, 62, 0
2, 59988, Control_c, 0, 64, 0
2, 59996, Note_on_c, 0, 60, 41
2, 59997, Note_on_c, 0, 93, 64
2, 59998, Note_on_c, 0, 64, 46
2, 59998, Note_on_c, 0, 57, 50
2, 60001, Note_on_c, 0, 53, 28
2, 60001, Note_on_c, 0, 81, 42
2, 60001, Note_on_c, 0, 88, 51
2, 60016, Control_c, 0, 64, 127
2, 60021, Note_on_c, 0, 88, 0
2, 60021, Note_on_c, 0, 93, 0
2, 60026, Note_on_c, 0, 81, 0
2, 60031, Note_on_c, 0, 64, 0
2, 60036, Note_on_c, 0, 53, 0
2, 60036, Note_on_c, 0, 60, 0
2, 60037, Note_on_c, 0, 57, 0
2, 60111, Note_on_c, 0, 89, 57
2, 60113, Note_on_c, 0, 64, 47
2, 60113, Note_on_c, 0, 77, 51
2, 60113, Note_on_c, 0, 60, 33
2, 60115, Note_on_c, 0, 53, 32
2, 60115, Note_on_c, 0, 84, 53
2, 60116, Note_on_c, 0, 57, 41
2, 60131, Note_on_c, 0, 53, 0
2, 60136, Note_on_c, 0, 77, 0
2, 60136, Note_on_c, 0, 64, 0
2, 60137, Note_on_c, 0, 57, 0
2, 60140, Note_on_c, 0, 84, 0
2, 60141, Note_on_c, 0, 60, 0
2, 60143, Note_on_c, 0, 89, 0
2, 60221, Control_c, 0, 64, 0
2, 60228, Note_on_c, 0, 91, 82
2, 60228, Note_on_c, 0, 84, 87
2, 60230, Note_on_c, 0, 87, 71
2, 60230, Note_on_c, 0, 79, 80
2, 60230, Note_on_c, 0, 63, 67
2, 60231, Note_on_c, 0, 60, 64
2, 60232, Note_on_c, 0, 67, 78
2, 60232, Note_on_c, 0, 56, 61
2, 60252, Control_c, 0, 64, 127
2, 60280, Note_on_c, 0, 91, 0
2, 60281, Note_on_c, 0, 67, 0
2, 60282, Note_on_c, 0, 56, 0
2, 60282, Note_on_c, 0, 84, 0
2, 60287, Note_on_c, 0, 63, 0
2, 60288, Note_on_c, 0, 79, 0
2, 60290, Note_on_c, 0, 60, 0
2, 60293, Note_on_c, 0, 87, 0
2, 60318, Note_on_c, 0, 89, 70
2, 60321, Note_on_c, 0, 77, 63
2, 60321, Note_on_c, 0, 67, 68
2, 60321, Note_on_c, 0, 84, 66
2, 60321, Note_on_c, 0, 62, 61
2, 60322, Note_on_c, 0, 56, 49
2, 60322, Note_on_c, 0, 60, 63
2, 60328, Control_c, 0, 64, 0
2, 60358, Control_c, 0, 64, 127
2, 60360, Note_on_c, 0, 89, 0
2, 60365, Note_on_c, 0, 67, 0
2, 60367, Note_on_c, 0, 84, 0
2, 60371, Note_on_c, 0, 62, 0
2, 60375, Note_on_c, 0, 60, 0
2, 60377, Note_on_c, 0, 77, 0
2, 60386, Note_on_c, 0, 56, 0
2, 60476, Note_on_c, 0, 50, 43
2, 60478, Note_on_c, 0, 64, 53
2, 60480, Note_on_c, 0, 55, 54
2, 60481, Note_on_c, 0, 59, 51
2, 60485, Note_on_c, 0, 52, 51
2, 60487, Control_c, 0, 64, 0
2, 60497, Note_on_c, 0, 50, 0
2, 60548, Note_on_c, 0, 59, 0
2, 60548, Note_on_c, 0, 64, 0
2, 60550, Note_on_c, 0, 55, 0
2, 60553, Note_on_c, 0, 52, 0
2, 60566, Note_on_c, 0, 51, 32
2, 60600, Note_on_c, 0, 64, 38
2, 60601, Note_on_c, 0, 59, 45
2, 60602, Note_on_c, 0, 51, 0
2, 60602, Note_on_c, 0, 55, 36
2, 60605, Note_on_c, 0, 52, 46
2, 60668, Note_on_c, 0, 59, 0
2, 60673, Note_on_c, 0, 55, 0
2, 60675, Note_on_c, 0, 64, 0
2, 60678, Note_on_c, 0, 52, 0
2, 60683, Note_on_c, 0, 51, 38
2, 60716, Note_on_c, 0, 51, 0
2, 60720, Note_on_c, 0, 64, 31
2, 60720, Note_on_c, 0, 55, 32
2, 60722, Note_on_c, 0, 58, 42
2, 60722, Note_on_c, 0, 52, 42
2, 60722, Note_on_c, 0, 61, 35
2, 60841, Control_c, 0, 64, 127
2, 60885, Note_on_c, 0, 55, 0
2, 60893, Note_on_c, 0, 61, 0
2, 60913, Note_on_c, 0, 64, 0
2, 60916, Note_on_c, 0, 58, 0
2, 60921, Note_on_c, 0, 52, 0
2, 60933, Control_c, 0, 64, 0
2, 60948, Note_on_c, 0, 62, 38
2, 60950, Note_on_c, 0, 53, 36
2, 60952, Control_c, 0, 64, 127
2, 60952, Note_on_c, 0, 57, 35
2, 60952, Note_on_c, 0, 50, 36
2, 60956, Note_on_c, 0, 60, 24
2, 60962, Note_on_c, 0, 50, 0
2, 60963, Note_on_c, 0, 53, 0
2, 60966, Note_on_c, 0, 60, 0
2, 60966, Note_on_c, 0, 57, 0
2, 60975, Note_on_c, 0, 62, 0
2, 61040, Note_on_c, 0, 72, 70
2, 61040, Note_on_c, 0, 65, 74
2, 61040, Note_on_c, 0, 62, 77
2, 61040, Note_on_c, 0, 69, 71
2, 61040, Note_on_c, 0, 57, 68
2, 61046, Control_c, 0, 64, 0
2, 61130, Control_c, 0, 64, 127
2, 61222, Note_on_c, 0, 62, 0
2, 61233, Note_on_c, 0, 57, 0
2, 61236, Note_on_c, 0, 65, 0
2, 61252, Note_on_c, 0, 69, 0
2, 61255, Note_on_c, 0, 72, 0
2, 61433, Control_c, 0, 64, 0
2, 61438, Note_on_c, 0, 64, 44
2, 61440, Note_on_c, 0, 88, 58
2, 61441, Note_on_c, 0, 55, 46
2, 61441, Note_on_c, 0, 60, 39
2, 61442, Note_on_c, 0, 59, 54
2, 61443, Note_on_c, 0, 76, 48
2, 61443, Note_on_c, 0, 83, 64
2, 61471, Control_c, 0, 64, 127
2, 61486, Note_on_c, 0, 88, 0
2, 61491, Note_on_c, 0, 76, 0
2, 61492, Note_on_c, 0, 83, 0
2, 61493, Note_on_c, 0, 55, 0
2, 61495, Note_on_c, 0, 60, 0
2, 61496, Note_on_c, 0, 59, 0
2, 61497, Note_on_c, 0, 64, 0
2, 61518, Note_on_c, 0, 64, 58
2, 61518, Note_on_c, 0, 87, 69
2, 61520, Note_on_c, 0, 59, 50
2, 61521, Note_on_c, 0, 75, 59
2, 61521, Note_on_c, 0, 60, 46
2, 61522, Note_on_c, 0, 55, 50
2, 61523, Note_on_c, 0, 83, 56
2, 61553, Note_on_c, 0, 83, 0
2, 61555, Note_on_c, 0, 55, 0
2, 61556, Note_on_c, 0, 64, 0
2, 61556, Note_on_c, 0, 87, 0
2, 61557, Note_on_c, 0, 59, 0
2, 61558, Note_on_c, 0, 60, 0
2, 61558, Note_on_c, 0, 75, 0
2, 61563, Control_c, 0, 64, 0
2, 61563, Note_on_c, 0, 64, 34
2, 61566, Note_on_c, 0, 55, 25
2, 61566, Note_on_c, 0, 60, 29
2, 61567, Note_on_c, 0, 59, 35
2, 61567, Note_on_c, 0, 88, 69
2, 61568, Note_on_c, 0, 76, 60
2, 61571, Note_on_c, 0, 83, 66
2, 61593, Note_on_c, 0, 88, 0
2, 61596, Note_on_c, 0, 76, 0
2, 61600, Note_on_c, 0, 55, 0
2, 61600, Note_on_c, 0, 83, 0
2, 61606, Note_on_c, 0, 64, 0
2, 61606, Note_on_c, 0, 59, 0
2, 61607, Note_on_c, 0, 60, 0
2, 61632, Control_c, 0, 64, 127
2, 61638, Note_on_c, 0, 64, 52
2, 61638, Note_on_c, 0, 60, 45
2, 61640, Note_on_c, 0, 87, 64
2, 61641, Note_on_c, 0, 59, 43
2, 61641, Note_on_c, 0, 75, 63
2, 61643, Note_on_c, 0, 55, 44
2, 61646, Note_on_c, 0, 83, 47
2, 61650, Note_on_c, 0, 55, 0
2, 61653, Note_on_c, 0, 59, 0
2, 61655, Note_on_c, 0, 60, 0
2, 61655, Note_on_c, 0, 64, 0
2, 61660, Note_on_c, 0, 83, 0
2, 61663, Note_on_c, 0, 87, 0
2, 61666, Note_on_c, 0, 75, 0
2, 61676, Control_c, 0, 64, 0
2, 61686, Note_on_c, 0, 65, 78
2, 61686, Note_on_c, 0, 60, 63
2, 61686, Note_on_c, 0, 61, 48
2, 61688, Note_on_c, 0, 55, 64
2, 61688, Note_on_c, 0, 88, 58
2, 61690, Note_on_c, 0, 76, 61
2, 61690, Note_on_c, 0, 83, 60
2, 61693, Note_on_c, 0, 58, 27
2, 61707, Control_c, 0, 64, 127
2, 61721, Note_on_c, 0, 76, 0
2, 61728, Note_on_c, 0, 83, 0
2, 61733, Note_on_c, 0, 88, 0
2, 61742, Note_on_c, 0, 55, 0
2, 61745, Note_on_c, 0, 61, 0
2, 61745, Note_on_c, 0, 58, 0
2, 61745, Note_on_c, 0, 60, 0
2, 61747, Note_on_c, 0, 65, 0
2, 61793, Control_c, 0, 64, 0
2, 61800, Note_on_c, 0, 65, 68
2, 61800, Note_on_c, 0, 61, 57
2, 61800, Note_on_c, 0, 96, 75
2, 61800, Note_on_c, 0, 55, 68
2, 61801, Note_on_c, 0, 60, 36
2, 61802, Note_on_c, 0, 91, 53
2, 61805, Note_on_c, 0, 84, 45
2, 61810, Control_c, 0, 64, 127
2, 61827, Note_on_c, 0, 60, 0
2, 61828, Note_on_c, 0, 91, 0
2, 61830, Note_on_c, 0, 96, 0
2, 61837, Note_on_c, 0, 65, 0
2, 61838, Note_on_c, 0, 55, 0
2, 61840, Note_on_c, 0, 84, 0
2, 61848, Note_on_c, 0, 61, 0
2, 61876, Note_on_c, 0, 53, 54
2, 61877, Note_on_c, 0, 88, 58
2, 61878, Note_on_c, 0, 64, 53
2, 61878, Note_on_c, 0, 60, 46
2, 61878, Note_on_c, 0, 81, 42
2, 61880, Note_on_c, 0, 93, 51
2, 61881, Note_on_c, 0, 57, 64
2, 61883, Control_c, 0, 64, 0
2, 61912, Control_c, 0, 64, 127
2, 61920, Note_on_c, 0, 81, 0
2, 61925, Note_on_c, 0, 88, 0
2, 61932, Note_on_c, 0, 93, 0
2, 61941, Note_on_c, 0, 60, 0
2, 61943, Note_on_c, 0, 57, 0
2, 61946, Note_on_c, 0, 64, 0
2, 61951, Note_on_c, 0, 53, 0
2, 62000, Note_on_c, 0, 98, 58
2, 62000, Note_on_c, 0, 53, 41
2, 62000, Note_on_c, 0, 60, 53
2, 62001, Note_on_c, 0, 57, 60
2, 62001, Note_on_c, 0, 64, 58
2, 62001, Note_on_c, 0, 86, 42
2, 62001, Note_on_c, 0, 93, 62
2, 62007, Control_c, 0, 64, 0
2, 62040, Control_c, 0, 64, 127
2, 62091, Note_on_c, 0, 60, 0
2, 62102, Note_on_c, 0, 57, 0
2, 62103, Note_on_c, 0, 53, 0
2, 62105, Note_on_c, 0, 64, 0
2, 62116, Note_on_c, 0, 98, 0
2, 62118, Note_on_c, 0, 93, 0
2, 62137, Note_on_c, 0, 86, 0
2, 62157, Note_on_c, 0, 64, 51
2, 62158, Note_on_c, 0, 59, 48
2, 62162, Control_c, 0, 64, 0
2, 62162, Note_on_c, 0, 53, 26
2, 62163, Note_on_c, 0, 57, 48
2, 62208, Control_c, 0, 64, 127
2, 62255, Note_on_c, 0, 64, 0
2, 62263, Note_on_c, 0, 59, 0
2, 62270, Note_on_c, 0, 57, 0
2, 62286, Note_on_c, 0, 53, 0
2, 62388, Note_on_c, 0, 50, 42
2, 62395, Note_on_c, 0, 55, 38
2, 62397, Note_on_c, 0, 59, 47
2, 62398, Note_on_c, 0, 62, 30
2, 62400, Note_on_c, 0, 52, 57
2, 62402, Note_on_c, 0, 64, 41
2, 62402, Control_c, 0, 64, 0
2, 62410, Note_on_c, 0, 50, 0
2, 62455, Note_on_c, 0, 55, 0
2, 62457, Note_on_c, 0, 52, 0
2, 62458, Note_on_c, 0, 59, 0
2, 62458, Note_on_c, 0, 64, 0
2, 62463, Note_on_c, 0, 62, 0
2, 62480, Note_on_c, 0, 64, 54
2, 62481, Note_on_c, 0, 55, 64
2, 62481, Note_on_c, 0, 59, 58
2, 62483, Note_on_c, 0, 52, 58
2, 62483, Note_on_c, 0, 62, 51
2, 62488, Note_on_c, 0, 50, 32
2, 62497, Note_on_c, 0, 50, 0
2, 62513, Note_on_c, 0, 55, 0
2, 62515, Note_on_c, 0, 64, 0
2, 62517, Note_on_c, 0, 52, 0
2, 62520, Note_on_c, 0, 59, 0
2, 62522, Note_on_c, 0, 62, 0
2, 62535, Note_on_c, 0, 64, 37
2, 62536, Note_on_c, 0, 55, 43
2, 62536, Note_on_c, 0, 59, 53
2, 62540, Note_on_c, 0, 52, 33
2, 62553, Note_on_c, 0, 55, 0
2, 62555, Note_on_c, 0, 64, 0
2, 62556, Note_on_c, 0, 52, 0
2, 62558, Control_c, 0, 64, 127
2, 62560, Note_on_c, 0, 59, 0
2, 62601, Note_on_c, 0, 52, 59
2, 62601, Note_on_c, 0, 55, 69
2, 62616, Note_on_c, 0, 55, 0
2, 62618, Note_on_c, 0, 52, 0
2, 62650, Note_on_c, 0, 55, 65
2, 62650, Note_on_c, 0, 58, 58
2, 62650, Note_on_c, 0, 67, 62
2, 62652, Note_on_c, 0, 61, 49
2, 62653, Control_c, 0, 64, 0
2, 62653, Note_on_c, 0, 64, 50
2, 62697, Note_on_c, 0, 67, 0
2, 62700, Note_on_c, 0, 64, 0
2, 62705, Note_on_c, 0, 58, 0
2, 62706, Note_on_c, 0, 55, 0
2, 62711, Note_on_c, 0, 61, 0
2, 62760, Control_c, 0, 64, 127
2, 62761, Note_on_c, 0, 55, 48
2, 62761, Note_on_c, 0, 58, 44
2, 62763, Note_on_c, 0, 67, 45
2, 62763, Note_on_c, 0, 61, 36
2, 62767, Note_on_c, 0, 64, 41
2, 62785, Note_on_c, 0, 67, 0
2, 62788, Note_on_c, 0, 64, 0
2, 62793, Note_on_c, 0, 55, 0
2, 62797, Note_on_c, 0, 58, 0
2, 62831, Note_on_c, 0, 61, 0
2, 62867, Control_c, 0, 64, 0
2, 62877, Note_on_c, 0, 65, 40
2, 62877, Note_on_c, 0, 60, 42
2, 62877, Note_on_c, 0, 57, 43
2, 62877, Note_on_c, 0, 50, 53
2, 62902, Control_c, 0, 64, 127
2, 62971, Note_on_c, 0, 57, 0
2, 62975, Note_on_c, 0, 50, 0
2, 62985, Note_on_c, 0, 60, 0
2, 62988, Note_on_c, 0, 65, 0
2, 63078, Note_on_c, 0, 72, 59
2, 63078, Note_on_c, 0, 65, 60
2, 63080, Note_on_c, 0, 59, 59
2, 63081, Note_on_c, 0, 69, 64
2, 63082, Note_on_c, 0, 53, 55
2, 63091, Control_c, 0, 64, 0
2, 63117, Note_on_c, 0, 53, 0
2, 63117, Note_on_c, 0, 65, 0
2, 63121, Note_on_c, 0, 59, 0
2, 63121, Control_c, 0, 64, 127
2, 63122, Note_on_c, 0, 69, 0
2, 63131, Note_on_c, 0, 72, 0
2, 63222, Control_c, 0, 64, 0
2, 63232, Note_on_c, 0, 63, 44
2, 63235, Note_on_c, 0, 53, 45
2, 63236, Note_on_c, 0, 59, 39
2, 63238, Note_on_c, 0, 80, 37
2, 63241, Note_on_c, 0, 83, 50
2, 63241, Control_c, 0, 64, 127
2, 63241, Note_on_c, 0, 76, 45
2, 63256, Note_on_c, 0, 76, 0
2, 63257, Note_on_c, 0, 59, 0
2, 63266, Note_on_c, 0, 53, 0
2, 63267, Note_on_c, 0, 83, 0
2, 63272, Note_on_c, 0, 63, 0
2, 63291, Note_on_c, 0, 80, 0
2, 63312, Note_on_c, 0, 84, 62
2, 63313, Note_on_c, 0, 74, 51
2, 63315, Note_on_c, 0, 62, 46
2, 63315, Note_on_c, 0, 79, 47
2, 63317, Note_on_c, 0, 52, 39
2, 63320, Note_on_c, 0, 57, 46
2, 63321, Control_c, 0, 64, 0
2, 63353, Control_c, 0, 64, 127
2, 63448, Note_on_c, 0, 62, 0
2, 63450, Note_on_c, 0, 57, 0
2, 63462, Note_on_c, 0, 52, 0
2, 63462, Note_on_c, 0, 74, 0
2, 63473, Note_on_c, 0, 79, 0
2, 63488, Note_on_c, 0, 84, 0
2, 63655, Note_on_c, 0, 42, 59
2, 63657, Note_on_c, 0, 102, 51
2, 63695, Note_on_c, 0, 102, 0
2, 63698, Note_on_c, 0, 42, 0
2, 63702, Control_c, 0, 64, 0
2, 63707, Note_on_c, 0, 43, 47
2, 63710, Control_c, 0, 64, 127
2, 63710, Note_on_c, 0, 103, 33
2, 63758, Note_on_c, 0, 103, 0
2, 63767, Note_on_c, 0, 43, 0
2, 63776, Note_on_c, 0, 108, 60
2, 63783, Note_on_c, 0, 36, 55
2, 63783, Control_c, 0, 64, 0
2, 63822, Control_c, 0, 64, 127
2, 63871, Note_on_c, 0, 36, 0
2, 63928, Note_on_c, 0, 108, 0
2, 64003, Note_on_c, 0, 24, 43
2, 64510, Control_c, 0, 64, 0
2, 64683, Note_on_c, 0, 24, 0
2, 64683, End_track
3, 0, Start_track
3, 0, Control_c, 1, 0, 0
3, 0, Control_c, 1, 10, 63
3, 0, Program_c, 1, 32
3, 961, Note_on_c, 1, 48, 68
3, 1190, Note_on_c, 1, 48, 0
3, 1196, Note_on_c, 1, 45, 47
3, 1390, Note_on_c, 1, 37, 31
3, 1415, Note_on_c, 1, 45, 0
3, 1416, Note_on_c, 1, 37, 0
3, 1427, Note_on_c, 1, 38, 50
3, 1639, Note_on_c, 1, 45, 82
3, 1655, Note_on_c, 1, 38, 0
3, 1662, Note_on_c, 1, 45, 0
3, 1685, Note_on_c, 1, 43, 44
3, 1725, Note_on_c, 1, 43, 0
3, 1765, Note_on_c, 1, 38, 55
3, 1775, Note_on_c, 1, 38, 0
3, 1800, Note_on_c, 1, 41, 57
3, 1905, Note_on_c, 1, 41, 0
3, 1922, Note_on_c, 1, 40, 51
3, 2145, Note_on_c, 1, 40, 0
3, 2161, Note_on_c, 1, 36, 51
3, 2364, Note_on_c, 1, 30, 54
3, 2371, Note_on_c, 1, 36, 0
3, 2382, Note_on_c, 1, 30, 0
3, 2402, Note_on_c, 1, 31, 60
3, 2481, Note_on_c, 1, 31, 0
3, 2482, Note_on_c, 1, 43, 78
3, 2505, Note_on_c, 1, 43, 0
3, 2515, Note_on_c, 1, 42, 33
3, 2531, Note_on_c, 1, 42, 0
3, 2545, Note_on_c, 1, 43, 54
3, 2841, Note_on_c, 1, 31, 51
3, 2851, Note_on_c, 1, 43, 0
3, 2855, Note_on_c, 1, 31, 0
3, 2872, Note_on_c, 1, 36, 73
3, 3090, Note_on_c, 1, 34, 37
3, 3110, Note_on_c, 1, 36, 0
3, 3120, Note_on_c, 1, 34, 0
3, 3120, Note_on_c, 1, 43, 63
3, 3317, Note_on_c, 1, 34, 35
3, 3335, Note_on_c, 1, 34, 0
3, 3341, Note_on_c, 1, 43, 0
3, 3355, Note_on_c, 1, 40, 55
3, 3527, Note_on_c, 1, 40, 0
3, 3532, Note_on_c, 1, 38, 44
3, 3586, Note_on_c, 1, 38, 0
3, 3602, Note_on_c, 1, 37, 65
3, 3797, Note_on_c, 1, 34, 31
3, 3806, Note_on_c, 1, 37, 0
3, 3825, Note_on_c, 1, 34, 0
3, 3832, Note_on_c, 1, 38, 50
3, 4001, Note_on_c, 1, 40, 25
3, 4011, Note_on_c, 1, 40, 0
3, 4035, Note_on_c, 1, 41, 40
3, 4052, Note_on_c, 1, 41, 0
3, 4090, Note_on_c, 1, 44, 74
3, 4110, Note_on_c, 1, 38, 0
3, 4276, Note_on_c, 1, 42, 51
3, 4280, Note_on_c, 1, 44, 0
3, 4296, Note_on_c, 1, 42, 0
3, 4315, Note_on_c, 1, 43, 51
3, 4325, Note_on_c, 1, 43, 0
3, 4405, Note_on_c, 1, 38, 43
3, 4421, Note_on_c, 1, 38, 0
3, 4445, Note_on_c, 1, 31, 62
3, 4647, Note_on_c, 1, 37, 33
3, 4656, Note_on_c, 1, 37, 0
3, 4667, Note_on_c, 1, 31, 0
3, 4682, Note_on_c, 1, 41, 78
3, 4756, Note_on_c, 1, 36, 36
3, 4760, Note_on_c, 1, 41, 0
3, 4766, Note_on_c, 1, 36, 0
3, 4795, Note_on_c, 1, 40, 58
3, 4986, Note_on_c, 1, 37, 37
3, 5007, Note_on_c, 1, 40, 0
3, 5015, Note_on_c, 1, 37, 0
3, 5030, Note_on_c, 1, 39, 46
3, 5246, Note_on_c, 1, 37, 33
3, 5256, Note_on_c, 1, 39, 0
3, 5270, Note_on_c, 1, 37, 0
3, 5275, Note_on_c, 1, 38, 50
3, 5361, Note_on_c, 1, 37, 42
3, 5377, Note_on_c, 1, 38, 0
3, 5390, Note_on_c, 1, 37, 0
3, 5395, Note_on_c, 1, 45, 101
3, 5597, Note_on_c, 1, 37, 38
3, 5610, Note_on_c, 1, 37, 0
3, 5625, Note_on_c, 1, 45, 0
3, 5630, Note_on_c, 1, 43, 53
3, 5726, Note_on_c, 1, 38, 30
3, 5735, Note_on_c, 1, 38, 0
3, 5741, Note_on_c, 1, 43, 0
3, 5751, Note_on_c, 1, 45, 58
3, 5961, Note_on_c, 1, 37, 27
3, 5980, Note_on_c, 1, 37, 0
3, 5990, Note_on_c, 1, 45, 0
3, 5992, Note_on_c, 1, 38, 49
3, 6072, Note_on_c, 1, 37, 42
3, 6084, Note_on_c, 1, 38, 0
3, 6090, Note_on_c, 1, 37, 0
3, 6110, Note_on_c, 1, 44, 54
3, 6197, Note_on_c, 1, 37, 37
3, 6206, Note_on_c, 1, 37, 0
3, 6220, Note_on_c, 1, 44, 0
3, 6231, Note_on_c, 1, 43, 44
3, 6395, Note_on_c, 1, 38, 54
3, 6405, Note_on_c, 1, 38, 0
3, 6427, Note_on_c, 1, 43, 0
3, 6436, Note_on_c, 1, 36, 68
3, 6444, Note_on_c, 1, 36, 0
3, 6476, Note_on_c, 1, 35, 66
3, 6615, Note_on_c, 1, 35, 0
3, 6636, Note_on_c, 1, 47, 53
3, 6646, Note_on_c, 1, 47, 0
3, 6675, Note_on_c, 1, 39, 61
3, 6695, Note_on_c, 1, 39, 0
3, 6715, Note_on_c, 1, 40, 62
3, 6905, Note_on_c, 1, 39, 34
3, 6930, Note_on_c, 1, 40, 0
3, 6932, Note_on_c, 1, 39, 0
3, 6940, Note_on_c, 1, 43, 66
3, 7177, Note_on_c, 1, 43, 0
3, 7190, Note_on_c, 1, 45, 62
3, 7426, Note_on_c, 1, 45, 0
3, 7442, Note_on_c, 1, 38, 53
3, 7656, Note_on_c, 1, 37, 33
3, 7666, Note_on_c, 1, 37, 0
3, 7685, Note_on_c, 1, 38, 0
3, 7690, Note_on_c, 1, 44, 70
3, 7702, Note_on_c, 1, 44, 0
3, 7772, Note_on_c, 1, 46, 47
3, 7786, Note_on_c, 1, 46, 0
3, 7805, Note_on_c, 1, 48, 64
3, 7822, Note_on_c, 1, 48, 0
3, 7880, Note_on_c, 1, 44, 61
3, 7896, Note_on_c, 1, 44, 0
3, 7920, Note_on_c, 1, 46, 60
3, 8017, Note_on_c, 1, 46, 0
3, 8035, Note_on_c, 1, 44, 60
3, 8187, Note_on_c, 1, 44, 0
3, 8191, Note_on_c, 1, 43, 60
3, 8200, Note_on_c, 1, 43, 0
3, 8225, Note_on_c, 1, 38, 66
3, 8247, Note_on_c, 1, 38, 0
3, 8270, Note_on_c, 1, 32, 72
3, 8460, Note_on_c, 1, 32, 0
3, 8465, Note_on_c, 1, 31, 59
3, 8491, Note_on_c, 1, 31, 0
3, 8502, Note_on_c, 1, 35, 62
3, 8622, Note_on_c, 1, 35, 0
3, 8631, Note_on_c, 1, 36, 54
3, 8870, Note_on_c, 1, 36, 0
3, 8875, Note_on_c, 1, 33, 51
3, 9112, Note_on_c, 1, 33, 0
3, 9115, Note_on_c, 1, 38, 51
3, 9175, Note_on_c, 1, 38, 0
3, 9195, Note_on_c, 1, 45, 76
3, 9221, Note_on_c, 1, 45, 0
3, 9235, Note_on_c, 1, 44, 50
3, 9320, Note_on_c, 1, 38, 46
3, 9326, Note_on_c, 1, 44, 0
3, 9330, Note_on_c, 1, 38, 0
3, 9355, Note_on_c, 1, 43, 44
3, 9425, Note_on_c, 1, 43, 0
3, 9436, Note_on_c, 1, 34, 61
3, 9455, Note_on_c, 1, 34, 0
3, 9477, Note_on_c, 1, 35, 58
3, 9587, Note_on_c, 1, 35, 0
3, 9596, Note_on_c, 1, 36, 47
3, 9755, Note_on_c, 1, 38, 50
3, 9767, Note_on_c, 1, 38, 0
3, 9767, Note_on_c, 1, 36, 0
3, 9791, Note_on_c, 1, 39, 54
3, 9817, Note_on_c, 1, 39, 0
3, 9831, Note_on_c, 1, 40, 54
3, 10021, Note_on_c, 1, 40, 0
3, 10031, Note_on_c, 1, 45, 61
3, 10057, Note_on_c, 1, 45, 0
3, 10075, Note_on_c, 1, 43, 43
3, 10090, Note_on_c, 1, 43, 0
3, 10161, Note_on_c, 1, 38, 37
3, 10180, Note_on_c, 1, 38, 0
3, 10195, Note_on_c, 1, 31, 65
3, 10382, Note_on_c, 1, 31, 0
3, 10395, Note_on_c, 1, 34, 67
3, 10412, Note_on_c, 1, 34, 0
3, 10432, Note_on_c, 1, 35, 62
3, 10541, Note_on_c, 1, 35, 0
3, 10550, Note_on_c, 1, 36, 61
3, 10755, Note_on_c, 1, 34, 26
3, 10775, Note_on_c, 1, 36, 0
3, 10790, Note_on_c, 1, 43, 55
3, 10791, Note_on_c, 1, 34, 0
3, 10997, Note_on_c, 1, 36, 47
3, 11010, Note_on_c, 1, 36, 0
3, 11020, Note_on_c, 1, 43, 0
3, 11031, Note_on_c, 1, 48, 55
3, 11232, Note_on_c, 1, 34, 34
3, 11255, Note_on_c, 1, 34, 0
3, 11261, Note_on_c, 1, 48, 0
3, 11275, Note_on_c, 1, 37, 55
3, 11479, Note_on_c, 1, 34, 33
3, 11494, Note_on_c, 1, 37, 0
3, 11510, Note_on_c, 1, 34, 0
3, 11512, Note_on_c, 1, 38, 54
3, 11715, Note_on_c, 1, 37, 21
3, 11732, Note_on_c, 1, 38, 0
3, 11741, Note_on_c, 1, 37, 0
3, 11750, Note_on_c, 1, 40, 53
3, 11772, Note_on_c, 1, 40, 0
3, 11836, Note_on_c, 1, 41, 65
3, 11851, Note_on_c, 1, 41, 0
3, 11875, Note_on_c, 1, 42, 65
3, 11957, Note_on_c, 1, 37, 34
3, 11965, Note_on_c, 1, 37, 0
3, 11970, Note_on_c, 1, 42, 0
3, 11990, Note_on_c, 1, 43, 54
3, 12197, Note_on_c, 1, 38, 43
3, 12206, Note_on_c, 1, 38, 0
3, 12220, Note_on_c, 1, 43, 0
3, 12231, Note_on_c, 1, 41, 55
3, 12439, Note_on_c, 1, 38, 34
3, 12457, Note_on_c, 1, 38, 0
3, 12467, Note_on_c, 1, 41, 0
3, 12476, Note_on_c, 1, 40, 59
3, 12597, Note_on_c, 1, 45, 74
3, 12604, Note_on_c, 1, 40, 0
3, 12800, Note_on_c, 1, 39, 51
3, 12810, Note_on_c, 1, 39, 0
3, 12816, Note_on_c, 1, 45, 0
3, 12836, Note_on_c, 1, 44, 55
3, 12941, Note_on_c, 1, 44, 0
3, 12952, Note_on_c, 1, 43, 51
3, 13185, Note_on_c, 1, 43, 0
3, 13192, Note_on_c, 1, 33, 48
3, 13225, Note_on_c, 1, 33, 0
3, 13382, Note_on_c, 1, 44, 48
3, 13415, Note_on_c, 1, 44, 0
3, 13430, Note_on_c, 1, 43, 44
3, 13541, Note_on_c, 1, 43, 0
3, 13547, Note_on_c, 1, 38, 54
3, 13637, Note_on_c, 1, 34, 32
3, 13641, Note_on_c, 1, 38, 0
3, 13665, Note_on_c, 1, 34, 0
3, 13672, Note_on_c, 1, 36, 50
3, 13760, Note_on_c, 1, 34, 30
3, 13767, Note_on_c, 1, 36, 0
3, 13780, Note_on_c, 1, 34, 0
3, 13790, Note_on_c, 1, 42, 51
3, 13907, Note_on_c, 1, 42, 0
3, 13911, Note_on_c, 1, 41, 63
3, 14131, Note_on_c, 1, 41, 0
3, 14151, Note_on_c, 1, 34, 54
3, 14387, Note_on_c, 1, 43, 56
3, 14400, Note_on_c, 1, 34, 0
3, 14721, Note_on_c, 1, 31, 80
3, 14732, Note_on_c, 1, 43, 0
3, 15075, Note_on_c, 1, 38, 53
3, 15085, Note_on_c, 1, 38, 0
3, 15105, Note_on_c, 1, 31, 0
3, 15111, Note_on_c, 1, 43, 70
3, 15130, Note_on_c, 1, 43, 0
3, 15146, Note_on_c, 1, 44, 56
3, 15170, Note_on_c, 1, 44, 0
3, 15185, Note_on_c, 1, 43, 63
3, 15435, Note_on_c, 1, 38, 41
3, 15446, Note_on_c, 1, 38, 0
3, 15457, Note_on_c, 1, 43, 0
3, 15471, Note_on_c, 1, 31, 76
3, 15800, Note_on_c, 1, 38, 40
3, 15810, Note_on_c, 1, 38, 0
3, 15816, Note_on_c, 1, 31, 0
3, 15839, Note_on_c, 1, 43, 78
3, 15850, Note_on_c, 1, 43, 0
3, 15922, Note_on_c, 1, 44, 79
3, 15947, Note_on_c, 1, 44, 0
3, 15962, Note_on_c, 1, 43, 68
3, 16160, Note_on_c, 1, 34, 62
3, 16172, Note_on_c, 1, 43, 0
3, 16182, Note_on_c, 1, 34, 0
3, 16201, Note_on_c, 1, 35, 54
3, 16282, Note_on_c, 1, 34, 31
3, 16307, Note_on_c, 1, 35, 0
3, 16312, Note_on_c, 1, 34, 0
3, 16322, Note_on_c, 1, 36, 44
3, 16416, Note_on_c, 1, 34, 33
3, 16425, Note_on_c, 1, 36, 0
3, 16442, Note_on_c, 1, 46, 64
3, 16445, Note_on_c, 1, 34, 0
3, 16545, Note_on_c, 1, 46, 0
3, 16557, Note_on_c, 1, 45, 51
3, 16637, Note_on_c, 1, 37, 34
3, 16646, Note_on_c, 1, 45, 0
3, 16666, Note_on_c, 1, 37, 0
3, 16675, Note_on_c, 1, 39, 52
3, 16777, Note_on_c, 1, 37, 17
3, 16780, Note_on_c, 1, 39, 0
3, 16787, Note_on_c, 1, 37, 0
3, 16796, Note_on_c, 1, 38, 50
3, 16881, Note_on_c, 1, 37, 29
3, 16882, Note_on_c, 1, 45, 71
3, 16885, Note_on_c, 1, 38, 0
3, 16895, Note_on_c, 1, 37, 0
3, 16902, Note_on_c, 1, 45, 0
3, 16912, Note_on_c, 1, 44, 55
3, 17001, Note_on_c, 1, 37, 53
3, 17016, Note_on_c, 1, 44, 0
3, 17017, Note_on_c, 1, 37, 0
3, 17035, Note_on_c, 1, 43, 46
3, 17117, Note_on_c, 1, 37, 26
3, 17126, Note_on_c, 1, 37, 0
3, 17127, Note_on_c, 1, 38, 47
3, 17140, Note_on_c, 1, 38, 0
3, 17150, Note_on_c, 1, 43, 0
3, 17156, Note_on_c, 1, 41, 53
3, 17261, Note_on_c, 1, 41, 0
3, 17267, Note_on_c, 1, 40, 50
3, 17395, Note_on_c, 1, 40, 0
3, 17395, Note_on_c, 1, 38, 58
3, 17501, Note_on_c, 1, 38, 0
3, 17507, Note_on_c, 1, 36, 63
3, 17590, Note_on_c, 1, 36, 0
3, 17590, Note_on_c, 1, 33, 68
3, 17609, Note_on_c, 1, 33, 0
3, 17626, Note_on_c, 1, 32, 54
3, 17711, Note_on_c, 1, 32, 0
3, 17716, Note_on_c, 1, 30, 55
3, 17740, Note_on_c, 1, 30, 0
3, 17751, Note_on_c, 1, 31, 64
3, 17790, Note_on_c, 1, 31, 0
3, 17832, Note_on_c, 1, 31, 75
3, 17855, Note_on_c, 1, 31, 0
3, 17867, Note_on_c, 1, 33, 74
3, 17980, Note_on_c, 1, 33, 0
3, 17987, Note_on_c, 1, 34, 62
3, 18105, Note_on_c, 1, 34, 0
3, 18107, Note_on_c, 1, 35, 64
3, 18235, Note_on_c, 1, 36, 64
3, 18242, Note_on_c, 1, 35, 0
3, 18321, Note_on_c, 1, 34, 32
3, 18340, Note_on_c, 1, 34, 0
3, 18350, Note_on_c, 1, 36, 0
3, 18355, Note_on_c, 1, 44, 63
3, 18471, Note_on_c, 1, 43, 55
3, 18472, Note_on_c, 1, 44, 0
3, 18562, Note_on_c, 1, 36, 32
3, 18572, Note_on_c, 1, 43, 0
3, 18585, Note_on_c, 1, 36, 0
3, 18591, Note_on_c, 1, 56, 64
3, 18681, Note_on_c, 1, 36, 34
3, 18695, Note_on_c, 1, 36, 0
3, 18697, Note_on_c, 1, 56, 0
3, 18710, Note_on_c, 1, 55, 56
3, 18815, Note_on_c, 1, 55, 0
3, 18831, Note_on_c, 1, 53, 59
3, 18915, Note_on_c, 1, 44, 25
3, 18925, Note_on_c, 1, 44, 0
3, 18930, Note_on_c, 1, 53, 0
3, 18946, Note_on_c, 1, 52, 61
3, 19040, Note_on_c, 1, 46, 30
3, 19050, Note_on_c, 1, 46, 0
3, 19062, Note_on_c, 1, 52, 0
3, 19075, Note_on_c, 1, 49, 44
3, 19162, Note_on_c, 1, 42, 34
3, 19170, Note_on_c, 1, 42, 0
3, 19182, Note_on_c, 1, 49, 0
3, 19195, Note_on_c, 1, 50, 58
3, 19216, Note_on_c, 1, 50, 0
3, 19275, Note_on_c, 1, 48, 71
3, 19296, Note_on_c, 1, 48, 0
3, 19315, Note_on_c, 1, 45, 40
3, 19390, Note_on_c, 1, 39, 43
3, 19397, Note_on_c, 1, 39, 0
3, 19412, Note_on_c, 1, 45, 0
3, 19432, Note_on_c, 1, 41, 40
3, 19495, Note_on_c, 1, 41, 0
3, 19515, Note_on_c, 1, 45, 58
3, 19585, Note_on_c, 1, 45, 0
3, 19596, Note_on_c, 1, 42, 46
3, 19615, Note_on_c, 1, 42, 0
3, 19630, Note_on_c, 1, 41, 62
3, 19640, Note_on_c, 1, 41, 0
3, 19671, Note_on_c, 1, 43, 58
3, 19756, Note_on_c, 1, 38, 68
3, 19762, Note_on_c, 1, 43, 0
3, 19775, Note_on_c, 1, 38, 0
3, 19797, Note_on_c, 1, 35, 51
3, 19902, Note_on_c, 1, 35, 0
3, 19912, Note_on_c, 1, 38, 54
3, 20026, Note_on_c, 1, 39, 70
3, 20031, Note_on_c, 1, 38, 0
3, 20140, Note_on_c, 1, 39, 0
3, 20150, Note_on_c, 1, 40, 48
3, 20230, Note_on_c, 1, 39, 38
3, 20261, Note_on_c, 1, 39, 0
3, 20265, Note_on_c, 1, 52, 53
3, 20266, Note_on_c, 1, 40, 0
3, 20355, Note_on_c, 1, 39, 36
3, 20365, Note_on_c, 1, 39, 0
3, 20366, Note_on_c, 1, 52, 0
3, 20390, Note_on_c, 1, 51, 46
3, 20502, Note_on_c, 1, 51, 0
3, 20510, Note_on_c, 1, 39, 58
3, 20609, Note_on_c, 1, 37, 33
3, 20620, Note_on_c, 1, 39, 0
3, 20630, Note_on_c, 1, 37, 0
3, 20632, Note_on_c, 1, 38, 43
3, 20719, Note_on_c, 1, 37, 37
3, 20735, Note_on_c, 1, 38, 0
3, 20755, Note_on_c, 1, 51, 55
3, 20761, Note_on_c, 1, 37, 0
3, 20856, Note_on_c, 1, 51, 0
3, 20877, Note_on_c, 1, 50, 57
3, 20890, Note_on_c, 1, 50, 0
3, 20960, Note_on_c, 1, 42, 59
3, 20986, Note_on_c, 1, 42, 0
3, 20996, Note_on_c, 1, 43, 47
3, 21075, Note_on_c, 1, 42, 37
3, 21091, Note_on_c, 1, 42, 0
3, 21095, Note_on_c, 1, 43, 0
3, 21120, Note_on_c, 1, 45, 47
3, 21217, Note_on_c, 1, 45, 0
3, 21237, Note_on_c, 1, 45, 64
3, 21345, Note_on_c, 1, 45, 0
3, 21355, Note_on_c, 1, 38, 43
3, 21470, Note_on_c, 1, 38, 0
3, 21471, Note_on_c, 1, 44, 59
3, 21561, Note_on_c, 1, 38, 33
3, 21574, Note_on_c, 1, 38, 0
3, 21582, Note_on_c, 1, 44, 0
3, 21595, Note_on_c, 1, 43, 47
3, 21615, Note_on_c, 1, 43, 0
3, 21675, Note_on_c, 1, 38, 60
3, 21700, Note_on_c, 1, 38, 0
3, 21715, Note_on_c, 1, 34, 51
3, 21827, Note_on_c, 1, 34, 0
3, 21835, Note_on_c, 1, 35, 52
3, 21945, Note_on_c, 1, 35, 0
3, 21952, Note_on_c, 1, 39, 57
3, 22066, Note_on_c, 1, 39, 0
3, 22075, Note_on_c, 1, 40, 62
3, 22141, Note_on_c, 1, 40, 0
3, 22160, Note_on_c, 1, 40, 63
3, 22175, Note_on_c, 1, 40, 0
3, 22195, Note_on_c, 1, 42, 76
3, 22305, Note_on_c, 1, 42, 0
3, 22306, Note_on_c, 1, 43, 55
3, 22315, Note_on_c, 1, 40, 26
3, 22326, Note_on_c, 1, 40, 0
3, 22391, Note_on_c, 1, 40, 51
3, 22407, Note_on_c, 1, 40, 0
3, 22412, Note_on_c, 1, 43, 0
3, 22430, Note_on_c, 1, 46, 61
3, 22547, Note_on_c, 1, 46, 0
3, 22550, Note_on_c, 1, 45, 56
3, 22652, Note_on_c, 1, 45, 0
3, 22670, Note_on_c, 1, 40, 63
3, 22767, Note_on_c, 1, 40, 0
3, 22787, Note_on_c, 1, 38, 64
3, 22870, Note_on_c, 1, 37, 29
3, 22910, Note_on_c, 1, 46, 42
3, 22921, Note_on_c, 1, 46, 0
3, 22922, Note_on_c, 1, 37, 0
3, 22925, Note_on_c, 1, 38, 0
3, 22995, Note_on_c, 1, 38, 62
3, 23005, Note_on_c, 1, 38, 0
3, 23030, Note_on_c, 1, 50, 80
3, 23121, Note_on_c, 1, 38, 30
3, 23131, Note_on_c, 1, 38, 0
3, 23132, Note_on_c, 1, 50, 0
3, 23150, Note_on_c, 1, 45, 47
3, 23235, Note_on_c, 1, 38, 32
3, 23246, Note_on_c, 1, 38, 0
3, 23261, Note_on_c, 1, 45, 0
3, 23272, Note_on_c, 1, 41, 46
3, 23330, Note_on_c, 1, 41, 0
3, 23355, Note_on_c, 1, 32, 71
3, 23370, Note_on_c, 1, 32, 0
3, 23397, Note_on_c, 1, 32, 77
3, 23502, Note_on_c, 1, 32, 0
3, 23515, Note_on_c, 1, 31, 57
3, 23630, Note_on_c, 1, 31, 0
3, 23632, Note_on_c, 1, 33, 64
3, 23746, Note_on_c, 1, 33, 0
3, 23752, Note_on_c, 1, 34, 57
3, 23856, Note_on_c, 1, 34, 0
3, 23870, Note_on_c, 1, 35, 60
3, 23955, Note_on_c, 1, 34, 36
3, 23956, Note_on_c, 1, 35, 0
3, 23987, Note_on_c, 1, 34, 0
3, 23990, Note_on_c, 1, 36, 50
3, 24085, Note_on_c, 1, 34, 19
3, 24100, Note_on_c, 1, 36, 0
3, 24112, Note_on_c, 1, 38, 58
3, 24120, Note_on_c, 1, 34, 0
3, 24201, Note_on_c, 1, 36, 53
3, 24212, Note_on_c, 1, 36, 0
3, 24227, Note_on_c, 1, 38, 0
3, 24236, Note_on_c, 1, 40, 40
3, 24320, Note_on_c, 1, 36, 50
3, 24325, Note_on_c, 1, 40, 0
3, 24330, Note_on_c, 1, 36, 0
3, 24351, Note_on_c, 1, 44, 53
3, 24437, Note_on_c, 1, 38, 24
3, 24449, Note_on_c, 1, 38, 0
3, 24455, Note_on_c, 1, 44, 0
3, 24465, Note_on_c, 1, 43, 41
3, 24555, Note_on_c, 1, 43, 0
3, 24555, Note_on_c, 1, 38, 46
3, 24572, Note_on_c, 1, 38, 0
3, 24586, Note_on_c, 1, 55, 81
3, 24670, Note_on_c, 1, 38, 45
3, 24680, Note_on_c, 1, 38, 0
3, 24705, Note_on_c, 1, 55, 0
3, 24715, Note_on_c, 1, 43, 35
3, 24792, Note_on_c, 1, 38, 52
3, 24810, Note_on_c, 1, 38, 0
3, 24816, Note_on_c, 1, 43, 0
3, 24826, Note_on_c, 1, 55, 74
3, 24941, Note_on_c, 1, 55, 0
3, 24945, Note_on_c, 1, 43, 49
3, 25036, Note_on_c, 1, 38, 44
3, 25046, Note_on_c, 1, 38, 0
3, 25055, Note_on_c, 1, 43, 0
3, 25070, Note_on_c, 1, 55, 77
3, 25185, Note_on_c, 1, 55, 0
3, 25190, Note_on_c, 1, 43, 51
3, 25270, Note_on_c, 1, 43, 0
3, 25275, Note_on_c, 1, 38, 49
3, 25285, Note_on_c, 1, 38, 0
3, 25306, Note_on_c, 1, 31, 66
3, 25390, Note_on_c, 1, 38, 34
3, 25405, Note_on_c, 1, 38, 0
3, 25426, Note_on_c, 1, 43, 45
3, 25487, Note_on_c, 1, 43, 0
3, 25506, Note_on_c, 1, 31, 0
3, 25515, Note_on_c, 1, 34, 77
3, 25792, Note_on_c, 1, 34, 0
3, 25795, Note_on_c, 1, 35, 46
3, 25880, Note_on_c, 1, 34, 26
3, 25906, Note_on_c, 1, 34, 0
3, 25906, Note_on_c, 1, 35, 0
3, 25910, Note_on_c, 1, 36, 50
3, 26001, Note_on_c, 1, 34, 25
3, 26016, Note_on_c, 1, 36, 0
3, 26027, Note_on_c, 1, 44, 48
3, 26047, Note_on_c, 1, 34, 0
3, 26147, Note_on_c, 1, 44, 0
3, 26151, Note_on_c, 1, 43, 39
3, 26247, Note_on_c, 1, 38, 33
3, 26257, Note_on_c, 1, 38, 0
3, 26261, Note_on_c, 1, 43, 0
3, 26267, Note_on_c, 1, 41, 49
3, 26366, Note_on_c, 1, 36, 27
3, 26377, Note_on_c, 1, 36, 0
3, 26380, Note_on_c, 1, 41, 0
3, 26392, Note_on_c, 1, 40, 52
3, 26492, Note_on_c, 1, 40, 0
3, 26515, Note_on_c, 1, 38, 50
3, 26620, Note_on_c, 1, 38, 0
3, 26635, Note_on_c, 1, 37, 37
3, 26742, Note_on_c, 1, 37, 0
3, 26759, Note_on_c, 1, 37, 63
3, 26877, Note_on_c, 1, 37, 0
3, 26885, Note_on_c, 1, 38, 53
3, 26975, Note_on_c, 1, 37, 39
3, 26990, Note_on_c, 1, 38, 0
3, 27006, Note_on_c, 1, 40, 53
3, 27010, Note_on_c, 1, 37, 0
3, 27095, Note_on_c, 1, 37, 33
3, 27105, Note_on_c, 1, 37, 0
3, 27120, Note_on_c, 1, 41, 48
3, 27155, Note_on_c, 1, 40, 0
3, 27220, Note_on_c, 1, 38, 35
3, 27221, Note_on_c, 1, 41, 0
3, 27230, Note_on_c, 1, 38, 0
3, 27237, Note_on_c, 1, 44, 54
3, 27350, Note_on_c, 1, 44, 0
3, 27357, Note_on_c, 1, 43, 47
3, 27440, Note_on_c, 1, 38, 60
3, 27455, Note_on_c, 1, 43, 0
3, 27461, Note_on_c, 1, 38, 0
3, 27475, Note_on_c, 1, 31, 61
3, 27565, Note_on_c, 1, 38, 50
3, 27576, Note_on_c, 1, 38, 0
3, 27600, Note_on_c, 1, 47, 60
3, 27690, Note_on_c, 1, 38, 42
3, 27695, Note_on_c, 1, 31, 0
3, 27697, Note_on_c, 1, 47, 0
3, 27702, Note_on_c, 1, 38, 0
3, 27715, Note_on_c, 1, 46, 51
3, 27799, Note_on_c, 1, 38, 42
3, 27810, Note_on_c, 1, 38, 0
3, 27811, Note_on_c, 1, 46, 0
3, 27831, Note_on_c, 1, 45, 61
3, 27935, Note_on_c, 1, 45, 0
3, 27952, Note_on_c, 1, 45, 62
3, 28055, Note_on_c, 1, 45, 0
3, 28082, Note_on_c, 1, 44, 47
3, 28177, Note_on_c, 1, 44, 0
3, 28200, Note_on_c, 1, 44, 50
3, 28310, Note_on_c, 1, 44, 0
3, 28321, Note_on_c, 1, 43, 44
3, 28440, Note_on_c, 1, 36, 59
3, 28526, Note_on_c, 1, 43, 0
3, 28529, Note_on_c, 1, 34, 35
3, 28531, Note_on_c, 1, 36, 0
3, 28547, Note_on_c, 1, 34, 0
3, 28565, Note_on_c, 1, 42, 49
3, 28655, Note_on_c, 1, 36, 37
3, 28660, Note_on_c, 1, 42, 0
3, 28667, Note_on_c, 1, 36, 0
3, 28685, Note_on_c, 1, 42, 50
3, 28780, Note_on_c, 1, 36, 51
3, 28787, Note_on_c, 1, 36, 0
3, 28787, Note_on_c, 1, 42, 0
3, 28795, Note_on_c, 1, 43, 46
3, 28907, Note_on_c, 1, 43, 0
3, 28910, Note_on_c, 1, 38, 52
3, 29015, Note_on_c, 1, 38, 0
3, 29015, Note_on_c, 1, 34, 34
3, 29036, Note_on_c, 1, 34, 0
3, 29040, Note_on_c, 1, 36, 62
3, 29129, Note_on_c, 1, 34, 28
3, 29145, Note_on_c, 1, 36, 0
3, 29155, Note_on_c, 1, 42, 59
3, 29160, Note_on_c, 1, 34, 0
3, 29245, Note_on_c, 1, 36, 54
3, 29255, Note_on_c, 1, 36, 0
3, 29265, Note_on_c, 1, 42, 0
3, 29275, Note_on_c, 1, 41, 53
3, 29372, Note_on_c, 1, 41, 0
3, 29391, Note_on_c, 1, 36, 62
3, 29505, Note_on_c, 1, 36, 0
3, 29510, Note_on_c, 1, 34, 55
3, 29606, Note_on_c, 1, 34, 0
3, 29630, Note_on_c, 1, 35, 54
3, 29740, Note_on_c, 1, 35, 0
3, 29750, Note_on_c, 1, 36, 46
3, 29841, Note_on_c, 1, 34, 31
3, 29856, Note_on_c, 1, 36, 0
3, 29870, Note_on_c, 1, 34, 0
3, 29870, Note_on_c, 1, 46, 67
3, 29975, Note_on_c, 1, 46, 0
3, 29991, Note_on_c, 1, 45, 44
3, 30095, Note_on_c, 1, 45, 0
3, 30106, Note_on_c, 1, 37, 49
3, 30221, Note_on_c, 1, 37, 0
3, 30225, Note_on_c, 1, 38, 55
3, 30310, Note_on_c, 1, 37, 44
3, 30327, Note_on_c, 1, 38, 0
3, 30345, Note_on_c, 1, 37, 0
3, 30345, Note_on_c, 1, 44, 71
3, 30455, Note_on_c, 1, 44, 0
3, 30465, Note_on_c, 1, 43, 52
3, 30570, Note_on_c, 1, 43, 0
3, 30580, Note_on_c, 1, 37, 55
3, 30675, Note_on_c, 1, 34, 26
3, 30686, Note_on_c, 1, 37, 0
3, 30700, Note_on_c, 1, 34, 0
3, 30706, Note_on_c, 1, 36, 57
3, 30812, Note_on_c, 1, 36, 0
3, 30825, Note_on_c, 1, 32, 62
3, 30946, Note_on_c, 1, 32, 0
3, 30950, Note_on_c, 1, 31, 60
3, 31035, Note_on_c, 1, 32, 49
3, 31041, Note_on_c, 1, 31, 0
3, 31051, Note_on_c, 1, 32, 0
3, 31066, Note_on_c, 1, 44, 57
3, 31181, Note_on_c, 1, 44, 0
3, 31186, Note_on_c, 1, 43, 54
3, 31297, Note_on_c, 1, 43, 0
3, 31305, Note_on_c, 1, 32, 70
3, 31422, Note_on_c, 1, 32, 0
3, 31425, Note_on_c, 1, 31, 59
3, 31487, Note_on_c, 1, 31, 0
3, 31515, Note_on_c, 1, 31, 53
3, 31541, Note_on_c, 1, 31, 0
3, 31541, Note_on_c, 1, 44, 67
3, 31656, Note_on_c, 1, 44, 0
3, 31661, Note_on_c, 1, 43, 57
3, 31755, Note_on_c, 1, 36, 55
3, 31762, Note_on_c, 1, 43, 0
3, 31766, Note_on_c, 1, 36, 0
3, 31786, Note_on_c, 1, 31, 57
3, 31902, Note_on_c, 1, 31, 0
3, 31910, Note_on_c, 1, 33, 63
3, 32030, Note_on_c, 1, 39, 67
3, 32031, Note_on_c, 1, 33, 0
3, 32151, Note_on_c, 1, 38, 55
3, 32155, Note_on_c, 1, 39, 0
3, 32280, Note_on_c, 1, 38, 0
3, 32280, Note_on_c, 1, 45, 85
3, 32395, Note_on_c, 1, 45, 0
3, 32400, Note_on_c, 1, 43, 49
3, 32490, Note_on_c, 1, 38, 33
3, 32501, Note_on_c, 1, 38, 0
3, 32502, Note_on_c, 1, 43, 0
3, 32511, Note_on_c, 1, 41, 61
3, 32626, Note_on_c, 1, 41, 0
3, 32627, Note_on_c, 1, 40, 54
3, 32731, Note_on_c, 1, 40, 0
3, 32747, Note_on_c, 1, 40, 57
3, 32862, Note_on_c, 1, 40, 0
3, 32872, Note_on_c, 1, 36, 55
3, 32985, Note_on_c, 1, 36, 0
3, 32990, Note_on_c, 1, 32, 58
3, 33107, Note_on_c, 1, 32, 0
3, 33110, Note_on_c, 1, 31, 61
3, 33215, Note_on_c, 1, 31, 0
3, 33231, Note_on_c, 1, 31, 64
3, 33347, Note_on_c, 1, 31, 0
3, 33350, Note_on_c, 1, 33, 66
3, 33401, Note_on_c, 1, 33, 0
3, 33437, Note_on_c, 1, 34, 64
3, 33460, Note_on_c, 1, 34, 0
3, 33471, Note_on_c, 1, 35, 71
3, 33581, Note_on_c, 1, 35, 0
3, 33591, Note_on_c, 1, 36, 61
3, 33681, Note_on_c, 1, 34, 30
3, 33700, Note_on_c, 1, 36, 0
3, 33710, Note_on_c, 1, 34, 0
3, 33715, Note_on_c, 1, 45, 58
3, 33815, Note_on_c, 1, 45, 0
3, 33827, Note_on_c, 1, 43, 45
3, 33922, Note_on_c, 1, 37, 25
3, 33931, Note_on_c, 1, 37, 0
3, 33935, Note_on_c, 1, 43, 0
3, 33950, Note_on_c, 1, 52, 57
3, 34065, Note_on_c, 1, 52, 0
3, 34070, Note_on_c, 1, 48, 50
3, 34180, Note_on_c, 1, 48, 0
3, 34190, Note_on_c, 1, 43, 43
3, 34310, Note_on_c, 1, 43, 0
3, 34311, Note_on_c, 1, 37, 39
3, 34437, Note_on_c, 1, 40, 58
3, 34442, Note_on_c, 1, 37, 0
3, 34545, Note_on_c, 1, 40, 0
3, 34555, Note_on_c, 1, 38, 58
3, 34660, Note_on_c, 1, 38, 0
3, 34670, Note_on_c, 1, 40, 49
3, 34790, Note_on_c, 1, 40, 0
3, 34792, Note_on_c, 1, 41, 58
3, 34886, Note_on_c, 1, 37, 31
3, 34891, Note_on_c, 1, 41, 0
3, 34896, Note_on_c, 1, 37, 0
3, 34912, Note_on_c, 1, 42, 64
3, 34990, Note_on_c, 1, 42, 0
3, 35001, Note_on_c, 1, 43, 73
3, 35065, Note_on_c, 1, 43, 0
3, 35086, Note_on_c, 1, 38, 45
3, 35096, Note_on_c, 1, 38, 0
3, 35117, Note_on_c, 1, 32, 69
3, 35137, Note_on_c, 1, 32, 0
3, 35155, Note_on_c, 1, 31, 73
3, 35260, Note_on_c, 1, 31, 0
3, 35272, Note_on_c, 1, 29, 71
3, 35375, Note_on_c, 1, 29, 0
3, 35392, Note_on_c, 1, 29, 66
3, 35515, Note_on_c, 1, 29, 0
3, 35516, Note_on_c, 1, 28, 56
3, 35606, Note_on_c, 1, 29, 61
3, 35617, Note_on_c, 1, 28, 0
3, 35640, Note_on_c, 1, 29, 0
3, 35640, Note_on_c, 1, 40, 73
3, 35752, Note_on_c, 1, 40, 0
3, 35760, Note_on_c, 1, 39, 69
3, 35870, Note_on_c, 1, 39, 0
3, 35885, Note_on_c, 1, 39, 75
3, 36000, Note_on_c, 1, 39, 0
3, 36000, Note_on_c, 1, 38, 62
3, 36096, Note_on_c, 1, 38, 0
3, 36102, Note_on_c, 1, 37, 28
3, 36112, Note_on_c, 1, 37, 0
3, 36122, Note_on_c, 1, 44, 60
3, 36236, Note_on_c, 1, 44, 0
3, 36241, Note_on_c, 1, 43, 57
3, 36331, Note_on_c, 1, 38, 36
3, 36341, Note_on_c, 1, 38, 0
3, 36350, Note_on_c, 1, 43, 0
3, 36364, Note_on_c, 1, 41, 40
3, 36450, Note_on_c, 1, 38, 45
3, 36460, Note_on_c, 1, 38, 0
3, 36465, Note_on_c, 1, 41, 0
3, 36475, Note_on_c, 1, 40, 53
3, 36582, Note_on_c, 1, 40, 0
3, 36591, Note_on_c, 1, 33, 55
3, 36710, Note_on_c, 1, 33, 0
3, 36715, Note_on_c, 1, 38, 55
3, 36826, Note_on_c, 1, 38, 0
3, 36832, Note_on_c, 1, 32, 56
3, 36951, Note_on_c, 1, 32, 0
3, 36960, Note_on_c, 1, 31, 54
3, 37065, Note_on_c, 1, 31, 0
3, 37076, Note_on_c, 1, 34, 59
3, 37190, Note_on_c, 1, 34, 0
3, 37195, Note_on_c, 1, 35, 62
3, 37280, Note_on_c, 1, 34, 37
3, 37302, Note_on_c, 1, 34, 0
3, 37310, Note_on_c, 1, 39, 86
3, 37311, Note_on_c, 1, 35, 0
3, 37416, Note_on_c, 1, 35, 35
3, 37421, Note_on_c, 1, 39, 0
3, 37427, Note_on_c, 1, 40, 63
3, 37437, Note_on_c, 1, 35, 0
3, 37521, Note_on_c, 1, 35, 36
3, 37534, Note_on_c, 1, 35, 0
3, 37537, Note_on_c, 1, 40, 0
3, 37545, Note_on_c, 1, 47, 71
3, 37652, Note_on_c, 1, 47, 0
3, 37666, Note_on_c, 1, 42, 43
3, 37757, Note_on_c, 1, 37, 37
3, 37764, Note_on_c, 1, 42, 0
3, 37771, Note_on_c, 1, 37, 0
3, 37785, Note_on_c, 1, 46, 59
3, 37889, Note_on_c, 1, 46, 0
3, 37907, Note_on_c, 1, 45, 46
3, 38020, Note_on_c, 1, 45, 0
3, 38030, Note_on_c, 1, 39, 56
3, 38151, Note_on_c, 1, 38, 61
3, 38152, Note_on_c, 1, 39, 0
3, 38236, Note_on_c, 1, 37, 42
3, 38265, Note_on_c, 1, 37, 0
3, 38270, Note_on_c, 1, 38, 0
3, 38275, Note_on_c, 1, 44, 74
3, 38285, Note_on_c, 1, 46, 19
3, 38501, Note_on_c, 1, 46, 0
3, 38515, Note_on_c, 1, 44, 0
3, 38515, Note_on_c, 1, 41, 62
3, 38715, Note_on_c, 1, 30, 39
3, 38725, Note_on_c, 1, 41, 0
3, 38742, Note_on_c, 1, 30, 0
3, 38745, Note_on_c, 1, 32, 50
3, 38866, Note_on_c, 1, 32, 0
3, 38875, Note_on_c, 1, 31, 62
3, 39112, Note_on_c, 1, 33, 71
3, 39119, Note_on_c, 1, 31, 0
3, 39135, Note_on_c, 1, 33, 0
3, 39197, Note_on_c, 1, 34, 59
3, 39225, Note_on_c, 1, 34, 0
3, 39235, Note_on_c, 1, 35, 58
3, 39350, Note_on_c, 1, 35, 0
3, 39360, Note_on_c, 1, 36, 62
3, 39455, Note_on_c, 1, 34, 31
3, 39471, Note_on_c, 1, 36, 0
3, 39475, Note_on_c, 1, 46, 60
3, 39497, Note_on_c, 1, 34, 0
3, 39580, Note_on_c, 1, 46, 0
3, 39595, Note_on_c, 1, 45, 48
3, 39700, Note_on_c, 1, 45, 0
3, 39710, Note_on_c, 1, 39, 52
3, 39825, Note_on_c, 1, 39, 0
3, 39826, Note_on_c, 1, 38, 57
3, 39927, Note_on_c, 1, 37, 28
3, 39936, Note_on_c, 1, 38, 0
3, 39951, Note_on_c, 1, 44, 59
3, 39952, Note_on_c, 1, 37, 0
3, 40065, Note_on_c, 1, 44, 0
3, 40070, Note_on_c, 1, 43, 57
3, 40157, Note_on_c, 1, 38, 33
3, 40170, Note_on_c, 1, 38, 0
3, 40170, Note_on_c, 1, 43, 0
3, 40195, Note_on_c, 1, 35, 59
3, 40310, Note_on_c, 1, 35, 0
3, 40320, Note_on_c, 1, 36, 59
3, 40380, Note_on_c, 1, 36, 0
3, 40401, Note_on_c, 1, 36, 49
3, 40420, Note_on_c, 1, 36, 0
3, 40436, Note_on_c, 1, 38, 51
3, 40547, Note_on_c, 1, 38, 0
3, 40551, Note_on_c, 1, 40, 45
3, 40611, Note_on_c, 1, 40, 0
3, 40635, Note_on_c, 1, 40, 43
3, 40662, Note_on_c, 1, 40, 0
3, 40675, Note_on_c, 1, 41, 53
3, 40767, Note_on_c, 1, 36, 25
3, 40776, Note_on_c, 1, 36, 0
3, 40777, Note_on_c, 1, 41, 0
3, 40792, Note_on_c, 1, 43, 53
3, 40856, Note_on_c, 1, 43, 0
3, 40875, Note_on_c, 1, 43, 58
3, 40893, Note_on_c, 1, 43, 0
3, 40915, Note_on_c, 1, 31, 64
3, 41008, Note_on_c, 1, 38, 47
3, 41027, Note_on_c, 1, 38, 0
3, 41035, Note_on_c, 1, 31, 0
3, 41040, Note_on_c, 1, 43, 52
3, 41101, Note_on_c, 1, 43, 0
3, 41117, Note_on_c, 1, 43, 69
3, 41135, Note_on_c, 1, 43, 0
3, 41156, Note_on_c, 1, 31, 69
3, 41255, Note_on_c, 1, 38, 25
3, 41266, Note_on_c, 1, 38, 0
3, 41276, Note_on_c, 1, 31, 0
3, 41276, Note_on_c, 1, 43, 53
3, 41341, Note_on_c, 1, 43, 0
3, 41360, Note_on_c, 1, 43, 53
3, 41376, Note_on_c, 1, 43, 0
3, 41402, Note_on_c, 1, 31, 71
3, 41520, Note_on_c, 1, 31, 0
3, 41520, Note_on_c, 1, 43, 58
3, 41582, Note_on_c, 1, 43, 0
3, 41602, Note_on_c, 1, 43, 51
3, 41622, Note_on_c, 1, 43, 0
3, 41641, Note_on_c, 1, 31, 64
3, 41760, Note_on_c, 1, 43, 58
3, 41767, Note_on_c, 1, 31, 0
3, 41825, Note_on_c, 1, 43, 0
3, 41845, Note_on_c, 1, 43, 49
3, 41866, Note_on_c, 1, 43, 0
3, 41877, Note_on_c, 1, 31, 67
3, 41995, Note_on_c, 1, 43, 70
3, 42002, Note_on_c, 1, 31, 0
3, 42042, Note_on_c, 1, 43, 0
3, 42080, Note_on_c, 1, 43, 66
3, 42090, Note_on_c, 1, 43, 0
3, 42115, Note_on_c, 1, 37, 69
3, 42225, Note_on_c, 1, 37, 0
3, 42236, Note_on_c, 1, 38, 58
3, 42290, Note_on_c, 1, 38, 0
3, 42315, Note_on_c, 1, 38, 51
3, 42325, Note_on_c, 1, 38, 0
3, 42347, Note_on_c, 1, 40, 53
3, 42456, Note_on_c, 1, 40, 0
3, 42466, Note_on_c, 1, 41, 57
3, 42560, Note_on_c, 1, 38, 43
3, 42569, Note_on_c, 1, 38, 0
3, 42570, Note_on_c, 1, 41, 0
3, 42591, Note_on_c, 1, 44, 73
3, 42711, Note_on_c, 1, 44, 0
3, 42715, Note_on_c, 1, 43, 58
3, 42801, Note_on_c, 1, 38, 32
3, 42812, Note_on_c, 1, 38, 0
3, 42822, Note_on_c, 1, 43, 0
3, 42832, Note_on_c, 1, 49, 74
3, 43047, Note_on_c, 1, 37, 23
3, 43057, Note_on_c, 1, 37, 0
3, 43070, Note_on_c, 1, 49, 0
3, 43075, Note_on_c, 1, 44, 30
3, 43085, Note_on_c, 1, 44, 0
3, 43145, Note_on_c, 1, 39, 45
3, 43164, Note_on_c, 1, 39, 0
3, 43192, Note_on_c, 1, 45, 62
3, 43305, Note_on_c, 1, 45, 0
3, 43315, Note_on_c, 1, 40, 44
3, 43412, Note_on_c, 1, 40, 0
3, 43432, Note_on_c, 1, 40, 54
3, 43532, Note_on_c, 1, 40, 0
3, 43555, Note_on_c, 1, 36, 68
3, 43644, Note_on_c, 1, 32, 39
3, 43645, Note_on_c, 1, 36, 0
3, 43665, Note_on_c, 1, 32, 0
3, 43675, Note_on_c, 1, 33, 44
3, 43777, Note_on_c, 1, 33, 0
3, 43782, Note_on_c, 1, 32, 25
3, 43792, Note_on_c, 1, 32, 0
3, 43797, Note_on_c, 1, 33, 63
3, 43887, Note_on_c, 1, 32, 35
3, 43906, Note_on_c, 1, 33, 0
3, 43921, Note_on_c, 1, 45, 80
3, 43925, Note_on_c, 1, 32, 0
3, 44000, Note_on_c, 1, 45, 0
3, 44001, Note_on_c, 1, 32, 42
3, 44021, Note_on_c, 1, 32, 0
3, 44035, Note_on_c, 1, 44, 62
3, 44145, Note_on_c, 1, 44, 0
3, 44155, Note_on_c, 1, 43, 50
3, 44226, Note_on_c, 1, 43, 0
3, 44235, Note_on_c, 1, 38, 57
3, 44256, Note_on_c, 1, 38, 0
3, 44271, Note_on_c, 1, 35, 63
3, 44385, Note_on_c, 1, 35, 0
3, 44390, Note_on_c, 1, 36, 64
3, 44476, Note_on_c, 1, 35, 36
3, 44486, Note_on_c, 1, 36, 0
3, 44495, Note_on_c, 1, 35, 0
3, 44505, Note_on_c, 1, 38, 53
3, 44565, Note_on_c, 1, 38, 0
3, 44592, Note_on_c, 1, 40, 54
3, 44610, Note_on_c, 1, 40, 0
3, 44630, Note_on_c, 1, 41, 44
3, 44730, Note_on_c, 1, 41, 0
3, 44750, Note_on_c, 1, 36, 56
3, 44855, Note_on_c, 1, 36, 0
3, 44866, Note_on_c, 1, 32, 45
3, 44980, Note_on_c, 1, 32, 0
3, 44987, Note_on_c, 1, 34, 50
3, 45107, Note_on_c, 1, 34, 0
3, 45115, Note_on_c, 1, 36, 35
3, 45197, Note_on_c, 1, 34, 34
3, 45217, Note_on_c, 1, 36, 0
3, 45221, Note_on_c, 1, 34, 0
3, 45227, Note_on_c, 1, 43, 56
3, 45431, Note_on_c, 1, 38, 36
3, 45449, Note_on_c, 1, 38, 0
3, 45470, Note_on_c, 1, 43, 0
3, 45471, Note_on_c, 1, 31, 56
3, 45680, Note_on_c, 1, 38, 51
3, 45690, Note_on_c, 1, 38, 0
3, 45697, Note_on_c, 1, 31, 0
3, 45711, Note_on_c, 1, 43, 49
3, 45905, Note_on_c, 1, 43, 0
3, 45906, Note_on_c, 1, 42, 45
3, 45915, Note_on_c, 1, 38, 26
3, 45925, Note_on_c, 1, 38, 0
3, 45925, Note_on_c, 1, 42, 0
3, 45945, Note_on_c, 1, 43, 39
3, 46146, Note_on_c, 1, 43, 0
3, 46150, Note_on_c, 1, 42, 48
3, 46170, Note_on_c, 1, 42, 0
3, 46185, Note_on_c, 1, 43, 62
3, 46385, Note_on_c, 1, 43, 0
3, 46391, Note_on_c, 1, 42, 52
3, 46412, Note_on_c, 1, 42, 0
3, 46430, Note_on_c, 1, 43, 67
3, 46636, Note_on_c, 1, 43, 0
3, 46644, Note_on_c, 1, 42, 48
3, 46660, Note_on_c, 1, 42, 0
3, 46675, Note_on_c, 1, 43, 74
3, 46862, Note_on_c, 1, 43, 0
3, 46870, Note_on_c, 1, 42, 62
3, 46887, Note_on_c, 1, 42, 0
3, 46910, Note_on_c, 1, 43, 57
3, 46917, Note_on_c, 1, 43, 0
3, 46945, Note_on_c, 1, 34, 50
3, 46972, Note_on_c, 1, 34, 0
3, 46985, Note_on_c, 1, 35, 64
3, 47010, Note_on_c, 1, 35, 0
3, 47022, Note_on_c, 1, 36, 59
3, 47112, Note_on_c, 1, 34, 32
3, 47127, Note_on_c, 1, 36, 0
3, 47137, Note_on_c, 1, 34, 0
3, 47141, Note_on_c, 1, 38, 57
3, 47236, Note_on_c, 1, 34, 23
3, 47244, Note_on_c, 1, 34, 0
3, 47255, Note_on_c, 1, 38, 0
3, 47270, Note_on_c, 1, 40, 50
3, 47396, Note_on_c, 1, 39, 50
3, 47402, Note_on_c, 1, 40, 0
3, 47515, Note_on_c, 1, 39, 0
3, 47516, Note_on_c, 1, 38, 50
3, 47605, Note_on_c, 1, 37, 27
3, 47620, Note_on_c, 1, 38, 0
3, 47635, Note_on_c, 1, 45, 72
3, 47656, Note_on_c, 1, 37, 0
3, 47750, Note_on_c, 1, 45, 0
3, 47756, Note_on_c, 1, 43, 50
3, 47842, Note_on_c, 1, 38, 34
3, 47854, Note_on_c, 1, 38, 0
3, 47855, Note_on_c, 1, 43, 0
3, 47870, Note_on_c, 1, 41, 52
3, 47980, Note_on_c, 1, 41, 0
3, 47992, Note_on_c, 1, 40, 51
3, 48100, Note_on_c, 1, 40, 0
3, 48115, Note_on_c, 1, 40, 54
3, 48230, Note_on_c, 1, 40, 0
3, 48230, Note_on_c, 1, 36, 57
3, 48337, Note_on_c, 1, 36, 0
3, 48347, Note_on_c, 1, 32, 83
3, 48466, Note_on_c, 1, 32, 0
3, 48470, Note_on_c, 1, 31, 56
3, 48575, Note_on_c, 1, 31, 0
3, 48590, Note_on_c, 1, 33, 69
3, 48705, Note_on_c, 1, 33, 0
3, 48711, Note_on_c, 1, 34, 60
3, 48817, Note_on_c, 1, 34, 0
3, 48830, Note_on_c, 1, 35, 65
3, 48951, Note_on_c, 1, 36, 61
3, 48956, Note_on_c, 1, 35, 0
3, 49012, Note_on_c, 1, 36, 0
3, 49035, Note_on_c, 1, 36, 45
3, 49060, Note_on_c, 1, 36, 0
3, 49075, Note_on_c, 1, 45, 48
3, 49175, Note_on_c, 1, 45, 0
3, 49190, Note_on_c, 1, 43, 31
3, 49300, Note_on_c, 1, 43, 0
3, 49310, Note_on_c, 1, 50, 63
3, 49415, Note_on_c, 1, 50, 0
3, 49431, Note_on_c, 1, 48, 56
3, 49550, Note_on_c, 1, 48, 0
3, 49555, Note_on_c, 1, 43, 51
3, 49670, Note_on_c, 1, 40, 53
3, 49675, Note_on_c, 1, 43, 0
3, 49795, Note_on_c, 1, 37, 70
3, 49835, Note_on_c, 1, 40, 0
3, 49915, Note_on_c, 1, 37, 0
3, 49920, Note_on_c, 1, 38, 66
3, 50036, Note_on_c, 1, 40, 73
3, 50045, Note_on_c, 1, 38, 0
3, 50141, Note_on_c, 1, 40, 0
3, 50152, Note_on_c, 1, 41, 64
3, 50244, Note_on_c, 1, 38, 37
3, 50252, Note_on_c, 1, 38, 0
3, 50260, Note_on_c, 1, 41, 0
3, 50272, Note_on_c, 1, 42, 65
3, 50386, Note_on_c, 1, 42, 0
3, 50392, Note_on_c, 1, 43, 53
3, 50515, Note_on_c, 1, 38, 60
3, 50520, Note_on_c, 1, 43, 0
3, 50604, Note_on_c, 1, 37, 25
3, 50636, Note_on_c, 1, 50, 62
3, 50645, Note_on_c, 1, 38, 0
3, 50652, Note_on_c, 1, 37, 0
3, 50730, Note_on_c, 1, 50, 0
3, 50751, Note_on_c, 1, 39, 56
3, 50870, Note_on_c, 1, 39, 0
3, 50876, Note_on_c, 1, 40, 50
3, 50965, Note_on_c, 1, 39, 33
3, 50990, Note_on_c, 1, 39, 0
3, 50997, Note_on_c, 1, 40, 0
3, 51000, Note_on_c, 1, 48, 60
3, 51091, Note_on_c, 1, 39, 39
3, 51095, Note_on_c, 1, 48, 0
3, 51115, Note_on_c, 1, 39, 0
3, 51125, Note_on_c, 1, 51, 64
3, 51232, Note_on_c, 1, 51, 0
3, 51242, Note_on_c, 1, 49, 31
3, 51350, Note_on_c, 1, 49, 0
3, 51361, Note_on_c, 1, 50, 55
3, 51430, Note_on_c, 1, 50, 0
3, 51450, Note_on_c, 1, 48, 47
3, 51465, Note_on_c, 1, 48, 0
3, 51485, Note_on_c, 1, 45, 36
3, 51587, Note_on_c, 1, 45, 0
3, 51600, Note_on_c, 1, 42, 52
3, 51700, Note_on_c, 1, 42, 0
3, 51721, Note_on_c, 1, 43, 31
3, 51799, Note_on_c, 1, 42, 37
3, 51801, Note_on_c, 1, 43, 0
3, 51810, Note_on_c, 1, 42, 0
3, 51836, Note_on_c, 1, 45, 58
3, 51937, Note_on_c, 1, 45, 0
3, 51956, Note_on_c, 1, 52, 57
3, 52057, Note_on_c, 1, 52, 0
3, 52080, Note_on_c, 1, 50, 41
3, 52186, Note_on_c, 1, 50, 0
3, 52200, Note_on_c, 1, 38, 55
3, 52311, Note_on_c, 1, 38, 0
3, 52320, Note_on_c, 1, 43, 43
3, 52405, Note_on_c, 1, 38, 37
3, 52416, Note_on_c, 1, 38, 0
3, 52491, Note_on_c, 1, 45, 60
3, 52495, Note_on_c, 1, 43, 0
3, 52502, Note_on_c, 1, 45, 0
3, 52525, Note_on_c, 1, 46, 59
3, 52545, Note_on_c, 1, 46, 0
3, 52560, Note_on_c, 1, 47, 48
3, 52660, Note_on_c, 1, 47, 0
3, 52672, Note_on_c, 1, 59, 52
3, 52700, Note_on_c, 1, 59, 0
3, 52720, Note_on_c, 1, 51, 40
3, 52735, Note_on_c, 1, 51, 0
3, 52752, Note_on_c, 1, 55, 67
3, 52821, Note_on_c, 1, 55, 0
3, 52841, Note_on_c, 1, 52, 62
3, 52855, Note_on_c, 1, 52, 0
3, 52890, Note_on_c, 1, 43, 38
3, 52900, Note_on_c, 1, 43, 0
3, 52926, Note_on_c, 1, 47, 37
3, 52926, Note_on_c, 1, 45, 36
3, 52937, Note_on_c, 1, 45, 0
3, 53030, Note_on_c, 1, 47, 0
3, 53031, Note_on_c, 1, 45, 54
3, 53140, Note_on_c, 1, 45, 0
3, 53160, Note_on_c, 1, 43, 43
3, 53217, Note_on_c, 1, 43, 0
3, 53241, Note_on_c, 1, 44, 51
3, 53270, Note_on_c, 1, 44, 0
3, 53276, Note_on_c, 1, 45, 44
3, 53295, Note_on_c, 1, 45, 0
3, 53359, Note_on_c, 1, 40, 55
3, 53371, Note_on_c, 1, 40, 0
3, 53396, Note_on_c, 1, 36, 57
3, 53497, Note_on_c, 1, 36, 0
3, 53515, Note_on_c, 1, 40, 49
3, 53630, Note_on_c, 1, 40, 0
3, 53641, Note_on_c, 1, 38, 51
3, 53696, Note_on_c, 1, 38, 0
3, 53717, Note_on_c, 1, 38, 35
3, 53730, Note_on_c, 1, 38, 0
3, 53757, Note_on_c, 1, 38, 71
3, 53942, Note_on_c, 1, 38, 0
3, 53962, Note_on_c, 1, 38, 51
3, 53985, Note_on_c, 1, 38, 0
3, 53991, Note_on_c, 1, 45, 82
3, 54079, Note_on_c, 1, 38, 36
3, 54081, Note_on_c, 1, 45, 0
3, 54090, Note_on_c, 1, 38, 0
3, 54115, Note_on_c, 1, 44, 60
3, 54190, Note_on_c, 1, 44, 0
3, 54195, Note_on_c, 1, 43, 66
3, 54315, Note_on_c, 1, 38, 64
3, 54319, Note_on_c, 1, 43, 0
3, 54335, Note_on_c, 1, 38, 0
3, 54351, Note_on_c, 1, 35, 71
3, 54546, Note_on_c, 1, 35, 0
3, 54555, Note_on_c, 1, 38, 60
3, 54577, Note_on_c, 1, 38, 0
3, 54595, Note_on_c, 1, 35, 62
3, 54710, Note_on_c, 1, 35, 0
3, 54720, Note_on_c, 1, 36, 66
3, 54955, Note_on_c, 1, 45, 63
3, 54960, Note_on_c, 1, 36, 0
3, 55162, Note_on_c, 1, 37, 32
3, 55182, Note_on_c, 1, 45, 0
3, 55190, Note_on_c, 1, 37, 0
3, 55202, Note_on_c, 1, 38, 42
3, 55285, Note_on_c, 1, 37, 32
3, 55290, Note_on_c, 1, 38, 0
3, 55296, Note_on_c, 1, 37, 0
3, 55311, Note_on_c, 1, 44, 65
3, 55417, Note_on_c, 1, 44, 0
3, 55436, Note_on_c, 1, 43, 44
3, 55632, Note_on_c, 1, 43, 0
3, 55640, Note_on_c, 1, 41, 43
3, 55667, Note_on_c, 1, 41, 0
3, 55680, Note_on_c, 1, 40, 49
3, 55880, Note_on_c, 1, 36, 44
3, 55890, Note_on_c, 1, 36, 0
3, 55906, Note_on_c, 1, 40, 0
3, 55917, Note_on_c, 1, 38, 49
3, 56152, Note_on_c, 1, 38, 0
3, 56156, Note_on_c, 1, 36, 50
3, 56166, Note_on_c, 1, 36, 0
3, 56240, Note_on_c, 1, 31, 76
3, 56466, Note_on_c, 1, 31, 0
3, 56467, Note_on_c, 1, 43, 74
3, 56482, Note_on_c, 1, 43, 0
3, 56506, Note_on_c, 1, 35, 58
3, 56617, Note_on_c, 1, 35, 0
3, 56632, Note_on_c, 1, 36, 57
3, 56842, Note_on_c, 1, 34, 30
3, 56861, Note_on_c, 1, 36, 0
3, 56870, Note_on_c, 1, 34, 0
3, 56870, Note_on_c, 1, 43, 67
3, 57080, Note_on_c, 1, 36, 34
3, 57092, Note_on_c, 1, 36, 0
3, 57100, Note_on_c, 1, 38, 28
3, 57105, Note_on_c, 1, 43, 0
3, 57111, Note_on_c, 1, 38, 0
3, 57115, Note_on_c, 1, 40, 58
3, 57315, Note_on_c, 1, 34, 42
3, 57330, Note_on_c, 1, 40, 0
3, 57350, Note_on_c, 1, 34, 0
3, 57355, Note_on_c, 1, 37, 58
3, 57550, Note_on_c, 1, 34, 35
3, 57571, Note_on_c, 1, 37, 0
3, 57590, Note_on_c, 1, 34, 0
3, 57590, Note_on_c, 1, 38, 56
3, 57866, Note_on_c, 1, 40, 52
3, 57875, Note_on_c, 1, 40, 0
3, 57901, Note_on_c, 1, 41, 64
3, 57916, Note_on_c, 1, 38, 0
3, 57917, Note_on_c, 1, 41, 0
3, 57950, Note_on_c, 1, 42, 65
3, 58011, Note_on_c, 1, 42, 0
3, 58027, Note_on_c, 1, 43, 73
3, 58190, Note_on_c, 1, 43, 0
3, 58191, Note_on_c, 1, 31, 71
3, 58397, Note_on_c, 1, 38, 57
3, 58407, Note_on_c, 1, 38, 0
3, 58410, Note_on_c, 1, 31, 0
3, 58435, Note_on_c, 1, 46, 72
3, 58546, Note_on_c, 1, 46, 0
3, 58556, Note_on_c, 1, 45, 68
3, 58791, Note_on_c, 1, 45, 0
3, 58805, Note_on_c, 1, 44, 69
3, 59010, Note_on_c, 1, 42, 36
3, 59021, Note_on_c, 1, 44, 0
3, 59035, Note_on_c, 1, 42, 0
3, 59040, Note_on_c, 1, 43, 65
3, 59351, Note_on_c, 1, 43, 0
3, 59359, Note_on_c, 1, 45, 68
3, 59372, Note_on_c, 1, 45, 0
3, 59400, Note_on_c, 1, 44, 57
3, 59505, Note_on_c, 1, 44, 0
3, 59520, Note_on_c, 1, 43, 37
3, 59632, Note_on_c, 1, 43, 0
3, 59637, Note_on_c, 1, 38, 57
3, 59742, Note_on_c, 1, 38, 0
3, 59756, Note_on_c, 1, 36, 57
3, 59901, Note_on_c, 1, 39, 56
3, 59927, Note_on_c, 1, 39, 0
3, 59931, Note_on_c, 1, 36, 0
3, 59945, Note_on_c, 1, 40, 47
3, 59957, Note_on_c, 1, 40, 0
3, 59986, Note_on_c, 1, 41, 63
3, 60345, Note_on_c, 1, 41, 0
3, 60352, Note_on_c, 1, 34, 47
3, 60466, Note_on_c, 1, 34, 0
3, 60552, Note_on_c, 1, 43, 59
3, 60684, Note_on_c, 1, 43, 0
3, 60721, Note_on_c, 1, 43, 60
3, 60877, Note_on_c, 1, 43, 0
3, 60915, Note_on_c, 1, 43, 64
3, 61067, Note_on_c, 1, 43, 0
3, 61082, Note_on_c, 1, 31, 45
3, 61142, Note_on_c, 1, 31, 0
3, 61160, Note_on_c, 1, 31, 71
3, 61190, Note_on_c, 1, 31, 0
3, 61320, Note_on_c, 1, 31, 74
3, 61387, Note_on_c, 1, 31, 0
3, 61551, Note_on_c, 1, 43, 55
3, 61592, Note_on_c, 1, 43, 0
3, 61675, Note_on_c, 1, 43, 54
3, 61841, Note_on_c, 1, 43, 0
3, 61915, Note_on_c, 1, 43, 66
3, 61997, Note_on_c, 1, 43, 0
3, 62000, Note_on_c, 1, 31, 53
3, 62027, Note_on_c, 1, 31, 0
3, 62117, Note_on_c, 1, 31, 55
3, 62145, Note_on_c, 1, 31, 0
3, 62236, Note_on_c, 1, 31, 66
3, 62461, Note_on_c, 1, 31, 0
3, 62470, Note_on_c, 1, 43, 64
3, 62480, Note_on_c, 1, 43, 0
3, 62640, Note_on_c, 1, 43, 74
3, 62812, Note_on_c, 1, 43, 0
3, 62876, Note_on_c, 1, 43, 76
3, 63192, Note_on_c, 1, 43, 0
3, 63195, Note_on_c, 1, 34, 45
3, 63220, Note_on_c, 1, 34, 0
3, 63240, Note_on_c, 1, 35, 42
3, 63311, Note_on_c, 1, 35, 0
3, 63316, Note_on_c, 1, 36, 74
3, 64291, Note_on_c, 1, 36, 0
3, 64291, End_track
4, 0, Start_track
4, 0, Title_t, "Flute/Vibes"
4, 0, Control_c, 2, 0, 0
4, 0, Control_c, 2, 10, 64
4, 0, Program_c, 2, 73
4, 793, Note_on_c, 2, 64, 78
4, 806, Note_on_c, 2, 64, 0
4, 833, Note_on_c, 2, 65, 61
4, 840, Note_on_c, 2, 65, 0
4, 917, Note_on_c, 2, 65, 67
4, 931, Note_on_c, 2, 65, 0
4, 960, Note_on_c, 2, 66, 50
4, 967, Note_on_c, 2, 66, 0
4, 976, Note_on_c, 2, 67, 35
4, 1190, Note_on_c, 2, 67, 0
4, 1190, Note_on_c, 2, 70, 64
4, 1207, Note_on_c, 2, 71, 64
4, 1210, Note_on_c, 2, 70, 0
4, 1436, Note_on_c, 2, 71, 0
4, 1436, Note_on_c, 2, 68, 71
4, 1452, Note_on_c, 2, 69, 72
4, 1455, Note_on_c, 2, 68, 0
4, 1465, Note_on_c, 2, 69, 0
4, 1560, Note_on_c, 2, 66, 72
4, 1568, Note_on_c, 2, 67, 67
4, 1580, Note_on_c, 2, 66, 0
4, 1681, Note_on_c, 2, 67, 0
4, 1683, Note_on_c, 2, 63, 49
4, 1700, Note_on_c, 2, 64, 51
4, 1703, Note_on_c, 2, 63, 0
4, 1887, Note_on_c, 2, 64, 0
4, 1890, Note_on_c, 2, 62, 47
4, 1902, Note_on_c, 2, 62, 0
4, 1926, Note_on_c, 2, 62, 36
4, 1941, Note_on_c, 2, 63, 42
4, 1946, Note_on_c, 2, 62, 0
4, 1956, Note_on_c, 2, 63, 0
4, 1961, Note_on_c, 2, 64, 44
4, 2366, Note_on_c, 2, 64, 0
4, 2491, Note_on_c, 2, 66, 74
4, 2491, Note_on_c, 2, 67, 88
4, 2497, Note_on_c, 2, 66, 0
4, 2723, Note_on_c, 2, 67, 0
4, 2723, Note_on_c, 2, 63, 64
4, 2728, Note_on_c, 2, 64, 59
4, 2741, Note_on_c, 2, 63, 0
4, 2767, Note_on_c, 2, 64, 0
4, 2770, Note_on_c, 2, 62, 47
4, 2788, Note_on_c, 2, 62, 0
4, 2847, Note_on_c, 2, 62, 57
4, 2865, Note_on_c, 2, 62, 0
4, 2881, Note_on_c, 2, 62, 55
4, 2898, Note_on_c, 2, 63, 38
4, 2906, Note_on_c, 2, 62, 0
4, 2920, Note_on_c, 2, 63, 0
4, 2927, Note_on_c, 2, 64, 24
4, 2958, Note_on_c, 2, 64, 0
4, 2996, Note_on_c, 2, 67, 71
4, 3196, Note_on_c, 2, 67, 0
4, 3198, Note_on_c, 2, 62, 45
4, 3207, Note_on_c, 2, 64, 65
4, 3212, Note_on_c, 2, 62, 0
4, 3230, Note_on_c, 2, 64, 0
4, 3277, Note_on_c, 2, 62, 52
4, 3320, Note_on_c, 2, 62, 0
4, 3361, Note_on_c, 2, 63, 56
4, 3368, Note_on_c, 2, 63, 0
4, 3371, Note_on_c, 2, 64, 56
4, 3562, Note_on_c, 2, 64, 0
4, 3616, Note_on_c, 2, 72, 76
4, 3646, Pitch_bend_c, 2, 8192
4, 3647, Pitch_bend_c, 2, 8192
4, 3647, Pitch_bend_c, 2, 8192
4, 3650, Pitch_bend_c, 2, 8712
4, 3651, Pitch_bend_c, 2, 8972
4, 3652, Pitch_bend_c, 2, 9362
4, 3653, Pitch_bend_c, 2, 9622
4, 3655, Pitch_bend_c, 2, 9882
4, 3656, Pitch_bend_c, 2, 10142
4, 3658, Pitch_bend_c, 2, 10402
4, 3660, Pitch_bend_c, 2, 10662
4, 3661, Pitch_bend_c, 2, 10922
4, 3662, Pitch_bend_c, 2, 11052
4, 3663, Pitch_bend_c, 2, 11312
4, 3666, Pitch_bend_c, 2, 11442
4, 3673, Pitch_bend_c, 2, 11052
4, 3675, Pitch_bend_c, 2, 10922
4, 3676, Pitch_bend_c, 2, 10792
4, 3677, Pitch_bend_c, 2, 10402
4, 3678, Pitch_bend_c, 2, 10142
4, 3680, Pitch_bend_c, 2, 9882
4, 3682, Pitch_bend_c, 2, 9492
4, 3683, Pitch_bend_c, 2, 8972
4, 3685, Pitch_bend_c, 2, 8192
4, 3792, Note_on_c, 2, 72, 0
4, 3796, Note_on_c, 2, 64, 44
4, 3827, Note_on_c, 2, 64, 0
4, 3867, Note_on_c, 2, 66, 42
4, 3886, Note_on_c, 2, 66, 0
4, 3887, Note_on_c, 2, 67, 61
4, 3916, Note_on_c, 2, 66, 23
4, 3917, Note_on_c, 2, 67, 0
4, 3938, Note_on_c, 2, 66, 0
4, 3942, Note_on_c, 2, 65, 22
4, 3957, Note_on_c, 2, 65, 0
4, 3967, Note_on_c, 2, 64, 26
4, 3975, Note_on_c, 2, 64, 0
4, 4540, Note_on_c, 2, 67, 61
4, 4547, Note_on_c, 2, 67, 0
4, 4578, Note_on_c, 2, 68, 78
4, 4591, Note_on_c, 2, 69, 72
4, 4596, Note_on_c, 2, 68, 0
4, 4611, Note_on_c, 2, 69, 0
4, 4651, Note_on_c, 2, 68, 64
4, 4656, Note_on_c, 2, 69, 76
4, 4665, Note_on_c, 2, 68, 0
4, 4676, Note_on_c, 2, 69, 0
4, 4701, Note_on_c, 2, 70, 62
4, 4712, Note_on_c, 2, 71, 68
4, 4723, Note_on_c, 2, 70, 0
4, 4732, Note_on_c, 2, 71, 0
4, 4762, Note_on_c, 2, 70, 69
4, 4775, Note_on_c, 2, 71, 71
4, 4776, Note_on_c, 2, 70, 0
4, 4793, Note_on_c, 2, 71, 0
4, 4817, Note_on_c, 2, 71, 62
4, 4835, Note_on_c, 2, 72, 68
4, 4842, Note_on_c, 2, 71, 0
4, 5136, Note_on_c, 2, 72, 0
4, 5152, Note_on_c, 2, 71, 32
4, 5162, Note_on_c, 2, 72, 49
4, 5173, Note_on_c, 2, 71, 0
4, 5237, Note_on_c, 2, 72, 0
4, 5250, Note_on_c, 2, 71, 26
4, 5257, Note_on_c, 2, 71, 0
4, 5283, Note_on_c, 2, 71, 50
4, 5293, Note_on_c, 2, 72, 55
4, 5306, Note_on_c, 2, 71, 0
4, 5356, Note_on_c, 2, 72, 0
4, 5366, Note_on_c, 2, 73, 55
4, 5382, Note_on_c, 2, 74, 63
4, 5387, Note_on_c, 2, 73, 0
4, 5628, Note_on_c, 2, 74, 0
4, 5631, Note_on_c, 2, 70, 54
4, 5646, Note_on_c, 2, 71, 63
4, 5650, Note_on_c, 2, 70, 0
4, 5667, Note_on_c, 2, 71, 0
4, 5723, Note_on_c, 2, 68, 55
4, 5731, Note_on_c, 2, 68, 0
4, 5768, Note_on_c, 2, 68, 60
4, 5782, Note_on_c, 2, 69, 66
4, 5788, Note_on_c, 2, 68, 0
4, 5806, Note_on_c, 2, 69, 0
4, 5965, Note_on_c, 2, 68, 49
4, 5971, Note_on_c, 2, 68, 0
4, 6007, Note_on_c, 2, 68, 56
4, 6016, Note_on_c, 2, 69, 69
4, 6023, Note_on_c, 2, 68, 0
4, 6168, Note_on_c, 2, 69, 0
4, 6168, Note_on_c, 2, 66, 46
4, 6188, Note_on_c, 2, 66, 0
4, 6198, Note_on_c, 2, 62, 33
4, 6216, Note_on_c, 2, 62, 0
4, 6243, Note_on_c, 2, 67, 39
4, 6415, Note_on_c, 2, 67, 0
4, 6556, Note_on_c, 2, 59, 61
4, 6566, Note_on_c, 2, 59, 0
4, 6597, Note_on_c, 2, 64, 67
4, 6608, Note_on_c, 2, 64, 0
4, 6635, Note_on_c, 2, 64, 72
4, 6646, Note_on_c, 2, 64, 0
4, 6672, Note_on_c, 2, 66, 75
4, 6687, Note_on_c, 2, 66, 0
4, 6736, Note_on_c, 2, 66, 62
4, 6746, Note_on_c, 2, 67, 58
4, 6752, Note_on_c, 2, 66, 0
4, 6826, Note_on_c, 2, 67, 0
4, 6838, Note_on_c, 2, 66, 38
4, 6902, Note_on_c, 2, 66, 0
4, 6911, Note_on_c, 2, 67, 49
4, 7088, Note_on_c, 2, 67, 0
4, 7136, Note_on_c, 2, 57, 37
4, 7145, Note_on_c, 2, 57, 0
4, 7158, Note_on_c, 2, 60, 49
4, 7170, Note_on_c, 2, 60, 0
4, 7186, Note_on_c, 2, 64, 62
4, 7201, Note_on_c, 2, 64, 0
4, 7212, Note_on_c, 2, 67, 80
4, 7231, Note_on_c, 2, 67, 0
4, 7290, Note_on_c, 2, 69, 85
4, 7318, Note_on_c, 2, 69, 0
4, 7351, Note_on_c, 2, 66, 55
4, 7371, Note_on_c, 2, 66, 0
4, 7655, Note_on_c, 2, 66, 27
4, 7662, Note_on_c, 2, 66, 0
4, 7688, Note_on_c, 2, 69, 76
4, 7712, Note_on_c, 2, 69, 0
4, 8000, Note_on_c, 2, 68, 69
4, 8013, Note_on_c, 2, 68, 0
4, 8037, Note_on_c, 2, 72, 54
4, 8047, Note_on_c, 2, 72, 0
4, 8073, Note_on_c, 2, 75, 76
4, 8097, Note_on_c, 2, 75, 0
4, 8122, Note_on_c, 2, 70, 27
4, 8131, Note_on_c, 2, 70, 0
4, 8157, Note_on_c, 2, 74, 80
4, 8177, Note_on_c, 2, 74, 0
4, 8203, Note_on_c, 2, 72, 28
4, 8216, Note_on_c, 2, 72, 0
4, 8278, Note_on_c, 2, 69, 59
4, 8302, Note_on_c, 2, 69, 0
4, 8357, Note_on_c, 2, 72, 85
4, 8380, Note_on_c, 2, 72, 0
4, 8411, Note_on_c, 2, 70, 48
4, 8417, Note_on_c, 2, 71, 60
4, 8422, Note_on_c, 2, 70, 0
4, 8432, Note_on_c, 2, 71, 0
4, 8480, Note_on_c, 2, 67, 70
4, 8505, Note_on_c, 2, 67, 0
4, 8535, Note_on_c, 2, 65, 71
4, 8552, Note_on_c, 2, 65, 0
4, 8608, Note_on_c, 2, 63, 15
4, 8613, Note_on_c, 2, 64, 26
4, 8621, Note_on_c, 2, 64, 0
4, 8630, Note_on_c, 2, 63, 0
4, 8643, Note_on_c, 2, 64, 51
4, 8663, Note_on_c, 2, 64, 0
4, 8721, Note_on_c, 2, 67, 60
4, 8737, Note_on_c, 2, 67, 0
4, 8771, Note_on_c, 2, 71, 43
4, 8786, Note_on_c, 2, 71, 0
4, 8843, Note_on_c, 2, 71, 64
4, 8865, Note_on_c, 2, 71, 0
4, 8892, Note_on_c, 2, 70, 54
4, 8912, Note_on_c, 2, 71, 40
4, 8915, Note_on_c, 2, 70, 0
4, 9085, Note_on_c, 2, 71, 0
4, 9117, Note_on_c, 2, 68, 64
4, 9123, Note_on_c, 2, 68, 0
4, 9135, Note_on_c, 2, 69, 29
4, 9166, Note_on_c, 2, 69, 0
4, 9240, Note_on_c, 2, 69, 83
4, 9257, Note_on_c, 2, 69, 0
4, 9273, Note_on_c, 2, 71, 37
4, 9291, Note_on_c, 2, 71, 0
4, 9313, Note_on_c, 2, 69, 76
4, 9328, Note_on_c, 2, 69, 0
4, 9378, Note_on_c, 2, 67, 68
4, 9387, Note_on_c, 2, 67, 0
4, 9405, Note_on_c, 2, 69, 57
4, 9420, Note_on_c, 2, 67, 63
4, 9421, Note_on_c, 2, 69, 0
4, 9437, Note_on_c, 2, 67, 0
4, 9523, Note_on_c, 2, 64, 29
4, 9525, Note_on_c, 2, 62, 26
4, 9533, Note_on_c, 2, 65, 68
4, 9536, Note_on_c, 2, 62, 0
4, 9555, Note_on_c, 2, 65, 0
4, 9557, Note_on_c, 2, 64, 0
4, 9645, Note_on_c, 2, 62, 66
4, 9658, Note_on_c, 2, 64, 67
4, 9661, Note_on_c, 2, 62, 0
4, 9682, Note_on_c, 2, 64, 0
4, 9682, Note_on_c, 2, 62, 46
4, 9705, Note_on_c, 2, 62, 0
4, 9708, Note_on_c, 2, 60, 48
4, 9716, Note_on_c, 2, 60, 0
4, 9736, Note_on_c, 2, 62, 57
4, 9777, Note_on_c, 2, 62, 0
4, 9780, Note_on_c, 2, 64, 53
4, 9858, Note_on_c, 2, 64, 0
4, 10148, Note_on_c, 2, 78, 75
4, 10151, Note_on_c, 2, 79, 80
4, 10162, Note_on_c, 2, 78, 0
4, 10177, Note_on_c, 2, 79, 0
4, 10215, Note_on_c, 2, 74, 60
4, 10217, Note_on_c, 2, 76, 35
4, 10233, Note_on_c, 2, 76, 0
4, 10272, Note_on_c, 2, 74, 0
4, 10392, Note_on_c, 2, 78, 80
4, 10395, Note_on_c, 2, 79, 84
4, 10411, Note_on_c, 2, 78, 0
4, 10416, Note_on_c, 2, 79, 0
4, 10442, Note_on_c, 2, 75, 60
4, 10451, Note_on_c, 2, 76, 33
4, 10468, Note_on_c, 2, 75, 0
4, 10497, Note_on_c, 2, 76, 0
4, 10691, Note_on_c, 2, 75, 53
4, 10693, Note_on_c, 2, 76, 80
4, 10705, Note_on_c, 2, 75, 0
4, 10725, Note_on_c, 2, 76, 0
4, 10766, Note_on_c, 2, 79, 82
4, 10787, Note_on_c, 2, 79, 0
4, 10823, Note_on_c, 2, 75, 50
4, 10830, Note_on_c, 2, 76, 72
4, 10840, Note_on_c, 2, 75, 0
4, 10915, Note_on_c, 2, 76, 0
4, 10926, Note_on_c, 2, 74, 57
4, 11030, Note_on_c, 2, 74, 0
4, 11050, Note_on_c, 2, 72, 50
4, 11075, Note_on_c, 2, 72, 0
4, 11128, Note_on_c, 2, 67, 60
4, 11153, Note_on_c, 2, 67, 0
4, 11182, Note_on_c, 2, 64, 30
4, 11251, Note_on_c, 2, 64, 0
4, 11478, Note_on_c, 2, 64, 77
4, 11495, Note_on_c, 2, 64, 0
4, 11565, Note_on_c, 2, 66, 62
4, 11570, Note_on_c, 2, 67, 77
4, 11580, Note_on_c, 2, 66, 0
4, 11623, Note_on_c, 2, 67, 0
4, 11641, Note_on_c, 2, 64, 42
4, 11652, Note_on_c, 2, 64, 0
4, 11712, Note_on_c, 2, 65, 66
4, 11836, Note_on_c, 2, 65, 0
4, 12206, Note_on_c, 2, 60, 36
4, 12215, Note_on_c, 2, 60, 0
4, 12245, Note_on_c, 2, 64, 74
4, 12251, Note_on_c, 2, 64, 0
4, 12316, Note_on_c, 2, 64, 82
4, 12331, Note_on_c, 2, 64, 0
4, 12683, Note_on_c, 2, 69, 53
4, 12691, Note_on_c, 2, 69, 0
4, 12722, Note_on_c, 2, 72, 83
4, 12770, Note_on_c, 2, 72, 0
4, 12847, Note_on_c, 2, 72, 78
4, 12870, Note_on_c, 2, 72, 0
4, 12930, Note_on_c, 2, 69, 79
4, 12938, Note_on_c, 2, 69, 0
4, 12973, Note_on_c, 2, 72, 74
4, 12985, Note_on_c, 2, 72, 0
4, 13042, Note_on_c, 2, 74, 92
4, 13065, Note_on_c, 2, 74, 0
4, 13090, Note_on_c, 2, 72, 70
4, 13306, Note_on_c, 2, 72, 0
4, 13316, Note_on_c, 2, 71, 49
4, 13401, Note_on_c, 2, 71, 0
4, 13411, Note_on_c, 2, 67, 31
4, 13422, Note_on_c, 2, 67, 0
4, 13443, Note_on_c, 2, 70, 51
4, 13520, Note_on_c, 2, 70, 0
4, 13523, Note_on_c, 2, 72, 60
4, 13542, Note_on_c, 2, 72, 0
4, 13560, Note_on_c, 2, 70, 56
4, 13660, Note_on_c, 2, 70, 0
4, 13671, Note_on_c, 2, 68, 47
4, 13685, Note_on_c, 2, 69, 57
4, 13691, Note_on_c, 2, 68, 0
4, 13758, Note_on_c, 2, 69, 0
4, 13763, Note_on_c, 2, 64, 51
4, 13776, Note_on_c, 2, 64, 0
4, 13873, Note_on_c, 2, 67, 80
4, 14011, Note_on_c, 2, 66, 44
4, 14013, Note_on_c, 2, 67, 0
4, 14028, Note_on_c, 2, 66, 0
4, 14028, Note_on_c, 2, 65, 42
4, 14051, Note_on_c, 2, 65, 0
4, 14056, Note_on_c, 2, 64, 37
4, 14121, Note_on_c, 2, 64, 0
4, 14365, Note_on_c, 2, 60, 54
4, 14373, Note_on_c, 2, 60, 0
4, 14398, Note_on_c, 2, 64, 58
4, 14407, Note_on_c, 2, 64, 0
4, 14516, Note_on_c, 2, 67, 53
4, 14543, Note_on_c, 2, 67, 0
4, 14638, Note_on_c, 2, 72, 80
4, 14850, Note_on_c, 2, 72, 0
4, 14883, Note_on_c, 2, 62, 49
4, 14912, Note_on_c, 2, 62, 0
4, 14998, Note_on_c, 2, 69, 62
4, 15027, Note_on_c, 2, 69, 0
4, 15117, Note_on_c, 2, 72, 91
4, 15182, Note_on_c, 2, 72, 0
4, 15237, Note_on_c, 2, 64, 55
4, 15266, Note_on_c, 2, 64, 0
4, 15356, Note_on_c, 2, 67, 74
4, 15385, Note_on_c, 2, 67, 0
4, 15471, Note_on_c, 2, 72, 91
4, 15571, Note_on_c, 2, 72, 0
4, 15597, Note_on_c, 2, 64, 40
4, 15623, Note_on_c, 2, 64, 0
4, 15713, Note_on_c, 2, 67, 71
4, 15738, Note_on_c, 2, 67, 0
4, 15840, Note_on_c, 2, 72, 83
4, 15882, Note_on_c, 2, 72, 0
4, 15961, Note_on_c, 2, 76, 108
4, 15982, Note_on_c, 2, 76, 0
4, 16046, Note_on_c, 2, 77, 115
4, 16066, Note_on_c, 2, 77, 0
4, 16095, Note_on_c, 2, 76, 80
4, 16108, Note_on_c, 2, 76, 0
4, 16123, Note_on_c, 2, 77, 56
4, 16145, Note_on_c, 2, 76, 53
4, 16148, Note_on_c, 2, 77, 0
4, 16165, Note_on_c, 2, 76, 0
4, 16168, Note_on_c, 2, 72, 59
4, 16185, Note_on_c, 2, 72, 0
4, 16198, Note_on_c, 2, 67, 45
4, 16208, Note_on_c, 2, 67, 0
4, 16231, Note_on_c, 2, 65, 60
4, 16291, Note_on_c, 2, 65, 0
4, 16298, Note_on_c, 2, 62, 45
4, 16318, Note_on_c, 2, 62, 0
4, 16336, Note_on_c, 2, 64, 53
4, 16403, Note_on_c, 2, 64, 0
4, 16411, Note_on_c, 2, 67, 66
4, 16428, Note_on_c, 2, 67, 0
4, 16451, Note_on_c, 2, 64, 55
4, 16548, Note_on_c, 2, 64, 0
4, 16573, Note_on_c, 2, 60, 36
4, 16635, Note_on_c, 2, 60, 0
4, 16647, Note_on_c, 2, 60, 53
4, 16661, Note_on_c, 2, 60, 0
4, 16927, Note_on_c, 2, 64, 68
4, 16937, Note_on_c, 2, 64, 0
4, 16958, Note_on_c, 2, 65, 64
4, 16967, Note_on_c, 2, 65, 0
4, 16986, Note_on_c, 2, 69, 64
4, 17001, Note_on_c, 2, 69, 0
4, 17015, Note_on_c, 2, 72, 62
4, 17030, Note_on_c, 2, 72, 0
4, 17048, Note_on_c, 2, 76, 68
4, 17067, Note_on_c, 2, 76, 0
4, 17078, Note_on_c, 2, 77, 71
4, 17095, Note_on_c, 2, 77, 0
4, 17108, Note_on_c, 2, 76, 71
4, 17127, Note_on_c, 2, 76, 0
4, 17137, Note_on_c, 2, 72, 66
4, 17150, Note_on_c, 2, 72, 0
4, 17168, Note_on_c, 2, 69, 50
4, 17177, Note_on_c, 2, 69, 0
4, 17200, Note_on_c, 2, 72, 70
4, 17212, Note_on_c, 2, 72, 0
4, 17228, Note_on_c, 2, 76, 75
4, 17245, Note_on_c, 2, 76, 0
4, 17257, Note_on_c, 2, 77, 74
4, 17281, Note_on_c, 2, 77, 0
4, 17283, Note_on_c, 2, 76, 69
4, 17300, Note_on_c, 2, 76, 0
4, 17312, Note_on_c, 2, 72, 62
4, 17327, Note_on_c, 2, 72, 0
4, 17342, Note_on_c, 2, 69, 36
4, 17351, Note_on_c, 2, 69, 0
4, 17370, Note_on_c, 2, 65, 31
4, 17377, Note_on_c, 2, 65, 0
4, 17398, Note_on_c, 2, 72, 60
4, 17417, Note_on_c, 2, 72, 0
4, 17432, Note_on_c, 2, 74, 76
4, 17461, Note_on_c, 2, 72, 51
4, 17465, Note_on_c, 2, 74, 0
4, 17486, Note_on_c, 2, 72, 0
4, 17493, Note_on_c, 2, 71, 51
4, 17512, Note_on_c, 2, 71, 0
4, 17525, Note_on_c, 2, 67, 50
4, 17543, Note_on_c, 2, 67, 0
4, 17568, Note_on_c, 2, 64, 43
4, 17578, Note_on_c, 2, 64, 0
4, 17750, Note_on_c, 2, 59, 57
4, 17757, Note_on_c, 2, 59, 0
4, 17782, Note_on_c, 2, 60, 58
4, 17788, Note_on_c, 2, 60, 0
4, 17816, Note_on_c, 2, 64, 72
4, 17835, Note_on_c, 2, 64, 0
4, 17851, Note_on_c, 2, 67, 71
4, 17866, Note_on_c, 2, 67, 0
4, 17888, Note_on_c, 2, 63, 44
4, 17898, Note_on_c, 2, 63, 0
4, 17913, Note_on_c, 2, 64, 53
4, 17938, Note_on_c, 2, 64, 0
4, 17942, Note_on_c, 2, 68, 62
4, 17957, Note_on_c, 2, 68, 0
4, 17971, Note_on_c, 2, 71, 69
4, 17990, Note_on_c, 2, 71, 0
4, 18005, Note_on_c, 2, 67, 65
4, 18025, Note_on_c, 2, 67, 0
4, 18031, Note_on_c, 2, 68, 62
4, 18058, Note_on_c, 2, 68, 0
4, 18061, Note_on_c, 2, 72, 55
4, 18085, Note_on_c, 2, 72, 0
4, 18090, Note_on_c, 2, 75, 69
4, 18110, Note_on_c, 2, 75, 0
4, 18122, Note_on_c, 2, 71, 58
4, 18142, Note_on_c, 2, 71, 0
4, 18150, Note_on_c, 2, 72, 59
4, 18175, Note_on_c, 2, 72, 0
4, 18180, Note_on_c, 2, 76, 58
4, 18200, Note_on_c, 2, 76, 0
4, 18211, Note_on_c, 2, 79, 70
4, 18236, Note_on_c, 2, 79, 0
4, 18243, Note_on_c, 2, 76, 66
4, 18266, Note_on_c, 2, 76, 0
4, 18277, Note_on_c, 2, 72, 57
4, 18297, Note_on_c, 2, 72, 0
4, 18348, Note_on_c, 2, 65, 51
4, 18356, Note_on_c, 2, 65, 0
4, 18368, Note_on_c, 2, 72, 63
4, 18401, Note_on_c, 2, 72, 0
4, 18410, Note_on_c, 2, 67, 38
4, 18418, Note_on_c, 2, 67, 0
4, 18437, Note_on_c, 2, 72, 69
4, 18456, Note_on_c, 2, 72, 0
4, 18468, Note_on_c, 2, 67, 64
4, 18488, Note_on_c, 2, 67, 0
4, 18502, Note_on_c, 2, 64, 30
4, 18527, Note_on_c, 2, 64, 0
4, 18538, Note_on_c, 2, 60, 37
4, 18557, Note_on_c, 2, 60, 0
4, 18967, Note_on_c, 2, 79, 92
4, 19001, Note_on_c, 2, 79, 0
4, 19048, Note_on_c, 2, 76, 80
4, 19075, Note_on_c, 2, 76, 0
4, 19102, Note_on_c, 2, 73, 53
4, 19153, Note_on_c, 2, 73, 0
4, 19175, Note_on_c, 2, 70, 34
4, 19195, Note_on_c, 2, 70, 0
4, 19208, Note_on_c, 2, 72, 71
4, 19387, Note_on_c, 2, 72, 0
4, 19410, Note_on_c, 2, 70, 53
4, 19431, Note_on_c, 2, 70, 0
4, 19432, Note_on_c, 2, 69, 58
4, 19462, Note_on_c, 2, 69, 0
4, 19471, Note_on_c, 2, 65, 41
4, 19525, Note_on_c, 2, 65, 0
4, 19537, Note_on_c, 2, 64, 39
4, 19551, Note_on_c, 2, 64, 0
4, 19570, Note_on_c, 2, 67, 74
4, 19605, Note_on_c, 2, 66, 43
4, 19607, Note_on_c, 2, 67, 0
4, 19620, Note_on_c, 2, 65, 53
4, 19627, Note_on_c, 2, 66, 0
4, 19646, Note_on_c, 2, 65, 0
4, 19648, Note_on_c, 2, 64, 48
4, 19678, Note_on_c, 2, 64, 0
4, 19692, Note_on_c, 2, 61, 35
4, 19715, Note_on_c, 2, 61, 0
4, 19718, Note_on_c, 2, 64, 62
4, 19756, Note_on_c, 2, 64, 0
4, 19756, Note_on_c, 2, 61, 37
4, 19772, Note_on_c, 2, 61, 0
4, 19782, Note_on_c, 2, 62, 51
4, 19808, Note_on_c, 2, 62, 0
4, 20038, Note_on_c, 2, 64, 54
4, 20047, Note_on_c, 2, 64, 0
4, 20101, Note_on_c, 2, 69, 64
4, 20110, Note_on_c, 2, 69, 0
4, 20132, Note_on_c, 2, 71, 68
4, 20151, Note_on_c, 2, 71, 0
4, 20165, Note_on_c, 2, 72, 72
4, 20230, Note_on_c, 2, 72, 0
4, 20247, Note_on_c, 2, 60, 39
4, 20261, Note_on_c, 2, 60, 0
4, 20610, Note_on_c, 2, 76, 99
4, 20640, Note_on_c, 2, 76, 0
4, 20655, Note_on_c, 2, 77, 67
4, 20722, Note_on_c, 2, 77, 0
4, 20733, Note_on_c, 2, 76, 78
4, 20758, Note_on_c, 2, 76, 0
4, 20776, Note_on_c, 2, 72, 31
4, 20846, Note_on_c, 2, 72, 0
4, 20860, Note_on_c, 2, 67, 27
4, 20868, Note_on_c, 2, 67, 0
4, 20887, Note_on_c, 2, 71, 64
4, 20962, Note_on_c, 2, 71, 0
4, 20973, Note_on_c, 2, 67, 30
4, 20982, Note_on_c, 2, 67, 0
4, 21008, Note_on_c, 2, 69, 57
4, 21033, Note_on_c, 2, 69, 0
4, 21135, Note_on_c, 2, 68, 76
4, 21151, Note_on_c, 2, 68, 0
4, 21210, Note_on_c, 2, 69, 87
4, 21223, Note_on_c, 2, 69, 0
4, 21257, Note_on_c, 2, 72, 81
4, 21270, Note_on_c, 2, 72, 0
4, 21333, Note_on_c, 2, 66, 58
4, 21353, Note_on_c, 2, 66, 0
4, 21446, Note_on_c, 2, 62, 49
4, 21453, Note_on_c, 2, 62, 0
4, 21602, Note_on_c, 2, 66, 76
4, 21620, Note_on_c, 2, 66, 0
4, 21638, Note_on_c, 2, 67, 64
4, 21653, Note_on_c, 2, 67, 0
4, 21677, Note_on_c, 2, 69, 81
4, 21692, Note_on_c, 2, 69, 0
4, 21740, Note_on_c, 2, 62, 55
4, 21750, Note_on_c, 2, 62, 0
4, 21768, Note_on_c, 2, 64, 69
4, 21783, Note_on_c, 2, 64, 0
4, 21802, Note_on_c, 2, 66, 78
4, 21826, Note_on_c, 2, 66, 0
4, 21885, Note_on_c, 2, 60, 48
4, 21905, Note_on_c, 2, 60, 0
4, 21921, Note_on_c, 2, 62, 79
4, 21945, Note_on_c, 2, 62, 0
4, 21972, Note_on_c, 2, 57, 43
4, 21980, Note_on_c, 2, 57, 0
4, 22007, Note_on_c, 2, 59, 26
4, 22015, Note_on_c, 2, 59, 0
4, 22040, Note_on_c, 2, 62, 74
4, 22062, Note_on_c, 2, 62, 0
4, 22088, Note_on_c, 2, 66, 34
4, 22095, Note_on_c, 2, 66, 0
4, 22121, Note_on_c, 2, 57, 31
4, 22131, Note_on_c, 2, 57, 0
4, 22155, Note_on_c, 2, 62, 71
4, 22181, Note_on_c, 2, 62, 0
4, 22193, Note_on_c, 2, 66, 62
4, 22208, Note_on_c, 2, 66, 0
4, 22231, Note_on_c, 2, 69, 73
4, 22245, Note_on_c, 2, 69, 0
4, 22272, Note_on_c, 2, 74, 99
4, 22301, Note_on_c, 2, 74, 0
4, 22317, Note_on_c, 2, 78, 77
4, 22342, Note_on_c, 2, 78, 0
4, 22356, Note_on_c, 2, 81, 91
4, 22433, Note_on_c, 2, 81, 0
4, 22446, Note_on_c, 2, 79, 71
4, 22473, Note_on_c, 2, 79, 0
4, 22478, Note_on_c, 2, 78, 67
4, 22502, Note_on_c, 2, 78, 0
4, 22516, Note_on_c, 2, 76, 26
4, 22531, Note_on_c, 2, 76, 0
4, 22547, Note_on_c, 2, 74, 24
4, 22553, Note_on_c, 2, 74, 0
4, 22570, Note_on_c, 2, 76, 67
4, 22593, Note_on_c, 2, 76, 0
4, 22610, Note_on_c, 2, 72, 38
4, 22632, Note_on_c, 2, 72, 0
4, 22681, Note_on_c, 2, 69, 43
4, 22760, Note_on_c, 2, 67, 60
4, 22765, Note_on_c, 2, 69, 0
4, 22788, Note_on_c, 2, 67, 0
4, 22821, Note_on_c, 2, 66, 52
4, 22880, Note_on_c, 2, 66, 0
4, 22886, Note_on_c, 2, 67, 58
4, 22906, Note_on_c, 2, 67, 0
4, 22928, Note_on_c, 2, 69, 83
4, 23006, Note_on_c, 2, 69, 0
4, 23011, Note_on_c, 2, 65, 48
4, 23018, Note_on_c, 2, 65, 0
4, 23052, Note_on_c, 2, 65, 78
4, 23103, Note_on_c, 2, 65, 0
4, 23121, Note_on_c, 2, 67, 64
4, 23150, Note_on_c, 2, 67, 0
4, 23166, Note_on_c, 2, 69, 71
4, 23231, Note_on_c, 2, 69, 0
4, 23245, Note_on_c, 2, 65, 53
4, 23273, Note_on_c, 2, 65, 0
4, 23288, Note_on_c, 2, 62, 51
4, 23340, Note_on_c, 2, 62, 0
4, 23361, Note_on_c, 2, 62, 48
4, 23375, Note_on_c, 2, 62, 0
4, 23491, Note_on_c, 2, 60, 99
4, 23517, Note_on_c, 2, 60, 0
4, 23537, Note_on_c, 2, 59, 58
4, 23550, Note_on_c, 2, 59, 0
4, 23571, Note_on_c, 2, 60, 70
4, 23586, Note_on_c, 2, 60, 0
4, 23608, Note_on_c, 2, 62, 81
4, 23631, Note_on_c, 2, 62, 0
4, 23655, Note_on_c, 2, 55, 59
4, 23673, Note_on_c, 2, 55, 0
4, 23686, Note_on_c, 2, 57, 65
4, 23707, Note_on_c, 2, 57, 0
4, 23722, Note_on_c, 2, 59, 79
4, 23743, Note_on_c, 2, 59, 0
4, 23892, Note_on_c, 2, 64, 71
4, 23905, Note_on_c, 2, 64, 0
4, 23925, Note_on_c, 2, 65, 66
4, 23940, Note_on_c, 2, 65, 0
4, 23956, Note_on_c, 2, 67, 71
4, 23973, Note_on_c, 2, 67, 0
4, 23990, Note_on_c, 2, 71, 80
4, 24002, Note_on_c, 2, 71, 0
4, 24023, Note_on_c, 2, 74, 85
4, 24050, Note_on_c, 2, 74, 0
4, 24058, Note_on_c, 2, 71, 62
4, 24067, Note_on_c, 2, 71, 0
4, 24085, Note_on_c, 2, 72, 64
4, 24100, Note_on_c, 2, 72, 0
4, 24116, Note_on_c, 2, 76, 52
4, 24135, Note_on_c, 2, 76, 0
4, 24145, Note_on_c, 2, 79, 56
4, 24151, Note_on_c, 2, 79, 0
4, 24175, Note_on_c, 2, 83, 40
4, 24191, Note_on_c, 2, 83, 0
4, 24200, Note_on_c, 2, 86, 80
4, 24223, Note_on_c, 2, 86, 0
4, 24236, Note_on_c, 2, 83, 49
4, 24245, Note_on_c, 2, 83, 0
4, 24261, Note_on_c, 2, 84, 76
4, 24293, Note_on_c, 2, 84, 0
4, 24298, Note_on_c, 2, 81, 46
4, 24312, Note_on_c, 2, 81, 0
4, 24478, Note_on_c, 2, 88, 73
4, 24497, Note_on_c, 2, 88, 0
4, 24508, Note_on_c, 2, 89, 71
4, 24525, Note_on_c, 2, 89, 0
4, 24540, Note_on_c, 2, 88, 76
4, 24556, Note_on_c, 2, 88, 0
4, 24580, Note_on_c, 2, 84, 74
4, 24597, Note_on_c, 2, 84, 0
4, 24618, Note_on_c, 2, 81, 44
4, 24627, Note_on_c, 2, 81, 0
4, 24801, Note_on_c, 2, 69, 64
4, 24808, Note_on_c, 2, 69, 0
4, 24843, Note_on_c, 2, 76, 80
4, 24858, Note_on_c, 2, 76, 0
4, 24878, Note_on_c, 2, 77, 91
4, 24896, Note_on_c, 2, 77, 0
4, 24911, Note_on_c, 2, 76, 87
4, 24932, Note_on_c, 2, 76, 0
4, 24955, Note_on_c, 2, 72, 71
4, 24973, Note_on_c, 2, 72, 0
4, 24995, Note_on_c, 2, 67, 44
4, 25013, Note_on_c, 2, 67, 0
4, 25032, Note_on_c, 2, 65, 55
4, 25063, Note_on_c, 2, 65, 0
4, 25082, Note_on_c, 2, 64, 47
4, 25142, Note_on_c, 2, 64, 0
4, 25198, Note_on_c, 2, 76, 80
4, 25215, Note_on_c, 2, 76, 0
4, 25233, Note_on_c, 2, 77, 81
4, 25252, Note_on_c, 2, 77, 0
4, 25266, Note_on_c, 2, 76, 87
4, 25285, Note_on_c, 2, 76, 0
4, 25308, Note_on_c, 2, 72, 57
4, 25325, Note_on_c, 2, 72, 0
4, 25345, Note_on_c, 2, 67, 48
4, 25361, Note_on_c, 2, 67, 0
4, 25383, Note_on_c, 2, 65, 61
4, 25417, Note_on_c, 2, 65, 0
4, 25432, Note_on_c, 2, 64, 35
4, 25458, Note_on_c, 2, 64, 0
4, 25568, Note_on_c, 2, 76, 105
4, 25587, Note_on_c, 2, 76, 0
4, 25601, Note_on_c, 2, 77, 79
4, 25622, Note_on_c, 2, 77, 0
4, 25636, Note_on_c, 2, 76, 83
4, 25658, Note_on_c, 2, 76, 0
4, 25725, Note_on_c, 2, 76, 101
4, 25755, Note_on_c, 2, 76, 0
4, 25757, Note_on_c, 2, 77, 78
4, 25781, Note_on_c, 2, 77, 0
4, 25802, Note_on_c, 2, 76, 83
4, 25833, Note_on_c, 2, 76, 0
4, 25842, Note_on_c, 2, 77, 61
4, 25863, Note_on_c, 2, 77, 0
4, 25881, Note_on_c, 2, 76, 94
4, 25917, Note_on_c, 2, 76, 0
4, 25918, Note_on_c, 2, 77, 66
4, 25943, Note_on_c, 2, 77, 0
4, 25960, Note_on_c, 2, 76, 78
4, 25991, Note_on_c, 2, 76, 0
4, 25996, Note_on_c, 2, 77, 66
4, 26022, Note_on_c, 2, 77, 0
4, 26037, Note_on_c, 2, 76, 80
4, 26066, Note_on_c, 2, 76, 0
4, 26077, Note_on_c, 2, 72, 54
4, 26098, Note_on_c, 2, 72, 0
4, 26113, Note_on_c, 2, 67, 55
4, 26138, Note_on_c, 2, 67, 0
4, 26152, Note_on_c, 2, 65, 58
4, 26180, Note_on_c, 2, 65, 0
4, 26195, Note_on_c, 2, 64, 58
4, 26265, Note_on_c, 2, 64, 0
4, 26281, Note_on_c, 2, 60, 39
4, 26347, Note_on_c, 2, 60, 0
4, 26358, Note_on_c, 2, 55, 47
4, 26376, Note_on_c, 2, 55, 0
4, 26517, Note_on_c, 2, 76, 110
4, 26568, Note_on_c, 2, 76, 0
4, 26633, Note_on_c, 2, 76, 55
4, 26637, Note_on_c, 2, 75, 70
4, 26642, Note_on_c, 2, 76, 0
4, 26655, Note_on_c, 2, 73, 62
4, 26661, Note_on_c, 2, 75, 0
4, 26673, Note_on_c, 2, 72, 32
4, 26675, Note_on_c, 2, 73, 0
4, 26717, Note_on_c, 2, 72, 0
4, 26727, Note_on_c, 2, 70, 71
4, 26757, Note_on_c, 2, 70, 0
4, 26777, Note_on_c, 2, 69, 60
4, 26823, Note_on_c, 2, 69, 0
4, 26856, Note_on_c, 2, 68, 69
4, 26880, Note_on_c, 2, 68, 0
4, 26896, Note_on_c, 2, 69, 50
4, 26925, Note_on_c, 2, 69, 0
4, 26933, Note_on_c, 2, 72, 68
4, 26991, Note_on_c, 2, 72, 0
4, 27023, Note_on_c, 2, 64, 58
4, 27038, Note_on_c, 2, 64, 0
4, 27056, Note_on_c, 2, 65, 48
4, 27080, Note_on_c, 2, 65, 0
4, 27083, Note_on_c, 2, 67, 72
4, 27105, Note_on_c, 2, 67, 0
4, 27252, Note_on_c, 2, 64, 61
4, 27266, Note_on_c, 2, 64, 0
4, 27416, Note_on_c, 2, 65, 55
4, 27423, Note_on_c, 2, 65, 0
4, 27443, Note_on_c, 2, 67, 70
4, 27465, Note_on_c, 2, 67, 0
4, 27473, Note_on_c, 2, 69, 64
4, 27485, Note_on_c, 2, 69, 0
4, 27506, Note_on_c, 2, 72, 68
4, 27517, Note_on_c, 2, 72, 0
4, 27535, Note_on_c, 2, 74, 78
4, 27546, Note_on_c, 2, 74, 0
4, 27571, Note_on_c, 2, 77, 69
4, 27582, Note_on_c, 2, 77, 0
4, 27602, Note_on_c, 2, 79, 68
4, 27623, Note_on_c, 2, 79, 0
4, 27640, Note_on_c, 2, 80, 53
4, 27656, Note_on_c, 2, 80, 0
4, 27672, Note_on_c, 2, 81, 58
4, 27688, Note_on_c, 2, 81, 0
4, 27700, Note_on_c, 2, 84, 82
4, 27722, Note_on_c, 2, 84, 0
4, 27738, Note_on_c, 2, 81, 33
4, 27747, Note_on_c, 2, 81, 0
4, 27765, Note_on_c, 2, 83, 68
4, 27787, Note_on_c, 2, 83, 0
4, 27801, Note_on_c, 2, 79, 46
4, 27820, Note_on_c, 2, 79, 0
4, 28170, Note_on_c, 2, 84, 101
4, 28192, Note_on_c, 2, 84, 0
4, 28213, Note_on_c, 2, 81, 62
4, 28233, Note_on_c, 2, 81, 0
4, 28287, Note_on_c, 2, 75, 72
4, 28320, Note_on_c, 2, 75, 0
4, 28328, Note_on_c, 2, 74, 57
4, 28350, Note_on_c, 2, 74, 0
4, 28368, Note_on_c, 2, 72, 43
4, 28391, Note_on_c, 2, 72, 0
4, 28406, Note_on_c, 2, 69, 45
4, 28418, Note_on_c, 2, 69, 0
4, 28448, Note_on_c, 2, 72, 49
4, 28677, Note_on_c, 2, 72, 0
4, 28691, Note_on_c, 2, 69, 32
4, 28725, Note_on_c, 2, 69, 0
4, 28776, Note_on_c, 2, 69, 27
4, 28795, Note_on_c, 2, 69, 0
4, 28800, Note_on_c, 2, 71, 54
4, 28817, Note_on_c, 2, 71, 0
4, 28823, Note_on_c, 2, 72, 47
4, 28886, Note_on_c, 2, 72, 0
4, 28890, Note_on_c, 2, 70, 67
4, 28917, Note_on_c, 2, 70, 0
4, 28940, Note_on_c, 2, 66, 19
4, 29011, Note_on_c, 2, 69, 61
4, 29020, Note_on_c, 2, 66, 0
4, 29038, Note_on_c, 2, 69, 0
4, 29056, Note_on_c, 2, 67, 57
4, 29120, Note_on_c, 2, 67, 0
4, 29127, Note_on_c, 2, 64, 64
4, 29148, Note_on_c, 2, 64, 0
4, 29165, Note_on_c, 2, 60, 45
4, 29246, Note_on_c, 2, 60, 0
4, 29262, Note_on_c, 2, 57, 22
4, 29270, Note_on_c, 2, 57, 0
4, 29407, Note_on_c, 2, 62, 55
4, 29407, Note_on_c, 2, 60, 58
4, 29413, Note_on_c, 2, 60, 0
4, 29415, Note_on_c, 2, 62, 0
4, 29483, Note_on_c, 2, 62, 81
4, 29500, Note_on_c, 2, 62, 0
4, 29527, Note_on_c, 2, 63, 39
4, 29553, Note_on_c, 2, 63, 0
4, 29601, Note_on_c, 2, 65, 77
4, 29626, Note_on_c, 2, 65, 0
4, 29652, Note_on_c, 2, 66, 53
4, 29670, Note_on_c, 2, 66, 0
4, 29718, Note_on_c, 2, 67, 49
4, 29731, Note_on_c, 2, 67, 0
4, 29765, Note_on_c, 2, 71, 54
4, 29781, Note_on_c, 2, 71, 0
4, 29835, Note_on_c, 2, 74, 82
4, 29855, Note_on_c, 2, 74, 0
4, 29877, Note_on_c, 2, 71, 48
4, 29946, Note_on_c, 2, 71, 0
4, 29955, Note_on_c, 2, 72, 76
4, 30066, Note_on_c, 2, 72, 0
4, 30077, Note_on_c, 2, 69, 67
4, 30141, Note_on_c, 2, 69, 0
4, 30232, Note_on_c, 2, 63, 69
4, 30255, Note_on_c, 2, 63, 0
4, 30263, Note_on_c, 2, 60, 53
4, 30272, Note_on_c, 2, 60, 0
4, 30291, Note_on_c, 2, 62, 68
4, 30315, Note_on_c, 2, 62, 0
4, 30328, Note_on_c, 2, 57, 32
4, 30336, Note_on_c, 2, 57, 0
4, 30355, Note_on_c, 2, 60, 55
4, 30422, Note_on_c, 2, 60, 0
4, 30425, Note_on_c, 2, 57, 68
4, 30433, Note_on_c, 2, 57, 0
4, 30590, Note_on_c, 2, 63, 63
4, 30607, Note_on_c, 2, 63, 0
4, 30615, Note_on_c, 2, 60, 48
4, 30627, Note_on_c, 2, 60, 0
4, 30648, Note_on_c, 2, 62, 70
4, 30666, Note_on_c, 2, 62, 0
4, 30681, Note_on_c, 2, 57, 45
4, 30690, Note_on_c, 2, 57, 0
4, 30712, Note_on_c, 2, 60, 62
4, 30767, Note_on_c, 2, 60, 0
4, 30772, Note_on_c, 2, 57, 54
4, 30778, Note_on_c, 2, 57, 0
4, 30837, Note_on_c, 2, 57, 59
4, 30893, Note_on_c, 2, 57, 0
4, 31078, Note_on_c, 2, 57, 71
4, 31096, Note_on_c, 2, 57, 0
4, 31165, Note_on_c, 2, 55, 34
4, 31180, Note_on_c, 2, 55, 0
4, 31196, Note_on_c, 2, 57, 50
4, 31296, Note_on_c, 2, 57, 0
4, 31315, Note_on_c, 2, 60, 58
4, 31381, Note_on_c, 2, 60, 0
4, 31425, Note_on_c, 2, 63, 61
4, 31443, Note_on_c, 2, 64, 49
4, 31445, Note_on_c, 2, 63, 0
4, 31497, Note_on_c, 2, 64, 0
4, 31542, Note_on_c, 2, 67, 67
4, 31596, Note_on_c, 2, 67, 0
4, 31680, Control_c, 2, 0, 0
4, 31680, Control_c, 2, 32, 0
4, 31680, Control_c, 2, 0, 0
4, 31680, Control_c, 2, 32, 0
4, 31680, Program_c, 2, 11
4, 31680, Note_on_c, 2, 67, 74
4, 32062, Note_on_c, 2, 67, 0
4, 32116, Note_on_c, 2, 72, 88
4, 32138, Note_on_c, 2, 72, 0
4, 32186, Note_on_c, 2, 69, 74
4, 32343, Note_on_c, 2, 69, 0
4, 32363, Note_on_c, 2, 65, 62
4, 32376, Note_on_c, 2, 65, 0
4, 32407, Note_on_c, 2, 67, 88
4, 32453, Note_on_c, 2, 66, 43
4, 32458, Note_on_c, 2, 67, 0
4, 32472, Note_on_c, 2, 66, 0
4, 32472, Note_on_c, 2, 65, 66
4, 32500, Note_on_c, 2, 64, 64
4, 32501, Note_on_c, 2, 65, 0
4, 32526, Note_on_c, 2, 64, 0
4, 32527, Note_on_c, 2, 62, 58
4, 32577, Note_on_c, 2, 62, 0
4, 32602, Note_on_c, 2, 60, 68
4, 32638, Note_on_c, 2, 60, 0
4, 32652, Note_on_c, 2, 59, 32
4, 32672, Note_on_c, 2, 59, 0
4, 32686, Note_on_c, 2, 60, 53
4, 32707, Note_on_c, 2, 60, 0
4, 32721, Note_on_c, 2, 62, 77
4, 32742, Note_on_c, 2, 62, 0
4, 32761, Note_on_c, 2, 59, 60
4, 32793, Note_on_c, 2, 59, 0
4, 32803, Note_on_c, 2, 55, 35
4, 32840, Note_on_c, 2, 55, 0
4, 32881, Note_on_c, 2, 55, 37
4, 33083, Note_on_c, 2, 55, 0
4, 33120, Note_on_c, 2, 53, 58
4, 33128, Note_on_c, 2, 53, 0
4, 33151, Note_on_c, 2, 55, 66
4, 33167, Note_on_c, 2, 55, 0
4, 33180, Note_on_c, 2, 57, 72
4, 33196, Note_on_c, 2, 57, 0
4, 33212, Note_on_c, 2, 60, 74
4, 33232, Note_on_c, 2, 60, 0
4, 33242, Note_on_c, 2, 62, 66
4, 33258, Note_on_c, 2, 62, 0
4, 33275, Note_on_c, 2, 65, 71
4, 33292, Note_on_c, 2, 65, 0
4, 33303, Note_on_c, 2, 67, 76
4, 33321, Note_on_c, 2, 67, 0
4, 33336, Note_on_c, 2, 69, 84
4, 33353, Note_on_c, 2, 69, 0
4, 33365, Note_on_c, 2, 72, 89
4, 33391, Note_on_c, 2, 72, 0
4, 33403, Note_on_c, 2, 69, 49
4, 33411, Note_on_c, 2, 69, 0
4, 33428, Note_on_c, 2, 72, 95
4, 33462, Note_on_c, 2, 72, 0
4, 33462, Note_on_c, 2, 69, 62
4, 33481, Note_on_c, 2, 69, 0
4, 33497, Note_on_c, 2, 71, 80
4, 33527, Note_on_c, 2, 71, 0
4, 33527, Note_on_c, 2, 69, 72
4, 33553, Note_on_c, 2, 69, 0
4, 33556, Note_on_c, 2, 67, 55
4, 33581, Note_on_c, 2, 67, 0
4, 33587, Note_on_c, 2, 65, 62
4, 33601, Note_on_c, 2, 65, 0
4, 33616, Note_on_c, 2, 64, 59
4, 33653, Note_on_c, 2, 64, 0
4, 33658, Note_on_c, 2, 65, 70
4, 33676, Note_on_c, 2, 65, 0
4, 33683, Note_on_c, 2, 67, 74
4, 33703, Note_on_c, 2, 67, 0
4, 33721, Note_on_c, 2, 64, 67
4, 33738, Note_on_c, 2, 64, 0
4, 33752, Note_on_c, 2, 59, 44
4, 33765, Note_on_c, 2, 59, 0
4, 33783, Note_on_c, 2, 60, 58
4, 33807, Note_on_c, 2, 62, 78
4, 33808, Note_on_c, 2, 60, 0
4, 33831, Note_on_c, 2, 62, 0
4, 33841, Note_on_c, 2, 59, 71
4, 33860, Note_on_c, 2, 59, 0
4, 33872, Note_on_c, 2, 55, 58
4, 33915, Note_on_c, 2, 55, 0
4, 33923, Note_on_c, 2, 55, 36
4, 33951, Note_on_c, 2, 55, 0
4, 34196, Note_on_c, 2, 74, 94
4, 34217, Note_on_c, 2, 74, 0
4, 34227, Note_on_c, 2, 71, 65
4, 34245, Note_on_c, 2, 71, 0
4, 34261, Note_on_c, 2, 72, 64
4, 34278, Note_on_c, 2, 72, 0
4, 34297, Note_on_c, 2, 74, 57
4, 34305, Note_on_c, 2, 74, 0
4, 34450, Note_on_c, 2, 72, 54
4, 34451, Note_on_c, 2, 74, 55
4, 34466, Note_on_c, 2, 74, 0
4, 34467, Note_on_c, 2, 72, 0
4, 34527, Note_on_c, 2, 69, 76
4, 34542, Note_on_c, 2, 69, 0
4, 34570, Note_on_c, 2, 72, 87
4, 34605, Note_on_c, 2, 70, 68
4, 34610, Note_on_c, 2, 72, 0
4, 34613, Note_on_c, 2, 71, 64
4, 34618, Note_on_c, 2, 70, 0
4, 34628, Note_on_c, 2, 71, 0
4, 34628, Note_on_c, 2, 70, 56
4, 34658, Note_on_c, 2, 70, 0
4, 34658, Note_on_c, 2, 69, 63
4, 34676, Note_on_c, 2, 69, 0
4, 34692, Note_on_c, 2, 64, 80
4, 34748, Note_on_c, 2, 64, 0
4, 34775, Note_on_c, 2, 67, 99
4, 34843, Note_on_c, 2, 66, 46
4, 34855, Note_on_c, 2, 67, 0
4, 34862, Note_on_c, 2, 65, 55
4, 34866, Note_on_c, 2, 66, 0
4, 34887, Note_on_c, 2, 65, 0
4, 34890, Note_on_c, 2, 64, 53
4, 34920, Note_on_c, 2, 64, 0
4, 34922, Note_on_c, 2, 61, 60
4, 34946, Note_on_c, 2, 61, 0
4, 34957, Note_on_c, 2, 64, 72
4, 35011, Note_on_c, 2, 64, 0
4, 35012, Note_on_c, 2, 61, 57
4, 35051, Note_on_c, 2, 61, 0
4, 35052, Note_on_c, 2, 62, 56
4, 35093, Note_on_c, 2, 62, 0
4, 35116, Note_on_c, 2, 64, 71
4, 35140, Note_on_c, 2, 64, 0
4, 35171, Note_on_c, 2, 64, 69
4, 35193, Note_on_c, 2, 65, 77
4, 35198, Note_on_c, 2, 64, 0
4, 35215, Note_on_c, 2, 65, 0
4, 35251, Note_on_c, 2, 67, 77
4, 35275, Note_on_c, 2, 67, 0
4, 35308, Note_on_c, 2, 67, 51
4, 35322, Note_on_c, 2, 68, 37
4, 35335, Note_on_c, 2, 67, 0
4, 35336, Note_on_c, 2, 68, 0
4, 35340, Note_on_c, 2, 69, 58
4, 35362, Note_on_c, 2, 69, 0
4, 35378, Note_on_c, 2, 71, 80
4, 35408, Note_on_c, 2, 71, 0
4, 35427, Note_on_c, 2, 72, 72
4, 35461, Note_on_c, 2, 72, 0
4, 35490, Note_on_c, 2, 74, 82
4, 35520, Note_on_c, 2, 74, 0
4, 35538, Note_on_c, 2, 72, 55
4, 35598, Note_on_c, 2, 72, 0
4, 35611, Note_on_c, 2, 67, 63
4, 35635, Note_on_c, 2, 67, 0
4, 35657, Note_on_c, 2, 61, 44
4, 35702, Note_on_c, 2, 61, 0
4, 36142, Note_on_c, 2, 72, 110
4, 36218, Note_on_c, 2, 74, 83
4, 36220, Note_on_c, 2, 72, 0
4, 36252, Note_on_c, 2, 74, 0
4, 36271, Note_on_c, 2, 70, 49
4, 36281, Note_on_c, 2, 71, 52
4, 36290, Note_on_c, 2, 70, 0
4, 36337, Note_on_c, 2, 71, 0
4, 36353, Note_on_c, 2, 69, 80
4, 36386, Note_on_c, 2, 69, 0
4, 36416, Note_on_c, 2, 68, 27
4, 36456, Note_on_c, 2, 68, 0
4, 36508, Note_on_c, 2, 69, 80
4, 36570, Note_on_c, 2, 69, 0
4, 36582, Note_on_c, 2, 72, 80
4, 36611, Note_on_c, 2, 72, 0
4, 36635, Note_on_c, 2, 69, 35
4, 36680, Note_on_c, 2, 69, 0
4, 36706, Note_on_c, 2, 64, 18
4, 36713, Note_on_c, 2, 64, 0
4, 36735, Note_on_c, 2, 68, 70
4, 36793, Note_on_c, 2, 68, 0
4, 36806, Note_on_c, 2, 72, 74
4, 36828, Note_on_c, 2, 72, 0
4, 36857, Note_on_c, 2, 68, 48
4, 36930, Note_on_c, 2, 62, 29
4, 36938, Note_on_c, 2, 62, 0
4, 36940, Note_on_c, 2, 68, 0
4, 36967, Note_on_c, 2, 67, 61
4, 37038, Note_on_c, 2, 67, 0
4, 37046, Note_on_c, 2, 71, 83
4, 37075, Note_on_c, 2, 71, 0
4, 37101, Note_on_c, 2, 67, 53
4, 37163, Note_on_c, 2, 67, 0
4, 37168, Note_on_c, 2, 62, 53
4, 37188, Note_on_c, 2, 62, 0
4, 37212, Note_on_c, 2, 66, 82
4, 37217, Note_on_c, 2, 63, 39
4, 37223, Note_on_c, 2, 63, 0
4, 37283, Note_on_c, 2, 66, 0
4, 37290, Note_on_c, 2, 71, 76
4, 37323, Note_on_c, 2, 71, 0
4, 37341, Note_on_c, 2, 63, 30
4, 37411, Note_on_c, 2, 63, 0
4, 37412, Note_on_c, 2, 59, 40
4, 37422, Note_on_c, 2, 59, 0
4, 37461, Note_on_c, 2, 64, 76
4, 37522, Note_on_c, 2, 64, 0
4, 37531, Note_on_c, 2, 69, 89
4, 37563, Note_on_c, 2, 69, 0
4, 37587, Note_on_c, 2, 66, 32
4, 37647, Note_on_c, 2, 62, 62
4, 37671, Note_on_c, 2, 66, 0
4, 37673, Note_on_c, 2, 62, 0
4, 37718, Note_on_c, 2, 59, 4
4, 37755, Note_on_c, 2, 59, 0
4, 37926, Note_on_c, 2, 59, 41
4, 37936, Note_on_c, 2, 59, 0
4, 37952, Note_on_c, 2, 60, 45
4, 37973, Note_on_c, 2, 60, 0
4, 37982, Note_on_c, 2, 64, 57
4, 38002, Note_on_c, 2, 64, 0
4, 38010, Note_on_c, 2, 67, 62
4, 38033, Note_on_c, 2, 67, 0
4, 38163, Note_on_c, 2, 59, 76
4, 38178, Note_on_c, 2, 59, 0
4, 38192, Note_on_c, 2, 60, 60
4, 38216, Note_on_c, 2, 60, 0
4, 38222, Note_on_c, 2, 64, 56
4, 38243, Note_on_c, 2, 64, 0
4, 38250, Note_on_c, 2, 67, 62
4, 38263, Note_on_c, 2, 67, 0
4, 38281, Note_on_c, 2, 64, 55
4, 38300, Note_on_c, 2, 64, 0
4, 38313, Note_on_c, 2, 67, 35
4, 38337, Note_on_c, 2, 67, 0
4, 38341, Note_on_c, 2, 71, 49
4, 38361, Note_on_c, 2, 71, 0
4, 38370, Note_on_c, 2, 74, 69
4, 38388, Note_on_c, 2, 74, 0
4, 38401, Note_on_c, 2, 71, 57
4, 38413, Note_on_c, 2, 71, 0
4, 38428, Note_on_c, 2, 72, 45
4, 38452, Note_on_c, 2, 72, 0
4, 38456, Note_on_c, 2, 76, 50
4, 38480, Note_on_c, 2, 76, 0
4, 38486, Note_on_c, 2, 79, 83
4, 38512, Note_on_c, 2, 79, 0
4, 38521, Note_on_c, 2, 77, 67
4, 38550, Note_on_c, 2, 77, 0
4, 38552, Note_on_c, 2, 76, 58
4, 38577, Note_on_c, 2, 76, 0
4, 38585, Note_on_c, 2, 72, 48
4, 38612, Note_on_c, 2, 72, 0
4, 38623, Note_on_c, 2, 69, 35
4, 38632, Note_on_c, 2, 69, 0
4, 38651, Note_on_c, 2, 76, 74
4, 38672, Note_on_c, 2, 76, 0
4, 38701, Note_on_c, 2, 76, 85
4, 38726, Note_on_c, 2, 76, 0
4, 38735, Note_on_c, 2, 72, 74
4, 38758, Note_on_c, 2, 72, 0
4, 38768, Note_on_c, 2, 69, 54
4, 38791, Note_on_c, 2, 69, 0
4, 38802, Note_on_c, 2, 65, 42
4, 38811, Note_on_c, 2, 65, 0
4, 38828, Note_on_c, 2, 72, 76
4, 38853, Note_on_c, 2, 72, 0
4, 38892, Note_on_c, 2, 72, 83
4, 38922, Note_on_c, 2, 72, 0
4, 38927, Note_on_c, 2, 69, 60
4, 38940, Note_on_c, 2, 69, 0
4, 38956, Note_on_c, 2, 65, 29
4, 38978, Note_on_c, 2, 65, 0
4, 38985, Note_on_c, 2, 64, 39
4, 38996, Note_on_c, 2, 64, 0
4, 39016, Note_on_c, 2, 72, 81
4, 39058, Note_on_c, 2, 72, 0
4, 39093, Note_on_c, 2, 71, 80
4, 39132, Note_on_c, 2, 71, 0
4, 39151, Note_on_c, 2, 69, 48
4, 39200, Note_on_c, 2, 69, 0
4, 39213, Note_on_c, 2, 67, 66
4, 39252, Note_on_c, 2, 67, 0
4, 39258, Note_on_c, 2, 65, 52
4, 39313, Note_on_c, 2, 65, 0
4, 39327, Note_on_c, 2, 63, 46
4, 39355, Note_on_c, 2, 63, 0
4, 39367, Note_on_c, 2, 65, 69
4, 39442, Note_on_c, 2, 65, 0
4, 39446, Note_on_c, 2, 63, 42
4, 39481, Note_on_c, 2, 63, 0
4, 39491, Note_on_c, 2, 64, 48
4, 39598, Note_on_c, 2, 64, 0
4, 39607, Note_on_c, 2, 70, 79
4, 39691, Note_on_c, 2, 68, 49
4, 39705, Note_on_c, 2, 70, 0
4, 39716, Note_on_c, 2, 68, 0
4, 39730, Note_on_c, 2, 69, 40
4, 39807, Note_on_c, 2, 75, 83
4, 39810, Note_on_c, 2, 69, 0
4, 39850, Note_on_c, 2, 75, 0
4, 39865, Note_on_c, 2, 73, 23
4, 39915, Note_on_c, 2, 73, 0
4, 39922, Note_on_c, 2, 74, 54
4, 39947, Note_on_c, 2, 74, 0
4, 39957, Note_on_c, 2, 77, 73
4, 39993, Note_on_c, 2, 77, 0
4, 39995, Note_on_c, 2, 75, 52
4, 40027, Note_on_c, 2, 76, 54
4, 40028, Note_on_c, 2, 75, 0
4, 40051, Note_on_c, 2, 76, 0
4, 40060, Note_on_c, 2, 78, 59
4, 40090, Note_on_c, 2, 78, 0
4, 40097, Note_on_c, 2, 76, 38
4, 40126, Note_on_c, 2, 76, 0
4, 40130, Note_on_c, 2, 77, 49
4, 40141, Note_on_c, 2, 77, 0
4, 40156, Note_on_c, 2, 80, 68
4, 40186, Note_on_c, 2, 80, 0
4, 40190, Note_on_c, 2, 78, 43
4, 40207, Note_on_c, 2, 78, 0
4, 40221, Note_on_c, 2, 81, 67
4, 40245, Note_on_c, 2, 81, 0
4, 40252, Note_on_c, 2, 78, 51
4, 40271, Note_on_c, 2, 78, 0
4, 40281, Note_on_c, 2, 79, 45
4, 40300, Note_on_c, 2, 79, 0
4, 40306, Note_on_c, 2, 81, 49
4, 40336, Note_on_c, 2, 82, 50
4, 40340, Note_on_c, 2, 81, 0
4, 40360, Note_on_c, 2, 82, 0
4, 40368, Note_on_c, 2, 83, 57
4, 40386, Note_on_c, 2, 83, 0
4, 40393, Note_on_c, 2, 86, 80
4, 40421, Note_on_c, 2, 86, 0
4, 40456, Note_on_c, 2, 86, 85
4, 40481, Note_on_c, 2, 86, 0
4, 40486, Note_on_c, 2, 83, 64
4, 40510, Note_on_c, 2, 83, 0
4, 40516, Note_on_c, 2, 79, 39
4, 40540, Note_on_c, 2, 79, 0
4, 40552, Note_on_c, 2, 76, 19
4, 40558, Note_on_c, 2, 76, 0
4, 40572, Note_on_c, 2, 83, 72
4, 40597, Note_on_c, 2, 83, 0
4, 40622, Note_on_c, 2, 83, 80
4, 40655, Note_on_c, 2, 79, 58
4, 40658, Note_on_c, 2, 83, 0
4, 40680, Note_on_c, 2, 79, 0
4, 40686, Note_on_c, 2, 76, 48
4, 40710, Note_on_c, 2, 76, 0
4, 40722, Note_on_c, 2, 74, 44
4, 40731, Note_on_c, 2, 74, 0
4, 40745, Note_on_c, 2, 79, 71
4, 40776, Note_on_c, 2, 79, 0
4, 40805, Note_on_c, 2, 79, 80
4, 40838, Note_on_c, 2, 79, 0
4, 40840, Note_on_c, 2, 76, 66
4, 40858, Note_on_c, 2, 76, 0
4, 40880, Note_on_c, 2, 71, 17
4, 40903, Note_on_c, 2, 71, 0
4, 40906, Note_on_c, 2, 67, 36
4, 40922, Note_on_c, 2, 67, 0
4, 40942, Note_on_c, 2, 67, 46
4, 40995, Note_on_c, 2, 67, 0
4, 41008, Note_on_c, 2, 67, 62
4, 41032, Note_on_c, 2, 67, 0
4, 41055, Note_on_c, 2, 67, 72
4, 41113, Note_on_c, 2, 67, 0
4, 41122, Note_on_c, 2, 69, 54
4, 41142, Note_on_c, 2, 69, 0
4, 41143, Note_on_c, 2, 67, 48
4, 41152, Note_on_c, 2, 67, 0
4, 41163, Note_on_c, 2, 64, 61
4, 41242, Note_on_c, 2, 64, 0
4, 41293, Note_on_c, 2, 67, 84
4, 41347, Note_on_c, 2, 67, 0
4, 41361, Note_on_c, 2, 69, 36
4, 41371, Note_on_c, 2, 69, 0
4, 41372, Note_on_c, 2, 67, 48
4, 41388, Note_on_c, 2, 67, 0
4, 41396, Note_on_c, 2, 64, 55
4, 41405, Note_on_c, 2, 64, 0
4, 41418, Note_on_c, 2, 66, 63
4, 41433, Note_on_c, 2, 67, 57
4, 41445, Note_on_c, 2, 66, 0
4, 41471, Note_on_c, 2, 67, 0
4, 41491, Note_on_c, 2, 66, 71
4, 41507, Note_on_c, 2, 67, 54
4, 41523, Note_on_c, 2, 66, 0
4, 41543, Note_on_c, 2, 67, 0
4, 41560, Note_on_c, 2, 66, 57
4, 41582, Note_on_c, 2, 67, 62
4, 41595, Note_on_c, 2, 66, 0
4, 41616, Note_on_c, 2, 67, 0
4, 41626, Note_on_c, 2, 64, 63
4, 41653, Note_on_c, 2, 64, 0
4, 41673, Note_on_c, 2, 62, 54
4, 41730, Note_on_c, 2, 62, 0
4, 41741, Note_on_c, 2, 60, 59
4, 41773, Note_on_c, 2, 60, 0
4, 41783, Note_on_c, 2, 59, 44
4, 41852, Note_on_c, 2, 59, 0
4, 41863, Note_on_c, 2, 60, 46
4, 41885, Note_on_c, 2, 60, 0
4, 41903, Note_on_c, 2, 62, 61
4, 42003, Note_on_c, 2, 62, 0
4, 42126, Note_on_c, 2, 60, 50
4, 42141, Note_on_c, 2, 60, 0
4, 42153, Note_on_c, 2, 61, 57
4, 42176, Note_on_c, 2, 61, 0
4, 42185, Note_on_c, 2, 63, 58
4, 42205, Note_on_c, 2, 63, 0
4, 42215, Note_on_c, 2, 64, 61
4, 42237, Note_on_c, 2, 64, 0
4, 42280, Note_on_c, 2, 64, 65
4, 42303, Note_on_c, 2, 64, 0
4, 42313, Note_on_c, 2, 61, 35
4, 42337, Note_on_c, 2, 61, 0
4, 42340, Note_on_c, 2, 62, 49
4, 42358, Note_on_c, 2, 62, 0
4, 42368, Note_on_c, 2, 64, 64
4, 42388, Note_on_c, 2, 64, 0
4, 42435, Note_on_c, 2, 65, 64
4, 42458, Note_on_c, 2, 65, 0
4, 42481, Note_on_c, 2, 69, 54
4, 42496, Note_on_c, 2, 69, 0
4, 42551, Note_on_c, 2, 72, 49
4, 42552, Note_on_c, 2, 71, 47
4, 42560, Note_on_c, 2, 71, 0
4, 42566, Note_on_c, 2, 72, 0
4, 42600, Note_on_c, 2, 76, 63
4, 42616, Note_on_c, 2, 76, 0
4, 42672, Note_on_c, 2, 77, 68
4, 42687, Note_on_c, 2, 77, 0
4, 42731, Note_on_c, 2, 79, 77
4, 42776, Note_on_c, 2, 79, 0
4, 42800, Note_on_c, 2, 79, 64
4, 42826, Note_on_c, 2, 79, 0
4, 42861, Note_on_c, 2, 77, 67
4, 42882, Note_on_c, 2, 77, 0
4, 42918, Note_on_c, 2, 77, 70
4, 42948, Note_on_c, 2, 77, 0
4, 42972, Note_on_c, 2, 76, 68
4, 43007, Note_on_c, 2, 76, 0
4, 43037, Note_on_c, 2, 76, 76
4, 43070, Note_on_c, 2, 76, 0
4, 43085, Note_on_c, 2, 72, 61
4, 43107, Note_on_c, 2, 72, 0
4, 43157, Note_on_c, 2, 72, 66
4, 43191, Note_on_c, 2, 72, 0
4, 43203, Note_on_c, 2, 69, 50
4, 43265, Note_on_c, 2, 69, 0
4, 43282, Note_on_c, 2, 69, 57
4, 43303, Note_on_c, 2, 69, 0
4, 43326, Note_on_c, 2, 71, 62
4, 43358, Note_on_c, 2, 71, 0
4, 43405, Note_on_c, 2, 71, 72
4, 43425, Note_on_c, 2, 71, 0
4, 43448, Note_on_c, 2, 72, 62
4, 43467, Note_on_c, 2, 72, 0
4, 43520, Note_on_c, 2, 69, 66
4, 43540, Note_on_c, 2, 69, 0
4, 43573, Note_on_c, 2, 64, 51
4, 43641, Note_on_c, 2, 64, 0
4, 43648, Note_on_c, 2, 60, 48
4, 43662, Note_on_c, 2, 60, 0
4, 43708, Note_on_c, 2, 62, 68
4, 43725, Note_on_c, 2, 62, 0
4, 43726, Note_on_c, 2, 63, 49
4, 43755, Note_on_c, 2, 62, 48
4, 43763, Note_on_c, 2, 63, 0
4, 43782, Note_on_c, 2, 62, 0
4, 43786, Note_on_c, 2, 60, 53
4, 43802, Note_on_c, 2, 60, 0
4, 43820, Note_on_c, 2, 57, 46
4, 43883, Note_on_c, 2, 57, 0
4, 43892, Note_on_c, 2, 60, 66
4, 44062, Note_on_c, 2, 60, 0
4, 44165, Note_on_c, 2, 70, 81
4, 44236, Note_on_c, 2, 70, 0
4, 44247, Note_on_c, 2, 66, 23
4, 44255, Note_on_c, 2, 66, 0
4, 44286, Note_on_c, 2, 69, 84
4, 44338, Note_on_c, 2, 68, 35
4, 44347, Note_on_c, 2, 69, 0
4, 44356, Note_on_c, 2, 68, 0
4, 44363, Note_on_c, 2, 67, 50
4, 44393, Note_on_c, 2, 67, 0
4, 44397, Note_on_c, 2, 66, 59
4, 44471, Note_on_c, 2, 66, 0
4, 44477, Note_on_c, 2, 69, 78
4, 44518, Note_on_c, 2, 69, 0
4, 44535, Note_on_c, 2, 67, 52
4, 44595, Note_on_c, 2, 67, 0
4, 44605, Note_on_c, 2, 64, 55
4, 44645, Note_on_c, 2, 64, 0
4, 44662, Note_on_c, 2, 60, 42
4, 44726, Note_on_c, 2, 60, 0
4, 44730, Note_on_c, 2, 57, 58
4, 44768, Note_on_c, 2, 57, 0
4, 44848, Note_on_c, 2, 55, 74
4, 44885, Note_on_c, 2, 55, 0
4, 44897, Note_on_c, 2, 56, 57
4, 44928, Note_on_c, 2, 56, 0
4, 44933, Note_on_c, 2, 58, 48
4, 44955, Note_on_c, 2, 58, 0
4, 44965, Note_on_c, 2, 60, 64
4, 44986, Note_on_c, 2, 60, 0
4, 44997, Note_on_c, 2, 62, 66
4, 45020, Note_on_c, 2, 62, 0
4, 45031, Note_on_c, 2, 63, 52
4, 45050, Note_on_c, 2, 63, 0
4, 45060, Note_on_c, 2, 65, 55
4, 45081, Note_on_c, 2, 65, 0
4, 45092, Note_on_c, 2, 67, 42
4, 45113, Note_on_c, 2, 67, 0
4, 45123, Note_on_c, 2, 69, 51
4, 45152, Note_on_c, 2, 69, 0
4, 45158, Note_on_c, 2, 70, 44
4, 45186, Note_on_c, 2, 70, 0
4, 45192, Note_on_c, 2, 71, 48
4, 45210, Note_on_c, 2, 71, 0
4, 45221, Note_on_c, 2, 74, 70
4, 45246, Note_on_c, 2, 74, 0
4, 45257, Note_on_c, 2, 71, 44
4, 45273, Note_on_c, 2, 71, 0
4, 45288, Note_on_c, 2, 72, 70
4, 45556, Note_on_c, 2, 72, 0
4, 45562, Note_on_c, 2, 69, 66
4, 45586, Note_on_c, 2, 69, 0
4, 45635, Note_on_c, 2, 77, 74
4, 45697, Note_on_c, 2, 77, 0
4, 45722, Note_on_c, 2, 76, 77
4, 45796, Note_on_c, 2, 76, 0
4, 45805, Note_on_c, 2, 72, 55
4, 45927, Note_on_c, 2, 72, 0
4, 45931, Note_on_c, 2, 67, 41
4, 45941, Note_on_c, 2, 67, 0
4, 45983, Note_on_c, 2, 77, 89
4, 46077, Note_on_c, 2, 77, 0
4, 46095, Note_on_c, 2, 76, 69
4, 46158, Note_on_c, 2, 76, 0
4, 46168, Note_on_c, 2, 72, 50
4, 46196, Note_on_c, 2, 72, 0
4, 46216, Note_on_c, 2, 69, 42
4, 46283, Note_on_c, 2, 69, 0
4, 46442, Note_on_c, 2, 77, 89
4, 46542, Note_on_c, 2, 77, 0
4, 46560, Note_on_c, 2, 76, 85
4, 46627, Note_on_c, 2, 76, 0
4, 46641, Note_on_c, 2, 72, 75
4, 46677, Note_on_c, 2, 72, 0
4, 46690, Note_on_c, 2, 67, 48
4, 46750, Note_on_c, 2, 67, 0
4, 46765, Note_on_c, 2, 65, 75
4, 46793, Note_on_c, 2, 65, 0
4, 46821, Note_on_c, 2, 63, 63
4, 46841, Note_on_c, 2, 64, 73
4, 46845, Note_on_c, 2, 63, 0
4, 46878, Note_on_c, 2, 64, 0
4, 46891, Note_on_c, 2, 65, 78
4, 46926, Note_on_c, 2, 65, 0
4, 46945, Note_on_c, 2, 66, 50
4, 46988, Note_on_c, 2, 66, 0
4, 47007, Note_on_c, 2, 67, 74
4, 47030, Note_on_c, 2, 67, 0
4, 47061, Note_on_c, 2, 63, 44
4, 47087, Note_on_c, 2, 63, 0
4, 47095, Note_on_c, 2, 64, 51
4, 47150, Note_on_c, 2, 64, 0
4, 47168, Note_on_c, 2, 60, 44
4, 47245, Note_on_c, 2, 60, 0
4, 47282, Note_on_c, 2, 60, 40
4, 47370, Note_on_c, 2, 60, 0
4, 47610, Note_on_c, 2, 68, 83
4, 47611, Note_on_c, 2, 69, 94
4, 47617, Note_on_c, 2, 68, 0
4, 47677, Note_on_c, 2, 69, 0
4, 47695, Note_on_c, 2, 66, 69
4, 47700, Note_on_c, 2, 67, 72
4, 47715, Note_on_c, 2, 66, 0
4, 47766, Note_on_c, 2, 67, 0
4, 47801, Note_on_c, 2, 63, 69
4, 47805, Note_on_c, 2, 64, 76
4, 47820, Note_on_c, 2, 63, 0
4, 47876, Note_on_c, 2, 64, 0
4, 47890, Note_on_c, 2, 62, 63
4, 47942, Note_on_c, 2, 62, 0
4, 47957, Note_on_c, 2, 62, 45
4, 47961, Note_on_c, 2, 63, 69
4, 47972, Note_on_c, 2, 63, 0
4, 47972, Note_on_c, 2, 62, 0
4, 47973, Note_on_c, 2, 64, 59
4, 48253, Note_on_c, 2, 64, 0
4, 48362, Note_on_c, 2, 55, 61
4, 48385, Note_on_c, 2, 55, 0
4, 48390, Note_on_c, 2, 57, 58
4, 48408, Note_on_c, 2, 57, 0
4, 48423, Note_on_c, 2, 57, 71
4, 48443, Note_on_c, 2, 57, 0
4, 48452, Note_on_c, 2, 59, 65
4, 48471, Note_on_c, 2, 59, 0
4, 48486, Note_on_c, 2, 59, 64
4, 48507, Note_on_c, 2, 59, 0
4, 48513, Note_on_c, 2, 60, 62
4, 48533, Note_on_c, 2, 60, 0
4, 48542, Note_on_c, 2, 60, 61
4, 48562, Note_on_c, 2, 60, 0
4, 48570, Note_on_c, 2, 62, 73
4, 48586, Note_on_c, 2, 62, 0
4, 48598, Note_on_c, 2, 62, 74
4, 48622, Note_on_c, 2, 62, 0
4, 48626, Note_on_c, 2, 64, 69
4, 48641, Note_on_c, 2, 64, 0
4, 48656, Note_on_c, 2, 64, 73
4, 48681, Note_on_c, 2, 64, 0
4, 48686, Note_on_c, 2, 65, 66
4, 48705, Note_on_c, 2, 65, 0
4, 48720, Note_on_c, 2, 65, 64
4, 48741, Note_on_c, 2, 65, 0
4, 48748, Note_on_c, 2, 67, 67
4, 48766, Note_on_c, 2, 67, 0
4, 48780, Note_on_c, 2, 67, 68
4, 48790, Note_on_c, 2, 67, 0
4, 48885, Note_on_c, 2, 69, 70
4, 48903, Note_on_c, 2, 69, 0
4, 48916, Note_on_c, 2, 70, 71
4, 48933, Note_on_c, 2, 70, 0
4, 48948, Note_on_c, 2, 71, 69
4, 48971, Note_on_c, 2, 71, 0
4, 48983, Note_on_c, 2, 74, 84
4, 49010, Note_on_c, 2, 74, 0
4, 49013, Note_on_c, 2, 71, 57
4, 49033, Note_on_c, 2, 71, 0
4, 49051, Note_on_c, 2, 67, 62
4, 49070, Note_on_c, 2, 67, 0
4, 49091, Note_on_c, 2, 64, 47
4, 49143, Note_on_c, 2, 64, 0
4, 49166, Note_on_c, 2, 64, 71
4, 49188, Note_on_c, 2, 64, 0
4, 49217, Note_on_c, 2, 67, 66
4, 49271, Note_on_c, 2, 66, 45
4, 49277, Note_on_c, 2, 67, 0
4, 49292, Note_on_c, 2, 66, 0
4, 49293, Note_on_c, 2, 65, 60
4, 49317, Note_on_c, 2, 65, 0
4, 49322, Note_on_c, 2, 64, 45
4, 49393, Note_on_c, 2, 64, 0
4, 49400, Note_on_c, 2, 67, 80
4, 49557, Note_on_c, 2, 67, 0
4, 49562, Note_on_c, 2, 64, 56
4, 49636, Note_on_c, 2, 64, 0
4, 49643, Note_on_c, 2, 67, 71
4, 49677, Note_on_c, 2, 67, 0
4, 49688, Note_on_c, 2, 72, 71
4, 49742, Note_on_c, 2, 72, 0
4, 49763, Note_on_c, 2, 72, 64
4, 49780, Note_on_c, 2, 72, 0
4, 49815, Note_on_c, 2, 67, 75
4, 49856, Note_on_c, 2, 66, 50
4, 49860, Note_on_c, 2, 67, 0
4, 49875, Note_on_c, 2, 65, 49
4, 49877, Note_on_c, 2, 66, 0
4, 49901, Note_on_c, 2, 65, 0
4, 49901, Note_on_c, 2, 64, 47
4, 49930, Note_on_c, 2, 64, 0
4, 49948, Note_on_c, 2, 67, 78
4, 50360, Note_on_c, 2, 67, 0
4, 50641, Note_on_c, 2, 68, 85
4, 50660, Note_on_c, 2, 68, 0
4, 50667, Note_on_c, 2, 69, 71
4, 50683, Note_on_c, 2, 69, 0
4, 50698, Note_on_c, 2, 69, 68
4, 50713, Note_on_c, 2, 69, 0
4, 50727, Note_on_c, 2, 69, 67
4, 50746, Note_on_c, 2, 69, 0
4, 50758, Note_on_c, 2, 70, 76
4, 50791, Note_on_c, 2, 71, 73
4, 50793, Note_on_c, 2, 70, 0
4, 50806, Note_on_c, 2, 71, 0
4, 50823, Note_on_c, 2, 71, 40
4, 50835, Note_on_c, 2, 71, 0
4, 50861, Note_on_c, 2, 71, 55
4, 50877, Note_on_c, 2, 71, 0
4, 50898, Note_on_c, 2, 74, 71
4, 50945, Note_on_c, 2, 74, 0
4, 50953, Note_on_c, 2, 71, 28
4, 50970, Note_on_c, 2, 71, 0
4, 50986, Note_on_c, 2, 72, 54
4, 51311, Note_on_c, 2, 72, 0
4, 51333, Note_on_c, 2, 69, 49
4, 51343, Note_on_c, 2, 69, 0
4, 51371, Note_on_c, 2, 70, 32
4, 51376, Note_on_c, 2, 71, 67
4, 51378, Note_on_c, 2, 70, 0
4, 51401, Note_on_c, 2, 71, 0
4, 51402, Note_on_c, 2, 72, 55
4, 51425, Note_on_c, 2, 72, 0
4, 51496, Note_on_c, 2, 73, 64
4, 51516, Note_on_c, 2, 74, 64
4, 51521, Note_on_c, 2, 73, 0
4, 51693, Note_on_c, 2, 74, 0
4, 51720, Note_on_c, 2, 70, 71
4, 51738, Note_on_c, 2, 71, 72
4, 51747, Note_on_c, 2, 70, 0
4, 51773, Note_on_c, 2, 71, 0
4, 51801, Note_on_c, 2, 70, 68
4, 51818, Note_on_c, 2, 71, 63
4, 51833, Note_on_c, 2, 70, 0
4, 51847, Note_on_c, 2, 71, 0
4, 51872, Note_on_c, 2, 68, 64
4, 51891, Note_on_c, 2, 69, 65
4, 51900, Note_on_c, 2, 68, 0
4, 51940, Note_on_c, 2, 69, 0
4, 51961, Note_on_c, 2, 68, 56
4, 51975, Note_on_c, 2, 69, 74
4, 51977, Note_on_c, 2, 68, 0
4, 52275, Note_on_c, 2, 69, 0
4, 52282, Note_on_c, 2, 62, 42
4, 52292, Note_on_c, 2, 62, 0
4, 52326, Note_on_c, 2, 66, 60
4, 52343, Note_on_c, 2, 66, 0
4, 52356, Note_on_c, 2, 67, 68
4, 52371, Note_on_c, 2, 67, 0
4, 52385, Note_on_c, 2, 67, 71
4, 52398, Note_on_c, 2, 67, 0
4, 52413, Note_on_c, 2, 67, 70
4, 52436, Note_on_c, 2, 67, 0
4, 52447, Note_on_c, 2, 66, 60
4, 52458, Note_on_c, 2, 66, 0
4, 52473, Note_on_c, 2, 67, 59
4, 52487, Note_on_c, 2, 67, 0
4, 52502, Note_on_c, 2, 67, 64
4, 52520, Note_on_c, 2, 67, 0
4, 52533, Note_on_c, 2, 67, 69
4, 52551, Note_on_c, 2, 67, 0
4, 52572, Note_on_c, 2, 63, 44
4, 52752, Note_on_c, 2, 63, 0
4, 52761, Note_on_c, 2, 59, 39
4, 52771, Note_on_c, 2, 59, 0
4, 52800, Note_on_c, 2, 66, 58
4, 52821, Note_on_c, 2, 66, 0
4, 52827, Note_on_c, 2, 67, 62
4, 52898, Note_on_c, 2, 67, 0
4, 52918, Note_on_c, 2, 64, 52
4, 52997, Note_on_c, 2, 64, 0
4, 53006, Note_on_c, 2, 59, 46
4, 53190, Note_on_c, 2, 59, 0
4, 53343, Note_on_c, 2, 65, 30
4, 53351, Note_on_c, 2, 66, 79
4, 53361, Note_on_c, 2, 65, 0
4, 53367, Note_on_c, 2, 67, 64
4, 53375, Note_on_c, 2, 66, 0
4, 53387, Note_on_c, 2, 67, 0
4, 53413, Note_on_c, 2, 67, 77
4, 53445, Note_on_c, 2, 67, 0
4, 53472, Note_on_c, 2, 67, 79
4, 53498, Note_on_c, 2, 67, 0
4, 53517, Note_on_c, 2, 67, 47
4, 53525, Note_on_c, 2, 68, 65
4, 53531, Note_on_c, 2, 67, 0
4, 53547, Note_on_c, 2, 69, 65
4, 53557, Note_on_c, 2, 68, 0
4, 53572, Note_on_c, 2, 69, 0
4, 53606, Note_on_c, 2, 76, 82
4, 53643, Note_on_c, 2, 76, 0
4, 53671, Note_on_c, 2, 75, 67
4, 53698, Note_on_c, 2, 75, 0
4, 53727, Note_on_c, 2, 70, 46
4, 53766, Note_on_c, 2, 70, 0
4, 53778, Note_on_c, 2, 74, 80
4, 53830, Note_on_c, 2, 74, 0
4, 53847, Note_on_c, 2, 72, 79
4, 53875, Note_on_c, 2, 72, 0
4, 53898, Note_on_c, 2, 68, 35
4, 53963, Note_on_c, 2, 68, 0
4, 53968, Note_on_c, 2, 65, 66
4, 53998, Note_on_c, 2, 65, 0
4, 54032, Note_on_c, 2, 60, 18
4, 54091, Note_on_c, 2, 60, 0
4, 54403, Note_on_c, 2, 55, 70
4, 54417, Note_on_c, 2, 55, 0
4, 54435, Note_on_c, 2, 56, 69
4, 54455, Note_on_c, 2, 56, 0
4, 54472, Note_on_c, 2, 58, 51
4, 54500, Note_on_c, 2, 58, 0
4, 54510, Note_on_c, 2, 59, 55
4, 54536, Note_on_c, 2, 59, 0
4, 54553, Note_on_c, 2, 61, 62
4, 54596, Note_on_c, 2, 62, 64
4, 54597, Note_on_c, 2, 61, 0
4, 54617, Note_on_c, 2, 62, 0
4, 54627, Note_on_c, 2, 63, 59
4, 54655, Note_on_c, 2, 63, 0
4, 54658, Note_on_c, 2, 64, 62
4, 54678, Note_on_c, 2, 64, 0
4, 54683, Note_on_c, 2, 65, 40
4, 54710, Note_on_c, 2, 65, 0
4, 54711, Note_on_c, 2, 66, 60
4, 54740, Note_on_c, 2, 66, 0
4, 54745, Note_on_c, 2, 67, 58
4, 54937, Note_on_c, 2, 67, 0
4, 54951, Note_on_c, 2, 70, 70
4, 54965, Note_on_c, 2, 71, 65
4, 54977, Note_on_c, 2, 70, 0
4, 55188, Note_on_c, 2, 71, 0
4, 55188, Note_on_c, 2, 67, 35
4, 55205, Note_on_c, 2, 68, 68
4, 55212, Note_on_c, 2, 67, 0
4, 55223, Note_on_c, 2, 69, 74
4, 55232, Note_on_c, 2, 68, 0
4, 55257, Note_on_c, 2, 69, 0
4, 55281, Note_on_c, 2, 69, 84
4, 55318, Note_on_c, 2, 69, 0
4, 55351, Note_on_c, 2, 66, 55
4, 55368, Note_on_c, 2, 67, 66
4, 55375, Note_on_c, 2, 66, 0
4, 55395, Note_on_c, 2, 67, 0
4, 55422, Note_on_c, 2, 66, 32
4, 55433, Note_on_c, 2, 67, 57
4, 55447, Note_on_c, 2, 66, 0
4, 55458, Note_on_c, 2, 67, 0
4, 55503, Note_on_c, 2, 64, 51
4, 55506, Note_on_c, 2, 62, 36
4, 55515, Note_on_c, 2, 62, 0
4, 55553, Note_on_c, 2, 64, 0
4, 55570, Note_on_c, 2, 62, 59
4, 55663, Note_on_c, 2, 62, 0
4, 55702, Note_on_c, 2, 63, 46
4, 55712, Note_on_c, 2, 63, 0
4, 55716, Note_on_c, 2, 64, 73
4, 55762, Note_on_c, 2, 64, 0
4, 55782, Note_on_c, 2, 63, 36
4, 55793, Note_on_c, 2, 64, 54
4, 55802, Note_on_c, 2, 63, 0
4, 55831, Note_on_c, 2, 64, 0
4, 55850, Note_on_c, 2, 63, 35
4, 55868, Note_on_c, 2, 64, 55
4, 55872, Note_on_c, 2, 63, 0
4, 55888, Note_on_c, 2, 64, 0
4, 55921, Note_on_c, 2, 55, 33
4, 55942, Note_on_c, 2, 55, 0
4, 55970, Note_on_c, 2, 55, 48
4, 56240, Note_on_c, 2, 55, 0
4, 56371, Note_on_c, 2, 64, 91
4, 56373, Note_on_c, 2, 67, 78
4, 56400, Note_on_c, 2, 64, 0
4, 56401, Note_on_c, 2, 67, 0
4, 56438, Note_on_c, 2, 64, 62
4, 56440, Note_on_c, 2, 60, 52
4, 56485, Note_on_c, 2, 64, 0
4, 56491, Note_on_c, 2, 60, 0
4, 56517, Note_on_c, 2, 59, 40
4, 56517, Note_on_c, 2, 62, 51
4, 56581, Note_on_c, 2, 59, 0
4, 56593, Note_on_c, 2, 62, 0
4, 56645, Note_on_c, 2, 63, 42
4, 56660, Note_on_c, 2, 63, 0
4, 56665, Note_on_c, 2, 64, 35
4, 56712, Note_on_c, 2, 64, 0
4, 56730, Note_on_c, 2, 67, 83
4, 56757, Note_on_c, 2, 67, 0
4, 56788, Note_on_c, 2, 67, 69
4, 56808, Note_on_c, 2, 67, 0
4, 56848, Note_on_c, 2, 67, 75
4, 56881, Note_on_c, 2, 67, 0
4, 56905, Note_on_c, 2, 63, 53
4, 56918, Note_on_c, 2, 64, 50
4, 56922, Note_on_c, 2, 63, 0
4, 57077, Note_on_c, 2, 64, 0
4, 57083, Note_on_c, 2, 62, 65
4, 57102, Note_on_c, 2, 62, 0
4, 57136, Note_on_c, 2, 63, 63
4, 57160, Note_on_c, 2, 63, 0
4, 57165, Note_on_c, 2, 64, 71
4, 57187, Note_on_c, 2, 64, 0
4, 57203, Note_on_c, 2, 64, 66
4, 57222, Note_on_c, 2, 64, 0
4, 57236, Note_on_c, 2, 64, 73
4, 57260, Note_on_c, 2, 64, 0
4, 57271, Note_on_c, 2, 63, 68
4, 57291, Note_on_c, 2, 63, 0
4, 57303, Note_on_c, 2, 64, 62
4, 57320, Note_on_c, 2, 64, 0
4, 57337, Note_on_c, 2, 64, 51
4, 57388, Note_on_c, 2, 64, 0
4, 57406, Note_on_c, 2, 72, 74
4, 57438, Note_on_c, 2, 72, 0
4, 57467, Note_on_c, 2, 72, 77
4, 57493, Note_on_c, 2, 72, 0
4, 57521, Note_on_c, 2, 72, 75
4, 57551, Note_on_c, 2, 72, 0
4, 57571, Note_on_c, 2, 64, 68
4, 57598, Note_on_c, 2, 64, 0
4, 57630, Note_on_c, 2, 67, 77
4, 57686, Note_on_c, 2, 66, 43
4, 57690, Note_on_c, 2, 67, 0
4, 57706, Note_on_c, 2, 65, 60
4, 57711, Note_on_c, 2, 66, 0
4, 57733, Note_on_c, 2, 65, 0
4, 57737, Note_on_c, 2, 64, 41
4, 57815, Note_on_c, 2, 64, 0
4, 57817, Note_on_c, 2, 61, 48
4, 57870, Note_on_c, 2, 61, 0
4, 57873, Note_on_c, 2, 64, 56
4, 57905, Note_on_c, 2, 64, 0
4, 57911, Note_on_c, 2, 61, 55
4, 57940, Note_on_c, 2, 61, 0
4, 57946, Note_on_c, 2, 62, 62
4, 58087, Note_on_c, 2, 62, 0
4, 58321, Note_on_c, 2, 69, 94
4, 58321, Note_on_c, 2, 65, 85
4, 58373, Note_on_c, 2, 65, 0
4, 58385, Note_on_c, 2, 69, 0
4, 58393, Note_on_c, 2, 69, 54
4, 58395, Note_on_c, 2, 65, 48
4, 58432, Note_on_c, 2, 65, 0
4, 58456, Note_on_c, 2, 69, 0
4, 58480, Note_on_c, 2, 64, 64
4, 58481, Note_on_c, 2, 71, 66
4, 58526, Note_on_c, 2, 64, 0
4, 58540, Note_on_c, 2, 71, 0
4, 58566, Note_on_c, 2, 72, 61
4, 58862, Note_on_c, 2, 72, 0
4, 58966, Note_on_c, 2, 70, 54
4, 58971, Note_on_c, 2, 71, 79
4, 58981, Note_on_c, 2, 70, 0
4, 58992, Note_on_c, 2, 72, 79
4, 59001, Note_on_c, 2, 71, 0
4, 59027, Note_on_c, 2, 72, 0
4, 59045, Note_on_c, 2, 72, 78
4, 59073, Note_on_c, 2, 72, 0
4, 59107, Note_on_c, 2, 72, 87
4, 59150, Note_on_c, 2, 72, 0
4, 59172, Note_on_c, 2, 74, 95
4, 59480, Note_on_c, 2, 74, 0
4, 59486, Note_on_c, 2, 71, 81
4, 59537, Note_on_c, 2, 71, 0
4, 59552, Note_on_c, 2, 70, 59
4, 59708, Note_on_c, 2, 69, 62
4, 59715, Note_on_c, 2, 70, 0
4, 59723, Note_on_c, 2, 68, 51
4, 59727, Note_on_c, 2, 69, 0
4, 59755, Note_on_c, 2, 67, 57
4, 59763, Note_on_c, 2, 68, 0
4, 59777, Note_on_c, 2, 67, 0
4, 59798, Note_on_c, 2, 70, 82
4, 59978, Note_on_c, 2, 68, 49
4, 59981, Note_on_c, 2, 70, 0
4, 59986, Note_on_c, 2, 68, 0
4, 60026, Note_on_c, 2, 69, 99
4, 60077, Note_on_c, 2, 68, 38
4, 60087, Note_on_c, 2, 69, 0
4, 60091, Note_on_c, 2, 67, 53
4, 60100, Note_on_c, 2, 68, 0
4, 60110, Note_on_c, 2, 67, 0
4, 60115, Note_on_c, 2, 65, 44
4, 60132, Note_on_c, 2, 64, 67
4, 60135, Note_on_c, 2, 65, 0
4, 60216, Note_on_c, 2, 64, 0
4, 60221, Note_on_c, 2, 67, 80
4, 60262, Note_on_c, 2, 67, 0
4, 60280, Note_on_c, 2, 65, 64
4, 60330, Note_on_c, 2, 65, 0
4, 60347, Note_on_c, 2, 60, 38
4, 60373, Note_on_c, 2, 60, 0
4, 60392, Note_on_c, 2, 56, 46
4, 60431, Note_on_c, 2, 56, 0
4, 60465, Note_on_c, 2, 55, 56
4, 60487, Note_on_c, 2, 55, 0
4, 60508, Note_on_c, 2, 64, 63
4, 60578, Note_on_c, 2, 64, 0
4, 60581, Note_on_c, 2, 63, 53
4, 60597, Note_on_c, 2, 63, 0
4, 60625, Note_on_c, 2, 64, 47
4, 60678, Note_on_c, 2, 64, 0
4, 60696, Note_on_c, 2, 63, 37
4, 60720, Note_on_c, 2, 63, 0
4, 60735, Note_on_c, 2, 64, 45
4, 60803, Note_on_c, 2, 64, 0
4, 60808, Note_on_c, 2, 69, 53
4, 61041, Note_on_c, 2, 69, 0
4, 61091, Note_on_c, 2, 65, 78
4, 61161, Note_on_c, 2, 65, 0
4, 61173, Note_on_c, 2, 64, 32
4, 61195, Note_on_c, 2, 64, 0
4, 61210, Note_on_c, 2, 65, 50
4, 61285, Note_on_c, 2, 72, 79
4, 61295, Note_on_c, 2, 65, 0
4, 61441, Note_on_c, 2, 72, 0
4, 61451, Note_on_c, 2, 71, 74
4, 61516, Note_on_c, 2, 71, 0
4, 61566, Note_on_c, 2, 71, 71
4, 61642, Note_on_c, 2, 71, 0
4, 61647, Note_on_c, 2, 67, 62
4, 61906, Note_on_c, 2, 67, 0
4, 62248, Note_on_c, 2, 72, 57
4, 62256, Note_on_c, 2, 72, 0
4, 62315, Note_on_c, 2, 74, 63
4, 62315, Note_on_c, 2, 76, 57
4, 62322, Note_on_c, 2, 76, 0
4, 62333, Note_on_c, 2, 74, 0
4, 62376, Note_on_c, 2, 75, 77
4, 62402, Note_on_c, 2, 75, 0
4, 62422, Note_on_c, 2, 76, 68
4, 62473, Note_on_c, 2, 76, 0
4, 62488, Note_on_c, 2, 76, 75
4, 62518, Note_on_c, 2, 76, 0
4, 62538, Note_on_c, 2, 76, 60
4, 62563, Note_on_c, 2, 76, 0
4, 62610, Note_on_c, 2, 76, 71
4, 62641, Note_on_c, 2, 76, 0
4, 62667, Note_on_c, 2, 74, 74
4, 62733, Note_on_c, 2, 74, 0
4, 62887, Note_on_c, 2, 62, 80
4, 62951, Note_on_c, 2, 62, 0
4, 62965, Note_on_c, 2, 62, 74
4, 62996, Note_on_c, 2, 62, 0
4, 63011, Note_on_c, 2, 62, 53
4, 63037, Note_on_c, 2, 62, 0
4, 63082, Note_on_c, 2, 62, 49
4, 63108, Note_on_c, 2, 62, 0
4, 63126, Note_on_c, 2, 72, 68
4, 63158, Note_on_c, 2, 72, 0
4, 63205, Note_on_c, 2, 62, 37
4, 63215, Note_on_c, 2, 62, 0
4, 63246, Note_on_c, 2, 71, 79
4, 63288, Note_on_c, 2, 71, 0
4, 63335, Note_on_c, 2, 72, 105
4, 63612, Note_on_c, 2, 72, 0
4, 63641, Note_on_c, 2, 75, 38
4, 63660, Note_on_c, 2, 75, 0
4, 63672, Note_on_c, 2, 76, 54
4, 63692, Note_on_c, 2, 76, 0
4, 63710, Note_on_c, 2, 79, 59
4, 63725, Note_on_c, 2, 79, 0
4, 63751, Note_on_c, 2, 81, 46
4, 63765, Note_on_c, 2, 81, 0
4, 63787, Note_on_c, 2, 84, 66
4, 63812, Note_on_c, 2, 84, 0
4, 63836, Note_on_c, 2, 87, 46
4, 63851, Note_on_c, 2, 87, 0
4, 63875, Note_on_c, 2, 88, 38
4, 63893, Note_on_c, 2, 88, 0
4, 63911, Note_on_c, 2, 89, 49
4, 63935, Note_on_c, 2, 89, 0
4, 63960, Note_on_c, 2, 90, 31
4, 63977, Note_on_c, 2, 90, 0
4, 64026, Note_on_c, 2, 90, 55
4, 64050, Note_on_c, 2, 90, 0
4, 64051, Note_on_c, 2, 91, 46
4, 64110, Note_on_c, 2, 91, 0
4, 64112, Note_on_c, 2, 84, 43
4, 64553, Note_on_c, 2, 84, 0
4, 64553, End_track
5, 0, Start_track
5, 0, Program_c, 9, 32
5, 0, Control_c, 9, 7, 80
5, 480, Note_on_c, 9, 24, 34
5, 516, Note_on_c, 9, 24, 0
5, 596, Note_on_c, 9, 24, 36
5, 633, Note_on_c, 9, 24, 0
5, 716, Note_on_c, 9, 24, 27
5, 756, Note_on_c, 9, 24, 0
5, 836, Note_on_c, 9, 24, 40
5, 843, Note_on_c, 9, 24, 0
5, 927, Note_on_c, 9, 35, 58
5, 927, Note_on_c, 9, 53, 45
5, 935, Note_on_c, 9, 53, 0
5, 950, Note_on_c, 9, 35, 0
5, 960, Note_on_c, 9, 46, 34
5, 1070, Note_on_c, 9, 42, 37
5, 1071, Note_on_c, 9, 46, 0
5, 1107, Note_on_c, 9, 42, 0
5, 1157, Note_on_c, 9, 46, 31
5, 1178, Note_on_c, 9, 46, 0
5, 1196, Note_on_c, 9, 46, 31
5, 1322, Note_on_c, 9, 46, 0
5, 1325, Note_on_c, 9, 42, 53
5, 1345, Note_on_c, 9, 42, 0
5, 1399, Note_on_c, 9, 35, 55
5, 1405, Note_on_c, 9, 46, 74
5, 1423, Note_on_c, 9, 46, 0
5, 1425, Note_on_c, 9, 35, 0
5, 1437, Note_on_c, 9, 46, 60
5, 1441, Note_on_c, 9, 35, 35
5, 1458, Note_on_c, 9, 35, 0
5, 1558, Note_on_c, 9, 46, 0
5, 1562, Note_on_c, 9, 42, 53
5, 1580, Note_on_c, 9, 42, 0
5, 1631, Note_on_c, 9, 35, 60
5, 1639, Note_on_c, 9, 46, 50
5, 1647, Note_on_c, 9, 35, 0
5, 1660, Note_on_c, 9, 46, 0
5, 1677, Note_on_c, 9, 46, 62
5, 1800, Note_on_c, 9, 46, 0
5, 1800, Note_on_c, 9, 42, 50
5, 1835, Note_on_c, 9, 42, 0
5, 1880, Note_on_c, 9, 46, 55
5, 1881, Note_on_c, 9, 35, 39
5, 1891, Note_on_c, 9, 35, 0
5, 1895, Note_on_c, 9, 46, 0
5, 1915, Note_on_c, 9, 46, 39
5, 1920, Note_on_c, 9, 35, 49
5, 1930, Note_on_c, 9, 35, 0
5, 2035, Note_on_c, 9, 46, 0
5, 2035, Note_on_c, 9, 42, 48
5, 2119, Note_on_c, 9, 46, 51
5, 2130, Note_on_c, 9, 42, 0
5, 2135, Note_on_c, 9, 46, 0
5, 2147, Note_on_c, 9, 35, 55
5, 2155, Note_on_c, 9, 35, 0
5, 2160, Note_on_c, 9, 46, 48
5, 2281, Note_on_c, 9, 46, 0
5, 2281, Note_on_c, 9, 42, 52
5, 2288, Note_on_c, 9, 42, 0
5, 2315, Note_on_c, 9, 42, 68
5, 2330, Note_on_c, 9, 42, 0
5, 2351, Note_on_c, 9, 46, 55
5, 2369, Note_on_c, 9, 46, 0
5, 2395, Note_on_c, 9, 46, 56
5, 2402, Note_on_c, 9, 35, 35
5, 2410, Note_on_c, 9, 35, 0
5, 2521, Note_on_c, 9, 42, 55
5, 2524, Note_on_c, 9, 46, 0
5, 2590, Note_on_c, 9, 35, 57
5, 2595, Note_on_c, 9, 46, 49
5, 2596, Note_on_c, 9, 35, 0
5, 2611, Note_on_c, 9, 42, 0
5, 2612, Note_on_c, 9, 46, 0
5, 2636, Note_on_c, 9, 46, 46
5, 2648, Note_on_c, 9, 46, 0
5, 2675, Note_on_c, 9, 42, 51
5, 2682, Note_on_c, 9, 42, 0
5, 2715, Note_on_c, 9, 42, 67
5, 2728, Note_on_c, 9, 42, 0
5, 2755, Note_on_c, 9, 37, 39
5, 2757, Note_on_c, 9, 42, 75
5, 2760, Note_on_c, 9, 37, 0
5, 2775, Note_on_c, 9, 42, 0
5, 2790, Note_on_c, 9, 37, 78
5, 2791, Note_on_c, 9, 46, 57
5, 2804, Note_on_c, 9, 37, 0
5, 2807, Note_on_c, 9, 46, 0
5, 2832, Note_on_c, 9, 46, 53
5, 2835, Note_on_c, 9, 35, 39
5, 2841, Note_on_c, 9, 35, 0
5, 2844, Note_on_c, 9, 46, 0
5, 2875, Note_on_c, 9, 35, 46
5, 2876, Note_on_c, 9, 46, 62
5, 2886, Note_on_c, 9, 35, 0
5, 2997, Note_on_c, 9, 46, 0
5, 3005, Note_on_c, 9, 42, 59
5, 3021, Note_on_c, 9, 42, 0
5, 3076, Note_on_c, 9, 35, 42
5, 3079, Note_on_c, 9, 46, 50
5, 3084, Note_on_c, 9, 35, 0
5, 3095, Note_on_c, 9, 46, 0
5, 3120, Note_on_c, 9, 46, 52
5, 3235, Note_on_c, 9, 46, 0
5, 3240, Note_on_c, 9, 42, 59
5, 3255, Note_on_c, 9, 42, 0
5, 3317, Note_on_c, 9, 46, 59
5, 3333, Note_on_c, 9, 46, 0
5, 3352, Note_on_c, 9, 46, 46
5, 3475, Note_on_c, 9, 46, 0
5, 3480, Note_on_c, 9, 42, 49
5, 3506, Note_on_c, 9, 42, 0
5, 3552, Note_on_c, 9, 46, 50
5, 3567, Note_on_c, 9, 46, 0
5, 3587, Note_on_c, 9, 46, 49
5, 3712, Note_on_c, 9, 46, 0
5, 3715, Note_on_c, 9, 42, 54
5, 3730, Note_on_c, 9, 42, 0
5, 3737, Note_on_c, 9, 35, 30
5, 3747, Note_on_c, 9, 35, 0
5, 3777, Note_on_c, 9, 35, 35
5, 3792, Note_on_c, 9, 46, 45
5, 3799, Note_on_c, 9, 35, 0
5, 3807, Note_on_c, 9, 46, 0
5, 3821, Note_on_c, 9, 35, 40
5, 3830, Note_on_c, 9, 46, 53
5, 3848, Note_on_c, 9, 35, 0
5, 3960, Note_on_c, 9, 46, 0
5, 3965, Note_on_c, 9, 42, 36
5, 3975, Note_on_c, 9, 42, 0
5, 4037, Note_on_c, 9, 35, 51
5, 4044, Note_on_c, 9, 35, 0
5, 4049, Note_on_c, 9, 46, 47
5, 4060, Note_on_c, 9, 46, 0
5, 4082, Note_on_c, 9, 46, 58
5, 4097, Note_on_c, 9, 46, 0
5, 4202, Note_on_c, 9, 42, 51
5, 4217, Note_on_c, 9, 42, 0
5, 4282, Note_on_c, 9, 46, 59
5, 4294, Note_on_c, 9, 46, 0
5, 4319, Note_on_c, 9, 46, 64
5, 4324, Note_on_c, 9, 35, 30
5, 4336, Note_on_c, 9, 35, 0
5, 4430, Note_on_c, 9, 46, 0
5, 4436, Note_on_c, 9, 42, 52
5, 4451, Note_on_c, 9, 42, 0
5, 4516, Note_on_c, 9, 46, 61
5, 4530, Note_on_c, 9, 46, 0
5, 4552, Note_on_c, 9, 46, 64
5, 4665, Note_on_c, 9, 46, 0
5, 4676, Note_on_c, 9, 42, 44
5, 4681, Note_on_c, 9, 35, 20
5, 4691, Note_on_c, 9, 42, 0
5, 4692, Note_on_c, 9, 35, 0
5, 4712, Note_on_c, 9, 46, 55
5, 4723, Note_on_c, 9, 46, 0
5, 4750, Note_on_c, 9, 35, 62
5, 4751, Note_on_c, 9, 46, 54
5, 4762, Note_on_c, 9, 46, 0
5, 4765, Note_on_c, 9, 35, 0
5, 4787, Note_on_c, 9, 46, 64
5, 4910, Note_on_c, 9, 46, 0
5, 4917, Note_on_c, 9, 42, 64
5, 4933, Note_on_c, 9, 42, 0
5, 4995, Note_on_c, 9, 35, 31
5, 4996, Note_on_c, 9, 46, 55
5, 5003, Note_on_c, 9, 35, 0
5, 5013, Note_on_c, 9, 46, 0
5, 5037, Note_on_c, 9, 46, 51
5, 5050, Note_on_c, 9, 46, 0
5, 5076, Note_on_c, 9, 42, 57
5, 5091, Note_on_c, 9, 42, 0
5, 5117, Note_on_c, 9, 42, 69
5, 5137, Note_on_c, 9, 42, 0
5, 5160, Note_on_c, 9, 46, 64
5, 5230, Note_on_c, 9, 46, 0
5, 5242, Note_on_c, 9, 46, 46
5, 5255, Note_on_c, 9, 46, 0
5, 5280, Note_on_c, 9, 35, 44
5, 5281, Note_on_c, 9, 46, 60
5, 5336, Note_on_c, 9, 35, 0
5, 5352, Note_on_c, 9, 35, 37
5, 5360, Note_on_c, 9, 35, 0
5, 5381, Note_on_c, 9, 46, 0
5, 5395, Note_on_c, 9, 42, 57
5, 5410, Note_on_c, 9, 42, 0
5, 5471, Note_on_c, 9, 46, 47
5, 5488, Note_on_c, 9, 46, 0
5, 5510, Note_on_c, 9, 46, 51
5, 5631, Note_on_c, 9, 46, 0
5, 5632, Note_on_c, 9, 42, 60
5, 5648, Note_on_c, 9, 42, 0
5, 5716, Note_on_c, 9, 46, 39
5, 5729, Note_on_c, 9, 46, 0
5, 5755, Note_on_c, 9, 46, 49
5, 5757, Note_on_c, 9, 35, 43
5, 5801, Note_on_c, 9, 35, 0
5, 5870, Note_on_c, 9, 46, 0
5, 5876, Note_on_c, 9, 42, 60
5, 5890, Note_on_c, 9, 42, 0
5, 5947, Note_on_c, 9, 35, 90
5, 5956, Note_on_c, 9, 46, 56
5, 5963, Note_on_c, 9, 35, 0
5, 5967, Note_on_c, 9, 46, 0
5, 5990, Note_on_c, 9, 46, 58
5, 6103, Note_on_c, 9, 46, 0
5, 6111, Note_on_c, 9, 42, 56
5, 6130, Note_on_c, 9, 42, 0
5, 6200, Note_on_c, 9, 46, 47
5, 6211, Note_on_c, 9, 46, 0
5, 6235, Note_on_c, 9, 35, 37
5, 6235, Note_on_c, 9, 46, 52
5, 6250, Note_on_c, 9, 35, 0
5, 6351, Note_on_c, 9, 46, 0
5, 6356, Note_on_c, 9, 42, 52
5, 6372, Note_on_c, 9, 42, 0
5, 6440, Note_on_c, 9, 46, 35
5, 6442, Note_on_c, 9, 35, 28
5, 6453, Note_on_c, 9, 46, 0
5, 6460, Note_on_c, 9, 35, 0
5, 6475, Note_on_c, 9, 46, 47
5, 6560, Note_on_c, 9, 42, 56
5, 6561, Note_on_c, 9, 46, 0
5, 6573, Note_on_c, 9, 42, 0
5, 6592, Note_on_c, 9, 42, 54
5, 6613, Note_on_c, 9, 42, 0
5, 6667, Note_on_c, 9, 46, 40
5, 6683, Note_on_c, 9, 46, 0
5, 6700, Note_on_c, 9, 57, 55
5, 6700, Note_on_c, 9, 35, 60
5, 6710, Note_on_c, 9, 46, 49
5, 6712, Note_on_c, 9, 57, 0
5, 6725, Note_on_c, 9, 35, 0
5, 6831, Note_on_c, 9, 46, 0
5, 6835, Note_on_c, 9, 42, 48
5, 6852, Note_on_c, 9, 42, 0
5, 6922, Note_on_c, 9, 46, 44
5, 6935, Note_on_c, 9, 46, 0
5, 6957, Note_on_c, 9, 46, 55
5, 7075, Note_on_c, 9, 57, 55
5, 7075, Note_on_c, 9, 35, 34
5, 7082, Note_on_c, 9, 42, 51
5, 7086, Note_on_c, 9, 57, 0
5, 7087, Note_on_c, 9, 46, 0
5, 7090, Note_on_c, 9, 42, 0
5, 7100, Note_on_c, 9, 35, 0
5, 7116, Note_on_c, 9, 42, 38
5, 7122, Note_on_c, 9, 42, 0
5, 7155, Note_on_c, 9, 46, 45
5, 7167, Note_on_c, 9, 46, 0
5, 7195, Note_on_c, 9, 46, 48
5, 7317, Note_on_c, 9, 42, 53
5, 7321, Note_on_c, 9, 46, 0
5, 7342, Note_on_c, 9, 42, 0
5, 7401, Note_on_c, 9, 46, 38
5, 7416, Note_on_c, 9, 46, 0
5, 7440, Note_on_c, 9, 46, 54
5, 7563, Note_on_c, 9, 46, 0
5, 7563, Note_on_c, 9, 42, 52
5, 7580, Note_on_c, 9, 42, 0
5, 7600, Note_on_c, 9, 46, 42
5, 7610, Note_on_c, 9, 46, 0
5, 7635, Note_on_c, 9, 46, 48
5, 7652, Note_on_c, 9, 46, 0
5, 7675, Note_on_c, 9, 35, 36
5, 7677, Note_on_c, 9, 46, 55
5, 7737, Note_on_c, 9, 35, 0
5, 7755, Note_on_c, 9, 35, 55
5, 7761, Note_on_c, 9, 35, 0
5, 7797, Note_on_c, 9, 46, 0
5, 7800, Note_on_c, 9, 42, 55
5, 7815, Note_on_c, 9, 42, 0
5, 7871, Note_on_c, 9, 46, 51
5, 7884, Note_on_c, 9, 46, 0
5, 7910, Note_on_c, 9, 46, 55
5, 7912, Note_on_c, 9, 35, 43
5, 7970, Note_on_c, 9, 35, 0
5, 7987, Note_on_c, 9, 35, 54
5, 7995, Note_on_c, 9, 35, 0
5, 8035, Note_on_c, 9, 46, 0
5, 8037, Note_on_c, 9, 42, 59
5, 8050, Note_on_c, 9, 42, 0
5, 8117, Note_on_c, 9, 46, 40
5, 8130, Note_on_c, 9, 46, 0
5, 8155, Note_on_c, 9, 46, 51
5, 8195, Note_on_c, 9, 48, 41
5, 8205, Note_on_c, 9, 48, 0
5, 8230, Note_on_c, 9, 48, 62
5, 8242, Note_on_c, 9, 48, 0
5, 8270, Note_on_c, 9, 48, 75
5, 8277, Note_on_c, 9, 46, 0
5, 8277, Note_on_c, 9, 42, 49
5, 8290, Note_on_c, 9, 48, 0
5, 8293, Note_on_c, 9, 42, 0
5, 8310, Note_on_c, 9, 47, 38
5, 8316, Note_on_c, 9, 47, 0
5, 8357, Note_on_c, 9, 46, 40
5, 8368, Note_on_c, 9, 46, 0
5, 8395, Note_on_c, 9, 46, 52
5, 8412, Note_on_c, 9, 46, 0
5, 8440, Note_on_c, 9, 45, 71
5, 8451, Note_on_c, 9, 45, 0
5, 8475, Note_on_c, 9, 45, 80
5, 8487, Note_on_c, 9, 45, 0
5, 8519, Note_on_c, 9, 42, 77
5, 8519, Note_on_c, 9, 43, 74
5, 8530, Note_on_c, 9, 43, 0
5, 8531, Note_on_c, 9, 42, 0
5, 8556, Note_on_c, 9, 35, 79
5, 8573, Note_on_c, 9, 35, 0
5, 8600, Note_on_c, 9, 46, 38
5, 8616, Note_on_c, 9, 46, 0
5, 8637, Note_on_c, 9, 46, 39
5, 8641, Note_on_c, 9, 35, 77
5, 8653, Note_on_c, 9, 35, 0
5, 8757, Note_on_c, 9, 46, 0
5, 8757, Note_on_c, 9, 42, 72
5, 8770, Note_on_c, 9, 42, 0
5, 8831, Note_on_c, 9, 35, 64
5, 8835, Note_on_c, 9, 46, 35
5, 8843, Note_on_c, 9, 35, 0
5, 8847, Note_on_c, 9, 46, 0
5, 8875, Note_on_c, 9, 46, 37
5, 8992, Note_on_c, 9, 46, 0
5, 9000, Note_on_c, 9, 42, 62
5, 9010, Note_on_c, 9, 42, 0
5, 9076, Note_on_c, 9, 46, 48
5, 9087, Note_on_c, 9, 46, 0
5, 9112, Note_on_c, 9, 46, 46
5, 9115, Note_on_c, 9, 35, 37
5, 9169, Note_on_c, 9, 35, 0
5, 9190, Note_on_c, 9, 35, 32
5, 9200, Note_on_c, 9, 35, 0
5, 9225, Note_on_c, 9, 46, 0
5, 9236, Note_on_c, 9, 42, 39
5, 9250, Note_on_c, 9, 42, 0
5, 9312, Note_on_c, 9, 46, 74
5, 9328, Note_on_c, 9, 46, 0
5, 9350, Note_on_c, 9, 46, 71
5, 9461, Note_on_c, 9, 46, 0
5, 9470, Note_on_c, 9, 42, 49
5, 9486, Note_on_c, 9, 42, 0
5, 9555, Note_on_c, 9, 46, 42
5, 9569, Note_on_c, 9, 46, 0
5, 9592, Note_on_c, 9, 46, 50
5, 9592, Note_on_c, 9, 35, 45
5, 9648, Note_on_c, 9, 35, 0
5, 9665, Note_on_c, 9, 35, 38
5, 9675, Note_on_c, 9, 35, 0
5, 9710, Note_on_c, 9, 46, 0
5, 9715, Note_on_c, 9, 42, 50
5, 9730, Note_on_c, 9, 42, 0
5, 9790, Note_on_c, 9, 46, 67
5, 9802, Note_on_c, 9, 46, 0
5, 9831, Note_on_c, 9, 46, 63
5, 9948, Note_on_c, 9, 46, 0
5, 9952, Note_on_c, 9, 42, 44
5, 9972, Note_on_c, 9, 42, 0
5, 10030, Note_on_c, 9, 46, 47
5, 10040, Note_on_c, 9, 46, 0
5, 10070, Note_on_c, 9, 46, 50
5, 10155, Note_on_c, 9, 46, 0
5, 10155, Note_on_c, 9, 42, 39
5, 10162, Note_on_c, 9, 42, 0
5, 10202, Note_on_c, 9, 42, 40
5, 10210, Note_on_c, 9, 42, 0
5, 10270, Note_on_c, 9, 46, 58
5, 10286, Note_on_c, 9, 46, 0
5, 10311, Note_on_c, 9, 46, 58
5, 10428, Note_on_c, 9, 46, 0
5, 10430, Note_on_c, 9, 42, 56
5, 10445, Note_on_c, 9, 42, 0
5, 10505, Note_on_c, 9, 35, 80
5, 10515, Note_on_c, 9, 46, 34
5, 10525, Note_on_c, 9, 35, 0
5, 10527, Note_on_c, 9, 46, 0
5, 10551, Note_on_c, 9, 46, 53
5, 10671, Note_on_c, 9, 42, 55
5, 10675, Note_on_c, 9, 46, 0
5, 10686, Note_on_c, 9, 42, 0
5, 10750, Note_on_c, 9, 35, 66
5, 10757, Note_on_c, 9, 46, 55
5, 10762, Note_on_c, 9, 35, 0
5, 10769, Note_on_c, 9, 46, 0
5, 10795, Note_on_c, 9, 46, 56
5, 10915, Note_on_c, 9, 42, 56
5, 10916, Note_on_c, 9, 46, 0
5, 10931, Note_on_c, 9, 42, 0
5, 11000, Note_on_c, 9, 46, 42
5, 11010, Note_on_c, 9, 46, 0
5, 11035, Note_on_c, 9, 46, 51
5, 11155, Note_on_c, 9, 42, 55
5, 11160, Note_on_c, 9, 46, 0
5, 11171, Note_on_c, 9, 42, 0
5, 11236, Note_on_c, 9, 46, 54
5, 11246, Note_on_c, 9, 46, 0
5, 11272, Note_on_c, 9, 46, 57
5, 11388, Note_on_c, 9, 46, 0
5, 11390, Note_on_c, 9, 42, 48
5, 11403, Note_on_c, 9, 42, 0
5, 11471, Note_on_c, 9, 46, 42
5, 11481, Note_on_c, 9, 46, 0
5, 11506, Note_on_c, 9, 46, 52
5, 11510, Note_on_c, 9, 35, 37
5, 11565, Note_on_c, 9, 35, 0
5, 11592, Note_on_c, 9, 35, 34
5, 11600, Note_on_c, 9, 35, 0
5, 11630, Note_on_c, 9, 42, 54
5, 11631, Note_on_c, 9, 46, 0
5, 11645, Note_on_c, 9, 42, 0
5, 11755, Note_on_c, 9, 46, 61
5, 11866, Note_on_c, 9, 46, 0
5, 11870, Note_on_c, 9, 42, 53
5, 11886, Note_on_c, 9, 42, 0
5, 11952, Note_on_c, 9, 46, 52
5, 11967, Note_on_c, 9, 46, 0
5, 11990, Note_on_c, 9, 46, 53
5, 11990, Note_on_c, 9, 35, 30
5, 12007, Note_on_c, 9, 35, 0
5, 12112, Note_on_c, 9, 46, 0
5, 12112, Note_on_c, 9, 42, 53
5, 12133, Note_on_c, 9, 42, 0
5, 12199, Note_on_c, 9, 46, 55
5, 12207, Note_on_c, 9, 46, 0
5, 12232, Note_on_c, 9, 46, 56
5, 12361, Note_on_c, 9, 42, 67
5, 12362, Note_on_c, 9, 46, 0
5, 12377, Note_on_c, 9, 42, 0
5, 12437, Note_on_c, 9, 46, 52
5, 12450, Note_on_c, 9, 46, 0
5, 12475, Note_on_c, 9, 46, 53
5, 12475, Note_on_c, 9, 57, 66
5, 12475, Note_on_c, 9, 35, 76
5, 12492, Note_on_c, 9, 57, 0
5, 12496, Note_on_c, 9, 35, 0
5, 12600, Note_on_c, 9, 42, 64
5, 12604, Note_on_c, 9, 46, 0
5, 12618, Note_on_c, 9, 42, 0
5, 12716, Note_on_c, 9, 46, 60
5, 12835, Note_on_c, 9, 35, 49
5, 12836, Note_on_c, 9, 42, 57
5, 12838, Note_on_c, 9, 46, 0
5, 12856, Note_on_c, 9, 42, 0
5, 12881, Note_on_c, 9, 35, 0
5, 12907, Note_on_c, 9, 35, 65
5, 12915, Note_on_c, 9, 46, 60
5, 12930, Note_on_c, 9, 46, 0
5, 12930, Note_on_c, 9, 35, 0
5, 12950, Note_on_c, 9, 46, 47
5, 12950, Note_on_c, 9, 35, 62
5, 13006, Note_on_c, 9, 35, 0
5, 13026, Note_on_c, 9, 35, 43
5, 13040, Note_on_c, 9, 35, 0
5, 13072, Note_on_c, 9, 42, 58
5, 13075, Note_on_c, 9, 46, 0
5, 13095, Note_on_c, 9, 42, 0
5, 13155, Note_on_c, 9, 46, 53
5, 13167, Note_on_c, 9, 46, 0
5, 13190, Note_on_c, 9, 46, 54
5, 13320, Note_on_c, 9, 46, 0
5, 13320, Note_on_c, 9, 42, 50
5, 13320, Note_on_c, 9, 37, 37
5, 13325, Note_on_c, 9, 37, 0
5, 13340, Note_on_c, 9, 42, 0
5, 13356, Note_on_c, 9, 37, 37
5, 13363, Note_on_c, 9, 37, 0
5, 13390, Note_on_c, 9, 37, 61
5, 13402, Note_on_c, 9, 46, 35
5, 13405, Note_on_c, 9, 37, 0
5, 13412, Note_on_c, 9, 46, 0
5, 13432, Note_on_c, 9, 37, 64
5, 13435, Note_on_c, 9, 46, 59
5, 13445, Note_on_c, 9, 37, 0
5, 13472, Note_on_c, 9, 35, 42
5, 13482, Note_on_c, 9, 35, 0
5, 13557, Note_on_c, 9, 46, 0
5, 13557, Note_on_c, 9, 35, 55
5, 13560, Note_on_c, 9, 42, 60
5, 13581, Note_on_c, 9, 42, 0
5, 13585, Note_on_c, 9, 35, 0
5, 13640, Note_on_c, 9, 35, 64
5, 13642, Note_on_c, 9, 46, 49
5, 13654, Note_on_c, 9, 46, 0
5, 13657, Note_on_c, 9, 35, 0
5, 13676, Note_on_c, 9, 46, 55
5, 13800, Note_on_c, 9, 42, 57
5, 13806, Note_on_c, 9, 46, 0
5, 13822, Note_on_c, 9, 42, 0
5, 13877, Note_on_c, 9, 46, 36
5, 13893, Note_on_c, 9, 46, 0
5, 13910, Note_on_c, 9, 46, 40
5, 14032, Note_on_c, 9, 42, 56
5, 14037, Note_on_c, 9, 46, 0
5, 14055, Note_on_c, 9, 42, 0
5, 14116, Note_on_c, 9, 46, 43
5, 14127, Note_on_c, 9, 46, 0
5, 14147, Note_on_c, 9, 46, 49
5, 14270, Note_on_c, 9, 42, 67
5, 14278, Note_on_c, 9, 46, 0
5, 14287, Note_on_c, 9, 42, 0
5, 14351, Note_on_c, 9, 46, 43
5, 14366, Note_on_c, 9, 46, 0
5, 14390, Note_on_c, 9, 46, 46
5, 14470, Note_on_c, 9, 46, 0
5, 14511, Note_on_c, 9, 42, 55
5, 14532, Note_on_c, 9, 42, 0
5, 14602, Note_on_c, 9, 46, 48
5, 14605, Note_on_c, 9, 35, 46
5, 14610, Note_on_c, 9, 35, 0
5, 14612, Note_on_c, 9, 46, 0
5, 14631, Note_on_c, 9, 46, 52
5, 14750, Note_on_c, 9, 42, 40
5, 14753, Note_on_c, 9, 46, 0
5, 14776, Note_on_c, 9, 42, 0
5, 14827, Note_on_c, 9, 46, 56
5, 14835, Note_on_c, 9, 35, 54
5, 14843, Note_on_c, 9, 46, 0
5, 14852, Note_on_c, 9, 35, 0
5, 14866, Note_on_c, 9, 46, 56
5, 14879, Note_on_c, 9, 35, 43
5, 14900, Note_on_c, 9, 35, 0
5, 14991, Note_on_c, 9, 42, 33
5, 14995, Note_on_c, 9, 46, 0
5, 14998, Note_on_c, 9, 42, 0
5, 15066, Note_on_c, 9, 46, 55
5, 15071, Note_on_c, 9, 35, 56
5, 15081, Note_on_c, 9, 46, 0
5, 15087, Note_on_c, 9, 35, 0
5, 15106, Note_on_c, 9, 46, 46
5, 15115, Note_on_c, 9, 35, 40
5, 15118, Note_on_c, 9, 46, 0
5, 15127, Note_on_c, 9, 35, 0
5, 15227, Note_on_c, 9, 42, 49
5, 15235, Note_on_c, 9, 42, 0
5, 15311, Note_on_c, 9, 35, 71
5, 15325, Note_on_c, 9, 35, 0
5, 15361, Note_on_c, 9, 53, 58
5, 15383, Note_on_c, 9, 53, 0
5, 15476, Note_on_c, 9, 44, 46
5, 15516, Note_on_c, 9, 44, 0
5, 15565, Note_on_c, 9, 53, 71
5, 15582, Note_on_c, 9, 53, 0
5, 15601, Note_on_c, 9, 53, 66
5, 15617, Note_on_c, 9, 53, 0
5, 15716, Note_on_c, 9, 44, 45
5, 15753, Note_on_c, 9, 44, 0
5, 15806, Note_on_c, 9, 53, 57
5, 15815, Note_on_c, 9, 53, 0
5, 15845, Note_on_c, 9, 53, 55
5, 15852, Note_on_c, 9, 53, 0
5, 15917, Note_on_c, 9, 57, 68
5, 15925, Note_on_c, 9, 57, 0
5, 15956, Note_on_c, 9, 44, 49
5, 15998, Note_on_c, 9, 44, 0
5, 16196, Note_on_c, 9, 44, 49
5, 16238, Note_on_c, 9, 44, 0
5, 16285, Note_on_c, 9, 35, 94
5, 16325, Note_on_c, 9, 51, 45
5, 16335, Note_on_c, 9, 35, 0
5, 16340, Note_on_c, 9, 51, 0
5, 16436, Note_on_c, 9, 44, 52
5, 16442, Note_on_c, 9, 51, 53
5, 16463, Note_on_c, 9, 51, 0
5, 16481, Note_on_c, 9, 44, 0
5, 16520, Note_on_c, 9, 35, 66
5, 16526, Note_on_c, 9, 35, 0
5, 16566, Note_on_c, 9, 51, 52
5, 16585, Note_on_c, 9, 51, 0
5, 16676, Note_on_c, 9, 44, 56
5, 16682, Note_on_c, 9, 51, 56
5, 16713, Note_on_c, 9, 44, 0
5, 16725, Note_on_c, 9, 51, 0
5, 16770, Note_on_c, 9, 51, 45
5, 16782, Note_on_c, 9, 51, 0
5, 16800, Note_on_c, 9, 51, 56
5, 16802, Note_on_c, 9, 35, 45
5, 16835, Note_on_c, 9, 35, 0
5, 16882, Note_on_c, 9, 51, 0
5, 16916, Note_on_c, 9, 44, 48
5, 16921, Note_on_c, 9, 51, 71
5, 16962, Note_on_c, 9, 44, 0
5, 16997, Note_on_c, 9, 35, 64
5, 16998, Note_on_c, 9, 51, 0
5, 17008, Note_on_c, 9, 35, 0
5, 17041, Note_on_c, 9, 51, 64
5, 17105, Note_on_c, 9, 51, 0
5, 17127, Note_on_c, 9, 51, 37
5, 17138, Note_on_c, 9, 51, 0
5, 17155, Note_on_c, 9, 51, 60
5, 17155, Note_on_c, 9, 35, 52
5, 17156, Note_on_c, 9, 44, 52
5, 17203, Note_on_c, 9, 44, 0
5, 17207, Note_on_c, 9, 35, 0
5, 17226, Note_on_c, 9, 35, 54
5, 17246, Note_on_c, 9, 51, 0
5, 17248, Note_on_c, 9, 35, 0
5, 17276, Note_on_c, 9, 51, 69
5, 17357, Note_on_c, 9, 51, 0
5, 17395, Note_on_c, 9, 51, 73
5, 17396, Note_on_c, 9, 44, 57
5, 17436, Note_on_c, 9, 44, 0
5, 17463, Note_on_c, 9, 51, 0
5, 17482, Note_on_c, 9, 51, 58
5, 17500, Note_on_c, 9, 51, 0
5, 17515, Note_on_c, 9, 51, 54
5, 17585, Note_on_c, 9, 51, 0
5, 17601, Note_on_c, 9, 51, 45
5, 17610, Note_on_c, 9, 51, 0
5, 17627, Note_on_c, 9, 35, 49
5, 17635, Note_on_c, 9, 51, 78
5, 17636, Note_on_c, 9, 44, 55
5, 17690, Note_on_c, 9, 35, 0
5, 17691, Note_on_c, 9, 44, 0
5, 17710, Note_on_c, 9, 35, 48
5, 17720, Note_on_c, 9, 35, 0
5, 17722, Note_on_c, 9, 51, 0
5, 17755, Note_on_c, 9, 51, 62
5, 17821, Note_on_c, 9, 51, 0
5, 17841, Note_on_c, 9, 51, 42
5, 17853, Note_on_c, 9, 51, 0
5, 17876, Note_on_c, 9, 44, 56
5, 17877, Note_on_c, 9, 51, 64
5, 17928, Note_on_c, 9, 44, 0
5, 17968, Note_on_c, 9, 51, 0
5, 17997, Note_on_c, 9, 51, 67
5, 18000, Note_on_c, 9, 45, 60
5, 18006, Note_on_c, 9, 45, 0
5, 18035, Note_on_c, 9, 45, 42
5, 18043, Note_on_c, 9, 45, 0
5, 18075, Note_on_c, 9, 51, 0
5, 18116, Note_on_c, 9, 46, 40
5, 18116, Note_on_c, 9, 51, 64
5, 18124, Note_on_c, 9, 45, 68
5, 18132, Note_on_c, 9, 45, 0
5, 18153, Note_on_c, 9, 46, 0
5, 18160, Note_on_c, 9, 45, 60
5, 18167, Note_on_c, 9, 45, 0
5, 18172, Note_on_c, 9, 51, 0
5, 18201, Note_on_c, 9, 35, 68
5, 18206, Note_on_c, 9, 51, 38
5, 18216, Note_on_c, 9, 51, 0
5, 18222, Note_on_c, 9, 35, 0
5, 18237, Note_on_c, 9, 51, 51
5, 18320, Note_on_c, 9, 51, 0
5, 18356, Note_on_c, 9, 44, 40
5, 18357, Note_on_c, 9, 51, 50
5, 18405, Note_on_c, 9, 51, 0
5, 18410, Note_on_c, 9, 44, 0
5, 18431, Note_on_c, 9, 51, 50
5, 18456, Note_on_c, 9, 51, 0
5, 18475, Note_on_c, 9, 59, 49
5, 18503, Note_on_c, 9, 59, 0
5, 18550, Note_on_c, 9, 51, 50
5, 18562, Note_on_c, 9, 51, 0
5, 18590, Note_on_c, 9, 51, 46
5, 18596, Note_on_c, 9, 44, 47
5, 18600, Note_on_c, 9, 35, 33
5, 18635, Note_on_c, 9, 35, 0
5, 18646, Note_on_c, 9, 44, 0
5, 18678, Note_on_c, 9, 51, 0
5, 18680, Note_on_c, 9, 35, 47
5, 18690, Note_on_c, 9, 35, 0
5, 18716, Note_on_c, 9, 51, 53
5, 18793, Note_on_c, 9, 51, 0
5, 18836, Note_on_c, 9, 44, 52
5, 18842, Note_on_c, 9, 51, 48
5, 18876, Note_on_c, 9, 44, 0
5, 18910, Note_on_c, 9, 51, 0
5, 18957, Note_on_c, 9, 51, 60
5, 19025, Note_on_c, 9, 51, 0
5, 19041, Note_on_c, 9, 51, 53
5, 19053, Note_on_c, 9, 51, 0
5, 19076, Note_on_c, 9, 44, 51
5, 19077, Note_on_c, 9, 51, 64
5, 19116, Note_on_c, 9, 44, 0
5, 19157, Note_on_c, 9, 35, 45
5, 19163, Note_on_c, 9, 51, 0
5, 19170, Note_on_c, 9, 35, 0
5, 19197, Note_on_c, 9, 51, 69
5, 19277, Note_on_c, 9, 51, 0
5, 19316, Note_on_c, 9, 44, 46
5, 19317, Note_on_c, 9, 51, 64
5, 19361, Note_on_c, 9, 44, 0
5, 19385, Note_on_c, 9, 51, 0
5, 19407, Note_on_c, 9, 51, 39
5, 19417, Note_on_c, 9, 51, 0
5, 19431, Note_on_c, 9, 35, 56
5, 19437, Note_on_c, 9, 51, 48
5, 19441, Note_on_c, 9, 35, 0
5, 19517, Note_on_c, 9, 51, 0
5, 19555, Note_on_c, 9, 51, 79
5, 19556, Note_on_c, 9, 44, 56
5, 19601, Note_on_c, 9, 44, 0
5, 19627, Note_on_c, 9, 51, 0
5, 19637, Note_on_c, 9, 35, 32
5, 19647, Note_on_c, 9, 35, 0
5, 19651, Note_on_c, 9, 51, 38
5, 19662, Note_on_c, 9, 51, 0
5, 19677, Note_on_c, 9, 35, 35
5, 19680, Note_on_c, 9, 51, 50
5, 19688, Note_on_c, 9, 35, 0
5, 19766, Note_on_c, 9, 51, 0
5, 19792, Note_on_c, 9, 51, 75
5, 19796, Note_on_c, 9, 44, 46
5, 19846, Note_on_c, 9, 44, 0
5, 19860, Note_on_c, 9, 51, 0
5, 19886, Note_on_c, 9, 51, 38
5, 19893, Note_on_c, 9, 51, 0
5, 19912, Note_on_c, 9, 40, 71
5, 19920, Note_on_c, 9, 40, 0
5, 19920, Note_on_c, 9, 51, 46
5, 19975, Note_on_c, 9, 40, 71
5, 19982, Note_on_c, 9, 51, 0
5, 19985, Note_on_c, 9, 40, 0
5, 19995, Note_on_c, 9, 53, 69
5, 20022, Note_on_c, 9, 53, 0
5, 20035, Note_on_c, 9, 40, 73
5, 20036, Note_on_c, 9, 44, 50
5, 20043, Note_on_c, 9, 40, 0
5, 20047, Note_on_c, 9, 51, 14
5, 20065, Note_on_c, 9, 40, 69
5, 20078, Note_on_c, 9, 44, 0
5, 20080, Note_on_c, 9, 40, 0
5, 20125, Note_on_c, 9, 51, 0
5, 20147, Note_on_c, 9, 51, 45
5, 20155, Note_on_c, 9, 35, 68
5, 20172, Note_on_c, 9, 35, 0
5, 20243, Note_on_c, 9, 51, 0
5, 20272, Note_on_c, 9, 51, 49
5, 20276, Note_on_c, 9, 44, 51
5, 20306, Note_on_c, 9, 44, 0
5, 20357, Note_on_c, 9, 35, 47
5, 20363, Note_on_c, 9, 51, 0
5, 20367, Note_on_c, 9, 35, 0
5, 20397, Note_on_c, 9, 51, 49
5, 20498, Note_on_c, 9, 51, 0
5, 20516, Note_on_c, 9, 44, 67
5, 20517, Note_on_c, 9, 51, 55
5, 20546, Note_on_c, 9, 44, 0
5, 20593, Note_on_c, 9, 51, 0
5, 20604, Note_on_c, 9, 35, 46
5, 20610, Note_on_c, 9, 51, 31
5, 20614, Note_on_c, 9, 35, 0
5, 20618, Note_on_c, 9, 51, 0
5, 20636, Note_on_c, 9, 51, 56
5, 20640, Note_on_c, 9, 35, 46
5, 20680, Note_on_c, 9, 35, 0
5, 20733, Note_on_c, 9, 51, 0
5, 20756, Note_on_c, 9, 44, 64
5, 20761, Note_on_c, 9, 51, 55
5, 20786, Note_on_c, 9, 44, 0
5, 20838, Note_on_c, 9, 51, 0
5, 20852, Note_on_c, 9, 51, 27
5, 20863, Note_on_c, 9, 51, 0
5, 20881, Note_on_c, 9, 51, 67
5, 20953, Note_on_c, 9, 51, 0
5, 20972, Note_on_c, 9, 51, 37
5, 20980, Note_on_c, 9, 51, 0
5, 20995, Note_on_c, 9, 51, 67
5, 20996, Note_on_c, 9, 44, 60
5, 21033, Note_on_c, 9, 44, 0
5, 21091, Note_on_c, 9, 51, 0
5, 21119, Note_on_c, 9, 51, 64
5, 21122, Note_on_c, 9, 35, 50
5, 21175, Note_on_c, 9, 35, 0
5, 21192, Note_on_c, 9, 35, 57
5, 21207, Note_on_c, 9, 35, 0
5, 21210, Note_on_c, 9, 51, 0
5, 21236, Note_on_c, 9, 44, 58
5, 21236, Note_on_c, 9, 51, 67
5, 21278, Note_on_c, 9, 44, 0
5, 21310, Note_on_c, 9, 51, 0
5, 21332, Note_on_c, 9, 51, 34
5, 21343, Note_on_c, 9, 51, 0
5, 21360, Note_on_c, 9, 51, 57
5, 21441, Note_on_c, 9, 35, 54
5, 21448, Note_on_c, 9, 35, 0
5, 21457, Note_on_c, 9, 51, 0
5, 21476, Note_on_c, 9, 44, 59
5, 21486, Note_on_c, 9, 51, 71
5, 21523, Note_on_c, 9, 44, 0
5, 21556, Note_on_c, 9, 51, 0
5, 21575, Note_on_c, 9, 51, 49
5, 21583, Note_on_c, 9, 51, 0
5, 21605, Note_on_c, 9, 51, 52
5, 21691, Note_on_c, 9, 51, 0
5, 21716, Note_on_c, 9, 44, 61
5, 21722, Note_on_c, 9, 51, 71
5, 21756, Note_on_c, 9, 44, 0
5, 21803, Note_on_c, 9, 51, 0
5, 21830, Note_on_c, 9, 37, 64
5, 21841, Note_on_c, 9, 37, 0
5, 21842, Note_on_c, 9, 51, 47
5, 21865, Note_on_c, 9, 37, 43
5, 21875, Note_on_c, 9, 37, 0
5, 21912, Note_on_c, 9, 51, 0
5, 21931, Note_on_c, 9, 51, 37
5, 21943, Note_on_c, 9, 51, 0
5, 21956, Note_on_c, 9, 44, 63
5, 21960, Note_on_c, 9, 51, 76
5, 22001, Note_on_c, 9, 44, 0
5, 22035, Note_on_c, 9, 35, 69
5, 22050, Note_on_c, 9, 51, 0
5, 22055, Note_on_c, 9, 35, 0
5, 22075, Note_on_c, 9, 35, 57
5, 22075, Note_on_c, 9, 51, 61
5, 22106, Note_on_c, 9, 35, 0
5, 22157, Note_on_c, 9, 51, 0
5, 22190, Note_on_c, 9, 51, 60
5, 22196, Note_on_c, 9, 44, 64
5, 22241, Note_on_c, 9, 44, 0
5, 22276, Note_on_c, 9, 51, 0
5, 22277, Note_on_c, 9, 35, 49
5, 22302, Note_on_c, 9, 35, 0
5, 22316, Note_on_c, 9, 51, 56
5, 22377, Note_on_c, 9, 51, 0
5, 22396, Note_on_c, 9, 53, 73
5, 22426, Note_on_c, 9, 53, 0
5, 22435, Note_on_c, 9, 51, 49
5, 22435, Note_on_c, 9, 35, 45
5, 22436, Note_on_c, 9, 44, 67
5, 22466, Note_on_c, 9, 44, 0
5, 22487, Note_on_c, 9, 35, 0
5, 22510, Note_on_c, 9, 35, 51
5, 22527, Note_on_c, 9, 51, 0
5, 22537, Note_on_c, 9, 35, 0
5, 22555, Note_on_c, 9, 51, 46
5, 22640, Note_on_c, 9, 51, 0
5, 22670, Note_on_c, 9, 35, 36
5, 22671, Note_on_c, 9, 51, 59
5, 22676, Note_on_c, 9, 44, 63
5, 22713, Note_on_c, 9, 44, 0
5, 22722, Note_on_c, 9, 35, 0
5, 22755, Note_on_c, 9, 35, 62
5, 22757, Note_on_c, 9, 51, 0
5, 22776, Note_on_c, 9, 35, 0
5, 22797, Note_on_c, 9, 51, 53
5, 22880, Note_on_c, 9, 51, 0
5, 22916, Note_on_c, 9, 44, 58
5, 22920, Note_on_c, 9, 51, 70
5, 22958, Note_on_c, 9, 44, 0
5, 22992, Note_on_c, 9, 51, 0
5, 23006, Note_on_c, 9, 35, 46
5, 23011, Note_on_c, 9, 51, 40
5, 23020, Note_on_c, 9, 51, 0
5, 23027, Note_on_c, 9, 35, 0
5, 23041, Note_on_c, 9, 51, 37
5, 23125, Note_on_c, 9, 51, 0
5, 23156, Note_on_c, 9, 44, 57
5, 23157, Note_on_c, 9, 51, 53
5, 23196, Note_on_c, 9, 44, 0
5, 23225, Note_on_c, 9, 51, 0
5, 23250, Note_on_c, 9, 51, 31
5, 23260, Note_on_c, 9, 51, 0
5, 23277, Note_on_c, 9, 35, 46
5, 23280, Note_on_c, 9, 51, 43
5, 23290, Note_on_c, 9, 35, 0
5, 23307, Note_on_c, 9, 51, 0
5, 23392, Note_on_c, 9, 51, 48
5, 23396, Note_on_c, 9, 44, 56
5, 23433, Note_on_c, 9, 51, 0
5, 23436, Note_on_c, 9, 44, 0
5, 23484, Note_on_c, 9, 51, 31
5, 23486, Note_on_c, 9, 35, 24
5, 23494, Note_on_c, 9, 51, 0
5, 23496, Note_on_c, 9, 35, 0
5, 23515, Note_on_c, 9, 51, 49
5, 23550, Note_on_c, 9, 51, 0
5, 23596, Note_on_c, 9, 51, 52
5, 23611, Note_on_c, 9, 51, 0
5, 23627, Note_on_c, 9, 57, 74
5, 23636, Note_on_c, 9, 44, 55
5, 23676, Note_on_c, 9, 44, 0
5, 23707, Note_on_c, 9, 57, 0
5, 23720, Note_on_c, 9, 35, 49
5, 23731, Note_on_c, 9, 35, 0
5, 23876, Note_on_c, 9, 44, 54
5, 23913, Note_on_c, 9, 44, 0
5, 23959, Note_on_c, 9, 51, 54
5, 23970, Note_on_c, 9, 51, 0
5, 23990, Note_on_c, 9, 51, 47
5, 23990, Note_on_c, 9, 57, 66
5, 23995, Note_on_c, 9, 35, 65
5, 24011, Note_on_c, 9, 57, 0
5, 24018, Note_on_c, 9, 35, 0
5, 24061, Note_on_c, 9, 51, 0
5, 24116, Note_on_c, 9, 44, 52
5, 24148, Note_on_c, 9, 44, 0
5, 24236, Note_on_c, 9, 51, 47
5, 24315, Note_on_c, 9, 51, 0
5, 24356, Note_on_c, 9, 44, 42
5, 24357, Note_on_c, 9, 51, 62
5, 24388, Note_on_c, 9, 44, 0
5, 24420, Note_on_c, 9, 51, 0
5, 24427, Note_on_c, 9, 35, 62
5, 24450, Note_on_c, 9, 35, 0
5, 24452, Note_on_c, 9, 51, 29
5, 24460, Note_on_c, 9, 51, 0
5, 24477, Note_on_c, 9, 51, 39
5, 24558, Note_on_c, 9, 51, 0
5, 24591, Note_on_c, 9, 51, 55
5, 24596, Note_on_c, 9, 44, 40
5, 24626, Note_on_c, 9, 44, 0
5, 24655, Note_on_c, 9, 51, 0
5, 24680, Note_on_c, 9, 51, 44
5, 24696, Note_on_c, 9, 51, 0
5, 24715, Note_on_c, 9, 51, 40
5, 24776, Note_on_c, 9, 51, 0
5, 24796, Note_on_c, 9, 51, 52
5, 24802, Note_on_c, 9, 51, 0
5, 24832, Note_on_c, 9, 51, 80
5, 24836, Note_on_c, 9, 44, 63
5, 24866, Note_on_c, 9, 44, 0
5, 24917, Note_on_c, 9, 51, 0
5, 24920, Note_on_c, 9, 35, 67
5, 24937, Note_on_c, 9, 35, 0
5, 24955, Note_on_c, 9, 51, 45
5, 24961, Note_on_c, 9, 35, 38
5, 24986, Note_on_c, 9, 35, 0
5, 25026, Note_on_c, 9, 51, 0
5, 25076, Note_on_c, 9, 44, 61
5, 25086, Note_on_c, 9, 51, 59
5, 25116, Note_on_c, 9, 44, 0
5, 25160, Note_on_c, 9, 35, 50
5, 25175, Note_on_c, 9, 35, 0
5, 25177, Note_on_c, 9, 51, 0
5, 25276, Note_on_c, 9, 51, 36
5, 25286, Note_on_c, 9, 51, 0
5, 25310, Note_on_c, 9, 51, 46
5, 25316, Note_on_c, 9, 44, 59
5, 25353, Note_on_c, 9, 44, 0
5, 25400, Note_on_c, 9, 35, 58
5, 25405, Note_on_c, 9, 51, 0
5, 25410, Note_on_c, 9, 35, 0
5, 25431, Note_on_c, 9, 51, 59
5, 25440, Note_on_c, 9, 35, 47
5, 25453, Note_on_c, 9, 35, 0
5, 25506, Note_on_c, 9, 51, 0
5, 25550, Note_on_c, 9, 51, 52
5, 25556, Note_on_c, 9, 44, 60
5, 25601, Note_on_c, 9, 44, 0
5, 25621, Note_on_c, 9, 51, 0
5, 25635, Note_on_c, 9, 35, 44
5, 25644, Note_on_c, 9, 51, 30
5, 25645, Note_on_c, 9, 35, 0
5, 25655, Note_on_c, 9, 51, 0
5, 25671, Note_on_c, 9, 51, 57
5, 25684, Note_on_c, 9, 35, 26
5, 25691, Note_on_c, 9, 35, 0
5, 25746, Note_on_c, 9, 51, 0
5, 25764, Note_on_c, 9, 35, 36
5, 25775, Note_on_c, 9, 35, 0
5, 25796, Note_on_c, 9, 44, 67
5, 25800, Note_on_c, 9, 51, 56
5, 25800, Note_on_c, 9, 37, 80
5, 25837, Note_on_c, 9, 37, 0
5, 25848, Note_on_c, 9, 44, 0
5, 25870, Note_on_c, 9, 51, 0
5, 25882, Note_on_c, 9, 35, 33
5, 25890, Note_on_c, 9, 51, 33
5, 25892, Note_on_c, 9, 35, 0
5, 25897, Note_on_c, 9, 51, 0
5, 25915, Note_on_c, 9, 35, 44
5, 25917, Note_on_c, 9, 51, 40
5, 25940, Note_on_c, 9, 35, 0
5, 26000, Note_on_c, 9, 51, 0
5, 26031, Note_on_c, 9, 51, 60
5, 26036, Note_on_c, 9, 44, 67
5, 26091, Note_on_c, 9, 44, 0
5, 26120, Note_on_c, 9, 35, 57
5, 26121, Note_on_c, 9, 51, 0
5, 26130, Note_on_c, 9, 35, 0
5, 26155, Note_on_c, 9, 51, 55
5, 26242, Note_on_c, 9, 51, 0
5, 26276, Note_on_c, 9, 44, 63
5, 26276, Note_on_c, 9, 51, 55
5, 26338, Note_on_c, 9, 44, 0
5, 26347, Note_on_c, 9, 51, 0
5, 26350, Note_on_c, 9, 35, 50
5, 26362, Note_on_c, 9, 35, 0
5, 26367, Note_on_c, 9, 51, 34
5, 26380, Note_on_c, 9, 51, 0
5, 26400, Note_on_c, 9, 51, 43
5, 26490, Note_on_c, 9, 51, 0
5, 26516, Note_on_c, 9, 44, 61
5, 26517, Note_on_c, 9, 51, 57
5, 26576, Note_on_c, 9, 44, 0
5, 26585, Note_on_c, 9, 51, 0
5, 26607, Note_on_c, 9, 51, 40
5, 26617, Note_on_c, 9, 51, 0
5, 26640, Note_on_c, 9, 51, 31
5, 26706, Note_on_c, 9, 51, 0
5, 26729, Note_on_c, 9, 51, 29
5, 26737, Note_on_c, 9, 51, 0
5, 26756, Note_on_c, 9, 44, 63
5, 26761, Note_on_c, 9, 51, 64
5, 26808, Note_on_c, 9, 44, 0
5, 26846, Note_on_c, 9, 35, 53
5, 26850, Note_on_c, 9, 51, 0
5, 26867, Note_on_c, 9, 35, 0
5, 26885, Note_on_c, 9, 51, 44
5, 26947, Note_on_c, 9, 51, 0
5, 26967, Note_on_c, 9, 51, 35
5, 26975, Note_on_c, 9, 51, 0
5, 26996, Note_on_c, 9, 44, 53
5, 27000, Note_on_c, 9, 51, 50
5, 27048, Note_on_c, 9, 44, 0
5, 27081, Note_on_c, 9, 35, 37
5, 27092, Note_on_c, 9, 51, 0
5, 27093, Note_on_c, 9, 35, 0
5, 27120, Note_on_c, 9, 51, 53
5, 27190, Note_on_c, 9, 51, 0
5, 27209, Note_on_c, 9, 51, 25
5, 27217, Note_on_c, 9, 51, 0
5, 27236, Note_on_c, 9, 44, 65
5, 27236, Note_on_c, 9, 51, 51
5, 27288, Note_on_c, 9, 44, 0
5, 27331, Note_on_c, 9, 51, 0
5, 27355, Note_on_c, 9, 51, 44
5, 27431, Note_on_c, 9, 51, 0
5, 27472, Note_on_c, 9, 51, 64
5, 27476, Note_on_c, 9, 44, 62
5, 27526, Note_on_c, 9, 44, 0
5, 27555, Note_on_c, 9, 35, 38
5, 27560, Note_on_c, 9, 51, 0
5, 27565, Note_on_c, 9, 35, 0
5, 27591, Note_on_c, 9, 51, 48
5, 27660, Note_on_c, 9, 51, 0
5, 27681, Note_on_c, 9, 51, 40
5, 27688, Note_on_c, 9, 51, 0
5, 27712, Note_on_c, 9, 51, 40
5, 27716, Note_on_c, 9, 46, 56
5, 27736, Note_on_c, 9, 46, 0
5, 27777, Note_on_c, 9, 51, 0
5, 27800, Note_on_c, 9, 51, 62
5, 27816, Note_on_c, 9, 51, 0
5, 27837, Note_on_c, 9, 35, 47
5, 27844, Note_on_c, 9, 51, 42
5, 27850, Note_on_c, 9, 35, 0
5, 27915, Note_on_c, 9, 51, 0
5, 27955, Note_on_c, 9, 51, 62
5, 27956, Note_on_c, 9, 44, 62
5, 27996, Note_on_c, 9, 44, 0
5, 28035, Note_on_c, 9, 35, 36
5, 28045, Note_on_c, 9, 51, 0
5, 28046, Note_on_c, 9, 35, 0
5, 28075, Note_on_c, 9, 51, 44
5, 28157, Note_on_c, 9, 51, 0
5, 28190, Note_on_c, 9, 51, 55
5, 28196, Note_on_c, 9, 44, 67
5, 28238, Note_on_c, 9, 44, 0
5, 28256, Note_on_c, 9, 51, 0
5, 28281, Note_on_c, 9, 51, 44
5, 28295, Note_on_c, 9, 51, 0
5, 28315, Note_on_c, 9, 51, 43
5, 28315, Note_on_c, 9, 35, 28
5, 28325, Note_on_c, 9, 35, 0
5, 28410, Note_on_c, 9, 51, 0
5, 28436, Note_on_c, 9, 44, 63
5, 28437, Note_on_c, 9, 51, 56
5, 28471, Note_on_c, 9, 44, 0
5, 28517, Note_on_c, 9, 51, 0
5, 28555, Note_on_c, 9, 51, 46
5, 28630, Note_on_c, 9, 51, 0
5, 28640, Note_on_c, 9, 51, 45
5, 28652, Note_on_c, 9, 51, 0
5, 28672, Note_on_c, 9, 51, 53
5, 28676, Note_on_c, 9, 44, 65
5, 28713, Note_on_c, 9, 44, 0
5, 28762, Note_on_c, 9, 51, 0
5, 28792, Note_on_c, 9, 51, 60
5, 28806, Note_on_c, 9, 35, 32
5, 28850, Note_on_c, 9, 35, 0
5, 28890, Note_on_c, 9, 51, 0
5, 28916, Note_on_c, 9, 44, 68
5, 28917, Note_on_c, 9, 51, 42
5, 28951, Note_on_c, 9, 44, 0
5, 28992, Note_on_c, 9, 51, 0
5, 29000, Note_on_c, 9, 35, 64
5, 29002, Note_on_c, 9, 53, 65
5, 29025, Note_on_c, 9, 35, 0
5, 29028, Note_on_c, 9, 53, 0
5, 29036, Note_on_c, 9, 51, 25
5, 29046, Note_on_c, 9, 35, 48
5, 29058, Note_on_c, 9, 35, 0
5, 29137, Note_on_c, 9, 51, 0
5, 29156, Note_on_c, 9, 44, 65
5, 29157, Note_on_c, 9, 51, 45
5, 29186, Note_on_c, 9, 44, 0
5, 29235, Note_on_c, 9, 35, 57
5, 29250, Note_on_c, 9, 35, 0
5, 29257, Note_on_c, 9, 51, 0
5, 29280, Note_on_c, 9, 51, 42
5, 29367, Note_on_c, 9, 51, 0
5, 29396, Note_on_c, 9, 44, 70
5, 29397, Note_on_c, 9, 51, 51
5, 29428, Note_on_c, 9, 44, 0
5, 29465, Note_on_c, 9, 51, 0
5, 29482, Note_on_c, 9, 51, 46
5, 29497, Note_on_c, 9, 51, 0
5, 29515, Note_on_c, 9, 51, 59
5, 29605, Note_on_c, 9, 51, 0
5, 29635, Note_on_c, 9, 51, 56
5, 29636, Note_on_c, 9, 44, 67
5, 29666, Note_on_c, 9, 44, 0
5, 29706, Note_on_c, 9, 51, 0
5, 29715, Note_on_c, 9, 35, 52
5, 29722, Note_on_c, 9, 35, 0
5, 29724, Note_on_c, 9, 51, 36
5, 29735, Note_on_c, 9, 51, 0
5, 29760, Note_on_c, 9, 51, 42
5, 29832, Note_on_c, 9, 51, 0
5, 29835, Note_on_c, 9, 46, 48
5, 29845, Note_on_c, 9, 46, 0
5, 29876, Note_on_c, 9, 44, 69
5, 29880, Note_on_c, 9, 51, 29
5, 29906, Note_on_c, 9, 44, 0
5, 29955, Note_on_c, 9, 35, 50
5, 29961, Note_on_c, 9, 51, 0
5, 29966, Note_on_c, 9, 35, 0
5, 29990, Note_on_c, 9, 51, 48
5, 30077, Note_on_c, 9, 51, 0
5, 30110, Note_on_c, 9, 51, 47
5, 30116, Note_on_c, 9, 44, 64
5, 30151, Note_on_c, 9, 44, 0
5, 30178, Note_on_c, 9, 51, 0
5, 30190, Note_on_c, 9, 35, 57
5, 30204, Note_on_c, 9, 51, 46
5, 30215, Note_on_c, 9, 51, 0
5, 30230, Note_on_c, 9, 35, 0
5, 30235, Note_on_c, 9, 51, 47
5, 30326, Note_on_c, 9, 51, 0
5, 30352, Note_on_c, 9, 51, 54
5, 30356, Note_on_c, 9, 44, 69
5, 30388, Note_on_c, 9, 44, 0
5, 30417, Note_on_c, 9, 51, 0
5, 30435, Note_on_c, 9, 35, 64
5, 30439, Note_on_c, 9, 51, 39
5, 30442, Note_on_c, 9, 35, 0
5, 30449, Note_on_c, 9, 51, 0
5, 30472, Note_on_c, 9, 51, 45
5, 30563, Note_on_c, 9, 51, 0
5, 30592, Note_on_c, 9, 51, 67
5, 30596, Note_on_c, 9, 44, 68
5, 30641, Note_on_c, 9, 44, 0
5, 30645, Note_on_c, 9, 51, 0
5, 30670, Note_on_c, 9, 35, 66
5, 30677, Note_on_c, 9, 51, 37
5, 30681, Note_on_c, 9, 35, 0
5, 30688, Note_on_c, 9, 51, 0
5, 30710, Note_on_c, 9, 35, 51
5, 30711, Note_on_c, 9, 51, 42
5, 30732, Note_on_c, 9, 35, 0
5, 30750, Note_on_c, 9, 51, 0
5, 30832, Note_on_c, 9, 51, 64
5, 30836, Note_on_c, 9, 44, 64
5, 30878, Note_on_c, 9, 44, 0
5, 30890, Note_on_c, 9, 51, 0
5, 30915, Note_on_c, 9, 35, 48
5, 30921, Note_on_c, 9, 51, 20
5, 30927, Note_on_c, 9, 51, 0
5, 30927, Note_on_c, 9, 35, 0
5, 30947, Note_on_c, 9, 51, 37
5, 31020, Note_on_c, 9, 51, 0
5, 31076, Note_on_c, 9, 44, 65
5, 31110, Note_on_c, 9, 51, 28
5, 31111, Note_on_c, 9, 44, 0
5, 31123, Note_on_c, 9, 51, 0
5, 31150, Note_on_c, 9, 51, 57
5, 31155, Note_on_c, 9, 35, 45
5, 31165, Note_on_c, 9, 35, 0
5, 31172, Note_on_c, 9, 51, 0
5, 31187, Note_on_c, 9, 51, 57
5, 31235, Note_on_c, 9, 50, 37
5, 31242, Note_on_c, 9, 50, 0
5, 31267, Note_on_c, 9, 50, 69
5, 31275, Note_on_c, 9, 51, 0
5, 31284, Note_on_c, 9, 50, 0
5, 31305, Note_on_c, 9, 50, 88
5, 31316, Note_on_c, 9, 44, 61
5, 31355, Note_on_c, 9, 51, 29
5, 31356, Note_on_c, 9, 44, 0
5, 31362, Note_on_c, 9, 51, 0
5, 31401, Note_on_c, 9, 50, 0
5, 31422, Note_on_c, 9, 48, 71
5, 31430, Note_on_c, 9, 48, 0
5, 31457, Note_on_c, 9, 48, 83
5, 31485, Note_on_c, 9, 48, 0
5, 31510, Note_on_c, 9, 47, 80
5, 31525, Note_on_c, 9, 47, 0
5, 31556, Note_on_c, 9, 44, 62
5, 31590, Note_on_c, 9, 35, 70
5, 31593, Note_on_c, 9, 44, 0
5, 31610, Note_on_c, 9, 35, 0
5, 31644, Note_on_c, 9, 51, 46
5, 31654, Note_on_c, 9, 51, 0
5, 31666, Note_on_c, 9, 35, 69
5, 31666, Note_on_c, 9, 57, 68
5, 31680, Note_on_c, 9, 51, 42
5, 31685, Note_on_c, 9, 57, 0
5, 31712, Note_on_c, 9, 35, 0
5, 31761, Note_on_c, 9, 51, 0
5, 31796, Note_on_c, 9, 44, 60
5, 31833, Note_on_c, 9, 44, 0
5, 31884, Note_on_c, 9, 51, 53
5, 31895, Note_on_c, 9, 51, 0
5, 31915, Note_on_c, 9, 51, 40
5, 31998, Note_on_c, 9, 51, 0
5, 32031, Note_on_c, 9, 51, 57
5, 32036, Note_on_c, 9, 44, 64
5, 32045, Note_on_c, 9, 57, 70
5, 32045, Note_on_c, 9, 35, 80
5, 32076, Note_on_c, 9, 44, 0
5, 32080, Note_on_c, 9, 57, 0
5, 32097, Note_on_c, 9, 51, 0
5, 32102, Note_on_c, 9, 35, 0
5, 32125, Note_on_c, 9, 51, 31
5, 32135, Note_on_c, 9, 51, 0
5, 32155, Note_on_c, 9, 51, 39
5, 32243, Note_on_c, 9, 51, 0
5, 32272, Note_on_c, 9, 51, 60
5, 32276, Note_on_c, 9, 44, 62
5, 32308, Note_on_c, 9, 44, 0
5, 32343, Note_on_c, 9, 51, 0
5, 32386, Note_on_c, 9, 51, 56
5, 32461, Note_on_c, 9, 51, 0
5, 32510, Note_on_c, 9, 51, 56
5, 32512, Note_on_c, 9, 35, 49
5, 32516, Note_on_c, 9, 44, 58
5, 32551, Note_on_c, 9, 44, 0
5, 32573, Note_on_c, 9, 51, 0
5, 32575, Note_on_c, 9, 35, 0
5, 32595, Note_on_c, 9, 35, 53
5, 32602, Note_on_c, 9, 51, 43
5, 32616, Note_on_c, 9, 35, 0
5, 32618, Note_on_c, 9, 51, 0
5, 32636, Note_on_c, 9, 51, 60
5, 32722, Note_on_c, 9, 51, 0
5, 32755, Note_on_c, 9, 51, 69
5, 32756, Note_on_c, 9, 44, 57
5, 32788, Note_on_c, 9, 44, 0
5, 32808, Note_on_c, 9, 51, 0
5, 32842, Note_on_c, 9, 51, 48
5, 32852, Note_on_c, 9, 51, 0
5, 32871, Note_on_c, 9, 51, 46
5, 32927, Note_on_c, 9, 51, 0
5, 32955, Note_on_c, 9, 53, 77
5, 32981, Note_on_c, 9, 53, 0
5, 32995, Note_on_c, 9, 51, 31
5, 32996, Note_on_c, 9, 44, 64
5, 33032, Note_on_c, 9, 51, 0
5, 33033, Note_on_c, 9, 44, 0
5, 33067, Note_on_c, 9, 53, 76
5, 33095, Note_on_c, 9, 53, 0
5, 33130, Note_on_c, 9, 51, 12
5, 33203, Note_on_c, 9, 51, 0
5, 33226, Note_on_c, 9, 51, 44
5, 33236, Note_on_c, 9, 44, 64
5, 33273, Note_on_c, 9, 44, 0
5, 33296, Note_on_c, 9, 51, 0
5, 33317, Note_on_c, 9, 51, 42
5, 33337, Note_on_c, 9, 51, 0
5, 33355, Note_on_c, 9, 51, 47
5, 33411, Note_on_c, 9, 51, 0
5, 33431, Note_on_c, 9, 53, 72
5, 33458, Note_on_c, 9, 53, 0
5, 33470, Note_on_c, 9, 51, 48
5, 33476, Note_on_c, 9, 46, 20
5, 33500, Note_on_c, 9, 51, 0
5, 33516, Note_on_c, 9, 46, 0
5, 33551, Note_on_c, 9, 51, 71
5, 33567, Note_on_c, 9, 51, 0
5, 33590, Note_on_c, 9, 51, 38
5, 33597, Note_on_c, 9, 35, 33
5, 33645, Note_on_c, 9, 35, 0
5, 33665, Note_on_c, 9, 51, 0
5, 33710, Note_on_c, 9, 51, 57
5, 33716, Note_on_c, 9, 44, 67
5, 33763, Note_on_c, 9, 44, 0
5, 33800, Note_on_c, 9, 51, 0
5, 33835, Note_on_c, 9, 51, 50
5, 33916, Note_on_c, 9, 51, 0
5, 33950, Note_on_c, 9, 37, 71
5, 33952, Note_on_c, 9, 51, 53
5, 33956, Note_on_c, 9, 44, 68
5, 33986, Note_on_c, 9, 44, 0
5, 34011, Note_on_c, 9, 37, 0
5, 34035, Note_on_c, 9, 51, 0
5, 34067, Note_on_c, 9, 35, 47
5, 34076, Note_on_c, 9, 51, 56
5, 34080, Note_on_c, 9, 35, 0
5, 34173, Note_on_c, 9, 51, 0
5, 34196, Note_on_c, 9, 44, 67
5, 34200, Note_on_c, 9, 53, 53
5, 34207, Note_on_c, 9, 53, 0
5, 34223, Note_on_c, 9, 44, 0
5, 34225, Note_on_c, 9, 53, 62
5, 34272, Note_on_c, 9, 53, 0
5, 34280, Note_on_c, 9, 35, 39
5, 34291, Note_on_c, 9, 35, 0
5, 34320, Note_on_c, 9, 51, 58
5, 34405, Note_on_c, 9, 51, 0
5, 34436, Note_on_c, 9, 44, 63
5, 34436, Note_on_c, 9, 51, 57
5, 34440, Note_on_c, 9, 37, 74
5, 34478, Note_on_c, 9, 44, 0
5, 34487, Note_on_c, 9, 37, 0
5, 34522, Note_on_c, 9, 51, 0
5, 34555, Note_on_c, 9, 51, 64
5, 34561, Note_on_c, 9, 35, 54
5, 34583, Note_on_c, 9, 35, 0
5, 34640, Note_on_c, 9, 51, 0
5, 34671, Note_on_c, 9, 51, 53
5, 34676, Note_on_c, 9, 44, 62
5, 34716, Note_on_c, 9, 44, 0
5, 34738, Note_on_c, 9, 51, 0
5, 34755, Note_on_c, 9, 35, 58
5, 34762, Note_on_c, 9, 51, 49
5, 34775, Note_on_c, 9, 51, 0
5, 34776, Note_on_c, 9, 35, 0
5, 34795, Note_on_c, 9, 51, 53
5, 34881, Note_on_c, 9, 51, 0
5, 34915, Note_on_c, 9, 51, 65
5, 34915, Note_on_c, 9, 37, 76
5, 34916, Note_on_c, 9, 44, 63
5, 34957, Note_on_c, 9, 37, 0
5, 34963, Note_on_c, 9, 44, 0
5, 34995, Note_on_c, 9, 35, 41
5, 34997, Note_on_c, 9, 51, 0
5, 35005, Note_on_c, 9, 35, 0
5, 35030, Note_on_c, 9, 51, 62
5, 35032, Note_on_c, 9, 35, 47
5, 35075, Note_on_c, 9, 35, 0
5, 35098, Note_on_c, 9, 51, 0
5, 35156, Note_on_c, 9, 44, 56
5, 35162, Note_on_c, 9, 51, 57
5, 35211, Note_on_c, 9, 44, 0
5, 35230, Note_on_c, 9, 51, 0
5, 35237, Note_on_c, 9, 35, 49
5, 35247, Note_on_c, 9, 35, 0
5, 35285, Note_on_c, 9, 51, 72
5, 35352, Note_on_c, 9, 51, 0
5, 35396, Note_on_c, 9, 44, 58
5, 35402, Note_on_c, 9, 51, 64
5, 35420, Note_on_c, 9, 51, 0
5, 35432, Note_on_c, 9, 51, 75
5, 35433, Note_on_c, 9, 44, 0
5, 35473, Note_on_c, 9, 51, 0
5, 35522, Note_on_c, 9, 35, 37
5, 35527, Note_on_c, 9, 51, 74
5, 35558, Note_on_c, 9, 35, 0
5, 35607, Note_on_c, 9, 51, 0
5, 35636, Note_on_c, 9, 44, 50
5, 35640, Note_on_c, 9, 51, 64
5, 35676, Note_on_c, 9, 44, 0
5, 35723, Note_on_c, 9, 51, 0
5, 35727, Note_on_c, 9, 35, 49
5, 35737, Note_on_c, 9, 35, 0
5, 35762, Note_on_c, 9, 51, 68
5, 35840, Note_on_c, 9, 51, 0
5, 35870, Note_on_c, 9, 51, 57
5, 35876, Note_on_c, 9, 44, 55
5, 35879, Note_on_c, 9, 37, 69
5, 35881, Note_on_c, 9, 51, 0
5, 35905, Note_on_c, 9, 51, 51
5, 35911, Note_on_c, 9, 37, 0
5, 35918, Note_on_c, 9, 44, 0
5, 35952, Note_on_c, 9, 51, 0
5, 35990, Note_on_c, 9, 35, 56
5, 35997, Note_on_c, 9, 51, 71
5, 36010, Note_on_c, 9, 35, 0
5, 36078, Note_on_c, 9, 51, 0
5, 36116, Note_on_c, 9, 44, 58
5, 36116, Note_on_c, 9, 51, 54
5, 36166, Note_on_c, 9, 44, 0
5, 36182, Note_on_c, 9, 51, 0
5, 36204, Note_on_c, 9, 35, 36
5, 36215, Note_on_c, 9, 35, 0
5, 36235, Note_on_c, 9, 51, 49
5, 36255, Note_on_c, 9, 51, 0
5, 36266, Note_on_c, 9, 53, 73
5, 36330, Note_on_c, 9, 53, 0
5, 36356, Note_on_c, 9, 46, 44
5, 36359, Note_on_c, 9, 51, 57
5, 36371, Note_on_c, 9, 51, 0
5, 36390, Note_on_c, 9, 53, 61
5, 36403, Note_on_c, 9, 46, 0
5, 36431, Note_on_c, 9, 35, 58
5, 36460, Note_on_c, 9, 35, 0
5, 36460, Note_on_c, 9, 53, 0
5, 36475, Note_on_c, 9, 51, 64
5, 36557, Note_on_c, 9, 51, 0
5, 36596, Note_on_c, 9, 44, 55
5, 36596, Note_on_c, 9, 51, 49
5, 36643, Note_on_c, 9, 44, 0
5, 36661, Note_on_c, 9, 51, 0
5, 36685, Note_on_c, 9, 51, 46
5, 36697, Note_on_c, 9, 51, 0
5, 36712, Note_on_c, 9, 35, 46
5, 36720, Note_on_c, 9, 51, 56
5, 36722, Note_on_c, 9, 35, 0
5, 36815, Note_on_c, 9, 51, 0
5, 36836, Note_on_c, 9, 44, 54
5, 36840, Note_on_c, 9, 51, 62
5, 36883, Note_on_c, 9, 44, 0
5, 36905, Note_on_c, 9, 51, 0
5, 36930, Note_on_c, 9, 51, 36
5, 36940, Note_on_c, 9, 51, 0
5, 36955, Note_on_c, 9, 51, 49
5, 36966, Note_on_c, 9, 35, 41
5, 36976, Note_on_c, 9, 35, 0
5, 37002, Note_on_c, 9, 51, 0
5, 37032, Note_on_c, 9, 53, 76
5, 37060, Note_on_c, 9, 53, 0
5, 37072, Note_on_c, 9, 51, 42
5, 37076, Note_on_c, 9, 44, 60
5, 37128, Note_on_c, 9, 44, 0
5, 37138, Note_on_c, 9, 51, 0
5, 37155, Note_on_c, 9, 35, 52
5, 37167, Note_on_c, 9, 35, 0
5, 37192, Note_on_c, 9, 51, 42
5, 37270, Note_on_c, 9, 51, 0
5, 37311, Note_on_c, 9, 51, 56
5, 37316, Note_on_c, 9, 44, 55
5, 37371, Note_on_c, 9, 44, 0
5, 37378, Note_on_c, 9, 51, 0
5, 37397, Note_on_c, 9, 51, 52
5, 37408, Note_on_c, 9, 51, 0
5, 37431, Note_on_c, 9, 51, 48
5, 37437, Note_on_c, 9, 35, 31
5, 37472, Note_on_c, 9, 35, 0
5, 37519, Note_on_c, 9, 51, 0
5, 37556, Note_on_c, 9, 44, 60
5, 37556, Note_on_c, 9, 51, 67
5, 37608, Note_on_c, 9, 44, 0
5, 37635, Note_on_c, 9, 51, 0
5, 37636, Note_on_c, 9, 35, 48
5, 37646, Note_on_c, 9, 35, 0
5, 37677, Note_on_c, 9, 51, 59
5, 37680, Note_on_c, 9, 53, 44
5, 37687, Note_on_c, 9, 53, 0
5, 37705, Note_on_c, 9, 53, 65
5, 37722, Note_on_c, 9, 53, 0
5, 37748, Note_on_c, 9, 51, 0
5, 37796, Note_on_c, 9, 44, 56
5, 37796, Note_on_c, 9, 51, 59
5, 37796, Note_on_c, 9, 53, 87
5, 37813, Note_on_c, 9, 53, 0
5, 37843, Note_on_c, 9, 44, 0
5, 37863, Note_on_c, 9, 51, 0
5, 37875, Note_on_c, 9, 35, 55
5, 37889, Note_on_c, 9, 51, 39
5, 37890, Note_on_c, 9, 35, 0
5, 37897, Note_on_c, 9, 51, 0
5, 37915, Note_on_c, 9, 51, 46
5, 37978, Note_on_c, 9, 51, 0
5, 38036, Note_on_c, 9, 44, 56
5, 38037, Note_on_c, 9, 51, 64
5, 38086, Note_on_c, 9, 44, 0
5, 38095, Note_on_c, 9, 51, 0
5, 38121, Note_on_c, 9, 35, 45
5, 38130, Note_on_c, 9, 51, 53
5, 38131, Note_on_c, 9, 35, 0
5, 38137, Note_on_c, 9, 51, 0
5, 38156, Note_on_c, 9, 35, 48
5, 38161, Note_on_c, 9, 51, 44
5, 38177, Note_on_c, 9, 35, 0
5, 38235, Note_on_c, 9, 51, 0
5, 38275, Note_on_c, 9, 51, 65
5, 38276, Note_on_c, 9, 46, 36
5, 38316, Note_on_c, 9, 46, 0
5, 38356, Note_on_c, 9, 51, 0
5, 38360, Note_on_c, 9, 35, 38
5, 38370, Note_on_c, 9, 35, 0
5, 38396, Note_on_c, 9, 51, 65
5, 38468, Note_on_c, 9, 51, 0
5, 38516, Note_on_c, 9, 44, 50
5, 38520, Note_on_c, 9, 51, 71
5, 38568, Note_on_c, 9, 44, 0
5, 38578, Note_on_c, 9, 51, 0
5, 38615, Note_on_c, 9, 51, 53
5, 38621, Note_on_c, 9, 51, 0
5, 38637, Note_on_c, 9, 46, 59
5, 38642, Note_on_c, 9, 51, 59
5, 38693, Note_on_c, 9, 46, 0
5, 38725, Note_on_c, 9, 51, 0
5, 38750, Note_on_c, 9, 46, 67
5, 38756, Note_on_c, 9, 44, 53
5, 38756, Note_on_c, 9, 51, 67
5, 38806, Note_on_c, 9, 44, 0
5, 38810, Note_on_c, 9, 46, 0
5, 38813, Note_on_c, 9, 51, 0
5, 38849, Note_on_c, 9, 51, 46
5, 38856, Note_on_c, 9, 51, 0
5, 38880, Note_on_c, 9, 51, 58
5, 38955, Note_on_c, 9, 35, 32
5, 38962, Note_on_c, 9, 51, 0
5, 38966, Note_on_c, 9, 35, 0
5, 38990, Note_on_c, 9, 35, 46
5, 38996, Note_on_c, 9, 44, 61
5, 39000, Note_on_c, 9, 51, 67
5, 39010, Note_on_c, 9, 35, 0
5, 39041, Note_on_c, 9, 44, 0
5, 39055, Note_on_c, 9, 51, 0
5, 39070, Note_on_c, 9, 46, 59
5, 39081, Note_on_c, 9, 46, 0
5, 39091, Note_on_c, 9, 51, 54
5, 39097, Note_on_c, 9, 51, 0
5, 39122, Note_on_c, 9, 51, 58
5, 39150, Note_on_c, 9, 46, 61
5, 39163, Note_on_c, 9, 46, 0
5, 39178, Note_on_c, 9, 51, 0
5, 39192, Note_on_c, 9, 35, 64
5, 39200, Note_on_c, 9, 53, 72
5, 39200, Note_on_c, 9, 54, 50
5, 39205, Note_on_c, 9, 35, 0
5, 39226, Note_on_c, 9, 53, 0
5, 39230, Note_on_c, 9, 54, 0
5, 39235, Note_on_c, 9, 35, 71
5, 39236, Note_on_c, 9, 44, 54
5, 39242, Note_on_c, 9, 51, 20
5, 39260, Note_on_c, 9, 35, 0
5, 39281, Note_on_c, 9, 44, 0
5, 39293, Note_on_c, 9, 51, 0
5, 39316, Note_on_c, 9, 51, 56
5, 39317, Note_on_c, 9, 35, 74
5, 39335, Note_on_c, 9, 35, 0
5, 39342, Note_on_c, 9, 51, 0
5, 39357, Note_on_c, 9, 51, 49
5, 39360, Note_on_c, 9, 35, 73
5, 39396, Note_on_c, 9, 35, 0
5, 39430, Note_on_c, 9, 51, 0
5, 39471, Note_on_c, 9, 51, 64
5, 39476, Note_on_c, 9, 44, 57
5, 39516, Note_on_c, 9, 44, 0
5, 39533, Note_on_c, 9, 51, 0
5, 39557, Note_on_c, 9, 51, 47
5, 39559, Note_on_c, 9, 35, 49
5, 39569, Note_on_c, 9, 35, 0
5, 39570, Note_on_c, 9, 51, 0
5, 39592, Note_on_c, 9, 51, 51
5, 39652, Note_on_c, 9, 51, 0
5, 39671, Note_on_c, 9, 53, 74
5, 39681, Note_on_c, 9, 35, 79
5, 39698, Note_on_c, 9, 35, 0
5, 39706, Note_on_c, 9, 53, 0
5, 39716, Note_on_c, 9, 44, 54
5, 39716, Note_on_c, 9, 51, 31
5, 39720, Note_on_c, 9, 35, 82
5, 39753, Note_on_c, 9, 44, 0
5, 39777, Note_on_c, 9, 35, 0
5, 39801, Note_on_c, 9, 51, 0
5, 39825, Note_on_c, 9, 51, 49
5, 39895, Note_on_c, 9, 51, 0
5, 39911, Note_on_c, 9, 53, 87
5, 39922, Note_on_c, 9, 55, 55
5, 39926, Note_on_c, 9, 56, 30
5, 39943, Note_on_c, 9, 56, 0
5, 39950, Note_on_c, 9, 55, 0
5, 39950, Note_on_c, 9, 51, 53
5, 39955, Note_on_c, 9, 53, 0
5, 39956, Note_on_c, 9, 44, 49
5, 39998, Note_on_c, 9, 44, 0
5, 40040, Note_on_c, 9, 51, 0
5, 40040, Note_on_c, 9, 35, 76
5, 40065, Note_on_c, 9, 35, 0
5, 40072, Note_on_c, 9, 51, 33
5, 40077, Note_on_c, 9, 35, 89
5, 40142, Note_on_c, 9, 35, 0
5, 40158, Note_on_c, 9, 51, 0
5, 40190, Note_on_c, 9, 51, 56
5, 40196, Note_on_c, 9, 44, 48
5, 40236, Note_on_c, 9, 44, 0
5, 40262, Note_on_c, 9, 51, 0
5, 40282, Note_on_c, 9, 51, 42
5, 40298, Note_on_c, 9, 51, 0
5, 40317, Note_on_c, 9, 51, 50
5, 40407, Note_on_c, 9, 51, 0
5, 40432, Note_on_c, 9, 35, 43
5, 40436, Note_on_c, 9, 44, 51
5, 40437, Note_on_c, 9, 51, 65
5, 40471, Note_on_c, 9, 44, 0
5, 40498, Note_on_c, 9, 35, 0
5, 40520, Note_on_c, 9, 35, 55
5, 40528, Note_on_c, 9, 51, 0
5, 40541, Note_on_c, 9, 35, 0
5, 40557, Note_on_c, 9, 51, 57
5, 40623, Note_on_c, 9, 51, 0
5, 40676, Note_on_c, 9, 44, 57
5, 40676, Note_on_c, 9, 51, 55
5, 40718, Note_on_c, 9, 44, 0
5, 40755, Note_on_c, 9, 51, 0
5, 40795, Note_on_c, 9, 51, 55
5, 40797, Note_on_c, 9, 35, 46
5, 40810, Note_on_c, 9, 35, 0
5, 40861, Note_on_c, 9, 51, 0
5, 40885, Note_on_c, 9, 51, 34
5, 40895, Note_on_c, 9, 51, 0
5, 40916, Note_on_c, 9, 44, 56
5, 40920, Note_on_c, 9, 51, 46
5, 40963, Note_on_c, 9, 44, 0
5, 41000, Note_on_c, 9, 35, 44
5, 41008, Note_on_c, 9, 51, 0
5, 41010, Note_on_c, 9, 35, 0
5, 41037, Note_on_c, 9, 50, 87
5, 41040, Note_on_c, 9, 51, 67
5, 41060, Note_on_c, 9, 50, 0
5, 41077, Note_on_c, 9, 48, 80
5, 41092, Note_on_c, 9, 48, 0
5, 41120, Note_on_c, 9, 51, 0
5, 41156, Note_on_c, 9, 44, 52
5, 41160, Note_on_c, 9, 47, 84
5, 41177, Note_on_c, 9, 47, 0
5, 41195, Note_on_c, 9, 45, 80
5, 41211, Note_on_c, 9, 45, 0
5, 41215, Note_on_c, 9, 51, 46
5, 41221, Note_on_c, 9, 44, 0
5, 41222, Note_on_c, 9, 51, 0
5, 41242, Note_on_c, 9, 35, 89
5, 41252, Note_on_c, 9, 51, 46
5, 41270, Note_on_c, 9, 51, 0
5, 41285, Note_on_c, 9, 51, 64
5, 41300, Note_on_c, 9, 35, 0
5, 41351, Note_on_c, 9, 51, 0
5, 41396, Note_on_c, 9, 44, 54
5, 41397, Note_on_c, 9, 51, 51
5, 41456, Note_on_c, 9, 44, 0
5, 41473, Note_on_c, 9, 51, 0
5, 41515, Note_on_c, 9, 51, 55
5, 41552, Note_on_c, 9, 50, 60
5, 41565, Note_on_c, 9, 50, 0
5, 41580, Note_on_c, 9, 51, 0
5, 41591, Note_on_c, 9, 35, 59
5, 41601, Note_on_c, 9, 35, 0
5, 41627, Note_on_c, 9, 35, 75
5, 41635, Note_on_c, 9, 51, 56
5, 41636, Note_on_c, 9, 44, 56
5, 41652, Note_on_c, 9, 51, 0
5, 41666, Note_on_c, 9, 51, 57
5, 41673, Note_on_c, 9, 35, 0
5, 41689, Note_on_c, 9, 51, 0
5, 41691, Note_on_c, 9, 44, 0
5, 41710, Note_on_c, 9, 35, 85
5, 41743, Note_on_c, 9, 35, 0
5, 41757, Note_on_c, 9, 51, 68
5, 41832, Note_on_c, 9, 51, 0
5, 41876, Note_on_c, 9, 44, 57
5, 41876, Note_on_c, 9, 51, 47
5, 41926, Note_on_c, 9, 44, 0
5, 41960, Note_on_c, 9, 51, 0
5, 41995, Note_on_c, 9, 53, 58
5, 42003, Note_on_c, 9, 53, 0
5, 42030, Note_on_c, 9, 53, 37
5, 42060, Note_on_c, 9, 53, 0
5, 42110, Note_on_c, 9, 51, 62
5, 42116, Note_on_c, 9, 44, 51
5, 42171, Note_on_c, 9, 44, 0
5, 42190, Note_on_c, 9, 35, 49
5, 42201, Note_on_c, 9, 35, 0
5, 42201, Note_on_c, 9, 51, 0
5, 42231, Note_on_c, 9, 51, 47
5, 42231, Note_on_c, 9, 35, 49
5, 42252, Note_on_c, 9, 35, 0
5, 42318, Note_on_c, 9, 51, 0
5, 42351, Note_on_c, 9, 53, 41
5, 42356, Note_on_c, 9, 44, 52
5, 42361, Note_on_c, 9, 53, 0
5, 42380, Note_on_c, 9, 53, 68
5, 42406, Note_on_c, 9, 44, 0
5, 42412, Note_on_c, 9, 53, 0
5, 42467, Note_on_c, 9, 51, 55
5, 42470, Note_on_c, 9, 35, 41
5, 42482, Note_on_c, 9, 35, 0
5, 42560, Note_on_c, 9, 51, 0
5, 42590, Note_on_c, 9, 51, 37
5, 42596, Note_on_c, 9, 44, 50
5, 42636, Note_on_c, 9, 44, 0
5, 42661, Note_on_c, 9, 51, 0
5, 42681, Note_on_c, 9, 35, 49
5, 42685, Note_on_c, 9, 51, 42
5, 42691, Note_on_c, 9, 35, 0
5, 42696, Note_on_c, 9, 51, 0
5, 42715, Note_on_c, 9, 51, 64
5, 42811, Note_on_c, 9, 51, 0
5, 42836, Note_on_c, 9, 44, 57
5, 42840, Note_on_c, 9, 51, 64
5, 42881, Note_on_c, 9, 44, 0
5, 42908, Note_on_c, 9, 51, 0
5, 42920, Note_on_c, 9, 35, 43
5, 42927, Note_on_c, 9, 51, 39
5, 42931, Note_on_c, 9, 35, 0
5, 42938, Note_on_c, 9, 51, 0
5, 42956, Note_on_c, 9, 51, 56
5, 42961, Note_on_c, 9, 53, 28
5, 43006, Note_on_c, 9, 53, 0
5, 43036, Note_on_c, 9, 35, 63
5, 43043, Note_on_c, 9, 51, 0
5, 43058, Note_on_c, 9, 35, 0
5, 43075, Note_on_c, 9, 51, 72
5, 43076, Note_on_c, 9, 44, 52
5, 43079, Note_on_c, 9, 53, 49
5, 43091, Note_on_c, 9, 53, 0
5, 43128, Note_on_c, 9, 44, 0
5, 43151, Note_on_c, 9, 51, 0
5, 43170, Note_on_c, 9, 51, 37
5, 43180, Note_on_c, 9, 51, 0
5, 43197, Note_on_c, 9, 51, 60
5, 43200, Note_on_c, 9, 35, 66
5, 43227, Note_on_c, 9, 35, 0
5, 43287, Note_on_c, 9, 51, 0
5, 43311, Note_on_c, 9, 51, 62
5, 43316, Note_on_c, 9, 44, 56
5, 43363, Note_on_c, 9, 44, 0
5, 43387, Note_on_c, 9, 51, 0
5, 43405, Note_on_c, 9, 51, 46
5, 43405, Note_on_c, 9, 35, 53
5, 43413, Note_on_c, 9, 51, 0
5, 43423, Note_on_c, 9, 35, 0
5, 43435, Note_on_c, 9, 51, 39
5, 43522, Note_on_c, 9, 51, 0
5, 43552, Note_on_c, 9, 51, 69
5, 43556, Note_on_c, 9, 44, 57
5, 43601, Note_on_c, 9, 44, 0
5, 43639, Note_on_c, 9, 51, 0
5, 43675, Note_on_c, 9, 51, 53
5, 43680, Note_on_c, 9, 35, 32
5, 43695, Note_on_c, 9, 35, 0
5, 43740, Note_on_c, 9, 51, 0
5, 43756, Note_on_c, 9, 53, 75
5, 43782, Note_on_c, 9, 53, 0
5, 43796, Note_on_c, 9, 44, 56
5, 43796, Note_on_c, 9, 51, 43
5, 43831, Note_on_c, 9, 44, 0
5, 43884, Note_on_c, 9, 51, 0
5, 43911, Note_on_c, 9, 51, 60
5, 44001, Note_on_c, 9, 51, 0
5, 44035, Note_on_c, 9, 51, 55
5, 44036, Note_on_c, 9, 44, 60
5, 44076, Note_on_c, 9, 44, 0
5, 44107, Note_on_c, 9, 51, 0
5, 44112, Note_on_c, 9, 35, 62
5, 44127, Note_on_c, 9, 51, 43
5, 44135, Note_on_c, 9, 51, 0
5, 44135, Note_on_c, 9, 35, 0
5, 44152, Note_on_c, 9, 51, 43
5, 44245, Note_on_c, 9, 51, 0
5, 44275, Note_on_c, 9, 51, 67
5, 44276, Note_on_c, 9, 44, 60
5, 44326, Note_on_c, 9, 44, 0
5, 44343, Note_on_c, 9, 51, 0
5, 44361, Note_on_c, 9, 51, 46
5, 44371, Note_on_c, 9, 51, 0
5, 44396, Note_on_c, 9, 51, 49
5, 44481, Note_on_c, 9, 51, 0
5, 44511, Note_on_c, 9, 51, 69
5, 44516, Note_on_c, 9, 44, 56
5, 44521, Note_on_c, 9, 35, 31
5, 44542, Note_on_c, 9, 35, 0
5, 44558, Note_on_c, 9, 44, 0
5, 44591, Note_on_c, 9, 51, 0
5, 44592, Note_on_c, 9, 35, 28
5, 44602, Note_on_c, 9, 35, 0
5, 44630, Note_on_c, 9, 51, 63
5, 44708, Note_on_c, 9, 51, 0
5, 44747, Note_on_c, 9, 51, 62
5, 44756, Note_on_c, 9, 44, 56
5, 44801, Note_on_c, 9, 44, 0
5, 44825, Note_on_c, 9, 51, 0
5, 44840, Note_on_c, 9, 35, 45
5, 44850, Note_on_c, 9, 35, 0
5, 44872, Note_on_c, 9, 51, 62
5, 44877, Note_on_c, 9, 35, 39
5, 44892, Note_on_c, 9, 35, 0
5, 44947, Note_on_c, 9, 51, 0
5, 44990, Note_on_c, 9, 51, 54
5, 44996, Note_on_c, 9, 44, 60
5, 45038, Note_on_c, 9, 44, 0
5, 45066, Note_on_c, 9, 51, 0
5, 45115, Note_on_c, 9, 51, 45
5, 45157, Note_on_c, 9, 38, 58
5, 45158, Note_on_c, 9, 51, 0
5, 45165, Note_on_c, 9, 38, 0
5, 45195, Note_on_c, 9, 51, 81
5, 45195, Note_on_c, 9, 38, 48
5, 45206, Note_on_c, 9, 38, 0
5, 45225, Note_on_c, 9, 51, 0
5, 45232, Note_on_c, 9, 38, 55
5, 45236, Note_on_c, 9, 44, 62
5, 45240, Note_on_c, 9, 51, 51
5, 45247, Note_on_c, 9, 38, 0
5, 45281, Note_on_c, 9, 44, 0
5, 45296, Note_on_c, 9, 51, 0
5, 45311, Note_on_c, 9, 35, 74
5, 45343, Note_on_c, 9, 35, 0
5, 45350, Note_on_c, 9, 51, 65
5, 45418, Note_on_c, 9, 51, 0
5, 45440, Note_on_c, 9, 51, 33
5, 45451, Note_on_c, 9, 51, 0
5, 45475, Note_on_c, 9, 51, 58
5, 45476, Note_on_c, 9, 44, 68
5, 45511, Note_on_c, 9, 44, 0
5, 45571, Note_on_c, 9, 51, 0
5, 45592, Note_on_c, 9, 51, 57
5, 45675, Note_on_c, 9, 51, 0
5, 45682, Note_on_c, 9, 35, 28
5, 45692, Note_on_c, 9, 35, 0
5, 45711, Note_on_c, 9, 51, 64
5, 45715, Note_on_c, 9, 40, 58
5, 45716, Note_on_c, 9, 44, 67
5, 45722, Note_on_c, 9, 40, 0
5, 45747, Note_on_c, 9, 40, 44
5, 45756, Note_on_c, 9, 44, 0
5, 45762, Note_on_c, 9, 40, 0
5, 45773, Note_on_c, 9, 51, 0
5, 45801, Note_on_c, 9, 53, 80
5, 45827, Note_on_c, 9, 53, 0
5, 45842, Note_on_c, 9, 51, 51
5, 45860, Note_on_c, 9, 51, 0
5, 45911, Note_on_c, 9, 53, 81
5, 45919, Note_on_c, 9, 35, 25
5, 45927, Note_on_c, 9, 35, 0
5, 45940, Note_on_c, 9, 53, 0
5, 45955, Note_on_c, 9, 40, 62
5, 45956, Note_on_c, 9, 44, 61
5, 45960, Note_on_c, 9, 51, 37
5, 45962, Note_on_c, 9, 40, 0
5, 45967, Note_on_c, 9, 51, 0
5, 45987, Note_on_c, 9, 40, 61
5, 46003, Note_on_c, 9, 44, 0
5, 46007, Note_on_c, 9, 40, 0
5, 46075, Note_on_c, 9, 51, 39
5, 46118, Note_on_c, 9, 51, 0
5, 46150, Note_on_c, 9, 35, 33
5, 46161, Note_on_c, 9, 35, 0
5, 46190, Note_on_c, 9, 51, 60
5, 46190, Note_on_c, 9, 40, 60
5, 46196, Note_on_c, 9, 46, 62
5, 46198, Note_on_c, 9, 40, 0
5, 46225, Note_on_c, 9, 40, 61
5, 46228, Note_on_c, 9, 46, 0
5, 46237, Note_on_c, 9, 40, 0
5, 46261, Note_on_c, 9, 51, 0
5, 46275, Note_on_c, 9, 35, 50
5, 46285, Note_on_c, 9, 35, 0
5, 46285, Note_on_c, 9, 51, 45
5, 46300, Note_on_c, 9, 51, 0
5, 46375, Note_on_c, 9, 40, 74
5, 46390, Note_on_c, 9, 40, 0
5, 46402, Note_on_c, 9, 51, 64
5, 46406, Note_on_c, 9, 40, 66
5, 46423, Note_on_c, 9, 40, 0
5, 46423, Note_on_c, 9, 51, 0
5, 46436, Note_on_c, 9, 44, 52
5, 46441, Note_on_c, 9, 51, 38
5, 46447, Note_on_c, 9, 35, 50
5, 46456, Note_on_c, 9, 51, 0
5, 46470, Note_on_c, 9, 35, 0
5, 46481, Note_on_c, 9, 44, 0
5, 46515, Note_on_c, 9, 51, 82
5, 46557, Note_on_c, 9, 40, 68
5, 46565, Note_on_c, 9, 40, 0
5, 46570, Note_on_c, 9, 51, 0
5, 46590, Note_on_c, 9, 40, 71
5, 46606, Note_on_c, 9, 40, 0
5, 46636, Note_on_c, 9, 35, 54
5, 46648, Note_on_c, 9, 35, 0
5, 46676, Note_on_c, 9, 44, 48
5, 46716, Note_on_c, 9, 40, 71
5, 46731, Note_on_c, 9, 44, 0
5, 46735, Note_on_c, 9, 40, 0
5, 46752, Note_on_c, 9, 40, 70
5, 46770, Note_on_c, 9, 40, 0
5, 46797, Note_on_c, 9, 35, 64
5, 46820, Note_on_c, 9, 35, 0
5, 46911, Note_on_c, 9, 35, 62
5, 46916, Note_on_c, 9, 44, 53
5, 46918, Note_on_c, 9, 35, 0
5, 46942, Note_on_c, 9, 35, 68
5, 46958, Note_on_c, 9, 44, 0
5, 46965, Note_on_c, 9, 35, 0
5, 47003, Note_on_c, 9, 51, 30
5, 47010, Note_on_c, 9, 51, 0
5, 47031, Note_on_c, 9, 35, 76
5, 47037, Note_on_c, 9, 51, 45
5, 47081, Note_on_c, 9, 35, 0
5, 47120, Note_on_c, 9, 51, 0
5, 47155, Note_on_c, 9, 51, 55
5, 47156, Note_on_c, 9, 44, 55
5, 47188, Note_on_c, 9, 44, 0
5, 47246, Note_on_c, 9, 51, 0
5, 47280, Note_on_c, 9, 51, 54
5, 47361, Note_on_c, 9, 51, 0
5, 47396, Note_on_c, 9, 44, 56
5, 47400, Note_on_c, 9, 51, 56
5, 47450, Note_on_c, 9, 51, 0
5, 47453, Note_on_c, 9, 44, 0
5, 47481, Note_on_c, 9, 51, 71
5, 47496, Note_on_c, 9, 51, 0
5, 47522, Note_on_c, 9, 51, 42
5, 47600, Note_on_c, 9, 51, 0
5, 47636, Note_on_c, 9, 44, 56
5, 47636, Note_on_c, 9, 51, 53
5, 47691, Note_on_c, 9, 44, 0
5, 47718, Note_on_c, 9, 51, 0
5, 47757, Note_on_c, 9, 51, 51
5, 47835, Note_on_c, 9, 51, 0
5, 47875, Note_on_c, 9, 51, 57
5, 47876, Note_on_c, 9, 44, 69
5, 47933, Note_on_c, 9, 44, 0
5, 47952, Note_on_c, 9, 51, 0
5, 47955, Note_on_c, 9, 35, 54
5, 47966, Note_on_c, 9, 35, 0
5, 47992, Note_on_c, 9, 51, 50
5, 47996, Note_on_c, 9, 35, 46
5, 48031, Note_on_c, 9, 35, 0
5, 48068, Note_on_c, 9, 51, 0
5, 48110, Note_on_c, 9, 51, 53
5, 48116, Note_on_c, 9, 44, 67
5, 48171, Note_on_c, 9, 44, 0
5, 48195, Note_on_c, 9, 51, 0
5, 48200, Note_on_c, 9, 35, 56
5, 48210, Note_on_c, 9, 35, 0
5, 48230, Note_on_c, 9, 51, 47
5, 48305, Note_on_c, 9, 51, 0
5, 48342, Note_on_c, 9, 51, 54
5, 48356, Note_on_c, 9, 44, 64
5, 48405, Note_on_c, 9, 51, 0
5, 48418, Note_on_c, 9, 44, 0
5, 48435, Note_on_c, 9, 51, 60
5, 48445, Note_on_c, 9, 35, 35
5, 48455, Note_on_c, 9, 51, 0
5, 48456, Note_on_c, 9, 35, 0
5, 48471, Note_on_c, 9, 51, 45
5, 48480, Note_on_c, 9, 35, 44
5, 48505, Note_on_c, 9, 35, 0
5, 48516, Note_on_c, 9, 51, 0
5, 48585, Note_on_c, 9, 51, 56
5, 48596, Note_on_c, 9, 44, 64
5, 48652, Note_on_c, 9, 44, 0
5, 48656, Note_on_c, 9, 51, 0
5, 48681, Note_on_c, 9, 51, 29
5, 48695, Note_on_c, 9, 51, 0
5, 48712, Note_on_c, 9, 51, 58
5, 48795, Note_on_c, 9, 51, 0
5, 48801, Note_on_c, 9, 35, 32
5, 48811, Note_on_c, 9, 35, 0
5, 48835, Note_on_c, 9, 51, 58
5, 48836, Note_on_c, 9, 46, 53
5, 48863, Note_on_c, 9, 46, 0
5, 48895, Note_on_c, 9, 51, 0
5, 48912, Note_on_c, 9, 57, 64
5, 48917, Note_on_c, 9, 53, 68
5, 48920, Note_on_c, 9, 57, 0
5, 48942, Note_on_c, 9, 53, 0
5, 48955, Note_on_c, 9, 51, 37
5, 49038, Note_on_c, 9, 51, 0
5, 49070, Note_on_c, 9, 51, 53
5, 49076, Note_on_c, 9, 44, 62
5, 49118, Note_on_c, 9, 44, 0
5, 49160, Note_on_c, 9, 51, 0
5, 49160, Note_on_c, 9, 35, 60
5, 49170, Note_on_c, 9, 35, 0
5, 49195, Note_on_c, 9, 51, 53
5, 49200, Note_on_c, 9, 35, 39
5, 49222, Note_on_c, 9, 35, 0
5, 49272, Note_on_c, 9, 51, 0
5, 49315, Note_on_c, 9, 51, 55
5, 49316, Note_on_c, 9, 44, 60
5, 49348, Note_on_c, 9, 44, 0
5, 49396, Note_on_c, 9, 51, 0
5, 49436, Note_on_c, 9, 35, 37
5, 49440, Note_on_c, 9, 51, 50
5, 49448, Note_on_c, 9, 35, 0
5, 49531, Note_on_c, 9, 51, 0
5, 49556, Note_on_c, 9, 44, 69
5, 49561, Note_on_c, 9, 53, 46
5, 49568, Note_on_c, 9, 44, 0
5, 49571, Note_on_c, 9, 53, 0
5, 49590, Note_on_c, 9, 53, 58
5, 49643, Note_on_c, 9, 35, 55
5, 49655, Note_on_c, 9, 35, 0
5, 49655, Note_on_c, 9, 53, 0
5, 49722, Note_on_c, 9, 53, 67
5, 49783, Note_on_c, 9, 53, 0
5, 49796, Note_on_c, 9, 44, 69
5, 49815, Note_on_c, 9, 53, 42
5, 49823, Note_on_c, 9, 44, 0
5, 49825, Note_on_c, 9, 53, 0
5, 49840, Note_on_c, 9, 53, 73
5, 49889, Note_on_c, 9, 35, 28
5, 49896, Note_on_c, 9, 53, 0
5, 49901, Note_on_c, 9, 35, 0
5, 49917, Note_on_c, 9, 51, 60
5, 50000, Note_on_c, 9, 51, 0
5, 50030, Note_on_c, 9, 51, 49
5, 50036, Note_on_c, 9, 44, 67
5, 50073, Note_on_c, 9, 44, 0
5, 50086, Note_on_c, 9, 51, 0
5, 50155, Note_on_c, 9, 51, 40
5, 50237, Note_on_c, 9, 51, 0
5, 50276, Note_on_c, 9, 44, 65
5, 50276, Note_on_c, 9, 51, 56
5, 50316, Note_on_c, 9, 44, 0
5, 50333, Note_on_c, 9, 51, 0
5, 50360, Note_on_c, 9, 51, 44
5, 50370, Note_on_c, 9, 51, 0
5, 50392, Note_on_c, 9, 51, 43
5, 50480, Note_on_c, 9, 51, 0
5, 50515, Note_on_c, 9, 51, 43
5, 50516, Note_on_c, 9, 44, 67
5, 50558, Note_on_c, 9, 44, 0
5, 50608, Note_on_c, 9, 51, 0
5, 50631, Note_on_c, 9, 37, 56
5, 50636, Note_on_c, 9, 51, 55
5, 50708, Note_on_c, 9, 37, 0
5, 50728, Note_on_c, 9, 51, 0
5, 50756, Note_on_c, 9, 44, 63
5, 50757, Note_on_c, 9, 37, 46
5, 50760, Note_on_c, 9, 51, 60
5, 50798, Note_on_c, 9, 44, 0
5, 50820, Note_on_c, 9, 51, 0
5, 50820, Note_on_c, 9, 37, 0
5, 50840, Note_on_c, 9, 35, 50
5, 50842, Note_on_c, 9, 51, 59
5, 50851, Note_on_c, 9, 35, 0
5, 50857, Note_on_c, 9, 51, 0
5, 50875, Note_on_c, 9, 51, 50
5, 50887, Note_on_c, 9, 35, 30
5, 50915, Note_on_c, 9, 35, 0
5, 50970, Note_on_c, 9, 51, 0
5, 50996, Note_on_c, 9, 44, 64
5, 51000, Note_on_c, 9, 51, 56
5, 51033, Note_on_c, 9, 44, 0
5, 51080, Note_on_c, 9, 35, 59
5, 51087, Note_on_c, 9, 35, 0
5, 51092, Note_on_c, 9, 51, 0
5, 51116, Note_on_c, 9, 51, 40
5, 51141, Note_on_c, 9, 51, 0
5, 51155, Note_on_c, 9, 53, 58
5, 51207, Note_on_c, 9, 53, 0
5, 51236, Note_on_c, 9, 44, 61
5, 51241, Note_on_c, 9, 53, 68
5, 51268, Note_on_c, 9, 44, 0
5, 51300, Note_on_c, 9, 53, 0
5, 51321, Note_on_c, 9, 51, 53
5, 51338, Note_on_c, 9, 51, 0
5, 51357, Note_on_c, 9, 51, 37
5, 51365, Note_on_c, 9, 35, 45
5, 51377, Note_on_c, 9, 35, 0
5, 51444, Note_on_c, 9, 51, 0
5, 51476, Note_on_c, 9, 44, 60
5, 51476, Note_on_c, 9, 51, 51
5, 51508, Note_on_c, 9, 44, 0
5, 51570, Note_on_c, 9, 51, 0
5, 51601, Note_on_c, 9, 51, 45
5, 51692, Note_on_c, 9, 51, 0
5, 51716, Note_on_c, 9, 46, 55
5, 51720, Note_on_c, 9, 51, 50
5, 51741, Note_on_c, 9, 46, 0
5, 51796, Note_on_c, 9, 35, 74
5, 51805, Note_on_c, 9, 51, 0
5, 51815, Note_on_c, 9, 35, 0
5, 51836, Note_on_c, 9, 51, 60
5, 51907, Note_on_c, 9, 51, 0
5, 51929, Note_on_c, 9, 51, 37
5, 51940, Note_on_c, 9, 51, 0
5, 51956, Note_on_c, 9, 44, 54
5, 51960, Note_on_c, 9, 51, 65
5, 51983, Note_on_c, 9, 44, 0
5, 52036, Note_on_c, 9, 35, 62
5, 52047, Note_on_c, 9, 35, 0
5, 52056, Note_on_c, 9, 51, 0
5, 52077, Note_on_c, 9, 51, 57
5, 52168, Note_on_c, 9, 51, 0
5, 52196, Note_on_c, 9, 44, 62
5, 52200, Note_on_c, 9, 51, 69
5, 52228, Note_on_c, 9, 44, 0
5, 52275, Note_on_c, 9, 51, 0
5, 52290, Note_on_c, 9, 51, 47
5, 52303, Note_on_c, 9, 51, 0
5, 52321, Note_on_c, 9, 51, 56
5, 52411, Note_on_c, 9, 51, 0
5, 52436, Note_on_c, 9, 44, 57
5, 52441, Note_on_c, 9, 51, 67
5, 52458, Note_on_c, 9, 51, 0
5, 52466, Note_on_c, 9, 44, 0
5, 52467, Note_on_c, 9, 51, 45
5, 52485, Note_on_c, 9, 51, 0
5, 52502, Note_on_c, 9, 51, 21
5, 52515, Note_on_c, 9, 51, 0
5, 52565, Note_on_c, 9, 51, 60
5, 52590, Note_on_c, 9, 51, 0
5, 52595, Note_on_c, 9, 51, 36
5, 52611, Note_on_c, 9, 51, 0
5, 52676, Note_on_c, 9, 46, 33
5, 52677, Note_on_c, 9, 51, 64
5, 52702, Note_on_c, 9, 51, 0
5, 52710, Note_on_c, 9, 51, 43
5, 52726, Note_on_c, 9, 46, 0
5, 52733, Note_on_c, 9, 51, 0
5, 52765, Note_on_c, 9, 35, 58
5, 52775, Note_on_c, 9, 35, 0
5, 52795, Note_on_c, 9, 51, 67
5, 52821, Note_on_c, 9, 51, 0
5, 52830, Note_on_c, 9, 51, 52
5, 52846, Note_on_c, 9, 51, 0
5, 52916, Note_on_c, 9, 44, 56
5, 52920, Note_on_c, 9, 51, 74
5, 52941, Note_on_c, 9, 44, 0
5, 53002, Note_on_c, 9, 51, 0
5, 53036, Note_on_c, 9, 35, 46
5, 53042, Note_on_c, 9, 51, 70
5, 53047, Note_on_c, 9, 35, 0
5, 53120, Note_on_c, 9, 51, 0
5, 53156, Note_on_c, 9, 44, 64
5, 53157, Note_on_c, 9, 51, 55
5, 53193, Note_on_c, 9, 44, 0
5, 53208, Note_on_c, 9, 51, 0
5, 53250, Note_on_c, 9, 51, 51
5, 53267, Note_on_c, 9, 51, 0
5, 53275, Note_on_c, 9, 35, 45
5, 53287, Note_on_c, 9, 35, 0
5, 53352, Note_on_c, 9, 53, 65
5, 53377, Note_on_c, 9, 53, 0
5, 53395, Note_on_c, 9, 51, 44
5, 53396, Note_on_c, 9, 44, 70
5, 53438, Note_on_c, 9, 44, 0
5, 53480, Note_on_c, 9, 35, 45
5, 53485, Note_on_c, 9, 51, 0
5, 53490, Note_on_c, 9, 35, 0
5, 53520, Note_on_c, 9, 51, 59
5, 53605, Note_on_c, 9, 51, 0
5, 53635, Note_on_c, 9, 51, 64
5, 53636, Note_on_c, 9, 44, 70
5, 53678, Note_on_c, 9, 44, 0
5, 53700, Note_on_c, 9, 51, 0
5, 53725, Note_on_c, 9, 51, 39
5, 53735, Note_on_c, 9, 51, 0
5, 53755, Note_on_c, 9, 51, 53
5, 53756, Note_on_c, 9, 35, 48
5, 53768, Note_on_c, 9, 35, 0
5, 53847, Note_on_c, 9, 51, 0
5, 53876, Note_on_c, 9, 44, 71
5, 53876, Note_on_c, 9, 51, 73
5, 53926, Note_on_c, 9, 44, 0
5, 53950, Note_on_c, 9, 51, 0
5, 53970, Note_on_c, 9, 51, 45
5, 53985, Note_on_c, 9, 51, 0
5, 54000, Note_on_c, 9, 51, 62
5, 54088, Note_on_c, 9, 51, 0
5, 54116, Note_on_c, 9, 44, 71
5, 54122, Note_on_c, 9, 51, 67
5, 54161, Note_on_c, 9, 44, 0
5, 54193, Note_on_c, 9, 51, 0
5, 54210, Note_on_c, 9, 51, 55
5, 54226, Note_on_c, 9, 51, 0
5, 54241, Note_on_c, 9, 51, 59
5, 54301, Note_on_c, 9, 51, 0
5, 54316, Note_on_c, 9, 35, 43
5, 54321, Note_on_c, 9, 53, 80
5, 54327, Note_on_c, 9, 35, 0
5, 54351, Note_on_c, 9, 53, 0
5, 54356, Note_on_c, 9, 44, 71
5, 54365, Note_on_c, 9, 51, 29
5, 54377, Note_on_c, 9, 51, 0
5, 54401, Note_on_c, 9, 44, 0
5, 54437, Note_on_c, 9, 35, 57
5, 54440, Note_on_c, 9, 51, 44
5, 54448, Note_on_c, 9, 35, 0
5, 54458, Note_on_c, 9, 51, 0
5, 54475, Note_on_c, 9, 53, 80
5, 54535, Note_on_c, 9, 53, 0
5, 54555, Note_on_c, 9, 35, 57
5, 54557, Note_on_c, 9, 51, 43
5, 54565, Note_on_c, 9, 35, 0
5, 54567, Note_on_c, 9, 51, 0
5, 54596, Note_on_c, 9, 44, 74
5, 54600, Note_on_c, 9, 51, 30
5, 54617, Note_on_c, 9, 51, 0
5, 54636, Note_on_c, 9, 44, 0
5, 54672, Note_on_c, 9, 53, 85
5, 54672, Note_on_c, 9, 35, 78
5, 54700, Note_on_c, 9, 35, 0
5, 54713, Note_on_c, 9, 53, 0
5, 54835, Note_on_c, 9, 53, 89
5, 54836, Note_on_c, 9, 44, 73
5, 54876, Note_on_c, 9, 44, 0
5, 54895, Note_on_c, 9, 53, 0
5, 54952, Note_on_c, 9, 51, 40
5, 54995, Note_on_c, 9, 51, 0
5, 55032, Note_on_c, 9, 53, 88
5, 55067, Note_on_c, 9, 53, 0
5, 55076, Note_on_c, 9, 44, 71
5, 55121, Note_on_c, 9, 44, 0
5, 55170, Note_on_c, 9, 51, 26
5, 55180, Note_on_c, 9, 51, 0
5, 55190, Note_on_c, 9, 35, 59
5, 55201, Note_on_c, 9, 51, 39
5, 55206, Note_on_c, 9, 35, 0
5, 55281, Note_on_c, 9, 51, 0
5, 55316, Note_on_c, 9, 44, 71
5, 55316, Note_on_c, 9, 51, 59
5, 55363, Note_on_c, 9, 44, 0
5, 55390, Note_on_c, 9, 51, 0
5, 55396, Note_on_c, 9, 35, 51
5, 55406, Note_on_c, 9, 35, 0
5, 55407, Note_on_c, 9, 51, 49
5, 55418, Note_on_c, 9, 51, 0
5, 55440, Note_on_c, 9, 51, 37
5, 55526, Note_on_c, 9, 51, 0
5, 55556, Note_on_c, 9, 44, 71
5, 55557, Note_on_c, 9, 51, 67
5, 55603, Note_on_c, 9, 44, 0
5, 55630, Note_on_c, 9, 51, 0
5, 55646, Note_on_c, 9, 51, 46
5, 55661, Note_on_c, 9, 51, 0
5, 55677, Note_on_c, 9, 51, 59
5, 55777, Note_on_c, 9, 51, 0
5, 55796, Note_on_c, 9, 44, 71
5, 55800, Note_on_c, 9, 51, 56
5, 55843, Note_on_c, 9, 44, 0
5, 55868, Note_on_c, 9, 51, 0
5, 55885, Note_on_c, 9, 51, 47
5, 55895, Note_on_c, 9, 51, 0
5, 55920, Note_on_c, 9, 51, 45
5, 56005, Note_on_c, 9, 51, 0
5, 56036, Note_on_c, 9, 44, 71
5, 56036, Note_on_c, 9, 51, 64
5, 56086, Note_on_c, 9, 44, 0
5, 56106, Note_on_c, 9, 51, 0
5, 56125, Note_on_c, 9, 51, 48
5, 56140, Note_on_c, 9, 51, 0
5, 56151, Note_on_c, 9, 40, 57
5, 56156, Note_on_c, 9, 51, 54
5, 56203, Note_on_c, 9, 40, 0
5, 56218, Note_on_c, 9, 51, 0
5, 56240, Note_on_c, 9, 53, 80
5, 56267, Note_on_c, 9, 53, 0
5, 56272, Note_on_c, 9, 40, 80
5, 56276, Note_on_c, 9, 44, 71
5, 56287, Note_on_c, 9, 51, 27
5, 56326, Note_on_c, 9, 44, 0
5, 56330, Note_on_c, 9, 40, 0
5, 56360, Note_on_c, 9, 51, 0
5, 56391, Note_on_c, 9, 51, 40
5, 56470, Note_on_c, 9, 51, 0
5, 56487, Note_on_c, 9, 51, 38
5, 56495, Note_on_c, 9, 51, 0
5, 56515, Note_on_c, 9, 51, 49
5, 56516, Note_on_c, 9, 44, 71
5, 56571, Note_on_c, 9, 44, 0
5, 56607, Note_on_c, 9, 51, 0
5, 56622, Note_on_c, 9, 57, 31
5, 56630, Note_on_c, 9, 57, 0
5, 56636, Note_on_c, 9, 35, 53
5, 56640, Note_on_c, 9, 51, 61
5, 56690, Note_on_c, 9, 35, 0
5, 56725, Note_on_c, 9, 51, 0
5, 56756, Note_on_c, 9, 44, 74
5, 56760, Note_on_c, 9, 51, 58
5, 56811, Note_on_c, 9, 44, 0
5, 56826, Note_on_c, 9, 51, 0
5, 56837, Note_on_c, 9, 35, 56
5, 56845, Note_on_c, 9, 51, 46
5, 56855, Note_on_c, 9, 35, 0
5, 56857, Note_on_c, 9, 51, 0
5, 56877, Note_on_c, 9, 51, 48
5, 56956, Note_on_c, 9, 57, 71
5, 56960, Note_on_c, 9, 51, 0
5, 56965, Note_on_c, 9, 57, 0
5, 56992, Note_on_c, 9, 35, 51
5, 56996, Note_on_c, 9, 44, 71
5, 56996, Note_on_c, 9, 51, 68
5, 57043, Note_on_c, 9, 44, 0
5, 57062, Note_on_c, 9, 51, 0
5, 57065, Note_on_c, 9, 35, 0
5, 57081, Note_on_c, 9, 51, 48
5, 57097, Note_on_c, 9, 51, 0
5, 57115, Note_on_c, 9, 51, 54
5, 57193, Note_on_c, 9, 51, 0
5, 57235, Note_on_c, 9, 51, 70
5, 57236, Note_on_c, 9, 44, 71
5, 57283, Note_on_c, 9, 44, 0
5, 57310, Note_on_c, 9, 51, 0
5, 57355, Note_on_c, 9, 35, 41
5, 57356, Note_on_c, 9, 51, 60
5, 57372, Note_on_c, 9, 35, 0
5, 57418, Note_on_c, 9, 51, 0
5, 57440, Note_on_c, 9, 35, 47
5, 57445, Note_on_c, 9, 51, 32
5, 57451, Note_on_c, 9, 35, 0
5, 57453, Note_on_c, 9, 51, 0
5, 57476, Note_on_c, 9, 44, 70
5, 57480, Note_on_c, 9, 51, 54
5, 57518, Note_on_c, 9, 44, 0
5, 57566, Note_on_c, 9, 51, 0
5, 57595, Note_on_c, 9, 51, 65
5, 57681, Note_on_c, 9, 51, 0
5, 57716, Note_on_c, 9, 44, 74
5, 57717, Note_on_c, 9, 51, 63
5, 57758, Note_on_c, 9, 44, 0
5, 57780, Note_on_c, 9, 51, 0
5, 57811, Note_on_c, 9, 51, 36
5, 57820, Note_on_c, 9, 51, 0
5, 57836, Note_on_c, 9, 37, 50
5, 57837, Note_on_c, 9, 51, 45
5, 57906, Note_on_c, 9, 37, 0
5, 57925, Note_on_c, 9, 51, 0
5, 57956, Note_on_c, 9, 44, 76
5, 57957, Note_on_c, 9, 37, 48
5, 57960, Note_on_c, 9, 51, 55
5, 57966, Note_on_c, 9, 51, 0
5, 57986, Note_on_c, 9, 51, 49
5, 58001, Note_on_c, 9, 44, 0
5, 58015, Note_on_c, 9, 37, 0
5, 58039, Note_on_c, 9, 51, 0
5, 58041, Note_on_c, 9, 35, 55
5, 58052, Note_on_c, 9, 35, 0
5, 58081, Note_on_c, 9, 51, 51
5, 58088, Note_on_c, 9, 51, 0
5, 58110, Note_on_c, 9, 51, 55
5, 58170, Note_on_c, 9, 51, 0
5, 58196, Note_on_c, 9, 44, 75
5, 58200, Note_on_c, 9, 51, 71
5, 58243, Note_on_c, 9, 44, 0
5, 58285, Note_on_c, 9, 51, 0
5, 58320, Note_on_c, 9, 51, 59
5, 58405, Note_on_c, 9, 51, 0
5, 58436, Note_on_c, 9, 44, 74
5, 58440, Note_on_c, 9, 51, 65
5, 58441, Note_on_c, 9, 37, 37
5, 58483, Note_on_c, 9, 44, 0
5, 58485, Note_on_c, 9, 37, 0
5, 58510, Note_on_c, 9, 51, 0
5, 58522, Note_on_c, 9, 35, 57
5, 58530, Note_on_c, 9, 51, 49
5, 58533, Note_on_c, 9, 35, 0
5, 58540, Note_on_c, 9, 51, 0
5, 58560, Note_on_c, 9, 35, 49
5, 58560, Note_on_c, 9, 51, 53
5, 58585, Note_on_c, 9, 35, 0
5, 58650, Note_on_c, 9, 51, 0
5, 58676, Note_on_c, 9, 44, 75
5, 58680, Note_on_c, 9, 51, 70
5, 58731, Note_on_c, 9, 44, 0
5, 58766, Note_on_c, 9, 51, 0
5, 58801, Note_on_c, 9, 51, 67
5, 58881, Note_on_c, 9, 51, 0
5, 58916, Note_on_c, 9, 44, 74
5, 58920, Note_on_c, 9, 35, 32
5, 58921, Note_on_c, 9, 51, 61
5, 58942, Note_on_c, 9, 35, 0
5, 58955, Note_on_c, 9, 35, 36
5, 58966, Note_on_c, 9, 44, 0
5, 58985, Note_on_c, 9, 51, 0
5, 59000, Note_on_c, 9, 35, 0
5, 59010, Note_on_c, 9, 51, 42
5, 59020, Note_on_c, 9, 51, 0
5, 59040, Note_on_c, 9, 51, 50
5, 59130, Note_on_c, 9, 51, 0
5, 59156, Note_on_c, 9, 44, 71
5, 59160, Note_on_c, 9, 51, 67
5, 59211, Note_on_c, 9, 44, 0
5, 59231, Note_on_c, 9, 51, 0
5, 59247, Note_on_c, 9, 51, 47
5, 59260, Note_on_c, 9, 51, 0
5, 59280, Note_on_c, 9, 51, 62
5, 59366, Note_on_c, 9, 51, 0
5, 59396, Note_on_c, 9, 44, 73
5, 59400, Note_on_c, 9, 51, 65
5, 59446, Note_on_c, 9, 44, 0
5, 59471, Note_on_c, 9, 51, 0
5, 59489, Note_on_c, 9, 51, 39
5, 59497, Note_on_c, 9, 51, 0
5, 59517, Note_on_c, 9, 51, 49
5, 59607, Note_on_c, 9, 51, 0
5, 59636, Note_on_c, 9, 44, 69
5, 59640, Note_on_c, 9, 51, 71
5, 59681, Note_on_c, 9, 44, 0
5, 59711, Note_on_c, 9, 51, 0
5, 59716, Note_on_c, 9, 35, 46
5, 59726, Note_on_c, 9, 35, 0
5, 59730, Note_on_c, 9, 51, 48
5, 59742, Note_on_c, 9, 51, 0
5, 59760, Note_on_c, 9, 51, 65
5, 59845, Note_on_c, 9, 51, 0
5, 59875, Note_on_c, 9, 51, 60
5, 59876, Note_on_c, 9, 44, 69
5, 59916, Note_on_c, 9, 44, 0
5, 59936, Note_on_c, 9, 51, 0
5, 59955, Note_on_c, 9, 53, 78
5, 59983, Note_on_c, 9, 53, 0
5, 59995, Note_on_c, 9, 51, 39
5, 59997, Note_on_c, 9, 35, 39
5, 60008, Note_on_c, 9, 35, 0
5, 60083, Note_on_c, 9, 51, 0
5, 60112, Note_on_c, 9, 51, 74
5, 60116, Note_on_c, 9, 44, 70
5, 60148, Note_on_c, 9, 44, 0
5, 60180, Note_on_c, 9, 51, 0
5, 60210, Note_on_c, 9, 51, 27
5, 60226, Note_on_c, 9, 51, 0
5, 60241, Note_on_c, 9, 51, 62
5, 60333, Note_on_c, 9, 51, 0
5, 60356, Note_on_c, 9, 44, 68
5, 60357, Note_on_c, 9, 51, 67
5, 60386, Note_on_c, 9, 44, 0
5, 60427, Note_on_c, 9, 51, 0
5, 60447, Note_on_c, 9, 51, 34
5, 60454, Note_on_c, 9, 51, 0
5, 60480, Note_on_c, 9, 51, 35
5, 60486, Note_on_c, 9, 35, 48
5, 60491, Note_on_c, 9, 51, 0
5, 60505, Note_on_c, 9, 35, 0
5, 60555, Note_on_c, 9, 51, 81
5, 60582, Note_on_c, 9, 51, 0
5, 60596, Note_on_c, 9, 44, 68
5, 60597, Note_on_c, 9, 51, 53
5, 60633, Note_on_c, 9, 44, 0
5, 60673, Note_on_c, 9, 51, 0
5, 60685, Note_on_c, 9, 35, 50
5, 60695, Note_on_c, 9, 35, 0
5, 60720, Note_on_c, 9, 51, 60
5, 60721, Note_on_c, 9, 35, 59
5, 60750, Note_on_c, 9, 35, 0
5, 60780, Note_on_c, 9, 51, 0
5, 60836, Note_on_c, 9, 44, 69
5, 60836, Note_on_c, 9, 51, 73
5, 60871, Note_on_c, 9, 44, 0
5, 60880, Note_on_c, 9, 51, 0
5, 60917, Note_on_c, 9, 51, 53
5, 60932, Note_on_c, 9, 51, 0
5, 60957, Note_on_c, 9, 53, 73
5, 60966, Note_on_c, 9, 35, 50
5, 61006, Note_on_c, 9, 35, 0
5, 61012, Note_on_c, 9, 53, 0
5, 61032, Note_on_c, 9, 35, 53
5, 61035, Note_on_c, 9, 51, 42
5, 61045, Note_on_c, 9, 35, 0
5, 61047, Note_on_c, 9, 51, 0
5, 61076, Note_on_c, 9, 44, 71
5, 61081, Note_on_c, 9, 51, 30
5, 61093, Note_on_c, 9, 51, 0
5, 61103, Note_on_c, 9, 44, 0
5, 61160, Note_on_c, 9, 53, 83
5, 61211, Note_on_c, 9, 53, 0
5, 61281, Note_on_c, 9, 51, 38
5, 61301, Note_on_c, 9, 51, 0
5, 61316, Note_on_c, 9, 46, 51
5, 61317, Note_on_c, 9, 35, 53
5, 61326, Note_on_c, 9, 51, 23
5, 61330, Note_on_c, 9, 35, 0
5, 61346, Note_on_c, 9, 46, 0
5, 61347, Note_on_c, 9, 51, 0
5, 61397, Note_on_c, 9, 51, 69
5, 61399, Note_on_c, 9, 35, 52
5, 61409, Note_on_c, 9, 35, 0
5, 61415, Note_on_c, 9, 51, 0
5, 61515, Note_on_c, 9, 35, 84
5, 61519, Note_on_c, 9, 51, 39
5, 61526, Note_on_c, 9, 51, 0
5, 61537, Note_on_c, 9, 35, 0
5, 61552, Note_on_c, 9, 35, 71
5, 61556, Note_on_c, 9, 44, 61
5, 61556, Note_on_c, 9, 51, 76
5, 61578, Note_on_c, 9, 44, 0
5, 61582, Note_on_c, 9, 35, 0
5, 61631, Note_on_c, 9, 51, 0
5, 61675, Note_on_c, 9, 35, 85
5, 61680, Note_on_c, 9, 51, 53
5, 61730, Note_on_c, 9, 35, 0
5, 61745, Note_on_c, 9, 51, 0
5, 61747, Note_on_c, 9, 35, 74
5, 61762, Note_on_c, 9, 51, 32
5, 61770, Note_on_c, 9, 51, 0
5, 61770, Note_on_c, 9, 35, 0
5, 61796, Note_on_c, 9, 44, 67
5, 61800, Note_on_c, 9, 51, 32
5, 61825, Note_on_c, 9, 51, 0
5, 61838, Note_on_c, 9, 44, 0
5, 61923, Note_on_c, 9, 35, 45
5, 61928, Note_on_c, 9, 53, 35
5, 61938, Note_on_c, 9, 53, 0
5, 61967, Note_on_c, 9, 35, 0
5, 61992, Note_on_c, 9, 51, 30
5, 62007, Note_on_c, 9, 51, 0
5, 62035, Note_on_c, 9, 51, 25
5, 62036, Note_on_c, 9, 44, 67
5, 62053, Note_on_c, 9, 51, 0
5, 62071, Note_on_c, 9, 44, 0
5, 62115, Note_on_c, 9, 57, 64
5, 62115, Note_on_c, 9, 51, 56
5, 62116, Note_on_c, 9, 57, 69
5, 62120, Note_on_c, 9, 35, 77
5, 62125, Note_on_c, 9, 57, 0
5, 62276, Note_on_c, 9, 44, 65
5, 62308, Note_on_c, 9, 44, 0
5, 62311, Note_on_c, 9, 51, 0
5, 62311, Note_on_c, 9, 57, 0
5, 62321, Note_on_c, 9, 35, 0
5, 62516, Note_on_c, 9, 44, 67
5, 62553, Note_on_c, 9, 44, 0
5, 62756, Note_on_c, 9, 44, 69
5, 62796, Note_on_c, 9, 44, 0
5, 62796, End_track
0, 0, End_of_file
