0, 0, Header, 0, 1, 384
1, 0, Start_track
1, 0, Title_t, "untitled"
1, 0, System_exclusive, 5, 126, 127, 9, 1, 247
1, 1, System_exclusive, 8, 67, 16, 76, 0, 0, 126, 0, 247
1, 1, System_exclusive, 8, 67, 16, 76, 8, 15, 0, 1, 247
1, 1, System_exclusive, 8, 67, 16, 76, 8, 14, 0, 1, 247
1, 1, System_exclusive, 8, 67, 16, 76, 8, 13, 0, 1, 247
1, 1, System_exclusive, 8, 67, 16, 76, 8, 12, 0, 1, 247
1, 1, System_exclusive, 8, 67, 16, 76, 8, 11, 0, 1, 247
1, 1, System_exclusive, 8, 67, 16, 76, 8, 10, 0, 1, 247
1, 1, System_exclusive, 8, 67, 16, 76, 8, 9, 0, 0, 247
1, 1, System_exclusive, 8, 67, 16, 76, 8, 8, 0, 1, 247
1, 1, System_exclusive, 8, 67, 16, 76, 8, 7, 0, 1, 247
1, 1, System_exclusive, 8, 67, 16, 76, 8, 6, 0, 1, 247
1, 1, System_exclusive, 8, 67, 16, 76, 8, 5, 0, 1, 247
1, 1, System_exclusive, 8, 67, 16, 76, 8, 4, 0, 2, 247
1, 1, System_exclusive, 8, 67, 16, 76, 8, 3, 0, 2, 247
1, 1, System_exclusive, 8, 67, 16, 76, 8, 2, 0, 4, 247
1, 1, System_exclusive, 8, 67, 16, 76, 8, 1, 0, 4, 247
1, 1, System_exclusive, 8, 67, 16, 76, 8, 0, 0, 8, 247
1, 1, System_exclusive, 8, 67, 16, 76, 8, 0, 7, 0, 247
1, 1, System_exclusive, 8, 67, 16, 76, 8, 1, 7, 0, 247
1, 1, System_exclusive, 8, 67, 16, 76, 8, 2, 7, 0, 247
1, 1, System_exclusive, 8, 67, 16, 76, 8, 3, 7, 0, 247
1, 1, System_exclusive, 8, 67, 16, 76, 8, 4, 7, 0, 247
1, 1, System_exclusive, 8, 67, 16, 76, 8, 5, 7, 0, 247
1, 1, System_exclusive, 8, 67, 16, 76, 8, 6, 7, 0, 247
1, 1, System_exclusive, 8, 67, 16, 76, 8, 7, 7, 0, 247
1, 1, System_exclusive, 8, 67, 16, 76, 8, 8, 7, 0, 247
1, 1, System_exclusive, 8, 67, 16, 76, 8, 9, 7, 2, 247
1, 1, System_exclusive, 8, 67, 16, 76, 8, 10, 7, 0, 247
1, 1, System_exclusive, 8, 67, 16, 76, 8, 11, 7, 0, 247
1, 1, System_exclusive, 8, 67, 16, 76, 8, 12, 7, 0, 247
1, 1, System_exclusive, 8, 67, 16, 76, 8, 13, 7, 0, 247
1, 1, System_exclusive, 8, 67, 16, 76, 8, 14, 7, 0, 247
1, 1, System_exclusive, 8, 67, 16, 76, 8, 15, 7, 0, 247
1, 1, System_exclusive, 9, 67, 16, 76, 2, 1, 0, 1, 0, 247
1, 1, System_exclusive, 9, 67, 16, 76, 2, 1, 32, 65, 0, 247
1, 1, System_exclusive, 9, 67, 16, 76, 2, 1, 64, 5, 0, 247
1, 1, System_exclusive, 9, 67, 16, 76, 3, 0, 0, 3, 18, 247
1, 1, System_exclusive, 8, 67, 16, 76, 3, 0, 11, 5, 247
1, 1, System_exclusive, 8, 67, 16, 76, 3, 0, 12, 0, 247
1, 1, System_exclusive, 8, 67, 16, 76, 8, 0, 114, 64, 247
1, 1, System_exclusive, 8, 67, 16, 76, 8, 0, 115, 95, 247
1, 1, System_exclusive, 8, 67, 16, 76, 8, 0, 119, 46, 247
1, 1, Time_signature, 4, 2, 24, 8
1, 1, Key_signature, 0, "major"
1, 1, Tempo, 600000
1, 1, Tempo, 500000
1, 1, Sequencer_specific, 21, 67, 115, 10, 0, 5, 75, 79, 79, 79, 79, 79, 79, 79, 79, 79, 79, 79, 79, 79, 79, 79
1, 1, Sequencer_specific, 6, 67, 115, 10, 0, 4, 1
1, 1, Sequencer_specific, 9, 67, 123, 0, 88, 70, 48, 50, 0, 0
1, 385, Control_c, 0, 0, 0
1, 385, Control_c, 0, 32, 122
1, 385, Program_c, 0, 0
1, 386, Control_c, 0, 7, 104
1, 386, Control_c, 0, 10, 64
1, 386, Control_c, 0, 91, 10
1, 386, Control_c, 0, 93, 0
1, 769, Control_c, 0, 11, 127
1, 769, Control_c, 0, 94, 0
1, 769, Control_c, 0, 101, 0
1, 770, Control_c, 0, 100, 1
1, 771, Control_c, 0, 6, 64
1, 772, Control_c, 0, 38, 0
1, 773, Pitch_bend_c, 0, 8192
1, 773, Control_c, 0, 71, 43
1, 773, Control_c, 0, 74, 46
1, 773, Control_c, 0, 64, 127
1, 1537, Note_on_c, 0, 74, 78
1, 1561, Control_c, 0, 64, 0
1, 1565, Note_on_c, 0, 48, 37
1, 1609, Note_on_c, 0, 55, 23
1, 1757, Control_c, 0, 64, 127
1, 2233, Note_on_c, 0, 63, 45
1, 2233, Note_on_c, 0, 67, 41
1, 2265, Note_on_c, 0, 62, 33
1, 2593, Note_on_c, 0, 67, 0
1, 2593, Note_on_c, 0, 48, 0
1, 2609, Note_on_c, 0, 62, 0
1, 2633, Note_on_c, 0, 55, 0
1, 2697, Note_on_c, 0, 63, 0
1, 2921, Note_on_c, 0, 48, 27
1, 2965, Note_on_c, 0, 56, 41
1, 2977, Note_on_c, 0, 74, 0
1, 3005, Note_on_c, 0, 63, 39
1, 3021, Control_c, 0, 64, 0
1, 3041, Note_on_c, 0, 68, 55
1, 3109, Note_on_c, 0, 62, 9
1, 3125, Note_on_c, 0, 74, 54
1, 3241, Control_c, 0, 64, 127
1, 3909, Note_on_c, 0, 63, 0
1, 3913, Note_on_c, 0, 74, 0
1, 3993, Note_on_c, 0, 68, 0
1, 4149, Note_on_c, 0, 72, 99
1, 4221, Note_on_c, 0, 62, 0
1, 4381, Note_on_c, 0, 72, 0
1, 4529, Note_on_c, 0, 67, 85
1, 4689, Note_on_c, 0, 67, 0
1, 4817, Note_on_c, 0, 48, 0
1, 4961, Note_on_c, 0, 63, 82
1, 5073, Note_on_c, 0, 56, 0
1, 5241, Note_on_c, 0, 63, 0
1, 5397, Note_on_c, 0, 62, 70
1, 5397, Control_c, 0, 64, 0
1, 5421, Note_on_c, 0, 48, 47
1, 5437, Note_on_c, 0, 57, 40
1, 5605, Control_c, 0, 64, 127
1, 5745, Note_on_c, 0, 62, 0
1, 5781, Note_on_c, 0, 63, 43
1, 5837, Note_on_c, 0, 62, 45
1, 5889, Note_on_c, 0, 63, 0
1, 5933, Note_on_c, 0, 62, 0
1, 5977, Note_on_c, 0, 60, 47
1, 6073, Note_on_c, 0, 60, 0
1, 6133, Note_on_c, 0, 62, 69
1, 6137, Note_on_c, 0, 57, 0
1, 6169, Control_c, 0, 64, 0
1, 6249, Note_on_c, 0, 57, 20
1, 6297, Note_on_c, 0, 57, 0
1, 6337, Control_c, 0, 64, 127
1, 6377, Note_on_c, 0, 60, 56
1, 6389, Note_on_c, 0, 62, 0
1, 6421, Note_on_c, 0, 57, 25
1, 6697, Note_on_c, 0, 57, 0
1, 6793, Note_on_c, 0, 60, 0
1, 6821, Note_on_c, 0, 48, 0
1, 6949, Note_on_c, 0, 60, 47
1, 7049, Note_on_c, 0, 60, 0
1, 7365, Control_c, 0, 64, 0
1, 7385, Note_on_c, 0, 30, 61
1, 7457, Control_c, 0, 64, 127
1, 7597, Note_on_c, 0, 30, 0
1, 7921, Note_on_c, 0, 58, 44
1, 7921, Note_on_c, 0, 68, 46
1, 7925, Note_on_c, 0, 64, 45
1, 7925, Note_on_c, 0, 72, 50
1, 8017, Note_on_c, 0, 64, 0
1, 8085, Note_on_c, 0, 72, 0
1, 8089, Note_on_c, 0, 68, 0
1, 8513, Note_on_c, 0, 84, 36
1, 8517, Note_on_c, 0, 64, 41
1, 8517, Note_on_c, 0, 76, 30
1, 8521, Note_on_c, 0, 80, 54
1, 9141, Note_on_c, 0, 84, 0
1, 9353, Note_on_c, 0, 64, 0
1, 9385, Note_on_c, 0, 84, 38
1, 9525, Note_on_c, 0, 84, 0
1, 9561, Note_on_c, 0, 80, 0
1, 9569, Note_on_c, 0, 76, 0
1, 9637, Note_on_c, 0, 58, 0
1, 10157, Control_c, 0, 64, 0
1, 10181, Note_on_c, 0, 72, 43
1, 10185, Note_on_c, 0, 67, 29
1, 10185, Note_on_c, 0, 68, 45
1, 10209, Note_on_c, 0, 63, 22
1, 10217, Note_on_c, 0, 60, 43
1, 10225, Note_on_c, 0, 53, 35
1, 10353, Control_c, 0, 64, 127
1, 10737, Note_on_c, 0, 63, 0
1, 10753, Note_on_c, 0, 72, 0
1, 10797, Note_on_c, 0, 67, 0
1, 10817, Note_on_c, 0, 68, 0
1, 10909, Note_on_c, 0, 60, 0
1, 11197, Note_on_c, 0, 60, 48
1, 11321, Note_on_c, 0, 60, 0
1, 11429, Note_on_c, 0, 63, 72
1, 11497, Note_on_c, 0, 53, 0
1, 11517, Note_on_c, 0, 63, 0
1, 11633, Note_on_c, 0, 72, 81
1, 11873, Note_on_c, 0, 72, 0
1, 11909, Note_on_c, 0, 66, 56
1, 11917, Control_c, 0, 64, 0
1, 11925, Note_on_c, 0, 62, 35
1, 11929, Note_on_c, 0, 71, 52
1, 11937, Note_on_c, 0, 46, 43
1, 11945, Note_on_c, 0, 56, 39
1, 12001, Note_on_c, 0, 66, 0
1, 12017, Note_on_c, 0, 67, 45
1, 12161, Control_c, 0, 64, 127
1, 12321, Note_on_c, 0, 67, 0
1, 12389, Note_on_c, 0, 66, 51
1, 12609, Note_on_c, 0, 56, 0
1, 12653, Note_on_c, 0, 66, 0
1, 12709, Note_on_c, 0, 62, 0
1, 12789, Note_on_c, 0, 65, 45
1, 12793, Control_c, 0, 64, 0
1, 12809, Note_on_c, 0, 56, 31
1, 12817, Note_on_c, 0, 62, 19
1, 12825, Note_on_c, 0, 71, 0
1, 12897, Control_c, 0, 64, 127
1, 13253, Note_on_c, 0, 70, 52
1, 13321, Note_on_c, 0, 56, 0
1, 13441, Note_on_c, 0, 70, 0
1, 13445, Note_on_c, 0, 46, 0
1, 13457, Note_on_c, 0, 65, 0
1, 13501, Note_on_c, 0, 62, 0
1, 13961, Control_c, 0, 64, 0
1, 14001, Note_on_c, 0, 46, 39
1, 14001, Note_on_c, 0, 62, 54
1, 14001, Note_on_c, 0, 67, 47
1, 14001, Note_on_c, 0, 55, 44
1, 14009, Note_on_c, 0, 39, 39
1, 14089, Control_c, 0, 64, 127
1, 14345, Note_on_c, 0, 46, 0
1, 14405, Note_on_c, 0, 55, 0
1, 14445, Note_on_c, 0, 46, 71
1, 14509, Note_on_c, 0, 67, 0
1, 14537, Note_on_c, 0, 39, 0
1, 14605, Note_on_c, 0, 62, 0
1, 14817, Note_on_c, 0, 55, 85
1, 15085, Note_on_c, 0, 46, 0
1, 15217, Note_on_c, 0, 55, 0
1, 15225, Note_on_c, 0, 66, 78
1, 15233, Control_c, 0, 64, 0
1, 15233, Note_on_c, 0, 58, 77
1, 15237, Note_on_c, 0, 61, 76
1, 15241, Note_on_c, 0, 51, 67
1, 15349, Control_c, 0, 64, 127
1, 15553, Note_on_c, 0, 66, 0
1, 15573, Note_on_c, 0, 61, 0
1, 15585, Note_on_c, 0, 58, 0
1, 15621, Control_c, 0, 64, 0
1, 15645, Note_on_c, 0, 65, 63
1, 15649, Note_on_c, 0, 51, 0
1, 15649, Note_on_c, 0, 50, 60
1, 15649, Note_on_c, 0, 57, 66
1, 15653, Note_on_c, 0, 60, 63
1, 15777, Control_c, 0, 64, 127
1, 15845, Note_on_c, 0, 50, 0
1, 16093, Note_on_c, 0, 57, 0
1, 16109, Control_c, 0, 64, 0
1, 16117, Note_on_c, 0, 65, 0
1, 16129, Note_on_c, 0, 31, 74
1, 16173, Note_on_c, 0, 60, 0
1, 16185, Control_c, 0, 64, 127
1, 16337, Note_on_c, 0, 31, 0
1, 16705, Control_c, 0, 64, 0
1, 16709, Note_on_c, 0, 56, 57
1, 16729, Note_on_c, 0, 59, 56
1, 16733, Note_on_c, 0, 53, 45
1, 16737, Note_on_c, 0, 43, 41
1, 16749, Note_on_c, 0, 62, 45
1, 16825, Control_c, 0, 64, 127
1, 16901, Note_on_c, 0, 56, 0
1, 16949, Note_on_c, 0, 62, 0
1, 16973, Note_on_c, 0, 59, 0
1, 17509, Note_on_c, 0, 43, 0
1, 17537, Note_on_c, 0, 53, 0
1, 17909, Note_on_c, 0, 84, 52
1, 18061, Note_on_c, 0, 84, 0
1, 18549, Note_on_c, 0, 84, 57
1, 18581, Control_c, 0, 64, 0
1, 18585, Note_on_c, 0, 81, 43
1, 18589, Note_on_c, 0, 77, 33
1, 18593, Note_on_c, 0, 74, 37
1, 18601, Note_on_c, 0, 72, 36
1, 18609, Note_on_c, 0, 70, 32
1, 18681, Control_c, 0, 64, 127
1, 18841, Note_on_c, 0, 84, 0
1, 19061, Note_on_c, 0, 84, 54
1, 19153, Note_on_c, 0, 72, 0
1, 19153, Note_on_c, 0, 74, 0
1, 19181, Note_on_c, 0, 70, 0
1, 19205, Note_on_c, 0, 84, 0
1, 19221, Note_on_c, 0, 81, 0
1, 19289, Note_on_c, 0, 77, 0
1, 19877, Note_on_c, 0, 85, 55
1, 19897, Note_on_c, 0, 77, 39
1, 19897, Note_on_c, 0, 74, 38
1, 19897, Note_on_c, 0, 70, 34
1, 19909, Note_on_c, 0, 81, 36
1, 19909, Note_on_c, 0, 72, 36
1, 20069, Note_on_c, 0, 74, 0
1, 20073, Note_on_c, 0, 85, 0
1, 20073, Note_on_c, 0, 72, 0
1, 20145, Note_on_c, 0, 70, 0
1, 20217, Note_on_c, 0, 81, 0
1, 20301, Note_on_c, 0, 84, 54
1, 20421, Note_on_c, 0, 77, 0
1, 20425, Note_on_c, 0, 84, 0
1, 20753, Control_c, 0, 64, 40
1, 20757, Control_c, 0, 64, 0
1, 20769, Note_on_c, 0, 85, 51
1, 20777, Note_on_c, 0, 58, 33
1, 20781, Note_on_c, 0, 76, 39
1, 20785, Note_on_c, 0, 48, 40
1, 20861, Control_c, 0, 64, 127
1, 21045, Note_on_c, 0, 85, 0
1, 21097, Note_on_c, 0, 76, 0
1, 21125, Note_on_c, 0, 58, 0
1, 21245, Note_on_c, 0, 48, 0
1, 21269, Note_on_c, 0, 84, 57
1, 21281, Note_on_c, 0, 55, 38
1, 21377, Note_on_c, 0, 55, 0
1, 21853, Note_on_c, 0, 73, 43
1, 21853, Note_on_c, 0, 58, 41
1, 21893, Note_on_c, 0, 64, 30
1, 22545, Note_on_c, 0, 73, 0
1, 22665, Note_on_c, 0, 72, 39
1, 22813, Note_on_c, 0, 84, 0
1, 22813, Note_on_c, 0, 64, 0
1, 22973, Note_on_c, 0, 58, 0
1, 23025, Note_on_c, 0, 72, 0
1, 23513, Note_on_c, 0, 53, 48
1, 23581, Note_on_c, 0, 58, 43
1, 23613, Note_on_c, 0, 67, 36
1, 23681, Note_on_c, 0, 60, 45
1, 23681, Note_on_c, 0, 63, 39
1, 23685, Note_on_c, 0, 70, 43
1, 23705, Note_on_c, 0, 75, 48
1, 23745, Control_c, 0, 64, 0
1, 23777, Note_on_c, 0, 79, 58
1, 23865, Control_c, 0, 64, 127
1, 25197, Note_on_c, 0, 79, 0
1, 25241, Note_on_c, 0, 67, 0
1, 25249, Note_on_c, 0, 75, 0
1, 25269, Note_on_c, 0, 70, 0
1, 25289, Note_on_c, 0, 77, 58
1, 25413, Note_on_c, 0, 53, 0
1, 25437, Note_on_c, 0, 77, 0
1, 25441, Note_on_c, 0, 63, 0
1, 25461, Note_on_c, 0, 60, 0
1, 25465, Note_on_c, 0, 58, 0
1, 25489, Note_on_c, 0, 75, 50
1, 25569, Note_on_c, 0, 75, 0
1, 25737, Control_c, 0, 64, 0
1, 25745, Note_on_c, 0, 77, 63
1, 25749, Note_on_c, 0, 63, 31
1, 25757, Note_on_c, 0, 69, 40
1, 25769, Note_on_c, 0, 53, 33
1, 25817, Note_on_c, 0, 75, 25
1, 25877, Control_c, 0, 64, 127
1, 26061, Note_on_c, 0, 63, 0
1, 26065, Note_on_c, 0, 69, 0
1, 26089, Note_on_c, 0, 79, 62
1, 26101, Note_on_c, 0, 60, 40
1, 26133, Note_on_c, 0, 75, 0
1, 26157, Note_on_c, 0, 77, 0
1, 26577, Note_on_c, 0, 63, 41
1, 26913, Note_on_c, 0, 63, 0
1, 27013, Note_on_c, 0, 53, 0
1, 27145, Note_on_c, 0, 60, 0
1, 27153, Note_on_c, 0, 69, 32
1, 27229, Note_on_c, 0, 79, 0
1, 27281, Note_on_c, 0, 69, 0
1, 27773, Note_on_c, 0, 66, 38
1, 27777, Note_on_c, 0, 57, 45
1, 27785, Control_c, 0, 64, 0
1, 27793, Note_on_c, 0, 61, 46
1, 27797, Note_on_c, 0, 54, 36
1, 27797, Note_on_c, 0, 63, 41
1, 27805, Note_on_c, 0, 47, 39
1, 27941, Control_c, 0, 64, 127
1, 28333, Note_on_c, 0, 54, 0
1, 28333, Note_on_c, 0, 53, 72
1, 28673, Note_on_c, 0, 57, 0
1, 28705, Note_on_c, 0, 61, 0
1, 28733, Note_on_c, 0, 63, 0
1, 28733, Note_on_c, 0, 66, 0
1, 28781, Note_on_c, 0, 61, 56
1, 28789, Note_on_c, 0, 65, 66
1, 28789, Note_on_c, 0, 57, 61
1, 29093, Note_on_c, 0, 57, 0
1, 29181, Note_on_c, 0, 65, 0
1, 29193, Note_on_c, 0, 47, 0
1, 29193, Note_on_c, 0, 51, 52
1, 29197, Note_on_c, 0, 63, 66
1, 29201, Note_on_c, 0, 57, 60
1, 29221, Note_on_c, 0, 53, 0
1, 29277, Note_on_c, 0, 51, 0
1, 29345, Note_on_c, 0, 57, 0
1, 29473, Note_on_c, 0, 61, 0
1, 29577, Note_on_c, 0, 63, 0
1, 29609, Control_c, 0, 64, 88
1, 29613, Control_c, 0, 64, 0
1, 29653, Note_on_c, 0, 65, 57
1, 29653, Note_on_c, 0, 56, 58
1, 29653, Note_on_c, 0, 46, 42
1, 29653, Note_on_c, 0, 34, 42
1, 29653, Note_on_c, 0, 63, 47
1, 29669, Note_on_c, 0, 60, 57
1, 29789, Control_c, 0, 64, 127
1, 30089, Note_on_c, 0, 63, 0
1, 30117, Note_on_c, 0, 60, 0
1, 30137, Note_on_c, 0, 56, 0
1, 30241, Note_on_c, 0, 63, 52
1, 30249, Note_on_c, 0, 65, 0
1, 30249, Note_on_c, 0, 56, 43
1, 30261, Note_on_c, 0, 60, 50
1, 30457, Note_on_c, 0, 46, 0
1, 30509, Note_on_c, 0, 60, 0
1, 30545, Note_on_c, 0, 56, 0
1, 30897, Note_on_c, 0, 63, 0
1, 30917, Note_on_c, 0, 56, 44
1, 30937, Note_on_c, 0, 60, 47
1, 30953, Note_on_c, 0, 46, 30
1, 32121, Note_on_c, 0, 56, 0
1, 32157, Note_on_c, 0, 34, 0
1, 32181, Note_on_c, 0, 63, 40
1, 32197, Note_on_c, 0, 46, 0
1, 32377, Note_on_c, 0, 60, 0
1, 32649, Note_on_c, 0, 63, 0
1, 32913, Control_c, 0, 64, 0
1, 32941, Note_on_c, 0, 55, 39
1, 32949, Note_on_c, 0, 63, 41
1, 32953, Note_on_c, 0, 39, 34
1, 33017, Control_c, 0, 64, 127
1, 33085, Note_on_c, 0, 55, 0
1, 33185, Note_on_c, 0, 63, 0
1, 33273, Note_on_c, 0, 39, 0
1, 33289, Note_on_c, 0, 46, 50
1, 33613, Note_on_c, 0, 46, 0
1, 33633, Note_on_c, 0, 79, 61
1, 33637, Note_on_c, 0, 67, 46
1, 33653, Note_on_c, 0, 55, 46
1, 33985, Note_on_c, 0, 55, 0
1, 34017, Note_on_c, 0, 58, 47
1, 34157, Note_on_c, 0, 67, 0
1, 34525, Note_on_c, 0, 63, 49
1, 34593, Note_on_c, 0, 79, 0
1, 34893, Note_on_c, 0, 70, 58
1, 34905, Note_on_c, 0, 67, 35
1, 35177, Note_on_c, 0, 70, 0
1, 35217, Note_on_c, 0, 71, 72
1, 35297, Note_on_c, 0, 67, 0
1, 35457, Note_on_c, 0, 63, 0
1, 35517, Note_on_c, 0, 58, 0
1, 35565, Note_on_c, 0, 73, 67
1, 35577, Note_on_c, 0, 71, 0
1, 35901, Note_on_c, 0, 75, 61
1, 35925, Control_c, 0, 64, 0
1, 35937, Note_on_c, 0, 73, 0
1, 35941, Note_on_c, 0, 43, 40
1, 36037, Control_c, 0, 64, 127
1, 36117, Note_on_c, 0, 75, 0
1, 36137, Note_on_c, 0, 77, 68
1, 36161, Note_on_c, 0, 43, 0
1, 36173, Note_on_c, 0, 50, 34
1, 36205, Note_on_c, 0, 50, 0
1, 36293, Note_on_c, 0, 77, 0
1, 36333, Note_on_c, 0, 78, 41
1, 36369, Note_on_c, 0, 78, 0
1, 36381, Note_on_c, 0, 79, 68
1, 36385, Note_on_c, 0, 59, 50
1, 36589, Note_on_c, 0, 79, 0
1, 36657, Note_on_c, 0, 79, 55
1, 36809, Note_on_c, 0, 79, 0
1, 37025, Note_on_c, 0, 81, 61
1, 37177, Note_on_c, 0, 83, 66
1, 37181, Note_on_c, 0, 81, 0
1, 37341, Note_on_c, 0, 83, 0
1, 37345, Control_c, 0, 64, 0
1, 37361, Note_on_c, 0, 63, 41
1, 37369, Note_on_c, 0, 85, 66
1, 37405, Control_c, 0, 64, 127
1, 37457, Note_on_c, 0, 63, 0
1, 37485, Note_on_c, 0, 59, 0
1, 37529, Note_on_c, 0, 85, 0
1, 37533, Note_on_c, 0, 87, 59
1, 37637, Note_on_c, 0, 87, 0
1, 37705, Note_on_c, 0, 89, 41
1, 37825, Note_on_c, 0, 89, 0
1, 37857, Note_on_c, 0, 91, 60
1, 38001, Note_on_c, 0, 91, 0
1, 38053, Note_on_c, 0, 93, 58
1, 38073, Note_on_c, 0, 43, 38
1, 38081, Note_on_c, 0, 53, 27
1, 38237, Note_on_c, 0, 93, 0
1, 38261, Note_on_c, 0, 95, 50
1, 38285, Note_on_c, 0, 43, 0
1, 38377, Note_on_c, 0, 95, 0
1, 38413, Note_on_c, 0, 53, 0
1, 38461, Note_on_c, 0, 97, 57
1, 38621, Note_on_c, 0, 97, 0
1, 38681, Note_on_c, 0, 99, 52
1, 38829, Note_on_c, 0, 99, 0
1, 38921, Control_c, 0, 64, 0
1, 38925, Note_on_c, 0, 48, 40
1, 38949, Note_on_c, 0, 98, 34
1, 39017, Control_c, 0, 64, 127
1, 39133, Note_on_c, 0, 98, 0
1, 39233, Note_on_c, 0, 48, 0
1, 39237, Note_on_c, 0, 55, 48
1, 39561, Note_on_c, 0, 67, 45
1, 39577, Note_on_c, 0, 63, 27
1, 39841, Note_on_c, 0, 55, 0
1, 39849, Note_on_c, 0, 63, 0
1, 39861, Note_on_c, 0, 67, 0
1, 39861, Note_on_c, 0, 48, 68
1, 39873, Note_on_c, 0, 74, 70
1, 40189, Note_on_c, 0, 56, 78
1, 40189, Control_c, 0, 64, 24
1, 40193, Control_c, 0, 64, 0
1, 40301, Control_c, 0, 64, 127
1, 40609, Note_on_c, 0, 68, 49
1, 40609, Note_on_c, 0, 63, 40
1, 40625, Note_on_c, 0, 74, 0
1, 40681, Note_on_c, 0, 60, 16
1, 41025, Note_on_c, 0, 72, 67
1, 41065, Note_on_c, 0, 68, 0
1, 41209, Note_on_c, 0, 63, 0
1, 41309, Note_on_c, 0, 67, 57
1, 41341, Note_on_c, 0, 60, 0
1, 41365, Note_on_c, 0, 56, 0
1, 41373, Note_on_c, 0, 67, 0
1, 41461, Note_on_c, 0, 72, 0
1, 41537, Note_on_c, 0, 56, 10
1, 41597, Note_on_c, 0, 56, 0
1, 42001, Note_on_c, 0, 63, 49
1, 42197, Note_on_c, 0, 48, 0
1, 42273, Note_on_c, 0, 63, 0
1, 42313, Note_on_c, 0, 48, 37
1, 42317, Note_on_c, 0, 62, 56
1, 42325, Control_c, 0, 64, 0
1, 42325, Note_on_c, 0, 57, 38
1, 42573, Control_c, 0, 64, 127
1, 42669, Note_on_c, 0, 60, 46
1, 42681, Note_on_c, 0, 62, 0
1, 42849, Note_on_c, 0, 57, 0
1, 42893, Note_on_c, 0, 60, 0
1, 42977, Note_on_c, 0, 60, 56
1, 43013, Note_on_c, 0, 57, 32
1, 43113, Note_on_c, 0, 48, 0
1, 43313, Note_on_c, 0, 48, 45
1, 43337, Note_on_c, 0, 57, 0
1, 43613, Note_on_c, 0, 48, 0
1, 43645, Control_c, 0, 64, 0
1, 43681, Note_on_c, 0, 58, 57
1, 43685, Control_c, 0, 64, 127
1, 43705, Note_on_c, 0, 48, 34
1, 43773, Note_on_c, 0, 58, 0
1, 43809, Note_on_c, 0, 48, 0
1, 43861, Note_on_c, 0, 60, 0
1, 44209, Note_on_c, 0, 43, 57
1, 44397, Note_on_c, 0, 43, 0
1, 44737, Control_c, 0, 64, 0
1, 44761, Note_on_c, 0, 63, 45
1, 44761, Note_on_c, 0, 58, 52
1, 44761, Note_on_c, 0, 30, 39
1, 44769, Note_on_c, 0, 52, 37
1, 44769, Note_on_c, 0, 42, 31
1, 44901, Control_c, 0, 64, 127
1, 44905, Note_on_c, 0, 52, 0
1, 44933, Note_on_c, 0, 30, 0
1, 44969, Note_on_c, 0, 42, 0
1, 44993, Note_on_c, 0, 58, 0
1, 45017, Note_on_c, 0, 63, 0
1, 45329, Note_on_c, 0, 75, 48
1, 45329, Note_on_c, 0, 58, 46
1, 45337, Note_on_c, 0, 64, 41
1, 45337, Note_on_c, 0, 68, 45
1, 45349, Note_on_c, 0, 72, 49
1, 45641, Note_on_c, 0, 64, 0
1, 45653, Note_on_c, 0, 72, 0
1, 45669, Note_on_c, 0, 58, 0
1, 45753, Note_on_c, 0, 75, 0
1, 45809, Note_on_c, 0, 68, 0
1, 46857, Note_on_c, 0, 63, 41
1, 46857, Control_c, 0, 64, 0
1, 46857, Note_on_c, 0, 56, 36
1, 46865, Note_on_c, 0, 41, 28
1, 46873, Note_on_c, 0, 60, 48
1, 46881, Note_on_c, 0, 55, 36
1, 46901, Note_on_c, 0, 48, 35
1, 46901, Note_on_c, 0, 53, 27
1, 47097, Control_c, 0, 64, 127
1, 47157, Note_on_c, 0, 55, 0
1, 47217, Note_on_c, 0, 60, 0
1, 47233, Note_on_c, 0, 41, 0
1, 47249, Note_on_c, 0, 56, 0
1, 47249, Note_on_c, 0, 48, 0
1, 47257, Note_on_c, 0, 53, 0
1, 47333, Note_on_c, 0, 63, 0
1, 47937, Note_on_c, 0, 68, 63
1, 47941, Note_on_c, 0, 72, 63
1, 47941, Note_on_c, 0, 65, 59
1, 47949, Note_on_c, 0, 60, 52
1, 48289, Note_on_c, 0, 65, 0
1, 48297, Note_on_c, 0, 60, 0
1, 48325, Note_on_c, 0, 75, 78
1, 48329, Note_on_c, 0, 63, 55
1, 48345, Note_on_c, 0, 72, 0
1, 48389, Note_on_c, 0, 68, 0
1, 48441, Note_on_c, 0, 75, 0
1, 48849, Note_on_c, 0, 63, 0
1, 49185, Note_on_c, 0, 84, 58
1, 49293, Note_on_c, 0, 84, 0
1, 50577, Control_c, 0, 64, 0
1, 50589, Note_on_c, 0, 74, 48
1, 50593, Note_on_c, 0, 67, 46
1, 50593, Note_on_c, 0, 62, 39
1, 50593, Note_on_c, 0, 71, 50
1, 50601, Note_on_c, 0, 56, 33
1, 50609, Note_on_c, 0, 46, 35
1, 50793, Control_c, 0, 64, 127
1, 51037, Note_on_c, 0, 67, 0
1, 51097, Note_on_c, 0, 71, 0
1, 51173, Note_on_c, 0, 56, 0
1, 51173, Note_on_c, 0, 62, 0
1, 51485, Note_on_c, 0, 66, 50
1, 51497, Note_on_c, 0, 62, 42
1, 51509, Note_on_c, 0, 56, 34
1, 51521, Control_c, 0, 64, 0
1, 51573, Control_c, 0, 64, 127
1, 51933, Note_on_c, 0, 56, 0
1, 51997, Note_on_c, 0, 74, 0
1, 52029, Note_on_c, 0, 46, 0
1, 52109, Note_on_c, 0, 62, 0
1, 52121, Note_on_c, 0, 66, 0
1, 52641, Note_on_c, 0, 58, 47
1, 52665, Note_on_c, 0, 67, 42
1, 52669, Control_c, 0, 64, 0
1, 52669, Note_on_c, 0, 46, 37
1, 52677, Note_on_c, 0, 62, 45
1, 52689, Note_on_c, 0, 39, 38
1, 52849, Control_c, 0, 64, 127
1, 52917, Note_on_c, 0, 62, 0
1, 52981, Note_on_c, 0, 58, 0
1, 52985, Note_on_c, 0, 67, 0
1, 53045, Note_on_c, 0, 46, 0
1, 53045, Note_on_c, 0, 39, 0
1, 53053, Note_on_c, 0, 50, 54
1, 53377, Note_on_c, 0, 50, 0
1, 53389, Note_on_c, 0, 70, 59
1, 53397, Note_on_c, 0, 60, 49
1, 53401, Note_on_c, 0, 51, 45
1, 53401, Note_on_c, 0, 65, 55
1, 53433, Note_on_c, 0, 60, 0
1, 53457, Note_on_c, 0, 65, 0
1, 53489, Note_on_c, 0, 70, 0
1, 53741, Note_on_c, 0, 74, 81
1, 53745, Note_on_c, 0, 55, 63
1, 53749, Note_on_c, 0, 67, 72
1, 53841, Note_on_c, 0, 51, 0
1, 53849, Note_on_c, 0, 55, 0
1, 53893, Note_on_c, 0, 67, 0
1, 54089, Note_on_c, 0, 74, 0
1, 54145, Control_c, 0, 64, 0
1, 54149, Note_on_c, 0, 67, 60
1, 54153, Note_on_c, 0, 65, 56
1, 54157, Note_on_c, 0, 60, 43
1, 54165, Note_on_c, 0, 50, 42
1, 54193, Note_on_c, 0, 56, 25
1, 54233, Note_on_c, 0, 56, 0
1, 54317, Control_c, 0, 64, 127
1, 54545, Note_on_c, 0, 56, 52
1, 54581, Note_on_c, 0, 50, 0
1, 54593, Note_on_c, 0, 60, 0
1, 54637, Note_on_c, 0, 67, 0
1, 54653, Note_on_c, 0, 56, 0
1, 54709, Note_on_c, 0, 65, 0
1, 55009, Control_c, 0, 64, 0
1, 55029, Note_on_c, 0, 59, 48
1, 55033, Note_on_c, 0, 66, 51
1, 55049, Note_on_c, 0, 64, 51
1, 55053, Note_on_c, 0, 53, 37
1, 55061, Note_on_c, 0, 43, 35
1, 55161, Control_c, 0, 64, 127
1, 55329, Note_on_c, 0, 59, 0
1, 55381, Note_on_c, 0, 66, 0
1, 55421, Note_on_c, 0, 53, 0
1, 55441, Note_on_c, 0, 67, 60
1, 55449, Note_on_c, 0, 50, 56
1, 55481, Note_on_c, 0, 43, 0
1, 55541, Note_on_c, 0, 50, 0
1, 55633, Note_on_c, 0, 67, 0
1, 55633, Note_on_c, 0, 64, 0
1, 55893, Note_on_c, 0, 43, 50
1, 55937, Control_c, 0, 64, 0
1, 55969, Note_on_c, 0, 50, 45
1, 55973, Note_on_c, 0, 58, 64
1, 56033, Note_on_c, 0, 65, 63
1, 56041, Note_on_c, 0, 58, 0
1, 56041, Note_on_c, 0, 55, 49
1, 56073, Control_c, 0, 64, 127
1, 56117, Note_on_c, 0, 72, 72
1, 56177, Note_on_c, 0, 65, 0
1, 56209, Note_on_c, 0, 72, 0
1, 56305, Note_on_c, 0, 84, 89
1, 57045, Note_on_c, 0, 84, 0
1, 57149, Note_on_c, 0, 84, 72
1, 57429, Note_on_c, 0, 50, 0
1, 57445, Note_on_c, 0, 55, 0
1, 57501, Note_on_c, 0, 43, 0
1, 57705, Note_on_c, 0, 84, 0
1, 57769, Note_on_c, 0, 85, 65
1, 57905, Note_on_c, 0, 85, 0
1, 57969, Note_on_c, 0, 84, 54
1, 58165, Note_on_c, 0, 84, 0
1, 58185, Control_c, 0, 64, 40
1, 58189, Control_c, 0, 64, 0
1, 58209, Note_on_c, 0, 85, 59
1, 58229, Note_on_c, 0, 36, 45
1, 58245, Note_on_c, 0, 52, 31
1, 58309, Control_c, 0, 64, 127
1, 58693, Note_on_c, 0, 52, 0
1, 58721, Note_on_c, 0, 36, 0
1, 58721, Note_on_c, 0, 43, 39
1, 58773, Note_on_c, 0, 43, 0
1, 58965, Note_on_c, 0, 85, 0
1, 59761, Note_on_c, 0, 84, 57
1, 59785, Note_on_c, 0, 72, 46
1, 59789, Note_on_c, 0, 73, 57
1, 60177, Note_on_c, 0, 72, 0
1, 60365, Note_on_c, 0, 84, 0
1, 60493, Note_on_c, 0, 73, 0
1, 60733, Note_on_c, 0, 79, 63
1, 61381, Note_on_c, 0, 79, 0
1, 61413, Note_on_c, 0, 75, 46
1, 61421, Note_on_c, 0, 70, 39
1, 61429, Note_on_c, 0, 63, 26
1, 61429, Note_on_c, 0, 67, 26
1, 61433, Control_c, 0, 64, 0
1, 61457, Note_on_c, 0, 58, 45
1, 61461, Note_on_c, 0, 53, 29
1, 61553, Control_c, 0, 64, 127
1, 61933, Note_on_c, 0, 67, 0
1, 61941, Note_on_c, 0, 70, 0
1, 61985, Note_on_c, 0, 75, 0
1, 62025, Note_on_c, 0, 60, 52
1, 62025, Note_on_c, 0, 79, 84
1, 62209, Note_on_c, 0, 63, 0
1, 62293, Note_on_c, 0, 79, 0
1, 62393, Note_on_c, 0, 77, 87
1, 62397, Note_on_c, 0, 63, 52
1, 62509, Note_on_c, 0, 53, 0
1, 62569, Note_on_c, 0, 63, 0
1, 62633, Note_on_c, 0, 77, 0
1, 62673, Note_on_c, 0, 75, 84
1, 62681, Note_on_c, 0, 60, 0
1, 62709, Note_on_c, 0, 58, 0
1, 62753, Note_on_c, 0, 75, 0
1, 63825, Control_c, 0, 64, 0
1, 63837, Note_on_c, 0, 77, 63
1, 63841, Note_on_c, 0, 70, 58
1, 63841, Note_on_c, 0, 58, 42
1, 63849, Note_on_c, 0, 48, 41
1, 63857, Note_on_c, 0, 65, 42
1, 63941, Control_c, 0, 64, 127
1, 64029, Note_on_c, 0, 65, 0
1, 64037, Note_on_c, 0, 58, 0
1, 64037, Note_on_c, 0, 77, 0
1, 64041, Note_on_c, 0, 48, 0
1, 64101, Note_on_c, 0, 70, 0
1, 64301, Note_on_c, 0, 79, 67
1, 64529, Note_on_c, 0, 79, 0
1, 64813, Control_c, 0, 64, 0
1, 64829, Note_on_c, 0, 79, 42
1, 64829, Note_on_c, 0, 41, 46
1, 64833, Note_on_c, 0, 74, 46
1, 64845, Note_on_c, 0, 69, 26
1, 64845, Note_on_c, 0, 57, 36
1, 65001, Control_c, 0, 64, 127
1, 65201, Note_on_c, 0, 74, 0
1, 65513, Note_on_c, 0, 73, 56
1, 65617, Note_on_c, 0, 41, 0
1, 65773, Note_on_c, 0, 79, 0
1, 65781, Note_on_c, 0, 69, 0
1, 65793, Note_on_c, 0, 57, 0
1, 65797, Note_on_c, 0, 73, 0
1, 65877, Note_on_c, 0, 72, 53
1, 66061, Note_on_c, 0, 72, 0
1, 66461, Note_on_c, 0, 66, 50
1, 66461, Note_on_c, 0, 57, 41
1, 66469, Note_on_c, 0, 61, 42
1, 66473, Note_on_c, 0, 54, 39
1, 66485, Note_on_c, 0, 47, 37
1, 66489, Note_on_c, 0, 63, 42
1, 66493, Control_c, 0, 64, 0
1, 66669, Control_c, 0, 64, 127
1, 66997, Note_on_c, 0, 47, 0
1, 67025, Note_on_c, 0, 54, 0
1, 67073, Note_on_c, 0, 47, 45
1, 67309, Note_on_c, 0, 57, 0
1, 67333, Note_on_c, 0, 61, 0
1, 67357, Note_on_c, 0, 66, 0
1, 67357, Note_on_c, 0, 63, 0
1, 67513, Note_on_c, 0, 61, 57
1, 67525, Note_on_c, 0, 65, 56
1, 67525, Note_on_c, 0, 57, 47
1, 67537, Note_on_c, 0, 54, 32
1, 67685, Note_on_c, 0, 47, 0
1, 67749, Note_on_c, 0, 57, 0
1, 67761, Note_on_c, 0, 65, 0
1, 67797, Note_on_c, 0, 63, 64
1, 67805, Note_on_c, 0, 47, 37
1, 67881, Note_on_c, 0, 47, 0
1, 67925, Note_on_c, 0, 61, 0
1, 68009, Note_on_c, 0, 54, 0
1, 68037, Note_on_c, 0, 63, 0
1, 68101, Control_c, 0, 64, 0
1, 68133, Note_on_c, 0, 56, 41
1, 68137, Note_on_c, 0, 63, 42
1, 68137, Note_on_c, 0, 65, 49
1, 68141, Note_on_c, 0, 46, 35
1, 68157, Note_on_c, 0, 60, 47
1, 68261, Control_c, 0, 64, 127
1, 68521, Note_on_c, 0, 53, 39
1, 68717, Note_on_c, 0, 65, 0
1, 68777, Note_on_c, 0, 60, 0
1, 68777, Note_on_c, 0, 63, 0
1, 68817, Note_on_c, 0, 56, 0
1, 68993, Note_on_c, 0, 56, 38
1, 68997, Note_on_c, 0, 63, 41
1, 69521, Note_on_c, 0, 56, 0
1, 69769, Note_on_c, 0, 60, 54
1, 69781, Note_on_c, 0, 63, 0
1, 70521, Note_on_c, 0, 46, 0
1, 70625, Note_on_c, 0, 53, 0
1, 70769, Note_on_c, 0, 63, 46
1, 71121, Note_on_c, 0, 60, 0
1, 71125, Note_on_c, 0, 63, 0
1, 71465, Control_c, 0, 64, 0
1, 71505, Note_on_c, 0, 63, 43
1, 71517, Note_on_c, 0, 39, 33
1, 71605, Control_c, 0, 64, 127
1, 71697, Note_on_c, 0, 63, 0
1, 71797, Note_on_c, 0, 39, 0
1, 71885, Note_on_c, 0, 46, 40
1, 71885, Note_on_c, 0, 65, 57
1, 71885, Note_on_c, 0, 60, 48
1, 72081, Note_on_c, 0, 60, 0
1, 72141, Note_on_c, 0, 46, 0
1, 72185, Note_on_c, 0, 65, 0
1, 72185, Note_on_c, 0, 70, 63
1, 72197, Note_on_c, 0, 55, 49
1, 72237, Note_on_c, 0, 70, 0
1, 72501, Note_on_c, 0, 55, 0
1, 72505, Note_on_c, 0, 77, 57
1, 72525, Note_on_c, 0, 72, 41
1, 72533, Note_on_c, 0, 58, 39
1, 72865, Note_on_c, 0, 63, 40
1, 72865, Note_on_c, 0, 82, 52
1, 72973, Note_on_c, 0, 77, 0
1, 73229, Note_on_c, 0, 72, 0
1, 73313, Note_on_c, 0, 67, 31
1, 73741, Note_on_c, 0, 72, 40
1, 73757, Note_on_c, 0, 82, 0
1, 73813, Note_on_c, 0, 67, 0
1, 73949, Note_on_c, 0, 63, 0
1, 74225, Note_on_c, 0, 58, 0
1, 74233, Note_on_c, 0, 72, 0
1, 74273, Note_on_c, 0, 82, 48
1, 74353, Note_on_c, 0, 82, 0
1, 75325, Note_on_c, 0, 26, 41
1, 75389, Note_on_c, 0, 54, 45
1, 75397, Control_c, 0, 64, 0
1, 75461, Note_on_c, 0, 57, 36
1, 75465, Note_on_c, 0, 38, 33
1, 75489, Note_on_c, 0, 60, 45
1, 75501, Note_on_c, 0, 65, 31
1, 75549, Control_c, 0, 64, 127
1, 75573, Note_on_c, 0, 54, 0
1, 75625, Note_on_c, 0, 57, 0
1, 75633, Note_on_c, 0, 60, 0
1, 75689, Note_on_c, 0, 65, 0
1, 75769, Note_on_c, 0, 26, 0
1, 75821, Note_on_c, 0, 38, 0
1, 75901, Note_on_c, 0, 77, 51
1, 76105, Note_on_c, 0, 77, 0
1, 76373, Note_on_c, 0, 77, 46
1, 76393, Note_on_c, 0, 66, 34
1, 76393, Note_on_c, 0, 69, 37
1, 76397, Note_on_c, 0, 72, 43
1, 76397, Note_on_c, 0, 60, 36
1, 76957, Note_on_c, 0, 77, 0
1, 77033, Note_on_c, 0, 75, 63
1, 77109, Note_on_c, 0, 69, 0
1, 77193, Note_on_c, 0, 72, 0
1, 77233, Note_on_c, 0, 66, 0
1, 77317, Note_on_c, 0, 75, 0
1, 77457, Note_on_c, 0, 60, 0
1, 77465, Note_on_c, 0, 75, 60
1, 77889, Note_on_c, 0, 75, 0
1, 77977, Note_on_c, 0, 74, 52
1, 78225, Note_on_c, 0, 74, 0
1, 78557, Note_on_c, 0, 74, 52
1, 79325, Note_on_c, 0, 74, 0
1, 79465, Note_on_c, 0, 72, 39
1, 79629, Note_on_c, 0, 72, 0
1, 81133, Control_c, 0, 64, 0
1, 81713, Note_on_c, 0, 62, 50
1, 81737, Note_on_c, 0, 55, 39
1, 81777, Control_c, 0, 64, 127
1, 82049, Note_on_c, 0, 67, 44
1, 82293, Note_on_c, 0, 70, 55
1, 82493, Note_on_c, 0, 62, 0
1, 82529, Note_on_c, 0, 74, 61
1, 82725, Note_on_c, 0, 55, 0
1, 82737, Note_on_c, 0, 57, 63
1, 82745, Note_on_c, 0, 67, 0
1, 82745, Note_on_c, 0, 62, 58
1, 82869, Note_on_c, 0, 70, 0
1, 82957, Note_on_c, 0, 74, 0
1, 82961, Note_on_c, 0, 67, 63
1, 83169, Note_on_c, 0, 70, 76
1, 83169, Note_on_c, 0, 58, 66
1, 83181, Note_on_c, 0, 57, 0
1, 83353, Note_on_c, 0, 62, 0
1, 83393, Note_on_c, 0, 74, 79
1, 83545, Note_on_c, 0, 58, 0
1, 83613, Note_on_c, 0, 67, 0
1, 83629, Note_on_c, 0, 64, 82
1, 83673, Control_c, 0, 64, 0
1, 83745, Note_on_c, 0, 70, 0
1, 83785, Control_c, 0, 64, 127
1, 83877, Note_on_c, 0, 67, 53
1, 83905, Note_on_c, 0, 74, 0
1, 84101, Note_on_c, 0, 70, 57
1, 84321, Note_on_c, 0, 64, 0
1, 84337, Note_on_c, 0, 74, 55
1, 84549, Note_on_c, 0, 50, 51
1, 84569, Note_on_c, 0, 67, 0
1, 84569, Note_on_c, 0, 64, 58
1, 84581, Control_c, 0, 64, 0
1, 84669, Note_on_c, 0, 70, 0
1, 84685, Control_c, 0, 64, 127
1, 84781, Note_on_c, 0, 50, 0
1, 84801, Note_on_c, 0, 67, 57
1, 84809, Note_on_c, 0, 52, 49
1, 84857, Note_on_c, 0, 74, 0
1, 85029, Note_on_c, 0, 70, 68
1, 85121, Note_on_c, 0, 52, 0
1, 85237, Note_on_c, 0, 64, 0
1, 85265, Note_on_c, 0, 74, 77
1, 85473, Note_on_c, 0, 67, 0
1, 85505, Note_on_c, 0, 63, 66
1, 85517, Control_c, 0, 64, 0
1, 85533, Note_on_c, 0, 51, 48
1, 85661, Control_c, 0, 64, 127
1, 85713, Note_on_c, 0, 51, 0
1, 85721, Note_on_c, 0, 70, 0
1, 85741, Note_on_c, 0, 74, 0
1, 85757, Note_on_c, 0, 67, 51
1, 85989, Note_on_c, 0, 72, 51
1, 86161, Note_on_c, 0, 72, 0
1, 86209, Note_on_c, 0, 74, 69
1, 86209, Note_on_c, 0, 57, 61
1, 86221, Note_on_c, 0, 63, 0
1, 86377, Control_c, 0, 64, 0
1, 86421, Control_c, 0, 64, 127
1, 86457, Note_on_c, 0, 63, 54
1, 86541, Note_on_c, 0, 67, 0
1, 86697, Note_on_c, 0, 74, 0
1, 86709, Note_on_c, 0, 67, 55
1, 86865, Note_on_c, 0, 57, 0
1, 86953, Note_on_c, 0, 55, 54
1, 87189, Note_on_c, 0, 74, 66
1, 87349, Note_on_c, 0, 63, 0
1, 87381, Note_on_c, 0, 74, 0
1, 87409, Note_on_c, 0, 55, 0
1, 87413, Note_on_c, 0, 67, 0
1, 87433, Note_on_c, 0, 62, 67
1, 87449, Control_c, 0, 64, 0
1, 87481, Note_on_c, 0, 74, 38
1, 87581, Control_c, 0, 64, 127
1, 87669, Note_on_c, 0, 63, 44
1, 87829, Note_on_c, 0, 74, 0
1, 87921, Note_on_c, 0, 66, 50
1, 88149, Note_on_c, 0, 74, 63
1, 88281, Note_on_c, 0, 63, 0
1, 88641, Note_on_c, 0, 63, 34
1, 88657, Note_on_c, 0, 74, 0
1, 88893, Note_on_c, 0, 72, 43
1, 89041, Note_on_c, 0, 72, 0
1, 89117, Note_on_c, 0, 74, 52
1, 89121, Note_on_c, 0, 62, 0
1, 89173, Note_on_c, 0, 72, 18
1, 89217, Note_on_c, 0, 63, 0
1, 89273, Note_on_c, 0, 74, 0
1, 89305, Note_on_c, 0, 66, 0
1, 89325, Note_on_c, 0, 55, 39
1, 89333, Control_c, 0, 64, 0
1, 89337, Note_on_c, 0, 62, 41
1, 89457, Control_c, 0, 64, 127
1, 89501, Note_on_c, 0, 72, 0
1, 89573, Note_on_c, 0, 67, 54
1, 89813, Note_on_c, 0, 72, 58
1, 89977, Note_on_c, 0, 72, 0
1, 89985, Note_on_c, 0, 62, 0
1, 90037, Note_on_c, 0, 74, 73
1, 90209, Note_on_c, 0, 55, 0
1, 90233, Note_on_c, 0, 67, 0
1, 90253, Note_on_c, 0, 58, 69
1, 90257, Note_on_c, 0, 62, 72
1, 90269, Control_c, 0, 64, 0
1, 90405, Control_c, 0, 64, 127
1, 90477, Note_on_c, 0, 74, 0
1, 90501, Note_on_c, 0, 67, 49
1, 90709, Note_on_c, 0, 72, 66
1, 90725, Note_on_c, 0, 60, 54
1, 90733, Note_on_c, 0, 58, 0
1, 90913, Note_on_c, 0, 62, 0
1, 90917, Note_on_c, 0, 72, 0
1, 90933, Note_on_c, 0, 74, 81
1, 90957, Note_on_c, 0, 72, 21
1, 91129, Note_on_c, 0, 72, 0
1, 91133, Note_on_c, 0, 67, 0
1, 91153, Note_on_c, 0, 60, 0
1, 91157, Note_on_c, 0, 52, 58
1, 91161, Note_on_c, 0, 64, 78
1, 91165, Control_c, 0, 64, 0
1, 91333, Control_c, 0, 64, 127
1, 91409, Note_on_c, 0, 67, 54
1, 91521, Note_on_c, 0, 74, 0
1, 91637, Note_on_c, 0, 72, 60
1, 91797, Note_on_c, 0, 52, 0
1, 91813, Note_on_c, 0, 72, 0
1, 91853, Note_on_c, 0, 60, 81
1, 91857, Note_on_c, 0, 74, 74
1, 92045, Note_on_c, 0, 74, 0
1, 92049, Note_on_c, 0, 64, 0
1, 92077, Note_on_c, 0, 74, 32
1, 92345, Note_on_c, 0, 64, 54
1, 92497, Note_on_c, 0, 74, 0
1, 92529, Note_on_c, 0, 67, 0
1, 92581, Note_on_c, 0, 58, 52
1, 92581, Note_on_c, 0, 72, 63
1, 92617, Note_on_c, 0, 60, 0
1, 92621, Note_on_c, 0, 67, 12
1, 92761, Note_on_c, 0, 67, 0
1, 92781, Note_on_c, 0, 72, 0
1, 92789, Note_on_c, 0, 64, 0
1, 92809, Note_on_c, 0, 70, 60
1, 92933, Note_on_c, 0, 70, 0
1, 92965, Note_on_c, 0, 58, 0
1, 93033, Note_on_c, 0, 72, 57
1, 93049, Control_c, 0, 64, 0
1, 93049, Note_on_c, 0, 57, 55
1, 93053, Note_on_c, 0, 63, 63
1, 93061, Note_on_c, 0, 67, 39
1, 93133, Note_on_c, 0, 72, 0
1, 93189, Note_on_c, 0, 67, 0
1, 93269, Control_c, 0, 64, 127
1, 93289, Note_on_c, 0, 67, 58
1, 93513, Note_on_c, 0, 72, 76
1, 93561, Note_on_c, 0, 70, 33
1, 93609, Note_on_c, 0, 70, 0
1, 93725, Note_on_c, 0, 63, 0
1, 93745, Note_on_c, 0, 74, 88
1, 93965, Note_on_c, 0, 70, 22
1, 93969, Note_on_c, 0, 62, 94
1, 93977, Note_on_c, 0, 63, 90
1, 93997, Note_on_c, 0, 56, 1
1, 94037, Note_on_c, 0, 56, 0
1, 94037, Note_on_c, 0, 67, 0
1, 94057, Note_on_c, 0, 57, 0
1, 94185, Note_on_c, 0, 74, 0
1, 94221, Note_on_c, 0, 72, 0
1, 94225, Note_on_c, 0, 70, 0
1, 94249, Note_on_c, 0, 67, 73
1, 94301, Note_on_c, 0, 62, 0
1, 94473, Note_on_c, 0, 72, 72
1, 94669, Note_on_c, 0, 72, 0
1, 94689, Note_on_c, 0, 50, 81
1, 94697, Note_on_c, 0, 38, 81
1, 94701, Note_on_c, 0, 74, 80
1, 94709, Control_c, 0, 64, 0
1, 94717, Note_on_c, 0, 63, 0
1, 94717, Note_on_c, 0, 72, 28
1, 94849, Control_c, 0, 64, 127
1, 94949, Note_on_c, 0, 70, 1
1, 94949, Note_on_c, 0, 63, 68
1, 94965, Note_on_c, 0, 38, 0
1, 94993, Note_on_c, 0, 67, 0
1, 95025, Note_on_c, 0, 50, 0
1, 95125, Note_on_c, 0, 72, 0
1, 95149, Note_on_c, 0, 74, 0
1, 95149, Note_on_c, 0, 70, 0
1, 95225, Note_on_c, 0, 66, 68
1, 95465, Note_on_c, 0, 72, 57
1, 95677, Note_on_c, 0, 63, 0
1, 95705, Note_on_c, 0, 74, 60
1, 95857, Note_on_c, 0, 74, 0
1, 95933, Note_on_c, 0, 66, 0
1, 95961, Note_on_c, 0, 63, 50
1, 95961, Note_on_c, 0, 62, 47
1, 96141, Note_on_c, 0, 72, 0
1, 96217, Note_on_c, 0, 66, 54
1, 96417, Note_on_c, 0, 62, 0
1, 96461, Note_on_c, 0, 72, 49
1, 96629, Note_on_c, 0, 72, 0
1, 96673, Note_on_c, 0, 63, 0
1, 96705, Note_on_c, 0, 74, 50
1, 96865, Note_on_c, 0, 74, 0
1, 96869, Note_on_c, 0, 66, 0
1, 96929, Note_on_c, 0, 55, 42
1, 96937, Note_on_c, 0, 62, 52
1, 96941, Control_c, 0, 64, 0
1, 97017, Note_on_c, 0, 74, 12
1, 97113, Control_c, 0, 64, 127
1, 97129, Note_on_c, 0, 74, 0
1, 97173, Note_on_c, 0, 67, 46
1, 97409, Note_on_c, 0, 72, 54
1, 97461, Note_on_c, 0, 55, 0
1, 97613, Note_on_c, 0, 62, 0
1, 97613, Note_on_c, 0, 72, 0
1, 97641, Note_on_c, 0, 74, 72
1, 97653, Note_on_c, 0, 57, 69
1, 97765, Control_c, 0, 64, 0
1, 97861, Note_on_c, 0, 67, 0
1, 97893, Note_on_c, 0, 62, 57
1, 97917, Control_c, 0, 64, 127
1, 97961, Note_on_c, 0, 72, 1
1, 98093, Note_on_c, 0, 72, 0
1, 98097, Note_on_c, 0, 74, 0
1, 98125, Note_on_c, 0, 67, 63
1, 98357, Note_on_c, 0, 57, 0
1, 98369, Note_on_c, 0, 58, 68
1, 98373, Control_c, 0, 64, 0
1, 98513, Control_c, 0, 64, 127
1, 98565, Note_on_c, 0, 62, 0
1, 98605, Note_on_c, 0, 74, 81
1, 98809, Note_on_c, 0, 67, 0
1, 98853, Control_c, 0, 64, 0
1, 98857, Note_on_c, 0, 58, 0
1, 98857, Note_on_c, 0, 52, 48
1, 98857, Note_on_c, 0, 64, 43
1, 99085, Note_on_c, 0, 74, 0
1, 99097, Note_on_c, 0, 67, 39
1, 99113, Control_c, 0, 64, 127
1, 99269, Note_on_c, 0, 64, 0
1, 99329, Note_on_c, 0, 72, 57
1, 99509, Note_on_c, 0, 72, 0
1, 99557, Note_on_c, 0, 74, 74
1, 99709, Note_on_c, 0, 52, 0
1, 99757, Note_on_c, 0, 67, 0
1, 99773, Note_on_c, 0, 64, 62
1, 99993, Note_on_c, 0, 54, 76
1, 100001, Note_on_c, 0, 67, 63
1, 100009, Note_on_c, 0, 74, 0
1, 100037, Control_c, 0, 64, 0
1, 100213, Control_c, 0, 64, 24
1, 100217, Control_c, 0, 64, 127
1, 100237, Note_on_c, 0, 72, 62
1, 100293, Note_on_c, 0, 54, 0
1, 100425, Note_on_c, 0, 72, 0
1, 100477, Note_on_c, 0, 64, 0
1, 100477, Note_on_c, 0, 55, 68
1, 100485, Note_on_c, 0, 74, 72
1, 100493, Note_on_c, 0, 72, 38
1, 100521, Note_on_c, 0, 70, 18
1, 100549, Note_on_c, 0, 55, 0
1, 100657, Note_on_c, 0, 67, 0
1, 100709, Note_on_c, 0, 74, 0
1, 100737, Note_on_c, 0, 72, 0
1, 100757, Note_on_c, 0, 74, 26
1, 100773, Note_on_c, 0, 63, 56
1, 100785, Note_on_c, 0, 62, 54
1, 100817, Note_on_c, 0, 62, 0
1, 100961, Control_c, 0, 64, 0
1, 101005, Note_on_c, 0, 67, 64
1, 101009, Note_on_c, 0, 74, 0
1, 101029, Note_on_c, 0, 70, 0
1, 101213, Note_on_c, 0, 62, 85
1, 101225, Note_on_c, 0, 72, 66
1, 101393, Control_c, 0, 64, 127
1, 101473, Note_on_c, 0, 74, 77
1, 101481, Note_on_c, 0, 63, 0
1, 101637, Note_on_c, 0, 72, 0
1, 101705, Control_c, 0, 64, 24
1, 101709, Note_on_c, 0, 63, 52
1, 101709, Note_on_c, 0, 60, 56
1, 101709, Control_c, 0, 64, 0
1, 101729, Note_on_c, 0, 62, 0
1, 101753, Note_on_c, 0, 70, 1
1, 101757, Note_on_c, 0, 67, 0
1, 101841, Control_c, 0, 64, 127
1, 101937, Note_on_c, 0, 74, 0
1, 101941, Note_on_c, 0, 70, 0
1, 101961, Note_on_c, 0, 60, 0
1, 101969, Note_on_c, 0, 67, 46
1, 102225, Note_on_c, 0, 72, 31
1, 102373, Note_on_c, 0, 72, 0
1, 102413, Note_on_c, 0, 63, 0
1, 102445, Note_on_c, 0, 74, 46
1, 102633, Note_on_c, 0, 67, 0
1, 102657, Control_c, 0, 64, 0
1, 102669, Note_on_c, 0, 38, 42
1, 102805, Control_c, 0, 64, 127
1, 102929, Note_on_c, 0, 50, 43
1, 102949, Note_on_c, 0, 38, 0
1, 102969, Note_on_c, 0, 50, 0
1, 103177, Note_on_c, 0, 63, 44
1, 103333, Note_on_c, 0, 74, 0
1, 103405, Note_on_c, 0, 62, 54
1, 103465, Note_on_c, 0, 62, 0
1, 103953, Note_on_c, 0, 62, 44
1, 104097, Note_on_c, 0, 62, 0
1, 104265, Note_on_c, 0, 62, 39
1, 104413, Note_on_c, 0, 62, 0
1, 104565, Note_on_c, 0, 62, 37
1, 104577, Note_on_c, 0, 63, 0
1, 104605, Note_on_c, 0, 62, 0
1, 104993, Control_c, 0, 64, 0
1, 105009, Note_on_c, 0, 66, 39
1, 105009, Note_on_c, 0, 69, 35
1, 105021, Note_on_c, 0, 62, 47
1, 105021, Note_on_c, 0, 59, 45
1, 105021, Note_on_c, 0, 57, 46
1, 105021, Note_on_c, 0, 54, 42
1, 105029, Note_on_c, 0, 43, 39
1, 105029, Note_on_c, 0, 50, 32
1, 105281, Control_c, 0, 64, 127
1, 105629, Note_on_c, 0, 54, 0
1, 105641, Note_on_c, 0, 57, 0
1, 105645, Note_on_c, 0, 59, 0
1, 105705, Note_on_c, 0, 69, 0
1, 105741, Note_on_c, 0, 62, 0
1, 105745, Note_on_c, 0, 66, 0
1, 105797, Note_on_c, 0, 50, 0
1, 105797, Control_c, 0, 64, 0
1, 105825, Note_on_c, 0, 67, 63
1, 105837, Note_on_c, 0, 62, 50
1, 105837, Note_on_c, 0, 52, 51
1, 105845, Note_on_c, 0, 57, 45
1, 105845, Note_on_c, 0, 59, 42
1, 105905, Note_on_c, 0, 43, 0
1, 105921, Control_c, 0, 64, 127
1, 106009, Note_on_c, 0, 62, 0
1, 106021, Note_on_c, 0, 57, 0
1, 106029, Note_on_c, 0, 59, 0
1, 106089, Note_on_c, 0, 67, 0
1, 106129, Control_c, 0, 64, 0
1, 106153, Note_on_c, 0, 69, 77
1, 106153, Note_on_c, 0, 54, 68
1, 106161, Note_on_c, 0, 62, 73
1, 106165, Note_on_c, 0, 52, 0
1, 106169, Note_on_c, 0, 59, 57
1, 106169, Note_on_c, 0, 57, 63
1, 106173, Note_on_c, 0, 66, 55
1, 106261, Control_c, 0, 64, 127
1, 106353, Note_on_c, 0, 69, 0
1, 106369, Note_on_c, 0, 57, 0
1, 106373, Note_on_c, 0, 59, 0
1, 106377, Control_c, 0, 64, 0
1, 106389, Note_on_c, 0, 66, 0
1, 106413, Note_on_c, 0, 62, 0
1, 106429, Note_on_c, 0, 54, 0
1, 106433, Note_on_c, 0, 52, 74
1, 106437, Note_on_c, 0, 67, 66
1, 106457, Note_on_c, 0, 59, 49
1, 106457, Note_on_c, 0, 57, 52
1, 106461, Control_c, 0, 64, 127
1, 106465, Note_on_c, 0, 62, 49
1, 106469, Note_on_c, 0, 66, 35
1, 106553, Note_on_c, 0, 66, 0
1, 106561, Note_on_c, 0, 62, 0
1, 106577, Note_on_c, 0, 57, 0
1, 106585, Note_on_c, 0, 59, 0
1, 106661, Note_on_c, 0, 67, 0
1, 106685, Control_c, 0, 64, 0
1, 106705, Note_on_c, 0, 54, 68
1, 106709, Note_on_c, 0, 69, 79
1, 106713, Note_on_c, 0, 52, 0
1, 106721, Note_on_c, 0, 62, 71
1, 106725, Note_on_c, 0, 59, 64
1, 106725, Note_on_c, 0, 57, 68
1, 106733, Note_on_c, 0, 66, 56
1, 106833, Control_c, 0, 64, 127
1, 106925, Note_on_c, 0, 57, 0
1, 106929, Note_on_c, 0, 59, 0
1, 106945, Note_on_c, 0, 69, 0
1, 106965, Note_on_c, 0, 66, 0
1, 107029, Note_on_c, 0, 52, 62
1, 107037, Note_on_c, 0, 54, 0
1, 107037, Note_on_c, 0, 67, 66
1, 107053, Note_on_c, 0, 66, 49
1, 107057, Note_on_c, 0, 59, 33
1, 107109, Note_on_c, 0, 59, 0
1, 107165, Note_on_c, 0, 62, 0
1, 107217, Note_on_c, 0, 66, 0
1, 107225, Note_on_c, 0, 67, 0
1, 107229, Note_on_c, 0, 52, 0
1, 107397, Control_c, 0, 64, 0
1, 107421, Note_on_c, 0, 71, 63
1, 107425, Note_on_c, 0, 62, 63
1, 107433, Note_on_c, 0, 55, 54
1, 107437, Note_on_c, 0, 67, 49
1, 107521, Control_c, 0, 64, 127
1, 107597, Note_on_c, 0, 71, 0
1, 107609, Note_on_c, 0, 67, 0
1, 107657, Note_on_c, 0, 62, 0
1, 107713, Note_on_c, 0, 55, 0
1, 107869, Note_on_c, 0, 63, 50
1, 107905, Note_on_c, 0, 52, 49
1, 107905, Note_on_c, 0, 67, 51
1, 107905, Note_on_c, 0, 59, 48
1, 107921, Control_c, 0, 64, 0
1, 107921, Note_on_c, 0, 64, 60
1, 107925, Note_on_c, 0, 63, 0
1, 107937, Note_on_c, 0, 65, 41
1, 107969, Control_c, 0, 64, 127
1, 108009, Note_on_c, 0, 52, 0
1, 108089, Note_on_c, 0, 59, 0
1, 108141, Note_on_c, 0, 67, 0
1, 108149, Note_on_c, 0, 65, 0
1, 108165, Note_on_c, 0, 64, 0
1, 108689, Control_c, 0, 64, 0
1, 108729, Note_on_c, 0, 65, 66
1, 108729, Note_on_c, 0, 38, 44
1, 108733, Note_on_c, 0, 69, 65
1, 108733, Note_on_c, 0, 60, 66
1, 108741, Note_on_c, 0, 53, 44
1, 108821, Control_c, 0, 64, 127
1, 108997, Note_on_c, 0, 60, 0
1, 109021, Note_on_c, 0, 69, 0
1, 109045, Note_on_c, 0, 65, 0
1, 109073, Note_on_c, 0, 53, 0
1, 109097, Note_on_c, 0, 45, 66
1, 109097, Note_on_c, 0, 67, 71
1, 109101, Note_on_c, 0, 64, 73
1, 109101, Note_on_c, 0, 60, 72
1, 109229, Note_on_c, 0, 60, 0
1, 109289, Note_on_c, 0, 64, 0
1, 109317, Note_on_c, 0, 67, 0
1, 109425, Note_on_c, 0, 38, 0
1, 109457, Note_on_c, 0, 45, 0
1, 109457, Note_on_c, 0, 65, 81
1, 109461, Note_on_c, 0, 66, 38
1, 109461, Note_on_c, 0, 69, 72
1, 109461, Note_on_c, 0, 60, 81
1, 109461, Note_on_c, 0, 53, 66
1, 109533, Note_on_c, 0, 53, 0
1, 109649, Note_on_c, 0, 60, 0
1, 109665, Note_on_c, 0, 66, 0
1, 109681, Note_on_c, 0, 65, 0
1, 109689, Note_on_c, 0, 69, 0
1, 109813, Note_on_c, 0, 67, 76
1, 109817, Note_on_c, 0, 57, 60
1, 109821, Note_on_c, 0, 60, 74
1, 109821, Note_on_c, 0, 64, 72
1, 109865, Note_on_c, 0, 57, 0
1, 109985, Note_on_c, 0, 60, 0
1, 110001, Note_on_c, 0, 64, 0
1, 110101, Note_on_c, 0, 67, 0
1, 110193, Control_c, 0, 64, 0
1, 110233, Note_on_c, 0, 69, 79
1, 110237, Note_on_c, 0, 64, 81
1, 110249, Note_on_c, 0, 43, 62
1, 110249, Note_on_c, 0, 53, 66
1, 110249, Note_on_c, 0, 59, 81
1, 110297, Control_c, 0, 64, 127
1, 110325, Note_on_c, 0, 53, 0
1, 110369, Note_on_c, 0, 43, 0
1, 110413, Note_on_c, 0, 69, 0
1, 110417, Note_on_c, 0, 59, 0
1, 110437, Note_on_c, 0, 64, 0
1, 110829, Note_on_c, 0, 45, 74
1, 110833, Note_on_c, 0, 40, 58
1, 110857, Note_on_c, 0, 40, 0
1, 110869, Note_on_c, 0, 41, 42
1, 110889, Note_on_c, 0, 47, 61
1, 110901, Note_on_c, 0, 41, 0
1, 110909, Note_on_c, 0, 45, 0
1, 110913, Note_on_c, 0, 43, 64
1, 110941, Note_on_c, 0, 48, 61
1, 110957, Note_on_c, 0, 43, 0
1, 110961, Note_on_c, 0, 47, 0
1, 110961, Control_c, 0, 64, 0
1, 110973, Note_on_c, 0, 45, 68
1, 111001, Note_on_c, 0, 50, 55
1, 111025, Note_on_c, 0, 45, 0
1, 111025, Note_on_c, 0, 48, 0
1, 111041, Note_on_c, 0, 47, 63
1, 111065, Note_on_c, 0, 52, 52
1, 111089, Note_on_c, 0, 47, 0
1, 111093, Note_on_c, 0, 50, 0
1, 111101, Control_c, 0, 64, 127
1, 111109, Note_on_c, 0, 48, 56
1, 111129, Note_on_c, 0, 53, 48
1, 111157, Note_on_c, 0, 48, 0
1, 111161, Note_on_c, 0, 52, 0
1, 111169, Note_on_c, 0, 50, 56
1, 111189, Note_on_c, 0, 55, 52
1, 111213, Note_on_c, 0, 50, 0
1, 111221, Note_on_c, 0, 53, 0
1, 111233, Note_on_c, 0, 52, 54
1, 111257, Note_on_c, 0, 57, 51
1, 111269, Note_on_c, 0, 52, 0
1, 111285, Note_on_c, 0, 55, 0
1, 111301, Note_on_c, 0, 53, 48
1, 111325, Note_on_c, 0, 53, 0
1, 111325, Note_on_c, 0, 59, 43
1, 111361, Note_on_c, 0, 57, 0
1, 111361, Note_on_c, 0, 55, 45
1, 111389, Note_on_c, 0, 60, 51
1, 111393, Note_on_c, 0, 55, 0
1, 111421, Note_on_c, 0, 57, 54
1, 111425, Note_on_c, 0, 59, 0
1, 111441, Note_on_c, 0, 57, 0
1, 111441, Note_on_c, 0, 62, 55
1, 111461, Note_on_c, 0, 59, 48
1, 111473, Note_on_c, 0, 62, 0
1, 111477, Note_on_c, 0, 60, 0
1, 111485, Note_on_c, 0, 59, 0
1, 111493, Note_on_c, 0, 64, 52
1, 111509, Note_on_c, 0, 60, 36
1, 111521, Note_on_c, 0, 64, 0
1, 111541, Note_on_c, 0, 60, 0
1, 111545, Note_on_c, 0, 65, 53
1, 111553, Note_on_c, 0, 62, 45
1, 111573, Note_on_c, 0, 65, 0
1, 111597, Note_on_c, 0, 67, 49
1, 111601, Note_on_c, 0, 62, 0
1, 111609, Note_on_c, 0, 64, 48
1, 111629, Note_on_c, 0, 67, 0
1, 111653, Note_on_c, 0, 69, 51
1, 111661, Note_on_c, 0, 64, 0
1, 111673, Note_on_c, 0, 65, 62
1, 111689, Note_on_c, 0, 69, 0
1, 111713, Note_on_c, 0, 65, 0
1, 111713, Note_on_c, 0, 71, 48
1, 111745, Note_on_c, 0, 67, 57
1, 111781, Note_on_c, 0, 67, 0
1, 111781, Note_on_c, 0, 72, 42
1, 111813, Note_on_c, 0, 71, 0
1, 111817, Note_on_c, 0, 69, 54
1, 111849, Note_on_c, 0, 69, 0
1, 111849, Note_on_c, 0, 74, 50
1, 111889, Note_on_c, 0, 72, 0
1, 111889, Note_on_c, 0, 71, 48
1, 111913, Note_on_c, 0, 76, 52
1, 111921, Note_on_c, 0, 71, 0
1, 111953, Note_on_c, 0, 74, 0
1, 111957, Note_on_c, 0, 72, 44
1, 111985, Note_on_c, 0, 77, 50
1, 111997, Note_on_c, 0, 72, 0
1, 112025, Note_on_c, 0, 76, 0
1, 112037, Note_on_c, 0, 74, 43
1, 112065, Note_on_c, 0, 74, 0
1, 112065, Note_on_c, 0, 79, 45
1, 112101, Note_on_c, 0, 77, 0
1, 112117, Note_on_c, 0, 76, 46
1, 112129, Note_on_c, 0, 79, 0
1, 112145, Note_on_c, 0, 76, 0
1, 112145, Note_on_c, 0, 81, 50
1, 112189, Note_on_c, 0, 77, 48
1, 112201, Note_on_c, 0, 81, 0
1, 112213, Note_on_c, 0, 83, 54
1, 112217, Note_on_c, 0, 77, 0
1, 112261, Note_on_c, 0, 79, 42
1, 112269, Note_on_c, 0, 83, 0
1, 112281, Note_on_c, 0, 84, 57
1, 112289, Note_on_c, 0, 79, 0
1, 112321, Note_on_c, 0, 81, 39
1, 112353, Note_on_c, 0, 81, 0
1, 112353, Note_on_c, 0, 86, 51
1, 112369, Note_on_c, 0, 84, 0
1, 112389, Note_on_c, 0, 83, 44
1, 112421, Note_on_c, 0, 83, 0
1, 112421, Note_on_c, 0, 88, 48
1, 112445, Note_on_c, 0, 86, 0
1, 112465, Note_on_c, 0, 84, 46
1, 112497, Note_on_c, 0, 84, 0
1, 112497, Note_on_c, 0, 89, 46
1, 112529, Note_on_c, 0, 88, 0
1, 112533, Note_on_c, 0, 86, 46
1, 112561, Note_on_c, 0, 86, 0
1, 112565, Note_on_c, 0, 91, 46
1, 112601, Note_on_c, 0, 89, 0
1, 112605, Note_on_c, 0, 88, 44
1, 112637, Note_on_c, 0, 88, 0
1, 112637, Note_on_c, 0, 93, 45
1, 112657, Note_on_c, 0, 91, 0
1, 112661, Note_on_c, 0, 89, 50
1, 112689, Note_on_c, 0, 89, 0
1, 112709, Note_on_c, 0, 95, 35
1, 112721, Note_on_c, 0, 91, 43
1, 112729, Note_on_c, 0, 93, 0
1, 112745, Note_on_c, 0, 91, 0
1, 112777, Note_on_c, 0, 95, 0
1, 112777, Note_on_c, 0, 93, 29
1, 112777, Note_on_c, 0, 96, 38
1, 112813, Note_on_c, 0, 93, 0
1, 112821, Note_on_c, 0, 96, 0
1, 112821, Note_on_c, 0, 95, 37
1, 112861, Note_on_c, 0, 62, 48
1, 112869, Note_on_c, 0, 56, 40
1, 112877, Note_on_c, 0, 59, 57
1, 112897, Note_on_c, 0, 96, 39
1, 113161, Note_on_c, 0, 96, 0
1, 113553, Note_on_c, 0, 95, 0
1, 113561, Note_on_c, 0, 62, 0
1, 113617, Note_on_c, 0, 59, 0
1, 113637, Note_on_c, 0, 95, 66
1, 113657, Note_on_c, 0, 56, 0
1, 113905, Note_on_c, 0, 96, 54
1, 114005, Note_on_c, 0, 95, 0
1, 114077, Note_on_c, 0, 96, 0
1, 114145, Note_on_c, 0, 97, 60
1, 114389, Note_on_c, 0, 97, 0
1, 114389, Control_c, 0, 64, 0
1, 114441, Note_on_c, 0, 98, 57
1, 114445, Note_on_c, 0, 24, 50
1, 114485, Control_c, 0, 64, 127
1, 114561, Note_on_c, 0, 24, 0
1, 114605, Note_on_c, 0, 98, 0
1, 114973, Note_on_c, 0, 74, 76
1, 115205, Note_on_c, 0, 74, 0
1, 115365, Note_on_c, 0, 74, 64
1, 115397, Note_on_c, 0, 67, 48
1, 115409, Note_on_c, 0, 63, 52
1, 115413, Note_on_c, 0, 60, 31
1, 115601, Note_on_c, 0, 74, 0
1, 115673, Note_on_c, 0, 63, 0
1, 115693, Note_on_c, 0, 74, 63
1, 115709, Note_on_c, 0, 67, 0
1, 115841, Note_on_c, 0, 74, 0
1, 115981, Control_c, 0, 64, 0
1, 115993, Note_on_c, 0, 74, 55
1, 115997, Note_on_c, 0, 68, 56
1, 115997, Note_on_c, 0, 63, 41
1, 116009, Note_on_c, 0, 48, 37
1, 116185, Control_c, 0, 64, 127
1, 116333, Note_on_c, 0, 74, 0
1, 116381, Note_on_c, 0, 72, 63
1, 116385, Note_on_c, 0, 60, 0
1, 116385, Note_on_c, 0, 56, 44
1, 116421, Note_on_c, 0, 68, 0
1, 116633, Note_on_c, 0, 63, 0
1, 116769, Note_on_c, 0, 67, 50
1, 116789, Note_on_c, 0, 63, 37
1, 116805, Note_on_c, 0, 60, 32
1, 116965, Note_on_c, 0, 72, 0
1, 116973, Note_on_c, 0, 67, 0
1, 117113, Note_on_c, 0, 63, 0
1, 117413, Note_on_c, 0, 60, 0
1, 117561, Note_on_c, 0, 63, 47
1, 117857, Note_on_c, 0, 63, 0
1, 117985, Note_on_c, 0, 48, 0
1, 118021, Note_on_c, 0, 63, 54
1, 118293, Note_on_c, 0, 63, 0
1, 118313, Control_c, 0, 64, 0
1, 118317, Note_on_c, 0, 56, 0
1, 118333, Note_on_c, 0, 62, 62
1, 118333, Note_on_c, 0, 48, 43
1, 118349, Note_on_c, 0, 57, 40
1, 118461, Control_c, 0, 64, 127
1, 118633, Note_on_c, 0, 62, 0
1, 118653, Note_on_c, 0, 60, 55
1, 118661, Note_on_c, 0, 57, 0
1, 118685, Note_on_c, 0, 60, 0
1, 118973, Note_on_c, 0, 74, 75
1, 118985, Note_on_c, 0, 67, 60
1, 118989, Note_on_c, 0, 63, 56
1, 119017, Note_on_c, 0, 57, 40
1, 119193, Note_on_c, 0, 74, 0
1, 119281, Note_on_c, 0, 72, 65
1, 119357, Note_on_c, 0, 57, 0
1, 119393, Note_on_c, 0, 67, 0
1, 119417, Note_on_c, 0, 63, 0
1, 119465, Note_on_c, 0, 72, 0
1, 119633, Control_c, 0, 64, 0
1, 119633, Note_on_c, 0, 75, 61
1, 119637, Note_on_c, 0, 63, 44
1, 119645, Note_on_c, 0, 67, 49
1, 119653, Note_on_c, 0, 58, 33
1, 119801, Control_c, 0, 64, 127
1, 119809, Note_on_c, 0, 48, 0
1, 119853, Note_on_c, 0, 58, 0
1, 119997, Note_on_c, 0, 60, 72
1, 120125, Note_on_c, 0, 67, 0
1, 120233, Note_on_c, 0, 63, 0
1, 120381, Note_on_c, 0, 63, 52
1, 120385, Note_on_c, 0, 67, 56
1, 120389, Note_on_c, 0, 58, 58
1, 120401, Note_on_c, 0, 60, 0
1, 120417, Note_on_c, 0, 58, 0
1, 120477, Note_on_c, 0, 75, 0
1, 120525, Note_on_c, 0, 67, 0
1, 120553, Note_on_c, 0, 63, 0
1, 121037, Control_c, 0, 64, 0
1, 121069, Note_on_c, 0, 63, 54
1, 121073, Note_on_c, 0, 58, 56
1, 121073, Note_on_c, 0, 42, 41
1, 121093, Note_on_c, 0, 52, 29
1, 121105, Note_on_c, 0, 30, 38
1, 121165, Control_c, 0, 64, 127
1, 121201, Note_on_c, 0, 30, 0
1, 121245, Note_on_c, 0, 52, 0
1, 121249, Note_on_c, 0, 42, 0
1, 121357, Note_on_c, 0, 58, 0
1, 121401, Note_on_c, 0, 63, 0
1, 121453, Control_c, 0, 64, 0
1, 121497, Note_on_c, 0, 55, 52
1, 121501, Note_on_c, 0, 51, 42
1, 121509, Note_on_c, 0, 56, 49
1, 121509, Note_on_c, 0, 60, 50
1, 121537, Note_on_c, 0, 41, 42
1, 121589, Control_c, 0, 64, 127
1, 121741, Note_on_c, 0, 55, 0
1, 121765, Note_on_c, 0, 56, 0
1, 121777, Note_on_c, 0, 51, 0
1, 121781, Note_on_c, 0, 60, 0
1, 121961, Note_on_c, 0, 41, 0
1, 121961, Note_on_c, 0, 48, 77
1, 122357, Note_on_c, 0, 63, 71
1, 122357, Note_on_c, 0, 60, 75
1, 122365, Control_c, 0, 64, 0
1, 122373, Note_on_c, 0, 53, 61
1, 122413, Note_on_c, 0, 48, 0
1, 122417, Control_c, 0, 64, 127
1, 122429, Note_on_c, 0, 60, 0
1, 122453, Note_on_c, 0, 53, 0
1, 122481, Note_on_c, 0, 63, 0
1, 122749, Note_on_c, 0, 72, 92
1, 122749, Note_on_c, 0, 67, 88
1, 122757, Note_on_c, 0, 62, 85
1, 122773, Control_c, 0, 64, 0
1, 122777, Note_on_c, 0, 58, 47
1, 122801, Control_c, 0, 64, 127
1, 122869, Note_on_c, 0, 58, 0
1, 123021, Note_on_c, 0, 67, 0
1, 123065, Note_on_c, 0, 62, 0
1, 123065, Note_on_c, 0, 72, 0
1, 123481, Note_on_c, 0, 70, 68
1, 123481, Note_on_c, 0, 62, 61
1, 123485, Note_on_c, 0, 66, 60
1, 123489, Control_c, 0, 64, 0
1, 123501, Note_on_c, 0, 56, 51
1, 123501, Note_on_c, 0, 46, 51
1, 123513, Note_on_c, 0, 66, 0
1, 123549, Note_on_c, 0, 67, 43
1, 123737, Control_c, 0, 64, 127
1, 123861, Note_on_c, 0, 67, 0
1, 123917, Control_c, 0, 64, 0
1, 123941, Note_on_c, 0, 66, 66
1, 124041, Control_c, 0, 64, 127
1, 124193, Note_on_c, 0, 56, 0
1, 124209, Note_on_c, 0, 66, 0
1, 124233, Note_on_c, 0, 62, 0
1, 124341, Control_c, 0, 64, 24
1, 124345, Control_c, 0, 64, 0
1, 124381, Note_on_c, 0, 62, 52
1, 124381, Note_on_c, 0, 66, 55
1, 124405, Note_on_c, 0, 56, 36
1, 124409, Control_c, 0, 64, 127
1, 124729, Note_on_c, 0, 66, 0
1, 124753, Note_on_c, 0, 62, 0
1, 124753, Note_on_c, 0, 56, 0
1, 124777, Note_on_c, 0, 46, 0
1, 124921, Note_on_c, 0, 65, 49
1, 125081, Note_on_c, 0, 70, 0
1, 125113, Note_on_c, 0, 65, 0
1, 125493, Control_c, 0, 64, 0
1, 125541, Note_on_c, 0, 55, 43
1, 125545, Note_on_c, 0, 67, 42
1, 125545, Note_on_c, 0, 59, 50
1, 125549, Note_on_c, 0, 62, 50
1, 125549, Note_on_c, 0, 39, 39
1, 125573, Note_on_c, 0, 47, 33
1, 125737, Control_c, 0, 64, 127
1, 125821, Note_on_c, 0, 59, 0
1, 125873, Control_c, 0, 64, 0
1, 125881, Note_on_c, 0, 55, 0
1, 125941, Note_on_c, 0, 47, 0
1, 125945, Note_on_c, 0, 60, 61
1, 125949, Note_on_c, 0, 62, 0
1, 125949, Note_on_c, 0, 55, 39
1, 125961, Note_on_c, 0, 48, 44
1, 126037, Note_on_c, 0, 39, 0
1, 126049, Control_c, 0, 64, 127
1, 126265, Note_on_c, 0, 48, 0
1, 126281, Control_c, 0, 64, 40
1, 126281, Control_c, 0, 64, 0
1, 126293, Note_on_c, 0, 50, 66
1, 126413, Control_c, 0, 64, 127
1, 126621, Control_c, 0, 64, 0
1, 126677, Note_on_c, 0, 50, 0
1, 126725, Control_c, 0, 64, 127
1, 126741, Note_on_c, 0, 51, 77
1, 126745, Note_on_c, 0, 55, 0
1, 126777, Note_on_c, 0, 67, 0
1, 126777, Control_c, 0, 64, 0
1, 126833, Control_c, 0, 64, 127
1, 126965, Note_on_c, 0, 60, 0
1, 127121, Control_c, 0, 64, 0
1, 127145, Note_on_c, 0, 65, 60
1, 127145, Note_on_c, 0, 60, 66
1, 127145, Note_on_c, 0, 57, 68
1, 127157, Note_on_c, 0, 51, 0
1, 127157, Note_on_c, 0, 53, 69
1, 127305, Control_c, 0, 64, 56
1, 127305, Control_c, 0, 64, 127
1, 127485, Note_on_c, 0, 57, 0
1, 127509, Note_on_c, 0, 53, 0
1, 127525, Note_on_c, 0, 43, 75
1, 127549, Note_on_c, 0, 65, 0
1, 127565, Note_on_c, 0, 60, 0
1, 127985, Control_c, 0, 64, 0
1, 127985, Note_on_c, 0, 68, 63
1, 127989, Note_on_c, 0, 63, 59
1, 127993, Note_on_c, 0, 59, 68
1, 127997, Note_on_c, 0, 53, 50
1, 128001, Note_on_c, 0, 65, 57
1, 128153, Control_c, 0, 64, 127
1, 128501, Note_on_c, 0, 59, 0
1, 128509, Note_on_c, 0, 68, 0
1, 128513, Note_on_c, 0, 65, 0
1, 128545, Note_on_c, 0, 63, 0
1, 128573, Note_on_c, 0, 67, 66
1, 128601, Note_on_c, 0, 62, 58
1, 128677, Note_on_c, 0, 43, 0
1, 128745, Note_on_c, 0, 53, 0
1, 128837, Note_on_c, 0, 67, 0
1, 128841, Note_on_c, 0, 62, 0
1, 129225, Control_c, 0, 64, 0
1, 129237, Note_on_c, 0, 72, 80
1, 129241, Note_on_c, 0, 65, 85
1, 129245, Note_on_c, 0, 69, 75
1, 129253, Note_on_c, 0, 58, 55
1, 129257, Note_on_c, 0, 62, 65
1, 129269, Note_on_c, 0, 60, 63
1, 129293, Note_on_c, 0, 71, 24
1, 129421, Control_c, 0, 64, 127
1, 129537, Note_on_c, 0, 72, 0
1, 129573, Note_on_c, 0, 71, 0
1, 129649, Note_on_c, 0, 72, 74
1, 129673, Note_on_c, 0, 71, 22
1, 129885, Note_on_c, 0, 72, 0
1, 129997, Note_on_c, 0, 71, 0
1, 130025, Note_on_c, 0, 69, 0
1, 130053, Note_on_c, 0, 73, 63
1, 130309, Note_on_c, 0, 62, 0
1, 130337, Note_on_c, 0, 73, 0
1, 130429, Note_on_c, 0, 60, 0
1, 130605, Note_on_c, 0, 58, 0
1, 130613, Note_on_c, 0, 72, 43
1, 130621, Note_on_c, 0, 65, 0
1, 130857, Note_on_c, 0, 72, 0
1, 131129, Control_c, 0, 64, 0
1, 131161, Note_on_c, 0, 73, 42
1, 131169, Note_on_c, 0, 58, 34
1, 131173, Note_on_c, 0, 64, 31
1, 131193, Note_on_c, 0, 48, 31
1, 131253, Control_c, 0, 64, 127
1, 131345, Note_on_c, 0, 73, 0
1, 131405, Note_on_c, 0, 64, 0
1, 131553, Note_on_c, 0, 60, 54
1, 131677, Note_on_c, 0, 60, 0
1, 131705, Note_on_c, 0, 61, 63
1, 131789, Note_on_c, 0, 61, 0
1, 131845, Note_on_c, 0, 64, 64
1, 131849, Note_on_c, 0, 48, 0
1, 131941, Note_on_c, 0, 64, 0
1, 131953, Note_on_c, 0, 58, 0
1, 131973, Note_on_c, 0, 66, 77
1, 132113, Note_on_c, 0, 70, 67
1, 132133, Note_on_c, 0, 66, 0
1, 132189, Note_on_c, 0, 70, 0
1, 132241, Note_on_c, 0, 72, 71
1, 132345, Note_on_c, 0, 72, 0
1, 132373, Note_on_c, 0, 73, 72
1, 132457, Note_on_c, 0, 73, 0
1, 132525, Note_on_c, 0, 76, 57
1, 132761, Note_on_c, 0, 76, 0
1, 132765, Note_on_c, 0, 78, 54
1, 132781, Note_on_c, 0, 63, 40
1, 132829, Note_on_c, 0, 58, 31
1, 132857, Note_on_c, 0, 52, 37
1, 132941, Control_c, 0, 64, 0
1, 132997, Note_on_c, 0, 82, 50
1, 133001, Note_on_c, 0, 78, 0
1, 133017, Control_c, 0, 64, 127
1, 133133, Note_on_c, 0, 82, 0
1, 133209, Note_on_c, 0, 84, 55
1, 133333, Note_on_c, 0, 84, 0
1, 133389, Note_on_c, 0, 85, 54
1, 133529, Note_on_c, 0, 85, 0
1, 133605, Note_on_c, 0, 88, 49
1, 133825, Note_on_c, 0, 88, 0
1, 133841, Note_on_c, 0, 90, 54
1, 134125, Note_on_c, 0, 90, 0
1, 134125, Note_on_c, 0, 94, 47
1, 134613, Note_on_c, 0, 94, 0
1, 134709, Note_on_c, 0, 95, 47
1, 134713, Note_on_c, 0, 52, 0
1, 134741, Note_on_c, 0, 58, 0
1, 134817, Note_on_c, 0, 63, 0
1, 134893, Note_on_c, 0, 95, 0
1, 135165, Control_c, 0, 64, 0
1, 135197, Note_on_c, 0, 63, 35
1, 135201, Note_on_c, 0, 87, 42
1, 135201, Note_on_c, 0, 96, 55
1, 135213, Note_on_c, 0, 53, 36
1, 135217, Note_on_c, 0, 58, 39
1, 135217, Note_on_c, 0, 91, 48
1, 135321, Control_c, 0, 64, 127
1, 135553, Note_on_c, 0, 96, 0
1, 135589, Note_on_c, 0, 91, 0
1, 135621, Note_on_c, 0, 87, 0
1, 135693, Note_on_c, 0, 63, 0
1, 135721, Note_on_c, 0, 60, 44
1, 136157, Note_on_c, 0, 75, 60
1, 136177, Note_on_c, 0, 70, 57
1, 136181, Note_on_c, 0, 63, 39
1, 136205, Note_on_c, 0, 67, 30
1, 136565, Note_on_c, 0, 75, 0
1, 136665, Note_on_c, 0, 67, 0
1, 136697, Note_on_c, 0, 77, 11
1, 136901, Note_on_c, 0, 77, 0
1, 136941, Note_on_c, 0, 70, 0
1, 136993, Note_on_c, 0, 63, 0
1, 137221, Note_on_c, 0, 79, 77
1, 137229, Note_on_c, 0, 75, 75
1, 137245, Note_on_c, 0, 63, 44
1, 137249, Note_on_c, 0, 72, 51
1, 137265, Note_on_c, 0, 69, 39
1, 137309, Note_on_c, 0, 60, 0
1, 137509, Note_on_c, 0, 79, 0
1, 137573, Note_on_c, 0, 75, 0
1, 137609, Note_on_c, 0, 77, 79
1, 137633, Note_on_c, 0, 63, 0
1, 137633, Note_on_c, 0, 60, 44
1, 137781, Note_on_c, 0, 77, 0
1, 137817, Note_on_c, 0, 69, 0
1, 137853, Note_on_c, 0, 53, 0
1, 137861, Note_on_c, 0, 75, 72
1, 137889, Note_on_c, 0, 72, 0
1, 137949, Note_on_c, 0, 58, 0
1, 138041, Note_on_c, 0, 75, 0
1, 138057, Note_on_c, 0, 60, 0
1, 138217, Note_on_c, 0, 77, 66
1, 138229, Note_on_c, 0, 63, 39
1, 138233, Note_on_c, 0, 69, 46
1, 138237, Control_c, 0, 64, 0
1, 138237, Note_on_c, 0, 73, 55
1, 138289, Note_on_c, 0, 53, 6
1, 138369, Control_c, 0, 64, 127
1, 138445, Note_on_c, 0, 77, 0
1, 138517, Note_on_c, 0, 73, 0
1, 138581, Note_on_c, 0, 69, 0
1, 138673, Note_on_c, 0, 79, 63
1, 138693, Note_on_c, 0, 60, 44
1, 138701, Note_on_c, 0, 63, 0
1, 139149, Note_on_c, 0, 53, 0
1, 139165, Note_on_c, 0, 69, 47
1, 139433, Note_on_c, 0, 79, 0
1, 139445, Note_on_c, 0, 69, 0
1, 139517, Note_on_c, 0, 60, 0
1, 139673, Note_on_c, 0, 53, 34
1, 139717, Note_on_c, 0, 53, 0
1, 140829, Control_c, 0, 64, 0
1, 140837, Note_on_c, 0, 61, 46
1, 140845, Note_on_c, 0, 57, 43
1, 140857, Note_on_c, 0, 54, 32
1, 140865, Note_on_c, 0, 47, 36
1, 141033, Control_c, 0, 64, 40
1, 141037, Control_c, 0, 64, 127
1, 141201, Note_on_c, 0, 57, 0
1, 141253, Note_on_c, 0, 61, 0
1, 142037, Note_on_c, 0, 54, 0
1, 142069, Note_on_c, 0, 51, 36
1, 142085, Control_c, 0, 64, 0
1, 142101, Note_on_c, 0, 66, 73
1, 142109, Note_on_c, 0, 51, 0
1, 142109, Note_on_c, 0, 61, 63
1, 142109, Note_on_c, 0, 57, 68
1, 142109, Note_on_c, 0, 54, 51
1, 142125, Note_on_c, 0, 63, 50
1, 142317, Note_on_c, 0, 57, 0
1, 142329, Note_on_c, 0, 66, 0
1, 142345, Note_on_c, 0, 54, 0
1, 142357, Note_on_c, 0, 63, 0
1, 142373, Control_c, 0, 64, 127
1, 142381, Note_on_c, 0, 65, 57
1, 142389, Note_on_c, 0, 57, 42
1, 142397, Note_on_c, 0, 53, 41
1, 142417, Note_on_c, 0, 47, 0
1, 142465, Control_c, 0, 64, 0
1, 142509, Note_on_c, 0, 57, 0
1, 142553, Note_on_c, 0, 61, 0
1, 142553, Note_on_c, 0, 65, 0
1, 142573, Control_c, 0, 64, 127
1, 142585, Note_on_c, 0, 53, 0
1, 142605, Note_on_c, 0, 63, 52
1, 142609, Note_on_c, 0, 47, 39
1, 142657, Note_on_c, 0, 47, 0
1, 142777, Note_on_c, 0, 63, 0
1, 142793, Control_c, 0, 64, 0
1, 142849, Note_on_c, 0, 46, 42
1, 142849, Note_on_c, 0, 63, 22
1, 142849, Note_on_c, 0, 56, 48
1, 142865, Note_on_c, 0, 65, 48
1, 142877, Note_on_c, 0, 53, 34
1, 142877, Note_on_c, 0, 60, 45
1, 142929, Note_on_c, 0, 53, 0
1, 142949, Control_c, 0, 64, 127
1, 142993, Note_on_c, 0, 46, 0
1, 143197, Note_on_c, 0, 60, 0
1, 143213, Note_on_c, 0, 63, 0
1, 143225, Note_on_c, 0, 56, 0
1, 143329, Note_on_c, 0, 65, 0
1, 143413, Note_on_c, 0, 46, 35
1, 143413, Note_on_c, 0, 56, 36
1, 143413, Note_on_c, 0, 63, 40
1, 143413, Note_on_c, 0, 34, 40
1, 143421, Control_c, 0, 64, 0
1, 143433, Note_on_c, 0, 60, 47
1, 143613, Control_c, 0, 64, 127
1, 143753, Note_on_c, 0, 60, 0
1, 144041, Note_on_c, 0, 60, 51
1, 144077, Note_on_c, 0, 63, 0
1, 144225, Note_on_c, 0, 34, 0
1, 144309, Note_on_c, 0, 46, 0
1, 144497, Note_on_c, 0, 56, 0
1, 144505, Note_on_c, 0, 60, 0
1, 145245, Control_c, 0, 64, 0
1, 145309, Note_on_c, 0, 63, 32
1, 145313, Note_on_c, 0, 43, 35
1, 145325, Note_on_c, 0, 53, 28
1, 145333, Note_on_c, 0, 59, 39
1, 145585, Control_c, 0, 64, 127
1, 146529, Control_c, 0, 64, 40
1, 146533, Control_c, 0, 64, 0
1, 146797, Note_on_c, 0, 53, 0
1, 146833, Note_on_c, 0, 59, 0
1, 146865, Note_on_c, 0, 63, 0
1, 146941, Note_on_c, 0, 43, 0
1, 147033, Note_on_c, 0, 74, 85
1, 147061, Note_on_c, 0, 48, 39
1, 147073, Note_on_c, 0, 55, 39
1, 147293, Control_c, 0, 64, 127
1, 147789, Note_on_c, 0, 63, 50
1, 147809, Note_on_c, 0, 67, 43
1, 147817, Note_on_c, 0, 62, 31
1, 148049, Note_on_c, 0, 62, 0
1, 148229, Note_on_c, 0, 67, 0
1, 148261, Note_on_c, 0, 48, 0
1, 148305, Note_on_c, 0, 55, 0
1, 148525, Note_on_c, 0, 63, 0
1, 148589, Note_on_c, 0, 56, 68
1, 148645, Control_c, 0, 64, 24
1, 148649, Control_c, 0, 64, 0
1, 148705, Control_c, 0, 64, 127
1, 149069, Note_on_c, 0, 63, 42
1, 149117, Note_on_c, 0, 74, 0
1, 149133, Note_on_c, 0, 68, 41
1, 149377, Note_on_c, 0, 68, 0
1, 149381, Note_on_c, 0, 72, 75
1, 149629, Note_on_c, 0, 63, 0
1, 149673, Note_on_c, 0, 67, 76
1, 149765, Note_on_c, 0, 72, 0
1, 149785, Note_on_c, 0, 67, 0
1, 149917, Note_on_c, 0, 63, 63
1, 149941, Note_on_c, 0, 56, 0
1, 150073, Note_on_c, 0, 63, 0
1, 150197, Note_on_c, 0, 57, 39
1, 150197, Note_on_c, 0, 48, 38
1, 150197, Note_on_c, 0, 62, 55
1, 150221, Control_c, 0, 64, 0
1, 150449, Note_on_c, 0, 62, 0
1, 150457, Note_on_c, 0, 63, 54
1, 150521, Control_c, 0, 64, 127
1, 150553, Note_on_c, 0, 62, 41
1, 150601, Note_on_c, 0, 63, 0
1, 150629, Note_on_c, 0, 62, 0
1, 150637, Note_on_c, 0, 60, 55
1, 150953, Note_on_c, 0, 57, 0
1, 151005, Note_on_c, 0, 57, 31
1, 151201, Note_on_c, 0, 48, 0
1, 151305, Note_on_c, 0, 57, 0
1, 151377, Note_on_c, 0, 60, 0
1, 151517, Note_on_c, 0, 48, 45
1, 151569, Note_on_c, 0, 48, 0
1, 151853, Note_on_c, 0, 63, 45
1, 151865, Control_c, 0, 64, 0
1, 151865, Note_on_c, 0, 52, 40
1, 151873, Note_on_c, 0, 36, 40
1, 151877, Note_on_c, 0, 58, 45
1, 152001, Note_on_c, 0, 36, 0
1, 152021, Note_on_c, 0, 52, 0
1, 152057, Note_on_c, 0, 63, 0
1, 152077, Note_on_c, 0, 58, 0
1, 152413, Note_on_c, 0, 30, 41
1, 152421, Note_on_c, 0, 60, 45
1, 152421, Note_on_c, 0, 52, 30
1, 152425, Note_on_c, 0, 56, 40
1, 152429, Note_on_c, 0, 42, 31
1, 152521, Control_c, 0, 64, 127
1, 152977, Note_on_c, 0, 30, 0
1, 153017, Note_on_c, 0, 52, 0
1, 153037, Note_on_c, 0, 42, 0
1, 153113, Note_on_c, 0, 60, 0
1, 153169, Note_on_c, 0, 56, 0
1, 153581, Control_c, 0, 64, 0
1, 153613, Note_on_c, 0, 41, 39
1, 153613, Note_on_c, 0, 56, 39
1, 153617, Note_on_c, 0, 55, 36
1, 153617, Note_on_c, 0, 60, 43
1, 153629, Note_on_c, 0, 48, 38
1, 153645, Note_on_c, 0, 51, 13
1, 153705, Control_c, 0, 64, 127
1, 153797, Note_on_c, 0, 55, 0
1, 153809, Note_on_c, 0, 41, 0
1, 153825, Note_on_c, 0, 60, 0
1, 153849, Note_on_c, 0, 48, 0
1, 153861, Note_on_c, 0, 56, 0
1, 153889, Note_on_c, 0, 51, 0
1, 154497, Note_on_c, 0, 56, 34
1, 154517, Note_on_c, 0, 53, 27
1, 154637, Note_on_c, 0, 56, 0
1, 154673, Note_on_c, 0, 53, 0
1, 154705, Note_on_c, 0, 60, 70
1, 154821, Note_on_c, 0, 60, 0
1, 154881, Note_on_c, 0, 63, 76
1, 154965, Note_on_c, 0, 63, 0
1, 155061, Note_on_c, 0, 72, 117
1, 155253, Note_on_c, 0, 72, 0
1, 155313, Note_on_c, 0, 62, 58
1, 155317, Note_on_c, 0, 70, 65
1, 155329, Note_on_c, 0, 46, 53
1, 155333, Note_on_c, 0, 66, 71
1, 155337, Note_on_c, 0, 56, 39
1, 155341, Control_c, 0, 64, 0
1, 155461, Note_on_c, 0, 66, 0
1, 155477, Note_on_c, 0, 67, 46
1, 155669, Control_c, 0, 64, 127
1, 155709, Note_on_c, 0, 67, 0
1, 155793, Note_on_c, 0, 66, 48
1, 155929, Note_on_c, 0, 56, 0
1, 156021, Note_on_c, 0, 66, 0
1, 156105, Note_on_c, 0, 62, 0
1, 156165, Note_on_c, 0, 65, 48
1, 156177, Note_on_c, 0, 62, 27
1, 156185, Note_on_c, 0, 56, 39
1, 156317, Note_on_c, 0, 56, 0
1, 156349, Note_on_c, 0, 46, 0
1, 156389, Note_on_c, 0, 70, 0
1, 156409, Note_on_c, 0, 65, 0
1, 156429, Note_on_c, 0, 62, 0
1, 156925, Control_c, 0, 64, 0
1, 156949, Note_on_c, 0, 62, 49
1, 156953, Note_on_c, 0, 67, 35
1, 156957, Note_on_c, 0, 55, 42
1, 156969, Note_on_c, 0, 39, 37
1, 156973, Note_on_c, 0, 46, 35
1, 157105, Control_c, 0, 64, 127
1, 157289, Note_on_c, 0, 39, 0
1, 157329, Note_on_c, 0, 55, 0
1, 157465, Note_on_c, 0, 62, 0
1, 157701, Note_on_c, 0, 67, 0
1, 157801, Note_on_c, 0, 55, 41
1, 157921, Note_on_c, 0, 55, 0
1, 157941, Note_on_c, 0, 46, 0
1, 157961, Note_on_c, 0, 60, 41
1, 157989, Note_on_c, 0, 60, 0
1, 158013, Note_on_c, 0, 62, 43
1, 158041, Note_on_c, 0, 62, 0
1, 158049, Control_c, 0, 64, 0
1, 158073, Note_on_c, 0, 64, 45
1, 158105, Note_on_c, 0, 64, 0
1, 158133, Note_on_c, 0, 65, 43
1, 158165, Note_on_c, 0, 65, 0
1, 158201, Note_on_c, 0, 67, 42
1, 158233, Note_on_c, 0, 67, 0
1, 158269, Note_on_c, 0, 69, 45
1, 158301, Note_on_c, 0, 69, 0
1, 158333, Note_on_c, 0, 71, 45
1, 158369, Note_on_c, 0, 71, 0
1, 158397, Note_on_c, 0, 72, 42
1, 158441, Note_on_c, 0, 72, 0
1, 158473, Note_on_c, 0, 74, 43
1, 158505, Note_on_c, 0, 74, 0
1, 158517, Control_c, 0, 64, 127
1, 158553, Note_on_c, 0, 76, 39
1, 158585, Note_on_c, 0, 76, 0
1, 158617, Note_on_c, 0, 77, 43
1, 158641, Note_on_c, 0, 77, 0
1, 158821, Note_on_c, 0, 83, 36
1, 158857, Note_on_c, 0, 83, 0
1, 158877, Note_on_c, 0, 84, 43
1, 158905, Note_on_c, 0, 84, 0
1, 158965, Note_on_c, 0, 86, 38
1, 158997, Note_on_c, 0, 86, 0
1, 159029, Note_on_c, 0, 88, 40
1, 159065, Note_on_c, 0, 88, 0
1, 159081, Note_on_c, 0, 89, 48
1, 159109, Note_on_c, 0, 89, 0
1, 159149, Note_on_c, 0, 91, 29
1, 159181, Control_c, 0, 64, 0
1, 159185, Note_on_c, 0, 63, 60
1, 159185, Note_on_c, 0, 59, 56
1, 159197, Note_on_c, 0, 53, 56
1, 159409, Note_on_c, 0, 91, 0
1, 159461, Control_c, 0, 64, 127
1, 159537, Note_on_c, 0, 92, 85
1, 159777, Note_on_c, 0, 94, 87
1, 159801, Note_on_c, 0, 53, 0
1, 159833, Note_on_c, 0, 59, 0
1, 159837, Note_on_c, 0, 92, 0
1, 159845, Note_on_c, 0, 63, 0
1, 159937, Note_on_c, 0, 94, 0
1, 159981, Note_on_c, 0, 95, 102
1, 160137, Note_on_c, 0, 95, 0
1, 160181, Note_on_c, 0, 98, 98
1, 160345, Note_on_c, 0, 98, 0
1, 160381, Control_c, 0, 64, 0
1, 160409, Note_on_c, 0, 48, 43
1, 160409, Note_on_c, 0, 96, 80
1, 160421, Note_on_c, 0, 55, 42
1, 160497, Control_c, 0, 64, 127
1, 160533, Note_on_c, 0, 96, 0
1, 160673, Note_on_c, 0, 48, 0
1, 160697, Note_on_c, 0, 55, 0
1, 160929, Note_on_c, 0, 72, 84
1, 160933, Note_on_c, 0, 65, 92
1, 160933, Note_on_c, 0, 69, 85
1, 160953, Note_on_c, 0, 62, 76
1, 160953, Note_on_c, 0, 58, 61
1, 160953, Note_on_c, 0, 60, 70
1, 160969, Note_on_c, 0, 71, 49
1, 161153, Note_on_c, 0, 71, 0
1, 161177, Note_on_c, 0, 72, 0
1, 161209, Note_on_c, 0, 62, 0
1, 161213, Note_on_c, 0, 65, 0
1, 161241, Note_on_c, 0, 69, 0
1, 161265, Note_on_c, 0, 72, 78
1, 161281, Note_on_c, 0, 69, 44
1, 161285, Note_on_c, 0, 62, 57
1, 161317, Note_on_c, 0, 71, 38
1, 161405, Note_on_c, 0, 72, 0
1, 161429, Note_on_c, 0, 71, 0
1, 161453, Note_on_c, 0, 69, 0
1, 161481, Note_on_c, 0, 62, 0
1, 161529, Note_on_c, 0, 60, 0
1, 161537, Note_on_c, 0, 73, 72
1, 161589, Note_on_c, 0, 74, 36
1, 161605, Note_on_c, 0, 58, 0
1, 161621, Note_on_c, 0, 74, 0
1, 161633, Note_on_c, 0, 73, 0
1, 161785, Note_on_c, 0, 72, 68
1, 161885, Note_on_c, 0, 72, 0
1, 162077, Note_on_c, 0, 73, 54
1, 162081, Control_c, 0, 64, 0
1, 162085, Note_on_c, 0, 70, 61
1, 162089, Note_on_c, 0, 48, 41
1, 162089, Note_on_c, 0, 64, 45
1, 162105, Note_on_c, 0, 58, 31
1, 162229, Control_c, 0, 64, 127
1, 162285, Note_on_c, 0, 73, 0
1, 162333, Note_on_c, 0, 48, 0
1, 162341, Note_on_c, 0, 70, 0
1, 162349, Note_on_c, 0, 64, 0
1, 162357, Note_on_c, 0, 72, 58
1, 162409, Note_on_c, 0, 64, 13
1, 162421, Note_on_c, 0, 58, 0
1, 162521, Note_on_c, 0, 72, 0
1, 162565, Note_on_c, 0, 64, 0
1, 162933, Note_on_c, 0, 58, 47
1, 162937, Note_on_c, 0, 61, 49
1, 162949, Control_c, 0, 64, 0
1, 162957, Note_on_c, 0, 64, 45
1, 162965, Note_on_c, 0, 42, 31
1, 162969, Note_on_c, 0, 52, 30
1, 163061, Control_c, 0, 64, 127
1, 163233, Note_on_c, 0, 64, 0
1, 163257, Note_on_c, 0, 52, 0
1, 163389, Note_on_c, 0, 61, 0
1, 163409, Note_on_c, 0, 42, 0
1, 163417, Note_on_c, 0, 58, 0
1, 163817, Note_on_c, 0, 63, 41
1, 163829, Note_on_c, 0, 58, 45
1, 163833, Control_c, 0, 64, 0
1, 163837, Note_on_c, 0, 55, 38
1, 163841, Note_on_c, 0, 53, 39
1, 163985, Control_c, 0, 64, 127
1, 164081, Note_on_c, 0, 55, 0
1, 164181, Note_on_c, 0, 63, 0
1, 164193, Note_on_c, 0, 58, 0
1, 164317, Note_on_c, 0, 53, 0
1, 164357, Note_on_c, 0, 41, 63
1, 164385, Note_on_c, 0, 41, 0
1, 164661, Note_on_c, 0, 63, 89
1, 164665, Note_on_c, 0, 58, 98
1, 164665, Note_on_c, 0, 67, 86
1, 164669, Note_on_c, 0, 53, 70
1, 164829, Note_on_c, 0, 67, 0
1, 164893, Note_on_c, 0, 58, 0
1, 164933, Note_on_c, 0, 67, 82
1, 164937, Note_on_c, 0, 58, 68
1, 165073, Note_on_c, 0, 67, 0
1, 165089, Note_on_c, 0, 53, 0
1, 165121, Note_on_c, 0, 65, 71
1, 165181, Note_on_c, 0, 63, 0
1, 165249, Note_on_c, 0, 58, 0
1, 165261, Note_on_c, 0, 65, 0
1, 165273, Note_on_c, 0, 63, 46
1, 165445, Note_on_c, 0, 63, 0
1, 165481, Note_on_c, 0, 65, 59
1, 165489, Note_on_c, 0, 61, 59
1, 165489, Note_on_c, 0, 57, 57
1, 165505, Note_on_c, 0, 41, 49
1, 165513, Note_on_c, 0, 51, 39
1, 165513, Control_c, 0, 64, 0
1, 165573, Note_on_c, 0, 61, 0
1, 165593, Note_on_c, 0, 62, 49
1, 165769, Note_on_c, 0, 62, 0
1, 165789, Control_c, 0, 64, 127
1, 165981, Note_on_c, 0, 61, 56
1, 166185, Note_on_c, 0, 51, 0
1, 166249, Note_on_c, 0, 57, 0
1, 166265, Note_on_c, 0, 61, 0
1, 166325, Note_on_c, 0, 60, 57
1, 166337, Note_on_c, 0, 57, 35
1, 166337, Note_on_c, 0, 51, 43
1, 166513, Note_on_c, 0, 41, 0
1, 166629, Note_on_c, 0, 51, 0
1, 166665, Note_on_c, 0, 57, 0
1, 166789, Note_on_c, 0, 60, 0
1, 166861, Note_on_c, 0, 41, 45
1, 167009, Note_on_c, 0, 41, 0
1, 167133, Note_on_c, 0, 65, 0
1, 167165, Note_on_c, 0, 47, 60
1, 167177, Control_c, 0, 64, 0
1, 167393, Control_c, 0, 64, 127
1, 167461, Note_on_c, 0, 47, 0
1, 167569, Control_c, 0, 64, 0
1, 167693, Note_on_c, 0, 57, 51
1, 167693, Note_on_c, 0, 66, 43
1, 167697, Note_on_c, 0, 61, 46
1, 167701, Note_on_c, 0, 63, 41
1, 167749, Note_on_c, 0, 57, 0
1, 167757, Note_on_c, 0, 63, 0
1, 167761, Note_on_c, 0, 66, 0
1, 167777, Note_on_c, 0, 61, 0
1, 168037, Note_on_c, 0, 65, 51
1, 168037, Note_on_c, 0, 61, 43
1, 168037, Note_on_c, 0, 57, 42
1, 168037, Note_on_c, 0, 47, 43
1, 168105, Note_on_c, 0, 47, 0
1, 168125, Note_on_c, 0, 57, 0
1, 168157, Note_on_c, 0, 65, 0
1, 168165, Note_on_c, 0, 61, 0
1, 168533, Note_on_c, 0, 63, 51
1, 168537, Control_c, 0, 64, 127
1, 168541, Note_on_c, 0, 35, 29
1, 168541, Note_on_c, 0, 61, 46
1, 168549, Note_on_c, 0, 57, 34
1, 168589, Note_on_c, 0, 57, 0
1, 168597, Note_on_c, 0, 35, 0
1, 168637, Note_on_c, 0, 61, 0
1, 168749, Note_on_c, 0, 63, 0
1, 168781, Control_c, 0, 64, 0
1, 168845, Note_on_c, 0, 56, 42
1, 168845, Note_on_c, 0, 63, 24
1, 168853, Note_on_c, 0, 34, 39
1, 168857, Note_on_c, 0, 65, 42
1, 168861, Note_on_c, 0, 46, 35
1, 168873, Note_on_c, 0, 60, 48
1, 168901, Control_c, 0, 64, 127
1, 169205, Note_on_c, 0, 63, 0
1, 169229, Note_on_c, 0, 60, 0
1, 169237, Note_on_c, 0, 46, 0
1, 169261, Note_on_c, 0, 56, 0
1, 169349, Note_on_c, 0, 65, 0
1, 169377, Note_on_c, 0, 56, 39
1, 169381, Note_on_c, 0, 63, 46
1, 169405, Note_on_c, 0, 60, 39
1, 169713, Note_on_c, 0, 46, 39
1, 169865, Note_on_c, 0, 34, 0
1, 169949, Note_on_c, 0, 46, 0
1, 170229, Note_on_c, 0, 60, 0
1, 170265, Note_on_c, 0, 56, 0
1, 170281, Note_on_c, 0, 46, 61
1, 170317, Note_on_c, 0, 63, 0
1, 170573, Note_on_c, 0, 46, 0
1, 170585, Control_c, 0, 64, 0
1, 170589, Note_on_c, 0, 39, 62
1, 170729, Control_c, 0, 64, 127
1, 170837, Note_on_c, 0, 39, 0
1, 171097, Note_on_c, 0, 46, 57
1, 171433, Note_on_c, 0, 55, 50
1, 171645, Note_on_c, 0, 60, 56
1, 171721, Note_on_c, 0, 60, 0
1, 171765, Note_on_c, 0, 46, 0
1, 171789, Note_on_c, 0, 55, 0
1, 171837, Note_on_c, 0, 65, 83
1, 171969, Note_on_c, 0, 65, 0
1, 172013, Note_on_c, 0, 70, 94
1, 172209, Note_on_c, 0, 67, 80
1, 172209, Note_on_c, 0, 59, 49
1, 172209, Note_on_c, 0, 63, 50
1, 172209, Note_on_c, 0, 53, 51
1, 172221, Note_on_c, 0, 70, 0
1, 172241, Control_c, 0, 64, 0
1, 172401, Note_on_c, 0, 68, 83
1, 172417, Control_c, 0, 64, 127
1, 172433, Note_on_c, 0, 67, 0
1, 172505, Note_on_c, 0, 63, 0
1, 172521, Note_on_c, 0, 59, 0
1, 172525, Note_on_c, 0, 53, 0
1, 172577, Note_on_c, 0, 70, 84
1, 172617, Note_on_c, 0, 68, 0
1, 172725, Note_on_c, 0, 70, 0
1, 172761, Note_on_c, 0, 71, 78
1, 172933, Note_on_c, 0, 71, 0
1, 172973, Note_on_c, 0, 75, 82
1, 172989, Note_on_c, 0, 53, 53
1, 172993, Note_on_c, 0, 43, 52
1, 172997, Control_c, 0, 64, 0
1, 173065, Control_c, 0, 64, 127
1, 173133, Note_on_c, 0, 75, 0
1, 173165, Note_on_c, 0, 79, 79
1, 173181, Note_on_c, 0, 43, 0
1, 173249, Note_on_c, 0, 53, 0
1, 173289, Note_on_c, 0, 79, 0
1, 173365, Note_on_c, 0, 82, 86
1, 173481, Note_on_c, 0, 82, 0
1, 173557, Note_on_c, 0, 86, 111
1, 173697, Note_on_c, 0, 86, 0
1, 173793, Note_on_c, 0, 86, 96
1, 173793, Control_c, 0, 64, 0
1, 173801, Note_on_c, 0, 75, 72
1, 173809, Note_on_c, 0, 48, 57
1, 173821, Note_on_c, 0, 79, 45
1, 173845, Note_on_c, 0, 82, 27
1, 173857, Note_on_c, 0, 79, 0
1, 173893, Note_on_c, 0, 82, 0
1, 173909, Control_c, 0, 64, 127
1, 173981, Note_on_c, 0, 86, 0
1, 174041, Note_on_c, 0, 75, 0
1, 174121, Note_on_c, 0, 55, 61
1, 174405, Note_on_c, 0, 74, 81
1, 174405, Note_on_c, 0, 63, 78
1, 174413, Note_on_c, 0, 67, 71
1, 174425, Note_on_c, 0, 62, 61
1, 174449, Note_on_c, 0, 70, 33
1, 174493, Note_on_c, 0, 70, 0
1, 174557, Note_on_c, 0, 74, 0
1, 174645, Note_on_c, 0, 63, 0
1, 174661, Note_on_c, 0, 67, 0
1, 174685, Note_on_c, 0, 74, 78
1, 174693, Note_on_c, 0, 63, 37
1, 174697, Note_on_c, 0, 67, 38
1, 174733, Note_on_c, 0, 55, 0
1, 174937, Note_on_c, 0, 62, 0
1, 174961, Note_on_c, 0, 56, 92
1, 175025, Control_c, 0, 64, 0
1, 175205, Control_c, 0, 64, 127
1, 175233, Note_on_c, 0, 63, 0
1, 175241, Note_on_c, 0, 67, 0
1, 175605, Note_on_c, 0, 63, 49
1, 175605, Note_on_c, 0, 68, 56
1, 175625, Note_on_c, 0, 62, 39
1, 176077, Note_on_c, 0, 74, 0
1, 176173, Note_on_c, 0, 62, 0
1, 176173, Note_on_c, 0, 72, 66
1, 176189, Note_on_c, 0, 48, 0
1, 176413, Note_on_c, 0, 68, 0
1, 176449, Note_on_c, 0, 63, 0
1, 176493, Note_on_c, 0, 67, 60
1, 177009, Note_on_c, 0, 48, 41
1, 177017, Note_on_c, 0, 63, 73
1, 177025, Note_on_c, 0, 56, 0
1, 177033, Note_on_c, 0, 57, 74
1, 177065, Note_on_c, 0, 67, 0
1, 177081, Control_c, 0, 64, 0
1, 177249, Control_c, 0, 64, 127
1, 177325, Note_on_c, 0, 72, 0
1, 177337, Note_on_c, 0, 63, 0
1, 177397, Note_on_c, 0, 62, 50
1, 177857, Note_on_c, 0, 62, 0
1, 177917, Note_on_c, 0, 60, 48
1, 178129, Note_on_c, 0, 57, 0
1, 178389, Note_on_c, 0, 48, 0
1, 178625, Note_on_c, 0, 60, 0
1, 178785, Note_on_c, 0, 58, 58
1, 178817, Note_on_c, 0, 55, 34
1, 178857, Note_on_c, 0, 55, 0
1, 179089, Note_on_c, 0, 48, 38
1, 179105, Control_c, 0, 64, 0
1, 179293, Control_c, 0, 64, 127
1, 179505, Note_on_c, 0, 48, 0
1, 179553, Note_on_c, 0, 58, 0
1, 179629, Note_on_c, 0, 36, 39
1, 179697, Note_on_c, 0, 36, 0
1, 179957, Control_c, 0, 64, 0
1, 179985, Note_on_c, 0, 52, 39
1, 179989, Note_on_c, 0, 56, 44
1, 179989, Note_on_c, 0, 30, 39
1, 179993, Note_on_c, 0, 42, 29
1, 179993, Note_on_c, 0, 63, 38
1, 180005, Note_on_c, 0, 60, 40
1, 180101, Control_c, 0, 64, 127
1, 180221, Note_on_c, 0, 52, 0
1, 180225, Note_on_c, 0, 60, 0
1, 180289, Note_on_c, 0, 42, 0
1, 180297, Note_on_c, 0, 30, 0
1, 180345, Note_on_c, 0, 56, 0
1, 180349, Note_on_c, 0, 63, 0
1, 180905, Control_c, 0, 64, 0
1, 180917, Note_on_c, 0, 56, 39
1, 180925, Note_on_c, 0, 55, 31
1, 180929, Note_on_c, 0, 41, 34
1, 180933, Note_on_c, 0, 60, 44
1, 180933, Note_on_c, 0, 29, 35
1, 181041, Control_c, 0, 64, 127
1, 181089, Note_on_c, 0, 55, 0
1, 181117, Note_on_c, 0, 60, 0
1, 181133, Note_on_c, 0, 29, 0
1, 181141, Note_on_c, 0, 56, 0
1, 181169, Note_on_c, 0, 41, 0
1, 181769, Note_on_c, 0, 63, 36
1, 181789, Note_on_c, 0, 56, 41
1, 181797, Note_on_c, 0, 60, 39
1, 181833, Note_on_c, 0, 53, 21
1, 181989, Note_on_c, 0, 72, 78
1, 182073, Note_on_c, 0, 53, 0
1, 182093, Note_on_c, 0, 72, 0
1, 182113, Note_on_c, 0, 60, 0
1, 182153, Note_on_c, 0, 56, 0
1, 182161, Note_on_c, 0, 75, 85
1, 182177, Note_on_c, 0, 63, 0
1, 182245, Note_on_c, 0, 75, 0
1, 182345, Note_on_c, 0, 84, 120
1, 182553, Note_on_c, 0, 84, 0
1, 182593, Note_on_c, 0, 67, 45
1, 182593, Control_c, 0, 64, 0
1, 182597, Note_on_c, 0, 56, 44
1, 182601, Note_on_c, 0, 62, 50
1, 182605, Note_on_c, 0, 82, 69
1, 182609, Note_on_c, 0, 74, 61
1, 182729, Control_c, 0, 64, 127
1, 182777, Note_on_c, 0, 67, 0
1, 182793, Note_on_c, 0, 62, 0
1, 182805, Note_on_c, 0, 82, 0
1, 182825, Note_on_c, 0, 74, 0
1, 182837, Note_on_c, 0, 56, 0
1, 183077, Note_on_c, 0, 46, 67
1, 183461, Control_c, 0, 64, 72
1, 183461, Control_c, 0, 64, 0
1, 183469, Note_on_c, 0, 71, 73
1, 183469, Note_on_c, 0, 66, 63
1, 183473, Note_on_c, 0, 62, 68
1, 183481, Note_on_c, 0, 56, 49
1, 183621, Note_on_c, 0, 66, 0
1, 183633, Note_on_c, 0, 67, 49
1, 183709, Note_on_c, 0, 62, 0
1, 183745, Note_on_c, 0, 56, 0
1, 183745, Note_on_c, 0, 67, 0
1, 183753, Note_on_c, 0, 71, 0
1, 183889, Note_on_c, 0, 66, 59
1, 183893, Note_on_c, 0, 71, 64
1, 183901, Note_on_c, 0, 62, 54
1, 183917, Note_on_c, 0, 56, 50
1, 183949, Control_c, 0, 64, 127
1, 184049, Note_on_c, 0, 66, 0
1, 184053, Note_on_c, 0, 67, 57
1, 184117, Note_on_c, 0, 62, 0
1, 184125, Note_on_c, 0, 67, 0
1, 184133, Note_on_c, 0, 71, 0
1, 184217, Note_on_c, 0, 56, 0
1, 184265, Control_c, 0, 64, 0
1, 184297, Note_on_c, 0, 65, 63
1, 184297, Note_on_c, 0, 70, 63
1, 184297, Note_on_c, 0, 60, 61
1, 184305, Note_on_c, 0, 55, 54
1, 184473, Control_c, 0, 64, 127
1, 184613, Note_on_c, 0, 60, 0
1, 184613, Note_on_c, 0, 70, 0
1, 184621, Note_on_c, 0, 65, 0
1, 184705, Note_on_c, 0, 55, 0
1, 184717, Note_on_c, 0, 54, 49
1, 184733, Note_on_c, 0, 69, 52
1, 184733, Note_on_c, 0, 64, 55
1, 184749, Note_on_c, 0, 59, 24
1, 184833, Note_on_c, 0, 69, 0
1, 184873, Note_on_c, 0, 59, 0
1, 184949, Note_on_c, 0, 64, 0
1, 185065, Control_c, 0, 64, 0
1, 185137, Note_on_c, 0, 70, 55
1, 185153, Note_on_c, 0, 54, 0
1, 185153, Note_on_c, 0, 65, 57
1, 185153, Note_on_c, 0, 55, 49
1, 185173, Note_on_c, 0, 60, 37
1, 185185, Control_c, 0, 64, 127
1, 185229, Note_on_c, 0, 60, 0
1, 185277, Note_on_c, 0, 65, 0
1, 185297, Note_on_c, 0, 70, 0
1, 185421, Note_on_c, 0, 46, 0
1, 185465, Note_on_c, 0, 79, 117
1, 185477, Note_on_c, 0, 55, 0
1, 185649, Note_on_c, 0, 79, 0
1, 185757, Note_on_c, 0, 79, 99
1, 185913, Note_on_c, 0, 79, 0
1, 185985, Note_on_c, 0, 79, 80
1, 185997, Control_c, 0, 64, 0
1, 186021, Note_on_c, 0, 56, 40
1, 186021, Note_on_c, 0, 72, 60
1, 186025, Note_on_c, 0, 60, 43
1, 186037, Note_on_c, 0, 50, 39
1, 186041, Note_on_c, 0, 68, 54
1, 186137, Control_c, 0, 64, 127
1, 186293, Note_on_c, 0, 79, 0
1, 186317, Note_on_c, 0, 68, 0
1, 186345, Note_on_c, 0, 72, 0
1, 186361, Note_on_c, 0, 79, 68
1, 186413, Note_on_c, 0, 50, 0
1, 186421, Note_on_c, 0, 56, 0
1, 186501, Note_on_c, 0, 60, 0
1, 186561, Note_on_c, 0, 79, 0
1, 186605, Note_on_c, 0, 77, 69
1, 186705, Note_on_c, 0, 77, 0
1, 186833, Control_c, 0, 64, 0
1, 186841, Note_on_c, 0, 59, 43
1, 186841, Note_on_c, 0, 63, 43
1, 186841, Note_on_c, 0, 82, 68
1, 186841, Note_on_c, 0, 71, 61
1, 186841, Note_on_c, 0, 75, 60
1, 186857, Note_on_c, 0, 53, 41
1, 186993, Control_c, 0, 64, 127
1, 187037, Note_on_c, 0, 82, 0
1, 187149, Note_on_c, 0, 71, 0
1, 187169, Note_on_c, 0, 53, 0
1, 187173, Note_on_c, 0, 82, 65
1, 187205, Note_on_c, 0, 71, 25
1, 187225, Note_on_c, 0, 59, 0
1, 187241, Note_on_c, 0, 63, 0
1, 187333, Note_on_c, 0, 71, 0
1, 187369, Note_on_c, 0, 82, 0
1, 187381, Note_on_c, 0, 75, 0
1, 187425, Note_on_c, 0, 80, 58
1, 187453, Note_on_c, 0, 80, 0
1, 187697, Note_on_c, 0, 72, 50
1, 187709, Note_on_c, 0, 69, 37
1, 187709, Note_on_c, 0, 58, 32
1, 187709, Note_on_c, 0, 60, 48
1, 187713, Note_on_c, 0, 62, 39
1, 187717, Note_on_c, 0, 65, 29
1, 187725, Control_c, 0, 64, 0
1, 187861, Control_c, 0, 64, 127
1, 188121, Note_on_c, 0, 72, 0
1, 188213, Note_on_c, 0, 62, 0
1, 188221, Note_on_c, 0, 60, 0
1, 188229, Note_on_c, 0, 58, 0
1, 188237, Note_on_c, 0, 73, 58
1, 188409, Note_on_c, 0, 73, 0
1, 188445, Note_on_c, 0, 65, 0
1, 188469, Note_on_c, 0, 69, 0
1, 188533, Note_on_c, 0, 58, 48
1, 188537, Note_on_c, 0, 62, 37
1, 188545, Note_on_c, 0, 65, 39
1, 188549, Note_on_c, 0, 72, 57
1, 188561, Note_on_c, 0, 69, 34
1, 188577, Note_on_c, 0, 62, 0
1, 188593, Note_on_c, 0, 58, 0
1, 188861, Note_on_c, 0, 72, 0
1, 188881, Note_on_c, 0, 69, 0
1, 188905, Note_on_c, 0, 65, 0
1, 189053, Note_on_c, 0, 73, 55
1, 189261, Note_on_c, 0, 73, 0
1, 189349, Control_c, 0, 64, 0
1, 189353, Note_on_c, 0, 36, 47
1, 189377, Note_on_c, 0, 52, 35
1, 189461, Control_c, 0, 64, 127
1, 189569, Note_on_c, 0, 36, 0
1, 189629, Note_on_c, 0, 96, 85
1, 189645, Note_on_c, 0, 52, 0
1, 189725, Note_on_c, 0, 96, 0
1, 189781, Note_on_c, 0, 94, 79
1, 189889, Note_on_c, 0, 90, 68
1, 189921, Note_on_c, 0, 94, 0
1, 189985, Note_on_c, 0, 90, 0
1, 189997, Note_on_c, 0, 88, 69
1, 190053, Note_on_c, 0, 88, 0
1, 190113, Note_on_c, 0, 85, 72
1, 190185, Note_on_c, 0, 58, 42
1, 190189, Note_on_c, 0, 85, 0
1, 190193, Note_on_c, 0, 62, 38
1, 190205, Control_c, 0, 64, 0
1, 190209, Note_on_c, 0, 52, 41
1, 190213, Note_on_c, 0, 84, 60
1, 190269, Note_on_c, 0, 84, 0
1, 190341, Note_on_c, 0, 82, 64
1, 190353, Control_c, 0, 64, 127
1, 190445, Note_on_c, 0, 82, 0
1, 190553, Note_on_c, 0, 76, 54
1, 190609, Note_on_c, 0, 76, 0
1, 190665, Note_on_c, 0, 75, 47
1, 190705, Note_on_c, 0, 52, 0
1, 190725, Note_on_c, 0, 58, 0
1, 190737, Note_on_c, 0, 75, 0
1, 190753, Note_on_c, 0, 62, 0
1, 190757, Note_on_c, 0, 74, 54
1, 190785, Note_on_c, 0, 74, 0
1, 190841, Note_on_c, 0, 73, 45
1, 190881, Note_on_c, 0, 73, 0
1, 190905, Note_on_c, 0, 72, 53
1, 190937, Note_on_c, 0, 72, 0
1, 190973, Note_on_c, 0, 71, 48
1, 191009, Note_on_c, 0, 71, 0
1, 191029, Note_on_c, 0, 58, 46
1, 191037, Note_on_c, 0, 63, 35
1, 191045, Control_c, 0, 64, 0
1, 191045, Note_on_c, 0, 70, 32
1, 191069, Note_on_c, 0, 53, 30
1, 191081, Note_on_c, 0, 70, 0
1, 191109, Note_on_c, 0, 69, 50
1, 191209, Note_on_c, 0, 68, 38
1, 191233, Note_on_c, 0, 69, 0
1, 191285, Note_on_c, 0, 68, 0
1, 191297, Note_on_c, 0, 67, 59
1, 191325, Control_c, 0, 64, 127
1, 191509, Note_on_c, 0, 63, 0
1, 191545, Note_on_c, 0, 58, 0
1, 191833, Note_on_c, 0, 67, 0
1, 191853, Note_on_c, 0, 63, 42
1, 191865, Note_on_c, 0, 58, 38
1, 191881, Note_on_c, 0, 60, 48
1, 191909, Note_on_c, 0, 60, 0
1, 191929, Note_on_c, 0, 63, 0
1, 191973, Note_on_c, 0, 58, 0
1, 191993, Note_on_c, 0, 53, 0
1, 192225, Note_on_c, 0, 67, 58
1, 192229, Note_on_c, 0, 58, 53
1, 192237, Note_on_c, 0, 63, 57
1, 192429, Note_on_c, 0, 67, 0
1, 192453, Note_on_c, 0, 63, 0
1, 192481, Note_on_c, 0, 65, 62
1, 192565, Note_on_c, 0, 58, 0
1, 192569, Note_on_c, 0, 65, 0
1, 192593, Note_on_c, 0, 63, 68
1, 192693, Note_on_c, 0, 63, 0
1, 192765, Note_on_c, 0, 65, 60
1, 192769, Note_on_c, 0, 57, 56
1, 192773, Note_on_c, 0, 51, 34
1, 192777, Note_on_c, 0, 41, 43
1, 192785, Note_on_c, 0, 62, 49
1, 192785, Control_c, 0, 64, 0
1, 192981, Control_c, 0, 64, 127
1, 193117, Note_on_c, 0, 67, 71
1, 193317, Note_on_c, 0, 62, 0
1, 193329, Note_on_c, 0, 51, 0
1, 193341, Note_on_c, 0, 57, 0
1, 193613, Note_on_c, 0, 61, 57
1, 193621, Note_on_c, 0, 57, 49
1, 193625, Note_on_c, 0, 65, 0
1, 193669, Control_c, 0, 64, 0
1, 193685, Note_on_c, 0, 41, 0
1, 193709, Note_on_c, 0, 61, 0
1, 193717, Note_on_c, 0, 62, 54
1, 193949, Note_on_c, 0, 49, 84
1, 194069, Note_on_c, 0, 49, 0
1, 194209, Note_on_c, 0, 48, 77
1, 194225, Note_on_c, 0, 62, 0
1, 194257, Note_on_c, 0, 57, 0
1, 194269, Note_on_c, 0, 67, 0
1, 194301, Control_c, 0, 64, 127
1, 194425, Note_on_c, 0, 48, 0
1, 194473, Control_c, 0, 64, 0
1, 194477, Note_on_c, 0, 47, 70
1, 194661, Control_c, 0, 64, 127
1, 194897, Note_on_c, 0, 46, 43
1, 194937, Note_on_c, 0, 46, 0
1, 195025, Note_on_c, 0, 66, 58
1, 195033, Note_on_c, 0, 57, 56
1, 195045, Note_on_c, 0, 61, 50
1, 195057, Note_on_c, 0, 63, 45
1, 195109, Note_on_c, 0, 57, 0
1, 195149, Note_on_c, 0, 66, 0
1, 195169, Note_on_c, 0, 63, 0
1, 195173, Note_on_c, 0, 61, 0
1, 195645, Note_on_c, 0, 65, 63
1, 195669, Note_on_c, 0, 61, 54
1, 195669, Note_on_c, 0, 57, 60
1, 195729, Note_on_c, 0, 57, 0
1, 195761, Note_on_c, 0, 65, 0
1, 195765, Note_on_c, 0, 47, 0
1, 195813, Note_on_c, 0, 61, 0
1, 195873, Note_on_c, 0, 63, 58
1, 196053, Note_on_c, 0, 63, 0
1, 196145, Note_on_c, 0, 56, 54
1, 196149, Control_c, 0, 64, 0
1, 196149, Note_on_c, 0, 46, 42
1, 196161, Note_on_c, 0, 65, 46
1, 196165, Note_on_c, 0, 63, 43
1, 196165, Note_on_c, 0, 60, 54
1, 196181, Note_on_c, 0, 53, 36
1, 196301, Note_on_c, 0, 63, 0
1, 196353, Control_c, 0, 64, 127
1, 196625, Note_on_c, 0, 65, 0
1, 196721, Note_on_c, 0, 63, 54
1, 196745, Note_on_c, 0, 53, 0
1, 196777, Note_on_c, 0, 60, 0
1, 196837, Note_on_c, 0, 56, 0
1, 197049, Note_on_c, 0, 56, 45
1, 197053, Note_on_c, 0, 60, 54
1, 197065, Note_on_c, 0, 53, 32
1, 197069, Note_on_c, 0, 63, 0
1, 197181, Note_on_c, 0, 53, 0
1, 197217, Note_on_c, 0, 60, 0
1, 197305, Note_on_c, 0, 46, 0
1, 197325, Note_on_c, 0, 60, 46
1, 197505, Note_on_c, 0, 56, 0
1, 197577, Note_on_c, 0, 60, 0
1, 197605, Note_on_c, 0, 62, 56
1, 197729, Note_on_c, 0, 62, 0
1, 197921, Control_c, 0, 64, 0
1, 197929, Note_on_c, 0, 63, 43
1, 197941, Note_on_c, 0, 55, 38
1, 197941, Note_on_c, 0, 58, 43
1, 197973, Note_on_c, 0, 39, 36
1, 198093, Control_c, 0, 64, 127
1, 198125, Note_on_c, 0, 55, 0
1, 198217, Note_on_c, 0, 58, 0
1, 198225, Note_on_c, 0, 46, 56
1, 198237, Note_on_c, 0, 63, 0
1, 198249, Note_on_c, 0, 39, 0
1, 198513, Note_on_c, 0, 55, 81
1, 198773, Note_on_c, 0, 55, 0
1, 198793, Note_on_c, 0, 46, 0
1, 198805, Note_on_c, 0, 60, 75
1, 198961, Note_on_c, 0, 60, 0
1, 198993, Note_on_c, 0, 65, 73
1, 199157, Note_on_c, 0, 65, 0
1, 199193, Note_on_c, 0, 70, 72
1, 199313, Note_on_c, 0, 70, 0
1, 199373, Note_on_c, 0, 72, 73
1, 199453, Note_on_c, 0, 72, 0
1, 199589, Note_on_c, 0, 77, 90
1, 199601, Control_c, 0, 64, 0
1, 199617, Note_on_c, 0, 60, 48
1, 199621, Note_on_c, 0, 50, 44
1, 199829, Control_c, 0, 64, 127
1, 199873, Note_on_c, 0, 66, 63
1, 199909, Note_on_c, 0, 54, 47
1, 200177, Note_on_c, 0, 60, 0
1, 200293, Note_on_c, 0, 66, 0
1, 200493, Note_on_c, 0, 66, 43
1, 200501, Note_on_c, 0, 60, 36
1, 200509, Note_on_c, 0, 57, 26
1, 200513, Note_on_c, 0, 72, 39
1, 200693, Note_on_c, 0, 50, 0
1, 200749, Note_on_c, 0, 57, 0
1, 200777, Note_on_c, 0, 54, 0
1, 200857, Note_on_c, 0, 66, 0
1, 200881, Note_on_c, 0, 60, 0
1, 201005, Note_on_c, 0, 72, 0
1, 201033, Note_on_c, 0, 77, 0
1, 201453, Note_on_c, 0, 62, 39
1, 201457, Note_on_c, 0, 55, 29
1, 201673, Note_on_c, 0, 55, 0
1, 201697, Note_on_c, 0, 67, 44
1, 201909, Note_on_c, 0, 70, 60
1, 202053, Note_on_c, 0, 62, 0
1, 202101, Note_on_c, 0, 74, 70
1, 202269, Note_on_c, 0, 67, 0
1, 202293, Note_on_c, 0, 62, 65
1, 202297, Note_on_c, 0, 57, 54
1, 202333, Control_c, 0, 64, 0
1, 202353, Note_on_c, 0, 70, 0
1, 202405, Control_c, 0, 64, 127
1, 202445, Note_on_c, 0, 62, 0
1, 202501, Note_on_c, 0, 67, 55
1, 202517, Note_on_c, 0, 62, 12
1, 202537, Note_on_c, 0, 74, 0
1, 202677, Note_on_c, 0, 57, 0
1, 202685, Note_on_c, 0, 70, 81
1, 202689, Note_on_c, 0, 58, 73
1, 202845, Note_on_c, 0, 62, 0
1, 202889, Note_on_c, 0, 74, 78
1, 203037, Note_on_c, 0, 58, 0
1, 203073, Note_on_c, 0, 67, 0
1, 203093, Note_on_c, 0, 62, 57
1, 203097, Note_on_c, 0, 52, 41
1, 203097, Control_c, 0, 64, 0
1, 203213, Note_on_c, 0, 70, 0
1, 203241, Control_c, 0, 64, 127
1, 203313, Note_on_c, 0, 67, 46
1, 203345, Note_on_c, 0, 74, 0
1, 203493, Note_on_c, 0, 70, 55
1, 203665, Note_on_c, 0, 62, 0
1, 203709, Note_on_c, 0, 74, 58
1, 203885, Note_on_c, 0, 67, 0
1, 203897, Note_on_c, 0, 62, 63
1, 204021, Note_on_c, 0, 70, 0
1, 204081, Note_on_c, 0, 67, 64
1, 204101, Note_on_c, 0, 62, 0
1, 204137, Note_on_c, 0, 52, 0
1, 204177, Note_on_c, 0, 74, 0
1, 204261, Note_on_c, 0, 70, 78
1, 204265, Note_on_c, 0, 54, 63
1, 204281, Note_on_c, 0, 62, 22
1, 204421, Note_on_c, 0, 62, 0
1, 204465, Note_on_c, 0, 54, 0
1, 204465, Note_on_c, 0, 74, 80
1, 204525, Note_on_c, 0, 67, 0
1, 204537, Note_on_c, 0, 72, 25
1, 204581, Note_on_c, 0, 70, 0
1, 204593, Note_on_c, 0, 74, 0
1, 204597, Note_on_c, 0, 72, 0
1, 204925, Note_on_c, 0, 63, 66
1, 204949, Note_on_c, 0, 70, 1
1, 204997, Note_on_c, 0, 70, 0
1, 205109, Note_on_c, 0, 67, 66
1, 205305, Note_on_c, 0, 74, 86
1, 205333, Note_on_c, 0, 63, 0
1, 205497, Note_on_c, 0, 62, 75
1, 205509, Note_on_c, 0, 63, 81
1, 205573, Control_c, 0, 64, 0
1, 205649, Note_on_c, 0, 67, 0
1, 205681, Note_on_c, 0, 74, 0
1, 205701, Control_c, 0, 64, 127
1, 205725, Note_on_c, 0, 67, 63
1, 205933, Note_on_c, 0, 69, 54
1, 206117, Note_on_c, 0, 74, 63
1, 206121, Note_on_c, 0, 69, 0
1, 206153, Note_on_c, 0, 67, 0
1, 206221, Note_on_c, 0, 63, 0
1, 206225, Note_on_c, 0, 62, 0
1, 206269, Note_on_c, 0, 74, 0
1, 206337, Note_on_c, 0, 60, 48
1, 206341, Note_on_c, 0, 74, 63
1, 206341, Note_on_c, 0, 66, 54
1, 206341, Note_on_c, 0, 63, 46
1, 206345, Control_c, 0, 64, 0
1, 206349, Note_on_c, 0, 50, 43
1, 206465, Control_c, 0, 64, 127
1, 206525, Note_on_c, 0, 60, 0
1, 206573, Note_on_c, 0, 50, 0
1, 206745, Note_on_c, 0, 74, 0
1, 206805, Note_on_c, 0, 72, 58
1, 207037, Note_on_c, 0, 72, 0
1, 207197, Note_on_c, 0, 26, 49
1, 207209, Note_on_c, 0, 72, 47
1, 207273, Note_on_c, 0, 26, 0
1, 207605, Note_on_c, 0, 72, 0
1, 207689, Note_on_c, 0, 66, 0
1, 207745, Note_on_c, 0, 69, 38
1, 207749, Note_on_c, 0, 63, 0
1, 207897, Note_on_c, 0, 69, 0
1, 208077, Control_c, 0, 64, 0
1, 208081, Note_on_c, 0, 70, 42
1, 208097, Note_on_c, 0, 62, 26
1, 208101, Note_on_c, 0, 43, 27
1, 208101, Note_on_c, 0, 67, 35
1, 208101, Note_on_c, 0, 50, 31
1, 208109, Note_on_c, 0, 55, 24
1, 208181, Control_c, 0, 64, 127
1, 208261, Note_on_c, 0, 43, 0
1, 208269, Note_on_c, 0, 50, 0
1, 208269, Note_on_c, 0, 62, 0
1, 208325, Note_on_c, 0, 55, 0
1, 208337, Note_on_c, 0, 67, 0
1, 208417, Note_on_c, 0, 70, 0
1, 208537, Note_on_c, 0, 70, 41
1, 208577, Note_on_c, 0, 70, 0
1, 208577, Note_on_c, 0, 72, 62
1, 208661, Note_on_c, 0, 70, 55
1, 208669, Note_on_c, 0, 72, 0
1, 208753, Note_on_c, 0, 70, 0
1, 208757, Note_on_c, 0, 69, 57
1, 208837, Note_on_c, 0, 69, 0
1, 208857, Note_on_c, 0, 70, 73
1, 208917, Note_on_c, 0, 70, 0
1, 208933, Note_on_c, 0, 58, 43
1, 208937, Note_on_c, 0, 55, 41
1, 208937, Note_on_c, 0, 62, 36
1, 208957, Control_c, 0, 64, 0
1, 208973, Note_on_c, 0, 74, 76
1, 209113, Note_on_c, 0, 78, 94
1, 209117, Control_c, 0, 64, 127
1, 209141, Note_on_c, 0, 74, 0
1, 209221, Note_on_c, 0, 78, 0
1, 209257, Note_on_c, 0, 81, 115
1, 209397, Note_on_c, 0, 81, 0
1, 209409, Note_on_c, 0, 78, 88
1, 209417, Note_on_c, 0, 58, 0
1, 209425, Note_on_c, 0, 55, 0
1, 209489, Note_on_c, 0, 62, 0
1, 209505, Note_on_c, 0, 78, 0
1, 209537, Note_on_c, 0, 79, 84
1, 209637, Note_on_c, 0, 79, 0
1, 209665, Note_on_c, 0, 81, 88
1, 209809, Note_on_c, 0, 65, 57
1, 209813, Note_on_c, 0, 60, 50
1, 209817, Control_c, 0, 64, 0
1, 209817, Note_on_c, 0, 82, 78
1, 209817, Note_on_c, 0, 61, 54
1, 209829, Note_on_c, 0, 55, 51
1, 209849, Note_on_c, 0, 58, 36
1, 209861, Note_on_c, 0, 81, 0
1, 209901, Note_on_c, 0, 58, 0
1, 209949, Note_on_c, 0, 82, 0
1, 209989, Control_c, 0, 64, 127
1, 210013, Note_on_c, 0, 83, 50
1, 210025, Note_on_c, 0, 84, 57
1, 210053, Note_on_c, 0, 83, 0
1, 210137, Note_on_c, 0, 84, 0
1, 210189, Note_on_c, 0, 65, 0
1, 210205, Note_on_c, 0, 61, 0
1, 210205, Note_on_c, 0, 60, 0
1, 210213, Note_on_c, 0, 89, 87
1, 210233, Note_on_c, 0, 55, 0
1, 210349, Note_on_c, 0, 89, 0
1, 210401, Note_on_c, 0, 93, 102
1, 210553, Note_on_c, 0, 93, 0
1, 210605, Note_on_c, 0, 96, 115
1, 210609, Note_on_c, 0, 62, 63
1, 210613, Note_on_c, 0, 57, 58
1, 210617, Note_on_c, 0, 58, 57
1, 210621, Note_on_c, 0, 52, 62
1, 210633, Control_c, 0, 64, 0
1, 210645, Note_on_c, 0, 94, 40
1, 210681, Note_on_c, 0, 94, 0
1, 210821, Note_on_c, 0, 96, 0
1, 210821, Control_c, 0, 64, 127
1, 210893, Note_on_c, 0, 96, 90
1, 211061, Note_on_c, 0, 52, 0
1, 211073, Note_on_c, 0, 96, 0
1, 211081, Note_on_c, 0, 57, 0
1, 211113, Note_on_c, 0, 58, 0
1, 211125, Note_on_c, 0, 62, 0
1, 211145, Note_on_c, 0, 94, 85
1, 211341, Note_on_c, 0, 94, 0
1, 211425, Note_on_c, 0, 65, 58
1, 211425, Note_on_c, 0, 60, 49
1, 211429, Note_on_c, 0, 94, 87
1, 211433, Note_on_c, 0, 61, 54
1, 211441, Note_on_c, 0, 55, 51
1, 211453, Control_c, 0, 64, 0
1, 211465, Note_on_c, 0, 58, 36
1, 211517, Note_on_c, 0, 58, 0
1, 211681, Note_on_c, 0, 93, 79
1, 211689, Control_c, 0, 64, 127
1, 211757, Note_on_c, 0, 94, 0
1, 211829, Note_on_c, 0, 93, 0
1, 211925, Note_on_c, 0, 93, 82
1, 211981, Note_on_c, 0, 65, 0
1, 211993, Note_on_c, 0, 61, 0
1, 212049, Note_on_c, 0, 93, 0
1, 212121, Note_on_c, 0, 85, 73
1, 212157, Note_on_c, 0, 60, 0
1, 212277, Note_on_c, 0, 85, 0
1, 212305, Note_on_c, 0, 60, 27
1, 212325, Note_on_c, 0, 61, 45
1, 212341, Note_on_c, 0, 65, 39
1, 212349, Note_on_c, 0, 85, 66
1, 212533, Note_on_c, 0, 85, 0
1, 212573, Note_on_c, 0, 84, 68
1, 212693, Note_on_c, 0, 84, 0
1, 212725, Note_on_c, 0, 65, 0
1, 212773, Note_on_c, 0, 84, 57
1, 212793, Note_on_c, 0, 61, 0
1, 212805, Note_on_c, 0, 60, 0
1, 212849, Note_on_c, 0, 55, 0
1, 212881, Note_on_c, 0, 84, 0
1, 212961, Note_on_c, 0, 82, 63
1, 213089, Note_on_c, 0, 82, 0
1, 213141, Control_c, 0, 64, 72
1, 213141, Control_c, 0, 64, 0
1, 213169, Note_on_c, 0, 82, 57
1, 213177, Note_on_c, 0, 54, 42
1, 213189, Note_on_c, 0, 64, 34
1, 213189, Note_on_c, 0, 60, 39
1, 213229, Note_on_c, 0, 60, 0
1, 213233, Note_on_c, 0, 64, 0
1, 213245, Control_c, 0, 64, 127
1, 213313, Note_on_c, 0, 54, 0
1, 213353, Note_on_c, 0, 82, 0
1, 213397, Note_on_c, 0, 81, 58
1, 213501, Note_on_c, 0, 81, 0
1, 213597, Note_on_c, 0, 81, 58
1, 213841, Note_on_c, 0, 26, 54
1, 213909, Note_on_c, 0, 26, 0
1, 214553, Note_on_c, 0, 81, 0
1, 214597, Note_on_c, 0, 63, 39
1, 214601, Note_on_c, 0, 75, 47
1, 214601, Note_on_c, 0, 72, 40
1, 214605, Note_on_c, 0, 54, 40
1, 214617, Note_on_c, 0, 60, 31
1, 214657, Note_on_c, 0, 60, 0
1, 214701, Note_on_c, 0, 72, 0
1, 214701, Note_on_c, 0, 63, 0
1, 214769, Note_on_c, 0, 54, 0
1, 214897, Note_on_c, 0, 75, 0
1, 215069, Control_c, 0, 64, 0
1, 215085, Note_on_c, 0, 70, 45
1, 215085, Note_on_c, 0, 62, 36
1, 215093, Note_on_c, 0, 55, 31
1, 215097, Note_on_c, 0, 58, 46
1, 215109, Note_on_c, 0, 74, 46
1, 215153, Control_c, 0, 64, 127
1, 215205, Note_on_c, 0, 70, 0
1, 215209, Note_on_c, 0, 74, 0
1, 215261, Note_on_c, 0, 62, 0
1, 215409, Note_on_c, 0, 58, 0
1, 215417, Note_on_c, 0, 62, 42
1, 215617, Note_on_c, 0, 67, 53
1, 215761, Note_on_c, 0, 55, 0
1, 215833, Note_on_c, 0, 74, 83
1, 215865, Note_on_c, 0, 62, 0
1, 216029, Note_on_c, 0, 67, 0
1, 216053, Note_on_c, 0, 62, 51
1, 216257, Note_on_c, 0, 74, 0
1, 216273, Note_on_c, 0, 67, 48
1, 216497, Note_on_c, 0, 70, 56
1, 216669, Note_on_c, 0, 62, 0
1, 216709, Note_on_c, 0, 74, 66
1, 216865, Note_on_c, 0, 67, 0
1, 216909, Note_on_c, 0, 64, 73
1, 216933, Control_c, 0, 64, 0
1, 216969, Note_on_c, 0, 52, 22
1, 217041, Control_c, 0, 64, 127
1, 217061, Note_on_c, 0, 70, 0
1, 217081, Note_on_c, 0, 52, 0
1, 217129, Note_on_c, 0, 67, 58
1, 217213, Note_on_c, 0, 74, 0
1, 217345, Note_on_c, 0, 70, 52
1, 217545, Note_on_c, 0, 64, 0
1, 217565, Note_on_c, 0, 74, 68
1, 217765, Note_on_c, 0, 57, 65
1, 217765, Note_on_c, 0, 64, 74
1, 217809, Note_on_c, 0, 67, 0
1, 217869, Note_on_c, 0, 70, 0
1, 217969, Note_on_c, 0, 67, 61
1, 218065, Note_on_c, 0, 74, 0
1, 218125, Note_on_c, 0, 57, 0
1, 218173, Note_on_c, 0, 58, 66
1, 218177, Note_on_c, 0, 70, 78
1, 218369, Note_on_c, 0, 64, 0
1, 218385, Note_on_c, 0, 74, 78
1, 218569, Note_on_c, 0, 58, 0
1, 218597, Note_on_c, 0, 62, 84
1, 218609, Note_on_c, 0, 63, 67
1, 218629, Control_c, 0, 64, 0
1, 218665, Note_on_c, 0, 67, 0
1, 218761, Control_c, 0, 64, 127
1, 218777, Note_on_c, 0, 74, 0
1, 218801, Note_on_c, 0, 70, 0
1, 218825, Note_on_c, 0, 67, 60
1, 219029, Note_on_c, 0, 72, 63
1, 219221, Note_on_c, 0, 72, 0
1, 219245, Note_on_c, 0, 74, 62
1, 219281, Note_on_c, 0, 63, 0
1, 219429, Note_on_c, 0, 67, 0
1, 219445, Note_on_c, 0, 74, 0
1, 219453, Note_on_c, 0, 50, 46
1, 219457, Note_on_c, 0, 63, 50
1, 219481, Control_c, 0, 64, 0
1, 219609, Control_c, 0, 64, 127
1, 219681, Note_on_c, 0, 67, 55
1, 219857, Note_on_c, 0, 50, 0
1, 219893, Note_on_c, 0, 72, 49
1, 219933, Note_on_c, 0, 62, 0
1, 220049, Note_on_c, 0, 72, 0
1, 220097, Note_on_c, 0, 74, 57
1, 220217, Note_on_c, 0, 63, 0
1, 220217, Note_on_c, 0, 67, 0
1, 220233, Note_on_c, 0, 74, 0
1, 220293, Note_on_c, 0, 63, 52
1, 220301, Note_on_c, 0, 62, 49
1, 220361, Control_c, 0, 64, 0
1, 220449, Control_c, 0, 64, 127
1, 220513, Note_on_c, 0, 66, 48
1, 220725, Note_on_c, 0, 72, 52
1, 220737, Note_on_c, 0, 62, 0
1, 220945, Note_on_c, 0, 63, 0
1, 220961, Note_on_c, 0, 74, 51
1, 221097, Note_on_c, 0, 74, 0
1, 221137, Note_on_c, 0, 66, 0
1, 221157, Note_on_c, 0, 62, 43
1, 221157, Note_on_c, 0, 63, 46
1, 221325, Note_on_c, 0, 62, 0
1, 221333, Note_on_c, 0, 72, 0
1, 221389, Note_on_c, 0, 66, 52
1, 221613, Note_on_c, 0, 72, 56
1, 221705, Note_on_c, 0, 63, 0
1, 221777, Note_on_c, 0, 72, 0
1, 221845, Note_on_c, 0, 74, 50
1, 221889, Note_on_c, 0, 74, 0
1, 221949, Note_on_c, 0, 66, 0
1, 222065, Note_on_c, 0, 62, 46
1, 222065, Note_on_c, 0, 43, 35
1, 222069, Note_on_c, 0, 66, 46
1, 222077, Control_c, 0, 64, 88
1, 222077, Note_on_c, 0, 54, 36
1, 222081, Control_c, 0, 64, 0
1, 222093, Note_on_c, 0, 50, 39
1, 222181, Control_c, 0, 64, 127
1, 222269, Note_on_c, 0, 66, 0
1, 222297, Note_on_c, 0, 50, 0
1, 222305, Note_on_c, 0, 62, 0
1, 222337, Note_on_c, 0, 54, 0
1, 222353, Note_on_c, 0, 66, 30
1, 222397, Note_on_c, 0, 66, 0
1, 222545, Note_on_c, 0, 43, 0
1, 222553, Note_on_c, 0, 50, 47
1, 222601, Note_on_c, 0, 69, 74
1, 222605, Note_on_c, 0, 62, 77
1, 222609, Note_on_c, 0, 59, 72
1, 222609, Note_on_c, 0, 66, 64
1, 222625, Note_on_c, 0, 52, 63
1, 222637, Note_on_c, 0, 50, 0
1, 222829, Note_on_c, 0, 59, 0
1, 222829, Note_on_c, 0, 69, 0
1, 222829, Note_on_c, 0, 52, 0
1, 222845, Note_on_c, 0, 62, 0
1, 222865, Note_on_c, 0, 66, 0
1, 222913, Control_c, 0, 64, 0
1, 222921, Note_on_c, 0, 69, 61
1, 222921, Note_on_c, 0, 62, 63
1, 222925, Note_on_c, 0, 52, 57
1, 222925, Note_on_c, 0, 59, 67
1, 222929, Note_on_c, 0, 66, 68
1, 223045, Control_c, 0, 64, 127
1, 223261, Note_on_c, 0, 59, 0
1, 223305, Note_on_c, 0, 52, 0
1, 223305, Note_on_c, 0, 62, 0
1, 223313, Note_on_c, 0, 66, 0
1, 223341, Note_on_c, 0, 69, 0
1, 223429, Note_on_c, 0, 67, 59
1, 223429, Note_on_c, 0, 59, 50
1, 223449, Note_on_c, 0, 62, 42
1, 223457, Note_on_c, 0, 66, 31
1, 223565, Note_on_c, 0, 62, 0
1, 223593, Note_on_c, 0, 66, 0
1, 223597, Note_on_c, 0, 59, 0
1, 223601, Note_on_c, 0, 67, 0
1, 223693, Note_on_c, 0, 52, 50
1, 223713, Control_c, 0, 64, 0
1, 223717, Note_on_c, 0, 54, 61
1, 223725, Note_on_c, 0, 52, 0
1, 223725, Note_on_c, 0, 59, 66
1, 223725, Note_on_c, 0, 66, 55
1, 223733, Note_on_c, 0, 69, 56
1, 223733, Note_on_c, 0, 62, 66
1, 223889, Control_c, 0, 64, 127
1, 223905, Note_on_c, 0, 69, 0
1, 223929, Note_on_c, 0, 54, 0
1, 223941, Note_on_c, 0, 59, 0
1, 223961, Note_on_c, 0, 62, 0
1, 223965, Control_c, 0, 64, 0
1, 223969, Note_on_c, 0, 52, 35
1, 224001, Note_on_c, 0, 54, 54
1, 224001, Note_on_c, 0, 69, 60
1, 224009, Note_on_c, 0, 52, 0
1, 224013, Note_on_c, 0, 59, 52
1, 224013, Note_on_c, 0, 62, 54
1, 224133, Control_c, 0, 64, 127
1, 224169, Note_on_c, 0, 59, 0
1, 224197, Note_on_c, 0, 69, 0
1, 224253, Note_on_c, 0, 59, 50
1, 224269, Note_on_c, 0, 54, 0
1, 224269, Note_on_c, 0, 67, 54
1, 224273, Note_on_c, 0, 52, 56
1, 224321, Note_on_c, 0, 59, 0
1, 224341, Note_on_c, 0, 62, 0
1, 224373, Note_on_c, 0, 67, 0
1, 224389, Note_on_c, 0, 66, 0
1, 224397, Note_on_c, 0, 52, 0
1, 224549, Control_c, 0, 64, 0
1, 224557, Note_on_c, 0, 71, 65
1, 224569, Note_on_c, 0, 57, 57
1, 224577, Note_on_c, 0, 62, 49
1, 224577, Note_on_c, 0, 67, 48
1, 224681, Control_c, 0, 64, 127
1, 224789, Note_on_c, 0, 67, 0
1, 224833, Note_on_c, 0, 57, 0
1, 224869, Note_on_c, 0, 62, 0
1, 224897, Note_on_c, 0, 71, 0
1, 225117, Note_on_c, 0, 66, 55
1, 225121, Note_on_c, 0, 39, 41
1, 225121, Note_on_c, 0, 70, 51
1, 225121, Note_on_c, 0, 61, 51
1, 225125, Note_on_c, 0, 51, 39
1, 225293, Note_on_c, 0, 51, 0
1, 225301, Note_on_c, 0, 70, 0
1, 225313, Note_on_c, 0, 39, 0
1, 225333, Note_on_c, 0, 61, 0
1, 225337, Note_on_c, 0, 66, 0
1, 225381, Control_c, 0, 64, 0
1, 225421, Note_on_c, 0, 69, 58
1, 225421, Note_on_c, 0, 38, 46
1, 225429, Note_on_c, 0, 50, 45
1, 225433, Note_on_c, 0, 65, 48
1, 225433, Note_on_c, 0, 60, 39
1, 225493, Control_c, 0, 64, 127
1, 225589, Note_on_c, 0, 38, 0
1, 225645, Note_on_c, 0, 60, 0
1, 225665, Note_on_c, 0, 50, 0
1, 225701, Note_on_c, 0, 65, 0
1, 225765, Note_on_c, 0, 69, 0
1, 225937, Note_on_c, 0, 68, 80
1, 226013, Note_on_c, 0, 68, 0
1, 226025, Note_on_c, 0, 67, 49
1, 226213, Control_c, 0, 64, 0
1, 226213, Note_on_c, 0, 60, 54
1, 226229, Note_on_c, 0, 57, 48
1, 226233, Note_on_c, 0, 53, 48
1, 226245, Note_on_c, 0, 50, 39
1, 226333, Control_c, 0, 64, 127
1, 226457, Note_on_c, 0, 67, 0
1, 226497, Note_on_c, 0, 57, 0
1, 226497, Note_on_c, 0, 65, 68
1, 226501, Note_on_c, 0, 60, 0
1, 226505, Note_on_c, 0, 69, 72
1, 226513, Note_on_c, 0, 53, 0
1, 226605, Note_on_c, 0, 50, 0
1, 226673, Note_on_c, 0, 69, 0
1, 226681, Note_on_c, 0, 65, 0
1, 226741, Note_on_c, 0, 67, 62
1, 226905, Note_on_c, 0, 67, 0
1, 227001, Note_on_c, 0, 63, 65
1, 227013, Note_on_c, 0, 59, 40
1, 227017, Note_on_c, 0, 69, 57
1, 227029, Control_c, 0, 64, 0
1, 227037, Note_on_c, 0, 43, 48
1, 227041, Note_on_c, 0, 53, 47
1, 227085, Note_on_c, 0, 63, 0
1, 227089, Note_on_c, 0, 64, 62
1, 227233, Control_c, 0, 64, 127
1, 227429, Note_on_c, 0, 64, 0
1, 227505, Note_on_c, 0, 53, 0
1, 227565, Note_on_c, 0, 63, 60
1, 227689, Note_on_c, 0, 69, 0
1, 227733, Note_on_c, 0, 59, 0
1, 227805, Note_on_c, 0, 63, 0
1, 227897, Note_on_c, 0, 53, 39
1, 227909, Note_on_c, 0, 62, 26
1, 227941, Note_on_c, 0, 62, 0
1, 228161, Note_on_c, 0, 71, 111
1, 228177, Note_on_c, 0, 43, 0
1, 228237, Note_on_c, 0, 53, 0
1, 228297, Note_on_c, 0, 71, 0
1, 228437, Note_on_c, 0, 74, 122
1, 228613, Note_on_c, 0, 74, 0
1, 228717, Control_c, 0, 64, 0
1, 228729, Note_on_c, 0, 74, 74
1, 228749, Note_on_c, 0, 67, 57
1, 228749, Note_on_c, 0, 63, 61
1, 228761, Note_on_c, 0, 60, 44
1, 228761, Note_on_c, 0, 48, 43
1, 228761, Note_on_c, 0, 55, 40
1, 228825, Note_on_c, 0, 63, 0
1, 228825, Control_c, 0, 64, 127
1, 228837, Note_on_c, 0, 67, 0
1, 228889, Note_on_c, 0, 74, 0
1, 229025, Note_on_c, 0, 86, 84
1, 229117, Note_on_c, 0, 86, 0
1, 229117, Note_on_c, 0, 60, 0
1, 229337, Note_on_c, 0, 55, 0
1, 229609, Note_on_c, 0, 63, 50
1, 229609, Note_on_c, 0, 55, 31
1, 229613, Note_on_c, 0, 67, 48
1, 229633, Note_on_c, 0, 60, 30
1, 229653, Note_on_c, 0, 55, 0
1, 230117, Note_on_c, 0, 56, 84
1, 230217, Note_on_c, 0, 63, 0
1, 230421, Note_on_c, 0, 67, 0
1, 230477, Note_on_c, 0, 63, 52
1, 230801, Note_on_c, 0, 72, 78
1, 231037, Note_on_c, 0, 60, 0
1, 231129, Note_on_c, 0, 63, 0
1, 231137, Note_on_c, 0, 72, 0
1, 231245, Note_on_c, 0, 56, 0
1, 231353, Note_on_c, 0, 68, 60
1, 231361, Note_on_c, 0, 56, 39
1, 231369, Note_on_c, 0, 60, 40
1, 231449, Note_on_c, 0, 63, 23
1, 231657, Note_on_c, 0, 48, 0
1, 231745, Note_on_c, 0, 63, 0
1, 231813, Note_on_c, 0, 68, 0
1, 231897, Note_on_c, 0, 60, 0
1, 231897, Note_on_c, 0, 48, 56
1, 232069, Note_on_c, 0, 48, 0
1, 232177, Note_on_c, 0, 56, 0
1, 232209, Note_on_c, 0, 62, 55
1, 232213, Note_on_c, 0, 48, 45
1, 232217, Control_c, 0, 64, 0
1, 232233, Note_on_c, 0, 57, 34
1, 232405, Control_c, 0, 64, 127
1, 232485, Note_on_c, 0, 60, 48
1, 232605, Note_on_c, 0, 62, 0
1, 232789, Note_on_c, 0, 60, 0
1, 232813, Note_on_c, 0, 57, 0
1, 233053, Note_on_c, 0, 60, 45
1, 233073, Note_on_c, 0, 57, 31
1, 233269, Note_on_c, 0, 48, 0
1, 233377, Note_on_c, 0, 48, 71
1, 233429, Note_on_c, 0, 57, 0
1, 233857, Note_on_c, 0, 58, 80
1, 233877, Control_c, 0, 64, 0
1, 234013, Control_c, 0, 64, 127
1, 234241, Note_on_c, 0, 60, 0
1, 234249, Note_on_c, 0, 58, 0
1, 234281, Note_on_c, 0, 48, 0
1, 234789, Note_on_c, 0, 63, 52
1, 234793, Note_on_c, 0, 58, 54
1, 234801, Note_on_c, 0, 52, 35
1, 234805, Note_on_c, 0, 42, 40
1, 234817, Control_c, 0, 64, 0
1, 234969, Control_c, 0, 64, 127
1, 235093, Note_on_c, 0, 52, 0
1, 235237, Note_on_c, 0, 42, 0
1, 235353, Note_on_c, 0, 58, 0
1, 235449, Note_on_c, 0, 63, 0
1, 235613, Control_c, 0, 64, 0
1, 235637, Note_on_c, 0, 51, 37
1, 235637, Note_on_c, 0, 56, 40
1, 235641, Note_on_c, 0, 60, 45
1, 235649, Note_on_c, 0, 41, 36
1, 235653, Note_on_c, 0, 55, 36
1, 235677, Note_on_c, 0, 48, 33
1, 235721, Control_c, 0, 64, 127
1, 235745, Note_on_c, 0, 55, 0
1, 235789, Note_on_c, 0, 60, 0
1, 235801, Note_on_c, 0, 56, 0
1, 235833, Note_on_c, 0, 41, 0
1, 235861, Note_on_c, 0, 48, 0
1, 235917, Note_on_c, 0, 51, 0
1, 236525, Note_on_c, 0, 63, 25
1, 236537, Note_on_c, 0, 56, 38
1, 236549, Note_on_c, 0, 53, 27
1, 236557, Note_on_c, 0, 60, 39
1, 236745, Note_on_c, 0, 72, 46
1, 236761, Note_on_c, 0, 53, 0
1, 236781, Note_on_c, 0, 60, 0
1, 236837, Note_on_c, 0, 72, 0
1, 236841, Note_on_c, 0, 56, 0
1, 236853, Note_on_c, 0, 63, 0
1, 236913, Note_on_c, 0, 75, 58
1, 236941, Note_on_c, 0, 75, 0
1, 237121, Note_on_c, 0, 84, 120
1, 237389, Control_c, 0, 64, 0
1, 237389, Note_on_c, 0, 56, 40
1, 237401, Note_on_c, 0, 67, 35
1, 237405, Note_on_c, 0, 62, 40
1, 237577, Control_c, 0, 64, 127
1, 237609, Note_on_c, 0, 82, 61
1, 237705, Note_on_c, 0, 84, 0
1, 237733, Note_on_c, 0, 62, 0
1, 237733, Note_on_c, 0, 67, 0
1, 237805, Note_on_c, 0, 82, 0
1, 237817, Note_on_c, 0, 56, 0
1, 238205, Note_on_c, 0, 66, 48
1, 238205, Note_on_c, 0, 62, 43
1, 238217, Note_on_c, 0, 70, 48
1, 238233, Note_on_c, 0, 46, 35
1, 238233, Control_c, 0, 64, 0
1, 238241, Note_on_c, 0, 56, 37
1, 238317, Note_on_c, 0, 66, 0
1, 238333, Note_on_c, 0, 67, 45
1, 238381, Note_on_c, 0, 62, 0
1, 238385, Note_on_c, 0, 46, 0
1, 238393, Note_on_c, 0, 56, 0
1, 238409, Note_on_c, 0, 70, 0
1, 238409, Note_on_c, 0, 67, 0
1, 238669, Note_on_c, 0, 66, 46
1, 238669, Note_on_c, 0, 62, 44
1, 238677, Note_on_c, 0, 70, 45
1, 238685, Note_on_c, 0, 56, 38
1, 238693, Note_on_c, 0, 46, 36
1, 238817, Note_on_c, 0, 66, 0
1, 238829, Note_on_c, 0, 67, 40
1, 238861, Note_on_c, 0, 62, 0
1, 238865, Note_on_c, 0, 67, 0
1, 238893, Note_on_c, 0, 46, 0
1, 238909, Note_on_c, 0, 70, 0
1, 238937, Note_on_c, 0, 56, 0
1, 239125, Note_on_c, 0, 60, 40
1, 239133, Note_on_c, 0, 70, 43
1, 239141, Note_on_c, 0, 46, 41
1, 239141, Control_c, 0, 64, 127
1, 239141, Note_on_c, 0, 65, 50
1, 239157, Note_on_c, 0, 55, 39
1, 239313, Note_on_c, 0, 70, 0
1, 239317, Note_on_c, 0, 65, 0
1, 239393, Note_on_c, 0, 60, 0
1, 239477, Note_on_c, 0, 55, 0
1, 239565, Note_on_c, 0, 67, 48
1, 239573, Note_on_c, 0, 58, 42
1, 239573, Note_on_c, 0, 62, 49
1, 239577, Note_on_c, 0, 55, 41
1, 239853, Note_on_c, 0, 62, 0
1, 239861, Note_on_c, 0, 58, 0
1, 239873, Note_on_c, 0, 55, 0
1, 239877, Note_on_c, 0, 67, 0
1, 239897, Note_on_c, 0, 46, 0
1, 240029, Note_on_c, 0, 58, 51
1, 240033, Note_on_c, 0, 55, 43
1, 240033, Note_on_c, 0, 46, 39
1, 240049, Note_on_c, 0, 62, 45
1, 240061, Note_on_c, 0, 67, 34
1, 240205, Note_on_c, 0, 55, 0
1, 240229, Note_on_c, 0, 46, 0
1, 240445, Note_on_c, 0, 62, 0
1, 240533, Note_on_c, 0, 67, 0
1, 240545, Note_on_c, 0, 58, 0
1, 240953, Note_on_c, 0, 55, 48
1, 240953, Note_on_c, 0, 65, 40
1, 240953, Note_on_c, 0, 60, 56
1, 240953, Note_on_c, 0, 56, 39
1, 240965, Control_c, 0, 64, 0
1, 240973, Note_on_c, 0, 62, 47
1, 241181, Control_c, 0, 64, 127
1, 241257, Note_on_c, 0, 43, 56
1, 241413, Note_on_c, 0, 55, 0
1, 241553, Note_on_c, 0, 62, 0
1, 241553, Note_on_c, 0, 56, 0
1, 241565, Note_on_c, 0, 65, 0
1, 241565, Note_on_c, 0, 60, 0
1, 241845, Control_c, 0, 64, 0
1, 241873, Note_on_c, 0, 63, 44
1, 241881, Note_on_c, 0, 56, 41
1, 241889, Note_on_c, 0, 53, 33
1, 241897, Note_on_c, 0, 59, 48
1, 241949, Control_c, 0, 64, 127
1, 241997, Note_on_c, 0, 59, 0
1, 242013, Note_on_c, 0, 56, 0
1, 242061, Note_on_c, 0, 63, 0
1, 242161, Note_on_c, 0, 67, 77
1, 242197, Note_on_c, 0, 43, 0
1, 242257, Note_on_c, 0, 53, 0
1, 242317, Note_on_c, 0, 67, 0
1, 242449, Note_on_c, 0, 66, 58
1, 242533, Note_on_c, 0, 66, 0
1, 242581, Note_on_c, 0, 67, 66
1, 242645, Note_on_c, 0, 67, 0
1, 242837, Control_c, 0, 64, 24
1, 242841, Control_c, 0, 64, 0
1, 243041, Note_on_c, 0, 72, 70
1, 243053, Note_on_c, 0, 69, 70
1, 243053, Note_on_c, 0, 62, 62
1, 243053, Note_on_c, 0, 58, 56
1, 243061, Note_on_c, 0, 65, 66
1, 243065, Note_on_c, 0, 60, 55
1, 243193, Control_c, 0, 64, 127
1, 243413, Note_on_c, 0, 72, 0
1, 243517, Note_on_c, 0, 62, 0
1, 243553, Note_on_c, 0, 60, 0
1, 243653, Note_on_c, 0, 58, 0
1, 243861, Note_on_c, 0, 73, 63
1, 243989, Note_on_c, 0, 73, 0
1, 243997, Note_on_c, 0, 69, 0
1, 244041, Note_on_c, 0, 65, 0
1, 244125, Note_on_c, 0, 72, 56
1, 244193, Note_on_c, 0, 72, 0
1, 244413, Note_on_c, 0, 73, 46
1, 244417, Note_on_c, 0, 36, 45
1, 244417, Control_c, 0, 64, 0
1, 244425, Note_on_c, 0, 64, 39
1, 244441, Note_on_c, 0, 70, 47
1, 244441, Note_on_c, 0, 52, 39
1, 244597, Control_c, 0, 64, 127
1, 244677, Note_on_c, 0, 36, 0
1, 244777, Note_on_c, 0, 52, 0
1, 244893, Note_on_c, 0, 73, 0
1, 244905, Note_on_c, 0, 64, 0
1, 244937, Note_on_c, 0, 70, 0
1, 245317, Note_on_c, 0, 72, 51
1, 245325, Note_on_c, 0, 60, 47
1, 245329, Note_on_c, 0, 67, 46
1, 245329, Note_on_c, 0, 64, 39
1, 245433, Note_on_c, 0, 60, 0
1, 245529, Note_on_c, 0, 72, 0
1, 245561, Note_on_c, 0, 67, 0
1, 245637, Note_on_c, 0, 64, 0
1, 246257, Control_c, 0, 64, 0
1, 246261, Note_on_c, 0, 58, 46
1, 246265, Note_on_c, 0, 65, 40
1, 246265, Note_on_c, 0, 63, 44
1, 246273, Note_on_c, 0, 55, 31
1, 246277, Note_on_c, 0, 41, 33
1, 246285, Note_on_c, 0, 53, 29
1, 246373, Control_c, 0, 64, 127
1, 246401, Note_on_c, 0, 55, 0
1, 246461, Note_on_c, 0, 58, 0
1, 246481, Note_on_c, 0, 65, 0
1, 246493, Note_on_c, 0, 63, 0
1, 246521, Note_on_c, 0, 41, 0
1, 246573, Note_on_c, 0, 53, 0
1, 246781, Note_on_c, 0, 79, 98
1, 246945, Note_on_c, 0, 79, 0
1, 247157, Note_on_c, 0, 79, 85
1, 247165, Note_on_c, 0, 58, 48
1, 247169, Note_on_c, 0, 53, 45
1, 247177, Note_on_c, 0, 63, 45
1, 247185, Note_on_c, 0, 70, 71
1, 247457, Note_on_c, 0, 79, 0
1, 247505, Note_on_c, 0, 77, 75
1, 247513, Note_on_c, 0, 63, 0
1, 247629, Note_on_c, 0, 58, 0
1, 247713, Note_on_c, 0, 70, 0
1, 247717, Note_on_c, 0, 77, 0
1, 247745, Note_on_c, 0, 75, 66
1, 247769, Note_on_c, 0, 70, 24
1, 247809, Note_on_c, 0, 70, 0
1, 247897, Note_on_c, 0, 75, 0
1, 248033, Note_on_c, 0, 58, 36
1, 248037, Control_c, 0, 64, 0
1, 248049, Note_on_c, 0, 63, 47
1, 248057, Note_on_c, 0, 77, 58
1, 248065, Note_on_c, 0, 75, 49
1, 248069, Note_on_c, 0, 69, 46
1, 248069, Note_on_c, 0, 65, 41
1, 248165, Control_c, 0, 64, 127
1, 248361, Note_on_c, 0, 79, 57
1, 248477, Note_on_c, 0, 63, 0
1, 248549, Note_on_c, 0, 58, 0
1, 248601, Note_on_c, 0, 53, 0
1, 248713, Note_on_c, 0, 69, 0
1, 248833, Note_on_c, 0, 65, 0
1, 248933, Note_on_c, 0, 69, 48
1, 249053, Note_on_c, 0, 79, 0
1, 249057, Note_on_c, 0, 75, 0
1, 249069, Note_on_c, 0, 77, 0
1, 249161, Note_on_c, 0, 69, 0
1, 249725, Note_on_c, 0, 45, 52
1, 249785, Note_on_c, 0, 45, 0
1, 249857, Note_on_c, 0, 47, 47
1, 249889, Control_c, 0, 64, 0
1, 250277, Note_on_c, 0, 66, 45
1, 250281, Note_on_c, 0, 57, 57
1, 250293, Note_on_c, 0, 61, 54
1, 250293, Note_on_c, 0, 63, 50
1, 250385, Control_c, 0, 64, 127
1, 250781, Note_on_c, 0, 35, 34
1, 251045, Note_on_c, 0, 66, 0
1, 251073, Note_on_c, 0, 35, 0
1, 251077, Note_on_c, 0, 47, 0
1, 251085, Note_on_c, 0, 65, 58
1, 251121, Note_on_c, 0, 63, 0
1, 251197, Note_on_c, 0, 57, 0
1, 251241, Note_on_c, 0, 61, 0
1, 251269, Note_on_c, 0, 65, 0
1, 251333, Note_on_c, 0, 63, 49
1, 251513, Note_on_c, 0, 63, 0
1, 251609, Note_on_c, 0, 56, 34
1, 251617, Note_on_c, 0, 63, 31
1, 251621, Control_c, 0, 64, 0
1, 251621, Note_on_c, 0, 65, 45
1, 251625, Note_on_c, 0, 46, 34
1, 251629, Note_on_c, 0, 34, 37
1, 251633, Note_on_c, 0, 60, 48
1, 251829, Control_c, 0, 64, 127
1, 252017, Note_on_c, 0, 63, 0
1, 252089, Note_on_c, 0, 65, 0
1, 252197, Note_on_c, 0, 63, 52
1, 252257, Note_on_c, 0, 60, 0
1, 252925, Note_on_c, 0, 34, 0
1, 253005, Note_on_c, 0, 46, 0
1, 253065, Note_on_c, 0, 63, 0
1, 253093, Note_on_c, 0, 60, 47
1, 253161, Note_on_c, 0, 56, 0
1, 253377, Note_on_c, 0, 60, 0
1, 253489, Note_on_c, 0, 67, 58
1, 253489, Note_on_c, 0, 55, 54
1, 253489, Note_on_c, 0, 62, 58
1, 253509, Control_c, 0, 64, 0
1, 253513, Note_on_c, 0, 46, 56
1, 253521, Note_on_c, 0, 39, 49
1, 253709, Control_c, 0, 64, 127
1, 254001, Note_on_c, 0, 55, 0
1, 254097, Note_on_c, 0, 62, 0
1, 254405, Note_on_c, 0, 62, 50
1, 254413, Note_on_c, 0, 67, 0
1, 254413, Note_on_c, 0, 55, 45
1, 254953, Note_on_c, 0, 46, 0
1, 254957, Note_on_c, 0, 39, 0
1, 254961, Note_on_c, 0, 55, 0
1, 255081, Note_on_c, 0, 62, 0
1, 256233, Note_on_c, 0, 58, 57
1, 256237, Control_c, 0, 64, 0
1, 256241, Note_on_c, 0, 63, 56
1, 256241, Note_on_c, 0, 48, 44
1, 256377, Control_c, 0, 64, 127
1, 256629, Note_on_c, 0, 48, 0
1, 256741, Note_on_c, 0, 58, 0
1, 256905, Note_on_c, 0, 63, 0
1, 257121, Control_c, 0, 64, 0
1, 257121, Note_on_c, 0, 66, 82
1, 257125, Note_on_c, 0, 61, 81
1, 257129, Note_on_c, 0, 57, 86
1, 257129, Note_on_c, 0, 63, 72
1, 257133, Note_on_c, 0, 47, 79
1, 257321, Note_on_c, 0, 57, 0
1, 257333, Note_on_c, 0, 47, 0
1, 257357, Note_on_c, 0, 66, 0
1, 257357, Note_on_c, 0, 61, 0
1, 257361, Note_on_c, 0, 63, 0
1, 257513, Control_c, 0, 64, 127
1, 257701, Note_on_c, 0, 66, 72
1, 257705, Note_on_c, 0, 61, 70
1, 257705, Note_on_c, 0, 47, 56
1, 257709, Note_on_c, 0, 57, 73
1, 257713, Note_on_c, 0, 63, 56
1, 257957, Note_on_c, 0, 57, 0
1, 257961, Note_on_c, 0, 66, 0
1, 257977, Note_on_c, 0, 47, 0
1, 257993, Note_on_c, 0, 63, 0
1, 258005, Control_c, 0, 64, 0
1, 258037, Note_on_c, 0, 57, 57
1, 258041, Note_on_c, 0, 65, 63
1, 258049, Note_on_c, 0, 47, 36
1, 258081, Control_c, 0, 64, 127
1, 258285, Note_on_c, 0, 47, 0
1, 258401, Note_on_c, 0, 57, 0
1, 258449, Note_on_c, 0, 61, 0
1, 258461, Note_on_c, 0, 65, 0
1, 258561, Note_on_c, 0, 63, 54
1, 258589, Note_on_c, 0, 41, 30
1, 258717, Note_on_c, 0, 63, 0
1, 258877, Control_c, 0, 64, 0
1, 258897, Note_on_c, 0, 41, 0
1, 258933, Note_on_c, 0, 46, 41
1, 258933, Note_on_c, 0, 56, 53
1, 258933, Note_on_c, 0, 34, 41
1, 258945, Note_on_c, 0, 65, 45
1, 258953, Note_on_c, 0, 63, 45
1, 258953, Note_on_c, 0, 60, 49
1, 259109, Control_c, 0, 64, 127
1, 259301, Note_on_c, 0, 63, 0
1, 259337, Note_on_c, 0, 46, 0
1, 259381, Note_on_c, 0, 65, 0
1, 259461, Note_on_c, 0, 56, 0
1, 259477, Note_on_c, 0, 60, 0
1, 259509, Note_on_c, 0, 63, 59
1, 259813, Note_on_c, 0, 46, 38
1, 259957, Note_on_c, 0, 34, 0
1, 260025, Note_on_c, 0, 46, 0
1, 260121, Note_on_c, 0, 63, 0
1, 260141, Note_on_c, 0, 60, 51
1, 260333, Note_on_c, 0, 60, 0
1, 260417, Note_on_c, 0, 63, 55
1, 260593, Note_on_c, 0, 63, 0
1, 260661, Control_c, 0, 64, 0
1, 260737, Note_on_c, 0, 39, 43
1, 260741, Note_on_c, 0, 63, 43
1, 260757, Note_on_c, 0, 58, 42
1, 260793, Control_c, 0, 64, 127
1, 260849, Note_on_c, 0, 58, 0
1, 260913, Note_on_c, 0, 63, 0
1, 260929, Note_on_c, 0, 39, 0
1, 260965, Note_on_c, 0, 46, 49
1, 261101, Note_on_c, 0, 46, 0
1, 261197, Note_on_c, 0, 75, 57
1, 261205, Note_on_c, 0, 67, 48
1, 261205, Note_on_c, 0, 55, 44
1, 261273, Note_on_c, 0, 67, 0
1, 261361, Note_on_c, 0, 75, 0
1, 261389, Note_on_c, 0, 55, 0
1, 261405, Note_on_c, 0, 58, 52
1, 261633, Note_on_c, 0, 63, 47
1, 261645, Note_on_c, 0, 79, 68
1, 261649, Note_on_c, 0, 74, 61
1, 261985, Note_on_c, 0, 67, 48
1, 262081, Note_on_c, 0, 67, 0
1, 262133, Note_on_c, 0, 63, 0
1, 262145, Note_on_c, 0, 79, 0
1, 262157, Note_on_c, 0, 74, 0
1, 262205, Note_on_c, 0, 58, 0
1, 262565, Note_on_c, 0, 75, 51
1, 262573, Note_on_c, 0, 68, 54
1, 262577, Control_c, 0, 64, 0
1, 262581, Note_on_c, 0, 48, 40
1, 262581, Note_on_c, 0, 58, 37
1, 262585, Note_on_c, 0, 72, 51
1, 262605, Note_on_c, 0, 64, 38
1, 262805, Control_c, 0, 64, 127
1, 262889, Note_on_c, 0, 72, 0
1, 262913, Note_on_c, 0, 73, 56
1, 262933, Note_on_c, 0, 75, 0
1, 263197, Note_on_c, 0, 58, 0
1, 263209, Note_on_c, 0, 68, 0
1, 263257, Note_on_c, 0, 64, 0
1, 263517, Note_on_c, 0, 68, 44
1, 263533, Note_on_c, 0, 64, 37
1, 263533, Note_on_c, 0, 58, 39
1, 263669, Note_on_c, 0, 58, 0
1, 263677, Note_on_c, 0, 48, 0
1, 264161, Note_on_c, 0, 64, 0
1, 264165, Note_on_c, 0, 68, 0
1, 264165, Note_on_c, 0, 73, 0
1, 264293, Note_on_c, 0, 49, 56
1, 264469, Note_on_c, 0, 49, 0
1, 264493, Note_on_c, 0, 48, 59
1, 264725, Note_on_c, 0, 48, 0
1, 264765, Note_on_c, 0, 66, 57
1, 264773, Note_on_c, 0, 57, 49
1, 264773, Note_on_c, 0, 47, 57
1, 264773, Note_on_c, 0, 61, 58
1, 264777, Control_c, 0, 64, 0
1, 264841, Note_on_c, 0, 63, 17
1, 264989, Control_c, 0, 64, 127
1, 265229, Note_on_c, 0, 63, 0
1, 265233, Note_on_c, 0, 57, 0
1, 265305, Note_on_c, 0, 61, 0
1, 265321, Note_on_c, 0, 66, 0
1, 265429, Note_on_c, 0, 66, 83
1, 265433, Note_on_c, 0, 63, 79
1, 265433, Note_on_c, 0, 57, 96
1, 265433, Note_on_c, 0, 61, 81
1, 265433, Note_on_c, 0, 54, 78
1, 265733, Note_on_c, 0, 57, 0
1, 265737, Note_on_c, 0, 66, 0
1, 265741, Note_on_c, 0, 54, 0
1, 265769, Note_on_c, 0, 47, 0
1, 265781, Note_on_c, 0, 63, 0
1, 265805, Note_on_c, 0, 65, 74
1, 265805, Note_on_c, 0, 57, 75
1, 265821, Note_on_c, 0, 63, 45
1, 265821, Note_on_c, 0, 47, 54
1, 265913, Note_on_c, 0, 63, 0
1, 266097, Note_on_c, 0, 47, 0
1, 266125, Note_on_c, 0, 57, 0
1, 266181, Note_on_c, 0, 61, 0
1, 266245, Note_on_c, 0, 65, 0
1, 266397, Note_on_c, 0, 47, 57
1, 266405, Note_on_c, 0, 63, 57
1, 266421, Note_on_c, 0, 57, 50
1, 266441, Note_on_c, 0, 47, 0
1, 266565, Note_on_c, 0, 57, 0
1, 266729, Note_on_c, 0, 63, 0
1, 266921, Control_c, 0, 64, 0
1, 266957, Note_on_c, 0, 63, 49
1, 266961, Note_on_c, 0, 34, 41
1, 266961, Note_on_c, 0, 65, 54
1, 266961, Note_on_c, 0, 56, 39
1, 266961, Note_on_c, 0, 46, 43
1, 266973, Note_on_c, 0, 60, 56
1, 267241, Control_c, 0, 64, 127
1, 267345, Note_on_c, 0, 60, 0
1, 267361, Note_on_c, 0, 65, 0
1, 267389, Note_on_c, 0, 46, 0
1, 267397, Note_on_c, 0, 63, 0
1, 267437, Note_on_c, 0, 56, 0
1, 267653, Note_on_c, 0, 56, 38
1, 267653, Note_on_c, 0, 46, 42
1, 267661, Note_on_c, 0, 63, 46
1, 267665, Note_on_c, 0, 60, 52
1, 267877, Note_on_c, 0, 46, 0
1, 267897, Note_on_c, 0, 56, 0
1, 267961, Note_on_c, 0, 60, 0
1, 268073, Note_on_c, 0, 63, 0
1, 268329, Note_on_c, 0, 46, 34
1, 268333, Note_on_c, 0, 60, 48
1, 268337, Note_on_c, 0, 56, 31
1, 268777, Note_on_c, 0, 34, 0
1, 269265, Note_on_c, 0, 60, 0
1, 269305, Note_on_c, 0, 46, 0
1, 269309, Note_on_c, 0, 34, 31
1, 269309, Note_on_c, 0, 63, 48
1, 269493, Note_on_c, 0, 34, 0
1, 269821, Note_on_c, 0, 63, 0
1, 269841, Note_on_c, 0, 56, 0
1, 270389, Control_c, 0, 64, 0
1, 270429, Note_on_c, 0, 54, 41
1, 270433, Note_on_c, 0, 35, 37
1, 270441, Note_on_c, 0, 58, 46
1, 270449, Note_on_c, 0, 63, 41
1, 270605, Control_c, 0, 64, 127
1, 270701, Note_on_c, 0, 63, 0
1, 270713, Note_on_c, 0, 54, 0
1, 270749, Note_on_c, 0, 35, 0
1, 270765, Note_on_c, 0, 58, 0
1, 271185, Note_on_c, 0, 39, 42
1, 271241, Note_on_c, 0, 39, 0
1, 271281, Note_on_c, 0, 42, 63
1, 271309, Note_on_c, 0, 42, 0
1, 271333, Note_on_c, 0, 44, 58
1, 271361, Note_on_c, 0, 44, 0
1, 271377, Note_on_c, 0, 46, 66
1, 271401, Note_on_c, 0, 46, 0
1, 271421, Note_on_c, 0, 49, 75
1, 271449, Note_on_c, 0, 49, 0
1, 271465, Note_on_c, 0, 51, 73
1, 271489, Note_on_c, 0, 51, 0
1, 271513, Note_on_c, 0, 54, 74
1, 271541, Note_on_c, 0, 54, 0
1, 271549, Note_on_c, 0, 56, 76
1, 271573, Note_on_c, 0, 56, 0
1, 271585, Note_on_c, 0, 58, 77
1, 271609, Note_on_c, 0, 58, 0
1, 271633, Note_on_c, 0, 61, 75
1, 271661, Note_on_c, 0, 61, 0
1, 271673, Note_on_c, 0, 63, 73
1, 271697, Note_on_c, 0, 63, 0
1, 271725, Note_on_c, 0, 66, 73
1, 271749, Note_on_c, 0, 66, 0
1, 271761, Note_on_c, 0, 68, 76
1, 271789, Note_on_c, 0, 68, 0
1, 271797, Note_on_c, 0, 70, 72
1, 271825, Note_on_c, 0, 70, 0
1, 271857, Note_on_c, 0, 73, 68
1, 271881, Note_on_c, 0, 73, 0
1, 271897, Note_on_c, 0, 75, 72
1, 271925, Note_on_c, 0, 75, 0
1, 271953, Note_on_c, 0, 78, 70
1, 271977, Note_on_c, 0, 78, 0
1, 271993, Note_on_c, 0, 80, 69
1, 272017, Note_on_c, 0, 80, 0
1, 272033, Note_on_c, 0, 82, 68
1, 272057, Note_on_c, 0, 82, 0
1, 272089, Note_on_c, 0, 85, 67
1, 272117, Note_on_c, 0, 85, 0
1, 272129, Note_on_c, 0, 87, 69
1, 272157, Note_on_c, 0, 87, 0
1, 272181, Note_on_c, 0, 90, 68
1, 272209, Note_on_c, 0, 90, 0
1, 272221, Note_on_c, 0, 92, 68
1, 272245, Note_on_c, 0, 92, 0
1, 272257, Note_on_c, 0, 94, 68
1, 272281, Note_on_c, 0, 94, 0
1, 272309, Note_on_c, 0, 97, 68
1, 272345, Note_on_c, 0, 97, 0
1, 272349, Note_on_c, 0, 99, 70
1, 272377, Note_on_c, 0, 99, 0
1, 272401, Note_on_c, 0, 102, 68
1, 272441, Note_on_c, 0, 104, 75
1, 272449, Note_on_c, 0, 102, 0
1, 272469, Note_on_c, 0, 104, 0
1, 272473, Note_on_c, 0, 106, 75
1, 272573, Note_on_c, 0, 106, 0
1, 272581, Note_on_c, 0, 107, 66
1, 272709, Note_on_c, 0, 107, 0
1, 274713, Control_c, 0, 64, 0
1, 275073, Control_c, 0, 64, 127
1, 275249, Note_on_c, 0, 62, 47
1, 275257, Note_on_c, 0, 67, 39
1, 275269, Note_on_c, 0, 55, 31
1, 275297, Note_on_c, 0, 39, 38
1, 275457, Note_on_c, 0, 55, 0
1, 275489, Note_on_c, 0, 62, 0
1, 275561, Note_on_c, 0, 67, 0
1, 275597, Note_on_c, 0, 39, 0
1, 275613, Note_on_c, 0, 46, 44
1, 275745, Note_on_c, 0, 46, 0
1, 275925, Note_on_c, 0, 67, 43
1, 275933, Note_on_c, 0, 74, 40
1, 275945, Note_on_c, 0, 55, 34
1, 276045, Note_on_c, 0, 67, 0
1, 276185, Note_on_c, 0, 74, 0
1, 276241, Note_on_c, 0, 55, 0
1, 276269, Note_on_c, 0, 69, 34
1, 276281, Note_on_c, 0, 58, 35
1, 276545, Note_on_c, 0, 69, 0
1, 276573, Note_on_c, 0, 70, 53
1, 276605, Note_on_c, 0, 70, 0
1, 276873, Note_on_c, 0, 77, 39
1, 277669, Note_on_c, 0, 77, 0
1, 277817, Note_on_c, 0, 77, 5
1, 277877, Note_on_c, 0, 62, 12
1, 278065, Note_on_c, 0, 81, 53
1, 278069, Note_on_c, 0, 77, 0
1, 278257, Note_on_c, 0, 81, 0
1, 278261, Note_on_c, 0, 82, 55
1, 278365, Note_on_c, 0, 82, 0
1, 278441, Note_on_c, 0, 84, 50
1, 278557, Note_on_c, 0, 84, 0
1, 278605, Note_on_c, 0, 86, 49
1, 278725, Note_on_c, 0, 86, 0
1, 278773, Note_on_c, 0, 89, 54
1, 278921, Note_on_c, 0, 89, 0
1, 278969, Note_on_c, 0, 91, 58
1, 279109, Note_on_c, 0, 91, 0
1, 279165, Note_on_c, 0, 93, 45
1, 279213, Note_on_c, 0, 62, 0
1, 279265, Note_on_c, 0, 93, 0
1, 279349, Note_on_c, 0, 96, 38
1, 279505, Note_on_c, 0, 58, 0
1, 279517, Note_on_c, 0, 96, 0
1, 279741, Note_on_c, 0, 101, 57
1, 279937, Note_on_c, 0, 101, 0
1, 279953, Note_on_c, 0, 103, 45
1, 280141, Note_on_c, 0, 103, 0
1, 280157, Note_on_c, 0, 105, 54
1, 280305, Note_on_c, 0, 105, 0
1, 280393, Note_on_c, 0, 108, 57
1, 280573, Note_on_c, 0, 108, 0
1, 280753, Note_on_c, 0, 108, 49
1, 280773, Note_on_c, 0, 27, 41
1, 283665, Note_on_c, 0, 108, 0
1, 283717, Note_on_c, 0, 27, 0
1, 283717, End_track
0, 0, End_of_file
