0, 0, Header, 1, 4, 384
1, 0, Start_track
1, 0, Title_t, "Cubano Chant"
1, 0, Title_t, "by Ray Bryant"
1, 0, Text_t, "dougmck@pipeline.com.au \012"
1, 0, Text_t, "see Sher Music's 'New Real Book' Volume 1 pages 59-60\012"
1, 0, System_exclusive, 10, 67, 16, 42, 0, 0, 0, 30, 0, 21, 247
1, 0, System_exclusive, 8, 67, 115, 1, 17, 15, 89, 0, 247
1, 0, Time_signature, 4, 2, 24, 8
1, 0, Key_signature, -3, "major"
1, 0, Tempo, 315789
1, 0, Marker_t, "dougmck@pipeline.com.au"
1, 0, End_track
2, 0, Start_track
2, 0, Note_on_c, 0, 60, 100
2, 0, Note_on_c, 0, 72, 100
2, 158, Note_on_c, 0, 72, 61
2, 160, Note_on_c, 0, 60, 58
2, 286, Note_on_c, 0, 72, 0
2, 292, Note_on_c, 0, 60, 0
2, 346, Note_on_c, 0, 72, 64
2, 350, Note_on_c, 0, 60, 66
2, 384, Note_on_c, 0, 72, 0
2, 384, Note_on_c, 0, 60, 0
2, 470, Note_on_c, 0, 60, 0
2, 474, Note_on_c, 0, 72, 0
2, 538, Note_on_c, 0, 72, 55
2, 540, Note_on_c, 0, 60, 64
2, 692, Note_on_c, 0, 72, 0
2, 708, Note_on_c, 0, 60, 0
2, 726, Note_on_c, 0, 58, 82
2, 726, Note_on_c, 0, 70, 69
2, 1070, Note_on_c, 0, 70, 0
2, 1070, Note_on_c, 0, 58, 0
2, 1114, Note_on_c, 0, 70, 63
2, 1116, Note_on_c, 0, 58, 69
2, 1292, Note_on_c, 0, 70, 0
2, 1330, Note_on_c, 0, 72, 85
2, 1336, Note_on_c, 0, 60, 95
2, 1358, Note_on_c, 0, 58, 0
2, 1596, Note_on_c, 0, 72, 0
2, 1720, Note_on_c, 0, 67, 74
2, 1720, Note_on_c, 0, 55, 79
2, 1754, Note_on_c, 0, 60, 0
2, 2262, Note_on_c, 0, 67, 0
2, 2310, Note_on_c, 0, 55, 0
2, 2312, Note_on_c, 0, 60, 55
2, 2328, Note_on_c, 0, 48, 43
2, 2490, Note_on_c, 0, 60, 0
2, 2528, Note_on_c, 0, 48, 0
2, 2662, Note_on_c, 0, 63, 55
2, 2672, Note_on_c, 0, 51, 50
2, 2810, Note_on_c, 0, 63, 0
2, 2902, Note_on_c, 0, 51, 0
2, 3042, Note_on_c, 0, 46, 65
2, 3046, Note_on_c, 0, 56, 60
2, 3046, Note_on_c, 0, 65, 83
2, 3048, Note_on_c, 0, 60, 90
2, 3170, Note_on_c, 0, 65, 0
2, 3234, Control_c, 0, 64, 127
2, 3242, Note_on_c, 0, 67, 62
2, 3410, Note_on_c, 0, 67, 0
2, 3430, Note_on_c, 0, 65, 57
2, 3478, Note_on_c, 0, 56, 0
2, 3500, Note_on_c, 0, 60, 0
2, 3514, Note_on_c, 0, 46, 0
2, 3580, Note_on_c, 0, 65, 0
2, 3618, Note_on_c, 0, 63, 43
2, 3758, Note_on_c, 0, 63, 0
2, 3792, Control_c, 0, 64, 0
2, 3830, Note_on_c, 0, 60, 61
2, 3830, Note_on_c, 0, 55, 43
2, 3836, Note_on_c, 0, 43, 35
2, 3954, Control_c, 0, 64, 127
2, 3980, Note_on_c, 0, 60, 0
2, 4086, Note_on_c, 0, 43, 0
2, 4124, Note_on_c, 0, 55, 0
2, 4184, Note_on_c, 0, 60, 63
2, 4312, Note_on_c, 0, 60, 0
2, 4412, Note_on_c, 0, 58, 61
2, 4420, Note_on_c, 0, 36, 40
2, 4420, Note_on_c, 0, 48, 34
2, 4422, Control_c, 0, 64, 0
2, 4426, Note_on_c, 0, 53, 53
2, 4476, Note_on_c, 0, 48, 0
2, 4484, Note_on_c, 0, 36, 0
2, 4532, Note_on_c, 0, 53, 0
2, 4556, Note_on_c, 0, 58, 0
2, 4784, Note_on_c, 0, 58, 42
2, 4936, Note_on_c, 0, 58, 0
2, 4968, Note_on_c, 0, 55, 48
2, 4970, Note_on_c, 0, 24, 47
2, 4972, Note_on_c, 0, 36, 35
2, 4976, Note_on_c, 0, 60, 45
2, 5082, Note_on_c, 0, 55, 0
2, 5104, Note_on_c, 0, 60, 0
2, 5156, Note_on_c, 0, 24, 0
2, 5160, Note_on_c, 0, 36, 0
2, 6354, Note_on_c, 0, 67, 83
2, 6364, Note_on_c, 0, 55, 80
2, 6520, Note_on_c, 0, 67, 0
2, 6642, Note_on_c, 0, 55, 0
2, 6742, Note_on_c, 0, 72, 85
2, 6744, Note_on_c, 0, 60, 94
2, 6744, Note_on_c, 0, 71, 83
2, 6852, Note_on_c, 0, 71, 0
2, 7092, Note_on_c, 0, 62, 76
2, 7094, Note_on_c, 0, 60, 0
2, 7096, Note_on_c, 0, 74, 71
2, 7126, Note_on_c, 0, 72, 0
2, 7232, Note_on_c, 0, 74, 0
2, 7274, Note_on_c, 0, 75, 67
2, 7278, Note_on_c, 0, 62, 0
2, 7282, Note_on_c, 0, 63, 67
2, 7446, Note_on_c, 0, 63, 0
2, 7452, Note_on_c, 0, 75, 0
2, 7466, Note_on_c, 0, 60, 50
2, 7472, Note_on_c, 0, 72, 30
2, 7614, Note_on_c, 0, 72, 0
2, 7620, Note_on_c, 0, 60, 0
2, 7636, Note_on_c, 0, 74, 74
2, 7644, Note_on_c, 0, 62, 68
2, 7838, Note_on_c, 0, 72, 50
2, 7842, Note_on_c, 0, 62, 0
2, 7844, Note_on_c, 0, 60, 47
2, 7884, Note_on_c, 0, 74, 0
2, 7986, Note_on_c, 0, 72, 0
2, 8000, Note_on_c, 0, 60, 0
2, 8040, Note_on_c, 0, 58, 43
2, 8042, Note_on_c, 0, 70, 45
2, 8370, Note_on_c, 0, 70, 0
2, 8408, Note_on_c, 0, 58, 0
2, 8418, Note_on_c, 0, 67, 37
2, 8434, Note_on_c, 0, 55, 51
2, 8580, Control_c, 0, 64, 127
2, 8746, Note_on_c, 0, 55, 0
2, 8792, Note_on_c, 0, 67, 0
2, 9188, Control_c, 0, 64, 0
2, 9208, Note_on_c, 0, 77, 108
2, 9210, Note_on_c, 0, 62, 77
2, 9214, Note_on_c, 0, 56, 77
2, 9214, Note_on_c, 0, 67, 82
2, 9406, Note_on_c, 0, 79, 64
2, 9426, Control_c, 0, 64, 127
2, 9442, Note_on_c, 0, 77, 0
2, 9582, Note_on_c, 0, 77, 44
2, 9628, Note_on_c, 0, 62, 0
2, 9632, Note_on_c, 0, 79, 0
2, 9634, Note_on_c, 0, 67, 0
2, 9700, Note_on_c, 0, 56, 0
2, 9718, Note_on_c, 0, 77, 0
2, 9784, Note_on_c, 0, 75, 61
2, 9900, Control_c, 0, 64, 0
2, 9952, Note_on_c, 0, 75, 0
2, 9976, Note_on_c, 0, 63, 55
2, 9978, Note_on_c, 0, 60, 56
2, 9978, Note_on_c, 0, 72, 64
2, 9988, Note_on_c, 0, 56, 36
2, 9988, Note_on_c, 0, 53, 40
2, 10262, Note_on_c, 0, 72, 0
2, 10342, Note_on_c, 0, 60, 0
2, 10342, Note_on_c, 0, 72, 41
2, 10386, Note_on_c, 0, 56, 0
2, 10388, Note_on_c, 0, 63, 0
2, 10470, Note_on_c, 0, 53, 0
2, 10476, Note_on_c, 0, 72, 0
2, 10550, Note_on_c, 0, 70, 54
2, 10552, Note_on_c, 0, 62, 39
2, 10554, Note_on_c, 0, 58, 36
2, 10562, Note_on_c, 0, 55, 28
2, 10564, Note_on_c, 0, 53, 15
2, 10590, Note_on_c, 0, 62, 0
2, 10600, Note_on_c, 0, 53, 0
2, 10614, Note_on_c, 0, 70, 0
2, 10622, Note_on_c, 0, 58, 0
2, 10624, Note_on_c, 0, 55, 0
2, 10900, Note_on_c, 0, 70, 47
2, 11054, Note_on_c, 0, 70, 0
2, 11096, Note_on_c, 0, 72, 38
2, 11104, Note_on_c, 0, 62, 34
2, 11104, Note_on_c, 0, 51, 35
2, 11110, Note_on_c, 0, 57, 46
2, 11198, Note_on_c, 0, 57, 0
2, 11210, Note_on_c, 0, 62, 0
2, 11218, Note_on_c, 0, 51, 0
2, 11232, Note_on_c, 0, 72, 0
2, 12064, Note_on_c, 0, 45, 56
2, 12070, Note_on_c, 0, 67, 52
2, 12078, Note_on_c, 0, 79, 49
2, 12088, Note_on_c, 0, 45, 0
2, 12092, Note_on_c, 0, 67, 0
2, 12124, Note_on_c, 0, 79, 0
2, 12282, Note_on_c, 0, 84, 35
2, 12304, Note_on_c, 0, 50, 22
2, 12370, Note_on_c, 0, 50, 0
2, 12374, Note_on_c, 0, 84, 0
2, 12486, Note_on_c, 0, 72, 31
2, 12490, Note_on_c, 0, 84, 29
2, 12530, Note_on_c, 0, 72, 0
2, 12534, Note_on_c, 0, 84, 0
2, 12850, Note_on_c, 0, 84, 68
2, 12862, Note_on_c, 0, 72, 44
2, 12864, Note_on_c, 0, 48, 45
2, 12950, Note_on_c, 0, 84, 0
2, 12964, Note_on_c, 0, 72, 0
2, 12988, Note_on_c, 0, 48, 0
2, 13052, Note_on_c, 0, 46, 40
2, 13058, Note_on_c, 0, 82, 46
2, 13072, Note_on_c, 0, 70, 31
2, 13208, Note_on_c, 0, 82, 0
2, 13230, Note_on_c, 0, 46, 0
2, 13234, Note_on_c, 0, 70, 0
2, 13280, Note_on_c, 0, 46, 39
2, 13280, Note_on_c, 0, 70, 40
2, 13346, Note_on_c, 0, 70, 0
2, 13346, Note_on_c, 0, 82, 52
2, 13352, Note_on_c, 0, 46, 0
2, 13376, Note_on_c, 0, 82, 0
2, 13648, Note_on_c, 0, 84, 80
2, 13650, Note_on_c, 0, 72, 79
2, 13650, Note_on_c, 0, 48, 72
2, 13696, Note_on_c, 0, 48, 0
2, 13700, Note_on_c, 0, 84, 0
2, 13712, Note_on_c, 0, 72, 0
2, 14024, Note_on_c, 0, 79, 66
2, 14026, Note_on_c, 0, 43, 66
2, 14028, Note_on_c, 0, 67, 69
2, 14162, Note_on_c, 0, 43, 0
2, 14172, Note_on_c, 0, 79, 0
2, 14202, Note_on_c, 0, 67, 0
2, 14206, Control_c, 0, 64, 127
2, 14368, Note_on_c, 0, 48, 71
2, 14384, Note_on_c, 0, 60, 84
2, 14386, Control_c, 0, 64, 0
2, 14922, Note_on_c, 0, 60, 0
2, 14950, Note_on_c, 0, 63, 52
2, 14954, Note_on_c, 0, 51, 50
2, 14962, Note_on_c, 0, 48, 0
2, 15010, Note_on_c, 0, 51, 0
2, 15170, Note_on_c, 0, 60, 45
2, 15192, Note_on_c, 0, 60, 0
2, 15216, Note_on_c, 0, 63, 0
2, 15352, Note_on_c, 0, 65, 99
2, 15360, Note_on_c, 0, 46, 67
2, 15368, Note_on_c, 0, 56, 62
2, 15550, Note_on_c, 0, 67, 53
2, 15574, Note_on_c, 0, 65, 0
2, 15704, Note_on_c, 0, 67, 0
2, 15732, Note_on_c, 0, 65, 45
2, 15758, Note_on_c, 0, 46, 0
2, 15788, Note_on_c, 0, 56, 0
2, 15898, Note_on_c, 0, 65, 0
2, 15934, Note_on_c, 0, 63, 67
2, 16078, Note_on_c, 0, 63, 0
2, 16106, Note_on_c, 0, 58, 36
2, 16108, Note_on_c, 0, 48, 49
2, 16108, Note_on_c, 0, 60, 54
2, 16390, Note_on_c, 0, 60, 0
2, 16398, Note_on_c, 0, 58, 0
2, 16412, Note_on_c, 0, 48, 0
2, 16452, Note_on_c, 0, 60, 55
2, 16616, Note_on_c, 0, 60, 0
2, 16674, Note_on_c, 0, 43, 47
2, 16682, Note_on_c, 0, 58, 60
2, 16768, Note_on_c, 0, 43, 0
2, 16880, Note_on_c, 0, 58, 0
2, 17042, Note_on_c, 0, 43, 29
2, 17052, Note_on_c, 0, 58, 39
2, 17168, Note_on_c, 0, 58, 0
2, 17174, Note_on_c, 0, 43, 0
2, 17240, Note_on_c, 0, 55, 33
2, 17242, Note_on_c, 0, 60, 60
2, 17252, Note_on_c, 0, 36, 35
2, 17252, Note_on_c, 0, 48, 30
2, 17344, Note_on_c, 0, 36, 0
2, 17350, Note_on_c, 0, 60, 0
2, 17352, Note_on_c, 0, 55, 0
2, 17422, Note_on_c, 0, 48, 0
2, 17846, Note_on_c, 0, 67, 32
2, 17860, Note_on_c, 0, 55, 13
2, 17942, Note_on_c, 0, 55, 0
2, 17942, Note_on_c, 0, 67, 0
2, 18014, Note_on_c, 0, 60, 40
2, 18024, Note_on_c, 0, 72, 54
2, 18160, Note_on_c, 0, 60, 0
2, 18182, Note_on_c, 0, 72, 0
2, 18220, Note_on_c, 0, 62, 64
2, 18222, Note_on_c, 0, 74, 71
2, 18360, Note_on_c, 0, 74, 0
2, 18380, Note_on_c, 0, 62, 0
2, 18410, Note_on_c, 0, 63, 84
2, 18414, Note_on_c, 0, 75, 88
2, 18636, Note_on_c, 0, 63, 0
2, 18662, Note_on_c, 0, 75, 0
2, 19000, Note_on_c, 0, 78, 72
2, 19002, Note_on_c, 0, 66, 60
2, 19002, Note_on_c, 0, 79, 80
2, 19006, Note_on_c, 0, 67, 80
2, 19050, Note_on_c, 0, 66, 0
2, 19056, Note_on_c, 0, 78, 0
2, 19296, Note_on_c, 0, 67, 0
2, 19354, Note_on_c, 0, 77, 71
2, 19360, Note_on_c, 0, 65, 68
2, 19498, Note_on_c, 0, 79, 0
2, 19506, Note_on_c, 0, 77, 0
2, 19510, Note_on_c, 0, 65, 0
2, 19522, Note_on_c, 0, 63, 36
2, 19544, Note_on_c, 0, 75, 49
2, 19716, Note_on_c, 0, 75, 0
2, 19718, Note_on_c, 0, 63, 0
2, 19736, Note_on_c, 0, 72, 39
2, 19740, Note_on_c, 0, 60, 35
2, 19870, Note_on_c, 0, 72, 0
2, 19892, Note_on_c, 0, 60, 0
2, 19914, Note_on_c, 0, 62, 73
2, 19914, Note_on_c, 0, 74, 72
2, 20114, Note_on_c, 0, 62, 0
2, 20120, Note_on_c, 0, 60, 53
2, 20122, Note_on_c, 0, 72, 49
2, 20138, Note_on_c, 0, 74, 0
2, 20278, Note_on_c, 0, 72, 0
2, 20282, Note_on_c, 0, 60, 0
2, 20310, Note_on_c, 0, 58, 45
2, 20310, Note_on_c, 0, 70, 46
2, 20654, Note_on_c, 0, 70, 0
2, 20676, Note_on_c, 0, 58, 0
2, 20690, Note_on_c, 0, 67, 35
2, 20712, Note_on_c, 0, 55, 46
2, 21014, Control_c, 0, 64, 127
2, 21086, Note_on_c, 0, 55, 0
2, 21096, Note_on_c, 0, 67, 0
2, 21468, Control_c, 0, 64, 0
2, 21480, Note_on_c, 0, 56, 71
2, 21486, Note_on_c, 0, 62, 71
2, 21488, Note_on_c, 0, 77, 91
2, 21490, Note_on_c, 0, 67, 80
2, 21666, Note_on_c, 0, 79, 70
2, 21722, Note_on_c, 0, 77, 0
2, 21810, Note_on_c, 0, 79, 0
2, 21834, Note_on_c, 0, 77, 36
2, 21994, Note_on_c, 0, 62, 0
2, 21998, Note_on_c, 0, 77, 0
2, 22020, Control_c, 0, 64, 127
2, 22046, Note_on_c, 0, 75, 54
2, 22072, Note_on_c, 0, 67, 0
2, 22102, Note_on_c, 0, 56, 0
2, 22208, Note_on_c, 0, 75, 0
2, 22208, Control_c, 0, 64, 0
2, 22240, Note_on_c, 0, 63, 48
2, 22248, Note_on_c, 0, 72, 54
2, 22252, Note_on_c, 0, 56, 37
2, 22252, Note_on_c, 0, 67, 39
2, 22254, Note_on_c, 0, 60, 50
2, 22482, Control_c, 0, 64, 127
2, 22484, Note_on_c, 0, 72, 0
2, 22524, Note_on_c, 0, 67, 0
2, 22570, Note_on_c, 0, 63, 0
2, 22574, Note_on_c, 0, 60, 0
2, 22574, Control_c, 0, 64, 0
2, 22628, Note_on_c, 0, 56, 0
2, 22630, Note_on_c, 0, 72, 54
2, 22800, Note_on_c, 0, 72, 0
2, 22828, Note_on_c, 0, 62, 59
2, 22830, Note_on_c, 0, 55, 53
2, 22832, Note_on_c, 0, 70, 64
2, 22834, Note_on_c, 0, 58, 50
2, 22842, Note_on_c, 0, 53, 42
2, 22870, Note_on_c, 0, 53, 0
2, 22912, Note_on_c, 0, 62, 0
2, 22938, Note_on_c, 0, 70, 0
2, 22942, Note_on_c, 0, 58, 0
2, 22948, Note_on_c, 0, 55, 0
2, 23194, Note_on_c, 0, 70, 49
2, 23200, Note_on_c, 0, 58, 36
2, 23286, Note_on_c, 0, 58, 0
2, 23290, Note_on_c, 0, 70, 0
2, 23372, Note_on_c, 0, 62, 57
2, 23384, Note_on_c, 0, 72, 57
2, 23384, Note_on_c, 0, 55, 52
2, 23390, Note_on_c, 0, 57, 46
2, 23396, Note_on_c, 0, 51, 38
2, 23510, Note_on_c, 0, 57, 0
2, 23516, Note_on_c, 0, 72, 0
2, 23518, Note_on_c, 0, 55, 0
2, 23528, Note_on_c, 0, 51, 0
2, 23544, Note_on_c, 0, 62, 0
2, 23964, Note_on_c, 0, 79, 92
2, 24118, Note_on_c, 0, 79, 0
2, 24142, Note_on_c, 0, 77, 53
2, 24306, Note_on_c, 0, 77, 0
2, 24334, Note_on_c, 0, 75, 47
2, 24490, Note_on_c, 0, 75, 0
2, 24530, Note_on_c, 0, 56, 42
2, 24542, Note_on_c, 0, 77, 64
2, 24910, Note_on_c, 0, 56, 0
2, 24924, Note_on_c, 0, 68, 46
2, 24934, Note_on_c, 0, 72, 41
2, 24956, Note_on_c, 0, 72, 0
2, 24956, Note_on_c, 0, 68, 0
2, 25136, Note_on_c, 0, 56, 30
2, 25190, Note_on_c, 0, 56, 0
2, 25312, Note_on_c, 0, 55, 64
2, 25500, Note_on_c, 0, 65, 42
2, 25510, Note_on_c, 0, 61, 48
2, 25562, Note_on_c, 0, 55, 0
2, 25642, Note_on_c, 0, 65, 0
2, 25718, Note_on_c, 0, 61, 0
2, 26022, Note_on_c, 0, 77, 0
2, 26276, Note_on_c, 0, 77, 87
2, 26282, Note_on_c, 0, 64, 74
2, 26284, Note_on_c, 0, 60, 68
2, 26614, Note_on_c, 0, 77, 0
2, 26650, Note_on_c, 0, 75, 46
2, 26714, Note_on_c, 0, 64, 0
2, 26724, Note_on_c, 0, 60, 0
2, 26806, Note_on_c, 0, 75, 0
2, 26834, Note_on_c, 0, 63, 71
2, 26834, Note_on_c, 0, 79, 74
2, 26838, Note_on_c, 0, 59, 64
2, 26840, Note_on_c, 0, 82, 72
2, 26844, Note_on_c, 0, 53, 64
2, 26984, Note_on_c, 0, 82, 0
2, 27016, Note_on_c, 0, 82, 34
2, 27032, Note_on_c, 0, 79, 0
2, 27032, Note_on_c, 0, 77, 59
2, 27142, Note_on_c, 0, 82, 0
2, 27160, Note_on_c, 0, 59, 0
2, 27164, Note_on_c, 0, 63, 0
2, 27188, Note_on_c, 0, 53, 0
2, 27218, Note_on_c, 0, 82, 45
2, 27228, Note_on_c, 0, 75, 50
2, 27236, Note_on_c, 0, 77, 0
2, 27322, Note_on_c, 0, 75, 0
2, 27378, Note_on_c, 0, 82, 0
2, 27416, Note_on_c, 0, 72, 47
2, 27420, Note_on_c, 0, 48, 58
2, 27430, Note_on_c, 0, 58, 33
2, 27452, Note_on_c, 0, 48, 0
2, 27474, Note_on_c, 0, 58, 0
2, 27484, Note_on_c, 0, 72, 0
2, 27796, Note_on_c, 0, 48, 76
2, 27798, Note_on_c, 0, 77, 84
2, 27798, Note_on_c, 0, 84, 90
2, 27800, Note_on_c, 0, 57, 74
2, 27800, Note_on_c, 0, 72, 88
2, 27818, Note_on_c, 0, 81, 39
2, 27844, Note_on_c, 0, 81, 0
2, 27988, Control_c, 0, 64, 127
2, 28056, Note_on_c, 0, 84, 0
2, 28092, Note_on_c, 0, 77, 0
2, 28100, Note_on_c, 0, 48, 0
2, 28120, Note_on_c, 0, 72, 0
2, 28190, Note_on_c, 0, 48, 60
2, 28242, Note_on_c, 0, 57, 0
2, 28390, Note_on_c, 0, 65, 101
2, 28396, Note_on_c, 0, 72, 82
2, 28398, Control_c, 0, 64, 0
2, 28400, Note_on_c, 0, 57, 72
2, 28500, Note_on_c, 0, 48, 0
2, 28554, Note_on_c, 0, 72, 0
2, 28578, Note_on_c, 0, 69, 58
2, 28594, Note_on_c, 0, 57, 0
2, 28664, Note_on_c, 0, 69, 0
2, 28678, Note_on_c, 0, 65, 0
2, 28760, Note_on_c, 0, 47, 41
2, 28774, Note_on_c, 0, 48, 31
2, 28796, Note_on_c, 0, 48, 0
2, 28906, Note_on_c, 0, 47, 0
2, 28952, Note_on_c, 0, 58, 55
2, 28966, Note_on_c, 0, 63, 51
2, 28970, Note_on_c, 0, 67, 32
2, 28972, Note_on_c, 0, 58, 0
2, 28980, Note_on_c, 0, 48, 39
2, 29006, Note_on_c, 0, 67, 0
2, 29028, Note_on_c, 0, 63, 0
2, 29166, Note_on_c, 0, 48, 0
2, 29330, Note_on_c, 0, 36, 65
2, 29344, Note_on_c, 0, 67, 64
2, 29368, Note_on_c, 0, 67, 0
2, 29378, Note_on_c, 0, 36, 0
2, 29734, Note_on_c, 0, 72, 91
2, 29806, Note_on_c, 0, 72, 0
2, 29966, Note_on_c, 0, 66, 46
2, 30020, Note_on_c, 0, 66, 0
2, 30034, Note_on_c, 0, 65, 66
2, 30108, Note_on_c, 0, 65, 0
2, 30132, Note_on_c, 0, 63, 59
2, 30210, Note_on_c, 0, 60, 60
2, 30212, Note_on_c, 0, 63, 0
2, 30330, Note_on_c, 0, 60, 0
2, 30382, Note_on_c, 0, 63, 86
2, 30520, Note_on_c, 0, 63, 0
2, 30538, Note_on_c, 0, 65, 83
2, 30644, Note_on_c, 0, 65, 0
2, 30706, Note_on_c, 0, 65, 74
2, 30908, Note_on_c, 0, 63, 64
2, 30924, Note_on_c, 0, 55, 36
2, 30930, Note_on_c, 0, 65, 0
2, 30934, Note_on_c, 0, 58, 21
2, 30964, Note_on_c, 0, 58, 0
2, 30968, Note_on_c, 0, 55, 0
2, 31094, Note_on_c, 0, 60, 46
2, 31126, Note_on_c, 0, 63, 0
2, 31150, Note_on_c, 0, 60, 0
2, 31280, Note_on_c, 0, 65, 71
2, 31282, Note_on_c, 0, 53, 44
2, 31286, Note_on_c, 0, 60, 49
2, 31302, Note_on_c, 0, 56, 35
2, 31486, Note_on_c, 0, 53, 0
2, 31500, Note_on_c, 0, 60, 0
2, 31502, Note_on_c, 0, 56, 0
2, 31570, Note_on_c, 0, 65, 0
2, 31660, Note_on_c, 0, 61, 71
2, 31660, Note_on_c, 0, 55, 69
2, 31664, Note_on_c, 0, 60, 76
2, 31666, Note_on_c, 0, 65, 83
2, 31684, Note_on_c, 0, 58, 33
2, 32044, Note_on_c, 0, 65, 0
2, 32056, Control_c, 0, 64, 127
2, 32094, Note_on_c, 0, 55, 0
2, 32100, Note_on_c, 0, 60, 0
2, 32132, Note_on_c, 0, 58, 0
2, 32146, Control_c, 0, 64, 0
2, 32172, Note_on_c, 0, 61, 0
2, 32198, Note_on_c, 0, 64, 60
2, 32210, Note_on_c, 0, 60, 54
2, 32480, Note_on_c, 0, 64, 0
2, 32638, Note_on_c, 0, 60, 0
2, 32814, Note_on_c, 0, 60, 39
2, 32814, Note_on_c, 0, 62, 65
2, 32836, Note_on_c, 0, 62, 0
2, 32846, Note_on_c, 0, 60, 0
2, 33014, Note_on_c, 0, 65, 94
2, 33072, Note_on_c, 0, 67, 54
2, 33074, Note_on_c, 0, 65, 0
2, 33144, Note_on_c, 0, 65, 38
2, 33166, Note_on_c, 0, 67, 0
2, 33254, Note_on_c, 0, 65, 0
2, 33254, Note_on_c, 0, 62, 57
2, 33340, Note_on_c, 0, 62, 0
2, 33370, Note_on_c, 0, 66, 84
2, 33590, Note_on_c, 0, 67, 81
2, 33594, Note_on_c, 0, 62, 74
2, 33594, Note_on_c, 0, 53, 74
2, 33600, Note_on_c, 0, 59, 64
2, 33626, Note_on_c, 0, 66, 0
2, 33846, Control_c, 0, 64, 127
2, 33882, Note_on_c, 0, 62, 0
2, 34112, Note_on_c, 0, 53, 0
2, 34122, Note_on_c, 0, 62, 60
2, 34122, Control_c, 0, 64, 0
2, 34134, Note_on_c, 0, 59, 0
2, 34148, Control_c, 0, 64, 127
2, 34226, Note_on_c, 0, 62, 0
2, 34268, Note_on_c, 0, 67, 0
2, 34336, Note_on_c, 0, 66, 75
2, 34346, Note_on_c, 0, 69, 75
2, 34350, Note_on_c, 0, 55, 42
2, 34354, Note_on_c, 0, 61, 37
2, 34360, Control_c, 0, 64, 0
2, 34500, Control_c, 0, 64, 127
2, 34554, Note_on_c, 0, 69, 0
2, 34604, Note_on_c, 0, 55, 0
2, 34620, Note_on_c, 0, 61, 0
2, 34634, Note_on_c, 0, 66, 0
2, 34698, Note_on_c, 0, 69, 80
2, 34698, Note_on_c, 0, 64, 83
2, 34734, Note_on_c, 0, 60, 53
2, 34776, Note_on_c, 0, 64, 0
2, 34796, Control_c, 0, 64, 0
2, 34822, Note_on_c, 0, 60, 0
2, 34882, Note_on_c, 0, 63, 65
2, 35008, Note_on_c, 0, 63, 0
2, 35016, Note_on_c, 0, 69, 0
2, 35068, Note_on_c, 0, 67, 14
2, 35086, Note_on_c, 0, 59, 46
2, 35088, Note_on_c, 0, 62, 54
2, 35088, Note_on_c, 0, 55, 60
2, 35134, Note_on_c, 0, 59, 0
2, 35156, Note_on_c, 0, 55, 0
2, 35160, Note_on_c, 0, 62, 0
2, 35190, Note_on_c, 0, 67, 0
2, 35342, Control_c, 0, 64, 127
2, 35458, Note_on_c, 0, 79, 72
2, 35460, Note_on_c, 0, 55, 74
2, 35462, Note_on_c, 0, 73, 79
2, 35470, Note_on_c, 0, 61, 62
2, 35474, Note_on_c, 0, 65, 78
2, 35474, Note_on_c, 0, 67, 51
2, 35486, Note_on_c, 0, 69, 44
2, 35488, Control_c, 0, 64, 0
2, 35508, Note_on_c, 0, 69, 0
2, 35554, Note_on_c, 0, 67, 0
2, 35558, Note_on_c, 0, 79, 0
2, 35560, Note_on_c, 0, 65, 0
2, 35570, Note_on_c, 0, 55, 0
2, 35612, Note_on_c, 0, 73, 0
2, 35634, Note_on_c, 0, 61, 0
2, 35646, Note_on_c, 0, 73, 36
2, 35652, Note_on_c, 0, 78, 44
2, 35664, Note_on_c, 0, 64, 58
2, 35666, Note_on_c, 0, 60, 57
2, 35684, Note_on_c, 0, 66, 25
2, 35722, Note_on_c, 0, 64, 0
2, 35736, Note_on_c, 0, 60, 0
2, 35744, Note_on_c, 0, 66, 0
2, 35750, Note_on_c, 0, 73, 0
2, 35774, Note_on_c, 0, 78, 0
2, 35860, Note_on_c, 0, 77, 50
2, 35862, Note_on_c, 0, 53, 55
2, 35864, Note_on_c, 0, 65, 57
2, 35864, Note_on_c, 0, 59, 45
2, 35864, Note_on_c, 0, 64, 57
2, 35870, Note_on_c, 0, 72, 50
2, 35890, Note_on_c, 0, 65, 0
2, 35894, Note_on_c, 0, 72, 0
2, 35902, Note_on_c, 0, 64, 0
2, 35904, Note_on_c, 0, 77, 0
2, 35924, Note_on_c, 0, 59, 0
2, 35948, Note_on_c, 0, 53, 0
2, 36260, Note_on_c, 0, 43, 59
2, 36314, Note_on_c, 0, 43, 0
2, 36636, Note_on_c, 0, 67, 44
2, 36688, Note_on_c, 0, 67, 0
2, 36804, Note_on_c, 0, 60, 54
2, 36816, Note_on_c, 0, 72, 30
2, 36942, Note_on_c, 0, 72, 0
2, 36950, Note_on_c, 0, 60, 0
2, 36998, Note_on_c, 0, 72, 56
2, 37012, Note_on_c, 0, 60, 52
2, 37126, Note_on_c, 0, 72, 0
2, 37140, Note_on_c, 0, 60, 0
2, 37188, Note_on_c, 0, 72, 51
2, 37200, Note_on_c, 0, 60, 58
2, 37294, Note_on_c, 0, 72, 0
2, 37302, Note_on_c, 0, 60, 0
2, 37398, Note_on_c, 0, 60, 72
2, 37398, Note_on_c, 0, 72, 74
2, 37528, Note_on_c, 0, 72, 0
2, 37554, Note_on_c, 0, 60, 0
2, 37574, Note_on_c, 0, 58, 87
2, 37582, Note_on_c, 0, 70, 84
2, 37866, Note_on_c, 0, 58, 0
2, 37890, Note_on_c, 0, 70, 0
2, 37950, Note_on_c, 0, 70, 43
2, 37958, Note_on_c, 0, 58, 46
2, 38134, Note_on_c, 0, 70, 0
2, 38150, Note_on_c, 0, 72, 71
2, 38158, Note_on_c, 0, 58, 0
2, 38160, Note_on_c, 0, 60, 80
2, 38306, Note_on_c, 0, 72, 0
2, 38524, Note_on_c, 0, 67, 82
2, 38526, Note_on_c, 0, 55, 72
2, 38548, Note_on_c, 0, 60, 0
2, 38870, Note_on_c, 0, 67, 0
2, 38902, Note_on_c, 0, 60, 80
2, 38950, Note_on_c, 0, 55, 0
2, 38950, Note_on_c, 0, 48, 71
2, 39484, Note_on_c, 0, 60, 0
2, 39510, Note_on_c, 0, 48, 0
2, 39532, Note_on_c, 0, 51, 50
2, 39534, Note_on_c, 0, 63, 51
2, 39636, Note_on_c, 0, 51, 0
2, 39668, Note_on_c, 0, 63, 0
2, 39734, Note_on_c, 0, 51, 39
2, 39796, Note_on_c, 0, 51, 0
2, 39866, Note_on_c, 0, 65, 75
2, 40064, Note_on_c, 0, 65, 0
2, 40066, Note_on_c, 0, 67, 55
2, 40076, Note_on_c, 0, 56, 33
2, 40116, Note_on_c, 0, 56, 0
2, 40178, Note_on_c, 0, 67, 0
2, 40236, Note_on_c, 0, 65, 54
2, 40298, Note_on_c, 0, 65, 0
2, 40430, Note_on_c, 0, 63, 55
2, 40530, Note_on_c, 0, 63, 0
2, 40632, Note_on_c, 0, 60, 62
2, 40634, Note_on_c, 0, 48, 49
2, 40636, Note_on_c, 0, 58, 46
2, 40732, Note_on_c, 0, 58, 0
2, 40752, Note_on_c, 0, 48, 0
2, 40822, Note_on_c, 0, 60, 0
2, 41006, Note_on_c, 0, 60, 61
2, 41078, Note_on_c, 0, 60, 0
2, 41216, Note_on_c, 0, 58, 58
2, 41222, Note_on_c, 0, 43, 40
2, 41230, Note_on_c, 0, 50, 44
2, 41258, Note_on_c, 0, 50, 0
2, 41306, Note_on_c, 0, 43, 0
2, 41332, Note_on_c, 0, 58, 0
2, 41566, Note_on_c, 0, 58, 47
2, 41688, Note_on_c, 0, 58, 0
2, 41770, Note_on_c, 0, 36, 45
2, 41772, Note_on_c, 0, 24, 41
2, 41776, Note_on_c, 0, 55, 50
2, 41844, Note_on_c, 0, 60, 55
2, 41846, Note_on_c, 0, 55, 0
2, 41884, Note_on_c, 0, 24, 0
2, 41894, Note_on_c, 0, 60, 0
2, 41944, Note_on_c, 0, 36, 0
2, 42358, Note_on_c, 0, 55, 41
2, 42358, Note_on_c, 0, 67, 54
2, 42430, Note_on_c, 0, 67, 0
2, 42504, Note_on_c, 0, 55, 0
2, 42544, Note_on_c, 0, 60, 48
2, 42564, Note_on_c, 0, 72, 36
2, 42622, Note_on_c, 0, 72, 0
2, 42686, Note_on_c, 0, 60, 0
2, 42740, Note_on_c, 0, 62, 70
2, 42742, Note_on_c, 0, 74, 83
2, 42854, Note_on_c, 0, 74, 0
2, 42880, Note_on_c, 0, 62, 0
2, 42942, Note_on_c, 0, 75, 86
2, 42942, Note_on_c, 0, 63, 79
2, 43250, Note_on_c, 0, 75, 0
2, 43276, Note_on_c, 0, 64, 34
2, 43300, Note_on_c, 0, 64, 0
2, 43494, Note_on_c, 0, 63, 0
2, 43510, Note_on_c, 0, 66, 28
2, 43532, Note_on_c, 0, 78, 77
2, 43536, Note_on_c, 0, 79, 80
2, 43542, Note_on_c, 0, 67, 82
2, 43584, Note_on_c, 0, 78, 0
2, 43588, Note_on_c, 0, 66, 0
2, 43840, Note_on_c, 0, 67, 0
2, 43912, Note_on_c, 0, 65, 58
2, 43916, Note_on_c, 0, 77, 70
2, 43996, Note_on_c, 0, 79, 0
2, 44066, Note_on_c, 0, 65, 0
2, 44072, Note_on_c, 0, 77, 0
2, 44074, Note_on_c, 0, 63, 44
2, 44102, Note_on_c, 0, 75, 46
2, 44262, Note_on_c, 0, 63, 0
2, 44270, Note_on_c, 0, 75, 0
2, 44296, Note_on_c, 0, 60, 35
2, 44300, Note_on_c, 0, 72, 18
2, 44412, Note_on_c, 0, 72, 0
2, 44444, Note_on_c, 0, 60, 0
2, 44470, Note_on_c, 0, 74, 72
2, 44478, Note_on_c, 0, 62, 65
2, 44658, Note_on_c, 0, 70, 43
2, 44660, Note_on_c, 0, 74, 0
2, 44662, Note_on_c, 0, 62, 0
2, 44670, Note_on_c, 0, 58, 37
2, 44842, Note_on_c, 0, 67, 44
2, 44848, Note_on_c, 0, 58, 0
2, 44860, Note_on_c, 0, 55, 45
2, 44884, Note_on_c, 0, 70, 0
2, 45204, Note_on_c, 0, 67, 0
2, 45224, Note_on_c, 0, 55, 0
2, 45244, Note_on_c, 0, 72, 60
2, 45254, Note_on_c, 0, 60, 58
2, 45606, Control_c, 0, 64, 127
2, 45640, Note_on_c, 0, 60, 0
2, 45660, Note_on_c, 0, 72, 0
2, 45998, Control_c, 0, 64, 0
2, 46020, Note_on_c, 0, 62, 64
2, 46022, Note_on_c, 0, 77, 80
2, 46022, Note_on_c, 0, 56, 70
2, 46024, Note_on_c, 0, 67, 71
2, 46024, Note_on_c, 0, 72, 90
2, 46138, Note_on_c, 0, 77, 0
2, 46190, Control_c, 0, 64, 127
2, 46208, Note_on_c, 0, 79, 38
2, 46226, Note_on_c, 0, 77, 32
2, 46254, Note_on_c, 0, 77, 0
2, 46324, Note_on_c, 0, 79, 0
2, 46354, Note_on_c, 0, 62, 0
2, 46356, Note_on_c, 0, 67, 0
2, 46378, Note_on_c, 0, 77, 49
2, 46392, Note_on_c, 0, 72, 0
2, 46422, Note_on_c, 0, 56, 0
2, 46552, Note_on_c, 0, 77, 0
2, 46580, Note_on_c, 0, 75, 57
2, 46730, Note_on_c, 0, 75, 0
2, 46756, Control_c, 0, 64, 0
2, 46784, Note_on_c, 0, 60, 57
2, 46786, Note_on_c, 0, 68, 45
2, 46788, Note_on_c, 0, 63, 47
2, 46790, Note_on_c, 0, 72, 54
2, 46792, Note_on_c, 0, 53, 44
2, 46798, Note_on_c, 0, 56, 40
2, 46986, Control_c, 0, 64, 127
2, 47038, Note_on_c, 0, 72, 0
2, 47062, Note_on_c, 0, 68, 0
2, 47150, Note_on_c, 0, 60, 0
2, 47154, Note_on_c, 0, 72, 51
2, 47154, Note_on_c, 0, 68, 44
2, 47172, Note_on_c, 0, 63, 0
2, 47224, Note_on_c, 0, 72, 0
2, 47224, Note_on_c, 0, 56, 0
2, 47226, Note_on_c, 0, 68, 0
2, 47302, Note_on_c, 0, 53, 0
2, 47368, Note_on_c, 0, 70, 55
2, 47368, Note_on_c, 0, 62, 54
2, 47374, Note_on_c, 0, 65, 61
2, 47374, Note_on_c, 0, 58, 42
2, 47382, Note_on_c, 0, 55, 35
2, 47384, Control_c, 0, 64, 0
2, 47394, Note_on_c, 0, 53, 15
2, 47414, Note_on_c, 0, 65, 0
2, 47420, Note_on_c, 0, 53, 0
2, 47428, Note_on_c, 0, 62, 0
2, 47446, Note_on_c, 0, 55, 0
2, 47452, Note_on_c, 0, 70, 0
2, 47462, Note_on_c, 0, 58, 0
2, 47728, Note_on_c, 0, 53, 43
2, 47730, Note_on_c, 0, 70, 50
2, 47746, Note_on_c, 0, 58, 28
2, 47748, Note_on_c, 0, 65, 47
2, 47756, Note_on_c, 0, 53, 0
2, 47768, Control_c, 0, 64, 127
2, 47776, Note_on_c, 0, 65, 0
2, 47786, Note_on_c, 0, 58, 0
2, 47844, Note_on_c, 0, 70, 0
2, 47904, Control_c, 0, 64, 0
2, 47924, Note_on_c, 0, 67, 38
2, 47926, Note_on_c, 0, 62, 48
2, 47930, Note_on_c, 0, 72, 48
2, 47932, Note_on_c, 0, 51, 39
2, 47944, Note_on_c, 0, 57, 46
2, 48662, Note_on_c, 0, 67, 0
2, 48688, Note_on_c, 0, 57, 0
2, 48700, Note_on_c, 0, 72, 0
2, 48710, Note_on_c, 0, 51, 0
2, 48732, Note_on_c, 0, 62, 0
2, 48898, Control_c, 0, 64, 127
2, 49020, Control_c, 0, 64, 0
2, 49074, Note_on_c, 0, 62, 72
2, 49074, Note_on_c, 0, 77, 101
2, 49076, Note_on_c, 0, 56, 75
2, 49078, Note_on_c, 0, 67, 75
2, 49262, Note_on_c, 0, 79, 55
2, 49284, Control_c, 0, 64, 127
2, 49306, Note_on_c, 0, 77, 0
2, 49436, Note_on_c, 0, 77, 47
2, 49444, Note_on_c, 0, 62, 0
2, 49446, Note_on_c, 0, 67, 0
2, 49524, Note_on_c, 0, 79, 0
2, 49536, Note_on_c, 0, 56, 0
2, 49546, Control_c, 0, 64, 0
2, 49590, Note_on_c, 0, 77, 0
2, 49646, Note_on_c, 0, 75, 56
2, 49662, Control_c, 0, 64, 127
2, 49810, Note_on_c, 0, 75, 0
2, 49810, Control_c, 0, 64, 0
2, 49850, Note_on_c, 0, 72, 71
2, 49856, Note_on_c, 0, 63, 49
2, 49856, Note_on_c, 0, 60, 55
2, 49862, Note_on_c, 0, 53, 47
2, 49866, Note_on_c, 0, 56, 37
2, 50066, Control_c, 0, 64, 127
2, 50146, Note_on_c, 0, 72, 0
2, 50208, Control_c, 0, 64, 0
2, 50226, Note_on_c, 0, 72, 55
2, 50230, Note_on_c, 0, 60, 0
2, 50246, Note_on_c, 0, 63, 0
2, 50296, Note_on_c, 0, 56, 0
2, 50334, Note_on_c, 0, 53, 0
2, 50360, Note_on_c, 0, 72, 0
2, 50426, Note_on_c, 0, 62, 58
2, 50428, Note_on_c, 0, 53, 26
2, 50428, Note_on_c, 0, 58, 51
2, 50430, Note_on_c, 0, 70, 64
2, 50432, Note_on_c, 0, 55, 48
2, 50488, Note_on_c, 0, 62, 0
2, 50502, Note_on_c, 0, 53, 0
2, 50510, Note_on_c, 0, 55, 0
2, 50518, Note_on_c, 0, 70, 0
2, 50532, Note_on_c, 0, 58, 0
2, 50772, Note_on_c, 0, 53, 35
2, 50776, Note_on_c, 0, 70, 59
2, 50788, Note_on_c, 0, 58, 27
2, 50802, Note_on_c, 0, 53, 0
2, 50858, Note_on_c, 0, 58, 0
2, 50872, Note_on_c, 0, 70, 0
2, 50874, Control_c, 0, 64, 127
2, 50926, Control_c, 0, 64, 0
2, 50990, Note_on_c, 0, 62, 36
2, 50998, Note_on_c, 0, 72, 55
2, 51000, Note_on_c, 0, 51, 42
2, 51004, Note_on_c, 0, 57, 53
2, 51164, Control_c, 0, 64, 127
2, 51320, Note_on_c, 0, 62, 0
2, 51332, Note_on_c, 0, 57, 0
2, 51350, Note_on_c, 0, 72, 0
2, 51396, Note_on_c, 0, 51, 0
2, 51584, Note_on_c, 0, 79, 92
2, 51588, Note_on_c, 0, 55, 84
2, 51612, Control_c, 0, 64, 0
2, 51726, Note_on_c, 0, 79, 0
2, 51760, Note_on_c, 0, 55, 0
2, 51762, Note_on_c, 0, 53, 57
2, 51766, Note_on_c, 0, 77, 60
2, 51890, Note_on_c, 0, 53, 0
2, 51940, Note_on_c, 0, 77, 0
2, 51950, Note_on_c, 0, 51, 30
2, 51972, Note_on_c, 0, 51, 0
2, 51972, Note_on_c, 0, 75, 54
2, 51986, Control_c, 0, 64, 127
2, 52052, Note_on_c, 0, 75, 0
2, 52132, Control_c, 0, 64, 0
2, 52148, Note_on_c, 0, 56, 64
2, 52154, Note_on_c, 0, 67, 69
2, 52156, Note_on_c, 0, 77, 89
2, 52156, Note_on_c, 0, 62, 63
2, 52354, Note_on_c, 0, 79, 62
2, 52384, Note_on_c, 0, 77, 0
2, 52414, Control_c, 0, 64, 127
2, 52492, Control_c, 0, 64, 0
2, 52498, Note_on_c, 0, 79, 0
2, 52524, Note_on_c, 0, 77, 54
2, 52680, Note_on_c, 0, 77, 0
2, 52714, Note_on_c, 0, 62, 0
2, 52728, Control_c, 0, 64, 127
2, 52730, Note_on_c, 0, 67, 0
2, 52736, Note_on_c, 0, 75, 57
2, 52828, Note_on_c, 0, 56, 0
2, 52856, Control_c, 0, 64, 0
2, 52868, Note_on_c, 0, 75, 0
2, 52922, Note_on_c, 0, 72, 78
2, 52924, Note_on_c, 0, 55, 66
2, 52928, Note_on_c, 0, 61, 59
2, 52930, Note_on_c, 0, 65, 69
2, 53120, Control_c, 0, 64, 127
2, 53222, Note_on_c, 0, 72, 0
2, 53312, Note_on_c, 0, 72, 63
2, 53366, Note_on_c, 0, 55, 0
2, 53376, Note_on_c, 0, 65, 0
2, 53460, Note_on_c, 0, 61, 0
2, 53484, Note_on_c, 0, 72, 0
2, 53506, Note_on_c, 0, 70, 83
2, 53514, Note_on_c, 0, 65, 73
2, 53518, Note_on_c, 0, 60, 66
2, 53538, Control_c, 0, 64, 0
2, 53698, Note_on_c, 0, 70, 0
2, 53714, Note_on_c, 0, 65, 0
2, 53744, Note_on_c, 0, 60, 0
2, 53862, Note_on_c, 0, 70, 67
2, 53878, Control_c, 0, 64, 127
2, 53880, Note_on_c, 0, 60, 39
2, 53938, Note_on_c, 0, 70, 0
2, 53976, Note_on_c, 0, 60, 0
2, 54038, Control_c, 0, 64, 0
2, 54048, Note_on_c, 0, 60, 75
2, 54052, Note_on_c, 0, 53, 72
2, 54056, Note_on_c, 0, 63, 77
2, 54058, Note_on_c, 0, 72, 85
2, 54060, Note_on_c, 0, 56, 60
2, 54468, Control_c, 0, 64, 127
2, 54880, Note_on_c, 0, 53, 0
2, 54934, Note_on_c, 0, 72, 0
2, 54956, Note_on_c, 0, 56, 0
2, 55028, Note_on_c, 0, 63, 0
2, 55036, Note_on_c, 0, 72, 71
2, 55044, Note_on_c, 0, 53, 43
2, 55064, Note_on_c, 0, 56, 25
2, 55114, Note_on_c, 0, 53, 0
2, 55178, Note_on_c, 0, 72, 0
2, 55192, Note_on_c, 0, 60, 0
2, 55196, Note_on_c, 0, 56, 0
2, 55212, Control_c, 0, 64, 0
2, 55214, Note_on_c, 0, 63, 82
2, 55214, Note_on_c, 0, 75, 86
2, 55560, Note_on_c, 0, 75, 0
2, 55608, Note_on_c, 0, 72, 66
2, 55612, Note_on_c, 0, 60, 49
2, 55648, Note_on_c, 0, 63, 0
2, 55670, Note_on_c, 0, 60, 0
2, 55688, Note_on_c, 0, 72, 0
2, 55960, Note_on_c, 0, 66, 56
2, 55962, Note_on_c, 0, 70, 59
2, 55978, Note_on_c, 0, 60, 49
2, 56046, Note_on_c, 0, 60, 0
2, 56062, Note_on_c, 0, 66, 0
2, 56106, Note_on_c, 0, 70, 0
2, 56354, Note_on_c, 0, 53, 35
2, 56356, Note_on_c, 0, 71, 38
2, 56358, Note_on_c, 0, 65, 47
2, 56386, Control_c, 0, 64, 127
2, 56426, Note_on_c, 0, 53, 0
2, 56472, Note_on_c, 0, 65, 0
2, 56544, Note_on_c, 0, 71, 0
2, 56572, Control_c, 0, 64, 0
2, 56590, Note_on_c, 0, 64, 52
2, 56592, Note_on_c, 0, 52, 58
2, 56594, Note_on_c, 0, 72, 51
2, 56602, Note_on_c, 0, 57, 57
2, 56650, Note_on_c, 0, 57, 0
2, 56654, Note_on_c, 0, 64, 0
2, 56658, Note_on_c, 0, 72, 0
2, 56668, Note_on_c, 0, 52, 0
2, 57372, Note_on_c, 0, 60, 73
2, 57454, Note_on_c, 0, 60, 0
2, 57536, Note_on_c, 0, 62, 58
2, 57708, Note_on_c, 0, 62, 0
2, 57752, Note_on_c, 0, 63, 65
2, 57850, Note_on_c, 0, 63, 0
2, 57914, Note_on_c, 0, 65, 68
2, 58044, Note_on_c, 0, 65, 0
2, 58124, Note_on_c, 0, 67, 65
2, 58236, Note_on_c, 0, 67, 0
2, 58308, Note_on_c, 0, 71, 89
2, 58482, Note_on_c, 0, 71, 0
2, 58510, Note_on_c, 0, 74, 81
2, 58640, Note_on_c, 0, 74, 0
2, 58698, Note_on_c, 0, 72, 66
2, 58912, Note_on_c, 0, 72, 0
2, 59068, Note_on_c, 0, 67, 45
2, 59170, Note_on_c, 0, 67, 0
2, 59410, Note_on_c, 0, 63, 57
2, 59416, Note_on_c, 0, 55, 53
2, 59446, Note_on_c, 0, 60, 41
2, 59456, Note_on_c, 0, 57, 39
2, 59488, Note_on_c, 0, 60, 0
2, 59512, Note_on_c, 0, 57, 0
2, 59516, Note_on_c, 0, 55, 0
2, 59542, Note_on_c, 0, 63, 0
2, 59810, Note_on_c, 0, 65, 71
2, 59820, Note_on_c, 0, 58, 55
2, 59828, Note_on_c, 0, 60, 60
2, 60180, Note_on_c, 0, 60, 0
2, 60196, Note_on_c, 0, 65, 0
2, 60288, Note_on_c, 0, 58, 0
2, 60404, Note_on_c, 0, 64, 62
2, 60410, Note_on_c, 0, 53, 62
2, 60418, Note_on_c, 0, 59, 61
2, 60884, Note_on_c, 0, 59, 0
2, 60952, Note_on_c, 0, 64, 0
2, 60962, Note_on_c, 0, 53, 0
2, 61348, Note_on_c, 0, 62, 53
2, 61372, Note_on_c, 0, 57, 51
2, 61374, Note_on_c, 0, 51, 34
2, 61380, Note_on_c, 0, 55, 50
2, 62096, Note_on_c, 0, 55, 0
2, 62106, Note_on_c, 0, 57, 0
2, 62138, Note_on_c, 0, 51, 0
2, 62234, Note_on_c, 0, 62, 0
2, 62328, Note_on_c, 0, 55, 64
2, 62336, Note_on_c, 0, 63, 70
2, 62344, Note_on_c, 0, 60, 62
2, 62346, Note_on_c, 0, 57, 62
2, 62752, Note_on_c, 0, 55, 0
2, 62806, Note_on_c, 0, 57, 0
2, 62822, Note_on_c, 0, 63, 0
2, 62864, Note_on_c, 0, 60, 0
2, 62928, Note_on_c, 0, 65, 83
2, 62932, Note_on_c, 0, 58, 49
2, 62938, Note_on_c, 0, 60, 58
2, 63482, Note_on_c, 0, 77, 91
2, 63554, Note_on_c, 0, 65, 0
2, 63578, Note_on_c, 0, 60, 0
2, 63598, Note_on_c, 0, 77, 0
2, 63668, Note_on_c, 0, 58, 0
2, 63704, Note_on_c, 0, 78, 86
2, 63710, Note_on_c, 0, 64, 68
2, 63712, Note_on_c, 0, 66, 78
2, 63714, Note_on_c, 0, 68, 88
2, 63724, Note_on_c, 0, 53, 63
2, 63728, Note_on_c, 0, 79, 72
2, 63732, Note_on_c, 0, 59, 60
2, 63780, Note_on_c, 0, 66, 0
2, 63822, Note_on_c, 0, 67, 22
2, 63852, Note_on_c, 0, 68, 0
2, 63918, Note_on_c, 0, 77, 31
2, 63928, Note_on_c, 0, 78, 0
2, 63930, Note_on_c, 0, 79, 0
2, 63944, Note_on_c, 0, 67, 0
2, 64010, Note_on_c, 0, 77, 0
2, 64068, Note_on_c, 0, 78, 64
2, 64076, Note_on_c, 0, 66, 84
2, 64098, Note_on_c, 0, 79, 58
2, 64108, Note_on_c, 0, 59, 0
2, 64124, Note_on_c, 0, 77, 34
2, 64132, Note_on_c, 0, 64, 0
2, 64154, Note_on_c, 0, 66, 0
2, 64158, Note_on_c, 0, 67, 71
2, 64218, Note_on_c, 0, 53, 0
2, 64276, Note_on_c, 0, 78, 0
2, 64372, Note_on_c, 0, 79, 0
2, 64374, Note_on_c, 0, 67, 0
2, 64386, Note_on_c, 0, 77, 0
2, 64468, Note_on_c, 0, 77, 67
2, 64472, Note_on_c, 0, 58, 31
2, 64474, Note_on_c, 0, 62, 51
2, 64474, Note_on_c, 0, 52, 53
2, 64484, Note_on_c, 0, 65, 70
2, 64620, Note_on_c, 0, 77, 0
2, 64688, Note_on_c, 0, 65, 0
2, 64788, Note_on_c, 0, 62, 0
2, 64822, Note_on_c, 0, 75, 68
2, 64832, Note_on_c, 0, 63, 60
2, 64906, Note_on_c, 0, 63, 0
2, 64928, Note_on_c, 0, 64, 50
2, 64958, Note_on_c, 0, 75, 0
2, 65080, Note_on_c, 0, 64, 0
2, 65202, Note_on_c, 0, 72, 61
2, 65226, Control_c, 0, 64, 127
2, 65236, Control_c, 0, 64, 0
2, 65238, Note_on_c, 0, 52, 0
2, 65244, Note_on_c, 0, 60, 37
2, 65302, Note_on_c, 0, 58, 0
2, 65352, Note_on_c, 0, 60, 0
2, 65428, Note_on_c, 0, 67, 55
2, 65430, Note_on_c, 0, 72, 0
2, 65472, Note_on_c, 0, 67, 0
2, 66148, Note_on_c, 0, 53, 32
2, 66148, Note_on_c, 0, 60, 54
2, 66150, Note_on_c, 0, 63, 57
2, 66186, Note_on_c, 0, 57, 39
2, 66190, Note_on_c, 0, 60, 0
2, 66200, Note_on_c, 0, 53, 0
2, 66222, Note_on_c, 0, 63, 0
2, 66272, Note_on_c, 0, 57, 0
2, 66536, Note_on_c, 0, 69, 47
2, 66540, Note_on_c, 0, 63, 65
2, 66550, Note_on_c, 0, 60, 64
2, 66574, Note_on_c, 0, 69, 0
2, 66584, Note_on_c, 0, 60, 0
2, 66652, Note_on_c, 0, 60, 17
2, 66716, Note_on_c, 0, 75, 91
2, 66748, Note_on_c, 0, 63, 0
2, 66854, Note_on_c, 0, 75, 0
2, 66924, Note_on_c, 0, 77, 88
2, 66936, Note_on_c, 0, 63, 64
2, 67100, Note_on_c, 0, 75, 69
2, 67116, Note_on_c, 0, 77, 0
2, 67262, Note_on_c, 0, 75, 0
2, 67312, Note_on_c, 0, 77, 75
2, 67376, Note_on_c, 0, 63, 0
2, 67384, Note_on_c, 0, 60, 0
2, 67484, Note_on_c, 0, 76, 60
2, 67492, Note_on_c, 0, 60, 35
2, 67498, Note_on_c, 0, 64, 39
2, 67504, Note_on_c, 0, 77, 0
2, 67518, Note_on_c, 0, 55, 33
2, 67690, Note_on_c, 0, 76, 0
2, 67702, Note_on_c, 0, 72, 67
2, 67818, Note_on_c, 0, 72, 0
2, 67876, Note_on_c, 0, 67, 41
2, 67936, Note_on_c, 0, 60, 0
2, 67984, Note_on_c, 0, 55, 0
2, 67986, Note_on_c, 0, 64, 0
2, 68022, Note_on_c, 0, 67, 0
2, 68098, Note_on_c, 0, 69, 74
2, 68118, Note_on_c, 0, 55, 39
2, 68132, Note_on_c, 0, 65, 43
2, 68146, Note_on_c, 0, 61, 45
2, 68306, Note_on_c, 0, 69, 0
2, 68306, Note_on_c, 0, 70, 63
2, 68452, Note_on_c, 0, 70, 0
2, 68504, Note_on_c, 0, 72, 75
2, 68626, Note_on_c, 0, 72, 0
2, 68720, Note_on_c, 0, 65, 0
2, 68772, Note_on_c, 0, 55, 0
2, 68810, Note_on_c, 0, 61, 0
2, 68960, Note_on_c, 0, 64, 64
2, 68966, Note_on_c, 0, 60, 60
2, 69408, Note_on_c, 0, 74, 95
2, 69516, Note_on_c, 0, 60, 0
2, 69568, Note_on_c, 0, 64, 0
2, 69604, Note_on_c, 0, 73, 71
2, 69618, Note_on_c, 0, 74, 0
2, 69768, Note_on_c, 0, 73, 0
2, 69790, Note_on_c, 0, 75, 81
2, 69806, Note_on_c, 0, 59, 58
2, 69808, Note_on_c, 0, 63, 56
2, 69828, Note_on_c, 0, 53, 45
2, 69996, Note_on_c, 0, 74, 62
2, 70008, Note_on_c, 0, 75, 0
2, 70114, Note_on_c, 0, 74, 0
2, 70170, Note_on_c, 0, 76, 74
2, 70182, Note_on_c, 0, 59, 0
2, 70254, Note_on_c, 0, 63, 0
2, 70286, Note_on_c, 0, 53, 0
2, 70376, Note_on_c, 0, 75, 72
2, 70380, Note_on_c, 0, 76, 0
2, 70520, Note_on_c, 0, 75, 0
2, 70556, Note_on_c, 0, 77, 68
2, 70758, Note_on_c, 0, 75, 76
2, 70806, Note_on_c, 0, 77, 0
2, 70928, Note_on_c, 0, 75, 0
2, 70950, Note_on_c, 0, 70, 68
2, 71116, Note_on_c, 0, 70, 0
2, 71140, Note_on_c, 0, 65, 52
2, 71266, Note_on_c, 0, 65, 0
2, 71586, Note_on_c, 0, 74, 87
2, 71766, Note_on_c, 0, 72, 36
2, 71778, Note_on_c, 0, 74, 0
2, 71916, Note_on_c, 0, 72, 0
2, 71946, Note_on_c, 0, 67, 67
2, 72112, Note_on_c, 0, 67, 0
2, 72114, Note_on_c, 0, 63, 56
2, 72228, Note_on_c, 0, 63, 0
2, 72688, Note_on_c, 0, 50, 84
2, 72692, Note_on_c, 0, 49, 60
2, 72824, Note_on_c, 0, 49, 0
2, 72876, Note_on_c, 0, 70, 87
2, 72884, Note_on_c, 0, 50, 0
2, 73028, Note_on_c, 0, 70, 0
2, 73094, Note_on_c, 0, 68, 69
2, 73096, Note_on_c, 0, 43, 71
2, 73208, Note_on_c, 0, 68, 0
2, 73262, Note_on_c, 0, 63, 56
2, 73270, Note_on_c, 0, 68, 37
2, 73324, Note_on_c, 0, 53, 25
2, 73352, Note_on_c, 0, 68, 0
2, 73358, Note_on_c, 0, 53, 0
2, 73442, Note_on_c, 0, 59, 53
2, 73456, Note_on_c, 0, 63, 0
2, 73480, Note_on_c, 0, 43, 0
2, 73558, Note_on_c, 0, 59, 0
2, 73582, Note_on_c, 0, 47, 32
2, 73628, Note_on_c, 0, 47, 0
2, 73628, Note_on_c, 0, 65, 71
2, 73676, Note_on_c, 0, 48, 50
2, 73804, Note_on_c, 0, 65, 0
2, 73832, Note_on_c, 0, 63, 68
2, 73946, Note_on_c, 0, 43, 30
2, 73954, Note_on_c, 0, 48, 0
2, 73968, Note_on_c, 0, 63, 0
2, 74002, Note_on_c, 0, 43, 0
2, 74028, Note_on_c, 0, 55, 24
2, 74198, Note_on_c, 0, 55, 0
2, 74222, Note_on_c, 0, 62, 68
2, 74408, Note_on_c, 0, 60, 62
2, 74440, Note_on_c, 0, 62, 0
2, 74568, Note_on_c, 0, 60, 0
2, 74608, Note_on_c, 0, 55, 68
2, 74696, Note_on_c, 0, 55, 0
2, 74788, Note_on_c, 0, 60, 91
2, 74790, Note_on_c, 0, 45, 77
2, 74942, Note_on_c, 0, 45, 0
2, 74968, Note_on_c, 0, 60, 0
2, 75006, Note_on_c, 0, 60, 77
2, 75130, Note_on_c, 0, 60, 0
2, 75370, Note_on_c, 0, 38, 66
2, 75486, Note_on_c, 0, 38, 0
2, 75930, Note_on_c, 0, 60, 80
2, 76154, Note_on_c, 0, 60, 0
2, 76292, Note_on_c, 0, 59, 68
2, 76320, Note_on_c, 0, 43, 33
2, 76544, Note_on_c, 0, 59, 0
2, 76594, Note_on_c, 0, 43, 0
2, 76738, Note_on_c, 0, 36, 36
2, 76780, Note_on_c, 0, 36, 0
2, 77426, Note_on_c, 0, 58, 55
2, 77434, Note_on_c, 0, 75, 81
2, 77436, Note_on_c, 0, 87, 77
2, 77452, Note_on_c, 0, 52, 58
2, 77454, Note_on_c, 0, 63, 55
2, 77460, Note_on_c, 0, 82, 49
2, 77578, Control_c, 0, 64, 127
2, 77590, Note_on_c, 0, 82, 0
2, 77600, Note_on_c, 0, 75, 0
2, 77610, Note_on_c, 0, 52, 0
2, 77610, Note_on_c, 0, 63, 0
2, 77662, Note_on_c, 0, 87, 0
2, 77662, Note_on_c, 0, 76, 64
2, 77664, Note_on_c, 0, 88, 75
2, 77668, Note_on_c, 0, 63, 44
2, 77678, Note_on_c, 0, 52, 43
2, 77686, Note_on_c, 0, 82, 39
2, 77720, Note_on_c, 0, 82, 0
2, 77732, Note_on_c, 0, 52, 0
2, 77732, Control_c, 0, 64, 0
2, 77738, Note_on_c, 0, 76, 0
2, 77744, Note_on_c, 0, 88, 0
2, 77758, Note_on_c, 0, 63, 0
2, 77810, Note_on_c, 0, 63, 34
2, 77830, Note_on_c, 0, 52, 51
2, 77834, Note_on_c, 0, 77, 58
2, 77846, Note_on_c, 0, 89, 45
2, 77874, Note_on_c, 0, 52, 0
2, 77884, Note_on_c, 0, 89, 0
2, 77892, Note_on_c, 0, 63, 0
2, 77894, Note_on_c, 0, 77, 0
2, 77928, Note_on_c, 0, 58, 0
2, 78022, Note_on_c, 0, 52, 63
2, 78026, Note_on_c, 0, 78, 80
2, 78028, Note_on_c, 0, 58, 56
2, 78028, Note_on_c, 0, 63, 60
2, 78034, Note_on_c, 0, 90, 72
2, 78092, Note_on_c, 0, 63, 0
2, 78106, Note_on_c, 0, 78, 0
2, 78116, Note_on_c, 0, 52, 0
2, 78142, Note_on_c, 0, 58, 0
2, 78144, Note_on_c, 0, 90, 0
2, 78196, Note_on_c, 0, 58, 62
2, 78200, Note_on_c, 0, 63, 71
2, 78200, Note_on_c, 0, 52, 69
2, 78210, Note_on_c, 0, 91, 71
2, 78212, Note_on_c, 0, 87, 45
2, 78212, Note_on_c, 0, 79, 69
2, 78228, Note_on_c, 0, 84, 60
2, 78248, Note_on_c, 0, 89, 40
2, 78354, Note_on_c, 0, 52, 0
2, 78362, Note_on_c, 0, 79, 0
2, 78364, Note_on_c, 0, 84, 0
2, 78372, Note_on_c, 0, 91, 0
2, 78380, Note_on_c, 0, 87, 0
2, 78392, Note_on_c, 0, 58, 0
2, 78394, Note_on_c, 0, 89, 0
2, 78440, Note_on_c, 0, 63, 0
2, 78576, Note_on_c, 0, 63, 73
2, 78584, Note_on_c, 0, 60, 68
2, 78590, Note_on_c, 0, 89, 74
2, 78598, Note_on_c, 0, 77, 66
2, 78600, Note_on_c, 0, 84, 70
2, 78608, Note_on_c, 0, 57, 60
2, 78612, Note_on_c, 0, 53, 42
2, 78692, Note_on_c, 0, 84, 0
2, 78694, Note_on_c, 0, 89, 0
2, 78722, Note_on_c, 0, 53, 0
2, 78736, Note_on_c, 0, 77, 0
2, 78798, Note_on_c, 0, 57, 0
2, 78824, Note_on_c, 0, 63, 0
2, 78834, Note_on_c, 0, 60, 0
2, 79002, Note_on_c, 0, 74, 60
2, 79002, Note_on_c, 0, 78, 42
2, 79004, Note_on_c, 0, 86, 62
2, 79008, Note_on_c, 0, 63, 64
2, 79012, Note_on_c, 0, 60, 68
2, 79022, Note_on_c, 0, 81, 50
2, 79024, Note_on_c, 0, 82, 32
2, 79192, Note_on_c, 0, 82, 0
2, 79222, Note_on_c, 0, 86, 0
2, 79250, Note_on_c, 0, 63, 0
2, 79254, Note_on_c, 0, 78, 0
2, 79256, Note_on_c, 0, 81, 0
2, 79274, Note_on_c, 0, 74, 0
2, 79384, Note_on_c, 0, 63, 55
2, 79388, Note_on_c, 0, 84, 43
2, 79404, Note_on_c, 0, 72, 50
2, 79414, Note_on_c, 0, 78, 29
2, 79444, Note_on_c, 0, 72, 0
2, 79476, Note_on_c, 0, 84, 0
2, 79502, Note_on_c, 0, 78, 0
2, 79524, Note_on_c, 0, 60, 0
2, 79562, Note_on_c, 0, 63, 0
2, 79622, Note_on_c, 0, 86, 69
2, 79626, Note_on_c, 0, 74, 62
2, 79638, Note_on_c, 0, 81, 57
2, 79642, Note_on_c, 0, 64, 61
2, 79644, Note_on_c, 0, 60, 58
2, 79662, Note_on_c, 0, 55, 45
2, 79676, Note_on_c, 0, 74, 0
2, 79692, Note_on_c, 0, 81, 0
2, 79724, Note_on_c, 0, 64, 0
2, 79732, Note_on_c, 0, 86, 0
2, 79732, Note_on_c, 0, 60, 0
2, 79738, Note_on_c, 0, 55, 0
2, 80000, Note_on_c, 0, 84, 68
2, 80020, Note_on_c, 0, 72, 54
2, 80024, Note_on_c, 0, 60, 58
2, 80024, Note_on_c, 0, 55, 58
2, 80028, Note_on_c, 0, 64, 55
2, 80364, Note_on_c, 0, 60, 0
2, 80370, Note_on_c, 0, 64, 0
2, 80374, Note_on_c, 0, 84, 0
2, 80384, Control_c, 0, 64, 127
2, 80390, Note_on_c, 0, 55, 0
2, 80394, Note_on_c, 0, 72, 0
2, 80506, Control_c, 0, 64, 0
2, 80554, Note_on_c, 0, 83, 60
2, 80554, Note_on_c, 0, 64, 49
2, 80562, Note_on_c, 0, 71, 54
2, 80564, Note_on_c, 0, 59, 46
2, 80568, Note_on_c, 0, 79, 50
2, 80580, Note_on_c, 0, 53, 36
2, 80728, Note_on_c, 0, 59, 0
2, 80786, Note_on_c, 0, 64, 0
2, 80788, Note_on_c, 0, 71, 0
2, 80816, Note_on_c, 0, 83, 0
2, 80828, Note_on_c, 0, 53, 0
2, 80832, Note_on_c, 0, 79, 0
2, 80920, Note_on_c, 0, 84, 77
2, 80924, Note_on_c, 0, 62, 66
2, 80926, Note_on_c, 0, 72, 71
2, 80932, Note_on_c, 0, 78, 64
2, 80936, Note_on_c, 0, 52, 54
2, 80938, Note_on_c, 0, 57, 64
2, 81196, Note_on_c, 0, 78, 0
2, 81362, Note_on_c, 0, 72, 0
2, 81534, Control_c, 0, 64, 127
2, 81584, Note_on_c, 0, 84, 0
2, 81994, Control_c, 0, 64, 0
2, 82092, Note_on_c, 0, 86, 118
2, 82252, Note_on_c, 0, 86, 0
2, 82282, Note_on_c, 0, 89, 85
2, 82306, Note_on_c, 0, 57, 0
2, 82308, Note_on_c, 0, 52, 0
2, 82374, Control_c, 0, 64, 127
2, 82418, Note_on_c, 0, 62, 0
2, 82466, Note_on_c, 0, 87, 74
2, 82508, Note_on_c, 0, 89, 0
2, 82508, Control_c, 0, 64, 0
2, 82656, Note_on_c, 0, 87, 0
2, 82672, Note_on_c, 0, 83, 53
2, 82776, Note_on_c, 0, 83, 0
2, 82840, Note_on_c, 0, 63, 44
2, 82842, Note_on_c, 0, 62, 40
2, 82842, Note_on_c, 0, 67, 52
2, 82852, Note_on_c, 0, 86, 80
2, 82862, Note_on_c, 0, 57, 48
2, 83074, Note_on_c, 0, 84, 66
2, 83114, Note_on_c, 0, 86, 0
2, 83184, Note_on_c, 0, 84, 0
2, 83254, Note_on_c, 0, 77, 37
2, 83426, Note_on_c, 0, 77, 0
2, 83618, Note_on_c, 0, 77, 55
2, 83790, Note_on_c, 0, 63, 0
2, 83804, Note_on_c, 0, 77, 0
2, 83922, Note_on_c, 0, 67, 0
2, 83934, Note_on_c, 0, 62, 0
2, 83996, Note_on_c, 0, 77, 57
2, 84068, Note_on_c, 0, 57, 0
2, 84140, Note_on_c, 0, 77, 0
2, 84416, Note_on_c, 0, 63, 57
2, 84422, Note_on_c, 0, 67, 62
2, 84426, Note_on_c, 0, 62, 57
2, 84444, Note_on_c, 0, 57, 50
2, 84518, Note_on_c, 0, 67, 0
2, 84532, Note_on_c, 0, 62, 0
2, 84552, Note_on_c, 0, 57, 0
2, 84556, Note_on_c, 0, 63, 0
2, 84948, Note_on_c, 0, 63, 57
2, 84952, Note_on_c, 0, 62, 60
2, 84954, Note_on_c, 0, 67, 64
2, 84966, Note_on_c, 0, 57, 54
2, 85040, Note_on_c, 0, 67, 0
2, 85066, Note_on_c, 0, 62, 0
2, 85080, Note_on_c, 0, 63, 0
2, 85122, Note_on_c, 0, 57, 0
2, 85526, Note_on_c, 0, 58, 47
2, 85526, Note_on_c, 0, 62, 58
2, 85526, Note_on_c, 0, 57, 51
2, 85542, Note_on_c, 0, 52, 51
2, 85682, Note_on_c, 0, 57, 0
2, 85690, Note_on_c, 0, 62, 0
2, 85712, Note_on_c, 0, 52, 0
2, 85722, Note_on_c, 0, 58, 0
2, 86088, Note_on_c, 0, 62, 74
2, 86090, Note_on_c, 0, 57, 73
2, 86092, Note_on_c, 0, 58, 57
2, 86122, Note_on_c, 0, 52, 40
2, 86140, Note_on_c, 0, 62, 0
2, 86162, Note_on_c, 0, 52, 0
2, 86186, Note_on_c, 0, 58, 0
2, 86234, Note_on_c, 0, 57, 0
2, 86264, Note_on_c, 0, 93, 115
2, 86438, Note_on_c, 0, 93, 0
2, 86492, Note_on_c, 0, 96, 99
2, 86506, Note_on_c, 0, 58, 43
2, 86520, Note_on_c, 0, 57, 35
2, 86542, Note_on_c, 0, 58, 0
2, 86562, Note_on_c, 0, 57, 0
2, 86680, Note_on_c, 0, 94, 71
2, 86712, Note_on_c, 0, 96, 0
2, 86860, Note_on_c, 0, 90, 71
2, 86886, Note_on_c, 0, 58, 49
2, 86890, Note_on_c, 0, 57, 55
2, 86896, Note_on_c, 0, 62, 64
2, 86946, Note_on_c, 0, 94, 0
2, 86958, Note_on_c, 0, 52, 16
2, 87050, Note_on_c, 0, 88, 52
2, 87086, Note_on_c, 0, 62, 0
2, 87092, Note_on_c, 0, 90, 0
2, 87114, Note_on_c, 0, 58, 0
2, 87128, Note_on_c, 0, 57, 0
2, 87128, Note_on_c, 0, 52, 0
2, 87188, Note_on_c, 0, 88, 0
2, 87230, Note_on_c, 0, 93, 84
2, 87264, Note_on_c, 0, 57, 44
2, 87266, Note_on_c, 0, 62, 52
2, 87274, Note_on_c, 0, 58, 40
2, 87314, Note_on_c, 0, 62, 0
2, 87352, Note_on_c, 0, 58, 0
2, 87408, Note_on_c, 0, 57, 0
2, 87420, Note_on_c, 0, 91, 68
2, 87480, Note_on_c, 0, 93, 0
2, 87568, Note_on_c, 0, 91, 0
2, 87784, Note_on_c, 0, 87, 77
2, 87794, Note_on_c, 0, 87, 0
2, 87812, Note_on_c, 0, 85, 33
2, 87952, Note_on_c, 0, 85, 0
2, 88010, Note_on_c, 0, 90, 68
2, 88022, Note_on_c, 0, 52, 66
2, 88024, Note_on_c, 0, 63, 68
2, 88024, Note_on_c, 0, 58, 57
2, 88160, Note_on_c, 0, 90, 0
2, 88198, Note_on_c, 0, 89, 56
2, 88314, Note_on_c, 0, 63, 0
2, 88352, Note_on_c, 0, 89, 0
2, 88400, Note_on_c, 0, 63, 40
2, 88420, Note_on_c, 0, 87, 52
2, 88486, Note_on_c, 0, 63, 0
2, 88522, Note_on_c, 0, 87, 0
2, 88582, Note_on_c, 0, 52, 0
2, 88582, Note_on_c, 0, 88, 76
2, 88670, Note_on_c, 0, 58, 0
2, 88790, Note_on_c, 0, 87, 79
2, 88814, Note_on_c, 0, 88, 0
2, 88868, Note_on_c, 0, 60, 36
2, 88914, Note_on_c, 0, 60, 0
2, 88944, Note_on_c, 0, 87, 0
2, 88990, Note_on_c, 0, 84, 40
2, 89006, Note_on_c, 0, 86, 31
2, 89046, Note_on_c, 0, 86, 0
2, 89110, Note_on_c, 0, 84, 0
2, 89174, Note_on_c, 0, 82, 68
2, 89194, Note_on_c, 0, 63, 47
2, 89206, Note_on_c, 0, 56, 42
2, 89210, Note_on_c, 0, 67, 36
2, 89226, Note_on_c, 0, 60, 42
2, 89258, Note_on_c, 0, 67, 0
2, 89328, Note_on_c, 0, 56, 0
2, 89350, Note_on_c, 0, 63, 0
2, 89386, Note_on_c, 0, 82, 0
2, 89390, Note_on_c, 0, 80, 29
2, 89486, Note_on_c, 0, 60, 0
2, 89568, Note_on_c, 0, 80, 0
2, 89576, Note_on_c, 0, 79, 46
2, 89620, Note_on_c, 0, 79, 0
2, 89734, Note_on_c, 0, 82, 83
2, 89768, Note_on_c, 0, 63, 36
2, 89772, Note_on_c, 0, 67, 26
2, 89806, Note_on_c, 0, 67, 0
2, 89860, Note_on_c, 0, 63, 0
2, 89998, Note_on_c, 0, 82, 0
2, 90082, Note_on_c, 0, 55, 88
2, 90086, Note_on_c, 0, 61, 75
2, 90090, Note_on_c, 0, 65, 84
2, 90314, Note_on_c, 0, 65, 0
2, 90314, Note_on_c, 0, 55, 0
2, 90402, Note_on_c, 0, 61, 0
2, 90502, Note_on_c, 0, 60, 89
2, 90508, Note_on_c, 0, 64, 89
2, 90948, Note_on_c, 0, 64, 0
2, 90978, Note_on_c, 0, 60, 0
2, 91098, Note_on_c, 0, 84, 95
2, 91098, Note_on_c, 0, 60, 82
2, 91100, Note_on_c, 0, 64, 87
2, 91102, Note_on_c, 0, 72, 103
2, 91394, Note_on_c, 0, 72, 0
2, 91396, Note_on_c, 0, 84, 0
2, 91484, Note_on_c, 0, 81, 63
2, 91490, Note_on_c, 0, 64, 0
2, 91564, Note_on_c, 0, 81, 0
2, 91590, Note_on_c, 0, 60, 0
2, 91662, Note_on_c, 0, 84, 92
2, 91664, Note_on_c, 0, 60, 43
2, 91666, Note_on_c, 0, 72, 95
2, 91668, Note_on_c, 0, 64, 63
2, 91798, Note_on_c, 0, 72, 0
2, 91798, Note_on_c, 0, 84, 0
2, 91870, Note_on_c, 0, 84, 74
2, 91878, Note_on_c, 0, 72, 68
2, 91946, Note_on_c, 0, 60, 0
2, 92008, Note_on_c, 0, 72, 0
2, 92010, Note_on_c, 0, 84, 0
2, 92070, Note_on_c, 0, 64, 0
2, 92236, Note_on_c, 0, 83, 81
2, 92244, Note_on_c, 0, 71, 80
2, 92248, Note_on_c, 0, 53, 75
2, 92252, Note_on_c, 0, 59, 70
2, 92254, Note_on_c, 0, 64, 70
2, 92502, Note_on_c, 0, 71, 0
2, 92512, Note_on_c, 0, 53, 0
2, 92522, Note_on_c, 0, 83, 0
2, 92540, Note_on_c, 0, 64, 0
2, 92546, Note_on_c, 0, 59, 0
2, 92624, Note_on_c, 0, 79, 49
2, 92658, Note_on_c, 0, 79, 0
2, 92824, Note_on_c, 0, 83, 84
2, 92828, Note_on_c, 0, 71, 89
2, 92960, Note_on_c, 0, 71, 0
2, 92962, Note_on_c, 0, 83, 0
2, 93034, Note_on_c, 0, 83, 56
2, 93036, Note_on_c, 0, 71, 58
2, 93108, Note_on_c, 0, 71, 0
2, 93112, Note_on_c, 0, 83, 0
2, 93430, Note_on_c, 0, 55, 88
2, 93444, Note_on_c, 0, 65, 80
2, 93446, Note_on_c, 0, 61, 68
2, 93458, Note_on_c, 0, 64, 74
2, 93460, Note_on_c, 0, 58, 39
2, 93494, Note_on_c, 0, 58, 0
2, 93494, Note_on_c, 0, 64, 0
2, 93640, Note_on_c, 0, 65, 0
2, 93682, Note_on_c, 0, 55, 0
2, 93698, Note_on_c, 0, 61, 0
2, 93966, Note_on_c, 0, 60, 92
2, 93966, Note_on_c, 0, 64, 92
2, 94256, Note_on_c, 0, 60, 0
2, 94296, Note_on_c, 0, 64, 0
2, 94548, Note_on_c, 0, 63, 86
2, 94552, Note_on_c, 0, 59, 72
2, 94556, Note_on_c, 0, 56, 57
2, 94556, Note_on_c, 0, 53, 76
2, 94786, Note_on_c, 0, 59, 0
2, 94914, Note_on_c, 0, 53, 0
2, 94982, Note_on_c, 0, 63, 0
2, 94998, Note_on_c, 0, 56, 0
2, 95110, Note_on_c, 0, 62, 58
2, 95120, Note_on_c, 0, 57, 60
2, 95150, Note_on_c, 0, 51, 42
2, 95474, Note_on_c, 0, 87, 88
2, 95556, Note_on_c, 0, 51, 0
2, 95562, Note_on_c, 0, 62, 0
2, 95630, Note_on_c, 0, 87, 0
2, 95656, Note_on_c, 0, 57, 0
2, 95710, Note_on_c, 0, 82, 38
2, 95762, Note_on_c, 0, 82, 0
2, 95928, Note_on_c, 0, 87, 90
2, 95930, Note_on_c, 0, 62, 40
2, 95932, Note_on_c, 0, 51, 36
2, 95938, Note_on_c, 0, 57, 45
2, 95978, Note_on_c, 0, 87, 0
2, 95980, Note_on_c, 0, 62, 0
2, 95982, Note_on_c, 0, 51, 0
2, 95982, Note_on_c, 0, 57, 0
2, 96066, Note_on_c, 0, 87, 64
2, 96196, Note_on_c, 0, 87, 0
2, 96238, Note_on_c, 0, 82, 43
2, 96370, Note_on_c, 0, 82, 0
2, 96438, Note_on_c, 0, 63, 59
2, 96444, Note_on_c, 0, 60, 53
2, 96464, Note_on_c, 0, 57, 50
2, 96480, Note_on_c, 0, 55, 27
2, 96576, Note_on_c, 0, 60, 0
2, 96586, Note_on_c, 0, 55, 0
2, 96612, Note_on_c, 0, 57, 0
2, 96614, Note_on_c, 0, 63, 0
2, 97006, Note_on_c, 0, 65, 67
2, 97012, Note_on_c, 0, 58, 60
2, 97016, Note_on_c, 0, 60, 52
2, 97214, Note_on_c, 0, 60, 0
2, 97214, Note_on_c, 0, 65, 0
2, 97264, Note_on_c, 0, 58, 0
2, 97590, Note_on_c, 0, 63, 77
2, 97592, Note_on_c, 0, 59, 69
2, 97600, Note_on_c, 0, 53, 70
2, 97806, Note_on_c, 0, 59, 0
2, 97864, Note_on_c, 0, 53, 0
2, 97888, Note_on_c, 0, 63, 0
2, 97992, Note_on_c, 0, 62, 85
2, 98002, Note_on_c, 0, 51, 83
2, 98006, Note_on_c, 0, 57, 81
2, 98134, Note_on_c, 0, 51, 0
2, 98198, Note_on_c, 0, 78, 87
2, 98200, Note_on_c, 0, 90, 81
2, 98202, Note_on_c, 0, 62, 0
2, 98284, Note_on_c, 0, 57, 0
2, 98426, Note_on_c, 0, 78, 0
2, 98428, Note_on_c, 0, 90, 0
2, 98484, Note_on_c, 0, 57, 38
2, 98534, Note_on_c, 0, 57, 0
2, 98568, Note_on_c, 0, 89, 88
2, 98578, Note_on_c, 0, 77, 74
2, 98592, Note_on_c, 0, 79, 74
2, 98626, Note_on_c, 0, 79, 0
2, 98716, Note_on_c, 0, 89, 0
2, 98768, Note_on_c, 0, 77, 0
2, 98838, Note_on_c, 0, 62, 29
2, 98840, Note_on_c, 0, 57, 52
2, 98860, Note_on_c, 0, 51, 23
2, 98888, Note_on_c, 0, 62, 0
2, 98894, Note_on_c, 0, 51, 0
2, 98918, Note_on_c, 0, 85, 71
2, 98946, Note_on_c, 0, 57, 0
2, 98946, Note_on_c, 0, 73, 61
2, 99020, Note_on_c, 0, 86, 37
2, 99056, Note_on_c, 0, 73, 0
2, 99064, Note_on_c, 0, 85, 0
2, 99070, Note_on_c, 0, 74, 53
2, 99134, Note_on_c, 0, 86, 0
2, 99140, Note_on_c, 0, 74, 0
2, 99212, Note_on_c, 0, 63, 38
2, 99242, Note_on_c, 0, 53, 29
2, 99250, Note_on_c, 0, 63, 0
2, 99298, Note_on_c, 0, 53, 0
2, 99508, Note_on_c, 0, 62, 78
2, 99514, Note_on_c, 0, 51, 59
2, 99520, Note_on_c, 0, 57, 62
2, 99590, Note_on_c, 0, 62, 0
2, 99604, Note_on_c, 0, 57, 0
2, 99628, Note_on_c, 0, 51, 0
2, 99872, Note_on_c, 0, 53, 67
2, 99882, Note_on_c, 0, 63, 78
2, 99892, Note_on_c, 0, 58, 62
2, 100346, Note_on_c, 0, 53, 0
2, 100370, Note_on_c, 0, 63, 0
2, 100396, Note_on_c, 0, 58, 0
2, 100490, Note_on_c, 0, 62, 81
2, 100494, Note_on_c, 0, 57, 77
2, 100506, Note_on_c, 0, 51, 56
2, 100592, Note_on_c, 0, 51, 0
2, 100660, Note_on_c, 0, 62, 0
2, 100710, Note_on_c, 0, 57, 0
2, 100868, Note_on_c, 0, 51, 71
2, 100870, Note_on_c, 0, 57, 78
2, 100874, Note_on_c, 0, 62, 79
2, 100924, Note_on_c, 0, 60, 27
2, 100960, Note_on_c, 0, 60, 0
2, 101096, Note_on_c, 0, 57, 0
2, 101104, Note_on_c, 0, 62, 0
2, 101124, Note_on_c, 0, 51, 0
2, 101254, Note_on_c, 0, 84, 89
2, 101258, Note_on_c, 0, 72, 90
2, 101398, Note_on_c, 0, 72, 0
2, 101402, Note_on_c, 0, 84, 0
2, 101474, Note_on_c, 0, 72, 65
2, 101474, Note_on_c, 0, 84, 76
2, 101566, Note_on_c, 0, 72, 0
2, 101638, Note_on_c, 0, 72, 56
2, 101738, Note_on_c, 0, 72, 0
2, 101748, Note_on_c, 0, 84, 0
2, 101854, Note_on_c, 0, 72, 65
2, 101856, Note_on_c, 0, 84, 61
2, 101926, Note_on_c, 0, 72, 0
2, 101942, Note_on_c, 0, 84, 0
2, 102028, Note_on_c, 0, 84, 71
2, 102036, Note_on_c, 0, 72, 54
2, 102132, Note_on_c, 0, 72, 0
2, 102172, Note_on_c, 0, 84, 0
2, 102384, Note_on_c, 0, 63, 78
2, 102388, Note_on_c, 0, 58, 69
2, 102400, Note_on_c, 0, 52, 67
2, 102402, Note_on_c, 0, 87, 81
2, 102404, Note_on_c, 0, 75, 84
2, 102542, Note_on_c, 0, 75, 0
2, 102558, Note_on_c, 0, 87, 0
2, 102560, Note_on_c, 0, 52, 0
2, 102568, Note_on_c, 0, 63, 0
2, 102580, Note_on_c, 0, 58, 0
2, 102950, Note_on_c, 0, 51, 76
2, 102954, Note_on_c, 0, 57, 78
2, 102954, Note_on_c, 0, 62, 82
2, 102958, Note_on_c, 0, 77, 80
2, 102966, Note_on_c, 0, 89, 81
2, 102966, Note_on_c, 0, 84, 67
2, 103140, Note_on_c, 0, 84, 0
2, 103142, Note_on_c, 0, 77, 0
2, 103148, Note_on_c, 0, 89, 0
2, 103168, Note_on_c, 0, 57, 0
2, 103198, Note_on_c, 0, 62, 0
2, 103198, Note_on_c, 0, 51, 0
2, 103522, Note_on_c, 0, 63, 86
2, 103532, Note_on_c, 0, 60, 81
2, 103532, Note_on_c, 0, 90, 72
2, 103534, Note_on_c, 0, 85, 83
2, 103536, Note_on_c, 0, 78, 82
2, 103750, Note_on_c, 0, 78, 0
2, 103752, Note_on_c, 0, 85, 0
2, 103786, Note_on_c, 0, 90, 0
2, 103796, Note_on_c, 0, 60, 0
2, 103810, Note_on_c, 0, 63, 0
2, 104114, Note_on_c, 0, 55, 84
2, 104122, Note_on_c, 0, 91, 79
2, 104122, Note_on_c, 0, 60, 80
2, 104124, Note_on_c, 0, 64, 84
2, 104126, Note_on_c, 0, 79, 80
2, 104126, Note_on_c, 0, 86, 78
2, 104302, Note_on_c, 0, 79, 0
2, 104348, Note_on_c, 0, 60, 0
2, 104352, Note_on_c, 0, 86, 0
2, 104370, Note_on_c, 0, 91, 0
2, 104370, Note_on_c, 0, 64, 0
2, 104374, Note_on_c, 0, 55, 0
2, 104702, Note_on_c, 0, 55, 96
2, 104704, Note_on_c, 0, 61, 86
2, 104708, Note_on_c, 0, 93, 94
2, 104708, Note_on_c, 0, 65, 95
2, 104710, Note_on_c, 0, 81, 95
2, 104714, Note_on_c, 0, 88, 90
2, 104934, Note_on_c, 0, 81, 0
2, 104974, Note_on_c, 0, 88, 0
2, 104998, Note_on_c, 0, 93, 0
2, 105052, Note_on_c, 0, 65, 0
2, 105068, Note_on_c, 0, 61, 0
2, 105072, Note_on_c, 0, 55, 0
2, 105318, Note_on_c, 0, 98, 85
2, 105320, Note_on_c, 0, 61, 87
2, 105320, Note_on_c, 0, 55, 92
2, 105324, Note_on_c, 0, 86, 84
2, 105326, Note_on_c, 0, 65, 96
2, 105326, Note_on_c, 0, 93, 84
2, 105500, Note_on_c, 0, 86, 0
2, 105548, Note_on_c, 0, 93, 0
2, 105576, Note_on_c, 0, 98, 0
2, 105644, Note_on_c, 0, 65, 0
2, 105656, Note_on_c, 0, 55, 0
2, 105718, Note_on_c, 0, 61, 0
2, 105898, Note_on_c, 0, 105, 91
2, 105898, Note_on_c, 0, 64, 96
2, 105900, Note_on_c, 0, 93, 94
2, 105902, Note_on_c, 0, 60, 92
2, 106226, Note_on_c, 0, 105, 0
2, 106234, Note_on_c, 0, 60, 0
2, 106266, Note_on_c, 0, 93, 0
2, 106270, Note_on_c, 0, 64, 0
2, 106470, Note_on_c, 0, 63, 92
2, 106474, Note_on_c, 0, 53, 84
2, 106478, Note_on_c, 0, 59, 78
2, 106478, Note_on_c, 0, 56, 64
2, 106952, Note_on_c, 0, 59, 0
2, 107018, Note_on_c, 0, 101, 89
2, 107020, Note_on_c, 0, 89, 92
2, 107050, Note_on_c, 0, 53, 0
2, 107060, Note_on_c, 0, 63, 0
2, 107166, Note_on_c, 0, 101, 0
2, 107202, Note_on_c, 0, 56, 0
2, 107222, Note_on_c, 0, 99, 59
2, 107228, Note_on_c, 0, 89, 0
2, 107326, Note_on_c, 0, 99, 0
2, 107406, Note_on_c, 0, 62, 65
2, 107408, Note_on_c, 0, 101, 75
2, 107414, Note_on_c, 0, 89, 71
2, 107426, Note_on_c, 0, 55, 53
2, 107442, Note_on_c, 0, 57, 43
2, 107486, Note_on_c, 0, 57, 0
2, 107498, Note_on_c, 0, 62, 0
2, 107522, Note_on_c, 0, 101, 0
2, 107548, Note_on_c, 0, 89, 0
2, 107554, Note_on_c, 0, 55, 0
2, 107604, Note_on_c, 0, 101, 66
2, 107612, Note_on_c, 0, 89, 41
2, 107764, Note_on_c, 0, 101, 0
2, 107810, Note_on_c, 0, 89, 0
2, 107814, Note_on_c, 0, 99, 37
2, 107926, Note_on_c, 0, 99, 0
2, 107988, Note_on_c, 0, 101, 78
2, 108004, Note_on_c, 0, 89, 65
2, 108026, Note_on_c, 0, 62, 68
2, 108044, Note_on_c, 0, 57, 53
2, 108062, Note_on_c, 0, 62, 0
2, 108090, Note_on_c, 0, 57, 0
2, 108090, Note_on_c, 0, 101, 0
2, 108092, Note_on_c, 0, 89, 0
2, 108166, Note_on_c, 0, 101, 66
2, 108182, Note_on_c, 0, 89, 72
2, 108304, Note_on_c, 0, 89, 0
2, 108306, Note_on_c, 0, 101, 0
2, 108372, Note_on_c, 0, 101, 72
2, 108400, Note_on_c, 0, 89, 71
2, 108544, Note_on_c, 0, 63, 46
2, 108556, Note_on_c, 0, 99, 49
2, 108570, Note_on_c, 0, 55, 38
2, 108572, Note_on_c, 0, 89, 0
2, 108580, Note_on_c, 0, 60, 31
2, 108582, Note_on_c, 0, 57, 35
2, 108610, Note_on_c, 0, 101, 0
2, 108630, Note_on_c, 0, 60, 0
2, 108674, Note_on_c, 0, 63, 0
2, 108684, Note_on_c, 0, 55, 0
2, 108690, Note_on_c, 0, 99, 0
2, 108702, Note_on_c, 0, 57, 0
2, 108766, Note_on_c, 0, 101, 79
2, 108774, Note_on_c, 0, 89, 73
2, 108852, Note_on_c, 0, 101, 0
2, 108864, Note_on_c, 0, 89, 0
2, 108936, Note_on_c, 0, 89, 71
2, 108938, Note_on_c, 0, 101, 58
2, 109032, Note_on_c, 0, 101, 0
2, 109050, Note_on_c, 0, 89, 0
2, 109174, Note_on_c, 0, 62, 68
2, 109176, Note_on_c, 0, 101, 61
2, 109182, Note_on_c, 0, 89, 65
2, 109186, Note_on_c, 0, 60, 55
2, 109192, Note_on_c, 0, 100, 43
2, 109200, Note_on_c, 0, 91, 22
2, 109206, Note_on_c, 0, 58, 29
2, 109210, Note_on_c, 0, 62, 0
2, 109220, Note_on_c, 0, 60, 0
2, 109226, Note_on_c, 0, 89, 0
2, 109234, Note_on_c, 0, 100, 0
2, 109236, Note_on_c, 0, 91, 0
2, 109256, Note_on_c, 0, 101, 0
2, 109328, Note_on_c, 0, 58, 0
2, 109540, Note_on_c, 0, 58, 45
2, 109544, Note_on_c, 0, 62, 53
2, 109546, Note_on_c, 0, 60, 48
2, 109580, Note_on_c, 0, 60, 0
2, 109618, Note_on_c, 0, 62, 0
2, 109672, Note_on_c, 0, 58, 0
2, 109850, Note_on_c, 0, 63, 54
2, 109854, Note_on_c, 0, 59, 52
2, 109866, Note_on_c, 0, 53, 52
2, 109986, Note_on_c, 0, 53, 0
2, 109996, Note_on_c, 0, 63, 0
2, 110028, Note_on_c, 0, 59, 0
2, 110118, Note_on_c, 0, 63, 54
2, 110122, Note_on_c, 0, 53, 50
2, 110126, Note_on_c, 0, 59, 37
2, 110248, Note_on_c, 0, 59, 0
2, 110288, Note_on_c, 0, 53, 0
2, 110350, Note_on_c, 0, 63, 0
2, 110470, Note_on_c, 0, 62, 50
2, 110480, Note_on_c, 0, 51, 39
2, 110496, Note_on_c, 0, 55, 42
2, 110498, Note_on_c, 0, 57, 39
2, 110946, Note_on_c, 0, 62, 0
2, 110974, Note_on_c, 0, 57, 0
2, 111006, Note_on_c, 0, 55, 0
2, 111032, Note_on_c, 0, 98, 88
2, 111088, Note_on_c, 0, 57, 59
2, 111094, Note_on_c, 0, 62, 45
2, 111112, Note_on_c, 0, 55, 58
2, 111168, Note_on_c, 0, 98, 0
2, 111236, Note_on_c, 0, 101, 91
2, 111356, Note_on_c, 0, 101, 0
2, 111374, Note_on_c, 0, 57, 0
2, 111376, Note_on_c, 0, 55, 0
2, 111386, Note_on_c, 0, 51, 0
2, 111438, Note_on_c, 0, 99, 76
2, 111502, Note_on_c, 0, 62, 0
2, 111618, Note_on_c, 0, 99, 0
2, 111628, Note_on_c, 0, 96, 53
2, 111786, Note_on_c, 0, 96, 0
2, 111818, Note_on_c, 0, 91, 58
2, 111832, Note_on_c, 0, 93, 41
2, 111846, Note_on_c, 0, 62, 53
2, 111864, Note_on_c, 0, 60, 46
2, 111874, Note_on_c, 0, 93, 0
2, 111906, Note_on_c, 0, 60, 0
2, 111910, Note_on_c, 0, 62, 0
2, 111944, Note_on_c, 0, 91, 0
2, 112006, Note_on_c, 0, 90, 45
2, 112190, Note_on_c, 0, 90, 0
2, 112194, Note_on_c, 0, 89, 79
2, 112232, Note_on_c, 0, 62, 59
2, 112232, Note_on_c, 0, 58, 45
2, 112234, Note_on_c, 0, 60, 58
2, 112294, Note_on_c, 0, 60, 0
2, 112308, Note_on_c, 0, 89, 0
2, 112324, Note_on_c, 0, 62, 0
2, 112372, Note_on_c, 0, 87, 42
2, 112384, Note_on_c, 0, 58, 0
2, 112576, Note_on_c, 0, 87, 0
2, 112590, Note_on_c, 0, 84, 39
2, 112642, Note_on_c, 0, 84, 0
2, 112644, Note_on_c, 0, 59, 46
2, 112652, Note_on_c, 0, 63, 42
2, 112666, Note_on_c, 0, 53, 42
2, 112726, Note_on_c, 0, 63, 0
2, 112766, Note_on_c, 0, 86, 72
2, 112802, Note_on_c, 0, 59, 0
2, 112910, Note_on_c, 0, 87, 84
2, 112932, Note_on_c, 0, 86, 0
2, 112958, Note_on_c, 0, 62, 34
2, 112992, Note_on_c, 0, 53, 0
2, 113002, Note_on_c, 0, 62, 0
2, 113010, Note_on_c, 0, 88, 75
2, 113016, Note_on_c, 0, 87, 0
2, 113110, Note_on_c, 0, 88, 0
2, 113196, Note_on_c, 0, 86, 78
2, 113286, Note_on_c, 0, 87, 37
2, 113406, Note_on_c, 0, 88, 55
2, 113410, Note_on_c, 0, 87, 0
2, 113414, Note_on_c, 0, 86, 0
2, 113442, Note_on_c, 0, 88, 0
2, 113442, Note_on_c, 0, 58, 28
2, 113534, Note_on_c, 0, 58, 0
2, 113544, Note_on_c, 0, 86, 70
2, 113600, Note_on_c, 0, 87, 48
2, 113738, Note_on_c, 0, 86, 0
2, 113740, Note_on_c, 0, 88, 71
2, 113742, Note_on_c, 0, 87, 0
2, 113810, Note_on_c, 0, 88, 0
2, 113906, Note_on_c, 0, 84, 70
2, 114088, Note_on_c, 0, 84, 0
2, 114134, Note_on_c, 0, 79, 48
2, 114248, Note_on_c, 0, 79, 0
2, 114354, Note_on_c, 0, 84, 69
2, 114356, Note_on_c, 0, 77, 65
2, 114362, Note_on_c, 0, 79, 71
2, 114528, Note_on_c, 0, 79, 0
2, 114554, Note_on_c, 0, 84, 0
2, 114562, Note_on_c, 0, 77, 0
2, 114576, Note_on_c, 0, 58, 29
2, 114624, Note_on_c, 0, 58, 0
2, 114646, Note_on_c, 0, 75, 64
2, 114800, Note_on_c, 0, 75, 0
2, 114900, Note_on_c, 0, 78, 72
2, 114912, Note_on_c, 0, 84, 73
2, 114914, Note_on_c, 0, 51, 51
2, 114916, Note_on_c, 0, 60, 62
2, 114916, Note_on_c, 0, 57, 62
2, 114964, Note_on_c, 0, 60, 0
2, 115024, Note_on_c, 0, 57, 0
2, 115060, Note_on_c, 0, 51, 0
2, 115132, Note_on_c, 0, 84, 0
2, 115136, Note_on_c, 0, 78, 0
2, 115636, Note_on_c, 0, 51, 57
2, 115640, Note_on_c, 0, 60, 75
2, 115650, Note_on_c, 0, 57, 62
2, 115680, Note_on_c, 0, 60, 0
2, 115688, Note_on_c, 0, 57, 0
2, 115714, Note_on_c, 0, 51, 0
2, 116000, Note_on_c, 0, 84, 88
2, 116006, Note_on_c, 0, 72, 89
2, 116024, Note_on_c, 0, 82, 53
2, 116058, Note_on_c, 0, 82, 0
2, 116074, Note_on_c, 0, 72, 0
2, 116084, Note_on_c, 0, 57, 31
2, 116136, Note_on_c, 0, 57, 0
2, 116156, Note_on_c, 0, 84, 0
2, 116232, Note_on_c, 0, 81, 58
2, 116300, Note_on_c, 0, 81, 0
2, 116406, Note_on_c, 0, 84, 74
2, 116418, Note_on_c, 0, 72, 71
2, 116472, Note_on_c, 0, 72, 0
2, 116486, Note_on_c, 0, 84, 0
2, 116598, Note_on_c, 0, 60, 74
2, 116600, Note_on_c, 0, 57, 65
2, 116602, Note_on_c, 0, 86, 85
2, 116606, Note_on_c, 0, 74, 78
2, 116630, Note_on_c, 0, 50, 34
2, 116630, Note_on_c, 0, 80, 28
2, 116638, Note_on_c, 0, 52, 33
2, 116666, Note_on_c, 0, 80, 0
2, 116676, Note_on_c, 0, 74, 0
2, 116676, Note_on_c, 0, 50, 0
2, 116678, Note_on_c, 0, 60, 0
2, 116678, Note_on_c, 0, 52, 0
2, 116706, Note_on_c, 0, 86, 0
2, 116724, Note_on_c, 0, 57, 0
2, 116946, Note_on_c, 0, 75, 90
2, 116950, Note_on_c, 0, 55, 74
2, 116952, Note_on_c, 0, 87, 84
2, 116964, Note_on_c, 0, 64, 58
2, 116968, Note_on_c, 0, 82, 60
2, 116978, Note_on_c, 0, 56, 42
2, 116998, Note_on_c, 0, 64, 0
2, 117002, Note_on_c, 0, 82, 0
2, 117014, Note_on_c, 0, 56, 0
2, 117120, Note_on_c, 0, 55, 0
2, 117154, Note_on_c, 0, 75, 0
2, 117174, Note_on_c, 0, 87, 0
2, 117342, Note_on_c, 0, 61, 75
2, 117344, Note_on_c, 0, 55, 80
2, 117352, Note_on_c, 0, 65, 81
2, 117360, Note_on_c, 0, 82, 81
2, 117364, Control_c, 0, 64, 127
2, 117364, Note_on_c, 0, 88, 85
2, 117366, Note_on_c, 0, 76, 81
2, 117404, Note_on_c, 0, 86, 28
2, 117442, Note_on_c, 0, 86, 0
2, 117470, Note_on_c, 0, 76, 0
2, 117486, Note_on_c, 0, 65, 0
2, 117494, Note_on_c, 0, 82, 0
2, 117506, Note_on_c, 0, 88, 0
2, 117516, Note_on_c, 0, 55, 0
2, 117542, Note_on_c, 0, 61, 0
2, 117602, Note_on_c, 0, 55, 70
2, 117608, Note_on_c, 0, 91, 60
2, 117612, Note_on_c, 0, 61, 68
2, 117614, Note_on_c, 0, 79, 60
2, 117618, Note_on_c, 0, 65, 52
2, 117630, Control_c, 0, 64, 0
2, 117632, Note_on_c, 0, 89, 34
2, 117642, Note_on_c, 0, 91, 0
2, 117648, Note_on_c, 0, 79, 0
2, 117654, Note_on_c, 0, 65, 0
2, 117674, Note_on_c, 0, 89, 0
2, 117740, Note_on_c, 0, 65, 67
2, 117764, Note_on_c, 0, 80, 64
2, 117766, Note_on_c, 0, 92, 72
2, 117774, Control_c, 0, 64, 127
2, 117848, Note_on_c, 0, 65, 0
2, 117866, Note_on_c, 0, 55, 0
2, 117908, Control_c, 0, 64, 0
2, 117912, Note_on_c, 0, 92, 0
2, 117924, Note_on_c, 0, 80, 0
2, 117946, Note_on_c, 0, 61, 0
2, 117992, Note_on_c, 0, 81, 76
2, 117994, Note_on_c, 0, 93, 75
2, 117994, Note_on_c, 0, 60, 81
2, 117996, Note_on_c, 0, 64, 81
2, 117996, Note_on_c, 0, 86, 66
2, 118010, Note_on_c, 0, 89, 60
2, 118028, Note_on_c, 0, 91, 40
2, 118112, Control_c, 0, 64, 127
2, 118130, Note_on_c, 0, 81, 0
2, 118146, Note_on_c, 0, 86, 0
2, 118154, Note_on_c, 0, 91, 0
2, 118156, Note_on_c, 0, 93, 0
2, 118160, Note_on_c, 0, 89, 0
2, 118188, Note_on_c, 0, 64, 0
2, 118222, Note_on_c, 0, 60, 0
2, 118256, Control_c, 0, 64, 0
2, 118338, Note_on_c, 0, 94, 80
2, 118342, Note_on_c, 0, 82, 78
2, 118348, Note_on_c, 0, 64, 85
2, 118350, Note_on_c, 0, 87, 75
2, 118352, Note_on_c, 0, 60, 80
2, 118366, Note_on_c, 0, 58, 58
2, 118462, Control_c, 0, 64, 127
2, 118514, Note_on_c, 0, 64, 0
2, 118522, Note_on_c, 0, 58, 0
2, 118526, Note_on_c, 0, 60, 0
2, 118540, Note_on_c, 0, 87, 0
2, 118566, Note_on_c, 0, 82, 0
2, 118574, Note_on_c, 0, 94, 0
2, 118678, Control_c, 0, 64, 0
2, 118728, Note_on_c, 0, 88, 82
2, 118728, Note_on_c, 0, 59, 79
2, 118730, Note_on_c, 0, 63, 85
2, 118734, Note_on_c, 0, 95, 80
2, 118734, Note_on_c, 0, 53, 77
2, 118736, Note_on_c, 0, 83, 72
2, 118738, Note_on_c, 0, 56, 58
2, 118738, Note_on_c, 0, 91, 68
2, 118796, Note_on_c, 0, 93, 24
2, 118898, Note_on_c, 0, 88, 0
2, 118898, Control_c, 0, 64, 127
2, 118902, Note_on_c, 0, 83, 0
2, 118922, Note_on_c, 0, 91, 0
2, 118924, Note_on_c, 0, 53, 0
2, 118934, Note_on_c, 0, 63, 0
2, 118950, Note_on_c, 0, 93, 0
2, 118964, Note_on_c, 0, 56, 0
2, 118964, Note_on_c, 0, 95, 0
2, 118990, Note_on_c, 0, 59, 0
2, 119110, Note_on_c, 0, 59, 68
2, 119110, Note_on_c, 0, 63, 84
2, 119114, Control_c, 0, 64, 0
2, 119118, Note_on_c, 0, 56, 60
2, 119120, Note_on_c, 0, 53, 77
2, 119122, Note_on_c, 0, 96, 92
2, 119122, Note_on_c, 0, 84, 92
2, 119226, Control_c, 0, 64, 127
2, 119262, Note_on_c, 0, 84, 0
2, 119290, Note_on_c, 0, 59, 0
2, 119306, Note_on_c, 0, 96, 0
2, 119318, Note_on_c, 0, 63, 0
2, 119328, Note_on_c, 0, 53, 0
2, 119366, Note_on_c, 0, 56, 0
2, 119462, Note_on_c, 0, 63, 74
2, 119464, Note_on_c, 0, 56, 56
2, 119466, Note_on_c, 0, 53, 64
2, 119476, Note_on_c, 0, 98, 89
2, 119482, Note_on_c, 0, 86, 85
2, 119484, Note_on_c, 0, 59, 65
2, 119492, Note_on_c, 0, 97, 64
2, 119518, Note_on_c, 0, 59, 0
2, 119556, Note_on_c, 0, 53, 0
2, 119574, Note_on_c, 0, 63, 0
2, 119580, Note_on_c, 0, 97, 0
2, 119592, Note_on_c, 0, 86, 0
2, 119610, Note_on_c, 0, 98, 0
2, 119626, Control_c, 0, 64, 0
2, 119638, Note_on_c, 0, 56, 0
2, 119686, Note_on_c, 0, 62, 77
2, 119696, Note_on_c, 0, 96, 82
2, 119698, Note_on_c, 0, 84, 78
2, 119708, Note_on_c, 0, 57, 67
2, 119710, Note_on_c, 0, 55, 71
2, 119712, Note_on_c, 0, 51, 56
2, 120058, Control_c, 0, 64, 127
2, 120102, Note_on_c, 0, 84, 0
2, 120110, Note_on_c, 0, 96, 0
2, 120126, Note_on_c, 0, 62, 0
2, 120134, Note_on_c, 0, 51, 0
2, 120150, Note_on_c, 0, 57, 0
2, 120150, Note_on_c, 0, 55, 0
2, 120266, Note_on_c, 0, 62, 71
2, 120270, Note_on_c, 0, 57, 71
2, 120272, Note_on_c, 0, 51, 68
2, 120276, Note_on_c, 0, 55, 61
2, 120276, Note_on_c, 0, 98, 85
2, 120278, Note_on_c, 0, 86, 79
2, 120286, Control_c, 0, 64, 0
2, 120288, Note_on_c, 0, 91, 63
2, 120300, Note_on_c, 0, 94, 38
2, 120310, Note_on_c, 0, 55, 0
2, 120314, Note_on_c, 0, 51, 0
2, 120336, Note_on_c, 0, 94, 0
2, 120352, Note_on_c, 0, 57, 0
2, 120358, Note_on_c, 0, 62, 0
2, 120366, Note_on_c, 0, 86, 0
2, 120374, Note_on_c, 0, 91, 0
2, 120384, Note_on_c, 0, 98, 0
2, 120478, Note_on_c, 0, 96, 74
2, 120482, Note_on_c, 0, 91, 62
2, 120484, Note_on_c, 0, 60, 81
2, 120484, Note_on_c, 0, 55, 76
2, 120490, Note_on_c, 0, 84, 66
2, 120494, Note_on_c, 0, 58, 43
2, 120508, Note_on_c, 0, 64, 36
2, 120508, Note_on_c, 0, 57, 64
2, 120512, Note_on_c, 0, 65, 59
2, 120534, Note_on_c, 0, 63, 15
2, 120546, Note_on_c, 0, 65, 0
2, 120562, Note_on_c, 0, 64, 0
2, 120836, Note_on_c, 0, 84, 0
2, 120838, Note_on_c, 0, 96, 0
2, 120858, Control_c, 0, 64, 127
2, 120870, Note_on_c, 0, 55, 0
2, 120870, Note_on_c, 0, 58, 0
2, 120880, Note_on_c, 0, 57, 0
2, 120882, Note_on_c, 0, 63, 0
2, 120896, Note_on_c, 0, 91, 0
2, 120908, Note_on_c, 0, 60, 0
2, 120940, Control_c, 0, 64, 0
2, 121006, Note_on_c, 0, 60, 78
2, 121010, Note_on_c, 0, 58, 72
2, 121012, Note_on_c, 0, 65, 89
2, 121018, Note_on_c, 0, 98, 91
2, 121020, Note_on_c, 0, 91, 77
2, 121024, Note_on_c, 0, 86, 80
2, 121032, Note_on_c, 0, 94, 56
2, 121052, Note_on_c, 0, 64, 29
2, 121066, Note_on_c, 0, 94, 0
2, 121088, Note_on_c, 0, 64, 0
2, 121130, Note_on_c, 0, 86, 0
2, 121132, Note_on_c, 0, 65, 0
2, 121146, Note_on_c, 0, 98, 0
2, 121162, Note_on_c, 0, 91, 0
2, 121216, Note_on_c, 0, 60, 0
2, 121216, Note_on_c, 0, 65, 72
2, 121230, Note_on_c, 0, 96, 63
2, 121232, Note_on_c, 0, 60, 55
2, 121234, Note_on_c, 0, 91, 68
2, 121234, Note_on_c, 0, 84, 58
2, 121270, Control_c, 0, 64, 127
2, 121332, Note_on_c, 0, 84, 0
2, 121342, Note_on_c, 0, 96, 0
2, 121364, Note_on_c, 0, 65, 0
2, 121382, Control_c, 0, 64, 0
2, 121384, Note_on_c, 0, 91, 0
2, 121388, Note_on_c, 0, 60, 0
2, 121422, Note_on_c, 0, 58, 0
2, 121448, Note_on_c, 0, 65, 75
2, 121460, Note_on_c, 0, 58, 25
2, 121464, Note_on_c, 0, 91, 53
2, 121474, Note_on_c, 0, 86, 60
2, 121474, Note_on_c, 0, 98, 72
2, 121478, Note_on_c, 0, 60, 73
2, 121488, Note_on_c, 0, 94, 36
2, 121506, Note_on_c, 0, 86, 0
2, 121512, Note_on_c, 0, 60, 0
2, 121524, Note_on_c, 0, 94, 0
2, 121532, Note_on_c, 0, 65, 0
2, 121536, Note_on_c, 0, 91, 0
2, 121570, Note_on_c, 0, 98, 0
2, 121628, Note_on_c, 0, 58, 0
2, 121780, Note_on_c, 0, 64, 88
2, 121782, Note_on_c, 0, 53, 84
2, 121782, Note_on_c, 0, 59, 75
2, 121792, Note_on_c, 0, 56, 43
2, 121794, Note_on_c, 0, 105, 62
2, 121796, Note_on_c, 0, 103, 68
2, 121798, Note_on_c, 0, 91, 60
2, 121800, Note_on_c, 0, 93, 65
2, 121814, Note_on_c, 0, 100, 26
2, 121822, Note_on_c, 0, 98, 39
2, 121826, Note_on_c, 0, 56, 0
2, 121832, Note_on_c, 0, 93, 0
2, 121844, Note_on_c, 0, 91, 0
2, 121868, Note_on_c, 0, 100, 0
2, 121870, Note_on_c, 0, 98, 0
2, 121880, Note_on_c, 0, 105, 0
2, 121914, Note_on_c, 0, 103, 0
2, 121926, Note_on_c, 0, 64, 0
2, 121944, Note_on_c, 0, 53, 0
2, 121956, Note_on_c, 0, 59, 0
2, 122000, Control_c, 0, 64, 127
2, 122062, Control_c, 0, 64, 0
2, 122156, Note_on_c, 0, 53, 76
2, 122158, Note_on_c, 0, 63, 83
2, 122160, Note_on_c, 0, 59, 74
2, 122162, Note_on_c, 0, 101, 78
2, 122164, Note_on_c, 0, 96, 80
2, 122172, Note_on_c, 0, 56, 57
2, 122174, Note_on_c, 0, 89, 69
2, 122312, Note_on_c, 0, 96, 0
2, 122312, Note_on_c, 0, 101, 0
2, 122346, Note_on_c, 0, 89, 0
2, 122370, Note_on_c, 0, 59, 0
2, 122382, Note_on_c, 0, 63, 0
2, 122394, Note_on_c, 0, 53, 0
2, 122418, Note_on_c, 0, 56, 0
2, 122536, Note_on_c, 0, 99, 80
2, 122538, Note_on_c, 0, 62, 88
2, 122540, Note_on_c, 0, 51, 80
2, 122542, Note_on_c, 0, 87, 85
2, 122544, Note_on_c, 0, 57, 82
2, 122646, Note_on_c, 0, 62, 0
2, 122664, Note_on_c, 0, 87, 0
2, 122670, Note_on_c, 0, 99, 0
2, 122682, Note_on_c, 0, 51, 0
2, 122692, Note_on_c, 0, 57, 0
2, 122750, Note_on_c, 0, 62, 61
2, 122752, Note_on_c, 0, 51, 67
2, 122754, Note_on_c, 0, 96, 75
2, 122756, Note_on_c, 0, 57, 71
2, 122776, Note_on_c, 0, 84, 68
2, 122906, Control_c, 0, 64, 127
2, 122990, Control_c, 0, 64, 0
2, 123018, Note_on_c, 0, 96, 0
2, 123020, Note_on_c, 0, 62, 0
2, 123024, Note_on_c, 0, 84, 0
2, 123030, Note_on_c, 0, 51, 0
2, 123044, Note_on_c, 0, 57, 0
2, 123108, Note_on_c, 0, 51, 62
2, 123116, Note_on_c, 0, 62, 76
2, 123120, Note_on_c, 0, 96, 80
2, 123122, Note_on_c, 0, 57, 84
2, 123130, Note_on_c, 0, 84, 77
2, 123132, Note_on_c, 0, 91, 82
2, 123256, Note_on_c, 0, 91, 0
2, 123258, Note_on_c, 0, 96, 0
2, 123286, Note_on_c, 0, 84, 0
2, 123300, Note_on_c, 0, 57, 0
2, 123316, Note_on_c, 0, 51, 0
2, 123344, Note_on_c, 0, 62, 0
2, 123676, Note_on_c, 0, 63, 82
2, 123680, Note_on_c, 0, 55, 75
2, 123682, Note_on_c, 0, 91, 78
2, 123686, Note_on_c, 0, 79, 74
2, 123686, Note_on_c, 0, 60, 71
2, 123690, Note_on_c, 0, 87, 60
2, 123690, Note_on_c, 0, 84, 71
2, 123704, Note_on_c, 0, 57, 58
2, 123722, Note_on_c, 0, 89, 39
2, 123774, Note_on_c, 0, 89, 0
2, 123934, Note_on_c, 0, 84, 0
2, 123960, Note_on_c, 0, 87, 0
2, 123960, Note_on_c, 0, 79, 0
2, 123976, Control_c, 0, 64, 127
2, 123978, Note_on_c, 0, 91, 0
2, 123980, Note_on_c, 0, 60, 0
2, 123992, Note_on_c, 0, 57, 0
2, 124016, Note_on_c, 0, 55, 0
2, 124038, Note_on_c, 0, 87, 51
2, 124074, Note_on_c, 0, 55, 22
2, 124100, Note_on_c, 0, 60, 33
2, 124118, Note_on_c, 0, 63, 0
2, 124124, Note_on_c, 0, 55, 0
2, 124152, Control_c, 0, 64, 0
2, 124154, Note_on_c, 0, 60, 0
2, 124176, Note_on_c, 0, 87, 0
2, 124272, Note_on_c, 0, 65, 91
2, 124274, Note_on_c, 0, 60, 72
2, 124274, Note_on_c, 0, 58, 71
2, 124278, Note_on_c, 0, 82, 76
2, 124278, Note_on_c, 0, 77, 81
2, 124288, Note_on_c, 0, 89, 81
2, 124288, Note_on_c, 0, 86, 68
2, 124476, Note_on_c, 0, 82, 0
2, 124556, Note_on_c, 0, 89, 0
2, 124558, Note_on_c, 0, 86, 0
2, 124598, Note_on_c, 0, 77, 0
2, 124634, Note_on_c, 0, 82, 45
2, 124680, Note_on_c, 0, 65, 0
2, 124682, Note_on_c, 0, 60, 0
2, 124712, Control_c, 0, 64, 127
2, 124744, Note_on_c, 0, 58, 0
2, 124762, Control_c, 0, 64, 0
2, 124780, Note_on_c, 0, 82, 0
2, 124848, Note_on_c, 0, 63, 92
2, 124858, Note_on_c, 0, 53, 87
2, 124858, Note_on_c, 0, 87, 77
2, 124866, Note_on_c, 0, 82, 70
2, 124868, Note_on_c, 0, 59, 71
2, 124870, Note_on_c, 0, 75, 75
2, 124902, Note_on_c, 0, 59, 0
2, 124932, Note_on_c, 0, 59, 28
2, 125106, Note_on_c, 0, 75, 0
2, 125112, Note_on_c, 0, 59, 0
2, 125128, Note_on_c, 0, 82, 0
2, 125166, Note_on_c, 0, 87, 0
2, 125168, Note_on_c, 0, 63, 0
2, 125184, Note_on_c, 0, 53, 0
2, 125194, Control_c, 0, 64, 127
2, 125348, Control_c, 0, 64, 0
2, 125400, Note_on_c, 0, 63, 82
2, 125402, Note_on_c, 0, 58, 73
2, 125404, Note_on_c, 0, 52, 80
2, 125416, Note_on_c, 0, 84, 80
2, 125424, Note_on_c, 0, 79, 70
2, 125424, Note_on_c, 0, 72, 72
2, 125608, Note_on_c, 0, 84, 0
2, 125610, Note_on_c, 0, 79, 0
2, 125660, Note_on_c, 0, 72, 0
2, 125680, Note_on_c, 0, 63, 0
2, 125680, Note_on_c, 0, 52, 0
2, 125736, Note_on_c, 0, 58, 0
2, 125998, Note_on_c, 0, 79, 69
2, 126000, Note_on_c, 0, 62, 82
2, 126002, Note_on_c, 0, 75, 63
2, 126002, Note_on_c, 0, 67, 71
2, 126008, Note_on_c, 0, 72, 68
2, 126010, Note_on_c, 0, 57, 75
2, 126014, Note_on_c, 0, 51, 65
2, 126094, Note_on_c, 0, 62, 0
2, 126136, Note_on_c, 0, 57, 0
2, 126184, Note_on_c, 0, 79, 0
2, 126188, Note_on_c, 0, 51, 0
2, 126216, Note_on_c, 0, 72, 0
2, 126232, Note_on_c, 0, 75, 0
2, 126268, Note_on_c, 0, 67, 0
2, 126610, Control_c, 0, 64, 127
2, 126878, Control_c, 0, 64, 0
2, 126926, Note_on_c, 0, 74, 76
2, 126930, Note_on_c, 0, 62, 89
2, 126934, Note_on_c, 0, 63, 83
2, 126936, Note_on_c, 0, 66, 74
2, 126954, Note_on_c, 0, 69, 66
2, 127072, Note_on_c, 0, 69, 0
2, 127090, Note_on_c, 0, 74, 0
2, 127104, Note_on_c, 0, 66, 0
2, 127106, Note_on_c, 0, 63, 0
2, 127160, Note_on_c, 0, 63, 64
2, 127176, Note_on_c, 0, 72, 64
2, 127182, Note_on_c, 0, 66, 52
2, 127184, Note_on_c, 0, 69, 49
2, 127186, Note_on_c, 0, 60, 66
2, 127192, Note_on_c, 0, 62, 0
2, 127274, Note_on_c, 0, 69, 0
2, 127276, Note_on_c, 0, 72, 0
2, 127284, Note_on_c, 0, 60, 0
2, 127310, Note_on_c, 0, 66, 0
2, 127324, Note_on_c, 0, 63, 0
2, 127514, Note_on_c, 0, 57, 64
2, 127522, Note_on_c, 0, 63, 68
2, 127526, Note_on_c, 0, 69, 68
2, 127534, Note_on_c, 0, 60, 73
2, 127534, Note_on_c, 0, 66, 58
2, 127602, Note_on_c, 0, 60, 0
2, 127650, Note_on_c, 0, 57, 0
2, 127658, Note_on_c, 0, 69, 0
2, 127672, Note_on_c, 0, 66, 0
2, 127714, Note_on_c, 0, 63, 0
2, 127726, Note_on_c, 0, 60, 54
2, 127824, Control_c, 0, 64, 127
2, 127842, Note_on_c, 0, 60, 0
2, 127928, Note_on_c, 0, 49, 45
2, 127988, Control_c, 0, 64, 0
2, 128038, Note_on_c, 0, 49, 0
2, 128072, Note_on_c, 0, 67, 68
2, 128082, Note_on_c, 0, 60, 76
2, 128084, Note_on_c, 0, 57, 71
2, 128108, Note_on_c, 0, 55, 53
2, 128108, Note_on_c, 0, 53, 55
2, 128236, Note_on_c, 0, 67, 0
2, 128258, Note_on_c, 0, 55, 0
2, 128312, Note_on_c, 0, 60, 0
2, 128320, Note_on_c, 0, 53, 0
2, 128334, Note_on_c, 0, 57, 0
2, 128370, Note_on_c, 0, 49, 27
2, 128420, Note_on_c, 0, 49, 0
2, 128450, Note_on_c, 0, 65, 67
2, 128458, Note_on_c, 0, 60, 72
2, 128462, Note_on_c, 0, 57, 64
2, 128486, Note_on_c, 0, 53, 39
2, 128502, Note_on_c, 0, 52, 28
2, 128544, Note_on_c, 0, 53, 0
2, 128574, Control_c, 0, 64, 127
2, 128588, Note_on_c, 0, 52, 0
2, 128616, Note_on_c, 0, 57, 0
2, 128624, Note_on_c, 0, 60, 0
2, 128688, Note_on_c, 0, 65, 0
2, 128708, Control_c, 0, 64, 0
2, 128718, Note_on_c, 0, 46, 39
2, 128832, Note_on_c, 0, 46, 0
2, 128856, Note_on_c, 0, 64, 66
2, 128860, Note_on_c, 0, 48, 60
2, 128862, Note_on_c, 0, 59, 66
2, 128866, Note_on_c, 0, 55, 66
2, 129022, Note_on_c, 0, 55, 0
2, 129022, Note_on_c, 0, 59, 0
2, 129038, Note_on_c, 0, 64, 0
2, 129048, Note_on_c, 0, 48, 0
2, 129324, Control_c, 0, 64, 127
2, 129384, Control_c, 0, 64, 0
2, 129674, Note_on_c, 0, 63, 33
2, 129710, Note_on_c, 0, 63, 0
2, 129992, Note_on_c, 0, 47, 79
2, 130000, Note_on_c, 0, 48, 80
2, 130126, Note_on_c, 0, 47, 0
2, 130528, Note_on_c, 0, 36, 85
2, 130682, Note_on_c, 0, 48, 0
2, 130930, Note_on_c, 0, 48, 92
2, 131084, Note_on_c, 0, 36, 0
2, 131132, Note_on_c, 0, 86, 95
2, 131166, Note_on_c, 0, 48, 0
2, 131296, Note_on_c, 0, 86, 0
2, 131332, Note_on_c, 0, 89, 91
2, 131512, Note_on_c, 0, 87, 74
2, 131556, Note_on_c, 0, 89, 0
2, 131700, Note_on_c, 0, 83, 75
2, 131738, Note_on_c, 0, 87, 0
2, 131876, Note_on_c, 0, 83, 0
2, 131876, Note_on_c, 0, 81, 56
2, 131886, Note_on_c, 0, 63, 31
2, 131888, Note_on_c, 0, 65, 47
2, 131904, Note_on_c, 0, 57, 39
2, 132042, Note_on_c, 0, 81, 0
2, 132098, Note_on_c, 0, 86, 76
2, 132180, Note_on_c, 0, 57, 0
2, 132186, Note_on_c, 0, 65, 0
2, 132236, Note_on_c, 0, 63, 0
2, 132292, Note_on_c, 0, 84, 60
2, 132324, Note_on_c, 0, 86, 0
2, 132416, Note_on_c, 0, 84, 0
2, 132500, Note_on_c, 0, 80, 67
2, 132538, Note_on_c, 0, 63, 30
2, 132574, Note_on_c, 0, 63, 0
2, 132604, Note_on_c, 0, 80, 0
2, 132692, Note_on_c, 0, 78, 32
2, 132840, Note_on_c, 0, 78, 0
2, 132952, Note_on_c, 0, 76, 22
2, 132986, Note_on_c, 0, 76, 0
2, 133314, Note_on_c, 0, 63, 69
2, 133320, Note_on_c, 0, 67, 67
2, 133326, Note_on_c, 0, 57, 68
2, 133354, Note_on_c, 0, 67, 0
2, 133418, Note_on_c, 0, 63, 0
2, 133432, Note_on_c, 0, 57, 0
2, 133642, Note_on_c, 0, 74, 81
2, 133722, Note_on_c, 0, 63, 42
2, 133734, Note_on_c, 0, 65, 44
2, 133748, Note_on_c, 0, 74, 0
2, 133770, Note_on_c, 0, 63, 0
2, 133772, Note_on_c, 0, 65, 0
2, 133852, Note_on_c, 0, 79, 96
2, 133992, Note_on_c, 0, 79, 0
2, 134046, Note_on_c, 0, 78, 77
2, 134074, Note_on_c, 0, 77, 76
2, 134074, Note_on_c, 0, 63, 61
2, 134082, Note_on_c, 0, 65, 70
2, 134088, Note_on_c, 0, 57, 62
2, 134120, Note_on_c, 0, 65, 0
2, 134152, Note_on_c, 0, 78, 0
2, 134180, Note_on_c, 0, 63, 0
2, 134192, Note_on_c, 0, 77, 0
2, 134244, Note_on_c, 0, 57, 0
2, 134250, Note_on_c, 0, 77, 44
2, 134416, Note_on_c, 0, 77, 0
2, 134452, Note_on_c, 0, 74, 74
2, 134548, Note_on_c, 0, 74, 0
2, 134618, Note_on_c, 0, 71, 38
2, 134802, Note_on_c, 0, 71, 0
2, 134846, Note_on_c, 0, 71, 39
2, 134926, Note_on_c, 0, 71, 0
2, 135004, Note_on_c, 0, 57, 49
2, 135006, Note_on_c, 0, 74, 74
2, 135014, Note_on_c, 0, 62, 60
2, 135018, Note_on_c, 0, 58, 44
2, 135034, Note_on_c, 0, 52, 51
2, 135176, Note_on_c, 0, 62, 0
2, 135182, Note_on_c, 0, 58, 0
2, 135200, Note_on_c, 0, 74, 0
2, 135234, Note_on_c, 0, 71, 54
2, 135298, Note_on_c, 0, 71, 0
2, 135308, Note_on_c, 0, 57, 0
2, 135332, Note_on_c, 0, 52, 0
2, 135388, Note_on_c, 0, 72, 72
2, 135562, Note_on_c, 0, 72, 0
2, 135582, Note_on_c, 0, 67, 66
2, 135588, Note_on_c, 0, 62, 59
2, 135590, Note_on_c, 0, 58, 50
2, 135620, Note_on_c, 0, 52, 36
2, 135634, Note_on_c, 0, 62, 0
2, 135668, Note_on_c, 0, 52, 0
2, 135670, Note_on_c, 0, 67, 0
2, 135722, Note_on_c, 0, 58, 0
2, 135772, Note_on_c, 0, 65, 34
2, 135896, Note_on_c, 0, 65, 0
2, 135962, Note_on_c, 0, 65, 70
2, 136042, Note_on_c, 0, 58, 25
2, 136064, Note_on_c, 0, 65, 0
2, 136092, Note_on_c, 0, 58, 0
2, 136326, Note_on_c, 0, 58, 55
2, 136328, Note_on_c, 0, 60, 65
2, 136338, Note_on_c, 0, 52, 56
2, 136362, Note_on_c, 0, 60, 0
2, 136384, Note_on_c, 0, 52, 0
2, 136426, Note_on_c, 0, 58, 0
2, 136490, Note_on_c, 0, 63, 61
2, 136536, Note_on_c, 0, 64, 77
2, 136586, Note_on_c, 0, 63, 0
2, 136712, Note_on_c, 0, 64, 0
2, 136732, Note_on_c, 0, 58, 30
2, 136778, Note_on_c, 0, 58, 0
2, 136864, Note_on_c, 0, 61, 78
2, 137078, Note_on_c, 0, 58, 43
2, 137084, Note_on_c, 0, 61, 0
2, 137106, Note_on_c, 0, 52, 33
2, 137154, Note_on_c, 0, 58, 0
2, 137156, Note_on_c, 0, 52, 0
2, 137248, Note_on_c, 0, 60, 90
2, 137442, Note_on_c, 0, 52, 67
2, 137502, Note_on_c, 0, 60, 0
2, 137548, Note_on_c, 0, 52, 0
2, 137624, Note_on_c, 0, 58, 62
2, 137630, Note_on_c, 0, 61, 34
2, 137706, Note_on_c, 0, 57, 36
2, 137784, Note_on_c, 0, 57, 0
2, 137788, Note_on_c, 0, 58, 0
2, 137866, Note_on_c, 0, 61, 0
2, 137910, Note_on_c, 0, 48, 58
2, 138006, Note_on_c, 0, 48, 0
2, 138058, Note_on_c, 0, 56, 83
2, 138064, Note_on_c, 0, 51, 51
2, 138066, Note_on_c, 0, 41, 57
2, 138136, Note_on_c, 0, 51, 0
2, 138214, Note_on_c, 0, 41, 0
2, 138228, Note_on_c, 0, 56, 0
2, 138284, Note_on_c, 0, 58, 49
2, 138326, Note_on_c, 0, 56, 42
2, 138398, Note_on_c, 0, 58, 0
2, 138414, Note_on_c, 0, 55, 62
2, 138466, Note_on_c, 0, 56, 0
2, 138576, Note_on_c, 0, 55, 0
2, 138638, Note_on_c, 0, 56, 77
2, 138656, Note_on_c, 0, 51, 60
2, 138690, Note_on_c, 0, 51, 0
2, 138784, Note_on_c, 0, 56, 0
2, 138824, Note_on_c, 0, 58, 51
2, 138978, Note_on_c, 0, 58, 0
2, 139030, Note_on_c, 0, 60, 64
2, 139170, Note_on_c, 0, 60, 0
2, 139190, Note_on_c, 0, 61, 80
2, 139360, Note_on_c, 0, 61, 0
2, 139406, Note_on_c, 0, 63, 77
2, 139418, Note_on_c, 0, 55, 63
2, 139426, Note_on_c, 0, 61, 53
2, 139558, Note_on_c, 0, 63, 0
2, 139598, Note_on_c, 0, 65, 76
2, 139676, Note_on_c, 0, 55, 0
2, 139732, Note_on_c, 0, 65, 0
2, 139758, Note_on_c, 0, 61, 0
2, 139792, Note_on_c, 0, 66, 83
2, 139808, Note_on_c, 0, 60, 78
2, 139842, Note_on_c, 0, 58, 27
2, 139888, Note_on_c, 0, 58, 0
2, 139994, Note_on_c, 0, 68, 70
2, 140048, Note_on_c, 0, 66, 0
2, 140146, Note_on_c, 0, 68, 0
2, 140192, Note_on_c, 0, 69, 75
2, 140308, Note_on_c, 0, 69, 0
2, 140364, Note_on_c, 0, 70, 50
2, 140390, Note_on_c, 0, 60, 0
2, 140478, Note_on_c, 0, 70, 0
2, 140556, Note_on_c, 0, 72, 74
2, 140564, Note_on_c, 0, 60, 76
2, 140582, Note_on_c, 0, 64, 55
2, 140630, Note_on_c, 0, 64, 0
2, 140634, Note_on_c, 0, 72, 0
2, 140680, Note_on_c, 0, 60, 0
2, 140738, Note_on_c, 0, 74, 58
2, 140826, Note_on_c, 0, 74, 0
2, 140940, Note_on_c, 0, 75, 76
2, 140950, Note_on_c, 0, 59, 68
2, 140960, Note_on_c, 0, 64, 65
2, 140976, Note_on_c, 0, 53, 53
2, 140994, Note_on_c, 0, 64, 0
2, 141044, Note_on_c, 0, 75, 0
2, 141126, Note_on_c, 0, 59, 0
2, 141142, Note_on_c, 0, 79, 68
2, 141158, Note_on_c, 0, 67, 52
2, 141164, Note_on_c, 0, 73, 59
2, 141294, Note_on_c, 0, 73, 0
2, 141296, Note_on_c, 0, 74, 65
2, 141338, Note_on_c, 0, 67, 0
2, 141372, Note_on_c, 0, 64, 54
2, 141376, Note_on_c, 0, 79, 0
2, 141382, Note_on_c, 0, 59, 51
2, 141410, Note_on_c, 0, 74, 0
2, 141444, Note_on_c, 0, 64, 0
2, 141486, Note_on_c, 0, 79, 64
2, 141494, Note_on_c, 0, 53, 0
2, 141494, Note_on_c, 0, 74, 72
2, 141498, Note_on_c, 0, 67, 68
2, 141518, Note_on_c, 0, 59, 0
2, 141528, Note_on_c, 0, 77, 37
2, 141584, Note_on_c, 0, 77, 0
2, 141672, Note_on_c, 0, 67, 0
2, 141698, Note_on_c, 0, 79, 0
2, 141720, Note_on_c, 0, 74, 0
2, 141812, Note_on_c, 0, 63, 34
2, 141834, Note_on_c, 0, 57, 30
2, 141846, Note_on_c, 0, 74, 51
2, 141848, Note_on_c, 0, 81, 85
2, 141852, Note_on_c, 0, 69, 82
2, 141864, Note_on_c, 0, 63, 0
2, 141882, Note_on_c, 0, 57, 0
2, 141984, Note_on_c, 0, 69, 0
2, 142010, Note_on_c, 0, 74, 0
2, 142010, Note_on_c, 0, 81, 0
2, 142084, Note_on_c, 0, 81, 71
2, 142086, Note_on_c, 0, 74, 74
2, 142090, Note_on_c, 0, 69, 68
2, 142106, Note_on_c, 0, 63, 67
2, 142114, Note_on_c, 0, 57, 68
2, 142126, Note_on_c, 0, 67, 44
2, 142130, Note_on_c, 0, 65, 52
2, 142152, Note_on_c, 0, 57, 0
2, 142160, Note_on_c, 0, 67, 0
2, 142164, Note_on_c, 0, 65, 0
2, 142202, Note_on_c, 0, 69, 0
2, 142214, Note_on_c, 0, 63, 0
2, 142234, Note_on_c, 0, 74, 0
2, 142268, Note_on_c, 0, 81, 0
2, 142470, Note_on_c, 0, 82, 88
2, 142474, Note_on_c, 0, 61, 69
2, 142476, Note_on_c, 0, 60, 82
2, 142476, Note_on_c, 0, 65, 94
2, 142478, Note_on_c, 0, 70, 95
2, 142480, Note_on_c, 0, 75, 84
2, 142482, Note_on_c, 0, 55, 76
2, 142488, Note_on_c, 0, 58, 49
2, 142620, Control_c, 0, 64, 127
2, 142672, Note_on_c, 0, 75, 0
2, 142678, Note_on_c, 0, 70, 0
2, 142688, Note_on_c, 0, 65, 0
2, 142700, Note_on_c, 0, 82, 0
2, 142708, Note_on_c, 0, 55, 0
2, 142736, Note_on_c, 0, 60, 0
2, 142748, Note_on_c, 0, 61, 0
2, 142750, Note_on_c, 0, 58, 0
2, 142784, Control_c, 0, 64, 0
2, 142848, Note_on_c, 0, 61, 57
2, 142852, Note_on_c, 0, 65, 82
2, 142860, Note_on_c, 0, 82, 78
2, 142864, Note_on_c, 0, 55, 80
2, 142868, Note_on_c, 0, 60, 52
2, 142870, Note_on_c, 0, 75, 81
2, 142872, Note_on_c, 0, 70, 81
2, 142878, Note_on_c, 0, 58, 51
2, 142908, Note_on_c, 0, 60, 0
2, 143008, Note_on_c, 0, 55, 0
2, 143008, Note_on_c, 0, 65, 0
2, 143012, Note_on_c, 0, 70, 0
2, 143032, Control_c, 0, 64, 127
2, 143034, Note_on_c, 0, 75, 0
2, 143050, Note_on_c, 0, 58, 0
2, 143068, Note_on_c, 0, 61, 0
2, 143072, Note_on_c, 0, 82, 0
2, 143144, Control_c, 0, 64, 0
2, 143246, Note_on_c, 0, 60, 83
2, 143246, Note_on_c, 0, 64, 87
2, 143256, Note_on_c, 0, 83, 82
2, 143256, Note_on_c, 0, 76, 82
2, 143258, Note_on_c, 0, 71, 81
2, 143268, Note_on_c, 0, 58, 43
2, 143304, Note_on_c, 0, 58, 0
2, 143404, Note_on_c, 0, 71, 0
2, 143414, Note_on_c, 0, 76, 0
2, 143420, Note_on_c, 0, 64, 0
2, 143426, Note_on_c, 0, 83, 0
2, 143438, Note_on_c, 0, 60, 0
2, 143498, Note_on_c, 0, 64, 78
2, 143502, Note_on_c, 0, 60, 61
2, 143504, Note_on_c, 0, 76, 68
2, 143506, Note_on_c, 0, 83, 72
2, 143512, Note_on_c, 0, 71, 54
2, 143616, Control_c, 0, 64, 127
2, 143624, Note_on_c, 0, 64, 0
2, 143632, Note_on_c, 0, 60, 0
2, 143638, Note_on_c, 0, 71, 0
2, 143666, Note_on_c, 0, 76, 0
2, 143712, Note_on_c, 0, 83, 0
2, 143760, Control_c, 0, 64, 0
2, 143846, Note_on_c, 0, 62, 90
2, 143848, Note_on_c, 0, 51, 80
2, 143852, Note_on_c, 0, 57, 83
2, 143854, Note_on_c, 0, 84, 82
2, 143856, Note_on_c, 0, 72, 83
2, 143858, Note_on_c, 0, 79, 72
2, 143994, Note_on_c, 0, 72, 0
2, 144022, Note_on_c, 0, 84, 0
2, 144022, Note_on_c, 0, 62, 0
2, 144028, Note_on_c, 0, 51, 0
2, 144046, Note_on_c, 0, 79, 0
2, 144056, Note_on_c, 0, 57, 0
2, 144100, Note_on_c, 0, 51, 63
2, 144108, Note_on_c, 0, 62, 75
2, 144110, Note_on_c, 0, 84, 61
2, 144114, Note_on_c, 0, 79, 74
2, 144122, Note_on_c, 0, 57, 74
2, 144126, Note_on_c, 0, 72, 60
2, 144200, Note_on_c, 0, 72, 0
2, 144230, Note_on_c, 0, 62, 0
2, 144242, Note_on_c, 0, 79, 0
2, 144248, Note_on_c, 0, 57, 0
2, 144256, Note_on_c, 0, 84, 0
2, 144264, Note_on_c, 0, 51, 0
2, 144446, Note_on_c, 0, 53, 82
2, 144452, Note_on_c, 0, 75, 92
2, 144454, Note_on_c, 0, 63, 83
2, 144456, Note_on_c, 0, 87, 83
2, 144458, Note_on_c, 0, 58, 68
2, 144464, Note_on_c, 0, 82, 77
2, 144576, Note_on_c, 0, 75, 0
2, 144588, Note_on_c, 0, 63, 0
2, 144598, Note_on_c, 0, 87, 0
2, 144602, Note_on_c, 0, 82, 0
2, 144608, Note_on_c, 0, 53, 0
2, 144648, Note_on_c, 0, 53, 42
2, 144652, Note_on_c, 0, 63, 65
2, 144652, Note_on_c, 0, 87, 50
2, 144662, Note_on_c, 0, 75, 50
2, 144666, Note_on_c, 0, 82, 74
2, 144784, Note_on_c, 0, 53, 0
2, 144800, Note_on_c, 0, 82, 0
2, 144802, Note_on_c, 0, 87, 0
2, 144802, Note_on_c, 0, 75, 0
2, 144830, Control_c, 0, 64, 127
2, 144834, Note_on_c, 0, 63, 0
2, 144838, Note_on_c, 0, 58, 0
2, 144860, Control_c, 0, 64, 0
2, 144974, Note_on_c, 0, 63, 64
2, 144978, Note_on_c, 0, 84, 69
2, 144982, Note_on_c, 0, 60, 62
2, 144988, Note_on_c, 0, 55, 60
2, 144992, Note_on_c, 0, 79, 60
2, 144994, Note_on_c, 0, 72, 66
2, 145000, Note_on_c, 0, 57, 60
2, 145134, Note_on_c, 0, 72, 0
2, 145150, Note_on_c, 0, 84, 0
2, 145156, Note_on_c, 0, 55, 0
2, 145158, Note_on_c, 0, 79, 0
2, 145172, Note_on_c, 0, 63, 0
2, 145174, Note_on_c, 0, 57, 0
2, 145178, Note_on_c, 0, 60, 0
2, 145566, Note_on_c, 0, 87, 78
2, 145568, Note_on_c, 0, 58, 69
2, 145570, Note_on_c, 0, 60, 80
2, 145572, Note_on_c, 0, 65, 90
2, 145574, Note_on_c, 0, 75, 84
2, 145580, Note_on_c, 0, 82, 80
2, 145694, Note_on_c, 0, 75, 0
2, 145696, Note_on_c, 0, 65, 0
2, 145718, Note_on_c, 0, 87, 0
2, 145730, Note_on_c, 0, 60, 0
2, 145736, Note_on_c, 0, 82, 0
2, 145742, Note_on_c, 0, 58, 0
2, 145788, Note_on_c, 0, 65, 71
2, 145796, Note_on_c, 0, 58, 33
2, 145798, Note_on_c, 0, 87, 62
2, 145806, Note_on_c, 0, 82, 72
2, 145808, Note_on_c, 0, 75, 67
2, 145808, Note_on_c, 0, 60, 75
2, 145952, Note_on_c, 0, 75, 0
2, 145960, Control_c, 0, 64, 127
2, 145970, Control_c, 0, 64, 0
2, 145976, Note_on_c, 0, 82, 0
2, 145994, Note_on_c, 0, 65, 0
2, 145996, Note_on_c, 0, 87, 0
2, 146022, Note_on_c, 0, 60, 0
2, 146048, Note_on_c, 0, 58, 0
2, 146142, Note_on_c, 0, 58, 69
2, 146144, Note_on_c, 0, 65, 88
2, 146146, Note_on_c, 0, 60, 70
2, 146158, Note_on_c, 0, 89, 82
2, 146160, Note_on_c, 0, 84, 82
2, 146162, Note_on_c, 0, 77, 78
2, 146298, Note_on_c, 0, 89, 0
2, 146318, Note_on_c, 0, 65, 0
2, 146320, Note_on_c, 0, 84, 0
2, 146328, Note_on_c, 0, 60, 0
2, 146338, Note_on_c, 0, 77, 0
2, 146410, Note_on_c, 0, 58, 0
2, 146522, Note_on_c, 0, 53, 72
2, 146524, Note_on_c, 0, 59, 68
2, 146524, Note_on_c, 0, 74, 83
2, 146526, Note_on_c, 0, 64, 74
2, 146528, Note_on_c, 0, 82, 77
2, 146528, Note_on_c, 0, 86, 81
2, 146550, Note_on_c, 0, 85, 46
2, 146564, Note_on_c, 0, 80, 27
2, 146584, Note_on_c, 0, 85, 0
2, 146598, Note_on_c, 0, 80, 0
2, 146728, Note_on_c, 0, 53, 0
2, 146738, Note_on_c, 0, 64, 0
2, 146762, Note_on_c, 0, 86, 0
2, 146762, Note_on_c, 0, 83, 30
2, 146764, Note_on_c, 0, 74, 0
2, 146782, Note_on_c, 0, 82, 0
2, 146798, Note_on_c, 0, 83, 0
2, 146812, Note_on_c, 0, 59, 0
2, 146888, Note_on_c, 0, 59, 58
2, 146890, Note_on_c, 0, 63, 82
2, 146892, Note_on_c, 0, 56, 52
2, 146904, Note_on_c, 0, 53, 67
2, 147126, Note_on_c, 0, 59, 0
2, 147174, Note_on_c, 0, 53, 0
2, 147182, Note_on_c, 0, 63, 0
2, 147204, Note_on_c, 0, 56, 0
2, 147298, Note_on_c, 0, 62, 72
2, 147314, Note_on_c, 0, 57, 72
2, 147316, Note_on_c, 0, 51, 62
2, 147320, Note_on_c, 0, 84, 74
2, 147320, Note_on_c, 0, 79, 75
2, 147322, Note_on_c, 0, 72, 78
2, 147502, Note_on_c, 0, 72, 0
2, 147578, Note_on_c, 0, 79, 0
2, 147662, Note_on_c, 0, 84, 0
2, 147662, Control_c, 0, 64, 127
2, 147784, Note_on_c, 0, 57, 0
2, 147790, Note_on_c, 0, 51, 0
2, 147974, Note_on_c, 0, 62, 0
2, 148012, Control_c, 0, 64, 0
2, 148026, Note_on_c, 0, 55, 82
2, 148030, Note_on_c, 0, 63, 83
2, 148038, Note_on_c, 0, 60, 74
2, 148042, Note_on_c, 0, 57, 68
2, 148044, Note_on_c, 0, 91, 84
2, 148046, Note_on_c, 0, 94, 76
2, 148046, Note_on_c, 0, 96, 92
2, 148048, Note_on_c, 0, 84, 95
2, 148078, Note_on_c, 0, 94, 0
2, 148178, Control_c, 0, 64, 127
2, 148346, Note_on_c, 0, 84, 0
2, 148382, Note_on_c, 0, 91, 0
2, 148392, Note_on_c, 0, 96, 0
2, 148442, Note_on_c, 0, 60, 0
2, 148444, Note_on_c, 0, 57, 0
2, 148450, Note_on_c, 0, 55, 0
2, 148454, Note_on_c, 0, 63, 0
2, 148630, Control_c, 0, 64, 0
2, 148648, Note_on_c, 0, 58, 83
2, 148650, Note_on_c, 0, 65, 101
2, 148652, Note_on_c, 0, 60, 90
2, 148652, Note_on_c, 0, 101, 89
2, 148656, Note_on_c, 0, 89, 90
2, 148656, Note_on_c, 0, 96, 90
2, 148838, Control_c, 0, 64, 127
2, 148940, Note_on_c, 0, 89, 0
2, 148972, Note_on_c, 0, 96, 0
2, 148986, Note_on_c, 0, 101, 0
2, 149042, Note_on_c, 0, 60, 0
2, 149060, Note_on_c, 0, 65, 0
2, 149126, Note_on_c, 0, 58, 0
2, 149202, Note_on_c, 0, 64, 105
2, 149208, Note_on_c, 0, 59, 94
2, 149210, Note_on_c, 0, 53, 96
2, 149226, Note_on_c, 0, 56, 59
2, 149228, Control_c, 0, 64, 0
2, 149260, Note_on_c, 0, 56, 0
2, 149412, Control_c, 0, 64, 127
2, 149598, Note_on_c, 0, 53, 0
2, 149626, Note_on_c, 0, 64, 0
2, 149700, Note_on_c, 0, 59, 0
2, 149766, Note_on_c, 0, 53, 74
2, 149768, Note_on_c, 0, 63, 84
2, 149776, Note_on_c, 0, 59, 73
2, 149782, Control_c, 0, 64, 0
2, 149786, Note_on_c, 0, 56, 62
2, 149948, Control_c, 0, 64, 127
2, 150012, Note_on_c, 0, 59, 0
2, 150130, Note_on_c, 0, 53, 0
2, 150144, Note_on_c, 0, 63, 0
2, 150188, Note_on_c, 0, 56, 0
2, 150276, Control_c, 0, 64, 0
2, 150304, Note_on_c, 0, 58, 47
2, 150328, Note_on_c, 0, 62, 48
2, 150346, Note_on_c, 0, 52, 34
2, 150656, Control_c, 0, 64, 127
2, 150666, Control_c, 0, 64, 0
2, 150678, Note_on_c, 0, 102, 57
2, 150682, Note_on_c, 0, 87, 42
2, 150684, Note_on_c, 0, 52, 0
2, 150688, Note_on_c, 0, 62, 0
2, 150724, Note_on_c, 0, 58, 0
2, 150812, Note_on_c, 0, 102, 0
2, 150848, Note_on_c, 0, 87, 0
2, 150912, Note_on_c, 0, 99, 42
2, 150946, Note_on_c, 0, 99, 0
2, 151078, Note_on_c, 0, 87, 52
2, 151086, Note_on_c, 0, 102, 52
2, 151204, Note_on_c, 0, 87, 0
2, 151214, Note_on_c, 0, 102, 0
2, 151348, Note_on_c, 0, 58, 35
2, 151356, Note_on_c, 0, 62, 34
2, 151394, Note_on_c, 0, 62, 0
2, 151434, Note_on_c, 0, 58, 0
2, 151658, Note_on_c, 0, 57, 55
2, 151662, Note_on_c, 0, 60, 55
2, 151666, Note_on_c, 0, 51, 38
2, 151776, Note_on_c, 0, 57, 0
2, 151784, Note_on_c, 0, 60, 0
2, 151794, Note_on_c, 0, 51, 0
2, 152236, Note_on_c, 0, 60, 66
2, 152240, Note_on_c, 0, 51, 46
2, 152272, Note_on_c, 0, 57, 34
2, 152334, Note_on_c, 0, 57, 0
2, 152374, Note_on_c, 0, 51, 0
2, 152394, Note_on_c, 0, 60, 0
2, 152842, Note_on_c, 0, 60, 79
2, 152844, Note_on_c, 0, 51, 64
2, 152850, Note_on_c, 0, 57, 61
2, 152922, Note_on_c, 0, 57, 0
2, 152940, Note_on_c, 0, 60, 0
2, 152942, Note_on_c, 0, 51, 0
2, 153198, Note_on_c, 0, 96, 58
2, 153294, Note_on_c, 0, 96, 0
2, 153396, Note_on_c, 0, 101, 79
2, 153400, Note_on_c, 0, 89, 74
2, 153402, Note_on_c, 0, 64, 68
2, 153408, Note_on_c, 0, 60, 57
2, 153422, Note_on_c, 0, 55, 49
2, 153434, Note_on_c, 0, 57, 31
2, 153526, Note_on_c, 0, 89, 0
2, 153530, Note_on_c, 0, 55, 0
2, 153534, Note_on_c, 0, 101, 0
2, 153538, Note_on_c, 0, 60, 0
2, 153538, Note_on_c, 0, 64, 0
2, 153648, Note_on_c, 0, 57, 0
2, 153776, Note_on_c, 0, 100, 80
2, 153784, Note_on_c, 0, 88, 74
2, 153906, Note_on_c, 0, 100, 0
2, 153948, Note_on_c, 0, 88, 0
2, 154158, Note_on_c, 0, 96, 80
2, 154168, Note_on_c, 0, 84, 67
2, 154298, Note_on_c, 0, 84, 0
2, 154318, Note_on_c, 0, 96, 0
2, 154358, Note_on_c, 0, 61, 51
2, 154368, Note_on_c, 0, 65, 63
2, 154374, Note_on_c, 0, 55, 52
2, 154390, Note_on_c, 0, 93, 55
2, 154448, Note_on_c, 0, 93, 0
2, 154452, Note_on_c, 0, 65, 0
2, 154488, Note_on_c, 0, 55, 0
2, 154550, Note_on_c, 0, 61, 0
2, 154764, Note_on_c, 0, 64, 70
2, 154768, Note_on_c, 0, 60, 71
2, 154896, Note_on_c, 0, 60, 0
2, 154904, Note_on_c, 0, 64, 0
2, 155154, Note_on_c, 0, 63, 78
2, 155160, Note_on_c, 0, 56, 56
2, 155166, Note_on_c, 0, 59, 63
2, 155170, Note_on_c, 0, 53, 55
2, 155292, Note_on_c, 0, 53, 0
2, 155302, Note_on_c, 0, 59, 0
2, 155318, Note_on_c, 0, 63, 0
2, 155332, Note_on_c, 0, 56, 0
2, 155506, Note_on_c, 0, 63, 77
2, 155522, Note_on_c, 0, 53, 63
2, 155524, Note_on_c, 0, 56, 56
2, 155526, Note_on_c, 0, 59, 66
2, 155616, Note_on_c, 0, 53, 0
2, 155618, Note_on_c, 0, 63, 0
2, 155646, Note_on_c, 0, 59, 0
2, 155674, Note_on_c, 0, 56, 0
2, 155720, Note_on_c, 0, 63, 68
2, 155732, Note_on_c, 0, 53, 59
2, 155734, Note_on_c, 0, 59, 59
2, 155734, Note_on_c, 0, 56, 37
2, 155982, Note_on_c, 0, 59, 0
2, 156028, Note_on_c, 0, 63, 0
2, 156076, Note_on_c, 0, 53, 0
2, 156080, Note_on_c, 0, 86, 94
2, 156208, Note_on_c, 0, 56, 0
2, 156214, Note_on_c, 0, 86, 0
2, 156272, Note_on_c, 0, 84, 64
2, 156356, Note_on_c, 0, 84, 0
2, 156452, Note_on_c, 0, 62, 46
2, 156474, Note_on_c, 0, 55, 42
2, 156484, Note_on_c, 0, 86, 85
2, 156496, Note_on_c, 0, 57, 31
2, 156508, Note_on_c, 0, 62, 0
2, 156554, Note_on_c, 0, 57, 0
2, 156612, Note_on_c, 0, 55, 0
2, 156620, Note_on_c, 0, 86, 0
2, 156676, Note_on_c, 0, 84, 67
2, 156850, Note_on_c, 0, 79, 43
2, 156870, Note_on_c, 0, 84, 0
2, 157008, Note_on_c, 0, 79, 0
2, 157070, Note_on_c, 0, 75, 64
2, 157102, Note_on_c, 0, 62, 36
2, 157122, Note_on_c, 0, 57, 33
2, 157142, Note_on_c, 0, 62, 0
2, 157164, Note_on_c, 0, 57, 0
2, 157214, Note_on_c, 0, 75, 0
2, 157268, Note_on_c, 0, 74, 50
2, 157394, Note_on_c, 0, 74, 0
2, 157460, Note_on_c, 0, 75, 80
2, 157578, Note_on_c, 0, 75, 0
2, 157652, Note_on_c, 0, 74, 77
2, 157770, Note_on_c, 0, 74, 0
2, 157824, Note_on_c, 0, 75, 62
2, 157880, Note_on_c, 0, 74, 36
2, 157962, Note_on_c, 0, 75, 0
2, 157998, Note_on_c, 0, 72, 48
2, 158028, Note_on_c, 0, 74, 0
2, 158164, Note_on_c, 0, 72, 0
2, 158198, Note_on_c, 0, 70, 56
2, 158226, Note_on_c, 0, 62, 53
2, 158230, Note_on_c, 0, 60, 54
2, 158242, Note_on_c, 0, 58, 37
2, 158268, Note_on_c, 0, 60, 0
2, 158282, Note_on_c, 0, 62, 0
2, 158406, Note_on_c, 0, 58, 0
2, 158478, Note_on_c, 0, 70, 0
2, 158568, Note_on_c, 0, 68, 74
2, 158602, Note_on_c, 0, 63, 60
2, 158602, Note_on_c, 0, 59, 60
2, 158626, Note_on_c, 0, 53, 40
2, 158638, Note_on_c, 0, 63, 0
2, 158638, Note_on_c, 0, 68, 0
2, 158654, Note_on_c, 0, 59, 0
2, 158746, Note_on_c, 0, 53, 0
2, 158792, Note_on_c, 0, 69, 70
2, 158920, Note_on_c, 0, 69, 0
2, 158978, Note_on_c, 0, 71, 79
2, 159004, Note_on_c, 0, 62, 57
2, 159006, Note_on_c, 0, 51, 55
2, 159020, Note_on_c, 0, 57, 62
2, 159040, Note_on_c, 0, 62, 0
2, 159074, Note_on_c, 0, 57, 0
2, 159132, Note_on_c, 0, 51, 0
2, 159184, Note_on_c, 0, 71, 0
2, 159184, Note_on_c, 0, 67, 40
2, 159200, Note_on_c, 0, 65, 39
2, 159238, Note_on_c, 0, 65, 0
2, 159296, Note_on_c, 0, 67, 0
2, 159382, Note_on_c, 0, 55, 62
2, 159386, Note_on_c, 0, 48, 55
2, 159420, Note_on_c, 0, 63, 54
2, 159460, Note_on_c, 0, 55, 0
2, 159498, Note_on_c, 0, 48, 0
2, 159606, Note_on_c, 0, 62, 42
2, 159618, Note_on_c, 0, 63, 0
2, 159660, Note_on_c, 0, 62, 0
2, 159800, Note_on_c, 0, 55, 48
2, 159846, Note_on_c, 0, 55, 0
2, 159926, Note_on_c, 0, 62, 78
2, 160106, Note_on_c, 0, 62, 0
2, 160152, Note_on_c, 0, 55, 48
2, 160208, Note_on_c, 0, 55, 0
2, 160210, Note_on_c, 0, 48, 20
2, 160282, Note_on_c, 0, 48, 0
2, 160298, Note_on_c, 0, 62, 81
2, 160446, Note_on_c, 0, 62, 0
2, 160500, Note_on_c, 0, 63, 44
2, 160560, Note_on_c, 0, 62, 43
2, 160634, Note_on_c, 0, 63, 0
2, 160680, Note_on_c, 0, 60, 49
2, 160708, Note_on_c, 0, 62, 0
2, 160788, Note_on_c, 0, 60, 0
2, 160898, Note_on_c, 0, 62, 88
2, 160924, Note_on_c, 0, 55, 68
2, 160928, Note_on_c, 0, 45, 58
2, 160960, Note_on_c, 0, 55, 0
2, 161000, Note_on_c, 0, 45, 0
2, 161060, Note_on_c, 0, 62, 0
2, 161066, Note_on_c, 0, 63, 58
2, 161190, Note_on_c, 0, 62, 24
2, 161228, Note_on_c, 0, 63, 0
2, 161304, Note_on_c, 0, 62, 0
2, 161312, Note_on_c, 0, 60, 54
2, 161364, Note_on_c, 0, 60, 0
2, 161378, Note_on_c, 0, 48, 24
2, 161428, Note_on_c, 0, 48, 0
2, 161454, Note_on_c, 0, 62, 73
2, 161464, Note_on_c, 0, 50, 56
2, 161654, Note_on_c, 0, 62, 0
2, 161822, Note_on_c, 0, 50, 0
2, 162032, Note_on_c, 0, 50, 71
2, 162034, Note_on_c, 0, 63, 84
2, 162084, Note_on_c, 0, 50, 0
2, 162154, Note_on_c, 0, 63, 0
2, 162190, Note_on_c, 0, 65, 58
2, 162284, Note_on_c, 0, 63, 50
2, 162298, Note_on_c, 0, 65, 0
2, 162430, Note_on_c, 0, 63, 0
2, 162432, Note_on_c, 0, 60, 45
2, 162464, Note_on_c, 0, 55, 49
2, 162486, Note_on_c, 0, 60, 0
2, 162570, Note_on_c, 0, 55, 0
2, 162594, Note_on_c, 0, 63, 71
2, 162734, Note_on_c, 0, 63, 0
2, 162790, Note_on_c, 0, 64, 74
2, 162832, Note_on_c, 0, 55, 35
2, 162876, Note_on_c, 0, 55, 0
2, 162882, Note_on_c, 0, 64, 0
2, 162982, Note_on_c, 0, 65, 56
2, 163120, Note_on_c, 0, 65, 0
2, 163166, Note_on_c, 0, 66, 71
2, 163274, Note_on_c, 0, 66, 0
2, 163344, Note_on_c, 0, 67, 44
2, 163474, Note_on_c, 0, 67, 0
2, 163562, Note_on_c, 0, 58, 42
2, 163572, Note_on_c, 0, 69, 45
2, 163578, Note_on_c, 0, 52, 41
2, 163582, Note_on_c, 0, 60, 37
2, 163610, Note_on_c, 0, 69, 0
2, 163616, Note_on_c, 0, 60, 0
2, 163626, Note_on_c, 0, 52, 0
2, 163666, Note_on_c, 0, 58, 0
2, 163810, Note_on_c, 0, 70, 83
2, 163938, Note_on_c, 0, 60, 27
2, 163942, Note_on_c, 0, 57, 36
2, 163972, Note_on_c, 0, 70, 0
2, 163994, Note_on_c, 0, 60, 0
2, 164018, Note_on_c, 0, 68, 71
2, 164048, Note_on_c, 0, 57, 0
2, 164148, Note_on_c, 0, 68, 0
2, 164180, Note_on_c, 0, 69, 74
2, 164288, Note_on_c, 0, 69, 0
2, 164356, Note_on_c, 0, 72, 80
2, 164368, Note_on_c, 0, 60, 51
2, 164370, Note_on_c, 0, 57, 52
2, 164374, Note_on_c, 0, 51, 37
2, 164418, Note_on_c, 0, 57, 0
2, 164422, Note_on_c, 0, 60, 0
2, 164450, Note_on_c, 0, 51, 0
2, 164460, Note_on_c, 0, 72, 0
2, 164530, Note_on_c, 0, 74, 74
2, 164654, Note_on_c, 0, 74, 0
2, 164748, Note_on_c, 0, 63, 60
2, 164770, Note_on_c, 0, 60, 50
2, 164774, Note_on_c, 0, 72, 64
2, 164800, Note_on_c, 0, 63, 0
2, 164804, Note_on_c, 0, 60, 0
2, 164832, Note_on_c, 0, 72, 0
2, 164940, Note_on_c, 0, 75, 75
2, 164948, Note_on_c, 0, 63, 67
2, 164966, Note_on_c, 0, 72, 35
2, 165022, Note_on_c, 0, 69, 20
2, 165062, Note_on_c, 0, 69, 0
2, 165088, Note_on_c, 0, 72, 0
2, 165112, Note_on_c, 0, 63, 0
2, 165138, Note_on_c, 0, 76, 70
2, 165138, Note_on_c, 0, 64, 66
2, 165140, Note_on_c, 0, 60, 57
2, 165142, Note_on_c, 0, 75, 0
2, 165152, Note_on_c, 0, 69, 61
2, 165178, Note_on_c, 0, 72, 29
2, 165188, Note_on_c, 0, 69, 0
2, 165196, Note_on_c, 0, 64, 0
2, 165216, Note_on_c, 0, 72, 0
2, 165224, Note_on_c, 0, 76, 0
2, 165238, Note_on_c, 0, 60, 0
2, 165334, Note_on_c, 0, 65, 72
2, 165342, Note_on_c, 0, 77, 47
2, 165368, Note_on_c, 0, 65, 0
2, 165378, Note_on_c, 0, 77, 0
2, 165496, Note_on_c, 0, 78, 75
2, 165508, Note_on_c, 0, 66, 78
2, 165512, Note_on_c, 0, 60, 64
2, 165550, Note_on_c, 0, 72, 36
2, 165552, Note_on_c, 0, 75, 20
2, 165578, Note_on_c, 0, 66, 0
2, 165588, Note_on_c, 0, 72, 0
2, 165596, Note_on_c, 0, 75, 0
2, 165686, Note_on_c, 0, 66, 69
2, 165692, Note_on_c, 0, 64, 63
2, 165702, Note_on_c, 0, 75, 29
2, 165708, Note_on_c, 0, 79, 62
2, 165710, Note_on_c, 0, 72, 45
2, 165724, Note_on_c, 0, 55, 60
2, 165738, Note_on_c, 0, 66, 0
2, 165742, Note_on_c, 0, 67, 67
2, 165780, Note_on_c, 0, 77, 22
2, 165786, Note_on_c, 0, 78, 0
2, 165886, Note_on_c, 0, 79, 0
2, 165896, Note_on_c, 0, 67, 0
2, 165900, Note_on_c, 0, 77, 0
2, 165900, Note_on_c, 0, 64, 0
2, 165932, Note_on_c, 0, 60, 0
2, 165938, Note_on_c, 0, 55, 0
2, 165942, Note_on_c, 0, 72, 0
2, 165950, Note_on_c, 0, 75, 0
2, 166034, Note_on_c, 0, 55, 62
2, 166042, Note_on_c, 0, 60, 66
2, 166050, Note_on_c, 0, 75, 60
2, 166058, Note_on_c, 0, 63, 76
2, 166102, Note_on_c, 0, 70, 33
2, 166106, Note_on_c, 0, 76, 57
2, 166116, Note_on_c, 0, 63, 0
2, 166160, Note_on_c, 0, 64, 18
2, 166164, Note_on_c, 0, 65, 46
2, 166174, Note_on_c, 0, 75, 0
2, 166202, Note_on_c, 0, 64, 0
2, 166204, Note_on_c, 0, 74, 15
2, 166208, Note_on_c, 0, 70, 0
2, 166242, Note_on_c, 0, 65, 0
2, 166264, Note_on_c, 0, 74, 0
2, 166268, Note_on_c, 0, 60, 0
2, 166290, Note_on_c, 0, 76, 0
2, 166316, Note_on_c, 0, 55, 0
2, 166454, Note_on_c, 0, 80, 62
2, 166456, Note_on_c, 0, 55, 78
2, 166460, Note_on_c, 0, 69, 71
2, 166466, Note_on_c, 0, 61, 63
2, 166474, Note_on_c, 0, 81, 62
2, 166474, Note_on_c, 0, 83, 57
2, 166478, Note_on_c, 0, 66, 45
2, 166480, Note_on_c, 0, 75, 25
2, 166482, Note_on_c, 0, 71, 50
2, 166492, Note_on_c, 0, 76, 43
2, 166528, Note_on_c, 0, 75, 0
2, 166542, Note_on_c, 0, 69, 0
2, 166564, Note_on_c, 0, 80, 0
2, 166638, Note_on_c, 0, 66, 0
2, 166654, Note_on_c, 0, 83, 0
2, 166658, Note_on_c, 0, 71, 0
2, 166666, Note_on_c, 0, 81, 0
2, 166706, Note_on_c, 0, 55, 0
2, 166708, Note_on_c, 0, 76, 0
2, 166746, Note_on_c, 0, 61, 0
2, 166818, Note_on_c, 0, 61, 65
2, 166820, Note_on_c, 0, 55, 65
2, 166850, Note_on_c, 0, 79, 57
2, 166858, Note_on_c, 0, 65, 53
2, 166860, Note_on_c, 0, 67, 64
2, 166862, Note_on_c, 0, 77, 60
2, 166898, Note_on_c, 0, 77, 0
2, 166920, Note_on_c, 0, 65, 0
2, 166944, Note_on_c, 0, 67, 0
2, 166980, Note_on_c, 0, 79, 0
2, 167114, Note_on_c, 0, 55, 0
2, 167220, Note_on_c, 0, 61, 0
2, 167222, Note_on_c, 0, 86, 68
2, 167224, Note_on_c, 0, 74, 77
2, 167230, Note_on_c, 0, 84, 74
2, 167234, Note_on_c, 0, 60, 85
2, 167234, Note_on_c, 0, 64, 88
2, 167276, Note_on_c, 0, 81, 24
2, 167432, Note_on_c, 0, 86, 0
2, 167452, Note_on_c, 0, 74, 0
2, 167488, Note_on_c, 0, 84, 0
2, 167496, Note_on_c, 0, 81, 0
2, 167500, Note_on_c, 0, 64, 0
2, 167586, Note_on_c, 0, 64, 66
2, 167618, Note_on_c, 0, 72, 28
2, 167652, Note_on_c, 0, 72, 0
2, 167680, Control_c, 0, 64, 127
2, 167800, Note_on_c, 0, 60, 0
2, 167828, Note_on_c, 0, 64, 0
2, 167864, Control_c, 0, 64, 0
2, 167962, Note_on_c, 0, 63, 92
2, 167972, Note_on_c, 0, 59, 81
2, 167972, Note_on_c, 0, 53, 85
2, 167982, Note_on_c, 0, 92, 88
2, 167986, Note_on_c, 0, 80, 57
2, 167990, Note_on_c, 0, 78, 70
2, 168048, Note_on_c, 0, 78, 0
2, 168216, Note_on_c, 0, 80, 0
2, 168230, Note_on_c, 0, 92, 0
2, 168242, Note_on_c, 0, 53, 0
2, 168264, Note_on_c, 0, 63, 0
2, 168300, Note_on_c, 0, 59, 0
2, 168368, Note_on_c, 0, 63, 75
2, 168372, Note_on_c, 0, 53, 70
2, 168376, Note_on_c, 0, 87, 68
2, 168380, Note_on_c, 0, 75, 74
2, 168394, Note_on_c, 0, 59, 67
2, 168398, Note_on_c, 0, 56, 52
2, 168500, Control_c, 0, 64, 127
2, 168536, Note_on_c, 0, 59, 0
2, 168594, Note_on_c, 0, 53, 0
2, 168594, Control_c, 0, 64, 0
2, 168638, Note_on_c, 0, 87, 0
2, 168650, Note_on_c, 0, 75, 0
2, 168658, Note_on_c, 0, 63, 0
2, 168684, Note_on_c, 0, 56, 0
2, 168758, Note_on_c, 0, 84, 66
2, 168762, Note_on_c, 0, 62, 73
2, 168766, Note_on_c, 0, 72, 70
2, 168768, Note_on_c, 0, 51, 62
2, 168770, Note_on_c, 0, 57, 71
2, 169210, Note_on_c, 0, 62, 0
2, 169228, Note_on_c, 0, 72, 0
2, 169234, Note_on_c, 0, 51, 0
2, 169242, Note_on_c, 0, 84, 0
2, 169246, Note_on_c, 0, 57, 0
2, 169350, Note_on_c, 0, 62, 70
2, 169352, Note_on_c, 0, 84, 48
2, 169354, Note_on_c, 0, 51, 51
2, 169356, Note_on_c, 0, 57, 68
2, 169364, Note_on_c, 0, 72, 59
2, 169366, Note_on_c, 0, 79, 58
2, 169398, Note_on_c, 0, 72, 0
2, 169410, Note_on_c, 0, 79, 0
2, 169428, Note_on_c, 0, 51, 0
2, 169430, Note_on_c, 0, 62, 0
2, 169444, Note_on_c, 0, 84, 0
2, 169446, Note_on_c, 0, 57, 0
2, 169832, Note_on_c, 0, 55, 85
2, 169838, Note_on_c, 0, 63, 94
2, 169842, Note_on_c, 0, 60, 82
2, 169848, Note_on_c, 0, 90, 85
2, 169848, Note_on_c, 0, 57, 74
2, 169850, Note_on_c, 0, 78, 95
2, 170160, Note_on_c, 0, 90, 0
2, 170198, Control_c, 0, 64, 127
2, 170226, Note_on_c, 0, 55, 0
2, 170254, Note_on_c, 0, 78, 0
2, 170260, Note_on_c, 0, 57, 0
2, 170274, Note_on_c, 0, 60, 0
2, 170300, Note_on_c, 0, 63, 0
2, 170402, Control_c, 0, 64, 0
2, 170456, Note_on_c, 0, 65, 90
2, 170458, Note_on_c, 0, 58, 74
2, 170460, Note_on_c, 0, 60, 77
2, 170464, Note_on_c, 0, 87, 80
2, 170470, Note_on_c, 0, 75, 86
2, 170472, Note_on_c, 0, 82, 79
2, 170826, Note_on_c, 0, 82, 0
2, 170842, Note_on_c, 0, 65, 0
2, 170842, Note_on_c, 0, 87, 0
2, 170856, Note_on_c, 0, 60, 0
2, 170898, Note_on_c, 0, 58, 0
2, 170900, Note_on_c, 0, 75, 0
2, 171024, Note_on_c, 0, 53, 77
2, 171026, Note_on_c, 0, 63, 84
2, 171028, Note_on_c, 0, 84, 84
2, 171036, Note_on_c, 0, 59, 74
2, 171036, Note_on_c, 0, 72, 83
2, 171340, Note_on_c, 0, 72, 0
2, 171370, Note_on_c, 0, 84, 0
2, 171394, Note_on_c, 0, 56, 1
2, 171440, Note_on_c, 0, 59, 0
2, 171490, Control_c, 0, 64, 127
2, 171502, Note_on_c, 0, 53, 0
2, 171522, Control_c, 0, 64, 0
2, 171534, Note_on_c, 0, 63, 0
2, 171570, Note_on_c, 0, 56, 0
2, 171618, Note_on_c, 0, 58, 69
2, 171622, Note_on_c, 0, 62, 91
2, 171626, Note_on_c, 0, 90, 71
2, 171630, Note_on_c, 0, 78, 80
2, 171634, Note_on_c, 0, 57, 95
2, 171634, Note_on_c, 0, 51, 80
2, 171652, Note_on_c, 0, 58, 0
2, 171990, Note_on_c, 0, 57, 0
2, 171996, Note_on_c, 0, 90, 0
2, 171998, Note_on_c, 0, 51, 0
2, 172044, Note_on_c, 0, 78, 0
2, 172044, Note_on_c, 0, 62, 0
2, 172054, Control_c, 0, 64, 127
2, 172118, Control_c, 0, 64, 0
2, 172182, Note_on_c, 0, 55, 79
2, 172186, Note_on_c, 0, 63, 83
2, 172190, Note_on_c, 0, 60, 73
2, 172194, Note_on_c, 0, 57, 71
2, 172196, Note_on_c, 0, 87, 82
2, 172198, Note_on_c, 0, 75, 84
2, 172214, Note_on_c, 0, 58, 49
2, 172226, Note_on_c, 0, 85, 45
2, 172262, Note_on_c, 0, 85, 0
2, 172522, Note_on_c, 0, 87, 0
2, 172570, Note_on_c, 0, 58, 0
2, 172600, Note_on_c, 0, 75, 0
2, 172610, Note_on_c, 0, 55, 0
2, 172610, Control_c, 0, 64, 127
2, 172622, Note_on_c, 0, 57, 0
2, 172644, Note_on_c, 0, 63, 0
2, 172680, Note_on_c, 0, 60, 0
2, 172702, Control_c, 0, 64, 0
2, 172764, Note_on_c, 0, 84, 63
2, 172766, Note_on_c, 0, 63, 74
2, 172768, Note_on_c, 0, 55, 74
2, 172778, Note_on_c, 0, 72, 67
2, 172788, Note_on_c, 0, 60, 64
2, 172802, Note_on_c, 0, 57, 51
2, 173100, Note_on_c, 0, 55, 0
2, 173112, Note_on_c, 0, 57, 0
2, 173148, Note_on_c, 0, 60, 0
2, 173180, Note_on_c, 0, 63, 0
2, 173224, Note_on_c, 0, 72, 0
2, 173268, Note_on_c, 0, 84, 0
2, 173322, Note_on_c, 0, 72, 45
2, 173334, Note_on_c, 0, 81, 48
2, 173334, Note_on_c, 0, 65, 64
2, 173342, Note_on_c, 0, 60, 49
2, 173348, Note_on_c, 0, 58, 34
2, 173632, Note_on_c, 0, 81, 0
2, 173702, Note_on_c, 0, 65, 0
2, 173708, Note_on_c, 0, 60, 0
2, 173780, Note_on_c, 0, 58, 0
2, 173828, Note_on_c, 0, 72, 0
2, 173880, Note_on_c, 0, 64, 63
2, 173896, Note_on_c, 0, 53, 57
2, 173916, Note_on_c, 0, 59, 49
2, 174284, Note_on_c, 0, 53, 0
2, 174284, Note_on_c, 0, 64, 0
2, 174342, Note_on_c, 0, 59, 0
2, 174468, Note_on_c, 0, 63, 71
2, 174472, Note_on_c, 0, 53, 59
2, 174920, Note_on_c, 0, 63, 0
2, 174922, Note_on_c, 0, 53, 0
2, 175048, Note_on_c, 0, 62, 51
2, 175056, Note_on_c, 0, 58, 37
2, 175112, Note_on_c, 0, 52, 20
2, 175144, Note_on_c, 0, 62, 0
2, 175154, Note_on_c, 0, 52, 0
2, 175196, Note_on_c, 0, 58, 0
2, 175260, Note_on_c, 0, 84, 66
2, 175260, Note_on_c, 0, 72, 49
2, 175316, Note_on_c, 0, 72, 0
2, 175326, Note_on_c, 0, 84, 0
2, 175438, Note_on_c, 0, 84, 46
2, 175438, Note_on_c, 0, 72, 52
2, 175514, Note_on_c, 0, 84, 0
2, 175520, Note_on_c, 0, 72, 0
2, 175610, Note_on_c, 0, 84, 45
2, 175620, Note_on_c, 0, 72, 45
2, 175696, Note_on_c, 0, 72, 0
2, 175700, Note_on_c, 0, 84, 0
2, 175814, Note_on_c, 0, 84, 58
2, 175818, Note_on_c, 0, 72, 55
2, 175882, Note_on_c, 0, 72, 0
2, 175894, Note_on_c, 0, 84, 0
2, 175992, Note_on_c, 0, 84, 58
2, 176006, Note_on_c, 0, 72, 55
2, 176084, Note_on_c, 0, 72, 0
2, 176112, Note_on_c, 0, 84, 0
2, 176400, Note_on_c, 0, 72, 65
2, 176402, Note_on_c, 0, 84, 67
2, 176464, Note_on_c, 0, 72, 0
2, 176482, Note_on_c, 0, 84, 0
2, 176582, Note_on_c, 0, 84, 55
2, 176584, Note_on_c, 0, 72, 58
2, 176660, Note_on_c, 0, 84, 0
2, 176662, Note_on_c, 0, 72, 0
2, 176678, Note_on_c, 0, 63, 39
2, 176720, Note_on_c, 0, 63, 0
2, 176764, Note_on_c, 0, 84, 53
2, 176770, Note_on_c, 0, 72, 48
2, 176850, Note_on_c, 0, 72, 0
2, 176862, Note_on_c, 0, 84, 0
2, 177160, Note_on_c, 0, 63, 63
2, 177164, Note_on_c, 0, 60, 68
2, 177378, Note_on_c, 0, 63, 0
2, 177418, Note_on_c, 0, 60, 0
2, 177548, Note_on_c, 0, 63, 72
2, 177566, Note_on_c, 0, 60, 61
2, 177750, Note_on_c, 0, 60, 0
2, 177824, Note_on_c, 0, 63, 0
2, 177942, Note_on_c, 0, 64, 65
2, 177954, Note_on_c, 0, 55, 58
2, 177962, Note_on_c, 0, 60, 54
2, 178080, Note_on_c, 0, 64, 0
2, 178098, Note_on_c, 0, 60, 0
2, 178114, Note_on_c, 0, 55, 0
2, 178332, Note_on_c, 0, 84, 90
2, 178340, Note_on_c, 0, 72, 95
2, 178490, Note_on_c, 0, 84, 0
2, 178510, Note_on_c, 0, 72, 0
2, 178726, Note_on_c, 0, 83, 74
2, 178728, Note_on_c, 0, 71, 81
2, 178732, Note_on_c, 0, 78, 71
2, 178740, Note_on_c, 0, 62, 66
2, 178746, Note_on_c, 0, 59, 52
2, 178750, Note_on_c, 0, 53, 57
2, 178944, Note_on_c, 0, 71, 0
2, 178982, Note_on_c, 0, 79, 29
2, 178996, Note_on_c, 0, 59, 0
2, 179008, Note_on_c, 0, 62, 0
2, 179032, Note_on_c, 0, 83, 0
2, 179042, Note_on_c, 0, 78, 0
2, 179042, Note_on_c, 0, 79, 0
2, 179064, Note_on_c, 0, 53, 0
2, 179114, Note_on_c, 0, 71, 55
2, 179202, Note_on_c, 0, 71, 0
2, 179320, Note_on_c, 0, 72, 79
2, 179322, Note_on_c, 0, 62, 68
2, 179324, Note_on_c, 0, 84, 79
2, 179332, Note_on_c, 0, 52, 65
2, 179332, Note_on_c, 0, 58, 52
2, 179420, Note_on_c, 0, 62, 0
2, 179434, Note_on_c, 0, 52, 0
2, 179440, Note_on_c, 0, 58, 0
2, 179596, Note_on_c, 0, 72, 0
2, 179674, Note_on_c, 0, 58, 79
2, 179674, Note_on_c, 0, 62, 84
2, 179682, Note_on_c, 0, 52, 83
2, 179696, Note_on_c, 0, 84, 0
2, 180076, Note_on_c, 0, 98, 91
2, 180208, Note_on_c, 0, 98, 0
2, 180258, Note_on_c, 0, 103, 88
2, 180378, Note_on_c, 0, 52, 0
2, 180388, Note_on_c, 0, 103, 0
2, 180426, Note_on_c, 0, 58, 0
2, 180460, Note_on_c, 0, 101, 76
2, 180552, Note_on_c, 0, 62, 0
2, 180640, Note_on_c, 0, 101, 0
2, 180646, Note_on_c, 0, 95, 67
2, 180766, Note_on_c, 0, 95, 0
2, 180836, Note_on_c, 0, 99, 78
2, 180860, Note_on_c, 0, 63, 57
2, 180870, Note_on_c, 0, 67, 51
2, 180872, Note_on_c, 0, 57, 51
2, 180998, Note_on_c, 0, 99, 0
2, 181058, Note_on_c, 0, 95, 71
2, 181152, Note_on_c, 0, 95, 0
2, 181228, Note_on_c, 0, 98, 88
2, 181256, Note_on_c, 0, 67, 0
2, 181390, Note_on_c, 0, 63, 0
2, 181406, Note_on_c, 0, 57, 0
2, 181408, Note_on_c, 0, 97, 78
2, 181460, Note_on_c, 0, 98, 0
2, 181534, Note_on_c, 0, 97, 0
2, 181608, Note_on_c, 0, 96, 69
2, 181636, Note_on_c, 0, 63, 37
2, 181644, Note_on_c, 0, 67, 28
2, 181680, Note_on_c, 0, 67, 0
2, 181714, Note_on_c, 0, 63, 0
2, 181720, Note_on_c, 0, 96, 0
2, 181784, Note_on_c, 0, 89, 41
2, 181894, Note_on_c, 0, 89, 0
2, 181964, Note_on_c, 0, 87, 75
2, 181980, Note_on_c, 0, 67, 47
2, 181984, Note_on_c, 0, 63, 49
2, 182024, Note_on_c, 0, 67, 0
2, 182040, Note_on_c, 0, 57, 20
2, 182076, Note_on_c, 0, 57, 0
2, 182098, Note_on_c, 0, 87, 0
2, 182116, Note_on_c, 0, 63, 0
2, 182164, Note_on_c, 0, 84, 47
2, 182256, Note_on_c, 0, 84, 0
2, 182554, Note_on_c, 0, 86, 101
2, 182564, Note_on_c, 0, 63, 52
2, 182652, Note_on_c, 0, 63, 0
2, 182730, Note_on_c, 0, 86, 0
2, 182732, Note_on_c, 0, 87, 64
2, 182810, Note_on_c, 0, 86, 65
2, 182872, Note_on_c, 0, 85, 67
2, 182878, Note_on_c, 0, 87, 0
2, 182896, Note_on_c, 0, 86, 0
2, 182972, Note_on_c, 0, 84, 27
2, 183004, Note_on_c, 0, 85, 0
2, 183096, Note_on_c, 0, 84, 0
2, 183192, Note_on_c, 0, 82, 70
2, 183204, Note_on_c, 0, 63, 44
2, 183210, Note_on_c, 0, 67, 37
2, 183244, Note_on_c, 0, 67, 0
2, 183260, Note_on_c, 0, 63, 0
2, 183278, Note_on_c, 0, 82, 0
2, 183544, Note_on_c, 0, 63, 65
2, 183546, Note_on_c, 0, 80, 87
2, 183554, Note_on_c, 0, 67, 55
2, 183560, Note_on_c, 0, 57, 61
2, 183586, Note_on_c, 0, 67, 0
2, 183600, Note_on_c, 0, 57, 0
2, 183626, Note_on_c, 0, 63, 0
2, 183650, Note_on_c, 0, 80, 0
2, 183738, Note_on_c, 0, 81, 74
2, 183824, Note_on_c, 0, 81, 0
2, 183918, Note_on_c, 0, 82, 82
2, 183940, Note_on_c, 0, 62, 63
2, 183978, Note_on_c, 0, 62, 0
2, 184068, Note_on_c, 0, 82, 0
2, 184106, Note_on_c, 0, 83, 51
2, 184218, Note_on_c, 0, 83, 0
2, 184298, Note_on_c, 0, 84, 85
2, 184328, Note_on_c, 0, 58, 51
2, 184330, Note_on_c, 0, 62, 48
2, 184374, Note_on_c, 0, 62, 0
2, 184404, Note_on_c, 0, 58, 0
2, 184456, Note_on_c, 0, 84, 0
2, 184492, Note_on_c, 0, 79, 54
2, 184610, Note_on_c, 0, 79, 0
2, 184686, Note_on_c, 0, 75, 62
2, 184736, Note_on_c, 0, 58, 31
2, 184746, Note_on_c, 0, 62, 29
2, 184780, Note_on_c, 0, 62, 0
2, 184800, Note_on_c, 0, 58, 0
2, 184874, Note_on_c, 0, 72, 44
2, 184930, Note_on_c, 0, 75, 0
2, 185046, Note_on_c, 0, 72, 0
2, 185410, Note_on_c, 0, 63, 84
2, 185418, Note_on_c, 0, 87, 92
2, 185422, Note_on_c, 0, 58, 64
2, 185424, Note_on_c, 0, 52, 76
2, 185608, Note_on_c, 0, 52, 0
2, 185612, Note_on_c, 0, 63, 0
2, 185660, Note_on_c, 0, 87, 0
2, 185684, Note_on_c, 0, 58, 0
2, 185780, Note_on_c, 0, 85, 76
2, 185894, Note_on_c, 0, 85, 0
2, 186012, Note_on_c, 0, 82, 31
2, 186148, Note_on_c, 0, 82, 0
2, 186168, Note_on_c, 0, 80, 71
2, 186186, Note_on_c, 0, 63, 58
2, 186200, Note_on_c, 0, 58, 42
2, 186202, Note_on_c, 0, 52, 40
2, 186258, Note_on_c, 0, 63, 0
2, 186312, Note_on_c, 0, 52, 0
2, 186336, Note_on_c, 0, 80, 0
2, 186340, Note_on_c, 0, 76, 29
2, 186394, Note_on_c, 0, 58, 0
2, 186560, Note_on_c, 0, 75, 69
2, 186566, Note_on_c, 0, 63, 71
2, 186568, Note_on_c, 0, 52, 66
2, 186570, Note_on_c, 0, 58, 59
2, 186602, Note_on_c, 0, 76, 0
2, 186714, Note_on_c, 0, 75, 0
2, 186740, Note_on_c, 0, 52, 0
2, 186764, Note_on_c, 0, 74, 35
2, 186798, Note_on_c, 0, 63, 0
2, 186826, Note_on_c, 0, 58, 0
2, 186904, Note_on_c, 0, 74, 0
2, 186952, Note_on_c, 0, 73, 76
2, 187066, Note_on_c, 0, 73, 0
2, 187116, Note_on_c, 0, 63, 54
2, 187126, Note_on_c, 0, 60, 57
2, 187140, Note_on_c, 0, 53, 43
2, 187142, Note_on_c, 0, 72, 64
2, 187144, Note_on_c, 0, 56, 37
2, 187468, Note_on_c, 0, 72, 0
2, 187526, Note_on_c, 0, 68, 53
2, 187528, Note_on_c, 0, 53, 0
2, 187560, Note_on_c, 0, 60, 0
2, 187602, Note_on_c, 0, 56, 0
2, 187630, Note_on_c, 0, 63, 0
2, 187644, Note_on_c, 0, 68, 0
2, 187752, Note_on_c, 0, 69, 65
2, 187840, Note_on_c, 0, 69, 0
2, 187928, Note_on_c, 0, 70, 75
2, 187938, Note_on_c, 0, 55, 58
2, 187948, Note_on_c, 0, 65, 55
2, 187950, Note_on_c, 0, 61, 54
2, 188058, Note_on_c, 0, 70, 0
2, 188140, Note_on_c, 0, 71, 60
2, 188246, Note_on_c, 0, 71, 0
2, 188318, Note_on_c, 0, 72, 94
2, 188482, Note_on_c, 0, 55, 0
2, 188486, Note_on_c, 0, 65, 0
2, 188508, Note_on_c, 0, 72, 0
2, 188652, Note_on_c, 0, 61, 0
2, 188686, Note_on_c, 0, 64, 63
2, 188688, Note_on_c, 0, 60, 68
2, 189060, Note_on_c, 0, 64, 0
2, 189068, Note_on_c, 0, 60, 0
2, 189244, Note_on_c, 0, 60, 70
2, 189244, Note_on_c, 0, 64, 71
2, 189628, Note_on_c, 0, 64, 0
2, 189650, Note_on_c, 0, 60, 0
2, 189794, Note_on_c, 0, 64, 71
2, 189802, Note_on_c, 0, 59, 66
2, 189802, Note_on_c, 0, 53, 68
2, 190184, Note_on_c, 0, 66, 85
2, 190190, Note_on_c, 0, 78, 43
2, 190204, Note_on_c, 0, 79, 73
2, 190232, Note_on_c, 0, 67, 79
2, 190234, Note_on_c, 0, 66, 0
2, 190260, Note_on_c, 0, 77, 20
2, 190262, Note_on_c, 0, 78, 0
2, 190394, Note_on_c, 0, 67, 0
2, 190408, Note_on_c, 0, 77, 0
2, 190412, Note_on_c, 0, 53, 0
2, 190416, Note_on_c, 0, 79, 0
2, 190424, Note_on_c, 0, 64, 0
2, 190486, Note_on_c, 0, 59, 0
2, 190568, Note_on_c, 0, 59, 58
2, 190570, Note_on_c, 0, 53, 68
2, 190574, Note_on_c, 0, 79, 72
2, 190578, Note_on_c, 0, 64, 68
2, 190580, Note_on_c, 0, 67, 84
2, 190606, Note_on_c, 0, 77, 44
2, 190660, Note_on_c, 0, 77, 0
2, 190722, Note_on_c, 0, 64, 0
2, 190742, Note_on_c, 0, 79, 0
2, 190744, Note_on_c, 0, 67, 0
2, 190766, Note_on_c, 0, 53, 0
2, 190766, Note_on_c, 0, 59, 0
2, 190966, Note_on_c, 0, 80, 80
2, 190968, Note_on_c, 0, 68, 88
2, 190970, Note_on_c, 0, 53, 71
2, 190972, Note_on_c, 0, 59, 73
2, 190978, Note_on_c, 0, 63, 72
2, 191000, Note_on_c, 0, 56, 32
2, 191054, Note_on_c, 0, 56, 0
2, 191116, Note_on_c, 0, 68, 0
2, 191122, Note_on_c, 0, 80, 0
2, 191124, Note_on_c, 0, 63, 0
2, 191162, Note_on_c, 0, 63, 29
2, 191204, Note_on_c, 0, 80, 49
2, 191212, Note_on_c, 0, 68, 56
2, 191266, Note_on_c, 0, 63, 0
2, 191268, Note_on_c, 0, 59, 0
2, 191294, Note_on_c, 0, 68, 0
2, 191310, Note_on_c, 0, 53, 0
2, 191328, Note_on_c, 0, 80, 0
2, 191378, Control_c, 0, 64, 127
2, 191410, Control_c, 0, 64, 0
2, 191558, Note_on_c, 0, 43, 73
2, 191572, Note_on_c, 0, 81, 87
2, 191574, Note_on_c, 0, 69, 94
2, 191638, Note_on_c, 0, 43, 0
2, 191708, Note_on_c, 0, 69, 0
2, 191720, Note_on_c, 0, 81, 0
2, 191778, Control_c, 0, 64, 127
2, 191830, Control_c, 0, 64, 0
2, 191928, Note_on_c, 0, 53, 74
2, 191930, Note_on_c, 0, 82, 87
2, 191930, Note_on_c, 0, 59, 64
2, 191934, Note_on_c, 0, 70, 95
2, 191934, Note_on_c, 0, 64, 76
2, 192018, Note_on_c, 0, 64, 0
2, 192054, Note_on_c, 0, 59, 0
2, 192058, Note_on_c, 0, 70, 0
2, 192074, Note_on_c, 0, 53, 0
2, 192098, Note_on_c, 0, 82, 0
2, 192298, Note_on_c, 0, 59, 76
2, 192300, Note_on_c, 0, 53, 74
2, 192306, Note_on_c, 0, 71, 89
2, 192310, Note_on_c, 0, 64, 74
2, 192310, Note_on_c, 0, 83, 66
2, 192320, Note_on_c, 0, 81, 78
2, 192326, Note_on_c, 0, 80, 50
2, 192352, Note_on_c, 0, 81, 0
2, 192354, Note_on_c, 0, 64, 0
2, 192366, Note_on_c, 0, 80, 0
2, 192386, Note_on_c, 0, 53, 0
2, 192398, Note_on_c, 0, 83, 0
2, 192400, Note_on_c, 0, 71, 0
2, 192452, Note_on_c, 0, 59, 0
2, 192532, Note_on_c, 0, 53, 77
2, 192532, Note_on_c, 0, 59, 71
2, 192536, Note_on_c, 0, 63, 81
2, 192536, Note_on_c, 0, 71, 75
2, 192536, Note_on_c, 0, 83, 74
2, 192544, Note_on_c, 0, 56, 54
2, 192602, Control_c, 0, 64, 127
2, 192742, Note_on_c, 0, 53, 0
2, 192756, Control_c, 0, 64, 0
2, 192758, Note_on_c, 0, 63, 0
2, 192768, Note_on_c, 0, 71, 0
2, 192786, Note_on_c, 0, 83, 0
2, 192804, Note_on_c, 0, 59, 0
2, 192868, Note_on_c, 0, 63, 51
2, 192876, Note_on_c, 0, 53, 44
2, 192920, Control_c, 0, 64, 127
2, 192940, Note_on_c, 0, 53, 0
2, 192956, Note_on_c, 0, 63, 0
2, 193056, Note_on_c, 0, 56, 0
2, 193096, Control_c, 0, 64, 0
2, 193112, Note_on_c, 0, 84, 91
2, 193114, Note_on_c, 0, 79, 81
2, 193116, Note_on_c, 0, 72, 90
2, 193116, Note_on_c, 0, 62, 91
2, 193128, Note_on_c, 0, 51, 64
2, 193128, Note_on_c, 0, 57, 78
2, 193130, Note_on_c, 0, 55, 77
2, 193336, Control_c, 0, 64, 127
2, 193578, Note_on_c, 0, 57, 0
2, 193580, Note_on_c, 0, 55, 0
2, 193598, Note_on_c, 0, 72, 0
2, 193608, Note_on_c, 0, 51, 0
2, 193632, Note_on_c, 0, 79, 0
2, 193648, Note_on_c, 0, 84, 0
2, 193668, Note_on_c, 0, 62, 0
2, 193974, Control_c, 0, 64, 0
2, 194008, Note_on_c, 0, 60, 88
2, 194010, Note_on_c, 0, 61, 67
2, 194012, Note_on_c, 0, 87, 90
2, 194014, Note_on_c, 0, 65, 94
2, 194014, Note_on_c, 0, 75, 94
2, 194016, Note_on_c, 0, 82, 87
2, 194018, Note_on_c, 0, 55, 80
2, 194026, Note_on_c, 0, 58, 51
2, 194334, Control_c, 0, 64, 127
2, 194444, Note_on_c, 0, 75, 0
2, 194446, Note_on_c, 0, 82, 0
2, 194460, Note_on_c, 0, 87, 0
2, 194462, Note_on_c, 0, 65, 0
2, 194466, Note_on_c, 0, 55, 0
2, 194510, Note_on_c, 0, 60, 0
2, 194522, Note_on_c, 0, 61, 0
2, 194522, Note_on_c, 0, 58, 0
2, 194632, Control_c, 0, 64, 0
2, 194638, Note_on_c, 0, 64, 96
2, 194640, Note_on_c, 0, 84, 88
2, 194644, Note_on_c, 0, 89, 87
2, 194646, Note_on_c, 0, 60, 87
2, 194646, Note_on_c, 0, 77, 84
2, 194670, Note_on_c, 0, 58, 34
2, 194704, Note_on_c, 0, 58, 0
2, 194830, Control_c, 0, 64, 127
2, 194976, Note_on_c, 0, 77, 0
2, 194996, Note_on_c, 0, 84, 0
2, 195012, Note_on_c, 0, 64, 0
2, 195018, Note_on_c, 0, 60, 0
2, 195026, Note_on_c, 0, 89, 0
2, 195128, Control_c, 0, 64, 0
2, 195184, Note_on_c, 0, 63, 94
2, 195186, Note_on_c, 0, 91, 85
2, 195188, Note_on_c, 0, 59, 83
2, 195190, Note_on_c, 0, 79, 85
2, 195192, Note_on_c, 0, 86, 87
2, 195192, Note_on_c, 0, 53, 85
2, 195460, Control_c, 0, 64, 127
2, 195530, Note_on_c, 0, 79, 0
2, 195578, Note_on_c, 0, 86, 0
2, 195580, Note_on_c, 0, 91, 0
2, 195638, Note_on_c, 0, 53, 0
2, 195642, Note_on_c, 0, 63, 0
2, 195652, Note_on_c, 0, 59, 0
2, 195778, Control_c, 0, 64, 0
2, 195784, Note_on_c, 0, 95, 82
2, 195790, Note_on_c, 0, 89, 75
2, 195794, Note_on_c, 0, 63, 79
2, 195796, Note_on_c, 0, 83, 62
2, 195800, Note_on_c, 0, 53, 71
2, 195810, Note_on_c, 0, 56, 51
2, 195812, Note_on_c, 0, 59, 68
2, 196004, Note_on_c, 0, 59, 0
2, 196024, Control_c, 0, 64, 127
2, 196040, Note_on_c, 0, 83, 0
2, 196084, Note_on_c, 0, 89, 0
2, 196086, Note_on_c, 0, 53, 0
2, 196104, Note_on_c, 0, 95, 0
2, 196152, Note_on_c, 0, 63, 0
2, 196192, Note_on_c, 0, 56, 0
2, 196250, Control_c, 0, 64, 0
2, 196332, Note_on_c, 0, 62, 53
2, 196350, Note_on_c, 0, 51, 42
2, 196356, Note_on_c, 0, 96, 60
2, 196360, Note_on_c, 0, 55, 54
2, 196368, Note_on_c, 0, 57, 49
2, 196372, Note_on_c, 0, 91, 39
2, 196376, Note_on_c, 0, 84, 25
2, 196414, Note_on_c, 0, 57, 0
2, 196422, Note_on_c, 0, 91, 0
2, 196428, Note_on_c, 0, 84, 0
2, 196438, Note_on_c, 0, 62, 0
2, 196458, Note_on_c, 0, 96, 0
2, 196464, Note_on_c, 0, 55, 0
2, 196478, Note_on_c, 0, 51, 0
2, 196718, Note_on_c, 0, 62, 58
2, 196724, Note_on_c, 0, 51, 43
2, 196728, Note_on_c, 0, 96, 53
2, 196736, Note_on_c, 0, 84, 37
2, 196744, Note_on_c, 0, 57, 43
2, 196746, Note_on_c, 0, 91, 44
2, 196746, Note_on_c, 0, 55, 45
2, 196804, Note_on_c, 0, 91, 0
2, 196808, Note_on_c, 0, 84, 0
2, 196844, Note_on_c, 0, 51, 0
2, 196852, Note_on_c, 0, 55, 0
2, 196854, Note_on_c, 0, 57, 0
2, 196856, Note_on_c, 0, 62, 0
2, 196882, Note_on_c, 0, 96, 0
2, 197296, Note_on_c, 0, 99, 49
2, 197302, Note_on_c, 0, 65, 47
2, 197304, Note_on_c, 0, 61, 39
2, 197312, Note_on_c, 0, 87, 33
2, 197320, Note_on_c, 0, 60, 43
2, 197320, Note_on_c, 0, 55, 29
2, 197322, Note_on_c, 0, 94, 45
2, 197436, Note_on_c, 0, 94, 0
2, 197446, Note_on_c, 0, 87, 0
2, 197456, Note_on_c, 0, 99, 0
2, 197464, Note_on_c, 0, 65, 0
2, 197464, Note_on_c, 0, 61, 0
2, 197470, Note_on_c, 0, 60, 0
2, 197512, Note_on_c, 0, 55, 0
2, 197574, Control_c, 0, 64, 127
2, 197676, Control_c, 0, 64, 0
2, 197860, Note_on_c, 0, 64, 37
2, 197868, Note_on_c, 0, 60, 44
2, 197868, Note_on_c, 0, 101, 47
2, 197878, Note_on_c, 0, 89, 34
2, 197890, Note_on_c, 0, 96, 47
2, 197980, Note_on_c, 0, 89, 0
2, 198006, Note_on_c, 0, 96, 0
2, 198038, Note_on_c, 0, 60, 0
2, 198042, Note_on_c, 0, 101, 0
2, 198054, Note_on_c, 0, 64, 0
2, 198428, Note_on_c, 0, 63, 54
2, 198450, Note_on_c, 0, 59, 46
2, 198470, Note_on_c, 0, 53, 36
2, 198472, Note_on_c, 0, 56, 33
2, 198968, Note_on_c, 0, 59, 0
2, 199016, Note_on_c, 0, 101, 46
2, 199058, Note_on_c, 0, 63, 0
2, 199084, Note_on_c, 0, 53, 0
2, 199144, Note_on_c, 0, 101, 0
2, 199216, Note_on_c, 0, 56, 0
2, 199228, Note_on_c, 0, 99, 51
2, 199336, Note_on_c, 0, 99, 0
2, 199400, Note_on_c, 0, 58, 37
2, 199408, Note_on_c, 0, 62, 38
2, 199412, Note_on_c, 0, 100, 60
2, 199438, Note_on_c, 0, 52, 29
2, 199500, Note_on_c, 0, 52, 0
2, 199516, Note_on_c, 0, 62, 0
2, 199548, Note_on_c, 0, 100, 0
2, 199562, Note_on_c, 0, 58, 0
2, 199770, Note_on_c, 0, 96, 66
2, 199860, Note_on_c, 0, 96, 0
2, 200144, Note_on_c, 0, 101, 76
2, 200286, Note_on_c, 0, 101, 0
2, 200372, Note_on_c, 0, 99, 50
2, 200486, Note_on_c, 0, 99, 0
2, 200558, Note_on_c, 0, 100, 73
2, 200728, Note_on_c, 0, 100, 0
2, 200918, Note_on_c, 0, 41, 44
2, 200920, Note_on_c, 0, 53, 58
2, 200930, Note_on_c, 0, 96, 68
2, 200984, Note_on_c, 0, 53, 0
2, 200992, Note_on_c, 0, 41, 0
2, 201010, Note_on_c, 0, 96, 0
2, 201296, Note_on_c, 0, 101, 77
2, 201438, Note_on_c, 0, 101, 0
2, 201534, Note_on_c, 0, 99, 55
2, 201620, Note_on_c, 0, 99, 0
2, 201710, Note_on_c, 0, 42, 57
2, 201728, Note_on_c, 0, 100, 67
2, 201858, Note_on_c, 0, 100, 0
2, 201874, Note_on_c, 0, 42, 0
2, 202094, Note_on_c, 0, 96, 88
2, 202210, Note_on_c, 0, 96, 0
2, 202460, Note_on_c, 0, 101, 82
2, 202474, Note_on_c, 0, 89, 80
2, 202486, Note_on_c, 0, 55, 71
2, 202490, Note_on_c, 0, 43, 62
2, 202546, Note_on_c, 0, 43, 0
2, 202566, Note_on_c, 0, 55, 0
2, 202570, Note_on_c, 0, 89, 0
2, 202624, Note_on_c, 0, 101, 0
2, 202716, Note_on_c, 0, 99, 71
2, 202808, Note_on_c, 0, 99, 0
2, 202864, Note_on_c, 0, 100, 74
2, 203042, Note_on_c, 0, 100, 0
2, 203242, Note_on_c, 0, 96, 84
2, 203246, Note_on_c, 0, 55, 75
2, 203250, Note_on_c, 0, 61, 60
2, 203254, Note_on_c, 0, 65, 70
2, 203344, Note_on_c, 0, 96, 0
2, 203418, Note_on_c, 0, 65, 0
2, 203464, Note_on_c, 0, 55, 0
2, 203550, Note_on_c, 0, 61, 0
2, 203618, Note_on_c, 0, 101, 87
2, 203740, Note_on_c, 0, 101, 0
2, 203824, Note_on_c, 0, 99, 64
2, 203886, Note_on_c, 0, 99, 0
2, 204002, Note_on_c, 0, 60, 78
2, 204004, Note_on_c, 0, 64, 74
2, 204014, Note_on_c, 0, 100, 84
2, 204156, Note_on_c, 0, 64, 0
2, 204162, Note_on_c, 0, 100, 0
2, 204172, Note_on_c, 0, 60, 0
2, 204386, Note_on_c, 0, 63, 91
2, 204388, Note_on_c, 0, 59, 80
2, 204394, Note_on_c, 0, 96, 108
2, 204396, Note_on_c, 0, 53, 74
2, 204398, Note_on_c, 0, 56, 55
2, 205038, Note_on_c, 0, 96, 0
2, 205164, Note_on_c, 0, 53, 0
2, 205178, Note_on_c, 0, 59, 0
2, 205188, Note_on_c, 0, 63, 0
2, 205202, Note_on_c, 0, 56, 0
2, 205428, Note_on_c, 0, 67, 40
2, 205472, Note_on_c, 0, 67, 0
2, 205566, Note_on_c, 0, 60, 74
2, 205570, Note_on_c, 0, 72, 80
2, 205592, Note_on_c, 0, 60, 0
2, 205642, Note_on_c, 0, 72, 0
2, 205750, Note_on_c, 0, 72, 80
2, 205762, Note_on_c, 0, 60, 78
2, 205824, Note_on_c, 0, 60, 0
2, 205824, Note_on_c, 0, 72, 0
2, 205934, Note_on_c, 0, 72, 77
2, 205940, Note_on_c, 0, 60, 68
2, 205966, Note_on_c, 0, 60, 0
2, 205992, Note_on_c, 0, 72, 0
2, 206126, Note_on_c, 0, 72, 82
2, 206132, Note_on_c, 0, 60, 71
2, 206194, Note_on_c, 0, 60, 0
2, 206202, Note_on_c, 0, 72, 0
2, 206312, Note_on_c, 0, 58, 65
2, 206314, Note_on_c, 0, 70, 78
2, 206464, Note_on_c, 0, 58, 0
2, 206468, Note_on_c, 0, 70, 0
2, 206700, Note_on_c, 0, 58, 62
2, 206706, Note_on_c, 0, 70, 71
2, 206834, Note_on_c, 0, 70, 0
2, 206906, Note_on_c, 0, 58, 0
2, 206916, Note_on_c, 0, 72, 82
2, 206916, Note_on_c, 0, 60, 85
2, 207098, Note_on_c, 0, 72, 0
2, 207166, Note_on_c, 0, 60, 0
2, 207280, Note_on_c, 0, 67, 84
2, 207290, Note_on_c, 0, 55, 75
2, 207814, Note_on_c, 0, 67, 0
2, 207844, Note_on_c, 0, 55, 0
2, 207844, Note_on_c, 0, 60, 58
2, 207844, Note_on_c, 0, 48, 54
2, 207960, Note_on_c, 0, 60, 0
2, 207988, Note_on_c, 0, 48, 0
2, 208212, Note_on_c, 0, 63, 69
2, 208366, Note_on_c, 0, 51, 55
2, 208378, Note_on_c, 0, 51, 0
2, 208386, Note_on_c, 0, 63, 0
2, 208608, Note_on_c, 0, 46, 75
2, 208610, Note_on_c, 0, 56, 80
2, 208614, Note_on_c, 0, 65, 91
2, 208614, Note_on_c, 0, 60, 99
2, 208760, Note_on_c, 0, 65, 0
2, 208804, Note_on_c, 0, 67, 70
2, 208962, Note_on_c, 0, 67, 0
2, 208988, Note_on_c, 0, 65, 69
2, 208998, Note_on_c, 0, 56, 0
2, 209080, Note_on_c, 0, 46, 0
2, 209090, Note_on_c, 0, 60, 0
2, 209198, Note_on_c, 0, 63, 53
2, 209296, Note_on_c, 0, 65, 0
2, 209338, Note_on_c, 0, 63, 0
2, 209396, Note_on_c, 0, 60, 78
2, 209396, Note_on_c, 0, 48, 65
2, 209410, Note_on_c, 0, 55, 62
2, 209652, Note_on_c, 0, 60, 0
2, 209678, Note_on_c, 0, 55, 0
2, 209746, Note_on_c, 0, 48, 0
2, 209752, Note_on_c, 0, 60, 56
2, 209762, Note_on_c, 0, 55, 44
2, 209832, Note_on_c, 0, 55, 0
2, 209840, Note_on_c, 0, 60, 0
2, 209964, Note_on_c, 0, 58, 79
2, 209968, Note_on_c, 0, 43, 66
2, 209970, Note_on_c, 0, 53, 77
2, 210126, Note_on_c, 0, 43, 0
2, 210188, Note_on_c, 0, 58, 0
2, 210194, Note_on_c, 0, 53, 0
2, 210330, Note_on_c, 0, 58, 56
2, 210352, Note_on_c, 0, 43, 48
2, 210468, Note_on_c, 0, 43, 0
2, 210468, Note_on_c, 0, 58, 0
2, 210516, Note_on_c, 0, 36, 83
2, 210522, Note_on_c, 0, 48, 84
2, 210530, Note_on_c, 0, 60, 82
2, 210534, Note_on_c, 0, 55, 77
2, 210652, Note_on_c, 0, 55, 0
2, 210722, Note_on_c, 0, 36, 0
2, 210766, Note_on_c, 0, 60, 0
2, 210778, Note_on_c, 0, 48, 0
2, 211862, Note_on_c, 0, 55, 61
2, 211866, Note_on_c, 0, 79, 48
2, 211916, Note_on_c, 0, 79, 0
2, 212046, Note_on_c, 0, 55, 0
2, 212242, Note_on_c, 0, 84, 108
2, 212246, Note_on_c, 0, 60, 103
2, 212438, Note_on_c, 0, 84, 0
2, 212446, Note_on_c, 0, 60, 0
2, 212634, Note_on_c, 0, 62, 82
2, 212638, Note_on_c, 0, 86, 91
2, 212766, Note_on_c, 0, 86, 0
2, 212786, Note_on_c, 0, 62, 0
2, 212822, Note_on_c, 0, 87, 59
2, 212828, Note_on_c, 0, 63, 54
2, 212962, Note_on_c, 0, 87, 0
2, 212986, Note_on_c, 0, 63, 0
2, 213024, Note_on_c, 0, 84, 30
2, 213060, Note_on_c, 0, 60, 32
2, 213102, Note_on_c, 0, 84, 0
2, 213150, Note_on_c, 0, 60, 0
2, 213190, Note_on_c, 0, 86, 66
2, 213190, Note_on_c, 0, 62, 58
2, 213338, Note_on_c, 0, 86, 0
2, 213344, Note_on_c, 0, 62, 0
2, 213378, Note_on_c, 0, 84, 47
2, 213382, Note_on_c, 0, 60, 48
2, 213482, Note_on_c, 0, 84, 0
2, 213528, Note_on_c, 0, 60, 0
2, 213564, Note_on_c, 0, 58, 45
2, 213568, Note_on_c, 0, 82, 42
2, 213882, Note_on_c, 0, 58, 0
2, 213884, Note_on_c, 0, 82, 0
2, 213952, Note_on_c, 0, 79, 32
2, 213958, Note_on_c, 0, 55, 45
2, 214232, Note_on_c, 0, 79, 0
2, 214250, Note_on_c, 0, 55, 0
2, 214726, Note_on_c, 0, 56, 87
2, 214730, Note_on_c, 0, 72, 99
2, 214732, Note_on_c, 0, 77, 88
2, 214734, Note_on_c, 0, 62, 87
2, 214734, Note_on_c, 0, 67, 94
2, 214860, Note_on_c, 0, 77, 0
2, 214922, Note_on_c, 0, 79, 67
2, 214924, Control_c, 0, 64, 127
2, 214944, Note_on_c, 0, 77, 33
2, 215036, Note_on_c, 0, 77, 0
2, 215092, Note_on_c, 0, 77, 38
2, 215126, Note_on_c, 0, 79, 0
2, 215154, Note_on_c, 0, 62, 0
2, 215162, Note_on_c, 0, 67, 0
2, 215176, Note_on_c, 0, 72, 0
2, 215224, Note_on_c, 0, 56, 0
2, 215248, Note_on_c, 0, 77, 0
2, 215288, Note_on_c, 0, 75, 69
2, 215400, Control_c, 0, 64, 0
2, 215428, Note_on_c, 0, 75, 0
2, 215480, Note_on_c, 0, 72, 71
2, 215484, Note_on_c, 0, 60, 64
2, 215486, Note_on_c, 0, 63, 62
2, 215490, Note_on_c, 0, 53, 54
2, 215492, Note_on_c, 0, 68, 57
2, 215498, Note_on_c, 0, 56, 42
2, 215746, Note_on_c, 0, 72, 0
2, 215762, Note_on_c, 0, 68, 0
2, 215844, Note_on_c, 0, 60, 0
2, 215854, Control_c, 0, 64, 127
2, 215880, Note_on_c, 0, 63, 0
2, 215880, Note_on_c, 0, 72, 45
2, 215892, Note_on_c, 0, 56, 0
2, 215894, Note_on_c, 0, 68, 28
2, 215952, Note_on_c, 0, 72, 0
2, 215956, Note_on_c, 0, 68, 0
2, 215958, Note_on_c, 0, 53, 0
2, 216086, Control_c, 0, 64, 0
2, 216096, Note_on_c, 0, 53, 57
2, 216096, Note_on_c, 0, 70, 64
2, 216098, Note_on_c, 0, 58, 55
2, 216102, Note_on_c, 0, 62, 60
2, 216118, Note_on_c, 0, 65, 38
2, 216138, Note_on_c, 0, 62, 0
2, 216146, Note_on_c, 0, 65, 0
2, 216176, Note_on_c, 0, 70, 0
2, 216184, Note_on_c, 0, 58, 0
2, 216184, Note_on_c, 0, 53, 0
2, 216448, Note_on_c, 0, 51, 81
2, 216450, Note_on_c, 0, 72, 84
2, 216452, Note_on_c, 0, 62, 89
2, 216456, Note_on_c, 0, 57, 81
2, 216456, Note_on_c, 0, 67, 94
2, 216602, Note_on_c, 0, 72, 0
2, 216606, Note_on_c, 0, 51, 0
2, 216628, Note_on_c, 0, 67, 0
2, 216628, Note_on_c, 0, 62, 0
2, 216652, Note_on_c, 0, 57, 0
2, 216674, Note_on_c, 0, 51, 74
2, 216674, Note_on_c, 0, 72, 71
2, 216678, Note_on_c, 0, 67, 81
2, 216678, Note_on_c, 0, 62, 95
2, 216682, Note_on_c, 0, 57, 69
2, 216854, Note_on_c, 0, 72, 0
2, 216858, Note_on_c, 0, 67, 0
2, 216892, Note_on_c, 0, 57, 0
2, 216908, Note_on_c, 0, 51, 0
2, 216910, Note_on_c, 0, 62, 0
2, 217614, Note_on_c, 0, 79, 54
2, 217630, Note_on_c, 0, 55, 51
2, 217674, Note_on_c, 0, 79, 0
2, 217728, Note_on_c, 0, 55, 0
2, 217830, Note_on_c, 0, 83, 51
2, 217830, Note_on_c, 0, 60, 64
2, 217864, Note_on_c, 0, 84, 63
2, 217900, Note_on_c, 0, 83, 0
2, 217978, Note_on_c, 0, 60, 0
2, 217994, Note_on_c, 0, 84, 0
2, 218084, Note_on_c, 0, 60, 71
2, 218088, Note_on_c, 0, 83, 38
2, 218098, Note_on_c, 0, 59, 61
2, 218110, Note_on_c, 0, 84, 76
2, 218124, Note_on_c, 0, 59, 0
2, 218186, Note_on_c, 0, 83, 0
2, 218234, Note_on_c, 0, 84, 0
2, 218254, Note_on_c, 0, 60, 0
2, 218320, Note_on_c, 0, 58, 52
2, 218336, Note_on_c, 0, 83, 71
2, 218346, Note_on_c, 0, 58, 0
2, 218352, Note_on_c, 0, 59, 69
2, 218362, Note_on_c, 0, 60, 80
2, 218402, Note_on_c, 0, 84, 62
2, 218420, Note_on_c, 0, 59, 0
2, 218466, Note_on_c, 0, 83, 0
2, 218546, Note_on_c, 0, 84, 0
2, 218580, Note_on_c, 0, 60, 0
2, 218600, Note_on_c, 0, 82, 59
2, 218608, Note_on_c, 0, 58, 62
2, 218764, Note_on_c, 0, 82, 0
2, 218778, Note_on_c, 0, 58, 0
2, 218846, Note_on_c, 0, 82, 59
2, 218852, Note_on_c, 0, 58, 49
2, 218956, Note_on_c, 0, 82, 0
2, 218976, Note_on_c, 0, 58, 0
2, 219122, Note_on_c, 0, 58, 73
2, 219130, Note_on_c, 0, 84, 81
2, 219136, Note_on_c, 0, 60, 89
2, 219136, Note_on_c, 0, 72, 80
2, 219194, Note_on_c, 0, 58, 0
2, 219200, Note_on_c, 0, 59, 60
2, 219226, Note_on_c, 0, 59, 0
2, 219276, Note_on_c, 0, 84, 0
2, 219298, Note_on_c, 0, 72, 0
2, 219304, Note_on_c, 0, 60, 0
2, 219340, Note_on_c, 0, 60, 72
2, 219348, Note_on_c, 0, 84, 64
2, 219354, Note_on_c, 0, 72, 70
2, 219458, Note_on_c, 0, 84, 0
2, 219498, Note_on_c, 0, 60, 0
2, 219576, Note_on_c, 0, 72, 0
2, 219706, Note_on_c, 0, 78, 67
2, 219714, Note_on_c, 0, 55, 76
2, 219756, Note_on_c, 0, 79, 49
2, 219812, Note_on_c, 0, 78, 0
2, 219904, Note_on_c, 0, 79, 0
2, 219944, Note_on_c, 0, 55, 0
2, 220280, Note_on_c, 0, 72, 58
2, 220288, Note_on_c, 0, 48, 53
2, 220390, Note_on_c, 0, 72, 0
2, 220460, Note_on_c, 0, 72, 46
2, 220572, Note_on_c, 0, 72, 0
2, 220620, Note_on_c, 0, 48, 0
2, 220654, Note_on_c, 0, 51, 39
2, 220680, Note_on_c, 0, 51, 0
2, 220680, Note_on_c, 0, 75, 53
2, 220764, Note_on_c, 0, 75, 0
2, 220864, Note_on_c, 0, 56, 73
2, 220868, Note_on_c, 0, 62, 72
2, 220872, Note_on_c, 0, 77, 70
2, 220872, Note_on_c, 0, 72, 80
2, 220876, Note_on_c, 0, 67, 65
2, 220994, Note_on_c, 0, 77, 0
2, 221070, Note_on_c, 0, 79, 74
2, 221214, Note_on_c, 0, 79, 0
2, 221302, Note_on_c, 0, 77, 57
2, 221310, Note_on_c, 0, 72, 0
2, 221324, Note_on_c, 0, 67, 0
2, 221380, Note_on_c, 0, 62, 0
2, 221458, Note_on_c, 0, 75, 59
2, 221514, Note_on_c, 0, 77, 0
2, 221526, Note_on_c, 0, 56, 0
2, 221560, Note_on_c, 0, 75, 0
2, 221656, Note_on_c, 0, 72, 48
2, 221674, Note_on_c, 0, 62, 44
2, 221676, Note_on_c, 0, 55, 46
2, 221742, Note_on_c, 0, 65, 7
2, 221834, Note_on_c, 0, 65, 0
2, 221868, Note_on_c, 0, 72, 0
2, 221902, Note_on_c, 0, 62, 0
2, 221964, Note_on_c, 0, 55, 0
2, 222014, Note_on_c, 0, 70, 49
2, 222104, Note_on_c, 0, 70, 0
2, 222220, Note_on_c, 0, 70, 62
2, 222220, Note_on_c, 0, 53, 45
2, 222226, Note_on_c, 0, 58, 54
2, 222230, Note_on_c, 0, 65, 58
2, 222320, Note_on_c, 0, 53, 0
2, 222328, Note_on_c, 0, 65, 0
2, 222346, Note_on_c, 0, 58, 0
2, 222386, Note_on_c, 0, 70, 0
2, 222612, Note_on_c, 0, 63, 74
2, 222612, Note_on_c, 0, 48, 65
2, 222616, Note_on_c, 0, 67, 64
2, 222618, Note_on_c, 0, 72, 64
2, 222620, Note_on_c, 0, 55, 68
2, 222680, Note_on_c, 0, 63, 0
2, 222690, Note_on_c, 0, 48, 0
2, 222690, Note_on_c, 0, 67, 0
2, 222724, Note_on_c, 0, 55, 0
2, 222728, Note_on_c, 0, 72, 0
2, 223024, Note_on_c, 0, 91, 72
2, 223030, Note_on_c, 0, 77, 69
2, 223032, Note_on_c, 0, 79, 57
2, 223034, Note_on_c, 0, 55, 82
2, 223038, Note_on_c, 0, 89, 64
2, 223062, Note_on_c, 0, 89, 0
2, 223068, Note_on_c, 0, 77, 0
2, 223072, Note_on_c, 0, 79, 0
2, 223090, Note_on_c, 0, 55, 0
2, 223104, Note_on_c, 0, 91, 0
2, 223398, Note_on_c, 0, 96, 74
2, 223404, Note_on_c, 0, 84, 70
2, 223408, Note_on_c, 0, 60, 84
2, 223416, Note_on_c, 0, 92, 54
2, 223442, Note_on_c, 0, 92, 0
2, 223472, Note_on_c, 0, 84, 0
2, 223504, Note_on_c, 0, 96, 0
2, 223514, Note_on_c, 0, 60, 0
2, 223770, Note_on_c, 0, 62, 84
2, 223788, Note_on_c, 0, 98, 85
2, 223792, Note_on_c, 0, 86, 80
2, 223792, Note_on_c, 0, 91, 71
2, 223798, Note_on_c, 0, 94, 53
2, 223818, Note_on_c, 0, 96, 32
2, 223824, Note_on_c, 0, 94, 0
2, 223846, Note_on_c, 0, 96, 0
2, 223850, Note_on_c, 0, 86, 0
2, 223870, Note_on_c, 0, 98, 0
2, 223882, Note_on_c, 0, 94, 18
2, 223892, Note_on_c, 0, 62, 0
2, 223892, Note_on_c, 0, 91, 0
2, 223912, Note_on_c, 0, 94, 0
2, 223986, Note_on_c, 0, 99, 91
2, 223988, Note_on_c, 0, 87, 87
2, 223988, Note_on_c, 0, 63, 84
2, 223994, Note_on_c, 0, 91, 74
2, 224018, Note_on_c, 0, 94, 25
2, 224022, Note_on_c, 0, 65, 32
2, 224028, Note_on_c, 0, 67, 27
2, 224044, Note_on_c, 0, 94, 0
2, 224048, Note_on_c, 0, 65, 0
2, 224052, Note_on_c, 0, 62, 46
2, 224054, Note_on_c, 0, 67, 0
2, 224100, Note_on_c, 0, 91, 0
2, 224126, Note_on_c, 0, 62, 0
2, 224228, Note_on_c, 0, 87, 0
2, 224230, Note_on_c, 0, 63, 0
2, 224242, Note_on_c, 0, 99, 0
2, 224546, Note_on_c, 0, 66, 79
2, 224548, Note_on_c, 0, 67, 88
2, 224550, Note_on_c, 0, 102, 79
2, 224628, Note_on_c, 0, 103, 88
2, 224630, Note_on_c, 0, 66, 0
2, 224662, Note_on_c, 0, 102, 0
2, 224750, Note_on_c, 0, 67, 0
2, 224766, Note_on_c, 0, 103, 0
2, 224930, Note_on_c, 0, 65, 90
2, 224934, Note_on_c, 0, 101, 94
2, 225070, Note_on_c, 0, 101, 0
2, 225086, Note_on_c, 0, 65, 0
2, 225114, Note_on_c, 0, 63, 53
2, 225136, Note_on_c, 0, 99, 53
2, 225304, Note_on_c, 0, 63, 0
2, 225306, Note_on_c, 0, 96, 49
2, 225308, Note_on_c, 0, 99, 0
2, 225330, Note_on_c, 0, 60, 43
2, 225356, Note_on_c, 0, 96, 0
2, 225444, Note_on_c, 0, 60, 0
2, 225480, Note_on_c, 0, 62, 79
2, 225486, Note_on_c, 0, 98, 81
2, 225488, Note_on_c, 0, 97, 56
2, 225514, Note_on_c, 0, 97, 0
2, 225628, Note_on_c, 0, 62, 0
2, 225668, Note_on_c, 0, 98, 0
2, 225682, Note_on_c, 0, 96, 71
2, 225698, Note_on_c, 0, 98, 16
2, 225700, Note_on_c, 0, 60, 71
2, 225732, Note_on_c, 0, 98, 0
2, 225824, Note_on_c, 0, 60, 0
2, 225832, Note_on_c, 0, 96, 0
2, 225856, Note_on_c, 0, 58, 56
2, 225864, Note_on_c, 0, 94, 55
2, 226164, Note_on_c, 0, 94, 0
2, 226186, Note_on_c, 0, 58, 0
2, 226252, Note_on_c, 0, 91, 39
2, 226254, Note_on_c, 0, 55, 55
2, 226404, Note_on_c, 0, 91, 0
2, 226504, Note_on_c, 0, 55, 0
2, 226988, Note_on_c, 0, 62, 80
2, 226988, Note_on_c, 0, 56, 78
2, 226990, Note_on_c, 0, 77, 84
2, 226990, Note_on_c, 0, 67, 82
2, 226994, Note_on_c, 0, 72, 95
2, 227124, Note_on_c, 0, 77, 0
2, 227188, Note_on_c, 0, 79, 72
2, 227372, Note_on_c, 0, 77, 62
2, 227404, Note_on_c, 0, 67, 0
2, 227410, Note_on_c, 0, 62, 0
2, 227426, Note_on_c, 0, 79, 0
2, 227458, Note_on_c, 0, 72, 0
2, 227478, Note_on_c, 0, 56, 0
2, 227532, Note_on_c, 0, 77, 0
2, 227582, Note_on_c, 0, 75, 71
2, 227622, Note_on_c, 0, 77, 18
2, 227676, Note_on_c, 0, 77, 0
2, 227736, Note_on_c, 0, 75, 0
2, 227774, Note_on_c, 0, 72, 80
2, 227778, Note_on_c, 0, 68, 77
2, 227782, Note_on_c, 0, 63, 77
2, 227786, Note_on_c, 0, 60, 72
2, 227792, Note_on_c, 0, 53, 67
2, 227798, Note_on_c, 0, 56, 50
2, 228040, Note_on_c, 0, 72, 0
2, 228064, Note_on_c, 0, 68, 0
2, 228120, Note_on_c, 0, 60, 0
2, 228148, Note_on_c, 0, 68, 55
2, 228156, Note_on_c, 0, 72, 57
2, 228166, Note_on_c, 0, 63, 0
2, 228168, Note_on_c, 0, 56, 0
2, 228252, Note_on_c, 0, 72, 0
2, 228274, Note_on_c, 0, 68, 0
2, 228286, Note_on_c, 0, 53, 0
2, 228382, Note_on_c, 0, 70, 72
2, 228384, Note_on_c, 0, 58, 62
2, 228386, Note_on_c, 0, 62, 68
2, 228386, Note_on_c, 0, 65, 76
2, 228390, Note_on_c, 0, 55, 55
2, 228576, Note_on_c, 0, 62, 0
2, 228584, Note_on_c, 0, 65, 0
2, 228594, Note_on_c, 0, 70, 0
2, 228622, Note_on_c, 0, 55, 0
2, 228754, Note_on_c, 0, 70, 54
2, 228802, Note_on_c, 0, 58, 0
2, 228900, Note_on_c, 0, 70, 0
2, 228936, Note_on_c, 0, 62, 62
2, 228942, Note_on_c, 0, 51, 51
2, 228944, Note_on_c, 0, 67, 57
2, 228952, Note_on_c, 0, 72, 54
2, 228958, Note_on_c, 0, 57, 56
2, 229012, Note_on_c, 0, 62, 0
2, 229014, Note_on_c, 0, 67, 0
2, 229024, Note_on_c, 0, 72, 0
2, 229040, Note_on_c, 0, 57, 0
2, 229068, Note_on_c, 0, 51, 0
2, 229348, Note_on_c, 0, 79, 96
2, 229486, Note_on_c, 0, 79, 0
2, 229516, Note_on_c, 0, 77, 71
2, 229530, Note_on_c, 0, 79, 32
2, 229558, Note_on_c, 0, 79, 0
2, 229636, Note_on_c, 0, 77, 0
2, 229712, Note_on_c, 0, 75, 29
2, 229840, Note_on_c, 0, 75, 0
2, 229926, Note_on_c, 0, 72, 45
2, 229960, Note_on_c, 0, 72, 0
2, 230080, Note_on_c, 0, 77, 72
2, 230452, Note_on_c, 0, 63, 63
2, 230458, Note_on_c, 0, 67, 71
2, 230462, Note_on_c, 0, 56, 54
2, 230464, Note_on_c, 0, 60, 64
2, 230510, Note_on_c, 0, 67, 0
2, 230534, Note_on_c, 0, 60, 0
2, 230534, Note_on_c, 0, 63, 0
2, 230570, Note_on_c, 0, 56, 0
2, 230832, Note_on_c, 0, 55, 90
2, 230838, Note_on_c, 0, 65, 91
2, 230842, Note_on_c, 0, 61, 74
2, 231014, Note_on_c, 0, 65, 0
2, 231032, Note_on_c, 0, 55, 0
2, 231052, Note_on_c, 0, 61, 0
2, 231084, Note_on_c, 0, 65, 70
2, 231086, Note_on_c, 0, 55, 76
2, 231148, Note_on_c, 0, 65, 0
2, 231148, Note_on_c, 0, 61, 56
2, 231188, Note_on_c, 0, 55, 0
2, 231200, Note_on_c, 0, 61, 0
2, 231428, Note_on_c, 0, 77, 0
2, 231430, Note_on_c, 0, 60, 68
2, 231436, Note_on_c, 0, 64, 67
2, 231816, Note_on_c, 0, 77, 87
2, 231966, Note_on_c, 0, 77, 0
2, 231986, Note_on_c, 0, 75, 59
2, 232112, Note_on_c, 0, 75, 0
2, 232200, Note_on_c, 0, 64, 0
2, 232208, Note_on_c, 0, 60, 0
2, 232370, Note_on_c, 0, 63, 78
2, 232370, Note_on_c, 0, 53, 78
2, 232370, Note_on_c, 0, 82, 88
2, 232372, Note_on_c, 0, 70, 94
2, 232380, Note_on_c, 0, 59, 70
2, 232380, Note_on_c, 0, 75, 75
2, 232406, Note_on_c, 0, 75, 0
2, 232438, Note_on_c, 0, 75, 23
2, 232622, Note_on_c, 0, 75, 0
2, 232626, Note_on_c, 0, 82, 0
2, 232642, Note_on_c, 0, 70, 0
2, 232654, Note_on_c, 0, 53, 0
2, 232664, Note_on_c, 0, 63, 0
2, 232686, Note_on_c, 0, 59, 0
2, 232754, Note_on_c, 0, 63, 53
2, 232756, Note_on_c, 0, 53, 55
2, 232772, Note_on_c, 0, 59, 59
2, 232782, Note_on_c, 0, 68, 34
2, 232944, Note_on_c, 0, 59, 0
2, 232950, Note_on_c, 0, 63, 0
2, 232984, Note_on_c, 0, 53, 0
2, 232984, Note_on_c, 0, 68, 0
2, 233136, Note_on_c, 0, 48, 81
2, 233262, Note_on_c, 0, 70, 25
2, 233296, Note_on_c, 0, 70, 0
2, 233364, Note_on_c, 0, 72, 58
2, 233370, Note_on_c, 0, 65, 72
2, 233372, Note_on_c, 0, 69, 61
2, 233374, Note_on_c, 0, 60, 67
2, 233376, Note_on_c, 0, 57, 60
2, 233670, Note_on_c, 0, 60, 0
2, 233680, Note_on_c, 0, 65, 0
2, 233682, Note_on_c, 0, 69, 0
2, 233700, Note_on_c, 0, 57, 0
2, 233714, Note_on_c, 0, 72, 0
2, 233726, Note_on_c, 0, 55, 51
2, 233744, Note_on_c, 0, 69, 53
2, 233754, Note_on_c, 0, 60, 67
2, 233754, Note_on_c, 0, 65, 69
2, 233756, Note_on_c, 0, 55, 0
2, 233772, Note_on_c, 0, 57, 51
2, 233980, Note_on_c, 0, 65, 0
2, 234058, Note_on_c, 0, 60, 0
2, 234124, Note_on_c, 0, 65, 74
2, 234178, Note_on_c, 0, 69, 0
2, 234224, Note_on_c, 0, 48, 0
2, 234292, Note_on_c, 0, 65, 0
2, 234304, Note_on_c, 0, 60, 37
2, 234368, Note_on_c, 0, 60, 0
2, 234476, Note_on_c, 0, 57, 0
2, 234488, Note_on_c, 0, 67, 72
2, 234488, Note_on_c, 0, 48, 69
2, 234490, Note_on_c, 0, 55, 76
2, 234492, Note_on_c, 0, 58, 82
2, 234494, Note_on_c, 0, 63, 76
2, 234558, Note_on_c, 0, 58, 0
2, 234584, Note_on_c, 0, 48, 0
2, 234590, Note_on_c, 0, 63, 0
2, 234594, Note_on_c, 0, 55, 0
2, 234602, Note_on_c, 0, 67, 0
2, 234872, Note_on_c, 0, 55, 71
2, 234878, Note_on_c, 0, 67, 51
2, 235128, Note_on_c, 0, 67, 0
2, 235224, Note_on_c, 0, 55, 0
2, 235236, Note_on_c, 0, 60, 88
2, 235244, Note_on_c, 0, 72, 91
2, 235316, Note_on_c, 0, 60, 0
2, 235326, Note_on_c, 0, 72, 0
2, 235510, Note_on_c, 0, 67, 34
2, 235610, Note_on_c, 0, 66, 52
2, 235642, Note_on_c, 0, 67, 0
2, 235680, Note_on_c, 0, 66, 0
2, 235706, Note_on_c, 0, 63, 37
2, 235780, Note_on_c, 0, 60, 65
2, 235932, Note_on_c, 0, 63, 0
2, 235982, Note_on_c, 0, 60, 0
2, 236030, Note_on_c, 0, 63, 65
2, 236140, Note_on_c, 0, 63, 0
2, 236244, Note_on_c, 0, 66, 56
2, 236300, Note_on_c, 0, 67, 71
2, 236354, Note_on_c, 0, 66, 0
2, 236450, Note_on_c, 0, 62, 60
2, 236476, Note_on_c, 0, 62, 0
2, 236490, Note_on_c, 0, 67, 0
2, 236580, Note_on_c, 0, 63, 44
2, 236782, Note_on_c, 0, 63, 0
2, 236814, Note_on_c, 0, 51, 67
2, 236816, Note_on_c, 0, 41, 62
2, 236820, Note_on_c, 0, 65, 76
2, 236932, Note_on_c, 0, 41, 0
2, 236964, Note_on_c, 0, 51, 0
2, 237178, Note_on_c, 0, 46, 54
2, 237246, Note_on_c, 0, 46, 0
2, 237334, Note_on_c, 0, 65, 0
2, 237356, Note_on_c, 0, 39, 73
2, 237364, Note_on_c, 0, 51, 71
2, 237364, Note_on_c, 0, 61, 74
2, 237368, Note_on_c, 0, 55, 72
2, 237554, Note_on_c, 0, 55, 0
2, 237612, Note_on_c, 0, 61, 0
2, 237612, Note_on_c, 0, 51, 0
2, 237634, Note_on_c, 0, 39, 0
2, 237734, Note_on_c, 0, 38, 74
2, 237742, Note_on_c, 0, 50, 78
2, 237744, Note_on_c, 0, 60, 68
2, 237864, Note_on_c, 0, 60, 0
2, 237930, Note_on_c, 0, 38, 0
2, 237990, Note_on_c, 0, 50, 0
2, 238118, Note_on_c, 0, 62, 79
2, 238220, Note_on_c, 0, 62, 0
2, 238306, Note_on_c, 0, 62, 50
2, 238368, Note_on_c, 0, 62, 0
2, 238502, Note_on_c, 0, 65, 94
2, 238504, Note_on_c, 0, 60, 50
2, 238602, Note_on_c, 0, 60, 0
2, 238622, Note_on_c, 0, 65, 0
2, 238642, Note_on_c, 0, 67, 45
2, 238702, Note_on_c, 0, 65, 55
2, 238738, Note_on_c, 0, 67, 0
2, 238792, Note_on_c, 0, 65, 0
2, 238802, Note_on_c, 0, 60, 34
2, 238804, Note_on_c, 0, 62, 34
2, 238832, Note_on_c, 0, 60, 0
2, 238834, Note_on_c, 0, 62, 0
2, 238864, Note_on_c, 0, 66, 85
2, 239064, Note_on_c, 0, 66, 0
2, 239116, Note_on_c, 0, 67, 99
2, 239120, Note_on_c, 0, 53, 76
2, 239132, Note_on_c, 0, 62, 73
2, 239140, Note_on_c, 0, 59, 61
2, 239388, Note_on_c, 0, 62, 0
2, 239470, Note_on_c, 0, 62, 66
2, 239628, Note_on_c, 0, 59, 0
2, 239668, Note_on_c, 0, 53, 0
2, 239746, Note_on_c, 0, 62, 0
2, 239826, Note_on_c, 0, 67, 0
2, 239868, Note_on_c, 0, 66, 81
2, 239868, Note_on_c, 0, 62, 81
2, 239894, Note_on_c, 0, 60, 57
2, 239920, Note_on_c, 0, 60, 0
2, 240120, Note_on_c, 0, 62, 0
2, 240234, Note_on_c, 0, 69, 83
2, 240248, Note_on_c, 0, 61, 69
2, 240292, Note_on_c, 0, 66, 0
2, 240354, Note_on_c, 0, 69, 0
2, 240436, Note_on_c, 0, 66, 53
2, 240470, Note_on_c, 0, 61, 0
2, 240554, Note_on_c, 0, 66, 0
2, 240626, Note_on_c, 0, 67, 67
2, 240626, Note_on_c, 0, 62, 77
2, 240632, Note_on_c, 0, 55, 83
2, 240678, Note_on_c, 0, 62, 0
2, 240684, Note_on_c, 0, 55, 0
2, 240718, Note_on_c, 0, 67, 0
2, 240844, Control_c, 0, 64, 127
2, 240984, Note_on_c, 0, 55, 79
2, 240996, Control_c, 0, 64, 0
2, 240996, Note_on_c, 0, 65, 88
2, 241000, Note_on_c, 0, 86, 81
2, 241000, Note_on_c, 0, 91, 83
2, 241004, Note_on_c, 0, 61, 60
2, 241004, Note_on_c, 0, 79, 71
2, 241020, Note_on_c, 0, 81, 53
2, 241026, Note_on_c, 0, 89, 42
2, 241046, Note_on_c, 0, 81, 0
2, 241078, Note_on_c, 0, 79, 0
2, 241086, Note_on_c, 0, 65, 0
2, 241096, Note_on_c, 0, 91, 0
2, 241096, Note_on_c, 0, 55, 0
2, 241114, Note_on_c, 0, 89, 0
2, 241116, Note_on_c, 0, 86, 0
2, 241144, Note_on_c, 0, 61, 0
2, 241184, Note_on_c, 0, 90, 68
2, 241186, Note_on_c, 0, 64, 75
2, 241188, Note_on_c, 0, 78, 69
2, 241188, Note_on_c, 0, 85, 75
2, 241188, Note_on_c, 0, 60, 77
2, 241238, Control_c, 0, 64, 127
2, 241296, Note_on_c, 0, 85, 0
2, 241298, Note_on_c, 0, 64, 0
2, 241310, Note_on_c, 0, 60, 0
2, 241312, Note_on_c, 0, 78, 0
2, 241312, Note_on_c, 0, 90, 0
2, 241346, Control_c, 0, 64, 0
2, 241390, Note_on_c, 0, 85, 75
2, 241400, Note_on_c, 0, 64, 78
2, 241400, Note_on_c, 0, 53, 76
2, 241402, Note_on_c, 0, 59, 72
2, 241406, Note_on_c, 0, 89, 76
2, 241414, Note_on_c, 0, 77, 49
2, 241428, Note_on_c, 0, 79, 34
2, 241454, Note_on_c, 0, 64, 0
2, 241456, Note_on_c, 0, 79, 0
2, 241464, Note_on_c, 0, 77, 0
2, 241468, Note_on_c, 0, 89, 0
2, 241472, Note_on_c, 0, 85, 0
2, 241508, Note_on_c, 0, 59, 0
2, 241512, Note_on_c, 0, 53, 0
2, 241764, Note_on_c, 0, 63, 85
2, 241772, Note_on_c, 0, 53, 71
2, 241774, Note_on_c, 0, 59, 74
2, 241782, Note_on_c, 0, 56, 67
2, 242102, Note_on_c, 0, 59, 0
2, 242174, Note_on_c, 0, 53, 0
2, 242302, Note_on_c, 0, 63, 0
2, 242318, Note_on_c, 0, 56, 0
2, 242364, Note_on_c, 0, 62, 58
2, 242390, Note_on_c, 0, 62, 0
2, 242394, Note_on_c, 0, 55, 28
2, 242422, Note_on_c, 0, 55, 0
2, 242566, Note_on_c, 0, 84, 66
2, 242572, Note_on_c, 0, 72, 55
2, 242618, Note_on_c, 0, 72, 0
2, 242626, Note_on_c, 0, 84, 0
2, 242744, Note_on_c, 0, 84, 53
2, 242756, Note_on_c, 0, 72, 29
2, 242784, Note_on_c, 0, 72, 0
2, 242790, Note_on_c, 0, 84, 0
2, 242930, Note_on_c, 0, 84, 68
2, 243006, Note_on_c, 0, 84, 0
2, 243112, Note_on_c, 0, 82, 60
2, 243122, Note_on_c, 0, 58, 55
2, 243260, Note_on_c, 0, 58, 0
2, 243306, Note_on_c, 0, 82, 0
2, 243494, Note_on_c, 0, 82, 64
2, 243612, Note_on_c, 0, 82, 0
2, 243612, Note_on_c, 0, 58, 49
2, 243692, Note_on_c, 0, 58, 0
2, 243720, Note_on_c, 0, 84, 75
2, 243726, Note_on_c, 0, 60, 74
2, 243772, Note_on_c, 0, 60, 0
2, 243798, Note_on_c, 0, 84, 0
2, 244076, Note_on_c, 0, 78, 63
2, 244082, Note_on_c, 0, 55, 79
2, 244084, Note_on_c, 0, 79, 73
2, 244134, Note_on_c, 0, 78, 0
2, 244652, Note_on_c, 0, 55, 0
2, 244670, Note_on_c, 0, 72, 53
2, 244674, Note_on_c, 0, 79, 0
2, 244684, Note_on_c, 0, 48, 51
2, 244772, Note_on_c, 0, 72, 0
2, 244828, Note_on_c, 0, 48, 0
2, 245028, Note_on_c, 0, 51, 60
2, 245040, Note_on_c, 0, 75, 64
2, 245088, Note_on_c, 0, 51, 0
2, 245128, Note_on_c, 0, 75, 0
2, 245414, Note_on_c, 0, 62, 69
2, 245418, Note_on_c, 0, 77, 88
2, 245420, Note_on_c, 0, 56, 71
2, 245420, Note_on_c, 0, 67, 74
2, 245624, Note_on_c, 0, 79, 62
2, 245644, Note_on_c, 0, 77, 0
2, 245744, Note_on_c, 0, 67, 0
2, 245762, Note_on_c, 0, 62, 0
2, 245790, Note_on_c, 0, 77, 40
2, 245826, Note_on_c, 0, 56, 0
2, 245870, Note_on_c, 0, 79, 0
2, 245922, Note_on_c, 0, 77, 0
2, 245976, Note_on_c, 0, 75, 71
2, 246116, Note_on_c, 0, 75, 0
2, 246166, Note_on_c, 0, 62, 69
2, 246168, Note_on_c, 0, 72, 69
2, 246168, Note_on_c, 0, 51, 61
2, 246170, Note_on_c, 0, 57, 67
2, 246434, Note_on_c, 0, 72, 0
2, 246516, Note_on_c, 0, 57, 0
2, 246526, Note_on_c, 0, 51, 0
2, 246540, Note_on_c, 0, 62, 0
2, 246552, Note_on_c, 0, 72, 63
2, 246634, Note_on_c, 0, 72, 0
2, 246768, Note_on_c, 0, 53, 66
2, 246770, Note_on_c, 0, 63, 70
2, 246772, Note_on_c, 0, 70, 74
2, 246788, Note_on_c, 0, 58, 49
2, 246838, Note_on_c, 0, 63, 0
2, 246856, Note_on_c, 0, 53, 0
2, 246880, Note_on_c, 0, 70, 0
2, 246888, Note_on_c, 0, 58, 0
2, 247136, Note_on_c, 0, 70, 53
2, 247234, Note_on_c, 0, 70, 0
2, 247320, Note_on_c, 0, 51, 57
2, 247320, Note_on_c, 0, 72, 47
2, 247322, Note_on_c, 0, 62, 60
2, 247324, Note_on_c, 0, 57, 57
2, 247408, Note_on_c, 0, 57, 0
2, 247418, Note_on_c, 0, 72, 0
2, 247428, Note_on_c, 0, 51, 0
2, 247500, Note_on_c, 0, 62, 0
2, 247900, Note_on_c, 0, 79, 45
2, 247914, Note_on_c, 0, 55, 44
2, 247994, Note_on_c, 0, 79, 0
2, 248026, Note_on_c, 0, 55, 0
2, 248078, Note_on_c, 0, 60, 45
2, 248088, Note_on_c, 0, 84, 44
2, 248166, Note_on_c, 0, 84, 0
2, 248234, Note_on_c, 0, 60, 0
2, 248286, Note_on_c, 0, 62, 68
2, 248286, Note_on_c, 0, 86, 75
2, 248398, Note_on_c, 0, 86, 0
2, 248420, Note_on_c, 0, 62, 0
2, 248472, Note_on_c, 0, 63, 84
2, 248474, Note_on_c, 0, 87, 84
2, 248776, Note_on_c, 0, 63, 0
2, 248794, Note_on_c, 0, 87, 0
2, 249062, Note_on_c, 0, 66, 72
2, 249068, Note_on_c, 0, 91, 85
2, 249068, Note_on_c, 0, 90, 67
2, 249116, Note_on_c, 0, 90, 0
2, 249116, Note_on_c, 0, 67, 81
2, 249140, Note_on_c, 0, 66, 0
2, 249382, Note_on_c, 0, 67, 0
2, 249406, Note_on_c, 0, 91, 0
2, 249446, Note_on_c, 0, 89, 80
2, 249458, Note_on_c, 0, 65, 65
2, 249584, Note_on_c, 0, 89, 0
2, 249586, Note_on_c, 0, 65, 0
2, 249600, Note_on_c, 0, 63, 47
2, 249640, Note_on_c, 0, 87, 50
2, 249758, Note_on_c, 0, 63, 0
2, 249794, Note_on_c, 0, 87, 0
2, 249820, Note_on_c, 0, 84, 53
2, 249828, Note_on_c, 0, 60, 45
2, 249900, Note_on_c, 0, 84, 0
2, 249948, Note_on_c, 0, 60, 0
2, 250000, Note_on_c, 0, 86, 78
2, 250004, Note_on_c, 0, 62, 66
2, 250172, Note_on_c, 0, 86, 0
2, 250200, Note_on_c, 0, 62, 0
2, 250204, Note_on_c, 0, 82, 52
2, 250210, Note_on_c, 0, 58, 43
2, 250354, Note_on_c, 0, 82, 0
2, 250370, Note_on_c, 0, 58, 0
2, 250384, Note_on_c, 0, 79, 40
2, 250408, Note_on_c, 0, 55, 45
2, 250730, Note_on_c, 0, 79, 0
2, 250750, Note_on_c, 0, 55, 0
2, 250766, Note_on_c, 0, 84, 71
2, 250776, Note_on_c, 0, 60, 70
2, 251162, Note_on_c, 0, 84, 0
2, 251192, Control_c, 0, 64, 127
2, 251206, Note_on_c, 0, 60, 0
2, 251508, Control_c, 0, 64, 0
2, 251548, Note_on_c, 0, 77, 115
2, 251548, Note_on_c, 0, 62, 84
2, 251552, Note_on_c, 0, 56, 81
2, 251554, Note_on_c, 0, 67, 89
2, 251728, Note_on_c, 0, 79, 69
2, 251776, Note_on_c, 0, 77, 0
2, 251908, Note_on_c, 0, 77, 50
2, 251926, Note_on_c, 0, 67, 0
2, 251940, Note_on_c, 0, 62, 0
2, 251994, Control_c, 0, 64, 127
2, 251998, Note_on_c, 0, 56, 0
2, 252000, Note_on_c, 0, 79, 0
2, 252048, Note_on_c, 0, 77, 0
2, 252106, Note_on_c, 0, 75, 64
2, 252232, Control_c, 0, 64, 0
2, 252266, Note_on_c, 0, 75, 0
2, 252312, Note_on_c, 0, 60, 66
2, 252312, Note_on_c, 0, 72, 74
2, 252318, Note_on_c, 0, 63, 63
2, 252318, Note_on_c, 0, 53, 60
2, 252326, Note_on_c, 0, 56, 45
2, 252570, Note_on_c, 0, 72, 0
2, 252696, Note_on_c, 0, 72, 58
2, 252720, Note_on_c, 0, 60, 0
2, 252724, Note_on_c, 0, 63, 0
2, 252788, Note_on_c, 0, 56, 0
2, 252798, Note_on_c, 0, 72, 0
2, 252814, Note_on_c, 0, 53, 0
2, 252900, Note_on_c, 0, 70, 70
2, 252904, Note_on_c, 0, 53, 40
2, 252908, Note_on_c, 0, 58, 55
2, 252914, Note_on_c, 0, 62, 57
2, 252916, Note_on_c, 0, 55, 50
2, 253008, Note_on_c, 0, 62, 0
2, 253024, Note_on_c, 0, 70, 0
2, 253034, Note_on_c, 0, 53, 0
2, 253060, Note_on_c, 0, 58, 0
2, 253060, Note_on_c, 0, 55, 0
2, 253280, Note_on_c, 0, 70, 43
2, 253364, Note_on_c, 0, 70, 0
2, 253460, Note_on_c, 0, 62, 56
2, 253466, Note_on_c, 0, 51, 49
2, 253466, Note_on_c, 0, 72, 49
2, 253468, Note_on_c, 0, 57, 54
2, 254196, Note_on_c, 0, 57, 0
2, 254206, Note_on_c, 0, 51, 0
2, 254230, Note_on_c, 0, 72, 0
2, 254264, Note_on_c, 0, 62, 0
2, 254618, Note_on_c, 0, 77, 91
2, 254620, Note_on_c, 0, 72, 99
2, 254622, Note_on_c, 0, 67, 99
2, 254630, Note_on_c, 0, 62, 84
2, 254754, Note_on_c, 0, 77, 0
2, 254796, Note_on_c, 0, 67, 0
2, 254816, Note_on_c, 0, 63, 72
2, 254820, Note_on_c, 0, 79, 78
2, 254838, Note_on_c, 0, 67, 17
2, 254848, Note_on_c, 0, 62, 0
2, 254946, Note_on_c, 0, 67, 0
2, 254952, Note_on_c, 0, 79, 0
2, 254982, Note_on_c, 0, 63, 0
2, 254988, Note_on_c, 0, 77, 58
2, 254998, Note_on_c, 0, 62, 68
2, 255012, Note_on_c, 0, 67, 31
2, 255078, Note_on_c, 0, 72, 0
2, 255104, Note_on_c, 0, 67, 0
2, 255144, Note_on_c, 0, 77, 0
2, 255166, Note_on_c, 0, 62, 0
2, 255180, Note_on_c, 0, 67, 47
2, 255190, Note_on_c, 0, 75, 65
2, 255204, Note_on_c, 0, 60, 60
2, 255204, Note_on_c, 0, 72, 39
2, 255220, Control_c, 0, 64, 127
2, 255238, Note_on_c, 0, 67, 0
2, 255242, Note_on_c, 0, 72, 0
2, 255282, Control_c, 0, 64, 0
2, 255328, Note_on_c, 0, 60, 0
2, 255338, Note_on_c, 0, 75, 0
2, 255394, Note_on_c, 0, 68, 51
2, 255396, Note_on_c, 0, 72, 66
2, 255544, Note_on_c, 0, 72, 0
2, 255574, Control_c, 0, 64, 127
2, 255582, Note_on_c, 0, 68, 0
2, 255628, Control_c, 0, 64, 0
2, 255742, Note_on_c, 0, 68, 56
2, 255746, Note_on_c, 0, 72, 58
2, 255750, Note_on_c, 0, 58, 46
2, 255758, Control_c, 0, 64, 127
2, 255794, Note_on_c, 0, 72, 0
2, 255830, Note_on_c, 0, 68, 0
2, 255860, Note_on_c, 0, 58, 0
2, 255906, Control_c, 0, 64, 0
2, 255978, Note_on_c, 0, 55, 53
2, 255986, Note_on_c, 0, 70, 74
2, 255998, Note_on_c, 0, 65, 71
2, 256070, Note_on_c, 0, 65, 0
2, 256080, Note_on_c, 0, 55, 0
2, 256098, Note_on_c, 0, 70, 0
2, 256282, Control_c, 0, 64, 127
2, 256330, Note_on_c, 0, 70, 50
2, 256344, Note_on_c, 0, 55, 33
2, 256466, Control_c, 0, 64, 0
2, 256474, Note_on_c, 0, 55, 0
2, 256480, Note_on_c, 0, 70, 0
2, 256532, Note_on_c, 0, 48, 62
2, 256538, Note_on_c, 0, 58, 51
2, 256542, Note_on_c, 0, 72, 58
2, 256716, Note_on_c, 0, 72, 0
2, 257118, Note_on_c, 0, 79, 95
2, 257144, Note_on_c, 0, 48, 0
2, 257218, Note_on_c, 0, 58, 0
2, 257264, Note_on_c, 0, 79, 0
2, 257288, Note_on_c, 0, 77, 60
2, 257446, Note_on_c, 0, 77, 0
2, 257484, Note_on_c, 0, 75, 61
2, 257560, Note_on_c, 0, 75, 0
2, 257698, Note_on_c, 0, 56, 77
2, 257698, Note_on_c, 0, 77, 94
2, 257700, Note_on_c, 0, 62, 73
2, 257702, Note_on_c, 0, 67, 81
2, 257868, Note_on_c, 0, 77, 0
2, 257892, Note_on_c, 0, 79, 72
2, 258056, Note_on_c, 0, 77, 49
2, 258098, Note_on_c, 0, 79, 0
2, 258204, Note_on_c, 0, 77, 0
2, 258228, Note_on_c, 0, 62, 0
2, 258254, Note_on_c, 0, 67, 0
2, 258270, Note_on_c, 0, 75, 69
2, 258402, Note_on_c, 0, 56, 0
2, 258422, Note_on_c, 0, 75, 0
2, 258462, Note_on_c, 0, 72, 80
2, 258464, Note_on_c, 0, 55, 74
2, 258468, Note_on_c, 0, 61, 68
2, 258470, Note_on_c, 0, 65, 74
2, 258714, Note_on_c, 0, 72, 0
2, 258826, Note_on_c, 0, 72, 74
2, 258918, Note_on_c, 0, 65, 0
2, 258928, Note_on_c, 0, 72, 0
2, 258932, Note_on_c, 0, 55, 0
2, 258992, Note_on_c, 0, 61, 0
2, 259046, Note_on_c, 0, 70, 83
2, 259052, Note_on_c, 0, 65, 73
2, 259056, Note_on_c, 0, 60, 72
2, 259304, Note_on_c, 0, 70, 0
2, 259332, Note_on_c, 0, 65, 0
2, 259428, Note_on_c, 0, 70, 56
2, 259508, Note_on_c, 0, 60, 0
2, 259514, Note_on_c, 0, 70, 0
2, 259612, Note_on_c, 0, 53, 72
2, 259614, Note_on_c, 0, 63, 82
2, 259614, Note_on_c, 0, 60, 74
2, 259622, Note_on_c, 0, 72, 99
2, 259626, Note_on_c, 0, 56, 62
2, 260072, Control_c, 0, 64, 127
2, 260342, Note_on_c, 0, 72, 0
2, 260460, Note_on_c, 0, 53, 0
2, 260492, Note_on_c, 0, 60, 0
2, 260494, Note_on_c, 0, 56, 0
2, 260518, Note_on_c, 0, 63, 0
2, 260572, Note_on_c, 0, 72, 77
2, 260572, Note_on_c, 0, 56, 39
2, 260594, Note_on_c, 0, 53, 36
2, 260666, Note_on_c, 0, 72, 0
2, 260696, Control_c, 0, 64, 0
2, 260702, Note_on_c, 0, 53, 0
2, 260740, Note_on_c, 0, 56, 0
2, 260754, Note_on_c, 0, 72, 79
2, 260756, Note_on_c, 0, 75, 80
2, 260756, Note_on_c, 0, 60, 89
2, 260760, Note_on_c, 0, 67, 80
2, 260852, Note_on_c, 0, 72, 0
2, 260878, Note_on_c, 0, 75, 0
2, 260878, Note_on_c, 0, 67, 0
2, 260892, Note_on_c, 0, 60, 0
2, 261138, Note_on_c, 0, 67, 60
2, 261140, Note_on_c, 0, 72, 58
2, 261142, Note_on_c, 0, 63, 54
2, 261150, Note_on_c, 0, 57, 53
2, 261216, Note_on_c, 0, 72, 0
2, 261228, Note_on_c, 0, 67, 0
2, 261248, Note_on_c, 0, 57, 0
2, 261262, Note_on_c, 0, 63, 0
2, 261516, Note_on_c, 0, 70, 60
2, 261526, Note_on_c, 0, 63, 44
2, 261534, Note_on_c, 0, 60, 50
2, 261548, Note_on_c, 0, 66, 36
2, 261636, Note_on_c, 0, 66, 0
2, 261640, Note_on_c, 0, 60, 0
2, 261660, Note_on_c, 0, 63, 0
2, 261696, Note_on_c, 0, 70, 0
2, 261874, Note_on_c, 0, 43, 48
2, 261878, Note_on_c, 0, 53, 36
2, 261880, Note_on_c, 0, 63, 52
2, 261882, Note_on_c, 0, 71, 48
2, 261898, Note_on_c, 0, 59, 28
2, 261908, Note_on_c, 0, 53, 0
2, 261942, Note_on_c, 0, 43, 0
2, 261942, Note_on_c, 0, 63, 0
2, 261944, Note_on_c, 0, 59, 0
2, 261956, Note_on_c, 0, 71, 0
2, 262136, Note_on_c, 0, 48, 47
2, 262142, Note_on_c, 0, 72, 54
2, 262142, Note_on_c, 0, 60, 58
2, 262144, Note_on_c, 0, 36, 58
2, 262176, Note_on_c, 0, 67, 29
2, 262182, Note_on_c, 0, 60, 0
2, 262200, Note_on_c, 0, 67, 0
2, 262214, Note_on_c, 0, 72, 0
2, 262242, Note_on_c, 0, 36, 0
2, 262298, Note_on_c, 0, 48, 0
2, 263634, Note_on_c, 0, 72, 57
2, 263668, Note_on_c, 0, 72, 0
2, 263824, Note_on_c, 0, 57, 76
2, 263828, Note_on_c, 0, 75, 90
2, 263834, Note_on_c, 0, 63, 62
2, 263838, Note_on_c, 0, 67, 55
2, 263916, Note_on_c, 0, 67, 0
2, 263930, Note_on_c, 0, 75, 0
2, 263978, Note_on_c, 0, 63, 0
2, 263998, Note_on_c, 0, 57, 0
2, 264042, Note_on_c, 0, 75, 52
2, 264172, Note_on_c, 0, 75, 0
2, 264220, Note_on_c, 0, 63, 47
2, 264220, Note_on_c, 0, 72, 61
2, 264222, Note_on_c, 0, 55, 49
2, 264228, Note_on_c, 0, 60, 49
2, 264340, Note_on_c, 0, 72, 0
2, 264344, Note_on_c, 0, 55, 0
2, 264358, Note_on_c, 0, 60, 0
2, 264406, Note_on_c, 0, 63, 0
2, 264602, Note_on_c, 0, 70, 57
2, 264608, Note_on_c, 0, 60, 55
2, 264620, Note_on_c, 0, 62, 45
2, 264656, Note_on_c, 0, 62, 0
2, 264706, Note_on_c, 0, 60, 0
2, 264756, Note_on_c, 0, 70, 0
2, 264956, Note_on_c, 0, 63, 38
2, 264970, Note_on_c, 0, 53, 45
2, 264978, Note_on_c, 0, 71, 36
2, 265074, Note_on_c, 0, 53, 0
2, 265110, Note_on_c, 0, 63, 0
2, 265168, Note_on_c, 0, 71, 0
2, 265198, Note_on_c, 0, 72, 55
2, 265202, Note_on_c, 0, 62, 54
2, 265232, Note_on_c, 0, 72, 0
2, 265242, Note_on_c, 0, 57, 31
2, 265268, Note_on_c, 0, 62, 0
2, 265274, Note_on_c, 0, 57, 0
2, 265970, Note_on_c, 0, 79, 110
2, 266172, Control_c, 0, 64, 127
2, 266278, Note_on_c, 0, 79, 0
2, 266354, Note_on_c, 0, 77, 90
2, 266410, Control_c, 0, 64, 0
2, 266496, Control_c, 0, 64, 127
2, 266676, Note_on_c, 0, 77, 0
2, 266724, Note_on_c, 0, 75, 76
2, 266812, Note_on_c, 0, 75, 0
2, 266880, Control_c, 0, 64, 0
2, 266900, Note_on_c, 0, 56, 82
2, 266902, Note_on_c, 0, 62, 85
2, 266906, Note_on_c, 0, 67, 91
2, 266906, Note_on_c, 0, 77, 103
2, 267058, Control_c, 0, 64, 127
2, 267064, Note_on_c, 0, 77, 0
2, 267096, Note_on_c, 0, 79, 79
2, 267232, Note_on_c, 0, 79, 0
2, 267280, Note_on_c, 0, 77, 63
2, 267400, Note_on_c, 0, 56, 0
2, 267402, Note_on_c, 0, 77, 0
2, 267482, Note_on_c, 0, 56, 59
2, 267482, Note_on_c, 0, 75, 78
2, 267550, Note_on_c, 0, 67, 0
2, 267564, Note_on_c, 0, 62, 0
2, 267618, Note_on_c, 0, 56, 0
2, 267628, Note_on_c, 0, 75, 0
2, 267666, Control_c, 0, 64, 0
2, 267666, Note_on_c, 0, 72, 91
2, 267670, Note_on_c, 0, 55, 91
2, 267672, Note_on_c, 0, 61, 85
2, 267674, Note_on_c, 0, 65, 96
2, 267812, Control_c, 0, 64, 127
2, 267958, Note_on_c, 0, 72, 0
2, 267970, Note_on_c, 0, 65, 0
2, 267990, Note_on_c, 0, 55, 0
2, 268016, Note_on_c, 0, 55, 24
2, 268038, Note_on_c, 0, 65, 75
2, 268044, Note_on_c, 0, 72, 79
2, 268112, Note_on_c, 0, 65, 0
2, 268128, Note_on_c, 0, 55, 0
2, 268130, Note_on_c, 0, 72, 0
2, 268188, Note_on_c, 0, 61, 0
2, 268246, Note_on_c, 0, 70, 94
2, 268252, Note_on_c, 0, 60, 89
2, 268254, Note_on_c, 0, 65, 94
2, 268274, Control_c, 0, 64, 0
2, 268388, Note_on_c, 0, 65, 0
2, 268394, Note_on_c, 0, 70, 0
2, 268414, Note_on_c, 0, 60, 0
2, 268558, Control_c, 0, 64, 127
2, 268616, Note_on_c, 0, 70, 67
2, 268672, Note_on_c, 0, 60, 20
2, 268686, Note_on_c, 0, 70, 0
2, 268722, Note_on_c, 0, 60, 0
2, 268806, Note_on_c, 0, 53, 81
2, 268808, Note_on_c, 0, 60, 80
2, 268808, Note_on_c, 0, 68, 83
2, 268810, Note_on_c, 0, 72, 83
2, 268810, Note_on_c, 0, 65, 91
2, 268812, Note_on_c, 0, 63, 87
2, 268816, Note_on_c, 0, 56, 71
2, 268844, Control_c, 0, 64, 0
2, 269174, Control_c, 0, 64, 127
2, 269400, Note_on_c, 0, 68, 0
2, 269412, Note_on_c, 0, 65, 0
2, 269474, Note_on_c, 0, 72, 0
2, 269566, Note_on_c, 0, 63, 0
2, 269578, Note_on_c, 0, 53, 0
2, 269578, Note_on_c, 0, 60, 0
2, 269624, Note_on_c, 0, 56, 0
2, 269782, Note_on_c, 0, 72, 62
2, 269896, Note_on_c, 0, 72, 0
2, 269936, Control_c, 0, 64, 0
2, 269950, Note_on_c, 0, 75, 71
2, 269952, Note_on_c, 0, 51, 50
2, 269956, Note_on_c, 0, 62, 40
2, 269958, Note_on_c, 0, 67, 62
2, 269966, Note_on_c, 0, 57, 47
2, 269988, Note_on_c, 0, 62, 0
2, 270000, Note_on_c, 0, 57, 0
2, 270020, Note_on_c, 0, 67, 0
2, 270022, Note_on_c, 0, 75, 0
2, 270058, Note_on_c, 0, 51, 0
2, 270320, Note_on_c, 0, 63, 58
2, 270322, Note_on_c, 0, 72, 57
2, 270330, Note_on_c, 0, 60, 53
2, 270332, Note_on_c, 0, 67, 42
2, 270360, Note_on_c, 0, 60, 0
2, 270366, Note_on_c, 0, 67, 0
2, 270392, Note_on_c, 0, 72, 0
2, 270432, Note_on_c, 0, 63, 0
2, 270552, Control_c, 0, 64, 127
2, 270622, Control_c, 0, 64, 0
2, 270710, Note_on_c, 0, 70, 60
2, 270728, Note_on_c, 0, 60, 44
2, 270730, Note_on_c, 0, 55, 46
2, 270736, Note_on_c, 0, 65, 32
2, 270766, Note_on_c, 0, 60, 0
2, 270782, Note_on_c, 0, 65, 0
2, 270784, Control_c, 0, 64, 127
2, 270790, Note_on_c, 0, 55, 0
2, 270804, Note_on_c, 0, 70, 0
2, 271022, Control_c, 0, 64, 0
2, 271074, Note_on_c, 0, 63, 69
2, 271080, Note_on_c, 0, 71, 55
2, 271084, Note_on_c, 0, 43, 29
2, 271088, Note_on_c, 0, 59, 51
2, 271092, Control_c, 0, 64, 127
2, 271114, Note_on_c, 0, 59, 0
2, 271118, Note_on_c, 0, 43, 0
2, 271128, Note_on_c, 0, 63, 0
2, 271142, Note_on_c, 0, 71, 0
2, 271306, Control_c, 0, 64, 0
2, 271316, Note_on_c, 0, 36, 105
2, 271316, Note_on_c, 0, 72, 83
2, 271318, Note_on_c, 0, 24, 96
2, 271322, Note_on_c, 0, 60, 95
2, 271326, Note_on_c, 0, 67, 75
2, 271466, Note_on_c, 0, 67, 0
2, 271478, Note_on_c, 0, 60, 0
2, 271498, Note_on_c, 0, 72, 0
2, 271576, Note_on_c, 0, 24, 0
2, 271578, Note_on_c, 0, 36, 0
2, 271578, End_track
3, 0, Start_track
3, 0, Control_c, 1, 0, 0
3, 0, Control_c, 1, 7, 105
3, 0, Program_c, 1, 35
3, 3056, Note_on_c, 1, 34, 71
3, 3624, Note_on_c, 1, 34, 0
3, 3648, Note_on_c, 1, 36, 83
3, 4208, Note_on_c, 1, 43, 80
3, 4256, Note_on_c, 1, 36, 0
3, 4816, Note_on_c, 1, 36, 90
3, 4848, Note_on_c, 1, 43, 0
3, 5128, Note_on_c, 1, 36, 0
3, 5920, Note_on_c, 1, 35, 49
3, 6104, Note_on_c, 1, 35, 0
3, 6120, Note_on_c, 1, 36, 82
3, 6352, Note_on_c, 1, 36, 0
3, 9192, Note_on_c, 1, 50, 56
3, 9192, Note_on_c, 1, 34, 46
3, 9352, Note_on_c, 1, 50, 0
3, 9360, Note_on_c, 1, 52, 44
3, 9592, Note_on_c, 1, 52, 0
3, 9736, Note_on_c, 1, 34, 0
3, 9768, Note_on_c, 1, 44, 76
3, 9776, Note_on_c, 1, 28, 66
3, 10296, Note_on_c, 1, 28, 0
3, 10312, Note_on_c, 1, 46, 69
3, 10312, Note_on_c, 1, 29, 62
3, 10352, Note_on_c, 1, 44, 0
3, 10928, Note_on_c, 1, 48, 76
3, 10936, Note_on_c, 1, 36, 71
3, 10960, Note_on_c, 1, 46, 0
3, 10992, Note_on_c, 1, 29, 0
3, 11224, Note_on_c, 1, 48, 0
3, 11240, Note_on_c, 1, 36, 0
3, 12144, Note_on_c, 1, 35, 22
3, 12240, Note_on_c, 1, 35, 0
3, 12248, Note_on_c, 1, 36, 72
3, 12440, Note_on_c, 1, 36, 0
3, 15304, Note_on_c, 1, 34, 52
3, 15304, Note_on_c, 1, 50, 64
3, 15856, Note_on_c, 1, 50, 0
3, 15888, Note_on_c, 1, 51, 58
3, 15896, Note_on_c, 1, 36, 66
3, 15944, Note_on_c, 1, 34, 0
3, 16480, Note_on_c, 1, 46, 71
3, 16480, Note_on_c, 1, 31, 66
3, 16496, Note_on_c, 1, 51, 0
3, 16504, Note_on_c, 1, 36, 0
3, 17080, Note_on_c, 1, 51, 72
3, 17080, Note_on_c, 1, 36, 75
3, 17104, Note_on_c, 1, 46, 0
3, 17120, Note_on_c, 1, 31, 0
3, 17432, Note_on_c, 1, 51, 0
3, 17456, Note_on_c, 1, 36, 0
3, 21448, Note_on_c, 1, 50, 55
3, 21448, Note_on_c, 1, 34, 60
3, 22064, Note_on_c, 1, 29, 44
3, 22072, Note_on_c, 1, 44, 65
3, 22080, Note_on_c, 1, 50, 0
3, 22112, Note_on_c, 1, 34, 0
3, 22584, Note_on_c, 1, 44, 0
3, 22592, Note_on_c, 1, 29, 0
3, 22600, Note_on_c, 1, 46, 62
3, 22608, Note_on_c, 1, 31, 64
3, 23216, Note_on_c, 1, 48, 71
3, 23224, Note_on_c, 1, 36, 75
3, 23248, Note_on_c, 1, 46, 0
3, 23264, Note_on_c, 1, 31, 0
3, 23472, Note_on_c, 1, 48, 0
3, 23592, Note_on_c, 1, 36, 0
3, 23952, Note_on_c, 1, 39, 58
3, 24024, Note_on_c, 1, 39, 0
3, 24136, Note_on_c, 1, 40, 55
3, 24320, Note_on_c, 1, 40, 0
3, 24536, Note_on_c, 1, 41, 58
3, 25112, Note_on_c, 1, 55, 81
3, 25120, Note_on_c, 1, 39, 80
3, 25144, Note_on_c, 1, 41, 0
3, 25648, Note_on_c, 1, 39, 0
3, 25656, Note_on_c, 1, 38, 73
3, 25664, Note_on_c, 1, 54, 76
3, 25672, Note_on_c, 1, 55, 0
3, 26624, Note_on_c, 1, 54, 0
3, 26632, Note_on_c, 1, 31, 69
3, 26640, Note_on_c, 1, 51, 76
3, 26688, Note_on_c, 1, 38, 0
3, 27160, Note_on_c, 1, 51, 0
3, 27160, Note_on_c, 1, 31, 0
3, 27184, Note_on_c, 1, 36, 77
3, 28176, Note_on_c, 1, 41, 71
3, 28232, Note_on_c, 1, 36, 0
3, 28712, Note_on_c, 1, 41, 0
3, 28728, Note_on_c, 1, 43, 81
3, 29696, Note_on_c, 1, 36, 80
3, 29752, Note_on_c, 1, 43, 0
3, 30224, Note_on_c, 1, 43, 91
3, 30256, Note_on_c, 1, 36, 0
3, 31008, Note_on_c, 1, 41, 84
3, 31024, Note_on_c, 1, 43, 0
3, 31640, Note_on_c, 1, 39, 74
3, 31688, Note_on_c, 1, 41, 0
3, 32168, Note_on_c, 1, 39, 0
3, 32200, Note_on_c, 1, 38, 65
3, 32784, Note_on_c, 1, 45, 84
3, 32832, Note_on_c, 1, 38, 0
3, 33296, Note_on_c, 1, 45, 0
3, 33336, Note_on_c, 1, 43, 82
3, 34320, Note_on_c, 1, 38, 80
3, 34328, Note_on_c, 1, 43, 0
3, 34848, Note_on_c, 1, 43, 80
3, 34888, Note_on_c, 1, 38, 0
3, 35144, Note_on_c, 1, 43, 0
3, 35464, Note_on_c, 1, 55, 95
3, 35464, Note_on_c, 1, 39, 78
3, 35632, Note_on_c, 1, 39, 0
3, 35632, Note_on_c, 1, 55, 0
3, 35648, Note_on_c, 1, 54, 57
3, 35672, Note_on_c, 1, 38, 64
3, 35792, Note_on_c, 1, 54, 0
3, 35848, Note_on_c, 1, 38, 0
3, 35856, Note_on_c, 1, 53, 77
3, 35856, Note_on_c, 1, 37, 77
3, 36232, Note_on_c, 1, 37, 0
3, 36248, Note_on_c, 1, 43, 71
3, 36256, Note_on_c, 1, 41, 85
3, 36280, Note_on_c, 1, 53, 0
3, 36312, Note_on_c, 1, 41, 0
3, 36776, Note_on_c, 1, 43, 0
3, 36808, Note_on_c, 1, 36, 74
3, 37024, Note_on_c, 1, 36, 0
3, 39872, Note_on_c, 1, 34, 74
3, 40416, Note_on_c, 1, 34, 0
3, 40440, Note_on_c, 1, 36, 87
3, 41000, Note_on_c, 1, 36, 0
3, 41008, Note_on_c, 1, 31, 81
3, 41616, Note_on_c, 1, 31, 0
3, 41616, Note_on_c, 1, 36, 90
3, 41856, Note_on_c, 1, 36, 0
3, 42944, Note_on_c, 1, 36, 88
3, 43120, Note_on_c, 1, 36, 0
3, 46008, Note_on_c, 1, 34, 69
3, 46584, Note_on_c, 1, 41, 87
3, 46616, Note_on_c, 1, 34, 0
3, 47176, Note_on_c, 1, 41, 0
3, 47176, Note_on_c, 1, 31, 84
3, 47760, Note_on_c, 1, 36, 89
3, 47776, Note_on_c, 1, 31, 0
3, 48024, Note_on_c, 1, 36, 0
3, 49088, Note_on_c, 1, 34, 62
3, 49096, Note_on_c, 1, 50, 70
3, 49240, Note_on_c, 1, 50, 0
3, 49256, Note_on_c, 1, 50, 33
3, 49672, Note_on_c, 1, 34, 0
3, 49672, Note_on_c, 1, 44, 73
3, 49672, Note_on_c, 1, 29, 64
3, 49736, Note_on_c, 1, 50, 0
3, 50160, Note_on_c, 1, 29, 0
3, 50160, Note_on_c, 1, 44, 0
3, 50184, Note_on_c, 1, 46, 75
3, 50192, Note_on_c, 1, 31, 72
3, 50784, Note_on_c, 1, 46, 0
3, 50808, Note_on_c, 1, 36, 80
3, 50808, Note_on_c, 1, 51, 60
3, 50824, Note_on_c, 1, 31, 0
3, 50840, Note_on_c, 1, 49, 35
3, 50864, Note_on_c, 1, 49, 0
3, 50968, Note_on_c, 1, 51, 0
3, 51048, Note_on_c, 1, 36, 0
3, 52352, Note_on_c, 1, 50, 68
3, 52352, Note_on_c, 1, 34, 79
3, 52800, Note_on_c, 1, 50, 0
3, 52864, Note_on_c, 1, 34, 0
3, 52888, Note_on_c, 1, 51, 65
3, 52888, Note_on_c, 1, 39, 74
3, 53448, Note_on_c, 1, 51, 0
3, 53472, Note_on_c, 1, 32, 65
3, 53480, Note_on_c, 1, 48, 62
3, 53496, Note_on_c, 1, 39, 0
3, 53968, Note_on_c, 1, 48, 0
3, 54048, Note_on_c, 1, 53, 67
3, 54056, Note_on_c, 1, 32, 0
3, 54064, Note_on_c, 1, 37, 77
3, 54816, Note_on_c, 1, 37, 0
3, 54816, Note_on_c, 1, 53, 0
3, 54824, Note_on_c, 1, 47, 48
3, 54840, Note_on_c, 1, 31, 53
3, 55056, Note_on_c, 1, 47, 0
3, 55192, Note_on_c, 1, 31, 0
3, 55224, Note_on_c, 1, 36, 81
3, 55584, Note_on_c, 1, 36, 0
3, 55584, Note_on_c, 1, 33, 69
3, 55712, Note_on_c, 1, 33, 0
3, 55968, Note_on_c, 1, 38, 69
3, 56312, Note_on_c, 1, 38, 0
3, 56336, Note_on_c, 1, 31, 53
3, 56544, Note_on_c, 1, 31, 0
3, 56560, Note_on_c, 1, 36, 99
3, 56696, Note_on_c, 1, 36, 0
3, 57720, Note_on_c, 1, 34, 27
3, 57840, Note_on_c, 1, 34, 0
3, 57880, Note_on_c, 1, 35, 58
3, 58248, Note_on_c, 1, 35, 0
3, 58280, Note_on_c, 1, 36, 56
3, 58864, Note_on_c, 1, 33, 66
3, 58872, Note_on_c, 1, 36, 0
3, 59424, Note_on_c, 1, 38, 66
3, 59432, Note_on_c, 1, 33, 0
3, 60360, Note_on_c, 1, 43, 77
3, 60416, Note_on_c, 1, 38, 0
3, 60960, Note_on_c, 1, 43, 0
3, 60968, Note_on_c, 1, 36, 73
3, 61928, Note_on_c, 1, 33, 69
3, 61936, Note_on_c, 1, 36, 0
3, 62472, Note_on_c, 1, 33, 0
3, 62472, Note_on_c, 1, 38, 69
3, 63424, Note_on_c, 1, 43, 78
3, 63464, Note_on_c, 1, 38, 0
3, 63824, Note_on_c, 1, 31, 42
3, 63944, Note_on_c, 1, 43, 0
3, 63992, Note_on_c, 1, 31, 0
3, 64008, Note_on_c, 1, 36, 74
3, 64760, Note_on_c, 1, 40, 20
3, 64800, Note_on_c, 1, 40, 0
3, 64984, Note_on_c, 1, 40, 79
3, 65016, Note_on_c, 1, 36, 0
3, 65368, Note_on_c, 1, 40, 0
3, 65392, Note_on_c, 1, 36, 34
3, 65512, Note_on_c, 1, 36, 0
3, 65552, Note_on_c, 1, 41, 68
3, 66504, Note_on_c, 1, 42, 76
3, 66544, Note_on_c, 1, 41, 0
3, 66888, Note_on_c, 1, 36, 39
3, 66912, Note_on_c, 1, 42, 0
3, 66944, Note_on_c, 1, 36, 0
3, 67080, Note_on_c, 1, 43, 74
3, 68048, Note_on_c, 1, 33, 73
3, 68104, Note_on_c, 1, 43, 0
3, 68424, Note_on_c, 1, 39, 47
3, 68432, Note_on_c, 1, 33, 0
3, 68544, Note_on_c, 1, 39, 0
3, 68608, Note_on_c, 1, 38, 68
3, 69576, Note_on_c, 1, 43, 80
3, 69632, Note_on_c, 1, 38, 0
3, 69976, Note_on_c, 1, 31, 41
3, 70048, Note_on_c, 1, 31, 0
3, 70128, Note_on_c, 1, 43, 0
3, 70144, Note_on_c, 1, 36, 68
3, 71128, Note_on_c, 1, 33, 77
3, 71160, Note_on_c, 1, 36, 0
3, 71680, Note_on_c, 1, 33, 0
3, 71696, Note_on_c, 1, 38, 74
3, 72632, Note_on_c, 1, 43, 80
3, 72696, Note_on_c, 1, 38, 0
3, 73024, Note_on_c, 1, 35, 47
3, 73032, Note_on_c, 1, 43, 0
3, 73184, Note_on_c, 1, 35, 0
3, 73216, Note_on_c, 1, 36, 71
3, 74192, Note_on_c, 1, 33, 71
3, 74232, Note_on_c, 1, 36, 0
3, 74584, Note_on_c, 1, 36, 51
3, 74648, Note_on_c, 1, 36, 0
3, 74712, Note_on_c, 1, 33, 0
3, 74752, Note_on_c, 1, 38, 76
3, 75720, Note_on_c, 1, 31, 71
3, 75752, Note_on_c, 1, 38, 0
3, 76096, Note_on_c, 1, 35, 36
3, 76136, Note_on_c, 1, 35, 0
3, 76304, Note_on_c, 1, 36, 77
3, 76328, Note_on_c, 1, 31, 0
3, 77272, Note_on_c, 1, 40, 83
3, 77304, Note_on_c, 1, 36, 0
3, 77664, Note_on_c, 1, 36, 36
3, 77696, Note_on_c, 1, 40, 0
3, 77784, Note_on_c, 1, 36, 0
3, 77824, Note_on_c, 1, 41, 73
3, 78808, Note_on_c, 1, 42, 78
3, 78848, Note_on_c, 1, 41, 0
3, 79216, Note_on_c, 1, 39, 31
3, 79336, Note_on_c, 1, 42, 0
3, 79360, Note_on_c, 1, 39, 0
3, 79376, Note_on_c, 1, 43, 74
3, 80328, Note_on_c, 1, 31, 68
3, 80632, Note_on_c, 1, 31, 0
3, 80704, Note_on_c, 1, 35, 34
3, 80768, Note_on_c, 1, 35, 0
3, 80904, Note_on_c, 1, 36, 80
3, 80928, Note_on_c, 1, 43, 0
3, 81872, Note_on_c, 1, 36, 0
3, 81872, Note_on_c, 1, 30, 74
3, 81880, Note_on_c, 1, 48, 71
3, 82264, Note_on_c, 1, 36, 45
3, 82352, Note_on_c, 1, 30, 0
3, 82376, Note_on_c, 1, 48, 0
3, 82400, Note_on_c, 1, 36, 0
3, 82448, Note_on_c, 1, 29, 69
3, 82464, Note_on_c, 1, 45, 25
3, 82488, Note_on_c, 1, 45, 0
3, 83408, Note_on_c, 1, 41, 80
3, 83784, Note_on_c, 1, 29, 0
3, 83784, Note_on_c, 1, 36, 46
3, 83808, Note_on_c, 1, 36, 0
3, 83976, Note_on_c, 1, 29, 71
3, 84792, Note_on_c, 1, 41, 0
3, 84936, Note_on_c, 1, 41, 71
3, 85160, Note_on_c, 1, 29, 0
3, 85320, Note_on_c, 1, 41, 0
3, 85320, Note_on_c, 1, 35, 45
3, 85512, Note_on_c, 1, 35, 0
3, 85512, Note_on_c, 1, 36, 68
3, 86480, Note_on_c, 1, 43, 71
3, 86632, Note_on_c, 1, 43, 0
3, 86832, Note_on_c, 1, 50, 55
3, 86944, Note_on_c, 1, 50, 0
3, 87032, Note_on_c, 1, 48, 74
3, 87248, Note_on_c, 1, 36, 0
3, 88000, Note_on_c, 1, 42, 73
3, 88032, Note_on_c, 1, 48, 0
3, 88384, Note_on_c, 1, 42, 0
3, 88384, Note_on_c, 1, 39, 42
3, 88536, Note_on_c, 1, 39, 0
3, 88568, Note_on_c, 1, 41, 71
3, 89536, Note_on_c, 1, 39, 65
3, 89544, Note_on_c, 1, 55, 72
3, 89576, Note_on_c, 1, 41, 0
3, 89936, Note_on_c, 1, 41, 24
3, 90064, Note_on_c, 1, 41, 0
3, 90072, Note_on_c, 1, 39, 0
3, 90088, Note_on_c, 1, 55, 0
3, 90112, Note_on_c, 1, 38, 58
3, 90120, Note_on_c, 1, 54, 55
3, 90896, Note_on_c, 1, 38, 0
3, 91088, Note_on_c, 1, 32, 70
3, 91296, Note_on_c, 1, 54, 0
3, 91632, Note_on_c, 1, 31, 76
3, 91640, Note_on_c, 1, 32, 0
3, 92592, Note_on_c, 1, 57, 77
3, 92600, Note_on_c, 1, 31, 0
3, 92600, Note_on_c, 1, 41, 70
3, 93168, Note_on_c, 1, 57, 0
3, 93168, Note_on_c, 1, 55, 67
3, 93176, Note_on_c, 1, 39, 77
3, 93192, Note_on_c, 1, 41, 0
3, 94192, Note_on_c, 1, 55, 0
3, 94528, Note_on_c, 1, 37, 78
3, 94528, Note_on_c, 1, 53, 84
3, 94536, Note_on_c, 1, 39, 0
3, 95024, Note_on_c, 1, 53, 0
3, 95032, Note_on_c, 1, 37, 0
3, 95064, Note_on_c, 1, 36, 68
3, 95680, Note_on_c, 1, 45, 85
3, 95800, Note_on_c, 1, 36, 0
3, 96136, Note_on_c, 1, 37, 25
3, 96216, Note_on_c, 1, 37, 0
3, 96216, Note_on_c, 1, 45, 0
3, 96256, Note_on_c, 1, 38, 72
3, 97216, Note_on_c, 1, 43, 81
3, 97264, Note_on_c, 1, 38, 0
3, 97592, Note_on_c, 1, 35, 50
3, 97648, Note_on_c, 1, 35, 0
3, 97784, Note_on_c, 1, 36, 72
3, 97792, Note_on_c, 1, 43, 0
3, 98744, Note_on_c, 1, 33, 73
3, 98776, Note_on_c, 1, 36, 0
3, 99168, Note_on_c, 1, 34, 25
3, 99280, Note_on_c, 1, 34, 0
3, 99296, Note_on_c, 1, 33, 0
3, 99304, Note_on_c, 1, 38, 73
3, 100272, Note_on_c, 1, 43, 75
3, 100312, Note_on_c, 1, 38, 0
3, 100640, Note_on_c, 1, 35, 46
3, 100648, Note_on_c, 1, 43, 0
3, 100800, Note_on_c, 1, 35, 0
3, 100832, Note_on_c, 1, 36, 73
3, 101800, Note_on_c, 1, 40, 79
3, 101832, Note_on_c, 1, 36, 0
3, 102200, Note_on_c, 1, 36, 48
3, 102272, Note_on_c, 1, 40, 0
3, 102352, Note_on_c, 1, 36, 0
3, 102368, Note_on_c, 1, 41, 75
3, 103344, Note_on_c, 1, 42, 79
3, 103376, Note_on_c, 1, 41, 0
3, 103808, Note_on_c, 1, 39, 9
3, 103856, Note_on_c, 1, 42, 0
3, 103896, Note_on_c, 1, 39, 0
3, 103912, Note_on_c, 1, 43, 70
3, 104880, Note_on_c, 1, 49, 64
3, 104880, Note_on_c, 1, 33, 54
3, 104944, Note_on_c, 1, 43, 0
3, 105296, Note_on_c, 1, 37, 35
3, 105440, Note_on_c, 1, 49, 0
3, 105448, Note_on_c, 1, 37, 0
3, 105448, Note_on_c, 1, 33, 0
3, 105456, Note_on_c, 1, 38, 51
3, 105456, Note_on_c, 1, 48, 58
3, 106400, Note_on_c, 1, 48, 0
3, 106416, Note_on_c, 1, 47, 68
3, 106424, Note_on_c, 1, 31, 66
3, 106448, Note_on_c, 1, 38, 0
3, 106792, Note_on_c, 1, 31, 0
3, 106800, Note_on_c, 1, 47, 0
3, 106800, Note_on_c, 1, 35, 57
3, 107000, Note_on_c, 1, 36, 91
3, 107032, Note_on_c, 1, 35, 0
3, 107944, Note_on_c, 1, 33, 76
3, 107984, Note_on_c, 1, 36, 0
3, 108328, Note_on_c, 1, 34, 37
3, 108368, Note_on_c, 1, 33, 0
3, 108488, Note_on_c, 1, 34, 0
3, 108512, Note_on_c, 1, 38, 71
3, 109480, Note_on_c, 1, 43, 76
3, 109528, Note_on_c, 1, 38, 0
3, 109864, Note_on_c, 1, 35, 35
3, 109928, Note_on_c, 1, 35, 0
3, 110040, Note_on_c, 1, 43, 0
3, 110048, Note_on_c, 1, 36, 77
3, 111024, Note_on_c, 1, 36, 0
3, 111024, Note_on_c, 1, 33, 72
3, 111560, Note_on_c, 1, 33, 0
3, 111576, Note_on_c, 1, 38, 68
3, 112560, Note_on_c, 1, 43, 74
3, 112600, Note_on_c, 1, 38, 0
3, 112928, Note_on_c, 1, 35, 56
3, 112936, Note_on_c, 1, 43, 0
3, 112976, Note_on_c, 1, 35, 0
3, 113120, Note_on_c, 1, 36, 69
3, 114080, Note_on_c, 1, 40, 74
3, 114136, Note_on_c, 1, 36, 0
3, 114424, Note_on_c, 1, 40, 0
3, 114440, Note_on_c, 1, 36, 56
3, 114488, Note_on_c, 1, 36, 0
3, 114624, Note_on_c, 1, 41, 72
3, 115608, Note_on_c, 1, 42, 81
3, 115640, Note_on_c, 1, 41, 0
3, 116096, Note_on_c, 1, 42, 0
3, 116184, Note_on_c, 1, 43, 69
3, 117144, Note_on_c, 1, 45, 82
3, 117184, Note_on_c, 1, 43, 0
3, 117704, Note_on_c, 1, 38, 66
3, 117720, Note_on_c, 1, 45, 0
3, 118688, Note_on_c, 1, 43, 75
3, 118720, Note_on_c, 1, 38, 0
3, 119040, Note_on_c, 1, 35, 51
3, 119072, Note_on_c, 1, 35, 0
3, 119216, Note_on_c, 1, 43, 0
3, 119248, Note_on_c, 1, 36, 65
3, 120216, Note_on_c, 1, 33, 69
3, 120224, Note_on_c, 1, 36, 0
3, 120592, Note_on_c, 1, 34, 39
3, 120704, Note_on_c, 1, 34, 0
3, 120744, Note_on_c, 1, 33, 0
3, 120768, Note_on_c, 1, 38, 70
3, 121752, Note_on_c, 1, 43, 80
3, 121768, Note_on_c, 1, 41, 44
3, 121800, Note_on_c, 1, 41, 0
3, 121800, Note_on_c, 1, 38, 0
3, 122136, Note_on_c, 1, 35, 37
3, 122176, Note_on_c, 1, 35, 0
3, 122280, Note_on_c, 1, 43, 0
3, 122320, Note_on_c, 1, 36, 70
3, 123280, Note_on_c, 1, 33, 76
3, 123328, Note_on_c, 1, 36, 0
3, 123840, Note_on_c, 1, 33, 0
3, 123848, Note_on_c, 1, 38, 74
3, 124800, Note_on_c, 1, 43, 84
3, 124864, Note_on_c, 1, 38, 0
3, 125184, Note_on_c, 1, 35, 38
3, 125192, Note_on_c, 1, 43, 0
3, 125328, Note_on_c, 1, 35, 0
3, 125376, Note_on_c, 1, 36, 68
3, 126360, Note_on_c, 1, 40, 80
3, 126416, Note_on_c, 1, 36, 0
3, 126816, Note_on_c, 1, 40, 0
3, 126912, Note_on_c, 1, 41, 74
3, 127872, Note_on_c, 1, 41, 0
3, 127896, Note_on_c, 1, 42, 81
3, 128288, Note_on_c, 1, 39, 21
3, 128408, Note_on_c, 1, 42, 0
3, 128440, Note_on_c, 1, 39, 0
3, 128456, Note_on_c, 1, 43, 72
3, 129416, Note_on_c, 1, 31, 74
3, 129720, Note_on_c, 1, 43, 0
3, 129816, Note_on_c, 1, 35, 36
3, 129864, Note_on_c, 1, 31, 0
3, 129968, Note_on_c, 1, 35, 0
3, 129992, Note_on_c, 1, 36, 72
3, 130944, Note_on_c, 1, 42, 80
3, 130992, Note_on_c, 1, 36, 0
3, 131376, Note_on_c, 1, 40, 29
3, 131384, Note_on_c, 1, 42, 0
3, 131504, Note_on_c, 1, 40, 0
3, 131512, Note_on_c, 1, 41, 71
3, 132496, Note_on_c, 1, 29, 76
3, 132824, Note_on_c, 1, 41, 0
3, 132856, Note_on_c, 1, 36, 54
3, 132896, Note_on_c, 1, 36, 0
3, 133048, Note_on_c, 1, 29, 0
3, 133064, Note_on_c, 1, 41, 90
3, 134024, Note_on_c, 1, 36, 82
3, 134080, Note_on_c, 1, 41, 0
3, 134384, Note_on_c, 1, 36, 0
3, 134400, Note_on_c, 1, 35, 44
3, 134560, Note_on_c, 1, 35, 0
3, 134576, Note_on_c, 1, 36, 83
3, 135552, Note_on_c, 1, 40, 81
3, 135584, Note_on_c, 1, 36, 0
3, 136112, Note_on_c, 1, 40, 0
3, 136128, Note_on_c, 1, 36, 76
3, 137080, Note_on_c, 1, 42, 83
3, 137096, Note_on_c, 1, 36, 0
3, 137104, Note_on_c, 1, 41, 60
3, 137128, Note_on_c, 1, 41, 0
3, 137472, Note_on_c, 1, 40, 26
3, 137584, Note_on_c, 1, 42, 0
3, 137632, Note_on_c, 1, 40, 0
3, 137656, Note_on_c, 1, 41, 76
3, 138616, Note_on_c, 1, 39, 77
3, 138640, Note_on_c, 1, 41, 0
3, 139000, Note_on_c, 1, 47, 31
3, 139040, Note_on_c, 1, 47, 0
3, 139168, Note_on_c, 1, 39, 0
3, 139192, Note_on_c, 1, 38, 69
3, 140168, Note_on_c, 1, 45, 81
3, 140240, Note_on_c, 1, 38, 0
3, 140568, Note_on_c, 1, 39, 25
3, 140648, Note_on_c, 1, 45, 0
3, 140720, Note_on_c, 1, 39, 0
3, 140720, Note_on_c, 1, 43, 66
3, 141680, Note_on_c, 1, 41, 80
3, 141720, Note_on_c, 1, 43, 0
3, 142224, Note_on_c, 1, 41, 0
3, 142264, Note_on_c, 1, 39, 74
3, 143216, Note_on_c, 1, 37, 74
3, 143248, Note_on_c, 1, 39, 0
3, 143680, Note_on_c, 1, 42, 23
3, 143760, Note_on_c, 1, 37, 0
3, 143776, Note_on_c, 1, 42, 0
3, 143784, Note_on_c, 1, 36, 72
3, 144704, Note_on_c, 1, 36, 0
3, 144744, Note_on_c, 1, 33, 74
3, 145232, Note_on_c, 1, 34, 23
3, 145312, Note_on_c, 1, 34, 0
3, 145320, Note_on_c, 1, 33, 0
3, 145336, Note_on_c, 1, 38, 77
3, 146304, Note_on_c, 1, 43, 83
3, 146352, Note_on_c, 1, 38, 0
3, 146680, Note_on_c, 1, 35, 24
3, 146704, Note_on_c, 1, 35, 0
3, 146848, Note_on_c, 1, 43, 0
3, 146848, Note_on_c, 1, 36, 76
3, 147824, Note_on_c, 1, 33, 79
3, 147856, Note_on_c, 1, 36, 0
3, 148256, Note_on_c, 1, 34, 23
3, 148360, Note_on_c, 1, 34, 0
3, 148368, Note_on_c, 1, 33, 0
3, 148376, Note_on_c, 1, 38, 74
3, 149360, Note_on_c, 1, 43, 84
3, 149416, Note_on_c, 1, 38, 0
3, 149904, Note_on_c, 1, 43, 0
3, 149928, Note_on_c, 1, 36, 70
3, 150888, Note_on_c, 1, 40, 82
3, 150936, Note_on_c, 1, 36, 0
3, 151464, Note_on_c, 1, 40, 0
3, 151464, Note_on_c, 1, 41, 77
3, 152424, Note_on_c, 1, 42, 78
3, 152448, Note_on_c, 1, 41, 0
3, 152840, Note_on_c, 1, 39, 25
3, 152952, Note_on_c, 1, 42, 0
3, 152968, Note_on_c, 1, 39, 0
3, 152992, Note_on_c, 1, 43, 66
3, 153960, Note_on_c, 1, 45, 80
3, 154008, Note_on_c, 1, 43, 0
3, 154504, Note_on_c, 1, 45, 0
3, 154512, Note_on_c, 1, 38, 73
3, 155472, Note_on_c, 1, 43, 83
3, 155480, Note_on_c, 1, 38, 0
3, 155872, Note_on_c, 1, 35, 38
3, 155896, Note_on_c, 1, 43, 0
3, 156056, Note_on_c, 1, 35, 0
3, 156072, Note_on_c, 1, 36, 77
3, 157024, Note_on_c, 1, 33, 71
3, 157048, Note_on_c, 1, 36, 0
3, 157592, Note_on_c, 1, 38, 67
3, 157600, Note_on_c, 1, 33, 0
3, 158560, Note_on_c, 1, 43, 74
3, 158616, Note_on_c, 1, 38, 0
3, 158832, Note_on_c, 1, 43, 0
3, 158904, Note_on_c, 1, 43, 29
3, 159056, Note_on_c, 1, 43, 0
3, 159088, Note_on_c, 1, 36, 77
3, 160096, Note_on_c, 1, 36, 0
3, 160112, Note_on_c, 1, 33, 80
3, 160648, Note_on_c, 1, 33, 0
3, 160656, Note_on_c, 1, 38, 80
3, 161632, Note_on_c, 1, 43, 82
3, 161688, Note_on_c, 1, 38, 0
3, 162168, Note_on_c, 1, 43, 0
3, 162184, Note_on_c, 1, 36, 74
3, 163168, Note_on_c, 1, 40, 79
3, 163200, Note_on_c, 1, 36, 0
3, 163744, Note_on_c, 1, 41, 78
3, 163752, Note_on_c, 1, 40, 0
3, 164704, Note_on_c, 1, 42, 82
3, 164736, Note_on_c, 1, 41, 0
3, 165136, Note_on_c, 1, 39, 25
3, 165248, Note_on_c, 1, 42, 0
3, 165264, Note_on_c, 1, 39, 0
3, 165280, Note_on_c, 1, 43, 69
3, 166224, Note_on_c, 1, 43, 0
3, 166232, Note_on_c, 1, 33, 60
3, 166240, Note_on_c, 1, 49, 74
3, 166672, Note_on_c, 1, 37, 26
3, 166776, Note_on_c, 1, 49, 0
3, 166800, Note_on_c, 1, 33, 0
3, 166800, Note_on_c, 1, 48, 63
3, 166800, Note_on_c, 1, 38, 66
3, 166808, Note_on_c, 1, 37, 0
3, 167768, Note_on_c, 1, 48, 0
3, 167776, Note_on_c, 1, 31, 64
3, 167784, Note_on_c, 1, 47, 62
3, 167800, Note_on_c, 1, 38, 0
3, 167864, Note_on_c, 1, 47, 0
3, 168144, Note_on_c, 1, 31, 0
3, 168160, Note_on_c, 1, 35, 58
3, 168296, Note_on_c, 1, 35, 0
3, 168344, Note_on_c, 1, 36, 85
3, 169304, Note_on_c, 1, 45, 85
3, 169376, Note_on_c, 1, 36, 0
3, 169656, Note_on_c, 1, 45, 0
3, 169656, Note_on_c, 1, 39, 48
3, 169808, Note_on_c, 1, 39, 0
3, 169856, Note_on_c, 1, 38, 55
3, 170824, Note_on_c, 1, 38, 0
3, 170848, Note_on_c, 1, 43, 70
3, 171216, Note_on_c, 1, 31, 44
3, 171280, Note_on_c, 1, 31, 0
3, 171320, Note_on_c, 1, 43, 0
3, 171400, Note_on_c, 1, 36, 64
3, 172368, Note_on_c, 1, 45, 85
3, 172400, Note_on_c, 1, 35, 25
3, 172416, Note_on_c, 1, 36, 0
3, 172432, Note_on_c, 1, 35, 0
3, 172704, Note_on_c, 1, 45, 0
3, 172736, Note_on_c, 1, 39, 52
3, 172792, Note_on_c, 1, 39, 0
3, 172912, Note_on_c, 1, 38, 62
3, 173848, Note_on_c, 1, 38, 0
3, 173848, Note_on_c, 1, 44, 83
3, 174232, Note_on_c, 1, 44, 0
3, 174272, Note_on_c, 1, 38, 41
3, 174368, Note_on_c, 1, 38, 0
3, 174448, Note_on_c, 1, 43, 57
3, 174536, Note_on_c, 1, 43, 0
3, 174648, Note_on_c, 1, 36, 68
3, 175440, Note_on_c, 1, 40, 79
3, 175496, Note_on_c, 1, 36, 0
3, 175816, Note_on_c, 1, 40, 0
3, 175832, Note_on_c, 1, 36, 37
3, 175968, Note_on_c, 1, 36, 0
3, 176016, Note_on_c, 1, 41, 77
3, 176600, Note_on_c, 1, 29, 58
3, 176664, Note_on_c, 1, 41, 0
3, 176672, Note_on_c, 1, 29, 0
3, 176768, Note_on_c, 1, 42, 81
3, 177344, Note_on_c, 1, 30, 59
3, 177560, Note_on_c, 1, 30, 0
3, 177704, Note_on_c, 1, 42, 0
3, 177720, Note_on_c, 1, 43, 73
3, 178504, Note_on_c, 1, 35, 74
3, 179032, Note_on_c, 1, 43, 0
3, 179048, Note_on_c, 1, 36, 77
3, 179064, Note_on_c, 1, 35, 0
3, 180048, Note_on_c, 1, 42, 86
3, 180088, Note_on_c, 1, 36, 0
3, 180456, Note_on_c, 1, 39, 31
3, 180536, Note_on_c, 1, 42, 0
3, 180600, Note_on_c, 1, 39, 0
3, 180608, Note_on_c, 1, 41, 75
3, 181576, Note_on_c, 1, 29, 75
3, 182032, Note_on_c, 1, 41, 0
3, 182128, Note_on_c, 1, 41, 85
3, 182152, Note_on_c, 1, 40, 31
3, 182168, Note_on_c, 1, 29, 0
3, 182176, Note_on_c, 1, 40, 0
3, 183120, Note_on_c, 1, 29, 77
3, 183464, Note_on_c, 1, 41, 0
3, 183488, Note_on_c, 1, 35, 46
3, 183592, Note_on_c, 1, 29, 0
3, 183664, Note_on_c, 1, 35, 0
3, 183672, Note_on_c, 1, 36, 81
3, 184656, Note_on_c, 1, 48, 90
3, 184832, Note_on_c, 1, 36, 0
3, 185192, Note_on_c, 1, 48, 0
3, 185224, Note_on_c, 1, 36, 76
3, 186168, Note_on_c, 1, 36, 0
3, 186168, Note_on_c, 1, 42, 86
3, 186600, Note_on_c, 1, 42, 0
3, 186600, Note_on_c, 1, 39, 29
3, 186712, Note_on_c, 1, 39, 0
3, 186744, Note_on_c, 1, 41, 80
3, 187704, Note_on_c, 1, 39, 83
3, 187728, Note_on_c, 1, 41, 0
3, 188272, Note_on_c, 1, 39, 0
3, 188304, Note_on_c, 1, 38, 68
3, 189248, Note_on_c, 1, 44, 82
3, 189272, Note_on_c, 1, 38, 0
3, 189672, Note_on_c, 1, 38, 26
3, 189728, Note_on_c, 1, 44, 0
3, 189792, Note_on_c, 1, 38, 0
3, 189800, Note_on_c, 1, 43, 71
3, 190760, Note_on_c, 1, 41, 75
3, 190800, Note_on_c, 1, 43, 0
3, 191232, Note_on_c, 1, 41, 0
3, 191248, Note_on_c, 1, 37, 25
3, 191328, Note_on_c, 1, 39, 76
3, 191376, Note_on_c, 1, 37, 0
3, 192296, Note_on_c, 1, 37, 79
3, 192344, Note_on_c, 1, 39, 0
3, 192688, Note_on_c, 1, 39, 39
3, 192832, Note_on_c, 1, 37, 0
3, 192864, Note_on_c, 1, 39, 0
3, 192872, Note_on_c, 1, 36, 71
3, 193832, Note_on_c, 1, 45, 70
3, 193848, Note_on_c, 1, 36, 0
3, 193864, Note_on_c, 1, 40, 33
3, 193864, Note_on_c, 1, 38, 19
3, 193928, Note_on_c, 1, 40, 0
3, 193936, Note_on_c, 1, 38, 0
3, 194392, Note_on_c, 1, 45, 0
3, 194408, Note_on_c, 1, 38, 72
3, 195376, Note_on_c, 1, 43, 74
3, 195384, Note_on_c, 1, 38, 0
3, 195760, Note_on_c, 1, 31, 38
3, 195888, Note_on_c, 1, 31, 0
3, 195936, Note_on_c, 1, 43, 0
3, 195936, Note_on_c, 1, 36, 75
3, 196912, Note_on_c, 1, 33, 80
3, 196944, Note_on_c, 1, 36, 0
3, 197464, Note_on_c, 1, 33, 0
3, 197472, Note_on_c, 1, 38, 81
3, 198448, Note_on_c, 1, 43, 84
3, 198504, Note_on_c, 1, 38, 0
3, 199008, Note_on_c, 1, 36, 73
3, 199016, Note_on_c, 1, 43, 0
3, 199976, Note_on_c, 1, 40, 84
3, 200016, Note_on_c, 1, 36, 0
3, 200384, Note_on_c, 1, 36, 29
3, 200480, Note_on_c, 1, 40, 0
3, 200536, Note_on_c, 1, 36, 0
3, 200536, Note_on_c, 1, 41, 83
3, 201496, Note_on_c, 1, 42, 82
3, 201536, Note_on_c, 1, 41, 0
3, 201928, Note_on_c, 1, 39, 21
3, 202032, Note_on_c, 1, 42, 0
3, 202040, Note_on_c, 1, 39, 0
3, 202064, Note_on_c, 1, 43, 79
3, 203032, Note_on_c, 1, 45, 83
3, 203080, Note_on_c, 1, 43, 0
3, 203568, Note_on_c, 1, 45, 0
3, 203584, Note_on_c, 1, 38, 71
3, 204568, Note_on_c, 1, 43, 76
3, 204576, Note_on_c, 1, 38, 0
3, 204960, Note_on_c, 1, 35, 62
3, 205480, Note_on_c, 1, 43, 0
3, 205496, Note_on_c, 1, 35, 0
3, 205520, Note_on_c, 1, 36, 95
3, 205672, Note_on_c, 1, 36, 0
3, 208024, Note_on_c, 1, 35, 80
3, 208576, Note_on_c, 1, 35, 0
3, 208600, Note_on_c, 1, 34, 69
3, 209176, Note_on_c, 1, 34, 0
3, 209184, Note_on_c, 1, 36, 87
3, 209768, Note_on_c, 1, 43, 87
3, 209800, Note_on_c, 1, 36, 0
3, 210352, Note_on_c, 1, 43, 0
3, 210352, Note_on_c, 1, 36, 90
3, 210680, Note_on_c, 1, 36, 0
3, 211448, Note_on_c, 1, 35, 44
3, 211616, Note_on_c, 1, 35, 0
3, 211640, Note_on_c, 1, 36, 89
3, 211864, Note_on_c, 1, 36, 0
3, 214744, Note_on_c, 1, 34, 68
3, 215304, Note_on_c, 1, 41, 82
3, 215352, Note_on_c, 1, 34, 0
3, 215888, Note_on_c, 1, 43, 80
3, 215920, Note_on_c, 1, 41, 0
3, 216456, Note_on_c, 1, 36, 80
3, 216528, Note_on_c, 1, 43, 0
3, 216808, Note_on_c, 1, 36, 0
3, 217600, Note_on_c, 1, 43, 50
3, 217808, Note_on_c, 1, 43, 0
3, 217808, Note_on_c, 1, 48, 71
3, 218144, Note_on_c, 1, 48, 0
3, 220312, Note_on_c, 1, 48, 41
3, 220344, Note_on_c, 1, 48, 0
3, 220512, Note_on_c, 1, 47, 28
3, 220568, Note_on_c, 1, 47, 0
3, 220688, Note_on_c, 1, 46, 73
3, 221440, Note_on_c, 1, 48, 80
3, 221472, Note_on_c, 1, 46, 0
3, 222024, Note_on_c, 1, 43, 76
3, 222032, Note_on_c, 1, 48, 0
3, 222632, Note_on_c, 1, 36, 81
3, 222656, Note_on_c, 1, 43, 0
3, 222888, Note_on_c, 1, 36, 0
3, 223736, Note_on_c, 1, 35, 48
3, 223912, Note_on_c, 1, 35, 0
3, 223920, Note_on_c, 1, 36, 80
3, 224376, Note_on_c, 1, 36, 0
3, 227008, Note_on_c, 1, 46, 82
3, 227600, Note_on_c, 1, 41, 74
3, 227616, Note_on_c, 1, 46, 0
3, 228168, Note_on_c, 1, 43, 76
3, 228176, Note_on_c, 1, 41, 0
3, 228744, Note_on_c, 1, 36, 87
3, 228768, Note_on_c, 1, 43, 0
3, 229384, Note_on_c, 1, 36, 0
3, 229488, Note_on_c, 1, 43, 79
3, 229568, Note_on_c, 1, 43, 0
3, 229664, Note_on_c, 1, 42, 53
3, 229712, Note_on_c, 1, 42, 0
3, 229864, Note_on_c, 1, 40, 53
3, 229984, Note_on_c, 1, 40, 0
3, 230064, Note_on_c, 1, 41, 72
3, 230528, Note_on_c, 1, 41, 0
3, 230648, Note_on_c, 1, 41, 68
3, 230704, Note_on_c, 1, 41, 0
3, 230840, Note_on_c, 1, 39, 67
3, 231208, Note_on_c, 1, 39, 0
3, 231216, Note_on_c, 1, 38, 74
3, 232168, Note_on_c, 1, 43, 80
3, 232216, Note_on_c, 1, 38, 0
3, 232736, Note_on_c, 1, 43, 0
3, 232736, Note_on_c, 1, 36, 74
3, 233712, Note_on_c, 1, 48, 88
3, 234016, Note_on_c, 1, 36, 0
3, 234304, Note_on_c, 1, 36, 82
3, 234344, Note_on_c, 1, 48, 0
3, 235256, Note_on_c, 1, 48, 89
3, 235384, Note_on_c, 1, 36, 0
3, 235808, Note_on_c, 1, 43, 74
3, 235840, Note_on_c, 1, 48, 0
3, 236752, Note_on_c, 1, 43, 0
3, 236776, Note_on_c, 1, 41, 68
3, 237160, Note_on_c, 1, 39, 69
3, 237184, Note_on_c, 1, 41, 0
3, 237336, Note_on_c, 1, 39, 0
3, 237368, Note_on_c, 1, 38, 75
3, 238344, Note_on_c, 1, 45, 89
3, 238376, Note_on_c, 1, 38, 0
3, 238704, Note_on_c, 1, 44, 70
3, 238712, Note_on_c, 1, 45, 0
3, 238888, Note_on_c, 1, 44, 0
3, 238896, Note_on_c, 1, 43, 78
3, 239648, Note_on_c, 1, 42, 69
3, 239664, Note_on_c, 1, 43, 0
3, 240240, Note_on_c, 1, 43, 78
3, 240264, Note_on_c, 1, 42, 0
3, 240944, Note_on_c, 1, 43, 0
3, 240992, Note_on_c, 1, 39, 64
3, 241112, Note_on_c, 1, 39, 0
3, 241184, Note_on_c, 1, 38, 48
3, 241224, Note_on_c, 1, 38, 0
3, 241408, Note_on_c, 1, 37, 74
3, 241504, Note_on_c, 1, 37, 0
3, 241792, Note_on_c, 1, 43, 79
3, 241896, Note_on_c, 1, 43, 0
3, 242168, Note_on_c, 1, 35, 52
3, 242248, Note_on_c, 1, 35, 0
3, 242336, Note_on_c, 1, 36, 70
3, 243832, Note_on_c, 1, 36, 0
3, 245424, Note_on_c, 1, 46, 62
3, 246000, Note_on_c, 1, 46, 0
3, 246008, Note_on_c, 1, 36, 71
3, 246552, Note_on_c, 1, 36, 0
3, 246560, Note_on_c, 1, 43, 68
3, 247168, Note_on_c, 1, 48, 80
3, 247216, Note_on_c, 1, 43, 0
3, 247384, Note_on_c, 1, 48, 0
3, 248280, Note_on_c, 1, 43, 32
3, 248448, Note_on_c, 1, 43, 0
3, 248472, Note_on_c, 1, 36, 81
3, 248664, Note_on_c, 1, 36, 0
3, 251544, Note_on_c, 1, 46, 75
3, 252144, Note_on_c, 1, 41, 74
3, 252160, Note_on_c, 1, 46, 0
3, 252688, Note_on_c, 1, 43, 73
3, 252720, Note_on_c, 1, 41, 0
3, 253304, Note_on_c, 1, 36, 82
3, 253336, Note_on_c, 1, 43, 0
3, 253592, Note_on_c, 1, 36, 0
3, 254632, Note_on_c, 1, 46, 75
3, 255216, Note_on_c, 1, 41, 74
3, 255224, Note_on_c, 1, 46, 0
3, 255752, Note_on_c, 1, 43, 78
3, 255776, Note_on_c, 1, 41, 0
3, 256344, Note_on_c, 1, 36, 81
3, 256360, Note_on_c, 1, 43, 0
3, 256888, Note_on_c, 1, 41, 87
3, 256904, Note_on_c, 1, 36, 0
3, 257496, Note_on_c, 1, 34, 83
3, 257528, Note_on_c, 1, 41, 0
3, 258048, Note_on_c, 1, 39, 86
3, 258072, Note_on_c, 1, 34, 0
3, 258328, Note_on_c, 1, 40, 53
3, 258408, Note_on_c, 1, 40, 0
3, 258632, Note_on_c, 1, 39, 0
3, 258648, Note_on_c, 1, 32, 83
3, 259216, Note_on_c, 1, 32, 0
3, 259584, Note_on_c, 1, 37, 83
3, 259768, Note_on_c, 1, 42, 20
3, 259800, Note_on_c, 1, 42, 0
3, 260176, Note_on_c, 1, 43, 90
3, 260536, Note_on_c, 1, 43, 0
3, 260560, Note_on_c, 1, 35, 43
3, 260608, Note_on_c, 1, 37, 0
3, 260704, Note_on_c, 1, 35, 0
3, 260744, Note_on_c, 1, 36, 70
3, 260872, Note_on_c, 1, 36, 0
3, 261128, Note_on_c, 1, 33, 57
3, 261216, Note_on_c, 1, 33, 0
3, 261520, Note_on_c, 1, 38, 64
3, 261864, Note_on_c, 1, 38, 0
3, 261872, Note_on_c, 1, 31, 53
3, 262088, Note_on_c, 1, 36, 85
3, 262112, Note_on_c, 1, 31, 0
3, 262272, Note_on_c, 1, 36, 0
3, 263616, Note_on_c, 1, 35, 50
3, 263712, Note_on_c, 1, 35, 0
3, 263832, Note_on_c, 1, 36, 71
3, 264192, Note_on_c, 1, 36, 0
3, 264208, Note_on_c, 1, 33, 58
3, 264488, Note_on_c, 1, 33, 0
3, 264584, Note_on_c, 1, 38, 48
3, 264856, Note_on_c, 1, 38, 0
3, 264944, Note_on_c, 1, 43, 47
3, 265128, Note_on_c, 1, 43, 0
3, 265168, Note_on_c, 1, 48, 79
3, 265288, Note_on_c, 1, 48, 0
3, 266680, Note_on_c, 1, 41, 54
3, 266720, Note_on_c, 1, 41, 0
3, 266896, Note_on_c, 1, 46, 69
3, 267480, Note_on_c, 1, 39, 69
3, 267504, Note_on_c, 1, 46, 0
3, 268016, Note_on_c, 1, 39, 0
3, 268016, Note_on_c, 1, 44, 78
3, 268280, Note_on_c, 1, 44, 0
3, 268800, Note_on_c, 1, 37, 87
3, 269384, Note_on_c, 1, 43, 68
3, 269456, Note_on_c, 1, 43, 0
3, 269568, Note_on_c, 1, 35, 40
3, 269912, Note_on_c, 1, 37, 0
3, 269928, Note_on_c, 1, 35, 0
3, 269968, Note_on_c, 1, 36, 59
3, 270152, Note_on_c, 1, 36, 0
3, 270336, Note_on_c, 1, 33, 60
3, 270560, Note_on_c, 1, 33, 0
3, 270720, Note_on_c, 1, 38, 70
3, 270800, Note_on_c, 1, 38, 0
3, 271104, Note_on_c, 1, 43, 55
3, 271288, Note_on_c, 1, 43, 0
3, 271312, Note_on_c, 1, 48, 72
3, 271552, Note_on_c, 1, 48, 0
3, 271552, End_track
4, 0, Start_track
4, 0, Program_c, 9, 0
4, 0, Control_c, 9, 7, 102
4, 568, Note_on_c, 9, 36, 38
4, 664, Note_on_c, 9, 36, 0
4, 760, Note_on_c, 9, 56, 63
4, 760, Note_on_c, 9, 36, 42
4, 952, Note_on_c, 9, 36, 0
4, 952, Note_on_c, 9, 56, 0
4, 1144, Note_on_c, 9, 37, 102
4, 1240, Note_on_c, 9, 37, 0
4, 1528, Note_on_c, 9, 56, 69
4, 1528, Note_on_c, 9, 36, 47
4, 1624, Note_on_c, 9, 36, 0
4, 1720, Note_on_c, 9, 56, 0
4, 1720, Note_on_c, 9, 56, 82
4, 1912, Note_on_c, 9, 56, 0
4, 2104, Note_on_c, 9, 36, 44
4, 2200, Note_on_c, 9, 36, 0
4, 2296, Note_on_c, 9, 56, 98
4, 2296, Note_on_c, 9, 36, 46
4, 2488, Note_on_c, 9, 36, 0
4, 2488, Note_on_c, 9, 56, 0
4, 3056, Note_on_c, 9, 56, 57
4, 3056, Note_on_c, 9, 36, 62
4, 3248, Note_on_c, 9, 36, 0
4, 3248, Note_on_c, 9, 56, 0
4, 3632, Note_on_c, 9, 36, 50
4, 3728, Note_on_c, 9, 36, 0
4, 3824, Note_on_c, 9, 56, 63
4, 3824, Note_on_c, 9, 36, 45
4, 4016, Note_on_c, 9, 36, 0
4, 4016, Note_on_c, 9, 56, 0
4, 4208, Note_on_c, 9, 37, 102
4, 4304, Note_on_c, 9, 37, 0
4, 4592, Note_on_c, 9, 56, 69
4, 4592, Note_on_c, 9, 36, 55
4, 4784, Note_on_c, 9, 36, 0
4, 4784, Note_on_c, 9, 56, 0
4, 4784, Note_on_c, 9, 56, 82
4, 4976, Note_on_c, 9, 56, 0
4, 5168, Note_on_c, 9, 36, 45
4, 5264, Note_on_c, 9, 36, 0
4, 5360, Note_on_c, 9, 56, 98
4, 5360, Note_on_c, 9, 36, 55
4, 5552, Note_on_c, 9, 56, 0
4, 5648, Note_on_c, 9, 36, 0
4, 6128, Note_on_c, 9, 56, 57
4, 6128, Note_on_c, 9, 36, 48
4, 6320, Note_on_c, 9, 36, 0
4, 6320, Note_on_c, 9, 56, 0
4, 6704, Note_on_c, 9, 36, 38
4, 6800, Note_on_c, 9, 36, 0
4, 6896, Note_on_c, 9, 56, 63
4, 6896, Note_on_c, 9, 36, 42
4, 7088, Note_on_c, 9, 36, 0
4, 7088, Note_on_c, 9, 56, 0
4, 7280, Note_on_c, 9, 37, 102
4, 7376, Note_on_c, 9, 37, 0
4, 7664, Note_on_c, 9, 56, 69
4, 7664, Note_on_c, 9, 36, 47
4, 7760, Note_on_c, 9, 36, 0
4, 7856, Note_on_c, 9, 56, 0
4, 7856, Note_on_c, 9, 56, 82
4, 8048, Note_on_c, 9, 56, 0
4, 8232, Note_on_c, 9, 36, 44
4, 8336, Note_on_c, 9, 36, 0
4, 8432, Note_on_c, 9, 56, 98
4, 8432, Note_on_c, 9, 36, 46
4, 8616, Note_on_c, 9, 36, 0
4, 8616, Note_on_c, 9, 56, 0
4, 9192, Note_on_c, 9, 56, 57
4, 9192, Note_on_c, 9, 36, 62
4, 9384, Note_on_c, 9, 36, 0
4, 9384, Note_on_c, 9, 56, 0
4, 9768, Note_on_c, 9, 36, 50
4, 9864, Note_on_c, 9, 36, 0
4, 9960, Note_on_c, 9, 56, 63
4, 9960, Note_on_c, 9, 36, 45
4, 10152, Note_on_c, 9, 36, 0
4, 10152, Note_on_c, 9, 56, 0
4, 10344, Note_on_c, 9, 37, 102
4, 10440, Note_on_c, 9, 37, 0
4, 10728, Note_on_c, 9, 56, 69
4, 10728, Note_on_c, 9, 36, 55
4, 10920, Note_on_c, 9, 36, 0
4, 10920, Note_on_c, 9, 56, 0
4, 10920, Note_on_c, 9, 56, 82
4, 11112, Note_on_c, 9, 56, 0
4, 11304, Note_on_c, 9, 36, 45
4, 11400, Note_on_c, 9, 36, 0
4, 11496, Note_on_c, 9, 56, 98
4, 11496, Note_on_c, 9, 36, 55
4, 11688, Note_on_c, 9, 56, 0
4, 11784, Note_on_c, 9, 36, 0
4, 12264, Note_on_c, 9, 56, 57
4, 12264, Note_on_c, 9, 36, 48
4, 12456, Note_on_c, 9, 36, 0
4, 12456, Note_on_c, 9, 56, 0
4, 12840, Note_on_c, 9, 36, 38
4, 12936, Note_on_c, 9, 36, 0
4, 13032, Note_on_c, 9, 56, 63
4, 13032, Note_on_c, 9, 36, 42
4, 13224, Note_on_c, 9, 36, 0
4, 13224, Note_on_c, 9, 56, 0
4, 13416, Note_on_c, 9, 37, 102
4, 13512, Note_on_c, 9, 37, 0
4, 13800, Note_on_c, 9, 56, 69
4, 13800, Note_on_c, 9, 36, 47
4, 13896, Note_on_c, 9, 36, 0
4, 13984, Note_on_c, 9, 56, 0
4, 13984, Note_on_c, 9, 56, 82
4, 14176, Note_on_c, 9, 56, 0
4, 14368, Note_on_c, 9, 36, 44
4, 14464, Note_on_c, 9, 36, 0
4, 14560, Note_on_c, 9, 56, 98
4, 14560, Note_on_c, 9, 36, 46
4, 14752, Note_on_c, 9, 36, 0
4, 14752, Note_on_c, 9, 56, 0
4, 15328, Note_on_c, 9, 56, 57
4, 15328, Note_on_c, 9, 36, 62
4, 15520, Note_on_c, 9, 36, 0
4, 15520, Note_on_c, 9, 56, 0
4, 15904, Note_on_c, 9, 36, 50
4, 16000, Note_on_c, 9, 36, 0
4, 16096, Note_on_c, 9, 56, 63
4, 16096, Note_on_c, 9, 36, 45
4, 16288, Note_on_c, 9, 36, 0
4, 16288, Note_on_c, 9, 56, 0
4, 16480, Note_on_c, 9, 37, 102
4, 16576, Note_on_c, 9, 37, 0
4, 16864, Note_on_c, 9, 56, 69
4, 16864, Note_on_c, 9, 36, 55
4, 17056, Note_on_c, 9, 36, 0
4, 17056, Note_on_c, 9, 56, 0
4, 17056, Note_on_c, 9, 56, 82
4, 17248, Note_on_c, 9, 56, 0
4, 17440, Note_on_c, 9, 36, 45
4, 17536, Note_on_c, 9, 36, 0
4, 17632, Note_on_c, 9, 56, 98
4, 17632, Note_on_c, 9, 36, 55
4, 17824, Note_on_c, 9, 56, 0
4, 17920, Note_on_c, 9, 36, 0
4, 18400, Note_on_c, 9, 56, 57
4, 18400, Note_on_c, 9, 36, 48
4, 18592, Note_on_c, 9, 36, 0
4, 18592, Note_on_c, 9, 56, 0
4, 18968, Note_on_c, 9, 36, 38
4, 19072, Note_on_c, 9, 36, 0
4, 19168, Note_on_c, 9, 56, 63
4, 19168, Note_on_c, 9, 36, 42
4, 19352, Note_on_c, 9, 36, 0
4, 19352, Note_on_c, 9, 56, 0
4, 19552, Note_on_c, 9, 37, 102
4, 19640, Note_on_c, 9, 37, 0
4, 19928, Note_on_c, 9, 56, 69
4, 19928, Note_on_c, 9, 36, 47
4, 20024, Note_on_c, 9, 36, 0
4, 20120, Note_on_c, 9, 56, 0
4, 20120, Note_on_c, 9, 56, 82
4, 20312, Note_on_c, 9, 56, 0
4, 20504, Note_on_c, 9, 36, 44
4, 20600, Note_on_c, 9, 36, 0
4, 20696, Note_on_c, 9, 56, 98
4, 20696, Note_on_c, 9, 36, 46
4, 20888, Note_on_c, 9, 36, 0
4, 20888, Note_on_c, 9, 56, 0
4, 21464, Note_on_c, 9, 56, 57
4, 21464, Note_on_c, 9, 36, 62
4, 21656, Note_on_c, 9, 36, 0
4, 21656, Note_on_c, 9, 56, 0
4, 22040, Note_on_c, 9, 36, 50
4, 22136, Note_on_c, 9, 36, 0
4, 22232, Note_on_c, 9, 56, 63
4, 22232, Note_on_c, 9, 36, 45
4, 22424, Note_on_c, 9, 36, 0
4, 22424, Note_on_c, 9, 56, 0
4, 22616, Note_on_c, 9, 37, 102
4, 22712, Note_on_c, 9, 37, 0
4, 23000, Note_on_c, 9, 56, 69
4, 23000, Note_on_c, 9, 36, 55
4, 23192, Note_on_c, 9, 36, 0
4, 23192, Note_on_c, 9, 56, 0
4, 23192, Note_on_c, 9, 56, 82
4, 23384, Note_on_c, 9, 56, 0
4, 23576, Note_on_c, 9, 36, 45
4, 23672, Note_on_c, 9, 36, 0
4, 23768, Note_on_c, 9, 56, 98
4, 23768, Note_on_c, 9, 36, 55
4, 23960, Note_on_c, 9, 56, 0
4, 24056, Note_on_c, 9, 36, 0
4, 24536, Note_on_c, 9, 56, 57
4, 24536, Note_on_c, 9, 36, 48
4, 24632, Note_on_c, 9, 37, 44
4, 24728, Note_on_c, 9, 37, 0
4, 24728, Note_on_c, 9, 36, 0
4, 24728, Note_on_c, 9, 56, 0
4, 24728, Note_on_c, 9, 37, 27
4, 24920, Note_on_c, 9, 37, 0
4, 24920, Note_on_c, 9, 76, 49
4, 25016, Note_on_c, 9, 76, 0
4, 25112, Note_on_c, 9, 37, 63
4, 25112, Note_on_c, 9, 36, 38
4, 25208, Note_on_c, 9, 36, 0
4, 25208, Note_on_c, 9, 37, 0
4, 25304, Note_on_c, 9, 76, 76
4, 25304, Note_on_c, 9, 56, 63
4, 25304, Note_on_c, 9, 36, 42
4, 25496, Note_on_c, 9, 36, 0
4, 25496, Note_on_c, 9, 56, 0
4, 25496, Note_on_c, 9, 76, 0
4, 25496, Note_on_c, 9, 37, 46
4, 25592, Note_on_c, 9, 37, 0
4, 25688, Note_on_c, 9, 37, 102
4, 25688, Note_on_c, 9, 37, 55
4, 25784, Note_on_c, 9, 37, 0
4, 25880, Note_on_c, 9, 37, 0
4, 26072, Note_on_c, 9, 76, 65
4, 26072, Note_on_c, 9, 37, 60
4, 26072, Note_on_c, 9, 56, 69
4, 26072, Note_on_c, 9, 36, 47
4, 26168, Note_on_c, 9, 36, 0
4, 26168, Note_on_c, 9, 37, 0
4, 26264, Note_on_c, 9, 56, 0
4, 26264, Note_on_c, 9, 56, 82
4, 26264, Note_on_c, 9, 37, 58
4, 26360, Note_on_c, 9, 37, 0
4, 26360, Note_on_c, 9, 76, 0
4, 26456, Note_on_c, 9, 56, 0
4, 26648, Note_on_c, 9, 37, 74
4, 26648, Note_on_c, 9, 76, 76
4, 26648, Note_on_c, 9, 36, 44
4, 26744, Note_on_c, 9, 36, 0
4, 26744, Note_on_c, 9, 37, 0
4, 26840, Note_on_c, 9, 56, 98
4, 26840, Note_on_c, 9, 36, 46
4, 26936, Note_on_c, 9, 76, 0
4, 27032, Note_on_c, 9, 36, 0
4, 27032, Note_on_c, 9, 56, 0
4, 27032, Note_on_c, 9, 37, 51
4, 27128, Note_on_c, 9, 37, 0
4, 27216, Note_on_c, 9, 76, 60
4, 27216, Note_on_c, 9, 37, 44
4, 27320, Note_on_c, 9, 37, 0
4, 27416, Note_on_c, 9, 76, 0
4, 27600, Note_on_c, 9, 37, 67
4, 27600, Note_on_c, 9, 56, 57
4, 27600, Note_on_c, 9, 36, 62
4, 27704, Note_on_c, 9, 37, 0
4, 27792, Note_on_c, 9, 36, 0
4, 27792, Note_on_c, 9, 56, 0
4, 27792, Note_on_c, 9, 37, 43
4, 27992, Note_on_c, 9, 37, 0
4, 27992, Note_on_c, 9, 76, 49
4, 28088, Note_on_c, 9, 76, 0
4, 28176, Note_on_c, 9, 37, 76
4, 28176, Note_on_c, 9, 36, 50
4, 28272, Note_on_c, 9, 36, 0
4, 28272, Note_on_c, 9, 37, 0
4, 28368, Note_on_c, 9, 76, 76
4, 28368, Note_on_c, 9, 56, 63
4, 28368, Note_on_c, 9, 36, 45
4, 28560, Note_on_c, 9, 36, 0
4, 28560, Note_on_c, 9, 56, 0
4, 28560, Note_on_c, 9, 76, 0
4, 28560, Note_on_c, 9, 37, 54
4, 28656, Note_on_c, 9, 37, 0
4, 28752, Note_on_c, 9, 37, 56
4, 28752, Note_on_c, 9, 37, 102
4, 28848, Note_on_c, 9, 37, 0
4, 28944, Note_on_c, 9, 37, 0
4, 29136, Note_on_c, 9, 56, 69
4, 29136, Note_on_c, 9, 37, 61
4, 29136, Note_on_c, 9, 76, 65
4, 29136, Note_on_c, 9, 36, 55
4, 29232, Note_on_c, 9, 37, 0
4, 29328, Note_on_c, 9, 56, 0
4, 29328, Note_on_c, 9, 36, 0
4, 29328, Note_on_c, 9, 56, 82
4, 29328, Note_on_c, 9, 37, 54
4, 29424, Note_on_c, 9, 76, 0
4, 29520, Note_on_c, 9, 37, 0
4, 29520, Note_on_c, 9, 56, 0
4, 29712, Note_on_c, 9, 37, 78
4, 29712, Note_on_c, 9, 76, 76
4, 29712, Note_on_c, 9, 36, 45
4, 29808, Note_on_c, 9, 36, 0
4, 29904, Note_on_c, 9, 37, 0
4, 29904, Note_on_c, 9, 56, 98
4, 29904, Note_on_c, 9, 36, 55
4, 30000, Note_on_c, 9, 76, 0
4, 30096, Note_on_c, 9, 56, 0
4, 30096, Note_on_c, 9, 37, 51
4, 30192, Note_on_c, 9, 37, 0
4, 30192, Note_on_c, 9, 36, 0
4, 30288, Note_on_c, 9, 76, 60
4, 30288, Note_on_c, 9, 37, 34
4, 30384, Note_on_c, 9, 37, 0
4, 30480, Note_on_c, 9, 76, 0
4, 30480, Note_on_c, 9, 37, 28
4, 30576, Note_on_c, 9, 37, 0
4, 30672, Note_on_c, 9, 56, 57
4, 30672, Note_on_c, 9, 36, 48
4, 30768, Note_on_c, 9, 37, 44
4, 30864, Note_on_c, 9, 37, 0
4, 30864, Note_on_c, 9, 36, 0
4, 30864, Note_on_c, 9, 56, 0
4, 30864, Note_on_c, 9, 37, 27
4, 31056, Note_on_c, 9, 37, 0
4, 31056, Note_on_c, 9, 76, 49
4, 31152, Note_on_c, 9, 76, 0
4, 31248, Note_on_c, 9, 37, 63
4, 31248, Note_on_c, 9, 36, 38
4, 31344, Note_on_c, 9, 36, 0
4, 31344, Note_on_c, 9, 37, 0
4, 31440, Note_on_c, 9, 76, 76
4, 31440, Note_on_c, 9, 56, 63
4, 31440, Note_on_c, 9, 36, 42
4, 31632, Note_on_c, 9, 36, 0
4, 31632, Note_on_c, 9, 56, 0
4, 31632, Note_on_c, 9, 76, 0
4, 31632, Note_on_c, 9, 37, 46
4, 31728, Note_on_c, 9, 37, 0
4, 31824, Note_on_c, 9, 37, 102
4, 31824, Note_on_c, 9, 37, 55
4, 31920, Note_on_c, 9, 37, 0
4, 32016, Note_on_c, 9, 37, 0
4, 32208, Note_on_c, 9, 37, 60
4, 32208, Note_on_c, 9, 76, 65
4, 32208, Note_on_c, 9, 56, 69
4, 32208, Note_on_c, 9, 36, 47
4, 32304, Note_on_c, 9, 36, 0
4, 32304, Note_on_c, 9, 37, 0
4, 32400, Note_on_c, 9, 56, 0
4, 32400, Note_on_c, 9, 56, 82
4, 32400, Note_on_c, 9, 37, 58
4, 32496, Note_on_c, 9, 37, 0
4, 32496, Note_on_c, 9, 76, 0
4, 32592, Note_on_c, 9, 56, 0
4, 32784, Note_on_c, 9, 37, 74
4, 32784, Note_on_c, 9, 76, 76
4, 32784, Note_on_c, 9, 36, 44
4, 32880, Note_on_c, 9, 36, 0
4, 32880, Note_on_c, 9, 37, 0
4, 32976, Note_on_c, 9, 56, 98
4, 32976, Note_on_c, 9, 36, 46
4, 33072, Note_on_c, 9, 76, 0
4, 33160, Note_on_c, 9, 36, 0
4, 33160, Note_on_c, 9, 56, 0
4, 33160, Note_on_c, 9, 37, 51
4, 33264, Note_on_c, 9, 37, 0
4, 33352, Note_on_c, 9, 37, 44
4, 33352, Note_on_c, 9, 76, 60
4, 33456, Note_on_c, 9, 37, 0
4, 33544, Note_on_c, 9, 76, 0
4, 33736, Note_on_c, 9, 37, 67
4, 33736, Note_on_c, 9, 56, 57
4, 33736, Note_on_c, 9, 36, 62
4, 33832, Note_on_c, 9, 37, 0
4, 33928, Note_on_c, 9, 36, 0
4, 33928, Note_on_c, 9, 56, 0
4, 33928, Note_on_c, 9, 37, 43
4, 34120, Note_on_c, 9, 37, 0
4, 34120, Note_on_c, 9, 76, 49
4, 34216, Note_on_c, 9, 76, 0
4, 34312, Note_on_c, 9, 37, 76
4, 34312, Note_on_c, 9, 36, 50
4, 34408, Note_on_c, 9, 36, 0
4, 34408, Note_on_c, 9, 37, 0
4, 34504, Note_on_c, 9, 56, 63
4, 34504, Note_on_c, 9, 76, 76
4, 34504, Note_on_c, 9, 36, 45
4, 34696, Note_on_c, 9, 36, 0
4, 34696, Note_on_c, 9, 76, 0
4, 34696, Note_on_c, 9, 56, 0
4, 34696, Note_on_c, 9, 37, 54
4, 34792, Note_on_c, 9, 37, 0
4, 34888, Note_on_c, 9, 37, 102
4, 34888, Note_on_c, 9, 37, 56
4, 34984, Note_on_c, 9, 37, 0
4, 35080, Note_on_c, 9, 37, 0
4, 35272, Note_on_c, 9, 56, 69
4, 35272, Note_on_c, 9, 76, 65
4, 35272, Note_on_c, 9, 37, 61
4, 35272, Note_on_c, 9, 36, 55
4, 35368, Note_on_c, 9, 37, 0
4, 35464, Note_on_c, 9, 36, 0
4, 35464, Note_on_c, 9, 56, 0
4, 35464, Note_on_c, 9, 37, 54
4, 35464, Note_on_c, 9, 56, 82
4, 35560, Note_on_c, 9, 76, 0
4, 35656, Note_on_c, 9, 56, 0
4, 35656, Note_on_c, 9, 37, 0
4, 35848, Note_on_c, 9, 76, 76
4, 35848, Note_on_c, 9, 37, 78
4, 35848, Note_on_c, 9, 36, 45
4, 35944, Note_on_c, 9, 36, 0
4, 36040, Note_on_c, 9, 37, 0
4, 36040, Note_on_c, 9, 56, 98
4, 36040, Note_on_c, 9, 36, 55
4, 36136, Note_on_c, 9, 76, 0
4, 36232, Note_on_c, 9, 56, 0
4, 36232, Note_on_c, 9, 37, 51
4, 36328, Note_on_c, 9, 37, 0
4, 36328, Note_on_c, 9, 36, 0
4, 36424, Note_on_c, 9, 37, 34
4, 36424, Note_on_c, 9, 76, 60
4, 36520, Note_on_c, 9, 37, 0
4, 36616, Note_on_c, 9, 76, 0
4, 36616, Note_on_c, 9, 37, 28
4, 36712, Note_on_c, 9, 37, 0
4, 36808, Note_on_c, 9, 56, 57
4, 36808, Note_on_c, 9, 36, 48
4, 36904, Note_on_c, 9, 37, 44
4, 37000, Note_on_c, 9, 37, 0
4, 37000, Note_on_c, 9, 36, 0
4, 37000, Note_on_c, 9, 56, 0
4, 37000, Note_on_c, 9, 37, 27
4, 37192, Note_on_c, 9, 37, 0
4, 37192, Note_on_c, 9, 76, 49
4, 37288, Note_on_c, 9, 76, 0
4, 37384, Note_on_c, 9, 37, 63
4, 37384, Note_on_c, 9, 36, 38
4, 37480, Note_on_c, 9, 36, 0
4, 37480, Note_on_c, 9, 37, 0
4, 37576, Note_on_c, 9, 56, 63
4, 37576, Note_on_c, 9, 76, 76
4, 37576, Note_on_c, 9, 36, 42
4, 37768, Note_on_c, 9, 36, 0
4, 37768, Note_on_c, 9, 76, 0
4, 37768, Note_on_c, 9, 56, 0
4, 37768, Note_on_c, 9, 37, 46
4, 37864, Note_on_c, 9, 37, 0
4, 37960, Note_on_c, 9, 37, 55
4, 37960, Note_on_c, 9, 37, 102
4, 38056, Note_on_c, 9, 37, 0
4, 38152, Note_on_c, 9, 37, 0
4, 38344, Note_on_c, 9, 56, 69
4, 38344, Note_on_c, 9, 76, 65
4, 38344, Note_on_c, 9, 37, 60
4, 38344, Note_on_c, 9, 36, 47
4, 38440, Note_on_c, 9, 36, 0
4, 38440, Note_on_c, 9, 37, 0
4, 38528, Note_on_c, 9, 56, 0
4, 38528, Note_on_c, 9, 56, 82
4, 38528, Note_on_c, 9, 37, 58
4, 38624, Note_on_c, 9, 37, 0
4, 38624, Note_on_c, 9, 76, 0
4, 38720, Note_on_c, 9, 56, 0
4, 38920, Note_on_c, 9, 37, 74
4, 38920, Note_on_c, 9, 76, 76
4, 38920, Note_on_c, 9, 36, 44
4, 39008, Note_on_c, 9, 36, 0
4, 39008, Note_on_c, 9, 37, 0
4, 39104, Note_on_c, 9, 56, 98
4, 39104, Note_on_c, 9, 36, 46
4, 39200, Note_on_c, 9, 76, 0
4, 39296, Note_on_c, 9, 36, 0
4, 39296, Note_on_c, 9, 56, 0
4, 39296, Note_on_c, 9, 37, 51
4, 39392, Note_on_c, 9, 37, 0
4, 39488, Note_on_c, 9, 76, 60
4, 39488, Note_on_c, 9, 37, 44
4, 39584, Note_on_c, 9, 37, 0
4, 39680, Note_on_c, 9, 76, 0
4, 39872, Note_on_c, 9, 37, 67
4, 39872, Note_on_c, 9, 56, 57
4, 39872, Note_on_c, 9, 36, 62
4, 39968, Note_on_c, 9, 37, 0
4, 40064, Note_on_c, 9, 36, 0
4, 40064, Note_on_c, 9, 56, 0
4, 40064, Note_on_c, 9, 37, 43
4, 40256, Note_on_c, 9, 37, 0
4, 40256, Note_on_c, 9, 76, 49
4, 40352, Note_on_c, 9, 76, 0
4, 40448, Note_on_c, 9, 37, 76
4, 40448, Note_on_c, 9, 36, 50
4, 40544, Note_on_c, 9, 36, 0
4, 40544, Note_on_c, 9, 37, 0
4, 40640, Note_on_c, 9, 76, 76
4, 40640, Note_on_c, 9, 56, 63
4, 40640, Note_on_c, 9, 36, 45
4, 40832, Note_on_c, 9, 36, 0
4, 40832, Note_on_c, 9, 56, 0
4, 40832, Note_on_c, 9, 76, 0
4, 40832, Note_on_c, 9, 37, 54
4, 40928, Note_on_c, 9, 37, 0
4, 41024, Note_on_c, 9, 37, 102
4, 41024, Note_on_c, 9, 37, 56
4, 41120, Note_on_c, 9, 37, 0
4, 41216, Note_on_c, 9, 37, 0
4, 41408, Note_on_c, 9, 76, 65
4, 41408, Note_on_c, 9, 56, 69
4, 41408, Note_on_c, 9, 37, 61
4, 41408, Note_on_c, 9, 36, 55
4, 41504, Note_on_c, 9, 37, 0
4, 41600, Note_on_c, 9, 36, 0
4, 41600, Note_on_c, 9, 56, 0
4, 41600, Note_on_c, 9, 56, 82
4, 41600, Note_on_c, 9, 37, 54
4, 41696, Note_on_c, 9, 76, 0
4, 41792, Note_on_c, 9, 37, 0
4, 41792, Note_on_c, 9, 56, 0
4, 41984, Note_on_c, 9, 37, 78
4, 41984, Note_on_c, 9, 76, 76
4, 41984, Note_on_c, 9, 36, 45
4, 42080, Note_on_c, 9, 36, 0
4, 42176, Note_on_c, 9, 37, 0
4, 42176, Note_on_c, 9, 56, 98
4, 42176, Note_on_c, 9, 36, 55
4, 42272, Note_on_c, 9, 76, 0
4, 42368, Note_on_c, 9, 56, 0
4, 42368, Note_on_c, 9, 37, 51
4, 42464, Note_on_c, 9, 37, 0
4, 42464, Note_on_c, 9, 36, 0
4, 42560, Note_on_c, 9, 37, 34
4, 42560, Note_on_c, 9, 76, 60
4, 42656, Note_on_c, 9, 37, 0
4, 42752, Note_on_c, 9, 76, 0
4, 42752, Note_on_c, 9, 37, 28
4, 42848, Note_on_c, 9, 37, 0
4, 42944, Note_on_c, 9, 56, 57
4, 42944, Note_on_c, 9, 36, 48
4, 43040, Note_on_c, 9, 37, 44
4, 43136, Note_on_c, 9, 37, 0
4, 43136, Note_on_c, 9, 36, 0
4, 43136, Note_on_c, 9, 56, 0
4, 43136, Note_on_c, 9, 37, 27
4, 43328, Note_on_c, 9, 37, 0
4, 43328, Note_on_c, 9, 76, 49
4, 43424, Note_on_c, 9, 76, 0
4, 43520, Note_on_c, 9, 37, 63
4, 43520, Note_on_c, 9, 36, 38
4, 43616, Note_on_c, 9, 36, 0
4, 43616, Note_on_c, 9, 37, 0
4, 43712, Note_on_c, 9, 56, 63
4, 43712, Note_on_c, 9, 76, 76
4, 43712, Note_on_c, 9, 36, 42
4, 43904, Note_on_c, 9, 36, 0
4, 43904, Note_on_c, 9, 76, 0
4, 43904, Note_on_c, 9, 56, 0
4, 43904, Note_on_c, 9, 37, 46
4, 43992, Note_on_c, 9, 37, 0
4, 44096, Note_on_c, 9, 37, 55
4, 44096, Note_on_c, 9, 37, 102
4, 44184, Note_on_c, 9, 37, 0
4, 44280, Note_on_c, 9, 37, 0
4, 44480, Note_on_c, 9, 76, 65
4, 44480, Note_on_c, 9, 37, 60
4, 44480, Note_on_c, 9, 56, 69
4, 44480, Note_on_c, 9, 36, 47
4, 44568, Note_on_c, 9, 36, 0
4, 44568, Note_on_c, 9, 37, 0
4, 44664, Note_on_c, 9, 56, 0
4, 44664, Note_on_c, 9, 37, 58
4, 44664, Note_on_c, 9, 56, 82
4, 44760, Note_on_c, 9, 37, 0
4, 44760, Note_on_c, 9, 76, 0
4, 44856, Note_on_c, 9, 56, 0
4, 45048, Note_on_c, 9, 37, 74
4, 45048, Note_on_c, 9, 76, 76
4, 45048, Note_on_c, 9, 36, 44
4, 45144, Note_on_c, 9, 36, 0
4, 45144, Note_on_c, 9, 37, 0
4, 45240, Note_on_c, 9, 56, 98
4, 45240, Note_on_c, 9, 36, 46
4, 45336, Note_on_c, 9, 76, 0
4, 45432, Note_on_c, 9, 36, 0
4, 45432, Note_on_c, 9, 56, 0
4, 45432, Note_on_c, 9, 37, 51
4, 45528, Note_on_c, 9, 37, 0
4, 45624, Note_on_c, 9, 76, 60
4, 45624, Note_on_c, 9, 37, 44
4, 45720, Note_on_c, 9, 37, 0
4, 45816, Note_on_c, 9, 76, 0
4, 46008, Note_on_c, 9, 56, 57
4, 46008, Note_on_c, 9, 37, 67
4, 46008, Note_on_c, 9, 36, 62
4, 46104, Note_on_c, 9, 37, 0
4, 46200, Note_on_c, 9, 36, 0
4, 46200, Note_on_c, 9, 56, 0
4, 46200, Note_on_c, 9, 37, 43
4, 46392, Note_on_c, 9, 37, 0
4, 46392, Note_on_c, 9, 76, 49
4, 46488, Note_on_c, 9, 76, 0
4, 46584, Note_on_c, 9, 37, 76
4, 46584, Note_on_c, 9, 36, 50
4, 46680, Note_on_c, 9, 36, 0
4, 46680, Note_on_c, 9, 37, 0
4, 46776, Note_on_c, 9, 56, 63
4, 46776, Note_on_c, 9, 76, 76
4, 46776, Note_on_c, 9, 36, 45
4, 46968, Note_on_c, 9, 36, 0
4, 46968, Note_on_c, 9, 76, 0
4, 46968, Note_on_c, 9, 56, 0
4, 46968, Note_on_c, 9, 37, 54
4, 47064, Note_on_c, 9, 37, 0
4, 47160, Note_on_c, 9, 37, 102
4, 47160, Note_on_c, 9, 37, 56
4, 47256, Note_on_c, 9, 37, 0
4, 47352, Note_on_c, 9, 37, 0
4, 47544, Note_on_c, 9, 37, 61
4, 47544, Note_on_c, 9, 76, 65
4, 47544, Note_on_c, 9, 56, 69
4, 47544, Note_on_c, 9, 36, 55
4, 47640, Note_on_c, 9, 37, 0
4, 47736, Note_on_c, 9, 36, 0
4, 47736, Note_on_c, 9, 56, 0
4, 47736, Note_on_c, 9, 37, 54
4, 47736, Note_on_c, 9, 56, 82
4, 47832, Note_on_c, 9, 76, 0
4, 47928, Note_on_c, 9, 56, 0
4, 47928, Note_on_c, 9, 37, 0
4, 48120, Note_on_c, 9, 37, 78
4, 48120, Note_on_c, 9, 76, 76
4, 48120, Note_on_c, 9, 36, 45
4, 48216, Note_on_c, 9, 36, 0
4, 48312, Note_on_c, 9, 37, 0
4, 48312, Note_on_c, 9, 56, 98
4, 48312, Note_on_c, 9, 36, 55
4, 48408, Note_on_c, 9, 76, 0
4, 48504, Note_on_c, 9, 56, 0
4, 48504, Note_on_c, 9, 37, 51
4, 48600, Note_on_c, 9, 37, 0
4, 48600, Note_on_c, 9, 36, 0
4, 48696, Note_on_c, 9, 37, 34
4, 48696, Note_on_c, 9, 76, 60
4, 48792, Note_on_c, 9, 37, 0
4, 48888, Note_on_c, 9, 76, 0
4, 48888, Note_on_c, 9, 37, 28
4, 48984, Note_on_c, 9, 37, 0
4, 49080, Note_on_c, 9, 56, 57
4, 49080, Note_on_c, 9, 36, 48
4, 49176, Note_on_c, 9, 37, 44
4, 49272, Note_on_c, 9, 37, 0
4, 49272, Note_on_c, 9, 36, 0
4, 49272, Note_on_c, 9, 56, 0
4, 49272, Note_on_c, 9, 37, 27
4, 49464, Note_on_c, 9, 37, 0
4, 49464, Note_on_c, 9, 76, 49
4, 49560, Note_on_c, 9, 76, 0
4, 49648, Note_on_c, 9, 37, 63
4, 49648, Note_on_c, 9, 36, 38
4, 49744, Note_on_c, 9, 36, 0
4, 49744, Note_on_c, 9, 37, 0
4, 49840, Note_on_c, 9, 56, 63
4, 49840, Note_on_c, 9, 76, 76
4, 49840, Note_on_c, 9, 36, 42
4, 50032, Note_on_c, 9, 36, 0
4, 50032, Note_on_c, 9, 76, 0
4, 50032, Note_on_c, 9, 56, 0
4, 50032, Note_on_c, 9, 37, 46
4, 50128, Note_on_c, 9, 37, 0
4, 50224, Note_on_c, 9, 37, 55
4, 50224, Note_on_c, 9, 37, 102
4, 50320, Note_on_c, 9, 37, 0
4, 50416, Note_on_c, 9, 37, 0
4, 50608, Note_on_c, 9, 56, 69
4, 50608, Note_on_c, 9, 37, 60
4, 50608, Note_on_c, 9, 76, 65
4, 50608, Note_on_c, 9, 36, 47
4, 50704, Note_on_c, 9, 36, 0
4, 50704, Note_on_c, 9, 37, 0
4, 50800, Note_on_c, 9, 56, 0
4, 50800, Note_on_c, 9, 56, 82
4, 50800, Note_on_c, 9, 37, 58
4, 50896, Note_on_c, 9, 37, 0
4, 50896, Note_on_c, 9, 76, 0
4, 50992, Note_on_c, 9, 56, 0
4, 51184, Note_on_c, 9, 37, 74
4, 51184, Note_on_c, 9, 76, 76
4, 51184, Note_on_c, 9, 36, 44
4, 51280, Note_on_c, 9, 36, 0
4, 51280, Note_on_c, 9, 37, 0
4, 51376, Note_on_c, 9, 56, 98
4, 51376, Note_on_c, 9, 36, 46
4, 51472, Note_on_c, 9, 76, 0
4, 51568, Note_on_c, 9, 36, 0
4, 51568, Note_on_c, 9, 56, 0
4, 51568, Note_on_c, 9, 37, 51
4, 51664, Note_on_c, 9, 37, 0
4, 51760, Note_on_c, 9, 37, 44
4, 51760, Note_on_c, 9, 76, 60
4, 51856, Note_on_c, 9, 37, 0
4, 51952, Note_on_c, 9, 76, 0
4, 52144, Note_on_c, 9, 37, 67
4, 52144, Note_on_c, 9, 56, 57
4, 52144, Note_on_c, 9, 36, 62
4, 52240, Note_on_c, 9, 37, 0
4, 52336, Note_on_c, 9, 36, 0
4, 52336, Note_on_c, 9, 56, 0
4, 52336, Note_on_c, 9, 37, 43
4, 52528, Note_on_c, 9, 37, 0
4, 52528, Note_on_c, 9, 76, 49
4, 52624, Note_on_c, 9, 76, 0
4, 52720, Note_on_c, 9, 37, 76
4, 52720, Note_on_c, 9, 36, 50
4, 52816, Note_on_c, 9, 36, 0
4, 52816, Note_on_c, 9, 37, 0
4, 52912, Note_on_c, 9, 56, 63
4, 52912, Note_on_c, 9, 76, 76
4, 52912, Note_on_c, 9, 36, 45
4, 53104, Note_on_c, 9, 36, 0
4, 53104, Note_on_c, 9, 76, 0
4, 53104, Note_on_c, 9, 56, 0
4, 53104, Note_on_c, 9, 37, 54
4, 53200, Note_on_c, 9, 37, 0
4, 53296, Note_on_c, 9, 37, 56
4, 53296, Note_on_c, 9, 37, 102
4, 53392, Note_on_c, 9, 37, 0
4, 53488, Note_on_c, 9, 37, 0
4, 53680, Note_on_c, 9, 56, 69
4, 53680, Note_on_c, 9, 76, 65
4, 53680, Note_on_c, 9, 37, 61
4, 53680, Note_on_c, 9, 36, 55
4, 53776, Note_on_c, 9, 37, 0
4, 53872, Note_on_c, 9, 36, 0
4, 53872, Note_on_c, 9, 56, 0
4, 53872, Note_on_c, 9, 56, 82
4, 53872, Note_on_c, 9, 37, 54
4, 53968, Note_on_c, 9, 76, 0
4, 54064, Note_on_c, 9, 37, 0
4, 54064, Note_on_c, 9, 56, 0
4, 54256, Note_on_c, 9, 37, 78
4, 54256, Note_on_c, 9, 76, 76
4, 54256, Note_on_c, 9, 36, 45
4, 54352, Note_on_c, 9, 36, 0
4, 54448, Note_on_c, 9, 37, 0
4, 54448, Note_on_c, 9, 56, 98
4, 54448, Note_on_c, 9, 36, 55
4, 54544, Note_on_c, 9, 76, 0
4, 54640, Note_on_c, 9, 56, 0
4, 54640, Note_on_c, 9, 37, 51
4, 54736, Note_on_c, 9, 37, 0
4, 54736, Note_on_c, 9, 36, 0
4, 54832, Note_on_c, 9, 37, 34
4, 54832, Note_on_c, 9, 76, 60
4, 54928, Note_on_c, 9, 37, 0
4, 55024, Note_on_c, 9, 76, 0
4, 55024, Note_on_c, 9, 37, 28
4, 55112, Note_on_c, 9, 37, 0
4, 55216, Note_on_c, 9, 56, 57
4, 55216, Note_on_c, 9, 36, 48
4, 55304, Note_on_c, 9, 37, 44
4, 55408, Note_on_c, 9, 37, 0
4, 55408, Note_on_c, 9, 36, 0
4, 55408, Note_on_c, 9, 56, 0
4, 55408, Note_on_c, 9, 37, 27
4, 55592, Note_on_c, 9, 37, 0
4, 55592, Note_on_c, 9, 76, 49
4, 55688, Note_on_c, 9, 76, 0
4, 55784, Note_on_c, 9, 37, 63
4, 55784, Note_on_c, 9, 36, 38
4, 55880, Note_on_c, 9, 36, 0
4, 55880, Note_on_c, 9, 37, 0
4, 55976, Note_on_c, 9, 76, 76
4, 55976, Note_on_c, 9, 56, 63
4, 55976, Note_on_c, 9, 36, 42
4, 56168, Note_on_c, 9, 36, 0
4, 56168, Note_on_c, 9, 56, 0
4, 56168, Note_on_c, 9, 76, 0
4, 56168, Note_on_c, 9, 37, 46
4, 56264, Note_on_c, 9, 37, 0
4, 56360, Note_on_c, 9, 37, 102
4, 56360, Note_on_c, 9, 37, 55
4, 56456, Note_on_c, 9, 37, 0
4, 56552, Note_on_c, 9, 37, 0
4, 56744, Note_on_c, 9, 37, 60
4, 56744, Note_on_c, 9, 56, 69
4, 56744, Note_on_c, 9, 76, 65
4, 56744, Note_on_c, 9, 36, 47
4, 56840, Note_on_c, 9, 36, 0
4, 56840, Note_on_c, 9, 37, 0
4, 56936, Note_on_c, 9, 56, 0
4, 56936, Note_on_c, 9, 56, 82
4, 56936, Note_on_c, 9, 37, 58
4, 57032, Note_on_c, 9, 37, 0
4, 57032, Note_on_c, 9, 76, 0
4, 57128, Note_on_c, 9, 56, 0
4, 57320, Note_on_c, 9, 76, 76
4, 57320, Note_on_c, 9, 37, 74
4, 57320, Note_on_c, 9, 36, 44
4, 57416, Note_on_c, 9, 36, 0
4, 57416, Note_on_c, 9, 37, 0
4, 57512, Note_on_c, 9, 56, 98
4, 57512, Note_on_c, 9, 36, 46
4, 57608, Note_on_c, 9, 76, 0
4, 57704, Note_on_c, 9, 36, 0
4, 57704, Note_on_c, 9, 56, 0
4, 57704, Note_on_c, 9, 37, 51
4, 57800, Note_on_c, 9, 37, 0
4, 57896, Note_on_c, 9, 76, 60
4, 57896, Note_on_c, 9, 37, 44
4, 57992, Note_on_c, 9, 37, 0
4, 58088, Note_on_c, 9, 76, 0
4, 58280, Note_on_c, 9, 37, 67
4, 58280, Note_on_c, 9, 56, 57
4, 58280, Note_on_c, 9, 36, 62
4, 58376, Note_on_c, 9, 37, 0
4, 58472, Note_on_c, 9, 36, 0
4, 58472, Note_on_c, 9, 56, 0
4, 58472, Note_on_c, 9, 37, 43
4, 58664, Note_on_c, 9, 37, 0
4, 58664, Note_on_c, 9, 76, 49
4, 58760, Note_on_c, 9, 76, 0
4, 58856, Note_on_c, 9, 37, 76
4, 58856, Note_on_c, 9, 36, 50
4, 58952, Note_on_c, 9, 36, 0
4, 58952, Note_on_c, 9, 37, 0
4, 59048, Note_on_c, 9, 76, 76
4, 59048, Note_on_c, 9, 56, 63
4, 59048, Note_on_c, 9, 36, 45
4, 59240, Note_on_c, 9, 36, 0
4, 59240, Note_on_c, 9, 56, 0
4, 59240, Note_on_c, 9, 76, 0
4, 59240, Note_on_c, 9, 37, 54
4, 59336, Note_on_c, 9, 37, 0
4, 59432, Note_on_c, 9, 37, 102
4, 59432, Note_on_c, 9, 37, 56
4, 59528, Note_on_c, 9, 37, 0
4, 59624, Note_on_c, 9, 37, 0
4, 59794, Note_on_c, 9, 74, 32
4, 59816, Note_on_c, 9, 37, 61
4, 59816, Note_on_c, 9, 56, 69
4, 59816, Note_on_c, 9, 76, 65
4, 59816, Note_on_c, 9, 36, 55
4, 59912, Note_on_c, 9, 37, 0
4, 60008, Note_on_c, 9, 36, 0
4, 60008, Note_on_c, 9, 56, 0
4, 60008, Note_on_c, 9, 56, 82
4, 60008, Note_on_c, 9, 37, 54
4, 60104, Note_on_c, 9, 76, 0
4, 60200, Note_on_c, 9, 37, 0
4, 60200, Note_on_c, 9, 56, 0
4, 60202, Note_on_c, 9, 74, 0
4, 60212, Note_on_c, 9, 73, 64
4, 60258, Note_on_c, 9, 73, 0
4, 60392, Note_on_c, 9, 37, 78
4, 60392, Note_on_c, 9, 76, 76
4, 60392, Note_on_c, 9, 36, 45
4, 60418, Note_on_c, 9, 73, 84
4, 60488, Note_on_c, 9, 36, 0
4, 60520, Note_on_c, 9, 73, 0
4, 60576, Note_on_c, 9, 37, 0
4, 60576, Note_on_c, 9, 56, 98
4, 60576, Note_on_c, 9, 36, 55
4, 60582, Note_on_c, 9, 74, 35
4, 60680, Note_on_c, 9, 76, 0
4, 60776, Note_on_c, 9, 56, 0
4, 60776, Note_on_c, 9, 37, 51
4, 60864, Note_on_c, 9, 37, 0
4, 60864, Note_on_c, 9, 36, 0
4, 60944, Note_on_c, 9, 73, 91
4, 60960, Note_on_c, 9, 74, 0
4, 60960, Note_on_c, 9, 37, 34
4, 60960, Note_on_c, 9, 76, 60
4, 61022, Note_on_c, 9, 73, 0
4, 61056, Note_on_c, 9, 37, 0
4, 61134, Note_on_c, 9, 73, 55
4, 61152, Note_on_c, 9, 76, 0
4, 61152, Note_on_c, 9, 37, 28
4, 61244, Note_on_c, 9, 73, 0
4, 61248, Note_on_c, 9, 37, 0
4, 61316, Note_on_c, 9, 74, 38
4, 61344, Note_on_c, 9, 56, 57
4, 61344, Note_on_c, 9, 36, 48
4, 61440, Note_on_c, 9, 37, 44
4, 61536, Note_on_c, 9, 37, 0
4, 61536, Note_on_c, 9, 36, 0
4, 61536, Note_on_c, 9, 56, 0
4, 61536, Note_on_c, 9, 37, 27
4, 61708, Note_on_c, 9, 74, 0
4, 61718, Note_on_c, 9, 73, 88
4, 61728, Note_on_c, 9, 37, 0
4, 61728, Note_on_c, 9, 76, 49
4, 61800, Note_on_c, 9, 73, 0
4, 61824, Note_on_c, 9, 76, 0
4, 61920, Note_on_c, 9, 37, 63
4, 61920, Note_on_c, 9, 36, 38
4, 61928, Note_on_c, 9, 73, 69
4, 62016, Note_on_c, 9, 36, 0
4, 62016, Note_on_c, 9, 37, 0
4, 62022, Note_on_c, 9, 73, 0
4, 62086, Note_on_c, 9, 74, 36
4, 62112, Note_on_c, 9, 56, 63
4, 62112, Note_on_c, 9, 76, 76
4, 62112, Note_on_c, 9, 36, 42
4, 62304, Note_on_c, 9, 36, 0
4, 62304, Note_on_c, 9, 76, 0
4, 62304, Note_on_c, 9, 56, 0
4, 62304, Note_on_c, 9, 37, 46
4, 62400, Note_on_c, 9, 37, 0
4, 62464, Note_on_c, 9, 74, 0
4, 62480, Note_on_c, 9, 73, 87
4, 62496, Note_on_c, 9, 37, 55
4, 62496, Note_on_c, 9, 37, 102
4, 62562, Note_on_c, 9, 73, 0
4, 62592, Note_on_c, 9, 37, 0
4, 62688, Note_on_c, 9, 37, 0
4, 62698, Note_on_c, 9, 74, 33
4, 62782, Note_on_c, 9, 74, 0
4, 62880, Note_on_c, 9, 37, 60
4, 62880, Note_on_c, 9, 56, 69
4, 62880, Note_on_c, 9, 76, 65
4, 62880, Note_on_c, 9, 36, 47
4, 62902, Note_on_c, 9, 74, 30
4, 62976, Note_on_c, 9, 36, 0
4, 62976, Note_on_c, 9, 37, 0
4, 63072, Note_on_c, 9, 56, 0
4, 63072, Note_on_c, 9, 56, 82
4, 63072, Note_on_c, 9, 37, 58
4, 63168, Note_on_c, 9, 37, 0
4, 63168, Note_on_c, 9, 76, 0
4, 63232, Note_on_c, 9, 74, 0
4, 63264, Note_on_c, 9, 56, 0
4, 63268, Note_on_c, 9, 73, 93
4, 63348, Note_on_c, 9, 73, 0
4, 63456, Note_on_c, 9, 76, 76
4, 63456, Note_on_c, 9, 37, 74
4, 63456, Note_on_c, 9, 36, 44
4, 63476, Note_on_c, 9, 74, 37
4, 63552, Note_on_c, 9, 36, 0
4, 63552, Note_on_c, 9, 37, 0
4, 63578, Note_on_c, 9, 74, 0
4, 63648, Note_on_c, 9, 56, 98
4, 63648, Note_on_c, 9, 36, 46
4, 63668, Note_on_c, 9, 74, 46
4, 63744, Note_on_c, 9, 76, 0
4, 63840, Note_on_c, 9, 56, 0
4, 63840, Note_on_c, 9, 36, 0
4, 63840, Note_on_c, 9, 37, 51
4, 63936, Note_on_c, 9, 37, 0
4, 63976, Note_on_c, 9, 74, 0
4, 64032, Note_on_c, 9, 76, 60
4, 64032, Note_on_c, 9, 37, 44
4, 64038, Note_on_c, 9, 73, 90
4, 64128, Note_on_c, 9, 37, 0
4, 64138, Note_on_c, 9, 73, 0
4, 64224, Note_on_c, 9, 76, 0
4, 64262, Note_on_c, 9, 74, 34
4, 64362, Note_on_c, 9, 74, 0
4, 64416, Note_on_c, 9, 56, 57
4, 64416, Note_on_c, 9, 37, 67
4, 64416, Note_on_c, 9, 36, 62
4, 64448, Note_on_c, 9, 74, 51
4, 64512, Note_on_c, 9, 37, 0
4, 64608, Note_on_c, 9, 56, 0
4, 64608, Note_on_c, 9, 36, 0
4, 64608, Note_on_c, 9, 37, 43
4, 64770, Note_on_c, 9, 74, 0
4, 64800, Note_on_c, 9, 37, 0
4, 64800, Note_on_c, 9, 76, 49
4, 64838, Note_on_c, 9, 73, 85
4, 64896, Note_on_c, 9, 76, 0
4, 64992, Note_on_c, 9, 37, 76
4, 64992, Note_on_c, 9, 36, 50
4, 65030, Note_on_c, 9, 73, 0
4, 65088, Note_on_c, 9, 36, 0
4, 65088, Note_on_c, 9, 37, 0
4, 65184, Note_on_c, 9, 76, 76
4, 65184, Note_on_c, 9, 56, 63
4, 65184, Note_on_c, 9, 36, 45
4, 65218, Note_on_c, 9, 74, 42
4, 65376, Note_on_c, 9, 36, 0
4, 65376, Note_on_c, 9, 76, 0
4, 65376, Note_on_c, 9, 56, 0
4, 65376, Note_on_c, 9, 37, 54
4, 65472, Note_on_c, 9, 37, 0
4, 65528, Note_on_c, 9, 74, 0
4, 65568, Note_on_c, 9, 37, 56
4, 65568, Note_on_c, 9, 37, 102
4, 65574, Note_on_c, 9, 73, 88
4, 65658, Note_on_c, 9, 73, 0
4, 65664, Note_on_c, 9, 37, 0
4, 65760, Note_on_c, 9, 37, 0
4, 65788, Note_on_c, 9, 73, 85
4, 65910, Note_on_c, 9, 73, 0
4, 65952, Note_on_c, 9, 76, 65
4, 65952, Note_on_c, 9, 56, 69
4, 65952, Note_on_c, 9, 37, 61
4, 65952, Note_on_c, 9, 36, 55
4, 65988, Note_on_c, 9, 74, 42
4, 66048, Note_on_c, 9, 37, 0
4, 66136, Note_on_c, 9, 36, 0
4, 66136, Note_on_c, 9, 56, 0
4, 66136, Note_on_c, 9, 37, 54
4, 66136, Note_on_c, 9, 56, 82
4, 66232, Note_on_c, 9, 76, 0
4, 66316, Note_on_c, 9, 74, 0
4, 66328, Note_on_c, 9, 37, 0
4, 66328, Note_on_c, 9, 56, 0
4, 66368, Note_on_c, 9, 73, 97
4, 66444, Note_on_c, 9, 73, 0
4, 66520, Note_on_c, 9, 76, 76
4, 66520, Note_on_c, 9, 37, 78
4, 66520, Note_on_c, 9, 36, 45
4, 66566, Note_on_c, 9, 73, 82
4, 66624, Note_on_c, 9, 36, 0
4, 66666, Note_on_c, 9, 73, 0
4, 66712, Note_on_c, 9, 37, 0
4, 66712, Note_on_c, 9, 56, 98
4, 66712, Note_on_c, 9, 36, 55
4, 66752, Note_on_c, 9, 74, 44
4, 66808, Note_on_c, 9, 76, 0
4, 66904, Note_on_c, 9, 56, 0
4, 66904, Note_on_c, 9, 37, 51
4, 67000, Note_on_c, 9, 37, 0
4, 67000, Note_on_c, 9, 36, 0
4, 67066, Note_on_c, 9, 74, 0
4, 67096, Note_on_c, 9, 37, 34
4, 67096, Note_on_c, 9, 76, 60
4, 67114, Note_on_c, 9, 73, 93
4, 67188, Note_on_c, 9, 73, 0
4, 67192, Note_on_c, 9, 37, 0
4, 67288, Note_on_c, 9, 76, 0
4, 67288, Note_on_c, 9, 37, 28
4, 67290, Note_on_c, 9, 73, 63
4, 67376, Note_on_c, 9, 73, 0
4, 67384, Note_on_c, 9, 37, 0
4, 67474, Note_on_c, 9, 74, 42
4, 67480, Note_on_c, 9, 56, 57
4, 67480, Note_on_c, 9, 36, 48
4, 67576, Note_on_c, 9, 37, 44
4, 67672, Note_on_c, 9, 37, 0
4, 67672, Note_on_c, 9, 36, 0
4, 67672, Note_on_c, 9, 56, 0
4, 67672, Note_on_c, 9, 37, 27
4, 67794, Note_on_c, 9, 74, 0
4, 67860, Note_on_c, 9, 73, 88
4, 67864, Note_on_c, 9, 37, 0
4, 67864, Note_on_c, 9, 76, 49
4, 67926, Note_on_c, 9, 73, 0
4, 67960, Note_on_c, 9, 76, 0
4, 68050, Note_on_c, 9, 73, 58
4, 68056, Note_on_c, 9, 37, 63
4, 68056, Note_on_c, 9, 36, 38
4, 68148, Note_on_c, 9, 73, 0
4, 68152, Note_on_c, 9, 36, 0
4, 68152, Note_on_c, 9, 37, 0
4, 68230, Note_on_c, 9, 74, 43
4, 68248, Note_on_c, 9, 56, 63
4, 68248, Note_on_c, 9, 76, 76
4, 68248, Note_on_c, 9, 36, 42
4, 68440, Note_on_c, 9, 36, 0
4, 68440, Note_on_c, 9, 76, 0
4, 68440, Note_on_c, 9, 56, 0
4, 68440, Note_on_c, 9, 37, 46
4, 68536, Note_on_c, 9, 37, 0
4, 68580, Note_on_c, 9, 74, 0
4, 68622, Note_on_c, 9, 73, 79
4, 68632, Note_on_c, 9, 37, 55
4, 68632, Note_on_c, 9, 37, 102
4, 68668, Note_on_c, 9, 73, 0
4, 68728, Note_on_c, 9, 37, 0
4, 68824, Note_on_c, 9, 37, 0
4, 68828, Note_on_c, 9, 73, 70
4, 68954, Note_on_c, 9, 73, 0
4, 69016, Note_on_c, 9, 37, 60
4, 69016, Note_on_c, 9, 56, 69
4, 69016, Note_on_c, 9, 42, 29
4, 69016, Note_on_c, 9, 76, 65
4, 69016, Note_on_c, 9, 36, 47
4, 69088, Note_on_c, 9, 74, 43
4, 69112, Note_on_c, 9, 36, 0
4, 69112, Note_on_c, 9, 42, 0
4, 69112, Note_on_c, 9, 37, 0
4, 69208, Note_on_c, 9, 56, 0
4, 69208, Note_on_c, 9, 56, 82
4, 69208, Note_on_c, 9, 37, 58
4, 69304, Note_on_c, 9, 37, 0
4, 69304, Note_on_c, 9, 76, 0
4, 69346, Note_on_c, 9, 74, 0
4, 69386, Note_on_c, 9, 73, 96
4, 69400, Note_on_c, 9, 56, 0
4, 69466, Note_on_c, 9, 73, 0
4, 69586, Note_on_c, 9, 73, 57
4, 69592, Note_on_c, 9, 42, 28
4, 69592, Note_on_c, 9, 76, 76
4, 69592, Note_on_c, 9, 37, 74
4, 69592, Note_on_c, 9, 36, 44
4, 69672, Note_on_c, 9, 73, 0
4, 69688, Note_on_c, 9, 37, 0
4, 69688, Note_on_c, 9, 42, 0
4, 69688, Note_on_c, 9, 36, 0
4, 69752, Note_on_c, 9, 74, 44
4, 69784, Note_on_c, 9, 42, 24
4, 69784, Note_on_c, 9, 56, 98
4, 69784, Note_on_c, 9, 36, 46
4, 69880, Note_on_c, 9, 76, 0
4, 69976, Note_on_c, 9, 56, 0
4, 69976, Note_on_c, 9, 36, 0
4, 69976, Note_on_c, 9, 42, 0
4, 69976, Note_on_c, 9, 37, 51
4, 70072, Note_on_c, 9, 37, 0
4, 70106, Note_on_c, 9, 74, 0
4, 70146, Note_on_c, 9, 73, 91
4, 70168, Note_on_c, 9, 76, 60
4, 70168, Note_on_c, 9, 37, 44
4, 70210, Note_on_c, 9, 73, 0
4, 70264, Note_on_c, 9, 37, 0
4, 70360, Note_on_c, 9, 76, 0
4, 70360, Note_on_c, 9, 42, 26
4, 70364, Note_on_c, 9, 73, 67
4, 70426, Note_on_c, 9, 73, 0
4, 70456, Note_on_c, 9, 42, 0
4, 70522, Note_on_c, 9, 74, 42
4, 70552, Note_on_c, 9, 42, 43
4, 70552, Note_on_c, 9, 56, 57
4, 70552, Note_on_c, 9, 37, 67
4, 70552, Note_on_c, 9, 36, 62
4, 70648, Note_on_c, 9, 37, 0
4, 70744, Note_on_c, 9, 56, 0
4, 70744, Note_on_c, 9, 36, 0
4, 70744, Note_on_c, 9, 42, 0
4, 70744, Note_on_c, 9, 37, 43
4, 70876, Note_on_c, 9, 74, 0
4, 70892, Note_on_c, 9, 73, 94
4, 70936, Note_on_c, 9, 37, 0
4, 70936, Note_on_c, 9, 76, 49
4, 70968, Note_on_c, 9, 73, 0
4, 71032, Note_on_c, 9, 76, 0
4, 71128, Note_on_c, 9, 37, 76
4, 71128, Note_on_c, 9, 42, 19
4, 71128, Note_on_c, 9, 36, 50
4, 71134, Note_on_c, 9, 73, 66
4, 71176, Note_on_c, 9, 73, 0
4, 71224, Note_on_c, 9, 37, 0
4, 71224, Note_on_c, 9, 42, 0
4, 71224, Note_on_c, 9, 36, 0
4, 71320, Note_on_c, 9, 76, 76
4, 71320, Note_on_c, 9, 56, 63
4, 71320, Note_on_c, 9, 42, 61
4, 71320, Note_on_c, 9, 36, 45
4, 71326, Note_on_c, 9, 74, 48
4, 71512, Note_on_c, 9, 36, 0
4, 71512, Note_on_c, 9, 42, 0
4, 71512, Note_on_c, 9, 76, 0
4, 71512, Note_on_c, 9, 56, 0
4, 71512, Note_on_c, 9, 37, 54
4, 71608, Note_on_c, 9, 37, 0
4, 71656, Note_on_c, 9, 74, 0
4, 71696, Note_on_c, 9, 73, 76
4, 71704, Note_on_c, 9, 37, 102
4, 71704, Note_on_c, 9, 37, 56
4, 71744, Note_on_c, 9, 73, 0
4, 71792, Note_on_c, 9, 37, 0
4, 71882, Note_on_c, 9, 73, 78
4, 71888, Note_on_c, 9, 37, 0
4, 71888, Note_on_c, 9, 42, 36
4, 71992, Note_on_c, 9, 42, 0
4, 72002, Note_on_c, 9, 73, 0
4, 72080, Note_on_c, 9, 56, 69
4, 72080, Note_on_c, 9, 76, 65
4, 72080, Note_on_c, 9, 42, 46
4, 72080, Note_on_c, 9, 37, 61
4, 72080, Note_on_c, 9, 51, 36
4, 72080, Note_on_c, 9, 36, 55
4, 72090, Note_on_c, 9, 74, 45
4, 72176, Note_on_c, 9, 37, 0
4, 72272, Note_on_c, 9, 51, 0
4, 72272, Note_on_c, 9, 56, 0
4, 72272, Note_on_c, 9, 42, 0
4, 72272, Note_on_c, 9, 36, 0
4, 72272, Note_on_c, 9, 56, 82
4, 72272, Note_on_c, 9, 37, 54
4, 72368, Note_on_c, 9, 76, 0
4, 72428, Note_on_c, 9, 74, 0
4, 72464, Note_on_c, 9, 56, 0
4, 72464, Note_on_c, 9, 37, 0
4, 72470, Note_on_c, 9, 73, 87
4, 72526, Note_on_c, 9, 73, 0
4, 72656, Note_on_c, 9, 37, 78
4, 72656, Note_on_c, 9, 76, 76
4, 72656, Note_on_c, 9, 42, 46
4, 72656, Note_on_c, 9, 36, 45
4, 72660, Note_on_c, 9, 73, 63
4, 72752, Note_on_c, 9, 73, 0
4, 72752, Note_on_c, 9, 42, 0
4, 72752, Note_on_c, 9, 36, 0
4, 72848, Note_on_c, 9, 37, 0
4, 72848, Note_on_c, 9, 51, 56
4, 72848, Note_on_c, 9, 56, 98
4, 72848, Note_on_c, 9, 42, 65
4, 72848, Note_on_c, 9, 36, 55
4, 72864, Note_on_c, 9, 74, 42
4, 72944, Note_on_c, 9, 76, 0
4, 73040, Note_on_c, 9, 42, 0
4, 73040, Note_on_c, 9, 51, 0
4, 73040, Note_on_c, 9, 56, 0
4, 73040, Note_on_c, 9, 37, 51
4, 73136, Note_on_c, 9, 37, 0
4, 73136, Note_on_c, 9, 36, 0
4, 73190, Note_on_c, 9, 74, 0
4, 73232, Note_on_c, 9, 37, 34
4, 73232, Note_on_c, 9, 76, 60
4, 73238, Note_on_c, 9, 73, 72
4, 73298, Note_on_c, 9, 73, 0
4, 73328, Note_on_c, 9, 37, 0
4, 73418, Note_on_c, 9, 73, 58
4, 73424, Note_on_c, 9, 76, 0
4, 73424, Note_on_c, 9, 42, 42
4, 73424, Note_on_c, 9, 37, 28
4, 73424, Note_on_c, 9, 51, 24
4, 73508, Note_on_c, 9, 73, 0
4, 73520, Note_on_c, 9, 42, 0
4, 73520, Note_on_c, 9, 37, 0
4, 73520, Note_on_c, 9, 51, 0
4, 73610, Note_on_c, 9, 74, 43
4, 73624, Note_on_c, 9, 42, 36
4, 73624, Note_on_c, 9, 36, 48
4, 73816, Note_on_c, 9, 36, 0
4, 73816, Note_on_c, 9, 42, 0
4, 73816, Note_on_c, 9, 42, 26
4, 73970, Note_on_c, 9, 74, 0
4, 73998, Note_on_c, 9, 73, 73
4, 74008, Note_on_c, 9, 42, 0
4, 74008, Note_on_c, 9, 42, 39
4, 74008, Note_on_c, 9, 64, 26
4, 74008, Note_on_c, 9, 64, 0
4, 74008, Note_on_c, 9, 76, 49
4, 74048, Note_on_c, 9, 73, 0
4, 74096, Note_on_c, 9, 76, 0
4, 74200, Note_on_c, 9, 42, 0
4, 74200, Note_on_c, 9, 42, 33
4, 74200, Note_on_c, 9, 42, 0
4, 74200, Note_on_c, 9, 64, 86
4, 74200, Note_on_c, 9, 36, 38
4, 74210, Note_on_c, 9, 73, 54
4, 74288, Note_on_c, 9, 36, 0
4, 74290, Note_on_c, 9, 73, 0
4, 74378, Note_on_c, 9, 74, 42
4, 74392, Note_on_c, 9, 64, 0
4, 74392, Note_on_c, 9, 42, 35
4, 74392, Note_on_c, 9, 42, 0
4, 74392, Note_on_c, 9, 76, 76
4, 74392, Note_on_c, 9, 36, 42
4, 74584, Note_on_c, 9, 36, 0
4, 74584, Note_on_c, 9, 76, 0
4, 74584, Note_on_c, 9, 42, 27
4, 74584, Note_on_c, 9, 42, 0
4, 74768, Note_on_c, 9, 42, 50
4, 74768, Note_on_c, 9, 37, 102
4, 74768, Note_on_c, 9, 63, 15
4, 74772, Note_on_c, 9, 74, 0
4, 74780, Note_on_c, 9, 73, 78
4, 74832, Note_on_c, 9, 73, 0
4, 74872, Note_on_c, 9, 63, 0
4, 74872, Note_on_c, 9, 37, 0
4, 74960, Note_on_c, 9, 42, 0
4, 74960, Note_on_c, 9, 63, 121
4, 74960, Note_on_c, 9, 42, 25
4, 74960, Note_on_c, 9, 42, 0
4, 75070, Note_on_c, 9, 73, 51
4, 75070, Note_on_c, 9, 73, 0
4, 75130, Note_on_c, 9, 74, 39
4, 75152, Note_on_c, 9, 76, 65
4, 75152, Note_on_c, 9, 40, 21
4, 75152, Note_on_c, 9, 36, 47
4, 75248, Note_on_c, 9, 36, 0
4, 75344, Note_on_c, 9, 63, 0
4, 75344, Note_on_c, 9, 40, 0
4, 75344, Note_on_c, 9, 42, 28
4, 75344, Note_on_c, 9, 42, 0
4, 75440, Note_on_c, 9, 76, 0
4, 75492, Note_on_c, 9, 74, 0
4, 75514, Note_on_c, 9, 73, 70
4, 75536, Note_on_c, 9, 64, 17
4, 75536, Note_on_c, 9, 64, 0
4, 75536, Note_on_c, 9, 42, 23
4, 75536, Note_on_c, 9, 42, 0
4, 75562, Note_on_c, 9, 73, 0
4, 75700, Note_on_c, 9, 73, 57
4, 75728, Note_on_c, 9, 42, 59
4, 75728, Note_on_c, 9, 42, 0
4, 75728, Note_on_c, 9, 76, 76
4, 75728, Note_on_c, 9, 64, 88
4, 75728, Note_on_c, 9, 36, 44
4, 75824, Note_on_c, 9, 36, 0
4, 75830, Note_on_c, 9, 73, 0
4, 75892, Note_on_c, 9, 74, 40
4, 75920, Note_on_c, 9, 42, 24
4, 75920, Note_on_c, 9, 42, 0
4, 75920, Note_on_c, 9, 36, 46
4, 76016, Note_on_c, 9, 76, 0
4, 76112, Note_on_c, 9, 36, 0
4, 76112, Note_on_c, 9, 42, 35
4, 76296, Note_on_c, 9, 74, 0
4, 76298, Note_on_c, 9, 73, 76
4, 76304, Note_on_c, 9, 42, 0
4, 76304, Note_on_c, 9, 64, 0
4, 76304, Note_on_c, 9, 40, 23
4, 76304, Note_on_c, 9, 76, 60
4, 76360, Note_on_c, 9, 73, 0
4, 76474, Note_on_c, 9, 73, 64
4, 76496, Note_on_c, 9, 76, 0
4, 76496, Note_on_c, 9, 40, 0
4, 76496, Note_on_c, 9, 42, 29
4, 76496, Note_on_c, 9, 42, 0
4, 76592, Note_on_c, 9, 76, 86
4, 76594, Note_on_c, 9, 73, 0
4, 76676, Note_on_c, 9, 74, 39
4, 76688, Note_on_c, 9, 76, 0
4, 76688, Note_on_c, 9, 42, 29
4, 76688, Note_on_c, 9, 42, 0
4, 76688, Note_on_c, 9, 64, 59
4, 76688, Note_on_c, 9, 36, 62
4, 76784, Note_on_c, 9, 64, 0
4, 76880, Note_on_c, 9, 36, 0
4, 76880, Note_on_c, 9, 42, 33
4, 76880, Note_on_c, 9, 42, 0
4, 77030, Note_on_c, 9, 74, 0
4, 77044, Note_on_c, 9, 73, 88
4, 77072, Note_on_c, 9, 76, 49
4, 77072, Note_on_c, 9, 42, 50
4, 77072, Note_on_c, 9, 42, 0
4, 77072, Note_on_c, 9, 64, 19
4, 77130, Note_on_c, 9, 73, 0
4, 77168, Note_on_c, 9, 64, 0
4, 77168, Note_on_c, 9, 76, 0
4, 77238, Note_on_c, 9, 73, 58
4, 77264, Note_on_c, 9, 42, 25
4, 77264, Note_on_c, 9, 42, 0
4, 77264, Note_on_c, 9, 64, 106
4, 77264, Note_on_c, 9, 36, 50
4, 77360, Note_on_c, 9, 36, 0
4, 77378, Note_on_c, 9, 73, 0
4, 77430, Note_on_c, 9, 74, 42
4, 77456, Note_on_c, 9, 76, 76
4, 77456, Note_on_c, 9, 42, 23
4, 77456, Note_on_c, 9, 42, 0
4, 77456, Note_on_c, 9, 36, 45
4, 77552, Note_on_c, 9, 64, 0
4, 77552, Note_on_c, 9, 64, 16
4, 77648, Note_on_c, 9, 36, 0
4, 77648, Note_on_c, 9, 76, 0
4, 77648, Note_on_c, 9, 42, 58
4, 77744, Note_on_c, 9, 64, 0
4, 77818, Note_on_c, 9, 74, 0
4, 77824, Note_on_c, 9, 73, 87
4, 77840, Note_on_c, 9, 42, 0
4, 77840, Note_on_c, 9, 37, 102
4, 77840, Note_on_c, 9, 42, 16
4, 77840, Note_on_c, 9, 42, 0
4, 77840, Note_on_c, 9, 63, 28
4, 77908, Note_on_c, 9, 73, 0
4, 77936, Note_on_c, 9, 63, 0
4, 77936, Note_on_c, 9, 37, 0
4, 78006, Note_on_c, 9, 73, 58
4, 78032, Note_on_c, 9, 63, 120
4, 78032, Note_on_c, 9, 42, 29
4, 78032, Note_on_c, 9, 42, 0
4, 78136, Note_on_c, 9, 73, 0
4, 78190, Note_on_c, 9, 74, 42
4, 78224, Note_on_c, 9, 76, 65
4, 78224, Note_on_c, 9, 42, 52
4, 78224, Note_on_c, 9, 42, 0
4, 78224, Note_on_c, 9, 36, 55
4, 78416, Note_on_c, 9, 36, 0
4, 78416, Note_on_c, 9, 42, 26
4, 78416, Note_on_c, 9, 42, 0
4, 78512, Note_on_c, 9, 76, 0
4, 78604, Note_on_c, 9, 74, 0
4, 78608, Note_on_c, 9, 63, 0
4, 78608, Note_on_c, 9, 40, 22
4, 78616, Note_on_c, 9, 73, 81
4, 78690, Note_on_c, 9, 73, 0
4, 78800, Note_on_c, 9, 40, 0
4, 78800, Note_on_c, 9, 64, 106
4, 78800, Note_on_c, 9, 76, 76
4, 78800, Note_on_c, 9, 42, 26
4, 78800, Note_on_c, 9, 42, 0
4, 78800, Note_on_c, 9, 36, 45
4, 78842, Note_on_c, 9, 73, 63
4, 78896, Note_on_c, 9, 36, 0
4, 78930, Note_on_c, 9, 73, 0
4, 78988, Note_on_c, 9, 74, 46
4, 78992, Note_on_c, 9, 42, 21
4, 78992, Note_on_c, 9, 42, 0
4, 78992, Note_on_c, 9, 36, 55
4, 79088, Note_on_c, 9, 76, 0
4, 79184, Note_on_c, 9, 42, 65
4, 79280, Note_on_c, 9, 36, 0
4, 79376, Note_on_c, 9, 64, 0
4, 79376, Note_on_c, 9, 42, 0
4, 79376, Note_on_c, 9, 42, 29
4, 79376, Note_on_c, 9, 42, 0
4, 79376, Note_on_c, 9, 76, 60
4, 79390, Note_on_c, 9, 74, 0
4, 79428, Note_on_c, 9, 73, 87
4, 79502, Note_on_c, 9, 73, 0
4, 79568, Note_on_c, 9, 76, 0
4, 79568, Note_on_c, 9, 42, 40
4, 79568, Note_on_c, 9, 42, 0
4, 79612, Note_on_c, 9, 73, 67
4, 79744, Note_on_c, 9, 73, 0
4, 79760, Note_on_c, 9, 42, 36
4, 79760, Note_on_c, 9, 36, 48
4, 79800, Note_on_c, 9, 74, 46
4, 79944, Note_on_c, 9, 36, 0
4, 79944, Note_on_c, 9, 42, 0
4, 79944, Note_on_c, 9, 64, 18
4, 79944, Note_on_c, 9, 42, 26
4, 80040, Note_on_c, 9, 64, 0
4, 80136, Note_on_c, 9, 42, 0
4, 80136, Note_on_c, 9, 76, 49
4, 80136, Note_on_c, 9, 42, 39
4, 80194, Note_on_c, 9, 74, 0
4, 80216, Note_on_c, 9, 73, 84
4, 80240, Note_on_c, 9, 76, 0
4, 80288, Note_on_c, 9, 73, 0
4, 80328, Note_on_c, 9, 42, 0
4, 80328, Note_on_c, 9, 42, 33
4, 80328, Note_on_c, 9, 42, 0
4, 80328, Note_on_c, 9, 64, 27
4, 80328, Note_on_c, 9, 64, 0
4, 80328, Note_on_c, 9, 36, 38
4, 80396, Note_on_c, 9, 73, 57
4, 80424, Note_on_c, 9, 36, 0
4, 80520, Note_on_c, 9, 76, 76
4, 80520, Note_on_c, 9, 42, 35
4, 80520, Note_on_c, 9, 42, 0
4, 80520, Note_on_c, 9, 36, 42
4, 80548, Note_on_c, 9, 73, 0
4, 80574, Note_on_c, 9, 74, 49
4, 80712, Note_on_c, 9, 36, 0
4, 80712, Note_on_c, 9, 76, 0
4, 80712, Note_on_c, 9, 42, 27
4, 80712, Note_on_c, 9, 42, 0
4, 80904, Note_on_c, 9, 37, 102
4, 80904, Note_on_c, 9, 42, 50
4, 80904, Note_on_c, 9, 63, 78
4, 80954, Note_on_c, 9, 74, 0
4, 80954, Note_on_c, 9, 73, 84
4, 81000, Note_on_c, 9, 37, 0
4, 81020, Note_on_c, 9, 73, 0
4, 81096, Note_on_c, 9, 42, 0
4, 81096, Note_on_c, 9, 63, 0
4, 81096, Note_on_c, 9, 42, 25
4, 81096, Note_on_c, 9, 42, 0
4, 81120, Note_on_c, 9, 73, 69
4, 81244, Note_on_c, 9, 73, 0
4, 81288, Note_on_c, 9, 76, 65
4, 81288, Note_on_c, 9, 40, 21
4, 81288, Note_on_c, 9, 36, 47
4, 81306, Note_on_c, 9, 74, 44
4, 81384, Note_on_c, 9, 36, 0
4, 81480, Note_on_c, 9, 40, 0
4, 81480, Note_on_c, 9, 42, 28
4, 81480, Note_on_c, 9, 42, 0
4, 81576, Note_on_c, 9, 76, 0
4, 81672, Note_on_c, 9, 42, 23
4, 81672, Note_on_c, 9, 42, 0
4, 81672, Note_on_c, 9, 64, 14
4, 81672, Note_on_c, 9, 64, 0
4, 81682, Note_on_c, 9, 74, 0
4, 81716, Note_on_c, 9, 73, 96
4, 81780, Note_on_c, 9, 73, 0
4, 81864, Note_on_c, 9, 76, 76
4, 81864, Note_on_c, 9, 64, 120
4, 81864, Note_on_c, 9, 42, 59
4, 81864, Note_on_c, 9, 42, 0
4, 81864, Note_on_c, 9, 36, 44
4, 81900, Note_on_c, 9, 73, 79
4, 81960, Note_on_c, 9, 36, 0
4, 82012, Note_on_c, 9, 73, 0
4, 82056, Note_on_c, 9, 42, 24
4, 82056, Note_on_c, 9, 42, 0
4, 82056, Note_on_c, 9, 36, 46
4, 82086, Note_on_c, 9, 74, 45
4, 82152, Note_on_c, 9, 64, 0
4, 82152, Note_on_c, 9, 76, 0
4, 82248, Note_on_c, 9, 36, 0
4, 82248, Note_on_c, 9, 63, 32
4, 82248, Note_on_c, 9, 42, 35
4, 82344, Note_on_c, 9, 63, 0
4, 82440, Note_on_c, 9, 42, 0
4, 82440, Note_on_c, 9, 63, 30
4, 82440, Note_on_c, 9, 76, 60
4, 82440, Note_on_c, 9, 40, 23
4, 82448, Note_on_c, 9, 74, 0
4, 82454, Note_on_c, 9, 73, 100
4, 82530, Note_on_c, 9, 73, 0
4, 82536, Note_on_c, 9, 63, 0
4, 82630, Note_on_c, 9, 73, 78
4, 82632, Note_on_c, 9, 76, 0
4, 82632, Note_on_c, 9, 40, 0
4, 82632, Note_on_c, 9, 42, 29
4, 82632, Note_on_c, 9, 42, 0
4, 82632, Note_on_c, 9, 63, 127
4, 82752, Note_on_c, 9, 73, 0
4, 82820, Note_on_c, 9, 74, 45
4, 82824, Note_on_c, 9, 63, 0
4, 82824, Note_on_c, 9, 42, 29
4, 82824, Note_on_c, 9, 42, 0
4, 82824, Note_on_c, 9, 36, 62
4, 83016, Note_on_c, 9, 36, 0
4, 83016, Note_on_c, 9, 42, 33
4, 83016, Note_on_c, 9, 42, 0
4, 83208, Note_on_c, 9, 76, 49
4, 83208, Note_on_c, 9, 64, 23
4, 83208, Note_on_c, 9, 64, 0
4, 83208, Note_on_c, 9, 42, 50
4, 83208, Note_on_c, 9, 42, 0
4, 83220, Note_on_c, 9, 74, 0
4, 83222, Note_on_c, 9, 73, 97
4, 83300, Note_on_c, 9, 73, 0
4, 83304, Note_on_c, 9, 76, 0
4, 83392, Note_on_c, 9, 73, 82
4, 83400, Note_on_c, 9, 64, 108
4, 83400, Note_on_c, 9, 42, 25
4, 83400, Note_on_c, 9, 42, 0
4, 83400, Note_on_c, 9, 36, 50
4, 83496, Note_on_c, 9, 36, 0
4, 83538, Note_on_c, 9, 73, 0
4, 83592, Note_on_c, 9, 64, 0
4, 83592, Note_on_c, 9, 42, 23
4, 83592, Note_on_c, 9, 42, 0
4, 83592, Note_on_c, 9, 76, 76
4, 83592, Note_on_c, 9, 36, 45
4, 83602, Note_on_c, 9, 74, 44
4, 83784, Note_on_c, 9, 36, 0
4, 83784, Note_on_c, 9, 76, 0
4, 83784, Note_on_c, 9, 63, 15
4, 83784, Note_on_c, 9, 42, 58
4, 83880, Note_on_c, 9, 63, 0
4, 83976, Note_on_c, 9, 42, 0
4, 83976, Note_on_c, 9, 63, 19
4, 83976, Note_on_c, 9, 37, 102
4, 83976, Note_on_c, 9, 42, 16
4, 83976, Note_on_c, 9, 42, 0
4, 83994, Note_on_c, 9, 74, 0
4, 84006, Note_on_c, 9, 73, 87
4, 84072, Note_on_c, 9, 37, 0
4, 84072, Note_on_c, 9, 63, 0
4, 84074, Note_on_c, 9, 73, 0
4, 84168, Note_on_c, 9, 42, 29
4, 84168, Note_on_c, 9, 42, 0
4, 84168, Note_on_c, 9, 63, 123
4, 84172, Note_on_c, 9, 73, 78
4, 84296, Note_on_c, 9, 73, 0
4, 84360, Note_on_c, 9, 76, 65
4, 84360, Note_on_c, 9, 42, 52
4, 84360, Note_on_c, 9, 42, 0
4, 84360, Note_on_c, 9, 36, 55
4, 84448, Note_on_c, 9, 74, 47
4, 84456, Note_on_c, 9, 63, 0
4, 84552, Note_on_c, 9, 36, 0
4, 84552, Note_on_c, 9, 64, 23
4, 84552, Note_on_c, 9, 42, 26
4, 84552, Note_on_c, 9, 42, 0
4, 84648, Note_on_c, 9, 64, 0
4, 84648, Note_on_c, 9, 76, 0
4, 84744, Note_on_c, 9, 64, 18
4, 84744, Note_on_c, 9, 40, 22
4, 84760, Note_on_c, 9, 74, 0
4, 84766, Note_on_c, 9, 73, 93
4, 84816, Note_on_c, 9, 73, 0
4, 84840, Note_on_c, 9, 64, 0
4, 84936, Note_on_c, 9, 40, 0
4, 84936, Note_on_c, 9, 64, 30
4, 84936, Note_on_c, 9, 42, 26
4, 84936, Note_on_c, 9, 42, 0
4, 84936, Note_on_c, 9, 76, 76
4, 84936, Note_on_c, 9, 36, 45
4, 84942, Note_on_c, 9, 73, 96
4, 85032, Note_on_c, 9, 36, 0
4, 85032, Note_on_c, 9, 64, 0
4, 85050, Note_on_c, 9, 73, 0
4, 85128, Note_on_c, 9, 42, 21
4, 85128, Note_on_c, 9, 42, 0
4, 85128, Note_on_c, 9, 36, 55
4, 85180, Note_on_c, 9, 74, 44
4, 85224, Note_on_c, 9, 76, 0
4, 85320, Note_on_c, 9, 42, 65
4, 85408, Note_on_c, 9, 36, 0
4, 85502, Note_on_c, 9, 74, 0
4, 85512, Note_on_c, 9, 42, 0
4, 85512, Note_on_c, 9, 76, 60
4, 85512, Note_on_c, 9, 42, 29
4, 85512, Note_on_c, 9, 42, 0
4, 85520, Note_on_c, 9, 73, 90
4, 85590, Note_on_c, 9, 73, 0
4, 85696, Note_on_c, 9, 73, 82
4, 85704, Note_on_c, 9, 76, 0
4, 85704, Note_on_c, 9, 42, 40
4, 85704, Note_on_c, 9, 42, 0
4, 85704, Note_on_c, 9, 76, 86
4, 85792, Note_on_c, 9, 76, 0
4, 85818, Note_on_c, 9, 73, 0
4, 85884, Note_on_c, 9, 74, 46
4, 85896, Note_on_c, 9, 42, 36
4, 85896, Note_on_c, 9, 36, 48
4, 86080, Note_on_c, 9, 36, 0
4, 86080, Note_on_c, 9, 42, 0
4, 86080, Note_on_c, 9, 42, 26
4, 86272, Note_on_c, 9, 42, 0
4, 86272, Note_on_c, 9, 42, 39
4, 86272, Note_on_c, 9, 76, 49
4, 86276, Note_on_c, 9, 74, 0
4, 86300, Note_on_c, 9, 73, 84
4, 86348, Note_on_c, 9, 73, 0
4, 86368, Note_on_c, 9, 76, 0
4, 86464, Note_on_c, 9, 42, 0
4, 86464, Note_on_c, 9, 42, 33
4, 86464, Note_on_c, 9, 42, 0
4, 86464, Note_on_c, 9, 63, 104
4, 86464, Note_on_c, 9, 36, 38
4, 86478, Note_on_c, 9, 73, 69
4, 86560, Note_on_c, 9, 36, 0
4, 86594, Note_on_c, 9, 73, 0
4, 86650, Note_on_c, 9, 74, 44
4, 86656, Note_on_c, 9, 42, 35
4, 86656, Note_on_c, 9, 42, 0
4, 86656, Note_on_c, 9, 76, 76
4, 86656, Note_on_c, 9, 36, 42
4, 86752, Note_on_c, 9, 63, 0
4, 86848, Note_on_c, 9, 36, 0
4, 86848, Note_on_c, 9, 76, 0
4, 86848, Note_on_c, 9, 42, 27
4, 86848, Note_on_c, 9, 42, 0
4, 86994, Note_on_c, 9, 74, 0
4, 87000, Note_on_c, 9, 73, 93
4, 87040, Note_on_c, 9, 42, 50
4, 87040, Note_on_c, 9, 37, 102
4, 87076, Note_on_c, 9, 73, 0
4, 87136, Note_on_c, 9, 37, 0
4, 87166, Note_on_c, 9, 73, 70
4, 87232, Note_on_c, 9, 42, 0
4, 87232, Note_on_c, 9, 42, 25
4, 87232, Note_on_c, 9, 42, 0
4, 87232, Note_on_c, 9, 64, 86
4, 87294, Note_on_c, 9, 73, 0
4, 87356, Note_on_c, 9, 74, 42
4, 87424, Note_on_c, 9, 64, 0
4, 87424, Note_on_c, 9, 40, 21
4, 87424, Note_on_c, 9, 76, 65
4, 87424, Note_on_c, 9, 36, 47
4, 87520, Note_on_c, 9, 36, 0
4, 87616, Note_on_c, 9, 40, 0
4, 87616, Note_on_c, 9, 42, 28
4, 87616, Note_on_c, 9, 42, 0
4, 87712, Note_on_c, 9, 76, 0
4, 87744, Note_on_c, 9, 74, 0
4, 87752, Note_on_c, 9, 73, 90
4, 87808, Note_on_c, 9, 63, 15
4, 87808, Note_on_c, 9, 42, 23
4, 87808, Note_on_c, 9, 42, 0
4, 87824, Note_on_c, 9, 73, 0
4, 87904, Note_on_c, 9, 63, 0
4, 87930, Note_on_c, 9, 73, 78
4, 88000, Note_on_c, 9, 76, 76
4, 88000, Note_on_c, 9, 63, 118
4, 88000, Note_on_c, 9, 42, 59
4, 88000, Note_on_c, 9, 42, 0
4, 88000, Note_on_c, 9, 36, 44
4, 88070, Note_on_c, 9, 73, 0
4, 88096, Note_on_c, 9, 36, 0
4, 88124, Note_on_c, 9, 74, 45
4, 88192, Note_on_c, 9, 63, 0
4, 88192, Note_on_c, 9, 42, 24
4, 88192, Note_on_c, 9, 42, 0
4, 88192, Note_on_c, 9, 36, 46
4, 88288, Note_on_c, 9, 76, 0
4, 88384, Note_on_c, 9, 36, 0
4, 88384, Note_on_c, 9, 42, 35
4, 88508, Note_on_c, 9, 74, 0
4, 88530, Note_on_c, 9, 73, 88
4, 88576, Note_on_c, 9, 42, 0
4, 88576, Note_on_c, 9, 76, 60
4, 88576, Note_on_c, 9, 64, 28
4, 88576, Note_on_c, 9, 64, 0
4, 88576, Note_on_c, 9, 40, 23
4, 88590, Note_on_c, 9, 73, 0
4, 88728, Note_on_c, 9, 73, 84
4, 88768, Note_on_c, 9, 40, 0
4, 88768, Note_on_c, 9, 76, 0
4, 88768, Note_on_c, 9, 64, 104
4, 88768, Note_on_c, 9, 57, 18
4, 88768, Note_on_c, 9, 42, 29
4, 88768, Note_on_c, 9, 42, 0
4, 88840, Note_on_c, 9, 73, 0
4, 88864, Note_on_c, 9, 57, 0
4, 88932, Note_on_c, 9, 74, 51
4, 88960, Note_on_c, 9, 64, 0
4, 88960, Note_on_c, 9, 42, 29
4, 88960, Note_on_c, 9, 42, 0
4, 88960, Note_on_c, 9, 36, 62
4, 89152, Note_on_c, 9, 36, 0
4, 89152, Note_on_c, 9, 42, 33
4, 89152, Note_on_c, 9, 42, 0
4, 89308, Note_on_c, 9, 74, 0
4, 89328, Note_on_c, 9, 73, 93
4, 89344, Note_on_c, 9, 76, 49
4, 89344, Note_on_c, 9, 42, 50
4, 89344, Note_on_c, 9, 42, 0
4, 89418, Note_on_c, 9, 73, 0
4, 89440, Note_on_c, 9, 76, 0
4, 89536, Note_on_c, 9, 63, 121
4, 89536, Note_on_c, 9, 42, 25
4, 89536, Note_on_c, 9, 42, 0
4, 89536, Note_on_c, 9, 36, 50
4, 89546, Note_on_c, 9, 74, 44
4, 89632, Note_on_c, 9, 36, 0
4, 89728, Note_on_c, 9, 76, 76
4, 89728, Note_on_c, 9, 42, 23
4, 89728, Note_on_c, 9, 42, 0
4, 89728, Note_on_c, 9, 36, 45
4, 89824, Note_on_c, 9, 63, 0
4, 89920, Note_on_c, 9, 36, 0
4, 89920, Note_on_c, 9, 76, 0
4, 89920, Note_on_c, 9, 42, 58
4, 89976, Note_on_c, 9, 74, 0
4, 90054, Note_on_c, 9, 73, 79
4, 90112, Note_on_c, 9, 42, 0
4, 90112, Note_on_c, 9, 37, 102
4, 90112, Note_on_c, 9, 42, 16
4, 90112, Note_on_c, 9, 42, 0
4, 90148, Note_on_c, 9, 73, 0
4, 90208, Note_on_c, 9, 37, 0
4, 90266, Note_on_c, 9, 73, 90
4, 90304, Note_on_c, 9, 42, 29
4, 90304, Note_on_c, 9, 42, 0
4, 90304, Note_on_c, 9, 64, 78
4, 90376, Note_on_c, 9, 73, 0
4, 90474, Note_on_c, 9, 74, 49
4, 90496, Note_on_c, 9, 64, 0
4, 90496, Note_on_c, 9, 76, 65
4, 90496, Note_on_c, 9, 42, 52
4, 90496, Note_on_c, 9, 42, 0
4, 90496, Note_on_c, 9, 36, 55
4, 90688, Note_on_c, 9, 36, 0
4, 90688, Note_on_c, 9, 42, 26
4, 90688, Note_on_c, 9, 42, 0
4, 90776, Note_on_c, 9, 76, 0
4, 90878, Note_on_c, 9, 74, 0
4, 90880, Note_on_c, 9, 40, 22
4, 90908, Note_on_c, 9, 73, 97
4, 90980, Note_on_c, 9, 73, 0
4, 91064, Note_on_c, 9, 40, 0
4, 91064, Note_on_c, 9, 76, 76
4, 91064, Note_on_c, 9, 42, 26
4, 91064, Note_on_c, 9, 42, 0
4, 91064, Note_on_c, 9, 63, 121
4, 91064, Note_on_c, 9, 36, 45
4, 91072, Note_on_c, 9, 73, 85
4, 91160, Note_on_c, 9, 36, 0
4, 91194, Note_on_c, 9, 73, 0
4, 91256, Note_on_c, 9, 42, 21
4, 91256, Note_on_c, 9, 42, 0
4, 91256, Note_on_c, 9, 36, 55
4, 91280, Note_on_c, 9, 74, 44
4, 91352, Note_on_c, 9, 76, 0
4, 91448, Note_on_c, 9, 63, 0
4, 91448, Note_on_c, 9, 42, 65
4, 91448, Note_on_c, 9, 64, 15
4, 91544, Note_on_c, 9, 64, 0
4, 91544, Note_on_c, 9, 36, 0
4, 91620, Note_on_c, 9, 74, 0
4, 91640, Note_on_c, 9, 42, 0
4, 91640, Note_on_c, 9, 76, 60
4, 91640, Note_on_c, 9, 42, 29
4, 91640, Note_on_c, 9, 42, 0
4, 91640, Note_on_c, 9, 64, 18
4, 91668, Note_on_c, 9, 73, 84
4, 91716, Note_on_c, 9, 73, 0
4, 91736, Note_on_c, 9, 64, 0
4, 91832, Note_on_c, 9, 76, 0
4, 91832, Note_on_c, 9, 42, 40
4, 91832, Note_on_c, 9, 42, 0
4, 91832, Note_on_c, 9, 64, 110
4, 91982, Note_on_c, 9, 73, 69
4, 91982, Note_on_c, 9, 73, 0
4, 92024, Note_on_c, 9, 64, 0
4, 92024, Note_on_c, 9, 42, 36
4, 92024, Note_on_c, 9, 36, 48
4, 92036, Note_on_c, 9, 74, 44
4, 92216, Note_on_c, 9, 36, 0
4, 92216, Note_on_c, 9, 42, 0
4, 92216, Note_on_c, 9, 42, 26
4, 92364, Note_on_c, 9, 74, 0
4, 92388, Note_on_c, 9, 73, 93
4, 92408, Note_on_c, 9, 42, 0
4, 92408, Note_on_c, 9, 42, 39
4, 92408, Note_on_c, 9, 76, 49
4, 92470, Note_on_c, 9, 73, 0
4, 92504, Note_on_c, 9, 76, 0
4, 92564, Note_on_c, 9, 73, 69
4, 92600, Note_on_c, 9, 42, 0
4, 92600, Note_on_c, 9, 42, 33
4, 92600, Note_on_c, 9, 42, 0
4, 92600, Note_on_c, 9, 63, 98
4, 92600, Note_on_c, 9, 36, 38
4, 92692, Note_on_c, 9, 73, 0
4, 92696, Note_on_c, 9, 36, 0
4, 92772, Note_on_c, 9, 74, 46
4, 92792, Note_on_c, 9, 76, 76
4, 92792, Note_on_c, 9, 42, 35
4, 92792, Note_on_c, 9, 42, 0
4, 92792, Note_on_c, 9, 36, 42
4, 92888, Note_on_c, 9, 63, 0
4, 92984, Note_on_c, 9, 36, 0
4, 92984, Note_on_c, 9, 76, 0
4, 92984, Note_on_c, 9, 42, 27
4, 92984, Note_on_c, 9, 42, 0
4, 93148, Note_on_c, 9, 74, 0
4, 93176, Note_on_c, 9, 42, 50
4, 93176, Note_on_c, 9, 64, 18
4, 93176, Note_on_c, 9, 37, 102
4, 93190, Note_on_c, 9, 73, 75
4, 93236, Note_on_c, 9, 73, 0
4, 93272, Note_on_c, 9, 37, 0
4, 93272, Note_on_c, 9, 64, 0
4, 93362, Note_on_c, 9, 73, 70
4, 93368, Note_on_c, 9, 42, 0
4, 93368, Note_on_c, 9, 42, 25
4, 93368, Note_on_c, 9, 42, 0
4, 93368, Note_on_c, 9, 64, 98
4, 93470, Note_on_c, 9, 73, 0
4, 93546, Note_on_c, 9, 74, 46
4, 93560, Note_on_c, 9, 64, 0
4, 93560, Note_on_c, 9, 40, 21
4, 93560, Note_on_c, 9, 76, 65
4, 93560, Note_on_c, 9, 36, 47
4, 93656, Note_on_c, 9, 36, 0
4, 93752, Note_on_c, 9, 40, 0
4, 93752, Note_on_c, 9, 42, 28
4, 93752, Note_on_c, 9, 42, 0
4, 93848, Note_on_c, 9, 76, 0
4, 93912, Note_on_c, 9, 74, 0
4, 93938, Note_on_c, 9, 73, 72
4, 93944, Note_on_c, 9, 63, 28
4, 93944, Note_on_c, 9, 63, 0
4, 93944, Note_on_c, 9, 42, 23
4, 93944, Note_on_c, 9, 42, 0
4, 94004, Note_on_c, 9, 73, 0
4, 94134, Note_on_c, 9, 73, 57
4, 94136, Note_on_c, 9, 76, 35
4, 94136, Note_on_c, 9, 42, 59
4, 94136, Note_on_c, 9, 42, 0
4, 94136, Note_on_c, 9, 76, 76
4, 94136, Note_on_c, 9, 63, 32
4, 94136, Note_on_c, 9, 36, 44
4, 94232, Note_on_c, 9, 36, 0
4, 94232, Note_on_c, 9, 76, 0
4, 94232, Note_on_c, 9, 63, 0
4, 94250, Note_on_c, 9, 73, 0
4, 94320, Note_on_c, 9, 74, 36
4, 94328, Note_on_c, 9, 42, 24
4, 94328, Note_on_c, 9, 42, 0
4, 94328, Note_on_c, 9, 63, 18
4, 94328, Note_on_c, 9, 36, 46
4, 94424, Note_on_c, 9, 63, 0
4, 94424, Note_on_c, 9, 76, 0
4, 94520, Note_on_c, 9, 36, 0
4, 94520, Note_on_c, 9, 76, 69
4, 94520, Note_on_c, 9, 63, 44
4, 94520, Note_on_c, 9, 42, 35
4, 94616, Note_on_c, 9, 63, 0
4, 94616, Note_on_c, 9, 76, 0
4, 94676, Note_on_c, 9, 74, 0
4, 94686, Note_on_c, 9, 73, 87
4, 94712, Note_on_c, 9, 42, 0
4, 94712, Note_on_c, 9, 76, 90
4, 94712, Note_on_c, 9, 76, 60
4, 94712, Note_on_c, 9, 63, 63
4, 94712, Note_on_c, 9, 40, 23
4, 94772, Note_on_c, 9, 73, 0
4, 94808, Note_on_c, 9, 63, 0
4, 94808, Note_on_c, 9, 76, 0
4, 94884, Note_on_c, 9, 73, 66
4, 94904, Note_on_c, 9, 76, 0
4, 94904, Note_on_c, 9, 40, 0
4, 94904, Note_on_c, 9, 76, 70
4, 94904, Note_on_c, 9, 63, 57
4, 94904, Note_on_c, 9, 42, 29
4, 94904, Note_on_c, 9, 42, 0
4, 94904, Note_on_c, 9, 76, 110
4, 95000, Note_on_c, 9, 63, 0
4, 95000, Note_on_c, 9, 76, 0
4, 95010, Note_on_c, 9, 73, 0
4, 95090, Note_on_c, 9, 74, 41
4, 95096, Note_on_c, 9, 76, 0
4, 95096, Note_on_c, 9, 42, 29
4, 95096, Note_on_c, 9, 42, 0
4, 95096, Note_on_c, 9, 36, 62
4, 95288, Note_on_c, 9, 36, 0
4, 95288, Note_on_c, 9, 42, 33
4, 95288, Note_on_c, 9, 42, 0
4, 95458, Note_on_c, 9, 74, 0
4, 95480, Note_on_c, 9, 76, 49
4, 95480, Note_on_c, 9, 42, 50
4, 95480, Note_on_c, 9, 42, 0
4, 95488, Note_on_c, 9, 73, 73
4, 95536, Note_on_c, 9, 73, 0
4, 95576, Note_on_c, 9, 76, 0
4, 95672, Note_on_c, 9, 42, 25
4, 95672, Note_on_c, 9, 42, 0
4, 95672, Note_on_c, 9, 63, 86
4, 95672, Note_on_c, 9, 36, 50
4, 95684, Note_on_c, 9, 73, 64
4, 95768, Note_on_c, 9, 36, 0
4, 95776, Note_on_c, 9, 73, 0
4, 95858, Note_on_c, 9, 74, 33
4, 95864, Note_on_c, 9, 63, 0
4, 95864, Note_on_c, 9, 76, 76
4, 95864, Note_on_c, 9, 42, 23
4, 95864, Note_on_c, 9, 42, 0
4, 95864, Note_on_c, 9, 36, 45
4, 96056, Note_on_c, 9, 36, 0
4, 96056, Note_on_c, 9, 76, 0
4, 96056, Note_on_c, 9, 42, 58
4, 96056, Note_on_c, 9, 63, 72
4, 96152, Note_on_c, 9, 63, 0
4, 96210, Note_on_c, 9, 74, 0
4, 96222, Note_on_c, 9, 73, 76
4, 96248, Note_on_c, 9, 42, 0
4, 96248, Note_on_c, 9, 42, 16
4, 96248, Note_on_c, 9, 42, 0
4, 96248, Note_on_c, 9, 37, 102
4, 96276, Note_on_c, 9, 73, 0
4, 96344, Note_on_c, 9, 37, 0
4, 96438, Note_on_c, 9, 73, 55
4, 96440, Note_on_c, 9, 42, 29
4, 96440, Note_on_c, 9, 42, 0
4, 96544, Note_on_c, 9, 73, 0
4, 96620, Note_on_c, 9, 74, 37
4, 96632, Note_on_c, 9, 64, 19
4, 96632, Note_on_c, 9, 64, 0
4, 96632, Note_on_c, 9, 76, 65
4, 96632, Note_on_c, 9, 42, 52
4, 96632, Note_on_c, 9, 42, 0
4, 96632, Note_on_c, 9, 36, 55
4, 96816, Note_on_c, 9, 36, 0
4, 96816, Note_on_c, 9, 42, 26
4, 96816, Note_on_c, 9, 42, 0
4, 96816, Note_on_c, 9, 64, 112
4, 96816, Note_on_c, 9, 59, 78
4, 96816, Note_on_c, 9, 59, 0
4, 96912, Note_on_c, 9, 64, 0
4, 96912, Note_on_c, 9, 76, 0
4, 96994, Note_on_c, 9, 74, 0
4, 97004, Note_on_c, 9, 73, 96
4, 97008, Note_on_c, 9, 40, 22
4, 97086, Note_on_c, 9, 73, 0
4, 97200, Note_on_c, 9, 40, 0
4, 97200, Note_on_c, 9, 76, 76
4, 97200, Note_on_c, 9, 63, 20
4, 97200, Note_on_c, 9, 42, 26
4, 97200, Note_on_c, 9, 42, 0
4, 97200, Note_on_c, 9, 36, 45
4, 97202, Note_on_c, 9, 73, 49
4, 97296, Note_on_c, 9, 36, 0
4, 97296, Note_on_c, 9, 63, 0
4, 97318, Note_on_c, 9, 73, 0
4, 97390, Note_on_c, 9, 74, 39
4, 97392, Note_on_c, 9, 63, 13
4, 97392, Note_on_c, 9, 42, 21
4, 97392, Note_on_c, 9, 42, 0
4, 97392, Note_on_c, 9, 36, 55
4, 97488, Note_on_c, 9, 63, 0
4, 97488, Note_on_c, 9, 76, 0
4, 97584, Note_on_c, 9, 42, 65
4, 97584, Note_on_c, 9, 63, 23
4, 97680, Note_on_c, 9, 63, 0
4, 97680, Note_on_c, 9, 36, 0
4, 97766, Note_on_c, 9, 74, 0
4, 97772, Note_on_c, 9, 73, 78
4, 97776, Note_on_c, 9, 42, 0
4, 97776, Note_on_c, 9, 76, 60
4, 97776, Note_on_c, 9, 42, 29
4, 97776, Note_on_c, 9, 42, 0
4, 97840, Note_on_c, 9, 73, 0
4, 97960, Note_on_c, 9, 73, 75
4, 97968, Note_on_c, 9, 76, 0
4, 97968, Note_on_c, 9, 76, 112
4, 97968, Note_on_c, 9, 42, 40
4, 97968, Note_on_c, 9, 42, 0
4, 98064, Note_on_c, 9, 76, 0
4, 98064, Note_on_c, 9, 73, 0
4, 98142, Note_on_c, 9, 74, 36
4, 98160, Note_on_c, 9, 42, 36
4, 98160, Note_on_c, 9, 36, 48
4, 98352, Note_on_c, 9, 36, 0
4, 98352, Note_on_c, 9, 42, 0
4, 98352, Note_on_c, 9, 42, 26
4, 98498, Note_on_c, 9, 74, 0
4, 98506, Note_on_c, 9, 73, 87
4, 98544, Note_on_c, 9, 42, 0
4, 98544, Note_on_c, 9, 76, 49
4, 98544, Note_on_c, 9, 64, 26
4, 98544, Note_on_c, 9, 64, 0
4, 98544, Note_on_c, 9, 42, 39
4, 98590, Note_on_c, 9, 73, 0
4, 98640, Note_on_c, 9, 76, 0
4, 98706, Note_on_c, 9, 73, 66
4, 98736, Note_on_c, 9, 42, 0
4, 98736, Note_on_c, 9, 64, 86
4, 98736, Note_on_c, 9, 42, 33
4, 98736, Note_on_c, 9, 42, 0
4, 98736, Note_on_c, 9, 36, 38
4, 98832, Note_on_c, 9, 36, 0
4, 98844, Note_on_c, 9, 73, 0
4, 98910, Note_on_c, 9, 74, 38
4, 98928, Note_on_c, 9, 64, 0
4, 98928, Note_on_c, 9, 42, 35
4, 98928, Note_on_c, 9, 42, 0
4, 98928, Note_on_c, 9, 76, 76
4, 98928, Note_on_c, 9, 36, 42
4, 99120, Note_on_c, 9, 36, 0
4, 99120, Note_on_c, 9, 76, 0
4, 99120, Note_on_c, 9, 42, 27
4, 99120, Note_on_c, 9, 42, 0
4, 99266, Note_on_c, 9, 74, 0
4, 99270, Note_on_c, 9, 73, 90
4, 99312, Note_on_c, 9, 63, 15
4, 99312, Note_on_c, 9, 37, 102
4, 99312, Note_on_c, 9, 42, 50
4, 99356, Note_on_c, 9, 73, 0
4, 99408, Note_on_c, 9, 63, 0
4, 99408, Note_on_c, 9, 37, 0
4, 99478, Note_on_c, 9, 73, 82
4, 99504, Note_on_c, 9, 42, 0
4, 99504, Note_on_c, 9, 63, 121
4, 99504, Note_on_c, 9, 42, 25
4, 99504, Note_on_c, 9, 42, 0
4, 99596, Note_on_c, 9, 73, 0
4, 99678, Note_on_c, 9, 74, 38
4, 99696, Note_on_c, 9, 40, 21
4, 99696, Note_on_c, 9, 76, 65
4, 99696, Note_on_c, 9, 36, 47
4, 99792, Note_on_c, 9, 36, 0
4, 99888, Note_on_c, 9, 40, 0
4, 99888, Note_on_c, 9, 63, 0
4, 99888, Note_on_c, 9, 42, 28
4, 99888, Note_on_c, 9, 42, 0
4, 99984, Note_on_c, 9, 76, 0
4, 100040, Note_on_c, 9, 74, 0
4, 100046, Note_on_c, 9, 73, 90
4, 100080, Note_on_c, 9, 64, 17
4, 100080, Note_on_c, 9, 64, 0
4, 100080, Note_on_c, 9, 42, 23
4, 100080, Note_on_c, 9, 42, 0
4, 100130, Note_on_c, 9, 73, 0
4, 100256, Note_on_c, 9, 73, 69
4, 100272, Note_on_c, 9, 42, 59
4, 100272, Note_on_c, 9, 42, 0
4, 100272, Note_on_c, 9, 64, 88
4, 100272, Note_on_c, 9, 76, 76
4, 100272, Note_on_c, 9, 36, 44
4, 100368, Note_on_c, 9, 36, 0
4, 100370, Note_on_c, 9, 73, 0
4, 100442, Note_on_c, 9, 74, 38
4, 100464, Note_on_c, 9, 42, 24
4, 100464, Note_on_c, 9, 42, 0
4, 100464, Note_on_c, 9, 36, 46
4, 100560, Note_on_c, 9, 76, 0
4, 100656, Note_on_c, 9, 36, 0
4, 100656, Note_on_c, 9, 42, 35
4, 100806, Note_on_c, 9, 74, 0
4, 100848, Note_on_c, 9, 42, 0
4, 100848, Note_on_c, 9, 64, 0
4, 100848, Note_on_c, 9, 40, 23
4, 100848, Note_on_c, 9, 76, 60
4, 100852, Note_on_c, 9, 73, 82
4, 100916, Note_on_c, 9, 73, 0
4, 101040, Note_on_c, 9, 76, 0
4, 101040, Note_on_c, 9, 40, 0
4, 101040, Note_on_c, 9, 42, 29
4, 101040, Note_on_c, 9, 42, 0
4, 101054, Note_on_c, 9, 73, 72
4, 101136, Note_on_c, 9, 76, 86
4, 101166, Note_on_c, 9, 73, 0
4, 101232, Note_on_c, 9, 76, 0
4, 101232, Note_on_c, 9, 42, 29
4, 101232, Note_on_c, 9, 42, 0
4, 101232, Note_on_c, 9, 64, 59
4, 101232, Note_on_c, 9, 36, 62
4, 101254, Note_on_c, 9, 74, 30
4, 101266, Note_on_c, 9, 74, 57
4, 101328, Note_on_c, 9, 64, 0
4, 101424, Note_on_c, 9, 36, 0
4, 101424, Note_on_c, 9, 42, 33
4, 101424, Note_on_c, 9, 42, 0
4, 101604, Note_on_c, 9, 74, 0
4, 101616, Note_on_c, 9, 76, 49
4, 101616, Note_on_c, 9, 64, 19
4, 101616, Note_on_c, 9, 42, 50
4, 101616, Note_on_c, 9, 42, 0
4, 101640, Note_on_c, 9, 74, 0
4, 101648, Note_on_c, 9, 73, 82
4, 101712, Note_on_c, 9, 64, 0
4, 101712, Note_on_c, 9, 76, 0
4, 101768, Note_on_c, 9, 73, 0
4, 101808, Note_on_c, 9, 64, 106
4, 101808, Note_on_c, 9, 42, 25
4, 101808, Note_on_c, 9, 42, 0
4, 101808, Note_on_c, 9, 36, 50
4, 101874, Note_on_c, 9, 73, 85
4, 101904, Note_on_c, 9, 36, 0
4, 102000, Note_on_c, 9, 76, 76
4, 102000, Note_on_c, 9, 42, 23
4, 102000, Note_on_c, 9, 42, 0
4, 102000, Note_on_c, 9, 36, 45
4, 102006, Note_on_c, 9, 73, 0
4, 102086, Note_on_c, 9, 74, 62
4, 102096, Note_on_c, 9, 64, 0
4, 102096, Note_on_c, 9, 64, 16
4, 102184, Note_on_c, 9, 36, 0
4, 102184, Note_on_c, 9, 76, 0
4, 102184, Note_on_c, 9, 42, 58
4, 102280, Note_on_c, 9, 64, 0
4, 102376, Note_on_c, 9, 42, 0
4, 102376, Note_on_c, 9, 63, 28
4, 102376, Note_on_c, 9, 37, 102
4, 102376, Note_on_c, 9, 42, 16
4, 102376, Note_on_c, 9, 42, 0
4, 102394, Note_on_c, 9, 74, 0
4, 102408, Note_on_c, 9, 73, 84
4, 102472, Note_on_c, 9, 37, 0
4, 102472, Note_on_c, 9, 63, 0
4, 102524, Note_on_c, 9, 73, 0
4, 102568, Note_on_c, 9, 42, 29
4, 102568, Note_on_c, 9, 42, 0
4, 102568, Note_on_c, 9, 63, 120
4, 102614, Note_on_c, 9, 73, 100
4, 102740, Note_on_c, 9, 73, 0
4, 102760, Note_on_c, 9, 76, 65
4, 102760, Note_on_c, 9, 42, 52
4, 102760, Note_on_c, 9, 42, 0
4, 102760, Note_on_c, 9, 36, 55
4, 102804, Note_on_c, 9, 74, 58
4, 102952, Note_on_c, 9, 36, 0
4, 102952, Note_on_c, 9, 42, 26
4, 102952, Note_on_c, 9, 42, 0
4, 103048, Note_on_c, 9, 76, 0
4, 103090, Note_on_c, 9, 74, 0
4, 103116, Note_on_c, 9, 73, 85
4, 103144, Note_on_c, 9, 63, 0
4, 103144, Note_on_c, 9, 40, 22
4, 103240, Note_on_c, 9, 73, 0
4, 103336, Note_on_c, 9, 40, 0
4, 103336, Note_on_c, 9, 76, 76
4, 103336, Note_on_c, 9, 42, 26
4, 103336, Note_on_c, 9, 42, 0
4, 103336, Note_on_c, 9, 64, 106
4, 103336, Note_on_c, 9, 36, 45
4, 103378, Note_on_c, 9, 74, 57
4, 103432, Note_on_c, 9, 36, 0
4, 103480, Note_on_c, 9, 74, 0
4, 103528, Note_on_c, 9, 42, 21
4, 103528, Note_on_c, 9, 42, 0
4, 103528, Note_on_c, 9, 36, 55
4, 103624, Note_on_c, 9, 76, 0
4, 103720, Note_on_c, 9, 42, 65
4, 103816, Note_on_c, 9, 36, 0
4, 103900, Note_on_c, 9, 73, 73
4, 103912, Note_on_c, 9, 42, 0
4, 103912, Note_on_c, 9, 64, 0
4, 103912, Note_on_c, 9, 76, 60
4, 103912, Note_on_c, 9, 42, 29
4, 103912, Note_on_c, 9, 42, 0
4, 103968, Note_on_c, 9, 73, 0
4, 104064, Note_on_c, 9, 73, 88
4, 104104, Note_on_c, 9, 76, 0
4, 104104, Note_on_c, 9, 42, 40
4, 104104, Note_on_c, 9, 42, 0
4, 104174, Note_on_c, 9, 73, 0
4, 104282, Note_on_c, 9, 74, 68
4, 104296, Note_on_c, 9, 42, 36
4, 104296, Note_on_c, 9, 36, 48
4, 104488, Note_on_c, 9, 36, 0
4, 104488, Note_on_c, 9, 42, 0
4, 104488, Note_on_c, 9, 42, 26
4, 104488, Note_on_c, 9, 64, 18
4, 104584, Note_on_c, 9, 64, 0
4, 104612, Note_on_c, 9, 74, 0
4, 104644, Note_on_c, 9, 73, 84
4, 104680, Note_on_c, 9, 42, 0
4, 104680, Note_on_c, 9, 42, 39
4, 104680, Note_on_c, 9, 76, 49
4, 104752, Note_on_c, 9, 73, 0
4, 104776, Note_on_c, 9, 76, 0
4, 104854, Note_on_c, 9, 73, 85
4, 104872, Note_on_c, 9, 42, 0
4, 104872, Note_on_c, 9, 64, 27
4, 104872, Note_on_c, 9, 64, 0
4, 104872, Note_on_c, 9, 42, 33
4, 104872, Note_on_c, 9, 42, 0
4, 104872, Note_on_c, 9, 36, 38
4, 104968, Note_on_c, 9, 36, 0
4, 104994, Note_on_c, 9, 73, 0
4, 105064, Note_on_c, 9, 42, 35
4, 105064, Note_on_c, 9, 42, 0
4, 105064, Note_on_c, 9, 76, 76
4, 105064, Note_on_c, 9, 36, 42
4, 105096, Note_on_c, 9, 74, 72
4, 105256, Note_on_c, 9, 36, 0
4, 105256, Note_on_c, 9, 76, 0
4, 105256, Note_on_c, 9, 42, 27
4, 105256, Note_on_c, 9, 42, 0
4, 105422, Note_on_c, 9, 74, 0
4, 105434, Note_on_c, 9, 73, 90
4, 105448, Note_on_c, 9, 37, 102
4, 105448, Note_on_c, 9, 63, 78
4, 105448, Note_on_c, 9, 42, 50
4, 105544, Note_on_c, 9, 37, 0
4, 105544, Note_on_c, 9, 73, 0
4, 105632, Note_on_c, 9, 73, 85
4, 105640, Note_on_c, 9, 63, 0
4, 105640, Note_on_c, 9, 42, 0
4, 105640, Note_on_c, 9, 42, 25
4, 105640, Note_on_c, 9, 42, 0
4, 105760, Note_on_c, 9, 73, 0
4, 105832, Note_on_c, 9, 40, 21
4, 105832, Note_on_c, 9, 76, 65
4, 105832, Note_on_c, 9, 36, 47
4, 105856, Note_on_c, 9, 74, 76
4, 105928, Note_on_c, 9, 36, 0
4, 106024, Note_on_c, 9, 40, 0
4, 106024, Note_on_c, 9, 42, 28
4, 106024, Note_on_c, 9, 42, 0
4, 106120, Note_on_c, 9, 76, 0
4, 106210, Note_on_c, 9, 74, 0
4, 106216, Note_on_c, 9, 64, 14
4, 106216, Note_on_c, 9, 64, 0
4, 106216, Note_on_c, 9, 42, 23
4, 106216, Note_on_c, 9, 42, 0
4, 106238, Note_on_c, 9, 73, 93
4, 106362, Note_on_c, 9, 73, 0
4, 106408, Note_on_c, 9, 76, 76
4, 106408, Note_on_c, 9, 64, 120
4, 106408, Note_on_c, 9, 42, 59
4, 106408, Note_on_c, 9, 42, 0
4, 106408, Note_on_c, 9, 36, 44
4, 106444, Note_on_c, 9, 73, 90
4, 106504, Note_on_c, 9, 36, 0
4, 106578, Note_on_c, 9, 73, 0
4, 106600, Note_on_c, 9, 42, 24
4, 106600, Note_on_c, 9, 42, 0
4, 106600, Note_on_c, 9, 36, 46
4, 106666, Note_on_c, 9, 74, 77
4, 106696, Note_on_c, 9, 64, 0
4, 106696, Note_on_c, 9, 76, 0
4, 106792, Note_on_c, 9, 36, 0
4, 106792, Note_on_c, 9, 63, 32
4, 106792, Note_on_c, 9, 42, 35
4, 106888, Note_on_c, 9, 63, 0
4, 106982, Note_on_c, 9, 74, 0
4, 106984, Note_on_c, 9, 42, 0
4, 106984, Note_on_c, 9, 40, 23
4, 106984, Note_on_c, 9, 63, 30
4, 106984, Note_on_c, 9, 76, 60
4, 107032, Note_on_c, 9, 73, 90
4, 107080, Note_on_c, 9, 63, 0
4, 107152, Note_on_c, 9, 73, 0
4, 107176, Note_on_c, 9, 76, 0
4, 107176, Note_on_c, 9, 40, 0
4, 107176, Note_on_c, 9, 63, 127
4, 107176, Note_on_c, 9, 42, 29
4, 107176, Note_on_c, 9, 42, 0
4, 107234, Note_on_c, 9, 73, 93
4, 107368, Note_on_c, 9, 73, 0
4, 107368, Note_on_c, 9, 63, 0
4, 107368, Note_on_c, 9, 42, 29
4, 107368, Note_on_c, 9, 42, 0
4, 107368, Note_on_c, 9, 36, 62
4, 107438, Note_on_c, 9, 74, 71
4, 107552, Note_on_c, 9, 36, 0
4, 107552, Note_on_c, 9, 42, 33
4, 107552, Note_on_c, 9, 42, 0
4, 107738, Note_on_c, 9, 74, 0
4, 107752, Note_on_c, 9, 76, 49
4, 107752, Note_on_c, 9, 64, 23
4, 107752, Note_on_c, 9, 64, 0
4, 107752, Note_on_c, 9, 42, 50
4, 107752, Note_on_c, 9, 42, 0
4, 107772, Note_on_c, 9, 73, 94
4, 107840, Note_on_c, 9, 76, 0
4, 107872, Note_on_c, 9, 73, 0
4, 107936, Note_on_c, 9, 42, 25
4, 107936, Note_on_c, 9, 42, 0
4, 107936, Note_on_c, 9, 64, 108
4, 107936, Note_on_c, 9, 36, 50
4, 107950, Note_on_c, 9, 73, 88
4, 108032, Note_on_c, 9, 36, 0
4, 108076, Note_on_c, 9, 73, 0
4, 108128, Note_on_c, 9, 64, 0
4, 108128, Note_on_c, 9, 76, 76
4, 108128, Note_on_c, 9, 42, 23
4, 108128, Note_on_c, 9, 42, 0
4, 108128, Note_on_c, 9, 36, 45
4, 108162, Note_on_c, 9, 74, 71
4, 108320, Note_on_c, 9, 36, 0
4, 108320, Note_on_c, 9, 76, 0
4, 108320, Note_on_c, 9, 63, 15
4, 108320, Note_on_c, 9, 42, 58
4, 108416, Note_on_c, 9, 63, 0
4, 108454, Note_on_c, 9, 74, 0
4, 108500, Note_on_c, 9, 73, 91
4, 108512, Note_on_c, 9, 42, 0
4, 108512, Note_on_c, 9, 42, 16
4, 108512, Note_on_c, 9, 42, 0
4, 108512, Note_on_c, 9, 63, 19
4, 108512, Note_on_c, 9, 37, 102
4, 108606, Note_on_c, 9, 73, 0
4, 108608, Note_on_c, 9, 37, 0
4, 108608, Note_on_c, 9, 63, 0
4, 108694, Note_on_c, 9, 73, 82
4, 108704, Note_on_c, 9, 42, 29
4, 108704, Note_on_c, 9, 42, 0
4, 108704, Note_on_c, 9, 63, 123
4, 108830, Note_on_c, 9, 73, 0
4, 108896, Note_on_c, 9, 42, 52
4, 108896, Note_on_c, 9, 42, 0
4, 108896, Note_on_c, 9, 76, 65
4, 108896, Note_on_c, 9, 36, 55
4, 108910, Note_on_c, 9, 74, 74
4, 108992, Note_on_c, 9, 63, 0
4, 109088, Note_on_c, 9, 36, 0
4, 109088, Note_on_c, 9, 42, 26
4, 109088, Note_on_c, 9, 42, 0
4, 109088, Note_on_c, 9, 64, 23
4, 109184, Note_on_c, 9, 64, 0
4, 109184, Note_on_c, 9, 76, 0
4, 109238, Note_on_c, 9, 74, 0
4, 109278, Note_on_c, 9, 73, 105
4, 109280, Note_on_c, 9, 40, 22
4, 109280, Note_on_c, 9, 64, 18
4, 109376, Note_on_c, 9, 64, 0
4, 109388, Note_on_c, 9, 73, 0
4, 109472, Note_on_c, 9, 40, 0
4, 109472, Note_on_c, 9, 76, 76
4, 109472, Note_on_c, 9, 42, 26
4, 109472, Note_on_c, 9, 42, 0
4, 109472, Note_on_c, 9, 64, 30
4, 109472, Note_on_c, 9, 36, 45
4, 109568, Note_on_c, 9, 36, 0
4, 109568, Note_on_c, 9, 64, 0
4, 109616, Note_on_c, 9, 73, 82
4, 109616, Note_on_c, 9, 73, 0
4, 109664, Note_on_c, 9, 42, 21
4, 109664, Note_on_c, 9, 42, 0
4, 109664, Note_on_c, 9, 36, 55
4, 109684, Note_on_c, 9, 74, 76
4, 109760, Note_on_c, 9, 76, 0
4, 109856, Note_on_c, 9, 42, 65
4, 109952, Note_on_c, 9, 36, 0
4, 109994, Note_on_c, 9, 74, 0
4, 110006, Note_on_c, 9, 73, 90
4, 110048, Note_on_c, 9, 42, 0
4, 110048, Note_on_c, 9, 76, 60
4, 110048, Note_on_c, 9, 42, 29
4, 110048, Note_on_c, 9, 42, 0
4, 110074, Note_on_c, 9, 73, 0
4, 110240, Note_on_c, 9, 76, 0
4, 110240, Note_on_c, 9, 76, 86
4, 110240, Note_on_c, 9, 42, 40
4, 110240, Note_on_c, 9, 42, 0
4, 110240, Note_on_c, 9, 73, 84
4, 110336, Note_on_c, 9, 76, 0
4, 110350, Note_on_c, 9, 73, 0
4, 110400, Note_on_c, 9, 74, 39
4, 110432, Note_on_c, 9, 42, 36
4, 110432, Note_on_c, 9, 36, 48
4, 110624, Note_on_c, 9, 36, 0
4, 110624, Note_on_c, 9, 42, 0
4, 110624, Note_on_c, 9, 42, 26
4, 110758, Note_on_c, 9, 74, 0
4, 110778, Note_on_c, 9, 73, 97
4, 110816, Note_on_c, 9, 42, 0
4, 110816, Note_on_c, 9, 76, 49
4, 110816, Note_on_c, 9, 42, 39
4, 110860, Note_on_c, 9, 73, 0
4, 110912, Note_on_c, 9, 76, 0
4, 110998, Note_on_c, 9, 73, 72
4, 111008, Note_on_c, 9, 42, 0
4, 111008, Note_on_c, 9, 42, 33
4, 111008, Note_on_c, 9, 42, 0
4, 111008, Note_on_c, 9, 63, 104
4, 111008, Note_on_c, 9, 36, 38
4, 111104, Note_on_c, 9, 36, 0
4, 111112, Note_on_c, 9, 73, 0
4, 111176, Note_on_c, 9, 74, 40
4, 111200, Note_on_c, 9, 42, 35
4, 111200, Note_on_c, 9, 42, 0
4, 111200, Note_on_c, 9, 76, 76
4, 111200, Note_on_c, 9, 36, 42
4, 111296, Note_on_c, 9, 63, 0
4, 111392, Note_on_c, 9, 36, 0
4, 111392, Note_on_c, 9, 76, 0
4, 111392, Note_on_c, 9, 42, 27
4, 111392, Note_on_c, 9, 42, 0
4, 111522, Note_on_c, 9, 74, 0
4, 111578, Note_on_c, 9, 73, 85
4, 111584, Note_on_c, 9, 37, 102
4, 111584, Note_on_c, 9, 42, 50
4, 111640, Note_on_c, 9, 73, 0
4, 111680, Note_on_c, 9, 37, 0
4, 111768, Note_on_c, 9, 73, 67
4, 111776, Note_on_c, 9, 42, 0
4, 111776, Note_on_c, 9, 64, 86
4, 111776, Note_on_c, 9, 42, 25
4, 111776, Note_on_c, 9, 42, 0
4, 111888, Note_on_c, 9, 73, 0
4, 111950, Note_on_c, 9, 74, 43
4, 111968, Note_on_c, 9, 64, 0
4, 111968, Note_on_c, 9, 40, 21
4, 111968, Note_on_c, 9, 76, 65
4, 111968, Note_on_c, 9, 36, 47
4, 112064, Note_on_c, 9, 36, 0
4, 112160, Note_on_c, 9, 40, 0
4, 112160, Note_on_c, 9, 42, 28
4, 112160, Note_on_c, 9, 42, 0
4, 112256, Note_on_c, 9, 76, 0
4, 112300, Note_on_c, 9, 74, 0
4, 112318, Note_on_c, 9, 73, 97
4, 112352, Note_on_c, 9, 63, 15
4, 112352, Note_on_c, 9, 42, 23
4, 112352, Note_on_c, 9, 42, 0
4, 112398, Note_on_c, 9, 73, 0
4, 112448, Note_on_c, 9, 63, 0
4, 112518, Note_on_c, 9, 73, 60
4, 112544, Note_on_c, 9, 42, 59
4, 112544, Note_on_c, 9, 42, 0
4, 112544, Note_on_c, 9, 63, 118
4, 112544, Note_on_c, 9, 76, 76
4, 112544, Note_on_c, 9, 36, 44
4, 112640, Note_on_c, 9, 36, 0
4, 112650, Note_on_c, 9, 73, 0
4, 112712, Note_on_c, 9, 74, 37
4, 112736, Note_on_c, 9, 63, 0
4, 112736, Note_on_c, 9, 42, 24
4, 112736, Note_on_c, 9, 42, 0
4, 112736, Note_on_c, 9, 36, 46
4, 112832, Note_on_c, 9, 76, 0
4, 112920, Note_on_c, 9, 36, 0
4, 112920, Note_on_c, 9, 42, 35
4, 113080, Note_on_c, 9, 74, 0
4, 113096, Note_on_c, 9, 73, 88
4, 113112, Note_on_c, 9, 42, 0
4, 113112, Note_on_c, 9, 40, 23
4, 113112, Note_on_c, 9, 76, 60
4, 113112, Note_on_c, 9, 64, 28
4, 113112, Note_on_c, 9, 64, 0
4, 113172, Note_on_c, 9, 73, 0
4, 113294, Note_on_c, 9, 73, 78
4, 113312, Note_on_c, 9, 76, 0
4, 113312, Note_on_c, 9, 40, 0
4, 113312, Note_on_c, 9, 57, 18
4, 113312, Note_on_c, 9, 64, 104
4, 113312, Note_on_c, 9, 42, 29
4, 113312, Note_on_c, 9, 42, 0
4, 113400, Note_on_c, 9, 57, 0
4, 113444, Note_on_c, 9, 73, 0
4, 113484, Note_on_c, 9, 74, 40
4, 113496, Note_on_c, 9, 64, 0
4, 113496, Note_on_c, 9, 42, 29
4, 113496, Note_on_c, 9, 42, 0
4, 113496, Note_on_c, 9, 36, 62
4, 113688, Note_on_c, 9, 36, 0
4, 113688, Note_on_c, 9, 42, 33
4, 113688, Note_on_c, 9, 42, 0
4, 113814, Note_on_c, 9, 74, 0
4, 113858, Note_on_c, 9, 73, 90
4, 113880, Note_on_c, 9, 76, 49
4, 113880, Note_on_c, 9, 42, 50
4, 113880, Note_on_c, 9, 42, 0
4, 113918, Note_on_c, 9, 73, 0
4, 113976, Note_on_c, 9, 76, 0
4, 114044, Note_on_c, 9, 73, 70
4, 114072, Note_on_c, 9, 63, 121
4, 114072, Note_on_c, 9, 42, 25
4, 114072, Note_on_c, 9, 42, 0
4, 114072, Note_on_c, 9, 36, 50
4, 114168, Note_on_c, 9, 36, 0
4, 114250, Note_on_c, 9, 74, 45
4, 114252, Note_on_c, 9, 73, 0
4, 114264, Note_on_c, 9, 76, 76
4, 114264, Note_on_c, 9, 42, 23
4, 114264, Note_on_c, 9, 42, 0
4, 114264, Note_on_c, 9, 36, 45
4, 114360, Note_on_c, 9, 63, 0
4, 114456, Note_on_c, 9, 36, 0
4, 114456, Note_on_c, 9, 76, 0
4, 114456, Note_on_c, 9, 42, 58
4, 114610, Note_on_c, 9, 74, 0
4, 114636, Note_on_c, 9, 73, 93
4, 114648, Note_on_c, 9, 42, 0
4, 114648, Note_on_c, 9, 37, 102
4, 114648, Note_on_c, 9, 42, 16
4, 114648, Note_on_c, 9, 42, 0
4, 114708, Note_on_c, 9, 73, 0
4, 114744, Note_on_c, 9, 37, 0
4, 114828, Note_on_c, 9, 73, 76
4, 114840, Note_on_c, 9, 42, 29
4, 114840, Note_on_c, 9, 42, 0
4, 114840, Note_on_c, 9, 64, 78
4, 114942, Note_on_c, 9, 73, 0
4, 115018, Note_on_c, 9, 74, 39
4, 115032, Note_on_c, 9, 64, 0
4, 115032, Note_on_c, 9, 76, 65
4, 115032, Note_on_c, 9, 42, 52
4, 115032, Note_on_c, 9, 42, 0
4, 115032, Note_on_c, 9, 36, 55
4, 115224, Note_on_c, 9, 36, 0
4, 115224, Note_on_c, 9, 42, 26
4, 115224, Note_on_c, 9, 42, 0
4, 115320, Note_on_c, 9, 76, 0
4, 115350, Note_on_c, 9, 74, 0
4, 115392, Note_on_c, 9, 73, 84
4, 115416, Note_on_c, 9, 40, 22
4, 115446, Note_on_c, 9, 73, 0
4, 115578, Note_on_c, 9, 73, 82
4, 115608, Note_on_c, 9, 40, 0
4, 115608, Note_on_c, 9, 42, 26
4, 115608, Note_on_c, 9, 42, 0
4, 115608, Note_on_c, 9, 76, 76
4, 115608, Note_on_c, 9, 63, 121
4, 115608, Note_on_c, 9, 36, 45
4, 115690, Note_on_c, 9, 73, 0
4, 115704, Note_on_c, 9, 36, 0
4, 115760, Note_on_c, 9, 74, 43
4, 115800, Note_on_c, 9, 42, 21
4, 115800, Note_on_c, 9, 42, 0
4, 115800, Note_on_c, 9, 36, 55
4, 115896, Note_on_c, 9, 76, 0
4, 115992, Note_on_c, 9, 63, 0
4, 115992, Note_on_c, 9, 64, 15
4, 115992, Note_on_c, 9, 42, 65
4, 116088, Note_on_c, 9, 64, 0
4, 116088, Note_on_c, 9, 36, 0
4, 116104, Note_on_c, 9, 74, 0
4, 116142, Note_on_c, 9, 73, 84
4, 116184, Note_on_c, 9, 42, 0
4, 116184, Note_on_c, 9, 42, 29
4, 116184, Note_on_c, 9, 42, 0
4, 116184, Note_on_c, 9, 76, 60
4, 116184, Note_on_c, 9, 64, 18
4, 116204, Note_on_c, 9, 73, 0
4, 116280, Note_on_c, 9, 64, 0
4, 116328, Note_on_c, 9, 73, 72
4, 116376, Note_on_c, 9, 76, 0
4, 116376, Note_on_c, 9, 42, 40
4, 116376, Note_on_c, 9, 42, 0
4, 116376, Note_on_c, 9, 64, 110
4, 116542, Note_on_c, 9, 74, 44
4, 116568, Note_on_c, 9, 64, 0
4, 116568, Note_on_c, 9, 42, 36
4, 116568, Note_on_c, 9, 36, 48
4, 116572, Note_on_c, 9, 73, 0
4, 116760, Note_on_c, 9, 36, 0
4, 116760, Note_on_c, 9, 42, 0
4, 116760, Note_on_c, 9, 42, 26
4, 116882, Note_on_c, 9, 74, 0
4, 116904, Note_on_c, 9, 73, 90
4, 116952, Note_on_c, 9, 42, 0
4, 116952, Note_on_c, 9, 76, 49
4, 116952, Note_on_c, 9, 42, 39
4, 116978, Note_on_c, 9, 73, 0
4, 117048, Note_on_c, 9, 76, 0
4, 117080, Note_on_c, 9, 73, 60
4, 117144, Note_on_c, 9, 42, 0
4, 117144, Note_on_c, 9, 63, 98
4, 117144, Note_on_c, 9, 42, 33
4, 117144, Note_on_c, 9, 42, 0
4, 117144, Note_on_c, 9, 36, 38
4, 117240, Note_on_c, 9, 36, 0
4, 117270, Note_on_c, 9, 73, 0
4, 117336, Note_on_c, 9, 76, 76
4, 117336, Note_on_c, 9, 42, 35
4, 117336, Note_on_c, 9, 42, 0
4, 117336, Note_on_c, 9, 36, 42
4, 117374, Note_on_c, 9, 74, 43
4, 117432, Note_on_c, 9, 63, 0
4, 117528, Note_on_c, 9, 76, 0
4, 117528, Note_on_c, 9, 36, 0
4, 117528, Note_on_c, 9, 42, 27
4, 117528, Note_on_c, 9, 42, 0
4, 117654, Note_on_c, 9, 74, 0
4, 117720, Note_on_c, 9, 37, 102
4, 117720, Note_on_c, 9, 64, 18
4, 117720, Note_on_c, 9, 42, 50
4, 117724, Note_on_c, 9, 73, 84
4, 117772, Note_on_c, 9, 73, 0
4, 117816, Note_on_c, 9, 37, 0
4, 117816, Note_on_c, 9, 64, 0
4, 117902, Note_on_c, 9, 73, 58
4, 117912, Note_on_c, 9, 42, 0
4, 117912, Note_on_c, 9, 42, 25
4, 117912, Note_on_c, 9, 42, 0
4, 117912, Note_on_c, 9, 64, 98
4, 118024, Note_on_c, 9, 73, 0
4, 118094, Note_on_c, 9, 74, 43
4, 118104, Note_on_c, 9, 64, 0
4, 118104, Note_on_c, 9, 76, 65
4, 118104, Note_on_c, 9, 40, 21
4, 118104, Note_on_c, 9, 36, 47
4, 118200, Note_on_c, 9, 36, 0
4, 118296, Note_on_c, 9, 40, 0
4, 118296, Note_on_c, 9, 42, 28
4, 118296, Note_on_c, 9, 42, 0
4, 118392, Note_on_c, 9, 76, 0
4, 118448, Note_on_c, 9, 74, 0
4, 118486, Note_on_c, 9, 73, 100
4, 118488, Note_on_c, 9, 63, 28
4, 118488, Note_on_c, 9, 63, 0
4, 118488, Note_on_c, 9, 42, 23
4, 118488, Note_on_c, 9, 42, 0
4, 118554, Note_on_c, 9, 73, 0
4, 118670, Note_on_c, 9, 73, 72
4, 118680, Note_on_c, 9, 63, 32
4, 118680, Note_on_c, 9, 42, 59
4, 118680, Note_on_c, 9, 42, 0
4, 118680, Note_on_c, 9, 76, 76
4, 118680, Note_on_c, 9, 76, 35
4, 118680, Note_on_c, 9, 36, 44
4, 118768, Note_on_c, 9, 36, 0
4, 118768, Note_on_c, 9, 76, 0
4, 118768, Note_on_c, 9, 63, 0
4, 118802, Note_on_c, 9, 73, 0
4, 118864, Note_on_c, 9, 42, 24
4, 118864, Note_on_c, 9, 42, 0
4, 118864, Note_on_c, 9, 63, 18
4, 118864, Note_on_c, 9, 36, 46
4, 118864, Note_on_c, 9, 74, 44
4, 118960, Note_on_c, 9, 63, 0
4, 118960, Note_on_c, 9, 76, 0
4, 119056, Note_on_c, 9, 36, 0
4, 119056, Note_on_c, 9, 42, 35
4, 119056, Note_on_c, 9, 63, 44
4, 119056, Note_on_c, 9, 76, 69
4, 119152, Note_on_c, 9, 76, 0
4, 119152, Note_on_c, 9, 63, 0
4, 119180, Note_on_c, 9, 74, 0
4, 119242, Note_on_c, 9, 73, 106
4, 119248, Note_on_c, 9, 42, 0
4, 119248, Note_on_c, 9, 63, 63
4, 119248, Note_on_c, 9, 40, 23
4, 119248, Note_on_c, 9, 76, 60
4, 119248, Note_on_c, 9, 76, 90
4, 119326, Note_on_c, 9, 73, 0
4, 119344, Note_on_c, 9, 76, 0
4, 119344, Note_on_c, 9, 63, 0
4, 119416, Note_on_c, 9, 73, 73
4, 119440, Note_on_c, 9, 40, 0
4, 119440, Note_on_c, 9, 76, 0
4, 119440, Note_on_c, 9, 42, 29
4, 119440, Note_on_c, 9, 42, 0
4, 119440, Note_on_c, 9, 76, 110
4, 119440, Note_on_c, 9, 63, 57
4, 119440, Note_on_c, 9, 76, 70
4, 119536, Note_on_c, 9, 63, 0
4, 119536, Note_on_c, 9, 76, 0
4, 119546, Note_on_c, 9, 73, 0
4, 119630, Note_on_c, 9, 74, 46
4, 119632, Note_on_c, 9, 76, 0
4, 119632, Note_on_c, 9, 42, 29
4, 119632, Note_on_c, 9, 42, 0
4, 119632, Note_on_c, 9, 36, 62
4, 119824, Note_on_c, 9, 36, 0
4, 119824, Note_on_c, 9, 42, 33
4, 119824, Note_on_c, 9, 42, 0
4, 119958, Note_on_c, 9, 74, 0
4, 120006, Note_on_c, 9, 73, 90
4, 120016, Note_on_c, 9, 76, 49
4, 120016, Note_on_c, 9, 42, 50
4, 120016, Note_on_c, 9, 42, 0
4, 120086, Note_on_c, 9, 73, 0
4, 120112, Note_on_c, 9, 76, 0
4, 120182, Note_on_c, 9, 73, 64
4, 120208, Note_on_c, 9, 63, 86
4, 120208, Note_on_c, 9, 42, 25
4, 120208, Note_on_c, 9, 42, 0
4, 120208, Note_on_c, 9, 36, 50
4, 120304, Note_on_c, 9, 36, 0
4, 120326, Note_on_c, 9, 73, 0
4, 120392, Note_on_c, 9, 74, 45
4, 120400, Note_on_c, 9, 63, 0
4, 120400, Note_on_c, 9, 42, 23
4, 120400, Note_on_c, 9, 42, 0
4, 120400, Note_on_c, 9, 76, 76
4, 120400, Note_on_c, 9, 36, 45
4, 120592, Note_on_c, 9, 36, 0
4, 120592, Note_on_c, 9, 76, 0
4, 120592, Note_on_c, 9, 42, 58
4, 120592, Note_on_c, 9, 63, 72
4, 120688, Note_on_c, 9, 63, 0
4, 120746, Note_on_c, 9, 74, 0
4, 120774, Note_on_c, 9, 73, 85
4, 120784, Note_on_c, 9, 42, 0
4, 120784, Note_on_c, 9, 42, 16
4, 120784, Note_on_c, 9, 42, 0
4, 120784, Note_on_c, 9, 37, 102
4, 120848, Note_on_c, 9, 73, 0
4, 120880, Note_on_c, 9, 37, 0
4, 120952, Note_on_c, 9, 73, 57
4, 120976, Note_on_c, 9, 42, 29
4, 120976, Note_on_c, 9, 42, 0
4, 121090, Note_on_c, 9, 73, 0
4, 121154, Note_on_c, 9, 74, 44
4, 121168, Note_on_c, 9, 76, 65
4, 121168, Note_on_c, 9, 42, 52
4, 121168, Note_on_c, 9, 42, 0
4, 121168, Note_on_c, 9, 64, 19
4, 121168, Note_on_c, 9, 64, 0
4, 121168, Note_on_c, 9, 36, 55
4, 121360, Note_on_c, 9, 36, 0
4, 121360, Note_on_c, 9, 42, 26
4, 121360, Note_on_c, 9, 42, 0
4, 121360, Note_on_c, 9, 64, 112
4, 121360, Note_on_c, 9, 59, 78
4, 121360, Note_on_c, 9, 59, 0
4, 121456, Note_on_c, 9, 64, 0
4, 121456, Note_on_c, 9, 76, 0
4, 121496, Note_on_c, 9, 74, 0
4, 121538, Note_on_c, 9, 73, 82
4, 121552, Note_on_c, 9, 40, 22
4, 121586, Note_on_c, 9, 73, 0
4, 121720, Note_on_c, 9, 73, 69
4, 121744, Note_on_c, 9, 40, 0
4, 121744, Note_on_c, 9, 42, 26
4, 121744, Note_on_c, 9, 42, 0
4, 121744, Note_on_c, 9, 63, 20
4, 121744, Note_on_c, 9, 76, 76
4, 121744, Note_on_c, 9, 36, 45
4, 121826, Note_on_c, 9, 73, 0
4, 121840, Note_on_c, 9, 63, 0
4, 121840, Note_on_c, 9, 36, 0
4, 121910, Note_on_c, 9, 74, 42
4, 121936, Note_on_c, 9, 42, 21
4, 121936, Note_on_c, 9, 42, 0
4, 121936, Note_on_c, 9, 63, 13
4, 121936, Note_on_c, 9, 36, 55
4, 122032, Note_on_c, 9, 63, 0
4, 122032, Note_on_c, 9, 76, 0
4, 122128, Note_on_c, 9, 63, 23
4, 122128, Note_on_c, 9, 42, 65
4, 122224, Note_on_c, 9, 63, 0
4, 122224, Note_on_c, 9, 36, 0
4, 122240, Note_on_c, 9, 74, 0
4, 122272, Note_on_c, 9, 73, 90
4, 122320, Note_on_c, 9, 42, 0
4, 122320, Note_on_c, 9, 42, 29
4, 122320, Note_on_c, 9, 42, 0
4, 122320, Note_on_c, 9, 76, 60
4, 122350, Note_on_c, 9, 73, 0
4, 122456, Note_on_c, 9, 73, 72
4, 122512, Note_on_c, 9, 76, 0
4, 122512, Note_on_c, 9, 42, 40
4, 122512, Note_on_c, 9, 42, 0
4, 122512, Note_on_c, 9, 76, 112
4, 122606, Note_on_c, 9, 73, 0
4, 122608, Note_on_c, 9, 76, 0
4, 122666, Note_on_c, 9, 74, 44
4, 122704, Note_on_c, 9, 42, 36
4, 122704, Note_on_c, 9, 36, 48
4, 122896, Note_on_c, 9, 36, 0
4, 122896, Note_on_c, 9, 42, 0
4, 122896, Note_on_c, 9, 42, 26
4, 123052, Note_on_c, 9, 74, 0
4, 123068, Note_on_c, 9, 73, 93
4, 123088, Note_on_c, 9, 42, 0
4, 123088, Note_on_c, 9, 76, 49
4, 123088, Note_on_c, 9, 64, 26
4, 123088, Note_on_c, 9, 64, 0
4, 123088, Note_on_c, 9, 42, 39
4, 123148, Note_on_c, 9, 73, 0
4, 123184, Note_on_c, 9, 76, 0
4, 123250, Note_on_c, 9, 73, 79
4, 123280, Note_on_c, 9, 42, 0
4, 123280, Note_on_c, 9, 42, 33
4, 123280, Note_on_c, 9, 42, 0
4, 123280, Note_on_c, 9, 64, 86
4, 123280, Note_on_c, 9, 36, 38
4, 123376, Note_on_c, 9, 36, 0
4, 123380, Note_on_c, 9, 73, 0
4, 123444, Note_on_c, 9, 74, 43
4, 123472, Note_on_c, 9, 64, 0
4, 123472, Note_on_c, 9, 42, 35
4, 123472, Note_on_c, 9, 42, 0
4, 123472, Note_on_c, 9, 76, 76
4, 123472, Note_on_c, 9, 36, 42
4, 123664, Note_on_c, 9, 36, 0
4, 123664, Note_on_c, 9, 76, 0
4, 123664, Note_on_c, 9, 42, 27
4, 123664, Note_on_c, 9, 42, 0
4, 123830, Note_on_c, 9, 74, 0
4, 123840, Note_on_c, 9, 73, 97
4, 123856, Note_on_c, 9, 42, 50
4, 123856, Note_on_c, 9, 37, 102
4, 123856, Note_on_c, 9, 63, 15
4, 123916, Note_on_c, 9, 73, 0
4, 123944, Note_on_c, 9, 63, 0
4, 123944, Note_on_c, 9, 37, 0
4, 124028, Note_on_c, 9, 73, 78
4, 124040, Note_on_c, 9, 42, 0
4, 124040, Note_on_c, 9, 63, 121
4, 124040, Note_on_c, 9, 42, 25
4, 124040, Note_on_c, 9, 42, 0
4, 124158, Note_on_c, 9, 73, 0
4, 124222, Note_on_c, 9, 74, 44
4, 124240, Note_on_c, 9, 40, 21
4, 124240, Note_on_c, 9, 76, 65
4, 124240, Note_on_c, 9, 36, 47
4, 124336, Note_on_c, 9, 36, 0
4, 124424, Note_on_c, 9, 40, 0
4, 124424, Note_on_c, 9, 63, 0
4, 124424, Note_on_c, 9, 42, 28
4, 124424, Note_on_c, 9, 42, 0
4, 124520, Note_on_c, 9, 76, 0
4, 124616, Note_on_c, 9, 64, 17
4, 124616, Note_on_c, 9, 64, 0
4, 124616, Note_on_c, 9, 42, 23
4, 124616, Note_on_c, 9, 42, 0
4, 124628, Note_on_c, 9, 74, 0
4, 124634, Note_on_c, 9, 73, 84
4, 124690, Note_on_c, 9, 73, 0
4, 124808, Note_on_c, 9, 76, 76
4, 124808, Note_on_c, 9, 64, 88
4, 124808, Note_on_c, 9, 42, 59
4, 124808, Note_on_c, 9, 42, 0
4, 124808, Note_on_c, 9, 36, 44
4, 124810, Note_on_c, 9, 73, 79
4, 124904, Note_on_c, 9, 36, 0
4, 124960, Note_on_c, 9, 73, 0
4, 125000, Note_on_c, 9, 42, 24
4, 125000, Note_on_c, 9, 42, 0
4, 125000, Note_on_c, 9, 36, 46
4, 125012, Note_on_c, 9, 74, 46
4, 125096, Note_on_c, 9, 76, 0
4, 125192, Note_on_c, 9, 36, 0
4, 125192, Note_on_c, 9, 42, 35
4, 125360, Note_on_c, 9, 74, 0
4, 125376, Note_on_c, 9, 73, 111
4, 125384, Note_on_c, 9, 42, 0
4, 125384, Note_on_c, 9, 64, 0
4, 125384, Note_on_c, 9, 76, 60
4, 125384, Note_on_c, 9, 40, 23
4, 125458, Note_on_c, 9, 73, 0
4, 125562, Note_on_c, 9, 73, 78
4, 125576, Note_on_c, 9, 40, 0
4, 125576, Note_on_c, 9, 76, 0
4, 125576, Note_on_c, 9, 42, 29
4, 125576, Note_on_c, 9, 42, 0
4, 125672, Note_on_c, 9, 76, 86
4, 125678, Note_on_c, 9, 73, 0
4, 125752, Note_on_c, 9, 74, 43
4, 125768, Note_on_c, 9, 76, 0
4, 125768, Note_on_c, 9, 42, 29
4, 125768, Note_on_c, 9, 42, 0
4, 125768, Note_on_c, 9, 64, 59
4, 125768, Note_on_c, 9, 36, 62
4, 125864, Note_on_c, 9, 64, 0
4, 125960, Note_on_c, 9, 36, 0
4, 125960, Note_on_c, 9, 42, 33
4, 125960, Note_on_c, 9, 42, 0
4, 126082, Note_on_c, 9, 74, 0
4, 126116, Note_on_c, 9, 73, 105
4, 126152, Note_on_c, 9, 64, 19
4, 126152, Note_on_c, 9, 76, 49
4, 126152, Note_on_c, 9, 42, 50
4, 126152, Note_on_c, 9, 42, 0
4, 126206, Note_on_c, 9, 73, 0
4, 126248, Note_on_c, 9, 76, 0
4, 126248, Note_on_c, 9, 64, 0
4, 126300, Note_on_c, 9, 73, 69
4, 126344, Note_on_c, 9, 64, 106
4, 126344, Note_on_c, 9, 42, 25
4, 126344, Note_on_c, 9, 42, 0
4, 126344, Note_on_c, 9, 36, 50
4, 126432, Note_on_c, 9, 73, 0
4, 126440, Note_on_c, 9, 36, 0
4, 126492, Note_on_c, 9, 74, 38
4, 126536, Note_on_c, 9, 42, 23
4, 126536, Note_on_c, 9, 42, 0
4, 126536, Note_on_c, 9, 76, 76
4, 126536, Note_on_c, 9, 36, 45
4, 126632, Note_on_c, 9, 64, 0
4, 126632, Note_on_c, 9, 64, 16
4, 126728, Note_on_c, 9, 36, 0
4, 126728, Note_on_c, 9, 76, 0
4, 126728, Note_on_c, 9, 42, 58
4, 126824, Note_on_c, 9, 74, 0
4, 126824, Note_on_c, 9, 64, 0
4, 126876, Note_on_c, 9, 73, 96
4, 126920, Note_on_c, 9, 42, 0
4, 126920, Note_on_c, 9, 37, 102
4, 126920, Note_on_c, 9, 42, 16
4, 126920, Note_on_c, 9, 42, 0
4, 126920, Note_on_c, 9, 63, 28
4, 126960, Note_on_c, 9, 73, 0
4, 127016, Note_on_c, 9, 63, 0
4, 127016, Note_on_c, 9, 37, 0
4, 127054, Note_on_c, 9, 73, 79
4, 127112, Note_on_c, 9, 42, 29
4, 127112, Note_on_c, 9, 42, 0
4, 127112, Note_on_c, 9, 63, 120
4, 127202, Note_on_c, 9, 73, 0
4, 127250, Note_on_c, 9, 74, 40
4, 127304, Note_on_c, 9, 76, 65
4, 127304, Note_on_c, 9, 42, 52
4, 127304, Note_on_c, 9, 42, 0
4, 127304, Note_on_c, 9, 36, 55
4, 127496, Note_on_c, 9, 36, 0
4, 127496, Note_on_c, 9, 42, 26
4, 127496, Note_on_c, 9, 42, 0
4, 127592, Note_on_c, 9, 76, 0
4, 127628, Note_on_c, 9, 74, 0
4, 127656, Note_on_c, 9, 73, 100
4, 127688, Note_on_c, 9, 63, 0
4, 127688, Note_on_c, 9, 40, 22
4, 127748, Note_on_c, 9, 73, 0
4, 127844, Note_on_c, 9, 73, 66
4, 127880, Note_on_c, 9, 40, 0
4, 127880, Note_on_c, 9, 64, 106
4, 127880, Note_on_c, 9, 76, 76
4, 127880, Note_on_c, 9, 42, 26
4, 127880, Note_on_c, 9, 42, 0
4, 127880, Note_on_c, 9, 36, 45
4, 127972, Note_on_c, 9, 73, 0
4, 127976, Note_on_c, 9, 36, 0
4, 128038, Note_on_c, 9, 74, 41
4, 128072, Note_on_c, 9, 42, 21
4, 128072, Note_on_c, 9, 42, 0
4, 128072, Note_on_c, 9, 36, 55
4, 128168, Note_on_c, 9, 76, 0
4, 128264, Note_on_c, 9, 42, 65
4, 128360, Note_on_c, 9, 36, 0
4, 128428, Note_on_c, 9, 74, 0
4, 128440, Note_on_c, 9, 73, 97
4, 128456, Note_on_c, 9, 64, 0
4, 128456, Note_on_c, 9, 42, 0
4, 128456, Note_on_c, 9, 76, 60
4, 128456, Note_on_c, 9, 42, 29
4, 128456, Note_on_c, 9, 42, 0
4, 128518, Note_on_c, 9, 73, 0
4, 128612, Note_on_c, 9, 73, 75
4, 128648, Note_on_c, 9, 76, 0
4, 128648, Note_on_c, 9, 42, 40
4, 128648, Note_on_c, 9, 42, 0
4, 128746, Note_on_c, 9, 73, 0
4, 128814, Note_on_c, 9, 74, 42
4, 128840, Note_on_c, 9, 42, 36
4, 128840, Note_on_c, 9, 36, 48
4, 129032, Note_on_c, 9, 36, 0
4, 129032, Note_on_c, 9, 42, 0
4, 129032, Note_on_c, 9, 42, 26
4, 129032, Note_on_c, 9, 64, 18
4, 129128, Note_on_c, 9, 64, 0
4, 129200, Note_on_c, 9, 74, 0
4, 129210, Note_on_c, 9, 73, 90
4, 129224, Note_on_c, 9, 42, 0
4, 129224, Note_on_c, 9, 76, 49
4, 129224, Note_on_c, 9, 42, 39
4, 129268, Note_on_c, 9, 73, 0
4, 129312, Note_on_c, 9, 76, 0
4, 129392, Note_on_c, 9, 73, 75
4, 129416, Note_on_c, 9, 42, 0
4, 129416, Note_on_c, 9, 42, 33
4, 129416, Note_on_c, 9, 42, 0
4, 129416, Note_on_c, 9, 64, 27
4, 129416, Note_on_c, 9, 64, 0
4, 129416, Note_on_c, 9, 36, 38
4, 129504, Note_on_c, 9, 36, 0
4, 129528, Note_on_c, 9, 73, 0
4, 129586, Note_on_c, 9, 74, 44
4, 129600, Note_on_c, 9, 42, 35
4, 129600, Note_on_c, 9, 42, 0
4, 129600, Note_on_c, 9, 76, 76
4, 129600, Note_on_c, 9, 36, 42
4, 129800, Note_on_c, 9, 36, 0
4, 129800, Note_on_c, 9, 76, 0
4, 129800, Note_on_c, 9, 42, 27
4, 129800, Note_on_c, 9, 42, 0
4, 129962, Note_on_c, 9, 74, 0
4, 129964, Note_on_c, 9, 73, 90
4, 129984, Note_on_c, 9, 42, 50
4, 129984, Note_on_c, 9, 37, 102
4, 129984, Note_on_c, 9, 63, 78
4, 130036, Note_on_c, 9, 73, 0
4, 130080, Note_on_c, 9, 37, 0
4, 130132, Note_on_c, 9, 73, 72
4, 130176, Note_on_c, 9, 42, 0
4, 130176, Note_on_c, 9, 63, 0
4, 130176, Note_on_c, 9, 42, 25
4, 130176, Note_on_c, 9, 42, 0
4, 130268, Note_on_c, 9, 73, 0
4, 130332, Note_on_c, 9, 74, 44
4, 130368, Note_on_c, 9, 76, 65
4, 130368, Note_on_c, 9, 40, 21
4, 130368, Note_on_c, 9, 36, 47
4, 130464, Note_on_c, 9, 36, 0
4, 130560, Note_on_c, 9, 40, 0
4, 130560, Note_on_c, 9, 42, 28
4, 130560, Note_on_c, 9, 42, 0
4, 130656, Note_on_c, 9, 76, 0
4, 130686, Note_on_c, 9, 74, 0
4, 130728, Note_on_c, 9, 73, 96
4, 130752, Note_on_c, 9, 42, 23
4, 130752, Note_on_c, 9, 42, 0
4, 130752, Note_on_c, 9, 64, 14
4, 130752, Note_on_c, 9, 64, 0
4, 130802, Note_on_c, 9, 73, 0
4, 130890, Note_on_c, 9, 73, 88
4, 130944, Note_on_c, 9, 64, 120
4, 130944, Note_on_c, 9, 42, 59
4, 130944, Note_on_c, 9, 42, 0
4, 130944, Note_on_c, 9, 76, 76
4, 130944, Note_on_c, 9, 36, 44
4, 131032, Note_on_c, 9, 73, 0
4, 131040, Note_on_c, 9, 36, 0
4, 131102, Note_on_c, 9, 74, 44
4, 131136, Note_on_c, 9, 42, 24
4, 131136, Note_on_c, 9, 42, 0
4, 131136, Note_on_c, 9, 36, 46
4, 131232, Note_on_c, 9, 64, 0
4, 131232, Note_on_c, 9, 76, 0
4, 131328, Note_on_c, 9, 36, 0
4, 131328, Note_on_c, 9, 63, 32
4, 131328, Note_on_c, 9, 42, 35
4, 131424, Note_on_c, 9, 63, 0
4, 131446, Note_on_c, 9, 74, 0
4, 131498, Note_on_c, 9, 73, 93
4, 131520, Note_on_c, 9, 42, 0
4, 131520, Note_on_c, 9, 63, 30
4, 131520, Note_on_c, 9, 40, 23
4, 131520, Note_on_c, 9, 76, 60
4, 131564, Note_on_c, 9, 73, 0
4, 131616, Note_on_c, 9, 63, 0
4, 131688, Note_on_c, 9, 73, 90
4, 131712, Note_on_c, 9, 40, 0
4, 131712, Note_on_c, 9, 76, 0
4, 131712, Note_on_c, 9, 42, 29
4, 131712, Note_on_c, 9, 42, 0
4, 131712, Note_on_c, 9, 63, 127
4, 131806, Note_on_c, 9, 73, 0
4, 131886, Note_on_c, 9, 74, 42
4, 131904, Note_on_c, 9, 63, 0
4, 131904, Note_on_c, 9, 42, 29
4, 131904, Note_on_c, 9, 42, 0
4, 131904, Note_on_c, 9, 36, 62
4, 132096, Note_on_c, 9, 36, 0
4, 132096, Note_on_c, 9, 42, 33
4, 132096, Note_on_c, 9, 42, 0
4, 132214, Note_on_c, 9, 74, 0
4, 132266, Note_on_c, 9, 73, 103
4, 132288, Note_on_c, 9, 64, 23
4, 132288, Note_on_c, 9, 64, 0
4, 132288, Note_on_c, 9, 42, 50
4, 132288, Note_on_c, 9, 42, 0
4, 132288, Note_on_c, 9, 76, 49
4, 132338, Note_on_c, 9, 73, 0
4, 132384, Note_on_c, 9, 76, 0
4, 132432, Note_on_c, 9, 73, 57
4, 132480, Note_on_c, 9, 64, 108
4, 132480, Note_on_c, 9, 42, 25
4, 132480, Note_on_c, 9, 42, 0
4, 132480, Note_on_c, 9, 36, 50
4, 132538, Note_on_c, 9, 73, 0
4, 132576, Note_on_c, 9, 36, 0
4, 132618, Note_on_c, 9, 74, 44
4, 132672, Note_on_c, 9, 64, 0
4, 132672, Note_on_c, 9, 42, 23
4, 132672, Note_on_c, 9, 42, 0
4, 132672, Note_on_c, 9, 76, 76
4, 132672, Note_on_c, 9, 36, 45
4, 132864, Note_on_c, 9, 36, 0
4, 132864, Note_on_c, 9, 76, 0
4, 132864, Note_on_c, 9, 63, 15
4, 132864, Note_on_c, 9, 42, 58
4, 132960, Note_on_c, 9, 63, 0
4, 132984, Note_on_c, 9, 74, 0
4, 133044, Note_on_c, 9, 73, 88
4, 133056, Note_on_c, 9, 42, 0
4, 133056, Note_on_c, 9, 37, 102
4, 133056, Note_on_c, 9, 63, 19
4, 133056, Note_on_c, 9, 42, 16
4, 133056, Note_on_c, 9, 42, 0
4, 133092, Note_on_c, 9, 73, 0
4, 133152, Note_on_c, 9, 63, 0
4, 133152, Note_on_c, 9, 37, 0
4, 133226, Note_on_c, 9, 73, 66
4, 133248, Note_on_c, 9, 63, 123
4, 133248, Note_on_c, 9, 42, 29
4, 133248, Note_on_c, 9, 42, 0
4, 133334, Note_on_c, 9, 73, 0
4, 133404, Note_on_c, 9, 74, 42
4, 133440, Note_on_c, 9, 76, 65
4, 133440, Note_on_c, 9, 42, 52
4, 133440, Note_on_c, 9, 42, 0
4, 133440, Note_on_c, 9, 36, 55
4, 133536, Note_on_c, 9, 63, 0
4, 133632, Note_on_c, 9, 36, 0
4, 133632, Note_on_c, 9, 64, 23
4, 133632, Note_on_c, 9, 42, 26
4, 133632, Note_on_c, 9, 42, 0
4, 133728, Note_on_c, 9, 64, 0
4, 133728, Note_on_c, 9, 76, 0
4, 133752, Note_on_c, 9, 74, 0
4, 133812, Note_on_c, 9, 73, 96
4, 133824, Note_on_c, 9, 40, 22
4, 133824, Note_on_c, 9, 64, 18
4, 133866, Note_on_c, 9, 73, 0
4, 133920, Note_on_c, 9, 64, 0
4, 133972, Note_on_c, 9, 73, 79
4, 134016, Note_on_c, 9, 40, 0
4, 134016, Note_on_c, 9, 76, 76
4, 134016, Note_on_c, 9, 42, 26
4, 134016, Note_on_c, 9, 42, 0
4, 134016, Note_on_c, 9, 64, 30
4, 134016, Note_on_c, 9, 36, 45
4, 134092, Note_on_c, 9, 73, 0
4, 134112, Note_on_c, 9, 36, 0
4, 134112, Note_on_c, 9, 64, 0
4, 134182, Note_on_c, 9, 74, 47
4, 134208, Note_on_c, 9, 42, 21
4, 134208, Note_on_c, 9, 42, 0
4, 134208, Note_on_c, 9, 51, 48
4, 134208, Note_on_c, 9, 51, 0
4, 134208, Note_on_c, 9, 36, 55
4, 134304, Note_on_c, 9, 76, 0
4, 134400, Note_on_c, 9, 42, 65
4, 134496, Note_on_c, 9, 36, 0
4, 134544, Note_on_c, 9, 74, 0
4, 134570, Note_on_c, 9, 73, 90
4, 134592, Note_on_c, 9, 42, 0
4, 134592, Note_on_c, 9, 76, 60
4, 134592, Note_on_c, 9, 42, 29
4, 134592, Note_on_c, 9, 42, 0
4, 134628, Note_on_c, 9, 73, 0
4, 134746, Note_on_c, 9, 73, 82
4, 134776, Note_on_c, 9, 76, 0
4, 134776, Note_on_c, 9, 42, 40
4, 134776, Note_on_c, 9, 42, 0
4, 134776, Note_on_c, 9, 76, 86
4, 134872, Note_on_c, 9, 76, 0
4, 134876, Note_on_c, 9, 73, 0
4, 134958, Note_on_c, 9, 74, 41
4, 134976, Note_on_c, 9, 42, 36
4, 134976, Note_on_c, 9, 36, 48
4, 135160, Note_on_c, 9, 36, 0
4, 135160, Note_on_c, 9, 42, 0
4, 135160, Note_on_c, 9, 42, 26
4, 135320, Note_on_c, 9, 74, 0
4, 135352, Note_on_c, 9, 42, 0
4, 135352, Note_on_c, 9, 76, 49
4, 135352, Note_on_c, 9, 42, 39
4, 135352, Note_on_c, 9, 73, 81
4, 135404, Note_on_c, 9, 73, 0
4, 135448, Note_on_c, 9, 76, 0
4, 135516, Note_on_c, 9, 73, 75
4, 135544, Note_on_c, 9, 42, 0
4, 135544, Note_on_c, 9, 63, 104
4, 135544, Note_on_c, 9, 42, 33
4, 135544, Note_on_c, 9, 42, 0
4, 135544, Note_on_c, 9, 36, 38
4, 135640, Note_on_c, 9, 36, 0
4, 135650, Note_on_c, 9, 73, 0
4, 135736, Note_on_c, 9, 76, 76
4, 135736, Note_on_c, 9, 42, 35
4, 135736, Note_on_c, 9, 42, 0
4, 135736, Note_on_c, 9, 36, 42
4, 135742, Note_on_c, 9, 74, 43
4, 135832, Note_on_c, 9, 63, 0
4, 135928, Note_on_c, 9, 76, 0
4, 135928, Note_on_c, 9, 36, 0
4, 135928, Note_on_c, 9, 42, 27
4, 135928, Note_on_c, 9, 42, 0
4, 136096, Note_on_c, 9, 74, 0
4, 136120, Note_on_c, 9, 42, 50
4, 136120, Note_on_c, 9, 37, 102
4, 136120, Note_on_c, 9, 73, 90
4, 136186, Note_on_c, 9, 73, 0
4, 136216, Note_on_c, 9, 37, 0
4, 136294, Note_on_c, 9, 73, 82
4, 136312, Note_on_c, 9, 42, 0
4, 136312, Note_on_c, 9, 42, 25
4, 136312, Note_on_c, 9, 42, 0
4, 136312, Note_on_c, 9, 64, 86
4, 136418, Note_on_c, 9, 73, 0
4, 136504, Note_on_c, 9, 64, 0
4, 136504, Note_on_c, 9, 40, 21
4, 136504, Note_on_c, 9, 76, 65
4, 136504, Note_on_c, 9, 36, 47
4, 136506, Note_on_c, 9, 74, 46
4, 136600, Note_on_c, 9, 36, 0
4, 136696, Note_on_c, 9, 40, 0
4, 136696, Note_on_c, 9, 42, 28
4, 136696, Note_on_c, 9, 42, 0
4, 136792, Note_on_c, 9, 76, 0
4, 136846, Note_on_c, 9, 74, 0
4, 136878, Note_on_c, 9, 73, 84
4, 136888, Note_on_c, 9, 63, 15
4, 136888, Note_on_c, 9, 42, 23
4, 136888, Note_on_c, 9, 42, 0
4, 136934, Note_on_c, 9, 73, 0
4, 136984, Note_on_c, 9, 63, 0
4, 137064, Note_on_c, 9, 73, 97
4, 137080, Note_on_c, 9, 63, 118
4, 137080, Note_on_c, 9, 76, 76
4, 137080, Note_on_c, 9, 42, 59
4, 137080, Note_on_c, 9, 42, 0
4, 137080, Note_on_c, 9, 36, 44
4, 137176, Note_on_c, 9, 36, 0
4, 137188, Note_on_c, 9, 73, 0
4, 137272, Note_on_c, 9, 63, 0
4, 137272, Note_on_c, 9, 42, 24
4, 137272, Note_on_c, 9, 42, 0
4, 137272, Note_on_c, 9, 36, 46
4, 137278, Note_on_c, 9, 74, 49
4, 137368, Note_on_c, 9, 76, 0
4, 137464, Note_on_c, 9, 36, 0
4, 137464, Note_on_c, 9, 42, 35
4, 137636, Note_on_c, 9, 74, 0
4, 137640, Note_on_c, 9, 73, 100
4, 137656, Note_on_c, 9, 42, 0
4, 137656, Note_on_c, 9, 76, 60
4, 137656, Note_on_c, 9, 40, 23
4, 137656, Note_on_c, 9, 64, 28
4, 137656, Note_on_c, 9, 64, 0
4, 137720, Note_on_c, 9, 73, 0
4, 137822, Note_on_c, 9, 73, 82
4, 137848, Note_on_c, 9, 40, 0
4, 137848, Note_on_c, 9, 76, 0
4, 137848, Note_on_c, 9, 64, 104
4, 137848, Note_on_c, 9, 57, 18
4, 137848, Note_on_c, 9, 42, 29
4, 137848, Note_on_c, 9, 42, 0
4, 137944, Note_on_c, 9, 57, 0
4, 137978, Note_on_c, 9, 73, 0
4, 138040, Note_on_c, 9, 64, 0
4, 138040, Note_on_c, 9, 42, 29
4, 138040, Note_on_c, 9, 42, 0
4, 138040, Note_on_c, 9, 36, 62
4, 138040, Note_on_c, 9, 74, 47
4, 138232, Note_on_c, 9, 36, 0
4, 138232, Note_on_c, 9, 42, 33
4, 138232, Note_on_c, 9, 42, 0
4, 138380, Note_on_c, 9, 74, 0
4, 138396, Note_on_c, 9, 73, 103
4, 138424, Note_on_c, 9, 42, 50
4, 138424, Note_on_c, 9, 42, 0
4, 138424, Note_on_c, 9, 76, 49
4, 138478, Note_on_c, 9, 73, 0
4, 138520, Note_on_c, 9, 76, 0
4, 138584, Note_on_c, 9, 73, 84
4, 138616, Note_on_c, 9, 63, 121
4, 138616, Note_on_c, 9, 42, 25
4, 138616, Note_on_c, 9, 42, 0
4, 138616, Note_on_c, 9, 36, 50
4, 138712, Note_on_c, 9, 36, 0
4, 138712, Note_on_c, 9, 73, 0
4, 138798, Note_on_c, 9, 74, 47
4, 138808, Note_on_c, 9, 76, 76
4, 138808, Note_on_c, 9, 42, 23
4, 138808, Note_on_c, 9, 42, 0
4, 138808, Note_on_c, 9, 36, 45
4, 138904, Note_on_c, 9, 63, 0
4, 139000, Note_on_c, 9, 36, 0
4, 139000, Note_on_c, 9, 76, 0
4, 139000, Note_on_c, 9, 42, 58
4, 139114, Note_on_c, 9, 74, 0
4, 139130, Note_on_c, 9, 73, 103
4, 139192, Note_on_c, 9, 42, 0
4, 139192, Note_on_c, 9, 37, 102
4, 139192, Note_on_c, 9, 42, 16
4, 139192, Note_on_c, 9, 42, 0
4, 139216, Note_on_c, 9, 73, 0
4, 139288, Note_on_c, 9, 37, 0
4, 139334, Note_on_c, 9, 73, 85
4, 139384, Note_on_c, 9, 64, 78
4, 139384, Note_on_c, 9, 42, 29
4, 139384, Note_on_c, 9, 42, 0
4, 139442, Note_on_c, 9, 73, 0
4, 139490, Note_on_c, 9, 73, 45
4, 139576, Note_on_c, 9, 64, 0
4, 139576, Note_on_c, 9, 76, 65
4, 139576, Note_on_c, 9, 42, 52
4, 139576, Note_on_c, 9, 42, 0
4, 139576, Note_on_c, 9, 36, 55
4, 139618, Note_on_c, 9, 74, 48
4, 139628, Note_on_c, 9, 73, 0
4, 139768, Note_on_c, 9, 36, 0
4, 139768, Note_on_c, 9, 42, 26
4, 139768, Note_on_c, 9, 42, 0
4, 139864, Note_on_c, 9, 76, 0
4, 139916, Note_on_c, 9, 74, 0
4, 139946, Note_on_c, 9, 73, 109
4, 139960, Note_on_c, 9, 40, 22
4, 140036, Note_on_c, 9, 73, 0
4, 140130, Note_on_c, 9, 73, 55
4, 140152, Note_on_c, 9, 40, 0
4, 140152, Note_on_c, 9, 76, 76
4, 140152, Note_on_c, 9, 42, 26
4, 140152, Note_on_c, 9, 42, 0
4, 140152, Note_on_c, 9, 63, 121
4, 140152, Note_on_c, 9, 36, 45
4, 140248, Note_on_c, 9, 36, 0
4, 140332, Note_on_c, 9, 73, 0
4, 140340, Note_on_c, 9, 74, 46
4, 140344, Note_on_c, 9, 42, 21
4, 140344, Note_on_c, 9, 42, 0
4, 140344, Note_on_c, 9, 36, 55
4, 140440, Note_on_c, 9, 76, 0
4, 140528, Note_on_c, 9, 63, 0
4, 140528, Note_on_c, 9, 42, 65
4, 140528, Note_on_c, 9, 64, 15
4, 140624, Note_on_c, 9, 64, 0
4, 140624, Note_on_c, 9, 36, 0
4, 140680, Note_on_c, 9, 74, 0
4, 140720, Note_on_c, 9, 42, 0
4, 140720, Note_on_c, 9, 64, 18
4, 140720, Note_on_c, 9, 42, 29
4, 140720, Note_on_c, 9, 42, 0
4, 140720, Note_on_c, 9, 76, 60
4, 140720, Note_on_c, 9, 73, 90
4, 140800, Note_on_c, 9, 73, 0
4, 140824, Note_on_c, 9, 64, 0
4, 140908, Note_on_c, 9, 73, 90
4, 140912, Note_on_c, 9, 76, 0
4, 140912, Note_on_c, 9, 42, 40
4, 140912, Note_on_c, 9, 42, 0
4, 140912, Note_on_c, 9, 64, 110
4, 141044, Note_on_c, 9, 73, 0
4, 141104, Note_on_c, 9, 64, 0
4, 141104, Note_on_c, 9, 42, 36
4, 141104, Note_on_c, 9, 36, 48
4, 141104, Note_on_c, 9, 74, 43
4, 141296, Note_on_c, 9, 36, 0
4, 141296, Note_on_c, 9, 42, 0
4, 141296, Note_on_c, 9, 42, 26
4, 141442, Note_on_c, 9, 74, 0
4, 141468, Note_on_c, 9, 73, 91
4, 141488, Note_on_c, 9, 42, 0
4, 141488, Note_on_c, 9, 42, 39
4, 141488, Note_on_c, 9, 76, 49
4, 141544, Note_on_c, 9, 73, 0
4, 141584, Note_on_c, 9, 76, 0
4, 141644, Note_on_c, 9, 73, 85
4, 141680, Note_on_c, 9, 42, 0
4, 141680, Note_on_c, 9, 63, 98
4, 141680, Note_on_c, 9, 42, 33
4, 141680, Note_on_c, 9, 42, 0
4, 141680, Note_on_c, 9, 36, 38
4, 141752, Note_on_c, 9, 73, 0
4, 141776, Note_on_c, 9, 36, 0
4, 141808, Note_on_c, 9, 73, 30
4, 141872, Note_on_c, 9, 73, 0
4, 141872, Note_on_c, 9, 42, 35
4, 141872, Note_on_c, 9, 42, 0
4, 141872, Note_on_c, 9, 76, 76
4, 141872, Note_on_c, 9, 36, 42
4, 141880, Note_on_c, 9, 74, 47
4, 141968, Note_on_c, 9, 63, 0
4, 142064, Note_on_c, 9, 76, 0
4, 142064, Note_on_c, 9, 36, 0
4, 142064, Note_on_c, 9, 42, 27
4, 142064, Note_on_c, 9, 42, 0
4, 142204, Note_on_c, 9, 74, 0
4, 142250, Note_on_c, 9, 73, 105
4, 142256, Note_on_c, 9, 42, 50
4, 142256, Note_on_c, 9, 37, 102
4, 142256, Note_on_c, 9, 64, 18
4, 142334, Note_on_c, 9, 73, 0
4, 142352, Note_on_c, 9, 64, 0
4, 142352, Note_on_c, 9, 37, 0
4, 142426, Note_on_c, 9, 73, 72
4, 142448, Note_on_c, 9, 42, 0
4, 142448, Note_on_c, 9, 42, 25
4, 142448, Note_on_c, 9, 42, 0
4, 142448, Note_on_c, 9, 64, 98
4, 142552, Note_on_c, 9, 73, 0
4, 142626, Note_on_c, 9, 74, 51
4, 142640, Note_on_c, 9, 64, 0
4, 142640, Note_on_c, 9, 76, 65
4, 142640, Note_on_c, 9, 40, 21
4, 142640, Note_on_c, 9, 36, 47
4, 142736, Note_on_c, 9, 36, 0
4, 142832, Note_on_c, 9, 40, 0
4, 142832, Note_on_c, 9, 42, 28
4, 142832, Note_on_c, 9, 42, 0
4, 142928, Note_on_c, 9, 76, 0
4, 142946, Note_on_c, 9, 74, 0
4, 143002, Note_on_c, 9, 73, 105
4, 143024, Note_on_c, 9, 42, 23
4, 143024, Note_on_c, 9, 42, 0
4, 143024, Note_on_c, 9, 63, 28
4, 143024, Note_on_c, 9, 63, 0
4, 143078, Note_on_c, 9, 73, 0
4, 143170, Note_on_c, 9, 73, 69
4, 143216, Note_on_c, 9, 76, 35
4, 143216, Note_on_c, 9, 63, 32
4, 143216, Note_on_c, 9, 76, 76
4, 143216, Note_on_c, 9, 42, 59
4, 143216, Note_on_c, 9, 42, 0
4, 143216, Note_on_c, 9, 36, 44
4, 143298, Note_on_c, 9, 73, 0
4, 143312, Note_on_c, 9, 76, 0
4, 143312, Note_on_c, 9, 36, 0
4, 143312, Note_on_c, 9, 63, 0
4, 143368, Note_on_c, 9, 74, 46
4, 143408, Note_on_c, 9, 42, 24
4, 143408, Note_on_c, 9, 42, 0
4, 143408, Note_on_c, 9, 63, 18
4, 143408, Note_on_c, 9, 36, 46
4, 143504, Note_on_c, 9, 63, 0
4, 143504, Note_on_c, 9, 76, 0
4, 143600, Note_on_c, 9, 36, 0
4, 143600, Note_on_c, 9, 63, 44
4, 143600, Note_on_c, 9, 76, 69
4, 143600, Note_on_c, 9, 42, 35
4, 143696, Note_on_c, 9, 76, 0
4, 143696, Note_on_c, 9, 63, 0
4, 143710, Note_on_c, 9, 74, 0
4, 143764, Note_on_c, 9, 73, 90
4, 143792, Note_on_c, 9, 42, 0
4, 143792, Note_on_c, 9, 40, 23
4, 143792, Note_on_c, 9, 63, 63
4, 143792, Note_on_c, 9, 76, 60
4, 143792, Note_on_c, 9, 76, 90
4, 143814, Note_on_c, 9, 73, 0
4, 143888, Note_on_c, 9, 76, 0
4, 143888, Note_on_c, 9, 63, 0
4, 143932, Note_on_c, 9, 73, 85
4, 143984, Note_on_c, 9, 40, 0
4, 143984, Note_on_c, 9, 76, 0
4, 143984, Note_on_c, 9, 76, 110
4, 143984, Note_on_c, 9, 63, 57
4, 143984, Note_on_c, 9, 42, 29
4, 143984, Note_on_c, 9, 42, 0
4, 143984, Note_on_c, 9, 76, 70
4, 144066, Note_on_c, 9, 73, 0
4, 144080, Note_on_c, 9, 76, 0
4, 144080, Note_on_c, 9, 63, 0
4, 144142, Note_on_c, 9, 74, 47
4, 144176, Note_on_c, 9, 76, 0
4, 144176, Note_on_c, 9, 42, 29
4, 144176, Note_on_c, 9, 42, 0
4, 144176, Note_on_c, 9, 36, 62
4, 144368, Note_on_c, 9, 36, 0
4, 144368, Note_on_c, 9, 42, 33
4, 144368, Note_on_c, 9, 42, 0
4, 144474, Note_on_c, 9, 74, 0
4, 144540, Note_on_c, 9, 73, 97
4, 144560, Note_on_c, 9, 42, 50
4, 144560, Note_on_c, 9, 42, 0
4, 144560, Note_on_c, 9, 76, 49
4, 144612, Note_on_c, 9, 73, 0
4, 144656, Note_on_c, 9, 76, 0
4, 144714, Note_on_c, 9, 73, 88
4, 144752, Note_on_c, 9, 42, 25
4, 144752, Note_on_c, 9, 42, 0
4, 144752, Note_on_c, 9, 63, 86
4, 144752, Note_on_c, 9, 36, 50
4, 144844, Note_on_c, 9, 73, 0
4, 144848, Note_on_c, 9, 36, 0
4, 144916, Note_on_c, 9, 74, 46
4, 144944, Note_on_c, 9, 63, 0
4, 144944, Note_on_c, 9, 76, 76
4, 144944, Note_on_c, 9, 42, 23
4, 144944, Note_on_c, 9, 42, 0
4, 144944, Note_on_c, 9, 36, 45
4, 145136, Note_on_c, 9, 36, 0
4, 145136, Note_on_c, 9, 76, 0
4, 145136, Note_on_c, 9, 63, 72
4, 145136, Note_on_c, 9, 42, 58
4, 145232, Note_on_c, 9, 63, 0
4, 145256, Note_on_c, 9, 74, 0
4, 145320, Note_on_c, 9, 73, 102
4, 145328, Note_on_c, 9, 42, 0
4, 145328, Note_on_c, 9, 37, 102
4, 145328, Note_on_c, 9, 42, 16
4, 145328, Note_on_c, 9, 42, 0
4, 145390, Note_on_c, 9, 73, 0
4, 145424, Note_on_c, 9, 37, 0
4, 145478, Note_on_c, 9, 73, 84
4, 145520, Note_on_c, 9, 42, 29
4, 145520, Note_on_c, 9, 42, 0
4, 145606, Note_on_c, 9, 73, 0
4, 145688, Note_on_c, 9, 74, 49
4, 145712, Note_on_c, 9, 42, 52
4, 145712, Note_on_c, 9, 42, 0
4, 145712, Note_on_c, 9, 64, 19
4, 145712, Note_on_c, 9, 64, 0
4, 145712, Note_on_c, 9, 76, 65
4, 145712, Note_on_c, 9, 36, 55
4, 145904, Note_on_c, 9, 36, 0
4, 145904, Note_on_c, 9, 42, 26
4, 145904, Note_on_c, 9, 42, 0
4, 145904, Note_on_c, 9, 59, 78
4, 145904, Note_on_c, 9, 59, 0
4, 145904, Note_on_c, 9, 64, 112
4, 146000, Note_on_c, 9, 64, 0
4, 146000, Note_on_c, 9, 76, 0
4, 146052, Note_on_c, 9, 74, 0
4, 146096, Note_on_c, 9, 40, 22
4, 146110, Note_on_c, 9, 73, 93
4, 146158, Note_on_c, 9, 73, 0
4, 146270, Note_on_c, 9, 73, 82
4, 146288, Note_on_c, 9, 40, 0
4, 146288, Note_on_c, 9, 42, 26
4, 146288, Note_on_c, 9, 42, 0
4, 146288, Note_on_c, 9, 76, 76
4, 146288, Note_on_c, 9, 63, 20
4, 146288, Note_on_c, 9, 36, 45
4, 146384, Note_on_c, 9, 36, 0
4, 146384, Note_on_c, 9, 63, 0
4, 146410, Note_on_c, 9, 73, 0
4, 146480, Note_on_c, 9, 42, 21
4, 146480, Note_on_c, 9, 42, 0
4, 146480, Note_on_c, 9, 63, 13
4, 146480, Note_on_c, 9, 36, 55
4, 146568, Note_on_c, 9, 63, 0
4, 146568, Note_on_c, 9, 76, 0
4, 146622, Note_on_c, 9, 74, 48
4, 146664, Note_on_c, 9, 42, 65
4, 146664, Note_on_c, 9, 63, 23
4, 146758, Note_on_c, 9, 74, 0
4, 146760, Note_on_c, 9, 36, 0
4, 146760, Note_on_c, 9, 63, 0
4, 146832, Note_on_c, 9, 73, 102
4, 146856, Note_on_c, 9, 42, 0
4, 146856, Note_on_c, 9, 42, 29
4, 146856, Note_on_c, 9, 42, 0
4, 146856, Note_on_c, 9, 76, 60
4, 146896, Note_on_c, 9, 73, 0
4, 146998, Note_on_c, 9, 73, 85
4, 147048, Note_on_c, 9, 76, 0
4, 147048, Note_on_c, 9, 76, 112
4, 147048, Note_on_c, 9, 42, 40
4, 147048, Note_on_c, 9, 42, 0
4, 147110, Note_on_c, 9, 73, 0
4, 147144, Note_on_c, 9, 76, 0
4, 147222, Note_on_c, 9, 74, 47
4, 147248, Note_on_c, 9, 42, 36
4, 147248, Note_on_c, 9, 36, 48
4, 147440, Note_on_c, 9, 36, 0
4, 147440, Note_on_c, 9, 42, 0
4, 147440, Note_on_c, 9, 42, 26
4, 147580, Note_on_c, 9, 74, 0
4, 147632, Note_on_c, 9, 42, 0
4, 147632, Note_on_c, 9, 40, 29
4, 147632, Note_on_c, 9, 42, 39
4, 147632, Note_on_c, 9, 76, 49
4, 147638, Note_on_c, 9, 73, 97
4, 147704, Note_on_c, 9, 73, 0
4, 147728, Note_on_c, 9, 76, 0
4, 147728, Note_on_c, 9, 40, 0
4, 147728, Note_on_c, 9, 40, 14
4, 147812, Note_on_c, 9, 73, 96
4, 147824, Note_on_c, 9, 40, 0
4, 147824, Note_on_c, 9, 42, 0
4, 147824, Note_on_c, 9, 42, 33
4, 147824, Note_on_c, 9, 42, 0
4, 147824, Note_on_c, 9, 40, 34
4, 147824, Note_on_c, 9, 36, 38
4, 147920, Note_on_c, 9, 36, 0
4, 147938, Note_on_c, 9, 73, 0
4, 148016, Note_on_c, 9, 40, 0
4, 148016, Note_on_c, 9, 40, 34
4, 148016, Note_on_c, 9, 76, 76
4, 148016, Note_on_c, 9, 42, 35
4, 148016, Note_on_c, 9, 42, 0
4, 148016, Note_on_c, 9, 36, 42
4, 148024, Note_on_c, 9, 74, 49
4, 148208, Note_on_c, 9, 36, 0
4, 148208, Note_on_c, 9, 40, 0
4, 148208, Note_on_c, 9, 76, 0
4, 148208, Note_on_c, 9, 42, 27
4, 148208, Note_on_c, 9, 42, 0
4, 148208, Note_on_c, 9, 40, 35
4, 148392, Note_on_c, 9, 74, 0
4, 148400, Note_on_c, 9, 40, 0
4, 148400, Note_on_c, 9, 37, 102
4, 148400, Note_on_c, 9, 42, 50
4, 148400, Note_on_c, 9, 40, 29
4, 148440, Note_on_c, 9, 73, 94
4, 148490, Note_on_c, 9, 73, 0
4, 148496, Note_on_c, 9, 37, 0
4, 148592, Note_on_c, 9, 40, 0
4, 148592, Note_on_c, 9, 42, 0
4, 148592, Note_on_c, 9, 42, 25
4, 148592, Note_on_c, 9, 42, 0
4, 148592, Note_on_c, 9, 64, 37
4, 148612, Note_on_c, 9, 73, 87
4, 148722, Note_on_c, 9, 73, 0
4, 148784, Note_on_c, 9, 64, 0
4, 148784, Note_on_c, 9, 64, 92
4, 148784, Note_on_c, 9, 76, 65
4, 148784, Note_on_c, 9, 40, 21
4, 148784, Note_on_c, 9, 36, 47
4, 148806, Note_on_c, 9, 74, 44
4, 148880, Note_on_c, 9, 36, 0
4, 148968, Note_on_c, 9, 40, 0
4, 148968, Note_on_c, 9, 64, 0
4, 148968, Note_on_c, 9, 42, 28
4, 148968, Note_on_c, 9, 42, 0
4, 149072, Note_on_c, 9, 76, 0
4, 149130, Note_on_c, 9, 74, 0
4, 149168, Note_on_c, 9, 42, 23
4, 149168, Note_on_c, 9, 42, 0
4, 149242, Note_on_c, 9, 73, 105
4, 149242, Note_on_c, 9, 73, 0
4, 149360, Note_on_c, 9, 76, 76
4, 149360, Note_on_c, 9, 42, 59
4, 149360, Note_on_c, 9, 42, 0
4, 149360, Note_on_c, 9, 36, 44
4, 149448, Note_on_c, 9, 36, 0
4, 149482, Note_on_c, 9, 73, 84
4, 149482, Note_on_c, 9, 73, 0
4, 149544, Note_on_c, 9, 42, 24
4, 149544, Note_on_c, 9, 42, 0
4, 149544, Note_on_c, 9, 36, 46
4, 149556, Note_on_c, 9, 74, 42
4, 149640, Note_on_c, 9, 76, 0
4, 149736, Note_on_c, 9, 36, 0
4, 149736, Note_on_c, 9, 42, 35
4, 149910, Note_on_c, 9, 74, 0
4, 149928, Note_on_c, 9, 42, 0
4, 149928, Note_on_c, 9, 76, 60
4, 149928, Note_on_c, 9, 40, 23
4, 149948, Note_on_c, 9, 73, 100
4, 150008, Note_on_c, 9, 73, 0
4, 150120, Note_on_c, 9, 40, 0
4, 150120, Note_on_c, 9, 76, 0
4, 150120, Note_on_c, 9, 42, 29
4, 150120, Note_on_c, 9, 42, 0
4, 150126, Note_on_c, 9, 73, 93
4, 150240, Note_on_c, 9, 73, 0
4, 150312, Note_on_c, 9, 42, 29
4, 150312, Note_on_c, 9, 42, 0
4, 150312, Note_on_c, 9, 36, 62
4, 150318, Note_on_c, 9, 74, 44
4, 150504, Note_on_c, 9, 36, 0
4, 150504, Note_on_c, 9, 42, 33
4, 150504, Note_on_c, 9, 42, 0
4, 150684, Note_on_c, 9, 74, 0
4, 150696, Note_on_c, 9, 40, 10
4, 150696, Note_on_c, 9, 42, 50
4, 150696, Note_on_c, 9, 42, 0
4, 150696, Note_on_c, 9, 76, 49
4, 150724, Note_on_c, 9, 73, 88
4, 150768, Note_on_c, 9, 73, 0
4, 150792, Note_on_c, 9, 76, 0
4, 150792, Note_on_c, 9, 40, 0
4, 150888, Note_on_c, 9, 40, 45
4, 150888, Note_on_c, 9, 42, 25
4, 150888, Note_on_c, 9, 42, 0
4, 150888, Note_on_c, 9, 36, 50
4, 150894, Note_on_c, 9, 73, 100
4, 150984, Note_on_c, 9, 36, 0
4, 151012, Note_on_c, 9, 73, 0
4, 151080, Note_on_c, 9, 42, 23
4, 151080, Note_on_c, 9, 42, 0
4, 151080, Note_on_c, 9, 76, 76
4, 151080, Note_on_c, 9, 36, 45
4, 151088, Note_on_c, 9, 74, 46
4, 151272, Note_on_c, 9, 36, 0
4, 151272, Note_on_c, 9, 40, 0
4, 151272, Note_on_c, 9, 76, 0
4, 151272, Note_on_c, 9, 42, 58
4, 151406, Note_on_c, 9, 74, 0
4, 151440, Note_on_c, 9, 73, 103
4, 151464, Note_on_c, 9, 42, 0
4, 151464, Note_on_c, 9, 42, 16
4, 151464, Note_on_c, 9, 42, 0
4, 151464, Note_on_c, 9, 37, 102
4, 151464, Note_on_c, 9, 64, 19
4, 151518, Note_on_c, 9, 73, 0
4, 151560, Note_on_c, 9, 64, 0
4, 151560, Note_on_c, 9, 37, 0
4, 151640, Note_on_c, 9, 73, 90
4, 151656, Note_on_c, 9, 42, 29
4, 151656, Note_on_c, 9, 42, 0
4, 151656, Note_on_c, 9, 76, 58
4, 151656, Note_on_c, 9, 64, 112
4, 151752, Note_on_c, 9, 76, 0
4, 151770, Note_on_c, 9, 73, 0
4, 151824, Note_on_c, 9, 74, 47
4, 151848, Note_on_c, 9, 64, 0
4, 151848, Note_on_c, 9, 42, 52
4, 151848, Note_on_c, 9, 42, 0
4, 151848, Note_on_c, 9, 76, 65
4, 151848, Note_on_c, 9, 36, 55
4, 152040, Note_on_c, 9, 36, 0
4, 152040, Note_on_c, 9, 42, 26
4, 152040, Note_on_c, 9, 42, 0
4, 152136, Note_on_c, 9, 76, 0
4, 152168, Note_on_c, 9, 74, 0
4, 152224, Note_on_c, 9, 73, 94
4, 152232, Note_on_c, 9, 40, 22
4, 152232, Note_on_c, 9, 40, 14
4, 152266, Note_on_c, 9, 73, 0
4, 152328, Note_on_c, 9, 40, 0
4, 152372, Note_on_c, 9, 73, 85
4, 152424, Note_on_c, 9, 40, 0
4, 152424, Note_on_c, 9, 76, 76
4, 152424, Note_on_c, 9, 42, 26
4, 152424, Note_on_c, 9, 42, 0
4, 152424, Note_on_c, 9, 40, 63
4, 152424, Note_on_c, 9, 36, 45
4, 152496, Note_on_c, 9, 73, 0
4, 152520, Note_on_c, 9, 36, 0
4, 152590, Note_on_c, 9, 74, 47
4, 152616, Note_on_c, 9, 42, 21
4, 152616, Note_on_c, 9, 42, 0
4, 152616, Note_on_c, 9, 36, 55
4, 152712, Note_on_c, 9, 76, 0
4, 152808, Note_on_c, 9, 40, 0
4, 152808, Note_on_c, 9, 42, 65
4, 152808, Note_on_c, 9, 64, 16
4, 152904, Note_on_c, 9, 64, 0
4, 152904, Note_on_c, 9, 36, 0
4, 152932, Note_on_c, 9, 73, 97
4, 152936, Note_on_c, 9, 74, 0
4, 153000, Note_on_c, 9, 42, 0
4, 153000, Note_on_c, 9, 76, 60
4, 153000, Note_on_c, 9, 42, 29
4, 153000, Note_on_c, 9, 42, 0
4, 153010, Note_on_c, 9, 73, 0
4, 153114, Note_on_c, 9, 73, 100
4, 153192, Note_on_c, 9, 76, 0
4, 153192, Note_on_c, 9, 42, 40
4, 153192, Note_on_c, 9, 42, 0
4, 153192, Note_on_c, 9, 64, 114
4, 153228, Note_on_c, 9, 73, 0
4, 153288, Note_on_c, 9, 64, 0
4, 153324, Note_on_c, 9, 74, 46
4, 153384, Note_on_c, 9, 42, 36
4, 153384, Note_on_c, 9, 36, 48
4, 153576, Note_on_c, 9, 36, 0
4, 153576, Note_on_c, 9, 42, 0
4, 153576, Note_on_c, 9, 42, 26
4, 153678, Note_on_c, 9, 74, 0
4, 153734, Note_on_c, 9, 73, 88
4, 153768, Note_on_c, 9, 42, 0
4, 153768, Note_on_c, 9, 76, 49
4, 153768, Note_on_c, 9, 42, 39
4, 153776, Note_on_c, 9, 73, 0
4, 153864, Note_on_c, 9, 76, 0
4, 153904, Note_on_c, 9, 73, 90
4, 153960, Note_on_c, 9, 42, 0
4, 153960, Note_on_c, 9, 42, 33
4, 153960, Note_on_c, 9, 42, 0
4, 153960, Note_on_c, 9, 40, 56
4, 153960, Note_on_c, 9, 36, 38
4, 154020, Note_on_c, 9, 73, 0
4, 154056, Note_on_c, 9, 36, 0
4, 154106, Note_on_c, 9, 74, 43
4, 154152, Note_on_c, 9, 76, 76
4, 154152, Note_on_c, 9, 42, 35
4, 154152, Note_on_c, 9, 42, 0
4, 154152, Note_on_c, 9, 36, 42
4, 154344, Note_on_c, 9, 36, 0
4, 154344, Note_on_c, 9, 76, 0
4, 154344, Note_on_c, 9, 40, 0
4, 154344, Note_on_c, 9, 64, 18
4, 154344, Note_on_c, 9, 42, 27
4, 154344, Note_on_c, 9, 42, 0
4, 154418, Note_on_c, 9, 74, 0
4, 154432, Note_on_c, 9, 64, 0
4, 154460, Note_on_c, 9, 73, 93
4, 154506, Note_on_c, 9, 73, 0
4, 154528, Note_on_c, 9, 42, 50
4, 154528, Note_on_c, 9, 37, 102
4, 154632, Note_on_c, 9, 37, 0
4, 154654, Note_on_c, 9, 73, 102
4, 154720, Note_on_c, 9, 42, 0
4, 154720, Note_on_c, 9, 64, 110
4, 154720, Note_on_c, 9, 42, 25
4, 154720, Note_on_c, 9, 42, 0
4, 154746, Note_on_c, 9, 73, 0
4, 154816, Note_on_c, 9, 64, 0
4, 154848, Note_on_c, 9, 74, 40
4, 154912, Note_on_c, 9, 76, 65
4, 154912, Note_on_c, 9, 40, 21
4, 154912, Note_on_c, 9, 36, 47
4, 155008, Note_on_c, 9, 36, 0
4, 155104, Note_on_c, 9, 40, 0
4, 155104, Note_on_c, 9, 42, 28
4, 155104, Note_on_c, 9, 42, 0
4, 155196, Note_on_c, 9, 74, 0
4, 155200, Note_on_c, 9, 76, 0
4, 155248, Note_on_c, 9, 73, 90
4, 155296, Note_on_c, 9, 42, 23
4, 155296, Note_on_c, 9, 42, 0
4, 155300, Note_on_c, 9, 73, 0
4, 155436, Note_on_c, 9, 73, 82
4, 155488, Note_on_c, 9, 76, 76
4, 155488, Note_on_c, 9, 42, 59
4, 155488, Note_on_c, 9, 42, 0
4, 155488, Note_on_c, 9, 36, 44
4, 155542, Note_on_c, 9, 73, 0
4, 155584, Note_on_c, 9, 36, 0
4, 155628, Note_on_c, 9, 74, 45
4, 155680, Note_on_c, 9, 42, 24
4, 155680, Note_on_c, 9, 42, 0
4, 155680, Note_on_c, 9, 36, 46
4, 155776, Note_on_c, 9, 76, 0
4, 155872, Note_on_c, 9, 36, 0
4, 155872, Note_on_c, 9, 42, 35
4, 156010, Note_on_c, 9, 74, 0
4, 156036, Note_on_c, 9, 73, 88
4, 156064, Note_on_c, 9, 42, 0
4, 156064, Note_on_c, 9, 40, 23
4, 156064, Note_on_c, 9, 40, 49
4, 156064, Note_on_c, 9, 76, 60
4, 156090, Note_on_c, 9, 73, 0
4, 156224, Note_on_c, 9, 73, 91
4, 156256, Note_on_c, 9, 40, 0
4, 156256, Note_on_c, 9, 76, 0
4, 156256, Note_on_c, 9, 40, 0
4, 156256, Note_on_c, 9, 64, 90
4, 156256, Note_on_c, 9, 42, 29
4, 156256, Note_on_c, 9, 42, 0
4, 156340, Note_on_c, 9, 73, 0
4, 156352, Note_on_c, 9, 64, 0
4, 156420, Note_on_c, 9, 74, 43
4, 156448, Note_on_c, 9, 42, 29
4, 156448, Note_on_c, 9, 42, 0
4, 156448, Note_on_c, 9, 64, 68
4, 156448, Note_on_c, 9, 36, 62
4, 156544, Note_on_c, 9, 64, 0
4, 156640, Note_on_c, 9, 36, 0
4, 156640, Note_on_c, 9, 42, 33
4, 156640, Note_on_c, 9, 42, 0
4, 156782, Note_on_c, 9, 74, 0
4, 156820, Note_on_c, 9, 73, 100
4, 156832, Note_on_c, 9, 76, 49
4, 156832, Note_on_c, 9, 42, 50
4, 156832, Note_on_c, 9, 42, 0
4, 156870, Note_on_c, 9, 73, 0
4, 156928, Note_on_c, 9, 76, 0
4, 157000, Note_on_c, 9, 73, 94
4, 157024, Note_on_c, 9, 42, 25
4, 157024, Note_on_c, 9, 42, 0
4, 157024, Note_on_c, 9, 40, 13
4, 157024, Note_on_c, 9, 36, 50
4, 157114, Note_on_c, 9, 73, 0
4, 157120, Note_on_c, 9, 36, 0
4, 157120, Note_on_c, 9, 40, 0
4, 157196, Note_on_c, 9, 74, 44
4, 157216, Note_on_c, 9, 40, 23
4, 157216, Note_on_c, 9, 76, 76
4, 157216, Note_on_c, 9, 42, 23
4, 157216, Note_on_c, 9, 42, 0
4, 157216, Note_on_c, 9, 36, 45
4, 157408, Note_on_c, 9, 36, 0
4, 157408, Note_on_c, 9, 76, 0
4, 157408, Note_on_c, 9, 40, 0
4, 157408, Note_on_c, 9, 42, 58
4, 157556, Note_on_c, 9, 74, 0
4, 157598, Note_on_c, 9, 73, 88
4, 157600, Note_on_c, 9, 42, 0
4, 157600, Note_on_c, 9, 42, 16
4, 157600, Note_on_c, 9, 42, 0
4, 157600, Note_on_c, 9, 64, 32
4, 157600, Note_on_c, 9, 37, 102
4, 157642, Note_on_c, 9, 73, 0
4, 157696, Note_on_c, 9, 37, 0
4, 157696, Note_on_c, 9, 64, 0
4, 157776, Note_on_c, 9, 73, 81
4, 157792, Note_on_c, 9, 42, 29
4, 157792, Note_on_c, 9, 42, 0
4, 157898, Note_on_c, 9, 73, 0
4, 157968, Note_on_c, 9, 74, 41
4, 157984, Note_on_c, 9, 42, 52
4, 157984, Note_on_c, 9, 42, 0
4, 157984, Note_on_c, 9, 76, 65
4, 157984, Note_on_c, 9, 36, 55
4, 158176, Note_on_c, 9, 36, 0
4, 158176, Note_on_c, 9, 42, 18
4, 158176, Note_on_c, 9, 42, 0
4, 158176, Note_on_c, 9, 42, 26
4, 158272, Note_on_c, 9, 42, 0
4, 158272, Note_on_c, 9, 76, 0
4, 158338, Note_on_c, 9, 74, 0
4, 158344, Note_on_c, 9, 73, 85
4, 158368, Note_on_c, 9, 42, 18
4, 158368, Note_on_c, 9, 40, 22
4, 158396, Note_on_c, 9, 73, 0
4, 158464, Note_on_c, 9, 42, 0
4, 158538, Note_on_c, 9, 73, 93
4, 158560, Note_on_c, 9, 40, 0
4, 158560, Note_on_c, 9, 76, 76
4, 158560, Note_on_c, 9, 42, 16
4, 158560, Note_on_c, 9, 42, 0
4, 158560, Note_on_c, 9, 42, 26
4, 158560, Note_on_c, 9, 36, 45
4, 158654, Note_on_c, 9, 73, 0
4, 158656, Note_on_c, 9, 36, 0
4, 158656, Note_on_c, 9, 42, 0
4, 158740, Note_on_c, 9, 74, 39
4, 158752, Note_on_c, 9, 42, 21
4, 158752, Note_on_c, 9, 42, 0
4, 158752, Note_on_c, 9, 42, 27
4, 158752, Note_on_c, 9, 36, 55
4, 158848, Note_on_c, 9, 42, 0
4, 158848, Note_on_c, 9, 76, 0
4, 158944, Note_on_c, 9, 42, 65
4, 158944, Note_on_c, 9, 42, 0
4, 158944, Note_on_c, 9, 42, 19
4, 159040, Note_on_c, 9, 36, 0
4, 159108, Note_on_c, 9, 74, 0
4, 159136, Note_on_c, 9, 42, 0
4, 159136, Note_on_c, 9, 42, 29
4, 159136, Note_on_c, 9, 42, 0
4, 159136, Note_on_c, 9, 76, 60
4, 159152, Note_on_c, 9, 73, 88
4, 159194, Note_on_c, 9, 73, 0
4, 159314, Note_on_c, 9, 73, 88
4, 159328, Note_on_c, 9, 76, 0
4, 159328, Note_on_c, 9, 42, 40
4, 159328, Note_on_c, 9, 42, 0
4, 159458, Note_on_c, 9, 73, 0
4, 159520, Note_on_c, 9, 42, 36
4, 159520, Note_on_c, 9, 36, 48
4, 159540, Note_on_c, 9, 74, 40
4, 159712, Note_on_c, 9, 36, 0
4, 159712, Note_on_c, 9, 42, 0
4, 159712, Note_on_c, 9, 42, 26
4, 159904, Note_on_c, 9, 42, 0
4, 159904, Note_on_c, 9, 42, 39
4, 159904, Note_on_c, 9, 76, 49
4, 159912, Note_on_c, 9, 74, 0
4, 159940, Note_on_c, 9, 73, 90
4, 160000, Note_on_c, 9, 76, 0
4, 160016, Note_on_c, 9, 73, 0
4, 160096, Note_on_c, 9, 42, 0
4, 160096, Note_on_c, 9, 42, 33
4, 160096, Note_on_c, 9, 42, 0
4, 160096, Note_on_c, 9, 36, 38
4, 160124, Note_on_c, 9, 73, 78
4, 160184, Note_on_c, 9, 36, 0
4, 160262, Note_on_c, 9, 73, 0
4, 160288, Note_on_c, 9, 40, 10
4, 160288, Note_on_c, 9, 42, 35
4, 160288, Note_on_c, 9, 42, 0
4, 160288, Note_on_c, 9, 76, 76
4, 160288, Note_on_c, 9, 36, 42
4, 160316, Note_on_c, 9, 74, 37
4, 160376, Note_on_c, 9, 40, 0
4, 160472, Note_on_c, 9, 76, 0
4, 160472, Note_on_c, 9, 36, 0
4, 160472, Note_on_c, 9, 40, 43
4, 160472, Note_on_c, 9, 40, 0
4, 160472, Note_on_c, 9, 42, 27
4, 160472, Note_on_c, 9, 42, 0
4, 160664, Note_on_c, 9, 37, 102
4, 160664, Note_on_c, 9, 40, 61
4, 160664, Note_on_c, 9, 40, 0
4, 160664, Note_on_c, 9, 42, 50
4, 160676, Note_on_c, 9, 74, 0
4, 160692, Note_on_c, 9, 73, 96
4, 160760, Note_on_c, 9, 37, 0
4, 160764, Note_on_c, 9, 73, 0
4, 160856, Note_on_c, 9, 42, 0
4, 160856, Note_on_c, 9, 42, 25
4, 160856, Note_on_c, 9, 42, 0
4, 160856, Note_on_c, 9, 40, 63
4, 160868, Note_on_c, 9, 73, 87
4, 160952, Note_on_c, 9, 40, 0
4, 160990, Note_on_c, 9, 73, 0
4, 161048, Note_on_c, 9, 40, 21
4, 161048, Note_on_c, 9, 64, 19
4, 161048, Note_on_c, 9, 76, 65
4, 161048, Note_on_c, 9, 36, 47
4, 161060, Note_on_c, 9, 74, 42
4, 161144, Note_on_c, 9, 36, 0
4, 161144, Note_on_c, 9, 64, 0
4, 161240, Note_on_c, 9, 40, 0
4, 161240, Note_on_c, 9, 42, 28
4, 161240, Note_on_c, 9, 42, 0
4, 161336, Note_on_c, 9, 76, 0
4, 161402, Note_on_c, 9, 74, 0
4, 161432, Note_on_c, 9, 42, 23
4, 161432, Note_on_c, 9, 42, 0
4, 161436, Note_on_c, 9, 73, 93
4, 161494, Note_on_c, 9, 73, 0
4, 161608, Note_on_c, 9, 73, 87
4, 161624, Note_on_c, 9, 76, 76
4, 161624, Note_on_c, 9, 42, 59
4, 161624, Note_on_c, 9, 42, 0
4, 161624, Note_on_c, 9, 36, 44
4, 161720, Note_on_c, 9, 36, 0
4, 161726, Note_on_c, 9, 73, 0
4, 161808, Note_on_c, 9, 74, 45
4, 161816, Note_on_c, 9, 42, 24
4, 161816, Note_on_c, 9, 42, 0
4, 161816, Note_on_c, 9, 36, 46
4, 161912, Note_on_c, 9, 76, 0
4, 162008, Note_on_c, 9, 36, 0
4, 162008, Note_on_c, 9, 42, 35
4, 162008, Note_on_c, 9, 42, 16
4, 162104, Note_on_c, 9, 42, 0
4, 162172, Note_on_c, 9, 74, 0
4, 162190, Note_on_c, 9, 73, 106
4, 162200, Note_on_c, 9, 42, 0
4, 162200, Note_on_c, 9, 76, 60
4, 162200, Note_on_c, 9, 40, 23
4, 162200, Note_on_c, 9, 42, 23
4, 162268, Note_on_c, 9, 73, 0
4, 162296, Note_on_c, 9, 42, 0
4, 162376, Note_on_c, 9, 73, 84
4, 162392, Note_on_c, 9, 40, 0
4, 162392, Note_on_c, 9, 76, 0
4, 162392, Note_on_c, 9, 42, 29
4, 162392, Note_on_c, 9, 42, 0
4, 162392, Note_on_c, 9, 53, 61
4, 162392, Note_on_c, 9, 36, 20
4, 162392, Note_on_c, 9, 36, 0
4, 162488, Note_on_c, 9, 53, 0
4, 162490, Note_on_c, 9, 73, 0
4, 162558, Note_on_c, 9, 74, 39
4, 162584, Note_on_c, 9, 42, 29
4, 162584, Note_on_c, 9, 42, 0
4, 162584, Note_on_c, 9, 36, 62
4, 162776, Note_on_c, 9, 36, 0
4, 162776, Note_on_c, 9, 42, 33
4, 162776, Note_on_c, 9, 42, 0
4, 162932, Note_on_c, 9, 74, 0
4, 162960, Note_on_c, 9, 73, 96
4, 162968, Note_on_c, 9, 42, 50
4, 162968, Note_on_c, 9, 42, 0
4, 162968, Note_on_c, 9, 76, 49
4, 163040, Note_on_c, 9, 73, 0
4, 163064, Note_on_c, 9, 76, 0
4, 163150, Note_on_c, 9, 73, 82
4, 163160, Note_on_c, 9, 42, 25
4, 163160, Note_on_c, 9, 42, 0
4, 163160, Note_on_c, 9, 36, 50
4, 163256, Note_on_c, 9, 36, 0
4, 163260, Note_on_c, 9, 73, 0
4, 163352, Note_on_c, 9, 40, 11
4, 163352, Note_on_c, 9, 76, 76
4, 163352, Note_on_c, 9, 42, 23
4, 163352, Note_on_c, 9, 42, 0
4, 163352, Note_on_c, 9, 36, 45
4, 163352, Note_on_c, 9, 74, 43
4, 163448, Note_on_c, 9, 40, 0
4, 163544, Note_on_c, 9, 76, 0
4, 163544, Note_on_c, 9, 36, 0
4, 163544, Note_on_c, 9, 40, 19
4, 163544, Note_on_c, 9, 40, 0
4, 163544, Note_on_c, 9, 42, 58
4, 163720, Note_on_c, 9, 74, 0
4, 163720, Note_on_c, 9, 73, 88
4, 163736, Note_on_c, 9, 42, 0
4, 163736, Note_on_c, 9, 37, 102
4, 163736, Note_on_c, 9, 40, 23
4, 163736, Note_on_c, 9, 42, 16
4, 163736, Note_on_c, 9, 42, 0
4, 163766, Note_on_c, 9, 73, 0
4, 163832, Note_on_c, 9, 40, 0
4, 163832, Note_on_c, 9, 37, 0
4, 163896, Note_on_c, 9, 73, 96
4, 163928, Note_on_c, 9, 42, 29
4, 163928, Note_on_c, 9, 42, 0
4, 163928, Note_on_c, 9, 40, 61
4, 164012, Note_on_c, 9, 73, 0
4, 164024, Note_on_c, 9, 40, 0
4, 164092, Note_on_c, 9, 74, 39
4, 164120, Note_on_c, 9, 42, 52
4, 164120, Note_on_c, 9, 42, 0
4, 164120, Note_on_c, 9, 76, 65
4, 164120, Note_on_c, 9, 40, 57
4, 164120, Note_on_c, 9, 36, 55
4, 164216, Note_on_c, 9, 40, 0
4, 164312, Note_on_c, 9, 36, 0
4, 164312, Note_on_c, 9, 42, 26
4, 164312, Note_on_c, 9, 42, 0
4, 164312, Note_on_c, 9, 64, 19
4, 164408, Note_on_c, 9, 64, 0
4, 164408, Note_on_c, 9, 76, 0
4, 164472, Note_on_c, 9, 74, 0
4, 164498, Note_on_c, 9, 73, 91
4, 164504, Note_on_c, 9, 40, 22
4, 164504, Note_on_c, 9, 64, 23
4, 164504, Note_on_c, 9, 64, 0
4, 164542, Note_on_c, 9, 73, 0
4, 164674, Note_on_c, 9, 73, 84
4, 164696, Note_on_c, 9, 40, 0
4, 164696, Note_on_c, 9, 42, 26
4, 164696, Note_on_c, 9, 42, 0
4, 164696, Note_on_c, 9, 76, 76
4, 164696, Note_on_c, 9, 64, 34
4, 164696, Note_on_c, 9, 64, 0
4, 164696, Note_on_c, 9, 36, 45
4, 164784, Note_on_c, 9, 73, 0
4, 164792, Note_on_c, 9, 36, 0
4, 164866, Note_on_c, 9, 74, 43
4, 164888, Note_on_c, 9, 64, 36
4, 164888, Note_on_c, 9, 42, 21
4, 164888, Note_on_c, 9, 42, 0
4, 164888, Note_on_c, 9, 36, 55
4, 164984, Note_on_c, 9, 64, 0
4, 164984, Note_on_c, 9, 76, 0
4, 165080, Note_on_c, 9, 42, 65
4, 165080, Note_on_c, 9, 64, 32
4, 165080, Note_on_c, 9, 64, 0
4, 165176, Note_on_c, 9, 36, 0
4, 165246, Note_on_c, 9, 74, 0
4, 165262, Note_on_c, 9, 73, 94
4, 165272, Note_on_c, 9, 42, 0
4, 165272, Note_on_c, 9, 76, 60
4, 165272, Note_on_c, 9, 42, 29
4, 165272, Note_on_c, 9, 42, 0
4, 165272, Note_on_c, 9, 64, 34
4, 165314, Note_on_c, 9, 73, 0
4, 165434, Note_on_c, 9, 73, 93
4, 165464, Note_on_c, 9, 64, 0
4, 165464, Note_on_c, 9, 76, 0
4, 165464, Note_on_c, 9, 42, 20
4, 165464, Note_on_c, 9, 42, 0
4, 165464, Note_on_c, 9, 42, 40
4, 165464, Note_on_c, 9, 42, 0
4, 165546, Note_on_c, 9, 73, 0
4, 165552, Note_on_c, 9, 42, 39
4, 165552, Note_on_c, 9, 42, 0
4, 165624, Note_on_c, 9, 74, 43
4, 165656, Note_on_c, 9, 42, 36
4, 165656, Note_on_c, 9, 42, 80
4, 165656, Note_on_c, 9, 36, 48
4, 165744, Note_on_c, 9, 42, 0
4, 165840, Note_on_c, 9, 36, 0
4, 165840, Note_on_c, 9, 42, 0
4, 165840, Note_on_c, 9, 40, 12
4, 165840, Note_on_c, 9, 42, 26
4, 165936, Note_on_c, 9, 40, 0
4, 166012, Note_on_c, 9, 74, 0
4, 166018, Note_on_c, 9, 73, 87
4, 166032, Note_on_c, 9, 42, 0
4, 166032, Note_on_c, 9, 76, 49
4, 166032, Note_on_c, 9, 40, 29
4, 166032, Note_on_c, 9, 40, 0
4, 166032, Note_on_c, 9, 42, 39
4, 166070, Note_on_c, 9, 73, 0
4, 166128, Note_on_c, 9, 76, 0
4, 166196, Note_on_c, 9, 73, 91
4, 166224, Note_on_c, 9, 42, 0
4, 166224, Note_on_c, 9, 42, 33
4, 166224, Note_on_c, 9, 42, 0
4, 166224, Note_on_c, 9, 40, 52
4, 166224, Note_on_c, 9, 36, 38
4, 166314, Note_on_c, 9, 73, 0
4, 166320, Note_on_c, 9, 36, 0
4, 166320, Note_on_c, 9, 40, 0
4, 166398, Note_on_c, 9, 74, 43
4, 166416, Note_on_c, 9, 76, 76
4, 166416, Note_on_c, 9, 40, 31
4, 166416, Note_on_c, 9, 42, 35
4, 166416, Note_on_c, 9, 42, 0
4, 166416, Note_on_c, 9, 36, 42
4, 166608, Note_on_c, 9, 36, 0
4, 166608, Note_on_c, 9, 40, 0
4, 166608, Note_on_c, 9, 76, 0
4, 166608, Note_on_c, 9, 42, 27
4, 166608, Note_on_c, 9, 42, 0
4, 166608, Note_on_c, 9, 64, 28
4, 166608, Note_on_c, 9, 64, 0
4, 166740, Note_on_c, 9, 74, 0
4, 166766, Note_on_c, 9, 73, 96
4, 166800, Note_on_c, 9, 37, 102
4, 166800, Note_on_c, 9, 42, 50
4, 166800, Note_on_c, 9, 64, 17
4, 166800, Note_on_c, 9, 64, 0
4, 166828, Note_on_c, 9, 73, 0
4, 166896, Note_on_c, 9, 37, 0
4, 166976, Note_on_c, 9, 73, 90
4, 166992, Note_on_c, 9, 42, 0
4, 166992, Note_on_c, 9, 40, 56
4, 166992, Note_on_c, 9, 42, 25
4, 166992, Note_on_c, 9, 42, 0
4, 167084, Note_on_c, 9, 73, 0
4, 167088, Note_on_c, 9, 40, 0
4, 167166, Note_on_c, 9, 74, 44
4, 167184, Note_on_c, 9, 76, 65
4, 167184, Note_on_c, 9, 40, 21
4, 167184, Note_on_c, 9, 40, 47
4, 167184, Note_on_c, 9, 36, 47
4, 167280, Note_on_c, 9, 36, 0
4, 167376, Note_on_c, 9, 40, 0
4, 167376, Note_on_c, 9, 40, 0
4, 167376, Note_on_c, 9, 42, 28
4, 167376, Note_on_c, 9, 42, 0
4, 167472, Note_on_c, 9, 76, 0
4, 167520, Note_on_c, 9, 74, 0
4, 167558, Note_on_c, 9, 73, 96
4, 167568, Note_on_c, 9, 64, 36
4, 167568, Note_on_c, 9, 42, 23
4, 167568, Note_on_c, 9, 42, 0
4, 167628, Note_on_c, 9, 73, 0
4, 167664, Note_on_c, 9, 64, 0
4, 167760, Note_on_c, 9, 76, 76
4, 167760, Note_on_c, 9, 42, 59
4, 167760, Note_on_c, 9, 42, 0
4, 167760, Note_on_c, 9, 36, 44
4, 167770, Note_on_c, 9, 73, 90
4, 167856, Note_on_c, 9, 36, 0
4, 167872, Note_on_c, 9, 73, 0
4, 167952, Note_on_c, 9, 42, 24
4, 167952, Note_on_c, 9, 42, 0
4, 167952, Note_on_c, 9, 36, 46
4, 167956, Note_on_c, 9, 74, 44
4, 168048, Note_on_c, 9, 76, 0
4, 168144, Note_on_c, 9, 36, 0
4, 168144, Note_on_c, 9, 42, 35
4, 168144, Note_on_c, 9, 40, 11
4, 168240, Note_on_c, 9, 40, 0
4, 168298, Note_on_c, 9, 74, 0
4, 168336, Note_on_c, 9, 42, 0
4, 168336, Note_on_c, 9, 40, 23
4, 168336, Note_on_c, 9, 76, 60
4, 168336, Note_on_c, 9, 40, 45
4, 168344, Note_on_c, 9, 73, 88
4, 168392, Note_on_c, 9, 73, 0
4, 168528, Note_on_c, 9, 40, 0
4, 168528, Note_on_c, 9, 76, 0
4, 168528, Note_on_c, 9, 40, 0
4, 168528, Note_on_c, 9, 42, 29
4, 168528, Note_on_c, 9, 42, 0
4, 168528, Note_on_c, 9, 64, 35
4, 168536, Note_on_c, 9, 73, 88
4, 168624, Note_on_c, 9, 64, 0
4, 168640, Note_on_c, 9, 73, 0
4, 168720, Note_on_c, 9, 64, 74
4, 168720, Note_on_c, 9, 42, 29
4, 168720, Note_on_c, 9, 42, 0
4, 168720, Note_on_c, 9, 36, 62
4, 168728, Note_on_c, 9, 74, 45
4, 168816, Note_on_c, 9, 64, 0
4, 168912, Note_on_c, 9, 36, 0
4, 168912, Note_on_c, 9, 42, 33
4, 168912, Note_on_c, 9, 42, 0
4, 169080, Note_on_c, 9, 74, 0
4, 169104, Note_on_c, 9, 76, 49
4, 169104, Note_on_c, 9, 42, 50
4, 169104, Note_on_c, 9, 42, 0
4, 169122, Note_on_c, 9, 73, 87
4, 169172, Note_on_c, 9, 73, 0
4, 169200, Note_on_c, 9, 76, 0
4, 169296, Note_on_c, 9, 40, 37
4, 169296, Note_on_c, 9, 42, 25
4, 169296, Note_on_c, 9, 42, 0
4, 169296, Note_on_c, 9, 36, 50
4, 169314, Note_on_c, 9, 73, 93
4, 169392, Note_on_c, 9, 36, 0
4, 169416, Note_on_c, 9, 73, 0
4, 169488, Note_on_c, 9, 42, 23
4, 169488, Note_on_c, 9, 42, 0
4, 169488, Note_on_c, 9, 76, 76
4, 169488, Note_on_c, 9, 36, 45
4, 169506, Note_on_c, 9, 74, 37
4, 169680, Note_on_c, 9, 36, 0
4, 169680, Note_on_c, 9, 76, 0
4, 169680, Note_on_c, 9, 42, 58
4, 169680, Note_on_c, 9, 64, 40
4, 169776, Note_on_c, 9, 64, 0
4, 169828, Note_on_c, 9, 74, 0
4, 169872, Note_on_c, 9, 42, 0
4, 169872, Note_on_c, 9, 40, 0
4, 169872, Note_on_c, 9, 37, 102
4, 169872, Note_on_c, 9, 64, 39
4, 169872, Note_on_c, 9, 42, 16
4, 169872, Note_on_c, 9, 42, 0
4, 169940, Note_on_c, 9, 73, 96
4, 169940, Note_on_c, 9, 73, 0
4, 169968, Note_on_c, 9, 64, 0
4, 169968, Note_on_c, 9, 37, 0
4, 170064, Note_on_c, 9, 42, 29
4, 170064, Note_on_c, 9, 42, 0
4, 170070, Note_on_c, 9, 73, 82
4, 170180, Note_on_c, 9, 73, 0
4, 170256, Note_on_c, 9, 76, 65
4, 170256, Note_on_c, 9, 42, 52
4, 170256, Note_on_c, 9, 42, 0
4, 170256, Note_on_c, 9, 36, 55
4, 170256, Note_on_c, 9, 74, 40
4, 170448, Note_on_c, 9, 36, 0
4, 170448, Note_on_c, 9, 42, 26
4, 170448, Note_on_c, 9, 42, 0
4, 170544, Note_on_c, 9, 76, 0
4, 170572, Note_on_c, 9, 74, 0
4, 170600, Note_on_c, 9, 73, 76
4, 170640, Note_on_c, 9, 40, 22
4, 170646, Note_on_c, 9, 73, 0
4, 170790, Note_on_c, 9, 73, 90
4, 170832, Note_on_c, 9, 40, 0
4, 170832, Note_on_c, 9, 76, 76
4, 170832, Note_on_c, 9, 42, 26
4, 170832, Note_on_c, 9, 42, 0
4, 170832, Note_on_c, 9, 36, 45
4, 170886, Note_on_c, 9, 73, 0
4, 170928, Note_on_c, 9, 36, 0
4, 170998, Note_on_c, 9, 74, 42
4, 171016, Note_on_c, 9, 42, 21
4, 171016, Note_on_c, 9, 42, 0
4, 171016, Note_on_c, 9, 36, 55
4, 171112, Note_on_c, 9, 76, 0
4, 171208, Note_on_c, 9, 42, 65
4, 171304, Note_on_c, 9, 36, 0
4, 171370, Note_on_c, 9, 74, 0
4, 171370, Note_on_c, 9, 73, 87
4, 171400, Note_on_c, 9, 42, 0
4, 171400, Note_on_c, 9, 76, 60
4, 171400, Note_on_c, 9, 42, 29
4, 171400, Note_on_c, 9, 42, 0
4, 171416, Note_on_c, 9, 73, 0
4, 171564, Note_on_c, 9, 73, 97
4, 171592, Note_on_c, 9, 76, 0
4, 171592, Note_on_c, 9, 42, 40
4, 171592, Note_on_c, 9, 42, 0
4, 171666, Note_on_c, 9, 73, 0
4, 171750, Note_on_c, 9, 74, 44
4, 171784, Note_on_c, 9, 42, 36
4, 171784, Note_on_c, 9, 36, 48
4, 171976, Note_on_c, 9, 36, 0
4, 171976, Note_on_c, 9, 42, 0
4, 171976, Note_on_c, 9, 42, 26
4, 172102, Note_on_c, 9, 74, 0
4, 172168, Note_on_c, 9, 42, 0
4, 172168, Note_on_c, 9, 76, 49
4, 172168, Note_on_c, 9, 42, 39
4, 172168, Note_on_c, 9, 73, 90
4, 172238, Note_on_c, 9, 73, 0
4, 172264, Note_on_c, 9, 76, 0
4, 172360, Note_on_c, 9, 42, 0
4, 172360, Note_on_c, 9, 42, 33
4, 172360, Note_on_c, 9, 42, 0
4, 172360, Note_on_c, 9, 36, 38
4, 172370, Note_on_c, 9, 73, 87
4, 172456, Note_on_c, 9, 36, 0
4, 172476, Note_on_c, 9, 73, 0
4, 172552, Note_on_c, 9, 76, 76
4, 172552, Note_on_c, 9, 42, 35
4, 172552, Note_on_c, 9, 42, 0
4, 172552, Note_on_c, 9, 36, 42
4, 172566, Note_on_c, 9, 74, 42
4, 172744, Note_on_c, 9, 36, 0
4, 172744, Note_on_c, 9, 76, 0
4, 172744, Note_on_c, 9, 64, 22
4, 172744, Note_on_c, 9, 64, 0
4, 172744, Note_on_c, 9, 42, 27
4, 172744, Note_on_c, 9, 42, 0
4, 172924, Note_on_c, 9, 74, 0
4, 172936, Note_on_c, 9, 64, 66
4, 172936, Note_on_c, 9, 37, 102
4, 172936, Note_on_c, 9, 42, 50
4, 172956, Note_on_c, 9, 73, 87
4, 173002, Note_on_c, 9, 73, 0
4, 173032, Note_on_c, 9, 64, 0
4, 173032, Note_on_c, 9, 37, 0
4, 173126, Note_on_c, 9, 73, 94
4, 173128, Note_on_c, 9, 42, 0
4, 173128, Note_on_c, 9, 42, 25
4, 173128, Note_on_c, 9, 42, 0
4, 173246, Note_on_c, 9, 73, 0
4, 173314, Note_on_c, 9, 74, 43
4, 173320, Note_on_c, 9, 76, 65
4, 173320, Note_on_c, 9, 40, 21
4, 173320, Note_on_c, 9, 36, 47
4, 173416, Note_on_c, 9, 36, 0
4, 173512, Note_on_c, 9, 40, 0
4, 173512, Note_on_c, 9, 42, 28
4, 173512, Note_on_c, 9, 42, 0
4, 173608, Note_on_c, 9, 76, 0
4, 173622, Note_on_c, 9, 74, 0
4, 173650, Note_on_c, 9, 73, 88
4, 173704, Note_on_c, 9, 42, 23
4, 173704, Note_on_c, 9, 42, 0
4, 173712, Note_on_c, 9, 73, 0
4, 173856, Note_on_c, 9, 73, 82
4, 173896, Note_on_c, 9, 76, 76
4, 173896, Note_on_c, 9, 42, 59
4, 173896, Note_on_c, 9, 42, 0
4, 173896, Note_on_c, 9, 36, 44
4, 173992, Note_on_c, 9, 36, 0
4, 174010, Note_on_c, 9, 73, 0
4, 174072, Note_on_c, 9, 74, 48
4, 174088, Note_on_c, 9, 42, 24
4, 174088, Note_on_c, 9, 42, 0
4, 174088, Note_on_c, 9, 36, 46
4, 174184, Note_on_c, 9, 76, 0
4, 174280, Note_on_c, 9, 36, 0
4, 174280, Note_on_c, 9, 42, 35
4, 174446, Note_on_c, 9, 74, 0
4, 174468, Note_on_c, 9, 73, 93
4, 174472, Note_on_c, 9, 42, 0
4, 174472, Note_on_c, 9, 64, 28
4, 174472, Note_on_c, 9, 40, 23
4, 174472, Note_on_c, 9, 76, 60
4, 174546, Note_on_c, 9, 73, 0
4, 174568, Note_on_c, 9, 64, 0
4, 174636, Note_on_c, 9, 73, 78
4, 174664, Note_on_c, 9, 40, 0
4, 174664, Note_on_c, 9, 76, 0
4, 174664, Note_on_c, 9, 42, 29
4, 174664, Note_on_c, 9, 42, 0
4, 174664, Note_on_c, 9, 64, 62
4, 174760, Note_on_c, 9, 64, 0
4, 174770, Note_on_c, 9, 73, 0
4, 174836, Note_on_c, 9, 74, 43
4, 174856, Note_on_c, 9, 64, 88
4, 174856, Note_on_c, 9, 42, 29
4, 174856, Note_on_c, 9, 42, 0
4, 174856, Note_on_c, 9, 36, 62
4, 174952, Note_on_c, 9, 64, 0
4, 175048, Note_on_c, 9, 36, 0
4, 175048, Note_on_c, 9, 42, 33
4, 175048, Note_on_c, 9, 42, 0
4, 175178, Note_on_c, 9, 74, 0
4, 175210, Note_on_c, 9, 73, 91
4, 175240, Note_on_c, 9, 42, 50
4, 175240, Note_on_c, 9, 42, 0
4, 175240, Note_on_c, 9, 76, 49
4, 175264, Note_on_c, 9, 73, 0
4, 175336, Note_on_c, 9, 76, 0
4, 175406, Note_on_c, 9, 73, 90
4, 175432, Note_on_c, 9, 42, 25
4, 175432, Note_on_c, 9, 42, 0
4, 175432, Note_on_c, 9, 36, 50
4, 175508, Note_on_c, 9, 73, 0
4, 175528, Note_on_c, 9, 36, 0
4, 175596, Note_on_c, 9, 74, 44
4, 175624, Note_on_c, 9, 42, 23
4, 175624, Note_on_c, 9, 42, 0
4, 175624, Note_on_c, 9, 76, 76
4, 175624, Note_on_c, 9, 36, 45
4, 175816, Note_on_c, 9, 36, 0
4, 175816, Note_on_c, 9, 76, 0
4, 175816, Note_on_c, 9, 42, 58
4, 175954, Note_on_c, 9, 74, 0
4, 175986, Note_on_c, 9, 73, 82
4, 176008, Note_on_c, 9, 42, 0
4, 176008, Note_on_c, 9, 42, 16
4, 176008, Note_on_c, 9, 42, 0
4, 176008, Note_on_c, 9, 37, 102
4, 176032, Note_on_c, 9, 73, 0
4, 176104, Note_on_c, 9, 37, 0
4, 176158, Note_on_c, 9, 73, 93
4, 176200, Note_on_c, 9, 42, 29
4, 176200, Note_on_c, 9, 42, 0
4, 176270, Note_on_c, 9, 73, 0
4, 176366, Note_on_c, 9, 74, 45
4, 176392, Note_on_c, 9, 76, 65
4, 176392, Note_on_c, 9, 42, 52
4, 176392, Note_on_c, 9, 42, 0
4, 176392, Note_on_c, 9, 36, 55
4, 176576, Note_on_c, 9, 36, 0
4, 176576, Note_on_c, 9, 42, 26
4, 176576, Note_on_c, 9, 42, 0
4, 176672, Note_on_c, 9, 76, 0
4, 176698, Note_on_c, 9, 74, 0
4, 176718, Note_on_c, 9, 73, 90
4, 176776, Note_on_c, 9, 73, 0
4, 176776, Note_on_c, 9, 40, 22
4, 176912, Note_on_c, 9, 73, 96
4, 176968, Note_on_c, 9, 40, 0
4, 176968, Note_on_c, 9, 42, 26
4, 176968, Note_on_c, 9, 42, 0
4, 176968, Note_on_c, 9, 76, 76
4, 176968, Note_on_c, 9, 36, 45
4, 177014, Note_on_c, 9, 73, 0
4, 177056, Note_on_c, 9, 36, 0
4, 177114, Note_on_c, 9, 74, 46
4, 177152, Note_on_c, 9, 42, 21
4, 177152, Note_on_c, 9, 42, 0
4, 177152, Note_on_c, 9, 36, 55
4, 177248, Note_on_c, 9, 76, 0
4, 177344, Note_on_c, 9, 42, 65
4, 177440, Note_on_c, 9, 36, 0
4, 177486, Note_on_c, 9, 74, 0
4, 177492, Note_on_c, 9, 73, 82
4, 177536, Note_on_c, 9, 42, 0
4, 177536, Note_on_c, 9, 42, 29
4, 177536, Note_on_c, 9, 42, 0
4, 177536, Note_on_c, 9, 76, 60
4, 177552, Note_on_c, 9, 73, 0
4, 177690, Note_on_c, 9, 73, 100
4, 177728, Note_on_c, 9, 76, 0
4, 177728, Note_on_c, 9, 42, 40
4, 177728, Note_on_c, 9, 42, 0
4, 177812, Note_on_c, 9, 73, 0
4, 177894, Note_on_c, 9, 74, 46
4, 177920, Note_on_c, 9, 42, 36
4, 177920, Note_on_c, 9, 36, 48
4, 178112, Note_on_c, 9, 36, 0
4, 178112, Note_on_c, 9, 42, 0
4, 178112, Note_on_c, 9, 42, 26
4, 178252, Note_on_c, 9, 74, 0
4, 178286, Note_on_c, 9, 73, 84
4, 178304, Note_on_c, 9, 42, 0
4, 178304, Note_on_c, 9, 76, 69
4, 178304, Note_on_c, 9, 42, 39
4, 178304, Note_on_c, 9, 76, 49
4, 178342, Note_on_c, 9, 73, 0
4, 178400, Note_on_c, 9, 76, 0
4, 178400, Note_on_c, 9, 76, 0
4, 178438, Note_on_c, 9, 73, 82
4, 178496, Note_on_c, 9, 42, 0
4, 178496, Note_on_c, 9, 42, 33
4, 178496, Note_on_c, 9, 42, 0
4, 178496, Note_on_c, 9, 36, 38
4, 178570, Note_on_c, 9, 73, 0
4, 178592, Note_on_c, 9, 36, 0
4, 178656, Note_on_c, 9, 74, 46
4, 178688, Note_on_c, 9, 42, 35
4, 178688, Note_on_c, 9, 42, 0
4, 178688, Note_on_c, 9, 76, 76
4, 178688, Note_on_c, 9, 36, 42
4, 178880, Note_on_c, 9, 36, 0
4, 178880, Note_on_c, 9, 76, 0
4, 178880, Note_on_c, 9, 42, 27
4, 178880, Note_on_c, 9, 42, 0
4, 178984, Note_on_c, 9, 74, 0
4, 179020, Note_on_c, 9, 73, 90
4, 179072, Note_on_c, 9, 42, 50
4, 179072, Note_on_c, 9, 37, 102
4, 179090, Note_on_c, 9, 73, 0
4, 179168, Note_on_c, 9, 37, 0
4, 179198, Note_on_c, 9, 73, 93
4, 179264, Note_on_c, 9, 42, 0
4, 179264, Note_on_c, 9, 42, 25
4, 179264, Note_on_c, 9, 42, 0
4, 179310, Note_on_c, 9, 73, 0
4, 179406, Note_on_c, 9, 74, 43
4, 179456, Note_on_c, 9, 76, 65
4, 179456, Note_on_c, 9, 40, 21
4, 179456, Note_on_c, 9, 36, 47
4, 179552, Note_on_c, 9, 36, 0
4, 179648, Note_on_c, 9, 40, 0
4, 179648, Note_on_c, 9, 42, 28
4, 179648, Note_on_c, 9, 42, 0
4, 179744, Note_on_c, 9, 76, 0
4, 179748, Note_on_c, 9, 74, 0
4, 179784, Note_on_c, 9, 73, 105
4, 179840, Note_on_c, 9, 42, 23
4, 179840, Note_on_c, 9, 42, 0
4, 179866, Note_on_c, 9, 73, 0
4, 179980, Note_on_c, 9, 73, 85
4, 180032, Note_on_c, 9, 42, 59
4, 180032, Note_on_c, 9, 42, 0
4, 180032, Note_on_c, 9, 76, 76
4, 180032, Note_on_c, 9, 36, 44
4, 180086, Note_on_c, 9, 73, 0
4, 180128, Note_on_c, 9, 36, 0
4, 180190, Note_on_c, 9, 74, 48
4, 180224, Note_on_c, 9, 42, 24
4, 180224, Note_on_c, 9, 42, 0
4, 180224, Note_on_c, 9, 36, 46
4, 180320, Note_on_c, 9, 76, 0
4, 180416, Note_on_c, 9, 36, 0
4, 180416, Note_on_c, 9, 76, 18
4, 180416, Note_on_c, 9, 42, 35
4, 180512, Note_on_c, 9, 76, 0
4, 180596, Note_on_c, 9, 74, 0
4, 180596, Note_on_c, 9, 73, 97
4, 180608, Note_on_c, 9, 42, 0
4, 180608, Note_on_c, 9, 76, 34
4, 180608, Note_on_c, 9, 76, 60
4, 180608, Note_on_c, 9, 40, 23
4, 180664, Note_on_c, 9, 73, 0
4, 180704, Note_on_c, 9, 76, 0
4, 180780, Note_on_c, 9, 73, 93
4, 180800, Note_on_c, 9, 76, 0
4, 180800, Note_on_c, 9, 40, 0
4, 180800, Note_on_c, 9, 42, 29
4, 180800, Note_on_c, 9, 42, 0
4, 180800, Note_on_c, 9, 76, 104
4, 180896, Note_on_c, 9, 76, 0
4, 180898, Note_on_c, 9, 73, 0
4, 180988, Note_on_c, 9, 74, 42
4, 180992, Note_on_c, 9, 42, 29
4, 180992, Note_on_c, 9, 42, 0
4, 180992, Note_on_c, 9, 36, 62
4, 181184, Note_on_c, 9, 36, 0
4, 181184, Note_on_c, 9, 42, 33
4, 181184, Note_on_c, 9, 42, 0
4, 181340, Note_on_c, 9, 74, 0
4, 181350, Note_on_c, 9, 73, 96
4, 181376, Note_on_c, 9, 76, 49
4, 181376, Note_on_c, 9, 42, 50
4, 181376, Note_on_c, 9, 42, 0
4, 181428, Note_on_c, 9, 73, 0
4, 181472, Note_on_c, 9, 76, 0
4, 181536, Note_on_c, 9, 73, 90
4, 181568, Note_on_c, 9, 42, 25
4, 181568, Note_on_c, 9, 42, 0
4, 181568, Note_on_c, 9, 36, 50
4, 181646, Note_on_c, 9, 73, 0
4, 181664, Note_on_c, 9, 36, 0
4, 181752, Note_on_c, 9, 74, 44
4, 181760, Note_on_c, 9, 76, 76
4, 181760, Note_on_c, 9, 42, 23
4, 181760, Note_on_c, 9, 42, 0
4, 181760, Note_on_c, 9, 36, 45
4, 181952, Note_on_c, 9, 36, 0
4, 181952, Note_on_c, 9, 76, 0
4, 181952, Note_on_c, 9, 42, 58
4, 182126, Note_on_c, 9, 74, 0
4, 182138, Note_on_c, 9, 73, 91
4, 182144, Note_on_c, 9, 42, 0
4, 182144, Note_on_c, 9, 37, 102
4, 182144, Note_on_c, 9, 42, 16
4, 182144, Note_on_c, 9, 42, 0
4, 182190, Note_on_c, 9, 73, 0
4, 182232, Note_on_c, 9, 37, 0
4, 182318, Note_on_c, 9, 73, 97
4, 182336, Note_on_c, 9, 42, 29
4, 182336, Note_on_c, 9, 42, 0
4, 182430, Note_on_c, 9, 73, 0
4, 182514, Note_on_c, 9, 74, 44
4, 182520, Note_on_c, 9, 76, 65
4, 182520, Note_on_c, 9, 42, 52
4, 182520, Note_on_c, 9, 42, 0
4, 182520, Note_on_c, 9, 36, 55
4, 182712, Note_on_c, 9, 36, 0
4, 182712, Note_on_c, 9, 76, 0
4, 182712, Note_on_c, 9, 42, 26
4, 182712, Note_on_c, 9, 42, 0
4, 182712, Note_on_c, 9, 76, 20
4, 182808, Note_on_c, 9, 76, 0
4, 182864, Note_on_c, 9, 74, 0
4, 182900, Note_on_c, 9, 73, 93
4, 182904, Note_on_c, 9, 40, 22
4, 182984, Note_on_c, 9, 73, 0
4, 183068, Note_on_c, 9, 73, 85
4, 183096, Note_on_c, 9, 40, 0
4, 183096, Note_on_c, 9, 76, 76
4, 183096, Note_on_c, 9, 42, 26
4, 183096, Note_on_c, 9, 42, 0
4, 183096, Note_on_c, 9, 76, 15
4, 183096, Note_on_c, 9, 36, 45
4, 183188, Note_on_c, 9, 73, 0
4, 183192, Note_on_c, 9, 76, 0
4, 183192, Note_on_c, 9, 36, 0
4, 183256, Note_on_c, 9, 74, 48
4, 183288, Note_on_c, 9, 76, 21
4, 183288, Note_on_c, 9, 42, 21
4, 183288, Note_on_c, 9, 42, 0
4, 183288, Note_on_c, 9, 36, 55
4, 183384, Note_on_c, 9, 76, 0
4, 183384, Note_on_c, 9, 76, 0
4, 183480, Note_on_c, 9, 76, 21
4, 183480, Note_on_c, 9, 42, 65
4, 183576, Note_on_c, 9, 76, 0
4, 183576, Note_on_c, 9, 36, 0
4, 183616, Note_on_c, 9, 74, 0
4, 183624, Note_on_c, 9, 73, 105
4, 183672, Note_on_c, 9, 42, 0
4, 183672, Note_on_c, 9, 42, 29
4, 183672, Note_on_c, 9, 42, 0
4, 183672, Note_on_c, 9, 76, 26
4, 183672, Note_on_c, 9, 76, 60
4, 183708, Note_on_c, 9, 73, 0
4, 183768, Note_on_c, 9, 76, 0
4, 183796, Note_on_c, 9, 73, 91
4, 183864, Note_on_c, 9, 76, 0
4, 183864, Note_on_c, 9, 42, 40
4, 183864, Note_on_c, 9, 42, 0
4, 183864, Note_on_c, 9, 76, 41
4, 183864, Note_on_c, 9, 76, 0
4, 183936, Note_on_c, 9, 73, 0
4, 184010, Note_on_c, 9, 74, 46
4, 184056, Note_on_c, 9, 42, 36
4, 184056, Note_on_c, 9, 36, 48
4, 184248, Note_on_c, 9, 36, 0
4, 184248, Note_on_c, 9, 42, 0
4, 184248, Note_on_c, 9, 42, 26
4, 184360, Note_on_c, 9, 74, 0
4, 184402, Note_on_c, 9, 73, 105
4, 184440, Note_on_c, 9, 42, 0
4, 184440, Note_on_c, 9, 42, 39
4, 184440, Note_on_c, 9, 76, 49
4, 184488, Note_on_c, 9, 73, 0
4, 184536, Note_on_c, 9, 76, 0
4, 184574, Note_on_c, 9, 73, 90
4, 184632, Note_on_c, 9, 42, 0
4, 184632, Note_on_c, 9, 42, 33
4, 184632, Note_on_c, 9, 42, 0
4, 184632, Note_on_c, 9, 36, 38
4, 184698, Note_on_c, 9, 73, 0
4, 184728, Note_on_c, 9, 36, 0
4, 184804, Note_on_c, 9, 74, 49
4, 184824, Note_on_c, 9, 42, 35
4, 184824, Note_on_c, 9, 42, 0
4, 184824, Note_on_c, 9, 76, 76
4, 184824, Note_on_c, 9, 36, 42
4, 185016, Note_on_c, 9, 36, 0
4, 185016, Note_on_c, 9, 76, 0
4, 185016, Note_on_c, 9, 42, 27
4, 185016, Note_on_c, 9, 42, 0
4, 185174, Note_on_c, 9, 74, 0
4, 185196, Note_on_c, 9, 73, 109
4, 185208, Note_on_c, 9, 37, 102
4, 185208, Note_on_c, 9, 42, 50
4, 185274, Note_on_c, 9, 73, 0
4, 185304, Note_on_c, 9, 37, 0
4, 185380, Note_on_c, 9, 73, 78
4, 185400, Note_on_c, 9, 42, 0
4, 185400, Note_on_c, 9, 64, 37
4, 185400, Note_on_c, 9, 42, 25
4, 185400, Note_on_c, 9, 42, 0
4, 185490, Note_on_c, 9, 73, 0
4, 185584, Note_on_c, 9, 74, 47
4, 185592, Note_on_c, 9, 64, 0
4, 185592, Note_on_c, 9, 76, 65
4, 185592, Note_on_c, 9, 64, 92
4, 185592, Note_on_c, 9, 40, 21
4, 185592, Note_on_c, 9, 36, 47
4, 185688, Note_on_c, 9, 36, 0
4, 185784, Note_on_c, 9, 64, 0
4, 185784, Note_on_c, 9, 40, 0
4, 185784, Note_on_c, 9, 42, 28
4, 185784, Note_on_c, 9, 42, 0
4, 185880, Note_on_c, 9, 76, 0
4, 185962, Note_on_c, 9, 73, 102
4, 185964, Note_on_c, 9, 74, 0
4, 185976, Note_on_c, 9, 42, 23
4, 185976, Note_on_c, 9, 42, 0
4, 186036, Note_on_c, 9, 73, 0
4, 186126, Note_on_c, 9, 73, 93
4, 186168, Note_on_c, 9, 76, 76
4, 186168, Note_on_c, 9, 42, 59
4, 186168, Note_on_c, 9, 42, 0
4, 186168, Note_on_c, 9, 36, 44
4, 186264, Note_on_c, 9, 36, 0
4, 186264, Note_on_c, 9, 73, 0
4, 186330, Note_on_c, 9, 74, 46
4, 186360, Note_on_c, 9, 42, 24
4, 186360, Note_on_c, 9, 42, 0
4, 186360, Note_on_c, 9, 36, 46
4, 186456, Note_on_c, 9, 76, 0
4, 186552, Note_on_c, 9, 36, 0
4, 186552, Note_on_c, 9, 42, 35
4, 186716, Note_on_c, 9, 73, 97
4, 186724, Note_on_c, 9, 74, 0
4, 186744, Note_on_c, 9, 42, 0
4, 186744, Note_on_c, 9, 76, 60
4, 186744, Note_on_c, 9, 40, 23
4, 186796, Note_on_c, 9, 73, 0
4, 186898, Note_on_c, 9, 73, 90
4, 186936, Note_on_c, 9, 40, 0
4, 186936, Note_on_c, 9, 76, 0
4, 186936, Note_on_c, 9, 42, 29
4, 186936, Note_on_c, 9, 42, 0
4, 187020, Note_on_c, 9, 73, 0
4, 187096, Note_on_c, 9, 74, 42
4, 187128, Note_on_c, 9, 42, 29
4, 187128, Note_on_c, 9, 42, 0
4, 187128, Note_on_c, 9, 36, 62
4, 187320, Note_on_c, 9, 36, 0
4, 187320, Note_on_c, 9, 42, 33
4, 187320, Note_on_c, 9, 42, 0
4, 187482, Note_on_c, 9, 74, 0
4, 187504, Note_on_c, 9, 76, 49
4, 187504, Note_on_c, 9, 42, 50
4, 187504, Note_on_c, 9, 42, 0
4, 187504, Note_on_c, 9, 40, 10
4, 187562, Note_on_c, 9, 73, 87
4, 187562, Note_on_c, 9, 73, 0
4, 187600, Note_on_c, 9, 40, 0
4, 187600, Note_on_c, 9, 76, 0
4, 187678, Note_on_c, 9, 73, 79
4, 187696, Note_on_c, 9, 40, 45
4, 187696, Note_on_c, 9, 42, 25
4, 187696, Note_on_c, 9, 42, 0
4, 187696, Note_on_c, 9, 36, 50
4, 187792, Note_on_c, 9, 36, 0
4, 187820, Note_on_c, 9, 73, 0
4, 187874, Note_on_c, 9, 74, 45
4, 187888, Note_on_c, 9, 76, 76
4, 187888, Note_on_c, 9, 42, 23
4, 187888, Note_on_c, 9, 42, 0
4, 187888, Note_on_c, 9, 36, 45
4, 188080, Note_on_c, 9, 36, 0
4, 188080, Note_on_c, 9, 76, 0
4, 188080, Note_on_c, 9, 40, 0
4, 188080, Note_on_c, 9, 42, 58
4, 188240, Note_on_c, 9, 74, 0
4, 188266, Note_on_c, 9, 73, 103
4, 188272, Note_on_c, 9, 42, 0
4, 188272, Note_on_c, 9, 42, 16
4, 188272, Note_on_c, 9, 42, 0
4, 188272, Note_on_c, 9, 37, 102
4, 188272, Note_on_c, 9, 64, 19
4, 188350, Note_on_c, 9, 73, 0
4, 188368, Note_on_c, 9, 64, 0
4, 188368, Note_on_c, 9, 37, 0
4, 188452, Note_on_c, 9, 73, 94
4, 188464, Note_on_c, 9, 76, 58
4, 188464, Note_on_c, 9, 64, 112
4, 188464, Note_on_c, 9, 42, 29
4, 188464, Note_on_c, 9, 42, 0
4, 188560, Note_on_c, 9, 76, 0
4, 188570, Note_on_c, 9, 73, 0
4, 188650, Note_on_c, 9, 74, 45
4, 188656, Note_on_c, 9, 64, 0
4, 188656, Note_on_c, 9, 42, 52
4, 188656, Note_on_c, 9, 42, 0
4, 188656, Note_on_c, 9, 76, 65
4, 188656, Note_on_c, 9, 36, 55
4, 188848, Note_on_c, 9, 36, 0
4, 188848, Note_on_c, 9, 42, 26
4, 188848, Note_on_c, 9, 42, 0
4, 188944, Note_on_c, 9, 76, 0
4, 189036, Note_on_c, 9, 74, 0
4, 189040, Note_on_c, 9, 40, 22
4, 189040, Note_on_c, 9, 40, 14
4, 189054, Note_on_c, 9, 73, 100
4, 189132, Note_on_c, 9, 73, 0
4, 189136, Note_on_c, 9, 40, 0
4, 189222, Note_on_c, 9, 73, 90
4, 189232, Note_on_c, 9, 40, 0
4, 189232, Note_on_c, 9, 40, 63
4, 189232, Note_on_c, 9, 76, 76
4, 189232, Note_on_c, 9, 42, 26
4, 189232, Note_on_c, 9, 42, 0
4, 189232, Note_on_c, 9, 36, 45
4, 189328, Note_on_c, 9, 36, 0
4, 189360, Note_on_c, 9, 73, 0
4, 189424, Note_on_c, 9, 42, 21
4, 189424, Note_on_c, 9, 42, 0
4, 189424, Note_on_c, 9, 36, 55
4, 189430, Note_on_c, 9, 74, 42
4, 189520, Note_on_c, 9, 76, 0
4, 189616, Note_on_c, 9, 40, 0
4, 189616, Note_on_c, 9, 42, 65
4, 189616, Note_on_c, 9, 64, 16
4, 189712, Note_on_c, 9, 64, 0
4, 189712, Note_on_c, 9, 36, 0
4, 189776, Note_on_c, 9, 74, 0
4, 189802, Note_on_c, 9, 73, 103
4, 189808, Note_on_c, 9, 42, 0
4, 189808, Note_on_c, 9, 42, 29
4, 189808, Note_on_c, 9, 42, 0
4, 189808, Note_on_c, 9, 76, 60
4, 189882, Note_on_c, 9, 73, 0
4, 189994, Note_on_c, 9, 73, 90
4, 190000, Note_on_c, 9, 76, 0
4, 190000, Note_on_c, 9, 64, 114
4, 190000, Note_on_c, 9, 42, 40
4, 190000, Note_on_c, 9, 42, 0
4, 190096, Note_on_c, 9, 64, 0
4, 190110, Note_on_c, 9, 73, 0
4, 190184, Note_on_c, 9, 74, 44
4, 190192, Note_on_c, 9, 42, 36
4, 190192, Note_on_c, 9, 36, 48
4, 190384, Note_on_c, 9, 36, 0
4, 190384, Note_on_c, 9, 42, 0
4, 190384, Note_on_c, 9, 42, 26
4, 190562, Note_on_c, 9, 73, 105
4, 190576, Note_on_c, 9, 42, 0
4, 190576, Note_on_c, 9, 42, 39
4, 190576, Note_on_c, 9, 76, 49
4, 190582, Note_on_c, 9, 74, 0
4, 190642, Note_on_c, 9, 73, 0
4, 190672, Note_on_c, 9, 76, 0
4, 190758, Note_on_c, 9, 73, 91
4, 190768, Note_on_c, 9, 42, 0
4, 190768, Note_on_c, 9, 42, 33
4, 190768, Note_on_c, 9, 42, 0
4, 190768, Note_on_c, 9, 40, 56
4, 190768, Note_on_c, 9, 36, 38
4, 190862, Note_on_c, 9, 73, 0
4, 190864, Note_on_c, 9, 36, 0
4, 190952, Note_on_c, 9, 74, 44
4, 190960, Note_on_c, 9, 76, 76
4, 190960, Note_on_c, 9, 42, 35
4, 190960, Note_on_c, 9, 42, 0
4, 190960, Note_on_c, 9, 36, 42
4, 191152, Note_on_c, 9, 36, 0
4, 191152, Note_on_c, 9, 76, 0
4, 191152, Note_on_c, 9, 40, 0
4, 191152, Note_on_c, 9, 42, 27
4, 191152, Note_on_c, 9, 42, 0
4, 191152, Note_on_c, 9, 64, 18
4, 191248, Note_on_c, 9, 64, 0
4, 191310, Note_on_c, 9, 74, 0
4, 191336, Note_on_c, 9, 73, 97
4, 191344, Note_on_c, 9, 42, 50
4, 191344, Note_on_c, 9, 37, 102
4, 191404, Note_on_c, 9, 73, 0
4, 191440, Note_on_c, 9, 37, 0
4, 191510, Note_on_c, 9, 73, 90
4, 191536, Note_on_c, 9, 42, 0
4, 191536, Note_on_c, 9, 42, 25
4, 191536, Note_on_c, 9, 42, 0
4, 191536, Note_on_c, 9, 64, 110
4, 191632, Note_on_c, 9, 64, 0
4, 191670, Note_on_c, 9, 73, 0
4, 191702, Note_on_c, 9, 74, 46
4, 191728, Note_on_c, 9, 40, 21
4, 191728, Note_on_c, 9, 76, 65
4, 191728, Note_on_c, 9, 36, 47
4, 191824, Note_on_c, 9, 36, 0
4, 191920, Note_on_c, 9, 40, 0
4, 191920, Note_on_c, 9, 42, 28
4, 191920, Note_on_c, 9, 42, 0
4, 192016, Note_on_c, 9, 76, 0
4, 192080, Note_on_c, 9, 74, 0
4, 192106, Note_on_c, 9, 73, 109
4, 192112, Note_on_c, 9, 42, 23
4, 192112, Note_on_c, 9, 42, 0
4, 192184, Note_on_c, 9, 73, 0
4, 192294, Note_on_c, 9, 73, 97
4, 192304, Note_on_c, 9, 76, 76
4, 192304, Note_on_c, 9, 42, 59
4, 192304, Note_on_c, 9, 42, 0
4, 192304, Note_on_c, 9, 36, 44
4, 192400, Note_on_c, 9, 36, 0
4, 192408, Note_on_c, 9, 73, 0
4, 192492, Note_on_c, 9, 74, 44
4, 192496, Note_on_c, 9, 42, 24
4, 192496, Note_on_c, 9, 42, 0
4, 192496, Note_on_c, 9, 36, 46
4, 192592, Note_on_c, 9, 76, 0
4, 192688, Note_on_c, 9, 36, 0
4, 192688, Note_on_c, 9, 42, 35
4, 192828, Note_on_c, 9, 74, 0
4, 192864, Note_on_c, 9, 73, 100
4, 192872, Note_on_c, 9, 42, 0
4, 192872, Note_on_c, 9, 40, 49
4, 192872, Note_on_c, 9, 76, 60
4, 192872, Note_on_c, 9, 40, 23
4, 192920, Note_on_c, 9, 73, 0
4, 193048, Note_on_c, 9, 73, 100
4, 193064, Note_on_c, 9, 40, 0
4, 193064, Note_on_c, 9, 40, 0
4, 193064, Note_on_c, 9, 76, 0
4, 193064, Note_on_c, 9, 64, 90
4, 193064, Note_on_c, 9, 42, 29
4, 193064, Note_on_c, 9, 42, 0
4, 193156, Note_on_c, 9, 73, 0
4, 193160, Note_on_c, 9, 64, 0
4, 193250, Note_on_c, 9, 74, 46
4, 193256, Note_on_c, 9, 42, 29
4, 193256, Note_on_c, 9, 42, 0
4, 193256, Note_on_c, 9, 64, 68
4, 193256, Note_on_c, 9, 36, 62
4, 193352, Note_on_c, 9, 64, 0
4, 193448, Note_on_c, 9, 36, 0
4, 193448, Note_on_c, 9, 42, 33
4, 193448, Note_on_c, 9, 42, 0
4, 193622, Note_on_c, 9, 74, 0
4, 193638, Note_on_c, 9, 73, 103
4, 193640, Note_on_c, 9, 42, 50
4, 193640, Note_on_c, 9, 42, 0
4, 193640, Note_on_c, 9, 76, 49
4, 193716, Note_on_c, 9, 73, 0
4, 193736, Note_on_c, 9, 76, 0
4, 193830, Note_on_c, 9, 73, 93
4, 193832, Note_on_c, 9, 40, 13
4, 193832, Note_on_c, 9, 42, 25
4, 193832, Note_on_c, 9, 42, 0
4, 193832, Note_on_c, 9, 36, 50
4, 193928, Note_on_c, 9, 36, 0
4, 193928, Note_on_c, 9, 40, 0
4, 193940, Note_on_c, 9, 73, 0
4, 194024, Note_on_c, 9, 40, 23
4, 194024, Note_on_c, 9, 76, 76
4, 194024, Note_on_c, 9, 42, 23
4, 194024, Note_on_c, 9, 42, 0
4, 194024, Note_on_c, 9, 36, 45
4, 194166, Note_on_c, 9, 74, 46
4, 194216, Note_on_c, 9, 36, 0
4, 194216, Note_on_c, 9, 40, 0
4, 194216, Note_on_c, 9, 76, 0
4, 194216, Note_on_c, 9, 42, 58
4, 194408, Note_on_c, 9, 42, 0
4, 194408, Note_on_c, 9, 64, 32
4, 194408, Note_on_c, 9, 42, 16
4, 194408, Note_on_c, 9, 42, 0
4, 194408, Note_on_c, 9, 37, 102
4, 194428, Note_on_c, 9, 74, 0
4, 194428, Note_on_c, 9, 73, 103
4, 194488, Note_on_c, 9, 73, 0
4, 194504, Note_on_c, 9, 37, 0
4, 194504, Note_on_c, 9, 64, 0
4, 194594, Note_on_c, 9, 73, 103
4, 194600, Note_on_c, 9, 42, 29
4, 194600, Note_on_c, 9, 42, 0
4, 194724, Note_on_c, 9, 73, 0
4, 194792, Note_on_c, 9, 42, 52
4, 194792, Note_on_c, 9, 42, 0
4, 194792, Note_on_c, 9, 76, 65
4, 194792, Note_on_c, 9, 36, 55
4, 194794, Note_on_c, 9, 74, 43
4, 194984, Note_on_c, 9, 36, 0
4, 194984, Note_on_c, 9, 42, 18
4, 194984, Note_on_c, 9, 42, 0
4, 194984, Note_on_c, 9, 42, 26
4, 195080, Note_on_c, 9, 42, 0
4, 195080, Note_on_c, 9, 76, 0
4, 195176, Note_on_c, 9, 40, 22
4, 195176, Note_on_c, 9, 42, 18
4, 195196, Note_on_c, 9, 74, 0
4, 195196, Note_on_c, 9, 73, 96
4, 195254, Note_on_c, 9, 73, 0
4, 195272, Note_on_c, 9, 42, 0
4, 195364, Note_on_c, 9, 73, 90
4, 195368, Note_on_c, 9, 40, 0
4, 195368, Note_on_c, 9, 42, 26
4, 195368, Note_on_c, 9, 42, 0
4, 195368, Note_on_c, 9, 42, 16
4, 195368, Note_on_c, 9, 76, 76
4, 195368, Note_on_c, 9, 36, 45
4, 195464, Note_on_c, 9, 36, 0
4, 195464, Note_on_c, 9, 42, 0
4, 195478, Note_on_c, 9, 73, 0
4, 195558, Note_on_c, 9, 74, 39
4, 195560, Note_on_c, 9, 42, 21
4, 195560, Note_on_c, 9, 42, 0
4, 195560, Note_on_c, 9, 42, 27
4, 195560, Note_on_c, 9, 36, 55
4, 195656, Note_on_c, 9, 42, 0
4, 195656, Note_on_c, 9, 76, 0
4, 195752, Note_on_c, 9, 42, 19
4, 195752, Note_on_c, 9, 42, 0
4, 195752, Note_on_c, 9, 42, 65
4, 195848, Note_on_c, 9, 36, 0
4, 195852, Note_on_c, 9, 74, 0
4, 195896, Note_on_c, 9, 73, 93
4, 195944, Note_on_c, 9, 42, 0
4, 195944, Note_on_c, 9, 42, 29
4, 195944, Note_on_c, 9, 42, 0
4, 195944, Note_on_c, 9, 76, 60
4, 195978, Note_on_c, 9, 73, 0
4, 196102, Note_on_c, 9, 73, 100
4, 196136, Note_on_c, 9, 76, 0
4, 196136, Note_on_c, 9, 42, 40
4, 196136, Note_on_c, 9, 42, 0
4, 196236, Note_on_c, 9, 73, 0
4, 196306, Note_on_c, 9, 74, 40
4, 196328, Note_on_c, 9, 42, 36
4, 196328, Note_on_c, 9, 36, 48
4, 196520, Note_on_c, 9, 36, 0
4, 196520, Note_on_c, 9, 42, 0
4, 196520, Note_on_c, 9, 42, 26
4, 196688, Note_on_c, 9, 73, 100
4, 196694, Note_on_c, 9, 74, 0
4, 196712, Note_on_c, 9, 42, 0
4, 196712, Note_on_c, 9, 42, 39
4, 196712, Note_on_c, 9, 76, 49
4, 196756, Note_on_c, 9, 73, 0
4, 196808, Note_on_c, 9, 76, 0
4, 196888, Note_on_c, 9, 73, 96
4, 196904, Note_on_c, 9, 42, 0
4, 196904, Note_on_c, 9, 42, 33
4, 196904, Note_on_c, 9, 42, 0
4, 196904, Note_on_c, 9, 36, 38
4, 196998, Note_on_c, 9, 73, 0
4, 197000, Note_on_c, 9, 36, 0
4, 197084, Note_on_c, 9, 74, 40
4, 197096, Note_on_c, 9, 42, 35
4, 197096, Note_on_c, 9, 42, 0
4, 197096, Note_on_c, 9, 40, 10
4, 197096, Note_on_c, 9, 76, 76
4, 197096, Note_on_c, 9, 36, 42
4, 197192, Note_on_c, 9, 40, 0
4, 197288, Note_on_c, 9, 36, 0
4, 197288, Note_on_c, 9, 76, 0
4, 197288, Note_on_c, 9, 42, 27
4, 197288, Note_on_c, 9, 42, 0
4, 197288, Note_on_c, 9, 40, 43
4, 197288, Note_on_c, 9, 40, 0
4, 197426, Note_on_c, 9, 74, 0
4, 197452, Note_on_c, 9, 73, 103
4, 197480, Note_on_c, 9, 40, 61
4, 197480, Note_on_c, 9, 40, 0
4, 197480, Note_on_c, 9, 37, 102
4, 197480, Note_on_c, 9, 42, 50
4, 197528, Note_on_c, 9, 73, 0
4, 197576, Note_on_c, 9, 37, 0
4, 197628, Note_on_c, 9, 73, 91
4, 197672, Note_on_c, 9, 42, 0
4, 197672, Note_on_c, 9, 42, 25
4, 197672, Note_on_c, 9, 42, 0
4, 197672, Note_on_c, 9, 40, 63
4, 197750, Note_on_c, 9, 73, 0
4, 197768, Note_on_c, 9, 40, 0
4, 197830, Note_on_c, 9, 74, 45
4, 197864, Note_on_c, 9, 76, 65
4, 197864, Note_on_c, 9, 40, 21
4, 197864, Note_on_c, 9, 64, 19
4, 197864, Note_on_c, 9, 36, 47
4, 197960, Note_on_c, 9, 36, 0
4, 197960, Note_on_c, 9, 64, 0
4, 198056, Note_on_c, 9, 40, 0
4, 198056, Note_on_c, 9, 42, 28
4, 198056, Note_on_c, 9, 42, 0
4, 198152, Note_on_c, 9, 76, 0
4, 198178, Note_on_c, 9, 74, 0
4, 198228, Note_on_c, 9, 73, 94
4, 198248, Note_on_c, 9, 42, 23
4, 198248, Note_on_c, 9, 42, 0
4, 198284, Note_on_c, 9, 73, 0
4, 198404, Note_on_c, 9, 73, 90
4, 198432, Note_on_c, 9, 76, 76
4, 198432, Note_on_c, 9, 42, 59
4, 198432, Note_on_c, 9, 42, 0
4, 198432, Note_on_c, 9, 36, 44
4, 198528, Note_on_c, 9, 73, 0
4, 198536, Note_on_c, 9, 36, 0
4, 198604, Note_on_c, 9, 74, 44
4, 198624, Note_on_c, 9, 42, 24
4, 198624, Note_on_c, 9, 42, 0
4, 198624, Note_on_c, 9, 36, 46
4, 198720, Note_on_c, 9, 76, 0
4, 198816, Note_on_c, 9, 36, 0
4, 198816, Note_on_c, 9, 42, 35
4, 198816, Note_on_c, 9, 42, 16
4, 198912, Note_on_c, 9, 42, 0
4, 198934, Note_on_c, 9, 74, 0
4, 198962, Note_on_c, 9, 73, 106
4, 199008, Note_on_c, 9, 42, 0
4, 199008, Note_on_c, 9, 40, 23
4, 199008, Note_on_c, 9, 42, 23
4, 199008, Note_on_c, 9, 76, 60
4, 199034, Note_on_c, 9, 73, 0
4, 199104, Note_on_c, 9, 42, 0
4, 199140, Note_on_c, 9, 73, 97
4, 199200, Note_on_c, 9, 40, 0
4, 199200, Note_on_c, 9, 76, 0
4, 199200, Note_on_c, 9, 53, 61
4, 199200, Note_on_c, 9, 42, 29
4, 199200, Note_on_c, 9, 42, 0
4, 199200, Note_on_c, 9, 36, 20
4, 199200, Note_on_c, 9, 36, 0
4, 199252, Note_on_c, 9, 73, 0
4, 199296, Note_on_c, 9, 53, 0
4, 199344, Note_on_c, 9, 74, 44
4, 199392, Note_on_c, 9, 42, 29
4, 199392, Note_on_c, 9, 42, 0
4, 199392, Note_on_c, 9, 36, 62
4, 199584, Note_on_c, 9, 36, 0
4, 199584, Note_on_c, 9, 42, 33
4, 199584, Note_on_c, 9, 42, 0
4, 199684, Note_on_c, 9, 74, 0
4, 199702, Note_on_c, 9, 73, 90
4, 199772, Note_on_c, 9, 73, 0
4, 199776, Note_on_c, 9, 76, 49
4, 199776, Note_on_c, 9, 42, 50
4, 199776, Note_on_c, 9, 42, 0
4, 199872, Note_on_c, 9, 76, 0
4, 199900, Note_on_c, 9, 73, 103
4, 199968, Note_on_c, 9, 42, 25
4, 199968, Note_on_c, 9, 42, 0
4, 199968, Note_on_c, 9, 36, 50
4, 200004, Note_on_c, 9, 73, 0
4, 200064, Note_on_c, 9, 36, 0
4, 200110, Note_on_c, 9, 74, 44
4, 200160, Note_on_c, 9, 76, 76
4, 200160, Note_on_c, 9, 40, 11
4, 200160, Note_on_c, 9, 42, 23
4, 200160, Note_on_c, 9, 42, 0
4, 200160, Note_on_c, 9, 36, 45
4, 200256, Note_on_c, 9, 40, 0
4, 200352, Note_on_c, 9, 36, 0
4, 200352, Note_on_c, 9, 76, 0
4, 200352, Note_on_c, 9, 42, 58
4, 200352, Note_on_c, 9, 40, 19
4, 200352, Note_on_c, 9, 40, 0
4, 200468, Note_on_c, 9, 74, 0
4, 200494, Note_on_c, 9, 73, 97
4, 200544, Note_on_c, 9, 42, 0
4, 200544, Note_on_c, 9, 42, 16
4, 200544, Note_on_c, 9, 42, 0
4, 200544, Note_on_c, 9, 37, 102
4, 200544, Note_on_c, 9, 40, 23
4, 200558, Note_on_c, 9, 73, 0
4, 200640, Note_on_c, 9, 40, 0
4, 200640, Note_on_c, 9, 37, 0
4, 200686, Note_on_c, 9, 73, 91
4, 200736, Note_on_c, 9, 40, 61
4, 200736, Note_on_c, 9, 42, 29
4, 200736, Note_on_c, 9, 42, 0
4, 200790, Note_on_c, 9, 73, 0
4, 200832, Note_on_c, 9, 40, 0
4, 200898, Note_on_c, 9, 74, 44
4, 200928, Note_on_c, 9, 42, 52
4, 200928, Note_on_c, 9, 42, 0
4, 200928, Note_on_c, 9, 76, 65
4, 200928, Note_on_c, 9, 40, 57
4, 200928, Note_on_c, 9, 36, 55
4, 201024, Note_on_c, 9, 40, 0
4, 201120, Note_on_c, 9, 36, 0
4, 201120, Note_on_c, 9, 42, 26
4, 201120, Note_on_c, 9, 42, 0
4, 201120, Note_on_c, 9, 64, 19
4, 201216, Note_on_c, 9, 64, 0
4, 201216, Note_on_c, 9, 76, 0
4, 201254, Note_on_c, 9, 74, 0
4, 201272, Note_on_c, 9, 73, 97
4, 201312, Note_on_c, 9, 64, 23
4, 201312, Note_on_c, 9, 64, 0
4, 201312, Note_on_c, 9, 40, 22
4, 201330, Note_on_c, 9, 73, 0
4, 201460, Note_on_c, 9, 73, 100
4, 201504, Note_on_c, 9, 40, 0
4, 201504, Note_on_c, 9, 64, 34
4, 201504, Note_on_c, 9, 64, 0
4, 201504, Note_on_c, 9, 76, 76
4, 201504, Note_on_c, 9, 42, 26
4, 201504, Note_on_c, 9, 42, 0
4, 201504, Note_on_c, 9, 36, 45
4, 201566, Note_on_c, 9, 73, 0
4, 201600, Note_on_c, 9, 36, 0
4, 201662, Note_on_c, 9, 74, 46
4, 201696, Note_on_c, 9, 64, 36
4, 201696, Note_on_c, 9, 42, 21
4, 201696, Note_on_c, 9, 42, 0
4, 201696, Note_on_c, 9, 36, 55
4, 201792, Note_on_c, 9, 64, 0
4, 201792, Note_on_c, 9, 76, 0
4, 201888, Note_on_c, 9, 64, 32
4, 201888, Note_on_c, 9, 64, 0
4, 201888, Note_on_c, 9, 42, 65
4, 201984, Note_on_c, 9, 36, 0
4, 202054, Note_on_c, 9, 74, 0
4, 202064, Note_on_c, 9, 73, 93
4, 202080, Note_on_c, 9, 42, 0
4, 202080, Note_on_c, 9, 42, 29
4, 202080, Note_on_c, 9, 42, 0
4, 202080, Note_on_c, 9, 76, 60
4, 202080, Note_on_c, 9, 64, 34
4, 202120, Note_on_c, 9, 73, 0
4, 202242, Note_on_c, 9, 73, 96
4, 202272, Note_on_c, 9, 64, 0
4, 202272, Note_on_c, 9, 76, 0
4, 202272, Note_on_c, 9, 42, 20
4, 202272, Note_on_c, 9, 42, 0
4, 202272, Note_on_c, 9, 42, 40
4, 202272, Note_on_c, 9, 42, 0
4, 202356, Note_on_c, 9, 73, 0
4, 202368, Note_on_c, 9, 42, 39
4, 202368, Note_on_c, 9, 42, 0
4, 202440, Note_on_c, 9, 74, 40
4, 202464, Note_on_c, 9, 42, 36
4, 202464, Note_on_c, 9, 42, 80
4, 202464, Note_on_c, 9, 36, 48
4, 202560, Note_on_c, 9, 42, 0
4, 202656, Note_on_c, 9, 36, 0
4, 202656, Note_on_c, 9, 42, 0
4, 202656, Note_on_c, 9, 40, 12
4, 202656, Note_on_c, 9, 42, 26
4, 202752, Note_on_c, 9, 40, 0
4, 202846, Note_on_c, 9, 73, 102
4, 202848, Note_on_c, 9, 42, 0
4, 202848, Note_on_c, 9, 76, 49
4, 202848, Note_on_c, 9, 42, 39
4, 202848, Note_on_c, 9, 40, 29
4, 202848, Note_on_c, 9, 40, 0
4, 202854, Note_on_c, 9, 74, 0
4, 202922, Note_on_c, 9, 73, 0
4, 202944, Note_on_c, 9, 76, 0
4, 203014, Note_on_c, 9, 73, 90
4, 203040, Note_on_c, 9, 42, 0
4, 203040, Note_on_c, 9, 40, 52
4, 203040, Note_on_c, 9, 42, 33
4, 203040, Note_on_c, 9, 42, 0
4, 203040, Note_on_c, 9, 36, 38
4, 203136, Note_on_c, 9, 36, 0
4, 203136, Note_on_c, 9, 40, 0
4, 203142, Note_on_c, 9, 73, 0
4, 203212, Note_on_c, 9, 74, 39
4, 203232, Note_on_c, 9, 40, 31
4, 203232, Note_on_c, 9, 76, 76
4, 203232, Note_on_c, 9, 42, 35
4, 203232, Note_on_c, 9, 42, 0
4, 203232, Note_on_c, 9, 36, 42
4, 203424, Note_on_c, 9, 36, 0
4, 203424, Note_on_c, 9, 76, 0
4, 203424, Note_on_c, 9, 40, 0
4, 203424, Note_on_c, 9, 42, 27
4, 203424, Note_on_c, 9, 42, 0
4, 203424, Note_on_c, 9, 64, 28
4, 203424, Note_on_c, 9, 64, 0
4, 203608, Note_on_c, 9, 64, 17
4, 203608, Note_on_c, 9, 64, 0
4, 203608, Note_on_c, 9, 42, 50
4, 203608, Note_on_c, 9, 37, 102
4, 203618, Note_on_c, 9, 74, 0
4, 203634, Note_on_c, 9, 73, 91
4, 203708, Note_on_c, 9, 73, 0
4, 203712, Note_on_c, 9, 37, 0
4, 203808, Note_on_c, 9, 42, 0
4, 203808, Note_on_c, 9, 42, 25
4, 203808, Note_on_c, 9, 42, 0
4, 203808, Note_on_c, 9, 40, 56
4, 203820, Note_on_c, 9, 73, 85
4, 203904, Note_on_c, 9, 40, 0
4, 203940, Note_on_c, 9, 73, 0
4, 203992, Note_on_c, 9, 40, 47
4, 203992, Note_on_c, 9, 76, 65
4, 203992, Note_on_c, 9, 40, 21
4, 203992, Note_on_c, 9, 36, 47
4, 204012, Note_on_c, 9, 74, 43
4, 204088, Note_on_c, 9, 36, 0
4, 204184, Note_on_c, 9, 40, 0
4, 204184, Note_on_c, 9, 40, 0
4, 204184, Note_on_c, 9, 42, 28
4, 204184, Note_on_c, 9, 42, 0
4, 204280, Note_on_c, 9, 76, 0
4, 204356, Note_on_c, 9, 74, 0
4, 204376, Note_on_c, 9, 42, 23
4, 204376, Note_on_c, 9, 42, 0
4, 204376, Note_on_c, 9, 64, 36
4, 204386, Note_on_c, 9, 73, 106
4, 204472, Note_on_c, 9, 64, 0
4, 204474, Note_on_c, 9, 73, 0
4, 204568, Note_on_c, 9, 42, 59
4, 204568, Note_on_c, 9, 42, 0
4, 204568, Note_on_c, 9, 76, 76
4, 204568, Note_on_c, 9, 36, 44
4, 204582, Note_on_c, 9, 73, 85
4, 204664, Note_on_c, 9, 36, 0
4, 204706, Note_on_c, 9, 73, 0
4, 204760, Note_on_c, 9, 42, 24
4, 204760, Note_on_c, 9, 42, 0
4, 204760, Note_on_c, 9, 36, 46
4, 204766, Note_on_c, 9, 74, 46
4, 204856, Note_on_c, 9, 76, 0
4, 204952, Note_on_c, 9, 36, 0
4, 204952, Note_on_c, 9, 40, 11
4, 204952, Note_on_c, 9, 42, 35
4, 205048, Note_on_c, 9, 40, 0
4, 205144, Note_on_c, 9, 42, 0
4, 205144, Note_on_c, 9, 40, 45
4, 205144, Note_on_c, 9, 40, 23
4, 205144, Note_on_c, 9, 76, 60
4, 205154, Note_on_c, 9, 74, 0
4, 205162, Note_on_c, 9, 73, 118
4, 205272, Note_on_c, 9, 73, 0
4, 205336, Note_on_c, 9, 76, 0
4, 205336, Note_on_c, 9, 40, 0
4, 205336, Note_on_c, 9, 40, 0
4, 205336, Note_on_c, 9, 64, 35
4, 205336, Note_on_c, 9, 42, 29
4, 205336, Note_on_c, 9, 42, 0
4, 205432, Note_on_c, 9, 64, 0
4, 205484, Note_on_c, 9, 73, 127
4, 205528, Note_on_c, 9, 64, 74
4, 205528, Note_on_c, 9, 42, 29
4, 205528, Note_on_c, 9, 42, 0
4, 205528, Note_on_c, 9, 36, 62
4, 205566, Note_on_c, 9, 73, 0
4, 205624, Note_on_c, 9, 64, 0
4, 205720, Note_on_c, 9, 36, 0
4, 205720, Note_on_c, 9, 42, 33
4, 205720, Note_on_c, 9, 42, 0
4, 205912, Note_on_c, 9, 76, 49
4, 205912, Note_on_c, 9, 42, 50
4, 205912, Note_on_c, 9, 42, 0
4, 206008, Note_on_c, 9, 76, 0
4, 206104, Note_on_c, 9, 42, 25
4, 206104, Note_on_c, 9, 42, 0
4, 206104, Note_on_c, 9, 40, 37
4, 206104, Note_on_c, 9, 36, 50
4, 206200, Note_on_c, 9, 36, 0
4, 206296, Note_on_c, 9, 76, 76
4, 206296, Note_on_c, 9, 42, 23
4, 206296, Note_on_c, 9, 42, 0
4, 206296, Note_on_c, 9, 36, 45
4, 206488, Note_on_c, 9, 36, 0
4, 206488, Note_on_c, 9, 76, 0
4, 206488, Note_on_c, 9, 64, 40
4, 206488, Note_on_c, 9, 42, 58
4, 206584, Note_on_c, 9, 64, 0
4, 206680, Note_on_c, 9, 42, 0
4, 206680, Note_on_c, 9, 40, 0
4, 206680, Note_on_c, 9, 42, 16
4, 206680, Note_on_c, 9, 42, 0
4, 206680, Note_on_c, 9, 37, 102
4, 206680, Note_on_c, 9, 64, 39
4, 206776, Note_on_c, 9, 64, 0
4, 206776, Note_on_c, 9, 37, 0
4, 206872, Note_on_c, 9, 42, 29
4, 206872, Note_on_c, 9, 42, 0
4, 207064, Note_on_c, 9, 42, 52
4, 207064, Note_on_c, 9, 42, 0
4, 207064, Note_on_c, 9, 76, 65
4, 207064, Note_on_c, 9, 36, 55
4, 207256, Note_on_c, 9, 36, 0
4, 207256, Note_on_c, 9, 42, 26
4, 207256, Note_on_c, 9, 42, 0
4, 207352, Note_on_c, 9, 76, 0
4, 207448, Note_on_c, 9, 40, 22
4, 207640, Note_on_c, 9, 40, 0
4, 207640, Note_on_c, 9, 76, 76
4, 207640, Note_on_c, 9, 42, 26
4, 207640, Note_on_c, 9, 42, 0
4, 207640, Note_on_c, 9, 36, 45
4, 207736, Note_on_c, 9, 36, 0
4, 207832, Note_on_c, 9, 51, 48
4, 207832, Note_on_c, 9, 51, 0
4, 207832, Note_on_c, 9, 42, 21
4, 207832, Note_on_c, 9, 42, 0
4, 207832, Note_on_c, 9, 36, 55
4, 207928, Note_on_c, 9, 76, 0
4, 208024, Note_on_c, 9, 42, 65
4, 208120, Note_on_c, 9, 36, 0
4, 208216, Note_on_c, 9, 42, 0
4, 208216, Note_on_c, 9, 76, 60
4, 208216, Note_on_c, 9, 42, 29
4, 208216, Note_on_c, 9, 42, 0
4, 208408, Note_on_c, 9, 76, 0
4, 208408, Note_on_c, 9, 42, 40
4, 208408, Note_on_c, 9, 42, 0
4, 208600, Note_on_c, 9, 42, 36
4, 208600, Note_on_c, 9, 36, 48
4, 208792, Note_on_c, 9, 36, 0
4, 208792, Note_on_c, 9, 42, 0
4, 208792, Note_on_c, 9, 42, 26
4, 208984, Note_on_c, 9, 42, 0
4, 208984, Note_on_c, 9, 76, 49
4, 208984, Note_on_c, 9, 42, 39
4, 209080, Note_on_c, 9, 76, 0
4, 209176, Note_on_c, 9, 42, 0
4, 209176, Note_on_c, 9, 42, 33
4, 209176, Note_on_c, 9, 42, 0
4, 209176, Note_on_c, 9, 36, 38
4, 209264, Note_on_c, 9, 36, 0
4, 209360, Note_on_c, 9, 76, 76
4, 209360, Note_on_c, 9, 42, 35
4, 209360, Note_on_c, 9, 42, 0
4, 209360, Note_on_c, 9, 36, 42
4, 209560, Note_on_c, 9, 36, 0
4, 209560, Note_on_c, 9, 76, 0
4, 209560, Note_on_c, 9, 42, 27
4, 209560, Note_on_c, 9, 42, 0
4, 209560, Note_on_c, 9, 64, 22
4, 209560, Note_on_c, 9, 64, 0
4, 209744, Note_on_c, 9, 42, 50
4, 209744, Note_on_c, 9, 64, 66
4, 209744, Note_on_c, 9, 37, 102
4, 209848, Note_on_c, 9, 37, 0
4, 209848, Note_on_c, 9, 64, 0
4, 209936, Note_on_c, 9, 42, 0
4, 209936, Note_on_c, 9, 42, 25
4, 209936, Note_on_c, 9, 42, 0
4, 210136, Note_on_c, 9, 76, 65
4, 210136, Note_on_c, 9, 40, 21
4, 210136, Note_on_c, 9, 36, 47
4, 210224, Note_on_c, 9, 36, 0
4, 210320, Note_on_c, 9, 40, 0
4, 210320, Note_on_c, 9, 42, 28
4, 210320, Note_on_c, 9, 42, 0
4, 210416, Note_on_c, 9, 76, 0
4, 210512, Note_on_c, 9, 42, 23
4, 210512, Note_on_c, 9, 42, 0
4, 210704, Note_on_c, 9, 76, 76
4, 210704, Note_on_c, 9, 42, 59
4, 210704, Note_on_c, 9, 42, 0
4, 210704, Note_on_c, 9, 36, 44
4, 210800, Note_on_c, 9, 36, 0
4, 210896, Note_on_c, 9, 42, 24
4, 210896, Note_on_c, 9, 42, 0
4, 210896, Note_on_c, 9, 36, 46
4, 210992, Note_on_c, 9, 76, 0
4, 211088, Note_on_c, 9, 36, 0
4, 211088, Note_on_c, 9, 42, 35
4, 211280, Note_on_c, 9, 42, 0
4, 211280, Note_on_c, 9, 40, 23
4, 211280, Note_on_c, 9, 76, 60
4, 211280, Note_on_c, 9, 64, 28
4, 211376, Note_on_c, 9, 64, 0
4, 211472, Note_on_c, 9, 76, 0
4, 211472, Note_on_c, 9, 40, 0
4, 211472, Note_on_c, 9, 64, 62
4, 211472, Note_on_c, 9, 42, 29
4, 211472, Note_on_c, 9, 42, 0
4, 211568, Note_on_c, 9, 64, 0
4, 211664, Note_on_c, 9, 64, 88
4, 211664, Note_on_c, 9, 42, 29
4, 211664, Note_on_c, 9, 42, 0
4, 211664, Note_on_c, 9, 36, 62
4, 211760, Note_on_c, 9, 64, 0
4, 211856, Note_on_c, 9, 36, 0
4, 211856, Note_on_c, 9, 42, 33
4, 211856, Note_on_c, 9, 42, 0
4, 212048, Note_on_c, 9, 76, 49
4, 212048, Note_on_c, 9, 42, 50
4, 212048, Note_on_c, 9, 42, 0
4, 212144, Note_on_c, 9, 76, 0
4, 212240, Note_on_c, 9, 42, 25
4, 212240, Note_on_c, 9, 42, 0
4, 212240, Note_on_c, 9, 36, 50
4, 212336, Note_on_c, 9, 36, 0
4, 212432, Note_on_c, 9, 42, 23
4, 212432, Note_on_c, 9, 42, 0
4, 212432, Note_on_c, 9, 76, 76
4, 212432, Note_on_c, 9, 36, 45
4, 212624, Note_on_c, 9, 36, 0
4, 212624, Note_on_c, 9, 76, 0
4, 212624, Note_on_c, 9, 42, 58
4, 212816, Note_on_c, 9, 42, 0
4, 212816, Note_on_c, 9, 42, 16
4, 212816, Note_on_c, 9, 42, 0
4, 212816, Note_on_c, 9, 37, 102
4, 212912, Note_on_c, 9, 37, 0
4, 213008, Note_on_c, 9, 42, 29
4, 213008, Note_on_c, 9, 42, 0
4, 213200, Note_on_c, 9, 42, 52
4, 213200, Note_on_c, 9, 42, 0
4, 213200, Note_on_c, 9, 76, 65
4, 213200, Note_on_c, 9, 36, 55
4, 213392, Note_on_c, 9, 36, 0
4, 213392, Note_on_c, 9, 42, 26
4, 213392, Note_on_c, 9, 42, 0
4, 213488, Note_on_c, 9, 76, 0
4, 213584, Note_on_c, 9, 40, 22
4, 213776, Note_on_c, 9, 40, 0
4, 213776, Note_on_c, 9, 76, 76
4, 213776, Note_on_c, 9, 42, 26
4, 213776, Note_on_c, 9, 42, 0
4, 213776, Note_on_c, 9, 36, 45
4, 213872, Note_on_c, 9, 36, 0
4, 213968, Note_on_c, 9, 42, 21
4, 213968, Note_on_c, 9, 42, 0
4, 213968, Note_on_c, 9, 36, 55
4, 214064, Note_on_c, 9, 76, 0
4, 214160, Note_on_c, 9, 42, 65
4, 214256, Note_on_c, 9, 36, 0
4, 214352, Note_on_c, 9, 42, 0
4, 214352, Note_on_c, 9, 42, 29
4, 214352, Note_on_c, 9, 42, 0
4, 214352, Note_on_c, 9, 76, 60
4, 214544, Note_on_c, 9, 76, 0
4, 214544, Note_on_c, 9, 42, 40
4, 214544, Note_on_c, 9, 42, 0
4, 214736, Note_on_c, 9, 42, 36
4, 214736, Note_on_c, 9, 36, 48
4, 214928, Note_on_c, 9, 36, 0
4, 214928, Note_on_c, 9, 42, 0
4, 214928, Note_on_c, 9, 42, 26
4, 215112, Note_on_c, 9, 42, 0
4, 215112, Note_on_c, 9, 76, 69
4, 215112, Note_on_c, 9, 42, 39
4, 215112, Note_on_c, 9, 76, 49
4, 215208, Note_on_c, 9, 76, 0
4, 215208, Note_on_c, 9, 76, 0
4, 215304, Note_on_c, 9, 42, 0
4, 215304, Note_on_c, 9, 42, 33
4, 215304, Note_on_c, 9, 42, 0
4, 215304, Note_on_c, 9, 36, 38
4, 215408, Note_on_c, 9, 36, 0
4, 215496, Note_on_c, 9, 76, 76
4, 215496, Note_on_c, 9, 42, 35
4, 215496, Note_on_c, 9, 42, 0
4, 215496, Note_on_c, 9, 36, 42
4, 215688, Note_on_c, 9, 36, 0
4, 215688, Note_on_c, 9, 76, 0
4, 215688, Note_on_c, 9, 42, 27
4, 215688, Note_on_c, 9, 42, 0
4, 215880, Note_on_c, 9, 37, 102
4, 215880, Note_on_c, 9, 42, 50
4, 215976, Note_on_c, 9, 37, 0
4, 216072, Note_on_c, 9, 42, 0
4, 216072, Note_on_c, 9, 42, 25
4, 216072, Note_on_c, 9, 42, 0
4, 216264, Note_on_c, 9, 76, 65
4, 216264, Note_on_c, 9, 40, 21
4, 216264, Note_on_c, 9, 36, 47
4, 216360, Note_on_c, 9, 36, 0
4, 216456, Note_on_c, 9, 40, 0
4, 216456, Note_on_c, 9, 42, 28
4, 216456, Note_on_c, 9, 42, 0
4, 216552, Note_on_c, 9, 76, 0
4, 216648, Note_on_c, 9, 42, 23
4, 216648, Note_on_c, 9, 42, 0
4, 216840, Note_on_c, 9, 76, 76
4, 216840, Note_on_c, 9, 42, 59
4, 216840, Note_on_c, 9, 42, 0
4, 216840, Note_on_c, 9, 36, 44
4, 216936, Note_on_c, 9, 36, 0
4, 217032, Note_on_c, 9, 42, 24
4, 217032, Note_on_c, 9, 42, 0
4, 217032, Note_on_c, 9, 36, 46
4, 217128, Note_on_c, 9, 76, 0
4, 217224, Note_on_c, 9, 36, 0
4, 217224, Note_on_c, 9, 76, 18
4, 217224, Note_on_c, 9, 42, 35
4, 217320, Note_on_c, 9, 76, 0
4, 217416, Note_on_c, 9, 42, 0
4, 217416, Note_on_c, 9, 76, 34
4, 217416, Note_on_c, 9, 40, 23
4, 217416, Note_on_c, 9, 76, 60
4, 217512, Note_on_c, 9, 76, 0
4, 217608, Note_on_c, 9, 76, 0
4, 217608, Note_on_c, 9, 40, 0
4, 217608, Note_on_c, 9, 76, 104
4, 217608, Note_on_c, 9, 42, 29
4, 217608, Note_on_c, 9, 42, 0
4, 217704, Note_on_c, 9, 76, 0
4, 217800, Note_on_c, 9, 42, 29
4, 217800, Note_on_c, 9, 42, 0
4, 217800, Note_on_c, 9, 36, 62
4, 217992, Note_on_c, 9, 36, 0
4, 217992, Note_on_c, 9, 42, 33
4, 217992, Note_on_c, 9, 42, 0
4, 218184, Note_on_c, 9, 42, 50
4, 218184, Note_on_c, 9, 42, 0
4, 218184, Note_on_c, 9, 76, 49
4, 218280, Note_on_c, 9, 76, 0
4, 218376, Note_on_c, 9, 42, 25
4, 218376, Note_on_c, 9, 42, 0
4, 218376, Note_on_c, 9, 36, 50
4, 218472, Note_on_c, 9, 36, 0
4, 218568, Note_on_c, 9, 76, 76
4, 218568, Note_on_c, 9, 42, 23
4, 218568, Note_on_c, 9, 42, 0
4, 218568, Note_on_c, 9, 36, 45
4, 218760, Note_on_c, 9, 36, 0
4, 218760, Note_on_c, 9, 76, 0
4, 218760, Note_on_c, 9, 42, 58
4, 218952, Note_on_c, 9, 42, 0
4, 218952, Note_on_c, 9, 42, 16
4, 218952, Note_on_c, 9, 42, 0
4, 218952, Note_on_c, 9, 37, 102
4, 219048, Note_on_c, 9, 37, 0
4, 219144, Note_on_c, 9, 42, 29
4, 219144, Note_on_c, 9, 42, 0
4, 219336, Note_on_c, 9, 42, 52
4, 219336, Note_on_c, 9, 42, 0
4, 219336, Note_on_c, 9, 76, 65
4, 219336, Note_on_c, 9, 36, 55
4, 219528, Note_on_c, 9, 36, 0
4, 219528, Note_on_c, 9, 76, 0
4, 219528, Note_on_c, 9, 76, 20
4, 219528, Note_on_c, 9, 42, 26
4, 219528, Note_on_c, 9, 42, 0
4, 219624, Note_on_c, 9, 76, 0
4, 219720, Note_on_c, 9, 40, 22
4, 219912, Note_on_c, 9, 40, 0
4, 219912, Note_on_c, 9, 42, 26
4, 219912, Note_on_c, 9, 42, 0
4, 219912, Note_on_c, 9, 76, 76
4, 219912, Note_on_c, 9, 76, 15
4, 219912, Note_on_c, 9, 36, 45
4, 220008, Note_on_c, 9, 36, 0
4, 220008, Note_on_c, 9, 76, 0
4, 220104, Note_on_c, 9, 42, 21
4, 220104, Note_on_c, 9, 42, 0
4, 220104, Note_on_c, 9, 76, 21
4, 220104, Note_on_c, 9, 36, 55
4, 220200, Note_on_c, 9, 76, 0
4, 220200, Note_on_c, 9, 76, 0
4, 220296, Note_on_c, 9, 76, 21
4, 220296, Note_on_c, 9, 42, 65
4, 220384, Note_on_c, 9, 76, 0
4, 220384, Note_on_c, 9, 36, 0
4, 220480, Note_on_c, 9, 42, 0
4, 220480, Note_on_c, 9, 76, 60
4, 220480, Note_on_c, 9, 42, 29
4, 220480, Note_on_c, 9, 42, 0
4, 220480, Note_on_c, 9, 76, 26
4, 220576, Note_on_c, 9, 76, 0
4, 220672, Note_on_c, 9, 76, 0
4, 220672, Note_on_c, 9, 76, 41
4, 220672, Note_on_c, 9, 76, 0
4, 220672, Note_on_c, 9, 42, 40
4, 220672, Note_on_c, 9, 42, 0
4, 220872, Note_on_c, 9, 42, 36
4, 220872, Note_on_c, 9, 36, 48
4, 221064, Note_on_c, 9, 36, 0
4, 221064, Note_on_c, 9, 42, 0
4, 221064, Note_on_c, 9, 42, 26
4, 221256, Note_on_c, 9, 42, 0
4, 221256, Note_on_c, 9, 76, 49
4, 221256, Note_on_c, 9, 42, 39
4, 221256, Note_on_c, 9, 64, 26
4, 221256, Note_on_c, 9, 64, 0
4, 221352, Note_on_c, 9, 76, 0
4, 221448, Note_on_c, 9, 42, 0
4, 221448, Note_on_c, 9, 64, 86
4, 221448, Note_on_c, 9, 42, 33
4, 221448, Note_on_c, 9, 42, 0
4, 221448, Note_on_c, 9, 36, 38
4, 221544, Note_on_c, 9, 36, 0
4, 221640, Note_on_c, 9, 64, 0
4, 221640, Note_on_c, 9, 76, 76
4, 221640, Note_on_c, 9, 42, 35
4, 221640, Note_on_c, 9, 42, 0
4, 221640, Note_on_c, 9, 36, 42
4, 221832, Note_on_c, 9, 36, 0
4, 221832, Note_on_c, 9, 76, 0
4, 221832, Note_on_c, 9, 42, 27
4, 221832, Note_on_c, 9, 42, 0
4, 222024, Note_on_c, 9, 63, 15
4, 222024, Note_on_c, 9, 37, 102
4, 222024, Note_on_c, 9, 42, 50
4, 222120, Note_on_c, 9, 37, 0
4, 222120, Note_on_c, 9, 63, 0
4, 222216, Note_on_c, 9, 42, 0
4, 222216, Note_on_c, 9, 63, 121
4, 222216, Note_on_c, 9, 42, 25
4, 222216, Note_on_c, 9, 42, 0
4, 222408, Note_on_c, 9, 76, 65
4, 222408, Note_on_c, 9, 40, 21
4, 222408, Note_on_c, 9, 36, 47
4, 222504, Note_on_c, 9, 36, 0
4, 222600, Note_on_c, 9, 40, 0
4, 222600, Note_on_c, 9, 63, 0
4, 222600, Note_on_c, 9, 42, 28
4, 222600, Note_on_c, 9, 42, 0
4, 222696, Note_on_c, 9, 76, 0
4, 222792, Note_on_c, 9, 64, 17
4, 222792, Note_on_c, 9, 64, 0
4, 222792, Note_on_c, 9, 42, 23
4, 222792, Note_on_c, 9, 42, 0
4, 222976, Note_on_c, 9, 64, 88
4, 222976, Note_on_c, 9, 76, 76
4, 222976, Note_on_c, 9, 42, 59
4, 222976, Note_on_c, 9, 42, 0
4, 222976, Note_on_c, 9, 36, 44
4, 223080, Note_on_c, 9, 36, 0
4, 223176, Note_on_c, 9, 42, 24
4, 223176, Note_on_c, 9, 42, 0
4, 223176, Note_on_c, 9, 36, 46
4, 223272, Note_on_c, 9, 76, 0
4, 223360, Note_on_c, 9, 36, 0
4, 223360, Note_on_c, 9, 42, 35
4, 223552, Note_on_c, 9, 42, 0
4, 223552, Note_on_c, 9, 64, 0
4, 223552, Note_on_c, 9, 76, 60
4, 223552, Note_on_c, 9, 40, 23
4, 223744, Note_on_c, 9, 40, 0
4, 223744, Note_on_c, 9, 76, 0
4, 223744, Note_on_c, 9, 42, 29
4, 223744, Note_on_c, 9, 42, 0
4, 223840, Note_on_c, 9, 76, 86
4, 223936, Note_on_c, 9, 76, 0
4, 223936, Note_on_c, 9, 42, 29
4, 223936, Note_on_c, 9, 42, 0
4, 223936, Note_on_c, 9, 64, 59
4, 223936, Note_on_c, 9, 36, 62
4, 224032, Note_on_c, 9, 64, 0
4, 224128, Note_on_c, 9, 36, 0
4, 224128, Note_on_c, 9, 42, 33
4, 224128, Note_on_c, 9, 42, 0
4, 224320, Note_on_c, 9, 64, 19
4, 224320, Note_on_c, 9, 42, 50
4, 224320, Note_on_c, 9, 42, 0
4, 224320, Note_on_c, 9, 76, 49
4, 224416, Note_on_c, 9, 76, 0
4, 224416, Note_on_c, 9, 64, 0
4, 224512, Note_on_c, 9, 64, 106
4, 224512, Note_on_c, 9, 42, 25
4, 224512, Note_on_c, 9, 42, 0
4, 224512, Note_on_c, 9, 36, 50
4, 224608, Note_on_c, 9, 36, 0
4, 224704, Note_on_c, 9, 76, 76
4, 224704, Note_on_c, 9, 42, 23
4, 224704, Note_on_c, 9, 42, 0
4, 224704, Note_on_c, 9, 36, 45
4, 224800, Note_on_c, 9, 64, 0
4, 224800, Note_on_c, 9, 64, 16
4, 224896, Note_on_c, 9, 36, 0
4, 224896, Note_on_c, 9, 76, 0
4, 224896, Note_on_c, 9, 42, 58
4, 224992, Note_on_c, 9, 64, 0
4, 225088, Note_on_c, 9, 42, 0
4, 225088, Note_on_c, 9, 42, 16
4, 225088, Note_on_c, 9, 42, 0
4, 225088, Note_on_c, 9, 37, 102
4, 225088, Note_on_c, 9, 63, 28
4, 225184, Note_on_c, 9, 63, 0
4, 225184, Note_on_c, 9, 37, 0
4, 225280, Note_on_c, 9, 42, 29
4, 225280, Note_on_c, 9, 42, 0
4, 225280, Note_on_c, 9, 63, 120
4, 225472, Note_on_c, 9, 42, 52
4, 225472, Note_on_c, 9, 42, 0
4, 225472, Note_on_c, 9, 76, 65
4, 225472, Note_on_c, 9, 36, 55
4, 225664, Note_on_c, 9, 36, 0
4, 225664, Note_on_c, 9, 42, 26
4, 225664, Note_on_c, 9, 42, 0
4, 225760, Note_on_c, 9, 76, 0
4, 225856, Note_on_c, 9, 63, 0
4, 225856, Note_on_c, 9, 40, 22
4, 226048, Note_on_c, 9, 40, 0
4, 226048, Note_on_c, 9, 64, 106
4, 226048, Note_on_c, 9, 42, 26
4, 226048, Note_on_c, 9, 42, 0
4, 226048, Note_on_c, 9, 76, 76
4, 226048, Note_on_c, 9, 36, 45
4, 226144, Note_on_c, 9, 36, 0
4, 226240, Note_on_c, 9, 42, 21
4, 226240, Note_on_c, 9, 42, 0
4, 226240, Note_on_c, 9, 36, 55
4, 226336, Note_on_c, 9, 76, 0
4, 226432, Note_on_c, 9, 42, 65
4, 226528, Note_on_c, 9, 36, 0
4, 226624, Note_on_c, 9, 42, 0
4, 226624, Note_on_c, 9, 64, 0
4, 226624, Note_on_c, 9, 76, 60
4, 226624, Note_on_c, 9, 42, 29
4, 226624, Note_on_c, 9, 42, 0
4, 226816, Note_on_c, 9, 76, 0
4, 226816, Note_on_c, 9, 42, 40
4, 226816, Note_on_c, 9, 42, 0
4, 227008, Note_on_c, 9, 42, 36
4, 227008, Note_on_c, 9, 36, 48
4, 227200, Note_on_c, 9, 36, 0
4, 227200, Note_on_c, 9, 42, 0
4, 227200, Note_on_c, 9, 64, 18
4, 227200, Note_on_c, 9, 42, 26
4, 227296, Note_on_c, 9, 64, 0
4, 227392, Note_on_c, 9, 42, 0
4, 227392, Note_on_c, 9, 42, 39
4, 227392, Note_on_c, 9, 76, 49
4, 227488, Note_on_c, 9, 76, 0
4, 227584, Note_on_c, 9, 42, 0
4, 227584, Note_on_c, 9, 42, 33
4, 227584, Note_on_c, 9, 42, 0
4, 227584, Note_on_c, 9, 64, 27
4, 227584, Note_on_c, 9, 64, 0
4, 227584, Note_on_c, 9, 36, 38
4, 227680, Note_on_c, 9, 36, 0
4, 227776, Note_on_c, 9, 76, 76
4, 227776, Note_on_c, 9, 42, 35
4, 227776, Note_on_c, 9, 42, 0
4, 227776, Note_on_c, 9, 36, 42
4, 227968, Note_on_c, 9, 36, 0
4, 227968, Note_on_c, 9, 76, 0
4, 227968, Note_on_c, 9, 42, 27
4, 227968, Note_on_c, 9, 42, 0
4, 228160, Note_on_c, 9, 63, 78
4, 228160, Note_on_c, 9, 42, 50
4, 228160, Note_on_c, 9, 37, 102
4, 228256, Note_on_c, 9, 37, 0
4, 228352, Note_on_c, 9, 42, 0
4, 228352, Note_on_c, 9, 63, 0
4, 228352, Note_on_c, 9, 42, 25
4, 228352, Note_on_c, 9, 42, 0
4, 228544, Note_on_c, 9, 76, 65
4, 228544, Note_on_c, 9, 40, 21
4, 228544, Note_on_c, 9, 36, 47
4, 228640, Note_on_c, 9, 36, 0
4, 228728, Note_on_c, 9, 40, 0
4, 228728, Note_on_c, 9, 42, 28
4, 228728, Note_on_c, 9, 42, 0
4, 228832, Note_on_c, 9, 76, 0
4, 228920, Note_on_c, 9, 42, 23
4, 228920, Note_on_c, 9, 42, 0
4, 228920, Note_on_c, 9, 64, 14
4, 228920, Note_on_c, 9, 64, 0
4, 229112, Note_on_c, 9, 42, 59
4, 229112, Note_on_c, 9, 42, 0
4, 229112, Note_on_c, 9, 76, 76
4, 229112, Note_on_c, 9, 64, 120
4, 229112, Note_on_c, 9, 36, 44
4, 229216, Note_on_c, 9, 36, 0
4, 229304, Note_on_c, 9, 42, 24
4, 229304, Note_on_c, 9, 42, 0
4, 229304, Note_on_c, 9, 36, 46
4, 229400, Note_on_c, 9, 64, 0
4, 229400, Note_on_c, 9, 76, 0
4, 229496, Note_on_c, 9, 36, 0
4, 229496, Note_on_c, 9, 42, 35
4, 229496, Note_on_c, 9, 63, 32
4, 229592, Note_on_c, 9, 63, 0
4, 229688, Note_on_c, 9, 42, 0
4, 229688, Note_on_c, 9, 40, 23
4, 229688, Note_on_c, 9, 63, 30
4, 229688, Note_on_c, 9, 76, 60
4, 229784, Note_on_c, 9, 63, 0
4, 229880, Note_on_c, 9, 76, 0
4, 229880, Note_on_c, 9, 40, 0
4, 229880, Note_on_c, 9, 63, 127
4, 229880, Note_on_c, 9, 42, 29
4, 229880, Note_on_c, 9, 42, 0
4, 230072, Note_on_c, 9, 63, 0
4, 230072, Note_on_c, 9, 42, 29
4, 230072, Note_on_c, 9, 42, 0
4, 230072, Note_on_c, 9, 36, 62
4, 230264, Note_on_c, 9, 36, 0
4, 230264, Note_on_c, 9, 42, 33
4, 230264, Note_on_c, 9, 42, 0
4, 230456, Note_on_c, 9, 76, 49
4, 230456, Note_on_c, 9, 42, 50
4, 230456, Note_on_c, 9, 42, 0
4, 230456, Note_on_c, 9, 64, 23
4, 230456, Note_on_c, 9, 64, 0
4, 230552, Note_on_c, 9, 76, 0
4, 230648, Note_on_c, 9, 64, 108
4, 230648, Note_on_c, 9, 42, 25
4, 230648, Note_on_c, 9, 42, 0
4, 230648, Note_on_c, 9, 36, 50
4, 230744, Note_on_c, 9, 36, 0
4, 230840, Note_on_c, 9, 64, 0
4, 230840, Note_on_c, 9, 42, 23
4, 230840, Note_on_c, 9, 42, 0
4, 230840, Note_on_c, 9, 76, 76
4, 230840, Note_on_c, 9, 36, 45
4, 231032, Note_on_c, 9, 36, 0
4, 231032, Note_on_c, 9, 76, 0
4, 231032, Note_on_c, 9, 63, 15
4, 231032, Note_on_c, 9, 42, 58
4, 231128, Note_on_c, 9, 63, 0
4, 231224, Note_on_c, 9, 42, 0
4, 231224, Note_on_c, 9, 63, 19
4, 231224, Note_on_c, 9, 42, 16
4, 231224, Note_on_c, 9, 42, 0
4, 231224, Note_on_c, 9, 37, 102
4, 231320, Note_on_c, 9, 37, 0
4, 231320, Note_on_c, 9, 63, 0
4, 231416, Note_on_c, 9, 63, 123
4, 231416, Note_on_c, 9, 42, 29
4, 231416, Note_on_c, 9, 42, 0
4, 231608, Note_on_c, 9, 42, 52
4, 231608, Note_on_c, 9, 42, 0
4, 231608, Note_on_c, 9, 76, 65
4, 231608, Note_on_c, 9, 36, 55
4, 231704, Note_on_c, 9, 63, 0
4, 231800, Note_on_c, 9, 36, 0
4, 231800, Note_on_c, 9, 64, 23
4, 231800, Note_on_c, 9, 42, 26
4, 231800, Note_on_c, 9, 42, 0
4, 231896, Note_on_c, 9, 64, 0
4, 231896, Note_on_c, 9, 76, 0
4, 231992, Note_on_c, 9, 40, 22
4, 231992, Note_on_c, 9, 64, 18
4, 232088, Note_on_c, 9, 64, 0
4, 232184, Note_on_c, 9, 40, 0
4, 232184, Note_on_c, 9, 64, 30
4, 232184, Note_on_c, 9, 42, 26
4, 232184, Note_on_c, 9, 42, 0
4, 232184, Note_on_c, 9, 76, 76
4, 232184, Note_on_c, 9, 36, 45
4, 232280, Note_on_c, 9, 36, 0
4, 232280, Note_on_c, 9, 64, 0
4, 232376, Note_on_c, 9, 42, 21
4, 232376, Note_on_c, 9, 42, 0
4, 232376, Note_on_c, 9, 36, 55
4, 232472, Note_on_c, 9, 76, 0
4, 232568, Note_on_c, 9, 42, 65
4, 232664, Note_on_c, 9, 36, 0
4, 232760, Note_on_c, 9, 42, 0
4, 232760, Note_on_c, 9, 76, 60
4, 232760, Note_on_c, 9, 42, 29
4, 232760, Note_on_c, 9, 42, 0
4, 232952, Note_on_c, 9, 76, 0
4, 232952, Note_on_c, 9, 76, 86
4, 232952, Note_on_c, 9, 42, 40
4, 232952, Note_on_c, 9, 42, 0
4, 233048, Note_on_c, 9, 76, 0
4, 233144, Note_on_c, 9, 42, 36
4, 233144, Note_on_c, 9, 36, 48
4, 233336, Note_on_c, 9, 36, 0
4, 233336, Note_on_c, 9, 42, 0
4, 233336, Note_on_c, 9, 42, 26
4, 233528, Note_on_c, 9, 42, 0
4, 233528, Note_on_c, 9, 42, 39
4, 233528, Note_on_c, 9, 76, 49
4, 233624, Note_on_c, 9, 76, 0
4, 233720, Note_on_c, 9, 42, 0
4, 233720, Note_on_c, 9, 42, 33
4, 233720, Note_on_c, 9, 42, 0
4, 233720, Note_on_c, 9, 63, 104
4, 233720, Note_on_c, 9, 36, 38
4, 233816, Note_on_c, 9, 36, 0
4, 233912, Note_on_c, 9, 76, 76
4, 233912, Note_on_c, 9, 42, 35
4, 233912, Note_on_c, 9, 42, 0
4, 233912, Note_on_c, 9, 36, 42
4, 234008, Note_on_c, 9, 63, 0
4, 234104, Note_on_c, 9, 36, 0
4, 234104, Note_on_c, 9, 76, 0
4, 234104, Note_on_c, 9, 42, 27
4, 234104, Note_on_c, 9, 42, 0
4, 234296, Note_on_c, 9, 37, 102
4, 234296, Note_on_c, 9, 42, 50
4, 234392, Note_on_c, 9, 37, 0
4, 234480, Note_on_c, 9, 42, 0
4, 234480, Note_on_c, 9, 64, 86
4, 234480, Note_on_c, 9, 42, 25
4, 234480, Note_on_c, 9, 42, 0
4, 234672, Note_on_c, 9, 64, 0
4, 234672, Note_on_c, 9, 40, 21
4, 234672, Note_on_c, 9, 76, 65
4, 234672, Note_on_c, 9, 36, 47
4, 234768, Note_on_c, 9, 36, 0
4, 234864, Note_on_c, 9, 40, 0
4, 234864, Note_on_c, 9, 42, 28
4, 234864, Note_on_c, 9, 42, 0
4, 234960, Note_on_c, 9, 76, 0
4, 235056, Note_on_c, 9, 42, 23
4, 235056, Note_on_c, 9, 42, 0
4, 235056, Note_on_c, 9, 63, 15
4, 235152, Note_on_c, 9, 63, 0
4, 235248, Note_on_c, 9, 42, 59
4, 235248, Note_on_c, 9, 42, 0
4, 235248, Note_on_c, 9, 63, 118
4, 235248, Note_on_c, 9, 76, 76
4, 235248, Note_on_c, 9, 36, 44
4, 235344, Note_on_c, 9, 36, 0
4, 235440, Note_on_c, 9, 63, 0
4, 235440, Note_on_c, 9, 42, 24
4, 235440, Note_on_c, 9, 42, 0
4, 235440, Note_on_c, 9, 36, 46
4, 235536, Note_on_c, 9, 76, 0
4, 235632, Note_on_c, 9, 36, 0
4, 235632, Note_on_c, 9, 42, 35
4, 235824, Note_on_c, 9, 42, 0
4, 235824, Note_on_c, 9, 40, 23
4, 235824, Note_on_c, 9, 76, 60
4, 235824, Note_on_c, 9, 64, 28
4, 235824, Note_on_c, 9, 64, 0
4, 236016, Note_on_c, 9, 76, 0
4, 236016, Note_on_c, 9, 40, 0
4, 236016, Note_on_c, 9, 57, 18
4, 236016, Note_on_c, 9, 64, 104
4, 236016, Note_on_c, 9, 42, 29
4, 236016, Note_on_c, 9, 42, 0
4, 236112, Note_on_c, 9, 57, 0
4, 236208, Note_on_c, 9, 64, 0
4, 236208, Note_on_c, 9, 42, 29
4, 236208, Note_on_c, 9, 42, 0
4, 236208, Note_on_c, 9, 36, 62
4, 236400, Note_on_c, 9, 36, 0
4, 236400, Note_on_c, 9, 42, 33
4, 236400, Note_on_c, 9, 42, 0
4, 236592, Note_on_c, 9, 76, 49
4, 236592, Note_on_c, 9, 42, 50
4, 236592, Note_on_c, 9, 42, 0
4, 236688, Note_on_c, 9, 76, 0
4, 236784, Note_on_c, 9, 63, 121
4, 236784, Note_on_c, 9, 42, 25
4, 236784, Note_on_c, 9, 42, 0
4, 236784, Note_on_c, 9, 36, 50
4, 236880, Note_on_c, 9, 36, 0
4, 236976, Note_on_c, 9, 76, 76
4, 236976, Note_on_c, 9, 42, 23
4, 236976, Note_on_c, 9, 42, 0
4, 236976, Note_on_c, 9, 36, 45
4, 237072, Note_on_c, 9, 63, 0
4, 237168, Note_on_c, 9, 36, 0
4, 237168, Note_on_c, 9, 76, 0
4, 237168, Note_on_c, 9, 42, 58
4, 237360, Note_on_c, 9, 42, 0
4, 237360, Note_on_c, 9, 37, 102
4, 237360, Note_on_c, 9, 42, 16
4, 237360, Note_on_c, 9, 42, 0
4, 237456, Note_on_c, 9, 37, 0
4, 237552, Note_on_c, 9, 42, 29
4, 237552, Note_on_c, 9, 42, 0
4, 237552, Note_on_c, 9, 64, 78
4, 237744, Note_on_c, 9, 64, 0
4, 237744, Note_on_c, 9, 42, 52
4, 237744, Note_on_c, 9, 42, 0
4, 237744, Note_on_c, 9, 76, 65
4, 237744, Note_on_c, 9, 36, 55
4, 237936, Note_on_c, 9, 36, 0
4, 237936, Note_on_c, 9, 42, 26
4, 237936, Note_on_c, 9, 42, 0
4, 238032, Note_on_c, 9, 76, 0
4, 238128, Note_on_c, 9, 40, 22
4, 238320, Note_on_c, 9, 40, 0
4, 238320, Note_on_c, 9, 63, 121
4, 238320, Note_on_c, 9, 76, 76
4, 238320, Note_on_c, 9, 42, 26
4, 238320, Note_on_c, 9, 42, 0
4, 238320, Note_on_c, 9, 36, 45
4, 238416, Note_on_c, 9, 36, 0
4, 238512, Note_on_c, 9, 42, 21
4, 238512, Note_on_c, 9, 42, 0
4, 238512, Note_on_c, 9, 36, 55
4, 238608, Note_on_c, 9, 76, 0
4, 238704, Note_on_c, 9, 63, 0
4, 238704, Note_on_c, 9, 42, 65
4, 238704, Note_on_c, 9, 64, 15
4, 238800, Note_on_c, 9, 64, 0
4, 238800, Note_on_c, 9, 36, 0
4, 238896, Note_on_c, 9, 42, 0
4, 238896, Note_on_c, 9, 42, 29
4, 238896, Note_on_c, 9, 42, 0
4, 238896, Note_on_c, 9, 64, 18
4, 238896, Note_on_c, 9, 76, 60
4, 238992, Note_on_c, 9, 64, 0
4, 239088, Note_on_c, 9, 76, 0
4, 239088, Note_on_c, 9, 64, 110
4, 239088, Note_on_c, 9, 42, 40
4, 239088, Note_on_c, 9, 42, 0
4, 239280, Note_on_c, 9, 64, 0
4, 239280, Note_on_c, 9, 42, 36
4, 239280, Note_on_c, 9, 36, 48
4, 239472, Note_on_c, 9, 36, 0
4, 239472, Note_on_c, 9, 42, 0
4, 239472, Note_on_c, 9, 42, 26
4, 239656, Note_on_c, 9, 42, 0
4, 239656, Note_on_c, 9, 42, 39
4, 239656, Note_on_c, 9, 76, 49
4, 239752, Note_on_c, 9, 76, 0
4, 239848, Note_on_c, 9, 42, 0
4, 239848, Note_on_c, 9, 42, 33
4, 239848, Note_on_c, 9, 42, 0
4, 239848, Note_on_c, 9, 63, 98
4, 239848, Note_on_c, 9, 36, 38
4, 239952, Note_on_c, 9, 36, 0
4, 240048, Note_on_c, 9, 42, 35
4, 240048, Note_on_c, 9, 42, 0
4, 240048, Note_on_c, 9, 76, 76
4, 240048, Note_on_c, 9, 36, 42
4, 240136, Note_on_c, 9, 63, 0
4, 240232, Note_on_c, 9, 36, 0
4, 240232, Note_on_c, 9, 76, 0
4, 240232, Note_on_c, 9, 42, 27
4, 240232, Note_on_c, 9, 42, 0
4, 240424, Note_on_c, 9, 42, 50
4, 240424, Note_on_c, 9, 64, 18
4, 240424, Note_on_c, 9, 37, 102
4, 240520, Note_on_c, 9, 37, 0
4, 240520, Note_on_c, 9, 64, 0
4, 240616, Note_on_c, 9, 42, 0
4, 240616, Note_on_c, 9, 42, 25
4, 240616, Note_on_c, 9, 42, 0
4, 240616, Note_on_c, 9, 64, 98
4, 240808, Note_on_c, 9, 64, 0
4, 240808, Note_on_c, 9, 76, 65
4, 240808, Note_on_c, 9, 40, 21
4, 240808, Note_on_c, 9, 36, 47
4, 240904, Note_on_c, 9, 36, 0
4, 241000, Note_on_c, 9, 40, 0
4, 241000, Note_on_c, 9, 42, 28
4, 241000, Note_on_c, 9, 42, 0
4, 241096, Note_on_c, 9, 76, 0
4, 241192, Note_on_c, 9, 42, 23
4, 241192, Note_on_c, 9, 42, 0
4, 241192, Note_on_c, 9, 63, 28
4, 241192, Note_on_c, 9, 63, 0
4, 241384, Note_on_c, 9, 63, 32
4, 241384, Note_on_c, 9, 42, 59
4, 241384, Note_on_c, 9, 42, 0
4, 241384, Note_on_c, 9, 76, 35
4, 241384, Note_on_c, 9, 76, 76
4, 241384, Note_on_c, 9, 36, 44
4, 241480, Note_on_c, 9, 36, 0
4, 241480, Note_on_c, 9, 63, 0
4, 241480, Note_on_c, 9, 76, 0
4, 241576, Note_on_c, 9, 63, 18
4, 241576, Note_on_c, 9, 42, 24
4, 241576, Note_on_c, 9, 42, 0
4, 241576, Note_on_c, 9, 36, 46
4, 241672, Note_on_c, 9, 63, 0
4, 241672, Note_on_c, 9, 76, 0
4, 241768, Note_on_c, 9, 36, 0
4, 241768, Note_on_c, 9, 76, 69
4, 241768, Note_on_c, 9, 42, 35
4, 241768, Note_on_c, 9, 63, 44
4, 241864, Note_on_c, 9, 63, 0
4, 241864, Note_on_c, 9, 76, 0
4, 241960, Note_on_c, 9, 42, 0
4, 241960, Note_on_c, 9, 40, 23
4, 241960, Note_on_c, 9, 63, 63
4, 241960, Note_on_c, 9, 76, 60
4, 241960, Note_on_c, 9, 76, 90
4, 242056, Note_on_c, 9, 76, 0
4, 242056, Note_on_c, 9, 63, 0
4, 242152, Note_on_c, 9, 40, 0
4, 242152, Note_on_c, 9, 76, 0
4, 242152, Note_on_c, 9, 42, 29
4, 242152, Note_on_c, 9, 42, 0
4, 242152, Note_on_c, 9, 76, 70
4, 242152, Note_on_c, 9, 63, 57
4, 242152, Note_on_c, 9, 76, 110
4, 242248, Note_on_c, 9, 63, 0
4, 242248, Note_on_c, 9, 76, 0
4, 242344, Note_on_c, 9, 76, 0
4, 242344, Note_on_c, 9, 42, 29
4, 242344, Note_on_c, 9, 42, 0
4, 242344, Note_on_c, 9, 36, 62
4, 242536, Note_on_c, 9, 36, 0
4, 242536, Note_on_c, 9, 42, 33
4, 242536, Note_on_c, 9, 42, 0
4, 242728, Note_on_c, 9, 76, 49
4, 242728, Note_on_c, 9, 42, 50
4, 242728, Note_on_c, 9, 42, 0
4, 242824, Note_on_c, 9, 76, 0
4, 242920, Note_on_c, 9, 63, 86
4, 242920, Note_on_c, 9, 42, 25
4, 242920, Note_on_c, 9, 42, 0
4, 242920, Note_on_c, 9, 36, 50
4, 243016, Note_on_c, 9, 36, 0
4, 243112, Note_on_c, 9, 63, 0
4, 243112, Note_on_c, 9, 76, 76
4, 243112, Note_on_c, 9, 42, 23
4, 243112, Note_on_c, 9, 42, 0
4, 243112, Note_on_c, 9, 36, 45
4, 243304, Note_on_c, 9, 36, 0
4, 243304, Note_on_c, 9, 76, 0
4, 243304, Note_on_c, 9, 42, 58
4, 243304, Note_on_c, 9, 63, 72
4, 243400, Note_on_c, 9, 63, 0
4, 243496, Note_on_c, 9, 42, 0
4, 243496, Note_on_c, 9, 37, 102
4, 243496, Note_on_c, 9, 42, 16
4, 243496, Note_on_c, 9, 42, 0
4, 243592, Note_on_c, 9, 37, 0
4, 243688, Note_on_c, 9, 42, 29
4, 243688, Note_on_c, 9, 42, 0
4, 243880, Note_on_c, 9, 42, 52
4, 243880, Note_on_c, 9, 42, 0
4, 243880, Note_on_c, 9, 76, 65
4, 243880, Note_on_c, 9, 64, 19
4, 243880, Note_on_c, 9, 64, 0
4, 243880, Note_on_c, 9, 36, 55
4, 244072, Note_on_c, 9, 36, 0
4, 244072, Note_on_c, 9, 64, 112
4, 244072, Note_on_c, 9, 59, 78
4, 244072, Note_on_c, 9, 59, 0
4, 244072, Note_on_c, 9, 42, 26
4, 244072, Note_on_c, 9, 42, 0
4, 244168, Note_on_c, 9, 64, 0
4, 244168, Note_on_c, 9, 76, 0
4, 244264, Note_on_c, 9, 40, 22
4, 244456, Note_on_c, 9, 40, 0
4, 244456, Note_on_c, 9, 76, 76
4, 244456, Note_on_c, 9, 42, 26
4, 244456, Note_on_c, 9, 42, 0
4, 244456, Note_on_c, 9, 63, 20
4, 244456, Note_on_c, 9, 36, 45
4, 244552, Note_on_c, 9, 36, 0
4, 244552, Note_on_c, 9, 63, 0
4, 244648, Note_on_c, 9, 42, 21
4, 244648, Note_on_c, 9, 42, 0
4, 244648, Note_on_c, 9, 63, 13
4, 244648, Note_on_c, 9, 36, 55
4, 244744, Note_on_c, 9, 63, 0
4, 244744, Note_on_c, 9, 76, 0
4, 244832, Note_on_c, 9, 63, 23
4, 244832, Note_on_c, 9, 42, 65
4, 244936, Note_on_c, 9, 63, 0
4, 244936, Note_on_c, 9, 36, 0
4, 245024, Note_on_c, 9, 42, 0
4, 245024, Note_on_c, 9, 76, 60
4, 245024, Note_on_c, 9, 42, 29
4, 245024, Note_on_c, 9, 42, 0
4, 245224, Note_on_c, 9, 76, 0
4, 245224, Note_on_c, 9, 76, 112
4, 245224, Note_on_c, 9, 42, 40
4, 245224, Note_on_c, 9, 42, 0
4, 245320, Note_on_c, 9, 76, 0
4, 245360, Program_c, 9, 0
4, 245416, Note_on_c, 9, 42, 36
4, 245416, Note_on_c, 9, 36, 48
4, 245608, Note_on_c, 9, 36, 0
4, 245608, Note_on_c, 9, 42, 0
4, 245608, Note_on_c, 9, 42, 26
4, 245792, Note_on_c, 9, 42, 0
4, 245792, Note_on_c, 9, 42, 39
4, 245792, Note_on_c, 9, 64, 26
4, 245792, Note_on_c, 9, 64, 0
4, 245792, Note_on_c, 9, 76, 49
4, 245888, Note_on_c, 9, 76, 0
4, 245984, Note_on_c, 9, 42, 0
4, 245984, Note_on_c, 9, 42, 33
4, 245984, Note_on_c, 9, 42, 0
4, 245984, Note_on_c, 9, 64, 86
4, 245984, Note_on_c, 9, 36, 38
4, 246080, Note_on_c, 9, 36, 0
4, 246176, Note_on_c, 9, 64, 0
4, 246176, Note_on_c, 9, 42, 35
4, 246176, Note_on_c, 9, 42, 0
4, 246176, Note_on_c, 9, 76, 76
4, 246176, Note_on_c, 9, 36, 42
4, 246368, Note_on_c, 9, 36, 0
4, 246368, Note_on_c, 9, 76, 0
4, 246368, Note_on_c, 9, 42, 27
4, 246368, Note_on_c, 9, 42, 0
4, 246560, Note_on_c, 9, 42, 50
4, 246560, Note_on_c, 9, 63, 15
4, 246560, Note_on_c, 9, 37, 102
4, 246656, Note_on_c, 9, 37, 0
4, 246656, Note_on_c, 9, 63, 0
4, 246752, Note_on_c, 9, 42, 0
4, 246752, Note_on_c, 9, 63, 121
4, 246752, Note_on_c, 9, 42, 25
4, 246752, Note_on_c, 9, 42, 0
4, 246944, Note_on_c, 9, 76, 65
4, 246944, Note_on_c, 9, 40, 21
4, 246944, Note_on_c, 9, 36, 47
4, 247040, Note_on_c, 9, 36, 0
4, 247136, Note_on_c, 9, 40, 0
4, 247136, Note_on_c, 9, 63, 0
4, 247136, Note_on_c, 9, 42, 28
4, 247136, Note_on_c, 9, 42, 0
4, 247232, Note_on_c, 9, 76, 0
4, 247328, Note_on_c, 9, 64, 17
4, 247328, Note_on_c, 9, 64, 0
4, 247328, Note_on_c, 9, 42, 23
4, 247328, Note_on_c, 9, 42, 0
4, 247520, Note_on_c, 9, 64, 88
4, 247520, Note_on_c, 9, 76, 76
4, 247520, Note_on_c, 9, 42, 59
4, 247520, Note_on_c, 9, 42, 0
4, 247520, Note_on_c, 9, 36, 44
4, 247616, Note_on_c, 9, 36, 0
4, 247712, Note_on_c, 9, 42, 24
4, 247712, Note_on_c, 9, 42, 0
4, 247712, Note_on_c, 9, 36, 46
4, 247808, Note_on_c, 9, 76, 0
4, 247904, Note_on_c, 9, 36, 0
4, 247904, Note_on_c, 9, 42, 35
4, 248096, Note_on_c, 9, 42, 0
4, 248096, Note_on_c, 9, 64, 0
4, 248096, Note_on_c, 9, 40, 23
4, 248096, Note_on_c, 9, 76, 60
4, 248288, Note_on_c, 9, 76, 0
4, 248288, Note_on_c, 9, 40, 0
4, 248288, Note_on_c, 9, 42, 29
4, 248288, Note_on_c, 9, 42, 0
4, 248384, Note_on_c, 9, 76, 86
4, 248480, Note_on_c, 9, 76, 0
4, 248480, Note_on_c, 9, 42, 29
4, 248480, Note_on_c, 9, 42, 0
4, 248480, Note_on_c, 9, 64, 59
4, 248480, Note_on_c, 9, 36, 62
4, 248576, Note_on_c, 9, 64, 0
4, 248672, Note_on_c, 9, 36, 0
4, 248672, Note_on_c, 9, 42, 33
4, 248672, Note_on_c, 9, 42, 0
4, 248864, Note_on_c, 9, 76, 49
4, 248864, Note_on_c, 9, 42, 50
4, 248864, Note_on_c, 9, 42, 0
4, 248864, Note_on_c, 9, 64, 19
4, 248960, Note_on_c, 9, 64, 0
4, 248960, Note_on_c, 9, 76, 0
4, 249056, Note_on_c, 9, 42, 25
4, 249056, Note_on_c, 9, 42, 0
4, 249056, Note_on_c, 9, 64, 106
4, 249056, Note_on_c, 9, 36, 50
4, 249152, Note_on_c, 9, 36, 0
4, 249248, Note_on_c, 9, 42, 23
4, 249248, Note_on_c, 9, 42, 0
4, 249248, Note_on_c, 9, 76, 76
4, 249248, Note_on_c, 9, 36, 45
4, 249344, Note_on_c, 9, 64, 0
4, 249344, Note_on_c, 9, 64, 16
4, 249440, Note_on_c, 9, 36, 0
4, 249440, Note_on_c, 9, 76, 0
4, 249440, Note_on_c, 9, 42, 58
4, 249536, Note_on_c, 9, 64, 0
4, 249632, Note_on_c, 9, 42, 0
4, 249632, Note_on_c, 9, 37, 102
4, 249632, Note_on_c, 9, 42, 16
4, 249632, Note_on_c, 9, 42, 0
4, 249632, Note_on_c, 9, 63, 28
4, 249728, Note_on_c, 9, 63, 0
4, 249728, Note_on_c, 9, 37, 0
4, 249824, Note_on_c, 9, 63, 120
4, 249824, Note_on_c, 9, 42, 29
4, 249824, Note_on_c, 9, 42, 0
4, 250016, Note_on_c, 9, 76, 65
4, 250016, Note_on_c, 9, 42, 52
4, 250016, Note_on_c, 9, 42, 0
4, 250016, Note_on_c, 9, 36, 55
4, 250208, Note_on_c, 9, 36, 0
4, 250208, Note_on_c, 9, 42, 26
4, 250208, Note_on_c, 9, 42, 0
4, 250304, Note_on_c, 9, 76, 0
4, 250400, Note_on_c, 9, 63, 0
4, 250400, Note_on_c, 9, 40, 22
4, 250592, Note_on_c, 9, 40, 0
4, 250592, Note_on_c, 9, 42, 26
4, 250592, Note_on_c, 9, 42, 0
4, 250592, Note_on_c, 9, 76, 76
4, 250592, Note_on_c, 9, 64, 106
4, 250592, Note_on_c, 9, 36, 45
4, 250680, Note_on_c, 9, 36, 0
4, 250776, Note_on_c, 9, 42, 21
4, 250776, Note_on_c, 9, 42, 0
4, 250776, Note_on_c, 9, 36, 55
4, 250880, Note_on_c, 9, 76, 0
4, 250976, Note_on_c, 9, 42, 65
4, 251064, Note_on_c, 9, 36, 0
4, 251160, Note_on_c, 9, 42, 0
4, 251160, Note_on_c, 9, 64, 0
4, 251160, Note_on_c, 9, 42, 29
4, 251160, Note_on_c, 9, 42, 0
4, 251160, Note_on_c, 9, 76, 60
4, 251352, Note_on_c, 9, 76, 0
4, 251352, Note_on_c, 9, 42, 40
4, 251352, Note_on_c, 9, 42, 0
4, 251544, Note_on_c, 9, 42, 36
4, 251544, Note_on_c, 9, 36, 48
4, 251736, Note_on_c, 9, 36, 0
4, 251736, Note_on_c, 9, 42, 0
4, 251736, Note_on_c, 9, 42, 26
4, 251736, Note_on_c, 9, 64, 18
4, 251832, Note_on_c, 9, 64, 0
4, 251928, Note_on_c, 9, 42, 0
4, 251928, Note_on_c, 9, 42, 39
4, 251928, Note_on_c, 9, 76, 49
4, 252024, Note_on_c, 9, 76, 0
4, 252120, Note_on_c, 9, 42, 0
4, 252120, Note_on_c, 9, 64, 27
4, 252120, Note_on_c, 9, 64, 0
4, 252120, Note_on_c, 9, 42, 33
4, 252120, Note_on_c, 9, 42, 0
4, 252120, Note_on_c, 9, 36, 38
4, 252216, Note_on_c, 9, 36, 0
4, 252312, Note_on_c, 9, 42, 35
4, 252312, Note_on_c, 9, 42, 0
4, 252312, Note_on_c, 9, 76, 76
4, 252312, Note_on_c, 9, 36, 42
4, 252504, Note_on_c, 9, 36, 0
4, 252504, Note_on_c, 9, 76, 0
4, 252504, Note_on_c, 9, 42, 27
4, 252504, Note_on_c, 9, 42, 0
4, 252696, Note_on_c, 9, 42, 50
4, 252696, Note_on_c, 9, 63, 78
4, 252696, Note_on_c, 9, 37, 102
4, 252792, Note_on_c, 9, 37, 0
4, 252888, Note_on_c, 9, 63, 0
4, 252888, Note_on_c, 9, 42, 0
4, 252888, Note_on_c, 9, 42, 25
4, 252888, Note_on_c, 9, 42, 0
4, 253080, Note_on_c, 9, 40, 21
4, 253080, Note_on_c, 9, 76, 65
4, 253080, Note_on_c, 9, 36, 47
4, 253176, Note_on_c, 9, 36, 0
4, 253272, Note_on_c, 9, 40, 0
4, 253272, Note_on_c, 9, 42, 28
4, 253272, Note_on_c, 9, 42, 0
4, 253368, Note_on_c, 9, 76, 0
4, 253464, Note_on_c, 9, 64, 14
4, 253464, Note_on_c, 9, 64, 0
4, 253464, Note_on_c, 9, 42, 23
4, 253464, Note_on_c, 9, 42, 0
4, 253656, Note_on_c, 9, 42, 59
4, 253656, Note_on_c, 9, 42, 0
4, 253656, Note_on_c, 9, 64, 120
4, 253656, Note_on_c, 9, 76, 76
4, 253656, Note_on_c, 9, 36, 44
4, 253752, Note_on_c, 9, 36, 0
4, 253848, Note_on_c, 9, 42, 24
4, 253848, Note_on_c, 9, 42, 0
4, 253848, Note_on_c, 9, 36, 46
4, 253944, Note_on_c, 9, 76, 0
4, 253944, Note_on_c, 9, 64, 0
4, 254040, Note_on_c, 9, 36, 0
4, 254040, Note_on_c, 9, 63, 32
4, 254040, Note_on_c, 9, 42, 35
4, 254136, Note_on_c, 9, 63, 0
4, 254232, Note_on_c, 9, 42, 0
4, 254232, Note_on_c, 9, 63, 30
4, 254232, Note_on_c, 9, 40, 23
4, 254232, Note_on_c, 9, 76, 60
4, 254328, Note_on_c, 9, 63, 0
4, 254424, Note_on_c, 9, 76, 0
4, 254424, Note_on_c, 9, 40, 0
4, 254424, Note_on_c, 9, 63, 127
4, 254424, Note_on_c, 9, 42, 29
4, 254424, Note_on_c, 9, 42, 0
4, 254616, Note_on_c, 9, 63, 0
4, 254616, Note_on_c, 9, 42, 29
4, 254616, Note_on_c, 9, 42, 0
4, 254616, Note_on_c, 9, 36, 62
4, 254808, Note_on_c, 9, 36, 0
4, 254808, Note_on_c, 9, 42, 33
4, 254808, Note_on_c, 9, 42, 0
4, 255000, Note_on_c, 9, 76, 49
4, 255000, Note_on_c, 9, 64, 23
4, 255000, Note_on_c, 9, 64, 0
4, 255000, Note_on_c, 9, 42, 50
4, 255000, Note_on_c, 9, 42, 0
4, 255096, Note_on_c, 9, 76, 0
4, 255192, Note_on_c, 9, 42, 25
4, 255192, Note_on_c, 9, 42, 0
4, 255192, Note_on_c, 9, 64, 108
4, 255192, Note_on_c, 9, 36, 50
4, 255288, Note_on_c, 9, 36, 0
4, 255384, Note_on_c, 9, 64, 0
4, 255384, Note_on_c, 9, 42, 23
4, 255384, Note_on_c, 9, 42, 0
4, 255384, Note_on_c, 9, 76, 76
4, 255384, Note_on_c, 9, 36, 45
4, 255576, Note_on_c, 9, 36, 0
4, 255576, Note_on_c, 9, 76, 0
4, 255576, Note_on_c, 9, 63, 15
4, 255576, Note_on_c, 9, 42, 58
4, 255672, Note_on_c, 9, 63, 0
4, 255768, Note_on_c, 9, 42, 0
4, 255768, Note_on_c, 9, 42, 16
4, 255768, Note_on_c, 9, 42, 0
4, 255768, Note_on_c, 9, 63, 19
4, 255768, Note_on_c, 9, 37, 102
4, 255864, Note_on_c, 9, 37, 0
4, 255864, Note_on_c, 9, 63, 0
4, 255960, Note_on_c, 9, 63, 123
4, 255960, Note_on_c, 9, 42, 29
4, 255960, Note_on_c, 9, 42, 0
4, 256152, Note_on_c, 9, 76, 65
4, 256152, Note_on_c, 9, 42, 52
4, 256152, Note_on_c, 9, 42, 0
4, 256152, Note_on_c, 9, 36, 55
4, 256248, Note_on_c, 9, 63, 0
4, 256336, Note_on_c, 9, 36, 0
4, 256336, Note_on_c, 9, 64, 23
4, 256336, Note_on_c, 9, 42, 26
4, 256336, Note_on_c, 9, 42, 0
4, 256432, Note_on_c, 9, 64, 0
4, 256432, Note_on_c, 9, 76, 0
4, 256528, Note_on_c, 9, 40, 22
4, 256528, Note_on_c, 9, 64, 18
4, 256624, Note_on_c, 9, 64, 0
4, 256720, Note_on_c, 9, 40, 0
4, 256720, Note_on_c, 9, 76, 76
4, 256720, Note_on_c, 9, 42, 26
4, 256720, Note_on_c, 9, 42, 0
4, 256720, Note_on_c, 9, 64, 30
4, 256720, Note_on_c, 9, 36, 45
4, 256816, Note_on_c, 9, 36, 0
4, 256816, Note_on_c, 9, 64, 0
4, 256912, Note_on_c, 9, 42, 21
4, 256912, Note_on_c, 9, 42, 0
4, 256912, Note_on_c, 9, 36, 55
4, 257008, Note_on_c, 9, 76, 0
4, 257104, Note_on_c, 9, 42, 65
4, 257200, Note_on_c, 9, 36, 0
4, 257296, Note_on_c, 9, 42, 0
4, 257296, Note_on_c, 9, 42, 29
4, 257296, Note_on_c, 9, 42, 0
4, 257296, Note_on_c, 9, 76, 60
4, 257488, Note_on_c, 9, 76, 0
4, 257488, Note_on_c, 9, 76, 86
4, 257488, Note_on_c, 9, 42, 40
4, 257488, Note_on_c, 9, 42, 0
4, 257584, Note_on_c, 9, 76, 0
4, 257680, Note_on_c, 9, 42, 36
4, 257680, Note_on_c, 9, 36, 48
4, 257872, Note_on_c, 9, 36, 0
4, 257872, Note_on_c, 9, 42, 0
4, 257872, Note_on_c, 9, 42, 26
4, 258064, Note_on_c, 9, 42, 0
4, 258064, Note_on_c, 9, 76, 49
4, 258064, Note_on_c, 9, 42, 39
4, 258160, Note_on_c, 9, 76, 0
4, 258256, Note_on_c, 9, 42, 0
4, 258256, Note_on_c, 9, 63, 104
4, 258256, Note_on_c, 9, 42, 33
4, 258256, Note_on_c, 9, 42, 0
4, 258256, Note_on_c, 9, 36, 38
4, 258352, Note_on_c, 9, 36, 0
4, 258448, Note_on_c, 9, 76, 76
4, 258448, Note_on_c, 9, 42, 35
4, 258448, Note_on_c, 9, 42, 0
4, 258448, Note_on_c, 9, 36, 42
4, 258544, Note_on_c, 9, 63, 0
4, 258640, Note_on_c, 9, 36, 0
4, 258640, Note_on_c, 9, 76, 0
4, 258640, Note_on_c, 9, 42, 27
4, 258640, Note_on_c, 9, 42, 0
4, 258832, Note_on_c, 9, 37, 102
4, 258832, Note_on_c, 9, 42, 50
4, 258928, Note_on_c, 9, 37, 0
4, 259024, Note_on_c, 9, 42, 0
4, 259024, Note_on_c, 9, 64, 86
4, 259024, Note_on_c, 9, 42, 25
4, 259024, Note_on_c, 9, 42, 0
4, 259216, Note_on_c, 9, 64, 0
4, 259216, Note_on_c, 9, 40, 21
4, 259216, Note_on_c, 9, 76, 65
4, 259216, Note_on_c, 9, 36, 47
4, 259312, Note_on_c, 9, 36, 0
4, 259408, Note_on_c, 9, 40, 0
4, 259408, Note_on_c, 9, 42, 28
4, 259408, Note_on_c, 9, 42, 0
4, 259504, Note_on_c, 9, 76, 0
4, 259600, Note_on_c, 9, 63, 15
4, 259600, Note_on_c, 9, 42, 23
4, 259600, Note_on_c, 9, 42, 0
4, 259696, Note_on_c, 9, 63, 0
4, 259792, Note_on_c, 9, 42, 59
4, 259792, Note_on_c, 9, 42, 0
4, 259792, Note_on_c, 9, 63, 118
4, 259792, Note_on_c, 9, 76, 76
4, 259792, Note_on_c, 9, 36, 44
4, 259888, Note_on_c, 9, 36, 0
4, 259984, Note_on_c, 9, 63, 0
4, 259984, Note_on_c, 9, 42, 24
4, 259984, Note_on_c, 9, 42, 0
4, 259984, Note_on_c, 9, 36, 46
4, 260080, Note_on_c, 9, 76, 0
4, 260176, Note_on_c, 9, 36, 0
4, 260176, Note_on_c, 9, 42, 35
4, 260368, Note_on_c, 9, 42, 0
4, 260368, Note_on_c, 9, 40, 23
4, 260368, Note_on_c, 9, 64, 28
4, 260368, Note_on_c, 9, 64, 0
4, 260368, Note_on_c, 9, 76, 60
4, 260560, Note_on_c, 9, 76, 0
4, 260560, Note_on_c, 9, 40, 0
4, 260560, Note_on_c, 9, 42, 29
4, 260560, Note_on_c, 9, 42, 0
4, 260560, Note_on_c, 9, 57, 18
4, 260560, Note_on_c, 9, 64, 104
4, 260656, Note_on_c, 9, 57, 0
4, 260752, Note_on_c, 9, 64, 0
4, 260752, Note_on_c, 9, 42, 29
4, 260752, Note_on_c, 9, 42, 0
4, 260752, Note_on_c, 9, 36, 62
4, 260944, Note_on_c, 9, 36, 0
4, 260944, Note_on_c, 9, 42, 33
4, 260944, Note_on_c, 9, 42, 0
4, 261136, Note_on_c, 9, 42, 50
4, 261136, Note_on_c, 9, 42, 0
4, 261136, Note_on_c, 9, 76, 49
4, 261232, Note_on_c, 9, 76, 0
4, 261328, Note_on_c, 9, 42, 25
4, 261328, Note_on_c, 9, 42, 0
4, 261328, Note_on_c, 9, 63, 121
4, 261328, Note_on_c, 9, 36, 50
4, 261416, Note_on_c, 9, 36, 0
4, 261512, Note_on_c, 9, 76, 76
4, 261512, Note_on_c, 9, 42, 23
4, 261512, Note_on_c, 9, 42, 0
4, 261512, Note_on_c, 9, 36, 45
4, 261608, Note_on_c, 9, 63, 0
4, 261704, Note_on_c, 9, 36, 0
4, 261704, Note_on_c, 9, 76, 0
4, 261704, Note_on_c, 9, 42, 58
4, 261896, Note_on_c, 9, 42, 0
4, 261896, Note_on_c, 9, 42, 16
4, 261896, Note_on_c, 9, 42, 0
4, 261896, Note_on_c, 9, 37, 102
4, 261992, Note_on_c, 9, 37, 0
4, 262088, Note_on_c, 9, 42, 29
4, 262088, Note_on_c, 9, 42, 0
4, 262088, Note_on_c, 9, 64, 78
4, 262280, Note_on_c, 9, 64, 0
4, 262280, Note_on_c, 9, 76, 65
4, 262280, Note_on_c, 9, 42, 52
4, 262280, Note_on_c, 9, 42, 0
4, 262280, Note_on_c, 9, 36, 55
4, 262472, Note_on_c, 9, 36, 0
4, 262472, Note_on_c, 9, 42, 26
4, 262472, Note_on_c, 9, 42, 0
4, 262568, Note_on_c, 9, 76, 0
4, 262664, Note_on_c, 9, 40, 22
4, 262856, Note_on_c, 9, 40, 0
4, 262856, Note_on_c, 9, 42, 26
4, 262856, Note_on_c, 9, 42, 0
4, 262856, Note_on_c, 9, 63, 121
4, 262856, Note_on_c, 9, 76, 76
4, 262856, Note_on_c, 9, 36, 45
4, 262952, Note_on_c, 9, 36, 0
4, 263048, Note_on_c, 9, 42, 21
4, 263048, Note_on_c, 9, 42, 0
4, 263048, Note_on_c, 9, 36, 55
4, 263144, Note_on_c, 9, 76, 0
4, 263240, Note_on_c, 9, 63, 0
4, 263240, Note_on_c, 9, 42, 65
4, 263240, Note_on_c, 9, 64, 15
4, 263336, Note_on_c, 9, 64, 0
4, 263336, Note_on_c, 9, 36, 0
4, 263432, Note_on_c, 9, 42, 0
4, 263432, Note_on_c, 9, 42, 29
4, 263432, Note_on_c, 9, 42, 0
4, 263432, Note_on_c, 9, 76, 60
4, 263432, Note_on_c, 9, 64, 18
4, 263528, Note_on_c, 9, 64, 0
4, 263624, Note_on_c, 9, 76, 0
4, 263624, Note_on_c, 9, 42, 40
4, 263624, Note_on_c, 9, 42, 0
4, 263624, Note_on_c, 9, 64, 110
4, 263816, Note_on_c, 9, 64, 0
4, 263816, Note_on_c, 9, 42, 36
4, 263816, Note_on_c, 9, 36, 48
4, 264008, Note_on_c, 9, 36, 0
4, 264008, Note_on_c, 9, 42, 0
4, 264008, Note_on_c, 9, 42, 26
4, 264200, Note_on_c, 9, 42, 0
4, 264200, Note_on_c, 9, 42, 39
4, 264200, Note_on_c, 9, 76, 49
4, 264296, Note_on_c, 9, 76, 0
4, 264392, Note_on_c, 9, 42, 0
4, 264392, Note_on_c, 9, 42, 33
4, 264392, Note_on_c, 9, 42, 0
4, 264392, Note_on_c, 9, 63, 98
4, 264392, Note_on_c, 9, 36, 38
4, 264488, Note_on_c, 9, 36, 0
4, 264584, Note_on_c, 9, 42, 35
4, 264584, Note_on_c, 9, 42, 0
4, 264584, Note_on_c, 9, 76, 76
4, 264584, Note_on_c, 9, 36, 42
4, 264680, Note_on_c, 9, 63, 0
4, 264776, Note_on_c, 9, 36, 0
4, 264776, Note_on_c, 9, 76, 0
4, 264776, Note_on_c, 9, 42, 27
4, 264776, Note_on_c, 9, 42, 0
4, 264968, Note_on_c, 9, 37, 102
4, 264968, Note_on_c, 9, 64, 18
4, 264968, Note_on_c, 9, 42, 50
4, 265064, Note_on_c, 9, 64, 0
4, 265064, Note_on_c, 9, 37, 0
4, 265160, Note_on_c, 9, 42, 0
4, 265160, Note_on_c, 9, 64, 98
4, 265160, Note_on_c, 9, 42, 25
4, 265160, Note_on_c, 9, 42, 0
4, 265352, Note_on_c, 9, 64, 0
4, 265352, Note_on_c, 9, 40, 21
4, 265352, Note_on_c, 9, 76, 65
4, 265352, Note_on_c, 9, 36, 47
4, 265448, Note_on_c, 9, 36, 0
4, 265544, Note_on_c, 9, 40, 0
4, 265544, Note_on_c, 9, 42, 28
4, 265544, Note_on_c, 9, 42, 0
4, 265640, Note_on_c, 9, 76, 0
4, 265736, Note_on_c, 9, 63, 28
4, 265736, Note_on_c, 9, 63, 0
4, 265736, Note_on_c, 9, 42, 23
4, 265736, Note_on_c, 9, 42, 0
4, 265928, Note_on_c, 9, 42, 59
4, 265928, Note_on_c, 9, 42, 0
4, 265928, Note_on_c, 9, 63, 32
4, 265928, Note_on_c, 9, 76, 76
4, 265928, Note_on_c, 9, 76, 35
4, 265928, Note_on_c, 9, 36, 44
4, 266024, Note_on_c, 9, 36, 0
4, 266024, Note_on_c, 9, 63, 0
4, 266024, Note_on_c, 9, 76, 0
4, 266120, Note_on_c, 9, 42, 24
4, 266120, Note_on_c, 9, 42, 0
4, 266120, Note_on_c, 9, 63, 18
4, 266120, Note_on_c, 9, 36, 46
4, 266216, Note_on_c, 9, 63, 0
4, 266216, Note_on_c, 9, 76, 0
4, 266312, Note_on_c, 9, 36, 0
4, 266312, Note_on_c, 9, 76, 69
4, 266312, Note_on_c, 9, 63, 44
4, 266312, Note_on_c, 9, 42, 35
4, 266408, Note_on_c, 9, 63, 0
4, 266408, Note_on_c, 9, 76, 0
4, 266504, Note_on_c, 9, 42, 0
4, 266504, Note_on_c, 9, 76, 60
4, 266504, Note_on_c, 9, 76, 90
4, 266504, Note_on_c, 9, 63, 63
4, 266504, Note_on_c, 9, 40, 23
4, 266600, Note_on_c, 9, 63, 0
4, 266600, Note_on_c, 9, 76, 0
4, 266696, Note_on_c, 9, 76, 0
4, 266696, Note_on_c, 9, 40, 0
4, 266696, Note_on_c, 9, 76, 70
4, 266696, Note_on_c, 9, 63, 57
4, 266696, Note_on_c, 9, 42, 29
4, 266696, Note_on_c, 9, 42, 0
4, 266696, Note_on_c, 9, 76, 110
4, 266792, Note_on_c, 9, 63, 0
4, 266792, Note_on_c, 9, 76, 0
4, 266888, Note_on_c, 9, 76, 0
4, 266888, Note_on_c, 9, 42, 29
4, 266888, Note_on_c, 9, 42, 0
4, 266888, Note_on_c, 9, 36, 62
4, 267080, Note_on_c, 9, 36, 0
4, 267080, Note_on_c, 9, 42, 33
4, 267080, Note_on_c, 9, 42, 0
4, 267272, Note_on_c, 9, 76, 49
4, 267272, Note_on_c, 9, 42, 50
4, 267272, Note_on_c, 9, 42, 0
4, 267360, Note_on_c, 9, 76, 0
4, 267456, Note_on_c, 9, 42, 25
4, 267456, Note_on_c, 9, 42, 0
4, 267456, Note_on_c, 9, 63, 86
4, 267456, Note_on_c, 9, 36, 50
4, 267560, Note_on_c, 9, 36, 0
4, 267648, Note_on_c, 9, 63, 0
4, 267648, Note_on_c, 9, 42, 23
4, 267648, Note_on_c, 9, 42, 0
4, 267648, Note_on_c, 9, 76, 76
4, 267648, Note_on_c, 9, 36, 45
4, 267840, Note_on_c, 9, 36, 0
4, 267840, Note_on_c, 9, 76, 0
4, 267840, Note_on_c, 9, 63, 72
4, 267840, Note_on_c, 9, 42, 58
4, 267936, Note_on_c, 9, 63, 0
4, 268032, Note_on_c, 9, 42, 0
4, 268032, Note_on_c, 9, 42, 16
4, 268032, Note_on_c, 9, 42, 0
4, 268032, Note_on_c, 9, 37, 102
4, 268128, Note_on_c, 9, 37, 0
4, 268224, Note_on_c, 9, 42, 29
4, 268224, Note_on_c, 9, 42, 0
4, 268416, Note_on_c, 9, 42, 52
4, 268416, Note_on_c, 9, 42, 0
4, 268416, Note_on_c, 9, 64, 19
4, 268416, Note_on_c, 9, 64, 0
4, 268416, Note_on_c, 9, 76, 65
4, 268416, Note_on_c, 9, 36, 55
4, 268608, Note_on_c, 9, 36, 0
4, 268608, Note_on_c, 9, 59, 78
4, 268608, Note_on_c, 9, 59, 0
4, 268608, Note_on_c, 9, 64, 112
4, 268608, Note_on_c, 9, 42, 26
4, 268608, Note_on_c, 9, 42, 0
4, 268704, Note_on_c, 9, 64, 0
4, 268704, Note_on_c, 9, 76, 0
4, 268800, Note_on_c, 9, 40, 22
4, 268992, Note_on_c, 9, 40, 0
4, 268992, Note_on_c, 9, 42, 26
4, 268992, Note_on_c, 9, 42, 0
4, 268992, Note_on_c, 9, 63, 20
4, 268992, Note_on_c, 9, 76, 76
4, 268992, Note_on_c, 9, 36, 45
4, 269088, Note_on_c, 9, 36, 0
4, 269088, Note_on_c, 9, 63, 0
4, 269184, Note_on_c, 9, 42, 21
4, 269184, Note_on_c, 9, 42, 0
4, 269184, Note_on_c, 9, 63, 13
4, 269184, Note_on_c, 9, 36, 55
4, 269280, Note_on_c, 9, 63, 0
4, 269280, Note_on_c, 9, 76, 0
4, 269376, Note_on_c, 9, 42, 65
4, 269376, Note_on_c, 9, 63, 23
4, 269472, Note_on_c, 9, 63, 0
4, 269472, Note_on_c, 9, 36, 0
4, 269568, Note_on_c, 9, 42, 0
4, 269568, Note_on_c, 9, 42, 29
4, 269568, Note_on_c, 9, 42, 0
4, 269568, Note_on_c, 9, 76, 60
4, 269760, Note_on_c, 9, 76, 0
4, 269760, Note_on_c, 9, 76, 112
4, 269760, Note_on_c, 9, 42, 40
4, 269760, Note_on_c, 9, 42, 0
4, 269856, Note_on_c, 9, 76, 0
4, 269952, Note_on_c, 9, 42, 36
4, 269952, Note_on_c, 9, 36, 48
4, 270144, Note_on_c, 9, 36, 0
4, 270144, Note_on_c, 9, 42, 0
4, 270144, Note_on_c, 9, 42, 26
4, 270336, Note_on_c, 9, 42, 0
4, 270336, Note_on_c, 9, 42, 39
4, 270336, Note_on_c, 9, 76, 49
4, 270336, Note_on_c, 9, 64, 26
4, 270336, Note_on_c, 9, 64, 0
4, 270432, Note_on_c, 9, 76, 0
4, 270528, Note_on_c, 9, 42, 0
4, 270528, Note_on_c, 9, 64, 86
4, 270528, Note_on_c, 9, 42, 33
4, 270528, Note_on_c, 9, 42, 0
4, 270528, Note_on_c, 9, 36, 38
4, 270624, Note_on_c, 9, 36, 0
4, 270720, Note_on_c, 9, 64, 0
4, 270720, Note_on_c, 9, 42, 35
4, 270720, Note_on_c, 9, 42, 0
4, 270720, Note_on_c, 9, 76, 76
4, 270720, Note_on_c, 9, 36, 42
4, 270912, Note_on_c, 9, 36, 0
4, 270912, Note_on_c, 9, 76, 0
4, 270912, Note_on_c, 9, 42, 27
4, 270912, Note_on_c, 9, 42, 0
4, 271104, Note_on_c, 9, 42, 50
4, 271104, Note_on_c, 9, 63, 15
4, 271104, Note_on_c, 9, 37, 102
4, 271200, Note_on_c, 9, 37, 0
4, 271200, Note_on_c, 9, 63, 0
4, 271296, Note_on_c, 9, 42, 0
4, 271296, Note_on_c, 9, 42, 25
4, 271296, Note_on_c, 9, 42, 0
4, 271296, Note_on_c, 9, 63, 121
4, 271488, Note_on_c, 9, 76, 65
4, 271488, Note_on_c, 9, 40, 21
4, 271488, Note_on_c, 9, 36, 47
4, 271584, Note_on_c, 9, 36, 0
4, 271680, Note_on_c, 9, 40, 0
4, 271680, Note_on_c, 9, 63, 0
4, 271680, Note_on_c, 9, 42, 28
4, 271680, Note_on_c, 9, 42, 0
4, 271776, Note_on_c, 9, 76, 0
4, 271872, Note_on_c, 9, 42, 23
4, 271872, Note_on_c, 9, 42, 0
4, 271872, Note_on_c, 9, 64, 17
4, 271872, Note_on_c, 9, 64, 0
4, 271872, End_track
0, 0, End_of_file
