0, 0, Header, 1, 2, 960
1, 0, Start_track
1, 0, Title_t, "Dancing on the Ceiling"
1, 0, Text_t, "Rodgers and Hart - improvised piano solo\012"
1, 0, Text_t, "dougmck@tpg.com.au\012"
1, 0, Time_signature, 4, 2, 24, 8
1, 0, Key_signature, 0, "major"
1, 0, Tempo, 674157
1, 296, Marker_t, "Contrary line descends against ascending melody"
1, 24803, Marker_t, "In run, LH plays Bb, RH plays E triad "
1, 38766, Marker_t, "On turnaround Eb7#9"
1, 40901, Marker_t, "Ab13"
1, 42496, Marker_t, "Db7#11"
1, 46408, Marker_t, "More left hand/ right hand contrary motion"
1, 76800, Marker_t, "Deliberate discord - staccato - no sustain pedal down"
1, 110843, Marker_t, "On Dm chord, LH plays chromatically descending notes from 9th "
1, 134182, Marker_t, "Chord rolled downwards instead of up"
1, 143354, Marker_t, "Melodic phrase passes between the two hands "
1, 161293, Marker_t, "In tempo"
1, 208618, Marker_t, "Descending diminished scale"
1, 221661, Marker_t, "G pedal tone in bass"
1, 234240, Marker_t, "On Em7b5 and A7b9 a diminished scale"
1, 251891, Marker_t, "'Turn' on the note G - with neighbors"
1, 257280, Marker_t, "On the C7+, triads step up in whole tones"
1, 291855, Marker_t, "AbMaj7"
1, 292960, Marker_t, "Ab pentatonic scale"
1, 297789, Marker_t, "C maj7 - lydian sound (with F# )"
1, 297789, End_track
2, 0, Start_track
2, 0, Title_t, "Track 1"
2, 0, Control_c, 0, 64, 0
2, 0, Control_c, 0, 64, 127
2, 296, Note_on_c, 0, 67, 41
2, 823, Control_c, 0, 64, 0
2, 825, Note_on_c, 0, 69, 74
2, 845, Note_on_c, 0, 67, 0
2, 855, Note_on_c, 0, 66, 68
2, 1050, Control_c, 0, 64, 127
2, 1358, Note_on_c, 0, 71, 68
2, 1359, Note_on_c, 0, 67, 59
2, 1379, Control_c, 0, 64, 0
2, 1381, Note_on_c, 0, 66, 0
2, 1382, Note_on_c, 0, 65, 66
2, 1461, Note_on_c, 0, 69, 0
2, 1550, Control_c, 0, 64, 127
2, 1918, Note_on_c, 0, 67, 0
2, 1945, Note_on_c, 0, 71, 0
2, 2003, Note_on_c, 0, 69, 43
2, 2014, Note_on_c, 0, 72, 45
2, 2029, Note_on_c, 0, 64, 48
2, 2036, Control_c, 0, 64, 0
2, 2054, Note_on_c, 0, 65, 0
2, 2235, Control_c, 0, 64, 127
2, 3249, Note_on_c, 0, 72, 0
2, 3253, Note_on_c, 0, 69, 0
2, 3296, Note_on_c, 0, 64, 0
2, 3299, Note_on_c, 0, 62, 36
2, 3306, Control_c, 0, 64, 0
2, 3309, Note_on_c, 0, 67, 38
2, 3310, Note_on_c, 0, 71, 45
2, 3336, Note_on_c, 0, 74, 36
2, 3464, Control_c, 0, 64, 127
2, 3689, Note_on_c, 0, 74, 0
2, 3702, Note_on_c, 0, 67, 0
2, 3718, Note_on_c, 0, 71, 0
2, 4133, Note_on_c, 0, 62, 0
2, 4176, Note_on_c, 0, 76, 33
2, 4179, Note_on_c, 0, 64, 39
2, 4180, Note_on_c, 0, 72, 36
2, 4186, Note_on_c, 0, 68, 36
2, 4219, Note_on_c, 0, 60, 33
2, 4234, Control_c, 0, 64, 0
2, 4478, Control_c, 0, 64, 127
2, 4992, Note_on_c, 0, 60, 0
2, 5086, Note_on_c, 0, 48, 32
2, 5841, Note_on_c, 0, 72, 0
2, 5878, Note_on_c, 0, 76, 0
2, 6093, Note_on_c, 0, 48, 0
2, 6262, Note_on_c, 0, 68, 0
2, 6289, Note_on_c, 0, 64, 0
2, 7184, Note_on_c, 0, 62, 29
2, 7185, Note_on_c, 0, 55, 24
2, 7195, Note_on_c, 0, 57, 34
2, 7204, Control_c, 0, 64, 0
2, 7209, Note_on_c, 0, 60, 33
2, 7235, Note_on_c, 0, 41, 24
2, 7249, Note_on_c, 0, 50, 17
2, 7283, Note_on_c, 0, 48, 20
2, 7718, Control_c, 0, 64, 127
2, 7975, Note_on_c, 0, 55, 0
2, 8044, Note_on_c, 0, 48, 0
2, 8064, Note_on_c, 0, 57, 0
2, 8075, Note_on_c, 0, 41, 0
2, 8095, Note_on_c, 0, 50, 0
2, 8166, Note_on_c, 0, 60, 0
2, 8186, Note_on_c, 0, 62, 0
2, 9244, Control_c, 0, 64, 0
2, 9304, Note_on_c, 0, 74, 72
2, 9310, Note_on_c, 0, 64, 71
2, 9311, Note_on_c, 0, 58, 64
2, 9312, Note_on_c, 0, 69, 67
2, 9358, Control_c, 0, 64, 127
2, 9583, Note_on_c, 0, 69, 0
2, 9590, Note_on_c, 0, 74, 0
2, 9701, Note_on_c, 0, 64, 0
2, 9707, Note_on_c, 0, 58, 0
2, 9801, Control_c, 0, 64, 0
2, 9844, Note_on_c, 0, 72, 59
2, 9855, Note_on_c, 0, 57, 57
2, 9856, Note_on_c, 0, 67, 73
2, 9865, Note_on_c, 0, 62, 58
2, 9945, Control_c, 0, 64, 127
2, 10084, Note_on_c, 0, 72, 0
2, 10118, Note_on_c, 0, 67, 0
2, 10225, Note_on_c, 0, 62, 0
2, 10433, Note_on_c, 0, 71, 45
2, 10456, Note_on_c, 0, 63, 46
2, 10459, Control_c, 0, 64, 0
2, 10462, Note_on_c, 0, 66, 50
2, 10466, Note_on_c, 0, 60, 49
2, 10486, Note_on_c, 0, 57, 0
2, 10494, Note_on_c, 0, 55, 33
2, 10685, Control_c, 0, 64, 127
2, 10947, Note_on_c, 0, 60, 0
2, 10963, Note_on_c, 0, 66, 0
2, 10987, Note_on_c, 0, 63, 0
2, 11070, Note_on_c, 0, 71, 0
2, 11142, Control_c, 0, 64, 0
2, 11179, Note_on_c, 0, 69, 53
2, 11199, Note_on_c, 0, 63, 42
2, 11205, Note_on_c, 0, 54, 45
2, 11211, Note_on_c, 0, 60, 41
2, 11212, Note_on_c, 0, 55, 0
2, 11313, Control_c, 0, 64, 127
2, 11352, Note_on_c, 0, 60, 0
2, 11354, Note_on_c, 0, 54, 0
2, 11446, Note_on_c, 0, 63, 0
2, 11487, Note_on_c, 0, 69, 0
2, 12133, Note_on_c, 0, 67, 33
2, 12149, Note_on_c, 0, 47, 25
2, 12153, Note_on_c, 0, 40, 44
2, 12183, Control_c, 0, 64, 0
2, 12250, Note_on_c, 0, 74, 47
2, 12254, Note_on_c, 0, 55, 29
2, 12378, Note_on_c, 0, 79, 64
2, 12381, Note_on_c, 0, 67, 0
2, 12441, Control_c, 0, 64, 127
2, 12445, Note_on_c, 0, 74, 0
2, 12525, Note_on_c, 0, 79, 0
2, 12730, Note_on_c, 0, 91, 64
2, 12778, Note_on_c, 0, 91, 0
2, 13271, Note_on_c, 0, 91, 62
2, 13680, Note_on_c, 0, 91, 0
2, 13949, Note_on_c, 0, 91, 51
2, 13975, Note_on_c, 0, 40, 0
2, 14012, Note_on_c, 0, 55, 0
2, 14047, Note_on_c, 0, 47, 0
2, 14457, Note_on_c, 0, 91, 0
2, 14791, Note_on_c, 0, 90, 46
2, 14796, Control_c, 0, 64, 0
2, 14805, Note_on_c, 0, 78, 32
2, 14809, Note_on_c, 0, 39, 34
2, 14843, Note_on_c, 0, 54, 32
2, 15010, Control_c, 0, 64, 127
2, 15055, Note_on_c, 0, 39, 0
2, 15181, Note_on_c, 0, 54, 0
2, 15544, Note_on_c, 0, 63, 33
2, 15548, Note_on_c, 0, 54, 32
2, 15572, Note_on_c, 0, 60, 35
2, 15916, Note_on_c, 0, 54, 0
2, 15975, Note_on_c, 0, 63, 0
2, 15994, Note_on_c, 0, 60, 0
2, 16277, Note_on_c, 0, 63, 25
2, 16313, Note_on_c, 0, 54, 29
2, 16329, Note_on_c, 0, 60, 24
2, 16462, Note_on_c, 0, 90, 0
2, 16592, Note_on_c, 0, 78, 0
2, 16659, Note_on_c, 0, 54, 0
2, 16727, Note_on_c, 0, 60, 0
2, 16741, Note_on_c, 0, 63, 0
2, 17019, Note_on_c, 0, 63, 34
2, 17085, Note_on_c, 0, 54, 31
2, 17499, Note_on_c, 0, 63, 0
2, 17547, Note_on_c, 0, 54, 0
2, 18240, Note_on_c, 0, 77, 66
2, 18247, Note_on_c, 0, 72, 63
2, 18249, Note_on_c, 0, 69, 55
2, 18289, Note_on_c, 0, 67, 58
2, 18322, Control_c, 0, 64, 0
2, 18811, Note_on_c, 0, 67, 0
2, 18822, Control_c, 0, 64, 127
2, 18826, Note_on_c, 0, 65, 41
2, 18886, Note_on_c, 0, 72, 0
2, 18991, Note_on_c, 0, 69, 0
2, 19108, Note_on_c, 0, 65, 0
2, 19168, Note_on_c, 0, 77, 0
2, 19419, Note_on_c, 0, 65, 38
2, 19420, Note_on_c, 0, 69, 47
2, 19434, Note_on_c, 0, 60, 24
2, 19857, Note_on_c, 0, 60, 0
2, 20492, Note_on_c, 0, 57, 15
2, 20495, Note_on_c, 0, 59, 14
2, 20633, Note_on_c, 0, 57, 0
2, 20683, Note_on_c, 0, 69, 0
2, 20717, Note_on_c, 0, 59, 0
2, 20823, Note_on_c, 0, 65, 0
2, 21841, Note_on_c, 0, 62, 30
2, 21847, Note_on_c, 0, 59, 29
2, 21899, Note_on_c, 0, 53, 24
2, 21906, Note_on_c, 0, 43, 22
2, 21962, Control_c, 0, 64, 0
2, 22289, Control_c, 0, 64, 127
2, 22634, Note_on_c, 0, 50, 36
2, 22989, Note_on_c, 0, 59, 0
2, 23195, Note_on_c, 0, 62, 0
2, 23273, Note_on_c, 0, 59, 30
2, 23611, Note_on_c, 0, 59, 0
2, 24017, Note_on_c, 0, 67, 81
2, 24119, Note_on_c, 0, 43, 0
2, 24126, Note_on_c, 0, 50, 0
2, 24128, Note_on_c, 0, 53, 0
2, 24657, Note_on_c, 0, 67, 0
2, 24888, Control_c, 0, 64, 0
2, 24890, Note_on_c, 0, 34, 77
2, 25073, Control_c, 0, 64, 127
2, 25136, Note_on_c, 0, 34, 0
2, 25603, Note_on_c, 0, 58, 71
2, 25718, Note_on_c, 0, 58, 0
2, 25770, Note_on_c, 0, 59, 58
2, 25874, Note_on_c, 0, 64, 60
2, 25926, Note_on_c, 0, 59, 0
2, 26032, Note_on_c, 0, 68, 54
2, 26052, Note_on_c, 0, 64, 0
2, 26081, Note_on_c, 0, 68, 0
2, 26160, Note_on_c, 0, 70, 53
2, 26215, Note_on_c, 0, 71, 70
2, 26244, Note_on_c, 0, 70, 0
2, 26342, Note_on_c, 0, 71, 0
2, 26351, Note_on_c, 0, 76, 61
2, 26477, Note_on_c, 0, 76, 0
2, 26486, Note_on_c, 0, 80, 48
2, 26556, Note_on_c, 0, 80, 0
2, 26608, Note_on_c, 0, 82, 62
2, 26651, Note_on_c, 0, 83, 68
2, 26712, Note_on_c, 0, 82, 0
2, 26747, Note_on_c, 0, 86, 64
2, 26782, Note_on_c, 0, 83, 0
2, 26872, Note_on_c, 0, 91, 33
2, 26885, Note_on_c, 0, 86, 0
2, 26937, Note_on_c, 0, 91, 0
2, 27030, Note_on_c, 0, 94, 39
2, 27060, Note_on_c, 0, 95, 49
2, 27063, Note_on_c, 0, 93, 35
2, 27078, Note_on_c, 0, 94, 0
2, 27122, Note_on_c, 0, 93, 0
2, 27138, Note_on_c, 0, 98, 61
2, 27243, Note_on_c, 0, 95, 0
2, 27283, Note_on_c, 0, 103, 81
2, 27689, Note_on_c, 0, 101, 74
2, 27765, Note_on_c, 0, 98, 0
2, 27941, Note_on_c, 0, 103, 0
2, 27973, Note_on_c, 0, 100, 76
2, 28077, Note_on_c, 0, 101, 0
2, 28233, Note_on_c, 0, 98, 57
2, 28290, Note_on_c, 0, 100, 0
2, 28491, Note_on_c, 0, 98, 0
2, 28527, Control_c, 0, 64, 0
2, 28536, Note_on_c, 0, 45, 57
2, 28545, Note_on_c, 0, 97, 61
2, 28686, Note_on_c, 0, 45, 0
2, 28713, Control_c, 0, 64, 127
2, 28874, Note_on_c, 0, 97, 0
2, 28915, Note_on_c, 0, 99, 55
2, 29146, Note_on_c, 0, 99, 0
2, 29325, Note_on_c, 0, 99, 49
2, 29330, Note_on_c, 0, 61, 34
2, 29332, Note_on_c, 0, 64, 35
2, 29338, Note_on_c, 0, 58, 40
2, 29347, Note_on_c, 0, 55, 30
2, 29357, Note_on_c, 0, 94, 49
2, 29708, Note_on_c, 0, 94, 0
2, 29760, Note_on_c, 0, 93, 57
2, 30015, Note_on_c, 0, 93, 0
2, 30059, Note_on_c, 0, 99, 0
2, 30252, Note_on_c, 0, 99, 34
2, 30258, Note_on_c, 0, 93, 53
2, 30590, Note_on_c, 0, 99, 0
2, 30657, Note_on_c, 0, 93, 0
2, 30688, Note_on_c, 0, 91, 57
2, 30917, Note_on_c, 0, 91, 0
2, 31157, Note_on_c, 0, 91, 45
2, 31420, Note_on_c, 0, 64, 0
2, 31430, Note_on_c, 0, 91, 0
2, 31459, Note_on_c, 0, 61, 0
2, 31517, Note_on_c, 0, 58, 0
2, 31555, Note_on_c, 0, 55, 0
2, 31632, Note_on_c, 0, 89, 31
2, 31648, Note_on_c, 0, 88, 32
2, 31732, Note_on_c, 0, 88, 0
2, 32135, Note_on_c, 0, 88, 44
2, 32141, Note_on_c, 0, 50, 35
2, 32166, Control_c, 0, 64, 0
2, 32323, Control_c, 0, 64, 127
2, 32349, Note_on_c, 0, 89, 0
2, 32418, Note_on_c, 0, 88, 0
2, 32648, Note_on_c, 0, 57, 40
2, 33127, Note_on_c, 0, 65, 40
2, 33132, Note_on_c, 0, 74, 45
2, 33133, Note_on_c, 0, 70, 51
2, 33135, Note_on_c, 0, 50, 0
2, 33163, Note_on_c, 0, 57, 0
2, 33169, Note_on_c, 0, 62, 28
2, 33506, Note_on_c, 0, 62, 0
2, 33619, Note_on_c, 0, 70, 0
2, 33674, Note_on_c, 0, 60, 38
2, 33683, Note_on_c, 0, 74, 0
2, 33721, Note_on_c, 0, 65, 0
2, 34002, Note_on_c, 0, 60, 0
2, 34176, Note_on_c, 0, 57, 55
2, 34191, Note_on_c, 0, 65, 52
2, 34200, Note_on_c, 0, 60, 30
2, 34331, Note_on_c, 0, 57, 0
2, 34768, Note_on_c, 0, 50, 28
2, 34935, Note_on_c, 0, 65, 0
2, 34983, Note_on_c, 0, 60, 0
2, 35402, Note_on_c, 0, 63, 39
2, 35407, Control_c, 0, 64, 0
2, 35417, Note_on_c, 0, 59, 31
2, 35426, Note_on_c, 0, 43, 26
2, 35459, Note_on_c, 0, 53, 20
2, 35493, Note_on_c, 0, 50, 0
2, 35750, Control_c, 0, 64, 127
2, 36274, Note_on_c, 0, 68, 46
2, 36404, Note_on_c, 0, 53, 0
2, 36477, Note_on_c, 0, 43, 0
2, 36813, Note_on_c, 0, 68, 0
2, 36897, Note_on_c, 0, 59, 0
2, 36948, Note_on_c, 0, 63, 0
2, 37634, Control_c, 0, 64, 0
2, 37637, Note_on_c, 0, 36, 53
2, 37805, Control_c, 0, 64, 127
2, 38110, Note_on_c, 0, 43, 46
2, 38150, Note_on_c, 0, 36, 0
2, 38230, Note_on_c, 0, 43, 0
2, 38769, Note_on_c, 0, 66, 60
2, 38772, Note_on_c, 0, 61, 64
2, 38781, Note_on_c, 0, 55, 52
2, 38789, Control_c, 0, 64, 0
2, 38802, Note_on_c, 0, 39, 52
2, 38829, Note_on_c, 0, 46, 36
2, 39019, Control_c, 0, 64, 127
2, 40515, Note_on_c, 0, 55, 0
2, 40537, Note_on_c, 0, 39, 0
2, 40574, Note_on_c, 0, 46, 0
2, 40578, Note_on_c, 0, 66, 0
2, 40726, Note_on_c, 0, 61, 0
2, 41113, Note_on_c, 0, 65, 48
2, 41118, Control_c, 0, 64, 0
2, 41129, Note_on_c, 0, 54, 42
2, 41136, Note_on_c, 0, 60, 42
2, 41152, Note_on_c, 0, 44, 36
2, 41174, Note_on_c, 0, 32, 33
2, 41374, Control_c, 0, 64, 127
2, 41671, Note_on_c, 0, 54, 0
2, 41687, Note_on_c, 0, 65, 0
2, 41724, Note_on_c, 0, 60, 0
2, 41758, Note_on_c, 0, 44, 0
2, 41820, Note_on_c, 0, 32, 0
2, 42691, Note_on_c, 0, 67, 27
2, 42715, Control_c, 0, 64, 0
2, 42724, Note_on_c, 0, 59, 36
2, 42738, Note_on_c, 0, 55, 24
2, 42739, Note_on_c, 0, 25, 37
2, 42745, Note_on_c, 0, 37, 28
2, 42757, Note_on_c, 0, 53, 28
2, 43214, Control_c, 0, 64, 127
2, 43366, Note_on_c, 0, 25, 0
2, 43464, Note_on_c, 0, 37, 0
2, 43658, Note_on_c, 0, 53, 0
2, 43723, Note_on_c, 0, 59, 0
2, 43742, Note_on_c, 0, 55, 0
2, 43937, Note_on_c, 0, 67, 0
2, 44515, Note_on_c, 0, 67, 36
2, 44518, Note_on_c, 0, 43, 27
2, 44532, Note_on_c, 0, 62, 34
2, 44548, Note_on_c, 0, 52, 44
2, 44552, Note_on_c, 0, 36, 27
2, 44556, Control_c, 0, 64, 0
2, 44558, Note_on_c, 0, 57, 24
2, 45012, Control_c, 0, 64, 127
2, 45090, Note_on_c, 0, 57, 0
2, 45200, Note_on_c, 0, 36, 0
2, 45296, Note_on_c, 0, 43, 0
2, 45365, Note_on_c, 0, 62, 0
2, 45378, Note_on_c, 0, 67, 0
2, 45434, Note_on_c, 0, 52, 0
2, 46673, Note_on_c, 0, 79, 61
2, 47050, Note_on_c, 0, 78, 38
2, 48128, Note_on_c, 0, 81, 58
2, 48135, Note_on_c, 0, 77, 57
2, 48136, Note_on_c, 0, 78, 0
2, 48142, Note_on_c, 0, 79, 0
2, 48212, Control_c, 0, 64, 0
2, 48495, Control_c, 0, 64, 127
2, 48652, Note_on_c, 0, 76, 48
2, 48668, Control_c, 0, 64, 0
2, 48746, Note_on_c, 0, 77, 0
2, 48796, Control_c, 0, 64, 127
2, 49066, Control_c, 0, 64, 0
2, 49090, Note_on_c, 0, 75, 46
2, 49093, Note_on_c, 0, 79, 35
2, 49099, Note_on_c, 0, 83, 60
2, 49140, Note_on_c, 0, 76, 0
2, 49160, Note_on_c, 0, 81, 0
2, 49224, Control_c, 0, 64, 127
2, 49525, Note_on_c, 0, 74, 35
2, 49529, Note_on_c, 0, 75, 0
2, 49879, Control_c, 0, 64, 0
2, 49898, Note_on_c, 0, 83, 0
2, 49961, Note_on_c, 0, 73, 32
2, 49962, Note_on_c, 0, 74, 0
2, 49975, Note_on_c, 0, 84, 30
2, 50066, Control_c, 0, 64, 127
2, 50378, Note_on_c, 0, 79, 0
2, 50482, Note_on_c, 0, 86, 61
2, 50661, Note_on_c, 0, 84, 0
2, 50694, Note_on_c, 0, 86, 0
2, 50994, Note_on_c, 0, 88, 56
2, 50997, Note_on_c, 0, 80, 46
2, 51013, Note_on_c, 0, 76, 44
2, 51034, Note_on_c, 0, 84, 53
2, 51046, Note_on_c, 0, 72, 31
2, 51051, Control_c, 0, 64, 0
2, 51058, Note_on_c, 0, 73, 0
2, 51293, Control_c, 0, 64, 127
2, 51642, Note_on_c, 0, 70, 36
2, 51644, Note_on_c, 0, 88, 0
2, 51649, Note_on_c, 0, 72, 0
2, 51699, Note_on_c, 0, 84, 0
2, 51809, Note_on_c, 0, 80, 0
2, 51812, Note_on_c, 0, 76, 0
2, 51907, Note_on_c, 0, 70, 0
2, 52218, Note_on_c, 0, 67, 35
2, 52666, Note_on_c, 0, 60, 45
2, 52689, Note_on_c, 0, 67, 0
2, 52843, Note_on_c, 0, 60, 0
2, 53152, Note_on_c, 0, 68, 48
2, 53381, Note_on_c, 0, 68, 0
2, 53768, Note_on_c, 0, 64, 30
2, 53803, Note_on_c, 0, 58, 30
2, 54020, Note_on_c, 0, 64, 0
2, 54334, Note_on_c, 0, 58, 0
2, 54403, Note_on_c, 0, 65, 36
2, 54428, Note_on_c, 0, 62, 33
2, 54440, Note_on_c, 0, 69, 41
2, 54466, Note_on_c, 0, 53, 24
2, 54476, Control_c, 0, 64, 0
2, 54762, Control_c, 0, 64, 127
2, 54974, Note_on_c, 0, 62, 0
2, 54977, Note_on_c, 0, 61, 46
2, 55004, Control_c, 0, 64, 0
2, 55104, Control_c, 0, 64, 127
2, 55255, Note_on_c, 0, 69, 0
2, 55330, Note_on_c, 0, 65, 0
2, 55574, Note_on_c, 0, 74, 53
2, 55575, Note_on_c, 0, 61, 0
2, 55590, Control_c, 0, 64, 0
2, 55594, Note_on_c, 0, 64, 51
2, 55595, Note_on_c, 0, 60, 45
2, 55600, Note_on_c, 0, 69, 43
2, 55789, Control_c, 0, 64, 127
2, 56020, Note_on_c, 0, 74, 0
2, 56145, Note_on_c, 0, 53, 0
2, 56253, Note_on_c, 0, 53, 48
2, 56448, Note_on_c, 0, 69, 0
2, 56564, Note_on_c, 0, 60, 0
2, 56611, Note_on_c, 0, 64, 0
2, 56703, Note_on_c, 0, 53, 0
2, 56910, Note_on_c, 0, 72, 63
2, 57135, Note_on_c, 0, 72, 0
2, 57521, Note_on_c, 0, 71, 57
2, 57542, Note_on_c, 0, 39, 48
2, 57549, Note_on_c, 0, 54, 43
2, 57552, Note_on_c, 0, 66, 54
2, 57553, Note_on_c, 0, 63, 50
2, 57562, Note_on_c, 0, 60, 52
2, 57602, Control_c, 0, 64, 0
2, 57859, Control_c, 0, 64, 127
2, 58020, Note_on_c, 0, 71, 0
2, 58250, Note_on_c, 0, 71, 65
2, 58257, Note_on_c, 0, 39, 0
2, 58335, Note_on_c, 0, 54, 0
2, 58675, Note_on_c, 0, 60, 0
2, 58687, Note_on_c, 0, 71, 0
2, 58789, Note_on_c, 0, 69, 58
2, 58836, Note_on_c, 0, 63, 0
2, 58845, Note_on_c, 0, 66, 0
2, 58923, Note_on_c, 0, 69, 0
2, 59429, Control_c, 0, 64, 0
2, 59430, Note_on_c, 0, 47, 34
2, 59457, Note_on_c, 0, 55, 31
2, 59460, Note_on_c, 0, 40, 43
2, 59461, Note_on_c, 0, 79, 66
2, 59471, Note_on_c, 0, 67, 51
2, 59479, Note_on_c, 0, 74, 55
2, 59625, Note_on_c, 0, 40, 0
2, 59658, Control_c, 0, 64, 127
2, 59694, Note_on_c, 0, 47, 0
2, 59751, Note_on_c, 0, 55, 0
2, 59993, Note_on_c, 0, 79, 0
2, 60127, Note_on_c, 0, 79, 41
2, 60142, Note_on_c, 0, 55, 24
2, 60146, Note_on_c, 0, 62, 44
2, 60175, Note_on_c, 0, 59, 44
2, 60176, Note_on_c, 0, 52, 32
2, 60579, Note_on_c, 0, 52, 0
2, 60596, Note_on_c, 0, 79, 0
2, 60615, Note_on_c, 0, 62, 0
2, 60638, Note_on_c, 0, 55, 0
2, 60658, Note_on_c, 0, 59, 0
2, 60833, Note_on_c, 0, 79, 45
2, 60868, Note_on_c, 0, 62, 33
2, 60891, Note_on_c, 0, 55, 24
2, 60898, Note_on_c, 0, 59, 25
2, 61150, Note_on_c, 0, 62, 0
2, 61192, Note_on_c, 0, 55, 0
2, 61232, Note_on_c, 0, 59, 0
2, 61297, Note_on_c, 0, 67, 0
2, 61304, Note_on_c, 0, 74, 0
2, 61337, Note_on_c, 0, 79, 0
2, 61528, Note_on_c, 0, 79, 36
2, 61552, Note_on_c, 0, 67, 33
2, 61553, Note_on_c, 0, 74, 44
2, 61575, Note_on_c, 0, 59, 22
2, 61585, Note_on_c, 0, 55, 24
2, 61652, Note_on_c, 0, 59, 0
2, 61687, Note_on_c, 0, 55, 0
2, 62597, Control_c, 0, 64, 0
2, 62603, Note_on_c, 0, 27, 49
2, 62768, Control_c, 0, 64, 127
2, 62779, Note_on_c, 0, 27, 0
2, 62994, Note_on_c, 0, 79, 0
2, 63044, Note_on_c, 0, 74, 0
2, 63047, Note_on_c, 0, 67, 0
2, 63658, Note_on_c, 0, 78, 44
2, 63684, Note_on_c, 0, 64, 36
2, 63688, Note_on_c, 0, 61, 33
2, 63692, Note_on_c, 0, 75, 46
2, 63696, Note_on_c, 0, 66, 28
2, 63704, Note_on_c, 0, 58, 38
2, 63937, Note_on_c, 0, 64, 0
2, 63967, Note_on_c, 0, 61, 0
2, 64015, Note_on_c, 0, 75, 0
2, 64030, Note_on_c, 0, 58, 0
2, 64040, Note_on_c, 0, 66, 0
2, 64072, Note_on_c, 0, 78, 0
2, 64474, Note_on_c, 0, 75, 62
2, 64510, Note_on_c, 0, 66, 50
2, 64514, Note_on_c, 0, 69, 60
2, 64515, Note_on_c, 0, 60, 47
2, 64820, Note_on_c, 0, 69, 0
2, 64829, Note_on_c, 0, 75, 0
2, 64928, Note_on_c, 0, 66, 0
2, 65162, Note_on_c, 0, 60, 0
2, 65200, Note_on_c, 0, 72, 53
2, 65204, Note_on_c, 0, 66, 63
2, 65216, Note_on_c, 0, 63, 55
2, 65233, Note_on_c, 0, 57, 53
2, 65437, Note_on_c, 0, 63, 0
2, 65528, Note_on_c, 0, 57, 0
2, 65635, Note_on_c, 0, 66, 0
2, 65640, Note_on_c, 0, 72, 0
2, 66010, Note_on_c, 0, 69, 66
2, 66018, Note_on_c, 0, 65, 65
2, 66020, Note_on_c, 0, 64, 69
2, 66052, Control_c, 0, 64, 0
2, 66057, Note_on_c, 0, 50, 41
2, 66366, Control_c, 0, 64, 127
2, 66799, Note_on_c, 0, 62, 64
2, 67215, Note_on_c, 0, 64, 0
2, 67326, Note_on_c, 0, 65, 0
2, 67370, Note_on_c, 0, 62, 0
2, 67518, Note_on_c, 0, 62, 49
2, 67520, Note_on_c, 0, 65, 64
2, 67536, Note_on_c, 0, 60, 47
2, 67880, Note_on_c, 0, 69, 0
2, 67947, Note_on_c, 0, 65, 0
2, 68015, Note_on_c, 0, 62, 0
2, 68081, Note_on_c, 0, 60, 0
2, 68174, Note_on_c, 0, 50, 0
2, 68176, Note_on_c, 0, 57, 68
2, 68374, Note_on_c, 0, 57, 0
2, 69012, Note_on_c, 0, 50, 53
2, 69018, Note_on_c, 0, 57, 68
2, 69024, Note_on_c, 0, 43, 39
2, 69028, Note_on_c, 0, 60, 49
2, 69035, Note_on_c, 0, 53, 41
2, 69135, Control_c, 0, 64, 0
2, 69405, Control_c, 0, 64, 127
2, 69868, Note_on_c, 0, 62, 58
2, 70329, Note_on_c, 0, 50, 0
2, 70349, Note_on_c, 0, 53, 0
2, 70389, Note_on_c, 0, 43, 0
2, 70408, Note_on_c, 0, 57, 0
2, 70500, Note_on_c, 0, 60, 0
2, 70535, Note_on_c, 0, 62, 0
2, 71133, Note_on_c, 0, 41, 40
2, 71274, Note_on_c, 0, 48, 41
2, 71352, Note_on_c, 0, 57, 55
2, 71363, Note_on_c, 0, 63, 52
2, 71386, Note_on_c, 0, 67, 47
2, 71390, Control_c, 0, 64, 0
2, 71410, Note_on_c, 0, 74, 78
2, 71446, Note_on_c, 0, 71, 44
2, 71705, Control_c, 0, 64, 127
2, 72483, Note_on_c, 0, 48, 0
2, 72485, Note_on_c, 0, 57, 0
2, 72575, Note_on_c, 0, 41, 0
2, 72675, Note_on_c, 0, 74, 0
2, 72719, Note_on_c, 0, 71, 0
2, 72890, Note_on_c, 0, 72, 55
2, 72971, Note_on_c, 0, 67, 0
2, 73079, Note_on_c, 0, 63, 0
2, 73230, Note_on_c, 0, 72, 0
2, 73532, Control_c, 0, 64, 0
2, 73561, Note_on_c, 0, 62, 44
2, 73566, Note_on_c, 0, 40, 43
2, 73573, Note_on_c, 0, 67, 44
2, 73606, Note_on_c, 0, 55, 19
2, 73717, Control_c, 0, 64, 127
2, 73720, Note_on_c, 0, 40, 0
2, 73874, Note_on_c, 0, 55, 0
2, 74032, Note_on_c, 0, 62, 0
2, 74593, Note_on_c, 0, 57, 58
2, 74594, Note_on_c, 0, 62, 44
2, 74613, Note_on_c, 0, 58, 58
2, 74685, Note_on_c, 0, 67, 0
2, 74938, Note_on_c, 0, 57, 0
2, 74969, Note_on_c, 0, 58, 0
2, 74996, Note_on_c, 0, 62, 0
2, 75405, Note_on_c, 0, 62, 54
2, 75406, Note_on_c, 0, 67, 59
2, 75449, Note_on_c, 0, 56, 53
2, 76209, Note_on_c, 0, 77, 95
2, 76604, Note_on_c, 0, 62, 0
2, 76668, Note_on_c, 0, 67, 0
2, 76873, Note_on_c, 0, 77, 0
2, 76877, Note_on_c, 0, 56, 0
2, 76988, Note_on_c, 0, 75, 69
2, 77012, Note_on_c, 0, 76, 71
2, 77019, Note_on_c, 0, 65, 54
2, 77024, Note_on_c, 0, 61, 25
2, 77025, Note_on_c, 0, 55, 42
2, 77044, Control_c, 0, 64, 0
2, 77122, Note_on_c, 0, 75, 0
2, 77197, Note_on_c, 0, 76, 0
2, 77556, Note_on_c, 0, 72, 50
2, 77579, Note_on_c, 0, 73, 42
2, 77763, Note_on_c, 0, 72, 0
2, 77864, Note_on_c, 0, 73, 0
2, 78126, Note_on_c, 0, 70, 36
2, 78142, Note_on_c, 0, 72, 33
2, 78498, Control_c, 0, 64, 127
2, 78730, Note_on_c, 0, 72, 0
2, 78811, Note_on_c, 0, 70, 0
2, 78925, Note_on_c, 0, 65, 0
2, 78963, Note_on_c, 0, 69, 56
2, 78969, Control_c, 0, 64, 0
2, 79000, Note_on_c, 0, 70, 52
2, 79127, Control_c, 0, 64, 127
2, 79328, Note_on_c, 0, 69, 0
2, 79405, Note_on_c, 0, 70, 0
2, 79425, Note_on_c, 0, 67, 50
2, 79746, Note_on_c, 0, 67, 0
2, 79880, Note_on_c, 0, 65, 54
2, 79926, Note_on_c, 0, 61, 0
2, 80115, Note_on_c, 0, 55, 0
2, 80336, Note_on_c, 0, 64, 48
2, 80349, Note_on_c, 0, 65, 0
2, 80698, Note_on_c, 0, 64, 0
2, 80822, Note_on_c, 0, 65, 40
2, 80840, Control_c, 0, 64, 0
2, 80850, Note_on_c, 0, 50, 33
2, 80903, Note_on_c, 0, 60, 13
2, 81266, Control_c, 0, 64, 127
2, 81377, Note_on_c, 0, 57, 39
2, 81496, Note_on_c, 0, 60, 0
2, 81938, Note_on_c, 0, 65, 0
2, 81939, Note_on_c, 0, 62, 35
2, 82240, Note_on_c, 0, 62, 0
2, 82490, Note_on_c, 0, 76, 66
2, 82513, Note_on_c, 0, 50, 0
2, 82550, Note_on_c, 0, 57, 0
2, 83061, Note_on_c, 0, 69, 37
2, 83063, Note_on_c, 0, 65, 32
2, 83084, Note_on_c, 0, 64, 33
2, 83123, Control_c, 0, 64, 0
2, 83521, Control_c, 0, 64, 127
2, 83678, Note_on_c, 0, 62, 28
2, 83692, Note_on_c, 0, 64, 0
2, 83798, Note_on_c, 0, 62, 0
2, 83960, Note_on_c, 0, 65, 0
2, 83961, Note_on_c, 0, 69, 0
2, 84016, Note_on_c, 0, 76, 0
2, 84336, Note_on_c, 0, 74, 45
2, 84352, Note_on_c, 0, 68, 31
2, 84356, Note_on_c, 0, 65, 26
2, 84372, Note_on_c, 0, 64, 32
2, 84379, Control_c, 0, 64, 0
2, 84382, Note_on_c, 0, 59, 28
2, 84389, Note_on_c, 0, 53, 24
2, 84649, Control_c, 0, 64, 127
2, 85296, Note_on_c, 0, 65, 0
2, 85438, Note_on_c, 0, 68, 0
2, 85676, Note_on_c, 0, 74, 0
2, 86869, Note_on_c, 0, 74, 57
2, 87057, Note_on_c, 0, 64, 0
2, 87108, Note_on_c, 0, 59, 0
2, 87136, Note_on_c, 0, 53, 0
2, 88575, Control_c, 0, 64, 0
2, 88594, Note_on_c, 0, 74, 0
2, 88608, Note_on_c, 0, 72, 38
2, 88668, Note_on_c, 0, 36, 30
2, 88775, Control_c, 0, 64, 127
2, 88793, Note_on_c, 0, 72, 0
2, 89071, Note_on_c, 0, 43, 24
2, 89149, Note_on_c, 0, 36, 0
2, 89351, Note_on_c, 0, 43, 0
2, 89475, Note_on_c, 0, 52, 30
2, 89478, Note_on_c, 0, 76, 55
2, 89489, Note_on_c, 0, 83, 53
2, 89553, Note_on_c, 0, 52, 0
2, 89770, Note_on_c, 0, 83, 0
2, 89850, Note_on_c, 0, 76, 0
2, 90499, Note_on_c, 0, 67, 43
2, 90508, Note_on_c, 0, 62, 38
2, 90781, Note_on_c, 0, 62, 0
2, 90824, Note_on_c, 0, 67, 0
2, 90953, Note_on_c, 0, 57, 44
2, 91049, Note_on_c, 0, 57, 0
2, 91410, Note_on_c, 0, 71, 55
2, 91410, Note_on_c, 0, 79, 58
2, 91778, Note_on_c, 0, 79, 0
2, 91816, Note_on_c, 0, 64, 38
2, 91853, Note_on_c, 0, 71, 0
2, 92171, Note_on_c, 0, 64, 0
2, 92262, Note_on_c, 0, 74, 52
2, 92273, Note_on_c, 0, 67, 42
2, 92712, Note_on_c, 0, 67, 0
2, 92753, Note_on_c, 0, 74, 0
2, 92775, Note_on_c, 0, 59, 30
2, 92920, Note_on_c, 0, 59, 0
2, 93266, Note_on_c, 0, 67, 36
2, 93267, Note_on_c, 0, 62, 32
2, 93272, Note_on_c, 0, 64, 34
2, 93864, Note_on_c, 0, 55, 36
2, 95087, Note_on_c, 0, 55, 0
2, 95443, Note_on_c, 0, 62, 0
2, 95873, Note_on_c, 0, 64, 0
2, 95883, Note_on_c, 0, 67, 0
2, 96587, Note_on_c, 0, 69, 54
2, 96589, Note_on_c, 0, 58, 56
2, 96601, Note_on_c, 0, 62, 46
2, 96612, Control_c, 0, 64, 0
2, 96614, Note_on_c, 0, 64, 44
2, 96619, Note_on_c, 0, 57, 47
2, 96726, Control_c, 0, 64, 127
2, 96816, Note_on_c, 0, 57, 0
2, 96891, Note_on_c, 0, 58, 0
2, 96947, Note_on_c, 0, 64, 0
2, 96953, Note_on_c, 0, 62, 0
2, 96985, Note_on_c, 0, 69, 0
2, 97573, Note_on_c, 0, 62, 44
2, 97595, Note_on_c, 0, 60, 30
2, 97601, Note_on_c, 0, 53, 31
2, 97603, Note_on_c, 0, 41, 39
2, 97609, Note_on_c, 0, 50, 38
2, 97610, Note_on_c, 0, 57, 43
2, 97639, Control_c, 0, 64, 0
2, 98038, Control_c, 0, 64, 127
2, 98300, Note_on_c, 0, 62, 0
2, 98419, Note_on_c, 0, 62, 58
2, 98503, Note_on_c, 0, 57, 0
2, 98545, Note_on_c, 0, 41, 0
2, 98678, Note_on_c, 0, 53, 0
2, 98775, Note_on_c, 0, 50, 0
2, 98868, Note_on_c, 0, 62, 0
2, 98928, Note_on_c, 0, 60, 0
2, 99015, Note_on_c, 0, 62, 51
2, 99037, Control_c, 0, 64, 0
2, 99046, Note_on_c, 0, 40, 35
2, 99047, Note_on_c, 0, 59, 53
2, 99224, Control_c, 0, 64, 127
2, 99268, Note_on_c, 0, 40, 0
2, 99329, Note_on_c, 0, 62, 0
2, 99460, Note_on_c, 0, 62, 57
2, 99557, Note_on_c, 0, 59, 0
2, 99698, Note_on_c, 0, 62, 0
2, 99923, Control_c, 0, 64, 0
2, 99949, Note_on_c, 0, 38, 39
2, 99952, Note_on_c, 0, 62, 43
2, 99954, Note_on_c, 0, 45, 34
2, 99979, Note_on_c, 0, 57, 50
2, 99989, Note_on_c, 0, 60, 35
2, 99996, Note_on_c, 0, 53, 18
2, 100194, Control_c, 0, 64, 127
2, 100517, Note_on_c, 0, 38, 0
2, 100547, Note_on_c, 0, 64, 62
2, 100570, Note_on_c, 0, 45, 0
2, 100621, Note_on_c, 0, 60, 0
2, 100668, Note_on_c, 0, 57, 0
2, 100701, Note_on_c, 0, 53, 0
2, 100844, Note_on_c, 0, 64, 0
2, 100889, Note_on_c, 0, 62, 0
2, 101179, Control_c, 0, 64, 0
2, 101183, Note_on_c, 0, 53, 32
2, 101189, Note_on_c, 0, 57, 45
2, 101192, Note_on_c, 0, 43, 24
2, 101193, Note_on_c, 0, 60, 42
2, 101206, Note_on_c, 0, 50, 29
2, 101521, Control_c, 0, 64, 127
2, 102468, Note_on_c, 0, 53, 0
2, 102539, Note_on_c, 0, 62, 49
2, 102631, Note_on_c, 0, 50, 0
2, 102644, Note_on_c, 0, 60, 0
2, 102677, Note_on_c, 0, 57, 0
2, 102817, Note_on_c, 0, 62, 0
2, 103245, Note_on_c, 0, 67, 55
2, 103250, Control_c, 0, 64, 0
2, 103272, Note_on_c, 0, 64, 39
2, 103292, Note_on_c, 0, 62, 37
2, 103295, Note_on_c, 0, 59, 53
2, 103312, Note_on_c, 0, 55, 36
2, 103419, Control_c, 0, 64, 127
2, 103493, Note_on_c, 0, 59, 0
2, 103556, Note_on_c, 0, 62, 0
2, 103571, Note_on_c, 0, 64, 0
2, 103588, Note_on_c, 0, 67, 0
2, 103819, Note_on_c, 0, 43, 0
2, 103932, Note_on_c, 0, 55, 0
2, 104046, Note_on_c, 0, 74, 76
2, 104387, Note_on_c, 0, 74, 0
2, 104733, Note_on_c, 0, 79, 83
2, 104748, Note_on_c, 0, 64, 38
2, 104756, Note_on_c, 0, 67, 33
2, 104760, Control_c, 0, 64, 0
2, 104765, Note_on_c, 0, 62, 32
2, 104918, Control_c, 0, 64, 127
2, 105085, Note_on_c, 0, 67, 0
2, 105319, Note_on_c, 0, 71, 35
2, 105347, Control_c, 0, 64, 0
2, 105371, Note_on_c, 0, 55, 37
2, 105531, Control_c, 0, 64, 127
2, 105874, Note_on_c, 0, 79, 0
2, 106009, Note_on_c, 0, 76, 74
2, 106110, Note_on_c, 0, 71, 0
2, 106418, Note_on_c, 0, 62, 0
2, 106425, Note_on_c, 0, 64, 0
2, 106553, Note_on_c, 0, 55, 0
2, 106754, Note_on_c, 0, 76, 0
2, 106777, Note_on_c, 0, 74, 57
2, 106795, Note_on_c, 0, 67, 48
2, 106817, Control_c, 0, 64, 0
2, 106899, Note_on_c, 0, 62, 7
2, 107016, Control_c, 0, 64, 127
2, 107175, Note_on_c, 0, 62, 0
2, 107235, Note_on_c, 0, 74, 0
2, 107338, Note_on_c, 0, 67, 0
2, 107581, Note_on_c, 0, 73, 38
2, 107596, Note_on_c, 0, 67, 35
2, 107601, Control_c, 0, 64, 0
2, 107614, Note_on_c, 0, 61, 31
2, 107631, Note_on_c, 0, 55, 18
2, 107637, Note_on_c, 0, 65, 20
2, 107758, Control_c, 0, 64, 127
2, 108023, Note_on_c, 0, 65, 0
2, 108030, Note_on_c, 0, 67, 0
2, 108335, Note_on_c, 0, 61, 0
2, 108447, Note_on_c, 0, 65, 41
2, 108456, Note_on_c, 0, 68, 47
2, 108466, Note_on_c, 0, 61, 29
2, 108571, Control_c, 0, 64, 0
2, 108658, Control_c, 0, 64, 127
2, 108766, Note_on_c, 0, 61, 0
2, 108799, Note_on_c, 0, 55, 0
2, 109000, Note_on_c, 0, 65, 0
2, 109011, Note_on_c, 0, 68, 0
2, 109015, Note_on_c, 0, 73, 0
2, 109397, Note_on_c, 0, 64, 37
2, 109405, Note_on_c, 0, 69, 42
2, 109433, Note_on_c, 0, 65, 49
2, 109441, Note_on_c, 0, 50, 31
2, 109444, Control_c, 0, 64, 0
2, 109451, Note_on_c, 0, 60, 28
2, 109828, Control_c, 0, 64, 127
2, 110323, Note_on_c, 0, 57, 46
2, 110377, Note_on_c, 0, 60, 0
2, 110405, Note_on_c, 0, 64, 0
2, 110455, Note_on_c, 0, 50, 0
2, 110647, Note_on_c, 0, 65, 0
2, 110701, Note_on_c, 0, 69, 0
2, 110931, Note_on_c, 0, 57, 0
2, 111295, Note_on_c, 0, 74, 65
2, 111314, Note_on_c, 0, 65, 59
2, 111319, Note_on_c, 0, 69, 64
2, 111326, Control_c, 0, 64, 0
2, 111334, Note_on_c, 0, 64, 58
2, 111737, Note_on_c, 0, 63, 56
2, 111769, Control_c, 0, 64, 127
2, 111782, Note_on_c, 0, 64, 0
2, 112047, Note_on_c, 0, 74, 0
2, 112058, Note_on_c, 0, 65, 0
2, 112085, Note_on_c, 0, 69, 0
2, 112212, Control_c, 0, 64, 0
2, 112214, Note_on_c, 0, 63, 0
2, 112218, Note_on_c, 0, 74, 51
2, 112236, Note_on_c, 0, 65, 42
2, 112242, Note_on_c, 0, 69, 37
2, 112248, Note_on_c, 0, 62, 44
2, 112540, Control_c, 0, 64, 127
2, 112725, Note_on_c, 0, 62, 0
2, 112736, Note_on_c, 0, 61, 51
2, 112832, Note_on_c, 0, 69, 0
2, 112847, Note_on_c, 0, 65, 0
2, 112953, Note_on_c, 0, 74, 0
2, 113253, Control_c, 0, 64, 0
2, 113277, Note_on_c, 0, 74, 58
2, 113280, Note_on_c, 0, 68, 56
2, 113294, Note_on_c, 0, 65, 53
2, 113296, Note_on_c, 0, 61, 0
2, 113319, Note_on_c, 0, 60, 42
2, 113524, Control_c, 0, 64, 127
2, 113662, Note_on_c, 0, 74, 0
2, 114220, Note_on_c, 0, 68, 0
2, 114236, Note_on_c, 0, 65, 0
2, 114824, Control_c, 0, 64, 0
2, 114878, Note_on_c, 0, 76, 48
2, 114896, Note_on_c, 0, 65, 40
2, 114898, Note_on_c, 0, 68, 36
2, 114901, Note_on_c, 0, 71, 42
2, 114933, Note_on_c, 0, 59, 40
2, 114941, Note_on_c, 0, 60, 0
2, 115067, Control_c, 0, 64, 127
2, 115210, Note_on_c, 0, 59, 0
2, 116141, Note_on_c, 0, 31, 38
2, 116709, Note_on_c, 0, 31, 0
2, 116718, Note_on_c, 0, 65, 0
2, 116742, Note_on_c, 0, 71, 0
2, 116775, Note_on_c, 0, 68, 0
2, 116983, Note_on_c, 0, 76, 0
2, 118122, Note_on_c, 0, 72, 37
2, 118297, Note_on_c, 0, 72, 0
2, 118409, Note_on_c, 0, 74, 57
2, 119516, Note_on_c, 0, 74, 0
2, 119811, Note_on_c, 0, 76, 89
2, 119821, Control_c, 0, 64, 0
2, 119828, Note_on_c, 0, 62, 45
2, 119829, Note_on_c, 0, 67, 53
2, 119831, Note_on_c, 0, 56, 59
2, 120019, Control_c, 0, 64, 127
2, 120335, Note_on_c, 0, 62, 0
2, 120363, Note_on_c, 0, 56, 0
2, 120403, Note_on_c, 0, 67, 0
2, 120518, Note_on_c, 0, 67, 100
2, 120881, Note_on_c, 0, 76, 0
2, 121478, Note_on_c, 0, 67, 0
2, 121561, Control_c, 0, 64, 0
2, 121566, Note_on_c, 0, 70, 32
2, 121618, Note_on_c, 0, 70, 0
2, 121689, Control_c, 0, 64, 127
2, 121754, Note_on_c, 0, 71, 65
2, 121759, Note_on_c, 0, 79, 59
2, 121763, Note_on_c, 0, 76, 61
2, 121868, Note_on_c, 0, 71, 0
2, 121947, Note_on_c, 0, 76, 0
2, 121967, Note_on_c, 0, 79, 0
2, 122088, Note_on_c, 0, 82, 69
2, 122194, Note_on_c, 0, 82, 0
2, 122261, Control_c, 0, 64, 0
2, 122351, Note_on_c, 0, 91, 85
2, 122352, Note_on_c, 0, 83, 89
2, 122358, Note_on_c, 0, 88, 74
2, 122438, Note_on_c, 0, 91, 0
2, 122489, Control_c, 0, 64, 127
2, 122835, Note_on_c, 0, 88, 0
2, 122858, Note_on_c, 0, 83, 0
2, 123711, Note_on_c, 0, 46, 45
2, 123852, Note_on_c, 0, 46, 0
2, 124016, Control_c, 0, 64, 0
2, 124029, Note_on_c, 0, 61, 39
2, 124030, Note_on_c, 0, 70, 40
2, 124040, Note_on_c, 0, 55, 42
2, 124063, Note_on_c, 0, 66, 46
2, 124066, Note_on_c, 0, 45, 41
2, 124330, Control_c, 0, 64, 127
2, 124437, Note_on_c, 0, 70, 0
2, 124553, Note_on_c, 0, 66, 0
2, 124625, Note_on_c, 0, 61, 0
2, 124919, Note_on_c, 0, 55, 0
2, 124991, Note_on_c, 0, 69, 56
2, 124993, Note_on_c, 0, 58, 46
2, 124998, Note_on_c, 0, 52, 34
2, 125030, Control_c, 0, 64, 0
2, 125051, Note_on_c, 0, 65, 30
2, 125114, Control_c, 0, 64, 127
2, 125324, Note_on_c, 0, 52, 0
2, 125326, Note_on_c, 0, 65, 0
2, 125413, Note_on_c, 0, 69, 0
2, 125454, Note_on_c, 0, 58, 0
2, 125672, Control_c, 0, 64, 0
2, 125702, Note_on_c, 0, 67, 48
2, 125705, Note_on_c, 0, 52, 34
2, 125707, Note_on_c, 0, 58, 48
2, 125715, Note_on_c, 0, 64, 48
2, 125732, Note_on_c, 0, 61, 39
2, 125873, Control_c, 0, 64, 127
2, 125995, Note_on_c, 0, 45, 0
2, 126219, Note_on_c, 0, 67, 0
2, 126358, Note_on_c, 0, 58, 0
2, 126399, Note_on_c, 0, 64, 0
2, 126928, Note_on_c, 0, 52, 0
2, 127002, Note_on_c, 0, 61, 0
2, 127015, Note_on_c, 0, 65, 58
2, 128387, Note_on_c, 0, 65, 0
2, 128798, Control_c, 0, 64, 0
2, 128825, Note_on_c, 0, 60, 46
2, 128829, Note_on_c, 0, 62, 46
2, 128849, Note_on_c, 0, 32, 38
2, 128997, Control_c, 0, 64, 127
2, 129230, Note_on_c, 0, 60, 0
2, 129247, Note_on_c, 0, 62, 0
2, 129357, Note_on_c, 0, 44, 42
2, 129390, Note_on_c, 0, 32, 0
2, 129463, Note_on_c, 0, 44, 0
2, 129888, Note_on_c, 0, 72, 49
2, 129894, Note_on_c, 0, 74, 51
2, 129917, Note_on_c, 0, 60, 39
2, 130353, Note_on_c, 0, 74, 0
2, 130456, Note_on_c, 0, 66, 37
2, 130664, Note_on_c, 0, 60, 0
2, 130728, Note_on_c, 0, 72, 0
2, 130760, Note_on_c, 0, 66, 0
2, 131052, Control_c, 0, 64, 0
2, 131079, Note_on_c, 0, 65, 47
2, 131084, Note_on_c, 0, 67, 49
2, 131094, Note_on_c, 0, 62, 36
2, 131339, Control_c, 0, 64, 127
2, 131728, Note_on_c, 0, 55, 33
2, 131764, Note_on_c, 0, 62, 0
2, 131885, Note_on_c, 0, 55, 0
2, 132469, Note_on_c, 0, 43, 24
2, 133219, Note_on_c, 0, 31, 38
2, 133319, Note_on_c, 0, 43, 0
2, 133374, Note_on_c, 0, 31, 0
2, 133512, Note_on_c, 0, 67, 0
2, 133666, Note_on_c, 0, 65, 0
2, 134539, Note_on_c, 0, 64, 40
2, 134629, Note_on_c, 0, 62, 28
2, 134684, Note_on_c, 0, 59, 31
2, 134706, Note_on_c, 0, 43, 22
2, 134713, Note_on_c, 0, 36, 24
2, 134778, Control_c, 0, 64, 0
2, 134780, Note_on_c, 0, 52, 33
2, 134787, Note_on_c, 0, 57, 52
2, 135220, Control_c, 0, 64, 127
2, 135737, Note_on_c, 0, 57, 0
2, 135859, Note_on_c, 0, 59, 0
2, 135969, Note_on_c, 0, 64, 0
2, 136064, Note_on_c, 0, 62, 0
2, 136594, Note_on_c, 0, 36, 0
2, 136719, Note_on_c, 0, 67, 48
2, 136910, Note_on_c, 0, 43, 0
2, 137107, Note_on_c, 0, 67, 0
2, 137115, Note_on_c, 0, 52, 0
2, 137162, Note_on_c, 0, 69, 68
2, 137511, Note_on_c, 0, 69, 0
2, 137574, Note_on_c, 0, 71, 74
2, 137904, Note_on_c, 0, 71, 0
2, 138021, Note_on_c, 0, 68, 51
2, 138029, Note_on_c, 0, 72, 34
2, 138036, Note_on_c, 0, 64, 49
2, 138118, Control_c, 0, 64, 0
2, 138189, Control_c, 0, 64, 127
2, 138447, Control_c, 0, 64, 0
2, 138515, Note_on_c, 0, 61, 34
2, 138539, Note_on_c, 0, 74, 55
2, 138674, Control_c, 0, 64, 127
2, 138693, Note_on_c, 0, 72, 0
2, 138754, Note_on_c, 0, 74, 0
2, 138859, Note_on_c, 0, 68, 0
2, 138877, Note_on_c, 0, 64, 0
2, 139075, Control_c, 0, 64, 0
2, 139092, Note_on_c, 0, 76, 41
2, 139097, Note_on_c, 0, 61, 0
2, 139097, Note_on_c, 0, 64, 42
2, 139104, Note_on_c, 0, 68, 35
2, 139109, Note_on_c, 0, 72, 45
2, 139114, Note_on_c, 0, 60, 34
2, 139260, Control_c, 0, 64, 127
2, 139740, Note_on_c, 0, 58, 48
2, 139777, Note_on_c, 0, 60, 0
2, 139804, Note_on_c, 0, 76, 0
2, 139851, Note_on_c, 0, 72, 0
2, 139885, Note_on_c, 0, 64, 0
2, 140007, Note_on_c, 0, 58, 0
2, 140077, Note_on_c, 0, 68, 0
2, 140352, Note_on_c, 0, 69, 48
2, 140365, Note_on_c, 0, 65, 38
2, 140368, Note_on_c, 0, 62, 34
2, 140402, Control_c, 0, 64, 0
2, 140405, Note_on_c, 0, 53, 25
2, 140658, Control_c, 0, 64, 127
2, 140944, Note_on_c, 0, 74, 58
2, 140977, Note_on_c, 0, 62, 0
2, 141004, Note_on_c, 0, 60, 30
2, 141199, Note_on_c, 0, 53, 0
2, 141206, Note_on_c, 0, 65, 0
2, 141258, Note_on_c, 0, 72, 55
2, 141400, Note_on_c, 0, 69, 0
2, 141470, Note_on_c, 0, 74, 0
2, 141551, Note_on_c, 0, 72, 0
2, 141602, Control_c, 0, 64, 0
2, 141611, Note_on_c, 0, 63, 39
2, 141622, Note_on_c, 0, 54, 39
2, 141641, Note_on_c, 0, 69, 31
2, 141655, Note_on_c, 0, 72, 32
2, 141663, Note_on_c, 0, 71, 28
2, 141914, Control_c, 0, 64, 127
2, 142059, Note_on_c, 0, 69, 0
2, 142219, Note_on_c, 0, 72, 0
2, 142236, Note_on_c, 0, 71, 0
2, 142249, Note_on_c, 0, 69, 44
2, 142429, Note_on_c, 0, 60, 0
2, 142479, Note_on_c, 0, 63, 0
2, 142623, Note_on_c, 0, 69, 0
2, 142677, Note_on_c, 0, 54, 0
2, 143500, Control_c, 0, 64, 0
2, 143505, Note_on_c, 0, 79, 51
2, 143643, Note_on_c, 0, 79, 0
2, 143865, Note_on_c, 0, 67, 30
2, 144019, Note_on_c, 0, 67, 0
2, 144229, Note_on_c, 0, 52, 28
2, 144406, Note_on_c, 0, 52, 0
2, 144665, Note_on_c, 0, 58, 27
2, 144893, Note_on_c, 0, 58, 0
2, 145070, Note_on_c, 0, 82, 50
2, 145302, Note_on_c, 0, 82, 0
2, 145531, Note_on_c, 0, 81, 48
2, 145542, Note_on_c, 0, 66, 36
2, 145796, Note_on_c, 0, 81, 0
2, 145840, Note_on_c, 0, 66, 0
2, 146082, Note_on_c, 0, 78, 39
2, 146172, Note_on_c, 0, 60, 26
2, 146343, Note_on_c, 0, 60, 0
2, 146435, Note_on_c, 0, 78, 0
2, 146616, Note_on_c, 0, 75, 42
2, 146622, Note_on_c, 0, 54, 32
2, 146929, Note_on_c, 0, 75, 0
2, 147171, Note_on_c, 0, 54, 0
2, 147255, Note_on_c, 0, 60, 27
2, 147258, Note_on_c, 0, 72, 35
2, 147261, Note_on_c, 0, 69, 39
2, 147438, Control_c, 0, 64, 127
2, 147834, Note_on_c, 0, 72, 0
2, 148399, Note_on_c, 0, 79, 64
2, 148516, Note_on_c, 0, 60, 0
2, 148704, Note_on_c, 0, 79, 0
2, 148775, Note_on_c, 0, 69, 0
2, 148816, Note_on_c, 0, 78, 73
2, 149051, Note_on_c, 0, 78, 0
2, 149156, Note_on_c, 0, 77, 72
2, 149443, Note_on_c, 0, 77, 0
2, 149498, Note_on_c, 0, 55, 32
2, 149508, Control_c, 0, 64, 0
2, 149520, Note_on_c, 0, 76, 65
2, 149531, Note_on_c, 0, 65, 34
2, 149532, Note_on_c, 0, 57, 41
2, 149555, Note_on_c, 0, 60, 31
2, 149857, Note_on_c, 0, 73, 52
2, 149864, Note_on_c, 0, 76, 0
2, 150122, Note_on_c, 0, 73, 0
2, 150237, Note_on_c, 0, 69, 41
2, 150543, Note_on_c, 0, 69, 0
2, 150617, Note_on_c, 0, 74, 52
2, 151018, Note_on_c, 0, 74, 0
2, 151049, Control_c, 0, 64, 127
2, 151050, Note_on_c, 0, 72, 49
2, 151425, Note_on_c, 0, 72, 0
2, 151436, Note_on_c, 0, 65, 0
2, 151482, Note_on_c, 0, 69, 40
2, 151676, Note_on_c, 0, 69, 0
2, 151881, Note_on_c, 0, 60, 0
2, 151920, Note_on_c, 0, 65, 50
2, 152009, Note_on_c, 0, 57, 0
2, 152074, Note_on_c, 0, 55, 0
2, 152352, Note_on_c, 0, 65, 0
2, 152376, Note_on_c, 0, 62, 40
2, 152483, Note_on_c, 0, 62, 0
2, 152963, Control_c, 0, 64, 0
2, 152984, Note_on_c, 0, 60, 33
2, 152986, Note_on_c, 0, 57, 36
2, 152997, Note_on_c, 0, 43, 24
2, 153000, Note_on_c, 0, 53, 22
2, 153027, Note_on_c, 0, 50, 25
2, 153218, Control_c, 0, 64, 127
2, 153487, Note_on_c, 0, 57, 0
2, 153608, Note_on_c, 0, 53, 0
2, 153636, Note_on_c, 0, 60, 0
2, 153672, Note_on_c, 0, 57, 37
2, 154237, Note_on_c, 0, 60, 38
2, 154660, Note_on_c, 0, 57, 0
2, 154740, Note_on_c, 0, 43, 0
2, 154788, Note_on_c, 0, 62, 34
2, 154831, Note_on_c, 0, 60, 0
2, 154998, Note_on_c, 0, 50, 0
2, 155150, Note_on_c, 0, 62, 0
2, 155379, Note_on_c, 0, 43, 28
2, 155489, Note_on_c, 0, 56, 51
2, 155574, Control_c, 0, 64, 0
2, 155586, Note_on_c, 0, 53, 22
2, 155592, Note_on_c, 0, 59, 35
2, 155727, Note_on_c, 0, 64, 47
2, 155734, Note_on_c, 0, 56, 0
2, 155838, Note_on_c, 0, 59, 0
2, 155846, Control_c, 0, 64, 127
2, 155975, Note_on_c, 0, 64, 0
2, 156279, Note_on_c, 0, 76, 68
2, 156967, Note_on_c, 0, 76, 0
2, 157156, Note_on_c, 0, 76, 40
2, 158808, Note_on_c, 0, 76, 0
2, 159184, Note_on_c, 0, 76, 29
2, 160295, Note_on_c, 0, 76, 0
2, 160321, Note_on_c, 0, 53, 0
2, 160329, Note_on_c, 0, 43, 0
2, 161340, Control_c, 0, 64, 127
2, 161340, Control_c, 0, 64, 0
2, 161340, Control_c, 0, 64, 127
2, 161340, Control_c, 0, 64, 0
2, 161340, Note_on_c, 0, 43, 27
2, 161364, Note_on_c, 0, 52, 26
2, 161367, Note_on_c, 0, 36, 19
2, 161432, Control_c, 0, 64, 127
2, 161559, Note_on_c, 0, 36, 0
2, 161607, Note_on_c, 0, 52, 0
2, 162312, Note_on_c, 0, 52, 31
2, 162328, Note_on_c, 0, 43, 0
2, 162480, Note_on_c, 0, 52, 0
2, 162862, Note_on_c, 0, 55, 45
2, 163026, Note_on_c, 0, 55, 0
2, 163159, Control_c, 0, 64, 0
2, 163215, Note_on_c, 0, 57, 72
2, 163225, Note_on_c, 0, 52, 33
2, 163228, Note_on_c, 0, 55, 36
2, 163607, Note_on_c, 0, 55, 0
2, 163787, Note_on_c, 0, 57, 0
2, 163869, Note_on_c, 0, 57, 56
2, 163887, Note_on_c, 0, 55, 48
2, 163901, Note_on_c, 0, 60, 47
2, 163935, Note_on_c, 0, 55, 0
2, 164019, Note_on_c, 0, 57, 0
2, 164051, Note_on_c, 0, 52, 0
2, 164055, Note_on_c, 0, 60, 0
2, 164188, Control_c, 0, 64, 127
2, 164190, Note_on_c, 0, 50, 32
2, 164408, Note_on_c, 0, 50, 0
2, 164837, Note_on_c, 0, 76, 60
2, 164850, Note_on_c, 0, 68, 46
2, 164853, Note_on_c, 0, 72, 44
2, 164855, Note_on_c, 0, 64, 50
2, 164902, Control_c, 0, 64, 0
2, 164909, Note_on_c, 0, 64, 0
2, 164931, Note_on_c, 0, 68, 0
2, 164945, Note_on_c, 0, 72, 0
2, 164975, Note_on_c, 0, 76, 0
2, 165089, Note_on_c, 0, 58, 36
2, 165100, Note_on_c, 0, 48, 35
2, 165160, Control_c, 0, 64, 127
2, 165377, Note_on_c, 0, 48, 0
2, 165493, Note_on_c, 0, 58, 0
2, 166067, Note_on_c, 0, 64, 32
2, 166101, Note_on_c, 0, 58, 39
2, 166248, Note_on_c, 0, 64, 0
2, 166304, Note_on_c, 0, 58, 0
2, 166565, Control_c, 0, 64, 0
2, 166707, Note_on_c, 0, 79, 65
2, 166718, Note_on_c, 0, 67, 71
2, 166722, Note_on_c, 0, 73, 53
2, 166742, Note_on_c, 0, 76, 49
2, 166782, Note_on_c, 0, 67, 0
2, 166793, Note_on_c, 0, 76, 0
2, 166801, Control_c, 0, 64, 0
2, 166826, Note_on_c, 0, 73, 0
2, 166848, Note_on_c, 0, 79, 0
2, 166980, Note_on_c, 0, 58, 52
2, 167010, Note_on_c, 0, 48, 37
2, 167058, Control_c, 0, 64, 127
2, 167155, Note_on_c, 0, 58, 0
2, 167233, Note_on_c, 0, 48, 0
2, 167914, Control_c, 0, 64, 0
2, 167945, Note_on_c, 0, 61, 37
2, 167981, Note_on_c, 0, 56, 48
2, 168008, Note_on_c, 0, 58, 42
2, 168010, Note_on_c, 0, 42, 26
2, 168017, Note_on_c, 0, 52, 15
2, 168024, Note_on_c, 0, 49, 25
2, 168257, Control_c, 0, 64, 127
2, 168410, Note_on_c, 0, 52, 0
2, 168508, Note_on_c, 0, 42, 0
2, 168571, Note_on_c, 0, 49, 0
2, 168612, Note_on_c, 0, 56, 0
2, 168702, Note_on_c, 0, 58, 0
2, 168747, Note_on_c, 0, 61, 0
2, 168798, Control_c, 0, 64, 0
2, 168917, Note_on_c, 0, 60, 34
2, 168929, Note_on_c, 0, 57, 47
2, 168951, Note_on_c, 0, 41, 24
2, 168971, Control_c, 0, 64, 127
2, 168975, Note_on_c, 0, 50, 22
2, 168999, Note_on_c, 0, 48, 17
2, 169069, Note_on_c, 0, 57, 0
2, 169112, Note_on_c, 0, 60, 0
2, 169115, Note_on_c, 0, 48, 0
2, 169117, Note_on_c, 0, 41, 0
2, 169160, Note_on_c, 0, 50, 0
2, 169627, Note_on_c, 0, 74, 89
2, 169741, Control_c, 0, 64, 0
2, 169866, Note_on_c, 0, 60, 34
2, 169869, Note_on_c, 0, 62, 29
2, 169884, Note_on_c, 0, 53, 22
2, 169919, Note_on_c, 0, 62, 0
2, 169956, Control_c, 0, 64, 127
2, 169960, Note_on_c, 0, 60, 0
2, 170042, Note_on_c, 0, 53, 0
2, 170151, Note_on_c, 0, 74, 0
2, 170235, Note_on_c, 0, 72, 66
2, 170553, Note_on_c, 0, 72, 0
2, 170694, Note_on_c, 0, 71, 31
2, 170766, Note_on_c, 0, 71, 0
2, 170826, Control_c, 0, 64, 0
2, 170836, Note_on_c, 0, 71, 30
2, 170843, Note_on_c, 0, 39, 25
2, 170867, Note_on_c, 0, 66, 40
2, 170882, Note_on_c, 0, 54, 29
2, 171027, Control_c, 0, 64, 127
2, 171149, Note_on_c, 0, 39, 0
2, 171443, Note_on_c, 0, 54, 0
2, 171457, Note_on_c, 0, 66, 0
2, 171572, Note_on_c, 0, 71, 0
2, 171814, Note_on_c, 0, 66, 40
2, 171820, Note_on_c, 0, 62, 36
2, 171829, Note_on_c, 0, 54, 32
2, 171836, Note_on_c, 0, 69, 50
2, 171991, Note_on_c, 0, 54, 0
2, 172118, Note_on_c, 0, 69, 0
2, 172196, Note_on_c, 0, 62, 0
2, 172219, Note_on_c, 0, 66, 0
2, 172798, Note_on_c, 0, 67, 53
2, 172804, Note_on_c, 0, 64, 55
2, 172811, Control_c, 0, 64, 0
2, 172828, Note_on_c, 0, 56, 35
2, 172831, Note_on_c, 0, 46, 32
2, 172833, Note_on_c, 0, 60, 48
2, 172887, Note_on_c, 0, 53, 16
2, 173267, Note_on_c, 0, 60, 0
2, 173288, Note_on_c, 0, 46, 0
2, 173305, Note_on_c, 0, 53, 0
2, 173310, Note_on_c, 0, 56, 0
2, 173320, Note_on_c, 0, 64, 0
2, 173347, Note_on_c, 0, 67, 0
2, 173767, Control_c, 0, 64, 127
2, 173777, Note_on_c, 0, 64, 42
2, 173784, Note_on_c, 0, 60, 34
2, 173788, Note_on_c, 0, 67, 27
2, 173790, Note_on_c, 0, 56, 40
2, 173801, Note_on_c, 0, 46, 37
2, 174258, Note_on_c, 0, 67, 0
2, 174268, Note_on_c, 0, 64, 0
2, 174279, Note_on_c, 0, 56, 0
2, 174324, Note_on_c, 0, 60, 0
2, 174386, Note_on_c, 0, 46, 0
2, 174720, Note_on_c, 0, 45, 40
2, 174720, Control_c, 0, 64, 0
2, 174720, Note_on_c, 0, 61, 25
2, 174720, Note_on_c, 0, 55, 49
2, 174720, Note_on_c, 0, 57, 30
2, 174720, Note_on_c, 0, 66, 46
2, 175037, Note_on_c, 0, 66, 0
2, 175079, Note_on_c, 0, 55, 0
2, 175094, Control_c, 0, 64, 127
2, 175155, Note_on_c, 0, 61, 0
2, 175320, Note_on_c, 0, 57, 0
2, 175424, Note_on_c, 0, 54, 62
2, 175434, Note_on_c, 0, 63, 71
2, 175440, Note_on_c, 0, 45, 0
2, 175440, Note_on_c, 0, 69, 66
2, 175440, Note_on_c, 0, 60, 65
2, 175443, Note_on_c, 0, 66, 62
2, 175464, Control_c, 0, 64, 0
2, 175718, Note_on_c, 0, 54, 0
2, 175720, Note_on_c, 0, 60, 0
2, 175728, Note_on_c, 0, 66, 0
2, 175729, Note_on_c, 0, 69, 0
2, 175760, Note_on_c, 0, 63, 0
2, 175844, Note_on_c, 0, 50, 58
2, 176049, Control_c, 0, 64, 127
2, 176179, Control_c, 0, 64, 0
2, 176358, Note_on_c, 0, 50, 0
2, 176374, Note_on_c, 0, 65, 57
2, 176384, Note_on_c, 0, 57, 55
2, 176388, Note_on_c, 0, 60, 49
2, 176404, Note_on_c, 0, 53, 43
2, 176608, Control_c, 0, 64, 127
2, 176733, Note_on_c, 0, 57, 0
2, 176804, Note_on_c, 0, 53, 0
2, 176830, Note_on_c, 0, 60, 0
2, 176857, Note_on_c, 0, 65, 0
2, 177399, Note_on_c, 0, 65, 58
2, 177412, Note_on_c, 0, 76, 50
2, 177415, Note_on_c, 0, 69, 57
2, 177416, Note_on_c, 0, 64, 66
2, 177428, Note_on_c, 0, 72, 50
2, 177663, Control_c, 0, 64, 0
2, 177714, Note_on_c, 0, 65, 0
2, 177771, Note_on_c, 0, 69, 0
2, 177797, Note_on_c, 0, 72, 0
2, 177800, Note_on_c, 0, 62, 43
2, 177809, Note_on_c, 0, 64, 0
2, 177832, Note_on_c, 0, 76, 0
2, 177891, Control_c, 0, 64, 127
2, 178151, Note_on_c, 0, 62, 0
2, 178331, Note_on_c, 0, 75, 46
2, 178335, Control_c, 0, 64, 0
2, 178342, Note_on_c, 0, 71, 43
2, 178343, Note_on_c, 0, 79, 47
2, 178346, Note_on_c, 0, 67, 44
2, 178369, Note_on_c, 0, 64, 52
2, 178371, Note_on_c, 0, 59, 42
2, 178379, Note_on_c, 0, 53, 36
2, 178634, Control_c, 0, 64, 127
2, 179182, Note_on_c, 0, 67, 0
2, 179248, Note_on_c, 0, 71, 0
2, 179416, Note_on_c, 0, 75, 0
2, 179436, Note_on_c, 0, 79, 0
2, 179866, Note_on_c, 0, 64, 0
2, 179879, Note_on_c, 0, 59, 0
2, 179945, Note_on_c, 0, 86, 71
2, 179968, Note_on_c, 0, 53, 0
2, 180153, Note_on_c, 0, 86, 0
2, 180229, Note_on_c, 0, 83, 54
2, 180423, Note_on_c, 0, 83, 0
2, 180447, Control_c, 0, 64, 0
2, 180509, Note_on_c, 0, 84, 60
2, 180536, Note_on_c, 0, 57, 28
2, 180552, Note_on_c, 0, 52, 31
2, 180561, Note_on_c, 0, 58, 32
2, 180572, Note_on_c, 0, 62, 18
2, 180730, Note_on_c, 0, 84, 0
2, 180824, Note_on_c, 0, 57, 0
2, 180827, Note_on_c, 0, 82, 42
2, 180841, Note_on_c, 0, 52, 0
2, 180882, Note_on_c, 0, 58, 0
2, 180947, Control_c, 0, 64, 127
2, 180951, Note_on_c, 0, 62, 0
2, 180999, Note_on_c, 0, 82, 0
2, 181125, Note_on_c, 0, 79, 47
2, 181283, Note_on_c, 0, 79, 0
2, 181374, Note_on_c, 0, 76, 35
2, 181388, Control_c, 0, 64, 0
2, 181479, Note_on_c, 0, 56, 30
2, 181486, Note_on_c, 0, 62, 26
2, 181556, Note_on_c, 0, 76, 0
2, 181679, Note_on_c, 0, 74, 51
2, 181831, Control_c, 0, 64, 127
2, 181859, Note_on_c, 0, 74, 0
2, 182032, Note_on_c, 0, 62, 0
2, 182224, Note_on_c, 0, 56, 0
2, 182272, Control_c, 0, 64, 0
2, 182342, Note_on_c, 0, 65, 37
2, 182353, Note_on_c, 0, 73, 29
2, 182366, Note_on_c, 0, 61, 31
2, 182369, Note_on_c, 0, 55, 24
2, 182382, Note_on_c, 0, 75, 38
2, 182473, Control_c, 0, 64, 127
2, 182560, Note_on_c, 0, 65, 0
2, 182618, Note_on_c, 0, 61, 0
2, 182638, Note_on_c, 0, 55, 0
2, 182999, Note_on_c, 0, 69, 47
2, 183040, Note_on_c, 0, 73, 0
2, 183229, Control_c, 0, 64, 0
2, 183298, Note_on_c, 0, 45, 46
2, 183306, Note_on_c, 0, 55, 30
2, 183444, Control_c, 0, 64, 127
2, 183470, Note_on_c, 0, 45, 0
2, 183473, Note_on_c, 0, 75, 0
2, 183561, Note_on_c, 0, 69, 0
2, 183572, Note_on_c, 0, 55, 0
2, 183947, Note_on_c, 0, 50, 51
2, 184022, Note_on_c, 0, 50, 0
2, 184272, Control_c, 0, 64, 0
2, 184284, Note_on_c, 0, 64, 65
2, 184299, Note_on_c, 0, 76, 77
2, 184303, Note_on_c, 0, 69, 75
2, 184304, Note_on_c, 0, 65, 82
2, 184317, Note_on_c, 0, 72, 52
2, 184487, Control_c, 0, 64, 127
2, 184665, Note_on_c, 0, 64, 0
2, 184692, Note_on_c, 0, 76, 0
2, 184697, Note_on_c, 0, 72, 0
2, 184733, Note_on_c, 0, 69, 0
2, 184784, Note_on_c, 0, 65, 0
2, 185267, Note_on_c, 0, 62, 38
2, 185278, Note_on_c, 0, 72, 46
2, 185285, Control_c, 0, 64, 0
2, 185295, Note_on_c, 0, 69, 44
2, 185298, Note_on_c, 0, 65, 53
2, 185327, Control_c, 0, 64, 127
2, 185666, Note_on_c, 0, 69, 0
2, 185673, Note_on_c, 0, 72, 0
2, 185741, Note_on_c, 0, 62, 0
2, 185745, Note_on_c, 0, 65, 0
2, 186228, Control_c, 0, 64, 0
2, 186241, Note_on_c, 0, 63, 46
2, 186242, Note_on_c, 0, 68, 46
2, 186255, Note_on_c, 0, 43, 27
2, 186281, Note_on_c, 0, 59, 26
2, 186294, Note_on_c, 0, 53, 19
2, 186413, Control_c, 0, 64, 127
2, 186519, Note_on_c, 0, 43, 0
2, 186550, Note_on_c, 0, 53, 0
2, 186744, Note_on_c, 0, 59, 0
2, 186873, Note_on_c, 0, 63, 0
2, 186919, Note_on_c, 0, 68, 0
2, 187154, Control_c, 0, 64, 0
2, 187167, Note_on_c, 0, 41, 40
2, 187184, Note_on_c, 0, 63, 50
2, 187191, Note_on_c, 0, 57, 32
2, 187204, Note_on_c, 0, 67, 45
2, 187340, Control_c, 0, 64, 127
2, 187441, Note_on_c, 0, 57, 0
2, 187486, Note_on_c, 0, 41, 0
2, 187739, Note_on_c, 0, 63, 0
2, 187830, Note_on_c, 0, 67, 0
2, 188126, Control_c, 0, 64, 0
2, 188153, Note_on_c, 0, 47, 34
2, 188155, Note_on_c, 0, 64, 48
2, 188162, Note_on_c, 0, 40, 42
2, 188163, Note_on_c, 0, 62, 40
2, 188192, Note_on_c, 0, 55, 20
2, 188311, Control_c, 0, 64, 127
2, 188528, Note_on_c, 0, 40, 0
2, 188539, Note_on_c, 0, 55, 0
2, 188653, Note_on_c, 0, 47, 0
2, 188709, Note_on_c, 0, 64, 0
2, 188714, Note_on_c, 0, 62, 0
2, 189110, Control_c, 0, 64, 0
2, 189136, Note_on_c, 0, 54, 37
2, 189147, Note_on_c, 0, 61, 50
2, 189150, Note_on_c, 0, 63, 48
2, 189295, Control_c, 0, 64, 127
2, 189342, Note_on_c, 0, 54, 0
2, 189942, Note_on_c, 0, 61, 0
2, 190037, Control_c, 0, 64, 0
2, 190094, Note_on_c, 0, 38, 30
2, 190099, Note_on_c, 0, 45, 32
2, 190143, Note_on_c, 0, 60, 29
2, 190144, Note_on_c, 0, 62, 32
2, 190147, Note_on_c, 0, 57, 33
2, 190184, Note_on_c, 0, 63, 0
2, 190223, Control_c, 0, 64, 127
2, 190346, Note_on_c, 0, 38, 0
2, 190423, Note_on_c, 0, 45, 0
2, 190517, Note_on_c, 0, 57, 0
2, 190563, Note_on_c, 0, 62, 0
2, 190573, Note_on_c, 0, 60, 0
2, 191051, Control_c, 0, 64, 0
2, 191081, Note_on_c, 0, 70, 42
2, 191083, Note_on_c, 0, 63, 37
2, 191083, Note_on_c, 0, 53, 26
2, 191085, Note_on_c, 0, 59, 34
2, 191088, Note_on_c, 0, 43, 26
2, 191241, Control_c, 0, 64, 127
2, 191242, Note_on_c, 0, 43, 0
2, 191423, Note_on_c, 0, 53, 0
2, 191467, Note_on_c, 0, 70, 0
2, 191508, Note_on_c, 0, 59, 0
2, 191524, Note_on_c, 0, 63, 0
2, 191775, Note_on_c, 0, 67, 55
2, 191790, Note_on_c, 0, 57, 40
2, 191792, Note_on_c, 0, 62, 37
2, 191842, Note_on_c, 0, 62, 0
2, 191854, Note_on_c, 0, 57, 0
2, 191869, Control_c, 0, 64, 0
2, 191933, Note_on_c, 0, 67, 0
2, 192007, Note_on_c, 0, 36, 24
2, 192020, Note_on_c, 0, 43, 19
2, 192065, Note_on_c, 0, 52, 24
2, 192112, Control_c, 0, 64, 127
2, 192143, Note_on_c, 0, 36, 0
2, 192193, Note_on_c, 0, 43, 0
2, 192286, Note_on_c, 0, 52, 0
2, 192297, Note_on_c, 0, 67, 64
2, 192915, Note_on_c, 0, 64, 58
2, 192938, Note_on_c, 0, 60, 39
2, 192952, Control_c, 0, 64, 0
2, 192959, Note_on_c, 0, 59, 30
2, 193123, Control_c, 0, 64, 127
2, 193915, Note_on_c, 0, 59, 0
2, 193945, Note_on_c, 0, 57, 73
2, 193966, Control_c, 0, 64, 0
2, 194181, Control_c, 0, 64, 127
2, 194823, Control_c, 0, 64, 0
2, 194832, Note_on_c, 0, 57, 0
2, 194927, Note_on_c, 0, 56, 37
2, 194994, Control_c, 0, 64, 127
2, 195192, Note_on_c, 0, 56, 0
2, 195255, Note_on_c, 0, 69, 55
2, 195305, Note_on_c, 0, 60, 0
2, 195349, Note_on_c, 0, 64, 0
2, 195390, Note_on_c, 0, 67, 0
2, 195548, Note_on_c, 0, 71, 60
2, 195612, Note_on_c, 0, 69, 0
2, 195776, Note_on_c, 0, 71, 0
2, 195852, Control_c, 0, 64, 0
2, 195876, Note_on_c, 0, 72, 38
2, 195884, Note_on_c, 0, 68, 44
2, 195903, Note_on_c, 0, 64, 43
2, 195926, Note_on_c, 0, 52, 28
2, 195931, Note_on_c, 0, 58, 33
2, 196065, Control_c, 0, 64, 127
2, 196176, Note_on_c, 0, 58, 0
2, 196181, Note_on_c, 0, 52, 0
2, 196431, Note_on_c, 0, 64, 0
2, 196515, Note_on_c, 0, 48, 57
2, 196535, Note_on_c, 0, 68, 0
2, 196599, Note_on_c, 0, 72, 0
2, 196659, Note_on_c, 0, 48, 0
2, 196864, Control_c, 0, 64, 0
2, 196867, Note_on_c, 0, 58, 46
2, 196868, Note_on_c, 0, 65, 55
2, 196870, Note_on_c, 0, 70, 60
2, 196873, Note_on_c, 0, 74, 58
2, 197049, Control_c, 0, 64, 127
2, 197291, Note_on_c, 0, 74, 0
2, 197341, Note_on_c, 0, 65, 0
2, 197428, Note_on_c, 0, 70, 0
2, 197693, Note_on_c, 0, 58, 0
2, 197777, Control_c, 0, 64, 0
2, 197780, Note_on_c, 0, 76, 57
2, 197790, Note_on_c, 0, 68, 42
2, 197797, Note_on_c, 0, 72, 46
2, 197815, Note_on_c, 0, 60, 36
2, 197963, Control_c, 0, 64, 127
2, 198102, Note_on_c, 0, 72, 0
2, 198129, Note_on_c, 0, 76, 0
2, 198147, Note_on_c, 0, 68, 0
2, 198272, Note_on_c, 0, 60, 0
2, 198332, Note_on_c, 0, 62, 36
2, 198685, Note_on_c, 0, 62, 0
2, 198747, Note_on_c, 0, 72, 49
2, 198755, Note_on_c, 0, 64, 45
2, 199095, Note_on_c, 0, 72, 0
2, 199188, Note_on_c, 0, 64, 0
2, 199629, Note_on_c, 0, 69, 46
2, 199648, Control_c, 0, 64, 0
2, 199649, Note_on_c, 0, 74, 48
2, 199780, Note_on_c, 0, 62, 11
2, 199961, Control_c, 0, 64, 127
2, 200038, Note_on_c, 0, 62, 0
2, 200058, Note_on_c, 0, 74, 0
2, 200101, Note_on_c, 0, 69, 0
2, 200159, Note_on_c, 0, 58, 57
2, 200556, Note_on_c, 0, 58, 0
2, 200575, Control_c, 0, 64, 0
2, 200618, Note_on_c, 0, 57, 49
2, 200632, Note_on_c, 0, 64, 44
2, 200635, Note_on_c, 0, 74, 50
2, 200645, Note_on_c, 0, 69, 55
2, 200789, Control_c, 0, 64, 127
2, 200827, Note_on_c, 0, 69, 0
2, 200846, Note_on_c, 0, 74, 0
2, 200978, Note_on_c, 0, 64, 0
2, 201125, Note_on_c, 0, 57, 0
2, 201147, Note_on_c, 0, 67, 58
2, 201153, Note_on_c, 0, 53, 38
2, 201165, Note_on_c, 0, 62, 42
2, 201167, Note_on_c, 0, 72, 31
2, 201221, Note_on_c, 0, 53, 0
2, 201237, Note_on_c, 0, 72, 0
2, 201261, Note_on_c, 0, 67, 0
2, 201280, Note_on_c, 0, 62, 0
2, 201640, Note_on_c, 0, 39, 31
2, 201644, Control_c, 0, 64, 0
2, 201654, Note_on_c, 0, 60, 46
2, 201657, Note_on_c, 0, 63, 49
2, 201660, Note_on_c, 0, 71, 39
2, 201673, Note_on_c, 0, 66, 53
2, 201697, Note_on_c, 0, 54, 29
2, 201916, Control_c, 0, 64, 127
2, 202345, Note_on_c, 0, 54, 0
2, 202405, Note_on_c, 0, 39, 0
2, 202592, Note_on_c, 0, 69, 41
2, 202593, Note_on_c, 0, 39, 36
2, 202722, Note_on_c, 0, 39, 0
2, 203026, Note_on_c, 0, 60, 0
2, 203161, Note_on_c, 0, 66, 0
2, 203198, Note_on_c, 0, 63, 0
2, 203268, Note_on_c, 0, 71, 0
2, 203516, Control_c, 0, 64, 0
2, 203552, Note_on_c, 0, 69, 0
2, 203573, Note_on_c, 0, 67, 41
2, 203588, Note_on_c, 0, 47, 24
2, 203594, Note_on_c, 0, 40, 36
2, 203600, Note_on_c, 0, 62, 39
2, 203602, Note_on_c, 0, 59, 27
2, 203716, Control_c, 0, 64, 127
2, 203759, Note_on_c, 0, 40, 0
2, 203817, Note_on_c, 0, 47, 0
2, 203916, Note_on_c, 0, 59, 0
2, 204081, Note_on_c, 0, 62, 0
2, 204235, Note_on_c, 0, 67, 0
2, 204551, Note_on_c, 0, 62, 45
2, 204574, Note_on_c, 0, 59, 26
2, 204579, Note_on_c, 0, 55, 29
2, 204586, Control_c, 0, 64, 0
2, 204658, Control_c, 0, 64, 127
2, 204733, Note_on_c, 0, 52, 1
2, 204984, Note_on_c, 0, 59, 0
2, 205005, Note_on_c, 0, 55, 0
2, 205039, Note_on_c, 0, 62, 0
2, 205055, Note_on_c, 0, 52, 0
2, 205474, Note_on_c, 0, 74, 66
2, 205485, Control_c, 0, 64, 0
2, 205486, Note_on_c, 0, 66, 54
2, 205489, Note_on_c, 0, 63, 53
2, 205499, Note_on_c, 0, 62, 56
2, 205583, Note_on_c, 0, 63, 0
2, 205615, Note_on_c, 0, 66, 0
2, 205616, Note_on_c, 0, 74, 0
2, 205768, Note_on_c, 0, 62, 0
2, 205783, Note_on_c, 0, 61, 39
2, 206030, Note_on_c, 0, 61, 0
2, 206100, Note_on_c, 0, 66, 51
2, 206102, Note_on_c, 0, 63, 51
2, 206103, Note_on_c, 0, 72, 39
2, 206119, Note_on_c, 0, 69, 43
2, 206120, Note_on_c, 0, 60, 39
2, 206428, Control_c, 0, 64, 127
2, 206432, Note_on_c, 0, 60, 0
2, 206470, Note_on_c, 0, 57, 49
2, 206815, Note_on_c, 0, 69, 0
2, 206843, Note_on_c, 0, 63, 0
2, 206858, Note_on_c, 0, 57, 0
2, 206984, Note_on_c, 0, 66, 0
2, 207115, Note_on_c, 0, 54, 40
2, 207177, Note_on_c, 0, 72, 0
2, 207326, Control_c, 0, 64, 0
2, 207416, Note_on_c, 0, 54, 0
2, 207417, Note_on_c, 0, 69, 50
2, 207422, Note_on_c, 0, 65, 46
2, 207423, Note_on_c, 0, 60, 42
2, 207457, Note_on_c, 0, 50, 25
2, 207506, Note_on_c, 0, 53, 28
2, 207527, Control_c, 0, 64, 127
2, 207600, Note_on_c, 0, 50, 0
2, 207652, Note_on_c, 0, 53, 0
2, 207716, Note_on_c, 0, 60, 0
2, 207943, Note_on_c, 0, 65, 0
2, 208014, Note_on_c, 0, 69, 0
2, 208267, Control_c, 0, 64, 0
2, 208334, Note_on_c, 0, 65, 40
2, 208343, Note_on_c, 0, 60, 35
2, 208346, Note_on_c, 0, 54, 34
2, 208467, Control_c, 0, 64, 127
2, 208750, Note_on_c, 0, 60, 0
2, 208763, Note_on_c, 0, 65, 0
2, 208794, Note_on_c, 0, 94, 48
2, 208871, Note_on_c, 0, 94, 0
2, 208977, Note_on_c, 0, 95, 66
2, 208994, Note_on_c, 0, 54, 0
2, 209093, Note_on_c, 0, 94, 51
2, 209140, Control_c, 0, 64, 0
2, 209150, Note_on_c, 0, 95, 0
2, 209227, Note_on_c, 0, 92, 50
2, 209229, Note_on_c, 0, 64, 24
2, 209253, Note_on_c, 0, 59, 27
2, 209293, Note_on_c, 0, 64, 0
2, 209307, Note_on_c, 0, 94, 0
2, 209345, Note_on_c, 0, 53, 17
2, 209347, Note_on_c, 0, 59, 0
2, 209374, Note_on_c, 0, 92, 0
2, 209401, Note_on_c, 0, 91, 50
2, 209422, Note_on_c, 0, 53, 0
2, 209471, Note_on_c, 0, 91, 0
2, 209603, Note_on_c, 0, 89, 49
2, 209736, Note_on_c, 0, 89, 0
2, 209966, Note_on_c, 0, 86, 58
2, 210147, Note_on_c, 0, 86, 0
2, 210159, Note_on_c, 0, 85, 67
2, 210208, Note_on_c, 0, 43, 30
2, 210250, Note_on_c, 0, 53, 15
2, 210388, Note_on_c, 0, 83, 60
2, 210401, Note_on_c, 0, 85, 0
2, 210485, Note_on_c, 0, 43, 0
2, 210568, Note_on_c, 0, 83, 0
2, 210601, Note_on_c, 0, 53, 0
2, 210603, Note_on_c, 0, 82, 48
2, 210743, Note_on_c, 0, 82, 0
2, 210752, Control_c, 0, 64, 127
2, 210829, Note_on_c, 0, 81, 47
2, 210979, Note_on_c, 0, 81, 0
2, 210993, Note_on_c, 0, 80, 45
2, 211051, Control_c, 0, 64, 0
2, 211130, Note_on_c, 0, 80, 0
2, 211162, Note_on_c, 0, 60, 36
2, 211174, Note_on_c, 0, 56, 38
2, 211207, Note_on_c, 0, 50, 24
2, 211215, Note_on_c, 0, 79, 28
2, 211309, Control_c, 0, 64, 127
2, 211500, Note_on_c, 0, 50, 0
2, 211506, Note_on_c, 0, 56, 0
2, 211510, Note_on_c, 0, 74, 54
2, 211536, Note_on_c, 0, 79, 0
2, 211585, Note_on_c, 0, 60, 0
2, 211600, Note_on_c, 0, 74, 0
2, 212085, Note_on_c, 0, 74, 66
2, 212108, Control_c, 0, 64, 0
2, 212759, Note_on_c, 0, 62, 66
2, 212769, Note_on_c, 0, 67, 72
2, 212784, Note_on_c, 0, 56, 71
2, 212893, Control_c, 0, 64, 127
2, 213009, Note_on_c, 0, 67, 0
2, 213048, Note_on_c, 0, 62, 0
2, 213079, Control_c, 0, 64, 0
2, 213139, Note_on_c, 0, 56, 0
2, 213163, Note_on_c, 0, 61, 53
2, 213172, Note_on_c, 0, 66, 69
2, 213176, Note_on_c, 0, 55, 53
2, 213278, Control_c, 0, 64, 127
2, 213485, Note_on_c, 0, 66, 0
2, 213509, Note_on_c, 0, 74, 0
2, 213511, Note_on_c, 0, 55, 0
2, 213549, Note_on_c, 0, 61, 0
2, 214150, Control_c, 0, 64, 0
2, 214183, Note_on_c, 0, 70, 49
2, 214186, Note_on_c, 0, 61, 37
2, 214194, Note_on_c, 0, 55, 42
2, 214196, Note_on_c, 0, 45, 44
2, 214208, Note_on_c, 0, 66, 51
2, 214364, Control_c, 0, 64, 127
2, 214945, Note_on_c, 0, 66, 0
2, 214946, Note_on_c, 0, 61, 0
2, 215006, Note_on_c, 0, 70, 0
2, 215021, Note_on_c, 0, 45, 0
2, 215039, Note_on_c, 0, 55, 0
2, 215064, Control_c, 0, 64, 0
2, 215140, Note_on_c, 0, 60, 34
2, 215141, Note_on_c, 0, 69, 43
2, 215157, Note_on_c, 0, 50, 29
2, 215164, Note_on_c, 0, 65, 44
2, 215276, Control_c, 0, 64, 127
2, 215447, Note_on_c, 0, 69, 0
2, 215459, Note_on_c, 0, 65, 0
2, 215581, Note_on_c, 0, 60, 0
2, 216005, Control_c, 0, 64, 0
2, 216017, Note_on_c, 0, 50, 0
2, 216057, Note_on_c, 0, 57, 43
2, 216058, Note_on_c, 0, 60, 33
2, 216084, Note_on_c, 0, 53, 24
2, 216095, Note_on_c, 0, 43, 24
2, 216248, Control_c, 0, 64, 127
2, 216491, Note_on_c, 0, 53, 0
2, 216602, Note_on_c, 0, 57, 0
2, 216618, Note_on_c, 0, 60, 0
2, 216975, Control_c, 0, 64, 0
2, 217004, Note_on_c, 0, 64, 48
2, 217007, Note_on_c, 0, 56, 47
2, 217011, Note_on_c, 0, 53, 29
2, 217019, Note_on_c, 0, 59, 36
2, 217175, Control_c, 0, 64, 127
2, 217400, Note_on_c, 0, 43, 0
2, 217942, Note_on_c, 0, 43, 35
2, 218005, Note_on_c, 0, 53, 0
2, 218097, Note_on_c, 0, 56, 0
2, 218134, Note_on_c, 0, 59, 0
2, 218271, Note_on_c, 0, 64, 0
2, 218596, Note_on_c, 0, 67, 55
2, 218604, Note_on_c, 0, 62, 52
2, 218607, Note_on_c, 0, 57, 56
2, 218613, Note_on_c, 0, 59, 47
2, 218620, Note_on_c, 0, 52, 51
2, 218660, Control_c, 0, 64, 0
2, 219016, Control_c, 0, 64, 127
2, 219138, Note_on_c, 0, 43, 0
2, 219527, Note_on_c, 0, 52, 0
2, 219565, Note_on_c, 0, 43, 59
2, 219890, Note_on_c, 0, 43, 0
2, 219978, Note_on_c, 0, 43, 57
2, 220352, Note_on_c, 0, 57, 0
2, 220408, Note_on_c, 0, 59, 0
2, 220552, Note_on_c, 0, 62, 0
2, 220585, Note_on_c, 0, 55, 79
2, 220675, Note_on_c, 0, 67, 0
2, 220867, Note_on_c, 0, 43, 0
2, 221002, Note_on_c, 0, 55, 0
2, 221136, Note_on_c, 0, 79, 62
2, 221189, Note_on_c, 0, 55, 26
2, 221326, Note_on_c, 0, 79, 0
2, 221494, Note_on_c, 0, 55, 0
2, 221766, Note_on_c, 0, 55, 48
2, 221780, Note_on_c, 0, 91, 66
2, 221815, Note_on_c, 0, 79, 32
2, 221855, Note_on_c, 0, 55, 0
2, 222169, Note_on_c, 0, 91, 0
2, 222173, Note_on_c, 0, 79, 0
2, 222421, Note_on_c, 0, 91, 64
2, 222428, Control_c, 0, 64, 0
2, 222432, Note_on_c, 0, 55, 34
2, 222435, Note_on_c, 0, 65, 49
2, 222439, Note_on_c, 0, 57, 51
2, 222469, Note_on_c, 0, 60, 38
2, 222470, Note_on_c, 0, 79, 36
2, 222480, Note_on_c, 0, 84, 28
2, 222745, Control_c, 0, 64, 127
2, 223157, Note_on_c, 0, 60, 0
2, 223161, Note_on_c, 0, 55, 0
2, 223175, Note_on_c, 0, 65, 0
2, 223180, Note_on_c, 0, 79, 0
2, 223205, Note_on_c, 0, 91, 0
2, 223208, Note_on_c, 0, 57, 0
2, 223222, Note_on_c, 0, 84, 0
2, 223402, Note_on_c, 0, 91, 63
2, 223405, Note_on_c, 0, 65, 65
2, 223419, Note_on_c, 0, 57, 53
2, 223440, Note_on_c, 0, 79, 31
2, 223442, Note_on_c, 0, 60, 37
2, 223444, Note_on_c, 0, 84, 37
2, 223446, Note_on_c, 0, 55, 31
2, 223614, Note_on_c, 0, 91, 0
2, 223631, Note_on_c, 0, 65, 0
2, 223665, Note_on_c, 0, 60, 0
2, 223677, Note_on_c, 0, 84, 0
2, 223702, Note_on_c, 0, 79, 0
2, 223726, Note_on_c, 0, 55, 0
2, 223746, Note_on_c, 0, 57, 0
2, 224390, Note_on_c, 0, 62, 56
2, 224397, Note_on_c, 0, 43, 53
2, 224407, Note_on_c, 0, 31, 58
2, 224421, Note_on_c, 0, 57, 68
2, 224426, Note_on_c, 0, 60, 53
2, 224427, Note_on_c, 0, 53, 53
2, 224706, Note_on_c, 0, 53, 0
2, 224720, Note_on_c, 0, 62, 0
2, 224735, Note_on_c, 0, 43, 0
2, 224736, Note_on_c, 0, 57, 0
2, 224749, Note_on_c, 0, 60, 0
2, 224757, Control_c, 0, 64, 0
2, 224846, Note_on_c, 0, 53, 39
2, 224849, Note_on_c, 0, 43, 35
2, 224856, Note_on_c, 0, 62, 43
2, 224863, Note_on_c, 0, 57, 57
2, 224870, Note_on_c, 0, 60, 49
2, 225095, Note_on_c, 0, 53, 0
2, 225139, Note_on_c, 0, 57, 0
2, 225140, Note_on_c, 0, 62, 0
2, 225140, Note_on_c, 0, 60, 0
2, 225177, Note_on_c, 0, 43, 0
2, 225189, Note_on_c, 0, 31, 0
2, 225733, Note_on_c, 0, 56, 54
2, 225748, Note_on_c, 0, 31, 39
2, 225754, Note_on_c, 0, 43, 31
2, 225758, Note_on_c, 0, 60, 38
2, 225763, Note_on_c, 0, 53, 32
2, 225764, Note_on_c, 0, 62, 36
2, 226180, Note_on_c, 0, 31, 0
2, 226187, Note_on_c, 0, 53, 0
2, 226194, Note_on_c, 0, 43, 0
2, 226200, Control_c, 0, 64, 127
2, 226218, Note_on_c, 0, 56, 0
2, 226220, Note_on_c, 0, 62, 0
2, 226227, Note_on_c, 0, 60, 0
2, 226351, Note_on_c, 0, 62, 47
2, 226352, Note_on_c, 0, 43, 30
2, 226365, Note_on_c, 0, 31, 33
2, 226366, Note_on_c, 0, 60, 39
2, 226368, Note_on_c, 0, 56, 43
2, 226378, Note_on_c, 0, 53, 34
2, 226714, Note_on_c, 0, 53, 0
2, 226730, Note_on_c, 0, 56, 0
2, 226751, Note_on_c, 0, 60, 0
2, 226765, Note_on_c, 0, 31, 0
2, 226791, Note_on_c, 0, 43, 0
2, 226844, Note_on_c, 0, 62, 0
2, 227155, Control_c, 0, 64, 0
2, 227238, Note_on_c, 0, 64, 60
2, 227251, Note_on_c, 0, 60, 44
2, 227254, Note_on_c, 0, 43, 41
2, 227255, Note_on_c, 0, 31, 47
2, 227256, Note_on_c, 0, 56, 62
2, 227271, Note_on_c, 0, 53, 47
2, 227470, Control_c, 0, 64, 127
2, 227819, Note_on_c, 0, 31, 0
2, 227937, Note_on_c, 0, 60, 0
2, 227946, Note_on_c, 0, 64, 0
2, 227993, Note_on_c, 0, 53, 0
2, 228119, Note_on_c, 0, 56, 0
2, 228215, Note_on_c, 0, 31, 44
2, 228275, Note_on_c, 0, 43, 0
2, 228354, Control_c, 0, 64, 0
2, 228451, Note_on_c, 0, 60, 42
2, 228477, Note_on_c, 0, 56, 46
2, 228481, Note_on_c, 0, 53, 31
2, 228514, Note_on_c, 0, 43, 31
2, 228782, Control_c, 0, 64, 127
2, 228810, Note_on_c, 0, 60, 0
2, 228831, Note_on_c, 0, 31, 0
2, 228868, Note_on_c, 0, 56, 0
2, 228941, Note_on_c, 0, 53, 0
2, 229056, Note_on_c, 0, 43, 0
2, 229113, Note_on_c, 0, 31, 33
2, 229240, Control_c, 0, 64, 0
2, 229402, Note_on_c, 0, 31, 0
2, 229405, Note_on_c, 0, 43, 29
2, 229408, Note_on_c, 0, 62, 45
2, 229421, Note_on_c, 0, 56, 51
2, 229430, Note_on_c, 0, 53, 31
2, 229468, Control_c, 0, 64, 127
2, 229501, Note_on_c, 0, 43, 0
2, 229811, Note_on_c, 0, 53, 0
2, 229848, Note_on_c, 0, 62, 0
2, 229868, Note_on_c, 0, 56, 0
2, 230076, Note_on_c, 0, 43, 34
2, 230311, Control_c, 0, 64, 0
2, 230382, Note_on_c, 0, 64, 49
2, 230391, Note_on_c, 0, 52, 38
2, 230395, Note_on_c, 0, 55, 35
2, 230413, Note_on_c, 0, 59, 39
2, 230415, Note_on_c, 0, 62, 38
2, 230624, Control_c, 0, 64, 127
2, 230668, Note_on_c, 0, 43, 0
2, 230858, Note_on_c, 0, 55, 0
2, 230980, Note_on_c, 0, 64, 0
2, 230982, Note_on_c, 0, 59, 0
2, 230986, Note_on_c, 0, 62, 0
2, 231067, Note_on_c, 0, 43, 34
2, 231154, Note_on_c, 0, 52, 0
2, 231338, Control_c, 0, 64, 0
2, 231368, Note_on_c, 0, 67, 45
2, 231375, Note_on_c, 0, 52, 52
2, 231376, Note_on_c, 0, 57, 53
2, 231380, Note_on_c, 0, 62, 43
2, 231457, Note_on_c, 0, 57, 0
2, 231504, Note_on_c, 0, 67, 0
2, 231506, Note_on_c, 0, 62, 0
2, 231611, Note_on_c, 0, 52, 0
2, 231641, Note_on_c, 0, 51, 31
2, 231974, Note_on_c, 0, 67, 58
2, 231984, Note_on_c, 0, 62, 55
2, 231986, Note_on_c, 0, 51, 0
2, 231987, Note_on_c, 0, 57, 61
2, 232007, Note_on_c, 0, 52, 60
2, 232266, Control_c, 0, 64, 127
2, 232414, Note_on_c, 0, 43, 0
2, 232890, Note_on_c, 0, 52, 0
2, 232934, Note_on_c, 0, 43, 59
2, 233062, Note_on_c, 0, 57, 0
2, 233160, Note_on_c, 0, 43, 0
2, 233455, Note_on_c, 0, 62, 0
2, 234020, Note_on_c, 0, 67, 0
2, 234318, Note_on_c, 0, 62, 34
2, 234321, Note_on_c, 0, 58, 38
2, 234337, Note_on_c, 0, 52, 31
2, 234378, Control_c, 0, 64, 0
2, 234415, Note_on_c, 0, 67, 36
2, 234563, Note_on_c, 0, 67, 0
2, 234684, Note_on_c, 0, 70, 69
2, 234779, Note_on_c, 0, 70, 0
2, 234851, Note_on_c, 0, 72, 44
2, 234912, Note_on_c, 0, 72, 0
2, 234949, Note_on_c, 0, 73, 30
2, 235023, Note_on_c, 0, 75, 56
2, 235034, Note_on_c, 0, 73, 0
2, 235137, Note_on_c, 0, 75, 0
2, 235185, Note_on_c, 0, 76, 55
2, 235308, Note_on_c, 0, 76, 0
2, 235336, Note_on_c, 0, 78, 36
2, 235385, Note_on_c, 0, 78, 0
2, 235409, Note_on_c, 0, 52, 0
2, 235459, Note_on_c, 0, 58, 0
2, 235501, Note_on_c, 0, 79, 26
2, 235595, Note_on_c, 0, 79, 0
2, 235600, Note_on_c, 0, 62, 0
2, 235618, Note_on_c, 0, 81, 40
2, 235729, Note_on_c, 0, 82, 35
2, 235761, Note_on_c, 0, 81, 0
2, 235879, Note_on_c, 0, 82, 0
2, 235886, Note_on_c, 0, 83, 33
2, 235944, Note_on_c, 0, 83, 0
2, 236006, Note_on_c, 0, 84, 62
2, 236171, Note_on_c, 0, 84, 0
2, 236221, Note_on_c, 0, 82, 60
2, 236222, Note_on_c, 0, 61, 32
2, 236225, Note_on_c, 0, 65, 32
2, 236273, Note_on_c, 0, 55, 18
2, 236333, Note_on_c, 0, 82, 0
2, 236487, Note_on_c, 0, 81, 61
2, 236577, Note_on_c, 0, 81, 0
2, 236730, Note_on_c, 0, 79, 54
2, 236813, Note_on_c, 0, 79, 0
2, 236962, Note_on_c, 0, 78, 61
2, 237111, Note_on_c, 0, 78, 0
2, 237190, Note_on_c, 0, 65, 0
2, 237216, Note_on_c, 0, 76, 47
2, 237363, Note_on_c, 0, 76, 0
2, 237435, Note_on_c, 0, 75, 57
2, 237548, Control_c, 0, 64, 127
2, 237578, Note_on_c, 0, 75, 0
2, 237619, Note_on_c, 0, 61, 0
2, 237622, Note_on_c, 0, 55, 0
2, 237682, Note_on_c, 0, 74, 51
2, 237831, Note_on_c, 0, 74, 0
2, 237918, Note_on_c, 0, 73, 44
2, 237989, Control_c, 0, 64, 0
2, 238060, Note_on_c, 0, 73, 0
2, 238123, Note_on_c, 0, 60, 28
2, 238139, Note_on_c, 0, 57, 31
2, 238152, Note_on_c, 0, 53, 19
2, 238156, Note_on_c, 0, 74, 53
2, 238298, Note_on_c, 0, 74, 0
2, 238361, Control_c, 0, 64, 127
2, 238374, Note_on_c, 0, 57, 0
2, 238382, Note_on_c, 0, 60, 0
2, 238443, Note_on_c, 0, 53, 0
2, 238476, Note_on_c, 0, 65, 58
2, 238634, Note_on_c, 0, 65, 0
2, 238804, Note_on_c, 0, 55, 53
2, 239069, Note_on_c, 0, 55, 0
2, 239153, Note_on_c, 0, 43, 55
2, 239627, Note_on_c, 0, 43, 0
2, 239746, Note_on_c, 0, 62, 60
2, 239756, Note_on_c, 0, 60, 59
2, 239758, Note_on_c, 0, 57, 73
2, 239763, Note_on_c, 0, 53, 65
2, 239773, Control_c, 0, 64, 0
2, 239778, Note_on_c, 0, 43, 34
2, 240000, Note_on_c, 0, 53, 0
2, 240037, Note_on_c, 0, 43, 0
2, 240051, Note_on_c, 0, 62, 0
2, 240058, Note_on_c, 0, 57, 0
2, 240115, Note_on_c, 0, 43, 57
2, 240125, Note_on_c, 0, 53, 44
2, 240129, Control_c, 0, 64, 127
2, 240132, Note_on_c, 0, 62, 34
2, 240138, Note_on_c, 0, 57, 34
2, 240722, Note_on_c, 0, 43, 0
2, 240730, Note_on_c, 0, 53, 0
2, 240755, Note_on_c, 0, 60, 0
2, 240756, Note_on_c, 0, 57, 0
2, 240775, Note_on_c, 0, 62, 0
2, 240987, Control_c, 0, 64, 0
2, 241065, Note_on_c, 0, 43, 46
2, 241072, Note_on_c, 0, 57, 64
2, 241076, Note_on_c, 0, 62, 48
2, 241084, Note_on_c, 0, 60, 49
2, 241089, Note_on_c, 0, 53, 40
2, 241415, Control_c, 0, 64, 127
2, 241647, Note_on_c, 0, 53, 0
2, 241703, Note_on_c, 0, 57, 0
2, 241707, Note_on_c, 0, 60, 0
2, 241743, Note_on_c, 0, 43, 0
2, 241794, Note_on_c, 0, 62, 0
2, 242600, Control_c, 0, 64, 0
2, 242624, Note_on_c, 0, 62, 60
2, 242627, Note_on_c, 0, 43, 58
2, 242640, Note_on_c, 0, 31, 65
2, 242641, Note_on_c, 0, 59, 66
2, 242653, Note_on_c, 0, 56, 71
2, 242658, Note_on_c, 0, 53, 62
2, 242885, Control_c, 0, 64, 127
2, 243154, Note_on_c, 0, 31, 0
2, 243343, Note_on_c, 0, 53, 0
2, 243393, Note_on_c, 0, 56, 0
2, 243396, Note_on_c, 0, 43, 0
2, 243419, Note_on_c, 0, 59, 0
2, 243464, Note_on_c, 0, 62, 0
2, 243529, Control_c, 0, 64, 0
2, 243604, Note_on_c, 0, 64, 66
2, 243605, Note_on_c, 0, 56, 78
2, 243614, Note_on_c, 0, 43, 58
2, 243620, Note_on_c, 0, 59, 66
2, 243621, Note_on_c, 0, 62, 40
2, 243627, Note_on_c, 0, 53, 61
2, 243885, Control_c, 0, 64, 127
2, 243966, Note_on_c, 0, 59, 0
2, 243981, Note_on_c, 0, 53, 0
2, 244051, Note_on_c, 0, 56, 0
2, 244058, Note_on_c, 0, 43, 0
2, 244090, Note_on_c, 0, 64, 0
2, 244107, Note_on_c, 0, 62, 0
2, 244169, Control_c, 0, 64, 0
2, 244206, Note_on_c, 0, 56, 62
2, 244208, Note_on_c, 0, 43, 34
2, 244215, Note_on_c, 0, 60, 60
2, 244231, Note_on_c, 0, 53, 50
2, 244236, Note_on_c, 0, 31, 41
2, 244298, Control_c, 0, 64, 127
2, 244554, Note_on_c, 0, 53, 0
2, 244585, Note_on_c, 0, 43, 0
2, 244589, Note_on_c, 0, 31, 0
2, 244607, Note_on_c, 0, 56, 0
2, 244668, Note_on_c, 0, 60, 0
2, 244683, Control_c, 0, 64, 0
2, 244824, Note_on_c, 0, 62, 53
2, 244832, Note_on_c, 0, 56, 59
2, 244839, Note_on_c, 0, 41, 53
2, 244850, Note_on_c, 0, 29, 38
2, 244863, Note_on_c, 0, 53, 37
2, 244898, Control_c, 0, 64, 127
2, 245061, Note_on_c, 0, 56, 0
2, 245084, Note_on_c, 0, 53, 0
2, 245254, Note_on_c, 0, 41, 0
2, 245276, Note_on_c, 0, 29, 0
2, 245313, Note_on_c, 0, 62, 0
2, 245468, Control_c, 0, 64, 0
2, 245508, Note_on_c, 0, 64, 62
2, 245516, Note_on_c, 0, 40, 54
2, 245521, Note_on_c, 0, 28, 48
2, 245522, Note_on_c, 0, 58, 69
2, 245524, Note_on_c, 0, 62, 55
2, 245531, Note_on_c, 0, 55, 53
2, 245683, Control_c, 0, 64, 127
2, 245740, Note_on_c, 0, 28, 0
2, 245776, Note_on_c, 0, 55, 0
2, 245833, Note_on_c, 0, 58, 0
2, 245860, Note_on_c, 0, 40, 0
2, 246076, Note_on_c, 0, 62, 0
2, 246127, Note_on_c, 0, 64, 0
2, 246754, Control_c, 0, 64, 0
2, 246795, Note_on_c, 0, 76, 64
2, 246799, Note_on_c, 0, 72, 56
2, 246801, Note_on_c, 0, 67, 63
2, 246818, Note_on_c, 0, 62, 48
2, 246824, Note_on_c, 0, 56, 61
2, 246938, Control_c, 0, 64, 127
2, 247161, Note_on_c, 0, 67, 0
2, 247205, Note_on_c, 0, 72, 0
2, 247215, Note_on_c, 0, 62, 0
2, 247238, Note_on_c, 0, 76, 0
2, 247345, Note_on_c, 0, 56, 0
2, 247709, Control_c, 0, 64, 0
2, 247764, Note_on_c, 0, 81, 52
2, 247772, Note_on_c, 0, 61, 32
2, 247781, Note_on_c, 0, 73, 35
2, 247785, Note_on_c, 0, 69, 47
2, 247789, Note_on_c, 0, 65, 44
2, 247798, Note_on_c, 0, 55, 33
2, 247799, Note_on_c, 0, 76, 44
2, 247909, Control_c, 0, 64, 127
2, 248054, Note_on_c, 0, 81, 0
2, 248060, Note_on_c, 0, 65, 0
2, 248073, Note_on_c, 0, 76, 0
2, 248121, Note_on_c, 0, 61, 0
2, 248138, Note_on_c, 0, 73, 0
2, 248142, Note_on_c, 0, 55, 0
2, 248154, Note_on_c, 0, 69, 0
2, 248636, Control_c, 0, 64, 0
2, 248698, Note_on_c, 0, 64, 49
2, 248712, Note_on_c, 0, 45, 35
2, 248718, Note_on_c, 0, 55, 35
2, 248720, Note_on_c, 0, 67, 38
2, 248738, Note_on_c, 0, 52, 28
2, 248823, Control_c, 0, 64, 127
2, 249035, Note_on_c, 0, 67, 0
2, 249072, Note_on_c, 0, 64, 0
2, 249108, Note_on_c, 0, 45, 0
2, 249135, Note_on_c, 0, 55, 0
2, 249233, Note_on_c, 0, 52, 0
2, 249579, Control_c, 0, 64, 0
2, 249662, Note_on_c, 0, 65, 45
2, 249666, Note_on_c, 0, 60, 40
2, 249669, Note_on_c, 0, 44, 42
2, 249673, Note_on_c, 0, 70, 29
2, 249675, Note_on_c, 0, 54, 37
2, 249793, Control_c, 0, 64, 127
2, 250070, Note_on_c, 0, 65, 0
2, 250076, Note_on_c, 0, 70, 0
2, 250149, Note_on_c, 0, 44, 0
2, 250162, Note_on_c, 0, 60, 0
2, 250220, Note_on_c, 0, 54, 0
2, 250550, Control_c, 0, 64, 0
2, 250593, Note_on_c, 0, 54, 34
2, 250604, Note_on_c, 0, 44, 32
2, 250606, Note_on_c, 0, 68, 35
2, 250629, Note_on_c, 0, 59, 32
2, 250750, Control_c, 0, 64, 127
2, 250935, Note_on_c, 0, 54, 0
2, 250972, Note_on_c, 0, 44, 0
2, 250999, Note_on_c, 0, 59, 0
2, 251116, Note_on_c, 0, 68, 0
2, 251254, Note_on_c, 0, 59, 43
2, 251265, Note_on_c, 0, 62, 36
2, 251274, Note_on_c, 0, 67, 35
2, 251333, Control_c, 0, 64, 0
2, 251345, Note_on_c, 0, 59, 0
2, 251392, Note_on_c, 0, 62, 0
2, 251437, Note_on_c, 0, 67, 0
2, 251536, Note_on_c, 0, 43, 24
2, 251558, Note_on_c, 0, 53, 19
2, 251577, Control_c, 0, 64, 127
2, 252008, Note_on_c, 0, 67, 49
2, 252044, Note_on_c, 0, 53, 0
2, 252161, Note_on_c, 0, 67, 0
2, 252174, Note_on_c, 0, 69, 51
2, 252300, Note_on_c, 0, 67, 36
2, 252336, Note_on_c, 0, 69, 0
2, 252420, Note_on_c, 0, 66, 49
2, 252453, Note_on_c, 0, 67, 0
2, 252491, Control_c, 0, 64, 0
2, 252535, Note_on_c, 0, 66, 0
2, 252538, Note_on_c, 0, 53, 22
2, 252599, Note_on_c, 0, 67, 37
2, 252619, Note_on_c, 0, 43, 0
2, 252705, Control_c, 0, 64, 127
2, 252777, Note_on_c, 0, 69, 40
2, 252779, Note_on_c, 0, 67, 0
2, 252799, Note_on_c, 0, 53, 0
2, 252916, Note_on_c, 0, 67, 33
2, 252928, Note_on_c, 0, 69, 0
2, 253084, Note_on_c, 0, 66, 48
2, 253101, Note_on_c, 0, 67, 0
2, 253200, Note_on_c, 0, 66, 0
2, 253267, Note_on_c, 0, 67, 37
2, 253302, Note_on_c, 0, 43, 27
2, 253440, Note_on_c, 0, 36, 38
2, 253448, Control_c, 0, 64, 0
2, 253501, Note_on_c, 0, 67, 0
2, 253628, Note_on_c, 0, 43, 0
2, 253631, Note_on_c, 0, 36, 0
2, 253662, Control_c, 0, 64, 127
2, 254414, Note_on_c, 0, 64, 39
2, 254471, Note_on_c, 0, 60, 30
2, 254479, Note_on_c, 0, 59, 24
2, 255060, Note_on_c, 0, 64, 0
2, 255064, Note_on_c, 0, 67, 90
2, 255255, Note_on_c, 0, 59, 0
2, 255264, Note_on_c, 0, 60, 0
2, 255346, Control_c, 0, 64, 0
2, 255349, Note_on_c, 0, 64, 44
2, 255399, Note_on_c, 0, 57, 43
2, 255418, Note_on_c, 0, 60, 17
2, 255544, Control_c, 0, 64, 127
2, 255674, Note_on_c, 0, 69, 64
2, 255853, Note_on_c, 0, 64, 0
2, 255960, Note_on_c, 0, 57, 0
2, 256041, Note_on_c, 0, 60, 0
2, 256078, Note_on_c, 0, 67, 0
2, 256239, Note_on_c, 0, 69, 0
2, 256288, Control_c, 0, 64, 0
2, 256312, Note_on_c, 0, 67, 57
2, 256316, Note_on_c, 0, 71, 54
2, 256317, Note_on_c, 0, 64, 43
2, 256345, Note_on_c, 0, 56, 35
2, 256373, Note_on_c, 0, 60, 20
2, 256444, Control_c, 0, 64, 127
2, 256483, Note_on_c, 0, 60, 0
2, 256544, Note_on_c, 0, 64, 0
2, 256582, Note_on_c, 0, 56, 0
2, 256901, Note_on_c, 0, 71, 0
2, 256914, Note_on_c, 0, 67, 0
2, 257245, Control_c, 0, 64, 0
2, 257256, Note_on_c, 0, 64, 54
2, 257267, Note_on_c, 0, 72, 42
2, 257269, Note_on_c, 0, 68, 46
2, 257289, Note_on_c, 0, 58, 46
2, 257442, Control_c, 0, 64, 127
2, 257689, Note_on_c, 0, 64, 0
2, 257723, Note_on_c, 0, 68, 0
2, 257771, Note_on_c, 0, 72, 0
2, 258144, Control_c, 0, 64, 0
2, 258217, Note_on_c, 0, 58, 0
2, 258237, Note_on_c, 0, 74, 54
2, 258260, Note_on_c, 0, 60, 36
2, 258266, Note_on_c, 0, 70, 51
2, 258268, Note_on_c, 0, 65, 41
2, 258315, Control_c, 0, 64, 127
2, 258614, Note_on_c, 0, 74, 0
2, 258669, Note_on_c, 0, 65, 0
2, 258757, Note_on_c, 0, 70, 0
2, 259185, Control_c, 0, 64, 0
2, 259225, Note_on_c, 0, 68, 47
2, 259234, Note_on_c, 0, 76, 51
2, 259241, Note_on_c, 0, 72, 46
2, 259245, Note_on_c, 0, 62, 34
2, 259268, Note_on_c, 0, 60, 0
2, 259299, Control_c, 0, 64, 127
2, 259574, Note_on_c, 0, 68, 0
2, 259578, Note_on_c, 0, 76, 0
2, 259615, Note_on_c, 0, 62, 0
2, 259637, Note_on_c, 0, 72, 0
2, 260157, Control_c, 0, 64, 0
2, 260179, Note_on_c, 0, 64, 56
2, 260184, Note_on_c, 0, 68, 48
2, 260201, Note_on_c, 0, 70, 39
2, 260228, Note_on_c, 0, 58, 28
2, 260355, Control_c, 0, 64, 127
2, 260406, Note_on_c, 0, 73, 1
2, 260588, Note_on_c, 0, 73, 0
2, 260638, Note_on_c, 0, 64, 0
2, 260760, Note_on_c, 0, 70, 0
2, 260830, Note_on_c, 0, 68, 0
2, 261084, Control_c, 0, 64, 0
2, 261085, Note_on_c, 0, 58, 0
2, 261138, Note_on_c, 0, 74, 58
2, 261153, Note_on_c, 0, 67, 45
2, 261161, Note_on_c, 0, 62, 39
2, 261168, Note_on_c, 0, 57, 47
2, 261175, Note_on_c, 0, 64, 44
2, 261269, Control_c, 0, 64, 127
2, 261387, Note_on_c, 0, 57, 0
2, 261462, Note_on_c, 0, 74, 0
2, 261633, Note_on_c, 0, 64, 0
2, 261666, Note_on_c, 0, 62, 0
2, 261672, Note_on_c, 0, 67, 0
2, 261821, Note_on_c, 0, 67, 51
2, 261831, Note_on_c, 0, 72, 48
2, 261954, Note_on_c, 0, 67, 0
2, 261957, Note_on_c, 0, 72, 0
2, 261998, Control_c, 0, 64, 0
2, 262058, Note_on_c, 0, 41, 32
2, 262111, Control_c, 0, 64, 127
2, 262196, Control_c, 0, 64, 127
2, 262360, Note_on_c, 0, 41, 0
2, 262412, Control_c, 0, 64, 0
2, 262755, Note_on_c, 0, 71, 49
2, 262767, Note_on_c, 0, 60, 45
2, 262771, Note_on_c, 0, 66, 42
2, 262777, Note_on_c, 0, 63, 33
2, 262819, Note_on_c, 0, 60, 0
2, 262824, Note_on_c, 0, 66, 0
2, 262825, Note_on_c, 0, 63, 0
2, 262859, Note_on_c, 0, 71, 0
2, 262968, Control_c, 0, 64, 0
2, 263037, Note_on_c, 0, 54, 37
2, 263067, Note_on_c, 0, 39, 33
2, 263267, Control_c, 0, 64, 127
2, 263597, Note_on_c, 0, 39, 0
2, 263912, Note_on_c, 0, 54, 0
2, 264013, Note_on_c, 0, 54, 29
2, 264043, Note_on_c, 0, 69, 46
2, 264051, Note_on_c, 0, 60, 38
2, 264057, Note_on_c, 0, 63, 36
2, 264115, Note_on_c, 0, 54, 0
2, 264179, Note_on_c, 0, 60, 0
2, 264238, Note_on_c, 0, 63, 0
2, 264299, Note_on_c, 0, 69, 0
2, 264880, Control_c, 0, 64, 0
2, 264947, Note_on_c, 0, 47, 33
2, 265188, Note_on_c, 0, 47, 0
2, 265265, Control_c, 0, 64, 127
2, 265336, Control_c, 0, 64, 0
2, 265552, Control_c, 0, 64, 127
2, 265893, Control_c, 0, 64, 0
2, 265953, Note_on_c, 0, 74, 60
2, 265957, Note_on_c, 0, 67, 66
2, 265964, Note_on_c, 0, 79, 57
2, 266031, Note_on_c, 0, 62, 49
2, 266194, Control_c, 0, 64, 127
2, 266553, Note_on_c, 0, 74, 0
2, 266561, Note_on_c, 0, 62, 0
2, 266627, Note_on_c, 0, 79, 0
2, 266689, Note_on_c, 0, 67, 0
2, 266879, Control_c, 0, 64, 0
2, 266900, Note_on_c, 0, 63, 55
2, 266919, Note_on_c, 0, 78, 56
2, 266923, Note_on_c, 0, 69, 36
2, 266974, Note_on_c, 0, 72, 37
2, 267108, Control_c, 0, 64, 127
2, 267192, Note_on_c, 0, 63, 0
2, 267302, Note_on_c, 0, 72, 0
2, 267319, Note_on_c, 0, 78, 0
2, 267411, Note_on_c, 0, 69, 0
2, 267836, Control_c, 0, 64, 0
2, 267847, Note_on_c, 0, 60, 26
2, 267850, Note_on_c, 0, 75, 42
2, 267875, Note_on_c, 0, 66, 29
2, 267884, Note_on_c, 0, 54, 33
2, 267897, Note_on_c, 0, 69, 36
2, 267994, Control_c, 0, 64, 127
2, 268076, Note_on_c, 0, 60, 0
2, 268126, Note_on_c, 0, 69, 0
2, 268133, Note_on_c, 0, 54, 0
2, 268147, Note_on_c, 0, 75, 0
2, 268184, Note_on_c, 0, 66, 0
2, 268765, Control_c, 0, 64, 0
2, 268834, Note_on_c, 0, 60, 36
2, 268841, Note_on_c, 0, 65, 34
2, 268844, Note_on_c, 0, 57, 40
2, 268871, Note_on_c, 0, 55, 32
2, 269267, Note_on_c, 0, 55, 0
2, 269486, Note_on_c, 0, 50, 49
2, 269648, Note_on_c, 0, 50, 0
2, 269784, Note_on_c, 0, 57, 0
2, 269851, Note_on_c, 0, 43, 31
2, 269852, Note_on_c, 0, 60, 0
2, 269893, Control_c, 0, 64, 127
2, 269927, Note_on_c, 0, 65, 0
2, 270533, Note_on_c, 0, 65, 60
2, 270536, Note_on_c, 0, 69, 56
2, 270543, Note_on_c, 0, 60, 51
2, 270550, Control_c, 0, 64, 0
2, 270551, Note_on_c, 0, 55, 40
2, 270792, Control_c, 0, 64, 127
2, 271359, Note_on_c, 0, 43, 0
2, 271905, Note_on_c, 0, 43, 37
2, 272277, Note_on_c, 0, 43, 0
2, 272513, Note_on_c, 0, 55, 0
2, 272569, Note_on_c, 0, 43, 52
2, 272835, Note_on_c, 0, 43, 0
2, 272941, Note_on_c, 0, 60, 0
2, 273220, Note_on_c, 0, 69, 0
2, 273368, Note_on_c, 0, 65, 0
2, 273465, Note_on_c, 0, 31, 66
2, 273546, Control_c, 0, 64, 0
2, 273589, Control_c, 0, 64, 127
2, 273631, Note_on_c, 0, 31, 0
2, 274405, Control_c, 0, 64, 0
2, 274414, Note_on_c, 0, 63, 81
2, 274417, Note_on_c, 0, 43, 50
2, 274424, Note_on_c, 0, 69, 74
2, 274432, Note_on_c, 0, 59, 77
2, 274437, Note_on_c, 0, 53, 60
2, 274538, Note_on_c, 0, 64, 63
2, 274553, Note_on_c, 0, 63, 0
2, 274602, Control_c, 0, 64, 127
2, 274630, Note_on_c, 0, 59, 0
2, 274648, Note_on_c, 0, 43, 0
2, 274664, Note_on_c, 0, 53, 0
2, 274702, Note_on_c, 0, 64, 0
2, 274722, Note_on_c, 0, 69, 0
2, 275292, Note_on_c, 0, 41, 31
2, 275302, Control_c, 0, 64, 0
2, 275313, Note_on_c, 0, 74, 84
2, 275324, Note_on_c, 0, 67, 76
2, 275326, Note_on_c, 0, 63, 86
2, 275342, Note_on_c, 0, 71, 54
2, 275344, Note_on_c, 0, 57, 51
2, 275347, Note_on_c, 0, 48, 40
2, 275598, Note_on_c, 0, 48, 0
2, 275645, Control_c, 0, 64, 127
2, 275720, Note_on_c, 0, 74, 0
2, 275730, Note_on_c, 0, 71, 0
2, 275864, Note_on_c, 0, 72, 68
2, 275937, Note_on_c, 0, 57, 0
2, 276012, Note_on_c, 0, 41, 0
2, 276054, Note_on_c, 0, 67, 0
2, 276092, Note_on_c, 0, 63, 0
2, 276286, Note_on_c, 0, 72, 0
2, 276458, Note_on_c, 0, 67, 46
2, 276471, Note_on_c, 0, 62, 39
2, 276481, Note_on_c, 0, 47, 37
2, 276488, Note_on_c, 0, 55, 36
2, 276489, Note_on_c, 0, 40, 42
2, 276501, Control_c, 0, 64, 0
2, 276773, Control_c, 0, 64, 127
2, 276778, Note_on_c, 0, 40, 0
2, 276832, Note_on_c, 0, 47, 0
2, 276946, Note_on_c, 0, 55, 0
2, 277381, Note_on_c, 0, 57, 46
2, 277411, Note_on_c, 0, 58, 48
2, 277413, Note_on_c, 0, 52, 29
2, 277429, Control_c, 0, 64, 0
2, 277685, Control_c, 0, 64, 127
2, 277687, Note_on_c, 0, 58, 0
2, 277693, Note_on_c, 0, 62, 0
2, 277700, Note_on_c, 0, 52, 0
2, 277710, Note_on_c, 0, 57, 0
2, 277824, Note_on_c, 0, 62, 38
2, 277825, Note_on_c, 0, 57, 34
2, 277845, Note_on_c, 0, 52, 26
2, 277849, Note_on_c, 0, 58, 39
2, 277876, Note_on_c, 0, 67, 0
2, 278429, Note_on_c, 0, 67, 52
2, 278528, Control_c, 0, 64, 0
2, 278612, Note_on_c, 0, 67, 0
2, 278726, Note_on_c, 0, 69, 38
2, 278879, Note_on_c, 0, 69, 0
2, 278994, Note_on_c, 0, 70, 42
2, 279027, Control_c, 0, 64, 127
2, 279127, Note_on_c, 0, 70, 0
2, 279246, Note_on_c, 0, 74, 71
2, 279381, Note_on_c, 0, 62, 0
2, 279400, Note_on_c, 0, 74, 0
2, 279410, Note_on_c, 0, 58, 0
2, 279428, Note_on_c, 0, 57, 0
2, 279465, Note_on_c, 0, 52, 0
2, 279545, Note_on_c, 0, 77, 60
2, 279557, Control_c, 0, 64, 0
2, 279689, Note_on_c, 0, 77, 0
2, 279713, Control_c, 0, 64, 127
2, 279800, Note_on_c, 0, 81, 81
2, 279967, Note_on_c, 0, 81, 0
2, 280068, Note_on_c, 0, 82, 83
2, 280226, Control_c, 0, 64, 0
2, 280279, Note_on_c, 0, 82, 0
2, 280350, Note_on_c, 0, 45, 57
2, 280387, Note_on_c, 0, 84, 74
2, 280411, Note_on_c, 0, 72, 53
2, 280499, Note_on_c, 0, 45, 0
2, 280512, Control_c, 0, 64, 127
2, 280595, Note_on_c, 0, 84, 0
2, 280636, Note_on_c, 0, 72, 0
2, 280726, Note_on_c, 0, 84, 60
2, 280738, Note_on_c, 0, 72, 35
2, 280864, Note_on_c, 0, 72, 0
2, 280881, Note_on_c, 0, 84, 0
2, 280969, Control_c, 0, 64, 0
2, 281005, Note_on_c, 0, 82, 64
2, 281013, Note_on_c, 0, 61, 32
2, 281015, Note_on_c, 0, 65, 39
2, 281022, Note_on_c, 0, 55, 24
2, 281023, Note_on_c, 0, 58, 36
2, 281191, Note_on_c, 0, 82, 0
2, 281295, Note_on_c, 0, 82, 59
2, 281412, Control_c, 0, 64, 127
2, 281473, Note_on_c, 0, 82, 0
2, 281594, Note_on_c, 0, 81, 68
2, 281678, Note_on_c, 0, 65, 0
2, 281727, Note_on_c, 0, 61, 0
2, 281754, Note_on_c, 0, 81, 0
2, 281757, Note_on_c, 0, 58, 0
2, 281879, Note_on_c, 0, 81, 61
2, 282064, Note_on_c, 0, 81, 0
2, 282154, Note_on_c, 0, 61, 39
2, 282175, Note_on_c, 0, 65, 28
2, 282195, Note_on_c, 0, 79, 57
2, 282214, Note_on_c, 0, 58, 25
2, 282319, Note_on_c, 0, 79, 0
2, 282474, Note_on_c, 0, 79, 51
2, 282511, Note_on_c, 0, 65, 0
2, 282546, Note_on_c, 0, 61, 0
2, 282591, Note_on_c, 0, 58, 0
2, 282625, Note_on_c, 0, 79, 0
2, 282708, Note_on_c, 0, 55, 0
2, 282743, Note_on_c, 0, 77, 60
2, 282904, Note_on_c, 0, 77, 0
2, 283050, Note_on_c, 0, 77, 51
2, 283246, Note_on_c, 0, 77, 0
2, 283334, Note_on_c, 0, 76, 49
2, 283467, Note_on_c, 0, 76, 0
2, 283628, Note_on_c, 0, 75, 59
2, 283830, Note_on_c, 0, 75, 0
2, 283950, Note_on_c, 0, 50, 47
2, 283954, Control_c, 0, 64, 0
2, 283972, Note_on_c, 0, 76, 64
2, 284266, Control_c, 0, 64, 127
2, 284341, Note_on_c, 0, 50, 0
2, 284522, Control_c, 0, 64, 0
2, 284525, Note_on_c, 0, 65, 53
2, 284533, Note_on_c, 0, 64, 50
2, 284553, Note_on_c, 0, 69, 33
2, 284851, Control_c, 0, 64, 127
2, 284992, Note_on_c, 0, 64, 0
2, 285020, Note_on_c, 0, 69, 0
2, 285033, Note_on_c, 0, 76, 0
2, 285076, Note_on_c, 0, 65, 0
2, 285851, Control_c, 0, 64, 0
2, 285903, Note_on_c, 0, 69, 46
2, 285908, Note_on_c, 0, 65, 45
2, 285916, Note_on_c, 0, 62, 37
2, 286022, Control_c, 0, 64, 127
2, 286043, Note_on_c, 0, 69, 0
2, 286056, Note_on_c, 0, 65, 0
2, 286064, Note_on_c, 0, 62, 0
2, 286637, Note_on_c, 0, 53, 24
2, 286796, Note_on_c, 0, 53, 0
2, 286957, Note_on_c, 0, 57, 54
2, 287025, Note_on_c, 0, 57, 0
2, 287233, Note_on_c, 0, 60, 41
2, 287327, Note_on_c, 0, 60, 0
2, 287532, Note_on_c, 0, 62, 48
2, 287567, Note_on_c, 0, 38, 34
2, 287700, Note_on_c, 0, 62, 0
2, 287807, Note_on_c, 0, 38, 0
2, 287891, Control_c, 0, 64, 0
2, 287898, Note_on_c, 0, 64, 49
2, 287903, Note_on_c, 0, 31, 37
2, 287907, Note_on_c, 0, 53, 31
2, 287911, Note_on_c, 0, 43, 25
2, 287915, Note_on_c, 0, 57, 34
2, 287920, Note_on_c, 0, 60, 32
2, 288129, Note_on_c, 0, 43, 0
2, 288145, Note_on_c, 0, 53, 0
2, 288155, Note_on_c, 0, 31, 0
2, 288158, Note_on_c, 0, 57, 0
2, 288159, Note_on_c, 0, 64, 0
2, 288166, Note_on_c, 0, 60, 0
2, 288462, Control_c, 0, 64, 127
2, 288505, Control_c, 0, 64, 0
2, 288590, Note_on_c, 0, 64, 51
2, 288598, Note_on_c, 0, 31, 32
2, 288606, Note_on_c, 0, 43, 24
2, 288610, Note_on_c, 0, 57, 43
2, 288620, Note_on_c, 0, 53, 29
2, 288623, Note_on_c, 0, 60, 35
2, 288692, Control_c, 0, 64, 127
2, 288820, Note_on_c, 0, 53, 0
2, 288841, Note_on_c, 0, 31, 0
2, 288871, Note_on_c, 0, 57, 0
2, 288888, Note_on_c, 0, 60, 0
2, 288955, Note_on_c, 0, 43, 0
2, 289106, Note_on_c, 0, 64, 0
2, 289876, Control_c, 0, 64, 0
2, 289949, Note_on_c, 0, 68, 78
2, 289952, Note_on_c, 0, 71, 76
2, 289953, Note_on_c, 0, 64, 84
2, 289955, Note_on_c, 0, 53, 53
2, 289959, Note_on_c, 0, 59, 65
2, 290191, Control_c, 0, 64, 127
2, 290425, Note_on_c, 0, 71, 0
2, 290426, Note_on_c, 0, 53, 0
2, 290435, Note_on_c, 0, 64, 0
2, 290436, Note_on_c, 0, 59, 0
2, 290437, Note_on_c, 0, 68, 0
2, 290610, Note_on_c, 0, 68, 65
2, 290611, Note_on_c, 0, 71, 54
2, 290617, Note_on_c, 0, 64, 58
2, 290620, Note_on_c, 0, 59, 51
2, 290642, Note_on_c, 0, 53, 36
2, 290755, Note_on_c, 0, 59, 0
2, 290778, Note_on_c, 0, 71, 0
2, 290788, Note_on_c, 0, 53, 0
2, 290795, Note_on_c, 0, 64, 0
2, 290815, Note_on_c, 0, 68, 0
2, 291065, Note_on_c, 0, 71, 60
2, 291072, Note_on_c, 0, 59, 48
2, 291077, Note_on_c, 0, 68, 53
2, 291081, Note_on_c, 0, 64, 56
2, 291094, Note_on_c, 0, 53, 30
2, 291179, Note_on_c, 0, 59, 0
2, 291198, Note_on_c, 0, 71, 0
2, 291202, Note_on_c, 0, 64, 0
2, 291211, Note_on_c, 0, 53, 0
2, 291245, Note_on_c, 0, 68, 0
2, 291715, Note_on_c, 0, 72, 57
2, 291719, Control_c, 0, 64, 0
2, 291720, Note_on_c, 0, 67, 64
2, 291723, Note_on_c, 0, 60, 59
2, 291736, Note_on_c, 0, 44, 52
2, 292059, Control_c, 0, 64, 127
2, 292099, Note_on_c, 0, 72, 0
2, 292105, Note_on_c, 0, 67, 0
2, 292199, Note_on_c, 0, 60, 0
2, 292263, Note_on_c, 0, 51, 51
2, 292558, Note_on_c, 0, 55, 39
2, 292727, Note_on_c, 0, 55, 0
2, 292795, Note_on_c, 0, 58, 52
2, 292927, Note_on_c, 0, 58, 0
2, 293001, Note_on_c, 0, 60, 53
2, 293144, Note_on_c, 0, 60, 0
2, 293184, Note_on_c, 0, 63, 64
2, 293245, Note_on_c, 0, 44, 0
2, 293284, Note_on_c, 0, 63, 0
2, 293318, Note_on_c, 0, 51, 0
2, 293355, Note_on_c, 0, 65, 68
2, 293496, Note_on_c, 0, 67, 69
2, 293516, Note_on_c, 0, 65, 0
2, 293664, Note_on_c, 0, 70, 74
2, 293693, Note_on_c, 0, 67, 0
2, 293784, Note_on_c, 0, 70, 0
2, 293842, Note_on_c, 0, 72, 55
2, 293965, Note_on_c, 0, 72, 0
2, 293982, Note_on_c, 0, 75, 74
2, 294093, Note_on_c, 0, 75, 0
2, 294173, Note_on_c, 0, 77, 67
2, 294308, Note_on_c, 0, 79, 51
2, 294321, Note_on_c, 0, 77, 0
2, 294462, Note_on_c, 0, 79, 0
2, 294480, Note_on_c, 0, 82, 71
2, 294590, Note_on_c, 0, 82, 0
2, 294647, Note_on_c, 0, 84, 59
2, 294773, Note_on_c, 0, 84, 0
2, 294818, Note_on_c, 0, 87, 50
2, 294900, Note_on_c, 0, 87, 0
2, 295007, Note_on_c, 0, 89, 50
2, 295148, Note_on_c, 0, 91, 58
2, 295159, Note_on_c, 0, 89, 0
2, 295296, Note_on_c, 0, 91, 0
2, 295350, Note_on_c, 0, 94, 57
2, 295454, Note_on_c, 0, 94, 0
2, 295527, Note_on_c, 0, 96, 60
2, 295651, Note_on_c, 0, 96, 0
2, 295718, Note_on_c, 0, 99, 56
2, 295834, Note_on_c, 0, 99, 0
2, 295941, Note_on_c, 0, 101, 58
2, 296116, Note_on_c, 0, 101, 0
2, 296160, Note_on_c, 0, 103, 67
2, 296344, Note_on_c, 0, 103, 0
2, 296424, Note_on_c, 0, 104, 67
2, 296603, Note_on_c, 0, 104, 0
2, 296717, Note_on_c, 0, 106, 63
2, 297001, Note_on_c, 0, 106, 0
2, 297019, Note_on_c, 0, 107, 74
2, 297886, Note_on_c, 0, 105, 54
2, 297891, Note_on_c, 0, 107, 0
2, 297906, Note_on_c, 0, 36, 34
2, 298010, Control_c, 0, 64, 0
2, 298339, Control_c, 0, 64, 127
2, 298355, Note_on_c, 0, 105, 0
2, 298487, Note_on_c, 0, 43, 29
2, 298523, Note_on_c, 0, 36, 0
2, 298595, Note_on_c, 0, 43, 0
2, 299154, Note_on_c, 0, 55, 24
2, 299555, Note_on_c, 0, 57, 41
2, 299867, Note_on_c, 0, 62, 36
2, 300152, Note_on_c, 0, 62, 0
2, 300205, Note_on_c, 0, 66, 46
2, 300425, Note_on_c, 0, 66, 0
2, 300555, Note_on_c, 0, 69, 35
2, 301295, Note_on_c, 0, 69, 0
2, 301619, Note_on_c, 0, 69, 28
2, 301764, Note_on_c, 0, 69, 0
2, 301861, Note_on_c, 0, 74, 57
2, 302057, Note_on_c, 0, 74, 0
2, 302114, Note_on_c, 0, 78, 59
2, 302294, Note_on_c, 0, 78, 0
2, 302349, Note_on_c, 0, 79, 58
2, 302497, Note_on_c, 0, 79, 0
2, 302571, Note_on_c, 0, 78, 53
2, 302769, Note_on_c, 0, 55, 0
2, 302808, Note_on_c, 0, 74, 57
2, 302810, Note_on_c, 0, 78, 0
2, 302835, Note_on_c, 0, 57, 0
2, 302937, Note_on_c, 0, 74, 0
2, 303058, Note_on_c, 0, 69, 32
2, 303199, Note_on_c, 0, 69, 0
2, 303320, Note_on_c, 0, 66, 34
2, 303541, Note_on_c, 0, 66, 0
2, 303854, Note_on_c, 0, 62, 1
2, 304469, Note_on_c, 0, 64, 25
2, 304479, Note_on_c, 0, 62, 0
2, 305284, Note_on_c, 0, 24, 30
2, 305704, Control_c, 0, 64, 0
2, 307998, Note_on_c, 0, 64, 0
2, 309415, Note_on_c, 0, 24, 0
2, 309415, End_track
0, 0, End_of_file
