0, 0, Header, 1, 2, 120
1, 0, Start_track
1, 0, Title_t, "Danny Boy"
1, 0, Text_t, "Doug McKenzie - played in real time. Some parts slightly re-harmonized\012"
1, 0, Text_t, "dougmck@pipeline.com.au\012"
1, 0, Time_signature, 4, 2, 24, 8
1, 0, Key_signature, 0, "major"
1, 0, Tempo, 600000
1, 0, End_track
2, 0, Start_track
2, 0, Title_t, "dougmck@pipeline.com.au"
2, 0, Control_c, 0, 64, 127
2, 23, Note_on_c, 0, 83, 50
2, 23, Note_on_c, 0, 59, 40
2, 33, Control_c, 0, 64, 0
2, 66, Control_c, 0, 64, 127
2, 84, Note_on_c, 0, 59, 0
2, 85, Note_on_c, 0, 83, 0
2, 88, Control_c, 0, 64, 0
2, 88, Note_on_c, 0, 84, 66
2, 90, Note_on_c, 0, 60, 40
2, 134, Control_c, 0, 64, 127
2, 141, Note_on_c, 0, 60, 0
2, 141, Note_on_c, 0, 84, 0
2, 145, Note_on_c, 0, 62, 49
2, 149, Note_on_c, 0, 86, 71
2, 206, Note_on_c, 0, 86, 0
2, 210, Note_on_c, 0, 62, 0
2, 221, Note_on_c, 0, 64, 60
2, 222, Control_c, 0, 64, 0
2, 223, Note_on_c, 0, 88, 71
2, 256, Control_c, 0, 64, 127
2, 305, Note_on_c, 0, 88, 0
2, 305, Note_on_c, 0, 64, 0
2, 527, Note_on_c, 0, 43, 24
2, 530, Note_on_c, 0, 62, 29
2, 530, Note_on_c, 0, 67, 34
2, 531, Note_on_c, 0, 36, 28
2, 533, Note_on_c, 0, 59, 35
2, 533, Note_on_c, 0, 57, 36
2, 534, Note_on_c, 0, 52, 30
2, 549, Control_c, 0, 64, 0
2, 633, Control_c, 0, 64, 127
2, 720, Note_on_c, 0, 36, 0
2, 722, Note_on_c, 0, 57, 0
2, 735, Note_on_c, 0, 59, 0
2, 738, Note_on_c, 0, 43, 0
2, 763, Note_on_c, 0, 67, 0
2, 763, Note_on_c, 0, 52, 0
2, 764, Note_on_c, 0, 62, 0
2, 946, Note_on_c, 0, 62, 40
2, 946, Note_on_c, 0, 86, 66
2, 1006, Note_on_c, 0, 86, 0
2, 1017, Note_on_c, 0, 62, 0
2, 1025, Note_on_c, 0, 88, 66
2, 1030, Note_on_c, 0, 64, 42
2, 1032, Control_c, 0, 64, 0
2, 1052, Control_c, 0, 64, 127
2, 1107, Note_on_c, 0, 64, 0
2, 1110, Note_on_c, 0, 88, 0
2, 1116, Note_on_c, 0, 69, 43
2, 1119, Note_on_c, 0, 93, 64
2, 1198, Note_on_c, 0, 93, 0
2, 1206, Note_on_c, 0, 69, 0
2, 1217, Note_on_c, 0, 91, 57
2, 1219, Note_on_c, 0, 67, 43
2, 1225, Control_c, 0, 64, 0
2, 1237, Control_c, 0, 64, 127
2, 1308, Note_on_c, 0, 67, 0
2, 1319, Note_on_c, 0, 91, 0
2, 1344, Note_on_c, 0, 88, 57
2, 1344, Note_on_c, 0, 64, 33
2, 1359, Control_c, 0, 64, 0
2, 1363, Control_c, 0, 64, 127
2, 1447, Note_on_c, 0, 88, 0
2, 1467, Note_on_c, 0, 64, 0
2, 1506, Note_on_c, 0, 86, 62
2, 1508, Note_on_c, 0, 62, 32
2, 1522, Control_c, 0, 64, 0
2, 1534, Control_c, 0, 64, 127
2, 1569, Note_on_c, 0, 86, 0
2, 1576, Note_on_c, 0, 62, 0
2, 1580, Note_on_c, 0, 84, 51
2, 1582, Note_on_c, 0, 60, 34
2, 1653, Note_on_c, 0, 84, 0
2, 1654, Note_on_c, 0, 60, 0
2, 1677, Note_on_c, 0, 81, 27
2, 1681, Note_on_c, 0, 57, 24
2, 1713, Note_on_c, 0, 81, 0
2, 1724, Note_on_c, 0, 57, 0
2, 1818, Note_on_c, 0, 61, 35
2, 1819, Note_on_c, 0, 64, 41
2, 1820, Note_on_c, 0, 57, 34
2, 1821, Note_on_c, 0, 49, 25
2, 1825, Note_on_c, 0, 41, 20
2, 1834, Control_c, 0, 64, 0
2, 1867, Control_c, 0, 64, 127
2, 1970, Note_on_c, 0, 41, 0
2, 1999, Note_on_c, 0, 49, 0
2, 2025, Note_on_c, 0, 57, 0
2, 2066, Note_on_c, 0, 64, 0
2, 2083, Note_on_c, 0, 61, 0
2, 2143, Note_on_c, 0, 60, 32
2, 2145, Note_on_c, 0, 65, 33
2, 2148, Note_on_c, 0, 38, 26
2, 2148, Note_on_c, 0, 57, 24
2, 2150, Note_on_c, 0, 50, 20
2, 2155, Control_c, 0, 64, 0
2, 2217, Control_c, 0, 64, 127
2, 2270, Note_on_c, 0, 57, 0
2, 2307, Note_on_c, 0, 60, 0
2, 2319, Note_on_c, 0, 65, 0
2, 2324, Note_on_c, 0, 60, 62
2, 2338, Note_on_c, 0, 38, 0
2, 2366, Note_on_c, 0, 50, 0
2, 2421, Note_on_c, 0, 60, 0
2, 2604, Note_on_c, 0, 76, 58
2, 2607, Note_on_c, 0, 71, 54
2, 2611, Note_on_c, 0, 68, 31
2, 2613, Note_on_c, 0, 65, 41
2, 2615, Note_on_c, 0, 64, 28
2, 2627, Control_c, 0, 64, 0
2, 2667, Control_c, 0, 64, 127
2, 2790, Note_on_c, 0, 64, 0
2, 2792, Note_on_c, 0, 71, 0
2, 2796, Note_on_c, 0, 68, 0
2, 2801, Note_on_c, 0, 76, 0
2, 2864, Note_on_c, 0, 77, 52
2, 2868, Note_on_c, 0, 62, 31
2, 2897, Note_on_c, 0, 65, 0
2, 2910, Note_on_c, 0, 77, 0
2, 2915, Note_on_c, 0, 62, 0
2, 2965, Note_on_c, 0, 79, 40
2, 2965, Note_on_c, 0, 52, 36
2, 2967, Note_on_c, 0, 62, 32
2, 2967, Note_on_c, 0, 67, 39
2, 2972, Note_on_c, 0, 72, 28
2, 2976, Control_c, 0, 64, 0
2, 3030, Control_c, 0, 64, 127
2, 3054, Note_on_c, 0, 52, 0
2, 3055, Note_on_c, 0, 67, 0
2, 3059, Note_on_c, 0, 62, 0
2, 3060, Note_on_c, 0, 56, 35
2, 3062, Note_on_c, 0, 72, 0
2, 3073, Note_on_c, 0, 56, 0
2, 3076, Note_on_c, 0, 79, 0
2, 3139, Note_on_c, 0, 62, 41
2, 3226, Note_on_c, 0, 91, 53
2, 3229, Note_on_c, 0, 67, 36
2, 3236, Note_on_c, 0, 79, 26
2, 3283, Note_on_c, 0, 67, 0
2, 3287, Note_on_c, 0, 62, 0
2, 3343, Control_c, 0, 64, 0
2, 3343, Note_on_c, 0, 65, 30
2, 3345, Note_on_c, 0, 60, 36
2, 3347, Note_on_c, 0, 55, 38
2, 3347, Note_on_c, 0, 61, 23
2, 3373, Control_c, 0, 64, 127
2, 3392, Note_on_c, 0, 65, 0
2, 3395, Note_on_c, 0, 60, 0
2, 3397, Note_on_c, 0, 61, 0
2, 3404, Note_on_c, 0, 55, 0
2, 3493, Note_on_c, 0, 33, 39
2, 3522, Note_on_c, 0, 33, 0
2, 3611, Note_on_c, 0, 79, 0
2, 3624, Note_on_c, 0, 91, 0
2, 3748, Note_on_c, 0, 93, 74
2, 3754, Note_on_c, 0, 84, 64
2, 3812, Note_on_c, 0, 93, 0
2, 3818, Note_on_c, 0, 84, 0
2, 4067, Note_on_c, 0, 91, 70
2, 4067, Note_on_c, 0, 45, 35
2, 4071, Control_c, 0, 64, 0
2, 4091, Control_c, 0, 64, 127
2, 4156, Note_on_c, 0, 52, 34
2, 4158, Note_on_c, 0, 45, 0
2, 4159, Note_on_c, 0, 91, 0
2, 4167, Note_on_c, 0, 52, 0
2, 4240, Note_on_c, 0, 60, 50
2, 4318, Note_on_c, 0, 88, 66
2, 4323, Note_on_c, 0, 64, 39
2, 4326, Note_on_c, 0, 77, 48
2, 4327, Note_on_c, 0, 79, 41
2, 4346, Note_on_c, 0, 60, 0
2, 4354, Note_on_c, 0, 88, 0
2, 4359, Note_on_c, 0, 79, 0
2, 4364, Note_on_c, 0, 77, 0
2, 4391, Note_on_c, 0, 64, 0
2, 4417, Note_on_c, 0, 64, 44
2, 4418, Note_on_c, 0, 84, 58
2, 4425, Note_on_c, 0, 72, 27
2, 4428, Note_on_c, 0, 74, 24
2, 4442, Note_on_c, 0, 74, 0
2, 4499, Note_on_c, 0, 84, 0
2, 4515, Note_on_c, 0, 60, 32
2, 4521, Note_on_c, 0, 72, 0
2, 4580, Note_on_c, 0, 60, 0
2, 4588, Note_on_c, 0, 64, 0
2, 4606, Note_on_c, 0, 60, 30
2, 4686, Note_on_c, 0, 60, 0
2, 4705, Note_on_c, 0, 76, 49
2, 4787, Note_on_c, 0, 76, 0
2, 4875, Note_on_c, 0, 74, 43
2, 4877, Note_on_c, 0, 54, 31
2, 4879, Note_on_c, 0, 70, 33
2, 4881, Note_on_c, 0, 44, 30
2, 4883, Note_on_c, 0, 65, 17
2, 4895, Control_c, 0, 64, 0
2, 4939, Control_c, 0, 64, 127
2, 4983, Note_on_c, 0, 44, 0
2, 4997, Note_on_c, 0, 70, 0
2, 4997, Note_on_c, 0, 74, 0
2, 5003, Note_on_c, 0, 44, 30
2, 5009, Note_on_c, 0, 65, 0
2, 5047, Note_on_c, 0, 54, 0
2, 5113, Note_on_c, 0, 44, 0
2, 5132, Note_on_c, 0, 44, 33
2, 5213, Note_on_c, 0, 44, 0
2, 5254, Note_on_c, 0, 62, 40
2, 5254, Note_on_c, 0, 44, 33
2, 5257, Note_on_c, 0, 53, 15
2, 5258, Note_on_c, 0, 58, 31
2, 5298, Note_on_c, 0, 62, 0
2, 5322, Note_on_c, 0, 44, 0
2, 5333, Note_on_c, 0, 53, 0
2, 5358, Note_on_c, 0, 58, 0
2, 5416, Note_on_c, 0, 53, 29
2, 5419, Note_on_c, 0, 43, 34
2, 5420, Note_on_c, 0, 60, 40
2, 5421, Note_on_c, 0, 50, 27
2, 5423, Note_on_c, 0, 57, 22
2, 5431, Control_c, 0, 64, 0
2, 5473, Control_c, 0, 64, 127
2, 5506, Note_on_c, 0, 60, 0
2, 5507, Note_on_c, 0, 57, 0
2, 5507, Note_on_c, 0, 53, 0
2, 5546, Note_on_c, 0, 50, 0
2, 5552, Note_on_c, 0, 56, 60
2, 5553, Note_on_c, 0, 59, 68
2, 5555, Note_on_c, 0, 55, 47
2, 5602, Note_on_c, 0, 55, 0
2, 5632, Note_on_c, 0, 59, 0
2, 5634, Note_on_c, 0, 43, 0
2, 5647, Note_on_c, 0, 56, 0
2, 5671, Note_on_c, 0, 53, 49
2, 5676, Note_on_c, 0, 57, 45
2, 5677, Note_on_c, 0, 60, 60
2, 5678, Note_on_c, 0, 43, 37
2, 5687, Control_c, 0, 64, 0
2, 5723, Control_c, 0, 64, 127
2, 5762, Note_on_c, 0, 53, 0
2, 5764, Note_on_c, 0, 43, 0
2, 5768, Note_on_c, 0, 57, 0
2, 5771, Note_on_c, 0, 60, 0
2, 5809, Note_on_c, 0, 53, 41
2, 5809, Note_on_c, 0, 62, 49
2, 5810, Note_on_c, 0, 56, 35
2, 5812, Note_on_c, 0, 43, 36
2, 5813, Note_on_c, 0, 59, 42
2, 5816, Control_c, 0, 64, 0
2, 5816, Note_on_c, 0, 52, 27
2, 5835, Note_on_c, 0, 43, 0
2, 5850, Control_c, 0, 64, 127
2, 5863, Note_on_c, 0, 52, 0
2, 5885, Note_on_c, 0, 56, 0
2, 5886, Note_on_c, 0, 53, 0
2, 5895, Note_on_c, 0, 59, 0
2, 5947, Note_on_c, 0, 62, 0
2, 6016, Note_on_c, 0, 62, 28
2, 6018, Note_on_c, 0, 36, 33
2, 6019, Note_on_c, 0, 43, 32
2, 6019, Note_on_c, 0, 64, 43
2, 6020, Note_on_c, 0, 57, 38
2, 6021, Note_on_c, 0, 59, 46
2, 6023, Note_on_c, 0, 52, 51
2, 6026, Control_c, 0, 64, 0
2, 6125, Control_c, 0, 64, 127
2, 6183, Note_on_c, 0, 43, 0
2, 6222, Note_on_c, 0, 43, 33
2, 6255, Note_on_c, 0, 52, 0
2, 6277, Note_on_c, 0, 57, 0
2, 6301, Note_on_c, 0, 59, 0
2, 6356, Note_on_c, 0, 55, 36
2, 6368, Note_on_c, 0, 62, 0
2, 6444, Note_on_c, 0, 36, 0
2, 6456, Note_on_c, 0, 43, 0
2, 6457, Note_on_c, 0, 64, 0
2, 6458, Note_on_c, 0, 59, 1
2, 6465, Note_on_c, 0, 62, 61
2, 6515, Note_on_c, 0, 55, 0
2, 6519, Note_on_c, 0, 59, 0
2, 6547, Note_on_c, 0, 62, 0
2, 6605, Note_on_c, 0, 64, 55
2, 6606, Note_on_c, 0, 62, 49
2, 6608, Note_on_c, 0, 58, 46
2, 6610, Control_c, 0, 64, 0
2, 6611, Note_on_c, 0, 53, 29
2, 6612, Note_on_c, 0, 48, 25
2, 6644, Control_c, 0, 64, 127
2, 6655, Note_on_c, 0, 53, 0
2, 6663, Note_on_c, 0, 62, 0
2, 6663, Note_on_c, 0, 64, 0
2, 6668, Note_on_c, 0, 58, 0
2, 6744, Note_on_c, 0, 69, 70
2, 6745, Note_on_c, 0, 58, 51
2, 6747, Note_on_c, 0, 57, 49
2, 6747, Note_on_c, 0, 62, 55
2, 6749, Note_on_c, 0, 65, 54
2, 6756, Control_c, 0, 64, 0
2, 6786, Control_c, 0, 64, 127
2, 6841, Note_on_c, 0, 57, 0
2, 6852, Note_on_c, 0, 58, 0
2, 6858, Note_on_c, 0, 65, 0
2, 6863, Note_on_c, 0, 69, 0
2, 6867, Note_on_c, 0, 62, 0
2, 6904, Note_on_c, 0, 67, 50
2, 6905, Note_on_c, 0, 58, 37
2, 6908, Note_on_c, 0, 65, 43
2, 6909, Control_c, 0, 64, 0
2, 6909, Note_on_c, 0, 62, 40
2, 6910, Note_on_c, 0, 55, 32
2, 6941, Control_c, 0, 64, 127
2, 6962, Note_on_c, 0, 58, 0
2, 6967, Note_on_c, 0, 55, 0
2, 6976, Note_on_c, 0, 62, 0
2, 6979, Note_on_c, 0, 65, 0
2, 6980, Note_on_c, 0, 67, 0
2, 7082, Note_on_c, 0, 76, 59
2, 7085, Note_on_c, 0, 68, 47
2, 7089, Note_on_c, 0, 72, 36
2, 7089, Note_on_c, 0, 64, 51
2, 7091, Note_on_c, 0, 58, 29
2, 7100, Control_c, 0, 64, 0
2, 7134, Control_c, 0, 64, 127
2, 7247, Note_on_c, 0, 76, 0
2, 7267, Note_on_c, 0, 64, 0
2, 7267, Note_on_c, 0, 72, 0
2, 7274, Note_on_c, 0, 68, 0
2, 7281, Note_on_c, 0, 58, 0
2, 7305, Note_on_c, 0, 74, 47
2, 7305, Note_on_c, 0, 64, 58
2, 7307, Note_on_c, 0, 58, 34
2, 7307, Note_on_c, 0, 69, 63
2, 7314, Control_c, 0, 64, 0
2, 7340, Control_c, 0, 64, 127
2, 7375, Note_on_c, 0, 74, 0
2, 7378, Note_on_c, 0, 69, 0
2, 7382, Note_on_c, 0, 64, 0
2, 7389, Note_on_c, 0, 58, 0
2, 7439, Note_on_c, 0, 72, 31
2, 7440, Note_on_c, 0, 62, 34
2, 7441, Note_on_c, 0, 57, 40
2, 7441, Note_on_c, 0, 67, 47
2, 7447, Control_c, 0, 64, 0
2, 7473, Control_c, 0, 64, 127
2, 7503, Note_on_c, 0, 67, 0
2, 7520, Note_on_c, 0, 62, 0
2, 7522, Note_on_c, 0, 57, 0
2, 7534, Note_on_c, 0, 48, 0
2, 7550, Note_on_c, 0, 72, 0
2, 7596, Note_on_c, 0, 61, 30
2, 7597, Note_on_c, 0, 69, 48
2, 7598, Note_on_c, 0, 51, 36
2, 7599, Note_on_c, 0, 65, 38
2, 7603, Note_on_c, 0, 57, 20
2, 7605, Control_c, 0, 64, 0
2, 7661, Control_c, 0, 64, 127
2, 7730, Note_on_c, 0, 65, 0
2, 7754, Note_on_c, 0, 61, 0
2, 7797, Note_on_c, 0, 61, 33
2, 7801, Note_on_c, 0, 65, 35
2, 7840, Note_on_c, 0, 57, 0
2, 7868, Note_on_c, 0, 51, 0
2, 7873, Note_on_c, 0, 69, 0
2, 7886, Note_on_c, 0, 65, 0
2, 7900, Note_on_c, 0, 61, 0
2, 8059, Note_on_c, 0, 66, 25
2, 8060, Note_on_c, 0, 54, 26
2, 8064, Note_on_c, 0, 38, 31
2, 8070, Note_on_c, 0, 26, 26
2, 8083, Control_c, 0, 64, 0
2, 8139, Control_c, 0, 64, 127
2, 8183, Note_on_c, 0, 54, 0
2, 8208, Note_on_c, 0, 66, 0
2, 8221, Note_on_c, 0, 26, 0
2, 8243, Note_on_c, 0, 38, 0
2, 8300, Note_on_c, 0, 71, 57
2, 8449, Note_on_c, 0, 71, 0
2, 8537, Note_on_c, 0, 72, 43
2, 8540, Note_on_c, 0, 65, 30
2, 8541, Note_on_c, 0, 69, 50
2, 8546, Note_on_c, 0, 57, 47
2, 8549, Note_on_c, 0, 60, 22
2, 8556, Control_c, 0, 64, 0
2, 8590, Control_c, 0, 64, 127
2, 8631, Note_on_c, 0, 60, 0
2, 8650, Note_on_c, 0, 57, 0
2, 8663, Note_on_c, 0, 65, 0
2, 8664, Note_on_c, 0, 72, 0
2, 8667, Note_on_c, 0, 69, 0
2, 8751, Note_on_c, 0, 74, 47
2, 8753, Note_on_c, 0, 71, 38
2, 8755, Note_on_c, 0, 65, 37
2, 8756, Note_on_c, 0, 68, 35
2, 8758, Note_on_c, 0, 53, 33
2, 8758, Note_on_c, 0, 59, 24
2, 8764, Control_c, 0, 64, 0
2, 8801, Control_c, 0, 64, 127
2, 8890, Note_on_c, 0, 53, 0
2, 8901, Note_on_c, 0, 59, 0
2, 8913, Note_on_c, 0, 65, 0
2, 8917, Note_on_c, 0, 74, 0
2, 8931, Note_on_c, 0, 68, 0
2, 8937, Note_on_c, 0, 71, 0
2, 9059, Note_on_c, 0, 67, 35
2, 9060, Note_on_c, 0, 76, 38
2, 9060, Note_on_c, 0, 71, 43
2, 9060, Note_on_c, 0, 64, 36
2, 9062, Note_on_c, 0, 52, 37
2, 9065, Note_on_c, 0, 62, 27
2, 9067, Control_c, 0, 64, 0
2, 9097, Control_c, 0, 64, 127
2, 9112, Note_on_c, 0, 64, 0
2, 9112, Note_on_c, 0, 67, 0
2, 9117, Note_on_c, 0, 76, 0
2, 9122, Note_on_c, 0, 71, 0
2, 9187, Note_on_c, 0, 56, 32
2, 9188, Note_on_c, 0, 79, 74
2, 9201, Note_on_c, 0, 62, 0
2, 9224, Note_on_c, 0, 52, 0
2, 9243, Note_on_c, 0, 56, 0
2, 9257, Note_on_c, 0, 79, 0
2, 9341, Note_on_c, 0, 67, 38
2, 9342, Note_on_c, 0, 73, 25
2, 9343, Note_on_c, 0, 61, 25
2, 9344, Note_on_c, 0, 70, 37
2, 9344, Note_on_c, 0, 55, 32
2, 9348, Note_on_c, 0, 64, 29
2, 9358, Control_c, 0, 64, 0
2, 9388, Control_c, 0, 64, 127
2, 9445, Note_on_c, 0, 55, 0
2, 9468, Note_on_c, 0, 64, 0
2, 9473, Note_on_c, 0, 61, 0
2, 9517, Note_on_c, 0, 77, 68
2, 9580, Note_on_c, 0, 77, 0
2, 9594, Note_on_c, 0, 67, 0
2, 9620, Note_on_c, 0, 73, 0
2, 9634, Note_on_c, 0, 70, 0
2, 9667, Note_on_c, 0, 76, 42
2, 9669, Note_on_c, 0, 60, 26
2, 9670, Note_on_c, 0, 65, 28
2, 9670, Note_on_c, 0, 69, 32
2, 9672, Note_on_c, 0, 50, 25
2, 9679, Control_c, 0, 64, 0
2, 9729, Control_c, 0, 64, 127
2, 9855, Note_on_c, 0, 60, 0
2, 9883, Note_on_c, 0, 50, 0
2, 9969, Note_on_c, 0, 76, 0
2, 9970, Note_on_c, 0, 74, 47
2, 10070, Note_on_c, 0, 74, 0
2, 10088, Control_c, 0, 64, 0
2, 10089, Note_on_c, 0, 72, 37
2, 10094, Note_on_c, 0, 31, 33
2, 10114, Control_c, 0, 64, 127
2, 10129, Note_on_c, 0, 31, 0
2, 10271, Note_on_c, 0, 69, 0
2, 10271, Note_on_c, 0, 65, 0
2, 10284, Note_on_c, 0, 72, 0
2, 10554, Note_on_c, 0, 74, 53
2, 10555, Note_on_c, 0, 71, 54
2, 10557, Note_on_c, 0, 65, 32
2, 10557, Note_on_c, 0, 62, 35
2, 10558, Note_on_c, 0, 68, 30
2, 10571, Note_on_c, 0, 62, 0
2, 10605, Note_on_c, 0, 65, 0
2, 10608, Note_on_c, 0, 74, 0
2, 10623, Note_on_c, 0, 71, 0
2, 10637, Note_on_c, 0, 68, 0
2, 10793, Note_on_c, 0, 72, 44
2, 10796, Note_on_c, 0, 67, 40
2, 10798, Note_on_c, 0, 44, 27
2, 10802, Note_on_c, 0, 60, 24
2, 10808, Control_c, 0, 64, 0
2, 10811, Note_on_c, 0, 65, 9
2, 10874, Note_on_c, 0, 51, 36
2, 10876, Control_c, 0, 64, 127
2, 10895, Note_on_c, 0, 60, 0
2, 10901, Note_on_c, 0, 65, 0
2, 10942, Note_on_c, 0, 67, 0
2, 10944, Note_on_c, 0, 60, 36
2, 10946, Note_on_c, 0, 72, 0
2, 10946, Note_on_c, 0, 65, 38
2, 10966, Note_on_c, 0, 44, 0
2, 11006, Note_on_c, 0, 60, 0
2, 11014, Note_on_c, 0, 44, 28
2, 11016, Note_on_c, 0, 72, 44
2, 11028, Note_on_c, 0, 65, 0
2, 11046, Note_on_c, 0, 44, 0
2, 11075, Note_on_c, 0, 51, 0
2, 11079, Note_on_c, 0, 72, 0
2, 11100, Note_on_c, 0, 72, 35
2, 11102, Note_on_c, 0, 46, 33
2, 11115, Control_c, 0, 64, 0
2, 11159, Control_c, 0, 64, 127
2, 11184, Note_on_c, 0, 53, 24
2, 11246, Note_on_c, 0, 72, 0
2, 11264, Note_on_c, 0, 65, 32
2, 11267, Note_on_c, 0, 60, 33
2, 11267, Note_on_c, 0, 62, 31
2, 11274, Note_on_c, 0, 57, 24
2, 11400, Note_on_c, 0, 60, 0
2, 11402, Note_on_c, 0, 72, 32
2, 11403, Note_on_c, 0, 62, 0
2, 11407, Note_on_c, 0, 46, 0
2, 11408, Note_on_c, 0, 53, 0
2, 11439, Note_on_c, 0, 65, 0
2, 11446, Note_on_c, 0, 72, 0
2, 11456, Note_on_c, 0, 57, 0
2, 11532, Note_on_c, 0, 67, 44
2, 11536, Note_on_c, 0, 48, 30
2, 11538, Note_on_c, 0, 62, 24
2, 11539, Note_on_c, 0, 64, 28
2, 11539, Note_on_c, 0, 55, 33
2, 11548, Control_c, 0, 64, 0
2, 11590, Control_c, 0, 64, 127
2, 11605, Note_on_c, 0, 55, 0
2, 11642, Note_on_c, 0, 55, 50
2, 11684, Note_on_c, 0, 62, 0
2, 11699, Note_on_c, 0, 67, 0
2, 11710, Note_on_c, 0, 64, 0
2, 11759, Note_on_c, 0, 55, 0
2, 11765, Note_on_c, 0, 67, 44
2, 11766, Note_on_c, 0, 57, 48
2, 11768, Note_on_c, 0, 62, 48
2, 11769, Note_on_c, 0, 64, 44
2, 11861, Note_on_c, 0, 55, 50
2, 11872, Note_on_c, 0, 55, 0
2, 11877, Note_on_c, 0, 57, 0
2, 11888, Note_on_c, 0, 48, 0
2, 11893, Note_on_c, 0, 62, 0
2, 11907, Note_on_c, 0, 64, 0
2, 11944, Note_on_c, 0, 67, 0
2, 11985, Note_on_c, 0, 59, 51
2, 11986, Note_on_c, 0, 53, 45
2, 11986, Note_on_c, 0, 64, 51
2, 11987, Note_on_c, 0, 69, 50
2, 12003, Control_c, 0, 64, 0
2, 12090, Control_c, 0, 64, 127
2, 12111, Note_on_c, 0, 43, 55
2, 12181, Note_on_c, 0, 53, 0
2, 12188, Note_on_c, 0, 59, 0
2, 12191, Note_on_c, 0, 69, 0
2, 12237, Note_on_c, 0, 64, 0
2, 12269, Note_on_c, 0, 43, 0
2, 12438, Note_on_c, 0, 71, 46
2, 12471, Note_on_c, 0, 71, 0
2, 12533, Note_on_c, 0, 72, 45
2, 12536, Note_on_c, 0, 64, 36
2, 12538, Note_on_c, 0, 67, 37
2, 12538, Note_on_c, 0, 43, 33
2, 12538, Note_on_c, 0, 60, 35
2, 12541, Note_on_c, 0, 52, 24
2, 12543, Control_c, 0, 64, 0
2, 12583, Control_c, 0, 64, 127
2, 12601, Note_on_c, 0, 43, 0
2, 12627, Note_on_c, 0, 43, 38
2, 12644, Note_on_c, 0, 52, 0
2, 12647, Note_on_c, 0, 60, 0
2, 12654, Note_on_c, 0, 64, 0
2, 12675, Note_on_c, 0, 67, 0
2, 12693, Note_on_c, 0, 72, 0
2, 12710, Note_on_c, 0, 67, 24
2, 12712, Note_on_c, 0, 64, 36
2, 12714, Note_on_c, 0, 60, 28
2, 12716, Note_on_c, 0, 43, 0
2, 12717, Note_on_c, 0, 52, 36
2, 12730, Note_on_c, 0, 52, 0
2, 12760, Note_on_c, 0, 60, 0
2, 12801, Note_on_c, 0, 60, 57
2, 12812, Note_on_c, 0, 64, 0
2, 12854, Note_on_c, 0, 60, 0
2, 12887, Note_on_c, 0, 67, 0
2, 12893, Note_on_c, 0, 60, 50
2, 12895, Note_on_c, 0, 64, 43
2, 12994, Note_on_c, 0, 43, 60
2, 13017, Note_on_c, 0, 60, 0
2, 13093, Note_on_c, 0, 64, 0
2, 13100, Note_on_c, 0, 60, 36
2, 13114, Note_on_c, 0, 60, 0
2, 13123, Note_on_c, 0, 43, 0
2, 13235, Note_on_c, 0, 71, 39
2, 13276, Note_on_c, 0, 71, 0
2, 13380, Note_on_c, 0, 71, 24
2, 13385, Note_on_c, 0, 64, 36
2, 13387, Note_on_c, 0, 57, 35
2, 13389, Note_on_c, 0, 41, 38
2, 13389, Note_on_c, 0, 48, 33
2, 13397, Control_c, 0, 64, 0
2, 13456, Control_c, 0, 64, 127
2, 13492, Note_on_c, 0, 57, 0
2, 13509, Note_on_c, 0, 41, 0
2, 13578, Note_on_c, 0, 71, 0
2, 13585, Note_on_c, 0, 57, 40
2, 13638, Note_on_c, 0, 57, 0
2, 13693, Note_on_c, 0, 69, 56
2, 13760, Note_on_c, 0, 69, 0
2, 13761, Note_on_c, 0, 64, 0
2, 13832, Note_on_c, 0, 48, 0
2, 13869, Note_on_c, 0, 67, 49
2, 13874, Note_on_c, 0, 41, 35
2, 13877, Note_on_c, 0, 65, 31
2, 13877, Note_on_c, 0, 57, 33
2, 13879, Control_c, 0, 64, 0
2, 13879, Note_on_c, 0, 60, 20
2, 13929, Control_c, 0, 64, 127
2, 13967, Note_on_c, 0, 53, 42
2, 13973, Note_on_c, 0, 57, 0
2, 13989, Note_on_c, 0, 60, 0
2, 14036, Note_on_c, 0, 67, 0
2, 14037, Note_on_c, 0, 65, 0
2, 14037, Note_on_c, 0, 57, 41
2, 14037, Note_on_c, 0, 60, 55
2, 14067, Note_on_c, 0, 60, 0
2, 14068, Note_on_c, 0, 57, 0
2, 14107, Note_on_c, 0, 53, 0
2, 14109, Note_on_c, 0, 69, 68
2, 14130, Note_on_c, 0, 41, 0
2, 14135, Note_on_c, 0, 69, 0
2, 14197, Note_on_c, 0, 67, 48
2, 14200, Note_on_c, 0, 62, 44
2, 14202, Note_on_c, 0, 55, 41
2, 14204, Control_c, 0, 64, 0
2, 14204, Note_on_c, 0, 50, 24
2, 14206, Note_on_c, 0, 40, 31
2, 14266, Control_c, 0, 64, 127
2, 14295, Note_on_c, 0, 55, 0
2, 14320, Note_on_c, 0, 55, 41
2, 14385, Note_on_c, 0, 50, 0
2, 14388, Note_on_c, 0, 55, 0
2, 14419, Note_on_c, 0, 62, 0
2, 14426, Note_on_c, 0, 55, 30
2, 14436, Note_on_c, 0, 50, 24
2, 14466, Note_on_c, 0, 67, 0
2, 14511, Note_on_c, 0, 55, 0
2, 14520, Note_on_c, 0, 50, 0
2, 14526, Note_on_c, 0, 64, 36
2, 14527, Note_on_c, 0, 40, 0
2, 14602, Note_on_c, 0, 64, 0
2, 14637, Note_on_c, 0, 33, 36
2, 14639, Control_c, 0, 64, 0
2, 14640, Note_on_c, 0, 60, 36
2, 14660, Note_on_c, 0, 33, 0
2, 14665, Control_c, 0, 64, 127
2, 14684, Note_on_c, 0, 60, 0
2, 14764, Note_on_c, 0, 60, 42
2, 14764, Note_on_c, 0, 64, 26
2, 14764, Note_on_c, 0, 59, 33
2, 14831, Note_on_c, 0, 59, 0
2, 14833, Note_on_c, 0, 60, 0
2, 14842, Note_on_c, 0, 64, 0
2, 14872, Note_on_c, 0, 64, 46
2, 14873, Note_on_c, 0, 60, 49
2, 14875, Note_on_c, 0, 59, 51
2, 14973, Note_on_c, 0, 57, 51
2, 14976, Note_on_c, 0, 59, 0
2, 14996, Note_on_c, 0, 60, 0
2, 14999, Note_on_c, 0, 64, 0
2, 15010, Note_on_c, 0, 57, 0
2, 15077, Note_on_c, 0, 50, 45
2, 15078, Note_on_c, 0, 60, 44
2, 15080, Note_on_c, 0, 57, 47
2, 15094, Control_c, 0, 64, 0
2, 15122, Control_c, 0, 64, 127
2, 15157, Note_on_c, 0, 60, 0
2, 15206, Note_on_c, 0, 62, 37
2, 15206, Note_on_c, 0, 64, 32
2, 15227, Note_on_c, 0, 64, 0
2, 15289, Note_on_c, 0, 62, 0
2, 15348, Note_on_c, 0, 67, 63
2, 15348, Note_on_c, 0, 65, 61
2, 15416, Note_on_c, 0, 50, 0
2, 15442, Note_on_c, 0, 50, 42
2, 15450, Note_on_c, 0, 57, 0
2, 15459, Note_on_c, 0, 67, 0
2, 15460, Note_on_c, 0, 65, 0
2, 15471, Note_on_c, 0, 50, 0
2, 15555, Note_on_c, 0, 59, 38
2, 15555, Note_on_c, 0, 64, 37
2, 15556, Note_on_c, 0, 69, 34
2, 15558, Note_on_c, 0, 53, 36
2, 15570, Control_c, 0, 64, 0
2, 15612, Control_c, 0, 64, 127
2, 15659, Note_on_c, 0, 43, 44
2, 15684, Note_on_c, 0, 43, 0
2, 15689, Note_on_c, 0, 59, 0
2, 15699, Note_on_c, 0, 53, 0
2, 15712, Note_on_c, 0, 69, 0
2, 15715, Note_on_c, 0, 64, 0
2, 15778, Control_c, 0, 64, 0
2, 15780, Note_on_c, 0, 44, 60
2, 15804, Control_c, 0, 64, 127
2, 15824, Note_on_c, 0, 44, 0
2, 15904, Note_on_c, 0, 71, 60
2, 15906, Note_on_c, 0, 62, 51
2, 15907, Note_on_c, 0, 56, 46
2, 15907, Note_on_c, 0, 68, 42
2, 15910, Note_on_c, 0, 65, 47
2, 15915, Control_c, 0, 64, 0
2, 15935, Control_c, 0, 64, 127
2, 15956, Note_on_c, 0, 56, 0
2, 15958, Note_on_c, 0, 62, 0
2, 15961, Note_on_c, 0, 65, 0
2, 15964, Note_on_c, 0, 71, 0
2, 15973, Note_on_c, 0, 68, 0
2, 16031, Control_c, 0, 64, 0
2, 16031, Note_on_c, 0, 72, 49
2, 16032, Note_on_c, 0, 64, 50
2, 16033, Note_on_c, 0, 60, 47
2, 16034, Note_on_c, 0, 45, 42
2, 16038, Note_on_c, 0, 55, 32
2, 16061, Control_c, 0, 64, 127
2, 16064, Note_on_c, 0, 60, 0
2, 16068, Note_on_c, 0, 64, 0
2, 16079, Note_on_c, 0, 72, 0
2, 16080, Note_on_c, 0, 45, 0
2, 16090, Note_on_c, 0, 55, 0
2, 16152, Note_on_c, 0, 84, 80
2, 16153, Note_on_c, 0, 79, 66
2, 16154, Note_on_c, 0, 72, 60
2, 16156, Note_on_c, 0, 64, 42
2, 16156, Note_on_c, 0, 60, 53
2, 16203, Note_on_c, 0, 79, 0
2, 16209, Note_on_c, 0, 84, 0
2, 16223, Note_on_c, 0, 64, 0
2, 16228, Note_on_c, 0, 72, 0
2, 16259, Note_on_c, 0, 60, 0
2, 16276, Note_on_c, 0, 83, 49
2, 16277, Note_on_c, 0, 56, 33
2, 16277, Note_on_c, 0, 64, 33
2, 16278, Note_on_c, 0, 71, 53
2, 16278, Note_on_c, 0, 60, 37
2, 16280, Note_on_c, 0, 76, 44
2, 16284, Control_c, 0, 64, 0
2, 16308, Control_c, 0, 64, 127
2, 16328, Note_on_c, 0, 71, 0
2, 16331, Note_on_c, 0, 76, 0
2, 16334, Note_on_c, 0, 83, 0
2, 16343, Note_on_c, 0, 64, 0
2, 16400, Note_on_c, 0, 86, 61
2, 16400, Note_on_c, 0, 74, 40
2, 16403, Note_on_c, 0, 64, 24
2, 16416, Note_on_c, 0, 64, 0
2, 16419, Note_on_c, 0, 60, 0
2, 16434, Note_on_c, 0, 56, 0
2, 16450, Note_on_c, 0, 86, 0
2, 16466, Note_on_c, 0, 74, 0
2, 16532, Note_on_c, 0, 84, 47
2, 16535, Note_on_c, 0, 45, 32
2, 16535, Note_on_c, 0, 72, 29
2, 16539, Note_on_c, 0, 55, 22
2, 16540, Control_c, 0, 64, 0
2, 16560, Control_c, 0, 64, 127
2, 16610, Note_on_c, 0, 55, 0
2, 16655, Note_on_c, 0, 52, 36
2, 16693, Note_on_c, 0, 52, 0
2, 16705, Note_on_c, 0, 45, 0
2, 16715, Note_on_c, 0, 72, 0
2, 16759, Note_on_c, 0, 84, 0
2, 16768, Note_on_c, 0, 72, 32
2, 16815, Note_on_c, 0, 72, 0
2, 16914, Note_on_c, 0, 43, 34
2, 16916, Note_on_c, 0, 74, 53
2, 16917, Note_on_c, 0, 83, 47
2, 16939, Control_c, 0, 64, 0
2, 16962, Control_c, 0, 64, 127
2, 16969, Note_on_c, 0, 43, 0
2, 16986, Note_on_c, 0, 74, 0
2, 16997, Note_on_c, 0, 83, 0
2, 17066, Note_on_c, 0, 41, 31
2, 17068, Note_on_c, 0, 83, 36
2, 17071, Note_on_c, 0, 71, 28
2, 17073, Note_on_c, 0, 76, 40
2, 17078, Control_c, 0, 64, 0
2, 17124, Control_c, 0, 64, 127
2, 17167, Note_on_c, 0, 71, 0
2, 17171, Note_on_c, 0, 48, 32
2, 17182, Note_on_c, 0, 76, 0
2, 17183, Note_on_c, 0, 83, 0
2, 17237, Note_on_c, 0, 41, 0
2, 17241, Note_on_c, 0, 48, 0
2, 17255, Note_on_c, 0, 69, 38
2, 17279, Note_on_c, 0, 69, 0
2, 17331, Note_on_c, 0, 81, 61
2, 17333, Note_on_c, 0, 60, 39
2, 17350, Note_on_c, 0, 60, 0
2, 17356, Note_on_c, 0, 81, 0
2, 17420, Note_on_c, 0, 79, 43
2, 17425, Note_on_c, 0, 45, 39
2, 17431, Control_c, 0, 64, 0
2, 17466, Note_on_c, 0, 67, 1
2, 17469, Control_c, 0, 64, 127
2, 17498, Note_on_c, 0, 45, 0
2, 17500, Note_on_c, 0, 57, 43
2, 17522, Note_on_c, 0, 57, 0
2, 17553, Note_on_c, 0, 67, 0
2, 17561, Note_on_c, 0, 79, 0
2, 17576, Note_on_c, 0, 60, 35
2, 17645, Note_on_c, 0, 64, 33
2, 17651, Note_on_c, 0, 67, 50
2, 17651, Note_on_c, 0, 76, 48
2, 17656, Note_on_c, 0, 72, 31
2, 17659, Note_on_c, 0, 64, 0
2, 17666, Note_on_c, 0, 60, 0
2, 17672, Note_on_c, 0, 67, 0
2, 17676, Note_on_c, 0, 72, 0
2, 17685, Note_on_c, 0, 76, 0
2, 17741, Note_on_c, 0, 44, 37
2, 17742, Note_on_c, 0, 74, 46
2, 17743, Note_on_c, 0, 65, 34
2, 17743, Note_on_c, 0, 70, 38
2, 17748, Control_c, 0, 64, 0
2, 17792, Control_c, 0, 64, 127
2, 17818, Note_on_c, 0, 54, 30
2, 17829, Note_on_c, 0, 44, 0
2, 17841, Note_on_c, 0, 54, 0
2, 17877, Note_on_c, 0, 65, 0
2, 17899, Note_on_c, 0, 70, 0
2, 17903, Note_on_c, 0, 60, 37
2, 17973, Note_on_c, 0, 74, 0
2, 17983, Note_on_c, 0, 65, 36
2, 17983, Note_on_c, 0, 70, 35
2, 17991, Note_on_c, 0, 65, 0
2, 17996, Note_on_c, 0, 70, 0
2, 18070, Note_on_c, 0, 86, 64
2, 18072, Note_on_c, 0, 77, 41
2, 18072, Note_on_c, 0, 65, 44
2, 18097, Note_on_c, 0, 60, 0
2, 18101, Note_on_c, 0, 86, 0
2, 18110, Note_on_c, 0, 77, 0
2, 18153, Note_on_c, 0, 65, 0
2, 18158, Note_on_c, 0, 60, 36
2, 18198, Note_on_c, 0, 60, 0
2, 18246, Note_on_c, 0, 77, 34
2, 18247, Note_on_c, 0, 70, 36
2, 18250, Note_on_c, 0, 65, 38
2, 18252, Note_on_c, 0, 60, 34
2, 18263, Note_on_c, 0, 60, 0
2, 18268, Note_on_c, 0, 77, 0
2, 18273, Note_on_c, 0, 70, 0
2, 18276, Note_on_c, 0, 65, 0
2, 18347, Note_on_c, 0, 46, 36
2, 18349, Note_on_c, 0, 62, 48
2, 18353, Note_on_c, 0, 58, 31
2, 18365, Note_on_c, 0, 53, 6
2, 18375, Note_on_c, 0, 46, 0
2, 18421, Note_on_c, 0, 53, 0
2, 18426, Note_on_c, 0, 58, 0
2, 18431, Note_on_c, 0, 62, 0
2, 18464, Note_on_c, 0, 62, 39
2, 18464, Note_on_c, 0, 53, 40
2, 18465, Note_on_c, 0, 60, 52
2, 18466, Note_on_c, 0, 43, 38
2, 18468, Note_on_c, 0, 57, 43
2, 18469, Note_on_c, 0, 31, 32
2, 18472, Control_c, 0, 64, 0
2, 18536, Control_c, 0, 64, 127
2, 18570, Note_on_c, 0, 31, 0
2, 18586, Note_on_c, 0, 31, 66
2, 18634, Note_on_c, 0, 57, 0
2, 18636, Note_on_c, 0, 53, 0
2, 18644, Note_on_c, 0, 43, 0
2, 18651, Note_on_c, 0, 62, 0
2, 18653, Note_on_c, 0, 60, 0
2, 18706, Note_on_c, 0, 43, 39
2, 18707, Note_on_c, 0, 62, 47
2, 18709, Note_on_c, 0, 57, 47
2, 18710, Note_on_c, 0, 53, 27
2, 18712, Note_on_c, 0, 60, 35
2, 18731, Note_on_c, 0, 53, 0
2, 18736, Note_on_c, 0, 57, 0
2, 18737, Note_on_c, 0, 60, 0
2, 18738, Note_on_c, 0, 62, 0
2, 18772, Note_on_c, 0, 31, 0
2, 18793, Note_on_c, 0, 43, 0
2, 18821, Note_on_c, 0, 67, 82
2, 18916, Note_on_c, 0, 67, 0
2, 18944, Note_on_c, 0, 63, 59
2, 18944, Note_on_c, 0, 67, 66
2, 18946, Note_on_c, 0, 59, 62
2, 18949, Note_on_c, 0, 53, 48
2, 18951, Control_c, 0, 64, 0
2, 18952, Note_on_c, 0, 43, 40
2, 18959, Note_on_c, 0, 63, 0
2, 18962, Note_on_c, 0, 64, 51
2, 19005, Control_c, 0, 64, 127
2, 19075, Note_on_c, 0, 63, 56
2, 19080, Note_on_c, 0, 64, 0
2, 19080, Note_on_c, 0, 65, 1
2, 19138, Note_on_c, 0, 53, 0
2, 19174, Note_on_c, 0, 63, 0
2, 19180, Note_on_c, 0, 59, 0
2, 19193, Note_on_c, 0, 65, 0
2, 19202, Note_on_c, 0, 67, 0
2, 19205, Note_on_c, 0, 62, 57
2, 19206, Note_on_c, 0, 59, 42
2, 19210, Note_on_c, 0, 53, 39
2, 19224, Control_c, 0, 64, 0
2, 19256, Control_c, 0, 64, 127
2, 19308, Note_on_c, 0, 53, 0
2, 19326, Note_on_c, 0, 43, 0
2, 19327, Note_on_c, 0, 67, 66
2, 19353, Note_on_c, 0, 59, 0
2, 19371, Note_on_c, 0, 62, 0
2, 19375, Note_on_c, 0, 67, 0
2, 19497, Note_on_c, 0, 76, 74
2, 19499, Note_on_c, 0, 64, 62
2, 19501, Note_on_c, 0, 24, 48
2, 19501, Note_on_c, 0, 36, 48
2, 19503, Control_c, 0, 64, 0
2, 19541, Control_c, 0, 64, 127
2, 19552, Note_on_c, 0, 24, 0
2, 19555, Note_on_c, 0, 64, 0
2, 19563, Note_on_c, 0, 36, 0
2, 19576, Note_on_c, 0, 76, 0
2, 19680, Note_on_c, 0, 88, 68
2, 19683, Note_on_c, 0, 76, 45
2, 19749, Note_on_c, 0, 88, 0
2, 19754, Note_on_c, 0, 76, 0
2, 19830, Note_on_c, 0, 88, 41
2, 19831, Note_on_c, 0, 64, 24
2, 19833, Note_on_c, 0, 58, 30
2, 19837, Note_on_c, 0, 76, 30
2, 19936, Note_on_c, 0, 88, 0
2, 19955, Note_on_c, 0, 76, 0
2, 19982, Note_on_c, 0, 88, 36
2, 20004, Note_on_c, 0, 64, 0
2, 20031, Note_on_c, 0, 58, 0
2, 20047, Note_on_c, 0, 88, 0
2, 20143, Note_on_c, 0, 88, 34
2, 20151, Note_on_c, 0, 82, 27
2, 20151, Note_on_c, 0, 76, 28
2, 20155, Note_on_c, 0, 64, 16
2, 20155, Note_on_c, 0, 58, 21
2, 20261, Note_on_c, 0, 88, 0
2, 20279, Note_on_c, 0, 82, 0
2, 20295, Note_on_c, 0, 76, 0
2, 20325, Note_on_c, 0, 64, 0
2, 20344, Note_on_c, 0, 58, 0
2, 20440, Note_on_c, 0, 74, 62
2, 20445, Note_on_c, 0, 68, 50
2, 20446, Note_on_c, 0, 58, 46
2, 20446, Note_on_c, 0, 64, 46
2, 20457, Control_c, 0, 64, 0
2, 20474, Control_c, 0, 64, 127
2, 20543, Note_on_c, 0, 64, 0
2, 20543, Note_on_c, 0, 68, 0
2, 20545, Note_on_c, 0, 74, 0
2, 20599, Note_on_c, 0, 74, 54
2, 20601, Note_on_c, 0, 64, 45
2, 20604, Control_c, 0, 64, 0
2, 20604, Note_on_c, 0, 69, 53
2, 20605, Note_on_c, 0, 58, 0
2, 20606, Note_on_c, 0, 57, 41
2, 20634, Control_c, 0, 64, 127
2, 20658, Note_on_c, 0, 57, 0
2, 20665, Note_on_c, 0, 74, 0
2, 20666, Note_on_c, 0, 69, 0
2, 20675, Note_on_c, 0, 64, 0
2, 20733, Note_on_c, 0, 72, 36
2, 20735, Note_on_c, 0, 41, 37
2, 20735, Note_on_c, 0, 60, 60
2, 20742, Control_c, 0, 64, 0
2, 20758, Control_c, 0, 64, 127
2, 20780, Note_on_c, 0, 41, 0
2, 20780, Note_on_c, 0, 72, 0
2, 20793, Note_on_c, 0, 60, 0
2, 21093, Note_on_c, 0, 42, 30
2, 21095, Note_on_c, 0, 69, 27
2, 21096, Note_on_c, 0, 63, 31
2, 21096, Note_on_c, 0, 57, 28
2, 21097, Note_on_c, 0, 54, 20
2, 21098, Note_on_c, 0, 66, 29
2, 21107, Control_c, 0, 64, 0
2, 21145, Control_c, 0, 64, 127
2, 21194, Note_on_c, 0, 57, 0
2, 21195, Note_on_c, 0, 42, 0
2, 21211, Note_on_c, 0, 54, 0
2, 21211, Note_on_c, 0, 69, 0
2, 21221, Note_on_c, 0, 66, 0
2, 21223, Note_on_c, 0, 63, 0
2, 21322, Note_on_c, 0, 63, 31
2, 21322, Note_on_c, 0, 66, 35
2, 21323, Note_on_c, 0, 72, 33
2, 21324, Note_on_c, 0, 69, 38
2, 21346, Note_on_c, 0, 57, 2
2, 21365, Note_on_c, 0, 57, 0
2, 21377, Note_on_c, 0, 69, 0
2, 21379, Note_on_c, 0, 72, 0
2, 21392, Note_on_c, 0, 63, 0
2, 21399, Note_on_c, 0, 66, 0
2, 21471, Note_on_c, 0, 67, 49
2, 21474, Note_on_c, 0, 64, 40
2, 21474, Note_on_c, 0, 60, 32
2, 21475, Note_on_c, 0, 43, 30
2, 21476, Note_on_c, 0, 52, 31
2, 21482, Control_c, 0, 64, 0
2, 21510, Control_c, 0, 64, 127
2, 21520, Note_on_c, 0, 67, 0
2, 21526, Note_on_c, 0, 64, 0
2, 21533, Note_on_c, 0, 43, 0
2, 21537, Note_on_c, 0, 52, 0
2, 21539, Note_on_c, 0, 60, 0
2, 21717, Note_on_c, 0, 44, 33
2, 21717, Note_on_c, 0, 53, 32
2, 21719, Note_on_c, 0, 64, 33
2, 21721, Note_on_c, 0, 56, 25
2, 21722, Note_on_c, 0, 59, 40
2, 21725, Control_c, 0, 64, 0
2, 21761, Control_c, 0, 64, 127
2, 21799, Note_on_c, 0, 44, 0
2, 21805, Note_on_c, 0, 53, 0
2, 21821, Note_on_c, 0, 59, 0
2, 21828, Note_on_c, 0, 56, 0
2, 21861, Note_on_c, 0, 64, 0
2, 21957, Note_on_c, 0, 60, 39
2, 21960, Note_on_c, 0, 55, 33
2, 21960, Note_on_c, 0, 57, 40
2, 21964, Note_on_c, 0, 45, 22
2, 21966, Note_on_c, 0, 52, 22
2, 21968, Control_c, 0, 64, 0
2, 22010, Control_c, 0, 64, 127
2, 22211, Note_on_c, 0, 60, 0
2, 22228, Note_on_c, 0, 55, 0
2, 22248, Note_on_c, 0, 57, 0
2, 22281, Note_on_c, 0, 60, 35
2, 22321, Note_on_c, 0, 45, 0
2, 22346, Note_on_c, 0, 52, 0
2, 22372, Note_on_c, 0, 60, 0
2, 22529, Note_on_c, 0, 54, 27
2, 22533, Note_on_c, 0, 44, 29
2, 22534, Note_on_c, 0, 60, 28
2, 22545, Control_c, 0, 64, 0
2, 22599, Control_c, 0, 64, 127
2, 22720, Note_on_c, 0, 60, 0
2, 22751, Note_on_c, 0, 44, 0
2, 22762, Note_on_c, 0, 54, 0
2, 22890, Note_on_c, 0, 71, 53
2, 22891, Note_on_c, 0, 83, 49
2, 22892, Note_on_c, 0, 59, 34
2, 22934, Note_on_c, 0, 71, 0
2, 22940, Note_on_c, 0, 83, 0
2, 22963, Note_on_c, 0, 59, 0
2, 22969, Note_on_c, 0, 72, 60
2, 22970, Note_on_c, 0, 84, 69
2, 22972, Note_on_c, 0, 60, 47
2, 23007, Note_on_c, 0, 84, 0
2, 23009, Note_on_c, 0, 72, 0
2, 23036, Note_on_c, 0, 60, 0
2, 23051, Note_on_c, 0, 86, 75
2, 23051, Note_on_c, 0, 74, 60
2, 23052, Note_on_c, 0, 62, 44
2, 23100, Note_on_c, 0, 74, 0
2, 23102, Note_on_c, 0, 86, 0
2, 23137, Note_on_c, 0, 62, 0
2, 23151, Note_on_c, 0, 64, 46
2, 23151, Note_on_c, 0, 76, 64
2, 23152, Note_on_c, 0, 88, 66
2, 23155, Control_c, 0, 64, 0
2, 23179, Control_c, 0, 64, 127
2, 23232, Note_on_c, 0, 88, 0
2, 23239, Note_on_c, 0, 64, 0
2, 23254, Note_on_c, 0, 76, 0
2, 23517, Note_on_c, 0, 40, 40
2, 23518, Control_c, 0, 64, 0
2, 23519, Note_on_c, 0, 66, 43
2, 23519, Note_on_c, 0, 47, 34
2, 23519, Note_on_c, 0, 69, 41
2, 23520, Note_on_c, 0, 62, 47
2, 23520, Note_on_c, 0, 57, 36
2, 23548, Control_c, 0, 64, 127
2, 23557, Note_on_c, 0, 40, 0
2, 23563, Note_on_c, 0, 47, 0
2, 23582, Note_on_c, 0, 57, 0
2, 23596, Note_on_c, 0, 66, 0
2, 23598, Note_on_c, 0, 69, 0
2, 23600, Note_on_c, 0, 62, 0
2, 23655, Note_on_c, 0, 58, 33
2, 23659, Note_on_c, 0, 67, 48
2, 23659, Note_on_c, 0, 61, 37
2, 23660, Note_on_c, 0, 64, 46
2, 23662, Note_on_c, 0, 55, 33
2, 23664, Note_on_c, 0, 45, 32
2, 23666, Control_c, 0, 64, 0
2, 23711, Control_c, 0, 64, 127
2, 23726, Note_on_c, 0, 67, 0
2, 23734, Note_on_c, 0, 64, 0
2, 23740, Note_on_c, 0, 55, 0
2, 23741, Note_on_c, 0, 58, 0
2, 23744, Note_on_c, 0, 61, 0
2, 23796, Note_on_c, 0, 45, 0
2, 23805, Note_on_c, 0, 64, 45
2, 23805, Note_on_c, 0, 55, 57
2, 23807, Note_on_c, 0, 58, 42
2, 23807, Note_on_c, 0, 61, 36
2, 23811, Note_on_c, 0, 49, 34
2, 23817, Control_c, 0, 64, 0
2, 23857, Control_c, 0, 64, 127
2, 23890, Note_on_c, 0, 64, 0
2, 23892, Note_on_c, 0, 55, 0
2, 23896, Note_on_c, 0, 49, 0
2, 23909, Note_on_c, 0, 61, 0
2, 23920, Note_on_c, 0, 58, 0
2, 23966, Note_on_c, 0, 54, 42
2, 23966, Note_on_c, 0, 50, 45
2, 23969, Note_on_c, 0, 62, 44
2, 23972, Note_on_c, 0, 57, 37
2, 23974, Note_on_c, 0, 60, 45
2, 23975, Control_c, 0, 64, 0
2, 24021, Control_c, 0, 64, 127
2, 24120, Note_on_c, 0, 57, 0
2, 24127, Note_on_c, 0, 60, 0
2, 24145, Note_on_c, 0, 50, 0
2, 24146, Note_on_c, 0, 54, 0
2, 24176, Note_on_c, 0, 62, 0
2, 24205, Note_on_c, 0, 54, 43
2, 24208, Note_on_c, 0, 56, 44
2, 24209, Note_on_c, 0, 60, 55
2, 24211, Note_on_c, 0, 50, 34
2, 24218, Control_c, 0, 64, 0
2, 24264, Control_c, 0, 64, 127
2, 24286, Note_on_c, 0, 50, 0
2, 24357, Note_on_c, 0, 54, 0
2, 24365, Note_on_c, 0, 56, 0
2, 24367, Note_on_c, 0, 60, 0
2, 24451, Note_on_c, 0, 53, 34
2, 24453, Note_on_c, 0, 57, 36
2, 24454, Note_on_c, 0, 43, 33
2, 24459, Note_on_c, 0, 31, 36
2, 24463, Control_c, 0, 64, 0
2, 24527, Control_c, 0, 64, 127
2, 24648, Note_on_c, 0, 43, 0
2, 24655, Note_on_c, 0, 53, 0
2, 24667, Note_on_c, 0, 57, 0
2, 24778, Note_on_c, 0, 56, 29
2, 24779, Note_on_c, 0, 59, 37
2, 24780, Note_on_c, 0, 43, 28
2, 24780, Note_on_c, 0, 53, 24
2, 24790, Control_c, 0, 64, 0
2, 24832, Control_c, 0, 64, 127
2, 24944, Note_on_c, 0, 31, 0
2, 24974, Note_on_c, 0, 43, 0
2, 25076, Note_on_c, 0, 53, 0
2, 25090, Note_on_c, 0, 59, 0
2, 25101, Note_on_c, 0, 56, 0
2, 25492, Note_on_c, 0, 60, 49
2, 25495, Note_on_c, 0, 53, 26
2, 25497, Note_on_c, 0, 44, 31
2, 25502, Control_c, 0, 64, 0
2, 25536, Control_c, 0, 64, 127
2, 25558, Note_on_c, 0, 53, 0
2, 25576, Note_on_c, 0, 60, 0
2, 25582, Note_on_c, 0, 51, 36
2, 25655, Note_on_c, 0, 44, 0
2, 25658, Note_on_c, 0, 51, 0
2, 25658, Note_on_c, 0, 65, 34
2, 25660, Note_on_c, 0, 60, 27
2, 25661, Note_on_c, 0, 55, 44
2, 25705, Note_on_c, 0, 55, 0
2, 25714, Note_on_c, 0, 60, 0
2, 25732, Note_on_c, 0, 65, 0
2, 25734, Note_on_c, 0, 72, 44
2, 25752, Note_on_c, 0, 72, 0
2, 25753, Note_on_c, 0, 60, 24
2, 25809, Note_on_c, 0, 77, 53
2, 25812, Note_on_c, 0, 65, 29
2, 25845, Note_on_c, 0, 65, 0
2, 25861, Note_on_c, 0, 60, 0
2, 25873, Note_on_c, 0, 84, 67
2, 25921, Note_on_c, 0, 77, 0
2, 25924, Note_on_c, 0, 84, 0
2, 25936, Note_on_c, 0, 74, 35
2, 25938, Note_on_c, 0, 46, 37
2, 25941, Note_on_c, 0, 81, 48
2, 25942, Note_on_c, 0, 77, 22
2, 25947, Control_c, 0, 64, 0
2, 25981, Control_c, 0, 64, 127
2, 26008, Note_on_c, 0, 53, 29
2, 26017, Note_on_c, 0, 46, 0
2, 26019, Note_on_c, 0, 53, 0
2, 26065, Note_on_c, 0, 74, 0
2, 26087, Note_on_c, 0, 60, 28
2, 26089, Note_on_c, 0, 77, 0
2, 26096, Note_on_c, 0, 81, 0
2, 26159, Note_on_c, 0, 86, 48
2, 26163, Note_on_c, 0, 93, 48
2, 26163, Note_on_c, 0, 62, 33
2, 26237, Note_on_c, 0, 93, 0
2, 26247, Note_on_c, 0, 89, 27
2, 26253, Note_on_c, 0, 65, 33
2, 26253, Note_on_c, 0, 81, 24
2, 26316, Note_on_c, 0, 81, 0
2, 26319, Note_on_c, 0, 86, 0
2, 26322, Note_on_c, 0, 89, 0
2, 26329, Note_on_c, 0, 65, 0
2, 26341, Note_on_c, 0, 62, 0
2, 26345, Note_on_c, 0, 60, 0
2, 26353, Note_on_c, 0, 96, 40
2, 26397, Note_on_c, 0, 96, 0
2, 26574, Note_on_c, 0, 43, 28
2, 26577, Note_on_c, 0, 95, 29
2, 26578, Note_on_c, 0, 36, 24
2, 26581, Note_on_c, 0, 83, 24
2, 26581, Note_on_c, 0, 52, 36
2, 26583, Note_on_c, 0, 88, 32
2, 26589, Control_c, 0, 64, 0
2, 26639, Control_c, 0, 64, 127
2, 26669, Note_on_c, 0, 95, 0
2, 26682, Note_on_c, 0, 88, 0
2, 26695, Note_on_c, 0, 43, 0
2, 26699, Note_on_c, 0, 83, 0
2, 26739, Note_on_c, 0, 36, 0
2, 26769, Note_on_c, 0, 52, 0
2, 26874, Note_on_c, 0, 71, 60
2, 26877, Note_on_c, 0, 62, 43
2, 26878, Note_on_c, 0, 68, 37
2, 26879, Note_on_c, 0, 56, 33
2, 26879, Note_on_c, 0, 65, 43
2, 26886, Control_c, 0, 64, 0
2, 26908, Control_c, 0, 64, 127
2, 26940, Note_on_c, 0, 71, 0
2, 26945, Note_on_c, 0, 65, 0
2, 26950, Note_on_c, 0, 62, 0
2, 26954, Note_on_c, 0, 68, 0
2, 26972, Note_on_c, 0, 72, 53
2, 26974, Note_on_c, 0, 56, 0
2, 26975, Note_on_c, 0, 62, 43
2, 26975, Note_on_c, 0, 65, 52
2, 26978, Note_on_c, 0, 57, 51
2, 26982, Control_c, 0, 64, 0
2, 27006, Control_c, 0, 64, 127
2, 27039, Note_on_c, 0, 62, 0
2, 27040, Note_on_c, 0, 65, 0
2, 27052, Note_on_c, 0, 72, 0
2, 27130, Note_on_c, 0, 57, 0
2, 27240, Note_on_c, 0, 74, 35
2, 27265, Note_on_c, 0, 74, 0
2, 27302, Note_on_c, 0, 43, 24
2, 27304, Note_on_c, 0, 36, 25
2, 27305, Control_c, 0, 64, 0
2, 27305, Note_on_c, 0, 52, 36
2, 27306, Note_on_c, 0, 76, 40
2, 27335, Control_c, 0, 64, 127
2, 27340, Note_on_c, 0, 36, 0
2, 27347, Note_on_c, 0, 43, 0
2, 27369, Note_on_c, 0, 52, 0
2, 27489, Note_on_c, 0, 64, 15
2, 27490, Note_on_c, 0, 59, 37
2, 27490, Note_on_c, 0, 60, 36
2, 27639, Note_on_c, 0, 59, 0
2, 27640, Note_on_c, 0, 60, 0
2, 27646, Note_on_c, 0, 64, 0
2, 27775, Note_on_c, 0, 76, 0
2, 27776, Note_on_c, 0, 64, 33
2, 27782, Note_on_c, 0, 59, 33
2, 27782, Note_on_c, 0, 60, 30
2, 27851, Note_on_c, 0, 64, 0
2, 27874, Note_on_c, 0, 60, 0
2, 27883, Note_on_c, 0, 59, 0
2, 27899, Note_on_c, 0, 74, 64
2, 27937, Note_on_c, 0, 74, 0
2, 28007, Note_on_c, 0, 76, 36
2, 28007, Note_on_c, 0, 70, 35
2, 28007, Note_on_c, 0, 48, 29
2, 28007, Note_on_c, 0, 64, 34
2, 28011, Control_c, 0, 64, 0
2, 28011, Note_on_c, 0, 58, 18
2, 28037, Control_c, 0, 64, 127
2, 28055, Note_on_c, 0, 64, 0
2, 28056, Note_on_c, 0, 48, 0
2, 28074, Note_on_c, 0, 70, 0
2, 28076, Note_on_c, 0, 76, 0
2, 28079, Note_on_c, 0, 58, 0
2, 28175, Note_on_c, 0, 81, 52
2, 28179, Note_on_c, 0, 64, 36
2, 28180, Note_on_c, 0, 74, 40
2, 28182, Note_on_c, 0, 77, 36
2, 28183, Note_on_c, 0, 69, 31
2, 28256, Note_on_c, 0, 64, 0
2, 28258, Note_on_c, 0, 81, 0
2, 28271, Note_on_c, 0, 69, 0
2, 28271, Note_on_c, 0, 74, 0
2, 28275, Note_on_c, 0, 77, 0
2, 28352, Note_on_c, 0, 79, 40
2, 28355, Note_on_c, 0, 67, 36
2, 28357, Note_on_c, 0, 64, 26
2, 28358, Note_on_c, 0, 58, 33
2, 28358, Note_on_c, 0, 76, 37
2, 28359, Note_on_c, 0, 72, 26
2, 28362, Control_c, 0, 64, 0
2, 28386, Control_c, 0, 64, 127
2, 28415, Note_on_c, 0, 79, 0
2, 28422, Note_on_c, 0, 76, 0
2, 28430, Note_on_c, 0, 72, 0
2, 28437, Note_on_c, 0, 64, 0
2, 28438, Note_on_c, 0, 67, 0
2, 28460, Note_on_c, 0, 58, 0
2, 28532, Note_on_c, 0, 68, 34
2, 28534, Note_on_c, 0, 76, 30
2, 28535, Note_on_c, 0, 64, 34
2, 28535, Note_on_c, 0, 72, 31
2, 28540, Note_on_c, 0, 58, 25
2, 28624, Note_on_c, 0, 76, 0
2, 28631, Note_on_c, 0, 72, 0
2, 28635, Note_on_c, 0, 58, 0
2, 28639, Note_on_c, 0, 64, 0
2, 28648, Note_on_c, 0, 68, 0
2, 28711, Control_c, 0, 64, 0
2, 28713, Note_on_c, 0, 57, 29
2, 28713, Note_on_c, 0, 74, 31
2, 28714, Note_on_c, 0, 69, 37
2, 28716, Note_on_c, 0, 64, 24
2, 28737, Control_c, 0, 64, 127
2, 28743, Note_on_c, 0, 57, 0
2, 28752, Note_on_c, 0, 74, 0
2, 28752, Note_on_c, 0, 69, 0
2, 28767, Note_on_c, 0, 64, 0
2, 28813, Note_on_c, 0, 72, 34
2, 28836, Note_on_c, 0, 72, 0
2, 28893, Note_on_c, 0, 48, 24
2, 28899, Note_on_c, 0, 69, 36
2, 28900, Note_on_c, 0, 41, 24
2, 28901, Note_on_c, 0, 60, 32
2, 28902, Control_c, 0, 64, 0
2, 28902, Note_on_c, 0, 57, 29
2, 28902, Note_on_c, 0, 65, 34
2, 28940, Control_c, 0, 64, 127
2, 28974, Note_on_c, 0, 65, 0
2, 28977, Note_on_c, 0, 69, 0
2, 28987, Note_on_c, 0, 57, 0
2, 28990, Note_on_c, 0, 60, 0
2, 29084, Note_on_c, 0, 62, 30
2, 29086, Note_on_c, 0, 65, 29
2, 29086, Note_on_c, 0, 60, 32
2, 29088, Note_on_c, 0, 41, 0
2, 29089, Note_on_c, 0, 57, 17
2, 29175, Note_on_c, 0, 41, 62
2, 29182, Note_on_c, 0, 48, 0
2, 29210, Note_on_c, 0, 57, 0
2, 29218, Note_on_c, 0, 60, 0
2, 29242, Note_on_c, 0, 41, 0
2, 29266, Note_on_c, 0, 60, 40
2, 29266, Note_on_c, 0, 57, 30
2, 29316, Note_on_c, 0, 62, 0
2, 29336, Note_on_c, 0, 60, 0
2, 29355, Note_on_c, 0, 28, 48
2, 29357, Note_on_c, 0, 57, 0
2, 29359, Note_on_c, 0, 65, 0
2, 29380, Note_on_c, 0, 28, 0
2, 29451, Control_c, 0, 64, 0
2, 29452, Note_on_c, 0, 60, 50
2, 29452, Note_on_c, 0, 38, 37
2, 29453, Note_on_c, 0, 53, 35
2, 29453, Note_on_c, 0, 26, 36
2, 29454, Note_on_c, 0, 57, 46
2, 29489, Control_c, 0, 64, 127
2, 29511, Note_on_c, 0, 26, 0
2, 29524, Note_on_c, 0, 38, 0
2, 29558, Note_on_c, 0, 53, 0
2, 29568, Note_on_c, 0, 60, 0
2, 29573, Note_on_c, 0, 57, 0
2, 29640, Note_on_c, 0, 53, 54
2, 29640, Note_on_c, 0, 60, 62
2, 29640, Note_on_c, 0, 48, 42
2, 29641, Note_on_c, 0, 57, 55
2, 29654, Control_c, 0, 64, 0
2, 29678, Control_c, 0, 64, 127
2, 29743, Note_on_c, 0, 43, 76
2, 29745, Note_on_c, 0, 48, 0
2, 29765, Note_on_c, 0, 53, 0
2, 29792, Note_on_c, 0, 57, 0
2, 29795, Note_on_c, 0, 60, 0
2, 29836, Note_on_c, 0, 64, 67
2, 29836, Note_on_c, 0, 59, 68
2, 29837, Note_on_c, 0, 56, 67
2, 29839, Note_on_c, 0, 53, 61
2, 29842, Control_c, 0, 64, 0
2, 29880, Control_c, 0, 64, 127
2, 29932, Note_on_c, 0, 59, 0
2, 29939, Note_on_c, 0, 56, 0
2, 29939, Note_on_c, 0, 64, 0
2, 29957, Note_on_c, 0, 53, 0
2, 30140, Note_on_c, 0, 56, 51
2, 30140, Note_on_c, 0, 65, 56
2, 30143, Note_on_c, 0, 43, 0
2, 30146, Note_on_c, 0, 59, 47
2, 30152, Note_on_c, 0, 62, 22
2, 30158, Note_on_c, 0, 59, 0
2, 30159, Note_on_c, 0, 56, 0
2, 30161, Note_on_c, 0, 62, 0
2, 30168, Note_on_c, 0, 65, 0
2, 30246, Control_c, 0, 64, 0
2, 30247, Note_on_c, 0, 67, 50
2, 30249, Note_on_c, 0, 40, 55
2, 30250, Note_on_c, 0, 55, 48
2, 30252, Note_on_c, 0, 60, 49
2, 30261, Note_on_c, 0, 64, 26
2, 30276, Note_on_c, 0, 55, 0
2, 30280, Control_c, 0, 64, 127
2, 30288, Note_on_c, 0, 40, 0
2, 30290, Note_on_c, 0, 60, 0
2, 30298, Note_on_c, 0, 64, 0
2, 30305, Note_on_c, 0, 67, 0
2, 30456, Note_on_c, 0, 67, 40
2, 30459, Note_on_c, 0, 62, 39
2, 30459, Note_on_c, 0, 72, 27
2, 30462, Note_on_c, 0, 56, 33
2, 30542, Note_on_c, 0, 72, 0
2, 30546, Note_on_c, 0, 62, 0
2, 30549, Note_on_c, 0, 67, 0
2, 30565, Note_on_c, 0, 56, 0
2, 30650, Note_on_c, 0, 62, 35
2, 30653, Note_on_c, 0, 67, 39
2, 30653, Note_on_c, 0, 56, 30
2, 30656, Note_on_c, 0, 72, 26
2, 30726, Note_on_c, 0, 56, 0
2, 30728, Note_on_c, 0, 62, 0
2, 30761, Note_on_c, 0, 62, 34
2, 30762, Note_on_c, 0, 56, 33
2, 30799, Note_on_c, 0, 67, 0
2, 30801, Note_on_c, 0, 72, 0
2, 30856, Note_on_c, 0, 62, 0
2, 30858, Note_on_c, 0, 81, 67
2, 30873, Note_on_c, 0, 56, 0
2, 30913, Note_on_c, 0, 81, 0
2, 30946, Note_on_c, 0, 81, 58
2, 30969, Note_on_c, 0, 81, 0
2, 31032, Control_c, 0, 64, 0
2, 31034, Note_on_c, 0, 45, 36
2, 31036, Note_on_c, 0, 79, 46
2, 31058, Control_c, 0, 64, 127
2, 31062, Note_on_c, 0, 45, 0
2, 31230, Note_on_c, 0, 65, 37
2, 31233, Note_on_c, 0, 60, 37
2, 31234, Note_on_c, 0, 61, 28
2, 31236, Note_on_c, 0, 55, 36
2, 31297, Note_on_c, 0, 79, 0
2, 31356, Note_on_c, 0, 76, 73
2, 31376, Note_on_c, 0, 65, 0
2, 31380, Note_on_c, 0, 60, 0
2, 31389, Note_on_c, 0, 61, 0
2, 31405, Note_on_c, 0, 55, 0
2, 31525, Note_on_c, 0, 76, 0
2, 31651, Note_on_c, 0, 61, 29
2, 31651, Note_on_c, 0, 72, 27
2, 31651, Note_on_c, 0, 64, 32
2, 31653, Note_on_c, 0, 55, 32
2, 31653, Note_on_c, 0, 69, 30
2, 31770, Note_on_c, 0, 76, 63
2, 31773, Note_on_c, 0, 55, 0
2, 31783, Note_on_c, 0, 64, 0
2, 31797, Note_on_c, 0, 61, 0
2, 31816, Note_on_c, 0, 72, 0
2, 31816, Note_on_c, 0, 76, 0
2, 31822, Note_on_c, 0, 69, 0
2, 31862, Note_on_c, 0, 70, 47
2, 31863, Note_on_c, 0, 74, 46
2, 31864, Note_on_c, 0, 65, 39
2, 31866, Note_on_c, 0, 54, 30
2, 31872, Note_on_c, 0, 60, 30
2, 31873, Control_c, 0, 64, 0
2, 31907, Control_c, 0, 64, 127
2, 31930, Note_on_c, 0, 60, 0
2, 31941, Note_on_c, 0, 54, 0
2, 31958, Note_on_c, 0, 74, 0
2, 31965, Note_on_c, 0, 70, 0
2, 31971, Note_on_c, 0, 65, 0
2, 32154, Note_on_c, 0, 44, 34
2, 32254, Note_on_c, 0, 54, 33
2, 32257, Note_on_c, 0, 65, 32
2, 32261, Note_on_c, 0, 58, 33
2, 32263, Note_on_c, 0, 60, 29
2, 32272, Control_c, 0, 64, 0
2, 32308, Control_c, 0, 64, 127
2, 32343, Note_on_c, 0, 44, 0
2, 32420, Note_on_c, 0, 65, 0
2, 32424, Note_on_c, 0, 60, 0
2, 32429, Note_on_c, 0, 54, 0
2, 32449, Note_on_c, 0, 58, 0
2, 32544, Note_on_c, 0, 31, 45
2, 32561, Control_c, 0, 64, 0
2, 32577, Control_c, 0, 64, 127
2, 32650, Note_on_c, 0, 53, 30
2, 32651, Note_on_c, 0, 57, 36
2, 32651, Note_on_c, 0, 43, 35
2, 32651, Note_on_c, 0, 62, 43
2, 32653, Note_on_c, 0, 60, 47
2, 32655, Control_c, 0, 64, 0
2, 32709, Control_c, 0, 64, 127
2, 32733, Note_on_c, 0, 31, 0
2, 32751, Note_on_c, 0, 43, 0
2, 32773, Note_on_c, 0, 60, 0
2, 32778, Note_on_c, 0, 57, 0
2, 32794, Note_on_c, 0, 53, 0
2, 32817, Note_on_c, 0, 62, 0
2, 32849, Note_on_c, 0, 43, 51
2, 32858, Note_on_c, 0, 43, 0
2, 32947, Note_on_c, 0, 71, 79
2, 32985, Note_on_c, 0, 71, 0
2, 33047, Note_on_c, 0, 72, 46
2, 33049, Note_on_c, 0, 53, 40
2, 33051, Note_on_c, 0, 69, 57
2, 33052, Note_on_c, 0, 65, 52
2, 33053, Note_on_c, 0, 62, 50
2, 33055, Note_on_c, 0, 59, 34
2, 33056, Control_c, 0, 64, 0
2, 33079, Note_on_c, 0, 59, 0
2, 33083, Note_on_c, 0, 53, 0
2, 33098, Control_c, 0, 64, 127
2, 33153, Note_on_c, 0, 43, 54
2, 33154, Note_on_c, 0, 62, 0
2, 33161, Note_on_c, 0, 43, 0
2, 33164, Note_on_c, 0, 65, 0
2, 33171, Note_on_c, 0, 69, 0
2, 33177, Note_on_c, 0, 72, 0
2, 33254, Note_on_c, 0, 74, 64
2, 33255, Note_on_c, 0, 71, 58
2, 33257, Note_on_c, 0, 68, 47
2, 33257, Note_on_c, 0, 65, 55
2, 33257, Note_on_c, 0, 59, 55
2, 33272, Control_c, 0, 64, 0
2, 33285, Control_c, 0, 64, 127
2, 33337, Note_on_c, 0, 65, 0
2, 33347, Note_on_c, 0, 59, 0
2, 33364, Note_on_c, 0, 59, 19
2, 33385, Note_on_c, 0, 74, 0
2, 33387, Note_on_c, 0, 68, 0
2, 33396, Note_on_c, 0, 71, 0
2, 33409, Note_on_c, 0, 59, 0
2, 33660, Note_on_c, 0, 48, 40
2, 33662, Note_on_c, 0, 76, 58
2, 33663, Note_on_c, 0, 68, 40
2, 33664, Control_c, 0, 64, 0
2, 33664, Note_on_c, 0, 56, 30
2, 33665, Note_on_c, 0, 71, 46
2, 33667, Note_on_c, 0, 64, 43
2, 33718, Control_c, 0, 64, 127
2, 33764, Note_on_c, 0, 59, 42
2, 33788, Note_on_c, 0, 56, 0
2, 33824, Note_on_c, 0, 59, 0
2, 33831, Note_on_c, 0, 64, 0
2, 33840, Note_on_c, 0, 68, 0
2, 33854, Note_on_c, 0, 71, 0
2, 33865, Note_on_c, 0, 64, 39
2, 33867, Note_on_c, 0, 69, 39
2, 33868, Note_on_c, 0, 57, 36
2, 33872, Control_c, 0, 64, 0
2, 33908, Control_c, 0, 64, 127
2, 33923, Note_on_c, 0, 48, 0
2, 33959, Note_on_c, 0, 76, 0
2, 33961, Note_on_c, 0, 64, 0
2, 33963, Note_on_c, 0, 48, 54
2, 33977, Note_on_c, 0, 69, 0
2, 34057, Note_on_c, 0, 74, 60
2, 34061, Note_on_c, 0, 62, 60
2, 34066, Note_on_c, 0, 48, 0
2, 34145, Note_on_c, 0, 48, 43
2, 34149, Note_on_c, 0, 62, 0
2, 34163, Note_on_c, 0, 48, 0
2, 34166, Note_on_c, 0, 74, 0
2, 34166, Note_on_c, 0, 57, 0
2, 34245, Note_on_c, 0, 76, 51
2, 34245, Note_on_c, 0, 70, 59
2, 34252, Control_c, 0, 64, 0
2, 34252, Note_on_c, 0, 58, 29
2, 34280, Control_c, 0, 64, 127
2, 34319, Note_on_c, 0, 70, 0
2, 34327, Note_on_c, 0, 76, 0
2, 34346, Note_on_c, 0, 64, 28
2, 34432, Note_on_c, 0, 81, 55
2, 34438, Note_on_c, 0, 69, 30
2, 34438, Note_on_c, 0, 74, 45
2, 34446, Note_on_c, 0, 58, 0
2, 34491, Note_on_c, 0, 81, 0
2, 34505, Note_on_c, 0, 74, 0
2, 34509, Note_on_c, 0, 69, 0
2, 34524, Note_on_c, 0, 64, 0
2, 34535, Note_on_c, 0, 58, 21
2, 34548, Note_on_c, 0, 58, 0
2, 34626, Note_on_c, 0, 79, 42
2, 34630, Note_on_c, 0, 48, 28
2, 34630, Note_on_c, 0, 58, 36
2, 34631, Control_c, 0, 64, 0
2, 34633, Note_on_c, 0, 67, 32
2, 34659, Control_c, 0, 64, 127
2, 34661, Note_on_c, 0, 72, 1
2, 34678, Note_on_c, 0, 79, 0
2, 34688, Note_on_c, 0, 72, 0
2, 34698, Note_on_c, 0, 67, 0
2, 34712, Note_on_c, 0, 58, 0
2, 34818, Note_on_c, 0, 76, 40
2, 34821, Note_on_c, 0, 73, 29
2, 34822, Note_on_c, 0, 68, 29
2, 34824, Control_c, 0, 64, 0
2, 34826, Note_on_c, 0, 58, 27
2, 34827, Note_on_c, 0, 64, 25
2, 34849, Control_c, 0, 64, 127
2, 34935, Note_on_c, 0, 73, 0
2, 34936, Note_on_c, 0, 64, 0
2, 34941, Note_on_c, 0, 76, 0
2, 34946, Note_on_c, 0, 58, 0
2, 34952, Note_on_c, 0, 68, 0
2, 35010, Note_on_c, 0, 74, 58
2, 35014, Note_on_c, 0, 64, 45
2, 35015, Note_on_c, 0, 69, 57
2, 35015, Note_on_c, 0, 58, 34
2, 35016, Control_c, 0, 64, 0
2, 35038, Control_c, 0, 64, 127
2, 35053, Note_on_c, 0, 69, 0
2, 35055, Note_on_c, 0, 74, 0
2, 35063, Note_on_c, 0, 64, 0
2, 35066, Note_on_c, 0, 58, 0
2, 35118, Note_on_c, 0, 65, 50
2, 35118, Note_on_c, 0, 57, 43
2, 35118, Note_on_c, 0, 72, 35
2, 35119, Note_on_c, 0, 69, 52
2, 35120, Note_on_c, 0, 60, 46
2, 35132, Control_c, 0, 64, 0
2, 35146, Control_c, 0, 64, 127
2, 35162, Note_on_c, 0, 60, 0
2, 35169, Note_on_c, 0, 69, 0
2, 35174, Note_on_c, 0, 65, 0
2, 35207, Note_on_c, 0, 48, 0
2, 35216, Note_on_c, 0, 72, 0
2, 35230, Note_on_c, 0, 61, 40
2, 35232, Note_on_c, 0, 65, 45
2, 35232, Note_on_c, 0, 69, 49
2, 35235, Control_c, 0, 64, 0
2, 35237, Note_on_c, 0, 51, 28
2, 35240, Note_on_c, 0, 57, 0
2, 35281, Control_c, 0, 64, 127
2, 35351, Note_on_c, 0, 65, 0
2, 35357, Note_on_c, 0, 61, 0
2, 35426, Note_on_c, 0, 61, 33
2, 35429, Note_on_c, 0, 65, 44
2, 35433, Note_on_c, 0, 57, 24
2, 35569, Note_on_c, 0, 61, 0
2, 35585, Note_on_c, 0, 65, 0
2, 35590, Note_on_c, 0, 57, 0
2, 35594, Note_on_c, 0, 69, 0
2, 35631, Note_on_c, 0, 51, 0
2, 35716, Note_on_c, 0, 55, 49
2, 35788, Note_on_c, 0, 55, 0
2, 35812, Control_c, 0, 64, 0
2, 35813, Note_on_c, 0, 54, 35
2, 35814, Note_on_c, 0, 38, 30
2, 35816, Note_on_c, 0, 26, 28
2, 35850, Control_c, 0, 64, 127
2, 35872, Note_on_c, 0, 26, 0
2, 35879, Note_on_c, 0, 54, 0
2, 35886, Note_on_c, 0, 38, 0
2, 36010, Note_on_c, 0, 71, 52
2, 36011, Note_on_c, 0, 66, 46
2, 36014, Note_on_c, 0, 60, 48
2, 36016, Note_on_c, 0, 64, 45
2, 36118, Note_on_c, 0, 57, 68
2, 36157, Note_on_c, 0, 60, 0
2, 36165, Note_on_c, 0, 64, 0
2, 36168, Note_on_c, 0, 66, 0
2, 36171, Note_on_c, 0, 71, 0
2, 36218, Note_on_c, 0, 57, 0
2, 36225, Note_on_c, 0, 65, 55
2, 36226, Note_on_c, 0, 72, 49
2, 36227, Note_on_c, 0, 69, 46
2, 36228, Note_on_c, 0, 60, 51
2, 36230, Note_on_c, 0, 55, 48
2, 36239, Control_c, 0, 64, 0
2, 36284, Control_c, 0, 64, 127
2, 36324, Note_on_c, 0, 43, 51
2, 36327, Note_on_c, 0, 60, 0
2, 36334, Note_on_c, 0, 43, 0
2, 36345, Note_on_c, 0, 65, 0
2, 36346, Note_on_c, 0, 55, 0
2, 36352, Note_on_c, 0, 69, 0
2, 36359, Note_on_c, 0, 72, 0
2, 36426, Note_on_c, 0, 74, 62
2, 36430, Note_on_c, 0, 71, 64
2, 36434, Note_on_c, 0, 56, 25
2, 36434, Note_on_c, 0, 64, 34
2, 36435, Note_on_c, 0, 68, 38
2, 36435, Note_on_c, 0, 65, 60
2, 36440, Control_c, 0, 64, 0
2, 36442, Note_on_c, 0, 59, 28
2, 36474, Control_c, 0, 64, 127
2, 36527, Note_on_c, 0, 56, 0
2, 36527, Note_on_c, 0, 53, 57
2, 36546, Note_on_c, 0, 65, 0
2, 36566, Note_on_c, 0, 68, 0
2, 36570, Note_on_c, 0, 74, 0
2, 36573, Note_on_c, 0, 64, 0
2, 36579, Note_on_c, 0, 71, 0
2, 36580, Note_on_c, 0, 53, 0
2, 36612, Note_on_c, 0, 59, 0
2, 36634, Note_on_c, 0, 76, 68
2, 36635, Note_on_c, 0, 72, 66
2, 36636, Note_on_c, 0, 62, 50
2, 36637, Note_on_c, 0, 52, 41
2, 36638, Note_on_c, 0, 67, 66
2, 36638, Note_on_c, 0, 56, 36
2, 36639, Control_c, 0, 64, 0
2, 36687, Control_c, 0, 64, 127
2, 36722, Note_on_c, 0, 56, 0
2, 36773, Note_on_c, 0, 62, 0
2, 36780, Note_on_c, 0, 72, 0
2, 36784, Note_on_c, 0, 67, 0
2, 36846, Note_on_c, 0, 67, 47
2, 36849, Note_on_c, 0, 56, 31
2, 36850, Note_on_c, 0, 62, 33
2, 36852, Note_on_c, 0, 72, 28
2, 36874, Note_on_c, 0, 62, 0
2, 36886, Note_on_c, 0, 56, 0
2, 36890, Note_on_c, 0, 52, 0
2, 36971, Note_on_c, 0, 72, 0
2, 36974, Note_on_c, 0, 76, 0
2, 36983, Note_on_c, 0, 67, 0
2, 37040, Control_c, 0, 64, 0
2, 37051, Note_on_c, 0, 33, 59
2, 37065, Control_c, 0, 64, 127
2, 37085, Note_on_c, 0, 33, 0
2, 37269, Note_on_c, 0, 66, 73
2, 37269, Note_on_c, 0, 89, 77
2, 37270, Note_on_c, 0, 82, 71
2, 37271, Note_on_c, 0, 55, 76
2, 37271, Note_on_c, 0, 61, 62
2, 37271, Note_on_c, 0, 77, 73
2, 37271, Note_on_c, 0, 85, 67
2, 37295, Control_c, 0, 64, 0
2, 37299, Control_c, 0, 64, 127
2, 37399, Note_on_c, 0, 55, 0
2, 37408, Note_on_c, 0, 89, 0
2, 37408, Note_on_c, 0, 66, 0
2, 37420, Note_on_c, 0, 77, 0
2, 37431, Note_on_c, 0, 85, 0
2, 37432, Note_on_c, 0, 82, 0
2, 37456, Note_on_c, 0, 61, 0
2, 37505, Note_on_c, 0, 88, 68
2, 37506, Note_on_c, 0, 84, 64
2, 37506, Note_on_c, 0, 53, 39
2, 37506, Note_on_c, 0, 76, 57
2, 37508, Note_on_c, 0, 57, 47
2, 37509, Note_on_c, 0, 64, 39
2, 37510, Note_on_c, 0, 81, 44
2, 37510, Note_on_c, 0, 60, 48
2, 37517, Control_c, 0, 64, 0
2, 37558, Control_c, 0, 64, 127
2, 37587, Note_on_c, 0, 64, 0
2, 37592, Note_on_c, 0, 60, 0
2, 37597, Note_on_c, 0, 57, 0
2, 37610, Note_on_c, 0, 53, 0
2, 37629, Note_on_c, 0, 88, 0
2, 37632, Note_on_c, 0, 84, 0
2, 37635, Note_on_c, 0, 81, 0
2, 37645, Note_on_c, 0, 76, 0
2, 37726, Note_on_c, 0, 43, 45
2, 37726, Note_on_c, 0, 81, 50
2, 37726, Note_on_c, 0, 86, 62
2, 37727, Note_on_c, 0, 31, 52
2, 37728, Note_on_c, 0, 74, 41
2, 37728, Note_on_c, 0, 77, 33
2, 37734, Control_c, 0, 64, 0
2, 37762, Control_c, 0, 64, 127
2, 37793, Note_on_c, 0, 31, 0
2, 37803, Note_on_c, 0, 43, 0
2, 37831, Note_on_c, 0, 86, 0
2, 37844, Note_on_c, 0, 74, 0
2, 37864, Note_on_c, 0, 77, 0
2, 37870, Note_on_c, 0, 81, 0
2, 37951, Note_on_c, 0, 72, 36
2, 37952, Note_on_c, 0, 84, 40
2, 37953, Note_on_c, 0, 81, 46
2, 37953, Note_on_c, 0, 55, 25
2, 37953, Note_on_c, 0, 65, 31
2, 37953, Note_on_c, 0, 77, 40
2, 37954, Note_on_c, 0, 57, 37
2, 37955, Note_on_c, 0, 60, 47
2, 37966, Control_c, 0, 64, 0
2, 37992, Control_c, 0, 64, 127
2, 38052, Note_on_c, 0, 65, 0
2, 38054, Note_on_c, 0, 60, 0
2, 38056, Note_on_c, 0, 72, 0
2, 38059, Note_on_c, 0, 77, 0
2, 38060, Note_on_c, 0, 55, 0
2, 38064, Note_on_c, 0, 81, 0
2, 38068, Note_on_c, 0, 84, 0
2, 38070, Note_on_c, 0, 57, 0
2, 38187, Note_on_c, 0, 86, 36
2, 38187, Note_on_c, 0, 74, 32
2, 38189, Note_on_c, 0, 83, 36
2, 38190, Note_on_c, 0, 80, 32
2, 38190, Note_on_c, 0, 53, 24
2, 38191, Note_on_c, 0, 64, 24
2, 38191, Note_on_c, 0, 59, 27
2, 38200, Control_c, 0, 64, 0
2, 38236, Control_c, 0, 64, 127
2, 38292, Note_on_c, 0, 64, 0
2, 38294, Note_on_c, 0, 59, 0
2, 38309, Note_on_c, 0, 53, 0
2, 38333, Note_on_c, 0, 74, 0
2, 38335, Note_on_c, 0, 86, 0
2, 38345, Note_on_c, 0, 83, 0
2, 38357, Note_on_c, 0, 80, 0
2, 38436, Note_on_c, 0, 84, 32
2, 38440, Note_on_c, 0, 36, 31
2, 38445, Control_c, 0, 64, 0
2, 38447, Note_on_c, 0, 72, 13
2, 38467, Control_c, 0, 64, 127
2, 38487, Note_on_c, 0, 84, 0
2, 38509, Note_on_c, 0, 72, 0
2, 38522, Note_on_c, 0, 43, 47
2, 38572, Note_on_c, 0, 36, 0
2, 38590, Note_on_c, 0, 43, 0
2, 38591, Note_on_c, 0, 67, 45
2, 38596, Note_on_c, 0, 52, 38
2, 38597, Note_on_c, 0, 62, 46
2, 38598, Note_on_c, 0, 57, 32
2, 38609, Note_on_c, 0, 57, 0
2, 38618, Note_on_c, 0, 62, 0
2, 38620, Note_on_c, 0, 67, 0
2, 38625, Note_on_c, 0, 52, 0
2, 38670, Note_on_c, 0, 59, 42
2, 38675, Note_on_c, 0, 74, 68
2, 38693, Note_on_c, 0, 59, 0
2, 38698, Note_on_c, 0, 74, 0
2, 38758, Note_on_c, 0, 71, 44
2, 38760, Note_on_c, 0, 67, 45
2, 38762, Note_on_c, 0, 60, 32
2, 38765, Note_on_c, 0, 64, 32
2, 38766, Note_on_c, 0, 55, 26
2, 38774, Control_c, 0, 64, 0
2, 38800, Control_c, 0, 64, 127
2, 38816, Note_on_c, 0, 55, 0
2, 38848, Note_on_c, 0, 60, 0
2, 38848, Note_on_c, 0, 55, 50
2, 38861, Note_on_c, 0, 64, 0
2, 38863, Note_on_c, 0, 67, 0
2, 38924, Note_on_c, 0, 71, 0
2, 38928, Note_on_c, 0, 55, 0
2, 38934, Note_on_c, 0, 67, 36
2, 38939, Note_on_c, 0, 64, 38
2, 38939, Note_on_c, 0, 59, 30
2, 39031, Note_on_c, 0, 67, 0
2, 39033, Note_on_c, 0, 64, 0
2, 39034, Note_on_c, 0, 55, 35
2, 39048, Note_on_c, 0, 55, 0
2, 39054, Note_on_c, 0, 59, 0
2, 39153, Note_on_c, 0, 67, 44
2, 39155, Note_on_c, 0, 65, 38
2, 39155, Note_on_c, 0, 43, 40
2, 39157, Note_on_c, 0, 57, 32
2, 39158, Note_on_c, 0, 53, 32
2, 39158, Note_on_c, 0, 60, 34
2, 39165, Control_c, 0, 64, 0
2, 39207, Control_c, 0, 64, 127
2, 39304, Note_on_c, 0, 67, 0
2, 39310, Note_on_c, 0, 57, 0
2, 39310, Note_on_c, 0, 60, 0
2, 39319, Note_on_c, 0, 65, 0
2, 39370, Note_on_c, 0, 67, 67
2, 39375, Note_on_c, 0, 57, 65
2, 39375, Note_on_c, 0, 60, 60
2, 39380, Note_on_c, 0, 43, 0
2, 39425, Note_on_c, 0, 53, 0
2, 39473, Note_on_c, 0, 55, 85
2, 39502, Note_on_c, 0, 57, 0
2, 39513, Note_on_c, 0, 60, 0
2, 39520, Note_on_c, 0, 67, 0
2, 39554, Note_on_c, 0, 55, 0
2, 39585, Note_on_c, 0, 59, 59
2, 39586, Note_on_c, 0, 69, 54
2, 39587, Note_on_c, 0, 64, 60
2, 39588, Note_on_c, 0, 53, 45
2, 39598, Control_c, 0, 64, 0
2, 39654, Control_c, 0, 64, 127
2, 39688, Note_on_c, 0, 43, 58
2, 39736, Note_on_c, 0, 53, 0
2, 39739, Note_on_c, 0, 59, 0
2, 39743, Note_on_c, 0, 69, 0
2, 39750, Note_on_c, 0, 64, 0
2, 39797, Note_on_c, 0, 71, 60
2, 39800, Note_on_c, 0, 64, 66
2, 39801, Note_on_c, 0, 59, 59
2, 39809, Control_c, 0, 64, 0
2, 39820, Note_on_c, 0, 55, 15
2, 39837, Control_c, 0, 64, 127
2, 39854, Note_on_c, 0, 43, 0
2, 39895, Note_on_c, 0, 55, 0
2, 39896, Note_on_c, 0, 43, 54
2, 39917, Note_on_c, 0, 59, 0
2, 39922, Note_on_c, 0, 71, 0
2, 39934, Note_on_c, 0, 64, 0
2, 39992, Note_on_c, 0, 52, 42
2, 40003, Note_on_c, 0, 60, 30
2, 40007, Note_on_c, 0, 64, 58
2, 40012, Note_on_c, 0, 67, 60
2, 40013, Note_on_c, 0, 55, 54
2, 40014, Note_on_c, 0, 72, 67
2, 40016, Control_c, 0, 64, 0
2, 40058, Control_c, 0, 64, 127
2, 40096, Note_on_c, 0, 43, 0
2, 40099, Note_on_c, 0, 55, 0
2, 40110, Note_on_c, 0, 52, 0
2, 40123, Note_on_c, 0, 43, 60
2, 40125, Note_on_c, 0, 72, 0
2, 40133, Note_on_c, 0, 64, 0
2, 40133, Note_on_c, 0, 67, 0
2, 40140, Note_on_c, 0, 60, 0
2, 40156, Note_on_c, 0, 43, 0
2, 40232, Note_on_c, 0, 60, 60
2, 40232, Note_on_c, 0, 64, 48
2, 40233, Note_on_c, 0, 55, 51
2, 40331, Note_on_c, 0, 31, 80
2, 40379, Note_on_c, 0, 60, 0
2, 40385, Note_on_c, 0, 55, 0
2, 40440, Note_on_c, 0, 55, 58
2, 40441, Note_on_c, 0, 60, 61
2, 40510, Note_on_c, 0, 31, 0
2, 40547, Note_on_c, 0, 55, 0
2, 40548, Note_on_c, 0, 31, 64
2, 40564, Note_on_c, 0, 60, 0
2, 40572, Note_on_c, 0, 64, 0
2, 40615, Note_on_c, 0, 31, 0
2, 40765, Note_on_c, 0, 71, 66
2, 40765, Note_on_c, 0, 30, 49
2, 40767, Note_on_c, 0, 42, 43
2, 40767, Note_on_c, 0, 64, 58
2, 40768, Control_c, 0, 64, 0
2, 40769, Note_on_c, 0, 59, 57
2, 40804, Control_c, 0, 64, 127
2, 40814, Note_on_c, 0, 59, 0
2, 40830, Note_on_c, 0, 42, 0
2, 40830, Note_on_c, 0, 64, 0
2, 40834, Note_on_c, 0, 30, 0
2, 40841, Note_on_c, 0, 71, 0
2, 40894, Note_on_c, 0, 71, 50
2, 40896, Note_on_c, 0, 29, 37
2, 40897, Note_on_c, 0, 59, 51
2, 40897, Note_on_c, 0, 41, 53
2, 40898, Note_on_c, 0, 67, 52
2, 40898, Control_c, 0, 64, 0
2, 40898, Note_on_c, 0, 64, 54
2, 40954, Control_c, 0, 64, 127
2, 41004, Note_on_c, 0, 29, 0
2, 41021, Note_on_c, 0, 41, 0
2, 41079, Note_on_c, 0, 59, 0
2, 41102, Note_on_c, 0, 64, 0
2, 41113, Note_on_c, 0, 67, 0
2, 41168, Note_on_c, 0, 71, 0
2, 41180, Note_on_c, 0, 64, 37
2, 41182, Note_on_c, 0, 53, 33
2, 41183, Note_on_c, 0, 59, 24
2, 41261, Note_on_c, 0, 53, 0
2, 41394, Note_on_c, 0, 69, 37
2, 41454, Note_on_c, 0, 69, 0
2, 41461, Note_on_c, 0, 59, 0
2, 41465, Note_on_c, 0, 64, 0
2, 41609, Note_on_c, 0, 43, 44
2, 41611, Note_on_c, 0, 67, 38
2, 41612, Note_on_c, 0, 60, 37
2, 41613, Note_on_c, 0, 57, 34
2, 41624, Control_c, 0, 64, 0
2, 41666, Control_c, 0, 64, 127
2, 41708, Note_on_c, 0, 67, 0
2, 41716, Note_on_c, 0, 60, 0
2, 41726, Note_on_c, 0, 57, 0
2, 41761, Note_on_c, 0, 69, 43
2, 41796, Note_on_c, 0, 69, 0
2, 41807, Note_on_c, 0, 43, 0
2, 41871, Note_on_c, 0, 67, 33
2, 41875, Note_on_c, 0, 62, 35
2, 41876, Note_on_c, 0, 55, 32
2, 41879, Control_c, 0, 64, 0
2, 41881, Note_on_c, 0, 40, 24
2, 41911, Control_c, 0, 64, 127
2, 41976, Note_on_c, 0, 55, 0
2, 41984, Note_on_c, 0, 62, 0
2, 41992, Note_on_c, 0, 67, 0
2, 42009, Note_on_c, 0, 64, 40
2, 42027, Note_on_c, 0, 40, 0
2, 42109, Note_on_c, 0, 64, 0
2, 42123, Note_on_c, 0, 57, 25
2, 42124, Note_on_c, 0, 60, 40
2, 42127, Note_on_c, 0, 45, 36
2, 42127, Control_c, 0, 64, 0
2, 42150, Note_on_c, 0, 57, 0
2, 42158, Control_c, 0, 64, 127
2, 42167, Note_on_c, 0, 60, 0
2, 42203, Note_on_c, 0, 52, 40
2, 42206, Note_on_c, 0, 45, 0
2, 42217, Note_on_c, 0, 52, 0
2, 42285, Note_on_c, 0, 59, 41
2, 42285, Note_on_c, 0, 84, 49
2, 42375, Note_on_c, 0, 60, 38
2, 42385, Note_on_c, 0, 84, 0
2, 42478, Note_on_c, 0, 72, 37
2, 42478, Note_on_c, 0, 67, 38
2, 42488, Note_on_c, 0, 64, 17
2, 42611, Note_on_c, 0, 72, 0
2, 42616, Note_on_c, 0, 67, 0
2, 42648, Note_on_c, 0, 64, 0
2, 42653, Note_on_c, 0, 60, 0
2, 42654, Note_on_c, 0, 59, 0
2, 42749, Note_on_c, 0, 79, 50
2, 42754, Note_on_c, 0, 60, 39
2, 42757, Note_on_c, 0, 50, 27
2, 42757, Note_on_c, 0, 72, 48
2, 42759, Note_on_c, 0, 69, 56
2, 42761, Note_on_c, 0, 57, 24
2, 42767, Control_c, 0, 64, 0
2, 42779, Note_on_c, 0, 57, 0
2, 42799, Control_c, 0, 64, 127
2, 42824, Note_on_c, 0, 72, 0
2, 42825, Note_on_c, 0, 69, 0
2, 42829, Note_on_c, 0, 79, 0
2, 42871, Note_on_c, 0, 50, 0
2, 42873, Note_on_c, 0, 60, 0
2, 43023, Note_on_c, 0, 81, 60
2, 43026, Note_on_c, 0, 55, 40
2, 43028, Note_on_c, 0, 74, 55
2, 43029, Note_on_c, 0, 65, 31
2, 43029, Note_on_c, 0, 71, 46
2, 43032, Control_c, 0, 64, 0
2, 43032, Note_on_c, 0, 60, 34
2, 43048, Control_c, 0, 64, 127
2, 43071, Note_on_c, 0, 71, 0
2, 43071, Note_on_c, 0, 65, 0
2, 43073, Note_on_c, 0, 74, 0
2, 43074, Note_on_c, 0, 55, 0
2, 43075, Note_on_c, 0, 60, 0
2, 43078, Note_on_c, 0, 81, 0
2, 43145, Note_on_c, 0, 83, 57
2, 43147, Note_on_c, 0, 80, 40
2, 43148, Note_on_c, 0, 71, 48
2, 43150, Note_on_c, 0, 76, 51
2, 43150, Note_on_c, 0, 65, 32
2, 43150, Note_on_c, 0, 56, 31
2, 43150, Note_on_c, 0, 62, 32
2, 43154, Control_c, 0, 64, 0
2, 43177, Control_c, 0, 64, 127
2, 43185, Note_on_c, 0, 62, 0
2, 43191, Note_on_c, 0, 56, 0
2, 43194, Note_on_c, 0, 65, 0
2, 43200, Note_on_c, 0, 80, 0
2, 43203, Note_on_c, 0, 71, 0
2, 43207, Note_on_c, 0, 83, 0
2, 43215, Note_on_c, 0, 76, 0
2, 43274, Note_on_c, 0, 84, 54
2, 43275, Note_on_c, 0, 67, 37
2, 43275, Note_on_c, 0, 79, 44
2, 43276, Note_on_c, 0, 76, 49
2, 43276, Note_on_c, 0, 64, 34
2, 43277, Note_on_c, 0, 72, 34
2, 43279, Note_on_c, 0, 57, 29
2, 43281, Control_c, 0, 64, 0
2, 43305, Control_c, 0, 64, 127
2, 43323, Note_on_c, 0, 64, 0
2, 43323, Note_on_c, 0, 67, 0
2, 43325, Note_on_c, 0, 84, 0
2, 43334, Note_on_c, 0, 79, 0
2, 43336, Note_on_c, 0, 57, 0
2, 43338, Note_on_c, 0, 76, 0
2, 43343, Note_on_c, 0, 72, 0
2, 43462, Note_on_c, 0, 56, 51
2, 43465, Note_on_c, 0, 60, 47
2, 43465, Note_on_c, 0, 64, 49
2, 43467, Note_on_c, 0, 45, 24
2, 43476, Control_c, 0, 64, 0
2, 43498, Control_c, 0, 64, 127
2, 43540, Note_on_c, 0, 56, 0
2, 43571, Note_on_c, 0, 60, 0
2, 43575, Note_on_c, 0, 64, 0
2, 43607, Note_on_c, 0, 60, 36
2, 43610, Note_on_c, 0, 64, 35
2, 43612, Note_on_c, 0, 55, 38
2, 43620, Control_c, 0, 64, 0
2, 43648, Control_c, 0, 64, 127
2, 43674, Note_on_c, 0, 45, 0
2, 43694, Note_on_c, 0, 60, 0
2, 43700, Note_on_c, 0, 64, 0
2, 43722, Note_on_c, 0, 55, 0
2, 43754, Note_on_c, 0, 71, 51
2, 43756, Note_on_c, 0, 60, 45
2, 43758, Note_on_c, 0, 64, 42
2, 43758, Note_on_c, 0, 45, 37
2, 43811, Note_on_c, 0, 45, 0
2, 43841, Note_on_c, 0, 60, 0
2, 43849, Note_on_c, 0, 64, 0
2, 43880, Note_on_c, 0, 71, 0
2, 43995, Note_on_c, 0, 71, 44
2, 43996, Note_on_c, 0, 59, 45
2, 43998, Note_on_c, 0, 41, 32
2, 43999, Note_on_c, 0, 64, 52
2, 44002, Note_on_c, 0, 49, 35
2, 44003, Control_c, 0, 64, 0
2, 44037, Control_c, 0, 64, 127
2, 44068, Note_on_c, 0, 71, 0
2, 44074, Note_on_c, 0, 64, 0
2, 44080, Note_on_c, 0, 59, 0
2, 44135, Note_on_c, 0, 49, 0
2, 44141, Note_on_c, 0, 50, 48
2, 44142, Note_on_c, 0, 69, 39
2, 44142, Note_on_c, 0, 64, 48
2, 44145, Note_on_c, 0, 57, 28
2, 44150, Control_c, 0, 64, 0
2, 44188, Control_c, 0, 64, 127
2, 44195, Note_on_c, 0, 41, 0
2, 44208, Note_on_c, 0, 57, 0
2, 44219, Note_on_c, 0, 50, 0
2, 44221, Note_on_c, 0, 64, 0
2, 44242, Note_on_c, 0, 69, 0
2, 44274, Note_on_c, 0, 60, 38
2, 44274, Note_on_c, 0, 67, 49
2, 44277, Note_on_c, 0, 64, 46
2, 44277, Note_on_c, 0, 55, 45
2, 44277, Note_on_c, 0, 45, 36
2, 44282, Control_c, 0, 64, 0
2, 44328, Control_c, 0, 64, 127
2, 44342, Note_on_c, 0, 64, 0
2, 44357, Note_on_c, 0, 60, 0
2, 44389, Note_on_c, 0, 55, 0
2, 44391, Note_on_c, 0, 67, 0
2, 44403, Note_on_c, 0, 60, 42
2, 44404, Note_on_c, 0, 64, 44
2, 44405, Note_on_c, 0, 52, 24
2, 44449, Note_on_c, 0, 45, 0
2, 44452, Note_on_c, 0, 52, 0
2, 44455, Note_on_c, 0, 64, 0
2, 44461, Note_on_c, 0, 60, 0
2, 44531, Control_c, 0, 64, 0
2, 44532, Note_on_c, 0, 62, 54
2, 44536, Note_on_c, 0, 58, 39
2, 44537, Note_on_c, 0, 53, 32
2, 44538, Note_on_c, 0, 44, 40
2, 44559, Control_c, 0, 64, 127
2, 44573, Note_on_c, 0, 53, 0
2, 44584, Note_on_c, 0, 44, 0
2, 44586, Note_on_c, 0, 58, 0
2, 44586, Note_on_c, 0, 62, 0
2, 44666, Note_on_c, 0, 70, 53
2, 44668, Note_on_c, 0, 74, 49
2, 44669, Note_on_c, 0, 65, 45
2, 44671, Note_on_c, 0, 54, 32
2, 44673, Note_on_c, 0, 60, 33
2, 44748, Note_on_c, 0, 60, 0
2, 44766, Note_on_c, 0, 65, 0
2, 44770, Note_on_c, 0, 70, 0
2, 44787, Note_on_c, 0, 74, 0
2, 44813, Note_on_c, 0, 74, 34
2, 44814, Note_on_c, 0, 65, 46
2, 44815, Note_on_c, 0, 70, 43
2, 44818, Note_on_c, 0, 60, 35
2, 44854, Note_on_c, 0, 60, 0
2, 44855, Note_on_c, 0, 74, 0
2, 44864, Note_on_c, 0, 70, 0
2, 44868, Note_on_c, 0, 65, 0
2, 44878, Note_on_c, 0, 54, 0
2, 44963, Note_on_c, 0, 62, 35
2, 44963, Note_on_c, 0, 32, 39
2, 44964, Note_on_c, 0, 58, 46
2, 44964, Note_on_c, 0, 44, 32
2, 44966, Note_on_c, 0, 53, 31
2, 44976, Control_c, 0, 64, 0
2, 45018, Control_c, 0, 64, 127
2, 45048, Note_on_c, 0, 44, 0
2, 45048, Note_on_c, 0, 32, 0
2, 45057, Note_on_c, 0, 53, 0
2, 45076, Note_on_c, 0, 62, 0
2, 45077, Note_on_c, 0, 58, 0
2, 45151, Control_c, 0, 64, 0
2, 45151, Note_on_c, 0, 62, 31
2, 45152, Note_on_c, 0, 53, 32
2, 45152, Note_on_c, 0, 31, 47
2, 45153, Note_on_c, 0, 43, 34
2, 45154, Note_on_c, 0, 57, 44
2, 45154, Note_on_c, 0, 60, 45
2, 45195, Control_c, 0, 64, 127
2, 45221, Note_on_c, 0, 31, 0
2, 45228, Note_on_c, 0, 53, 0
2, 45231, Note_on_c, 0, 43, 0
2, 45238, Note_on_c, 0, 57, 0
2, 45240, Note_on_c, 0, 62, 0
2, 45243, Note_on_c, 0, 60, 0
2, 45333, Note_on_c, 0, 67, 59
2, 45336, Note_on_c, 0, 65, 60
2, 45337, Note_on_c, 0, 57, 58
2, 45337, Note_on_c, 0, 60, 64
2, 45338, Note_on_c, 0, 55, 55
2, 45414, Note_on_c, 0, 57, 0
2, 45416, Note_on_c, 0, 60, 0
2, 45423, Note_on_c, 0, 55, 0
2, 45447, Note_on_c, 0, 67, 0
2, 45450, Note_on_c, 0, 65, 0
2, 45504, Note_on_c, 0, 67, 54
2, 45506, Note_on_c, 0, 64, 50
2, 45506, Note_on_c, 0, 59, 46
2, 45508, Note_on_c, 0, 53, 46
2, 45508, Note_on_c, 0, 43, 40
2, 45513, Control_c, 0, 64, 0
2, 45568, Control_c, 0, 64, 127
2, 45657, Note_on_c, 0, 53, 0
2, 45658, Note_on_c, 0, 59, 0
2, 45666, Note_on_c, 0, 64, 0
2, 45676, Note_on_c, 0, 67, 0
2, 45723, Note_on_c, 0, 64, 38
2, 45723, Note_on_c, 0, 67, 44
2, 45725, Note_on_c, 0, 53, 34
2, 45727, Note_on_c, 0, 59, 29
2, 45779, Note_on_c, 0, 59, 0
2, 45800, Note_on_c, 0, 67, 0
2, 45806, Note_on_c, 0, 53, 0
2, 45807, Note_on_c, 0, 64, 0
2, 45831, Note_on_c, 0, 43, 0
2, 45997, Note_on_c, 0, 76, 41
2, 45998, Note_on_c, 0, 64, 38
2, 45999, Note_on_c, 0, 68, 33
2, 46000, Note_on_c, 0, 72, 34
2, 46002, Note_on_c, 0, 24, 38
2, 46002, Note_on_c, 0, 36, 38
2, 46007, Control_c, 0, 64, 0
2, 46043, Control_c, 0, 64, 127
2, 46058, Note_on_c, 0, 64, 0
2, 46062, Note_on_c, 0, 24, 0
2, 46062, Note_on_c, 0, 68, 0
2, 46071, Note_on_c, 0, 36, 0
2, 46078, Note_on_c, 0, 72, 0
2, 46087, Note_on_c, 0, 76, 0
2, 46205, Note_on_c, 0, 88, 40
2, 46206, Note_on_c, 0, 58, 37
2, 46207, Note_on_c, 0, 84, 46
2, 46209, Note_on_c, 0, 76, 29
2, 46333, Note_on_c, 0, 84, 0
2, 46335, Note_on_c, 0, 76, 0
2, 46335, Note_on_c, 0, 88, 0
2, 46428, Note_on_c, 0, 88, 29
2, 46431, Note_on_c, 0, 76, 26
2, 46433, Note_on_c, 0, 64, 32
2, 46512, Note_on_c, 0, 88, 0
2, 46543, Note_on_c, 0, 76, 0
2, 46566, Note_on_c, 0, 64, 0
2, 46612, Note_on_c, 0, 58, 0
2, 46811, Note_on_c, 0, 74, 57
2, 46815, Note_on_c, 0, 66, 45
2, 46816, Note_on_c, 0, 69, 57
2, 46816, Note_on_c, 0, 58, 36
2, 46817, Note_on_c, 0, 48, 36
2, 46818, Note_on_c, 0, 62, 43
2, 46827, Control_c, 0, 64, 0
2, 46865, Control_c, 0, 64, 127
2, 46879, Note_on_c, 0, 62, 0
2, 46883, Note_on_c, 0, 66, 0
2, 46888, Note_on_c, 0, 69, 0
2, 46900, Note_on_c, 0, 58, 0
2, 46910, Note_on_c, 0, 74, 0
2, 46926, Note_on_c, 0, 48, 0
2, 46943, Note_on_c, 0, 74, 63
2, 46946, Note_on_c, 0, 64, 56
2, 46947, Note_on_c, 0, 69, 68
2, 46948, Note_on_c, 0, 58, 51
2, 46949, Note_on_c, 0, 48, 15
2, 46954, Control_c, 0, 64, 0
2, 46984, Control_c, 0, 64, 127
2, 47013, Note_on_c, 0, 74, 0
2, 47022, Note_on_c, 0, 69, 0
2, 47030, Note_on_c, 0, 64, 0
2, 47040, Note_on_c, 0, 58, 0
2, 47058, Note_on_c, 0, 72, 50
2, 47060, Note_on_c, 0, 67, 60
2, 47060, Note_on_c, 0, 62, 52
2, 47061, Note_on_c, 0, 57, 55
2, 47070, Control_c, 0, 64, 0
2, 47104, Control_c, 0, 64, 127
2, 47112, Note_on_c, 0, 72, 0
2, 47112, Note_on_c, 0, 48, 0
2, 47116, Note_on_c, 0, 67, 0
2, 47131, Note_on_c, 0, 62, 0
2, 47182, Note_on_c, 0, 57, 0
2, 47187, Note_on_c, 0, 69, 50
2, 47190, Note_on_c, 0, 63, 37
2, 47190, Note_on_c, 0, 66, 36
2, 47192, Note_on_c, 0, 60, 36
2, 47193, Note_on_c, 0, 54, 40
2, 47196, Control_c, 0, 64, 0
2, 47238, Control_c, 0, 64, 127
2, 47322, Note_on_c, 0, 69, 0
2, 47336, Note_on_c, 0, 63, 0
2, 47337, Note_on_c, 0, 66, 0
2, 47338, Note_on_c, 0, 60, 0
2, 47448, Note_on_c, 0, 54, 0
2, 47455, Note_on_c, 0, 72, 38
2, 47486, Note_on_c, 0, 72, 0
2, 47595, Note_on_c, 0, 67, 37
2, 47598, Note_on_c, 0, 43, 35
2, 47599, Note_on_c, 0, 64, 34
2, 47600, Note_on_c, 0, 52, 24
2, 47600, Note_on_c, 0, 60, 25
2, 47610, Control_c, 0, 64, 0
2, 47642, Control_c, 0, 64, 127
2, 47679, Note_on_c, 0, 60, 0
2, 47688, Note_on_c, 0, 64, 0
2, 47694, Note_on_c, 0, 67, 0
2, 47823, Note_on_c, 0, 81, 66
2, 47827, Note_on_c, 0, 43, 0
2, 47836, Note_on_c, 0, 52, 0
2, 47921, Note_on_c, 0, 81, 0
2, 48004, Note_on_c, 0, 80, 58
2, 48009, Note_on_c, 0, 56, 33
2, 48011, Note_on_c, 0, 71, 47
2, 48015, Note_on_c, 0, 65, 29
2, 48017, Control_c, 0, 64, 0
2, 48043, Control_c, 0, 64, 127
2, 48080, Note_on_c, 0, 80, 0
2, 48111, Note_on_c, 0, 71, 0
2, 48112, Note_on_c, 0, 65, 0
2, 48192, Note_on_c, 0, 71, 48
2, 48195, Note_on_c, 0, 68, 25
2, 48196, Note_on_c, 0, 65, 32
2, 48199, Note_on_c, 0, 62, 24
2, 48263, Note_on_c, 0, 76, 61
2, 48265, Note_on_c, 0, 62, 0
2, 48285, Note_on_c, 0, 56, 0
2, 48305, Note_on_c, 0, 76, 0
2, 48325, Note_on_c, 0, 65, 0
2, 48326, Note_on_c, 0, 71, 0
2, 48330, Note_on_c, 0, 74, 64
2, 48367, Note_on_c, 0, 68, 0
2, 48369, Note_on_c, 0, 74, 0
2, 48411, Note_on_c, 0, 72, 35
2, 48415, Note_on_c, 0, 45, 36
2, 48428, Control_c, 0, 64, 0
2, 48464, Control_c, 0, 64, 127
2, 48502, Note_on_c, 0, 52, 32
2, 48605, Note_on_c, 0, 64, 34
2, 48610, Note_on_c, 0, 60, 35
2, 48611, Note_on_c, 0, 57, 29
2, 48685, Note_on_c, 0, 57, 0
2, 48740, Note_on_c, 0, 55, 24
2, 48748, Note_on_c, 0, 64, 0
2, 48780, Note_on_c, 0, 60, 0
2, 48789, Note_on_c, 0, 55, 0
2, 48790, Note_on_c, 0, 52, 0
2, 48792, Note_on_c, 0, 45, 0
2, 48970, Note_on_c, 0, 66, 32
2, 48973, Note_on_c, 0, 60, 36
2, 48974, Note_on_c, 0, 54, 30
2, 48978, Note_on_c, 0, 44, 30
2, 48987, Control_c, 0, 64, 0
2, 49046, Control_c, 0, 64, 127
2, 49152, Note_on_c, 0, 60, 0
2, 49179, Note_on_c, 0, 66, 0
2, 49182, Note_on_c, 0, 44, 0
2, 49187, Note_on_c, 0, 54, 0
2, 49188, Note_on_c, 0, 72, 0
2, 49353, Note_on_c, 0, 83, 45
2, 49356, Note_on_c, 0, 71, 47
2, 49356, Note_on_c, 0, 59, 33
2, 49398, Note_on_c, 0, 71, 0
2, 49403, Note_on_c, 0, 83, 0
2, 49453, Note_on_c, 0, 59, 0
2, 49463, Note_on_c, 0, 72, 37
2, 49465, Note_on_c, 0, 60, 35
2, 49465, Note_on_c, 0, 84, 40
2, 49513, Note_on_c, 0, 72, 0
2, 49514, Note_on_c, 0, 84, 0
2, 49588, Note_on_c, 0, 60, 0
2, 49592, Note_on_c, 0, 86, 51
2, 49593, Note_on_c, 0, 62, 37
2, 49593, Note_on_c, 0, 74, 40
2, 49676, Note_on_c, 0, 62, 0
2, 49680, Note_on_c, 0, 74, 0
2, 49698, Note_on_c, 0, 86, 0
2, 49814, Note_on_c, 0, 88, 56
2, 49816, Note_on_c, 0, 56, 29
2, 49818, Control_c, 0, 64, 0
2, 49818, Note_on_c, 0, 67, 30
2, 49819, Note_on_c, 0, 76, 33
2, 49819, Note_on_c, 0, 62, 38
2, 49848, Control_c, 0, 64, 127
2, 49867, Note_on_c, 0, 76, 0
2, 49869, Note_on_c, 0, 88, 0
2, 49982, Note_on_c, 0, 93, 58
2, 49992, Note_on_c, 0, 81, 34
2, 50013, Note_on_c, 0, 67, 0
2, 50018, Note_on_c, 0, 62, 0
2, 50036, Note_on_c, 0, 93, 0
2, 50044, Note_on_c, 0, 56, 0
2, 50045, Note_on_c, 0, 81, 0
2, 50118, Note_on_c, 0, 91, 45
2, 50123, Note_on_c, 0, 66, 21
2, 50124, Note_on_c, 0, 61, 36
2, 50124, Note_on_c, 0, 79, 28
2, 50126, Note_on_c, 0, 55, 32
2, 50131, Control_c, 0, 64, 0
2, 50167, Control_c, 0, 64, 127
2, 50183, Note_on_c, 0, 91, 0
2, 50200, Note_on_c, 0, 79, 0
2, 50286, Note_on_c, 0, 88, 42
2, 50291, Note_on_c, 0, 76, 40
2, 50332, Note_on_c, 0, 88, 0
2, 50344, Note_on_c, 0, 55, 0
2, 50345, Note_on_c, 0, 66, 0
2, 50352, Note_on_c, 0, 76, 0
2, 50379, Note_on_c, 0, 61, 0
2, 50438, Note_on_c, 0, 86, 59
2, 50439, Note_on_c, 0, 54, 31
2, 50441, Note_on_c, 0, 74, 30
2, 50443, Note_on_c, 0, 65, 26
2, 50445, Control_c, 0, 64, 0
2, 50448, Note_on_c, 0, 60, 32
2, 50482, Control_c, 0, 64, 127
2, 50524, Note_on_c, 0, 86, 0
2, 50543, Note_on_c, 0, 74, 0
2, 50615, Note_on_c, 0, 84, 36
2, 50615, Note_on_c, 0, 72, 28
2, 50632, Note_on_c, 0, 65, 0
2, 50638, Note_on_c, 0, 60, 0
2, 50654, Note_on_c, 0, 84, 0
2, 50673, Note_on_c, 0, 72, 0
2, 50688, Note_on_c, 0, 54, 0
2, 50813, Note_on_c, 0, 81, 40
2, 50814, Note_on_c, 0, 53, 24
2, 50815, Note_on_c, 0, 69, 34
2, 50818, Note_on_c, 0, 64, 18
2, 50819, Note_on_c, 0, 59, 33
2, 50825, Control_c, 0, 64, 0
2, 50861, Control_c, 0, 64, 127
2, 50875, Note_on_c, 0, 64, 0
2, 50879, Note_on_c, 0, 59, 0
2, 50895, Note_on_c, 0, 53, 0
2, 51004, Note_on_c, 0, 69, 0
2, 51017, Note_on_c, 0, 81, 0
2, 51136, Note_on_c, 0, 31, 27
2, 51144, Note_on_c, 0, 31, 0
2, 51265, Note_on_c, 0, 53, 33
2, 51266, Note_on_c, 0, 71, 39
2, 51281, Note_on_c, 0, 76, 49
2, 51285, Note_on_c, 0, 59, 18
2, 51286, Note_on_c, 0, 80, 29
2, 51297, Note_on_c, 0, 83, 32
2, 51492, Note_on_c, 0, 59, 0
2, 51512, Note_on_c, 0, 53, 0
2, 51515, Note_on_c, 0, 76, 0
2, 51533, Note_on_c, 0, 71, 0
2, 51550, Note_on_c, 0, 83, 0
2, 51552, Note_on_c, 0, 80, 0
2, 51703, Note_on_c, 0, 84, 62
2, 51710, Note_on_c, 0, 44, 33
2, 51713, Control_c, 0, 64, 0
2, 51739, Control_c, 0, 64, 127
2, 51802, Note_on_c, 0, 84, 0
2, 51810, Note_on_c, 0, 51, 37
2, 51813, Note_on_c, 0, 44, 0
2, 51890, Note_on_c, 0, 51, 0
2, 51896, Note_on_c, 0, 65, 26
2, 51898, Note_on_c, 0, 60, 26
2, 51982, Note_on_c, 0, 65, 0
2, 51987, Note_on_c, 0, 60, 0
2, 51987, Note_on_c, 0, 70, 47
2, 51999, Note_on_c, 0, 65, 19
2, 52007, Note_on_c, 0, 70, 0
2, 52082, Note_on_c, 0, 77, 30
2, 52169, Note_on_c, 0, 87, 56
2, 52197, Note_on_c, 0, 87, 0
2, 52222, Note_on_c, 0, 65, 0
2, 52275, Note_on_c, 0, 82, 31
2, 52298, Note_on_c, 0, 77, 0
2, 52366, Note_on_c, 0, 77, 35
2, 52407, Note_on_c, 0, 77, 0
2, 52474, Note_on_c, 0, 82, 0
2, 52483, Note_on_c, 0, 84, 36
2, 52485, Note_on_c, 0, 46, 28
2, 52493, Control_c, 0, 64, 0
2, 52513, Control_c, 0, 64, 127
2, 52538, Note_on_c, 0, 84, 0
2, 52560, Note_on_c, 0, 55, 30
2, 52663, Note_on_c, 0, 55, 0
2, 52671, Note_on_c, 0, 62, 34
2, 52675, Note_on_c, 0, 67, 33
2, 52683, Note_on_c, 0, 57, 29
2, 52796, Note_on_c, 0, 67, 0
2, 52821, Note_on_c, 0, 62, 0
2, 52859, Note_on_c, 0, 57, 0
2, 52889, Note_on_c, 0, 46, 0
2, 52934, Note_on_c, 0, 46, 36
2, 52963, Note_on_c, 0, 46, 0
2, 53113, Note_on_c, 0, 34, 31
2, 53133, Note_on_c, 0, 34, 0
2, 53289, Note_on_c, 0, 62, 32
2, 53291, Note_on_c, 0, 43, 32
2, 53291, Note_on_c, 0, 67, 38
2, 53291, Note_on_c, 0, 36, 32
2, 53292, Note_on_c, 0, 59, 36
2, 53292, Note_on_c, 0, 57, 38
2, 53298, Note_on_c, 0, 52, 32
2, 53310, Control_c, 0, 64, 0
2, 53364, Control_c, 0, 64, 127
2, 53423, Note_on_c, 0, 57, 0
2, 53423, Note_on_c, 0, 59, 0
2, 53442, Note_on_c, 0, 36, 0
2, 53450, Note_on_c, 0, 43, 0
2, 53456, Note_on_c, 0, 62, 0
2, 53457, Note_on_c, 0, 67, 0
2, 53469, Note_on_c, 0, 52, 0
2, 53700, Note_on_c, 0, 91, 39
2, 53703, Note_on_c, 0, 86, 48
2, 53704, Note_on_c, 0, 81, 25
2, 53704, Note_on_c, 0, 83, 24
2, 53705, Note_on_c, 0, 76, 33
2, 53822, Note_on_c, 0, 76, 0
2, 53822, Note_on_c, 0, 86, 0
2, 53824, Note_on_c, 0, 81, 0
2, 53825, Note_on_c, 0, 91, 0
2, 53825, Note_on_c, 0, 83, 0
2, 54114, Control_c, 0, 64, 0
2, 54114, End_track
0, 0, End_of_file
