0, 0, Header, 1, 2, 384
1, 0, Start_track
1, 0, Title_t, "untitled"
1, 0, Time_signature, 4, 2, 24, 8
1, 0, Key_signature, 0, "major"
1, 0, Tempo, 600000
1, 0, Sequencer_specific, 21, 67, 115, 10, 0, 5, 75, 79, 79, 79, 79, 79, 79, 79, 79, 79, 79, 79, 79, 79, 79, 79
1, 0, Sequencer_specific, 6, 67, 115, 10, 0, 4, 1
1, 0, Sequencer_specific, 9, 67, 123, 0, 88, 70, 48, 50, 0, 0
1, 0, Marker_t, "Midi starts at 7.00 seconds"
1, 1536, Tempo, 500000
1, 5385, Marker_t, "Starts here"
1, 5385, End_track
2, 0, Start_track
2, 0, Title_t, "Track 2"
2, 0, Control_c, 0, 0, 0
2, 0, Control_c, 0, 32, 122
2, 0, Program_c, 0, 0
2, 0, Control_c, 0, 7, 107
2, 0, Control_c, 0, 10, 64
2, 0, Control_c, 0, 91, 10
2, 0, Control_c, 0, 93, 0
2, 0, Note_on_c, 0, 57, 1
2, 70, Control_c, 0, 64, 0
2, 384, Note_on_c, 0, 57, 0
2, 4780, Control_c, 0, 94, 0
2, 4780, Control_c, 0, 101, 0
2, 4781, Control_c, 0, 100, 1
2, 4782, Control_c, 0, 6, 64
2, 4783, Control_c, 0, 38, 0
2, 4783, Control_c, 0, 71, 43
2, 4783, Control_c, 0, 74, 46
2, 5548, Note_on_c, 0, 71, 66
2, 5556, Note_on_c, 0, 43, 39
2, 5560, Note_on_c, 0, 55, 39
2, 5704, Control_c, 0, 64, 127
2, 5956, Note_on_c, 0, 55, 0
2, 6128, Note_on_c, 0, 55, 46
2, 6212, Note_on_c, 0, 71, 0
2, 6388, Note_on_c, 0, 55, 0
2, 6672, Note_on_c, 0, 65, 65
2, 6676, Note_on_c, 0, 72, 60
2, 6688, Note_on_c, 0, 69, 56
2, 6696, Note_on_c, 0, 55, 46
2, 6712, Note_on_c, 0, 43, 0
2, 6988, Note_on_c, 0, 55, 0
2, 7236, Note_on_c, 0, 55, 45
2, 7400, Note_on_c, 0, 55, 0
2, 7552, Note_on_c, 0, 65, 0
2, 7568, Note_on_c, 0, 69, 0
2, 7820, Note_on_c, 0, 72, 0
2, 8524, Note_on_c, 0, 65, 50
2, 8528, Note_on_c, 0, 72, 27
2, 8532, Note_on_c, 0, 74, 57
2, 8540, Note_on_c, 0, 64, 43
2, 8540, Note_on_c, 0, 69, 55
2, 8600, Note_on_c, 0, 64, 0
2, 8940, Note_on_c, 0, 74, 0
2, 8956, Note_on_c, 0, 72, 0
2, 8968, Note_on_c, 0, 65, 0
2, 8972, Note_on_c, 0, 69, 0
2, 9552, Control_c, 0, 64, 88
2, 9556, Control_c, 0, 64, 0
2, 9560, Note_on_c, 0, 36, 39
2, 9564, Note_on_c, 0, 64, 43
2, 9568, Note_on_c, 0, 71, 51
2, 9572, Note_on_c, 0, 52, 33
2, 9572, Note_on_c, 0, 76, 38
2, 9744, Control_c, 0, 64, 127
2, 9988, Note_on_c, 0, 52, 0
2, 10016, Note_on_c, 0, 36, 0
2, 10020, Note_on_c, 0, 43, 57
2, 10052, Note_on_c, 0, 43, 0
2, 10064, Note_on_c, 0, 64, 0
2, 10144, Note_on_c, 0, 71, 0
2, 10556, Note_on_c, 0, 67, 44
2, 10564, Note_on_c, 0, 71, 49
2, 10580, Note_on_c, 0, 60, 40
2, 10880, Note_on_c, 0, 71, 0
2, 10920, Note_on_c, 0, 67, 0
2, 11004, Note_on_c, 0, 76, 0
2, 11736, Note_on_c, 0, 60, 0
2, 11876, Note_on_c, 0, 74, 72
2, 11884, Note_on_c, 0, 59, 51
2, 11884, Note_on_c, 0, 71, 66
2, 11888, Note_on_c, 0, 68, 61
2, 11888, Note_on_c, 0, 65, 66
2, 11896, Control_c, 0, 64, 0
2, 11976, Control_c, 0, 64, 127
2, 12124, Note_on_c, 0, 65, 0
2, 12132, Note_on_c, 0, 71, 0
2, 12180, Note_on_c, 0, 68, 0
2, 12276, Note_on_c, 0, 74, 0
2, 12380, Control_c, 0, 64, 0
2, 12384, Note_on_c, 0, 59, 0
2, 12400, Note_on_c, 0, 76, 77
2, 12408, Note_on_c, 0, 60, 68
2, 12408, Note_on_c, 0, 69, 63
2, 12408, Note_on_c, 0, 72, 65
2, 12416, Note_on_c, 0, 67, 62
2, 12484, Control_c, 0, 64, 127
2, 12528, Note_on_c, 0, 67, 0
2, 12564, Note_on_c, 0, 74, 27
2, 12576, Note_on_c, 0, 69, 0
2, 12580, Note_on_c, 0, 60, 0
2, 12596, Note_on_c, 0, 72, 0
2, 12604, Note_on_c, 0, 74, 0
2, 12604, Note_on_c, 0, 76, 0
2, 12928, Note_on_c, 0, 81, 84
2, 12956, Note_on_c, 0, 77, 75
2, 12956, Note_on_c, 0, 74, 74
2, 12960, Note_on_c, 0, 69, 63
2, 12960, Control_c, 0, 64, 0
2, 12968, Note_on_c, 0, 70, 66
2, 13080, Control_c, 0, 64, 127
2, 13312, Note_on_c, 0, 69, 0
2, 13372, Note_on_c, 0, 77, 0
2, 13372, Note_on_c, 0, 81, 0
2, 13400, Note_on_c, 0, 74, 0
2, 13400, Note_on_c, 0, 70, 0
2, 13632, Note_on_c, 0, 70, 47
2, 13636, Note_on_c, 0, 79, 60
2, 13652, Note_on_c, 0, 67, 44
2, 13664, Note_on_c, 0, 77, 45
2, 13664, Note_on_c, 0, 74, 41
2, 13676, Control_c, 0, 64, 0
2, 13720, Control_c, 0, 64, 127
2, 13744, Note_on_c, 0, 67, 0
2, 13820, Note_on_c, 0, 79, 0
2, 13860, Note_on_c, 0, 77, 0
2, 13872, Note_on_c, 0, 74, 0
2, 13904, Note_on_c, 0, 70, 0
2, 14948, Control_c, 0, 64, 0
2, 14948, Note_on_c, 0, 76, 49
2, 14964, Note_on_c, 0, 70, 46
2, 14968, Note_on_c, 0, 64, 30
2, 14972, Note_on_c, 0, 58, 39
2, 15036, Control_c, 0, 64, 127
2, 15216, Note_on_c, 0, 76, 0
2, 15240, Note_on_c, 0, 58, 0
2, 15276, Note_on_c, 0, 64, 0
2, 15336, Note_on_c, 0, 70, 0
2, 15516, Note_on_c, 0, 74, 57
2, 15516, Control_c, 0, 64, 0
2, 15524, Note_on_c, 0, 58, 43
2, 15528, Note_on_c, 0, 64, 39
2, 15532, Note_on_c, 0, 69, 48
2, 15596, Control_c, 0, 64, 127
2, 15676, Note_on_c, 0, 69, 0
2, 15676, Note_on_c, 0, 74, 0
2, 15724, Note_on_c, 0, 64, 0
2, 16020, Note_on_c, 0, 58, 0
2, 16032, Note_on_c, 0, 72, 52
2, 16044, Note_on_c, 0, 64, 34
2, 16048, Note_on_c, 0, 57, 40
2, 16060, Note_on_c, 0, 67, 40
2, 16072, Control_c, 0, 64, 0
2, 16148, Control_c, 0, 64, 127
2, 16452, Note_on_c, 0, 67, 0
2, 16480, Note_on_c, 0, 72, 0
2, 16572, Note_on_c, 0, 57, 0
2, 16576, Note_on_c, 0, 64, 0
2, 17052, Note_on_c, 0, 69, 48
2, 17060, Note_on_c, 0, 60, 39
2, 17064, Note_on_c, 0, 65, 41
2, 17072, Control_c, 0, 64, 56
2, 17076, Control_c, 0, 64, 0
2, 17080, Note_on_c, 0, 50, 34
2, 17240, Control_c, 0, 64, 127
2, 17284, Note_on_c, 0, 60, 0
2, 17420, Note_on_c, 0, 69, 0
2, 17460, Note_on_c, 0, 65, 0
2, 17524, Note_on_c, 0, 50, 0
2, 17536, Note_on_c, 0, 57, 41
2, 18112, Note_on_c, 0, 65, 39
2, 18112, Note_on_c, 0, 69, 33
2, 18124, Note_on_c, 0, 64, 31
2, 18276, Note_on_c, 0, 64, 0
2, 18292, Note_on_c, 0, 65, 0
2, 18296, Note_on_c, 0, 69, 0
2, 18328, Note_on_c, 0, 57, 0
2, 19628, Note_on_c, 0, 31, 50
2, 19628, Note_on_c, 0, 62, 64
2, 19628, Note_on_c, 0, 53, 61
2, 19636, Note_on_c, 0, 60, 66
2, 19636, Note_on_c, 0, 57, 62
2, 19636, Control_c, 0, 64, 0
2, 19636, Note_on_c, 0, 43, 46
2, 19788, Control_c, 0, 64, 127
2, 20144, Note_on_c, 0, 31, 0
2, 20228, Note_on_c, 0, 43, 0
2, 20280, Note_on_c, 0, 57, 0
2, 20296, Note_on_c, 0, 53, 0
2, 20316, Note_on_c, 0, 60, 0
2, 20384, Note_on_c, 0, 62, 0
2, 21660, Note_on_c, 0, 64, 66
2, 21664, Note_on_c, 0, 56, 57
2, 21664, Note_on_c, 0, 53, 61
2, 21672, Note_on_c, 0, 59, 66
2, 21852, Note_on_c, 0, 53, 0
2, 21908, Note_on_c, 0, 59, 0
2, 21928, Note_on_c, 0, 56, 0
2, 21956, Note_on_c, 0, 64, 0
2, 22284, Note_on_c, 0, 65, 68
2, 22296, Note_on_c, 0, 57, 66
2, 22296, Note_on_c, 0, 60, 65
2, 22304, Note_on_c, 0, 55, 51
2, 22304, Note_on_c, 0, 62, 52
2, 22308, Control_c, 0, 64, 0
2, 22392, Control_c, 0, 64, 127
2, 22528, Note_on_c, 0, 55, 0
2, 22604, Note_on_c, 0, 57, 0
2, 22652, Note_on_c, 0, 65, 0
2, 22656, Note_on_c, 0, 62, 0
2, 22668, Note_on_c, 0, 60, 0
2, 23140, Control_c, 0, 64, 0
2, 23160, Note_on_c, 0, 67, 57
2, 23168, Note_on_c, 0, 56, 45
2, 23168, Note_on_c, 0, 28, 42
2, 23176, Note_on_c, 0, 40, 38
2, 23180, Note_on_c, 0, 62, 54
2, 23268, Control_c, 0, 64, 127
2, 23276, Note_on_c, 0, 56, 0
2, 23300, Note_on_c, 0, 28, 0
2, 23316, Note_on_c, 0, 62, 0
2, 23336, Note_on_c, 0, 67, 0
2, 23368, Note_on_c, 0, 40, 0
2, 23816, Note_on_c, 0, 79, 59
2, 23820, Note_on_c, 0, 74, 47
2, 23832, Note_on_c, 0, 56, 41
2, 23832, Note_on_c, 0, 67, 37
2, 23836, Note_on_c, 0, 62, 37
2, 24080, Note_on_c, 0, 62, 0
2, 24120, Note_on_c, 0, 67, 0
2, 24124, Note_on_c, 0, 56, 0
2, 24148, Note_on_c, 0, 74, 0
2, 24152, Note_on_c, 0, 79, 0
2, 24368, Note_on_c, 0, 79, 51
2, 24376, Note_on_c, 0, 67, 38
2, 24376, Note_on_c, 0, 56, 40
2, 24384, Note_on_c, 0, 74, 50
2, 24384, Note_on_c, 0, 62, 42
2, 24576, Note_on_c, 0, 62, 0
2, 24584, Note_on_c, 0, 56, 0
2, 24592, Note_on_c, 0, 67, 0
2, 24628, Note_on_c, 0, 79, 0
2, 24692, Note_on_c, 0, 74, 0
2, 24996, Note_on_c, 0, 56, 32
2, 25028, Note_on_c, 0, 67, 19
2, 25028, Note_on_c, 0, 62, 37
2, 25212, Note_on_c, 0, 62, 0
2, 25236, Note_on_c, 0, 67, 0
2, 25356, Note_on_c, 0, 56, 0
2, 25488, Note_on_c, 0, 81, 72
2, 25724, Note_on_c, 0, 81, 0
2, 25732, Control_c, 0, 64, 0
2, 25756, Note_on_c, 0, 45, 51
2, 25784, Note_on_c, 0, 79, 75
2, 25812, Control_c, 0, 64, 127
2, 25840, Note_on_c, 0, 45, 0
2, 26140, Note_on_c, 0, 65, 43
2, 26152, Note_on_c, 0, 60, 31
2, 26160, Note_on_c, 0, 61, 31
2, 26176, Note_on_c, 0, 55, 39
2, 26304, Note_on_c, 0, 61, 0
2, 26320, Note_on_c, 0, 60, 0
2, 26344, Note_on_c, 0, 55, 0
2, 26372, Note_on_c, 0, 65, 0
2, 26592, Note_on_c, 0, 65, 29
2, 26604, Note_on_c, 0, 61, 38
2, 26608, Note_on_c, 0, 60, 35
2, 26616, Note_on_c, 0, 55, 41
2, 26648, Note_on_c, 0, 79, 0
2, 26792, Note_on_c, 0, 61, 0
2, 26804, Note_on_c, 0, 55, 0
2, 26836, Note_on_c, 0, 60, 0
2, 26860, Note_on_c, 0, 65, 0
2, 26916, Note_on_c, 0, 76, 81
2, 27176, Note_on_c, 0, 76, 0
2, 27188, Note_on_c, 0, 65, 43
2, 27192, Note_on_c, 0, 72, 73
2, 27196, Note_on_c, 0, 61, 39
2, 27196, Note_on_c, 0, 55, 43
2, 27204, Note_on_c, 0, 60, 41
2, 27368, Note_on_c, 0, 55, 0
2, 27380, Note_on_c, 0, 60, 0
2, 27392, Note_on_c, 0, 65, 0
2, 27396, Note_on_c, 0, 61, 0
2, 27532, Note_on_c, 0, 65, 47
2, 27548, Note_on_c, 0, 61, 37
2, 27552, Note_on_c, 0, 60, 44
2, 27572, Note_on_c, 0, 55, 33
2, 27732, Note_on_c, 0, 55, 0
2, 27740, Note_on_c, 0, 65, 0
2, 27752, Note_on_c, 0, 61, 0
2, 27764, Note_on_c, 0, 72, 0
2, 27764, Note_on_c, 0, 60, 0
2, 28344, Note_on_c, 0, 65, 25
2, 28344, Note_on_c, 0, 76, 61
2, 28352, Note_on_c, 0, 55, 36
2, 28400, Note_on_c, 0, 65, 0
2, 28460, Note_on_c, 0, 76, 0
2, 28464, Note_on_c, 0, 55, 0
2, 28784, Note_on_c, 0, 74, 62
2, 28808, Note_on_c, 0, 67, 43
2, 28812, Note_on_c, 0, 39, 47
2, 28820, Control_c, 0, 64, 0
2, 28828, Note_on_c, 0, 62, 34
2, 28944, Control_c, 0, 64, 127
2, 29020, Note_on_c, 0, 39, 0
2, 29048, Note_on_c, 0, 46, 45
2, 29136, Note_on_c, 0, 62, 0
2, 29184, Note_on_c, 0, 46, 0
2, 29224, Note_on_c, 0, 67, 0
2, 29244, Note_on_c, 0, 74, 0
2, 29244, Note_on_c, 0, 55, 53
2, 29404, Note_on_c, 0, 55, 0
2, 29424, Note_on_c, 0, 58, 38
2, 29556, Note_on_c, 0, 60, 55
2, 29652, Note_on_c, 0, 60, 0
2, 29684, Note_on_c, 0, 62, 56
2, 29780, Note_on_c, 0, 62, 0
2, 29792, Note_on_c, 0, 63, 57
2, 29816, Note_on_c, 0, 63, 0
2, 29864, Note_on_c, 0, 65, 69
2, 29956, Note_on_c, 0, 65, 0
2, 29964, Note_on_c, 0, 67, 72
2, 30036, Note_on_c, 0, 69, 62
2, 30056, Note_on_c, 0, 67, 0
2, 30096, Note_on_c, 0, 70, 68
2, 30108, Note_on_c, 0, 69, 0
2, 30124, Note_on_c, 0, 70, 0
2, 30168, Note_on_c, 0, 72, 66
2, 30252, Note_on_c, 0, 74, 70
2, 30256, Note_on_c, 0, 72, 0
2, 30316, Note_on_c, 0, 75, 63
2, 30320, Note_on_c, 0, 74, 0
2, 30392, Note_on_c, 0, 77, 68
2, 30416, Note_on_c, 0, 75, 0
2, 30476, Note_on_c, 0, 79, 42
2, 30492, Note_on_c, 0, 77, 0
2, 30540, Note_on_c, 0, 79, 0
2, 30556, Note_on_c, 0, 82, 63
2, 30584, Note_on_c, 0, 82, 0
2, 30636, Note_on_c, 0, 84, 56
2, 30712, Note_on_c, 0, 84, 0
2, 30736, Note_on_c, 0, 86, 46
2, 30776, Note_on_c, 0, 86, 0
2, 30780, Note_on_c, 0, 87, 63
2, 30858, Note_on_c, 0, 87, 0
2, 30876, Note_on_c, 0, 89, 68
2, 30956, Note_on_c, 0, 89, 0
2, 30956, Note_on_c, 0, 91, 54
2, 31040, Note_on_c, 0, 58, 0
2, 31052, Note_on_c, 0, 93, 34
2, 31088, Note_on_c, 0, 93, 0
2, 31112, Note_on_c, 0, 91, 0
2, 31120, Note_on_c, 0, 94, 56
2, 31148, Note_on_c, 0, 94, 0
2, 31244, Note_on_c, 0, 95, 46
2, 31332, Note_on_c, 0, 95, 0
2, 31336, Note_on_c, 0, 96, 40
2, 31456, Note_on_c, 0, 96, 0
2, 31468, Note_on_c, 0, 97, 58
2, 31596, Note_on_c, 0, 97, 0
2, 31620, Note_on_c, 0, 98, 47
2, 31712, Note_on_c, 0, 98, 0
2, 31796, Note_on_c, 0, 98, 43
2, 31804, Note_on_c, 0, 60, 39
2, 31808, Control_c, 0, 64, 0
2, 31812, Note_on_c, 0, 50, 40
2, 31956, Control_c, 0, 64, 127
2, 32040, Note_on_c, 0, 98, 0
2, 32224, Note_on_c, 0, 60, 0
2, 32308, Note_on_c, 0, 57, 23
2, 32356, Note_on_c, 0, 50, 0
2, 32400, Note_on_c, 0, 57, 0
2, 32960, Note_on_c, 0, 65, 39
2, 32968, Note_on_c, 0, 71, 50
2, 32968, Note_on_c, 0, 68, 46
2, 32980, Note_on_c, 0, 64, 39
2, 33364, Note_on_c, 0, 64, 0
2, 33388, Note_on_c, 0, 62, 50
2, 33464, Note_on_c, 0, 65, 0
2, 33536, Note_on_c, 0, 68, 0
2, 33660, Note_on_c, 0, 71, 0
2, 33712, Note_on_c, 0, 62, 0
2, 33768, Note_on_c, 0, 72, 54
2, 33772, Note_on_c, 0, 65, 49
2, 33776, Note_on_c, 0, 69, 56
2, 33784, Note_on_c, 0, 60, 40
2, 33792, Control_c, 0, 64, 0
2, 33876, Control_c, 0, 64, 127
2, 34132, Note_on_c, 0, 60, 0
2, 34144, Note_on_c, 0, 57, 49
2, 34176, Note_on_c, 0, 57, 0
2, 34284, Note_on_c, 0, 72, 0
2, 34316, Note_on_c, 0, 65, 0
2, 34372, Note_on_c, 0, 69, 0
2, 34528, Note_on_c, 0, 50, 49
2, 34936, Note_on_c, 0, 43, 50
2, 34956, Note_on_c, 0, 74, 57
2, 34968, Note_on_c, 0, 71, 48
2, 34972, Note_on_c, 0, 50, 0
2, 34972, Note_on_c, 0, 68, 42
2, 34992, Note_on_c, 0, 65, 21
2, 35028, Note_on_c, 0, 43, 0
2, 35128, Note_on_c, 0, 65, 0
2, 35132, Note_on_c, 0, 74, 0
2, 35144, Note_on_c, 0, 71, 0
2, 35160, Note_on_c, 0, 68, 0
2, 35428, Note_on_c, 0, 36, 55
2, 35432, Note_on_c, 0, 71, 65
2, 35432, Note_on_c, 0, 76, 62
2, 35440, Note_on_c, 0, 64, 54
2, 35456, Note_on_c, 0, 52, 49
2, 35472, Control_c, 0, 64, 0
2, 35644, Control_c, 0, 64, 127
2, 35788, Note_on_c, 0, 43, 77
2, 35800, Note_on_c, 0, 52, 0
2, 35828, Note_on_c, 0, 36, 0
2, 36124, Note_on_c, 0, 52, 74
2, 36128, Note_on_c, 0, 43, 0
2, 36192, Note_on_c, 0, 52, 0
2, 36280, Note_on_c, 0, 76, 0
2, 36348, Note_on_c, 0, 64, 0
2, 36456, Note_on_c, 0, 59, 87
2, 36724, Note_on_c, 0, 71, 0
2, 36832, Note_on_c, 0, 59, 0
2, 36832, Note_on_c, 0, 71, 76
2, 36832, Note_on_c, 0, 67, 75
2, 36836, Note_on_c, 0, 62, 81
2, 36836, Note_on_c, 0, 64, 71
2, 36884, Control_c, 0, 64, 0
2, 37040, Control_c, 0, 64, 40
2, 37044, Control_c, 0, 64, 127
2, 37304, Note_on_c, 0, 61, 76
2, 37332, Control_c, 0, 64, 0
2, 37344, Note_on_c, 0, 62, 0
2, 37444, Control_c, 0, 64, 127
2, 37472, Note_on_c, 0, 73, 3
2, 37508, Note_on_c, 0, 71, 0
2, 37536, Note_on_c, 0, 64, 0
2, 37548, Note_on_c, 0, 67, 0
2, 37576, Note_on_c, 0, 73, 0
2, 38088, Note_on_c, 0, 60, 68
2, 38124, Note_on_c, 0, 61, 0
2, 38516, Note_on_c, 0, 60, 0
2, 38732, Control_c, 0, 64, 0
2, 38736, Note_on_c, 0, 74, 63
2, 38748, Note_on_c, 0, 68, 57
2, 38748, Note_on_c, 0, 58, 51
2, 38748, Note_on_c, 0, 54, 37
2, 38748, Note_on_c, 0, 64, 49
2, 38756, Note_on_c, 0, 72, 51
2, 38848, Control_c, 0, 64, 127
2, 38964, Note_on_c, 0, 58, 0
2, 38968, Note_on_c, 0, 54, 0
2, 38980, Note_on_c, 0, 64, 0
2, 38988, Note_on_c, 0, 74, 0
2, 38988, Note_on_c, 0, 72, 0
2, 39024, Note_on_c, 0, 68, 0
2, 39272, Control_c, 0, 64, 0
2, 39276, Note_on_c, 0, 76, 60
2, 39280, Note_on_c, 0, 72, 56
2, 39284, Note_on_c, 0, 68, 55
2, 39284, Note_on_c, 0, 58, 39
2, 39288, Note_on_c, 0, 64, 49
2, 39300, Note_on_c, 0, 52, 43
2, 39332, Note_on_c, 0, 60, 26
2, 39376, Control_c, 0, 64, 127
2, 39412, Note_on_c, 0, 60, 0
2, 39452, Note_on_c, 0, 64, 0
2, 39484, Note_on_c, 0, 72, 0
2, 39504, Note_on_c, 0, 68, 0
2, 39508, Note_on_c, 0, 76, 0
2, 39796, Note_on_c, 0, 81, 76
2, 39816, Note_on_c, 0, 70, 53
2, 39820, Note_on_c, 0, 64, 48
2, 39820, Note_on_c, 0, 76, 56
2, 39828, Note_on_c, 0, 74, 51
2, 39916, Note_on_c, 0, 52, 0
2, 39984, Note_on_c, 0, 81, 0
2, 40008, Note_on_c, 0, 74, 0
2, 40012, Note_on_c, 0, 58, 0
2, 40044, Note_on_c, 0, 70, 0
2, 40056, Note_on_c, 0, 64, 0
2, 40080, Note_on_c, 0, 76, 0
2, 40124, Note_on_c, 0, 78, 31
2, 40164, Note_on_c, 0, 78, 0
2, 40308, Note_on_c, 0, 79, 68
2, 40316, Note_on_c, 0, 73, 52
2, 40316, Note_on_c, 0, 76, 48
2, 40316, Note_on_c, 0, 67, 43
2, 40324, Control_c, 0, 64, 0
2, 40324, Note_on_c, 0, 64, 43
2, 40328, Note_on_c, 0, 58, 42
2, 40400, Control_c, 0, 64, 127
2, 40456, Note_on_c, 0, 77, 2
2, 40472, Note_on_c, 0, 76, 0
2, 40496, Note_on_c, 0, 79, 0
2, 40520, Note_on_c, 0, 67, 0
2, 40520, Note_on_c, 0, 58, 0
2, 40528, Note_on_c, 0, 77, 0
2, 40532, Note_on_c, 0, 73, 0
2, 40540, Note_on_c, 0, 64, 0
2, 40828, Note_on_c, 0, 76, 62
2, 40848, Note_on_c, 0, 68, 49
2, 40848, Note_on_c, 0, 73, 47
2, 40852, Note_on_c, 0, 64, 40
2, 40860, Note_on_c, 0, 58, 43
2, 41124, Note_on_c, 0, 76, 0
2, 41140, Note_on_c, 0, 58, 0
2, 41144, Note_on_c, 0, 64, 0
2, 41180, Note_on_c, 0, 73, 0
2, 41188, Note_on_c, 0, 68, 0
2, 41404, Note_on_c, 0, 74, 66
2, 41408, Note_on_c, 0, 69, 57
2, 41408, Note_on_c, 0, 64, 54
2, 41416, Note_on_c, 0, 58, 43
2, 41424, Control_c, 0, 64, 0
2, 41536, Control_c, 0, 64, 127
2, 41652, Note_on_c, 0, 74, 0
2, 41660, Note_on_c, 0, 69, 0
2, 41684, Note_on_c, 0, 64, 0
2, 41976, Note_on_c, 0, 72, 57
2, 41980, Control_c, 0, 64, 0
2, 41992, Note_on_c, 0, 58, 0
2, 41992, Note_on_c, 0, 62, 39
2, 41992, Note_on_c, 0, 67, 49
2, 42016, Note_on_c, 0, 57, 39
2, 42052, Control_c, 0, 64, 127
2, 42172, Note_on_c, 0, 57, 0
2, 42172, Note_on_c, 0, 67, 0
2, 42172, Note_on_c, 0, 72, 0
2, 42224, Note_on_c, 0, 62, 0
2, 42688, Note_on_c, 0, 69, 38
2, 42688, Note_on_c, 0, 61, 40
2, 42696, Note_on_c, 0, 66, 31
2, 42704, Note_on_c, 0, 65, 45
2, 42716, Note_on_c, 0, 55, 44
2, 42716, Note_on_c, 0, 39, 31
2, 42720, Note_on_c, 0, 57, 40
2, 42728, Note_on_c, 0, 46, 32
2, 42744, Control_c, 0, 64, 0
2, 42976, Control_c, 0, 64, 127
2, 43148, Note_on_c, 0, 57, 0
2, 43184, Note_on_c, 0, 55, 0
2, 43232, Note_on_c, 0, 61, 0
2, 43336, Note_on_c, 0, 65, 0
2, 43404, Note_on_c, 0, 69, 0
2, 43436, Note_on_c, 0, 61, 32
2, 43448, Note_on_c, 0, 55, 35
2, 43456, Note_on_c, 0, 57, 32
2, 43604, Note_on_c, 0, 57, 0
2, 43604, Note_on_c, 0, 66, 0
2, 43608, Note_on_c, 0, 39, 0
2, 43616, Note_on_c, 0, 55, 0
2, 43640, Note_on_c, 0, 46, 0
2, 43680, Note_on_c, 0, 61, 0
2, 44180, Note_on_c, 0, 54, 37
2, 44184, Note_on_c, 0, 50, 33
2, 44188, Control_c, 0, 64, 0
2, 44200, Note_on_c, 0, 38, 31
2, 44200, Note_on_c, 0, 45, 27
2, 44200, Note_on_c, 0, 60, 44
2, 44300, Control_c, 0, 64, 127
2, 44320, Note_on_c, 0, 54, 0
2, 44404, Note_on_c, 0, 38, 0
2, 44420, Note_on_c, 0, 45, 0
2, 44424, Note_on_c, 0, 60, 0
2, 44492, Note_on_c, 0, 50, 0
2, 45372, Note_on_c, 0, 71, 80
2, 45392, Note_on_c, 0, 59, 59
2, 45692, Note_on_c, 0, 59, 0
2, 45712, Note_on_c, 0, 71, 0
2, 45812, Note_on_c, 0, 71, 66
2, 45828, Note_on_c, 0, 59, 54
2, 45984, Note_on_c, 0, 59, 0
2, 45984, Note_on_c, 0, 71, 0
2, 46292, Note_on_c, 0, 65, 56
2, 46296, Note_on_c, 0, 69, 56
2, 46296, Note_on_c, 0, 64, 57
2, 46296, Note_on_c, 0, 72, 62
2, 46352, Control_c, 0, 64, 0
2, 46460, Control_c, 0, 64, 127
2, 46712, Note_on_c, 0, 63, 59
2, 46764, Note_on_c, 0, 64, 0
2, 46892, Note_on_c, 0, 65, 0
2, 46920, Note_on_c, 0, 69, 0
2, 47032, Note_on_c, 0, 72, 0
2, 47148, Note_on_c, 0, 74, 55
2, 47148, Note_on_c, 0, 65, 46
2, 47152, Note_on_c, 0, 63, 0
2, 47156, Note_on_c, 0, 68, 48
2, 47164, Note_on_c, 0, 62, 50
2, 47176, Note_on_c, 0, 71, 43
2, 47176, Control_c, 0, 64, 0
2, 47308, Control_c, 0, 64, 127
2, 48236, Note_on_c, 0, 62, 0
2, 48256, Note_on_c, 0, 59, 43
2, 48356, Note_on_c, 0, 65, 0
2, 48360, Note_on_c, 0, 59, 0
2, 48400, Note_on_c, 0, 71, 0
2, 48448, Note_on_c, 0, 68, 0
2, 48608, Note_on_c, 0, 74, 0
2, 49548, Note_on_c, 0, 68, 36
2, 49556, Note_on_c, 0, 76, 44
2, 49568, Note_on_c, 0, 67, 32
2, 49572, Note_on_c, 0, 72, 47
2, 49580, Note_on_c, 0, 62, 41
2, 49588, Note_on_c, 0, 58, 35
2, 49600, Control_c, 0, 64, 0
2, 49712, Note_on_c, 0, 58, 0
2, 49716, Note_on_c, 0, 76, 0
2, 49724, Note_on_c, 0, 68, 0
2, 49728, Note_on_c, 0, 72, 0
2, 49732, Note_on_c, 0, 67, 0
2, 49736, Note_on_c, 0, 62, 0
2, 49944, Note_on_c, 0, 68, 27
2, 49944, Note_on_c, 0, 76, 34
2, 49948, Note_on_c, 0, 67, 22
2, 49964, Note_on_c, 0, 72, 33
2, 49964, Note_on_c, 0, 58, 32
2, 49964, Note_on_c, 0, 62, 40
2, 50108, Note_on_c, 0, 58, 0
2, 50128, Note_on_c, 0, 67, 0
2, 50132, Note_on_c, 0, 72, 0
2, 50132, Note_on_c, 0, 68, 0
2, 50132, Note_on_c, 0, 76, 0
2, 50136, Note_on_c, 0, 62, 0
2, 50332, Control_c, 0, 64, 127
2, 50368, Note_on_c, 0, 76, 42
2, 50368, Note_on_c, 0, 68, 31
2, 50380, Note_on_c, 0, 72, 39
2, 50380, Note_on_c, 0, 62, 43
2, 50388, Note_on_c, 0, 67, 25
2, 50392, Note_on_c, 0, 58, 33
2, 50800, Note_on_c, 0, 62, 0
2, 50896, Note_on_c, 0, 67, 0
2, 50932, Note_on_c, 0, 68, 0
2, 51000, Note_on_c, 0, 72, 0
2, 51024, Note_on_c, 0, 58, 0
2, 51084, Note_on_c, 0, 76, 0
2, 51476, Note_on_c, 0, 67, 52
2, 51480, Note_on_c, 0, 77, 73
2, 51484, Note_on_c, 0, 72, 63
2, 51484, Control_c, 0, 64, 0
2, 51488, Note_on_c, 0, 61, 48
2, 51488, Note_on_c, 0, 57, 44
2, 51560, Control_c, 0, 64, 127
2, 51776, Note_on_c, 0, 77, 0
2, 51792, Note_on_c, 0, 67, 0
2, 51808, Note_on_c, 0, 72, 0
2, 51824, Note_on_c, 0, 57, 0
2, 51884, Note_on_c, 0, 61, 0
2, 53420, Control_c, 0, 64, 0
2, 53428, Note_on_c, 0, 66, 38
2, 53428, Note_on_c, 0, 72, 52
2, 53428, Note_on_c, 0, 76, 61
2, 53444, Note_on_c, 0, 56, 32
2, 53448, Note_on_c, 0, 60, 49
2, 53516, Control_c, 0, 64, 127
2, 53568, Note_on_c, 0, 60, 0
2, 53600, Note_on_c, 0, 72, 0
2, 53604, Note_on_c, 0, 76, 0
2, 53616, Note_on_c, 0, 66, 0
2, 53648, Note_on_c, 0, 56, 0
2, 53880, Control_c, 0, 64, 0
2, 53912, Note_on_c, 0, 74, 48
2, 53924, Note_on_c, 0, 59, 45
2, 53936, Note_on_c, 0, 68, 41
2, 53936, Note_on_c, 0, 55, 33
2, 53936, Note_on_c, 0, 71, 41
2, 53944, Note_on_c, 0, 65, 23
2, 53952, Control_c, 0, 64, 127
2, 54028, Note_on_c, 0, 59, 0
2, 54052, Note_on_c, 0, 71, 0
2, 54080, Note_on_c, 0, 55, 0
2, 54084, Note_on_c, 0, 68, 0
2, 54092, Note_on_c, 0, 74, 0
2, 54092, Note_on_c, 0, 65, 0
2, 54532, Note_on_c, 0, 72, 52
2, 54544, Note_on_c, 0, 60, 41
2, 54548, Note_on_c, 0, 65, 44
2, 54552, Note_on_c, 0, 55, 40
2, 54552, Note_on_c, 0, 69, 50
2, 54584, Control_c, 0, 64, 0
2, 54672, Control_c, 0, 64, 127
2, 54920, Note_on_c, 0, 60, 0
2, 54944, Note_on_c, 0, 65, 0
2, 54956, Note_on_c, 0, 72, 0
2, 54984, Note_on_c, 0, 69, 0
2, 55280, Note_on_c, 0, 43, 39
2, 55280, Note_on_c, 0, 74, 56
2, 55492, Note_on_c, 0, 55, 0
2, 55580, Note_on_c, 0, 74, 0
2, 55600, Note_on_c, 0, 43, 0
2, 56344, Note_on_c, 0, 65, 42
2, 56348, Control_c, 0, 64, 0
2, 56352, Note_on_c, 0, 72, 42
2, 56356, Note_on_c, 0, 37, 42
2, 56364, Note_on_c, 0, 60, 39
2, 56464, Control_c, 0, 64, 127
2, 56564, Note_on_c, 0, 37, 0
2, 56672, Note_on_c, 0, 44, 36
2, 56704, Note_on_c, 0, 60, 0
2, 56752, Note_on_c, 0, 72, 0
2, 56756, Note_on_c, 0, 65, 0
2, 56892, Note_on_c, 0, 44, 0
2, 56920, Note_on_c, 0, 53, 42
2, 57088, Note_on_c, 0, 53, 0
2, 57096, Note_on_c, 0, 56, 42
2, 57260, Note_on_c, 0, 60, 46
2, 57324, Note_on_c, 0, 60, 0
2, 57392, Note_on_c, 0, 61, 40
2, 57480, Note_on_c, 0, 61, 0
2, 57492, Note_on_c, 0, 63, 48
2, 57532, Note_on_c, 0, 63, 0
2, 57584, Note_on_c, 0, 65, 66
2, 57592, Note_on_c, 0, 60, 32
2, 57668, Note_on_c, 0, 65, 0
2, 57668, Note_on_c, 0, 67, 74
2, 57700, Note_on_c, 0, 63, 24
2, 57732, Note_on_c, 0, 68, 68
2, 57768, Note_on_c, 0, 67, 0
2, 57808, Note_on_c, 0, 63, 0
2, 57820, Note_on_c, 0, 70, 59
2, 57828, Note_on_c, 0, 68, 0
2, 57844, Note_on_c, 0, 70, 0
2, 57876, Note_on_c, 0, 72, 76
2, 57916, Note_on_c, 0, 60, 0
2, 57936, Note_on_c, 0, 56, 0
2, 57940, Note_on_c, 0, 72, 0
2, 57960, Note_on_c, 0, 73, 64
2, 58024, Note_on_c, 0, 75, 68
2, 58036, Note_on_c, 0, 73, 0
2, 58052, Note_on_c, 0, 75, 0
2, 58104, Note_on_c, 0, 77, 68
2, 58204, Note_on_c, 0, 79, 63
2, 58208, Note_on_c, 0, 77, 0
2, 58248, Note_on_c, 0, 80, 63
2, 58308, Note_on_c, 0, 79, 0
2, 58324, Note_on_c, 0, 80, 0
2, 58336, Note_on_c, 0, 82, 63
2, 58368, Note_on_c, 0, 82, 0
2, 58448, Note_on_c, 0, 84, 47
2, 58488, Note_on_c, 0, 84, 0
2, 58540, Note_on_c, 0, 85, 57
2, 58612, Note_on_c, 0, 85, 0
2, 58656, Note_on_c, 0, 87, 58
2, 58688, Note_on_c, 0, 87, 0
2, 58740, Note_on_c, 0, 88, 55
2, 58840, Note_on_c, 0, 88, 0
2, 58864, Note_on_c, 0, 89, 43
2, 58924, Note_on_c, 0, 89, 0
2, 58948, Note_on_c, 0, 90, 55
2, 59028, Note_on_c, 0, 90, 0
2, 59064, Note_on_c, 0, 91, 68
2, 59120, Note_on_c, 0, 91, 0
2, 59196, Note_on_c, 0, 92, 50
2, 59260, Note_on_c, 0, 92, 0
2, 59320, Note_on_c, 0, 93, 53
2, 59416, Note_on_c, 0, 93, 0
2, 59416, Note_on_c, 0, 94, 55
2, 59540, Note_on_c, 0, 94, 0
2, 59560, Note_on_c, 0, 95, 52
2, 59660, Note_on_c, 0, 95, 0
2, 59688, Note_on_c, 0, 96, 57
2, 59792, Note_on_c, 0, 96, 0
2, 59832, Note_on_c, 0, 98, 68
2, 59976, Note_on_c, 0, 98, 0
2, 60020, Note_on_c, 0, 95, 56
2, 60200, Note_on_c, 0, 95, 0
2, 60236, Note_on_c, 0, 96, 49
2, 60240, Note_on_c, 0, 36, 46
2, 60272, Note_on_c, 0, 52, 33
2, 60280, Control_c, 0, 64, 0
2, 60400, Control_c, 0, 64, 127
2, 60484, Note_on_c, 0, 96, 0
2, 60684, Note_on_c, 0, 52, 0
2, 60724, Note_on_c, 0, 36, 0
2, 60732, Note_on_c, 0, 43, 38
2, 60776, Note_on_c, 0, 43, 0
2, 61284, Note_on_c, 0, 79, 57
2, 61284, Note_on_c, 0, 71, 49
2, 61292, Note_on_c, 0, 67, 48
2, 61296, Note_on_c, 0, 74, 49
2, 61724, Note_on_c, 0, 71, 0
2, 61772, Note_on_c, 0, 74, 0
2, 61784, Note_on_c, 0, 79, 0
2, 61788, Note_on_c, 0, 67, 0
2, 61812, Note_on_c, 0, 55, 50
2, 61924, Note_on_c, 0, 55, 0
2, 62472, Note_on_c, 0, 65, 61
2, 62484, Note_on_c, 0, 60, 52
2, 62488, Note_on_c, 0, 69, 62
2, 62496, Note_on_c, 0, 55, 48
2, 62552, Control_c, 0, 64, 0
2, 62736, Control_c, 0, 64, 127
2, 62912, Note_on_c, 0, 43, 70
2, 63056, Note_on_c, 0, 65, 0
2, 63100, Note_on_c, 0, 60, 0
2, 63100, Note_on_c, 0, 69, 0
2, 63116, Note_on_c, 0, 55, 0
2, 63244, Note_on_c, 0, 43, 0
2, 63800, Control_c, 0, 64, 0
2, 63812, Note_on_c, 0, 71, 72
2, 63816, Note_on_c, 0, 41, 57
2, 63820, Note_on_c, 0, 53, 49
2, 63824, Note_on_c, 0, 67, 58
2, 63824, Note_on_c, 0, 62, 69
2, 63908, Note_on_c, 0, 53, 0
2, 63908, Note_on_c, 0, 41, 0
2, 63912, Control_c, 0, 64, 127
2, 63960, Note_on_c, 0, 62, 0
2, 63992, Note_on_c, 0, 67, 0
2, 64020, Note_on_c, 0, 71, 0
2, 64292, Control_c, 0, 64, 0
2, 64296, Note_on_c, 0, 40, 64
2, 64304, Note_on_c, 0, 72, 81
2, 64312, Note_on_c, 0, 67, 74
2, 64312, Note_on_c, 0, 64, 74
2, 64316, Note_on_c, 0, 55, 44
2, 64424, Control_c, 0, 64, 127
2, 64476, Note_on_c, 0, 40, 0
2, 64564, Note_on_c, 0, 55, 0
2, 64716, Note_on_c, 0, 64, 0
2, 64764, Note_on_c, 0, 59, 73
2, 64784, Note_on_c, 0, 67, 0
2, 65384, Note_on_c, 0, 60, 63
2, 65388, Note_on_c, 0, 59, 0
2, 65680, Note_on_c, 0, 72, 0
2, 65884, Note_on_c, 0, 71, 76
2, 65936, Note_on_c, 0, 60, 0
2, 66096, Note_on_c, 0, 71, 0
2, 66472, Note_on_c, 0, 71, 61
2, 66484, Note_on_c, 0, 48, 39
2, 66496, Note_on_c, 0, 64, 39
2, 66512, Control_c, 0, 64, 0
2, 66516, Note_on_c, 0, 57, 40
2, 66708, Control_c, 0, 64, 127
2, 66868, Note_on_c, 0, 71, 0
2, 67432, Note_on_c, 0, 69, 60
2, 67448, Note_on_c, 0, 41, 43
2, 67532, Note_on_c, 0, 41, 0
2, 67656, Note_on_c, 0, 57, 0
2, 67932, Note_on_c, 0, 69, 0
2, 67952, Note_on_c, 0, 48, 0
2, 67968, Note_on_c, 0, 64, 0
2, 68456, Note_on_c, 0, 67, 49
2, 68464, Note_on_c, 0, 59, 35
2, 68476, Note_on_c, 0, 62, 44
2, 68488, Note_on_c, 0, 53, 46
2, 68504, Control_c, 0, 64, 0
2, 68652, Control_c, 0, 64, 127
2, 68856, Note_on_c, 0, 53, 0
2, 68972, Note_on_c, 0, 53, 47
2, 69256, Note_on_c, 0, 53, 0
2, 69480, Note_on_c, 0, 53, 43
2, 69584, Note_on_c, 0, 59, 0
2, 69632, Note_on_c, 0, 67, 0
2, 69696, Note_on_c, 0, 62, 0
2, 69900, Note_on_c, 0, 53, 0
2, 69924, Note_on_c, 0, 69, 60
2, 70160, Note_on_c, 0, 69, 0
2, 70324, Control_c, 0, 64, 0
2, 70340, Note_on_c, 0, 67, 61
2, 70344, Note_on_c, 0, 60, 52
2, 70352, Note_on_c, 0, 52, 41
2, 70412, Control_c, 0, 64, 127
2, 70496, Note_on_c, 0, 52, 0
2, 70516, Note_on_c, 0, 67, 0
2, 70540, Note_on_c, 0, 60, 0
2, 70836, Note_on_c, 0, 64, 52
2, 70844, Control_c, 0, 64, 0
2, 70844, Note_on_c, 0, 56, 34
2, 70852, Note_on_c, 0, 46, 37
2, 70856, Note_on_c, 0, 60, 44
2, 70956, Control_c, 0, 64, 127
2, 71012, Note_on_c, 0, 56, 0
2, 71016, Note_on_c, 0, 64, 0
2, 71036, Note_on_c, 0, 60, 0
2, 71072, Note_on_c, 0, 46, 0
2, 71400, Control_c, 0, 64, 0
2, 71428, Note_on_c, 0, 60, 47
2, 71440, Note_on_c, 0, 45, 36
2, 71444, Note_on_c, 0, 57, 41
2, 71448, Note_on_c, 0, 52, 35
2, 71452, Note_on_c, 0, 55, 31
2, 71532, Control_c, 0, 64, 127
2, 71568, Note_on_c, 0, 55, 0
2, 71572, Note_on_c, 0, 57, 0
2, 71588, Note_on_c, 0, 60, 0
2, 71600, Note_on_c, 0, 45, 0
2, 71636, Note_on_c, 0, 52, 0
2, 71972, Note_on_c, 0, 76, 57
2, 71988, Note_on_c, 0, 72, 53
2, 72012, Note_on_c, 0, 69, 39
2, 72024, Note_on_c, 0, 64, 36
2, 72028, Note_on_c, 0, 67, 31
2, 72116, Note_on_c, 0, 64, 0
2, 72160, Note_on_c, 0, 69, 0
2, 72160, Note_on_c, 0, 67, 0
2, 72164, Note_on_c, 0, 72, 0
2, 72212, Note_on_c, 0, 76, 0
2, 72668, Note_on_c, 0, 72, 28
2, 72668, Note_on_c, 0, 69, 27
2, 72672, Note_on_c, 0, 67, 33
2, 72672, Note_on_c, 0, 76, 31
2, 73040, Note_on_c, 0, 67, 0
2, 73120, Note_on_c, 0, 76, 0
2, 73128, Note_on_c, 0, 69, 0
2, 73172, Note_on_c, 0, 72, 0
2, 73728, Note_on_c, 0, 60, 54
2, 73728, Note_on_c, 0, 67, 58
2, 73736, Note_on_c, 0, 65, 49
2, 73752, Note_on_c, 0, 55, 40
2, 73768, Control_c, 0, 64, 0
2, 73868, Control_c, 0, 64, 127
2, 74144, Note_on_c, 0, 43, 64
2, 74180, Note_on_c, 0, 67, 0
2, 74188, Note_on_c, 0, 60, 0
2, 74208, Note_on_c, 0, 65, 0
2, 74364, Note_on_c, 0, 55, 0
2, 74576, Note_on_c, 0, 69, 71
2, 74588, Note_on_c, 0, 60, 69
2, 74588, Note_on_c, 0, 65, 57
2, 74588, Note_on_c, 0, 62, 66
2, 74600, Note_on_c, 0, 43, 0
2, 74604, Note_on_c, 0, 55, 52
2, 74828, Note_on_c, 0, 60, 0
2, 74884, Note_on_c, 0, 69, 0
2, 74908, Note_on_c, 0, 55, 0
2, 74916, Note_on_c, 0, 62, 0
2, 74916, Note_on_c, 0, 65, 0
2, 74992, Note_on_c, 0, 55, 66
2, 75416, Note_on_c, 0, 71, 75
2, 75420, Note_on_c, 0, 68, 63
2, 75424, Note_on_c, 0, 56, 64
2, 75424, Note_on_c, 0, 65, 68
2, 75424, Note_on_c, 0, 62, 66
2, 75428, Control_c, 0, 64, 0
2, 75456, Note_on_c, 0, 55, 0
2, 75600, Control_c, 0, 64, 127
2, 75832, Note_on_c, 0, 56, 0
2, 75908, Note_on_c, 0, 56, 66
2, 76052, Note_on_c, 0, 62, 0
2, 76056, Note_on_c, 0, 71, 0
2, 76072, Note_on_c, 0, 65, 0
2, 76088, Note_on_c, 0, 68, 0
2, 76388, Control_c, 0, 64, 0
2, 76400, Note_on_c, 0, 72, 72
2, 76404, Note_on_c, 0, 56, 0
2, 76404, Note_on_c, 0, 67, 63
2, 76408, Note_on_c, 0, 57, 60
2, 76408, Note_on_c, 0, 64, 61
2, 76496, Control_c, 0, 64, 127
2, 76616, Note_on_c, 0, 64, 0
2, 76732, Note_on_c, 0, 67, 0
2, 76764, Note_on_c, 0, 72, 0
2, 76768, Note_on_c, 0, 57, 0
2, 76788, Note_on_c, 0, 45, 72
2, 76848, Note_on_c, 0, 45, 0
2, 77252, Note_on_c, 0, 76, 84
2, 77252, Note_on_c, 0, 64, 61
2, 77252, Note_on_c, 0, 83, 80
2, 77260, Note_on_c, 0, 60, 52
2, 77264, Note_on_c, 0, 59, 42
2, 77792, Note_on_c, 0, 76, 0
2, 77796, Note_on_c, 0, 83, 0
2, 77984, Note_on_c, 0, 57, 58
2, 77988, Note_on_c, 0, 83, 77
2, 78036, Note_on_c, 0, 59, 0
2, 78264, Note_on_c, 0, 60, 0
2, 78344, Note_on_c, 0, 55, 60
2, 78388, Note_on_c, 0, 57, 0
2, 78412, Note_on_c, 0, 83, 0
2, 78544, Note_on_c, 0, 55, 0
2, 78584, Note_on_c, 0, 60, 1
2, 78640, Note_on_c, 0, 64, 0
2, 78724, Note_on_c, 0, 83, 63
2, 78724, Note_on_c, 0, 64, 48
2, 78724, Note_on_c, 0, 76, 58
2, 78732, Note_on_c, 0, 71, 41
2, 78740, Note_on_c, 0, 53, 48
2, 78760, Control_c, 0, 64, 0
2, 78812, Note_on_c, 0, 60, 0
2, 78928, Control_c, 0, 64, 127
2, 79380, Note_on_c, 0, 83, 0
2, 79400, Note_on_c, 0, 60, 34
2, 79460, Note_on_c, 0, 64, 0
2, 79624, Note_on_c, 0, 71, 0
2, 79684, Note_on_c, 0, 76, 0
2, 79848, Note_on_c, 0, 53, 0
2, 79848, Note_on_c, 0, 60, 0
2, 79960, Note_on_c, 0, 64, 36
2, 80212, Note_on_c, 0, 64, 0
2, 80292, Note_on_c, 0, 81, 57
2, 80368, Note_on_c, 0, 81, 0
2, 80648, Note_on_c, 0, 79, 46
2, 80656, Control_c, 0, 64, 0
2, 80668, Note_on_c, 0, 74, 48
2, 80668, Note_on_c, 0, 52, 41
2, 80672, Note_on_c, 0, 67, 22
2, 80684, Note_on_c, 0, 62, 25
2, 80808, Control_c, 0, 64, 127
2, 81012, Note_on_c, 0, 59, 50
2, 81028, Note_on_c, 0, 62, 0
2, 81216, Note_on_c, 0, 79, 0
2, 81264, Note_on_c, 0, 74, 0
2, 81328, Note_on_c, 0, 67, 0
2, 81372, Note_on_c, 0, 62, 39
2, 81476, Note_on_c, 0, 62, 0
2, 81480, Note_on_c, 0, 52, 0
2, 81680, Note_on_c, 0, 59, 0
2, 81712, Note_on_c, 0, 76, 56
2, 81732, Note_on_c, 0, 64, 35
2, 81740, Note_on_c, 0, 71, 31
2, 81748, Note_on_c, 0, 52, 36
2, 81796, Note_on_c, 0, 71, 0
2, 81804, Note_on_c, 0, 52, 0
2, 81812, Note_on_c, 0, 76, 0
2, 81860, Note_on_c, 0, 64, 0
2, 82192, Note_on_c, 0, 74, 55
2, 82216, Note_on_c, 0, 70, 47
2, 82228, Note_on_c, 0, 62, 39
2, 82232, Note_on_c, 0, 39, 40
2, 82240, Note_on_c, 0, 67, 32
2, 82544, Note_on_c, 0, 39, 0
2, 82652, Note_on_c, 0, 39, 57
2, 82704, Control_c, 0, 64, 0
2, 82944, Control_c, 0, 64, 127
2, 82952, Note_on_c, 0, 46, 65
2, 82956, Note_on_c, 0, 39, 0
2, 83188, Note_on_c, 0, 46, 0
2, 83200, Note_on_c, 0, 55, 75
2, 83348, Note_on_c, 0, 62, 0
2, 83424, Note_on_c, 0, 67, 0
2, 83436, Note_on_c, 0, 55, 0
2, 83468, Note_on_c, 0, 74, 0
2, 83472, Note_on_c, 0, 58, 69
2, 83476, Note_on_c, 0, 62, 71
2, 83540, Note_on_c, 0, 62, 0
2, 83544, Note_on_c, 0, 70, 0
2, 83764, Note_on_c, 0, 67, 84
2, 83772, Note_on_c, 0, 62, 62
2, 83912, Note_on_c, 0, 67, 0
2, 84092, Note_on_c, 0, 67, 49
2, 84100, Note_on_c, 0, 70, 70
2, 84164, Note_on_c, 0, 67, 0
2, 84224, Note_on_c, 0, 58, 0
2, 84248, Note_on_c, 0, 70, 0
2, 84416, Note_on_c, 0, 62, 0
2, 84484, Note_on_c, 0, 74, 60
2, 84508, Note_on_c, 0, 58, 39
2, 84596, Note_on_c, 0, 58, 0
2, 84760, Note_on_c, 0, 74, 0
2, 85024, Note_on_c, 0, 74, 54
2, 85024, Note_on_c, 0, 65, 46
2, 85032, Note_on_c, 0, 72, 46
2, 85036, Note_on_c, 0, 69, 57
2, 85092, Control_c, 0, 64, 0
2, 85236, Control_c, 0, 64, 127
2, 85672, Note_on_c, 0, 55, 43
2, 85740, Note_on_c, 0, 65, 0
2, 85800, Note_on_c, 0, 69, 0
2, 85900, Note_on_c, 0, 55, 0
2, 85900, Note_on_c, 0, 72, 0
2, 85940, Note_on_c, 0, 74, 0
2, 87584, Note_on_c, 0, 67, 102
2, 87592, Note_on_c, 0, 44, 65
2, 87592, Note_on_c, 0, 56, 63
2, 87612, Control_c, 0, 64, 0
2, 87740, Control_c, 0, 64, 127
2, 87908, Note_on_c, 0, 67, 0
2, 87956, Note_on_c, 0, 44, 0
2, 87964, Note_on_c, 0, 56, 0
2, 88120, Note_on_c, 0, 57, 65
2, 88124, Note_on_c, 0, 67, 99
2, 88128, Note_on_c, 0, 45, 57
2, 88156, Control_c, 0, 64, 40
2, 88160, Control_c, 0, 64, 0
2, 88288, Control_c, 0, 64, 127
2, 88480, Note_on_c, 0, 45, 0
2, 88568, Note_on_c, 0, 57, 0
2, 88672, Note_on_c, 0, 67, 0
2, 89456, Note_on_c, 0, 67, 57
2, 89460, Note_on_c, 0, 59, 42
2, 89472, Note_on_c, 0, 47, 33
2, 89488, Control_c, 0, 64, 0
2, 89604, Control_c, 0, 64, 127
2, 89856, Note_on_c, 0, 47, 0
2, 89904, Note_on_c, 0, 67, 0
2, 89948, Note_on_c, 0, 59, 0
2, 90404, Control_c, 0, 64, 0
2, 90420, Note_on_c, 0, 76, 55
2, 90432, Note_on_c, 0, 64, 39
2, 90432, Note_on_c, 0, 48, 42
2, 90440, Note_on_c, 0, 58, 34
2, 90516, Control_c, 0, 64, 127
2, 90588, Note_on_c, 0, 48, 0
2, 90588, Note_on_c, 0, 64, 0
2, 90668, Note_on_c, 0, 58, 0
2, 90676, Note_on_c, 0, 76, 0
2, 91088, Note_on_c, 0, 96, 85
2, 91268, Note_on_c, 0, 96, 0
2, 91312, Note_on_c, 0, 93, 78
2, 91420, Note_on_c, 0, 93, 0
2, 91476, Note_on_c, 0, 94, 68
2, 91552, Note_on_c, 0, 58, 39
2, 91592, Note_on_c, 0, 64, 10
2, 91628, Note_on_c, 0, 91, 68
2, 91696, Note_on_c, 0, 64, 0
2, 91704, Note_on_c, 0, 94, 0
2, 91736, Note_on_c, 0, 91, 0
2, 91748, Note_on_c, 0, 58, 0
2, 91768, Note_on_c, 0, 88, 50
2, 91860, Note_on_c, 0, 88, 0
2, 91900, Note_on_c, 0, 87, 63
2, 91940, Note_on_c, 0, 87, 0
2, 91992, Note_on_c, 0, 86, 50
2, 92072, Note_on_c, 0, 86, 0
2, 92084, Note_on_c, 0, 85, 60
2, 92172, Note_on_c, 0, 85, 0
2, 92316, Note_on_c, 0, 82, 31
2, 92384, Note_on_c, 0, 82, 0
2, 92424, Note_on_c, 0, 52, 35
2, 92436, Note_on_c, 0, 58, 39
2, 92440, Note_on_c, 0, 86, 72
2, 92456, Note_on_c, 0, 62, 39
2, 92464, Control_c, 0, 64, 0
2, 92544, Note_on_c, 0, 82, 66
2, 92564, Note_on_c, 0, 86, 0
2, 92624, Note_on_c, 0, 82, 0
2, 92656, Note_on_c, 0, 79, 66
2, 92684, Note_on_c, 0, 79, 0
2, 92736, Note_on_c, 0, 76, 46
2, 92768, Note_on_c, 0, 76, 0
2, 92828, Note_on_c, 0, 75, 54
2, 92864, Note_on_c, 0, 75, 0
2, 92896, Note_on_c, 0, 74, 49
2, 92960, Note_on_c, 0, 74, 0
2, 92968, Note_on_c, 0, 62, 0
2, 92996, Note_on_c, 0, 73, 41
2, 93032, Note_on_c, 0, 73, 0
2, 93044, Note_on_c, 0, 72, 44
2, 93080, Note_on_c, 0, 72, 0
2, 93128, Note_on_c, 0, 71, 30
2, 93172, Note_on_c, 0, 71, 0
2, 93228, Note_on_c, 0, 70, 56
2, 93548, Control_c, 0, 64, 127
2, 93580, Note_on_c, 0, 67, 55
2, 93588, Note_on_c, 0, 70, 0
2, 93700, Note_on_c, 0, 67, 0
2, 93748, Note_on_c, 0, 64, 54
2, 93808, Note_on_c, 0, 58, 0
2, 93864, Note_on_c, 0, 64, 0
2, 93900, Note_on_c, 0, 63, 60
2, 93908, Note_on_c, 0, 52, 0
2, 93980, Note_on_c, 0, 63, 0
2, 94060, Note_on_c, 0, 62, 56
2, 94136, Note_on_c, 0, 62, 0
2, 94168, Note_on_c, 0, 61, 54
2, 94296, Note_on_c, 0, 61, 0
2, 94320, Note_on_c, 0, 60, 38
2, 94356, Note_on_c, 0, 60, 0
2, 94432, Note_on_c, 0, 59, 39
2, 94504, Note_on_c, 0, 59, 0
2, 94540, Note_on_c, 0, 58, 43
2, 94700, Note_on_c, 0, 58, 0
2, 94796, Note_on_c, 0, 57, 52
2, 94832, Note_on_c, 0, 41, 47
2, 94848, Control_c, 0, 64, 0
2, 94848, Note_on_c, 0, 62, 60
2, 94856, Note_on_c, 0, 57, 0
2, 94872, Note_on_c, 0, 57, 32
2, 95024, Control_c, 0, 64, 127
2, 95112, Note_on_c, 0, 57, 0
2, 95152, Note_on_c, 0, 62, 0
2, 95200, Note_on_c, 0, 50, 55
2, 95236, Note_on_c, 0, 50, 0
2, 95236, Note_on_c, 0, 41, 0
2, 95552, Note_on_c, 0, 72, 72
2, 95556, Note_on_c, 0, 65, 64
2, 95564, Note_on_c, 0, 69, 67
2, 95564, Note_on_c, 0, 60, 57
2, 95568, Note_on_c, 0, 57, 63
2, 95576, Note_on_c, 0, 62, 53
2, 95604, Note_on_c, 0, 62, 0
2, 95696, Note_on_c, 0, 62, 6
2, 95740, Note_on_c, 0, 60, 0
2, 95872, Note_on_c, 0, 53, 75
2, 95888, Note_on_c, 0, 57, 0
2, 95940, Note_on_c, 0, 69, 0
2, 95944, Note_on_c, 0, 72, 0
2, 95956, Note_on_c, 0, 53, 0
2, 95992, Note_on_c, 0, 62, 0
2, 95992, Note_on_c, 0, 65, 0
2, 96260, Note_on_c, 0, 39, 58
2, 96264, Note_on_c, 0, 54, 52
2, 96268, Note_on_c, 0, 69, 71
2, 96276, Control_c, 0, 64, 0
2, 96276, Note_on_c, 0, 63, 69
2, 96280, Note_on_c, 0, 60, 72
2, 96280, Note_on_c, 0, 66, 68
2, 96424, Control_c, 0, 64, 127
2, 96604, Note_on_c, 0, 39, 0
2, 96608, Note_on_c, 0, 54, 0
2, 96628, Note_on_c, 0, 46, 74
2, 96664, Note_on_c, 0, 60, 0
2, 96688, Note_on_c, 0, 69, 0
2, 96732, Note_on_c, 0, 66, 0
2, 96740, Note_on_c, 0, 63, 0
2, 96920, Note_on_c, 0, 54, 64
2, 96924, Note_on_c, 0, 46, 0
2, 96960, Note_on_c, 0, 54, 0
2, 97224, Note_on_c, 0, 60, 66
2, 97232, Note_on_c, 0, 66, 79
2, 97232, Note_on_c, 0, 63, 81
2, 97232, Note_on_c, 0, 72, 73
2, 97244, Note_on_c, 0, 69, 61
2, 97272, Note_on_c, 0, 60, 0
2, 97324, Note_on_c, 0, 69, 0
2, 97336, Note_on_c, 0, 63, 0
2, 97356, Note_on_c, 0, 72, 0
2, 97372, Note_on_c, 0, 66, 0
2, 97632, Control_c, 0, 64, 0
2, 97640, Note_on_c, 0, 64, 85
2, 97644, Note_on_c, 0, 67, 80
2, 97644, Note_on_c, 0, 60, 88
2, 97648, Note_on_c, 0, 43, 69
2, 97652, Note_on_c, 0, 52, 73
2, 97776, Control_c, 0, 64, 127
2, 97920, Note_on_c, 0, 67, 0
2, 97936, Note_on_c, 0, 60, 0
2, 97996, Note_on_c, 0, 64, 0
2, 98028, Note_on_c, 0, 67, 81
2, 98076, Note_on_c, 0, 43, 0
2, 98108, Note_on_c, 0, 52, 0
2, 98120, Note_on_c, 0, 67, 0
2, 98400, Control_c, 0, 64, 0
2, 98408, Note_on_c, 0, 59, 76
2, 98408, Note_on_c, 0, 64, 75
2, 98408, Note_on_c, 0, 56, 83
2, 98412, Note_on_c, 0, 44, 70
2, 98420, Note_on_c, 0, 53, 66
2, 98548, Control_c, 0, 64, 127
2, 98648, Note_on_c, 0, 64, 0
2, 98796, Note_on_c, 0, 59, 0
2, 98800, Note_on_c, 0, 44, 0
2, 98816, Note_on_c, 0, 64, 74
2, 98848, Note_on_c, 0, 53, 0
2, 98908, Note_on_c, 0, 56, 0
2, 99016, Note_on_c, 0, 64, 0
2, 99036, Note_on_c, 0, 62, 6
2, 99132, Note_on_c, 0, 62, 0
2, 99260, Control_c, 0, 64, 0
2, 99280, Note_on_c, 0, 55, 56
2, 99280, Note_on_c, 0, 60, 61
2, 99284, Note_on_c, 0, 57, 56
2, 99296, Note_on_c, 0, 52, 48
2, 99296, Note_on_c, 0, 45, 45
2, 99436, Control_c, 0, 64, 127
2, 99584, Note_on_c, 0, 60, 0
2, 99632, Note_on_c, 0, 52, 0
2, 99748, Note_on_c, 0, 45, 0
2, 99764, Note_on_c, 0, 60, 59
2, 99780, Note_on_c, 0, 55, 0
2, 99804, Note_on_c, 0, 57, 0
2, 99896, Note_on_c, 0, 60, 0
2, 100228, Control_c, 0, 64, 0
2, 100240, Note_on_c, 0, 54, 45
2, 100248, Note_on_c, 0, 60, 52
2, 100248, Note_on_c, 0, 56, 50
2, 100256, Note_on_c, 0, 44, 46
2, 100376, Control_c, 0, 64, 127
2, 100596, Note_on_c, 0, 60, 0
2, 100636, Note_on_c, 0, 44, 0
2, 100780, Note_on_c, 0, 60, 41
2, 100932, Note_on_c, 0, 60, 0
2, 100948, Note_on_c, 0, 54, 0
2, 100984, Note_on_c, 0, 56, 0
2, 101300, Control_c, 0, 64, 0
2, 101324, Note_on_c, 0, 60, 43
2, 101328, Note_on_c, 0, 53, 33
2, 101336, Note_on_c, 0, 57, 42
2, 101344, Note_on_c, 0, 43, 31
2, 101356, Note_on_c, 0, 31, 31
2, 101472, Control_c, 0, 64, 127
2, 101588, Note_on_c, 0, 53, 0
2, 101608, Note_on_c, 0, 57, 0
2, 101656, Note_on_c, 0, 60, 0
2, 101664, Note_on_c, 0, 31, 0
2, 101724, Note_on_c, 0, 43, 0
2, 102300, Note_on_c, 0, 62, 40
2, 102304, Note_on_c, 0, 71, 45
2, 102320, Note_on_c, 0, 65, 40
2, 102332, Note_on_c, 0, 69, 36
2, 102752, Note_on_c, 0, 55, 51
2, 102864, Note_on_c, 0, 62, 0
2, 102896, Note_on_c, 0, 65, 0
2, 102900, Note_on_c, 0, 69, 0
2, 102912, Note_on_c, 0, 71, 0
2, 103200, Note_on_c, 0, 65, 50
2, 103200, Note_on_c, 0, 72, 54
2, 103208, Note_on_c, 0, 69, 50
2, 103212, Note_on_c, 0, 60, 48
2, 103520, Note_on_c, 0, 60, 0
2, 103572, Note_on_c, 0, 43, 60
2, 103588, Note_on_c, 0, 65, 0
2, 103604, Note_on_c, 0, 43, 0
2, 103616, Note_on_c, 0, 69, 0
2, 103676, Note_on_c, 0, 72, 0
2, 103680, Note_on_c, 0, 55, 0
2, 103940, Note_on_c, 0, 74, 68
2, 103952, Note_on_c, 0, 65, 57
2, 103952, Note_on_c, 0, 68, 56
2, 103952, Note_on_c, 0, 64, 52
2, 103952, Note_on_c, 0, 71, 57
2, 103972, Note_on_c, 0, 59, 39
2, 104332, Note_on_c, 0, 53, 56
2, 104476, Note_on_c, 0, 65, 0
2, 104520, Note_on_c, 0, 64, 0
2, 104520, Note_on_c, 0, 59, 0
2, 104532, Note_on_c, 0, 71, 0
2, 104536, Note_on_c, 0, 53, 0
2, 104600, Note_on_c, 0, 74, 0
2, 104612, Note_on_c, 0, 68, 0
2, 105176, Control_c, 0, 64, 0
2, 105208, Note_on_c, 0, 76, 74
2, 105220, Note_on_c, 0, 52, 52
2, 105232, Note_on_c, 0, 62, 39
2, 105232, Note_on_c, 0, 71, 49
2, 105232, Note_on_c, 0, 67, 33
2, 105288, Control_c, 0, 64, 127
2, 105372, Note_on_c, 0, 67, 0
2, 105372, Note_on_c, 0, 52, 0
2, 105424, Note_on_c, 0, 71, 0
2, 105424, Note_on_c, 0, 62, 0
2, 105456, Note_on_c, 0, 76, 0
2, 105944, Note_on_c, 0, 81, 80
2, 105952, Note_on_c, 0, 67, 61
2, 105956, Note_on_c, 0, 71, 52
2, 105960, Note_on_c, 0, 74, 63
2, 105964, Note_on_c, 0, 62, 49
2, 105968, Note_on_c, 0, 56, 45
2, 105980, Control_c, 0, 64, 0
2, 106004, Control_c, 0, 64, 127
2, 106076, Note_on_c, 0, 62, 0
2, 106076, Note_on_c, 0, 81, 0
2, 106092, Note_on_c, 0, 67, 0
2, 106120, Note_on_c, 0, 74, 0
2, 106132, Note_on_c, 0, 71, 0
2, 106148, Note_on_c, 0, 56, 0
2, 106404, Control_c, 0, 64, 0
2, 106408, Note_on_c, 0, 79, 63
2, 106416, Note_on_c, 0, 72, 55
2, 106420, Note_on_c, 0, 67, 48
2, 106420, Note_on_c, 0, 65, 43
2, 106428, Note_on_c, 0, 61, 49
2, 106428, Note_on_c, 0, 55, 42
2, 106516, Control_c, 0, 64, 127
2, 106652, Note_on_c, 0, 79, 0
2, 106688, Note_on_c, 0, 72, 0
2, 106708, Note_on_c, 0, 65, 0
2, 106716, Note_on_c, 0, 67, 0
2, 106792, Note_on_c, 0, 61, 0
2, 107156, Note_on_c, 0, 68, 57
2, 107160, Note_on_c, 0, 66, 48
2, 107168, Control_c, 0, 64, 0
2, 107192, Note_on_c, 0, 76, 52
2, 107204, Note_on_c, 0, 72, 39
2, 107216, Note_on_c, 0, 64, 39
2, 107224, Note_on_c, 0, 68, 0
2, 107264, Note_on_c, 0, 69, 31
2, 107304, Control_c, 0, 64, 127
2, 107352, Note_on_c, 0, 55, 0
2, 107416, Note_on_c, 0, 64, 0
2, 107524, Note_on_c, 0, 66, 0
2, 107528, Note_on_c, 0, 69, 0
2, 107556, Note_on_c, 0, 76, 0
2, 107600, Note_on_c, 0, 72, 0
2, 107640, Note_on_c, 0, 66, 52
2, 107656, Control_c, 0, 64, 0
2, 107664, Note_on_c, 0, 72, 35
2, 107668, Note_on_c, 0, 74, 54
2, 107672, Note_on_c, 0, 60, 42
2, 107676, Note_on_c, 0, 50, 43
2, 107684, Note_on_c, 0, 69, 36
2, 107764, Control_c, 0, 64, 127
2, 107816, Note_on_c, 0, 69, 0
2, 107816, Note_on_c, 0, 74, 0
2, 107840, Note_on_c, 0, 72, 0
2, 107864, Note_on_c, 0, 66, 0
2, 108036, Note_on_c, 0, 60, 0
2, 108092, Note_on_c, 0, 72, 43
2, 108092, Note_on_c, 0, 62, 39
2, 108096, Note_on_c, 0, 65, 41
2, 108100, Note_on_c, 0, 69, 46
2, 108112, Note_on_c, 0, 57, 39
2, 108180, Note_on_c, 0, 57, 0
2, 108212, Note_on_c, 0, 69, 0
2, 108248, Note_on_c, 0, 72, 0
2, 108252, Note_on_c, 0, 50, 0
2, 108300, Note_on_c, 0, 65, 0
2, 108312, Note_on_c, 0, 62, 0
2, 108724, Note_on_c, 0, 60, 45
2, 108724, Note_on_c, 0, 69, 52
2, 108740, Note_on_c, 0, 64, 42
2, 108748, Control_c, 0, 64, 0
2, 108748, Note_on_c, 0, 43, 39
2, 108752, Note_on_c, 0, 53, 37
2, 108872, Control_c, 0, 64, 127
2, 109948, Note_on_c, 0, 69, 0
2, 110060, Note_on_c, 0, 64, 0
2, 110068, Note_on_c, 0, 60, 0
2, 110272, Note_on_c, 0, 71, 52
2, 110372, Note_on_c, 0, 43, 0
2, 110420, Note_on_c, 0, 71, 0
2, 110516, Note_on_c, 0, 53, 0
2, 110804, Note_on_c, 0, 72, 47
2, 110808, Note_on_c, 0, 60, 43
2, 110812, Note_on_c, 0, 67, 48
2, 110816, Note_on_c, 0, 44, 48
2, 110840, Control_c, 0, 64, 0
2, 111112, Control_c, 0, 64, 127
2, 111132, Note_on_c, 0, 50, 51
2, 111304, Note_on_c, 0, 50, 0
2, 111424, Control_c, 0, 64, 0
2, 111444, Note_on_c, 0, 51, 56
2, 111496, Note_on_c, 0, 67, 0
2, 111512, Control_c, 0, 64, 127
2, 111556, Note_on_c, 0, 60, 0
2, 111644, Note_on_c, 0, 72, 0
2, 111748, Note_on_c, 0, 53, 55
2, 111752, Note_on_c, 0, 44, 0
2, 111844, Note_on_c, 0, 51, 0
2, 112036, Note_on_c, 0, 53, 0
2, 112080, Note_on_c, 0, 62, 52
2, 112092, Note_on_c, 0, 65, 57
2, 112100, Note_on_c, 0, 46, 48
2, 112128, Control_c, 0, 64, 0
2, 112204, Note_on_c, 0, 53, 27
2, 112428, Control_c, 0, 64, 127
2, 112460, Note_on_c, 0, 55, 43
2, 112500, Note_on_c, 0, 53, 0
2, 112548, Note_on_c, 0, 46, 0
2, 113228, Note_on_c, 0, 62, 0
2, 113280, Note_on_c, 0, 55, 0
2, 113296, Note_on_c, 0, 57, 36
2, 113308, Note_on_c, 0, 65, 0
2, 113348, Note_on_c, 0, 57, 0
2, 113838, Note_on_c, 0, 62, 38
2, 113846, Note_on_c, 0, 64, 47
2, 113858, Control_c, 0, 64, 0
2, 113858, Note_on_c, 0, 59, 42
2, 114030, Control_c, 0, 64, 127
2, 114266, Note_on_c, 0, 62, 0
2, 114346, Note_on_c, 0, 64, 0
2, 114374, Note_on_c, 0, 48, 53
2, 114386, Note_on_c, 0, 59, 0
2, 114426, Note_on_c, 0, 48, 0
2, 115098, Note_on_c, 0, 71, 57
2, 115102, Note_on_c, 0, 63, 42
2, 115102, Note_on_c, 0, 59, 41
2, 115106, Note_on_c, 0, 68, 56
2, 115114, Note_on_c, 0, 53, 43
2, 115122, Note_on_c, 0, 65, 45
2, 115150, Note_on_c, 0, 53, 0
2, 115154, Note_on_c, 0, 65, 0
2, 115174, Note_on_c, 0, 71, 0
2, 115186, Note_on_c, 0, 68, 0
2, 115198, Note_on_c, 0, 63, 0
2, 115250, Note_on_c, 0, 59, 0
2, 115350, Control_c, 0, 64, 0
2, 115374, Note_on_c, 0, 72, 51
2, 115378, Note_on_c, 0, 64, 43
2, 115382, Note_on_c, 0, 59, 45
2, 115382, Note_on_c, 0, 67, 52
2, 115394, Note_on_c, 0, 53, 47
2, 115414, Control_c, 0, 64, 127
2, 115462, Note_on_c, 0, 59, 0
2, 115494, Note_on_c, 0, 53, 0
2, 115530, Note_on_c, 0, 64, 0
2, 115542, Note_on_c, 0, 67, 0
2, 115554, Note_on_c, 0, 72, 0
2, 115890, Note_on_c, 0, 43, 19
2, 115930, Note_on_c, 0, 43, 0
2, 116146, Note_on_c, 0, 59, 39
2, 116150, Note_on_c, 0, 74, 49
2, 116154, Note_on_c, 0, 53, 42
2, 116158, Note_on_c, 0, 64, 36
2, 116166, Note_on_c, 0, 65, 32
2, 116166, Control_c, 0, 64, 0
2, 116166, Note_on_c, 0, 68, 42
2, 116178, Note_on_c, 0, 71, 36
2, 116254, Control_c, 0, 64, 127
2, 116394, Note_on_c, 0, 64, 0
2, 116406, Note_on_c, 0, 59, 0
2, 116442, Note_on_c, 0, 65, 0
2, 116454, Note_on_c, 0, 71, 0
2, 116462, Note_on_c, 0, 53, 0
2, 116490, Note_on_c, 0, 74, 0
2, 116526, Note_on_c, 0, 68, 0
2, 116794, Control_c, 0, 64, 0
2, 116818, Note_on_c, 0, 67, 42
2, 116830, Note_on_c, 0, 76, 48
2, 116842, Note_on_c, 0, 57, 33
2, 116842, Note_on_c, 0, 62, 31
2, 116850, Note_on_c, 0, 71, 42
2, 116850, Note_on_c, 0, 52, 33
2, 116894, Control_c, 0, 64, 127
2, 116930, Note_on_c, 0, 62, 0
2, 116930, Note_on_c, 0, 57, 0
2, 116986, Note_on_c, 0, 52, 0
2, 116998, Note_on_c, 0, 76, 0
2, 117022, Note_on_c, 0, 71, 0
2, 117054, Note_on_c, 0, 67, 0
2, 117530, Note_on_c, 0, 62, 42
2, 117538, Note_on_c, 0, 59, 36
2, 117542, Note_on_c, 0, 57, 38
2, 117902, Note_on_c, 0, 62, 0
2, 117950, Note_on_c, 0, 59, 0
2, 117950, Note_on_c, 0, 43, 45
2, 117958, Note_on_c, 0, 57, 0
2, 118222, Note_on_c, 0, 59, 51
2, 118222, Note_on_c, 0, 55, 37
2, 118226, Control_c, 0, 64, 0
2, 118234, Note_on_c, 0, 52, 48
2, 118354, Control_c, 0, 64, 127
2, 118482, Note_on_c, 0, 55, 0
2, 118546, Note_on_c, 0, 59, 0
2, 118922, Note_on_c, 0, 36, 50
2, 119018, Note_on_c, 0, 36, 0
2, 119030, Note_on_c, 0, 43, 0
2, 119114, Note_on_c, 0, 52, 0
2, 119330, Note_on_c, 0, 74, 86
2, 119446, Note_on_c, 0, 74, 0
2, 119578, Control_c, 0, 64, 0
2, 119594, Note_on_c, 0, 58, 57
2, 119594, Note_on_c, 0, 76, 84
2, 119602, Note_on_c, 0, 70, 78
2, 119606, Note_on_c, 0, 67, 73
2, 119730, Control_c, 0, 64, 127
2, 119882, Note_on_c, 0, 76, 0
2, 119914, Note_on_c, 0, 70, 0
2, 119934, Note_on_c, 0, 67, 0
2, 120610, Note_on_c, 0, 58, 0
2, 120654, Note_on_c, 0, 81, 72
2, 120714, Note_on_c, 0, 81, 0
2, 120902, Control_c, 0, 64, 0
2, 120926, Note_on_c, 0, 79, 61
2, 120930, Note_on_c, 0, 74, 50
2, 120938, Note_on_c, 0, 67, 31
2, 120942, Note_on_c, 0, 64, 40
2, 120942, Note_on_c, 0, 58, 43
2, 120990, Control_c, 0, 64, 127
2, 121150, Note_on_c, 0, 74, 0
2, 121158, Note_on_c, 0, 79, 0
2, 121182, Note_on_c, 0, 58, 0
2, 121210, Note_on_c, 0, 64, 0
2, 121222, Note_on_c, 0, 67, 0
2, 122018, Note_on_c, 0, 76, 55
2, 122034, Note_on_c, 0, 64, 40
2, 122038, Note_on_c, 0, 58, 46
2, 122046, Note_on_c, 0, 68, 41
2, 122126, Note_on_c, 0, 64, 0
2, 122174, Note_on_c, 0, 68, 0
2, 122186, Note_on_c, 0, 76, 0
2, 122258, Note_on_c, 0, 58, 0
2, 122266, Control_c, 0, 64, 0
2, 122302, Note_on_c, 0, 65, 31
2, 122306, Note_on_c, 0, 57, 44
2, 122306, Note_on_c, 0, 74, 50
2, 122330, Note_on_c, 0, 69, 28
2, 122370, Control_c, 0, 64, 127
2, 122438, Note_on_c, 0, 69, 0
2, 122442, Note_on_c, 0, 57, 0
2, 122446, Note_on_c, 0, 74, 0
2, 122498, Note_on_c, 0, 65, 0
2, 122730, Note_on_c, 0, 72, 52
2, 122770, Note_on_c, 0, 65, 22
2, 122814, Note_on_c, 0, 65, 0
2, 122854, Note_on_c, 0, 72, 0
2, 122970, Control_c, 0, 64, 0
2, 122974, Note_on_c, 0, 65, 40
2, 122978, Note_on_c, 0, 60, 40
2, 122982, Note_on_c, 0, 69, 48
2, 123102, Control_c, 0, 64, 127
2, 123654, Note_on_c, 0, 53, 50
2, 123702, Control_c, 0, 64, 0
2, 123842, Control_c, 0, 64, 127
2, 123930, Note_on_c, 0, 69, 0
2, 123958, Note_on_c, 0, 65, 0
2, 123982, Note_on_c, 0, 60, 0
2, 124054, Note_on_c, 0, 38, 47
2, 124394, Note_on_c, 0, 53, 0
2, 124518, Note_on_c, 0, 38, 0
2, 124722, Note_on_c, 0, 45, 32
2, 124914, Note_on_c, 0, 45, 0
2, 124962, Control_c, 0, 64, 0
2, 124998, Note_on_c, 0, 53, 38
2, 125006, Note_on_c, 0, 57, 42
2, 125010, Note_on_c, 0, 43, 39
2, 125014, Note_on_c, 0, 60, 48
2, 125070, Control_c, 0, 64, 127
2, 125130, Note_on_c, 0, 57, 0
2, 125130, Note_on_c, 0, 53, 0
2, 125170, Note_on_c, 0, 43, 0
2, 125170, Note_on_c, 0, 60, 0
2, 125698, Control_c, 0, 64, 0
2, 125722, Note_on_c, 0, 74, 70
2, 125734, Note_on_c, 0, 65, 53
2, 125742, Note_on_c, 0, 69, 56
2, 125930, Note_on_c, 0, 64, 50
2, 125942, Control_c, 0, 64, 127
2, 125982, Note_on_c, 0, 64, 0
2, 126030, Control_c, 0, 64, 0
2, 126058, Control_c, 0, 64, 127
2, 126130, Note_on_c, 0, 63, 50
2, 126158, Note_on_c, 0, 74, 0
2, 126158, Note_on_c, 0, 65, 0
2, 126182, Note_on_c, 0, 69, 0
2, 126266, Control_c, 0, 64, 0
2, 126346, Note_on_c, 0, 63, 0
2, 126382, Note_on_c, 0, 76, 54
2, 126382, Note_on_c, 0, 69, 49
2, 126394, Note_on_c, 0, 65, 35
2, 126402, Note_on_c, 0, 62, 48
2, 126466, Control_c, 0, 64, 127
2, 126782, Note_on_c, 0, 62, 0
2, 126802, Note_on_c, 0, 61, 46
2, 126806, Note_on_c, 0, 65, 0
2, 126814, Note_on_c, 0, 76, 0
2, 126818, Note_on_c, 0, 69, 0
2, 127030, Control_c, 0, 64, 104
2, 127034, Control_c, 0, 64, 0
2, 127050, Note_on_c, 0, 61, 0
2, 127050, Note_on_c, 0, 77, 43
2, 127050, Note_on_c, 0, 69, 42
2, 127058, Note_on_c, 0, 65, 48
2, 127066, Note_on_c, 0, 60, 46
2, 127070, Note_on_c, 0, 72, 46
2, 127114, Control_c, 0, 64, 127
2, 127262, Note_on_c, 0, 65, 0
2, 127314, Note_on_c, 0, 72, 0
2, 127322, Note_on_c, 0, 69, 0
2, 127362, Note_on_c, 0, 60, 0
2, 127418, Note_on_c, 0, 77, 0
2, 127742, Control_c, 0, 64, 0
2, 127754, Note_on_c, 0, 52, 37
2, 127754, Note_on_c, 0, 79, 48
2, 127754, Note_on_c, 0, 67, 39
2, 127762, Note_on_c, 0, 62, 36
2, 127766, Note_on_c, 0, 74, 44
2, 127862, Control_c, 0, 64, 127
2, 127934, Note_on_c, 0, 52, 0
2, 128010, Note_on_c, 0, 62, 0
2, 128018, Note_on_c, 0, 67, 0
2, 128230, Note_on_c, 0, 74, 0
2, 128426, Note_on_c, 0, 67, 38
2, 128438, Note_on_c, 0, 56, 33
2, 128442, Control_c, 0, 64, 0
2, 128454, Note_on_c, 0, 62, 40
2, 128502, Control_c, 0, 64, 127
2, 128846, Note_on_c, 0, 62, 0
2, 128866, Note_on_c, 0, 67, 0
2, 129058, Note_on_c, 0, 56, 0
2, 129414, Note_on_c, 0, 79, 0
2, 129570, Note_on_c, 0, 56, 40
2, 129582, Note_on_c, 0, 67, 22
2, 129586, Note_on_c, 0, 62, 43
2, 129750, Note_on_c, 0, 62, 0
2, 129750, Note_on_c, 0, 67, 0
2, 129786, Note_on_c, 0, 56, 0
2, 130266, Note_on_c, 0, 46, 52
2, 130274, Note_on_c, 0, 81, 81
2, 130362, Note_on_c, 0, 81, 0
2, 130434, Note_on_c, 0, 46, 0
2, 130498, Control_c, 0, 64, 104
2, 130502, Control_c, 0, 64, 0
2, 130538, Note_on_c, 0, 45, 57
2, 130546, Note_on_c, 0, 79, 72
2, 130586, Note_on_c, 0, 45, 0
2, 130586, Control_c, 0, 64, 127
2, 130954, Note_on_c, 0, 60, 46
2, 130958, Note_on_c, 0, 64, 43
2, 130974, Note_on_c, 0, 59, 35
2, 130974, Note_on_c, 0, 55, 35
2, 131166, Note_on_c, 0, 79, 0
2, 131190, Control_c, 0, 64, 0
2, 131202, Note_on_c, 0, 74, 51
2, 131246, Note_on_c, 0, 75, 55
2, 131306, Note_on_c, 0, 74, 0
2, 131318, Note_on_c, 0, 75, 0
2, 131334, Note_on_c, 0, 76, 49
2, 131402, Note_on_c, 0, 76, 0
2, 131578, Control_c, 0, 64, 127
2, 131598, Note_on_c, 0, 64, 0
2, 131654, Note_on_c, 0, 60, 0
2, 131690, Note_on_c, 0, 59, 0
2, 131854, Note_on_c, 0, 55, 0
2, 131886, Note_on_c, 0, 60, 45
2, 131890, Note_on_c, 0, 64, 45
2, 131894, Note_on_c, 0, 59, 16
2, 132106, Note_on_c, 0, 71, 54
2, 132194, Note_on_c, 0, 71, 0
2, 132314, Note_on_c, 0, 72, 85
2, 132454, Note_on_c, 0, 72, 0
2, 132498, Control_c, 0, 64, 0
2, 132538, Note_on_c, 0, 55, 52
2, 132538, Note_on_c, 0, 74, 107
2, 132606, Control_c, 0, 64, 127
2, 132690, Note_on_c, 0, 74, 0
2, 132734, Note_on_c, 0, 75, 68
2, 132750, Note_on_c, 0, 64, 0
2, 132778, Note_on_c, 0, 59, 0
2, 132794, Note_on_c, 0, 60, 0
2, 132810, Note_on_c, 0, 55, 0
2, 132902, Note_on_c, 0, 75, 0
2, 132950, Note_on_c, 0, 76, 82
2, 133038, Note_on_c, 0, 76, 0
2, 133198, Control_c, 0, 64, 0
2, 133206, Note_on_c, 0, 74, 53
2, 133214, Note_on_c, 0, 62, 38
2, 133222, Note_on_c, 0, 67, 28
2, 133230, Note_on_c, 0, 39, 48
2, 133238, Note_on_c, 0, 70, 39
2, 133346, Control_c, 0, 64, 127
2, 133378, Note_on_c, 0, 39, 0
2, 133394, Note_on_c, 0, 46, 54
2, 133510, Note_on_c, 0, 46, 0
2, 133526, Note_on_c, 0, 62, 0
2, 133550, Note_on_c, 0, 67, 0
2, 133554, Note_on_c, 0, 55, 54
2, 133622, Note_on_c, 0, 70, 0
2, 133670, Note_on_c, 0, 55, 0
2, 133690, Note_on_c, 0, 58, 39
2, 133754, Note_on_c, 0, 74, 0
2, 133866, Note_on_c, 0, 65, 56
2, 133886, Note_on_c, 0, 67, 46
2, 133894, Note_on_c, 0, 62, 41
2, 134010, Note_on_c, 0, 62, 0
2, 134026, Note_on_c, 0, 70, 63
2, 134070, Note_on_c, 0, 67, 0
2, 134074, Note_on_c, 0, 65, 0
2, 134154, Note_on_c, 0, 70, 0
2, 134190, Note_on_c, 0, 72, 66
2, 134270, Note_on_c, 0, 58, 0
2, 134302, Note_on_c, 0, 72, 0
2, 134330, Note_on_c, 0, 74, 75
2, 134430, Note_on_c, 0, 74, 0
2, 134514, Note_on_c, 0, 74, 54
2, 134514, Note_on_c, 0, 70, 63
2, 134522, Note_on_c, 0, 65, 54
2, 134522, Control_c, 0, 64, 0
2, 134526, Note_on_c, 0, 54, 47
2, 134638, Control_c, 0, 64, 127
2, 134726, Note_on_c, 0, 60, 52
2, 134818, Note_on_c, 0, 65, 0
2, 134858, Note_on_c, 0, 74, 0
2, 134898, Note_on_c, 0, 70, 0
2, 134902, Note_on_c, 0, 60, 0
2, 134938, Note_on_c, 0, 54, 0
2, 135206, Note_on_c, 0, 65, 47
2, 135210, Note_on_c, 0, 60, 37
2, 135214, Note_on_c, 0, 54, 39
2, 135262, Note_on_c, 0, 54, 0
2, 135282, Note_on_c, 0, 60, 0
2, 135330, Note_on_c, 0, 65, 0
2, 135354, Control_c, 0, 64, 0
2, 135382, Note_on_c, 0, 44, 50
2, 135402, Control_c, 0, 64, 127
2, 135410, Note_on_c, 0, 44, 0
2, 135570, Control_c, 0, 64, 0
2, 135618, Note_on_c, 0, 54, 50
2, 135618, Note_on_c, 0, 70, 62
2, 135618, Note_on_c, 0, 65, 54
2, 135618, Note_on_c, 0, 74, 61
2, 135618, Note_on_c, 0, 60, 48
2, 135642, Control_c, 0, 64, 127
2, 135702, Note_on_c, 0, 54, 0
2, 135706, Note_on_c, 0, 65, 0
2, 135766, Note_on_c, 0, 74, 0
2, 135782, Note_on_c, 0, 60, 0
2, 135790, Note_on_c, 0, 70, 0
2, 135810, Control_c, 0, 64, 0
2, 135870, Note_on_c, 0, 60, 62
2, 135874, Note_on_c, 0, 69, 61
2, 135874, Note_on_c, 0, 55, 55
2, 135874, Note_on_c, 0, 72, 63
2, 135874, Note_on_c, 0, 65, 58
2, 135954, Control_c, 0, 64, 127
2, 135982, Note_on_c, 0, 55, 0
2, 136098, Note_on_c, 0, 55, 74
2, 136114, Note_on_c, 0, 69, 0
2, 136122, Note_on_c, 0, 72, 0
2, 136126, Note_on_c, 0, 65, 0
2, 136142, Note_on_c, 0, 60, 0
2, 136190, Note_on_c, 0, 55, 0
2, 136562, Note_on_c, 0, 43, 81
2, 137018, Control_c, 0, 64, 0
2, 137022, Note_on_c, 0, 65, 68
2, 137026, Note_on_c, 0, 67, 73
2, 137026, Note_on_c, 0, 60, 80
2, 137026, Note_on_c, 0, 55, 76
2, 137026, Note_on_c, 0, 57, 72
2, 137158, Control_c, 0, 64, 127
2, 137374, Note_on_c, 0, 57, 0
2, 137390, Note_on_c, 0, 65, 0
2, 137390, Note_on_c, 0, 60, 0
2, 137394, Note_on_c, 0, 67, 0
2, 137414, Note_on_c, 0, 55, 0
2, 137518, Note_on_c, 0, 43, 0
2, 137714, Note_on_c, 0, 43, 81
2, 137966, Note_on_c, 0, 43, 0
2, 138042, Note_on_c, 0, 59, 75
2, 138042, Note_on_c, 0, 43, 68
2, 138042, Note_on_c, 0, 53, 75
2, 138046, Note_on_c, 0, 57, 69
2, 138082, Control_c, 0, 64, 0
2, 138142, Control_c, 0, 64, 127
2, 138170, Note_on_c, 0, 57, 0
2, 138238, Note_on_c, 0, 53, 0
2, 138242, Note_on_c, 0, 59, 0
2, 138266, Note_on_c, 0, 43, 0
2, 138286, Note_on_c, 0, 60, 78
2, 138426, Note_on_c, 0, 60, 0
2, 138498, Note_on_c, 0, 62, 80
2, 138586, Note_on_c, 0, 62, 0
2, 138702, Control_c, 0, 64, 0
2, 138734, Note_on_c, 0, 36, 58
2, 138742, Note_on_c, 0, 43, 39
2, 138750, Note_on_c, 0, 59, 68
2, 138750, Note_on_c, 0, 64, 67
2, 138758, Note_on_c, 0, 52, 50
2, 138758, Note_on_c, 0, 55, 55
2, 138802, Control_c, 0, 64, 127
2, 138926, Note_on_c, 0, 55, 0
2, 138942, Note_on_c, 0, 36, 0
2, 138978, Note_on_c, 0, 43, 0
2, 139026, Note_on_c, 0, 59, 0
2, 139038, Note_on_c, 0, 64, 0
2, 139038, Note_on_c, 0, 52, 0
2, 139482, Note_on_c, 0, 76, 72
2, 139490, Note_on_c, 0, 48, 57
2, 139494, Note_on_c, 0, 68, 58
2, 139498, Note_on_c, 0, 56, 45
2, 139498, Note_on_c, 0, 71, 63
2, 139506, Note_on_c, 0, 64, 56
2, 139538, Control_c, 0, 64, 0
2, 139630, Note_on_c, 0, 74, 12
2, 139642, Control_c, 0, 64, 127
2, 139698, Note_on_c, 0, 76, 0
2, 139754, Note_on_c, 0, 74, 0
2, 139778, Note_on_c, 0, 64, 0
2, 139782, Note_on_c, 0, 71, 0
2, 139818, Note_on_c, 0, 68, 0
2, 139846, Note_on_c, 0, 74, 70
2, 139850, Control_c, 0, 64, 0
2, 139854, Note_on_c, 0, 59, 53
2, 139898, Control_c, 0, 64, 127
2, 139982, Note_on_c, 0, 74, 0
2, 139998, Note_on_c, 0, 59, 0
2, 140194, Control_c, 0, 64, 0
2, 140206, Note_on_c, 0, 56, 0
2, 140206, Note_on_c, 0, 72, 53
2, 140206, Note_on_c, 0, 57, 53
2, 140206, Note_on_c, 0, 67, 47
2, 140222, Note_on_c, 0, 62, 35
2, 140322, Control_c, 0, 64, 127
2, 140462, Note_on_c, 0, 48, 0
2, 140538, Note_on_c, 0, 48, 48
2, 140546, Note_on_c, 0, 67, 0
2, 140710, Note_on_c, 0, 62, 0
2, 140886, Note_on_c, 0, 72, 0
2, 140914, Note_on_c, 0, 62, 38
2, 140918, Note_on_c, 0, 64, 49
2, 140930, Note_on_c, 0, 55, 44
2, 140946, Note_on_c, 0, 57, 0
2, 141050, Note_on_c, 0, 62, 0
2, 141058, Note_on_c, 0, 64, 0
2, 141290, Note_on_c, 0, 74, 66
2, 141310, Note_on_c, 0, 58, 40
2, 141318, Note_on_c, 0, 48, 0
2, 141326, Note_on_c, 0, 55, 0
2, 141370, Note_on_c, 0, 74, 0
2, 141386, Note_on_c, 0, 58, 0
2, 141654, Control_c, 0, 64, 0
2, 141662, Note_on_c, 0, 76, 52
2, 141662, Note_on_c, 0, 64, 41
2, 141670, Note_on_c, 0, 72, 48
2, 141670, Note_on_c, 0, 68, 42
2, 141670, Note_on_c, 0, 58, 39
2, 141766, Control_c, 0, 64, 127
2, 141806, Note_on_c, 0, 64, 0
2, 141870, Note_on_c, 0, 72, 0
2, 141878, Note_on_c, 0, 68, 0
2, 141906, Note_on_c, 0, 76, 0
2, 142038, Note_on_c, 0, 64, 42
2, 142094, Note_on_c, 0, 64, 0
2, 142142, Note_on_c, 0, 58, 0
2, 142734, Note_on_c, 0, 81, 59
2, 142762, Note_on_c, 0, 81, 0
2, 143074, Note_on_c, 0, 47, 45
2, 143110, Note_on_c, 0, 47, 0
2, 143122, Note_on_c, 0, 48, 54
2, 143150, Control_c, 0, 64, 0
2, 143154, Note_on_c, 0, 58, 34
2, 143186, Note_on_c, 0, 60, 45
2, 143346, Note_on_c, 0, 48, 0
2, 143354, Note_on_c, 0, 47, 59
2, 143422, Note_on_c, 0, 47, 0
2, 143454, Note_on_c, 0, 58, 0
2, 143458, Note_on_c, 0, 46, 27
2, 143466, Note_on_c, 0, 60, 0
2, 143490, Note_on_c, 0, 46, 0
2, 143506, Note_on_c, 0, 45, 50
2, 143610, Note_on_c, 0, 45, 0
2, 143614, Note_on_c, 0, 44, 50
2, 143650, Note_on_c, 0, 44, 0
2, 143686, Note_on_c, 0, 43, 49
2, 143774, Note_on_c, 0, 43, 0
2, 143814, Note_on_c, 0, 42, 43
2, 143818, Note_on_c, 0, 56, 46
2, 143822, Note_on_c, 0, 60, 47
2, 143846, Note_on_c, 0, 52, 14
2, 143970, Control_c, 0, 64, 127
2, 144054, Note_on_c, 0, 52, 0
2, 144110, Note_on_c, 0, 42, 0
2, 144194, Note_on_c, 0, 60, 0
2, 144226, Note_on_c, 0, 56, 0
2, 144310, Note_on_c, 0, 64, 49
2, 144350, Note_on_c, 0, 64, 0
2, 144546, Control_c, 0, 64, 0
2, 144546, Note_on_c, 0, 62, 59
2, 144554, Note_on_c, 0, 57, 53
2, 144566, Note_on_c, 0, 41, 49
2, 144726, Control_c, 0, 64, 127
2, 144754, Note_on_c, 0, 57, 0
2, 144794, Note_on_c, 0, 62, 0
2, 144838, Note_on_c, 0, 48, 55
2, 144930, Note_on_c, 0, 41, 0
2, 145050, Note_on_c, 0, 57, 76
2, 145306, Note_on_c, 0, 72, 69
2, 145314, Note_on_c, 0, 67, 70
2, 145318, Note_on_c, 0, 60, 66
2, 145454, Note_on_c, 0, 57, 0
2, 145710, Note_on_c, 0, 60, 0
2, 145730, Note_on_c, 0, 67, 0
2, 145758, Note_on_c, 0, 41, 49
2, 145806, Note_on_c, 0, 48, 0
2, 145822, Note_on_c, 0, 41, 0
2, 145982, Note_on_c, 0, 72, 0
2, 146022, Note_on_c, 0, 61, 56
2, 146038, Note_on_c, 0, 65, 56
2, 146038, Control_c, 0, 64, 0
2, 146046, Note_on_c, 0, 69, 51
2, 146058, Note_on_c, 0, 39, 51
2, 146202, Control_c, 0, 64, 127
2, 146378, Note_on_c, 0, 39, 0
2, 146438, Note_on_c, 0, 46, 40
2, 146474, Note_on_c, 0, 65, 0
2, 146506, Note_on_c, 0, 69, 0
2, 146554, Note_on_c, 0, 61, 0
2, 146722, Note_on_c, 0, 61, 46
2, 146730, Note_on_c, 0, 55, 50
2, 146750, Note_on_c, 0, 69, 38
2, 146754, Note_on_c, 0, 65, 43
2, 146782, Note_on_c, 0, 55, 0
2, 146838, Note_on_c, 0, 69, 0
2, 146850, Note_on_c, 0, 65, 0
2, 146850, Note_on_c, 0, 46, 0
2, 146878, Note_on_c, 0, 61, 0
2, 147166, Note_on_c, 0, 39, 47
2, 147166, Note_on_c, 0, 55, 56
2, 147330, Note_on_c, 0, 39, 0
2, 147346, Note_on_c, 0, 55, 0
2, 147346, Control_c, 0, 64, 0
2, 147430, Note_on_c, 0, 54, 52
2, 147446, Note_on_c, 0, 38, 47
2, 147458, Control_c, 0, 64, 127
2, 147542, Note_on_c, 0, 38, 0
2, 147558, Note_on_c, 0, 54, 0
2, 148134, Note_on_c, 0, 60, 47
2, 148134, Note_on_c, 0, 54, 44
2, 148226, Note_on_c, 0, 60, 0
2, 148266, Note_on_c, 0, 54, 0
2, 148594, Note_on_c, 0, 71, 68
2, 148610, Note_on_c, 0, 64, 52
2, 148614, Note_on_c, 0, 68, 48
2, 148622, Note_on_c, 0, 65, 42
2, 148642, Note_on_c, 0, 64, 0
2, 148658, Note_on_c, 0, 65, 0
2, 148670, Note_on_c, 0, 71, 0
2, 148694, Note_on_c, 0, 68, 0
2, 148794, Note_on_c, 0, 53, 39
2, 148830, Note_on_c, 0, 53, 0
2, 148842, Note_on_c, 0, 54, 49
2, 148846, Control_c, 0, 64, 0
2, 148874, Note_on_c, 0, 72, 49
2, 148878, Note_on_c, 0, 62, 49
2, 148878, Note_on_c, 0, 69, 51
2, 148878, Note_on_c, 0, 65, 51
2, 148882, Note_on_c, 0, 54, 0
2, 148882, Note_on_c, 0, 55, 43
2, 149022, Control_c, 0, 64, 127
2, 149098, Note_on_c, 0, 43, 54
2, 149114, Note_on_c, 0, 62, 0
2, 149174, Note_on_c, 0, 65, 0
2, 149174, Note_on_c, 0, 43, 0
2, 149186, Note_on_c, 0, 69, 0
2, 149214, Note_on_c, 0, 55, 0
2, 149298, Note_on_c, 0, 72, 0
2, 150082, Note_on_c, 0, 68, 41
2, 150086, Note_on_c, 0, 65, 37
2, 150086, Note_on_c, 0, 74, 43
2, 150126, Note_on_c, 0, 65, 0
2, 150146, Note_on_c, 0, 74, 0
2, 150174, Note_on_c, 0, 68, 0
2, 150330, Control_c, 0, 64, 0
2, 150342, Note_on_c, 0, 67, 41
2, 150366, Note_on_c, 0, 62, 26
2, 150366, Note_on_c, 0, 72, 43
2, 150366, Note_on_c, 0, 76, 42
2, 150370, Note_on_c, 0, 56, 39
2, 150398, Note_on_c, 0, 52, 22
2, 150446, Control_c, 0, 64, 127
2, 150578, Note_on_c, 0, 52, 0
2, 150582, Note_on_c, 0, 67, 0
2, 150590, Note_on_c, 0, 76, 0
2, 150590, Note_on_c, 0, 72, 0
2, 150594, Note_on_c, 0, 62, 0
2, 150594, Note_on_c, 0, 56, 0
2, 150822, Note_on_c, 0, 76, 49
2, 150822, Note_on_c, 0, 67, 45
2, 150826, Note_on_c, 0, 62, 49
2, 150830, Note_on_c, 0, 56, 45
2, 150838, Note_on_c, 0, 72, 50
2, 150858, Note_on_c, 0, 52, 31
2, 150946, Note_on_c, 0, 72, 0
2, 150950, Note_on_c, 0, 52, 0
2, 150962, Note_on_c, 0, 62, 0
2, 150962, Note_on_c, 0, 67, 0
2, 150974, Note_on_c, 0, 76, 0
2, 150978, Note_on_c, 0, 56, 0
2, 151102, Note_on_c, 0, 76, 61
2, 151106, Note_on_c, 0, 67, 52
2, 151106, Note_on_c, 0, 56, 49
2, 151106, Note_on_c, 0, 62, 52
2, 151118, Note_on_c, 0, 72, 58
2, 151122, Note_on_c, 0, 52, 46
2, 151270, Note_on_c, 0, 52, 0
2, 151282, Note_on_c, 0, 62, 0
2, 151286, Note_on_c, 0, 72, 0
2, 151310, Note_on_c, 0, 56, 0
2, 151310, Note_on_c, 0, 67, 0
2, 151330, Note_on_c, 0, 76, 0
2, 151538, Note_on_c, 0, 56, 49
2, 151542, Note_on_c, 0, 62, 55
2, 151542, Note_on_c, 0, 76, 74
2, 151546, Note_on_c, 0, 52, 55
2, 151546, Note_on_c, 0, 67, 75
2, 151550, Note_on_c, 0, 72, 65
2, 151586, Note_on_c, 0, 74, 35
2, 151602, Note_on_c, 0, 62, 0
2, 151626, Note_on_c, 0, 76, 0
2, 151626, Note_on_c, 0, 67, 0
2, 151626, Note_on_c, 0, 74, 0
2, 151642, Note_on_c, 0, 52, 0
2, 151670, Note_on_c, 0, 56, 0
2, 151686, Note_on_c, 0, 72, 0
2, 151802, Control_c, 0, 64, 24
2, 151806, Control_c, 0, 64, 0
2, 151810, Note_on_c, 0, 77, 82
2, 151810, Note_on_c, 0, 69, 75
2, 151814, Note_on_c, 0, 61, 68
2, 151822, Note_on_c, 0, 65, 77
2, 151822, Note_on_c, 0, 72, 57
2, 151826, Note_on_c, 0, 55, 68
2, 151950, Control_c, 0, 64, 127
2, 152098, Note_on_c, 0, 65, 0
2, 152110, Note_on_c, 0, 77, 0
2, 152110, Note_on_c, 0, 61, 0
2, 152110, Note_on_c, 0, 55, 0
2, 152118, Note_on_c, 0, 69, 0
2, 152134, Note_on_c, 0, 72, 0
2, 152302, Control_c, 0, 64, 0
2, 152530, Control_c, 0, 64, 127
2, 152546, Note_on_c, 0, 61, 49
2, 152546, Note_on_c, 0, 65, 56
2, 152550, Note_on_c, 0, 77, 50
2, 152554, Note_on_c, 0, 69, 48
2, 152558, Note_on_c, 0, 55, 50
2, 152566, Note_on_c, 0, 72, 46
2, 152806, Note_on_c, 0, 55, 0
2, 152810, Note_on_c, 0, 77, 0
2, 152850, Note_on_c, 0, 65, 0
2, 152866, Note_on_c, 0, 61, 0
2, 152878, Note_on_c, 0, 72, 0
2, 152882, Note_on_c, 0, 69, 0
2, 153270, Note_on_c, 0, 63, 43
2, 153270, Control_c, 0, 64, 0
2, 153278, Note_on_c, 0, 74, 49
2, 153290, Note_on_c, 0, 68, 41
2, 153290, Note_on_c, 0, 60, 40
2, 153298, Note_on_c, 0, 54, 39
2, 153502, Control_c, 0, 64, 127
2, 153546, Note_on_c, 0, 63, 0
2, 153598, Note_on_c, 0, 74, 0
2, 153646, Note_on_c, 0, 68, 0
2, 153750, Note_on_c, 0, 50, 73
2, 153754, Note_on_c, 0, 65, 79
2, 153754, Note_on_c, 0, 74, 79
2, 153754, Note_on_c, 0, 70, 77
2, 153862, Note_on_c, 0, 54, 0
2, 153986, Note_on_c, 0, 65, 0
2, 153998, Note_on_c, 0, 74, 0
2, 154002, Note_on_c, 0, 70, 0
2, 154026, Control_c, 0, 64, 0
2, 154050, Note_on_c, 0, 65, 66
2, 154058, Note_on_c, 0, 70, 68
2, 154062, Note_on_c, 0, 74, 75
2, 154066, Control_c, 0, 64, 127
2, 154074, Note_on_c, 0, 54, 51
2, 154086, Note_on_c, 0, 60, 0
2, 154106, Note_on_c, 0, 54, 0
2, 154146, Note_on_c, 0, 50, 0
2, 154458, Note_on_c, 0, 32, 57
2, 154490, Note_on_c, 0, 65, 0
2, 154522, Note_on_c, 0, 74, 0
2, 154542, Note_on_c, 0, 70, 0
2, 154570, Note_on_c, 0, 32, 0
2, 154666, Control_c, 0, 64, 0
2, 154762, Control_c, 0, 64, 127
2, 154762, Note_on_c, 0, 31, 68
2, 154806, Note_on_c, 0, 31, 0
2, 155222, Note_on_c, 0, 76, 81
2, 155226, Note_on_c, 0, 65, 80
2, 155226, Note_on_c, 0, 68, 73
2, 155230, Note_on_c, 0, 59, 58
2, 155230, Note_on_c, 0, 53, 68
2, 155230, Note_on_c, 0, 64, 65
2, 155230, Note_on_c, 0, 71, 72
2, 155650, Note_on_c, 0, 76, 0
2, 155826, Note_on_c, 0, 76, 69
2, 155846, Note_on_c, 0, 64, 0
2, 155882, Note_on_c, 0, 59, 0
2, 155918, Note_on_c, 0, 76, 0
2, 155922, Note_on_c, 0, 65, 0
2, 155926, Note_on_c, 0, 53, 0
2, 155966, Note_on_c, 0, 71, 0
2, 156002, Note_on_c, 0, 76, 52
2, 156034, Note_on_c, 0, 76, 0
2, 156102, Note_on_c, 0, 68, 0
2, 156230, Note_on_c, 0, 62, 54
2, 156230, Control_c, 0, 64, 0
2, 156242, Note_on_c, 0, 67, 50
2, 156242, Note_on_c, 0, 72, 49
2, 156642, Note_on_c, 0, 54, 62
2, 156814, Note_on_c, 0, 54, 0
2, 156838, Note_on_c, 0, 55, 60
2, 157026, Note_on_c, 0, 62, 0
2, 157030, Control_c, 0, 64, 127
2, 157038, Note_on_c, 0, 59, 61
2, 157042, Note_on_c, 0, 67, 0
2, 157062, Note_on_c, 0, 72, 0
2, 157450, Note_on_c, 0, 59, 0
2, 157470, Note_on_c, 0, 62, 59
2, 157530, Note_on_c, 0, 55, 0
2, 157686, Note_on_c, 0, 62, 0
2, 157726, Control_c, 0, 64, 0
2, 157746, Note_on_c, 0, 60, 56
2, 157758, Note_on_c, 0, 55, 32
2, 157878, Control_c, 0, 64, 127
2, 158138, Control_c, 0, 64, 0
2, 158154, Note_on_c, 0, 42, 49
2, 158362, Note_on_c, 0, 42, 0
2, 158418, Note_on_c, 0, 43, 44
2, 158442, Control_c, 0, 64, 127
2, 158522, Note_on_c, 0, 43, 0
2, 158690, Note_on_c, 0, 43, 44
2, 158692, Note_on_c, 0, 55, 0
2, 158692, Note_on_c, 0, 60, 0
2, 158714, Control_c, 0, 64, 127
2, 158794, Note_on_c, 0, 43, 0
2, 158974, Control_c, 0, 64, 0
2, 159106, Note_on_c, 0, 35, 39
2, 159146, Control_c, 0, 64, 127
2, 159230, Note_on_c, 0, 35, 0
2, 159378, Control_c, 0, 64, 0
2, 159422, Note_on_c, 0, 36, 65
2, 159650, Control_c, 0, 64, 127
2, 159862, Note_on_c, 0, 24, 63
2, 159878, Note_on_c, 0, 36, 0
2, 159890, Note_on_c, 0, 24, 0
2, 160166, Note_on_c, 0, 67, 65
2, 160166, Note_on_c, 0, 55, 68
2, 160166, Note_on_c, 0, 57, 71
2, 160166, Note_on_c, 0, 60, 73
2, 160166, Note_on_c, 0, 65, 62
2, 160178, Control_c, 0, 64, 0
2, 160358, Control_c, 0, 64, 127
2, 160582, Note_on_c, 0, 60, 0
2, 160594, Note_on_c, 0, 57, 0
2, 160594, Note_on_c, 0, 43, 68
2, 160618, Note_on_c, 0, 67, 0
2, 160634, Note_on_c, 0, 65, 0
2, 160654, Note_on_c, 0, 55, 0
2, 160874, Control_c, 0, 64, 0
2, 160882, Note_on_c, 0, 69, 75
2, 160890, Note_on_c, 0, 59, 66
2, 160890, Note_on_c, 0, 63, 68
2, 160894, Note_on_c, 0, 53, 56
2, 161050, Control_c, 0, 64, 127
2, 161178, Note_on_c, 0, 43, 0
2, 161314, Note_on_c, 0, 41, 76
2, 161386, Control_c, 0, 64, 0
2, 161450, Note_on_c, 0, 59, 0
2, 161450, Control_c, 0, 64, 127
2, 161454, Note_on_c, 0, 69, 0
2, 161566, Note_on_c, 0, 63, 0
2, 161826, Note_on_c, 0, 41, 0
2, 161930, Note_on_c, 0, 53, 0
2, 162030, Note_on_c, 0, 71, 63
2, 162106, Note_on_c, 0, 71, 0
2, 162286, Control_c, 0, 64, 0
2, 162314, Note_on_c, 0, 72, 57
2, 162318, Note_on_c, 0, 40, 48
2, 162322, Note_on_c, 0, 64, 49
2, 162334, Note_on_c, 0, 55, 44
2, 162338, Note_on_c, 0, 67, 49
2, 162382, Control_c, 0, 64, 127
2, 162450, Note_on_c, 0, 40, 0
2, 162506, Note_on_c, 0, 64, 0
2, 162534, Note_on_c, 0, 55, 0
2, 162586, Note_on_c, 0, 67, 0
2, 162586, Note_on_c, 0, 72, 0
2, 163030, Note_on_c, 0, 59, 39
2, 163030, Note_on_c, 0, 64, 41
2, 163034, Note_on_c, 0, 67, 43
2, 163042, Note_on_c, 0, 52, 37
2, 163146, Note_on_c, 0, 64, 0
2, 163186, Note_on_c, 0, 59, 0
2, 163190, Note_on_c, 0, 67, 0
2, 163318, Note_on_c, 0, 52, 0
2, 163494, Note_on_c, 0, 64, 57
2, 163494, Note_on_c, 0, 79, 68
2, 163502, Note_on_c, 0, 69, 46
2, 163506, Note_on_c, 0, 74, 63
2, 163558, Note_on_c, 0, 74, 0
2, 163562, Note_on_c, 0, 64, 0
2, 163562, Note_on_c, 0, 79, 0
2, 163582, Note_on_c, 0, 69, 0
2, 163754, Control_c, 0, 64, 0
2, 163782, Note_on_c, 0, 76, 59
2, 163782, Note_on_c, 0, 67, 53
2, 163790, Note_on_c, 0, 60, 49
2, 163798, Note_on_c, 0, 72, 48
2, 163798, Note_on_c, 0, 69, 50
2, 163822, Control_c, 0, 64, 127
2, 164066, Note_on_c, 0, 76, 0
2, 164082, Note_on_c, 0, 72, 0
2, 164110, Note_on_c, 0, 67, 0
2, 164110, Note_on_c, 0, 69, 0
2, 164134, Note_on_c, 0, 60, 0
2, 164466, Note_on_c, 0, 64, 45
2, 164466, Note_on_c, 0, 72, 51
2, 164474, Note_on_c, 0, 55, 51
2, 164482, Note_on_c, 0, 67, 43
2, 164506, Note_on_c, 0, 55, 0
2, 164694, Note_on_c, 0, 72, 0
2, 164754, Note_on_c, 0, 67, 0
2, 164766, Note_on_c, 0, 64, 0
2, 165126, Control_c, 0, 64, 0
2, 165146, Note_on_c, 0, 41, 46
2, 165150, Note_on_c, 0, 48, 34
2, 165154, Note_on_c, 0, 71, 52
2, 165154, Note_on_c, 0, 62, 43
2, 165166, Note_on_c, 0, 67, 40
2, 165182, Note_on_c, 0, 57, 30
2, 165246, Control_c, 0, 64, 127
2, 165422, Note_on_c, 0, 57, 0
2, 165486, Note_on_c, 0, 62, 0
2, 165626, Note_on_c, 0, 67, 0
2, 165638, Note_on_c, 0, 71, 0
2, 165830, Note_on_c, 0, 57, 45
2, 165842, Note_on_c, 0, 69, 54
2, 165846, Note_on_c, 0, 60, 48
2, 165850, Note_on_c, 0, 65, 51
2, 165906, Note_on_c, 0, 41, 0
2, 165934, Note_on_c, 0, 57, 0
2, 166222, Note_on_c, 0, 69, 0
2, 166266, Note_on_c, 0, 65, 0
2, 166294, Note_on_c, 0, 41, 38
2, 166330, Note_on_c, 0, 60, 0
2, 166654, Note_on_c, 0, 48, 0
2, 166742, Note_on_c, 0, 41, 0
2, 166930, Control_c, 0, 64, 0
2, 166938, Note_on_c, 0, 65, 62
2, 166946, Note_on_c, 0, 60, 71
2, 166950, Note_on_c, 0, 67, 66
2, 166954, Note_on_c, 0, 57, 68
2, 166954, Note_on_c, 0, 43, 58
2, 167082, Control_c, 0, 64, 127
2, 167166, Note_on_c, 0, 67, 0
2, 167186, Note_on_c, 0, 57, 0
2, 167194, Note_on_c, 0, 43, 0
2, 167206, Note_on_c, 0, 60, 0
2, 167238, Note_on_c, 0, 65, 0
2, 167290, Note_on_c, 0, 67, 66
2, 167290, Note_on_c, 0, 43, 60
2, 167294, Note_on_c, 0, 60, 59
2, 167298, Note_on_c, 0, 57, 73
2, 167302, Note_on_c, 0, 65, 46
2, 167426, Note_on_c, 0, 57, 0
2, 167426, Note_on_c, 0, 60, 0
2, 167430, Note_on_c, 0, 65, 0
2, 167434, Note_on_c, 0, 67, 0
2, 167522, Note_on_c, 0, 43, 0
2, 167714, Note_on_c, 0, 69, 70
2, 167722, Note_on_c, 0, 43, 55
2, 167786, Note_on_c, 0, 69, 0
2, 167806, Note_on_c, 0, 43, 0
2, 168002, Note_on_c, 0, 67, 65
2, 168002, Control_c, 0, 64, 0
2, 168010, Note_on_c, 0, 62, 60
2, 168018, Note_on_c, 0, 55, 39
2, 168022, Note_on_c, 0, 40, 53
2, 168138, Control_c, 0, 64, 127
2, 168310, Note_on_c, 0, 55, 0
2, 168334, Note_on_c, 0, 40, 0
2, 168358, Note_on_c, 0, 62, 0
2, 168430, Note_on_c, 0, 67, 0
2, 168662, Control_c, 0, 64, 0
2, 168674, Note_on_c, 0, 64, 57
2, 168678, Note_on_c, 0, 56, 46
2, 168678, Note_on_c, 0, 46, 49
2, 168682, Note_on_c, 0, 60, 47
2, 168774, Control_c, 0, 64, 127
2, 168946, Note_on_c, 0, 56, 0
2, 168962, Note_on_c, 0, 64, 0
2, 168982, Note_on_c, 0, 60, 0
2, 169042, Note_on_c, 0, 46, 0
2, 169314, Control_c, 0, 64, 0
2, 169354, Note_on_c, 0, 60, 54
2, 169354, Note_on_c, 0, 55, 43
2, 169362, Note_on_c, 0, 57, 46
2, 169370, Note_on_c, 0, 45, 40
2, 169390, Note_on_c, 0, 52, 37
2, 169414, Control_c, 0, 64, 127
2, 169498, Note_on_c, 0, 55, 0
2, 169502, Note_on_c, 0, 57, 0
2, 169530, Note_on_c, 0, 60, 0
2, 169550, Note_on_c, 0, 45, 0
2, 169598, Note_on_c, 0, 52, 0
2, 170062, Note_on_c, 0, 64, 49
2, 170066, Note_on_c, 0, 67, 49
2, 170442, Note_on_c, 0, 62, 57
2, 170530, Note_on_c, 0, 67, 0
2, 170590, Note_on_c, 0, 64, 0
2, 170682, Note_on_c, 0, 62, 0
2, 170782, Note_on_c, 0, 65, 52
2, 170782, Note_on_c, 0, 60, 57
2, 170790, Control_c, 0, 64, 0
2, 170798, Note_on_c, 0, 69, 45
2, 170882, Control_c, 0, 64, 127
2, 170926, Note_on_c, 0, 60, 0
2, 171146, Note_on_c, 0, 57, 63
2, 171230, Note_on_c, 0, 57, 0
2, 171270, Note_on_c, 0, 65, 0
2, 171418, Note_on_c, 0, 69, 0
2, 171454, Control_c, 0, 64, 0
2, 171482, Note_on_c, 0, 65, 54
2, 171490, Note_on_c, 0, 60, 52
2, 171494, Note_on_c, 0, 55, 50
2, 171542, Control_c, 0, 64, 127
2, 171770, Note_on_c, 0, 65, 0
2, 171814, Note_on_c, 0, 60, 0
2, 171830, Note_on_c, 0, 43, 66
2, 171842, Note_on_c, 0, 55, 0
2, 172174, Control_c, 0, 64, 0
2, 172186, Note_on_c, 0, 67, 72
2, 172194, Note_on_c, 0, 55, 75
2, 172198, Note_on_c, 0, 60, 73
2, 172198, Note_on_c, 0, 65, 60
2, 172198, Note_on_c, 0, 57, 68
2, 172326, Control_c, 0, 64, 127
2, 172422, Note_on_c, 0, 43, 0
2, 172538, Note_on_c, 0, 43, 68
2, 172566, Note_on_c, 0, 60, 0
2, 172570, Note_on_c, 0, 57, 0
2, 172594, Note_on_c, 0, 65, 0
2, 172594, Note_on_c, 0, 67, 0
2, 172674, Note_on_c, 0, 55, 0
2, 172678, Note_on_c, 0, 43, 0
2, 172838, Control_c, 0, 64, 0
2, 172890, Note_on_c, 0, 69, 77
2, 172898, Note_on_c, 0, 62, 76
2, 172898, Note_on_c, 0, 44, 63
2, 172902, Note_on_c, 0, 59, 66
2, 172910, Note_on_c, 0, 53, 47
2, 172962, Control_c, 0, 64, 127
2, 173026, Note_on_c, 0, 69, 0
2, 173062, Note_on_c, 0, 59, 0
2, 173078, Note_on_c, 0, 62, 0
2, 173234, Note_on_c, 0, 71, 85
2, 173270, Note_on_c, 0, 70, 46
2, 173282, Note_on_c, 0, 44, 0
2, 173302, Note_on_c, 0, 70, 0
2, 173322, Note_on_c, 0, 53, 0
2, 173338, Note_on_c, 0, 71, 0
2, 173546, Control_c, 0, 64, 0
2, 173578, Note_on_c, 0, 57, 48
2, 173582, Note_on_c, 0, 72, 72
2, 173586, Note_on_c, 0, 45, 48
2, 173586, Note_on_c, 0, 52, 51
2, 173590, Note_on_c, 0, 67, 63
2, 173590, Note_on_c, 0, 60, 68
2, 173682, Control_c, 0, 64, 127
2, 173774, Note_on_c, 0, 45, 0
2, 173818, Note_on_c, 0, 57, 0
2, 173930, Note_on_c, 0, 67, 0
2, 173950, Note_on_c, 0, 59, 85
2, 174086, Note_on_c, 0, 60, 0
2, 174286, Control_c, 0, 64, 0
2, 174302, Note_on_c, 0, 64, 78
2, 174302, Note_on_c, 0, 60, 74
2, 174326, Note_on_c, 0, 70, 31
2, 174394, Control_c, 0, 64, 127
2, 174574, Note_on_c, 0, 59, 0
2, 174654, Control_c, 0, 64, 0
2, 174662, Note_on_c, 0, 57, 94
2, 174750, Note_on_c, 0, 60, 0
2, 174766, Control_c, 0, 64, 127
2, 174846, Note_on_c, 0, 64, 0
2, 174934, Control_c, 0, 64, 0
2, 175010, Note_on_c, 0, 64, 61
2, 175010, Note_on_c, 0, 60, 67
2, 175018, Control_c, 0, 64, 127
2, 175266, Note_on_c, 0, 57, 0
2, 175366, Note_on_c, 0, 55, 96
2, 175370, Control_c, 0, 64, 0
2, 175394, Note_on_c, 0, 60, 0
2, 175438, Note_on_c, 0, 64, 0
2, 175482, Control_c, 0, 64, 127
2, 175686, Note_on_c, 0, 60, 63
2, 175690, Note_on_c, 0, 64, 61
2, 175722, Note_on_c, 0, 55, 0
2, 176062, Note_on_c, 0, 55, 75
2, 176098, Note_on_c, 0, 72, 0
2, 176130, Note_on_c, 0, 52, 0
2, 176142, Note_on_c, 0, 60, 0
2, 176182, Note_on_c, 0, 70, 0
2, 176222, Note_on_c, 0, 55, 0
2, 176242, Note_on_c, 0, 64, 0
2, 176394, Control_c, 0, 64, 0
2, 176418, Note_on_c, 0, 71, 84
2, 176422, Note_on_c, 0, 62, 85
2, 176426, Note_on_c, 0, 41, 74
2, 176426, Note_on_c, 0, 67, 73
2, 176434, Note_on_c, 0, 48, 59
2, 176562, Control_c, 0, 64, 127
2, 177170, Note_on_c, 0, 41, 0
2, 177174, Note_on_c, 0, 62, 0
2, 177190, Note_on_c, 0, 67, 0
2, 177214, Note_on_c, 0, 71, 0
2, 177230, Note_on_c, 0, 48, 0
2, 177526, Note_on_c, 0, 69, 51
2, 177674, Note_on_c, 0, 69, 0
2, 177822, Control_c, 0, 64, 0
2, 177830, Note_on_c, 0, 40, 44
2, 177830, Note_on_c, 0, 47, 39
2, 177834, Note_on_c, 0, 62, 45
2, 177834, Note_on_c, 0, 67, 51
2, 177846, Note_on_c, 0, 55, 36
2, 178034, Control_c, 0, 64, 127
2, 178350, Note_on_c, 0, 40, 0
2, 178386, Note_on_c, 0, 47, 0
2, 178530, Note_on_c, 0, 55, 0
2, 178618, Note_on_c, 0, 67, 0
2, 178794, Note_on_c, 0, 62, 0
2, 179170, Control_c, 0, 64, 0
2, 179194, Note_on_c, 0, 55, 41
2, 179198, Note_on_c, 0, 62, 50
2, 179202, Note_on_c, 0, 60, 51
2, 179202, Note_on_c, 0, 46, 39
2, 179214, Note_on_c, 0, 39, 37
2, 179302, Control_c, 0, 64, 127
2, 179346, Note_on_c, 0, 55, 0
2, 179370, Note_on_c, 0, 62, 0
2, 179378, Note_on_c, 0, 60, 0
2, 179486, Note_on_c, 0, 39, 0
2, 179538, Note_on_c, 0, 46, 0
2, 179662, Note_on_c, 0, 74, 65
2, 179706, Note_on_c, 0, 72, 63
2, 179766, Note_on_c, 0, 74, 0
2, 179786, Note_on_c, 0, 67, 44
2, 179806, Note_on_c, 0, 72, 0
2, 179842, Note_on_c, 0, 67, 0
2, 180038, Note_on_c, 0, 65, 41
2, 180046, Note_on_c, 0, 86, 66
2, 180062, Note_on_c, 0, 60, 35
2, 180082, Note_on_c, 0, 62, 26
2, 180754, Note_on_c, 0, 79, 49
2, 180842, Note_on_c, 0, 65, 0
2, 180902, Note_on_c, 0, 62, 0
2, 181014, Note_on_c, 0, 86, 0
2, 181018, Note_on_c, 0, 79, 0
2, 181242, Note_on_c, 0, 60, 0
2, 181790, Note_on_c, 0, 62, 44
2, 181866, Note_on_c, 0, 62, 0
2, 182098, Control_c, 0, 64, 0
2, 182146, Note_on_c, 0, 55, 32
2, 182146, Note_on_c, 0, 62, 41
2, 182154, Note_on_c, 0, 43, 31
2, 182158, Note_on_c, 0, 60, 40
2, 182162, Note_on_c, 0, 50, 27
2, 182198, Control_c, 0, 64, 127
2, 182286, Note_on_c, 0, 55, 0
2, 182346, Note_on_c, 0, 50, 0
2, 182366, Note_on_c, 0, 60, 0
2, 182366, Note_on_c, 0, 43, 0
2, 182434, Note_on_c, 0, 62, 0
2, 182886, Note_on_c, 0, 67, 79
2, 182894, Note_on_c, 0, 56, 83
2, 182894, Note_on_c, 0, 59, 81
2, 182894, Note_on_c, 0, 62, 72
2, 182906, Control_c, 0, 64, 0
2, 182922, Note_on_c, 0, 55, 50
2, 183022, Control_c, 0, 64, 127
2, 183166, Note_on_c, 0, 55, 0
2, 183358, Note_on_c, 0, 59, 0
2, 183362, Note_on_c, 0, 56, 0
2, 183382, Note_on_c, 0, 62, 0
2, 183570, Note_on_c, 0, 67, 0
2, 183682, Note_on_c, 0, 67, 53
2, 183686, Note_on_c, 0, 57, 71
2, 183690, Note_on_c, 0, 64, 65
2, 183698, Note_on_c, 0, 60, 67
2, 183706, Control_c, 0, 64, 0
2, 183710, Note_on_c, 0, 55, 51
2, 183906, Control_c, 0, 64, 127
2, 184134, Note_on_c, 0, 60, 0
2, 184134, Note_on_c, 0, 57, 0
2, 184170, Note_on_c, 0, 55, 0
2, 184222, Note_on_c, 0, 64, 0
2, 184286, Note_on_c, 0, 67, 0
2, 184442, Note_on_c, 0, 67, 63
2, 184450, Control_c, 0, 64, 0
2, 184458, Note_on_c, 0, 59, 45
2, 184462, Note_on_c, 0, 53, 44
2, 184478, Note_on_c, 0, 62, 43
2, 184550, Control_c, 0, 64, 127
2, 184662, Note_on_c, 0, 59, 0
2, 184698, Note_on_c, 0, 53, 0
2, 184742, Note_on_c, 0, 62, 0
2, 184770, Note_on_c, 0, 67, 0
2, 185142, Control_c, 0, 64, 0
2, 185174, Note_on_c, 0, 76, 49
2, 185174, Note_on_c, 0, 36, 48
2, 185182, Note_on_c, 0, 64, 36
2, 185198, Note_on_c, 0, 52, 33
2, 185250, Control_c, 0, 64, 127
2, 185294, Note_on_c, 0, 64, 0
2, 185342, Note_on_c, 0, 76, 0
2, 185354, Note_on_c, 0, 36, 0
2, 185466, Note_on_c, 0, 52, 0
2, 185478, Note_on_c, 0, 88, 58
2, 185922, Note_on_c, 0, 64, 47
2, 185934, Note_on_c, 0, 58, 48
2, 185966, Note_on_c, 0, 88, 0
2, 186242, Note_on_c, 0, 64, 0
2, 186330, Note_on_c, 0, 58, 0
2, 186394, Note_on_c, 0, 76, 43
2, 186618, Control_c, 0, 64, 0
2, 186630, Note_on_c, 0, 62, 39
2, 186642, Note_on_c, 0, 58, 37
2, 186654, Note_on_c, 0, 52, 27
2, 186702, Control_c, 0, 64, 127
2, 186762, Note_on_c, 0, 62, 0
2, 186778, Note_on_c, 0, 52, 0
2, 186830, Note_on_c, 0, 58, 0
2, 186850, Note_on_c, 0, 84, 57
2, 186886, Note_on_c, 0, 76, 0
2, 187090, Note_on_c, 0, 73, 57
2, 187330, Note_on_c, 0, 58, 53
2, 187358, Note_on_c, 0, 48, 35
2, 187378, Note_on_c, 0, 58, 0
2, 187402, Note_on_c, 0, 48, 0
2, 187570, Note_on_c, 0, 84, 0
2, 187574, Note_on_c, 0, 73, 0
2, 187594, Note_on_c, 0, 72, 61
2, 187866, Note_on_c, 0, 72, 0
2, 188106, Note_on_c, 0, 65, 47
2, 188110, Note_on_c, 0, 41, 49
2, 188114, Note_on_c, 0, 48, 39
2, 188134, Control_c, 0, 64, 0
2, 188146, Note_on_c, 0, 57, 33
2, 188242, Control_c, 0, 64, 127
2, 188334, Note_on_c, 0, 41, 0
2, 188358, Note_on_c, 0, 48, 0
2, 188394, Note_on_c, 0, 57, 0
2, 188490, Note_on_c, 0, 65, 0
2, 188602, Control_c, 0, 64, 0
2, 188614, Note_on_c, 0, 65, 76
2, 188618, Note_on_c, 0, 58, 83
2, 188618, Note_on_c, 0, 74, 79
2, 188626, Note_on_c, 0, 69, 69
2, 188642, Control_c, 0, 64, 127
2, 188742, Note_on_c, 0, 69, 0
2, 188746, Note_on_c, 0, 74, 0
2, 188790, Note_on_c, 0, 65, 0
2, 188862, Note_on_c, 0, 58, 0
2, 188870, Control_c, 0, 64, 0
2, 188906, Note_on_c, 0, 72, 72
2, 188910, Note_on_c, 0, 57, 80
2, 188914, Note_on_c, 0, 62, 63
2, 188922, Note_on_c, 0, 67, 72
2, 189014, Control_c, 0, 64, 127
2, 189278, Note_on_c, 0, 72, 0
2, 189290, Note_on_c, 0, 67, 0
2, 189350, Note_on_c, 0, 62, 0
2, 189626, Control_c, 0, 64, 0
2, 189630, Note_on_c, 0, 57, 0
2, 189642, Note_on_c, 0, 54, 52
2, 189646, Note_on_c, 0, 69, 57
2, 189650, Note_on_c, 0, 60, 52
2, 189654, Note_on_c, 0, 66, 50
2, 189662, Note_on_c, 0, 63, 50
2, 189770, Control_c, 0, 64, 127
2, 189942, Note_on_c, 0, 60, 0
2, 189946, Note_on_c, 0, 69, 0
2, 189998, Note_on_c, 0, 63, 0
2, 189998, Note_on_c, 0, 66, 0
2, 190046, Note_on_c, 0, 54, 0
2, 190398, Note_on_c, 0, 63, 48
2, 190398, Note_on_c, 0, 72, 49
2, 190402, Note_on_c, 0, 54, 39
2, 190414, Note_on_c, 0, 66, 46
2, 190418, Note_on_c, 0, 57, 31
2, 190466, Note_on_c, 0, 57, 0
2, 190478, Note_on_c, 0, 54, 0
2, 190534, Note_on_c, 0, 72, 0
2, 190578, Note_on_c, 0, 63, 0
2, 190590, Note_on_c, 0, 66, 0
2, 191138, Control_c, 0, 64, 0
2, 191150, Note_on_c, 0, 57, 50
2, 191154, Note_on_c, 0, 43, 37
2, 191158, Note_on_c, 0, 67, 39
2, 191158, Note_on_c, 0, 55, 37
2, 191166, Note_on_c, 0, 60, 43
2, 191214, Note_on_c, 0, 64, 24
2, 191250, Control_c, 0, 64, 127
2, 191398, Note_on_c, 0, 60, 0
2, 191402, Note_on_c, 0, 57, 0
2, 191414, Note_on_c, 0, 64, 0
2, 191502, Note_on_c, 0, 67, 0
2, 191714, Note_on_c, 0, 55, 0
2, 191898, Note_on_c, 0, 43, 0
2, 191926, Note_on_c, 0, 64, 39
2, 191934, Note_on_c, 0, 60, 46
2, 191938, Note_on_c, 0, 57, 31
2, 192002, Note_on_c, 0, 64, 0
2, 192026, Note_on_c, 0, 57, 0
2, 192042, Note_on_c, 0, 67, 54
2, 192054, Note_on_c, 0, 60, 0
2, 192114, Note_on_c, 0, 67, 0
2, 192126, Note_on_c, 0, 65, 39
2, 192154, Note_on_c, 0, 64, 37
2, 192182, Note_on_c, 0, 60, 63
2, 192202, Note_on_c, 0, 65, 0
2, 192222, Note_on_c, 0, 64, 0
2, 192286, Note_on_c, 0, 60, 0
2, 192342, Control_c, 0, 64, 0
2, 192398, Note_on_c, 0, 56, 50
2, 192410, Note_on_c, 0, 59, 52
2, 192418, Note_on_c, 0, 62, 63
2, 192434, Note_on_c, 0, 53, 38
2, 192434, Note_on_c, 0, 44, 39
2, 192470, Control_c, 0, 64, 127
2, 192574, Note_on_c, 0, 56, 0
2, 192578, Note_on_c, 0, 59, 0
2, 192654, Note_on_c, 0, 62, 0
2, 192662, Note_on_c, 0, 44, 0
2, 192674, Note_on_c, 0, 53, 0
2, 192746, Note_on_c, 0, 55, 50
2, 192746, Control_c, 0, 64, 0
2, 192754, Note_on_c, 0, 45, 46
2, 192754, Note_on_c, 0, 64, 44
2, 192754, Note_on_c, 0, 60, 50
2, 192906, Control_c, 0, 64, 127
2, 193006, Note_on_c, 0, 55, 0
2, 193086, Note_on_c, 0, 60, 0
2, 193138, Note_on_c, 0, 64, 0
2, 193194, Note_on_c, 0, 52, 51
2, 193818, Note_on_c, 0, 60, 54
2, 193838, Note_on_c, 0, 45, 0
2, 193878, Note_on_c, 0, 60, 0
2, 193986, Note_on_c, 0, 52, 0
2, 194006, Note_on_c, 0, 45, 48
2, 194066, Note_on_c, 0, 45, 0
2, 194258, Control_c, 0, 64, 0
2, 194262, Note_on_c, 0, 54, 38
2, 194278, Note_on_c, 0, 56, 45
2, 194282, Note_on_c, 0, 44, 43
2, 194294, Note_on_c, 0, 32, 39
2, 194294, Note_on_c, 0, 62, 46
2, 194294, Note_on_c, 0, 60, 44
2, 194398, Control_c, 0, 64, 127
2, 194526, Note_on_c, 0, 54, 0
2, 194538, Note_on_c, 0, 56, 0
2, 194542, Note_on_c, 0, 60, 0
2, 194554, Note_on_c, 0, 62, 0
2, 194566, Note_on_c, 0, 32, 0
2, 194590, Note_on_c, 0, 44, 0
2, 195022, Note_on_c, 0, 60, 49
2, 195026, Note_on_c, 0, 54, 50
2, 195282, Note_on_c, 0, 60, 0
2, 195474, Note_on_c, 0, 71, 66
2, 195482, Note_on_c, 0, 54, 0
2, 195482, Note_on_c, 0, 62, 55
2, 195486, Note_on_c, 0, 68, 57
2, 195494, Note_on_c, 0, 65, 52
2, 195514, Note_on_c, 0, 62, 0
2, 195542, Note_on_c, 0, 54, 22
2, 195550, Note_on_c, 0, 65, 0
2, 195562, Note_on_c, 0, 71, 0
2, 195590, Note_on_c, 0, 68, 0
2, 195610, Note_on_c, 0, 54, 0
2, 196034, Control_c, 0, 64, 0
2, 196042, Note_on_c, 0, 72, 54
2, 196042, Note_on_c, 0, 65, 56
2, 196054, Note_on_c, 0, 69, 54
2, 196054, Note_on_c, 0, 62, 48
2, 196058, Note_on_c, 0, 60, 54
2, 196154, Control_c, 0, 64, 127
2, 196154, Control_c, 0, 64, 56
2, 196218, Control_c, 0, 64, 0
2, 196270, Note_on_c, 0, 57, 57
2, 196290, Note_on_c, 0, 60, 0
2, 196290, Control_c, 0, 64, 127
2, 196310, Note_on_c, 0, 65, 0
2, 196314, Note_on_c, 0, 62, 0
2, 196322, Note_on_c, 0, 69, 0
2, 196366, Note_on_c, 0, 72, 0
2, 196490, Note_on_c, 0, 57, 0
2, 196522, Note_on_c, 0, 60, 65
2, 196534, Note_on_c, 0, 74, 65
2, 196534, Note_on_c, 0, 65, 53
2, 196538, Control_c, 0, 64, 0
2, 196542, Note_on_c, 0, 68, 55
2, 196546, Note_on_c, 0, 71, 52
2, 196642, Control_c, 0, 64, 127
2, 196958, Note_on_c, 0, 60, 0
2, 196974, Note_on_c, 0, 65, 0
2, 196986, Note_on_c, 0, 55, 46
2, 197010, Note_on_c, 0, 71, 0
2, 197018, Note_on_c, 0, 55, 0
2, 197018, Note_on_c, 0, 74, 0
2, 197038, Note_on_c, 0, 68, 0
2, 197306, Note_on_c, 0, 52, 56
2, 197314, Control_c, 0, 64, 0
2, 197314, Note_on_c, 0, 62, 49
2, 197322, Note_on_c, 0, 67, 57
2, 197322, Note_on_c, 0, 72, 63
2, 197330, Note_on_c, 0, 76, 62
2, 197378, Note_on_c, 0, 67, 0
2, 197430, Note_on_c, 0, 67, 26
2, 197454, Control_c, 0, 64, 127
2, 197578, Note_on_c, 0, 67, 0
2, 197578, Note_on_c, 0, 52, 0
2, 197630, Note_on_c, 0, 62, 0
2, 197638, Note_on_c, 0, 72, 0
2, 197674, Note_on_c, 0, 76, 0
2, 198050, Note_on_c, 0, 72, 48
2, 198050, Note_on_c, 0, 81, 63
2, 198054, Note_on_c, 0, 67, 45
2, 198062, Note_on_c, 0, 76, 54
2, 198062, Note_on_c, 0, 62, 39
2, 198062, Note_on_c, 0, 56, 42
2, 198078, Control_c, 0, 64, 0
2, 198242, Control_c, 0, 64, 127
2, 198370, Note_on_c, 0, 81, 0
2, 198410, Note_on_c, 0, 67, 0
2, 198414, Note_on_c, 0, 62, 0
2, 198418, Note_on_c, 0, 76, 0
2, 198430, Note_on_c, 0, 72, 0
2, 198510, Note_on_c, 0, 56, 0
2, 198762, Control_c, 0, 64, 0
2, 198794, Note_on_c, 0, 79, 60
2, 198802, Note_on_c, 0, 66, 40
2, 198810, Note_on_c, 0, 61, 41
2, 198810, Note_on_c, 0, 72, 46
2, 198846, Note_on_c, 0, 55, 28
2, 198866, Control_c, 0, 64, 127
2, 198982, Note_on_c, 0, 79, 0
2, 198994, Note_on_c, 0, 55, 0
2, 199018, Note_on_c, 0, 66, 0
2, 199030, Note_on_c, 0, 72, 0
2, 199042, Note_on_c, 0, 61, 0
2, 199530, Note_on_c, 0, 76, 49
2, 199534, Note_on_c, 0, 60, 45
2, 199534, Note_on_c, 0, 64, 39
2, 199546, Note_on_c, 0, 72, 43
2, 199546, Note_on_c, 0, 69, 43
2, 199658, Note_on_c, 0, 60, 0
2, 199746, Note_on_c, 0, 64, 0
2, 199750, Note_on_c, 0, 76, 0
2, 199774, Note_on_c, 0, 72, 0
2, 199782, Note_on_c, 0, 69, 0
2, 200258, Control_c, 0, 64, 0
2, 200282, Note_on_c, 0, 66, 43
2, 200286, Note_on_c, 0, 64, 39
2, 200290, Note_on_c, 0, 74, 48
2, 200302, Note_on_c, 0, 60, 38
2, 200306, Note_on_c, 0, 50, 39
2, 200314, Note_on_c, 0, 69, 41
2, 200374, Control_c, 0, 64, 127
2, 200514, Note_on_c, 0, 74, 0
2, 200550, Note_on_c, 0, 64, 0
2, 200562, Note_on_c, 0, 69, 0
2, 200570, Note_on_c, 0, 60, 0
2, 200618, Note_on_c, 0, 66, 0
2, 200838, Note_on_c, 0, 50, 0
2, 201110, Note_on_c, 0, 60, 48
2, 201114, Note_on_c, 0, 72, 44
2, 201118, Note_on_c, 0, 65, 43
2, 201134, Note_on_c, 0, 69, 45
2, 201134, Note_on_c, 0, 57, 36
2, 201278, Note_on_c, 0, 57, 0
2, 201354, Note_on_c, 0, 69, 0
2, 201402, Note_on_c, 0, 72, 0
2, 201422, Note_on_c, 0, 60, 0
2, 201518, Note_on_c, 0, 65, 0
2, 201998, Control_c, 0, 64, 0
2, 202026, Note_on_c, 0, 69, 47
2, 202030, Note_on_c, 0, 65, 44
2, 202030, Note_on_c, 0, 43, 37
2, 202030, Note_on_c, 0, 31, 39
2, 202034, Note_on_c, 0, 60, 35
2, 202126, Control_c, 0, 64, 127
2, 202258, Note_on_c, 0, 69, 0
2, 202262, Note_on_c, 0, 31, 0
2, 202314, Note_on_c, 0, 43, 0
2, 202458, Note_on_c, 0, 60, 0
2, 202514, Note_on_c, 0, 69, 54
2, 202614, Note_on_c, 0, 65, 0
2, 202734, Note_on_c, 0, 69, 0
2, 203038, Note_on_c, 0, 71, 48
2, 203050, Note_on_c, 0, 68, 44
2, 203050, Note_on_c, 0, 62, 31
2, 203058, Note_on_c, 0, 65, 46
2, 203066, Note_on_c, 0, 53, 35
2, 203070, Note_on_c, 0, 59, 39
2, 203478, Note_on_c, 0, 71, 0
2, 203534, Note_on_c, 0, 62, 0
2, 203538, Note_on_c, 0, 65, 0
2, 203570, Note_on_c, 0, 53, 0
2, 203574, Note_on_c, 0, 59, 0
2, 203602, Note_on_c, 0, 68, 0
2, 203798, Note_on_c, 0, 71, 50
2, 203810, Note_on_c, 0, 68, 46
2, 203810, Note_on_c, 0, 64, 43
2, 203818, Note_on_c, 0, 53, 31
2, 203818, Note_on_c, 0, 59, 32
2, 204050, Note_on_c, 0, 64, 0
2, 204058, Note_on_c, 0, 71, 0
2, 204074, Note_on_c, 0, 53, 0
2, 204110, Note_on_c, 0, 59, 0
2, 204138, Note_on_c, 0, 68, 0
2, 204850, Control_c, 0, 64, 0
2, 204854, Note_on_c, 0, 72, 50
2, 204870, Note_on_c, 0, 52, 35
2, 204878, Note_on_c, 0, 67, 42
2, 204878, Note_on_c, 0, 57, 37
2, 204882, Note_on_c, 0, 62, 29
2, 204994, Control_c, 0, 64, 127
2, 205174, Note_on_c, 0, 72, 0
2, 205414, Note_on_c, 0, 72, 57
2, 205654, Note_on_c, 0, 72, 0
2, 205862, Note_on_c, 0, 57, 0
2, 205886, Note_on_c, 0, 72, 54
2, 205902, Note_on_c, 0, 52, 0
2, 206014, Note_on_c, 0, 62, 0
2, 206198, Note_on_c, 0, 67, 0
2, 206262, Note_on_c, 0, 72, 0
2, 206358, Note_on_c, 0, 60, 48
2, 206438, Note_on_c, 0, 60, 0
2, 207270, Note_on_c, 0, 60, 44
2, 207354, Note_on_c, 0, 60, 0
2, 208114, Note_on_c, 0, 60, 43
2, 208114, Note_on_c, 0, 78, 55
2, 208126, Note_on_c, 0, 71, 36
2, 208134, Note_on_c, 0, 75, 41
2, 208198, Note_on_c, 0, 60, 0
2, 208282, Note_on_c, 0, 71, 0
2, 208382, Note_on_c, 0, 75, 0
2, 208458, Note_on_c, 0, 78, 0
2, 208514, Control_c, 0, 64, 0
2, 208526, Note_on_c, 0, 72, 39
2, 208530, Note_on_c, 0, 60, 47
2, 208534, Note_on_c, 0, 79, 50
2, 208538, Note_on_c, 0, 76, 49
2, 208602, Control_c, 0, 64, 127
2, 208670, Note_on_c, 0, 60, 0
2, 208922, Note_on_c, 0, 76, 0
2, 208930, Note_on_c, 0, 60, 41
2, 208942, Note_on_c, 0, 79, 0
2, 208942, Note_on_c, 0, 72, 0
2, 209010, Note_on_c, 0, 60, 0
2, 209390, Note_on_c, 0, 60, 44
2, 209390, Note_on_c, 0, 71, 40
2, 209394, Note_on_c, 0, 83, 39
2, 209402, Control_c, 0, 64, 0
2, 209402, Note_on_c, 0, 75, 41
2, 209402, Note_on_c, 0, 78, 48
2, 209462, Control_c, 0, 64, 127
2, 209574, Note_on_c, 0, 60, 0
2, 209582, Note_on_c, 0, 71, 0
2, 209586, Note_on_c, 0, 83, 0
2, 209622, Note_on_c, 0, 78, 0
2, 209646, Note_on_c, 0, 75, 0
2, 209822, Control_c, 0, 64, 0
2, 209830, Note_on_c, 0, 76, 45
2, 209830, Note_on_c, 0, 84, 41
2, 209830, Note_on_c, 0, 72, 35
2, 209830, Note_on_c, 0, 60, 48
2, 209854, Note_on_c, 0, 79, 41
2, 209898, Control_c, 0, 64, 127
2, 209910, Note_on_c, 0, 60, 0
2, 210238, Note_on_c, 0, 60, 42
2, 210370, Note_on_c, 0, 60, 0
2, 210422, Note_on_c, 0, 72, 0
2, 210478, Note_on_c, 0, 76, 0
2, 210498, Note_on_c, 0, 79, 0
2, 210590, Note_on_c, 0, 84, 0
2, 210666, Note_on_c, 0, 60, 39
2, 210742, Note_on_c, 0, 60, 0
2, 211114, Note_on_c, 0, 60, 39
2, 211202, Note_on_c, 0, 60, 0
2, 211554, Note_on_c, 0, 78, 49
2, 211558, Note_on_c, 0, 75, 45
2, 211562, Note_on_c, 0, 87, 39
2, 211570, Note_on_c, 0, 60, 40
2, 211610, Note_on_c, 0, 83, 29
2, 211654, Note_on_c, 0, 83, 0
2, 211654, Note_on_c, 0, 60, 0
2, 211686, Note_on_c, 0, 78, 0
2, 211718, Note_on_c, 0, 75, 0
2, 211754, Note_on_c, 0, 87, 0
2, 212078, Note_on_c, 0, 88, 52
2, 212086, Note_on_c, 0, 79, 47
2, 212086, Note_on_c, 0, 84, 45
2, 212094, Note_on_c, 0, 60, 45
2, 212094, Note_on_c, 0, 76, 39
2, 212118, Control_c, 0, 64, 0
2, 212218, Control_c, 0, 64, 127
2, 212262, Note_on_c, 0, 60, 0
2, 212582, Note_on_c, 0, 60, 39
2, 212686, Note_on_c, 0, 60, 0
2, 212966, Note_on_c, 0, 76, 0
2, 212986, Note_on_c, 0, 79, 0
2, 213030, Note_on_c, 0, 84, 0
2, 213050, Note_on_c, 0, 88, 0
2, 213058, Note_on_c, 0, 60, 39
2, 213162, Note_on_c, 0, 60, 0
2, 213642, Note_on_c, 0, 78, 38
2, 213642, Note_on_c, 0, 60, 42
2, 213654, Note_on_c, 0, 87, 39
2, 213662, Note_on_c, 0, 90, 29
2, 213678, Note_on_c, 0, 83, 38
2, 213834, Note_on_c, 0, 60, 0
2, 213898, Note_on_c, 0, 83, 0
2, 213994, Note_on_c, 0, 87, 0
2, 214002, Note_on_c, 0, 78, 0
2, 214094, Note_on_c, 0, 90, 0
2, 214466, Note_on_c, 0, 36, 54
2, 214574, Note_on_c, 0, 43, 28
2, 214646, Note_on_c, 0, 81, 42
2, 214646, Note_on_c, 0, 79, 41
2, 214646, Note_on_c, 0, 52, 31
2, 214654, Note_on_c, 0, 86, 46
2, 214690, Control_c, 0, 64, 0
2, 214742, Note_on_c, 0, 91, 46
2, 214798, Control_c, 0, 64, 127
2, 214910, Note_on_c, 0, 36, 0
2, 214946, Note_on_c, 0, 43, 0
2, 214978, Note_on_c, 0, 91, 0
2, 214982, Note_on_c, 0, 86, 0
2, 214990, Note_on_c, 0, 79, 0
2, 215002, Note_on_c, 0, 81, 0
2, 215010, Note_on_c, 0, 52, 0
2, 217338, Note_on_c, 0, 24, 41
2, 217806, Note_on_c, 0, 24, 0
2, 220266, Control_c, 0, 64, 0
2, 220266, End_track
0, 0, End_of_file
