0, 0, Header, 0, 1, 120
1, 0, Start_track
1, 0, Title_t, "Day Dream"
1, 0, Copyright_t, "Copyright © 1999 by Doug McKenzie"
1, 0, Text_t, "Billy Strayhorn / Duke Ellington\012"
1, 0, Text_t, "dougmck@pipeline.com.au\012"
1, 0, Time_signature, 4, 2, 24, 8
1, 0, Key_signature, -1, "major"
1, 0, Tempo, 800000
1, 0, Control_c, 0, 64, 127
1, 36, Note_on_c, 0, 41, 50
1, 45, Note_on_c, 0, 48, 35
1, 48, Note_on_c, 0, 72, 63
1, 52, Note_on_c, 0, 67, 54
1, 55, Note_on_c, 0, 57, 43
1, 57, Note_on_c, 0, 62, 44
1, 58, Note_on_c, 0, 64, 39
1, 60, Control_c, 0, 64, 0
1, 91, Control_c, 0, 64, 127
1, 107, Note_on_c, 0, 72, 0
1, 123, Note_on_c, 0, 72, 66
1, 153, Note_on_c, 0, 72, 0
1, 183, Note_on_c, 0, 72, 67
1, 189, Note_on_c, 0, 41, 0
1, 199, Note_on_c, 0, 48, 0
1, 207, Note_on_c, 0, 57, 0
1, 207, Note_on_c, 0, 72, 0
1, 248, Note_on_c, 0, 62, 0
1, 248, Note_on_c, 0, 64, 0
1, 251, Note_on_c, 0, 72, 50
1, 257, Note_on_c, 0, 67, 0
1, 265, Note_on_c, 0, 72, 0
1, 321, Note_on_c, 0, 84, 88
1, 391, Note_on_c, 0, 84, 0
1, 406, Note_on_c, 0, 84, 44
1, 458, Note_on_c, 0, 84, 0
1, 492, Note_on_c, 0, 84, 34
1, 552, Note_on_c, 0, 84, 0
1, 804, Note_on_c, 0, 57, 36
1, 804, Control_c, 0, 64, 0
1, 804, Note_on_c, 0, 61, 39
1, 805, Note_on_c, 0, 51, 33
1, 805, Note_on_c, 0, 68, 43
1, 806, Note_on_c, 0, 65, 50
1, 807, Note_on_c, 0, 47, 36
1, 821, Control_c, 0, 64, 127
1, 843, Note_on_c, 0, 47, 0
1, 862, Note_on_c, 0, 57, 0
1, 867, Note_on_c, 0, 61, 0
1, 870, Note_on_c, 0, 65, 0
1, 889, Note_on_c, 0, 68, 0
1, 893, Note_on_c, 0, 51, 0
1, 916, Note_on_c, 0, 70, 29
1, 917, Note_on_c, 0, 65, 43
1, 918, Note_on_c, 0, 62, 34
1, 918, Note_on_c, 0, 60, 32
1, 919, Note_on_c, 0, 56, 33
1, 921, Control_c, 0, 64, 0
1, 922, Note_on_c, 0, 46, 34
1, 965, Control_c, 0, 64, 127
1, 1030, Note_on_c, 0, 60, 0
1, 1044, Note_on_c, 0, 62, 0
1, 1078, Note_on_c, 0, 65, 0
1, 1083, Note_on_c, 0, 70, 0
1, 1090, Note_on_c, 0, 56, 0
1, 1140, Note_on_c, 0, 70, 69
1, 1141, Note_on_c, 0, 56, 57
1, 1141, Note_on_c, 0, 65, 82
1, 1142, Note_on_c, 0, 60, 61
1, 1143, Note_on_c, 0, 62, 74
1, 1183, Note_on_c, 0, 70, 0
1, 1185, Note_on_c, 0, 56, 0
1, 1187, Note_on_c, 0, 60, 0
1, 1188, Note_on_c, 0, 62, 0
1, 1198, Note_on_c, 0, 72, 77
1, 1199, Note_on_c, 0, 58, 62
1, 1200, Note_on_c, 0, 62, 47
1, 1201, Note_on_c, 0, 60, 39
1, 1219, Note_on_c, 0, 46, 0
1, 1224, Note_on_c, 0, 60, 0
1, 1227, Note_on_c, 0, 72, 0
1, 1237, Note_on_c, 0, 62, 0
1, 1242, Note_on_c, 0, 70, 70
1, 1242, Note_on_c, 0, 46, 71
1, 1247, Note_on_c, 0, 65, 0
1, 1255, Note_on_c, 0, 58, 0
1, 1280, Note_on_c, 0, 70, 0
1, 1287, Note_on_c, 0, 46, 0
1, 1306, Note_on_c, 0, 73, 38
1, 1308, Note_on_c, 0, 61, 46
1, 1308, Note_on_c, 0, 64, 62
1, 1310, Note_on_c, 0, 45, 46
1, 1311, Note_on_c, 0, 55, 46
1, 1314, Control_c, 0, 64, 0
1, 1358, Control_c, 0, 64, 127
1, 1367, Note_on_c, 0, 55, 0
1, 1373, Note_on_c, 0, 52, 35
1, 1387, Note_on_c, 0, 64, 0
1, 1406, Note_on_c, 0, 61, 0
1, 1425, Note_on_c, 0, 73, 0
1, 1437, Note_on_c, 0, 61, 32
1, 1438, Note_on_c, 0, 64, 49
1, 1441, Note_on_c, 0, 55, 28
1, 1465, Note_on_c, 0, 52, 0
1, 1466, Note_on_c, 0, 45, 0
1, 1469, Note_on_c, 0, 61, 0
1, 1477, Note_on_c, 0, 64, 0
1, 1477, Note_on_c, 0, 69, 67
1, 1514, Note_on_c, 0, 69, 0
1, 1517, Note_on_c, 0, 55, 0
1, 1518, Note_on_c, 0, 65, 49
1, 1520, Note_on_c, 0, 50, 47
1, 1525, Control_c, 0, 64, 0
1, 1553, Control_c, 0, 64, 127
1, 1561, Note_on_c, 0, 65, 0
1, 1562, Note_on_c, 0, 57, 36
1, 1595, Note_on_c, 0, 62, 33
1, 1598, Note_on_c, 0, 65, 52
1, 1620, Note_on_c, 0, 62, 0
1, 1623, Note_on_c, 0, 65, 0
1, 1634, Note_on_c, 0, 76, 70
1, 1640, Note_on_c, 0, 65, 28
1, 1655, Note_on_c, 0, 50, 0
1, 1660, Note_on_c, 0, 76, 0
1, 1674, Note_on_c, 0, 65, 0
1, 1679, Note_on_c, 0, 76, 45
1, 1681, Note_on_c, 0, 48, 45
1, 1685, Control_c, 0, 64, 0
1, 1699, Note_on_c, 0, 57, 0
1, 1723, Note_on_c, 0, 57, 38
1, 1725, Control_c, 0, 64, 127
1, 1762, Note_on_c, 0, 76, 0
1, 1768, Note_on_c, 0, 62, 27
1, 1769, Note_on_c, 0, 69, 37
1, 1769, Note_on_c, 0, 65, 35
1, 1785, Note_on_c, 0, 62, 0
1, 1798, Note_on_c, 0, 57, 0
1, 1810, Note_on_c, 0, 65, 0
1, 1811, Note_on_c, 0, 76, 49
1, 1813, Note_on_c, 0, 48, 0
1, 1822, Note_on_c, 0, 69, 0
1, 1843, Note_on_c, 0, 76, 0
1, 1865, Note_on_c, 0, 47, 43
1, 1866, Note_on_c, 0, 76, 33
1, 1867, Note_on_c, 0, 62, 38
1, 1868, Note_on_c, 0, 69, 40
1, 1869, Control_c, 0, 64, 0
1, 1898, Control_c, 0, 64, 127
1, 1906, Note_on_c, 0, 62, 0
1, 1916, Note_on_c, 0, 57, 49
1, 1917, Note_on_c, 0, 47, 0
1, 1925, Note_on_c, 0, 69, 0
1, 1931, Note_on_c, 0, 57, 0
1, 1936, Note_on_c, 0, 76, 0
1, 1979, Note_on_c, 0, 77, 66
1, 1980, Note_on_c, 0, 62, 50
1, 1980, Note_on_c, 0, 57, 39
1, 1981, Note_on_c, 0, 65, 46
1, 2024, Note_on_c, 0, 77, 0
1, 2035, Note_on_c, 0, 79, 81
1, 2081, Note_on_c, 0, 79, 0
1, 2083, Note_on_c, 0, 77, 69
1, 2091, Note_on_c, 0, 65, 0
1, 2094, Note_on_c, 0, 57, 0
1, 2095, Note_on_c, 0, 62, 0
1, 2119, Note_on_c, 0, 77, 0
1, 2158, Note_on_c, 0, 78, 21
1, 2164, Note_on_c, 0, 79, 49
1, 2180, Note_on_c, 0, 79, 0
1, 2181, Note_on_c, 0, 80, 59
1, 2182, Note_on_c, 0, 78, 0
1, 2182, Note_on_c, 0, 61, 37
1, 2183, Note_on_c, 0, 56, 33
1, 2183, Note_on_c, 0, 65, 39
1, 2185, Control_c, 0, 64, 0
1, 2185, Note_on_c, 0, 60, 36
1, 2253, Control_c, 0, 64, 127
1, 2255, Note_on_c, 0, 80, 0
1, 2265, Note_on_c, 0, 80, 53
1, 2321, Note_on_c, 0, 80, 0
1, 2333, Note_on_c, 0, 80, 34
1, 2361, Note_on_c, 0, 80, 0
1, 2391, Note_on_c, 0, 80, 38
1, 2418, Note_on_c, 0, 80, 0
1, 2419, Note_on_c, 0, 65, 0
1, 2459, Note_on_c, 0, 60, 0
1, 2464, Note_on_c, 0, 56, 0
1, 2466, Note_on_c, 0, 61, 0
1, 2512, Note_on_c, 0, 77, 42
1, 2513, Note_on_c, 0, 72, 50
1, 2513, Note_on_c, 0, 67, 37
1, 2514, Note_on_c, 0, 62, 48
1, 2521, Control_c, 0, 64, 0
1, 2558, Control_c, 0, 64, 127
1, 2567, Note_on_c, 0, 77, 0
1, 2579, Note_on_c, 0, 77, 60
1, 2624, Note_on_c, 0, 62, 0
1, 2629, Note_on_c, 0, 67, 0
1, 2640, Note_on_c, 0, 72, 0
1, 2641, Note_on_c, 0, 77, 0
1, 2700, Note_on_c, 0, 77, 50
1, 2705, Note_on_c, 0, 62, 36
1, 2705, Note_on_c, 0, 56, 38
1, 2706, Note_on_c, 0, 71, 42
1, 2707, Note_on_c, 0, 68, 44
1, 2712, Control_c, 0, 64, 0
1, 2755, Control_c, 0, 64, 127
1, 2760, Note_on_c, 0, 77, 0
1, 2778, Note_on_c, 0, 77, 44
1, 2912, Note_on_c, 0, 62, 0
1, 2912, Note_on_c, 0, 68, 0
1, 2916, Note_on_c, 0, 71, 0
1, 2925, Note_on_c, 0, 77, 0
1, 2926, Note_on_c, 0, 56, 0
1, 2999, Note_on_c, 0, 77, 44
1, 3001, Note_on_c, 0, 70, 45
1, 3003, Note_on_c, 0, 65, 34
1, 3003, Note_on_c, 0, 43, 32
1, 3004, Control_c, 0, 64, 0
1, 3024, Control_c, 0, 64, 127
1, 3091, Note_on_c, 0, 43, 0
1, 3101, Note_on_c, 0, 57, 54
1, 3145, Note_on_c, 0, 65, 0
1, 3150, Note_on_c, 0, 58, 46
1, 3153, Note_on_c, 0, 57, 0
1, 3183, Note_on_c, 0, 70, 0
1, 3184, Note_on_c, 0, 77, 0
1, 3190, Note_on_c, 0, 62, 27
1, 3191, Note_on_c, 0, 69, 64
1, 3219, Note_on_c, 0, 69, 0
1, 3229, Note_on_c, 0, 62, 0
1, 3236, Note_on_c, 0, 70, 76
1, 3237, Note_on_c, 0, 67, 41
1, 3273, Note_on_c, 0, 70, 0
1, 3278, Note_on_c, 0, 74, 76
1, 3315, Note_on_c, 0, 74, 0
1, 3322, Note_on_c, 0, 77, 54
1, 3325, Note_on_c, 0, 62, 48
1, 3334, Note_on_c, 0, 58, 0
1, 3343, Note_on_c, 0, 67, 0
1, 3352, Note_on_c, 0, 62, 0
1, 3359, Note_on_c, 0, 77, 0
1, 3368, Note_on_c, 0, 79, 57
1, 3394, Note_on_c, 0, 79, 0
1, 3422, Note_on_c, 0, 79, 57
1, 3428, Note_on_c, 0, 70, 32
1, 3428, Note_on_c, 0, 58, 20
1, 3429, Control_c, 0, 64, 0
1, 3429, Note_on_c, 0, 48, 29
1, 3464, Control_c, 0, 64, 127
1, 3470, Note_on_c, 0, 58, 0
1, 3481, Note_on_c, 0, 55, 24
1, 3487, Note_on_c, 0, 48, 0
1, 3490, Note_on_c, 0, 55, 0
1, 3522, Note_on_c, 0, 70, 0
1, 3548, Note_on_c, 0, 61, 8
1, 3596, Note_on_c, 0, 70, 39
1, 3638, Note_on_c, 0, 70, 0
1, 3643, Note_on_c, 0, 79, 0
1, 3680, Note_on_c, 0, 61, 0
1, 3680, Note_on_c, 0, 70, 48
1, 3682, Note_on_c, 0, 67, 34
1, 3682, Note_on_c, 0, 79, 40
1, 3749, Note_on_c, 0, 67, 0
1, 3750, Note_on_c, 0, 66, 36
1, 3815, Note_on_c, 0, 66, 0
1, 3821, Note_on_c, 0, 65, 40
1, 3875, Note_on_c, 0, 79, 0
1, 3881, Note_on_c, 0, 65, 0
1, 3887, Note_on_c, 0, 64, 42
1, 3888, Note_on_c, 0, 77, 38
1, 3895, Note_on_c, 0, 64, 0
1, 3910, Note_on_c, 0, 70, 0
1, 3916, Note_on_c, 0, 77, 0
1, 3966, Note_on_c, 0, 73, 31
1, 3967, Note_on_c, 0, 84, 46
1, 3969, Note_on_c, 0, 77, 33
1, 3970, Note_on_c, 0, 81, 38
1, 3974, Note_on_c, 0, 39, 39
1, 3975, Control_c, 0, 64, 0
1, 4005, Control_c, 0, 64, 127
1, 4011, Note_on_c, 0, 46, 60
1, 4013, Note_on_c, 0, 39, 0
1, 4040, Note_on_c, 0, 46, 0
1, 4047, Note_on_c, 0, 53, 64
1, 4059, Note_on_c, 0, 53, 0
1, 4082, Note_on_c, 0, 58, 55
1, 4088, Note_on_c, 0, 81, 0
1, 4091, Note_on_c, 0, 77, 0
1, 4094, Note_on_c, 0, 73, 0
1, 4101, Note_on_c, 0, 84, 0
1, 4122, Note_on_c, 0, 73, 45
1, 4123, Note_on_c, 0, 60, 51
1, 4124, Note_on_c, 0, 81, 60
1, 4125, Note_on_c, 0, 77, 51
1, 4170, Note_on_c, 0, 65, 68
1, 4201, Note_on_c, 0, 58, 0
1, 4203, Note_on_c, 0, 73, 0
1, 4206, Note_on_c, 0, 77, 0
1, 4223, Note_on_c, 0, 58, 46
1, 4226, Note_on_c, 0, 73, 30
1, 4227, Note_on_c, 0, 77, 44
1, 4234, Note_on_c, 0, 65, 0
1, 4238, Note_on_c, 0, 60, 0
1, 4247, Note_on_c, 0, 58, 0
1, 4261, Note_on_c, 0, 81, 0
1, 4271, Note_on_c, 0, 73, 0
1, 4272, Note_on_c, 0, 51, 36
1, 4273, Note_on_c, 0, 77, 0
1, 4299, Note_on_c, 0, 51, 0
1, 4317, Note_on_c, 0, 80, 28
1, 4317, Note_on_c, 0, 83, 40
1, 4318, Note_on_c, 0, 76, 42
1, 4318, Note_on_c, 0, 50, 41
1, 4320, Note_on_c, 0, 60, 29
1, 4320, Note_on_c, 0, 72, 33
1, 4320, Control_c, 0, 64, 0
1, 4347, Note_on_c, 0, 83, 0
1, 4347, Control_c, 0, 64, 127
1, 4350, Note_on_c, 0, 80, 0
1, 4352, Note_on_c, 0, 76, 0
1, 4358, Note_on_c, 0, 72, 0
1, 4362, Note_on_c, 0, 54, 47
1, 4369, Note_on_c, 0, 60, 0
1, 4407, Note_on_c, 0, 59, 54
1, 4407, Note_on_c, 0, 71, 47
1, 4408, Note_on_c, 0, 64, 57
1, 4408, Note_on_c, 0, 60, 48
1, 4408, Note_on_c, 0, 68, 38
1, 4409, Note_on_c, 0, 54, 0
1, 4431, Control_c, 0, 64, 0
1, 4446, Note_on_c, 0, 59, 0
1, 4447, Note_on_c, 0, 58, 48
1, 4464, Note_on_c, 0, 58, 0
1, 4467, Note_on_c, 0, 57, 49
1, 4485, Note_on_c, 0, 56, 33
1, 4486, Note_on_c, 0, 57, 0
1, 4506, Note_on_c, 0, 56, 0
1, 4508, Control_c, 0, 64, 127
1, 4509, Note_on_c, 0, 68, 0
1, 4509, Note_on_c, 0, 55, 44
1, 4514, Note_on_c, 0, 60, 0
1, 4519, Note_on_c, 0, 64, 0
1, 4529, Note_on_c, 0, 55, 0
1, 4532, Note_on_c, 0, 54, 40
1, 4532, Control_c, 0, 64, 0
1, 4534, Note_on_c, 0, 66, 39
1, 4535, Note_on_c, 0, 60, 26
1, 4535, Note_on_c, 0, 64, 40
1, 4601, Control_c, 0, 64, 127
1, 4629, Note_on_c, 0, 60, 0
1, 4649, Note_on_c, 0, 60, 43
1, 4661, Note_on_c, 0, 64, 0
1, 4671, Note_on_c, 0, 66, 0
1, 4672, Note_on_c, 0, 60, 0
1, 4678, Note_on_c, 0, 71, 0
1, 4680, Note_on_c, 0, 65, 66
1, 4710, Note_on_c, 0, 67, 71
1, 4716, Note_on_c, 0, 65, 0
1, 4723, Note_on_c, 0, 50, 0
1, 4734, Note_on_c, 0, 67, 0
1, 4740, Note_on_c, 0, 69, 64
1, 4756, Note_on_c, 0, 69, 0
1, 4772, Note_on_c, 0, 54, 0
1, 4781, Note_on_c, 0, 59, 61
1, 4782, Note_on_c, 0, 63, 64
1, 4782, Note_on_c, 0, 68, 62
1, 4785, Note_on_c, 0, 49, 46
1, 4792, Control_c, 0, 64, 0
1, 4822, Note_on_c, 0, 56, 51
1, 4836, Control_c, 0, 64, 127
1, 4848, Note_on_c, 0, 59, 0
1, 4854, Note_on_c, 0, 68, 0
1, 4857, Note_on_c, 0, 63, 0
1, 4862, Note_on_c, 0, 58, 47
1, 4864, Note_on_c, 0, 68, 57
1, 4865, Note_on_c, 0, 59, 51
1, 4866, Note_on_c, 0, 63, 56
1, 4869, Note_on_c, 0, 56, 0
1, 4894, Note_on_c, 0, 49, 0
1, 4896, Note_on_c, 0, 59, 0
1, 4904, Note_on_c, 0, 56, 32
1, 4904, Note_on_c, 0, 70, 56
1, 4905, Note_on_c, 0, 49, 42
1, 4912, Note_on_c, 0, 58, 0
1, 4931, Note_on_c, 0, 63, 0
1, 4938, Note_on_c, 0, 70, 0
1, 4938, Note_on_c, 0, 68, 0
1, 4943, Note_on_c, 0, 56, 0
1, 4943, Note_on_c, 0, 49, 0
1, 4956, Note_on_c, 0, 64, 58
1, 4957, Note_on_c, 0, 67, 48
1, 4959, Control_c, 0, 64, 0
1, 4959, Note_on_c, 0, 58, 37
1, 4959, Note_on_c, 0, 55, 41
1, 4962, Note_on_c, 0, 48, 33
1, 4973, Note_on_c, 0, 55, 0
1, 4980, Note_on_c, 0, 48, 0
1, 4980, Control_c, 0, 64, 127
1, 5022, Note_on_c, 0, 24, 68
1, 5029, Note_on_c, 0, 58, 0
1, 5038, Note_on_c, 0, 64, 0
1, 5061, Note_on_c, 0, 67, 0
1, 5093, Note_on_c, 0, 24, 0
1, 5094, Note_on_c, 0, 60, 90
1, 5149, Note_on_c, 0, 60, 0
1, 5168, Note_on_c, 0, 60, 76
1, 5209, Note_on_c, 0, 60, 0
1, 5229, Note_on_c, 0, 60, 65
1, 5260, Note_on_c, 0, 60, 0
1, 5281, Note_on_c, 0, 60, 47
1, 5318, Note_on_c, 0, 60, 0
1, 5337, Note_on_c, 0, 74, 69
1, 5365, Note_on_c, 0, 74, 0
1, 5406, Note_on_c, 0, 48, 20
1, 5408, Note_on_c, 0, 62, 42
1, 5408, Note_on_c, 0, 72, 44
1, 5409, Note_on_c, 0, 67, 36
1, 5410, Note_on_c, 0, 41, 22
1, 5413, Note_on_c, 0, 57, 36
1, 5414, Control_c, 0, 64, 0
1, 5433, Note_on_c, 0, 62, 0
1, 5436, Control_c, 0, 64, 127
1, 5438, Note_on_c, 0, 67, 0
1, 5440, Note_on_c, 0, 72, 0
1, 5465, Note_on_c, 0, 84, 56
1, 5470, Note_on_c, 0, 41, 0
1, 5477, Note_on_c, 0, 48, 0
1, 5487, Note_on_c, 0, 57, 0
1, 5500, Note_on_c, 0, 84, 0
1, 5521, Note_on_c, 0, 84, 61
1, 5537, Note_on_c, 0, 84, 0
1, 5570, Note_on_c, 0, 60, 36
1, 5602, Note_on_c, 0, 60, 0
1, 5633, Note_on_c, 0, 72, 73
1, 5693, Note_on_c, 0, 66, 39
1, 5694, Note_on_c, 0, 62, 44
1, 5696, Note_on_c, 0, 57, 36
1, 5697, Note_on_c, 0, 51, 34
1, 5699, Note_on_c, 0, 47, 41
1, 5707, Control_c, 0, 64, 0
1, 5745, Control_c, 0, 64, 127
1, 5848, Note_on_c, 0, 57, 0
1, 5851, Note_on_c, 0, 47, 0
1, 5860, Note_on_c, 0, 62, 0
1, 5870, Note_on_c, 0, 66, 0
1, 5877, Note_on_c, 0, 51, 0
1, 5894, Note_on_c, 0, 72, 0
1, 5905, Note_on_c, 0, 62, 45
1, 5905, Note_on_c, 0, 65, 44
1, 5908, Note_on_c, 0, 56, 30
1, 5911, Note_on_c, 0, 46, 30
1, 5913, Control_c, 0, 64, 0
1, 5943, Control_c, 0, 64, 127
1, 5970, Note_on_c, 0, 62, 0
1, 5977, Note_on_c, 0, 65, 0
1, 5979, Note_on_c, 0, 46, 0
1, 5986, Note_on_c, 0, 56, 0
1, 6156, Note_on_c, 0, 73, 50
1, 6156, Note_on_c, 0, 82, 60
1, 6157, Note_on_c, 0, 67, 42
1, 6157, Note_on_c, 0, 78, 48
1, 6194, Note_on_c, 0, 78, 0
1, 6194, Note_on_c, 0, 73, 0
1, 6202, Note_on_c, 0, 82, 0
1, 6214, Note_on_c, 0, 67, 0
1, 6215, Note_on_c, 0, 68, 59
1, 6217, Note_on_c, 0, 80, 49
1, 6217, Note_on_c, 0, 75, 50
1, 6217, Note_on_c, 0, 84, 57
1, 6247, Note_on_c, 0, 75, 0
1, 6250, Note_on_c, 0, 84, 0
1, 6261, Note_on_c, 0, 80, 0
1, 6272, Note_on_c, 0, 67, 45
1, 6273, Note_on_c, 0, 82, 50
1, 6273, Note_on_c, 0, 78, 49
1, 6274, Note_on_c, 0, 73, 33
1, 6277, Note_on_c, 0, 68, 0
1, 6280, Note_on_c, 0, 67, 0
1, 6299, Note_on_c, 0, 73, 0
1, 6326, Note_on_c, 0, 82, 0
1, 6326, Note_on_c, 0, 78, 0
1, 6344, Note_on_c, 0, 85, 59
1, 6345, Note_on_c, 0, 45, 43
1, 6345, Note_on_c, 0, 76, 20
1, 6347, Note_on_c, 0, 81, 40
1, 6347, Control_c, 0, 64, 0
1, 6364, Control_c, 0, 64, 127
1, 6398, Note_on_c, 0, 45, 0
1, 6399, Note_on_c, 0, 52, 54
1, 6406, Note_on_c, 0, 52, 0
1, 6406, Note_on_c, 0, 81, 0
1, 6410, Note_on_c, 0, 85, 0
1, 6416, Note_on_c, 0, 76, 0
1, 6476, Note_on_c, 0, 73, 31
1, 6477, Note_on_c, 0, 65, 40
1, 6479, Note_on_c, 0, 69, 47
1, 6485, Note_on_c, 0, 61, 29
1, 6534, Note_on_c, 0, 61, 0
1, 6536, Note_on_c, 0, 69, 0
1, 6539, Note_on_c, 0, 73, 0
1, 6548, Note_on_c, 0, 65, 0
1, 6686, Note_on_c, 0, 69, 63
1, 6688, Note_on_c, 0, 63, 49
1, 6690, Note_on_c, 0, 51, 29
1, 6691, Note_on_c, 0, 60, 25
1, 6694, Control_c, 0, 64, 0
1, 6708, Control_c, 0, 64, 127
1, 6727, Note_on_c, 0, 60, 0
1, 6739, Note_on_c, 0, 63, 0
1, 6740, Note_on_c, 0, 69, 0
1, 6753, Note_on_c, 0, 51, 0
1, 6756, Note_on_c, 0, 65, 51
1, 6757, Note_on_c, 0, 60, 36
1, 6760, Note_on_c, 0, 50, 33
1, 6763, Control_c, 0, 64, 0
1, 6795, Control_c, 0, 64, 127
1, 6805, Note_on_c, 0, 60, 0
1, 6812, Note_on_c, 0, 65, 0
1, 6818, Note_on_c, 0, 57, 44
1, 6880, Note_on_c, 0, 65, 38
1, 6881, Note_on_c, 0, 69, 43
1, 6883, Note_on_c, 0, 64, 22
1, 6904, Note_on_c, 0, 64, 0
1, 6907, Note_on_c, 0, 69, 0
1, 6908, Note_on_c, 0, 65, 0
1, 6952, Note_on_c, 0, 79, 79
1, 6970, Note_on_c, 0, 50, 0
1, 6978, Note_on_c, 0, 79, 0
1, 7002, Note_on_c, 0, 77, 62
1, 7004, Note_on_c, 0, 48, 50
1, 7010, Control_c, 0, 64, 0
1, 7015, Note_on_c, 0, 57, 0
1, 7033, Control_c, 0, 64, 127
1, 7039, Note_on_c, 0, 57, 44
1, 7053, Note_on_c, 0, 77, 0
1, 7077, Note_on_c, 0, 65, 44
1, 7078, Note_on_c, 0, 69, 49
1, 7078, Note_on_c, 0, 62, 26
1, 7085, Note_on_c, 0, 62, 0
1, 7106, Note_on_c, 0, 65, 0
1, 7112, Note_on_c, 0, 48, 0
1, 7127, Note_on_c, 0, 69, 0
1, 7132, Note_on_c, 0, 77, 51
1, 7159, Note_on_c, 0, 57, 0
1, 7199, Note_on_c, 0, 77, 0
1, 7213, Note_on_c, 0, 77, 36
1, 7216, Note_on_c, 0, 46, 32
1, 7216, Note_on_c, 0, 68, 37
1, 7217, Note_on_c, 0, 73, 29
1, 7220, Control_c, 0, 64, 0
1, 7244, Control_c, 0, 64, 127
1, 7258, Note_on_c, 0, 56, 33
1, 7265, Note_on_c, 0, 46, 0
1, 7271, Note_on_c, 0, 56, 0
1, 7278, Note_on_c, 0, 77, 0
1, 7281, Note_on_c, 0, 73, 0
1, 7296, Note_on_c, 0, 68, 0
1, 7311, Note_on_c, 0, 79, 65
1, 7312, Note_on_c, 0, 68, 53
1, 7313, Note_on_c, 0, 73, 36
1, 7313, Note_on_c, 0, 65, 39
1, 7325, Note_on_c, 0, 65, 0
1, 7346, Note_on_c, 0, 79, 0
1, 7357, Note_on_c, 0, 77, 47
1, 7366, Note_on_c, 0, 68, 0
1, 7377, Note_on_c, 0, 77, 0
1, 7383, Note_on_c, 0, 73, 0
1, 7411, Note_on_c, 0, 51, 29
1, 7412, Note_on_c, 0, 80, 56
1, 7416, Note_on_c, 0, 51, 0
1, 7416, Note_on_c, 0, 68, 32
1, 7418, Note_on_c, 0, 58, 23
1, 7418, Note_on_c, 0, 72, 39
1, 7418, Note_on_c, 0, 63, 31
1, 7423, Control_c, 0, 64, 0
1, 7424, Note_on_c, 0, 52, 44
1, 7464, Note_on_c, 0, 80, 0
1, 7465, Control_c, 0, 64, 127
1, 7476, Note_on_c, 0, 80, 44
1, 7488, Note_on_c, 0, 63, 0
1, 7507, Note_on_c, 0, 80, 0
1, 7510, Note_on_c, 0, 58, 0
1, 7525, Note_on_c, 0, 80, 62
1, 7528, Note_on_c, 0, 63, 31
1, 7531, Note_on_c, 0, 58, 25
1, 7550, Note_on_c, 0, 80, 0
1, 7556, Note_on_c, 0, 63, 0
1, 7563, Note_on_c, 0, 52, 0
1, 7567, Note_on_c, 0, 80, 60
1, 7571, Note_on_c, 0, 72, 0
1, 7576, Note_on_c, 0, 58, 0
1, 7580, Note_on_c, 0, 80, 0
1, 7582, Note_on_c, 0, 68, 0
1, 7623, Note_on_c, 0, 77, 57
1, 7624, Note_on_c, 0, 50, 56
1, 7625, Note_on_c, 0, 72, 63
1, 7627, Note_on_c, 0, 65, 57
1, 7627, Note_on_c, 0, 60, 36
1, 7631, Control_c, 0, 64, 0
1, 7661, Control_c, 0, 64, 127
1, 7676, Note_on_c, 0, 72, 0
1, 7677, Note_on_c, 0, 77, 0
1, 7678, Note_on_c, 0, 56, 63
1, 7680, Note_on_c, 0, 60, 0
1, 7687, Note_on_c, 0, 65, 0
1, 7729, Note_on_c, 0, 65, 66
1, 7730, Note_on_c, 0, 60, 52
1, 7743, Note_on_c, 0, 56, 0
1, 7747, Note_on_c, 0, 50, 0
1, 7794, Note_on_c, 0, 32, 71
1, 7797, Control_c, 0, 64, 0
1, 7816, Control_c, 0, 64, 127
1, 7818, Note_on_c, 0, 32, 0
1, 7822, Note_on_c, 0, 60, 0
1, 7829, Note_on_c, 0, 65, 0
1, 7940, Note_on_c, 0, 77, 68
1, 7941, Note_on_c, 0, 65, 62
1, 7941, Note_on_c, 0, 70, 71
1, 7942, Note_on_c, 0, 66, 68
1, 7943, Note_on_c, 0, 72, 68
1, 7950, Note_on_c, 0, 75, 25
1, 7962, Note_on_c, 0, 65, 0
1, 7988, Note_on_c, 0, 77, 0
1, 7992, Note_on_c, 0, 70, 0
1, 7993, Note_on_c, 0, 66, 0
1, 7993, Note_on_c, 0, 75, 0
1, 7996, Note_on_c, 0, 72, 0
1, 8010, Note_on_c, 0, 66, 56
1, 8011, Note_on_c, 0, 70, 61
1, 8011, Note_on_c, 0, 64, 60
1, 8012, Note_on_c, 0, 74, 59
1, 8019, Note_on_c, 0, 64, 0
1, 8048, Note_on_c, 0, 66, 0
1, 8053, Note_on_c, 0, 70, 0
1, 8056, Note_on_c, 0, 74, 0
1, 8091, Note_on_c, 0, 66, 43
1, 8115, Note_on_c, 0, 66, 0
1, 8175, Note_on_c, 0, 59, 37
1, 8177, Note_on_c, 0, 65, 35
1, 8177, Note_on_c, 0, 37, 37
1, 8178, Note_on_c, 0, 63, 33
1, 8180, Note_on_c, 0, 44, 25
1, 8189, Control_c, 0, 64, 0
1, 8219, Note_on_c, 0, 37, 0
1, 8219, Control_c, 0, 64, 127
1, 8232, Note_on_c, 0, 44, 0
1, 8243, Note_on_c, 0, 53, 42
1, 8273, Note_on_c, 0, 59, 0
1, 8278, Note_on_c, 0, 63, 0
1, 8279, Note_on_c, 0, 53, 0
1, 8282, Note_on_c, 0, 65, 0
1, 8291, Note_on_c, 0, 63, 45
1, 8291, Note_on_c, 0, 67, 62
1, 8292, Note_on_c, 0, 59, 54
1, 8294, Note_on_c, 0, 55, 55
1, 8324, Note_on_c, 0, 67, 0
1, 8326, Note_on_c, 0, 59, 0
1, 8328, Note_on_c, 0, 63, 0
1, 8337, Note_on_c, 0, 59, 31
1, 8339, Note_on_c, 0, 65, 67
1, 8356, Note_on_c, 0, 59, 0
1, 8357, Note_on_c, 0, 65, 0
1, 8408, Note_on_c, 0, 68, 50
1, 8409, Note_on_c, 0, 58, 43
1, 8410, Note_on_c, 0, 61, 42
1, 8411, Note_on_c, 0, 55, 0
1, 8412, Note_on_c, 0, 48, 45
1, 8412, Note_on_c, 0, 64, 44
1, 8414, Control_c, 0, 64, 0
1, 8434, Control_c, 0, 64, 127
1, 8436, Note_on_c, 0, 58, 0
1, 8439, Note_on_c, 0, 61, 0
1, 8440, Note_on_c, 0, 64, 0
1, 8445, Note_on_c, 0, 68, 0
1, 8473, Note_on_c, 0, 72, 76
1, 8476, Note_on_c, 0, 58, 42
1, 8519, Note_on_c, 0, 72, 0
1, 8521, Note_on_c, 0, 58, 0
1, 8548, Note_on_c, 0, 72, 57
1, 8548, Note_on_c, 0, 68, 40
1, 8549, Note_on_c, 0, 64, 51
1, 8549, Note_on_c, 0, 58, 31
1, 8580, Note_on_c, 0, 48, 0
1, 8601, Note_on_c, 0, 72, 0
1, 8618, Note_on_c, 0, 58, 0
1, 8652, Note_on_c, 0, 72, 45
1, 8673, Note_on_c, 0, 64, 0
1, 8706, Note_on_c, 0, 68, 0
1, 8713, Note_on_c, 0, 72, 0
1, 8744, Note_on_c, 0, 48, 30
1, 8744, Note_on_c, 0, 62, 36
1, 8744, Note_on_c, 0, 67, 36
1, 8748, Note_on_c, 0, 41, 22
1, 8749, Note_on_c, 0, 57, 38
1, 8751, Control_c, 0, 64, 0
1, 8770, Control_c, 0, 64, 127
1, 8846, Note_on_c, 0, 62, 0
1, 8879, Note_on_c, 0, 67, 0
1, 8925, Note_on_c, 0, 71, 60
1, 8939, Note_on_c, 0, 71, 0
1, 8951, Note_on_c, 0, 72, 65
1, 8953, Control_c, 0, 64, 0
1, 8958, Note_on_c, 0, 72, 0
1, 8981, Note_on_c, 0, 79, 60
1, 8995, Note_on_c, 0, 79, 0
1, 9015, Note_on_c, 0, 77, 47
1, 9021, Note_on_c, 0, 77, 0
1, 9047, Note_on_c, 0, 68, 50
1, 9062, Note_on_c, 0, 68, 0
1, 9071, Note_on_c, 0, 69, 49
1, 9083, Note_on_c, 0, 69, 0
1, 9097, Note_on_c, 0, 74, 69
1, 9109, Note_on_c, 0, 74, 0
1, 9131, Note_on_c, 0, 72, 57
1, 9141, Note_on_c, 0, 72, 0
1, 9169, Note_on_c, 0, 69, 54
1, 9193, Note_on_c, 0, 69, 0
1, 9209, Note_on_c, 0, 65, 41
1, 9245, Note_on_c, 0, 65, 0
1, 9253, Note_on_c, 0, 62, 37
1, 9255, Control_c, 0, 64, 127
1, 9291, Note_on_c, 0, 57, 0
1, 9294, Note_on_c, 0, 62, 0
1, 9312, Note_on_c, 0, 60, 37
1, 9341, Note_on_c, 0, 41, 0
1, 9428, Control_c, 0, 64, 0
1, 9432, Note_on_c, 0, 48, 0
1, 9433, Note_on_c, 0, 41, 55
1, 9436, Note_on_c, 0, 60, 0
1, 9437, Control_c, 0, 64, 127
1, 9458, Note_on_c, 0, 41, 0
1, 9750, Note_on_c, 0, 77, 50
1, 9752, Note_on_c, 0, 74, 55
1, 9754, Note_on_c, 0, 63, 31
1, 9755, Note_on_c, 0, 70, 58
1, 9758, Note_on_c, 0, 67, 36
1, 9758, Note_on_c, 0, 65, 39
1, 9785, Note_on_c, 0, 77, 0
1, 9810, Note_on_c, 0, 77, 54
1, 9836, Note_on_c, 0, 77, 0
1, 9855, Note_on_c, 0, 67, 0
1, 9863, Note_on_c, 0, 77, 50
1, 9864, Note_on_c, 0, 65, 0
1, 9874, Note_on_c, 0, 63, 0
1, 9879, Note_on_c, 0, 74, 0
1, 9886, Note_on_c, 0, 70, 0
1, 9904, Note_on_c, 0, 77, 0
1, 9930, Note_on_c, 0, 77, 37
1, 9932, Note_on_c, 0, 73, 31
1, 9933, Note_on_c, 0, 69, 35
1, 9934, Note_on_c, 0, 63, 28
1, 9934, Control_c, 0, 64, 0
1, 9935, Note_on_c, 0, 57, 38
1, 9953, Control_c, 0, 64, 127
1, 9963, Note_on_c, 0, 63, 0
1, 9967, Note_on_c, 0, 57, 0
1, 10184, Note_on_c, 0, 23, 46
1, 10234, Note_on_c, 0, 23, 0
1, 10340, Note_on_c, 0, 77, 0
1, 10342, Note_on_c, 0, 69, 0
1, 10345, Note_on_c, 0, 73, 0
1, 10422, Note_on_c, 0, 74, 70
1, 10425, Note_on_c, 0, 65, 64
1, 10426, Note_on_c, 0, 46, 50
1, 10433, Control_c, 0, 64, 0
1, 10452, Control_c, 0, 64, 127
1, 10466, Note_on_c, 0, 57, 24
1, 10467, Note_on_c, 0, 46, 0
1, 10473, Note_on_c, 0, 57, 0
1, 10482, Note_on_c, 0, 65, 0
1, 10500, Note_on_c, 0, 74, 0
1, 10513, Note_on_c, 0, 62, 49
1, 10558, Note_on_c, 0, 65, 45
1, 10558, Note_on_c, 0, 74, 45
1, 10568, Note_on_c, 0, 65, 0
1, 10568, Note_on_c, 0, 62, 0
1, 10578, Note_on_c, 0, 74, 0
1, 10675, Note_on_c, 0, 88, 71
1, 10679, Note_on_c, 0, 66, 47
1, 10680, Note_on_c, 0, 81, 64
1, 10681, Note_on_c, 0, 76, 59
1, 10682, Note_on_c, 0, 62, 41
1, 10682, Note_on_c, 0, 64, 47
1, 10685, Control_c, 0, 64, 0
1, 10701, Control_c, 0, 64, 127
1, 10718, Note_on_c, 0, 88, 0
1, 10724, Note_on_c, 0, 64, 0
1, 10728, Note_on_c, 0, 76, 0
1, 10730, Note_on_c, 0, 88, 62
1, 10731, Note_on_c, 0, 62, 0
1, 10735, Note_on_c, 0, 81, 0
1, 10737, Note_on_c, 0, 66, 0
1, 10753, Note_on_c, 0, 88, 0
1, 10780, Note_on_c, 0, 88, 64
1, 10781, Note_on_c, 0, 67, 39
1, 10782, Note_on_c, 0, 62, 35
1, 10782, Note_on_c, 0, 84, 44
1, 10782, Note_on_c, 0, 56, 33
1, 10783, Note_on_c, 0, 76, 43
1, 10784, Control_c, 0, 64, 0
1, 10804, Control_c, 0, 64, 127
1, 10825, Note_on_c, 0, 67, 0
1, 10827, Note_on_c, 0, 88, 0
1, 10832, Note_on_c, 0, 62, 0
1, 10836, Note_on_c, 0, 76, 0
1, 10840, Note_on_c, 0, 84, 0
1, 10849, Note_on_c, 0, 56, 0
1, 10883, Note_on_c, 0, 86, 54
1, 10900, Note_on_c, 0, 86, 0
1, 10917, Note_on_c, 0, 85, 49
1, 10918, Control_c, 0, 64, 0
1, 10918, Note_on_c, 0, 45, 36
1, 10937, Control_c, 0, 64, 127
1, 10953, Note_on_c, 0, 52, 33
1, 10974, Note_on_c, 0, 52, 0
1, 10974, Note_on_c, 0, 45, 0
1, 10983, Note_on_c, 0, 57, 41
1, 10989, Note_on_c, 0, 57, 0
1, 11017, Note_on_c, 0, 59, 30
1, 11058, Note_on_c, 0, 76, 44
1, 11111, Note_on_c, 0, 61, 37
1, 11117, Note_on_c, 0, 85, 0
1, 11128, Note_on_c, 0, 76, 0
1, 11195, Note_on_c, 0, 68, 29
1, 11205, Note_on_c, 0, 59, 0
1, 11217, Note_on_c, 0, 68, 0
1, 11217, Note_on_c, 0, 61, 0
1, 11225, Note_on_c, 0, 75, 69
1, 11245, Note_on_c, 0, 75, 0
1, 11258, Note_on_c, 0, 75, 80
1, 11264, Note_on_c, 0, 63, 49
1, 11265, Note_on_c, 0, 68, 62
1, 11265, Note_on_c, 0, 61, 28
1, 11266, Control_c, 0, 64, 0
1, 11266, Note_on_c, 0, 65, 50
1, 11267, Note_on_c, 0, 72, 62
1, 11288, Control_c, 0, 64, 127
1, 11296, Note_on_c, 0, 75, 0
1, 11309, Note_on_c, 0, 65, 0
1, 11309, Note_on_c, 0, 75, 64
1, 11315, Note_on_c, 0, 63, 0
1, 11318, Note_on_c, 0, 61, 0
1, 11320, Note_on_c, 0, 72, 0
1, 11331, Note_on_c, 0, 68, 0
1, 11336, Note_on_c, 0, 75, 0
1, 11354, Note_on_c, 0, 55, 27
1, 11355, Note_on_c, 0, 75, 56
1, 11357, Note_on_c, 0, 71, 53
1, 11358, Note_on_c, 0, 67, 45
1, 11359, Note_on_c, 0, 64, 40
1, 11359, Note_on_c, 0, 61, 26
1, 11361, Control_c, 0, 64, 0
1, 11382, Control_c, 0, 64, 127
1, 11402, Note_on_c, 0, 64, 0
1, 11408, Note_on_c, 0, 75, 0
1, 11408, Note_on_c, 0, 61, 0
1, 11408, Note_on_c, 0, 73, 40
1, 11409, Note_on_c, 0, 67, 0
1, 11412, Note_on_c, 0, 55, 0
1, 11412, Note_on_c, 0, 71, 0
1, 11426, Note_on_c, 0, 73, 0
1, 11515, Note_on_c, 0, 72, 47
1, 11524, Control_c, 0, 64, 0
1, 11525, Note_on_c, 0, 44, 28
1, 11537, Control_c, 0, 64, 127
1, 11563, Note_on_c, 0, 51, 33
1, 11576, Note_on_c, 0, 72, 0
1, 11594, Note_on_c, 0, 55, 44
1, 11629, Note_on_c, 0, 60, 48
1, 11648, Note_on_c, 0, 60, 0
1, 11649, Control_c, 0, 64, 0
1, 11653, Note_on_c, 0, 62, 59
1, 11667, Note_on_c, 0, 62, 0
1, 11674, Note_on_c, 0, 63, 46
1, 11682, Note_on_c, 0, 44, 0
1, 11685, Note_on_c, 0, 63, 0
1, 11693, Note_on_c, 0, 51, 0
1, 11696, Note_on_c, 0, 65, 50
1, 11698, Note_on_c, 0, 55, 0
1, 11708, Note_on_c, 0, 65, 0
1, 11719, Note_on_c, 0, 67, 48
1, 11729, Note_on_c, 0, 67, 0
1, 11784, Note_on_c, 0, 69, 55
1, 11796, Note_on_c, 0, 69, 0
1, 11807, Note_on_c, 0, 70, 34
1, 11822, Note_on_c, 0, 70, 0
1, 11826, Note_on_c, 0, 71, 54
1, 11839, Note_on_c, 0, 71, 0
1, 11847, Note_on_c, 0, 74, 73
1, 11866, Note_on_c, 0, 74, 0
1, 11876, Note_on_c, 0, 71, 40
1, 11886, Note_on_c, 0, 71, 0
1, 11889, Control_c, 0, 64, 127
1, 11898, Control_c, 0, 64, 0
1, 11901, Note_on_c, 0, 72, 54
1, 11915, Note_on_c, 0, 72, 0
1, 11933, Note_on_c, 0, 73, 49
1, 11934, Control_c, 0, 64, 127
1, 11948, Note_on_c, 0, 73, 0
1, 11969, Note_on_c, 0, 74, 58
1, 11972, Control_c, 0, 64, 0
1, 11973, Note_on_c, 0, 64, 20
1, 11974, Note_on_c, 0, 55, 24
1, 11975, Note_on_c, 0, 60, 30
1, 11975, Note_on_c, 0, 59, 27
1, 12001, Control_c, 0, 64, 127
1, 12009, Note_on_c, 0, 74, 0
1, 12020, Note_on_c, 0, 74, 54
1, 12021, Note_on_c, 0, 64, 0
1, 12023, Note_on_c, 0, 59, 0
1, 12023, Note_on_c, 0, 60, 0
1, 12027, Note_on_c, 0, 55, 0
1, 12051, Note_on_c, 0, 74, 0
1, 12078, Note_on_c, 0, 54, 29
1, 12078, Note_on_c, 0, 74, 37
1, 12079, Note_on_c, 0, 64, 40
1, 12080, Note_on_c, 0, 71, 26
1, 12081, Note_on_c, 0, 60, 29
1, 12086, Control_c, 0, 64, 0
1, 12093, Note_on_c, 0, 71, 0
1, 12115, Control_c, 0, 64, 127
1, 12137, Note_on_c, 0, 50, 46
1, 12146, Note_on_c, 0, 60, 0
1, 12152, Note_on_c, 0, 54, 0
1, 12155, Note_on_c, 0, 50, 0
1, 12156, Note_on_c, 0, 74, 0
1, 12164, Note_on_c, 0, 64, 0
1, 12233, Note_on_c, 0, 66, 35
1, 12234, Note_on_c, 0, 71, 31
1, 12234, Note_on_c, 0, 59, 32
1, 12235, Note_on_c, 0, 54, 26
1, 12235, Note_on_c, 0, 43, 31
1, 12236, Control_c, 0, 64, 0
1, 12258, Control_c, 0, 64, 127
1, 12281, Note_on_c, 0, 59, 0
1, 12317, Note_on_c, 0, 66, 0
1, 12328, Note_on_c, 0, 71, 0
1, 12377, Note_on_c, 0, 79, 72
1, 12399, Note_on_c, 0, 79, 0
1, 12408, Note_on_c, 0, 78, 59
1, 12410, Control_c, 0, 64, 0
1, 12421, Note_on_c, 0, 78, 0
1, 12437, Note_on_c, 0, 74, 54
1, 12454, Note_on_c, 0, 74, 0
1, 12467, Note_on_c, 0, 71, 30
1, 12479, Note_on_c, 0, 71, 0
1, 12499, Note_on_c, 0, 66, 34
1, 12530, Note_on_c, 0, 66, 0
1, 12531, Note_on_c, 0, 62, 36
1, 12564, Note_on_c, 0, 62, 0
1, 12569, Note_on_c, 0, 69, 52
1, 12598, Control_c, 0, 64, 127
1, 12609, Note_on_c, 0, 69, 0
1, 12612, Note_on_c, 0, 67, 46
1, 12650, Note_on_c, 0, 67, 0
1, 12653, Note_on_c, 0, 62, 49
1, 12690, Note_on_c, 0, 62, 0
1, 12698, Note_on_c, 0, 60, 35
1, 12741, Note_on_c, 0, 60, 0
1, 12744, Note_on_c, 0, 59, 44
1, 12778, Note_on_c, 0, 43, 0
1, 12782, Note_on_c, 0, 54, 0
1, 12798, Note_on_c, 0, 54, 69
1, 12800, Note_on_c, 0, 59, 0
1, 12857, Note_on_c, 0, 50, 48
1, 12867, Note_on_c, 0, 54, 0
1, 12919, Note_on_c, 0, 50, 0
1, 12921, Note_on_c, 0, 53, 59
1, 12927, Note_on_c, 0, 43, 40
1, 12929, Control_c, 0, 64, 0
1, 12950, Control_c, 0, 64, 127
1, 12965, Note_on_c, 0, 53, 0
1, 12974, Note_on_c, 0, 50, 46
1, 13021, Note_on_c, 0, 50, 0
1, 13021, Note_on_c, 0, 43, 0
1, 13023, Note_on_c, 0, 70, 83
1, 13024, Note_on_c, 0, 62, 84
1, 13025, Note_on_c, 0, 65, 85
1, 13027, Note_on_c, 0, 55, 60
1, 13079, Note_on_c, 0, 55, 0
1, 13080, Note_on_c, 0, 58, 70
1, 13105, Note_on_c, 0, 58, 0
1, 13107, Note_on_c, 0, 62, 0
1, 13109, Note_on_c, 0, 65, 0
1, 13118, Note_on_c, 0, 70, 0
1, 13151, Note_on_c, 0, 72, 77
1, 13151, Note_on_c, 0, 64, 74
1, 13153, Note_on_c, 0, 58, 57
1, 13154, Note_on_c, 0, 48, 50
1, 13158, Control_c, 0, 64, 0
1, 13188, Control_c, 0, 64, 127
1, 13214, Note_on_c, 0, 72, 0
1, 13217, Note_on_c, 0, 55, 43
1, 13218, Note_on_c, 0, 58, 0
1, 13224, Note_on_c, 0, 48, 0
1, 13224, Note_on_c, 0, 64, 0
1, 13227, Note_on_c, 0, 55, 0
1, 13280, Note_on_c, 0, 58, 28
1, 13282, Note_on_c, 0, 64, 35
1, 13283, Note_on_c, 0, 61, 33
1, 13303, Note_on_c, 0, 64, 0
1, 13304, Note_on_c, 0, 61, 0
1, 13305, Note_on_c, 0, 58, 0
1, 13369, Note_on_c, 0, 73, 45
1, 13369, Note_on_c, 0, 63, 57
1, 13371, Note_on_c, 0, 68, 54
1, 13405, Note_on_c, 0, 63, 0
1, 13407, Note_on_c, 0, 73, 0
1, 13410, Note_on_c, 0, 68, 0
1, 13445, Note_on_c, 0, 41, 35
1, 13448, Note_on_c, 0, 62, 47
1, 13450, Note_on_c, 0, 72, 45
1, 13450, Note_on_c, 0, 67, 36
1, 13451, Note_on_c, 0, 57, 39
1, 13457, Note_on_c, 0, 57, 0
1, 13457, Control_c, 0, 64, 0
1, 13487, Control_c, 0, 64, 127
1, 13497, Note_on_c, 0, 48, 47
1, 13536, Note_on_c, 0, 62, 0
1, 13544, Note_on_c, 0, 57, 57
1, 13547, Note_on_c, 0, 67, 0
1, 13549, Note_on_c, 0, 72, 0
1, 13582, Note_on_c, 0, 57, 0
1, 13584, Note_on_c, 0, 41, 0
1, 13588, Note_on_c, 0, 77, 78
1, 13593, Note_on_c, 0, 48, 0
1, 13628, Note_on_c, 0, 77, 0
1, 13636, Note_on_c, 0, 32, 53
1, 13637, Note_on_c, 0, 74, 50
1, 13638, Note_on_c, 0, 70, 39
1, 13639, Note_on_c, 0, 65, 49
1, 13640, Control_c, 0, 64, 0
1, 13662, Control_c, 0, 64, 127
1, 13665, Note_on_c, 0, 65, 0
1, 13675, Note_on_c, 0, 70, 0
1, 13678, Note_on_c, 0, 74, 0
1, 13683, Note_on_c, 0, 44, 57
1, 13687, Note_on_c, 0, 32, 0
1, 13693, Note_on_c, 0, 44, 0
1, 13736, Note_on_c, 0, 82, 63
1, 13736, Note_on_c, 0, 86, 61
1, 13737, Note_on_c, 0, 77, 50
1, 13738, Note_on_c, 0, 60, 53
1, 13788, Note_on_c, 0, 86, 0
1, 13794, Note_on_c, 0, 82, 0
1, 13800, Note_on_c, 0, 65, 66
1, 13801, Note_on_c, 0, 77, 0
1, 13836, Note_on_c, 0, 60, 0
1, 13845, Note_on_c, 0, 65, 0
1, 13932, Note_on_c, 0, 76, 54
1, 13933, Note_on_c, 0, 73, 33
1, 13934, Note_on_c, 0, 69, 57
1, 13934, Note_on_c, 0, 64, 45
1, 13935, Note_on_c, 0, 59, 35
1, 13938, Note_on_c, 0, 53, 38
1, 13942, Control_c, 0, 64, 0
1, 13977, Control_c, 0, 64, 127
1, 13982, Note_on_c, 0, 76, 0
1, 13995, Note_on_c, 0, 76, 50
1, 14017, Note_on_c, 0, 64, 0
1, 14027, Note_on_c, 0, 76, 0
1, 14029, Note_on_c, 0, 69, 0
1, 14034, Note_on_c, 0, 73, 0
1, 14043, Note_on_c, 0, 76, 38
1, 14065, Note_on_c, 0, 76, 0
1, 14085, Note_on_c, 0, 59, 0
1, 14090, Note_on_c, 0, 53, 0
1, 14090, Note_on_c, 0, 76, 47
1, 14111, Note_on_c, 0, 76, 0
1, 14144, Note_on_c, 0, 76, 41
1, 14146, Note_on_c, 0, 65, 37
1, 14147, Note_on_c, 0, 69, 51
1, 14148, Note_on_c, 0, 71, 40
1, 14149, Note_on_c, 0, 64, 35
1, 14155, Control_c, 0, 64, 0
1, 14208, Control_c, 0, 64, 127
1, 14229, Note_on_c, 0, 63, 36
1, 14230, Note_on_c, 0, 64, 0
1, 14234, Control_c, 0, 64, 0
1, 14243, Control_c, 0, 64, 127
1, 14289, Note_on_c, 0, 63, 0
1, 14292, Note_on_c, 0, 62, 36
1, 14293, Control_c, 0, 64, 0
1, 14309, Control_c, 0, 64, 127
1, 14344, Note_on_c, 0, 76, 0
1, 14369, Note_on_c, 0, 71, 0
1, 14370, Note_on_c, 0, 62, 0
1, 14377, Note_on_c, 0, 74, 35
1, 14419, Note_on_c, 0, 69, 0
1, 14421, Note_on_c, 0, 74, 0
1, 14425, Note_on_c, 0, 65, 0
1, 14516, Note_on_c, 0, 67, 46
1, 14518, Note_on_c, 0, 58, 35
1, 14520, Note_on_c, 0, 63, 36
1, 14522, Note_on_c, 0, 37, 34
1, 14527, Control_c, 0, 64, 0
1, 14548, Control_c, 0, 64, 127
1, 14556, Note_on_c, 0, 37, 0
1, 14556, Note_on_c, 0, 44, 50
1, 14582, Note_on_c, 0, 44, 0
1, 14601, Note_on_c, 0, 53, 55
1, 14621, Note_on_c, 0, 63, 0
1, 14628, Note_on_c, 0, 58, 0
1, 14629, Note_on_c, 0, 53, 0
1, 14650, Note_on_c, 0, 55, 52
1, 14689, Note_on_c, 0, 67, 0
1, 14691, Note_on_c, 0, 55, 0
1, 14706, Note_on_c, 0, 56, 34
1, 14707, Note_on_c, 0, 64, 44
1, 14707, Note_on_c, 0, 61, 37
1, 14708, Note_on_c, 0, 58, 30
1, 14710, Note_on_c, 0, 48, 36
1, 14712, Control_c, 0, 64, 0
1, 14739, Control_c, 0, 64, 127
1, 14753, Note_on_c, 0, 56, 0
1, 14760, Note_on_c, 0, 58, 0
1, 14764, Note_on_c, 0, 64, 0
1, 14766, Note_on_c, 0, 56, 34
1, 14768, Note_on_c, 0, 61, 0
1, 14834, Note_on_c, 0, 68, 33
1, 14837, Note_on_c, 0, 64, 46
1, 14838, Note_on_c, 0, 61, 35
1, 14839, Note_on_c, 0, 58, 26
1, 14879, Note_on_c, 0, 68, 0
1, 14908, Note_on_c, 0, 68, 42
1, 14953, Note_on_c, 0, 61, 0
1, 14955, Note_on_c, 0, 64, 0
1, 14966, Note_on_c, 0, 68, 0
1, 14985, Note_on_c, 0, 48, 0
1, 14992, Note_on_c, 0, 58, 0
1, 15028, Note_on_c, 0, 72, 60
1, 15031, Note_on_c, 0, 56, 0
1, 15032, Note_on_c, 0, 67, 46
1, 15033, Note_on_c, 0, 48, 34
1, 15036, Note_on_c, 0, 60, 45
1, 15038, Control_c, 0, 64, 0
1, 15039, Note_on_c, 0, 57, 29
1, 15063, Control_c, 0, 64, 127
1, 15079, Note_on_c, 0, 72, 0
1, 15095, Note_on_c, 0, 72, 57
1, 15122, Note_on_c, 0, 72, 0
1, 15151, Note_on_c, 0, 72, 61
1, 15181, Note_on_c, 0, 72, 0
1, 15206, Note_on_c, 0, 60, 0
1, 15207, Note_on_c, 0, 72, 57
1, 15214, Note_on_c, 0, 67, 0
1, 15220, Note_on_c, 0, 72, 0
1, 15236, Note_on_c, 0, 57, 0
1, 15268, Note_on_c, 0, 84, 62
1, 15272, Note_on_c, 0, 77, 58
1, 15275, Note_on_c, 0, 72, 48
1, 15276, Note_on_c, 0, 57, 44
1, 15305, Note_on_c, 0, 84, 0
1, 15319, Note_on_c, 0, 48, 0
1, 15330, Note_on_c, 0, 77, 0
1, 15338, Note_on_c, 0, 72, 0
1, 15341, Note_on_c, 0, 48, 37
1, 15370, Note_on_c, 0, 57, 0
1, 15404, Note_on_c, 0, 66, 36
1, 15404, Note_on_c, 0, 62, 34
1, 15407, Note_on_c, 0, 57, 30
1, 15462, Note_on_c, 0, 48, 0
1, 15497, Note_on_c, 0, 57, 0
1, 15532, Note_on_c, 0, 47, 39
1, 15537, Control_c, 0, 64, 0
1, 15545, Control_c, 0, 64, 127
1, 15568, Note_on_c, 0, 47, 0
1, 15573, Note_on_c, 0, 62, 0
1, 15581, Note_on_c, 0, 66, 0
1, 15601, Note_on_c, 0, 65, 38
1, 15601, Note_on_c, 0, 62, 35
1, 15603, Note_on_c, 0, 56, 23
1, 15604, Control_c, 0, 64, 0
1, 15606, Note_on_c, 0, 46, 25
1, 15625, Control_c, 0, 64, 127
1, 15668, Note_on_c, 0, 62, 0
1, 15676, Note_on_c, 0, 46, 0
1, 15677, Note_on_c, 0, 65, 0
1, 15681, Note_on_c, 0, 56, 0
1, 15737, Note_on_c, 0, 82, 71
1, 15758, Note_on_c, 0, 82, 0
1, 15767, Note_on_c, 0, 84, 80
1, 15784, Note_on_c, 0, 84, 0
1, 15792, Note_on_c, 0, 82, 67
1, 15806, Note_on_c, 0, 82, 0
1, 15823, Note_on_c, 0, 84, 82
1, 15823, Control_c, 0, 64, 0
1, 15823, Note_on_c, 0, 67, 43
1, 15824, Note_on_c, 0, 62, 51
1, 15825, Note_on_c, 0, 56, 37
1, 15848, Control_c, 0, 64, 127
1, 15849, Note_on_c, 0, 84, 0
1, 15853, Note_on_c, 0, 82, 55
1, 15869, Note_on_c, 0, 67, 0
1, 15873, Note_on_c, 0, 62, 0
1, 15877, Note_on_c, 0, 82, 0
1, 15878, Note_on_c, 0, 56, 0
1, 15889, Note_on_c, 0, 66, 53
1, 15889, Note_on_c, 0, 85, 79
1, 15890, Note_on_c, 0, 61, 42
1, 15892, Note_on_c, 0, 55, 47
1, 15895, Control_c, 0, 64, 0
1, 15931, Control_c, 0, 64, 127
1, 15942, Note_on_c, 0, 66, 0
1, 15944, Note_on_c, 0, 55, 0
1, 15949, Note_on_c, 0, 61, 0
1, 15997, Note_on_c, 0, 45, 41
1, 16090, Note_on_c, 0, 85, 0
1, 16149, Note_on_c, 0, 69, 56
1, 16162, Note_on_c, 0, 69, 0
1, 16162, Note_on_c, 0, 45, 0
1, 16180, Note_on_c, 0, 79, 82
1, 16206, Note_on_c, 0, 79, 0
1, 16215, Note_on_c, 0, 77, 75
1, 16242, Note_on_c, 0, 77, 0
1, 16245, Note_on_c, 0, 73, 36
1, 16268, Note_on_c, 0, 73, 0
1, 16277, Note_on_c, 0, 76, 67
1, 16299, Note_on_c, 0, 76, 0
1, 16310, Note_on_c, 0, 74, 51
1, 16336, Note_on_c, 0, 74, 0
1, 16342, Note_on_c, 0, 69, 50
1, 16363, Note_on_c, 0, 69, 0
1, 16373, Note_on_c, 0, 67, 42
1, 16409, Note_on_c, 0, 67, 0
1, 16412, Note_on_c, 0, 65, 45
1, 16417, Note_on_c, 0, 50, 26
1, 16427, Control_c, 0, 64, 0
1, 16452, Control_c, 0, 64, 127
1, 16455, Note_on_c, 0, 57, 40
1, 16487, Note_on_c, 0, 62, 46
1, 16518, Note_on_c, 0, 67, 66
1, 16519, Note_on_c, 0, 62, 0
1, 16520, Note_on_c, 0, 65, 0
1, 16538, Note_on_c, 0, 67, 0
1, 16546, Note_on_c, 0, 74, 85
1, 16568, Note_on_c, 0, 74, 0
1, 16574, Note_on_c, 0, 50, 0
1, 16575, Note_on_c, 0, 72, 80
1, 16600, Note_on_c, 0, 72, 0
1, 16610, Note_on_c, 0, 48, 48
1, 16610, Control_c, 0, 64, 0
1, 16614, Note_on_c, 0, 67, 25
1, 16616, Note_on_c, 0, 65, 34
1, 16634, Note_on_c, 0, 67, 0
1, 16646, Note_on_c, 0, 57, 0
1, 16658, Note_on_c, 0, 57, 40
1, 16684, Control_c, 0, 64, 127
1, 16708, Note_on_c, 0, 65, 0
1, 16740, Note_on_c, 0, 65, 50
1, 16766, Note_on_c, 0, 65, 0
1, 16772, Note_on_c, 0, 74, 76
1, 16772, Note_on_c, 0, 65, 32
1, 16795, Note_on_c, 0, 74, 0
1, 16796, Note_on_c, 0, 65, 0
1, 16796, Note_on_c, 0, 48, 0
1, 16802, Note_on_c, 0, 72, 64
1, 16803, Note_on_c, 0, 74, 38
1, 16823, Note_on_c, 0, 74, 0
1, 16834, Note_on_c, 0, 57, 0
1, 16836, Note_on_c, 0, 47, 41
1, 16837, Note_on_c, 0, 72, 0
1, 16842, Note_on_c, 0, 65, 34
1, 16844, Control_c, 0, 64, 0
1, 16868, Control_c, 0, 64, 127
1, 16884, Note_on_c, 0, 47, 0
1, 16885, Note_on_c, 0, 57, 38
1, 16892, Note_on_c, 0, 57, 0
1, 16933, Note_on_c, 0, 62, 45
1, 16950, Note_on_c, 0, 65, 0
1, 16998, Note_on_c, 0, 67, 92
1, 16998, Note_on_c, 0, 74, 80
1, 17011, Note_on_c, 0, 62, 0
1, 17012, Control_c, 0, 64, 0
1, 17018, Note_on_c, 0, 67, 0
1, 17019, Note_on_c, 0, 68, 53
1, 17038, Note_on_c, 0, 67, 24
1, 17045, Note_on_c, 0, 74, 0
1, 17051, Control_c, 0, 64, 127
1, 17058, Note_on_c, 0, 67, 0
1, 17061, Note_on_c, 0, 65, 53
1, 17072, Note_on_c, 0, 65, 0
1, 17073, Note_on_c, 0, 68, 0
1, 17083, Note_on_c, 0, 74, 64
1, 17085, Note_on_c, 0, 67, 47
1, 17103, Note_on_c, 0, 74, 0
1, 17114, Note_on_c, 0, 67, 0
1, 17121, Note_on_c, 0, 62, 51
1, 17142, Note_on_c, 0, 62, 0
1, 17153, Note_on_c, 0, 65, 71
1, 17179, Note_on_c, 0, 65, 0
1, 17187, Note_on_c, 0, 67, 42
1, 17218, Note_on_c, 0, 67, 0
1, 17229, Note_on_c, 0, 46, 34
1, 17230, Note_on_c, 0, 56, 25
1, 17230, Note_on_c, 0, 68, 36
1, 17235, Control_c, 0, 64, 0
1, 17236, Note_on_c, 0, 65, 13
1, 17246, Note_on_c, 0, 65, 0
1, 17292, Note_on_c, 0, 56, 0
1, 17294, Control_c, 0, 64, 127
1, 17332, Note_on_c, 0, 65, 40
1, 17335, Note_on_c, 0, 56, 18
1, 17349, Note_on_c, 0, 65, 0
1, 17362, Note_on_c, 0, 46, 0
1, 17383, Note_on_c, 0, 61, 36
1, 17383, Note_on_c, 0, 65, 36
1, 17384, Note_on_c, 0, 46, 32
1, 17410, Note_on_c, 0, 56, 0
1, 17411, Note_on_c, 0, 65, 0
1, 17428, Note_on_c, 0, 61, 0
1, 17429, Note_on_c, 0, 46, 0
1, 17430, Note_on_c, 0, 68, 0
1, 17439, Note_on_c, 0, 65, 45
1, 17442, Note_on_c, 0, 60, 34
1, 17442, Note_on_c, 0, 45, 47
1, 17446, Control_c, 0, 64, 0
1, 17483, Control_c, 0, 64, 127
1, 17484, Note_on_c, 0, 53, 38
1, 17505, Note_on_c, 0, 60, 0
1, 17524, Note_on_c, 0, 60, 47
1, 17525, Note_on_c, 0, 57, 37
1, 17531, Note_on_c, 0, 65, 0
1, 17545, Note_on_c, 0, 57, 0
1, 17548, Note_on_c, 0, 53, 0
1, 17548, Note_on_c, 0, 60, 0
1, 17554, Note_on_c, 0, 45, 0
1, 17560, Note_on_c, 0, 65, 64
1, 17588, Note_on_c, 0, 65, 0
1, 17604, Control_c, 0, 64, 0
1, 17605, Note_on_c, 0, 62, 66
1, 17606, Note_on_c, 0, 44, 53
1, 17606, Note_on_c, 0, 68, 60
1, 17607, Note_on_c, 0, 65, 61
1, 17608, Note_on_c, 0, 53, 46
1, 17618, Note_on_c, 0, 62, 0
1, 17619, Control_c, 0, 64, 127
1, 17620, Note_on_c, 0, 44, 0
1, 17621, Note_on_c, 0, 65, 0
1, 17623, Note_on_c, 0, 68, 0
1, 17630, Note_on_c, 0, 53, 0
1, 17657, Note_on_c, 0, 56, 69
1, 17657, Note_on_c, 0, 71, 71
1, 17657, Control_c, 0, 64, 0
1, 17657, Note_on_c, 0, 62, 76
1, 17657, Note_on_c, 0, 67, 73
1, 17665, Control_c, 0, 64, 127
1, 17672, Note_on_c, 0, 62, 0
1, 17678, Note_on_c, 0, 67, 0
1, 17680, Note_on_c, 0, 71, 0
1, 17706, Control_c, 0, 64, 0
1, 17706, Note_on_c, 0, 74, 73
1, 17707, Note_on_c, 0, 70, 65
1, 17709, Note_on_c, 0, 59, 66
1, 17712, Note_on_c, 0, 64, 31
1, 17713, Note_on_c, 0, 65, 24
1, 17717, Note_on_c, 0, 64, 0
1, 17718, Note_on_c, 0, 65, 0
1, 17719, Note_on_c, 0, 70, 0
1, 17719, Control_c, 0, 64, 127
1, 17721, Note_on_c, 0, 74, 0
1, 17759, Note_on_c, 0, 77, 62
1, 17759, Note_on_c, 0, 68, 71
1, 17760, Note_on_c, 0, 62, 60
1, 17760, Note_on_c, 0, 74, 69
1, 17767, Note_on_c, 0, 59, 0
1, 17772, Note_on_c, 0, 56, 0
1, 17778, Note_on_c, 0, 62, 0
1, 17788, Note_on_c, 0, 74, 0
1, 17791, Note_on_c, 0, 68, 0
1, 17801, Note_on_c, 0, 77, 0
1, 17816, Note_on_c, 0, 74, 59
1, 17817, Note_on_c, 0, 70, 60
1, 17817, Control_c, 0, 64, 0
1, 17818, Note_on_c, 0, 67, 60
1, 17830, Control_c, 0, 64, 127
1, 17836, Note_on_c, 0, 70, 0
1, 17839, Note_on_c, 0, 74, 0
1, 17844, Note_on_c, 0, 67, 0
1, 17874, Note_on_c, 0, 81, 80
1, 17875, Note_on_c, 0, 74, 77
1, 17875, Note_on_c, 0, 69, 66
1, 17875, Note_on_c, 0, 70, 73
1, 17877, Note_on_c, 0, 77, 52
1, 17879, Control_c, 0, 64, 0
1, 17898, Control_c, 0, 64, 127
1, 17917, Note_on_c, 0, 70, 0
1, 17918, Note_on_c, 0, 74, 0
1, 17921, Note_on_c, 0, 81, 0
1, 17923, Note_on_c, 0, 77, 0
1, 17931, Note_on_c, 0, 70, 71
1, 17931, Note_on_c, 0, 74, 53
1, 17933, Note_on_c, 0, 79, 59
1, 17933, Control_c, 0, 64, 0
1, 17933, Note_on_c, 0, 67, 54
1, 17935, Note_on_c, 0, 69, 0
1, 17938, Control_c, 0, 64, 127
1, 17939, Note_on_c, 0, 77, 22
1, 17942, Note_on_c, 0, 70, 0
1, 17944, Note_on_c, 0, 77, 0
1, 17945, Note_on_c, 0, 67, 0
1, 17947, Note_on_c, 0, 74, 0
1, 17951, Note_on_c, 0, 79, 0
1, 17991, Note_on_c, 0, 74, 80
1, 17991, Note_on_c, 0, 77, 68
1, 17992, Note_on_c, 0, 84, 74
1, 17993, Note_on_c, 0, 81, 62
1, 17993, Note_on_c, 0, 72, 61
1, 17995, Control_c, 0, 64, 0
1, 18006, Control_c, 0, 64, 127
1, 18014, Note_on_c, 0, 77, 0
1, 18014, Note_on_c, 0, 74, 0
1, 18015, Note_on_c, 0, 81, 0
1, 18016, Note_on_c, 0, 72, 0
1, 18019, Note_on_c, 0, 84, 0
1, 18056, Note_on_c, 0, 79, 82
1, 18056, Note_on_c, 0, 87, 93
1, 18056, Note_on_c, 0, 82, 79
1, 18057, Note_on_c, 0, 76, 78
1, 18057, Note_on_c, 0, 75, 85
1, 18058, Control_c, 0, 64, 0
1, 18079, Control_c, 0, 64, 127
1, 18094, Note_on_c, 0, 79, 0
1, 18096, Note_on_c, 0, 87, 0
1, 18097, Note_on_c, 0, 75, 0
1, 18097, Note_on_c, 0, 82, 0
1, 18106, Note_on_c, 0, 76, 0
1, 18135, Note_on_c, 0, 76, 66
1, 18135, Note_on_c, 0, 84, 65
1, 18136, Note_on_c, 0, 73, 37
1, 18137, Note_on_c, 0, 79, 38
1, 18138, Note_on_c, 0, 72, 60
1, 18142, Note_on_c, 0, 82, 29
1, 18145, Note_on_c, 0, 72, 0
1, 18165, Note_on_c, 0, 76, 0
1, 18167, Note_on_c, 0, 79, 0
1, 18170, Note_on_c, 0, 73, 0
1, 18173, Note_on_c, 0, 84, 0
1, 18184, Note_on_c, 0, 82, 0
1, 18225, Note_on_c, 0, 84, 50
1, 18226, Note_on_c, 0, 63, 36
1, 18226, Note_on_c, 0, 76, 41
1, 18226, Note_on_c, 0, 72, 36
1, 18227, Note_on_c, 0, 79, 34
1, 18229, Note_on_c, 0, 52, 35
1, 18230, Note_on_c, 0, 58, 36
1, 18231, Control_c, 0, 64, 0
1, 18252, Note_on_c, 0, 63, 0
1, 18252, Control_c, 0, 64, 127
1, 18255, Note_on_c, 0, 52, 0
1, 18259, Note_on_c, 0, 58, 0
1, 18357, Note_on_c, 0, 24, 34
1, 18357, Note_on_c, 0, 36, 29
1, 18358, Note_on_c, 0, 72, 0
1, 18358, Note_on_c, 0, 84, 0
1, 18359, Note_on_c, 0, 76, 0
1, 18362, Note_on_c, 0, 79, 0
1, 18543, Note_on_c, 0, 24, 0
1, 18546, Note_on_c, 0, 36, 0
1, 18686, Note_on_c, 0, 72, 49
1, 18688, Note_on_c, 0, 62, 37
1, 18689, Note_on_c, 0, 67, 41
1, 18693, Note_on_c, 0, 41, 42
1, 18702, Control_c, 0, 64, 0
1, 18737, Note_on_c, 0, 48, 54
1, 18741, Control_c, 0, 64, 127
1, 18768, Note_on_c, 0, 41, 0
1, 18772, Note_on_c, 0, 62, 0
1, 18776, Note_on_c, 0, 67, 0
1, 18790, Note_on_c, 0, 72, 0
1, 18791, Note_on_c, 0, 67, 55
1, 18791, Note_on_c, 0, 57, 57
1, 18794, Note_on_c, 0, 62, 39
1, 18818, Note_on_c, 0, 48, 0
1, 18825, Note_on_c, 0, 62, 0
1, 18828, Note_on_c, 0, 57, 0
1, 18834, Note_on_c, 0, 72, 73
1, 18842, Note_on_c, 0, 67, 0
1, 18847, Note_on_c, 0, 72, 0
1, 18864, Note_on_c, 0, 75, 38
1, 18877, Note_on_c, 0, 75, 0
1, 18972, Note_on_c, 0, 73, 77
1, 18973, Note_on_c, 0, 66, 68
1, 18974, Note_on_c, 0, 69, 94
1, 18976, Note_on_c, 0, 62, 59
1, 18976, Note_on_c, 0, 64, 57
1, 18978, Control_c, 0, 64, 0
1, 18999, Control_c, 0, 64, 127
1, 19019, Note_on_c, 0, 76, 81
1, 19020, Note_on_c, 0, 64, 0
1, 19027, Note_on_c, 0, 69, 0
1, 19027, Note_on_c, 0, 73, 0
1, 19029, Note_on_c, 0, 66, 0
1, 19031, Note_on_c, 0, 62, 0
1, 19052, Note_on_c, 0, 76, 0
1, 19078, Note_on_c, 0, 76, 60
1, 19078, Note_on_c, 0, 62, 43
1, 19079, Note_on_c, 0, 67, 49
1, 19079, Note_on_c, 0, 56, 44
1, 19080, Note_on_c, 0, 72, 55
1, 19086, Control_c, 0, 64, 0
1, 19106, Control_c, 0, 64, 127
1, 19121, Note_on_c, 0, 62, 0
1, 19126, Note_on_c, 0, 76, 0
1, 19128, Note_on_c, 0, 72, 0
1, 19128, Note_on_c, 0, 74, 64
1, 19129, Note_on_c, 0, 56, 0
1, 19130, Note_on_c, 0, 67, 0
1, 19147, Note_on_c, 0, 74, 0
1, 19171, Note_on_c, 0, 64, 57
1, 19173, Note_on_c, 0, 73, 34
1, 19177, Note_on_c, 0, 45, 43
1, 19183, Control_c, 0, 64, 0
1, 19214, Note_on_c, 0, 52, 51
1, 19217, Control_c, 0, 64, 127
1, 19243, Note_on_c, 0, 64, 0
1, 19251, Note_on_c, 0, 52, 0
1, 19251, Note_on_c, 0, 45, 0
1, 19257, Note_on_c, 0, 68, 52
1, 19258, Note_on_c, 0, 64, 57
1, 19258, Note_on_c, 0, 57, 42
1, 19266, Note_on_c, 0, 57, 0
1, 19270, Note_on_c, 0, 73, 0
1, 19298, Note_on_c, 0, 64, 0
1, 19303, Note_on_c, 0, 73, 44
1, 19305, Note_on_c, 0, 60, 41
1, 19323, Note_on_c, 0, 60, 0
1, 19331, Note_on_c, 0, 68, 0
1, 19343, Note_on_c, 0, 73, 0
1, 19368, Note_on_c, 0, 65, 49
1, 19368, Note_on_c, 0, 72, 55
1, 19369, Note_on_c, 0, 69, 53
1, 19370, Note_on_c, 0, 58, 33
1, 19370, Note_on_c, 0, 62, 40
1, 19370, Note_on_c, 0, 60, 39
1, 19374, Control_c, 0, 64, 0
1, 19410, Note_on_c, 0, 72, 0
1, 19416, Control_c, 0, 64, 127
1, 19432, Note_on_c, 0, 62, 0
1, 19433, Note_on_c, 0, 60, 0
1, 19433, Note_on_c, 0, 72, 48
1, 19438, Note_on_c, 0, 58, 0
1, 19452, Note_on_c, 0, 69, 0
1, 19455, Note_on_c, 0, 65, 0
1, 19459, Note_on_c, 0, 72, 0
1, 19514, Note_on_c, 0, 64, 32
1, 19515, Note_on_c, 0, 68, 33
1, 19515, Note_on_c, 0, 72, 36
1, 19517, Note_on_c, 0, 48, 36
1, 19520, Note_on_c, 0, 58, 19
1, 19521, Control_c, 0, 64, 0
1, 19542, Control_c, 0, 64, 127
1, 19599, Note_on_c, 0, 64, 0
1, 19606, Note_on_c, 0, 48, 0
1, 19606, Note_on_c, 0, 58, 0
1, 19612, Note_on_c, 0, 68, 0
1, 19618, Note_on_c, 0, 72, 0
1, 19777, Control_c, 0, 64, 0
1, 19778, Note_on_c, 0, 72, 44
1, 19779, Note_on_c, 0, 48, 34
1, 19781, Note_on_c, 0, 41, 28
1, 19793, Note_on_c, 0, 48, 0
1, 19795, Note_on_c, 0, 41, 0
1, 19832, Control_c, 0, 64, 127
1, 19897, Note_on_c, 0, 67, 29
1, 19899, Note_on_c, 0, 62, 31
1, 19902, Note_on_c, 0, 57, 24
1, 19905, Control_c, 0, 64, 0
1, 19908, Note_on_c, 0, 62, 0
1, 19909, Note_on_c, 0, 67, 0
1, 19910, Note_on_c, 0, 57, 0
1, 19977, Control_c, 0, 64, 127
1, 20006, Note_on_c, 0, 72, 0
1, 20009, Control_c, 0, 64, 0
1, 20012, Note_on_c, 0, 84, 57
1, 20016, Note_on_c, 0, 41, 44
1, 20031, Note_on_c, 0, 41, 0
1, 20039, Note_on_c, 0, 84, 0
1, 20101, Control_c, 0, 64, 127
1, 20103, Control_c, 0, 64, 0
1, 20133, Note_on_c, 0, 57, 36
1, 20134, Note_on_c, 0, 63, 45
1, 20135, Note_on_c, 0, 67, 26
1, 20149, Note_on_c, 0, 67, 0
1, 20156, Note_on_c, 0, 63, 0
1, 20156, Note_on_c, 0, 57, 0
1, 20211, Control_c, 0, 64, 127
1, 20237, Control_c, 0, 64, 0
1, 20246, Note_on_c, 0, 46, 47
1, 20247, Note_on_c, 0, 56, 32
1, 20253, Control_c, 0, 64, 127
1, 20266, Note_on_c, 0, 46, 0
1, 20268, Note_on_c, 0, 56, 0
1, 20270, Control_c, 0, 64, 0
1, 20316, Control_c, 0, 64, 127
1, 20323, Note_on_c, 0, 82, 77
1, 20343, Note_on_c, 0, 82, 0
1, 20352, Control_c, 0, 64, 0
1, 20362, Note_on_c, 0, 62, 53
1, 20362, Note_on_c, 0, 84, 84
1, 20363, Note_on_c, 0, 56, 39
1, 20363, Note_on_c, 0, 67, 45
1, 20375, Note_on_c, 0, 84, 0
1, 20390, Note_on_c, 0, 67, 0
1, 20393, Note_on_c, 0, 84, 68
1, 20399, Note_on_c, 0, 62, 0
1, 20406, Control_c, 0, 64, 127
1, 20409, Note_on_c, 0, 84, 0
1, 20413, Note_on_c, 0, 56, 0
1, 20431, Note_on_c, 0, 82, 37
1, 20450, Note_on_c, 0, 82, 0
1, 20460, Control_c, 0, 64, 0
1, 20467, Note_on_c, 0, 55, 51
1, 20468, Note_on_c, 0, 66, 40
1, 20468, Note_on_c, 0, 73, 44
1, 20468, Note_on_c, 0, 85, 71
1, 20469, Note_on_c, 0, 61, 35
1, 20481, Note_on_c, 0, 66, 0
1, 20485, Note_on_c, 0, 55, 0
1, 20487, Note_on_c, 0, 85, 0
1, 20488, Note_on_c, 0, 61, 0
1, 20490, Control_c, 0, 64, 127
1, 20495, Note_on_c, 0, 73, 0
1, 20544, Note_on_c, 0, 45, 61
1, 20587, Note_on_c, 0, 61, 69
1, 20588, Note_on_c, 0, 55, 57
1, 20588, Note_on_c, 0, 58, 64
1, 20588, Note_on_c, 0, 69, 73
1, 20590, Control_c, 0, 64, 0
1, 20591, Note_on_c, 0, 64, 62
1, 20598, Note_on_c, 0, 45, 0
1, 20621, Control_c, 0, 64, 127
1, 20641, Note_on_c, 0, 55, 0
1, 20662, Note_on_c, 0, 64, 0
1, 20666, Note_on_c, 0, 49, 35
1, 20668, Note_on_c, 0, 58, 0
1, 20672, Note_on_c, 0, 61, 0
1, 20679, Note_on_c, 0, 69, 0
1, 20702, Control_c, 0, 64, 0
1, 20703, Note_on_c, 0, 49, 0
1, 20705, Note_on_c, 0, 50, 41
1, 20706, Note_on_c, 0, 62, 37
1, 20707, Note_on_c, 0, 65, 47
1, 20707, Note_on_c, 0, 57, 31
1, 20725, Control_c, 0, 64, 127
1, 20727, Note_on_c, 0, 57, 0
1, 20737, Note_on_c, 0, 62, 0
1, 20739, Note_on_c, 0, 65, 0
1, 20773, Note_on_c, 0, 50, 0
1, 20783, Note_on_c, 0, 74, 75
1, 20798, Note_on_c, 0, 74, 0
1, 20821, Note_on_c, 0, 74, 79
1, 20840, Note_on_c, 0, 74, 0
1, 20860, Note_on_c, 0, 72, 32
1, 20869, Note_on_c, 0, 72, 0
1, 20891, Note_on_c, 0, 74, 74
1, 20915, Note_on_c, 0, 74, 0
1, 20923, Control_c, 0, 64, 0
1, 20924, Note_on_c, 0, 74, 64
1, 20926, Note_on_c, 0, 68, 65
1, 20938, Note_on_c, 0, 68, 0
1, 20946, Note_on_c, 0, 67, 30
1, 20958, Note_on_c, 0, 74, 0
1, 20964, Note_on_c, 0, 67, 0
1, 20968, Note_on_c, 0, 65, 55
1, 20982, Note_on_c, 0, 65, 0
1, 20990, Note_on_c, 0, 62, 45
1, 21005, Note_on_c, 0, 62, 0
1, 21017, Note_on_c, 0, 65, 78
1, 21036, Note_on_c, 0, 65, 0
1, 21042, Note_on_c, 0, 67, 61
1, 21059, Note_on_c, 0, 67, 0
1, 21068, Note_on_c, 0, 65, 63
1, 21093, Control_c, 0, 64, 127
1, 21117, Note_on_c, 0, 47, 46
1, 21118, Note_on_c, 0, 57, 42
1, 21156, Note_on_c, 0, 47, 0
1, 21157, Note_on_c, 0, 57, 0
1, 21188, Note_on_c, 0, 56, 56
1, 21191, Note_on_c, 0, 46, 32
1, 21193, Control_c, 0, 64, 0
1, 21231, Control_c, 0, 64, 127
1, 21245, Note_on_c, 0, 46, 0
1, 21251, Note_on_c, 0, 56, 0
1, 21299, Note_on_c, 0, 65, 0
1, 21305, Note_on_c, 0, 62, 71
1, 21307, Note_on_c, 0, 57, 51
1, 21310, Note_on_c, 0, 59, 47
1, 21311, Control_c, 0, 64, 0
1, 21315, Note_on_c, 0, 59, 0
1, 21327, Control_c, 0, 64, 127
1, 21341, Note_on_c, 0, 57, 0
1, 21344, Note_on_c, 0, 65, 74
1, 21355, Note_on_c, 0, 62, 0
1, 21375, Note_on_c, 0, 65, 0
1, 21381, Note_on_c, 0, 62, 60
1, 21382, Note_on_c, 0, 47, 43
1, 21393, Note_on_c, 0, 47, 0
1, 21398, Note_on_c, 0, 62, 0
1, 21422, Note_on_c, 0, 68, 47
1, 21422, Note_on_c, 0, 46, 49
1, 21422, Note_on_c, 0, 58, 45
1, 21423, Note_on_c, 0, 56, 44
1, 21424, Note_on_c, 0, 61, 49
1, 21424, Note_on_c, 0, 65, 55
1, 21427, Control_c, 0, 64, 0
1, 21458, Control_c, 0, 64, 127
1, 21504, Note_on_c, 0, 56, 0
1, 21509, Note_on_c, 0, 65, 0
1, 21513, Note_on_c, 0, 58, 0
1, 21514, Note_on_c, 0, 61, 0
1, 21518, Note_on_c, 0, 68, 0
1, 21541, Note_on_c, 0, 68, 37
1, 21542, Note_on_c, 0, 58, 33
1, 21543, Note_on_c, 0, 56, 29
1, 21543, Note_on_c, 0, 61, 37
1, 21545, Note_on_c, 0, 65, 44
1, 21577, Note_on_c, 0, 65, 0
1, 21578, Note_on_c, 0, 46, 0
1, 21580, Note_on_c, 0, 56, 0
1, 21580, Note_on_c, 0, 58, 0
1, 21583, Note_on_c, 0, 68, 0
1, 21617, Note_on_c, 0, 61, 0
1, 21619, Note_on_c, 0, 46, 39
1, 21638, Note_on_c, 0, 46, 0
1, 21657, Control_c, 0, 64, 0
1, 21660, Note_on_c, 0, 45, 43
1, 21662, Note_on_c, 0, 57, 28
1, 21663, Note_on_c, 0, 62, 25
1, 21663, Note_on_c, 0, 60, 36
1, 21665, Note_on_c, 0, 53, 29
1, 21667, Note_on_c, 0, 65, 24
1, 21674, Control_c, 0, 64, 127
1, 21683, Note_on_c, 0, 57, 0
1, 21691, Note_on_c, 0, 60, 0
1, 21692, Note_on_c, 0, 62, 0
1, 21696, Note_on_c, 0, 65, 0
1, 21698, Note_on_c, 0, 45, 0
1, 21702, Note_on_c, 0, 53, 0
1, 21744, Note_on_c, 0, 69, 42
1, 21758, Note_on_c, 0, 69, 0
1, 21780, Note_on_c, 0, 72, 52
1, 21780, Note_on_c, 0, 64, 28
1, 21786, Note_on_c, 0, 64, 0
1, 21794, Note_on_c, 0, 72, 0
1, 21812, Note_on_c, 0, 76, 58
1, 21831, Note_on_c, 0, 76, 0
1, 21849, Note_on_c, 0, 79, 71
1, 21862, Note_on_c, 0, 79, 0
1, 21890, Note_on_c, 0, 62, 47
1, 21891, Note_on_c, 0, 88, 85
1, 21891, Note_on_c, 0, 80, 74
1, 21892, Note_on_c, 0, 56, 27
1, 21893, Control_c, 0, 64, 0
1, 21894, Note_on_c, 0, 59, 44
1, 21923, Note_on_c, 0, 88, 0
1, 21928, Note_on_c, 0, 86, 56
1, 21932, Note_on_c, 0, 80, 0
1, 21941, Note_on_c, 0, 62, 0
1, 21944, Note_on_c, 0, 86, 0
1, 21954, Note_on_c, 0, 59, 0
1, 21954, Control_c, 0, 64, 127
1, 21969, Note_on_c, 0, 83, 68
1, 21970, Note_on_c, 0, 77, 51
1, 21982, Note_on_c, 0, 77, 0
1, 21983, Note_on_c, 0, 83, 0
1, 21997, Control_c, 0, 64, 0
1, 22009, Note_on_c, 0, 62, 39
1, 22013, Note_on_c, 0, 59, 26
1, 22015, Note_on_c, 0, 62, 0
1, 22020, Note_on_c, 0, 59, 0
1, 22024, Note_on_c, 0, 56, 0
1, 22035, Control_c, 0, 64, 127
1, 22085, Note_on_c, 0, 59, 46
1, 22087, Note_on_c, 0, 44, 35
1, 22119, Note_on_c, 0, 59, 0
1, 22121, Note_on_c, 0, 44, 0
1, 22133, Note_on_c, 0, 58, 64
1, 22133, Note_on_c, 0, 43, 40
1, 22136, Control_c, 0, 64, 0
1, 22148, Note_on_c, 0, 53, 2
1, 22156, Control_c, 0, 64, 127
1, 22172, Note_on_c, 0, 43, 0
1, 22182, Note_on_c, 0, 53, 0
1, 22182, Note_on_c, 0, 58, 0
1, 22260, Note_on_c, 0, 62, 55
1, 22261, Note_on_c, 0, 58, 47
1, 22266, Note_on_c, 0, 62, 0
1, 22268, Control_c, 0, 64, 0
1, 22273, Note_on_c, 0, 58, 0
1, 22343, Control_c, 0, 64, 127
1, 22385, Note_on_c, 0, 24, 37
1, 22390, Control_c, 0, 64, 0
1, 22394, Control_c, 0, 64, 127
1, 22401, Note_on_c, 0, 24, 0
1, 22509, Note_on_c, 0, 68, 68
1, 22509, Note_on_c, 0, 74, 66
1, 22510, Control_c, 0, 64, 0
1, 22510, Note_on_c, 0, 70, 53
1, 22510, Note_on_c, 0, 64, 71
1, 22511, Note_on_c, 0, 58, 55
1, 22512, Control_c, 0, 64, 127
1, 22537, Note_on_c, 0, 74, 0
1, 22557, Note_on_c, 0, 75, 79
1, 22565, Note_on_c, 0, 70, 0
1, 22574, Note_on_c, 0, 58, 0
1, 22579, Note_on_c, 0, 64, 0
1, 22597, Note_on_c, 0, 75, 0
1, 22598, Note_on_c, 0, 68, 0
1, 22630, Note_on_c, 0, 61, 32
1, 22630, Note_on_c, 0, 65, 36
1, 22631, Note_on_c, 0, 72, 55
1, 22632, Note_on_c, 0, 55, 34
1, 22632, Control_c, 0, 64, 0
1, 22632, Note_on_c, 0, 69, 38
1, 22651, Control_c, 0, 64, 127
1, 22692, Note_on_c, 0, 65, 0
1, 22694, Note_on_c, 0, 61, 0
1, 22744, Note_on_c, 0, 69, 0
1, 22748, Note_on_c, 0, 72, 0
1, 22751, Note_on_c, 0, 61, 36
1, 22752, Note_on_c, 0, 65, 38
1, 22799, Note_on_c, 0, 89, 77
1, 22804, Note_on_c, 0, 82, 68
1, 22811, Note_on_c, 0, 65, 0
1, 22825, Note_on_c, 0, 89, 0
1, 22826, Note_on_c, 0, 55, 0
1, 22829, Note_on_c, 0, 82, 0
1, 22830, Note_on_c, 0, 61, 0
1, 22833, Note_on_c, 0, 86, 46
1, 22838, Note_on_c, 0, 77, 40
1, 22839, Note_on_c, 0, 82, 21
1, 22875, Note_on_c, 0, 86, 0
1, 22876, Note_on_c, 0, 65, 39
1, 22877, Control_c, 0, 64, 0
1, 22878, Note_on_c, 0, 54, 25
1, 22879, Note_on_c, 0, 60, 40
1, 22885, Note_on_c, 0, 82, 0
1, 22886, Control_c, 0, 64, 127
1, 22898, Note_on_c, 0, 77, 0
1, 22925, Note_on_c, 0, 77, 62
1, 22928, Note_on_c, 0, 70, 37
1, 22930, Note_on_c, 0, 65, 0
1, 22949, Note_on_c, 0, 77, 0
1, 22949, Note_on_c, 0, 60, 0
1, 22949, Note_on_c, 0, 70, 0
1, 22959, Note_on_c, 0, 70, 33
1, 22960, Note_on_c, 0, 74, 44
1, 22963, Note_on_c, 0, 65, 49
1, 23002, Control_c, 0, 64, 0
1, 23007, Note_on_c, 0, 60, 39
1, 23008, Control_c, 0, 64, 127
1, 23059, Note_on_c, 0, 54, 0
1, 23075, Note_on_c, 0, 65, 0
1, 23084, Note_on_c, 0, 70, 0
1, 23085, Note_on_c, 0, 74, 0
1, 23086, Note_on_c, 0, 54, 43
1, 23106, Note_on_c, 0, 60, 0
1, 23120, Note_on_c, 0, 54, 0
1, 23133, Note_on_c, 0, 53, 48
1, 23136, Note_on_c, 0, 64, 60
1, 23137, Note_on_c, 0, 59, 60
1, 23139, Note_on_c, 0, 75, 62
1, 23139, Note_on_c, 0, 82, 60
1, 23140, Note_on_c, 0, 70, 55
1, 23141, Note_on_c, 0, 79, 51
1, 23143, Control_c, 0, 64, 0
1, 23169, Control_c, 0, 64, 127
1, 23183, Note_on_c, 0, 64, 0
1, 23188, Note_on_c, 0, 59, 0
1, 23196, Note_on_c, 0, 79, 0
1, 23197, Note_on_c, 0, 53, 0
1, 23197, Note_on_c, 0, 82, 0
1, 23202, Note_on_c, 0, 75, 0
1, 23207, Note_on_c, 0, 70, 0
1, 23265, Note_on_c, 0, 67, 48
1, 23268, Note_on_c, 0, 63, 42
1, 23269, Note_on_c, 0, 43, 34
1, 23271, Control_c, 0, 64, 0
1, 23272, Note_on_c, 0, 53, 17
1, 23281, Note_on_c, 0, 58, 8
1, 23286, Control_c, 0, 64, 127
1, 23303, Note_on_c, 0, 53, 0
1, 23303, Note_on_c, 0, 43, 0
1, 23322, Note_on_c, 0, 67, 0
1, 23336, Note_on_c, 0, 58, 0
1, 23346, Note_on_c, 0, 63, 0
1, 23387, Note_on_c, 0, 36, 33
1, 23388, Control_c, 0, 64, 0
1, 23389, Note_on_c, 0, 66, 36
1, 23389, Note_on_c, 0, 62, 38
1, 23391, Note_on_c, 0, 57, 31
1, 23394, Note_on_c, 0, 52, 33
1, 23413, Control_c, 0, 64, 127
1, 23431, Note_on_c, 0, 36, 0
1, 23446, Note_on_c, 0, 57, 0
1, 23450, Note_on_c, 0, 52, 0
1, 23470, Note_on_c, 0, 62, 0
1, 23472, Note_on_c, 0, 66, 0
1, 23513, Note_on_c, 0, 67, 44
1, 23513, Note_on_c, 0, 62, 54
1, 23514, Note_on_c, 0, 58, 33
1, 23517, Note_on_c, 0, 64, 46
1, 23518, Note_on_c, 0, 57, 34
1, 23519, Control_c, 0, 64, 0
1, 23537, Control_c, 0, 64, 127
1, 23560, Note_on_c, 0, 57, 0
1, 23574, Note_on_c, 0, 58, 0
1, 23574, Note_on_c, 0, 62, 0
1, 23576, Note_on_c, 0, 67, 0
1, 23579, Note_on_c, 0, 64, 0
1, 23597, Note_on_c, 0, 48, 36
1, 23638, Note_on_c, 0, 41, 22
1, 23640, Control_c, 0, 64, 0
1, 23641, Note_on_c, 0, 60, 34
1, 23642, Note_on_c, 0, 64, 37
1, 23643, Note_on_c, 0, 69, 41
1, 23645, Note_on_c, 0, 57, 30
1, 23662, Control_c, 0, 64, 127
1, 23663, Note_on_c, 0, 60, 0
1, 23672, Note_on_c, 0, 64, 0
1, 23672, Note_on_c, 0, 41, 0
1, 23675, Note_on_c, 0, 69, 0
1, 23676, Note_on_c, 0, 48, 0
1, 23687, Note_on_c, 0, 57, 0
1, 23719, Note_on_c, 0, 84, 64
1, 23735, Note_on_c, 0, 84, 0
1, 23762, Note_on_c, 0, 84, 81
1, 23767, Note_on_c, 0, 67, 46
1, 23775, Note_on_c, 0, 67, 0
1, 23782, Note_on_c, 0, 84, 0
1, 23800, Note_on_c, 0, 84, 64
1, 23819, Note_on_c, 0, 84, 0
1, 23835, Note_on_c, 0, 72, 48
1, 23850, Note_on_c, 0, 72, 0
1, 23870, Note_on_c, 0, 72, 54
1, 23893, Note_on_c, 0, 72, 0
1, 23906, Note_on_c, 0, 84, 74
1, 23922, Note_on_c, 0, 84, 0
1, 23942, Note_on_c, 0, 84, 83
1, 23959, Note_on_c, 0, 84, 0
1, 23976, Note_on_c, 0, 68, 61
1, 23977, Note_on_c, 0, 63, 52
1, 23978, Control_c, 0, 64, 0
1, 23979, Note_on_c, 0, 57, 46
1, 23979, Note_on_c, 0, 84, 88
1, 23980, Note_on_c, 0, 61, 39
1, 23999, Note_on_c, 0, 84, 0
1, 24004, Control_c, 0, 64, 127
1, 24015, Note_on_c, 0, 84, 62
1, 24037, Note_on_c, 0, 84, 0
1, 24044, Note_on_c, 0, 68, 0
1, 24051, Note_on_c, 0, 57, 0
1, 24052, Note_on_c, 0, 72, 50
1, 24063, Note_on_c, 0, 63, 0
1, 24068, Note_on_c, 0, 72, 0
1, 24093, Note_on_c, 0, 72, 50
1, 24103, Note_on_c, 0, 61, 0
1, 24109, Note_on_c, 0, 72, 0
1, 24131, Note_on_c, 0, 82, 54
1, 24135, Note_on_c, 0, 67, 41
1, 24135, Note_on_c, 0, 62, 40
1, 24135, Note_on_c, 0, 56, 35
1, 24137, Note_on_c, 0, 70, 42
1, 24140, Control_c, 0, 64, 0
1, 24152, Note_on_c, 0, 82, 0
1, 24163, Control_c, 0, 64, 127
1, 24169, Note_on_c, 0, 82, 58
1, 24177, Note_on_c, 0, 67, 0
1, 24182, Note_on_c, 0, 62, 0
1, 24186, Note_on_c, 0, 70, 0
1, 24190, Note_on_c, 0, 82, 0
1, 24190, Note_on_c, 0, 56, 0
1, 24211, Note_on_c, 0, 84, 66
1, 24212, Note_on_c, 0, 72, 57
1, 24228, Note_on_c, 0, 84, 0
1, 24230, Note_on_c, 0, 72, 0
1, 24249, Note_on_c, 0, 82, 54
1, 24253, Note_on_c, 0, 70, 31
1, 24258, Note_on_c, 0, 70, 0
1, 24265, Note_on_c, 0, 82, 0
1, 24289, Note_on_c, 0, 46, 37
1, 24316, Note_on_c, 0, 46, 0
1, 24328, Control_c, 0, 64, 0
1, 24331, Note_on_c, 0, 85, 60
1, 24332, Note_on_c, 0, 73, 35
1, 24333, Note_on_c, 0, 45, 58
1, 24343, Control_c, 0, 64, 127
1, 24351, Note_on_c, 0, 45, 0
1, 24370, Note_on_c, 0, 85, 0
1, 24380, Note_on_c, 0, 73, 0
1, 24459, Note_on_c, 0, 81, 43
1, 24461, Note_on_c, 0, 76, 37
1, 24462, Note_on_c, 0, 69, 24
1, 24462, Note_on_c, 0, 73, 26
1, 24466, Note_on_c, 0, 61, 18
1, 24466, Note_on_c, 0, 58, 28
1, 24492, Note_on_c, 0, 81, 0
1, 24516, Note_on_c, 0, 76, 0
1, 24516, Note_on_c, 0, 69, 0
1, 24517, Note_on_c, 0, 61, 0
1, 24518, Note_on_c, 0, 58, 0
1, 24520, Note_on_c, 0, 73, 0
1, 24541, Note_on_c, 0, 79, 68
1, 24541, Note_on_c, 0, 73, 55
1, 24541, Note_on_c, 0, 76, 68
1, 24543, Control_c, 0, 64, 0
1, 24543, Note_on_c, 0, 69, 73
1, 24544, Note_on_c, 0, 64, 68
1, 24550, Control_c, 0, 64, 127
1, 24597, Note_on_c, 0, 79, 0
1, 24601, Note_on_c, 0, 69, 0
1, 24601, Note_on_c, 0, 64, 0
1, 24601, Note_on_c, 0, 76, 0
1, 24606, Note_on_c, 0, 73, 0
1, 24621, Note_on_c, 0, 77, 58
1, 24623, Note_on_c, 0, 69, 55
1, 24624, Note_on_c, 0, 62, 47
1, 24625, Note_on_c, 0, 72, 62
1, 24631, Control_c, 0, 64, 0
1, 24642, Control_c, 0, 64, 127
1, 24666, Note_on_c, 0, 72, 0
1, 24671, Note_on_c, 0, 77, 0
1, 24671, Note_on_c, 0, 69, 0
1, 24701, Note_on_c, 0, 62, 0
1, 24704, Note_on_c, 0, 76, 49
1, 24706, Note_on_c, 0, 69, 53
1, 24706, Note_on_c, 0, 65, 41
1, 24707, Note_on_c, 0, 61, 39
1, 24708, Control_c, 0, 64, 0
1, 24738, Control_c, 0, 64, 127
1, 24747, Note_on_c, 0, 69, 0
1, 24750, Note_on_c, 0, 65, 0
1, 24762, Note_on_c, 0, 76, 0
1, 24780, Note_on_c, 0, 65, 49
1, 24782, Note_on_c, 0, 61, 0
1, 24782, Note_on_c, 0, 69, 53
1, 24783, Note_on_c, 0, 74, 35
1, 24785, Note_on_c, 0, 60, 32
1, 24790, Control_c, 0, 64, 0
1, 24811, Control_c, 0, 64, 127
1, 24847, Note_on_c, 0, 60, 0
1, 24867, Note_on_c, 0, 74, 0
1, 24870, Note_on_c, 0, 69, 0
1, 24874, Note_on_c, 0, 65, 0
1, 24943, Note_on_c, 0, 48, 36
1, 24944, Control_c, 0, 64, 0
1, 24944, Note_on_c, 0, 57, 31
1, 24944, Note_on_c, 0, 65, 49
1, 24946, Note_on_c, 0, 60, 26
1, 24961, Control_c, 0, 64, 127
1, 24993, Note_on_c, 0, 65, 0
1, 24994, Note_on_c, 0, 57, 0
1, 24996, Note_on_c, 0, 48, 0
1, 25005, Note_on_c, 0, 60, 0
1, 25067, Note_on_c, 0, 61, 42
1, 25068, Note_on_c, 0, 58, 33
1, 25069, Control_c, 0, 64, 0
1, 25070, Note_on_c, 0, 46, 37
1, 25083, Control_c, 0, 64, 127
1, 25126, Note_on_c, 0, 58, 0
1, 25127, Note_on_c, 0, 61, 0
1, 25147, Note_on_c, 0, 53, 64
1, 25148, Note_on_c, 0, 58, 74
1, 25149, Note_on_c, 0, 65, 78
1, 25149, Note_on_c, 0, 61, 68
1, 25182, Note_on_c, 0, 53, 0
1, 25185, Note_on_c, 0, 61, 0
1, 25187, Note_on_c, 0, 58, 0
1, 25194, Note_on_c, 0, 65, 0
1, 25197, Note_on_c, 0, 67, 70
1, 25198, Note_on_c, 0, 55, 64
1, 25198, Note_on_c, 0, 61, 57
1, 25199, Note_on_c, 0, 58, 62
1, 25203, Control_c, 0, 64, 0
1, 25225, Control_c, 0, 64, 127
1, 25255, Note_on_c, 0, 55, 0
1, 25256, Note_on_c, 0, 58, 0
1, 25261, Note_on_c, 0, 67, 0
1, 25262, Note_on_c, 0, 61, 0
1, 25277, Note_on_c, 0, 58, 47
1, 25278, Note_on_c, 0, 61, 37
1, 25279, Note_on_c, 0, 65, 53
1, 25287, Note_on_c, 0, 46, 0
1, 25291, Note_on_c, 0, 65, 0
1, 25299, Note_on_c, 0, 61, 0
1, 25301, Note_on_c, 0, 58, 0
1, 25317, Note_on_c, 0, 46, 21
1, 25324, Note_on_c, 0, 47, 45
1, 25325, Note_on_c, 0, 58, 46
1, 25326, Note_on_c, 0, 46, 0
1, 25326, Note_on_c, 0, 61, 46
1, 25327, Note_on_c, 0, 68, 46
1, 25327, Note_on_c, 0, 64, 55
1, 25328, Note_on_c, 0, 48, 61
1, 25333, Control_c, 0, 64, 0
1, 25338, Note_on_c, 0, 47, 0
1, 25361, Note_on_c, 0, 68, 0
1, 25363, Note_on_c, 0, 48, 0
1, 25364, Note_on_c, 0, 61, 0
1, 25364, Note_on_c, 0, 64, 0
1, 25366, Note_on_c, 0, 58, 0
1, 25415, Note_on_c, 0, 36, 30
1, 25424, Note_on_c, 0, 36, 0
1, 25431, Control_c, 0, 64, 127
1, 25459, Control_c, 0, 64, 0
1, 25460, Note_on_c, 0, 47, 40
1, 25461, Note_on_c, 0, 48, 39
1, 25462, Note_on_c, 0, 58, 34
1, 25462, Note_on_c, 0, 68, 36
1, 25463, Note_on_c, 0, 61, 37
1, 25465, Note_on_c, 0, 64, 46
1, 25472, Note_on_c, 0, 47, 0
1, 25482, Control_c, 0, 64, 127
1, 25523, Note_on_c, 0, 48, 0
1, 25535, Note_on_c, 0, 68, 0
1, 25535, Note_on_c, 0, 64, 0
1, 25543, Note_on_c, 0, 39, 37
1, 25551, Note_on_c, 0, 58, 0
1, 25551, Note_on_c, 0, 61, 0
1, 25574, Note_on_c, 0, 39, 0
1, 25587, Control_c, 0, 64, 0
1, 25590, Note_on_c, 0, 54, 37
1, 25592, Note_on_c, 0, 60, 45
1, 25593, Note_on_c, 0, 38, 45
1, 25594, Note_on_c, 0, 65, 35
1, 25619, Control_c, 0, 64, 127
1, 25624, Note_on_c, 0, 54, 0
1, 25631, Note_on_c, 0, 65, 0
1, 25635, Note_on_c, 0, 60, 0
1, 25646, Note_on_c, 0, 38, 0
1, 25722, Note_on_c, 0, 65, 62
1, 25725, Note_on_c, 0, 60, 39
1, 25725, Note_on_c, 0, 58, 35
1, 25726, Note_on_c, 0, 54, 34
1, 25772, Note_on_c, 0, 72, 113
1, 25792, Note_on_c, 0, 72, 0
1, 25814, Note_on_c, 0, 77, 92
1, 25843, Note_on_c, 0, 77, 0
1, 25862, Note_on_c, 0, 77, 82
1, 25885, Note_on_c, 0, 77, 0
1, 25885, Note_on_c, 0, 65, 0
1, 25887, Note_on_c, 0, 60, 0
1, 25908, Note_on_c, 0, 58, 0
1, 25909, Note_on_c, 0, 54, 0
1, 26063, Note_on_c, 0, 80, 57
1, 26064, Note_on_c, 0, 75, 58
1, 26065, Note_on_c, 0, 68, 49
1, 26066, Note_on_c, 0, 60, 29
1, 26066, Note_on_c, 0, 54, 32
1, 26082, Note_on_c, 0, 60, 0
1, 26087, Note_on_c, 0, 75, 0
1, 26087, Note_on_c, 0, 80, 0
1, 26097, Note_on_c, 0, 68, 0
1, 26100, Note_on_c, 0, 54, 0
1, 26114, Control_c, 0, 64, 0
1, 26115, Note_on_c, 0, 75, 45
1, 26115, Note_on_c, 0, 64, 36
1, 26115, Note_on_c, 0, 79, 47
1, 26116, Note_on_c, 0, 67, 36
1, 26117, Note_on_c, 0, 53, 34
1, 26118, Note_on_c, 0, 59, 40
1, 26127, Control_c, 0, 64, 127
1, 26139, Note_on_c, 0, 79, 0
1, 26144, Note_on_c, 0, 75, 0
1, 26145, Note_on_c, 0, 64, 0
1, 26148, Note_on_c, 0, 59, 0
1, 26151, Note_on_c, 0, 67, 0
1, 26157, Note_on_c, 0, 53, 0
1, 26204, Note_on_c, 0, 56, 59
1, 26204, Note_on_c, 0, 63, 47
1, 26204, Note_on_c, 0, 65, 68
1, 26250, Note_on_c, 0, 49, 50
1, 26250, Note_on_c, 0, 59, 1
1, 26253, Control_c, 0, 64, 0
1, 26270, Control_c, 0, 64, 127
1, 26275, Note_on_c, 0, 49, 0
1, 26284, Note_on_c, 0, 65, 0
1, 26295, Note_on_c, 0, 67, 54
1, 26314, Note_on_c, 0, 67, 0
1, 26314, Note_on_c, 0, 59, 0
1, 26317, Note_on_c, 0, 63, 0
1, 26318, Note_on_c, 0, 56, 0
1, 26333, Note_on_c, 0, 65, 56
1, 26339, Note_on_c, 0, 65, 0
1, 26372, Note_on_c, 0, 36, 31
1, 26373, Note_on_c, 0, 72, 65
1, 26377, Control_c, 0, 64, 0
1, 26377, Note_on_c, 0, 52, 38
1, 26407, Note_on_c, 0, 36, 0
1, 26407, Control_c, 0, 64, 127
1, 26424, Note_on_c, 0, 52, 0
1, 26480, Note_on_c, 0, 72, 0
1, 26504, Note_on_c, 0, 72, 55
1, 26506, Note_on_c, 0, 64, 44
1, 26506, Note_on_c, 0, 68, 39
1, 26507, Note_on_c, 0, 58, 30
1, 26513, Control_c, 0, 64, 0
1, 26535, Control_c, 0, 64, 127
1, 26591, Note_on_c, 0, 64, 0
1, 26600, Note_on_c, 0, 72, 0
1, 26607, Note_on_c, 0, 68, 0
1, 26630, Note_on_c, 0, 58, 0
1, 26631, Control_c, 0, 64, 0
1, 26631, Note_on_c, 0, 62, 52
1, 26631, Note_on_c, 0, 72, 38
1, 26632, Note_on_c, 0, 67, 42
1, 26635, Note_on_c, 0, 57, 30
1, 26638, Note_on_c, 0, 67, 0
1, 26638, Note_on_c, 0, 72, 0
1, 26641, Note_on_c, 0, 57, 0
1, 26644, Note_on_c, 0, 62, 0
1, 26675, Note_on_c, 0, 57, 60
1, 26679, Note_on_c, 0, 41, 16
1, 26681, Note_on_c, 0, 65, 40
1, 26682, Note_on_c, 0, 48, 35
1, 26708, Note_on_c, 0, 57, 0
1, 26709, Note_on_c, 0, 58, 64
1, 26713, Note_on_c, 0, 49, 49
1, 26721, Note_on_c, 0, 48, 0
1, 26736, Note_on_c, 0, 49, 0
1, 26740, Note_on_c, 0, 58, 0
1, 26746, Note_on_c, 0, 41, 0
1, 26750, Note_on_c, 0, 59, 40
1, 26752, Note_on_c, 0, 50, 28
1, 26781, Note_on_c, 0, 59, 0
1, 26783, Note_on_c, 0, 51, 39
1, 26787, Note_on_c, 0, 60, 43
1, 26791, Note_on_c, 0, 50, 0
1, 26811, Note_on_c, 0, 65, 0
1, 26812, Note_on_c, 0, 60, 0
1, 26814, Note_on_c, 0, 51, 0
1, 26823, Note_on_c, 0, 61, 50
1, 26826, Note_on_c, 0, 52, 38
1, 26856, Note_on_c, 0, 61, 0
1, 26861, Note_on_c, 0, 52, 0
1, 26862, Note_on_c, 0, 62, 62
1, 26863, Note_on_c, 0, 53, 50
1, 26895, Note_on_c, 0, 53, 0
1, 26896, Note_on_c, 0, 62, 0
1, 26900, Note_on_c, 0, 61, 46
1, 26901, Note_on_c, 0, 52, 38
1, 26928, Note_on_c, 0, 61, 0
1, 26939, Note_on_c, 0, 52, 0
1, 26939, Note_on_c, 0, 60, 40
1, 26939, Note_on_c, 0, 51, 38
1, 26971, Note_on_c, 0, 51, 0
1, 26975, Note_on_c, 0, 60, 0
1, 26977, Note_on_c, 0, 50, 35
1, 26979, Note_on_c, 0, 59, 33
1, 27008, Note_on_c, 0, 59, 0
1, 27008, Note_on_c, 0, 50, 0
1, 27016, Note_on_c, 0, 58, 34
1, 27019, Note_on_c, 0, 49, 25
1, 27047, Note_on_c, 0, 49, 0
1, 27049, Note_on_c, 0, 58, 0
1, 27053, Note_on_c, 0, 57, 48
1, 27055, Note_on_c, 0, 48, 31
1, 27067, Control_c, 0, 64, 127
1, 27076, Note_on_c, 0, 57, 0
1, 27080, Control_c, 0, 64, 0
1, 27087, Note_on_c, 0, 48, 0
1, 27123, Note_on_c, 0, 41, 53
1, 27125, Control_c, 0, 64, 127
1, 27137, Note_on_c, 0, 41, 0
1, 27201, Note_on_c, 0, 74, 58
1, 27203, Note_on_c, 0, 67, 54
1, 27203, Note_on_c, 0, 63, 50
1, 27206, Note_on_c, 0, 62, 51
1, 27207, Note_on_c, 0, 70, 35
1, 27225, Note_on_c, 0, 70, 0
1, 27229, Note_on_c, 0, 74, 0
1, 27229, Note_on_c, 0, 62, 0
1, 27230, Note_on_c, 0, 67, 0
1, 27234, Note_on_c, 0, 63, 0
1, 27240, Note_on_c, 0, 72, 55
1, 27249, Note_on_c, 0, 72, 0
1, 27282, Note_on_c, 0, 77, 57
1, 27283, Note_on_c, 0, 72, 59
1, 27286, Note_on_c, 0, 57, 41
1, 27287, Note_on_c, 0, 63, 38
1, 27288, Control_c, 0, 64, 0
1, 27288, Note_on_c, 0, 67, 32
1, 27319, Control_c, 0, 64, 127
1, 27379, Note_on_c, 0, 67, 0
1, 27382, Note_on_c, 0, 63, 0
1, 27384, Note_on_c, 0, 72, 0
1, 27392, Note_on_c, 0, 77, 0
1, 27434, Note_on_c, 0, 63, 33
1, 27436, Note_on_c, 0, 67, 24
1, 27467, Note_on_c, 0, 67, 0
1, 27513, Note_on_c, 0, 63, 0
1, 27518, Note_on_c, 0, 89, 90
1, 27528, Note_on_c, 0, 57, 0
1, 27552, Note_on_c, 0, 89, 0
1, 27558, Note_on_c, 0, 65, 33
1, 27560, Note_on_c, 0, 86, 58
1, 27562, Note_on_c, 0, 60, 36
1, 27562, Note_on_c, 0, 62, 24
1, 27563, Control_c, 0, 64, 0
1, 27584, Control_c, 0, 64, 127
1, 27588, Note_on_c, 0, 65, 0
1, 27651, Note_on_c, 0, 86, 0
1, 27686, Note_on_c, 0, 53, 26
1, 27721, Note_on_c, 0, 53, 0
1, 27725, Note_on_c, 0, 62, 0
1, 27745, Note_on_c, 0, 60, 0
1, 27772, Note_on_c, 0, 74, 34
1, 27783, Note_on_c, 0, 74, 0
1, 27810, Note_on_c, 0, 87, 62
1, 27813, Note_on_c, 0, 75, 62
1, 27814, Note_on_c, 0, 57, 41
1, 27815, Note_on_c, 0, 62, 35
1, 27816, Note_on_c, 0, 65, 43
1, 27817, Control_c, 0, 64, 0
1, 27832, Note_on_c, 0, 87, 0
1, 27838, Note_on_c, 0, 75, 0
1, 27840, Note_on_c, 0, 76, 46
1, 27858, Control_c, 0, 64, 127
1, 27861, Note_on_c, 0, 76, 0
1, 27862, Note_on_c, 0, 88, 41
1, 27875, Note_on_c, 0, 88, 0
1, 27880, Note_on_c, 0, 76, 39
1, 27893, Note_on_c, 0, 57, 0
1, 27898, Note_on_c, 0, 62, 0
1, 27899, Note_on_c, 0, 65, 0
1, 27899, Note_on_c, 0, 76, 0
1, 27899, Note_on_c, 0, 88, 35
1, 27915, Note_on_c, 0, 88, 0
1, 27915, Note_on_c, 0, 76, 33
1, 27934, Note_on_c, 0, 88, 30
1, 27936, Note_on_c, 0, 76, 0
1, 27942, Note_on_c, 0, 62, 37
1, 27943, Control_c, 0, 64, 0
1, 27943, Note_on_c, 0, 67, 32
1, 27945, Note_on_c, 0, 56, 30
1, 27950, Note_on_c, 0, 88, 0
1, 27952, Note_on_c, 0, 76, 28
1, 27967, Control_c, 0, 64, 127
1, 27971, Note_on_c, 0, 67, 0
1, 27974, Note_on_c, 0, 62, 0
1, 27976, Note_on_c, 0, 88, 35
1, 27987, Note_on_c, 0, 56, 0
1, 27994, Note_on_c, 0, 76, 0
1, 27995, Note_on_c, 0, 88, 0
1, 28022, Note_on_c, 0, 86, 54
1, 28024, Note_on_c, 0, 74, 47
1, 28052, Note_on_c, 0, 86, 0
1, 28054, Note_on_c, 0, 74, 0
1, 28065, Note_on_c, 0, 52, 39
1, 28066, Note_on_c, 0, 85, 56
1, 28067, Control_c, 0, 64, 0
1, 28068, Note_on_c, 0, 45, 37
1, 28088, Control_c, 0, 64, 127
1, 28101, Note_on_c, 0, 45, 0
1, 28108, Note_on_c, 0, 52, 0
1, 28142, Note_on_c, 0, 85, 0
1, 28191, Note_on_c, 0, 64, 34
1, 28191, Note_on_c, 0, 61, 32
1, 28194, Note_on_c, 0, 54, 27
1, 28195, Note_on_c, 0, 59, 31
1, 28246, Note_on_c, 0, 59, 0
1, 28252, Note_on_c, 0, 54, 0
1, 28254, Note_on_c, 0, 61, 0
1, 28258, Note_on_c, 0, 64, 0
1, 28281, Note_on_c, 0, 75, 88
1, 28302, Note_on_c, 0, 75, 0
1, 28320, Note_on_c, 0, 75, 80
1, 28326, Note_on_c, 0, 63, 46
1, 28327, Note_on_c, 0, 72, 67
1, 28327, Note_on_c, 0, 61, 39
1, 28328, Note_on_c, 0, 68, 64
1, 28328, Note_on_c, 0, 65, 62
1, 28332, Control_c, 0, 64, 0
1, 28345, Control_c, 0, 64, 127
1, 28352, Note_on_c, 0, 75, 0
1, 28368, Note_on_c, 0, 75, 71
1, 28391, Note_on_c, 0, 75, 0
1, 28402, Note_on_c, 0, 65, 0
1, 28409, Note_on_c, 0, 75, 63
1, 28410, Note_on_c, 0, 63, 0
1, 28411, Note_on_c, 0, 61, 0
1, 28416, Note_on_c, 0, 72, 0
1, 28422, Note_on_c, 0, 68, 0
1, 28439, Note_on_c, 0, 75, 0
1, 28454, Note_on_c, 0, 77, 67
1, 28455, Note_on_c, 0, 71, 63
1, 28457, Note_on_c, 0, 55, 52
1, 28457, Note_on_c, 0, 73, 37
1, 28458, Note_on_c, 0, 66, 45
1, 28459, Note_on_c, 0, 61, 38
1, 28460, Control_c, 0, 64, 0
1, 28487, Control_c, 0, 64, 127
1, 28489, Note_on_c, 0, 77, 0
1, 28498, Note_on_c, 0, 77, 55
1, 28501, Note_on_c, 0, 66, 0
1, 28503, Note_on_c, 0, 55, 0
1, 28509, Note_on_c, 0, 61, 0
1, 28520, Note_on_c, 0, 77, 0
1, 28522, Note_on_c, 0, 71, 0
1, 28525, Note_on_c, 0, 73, 0
1, 28538, Note_on_c, 0, 75, 71
1, 28580, Note_on_c, 0, 51, 39
1, 28581, Note_on_c, 0, 67, 40
1, 28582, Note_on_c, 0, 72, 56
1, 28582, Control_c, 0, 64, 0
1, 28584, Note_on_c, 0, 44, 33
1, 28605, Control_c, 0, 64, 127
1, 28612, Note_on_c, 0, 44, 0
1, 28618, Note_on_c, 0, 51, 0
1, 28655, Note_on_c, 0, 67, 0
1, 28671, Note_on_c, 0, 75, 0
1, 28677, Note_on_c, 0, 72, 0
1, 28705, Note_on_c, 0, 63, 32
1, 28711, Note_on_c, 0, 58, 27
1, 28711, Note_on_c, 0, 60, 32
1, 28748, Note_on_c, 0, 86, 89
1, 28754, Note_on_c, 0, 63, 0
1, 28761, Note_on_c, 0, 60, 0
1, 28763, Note_on_c, 0, 86, 0
1, 28770, Control_c, 0, 64, 0
1, 28774, Note_on_c, 0, 58, 0
1, 28774, Note_on_c, 0, 84, 54
1, 28785, Note_on_c, 0, 84, 0
1, 28791, Note_on_c, 0, 79, 45
1, 28805, Note_on_c, 0, 79, 0
1, 28809, Note_on_c, 0, 75, 42
1, 28822, Note_on_c, 0, 75, 0
1, 28830, Note_on_c, 0, 74, 37
1, 28831, Control_c, 0, 64, 127
1, 28838, Control_c, 0, 64, 0
1, 28839, Note_on_c, 0, 74, 0
1, 28849, Note_on_c, 0, 72, 53
1, 28850, Note_on_c, 0, 63, 28
1, 28850, Note_on_c, 0, 55, 27
1, 28851, Note_on_c, 0, 60, 17
1, 28854, Note_on_c, 0, 57, 35
1, 28878, Control_c, 0, 64, 127
1, 28913, Note_on_c, 0, 55, 0
1, 28915, Note_on_c, 0, 57, 0
1, 28916, Note_on_c, 0, 60, 0
1, 28917, Note_on_c, 0, 63, 0
1, 28920, Note_on_c, 0, 74, 8
1, 28935, Note_on_c, 0, 74, 0
1, 28972, Control_c, 0, 64, 0
1, 28975, Note_on_c, 0, 65, 42
1, 28976, Note_on_c, 0, 54, 29
1, 28978, Note_on_c, 0, 60, 36
1, 28979, Note_on_c, 0, 58, 27
1, 28989, Control_c, 0, 64, 127
1, 29004, Note_on_c, 0, 65, 0
1, 29006, Note_on_c, 0, 60, 0
1, 29020, Note_on_c, 0, 58, 0
1, 29020, Note_on_c, 0, 54, 0
1, 29051, Note_on_c, 0, 72, 0
1, 29058, Note_on_c, 0, 69, 44
1, 29067, Note_on_c, 0, 69, 0
1, 29077, Note_on_c, 0, 74, 75
1, 29091, Note_on_c, 0, 74, 0
1, 29101, Note_on_c, 0, 71, 71
1, 29111, Note_on_c, 0, 54, 32
1, 29111, Note_on_c, 0, 43, 36
1, 29113, Note_on_c, 0, 50, 36
1, 29116, Note_on_c, 0, 71, 0
1, 29116, Control_c, 0, 64, 0
1, 29127, Note_on_c, 0, 66, 55
1, 29139, Note_on_c, 0, 66, 0
1, 29153, Note_on_c, 0, 62, 34
1, 29161, Note_on_c, 0, 62, 0
1, 29172, Note_on_c, 0, 66, 50
1, 29192, Note_on_c, 0, 66, 0
1, 29200, Note_on_c, 0, 66, 25
1, 29209, Note_on_c, 0, 54, 0
1, 29212, Control_c, 0, 64, 127
1, 29241, Note_on_c, 0, 54, 32
1, 29258, Note_on_c, 0, 54, 0
1, 29262, Note_on_c, 0, 50, 0
1, 29272, Note_on_c, 0, 59, 49
1, 29280, Note_on_c, 0, 59, 0
1, 29284, Note_on_c, 0, 66, 0
1, 29291, Control_c, 0, 64, 0
1, 29295, Note_on_c, 0, 62, 66
1, 29305, Note_on_c, 0, 62, 0
1, 29321, Note_on_c, 0, 64, 85
1, 29337, Control_c, 0, 64, 127
1, 29338, Note_on_c, 0, 64, 0
1, 29349, Note_on_c, 0, 62, 75
1, 29357, Note_on_c, 0, 43, 0
1, 29365, Note_on_c, 0, 62, 0
1, 29366, Note_on_c, 0, 50, 33
1, 29370, Control_c, 0, 64, 0
1, 29374, Note_on_c, 0, 59, 40
1, 29390, Note_on_c, 0, 59, 0
1, 29404, Note_on_c, 0, 54, 35
1, 29433, Control_c, 0, 64, 127
1, 29450, Note_on_c, 0, 50, 0
1, 29479, Note_on_c, 0, 54, 0
1, 29483, Note_on_c, 0, 50, 35
1, 29489, Note_on_c, 0, 43, 29
1, 29499, Control_c, 0, 64, 0
1, 29500, Control_c, 0, 64, 127
1, 29502, Control_c, 0, 64, 0
1, 29505, Note_on_c, 0, 50, 0
1, 29507, Control_c, 0, 64, 127
1, 29513, Note_on_c, 0, 52, 44
1, 29531, Note_on_c, 0, 52, 0
1, 29538, Note_on_c, 0, 54, 46
1, 29549, Note_on_c, 0, 54, 0
1, 29556, Note_on_c, 0, 55, 55
1, 29568, Note_on_c, 0, 55, 0
1, 29571, Note_on_c, 0, 56, 49
1, 29576, Note_on_c, 0, 43, 0
1, 29580, Note_on_c, 0, 56, 0
1, 29584, Note_on_c, 0, 57, 38
1, 29600, Note_on_c, 0, 57, 0
1, 29604, Note_on_c, 0, 60, 64
1, 29614, Control_c, 0, 64, 0
1, 29616, Note_on_c, 0, 43, 27
1, 29618, Note_on_c, 0, 60, 0
1, 29619, Note_on_c, 0, 57, 31
1, 29630, Note_on_c, 0, 57, 0
1, 29636, Note_on_c, 0, 58, 46
1, 29651, Control_c, 0, 64, 127
1, 29668, Note_on_c, 0, 43, 0
1, 29675, Note_on_c, 0, 58, 0
1, 29750, Note_on_c, 0, 62, 32
1, 29751, Note_on_c, 0, 58, 36
1, 29754, Note_on_c, 0, 57, 29
1, 29769, Note_on_c, 0, 62, 0
1, 29799, Note_on_c, 0, 62, 58
1, 29800, Note_on_c, 0, 57, 0
1, 29811, Note_on_c, 0, 62, 0
1, 29821, Note_on_c, 0, 58, 0
1, 29830, Note_on_c, 0, 65, 79
1, 29847, Note_on_c, 0, 65, 0
1, 29867, Note_on_c, 0, 70, 83
1, 29867, Note_on_c, 0, 63, 62
1, 29868, Note_on_c, 0, 58, 52
1, 29869, Note_on_c, 0, 52, 56
1, 29877, Control_c, 0, 64, 0
1, 29905, Control_c, 0, 64, 127
1, 29907, Note_on_c, 0, 70, 0
1, 29909, Note_on_c, 0, 72, 79
1, 29912, Note_on_c, 0, 70, 23
1, 29923, Note_on_c, 0, 63, 0
1, 29929, Note_on_c, 0, 52, 0
1, 29940, Note_on_c, 0, 58, 0
1, 29945, Note_on_c, 0, 72, 0
1, 29946, Note_on_c, 0, 70, 0
1, 29998, Note_on_c, 0, 69, 52
1, 30000, Note_on_c, 0, 58, 37
1, 30000, Note_on_c, 0, 61, 39
1, 30001, Note_on_c, 0, 64, 47
1, 30003, Note_on_c, 0, 57, 38
1, 30004, Control_c, 0, 64, 0
1, 30025, Control_c, 0, 64, 127
1, 30040, Note_on_c, 0, 57, 0
1, 30063, Note_on_c, 0, 69, 0
1, 30076, Note_on_c, 0, 64, 0
1, 30080, Note_on_c, 0, 58, 0
1, 30083, Note_on_c, 0, 67, 48
1, 30089, Note_on_c, 0, 61, 0
1, 30114, Note_on_c, 0, 67, 0
1, 30132, Note_on_c, 0, 48, 26
1, 30132, Note_on_c, 0, 69, 50
1, 30133, Note_on_c, 0, 41, 22
1, 30133, Note_on_c, 0, 64, 49
1, 30134, Control_c, 0, 64, 0
1, 30136, Note_on_c, 0, 57, 47
1, 30160, Control_c, 0, 64, 127
1, 30180, Note_on_c, 0, 41, 0
1, 30184, Note_on_c, 0, 48, 0
1, 30197, Note_on_c, 0, 57, 0
1, 30201, Note_on_c, 0, 64, 0
1, 30205, Note_on_c, 0, 69, 0
1, 30271, Note_on_c, 0, 60, 34
1, 30271, Note_on_c, 0, 57, 40
1, 30273, Note_on_c, 0, 65, 57
1, 30292, Note_on_c, 0, 65, 0
1, 30303, Note_on_c, 0, 69, 62
1, 30321, Note_on_c, 0, 69, 0
1, 30331, Note_on_c, 0, 72, 73
1, 30349, Note_on_c, 0, 57, 0
1, 30350, Note_on_c, 0, 72, 0
1, 30351, Note_on_c, 0, 60, 0
1, 30362, Note_on_c, 0, 73, 50
1, 30383, Note_on_c, 0, 73, 0
1, 30392, Note_on_c, 0, 74, 57
1, 30394, Note_on_c, 0, 65, 41
1, 30398, Note_on_c, 0, 60, 27
1, 30398, Note_on_c, 0, 54, 30
1, 30402, Control_c, 0, 64, 0
1, 30425, Note_on_c, 0, 74, 0
1, 30425, Note_on_c, 0, 77, 55
1, 30431, Control_c, 0, 64, 127
1, 30441, Note_on_c, 0, 65, 0
1, 30448, Note_on_c, 0, 60, 0
1, 30451, Note_on_c, 0, 77, 0
1, 30453, Note_on_c, 0, 82, 67
1, 30455, Note_on_c, 0, 54, 0
1, 30466, Note_on_c, 0, 82, 0
1, 30482, Note_on_c, 0, 86, 71
1, 30499, Note_on_c, 0, 86, 0
1, 30512, Note_on_c, 0, 89, 74
1, 30512, Note_on_c, 0, 60, 44
1, 30514, Control_c, 0, 64, 0
1, 30514, Note_on_c, 0, 54, 35
1, 30515, Note_on_c, 0, 50, 35
1, 30534, Control_c, 0, 64, 127
1, 30537, Note_on_c, 0, 89, 0
1, 30544, Note_on_c, 0, 94, 68
1, 30562, Note_on_c, 0, 94, 0
1, 30573, Note_on_c, 0, 50, 0
1, 30574, Note_on_c, 0, 96, 78
1, 30576, Note_on_c, 0, 54, 0
1, 30579, Note_on_c, 0, 60, 0
1, 30586, Note_on_c, 0, 96, 0
1, 30610, Note_on_c, 0, 98, 68
1, 30610, Note_on_c, 0, 54, 39
1, 30610, Note_on_c, 0, 65, 38
1, 30610, Note_on_c, 0, 60, 36
1, 30612, Note_on_c, 0, 97, 49
1, 30613, Note_on_c, 0, 86, 38
1, 30614, Note_on_c, 0, 98, 0
1, 30618, Note_on_c, 0, 65, 0
1, 30618, Note_on_c, 0, 88, 24
1, 30619, Note_on_c, 0, 86, 0
1, 30621, Note_on_c, 0, 97, 0
1, 30623, Note_on_c, 0, 88, 0
1, 30624, Note_on_c, 0, 60, 0
1, 30631, Note_on_c, 0, 54, 0
1, 30637, Note_on_c, 0, 99, 67
1, 30640, Note_on_c, 0, 64, 67
1, 30641, Note_on_c, 0, 87, 55
1, 30641, Note_on_c, 0, 59, 57
1, 30642, Note_on_c, 0, 53, 60
1, 30643, Note_on_c, 0, 93, 54
1, 30645, Control_c, 0, 64, 0
1, 30657, Note_on_c, 0, 100, 43
1, 30660, Note_on_c, 0, 87, 0
1, 30662, Note_on_c, 0, 99, 0
1, 30663, Note_on_c, 0, 88, 44
1, 30675, Control_c, 0, 64, 127
1, 30695, Note_on_c, 0, 53, 0
1, 30698, Note_on_c, 0, 88, 0
1, 30699, Note_on_c, 0, 93, 0
1, 30704, Note_on_c, 0, 100, 0
1, 30704, Note_on_c, 0, 64, 0
1, 30707, Note_on_c, 0, 59, 0
1, 30736, Note_on_c, 0, 100, 64
1, 30737, Note_on_c, 0, 88, 52
1, 30738, Note_on_c, 0, 93, 60
1, 30738, Note_on_c, 0, 64, 51
1, 30738, Note_on_c, 0, 59, 43
1, 30738, Note_on_c, 0, 53, 53
1, 30764, Note_on_c, 0, 53, 0
1, 30767, Note_on_c, 0, 88, 0
1, 30768, Note_on_c, 0, 64, 0
1, 30768, Note_on_c, 0, 93, 0
1, 30769, Note_on_c, 0, 100, 0
1, 30773, Note_on_c, 0, 59, 0
1, 30784, Note_on_c, 0, 100, 42
1, 30786, Note_on_c, 0, 64, 39
1, 30786, Note_on_c, 0, 59, 47
1, 30786, Note_on_c, 0, 53, 45
1, 30787, Note_on_c, 0, 88, 39
1, 30787, Note_on_c, 0, 93, 55
1, 30792, Control_c, 0, 64, 0
1, 30799, Control_c, 0, 64, 127
1, 30800, Note_on_c, 0, 88, 0
1, 30801, Note_on_c, 0, 93, 0
1, 30803, Note_on_c, 0, 53, 0
1, 30804, Note_on_c, 0, 64, 0
1, 30806, Note_on_c, 0, 100, 0
1, 30807, Note_on_c, 0, 59, 0
1, 30836, Control_c, 0, 64, 0
1, 30858, Control_c, 0, 64, 127
1, 30869, Note_on_c, 0, 100, 66
1, 30869, Note_on_c, 0, 64, 57
1, 30870, Note_on_c, 0, 88, 59
1, 30870, Note_on_c, 0, 59, 53
1, 30870, Note_on_c, 0, 53, 61
1, 30870, Note_on_c, 0, 93, 66
1, 30895, Note_on_c, 0, 93, 0
1, 30896, Note_on_c, 0, 88, 0
1, 30896, Note_on_c, 0, 53, 0
1, 30898, Note_on_c, 0, 100, 0
1, 30902, Note_on_c, 0, 64, 0
1, 30906, Note_on_c, 0, 59, 0
1, 30921, Note_on_c, 0, 100, 83
1, 30922, Note_on_c, 0, 93, 89
1, 30922, Note_on_c, 0, 88, 81
1, 30922, Note_on_c, 0, 59, 74
1, 30922, Note_on_c, 0, 53, 83
1, 30922, Note_on_c, 0, 64, 89
1, 30923, Control_c, 0, 64, 0
1, 30927, Control_c, 0, 64, 127
1, 30964, Note_on_c, 0, 100, 0
1, 30971, Note_on_c, 0, 53, 0
1, 30974, Note_on_c, 0, 88, 0
1, 30975, Note_on_c, 0, 93, 0
1, 30978, Note_on_c, 0, 64, 0
1, 30986, Note_on_c, 0, 59, 0
1, 30999, Note_on_c, 0, 59, 71
1, 30999, Note_on_c, 0, 99, 82
1, 31000, Note_on_c, 0, 87, 86
1, 31000, Note_on_c, 0, 53, 85
1, 31001, Note_on_c, 0, 64, 87
1, 31001, Note_on_c, 0, 93, 87
1, 31025, Note_on_c, 0, 53, 0
1, 31027, Note_on_c, 0, 64, 0
1, 31027, Note_on_c, 0, 93, 0
1, 31031, Note_on_c, 0, 99, 0
1, 31033, Note_on_c, 0, 87, 0
1, 31038, Note_on_c, 0, 59, 0
1, 31050, Note_on_c, 0, 59, 72
1, 31050, Note_on_c, 0, 93, 83
1, 31051, Note_on_c, 0, 98, 80
1, 31051, Note_on_c, 0, 64, 87
1, 31051, Note_on_c, 0, 53, 87
1, 31051, Note_on_c, 0, 86, 71
1, 31053, Note_on_c, 0, 97, 49
1, 31057, Note_on_c, 0, 97, 0
1, 31069, Note_on_c, 0, 98, 0
1, 31074, Note_on_c, 0, 93, 0
1, 31085, Note_on_c, 0, 86, 0
1, 31087, Note_on_c, 0, 64, 0
1, 31093, Note_on_c, 0, 59, 0
1, 31104, Note_on_c, 0, 53, 0
1, 31158, Note_on_c, 0, 51, 25
1, 31165, Note_on_c, 0, 51, 0
1, 31168, Note_on_c, 0, 53, 59
1, 31176, Note_on_c, 0, 54, 60
1, 31179, Note_on_c, 0, 53, 0
1, 31183, Note_on_c, 0, 55, 74
1, 31183, Note_on_c, 0, 58, 78
1, 31183, Note_on_c, 0, 67, 64
1, 31183, Note_on_c, 0, 62, 80
1, 31184, Note_on_c, 0, 65, 76
1, 31188, Control_c, 0, 64, 0
1, 31193, Note_on_c, 0, 54, 0
1, 31219, Control_c, 0, 64, 127
1, 31226, Note_on_c, 0, 55, 0
1, 31258, Note_on_c, 0, 62, 0
1, 31268, Note_on_c, 0, 58, 0
1, 31269, Note_on_c, 0, 65, 0
1, 31287, Note_on_c, 0, 67, 0
1, 31322, Note_on_c, 0, 63, 51
1, 31324, Note_on_c, 0, 59, 50
1, 31325, Note_on_c, 0, 37, 49
1, 31325, Note_on_c, 0, 44, 46
1, 31326, Note_on_c, 0, 67, 36
1, 31330, Control_c, 0, 64, 0
1, 31352, Control_c, 0, 64, 127
1, 31353, Note_on_c, 0, 37, 0
1, 31368, Note_on_c, 0, 44, 0
1, 31400, Note_on_c, 0, 59, 0
1, 31409, Note_on_c, 0, 63, 0
1, 31421, Note_on_c, 0, 67, 0
1, 31457, Note_on_c, 0, 43, 24
1, 31460, Control_c, 0, 64, 0
1, 31462, Note_on_c, 0, 58, 35
1, 31462, Note_on_c, 0, 36, 34
1, 31463, Note_on_c, 0, 52, 45
1, 31463, Note_on_c, 0, 62, 44
1, 31464, Note_on_c, 0, 67, 35
1, 31468, Note_on_c, 0, 64, 37
1, 31480, Control_c, 0, 64, 127
1, 31489, Note_on_c, 0, 36, 0
1, 31494, Note_on_c, 0, 43, 0
1, 31496, Note_on_c, 0, 58, 0
1, 31497, Note_on_c, 0, 62, 0
1, 31497, Note_on_c, 0, 64, 0
1, 31498, Note_on_c, 0, 67, 0
1, 31502, Note_on_c, 0, 52, 0
1, 31549, Note_on_c, 0, 68, 77
1, 31550, Note_on_c, 0, 72, 75
1, 31550, Note_on_c, 0, 64, 84
1, 31551, Note_on_c, 0, 56, 67
1, 31570, Note_on_c, 0, 72, 0
1, 31573, Note_on_c, 0, 68, 0
1, 31589, Note_on_c, 0, 64, 0
1, 31615, Note_on_c, 0, 75, 83
1, 31616, Note_on_c, 0, 68, 83
1, 31616, Note_on_c, 0, 72, 80
1, 31617, Note_on_c, 0, 63, 81
1, 31617, Note_on_c, 0, 64, 87
1, 31619, Control_c, 0, 64, 0
1, 31628, Note_on_c, 0, 56, 0
1, 31641, Control_c, 0, 64, 127
1, 31661, Note_on_c, 0, 72, 0
1, 31664, Note_on_c, 0, 75, 0
1, 31666, Note_on_c, 0, 64, 0
1, 31667, Note_on_c, 0, 68, 0
1, 31668, Note_on_c, 0, 63, 0
1, 31685, Note_on_c, 0, 68, 68
1, 31685, Note_on_c, 0, 73, 43
1, 31687, Note_on_c, 0, 64, 54
1, 31689, Note_on_c, 0, 58, 42
1, 31727, Note_on_c, 0, 73, 0
1, 31728, Note_on_c, 0, 64, 0
1, 31730, Note_on_c, 0, 68, 0
1, 31751, Note_on_c, 0, 58, 0
1, 31752, Note_on_c, 0, 67, 44
1, 31752, Note_on_c, 0, 62, 44
1, 31752, Note_on_c, 0, 72, 53
1, 31754, Control_c, 0, 64, 0
1, 31754, Note_on_c, 0, 57, 38
1, 31778, Control_c, 0, 64, 127
1, 31825, Note_on_c, 0, 48, 55
1, 31862, Note_on_c, 0, 67, 0
1, 31877, Note_on_c, 0, 62, 0
1, 31878, Note_on_c, 0, 48, 0
1, 31962, Note_on_c, 0, 48, 43
1, 31977, Note_on_c, 0, 57, 0
1, 31989, Note_on_c, 0, 72, 0
1, 32033, Note_on_c, 0, 72, 58
1, 32035, Note_on_c, 0, 66, 53
1, 32036, Note_on_c, 0, 57, 46
1, 32036, Note_on_c, 0, 63, 48
1, 32039, Note_on_c, 0, 51, 12
1, 32044, Control_c, 0, 64, 0
1, 32082, Note_on_c, 0, 48, 0
1, 32088, Control_c, 0, 64, 127
1, 32104, Note_on_c, 0, 48, 51
1, 32163, Note_on_c, 0, 48, 0
1, 32233, Note_on_c, 0, 47, 44
1, 32242, Note_on_c, 0, 63, 0
1, 32247, Note_on_c, 0, 47, 0
1, 32248, Note_on_c, 0, 57, 0
1, 32264, Note_on_c, 0, 66, 0
1, 32278, Note_on_c, 0, 72, 0
1, 32279, Note_on_c, 0, 51, 0
1, 32299, Note_on_c, 0, 62, 42
1, 32299, Note_on_c, 0, 65, 46
1, 32303, Control_c, 0, 64, 0
1, 32303, Note_on_c, 0, 56, 26
1, 32304, Note_on_c, 0, 46, 33
1, 32324, Control_c, 0, 64, 127
1, 32336, Note_on_c, 0, 62, 0
1, 32344, Note_on_c, 0, 65, 0
1, 32347, Note_on_c, 0, 46, 0
1, 32353, Note_on_c, 0, 56, 0
1, 32434, Note_on_c, 0, 67, 38
1, 32437, Note_on_c, 0, 56, 27
1, 32438, Note_on_c, 0, 62, 34
1, 32448, Note_on_c, 0, 82, 42
1, 32451, Control_c, 0, 64, 0
1, 32454, Note_on_c, 0, 82, 0
1, 32459, Note_on_c, 0, 84, 55
1, 32470, Note_on_c, 0, 82, 38
1, 32472, Note_on_c, 0, 84, 0
1, 32479, Note_on_c, 0, 67, 0
1, 32483, Note_on_c, 0, 82, 0
1, 32485, Note_on_c, 0, 81, 36
1, 32488, Note_on_c, 0, 62, 0
1, 32494, Note_on_c, 0, 81, 0
1, 32495, Note_on_c, 0, 82, 42
1, 32506, Note_on_c, 0, 82, 0
1, 32506, Note_on_c, 0, 56, 0
1, 32510, Note_on_c, 0, 83, 39
1, 32524, Note_on_c, 0, 83, 0
1, 32528, Note_on_c, 0, 84, 70
1, 32538, Note_on_c, 0, 84, 0
1, 32564, Note_on_c, 0, 66, 40
1, 32567, Note_on_c, 0, 55, 45
1, 32569, Note_on_c, 0, 61, 33
1, 32577, Note_on_c, 0, 66, 0
1, 32579, Note_on_c, 0, 55, 0
1, 32583, Note_on_c, 0, 61, 0
1, 32616, Control_c, 0, 64, 127
1, 32622, Note_on_c, 0, 45, 57
1, 32628, Note_on_c, 0, 45, 0
1, 32688, Note_on_c, 0, 76, 74
1, 32688, Note_on_c, 0, 85, 79
1, 32688, Note_on_c, 0, 73, 52
1, 32691, Note_on_c, 0, 72, 71
1, 32691, Control_c, 0, 64, 0
1, 32694, Note_on_c, 0, 79, 32
1, 32701, Control_c, 0, 64, 127
1, 32710, Note_on_c, 0, 72, 0
1, 32713, Note_on_c, 0, 79, 0
1, 32714, Note_on_c, 0, 76, 0
1, 32714, Note_on_c, 0, 85, 0
1, 32724, Note_on_c, 0, 73, 0
1, 32754, Note_on_c, 0, 81, 64
1, 32755, Note_on_c, 0, 73, 46
1, 32755, Note_on_c, 0, 70, 54
1, 32756, Control_c, 0, 64, 0
1, 32757, Note_on_c, 0, 76, 53
1, 32775, Note_on_c, 0, 81, 0
1, 32776, Control_c, 0, 64, 127
1, 32788, Note_on_c, 0, 70, 0
1, 32793, Note_on_c, 0, 73, 0
1, 32801, Note_on_c, 0, 78, 23
1, 32804, Note_on_c, 0, 76, 0
1, 32816, Note_on_c, 0, 78, 0
1, 32818, Note_on_c, 0, 62, 42
1, 32820, Note_on_c, 0, 79, 50
1, 32820, Note_on_c, 0, 72, 54
1, 32821, Note_on_c, 0, 69, 47
1, 32823, Control_c, 0, 64, 0
1, 32845, Control_c, 0, 64, 127
1, 32866, Note_on_c, 0, 79, 0
1, 32882, Note_on_c, 0, 72, 0
1, 32884, Note_on_c, 0, 77, 56
1, 32884, Note_on_c, 0, 50, 48
1, 32892, Note_on_c, 0, 69, 0
1, 32896, Note_on_c, 0, 62, 0
1, 32924, Note_on_c, 0, 77, 0
1, 32950, Note_on_c, 0, 62, 34
1, 32951, Note_on_c, 0, 69, 43
1, 32952, Note_on_c, 0, 65, 31
1, 32956, Note_on_c, 0, 57, 22
1, 32975, Note_on_c, 0, 65, 0
1, 32984, Note_on_c, 0, 69, 0
1, 32990, Note_on_c, 0, 57, 0
1, 33019, Note_on_c, 0, 57, 38
1, 33026, Note_on_c, 0, 62, 0
1, 33043, Note_on_c, 0, 50, 0
1, 33053, Note_on_c, 0, 79, 68
1, 33072, Note_on_c, 0, 79, 0
1, 33086, Note_on_c, 0, 48, 49
1, 33087, Note_on_c, 0, 77, 69
1, 33094, Control_c, 0, 64, 0
1, 33107, Note_on_c, 0, 57, 0
1, 33111, Control_c, 0, 64, 127
1, 33139, Note_on_c, 0, 65, 49
1, 33159, Note_on_c, 0, 65, 0
1, 33177, Note_on_c, 0, 65, 55
1, 33194, Note_on_c, 0, 65, 0
1, 33218, Note_on_c, 0, 65, 40
1, 33221, Note_on_c, 0, 57, 33
1, 33237, Note_on_c, 0, 77, 0
1, 33251, Note_on_c, 0, 48, 0
1, 33262, Note_on_c, 0, 77, 62
1, 33284, Note_on_c, 0, 77, 0
1, 33288, Note_on_c, 0, 65, 0
1, 33302, Note_on_c, 0, 48, 46
1, 33304, Note_on_c, 0, 79, 62
1, 33318, Note_on_c, 0, 48, 0
1, 33318, Note_on_c, 0, 57, 0
1, 33324, Note_on_c, 0, 79, 0
1, 33348, Note_on_c, 0, 79, 55
1, 33350, Control_c, 0, 64, 0
1, 33351, Note_on_c, 0, 46, 58
1, 33351, Note_on_c, 0, 73, 33
1, 33354, Note_on_c, 0, 56, 33
1, 33378, Control_c, 0, 64, 127
1, 33391, Note_on_c, 0, 46, 0
1, 33400, Note_on_c, 0, 56, 0
1, 33422, Note_on_c, 0, 73, 0
1, 33427, Note_on_c, 0, 79, 0
1, 33437, Note_on_c, 0, 77, 48
1, 33438, Note_on_c, 0, 68, 36
1, 33439, Note_on_c, 0, 73, 26
1, 33482, Note_on_c, 0, 65, 44
1, 33483, Note_on_c, 0, 61, 31
1, 33486, Note_on_c, 0, 60, 33
1, 33486, Note_on_c, 0, 56, 25
1, 33518, Note_on_c, 0, 56, 0
1, 33521, Note_on_c, 0, 60, 0
1, 33522, Note_on_c, 0, 77, 0
1, 33527, Note_on_c, 0, 65, 0
1, 33528, Note_on_c, 0, 79, 60
1, 33539, Note_on_c, 0, 61, 0
1, 33548, Note_on_c, 0, 68, 0
1, 33556, Note_on_c, 0, 79, 0
1, 33567, Note_on_c, 0, 77, 49
1, 33577, Note_on_c, 0, 73, 0
1, 33583, Note_on_c, 0, 77, 0
1, 33607, Control_c, 0, 64, 0
1, 33609, Note_on_c, 0, 70, 48
1, 33610, Note_on_c, 0, 68, 53
1, 33610, Note_on_c, 0, 73, 35
1, 33610, Note_on_c, 0, 80, 49
1, 33611, Note_on_c, 0, 76, 39
1, 33616, Note_on_c, 0, 70, 0
1, 33617, Note_on_c, 0, 76, 0
1, 33617, Control_c, 0, 64, 127
1, 33619, Note_on_c, 0, 73, 0
1, 33625, Note_on_c, 0, 80, 0
1, 33626, Note_on_c, 0, 68, 0
1, 33655, Note_on_c, 0, 70, 60
1, 33657, Note_on_c, 0, 78, 42
1, 33657, Note_on_c, 0, 84, 57
1, 33657, Note_on_c, 0, 74, 48
1, 33658, Note_on_c, 0, 76, 54
1, 33659, Control_c, 0, 64, 0
1, 33659, Note_on_c, 0, 83, 39
1, 33660, Note_on_c, 0, 80, 35
1, 33664, Note_on_c, 0, 83, 0
1, 33677, Control_c, 0, 64, 127
1, 33678, Note_on_c, 0, 80, 0
1, 33680, Note_on_c, 0, 84, 0
1, 33683, Note_on_c, 0, 76, 0
1, 33683, Note_on_c, 0, 78, 0
1, 33685, Note_on_c, 0, 70, 0
1, 33685, Note_on_c, 0, 74, 0
1, 33744, Note_on_c, 0, 67, 36
1, 33745, Control_c, 0, 64, 0
1, 33745, Note_on_c, 0, 80, 50
1, 33747, Note_on_c, 0, 70, 38
1, 33747, Note_on_c, 0, 73, 29
1, 33748, Note_on_c, 0, 76, 40
1, 33764, Control_c, 0, 64, 127
1, 33766, Note_on_c, 0, 76, 0
1, 33777, Note_on_c, 0, 70, 0
1, 33785, Note_on_c, 0, 67, 0
1, 33786, Note_on_c, 0, 80, 0
1, 33789, Note_on_c, 0, 70, 39
1, 33789, Note_on_c, 0, 76, 32
1, 33793, Note_on_c, 0, 64, 43
1, 33811, Note_on_c, 0, 70, 0
1, 33821, Note_on_c, 0, 64, 0
1, 33833, Note_on_c, 0, 76, 0
1, 33834, Note_on_c, 0, 70, 35
1, 33837, Note_on_c, 0, 60, 31
1, 33845, Note_on_c, 0, 60, 0
1, 33848, Note_on_c, 0, 70, 0
1, 33850, Note_on_c, 0, 73, 0
1, 33879, Note_on_c, 0, 68, 55
1, 33881, Note_on_c, 0, 79, 46
1, 33882, Note_on_c, 0, 72, 48
1, 33882, Note_on_c, 0, 62, 40
1, 33885, Control_c, 0, 64, 0
1, 33887, Note_on_c, 0, 74, 22
1, 33911, Control_c, 0, 64, 127
1, 33922, Note_on_c, 0, 79, 0
1, 33930, Note_on_c, 0, 62, 0
1, 33932, Note_on_c, 0, 77, 38
1, 33935, Note_on_c, 0, 60, 29
1, 33940, Control_c, 0, 64, 0
1, 33953, Control_c, 0, 64, 127
1, 33969, Note_on_c, 0, 60, 0
1, 33973, Note_on_c, 0, 72, 0
1, 33974, Note_on_c, 0, 77, 0
1, 33975, Note_on_c, 0, 74, 0
1, 33980, Note_on_c, 0, 68, 0
1, 34030, Note_on_c, 0, 68, 44
1, 34033, Note_on_c, 0, 65, 41
1, 34108, Note_on_c, 0, 68, 0
1, 34112, Note_on_c, 0, 65, 0
1, 34115, Note_on_c, 0, 49, 39
1, 34161, Note_on_c, 0, 46, 25
1, 34170, Note_on_c, 0, 62, 44
1, 34171, Note_on_c, 0, 56, 32
1, 34173, Note_on_c, 0, 49, 0
1, 34174, Note_on_c, 0, 46, 0
1, 34174, Note_on_c, 0, 60, 36
1, 34175, Note_on_c, 0, 50, 34
1, 34184, Control_c, 0, 64, 0
1, 34224, Control_c, 0, 64, 127
1, 34272, Note_on_c, 0, 56, 0
1, 34303, Note_on_c, 0, 60, 0
1, 34307, Note_on_c, 0, 50, 0
1, 34309, Note_on_c, 0, 56, 44
1, 34314, Note_on_c, 0, 38, 26
1, 34361, Note_on_c, 0, 38, 0
1, 34378, Note_on_c, 0, 62, 0
1, 34380, Note_on_c, 0, 56, 0
1, 34450, Note_on_c, 0, 59, 34
1, 34451, Note_on_c, 0, 53, 27
1, 34451, Note_on_c, 0, 37, 34
1, 34451, Control_c, 0, 64, 0
1, 34452, Note_on_c, 0, 44, 31
1, 34481, Control_c, 0, 64, 127
1, 34484, Note_on_c, 0, 53, 0
1, 34490, Note_on_c, 0, 37, 0
1, 34502, Note_on_c, 0, 59, 0
1, 34504, Note_on_c, 0, 42, 25
1, 34526, Note_on_c, 0, 42, 0
1, 34544, Note_on_c, 0, 65, 62
1, 34545, Note_on_c, 0, 56, 69
1, 34545, Note_on_c, 0, 59, 71
1, 34545, Note_on_c, 0, 53, 43
1, 34547, Note_on_c, 0, 52, 44
1, 34558, Note_on_c, 0, 65, 0
1, 34563, Note_on_c, 0, 52, 0
1, 34574, Note_on_c, 0, 44, 0
1, 34577, Note_on_c, 0, 53, 0
1, 34577, Note_on_c, 0, 56, 0
1, 34581, Note_on_c, 0, 59, 0
1, 34593, Note_on_c, 0, 55, 80
1, 34593, Note_on_c, 0, 59, 74
1, 34594, Note_on_c, 0, 56, 81
1, 34595, Note_on_c, 0, 67, 80
1, 34599, Control_c, 0, 64, 0
1, 34601, Note_on_c, 0, 62, 30
1, 34622, Note_on_c, 0, 67, 0
1, 34625, Control_c, 0, 64, 127
1, 34627, Note_on_c, 0, 56, 0
1, 34628, Note_on_c, 0, 62, 0
1, 34629, Note_on_c, 0, 55, 0
1, 34632, Note_on_c, 0, 59, 0
1, 34639, Note_on_c, 0, 67, 51
1, 34639, Note_on_c, 0, 56, 57
1, 34640, Note_on_c, 0, 55, 60
1, 34641, Note_on_c, 0, 59, 52
1, 34654, Note_on_c, 0, 55, 0
1, 34661, Note_on_c, 0, 67, 0
1, 34666, Note_on_c, 0, 56, 0
1, 34671, Note_on_c, 0, 59, 0
1, 34682, Note_on_c, 0, 65, 63
1, 34698, Note_on_c, 0, 65, 0
1, 34733, Control_c, 0, 64, 0
1, 34733, Note_on_c, 0, 24, 66
1, 34745, Note_on_c, 0, 24, 0
1, 34747, Control_c, 0, 64, 127
1, 34831, Note_on_c, 0, 72, 77
1, 34832, Note_on_c, 0, 68, 74
1, 34832, Note_on_c, 0, 60, 80
1, 34832, Note_on_c, 0, 66, 69
1, 34832, Note_on_c, 0, 64, 83
1, 34856, Note_on_c, 0, 72, 0
1, 34862, Note_on_c, 0, 66, 0
1, 34865, Note_on_c, 0, 68, 0
1, 34869, Note_on_c, 0, 64, 0
1, 34877, Note_on_c, 0, 60, 0
1, 34883, Note_on_c, 0, 61, 78
1, 34884, Note_on_c, 0, 73, 70
1, 34885, Note_on_c, 0, 64, 82
1, 34885, Note_on_c, 0, 68, 81
1, 34885, Note_on_c, 0, 70, 74
1, 34888, Control_c, 0, 64, 0
1, 34901, Control_c, 0, 64, 127
1, 34915, Note_on_c, 0, 68, 0
1, 34916, Note_on_c, 0, 73, 0
1, 34919, Note_on_c, 0, 61, 0
1, 34919, Note_on_c, 0, 64, 0
1, 34920, Note_on_c, 0, 70, 0
1, 34926, Note_on_c, 0, 73, 33
1, 34927, Note_on_c, 0, 61, 62
1, 34928, Note_on_c, 0, 68, 52
1, 34930, Note_on_c, 0, 64, 71
1, 34931, Note_on_c, 0, 70, 38
1, 34941, Note_on_c, 0, 70, 0
1, 34947, Note_on_c, 0, 73, 0
1, 34948, Note_on_c, 0, 68, 0
1, 34952, Note_on_c, 0, 64, 0
1, 34957, Note_on_c, 0, 61, 0
1, 34973, Note_on_c, 0, 68, 48
1, 34973, Note_on_c, 0, 64, 54
1, 34973, Note_on_c, 0, 58, 50
1, 34975, Note_on_c, 0, 66, 36
1, 34995, Note_on_c, 0, 66, 0
1, 34997, Note_on_c, 0, 64, 0
1, 35014, Note_on_c, 0, 68, 0
1, 35020, Note_on_c, 0, 58, 0
1, 35024, Note_on_c, 0, 67, 51
1, 35024, Note_on_c, 0, 72, 61
1, 35026, Control_c, 0, 64, 0
1, 35026, Note_on_c, 0, 57, 36
1, 35027, Note_on_c, 0, 62, 25
1, 35054, Control_c, 0, 64, 127
1, 35095, Note_on_c, 0, 67, 0
1, 35098, Note_on_c, 0, 62, 0
1, 35107, Note_on_c, 0, 72, 0
1, 35118, Note_on_c, 0, 57, 0
1, 35158, Note_on_c, 0, 64, 54
1, 35158, Note_on_c, 0, 60, 40
1, 35201, Note_on_c, 0, 60, 0
1, 35209, Note_on_c, 0, 48, 60
1, 35211, Note_on_c, 0, 64, 0
1, 35240, Note_on_c, 0, 48, 0
1, 35249, Note_on_c, 0, 41, 59
1, 35254, Note_on_c, 0, 41, 0
1, 35298, Note_on_c, 0, 76, 80
1, 35299, Note_on_c, 0, 73, 63
1, 35299, Note_on_c, 0, 62, 56
1, 35300, Note_on_c, 0, 66, 59
1, 35300, Note_on_c, 0, 69, 85
1, 35300, Note_on_c, 0, 64, 60
1, 35308, Control_c, 0, 64, 0
1, 35336, Control_c, 0, 64, 127
1, 35370, Note_on_c, 0, 76, 0
1, 35383, Note_on_c, 0, 64, 0
1, 35384, Note_on_c, 0, 69, 0
1, 35386, Note_on_c, 0, 66, 0
1, 35391, Note_on_c, 0, 76, 53
1, 35397, Note_on_c, 0, 62, 0
1, 35409, Note_on_c, 0, 73, 0
1, 35418, Note_on_c, 0, 76, 0
1, 35443, Note_on_c, 0, 76, 45
1, 35443, Note_on_c, 0, 62, 32
1, 35445, Note_on_c, 0, 56, 33
1, 35446, Note_on_c, 0, 67, 32
1, 35446, Note_on_c, 0, 72, 48
1, 35447, Control_c, 0, 64, 0
1, 35461, Control_c, 0, 64, 127
1, 35477, Note_on_c, 0, 62, 0
1, 35484, Note_on_c, 0, 72, 0
1, 35486, Note_on_c, 0, 56, 0
1, 35486, Note_on_c, 0, 74, 54
1, 35489, Note_on_c, 0, 76, 0
1, 35507, Note_on_c, 0, 67, 0
1, 35521, Note_on_c, 0, 74, 0
1, 35532, Note_on_c, 0, 45, 51
1, 35532, Control_c, 0, 64, 0
1, 35533, Note_on_c, 0, 73, 32
1, 35533, Note_on_c, 0, 52, 29
1, 35553, Control_c, 0, 64, 127
1, 35582, Note_on_c, 0, 45, 0
1, 35590, Note_on_c, 0, 52, 0
1, 35608, Note_on_c, 0, 73, 0
1, 35617, Note_on_c, 0, 64, 42
1, 35661, Note_on_c, 0, 64, 0
1, 35703, Note_on_c, 0, 61, 32
1, 35705, Note_on_c, 0, 64, 31
1, 35707, Note_on_c, 0, 59, 29
1, 35743, Note_on_c, 0, 66, 58
1, 35768, Note_on_c, 0, 64, 0
1, 35769, Note_on_c, 0, 66, 0
1, 35771, Note_on_c, 0, 59, 0
1, 35774, Note_on_c, 0, 61, 0
1, 35798, Note_on_c, 0, 69, 31
1, 35814, Note_on_c, 0, 70, 64
1, 35820, Note_on_c, 0, 69, 0
1, 35827, Note_on_c, 0, 70, 0
1, 35829, Note_on_c, 0, 71, 65
1, 35842, Note_on_c, 0, 62, 42
1, 35843, Note_on_c, 0, 53, 36
1, 35844, Note_on_c, 0, 58, 39
1, 35845, Note_on_c, 0, 71, 0
1, 35845, Note_on_c, 0, 57, 50
1, 35845, Control_c, 0, 64, 0
1, 35846, Note_on_c, 0, 72, 80
1, 35878, Control_c, 0, 64, 127
1, 35904, Note_on_c, 0, 65, 55
1, 35911, Note_on_c, 0, 62, 0
1, 35923, Note_on_c, 0, 57, 0
1, 35923, Note_on_c, 0, 58, 0
1, 35928, Note_on_c, 0, 72, 0
1, 35929, Note_on_c, 0, 53, 0
1, 35971, Note_on_c, 0, 65, 0
1, 35985, Note_on_c, 0, 58, 34
1, 35985, Note_on_c, 0, 64, 46
1, 35986, Note_on_c, 0, 48, 32
1, 35990, Control_c, 0, 64, 0
1, 36001, Control_c, 0, 64, 127
1, 36009, Note_on_c, 0, 48, 0
1, 36009, Note_on_c, 0, 58, 0
1, 36038, Note_on_c, 0, 64, 0
1, 36101, Note_on_c, 0, 86, 76
1, 36117, Note_on_c, 0, 86, 0
1, 36133, Note_on_c, 0, 48, 33
1, 36133, Note_on_c, 0, 84, 57
1, 36134, Note_on_c, 0, 57, 33
1, 36135, Control_c, 0, 64, 0
1, 36135, Note_on_c, 0, 41, 18
1, 36144, Note_on_c, 0, 84, 0
1, 36149, Note_on_c, 0, 48, 0
1, 36154, Note_on_c, 0, 41, 0
1, 36162, Note_on_c, 0, 57, 0
1, 36184, Note_on_c, 0, 81, 42
1, 36198, Note_on_c, 0, 81, 0
1, 36213, Note_on_c, 0, 77, 27
1, 36231, Note_on_c, 0, 77, 0
1, 36256, Note_on_c, 0, 82, 74
1, 36272, Note_on_c, 0, 82, 0
1, 36284, Note_on_c, 0, 81, 60
1, 36286, Note_on_c, 0, 62, 43
1, 36287, Note_on_c, 0, 60, 34
1, 36289, Note_on_c, 0, 57, 40
1, 36293, Note_on_c, 0, 62, 0
1, 36294, Note_on_c, 0, 60, 0
1, 36296, Note_on_c, 0, 57, 0
1, 36298, Note_on_c, 0, 81, 0
1, 36335, Note_on_c, 0, 77, 50
1, 36354, Note_on_c, 0, 77, 0
1, 36360, Note_on_c, 0, 72, 43
1, 36385, Note_on_c, 0, 72, 0
1, 36390, Control_c, 0, 64, 127
1, 36408, Note_on_c, 0, 70, 50
1, 36413, Note_on_c, 0, 70, 0
1, 36431, Control_c, 0, 64, 0
1, 36431, Note_on_c, 0, 41, 36
1, 36434, Note_on_c, 0, 50, 33
1, 36434, Note_on_c, 0, 69, 58
1, 36441, Note_on_c, 0, 50, 0
1, 36443, Note_on_c, 0, 41, 0
1, 36450, Note_on_c, 0, 69, 0
1, 36456, Note_on_c, 0, 70, 37
1, 36468, Note_on_c, 0, 69, 43
1, 36472, Note_on_c, 0, 70, 0
1, 36487, Note_on_c, 0, 69, 0
1, 36489, Note_on_c, 0, 67, 37
1, 36505, Note_on_c, 0, 67, 0
1, 36550, Control_c, 0, 64, 127
1, 36581, Control_c, 0, 64, 0
1, 36587, Note_on_c, 0, 62, 51
1, 36591, Note_on_c, 0, 57, 46
1, 36592, Note_on_c, 0, 60, 33
1, 36594, Note_on_c, 0, 53, 18
1, 36599, Note_on_c, 0, 60, 0
1, 36599, Note_on_c, 0, 62, 0
1, 36602, Note_on_c, 0, 57, 0
1, 36602, Note_on_c, 0, 53, 0
1, 36637, Note_on_c, 0, 65, 83
1, 36661, Note_on_c, 0, 65, 0
1, 36663, Control_c, 0, 64, 127
1, 36663, Note_on_c, 0, 64, 62
1, 36675, Control_c, 0, 64, 0
1, 36685, Note_on_c, 0, 64, 0
1, 36694, Note_on_c, 0, 63, 70
1, 36698, Control_c, 0, 64, 127
1, 36716, Note_on_c, 0, 63, 0
1, 36721, Note_on_c, 0, 61, 69
1, 36741, Note_on_c, 0, 61, 0
1, 36748, Note_on_c, 0, 62, 71
1, 36755, Note_on_c, 0, 56, 32
1, 36757, Control_c, 0, 64, 0
1, 36757, Note_on_c, 0, 46, 38
1, 36781, Note_on_c, 0, 62, 0
1, 36786, Note_on_c, 0, 65, 71
1, 36803, Control_c, 0, 64, 127
1, 36807, Note_on_c, 0, 65, 0
1, 36816, Note_on_c, 0, 67, 68
1, 36819, Note_on_c, 0, 46, 0
1, 36823, Note_on_c, 0, 56, 0
1, 36836, Note_on_c, 0, 67, 0
1, 36841, Note_on_c, 0, 65, 60
1, 36851, Note_on_c, 0, 65, 0
1, 36869, Note_on_c, 0, 70, 73
1, 36884, Note_on_c, 0, 70, 0
1, 36903, Note_on_c, 0, 67, 43
1, 36905, Note_on_c, 0, 62, 44
1, 36905, Control_c, 0, 64, 0
1, 36906, Note_on_c, 0, 56, 33
1, 36932, Control_c, 0, 64, 127
1, 36954, Note_on_c, 0, 67, 0
1, 36958, Note_on_c, 0, 62, 0
1, 36967, Note_on_c, 0, 56, 0
1, 37028, Note_on_c, 0, 52, 48
1, 37047, Note_on_c, 0, 52, 0
1, 37060, Control_c, 0, 64, 0
1, 37063, Note_on_c, 0, 45, 67
1, 37078, Control_c, 0, 64, 127
1, 37087, Note_on_c, 0, 45, 0
1, 37147, Note_on_c, 0, 84, 92
1, 37147, Note_on_c, 0, 72, 103
1, 37169, Note_on_c, 0, 72, 0
1, 37170, Note_on_c, 0, 84, 0
1, 37196, Note_on_c, 0, 72, 65
1, 37196, Note_on_c, 0, 84, 62
1, 37203, Note_on_c, 0, 72, 0
1, 37209, Note_on_c, 0, 84, 0
1, 37225, Note_on_c, 0, 61, 49
1, 37225, Note_on_c, 0, 55, 57
1, 37226, Note_on_c, 0, 66, 50
1, 37227, Control_c, 0, 64, 0
1, 37254, Control_c, 0, 64, 127
1, 37280, Note_on_c, 0, 89, 94
1, 37283, Note_on_c, 0, 66, 0
1, 37295, Note_on_c, 0, 55, 0
1, 37299, Note_on_c, 0, 61, 0
1, 37300, Note_on_c, 0, 89, 0
1, 37311, Note_on_c, 0, 88, 78
1, 37328, Note_on_c, 0, 88, 0
1, 37342, Note_on_c, 0, 85, 77
1, 37361, Note_on_c, 0, 85, 0
1, 37372, Note_on_c, 0, 86, 81
1, 37394, Control_c, 0, 64, 0
1, 37395, Note_on_c, 0, 86, 0
1, 37400, Note_on_c, 0, 57, 35
1, 37400, Note_on_c, 0, 50, 43
1, 37403, Note_on_c, 0, 81, 58
1, 37428, Note_on_c, 0, 81, 0
1, 37433, Note_on_c, 0, 80, 46
1, 37456, Note_on_c, 0, 80, 0
1, 37459, Note_on_c, 0, 79, 46
1, 37481, Note_on_c, 0, 79, 0
1, 37486, Note_on_c, 0, 77, 31
1, 37508, Note_on_c, 0, 77, 0
1, 37508, Control_c, 0, 64, 127
1, 37513, Note_on_c, 0, 74, 53
1, 37530, Note_on_c, 0, 74, 0
1, 37543, Note_on_c, 0, 81, 66
1, 37543, Note_on_c, 0, 79, 61
1, 37550, Note_on_c, 0, 62, 46
1, 37551, Control_c, 0, 64, 0
1, 37561, Note_on_c, 0, 81, 0
1, 37564, Note_on_c, 0, 79, 0
1, 37589, Note_on_c, 0, 62, 0
1, 37598, Note_on_c, 0, 77, 58
1, 37606, Control_c, 0, 64, 127
1, 37627, Note_on_c, 0, 74, 63
1, 37628, Note_on_c, 0, 77, 0
1, 37632, Note_on_c, 0, 50, 0
1, 37642, Note_on_c, 0, 74, 0
1, 37659, Note_on_c, 0, 69, 39
1, 37674, Note_on_c, 0, 69, 0
1, 37681, Note_on_c, 0, 68, 44
1, 37698, Note_on_c, 0, 68, 0
1, 37703, Note_on_c, 0, 67, 38
1, 37704, Note_on_c, 0, 48, 35
1, 37714, Control_c, 0, 64, 0
1, 37722, Note_on_c, 0, 67, 0
1, 37726, Note_on_c, 0, 65, 52
1, 37735, Note_on_c, 0, 65, 0
1, 37740, Note_on_c, 0, 57, 0
1, 37749, Note_on_c, 0, 74, 53
1, 37754, Note_on_c, 0, 67, 30
1, 37760, Note_on_c, 0, 74, 0
1, 37767, Note_on_c, 0, 67, 0
1, 37773, Note_on_c, 0, 62, 51
1, 37786, Note_on_c, 0, 62, 0
1, 37796, Control_c, 0, 64, 127
1, 37796, Note_on_c, 0, 65, 68
1, 37845, Note_on_c, 0, 65, 0
1, 37861, Note_on_c, 0, 62, 51
1, 37863, Note_on_c, 0, 65, 44
1, 37866, Note_on_c, 0, 57, 36
1, 37866, Control_c, 0, 64, 0
1, 37887, Control_c, 0, 64, 127
1, 37903, Note_on_c, 0, 48, 0
1, 37932, Note_on_c, 0, 65, 0
1, 37947, Note_on_c, 0, 62, 0
1, 37954, Note_on_c, 0, 48, 35
1, 37957, Note_on_c, 0, 57, 0
1, 37974, Note_on_c, 0, 48, 0
1, 38006, Control_c, 0, 64, 0
1, 38008, Note_on_c, 0, 62, 43
1, 38010, Note_on_c, 0, 57, 34
1, 38011, Note_on_c, 0, 47, 48
1, 38023, Control_c, 0, 64, 127
1, 38029, Note_on_c, 0, 57, 0
1, 38045, Note_on_c, 0, 47, 0
1, 38045, Note_on_c, 0, 62, 0
1, 38159, Note_on_c, 0, 57, 39
1, 38160, Note_on_c, 0, 65, 30
1, 38160, Note_on_c, 0, 62, 34
1, 38168, Control_c, 0, 64, 0
1, 38196, Note_on_c, 0, 77, 37
1, 38202, Note_on_c, 0, 77, 0
1, 38226, Note_on_c, 0, 79, 82
1, 38228, Note_on_c, 0, 86, 71
1, 38241, Note_on_c, 0, 80, 55
1, 38244, Note_on_c, 0, 79, 0
1, 38251, Note_on_c, 0, 65, 0
1, 38252, Note_on_c, 0, 86, 0
1, 38256, Note_on_c, 0, 57, 0
1, 38260, Note_on_c, 0, 62, 0
1, 38264, Note_on_c, 0, 79, 26
1, 38274, Note_on_c, 0, 79, 0
1, 38276, Note_on_c, 0, 80, 0
1, 38278, Note_on_c, 0, 77, 35
1, 38287, Note_on_c, 0, 77, 0
1, 38288, Control_c, 0, 64, 127
1, 38294, Note_on_c, 0, 79, 60
1, 38295, Note_on_c, 0, 86, 66
1, 38307, Control_c, 0, 64, 0
1, 38316, Note_on_c, 0, 86, 0
1, 38316, Note_on_c, 0, 79, 0
1, 38316, Note_on_c, 0, 62, 29
1, 38317, Note_on_c, 0, 65, 32
1, 38321, Note_on_c, 0, 56, 25
1, 38361, Control_c, 0, 64, 127
1, 38392, Note_on_c, 0, 65, 0
1, 38415, Note_on_c, 0, 62, 0
1, 38426, Note_on_c, 0, 67, 15
1, 38438, Note_on_c, 0, 67, 0
1, 38462, Note_on_c, 0, 62, 48
1, 38465, Control_c, 0, 64, 0
1, 38479, Control_c, 0, 64, 127
1, 38496, Note_on_c, 0, 56, 0
1, 38497, Note_on_c, 0, 62, 0
1, 38501, Note_on_c, 0, 68, 56
1, 38516, Note_on_c, 0, 68, 0
1, 38533, Note_on_c, 0, 71, 61
1, 38549, Note_on_c, 0, 71, 0
1, 38569, Note_on_c, 0, 77, 59
1, 38570, Note_on_c, 0, 71, 62
1, 38570, Note_on_c, 0, 68, 69
1, 38571, Note_on_c, 0, 58, 60
1, 38579, Note_on_c, 0, 71, 0
1, 38580, Note_on_c, 0, 77, 0
1, 38583, Note_on_c, 0, 68, 0
1, 38603, Note_on_c, 0, 58, 0
1, 38607, Note_on_c, 0, 74, 60
1, 38608, Note_on_c, 0, 68, 43
1, 38609, Control_c, 0, 64, 0
1, 38609, Note_on_c, 0, 57, 52
1, 38610, Note_on_c, 0, 64, 35
1, 38636, Control_c, 0, 64, 127
1, 38639, Note_on_c, 0, 74, 0
1, 38649, Note_on_c, 0, 64, 0
1, 38652, Note_on_c, 0, 68, 0
1, 38654, Note_on_c, 0, 57, 0
1, 38661, Note_on_c, 0, 72, 56
1, 38662, Note_on_c, 0, 62, 62
1, 38663, Note_on_c, 0, 67, 56
1, 38663, Note_on_c, 0, 57, 46
1, 38672, Control_c, 0, 64, 0
1, 38690, Control_c, 0, 64, 127
1, 38706, Note_on_c, 0, 72, 0
1, 38708, Note_on_c, 0, 67, 0
1, 38720, Note_on_c, 0, 62, 0
1, 38753, Note_on_c, 0, 57, 0
1, 38761, Note_on_c, 0, 64, 54
1, 38762, Note_on_c, 0, 60, 43
1, 38762, Note_on_c, 0, 69, 48
1, 38765, Note_on_c, 0, 53, 37
1, 38779, Note_on_c, 0, 64, 0
1, 38781, Note_on_c, 0, 69, 0
1, 38791, Note_on_c, 0, 60, 0
1, 38806, Note_on_c, 0, 53, 0
1, 38818, Note_on_c, 0, 65, 57
1, 38818, Note_on_c, 0, 57, 50
1, 38819, Note_on_c, 0, 60, 49
1, 38821, Note_on_c, 0, 62, 44
1, 38847, Note_on_c, 0, 57, 0
1, 38868, Note_on_c, 0, 60, 0
1, 38872, Note_on_c, 0, 62, 0
1, 38874, Note_on_c, 0, 65, 0
1, 38881, Control_c, 0, 64, 0
1, 38885, Note_on_c, 0, 44, 78
1, 38895, Control_c, 0, 64, 127
1, 38900, Note_on_c, 0, 44, 0
1, 38966, Note_on_c, 0, 71, 77
1, 38967, Note_on_c, 0, 56, 79
1, 38967, Note_on_c, 0, 67, 78
1, 38967, Note_on_c, 0, 62, 88
1, 38971, Control_c, 0, 64, 0
1, 38983, Control_c, 0, 64, 127
1, 38992, Note_on_c, 0, 67, 0
1, 38999, Note_on_c, 0, 71, 0
1, 39006, Note_on_c, 0, 62, 0
1, 39065, Control_c, 0, 64, 0
1, 39065, Note_on_c, 0, 68, 68
1, 39066, Note_on_c, 0, 62, 68
1, 39067, Note_on_c, 0, 59, 58
1, 39068, Note_on_c, 0, 56, 0
1, 39071, Note_on_c, 0, 53, 54
1, 39080, Control_c, 0, 64, 127
1, 39086, Note_on_c, 0, 68, 0
1, 39088, Note_on_c, 0, 62, 0
1, 39093, Note_on_c, 0, 59, 0
1, 39119, Note_on_c, 0, 53, 0
1, 39119, Note_on_c, 0, 65, 80
1, 39121, Note_on_c, 0, 56, 56
1, 39122, Note_on_c, 0, 59, 56
1, 39123, Note_on_c, 0, 50, 62
1, 39125, Control_c, 0, 64, 0
1, 39145, Note_on_c, 0, 56, 0
1, 39149, Note_on_c, 0, 59, 0
1, 39152, Note_on_c, 0, 65, 0
1, 39164, Note_on_c, 0, 50, 0
1, 39168, Note_on_c, 0, 56, 54
1, 39168, Note_on_c, 0, 62, 54
1, 39169, Control_c, 0, 64, 127
1, 39171, Note_on_c, 0, 44, 49
1, 39189, Note_on_c, 0, 56, 0
1, 39200, Note_on_c, 0, 62, 0
1, 39207, Note_on_c, 0, 44, 0
1, 39215, Control_c, 0, 64, 0
1, 39217, Note_on_c, 0, 58, 50
1, 39220, Note_on_c, 0, 53, 43
1, 39222, Note_on_c, 0, 43, 47
1, 39239, Control_c, 0, 64, 127
1, 39245, Note_on_c, 0, 53, 0
1, 39275, Note_on_c, 0, 58, 0
1, 39308, Note_on_c, 0, 62, 40
1, 39308, Note_on_c, 0, 55, 51
1, 39309, Note_on_c, 0, 58, 42
1, 39312, Note_on_c, 0, 50, 49
1, 39317, Note_on_c, 0, 58, 0
1, 39318, Note_on_c, 0, 55, 0
1, 39320, Note_on_c, 0, 62, 0
1, 39322, Note_on_c, 0, 43, 0
1, 39335, Note_on_c, 0, 50, 0
1, 39360, Note_on_c, 0, 58, 68
1, 39360, Note_on_c, 0, 57, 66
1, 39361, Note_on_c, 0, 62, 66
1, 39362, Note_on_c, 0, 69, 63
1, 39364, Control_c, 0, 64, 0
1, 39364, Note_on_c, 0, 65, 53
1, 39386, Control_c, 0, 64, 127
1, 39387, Note_on_c, 0, 65, 0
1, 39388, Note_on_c, 0, 62, 0
1, 39389, Note_on_c, 0, 58, 0
1, 39390, Note_on_c, 0, 69, 0
1, 39401, Note_on_c, 0, 55, 49
1, 39402, Note_on_c, 0, 57, 0
1, 39414, Note_on_c, 0, 55, 0
1, 39429, Control_c, 0, 64, 0
1, 39434, Note_on_c, 0, 72, 66
1, 39435, Note_on_c, 0, 62, 64
1, 39435, Note_on_c, 0, 65, 66
1, 39436, Note_on_c, 0, 60, 68
1, 39437, Note_on_c, 0, 69, 51
1, 39447, Note_on_c, 0, 62, 0
1, 39448, Control_c, 0, 64, 127
1, 39451, Note_on_c, 0, 60, 0
1, 39451, Note_on_c, 0, 65, 0
1, 39455, Note_on_c, 0, 69, 0
1, 39459, Note_on_c, 0, 72, 0
1, 39511, Note_on_c, 0, 76, 80
1, 39511, Note_on_c, 0, 73, 64
1, 39512, Note_on_c, 0, 84, 71
1, 39513, Note_on_c, 0, 72, 83
1, 39513, Control_c, 0, 64, 0
1, 39514, Note_on_c, 0, 79, 45
1, 39516, Note_on_c, 0, 82, 33
1, 39528, Control_c, 0, 64, 127
1, 39532, Note_on_c, 0, 84, 0
1, 39533, Note_on_c, 0, 76, 0
1, 39533, Note_on_c, 0, 79, 0
1, 39533, Note_on_c, 0, 82, 0
1, 39544, Note_on_c, 0, 72, 0
1, 39546, Note_on_c, 0, 73, 0
1, 39553, Note_on_c, 0, 70, 52
1, 39568, Note_on_c, 0, 70, 0
1, 39575, Control_c, 0, 64, 0
1, 39584, Note_on_c, 0, 70, 52
1, 39585, Note_on_c, 0, 73, 36
1, 39585, Note_on_c, 0, 81, 42
1, 39586, Note_on_c, 0, 76, 46
1, 39588, Note_on_c, 0, 69, 53
1, 39600, Note_on_c, 0, 81, 0
1, 39606, Note_on_c, 0, 76, 0
1, 39608, Note_on_c, 0, 69, 0
1, 39608, Note_on_c, 0, 73, 0
1, 39611, Note_on_c, 0, 70, 0
1, 39611, Control_c, 0, 64, 127
1, 39621, Note_on_c, 0, 67, 35
1, 39627, Control_c, 0, 64, 0
1, 39634, Note_on_c, 0, 67, 0
1, 39653, Note_on_c, 0, 78, 46
1, 39653, Note_on_c, 0, 66, 43
1, 39653, Note_on_c, 0, 70, 48
1, 39654, Note_on_c, 0, 73, 30
1, 39656, Note_on_c, 0, 67, 29
1, 39665, Note_on_c, 0, 67, 0
1, 39667, Note_on_c, 0, 70, 0
1, 39668, Note_on_c, 0, 73, 0
1, 39669, Note_on_c, 0, 78, 0
1, 39670, Note_on_c, 0, 66, 0
1, 39698, Control_c, 0, 64, 127
1, 39718, Control_c, 0, 64, 0
1, 39723, Note_on_c, 0, 75, 60
1, 39724, Note_on_c, 0, 64, 56
1, 39724, Note_on_c, 0, 70, 51
1, 39726, Note_on_c, 0, 63, 36
1, 39728, Note_on_c, 0, 67, 36
1, 39736, Note_on_c, 0, 67, 0
1, 39738, Note_on_c, 0, 64, 0
1, 39739, Note_on_c, 0, 75, 0
1, 39747, Note_on_c, 0, 70, 0
1, 39747, Note_on_c, 0, 63, 0
1, 39752, Control_c, 0, 64, 127
1, 39762, Note_on_c, 0, 61, 35
1, 39770, Note_on_c, 0, 61, 0
1, 39792, Control_c, 0, 64, 0
1, 39796, Note_on_c, 0, 65, 60
1, 39797, Note_on_c, 0, 61, 34
1, 39798, Note_on_c, 0, 72, 34
1, 39799, Note_on_c, 0, 69, 40
1, 39806, Note_on_c, 0, 61, 0
1, 39808, Note_on_c, 0, 65, 0
1, 39812, Note_on_c, 0, 72, 0
1, 39812, Note_on_c, 0, 69, 0
1, 39832, Note_on_c, 0, 62, 34
1, 39838, Note_on_c, 0, 62, 0
1, 39867, Note_on_c, 0, 70, 47
1, 39870, Note_on_c, 0, 61, 38
1, 39871, Note_on_c, 0, 65, 58
1, 39904, Note_on_c, 0, 51, 61
1, 39916, Note_on_c, 0, 51, 0
1, 39941, Note_on_c, 0, 39, 59
1, 39944, Control_c, 0, 64, 127
1, 39991, Note_on_c, 0, 39, 0
1, 40036, Note_on_c, 0, 26, 57
1, 40039, Note_on_c, 0, 65, 0
1, 40049, Note_on_c, 0, 61, 0
1, 40076, Note_on_c, 0, 70, 0
1, 40077, Note_on_c, 0, 26, 0
1, 40084, Control_c, 0, 64, 0
1, 40085, Note_on_c, 0, 62, 57
1, 40086, Note_on_c, 0, 66, 51
1, 40086, Note_on_c, 0, 69, 55
1, 40087, Note_on_c, 0, 26, 56
1, 40099, Note_on_c, 0, 26, 0
1, 40101, Control_c, 0, 64, 127
1, 40111, Note_on_c, 0, 62, 0
1, 40118, Note_on_c, 0, 66, 0
1, 40130, Note_on_c, 0, 69, 0
1, 40181, Note_on_c, 0, 86, 65
1, 40182, Note_on_c, 0, 78, 39
1, 40182, Note_on_c, 0, 74, 45
1, 40184, Note_on_c, 0, 81, 47
1, 40223, Note_on_c, 0, 54, 46
1, 40225, Note_on_c, 0, 65, 47
1, 40225, Control_c, 0, 64, 0
1, 40225, Note_on_c, 0, 60, 38
1, 40240, Control_c, 0, 64, 127
1, 40272, Note_on_c, 0, 86, 0
1, 40279, Note_on_c, 0, 74, 0
1, 40284, Note_on_c, 0, 81, 0
1, 40284, Note_on_c, 0, 78, 0
1, 40291, Note_on_c, 0, 54, 0
1, 40301, Note_on_c, 0, 65, 0
1, 40315, Note_on_c, 0, 54, 35
1, 40316, Note_on_c, 0, 60, 0
1, 40337, Note_on_c, 0, 54, 0
1, 40362, Note_on_c, 0, 82, 48
1, 40363, Note_on_c, 0, 64, 41
1, 40363, Note_on_c, 0, 75, 49
1, 40364, Note_on_c, 0, 79, 38
1, 40365, Note_on_c, 0, 59, 38
1, 40365, Control_c, 0, 64, 0
1, 40365, Note_on_c, 0, 70, 33
1, 40366, Note_on_c, 0, 53, 31
1, 40381, Control_c, 0, 64, 127
1, 40393, Note_on_c, 0, 64, 0
1, 40396, Note_on_c, 0, 79, 0
1, 40397, Note_on_c, 0, 59, 0
1, 40398, Note_on_c, 0, 82, 0
1, 40402, Note_on_c, 0, 75, 0
1, 40404, Note_on_c, 0, 53, 0
1, 40407, Note_on_c, 0, 70, 0
1, 40460, Note_on_c, 0, 43, 36
1, 40485, Note_on_c, 0, 43, 0
1, 40503, Note_on_c, 0, 70, 43
1, 40506, Note_on_c, 0, 63, 44
1, 40507, Note_on_c, 0, 67, 38
1, 40509, Note_on_c, 0, 59, 20
1, 40517, Control_c, 0, 64, 0
1, 40555, Control_c, 0, 64, 127
1, 40557, Note_on_c, 0, 67, 0
1, 40565, Note_on_c, 0, 59, 0
1, 40580, Control_c, 0, 64, 0
1, 40597, Control_c, 0, 64, 127
1, 40598, Note_on_c, 0, 43, 31
1, 40603, Note_on_c, 0, 70, 0
1, 40615, Note_on_c, 0, 63, 0
1, 40643, Note_on_c, 0, 36, 37
1, 40644, Note_on_c, 0, 68, 36
1, 40647, Note_on_c, 0, 61, 37
1, 40647, Note_on_c, 0, 58, 37
1, 40648, Note_on_c, 0, 52, 42
1, 40648, Note_on_c, 0, 64, 45
1, 40650, Control_c, 0, 64, 0
1, 40658, Note_on_c, 0, 43, 0
1, 40681, Control_c, 0, 64, 127
1, 40731, Note_on_c, 0, 52, 0
1, 40737, Note_on_c, 0, 64, 0
1, 40740, Note_on_c, 0, 43, 38
1, 40741, Note_on_c, 0, 68, 0
1, 40748, Note_on_c, 0, 58, 0
1, 40748, Note_on_c, 0, 61, 0
1, 40786, Note_on_c, 0, 58, 44
1, 40787, Note_on_c, 0, 61, 50
1, 40790, Note_on_c, 0, 67, 33
1, 40791, Note_on_c, 0, 52, 39
1, 40795, Note_on_c, 0, 58, 0
1, 40800, Note_on_c, 0, 61, 0
1, 40801, Note_on_c, 0, 67, 0
1, 40807, Note_on_c, 0, 36, 0
1, 40812, Note_on_c, 0, 43, 0
1, 40823, Note_on_c, 0, 52, 0
1, 40835, Note_on_c, 0, 72, 88
1, 40862, Note_on_c, 0, 72, 0
1, 40876, Note_on_c, 0, 74, 80
1, 40888, Note_on_c, 0, 74, 0
1, 40925, Note_on_c, 0, 86, 92
1, 40926, Note_on_c, 0, 41, 36
1, 40927, Note_on_c, 0, 48, 47
1, 40928, Note_on_c, 0, 88, 39
1, 40928, Note_on_c, 0, 57, 40
1, 40933, Note_on_c, 0, 88, 0
1, 40935, Control_c, 0, 64, 0
1, 40967, Control_c, 0, 64, 127
1, 40973, Note_on_c, 0, 84, 73
1, 40981, Note_on_c, 0, 86, 0
1, 41013, Note_on_c, 0, 41, 0
1, 41018, Note_on_c, 0, 48, 0
1, 41028, Note_on_c, 0, 57, 0
1, 41028, Note_on_c, 0, 83, 15
1, 41047, Note_on_c, 0, 84, 0
1, 41053, Note_on_c, 0, 83, 0
1, 41075, Note_on_c, 0, 62, 30
1, 41078, Note_on_c, 0, 60, 24
1, 41079, Note_on_c, 0, 57, 32
1, 41086, Note_on_c, 0, 53, 19
1, 41102, Control_c, 0, 64, 0
1, 41111, Note_on_c, 0, 68, 52
1, 41127, Note_on_c, 0, 68, 0
1, 41138, Note_on_c, 0, 69, 63
1, 41150, Note_on_c, 0, 69, 0
1, 41183, Note_on_c, 0, 79, 78
1, 41186, Note_on_c, 0, 62, 0
1, 41186, Control_c, 0, 64, 127
1, 41188, Note_on_c, 0, 60, 0
1, 41206, Note_on_c, 0, 79, 0
1, 41208, Control_c, 0, 64, 0
1, 41220, Note_on_c, 0, 60, 27
1, 41220, Note_on_c, 0, 77, 54
1, 41229, Note_on_c, 0, 60, 0
1, 41234, Note_on_c, 0, 77, 0
1, 41278, Note_on_c, 0, 57, 0
1, 41286, Note_on_c, 0, 53, 0
1, 41304, Note_on_c, 0, 64, 64
1, 41315, Note_on_c, 0, 64, 0
1, 41324, Note_on_c, 0, 65, 64
1, 41330, Control_c, 0, 64, 127
1, 41337, Note_on_c, 0, 65, 0
1, 41350, Note_on_c, 0, 74, 79
1, 41362, Note_on_c, 0, 41, 37
1, 41363, Control_c, 0, 64, 0
1, 41366, Note_on_c, 0, 74, 0
1, 41378, Note_on_c, 0, 72, 73
1, 41391, Note_on_c, 0, 72, 0
1, 41406, Note_on_c, 0, 69, 61
1, 41421, Note_on_c, 0, 69, 0
1, 41431, Note_on_c, 0, 65, 62
1, 41432, Note_on_c, 0, 41, 0
1, 41442, Control_c, 0, 64, 127
1, 41448, Note_on_c, 0, 65, 0
1, 41459, Note_on_c, 0, 62, 53
1, 41473, Note_on_c, 0, 62, 0
1, 41495, Note_on_c, 0, 60, 61
1, 41511, Note_on_c, 0, 60, 0
1, 41526, Note_on_c, 0, 46, 49
1, 41526, Note_on_c, 0, 62, 65
1, 41532, Control_c, 0, 64, 0
1, 41564, Control_c, 0, 64, 127
1, 41594, Note_on_c, 0, 58, 55
1, 41601, Note_on_c, 0, 55, 31
1, 41605, Note_on_c, 0, 62, 0
1, 41606, Note_on_c, 0, 55, 0
1, 41614, Note_on_c, 0, 58, 0
1, 41661, Note_on_c, 0, 70, 69
1, 41664, Note_on_c, 0, 65, 74
1, 41664, Note_on_c, 0, 55, 45
1, 41665, Note_on_c, 0, 60, 58
1, 41668, Control_c, 0, 64, 0
1, 41678, Control_c, 0, 64, 127
1, 41695, Note_on_c, 0, 70, 0
1, 41696, Note_on_c, 0, 55, 0
1, 41697, Note_on_c, 0, 60, 0
1, 41710, Note_on_c, 0, 57, 65
1, 41710, Note_on_c, 0, 73, 20
1, 41710, Note_on_c, 0, 72, 72
1, 41714, Note_on_c, 0, 60, 31
1, 41714, Note_on_c, 0, 62, 38
1, 41727, Note_on_c, 0, 73, 0
1, 41729, Note_on_c, 0, 46, 0
1, 41732, Note_on_c, 0, 72, 0
1, 41733, Note_on_c, 0, 62, 0
1, 41735, Note_on_c, 0, 57, 0
1, 41736, Note_on_c, 0, 60, 0
1, 41751, Note_on_c, 0, 70, 62
1, 41752, Note_on_c, 0, 46, 49
1, 41754, Note_on_c, 0, 65, 0
1, 41754, Note_on_c, 0, 56, 55
1, 41778, Note_on_c, 0, 70, 0
1, 41782, Note_on_c, 0, 56, 0
1, 41792, Note_on_c, 0, 46, 0
1, 41803, Note_on_c, 0, 73, 36
1, 41804, Control_c, 0, 64, 0
1, 41806, Note_on_c, 0, 61, 35
1, 41807, Note_on_c, 0, 67, 52
1, 41807, Note_on_c, 0, 55, 43
1, 41807, Note_on_c, 0, 45, 52
1, 41818, Control_c, 0, 64, 127
1, 41824, Note_on_c, 0, 61, 0
1, 41829, Note_on_c, 0, 67, 0
1, 41835, Note_on_c, 0, 45, 0
1, 41835, Note_on_c, 0, 73, 0
1, 41844, Note_on_c, 0, 55, 0
1, 41861, Note_on_c, 0, 85, 80
1, 41872, Note_on_c, 0, 85, 0
1, 41958, Note_on_c, 0, 73, 46
1, 41959, Note_on_c, 0, 70, 63
1, 41959, Note_on_c, 0, 76, 58
1, 41961, Note_on_c, 0, 79, 45
1, 41963, Note_on_c, 0, 82, 36
1, 41964, Control_c, 0, 64, 0
1, 41975, Control_c, 0, 64, 127
1, 41980, Note_on_c, 0, 79, 0
1, 41982, Note_on_c, 0, 76, 0
1, 41983, Note_on_c, 0, 82, 0
1, 41997, Note_on_c, 0, 73, 0
1, 42001, Note_on_c, 0, 70, 0
1, 42013, Note_on_c, 0, 70, 42
1, 42013, Note_on_c, 0, 76, 42
1, 42014, Note_on_c, 0, 73, 25
1, 42015, Note_on_c, 0, 69, 41
1, 42021, Note_on_c, 0, 69, 0
1, 42043, Note_on_c, 0, 76, 0
1, 42046, Note_on_c, 0, 70, 0
1, 42055, Note_on_c, 0, 79, 68
1, 42080, Note_on_c, 0, 79, 0
1, 42089, Note_on_c, 0, 73, 0
1, 42097, Note_on_c, 0, 77, 53
1, 42098, Control_c, 0, 64, 0
1, 42099, Note_on_c, 0, 69, 38
1, 42100, Note_on_c, 0, 50, 43
1, 42117, Control_c, 0, 64, 127
1, 42118, Note_on_c, 0, 77, 0
1, 42122, Note_on_c, 0, 69, 0
1, 42143, Note_on_c, 0, 69, 44
1, 42144, Note_on_c, 0, 65, 46
1, 42144, Note_on_c, 0, 61, 37
1, 42151, Control_c, 0, 64, 0
1, 42181, Note_on_c, 0, 61, 0
1, 42185, Note_on_c, 0, 76, 63
1, 42193, Note_on_c, 0, 60, 41
1, 42195, Control_c, 0, 64, 127
1, 42221, Note_on_c, 0, 65, 0
1, 42222, Note_on_c, 0, 69, 0
1, 42234, Note_on_c, 0, 74, 63
1, 42236, Note_on_c, 0, 76, 0
1, 42240, Note_on_c, 0, 65, 20
1, 42250, Note_on_c, 0, 65, 0
1, 42265, Note_on_c, 0, 50, 0
1, 42275, Note_on_c, 0, 74, 0
1, 42279, Note_on_c, 0, 60, 0
1, 42282, Note_on_c, 0, 57, 44
1, 42323, Note_on_c, 0, 50, 47
1, 42340, Note_on_c, 0, 50, 0
1, 42370, Note_on_c, 0, 48, 45
1, 42371, Note_on_c, 0, 65, 46
1, 42372, Note_on_c, 0, 69, 45
1, 42374, Note_on_c, 0, 60, 29
1, 42378, Control_c, 0, 64, 0
1, 42394, Note_on_c, 0, 57, 0
1, 42407, Control_c, 0, 64, 127
1, 42408, Note_on_c, 0, 60, 0
1, 42422, Note_on_c, 0, 60, 35
1, 42427, Note_on_c, 0, 65, 0
1, 42463, Note_on_c, 0, 60, 0
1, 42472, Note_on_c, 0, 69, 0
1, 42523, Note_on_c, 0, 57, 45
1, 42613, Note_on_c, 0, 57, 0
1, 42616, Note_on_c, 0, 48, 0
1, 42664, Note_on_c, 0, 61, 32
1, 42666, Note_on_c, 0, 72, 44
1, 42666, Note_on_c, 0, 56, 31
1, 42667, Note_on_c, 0, 65, 46
1, 42668, Note_on_c, 0, 46, 29
1, 42670, Control_c, 0, 64, 0
1, 42690, Control_c, 0, 64, 127
1, 42702, Note_on_c, 0, 72, 0
1, 42706, Note_on_c, 0, 65, 0
1, 42714, Note_on_c, 0, 61, 0
1, 42727, Note_on_c, 0, 60, 43
1, 42735, Note_on_c, 0, 60, 0
1, 42743, Note_on_c, 0, 61, 45
1, 42754, Note_on_c, 0, 61, 0
1, 42756, Control_c, 0, 64, 0
1, 42758, Note_on_c, 0, 56, 0
1, 42768, Note_on_c, 0, 65, 50
1, 42774, Note_on_c, 0, 65, 0
1, 42815, Note_on_c, 0, 56, 35
1, 42817, Note_on_c, 0, 70, 65
1, 42836, Note_on_c, 0, 70, 0
1, 42886, Note_on_c, 0, 69, 69
1, 42896, Note_on_c, 0, 46, 0
1, 42901, Note_on_c, 0, 69, 0
1, 42903, Note_on_c, 0, 56, 0
1, 42907, Note_on_c, 0, 70, 59
1, 42919, Note_on_c, 0, 70, 0
1, 42930, Note_on_c, 0, 72, 63
1, 42933, Control_c, 0, 64, 127
1, 42943, Note_on_c, 0, 72, 0
1, 42950, Note_on_c, 0, 73, 36
1, 42967, Note_on_c, 0, 73, 0
1, 42967, Control_c, 0, 64, 0
1, 42970, Note_on_c, 0, 63, 32
1, 42973, Note_on_c, 0, 75, 46
1, 42973, Note_on_c, 0, 52, 37
1, 42974, Note_on_c, 0, 58, 37
1, 42983, Note_on_c, 0, 75, 0
1, 42995, Note_on_c, 0, 76, 37
1, 43002, Note_on_c, 0, 76, 0
1, 43010, Note_on_c, 0, 78, 34
1, 43018, Note_on_c, 0, 78, 0
1, 43019, Note_on_c, 0, 63, 0
1, 43024, Note_on_c, 0, 52, 0
1, 43027, Note_on_c, 0, 79, 36
1, 43032, Note_on_c, 0, 58, 0
1, 43039, Note_on_c, 0, 79, 0
1, 43043, Note_on_c, 0, 81, 47
1, 43056, Note_on_c, 0, 81, 0
1, 43058, Note_on_c, 0, 82, 52
1, 43065, Note_on_c, 0, 82, 0
1, 43073, Note_on_c, 0, 84, 47
1, 43083, Note_on_c, 0, 84, 0
1, 43092, Note_on_c, 0, 85, 49
1, 43101, Note_on_c, 0, 85, 0
1, 43113, Note_on_c, 0, 87, 67
1, 43118, Note_on_c, 0, 58, 31
1, 43119, Note_on_c, 0, 87, 0
1, 43124, Note_on_c, 0, 48, 28
1, 43137, Note_on_c, 0, 88, 68
1, 43147, Note_on_c, 0, 88, 0
1, 43164, Note_on_c, 0, 91, 81
1, 43178, Note_on_c, 0, 91, 0
1, 43187, Note_on_c, 0, 48, 0
1, 43190, Note_on_c, 0, 58, 0
1, 43194, Note_on_c, 0, 89, 78
1, 43209, Note_on_c, 0, 89, 0
1, 43215, Control_c, 0, 64, 127
1, 43217, Note_on_c, 0, 84, 66
1, 43231, Note_on_c, 0, 84, 0
1, 43241, Note_on_c, 0, 80, 51
1, 43261, Note_on_c, 0, 80, 0
1, 43265, Note_on_c, 0, 79, 41
1, 43270, Note_on_c, 0, 41, 35
1, 43271, Note_on_c, 0, 50, 31
1, 43271, Control_c, 0, 64, 0
1, 43281, Note_on_c, 0, 79, 0
1, 43293, Note_on_c, 0, 82, 56
1, 43315, Note_on_c, 0, 82, 0
1, 43318, Note_on_c, 0, 41, 0
1, 43323, Note_on_c, 0, 80, 56
1, 43324, Note_on_c, 0, 50, 0
1, 43339, Note_on_c, 0, 80, 0
1, 43345, Note_on_c, 0, 82, 43
1, 43351, Note_on_c, 0, 80, 35
1, 43361, Note_on_c, 0, 82, 0
1, 43366, Note_on_c, 0, 79, 37
1, 43369, Note_on_c, 0, 80, 0
1, 43377, Note_on_c, 0, 79, 0
1, 43385, Control_c, 0, 64, 127
1, 43387, Note_on_c, 0, 76, 48
1, 43401, Note_on_c, 0, 76, 0
1, 43408, Note_on_c, 0, 79, 58
1, 43417, Note_on_c, 0, 56, 29
1, 43417, Note_on_c, 0, 60, 32
1, 43417, Note_on_c, 0, 62, 28
1, 43419, Note_on_c, 0, 53, 35
1, 43420, Control_c, 0, 64, 0
1, 43425, Note_on_c, 0, 79, 0
1, 43450, Note_on_c, 0, 77, 56
1, 43466, Note_on_c, 0, 77, 0
1, 43472, Control_c, 0, 64, 127
1, 43473, Note_on_c, 0, 72, 50
1, 43489, Note_on_c, 0, 72, 0
1, 43531, Note_on_c, 0, 60, 0
1, 43532, Note_on_c, 0, 67, 43
1, 43534, Note_on_c, 0, 62, 0
1, 43541, Note_on_c, 0, 56, 0
1, 43541, Note_on_c, 0, 53, 0
1, 43543, Note_on_c, 0, 67, 0
1, 43558, Note_on_c, 0, 68, 62
1, 43559, Note_on_c, 0, 74, 54
1, 43565, Note_on_c, 0, 56, 37
1, 43566, Note_on_c, 0, 60, 32
1, 43566, Note_on_c, 0, 50, 39
1, 43569, Control_c, 0, 64, 0
1, 43585, Note_on_c, 0, 74, 0
1, 43585, Note_on_c, 0, 68, 0
1, 43585, Note_on_c, 0, 65, 54
1, 43593, Note_on_c, 0, 65, 0
1, 43605, Note_on_c, 0, 74, 51
1, 43607, Note_on_c, 0, 67, 50
1, 43622, Note_on_c, 0, 74, 0
1, 43629, Note_on_c, 0, 60, 0
1, 43630, Note_on_c, 0, 67, 0
1, 43640, Note_on_c, 0, 60, 34
1, 43648, Control_c, 0, 64, 127
1, 43649, Note_on_c, 0, 60, 0
1, 43660, Note_on_c, 0, 65, 58
1, 43667, Note_on_c, 0, 56, 0
1, 43714, Note_on_c, 0, 56, 33
1, 43718, Note_on_c, 0, 60, 20
1, 43736, Note_on_c, 0, 50, 0
1, 43750, Note_on_c, 0, 60, 0
1, 43803, Note_on_c, 0, 65, 0
1, 43804, Note_on_c, 0, 50, 44
1, 43822, Note_on_c, 0, 50, 0
1, 43832, Note_on_c, 0, 56, 0
1, 43856, Note_on_c, 0, 53, 47
1, 43858, Note_on_c, 0, 59, 40
1, 43858, Note_on_c, 0, 65, 53
1, 43858, Note_on_c, 0, 63, 37
1, 43861, Note_on_c, 0, 49, 33
1, 43861, Control_c, 0, 64, 0
1, 43889, Control_c, 0, 64, 127
1, 43911, Note_on_c, 0, 59, 0
1, 43917, Note_on_c, 0, 63, 0
1, 43929, Note_on_c, 0, 65, 0
1, 43946, Note_on_c, 0, 53, 0
1, 43949, Note_on_c, 0, 63, 67
1, 43949, Note_on_c, 0, 55, 65
1, 43950, Note_on_c, 0, 59, 71
1, 43951, Note_on_c, 0, 67, 69
1, 43987, Note_on_c, 0, 59, 0
1, 43996, Note_on_c, 0, 63, 0
1, 44001, Note_on_c, 0, 55, 0
1, 44001, Control_c, 0, 64, 0
1, 44004, Note_on_c, 0, 63, 47
1, 44005, Note_on_c, 0, 59, 56
1, 44005, Note_on_c, 0, 53, 54
1, 44006, Note_on_c, 0, 65, 68
1, 44014, Control_c, 0, 64, 127
1, 44029, Note_on_c, 0, 49, 0
1, 44031, Note_on_c, 0, 53, 0
1, 44031, Note_on_c, 0, 59, 0
1, 44035, Note_on_c, 0, 67, 0
1, 44038, Note_on_c, 0, 63, 0
1, 44039, Note_on_c, 0, 65, 0
1, 44091, Note_on_c, 0, 76, 83
1, 44092, Note_on_c, 0, 73, 74
1, 44092, Note_on_c, 0, 84, 80
1, 44093, Note_on_c, 0, 72, 91
1, 44094, Note_on_c, 0, 79, 53
1, 44095, Note_on_c, 0, 82, 45
1, 44096, Control_c, 0, 64, 0
1, 44115, Control_c, 0, 64, 127
1, 44124, Note_on_c, 0, 82, 0
1, 44124, Note_on_c, 0, 76, 0
1, 44124, Note_on_c, 0, 84, 0
1, 44124, Note_on_c, 0, 79, 0
1, 44128, Note_on_c, 0, 72, 0
1, 44136, Note_on_c, 0, 73, 0
1, 44170, Note_on_c, 0, 81, 63
1, 44170, Note_on_c, 0, 67, 55
1, 44171, Note_on_c, 0, 73, 49
1, 44171, Note_on_c, 0, 76, 60
1, 44173, Note_on_c, 0, 70, 51
1, 44177, Control_c, 0, 64, 0
1, 44195, Control_c, 0, 64, 127
1, 44203, Note_on_c, 0, 81, 0
1, 44214, Note_on_c, 0, 76, 0
1, 44215, Note_on_c, 0, 67, 0
1, 44218, Note_on_c, 0, 73, 0
1, 44221, Note_on_c, 0, 70, 0
1, 44310, Note_on_c, 0, 70, 55
1, 44310, Note_on_c, 0, 75, 56
1, 44311, Note_on_c, 0, 67, 47
1, 44311, Note_on_c, 0, 63, 48
1, 44325, Note_on_c, 0, 63, 0
1, 44327, Note_on_c, 0, 67, 0
1, 44327, Note_on_c, 0, 75, 0
1, 44333, Note_on_c, 0, 70, 0
1, 44333, Control_c, 0, 64, 0
1, 44353, Note_on_c, 0, 63, 46
1, 44353, Note_on_c, 0, 73, 27
1, 44353, Note_on_c, 0, 68, 59
1, 44360, Note_on_c, 0, 58, 37
1, 44362, Control_c, 0, 64, 127
1, 44378, Note_on_c, 0, 68, 0
1, 44378, Note_on_c, 0, 73, 0
1, 44388, Note_on_c, 0, 63, 0
1, 44392, Note_on_c, 0, 58, 0
1, 44395, Control_c, 0, 64, 0
1, 44399, Note_on_c, 0, 67, 41
1, 44400, Note_on_c, 0, 72, 44
1, 44400, Note_on_c, 0, 57, 38
1, 44401, Note_on_c, 0, 62, 40
1, 44412, Note_on_c, 0, 57, 0
1, 44416, Control_c, 0, 64, 127
1, 44444, Note_on_c, 0, 48, 40
1, 44455, Note_on_c, 0, 72, 0
1, 44455, Control_c, 0, 64, 0
1, 44457, Note_on_c, 0, 67, 0
1, 44459, Note_on_c, 0, 48, 0
1, 44471, Note_on_c, 0, 62, 0
1, 44487, Note_on_c, 0, 41, 32
1, 44498, Control_c, 0, 64, 127
1, 44529, Control_c, 0, 64, 0
1, 44533, Note_on_c, 0, 51, 50
1, 44535, Note_on_c, 0, 67, 40
1, 44535, Note_on_c, 0, 57, 47
1, 44535, Note_on_c, 0, 62, 50
1, 44546, Note_on_c, 0, 62, 0
1, 44546, Note_on_c, 0, 67, 0
1, 44552, Control_c, 0, 64, 127
1, 44554, Note_on_c, 0, 57, 0
1, 44557, Note_on_c, 0, 51, 0
1, 44612, Note_on_c, 0, 55, 43
1, 44612, Note_on_c, 0, 50, 44
1, 44612, Note_on_c, 0, 60, 51
1, 44613, Note_on_c, 0, 65, 47
1, 44615, Control_c, 0, 64, 0
1, 44658, Control_c, 0, 64, 127
1, 44704, Note_on_c, 0, 41, 0
1, 44705, Note_on_c, 0, 50, 0
1, 44714, Note_on_c, 0, 48, 61
1, 44740, Note_on_c, 0, 48, 0
1, 44743, Note_on_c, 0, 55, 0
1, 44754, Note_on_c, 0, 48, 63
1, 44756, Note_on_c, 0, 60, 0
1, 44761, Note_on_c, 0, 65, 0
1, 44795, Note_on_c, 0, 41, 81
1, 44806, Note_on_c, 0, 48, 0
1, 44810, Note_on_c, 0, 41, 0
1, 44882, Note_on_c, 0, 70, 90
1, 44883, Note_on_c, 0, 77, 75
1, 44883, Note_on_c, 0, 67, 91
1, 44883, Note_on_c, 0, 74, 74
1, 44884, Note_on_c, 0, 62, 87
1, 44942, Note_on_c, 0, 67, 0
1, 44945, Note_on_c, 0, 70, 0
1, 44947, Note_on_c, 0, 74, 0
1, 44948, Note_on_c, 0, 77, 0
1, 44964, Note_on_c, 0, 62, 0
1, 44967, Note_on_c, 0, 75, 74
1, 44969, Note_on_c, 0, 70, 77
1, 44969, Note_on_c, 0, 67, 66
1, 44971, Note_on_c, 0, 60, 61
1, 45012, Note_on_c, 0, 60, 0
1, 45028, Note_on_c, 0, 67, 0
1, 45034, Note_on_c, 0, 70, 0
1, 45051, Note_on_c, 0, 75, 0
1, 45059, Note_on_c, 0, 41, 58
1, 45065, Note_on_c, 0, 67, 37
1, 45067, Note_on_c, 0, 70, 25
1, 45079, Note_on_c, 0, 70, 0
1, 45079, Note_on_c, 0, 41, 0
1, 45081, Note_on_c, 0, 67, 0
1, 45146, Note_on_c, 0, 68, 52
1, 45146, Note_on_c, 0, 61, 45
1, 45148, Note_on_c, 0, 65, 59
1, 45149, Note_on_c, 0, 57, 40
1, 45149, Note_on_c, 0, 51, 36
1, 45157, Control_c, 0, 64, 0
1, 45199, Control_c, 0, 64, 127
1, 45237, Note_on_c, 0, 57, 0
1, 45240, Note_on_c, 0, 51, 0
1, 45286, Note_on_c, 0, 61, 0
1, 45297, Note_on_c, 0, 65, 0
1, 45308, Note_on_c, 0, 68, 0
1, 45324, Note_on_c, 0, 41, 40
1, 45335, Note_on_c, 0, 41, 0
1, 45409, Note_on_c, 0, 85, 55
1, 45412, Note_on_c, 0, 73, 26
1, 45431, Note_on_c, 0, 85, 0
1, 45439, Note_on_c, 0, 73, 0
1, 45443, Note_on_c, 0, 65, 42
1, 45444, Note_on_c, 0, 74, 55
1, 45446, Note_on_c, 0, 86, 47
1, 45448, Note_on_c, 0, 62, 22
1, 45449, Note_on_c, 0, 60, 27
1, 45449, Control_c, 0, 64, 0
1, 45462, Note_on_c, 0, 86, 0
1, 45465, Note_on_c, 0, 74, 0
1, 45467, Note_on_c, 0, 60, 0
1, 45467, Note_on_c, 0, 62, 0
1, 45468, Note_on_c, 0, 65, 0
1, 45480, Control_c, 0, 64, 127
1, 45511, Control_c, 0, 64, 0
1, 45531, Note_on_c, 0, 65, 32
1, 45533, Control_c, 0, 64, 127
1, 45537, Note_on_c, 0, 60, 31
1, 45553, Note_on_c, 0, 65, 0
1, 45554, Note_on_c, 0, 60, 0
1, 45554, Control_c, 0, 64, 0
1, 45618, Note_on_c, 0, 57, 44
1, 45619, Note_on_c, 0, 62, 29
1, 45620, Note_on_c, 0, 65, 34
1, 45621, Note_on_c, 0, 88, 61
1, 45622, Note_on_c, 0, 76, 34
1, 45624, Note_on_c, 0, 81, 35
1, 45646, Note_on_c, 0, 81, 0
1, 45652, Note_on_c, 0, 88, 0
1, 45652, Note_on_c, 0, 76, 0
1, 45657, Control_c, 0, 64, 127
1, 45658, Note_on_c, 0, 65, 0
1, 45664, Note_on_c, 0, 57, 0
1, 45669, Note_on_c, 0, 62, 0
1, 45676, Note_on_c, 0, 76, 50
1, 45676, Note_on_c, 0, 88, 44
1, 45680, Note_on_c, 0, 81, 42
1, 45681, Note_on_c, 0, 83, 32
1, 45688, Note_on_c, 0, 88, 0
1, 45690, Note_on_c, 0, 76, 0
1, 45690, Note_on_c, 0, 81, 0
1, 45696, Note_on_c, 0, 83, 0
1, 45699, Control_c, 0, 64, 0
1, 45700, Note_on_c, 0, 62, 41
1, 45703, Note_on_c, 0, 65, 42
1, 45705, Note_on_c, 0, 74, 38
1, 45705, Note_on_c, 0, 81, 36
1, 45706, Note_on_c, 0, 86, 33
1, 45706, Note_on_c, 0, 56, 33
1, 45721, Control_c, 0, 64, 127
1, 45733, Note_on_c, 0, 86, 0
1, 45735, Note_on_c, 0, 74, 0
1, 45736, Note_on_c, 0, 62, 0
1, 45736, Note_on_c, 0, 65, 0
1, 45738, Note_on_c, 0, 81, 0
1, 45753, Note_on_c, 0, 56, 0
1, 45762, Note_on_c, 0, 73, 39
1, 45762, Note_on_c, 0, 85, 60
1, 45773, Control_c, 0, 64, 0
1, 45783, Note_on_c, 0, 85, 0
1, 45785, Note_on_c, 0, 64, 34
1, 45788, Note_on_c, 0, 54, 29
1, 45788, Note_on_c, 0, 61, 29
1, 45791, Note_on_c, 0, 73, 0
1, 45791, Note_on_c, 0, 59, 35
1, 45794, Control_c, 0, 64, 127
1, 45798, Note_on_c, 0, 59, 0
1, 45799, Note_on_c, 0, 64, 0
1, 45801, Note_on_c, 0, 61, 0
1, 45807, Note_on_c, 0, 54, 0
1, 45847, Note_on_c, 0, 45, 63
1, 45881, Note_on_c, 0, 52, 56
1, 45887, Note_on_c, 0, 45, 0
1, 45893, Note_on_c, 0, 52, 0
1, 45936, Note_on_c, 0, 68, 73
1, 45936, Note_on_c, 0, 63, 71
1, 45937, Note_on_c, 0, 72, 71
1, 45937, Note_on_c, 0, 75, 60
1, 45947, Control_c, 0, 64, 0
1, 45967, Control_c, 0, 64, 127
1, 45984, Note_on_c, 0, 72, 0
1, 45992, Note_on_c, 0, 68, 0
1, 46003, Note_on_c, 0, 63, 0
1, 46005, Note_on_c, 0, 75, 0
1, 46027, Note_on_c, 0, 73, 35
1, 46027, Note_on_c, 0, 63, 54
1, 46030, Note_on_c, 0, 70, 46
1, 46031, Note_on_c, 0, 67, 48
1, 46034, Note_on_c, 0, 55, 39
1, 46040, Control_c, 0, 64, 0
1, 46061, Control_c, 0, 64, 127
1, 46072, Note_on_c, 0, 45, 47
1, 46097, Note_on_c, 0, 67, 0
1, 46106, Note_on_c, 0, 63, 0
1, 46108, Note_on_c, 0, 73, 0
1, 46108, Note_on_c, 0, 45, 0
1, 46112, Note_on_c, 0, 70, 0
1, 46115, Note_on_c, 0, 55, 0
1, 46121, Note_on_c, 0, 67, 44
1, 46122, Note_on_c, 0, 72, 64
1, 46124, Note_on_c, 0, 51, 36
1, 46124, Note_on_c, 0, 60, 35
1, 46128, Note_on_c, 0, 44, 50
1, 46131, Control_c, 0, 64, 0
1, 46154, Control_c, 0, 64, 127
1, 46156, Note_on_c, 0, 67, 0
1, 46163, Note_on_c, 0, 72, 0
1, 46181, Note_on_c, 0, 60, 0
1, 46208, Note_on_c, 0, 63, 45
1, 46208, Note_on_c, 0, 55, 39
1, 46212, Note_on_c, 0, 60, 36
1, 46227, Note_on_c, 0, 44, 0
1, 46231, Note_on_c, 0, 60, 0
1, 46237, Note_on_c, 0, 51, 0
1, 46242, Note_on_c, 0, 55, 0
1, 46243, Note_on_c, 0, 63, 0
1, 46268, Note_on_c, 0, 67, 49
1, 46278, Note_on_c, 0, 67, 0
1, 46295, Note_on_c, 0, 74, 79
1, 46310, Note_on_c, 0, 74, 0
1, 46323, Note_on_c, 0, 71, 48
1, 46325, Control_c, 0, 64, 0
1, 46326, Note_on_c, 0, 50, 29
1, 46326, Note_on_c, 0, 60, 27
1, 46344, Note_on_c, 0, 71, 0
1, 46346, Note_on_c, 0, 50, 0
1, 46353, Note_on_c, 0, 60, 0
1, 46354, Note_on_c, 0, 72, 49
1, 46365, Note_on_c, 0, 72, 0
1, 46369, Control_c, 0, 64, 127
1, 46380, Note_on_c, 0, 74, 70
1, 46384, Control_c, 0, 64, 0
1, 46398, Note_on_c, 0, 74, 0
1, 46402, Note_on_c, 0, 54, 25
1, 46409, Note_on_c, 0, 75, 45
1, 46413, Control_c, 0, 64, 127
1, 46422, Note_on_c, 0, 75, 0
1, 46428, Note_on_c, 0, 54, 0
1, 46462, Note_on_c, 0, 78, 58
1, 46482, Note_on_c, 0, 78, 0
1, 46488, Note_on_c, 0, 43, 38
1, 46489, Control_c, 0, 64, 0
1, 46490, Note_on_c, 0, 83, 69
1, 46494, Note_on_c, 0, 43, 0
1, 46504, Note_on_c, 0, 83, 0
1, 46519, Note_on_c, 0, 78, 45
1, 46532, Note_on_c, 0, 78, 0
1, 46545, Note_on_c, 0, 76, 64
1, 46548, Note_on_c, 0, 64, 47
1, 46549, Note_on_c, 0, 54, 34
1, 46552, Note_on_c, 0, 59, 43
1, 46554, Control_c, 0, 64, 127
1, 46563, Note_on_c, 0, 76, 0
1, 46588, Control_c, 0, 64, 0
1, 46592, Note_on_c, 0, 64, 0
1, 46598, Note_on_c, 0, 59, 0
1, 46602, Control_c, 0, 64, 127
1, 46606, Note_on_c, 0, 66, 23
1, 46607, Note_on_c, 0, 54, 0
1, 46622, Note_on_c, 0, 66, 0
1, 46623, Control_c, 0, 64, 0
1, 46630, Note_on_c, 0, 62, 34
1, 46634, Control_c, 0, 64, 127
1, 46640, Note_on_c, 0, 62, 0
1, 46658, Note_on_c, 0, 64, 88
1, 46659, Note_on_c, 0, 71, 71
1, 46662, Note_on_c, 0, 43, 47
1, 46663, Note_on_c, 0, 54, 51
1, 46663, Control_c, 0, 64, 0
1, 46691, Note_on_c, 0, 66, 43
1, 46693, Note_on_c, 0, 64, 0
1, 46720, Note_on_c, 0, 59, 40
1, 46726, Control_c, 0, 64, 127
1, 46740, Note_on_c, 0, 59, 0
1, 46752, Note_on_c, 0, 59, 60
1, 46770, Note_on_c, 0, 59, 0
1, 46782, Note_on_c, 0, 71, 0
1, 46782, Note_on_c, 0, 59, 57
1, 46800, Note_on_c, 0, 59, 0
1, 46810, Note_on_c, 0, 43, 0
1, 46812, Note_on_c, 0, 59, 43
1, 46814, Note_on_c, 0, 50, 55
1, 46821, Note_on_c, 0, 66, 0
1, 46826, Note_on_c, 0, 59, 0
1, 46836, Note_on_c, 0, 54, 0
1, 46841, Note_on_c, 0, 44, 53
1, 46854, Note_on_c, 0, 50, 0
1, 46862, Note_on_c, 0, 44, 0
1, 46872, Note_on_c, 0, 69, 71
1, 46872, Note_on_c, 0, 58, 74
1, 46873, Note_on_c, 0, 62, 74
1, 46874, Note_on_c, 0, 52, 71
1, 46874, Note_on_c, 0, 64, 64
1, 46877, Control_c, 0, 64, 0
1, 46905, Control_c, 0, 64, 127
1, 46923, Note_on_c, 0, 62, 0
1, 46924, Note_on_c, 0, 52, 0
1, 46925, Note_on_c, 0, 58, 0
1, 46926, Note_on_c, 0, 69, 0
1, 46926, Note_on_c, 0, 64, 0
1, 46962, Control_c, 0, 64, 0
1, 46963, Note_on_c, 0, 61, 69
1, 46963, Note_on_c, 0, 70, 76
1, 46963, Note_on_c, 0, 55, 70
1, 46964, Note_on_c, 0, 65, 82
1, 46983, Control_c, 0, 64, 127
1, 47010, Note_on_c, 0, 70, 0
1, 47011, Note_on_c, 0, 65, 0
1, 47017, Note_on_c, 0, 55, 0
1, 47020, Note_on_c, 0, 61, 0
1, 47024, Note_on_c, 0, 73, 21
1, 47030, Note_on_c, 0, 73, 0
1, 47051, Control_c, 0, 64, 0
1, 47052, Note_on_c, 0, 72, 70
1, 47053, Note_on_c, 0, 45, 56
1, 47054, Note_on_c, 0, 55, 51
1, 47054, Note_on_c, 0, 61, 58
1, 47054, Note_on_c, 0, 65, 74
1, 47055, Note_on_c, 0, 69, 54
1, 47078, Control_c, 0, 64, 127
1, 47085, Note_on_c, 0, 69, 0
1, 47089, Note_on_c, 0, 72, 0
1, 47091, Note_on_c, 0, 65, 0
1, 47099, Note_on_c, 0, 55, 0
1, 47101, Note_on_c, 0, 61, 0
1, 47144, Control_c, 0, 64, 0
1, 47144, Note_on_c, 0, 69, 51
1, 47145, Note_on_c, 0, 55, 33
1, 47146, Note_on_c, 0, 61, 37
1, 47146, Note_on_c, 0, 58, 34
1, 47146, Note_on_c, 0, 64, 50
1, 47148, Control_c, 0, 64, 127
1, 47163, Note_on_c, 0, 45, 0
1, 47174, Note_on_c, 0, 64, 0
1, 47181, Note_on_c, 0, 58, 0
1, 47183, Note_on_c, 0, 61, 0
1, 47193, Note_on_c, 0, 69, 0
1, 47194, Note_on_c, 0, 55, 0
1, 47204, Note_on_c, 0, 65, 61
1, 47204, Note_on_c, 0, 62, 55
1, 47206, Note_on_c, 0, 50, 44
1, 47207, Note_on_c, 0, 57, 32
1, 47208, Control_c, 0, 64, 0
1, 47209, Note_on_c, 0, 59, 26
1, 47223, Note_on_c, 0, 59, 0
1, 47229, Control_c, 0, 64, 127
1, 47232, Note_on_c, 0, 62, 0
1, 47233, Note_on_c, 0, 65, 0
1, 47274, Note_on_c, 0, 76, 66
1, 47276, Note_on_c, 0, 69, 66
1, 47277, Note_on_c, 0, 65, 61
1, 47282, Note_on_c, 0, 62, 25
1, 47286, Note_on_c, 0, 65, 0
1, 47286, Note_on_c, 0, 57, 0
1, 47292, Note_on_c, 0, 76, 0
1, 47293, Note_on_c, 0, 62, 0
1, 47293, Note_on_c, 0, 69, 0
1, 47303, Note_on_c, 0, 74, 42
1, 47319, Control_c, 0, 64, 0
1, 47321, Note_on_c, 0, 74, 0
1, 47330, Note_on_c, 0, 76, 64
1, 47332, Note_on_c, 0, 69, 53
1, 47333, Note_on_c, 0, 65, 48
1, 47334, Note_on_c, 0, 60, 42
1, 47336, Control_c, 0, 64, 127
1, 47354, Note_on_c, 0, 50, 0
1, 47363, Note_on_c, 0, 76, 0
1, 47370, Note_on_c, 0, 65, 0
1, 47373, Note_on_c, 0, 69, 0
1, 47379, Note_on_c, 0, 60, 0
1, 47387, Note_on_c, 0, 65, 57
1, 47388, Note_on_c, 0, 74, 49
1, 47389, Note_on_c, 0, 70, 51
1, 47390, Note_on_c, 0, 54, 40
1, 47396, Control_c, 0, 64, 0
1, 47423, Control_c, 0, 64, 127
1, 47438, Note_on_c, 0, 65, 0
1, 47459, Note_on_c, 0, 70, 0
1, 47475, Note_on_c, 0, 74, 0
1, 47482, Note_on_c, 0, 65, 50
1, 47484, Note_on_c, 0, 60, 31
1, 47512, Control_c, 0, 64, 0
1, 47547, Note_on_c, 0, 80, 61
1, 47555, Note_on_c, 0, 65, 0
1, 47556, Note_on_c, 0, 60, 0
1, 47561, Note_on_c, 0, 80, 0
1, 47573, Note_on_c, 0, 81, 66
1, 47575, Control_c, 0, 64, 127
1, 47587, Note_on_c, 0, 54, 0
1, 47588, Note_on_c, 0, 81, 0
1, 47596, Control_c, 0, 64, 0
1, 47602, Note_on_c, 0, 88, 77
1, 47602, Note_on_c, 0, 53, 39
1, 47602, Note_on_c, 0, 64, 29
1, 47604, Note_on_c, 0, 59, 34
1, 47613, Note_on_c, 0, 88, 0
1, 47629, Note_on_c, 0, 88, 62
1, 47642, Note_on_c, 0, 88, 0
1, 47660, Note_on_c, 0, 81, 54
1, 47662, Control_c, 0, 64, 127
1, 47671, Note_on_c, 0, 81, 0
1, 47679, Note_on_c, 0, 64, 0
1, 47683, Note_on_c, 0, 59, 0
1, 47689, Note_on_c, 0, 53, 0
1, 47693, Note_on_c, 0, 88, 57
1, 47700, Note_on_c, 0, 88, 0
1, 47720, Note_on_c, 0, 88, 65
1, 47734, Note_on_c, 0, 88, 0
1, 47748, Note_on_c, 0, 81, 57
1, 47750, Note_on_c, 0, 43, 49
1, 47753, Control_c, 0, 64, 0
1, 47759, Note_on_c, 0, 81, 0
1, 47771, Note_on_c, 0, 43, 0
1, 47779, Note_on_c, 0, 88, 50
1, 47787, Note_on_c, 0, 88, 0
1, 47802, Control_c, 0, 64, 127
1, 47809, Note_on_c, 0, 88, 61
1, 47822, Note_on_c, 0, 88, 0
1, 47839, Note_on_c, 0, 64, 44
1, 47839, Control_c, 0, 64, 0
1, 47839, Note_on_c, 0, 81, 46
1, 47841, Note_on_c, 0, 59, 35
1, 47843, Note_on_c, 0, 53, 19
1, 47847, Note_on_c, 0, 81, 0
1, 47871, Note_on_c, 0, 88, 55
1, 47878, Note_on_c, 0, 88, 0
1, 47888, Control_c, 0, 64, 127
1, 47898, Note_on_c, 0, 88, 62
1, 47902, Note_on_c, 0, 64, 0
1, 47904, Note_on_c, 0, 59, 0
1, 47912, Note_on_c, 0, 88, 0
1, 47918, Note_on_c, 0, 53, 0
1, 47927, Note_on_c, 0, 80, 51
1, 47946, Note_on_c, 0, 80, 0
1, 47954, Control_c, 0, 64, 0
1, 47955, Note_on_c, 0, 62, 38
1, 47957, Note_on_c, 0, 58, 33
1, 47958, Note_on_c, 0, 57, 28
1, 48002, Control_c, 0, 64, 127
1, 48013, Note_on_c, 0, 79, 69
1, 48027, Control_c, 0, 64, 0
1, 48031, Note_on_c, 0, 79, 0
1, 48045, Note_on_c, 0, 74, 24
1, 48049, Note_on_c, 0, 55, 22
1, 48053, Note_on_c, 0, 57, 0
1, 48056, Note_on_c, 0, 74, 0
1, 48070, Note_on_c, 0, 77, 40
1, 48085, Note_on_c, 0, 77, 0
1, 48087, Note_on_c, 0, 62, 0
1, 48091, Control_c, 0, 64, 127
1, 48095, Note_on_c, 0, 55, 0
1, 48096, Note_on_c, 0, 58, 0
1, 48099, Note_on_c, 0, 79, 68
1, 48115, Note_on_c, 0, 79, 0
1, 48128, Note_on_c, 0, 80, 61
1, 48130, Control_c, 0, 64, 0
1, 48130, Note_on_c, 0, 58, 25
1, 48130, Note_on_c, 0, 62, 34
1, 48132, Note_on_c, 0, 52, 31
1, 48137, Note_on_c, 0, 62, 0
1, 48142, Note_on_c, 0, 52, 0
1, 48147, Note_on_c, 0, 58, 0
1, 48147, Note_on_c, 0, 80, 0
1, 48157, Note_on_c, 0, 81, 55
1, 48163, Control_c, 0, 64, 127
1, 48172, Note_on_c, 0, 81, 0
1, 48183, Note_on_c, 0, 82, 67
1, 48200, Note_on_c, 0, 82, 0
1, 48211, Control_c, 0, 64, 0
1, 48212, Note_on_c, 0, 58, 34
1, 48213, Note_on_c, 0, 83, 61
1, 48214, Note_on_c, 0, 48, 37
1, 48220, Note_on_c, 0, 58, 0
1, 48222, Control_c, 0, 64, 127
1, 48223, Note_on_c, 0, 48, 0
1, 48227, Note_on_c, 0, 83, 0
1, 48241, Note_on_c, 0, 86, 75
1, 48256, Note_on_c, 0, 86, 0
1, 48271, Note_on_c, 0, 83, 54
1, 48288, Note_on_c, 0, 83, 0
1, 48295, Control_c, 0, 64, 0
1, 48297, Note_on_c, 0, 41, 17
1, 48301, Note_on_c, 0, 84, 59
1, 48304, Note_on_c, 0, 57, 35
1, 48309, Control_c, 0, 64, 127
1, 48315, Note_on_c, 0, 41, 0
1, 48328, Note_on_c, 0, 57, 0
1, 48345, Note_on_c, 0, 84, 0
1, 48362, Note_on_c, 0, 72, 51
1, 48389, Note_on_c, 0, 62, 40
1, 48393, Note_on_c, 0, 60, 24
1, 48397, Note_on_c, 0, 62, 0
1, 48401, Note_on_c, 0, 72, 0
1, 48411, Note_on_c, 0, 60, 0
1, 48485, Note_on_c, 0, 63, 78
1, 48515, Note_on_c, 0, 63, 0
1, 48574, Note_on_c, 0, 63, 50
1, 48574, Note_on_c, 0, 57, 36
1, 48575, Note_on_c, 0, 72, 49
1, 48576, Control_c, 0, 64, 0
1, 48576, Note_on_c, 0, 66, 39
1, 48576, Note_on_c, 0, 69, 48
1, 48588, Control_c, 0, 64, 127
1, 48612, Note_on_c, 0, 57, 0
1, 48617, Note_on_c, 0, 69, 0
1, 48619, Note_on_c, 0, 63, 0
1, 48629, Note_on_c, 0, 72, 0
1, 48629, Note_on_c, 0, 66, 0
1, 48659, Control_c, 0, 64, 0
1, 48659, Note_on_c, 0, 70, 48
1, 48662, Note_on_c, 0, 46, 37
1, 48662, Note_on_c, 0, 62, 47
1, 48663, Note_on_c, 0, 65, 47
1, 48666, Note_on_c, 0, 55, 27
1, 48674, Control_c, 0, 64, 127
1, 48696, Note_on_c, 0, 55, 0
1, 48705, Note_on_c, 0, 62, 0
1, 48710, Note_on_c, 0, 65, 0
1, 48711, Note_on_c, 0, 70, 0
1, 48720, Note_on_c, 0, 57, 51
1, 48722, Note_on_c, 0, 72, 71
1, 48723, Note_on_c, 0, 65, 68
1, 48724, Note_on_c, 0, 62, 53
1, 48730, Note_on_c, 0, 57, 0
1, 48739, Note_on_c, 0, 62, 0
1, 48745, Note_on_c, 0, 72, 0
1, 48747, Note_on_c, 0, 65, 0
1, 48754, Control_c, 0, 64, 0
1, 48755, Note_on_c, 0, 62, 43
1, 48757, Note_on_c, 0, 55, 39
1, 48757, Note_on_c, 0, 70, 38
1, 48767, Control_c, 0, 64, 127
1, 48768, Note_on_c, 0, 62, 0
1, 48783, Note_on_c, 0, 55, 0
1, 48786, Note_on_c, 0, 70, 0
1, 48801, Note_on_c, 0, 46, 0
1, 48814, Note_on_c, 0, 45, 60
1, 48816, Note_on_c, 0, 73, 37
1, 48817, Note_on_c, 0, 69, 55
1, 48817, Note_on_c, 0, 55, 35
1, 48818, Note_on_c, 0, 61, 39
1, 48822, Control_c, 0, 64, 0
1, 48838, Control_c, 0, 64, 127
1, 48847, Note_on_c, 0, 69, 0
1, 48851, Note_on_c, 0, 73, 0
1, 48855, Note_on_c, 0, 55, 0
1, 48863, Note_on_c, 0, 61, 0
1, 48904, Note_on_c, 0, 69, 57
1, 48907, Note_on_c, 0, 64, 57
1, 48907, Note_on_c, 0, 61, 46
1, 48907, Note_on_c, 0, 58, 35
1, 48908, Note_on_c, 0, 53, 34
1, 48914, Control_c, 0, 64, 0
1, 48935, Note_on_c, 0, 45, 0
1, 48941, Control_c, 0, 64, 127
1, 48954, Control_c, 0, 64, 0
1, 48957, Note_on_c, 0, 53, 0
1, 48966, Note_on_c, 0, 52, 54
1, 48973, Note_on_c, 0, 52, 0
1, 48977, Note_on_c, 0, 69, 0
1, 48986, Control_c, 0, 64, 127
1, 48987, Note_on_c, 0, 64, 0
1, 48989, Note_on_c, 0, 58, 0
1, 48994, Note_on_c, 0, 61, 0
1, 48994, Note_on_c, 0, 51, 39
1, 49014, Note_on_c, 0, 51, 0
1, 49018, Control_c, 0, 64, 0
1, 49024, Note_on_c, 0, 57, 40
1, 49025, Note_on_c, 0, 50, 48
1, 49026, Note_on_c, 0, 65, 45
1, 49026, Note_on_c, 0, 60, 43
1, 49055, Control_c, 0, 64, 127
1, 49084, Note_on_c, 0, 38, 47
1, 49092, Control_c, 0, 64, 0
1, 49119, Control_c, 0, 64, 127
1, 49147, Note_on_c, 0, 50, 0
1, 49173, Note_on_c, 0, 38, 0
1, 49175, Note_on_c, 0, 48, 55
1, 49182, Control_c, 0, 64, 0
1, 49229, Control_c, 0, 64, 127
1, 49256, Note_on_c, 0, 36, 50
1, 49260, Control_c, 0, 64, 0
1, 49286, Control_c, 0, 64, 127
1, 49295, Note_on_c, 0, 48, 0
1, 49300, Note_on_c, 0, 57, 0
1, 49316, Note_on_c, 0, 60, 0
1, 49334, Note_on_c, 0, 65, 0
1, 49345, Note_on_c, 0, 62, 50
1, 49346, Note_on_c, 0, 36, 0
1, 49348, Note_on_c, 0, 47, 40
1, 49349, Note_on_c, 0, 57, 38
1, 49354, Control_c, 0, 64, 0
1, 49376, Note_on_c, 0, 57, 0
1, 49380, Control_c, 0, 64, 127
1, 49388, Note_on_c, 0, 62, 0
1, 49437, Note_on_c, 0, 77, 68
1, 49439, Note_on_c, 0, 35, 58
1, 49445, Note_on_c, 0, 35, 0
1, 49452, Control_c, 0, 64, 0
1, 49454, Note_on_c, 0, 77, 0
1, 49455, Note_on_c, 0, 47, 0
1, 49465, Control_c, 0, 64, 127
1, 49477, Note_on_c, 0, 79, 50
1, 49491, Note_on_c, 0, 79, 0
1, 49528, Note_on_c, 0, 77, 48
1, 49538, Note_on_c, 0, 77, 0
1, 49562, Note_on_c, 0, 67, 43
1, 49563, Note_on_c, 0, 80, 68
1, 49563, Control_c, 0, 64, 0
1, 49563, Note_on_c, 0, 62, 41
1, 49564, Note_on_c, 0, 86, 56
1, 49564, Note_on_c, 0, 56, 35
1, 49579, Note_on_c, 0, 80, 0
1, 49580, Note_on_c, 0, 79, 46
1, 49590, Note_on_c, 0, 86, 0
1, 49603, Note_on_c, 0, 67, 0
1, 49603, Note_on_c, 0, 79, 0
1, 49607, Note_on_c, 0, 77, 33
1, 49618, Control_c, 0, 64, 127
1, 49624, Note_on_c, 0, 77, 0
1, 49631, Note_on_c, 0, 74, 54
1, 49644, Note_on_c, 0, 74, 0
1, 49651, Control_c, 0, 64, 0
1, 49655, Note_on_c, 0, 67, 28
1, 49658, Note_on_c, 0, 77, 64
1, 49664, Note_on_c, 0, 67, 0
1, 49674, Note_on_c, 0, 62, 0
1, 49675, Note_on_c, 0, 77, 0
1, 49683, Note_on_c, 0, 79, 55
1, 49686, Control_c, 0, 64, 127
1, 49691, Note_on_c, 0, 56, 0
1, 49698, Note_on_c, 0, 79, 0
1, 49716, Note_on_c, 0, 77, 49
1, 49719, Control_c, 0, 64, 0
1, 49720, Note_on_c, 0, 65, 41
1, 49722, Note_on_c, 0, 60, 30
1, 49733, Note_on_c, 0, 57, 5
1, 49743, Control_c, 0, 64, 127
1, 49746, Note_on_c, 0, 65, 0
1, 49753, Note_on_c, 0, 60, 0
1, 49756, Note_on_c, 0, 57, 0
1, 49843, Note_on_c, 0, 57, 64
1, 49848, Note_on_c, 0, 77, 0
1, 49871, Note_on_c, 0, 57, 0
1, 49928, Control_c, 0, 64, 0
1, 49929, Note_on_c, 0, 44, 35
1, 49930, Note_on_c, 0, 53, 47
1, 49932, Note_on_c, 0, 71, 32
1, 49933, Note_on_c, 0, 65, 42
1, 49933, Note_on_c, 0, 68, 35
1, 49953, Control_c, 0, 64, 127
1, 49959, Note_on_c, 0, 71, 0
1, 49966, Note_on_c, 0, 68, 0
1, 49969, Note_on_c, 0, 65, 0
1, 49978, Note_on_c, 0, 53, 0
1, 49998, Note_on_c, 0, 50, 24
1, 50000, Note_on_c, 0, 44, 0
1, 50021, Note_on_c, 0, 62, 45
1, 50023, Note_on_c, 0, 54, 35
1, 50024, Note_on_c, 0, 44, 27
1, 50024, Note_on_c, 0, 59, 40
1, 50025, Control_c, 0, 64, 0
1, 50034, Note_on_c, 0, 50, 0
1, 50044, Control_c, 0, 64, 127
1, 50053, Note_on_c, 0, 62, 0
1, 50067, Note_on_c, 0, 59, 0
1, 50077, Note_on_c, 0, 54, 0
1, 50084, Note_on_c, 0, 58, 54
1, 50097, Note_on_c, 0, 55, 11
1, 50100, Note_on_c, 0, 44, 0
1, 50107, Control_c, 0, 64, 0
1, 50108, Note_on_c, 0, 43, 35
1, 50113, Note_on_c, 0, 55, 0
1, 50121, Note_on_c, 0, 53, 1
1, 50123, Note_on_c, 0, 43, 0
1, 50127, Control_c, 0, 64, 127
1, 50137, Note_on_c, 0, 58, 0
1, 50151, Note_on_c, 0, 53, 0
1, 50168, Note_on_c, 0, 58, 61
1, 50170, Note_on_c, 0, 62, 49
1, 50170, Note_on_c, 0, 55, 53
1, 50172, Note_on_c, 0, 53, 64
1, 50172, Note_on_c, 0, 65, 33
1, 50178, Note_on_c, 0, 65, 0
1, 50181, Note_on_c, 0, 55, 0
1, 50182, Note_on_c, 0, 58, 0
1, 50185, Note_on_c, 0, 62, 0
1, 50188, Note_on_c, 0, 53, 0
1, 50205, Note_on_c, 0, 67, 52
1, 50206, Note_on_c, 0, 55, 57
1, 50207, Note_on_c, 0, 58, 55
1, 50209, Note_on_c, 0, 62, 53
1, 50210, Control_c, 0, 64, 0
1, 50224, Note_on_c, 0, 58, 0
1, 50224, Note_on_c, 0, 67, 0
1, 50230, Note_on_c, 0, 55, 0
1, 50247, Note_on_c, 0, 62, 0
1, 50261, Control_c, 0, 64, 127
1, 50269, Note_on_c, 0, 55, 49
1, 50276, Note_on_c, 0, 55, 0
1, 50296, Control_c, 0, 64, 0
1, 50300, Note_on_c, 0, 58, 62
1, 50301, Note_on_c, 0, 72, 65
1, 50301, Note_on_c, 0, 64, 72
1, 50302, Note_on_c, 0, 68, 45
1, 50303, Note_on_c, 0, 66, 37
1, 50308, Note_on_c, 0, 66, 0
1, 50309, Note_on_c, 0, 64, 0
1, 50312, Note_on_c, 0, 68, 0
1, 50312, Note_on_c, 0, 72, 0
1, 50314, Note_on_c, 0, 58, 0
1, 50350, Control_c, 0, 64, 127
1, 50359, Note_on_c, 0, 58, 50
1, 50361, Note_on_c, 0, 64, 68
1, 50361, Note_on_c, 0, 72, 37
1, 50367, Note_on_c, 0, 72, 0
1, 50370, Note_on_c, 0, 64, 0
1, 50373, Note_on_c, 0, 58, 0
1, 50392, Control_c, 0, 64, 0
1, 50395, Note_on_c, 0, 69, 60
1, 50396, Note_on_c, 0, 61, 48
1, 50397, Note_on_c, 0, 55, 49
1, 50397, Note_on_c, 0, 64, 53
1, 50405, Note_on_c, 0, 64, 0
1, 50406, Note_on_c, 0, 61, 0
1, 50408, Note_on_c, 0, 69, 0
1, 50410, Note_on_c, 0, 55, 0
1, 50450, Control_c, 0, 64, 127
1, 50453, Note_on_c, 0, 61, 52
1, 50454, Note_on_c, 0, 58, 55
1, 50455, Note_on_c, 0, 55, 33
1, 50455, Note_on_c, 0, 48, 51
1, 50456, Note_on_c, 0, 69, 40
1, 50457, Note_on_c, 0, 68, 21
1, 50460, Note_on_c, 0, 55, 0
1, 50468, Note_on_c, 0, 69, 0
1, 50469, Note_on_c, 0, 48, 0
1, 50472, Note_on_c, 0, 61, 0
1, 50472, Note_on_c, 0, 58, 0
1, 50481, Note_on_c, 0, 68, 0
1, 50486, Control_c, 0, 64, 0
1, 50489, Note_on_c, 0, 48, 45
1, 50490, Note_on_c, 0, 65, 51
1, 50490, Note_on_c, 0, 57, 41
1, 50491, Note_on_c, 0, 62, 40
1, 50494, Note_on_c, 0, 47, 48
1, 50499, Note_on_c, 0, 47, 0
1, 50512, Note_on_c, 0, 57, 0
1, 50512, Note_on_c, 0, 62, 0
1, 50512, Note_on_c, 0, 65, 0
1, 50515, Note_on_c, 0, 48, 0
1, 50547, Control_c, 0, 64, 127
1, 50549, Note_on_c, 0, 48, 39
1, 50550, Note_on_c, 0, 57, 63
1, 50551, Note_on_c, 0, 65, 64
1, 50552, Note_on_c, 0, 62, 51
1, 50564, Note_on_c, 0, 62, 0
1, 50564, Note_on_c, 0, 57, 0
1, 50570, Note_on_c, 0, 65, 0
1, 50579, Note_on_c, 0, 48, 0
1, 50580, Control_c, 0, 64, 0
1, 50587, Note_on_c, 0, 67, 62
1, 50588, Note_on_c, 0, 57, 59
1, 50588, Note_on_c, 0, 62, 66
1, 50590, Note_on_c, 0, 48, 47
1, 50598, Note_on_c, 0, 57, 0
1, 50601, Note_on_c, 0, 62, 0
1, 50603, Note_on_c, 0, 48, 0
1, 50605, Note_on_c, 0, 67, 0
1, 50630, Control_c, 0, 64, 127
1, 50645, Note_on_c, 0, 48, 73
1, 50646, Note_on_c, 0, 47, 62
1, 50647, Note_on_c, 0, 65, 69
1, 50648, Note_on_c, 0, 62, 66
1, 50648, Note_on_c, 0, 57, 68
1, 50650, Note_on_c, 0, 47, 0
1, 50650, Control_c, 0, 64, 0
1, 50679, Control_c, 0, 64, 127
1, 50690, Note_on_c, 0, 57, 0
1, 50693, Note_on_c, 0, 65, 0
1, 50694, Note_on_c, 0, 48, 0
1, 50695, Note_on_c, 0, 62, 0
1, 50718, Note_on_c, 0, 47, 65
1, 50719, Control_c, 0, 64, 0
1, 50719, Note_on_c, 0, 62, 61
1, 50719, Note_on_c, 0, 65, 57
1, 50720, Note_on_c, 0, 57, 60
1, 50738, Control_c, 0, 64, 127
1, 50775, Control_c, 0, 64, 0
1, 50776, Note_on_c, 0, 47, 0
1, 50780, Note_on_c, 0, 46, 65
1, 50792, Control_c, 0, 64, 127
1, 50794, Note_on_c, 0, 62, 0
1, 50797, Note_on_c, 0, 65, 0
1, 50809, Note_on_c, 0, 57, 0
1, 50837, Note_on_c, 0, 46, 0
1, 50839, Note_on_c, 0, 56, 59
1, 50840, Note_on_c, 0, 64, 60
1, 50841, Note_on_c, 0, 59, 62
1, 50842, Note_on_c, 0, 61, 49
1, 50844, Note_on_c, 0, 45, 65
1, 50845, Control_c, 0, 64, 0
1, 50882, Control_c, 0, 64, 127
1, 50901, Control_c, 0, 64, 0
1, 50927, Note_on_c, 0, 45, 0
1, 50928, Control_c, 0, 64, 127
1, 50930, Note_on_c, 0, 44, 62
1, 50933, Note_on_c, 0, 59, 0
1, 50937, Note_on_c, 0, 56, 0
1, 50941, Note_on_c, 0, 61, 0
1, 50949, Note_on_c, 0, 64, 0
1, 50965, Note_on_c, 0, 44, 0
1, 50965, Note_on_c, 0, 62, 69
1, 50966, Control_c, 0, 64, 0
1, 50966, Note_on_c, 0, 58, 61
1, 50967, Note_on_c, 0, 53, 68
1, 50968, Note_on_c, 0, 43, 63
1, 51012, Control_c, 0, 64, 127
1, 51019, Note_on_c, 0, 62, 0
1, 51021, Note_on_c, 0, 43, 0
1, 51026, Note_on_c, 0, 53, 0
1, 51027, Note_on_c, 0, 31, 62
1, 51030, Note_on_c, 0, 58, 0
1, 51044, Note_on_c, 0, 31, 0
1, 51062, Note_on_c, 0, 61, 63
1, 51062, Note_on_c, 0, 36, 75
1, 51063, Control_c, 0, 64, 0
1, 51063, Note_on_c, 0, 56, 60
1, 51063, Note_on_c, 0, 58, 58
1, 51063, Note_on_c, 0, 52, 75
1, 51092, Note_on_c, 0, 52, 0
1, 51095, Control_c, 0, 64, 127
1, 51108, Note_on_c, 0, 56, 0
1, 51113, Note_on_c, 0, 58, 0
1, 51117, Note_on_c, 0, 61, 0
1, 51120, Control_c, 0, 64, 0
1, 51124, Note_on_c, 0, 24, 89
1, 51141, Note_on_c, 0, 24, 0
1, 51141, Control_c, 0, 64, 127
1, 51143, Note_on_c, 0, 36, 0
1, 51221, Note_on_c, 0, 86, 87
1, 51221, Note_on_c, 0, 74, 95
1, 51222, Note_on_c, 0, 41, 88
1, 51222, Note_on_c, 0, 48, 87
1, 51222, Note_on_c, 0, 77, 77
1, 51222, Note_on_c, 0, 81, 68
1, 51224, Control_c, 0, 64, 0
1, 51247, Control_c, 0, 64, 127
1, 51250, Note_on_c, 0, 41, 0
1, 51257, Note_on_c, 0, 48, 0
1, 51293, Note_on_c, 0, 86, 0
1, 51297, Note_on_c, 0, 74, 0
1, 51304, Note_on_c, 0, 77, 0
1, 51307, Note_on_c, 0, 81, 0
1, 51323, Note_on_c, 0, 84, 43
1, 51323, Note_on_c, 0, 72, 54
1, 51327, Note_on_c, 0, 77, 28
1, 51327, Note_on_c, 0, 81, 26
1, 51334, Note_on_c, 0, 84, 0
1, 51335, Note_on_c, 0, 77, 0
1, 51336, Note_on_c, 0, 72, 0
1, 51341, Note_on_c, 0, 81, 0
1, 51352, Note_on_c, 0, 60, 34
1, 51353, Note_on_c, 0, 53, 34
1, 51353, Control_c, 0, 64, 0
1, 51354, Note_on_c, 0, 74, 55
1, 51354, Note_on_c, 0, 81, 42
1, 51354, Note_on_c, 0, 86, 63
1, 51355, Note_on_c, 0, 77, 47
1, 51357, Note_on_c, 0, 57, 27
1, 51359, Note_on_c, 0, 60, 0
1, 51364, Note_on_c, 0, 57, 0
1, 51368, Note_on_c, 0, 77, 0
1, 51369, Note_on_c, 0, 53, 0
1, 51371, Note_on_c, 0, 86, 0
1, 51376, Note_on_c, 0, 81, 0
1, 51379, Note_on_c, 0, 74, 0
1, 51396, Control_c, 0, 64, 127
1, 51414, Note_on_c, 0, 48, 43
1, 51415, Note_on_c, 0, 72, 40
1, 51419, Note_on_c, 0, 77, 33
1, 51421, Note_on_c, 0, 81, 29
1, 51427, Note_on_c, 0, 72, 0
1, 51429, Note_on_c, 0, 77, 0
1, 51434, Control_c, 0, 64, 0
1, 51435, Note_on_c, 0, 81, 0
1, 51436, Note_on_c, 0, 48, 0
1, 51444, Note_on_c, 0, 74, 35
1, 51445, Note_on_c, 0, 77, 32
1, 51446, Note_on_c, 0, 41, 40
1, 51446, Note_on_c, 0, 51, 37
1, 51446, Note_on_c, 0, 81, 20
1, 51450, Control_c, 0, 64, 127
1, 51453, Note_on_c, 0, 41, 0
1, 51462, Note_on_c, 0, 51, 0
1, 51489, Note_on_c, 0, 74, 0
1, 51500, Note_on_c, 0, 77, 0
1, 51507, Note_on_c, 0, 81, 0
1, 51536, Control_c, 0, 64, 0
1, 51538, Note_on_c, 0, 81, 41
1, 51539, Note_on_c, 0, 63, 44
1, 51539, Note_on_c, 0, 84, 46
1, 51539, Note_on_c, 0, 77, 47
1, 51540, Note_on_c, 0, 72, 44
1, 51540, Note_on_c, 0, 67, 34
1, 51541, Note_on_c, 0, 57, 36
1, 51546, Note_on_c, 0, 67, 0
1, 51554, Note_on_c, 0, 63, 0
1, 51558, Note_on_c, 0, 57, 0
1, 51567, Control_c, 0, 64, 127
1, 51577, Note_on_c, 0, 84, 0
1, 51586, Note_on_c, 0, 81, 0
1, 51595, Note_on_c, 0, 77, 0
1, 51598, Note_on_c, 0, 72, 0
1, 51603, Note_on_c, 0, 53, 40
1, 51621, Note_on_c, 0, 53, 0
1, 51623, Control_c, 0, 64, 0
1, 51629, Note_on_c, 0, 46, 54
1, 51630, Note_on_c, 0, 82, 56
1, 51632, Note_on_c, 0, 55, 50
1, 51632, Note_on_c, 0, 70, 53
1, 51633, Note_on_c, 0, 77, 55
1, 51640, Control_c, 0, 64, 127
1, 51644, Note_on_c, 0, 46, 0
1, 51647, Note_on_c, 0, 55, 0
1, 51664, Note_on_c, 0, 70, 0
1, 51665, Note_on_c, 0, 77, 0
1, 51670, Note_on_c, 0, 82, 0
1, 51694, Note_on_c, 0, 84, 62
1, 51695, Note_on_c, 0, 72, 69
1, 51695, Note_on_c, 0, 77, 66
1, 51706, Note_on_c, 0, 72, 0
1, 51706, Note_on_c, 0, 84, 0
1, 51720, Control_c, 0, 64, 0
1, 51722, Note_on_c, 0, 67, 40
1, 51723, Note_on_c, 0, 62, 45
1, 51725, Note_on_c, 0, 56, 43
1, 51726, Note_on_c, 0, 82, 39
1, 51730, Note_on_c, 0, 70, 25
1, 51742, Control_c, 0, 64, 127
1, 51748, Note_on_c, 0, 70, 0
1, 51751, Note_on_c, 0, 82, 0
1, 51755, Note_on_c, 0, 77, 0
1, 51763, Note_on_c, 0, 67, 0
1, 51767, Note_on_c, 0, 62, 0
1, 51779, Note_on_c, 0, 56, 0
1, 51784, Note_on_c, 0, 85, 78
1, 51786, Note_on_c, 0, 73, 55
1, 51787, Note_on_c, 0, 77, 71
1, 51800, Control_c, 0, 64, 0
1, 51811, Note_on_c, 0, 66, 39
1, 51814, Note_on_c, 0, 55, 27
1, 51814, Note_on_c, 0, 61, 35
1, 51822, Note_on_c, 0, 66, 0
1, 51823, Note_on_c, 0, 55, 0
1, 51824, Control_c, 0, 64, 127
1, 51827, Note_on_c, 0, 61, 0
1, 51831, Note_on_c, 0, 85, 0
1, 51832, Note_on_c, 0, 77, 0
1, 51838, Note_on_c, 0, 73, 0
1, 51876, Note_on_c, 0, 73, 40
1, 51876, Note_on_c, 0, 81, 66
1, 51878, Note_on_c, 0, 69, 53
1, 51879, Note_on_c, 0, 76, 46
1, 51890, Note_on_c, 0, 69, 0
1, 51893, Note_on_c, 0, 81, 0
1, 51894, Note_on_c, 0, 73, 0
1, 51894, Note_on_c, 0, 76, 0
1, 51896, Note_on_c, 0, 45, 53
1, 51897, Control_c, 0, 64, 0
1, 51902, Note_on_c, 0, 45, 0
1, 51917, Control_c, 0, 64, 127
1, 51960, Note_on_c, 0, 79, 66
1, 51961, Note_on_c, 0, 72, 68
1, 51962, Note_on_c, 0, 67, 58
1, 51983, Note_on_c, 0, 38, 36
1, 51987, Note_on_c, 0, 67, 0
1, 51987, Control_c, 0, 64, 0
1, 51988, Note_on_c, 0, 79, 0
1, 51990, Note_on_c, 0, 72, 0
1, 51990, Note_on_c, 0, 45, 26
1, 51992, Note_on_c, 0, 53, 35
1, 51999, Note_on_c, 0, 38, 0
1, 52006, Note_on_c, 0, 45, 0
1, 52008, Control_c, 0, 64, 127
1, 52008, Note_on_c, 0, 79, 53
1, 52010, Note_on_c, 0, 72, 59
1, 52011, Note_on_c, 0, 67, 54
1, 52012, Note_on_c, 0, 53, 0
1, 52050, Note_on_c, 0, 79, 0
1, 52054, Note_on_c, 0, 67, 0
1, 52060, Note_on_c, 0, 72, 0
1, 52078, Note_on_c, 0, 53, 44
1, 52078, Note_on_c, 0, 57, 44
1, 52079, Note_on_c, 0, 77, 43
1, 52079, Control_c, 0, 64, 0
1, 52080, Note_on_c, 0, 62, 34
1, 52080, Note_on_c, 0, 72, 48
1, 52080, Note_on_c, 0, 65, 48
1, 52089, Note_on_c, 0, 62, 0
1, 52104, Note_on_c, 0, 65, 0
1, 52106, Control_c, 0, 64, 127
1, 52111, Note_on_c, 0, 77, 0
1, 52114, Note_on_c, 0, 72, 0
1, 52135, Note_on_c, 0, 48, 74
1, 52137, Note_on_c, 0, 79, 73
1, 52138, Note_on_c, 0, 72, 78
1, 52139, Note_on_c, 0, 53, 0
1, 52139, Note_on_c, 0, 67, 72
1, 52141, Note_on_c, 0, 75, 50
1, 52151, Control_c, 0, 64, 0
1, 52165, Note_on_c, 0, 67, 0
1, 52166, Note_on_c, 0, 72, 0
1, 52168, Note_on_c, 0, 79, 0
1, 52168, Note_on_c, 0, 57, 0
1, 52169, Note_on_c, 0, 75, 0
1, 52178, Control_c, 0, 64, 127
1, 52186, Note_on_c, 0, 79, 53
1, 52189, Note_on_c, 0, 67, 47
1, 52190, Note_on_c, 0, 72, 48
1, 52227, Note_on_c, 0, 67, 0
1, 52228, Note_on_c, 0, 79, 0
1, 52234, Note_on_c, 0, 72, 0
1, 52242, Note_on_c, 0, 77, 60
1, 52242, Note_on_c, 0, 72, 55
1, 52243, Note_on_c, 0, 65, 63
1, 52263, Control_c, 0, 64, 0
1, 52270, Note_on_c, 0, 77, 0
1, 52272, Note_on_c, 0, 72, 0
1, 52273, Note_on_c, 0, 57, 30
1, 52277, Control_c, 0, 64, 127
1, 52296, Note_on_c, 0, 65, 0
1, 52326, Note_on_c, 0, 48, 0
1, 52341, Note_on_c, 0, 57, 0
1, 52359, Control_c, 0, 64, 0
1, 52365, Note_on_c, 0, 46, 64
1, 52376, Control_c, 0, 64, 127
1, 52422, Note_on_c, 0, 51, 26
1, 52441, Note_on_c, 0, 65, 76
1, 52442, Note_on_c, 0, 51, 0
1, 52442, Note_on_c, 0, 58, 67
1, 52442, Note_on_c, 0, 61, 64
1, 52448, Note_on_c, 0, 53, 53
1, 52454, Control_c, 0, 64, 0
1, 52482, Note_on_c, 0, 58, 0
1, 52484, Note_on_c, 0, 65, 0
1, 52493, Note_on_c, 0, 67, 73
1, 52494, Note_on_c, 0, 46, 0
1, 52496, Note_on_c, 0, 58, 37
1, 52501, Control_c, 0, 64, 127
1, 52508, Note_on_c, 0, 61, 0
1, 52508, Note_on_c, 0, 67, 0
1, 52509, Note_on_c, 0, 58, 0
1, 52519, Note_on_c, 0, 65, 66
1, 52531, Note_on_c, 0, 53, 0
1, 52536, Note_on_c, 0, 65, 0
1, 52553, Note_on_c, 0, 58, 68
1, 52554, Note_on_c, 0, 56, 62
1, 52554, Control_c, 0, 64, 0
1, 52554, Note_on_c, 0, 61, 55
1, 52554, Note_on_c, 0, 64, 65
1, 52555, Note_on_c, 0, 68, 60
1, 52576, Control_c, 0, 64, 127
1, 52596, Note_on_c, 0, 58, 0
1, 52604, Note_on_c, 0, 68, 0
1, 52616, Note_on_c, 0, 56, 0
1, 52624, Note_on_c, 0, 61, 0
1, 52631, Note_on_c, 0, 64, 0
1, 52645, Note_on_c, 0, 58, 52
1, 52646, Note_on_c, 0, 70, 64
1, 52648, Note_on_c, 0, 61, 50
1, 52648, Note_on_c, 0, 64, 57
1, 52651, Control_c, 0, 64, 0
1, 52666, Control_c, 0, 64, 127
1, 52690, Note_on_c, 0, 58, 0
1, 52700, Note_on_c, 0, 64, 0
1, 52701, Note_on_c, 0, 61, 0
1, 52703, Note_on_c, 0, 70, 0
1, 52735, Note_on_c, 0, 65, 61
1, 52736, Control_c, 0, 64, 0
1, 52737, Note_on_c, 0, 50, 50
1, 52738, Note_on_c, 0, 56, 35
1, 52763, Control_c, 0, 64, 127
1, 52779, Note_on_c, 0, 50, 0
1, 52782, Note_on_c, 0, 56, 0
1, 52801, Note_on_c, 0, 65, 0
1, 52832, Note_on_c, 0, 58, 38
1, 52833, Note_on_c, 0, 65, 46
1, 52834, Note_on_c, 0, 54, 31
1, 52836, Note_on_c, 0, 60, 41
1, 52870, Note_on_c, 0, 65, 0
1, 52873, Note_on_c, 0, 54, 0
1, 52881, Note_on_c, 0, 60, 0
1, 52886, Note_on_c, 0, 58, 0
1, 52927, Control_c, 0, 64, 0
1, 52928, Note_on_c, 0, 77, 71
1, 52929, Note_on_c, 0, 72, 76
1, 52930, Note_on_c, 0, 66, 70
1, 52950, Control_c, 0, 64, 127
1, 52960, Note_on_c, 0, 77, 0
1, 52963, Note_on_c, 0, 72, 0
1, 52967, Note_on_c, 0, 66, 0
1, 53020, Note_on_c, 0, 54, 42
1, 53021, Note_on_c, 0, 65, 63
1, 53022, Note_on_c, 0, 60, 40
1, 53023, Note_on_c, 0, 44, 29
1, 53026, Control_c, 0, 64, 0
1, 53044, Control_c, 0, 64, 127
1, 53066, Note_on_c, 0, 65, 0
1, 53081, Note_on_c, 0, 60, 0
1, 53087, Note_on_c, 0, 50, 32
1, 53092, Note_on_c, 0, 54, 0
1, 53100, Note_on_c, 0, 50, 0
1, 53103, Note_on_c, 0, 44, 0
1, 53115, Note_on_c, 0, 63, 44
1, 53115, Note_on_c, 0, 43, 35
1, 53116, Note_on_c, 0, 59, 43
1, 53118, Note_on_c, 0, 53, 28
1, 53118, Control_c, 0, 64, 0
1, 53134, Control_c, 0, 64, 127
1, 53140, Note_on_c, 0, 53, 0
1, 53149, Note_on_c, 0, 43, 0
1, 53156, Note_on_c, 0, 63, 0
1, 53159, Note_on_c, 0, 59, 0
1, 53207, Note_on_c, 0, 65, 64
1, 53209, Note_on_c, 0, 37, 52
1, 53209, Note_on_c, 0, 56, 55
1, 53211, Note_on_c, 0, 59, 56
1, 53212, Note_on_c, 0, 44, 40
1, 53212, Control_c, 0, 64, 0
1, 53221, Note_on_c, 0, 65, 0
1, 53228, Note_on_c, 0, 37, 0
1, 53231, Note_on_c, 0, 56, 0
1, 53233, Control_c, 0, 64, 127
1, 53234, Note_on_c, 0, 59, 0
1, 53241, Note_on_c, 0, 67, 66
1, 53245, Note_on_c, 0, 44, 0
1, 53256, Note_on_c, 0, 67, 0
1, 53269, Note_on_c, 0, 65, 54
1, 53290, Note_on_c, 0, 65, 0
1, 53302, Note_on_c, 0, 64, 58
1, 53302, Note_on_c, 0, 58, 46
1, 53303, Note_on_c, 0, 48, 47
1, 53304, Control_c, 0, 64, 0
1, 53304, Note_on_c, 0, 67, 43
1, 53332, Control_c, 0, 64, 127
1, 53335, Note_on_c, 0, 48, 0
1, 53340, Note_on_c, 0, 48, 24
1, 53392, Note_on_c, 0, 36, 76
1, 53394, Control_c, 0, 64, 0
1, 53408, Control_c, 0, 64, 127
1, 53411, Note_on_c, 0, 36, 0
1, 53420, Note_on_c, 0, 48, 0
1, 53445, Note_on_c, 0, 58, 0
1, 53448, Note_on_c, 0, 64, 0
1, 53455, Note_on_c, 0, 67, 0
1, 53458, Note_on_c, 0, 46, 83
1, 53479, Control_c, 0, 64, 0
1, 53481, Note_on_c, 0, 46, 0
1, 53490, Note_on_c, 0, 39, 57
1, 53499, Control_c, 0, 64, 127
1, 53500, Note_on_c, 0, 39, 0
1, 53553, Note_on_c, 0, 84, 68
1, 53554, Note_on_c, 0, 72, 67
1, 53558, Note_on_c, 0, 77, 24
1, 53558, Note_on_c, 0, 65, 19
1, 53559, Note_on_c, 0, 60, 31
1, 53560, Note_on_c, 0, 55, 25
1, 53562, Note_on_c, 0, 61, 18
1, 53563, Note_on_c, 0, 77, 0
1, 53569, Control_c, 0, 64, 0
1, 53570, Note_on_c, 0, 72, 0
1, 53572, Note_on_c, 0, 84, 0
1, 53580, Note_on_c, 0, 81, 41
1, 53594, Note_on_c, 0, 81, 0
1, 53597, Note_on_c, 0, 65, 0
1, 53610, Note_on_c, 0, 65, 44
1, 53611, Note_on_c, 0, 84, 71
1, 53612, Note_on_c, 0, 72, 63
1, 53613, Note_on_c, 0, 77, 46
1, 53625, Control_c, 0, 64, 127
1, 53649, Note_on_c, 0, 84, 0
1, 53653, Note_on_c, 0, 77, 0
1, 53654, Note_on_c, 0, 65, 0
1, 53654, Note_on_c, 0, 72, 0
1, 53655, Note_on_c, 0, 60, 0
1, 53657, Note_on_c, 0, 55, 0
1, 53669, Note_on_c, 0, 61, 0
1, 53681, Note_on_c, 0, 54, 62
1, 53683, Control_c, 0, 64, 0
1, 53698, Control_c, 0, 64, 127
1, 53743, Note_on_c, 0, 74, 58
1, 53743, Note_on_c, 0, 81, 56
1, 53744, Note_on_c, 0, 65, 60
1, 53745, Note_on_c, 0, 69, 58
1, 53746, Note_on_c, 0, 60, 40
1, 53752, Control_c, 0, 64, 0
1, 53784, Control_c, 0, 64, 127
1, 53812, Note_on_c, 0, 54, 0
1, 53829, Note_on_c, 0, 69, 0
1, 53830, Note_on_c, 0, 81, 0
1, 53836, Note_on_c, 0, 74, 0
1, 53847, Note_on_c, 0, 54, 39
1, 53854, Note_on_c, 0, 65, 0
1, 53857, Note_on_c, 0, 60, 0
1, 53869, Note_on_c, 0, 54, 0
1, 53878, Control_c, 0, 64, 0
1, 53880, Note_on_c, 0, 64, 48
1, 53881, Note_on_c, 0, 80, 55
1, 53882, Note_on_c, 0, 75, 64
1, 53882, Note_on_c, 0, 53, 46
1, 53882, Note_on_c, 0, 59, 49
1, 53882, Note_on_c, 0, 68, 55
1, 53898, Control_c, 0, 64, 127
1, 53919, Note_on_c, 0, 68, 0
1, 53922, Note_on_c, 0, 53, 0
1, 53923, Note_on_c, 0, 80, 0
1, 53927, Note_on_c, 0, 64, 0
1, 53930, Note_on_c, 0, 75, 0
1, 53932, Note_on_c, 0, 59, 0
1, 53943, Note_on_c, 0, 82, 72
1, 53944, Note_on_c, 0, 70, 64
1, 53945, Note_on_c, 0, 59, 53
1, 53945, Note_on_c, 0, 64, 37
1, 53946, Note_on_c, 0, 75, 54
1, 53946, Note_on_c, 0, 53, 47
1, 53956, Note_on_c, 0, 64, 0
1, 53961, Note_on_c, 0, 82, 0
1, 53961, Note_on_c, 0, 53, 0
1, 53963, Note_on_c, 0, 70, 0
1, 53963, Note_on_c, 0, 75, 0
1, 53969, Note_on_c, 0, 59, 0
1, 53974, Control_c, 0, 64, 0
1, 53978, Note_on_c, 0, 53, 39
1, 53979, Note_on_c, 0, 59, 14
1, 53979, Note_on_c, 0, 64, 41
1, 53980, Note_on_c, 0, 80, 42
1, 53982, Note_on_c, 0, 75, 52
1, 53983, Note_on_c, 0, 68, 31
1, 53989, Control_c, 0, 64, 127
1, 53997, Note_on_c, 0, 64, 0
1, 53997, Note_on_c, 0, 59, 0
1, 54008, Note_on_c, 0, 75, 0
1, 54013, Note_on_c, 0, 53, 0
1, 54015, Note_on_c, 0, 80, 0
1, 54017, Note_on_c, 0, 68, 0
1, 54038, Note_on_c, 0, 74, 55
1, 54038, Note_on_c, 0, 79, 50
1, 54041, Note_on_c, 0, 62, 49
1, 54043, Note_on_c, 0, 58, 35
1, 54043, Note_on_c, 0, 67, 20
1, 54045, Note_on_c, 0, 52, 35
1, 54047, Note_on_c, 0, 67, 0
1, 54055, Control_c, 0, 64, 0
1, 54076, Control_c, 0, 64, 127
1, 54081, Note_on_c, 0, 74, 0
1, 54087, Note_on_c, 0, 79, 0
1, 54110, Note_on_c, 0, 72, 64
1, 54116, Note_on_c, 0, 62, 0
1, 54126, Note_on_c, 0, 58, 0
1, 54129, Note_on_c, 0, 52, 0
1, 54129, Note_on_c, 0, 72, 0
1, 54140, Note_on_c, 0, 74, 55
1, 54155, Note_on_c, 0, 74, 0
1, 54169, Control_c, 0, 64, 0
1, 54180, Note_on_c, 0, 81, 75
1, 54203, Note_on_c, 0, 81, 0
1, 54215, Note_on_c, 0, 79, 28
1, 54221, Note_on_c, 0, 79, 0
1, 54245, Note_on_c, 0, 86, 80
1, 54264, Note_on_c, 0, 86, 0
1, 54270, Control_c, 0, 64, 127
1, 54277, Note_on_c, 0, 84, 52
1, 54293, Note_on_c, 0, 84, 0
1, 54308, Control_c, 0, 64, 0
1, 54309, Note_on_c, 0, 91, 79
1, 54309, Note_on_c, 0, 41, 33
1, 54311, Note_on_c, 0, 57, 34
1, 54326, Note_on_c, 0, 41, 0
1, 54328, Note_on_c, 0, 91, 0
1, 54330, Control_c, 0, 64, 127
1, 54339, Note_on_c, 0, 89, 66
1, 54341, Note_on_c, 0, 57, 0
1, 54357, Note_on_c, 0, 89, 0
1, 54369, Note_on_c, 0, 84, 66
1, 54383, Note_on_c, 0, 84, 0
1, 54386, Control_c, 0, 64, 0
1, 54401, Note_on_c, 0, 81, 37
1, 54402, Control_c, 0, 64, 127
1, 54409, Note_on_c, 0, 81, 0
1, 54427, Control_c, 0, 64, 0
1, 54431, Note_on_c, 0, 62, 43
1, 54431, Note_on_c, 0, 86, 80
1, 54438, Note_on_c, 0, 57, 27
1, 54442, Note_on_c, 0, 62, 0
1, 54444, Note_on_c, 0, 57, 0
1, 54451, Note_on_c, 0, 86, 0
1, 54463, Note_on_c, 0, 84, 59
1, 54479, Note_on_c, 0, 84, 0
1, 54491, Note_on_c, 0, 79, 60
1, 54504, Note_on_c, 0, 79, 0
1, 54514, Control_c, 0, 64, 127
1, 54520, Note_on_c, 0, 75, 54
1, 54539, Note_on_c, 0, 75, 0
1, 54550, Note_on_c, 0, 74, 44
1, 54554, Note_on_c, 0, 63, 33
1, 54556, Control_c, 0, 64, 0
1, 54557, Note_on_c, 0, 57, 36
1, 54558, Note_on_c, 0, 67, 17
1, 54573, Note_on_c, 0, 74, 0
1, 54580, Note_on_c, 0, 67, 0
1, 54580, Control_c, 0, 64, 127
1, 54582, Note_on_c, 0, 77, 44
1, 54588, Note_on_c, 0, 63, 0
1, 54589, Note_on_c, 0, 57, 0
1, 54600, Note_on_c, 0, 77, 0
1, 54610, Note_on_c, 0, 75, 60
1, 54626, Note_on_c, 0, 75, 0
1, 54644, Note_on_c, 0, 74, 51
1, 54647, Note_on_c, 0, 58, 20
1, 54648, Note_on_c, 0, 50, 33
1, 54649, Control_c, 0, 64, 0
1, 54666, Note_on_c, 0, 74, 0
1, 54675, Note_on_c, 0, 58, 0
1, 54676, Note_on_c, 0, 65, 53
1, 54680, Control_c, 0, 64, 127
1, 54696, Note_on_c, 0, 50, 0
1, 54737, Note_on_c, 0, 65, 0
1, 54743, Note_on_c, 0, 62, 32
1, 54744, Note_on_c, 0, 67, 52
1, 54746, Note_on_c, 0, 58, 30
1, 54746, Control_c, 0, 64, 0
1, 54747, Control_c, 0, 64, 127
1, 54766, Note_on_c, 0, 62, 0
1, 54771, Note_on_c, 0, 58, 0
1, 54771, Note_on_c, 0, 67, 0
1, 54779, Note_on_c, 0, 65, 36
1, 54794, Note_on_c, 0, 65, 0
1, 54814, Note_on_c, 0, 70, 63
1, 54832, Note_on_c, 0, 70, 0
1, 54834, Control_c, 0, 64, 0
1, 54836, Note_on_c, 0, 66, 35
1, 54837, Note_on_c, 0, 55, 37
1, 54840, Note_on_c, 0, 61, 30
1, 54843, Note_on_c, 0, 55, 0
1, 54848, Note_on_c, 0, 61, 0
1, 54850, Note_on_c, 0, 66, 0
1, 54869, Note_on_c, 0, 76, 68
1, 54870, Note_on_c, 0, 73, 46
1, 54870, Note_on_c, 0, 84, 58
1, 54874, Note_on_c, 0, 72, 72
1, 54876, Note_on_c, 0, 84, 0
1, 54881, Note_on_c, 0, 72, 0
1, 54881, Note_on_c, 0, 76, 0
1, 54885, Note_on_c, 0, 73, 0
1, 54885, Control_c, 0, 64, 127
1, 54899, Note_on_c, 0, 70, 57
1, 54911, Note_on_c, 0, 70, 0
1, 54924, Control_c, 0, 64, 0
1, 54931, Note_on_c, 0, 70, 50
1, 54931, Note_on_c, 0, 73, 35
1, 54932, Note_on_c, 0, 76, 46
1, 54932, Note_on_c, 0, 69, 51
1, 54944, Note_on_c, 0, 69, 0
1, 54946, Note_on_c, 0, 76, 0
1, 54947, Note_on_c, 0, 73, 0
1, 54948, Note_on_c, 0, 70, 0
1, 54960, Note_on_c, 0, 67, 41
1, 54962, Control_c, 0, 64, 127
1, 54969, Note_on_c, 0, 67, 0
1, 54983, Control_c, 0, 64, 0
1, 54990, Note_on_c, 0, 78, 46
1, 54992, Note_on_c, 0, 70, 40
1, 54992, Note_on_c, 0, 66, 36
1, 54993, Note_on_c, 0, 73, 27
1, 54994, Note_on_c, 0, 67, 31
1, 55004, Note_on_c, 0, 67, 0
1, 55007, Control_c, 0, 64, 127
1, 55009, Note_on_c, 0, 70, 0
1, 55011, Note_on_c, 0, 78, 0
1, 55012, Note_on_c, 0, 73, 0
1, 55013, Note_on_c, 0, 66, 0
1, 55037, Control_c, 0, 64, 0
1, 55054, Note_on_c, 0, 79, 64
1, 55056, Note_on_c, 0, 72, 66
1, 55056, Note_on_c, 0, 64, 58
1, 55056, Note_on_c, 0, 69, 61
1, 55073, Note_on_c, 0, 79, 0
1, 55074, Note_on_c, 0, 69, 0
1, 55075, Note_on_c, 0, 72, 0
1, 55077, Note_on_c, 0, 64, 0
1, 55084, Note_on_c, 0, 63, 23
1, 55112, Note_on_c, 0, 63, 0
1, 55118, Note_on_c, 0, 77, 49
1, 55119, Note_on_c, 0, 62, 40
1, 55119, Note_on_c, 0, 69, 47
1, 55120, Note_on_c, 0, 72, 40
1, 55133, Note_on_c, 0, 72, 0
1, 55133, Note_on_c, 0, 77, 0
1, 55136, Control_c, 0, 64, 127
1, 55138, Note_on_c, 0, 69, 0
1, 55141, Note_on_c, 0, 62, 0
1, 55150, Note_on_c, 0, 61, 31
1, 55169, Note_on_c, 0, 61, 0
1, 55171, Control_c, 0, 64, 0
1, 55178, Note_on_c, 0, 76, 54
1, 55180, Note_on_c, 0, 65, 45
1, 55180, Note_on_c, 0, 60, 48
1, 55181, Note_on_c, 0, 69, 57
1, 55201, Note_on_c, 0, 69, 0
1, 55205, Note_on_c, 0, 60, 0
1, 55205, Note_on_c, 0, 65, 0
1, 55208, Note_on_c, 0, 74, 27
1, 55209, Note_on_c, 0, 76, 0
1, 55214, Note_on_c, 0, 57, 35
1, 55215, Note_on_c, 0, 74, 0
1, 55219, Control_c, 0, 64, 127
1, 55223, Note_on_c, 0, 57, 0
1, 55244, Note_on_c, 0, 53, 45
1, 55269, Note_on_c, 0, 53, 0
1, 55270, Control_c, 0, 64, 0
1, 55281, Note_on_c, 0, 72, 67
1, 55281, Note_on_c, 0, 65, 71
1, 55282, Note_on_c, 0, 60, 62
1, 55283, Note_on_c, 0, 69, 62
1, 55284, Note_on_c, 0, 57, 59
1, 55305, Note_on_c, 0, 69, 0
1, 55308, Note_on_c, 0, 60, 0
1, 55308, Note_on_c, 0, 65, 0
1, 55313, Note_on_c, 0, 57, 0
1, 55314, Note_on_c, 0, 72, 0
1, 55318, Note_on_c, 0, 69, 58
1, 55319, Note_on_c, 0, 53, 30
1, 55336, Note_on_c, 0, 69, 0
1, 55340, Control_c, 0, 64, 127
1, 55347, Note_on_c, 0, 65, 60
1, 55350, Note_on_c, 0, 53, 0
1, 55358, Control_c, 0, 64, 0
1, 55369, Note_on_c, 0, 65, 0
1, 55372, Control_c, 0, 64, 127
1, 55382, Note_on_c, 0, 47, 33
1, 55388, Note_on_c, 0, 47, 0
1, 55411, Control_c, 0, 64, 0
1, 55415, Note_on_c, 0, 61, 42
1, 55416, Note_on_c, 0, 65, 60
1, 55418, Note_on_c, 0, 46, 50
1, 55419, Note_on_c, 0, 56, 38
1, 55430, Control_c, 0, 64, 127
1, 55439, Note_on_c, 0, 46, 0
1, 55441, Note_on_c, 0, 61, 0
1, 55446, Note_on_c, 0, 56, 0
1, 55450, Note_on_c, 0, 65, 0
1, 55518, Note_on_c, 0, 65, 34
1, 55519, Note_on_c, 0, 61, 35
1, 55519, Note_on_c, 0, 60, 31
1, 55520, Note_on_c, 0, 56, 27
1, 55554, Note_on_c, 0, 65, 0
1, 55561, Note_on_c, 0, 60, 0
1, 55561, Note_on_c, 0, 72, 51
1, 55566, Note_on_c, 0, 61, 0
1, 55569, Note_on_c, 0, 56, 0
1, 55570, Note_on_c, 0, 72, 0
1, 55577, Note_on_c, 0, 73, 35
1, 55592, Note_on_c, 0, 73, 0
1, 55600, Note_on_c, 0, 74, 38
1, 55611, Note_on_c, 0, 74, 0
1, 55613, Note_on_c, 0, 63, 45
1, 55616, Note_on_c, 0, 52, 36
1, 55616, Control_c, 0, 64, 0
1, 55617, Note_on_c, 0, 75, 59
1, 55618, Note_on_c, 0, 58, 33
1, 55626, Note_on_c, 0, 75, 0
1, 55627, Note_on_c, 0, 63, 0
1, 55630, Note_on_c, 0, 52, 0
1, 55633, Note_on_c, 0, 76, 53
1, 55639, Note_on_c, 0, 58, 0
1, 55642, Note_on_c, 0, 76, 0
1, 55646, Note_on_c, 0, 78, 46
1, 55658, Note_on_c, 0, 80, 46
1, 55661, Note_on_c, 0, 78, 0
1, 55671, Note_on_c, 0, 82, 42
1, 55672, Note_on_c, 0, 80, 0
1, 55676, Note_on_c, 0, 82, 0
1, 55688, Note_on_c, 0, 84, 33
1, 55689, Control_c, 0, 64, 127
1, 55695, Note_on_c, 0, 84, 0
1, 55703, Note_on_c, 0, 85, 55
1, 55707, Control_c, 0, 64, 0
1, 55709, Note_on_c, 0, 58, 36
1, 55713, Note_on_c, 0, 85, 0
1, 55714, Note_on_c, 0, 48, 33
1, 55721, Note_on_c, 0, 58, 0
1, 55721, Note_on_c, 0, 86, 56
1, 55724, Note_on_c, 0, 48, 0
1, 55731, Note_on_c, 0, 86, 0
1, 55738, Note_on_c, 0, 87, 47
1, 55750, Note_on_c, 0, 87, 0
1, 55755, Note_on_c, 0, 88, 42
1, 55768, Note_on_c, 0, 88, 0
1, 55782, Control_c, 0, 64, 127
1, 55793, Note_on_c, 0, 93, 83
1, 55809, Note_on_c, 0, 93, 0
1, 55813, Control_c, 0, 64, 0
1, 55815, Note_on_c, 0, 41, 53
1, 55817, Note_on_c, 0, 91, 66
1, 55828, Note_on_c, 0, 41, 0
1, 55831, Note_on_c, 0, 91, 0
1, 55844, Note_on_c, 0, 88, 60
1, 55858, Note_on_c, 0, 88, 0
1, 55868, Note_on_c, 0, 84, 48
1, 55877, Control_c, 0, 64, 127
1, 55886, Note_on_c, 0, 84, 0
1, 55896, Note_on_c, 0, 81, 40
1, 55910, Note_on_c, 0, 81, 0
1, 55921, Note_on_c, 0, 86, 71
1, 55922, Note_on_c, 0, 67, 37
1, 55922, Note_on_c, 0, 63, 42
1, 55922, Control_c, 0, 64, 0
1, 55924, Note_on_c, 0, 57, 41
1, 55935, Note_on_c, 0, 67, 0
1, 55941, Note_on_c, 0, 86, 0
1, 55944, Note_on_c, 0, 57, 0
1, 55947, Note_on_c, 0, 63, 0
1, 55953, Note_on_c, 0, 81, 46
1, 55962, Control_c, 0, 64, 127
1, 55964, Note_on_c, 0, 81, 0
1, 55973, Note_on_c, 0, 84, 71
1, 56001, Note_on_c, 0, 81, 49
1, 56010, Note_on_c, 0, 84, 0
1, 56013, Note_on_c, 0, 81, 0
1, 56029, Control_c, 0, 64, 0
1, 56057, Note_on_c, 0, 80, 59
1, 56079, Note_on_c, 0, 80, 0
1, 56081, Control_c, 0, 64, 127
1, 56087, Note_on_c, 0, 77, 46
1, 56107, Note_on_c, 0, 77, 0
1, 56115, Note_on_c, 0, 74, 64
1, 56127, Note_on_c, 0, 74, 0
1, 56137, Note_on_c, 0, 62, 33
1, 56138, Note_on_c, 0, 59, 33
1, 56139, Control_c, 0, 64, 0
1, 56141, Note_on_c, 0, 56, 28
1, 56150, Note_on_c, 0, 62, 0
1, 56153, Note_on_c, 0, 59, 0
1, 56172, Note_on_c, 0, 56, 0
1, 56172, Note_on_c, 0, 67, 40
1, 56180, Note_on_c, 0, 67, 0
1, 56191, Note_on_c, 0, 74, 73
1, 56191, Note_on_c, 0, 70, 74
1, 56193, Control_c, 0, 64, 127
1, 56211, Note_on_c, 0, 74, 0
1, 56218, Note_on_c, 0, 56, 25
1, 56221, Note_on_c, 0, 70, 0
1, 56221, Note_on_c, 0, 54, 42
1, 56233, Note_on_c, 0, 56, 0
1, 56243, Note_on_c, 0, 54, 0
1, 56245, Control_c, 0, 64, 0
1, 56247, Note_on_c, 0, 72, 53
1, 56247, Note_on_c, 0, 55, 57
1, 56247, Note_on_c, 0, 62, 50
1, 56248, Note_on_c, 0, 69, 44
1, 56249, Note_on_c, 0, 65, 55
1, 56269, Note_on_c, 0, 69, 0
1, 56269, Note_on_c, 0, 62, 0
1, 56272, Note_on_c, 0, 65, 0
1, 56272, Note_on_c, 0, 72, 0
1, 56277, Note_on_c, 0, 55, 0
1, 56283, Note_on_c, 0, 62, 51
1, 56284, Note_on_c, 0, 43, 49
1, 56294, Note_on_c, 0, 62, 0
1, 56299, Control_c, 0, 64, 127
1, 56326, Note_on_c, 0, 50, 43
1, 56350, Note_on_c, 0, 50, 0
1, 56358, Note_on_c, 0, 62, 55
1, 56360, Note_on_c, 0, 58, 49
1, 56362, Note_on_c, 0, 55, 48
1, 56364, Note_on_c, 0, 50, 34
1, 56366, Control_c, 0, 64, 0
1, 56381, Note_on_c, 0, 55, 0
1, 56384, Note_on_c, 0, 50, 0
1, 56387, Note_on_c, 0, 62, 0
1, 56392, Note_on_c, 0, 65, 63
1, 56397, Note_on_c, 0, 43, 0
1, 56412, Note_on_c, 0, 58, 0
1, 56414, Note_on_c, 0, 65, 0
1, 56422, Control_c, 0, 64, 127
1, 56428, Note_on_c, 0, 47, 51
1, 56456, Control_c, 0, 64, 0
1, 56459, Note_on_c, 0, 47, 0
1, 56464, Note_on_c, 0, 58, 48
1, 56465, Note_on_c, 0, 62, 50
1, 56465, Note_on_c, 0, 48, 55
1, 56467, Note_on_c, 0, 65, 28
1, 56468, Note_on_c, 0, 55, 26
1, 56473, Note_on_c, 0, 55, 0
1, 56478, Note_on_c, 0, 58, 0
1, 56479, Note_on_c, 0, 62, 0
1, 56480, Note_on_c, 0, 65, 0
1, 56486, Note_on_c, 0, 48, 0
1, 56487, Control_c, 0, 64, 127
1, 56498, Note_on_c, 0, 36, 60
1, 56503, Note_on_c, 0, 36, 0
1, 56503, Note_on_c, 0, 72, 83
1, 56503, Note_on_c, 0, 64, 87
1, 56508, Note_on_c, 0, 66, 27
1, 56508, Note_on_c, 0, 69, 40
1, 56508, Note_on_c, 0, 68, 17
1, 56512, Note_on_c, 0, 66, 0
1, 56514, Note_on_c, 0, 69, 0
1, 56524, Note_on_c, 0, 68, 0
1, 56524, Note_on_c, 0, 64, 0
1, 56526, Note_on_c, 0, 72, 0
1, 56536, Note_on_c, 0, 70, 69
1, 56538, Note_on_c, 0, 58, 51
1, 56538, Note_on_c, 0, 66, 59
1, 56538, Note_on_c, 0, 62, 69
1, 56543, Control_c, 0, 64, 0
1, 56554, Note_on_c, 0, 66, 0
1, 56556, Note_on_c, 0, 70, 0
1, 56557, Note_on_c, 0, 62, 0
1, 56563, Note_on_c, 0, 58, 0
1, 56571, Note_on_c, 0, 68, 45
1, 56571, Control_c, 0, 64, 127
1, 56571, Note_on_c, 0, 56, 40
1, 56575, Note_on_c, 0, 64, 47
1, 56576, Note_on_c, 0, 60, 27
1, 56582, Note_on_c, 0, 56, 0
1, 56588, Note_on_c, 0, 60, 0
1, 56588, Control_c, 0, 64, 0
1, 56589, Note_on_c, 0, 68, 0
1, 56593, Note_on_c, 0, 64, 0
1, 56606, Note_on_c, 0, 63, 35
1, 56606, Control_c, 0, 64, 127
1, 56607, Note_on_c, 0, 58, 33
1, 56624, Note_on_c, 0, 63, 0
1, 56626, Note_on_c, 0, 58, 0
1, 56641, Note_on_c, 0, 52, 71
1, 56664, Note_on_c, 0, 52, 0
1, 56669, Control_c, 0, 64, 0
1, 56672, Note_on_c, 0, 67, 70
1, 56673, Note_on_c, 0, 57, 74
1, 56673, Note_on_c, 0, 64, 55
1, 56673, Note_on_c, 0, 60, 70
1, 56674, Note_on_c, 0, 55, 76
1, 56696, Note_on_c, 0, 64, 0
1, 56697, Note_on_c, 0, 67, 0
1, 56702, Note_on_c, 0, 57, 0
1, 56702, Note_on_c, 0, 60, 0
1, 56702, Note_on_c, 0, 55, 0
1, 56702, Control_c, 0, 64, 127
1, 56709, Note_on_c, 0, 53, 51
1, 56719, Control_c, 0, 64, 0
1, 56723, Note_on_c, 0, 53, 0
1, 56740, Note_on_c, 0, 62, 56
1, 56740, Note_on_c, 0, 65, 53
1, 56740, Note_on_c, 0, 60, 46
1, 56741, Note_on_c, 0, 57, 46
1, 56743, Note_on_c, 0, 53, 57
1, 56768, Control_c, 0, 64, 127
1, 56783, Note_on_c, 0, 62, 0
1, 56787, Note_on_c, 0, 60, 0
1, 56788, Note_on_c, 0, 65, 0
1, 56794, Note_on_c, 0, 57, 0
1, 56801, Note_on_c, 0, 53, 0
1, 56820, Note_on_c, 0, 64, 53
1, 56822, Note_on_c, 0, 60, 57
1, 56822, Note_on_c, 0, 57, 64
1, 56824, Note_on_c, 0, 53, 58
1, 56827, Note_on_c, 0, 48, 60
1, 56831, Control_c, 0, 64, 0
1, 56855, Control_c, 0, 64, 127
1, 56868, Note_on_c, 0, 53, 0
1, 56870, Note_on_c, 0, 60, 0
1, 56871, Note_on_c, 0, 57, 0
1, 56879, Note_on_c, 0, 64, 0
1, 56882, Control_c, 0, 64, 0
1, 56883, Note_on_c, 0, 60, 59
1, 56885, Note_on_c, 0, 41, 55
1, 56885, Note_on_c, 0, 57, 45
1, 56886, Note_on_c, 0, 53, 40
1, 56897, Control_c, 0, 64, 127
1, 56898, Note_on_c, 0, 48, 0
1, 56913, Note_on_c, 0, 53, 0
1, 56926, Note_on_c, 0, 57, 0
1, 56933, Note_on_c, 0, 60, 0
1, 56991, Note_on_c, 0, 67, 74
1, 56995, Note_on_c, 0, 48, 47
1, 57001, Note_on_c, 0, 41, 0
1, 57004, Note_on_c, 0, 48, 0
1, 57019, Note_on_c, 0, 67, 0
1, 57021, Note_on_c, 0, 69, 62
1, 57035, Note_on_c, 0, 70, 58
1, 57036, Note_on_c, 0, 69, 0
1, 57041, Note_on_c, 0, 70, 0
1, 57049, Note_on_c, 0, 72, 69
1, 57064, Note_on_c, 0, 74, 51
1, 57065, Note_on_c, 0, 72, 0
1, 57076, Note_on_c, 0, 75, 70
1, 57078, Note_on_c, 0, 74, 0
1, 57085, Note_on_c, 0, 75, 0
1, 57091, Note_on_c, 0, 77, 57
1, 57095, Note_on_c, 0, 63, 48
1, 57097, Note_on_c, 0, 58, 37
1, 57099, Control_c, 0, 64, 0
1, 57100, Note_on_c, 0, 53, 27
1, 57106, Note_on_c, 0, 79, 51
1, 57108, Note_on_c, 0, 77, 0
1, 57125, Note_on_c, 0, 81, 50
1, 57129, Note_on_c, 0, 79, 0
1, 57129, Control_c, 0, 64, 127
1, 57131, Note_on_c, 0, 81, 0
1, 57149, Note_on_c, 0, 84, 47
1, 57163, Note_on_c, 0, 84, 0
1, 57165, Note_on_c, 0, 63, 0
1, 57165, Note_on_c, 0, 86, 50
1, 57172, Note_on_c, 0, 58, 0
1, 57178, Note_on_c, 0, 86, 0
1, 57179, Note_on_c, 0, 87, 56
1, 57184, Note_on_c, 0, 87, 0
1, 57191, Note_on_c, 0, 89, 36
1, 57203, Note_on_c, 0, 91, 51
1, 57206, Note_on_c, 0, 89, 0
1, 57208, Note_on_c, 0, 63, 38
1, 57211, Note_on_c, 0, 58, 33
1, 57215, Note_on_c, 0, 93, 56
1, 57219, Note_on_c, 0, 91, 0
1, 57224, Note_on_c, 0, 93, 0
1, 57242, Note_on_c, 0, 96, 50
1, 57244, Note_on_c, 0, 53, 0
1, 57248, Note_on_c, 0, 96, 0
1, 57257, Note_on_c, 0, 98, 35
1, 57259, Note_on_c, 0, 63, 0
1, 57259, Note_on_c, 0, 58, 0
1, 57270, Note_on_c, 0, 99, 47
1, 57273, Note_on_c, 0, 98, 0
1, 57284, Note_on_c, 0, 99, 0
1, 57284, Note_on_c, 0, 100, 48
1, 57299, Note_on_c, 0, 100, 0
1, 57307, Note_on_c, 0, 101, 69
1, 57310, Note_on_c, 0, 63, 31
1, 57310, Note_on_c, 0, 57, 44
1, 57312, Note_on_c, 0, 67, 25
1, 57313, Control_c, 0, 64, 0
1, 57328, Control_c, 0, 64, 127
1, 57337, Note_on_c, 0, 67, 0
1, 57344, Note_on_c, 0, 63, 0
1, 57348, Note_on_c, 0, 57, 0
1, 57440, Note_on_c, 0, 101, 0
1, 57447, Note_on_c, 0, 29, 36
1, 57643, Note_on_c, 0, 29, 0
1, 57691, Note_on_c, 0, 74, 94
1, 57720, Note_on_c, 0, 74, 0
1, 57738, Note_on_c, 0, 46, 65
1, 57746, Note_on_c, 0, 74, 74
1, 57750, Note_on_c, 0, 69, 53
1, 57752, Note_on_c, 0, 65, 49
1, 57752, Note_on_c, 0, 57, 64
1, 57755, Note_on_c, 0, 62, 61
1, 57756, Control_c, 0, 64, 0
1, 57779, Note_on_c, 0, 74, 0
1, 57787, Control_c, 0, 64, 127
1, 57789, Note_on_c, 0, 62, 0
1, 57792, Note_on_c, 0, 74, 63
1, 57797, Note_on_c, 0, 62, 20
1, 57802, Note_on_c, 0, 62, 0
1, 57802, Note_on_c, 0, 72, 27
1, 57803, Note_on_c, 0, 65, 0
1, 57807, Note_on_c, 0, 46, 0
1, 57809, Note_on_c, 0, 69, 0
1, 57814, Note_on_c, 0, 72, 0
1, 57816, Note_on_c, 0, 57, 0
1, 57817, Note_on_c, 0, 74, 0
1, 57852, Note_on_c, 0, 47, 60
1, 57853, Control_c, 0, 64, 0
1, 57867, Control_c, 0, 64, 127
1, 57870, Note_on_c, 0, 47, 0
1, 57914, Note_on_c, 0, 76, 71
1, 57915, Note_on_c, 0, 66, 64
1, 57915, Note_on_c, 0, 62, 40
1, 57916, Note_on_c, 0, 73, 52
1, 57916, Note_on_c, 0, 64, 57
1, 57919, Note_on_c, 0, 69, 68
1, 57950, Note_on_c, 0, 64, 0
1, 57958, Note_on_c, 0, 62, 0
1, 57959, Note_on_c, 0, 66, 0
1, 57963, Note_on_c, 0, 69, 0
1, 57969, Note_on_c, 0, 76, 0
1, 57970, Note_on_c, 0, 73, 0
1, 57991, Note_on_c, 0, 62, 43
1, 57991, Note_on_c, 0, 76, 57
1, 57991, Note_on_c, 0, 67, 53
1, 57993, Note_on_c, 0, 72, 62
1, 57995, Note_on_c, 0, 56, 36
1, 57996, Control_c, 0, 64, 0
1, 58023, Control_c, 0, 64, 127
1, 58033, Note_on_c, 0, 62, 0
1, 58036, Note_on_c, 0, 76, 0
1, 58038, Note_on_c, 0, 72, 0
1, 58038, Note_on_c, 0, 74, 65
1, 58040, Note_on_c, 0, 56, 0
1, 58043, Note_on_c, 0, 67, 0
1, 58066, Note_on_c, 0, 74, 0
1, 58078, Note_on_c, 0, 73, 36
1, 58082, Note_on_c, 0, 45, 48
1, 58086, Control_c, 0, 64, 0
1, 58107, Control_c, 0, 64, 127
1, 58112, Note_on_c, 0, 52, 54
1, 58144, Note_on_c, 0, 57, 56
1, 58145, Note_on_c, 0, 45, 0
1, 58145, Note_on_c, 0, 64, 74
1, 58150, Note_on_c, 0, 52, 0
1, 58157, Note_on_c, 0, 57, 0
1, 58165, Note_on_c, 0, 73, 0
1, 58165, Note_on_c, 0, 64, 0
1, 58177, Note_on_c, 0, 73, 71
1, 58195, Note_on_c, 0, 73, 0
1, 58215, Note_on_c, 0, 61, 50
1, 58216, Note_on_c, 0, 75, 70
1, 58216, Note_on_c, 0, 65, 62
1, 58216, Note_on_c, 0, 68, 74
1, 58217, Note_on_c, 0, 72, 73
1, 58222, Control_c, 0, 64, 0
1, 58253, Control_c, 0, 64, 127
1, 58257, Note_on_c, 0, 58, 48
1, 58272, Note_on_c, 0, 65, 0
1, 58285, Note_on_c, 0, 72, 0
1, 58286, Note_on_c, 0, 68, 0
1, 58286, Note_on_c, 0, 75, 0
1, 58290, Note_on_c, 0, 58, 0
1, 58297, Note_on_c, 0, 75, 50
1, 58298, Note_on_c, 0, 64, 50
1, 58301, Note_on_c, 0, 55, 30
1, 58301, Note_on_c, 0, 67, 40
1, 58302, Note_on_c, 0, 71, 51
1, 58305, Control_c, 0, 64, 0
1, 58322, Control_c, 0, 64, 127
1, 58342, Note_on_c, 0, 75, 0
1, 58344, Note_on_c, 0, 71, 0
1, 58346, Note_on_c, 0, 64, 0
1, 58350, Note_on_c, 0, 73, 44
1, 58353, Note_on_c, 0, 61, 0
1, 58356, Note_on_c, 0, 55, 0
1, 58362, Note_on_c, 0, 67, 0
1, 58369, Note_on_c, 0, 73, 0
1, 58401, Note_on_c, 0, 72, 53
1, 58405, Note_on_c, 0, 44, 37
1, 58413, Control_c, 0, 64, 0
1, 58431, Note_on_c, 0, 51, 56
1, 58439, Control_c, 0, 64, 127
1, 58462, Note_on_c, 0, 60, 74
1, 58468, Note_on_c, 0, 55, 47
1, 58471, Note_on_c, 0, 44, 0
1, 58473, Note_on_c, 0, 72, 0
1, 58479, Note_on_c, 0, 51, 0
1, 58485, Note_on_c, 0, 55, 0
1, 58487, Note_on_c, 0, 60, 0
1, 58497, Note_on_c, 0, 67, 66
1, 58519, Note_on_c, 0, 67, 0
1, 58539, Note_on_c, 0, 74, 81
1, 58540, Note_on_c, 0, 62, 94
1, 58540, Note_on_c, 0, 67, 87
1, 58540, Note_on_c, 0, 64, 91
1, 58541, Note_on_c, 0, 69, 74
1, 58545, Control_c, 0, 64, 0
1, 58580, Note_on_c, 0, 74, 0
1, 58586, Control_c, 0, 64, 127
1, 58592, Note_on_c, 0, 74, 68
1, 58609, Note_on_c, 0, 64, 0
1, 58619, Note_on_c, 0, 74, 0
1, 58621, Note_on_c, 0, 69, 0
1, 58625, Note_on_c, 0, 62, 0
1, 58627, Note_on_c, 0, 67, 0
1, 58644, Note_on_c, 0, 74, 70
1, 58645, Note_on_c, 0, 67, 44
1, 58645, Note_on_c, 0, 50, 45
1, 58645, Note_on_c, 0, 60, 40
1, 58646, Note_on_c, 0, 63, 49
1, 58647, Note_on_c, 0, 69, 50
1, 58649, Control_c, 0, 64, 0
1, 58668, Control_c, 0, 64, 127
1, 58681, Note_on_c, 0, 74, 0
1, 58690, Note_on_c, 0, 69, 0
1, 58692, Note_on_c, 0, 60, 0
1, 58695, Note_on_c, 0, 72, 63
1, 58699, Note_on_c, 0, 50, 0
1, 58708, Note_on_c, 0, 67, 0
1, 58715, Note_on_c, 0, 72, 0
1, 58717, Note_on_c, 0, 63, 0
1, 58753, Control_c, 0, 64, 0
1, 58754, Note_on_c, 0, 43, 41
1, 58754, Note_on_c, 0, 71, 40
1, 58755, Note_on_c, 0, 62, 42
1, 58755, Note_on_c, 0, 54, 30
1, 58757, Note_on_c, 0, 66, 34
1, 58774, Control_c, 0, 64, 127
1, 58789, Note_on_c, 0, 62, 0
1, 58804, Note_on_c, 0, 66, 0
1, 58808, Note_on_c, 0, 43, 0
1, 58811, Note_on_c, 0, 71, 0
1, 58823, Note_on_c, 0, 54, 0
1, 58871, Note_on_c, 0, 82, 59
1, 58871, Note_on_c, 0, 58, 44
1, 58902, Note_on_c, 0, 82, 0
1, 58903, Note_on_c, 0, 83, 61
1, 58905, Note_on_c, 0, 59, 36
1, 58907, Note_on_c, 0, 58, 0
1, 58911, Note_on_c, 0, 59, 0
1, 58913, Note_on_c, 0, 83, 0
1, 58915, Control_c, 0, 64, 0
1, 58943, Note_on_c, 0, 93, 67
1, 58945, Note_on_c, 0, 91, 36
1, 58947, Note_on_c, 0, 69, 36
1, 58951, Note_on_c, 0, 91, 0
1, 58953, Note_on_c, 0, 69, 0
1, 58955, Note_on_c, 0, 93, 0
1, 58983, Note_on_c, 0, 66, 45
1, 58984, Note_on_c, 0, 90, 52
1, 58997, Note_on_c, 0, 66, 0
1, 58998, Note_on_c, 0, 90, 0
1, 59022, Note_on_c, 0, 62, 40
1, 59023, Note_on_c, 0, 86, 54
1, 59030, Control_c, 0, 64, 127
1, 59048, Note_on_c, 0, 62, 0
1, 59052, Note_on_c, 0, 86, 0
1, 59052, Control_c, 0, 64, 0
1, 59058, Note_on_c, 0, 59, 36
1, 59061, Control_c, 0, 64, 127
1, 59064, Note_on_c, 0, 83, 19
1, 59071, Control_c, 0, 64, 0
1, 59077, Note_on_c, 0, 83, 0
1, 59081, Note_on_c, 0, 59, 0
1, 59094, Note_on_c, 0, 78, 50
1, 59096, Note_on_c, 0, 54, 34
1, 59128, Note_on_c, 0, 54, 0
1, 59128, Note_on_c, 0, 78, 0
1, 59133, Note_on_c, 0, 81, 49
1, 59135, Note_on_c, 0, 57, 47
1, 59179, Note_on_c, 0, 57, 0
1, 59180, Note_on_c, 0, 81, 0
1, 59180, Note_on_c, 0, 78, 36
1, 59183, Note_on_c, 0, 54, 29
1, 59246, Note_on_c, 0, 79, 38
1, 59254, Note_on_c, 0, 78, 0
1, 59262, Note_on_c, 0, 80, 42
1, 59267, Note_on_c, 0, 80, 0
1, 59268, Note_on_c, 0, 79, 0
1, 59269, Note_on_c, 0, 81, 41
1, 59270, Note_on_c, 0, 54, 0
1, 59273, Note_on_c, 0, 57, 41
1, 59300, Note_on_c, 0, 81, 0
1, 59304, Note_on_c, 0, 57, 0
1, 59311, Note_on_c, 0, 78, 40
1, 59313, Note_on_c, 0, 54, 35
1, 59351, Control_c, 0, 64, 127
1, 59352, Note_on_c, 0, 54, 0
1, 59355, Note_on_c, 0, 74, 32
1, 59357, Note_on_c, 0, 50, 40
1, 59366, Note_on_c, 0, 78, 0
1, 59389, Note_on_c, 0, 50, 0
1, 59393, Note_on_c, 0, 74, 0
1, 59401, Note_on_c, 0, 71, 35
1, 59407, Note_on_c, 0, 47, 51
1, 59452, Note_on_c, 0, 47, 0
1, 59454, Note_on_c, 0, 71, 0
1, 59459, Note_on_c, 0, 66, 38
1, 59461, Note_on_c, 0, 43, 34
1, 59492, Note_on_c, 0, 66, 0
1, 59513, Note_on_c, 0, 62, 61
1, 59516, Note_on_c, 0, 50, 37
1, 59560, Note_on_c, 0, 62, 0
1, 59578, Note_on_c, 0, 43, 0
1, 59591, Note_on_c, 0, 50, 0
1, 59636, Note_on_c, 0, 58, 56
1, 59640, Note_on_c, 0, 55, 40
1, 59641, Note_on_c, 0, 40, 37
1, 59646, Control_c, 0, 64, 0
1, 59655, Control_c, 0, 64, 127
1, 59662, Note_on_c, 0, 55, 0
1, 59673, Note_on_c, 0, 58, 0
1, 59691, Note_on_c, 0, 47, 44
1, 59707, Note_on_c, 0, 40, 0
1, 59714, Note_on_c, 0, 47, 0
1, 59730, Note_on_c, 0, 55, 54
1, 59731, Note_on_c, 0, 70, 70
1, 59733, Note_on_c, 0, 65, 80
1, 59733, Note_on_c, 0, 62, 74
1, 59760, Note_on_c, 0, 70, 0
1, 59767, Note_on_c, 0, 55, 0
1, 59771, Note_on_c, 0, 62, 0
1, 59773, Note_on_c, 0, 65, 0
1, 59783, Note_on_c, 0, 56, 63
1, 59786, Note_on_c, 0, 71, 61
1, 59786, Note_on_c, 0, 72, 72
1, 59798, Note_on_c, 0, 56, 0
1, 59801, Note_on_c, 0, 72, 0
1, 59802, Note_on_c, 0, 71, 0
1, 59842, Control_c, 0, 64, 0
1, 59843, Note_on_c, 0, 72, 77
1, 59844, Note_on_c, 0, 64, 80
1, 59845, Note_on_c, 0, 45, 68
1, 59845, Note_on_c, 0, 61, 71
1, 59846, Note_on_c, 0, 67, 52
1, 59848, Note_on_c, 0, 70, 37
1, 59860, Note_on_c, 0, 61, 0
1, 59861, Control_c, 0, 64, 127
1, 59863, Note_on_c, 0, 45, 0
1, 59863, Note_on_c, 0, 64, 0
1, 59864, Note_on_c, 0, 67, 0
1, 59869, Note_on_c, 0, 70, 0
1, 59869, Note_on_c, 0, 72, 0
1, 59915, Note_on_c, 0, 76, 88
1, 59915, Note_on_c, 0, 73, 78
1, 59916, Note_on_c, 0, 84, 87
1, 59917, Note_on_c, 0, 79, 69
1, 59918, Note_on_c, 0, 82, 56
1, 59918, Note_on_c, 0, 72, 91
1, 59919, Note_on_c, 0, 80, 35
1, 59933, Note_on_c, 0, 80, 0
1, 59936, Note_on_c, 0, 84, 0
1, 59938, Note_on_c, 0, 79, 0
1, 59939, Note_on_c, 0, 76, 0
1, 59940, Note_on_c, 0, 82, 0
1, 59941, Note_on_c, 0, 72, 0
1, 59953, Note_on_c, 0, 73, 0
1, 59975, Note_on_c, 0, 81, 79
1, 59976, Note_on_c, 0, 73, 60
1, 59977, Note_on_c, 0, 70, 77
1, 59977, Note_on_c, 0, 69, 61
1, 59977, Note_on_c, 0, 76, 66
1, 59982, Control_c, 0, 64, 0
1, 59989, Control_c, 0, 64, 127
1, 59998, Note_on_c, 0, 81, 0
1, 60005, Note_on_c, 0, 76, 0
1, 60013, Note_on_c, 0, 70, 0
1, 60021, Note_on_c, 0, 73, 0
1, 60026, Note_on_c, 0, 69, 0
1, 60035, Note_on_c, 0, 73, 51
1, 60036, Note_on_c, 0, 70, 67
1, 60036, Note_on_c, 0, 76, 60
1, 60038, Note_on_c, 0, 66, 47
1, 60049, Note_on_c, 0, 66, 0
1, 60063, Note_on_c, 0, 70, 0
1, 60084, Note_on_c, 0, 73, 0
1, 60085, Note_on_c, 0, 76, 0
1, 60111, Note_on_c, 0, 79, 64
1, 60112, Note_on_c, 0, 72, 66
1, 60113, Note_on_c, 0, 69, 60
1, 60122, Control_c, 0, 64, 0
1, 60140, Control_c, 0, 64, 127
1, 60150, Note_on_c, 0, 79, 0
1, 60164, Note_on_c, 0, 77, 68
1, 60165, Note_on_c, 0, 50, 44
1, 60171, Note_on_c, 0, 72, 0
1, 60174, Control_c, 0, 64, 0
1, 60178, Control_c, 0, 64, 127
1, 60179, Note_on_c, 0, 69, 0
1, 60190, Note_on_c, 0, 77, 0
1, 60210, Note_on_c, 0, 65, 51
1, 60212, Note_on_c, 0, 69, 54
1, 60213, Note_on_c, 0, 57, 40
1, 60237, Note_on_c, 0, 65, 0
1, 60245, Note_on_c, 0, 69, 0
1, 60261, Note_on_c, 0, 72, 58
1, 60268, Note_on_c, 0, 57, 0
1, 60272, Note_on_c, 0, 50, 0
1, 60303, Note_on_c, 0, 72, 0
1, 60311, Note_on_c, 0, 70, 42
1, 60312, Note_on_c, 0, 44, 39
1, 60313, Note_on_c, 0, 74, 48
1, 60313, Note_on_c, 0, 65, 36
1, 60317, Control_c, 0, 64, 0
1, 60342, Control_c, 0, 64, 127
1, 60351, Note_on_c, 0, 65, 0
1, 60352, Note_on_c, 0, 54, 35
1, 60354, Note_on_c, 0, 44, 0
1, 60360, Note_on_c, 0, 70, 0
1, 60362, Note_on_c, 0, 54, 0
1, 60363, Note_on_c, 0, 74, 0
1, 60397, Note_on_c, 0, 60, 35
1, 60442, Note_on_c, 0, 77, 42
1, 60442, Note_on_c, 0, 86, 46
1, 60443, Note_on_c, 0, 82, 42
1, 60444, Note_on_c, 0, 65, 36
1, 60493, Note_on_c, 0, 86, 0
1, 60499, Note_on_c, 0, 82, 0
1, 60504, Note_on_c, 0, 77, 0
1, 60540, Note_on_c, 0, 65, 0
1, 60569, Note_on_c, 0, 60, 0
1, 60616, Note_on_c, 0, 76, 62
1, 60631, Note_on_c, 0, 76, 0
1, 60634, Note_on_c, 0, 75, 43
1, 60647, Note_on_c, 0, 75, 0
1, 60653, Note_on_c, 0, 59, 33
1, 60654, Note_on_c, 0, 64, 31
1, 60655, Note_on_c, 0, 76, 54
1, 60655, Note_on_c, 0, 53, 34
1, 60658, Control_c, 0, 64, 0
1, 60682, Control_c, 0, 64, 127
1, 60693, Note_on_c, 0, 64, 0
1, 60698, Note_on_c, 0, 59, 0
1, 60702, Note_on_c, 0, 53, 0
1, 60756, Note_on_c, 0, 31, 30
1, 60786, Note_on_c, 0, 31, 0
1, 60789, Control_c, 0, 64, 0
1, 60797, Control_c, 0, 64, 127
1, 60807, Note_on_c, 0, 31, 55
1, 60842, Note_on_c, 0, 31, 0
1, 60874, Note_on_c, 0, 76, 0
1, 60891, Note_on_c, 0, 76, 64
1, 60907, Note_on_c, 0, 76, 0
1, 60913, Note_on_c, 0, 75, 59
1, 60927, Note_on_c, 0, 75, 0
1, 60934, Note_on_c, 0, 59, 51
1, 60936, Note_on_c, 0, 53, 54
1, 60936, Note_on_c, 0, 64, 62
1, 60937, Note_on_c, 0, 76, 87
1, 60943, Control_c, 0, 64, 0
1, 60956, Control_c, 0, 64, 127
1, 60977, Note_on_c, 0, 76, 0
1, 60990, Note_on_c, 0, 76, 82
1, 61018, Note_on_c, 0, 76, 0
1, 61041, Note_on_c, 0, 76, 92
1, 61072, Note_on_c, 0, 76, 0
1, 61082, Note_on_c, 0, 75, 71
1, 61105, Note_on_c, 0, 75, 0
1, 61114, Note_on_c, 0, 64, 0
1, 61127, Note_on_c, 0, 74, 58
1, 61127, Note_on_c, 0, 76, 45
1, 61130, Note_on_c, 0, 59, 0
1, 61139, Note_on_c, 0, 76, 0
1, 61140, Note_on_c, 0, 53, 0
1, 61141, Note_on_c, 0, 74, 0
1, 61193, Note_on_c, 0, 67, 51
1, 61196, Note_on_c, 0, 63, 45
1, 61197, Note_on_c, 0, 49, 34
1, 61198, Note_on_c, 0, 53, 34
1, 61198, Note_on_c, 0, 59, 29
1, 61199, Note_on_c, 0, 58, 35
1, 61206, Control_c, 0, 64, 0
1, 61235, Control_c, 0, 64, 127
1, 61242, Note_on_c, 0, 67, 0
1, 61259, Note_on_c, 0, 67, 38
1, 61306, Note_on_c, 0, 67, 0
1, 61321, Note_on_c, 0, 67, 53
1, 61359, Note_on_c, 0, 67, 0
1, 61384, Note_on_c, 0, 67, 47
1, 61387, Note_on_c, 0, 59, 0
1, 61390, Note_on_c, 0, 53, 0
1, 61397, Note_on_c, 0, 49, 0
1, 61410, Note_on_c, 0, 67, 0
1, 61438, Note_on_c, 0, 63, 0
1, 61446, Note_on_c, 0, 58, 0
1, 61487, Note_on_c, 0, 68, 49
1, 61488, Note_on_c, 0, 36, 35
1, 61488, Note_on_c, 0, 58, 38
1, 61488, Note_on_c, 0, 24, 38
1, 61489, Note_on_c, 0, 64, 52
1, 61491, Control_c, 0, 64, 0
1, 61511, Control_c, 0, 64, 127
1, 61514, Note_on_c, 0, 58, 0
1, 61520, Note_on_c, 0, 64, 0
1, 61524, Note_on_c, 0, 68, 0
1, 61526, Note_on_c, 0, 24, 0
1, 61532, Note_on_c, 0, 36, 0
1, 61657, Note_on_c, 0, 80, 43
1, 61657, Note_on_c, 0, 70, 34
1, 61659, Note_on_c, 0, 84, 46
1, 61659, Note_on_c, 0, 76, 39
1, 61710, Note_on_c, 0, 84, 0
1, 61715, Note_on_c, 0, 70, 0
1, 61716, Note_on_c, 0, 80, 0
1, 61719, Note_on_c, 0, 76, 0
1, 61764, Note_on_c, 0, 80, 40
1, 61766, Note_on_c, 0, 76, 41
1, 61768, Note_on_c, 0, 73, 28
1, 61769, Note_on_c, 0, 64, 36
1, 61769, Note_on_c, 0, 70, 30
1, 61798, Note_on_c, 0, 80, 0
1, 61801, Note_on_c, 0, 76, 0
1, 61803, Note_on_c, 0, 70, 0
1, 61819, Note_on_c, 0, 73, 0
1, 61849, Note_on_c, 0, 64, 0
1, 61864, Note_on_c, 0, 70, 39
1, 61865, Note_on_c, 0, 73, 29
1, 61866, Note_on_c, 0, 61, 33
1, 61892, Note_on_c, 0, 61, 0
1, 61900, Note_on_c, 0, 73, 0
1, 61900, Note_on_c, 0, 70, 0
1, 61962, Note_on_c, 0, 72, 42
1, 61964, Note_on_c, 0, 67, 42
1, 61964, Note_on_c, 0, 62, 47
1, 61969, Note_on_c, 0, 48, 42
1, 61970, Note_on_c, 0, 57, 26
1, 61980, Control_c, 0, 64, 0
1, 62019, Control_c, 0, 64, 127
1, 62065, Note_on_c, 0, 62, 0
1, 62065, Note_on_c, 0, 72, 0
1, 62078, Note_on_c, 0, 67, 0
1, 62087, Note_on_c, 0, 60, 78
1, 62107, Note_on_c, 0, 60, 0
1, 62127, Note_on_c, 0, 60, 73
1, 62142, Note_on_c, 0, 60, 0
1, 62159, Note_on_c, 0, 60, 72
1, 62175, Note_on_c, 0, 60, 0
1, 62193, Note_on_c, 0, 72, 89
1, 62212, Note_on_c, 0, 72, 0
1, 62232, Note_on_c, 0, 72, 90
1, 62233, Note_on_c, 0, 57, 0
1, 62251, Note_on_c, 0, 72, 0
1, 62281, Note_on_c, 0, 72, 61
1, 62283, Note_on_c, 0, 66, 48
1, 62284, Note_on_c, 0, 51, 31
1, 62284, Note_on_c, 0, 57, 46
1, 62285, Note_on_c, 0, 62, 53
1, 62294, Control_c, 0, 64, 0
1, 62343, Control_c, 0, 64, 127
1, 62362, Note_on_c, 0, 48, 0
1, 62457, Note_on_c, 0, 57, 0
1, 62462, Note_on_c, 0, 62, 0
1, 62464, Note_on_c, 0, 51, 0
1, 62475, Note_on_c, 0, 66, 0
1, 62501, Note_on_c, 0, 61, 36
1, 62501, Note_on_c, 0, 65, 51
1, 62501, Note_on_c, 0, 51, 28
1, 62502, Control_c, 0, 64, 0
1, 62502, Note_on_c, 0, 57, 34
1, 62503, Note_on_c, 0, 47, 34
1, 62513, Control_c, 0, 64, 127
1, 62518, Note_on_c, 0, 57, 0
1, 62524, Note_on_c, 0, 47, 0
1, 62530, Note_on_c, 0, 72, 0
1, 62531, Note_on_c, 0, 65, 0
1, 62535, Note_on_c, 0, 61, 0
1, 62555, Note_on_c, 0, 51, 0
1, 62558, Note_on_c, 0, 62, 50
1, 62558, Note_on_c, 0, 65, 45
1, 62558, Note_on_c, 0, 60, 42
1, 62560, Note_on_c, 0, 46, 42
1, 62561, Note_on_c, 0, 55, 27
1, 62563, Control_c, 0, 64, 0
1, 62592, Control_c, 0, 64, 127
1, 62628, Note_on_c, 0, 55, 0
1, 62635, Note_on_c, 0, 60, 0
1, 62636, Note_on_c, 0, 62, 0
1, 62642, Note_on_c, 0, 65, 0
1, 62662, Note_on_c, 0, 70, 77
1, 62663, Note_on_c, 0, 65, 88
1, 62663, Note_on_c, 0, 60, 78
1, 62664, Note_on_c, 0, 55, 60
1, 62669, Control_c, 0, 64, 0
1, 62685, Control_c, 0, 64, 127
1, 62706, Note_on_c, 0, 60, 0
1, 62719, Note_on_c, 0, 55, 0
1, 62731, Note_on_c, 0, 65, 0
1, 62740, Note_on_c, 0, 70, 0
1, 62774, Note_on_c, 0, 65, 67
1, 62774, Note_on_c, 0, 72, 69
1, 62775, Note_on_c, 0, 57, 53
1, 62775, Note_on_c, 0, 62, 66
1, 62782, Control_c, 0, 64, 0
1, 62794, Control_c, 0, 64, 127
1, 62799, Note_on_c, 0, 57, 0
1, 62800, Note_on_c, 0, 62, 0
1, 62806, Note_on_c, 0, 72, 0
1, 62819, Note_on_c, 0, 70, 57
1, 62821, Note_on_c, 0, 55, 41
1, 62823, Note_on_c, 0, 65, 0
1, 62834, Note_on_c, 0, 55, 0
1, 62846, Note_on_c, 0, 70, 0
1, 62857, Note_on_c, 0, 46, 0
1, 62883, Control_c, 0, 64, 0
1, 62883, Note_on_c, 0, 45, 80
1, 62896, Control_c, 0, 64, 127
1, 62899, Note_on_c, 0, 45, 0
1, 62988, Note_on_c, 0, 85, 71
1, 62989, Note_on_c, 0, 76, 62
1, 62989, Note_on_c, 0, 81, 71
1, 62991, Note_on_c, 0, 71, 55
1, 63013, Note_on_c, 0, 81, 0
1, 63017, Note_on_c, 0, 85, 0
1, 63023, Note_on_c, 0, 76, 0
1, 63041, Note_on_c, 0, 71, 0
1, 63046, Note_on_c, 0, 75, 62
1, 63048, Note_on_c, 0, 83, 50
1, 63048, Note_on_c, 0, 79, 60
1, 63050, Note_on_c, 0, 69, 53
1, 63062, Note_on_c, 0, 83, 0
1, 63063, Note_on_c, 0, 79, 0
1, 63073, Note_on_c, 0, 75, 0
1, 63094, Note_on_c, 0, 69, 0
1, 63102, Note_on_c, 0, 73, 40
1, 63102, Note_on_c, 0, 81, 58
1, 63104, Note_on_c, 0, 77, 60
1, 63104, Note_on_c, 0, 67, 44
1, 63118, Note_on_c, 0, 81, 0
1, 63124, Note_on_c, 0, 77, 0
1, 63128, Note_on_c, 0, 73, 0
1, 63153, Note_on_c, 0, 67, 0
1, 63160, Note_on_c, 0, 75, 54
1, 63161, Note_on_c, 0, 79, 57
1, 63161, Note_on_c, 0, 71, 53
1, 63163, Note_on_c, 0, 65, 52
1, 63181, Note_on_c, 0, 79, 0
1, 63187, Note_on_c, 0, 75, 0
1, 63190, Note_on_c, 0, 71, 0
1, 63212, Note_on_c, 0, 65, 0
1, 63216, Note_on_c, 0, 73, 36
1, 63217, Note_on_c, 0, 77, 55
1, 63218, Note_on_c, 0, 69, 49
1, 63218, Control_c, 0, 64, 0
1, 63221, Note_on_c, 0, 63, 35
1, 63228, Control_c, 0, 64, 127
1, 63241, Note_on_c, 0, 69, 0
1, 63248, Note_on_c, 0, 73, 0
1, 63253, Note_on_c, 0, 77, 0
1, 63267, Note_on_c, 0, 73, 42
1, 63269, Note_on_c, 0, 75, 54
1, 63270, Note_on_c, 0, 61, 44
1, 63271, Note_on_c, 0, 69, 45
1, 63274, Note_on_c, 0, 63, 0
1, 63282, Note_on_c, 0, 61, 0
1, 63286, Note_on_c, 0, 73, 0
1, 63292, Note_on_c, 0, 69, 0
1, 63294, Note_on_c, 0, 75, 0
1, 63326, Note_on_c, 0, 76, 50
1, 63327, Note_on_c, 0, 65, 54
1, 63328, Note_on_c, 0, 60, 48
1, 63329, Note_on_c, 0, 69, 62
1, 63335, Control_c, 0, 64, 0
1, 63353, Control_c, 0, 64, 127
1, 63364, Note_on_c, 0, 60, 0
1, 63374, Note_on_c, 0, 65, 0
1, 63380, Note_on_c, 0, 76, 0
1, 63385, Control_c, 0, 64, 0
1, 63386, Note_on_c, 0, 74, 52
1, 63387, Note_on_c, 0, 65, 55
1, 63389, Note_on_c, 0, 61, 48
1, 63401, Control_c, 0, 64, 127
1, 63410, Note_on_c, 0, 69, 0
1, 63430, Note_on_c, 0, 61, 0
1, 63431, Note_on_c, 0, 65, 0
1, 63451, Note_on_c, 0, 65, 44
1, 63452, Note_on_c, 0, 69, 44
1, 63453, Control_c, 0, 64, 0
1, 63454, Note_on_c, 0, 60, 26
1, 63471, Control_c, 0, 64, 127
1, 63510, Note_on_c, 0, 50, 48
1, 63521, Note_on_c, 0, 69, 0
1, 63521, Note_on_c, 0, 74, 0
1, 63525, Note_on_c, 0, 60, 0
1, 63531, Note_on_c, 0, 65, 0
1, 63543, Note_on_c, 0, 50, 0
1, 63583, Note_on_c, 0, 48, 30
1, 63583, Note_on_c, 0, 65, 48
1, 63584, Note_on_c, 0, 60, 29
1, 63588, Note_on_c, 0, 57, 34
1, 63595, Control_c, 0, 64, 0
1, 63627, Control_c, 0, 64, 127
1, 63644, Note_on_c, 0, 48, 0
1, 63649, Note_on_c, 0, 60, 0
1, 63659, Note_on_c, 0, 48, 43
1, 63719, Note_on_c, 0, 65, 0
1, 63719, Note_on_c, 0, 60, 38
1, 63744, Note_on_c, 0, 48, 0
1, 63750, Note_on_c, 0, 60, 0
1, 63763, Note_on_c, 0, 48, 37
1, 63763, Note_on_c, 0, 65, 55
1, 63778, Note_on_c, 0, 48, 0
1, 63780, Note_on_c, 0, 57, 0
1, 63781, Note_on_c, 0, 65, 0
1, 63814, Control_c, 0, 64, 0
1, 63816, Note_on_c, 0, 46, 65
1, 63822, Control_c, 0, 64, 127
1, 63829, Note_on_c, 0, 46, 0
1, 63875, Note_on_c, 0, 77, 80
1, 63875, Note_on_c, 0, 56, 56
1, 63876, Note_on_c, 0, 60, 44
1, 63876, Note_on_c, 0, 65, 68
1, 63877, Note_on_c, 0, 72, 92
1, 63879, Note_on_c, 0, 61, 49
1, 63907, Note_on_c, 0, 77, 0
1, 63922, Note_on_c, 0, 72, 0
1, 63930, Note_on_c, 0, 79, 76
1, 63970, Note_on_c, 0, 79, 0
1, 63981, Note_on_c, 0, 77, 65
1, 63982, Note_on_c, 0, 65, 0
1, 63987, Note_on_c, 0, 60, 0
1, 63990, Note_on_c, 0, 61, 0
1, 63995, Note_on_c, 0, 56, 0
1, 63999, Note_on_c, 0, 77, 0
1, 64072, Note_on_c, 0, 36, 48
1, 64075, Note_on_c, 0, 80, 73
1, 64083, Control_c, 0, 64, 0
1, 64102, Control_c, 0, 64, 127
1, 64107, Note_on_c, 0, 36, 0
1, 64128, Note_on_c, 0, 80, 0
1, 64147, Note_on_c, 0, 80, 45
1, 64177, Note_on_c, 0, 80, 0
1, 64208, Note_on_c, 0, 80, 49
1, 64214, Note_on_c, 0, 63, 27
1, 64215, Note_on_c, 0, 73, 28
1, 64216, Note_on_c, 0, 58, 29
1, 64217, Note_on_c, 0, 70, 28
1, 64217, Note_on_c, 0, 52, 36
1, 64267, Note_on_c, 0, 80, 0
1, 64329, Note_on_c, 0, 80, 50
1, 64345, Note_on_c, 0, 80, 0
1, 64352, Note_on_c, 0, 70, 0
1, 64361, Note_on_c, 0, 73, 0
1, 64367, Note_on_c, 0, 80, 54
1, 64369, Note_on_c, 0, 52, 0
1, 64379, Note_on_c, 0, 58, 0
1, 64380, Note_on_c, 0, 63, 0
1, 64381, Note_on_c, 0, 80, 0
1, 64394, Note_on_c, 0, 72, 33
1, 64409, Note_on_c, 0, 72, 0
1, 64421, Note_on_c, 0, 72, 49
1, 64438, Note_on_c, 0, 72, 0
1, 64450, Note_on_c, 0, 79, 65
1, 64451, Note_on_c, 0, 72, 47
1, 64456, Note_on_c, 0, 64, 50
1, 64456, Note_on_c, 0, 68, 35
1, 64461, Control_c, 0, 64, 0
1, 64473, Note_on_c, 0, 79, 0
1, 64475, Control_c, 0, 64, 127
1, 64486, Note_on_c, 0, 79, 42
1, 64509, Note_on_c, 0, 79, 0
1, 64510, Note_on_c, 0, 68, 0
1, 64514, Note_on_c, 0, 72, 0
1, 64518, Note_on_c, 0, 77, 46
1, 64527, Note_on_c, 0, 64, 0
1, 64536, Note_on_c, 0, 77, 0
1, 64550, Note_on_c, 0, 77, 55
1, 64554, Note_on_c, 0, 68, 43
1, 64555, Note_on_c, 0, 62, 45
1, 64556, Note_on_c, 0, 72, 45
1, 64582, Note_on_c, 0, 72, 0
1, 64590, Note_on_c, 0, 68, 0
1, 64595, Note_on_c, 0, 72, 48
1, 64601, Note_on_c, 0, 77, 0
1, 64611, Note_on_c, 0, 72, 0
1, 64630, Note_on_c, 0, 72, 48
1, 64643, Note_on_c, 0, 72, 0
1, 64646, Note_on_c, 0, 62, 0
1, 64661, Note_on_c, 0, 67, 47
1, 64679, Note_on_c, 0, 67, 0
1, 64700, Note_on_c, 0, 67, 34
1, 64701, Control_c, 0, 64, 0
1, 64701, Note_on_c, 0, 56, 27
1, 64701, Note_on_c, 0, 60, 31
1, 64702, Note_on_c, 0, 50, 40
1, 64745, Note_on_c, 0, 68, 36
1, 64762, Note_on_c, 0, 67, 0
1, 64784, Control_c, 0, 64, 127
1, 64790, Note_on_c, 0, 65, 51
1, 64821, Note_on_c, 0, 68, 0
1, 64836, Note_on_c, 0, 60, 0
1, 64841, Note_on_c, 0, 65, 0
1, 64881, Note_on_c, 0, 60, 64
1, 64902, Note_on_c, 0, 56, 0
1, 64922, Note_on_c, 0, 50, 0
1, 64944, Note_on_c, 0, 60, 0
1, 65013, Note_on_c, 0, 65, 52
1, 65014, Note_on_c, 0, 56, 37
1, 65014, Note_on_c, 0, 61, 37
1, 65015, Note_on_c, 0, 59, 51
1, 65017, Note_on_c, 0, 37, 34
1, 65017, Note_on_c, 0, 44, 36
1, 65018, Control_c, 0, 64, 0
1, 65048, Control_c, 0, 64, 127
1, 65086, Note_on_c, 0, 65, 0
1, 65089, Note_on_c, 0, 56, 0
1, 65101, Note_on_c, 0, 59, 0
1, 65105, Note_on_c, 0, 61, 0
1, 65186, Note_on_c, 0, 65, 95
1, 65211, Note_on_c, 0, 65, 0
1, 65245, Note_on_c, 0, 67, 95
1, 65273, Note_on_c, 0, 44, 0
1, 65277, Note_on_c, 0, 37, 0
1, 65295, Note_on_c, 0, 67, 0
1, 65298, Note_on_c, 0, 65, 71
1, 65340, Note_on_c, 0, 65, 0
1, 65456, Note_on_c, 0, 36, 90
1, 65457, Note_on_c, 0, 24, 90
1, 65469, Control_c, 0, 64, 0
1, 65510, Control_c, 0, 64, 127
1, 65540, Note_on_c, 0, 24, 0
1, 65544, Note_on_c, 0, 36, 0
1, 65785, Note_on_c, 0, 84, 74
1, 65834, Note_on_c, 0, 84, 0
1, 65901, Note_on_c, 0, 74, 51
1, 65901, Note_on_c, 0, 84, 49
1, 65901, Note_on_c, 0, 78, 32
1, 65902, Note_on_c, 0, 70, 43
1, 65903, Note_on_c, 0, 81, 45
1, 65907, Note_on_c, 0, 64, 44
1, 66038, Note_on_c, 0, 84, 0
1, 66066, Note_on_c, 0, 84, 39
1, 66083, Note_on_c, 0, 70, 0
1, 66130, Note_on_c, 0, 64, 0
1, 66178, Note_on_c, 0, 84, 0
1, 66190, Note_on_c, 0, 81, 0
1, 66191, Note_on_c, 0, 78, 0
1, 66191, Note_on_c, 0, 74, 0
1, 66351, Note_on_c, 0, 41, 35
1, 66362, Note_on_c, 0, 48, 34
1, 66373, Note_on_c, 0, 62, 43
1, 66378, Note_on_c, 0, 57, 44
1, 66380, Note_on_c, 0, 67, 49
1, 66387, Note_on_c, 0, 72, 69
1, 66397, Control_c, 0, 64, 0
1, 66426, Control_c, 0, 64, 127
1, 66441, Note_on_c, 0, 72, 0
1, 66458, Note_on_c, 0, 72, 62
1, 66505, Note_on_c, 0, 72, 0
1, 66532, Note_on_c, 0, 72, 55
1, 66559, Note_on_c, 0, 72, 0
1, 66575, Note_on_c, 0, 41, 0
1, 66583, Note_on_c, 0, 57, 0
1, 66585, Note_on_c, 0, 48, 0
1, 66597, Note_on_c, 0, 72, 50
1, 66601, Note_on_c, 0, 62, 0
1, 66608, Note_on_c, 0, 67, 0
1, 66614, Note_on_c, 0, 72, 0
1, 66660, Note_on_c, 0, 79, 60
1, 66661, Note_on_c, 0, 72, 53
1, 66665, Note_on_c, 0, 44, 47
1, 66668, Control_c, 0, 64, 0
1, 66692, Control_c, 0, 64, 127
1, 66709, Note_on_c, 0, 51, 55
1, 66715, Note_on_c, 0, 44, 0
1, 66720, Note_on_c, 0, 51, 0
1, 66764, Note_on_c, 0, 58, 21
1, 66779, Note_on_c, 0, 56, 6
1, 66781, Note_on_c, 0, 58, 0
1, 66782, Note_on_c, 0, 72, 0
1, 66812, Note_on_c, 0, 60, 46
1, 66866, Note_on_c, 0, 79, 0
1, 66869, Note_on_c, 0, 72, 41
1, 66871, Note_on_c, 0, 67, 27
1, 66872, Note_on_c, 0, 63, 29
1, 66988, Note_on_c, 0, 63, 0
1, 67010, Note_on_c, 0, 79, 60
1, 67011, Note_on_c, 0, 60, 0
1, 67024, Note_on_c, 0, 56, 0
1, 67034, Note_on_c, 0, 79, 0
1, 67047, Note_on_c, 0, 79, 50
1, 67066, Note_on_c, 0, 67, 0
1, 67069, Note_on_c, 0, 79, 0
1, 67076, Note_on_c, 0, 72, 0
1, 67093, Note_on_c, 0, 77, 48
1, 67093, Note_on_c, 0, 65, 46
1, 67094, Note_on_c, 0, 72, 42
1, 67098, Note_on_c, 0, 37, 42
1, 67105, Control_c, 0, 64, 0
1, 67137, Control_c, 0, 64, 127
1, 67140, Note_on_c, 0, 44, 54
1, 67144, Note_on_c, 0, 37, 0
1, 67176, Note_on_c, 0, 44, 0
1, 67186, Note_on_c, 0, 53, 49
1, 67230, Note_on_c, 0, 53, 0
1, 67231, Note_on_c, 0, 56, 45
1, 67243, Note_on_c, 0, 72, 0
1, 67245, Note_on_c, 0, 65, 0
1, 67285, Note_on_c, 0, 72, 51
1, 67285, Note_on_c, 0, 65, 42
1, 67287, Note_on_c, 0, 60, 37
1, 67344, Note_on_c, 0, 63, 44
1, 67363, Note_on_c, 0, 65, 0
1, 67380, Note_on_c, 0, 60, 0
1, 67383, Note_on_c, 0, 72, 0
1, 67406, Note_on_c, 0, 72, 53
1, 67407, Note_on_c, 0, 65, 43
1, 67410, Note_on_c, 0, 60, 29
1, 67421, Note_on_c, 0, 56, 0
1, 67427, Note_on_c, 0, 77, 0
1, 67434, Note_on_c, 0, 63, 0
1, 67461, Note_on_c, 0, 77, 54
1, 67464, Note_on_c, 0, 60, 0
1, 67465, Note_on_c, 0, 56, 31
1, 67469, Note_on_c, 0, 65, 0
1, 67470, Note_on_c, 0, 56, 0
1, 67500, Note_on_c, 0, 72, 0
1, 67517, Note_on_c, 0, 77, 0
1, 67542, Note_on_c, 0, 77, 53
1, 67542, Note_on_c, 0, 72, 64
1, 67543, Note_on_c, 0, 30, 40
1, 67549, Control_c, 0, 64, 0
1, 67581, Control_c, 0, 64, 127
1, 67596, Note_on_c, 0, 42, 50
1, 67603, Note_on_c, 0, 30, 0
1, 67607, Note_on_c, 0, 42, 0
1, 67652, Note_on_c, 0, 77, 0
1, 67654, Note_on_c, 0, 75, 58
1, 67655, Note_on_c, 0, 58, 35
1, 67711, Note_on_c, 0, 72, 0
1, 67713, Note_on_c, 0, 60, 36
1, 67766, Note_on_c, 0, 75, 0
1, 67774, Note_on_c, 0, 72, 53
1, 67775, Note_on_c, 0, 65, 44
1, 67775, Note_on_c, 0, 70, 34
1, 67778, Note_on_c, 0, 60, 0
1, 67844, Note_on_c, 0, 65, 0
1, 67861, Note_on_c, 0, 60, 24
1, 67887, Note_on_c, 0, 60, 0
1, 68020, Note_on_c, 0, 70, 0
1, 68062, Note_on_c, 0, 72, 0
1, 68090, Note_on_c, 0, 68, 55
1, 68096, Note_on_c, 0, 60, 26
1, 68200, Note_on_c, 0, 60, 0
1, 68213, Note_on_c, 0, 58, 0
1, 68214, Note_on_c, 0, 70, 49
1, 68221, Note_on_c, 0, 68, 0
1, 68284, Note_on_c, 0, 68, 1
1, 68307, Note_on_c, 0, 68, 0
1, 68335, Note_on_c, 0, 70, 0
1, 68346, Note_on_c, 0, 41, 47
1, 68356, Note_on_c, 0, 48, 28
1, 68368, Note_on_c, 0, 62, 60
1, 68373, Note_on_c, 0, 57, 48
1, 68376, Note_on_c, 0, 67, 45
1, 68385, Control_c, 0, 64, 0
1, 68388, Note_on_c, 0, 72, 49
1, 68416, Control_c, 0, 64, 127
1, 68521, Note_on_c, 0, 62, 0
1, 68532, Note_on_c, 0, 67, 0
1, 68545, Note_on_c, 0, 72, 0
1, 68579, Note_on_c, 0, 41, 0
1, 68594, Note_on_c, 0, 48, 0
1, 68598, Note_on_c, 0, 57, 0
1, 68741, Note_on_c, 0, 84, 27
1, 68741, Note_on_c, 0, 48, 18
1, 68813, Note_on_c, 0, 96, 50
1, 68815, Note_on_c, 0, 60, 37
1, 68951, Note_on_c, 0, 48, 0
1, 68954, Note_on_c, 0, 84, 0
1, 68995, Note_on_c, 0, 96, 0
1, 68998, Note_on_c, 0, 48, 24
1, 69003, Note_on_c, 0, 84, 20
1, 69016, Note_on_c, 0, 60, 0
1, 69091, Note_on_c, 0, 96, 38
1, 69093, Note_on_c, 0, 60, 36
1, 69225, Note_on_c, 0, 48, 0
1, 69231, Note_on_c, 0, 84, 0
1, 69295, Note_on_c, 0, 96, 0
1, 69312, Note_on_c, 0, 60, 0
1, 69507, Control_c, 0, 64, 0
1, 69507, End_track
0, 0, End_of_file
