0, 0, Header, 1, 4, 384
1, 0, Start_track
1, 0, Title_t, "untitled"
1, 0, System_exclusive, 5, 126, 127, 9, 1, 247
1, 1, System_exclusive, 8, 67, 16, 76, 0, 0, 126, 0, 247
1, 1, System_exclusive, 8, 67, 16, 76, 8, 15, 0, 1, 247
1, 1, System_exclusive, 8, 67, 16, 76, 8, 14, 0, 1, 247
1, 1, System_exclusive, 8, 67, 16, 76, 8, 13, 0, 1, 247
1, 1, System_exclusive, 8, 67, 16, 76, 8, 12, 0, 1, 247
1, 1, System_exclusive, 8, 67, 16, 76, 8, 11, 0, 1, 247
1, 1, System_exclusive, 8, 67, 16, 76, 8, 10, 0, 1, 247
1, 1, System_exclusive, 8, 67, 16, 76, 8, 9, 0, 0, 247
1, 1, System_exclusive, 8, 67, 16, 76, 8, 8, 0, 1, 247
1, 1, System_exclusive, 8, 67, 16, 76, 8, 7, 0, 1, 247
1, 1, System_exclusive, 8, 67, 16, 76, 8, 6, 0, 1, 247
1, 1, System_exclusive, 8, 67, 16, 76, 8, 5, 0, 1, 247
1, 1, System_exclusive, 8, 67, 16, 76, 8, 4, 0, 2, 247
1, 1, System_exclusive, 8, 67, 16, 76, 8, 3, 0, 2, 247
1, 1, System_exclusive, 8, 67, 16, 76, 8, 2, 0, 4, 247
1, 1, System_exclusive, 8, 67, 16, 76, 8, 1, 0, 4, 247
1, 1, System_exclusive, 8, 67, 16, 76, 8, 0, 0, 8, 247
1, 1, System_exclusive, 8, 67, 16, 76, 8, 0, 7, 0, 247
1, 1, System_exclusive, 8, 67, 16, 76, 8, 1, 7, 0, 247
1, 1, System_exclusive, 8, 67, 16, 76, 8, 2, 7, 0, 247
1, 1, System_exclusive, 8, 67, 16, 76, 8, 3, 7, 0, 247
1, 1, System_exclusive, 8, 67, 16, 76, 8, 4, 7, 0, 247
1, 1, System_exclusive, 8, 67, 16, 76, 8, 5, 7, 0, 247
1, 1, System_exclusive, 8, 67, 16, 76, 8, 6, 7, 0, 247
1, 1, System_exclusive, 8, 67, 16, 76, 8, 7, 7, 0, 247
1, 1, System_exclusive, 8, 67, 16, 76, 8, 8, 7, 0, 247
1, 1, System_exclusive, 8, 67, 16, 76, 8, 9, 7, 2, 247
1, 1, System_exclusive, 8, 67, 16, 76, 8, 10, 7, 0, 247
1, 1, System_exclusive, 8, 67, 16, 76, 8, 11, 7, 0, 247
1, 1, System_exclusive, 8, 67, 16, 76, 8, 12, 7, 0, 247
1, 1, System_exclusive, 8, 67, 16, 76, 8, 13, 7, 0, 247
1, 1, System_exclusive, 8, 67, 16, 76, 8, 14, 7, 0, 247
1, 1, System_exclusive, 8, 67, 16, 76, 8, 15, 7, 0, 247
1, 1, System_exclusive, 9, 67, 16, 76, 2, 1, 0, 1, 0, 247
1, 1, System_exclusive, 9, 67, 16, 76, 2, 1, 32, 65, 0, 247
1, 1, System_exclusive, 9, 67, 16, 76, 2, 1, 64, 5, 0, 247
1, 1, System_exclusive, 9, 67, 16, 76, 3, 0, 0, 3, 18, 247
1, 1, System_exclusive, 8, 67, 16, 76, 3, 0, 11, 5, 247
1, 1, System_exclusive, 8, 67, 16, 76, 3, 0, 12, 0, 247
1, 1, System_exclusive, 8, 67, 16, 76, 8, 0, 114, 64, 247
1, 1, System_exclusive, 8, 67, 16, 76, 8, 0, 115, 95, 247
1, 1, System_exclusive, 8, 67, 16, 76, 8, 0, 119, 46, 247
1, 1, Time_signature, 4, 2, 24, 8
1, 1, Key_signature, 0, "major"
1, 1, Tempo, 600000
1, 1, Tempo, 600000
1, 1, Sequencer_specific, 21, 67, 115, 10, 0, 5, 75, 79, 79, 79, 79, 79, 79, 79, 79, 79, 79, 79, 79, 79, 79, 79
1, 1, Sequencer_specific, 6, 67, 115, 10, 0, 4, 1
1, 1, Sequencer_specific, 9, 67, 123, 0, 88, 70, 48, 50, 0, 0
1, 1537, Tempo, 500000
1, 1537, End_track
2, 0, Start_track
2, 0, Title_t, "Track 1"
2, 384, Control_c, 0, 0, 0
2, 384, Control_c, 0, 32, 0
2, 384, Program_c, 0, 0
2, 385, Control_c, 0, 7, 107
2, 385, Control_c, 0, 10, 64
2, 385, Control_c, 0, 91, 10
2, 385, Control_c, 0, 93, 0
2, 4986, Control_c, 0, 11, 127
2, 4986, Control_c, 0, 94, 0
2, 4986, Control_c, 0, 101, 0
2, 4987, Control_c, 0, 100, 1
2, 4988, Control_c, 0, 6, 64
2, 4989, Control_c, 0, 38, 0
2, 4990, Control_c, 0, 71, 43
2, 4990, Control_c, 0, 74, 46
2, 4990, Control_c, 0, 64, 0
2, 7290, Note_on_c, 0, 24, 47
2, 7290, Note_on_c, 0, 36, 42
2, 7342, Control_c, 0, 64, 127
2, 7486, Note_on_c, 0, 24, 0
2, 7530, Note_on_c, 0, 36, 0
2, 8070, Note_on_c, 0, 72, 57
2, 8082, Note_on_c, 0, 61, 53
2, 8090, Note_on_c, 0, 60, 46
2, 8090, Note_on_c, 0, 65, 50
2, 8198, Note_on_c, 0, 61, 0
2, 8214, Note_on_c, 0, 65, 0
2, 8242, Note_on_c, 0, 72, 0
2, 8258, Note_on_c, 0, 60, 0
2, 8446, Note_on_c, 0, 75, 85
2, 8450, Note_on_c, 0, 63, 65
2, 8454, Note_on_c, 0, 64, 75
2, 8458, Note_on_c, 0, 67, 69
2, 8458, Note_on_c, 0, 70, 68
2, 8558, Note_on_c, 0, 63, 0
2, 8574, Note_on_c, 0, 67, 0
2, 8586, Note_on_c, 0, 75, 0
2, 8590, Note_on_c, 0, 70, 0
2, 8622, Note_on_c, 0, 64, 0
2, 8826, Note_on_c, 0, 72, 68
2, 8830, Note_on_c, 0, 61, 68
2, 8834, Note_on_c, 0, 65, 70
2, 8842, Note_on_c, 0, 60, 68
2, 8862, Note_on_c, 0, 67, 45
2, 8862, Note_on_c, 0, 70, 43
2, 8954, Note_on_c, 0, 60, 0
2, 8958, Note_on_c, 0, 72, 0
2, 8962, Note_on_c, 0, 67, 0
2, 8962, Note_on_c, 0, 70, 0
2, 8974, Note_on_c, 0, 65, 0
2, 9026, Note_on_c, 0, 61, 0
2, 9238, Note_on_c, 0, 69, 59
2, 9242, Note_on_c, 0, 58, 59
2, 9254, Control_c, 0, 64, 0
2, 9254, Note_on_c, 0, 61, 52
2, 9258, Note_on_c, 0, 57, 52
2, 9270, Note_on_c, 0, 64, 50
2, 9438, Control_c, 0, 64, 127
2, 9774, Note_on_c, 0, 57, 0
2, 10194, Note_on_c, 0, 36, 39
2, 10202, Note_on_c, 0, 24, 50
2, 10550, Note_on_c, 0, 24, 0
2, 10598, Note_on_c, 0, 36, 0
2, 10818, Note_on_c, 0, 24, 41
2, 10830, Note_on_c, 0, 36, 37
2, 11118, Note_on_c, 0, 24, 0
2, 11126, Note_on_c, 0, 36, 0
2, 11262, Note_on_c, 0, 58, 0
2, 11306, Note_on_c, 0, 69, 0
2, 11358, Note_on_c, 0, 61, 0
2, 11370, Note_on_c, 0, 64, 0
2, 11418, Note_on_c, 0, 36, 36
2, 11422, Note_on_c, 0, 24, 35
2, 11710, Note_on_c, 0, 24, 0
2, 11722, Note_on_c, 0, 36, 0
2, 12378, Note_on_c, 0, 36, 38
2, 12386, Note_on_c, 0, 24, 37
2, 12510, Note_on_c, 0, 24, 0
2, 12558, Note_on_c, 0, 36, 0
2, 12906, Note_on_c, 0, 36, 34
2, 12906, Note_on_c, 0, 24, 38
2, 13022, Note_on_c, 0, 36, 0
2, 13034, Note_on_c, 0, 24, 0
2, 13950, Note_on_c, 0, 72, 66
2, 13990, Note_on_c, 0, 61, 45
2, 13998, Note_on_c, 0, 36, 29
2, 14122, Note_on_c, 0, 36, 0
2, 14398, Note_on_c, 0, 36, 43
2, 14466, Note_on_c, 0, 36, 0
2, 14806, Note_on_c, 0, 36, 40
2, 14954, Note_on_c, 0, 36, 0
2, 15366, Note_on_c, 0, 61, 0
2, 15398, Note_on_c, 0, 72, 0
2, 15682, Note_on_c, 0, 36, 31
2, 15802, Note_on_c, 0, 36, 0
2, 16322, Note_on_c, 0, 36, 39
2, 16466, Note_on_c, 0, 36, 0
2, 16882, Note_on_c, 0, 36, 33
2, 17006, Note_on_c, 0, 36, 0
2, 17126, Note_on_c, 0, 64, 67
2, 17130, Note_on_c, 0, 75, 67
2, 17138, Note_on_c, 0, 36, 46
2, 17262, Note_on_c, 0, 75, 0
2, 17310, Note_on_c, 0, 64, 0
2, 17326, Note_on_c, 0, 36, 0
2, 17454, Note_on_c, 0, 72, 52
2, 17466, Note_on_c, 0, 61, 65
2, 17486, Note_on_c, 0, 36, 46
2, 17486, Control_c, 0, 64, 72
2, 17490, Control_c, 0, 64, 0
2, 17526, Control_c, 0, 64, 127
2, 17598, Note_on_c, 0, 72, 0
2, 17678, Note_on_c, 0, 61, 0
2, 17814, Note_on_c, 0, 69, 58
2, 17826, Note_on_c, 0, 58, 57
2, 17842, Note_on_c, 0, 64, 55
2, 17846, Note_on_c, 0, 24, 46
2, 17850, Control_c, 0, 64, 0
2, 17906, Note_on_c, 0, 36, 0
2, 17978, Control_c, 0, 64, 127
2, 18202, Note_on_c, 0, 24, 0
2, 18202, Note_on_c, 0, 36, 39
2, 18242, Note_on_c, 0, 36, 0
2, 18322, Note_on_c, 0, 64, 0
2, 18526, Note_on_c, 0, 48, 49
2, 18542, Note_on_c, 0, 69, 0
2, 18706, Note_on_c, 0, 58, 0
2, 18850, Note_on_c, 0, 51, 60
2, 18854, Note_on_c, 0, 48, 0
2, 19162, Note_on_c, 0, 51, 0
2, 19202, Note_on_c, 0, 55, 44
2, 19206, Note_on_c, 0, 48, 46
2, 19222, Note_on_c, 0, 58, 41
2, 19230, Control_c, 0, 64, 0
2, 19310, Control_c, 0, 64, 127
2, 19510, Note_on_c, 0, 48, 0
2, 19526, Note_on_c, 0, 43, 46
2, 19534, Note_on_c, 0, 55, 0
2, 19534, Control_c, 0, 64, 0
2, 19554, Note_on_c, 0, 43, 0
2, 19558, Control_c, 0, 64, 127
2, 19722, Note_on_c, 0, 58, 0
2, 19826, Note_on_c, 0, 36, 40
2, 19866, Note_on_c, 0, 58, 35
2, 19870, Note_on_c, 0, 52, 31
2, 20254, Note_on_c, 0, 24, 39
2, 20278, Control_c, 0, 64, 0
2, 20438, Control_c, 0, 64, 127
2, 20618, Note_on_c, 0, 52, 0
2, 20734, Note_on_c, 0, 58, 0
2, 20802, Note_on_c, 0, 24, 0
2, 21262, Note_on_c, 0, 24, 42
2, 21322, Note_on_c, 0, 24, 0
2, 21390, Note_on_c, 0, 36, 0
2, 22754, Note_on_c, 0, 60, 61
2, 23586, Note_on_c, 0, 60, 0
2, 24902, Control_c, 0, 64, 0
2, 24930, Note_on_c, 0, 69, 50
2, 24946, Note_on_c, 0, 64, 43
2, 24950, Note_on_c, 0, 57, 38
2, 24958, Note_on_c, 0, 48, 31
2, 24958, Note_on_c, 0, 41, 35
2, 25018, Control_c, 0, 64, 127
2, 25046, Note_on_c, 0, 57, 0
2, 25090, Note_on_c, 0, 64, 0
2, 25114, Note_on_c, 0, 69, 0
2, 25142, Note_on_c, 0, 41, 0
2, 25250, Note_on_c, 0, 48, 0
2, 25458, Note_on_c, 0, 81, 75
2, 25478, Note_on_c, 0, 76, 61
2, 25486, Note_on_c, 0, 69, 48
2, 25494, Note_on_c, 0, 60, 52
2, 25642, Note_on_c, 0, 81, 0
2, 25646, Note_on_c, 0, 76, 0
2, 25698, Note_on_c, 0, 69, 0
2, 26006, Note_on_c, 0, 72, 50
2, 26022, Note_on_c, 0, 67, 34
2, 26030, Note_on_c, 0, 69, 45
2, 26050, Note_on_c, 0, 64, 39
2, 26086, Note_on_c, 0, 60, 0
2, 26382, Note_on_c, 0, 67, 0
2, 26450, Note_on_c, 0, 69, 0
2, 26522, Note_on_c, 0, 64, 0
2, 26562, Note_on_c, 0, 72, 0
2, 26566, Note_on_c, 0, 67, 50
2, 26570, Note_on_c, 0, 60, 45
2, 26622, Note_on_c, 0, 60, 0
2, 26742, Note_on_c, 0, 67, 0
2, 27154, Control_c, 0, 64, 0
2, 27214, Note_on_c, 0, 61, 32
2, 27214, Note_on_c, 0, 69, 46
2, 27222, Note_on_c, 0, 65, 45
2, 27230, Note_on_c, 0, 46, 35
2, 27246, Control_c, 0, 64, 127
2, 27258, Note_on_c, 0, 39, 25
2, 27466, Note_on_c, 0, 39, 0
2, 27486, Note_on_c, 0, 46, 0
2, 27566, Note_on_c, 0, 61, 0
2, 27598, Note_on_c, 0, 65, 0
2, 27650, Note_on_c, 0, 69, 0
2, 27926, Note_on_c, 0, 67, 72
2, 27934, Note_on_c, 0, 61, 45
2, 27934, Note_on_c, 0, 65, 39
2, 27938, Note_on_c, 0, 60, 37
2, 27950, Note_on_c, 0, 55, 47
2, 27970, Note_on_c, 0, 58, 34
2, 28138, Note_on_c, 0, 67, 0
2, 28230, Note_on_c, 0, 69, 90
2, 28382, Note_on_c, 0, 69, 0
2, 28414, Note_on_c, 0, 65, 0
2, 28462, Note_on_c, 0, 61, 0
2, 28482, Note_on_c, 0, 60, 0
2, 28482, Note_on_c, 0, 69, 89
2, 28638, Note_on_c, 0, 69, 0
2, 28666, Note_on_c, 0, 58, 0
2, 28730, Note_on_c, 0, 61, 53
2, 28738, Note_on_c, 0, 72, 107
2, 28746, Note_on_c, 0, 65, 49
2, 28750, Note_on_c, 0, 60, 42
2, 28898, Note_on_c, 0, 72, 0
2, 29030, Note_on_c, 0, 72, 102
2, 29198, Note_on_c, 0, 72, 0
2, 29342, Note_on_c, 0, 65, 0
2, 29362, Note_on_c, 0, 74, 94
2, 29378, Note_on_c, 0, 60, 0
2, 29390, Note_on_c, 0, 61, 0
2, 29450, Note_on_c, 0, 55, 0
2, 29526, Note_on_c, 0, 74, 0
2, 30014, Note_on_c, 0, 65, 61
2, 30018, Note_on_c, 0, 70, 55
2, 30030, Control_c, 0, 64, 0
2, 30030, Note_on_c, 0, 74, 53
2, 30034, Note_on_c, 0, 60, 48
2, 30036, Note_on_c, 0, 54, 40
2, 30042, Note_on_c, 0, 50, 46
2, 30182, Control_c, 0, 64, 127
2, 30374, Control_c, 0, 64, 0
2, 30386, Note_on_c, 0, 70, 0
2, 30390, Note_on_c, 0, 70, 62
2, 30390, Note_on_c, 0, 58, 53
2, 30406, Note_on_c, 0, 60, 0
2, 30420, Note_on_c, 0, 54, 0
2, 30446, Control_c, 0, 64, 127
2, 30494, Note_on_c, 0, 65, 0
2, 30510, Note_on_c, 0, 70, 0
2, 30562, Note_on_c, 0, 58, 0
2, 30574, Note_on_c, 0, 74, 0
2, 30774, Control_c, 0, 64, 0
2, 30778, Note_on_c, 0, 64, 52
2, 30782, Note_on_c, 0, 69, 57
2, 30782, Note_on_c, 0, 57, 41
2, 30790, Note_on_c, 0, 72, 46
2, 30910, Control_c, 0, 64, 127
2, 31026, Note_on_c, 0, 50, 0
2, 31138, Note_on_c, 0, 57, 0
2, 31166, Note_on_c, 0, 69, 0
2, 31170, Note_on_c, 0, 50, 46
2, 31202, Note_on_c, 0, 72, 0
2, 31250, Note_on_c, 0, 64, 0
2, 31254, Note_on_c, 0, 50, 0
2, 31594, Note_on_c, 0, 68, 48
2, 31606, Note_on_c, 0, 63, 41
2, 31610, Note_on_c, 0, 60, 31
2, 31614, Note_on_c, 0, 38, 21
2, 31634, Control_c, 0, 64, 0
2, 31762, Control_c, 0, 64, 127
2, 31930, Note_on_c, 0, 68, 0
2, 31986, Note_on_c, 0, 63, 0
2, 32006, Note_on_c, 0, 26, 40
2, 32034, Note_on_c, 0, 60, 0
2, 32046, Note_on_c, 0, 26, 0
2, 32070, Note_on_c, 0, 38, 0
2, 32606, Note_on_c, 0, 54, 34
2, 32614, Note_on_c, 0, 58, 42
2, 32634, Note_on_c, 0, 44, 31
2, 32634, Note_on_c, 0, 60, 39
2, 32634, Note_on_c, 0, 32, 32
2, 32658, Control_c, 0, 64, 0
2, 32790, Control_c, 0, 64, 127
2, 33158, Note_on_c, 0, 54, 0
2, 33170, Note_on_c, 0, 60, 0
2, 33214, Note_on_c, 0, 58, 0
2, 33474, Note_on_c, 0, 32, 0
2, 33538, Note_on_c, 0, 44, 0
2, 33558, Note_on_c, 0, 72, 74
2, 33662, Note_on_c, 0, 72, 0
2, 33786, Note_on_c, 0, 69, 63
2, 33858, Note_on_c, 0, 69, 0
2, 34106, Control_c, 0, 64, 0
2, 34122, Note_on_c, 0, 69, 52
2, 34150, Note_on_c, 0, 65, 48
2, 34158, Note_on_c, 0, 62, 50
2, 34178, Note_on_c, 0, 43, 39
2, 34182, Note_on_c, 0, 58, 25
2, 34222, Control_c, 0, 64, 127
2, 34294, Note_on_c, 0, 58, 0
2, 34318, Note_on_c, 0, 65, 0
2, 34326, Note_on_c, 0, 69, 0
2, 34326, Note_on_c, 0, 62, 0
2, 34430, Note_on_c, 0, 43, 0
2, 34450, Note_on_c, 0, 50, 47
2, 34654, Note_on_c, 0, 50, 0
2, 34698, Note_on_c, 0, 81, 64
2, 34714, Note_on_c, 0, 57, 43
2, 34714, Note_on_c, 0, 69, 31
2, 34718, Note_on_c, 0, 74, 48
2, 34962, Note_on_c, 0, 58, 51
2, 34970, Note_on_c, 0, 57, 0
2, 35002, Note_on_c, 0, 74, 0
2, 35002, Note_on_c, 0, 81, 0
2, 35030, Note_on_c, 0, 69, 0
2, 35246, Note_on_c, 0, 62, 49
2, 35266, Note_on_c, 0, 74, 31
2, 35282, Note_on_c, 0, 69, 50
2, 35478, Note_on_c, 0, 69, 0
2, 35702, Note_on_c, 0, 74, 0
2, 36050, Note_on_c, 0, 67, 42
2, 36294, Note_on_c, 0, 69, 45
2, 36442, Note_on_c, 0, 69, 0
2, 36446, Note_on_c, 0, 70, 60
2, 36534, Note_on_c, 0, 70, 0
2, 36614, Note_on_c, 0, 74, 76
2, 36734, Note_on_c, 0, 74, 0
2, 36782, Note_on_c, 0, 84, 87
2, 36902, Note_on_c, 0, 62, 0
2, 36938, Note_on_c, 0, 84, 0
2, 36942, Note_on_c, 0, 81, 79
2, 37054, Note_on_c, 0, 81, 0
2, 37106, Note_on_c, 0, 82, 75
2, 37202, Note_on_c, 0, 82, 0
2, 37306, Note_on_c, 0, 86, 73
2, 37346, Note_on_c, 0, 62, 39
2, 37522, Note_on_c, 0, 96, 89
2, 37690, Note_on_c, 0, 96, 0
2, 37742, Note_on_c, 0, 86, 0
2, 37750, Note_on_c, 0, 94, 83
2, 37982, Note_on_c, 0, 85, 62
2, 38130, Note_on_c, 0, 67, 0
2, 38134, Note_on_c, 0, 85, 0
2, 38142, Note_on_c, 0, 94, 0
2, 38242, Note_on_c, 0, 84, 59
2, 38326, Note_on_c, 0, 62, 0
2, 38378, Note_on_c, 0, 84, 0
2, 38478, Note_on_c, 0, 82, 63
2, 38626, Note_on_c, 0, 82, 0
2, 38670, Note_on_c, 0, 58, 0
2, 38718, Note_on_c, 0, 81, 63
2, 38910, Note_on_c, 0, 81, 0
2, 38930, Note_on_c, 0, 84, 56
2, 39102, Note_on_c, 0, 84, 0
2, 39166, Note_on_c, 0, 73, 55
2, 39174, Note_on_c, 0, 65, 39
2, 39174, Note_on_c, 0, 84, 30
2, 39182, Note_on_c, 0, 61, 29
2, 39194, Note_on_c, 0, 60, 39
2, 39202, Note_on_c, 0, 55, 36
2, 39230, Control_c, 0, 64, 0
2, 39446, Note_on_c, 0, 73, 0
2, 39446, Control_c, 0, 64, 127
2, 39458, Note_on_c, 0, 72, 57
2, 39610, Note_on_c, 0, 72, 0
2, 39638, Note_on_c, 0, 65, 0
2, 39682, Note_on_c, 0, 84, 0
2, 39782, Note_on_c, 0, 72, 48
2, 39786, Note_on_c, 0, 65, 42
2, 39902, Note_on_c, 0, 72, 0
2, 40090, Note_on_c, 0, 70, 59
2, 40138, Note_on_c, 0, 65, 0
2, 40186, Note_on_c, 0, 55, 0
2, 40202, Note_on_c, 0, 61, 0
2, 40202, Note_on_c, 0, 60, 0
2, 40290, Note_on_c, 0, 70, 0
2, 40446, Note_on_c, 0, 65, 42
2, 40446, Note_on_c, 0, 70, 51
2, 40454, Note_on_c, 0, 61, 38
2, 40454, Control_c, 0, 64, 0
2, 40466, Note_on_c, 0, 60, 30
2, 40482, Control_c, 0, 64, 127
2, 40506, Note_on_c, 0, 55, 21
2, 40534, Note_on_c, 0, 65, 0
2, 40550, Note_on_c, 0, 60, 0
2, 40562, Note_on_c, 0, 61, 0
2, 40614, Note_on_c, 0, 55, 0
2, 40678, Note_on_c, 0, 70, 0
2, 40750, Note_on_c, 0, 69, 56
2, 40986, Note_on_c, 0, 69, 0
2, 41150, Note_on_c, 0, 27, 38
2, 41150, Note_on_c, 0, 69, 48
2, 41178, Control_c, 0, 64, 0
2, 41226, Note_on_c, 0, 27, 0
2, 41242, Control_c, 0, 64, 127
2, 41618, Note_on_c, 0, 60, 50
2, 42002, Note_on_c, 0, 61, 48
2, 42058, Note_on_c, 0, 69, 0
2, 42382, Note_on_c, 0, 65, 43
2, 42942, Note_on_c, 0, 67, 56
2, 43018, Note_on_c, 0, 67, 0
2, 43274, Note_on_c, 0, 72, 58
2, 43406, Note_on_c, 0, 72, 0
2, 43434, Note_on_c, 0, 73, 61
2, 43510, Note_on_c, 0, 73, 0
2, 43590, Note_on_c, 0, 77, 61
2, 43666, Note_on_c, 0, 77, 0
2, 43734, Note_on_c, 0, 79, 81
2, 43810, Note_on_c, 0, 79, 0
2, 43954, Note_on_c, 0, 84, 78
2, 44086, Note_on_c, 0, 84, 0
2, 44106, Note_on_c, 0, 85, 66
2, 44222, Note_on_c, 0, 85, 0
2, 44290, Note_on_c, 0, 85, 58
2, 44442, Note_on_c, 0, 85, 0
2, 44510, Note_on_c, 0, 89, 41
2, 44678, Note_on_c, 0, 89, 0
2, 44722, Note_on_c, 0, 91, 48
2, 44958, Note_on_c, 0, 91, 0
2, 45054, Note_on_c, 0, 91, 45
2, 45186, Note_on_c, 0, 91, 0
2, 45354, Note_on_c, 0, 91, 49
2, 45662, Note_on_c, 0, 93, 64
2, 45666, Note_on_c, 0, 91, 0
2, 45698, Note_on_c, 0, 65, 0
2, 45746, Note_on_c, 0, 61, 0
2, 45770, Note_on_c, 0, 60, 0
2, 45886, Note_on_c, 0, 93, 0
2, 46006, Note_on_c, 0, 93, 60
2, 46182, Note_on_c, 0, 93, 0
2, 46250, Note_on_c, 0, 91, 61
2, 46278, Note_on_c, 0, 91, 0
2, 46562, Note_on_c, 0, 91, 52
2, 46566, Control_c, 0, 64, 0
2, 46574, Note_on_c, 0, 79, 43
2, 46582, Note_on_c, 0, 88, 47
2, 46590, Note_on_c, 0, 45, 36
2, 46678, Control_c, 0, 64, 127
2, 46734, Note_on_c, 0, 91, 0
2, 46770, Note_on_c, 0, 88, 0
2, 46814, Note_on_c, 0, 79, 0
2, 46890, Note_on_c, 0, 52, 47
2, 47130, Note_on_c, 0, 45, 0
2, 47190, Note_on_c, 0, 52, 0
2, 47202, Note_on_c, 0, 57, 52
2, 47650, Note_on_c, 0, 57, 0
2, 48842, Note_on_c, 0, 64, 51
2, 48846, Note_on_c, 0, 72, 49
2, 48850, Note_on_c, 0, 57, 51
2, 48850, Control_c, 0, 64, 0
2, 48858, Note_on_c, 0, 67, 41
2, 48870, Note_on_c, 0, 69, 35
2, 48878, Control_c, 0, 64, 127
2, 48986, Note_on_c, 0, 69, 0
2, 49014, Note_on_c, 0, 67, 0
2, 49022, Note_on_c, 0, 64, 0
2, 49022, Note_on_c, 0, 72, 0
2, 49306, Note_on_c, 0, 74, 65
2, 49310, Note_on_c, 0, 65, 62
2, 49314, Note_on_c, 0, 68, 57
2, 49326, Note_on_c, 0, 59, 56
2, 49334, Note_on_c, 0, 57, 0
2, 49334, Note_on_c, 0, 71, 38
2, 49350, Control_c, 0, 64, 0
2, 49434, Control_c, 0, 64, 127
2, 49558, Note_on_c, 0, 65, 0
2, 49570, Note_on_c, 0, 71, 0
2, 49594, Note_on_c, 0, 74, 0
2, 49606, Note_on_c, 0, 68, 0
2, 49770, Note_on_c, 0, 59, 0
2, 49778, Note_on_c, 0, 61, 57
2, 49778, Note_on_c, 0, 67, 66
2, 49782, Note_on_c, 0, 76, 68
2, 49782, Note_on_c, 0, 70, 59
2, 49782, Note_on_c, 0, 73, 56
2, 49794, Control_c, 0, 64, 0
2, 49890, Control_c, 0, 64, 127
2, 50010, Note_on_c, 0, 67, 0
2, 50042, Note_on_c, 0, 76, 0
2, 50134, Note_on_c, 0, 70, 0
2, 50226, Note_on_c, 0, 73, 0
2, 50554, Control_c, 0, 64, 0
2, 50566, Note_on_c, 0, 61, 0
2, 50566, Note_on_c, 0, 79, 72
2, 50570, Note_on_c, 0, 76, 57
2, 50574, Note_on_c, 0, 72, 57
2, 50574, Note_on_c, 0, 69, 54
2, 50574, Note_on_c, 0, 64, 52
2, 50658, Control_c, 0, 64, 127
2, 50718, Note_on_c, 0, 76, 0
2, 50758, Note_on_c, 0, 79, 0
2, 50770, Note_on_c, 0, 72, 0
2, 50802, Note_on_c, 0, 69, 0
2, 51230, Note_on_c, 0, 64, 0
2, 52126, Control_c, 0, 64, 0
2, 52146, Note_on_c, 0, 62, 39
2, 52146, Note_on_c, 0, 77, 61
2, 52150, Note_on_c, 0, 69, 49
2, 52166, Note_on_c, 0, 72, 46
2, 52206, Control_c, 0, 64, 127
2, 52242, Note_on_c, 0, 69, 0
2, 52274, Note_on_c, 0, 72, 0
2, 52282, Note_on_c, 0, 77, 0
2, 52454, Note_on_c, 0, 81, 61
2, 52458, Note_on_c, 0, 62, 0
2, 52458, Note_on_c, 0, 74, 66
2, 52462, Note_on_c, 0, 72, 49
2, 52470, Note_on_c, 0, 65, 56
2, 52490, Note_on_c, 0, 72, 0
2, 52522, Note_on_c, 0, 74, 0
2, 52542, Note_on_c, 0, 81, 0
2, 52546, Note_on_c, 0, 65, 0
2, 52798, Note_on_c, 0, 69, 50
2, 52798, Note_on_c, 0, 86, 75
2, 52826, Note_on_c, 0, 69, 0
2, 52914, Note_on_c, 0, 86, 0
2, 53222, Note_on_c, 0, 84, 48
2, 53222, Note_on_c, 0, 70, 47
2, 53234, Control_c, 0, 64, 0
2, 53234, Note_on_c, 0, 77, 58
2, 53262, Note_on_c, 0, 43, 49
2, 53362, Control_c, 0, 64, 127
2, 53454, Note_on_c, 0, 84, 0
2, 53490, Note_on_c, 0, 77, 0
2, 53546, Note_on_c, 0, 70, 0
2, 53574, Note_on_c, 0, 43, 0
2, 53598, Note_on_c, 0, 57, 48
2, 53670, Note_on_c, 0, 57, 0
2, 54010, Note_on_c, 0, 65, 40
2, 54014, Note_on_c, 0, 72, 49
2, 54022, Note_on_c, 0, 62, 39
2, 54026, Note_on_c, 0, 69, 49
2, 54026, Note_on_c, 0, 58, 34
2, 54030, Note_on_c, 0, 60, 43
2, 54282, Note_on_c, 0, 60, 0
2, 54294, Note_on_c, 0, 62, 0
2, 54294, Note_on_c, 0, 69, 0
2, 54306, Note_on_c, 0, 58, 0
2, 54314, Note_on_c, 0, 72, 0
2, 54342, Note_on_c, 0, 65, 0
2, 54850, Control_c, 0, 64, 0
2, 54878, Note_on_c, 0, 70, 72
2, 54882, Note_on_c, 0, 67, 67
2, 54882, Note_on_c, 0, 64, 73
2, 54894, Note_on_c, 0, 58, 55
2, 54902, Note_on_c, 0, 56, 46
2, 54902, Note_on_c, 0, 60, 49
2, 54934, Control_c, 0, 64, 127
2, 55010, Note_on_c, 0, 64, 0
2, 55022, Note_on_c, 0, 56, 0
2, 55022, Note_on_c, 0, 67, 0
2, 55042, Note_on_c, 0, 58, 0
2, 55050, Note_on_c, 0, 60, 0
2, 55086, Note_on_c, 0, 70, 0
2, 55182, Control_c, 0, 64, 0
2, 55190, Note_on_c, 0, 72, 82
2, 55194, Note_on_c, 0, 69, 85
2, 55194, Note_on_c, 0, 65, 81
2, 55210, Note_on_c, 0, 62, 69
2, 55214, Note_on_c, 0, 58, 61
2, 55214, Note_on_c, 0, 60, 68
2, 55234, Control_c, 0, 64, 127
2, 55306, Note_on_c, 0, 60, 0
2, 55318, Note_on_c, 0, 62, 0
2, 55326, Note_on_c, 0, 69, 0
2, 55346, Note_on_c, 0, 72, 0
2, 55350, Note_on_c, 0, 58, 0
2, 55374, Note_on_c, 0, 65, 0
2, 55534, Control_c, 0, 64, 0
2, 55550, Note_on_c, 0, 63, 79
2, 55550, Note_on_c, 0, 67, 75
2, 55550, Note_on_c, 0, 58, 57
2, 55550, Note_on_c, 0, 70, 76
2, 55562, Note_on_c, 0, 60, 60
2, 55562, Note_on_c, 0, 56, 57
2, 55602, Control_c, 0, 64, 127
2, 55730, Note_on_c, 0, 60, 0
2, 55750, Note_on_c, 0, 67, 0
2, 55786, Note_on_c, 0, 58, 0
2, 55806, Note_on_c, 0, 56, 0
2, 55806, Note_on_c, 0, 63, 0
2, 55822, Note_on_c, 0, 70, 0
2, 55918, Control_c, 0, 64, 0
2, 55926, Note_on_c, 0, 59, 57
2, 55934, Note_on_c, 0, 66, 65
2, 55934, Note_on_c, 0, 69, 65
2, 55934, Note_on_c, 0, 57, 58
2, 55934, Note_on_c, 0, 62, 56
2, 55942, Note_on_c, 0, 55, 50
2, 56062, Control_c, 0, 64, 127
2, 56126, Note_on_c, 0, 57, 0
2, 56130, Note_on_c, 0, 59, 0
2, 56138, Note_on_c, 0, 69, 0
2, 56138, Note_on_c, 0, 55, 0
2, 56202, Note_on_c, 0, 62, 0
2, 56206, Note_on_c, 0, 66, 0
2, 56346, Control_c, 0, 64, 0
2, 56350, Note_on_c, 0, 53, 51
2, 56350, Note_on_c, 0, 57, 50
2, 56354, Note_on_c, 0, 55, 45
2, 56354, Note_on_c, 0, 64, 56
2, 56354, Note_on_c, 0, 67, 56
2, 56354, Note_on_c, 0, 60, 48
2, 56390, Note_on_c, 0, 55, 0
2, 56410, Control_c, 0, 64, 127
2, 56434, Note_on_c, 0, 57, 0
2, 56450, Note_on_c, 0, 53, 0
2, 56474, Note_on_c, 0, 64, 0
2, 56518, Note_on_c, 0, 60, 0
2, 56694, Note_on_c, 0, 67, 0
2, 56786, Note_on_c, 0, 40, 59
2, 56810, Note_on_c, 0, 47, 44
2, 56814, Note_on_c, 0, 58, 58
2, 56858, Control_c, 0, 64, 0
2, 56886, Note_on_c, 0, 62, 58
2, 56890, Note_on_c, 0, 55, 49
2, 56914, Note_on_c, 0, 66, 65
2, 56942, Note_on_c, 0, 69, 67
2, 57034, Control_c, 0, 64, 127
2, 57270, Note_on_c, 0, 69, 0
2, 57402, Note_on_c, 0, 40, 0
2, 57458, Note_on_c, 0, 47, 0
2, 57458, Note_on_c, 0, 69, 73
2, 57562, Note_on_c, 0, 55, 0
2, 57658, Note_on_c, 0, 58, 0
2, 57710, Note_on_c, 0, 62, 0
2, 57790, Note_on_c, 0, 66, 0
2, 57806, Note_on_c, 0, 69, 0
2, 57930, Control_c, 0, 64, 0
2, 57954, Note_on_c, 0, 45, 75
2, 58022, Control_c, 0, 64, 127
2, 58058, Note_on_c, 0, 45, 0
2, 58534, Note_on_c, 0, 69, 63
2, 58538, Note_on_c, 0, 61, 54
2, 58538, Note_on_c, 0, 65, 63
2, 58546, Note_on_c, 0, 55, 56
2, 58942, Note_on_c, 0, 65, 0
2, 59234, Note_on_c, 0, 61, 0
2, 59562, Note_on_c, 0, 69, 0
2, 59718, Note_on_c, 0, 64, 115
2, 59842, Note_on_c, 0, 55, 0
2, 59986, Note_on_c, 0, 64, 0
2, 60070, Note_on_c, 0, 64, 99
2, 60330, Note_on_c, 0, 64, 0
2, 60406, Note_on_c, 0, 64, 83
2, 60642, Note_on_c, 0, 64, 0
2, 60742, Note_on_c, 0, 64, 71
2, 60890, Note_on_c, 0, 64, 0
2, 61046, Note_on_c, 0, 64, 62
2, 61134, Note_on_c, 0, 64, 0
2, 61458, Note_on_c, 0, 67, 58
2, 61458, Note_on_c, 0, 38, 46
2, 61466, Control_c, 0, 64, 0
2, 61466, Note_on_c, 0, 60, 57
2, 61466, Note_on_c, 0, 64, 54
2, 61470, Note_on_c, 0, 57, 52
2, 61486, Note_on_c, 0, 53, 32
2, 61634, Control_c, 0, 64, 127
2, 61866, Note_on_c, 0, 45, 56
2, 61870, Note_on_c, 0, 53, 0
2, 62002, Note_on_c, 0, 60, 0
2, 62010, Note_on_c, 0, 57, 0
2, 62018, Note_on_c, 0, 38, 0
2, 62154, Note_on_c, 0, 67, 0
2, 62202, Note_on_c, 0, 64, 0
2, 62246, Note_on_c, 0, 60, 54
2, 62254, Note_on_c, 0, 57, 48
2, 62270, Note_on_c, 0, 53, 36
2, 62438, Note_on_c, 0, 53, 0
2, 62470, Note_on_c, 0, 57, 0
2, 62486, Note_on_c, 0, 45, 0
2, 62530, Note_on_c, 0, 60, 0
2, 63594, Control_c, 0, 64, 0
2, 63610, Note_on_c, 0, 65, 64
2, 63618, Note_on_c, 0, 60, 66
2, 63622, Note_on_c, 0, 51, 49
2, 63634, Note_on_c, 0, 44, 40
2, 63694, Control_c, 0, 64, 127
2, 63746, Note_on_c, 0, 65, 0
2, 63774, Note_on_c, 0, 60, 0
2, 63798, Note_on_c, 0, 51, 0
2, 63846, Note_on_c, 0, 44, 0
2, 64054, Control_c, 0, 64, 0
2, 64062, Note_on_c, 0, 64, 54
2, 64062, Note_on_c, 0, 53, 54
2, 64062, Note_on_c, 0, 59, 58
2, 64082, Note_on_c, 0, 43, 41
2, 64090, Note_on_c, 0, 50, 41
2, 64178, Control_c, 0, 64, 127
2, 64342, Note_on_c, 0, 50, 0
2, 64378, Note_on_c, 0, 43, 0
2, 64410, Note_on_c, 0, 59, 0
2, 64414, Note_on_c, 0, 53, 0
2, 64558, Note_on_c, 0, 64, 0
2, 65238, Note_on_c, 0, 62, 57
2, 65334, Note_on_c, 0, 62, 0
2, 65734, Note_on_c, 0, 67, 58
2, 65754, Control_c, 0, 64, 0
2, 65766, Note_on_c, 0, 62, 55
2, 65798, Note_on_c, 0, 58, 49
2, 65818, Note_on_c, 0, 43, 32
2, 65834, Note_on_c, 0, 53, 22
2, 65878, Note_on_c, 0, 57, 34
2, 65890, Control_c, 0, 64, 127
2, 65986, Note_on_c, 0, 62, 0
2, 66010, Note_on_c, 0, 57, 0
2, 66022, Note_on_c, 0, 58, 0
2, 66050, Note_on_c, 0, 53, 0
2, 66066, Note_on_c, 0, 67, 0
2, 66202, Note_on_c, 0, 43, 0
2, 66206, Note_on_c, 0, 50, 50
2, 66234, Note_on_c, 0, 81, 72
2, 66510, Note_on_c, 0, 81, 0
2, 66542, Note_on_c, 0, 50, 0
2, 66574, Note_on_c, 0, 57, 54
2, 66574, Note_on_c, 0, 69, 57
2, 66794, Note_on_c, 0, 70, 68
2, 66798, Note_on_c, 0, 69, 0
2, 66902, Note_on_c, 0, 70, 0
2, 66990, Note_on_c, 0, 74, 61
2, 67022, Note_on_c, 0, 58, 49
2, 67046, Note_on_c, 0, 57, 0
2, 67210, Note_on_c, 0, 84, 81
2, 67418, Note_on_c, 0, 74, 0
2, 67422, Note_on_c, 0, 84, 0
2, 67470, Note_on_c, 0, 81, 55
2, 67478, Note_on_c, 0, 62, 39
2, 67726, Note_on_c, 0, 81, 0
2, 67958, Note_on_c, 0, 69, 46
2, 68114, Note_on_c, 0, 69, 0
2, 68158, Note_on_c, 0, 70, 61
2, 68174, Note_on_c, 0, 67, 36
2, 68250, Note_on_c, 0, 70, 0
2, 68330, Note_on_c, 0, 74, 60
2, 68458, Note_on_c, 0, 74, 0
2, 68506, Note_on_c, 0, 77, 79
2, 68546, Note_on_c, 0, 67, 0
2, 68670, Note_on_c, 0, 77, 0
2, 68698, Note_on_c, 0, 84, 89
2, 68738, Note_on_c, 0, 62, 0
2, 68842, Note_on_c, 0, 58, 0
2, 68878, Note_on_c, 0, 84, 0
2, 68922, Note_on_c, 0, 82, 76
2, 69046, Note_on_c, 0, 82, 0
2, 69158, Note_on_c, 0, 73, 63
2, 69366, Note_on_c, 0, 73, 0
2, 69394, Note_on_c, 0, 71, 39
2, 69634, Note_on_c, 0, 71, 0
2, 69642, Note_on_c, 0, 58, 39
2, 69650, Note_on_c, 0, 72, 56
2, 69658, Note_on_c, 0, 63, 31
2, 69674, Note_on_c, 0, 52, 39
2, 69686, Control_c, 0, 64, 0
2, 69858, Control_c, 0, 64, 127
2, 69886, Note_on_c, 0, 72, 0
2, 69902, Note_on_c, 0, 73, 53
2, 70134, Note_on_c, 0, 73, 0
2, 70158, Note_on_c, 0, 70, 49
2, 70222, Note_on_c, 0, 63, 0
2, 70366, Note_on_c, 0, 70, 0
2, 70422, Note_on_c, 0, 64, 43
2, 70502, Note_on_c, 0, 64, 0
2, 70502, Note_on_c, 0, 58, 0
2, 70502, Note_on_c, 0, 52, 0
2, 72320, Note_on_c, 0, 72, 56
2, 72336, Note_on_c, 0, 60, 53
2, 72340, Note_on_c, 0, 61, 41
2, 72340, Note_on_c, 0, 64, 49
2, 72368, Note_on_c, 0, 60, 0
2, 72372, Note_on_c, 0, 67, 29
2, 72384, Note_on_c, 0, 70, 25
2, 72544, Note_on_c, 0, 67, 0
2, 72548, Note_on_c, 0, 61, 0
2, 72576, Note_on_c, 0, 64, 0
2, 72612, Note_on_c, 0, 70, 0
2, 72636, Note_on_c, 0, 72, 0
2, 73384, Note_on_c, 0, 81, 64
2, 73392, Note_on_c, 0, 70, 41
2, 73396, Control_c, 0, 64, 0
2, 73404, Note_on_c, 0, 73, 49
2, 73408, Note_on_c, 0, 41, 43
2, 73416, Note_on_c, 0, 57, 31
2, 73420, Note_on_c, 0, 76, 49
2, 73552, Control_c, 0, 64, 127
2, 73596, Note_on_c, 0, 81, 0
2, 73640, Note_on_c, 0, 76, 0
2, 73672, Note_on_c, 0, 73, 0
2, 73692, Note_on_c, 0, 70, 0
2, 73760, Note_on_c, 0, 57, 0
2, 74092, Note_on_c, 0, 49, 47
2, 74092, Note_on_c, 0, 57, 50
2, 74096, Note_on_c, 0, 61, 52
2, 74100, Note_on_c, 0, 64, 55
2, 74124, Control_c, 0, 64, 0
2, 74200, Control_c, 0, 64, 127
2, 74284, Note_on_c, 0, 66, 6
2, 74348, Note_on_c, 0, 57, 0
2, 74368, Note_on_c, 0, 64, 0
2, 74380, Note_on_c, 0, 66, 0
2, 74388, Note_on_c, 0, 61, 0
2, 74508, Control_c, 0, 64, 0
2, 74516, Note_on_c, 0, 61, 60
2, 74516, Note_on_c, 0, 67, 68
2, 74520, Note_on_c, 0, 64, 56
2, 74524, Note_on_c, 0, 57, 60
2, 74532, Note_on_c, 0, 52, 63
2, 74564, Note_on_c, 0, 49, 0
2, 74624, Control_c, 0, 64, 127
2, 74732, Note_on_c, 0, 64, 0
2, 74816, Note_on_c, 0, 67, 0
2, 74836, Note_on_c, 0, 52, 0
2, 74840, Note_on_c, 0, 57, 0
2, 74896, Note_on_c, 0, 61, 0
2, 74932, Note_on_c, 0, 65, 74
2, 74936, Control_c, 0, 64, 0
2, 74944, Note_on_c, 0, 60, 71
2, 74948, Note_on_c, 0, 57, 58
2, 74952, Note_on_c, 0, 50, 54
2, 75004, Control_c, 0, 64, 127
2, 75016, Note_on_c, 0, 41, 0
2, 75176, Note_on_c, 0, 57, 0
2, 75252, Note_on_c, 0, 60, 0
2, 75332, Note_on_c, 0, 65, 0
2, 75408, Control_c, 0, 64, 0
2, 75432, Note_on_c, 0, 50, 0
2, 75436, Note_on_c, 0, 65, 49
2, 75436, Note_on_c, 0, 55, 54
2, 75436, Note_on_c, 0, 61, 56
2, 75444, Note_on_c, 0, 39, 58
2, 75572, Control_c, 0, 64, 127
2, 75608, Note_on_c, 0, 55, 0
2, 75692, Note_on_c, 0, 65, 0
2, 75696, Note_on_c, 0, 61, 0
2, 75872, Note_on_c, 0, 46, 51
2, 75900, Note_on_c, 0, 67, 76
2, 75900, Note_on_c, 0, 79, 81
2, 75920, Note_on_c, 0, 39, 0
2, 75964, Note_on_c, 0, 46, 0
2, 76108, Note_on_c, 0, 79, 0
2, 76152, Note_on_c, 0, 67, 0
2, 76280, Control_c, 0, 64, 0
2, 76292, Note_on_c, 0, 81, 78
2, 76300, Note_on_c, 0, 69, 60
2, 76304, Note_on_c, 0, 74, 66
2, 76304, Note_on_c, 0, 65, 55
2, 76308, Note_on_c, 0, 61, 44
2, 76308, Note_on_c, 0, 60, 48
2, 76308, Note_on_c, 0, 55, 48
2, 76352, Note_on_c, 0, 58, 28
2, 76380, Control_c, 0, 64, 127
2, 76472, Note_on_c, 0, 69, 0
2, 76484, Note_on_c, 0, 74, 0
2, 76512, Note_on_c, 0, 81, 0
2, 76556, Note_on_c, 0, 55, 0
2, 76560, Note_on_c, 0, 60, 0
2, 76572, Note_on_c, 0, 65, 0
2, 76576, Note_on_c, 0, 61, 0
2, 76580, Note_on_c, 0, 58, 0
2, 76728, Note_on_c, 0, 84, 69
2, 76732, Note_on_c, 0, 72, 56
2, 76748, Note_on_c, 0, 61, 54
2, 76752, Note_on_c, 0, 79, 56
2, 76756, Note_on_c, 0, 65, 51
2, 76768, Note_on_c, 0, 60, 41
2, 76784, Note_on_c, 0, 55, 35
2, 76792, Note_on_c, 0, 65, 0
2, 76808, Note_on_c, 0, 60, 0
2, 76832, Note_on_c, 0, 61, 0
2, 76872, Note_on_c, 0, 55, 0
2, 76908, Note_on_c, 0, 72, 0
2, 76976, Note_on_c, 0, 79, 0
2, 76976, Note_on_c, 0, 84, 0
2, 77216, Control_c, 0, 64, 0
2, 77248, Note_on_c, 0, 26, 70
2, 77328, Control_c, 0, 64, 127
2, 77344, Note_on_c, 0, 26, 0
2, 77892, Note_on_c, 0, 65, 52
2, 77896, Note_on_c, 0, 82, 56
2, 77896, Note_on_c, 0, 86, 63
2, 77896, Note_on_c, 0, 77, 60
2, 77896, Note_on_c, 0, 54, 46
2, 77912, Note_on_c, 0, 60, 47
2, 78172, Note_on_c, 0, 60, 0
2, 78184, Note_on_c, 0, 65, 0
2, 78196, Note_on_c, 0, 77, 0
2, 78212, Note_on_c, 0, 54, 0
2, 78220, Note_on_c, 0, 82, 0
2, 78224, Note_on_c, 0, 86, 0
2, 79004, Note_on_c, 0, 54, 42
2, 79144, Note_on_c, 0, 54, 0
2, 79588, Note_on_c, 0, 84, 44
2, 79588, Note_on_c, 0, 80, 45
2, 79588, Note_on_c, 0, 75, 35
2, 79592, Note_on_c, 0, 54, 38
2, 79600, Control_c, 0, 64, 0
2, 79604, Note_on_c, 0, 65, 31
2, 79608, Note_on_c, 0, 60, 36
2, 79720, Control_c, 0, 64, 127
2, 79824, Note_on_c, 0, 84, 0
2, 79864, Note_on_c, 0, 80, 0
2, 79876, Note_on_c, 0, 65, 0
2, 79884, Note_on_c, 0, 75, 0
2, 79916, Note_on_c, 0, 60, 0
2, 79924, Note_on_c, 0, 54, 0
2, 80192, Note_on_c, 0, 65, 38
2, 80196, Note_on_c, 0, 54, 38
2, 80212, Note_on_c, 0, 60, 34
2, 80256, Note_on_c, 0, 60, 0
2, 80284, Note_on_c, 0, 65, 0
2, 80364, Note_on_c, 0, 54, 0
2, 80900, Note_on_c, 0, 54, 46
2, 80924, Note_on_c, 0, 58, 45
2, 80928, Note_on_c, 0, 50, 38
2, 80932, Note_on_c, 0, 60, 44
2, 80940, Note_on_c, 0, 38, 36
2, 80956, Control_c, 0, 64, 0
2, 81124, Control_c, 0, 64, 127
2, 81340, Note_on_c, 0, 50, 0
2, 81404, Note_on_c, 0, 54, 0
2, 81436, Note_on_c, 0, 45, 56
2, 81460, Note_on_c, 0, 60, 0
2, 81464, Note_on_c, 0, 38, 0
2, 81500, Note_on_c, 0, 58, 0
2, 81556, Note_on_c, 0, 45, 0
2, 81828, Note_on_c, 0, 54, 43
2, 81904, Note_on_c, 0, 56, 58
2, 81908, Note_on_c, 0, 54, 0
2, 81908, Control_c, 0, 64, 0
2, 81920, Note_on_c, 0, 72, 68
2, 81920, Note_on_c, 0, 57, 68
2, 81920, Note_on_c, 0, 66, 62
2, 81920, Note_on_c, 0, 63, 65
2, 81940, Note_on_c, 0, 69, 53
2, 81964, Note_on_c, 0, 56, 0
2, 82008, Control_c, 0, 64, 127
2, 82168, Note_on_c, 0, 69, 0
2, 82184, Note_on_c, 0, 72, 0
2, 82212, Note_on_c, 0, 66, 0
2, 82216, Note_on_c, 0, 63, 0
2, 82396, Note_on_c, 0, 57, 0
2, 82416, Note_on_c, 0, 69, 63
2, 82424, Control_c, 0, 64, 0
2, 82428, Note_on_c, 0, 63, 53
2, 82432, Note_on_c, 0, 66, 52
2, 82432, Note_on_c, 0, 54, 49
2, 82436, Note_on_c, 0, 60, 37
2, 82492, Control_c, 0, 64, 127
2, 82544, Note_on_c, 0, 54, 0
2, 82596, Note_on_c, 0, 69, 0
2, 82620, Note_on_c, 0, 60, 0
2, 82656, Note_on_c, 0, 66, 0
2, 82692, Note_on_c, 0, 63, 0
2, 83144, Control_c, 0, 64, 0
2, 83204, Note_on_c, 0, 58, 52
2, 83216, Note_on_c, 0, 53, 48
2, 83216, Note_on_c, 0, 62, 50
2, 83216, Note_on_c, 0, 69, 42
2, 83224, Note_on_c, 0, 43, 39
2, 83228, Note_on_c, 0, 65, 45
2, 83236, Control_c, 0, 64, 127
2, 83616, Note_on_c, 0, 69, 0
2, 83732, Note_on_c, 0, 65, 0
2, 83768, Note_on_c, 0, 62, 0
2, 83796, Note_on_c, 0, 58, 0
2, 83824, Note_on_c, 0, 43, 0
2, 83840, Note_on_c, 0, 53, 0
2, 83864, Note_on_c, 0, 57, 70
2, 83876, Note_on_c, 0, 45, 48
2, 83924, Control_c, 0, 64, 0
2, 84016, Note_on_c, 0, 57, 0
2, 84048, Note_on_c, 0, 58, 69
2, 84068, Note_on_c, 0, 46, 56
2, 84120, Note_on_c, 0, 45, 0
2, 84156, Note_on_c, 0, 58, 0
2, 84204, Note_on_c, 0, 46, 0
2, 84208, Note_on_c, 0, 62, 74
2, 84240, Note_on_c, 0, 50, 55
2, 84312, Note_on_c, 0, 62, 0
2, 84352, Note_on_c, 0, 66, 72
2, 84360, Note_on_c, 0, 50, 0
2, 84384, Note_on_c, 0, 53, 62
2, 84388, Control_c, 0, 64, 127
2, 84468, Note_on_c, 0, 66, 0
2, 84472, Note_on_c, 0, 53, 0
2, 84512, Control_c, 0, 64, 0
2, 84516, Note_on_c, 0, 69, 85
2, 84540, Note_on_c, 0, 54, 67
2, 84904, Note_on_c, 0, 66, 74
2, 84916, Note_on_c, 0, 69, 0
2, 84924, Note_on_c, 0, 57, 55
2, 84932, Note_on_c, 0, 54, 0
2, 84996, Control_c, 0, 64, 127
2, 85036, Note_on_c, 0, 66, 0
2, 85052, Note_on_c, 0, 67, 64
2, 85076, Note_on_c, 0, 57, 0
2, 85180, Note_on_c, 0, 69, 74
2, 85184, Note_on_c, 0, 67, 0
2, 85216, Note_on_c, 0, 58, 60
2, 85304, Note_on_c, 0, 70, 71
2, 85308, Note_on_c, 0, 69, 0
2, 85328, Control_c, 0, 64, 0
2, 85388, Note_on_c, 0, 70, 0
2, 85432, Note_on_c, 0, 74, 78
2, 85464, Control_c, 0, 64, 127
2, 85560, Note_on_c, 0, 78, 68
2, 85572, Note_on_c, 0, 74, 0
2, 85656, Note_on_c, 0, 78, 0
2, 85668, Control_c, 0, 64, 0
2, 85676, Note_on_c, 0, 62, 50
2, 85680, Note_on_c, 0, 81, 74
2, 85716, Note_on_c, 0, 57, 38
2, 85792, Note_on_c, 0, 81, 0
2, 85820, Note_on_c, 0, 78, 54
2, 85880, Note_on_c, 0, 78, 0
2, 85920, Note_on_c, 0, 79, 56
2, 85932, Control_c, 0, 64, 127
2, 86020, Note_on_c, 0, 79, 0
2, 86028, Note_on_c, 0, 81, 57
2, 86120, Note_on_c, 0, 81, 0
2, 86136, Note_on_c, 0, 57, 0
2, 86140, Note_on_c, 0, 82, 62
2, 86180, Control_c, 0, 64, 0
2, 86208, Note_on_c, 0, 82, 0
2, 86212, Note_on_c, 0, 55, 39
2, 86296, Note_on_c, 0, 86, 39
2, 86300, Control_c, 0, 64, 127
2, 86360, Note_on_c, 0, 86, 0
2, 86416, Note_on_c, 0, 90, 49
2, 86460, Note_on_c, 0, 62, 0
2, 86500, Note_on_c, 0, 58, 0
2, 86520, Note_on_c, 0, 90, 0
2, 86548, Note_on_c, 0, 93, 59
2, 86608, Note_on_c, 0, 93, 0
2, 86732, Note_on_c, 0, 58, 39
2, 86748, Note_on_c, 0, 57, 39
2, 86756, Note_on_c, 0, 62, 25
2, 86760, Control_c, 0, 64, 0
2, 86816, Control_c, 0, 64, 127
2, 86960, Note_on_c, 0, 90, 56
2, 87052, Note_on_c, 0, 90, 0
2, 87088, Note_on_c, 0, 91, 58
2, 87176, Note_on_c, 0, 91, 0
2, 87208, Note_on_c, 0, 93, 74
2, 87296, Note_on_c, 0, 93, 0
2, 87356, Note_on_c, 0, 94, 66
2, 87376, Note_on_c, 0, 62, 0
2, 87396, Note_on_c, 0, 57, 0
2, 87400, Note_on_c, 0, 58, 0
2, 87428, Note_on_c, 0, 94, 0
2, 87448, Note_on_c, 0, 55, 0
2, 87496, Note_on_c, 0, 95, 75
2, 87600, Note_on_c, 0, 95, 0
2, 87636, Note_on_c, 0, 96, 72
2, 87740, Note_on_c, 0, 96, 0
2, 87756, Control_c, 0, 64, 0
2, 87792, Note_on_c, 0, 46, 49
2, 87792, Note_on_c, 0, 97, 68
2, 87832, Control_c, 0, 64, 127
2, 87844, Note_on_c, 0, 46, 0
2, 87932, Note_on_c, 0, 97, 0
2, 87972, Note_on_c, 0, 99, 71
2, 88080, Note_on_c, 0, 99, 0
2, 88136, Note_on_c, 0, 96, 55
2, 88156, Note_on_c, 0, 61, 41
2, 88156, Note_on_c, 0, 65, 41
2, 88164, Note_on_c, 0, 60, 36
2, 88176, Control_c, 0, 64, 0
2, 88208, Control_c, 0, 64, 127
2, 88248, Note_on_c, 0, 96, 0
2, 88296, Note_on_c, 0, 97, 56
2, 88384, Note_on_c, 0, 65, 0
2, 88416, Note_on_c, 0, 97, 0
2, 88424, Note_on_c, 0, 61, 0
2, 88468, Note_on_c, 0, 61, 23
2, 88476, Note_on_c, 0, 65, 41
2, 88480, Note_on_c, 0, 94, 56
2, 88708, Note_on_c, 0, 65, 0
2, 88768, Note_on_c, 0, 61, 0
2, 88840, Note_on_c, 0, 60, 0
2, 88900, Note_on_c, 0, 65, 43
2, 88900, Note_on_c, 0, 60, 21
2, 88908, Note_on_c, 0, 61, 40
2, 88964, Note_on_c, 0, 65, 0
2, 89012, Note_on_c, 0, 61, 0
2, 89016, Note_on_c, 0, 60, 0
2, 89384, Control_c, 0, 64, 0
2, 89392, Note_on_c, 0, 39, 47
2, 89432, Note_on_c, 0, 39, 0
2, 89440, Control_c, 0, 64, 127
2, 89824, Note_on_c, 0, 65, 39
2, 89840, Note_on_c, 0, 60, 38
2, 89844, Note_on_c, 0, 61, 31
2, 89848, Note_on_c, 0, 55, 37
2, 89872, Note_on_c, 0, 58, 32
2, 90068, Note_on_c, 0, 55, 0
2, 90072, Note_on_c, 0, 65, 0
2, 90084, Note_on_c, 0, 61, 0
2, 90100, Note_on_c, 0, 60, 0
2, 90104, Note_on_c, 0, 94, 0
2, 90108, Note_on_c, 0, 58, 0
2, 90384, Note_on_c, 0, 93, 67
2, 90392, Note_on_c, 0, 81, 60
2, 90392, Note_on_c, 0, 65, 44
2, 90396, Note_on_c, 0, 61, 38
2, 90408, Note_on_c, 0, 60, 34
2, 90440, Note_on_c, 0, 55, 33
2, 90620, Note_on_c, 0, 93, 0
2, 90636, Note_on_c, 0, 55, 0
2, 90644, Note_on_c, 0, 65, 0
2, 90648, Note_on_c, 0, 60, 0
2, 90660, Note_on_c, 0, 61, 0
2, 90688, Note_on_c, 0, 81, 0
2, 90892, Note_on_c, 0, 65, 42
2, 90896, Note_on_c, 0, 61, 38
2, 90908, Note_on_c, 0, 60, 35
2, 90936, Note_on_c, 0, 55, 31
2, 90976, Note_on_c, 0, 65, 0
2, 91012, Note_on_c, 0, 60, 0
2, 91016, Note_on_c, 0, 61, 0
2, 91088, Note_on_c, 0, 55, 0
2, 91224, Note_on_c, 0, 91, 55
2, 91224, Note_on_c, 0, 79, 55
2, 91384, Note_on_c, 0, 91, 0
2, 91392, Note_on_c, 0, 79, 0
2, 91564, Control_c, 0, 64, 0
2, 91592, Note_on_c, 0, 91, 64
2, 91600, Note_on_c, 0, 79, 52
2, 91604, Note_on_c, 0, 45, 40
2, 91608, Note_on_c, 0, 55, 34
2, 91616, Note_on_c, 0, 52, 39
2, 91632, Control_c, 0, 64, 127
2, 91676, Note_on_c, 0, 91, 0
2, 91748, Note_on_c, 0, 79, 0
2, 91768, Note_on_c, 0, 55, 0
2, 91768, Note_on_c, 0, 52, 0
2, 91888, Note_on_c, 0, 45, 0
2, 92340, Control_c, 0, 64, 0
2, 92364, Note_on_c, 0, 60, 57
2, 92368, Note_on_c, 0, 55, 56
2, 92376, Note_on_c, 0, 52, 48
2, 92388, Note_on_c, 0, 45, 39
2, 92412, Control_c, 0, 64, 127
2, 92496, Note_on_c, 0, 60, 0
2, 92524, Note_on_c, 0, 52, 0
2, 92544, Note_on_c, 0, 45, 0
2, 92552, Note_on_c, 0, 55, 0
2, 92604, Note_on_c, 0, 52, 57
2, 92608, Note_on_c, 0, 60, 52
2, 92616, Note_on_c, 0, 45, 57
2, 92620, Note_on_c, 0, 55, 42
2, 92672, Note_on_c, 0, 55, 0
2, 92676, Note_on_c, 0, 52, 0
2, 92684, Note_on_c, 0, 60, 0
2, 92836, Control_c, 0, 64, 0
2, 92852, Note_on_c, 0, 45, 0
2, 92860, Note_on_c, 0, 62, 57
2, 92868, Note_on_c, 0, 53, 55
2, 92868, Note_on_c, 0, 56, 56
2, 92876, Note_on_c, 0, 47, 55
2, 92876, Note_on_c, 0, 59, 57
2, 92992, Control_c, 0, 64, 127
2, 93008, Note_on_c, 0, 62, 0
2, 93040, Note_on_c, 0, 47, 0
2, 93060, Note_on_c, 0, 59, 0
2, 93092, Note_on_c, 0, 62, 61
2, 93112, Note_on_c, 0, 47, 57
2, 93148, Note_on_c, 0, 53, 0
2, 93176, Note_on_c, 0, 62, 0
2, 93220, Note_on_c, 0, 56, 0
2, 93548, Note_on_c, 0, 47, 0
2, 93800, Control_c, 0, 64, 0
2, 93824, Note_on_c, 0, 64, 67
2, 93828, Note_on_c, 0, 58, 70
2, 93828, Note_on_c, 0, 49, 66
2, 93832, Note_on_c, 0, 61, 58
2, 93832, Note_on_c, 0, 55, 68
2, 93904, Control_c, 0, 64, 127
2, 93988, Note_on_c, 0, 64, 0
2, 94016, Note_on_c, 0, 55, 0
2, 94068, Note_on_c, 0, 58, 0
2, 94088, Note_on_c, 0, 61, 0
2, 94124, Note_on_c, 0, 49, 0
2, 94132, Control_c, 0, 64, 0
2, 94152, Note_on_c, 0, 60, 75
2, 94156, Note_on_c, 0, 65, 76
2, 94156, Note_on_c, 0, 57, 75
2, 94160, Note_on_c, 0, 50, 77
2, 94224, Control_c, 0, 64, 127
2, 94280, Note_on_c, 0, 65, 0
2, 94284, Note_on_c, 0, 57, 0
2, 94296, Note_on_c, 0, 60, 0
2, 94468, Control_c, 0, 64, 0
2, 94484, Note_on_c, 0, 67, 76
2, 94496, Note_on_c, 0, 58, 77
2, 94496, Note_on_c, 0, 61, 77
2, 94512, Note_on_c, 0, 52, 72
2, 94528, Note_on_c, 0, 50, 0
2, 94560, Control_c, 0, 64, 127
2, 94624, Note_on_c, 0, 67, 0
2, 94684, Note_on_c, 0, 58, 0
2, 94716, Note_on_c, 0, 61, 0
2, 94816, Control_c, 0, 64, 0
2, 94828, Note_on_c, 0, 52, 0
2, 94832, Note_on_c, 0, 69, 80
2, 94840, Note_on_c, 0, 60, 81
2, 94844, Note_on_c, 0, 62, 74
2, 94852, Note_on_c, 0, 53, 68
2, 94856, Note_on_c, 0, 65, 57
2, 94904, Control_c, 0, 64, 127
2, 94928, Note_on_c, 0, 60, 0
2, 94940, Note_on_c, 0, 65, 0
2, 94940, Note_on_c, 0, 62, 0
2, 94956, Note_on_c, 0, 69, 0
2, 95180, Control_c, 0, 64, 0
2, 95196, Note_on_c, 0, 72, 78
2, 95204, Note_on_c, 0, 65, 78
2, 95208, Note_on_c, 0, 62, 76
2, 95212, Note_on_c, 0, 57, 72
2, 95212, Note_on_c, 0, 69, 68
2, 95240, Note_on_c, 0, 53, 0
2, 95252, Control_c, 0, 64, 127
2, 95296, Note_on_c, 0, 62, 0
2, 95304, Note_on_c, 0, 57, 0
2, 95332, Note_on_c, 0, 65, 0
2, 95348, Note_on_c, 0, 69, 0
2, 95356, Note_on_c, 0, 72, 0
2, 95596, Control_c, 0, 64, 0
2, 95632, Note_on_c, 0, 76, 98
2, 95640, Note_on_c, 0, 69, 85
2, 95640, Note_on_c, 0, 71, 78
2, 95640, Note_on_c, 0, 65, 92
2, 95640, Note_on_c, 0, 57, 75
2, 95640, Note_on_c, 0, 47, 75
2, 95684, Note_on_c, 0, 74, 31
2, 95704, Control_c, 0, 64, 127
2, 95752, Note_on_c, 0, 57, 0
2, 95800, Note_on_c, 0, 47, 0
2, 95800, Note_on_c, 0, 74, 0
2, 95812, Note_on_c, 0, 76, 0
2, 95832, Note_on_c, 0, 71, 0
2, 95836, Note_on_c, 0, 65, 0
2, 95844, Note_on_c, 0, 69, 0
2, 96160, Note_on_c, 0, 38, 63
2, 96176, Note_on_c, 0, 41, 27
2, 96208, Note_on_c, 0, 41, 0
2, 96208, Note_on_c, 0, 38, 0
2, 96208, Note_on_c, 0, 43, 47
2, 96244, Note_on_c, 0, 40, 72
2, 96248, Note_on_c, 0, 43, 0
2, 96264, Note_on_c, 0, 40, 0
2, 96280, Note_on_c, 0, 45, 49
2, 96296, Note_on_c, 0, 41, 68
2, 96308, Note_on_c, 0, 45, 0
2, 96320, Note_on_c, 0, 41, 0
2, 96324, Note_on_c, 0, 47, 66
2, 96340, Note_on_c, 0, 43, 75
2, 96348, Note_on_c, 0, 47, 0
2, 96368, Note_on_c, 0, 43, 0
2, 96372, Note_on_c, 0, 48, 61
2, 96384, Note_on_c, 0, 45, 75
2, 96400, Note_on_c, 0, 48, 0
2, 96420, Note_on_c, 0, 45, 0
2, 96420, Note_on_c, 0, 50, 57
2, 96432, Note_on_c, 0, 47, 75
2, 96448, Note_on_c, 0, 50, 0
2, 96472, Note_on_c, 0, 47, 0
2, 96472, Note_on_c, 0, 52, 60
2, 96480, Note_on_c, 0, 48, 76
2, 96496, Note_on_c, 0, 52, 0
2, 96520, Note_on_c, 0, 48, 0
2, 96520, Note_on_c, 0, 53, 58
2, 96528, Note_on_c, 0, 50, 73
2, 96548, Note_on_c, 0, 53, 0
2, 96568, Note_on_c, 0, 55, 57
2, 96572, Note_on_c, 0, 50, 0
2, 96580, Note_on_c, 0, 52, 74
2, 96596, Note_on_c, 0, 55, 0
2, 96620, Note_on_c, 0, 57, 57
2, 96632, Note_on_c, 0, 52, 0
2, 96636, Note_on_c, 0, 53, 72
2, 96648, Note_on_c, 0, 57, 0
2, 96680, Note_on_c, 0, 59, 54
2, 96688, Note_on_c, 0, 53, 0
2, 96696, Note_on_c, 0, 55, 72
2, 96708, Note_on_c, 0, 59, 0
2, 96744, Note_on_c, 0, 60, 53
2, 96748, Note_on_c, 0, 55, 0
2, 96760, Note_on_c, 0, 57, 71
2, 96772, Note_on_c, 0, 60, 0
2, 96800, Note_on_c, 0, 62, 51
2, 96808, Note_on_c, 0, 57, 0
2, 96820, Note_on_c, 0, 59, 67
2, 96828, Note_on_c, 0, 62, 0
2, 96860, Note_on_c, 0, 64, 54
2, 96868, Note_on_c, 0, 59, 0
2, 96884, Note_on_c, 0, 60, 72
2, 96892, Note_on_c, 0, 64, 0
2, 96912, Note_on_c, 0, 60, 0
2, 96916, Note_on_c, 0, 65, 53
2, 96940, Note_on_c, 0, 65, 0
2, 96940, Note_on_c, 0, 62, 70
2, 96968, Note_on_c, 0, 62, 0
2, 96972, Note_on_c, 0, 67, 56
2, 96988, Note_on_c, 0, 64, 65
2, 96996, Note_on_c, 0, 67, 0
2, 97016, Note_on_c, 0, 64, 0
2, 97020, Note_on_c, 0, 69, 58
2, 97036, Note_on_c, 0, 65, 75
2, 97044, Note_on_c, 0, 69, 0
2, 97064, Note_on_c, 0, 65, 0
2, 97072, Note_on_c, 0, 71, 52
2, 97084, Note_on_c, 0, 67, 73
2, 97100, Note_on_c, 0, 71, 0
2, 97116, Note_on_c, 0, 72, 57
2, 97120, Note_on_c, 0, 67, 0
2, 97136, Note_on_c, 0, 69, 73
2, 97144, Note_on_c, 0, 72, 0
2, 97176, Note_on_c, 0, 69, 0
2, 97176, Note_on_c, 0, 74, 53
2, 97188, Note_on_c, 0, 71, 66
2, 97200, Note_on_c, 0, 74, 0
2, 97224, Note_on_c, 0, 71, 0
2, 97224, Note_on_c, 0, 76, 49
2, 97244, Note_on_c, 0, 72, 69
2, 97252, Note_on_c, 0, 76, 0
2, 97280, Note_on_c, 0, 72, 0
2, 97280, Note_on_c, 0, 77, 52
2, 97292, Note_on_c, 0, 74, 71
2, 97304, Note_on_c, 0, 77, 0
2, 97332, Note_on_c, 0, 74, 0
2, 97340, Note_on_c, 0, 79, 46
2, 97352, Note_on_c, 0, 76, 66
2, 97368, Note_on_c, 0, 79, 0
2, 97376, Note_on_c, 0, 76, 0
2, 97384, Note_on_c, 0, 81, 51
2, 97396, Note_on_c, 0, 77, 68
2, 97412, Note_on_c, 0, 81, 0
2, 97436, Note_on_c, 0, 77, 0
2, 97436, Note_on_c, 0, 83, 51
2, 97448, Note_on_c, 0, 79, 66
2, 97464, Note_on_c, 0, 83, 0
2, 97488, Note_on_c, 0, 79, 0
2, 97492, Note_on_c, 0, 84, 47
2, 97504, Note_on_c, 0, 81, 62
2, 97516, Note_on_c, 0, 84, 0
2, 97528, Note_on_c, 0, 81, 0
2, 97548, Note_on_c, 0, 86, 40
2, 97560, Note_on_c, 0, 83, 57
2, 97580, Note_on_c, 0, 86, 0
2, 97584, Note_on_c, 0, 83, 0
2, 97600, Note_on_c, 0, 88, 38
2, 97616, Note_on_c, 0, 84, 58
2, 97640, Note_on_c, 0, 88, 0
2, 97648, Note_on_c, 0, 84, 0
2, 97652, Note_on_c, 0, 89, 50
2, 97668, Note_on_c, 0, 86, 61
2, 97684, Note_on_c, 0, 89, 0
2, 97700, Note_on_c, 0, 86, 0
2, 97712, Note_on_c, 0, 91, 41
2, 97724, Note_on_c, 0, 88, 56
2, 97744, Note_on_c, 0, 91, 0
2, 97752, Note_on_c, 0, 88, 0
2, 97768, Note_on_c, 0, 89, 48
2, 97776, Note_on_c, 0, 93, 26
2, 97796, Note_on_c, 0, 89, 0
2, 97816, Note_on_c, 0, 93, 0
2, 97820, Note_on_c, 0, 91, 53
2, 97860, Note_on_c, 0, 91, 0
2, 97872, Note_on_c, 0, 93, 52
2, 97896, Note_on_c, 0, 96, 49
2, 97924, Note_on_c, 0, 93, 0
2, 97948, Note_on_c, 0, 96, 0
2, 97948, Note_on_c, 0, 95, 52
2, 97980, Note_on_c, 0, 98, 47
2, 98008, Note_on_c, 0, 95, 0
2, 98020, Note_on_c, 0, 98, 0
2, 98024, Note_on_c, 0, 96, 55
2, 98076, Note_on_c, 0, 96, 0
2, 98080, Note_on_c, 0, 98, 52
2, 98120, Note_on_c, 0, 98, 0
2, 98120, Note_on_c, 0, 100, 8
2, 98168, Note_on_c, 0, 28, 46
2, 98188, Note_on_c, 0, 40, 50
2, 98224, Control_c, 0, 64, 0
2, 98404, Control_c, 0, 64, 127
2, 98576, Note_on_c, 0, 28, 0
2, 98596, Note_on_c, 0, 100, 0
2, 98620, Note_on_c, 0, 40, 0
2, 98932, Note_on_c, 0, 56, 29
2, 99232, Note_on_c, 0, 76, 50
2, 99248, Note_on_c, 0, 67, 33
2, 99248, Note_on_c, 0, 72, 50
2, 99256, Note_on_c, 0, 62, 43
2, 99288, Note_on_c, 0, 67, 0
2, 99292, Note_on_c, 0, 72, 0
2, 99332, Note_on_c, 0, 76, 0
2, 99572, Note_on_c, 0, 91, 51
2, 99588, Note_on_c, 0, 84, 19
2, 99592, Note_on_c, 0, 67, 34
2, 99716, Note_on_c, 0, 62, 0
2, 99788, Note_on_c, 0, 91, 0
2, 99812, Note_on_c, 0, 84, 0
2, 99984, Note_on_c, 0, 62, 39
2, 99984, Note_on_c, 0, 79, 24
2, 99984, Note_on_c, 0, 88, 38
2, 99988, Note_on_c, 0, 84, 43
2, 100416, Note_on_c, 0, 88, 0
2, 100496, Note_on_c, 0, 84, 0
2, 100572, Note_on_c, 0, 67, 0
2, 100632, Note_on_c, 0, 79, 0
2, 100932, Note_on_c, 0, 62, 0
2, 101108, Note_on_c, 0, 56, 0
2, 101980, Note_on_c, 0, 56, 53
2, 101980, Note_on_c, 0, 65, 72
2, 101984, Note_on_c, 0, 46, 54
2, 101984, Note_on_c, 0, 70, 63
2, 101988, Note_on_c, 0, 74, 68
2, 101988, Control_c, 0, 64, 0
2, 102060, Control_c, 0, 64, 127
2, 102124, Note_on_c, 0, 74, 0
2, 102164, Note_on_c, 0, 56, 0
2, 102164, Note_on_c, 0, 65, 0
2, 102172, Note_on_c, 0, 46, 0
2, 102200, Note_on_c, 0, 70, 0
2, 102464, Control_c, 0, 64, 0
2, 102480, Note_on_c, 0, 72, 76
2, 102488, Note_on_c, 0, 65, 72
2, 102488, Note_on_c, 0, 61, 70
2, 102492, Note_on_c, 0, 69, 61
2, 102496, Note_on_c, 0, 45, 54
2, 102504, Note_on_c, 0, 55, 40
2, 102604, Control_c, 0, 64, 127
2, 102724, Note_on_c, 0, 69, 0
2, 102724, Note_on_c, 0, 72, 0
2, 102728, Note_on_c, 0, 55, 0
2, 102740, Note_on_c, 0, 45, 0
2, 102752, Note_on_c, 0, 65, 0
2, 102764, Note_on_c, 0, 61, 0
2, 103048, Note_on_c, 0, 69, 53
2, 103060, Control_c, 0, 64, 0
2, 103060, Note_on_c, 0, 61, 56
2, 103064, Note_on_c, 0, 65, 57
2, 103064, Note_on_c, 0, 51, 46
2, 103064, Note_on_c, 0, 66, 43
2, 103076, Note_on_c, 0, 39, 42
2, 103120, Note_on_c, 0, 55, 25
2, 103224, Control_c, 0, 64, 127
2, 103344, Note_on_c, 0, 51, 0
2, 103368, Note_on_c, 0, 39, 0
2, 103408, Note_on_c, 0, 55, 0
2, 103440, Note_on_c, 0, 69, 0
2, 103460, Note_on_c, 0, 65, 0
2, 103564, Note_on_c, 0, 66, 0
2, 103584, Note_on_c, 0, 61, 0
2, 103776, Control_c, 0, 64, 0
2, 103800, Note_on_c, 0, 67, 57
2, 103800, Note_on_c, 0, 60, 48
2, 103804, Note_on_c, 0, 38, 42
2, 103812, Note_on_c, 0, 50, 35
2, 103816, Note_on_c, 0, 57, 39
2, 103824, Note_on_c, 0, 64, 36
2, 103880, Control_c, 0, 64, 127
2, 103928, Note_on_c, 0, 64, 0
2, 103932, Note_on_c, 0, 38, 0
2, 103988, Note_on_c, 0, 50, 0
2, 104000, Note_on_c, 0, 67, 0
2, 104016, Note_on_c, 0, 60, 0
2, 104048, Note_on_c, 0, 57, 0
2, 104776, Control_c, 0, 64, 0
2, 104804, Note_on_c, 0, 65, 57
2, 104804, Note_on_c, 0, 54, 65
2, 104804, Note_on_c, 0, 58, 65
2, 104816, Note_on_c, 0, 51, 48
2, 104816, Note_on_c, 0, 44, 49
2, 104816, Note_on_c, 0, 60, 56
2, 104856, Note_on_c, 0, 63, 30
2, 104900, Control_c, 0, 64, 127
2, 105004, Note_on_c, 0, 54, 0
2, 105036, Note_on_c, 0, 60, 0
2, 105044, Note_on_c, 0, 65, 0
2, 105072, Note_on_c, 0, 63, 0
2, 105088, Note_on_c, 0, 58, 0
2, 105096, Note_on_c, 0, 44, 0
2, 105124, Note_on_c, 0, 51, 0
2, 105476, Control_c, 0, 64, 0
2, 105488, Note_on_c, 0, 64, 81
2, 105492, Note_on_c, 0, 69, 75
2, 105496, Note_on_c, 0, 59, 79
2, 105508, Note_on_c, 0, 43, 58
2, 105512, Note_on_c, 0, 53, 58
2, 105632, Control_c, 0, 64, 127
2, 106024, Note_on_c, 0, 53, 0
2, 106040, Note_on_c, 0, 43, 0
2, 106136, Note_on_c, 0, 59, 0
2, 106200, Note_on_c, 0, 64, 0
2, 106284, Note_on_c, 0, 69, 0
2, 106340, Note_on_c, 0, 63, 59
2, 106348, Control_c, 0, 64, 0
2, 106348, Note_on_c, 0, 59, 56
2, 106356, Note_on_c, 0, 37, 47
2, 106372, Note_on_c, 0, 44, 46
2, 106508, Control_c, 0, 64, 127
2, 106636, Note_on_c, 0, 37, 0
2, 106664, Note_on_c, 0, 44, 0
2, 106728, Note_on_c, 0, 59, 0
2, 107004, Note_on_c, 0, 63, 0
2, 107216, Note_on_c, 0, 58, 50
2, 107220, Note_on_c, 0, 36, 48
2, 107224, Control_c, 0, 64, 72
2, 107228, Control_c, 0, 64, 0
2, 107232, Note_on_c, 0, 62, 52
2, 107244, Note_on_c, 0, 52, 31
2, 107356, Control_c, 0, 64, 127
2, 107524, Note_on_c, 0, 36, 0
2, 107644, Note_on_c, 0, 52, 0
2, 107704, Note_on_c, 0, 62, 0
2, 107796, Note_on_c, 0, 58, 0
2, 107878, Control_c, 0, 94, 0
2, 107878, Control_c, 0, 11, 127
2, 107878, Control_c, 0, 101, 0
2, 107879, Control_c, 0, 100, 1
2, 107880, Control_c, 0, 6, 64
2, 107881, Control_c, 0, 38, 0
2, 107882, Control_c, 0, 74, 46
2, 107882, Control_c, 0, 71, 43
2, 108704, Note_on_c, 0, 62, 41
2, 108712, Note_on_c, 0, 58, 43
2, 108712, Note_on_c, 0, 56, 42
2, 108720, Note_on_c, 0, 52, 37
2, 108720, Note_on_c, 0, 42, 39
2, 108724, Note_on_c, 0, 49, 38
2, 108724, Control_c, 0, 64, 0
2, 108942, Control_c, 0, 64, 127
2, 109024, Control_c, 0, 64, 127
2, 109722, Note_on_c, 0, 49, 0
2, 109722, Note_on_c, 0, 58, 0
2, 109722, Note_on_c, 0, 56, 0
2, 109722, Note_on_c, 0, 62, 0
2, 109722, Note_on_c, 0, 42, 0
2, 109722, Note_on_c, 0, 52, 0
2, 110046, Note_on_c, 0, 72, 52
2, 110154, Control_c, 0, 64, 0
2, 110162, Note_on_c, 0, 72, 0
2, 110182, Note_on_c, 0, 81, 66
2, 110198, Note_on_c, 0, 64, 37
2, 110210, Note_on_c, 0, 60, 40
2, 110222, Note_on_c, 0, 53, 35
2, 110230, Note_on_c, 0, 57, 36
2, 110478, Control_c, 0, 64, 127
2, 110570, Note_on_c, 0, 53, 0
2, 110582, Note_on_c, 0, 60, 0
2, 110590, Note_on_c, 0, 57, 0
2, 110646, Note_on_c, 0, 64, 0
2, 111210, Control_c, 0, 64, 0
2, 111214, Note_on_c, 0, 65, 51
2, 111222, Note_on_c, 0, 60, 47
2, 111250, Note_on_c, 0, 65, 0
2, 111294, Note_on_c, 0, 60, 0
2, 111606, Note_on_c, 0, 61, 44
2, 111606, Note_on_c, 0, 65, 44
2, 111618, Note_on_c, 0, 60, 47
2, 111626, Note_on_c, 0, 55, 43
2, 111634, Note_on_c, 0, 81, 0
2, 111746, Control_c, 0, 64, 127
2, 112666, Note_on_c, 0, 79, 57
2, 112734, Note_on_c, 0, 79, 0
2, 112770, Note_on_c, 0, 81, 74
2, 112830, Control_c, 0, 64, 0
2, 112838, Note_on_c, 0, 81, 0
2, 112898, Note_on_c, 0, 84, 120
2, 112946, Control_c, 0, 64, 127
2, 113018, Note_on_c, 0, 60, 0
2, 113046, Note_on_c, 0, 65, 0
2, 113050, Note_on_c, 0, 55, 0
2, 113066, Note_on_c, 0, 84, 0
2, 113070, Note_on_c, 0, 61, 0
2, 113114, Control_c, 0, 64, 0
2, 113142, Note_on_c, 0, 86, 127
2, 113154, Note_on_c, 0, 60, 65
2, 113158, Note_on_c, 0, 54, 58
2, 113158, Note_on_c, 0, 64, 63
2, 113158, Note_on_c, 0, 59, 64
2, 113342, Note_on_c, 0, 86, 0
2, 113414, Note_on_c, 0, 86, 87
2, 113590, Note_on_c, 0, 86, 0
2, 113662, Note_on_c, 0, 84, 63
2, 114234, Note_on_c, 0, 75, 50
2, 114330, Note_on_c, 0, 84, 0
2, 114362, Note_on_c, 0, 75, 0
2, 114394, Note_on_c, 0, 59, 0
2, 114398, Note_on_c, 0, 64, 0
2, 114406, Note_on_c, 0, 74, 43
2, 114410, Note_on_c, 0, 60, 0
2, 114446, Note_on_c, 0, 54, 0
2, 114558, Note_on_c, 0, 74, 0
2, 114642, Note_on_c, 0, 64, 63
2, 114646, Note_on_c, 0, 60, 61
2, 114694, Note_on_c, 0, 64, 0
2, 114702, Note_on_c, 0, 60, 0
2, 115006, Note_on_c, 0, 66, 66
2, 115022, Note_on_c, 0, 61, 41
2, 115082, Note_on_c, 0, 66, 0
2, 115102, Note_on_c, 0, 61, 0
2, 115230, Note_on_c, 0, 64, 58
2, 115242, Note_on_c, 0, 54, 49
2, 115250, Note_on_c, 0, 60, 49
2, 115254, Note_on_c, 0, 59, 54
2, 115354, Note_on_c, 0, 59, 0
2, 115354, Note_on_c, 0, 64, 0
2, 115358, Note_on_c, 0, 60, 0
2, 115362, Note_on_c, 0, 54, 0
2, 115538, Note_on_c, 0, 54, 32
2, 115546, Note_on_c, 0, 64, 31
2, 115554, Note_on_c, 0, 59, 48
2, 115558, Control_c, 0, 64, 127
2, 115558, Note_on_c, 0, 60, 48
2, 115790, Note_on_c, 0, 59, 0
2, 115806, Note_on_c, 0, 60, 0
2, 115822, Note_on_c, 0, 64, 0
2, 115906, Note_on_c, 0, 54, 0
2, 116202, Control_c, 0, 64, 0
2, 116206, Note_on_c, 0, 58, 43
2, 116214, Note_on_c, 0, 53, 39
2, 116218, Note_on_c, 0, 57, 39
2, 116218, Note_on_c, 0, 62, 30
2, 116606, Note_on_c, 0, 72, 122
2, 116886, Note_on_c, 0, 71, 50
2, 116938, Note_on_c, 0, 70, 63
2, 116942, Note_on_c, 0, 72, 0
2, 116958, Note_on_c, 0, 71, 0
2, 117054, Note_on_c, 0, 70, 0
2, 117074, Note_on_c, 0, 69, 48
2, 117202, Note_on_c, 0, 69, 0
2, 117230, Note_on_c, 0, 62, 0
2, 117294, Note_on_c, 0, 58, 0
2, 117338, Note_on_c, 0, 69, 85
2, 117342, Note_on_c, 0, 62, 48
2, 117350, Note_on_c, 0, 58, 26
2, 117506, Note_on_c, 0, 62, 0
2, 117562, Note_on_c, 0, 68, 56
2, 117574, Note_on_c, 0, 53, 0
2, 117574, Note_on_c, 0, 58, 0
2, 117598, Note_on_c, 0, 69, 0
2, 117614, Note_on_c, 0, 57, 0
2, 117642, Note_on_c, 0, 68, 0
2, 117702, Note_on_c, 0, 66, 50
2, 117770, Note_on_c, 0, 66, 0
2, 117790, Note_on_c, 0, 65, 50
2, 117850, Note_on_c, 0, 65, 0
2, 117922, Note_on_c, 0, 65, 66
2, 118014, Note_on_c, 0, 65, 0
2, 118174, Note_on_c, 0, 65, 85
2, 118346, Note_on_c, 0, 64, 48
2, 118354, Note_on_c, 0, 65, 0
2, 118418, Note_on_c, 0, 63, 50
2, 118422, Note_on_c, 0, 64, 0
2, 118518, Note_on_c, 0, 62, 50
2, 118522, Note_on_c, 0, 63, 0
2, 118610, Note_on_c, 0, 62, 0
2, 118690, Note_on_c, 0, 62, 52
2, 118910, Note_on_c, 0, 58, 41
2, 118910, Note_on_c, 0, 57, 36
2, 118942, Note_on_c, 0, 57, 0
2, 118942, Note_on_c, 0, 58, 0
2, 119022, Note_on_c, 0, 62, 0
2, 119282, Note_on_c, 0, 65, 54
2, 119286, Note_on_c, 0, 56, 47
2, 119298, Note_on_c, 0, 60, 46
2, 119298, Note_on_c, 0, 61, 41
2, 119318, Note_on_c, 0, 65, 0
2, 119326, Note_on_c, 0, 56, 0
2, 119326, Note_on_c, 0, 60, 0
2, 119338, Note_on_c, 0, 61, 0
2, 119646, Note_on_c, 0, 72, 83
2, 119730, Note_on_c, 0, 72, 0
2, 119778, Note_on_c, 0, 69, 46
2, 119874, Note_on_c, 0, 69, 0
2, 119902, Note_on_c, 0, 70, 54
2, 119970, Note_on_c, 0, 70, 0
2, 120018, Note_on_c, 0, 65, 57
2, 120022, Note_on_c, 0, 72, 66
2, 120030, Note_on_c, 0, 61, 45
2, 120046, Note_on_c, 0, 56, 35
2, 120086, Note_on_c, 0, 56, 0
2, 120090, Note_on_c, 0, 65, 0
2, 120122, Note_on_c, 0, 61, 0
2, 120122, Note_on_c, 0, 72, 0
2, 120154, Note_on_c, 0, 73, 60
2, 120190, Note_on_c, 0, 73, 0
2, 120298, Note_on_c, 0, 77, 57
2, 120338, Note_on_c, 0, 77, 0
2, 120406, Note_on_c, 0, 82, 79
2, 120426, Note_on_c, 0, 65, 54
2, 120438, Note_on_c, 0, 61, 45
2, 120442, Note_on_c, 0, 60, 41
2, 120446, Note_on_c, 0, 56, 39
2, 120486, Note_on_c, 0, 82, 0
2, 120510, Note_on_c, 0, 65, 0
2, 120538, Note_on_c, 0, 84, 80
2, 120554, Note_on_c, 0, 65, 21
2, 120606, Note_on_c, 0, 84, 0
2, 120606, Note_on_c, 0, 60, 0
2, 120606, Note_on_c, 0, 56, 0
2, 120614, Note_on_c, 0, 65, 0
2, 120618, Note_on_c, 0, 61, 0
2, 120650, Note_on_c, 0, 85, 73
2, 120730, Note_on_c, 0, 85, 0
2, 120794, Note_on_c, 0, 84, 81
2, 120814, Note_on_c, 0, 65, 46
2, 120818, Note_on_c, 0, 61, 43
2, 120826, Note_on_c, 0, 60, 47
2, 120890, Note_on_c, 0, 84, 0
2, 120922, Note_on_c, 0, 85, 51
2, 120942, Note_on_c, 0, 65, 0
2, 120958, Note_on_c, 0, 60, 0
2, 120962, Note_on_c, 0, 61, 0
2, 121006, Note_on_c, 0, 85, 0
2, 121066, Note_on_c, 0, 84, 71
2, 121094, Note_on_c, 0, 65, 54
2, 121098, Note_on_c, 0, 60, 54
2, 121102, Note_on_c, 0, 61, 45
2, 121122, Note_on_c, 0, 55, 40
2, 121266, Note_on_c, 0, 55, 0
2, 121270, Note_on_c, 0, 65, 0
2, 121278, Note_on_c, 0, 61, 0
2, 121290, Note_on_c, 0, 60, 0
2, 121346, Note_on_c, 0, 61, 42
2, 121346, Note_on_c, 0, 65, 43
2, 121354, Note_on_c, 0, 60, 42
2, 121378, Note_on_c, 0, 55, 40
2, 121494, Note_on_c, 0, 84, 0
2, 121498, Note_on_c, 0, 55, 0
2, 121502, Note_on_c, 0, 65, 0
2, 121510, Note_on_c, 0, 61, 0
2, 121518, Note_on_c, 0, 60, 0
2, 121586, Note_on_c, 0, 84, 57
2, 121594, Note_on_c, 0, 61, 42
2, 121598, Note_on_c, 0, 65, 39
2, 121602, Note_on_c, 0, 60, 46
2, 121618, Note_on_c, 0, 55, 40
2, 121690, Control_c, 0, 64, 127
2, 122070, Note_on_c, 0, 65, 0
2, 122082, Note_on_c, 0, 60, 0
2, 122098, Note_on_c, 0, 61, 0
2, 122166, Note_on_c, 0, 55, 0
2, 122202, Note_on_c, 0, 84, 0
2, 122350, Note_on_c, 0, 82, 72
2, 122394, Note_on_c, 0, 64, 35
2, 122398, Note_on_c, 0, 60, 46
2, 122406, Note_on_c, 0, 59, 42
2, 122410, Note_on_c, 0, 55, 24
2, 122430, Control_c, 0, 64, 0
2, 122438, Note_on_c, 0, 82, 0
2, 122614, Note_on_c, 0, 78, 65
2, 122666, Note_on_c, 0, 79, 57
2, 122706, Note_on_c, 0, 78, 0
2, 122750, Note_on_c, 0, 79, 0
2, 122846, Note_on_c, 0, 75, 63
2, 122914, Note_on_c, 0, 76, 60
2, 122946, Note_on_c, 0, 75, 0
2, 122958, Note_on_c, 0, 60, 0
2, 122990, Note_on_c, 0, 59, 0
2, 123002, Note_on_c, 0, 76, 0
2, 123074, Note_on_c, 0, 64, 0
2, 123082, Note_on_c, 0, 55, 0
2, 123094, Note_on_c, 0, 72, 58
2, 123226, Note_on_c, 0, 72, 0
2, 123318, Note_on_c, 0, 71, 46
2, 123450, Note_on_c, 0, 64, 47
2, 123474, Note_on_c, 0, 59, 48
2, 123474, Note_on_c, 0, 60, 47
2, 123486, Note_on_c, 0, 64, 0
2, 123490, Note_on_c, 0, 71, 0
2, 123506, Note_on_c, 0, 60, 0
2, 123534, Note_on_c, 0, 59, 0
2, 123878, Note_on_c, 0, 74, 80
2, 123894, Note_on_c, 0, 60, 51
2, 123906, Note_on_c, 0, 53, 49
2, 123938, Note_on_c, 0, 60, 0
2, 123998, Note_on_c, 0, 74, 0
2, 124022, Note_on_c, 0, 53, 0
2, 124046, Note_on_c, 0, 72, 48
2, 124254, Note_on_c, 0, 72, 0
2, 124262, Note_on_c, 0, 69, 68
2, 124338, Note_on_c, 0, 69, 0
2, 124406, Note_on_c, 0, 65, 49
2, 124606, Note_on_c, 0, 65, 0
2, 124770, Note_on_c, 0, 60, 28
2, 124786, Note_on_c, 0, 65, 45
2, 124794, Note_on_c, 0, 57, 35
2, 124798, Note_on_c, 0, 53, 31
2, 124802, Note_on_c, 0, 50, 30
2, 124906, Note_on_c, 0, 53, 0
2, 124926, Note_on_c, 0, 50, 0
2, 124930, Note_on_c, 0, 57, 0
2, 124958, Note_on_c, 0, 65, 0
2, 124958, Note_on_c, 0, 60, 0
2, 125138, Control_c, 0, 64, 127
2, 126190, Note_on_c, 0, 84, 56
2, 126190, Note_on_c, 0, 62, 46
2, 126194, Note_on_c, 0, 53, 42
2, 126194, Note_on_c, 0, 58, 49
2, 126198, Note_on_c, 0, 72, 39
2, 126202, Note_on_c, 0, 79, 54
2, 126214, Note_on_c, 0, 57, 41
2, 126258, Note_on_c, 0, 72, 0
2, 126262, Note_on_c, 0, 57, 0
2, 126270, Note_on_c, 0, 62, 0
2, 126270, Note_on_c, 0, 84, 0
2, 126274, Note_on_c, 0, 53, 0
2, 126274, Note_on_c, 0, 79, 0
2, 126294, Note_on_c, 0, 58, 0
2, 126382, Note_on_c, 0, 79, 75
2, 126382, Note_on_c, 0, 86, 84
2, 126390, Note_on_c, 0, 74, 73
2, 126394, Note_on_c, 0, 53, 57
2, 126398, Note_on_c, 0, 58, 59
2, 126398, Note_on_c, 0, 62, 60
2, 126410, Note_on_c, 0, 57, 58
2, 126418, Note_on_c, 0, 82, 33
2, 126450, Note_on_c, 0, 82, 0
2, 126546, Note_on_c, 0, 86, 0
2, 126554, Note_on_c, 0, 53, 0
2, 126566, Note_on_c, 0, 74, 0
2, 126566, Note_on_c, 0, 62, 0
2, 126566, Note_on_c, 0, 57, 0
2, 126582, Note_on_c, 0, 58, 0
2, 126586, Note_on_c, 0, 79, 0
2, 126594, Control_c, 0, 64, 0
2, 126638, Note_on_c, 0, 84, 72
2, 126642, Note_on_c, 0, 62, 57
2, 126642, Note_on_c, 0, 72, 52
2, 126642, Note_on_c, 0, 58, 57
2, 126642, Note_on_c, 0, 79, 75
2, 126650, Note_on_c, 0, 57, 54
2, 126650, Note_on_c, 0, 53, 48
2, 126658, Note_on_c, 0, 74, 42
2, 126686, Note_on_c, 0, 74, 0
2, 126686, Note_on_c, 0, 72, 0
2, 126694, Note_on_c, 0, 53, 0
2, 126706, Note_on_c, 0, 79, 0
2, 126710, Note_on_c, 0, 62, 0
2, 126714, Note_on_c, 0, 84, 0
2, 126726, Note_on_c, 0, 57, 0
2, 126742, Note_on_c, 0, 58, 0
2, 127022, Control_c, 0, 64, 127
2, 127310, Control_c, 0, 64, 0
2, 127358, Note_on_c, 0, 80, 63
2, 127358, Note_on_c, 0, 84, 69
2, 127362, Note_on_c, 0, 75, 63
2, 127366, Note_on_c, 0, 69, 67
2, 127370, Note_on_c, 0, 58, 56
2, 127370, Note_on_c, 0, 64, 58
2, 127474, Control_c, 0, 64, 127
2, 127506, Note_on_c, 0, 64, 0
2, 127506, Note_on_c, 0, 69, 0
2, 127546, Note_on_c, 0, 84, 0
2, 127546, Note_on_c, 0, 58, 0
2, 127558, Note_on_c, 0, 75, 0
2, 127558, Note_on_c, 0, 80, 0
2, 127622, Note_on_c, 0, 82, 66
2, 127626, Note_on_c, 0, 67, 56
2, 127630, Note_on_c, 0, 74, 68
2, 127630, Note_on_c, 0, 79, 63
2, 127642, Note_on_c, 0, 56, 46
2, 127646, Note_on_c, 0, 62, 56
2, 127698, Note_on_c, 0, 79, 0
2, 127714, Note_on_c, 0, 62, 0
2, 127718, Note_on_c, 0, 67, 0
2, 127754, Note_on_c, 0, 74, 0
2, 127758, Note_on_c, 0, 82, 0
2, 127770, Note_on_c, 0, 56, 0
2, 127830, Control_c, 0, 64, 0
2, 127882, Note_on_c, 0, 55, 56
2, 127886, Note_on_c, 0, 81, 68
2, 127886, Note_on_c, 0, 65, 49
2, 127894, Note_on_c, 0, 72, 48
2, 127898, Note_on_c, 0, 61, 43
2, 127902, Note_on_c, 0, 77, 59
2, 127918, Note_on_c, 0, 65, 0
2, 127926, Note_on_c, 0, 77, 0
2, 127930, Note_on_c, 0, 61, 0
2, 127938, Control_c, 0, 64, 127
2, 127942, Note_on_c, 0, 81, 0
2, 127954, Note_on_c, 0, 55, 0
2, 127958, Note_on_c, 0, 72, 0
2, 127994, Control_c, 0, 64, 0
2, 128146, Note_on_c, 0, 70, 61
2, 128146, Note_on_c, 0, 79, 68
2, 128158, Note_on_c, 0, 64, 39
2, 128162, Note_on_c, 0, 54, 39
2, 128162, Note_on_c, 0, 60, 41
2, 128166, Note_on_c, 0, 76, 42
2, 128174, Note_on_c, 0, 70, 0
2, 128190, Note_on_c, 0, 60, 0
2, 128194, Note_on_c, 0, 79, 0
2, 128194, Note_on_c, 0, 76, 0
2, 128198, Note_on_c, 0, 54, 0
2, 128198, Note_on_c, 0, 64, 0
2, 128298, Control_c, 0, 64, 127
2, 128486, Control_c, 0, 64, 0
2, 128506, Note_on_c, 0, 81, 55
2, 128510, Note_on_c, 0, 69, 52
2, 128514, Note_on_c, 0, 78, 50
2, 128514, Note_on_c, 0, 74, 58
2, 128518, Note_on_c, 0, 57, 39
2, 128526, Note_on_c, 0, 62, 35
2, 128534, Note_on_c, 0, 52, 42
2, 128534, Note_on_c, 0, 58, 41
2, 128602, Control_c, 0, 64, 127
2, 128950, Note_on_c, 0, 52, 0
2, 128974, Note_on_c, 0, 57, 0
2, 128986, Note_on_c, 0, 78, 0
2, 128990, Note_on_c, 0, 58, 0
2, 129014, Note_on_c, 0, 62, 0
2, 129046, Note_on_c, 0, 74, 0
2, 129074, Note_on_c, 0, 69, 0
2, 129126, Note_on_c, 0, 81, 0
2, 129166, Note_on_c, 0, 78, 68
2, 129274, Note_on_c, 0, 78, 0
2, 129278, Note_on_c, 0, 74, 59
2, 129342, Note_on_c, 0, 74, 0
2, 129354, Control_c, 0, 64, 0
2, 129398, Note_on_c, 0, 65, 53
2, 129410, Note_on_c, 0, 61, 42
2, 129414, Note_on_c, 0, 60, 39
2, 129418, Note_on_c, 0, 55, 47
2, 129418, Note_on_c, 0, 84, 73
2, 129418, Note_on_c, 0, 77, 73
2, 129590, Note_on_c, 0, 84, 0
2, 129674, Note_on_c, 0, 73, 56
2, 129690, Note_on_c, 0, 81, 57
2, 129742, Control_c, 0, 64, 127
2, 129830, Note_on_c, 0, 81, 0
2, 129898, Note_on_c, 0, 77, 0
2, 129938, Note_on_c, 0, 73, 0
2, 130038, Note_on_c, 0, 65, 0
2, 130090, Note_on_c, 0, 61, 0
2, 130122, Note_on_c, 0, 60, 0
2, 130154, Note_on_c, 0, 55, 0
2, 130362, Control_c, 0, 64, 0
2, 130386, Note_on_c, 0, 62, 49
2, 130398, Note_on_c, 0, 79, 78
2, 130398, Note_on_c, 0, 72, 79
2, 130402, Note_on_c, 0, 69, 72
2, 130410, Note_on_c, 0, 64, 66
2, 130414, Note_on_c, 0, 62, 0
2, 130490, Note_on_c, 0, 79, 0
2, 130506, Note_on_c, 0, 69, 0
2, 130522, Note_on_c, 0, 72, 0
2, 130566, Note_on_c, 0, 64, 0
2, 130578, Note_on_c, 0, 62, 52
2, 130582, Note_on_c, 0, 69, 48
2, 130582, Note_on_c, 0, 77, 35
2, 130582, Note_on_c, 0, 72, 57
2, 130642, Note_on_c, 0, 77, 0
2, 130646, Note_on_c, 0, 72, 0
2, 130694, Note_on_c, 0, 69, 0
2, 130938, Note_on_c, 0, 76, 63
2, 130942, Note_on_c, 0, 62, 0
2, 130942, Note_on_c, 0, 69, 54
2, 130942, Note_on_c, 0, 61, 49
2, 130942, Note_on_c, 0, 65, 49
2, 131102, Control_c, 0, 64, 127
2, 131178, Control_c, 0, 64, 0
2, 131210, Note_on_c, 0, 65, 0
2, 131246, Note_on_c, 0, 76, 0
2, 131246, Control_c, 0, 64, 127
2, 131286, Note_on_c, 0, 61, 0
2, 131302, Note_on_c, 0, 65, 30
2, 131306, Note_on_c, 0, 60, 50
2, 131318, Note_on_c, 0, 74, 58
2, 131394, Note_on_c, 0, 65, 0
2, 131398, Note_on_c, 0, 69, 0
2, 131462, Note_on_c, 0, 60, 0
2, 131478, Note_on_c, 0, 74, 0
2, 131638, Control_c, 0, 64, 0
2, 131686, Note_on_c, 0, 75, 55
2, 131690, Note_on_c, 0, 67, 51
2, 131690, Note_on_c, 0, 79, 60
2, 131690, Note_on_c, 0, 71, 46
2, 131694, Note_on_c, 0, 63, 40
2, 131706, Note_on_c, 0, 53, 40
2, 131714, Note_on_c, 0, 59, 43
2, 131798, Control_c, 0, 64, 127
2, 131878, Note_on_c, 0, 63, 0
2, 131890, Note_on_c, 0, 53, 0
2, 131890, Note_on_c, 0, 59, 0
2, 132002, Note_on_c, 0, 79, 0
2, 132026, Note_on_c, 0, 71, 0
2, 132058, Note_on_c, 0, 75, 0
2, 132102, Note_on_c, 0, 67, 0
2, 132270, Note_on_c, 0, 37, 53
2, 132318, Control_c, 0, 64, 0
2, 132354, Note_on_c, 0, 44, 46
2, 132358, Note_on_c, 0, 37, 0
2, 132446, Note_on_c, 0, 46, 34
2, 132482, Note_on_c, 0, 53, 45
2, 132490, Note_on_c, 0, 46, 0
2, 132510, Note_on_c, 0, 53, 0
2, 132550, Note_on_c, 0, 63, 60
2, 132550, Note_on_c, 0, 58, 61
2, 132550, Note_on_c, 0, 53, 61
2, 132550, Note_on_c, 0, 67, 63
2, 132678, Note_on_c, 0, 67, 0
2, 132690, Note_on_c, 0, 58, 0
2, 132714, Note_on_c, 0, 53, 0
2, 132714, Note_on_c, 0, 63, 0
2, 132858, Note_on_c, 0, 58, 56
2, 132866, Note_on_c, 0, 53, 57
2, 132866, Note_on_c, 0, 67, 57
2, 132882, Note_on_c, 0, 63, 57
2, 132886, Control_c, 0, 64, 127
2, 133066, Note_on_c, 0, 67, 0
2, 133078, Note_on_c, 0, 58, 0
2, 133090, Note_on_c, 0, 63, 0
2, 133110, Note_on_c, 0, 44, 0
2, 133118, Note_on_c, 0, 53, 0
2, 133118, Control_c, 0, 64, 0
2, 133146, Note_on_c, 0, 58, 50
2, 133154, Note_on_c, 0, 65, 62
2, 133158, Note_on_c, 0, 62, 60
2, 133162, Note_on_c, 0, 48, 57
2, 133254, Control_c, 0, 64, 127
2, 133502, Note_on_c, 0, 58, 0
2, 133502, Note_on_c, 0, 36, 86
2, 133526, Note_on_c, 0, 65, 0
2, 133526, Note_on_c, 0, 62, 0
2, 133538, Control_c, 0, 64, 0
2, 133570, Control_c, 0, 64, 127
2, 133830, Note_on_c, 0, 36, 0
2, 133886, Note_on_c, 0, 48, 0
2, 134366, Control_c, 0, 64, 0
2, 134394, Note_on_c, 0, 72, 85
2, 134406, Note_on_c, 0, 61, 86
2, 134418, Note_on_c, 0, 60, 57
2, 134418, Note_on_c, 0, 62, 68
2, 134498, Note_on_c, 0, 62, 0
2, 134638, Control_c, 0, 64, 127
2, 134650, Note_on_c, 0, 61, 0
2, 134730, Note_on_c, 0, 72, 0
2, 134746, Note_on_c, 0, 60, 0
2, 135154, Control_c, 0, 64, 0
2, 135166, Note_on_c, 0, 81, 73
2, 135174, Note_on_c, 0, 70, 52
2, 135186, Note_on_c, 0, 69, 56
2, 135366, Note_on_c, 0, 81, 0
2, 135378, Note_on_c, 0, 70, 0
2, 135390, Note_on_c, 0, 69, 0
2, 135450, Note_on_c, 0, 70, 60
2, 135458, Note_on_c, 0, 81, 66
2, 135466, Note_on_c, 0, 69, 53
2, 135610, Control_c, 0, 64, 127
2, 135922, Note_on_c, 0, 69, 0
2, 135954, Note_on_c, 0, 81, 0
2, 136014, Note_on_c, 0, 70, 0
2, 136254, Control_c, 0, 64, 0
2, 136310, Note_on_c, 0, 60, 38
2, 136310, Note_on_c, 0, 55, 39
2, 136310, Note_on_c, 0, 61, 39
2, 136310, Note_on_c, 0, 65, 27
2, 136954, Control_c, 0, 64, 127
2, 137082, Note_on_c, 0, 65, 0
2, 137118, Note_on_c, 0, 55, 0
2, 137142, Note_on_c, 0, 61, 0
2, 137146, Note_on_c, 0, 60, 0
2, 137310, Note_on_c, 0, 65, 47
2, 137322, Note_on_c, 0, 61, 41
2, 137342, Note_on_c, 0, 65, 0
2, 137354, Control_c, 0, 64, 0
2, 137382, Note_on_c, 0, 61, 0
2, 137438, Note_on_c, 0, 67, 44
2, 137498, Note_on_c, 0, 67, 0
2, 137566, Note_on_c, 0, 69, 57
2, 137610, Note_on_c, 0, 69, 0
2, 137694, Note_on_c, 0, 72, 98
2, 137782, Note_on_c, 0, 72, 0
2, 137826, Note_on_c, 0, 73, 92
2, 137978, Note_on_c, 0, 73, 0
2, 138058, Note_on_c, 0, 74, 77
2, 138154, Note_on_c, 0, 74, 0
2, 138226, Note_on_c, 0, 72, 48
2, 138458, Note_on_c, 0, 72, 0
2, 138458, Note_on_c, 0, 69, 57
2, 138478, Note_on_c, 0, 60, 39
2, 138478, Note_on_c, 0, 64, 31
2, 138486, Note_on_c, 0, 54, 31
2, 138534, Note_on_c, 0, 64, 0
2, 138538, Note_on_c, 0, 60, 0
2, 138550, Note_on_c, 0, 54, 0
2, 138626, Note_on_c, 0, 69, 0
2, 138718, Note_on_c, 0, 67, 39
2, 138882, Note_on_c, 0, 67, 0
2, 138930, Control_c, 0, 64, 127
2, 138942, Note_on_c, 0, 66, 54
2, 139010, Control_c, 0, 64, 0
2, 139130, Note_on_c, 0, 66, 0
2, 139210, Note_on_c, 0, 63, 48
2, 139214, Note_on_c, 0, 64, 45
2, 139226, Note_on_c, 0, 54, 37
2, 139242, Note_on_c, 0, 60, 42
2, 139286, Note_on_c, 0, 60, 0
2, 139294, Note_on_c, 0, 64, 0
2, 139358, Note_on_c, 0, 54, 0
2, 139378, Note_on_c, 0, 63, 0
2, 139466, Note_on_c, 0, 62, 49
2, 139474, Note_on_c, 0, 54, 35
2, 139502, Note_on_c, 0, 60, 23
2, 139578, Note_on_c, 0, 60, 0
2, 139578, Note_on_c, 0, 54, 0
2, 139634, Note_on_c, 0, 62, 0
2, 139746, Control_c, 0, 64, 127
2, 139762, Note_on_c, 0, 62, 50
2, 139762, Note_on_c, 0, 54, 45
2, 139770, Note_on_c, 0, 60, 42
2, 139870, Note_on_c, 0, 62, 0
2, 139886, Note_on_c, 0, 60, 0
2, 139906, Note_on_c, 0, 54, 0
2, 140118, Control_c, 0, 64, 0
2, 140142, Note_on_c, 0, 80, 64
2, 140150, Note_on_c, 0, 54, 41
2, 140190, Note_on_c, 0, 54, 0
2, 140246, Note_on_c, 0, 80, 0
2, 140250, Note_on_c, 0, 81, 73
2, 140282, Note_on_c, 0, 54, 50
2, 140306, Note_on_c, 0, 60, 42
2, 140330, Note_on_c, 0, 64, 26
2, 140414, Note_on_c, 0, 64, 0
2, 140454, Note_on_c, 0, 54, 0
2, 140474, Note_on_c, 0, 60, 0
2, 140474, Note_on_c, 0, 81, 0
2, 140526, Note_on_c, 0, 54, 49
2, 140526, Note_on_c, 0, 84, 83
2, 140534, Note_on_c, 0, 72, 69
2, 140538, Note_on_c, 0, 64, 49
2, 140554, Note_on_c, 0, 60, 49
2, 140562, Control_c, 0, 64, 127
2, 140618, Note_on_c, 0, 60, 0
2, 140682, Note_on_c, 0, 64, 0
2, 140786, Note_on_c, 0, 54, 0
2, 140818, Note_on_c, 0, 80, 69
2, 140818, Control_c, 0, 64, 0
2, 140838, Note_on_c, 0, 58, 57
2, 140842, Note_on_c, 0, 53, 50
2, 140850, Note_on_c, 0, 62, 42
2, 140866, Note_on_c, 0, 57, 43
2, 140898, Note_on_c, 0, 72, 0
2, 140946, Note_on_c, 0, 62, 0
2, 140954, Note_on_c, 0, 80, 0
2, 140962, Note_on_c, 0, 58, 0
2, 140966, Note_on_c, 0, 84, 0
2, 140966, Note_on_c, 0, 57, 0
2, 140970, Note_on_c, 0, 53, 0
2, 141002, Note_on_c, 0, 81, 69
2, 141022, Note_on_c, 0, 53, 27
2, 141022, Note_on_c, 0, 62, 49
2, 141026, Note_on_c, 0, 58, 48
2, 141030, Note_on_c, 0, 57, 35
2, 141170, Note_on_c, 0, 58, 0
2, 141170, Note_on_c, 0, 53, 0
2, 141178, Note_on_c, 0, 62, 0
2, 141186, Note_on_c, 0, 57, 0
2, 141210, Note_on_c, 0, 81, 0
2, 141274, Note_on_c, 0, 74, 57
2, 141274, Control_c, 0, 64, 127
2, 141278, Note_on_c, 0, 62, 38
2, 141286, Note_on_c, 0, 58, 41
2, 141298, Note_on_c, 0, 53, 28
2, 141302, Note_on_c, 0, 57, 37
2, 141398, Note_on_c, 0, 62, 0
2, 141418, Note_on_c, 0, 57, 0
2, 141422, Note_on_c, 0, 53, 0
2, 141434, Note_on_c, 0, 58, 0
2, 141434, Note_on_c, 0, 74, 0
2, 141550, Control_c, 0, 64, 0
2, 141558, Note_on_c, 0, 69, 57
2, 141570, Note_on_c, 0, 62, 39
2, 141574, Note_on_c, 0, 58, 36
2, 141574, Note_on_c, 0, 53, 35
2, 141586, Note_on_c, 0, 57, 38
2, 141858, Control_c, 0, 64, 127
2, 142070, Note_on_c, 0, 62, 0
2, 142090, Note_on_c, 0, 58, 0
2, 142114, Note_on_c, 0, 57, 0
2, 142138, Note_on_c, 0, 53, 0
2, 142282, Note_on_c, 0, 69, 0
2, 142434, Note_on_c, 0, 58, 40
2, 142438, Control_c, 0, 64, 0
2, 142442, Note_on_c, 0, 62, 29
2, 142506, Note_on_c, 0, 62, 0
2, 142526, Note_on_c, 0, 58, 0
2, 142714, Note_on_c, 0, 57, 52
2, 142786, Note_on_c, 0, 57, 0
2, 142834, Note_on_c, 0, 58, 57
2, 142886, Note_on_c, 0, 58, 0
2, 142978, Note_on_c, 0, 62, 54
2, 143014, Note_on_c, 0, 62, 0
2, 143082, Note_on_c, 0, 66, 75
2, 143162, Note_on_c, 0, 66, 0
2, 143206, Note_on_c, 0, 62, 36
2, 143210, Note_on_c, 0, 58, 42
2, 143210, Note_on_c, 0, 69, 77
2, 143230, Note_on_c, 0, 53, 34
2, 143242, Note_on_c, 0, 57, 25
2, 143266, Note_on_c, 0, 53, 0
2, 143294, Note_on_c, 0, 69, 0
2, 143294, Note_on_c, 0, 62, 0
2, 143318, Note_on_c, 0, 58, 0
2, 143322, Note_on_c, 0, 57, 0
2, 143338, Note_on_c, 0, 66, 53
2, 143410, Note_on_c, 0, 66, 0
2, 143462, Note_on_c, 0, 67, 74
2, 143514, Note_on_c, 0, 62, 39
2, 143514, Note_on_c, 0, 58, 46
2, 143538, Note_on_c, 0, 57, 28
2, 143550, Note_on_c, 0, 67, 0
2, 143574, Note_on_c, 0, 62, 0
2, 143578, Note_on_c, 0, 57, 0
2, 143594, Note_on_c, 0, 69, 60
2, 143606, Note_on_c, 0, 58, 0
2, 143670, Note_on_c, 0, 69, 0
2, 143726, Note_on_c, 0, 70, 62
2, 143810, Note_on_c, 0, 70, 0
2, 143846, Note_on_c, 0, 72, 74
2, 143874, Note_on_c, 0, 65, 49
2, 143882, Note_on_c, 0, 60, 41
2, 143882, Note_on_c, 0, 61, 44
2, 143894, Note_on_c, 0, 56, 33
2, 143950, Note_on_c, 0, 72, 0
2, 143954, Note_on_c, 0, 65, 0
2, 143974, Note_on_c, 0, 73, 65
2, 144042, Note_on_c, 0, 73, 0
2, 144046, Note_on_c, 0, 60, 0
2, 144058, Note_on_c, 0, 61, 0
2, 144126, Note_on_c, 0, 76, 50
2, 144142, Note_on_c, 0, 77, 52
2, 144166, Note_on_c, 0, 77, 0
2, 144182, Note_on_c, 0, 56, 0
2, 144190, Note_on_c, 0, 76, 0
2, 144242, Note_on_c, 0, 82, 84
2, 144258, Note_on_c, 0, 65, 36
2, 144262, Note_on_c, 0, 61, 52
2, 144270, Note_on_c, 0, 56, 28
2, 144282, Note_on_c, 0, 60, 43
2, 144314, Note_on_c, 0, 65, 0
2, 144318, Note_on_c, 0, 56, 0
2, 144322, Note_on_c, 0, 60, 0
2, 144338, Note_on_c, 0, 82, 0
2, 144350, Note_on_c, 0, 61, 0
2, 144366, Note_on_c, 0, 84, 85
2, 144470, Note_on_c, 0, 84, 0
2, 144490, Note_on_c, 0, 85, 80
2, 144582, Note_on_c, 0, 85, 0
2, 144626, Note_on_c, 0, 84, 75
2, 144630, Note_on_c, 0, 65, 49
2, 144638, Note_on_c, 0, 61, 48
2, 144646, Note_on_c, 0, 56, 40
2, 144658, Note_on_c, 0, 60, 38
2, 144746, Note_on_c, 0, 84, 0
2, 144766, Note_on_c, 0, 82, 49
2, 144790, Note_on_c, 0, 61, 0
2, 144810, Note_on_c, 0, 65, 0
2, 144834, Note_on_c, 0, 82, 0
2, 144834, Note_on_c, 0, 60, 0
2, 144866, Note_on_c, 0, 56, 0
2, 145038, Note_on_c, 0, 65, 40
2, 145046, Note_on_c, 0, 61, 42
2, 145050, Note_on_c, 0, 60, 40
2, 145058, Note_on_c, 0, 56, 34
2, 145350, Note_on_c, 0, 65, 0
2, 145354, Note_on_c, 0, 61, 0
2, 145386, Note_on_c, 0, 60, 0
2, 145450, Note_on_c, 0, 56, 0
2, 145542, Control_c, 0, 64, 127
2, 145734, Control_c, 0, 64, 0
2, 145758, Note_on_c, 0, 60, 47
2, 145762, Note_on_c, 0, 65, 45
2, 145766, Note_on_c, 0, 61, 43
2, 145782, Note_on_c, 0, 55, 37
2, 145842, Note_on_c, 0, 65, 0
2, 145906, Note_on_c, 0, 55, 0
2, 145918, Note_on_c, 0, 72, 39
2, 145942, Note_on_c, 0, 60, 0
2, 145946, Note_on_c, 0, 61, 0
2, 145958, Note_on_c, 0, 72, 0
2, 146026, Note_on_c, 0, 73, 57
2, 146094, Note_on_c, 0, 73, 0
2, 146158, Note_on_c, 0, 61, 48
2, 146162, Note_on_c, 0, 77, 85
2, 146166, Note_on_c, 0, 60, 48
2, 146170, Note_on_c, 0, 65, 45
2, 146178, Note_on_c, 0, 55, 45
2, 146262, Note_on_c, 0, 77, 0
2, 146298, Note_on_c, 0, 79, 87
2, 146370, Note_on_c, 0, 65, 0
2, 146378, Note_on_c, 0, 55, 0
2, 146402, Note_on_c, 0, 60, 0
2, 146406, Note_on_c, 0, 61, 0
2, 146418, Note_on_c, 0, 79, 0
2, 146426, Note_on_c, 0, 77, 55
2, 146514, Note_on_c, 0, 77, 0
2, 146550, Note_on_c, 0, 79, 88
2, 146562, Note_on_c, 0, 61, 49
2, 146562, Note_on_c, 0, 65, 52
2, 146566, Note_on_c, 0, 60, 52
2, 146574, Note_on_c, 0, 55, 46
2, 146662, Note_on_c, 0, 65, 0
2, 146682, Note_on_c, 0, 79, 0
2, 146686, Note_on_c, 0, 77, 65
2, 146698, Note_on_c, 0, 60, 0
2, 146702, Note_on_c, 0, 61, 0
2, 146758, Note_on_c, 0, 55, 0
2, 146790, Note_on_c, 0, 77, 0
2, 146862, Note_on_c, 0, 74, 31
2, 146898, Note_on_c, 0, 74, 0
2, 146962, Note_on_c, 0, 72, 49
2, 146978, Note_on_c, 0, 64, 42
2, 146986, Note_on_c, 0, 55, 35
2, 146990, Note_on_c, 0, 72, 0
2, 146994, Note_on_c, 0, 59, 43
2, 146994, Note_on_c, 0, 60, 48
2, 147270, Note_on_c, 0, 60, 0
2, 147346, Note_on_c, 0, 60, 50
2, 147410, Note_on_c, 0, 64, 0
2, 147442, Note_on_c, 0, 79, 88
2, 147518, Note_on_c, 0, 55, 0
2, 147534, Note_on_c, 0, 79, 0
2, 147562, Note_on_c, 0, 60, 0
2, 147574, Note_on_c, 0, 59, 0
2, 147574, Note_on_c, 0, 76, 44
2, 147622, Note_on_c, 0, 76, 0
2, 147706, Note_on_c, 0, 79, 107
2, 147710, Note_on_c, 0, 60, 51
2, 147710, Note_on_c, 0, 64, 47
2, 147714, Note_on_c, 0, 59, 48
2, 147722, Note_on_c, 0, 55, 50
2, 147798, Note_on_c, 0, 64, 0
2, 147798, Note_on_c, 0, 79, 0
2, 147862, Note_on_c, 0, 76, 61
2, 147874, Note_on_c, 0, 55, 0
2, 147910, Note_on_c, 0, 60, 0
2, 147914, Note_on_c, 0, 59, 0
2, 147930, Note_on_c, 0, 76, 0
2, 147978, Note_on_c, 0, 72, 72
2, 147994, Note_on_c, 0, 79, 43
2, 148026, Note_on_c, 0, 79, 0
2, 148074, Note_on_c, 0, 72, 0
2, 148102, Note_on_c, 0, 69, 65
2, 148122, Note_on_c, 0, 64, 39
2, 148126, Note_on_c, 0, 60, 42
2, 148130, Note_on_c, 0, 59, 38
2, 148134, Note_on_c, 0, 55, 38
2, 148166, Note_on_c, 0, 69, 0
2, 148174, Note_on_c, 0, 64, 0
2, 148210, Note_on_c, 0, 60, 0
2, 148242, Note_on_c, 0, 59, 0
2, 148250, Note_on_c, 0, 67, 35
2, 148290, Note_on_c, 0, 55, 0
2, 148302, Note_on_c, 0, 67, 0
2, 148442, Note_on_c, 0, 60, 46
2, 148462, Note_on_c, 0, 52, 46
2, 148478, Note_on_c, 0, 60, 0
2, 148554, Note_on_c, 0, 52, 0
2, 148574, Note_on_c, 0, 67, 71
2, 148582, Note_on_c, 0, 60, 60
2, 148590, Note_on_c, 0, 57, 52
2, 148590, Note_on_c, 0, 55, 66
2, 148654, Note_on_c, 0, 67, 0
2, 148678, Note_on_c, 0, 60, 0
2, 148678, Note_on_c, 0, 57, 0
2, 148706, Note_on_c, 0, 55, 0
2, 148706, Note_on_c, 0, 54, 57
2, 148726, Note_on_c, 0, 66, 58
2, 148746, Note_on_c, 0, 60, 25
2, 148786, Note_on_c, 0, 60, 0
2, 148794, Note_on_c, 0, 66, 0
2, 148814, Note_on_c, 0, 54, 0
2, 148850, Note_on_c, 0, 53, 49
2, 148858, Note_on_c, 0, 60, 57
2, 148862, Note_on_c, 0, 65, 65
2, 148874, Note_on_c, 0, 57, 46
2, 149358, Control_c, 0, 64, 127
2, 149462, Note_on_c, 0, 57, 0
2, 149486, Note_on_c, 0, 60, 0
2, 149510, Note_on_c, 0, 65, 0
2, 149562, Note_on_c, 0, 53, 0
2, 149562, Control_c, 0, 64, 0
2, 149590, Note_on_c, 0, 64, 56
2, 149594, Note_on_c, 0, 52, 50
2, 149690, Note_on_c, 0, 64, 0
2, 149714, Note_on_c, 0, 52, 0
2, 149730, Control_c, 0, 64, 127
2, 149746, Note_on_c, 0, 53, 46
2, 149762, Note_on_c, 0, 65, 48
2, 149778, Note_on_c, 0, 53, 0
2, 149790, Note_on_c, 0, 65, 0
2, 150002, Note_on_c, 0, 62, 52
2, 150050, Control_c, 0, 64, 0
2, 150126, Note_on_c, 0, 62, 0
2, 150158, Note_on_c, 0, 65, 55
2, 150158, Note_on_c, 0, 76, 63
2, 150158, Note_on_c, 0, 64, 56
2, 150178, Note_on_c, 0, 69, 48
2, 150246, Control_c, 0, 64, 127
2, 150330, Note_on_c, 0, 76, 0
2, 150330, Note_on_c, 0, 65, 0
2, 150342, Note_on_c, 0, 69, 0
2, 150370, Note_on_c, 0, 64, 0
2, 150410, Control_c, 0, 64, 0
2, 150514, Note_on_c, 0, 76, 58
2, 150518, Note_on_c, 0, 64, 50
2, 150522, Note_on_c, 0, 65, 44
2, 150526, Note_on_c, 0, 69, 49
2, 150534, Note_on_c, 0, 71, 43
2, 150722, Note_on_c, 0, 71, 0
2, 150722, Note_on_c, 0, 65, 0
2, 150722, Note_on_c, 0, 69, 0
2, 150734, Note_on_c, 0, 76, 0
2, 150750, Note_on_c, 0, 64, 0
2, 150782, Note_on_c, 0, 62, 45
2, 150862, Control_c, 0, 64, 127
2, 150866, Note_on_c, 0, 62, 0
2, 150886, Note_on_c, 0, 76, 56
2, 150886, Note_on_c, 0, 65, 51
2, 150894, Note_on_c, 0, 69, 52
2, 150898, Note_on_c, 0, 64, 57
2, 150906, Note_on_c, 0, 71, 43
2, 150994, Note_on_c, 0, 65, 0
2, 150998, Note_on_c, 0, 71, 0
2, 151022, Note_on_c, 0, 76, 0
2, 151022, Note_on_c, 0, 64, 0
2, 151034, Note_on_c, 0, 69, 0
2, 151138, Note_on_c, 0, 64, 61
2, 151146, Note_on_c, 0, 77, 76
2, 151178, Control_c, 0, 64, 0
2, 151210, Note_on_c, 0, 64, 0
2, 151214, Note_on_c, 0, 77, 0
2, 151522, Note_on_c, 0, 76, 81
2, 151526, Note_on_c, 0, 72, 73
2, 151530, Note_on_c, 0, 56, 74
2, 151530, Note_on_c, 0, 67, 63
2, 151534, Note_on_c, 0, 62, 73
2, 151554, Note_on_c, 0, 69, 38
2, 151590, Note_on_c, 0, 69, 0
2, 151614, Note_on_c, 0, 67, 0
2, 151614, Note_on_c, 0, 62, 0
2, 151638, Note_on_c, 0, 72, 0
2, 151638, Note_on_c, 0, 56, 0
2, 151650, Note_on_c, 0, 76, 0
2, 151902, Note_on_c, 0, 74, 74
2, 151906, Note_on_c, 0, 68, 69
2, 151910, Note_on_c, 0, 65, 68
2, 151918, Note_on_c, 0, 71, 57
2, 151918, Note_on_c, 0, 56, 65
2, 151922, Note_on_c, 0, 62, 66
2, 152042, Control_c, 0, 64, 127
2, 152262, Note_on_c, 0, 65, 0
2, 152470, Note_on_c, 0, 68, 0
2, 152478, Note_on_c, 0, 71, 0
2, 152486, Note_on_c, 0, 56, 0
2, 152530, Note_on_c, 0, 62, 0
2, 152546, Note_on_c, 0, 74, 0
2, 152686, Note_on_c, 0, 56, 57
2, 152694, Note_on_c, 0, 62, 57
2, 152694, Note_on_c, 0, 67, 45
2, 152834, Note_on_c, 0, 62, 0
2, 152842, Note_on_c, 0, 67, 0
2, 152966, Note_on_c, 0, 56, 0
2, 153058, Note_on_c, 0, 55, 56
2, 153058, Note_on_c, 0, 86, 115
2, 153062, Note_on_c, 0, 64, 55
2, 153070, Note_on_c, 0, 60, 55
2, 153070, Control_c, 0, 64, 0
2, 153070, Note_on_c, 0, 59, 56
2, 153230, Note_on_c, 0, 86, 0
2, 153294, Note_on_c, 0, 81, 41
2, 153326, Note_on_c, 0, 82, 56
2, 153390, Note_on_c, 0, 81, 0
2, 153414, Note_on_c, 0, 82, 0
2, 153418, Note_on_c, 0, 83, 49
2, 153466, Note_on_c, 0, 83, 0
2, 153526, Note_on_c, 0, 64, 0
2, 153546, Note_on_c, 0, 59, 0
2, 153546, Note_on_c, 0, 60, 0
2, 153554, Control_c, 0, 64, 127
2, 153574, Note_on_c, 0, 55, 0
2, 153586, Note_on_c, 0, 81, 57
2, 153818, Control_c, 0, 64, 0
2, 153838, Note_on_c, 0, 81, 0
2, 153842, Note_on_c, 0, 50, 38
2, 153842, Note_on_c, 0, 53, 43
2, 153850, Note_on_c, 0, 60, 33
2, 153850, Note_on_c, 0, 79, 63
2, 153858, Note_on_c, 0, 57, 39
2, 153938, Note_on_c, 0, 79, 0
2, 154082, Note_on_c, 0, 76, 55
2, 154214, Control_c, 0, 64, 127
2, 154290, Note_on_c, 0, 53, 0
2, 154294, Note_on_c, 0, 57, 0
2, 154294, Note_on_c, 0, 50, 0
2, 154306, Note_on_c, 0, 76, 0
2, 154350, Note_on_c, 0, 60, 0
2, 154354, Note_on_c, 0, 79, 57
2, 154546, Note_on_c, 0, 79, 0
2, 154554, Control_c, 0, 64, 0
2, 154610, Note_on_c, 0, 77, 63
2, 154614, Note_on_c, 0, 62, 36
2, 154614, Note_on_c, 0, 58, 42
2, 154622, Note_on_c, 0, 53, 32
2, 154626, Note_on_c, 0, 57, 43
2, 154822, Note_on_c, 0, 77, 0
2, 154882, Note_on_c, 0, 74, 60
2, 154994, Note_on_c, 0, 74, 0
2, 155126, Note_on_c, 0, 67, 57
2, 155138, Control_c, 0, 64, 127
2, 155330, Note_on_c, 0, 53, 0
2, 155362, Note_on_c, 0, 57, 0
2, 155370, Note_on_c, 0, 58, 0
2, 155406, Note_on_c, 0, 62, 0
2, 155622, Note_on_c, 0, 67, 0
2, 156122, Note_on_c, 0, 58, 61
2, 156130, Note_on_c, 0, 73, 65
2, 156134, Note_on_c, 0, 68, 72
2, 156138, Note_on_c, 0, 64, 58
2, 156218, Note_on_c, 0, 73, 0
2, 156226, Control_c, 0, 64, 0
2, 156230, Note_on_c, 0, 64, 0
2, 156258, Note_on_c, 0, 68, 0
2, 156262, Note_on_c, 0, 58, 0
2, 156306, Note_on_c, 0, 57, 52
2, 156306, Note_on_c, 0, 72, 58
2, 156322, Note_on_c, 0, 67, 45
2, 156326, Note_on_c, 0, 62, 27
2, 156558, Note_on_c, 0, 62, 0
2, 156586, Note_on_c, 0, 67, 0
2, 156586, Note_on_c, 0, 72, 0
2, 156590, Note_on_c, 0, 57, 0
2, 156670, Note_on_c, 0, 56, 48
2, 156670, Note_on_c, 0, 71, 52
2, 156674, Note_on_c, 0, 62, 30
2, 156830, Note_on_c, 0, 62, 0
2, 156886, Note_on_c, 0, 71, 0
2, 156918, Note_on_c, 0, 56, 0
2, 156938, Note_on_c, 0, 72, 54
2, 156942, Note_on_c, 0, 62, 39
2, 156950, Note_on_c, 0, 57, 44
2, 156950, Note_on_c, 0, 67, 48
2, 156958, Control_c, 0, 64, 127
2, 157202, Note_on_c, 0, 62, 0
2, 157218, Note_on_c, 0, 67, 0
2, 157274, Note_on_c, 0, 72, 0
2, 157446, Note_on_c, 0, 57, 0
2, 157954, Note_on_c, 0, 60, 64
2, 158030, Note_on_c, 0, 60, 0
2, 158066, Note_on_c, 0, 62, 64
2, 158090, Control_c, 0, 64, 0
2, 158162, Note_on_c, 0, 62, 0
2, 158206, Note_on_c, 0, 62, 68
2, 158306, Note_on_c, 0, 62, 0
2, 158322, Note_on_c, 0, 64, 63
2, 158414, Note_on_c, 0, 64, 0
2, 158458, Note_on_c, 0, 64, 84
2, 158466, Note_on_c, 0, 62, 49
2, 158474, Note_on_c, 0, 57, 49
2, 158478, Note_on_c, 0, 58, 48
2, 158522, Note_on_c, 0, 62, 0
2, 158554, Note_on_c, 0, 58, 0
2, 158562, Note_on_c, 0, 64, 0
2, 158566, Note_on_c, 0, 57, 0
2, 158578, Note_on_c, 0, 65, 55
2, 158678, Note_on_c, 0, 65, 0
2, 158722, Note_on_c, 0, 65, 68
2, 158806, Note_on_c, 0, 65, 0
2, 158842, Note_on_c, 0, 65, 63
2, 158870, Note_on_c, 0, 58, 57
2, 158870, Note_on_c, 0, 62, 56
2, 158914, Note_on_c, 0, 65, 0
2, 158926, Note_on_c, 0, 62, 0
2, 158962, Note_on_c, 0, 58, 0
2, 158994, Note_on_c, 0, 67, 81
2, 159054, Note_on_c, 0, 67, 0
2, 159122, Note_on_c, 0, 69, 68
2, 159194, Note_on_c, 0, 69, 0
2, 159246, Note_on_c, 0, 69, 75
2, 159282, Note_on_c, 0, 64, 52
2, 159282, Note_on_c, 0, 60, 48
2, 159302, Note_on_c, 0, 57, 38
2, 159310, Note_on_c, 0, 64, 0
2, 159322, Note_on_c, 0, 69, 0
2, 159354, Note_on_c, 0, 60, 0
2, 159370, Note_on_c, 0, 70, 69
2, 159386, Note_on_c, 0, 57, 0
2, 159466, Note_on_c, 0, 70, 0
2, 159502, Note_on_c, 0, 70, 82
2, 159562, Note_on_c, 0, 70, 0
2, 159630, Note_on_c, 0, 72, 73
2, 159710, Note_on_c, 0, 72, 0
2, 159786, Note_on_c, 0, 72, 81
2, 159946, Note_on_c, 0, 72, 0
2, 160002, Note_on_c, 0, 74, 92
2, 160002, Note_on_c, 0, 67, 63
2, 160018, Note_on_c, 0, 57, 48
2, 160018, Note_on_c, 0, 62, 57
2, 160122, Note_on_c, 0, 67, 0
2, 160142, Note_on_c, 0, 57, 0
2, 160150, Note_on_c, 0, 74, 0
2, 160162, Note_on_c, 0, 62, 0
2, 160194, Note_on_c, 0, 72, 55
2, 160382, Note_on_c, 0, 72, 0
2, 160382, Note_on_c, 0, 57, 49
2, 160386, Note_on_c, 0, 69, 55
2, 160386, Note_on_c, 0, 67, 43
2, 160394, Note_on_c, 0, 62, 50
2, 160438, Note_on_c, 0, 67, 0
2, 160466, Note_on_c, 0, 62, 0
2, 160486, Note_on_c, 0, 57, 0
2, 160554, Control_c, 0, 64, 127
2, 160818, Control_c, 0, 64, 0
2, 160878, Note_on_c, 0, 65, 39
2, 160882, Note_on_c, 0, 61, 45
2, 160890, Note_on_c, 0, 55, 39
2, 160894, Note_on_c, 0, 60, 48
2, 161238, Control_c, 0, 64, 127
2, 161374, Note_on_c, 0, 60, 0
2, 161386, Note_on_c, 0, 65, 0
2, 161394, Note_on_c, 0, 55, 0
2, 161402, Note_on_c, 0, 61, 0
2, 161530, Note_on_c, 0, 65, 38
2, 161534, Note_on_c, 0, 69, 0
2, 161542, Note_on_c, 0, 61, 42
2, 161550, Note_on_c, 0, 60, 42
2, 161550, Note_on_c, 0, 55, 31
2, 161554, Control_c, 0, 64, 72
2, 161558, Control_c, 0, 64, 0
2, 161882, Note_on_c, 0, 67, 56
2, 161918, Note_on_c, 0, 67, 0
2, 162010, Note_on_c, 0, 72, 67
2, 162086, Note_on_c, 0, 72, 0
2, 162114, Note_on_c, 0, 65, 0
2, 162142, Note_on_c, 0, 60, 0
2, 162142, Note_on_c, 0, 73, 81
2, 162166, Note_on_c, 0, 55, 0
2, 162178, Note_on_c, 0, 61, 0
2, 162226, Note_on_c, 0, 73, 0
2, 162274, Note_on_c, 0, 75, 96
2, 162310, Note_on_c, 0, 74, 79
2, 162342, Note_on_c, 0, 75, 0
2, 162382, Note_on_c, 0, 54, 36
2, 162390, Note_on_c, 0, 64, 30
2, 162394, Note_on_c, 0, 60, 49
2, 162578, Note_on_c, 0, 60, 0
2, 162626, Note_on_c, 0, 74, 0
2, 162666, Note_on_c, 0, 72, 69
2, 162690, Note_on_c, 0, 60, 29
2, 162734, Note_on_c, 0, 64, 0
2, 162774, Note_on_c, 0, 72, 0
2, 162786, Note_on_c, 0, 60, 0
2, 162818, Note_on_c, 0, 70, 42
2, 162910, Note_on_c, 0, 54, 0
2, 163006, Note_on_c, 0, 70, 0
2, 163050, Note_on_c, 0, 69, 76
2, 163070, Note_on_c, 0, 60, 34
2, 163126, Note_on_c, 0, 60, 0
2, 163170, Note_on_c, 0, 69, 0
2, 163230, Note_on_c, 0, 70, 57
2, 163402, Note_on_c, 0, 70, 0
2, 163458, Note_on_c, 0, 65, 36
2, 163494, Note_on_c, 0, 65, 0
2, 163798, Note_on_c, 0, 54, 45
2, 163802, Note_on_c, 0, 64, 44
2, 163810, Note_on_c, 0, 60, 48
2, 163866, Note_on_c, 0, 64, 0
2, 163874, Note_on_c, 0, 60, 0
2, 163894, Note_on_c, 0, 54, 0
2, 163958, Control_c, 0, 64, 127
2, 164182, Control_c, 0, 64, 0
2, 164198, Note_on_c, 0, 55, 54
2, 164202, Note_on_c, 0, 60, 60
2, 164234, Note_on_c, 0, 60, 0
2, 164282, Note_on_c, 0, 55, 0
2, 164362, Note_on_c, 0, 89, 87
2, 164422, Note_on_c, 0, 89, 0
2, 164434, Note_on_c, 0, 90, 69
2, 164506, Note_on_c, 0, 89, 63
2, 164526, Note_on_c, 0, 90, 0
2, 164554, Note_on_c, 0, 89, 0
2, 164574, Note_on_c, 0, 88, 48
2, 164598, Note_on_c, 0, 88, 0
2, 164638, Note_on_c, 0, 87, 69
2, 164718, Note_on_c, 0, 87, 0
2, 164730, Note_on_c, 0, 84, 58
2, 164750, Note_on_c, 0, 83, 26
2, 164754, Note_on_c, 0, 84, 0
2, 164778, Note_on_c, 0, 83, 0
2, 164790, Note_on_c, 0, 81, 69
2, 164834, Note_on_c, 0, 81, 0
2, 164878, Note_on_c, 0, 78, 68
2, 164938, Note_on_c, 0, 78, 0
2, 164946, Note_on_c, 0, 77, 57
2, 165006, Note_on_c, 0, 77, 0
2, 165014, Note_on_c, 0, 76, 63
2, 165058, Note_on_c, 0, 54, 45
2, 165062, Note_on_c, 0, 76, 0
2, 165074, Note_on_c, 0, 60, 39
2, 165086, Note_on_c, 0, 64, 21
2, 165090, Note_on_c, 0, 75, 63
2, 165110, Note_on_c, 0, 60, 0
2, 165118, Note_on_c, 0, 64, 0
2, 165178, Note_on_c, 0, 72, 68
2, 165190, Note_on_c, 0, 75, 0
2, 165218, Note_on_c, 0, 54, 0
2, 165242, Note_on_c, 0, 72, 0
2, 165262, Note_on_c, 0, 69, 50
2, 165298, Note_on_c, 0, 69, 0
2, 165370, Note_on_c, 0, 66, 39
2, 165458, Note_on_c, 0, 66, 0
2, 165474, Note_on_c, 0, 58, 38
2, 165482, Note_on_c, 0, 62, 25
2, 165506, Note_on_c, 0, 53, 37
2, 165514, Note_on_c, 0, 57, 23
2, 165698, Note_on_c, 0, 58, 0
2, 165702, Note_on_c, 0, 62, 0
2, 165734, Note_on_c, 0, 65, 90
2, 165790, Note_on_c, 0, 58, 32
2, 165846, Note_on_c, 0, 58, 0
2, 165858, Note_on_c, 0, 53, 0
2, 165930, Note_on_c, 0, 57, 0
2, 165930, Note_on_c, 0, 64, 50
2, 165962, Note_on_c, 0, 65, 0
2, 165994, Note_on_c, 0, 63, 55
2, 166006, Note_on_c, 0, 64, 0
2, 166090, Note_on_c, 0, 62, 54
2, 166094, Note_on_c, 0, 63, 0
2, 166126, Note_on_c, 0, 53, 33
2, 166154, Note_on_c, 0, 62, 0
2, 166162, Note_on_c, 0, 53, 0
2, 166206, Note_on_c, 0, 58, 57
2, 166346, Note_on_c, 0, 58, 0
2, 166350, Note_on_c, 0, 57, 53
2, 166422, Note_on_c, 0, 57, 0
2, 166474, Note_on_c, 0, 60, 71
2, 166570, Note_on_c, 0, 60, 0
2, 166602, Note_on_c, 0, 57, 46
2, 166658, Note_on_c, 0, 57, 0
2, 166698, Note_on_c, 0, 58, 49
2, 166778, Note_on_c, 0, 58, 0
2, 166830, Note_on_c, 0, 62, 60
2, 166894, Note_on_c, 0, 62, 0
2, 166930, Note_on_c, 0, 66, 68
2, 167018, Note_on_c, 0, 66, 0
2, 167046, Note_on_c, 0, 69, 72
2, 167146, Note_on_c, 0, 69, 0
2, 167174, Note_on_c, 0, 66, 52
2, 167250, Note_on_c, 0, 66, 0
2, 167286, Note_on_c, 0, 67, 63
2, 167290, Note_on_c, 0, 58, 51
2, 167290, Note_on_c, 0, 62, 44
2, 167362, Note_on_c, 0, 62, 0
2, 167366, Note_on_c, 0, 67, 0
2, 167382, Note_on_c, 0, 58, 0
2, 167410, Note_on_c, 0, 69, 57
2, 167502, Note_on_c, 0, 69, 0
2, 167534, Note_on_c, 0, 70, 63
2, 167598, Note_on_c, 0, 70, 0
2, 167646, Note_on_c, 0, 74, 76
2, 167718, Note_on_c, 0, 58, 33
2, 167754, Note_on_c, 0, 74, 0
2, 167770, Note_on_c, 0, 78, 68
2, 167774, Note_on_c, 0, 58, 0
2, 167858, Note_on_c, 0, 78, 0
2, 167898, Note_on_c, 0, 81, 80
2, 167970, Note_on_c, 0, 81, 0
2, 168022, Note_on_c, 0, 82, 92
2, 168026, Note_on_c, 0, 62, 58
2, 168034, Note_on_c, 0, 58, 55
2, 168034, Note_on_c, 0, 57, 60
2, 168114, Note_on_c, 0, 82, 0
2, 168122, Note_on_c, 0, 62, 0
2, 168142, Note_on_c, 0, 58, 0
2, 168162, Note_on_c, 0, 83, 84
2, 168186, Control_c, 0, 64, 127
2, 168190, Note_on_c, 0, 58, 40
2, 168190, Note_on_c, 0, 62, 54
2, 168270, Note_on_c, 0, 62, 0
2, 168294, Note_on_c, 0, 83, 0
2, 168318, Note_on_c, 0, 57, 0
2, 168334, Note_on_c, 0, 58, 0
2, 168414, Note_on_c, 0, 84, 72
2, 168414, Note_on_c, 0, 86, 79
2, 168418, Note_on_c, 0, 72, 63
2, 168422, Note_on_c, 0, 74, 71
2, 168430, Note_on_c, 0, 65, 73
2, 168434, Note_on_c, 0, 60, 60
2, 168438, Note_on_c, 0, 56, 58
2, 168470, Note_on_c, 0, 86, 0
2, 168486, Note_on_c, 0, 74, 0
2, 168486, Note_on_c, 0, 84, 0
2, 168506, Note_on_c, 0, 72, 0
2, 168526, Control_c, 0, 64, 0
2, 168534, Note_on_c, 0, 56, 0
2, 168534, Note_on_c, 0, 65, 0
2, 168538, Note_on_c, 0, 60, 0
2, 168578, Note_on_c, 0, 56, 44
2, 168582, Note_on_c, 0, 73, 68
2, 168582, Note_on_c, 0, 85, 81
2, 168582, Note_on_c, 0, 65, 46
2, 168582, Note_on_c, 0, 60, 38
2, 168594, Note_on_c, 0, 61, 40
2, 168642, Control_c, 0, 64, 127
2, 168718, Note_on_c, 0, 73, 0
2, 168722, Note_on_c, 0, 85, 0
2, 168730, Note_on_c, 0, 65, 0
2, 168742, Note_on_c, 0, 56, 0
2, 168750, Note_on_c, 0, 60, 0
2, 168758, Note_on_c, 0, 61, 0
2, 168818, Note_on_c, 0, 87, 82
2, 168822, Note_on_c, 0, 65, 63
2, 168822, Note_on_c, 0, 56, 52
2, 168822, Note_on_c, 0, 75, 65
2, 168822, Note_on_c, 0, 61, 49
2, 168826, Note_on_c, 0, 82, 67
2, 168830, Note_on_c, 0, 60, 46
2, 168898, Note_on_c, 0, 87, 0
2, 168902, Note_on_c, 0, 75, 0
2, 168918, Note_on_c, 0, 65, 0
2, 168922, Note_on_c, 0, 56, 0
2, 168930, Note_on_c, 0, 60, 0
2, 168938, Note_on_c, 0, 82, 0
2, 168950, Note_on_c, 0, 61, 0
2, 168966, Control_c, 0, 64, 0
2, 168990, Note_on_c, 0, 85, 52
2, 168994, Note_on_c, 0, 65, 41
2, 168994, Note_on_c, 0, 56, 41
2, 168998, Note_on_c, 0, 73, 45
2, 169014, Note_on_c, 0, 61, 46
2, 169030, Note_on_c, 0, 60, 39
2, 169038, Control_c, 0, 64, 127
2, 169086, Note_on_c, 0, 85, 0
2, 169094, Note_on_c, 0, 73, 0
2, 169094, Note_on_c, 0, 56, 0
2, 169098, Note_on_c, 0, 65, 0
2, 169118, Note_on_c, 0, 60, 0
2, 169126, Note_on_c, 0, 61, 0
2, 169214, Note_on_c, 0, 75, 63
2, 169214, Note_on_c, 0, 87, 67
2, 169218, Note_on_c, 0, 65, 57
2, 169230, Note_on_c, 0, 82, 57
2, 169230, Note_on_c, 0, 56, 45
2, 169230, Note_on_c, 0, 61, 47
2, 169234, Note_on_c, 0, 60, 44
2, 169294, Note_on_c, 0, 65, 0
2, 169298, Note_on_c, 0, 56, 0
2, 169302, Note_on_c, 0, 87, 0
2, 169314, Note_on_c, 0, 75, 0
2, 169318, Note_on_c, 0, 60, 0
2, 169322, Note_on_c, 0, 82, 0
2, 169334, Note_on_c, 0, 61, 0
2, 169354, Control_c, 0, 64, 0
2, 169410, Note_on_c, 0, 89, 72
2, 169414, Note_on_c, 0, 65, 58
2, 169414, Note_on_c, 0, 61, 40
2, 169418, Note_on_c, 0, 77, 57
2, 169422, Note_on_c, 0, 60, 40
2, 169422, Note_on_c, 0, 56, 43
2, 169546, Note_on_c, 0, 89, 0
2, 169590, Note_on_c, 0, 65, 0
2, 169590, Note_on_c, 0, 56, 0
2, 169594, Note_on_c, 0, 77, 0
2, 169594, Note_on_c, 0, 60, 0
2, 169594, Note_on_c, 0, 61, 0
2, 169658, Control_c, 0, 64, 127
2, 169754, Note_on_c, 0, 65, 56
2, 169762, Note_on_c, 0, 75, 53
2, 169762, Note_on_c, 0, 56, 50
2, 169762, Note_on_c, 0, 61, 50
2, 169770, Note_on_c, 0, 60, 49
2, 169770, Note_on_c, 0, 82, 45
2, 169770, Note_on_c, 0, 87, 51
2, 169930, Note_on_c, 0, 65, 0
2, 169942, Note_on_c, 0, 82, 0
2, 169954, Note_on_c, 0, 87, 0
2, 169962, Note_on_c, 0, 75, 0
2, 169990, Note_on_c, 0, 56, 0
2, 169994, Note_on_c, 0, 60, 0
2, 170002, Note_on_c, 0, 61, 0
2, 170038, Control_c, 0, 64, 0
2, 170130, Note_on_c, 0, 60, 38
2, 170138, Note_on_c, 0, 65, 52
2, 170138, Note_on_c, 0, 85, 61
2, 170138, Note_on_c, 0, 61, 41
2, 170142, Note_on_c, 0, 73, 48
2, 170154, Control_c, 0, 64, 127
2, 170162, Note_on_c, 0, 55, 36
2, 170166, Note_on_c, 0, 80, 48
2, 170190, Note_on_c, 0, 58, 22
2, 170302, Note_on_c, 0, 55, 0
2, 170314, Note_on_c, 0, 65, 0
2, 170338, Note_on_c, 0, 58, 0
2, 170362, Note_on_c, 0, 61, 0
2, 170374, Note_on_c, 0, 60, 0
2, 170398, Note_on_c, 0, 80, 0
2, 170402, Note_on_c, 0, 73, 0
2, 170406, Note_on_c, 0, 85, 0
2, 170462, Control_c, 0, 64, 0
2, 170506, Note_on_c, 0, 60, 48
2, 170510, Note_on_c, 0, 61, 47
2, 170514, Note_on_c, 0, 84, 53
2, 170522, Note_on_c, 0, 65, 42
2, 170522, Note_on_c, 0, 72, 47
2, 170530, Note_on_c, 0, 55, 43
2, 170550, Note_on_c, 0, 58, 32
2, 170558, Control_c, 0, 64, 127
2, 170562, Note_on_c, 0, 79, 23
2, 170606, Note_on_c, 0, 84, 0
2, 170622, Note_on_c, 0, 79, 0
2, 170626, Note_on_c, 0, 65, 0
2, 170654, Note_on_c, 0, 61, 0
2, 170658, Note_on_c, 0, 72, 0
2, 170670, Note_on_c, 0, 55, 0
2, 170682, Note_on_c, 0, 60, 0
2, 170686, Note_on_c, 0, 58, 0
2, 170730, Control_c, 0, 64, 0
2, 170774, Note_on_c, 0, 82, 64
2, 170782, Note_on_c, 0, 61, 50
2, 170786, Note_on_c, 0, 64, 50
2, 170786, Note_on_c, 0, 70, 55
2, 170794, Note_on_c, 0, 55, 48
2, 170834, Note_on_c, 0, 70, 0
2, 170858, Control_c, 0, 64, 127
2, 170866, Note_on_c, 0, 64, 0
2, 170866, Note_on_c, 0, 82, 0
2, 170882, Note_on_c, 0, 55, 0
2, 170890, Note_on_c, 0, 61, 0
2, 171106, Control_c, 0, 64, 0
2, 171134, Note_on_c, 0, 61, 55
2, 171138, Note_on_c, 0, 80, 68
2, 171142, Note_on_c, 0, 55, 57
2, 171146, Note_on_c, 0, 68, 57
2, 171146, Note_on_c, 0, 75, 61
2, 171146, Note_on_c, 0, 64, 51
2, 171206, Control_c, 0, 64, 127
2, 171218, Note_on_c, 0, 64, 0
2, 171222, Note_on_c, 0, 68, 0
2, 171234, Note_on_c, 0, 80, 0
2, 171238, Note_on_c, 0, 75, 0
2, 171254, Note_on_c, 0, 55, 0
2, 171270, Note_on_c, 0, 61, 0
2, 171442, Control_c, 0, 64, 0
2, 171502, Note_on_c, 0, 79, 74
2, 171506, Note_on_c, 0, 64, 59
2, 171510, Note_on_c, 0, 76, 59
2, 171510, Note_on_c, 0, 72, 62
2, 171514, Note_on_c, 0, 60, 55
2, 171514, Note_on_c, 0, 55, 48
2, 171514, Note_on_c, 0, 67, 60
2, 171526, Note_on_c, 0, 57, 50
2, 171606, Control_c, 0, 64, 127
2, 171642, Note_on_c, 0, 67, 0
2, 171646, Note_on_c, 0, 76, 0
2, 171650, Note_on_c, 0, 79, 0
2, 171670, Note_on_c, 0, 60, 0
2, 171710, Note_on_c, 0, 72, 0
2, 171710, Note_on_c, 0, 64, 0
2, 171722, Note_on_c, 0, 57, 0
2, 171726, Note_on_c, 0, 55, 0
2, 171878, Note_on_c, 0, 79, 81
2, 171882, Note_on_c, 0, 72, 74
2, 171886, Note_on_c, 0, 69, 76
2, 171886, Note_on_c, 0, 64, 75
2, 171890, Control_c, 0, 64, 0
2, 171894, Note_on_c, 0, 76, 55
2, 171922, Note_on_c, 0, 76, 0
2, 171958, Note_on_c, 0, 79, 0
2, 171970, Note_on_c, 0, 72, 0
2, 171974, Note_on_c, 0, 69, 0
2, 172038, Note_on_c, 0, 64, 0
2, 172054, Note_on_c, 0, 76, 67
2, 172054, Note_on_c, 0, 60, 58
2, 172058, Note_on_c, 0, 67, 54
2, 172062, Note_on_c, 0, 69, 49
2, 172074, Control_c, 0, 64, 127
2, 172078, Note_on_c, 0, 72, 52
2, 172238, Note_on_c, 0, 72, 0
2, 172246, Note_on_c, 0, 67, 0
2, 172262, Note_on_c, 0, 69, 0
2, 172282, Note_on_c, 0, 76, 0
2, 172318, Control_c, 0, 64, 0
2, 172366, Note_on_c, 0, 60, 0
2, 172394, Note_on_c, 0, 57, 51
2, 172394, Note_on_c, 0, 72, 56
2, 172402, Note_on_c, 0, 67, 46
2, 172414, Note_on_c, 0, 69, 42
2, 172426, Control_c, 0, 64, 127
2, 172554, Note_on_c, 0, 69, 0
2, 172558, Note_on_c, 0, 67, 0
2, 172558, Note_on_c, 0, 57, 0
2, 172630, Note_on_c, 0, 72, 0
2, 172646, Control_c, 0, 64, 0
2, 172654, Note_on_c, 0, 69, 68
2, 172666, Note_on_c, 0, 67, 57
2, 172666, Note_on_c, 0, 55, 39
2, 172694, Note_on_c, 0, 67, 0
2, 172702, Note_on_c, 0, 55, 0
2, 172710, Control_c, 0, 64, 127
2, 172714, Note_on_c, 0, 69, 0
2, 172974, Control_c, 0, 64, 0
2, 173006, Note_on_c, 0, 57, 56
2, 173006, Note_on_c, 0, 64, 63
2, 173006, Note_on_c, 0, 67, 61
2, 173014, Note_on_c, 0, 60, 56
2, 173022, Note_on_c, 0, 55, 48
2, 173026, Note_on_c, 0, 53, 43
2, 173098, Control_c, 0, 64, 127
2, 173242, Note_on_c, 0, 55, 0
2, 173250, Note_on_c, 0, 67, 0
2, 173254, Note_on_c, 0, 57, 0
2, 173266, Note_on_c, 0, 53, 0
2, 173274, Note_on_c, 0, 60, 0
2, 173274, Note_on_c, 0, 64, 0
2, 173730, Note_on_c, 0, 65, 67
2, 173750, Note_on_c, 0, 60, 59
2, 173758, Note_on_c, 0, 57, 43
2, 173762, Note_on_c, 0, 53, 57
2, 173786, Note_on_c, 0, 57, 0
2, 173786, Note_on_c, 0, 60, 0
2, 173798, Note_on_c, 0, 65, 0
2, 173842, Control_c, 0, 64, 0
2, 173930, Note_on_c, 0, 53, 0
2, 173946, Note_on_c, 0, 62, 52
2, 173946, Note_on_c, 0, 57, 63
2, 173946, Note_on_c, 0, 69, 61
2, 173958, Control_c, 0, 64, 127
2, 173970, Note_on_c, 0, 65, 42
2, 174002, Note_on_c, 0, 65, 0
2, 174010, Note_on_c, 0, 62, 0
2, 174034, Note_on_c, 0, 69, 0
2, 174054, Note_on_c, 0, 57, 0
2, 174454, Note_on_c, 0, 60, 43
2, 174486, Note_on_c, 0, 60, 0
2, 174510, Note_on_c, 0, 61, 57
2, 174542, Note_on_c, 0, 74, 78
2, 174542, Note_on_c, 0, 62, 63
2, 174542, Note_on_c, 0, 65, 74
2, 174542, Note_on_c, 0, 67, 68
2, 174542, Note_on_c, 0, 70, 64
2, 174586, Note_on_c, 0, 61, 0
2, 174634, Note_on_c, 0, 65, 0
2, 174658, Note_on_c, 0, 67, 0
2, 174670, Note_on_c, 0, 74, 0
2, 174670, Control_c, 0, 64, 0
2, 174682, Note_on_c, 0, 70, 0
2, 174734, Note_on_c, 0, 62, 0
2, 174778, Note_on_c, 0, 72, 56
2, 174786, Note_on_c, 0, 60, 46
2, 174802, Note_on_c, 0, 70, 37
2, 174806, Note_on_c, 0, 67, 41
2, 174806, Note_on_c, 0, 64, 33
2, 174850, Note_on_c, 0, 64, 0
2, 174894, Note_on_c, 0, 67, 0
2, 174918, Note_on_c, 0, 70, 0
2, 174938, Note_on_c, 0, 72, 0
2, 175010, Note_on_c, 0, 74, 63
2, 175014, Note_on_c, 0, 65, 50
2, 175018, Note_on_c, 0, 62, 60
2, 175018, Note_on_c, 0, 70, 49
2, 175022, Note_on_c, 0, 60, 0
2, 175022, Note_on_c, 0, 67, 52
2, 175042, Note_on_c, 0, 65, 0
2, 175050, Note_on_c, 0, 67, 0
2, 175062, Note_on_c, 0, 70, 0
2, 175074, Note_on_c, 0, 62, 0
2, 175074, Note_on_c, 0, 74, 0
2, 175350, Note_on_c, 0, 72, 58
2, 175362, Note_on_c, 0, 65, 48
2, 175366, Note_on_c, 0, 70, 52
2, 175378, Note_on_c, 0, 60, 47
2, 175386, Note_on_c, 0, 62, 36
2, 175474, Control_c, 0, 64, 127
2, 175698, Note_on_c, 0, 62, 0
2, 175726, Note_on_c, 0, 60, 0
2, 175766, Note_on_c, 0, 65, 0
2, 175830, Note_on_c, 0, 72, 0
2, 175838, Note_on_c, 0, 70, 0
2, 176198, Control_c, 0, 64, 0
2, 176234, Note_on_c, 0, 62, 26
2, 176234, Note_on_c, 0, 52, 43
2, 176234, Note_on_c, 0, 58, 41
2, 176238, Note_on_c, 0, 57, 44
2, 176606, Note_on_c, 0, 84, 120
2, 176770, Note_on_c, 0, 58, 0
2, 176798, Note_on_c, 0, 84, 0
2, 176870, Note_on_c, 0, 82, 84
2, 176882, Note_on_c, 0, 52, 0
2, 176918, Note_on_c, 0, 57, 0
2, 176946, Note_on_c, 0, 62, 0
2, 176990, Note_on_c, 0, 82, 0
2, 177074, Note_on_c, 0, 80, 50
2, 177114, Note_on_c, 0, 81, 63
2, 177166, Note_on_c, 0, 80, 0
2, 177214, Note_on_c, 0, 81, 0
2, 177242, Note_on_c, 0, 58, 45
2, 177246, Note_on_c, 0, 69, 34
2, 177270, Note_on_c, 0, 64, 29
2, 177278, Note_on_c, 0, 69, 0
2, 177302, Note_on_c, 0, 64, 0
2, 177302, Note_on_c, 0, 58, 0
2, 177630, Note_on_c, 0, 79, 66
2, 177646, Note_on_c, 0, 57, 37
2, 177654, Note_on_c, 0, 58, 36
2, 177662, Note_on_c, 0, 52, 44
2, 177662, Note_on_c, 0, 62, 32
2, 177678, Note_on_c, 0, 79, 0
2, 177866, Note_on_c, 0, 58, 0
2, 177894, Note_on_c, 0, 82, 63
2, 177906, Note_on_c, 0, 62, 0
2, 177982, Note_on_c, 0, 81, 63
2, 178002, Note_on_c, 0, 82, 0
2, 178062, Note_on_c, 0, 81, 0
2, 178066, Note_on_c, 0, 58, 39
2, 178074, Note_on_c, 0, 62, 27
2, 178086, Note_on_c, 0, 79, 60
2, 178090, Note_on_c, 0, 52, 0
2, 178110, Note_on_c, 0, 57, 0
2, 178110, Note_on_c, 0, 58, 0
2, 178150, Note_on_c, 0, 79, 0
2, 178162, Note_on_c, 0, 62, 0
2, 178178, Note_on_c, 0, 81, 63
2, 178262, Note_on_c, 0, 81, 0
2, 178286, Note_on_c, 0, 82, 65
2, 178362, Note_on_c, 0, 82, 0
2, 178402, Note_on_c, 0, 84, 73
2, 178486, Note_on_c, 0, 84, 0
2, 178494, Note_on_c, 0, 66, 39
2, 178502, Note_on_c, 0, 85, 71
2, 178506, Note_on_c, 0, 61, 43
2, 178510, Note_on_c, 0, 55, 35
2, 178574, Note_on_c, 0, 66, 0
2, 178578, Note_on_c, 0, 85, 0
2, 178642, Note_on_c, 0, 88, 68
2, 178710, Note_on_c, 0, 88, 0
2, 178770, Note_on_c, 0, 61, 0
2, 178786, Note_on_c, 0, 91, 86
2, 178850, Note_on_c, 0, 66, 49
2, 178878, Note_on_c, 0, 66, 0
2, 178878, Note_on_c, 0, 61, 39
2, 178882, Note_on_c, 0, 91, 0
2, 178926, Note_on_c, 0, 55, 0
2, 178942, Note_on_c, 0, 61, 0
2, 178954, Note_on_c, 0, 96, 111
2, 179050, Note_on_c, 0, 96, 0
2, 179090, Note_on_c, 0, 94, 81
2, 179186, Note_on_c, 0, 94, 0
2, 179206, Note_on_c, 0, 50, 40
2, 179206, Note_on_c, 0, 53, 47
2, 179210, Note_on_c, 0, 60, 36
2, 179218, Note_on_c, 0, 57, 51
2, 179226, Note_on_c, 0, 93, 75
2, 179314, Note_on_c, 0, 93, 0
2, 179362, Note_on_c, 0, 91, 75
2, 179442, Note_on_c, 0, 91, 0
2, 179442, Note_on_c, 0, 57, 0
2, 179442, Note_on_c, 0, 60, 0
2, 179498, Note_on_c, 0, 60, 16
2, 179498, Note_on_c, 0, 88, 61
2, 179506, Note_on_c, 0, 57, 18
2, 179594, Note_on_c, 0, 88, 0
2, 179614, Note_on_c, 0, 53, 0
2, 179614, Note_on_c, 0, 50, 0
2, 179618, Note_on_c, 0, 57, 0
2, 179634, Note_on_c, 0, 91, 80
2, 179642, Note_on_c, 0, 60, 0
2, 179722, Note_on_c, 0, 91, 0
2, 179782, Note_on_c, 0, 89, 83
2, 179866, Note_on_c, 0, 89, 0
2, 179934, Note_on_c, 0, 64, 43
2, 179934, Note_on_c, 0, 59, 50
2, 179938, Note_on_c, 0, 87, 78
2, 179942, Note_on_c, 0, 53, 39
2, 180042, Note_on_c, 0, 87, 0
2, 180090, Note_on_c, 0, 88, 68
2, 180154, Note_on_c, 0, 88, 0
2, 180230, Note_on_c, 0, 85, 57
2, 180306, Note_on_c, 0, 85, 0
2, 180354, Note_on_c, 0, 86, 68
2, 180442, Note_on_c, 0, 86, 0
2, 180458, Note_on_c, 0, 64, 0
2, 180466, Note_on_c, 0, 59, 0
2, 180494, Note_on_c, 0, 84, 60
2, 180526, Note_on_c, 0, 53, 0
2, 180714, Note_on_c, 0, 84, 0
2, 180714, Note_on_c, 0, 81, 58
2, 180722, Note_on_c, 0, 58, 48
2, 180730, Note_on_c, 0, 53, 39
2, 180738, Note_on_c, 0, 62, 37
2, 180742, Note_on_c, 0, 57, 46
2, 180778, Note_on_c, 0, 81, 0
2, 180894, Note_on_c, 0, 84, 58
2, 181050, Note_on_c, 0, 84, 0
2, 181106, Note_on_c, 0, 84, 71
2, 181210, Note_on_c, 0, 84, 0
2, 181262, Note_on_c, 0, 62, 0
2, 181274, Note_on_c, 0, 53, 0
2, 181282, Note_on_c, 0, 58, 0
2, 181282, Note_on_c, 0, 81, 58
2, 181306, Note_on_c, 0, 57, 0
2, 181354, Note_on_c, 0, 81, 0
2, 181470, Note_on_c, 0, 81, 75
2, 181506, Note_on_c, 0, 62, 39
2, 181506, Note_on_c, 0, 58, 39
2, 181542, Note_on_c, 0, 62, 0
2, 181550, Note_on_c, 0, 58, 0
2, 181554, Note_on_c, 0, 81, 0
2, 181630, Note_on_c, 0, 77, 75
2, 181682, Note_on_c, 0, 59, 39
2, 181702, Note_on_c, 0, 63, 24
2, 181738, Note_on_c, 0, 77, 0
2, 181746, Note_on_c, 0, 63, 0
2, 181750, Note_on_c, 0, 59, 0
2, 181846, Note_on_c, 0, 77, 82
2, 181898, Note_on_c, 0, 63, 57
2, 181898, Note_on_c, 0, 59, 55
2, 181906, Note_on_c, 0, 53, 55
2, 181938, Note_on_c, 0, 77, 0
2, 182014, Note_on_c, 0, 75, 59
2, 182018, Control_c, 0, 64, 127
2, 182094, Note_on_c, 0, 59, 0
2, 182130, Note_on_c, 0, 75, 0
2, 182146, Note_on_c, 0, 53, 0
2, 182170, Note_on_c, 0, 63, 0
2, 182222, Note_on_c, 0, 75, 68
2, 182302, Control_c, 0, 64, 0
2, 182334, Note_on_c, 0, 75, 0
2, 182354, Note_on_c, 0, 62, 46
2, 182362, Note_on_c, 0, 58, 44
2, 182378, Note_on_c, 0, 52, 33
2, 182378, Note_on_c, 0, 74, 61
2, 182422, Note_on_c, 0, 52, 0
2, 182450, Note_on_c, 0, 58, 0
2, 182458, Note_on_c, 0, 62, 0
2, 182470, Note_on_c, 0, 74, 0
2, 182618, Note_on_c, 0, 74, 66
2, 182622, Note_on_c, 0, 52, 51
2, 182626, Note_on_c, 0, 58, 49
2, 182634, Note_on_c, 0, 62, 32
2, 182670, Note_on_c, 0, 62, 0
2, 182710, Note_on_c, 0, 74, 0
2, 182722, Note_on_c, 0, 52, 0
2, 182754, Note_on_c, 0, 58, 0
2, 182798, Note_on_c, 0, 73, 57
2, 182806, Note_on_c, 0, 61, 33
2, 182810, Note_on_c, 0, 70, 36
2, 182878, Note_on_c, 0, 61, 0
2, 182886, Note_on_c, 0, 73, 0
2, 182890, Note_on_c, 0, 70, 0
2, 183002, Note_on_c, 0, 73, 59
2, 183002, Note_on_c, 0, 70, 63
2, 183006, Note_on_c, 0, 61, 57
2, 183014, Note_on_c, 0, 64, 56
2, 183030, Note_on_c, 0, 52, 44
2, 183038, Note_on_c, 0, 58, 40
2, 183082, Note_on_c, 0, 64, 0
2, 183082, Note_on_c, 0, 61, 0
2, 183098, Note_on_c, 0, 73, 0
2, 183098, Note_on_c, 0, 70, 0
2, 183110, Note_on_c, 0, 58, 0
2, 183170, Note_on_c, 0, 72, 51
2, 183178, Note_on_c, 0, 60, 49
2, 183186, Note_on_c, 0, 64, 37
2, 183214, Note_on_c, 0, 60, 0
2, 183226, Note_on_c, 0, 64, 0
2, 183246, Note_on_c, 0, 72, 0
2, 183282, Note_on_c, 0, 52, 0
2, 183386, Note_on_c, 0, 64, 68
2, 183390, Note_on_c, 0, 52, 30
2, 183394, Note_on_c, 0, 60, 60
2, 183398, Note_on_c, 0, 72, 46
2, 183398, Note_on_c, 0, 67, 61
2, 183414, Note_on_c, 0, 70, 42
2, 183430, Note_on_c, 0, 72, 0
2, 183438, Note_on_c, 0, 67, 0
2, 183442, Note_on_c, 0, 70, 0
2, 183450, Note_on_c, 0, 64, 0
2, 183454, Note_on_c, 0, 52, 0
2, 183458, Note_on_c, 0, 60, 0
2, 183526, Note_on_c, 0, 58, 56
2, 183534, Note_on_c, 0, 70, 46
2, 183550, Note_on_c, 0, 62, 40
2, 183582, Note_on_c, 0, 58, 0
2, 183590, Note_on_c, 0, 62, 0
2, 183622, Note_on_c, 0, 70, 0
2, 183702, Control_c, 0, 64, 127
2, 183762, Note_on_c, 0, 70, 69
2, 183766, Note_on_c, 0, 58, 60
2, 183782, Note_on_c, 0, 62, 63
2, 183838, Note_on_c, 0, 62, 0
2, 183838, Note_on_c, 0, 70, 0
2, 183838, Control_c, 0, 64, 0
2, 183854, Note_on_c, 0, 58, 0
2, 183930, Note_on_c, 0, 69, 54
2, 183930, Note_on_c, 0, 57, 50
2, 183934, Note_on_c, 0, 60, 47
2, 183950, Note_on_c, 0, 62, 41
2, 183986, Note_on_c, 0, 69, 0
2, 183998, Note_on_c, 0, 62, 0
2, 184046, Note_on_c, 0, 60, 0
2, 184122, Note_on_c, 0, 57, 0
2, 184162, Note_on_c, 0, 68, 54
2, 184166, Note_on_c, 0, 56, 54
2, 184178, Note_on_c, 0, 60, 50
2, 184194, Note_on_c, 0, 62, 41
2, 184214, Note_on_c, 0, 60, 0
2, 184226, Note_on_c, 0, 62, 0
2, 184242, Note_on_c, 0, 68, 0
2, 184290, Note_on_c, 0, 56, 0
2, 184322, Note_on_c, 0, 57, 48
2, 184422, Note_on_c, 0, 57, 0
2, 184530, Note_on_c, 0, 72, 72
2, 184542, Note_on_c, 0, 65, 58
2, 184550, Note_on_c, 0, 60, 59
2, 184558, Note_on_c, 0, 62, 31
2, 184566, Note_on_c, 0, 65, 0
2, 184590, Note_on_c, 0, 72, 0
2, 184590, Note_on_c, 0, 62, 0
2, 184674, Note_on_c, 0, 60, 0
2, 184698, Note_on_c, 0, 69, 49
2, 184698, Note_on_c, 0, 65, 53
2, 184706, Note_on_c, 0, 76, 54
2, 184706, Note_on_c, 0, 64, 48
2, 184726, Note_on_c, 0, 72, 48
2, 184774, Note_on_c, 0, 65, 0
2, 184778, Note_on_c, 0, 69, 0
2, 184794, Note_on_c, 0, 72, 0
2, 184818, Note_on_c, 0, 76, 0
2, 184826, Note_on_c, 0, 64, 0
2, 184882, Note_on_c, 0, 65, 51
2, 184926, Note_on_c, 0, 65, 0
2, 184926, Note_on_c, 0, 79, 83
2, 184926, Note_on_c, 0, 72, 75
2, 184926, Note_on_c, 0, 67, 75
2, 184934, Note_on_c, 0, 69, 72
2, 184934, Note_on_c, 0, 76, 66
2, 185002, Note_on_c, 0, 76, 0
2, 185010, Note_on_c, 0, 79, 0
2, 185030, Note_on_c, 0, 69, 0
2, 185034, Note_on_c, 0, 72, 0
2, 185058, Note_on_c, 0, 67, 0
2, 185086, Note_on_c, 0, 65, 49
2, 185098, Note_on_c, 0, 77, 64
2, 185098, Note_on_c, 0, 72, 56
2, 185098, Note_on_c, 0, 69, 50
2, 185178, Note_on_c, 0, 77, 0
2, 185190, Note_on_c, 0, 69, 0
2, 185202, Note_on_c, 0, 72, 0
2, 185210, Note_on_c, 0, 65, 0
2, 185322, Note_on_c, 0, 60, 68
2, 185326, Control_c, 0, 64, 127
2, 185358, Control_c, 0, 64, 0
2, 185390, Note_on_c, 0, 60, 0
2, 185470, Note_on_c, 0, 72, 68
2, 185474, Note_on_c, 0, 65, 71
2, 185478, Note_on_c, 0, 60, 62
2, 185486, Note_on_c, 0, 61, 51
2, 185494, Note_on_c, 0, 69, 46
2, 185802, Note_on_c, 0, 69, 0
2, 185814, Note_on_c, 0, 61, 0
2, 185822, Note_on_c, 0, 60, 0
2, 185830, Note_on_c, 0, 65, 0
2, 185846, Note_on_c, 0, 59, 35
2, 185858, Note_on_c, 0, 72, 0
2, 185866, Note_on_c, 0, 58, 75
2, 185882, Note_on_c, 0, 59, 0
2, 185922, Note_on_c, 0, 58, 0
2, 185942, Note_on_c, 0, 61, 61
2, 185950, Note_on_c, 0, 69, 66
2, 185954, Note_on_c, 0, 65, 58
2, 185962, Note_on_c, 0, 57, 75
2, 186250, Control_c, 0, 64, 127
2, 186638, Note_on_c, 0, 61, 0
2, 186650, Note_on_c, 0, 65, 0
2, 186706, Note_on_c, 0, 69, 0
2, 186754, Note_on_c, 0, 57, 0
2, 186862, Note_on_c, 0, 54, 48
2, 186878, Control_c, 0, 64, 0
2, 186954, Note_on_c, 0, 54, 0
2, 186974, Note_on_c, 0, 65, 54
2, 186982, Note_on_c, 0, 70, 56
2, 186982, Note_on_c, 0, 60, 48
2, 186982, Note_on_c, 0, 74, 57
2, 187222, Note_on_c, 0, 74, 0
2, 187234, Note_on_c, 0, 60, 0
2, 187242, Note_on_c, 0, 50, 68
2, 187258, Note_on_c, 0, 65, 0
2, 187258, Control_c, 0, 64, 127
2, 187278, Note_on_c, 0, 70, 0
2, 187314, Note_on_c, 0, 50, 0
2, 187314, Control_c, 0, 64, 0
2, 187470, Control_c, 0, 64, 127
2, 187634, Control_c, 0, 64, 0
2, 187650, Note_on_c, 0, 63, 68
2, 187650, Note_on_c, 0, 68, 61
2, 187650, Note_on_c, 0, 72, 64
2, 187650, Note_on_c, 0, 60, 54
2, 187662, Note_on_c, 0, 54, 46
2, 187870, Control_c, 0, 64, 127
2, 187942, Note_on_c, 0, 63, 0
2, 187970, Note_on_c, 0, 72, 0
2, 187998, Note_on_c, 0, 60, 0
2, 188018, Note_on_c, 0, 50, 71
2, 188034, Note_on_c, 0, 68, 0
2, 188062, Note_on_c, 0, 54, 0
2, 188098, Note_on_c, 0, 50, 0
2, 188398, Note_on_c, 0, 54, 35
2, 188438, Note_on_c, 0, 54, 0
2, 188498, Control_c, 0, 64, 0
2, 188538, Note_on_c, 0, 84, 75
2, 188542, Note_on_c, 0, 80, 68
2, 188542, Note_on_c, 0, 75, 73
2, 188542, Note_on_c, 0, 54, 69
2, 188550, Note_on_c, 0, 64, 62
2, 188554, Note_on_c, 0, 60, 49
2, 188610, Control_c, 0, 64, 127
2, 188666, Note_on_c, 0, 80, 0
2, 188690, Note_on_c, 0, 84, 0
2, 188690, Note_on_c, 0, 75, 0
2, 188698, Note_on_c, 0, 64, 0
2, 188706, Note_on_c, 0, 54, 0
2, 188730, Note_on_c, 0, 60, 0
2, 188790, Note_on_c, 0, 82, 68
2, 188798, Note_on_c, 0, 74, 57
2, 188810, Note_on_c, 0, 77, 52
2, 188810, Note_on_c, 0, 64, 57
2, 188810, Note_on_c, 0, 54, 60
2, 188810, Note_on_c, 0, 60, 49
2, 188818, Note_on_c, 0, 74, 0
2, 188838, Note_on_c, 0, 77, 0
2, 188854, Note_on_c, 0, 64, 0
2, 188858, Control_c, 0, 64, 0
2, 188866, Note_on_c, 0, 54, 0
2, 188874, Note_on_c, 0, 60, 0
2, 188890, Note_on_c, 0, 82, 0
2, 188926, Note_on_c, 0, 80, 59
2, 188926, Note_on_c, 0, 75, 46
2, 188930, Note_on_c, 0, 64, 49
2, 188934, Note_on_c, 0, 54, 57
2, 188942, Note_on_c, 0, 84, 41
2, 188950, Note_on_c, 0, 60, 49
2, 189030, Control_c, 0, 64, 127
2, 189050, Note_on_c, 0, 84, 0
2, 189078, Note_on_c, 0, 75, 0
2, 189082, Note_on_c, 0, 80, 0
2, 189090, Note_on_c, 0, 64, 0
2, 189094, Note_on_c, 0, 54, 0
2, 189114, Note_on_c, 0, 60, 0
2, 189154, Control_c, 0, 64, 0
2, 189178, Note_on_c, 0, 77, 75
2, 189178, Note_on_c, 0, 82, 64
2, 189178, Note_on_c, 0, 86, 70
2, 189190, Note_on_c, 0, 54, 67
2, 189194, Note_on_c, 0, 64, 63
2, 189202, Note_on_c, 0, 60, 48
2, 189214, Note_on_c, 0, 86, 0
2, 189234, Note_on_c, 0, 60, 0
2, 189238, Note_on_c, 0, 77, 0
2, 189242, Note_on_c, 0, 82, 0
2, 189246, Note_on_c, 0, 64, 0
2, 189262, Note_on_c, 0, 54, 0
2, 189350, Note_on_c, 0, 75, 68
2, 189358, Note_on_c, 0, 80, 58
2, 189362, Note_on_c, 0, 64, 59
2, 189362, Note_on_c, 0, 84, 57
2, 189366, Note_on_c, 0, 54, 60
2, 189374, Note_on_c, 0, 60, 50
2, 189394, Control_c, 0, 64, 127
2, 189494, Note_on_c, 0, 84, 0
2, 189518, Note_on_c, 0, 80, 0
2, 189522, Note_on_c, 0, 75, 0
2, 189550, Note_on_c, 0, 64, 0
2, 189558, Note_on_c, 0, 54, 0
2, 189574, Note_on_c, 0, 60, 0
2, 189594, Control_c, 0, 64, 0
2, 189686, Control_c, 0, 64, 127
2, 189698, Note_on_c, 0, 54, 55
2, 189706, Note_on_c, 0, 64, 47
2, 189706, Note_on_c, 0, 74, 49
2, 189714, Note_on_c, 0, 77, 50
2, 189718, Note_on_c, 0, 80, 44
2, 189730, Note_on_c, 0, 60, 35
2, 189746, Note_on_c, 0, 77, 0
2, 189762, Note_on_c, 0, 60, 0
2, 189774, Note_on_c, 0, 64, 0
2, 189778, Note_on_c, 0, 74, 0
2, 189846, Note_on_c, 0, 80, 0
2, 189850, Note_on_c, 0, 54, 0
2, 189926, Control_c, 0, 64, 0
2, 189954, Note_on_c, 0, 53, 38
2, 189954, Note_on_c, 0, 81, 58
2, 189962, Note_on_c, 0, 58, 48
2, 189966, Note_on_c, 0, 62, 43
2, 189966, Note_on_c, 0, 74, 57
2, 189974, Note_on_c, 0, 57, 48
2, 189974, Note_on_c, 0, 69, 30
2, 190074, Control_c, 0, 64, 127
2, 190230, Note_on_c, 0, 62, 0
2, 190242, Note_on_c, 0, 53, 0
2, 190250, Note_on_c, 0, 58, 0
2, 190258, Note_on_c, 0, 57, 0
2, 190326, Note_on_c, 0, 69, 0
2, 190334, Note_on_c, 0, 74, 0
2, 190602, Note_on_c, 0, 81, 0
2, 190682, Control_c, 0, 64, 0
2, 190710, Note_on_c, 0, 69, 52
2, 190714, Note_on_c, 0, 74, 56
2, 190726, Note_on_c, 0, 62, 40
2, 190726, Note_on_c, 0, 58, 45
2, 190742, Note_on_c, 0, 57, 40
2, 190750, Note_on_c, 0, 53, 38
2, 190790, Control_c, 0, 64, 127
2, 190918, Note_on_c, 0, 74, 0
2, 190950, Note_on_c, 0, 69, 0
2, 190982, Note_on_c, 0, 62, 0
2, 191002, Note_on_c, 0, 58, 0
2, 191002, Note_on_c, 0, 57, 0
2, 191070, Note_on_c, 0, 53, 0
2, 191190, Control_c, 0, 64, 0
2, 191214, Note_on_c, 0, 72, 82
2, 191222, Note_on_c, 0, 65, 81
2, 191222, Note_on_c, 0, 69, 82
2, 191226, Note_on_c, 0, 58, 61
2, 191226, Note_on_c, 0, 62, 71
2, 191234, Note_on_c, 0, 60, 66
2, 191314, Note_on_c, 0, 60, 0
2, 191314, Control_c, 0, 64, 127
2, 191322, Note_on_c, 0, 62, 0
2, 191334, Note_on_c, 0, 65, 0
2, 191350, Note_on_c, 0, 58, 0
2, 191366, Note_on_c, 0, 69, 0
2, 191366, Note_on_c, 0, 72, 0
2, 191474, Note_on_c, 0, 73, 76
2, 191474, Note_on_c, 0, 66, 83
2, 191482, Note_on_c, 0, 70, 82
2, 191482, Note_on_c, 0, 61, 66
2, 191486, Note_on_c, 0, 63, 62
2, 191490, Note_on_c, 0, 58, 52
2, 191494, Control_c, 0, 64, 0
2, 191510, Note_on_c, 0, 63, 0
2, 191522, Note_on_c, 0, 58, 0
2, 191554, Note_on_c, 0, 61, 0
2, 191582, Note_on_c, 0, 73, 0
2, 191586, Note_on_c, 0, 66, 0
2, 191590, Note_on_c, 0, 70, 0
2, 191622, Note_on_c, 0, 73, 49
2, 191638, Note_on_c, 0, 58, 40
2, 191638, Note_on_c, 0, 62, 50
2, 191646, Note_on_c, 0, 73, 0
2, 191646, Note_on_c, 0, 65, 53
2, 191646, Note_on_c, 0, 69, 57
2, 191654, Note_on_c, 0, 72, 63
2, 191666, Note_on_c, 0, 60, 48
2, 191698, Note_on_c, 0, 60, 0
2, 191714, Note_on_c, 0, 62, 0
2, 191730, Note_on_c, 0, 72, 0
2, 191738, Note_on_c, 0, 69, 0
2, 191750, Note_on_c, 0, 58, 0
2, 191766, Note_on_c, 0, 65, 0
2, 191874, Note_on_c, 0, 68, 59
2, 191874, Note_on_c, 0, 61, 53
2, 191874, Note_on_c, 0, 64, 54
2, 191886, Note_on_c, 0, 71, 52
2, 191890, Note_on_c, 0, 59, 48
2, 191902, Note_on_c, 0, 64, 0
2, 191902, Note_on_c, 0, 61, 0
2, 191918, Note_on_c, 0, 59, 0
2, 191926, Note_on_c, 0, 71, 0
2, 191946, Note_on_c, 0, 68, 0
2, 192006, Note_on_c, 0, 62, 60
2, 192010, Note_on_c, 0, 72, 55
2, 192014, Note_on_c, 0, 69, 52
2, 192014, Note_on_c, 0, 65, 40
2, 192034, Note_on_c, 0, 58, 43
2, 192050, Note_on_c, 0, 60, 36
2, 192198, Note_on_c, 0, 69, 0
2, 192202, Note_on_c, 0, 60, 0
2, 192214, Note_on_c, 0, 58, 0
2, 192230, Note_on_c, 0, 65, 0
2, 192230, Note_on_c, 0, 62, 0
2, 192270, Note_on_c, 0, 72, 0
2, 192366, Control_c, 0, 64, 127
2, 192378, Note_on_c, 0, 69, 46
2, 192386, Note_on_c, 0, 65, 45
2, 192386, Note_on_c, 0, 62, 40
2, 192390, Note_on_c, 0, 58, 45
2, 192418, Note_on_c, 0, 60, 33
2, 192538, Note_on_c, 0, 60, 0
2, 192586, Note_on_c, 0, 62, 0
2, 192598, Note_on_c, 0, 58, 0
2, 192718, Note_on_c, 0, 65, 0
2, 192758, Note_on_c, 0, 69, 0
2, 193054, Control_c, 0, 64, 0
2, 193054, Control_c, 0, 64, 40
2, 193114, Note_on_c, 0, 75, 86
2, 193118, Note_on_c, 0, 65, 73
2, 193118, Note_on_c, 0, 72, 83
2, 193118, Note_on_c, 0, 61, 64
2, 193118, Note_on_c, 0, 63, 62
2, 193118, Note_on_c, 0, 68, 88
2, 193314, Note_on_c, 0, 65, 0
2, 193318, Note_on_c, 0, 72, 0
2, 193318, Note_on_c, 0, 63, 0
2, 193318, Note_on_c, 0, 68, 0
2, 193326, Note_on_c, 0, 61, 0
2, 193350, Note_on_c, 0, 75, 0
2, 193382, Note_on_c, 0, 61, 62
2, 193382, Note_on_c, 0, 75, 60
2, 193382, Note_on_c, 0, 72, 65
2, 193382, Note_on_c, 0, 68, 61
2, 193382, Note_on_c, 0, 63, 61
2, 193394, Note_on_c, 0, 65, 61
2, 193494, Note_on_c, 0, 65, 0
2, 193510, Note_on_c, 0, 68, 0
2, 193518, Note_on_c, 0, 72, 0
2, 193530, Note_on_c, 0, 63, 0
2, 193534, Note_on_c, 0, 61, 0
2, 193542, Note_on_c, 0, 75, 0
2, 193586, Note_on_c, 0, 75, 46
2, 193590, Note_on_c, 0, 72, 52
2, 193590, Note_on_c, 0, 68, 55
2, 193594, Note_on_c, 0, 63, 45
2, 193594, Note_on_c, 0, 61, 51
2, 193606, Note_on_c, 0, 65, 48
2, 193654, Control_c, 0, 64, 127
2, 193678, Note_on_c, 0, 65, 0
2, 193694, Note_on_c, 0, 72, 0
2, 193694, Note_on_c, 0, 68, 0
2, 193694, Note_on_c, 0, 63, 0
2, 193702, Note_on_c, 0, 61, 0
2, 193718, Note_on_c, 0, 75, 0
2, 193730, Control_c, 0, 64, 40
2, 193734, Control_c, 0, 64, 0
2, 193778, Note_on_c, 0, 68, 55
2, 193782, Note_on_c, 0, 61, 49
2, 193782, Note_on_c, 0, 75, 58
2, 193786, Note_on_c, 0, 72, 61
2, 193786, Note_on_c, 0, 63, 48
2, 193794, Note_on_c, 0, 65, 46
2, 193838, Note_on_c, 0, 65, 0
2, 193866, Note_on_c, 0, 68, 0
2, 193870, Note_on_c, 0, 72, 0
2, 193890, Note_on_c, 0, 63, 0
2, 193894, Note_on_c, 0, 61, 0
2, 193902, Note_on_c, 0, 75, 0
2, 193910, Control_c, 0, 64, 127
2, 193962, Note_on_c, 0, 63, 49
2, 193962, Note_on_c, 0, 75, 58
2, 193962, Note_on_c, 0, 61, 52
2, 193962, Note_on_c, 0, 65, 46
2, 193970, Note_on_c, 0, 72, 53
2, 193974, Note_on_c, 0, 68, 46
2, 194110, Note_on_c, 0, 65, 0
2, 194122, Note_on_c, 0, 61, 0
2, 194134, Note_on_c, 0, 63, 0
2, 194146, Note_on_c, 0, 68, 0
2, 194174, Note_on_c, 0, 72, 0
2, 194274, Note_on_c, 0, 61, 55
2, 194274, Note_on_c, 0, 65, 45
2, 194278, Note_on_c, 0, 68, 45
2, 194286, Note_on_c, 0, 73, 50
2, 194290, Note_on_c, 0, 63, 36
2, 194310, Note_on_c, 0, 65, 0
2, 194326, Note_on_c, 0, 63, 0
2, 194386, Note_on_c, 0, 61, 0
2, 194438, Note_on_c, 0, 68, 0
2, 194454, Note_on_c, 0, 73, 0
2, 194458, Note_on_c, 0, 75, 0
2, 194614, Control_c, 0, 64, 0
2, 194670, Note_on_c, 0, 68, 48
2, 194674, Note_on_c, 0, 65, 45
2, 194674, Note_on_c, 0, 63, 44
2, 194678, Note_on_c, 0, 60, 55
2, 194682, Note_on_c, 0, 72, 57
2, 195054, Control_c, 0, 64, 56
2, 195058, Control_c, 0, 64, 127
2, 195074, Note_on_c, 0, 72, 0
2, 195102, Note_on_c, 0, 65, 0
2, 195130, Note_on_c, 0, 68, 0
2, 195134, Note_on_c, 0, 63, 0
2, 195138, Note_on_c, 0, 60, 0
2, 195278, Control_c, 0, 64, 0
2, 195322, Note_on_c, 0, 70, 57
2, 195322, Note_on_c, 0, 68, 53
2, 195326, Note_on_c, 0, 63, 44
2, 195326, Note_on_c, 0, 65, 48
2, 195334, Note_on_c, 0, 60, 54
2, 195422, Control_c, 0, 64, 127
2, 195490, Note_on_c, 0, 60, 0
2, 195498, Note_on_c, 0, 65, 0
2, 195522, Note_on_c, 0, 63, 0
2, 195538, Note_on_c, 0, 68, 0
2, 195698, Note_on_c, 0, 63, 60
2, 195702, Note_on_c, 0, 65, 66
2, 195706, Note_on_c, 0, 60, 63
2, 195714, Note_on_c, 0, 70, 0
2, 195758, Note_on_c, 0, 65, 0
2, 195786, Note_on_c, 0, 63, 0
2, 195802, Note_on_c, 0, 60, 0
2, 196014, Control_c, 0, 64, 56
2, 196018, Control_c, 0, 64, 0
2, 196066, Note_on_c, 0, 79, 82
2, 196070, Note_on_c, 0, 72, 81
2, 196074, Note_on_c, 0, 64, 83
2, 196074, Note_on_c, 0, 69, 83
2, 196074, Note_on_c, 0, 60, 73
2, 196074, Note_on_c, 0, 55, 78
2, 196082, Note_on_c, 0, 76, 71
2, 196118, Note_on_c, 0, 77, 26
2, 196150, Note_on_c, 0, 64, 0
2, 196158, Note_on_c, 0, 77, 0
2, 196166, Note_on_c, 0, 60, 0
2, 196166, Note_on_c, 0, 69, 0
2, 196174, Note_on_c, 0, 79, 0
2, 196174, Note_on_c, 0, 76, 0
2, 196186, Note_on_c, 0, 72, 0
2, 196206, Note_on_c, 0, 55, 0
2, 196310, Control_c, 0, 64, 127
2, 196490, Control_c, 0, 64, 0
2, 196510, Note_on_c, 0, 55, 82
2, 196510, Note_on_c, 0, 60, 79
2, 196510, Note_on_c, 0, 45, 81
2, 196510, Note_on_c, 0, 57, 76
2, 196514, Note_on_c, 0, 52, 87
2, 196538, Note_on_c, 0, 59, 45
2, 196570, Note_on_c, 0, 59, 0
2, 196814, Control_c, 0, 64, 127
2, 196830, Note_on_c, 0, 57, 0
2, 196854, Note_on_c, 0, 60, 0
2, 196858, Note_on_c, 0, 55, 0
2, 196894, Note_on_c, 0, 52, 0
2, 196950, Control_c, 0, 64, 0
2, 196986, Note_on_c, 0, 56, 57
2, 196994, Note_on_c, 0, 62, 64
2, 196998, Note_on_c, 0, 47, 56
2, 197002, Note_on_c, 0, 45, 0
2, 197002, Note_on_c, 0, 53, 49
2, 197082, Note_on_c, 0, 53, 0
2, 197082, Note_on_c, 0, 62, 0
2, 197166, Note_on_c, 0, 56, 0
2, 197338, Note_on_c, 0, 47, 0
2, 197342, Note_on_c, 0, 64, 61
2, 197346, Note_on_c, 0, 48, 52
2, 197350, Note_on_c, 0, 55, 58
2, 197354, Note_on_c, 0, 57, 57
2, 197362, Note_on_c, 0, 60, 52
2, 197470, Note_on_c, 0, 60, 0
2, 197470, Note_on_c, 0, 57, 0
2, 197486, Note_on_c, 0, 64, 0
2, 197570, Note_on_c, 0, 55, 0
2, 197678, Note_on_c, 0, 48, 0
2, 197718, Note_on_c, 0, 65, 60
2, 197730, Note_on_c, 0, 57, 48
2, 197734, Note_on_c, 0, 50, 51
2, 197746, Note_on_c, 0, 60, 35
2, 197826, Note_on_c, 0, 65, 0
2, 197838, Note_on_c, 0, 60, 0
2, 197898, Note_on_c, 0, 57, 0
2, 198106, Note_on_c, 0, 50, 0
2, 198106, Note_on_c, 0, 58, 54
2, 198110, Note_on_c, 0, 67, 48
2, 198110, Note_on_c, 0, 61, 55
2, 198118, Note_on_c, 0, 52, 46
2, 198198, Note_on_c, 0, 67, 0
2, 198254, Note_on_c, 0, 58, 0
2, 198294, Note_on_c, 0, 61, 0
2, 198386, Note_on_c, 0, 52, 0
2, 198394, Note_on_c, 0, 69, 57
2, 198398, Note_on_c, 0, 60, 55
2, 198398, Note_on_c, 0, 62, 56
2, 198402, Note_on_c, 0, 65, 48
2, 198406, Note_on_c, 0, 53, 53
2, 198422, Note_on_c, 0, 60, 0
2, 198430, Note_on_c, 0, 65, 0
2, 198430, Note_on_c, 0, 62, 0
2, 198438, Note_on_c, 0, 53, 0
2, 198462, Note_on_c, 0, 69, 0
2, 198754, Note_on_c, 0, 72, 60
2, 198758, Note_on_c, 0, 65, 57
2, 198766, Note_on_c, 0, 62, 51
2, 198770, Note_on_c, 0, 57, 58
2, 198790, Note_on_c, 0, 62, 0
2, 198802, Note_on_c, 0, 57, 0
2, 198806, Note_on_c, 0, 65, 0
2, 198846, Note_on_c, 0, 72, 0
2, 199118, Note_on_c, 0, 65, 58
2, 199122, Note_on_c, 0, 76, 57
2, 199122, Note_on_c, 0, 69, 57
2, 199126, Note_on_c, 0, 64, 59
2, 199138, Note_on_c, 0, 71, 43
2, 199146, Note_on_c, 0, 65, 0
2, 199154, Note_on_c, 0, 69, 0
2, 199158, Note_on_c, 0, 76, 0
2, 199166, Note_on_c, 0, 71, 0
2, 199178, Note_on_c, 0, 64, 0
2, 199218, Note_on_c, 0, 62, 42
2, 199298, Note_on_c, 0, 62, 0
2, 199318, Note_on_c, 0, 76, 61
2, 199318, Note_on_c, 0, 65, 54
2, 199326, Note_on_c, 0, 69, 58
2, 199326, Note_on_c, 0, 64, 56
2, 199330, Note_on_c, 0, 71, 49
2, 199374, Control_c, 0, 64, 127
2, 199474, Note_on_c, 0, 65, 0
2, 199474, Note_on_c, 0, 76, 0
2, 199506, Note_on_c, 0, 64, 0
2, 199514, Note_on_c, 0, 71, 0
2, 199534, Note_on_c, 0, 69, 0
2, 199846, Control_c, 0, 64, 0
2, 199846, Note_on_c, 0, 62, 46
2, 199894, Note_on_c, 0, 62, 0
2, 199898, Note_on_c, 0, 65, 55
2, 199922, Note_on_c, 0, 65, 0
2, 199934, Note_on_c, 0, 62, 57
2, 200002, Note_on_c, 0, 62, 0
2, 200010, Note_on_c, 0, 64, 58
2, 200046, Note_on_c, 0, 64, 0
2, 200050, Note_on_c, 0, 67, 63
2, 200070, Note_on_c, 0, 67, 0
2, 200106, Note_on_c, 0, 64, 45
2, 200138, Note_on_c, 0, 64, 0
2, 200142, Note_on_c, 0, 65, 66
2, 200194, Note_on_c, 0, 65, 0
2, 200198, Note_on_c, 0, 69, 54
2, 200222, Note_on_c, 0, 69, 0
2, 200238, Note_on_c, 0, 65, 66
2, 200298, Note_on_c, 0, 67, 65
2, 200302, Note_on_c, 0, 65, 0
2, 200338, Note_on_c, 0, 67, 0
2, 200346, Note_on_c, 0, 71, 58
2, 200370, Note_on_c, 0, 71, 0
2, 200398, Note_on_c, 0, 67, 68
2, 200446, Note_on_c, 0, 69, 67
2, 200454, Note_on_c, 0, 67, 0
2, 200482, Note_on_c, 0, 69, 0
2, 200510, Note_on_c, 0, 72, 41
2, 200542, Note_on_c, 0, 69, 70
2, 200546, Note_on_c, 0, 72, 0
2, 200598, Note_on_c, 0, 71, 58
2, 200606, Note_on_c, 0, 69, 0
2, 200638, Note_on_c, 0, 71, 0
2, 200670, Note_on_c, 0, 74, 40
2, 200690, Note_on_c, 0, 71, 63
2, 200698, Note_on_c, 0, 74, 0
2, 200754, Note_on_c, 0, 72, 66
2, 200762, Note_on_c, 0, 71, 0
2, 200798, Note_on_c, 0, 72, 0
2, 200802, Note_on_c, 0, 67, 42
2, 200806, Note_on_c, 0, 56, 44
2, 200814, Note_on_c, 0, 62, 43
2, 200838, Note_on_c, 0, 76, 27
2, 200854, Note_on_c, 0, 72, 59
2, 200870, Note_on_c, 0, 76, 0
2, 200926, Note_on_c, 0, 72, 0
2, 200926, Note_on_c, 0, 74, 59
2, 200950, Note_on_c, 0, 74, 0
2, 200974, Note_on_c, 0, 77, 56
2, 200998, Note_on_c, 0, 77, 0
2, 201014, Note_on_c, 0, 74, 63
2, 201078, Note_on_c, 0, 74, 0
2, 201082, Note_on_c, 0, 76, 56
2, 201114, Note_on_c, 0, 76, 0
2, 201138, Note_on_c, 0, 79, 46
2, 201162, Note_on_c, 0, 67, 0
2, 201162, Note_on_c, 0, 76, 54
2, 201166, Note_on_c, 0, 79, 0
2, 201234, Note_on_c, 0, 76, 0
2, 201234, Note_on_c, 0, 77, 72
2, 201278, Note_on_c, 0, 77, 0
2, 201302, Note_on_c, 0, 81, 41
2, 201310, Note_on_c, 0, 62, 0
2, 201330, Note_on_c, 0, 81, 0
2, 201330, Note_on_c, 0, 77, 54
2, 201394, Note_on_c, 0, 77, 0
2, 201394, Note_on_c, 0, 79, 57
2, 201422, Note_on_c, 0, 79, 0
2, 201454, Note_on_c, 0, 83, 41
2, 201482, Note_on_c, 0, 83, 0
2, 201490, Note_on_c, 0, 79, 64
2, 201550, Note_on_c, 0, 56, 0
2, 201554, Note_on_c, 0, 79, 0
2, 201562, Note_on_c, 0, 81, 54
2, 201590, Note_on_c, 0, 81, 0
2, 201606, Note_on_c, 0, 84, 60
2, 201638, Note_on_c, 0, 84, 0
2, 201670, Note_on_c, 0, 81, 35
2, 201722, Note_on_c, 0, 81, 0
2, 201722, Note_on_c, 0, 83, 54
2, 201750, Note_on_c, 0, 83, 0
2, 201758, Note_on_c, 0, 86, 47
2, 201798, Note_on_c, 0, 86, 0
2, 201814, Note_on_c, 0, 56, 54
2, 201814, Note_on_c, 0, 62, 56
2, 201830, Note_on_c, 0, 67, 39
2, 201830, Note_on_c, 0, 81, 63
2, 201874, Note_on_c, 0, 67, 0
2, 201902, Note_on_c, 0, 81, 0
2, 201906, Note_on_c, 0, 82, 70
2, 201930, Note_on_c, 0, 82, 0
2, 201954, Note_on_c, 0, 83, 55
2, 202014, Note_on_c, 0, 62, 0
2, 202034, Note_on_c, 0, 83, 0
2, 202106, Note_on_c, 0, 84, 44
2, 202134, Note_on_c, 0, 84, 0
2, 202154, Note_on_c, 0, 56, 0
2, 202258, Note_on_c, 0, 91, 31
2, 202286, Note_on_c, 0, 91, 0
2, 202310, Note_on_c, 0, 98, 81
2, 202350, Note_on_c, 0, 64, 50
2, 202358, Note_on_c, 0, 59, 45
2, 202358, Note_on_c, 0, 57, 50
2, 202366, Note_on_c, 0, 60, 56
2, 202422, Note_on_c, 0, 95, 78
2, 202478, Note_on_c, 0, 98, 0
2, 202630, Note_on_c, 0, 95, 0
2, 202650, Note_on_c, 0, 96, 94
2, 202786, Note_on_c, 0, 96, 0
2, 202810, Note_on_c, 0, 60, 0
2, 202814, Note_on_c, 0, 64, 0
2, 202814, Note_on_c, 0, 92, 38
2, 202822, Note_on_c, 0, 59, 0
2, 202862, Note_on_c, 0, 57, 0
2, 202970, Note_on_c, 0, 92, 0
2, 202982, Note_on_c, 0, 95, 75
2, 203082, Note_on_c, 0, 95, 0
2, 203134, Note_on_c, 0, 93, 62
2, 203314, Note_on_c, 0, 93, 0
2, 203354, Note_on_c, 0, 91, 63
2, 203370, Note_on_c, 0, 53, 49
2, 203370, Note_on_c, 0, 50, 39
2, 203374, Note_on_c, 0, 60, 43
2, 203378, Note_on_c, 0, 57, 40
2, 203474, Note_on_c, 0, 91, 0
2, 203474, Control_c, 0, 64, 127
2, 203506, Note_on_c, 0, 53, 0
2, 203510, Note_on_c, 0, 50, 0
2, 203514, Note_on_c, 0, 57, 0
2, 203522, Note_on_c, 0, 88, 46
2, 203658, Note_on_c, 0, 60, 0
2, 203662, Note_on_c, 0, 88, 0
2, 203738, Note_on_c, 0, 86, 54
2, 203802, Control_c, 0, 64, 0
2, 203810, Note_on_c, 0, 86, 0
2, 203858, Note_on_c, 0, 93, 64
2, 203858, Note_on_c, 0, 53, 43
2, 203862, Note_on_c, 0, 58, 50
2, 203866, Note_on_c, 0, 57, 49
2, 203866, Note_on_c, 0, 62, 48
2, 203878, Note_on_c, 0, 86, 57
2, 203878, Note_on_c, 0, 81, 43
2, 203974, Control_c, 0, 64, 127
2, 204038, Note_on_c, 0, 86, 0
2, 204038, Note_on_c, 0, 53, 0
2, 204042, Note_on_c, 0, 81, 0
2, 204054, Note_on_c, 0, 62, 0
2, 204058, Note_on_c, 0, 93, 0
2, 204066, Note_on_c, 0, 57, 0
2, 204070, Note_on_c, 0, 58, 0
2, 204122, Note_on_c, 0, 93, 68
2, 204134, Note_on_c, 0, 62, 49
2, 204138, Note_on_c, 0, 53, 40
2, 204142, Note_on_c, 0, 81, 60
2, 204142, Note_on_c, 0, 58, 50
2, 204142, Note_on_c, 0, 86, 63
2, 204150, Note_on_c, 0, 57, 58
2, 204222, Note_on_c, 0, 81, 0
2, 204234, Note_on_c, 0, 86, 0
2, 204238, Note_on_c, 0, 62, 0
2, 204238, Note_on_c, 0, 93, 0
2, 204246, Note_on_c, 0, 53, 0
2, 204254, Note_on_c, 0, 58, 0
2, 204262, Note_on_c, 0, 57, 0
2, 204294, Note_on_c, 0, 53, 24
2, 204298, Note_on_c, 0, 62, 36
2, 204306, Note_on_c, 0, 89, 48
2, 204318, Note_on_c, 0, 57, 24
2, 204322, Note_on_c, 0, 58, 35
2, 204402, Note_on_c, 0, 89, 0
2, 204414, Note_on_c, 0, 62, 0
2, 204422, Note_on_c, 0, 57, 0
2, 204426, Note_on_c, 0, 58, 0
2, 204434, Note_on_c, 0, 53, 0
2, 204526, Note_on_c, 0, 53, 48
2, 204530, Note_on_c, 0, 62, 56
2, 204534, Note_on_c, 0, 89, 78
2, 204534, Note_on_c, 0, 57, 54
2, 204534, Note_on_c, 0, 58, 51
2, 204546, Note_on_c, 0, 81, 57
2, 204574, Note_on_c, 0, 81, 0
2, 204590, Note_on_c, 0, 62, 0
2, 204590, Note_on_c, 0, 57, 0
2, 204594, Note_on_c, 0, 53, 0
2, 204618, Note_on_c, 0, 89, 0
2, 204626, Control_c, 0, 64, 0
2, 204630, Note_on_c, 0, 58, 0
2, 204718, Note_on_c, 0, 62, 55
2, 204726, Note_on_c, 0, 52, 52
2, 204738, Note_on_c, 0, 58, 48
2, 204746, Note_on_c, 0, 86, 63
2, 204894, Note_on_c, 0, 86, 0
2, 204898, Note_on_c, 0, 52, 0
2, 204918, Note_on_c, 0, 58, 0
2, 204918, Note_on_c, 0, 62, 0
2, 205002, Control_c, 0, 64, 127
2, 205026, Note_on_c, 0, 52, 56
2, 205038, Note_on_c, 0, 58, 49
2, 205042, Note_on_c, 0, 62, 43
2, 205098, Note_on_c, 0, 52, 0
2, 205130, Note_on_c, 0, 58, 0
2, 205162, Note_on_c, 0, 62, 0
2, 205234, Control_c, 0, 64, 0
2, 205294, Note_on_c, 0, 53, 48
2, 205302, Note_on_c, 0, 84, 63
2, 205302, Note_on_c, 0, 64, 49
2, 205306, Note_on_c, 0, 60, 52
2, 205306, Note_on_c, 0, 57, 55
2, 205358, Control_c, 0, 64, 127
2, 205394, Note_on_c, 0, 84, 0
2, 205406, Note_on_c, 0, 64, 0
2, 205434, Note_on_c, 0, 60, 0
2, 205478, Note_on_c, 0, 57, 0
2, 205566, Note_on_c, 0, 53, 0
2, 205686, Note_on_c, 0, 74, 72
2, 205690, Note_on_c, 0, 58, 78
2, 205690, Note_on_c, 0, 68, 73
2, 205694, Note_on_c, 0, 64, 64
2, 205710, Control_c, 0, 64, 0
2, 205750, Note_on_c, 0, 74, 0
2, 205790, Note_on_c, 0, 64, 0
2, 205798, Note_on_c, 0, 58, 0
2, 205822, Note_on_c, 0, 68, 0
2, 205846, Note_on_c, 0, 72, 66
2, 205854, Note_on_c, 0, 57, 57
2, 205858, Note_on_c, 0, 67, 62
2, 205858, Note_on_c, 0, 62, 57
2, 206066, Note_on_c, 0, 62, 0
2, 206066, Note_on_c, 0, 72, 0
2, 206082, Note_on_c, 0, 67, 0
2, 206090, Note_on_c, 0, 57, 0
2, 206210, Note_on_c, 0, 57, 57
2, 206210, Note_on_c, 0, 72, 60
2, 206218, Note_on_c, 0, 67, 57
2, 206218, Note_on_c, 0, 62, 56
2, 206490, Note_on_c, 0, 48, 98
2, 206514, Note_on_c, 0, 62, 0
2, 206526, Note_on_c, 0, 57, 0
2, 206558, Note_on_c, 0, 67, 0
2, 206790, Note_on_c, 0, 72, 0
2, 206878, Control_c, 0, 64, 127
2, 206890, Control_c, 0, 64, 0
2, 206966, Note_on_c, 0, 72, 81
2, 206970, Note_on_c, 0, 68, 79
2, 206970, Note_on_c, 0, 64, 87
2, 206970, Note_on_c, 0, 58, 60
2, 206974, Note_on_c, 0, 60, 66
2, 207154, Note_on_c, 0, 72, 0
2, 207158, Note_on_c, 0, 60, 0
2, 207166, Note_on_c, 0, 64, 0
2, 207186, Note_on_c, 0, 58, 0
2, 207198, Note_on_c, 0, 68, 0
2, 207226, Note_on_c, 0, 58, 50
2, 207230, Note_on_c, 0, 72, 68
2, 207234, Note_on_c, 0, 60, 65
2, 207234, Note_on_c, 0, 68, 81
2, 207242, Note_on_c, 0, 64, 73
2, 207334, Note_on_c, 0, 60, 0
2, 207338, Note_on_c, 0, 64, 0
2, 207350, Note_on_c, 0, 58, 0
2, 207354, Note_on_c, 0, 72, 0
2, 207382, Note_on_c, 0, 68, 0
2, 207466, Control_c, 0, 64, 127
2, 207502, Control_c, 0, 64, 0
2, 207578, Note_on_c, 0, 58, 68
2, 207582, Note_on_c, 0, 68, 81
2, 207586, Note_on_c, 0, 63, 83
2, 207590, Note_on_c, 0, 72, 77
2, 207594, Note_on_c, 0, 60, 68
2, 207690, Note_on_c, 0, 63, 0
2, 207698, Note_on_c, 0, 58, 0
2, 207702, Control_c, 0, 64, 127
2, 207722, Note_on_c, 0, 72, 0
2, 207726, Note_on_c, 0, 60, 0
2, 207778, Note_on_c, 0, 68, 0
2, 207794, Note_on_c, 0, 48, 0
2, 207970, Note_on_c, 0, 48, 57
2, 208062, Control_c, 0, 64, 0
2, 208098, Note_on_c, 0, 85, 90
2, 208098, Note_on_c, 0, 91, 94
2, 208102, Note_on_c, 0, 90, 68
2, 208102, Note_on_c, 0, 79, 76
2, 208102, Note_on_c, 0, 60, 75
2, 208130, Note_on_c, 0, 90, 0
2, 208134, Note_on_c, 0, 81, 39
2, 208166, Note_on_c, 0, 81, 0
2, 208166, Note_on_c, 0, 48, 0
2, 208214, Note_on_c, 0, 85, 0
2, 208214, Note_on_c, 0, 86, 60
2, 208278, Note_on_c, 0, 86, 0
2, 208286, Note_on_c, 0, 91, 0
2, 208298, Note_on_c, 0, 79, 0
2, 208346, Note_on_c, 0, 60, 0
2, 208470, Note_on_c, 0, 87, 66
2, 208478, Note_on_c, 0, 75, 64
2, 208478, Note_on_c, 0, 64, 59
2, 208482, Note_on_c, 0, 60, 42
2, 208490, Note_on_c, 0, 53, 43
2, 208494, Note_on_c, 0, 57, 56
2, 208506, Note_on_c, 0, 81, 48
2, 208574, Note_on_c, 0, 83, 36
2, 208594, Note_on_c, 0, 75, 0
2, 208618, Note_on_c, 0, 76, 36
2, 208638, Note_on_c, 0, 87, 0
2, 208678, Note_on_c, 0, 83, 0
2, 208686, Note_on_c, 0, 60, 0
2, 208698, Note_on_c, 0, 53, 0
2, 208710, Note_on_c, 0, 76, 0
2, 208714, Note_on_c, 0, 64, 0
2, 208714, Note_on_c, 0, 81, 0
2, 208718, Note_on_c, 0, 57, 0
2, 208862, Note_on_c, 0, 80, 58
2, 208874, Note_on_c, 0, 84, 55
2, 208874, Note_on_c, 0, 64, 46
2, 208882, Note_on_c, 0, 72, 37
2, 208886, Note_on_c, 0, 53, 33
2, 208886, Note_on_c, 0, 57, 50
2, 208890, Note_on_c, 0, 60, 40
2, 208990, Note_on_c, 0, 81, 41
2, 209026, Note_on_c, 0, 80, 0
2, 209038, Note_on_c, 0, 81, 0
2, 209038, Note_on_c, 0, 84, 0
2, 209094, Note_on_c, 0, 72, 0
2, 209110, Note_on_c, 0, 53, 0
2, 209118, Note_on_c, 0, 64, 0
2, 209118, Note_on_c, 0, 60, 0
2, 209138, Note_on_c, 0, 57, 0
2, 209250, Note_on_c, 0, 64, 42
2, 209250, Note_on_c, 0, 80, 56
2, 209250, Note_on_c, 0, 68, 58
2, 209250, Note_on_c, 0, 53, 35
2, 209254, Note_on_c, 0, 57, 42
2, 209266, Note_on_c, 0, 60, 43
2, 209286, Note_on_c, 0, 74, 47
2, 209290, Control_c, 0, 64, 127
2, 209334, Note_on_c, 0, 68, 0
2, 209386, Note_on_c, 0, 60, 0
2, 209402, Note_on_c, 0, 64, 0
2, 209410, Note_on_c, 0, 80, 0
2, 209418, Note_on_c, 0, 53, 0
2, 209446, Note_on_c, 0, 74, 0
2, 209446, Note_on_c, 0, 57, 0
2, 209522, Note_on_c, 0, 74, 54
2, 209546, Note_on_c, 0, 53, 36
2, 209546, Note_on_c, 0, 57, 45
2, 209546, Note_on_c, 0, 64, 47
2, 209554, Note_on_c, 0, 60, 42
2, 209602, Note_on_c, 0, 74, 0
2, 209654, Note_on_c, 0, 57, 0
2, 209658, Note_on_c, 0, 60, 0
2, 209658, Note_on_c, 0, 53, 0
2, 209782, Control_c, 0, 64, 0
2, 209786, Note_on_c, 0, 64, 0
2, 209886, Note_on_c, 0, 65, 72
2, 209890, Note_on_c, 0, 60, 58
2, 209890, Note_on_c, 0, 61, 57
2, 209902, Note_on_c, 0, 55, 56
2, 210334, Note_on_c, 0, 65, 0
2, 210378, Note_on_c, 0, 67, 94
2, 210462, Note_on_c, 0, 61, 0
2, 210554, Note_on_c, 0, 67, 0
2, 210586, Note_on_c, 0, 69, 58
2, 210614, Note_on_c, 0, 67, 54
2, 210626, Note_on_c, 0, 61, 37
2, 210650, Note_on_c, 0, 69, 0
2, 210666, Note_on_c, 0, 61, 0
2, 210698, Note_on_c, 0, 66, 63
2, 210718, Note_on_c, 0, 67, 0
2, 210750, Note_on_c, 0, 66, 0
2, 210774, Note_on_c, 0, 55, 0
2, 210794, Note_on_c, 0, 67, 68
2, 210874, Note_on_c, 0, 60, 0
2, 211046, Note_on_c, 0, 60, 57
2, 211046, Note_on_c, 0, 65, 58
2, 211046, Note_on_c, 0, 69, 76
2, 211054, Note_on_c, 0, 61, 49
2, 211066, Note_on_c, 0, 67, 0
2, 211070, Note_on_c, 0, 65, 0
2, 211086, Note_on_c, 0, 61, 0
2, 211122, Note_on_c, 0, 60, 0
2, 211138, Note_on_c, 0, 69, 0
2, 211218, Note_on_c, 0, 70, 45
2, 211390, Note_on_c, 0, 70, 0
2, 211422, Note_on_c, 0, 54, 60
2, 211426, Note_on_c, 0, 60, 63
2, 211426, Note_on_c, 0, 72, 76
2, 211438, Note_on_c, 0, 64, 48
2, 211466, Note_on_c, 0, 64, 0
2, 211506, Note_on_c, 0, 60, 0
2, 211510, Note_on_c, 0, 54, 0
2, 211550, Note_on_c, 0, 72, 0
2, 211578, Note_on_c, 0, 73, 58
2, 211774, Note_on_c, 0, 73, 0
2, 211834, Note_on_c, 0, 74, 58
2, 211834, Note_on_c, 0, 60, 46
2, 211838, Note_on_c, 0, 64, 34
2, 211862, Note_on_c, 0, 60, 0
2, 211874, Note_on_c, 0, 64, 0
2, 211910, Note_on_c, 0, 74, 0
2, 211986, Note_on_c, 0, 81, 49
2, 212078, Note_on_c, 0, 81, 0
2, 212202, Note_on_c, 0, 54, 60
2, 212206, Note_on_c, 0, 74, 73
2, 212206, Note_on_c, 0, 86, 70
2, 212210, Note_on_c, 0, 64, 55
2, 212210, Note_on_c, 0, 60, 54
2, 212226, Note_on_c, 0, 81, 54
2, 212286, Note_on_c, 0, 86, 0
2, 212302, Note_on_c, 0, 64, 0
2, 212302, Note_on_c, 0, 74, 0
2, 212314, Note_on_c, 0, 54, 0
2, 212338, Note_on_c, 0, 60, 0
2, 212350, Note_on_c, 0, 81, 0
2, 212434, Note_on_c, 0, 54, 52
2, 212446, Note_on_c, 0, 87, 68
2, 212450, Note_on_c, 0, 64, 48
2, 212450, Note_on_c, 0, 75, 61
2, 212466, Note_on_c, 0, 60, 48
2, 212474, Note_on_c, 0, 81, 54
2, 212594, Note_on_c, 0, 81, 0
2, 212594, Note_on_c, 0, 64, 0
2, 212598, Note_on_c, 0, 54, 0
2, 212606, Note_on_c, 0, 60, 0
2, 212610, Note_on_c, 0, 75, 0
2, 212610, Note_on_c, 0, 87, 0
2, 212710, Note_on_c, 0, 54, 53
2, 212710, Note_on_c, 0, 64, 54
2, 212726, Note_on_c, 0, 60, 47
2, 212730, Control_c, 0, 64, 127
2, 212758, Control_c, 0, 64, 0
2, 212838, Control_c, 0, 64, 127
2, 212882, Note_on_c, 0, 64, 0
2, 212882, Note_on_c, 0, 54, 0
2, 212890, Control_c, 0, 64, 0
2, 212910, Note_on_c, 0, 60, 0
2, 212982, Note_on_c, 0, 74, 68
2, 212982, Note_on_c, 0, 54, 66
2, 212982, Note_on_c, 0, 64, 57
2, 212986, Note_on_c, 0, 60, 56
2, 212990, Note_on_c, 0, 79, 54
2, 212990, Note_on_c, 0, 86, 48
2, 213118, Control_c, 0, 64, 127
2, 213182, Note_on_c, 0, 86, 0
2, 213198, Note_on_c, 0, 64, 0
2, 213202, Note_on_c, 0, 79, 0
2, 213218, Note_on_c, 0, 60, 0
2, 213218, Note_on_c, 0, 54, 0
2, 213222, Note_on_c, 0, 74, 0
2, 213342, Note_on_c, 0, 84, 61
2, 213346, Note_on_c, 0, 54, 58
2, 213350, Note_on_c, 0, 64, 57
2, 213354, Note_on_c, 0, 72, 46
2, 213354, Note_on_c, 0, 79, 56
2, 213362, Note_on_c, 0, 60, 51
2, 213586, Note_on_c, 0, 60, 0
2, 213590, Note_on_c, 0, 64, 0
2, 213630, Note_on_c, 0, 72, 0
2, 213642, Note_on_c, 0, 54, 0
2, 213654, Note_on_c, 0, 79, 0
2, 213726, Note_on_c, 0, 84, 0
2, 213730, Note_on_c, 0, 54, 52
2, 213738, Note_on_c, 0, 64, 55
2, 213746, Note_on_c, 0, 60, 57
2, 213778, Note_on_c, 0, 64, 0
2, 213810, Control_c, 0, 64, 0
2, 213862, Note_on_c, 0, 54, 0
2, 213910, Note_on_c, 0, 80, 46
2, 213930, Note_on_c, 0, 60, 0
2, 214014, Note_on_c, 0, 80, 0
2, 214034, Note_on_c, 0, 81, 46
2, 214078, Note_on_c, 0, 81, 0
2, 214110, Note_on_c, 0, 84, 82
2, 214138, Note_on_c, 0, 54, 56
2, 214142, Note_on_c, 0, 60, 53
2, 214142, Note_on_c, 0, 64, 51
2, 214210, Note_on_c, 0, 84, 0
2, 214218, Note_on_c, 0, 64, 0
2, 214246, Note_on_c, 0, 60, 0
2, 214310, Note_on_c, 0, 54, 0
2, 214398, Note_on_c, 0, 81, 45
2, 214438, Note_on_c, 0, 81, 0
2, 214494, Note_on_c, 0, 84, 86
2, 214506, Note_on_c, 0, 58, 59
2, 214526, Note_on_c, 0, 62, 42
2, 214530, Note_on_c, 0, 53, 43
2, 214550, Note_on_c, 0, 57, 26
2, 214582, Note_on_c, 0, 53, 0
2, 214586, Note_on_c, 0, 62, 0
2, 214598, Note_on_c, 0, 84, 0
2, 214618, Note_on_c, 0, 58, 0
2, 214654, Note_on_c, 0, 57, 0
2, 214662, Note_on_c, 0, 80, 56
2, 214758, Note_on_c, 0, 80, 0
2, 214798, Note_on_c, 0, 81, 35
2, 214830, Note_on_c, 0, 81, 0
2, 214894, Note_on_c, 0, 77, 84
2, 214894, Note_on_c, 0, 62, 43
2, 214894, Note_on_c, 0, 84, 78
2, 214898, Note_on_c, 0, 58, 47
2, 214914, Note_on_c, 0, 57, 30
2, 214926, Note_on_c, 0, 62, 0
2, 214930, Note_on_c, 0, 80, 33
2, 214934, Note_on_c, 0, 58, 0
2, 214966, Note_on_c, 0, 57, 0
2, 214966, Note_on_c, 0, 80, 0
2, 215022, Note_on_c, 0, 77, 0
2, 215066, Note_on_c, 0, 83, 47
2, 215110, Note_on_c, 0, 81, 47
2, 215138, Note_on_c, 0, 84, 0
2, 215146, Note_on_c, 0, 83, 0
2, 215162, Note_on_c, 0, 77, 54
2, 215186, Note_on_c, 0, 81, 0
2, 215250, Note_on_c, 0, 77, 0
2, 215274, Note_on_c, 0, 62, 39
2, 215274, Note_on_c, 0, 74, 64
2, 215274, Note_on_c, 0, 58, 48
2, 215286, Note_on_c, 0, 57, 31
2, 215338, Note_on_c, 0, 74, 0
2, 215338, Note_on_c, 0, 62, 0
2, 215354, Note_on_c, 0, 58, 0
2, 215390, Note_on_c, 0, 57, 0
2, 215638, Note_on_c, 0, 62, 57
2, 215646, Note_on_c, 0, 58, 55
2, 215654, Note_on_c, 0, 57, 45
2, 215678, Note_on_c, 0, 58, 0
2, 215678, Note_on_c, 0, 62, 0
2, 215690, Note_on_c, 0, 57, 0
2, 216078, Note_on_c, 0, 69, 127
2, 216086, Note_on_c, 0, 62, 75
2, 216094, Note_on_c, 0, 57, 63
2, 216094, Note_on_c, 0, 58, 59
2, 216158, Note_on_c, 0, 62, 0
2, 216242, Note_on_c, 0, 58, 0
2, 216254, Note_on_c, 0, 69, 0
2, 216266, Note_on_c, 0, 70, 56
2, 216330, Note_on_c, 0, 57, 0
2, 216362, Note_on_c, 0, 69, 58
2, 216390, Note_on_c, 0, 70, 0
2, 216434, Note_on_c, 0, 69, 0
2, 216442, Note_on_c, 0, 67, 59
2, 216462, Note_on_c, 0, 58, 52
2, 216474, Note_on_c, 0, 57, 39
2, 216478, Note_on_c, 0, 62, 35
2, 216518, Note_on_c, 0, 67, 0
2, 216522, Note_on_c, 0, 62, 0
2, 216542, Note_on_c, 0, 58, 0
2, 216542, Note_on_c, 0, 66, 64
2, 216618, Note_on_c, 0, 66, 0
2, 216638, Note_on_c, 0, 69, 78
2, 216726, Note_on_c, 0, 57, 0
2, 216746, Note_on_c, 0, 69, 0
2, 216762, Note_on_c, 0, 66, 57
2, 216826, Note_on_c, 0, 66, 0
2, 216858, Note_on_c, 0, 67, 79
2, 216878, Note_on_c, 0, 62, 41
2, 216882, Note_on_c, 0, 58, 52
2, 216898, Note_on_c, 0, 57, 36
2, 216922, Note_on_c, 0, 62, 0
2, 216958, Note_on_c, 0, 67, 0
2, 216958, Note_on_c, 0, 58, 0
2, 217002, Note_on_c, 0, 57, 0
2, 217014, Note_on_c, 0, 65, 67
2, 217158, Note_on_c, 0, 65, 0
2, 217202, Note_on_c, 0, 62, 57
2, 217218, Note_on_c, 0, 58, 56
2, 217226, Note_on_c, 0, 57, 49
2, 217310, Note_on_c, 0, 58, 0
2, 217322, Note_on_c, 0, 57, 0
2, 217322, Note_on_c, 0, 62, 0
2, 217374, Note_on_c, 0, 63, 34
2, 217518, Note_on_c, 0, 63, 0
2, 217566, Note_on_c, 0, 65, 63
2, 217578, Note_on_c, 0, 61, 48
2, 217578, Note_on_c, 0, 60, 48
2, 217646, Note_on_c, 0, 61, 0
2, 217654, Note_on_c, 0, 60, 0
2, 217658, Note_on_c, 0, 65, 0
2, 217734, Note_on_c, 0, 67, 54
2, 217902, Note_on_c, 0, 67, 0
2, 217954, Note_on_c, 0, 65, 58
2, 217954, Note_on_c, 0, 69, 78
2, 217958, Note_on_c, 0, 61, 48
2, 217962, Note_on_c, 0, 60, 48
2, 217966, Note_on_c, 0, 56, 48
2, 218046, Control_c, 0, 64, 127
2, 218062, Note_on_c, 0, 69, 0
2, 218114, Note_on_c, 0, 70, 54
2, 218158, Note_on_c, 0, 65, 0
2, 218178, Note_on_c, 0, 70, 0
2, 218178, Note_on_c, 0, 61, 0
2, 218186, Note_on_c, 0, 60, 0
2, 218186, Note_on_c, 0, 56, 0
2, 218226, Note_on_c, 0, 72, 60
2, 218306, Note_on_c, 0, 72, 0
2, 218354, Note_on_c, 0, 73, 85
2, 218358, Note_on_c, 0, 65, 65
2, 218366, Control_c, 0, 64, 0
2, 218370, Note_on_c, 0, 60, 61
2, 218370, Note_on_c, 0, 56, 59
2, 218378, Note_on_c, 0, 61, 61
2, 218494, Control_c, 0, 64, 127
2, 218562, Note_on_c, 0, 56, 0
2, 218562, Note_on_c, 0, 65, 0
2, 218574, Note_on_c, 0, 60, 0
2, 218578, Note_on_c, 0, 61, 0
2, 218598, Note_on_c, 0, 73, 0
2, 218630, Note_on_c, 0, 56, 40
2, 218630, Note_on_c, 0, 75, 64
2, 218634, Note_on_c, 0, 65, 47
2, 218642, Note_on_c, 0, 60, 42
2, 218646, Note_on_c, 0, 61, 48
2, 218690, Note_on_c, 0, 60, 0
2, 218690, Note_on_c, 0, 65, 0
2, 218690, Note_on_c, 0, 56, 0
2, 218694, Note_on_c, 0, 61, 0
2, 218714, Note_on_c, 0, 75, 0
2, 218750, Note_on_c, 0, 77, 79
2, 218762, Note_on_c, 0, 65, 57
2, 218774, Note_on_c, 0, 61, 48
2, 218778, Note_on_c, 0, 56, 38
2, 218778, Note_on_c, 0, 60, 52
2, 218786, Control_c, 0, 64, 0
2, 218810, Note_on_c, 0, 56, 0
2, 218818, Note_on_c, 0, 60, 0
2, 218826, Note_on_c, 0, 65, 0
2, 218838, Note_on_c, 0, 77, 0
2, 218842, Note_on_c, 0, 61, 0
2, 218882, Note_on_c, 0, 79, 81
2, 218890, Note_on_c, 0, 65, 63
2, 218898, Note_on_c, 0, 56, 51
2, 218902, Note_on_c, 0, 60, 48
2, 218906, Note_on_c, 0, 61, 49
2, 218910, Control_c, 0, 64, 127
2, 219006, Note_on_c, 0, 65, 0
2, 219034, Note_on_c, 0, 60, 0
2, 219050, Note_on_c, 0, 61, 0
2, 219086, Note_on_c, 0, 79, 0
2, 219098, Note_on_c, 0, 56, 0
2, 219102, Control_c, 0, 64, 0
2, 219146, Note_on_c, 0, 80, 76
2, 219158, Note_on_c, 0, 65, 56
2, 219162, Note_on_c, 0, 55, 61
2, 219162, Note_on_c, 0, 61, 56
2, 219242, Control_c, 0, 64, 127
2, 219258, Note_on_c, 0, 65, 0
2, 219286, Note_on_c, 0, 55, 0
2, 219318, Note_on_c, 0, 61, 0
2, 219326, Note_on_c, 0, 80, 0
2, 219398, Note_on_c, 0, 82, 63
2, 219410, Note_on_c, 0, 55, 56
2, 219414, Note_on_c, 0, 61, 54
2, 219414, Note_on_c, 0, 65, 52
2, 219494, Note_on_c, 0, 55, 0
2, 219498, Note_on_c, 0, 65, 0
2, 219530, Control_c, 0, 64, 0
2, 219546, Note_on_c, 0, 82, 0
2, 219558, Note_on_c, 0, 61, 0
2, 219622, Control_c, 0, 64, 127
2, 219642, Note_on_c, 0, 84, 66
2, 219650, Note_on_c, 0, 65, 63
2, 219654, Note_on_c, 0, 72, 60
2, 219654, Note_on_c, 0, 55, 62
2, 219658, Note_on_c, 0, 61, 56
2, 219742, Note_on_c, 0, 65, 0
2, 219762, Note_on_c, 0, 55, 0
2, 219762, Note_on_c, 0, 84, 0
2, 219798, Note_on_c, 0, 72, 0
2, 219810, Note_on_c, 0, 61, 0
2, 219870, Control_c, 0, 64, 0
2, 219910, Note_on_c, 0, 85, 65
2, 219910, Note_on_c, 0, 73, 62
2, 219914, Note_on_c, 0, 55, 58
2, 219914, Note_on_c, 0, 61, 59
2, 219918, Note_on_c, 0, 64, 57
2, 219926, Note_on_c, 0, 79, 51
2, 219974, Control_c, 0, 64, 127
2, 220006, Note_on_c, 0, 73, 0
2, 220014, Note_on_c, 0, 55, 0
2, 220014, Note_on_c, 0, 79, 0
2, 220018, Note_on_c, 0, 64, 0
2, 220042, Note_on_c, 0, 85, 0
2, 220058, Note_on_c, 0, 61, 0
2, 220162, Note_on_c, 0, 61, 63
2, 220166, Note_on_c, 0, 75, 68
2, 220166, Note_on_c, 0, 87, 68
2, 220174, Note_on_c, 0, 55, 56
2, 220174, Note_on_c, 0, 64, 54
2, 220246, Note_on_c, 0, 64, 0
2, 220246, Note_on_c, 0, 85, 24
2, 220262, Note_on_c, 0, 55, 0
2, 220306, Note_on_c, 0, 75, 0
2, 220310, Note_on_c, 0, 87, 0
2, 220318, Note_on_c, 0, 61, 0
2, 220326, Note_on_c, 0, 85, 0
2, 220334, Control_c, 0, 64, 0
2, 220382, Control_c, 0, 64, 127
2, 220402, Note_on_c, 0, 88, 75
2, 220402, Note_on_c, 0, 61, 72
2, 220414, Note_on_c, 0, 85, 51
2, 220414, Note_on_c, 0, 76, 55
2, 220418, Note_on_c, 0, 55, 66
2, 220422, Note_on_c, 0, 64, 56
2, 220430, Note_on_c, 0, 83, 56
2, 220430, Note_on_c, 0, 84, 52
2, 220454, Note_on_c, 0, 84, 0
2, 220470, Note_on_c, 0, 64, 0
2, 220470, Note_on_c, 0, 85, 0
2, 220486, Note_on_c, 0, 76, 0
2, 220502, Note_on_c, 0, 83, 0
2, 220510, Note_on_c, 0, 55, 0
2, 220518, Note_on_c, 0, 88, 0
2, 220542, Note_on_c, 0, 61, 0
2, 220610, Control_c, 0, 64, 0
2, 220646, Note_on_c, 0, 89, 94
2, 220650, Note_on_c, 0, 77, 85
2, 220650, Note_on_c, 0, 64, 82
2, 220654, Note_on_c, 0, 60, 71
2, 220658, Note_on_c, 0, 55, 68
2, 220658, Note_on_c, 0, 84, 62
2, 220658, Note_on_c, 0, 83, 67
2, 220658, Note_on_c, 0, 57, 66
2, 220686, Note_on_c, 0, 83, 0
2, 220750, Note_on_c, 0, 77, 0
2, 220754, Control_c, 0, 64, 127
2, 220762, Note_on_c, 0, 84, 0
2, 220774, Note_on_c, 0, 89, 0
2, 220778, Note_on_c, 0, 55, 0
2, 220778, Note_on_c, 0, 64, 0
2, 220798, Note_on_c, 0, 60, 0
2, 220802, Note_on_c, 0, 57, 0
2, 220830, Note_on_c, 0, 91, 102
2, 220838, Note_on_c, 0, 86, 73
2, 220842, Note_on_c, 0, 79, 61
2, 220846, Note_on_c, 0, 60, 68
2, 220846, Note_on_c, 0, 64, 50
2, 220846, Note_on_c, 0, 55, 60
2, 220854, Note_on_c, 0, 81, 62
2, 220854, Note_on_c, 0, 57, 64
2, 220882, Note_on_c, 0, 81, 0
2, 220994, Note_on_c, 0, 55, 0
2, 220998, Note_on_c, 0, 79, 0
2, 221002, Note_on_c, 0, 64, 0
2, 221006, Note_on_c, 0, 91, 0
2, 221010, Note_on_c, 0, 57, 0
2, 221026, Note_on_c, 0, 86, 0
2, 221030, Note_on_c, 0, 60, 0
2, 221086, Note_on_c, 0, 91, 68
2, 221086, Control_c, 0, 64, 0
2, 221090, Note_on_c, 0, 86, 76
2, 221094, Note_on_c, 0, 64, 68
2, 221094, Note_on_c, 0, 55, 63
2, 221094, Note_on_c, 0, 57, 61
2, 221094, Note_on_c, 0, 60, 68
2, 221094, Note_on_c, 0, 79, 75
2, 221166, Note_on_c, 0, 91, 0
2, 221174, Note_on_c, 0, 86, 0
2, 221190, Note_on_c, 0, 79, 0
2, 221250, Note_on_c, 0, 55, 0
2, 221250, Control_c, 0, 64, 127
2, 221266, Note_on_c, 0, 60, 0
2, 221266, Note_on_c, 0, 64, 0
2, 221266, Note_on_c, 0, 57, 0
2, 221410, Control_c, 0, 64, 0
2, 221430, Note_on_c, 0, 89, 81
2, 221434, Note_on_c, 0, 64, 76
2, 221438, Note_on_c, 0, 84, 78
2, 221438, Note_on_c, 0, 77, 75
2, 221438, Note_on_c, 0, 60, 69
2, 221438, Note_on_c, 0, 55, 68
2, 221438, Note_on_c, 0, 57, 65
2, 221546, Note_on_c, 0, 77, 0
2, 221554, Note_on_c, 0, 89, 0
2, 221558, Note_on_c, 0, 64, 0
2, 221558, Note_on_c, 0, 55, 0
2, 221562, Note_on_c, 0, 84, 0
2, 221574, Note_on_c, 0, 60, 0
2, 221574, Control_c, 0, 64, 127
2, 221578, Note_on_c, 0, 57, 0
2, 221626, Note_on_c, 0, 89, 62
2, 221634, Note_on_c, 0, 84, 61
2, 221642, Note_on_c, 0, 64, 43
2, 221642, Note_on_c, 0, 77, 63
2, 221650, Note_on_c, 0, 55, 52
2, 221654, Note_on_c, 0, 57, 57
2, 221658, Note_on_c, 0, 60, 57
2, 221710, Note_on_c, 0, 89, 0
2, 221734, Note_on_c, 0, 84, 0
2, 221738, Note_on_c, 0, 55, 0
2, 221750, Note_on_c, 0, 64, 0
2, 221754, Note_on_c, 0, 77, 0
2, 221758, Note_on_c, 0, 57, 0
2, 221770, Note_on_c, 0, 60, 0
2, 221818, Control_c, 0, 64, 0
2, 221854, Note_on_c, 0, 88, 48
2, 221858, Note_on_c, 0, 60, 54
2, 221858, Note_on_c, 0, 83, 66
2, 221858, Note_on_c, 0, 55, 57
2, 221858, Note_on_c, 0, 76, 57
2, 221858, Note_on_c, 0, 64, 59
2, 221878, Note_on_c, 0, 57, 43
2, 221898, Note_on_c, 0, 64, 0
2, 221910, Note_on_c, 0, 57, 0
2, 221914, Note_on_c, 0, 88, 0
2, 221918, Note_on_c, 0, 83, 0
2, 221926, Note_on_c, 0, 60, 0
2, 221930, Note_on_c, 0, 76, 0
2, 221938, Note_on_c, 0, 55, 0
2, 221942, Control_c, 0, 64, 127
2, 222066, Control_c, 0, 64, 0
2, 222174, Note_on_c, 0, 86, 65
2, 222186, Note_on_c, 0, 81, 63
2, 222186, Note_on_c, 0, 74, 55
2, 222190, Note_on_c, 0, 50, 43
2, 222190, Note_on_c, 0, 53, 51
2, 222190, Note_on_c, 0, 60, 50
2, 222202, Note_on_c, 0, 57, 42
2, 222238, Control_c, 0, 64, 127
2, 222270, Note_on_c, 0, 86, 0
2, 222290, Note_on_c, 0, 81, 0
2, 222318, Note_on_c, 0, 53, 0
2, 222322, Note_on_c, 0, 74, 0
2, 222334, Note_on_c, 0, 57, 0
2, 222338, Note_on_c, 0, 60, 0
2, 222346, Note_on_c, 0, 50, 0
2, 222550, Control_c, 0, 64, 0
2, 222566, Note_on_c, 0, 84, 66
2, 222574, Note_on_c, 0, 77, 68
2, 222578, Note_on_c, 0, 72, 61
2, 222582, Note_on_c, 0, 81, 54
2, 222586, Note_on_c, 0, 64, 42
2, 222614, Note_on_c, 0, 60, 23
2, 222626, Note_on_c, 0, 81, 0
2, 222638, Note_on_c, 0, 84, 0
2, 222662, Note_on_c, 0, 77, 0
2, 222662, Note_on_c, 0, 60, 0
2, 222670, Control_c, 0, 64, 127
2, 222682, Note_on_c, 0, 72, 0
2, 222846, Note_on_c, 0, 64, 0
2, 222934, Control_c, 0, 64, 0
2, 222950, Note_on_c, 0, 76, 81
2, 222954, Note_on_c, 0, 69, 77
2, 222958, Note_on_c, 0, 64, 75
2, 222962, Note_on_c, 0, 65, 67
2, 222966, Note_on_c, 0, 72, 61
2, 222994, Note_on_c, 0, 67, 31
2, 223022, Note_on_c, 0, 72, 0
2, 223026, Note_on_c, 0, 76, 0
2, 223030, Note_on_c, 0, 67, 0
2, 223038, Note_on_c, 0, 69, 0
2, 223054, Note_on_c, 0, 65, 0
2, 223058, Note_on_c, 0, 64, 0
2, 223098, Note_on_c, 0, 72, 66
2, 223106, Note_on_c, 0, 60, 63
2, 223110, Note_on_c, 0, 65, 68
2, 223342, Note_on_c, 0, 65, 0
2, 223382, Note_on_c, 0, 72, 0
2, 223426, Control_c, 0, 64, 127
2, 223430, Note_on_c, 0, 60, 0
2, 223458, Note_on_c, 0, 57, 52
2, 223466, Note_on_c, 0, 69, 57
2, 223466, Note_on_c, 0, 65, 61
2, 223474, Note_on_c, 0, 62, 57
2, 223498, Note_on_c, 0, 57, 0
2, 223534, Note_on_c, 0, 69, 0
2, 223558, Note_on_c, 0, 65, 0
2, 223598, Note_on_c, 0, 62, 0
2, 223734, Note_on_c, 0, 50, 54
2, 223774, Control_c, 0, 64, 0
2, 223826, Note_on_c, 0, 50, 0
2, 223846, Note_on_c, 0, 58, 48
2, 223850, Note_on_c, 0, 53, 54
2, 223854, Note_on_c, 0, 62, 57
2, 223858, Note_on_c, 0, 65, 46
2, 223926, Control_c, 0, 64, 127
2, 223958, Note_on_c, 0, 65, 0
2, 223974, Note_on_c, 0, 62, 0
2, 224010, Note_on_c, 0, 58, 0
2, 224026, Control_c, 0, 64, 0
2, 224110, Note_on_c, 0, 53, 0
2, 224250, Note_on_c, 0, 46, 63
2, 224258, Note_on_c, 0, 61, 57
2, 224262, Note_on_c, 0, 53, 57
2, 224282, Note_on_c, 0, 55, 35
2, 224290, Note_on_c, 0, 58, 43
2, 224382, Note_on_c, 0, 55, 0
2, 224422, Note_on_c, 0, 53, 0
2, 224434, Note_on_c, 0, 61, 0
2, 224502, Note_on_c, 0, 62, 46
2, 224502, Note_on_c, 0, 50, 72
2, 224514, Note_on_c, 0, 58, 0
2, 224526, Note_on_c, 0, 62, 0
2, 224534, Note_on_c, 0, 46, 0
2, 224634, Note_on_c, 0, 50, 0
2, 224646, Note_on_c, 0, 53, 67
2, 224646, Note_on_c, 0, 65, 59
2, 224650, Note_on_c, 0, 58, 37
2, 224690, Note_on_c, 0, 58, 0
2, 224710, Note_on_c, 0, 65, 0
2, 224862, Note_on_c, 0, 53, 0
2, 224882, Note_on_c, 0, 57, 68
2, 224890, Note_on_c, 0, 58, 81
2, 224890, Note_on_c, 0, 69, 76
2, 224890, Note_on_c, 0, 62, 74
2, 224914, Note_on_c, 0, 65, 45
2, 224946, Note_on_c, 0, 65, 0
2, 224986, Note_on_c, 0, 58, 0
2, 224994, Note_on_c, 0, 69, 0
2, 225002, Note_on_c, 0, 57, 0
2, 225014, Note_on_c, 0, 62, 0
2, 225030, Note_on_c, 0, 53, 46
2, 225070, Note_on_c, 0, 65, 41
2, 225154, Note_on_c, 0, 65, 0
2, 225278, Note_on_c, 0, 53, 0
2, 225278, Note_on_c, 0, 55, 67
2, 225282, Note_on_c, 0, 69, 52
2, 225294, Note_on_c, 0, 62, 32
2, 225314, Note_on_c, 0, 69, 0
2, 225330, Note_on_c, 0, 62, 0
2, 225366, Note_on_c, 0, 55, 0
2, 225430, Note_on_c, 0, 57, 66
2, 225438, Note_on_c, 0, 72, 57
2, 225454, Note_on_c, 0, 64, 31
2, 225514, Note_on_c, 0, 64, 0
2, 225518, Note_on_c, 0, 72, 0
2, 225554, Note_on_c, 0, 57, 0
2, 225566, Note_on_c, 0, 58, 39
2, 225618, Note_on_c, 0, 58, 0
2, 225650, Note_on_c, 0, 67, 54
2, 225650, Note_on_c, 0, 75, 75
2, 225658, Note_on_c, 0, 64, 61
2, 225670, Note_on_c, 0, 63, 70
2, 225754, Note_on_c, 0, 75, 0
2, 225758, Note_on_c, 0, 64, 0
2, 225766, Note_on_c, 0, 63, 0
2, 225774, Note_on_c, 0, 67, 0
2, 225786, Note_on_c, 0, 61, 52
2, 225790, Note_on_c, 0, 73, 62
2, 225874, Note_on_c, 0, 73, 0
2, 225878, Note_on_c, 0, 61, 0
2, 225950, Note_on_c, 0, 63, 57
2, 225958, Note_on_c, 0, 75, 88
2, 225970, Note_on_c, 0, 64, 70
2, 225970, Note_on_c, 0, 67, 67
2, 225978, Note_on_c, 0, 70, 61
2, 226066, Note_on_c, 0, 70, 0
2, 226066, Note_on_c, 0, 64, 0
2, 226070, Note_on_c, 0, 75, 0
2, 226074, Note_on_c, 0, 63, 0
2, 226090, Note_on_c, 0, 61, 43
2, 226094, Note_on_c, 0, 73, 70
2, 226098, Note_on_c, 0, 67, 0
2, 226122, Note_on_c, 0, 64, 32
2, 226142, Note_on_c, 0, 70, 20
2, 226166, Note_on_c, 0, 64, 0
2, 226174, Note_on_c, 0, 70, 0
2, 226174, Note_on_c, 0, 73, 0
2, 226214, Note_on_c, 0, 61, 0
2, 226274, Note_on_c, 0, 67, 54
2, 226282, Note_on_c, 0, 60, 57
2, 226290, Note_on_c, 0, 64, 45
2, 226294, Note_on_c, 0, 72, 48
2, 226382, Note_on_c, 0, 72, 0
2, 226394, Note_on_c, 0, 67, 0
2, 226398, Note_on_c, 0, 70, 59
2, 226402, Note_on_c, 0, 64, 0
2, 226402, Note_on_c, 0, 60, 0
2, 226402, Note_on_c, 0, 58, 43
2, 226442, Note_on_c, 0, 58, 0
2, 226470, Note_on_c, 0, 70, 0
2, 226526, Note_on_c, 0, 67, 68
2, 226526, Note_on_c, 0, 64, 70
2, 226526, Note_on_c, 0, 60, 57
2, 226526, Note_on_c, 0, 72, 66
2, 226614, Note_on_c, 0, 72, 0
2, 226634, Note_on_c, 0, 67, 0
2, 226658, Note_on_c, 0, 60, 0
2, 226662, Note_on_c, 0, 70, 66
2, 226670, Note_on_c, 0, 58, 51
2, 226722, Note_on_c, 0, 70, 0
2, 226722, Note_on_c, 0, 64, 0
2, 226778, Note_on_c, 0, 58, 0
2, 226834, Note_on_c, 0, 69, 72
2, 226834, Note_on_c, 0, 57, 71
2, 226838, Note_on_c, 0, 58, 59
2, 226854, Note_on_c, 0, 62, 51
2, 226866, Note_on_c, 0, 64, 34
2, 226914, Note_on_c, 0, 64, 0
2, 226926, Note_on_c, 0, 69, 0
2, 226938, Note_on_c, 0, 57, 0
2, 226942, Note_on_c, 0, 58, 0
2, 226942, Note_on_c, 0, 62, 0
2, 226962, Note_on_c, 0, 55, 47
2, 227058, Note_on_c, 0, 55, 0
2, 227094, Note_on_c, 0, 58, 72
2, 227094, Note_on_c, 0, 57, 61
2, 227094, Note_on_c, 0, 69, 75
2, 227102, Note_on_c, 0, 62, 63
2, 227130, Note_on_c, 0, 64, 33
2, 227186, Note_on_c, 0, 64, 0
2, 227202, Note_on_c, 0, 69, 0
2, 227206, Note_on_c, 0, 58, 0
2, 227234, Note_on_c, 0, 57, 0
2, 227242, Note_on_c, 0, 55, 58
2, 227250, Note_on_c, 0, 58, 56
2, 227258, Note_on_c, 0, 67, 55
2, 227290, Note_on_c, 0, 62, 0
2, 227322, Note_on_c, 0, 67, 0
2, 227326, Note_on_c, 0, 55, 0
2, 227330, Note_on_c, 0, 58, 0
2, 227434, Note_on_c, 0, 66, 66
2, 227446, Note_on_c, 0, 55, 49
2, 227450, Note_on_c, 0, 58, 58
2, 227454, Note_on_c, 0, 54, 52
2, 227458, Note_on_c, 0, 61, 54
2, 227514, Note_on_c, 0, 55, 0
2, 227526, Note_on_c, 0, 54, 0
2, 227534, Note_on_c, 0, 58, 0
2, 227542, Note_on_c, 0, 66, 0
2, 227546, Note_on_c, 0, 61, 0
2, 227678, Note_on_c, 0, 54, 62
2, 227682, Note_on_c, 0, 66, 70
2, 227690, Note_on_c, 0, 58, 66
2, 227690, Note_on_c, 0, 61, 60
2, 227706, Note_on_c, 0, 55, 60
2, 227786, Note_on_c, 0, 54, 0
2, 227794, Note_on_c, 0, 55, 0
2, 227806, Note_on_c, 0, 58, 0
2, 227810, Note_on_c, 0, 61, 0
2, 227814, Note_on_c, 0, 66, 0
2, 227846, Note_on_c, 0, 64, 57
2, 227862, Note_on_c, 0, 55, 46
2, 227866, Note_on_c, 0, 52, 57
2, 227874, Note_on_c, 0, 61, 41
2, 227874, Note_on_c, 0, 58, 42
2, 227910, Note_on_c, 0, 61, 0
2, 227912, Note_on_c, 0, 52, 0
2, 227918, Note_on_c, 0, 64, 0
2, 227930, Note_on_c, 0, 55, 0
2, 227934, Note_on_c, 0, 58, 0
2, 228318, Note_on_c, 0, 62, 72
2, 228322, Note_on_c, 0, 50, 64
2, 228326, Note_on_c, 0, 58, 68
2, 228326, Note_on_c, 0, 55, 67
2, 228402, Note_on_c, 0, 50, 0
2, 228406, Note_on_c, 0, 55, 0
2, 228418, Note_on_c, 0, 58, 0
2, 228438, Note_on_c, 0, 62, 0
2, 228706, Note_on_c, 0, 52, 81
2, 228714, Note_on_c, 0, 64, 75
2, 228714, Note_on_c, 0, 53, 81
2, 228714, Note_on_c, 0, 57, 74
2, 228722, Note_on_c, 0, 60, 63
2, 228802, Note_on_c, 0, 60, 0
2, 228806, Note_on_c, 0, 64, 0
2, 228810, Note_on_c, 0, 52, 0
2, 228814, Note_on_c, 0, 53, 0
2, 228826, Note_on_c, 0, 57, 0
2, 228846, Note_on_c, 0, 48, 47
2, 228882, Note_on_c, 0, 60, 46
2, 228902, Note_on_c, 0, 57, 19
2, 228918, Note_on_c, 0, 53, 7
2, 228982, Note_on_c, 0, 60, 0
2, 228994, Note_on_c, 0, 57, 0
2, 229034, Note_on_c, 0, 53, 0
2, 229078, Note_on_c, 0, 48, 0
2, 229098, Note_on_c, 0, 61, 57
2, 229102, Note_on_c, 0, 53, 60
2, 229102, Note_on_c, 0, 49, 62
2, 229114, Note_on_c, 0, 56, 57
2, 229146, Note_on_c, 0, 58, 44
2, 229178, Note_on_c, 0, 53, 0
2, 229218, Note_on_c, 0, 58, 0
2, 229218, Note_on_c, 0, 49, 0
2, 229266, Note_on_c, 0, 50, 59
2, 229270, Note_on_c, 0, 53, 41
2, 229278, Note_on_c, 0, 61, 0
2, 229278, Note_on_c, 0, 62, 57
2, 229314, Note_on_c, 0, 53, 0
2, 229346, Note_on_c, 0, 56, 0
2, 229366, Note_on_c, 0, 62, 0
2, 229470, Note_on_c, 0, 50, 0
2, 229478, Note_on_c, 0, 65, 68
2, 229490, Note_on_c, 0, 53, 66
2, 229546, Note_on_c, 0, 65, 0
2, 229586, Note_on_c, 0, 53, 0
2, 229626, Note_on_c, 0, 55, 52
2, 229634, Note_on_c, 0, 67, 66
2, 229694, Note_on_c, 0, 67, 0
2, 229786, Note_on_c, 0, 55, 0
2, 229854, Note_on_c, 0, 53, 48
2, 229946, Note_on_c, 0, 53, 0
2, 229974, Control_c, 0, 64, 127
2, 229982, Note_on_c, 0, 58, 63
2, 229986, Note_on_c, 0, 69, 57
2, 229986, Note_on_c, 0, 57, 46
2, 229986, Note_on_c, 0, 62, 62
2, 230010, Note_on_c, 0, 65, 39
2, 230042, Note_on_c, 0, 57, 0
2, 230046, Control_c, 0, 64, 0
2, 230066, Control_c, 0, 64, 127
2, 230090, Note_on_c, 0, 65, 0
2, 230118, Note_on_c, 0, 58, 0
2, 230242, Note_on_c, 0, 62, 0
2, 230266, Note_on_c, 0, 69, 0
2, 230302, Control_c, 0, 64, 0
2, 230370, Note_on_c, 0, 65, 48
2, 230378, Note_on_c, 0, 58, 41
2, 230382, Control_c, 0, 64, 127
2, 230382, Note_on_c, 0, 62, 51
2, 230402, Note_on_c, 0, 57, 36
2, 230462, Note_on_c, 0, 62, 0
2, 230474, Note_on_c, 0, 65, 0
2, 230482, Note_on_c, 0, 58, 0
2, 230494, Note_on_c, 0, 57, 0
2, 230638, Control_c, 0, 64, 0
2, 230638, Note_on_c, 0, 69, 68
2, 230642, Note_on_c, 0, 57, 66
2, 230642, Note_on_c, 0, 62, 75
2, 230642, Note_on_c, 0, 65, 62
2, 230642, Note_on_c, 0, 58, 61
2, 230726, Control_c, 0, 64, 127
2, 230846, Note_on_c, 0, 58, 0
2, 230878, Note_on_c, 0, 57, 0
2, 230910, Note_on_c, 0, 65, 0
2, 230914, Note_on_c, 0, 62, 0
2, 230998, Note_on_c, 0, 69, 0
2, 231130, Note_on_c, 0, 65, 54
2, 231138, Note_on_c, 0, 58, 44
2, 231202, Note_on_c, 0, 58, 0
2, 231222, Note_on_c, 0, 65, 0
2, 231358, Control_c, 0, 64, 0
2, 231410, Note_on_c, 0, 69, 58
2, 231410, Note_on_c, 0, 61, 68
2, 231418, Note_on_c, 0, 64, 60
2, 231418, Note_on_c, 0, 58, 52
2, 231426, Note_on_c, 0, 52, 51
2, 231450, Control_c, 0, 64, 127
2, 231490, Note_on_c, 0, 61, 0
2, 231498, Note_on_c, 0, 52, 0
2, 231498, Note_on_c, 0, 64, 0
2, 231514, Note_on_c, 0, 58, 0
2, 231522, Note_on_c, 0, 69, 0
2, 231790, Control_c, 0, 64, 0
2, 231798, Note_on_c, 0, 81, 78
2, 231798, Note_on_c, 0, 78, 71
2, 231798, Note_on_c, 0, 69, 81
2, 231798, Note_on_c, 0, 74, 82
2, 231798, Note_on_c, 0, 58, 82
2, 231806, Note_on_c, 0, 64, 81
2, 231822, Note_on_c, 0, 79, 48
2, 231846, Note_on_c, 0, 79, 0
2, 231958, Note_on_c, 0, 69, 0
2, 231966, Note_on_c, 0, 74, 0
2, 231974, Note_on_c, 0, 81, 0
2, 231974, Note_on_c, 0, 64, 0
2, 231978, Note_on_c, 0, 78, 0
2, 231990, Note_on_c, 0, 58, 0
2, 232006, Control_c, 0, 64, 127
2, 232042, Note_on_c, 0, 81, 75
2, 232046, Note_on_c, 0, 78, 63
2, 232046, Note_on_c, 0, 58, 68
2, 232050, Note_on_c, 0, 64, 68
2, 232050, Note_on_c, 0, 69, 72
2, 232050, Note_on_c, 0, 74, 72
2, 232186, Note_on_c, 0, 69, 0
2, 232206, Note_on_c, 0, 64, 0
2, 232206, Note_on_c, 0, 81, 0
2, 232206, Note_on_c, 0, 74, 0
2, 232214, Note_on_c, 0, 78, 0
2, 232214, Control_c, 0, 64, 0
2, 232230, Note_on_c, 0, 58, 0
2, 232306, Control_c, 0, 64, 127
2, 232314, Note_on_c, 0, 81, 75
2, 232314, Note_on_c, 0, 74, 78
2, 232318, Note_on_c, 0, 58, 75
2, 232318, Note_on_c, 0, 78, 68
2, 232318, Note_on_c, 0, 69, 73
2, 232318, Note_on_c, 0, 64, 71
2, 232466, Note_on_c, 0, 69, 0
2, 232474, Note_on_c, 0, 64, 0
2, 232478, Note_on_c, 0, 81, 0
2, 232486, Note_on_c, 0, 58, 0
2, 232490, Note_on_c, 0, 74, 0
2, 232502, Note_on_c, 0, 78, 0
2, 232542, Control_c, 0, 64, 0
2, 232586, Note_on_c, 0, 78, 60
2, 232586, Note_on_c, 0, 58, 72
2, 232594, Note_on_c, 0, 81, 63
2, 232594, Note_on_c, 0, 64, 65
2, 232594, Note_on_c, 0, 74, 74
2, 232598, Note_on_c, 0, 69, 66
2, 232630, Control_c, 0, 64, 127
2, 232646, Note_on_c, 0, 69, 0
2, 232674, Note_on_c, 0, 74, 0
2, 232686, Note_on_c, 0, 64, 0
2, 232698, Note_on_c, 0, 81, 0
2, 232698, Note_on_c, 0, 78, 0
2, 232714, Note_on_c, 0, 58, 0
2, 232850, Note_on_c, 0, 86, 79
2, 232850, Note_on_c, 0, 58, 72
2, 232850, Note_on_c, 0, 80, 61
2, 232850, Note_on_c, 0, 76, 76
2, 232858, Note_on_c, 0, 64, 68
2, 232862, Note_on_c, 0, 85, 53
2, 232894, Note_on_c, 0, 81, 32
2, 232934, Note_on_c, 0, 85, 0
2, 232942, Note_on_c, 0, 80, 0
2, 232978, Note_on_c, 0, 76, 0
2, 232990, Note_on_c, 0, 86, 0
2, 232994, Note_on_c, 0, 64, 0
2, 232998, Note_on_c, 0, 81, 0
2, 233026, Control_c, 0, 64, 0
2, 233054, Note_on_c, 0, 58, 0
2, 233102, Note_on_c, 0, 84, 69
2, 233110, Note_on_c, 0, 57, 66
2, 233110, Note_on_c, 0, 79, 63
2, 233118, Note_on_c, 0, 72, 40
2, 233118, Note_on_c, 0, 62, 57
2, 233122, Note_on_c, 0, 74, 51
2, 233146, Note_on_c, 0, 74, 0
2, 233150, Control_c, 0, 64, 127
2, 233442, Note_on_c, 0, 57, 0
2, 233454, Note_on_c, 0, 62, 0
2, 233858, Control_c, 0, 64, 0
2, 233862, Note_on_c, 0, 60, 54
2, 233870, Note_on_c, 0, 57, 56
2, 233870, Note_on_c, 0, 62, 42
2, 233902, Note_on_c, 0, 67, 25
2, 233902, Note_on_c, 0, 65, 16
2, 234022, Note_on_c, 0, 67, 0
2, 234034, Control_c, 0, 64, 127
2, 234058, Note_on_c, 0, 65, 0
2, 234066, Note_on_c, 0, 57, 0
2, 234078, Note_on_c, 0, 60, 0
2, 234078, Note_on_c, 0, 62, 0
2, 234454, Control_c, 0, 64, 0
2, 234466, Note_on_c, 0, 72, 0
2, 234474, Note_on_c, 0, 65, 67
2, 234482, Note_on_c, 0, 60, 49
2, 234482, Note_on_c, 0, 61, 51
2, 234490, Note_on_c, 0, 55, 54
2, 234518, Note_on_c, 0, 58, 31
2, 234562, Control_c, 0, 64, 127
2, 234586, Note_on_c, 0, 79, 0
2, 234610, Note_on_c, 0, 84, 0
2, 234622, Note_on_c, 0, 65, 0
2, 234638, Note_on_c, 0, 55, 0
2, 234650, Note_on_c, 0, 61, 0
2, 234662, Note_on_c, 0, 58, 0
2, 234670, Note_on_c, 0, 60, 0
2, 234870, Note_on_c, 0, 65, 86
2, 234870, Note_on_c, 0, 91, 102
2, 234870, Note_on_c, 0, 60, 72
2, 234874, Note_on_c, 0, 61, 63
2, 234874, Note_on_c, 0, 86, 88
2, 234874, Note_on_c, 0, 79, 99
2, 234878, Note_on_c, 0, 55, 72
2, 234890, Note_on_c, 0, 58, 50
2, 234986, Note_on_c, 0, 79, 0
2, 234990, Note_on_c, 0, 55, 0
2, 234994, Note_on_c, 0, 91, 0
2, 235002, Note_on_c, 0, 58, 0
2, 235002, Note_on_c, 0, 65, 0
2, 235018, Note_on_c, 0, 86, 0
2, 235018, Note_on_c, 0, 61, 0
2, 235022, Note_on_c, 0, 60, 0
2, 235050, Note_on_c, 0, 65, 56
2, 235050, Note_on_c, 0, 91, 72
2, 235054, Note_on_c, 0, 79, 63
2, 235054, Note_on_c, 0, 55, 55
2, 235058, Note_on_c, 0, 86, 54
2, 235058, Note_on_c, 0, 61, 49
2, 235058, Note_on_c, 0, 60, 31
2, 235094, Note_on_c, 0, 58, 24
2, 235154, Note_on_c, 0, 55, 0
2, 235154, Note_on_c, 0, 79, 0
2, 235170, Note_on_c, 0, 65, 0
2, 235178, Note_on_c, 0, 91, 0
2, 235186, Note_on_c, 0, 58, 0
2, 235186, Note_on_c, 0, 60, 0
2, 235198, Note_on_c, 0, 61, 0
2, 235202, Note_on_c, 0, 86, 0
2, 235270, Note_on_c, 0, 93, 89
2, 235270, Note_on_c, 0, 86, 81
2, 235274, Note_on_c, 0, 81, 82
2, 235274, Note_on_c, 0, 60, 60
2, 235274, Note_on_c, 0, 61, 57
2, 235274, Note_on_c, 0, 65, 76
2, 235282, Note_on_c, 0, 55, 63
2, 235314, Note_on_c, 0, 58, 33
2, 235362, Note_on_c, 0, 58, 0
2, 235362, Note_on_c, 0, 65, 0
2, 235366, Note_on_c, 0, 81, 0
2, 235378, Note_on_c, 0, 93, 0
2, 235382, Note_on_c, 0, 86, 0
2, 235386, Note_on_c, 0, 55, 0
2, 235398, Note_on_c, 0, 61, 0
2, 235406, Note_on_c, 0, 60, 0
2, 235430, Note_on_c, 0, 93, 49
2, 235430, Note_on_c, 0, 86, 62
2, 235430, Note_on_c, 0, 65, 59
2, 235438, Note_on_c, 0, 61, 55
2, 235438, Note_on_c, 0, 60, 33
2, 235438, Note_on_c, 0, 81, 45
2, 235438, Note_on_c, 0, 55, 35
2, 235486, Note_on_c, 0, 81, 0
2, 235518, Note_on_c, 0, 86, 0
2, 235538, Note_on_c, 0, 93, 0
2, 235546, Note_on_c, 0, 55, 0
2, 235554, Note_on_c, 0, 65, 0
2, 235574, Note_on_c, 0, 60, 0
2, 235578, Note_on_c, 0, 61, 0
2, 235638, Control_c, 0, 64, 0
2, 235654, Note_on_c, 0, 61, 56
2, 235654, Note_on_c, 0, 60, 57
2, 235654, Note_on_c, 0, 84, 74
2, 235654, Note_on_c, 0, 96, 80
2, 235654, Note_on_c, 0, 91, 76
2, 235654, Note_on_c, 0, 65, 68
2, 235654, Note_on_c, 0, 55, 60
2, 235738, Note_on_c, 0, 84, 0
2, 235762, Note_on_c, 0, 91, 0
2, 235762, Control_c, 0, 64, 127
2, 235774, Note_on_c, 0, 96, 0
2, 235830, Note_on_c, 0, 65, 0
2, 235846, Note_on_c, 0, 55, 0
2, 235850, Note_on_c, 0, 60, 0
2, 235910, Note_on_c, 0, 61, 0
2, 235990, Control_c, 0, 64, 0
2, 235998, Note_on_c, 0, 98, 87
2, 236002, Note_on_c, 0, 92, 75
2, 236002, Note_on_c, 0, 86, 72
2, 236018, Note_on_c, 0, 60, 66
2, 236018, Note_on_c, 0, 54, 70
2, 236018, Note_on_c, 0, 64, 72
2, 236086, Note_on_c, 0, 64, 0
2, 236110, Note_on_c, 0, 60, 0
2, 236138, Note_on_c, 0, 54, 0
2, 236154, Note_on_c, 0, 93, 58
2, 236158, Note_on_c, 0, 86, 0
2, 236158, Note_on_c, 0, 92, 0
2, 236174, Note_on_c, 0, 98, 0
2, 236178, Note_on_c, 0, 93, 0
2, 236390, Note_on_c, 0, 36, 57
2, 236394, Note_on_c, 0, 38, 59
2, 236414, Note_on_c, 0, 36, 0
2, 236418, Note_on_c, 0, 38, 0
2, 236502, Control_c, 0, 64, 127
2, 236710, Control_c, 0, 64, 0
2, 236774, Note_on_c, 0, 72, 74
2, 236782, Note_on_c, 0, 68, 66
2, 236782, Note_on_c, 0, 64, 75
2, 236790, Note_on_c, 0, 60, 71
2, 236790, Note_on_c, 0, 54, 63
2, 236810, Note_on_c, 0, 64, 0
2, 236818, Note_on_c, 0, 60, 0
2, 236846, Note_on_c, 0, 72, 0
2, 236850, Note_on_c, 0, 68, 0
2, 236862, Note_on_c, 0, 54, 0
2, 237134, Note_on_c, 0, 38, 81
2, 237186, Note_on_c, 0, 38, 0
2, 237534, Note_on_c, 0, 57, 78
2, 237534, Note_on_c, 0, 63, 85
2, 237538, Note_on_c, 0, 56, 62
2, 237542, Note_on_c, 0, 60, 85
2, 237542, Note_on_c, 0, 69, 71
2, 237542, Note_on_c, 0, 54, 56
2, 237542, Note_on_c, 0, 66, 63
2, 237570, Note_on_c, 0, 54, 0
2, 237594, Note_on_c, 0, 60, 0
2, 237602, Note_on_c, 0, 69, 0
2, 237602, Note_on_c, 0, 56, 0
2, 237602, Note_on_c, 0, 63, 0
2, 237606, Note_on_c, 0, 57, 0
2, 237606, Note_on_c, 0, 66, 0
2, 237738, Note_on_c, 0, 61, 42
2, 237770, Note_on_c, 0, 61, 0
2, 237934, Note_on_c, 0, 58, 83
2, 237942, Note_on_c, 0, 62, 75
2, 237946, Note_on_c, 0, 65, 66
2, 237966, Note_on_c, 0, 57, 64
2, 238030, Note_on_c, 0, 57, 0
2, 238066, Note_on_c, 0, 57, 29
2, 238158, Note_on_c, 0, 57, 0
2, 238314, Note_on_c, 0, 65, 0
2, 238322, Note_on_c, 0, 62, 0
2, 238322, Note_on_c, 0, 58, 0
2, 238342, Note_on_c, 0, 51, 60
2, 238410, Note_on_c, 0, 51, 0
2, 238438, Note_on_c, 0, 61, 62
2, 238458, Note_on_c, 0, 54, 57
2, 238458, Note_on_c, 0, 63, 55
2, 238458, Note_on_c, 0, 57, 37
2, 238694, Note_on_c, 0, 57, 0
2, 238714, Note_on_c, 0, 61, 0
2, 238730, Note_on_c, 0, 63, 0
2, 238730, Note_on_c, 0, 54, 0
2, 238758, Note_on_c, 0, 50, 36
2, 238798, Note_on_c, 0, 50, 0
2, 238818, Note_on_c, 0, 54, 48
2, 238818, Note_on_c, 0, 44, 54
2, 238822, Note_on_c, 0, 60, 60
2, 238830, Note_on_c, 0, 57, 46
2, 239098, Note_on_c, 0, 57, 0
2, 239098, Note_on_c, 0, 60, 0
2, 239106, Note_on_c, 0, 54, 0
2, 239122, Note_on_c, 0, 50, 45
2, 239150, Note_on_c, 0, 50, 0
2, 239150, Note_on_c, 0, 44, 0
2, 239186, Note_on_c, 0, 53, 46
2, 239198, Note_on_c, 0, 43, 42
2, 239210, Note_on_c, 0, 58, 52
2, 239222, Note_on_c, 0, 57, 43
2, 239250, Control_c, 0, 64, 127
2, 239378, Note_on_c, 0, 57, 0
2, 239386, Note_on_c, 0, 58, 0
2, 239442, Note_on_c, 0, 53, 0
2, 239474, Note_on_c, 0, 49, 61
2, 239478, Control_c, 0, 64, 0
2, 239494, Note_on_c, 0, 54, 50
2, 239498, Note_on_c, 0, 58, 25
2, 239522, Note_on_c, 0, 57, 26
2, 239546, Note_on_c, 0, 58, 0
2, 239550, Note_on_c, 0, 57, 0
2, 239562, Note_on_c, 0, 49, 0
2, 239582, Note_on_c, 0, 54, 0
2, 239586, Note_on_c, 0, 43, 0
2, 239590, Note_on_c, 0, 50, 56
2, 239850, Note_on_c, 0, 50, 0
2, 239858, Note_on_c, 0, 58, 72
2, 239862, Note_on_c, 0, 65, 69
2, 239866, Note_on_c, 0, 53, 71
2, 239866, Note_on_c, 0, 55, 68
2, 239886, Note_on_c, 0, 62, 42
2, 240098, Note_on_c, 0, 55, 0
2, 240118, Note_on_c, 0, 65, 0
2, 240118, Note_on_c, 0, 62, 0
2, 240134, Control_c, 0, 64, 127
2, 240150, Note_on_c, 0, 58, 0
2, 240266, Note_on_c, 0, 56, 66
2, 240274, Control_c, 0, 64, 0
2, 240282, Note_on_c, 0, 61, 49
2, 240306, Note_on_c, 0, 68, 31
2, 240310, Note_on_c, 0, 53, 0
2, 240318, Note_on_c, 0, 61, 0
2, 240338, Note_on_c, 0, 68, 0
2, 240350, Note_on_c, 0, 56, 0
2, 240402, Note_on_c, 0, 57, 63
2, 240638, Note_on_c, 0, 72, 72
2, 240642, Note_on_c, 0, 57, 0
2, 240642, Note_on_c, 0, 60, 77
2, 240642, Note_on_c, 0, 62, 74
2, 240642, Note_on_c, 0, 65, 74
2, 240654, Note_on_c, 0, 69, 65
2, 240914, Note_on_c, 0, 69, 0
2, 240942, Note_on_c, 0, 62, 0
2, 240950, Note_on_c, 0, 65, 0
2, 240974, Note_on_c, 0, 72, 0
2, 241014, Note_on_c, 0, 57, 58
2, 241018, Note_on_c, 0, 60, 0
2, 241018, Note_on_c, 0, 69, 58
2, 241018, Note_on_c, 0, 62, 38
2, 241038, Note_on_c, 0, 65, 34
2, 241074, Note_on_c, 0, 62, 0
2, 241090, Note_on_c, 0, 69, 0
2, 241094, Note_on_c, 0, 65, 0
2, 241126, Note_on_c, 0, 57, 0
2, 241158, Note_on_c, 0, 58, 54
2, 241174, Note_on_c, 0, 70, 45
2, 241290, Note_on_c, 0, 70, 0
2, 241390, Note_on_c, 0, 58, 0
2, 241390, Note_on_c, 0, 65, 57
2, 241390, Note_on_c, 0, 72, 57
2, 241390, Note_on_c, 0, 60, 66
2, 241414, Note_on_c, 0, 69, 45
2, 241446, Note_on_c, 0, 65, 0
2, 241458, Note_on_c, 0, 69, 0
2, 241490, Control_c, 0, 64, 127
2, 241498, Note_on_c, 0, 72, 0
2, 241770, Note_on_c, 0, 77, 81
2, 241798, Control_c, 0, 64, 0
2, 241878, Note_on_c, 0, 77, 0
2, 241894, Note_on_c, 0, 60, 0
2, 241918, Note_on_c, 0, 72, 37
2, 242110, Note_on_c, 0, 72, 0
2, 242146, Note_on_c, 0, 73, 63
2, 242154, Note_on_c, 0, 65, 50
2, 242166, Note_on_c, 0, 61, 45
2, 242174, Note_on_c, 0, 60, 42
2, 242178, Note_on_c, 0, 56, 39
2, 242266, Note_on_c, 0, 73, 0
2, 242342, Note_on_c, 0, 70, 46
2, 242386, Note_on_c, 0, 61, 0
2, 242530, Note_on_c, 0, 70, 0
2, 242530, Note_on_c, 0, 61, 22
2, 242594, Note_on_c, 0, 65, 0
2, 242650, Note_on_c, 0, 70, 58
2, 242730, Note_on_c, 0, 56, 0
2, 242758, Note_on_c, 0, 60, 0
2, 242782, Note_on_c, 0, 61, 0
2, 242854, Note_on_c, 0, 70, 0
2, 242946, Note_on_c, 0, 70, 63
2, 242962, Note_on_c, 0, 61, 41
2, 242970, Note_on_c, 0, 65, 41
2, 242990, Note_on_c, 0, 56, 31
2, 242994, Note_on_c, 0, 60, 31
2, 243114, Note_on_c, 0, 70, 0
2, 243150, Note_on_c, 0, 72, 42
2, 243154, Note_on_c, 0, 65, 0
2, 243182, Note_on_c, 0, 61, 0
2, 243206, Note_on_c, 0, 70, 52
2, 243226, Note_on_c, 0, 72, 0
2, 243302, Note_on_c, 0, 70, 0
2, 243306, Note_on_c, 0, 69, 49
2, 243310, Note_on_c, 0, 65, 48
2, 243326, Note_on_c, 0, 61, 38
2, 243342, Note_on_c, 0, 69, 0
2, 243390, Note_on_c, 0, 65, 0
2, 243422, Note_on_c, 0, 70, 63
2, 243478, Note_on_c, 0, 60, 0
2, 243510, Note_on_c, 0, 70, 0
2, 243538, Note_on_c, 0, 61, 0
2, 243562, Note_on_c, 0, 72, 46
2, 243646, Note_on_c, 0, 72, 0
2, 243654, Note_on_c, 0, 56, 0
2, 243658, Note_on_c, 0, 70, 62
2, 243722, Note_on_c, 0, 70, 0
2, 243794, Note_on_c, 0, 65, 43
2, 243794, Note_on_c, 0, 61, 38
2, 243814, Note_on_c, 0, 55, 36
2, 243990, Note_on_c, 0, 61, 0
2, 244082, Note_on_c, 0, 61, 39
2, 244094, Note_on_c, 0, 65, 0
2, 244150, Note_on_c, 0, 61, 0
2, 244218, Note_on_c, 0, 69, 60
2, 244238, Note_on_c, 0, 55, 0
2, 244266, Note_on_c, 0, 69, 0
2, 244290, Note_on_c, 0, 70, 61
2, 244374, Note_on_c, 0, 69, 51
2, 244386, Note_on_c, 0, 70, 0
2, 244438, Note_on_c, 0, 69, 0
2, 244450, Note_on_c, 0, 67, 48
2, 244462, Note_on_c, 0, 61, 43
2, 244502, Note_on_c, 0, 67, 0
2, 244510, Note_on_c, 0, 61, 0
2, 244546, Note_on_c, 0, 69, 57
2, 244606, Note_on_c, 0, 69, 0
2, 244626, Note_on_c, 0, 70, 55
2, 244654, Note_on_c, 0, 70, 0
2, 244706, Note_on_c, 0, 72, 63
2, 244742, Note_on_c, 0, 72, 0
2, 244782, Note_on_c, 0, 73, 47
2, 244822, Note_on_c, 0, 73, 0
2, 244842, Note_on_c, 0, 75, 62
2, 244870, Note_on_c, 0, 75, 0
2, 244882, Note_on_c, 0, 61, 45
2, 244894, Note_on_c, 0, 60, 37
2, 244910, Note_on_c, 0, 65, 28
2, 244922, Note_on_c, 0, 76, 63
2, 244930, Note_on_c, 0, 55, 36
2, 244962, Note_on_c, 0, 76, 0
2, 244994, Note_on_c, 0, 65, 0
2, 244994, Note_on_c, 0, 78, 52
2, 245018, Note_on_c, 0, 78, 0
2, 245042, Note_on_c, 0, 60, 0
2, 245058, Note_on_c, 0, 79, 67
2, 245082, Note_on_c, 0, 61, 0
2, 245090, Note_on_c, 0, 79, 0
2, 245110, Note_on_c, 0, 80, 39
2, 245142, Note_on_c, 0, 80, 0
2, 245142, Note_on_c, 0, 55, 0
2, 245182, Note_on_c, 0, 82, 55
2, 245262, Note_on_c, 0, 83, 58
2, 245274, Note_on_c, 0, 82, 0
2, 245330, Note_on_c, 0, 83, 0
2, 245334, Note_on_c, 0, 86, 85
2, 245382, Note_on_c, 0, 64, 26
2, 245390, Note_on_c, 0, 60, 48
2, 245394, Note_on_c, 0, 57, 43
2, 245438, Note_on_c, 0, 84, 76
2, 245490, Note_on_c, 0, 86, 0
2, 245538, Note_on_c, 0, 60, 0
2, 245554, Note_on_c, 0, 84, 0
2, 245626, Note_on_c, 0, 81, 69
2, 245654, Note_on_c, 0, 60, 36
2, 245670, Note_on_c, 0, 81, 0
2, 245678, Note_on_c, 0, 64, 0
2, 245694, Note_on_c, 0, 60, 0
2, 245706, Control_c, 0, 64, 127
2, 245778, Note_on_c, 0, 57, 0
2, 246086, Control_c, 0, 64, 0
2, 246138, Note_on_c, 0, 60, 58
2, 246150, Note_on_c, 0, 45, 43
2, 246154, Note_on_c, 0, 52, 57
2, 246154, Note_on_c, 0, 55, 57
2, 246214, Control_c, 0, 64, 127
2, 246242, Note_on_c, 0, 60, 0
2, 246294, Note_on_c, 0, 55, 0
2, 246298, Note_on_c, 0, 52, 0
2, 246382, Note_on_c, 0, 45, 0
2, 246398, Note_on_c, 0, 62, 73
2, 246410, Note_on_c, 0, 47, 58
2, 246442, Control_c, 0, 64, 0
2, 246470, Note_on_c, 0, 62, 0
2, 246522, Note_on_c, 0, 47, 0
2, 246534, Note_on_c, 0, 64, 58
2, 246538, Note_on_c, 0, 48, 60
2, 246538, Note_on_c, 0, 55, 50
2, 246542, Note_on_c, 0, 59, 55
2, 246550, Control_c, 0, 64, 127
2, 246622, Note_on_c, 0, 59, 0
2, 246626, Note_on_c, 0, 64, 0
2, 246630, Note_on_c, 0, 55, 0
2, 246694, Note_on_c, 0, 48, 0
2, 246698, Control_c, 0, 64, 0
2, 246774, Note_on_c, 0, 65, 78
2, 246782, Note_on_c, 0, 60, 76
2, 246790, Note_on_c, 0, 50, 84
2, 246790, Note_on_c, 0, 57, 66
2, 246842, Control_c, 0, 64, 127
2, 246958, Note_on_c, 0, 65, 0
2, 247006, Note_on_c, 0, 57, 0
2, 247010, Note_on_c, 0, 60, 0
2, 247122, Control_c, 0, 64, 0
2, 247150, Note_on_c, 0, 67, 81
2, 247158, Note_on_c, 0, 60, 81
2, 247162, Note_on_c, 0, 57, 80
2, 247170, Note_on_c, 0, 52, 84
2, 247174, Note_on_c, 0, 50, 0
2, 247182, Note_on_c, 0, 63, 44
2, 247238, Control_c, 0, 64, 127
2, 247286, Note_on_c, 0, 57, 0
2, 247294, Note_on_c, 0, 60, 0
2, 247306, Note_on_c, 0, 67, 0
2, 247318, Note_on_c, 0, 63, 0
2, 247486, Control_c, 0, 64, 0
2, 247494, Note_on_c, 0, 52, 0
2, 247526, Note_on_c, 0, 69, 81
2, 247530, Note_on_c, 0, 62, 84
2, 247534, Note_on_c, 0, 53, 80
2, 247534, Note_on_c, 0, 60, 79
2, 247542, Note_on_c, 0, 65, 60
2, 247598, Control_c, 0, 64, 88
2, 247602, Control_c, 0, 64, 127
2, 247622, Note_on_c, 0, 60, 0
2, 247642, Note_on_c, 0, 62, 0
2, 247642, Note_on_c, 0, 65, 0
2, 247650, Note_on_c, 0, 69, 0
2, 247866, Control_c, 0, 64, 0
2, 247910, Note_on_c, 0, 72, 84
2, 247914, Note_on_c, 0, 65, 86
2, 247918, Note_on_c, 0, 62, 89
2, 247922, Note_on_c, 0, 69, 69
2, 247922, Note_on_c, 0, 57, 87
2, 247930, Note_on_c, 0, 53, 0
2, 247966, Note_on_c, 0, 51, 29
2, 247966, Control_c, 0, 64, 127
2, 248006, Note_on_c, 0, 51, 0
2, 248018, Note_on_c, 0, 62, 0
2, 248026, Note_on_c, 0, 57, 0
2, 248038, Note_on_c, 0, 65, 0
2, 248050, Note_on_c, 0, 69, 0
2, 248066, Note_on_c, 0, 72, 0
2, 248278, Control_c, 0, 64, 0
2, 248302, Note_on_c, 0, 76, 111
2, 248302, Note_on_c, 0, 65, 117
2, 248302, Note_on_c, 0, 69, 107
2, 248306, Note_on_c, 0, 71, 85
2, 248314, Note_on_c, 0, 64, 111
2, 248394, Note_on_c, 0, 65, 0
2, 248458, Note_on_c, 0, 65, 62
2, 248466, Note_on_c, 0, 76, 0
2, 248470, Note_on_c, 0, 69, 0
2, 248474, Note_on_c, 0, 71, 0
2, 248502, Control_c, 0, 64, 127
2, 248534, Note_on_c, 0, 65, 0
2, 248558, Note_on_c, 0, 76, 30
2, 248574, Note_on_c, 0, 69, 35
2, 248578, Note_on_c, 0, 71, 29
2, 248610, Note_on_c, 0, 65, 43
2, 248614, Note_on_c, 0, 71, 0
2, 248614, Note_on_c, 0, 69, 0
2, 248622, Note_on_c, 0, 76, 0
2, 248678, Note_on_c, 0, 65, 0
2, 248758, Note_on_c, 0, 65, 48
2, 248830, Note_on_c, 0, 65, 0
2, 248838, Note_on_c, 0, 76, 1
2, 248874, Note_on_c, 0, 69, 36
2, 248906, Note_on_c, 0, 65, 49
2, 248910, Note_on_c, 0, 69, 0
2, 248982, Note_on_c, 0, 65, 0
2, 249014, Note_on_c, 0, 69, 40
2, 249022, Note_on_c, 0, 71, 32
2, 249050, Note_on_c, 0, 69, 0
2, 249058, Note_on_c, 0, 71, 0
2, 249062, Note_on_c, 0, 65, 45
2, 249142, Note_on_c, 0, 65, 0
2, 249162, Note_on_c, 0, 69, 41
2, 249190, Note_on_c, 0, 69, 0
2, 249202, Note_on_c, 0, 64, 0
2, 249210, Note_on_c, 0, 65, 49
2, 249286, Note_on_c, 0, 65, 0
2, 249310, Note_on_c, 0, 69, 43
2, 249342, Note_on_c, 0, 69, 0
2, 249350, Note_on_c, 0, 65, 56
2, 249390, Note_on_c, 0, 64, 78
2, 249434, Note_on_c, 0, 65, 0
2, 249446, Note_on_c, 0, 69, 56
2, 249454, Note_on_c, 0, 71, 38
2, 249474, Note_on_c, 0, 69, 0
2, 249486, Note_on_c, 0, 76, 0
2, 249490, Note_on_c, 0, 71, 0
2, 249494, Note_on_c, 0, 65, 57
2, 249566, Note_on_c, 0, 65, 0
2, 249594, Note_on_c, 0, 69, 49
2, 249658, Note_on_c, 0, 65, 41
2, 249670, Note_on_c, 0, 69, 0
2, 249750, Note_on_c, 0, 69, 49
2, 249758, Note_on_c, 0, 76, 6
2, 249790, Note_on_c, 0, 65, 0
2, 249838, Note_on_c, 0, 69, 0
2, 249874, Note_on_c, 0, 76, 0
2, 249922, Note_on_c, 0, 64, 0
2, 249922, Control_c, 0, 64, 0
2, 249930, Note_on_c, 0, 67, 50
2, 249938, Note_on_c, 0, 76, 52
2, 249950, Note_on_c, 0, 56, 55
2, 249950, Note_on_c, 0, 72, 58
2, 249954, Note_on_c, 0, 62, 49
2, 250074, Control_c, 0, 64, 127
2, 250282, Note_on_c, 0, 67, 0
2, 250310, Note_on_c, 0, 56, 0
2, 250318, Note_on_c, 0, 62, 0
2, 250382, Note_on_c, 0, 72, 0
2, 250382, Note_on_c, 0, 76, 0
2, 250950, Control_c, 0, 64, 0
2, 250986, Note_on_c, 0, 92, 56
2, 250986, Note_on_c, 0, 98, 67
2, 250994, Note_on_c, 0, 86, 53
2, 250998, Note_on_c, 0, 56, 54
2, 251002, Note_on_c, 0, 67, 49
2, 251006, Note_on_c, 0, 62, 52
2, 251058, Control_c, 0, 64, 127
2, 251154, Note_on_c, 0, 62, 0
2, 251154, Note_on_c, 0, 67, 0
2, 251174, Note_on_c, 0, 92, 0
2, 251194, Note_on_c, 0, 93, 39
2, 251214, Note_on_c, 0, 56, 0
2, 251218, Note_on_c, 0, 98, 0
2, 251254, Note_on_c, 0, 93, 0
2, 251322, Note_on_c, 0, 86, 0
2, 251446, Control_c, 0, 64, 0
2, 251526, Note_on_c, 0, 96, 58
2, 251538, Note_on_c, 0, 55, 44
2, 251538, Note_on_c, 0, 60, 44
2, 251538, Note_on_c, 0, 64, 40
2, 251546, Note_on_c, 0, 84, 36
2, 251550, Note_on_c, 0, 57, 44
2, 251562, Note_on_c, 0, 91, 45
2, 251662, Note_on_c, 0, 96, 0
2, 251666, Note_on_c, 0, 64, 0
2, 251674, Note_on_c, 0, 60, 0
2, 251674, Note_on_c, 0, 91, 0
2, 251678, Note_on_c, 0, 55, 0
2, 251682, Note_on_c, 0, 57, 0
2, 251686, Note_on_c, 0, 84, 0
2, 251850, Control_c, 0, 64, 127
2, 252166, Note_on_c, 0, 93, 67
2, 252170, Note_on_c, 0, 60, 46
2, 252178, Note_on_c, 0, 88, 55
2, 252178, Note_on_c, 0, 81, 56
2, 252182, Note_on_c, 0, 53, 40
2, 252186, Note_on_c, 0, 50, 35
2, 252194, Note_on_c, 0, 57, 39
2, 252238, Control_c, 0, 64, 0
2, 252274, Note_on_c, 0, 93, 0
2, 252294, Note_on_c, 0, 88, 0
2, 252302, Note_on_c, 0, 81, 0
2, 252310, Note_on_c, 0, 50, 0
2, 252310, Note_on_c, 0, 60, 0
2, 252310, Note_on_c, 0, 57, 0
2, 252318, Note_on_c, 0, 53, 0
2, 252394, Note_on_c, 0, 60, 44
2, 252398, Note_on_c, 0, 91, 50
2, 252406, Control_c, 0, 64, 127
2, 252414, Note_on_c, 0, 53, 42
2, 252418, Note_on_c, 0, 79, 50
2, 252418, Note_on_c, 0, 86, 54
2, 252418, Note_on_c, 0, 50, 34
2, 252426, Note_on_c, 0, 57, 33
2, 252482, Note_on_c, 0, 57, 0
2, 252510, Note_on_c, 0, 60, 0
2, 252514, Note_on_c, 0, 91, 0
2, 252518, Note_on_c, 0, 86, 0
2, 252522, Note_on_c, 0, 79, 0
2, 252526, Note_on_c, 0, 50, 0
2, 252526, Note_on_c, 0, 53, 0
2, 252562, Control_c, 0, 64, 0
2, 252622, Note_on_c, 0, 89, 53
2, 252630, Note_on_c, 0, 60, 50
2, 252630, Note_on_c, 0, 84, 54
2, 252634, Note_on_c, 0, 77, 48
2, 252638, Note_on_c, 0, 50, 31
2, 252642, Note_on_c, 0, 53, 45
2, 252650, Note_on_c, 0, 57, 45
2, 252662, Note_on_c, 0, 77, 0
2, 252678, Note_on_c, 0, 50, 0
2, 252678, Note_on_c, 0, 57, 0
2, 252682, Note_on_c, 0, 53, 0
2, 252694, Note_on_c, 0, 60, 0
2, 252702, Note_on_c, 0, 84, 0
2, 252714, Note_on_c, 0, 89, 0
2, 252950, Note_on_c, 0, 93, 61
2, 252970, Note_on_c, 0, 62, 49
2, 252970, Note_on_c, 0, 81, 42
2, 252970, Note_on_c, 0, 58, 46
2, 252982, Note_on_c, 0, 86, 45
2, 252982, Note_on_c, 0, 53, 39
2, 252982, Note_on_c, 0, 57, 45
2, 253026, Note_on_c, 0, 86, 0
2, 253038, Note_on_c, 0, 81, 0
2, 253042, Note_on_c, 0, 62, 0
2, 253058, Note_on_c, 0, 57, 0
2, 253074, Note_on_c, 0, 58, 0
2, 253086, Note_on_c, 0, 93, 0
2, 253090, Note_on_c, 0, 53, 0
2, 253326, Note_on_c, 0, 93, 57
2, 253334, Note_on_c, 0, 58, 43
2, 253342, Note_on_c, 0, 62, 43
2, 253346, Note_on_c, 0, 86, 49
2, 253350, Note_on_c, 0, 53, 42
2, 253350, Note_on_c, 0, 57, 46
2, 253350, Note_on_c, 0, 81, 39
2, 253374, Control_c, 0, 64, 127
2, 253534, Note_on_c, 0, 93, 0
2, 253582, Note_on_c, 0, 86, 0
2, 253610, Note_on_c, 0, 58, 0
2, 253618, Note_on_c, 0, 62, 0
2, 253622, Note_on_c, 0, 81, 0
2, 253634, Note_on_c, 0, 53, 0
2, 253642, Note_on_c, 0, 57, 0
2, 254438, Note_on_c, 0, 68, 94
2, 254438, Note_on_c, 0, 58, 81
2, 254442, Note_on_c, 0, 74, 89
2, 254446, Note_on_c, 0, 64, 89
2, 254474, Control_c, 0, 64, 0
2, 254546, Note_on_c, 0, 74, 0
2, 254558, Note_on_c, 0, 64, 0
2, 254590, Note_on_c, 0, 68, 0
2, 254598, Note_on_c, 0, 58, 0
2, 254634, Note_on_c, 0, 72, 70
2, 254638, Note_on_c, 0, 57, 61
2, 254638, Note_on_c, 0, 67, 68
2, 254638, Note_on_c, 0, 62, 63
2, 254906, Note_on_c, 0, 72, 0
2, 254914, Control_c, 0, 64, 127
2, 254922, Note_on_c, 0, 67, 0
2, 254966, Note_on_c, 0, 62, 0
2, 255134, Note_on_c, 0, 57, 0
2, 255194, Note_on_c, 0, 69, 76
2, 255202, Note_on_c, 0, 53, 70
2, 255202, Note_on_c, 0, 60, 78
2, 255218, Note_on_c, 0, 64, 48
2, 255246, Note_on_c, 0, 64, 0
2, 255254, Note_on_c, 0, 69, 0
2, 255266, Note_on_c, 0, 60, 0
2, 255270, Note_on_c, 0, 53, 0
2, 255298, Control_c, 0, 64, 0
2, 255398, Note_on_c, 0, 67, 63
2, 255410, Note_on_c, 0, 57, 56
2, 255410, Note_on_c, 0, 60, 54
2, 255414, Note_on_c, 0, 53, 58
2, 255562, Note_on_c, 0, 57, 0
2, 255594, Note_on_c, 0, 67, 0
2, 255598, Note_on_c, 0, 60, 0
2, 255610, Note_on_c, 0, 53, 0
2, 255642, Note_on_c, 0, 57, 58
2, 255646, Note_on_c, 0, 65, 63
2, 255650, Note_on_c, 0, 50, 54
2, 255666, Note_on_c, 0, 60, 30
2, 255678, Note_on_c, 0, 50, 0
2, 255678, Note_on_c, 0, 57, 0
2, 255702, Note_on_c, 0, 60, 0
2, 255726, Note_on_c, 0, 65, 0
2, 255978, Note_on_c, 0, 55, 48
2, 255994, Note_on_c, 0, 58, 62
2, 255998, Note_on_c, 0, 69, 56
2, 256006, Note_on_c, 0, 55, 0
2, 256006, Note_on_c, 0, 62, 55
2, 256010, Note_on_c, 0, 57, 59
2, 256018, Note_on_c, 0, 65, 47
2, 256150, Control_c, 0, 64, 127
2, 256190, Control_c, 0, 64, 0
2, 256246, Control_c, 0, 64, 127
2, 256390, Note_on_c, 0, 69, 0
2, 256406, Note_on_c, 0, 57, 0
2, 256434, Note_on_c, 0, 65, 0
2, 256442, Note_on_c, 0, 62, 0
2, 256498, Note_on_c, 0, 67, 63
2, 256542, Note_on_c, 0, 58, 0
2, 256794, Control_c, 0, 64, 72
2, 256798, Control_c, 0, 64, 0
2, 256842, Note_on_c, 0, 67, 0
2, 256874, Note_on_c, 0, 56, 54
2, 256874, Note_on_c, 0, 64, 58
2, 256878, Note_on_c, 0, 60, 52
2, 257106, Note_on_c, 0, 56, 0
2, 257126, Note_on_c, 0, 46, 68
2, 257166, Note_on_c, 0, 60, 0
2, 257238, Note_on_c, 0, 64, 0
2, 257254, Control_c, 0, 64, 127
2, 257278, Note_on_c, 0, 56, 34
2, 257346, Note_on_c, 0, 56, 0
2, 257414, Note_on_c, 0, 46, 0
2, 257466, Control_c, 0, 64, 0
2, 257518, Note_on_c, 0, 72, 94
2, 257518, Note_on_c, 0, 69, 94
2, 257518, Note_on_c, 0, 45, 79
2, 257522, Note_on_c, 0, 65, 94
2, 257530, Note_on_c, 0, 55, 76
2, 257602, Note_on_c, 0, 45, 0
2, 257638, Note_on_c, 0, 55, 0
2, 257638, Control_c, 0, 64, 127
2, 257738, Note_on_c, 0, 65, 0
2, 257862, Note_on_c, 0, 69, 0
2, 257894, Note_on_c, 0, 72, 0
2, 258002, Control_c, 0, 64, 0
2, 258038, Note_on_c, 0, 60, 68
2, 258038, Note_on_c, 0, 69, 127
2, 258038, Note_on_c, 0, 65, 83
2, 258046, Note_on_c, 0, 61, 63
2, 258050, Note_on_c, 0, 55, 72
2, 258070, Note_on_c, 0, 58, 45
2, 258162, Control_c, 0, 64, 127
2, 258270, Note_on_c, 0, 55, 0
2, 258286, Note_on_c, 0, 65, 0
2, 258294, Note_on_c, 0, 60, 0
2, 258310, Note_on_c, 0, 69, 0
2, 258314, Note_on_c, 0, 58, 0
2, 258338, Note_on_c, 0, 61, 0
2, 258366, Control_c, 0, 64, 0
2, 258442, Note_on_c, 0, 67, 115
2, 258446, Note_on_c, 0, 60, 67
2, 258446, Note_on_c, 0, 64, 71
2, 258450, Note_on_c, 0, 54, 68
2, 258522, Control_c, 0, 64, 127
2, 258598, Note_on_c, 0, 64, 0
2, 258618, Note_on_c, 0, 60, 0
2, 258686, Note_on_c, 0, 54, 0
2, 258794, Note_on_c, 0, 67, 0
2, 258822, Note_on_c, 0, 63, 71
2, 258826, Note_on_c, 0, 65, 79
2, 258834, Note_on_c, 0, 59, 56
2, 258834, Note_on_c, 0, 53, 54
2, 258878, Note_on_c, 0, 59, 0
2, 258894, Note_on_c, 0, 63, 0
2, 258926, Note_on_c, 0, 53, 0
2, 258966, Note_on_c, 0, 65, 0
2, 258970, Note_on_c, 0, 68, 31
2, 259006, Note_on_c, 0, 68, 0
2, 259130, Control_c, 0, 64, 0
2, 259210, Note_on_c, 0, 55, 60
2, 259210, Note_on_c, 0, 65, 68
2, 259218, Note_on_c, 0, 69, 66
2, 259222, Note_on_c, 0, 59, 70
2, 259278, Control_c, 0, 64, 127
2, 259282, Note_on_c, 0, 55, 0
2, 259410, Note_on_c, 0, 59, 0
2, 259438, Note_on_c, 0, 65, 0
2, 259454, Note_on_c, 0, 69, 0
2, 259498, Control_c, 0, 64, 0
2, 259562, Note_on_c, 0, 49, 56
2, 259590, Note_on_c, 0, 63, 63
2, 259594, Note_on_c, 0, 59, 60
2, 259594, Note_on_c, 0, 65, 56
2, 259614, Control_c, 0, 64, 127
2, 259666, Note_on_c, 0, 49, 0
2, 259726, Note_on_c, 0, 59, 0
2, 259794, Note_on_c, 0, 65, 0
2, 259850, Note_on_c, 0, 63, 0
2, 259914, Control_c, 0, 64, 0
2, 259954, Note_on_c, 0, 36, 57
2, 259974, Note_on_c, 0, 58, 56
2, 259986, Note_on_c, 0, 52, 41
2, 259994, Note_on_c, 0, 62, 49
2, 259994, Note_on_c, 0, 65, 47
2, 260054, Control_c, 0, 64, 127
2, 260182, Note_on_c, 0, 52, 0
2, 260186, Note_on_c, 0, 62, 0
2, 260194, Note_on_c, 0, 65, 0
2, 260238, Note_on_c, 0, 58, 0
2, 260302, Note_on_c, 0, 36, 0
2, 260358, Note_on_c, 0, 58, 48
2, 260370, Note_on_c, 0, 61, 50
2, 260486, Note_on_c, 0, 58, 0
2, 260570, Note_on_c, 0, 61, 0
2, 260578, Control_c, 0, 64, 0
2, 260626, Note_on_c, 0, 65, 56
2, 260626, Note_on_c, 0, 57, 55
2, 260638, Note_on_c, 0, 60, 54
2, 261014, Note_on_c, 0, 47, 45
2, 261106, Note_on_c, 0, 47, 0
2, 261150, Note_on_c, 0, 48, 46
2, 261350, Note_on_c, 0, 48, 0
2, 261510, Note_on_c, 0, 48, 51
2, 261674, Note_on_c, 0, 48, 0
2, 261758, Note_on_c, 0, 48, 46
2, 261826, Note_on_c, 0, 48, 0
2, 262122, Note_on_c, 0, 47, 46
2, 262234, Note_on_c, 0, 47, 0
2, 262258, Note_on_c, 0, 48, 39
2, 262630, Note_on_c, 0, 36, 58
2, 262722, Note_on_c, 0, 36, 0
2, 262898, Note_on_c, 0, 36, 52
2, 263102, Note_on_c, 0, 36, 0
2, 263282, Note_on_c, 0, 36, 45
2, 263718, Note_on_c, 0, 36, 0
2, 263906, Note_on_c, 0, 57, 0
2, 263910, Note_on_c, 0, 60, 0
2, 263966, Note_on_c, 0, 65, 0
2, 264062, Note_on_c, 0, 48, 0
2, 264062, End_track
3, 0, Start_track
3, 0, Title_t, "Track 2"
3, 386, Control_c, 1, 0, 0
3, 386, Control_c, 1, 32, 0
3, 386, Program_c, 1, 32
3, 387, Control_c, 1, 7, 92
3, 387, Control_c, 1, 10, 64
3, 387, Control_c, 1, 91, 12
3, 387, Control_c, 1, 93, 0
3, 1536, Note_on_c, 1, 29, 1
3, 1546, Note_on_c, 1, 29, 0
3, 107878, Control_c, 1, 11, 127
3, 107878, Control_c, 1, 94, 0
3, 107878, Control_c, 1, 101, 0
3, 107879, Control_c, 1, 100, 1
3, 107880, Control_c, 1, 6, 64
3, 107881, Control_c, 1, 38, 0
3, 110018, Note_on_c, 1, 40, 63
3, 110050, Note_on_c, 1, 40, 0
3, 110062, Note_on_c, 1, 41, 72
3, 111966, Note_on_c, 1, 39, 75
3, 111986, Note_on_c, 1, 41, 0
3, 113126, Note_on_c, 1, 51, 79
3, 113178, Note_on_c, 1, 39, 0
3, 113266, Note_on_c, 1, 50, 52
3, 113294, Note_on_c, 1, 51, 0
3, 113302, Note_on_c, 1, 50, 0
3, 113494, Note_on_c, 1, 44, 66
3, 113570, Note_on_c, 1, 44, 0
3, 113638, Note_on_c, 1, 45, 50
3, 114222, Note_on_c, 1, 45, 0
3, 114266, Note_on_c, 1, 37, 48
3, 114366, Note_on_c, 1, 37, 0
3, 114394, Note_on_c, 1, 38, 39
3, 115590, Note_on_c, 1, 33, 55
3, 115830, Note_on_c, 1, 38, 0
3, 116082, Note_on_c, 1, 33, 0
3, 116090, Note_on_c, 1, 29, 56
3, 116182, Note_on_c, 1, 29, 0
3, 116214, Note_on_c, 1, 30, 50
3, 116282, Note_on_c, 1, 30, 0
3, 116322, Note_on_c, 1, 31, 58
3, 116850, Note_on_c, 1, 45, 59
3, 116918, Note_on_c, 1, 45, 0
3, 116954, Note_on_c, 1, 44, 65
3, 117026, Note_on_c, 1, 44, 0
3, 117090, Note_on_c, 1, 43, 60
3, 117098, Note_on_c, 1, 31, 0
3, 117430, Note_on_c, 1, 38, 51
3, 117478, Note_on_c, 1, 43, 0
3, 118258, Note_on_c, 1, 38, 0
3, 118262, Note_on_c, 1, 31, 73
3, 118854, Note_on_c, 1, 31, 0
3, 118866, Note_on_c, 1, 32, 58
3, 118990, Note_on_c, 1, 32, 0
3, 119010, Note_on_c, 1, 33, 66
3, 119354, Note_on_c, 1, 33, 0
3, 119386, Note_on_c, 1, 34, 58
3, 120578, Note_on_c, 1, 49, 38
3, 120662, Note_on_c, 1, 49, 0
3, 120678, Note_on_c, 1, 50, 47
3, 120786, Note_on_c, 1, 50, 0
3, 120830, Note_on_c, 1, 51, 75
3, 120998, Note_on_c, 1, 34, 0
3, 121150, Note_on_c, 1, 38, 66
3, 121210, Note_on_c, 1, 51, 0
3, 121306, Note_on_c, 1, 38, 0
3, 121346, Note_on_c, 1, 39, 63
3, 121622, Note_on_c, 1, 39, 0
3, 121630, Note_on_c, 1, 34, 57
3, 122090, Note_on_c, 1, 34, 0
3, 122118, Note_on_c, 1, 32, 53
3, 122442, Note_on_c, 1, 32, 0
3, 122458, Note_on_c, 1, 33, 52
3, 123250, Note_on_c, 1, 33, 0
3, 123254, Note_on_c, 1, 40, 60
3, 124390, Note_on_c, 1, 40, 0
3, 124402, Note_on_c, 1, 38, 66
3, 124786, Note_on_c, 1, 52, 84
3, 125190, Note_on_c, 1, 38, 0
3, 125278, Note_on_c, 1, 52, 0
3, 125282, Note_on_c, 1, 50, 72
3, 125346, Note_on_c, 1, 50, 0
3, 125404, Note_on_c, 1, 42, 63
3, 125506, Note_on_c, 1, 42, 0
3, 125550, Note_on_c, 1, 43, 58
3, 126062, Note_on_c, 1, 43, 0
3, 126066, Note_on_c, 1, 38, 58
3, 126114, Note_on_c, 1, 38, 0
3, 126182, Note_on_c, 1, 34, 65
3, 126238, Note_on_c, 1, 34, 0
3, 126306, Note_on_c, 1, 31, 68
3, 127310, Note_on_c, 1, 31, 0
3, 127334, Note_on_c, 1, 36, 61
3, 127366, Note_on_c, 1, 36, 0
3, 127470, Note_on_c, 1, 48, 88
3, 127734, Note_on_c, 1, 50, 68
3, 127746, Note_on_c, 1, 48, 0
3, 127822, Note_on_c, 1, 50, 0
3, 127870, Note_on_c, 1, 48, 56
3, 128114, Note_on_c, 1, 36, 39
3, 128150, Note_on_c, 1, 36, 0
3, 128482, Note_on_c, 1, 46, 61
3, 128522, Note_on_c, 1, 48, 0
3, 128590, Note_on_c, 1, 46, 0
3, 128638, Note_on_c, 1, 45, 56
3, 128686, Note_on_c, 1, 45, 0
3, 128998, Note_on_c, 1, 40, 63
3, 129370, Note_on_c, 1, 40, 0
3, 129394, Note_on_c, 1, 33, 63
3, 130034, Note_on_c, 1, 38, 87
3, 130074, Note_on_c, 1, 33, 0
3, 130566, Note_on_c, 1, 45, 79
3, 130594, Note_on_c, 1, 38, 0
3, 130810, Note_on_c, 1, 38, 57
3, 130858, Note_on_c, 1, 38, 0
3, 130906, Note_on_c, 1, 45, 0
3, 130942, Note_on_c, 1, 43, 61
3, 131534, Note_on_c, 1, 38, 63
3, 131614, Note_on_c, 1, 43, 0
3, 131694, Note_on_c, 1, 38, 0
3, 131694, Note_on_c, 1, 37, 74
3, 132618, Note_on_c, 1, 53, 56
3, 132710, Note_on_c, 1, 53, 0
3, 132738, Note_on_c, 1, 52, 50
3, 132810, Note_on_c, 1, 52, 0
3, 132866, Note_on_c, 1, 53, 60
3, 133270, Note_on_c, 1, 37, 0
3, 133462, Note_on_c, 1, 53, 0
3, 133466, Note_on_c, 1, 52, 57
3, 133574, Note_on_c, 1, 52, 0
3, 133614, Note_on_c, 1, 48, 50
3, 134226, Note_on_c, 1, 48, 0
3, 134230, Note_on_c, 1, 36, 55
3, 134326, Note_on_c, 1, 36, 0
3, 134374, Note_on_c, 1, 40, 63
3, 134978, Note_on_c, 1, 40, 0
3, 135006, Note_on_c, 1, 41, 63
3, 135074, Note_on_c, 1, 41, 0
3, 135162, Note_on_c, 1, 36, 39
3, 135798, Note_on_c, 1, 36, 0
3, 135810, Note_on_c, 1, 33, 56
3, 135838, Note_on_c, 1, 33, 0
3, 135942, Note_on_c, 1, 41, 57
3, 136006, Note_on_c, 1, 41, 0
3, 136178, Note_on_c, 1, 40, 63
3, 136246, Note_on_c, 1, 40, 0
3, 136310, Note_on_c, 1, 39, 64
3, 137070, Note_on_c, 1, 55, 57
3, 137806, Note_on_c, 1, 55, 0
3, 137814, Note_on_c, 1, 39, 0
3, 137830, Note_on_c, 1, 54, 49
3, 137834, Note_on_c, 1, 38, 48
3, 138050, Note_on_c, 1, 54, 0
3, 138054, Note_on_c, 1, 38, 0
3, 138054, Note_on_c, 1, 37, 51
3, 138102, Note_on_c, 1, 53, 28
3, 138178, Note_on_c, 1, 53, 0
3, 138182, Note_on_c, 1, 37, 0
3, 138202, Note_on_c, 1, 54, 50
3, 138206, Note_on_c, 1, 38, 42
3, 138754, Note_on_c, 1, 54, 0
3, 138842, Note_on_c, 1, 38, 0
3, 138846, Note_on_c, 1, 33, 66
3, 139742, Note_on_c, 1, 33, 0
3, 139754, Note_on_c, 1, 30, 68
3, 140366, Note_on_c, 1, 30, 0
3, 140386, Note_on_c, 1, 38, 63
3, 140450, Note_on_c, 1, 38, 0
3, 140498, Note_on_c, 1, 30, 60
3, 140878, Note_on_c, 1, 30, 0
3, 140894, Note_on_c, 1, 31, 68
3, 141438, Note_on_c, 1, 45, 58
3, 141502, Note_on_c, 1, 45, 0
3, 141550, Note_on_c, 1, 44, 67
3, 141646, Note_on_c, 1, 44, 0
3, 141670, Note_on_c, 1, 43, 68
3, 141686, Note_on_c, 1, 31, 0
3, 141918, Note_on_c, 1, 38, 57
3, 141930, Note_on_c, 1, 43, 0
3, 141998, Note_on_c, 1, 38, 0
3, 142054, Note_on_c, 1, 34, 68
3, 142646, Note_on_c, 1, 34, 0
3, 142674, Note_on_c, 1, 33, 81
3, 143450, Note_on_c, 1, 32, 68
3, 143466, Note_on_c, 1, 33, 0
3, 143562, Note_on_c, 1, 32, 0
3, 143582, Note_on_c, 1, 31, 71
3, 143934, Note_on_c, 1, 31, 0
3, 143962, Note_on_c, 1, 34, 57
3, 144350, Note_on_c, 1, 34, 0
3, 144350, Note_on_c, 1, 41, 65
3, 144734, Note_on_c, 1, 49, 69
3, 144998, Note_on_c, 1, 51, 62
3, 145006, Note_on_c, 1, 49, 0
3, 145102, Note_on_c, 1, 51, 0
3, 145142, Note_on_c, 1, 49, 41
3, 145482, Note_on_c, 1, 49, 0
3, 145510, Note_on_c, 1, 48, 54
3, 145562, Note_on_c, 1, 41, 0
3, 146154, Note_on_c, 1, 46, 66
3, 146170, Note_on_c, 1, 48, 0
3, 146530, Note_on_c, 1, 39, 69
3, 146578, Note_on_c, 1, 46, 0
3, 146802, Note_on_c, 1, 46, 60
3, 146822, Note_on_c, 1, 39, 0
3, 146854, Note_on_c, 1, 46, 0
3, 146906, Note_on_c, 1, 39, 60
3, 146994, Note_on_c, 1, 39, 0
3, 147046, Note_on_c, 1, 45, 69
3, 147674, Note_on_c, 1, 40, 61
3, 147710, Note_on_c, 1, 45, 0
3, 147774, Note_on_c, 1, 40, 0
3, 147798, Note_on_c, 1, 36, 56
3, 148826, Note_on_c, 1, 36, 0
3, 148826, Note_on_c, 1, 37, 63
3, 148938, Note_on_c, 1, 37, 0
3, 148978, Note_on_c, 1, 38, 57
3, 149358, Note_on_c, 1, 50, 85
3, 149370, Note_on_c, 1, 38, 0
3, 149974, Note_on_c, 1, 48, 68
3, 150010, Note_on_c, 1, 50, 0
3, 150078, Note_on_c, 1, 48, 0
3, 150122, Note_on_c, 1, 47, 66
3, 150186, Note_on_c, 1, 47, 0
3, 150366, Note_on_c, 1, 47, 70
3, 150422, Note_on_c, 1, 47, 0
3, 150498, Note_on_c, 1, 47, 67
3, 150878, Note_on_c, 1, 47, 0
3, 150882, Note_on_c, 1, 35, 66
3, 151974, Note_on_c, 1, 35, 0
3, 152018, Note_on_c, 1, 34, 60
3, 152374, Note_on_c, 1, 46, 56
3, 152466, Note_on_c, 1, 46, 0
3, 152534, Note_on_c, 1, 45, 37
3, 152590, Note_on_c, 1, 45, 0
3, 152666, Note_on_c, 1, 46, 59
3, 152854, Note_on_c, 1, 34, 0
3, 153082, Note_on_c, 1, 34, 56
3, 153134, Note_on_c, 1, 34, 0
3, 153182, Note_on_c, 1, 46, 0
3, 153218, Note_on_c, 1, 45, 65
3, 153846, Note_on_c, 1, 39, 56
3, 153858, Note_on_c, 1, 45, 0
3, 153962, Note_on_c, 1, 39, 0
3, 153990, Note_on_c, 1, 38, 50
3, 154366, Note_on_c, 1, 44, 68
3, 154370, Note_on_c, 1, 38, 0
3, 154862, Note_on_c, 1, 43, 63
3, 154870, Note_on_c, 1, 44, 0
3, 154890, Note_on_c, 1, 43, 0
3, 154978, Note_on_c, 1, 38, 65
3, 155070, Note_on_c, 1, 38, 0
3, 155122, Note_on_c, 1, 37, 62
3, 155690, Note_on_c, 1, 37, 0
3, 155734, Note_on_c, 1, 36, 70
3, 155862, Note_on_c, 1, 50, 76
3, 155890, Note_on_c, 1, 36, 0
3, 156230, Note_on_c, 1, 50, 0
3, 156262, Note_on_c, 1, 48, 80
3, 157418, Note_on_c, 1, 36, 68
3, 157458, Note_on_c, 1, 48, 0
3, 158078, Note_on_c, 1, 49, 83
3, 158222, Note_on_c, 1, 49, 0
3, 158234, Note_on_c, 1, 36, 0
3, 158250, Note_on_c, 1, 48, 74
3, 158594, Note_on_c, 1, 36, 68
3, 158846, Note_on_c, 1, 36, 0
3, 158942, Note_on_c, 1, 36, 81
3, 159090, Note_on_c, 1, 48, 0
3, 160126, Note_on_c, 1, 48, 99
3, 160166, Note_on_c, 1, 36, 0
3, 160382, Note_on_c, 1, 41, 73
3, 160458, Note_on_c, 1, 41, 0
3, 160542, Note_on_c, 1, 40, 68
3, 160714, Note_on_c, 1, 48, 0
3, 160750, Note_on_c, 1, 40, 0
3, 160778, Note_on_c, 1, 39, 81
3, 161906, Note_on_c, 1, 55, 79
3, 162098, Note_on_c, 1, 39, 0
3, 162282, Note_on_c, 1, 39, 57
3, 162362, Note_on_c, 1, 39, 0
3, 162366, Note_on_c, 1, 55, 0
3, 162398, Note_on_c, 1, 50, 61
3, 162742, Note_on_c, 1, 50, 0
3, 162786, Note_on_c, 1, 45, 56
3, 163438, Note_on_c, 1, 38, 65
3, 163454, Note_on_c, 1, 45, 0
3, 164206, Note_on_c, 1, 30, 77
3, 164242, Note_on_c, 1, 38, 0
3, 164938, Note_on_c, 1, 30, 0
3, 164946, Note_on_c, 1, 33, 64
3, 165038, Note_on_c, 1, 33, 0
3, 165078, Note_on_c, 1, 32, 69
3, 165414, Note_on_c, 1, 32, 0
3, 165450, Note_on_c, 1, 31, 68
3, 166218, Note_on_c, 1, 31, 0
3, 166230, Note_on_c, 1, 36, 49
3, 166322, Note_on_c, 1, 36, 0
3, 166358, Note_on_c, 1, 37, 57
3, 166466, Note_on_c, 1, 37, 0
3, 166502, Note_on_c, 1, 38, 68
3, 166790, Note_on_c, 1, 41, 45
3, 166850, Note_on_c, 1, 41, 0
3, 166910, Note_on_c, 1, 42, 43
3, 167010, Note_on_c, 1, 42, 0
3, 167042, Note_on_c, 1, 43, 57
3, 167618, Note_on_c, 1, 43, 0
3, 167646, Note_on_c, 1, 45, 56
3, 167774, Note_on_c, 1, 45, 0
3, 167802, Note_on_c, 1, 46, 66
3, 167822, Note_on_c, 1, 38, 0
3, 167886, Note_on_c, 1, 46, 0
3, 168042, Note_on_c, 1, 45, 63
3, 168118, Note_on_c, 1, 45, 0
3, 168190, Note_on_c, 1, 43, 39
3, 168222, Note_on_c, 1, 43, 0
3, 168422, Note_on_c, 1, 38, 58
3, 168462, Note_on_c, 1, 38, 0
3, 168558, Note_on_c, 1, 46, 66
3, 169214, Note_on_c, 1, 41, 53
3, 169274, Note_on_c, 1, 46, 0
3, 169298, Note_on_c, 1, 41, 0
3, 169346, Note_on_c, 1, 39, 66
3, 170118, Note_on_c, 1, 51, 45
3, 170374, Note_on_c, 1, 39, 0
3, 170770, Note_on_c, 1, 39, 32
3, 170786, Note_on_c, 1, 51, 0
3, 170826, Note_on_c, 1, 39, 0
3, 170870, Note_on_c, 1, 51, 68
3, 171482, Note_on_c, 1, 44, 56
3, 171550, Note_on_c, 1, 51, 0
3, 171586, Note_on_c, 1, 44, 0
3, 171622, Note_on_c, 1, 45, 68
3, 171954, Note_on_c, 1, 45, 0
3, 172002, Note_on_c, 1, 40, 63
3, 172586, Note_on_c, 1, 40, 0
3, 172622, Note_on_c, 1, 33, 53
3, 172690, Note_on_c, 1, 33, 0
3, 172730, Note_on_c, 1, 37, 65
3, 173102, Note_on_c, 1, 37, 0
3, 173134, Note_on_c, 1, 38, 65
3, 173946, Note_on_c, 1, 45, 88
3, 173970, Note_on_c, 1, 38, 0
3, 174594, Note_on_c, 1, 38, 58
3, 174630, Note_on_c, 1, 38, 0
3, 174654, Note_on_c, 1, 45, 0
3, 174702, Note_on_c, 1, 43, 64
3, 174950, Note_on_c, 1, 43, 0
3, 174970, Note_on_c, 1, 42, 44
3, 175074, Note_on_c, 1, 42, 0
3, 175094, Note_on_c, 1, 43, 61
3, 175350, Note_on_c, 1, 43, 0
3, 175366, Note_on_c, 1, 42, 41
3, 175434, Note_on_c, 1, 42, 0
3, 175478, Note_on_c, 1, 43, 57
3, 175970, Note_on_c, 1, 43, 0
3, 175990, Note_on_c, 1, 49, 57
3, 176122, Note_on_c, 1, 49, 0
3, 176158, Note_on_c, 1, 47, 36
3, 176194, Note_on_c, 1, 47, 0
3, 176250, Note_on_c, 1, 48, 73
3, 176898, Note_on_c, 1, 42, 31
3, 176934, Note_on_c, 1, 42, 0
3, 177002, Note_on_c, 1, 48, 0
3, 177014, Note_on_c, 1, 46, 69
3, 177646, Note_on_c, 1, 39, 48
3, 177670, Note_on_c, 1, 39, 0
3, 177766, Note_on_c, 1, 45, 72
3, 177778, Note_on_c, 1, 46, 0
3, 177806, Note_on_c, 1, 45, 0
3, 178006, Note_on_c, 1, 40, 63
3, 178114, Note_on_c, 1, 40, 0
3, 178130, Note_on_c, 1, 37, 66
3, 178502, Note_on_c, 1, 37, 0
3, 178530, Note_on_c, 1, 33, 76
3, 178962, Note_on_c, 1, 39, 74
3, 179010, Note_on_c, 1, 33, 0
3, 179126, Note_on_c, 1, 39, 0
3, 179150, Note_on_c, 1, 37, 74
3, 179214, Note_on_c, 1, 37, 0
3, 179254, Note_on_c, 1, 37, 71
3, 179278, Note_on_c, 1, 37, 0
3, 179278, Note_on_c, 1, 36, 62
3, 179278, Note_on_c, 1, 38, 68
3, 179310, Note_on_c, 1, 36, 0
3, 179682, Note_on_c, 1, 45, 96
3, 179690, Note_on_c, 1, 38, 0
3, 180326, Note_on_c, 1, 38, 69
3, 180386, Note_on_c, 1, 38, 0
3, 180410, Note_on_c, 1, 45, 0
3, 180450, Note_on_c, 1, 43, 68
3, 180802, Note_on_c, 1, 43, 0
3, 180838, Note_on_c, 1, 37, 73
3, 181614, Note_on_c, 1, 49, 81
3, 182142, Note_on_c, 1, 49, 0
3, 182178, Note_on_c, 1, 51, 74
3, 182262, Note_on_c, 1, 51, 0
3, 182294, Note_on_c, 1, 52, 74
3, 182326, Note_on_c, 1, 37, 0
3, 182386, Note_on_c, 1, 52, 0
3, 182414, Note_on_c, 1, 49, 57
3, 182610, Note_on_c, 1, 49, 0
3, 182662, Note_on_c, 1, 37, 41
3, 182694, Note_on_c, 1, 37, 0
3, 182758, Note_on_c, 1, 48, 72
3, 183366, Note_on_c, 1, 48, 0
3, 183402, Note_on_c, 1, 42, 56
3, 183434, Note_on_c, 1, 42, 0
3, 183498, Note_on_c, 1, 46, 56
3, 183642, Note_on_c, 1, 46, 0
3, 183774, Note_on_c, 1, 44, 58
3, 183798, Note_on_c, 1, 40, 38
3, 183834, Note_on_c, 1, 40, 0
3, 183850, Note_on_c, 1, 44, 0
3, 183898, Note_on_c, 1, 45, 55
3, 184126, Note_on_c, 1, 45, 0
3, 184146, Note_on_c, 1, 40, 61
3, 184242, Note_on_c, 1, 40, 0
3, 184282, Note_on_c, 1, 41, 62
3, 184518, Note_on_c, 1, 41, 0
3, 184554, Note_on_c, 1, 35, 49
3, 184650, Note_on_c, 1, 35, 0
3, 184678, Note_on_c, 1, 36, 58
3, 185326, Note_on_c, 1, 29, 62
3, 185334, Note_on_c, 1, 36, 0
3, 185462, Note_on_c, 1, 29, 0
3, 185474, Note_on_c, 1, 27, 70
3, 185866, Note_on_c, 1, 39, 84
3, 185910, Note_on_c, 1, 27, 0
3, 186890, Note_on_c, 1, 34, 48
3, 186962, Note_on_c, 1, 39, 0
3, 186974, Note_on_c, 1, 34, 0
3, 186998, Note_on_c, 1, 38, 61
3, 187382, Note_on_c, 1, 51, 66
3, 187742, Note_on_c, 1, 51, 0
3, 187750, Note_on_c, 1, 50, 59
3, 188498, Note_on_c, 1, 38, 0
3, 188530, Note_on_c, 1, 33, 56
3, 189298, Note_on_c, 1, 33, 0
3, 189306, Note_on_c, 1, 38, 68
3, 189558, Note_on_c, 1, 32, 79
3, 189574, Note_on_c, 1, 38, 0
3, 189862, Note_on_c, 1, 50, 0
3, 190066, Note_on_c, 1, 32, 0
3, 190066, Note_on_c, 1, 31, 66
3, 191438, Note_on_c, 1, 38, 57
3, 191490, Note_on_c, 1, 38, 0
3, 191590, Note_on_c, 1, 46, 68
3, 191906, Note_on_c, 1, 46, 0
3, 191982, Note_on_c, 1, 45, 44
3, 192594, Note_on_c, 1, 43, 66
3, 192598, Note_on_c, 1, 45, 0
3, 192886, Note_on_c, 1, 31, 0
3, 193126, Note_on_c, 1, 43, 0
3, 193126, Note_on_c, 1, 34, 66
3, 194150, Note_on_c, 1, 41, 74
3, 194214, Note_on_c, 1, 34, 0
3, 194290, Note_on_c, 1, 41, 0
3, 194326, Note_on_c, 1, 40, 75
3, 194546, Note_on_c, 1, 40, 0
3, 194578, Note_on_c, 1, 39, 72
3, 195086, Note_on_c, 1, 51, 84
3, 195882, Note_on_c, 1, 39, 0
3, 196038, Note_on_c, 1, 44, 63
3, 196098, Note_on_c, 1, 51, 0
3, 196186, Note_on_c, 1, 44, 0
3, 196210, Note_on_c, 1, 45, 56
3, 196578, Note_on_c, 1, 45, 0
3, 196586, Note_on_c, 1, 40, 66
3, 197166, Note_on_c, 1, 40, 0
3, 197218, Note_on_c, 1, 36, 61
3, 197346, Note_on_c, 1, 36, 0
3, 197358, Note_on_c, 1, 37, 63
3, 197686, Note_on_c, 1, 37, 0
3, 197714, Note_on_c, 1, 38, 63
3, 198498, Note_on_c, 1, 38, 0
3, 198502, Note_on_c, 1, 33, 68
3, 199654, Note_on_c, 1, 33, 0
3, 199678, Note_on_c, 1, 35, 85
3, 200814, Note_on_c, 1, 52, 70
3, 200854, Note_on_c, 1, 35, 0
3, 201038, Note_on_c, 1, 52, 0
3, 201058, Note_on_c, 1, 35, 63
3, 201166, Note_on_c, 1, 35, 0
3, 201198, Note_on_c, 1, 46, 76
3, 201814, Note_on_c, 1, 34, 82
3, 201874, Note_on_c, 1, 46, 0
3, 202294, Note_on_c, 1, 34, 0
3, 202334, Note_on_c, 1, 33, 78
3, 203114, Note_on_c, 1, 33, 0
3, 203118, Note_on_c, 1, 38, 85
3, 204226, Note_on_c, 1, 36, 39
3, 204258, Note_on_c, 1, 38, 0
3, 204266, Note_on_c, 1, 36, 0
3, 204294, Note_on_c, 1, 43, 92
3, 204894, Note_on_c, 1, 43, 0
3, 204906, Note_on_c, 1, 36, 98
3, 205806, Note_on_c, 1, 48, 117
3, 206282, Note_on_c, 1, 36, 0
3, 206446, Note_on_c, 1, 36, 107
3, 206518, Note_on_c, 1, 48, 0
3, 207338, Note_on_c, 1, 48, 120
3, 207394, Note_on_c, 1, 36, 0
3, 207726, Note_on_c, 1, 39, 68
3, 207730, Note_on_c, 1, 48, 0
3, 207862, Note_on_c, 1, 39, 0
3, 207986, Note_on_c, 1, 39, 61
3, 208082, Note_on_c, 1, 39, 0
3, 208090, Note_on_c, 1, 40, 70
3, 208366, Note_on_c, 1, 39, 42
3, 208426, Note_on_c, 1, 40, 0
3, 208466, Note_on_c, 1, 39, 0
3, 208482, Note_on_c, 1, 41, 72
3, 208850, Note_on_c, 1, 41, 0
3, 208878, Note_on_c, 1, 35, 64
3, 209242, Note_on_c, 1, 35, 0
3, 209242, Note_on_c, 1, 36, 63
3, 209518, Note_on_c, 1, 34, 58
3, 209566, Note_on_c, 1, 36, 0
3, 209614, Note_on_c, 1, 40, 76
3, 209626, Note_on_c, 1, 34, 0
3, 209898, Note_on_c, 1, 36, 49
3, 209938, Note_on_c, 1, 36, 0
3, 209962, Note_on_c, 1, 40, 0
3, 209998, Note_on_c, 1, 39, 68
3, 210378, Note_on_c, 1, 39, 0
3, 210382, Note_on_c, 1, 33, 63
3, 210762, Note_on_c, 1, 33, 0
3, 210762, Note_on_c, 1, 34, 66
3, 211026, Note_on_c, 1, 32, 54
3, 211110, Note_on_c, 1, 32, 0
3, 211122, Note_on_c, 1, 34, 0
3, 211138, Note_on_c, 1, 39, 77
3, 211418, Note_on_c, 1, 37, 61
3, 211430, Note_on_c, 1, 39, 0
3, 211550, Note_on_c, 1, 38, 60
3, 211554, Note_on_c, 1, 37, 0
3, 211826, Note_on_c, 1, 37, 54
3, 211886, Note_on_c, 1, 38, 0
3, 211926, Note_on_c, 1, 37, 0
3, 211930, Note_on_c, 1, 51, 80
3, 212262, Note_on_c, 1, 51, 0
3, 212302, Note_on_c, 1, 50, 68
3, 212690, Note_on_c, 1, 45, 77
3, 212694, Note_on_c, 1, 50, 0
3, 213046, Note_on_c, 1, 45, 0
3, 213066, Note_on_c, 1, 42, 62
3, 213442, Note_on_c, 1, 42, 0
3, 213466, Note_on_c, 1, 39, 66
3, 213814, Note_on_c, 1, 39, 0
3, 213834, Note_on_c, 1, 38, 70
3, 214210, Note_on_c, 1, 30, 88
3, 214218, Note_on_c, 1, 38, 0
3, 214594, Note_on_c, 1, 30, 0
3, 214606, Note_on_c, 1, 31, 75
3, 214818, Note_on_c, 1, 31, 0
3, 214882, Note_on_c, 1, 31, 78
3, 214970, Note_on_c, 1, 31, 0
3, 214998, Note_on_c, 1, 33, 79
3, 215374, Note_on_c, 1, 33, 0
3, 215382, Note_on_c, 1, 34, 74
3, 215778, Note_on_c, 1, 45, 86
3, 215854, Note_on_c, 1, 34, 0
3, 216150, Note_on_c, 1, 45, 0
3, 216162, Note_on_c, 1, 43, 72
3, 216458, Note_on_c, 1, 38, 49
3, 216498, Note_on_c, 1, 38, 0
3, 216522, Note_on_c, 1, 43, 0
3, 216534, Note_on_c, 1, 50, 78
3, 216830, Note_on_c, 1, 38, 31
3, 216878, Note_on_c, 1, 38, 0
3, 216882, Note_on_c, 1, 50, 0
3, 216918, Note_on_c, 1, 48, 76
3, 217210, Note_on_c, 1, 38, 43
3, 217246, Note_on_c, 1, 38, 0
3, 217278, Note_on_c, 1, 48, 0
3, 217298, Note_on_c, 1, 47, 68
3, 217666, Note_on_c, 1, 47, 0
3, 217690, Note_on_c, 1, 46, 70
3, 218086, Note_on_c, 1, 41, 68
3, 218098, Note_on_c, 1, 46, 0
3, 218442, Note_on_c, 1, 41, 0
3, 218466, Note_on_c, 1, 34, 63
3, 218834, Note_on_c, 1, 40, 73
3, 218858, Note_on_c, 1, 34, 0
3, 219146, Note_on_c, 1, 40, 0
3, 219146, Note_on_c, 1, 34, 48
3, 219222, Note_on_c, 1, 39, 68
3, 219230, Note_on_c, 1, 34, 0
3, 219570, Note_on_c, 1, 39, 0
3, 219614, Note_on_c, 1, 39, 83
3, 219970, Note_on_c, 1, 39, 0
3, 219978, Note_on_c, 1, 34, 74
3, 220378, Note_on_c, 1, 34, 0
3, 220414, Note_on_c, 1, 34, 73
3, 220754, Note_on_c, 1, 34, 0
3, 220762, Note_on_c, 1, 33, 70
3, 221146, Note_on_c, 1, 33, 0
3, 221154, Note_on_c, 1, 40, 80
3, 221538, Note_on_c, 1, 45, 79
3, 221554, Note_on_c, 1, 40, 0
3, 221902, Note_on_c, 1, 45, 0
3, 221914, Note_on_c, 1, 37, 74
3, 222286, Note_on_c, 1, 37, 0
3, 222306, Note_on_c, 1, 38, 79
3, 222626, Note_on_c, 1, 37, 18
3, 222682, Note_on_c, 1, 37, 0
3, 222690, Note_on_c, 1, 52, 94
3, 222698, Note_on_c, 1, 38, 0
3, 222978, Note_on_c, 1, 38, 49
3, 223038, Note_on_c, 1, 52, 0
3, 223054, Note_on_c, 1, 38, 0
3, 223066, Note_on_c, 1, 50, 74
3, 223346, Note_on_c, 1, 38, 67
3, 223382, Note_on_c, 1, 50, 0
3, 223438, Note_on_c, 1, 48, 72
3, 223442, Note_on_c, 1, 38, 0
3, 223734, Note_on_c, 1, 42, 39
3, 223770, Note_on_c, 1, 42, 0
3, 223810, Note_on_c, 1, 48, 0
3, 223826, Note_on_c, 1, 46, 73
3, 224094, Note_on_c, 1, 42, 56
3, 224126, Note_on_c, 1, 42, 0
3, 224170, Note_on_c, 1, 46, 0
3, 224206, Note_on_c, 1, 45, 75
3, 224578, Note_on_c, 1, 45, 0
3, 224602, Note_on_c, 1, 43, 72
3, 224982, Note_on_c, 1, 37, 68
3, 224994, Note_on_c, 1, 43, 0
3, 225362, Note_on_c, 1, 36, 74
3, 225374, Note_on_c, 1, 37, 0
3, 225714, Note_on_c, 1, 36, 0
3, 225758, Note_on_c, 1, 36, 84
3, 226110, Note_on_c, 1, 36, 0
3, 226130, Note_on_c, 1, 34, 74
3, 226522, Note_on_c, 1, 39, 81
3, 226534, Note_on_c, 1, 34, 0
3, 226866, Note_on_c, 1, 39, 0
3, 226898, Note_on_c, 1, 40, 77
3, 227310, Note_on_c, 1, 46, 85
3, 227314, Note_on_c, 1, 40, 0
3, 227574, Note_on_c, 1, 40, 66
3, 227638, Note_on_c, 1, 40, 0
3, 227642, Note_on_c, 1, 46, 0
3, 227678, Note_on_c, 1, 45, 68
3, 227934, Note_on_c, 1, 40, 77
3, 227970, Note_on_c, 1, 45, 0
3, 228030, Note_on_c, 1, 40, 0
3, 228058, Note_on_c, 1, 37, 77
3, 228422, Note_on_c, 1, 37, 0
3, 228434, Note_on_c, 1, 38, 75
3, 228730, Note_on_c, 1, 37, 57
3, 228790, Note_on_c, 1, 38, 0
3, 228810, Note_on_c, 1, 37, 0
3, 228834, Note_on_c, 1, 45, 85
3, 228858, Note_on_c, 1, 46, 40
3, 228890, Note_on_c, 1, 46, 0
3, 229330, Note_on_c, 1, 45, 0
3, 229330, Note_on_c, 1, 43, 63
3, 229354, Note_on_c, 1, 43, 0
3, 229450, Note_on_c, 1, 38, 66
3, 229518, Note_on_c, 1, 38, 0
3, 229574, Note_on_c, 1, 34, 68
3, 229930, Note_on_c, 1, 34, 0
3, 229982, Note_on_c, 1, 36, 89
3, 230318, Note_on_c, 1, 36, 0
3, 230366, Note_on_c, 1, 36, 81
3, 230766, Note_on_c, 1, 48, 88
3, 231042, Note_on_c, 1, 43, 53
3, 231074, Note_on_c, 1, 43, 0
3, 231102, Note_on_c, 1, 48, 0
3, 231142, Note_on_c, 1, 49, 82
3, 231418, Note_on_c, 1, 43, 38
3, 231470, Note_on_c, 1, 43, 0
3, 231778, Note_on_c, 1, 43, 63
3, 231810, Note_on_c, 1, 43, 0
3, 231826, Note_on_c, 1, 36, 0
3, 231878, Note_on_c, 1, 49, 0
3, 231886, Note_on_c, 1, 48, 71
3, 232286, Note_on_c, 1, 39, 72
3, 232306, Note_on_c, 1, 48, 0
3, 232438, Note_on_c, 1, 39, 0
3, 232546, Note_on_c, 1, 39, 63
3, 232634, Note_on_c, 1, 39, 0
3, 232658, Note_on_c, 1, 40, 68
3, 232946, Note_on_c, 1, 39, 40
3, 233030, Note_on_c, 1, 40, 0
3, 233034, Note_on_c, 1, 39, 0
3, 233050, Note_on_c, 1, 41, 66
3, 233342, Note_on_c, 1, 39, 45
3, 233446, Note_on_c, 1, 53, 74
3, 233458, Note_on_c, 1, 41, 0
3, 233494, Note_on_c, 1, 39, 0
3, 233734, Note_on_c, 1, 41, 35
3, 233778, Note_on_c, 1, 41, 0
3, 233794, Note_on_c, 1, 53, 0
3, 233826, Note_on_c, 1, 52, 61
3, 234106, Note_on_c, 1, 41, 45
3, 234158, Note_on_c, 1, 41, 0
3, 234190, Note_on_c, 1, 52, 0
3, 234210, Note_on_c, 1, 50, 64
3, 234486, Note_on_c, 1, 41, 46
3, 234534, Note_on_c, 1, 41, 0
3, 234550, Note_on_c, 1, 50, 0
3, 234582, Note_on_c, 1, 51, 68
3, 234898, Note_on_c, 1, 41, 36
3, 234930, Note_on_c, 1, 51, 0
3, 234934, Note_on_c, 1, 41, 0
3, 234978, Note_on_c, 1, 51, 80
3, 235234, Note_on_c, 1, 39, 43
3, 235262, Note_on_c, 1, 39, 0
3, 235350, Note_on_c, 1, 46, 61
3, 235354, Note_on_c, 1, 51, 0
3, 235710, Note_on_c, 1, 46, 0
3, 235726, Note_on_c, 1, 39, 67
3, 236022, Note_on_c, 1, 37, 44
3, 236058, Note_on_c, 1, 39, 0
3, 236082, Note_on_c, 1, 37, 0
3, 236110, Note_on_c, 1, 38, 68
3, 236526, Note_on_c, 1, 50, 62
3, 236598, Note_on_c, 1, 50, 0
3, 236622, Note_on_c, 1, 49, 52
3, 236726, Note_on_c, 1, 49, 0
3, 236766, Note_on_c, 1, 50, 68
3, 237286, Note_on_c, 1, 33, 66
3, 237294, Note_on_c, 1, 38, 0
3, 237326, Note_on_c, 1, 50, 0
3, 237674, Note_on_c, 1, 38, 66
3, 237682, Note_on_c, 1, 33, 0
3, 238054, Note_on_c, 1, 30, 79
3, 238058, Note_on_c, 1, 38, 0
3, 238430, Note_on_c, 1, 30, 0
3, 238446, Note_on_c, 1, 38, 72
3, 238802, Note_on_c, 1, 38, 0
3, 238818, Note_on_c, 1, 30, 75
3, 239174, Note_on_c, 1, 30, 0
3, 239190, Note_on_c, 1, 31, 75
3, 239590, Note_on_c, 1, 31, 0
3, 239594, Note_on_c, 1, 33, 74
3, 239942, Note_on_c, 1, 33, 0
3, 239962, Note_on_c, 1, 34, 68
3, 240326, Note_on_c, 1, 34, 0
3, 240346, Note_on_c, 1, 38, 72
3, 240738, Note_on_c, 1, 43, 78
3, 240750, Note_on_c, 1, 38, 0
3, 241062, Note_on_c, 1, 38, 38
3, 241086, Note_on_c, 1, 43, 0
3, 241114, Note_on_c, 1, 38, 0
3, 241134, Note_on_c, 1, 43, 81
3, 241514, Note_on_c, 1, 38, 67
3, 241518, Note_on_c, 1, 43, 0
3, 241786, Note_on_c, 1, 37, 57
3, 241870, Note_on_c, 1, 37, 0
3, 241898, Note_on_c, 1, 48, 81
3, 241938, Note_on_c, 1, 38, 0
3, 242162, Note_on_c, 1, 38, 51
3, 242234, Note_on_c, 1, 38, 0
3, 242258, Note_on_c, 1, 48, 0
3, 242270, Note_on_c, 1, 46, 68
3, 242570, Note_on_c, 1, 39, 31
3, 242598, Note_on_c, 1, 46, 0
3, 242610, Note_on_c, 1, 39, 0
3, 242658, Note_on_c, 1, 46, 69
3, 243034, Note_on_c, 1, 46, 0
3, 243034, Note_on_c, 1, 41, 81
3, 243398, Note_on_c, 1, 41, 0
3, 243422, Note_on_c, 1, 40, 74
3, 243806, Note_on_c, 1, 40, 0
3, 243806, Note_on_c, 1, 39, 80
3, 244162, Note_on_c, 1, 39, 0
3, 244206, Note_on_c, 1, 39, 83
3, 244590, Note_on_c, 1, 46, 76
3, 244602, Note_on_c, 1, 39, 0
3, 244870, Note_on_c, 1, 39, 67
3, 244942, Note_on_c, 1, 46, 0
3, 244982, Note_on_c, 1, 44, 67
3, 244990, Note_on_c, 1, 39, 0
3, 245238, Note_on_c, 1, 39, 60
3, 245290, Note_on_c, 1, 39, 0
3, 245330, Note_on_c, 1, 44, 0
3, 245362, Note_on_c, 1, 45, 67
3, 245618, Note_on_c, 1, 40, 66
3, 245630, Note_on_c, 1, 45, 0
3, 245702, Note_on_c, 1, 40, 0
3, 245730, Note_on_c, 1, 36, 75
3, 246086, Note_on_c, 1, 36, 0
3, 246118, Note_on_c, 1, 33, 74
3, 246490, Note_on_c, 1, 33, 0
3, 246498, Note_on_c, 1, 37, 81
3, 246854, Note_on_c, 1, 37, 0
3, 246878, Note_on_c, 1, 38, 92
3, 247654, Note_on_c, 1, 38, 0
3, 247654, Note_on_c, 1, 36, 92
3, 248382, Note_on_c, 1, 36, 0
3, 248406, Note_on_c, 1, 35, 89
3, 249830, Note_on_c, 1, 34, 83
3, 249878, Note_on_c, 1, 35, 0
3, 250838, Note_on_c, 1, 34, 0
3, 250974, Note_on_c, 1, 50, 85
3, 250974, Note_on_c, 1, 34, 81
3, 251430, Note_on_c, 1, 50, 0
3, 251462, Note_on_c, 1, 34, 0
3, 251502, Note_on_c, 1, 33, 60
3, 251502, Note_on_c, 1, 48, 58
3, 251666, Note_on_c, 1, 48, 0
3, 252170, Note_on_c, 1, 37, 54
3, 252222, Note_on_c, 1, 33, 0
3, 252270, Note_on_c, 1, 37, 0
3, 252294, Note_on_c, 1, 38, 75
3, 253022, Note_on_c, 1, 38, 0
3, 253042, Note_on_c, 1, 31, 65
3, 253310, Note_on_c, 1, 32, 49
3, 253322, Note_on_c, 1, 31, 0
3, 253406, Note_on_c, 1, 32, 0
3, 253426, Note_on_c, 1, 37, 72
3, 253970, Note_on_c, 1, 37, 0
3, 254042, Note_on_c, 1, 36, 81
3, 254190, Note_on_c, 1, 36, 0
3, 254290, Note_on_c, 1, 36, 71
3, 254414, Note_on_c, 1, 34, 81
3, 254434, Note_on_c, 1, 36, 0
3, 254502, Note_on_c, 1, 34, 0
3, 254566, Note_on_c, 1, 33, 87
3, 255238, Note_on_c, 1, 37, 46
3, 255310, Note_on_c, 1, 33, 0
3, 255338, Note_on_c, 1, 38, 77
3, 255362, Note_on_c, 1, 37, 0
3, 255978, Note_on_c, 1, 45, 117
3, 256010, Note_on_c, 1, 38, 0
3, 256118, Note_on_c, 1, 45, 0
3, 256146, Note_on_c, 1, 43, 82
3, 256350, Note_on_c, 1, 43, 0
3, 256394, Note_on_c, 1, 43, 86
3, 256590, Note_on_c, 1, 43, 0
3, 256682, Note_on_c, 1, 37, 76
3, 256902, Note_on_c, 1, 37, 0
3, 256906, Note_on_c, 1, 36, 72
3, 257162, Note_on_c, 1, 34, 85
3, 257186, Note_on_c, 1, 36, 0
3, 257602, Note_on_c, 1, 34, 0
3, 257642, Note_on_c, 1, 33, 77
3, 258402, Note_on_c, 1, 33, 0
3, 258406, Note_on_c, 1, 38, 81
3, 259170, Note_on_c, 1, 43, 86
3, 259242, Note_on_c, 1, 38, 0
3, 259942, Note_on_c, 1, 43, 0
3, 259942, Note_on_c, 1, 36, 68
3, 263514, Note_on_c, 1, 36, 0
3, 263514, End_track
4, 0, Start_track
4, 0, Title_t, "Track 4"
4, 402, Control_c, 9, 0, 0
4, 402, Program_c, 9, 40
4, 403, Control_c, 9, 7, 92
4, 403, Control_c, 9, 10, 64
4, 403, Control_c, 9, 91, 0
4, 403, Control_c, 9, 93, 0
4, 106342, Control_c, 9, 11, 127
4, 106342, Control_c, 9, 94, 0
4, 106342, Control_c, 9, 101, 0
4, 106343, Control_c, 9, 100, 1
4, 106344, Control_c, 9, 6, 64
4, 106345, Control_c, 9, 38, 0
4, 106346, Control_c, 9, 11, 127
4, 106346, Control_c, 9, 94, 0
4, 106346, Control_c, 9, 101, 0
4, 106347, Control_c, 9, 100, 1
4, 106348, Control_c, 9, 6, 64
4, 106349, Control_c, 9, 38, 0
4, 110082, Note_on_c, 9, 59, 29
4, 110114, Note_on_c, 9, 59, 0
4, 110198, Note_on_c, 9, 59, 39
4, 110270, Note_on_c, 9, 59, 0
4, 110598, Note_on_c, 9, 44, 49
4, 110794, Note_on_c, 9, 59, 54
4, 110814, Note_on_c, 9, 44, 0
4, 110818, Note_on_c, 9, 59, 0
4, 111566, Note_on_c, 9, 59, 58
4, 111594, Note_on_c, 9, 59, 0
4, 111974, Note_on_c, 9, 59, 75
4, 112034, Note_on_c, 9, 59, 0
4, 112094, Note_on_c, 9, 59, 65
4, 112186, Note_on_c, 9, 59, 0
4, 113626, Note_on_c, 9, 44, 45
4, 113722, Note_on_c, 9, 44, 0
4, 114190, Note_on_c, 9, 53, 50
4, 114214, Note_on_c, 9, 53, 0
4, 114282, Note_on_c, 9, 53, 36
4, 114358, Note_on_c, 9, 53, 0
4, 114650, Note_on_c, 9, 53, 45
4, 114682, Note_on_c, 9, 53, 0
4, 115026, Note_on_c, 9, 53, 31
4, 115082, Note_on_c, 9, 53, 0
4, 115158, Note_on_c, 9, 46, 37
4, 115174, Note_on_c, 9, 53, 48
4, 115226, Note_on_c, 9, 53, 0
4, 115410, Note_on_c, 9, 51, 54
4, 115438, Note_on_c, 9, 51, 0
4, 115582, Note_on_c, 9, 53, 52
4, 115614, Note_on_c, 9, 53, 0
4, 116258, Note_on_c, 9, 46, 0
4, 116346, Note_on_c, 9, 59, 35
4, 116490, Note_on_c, 9, 59, 0
4, 116974, Note_on_c, 9, 59, 46
4, 117010, Note_on_c, 9, 59, 0
4, 117106, Note_on_c, 9, 59, 44
4, 117298, Note_on_c, 9, 59, 0
4, 118078, Note_on_c, 9, 59, 42
4, 118142, Note_on_c, 9, 59, 0
4, 118218, Note_on_c, 9, 59, 42
4, 118414, Note_on_c, 9, 59, 0
4, 118498, Note_on_c, 9, 59, 54
4, 118598, Note_on_c, 9, 59, 0
4, 118862, Note_on_c, 9, 38, 39
4, 118934, Note_on_c, 9, 38, 0
4, 119014, Note_on_c, 9, 38, 39
4, 119074, Note_on_c, 9, 38, 0
4, 119262, Note_on_c, 9, 38, 50
4, 119282, Note_on_c, 9, 59, 50
4, 119314, Note_on_c, 9, 59, 0
4, 119318, Note_on_c, 9, 38, 0
4, 119438, Note_on_c, 9, 59, 39
4, 119478, Note_on_c, 9, 59, 0
4, 119658, Note_on_c, 9, 51, 46
4, 119658, Note_on_c, 9, 53, 48
4, 119690, Note_on_c, 9, 51, 0
4, 119694, Note_on_c, 9, 53, 0
4, 119814, Note_on_c, 9, 59, 37
4, 119878, Note_on_c, 9, 59, 0
4, 120046, Note_on_c, 9, 53, 38
4, 120058, Note_on_c, 9, 51, 36
4, 120090, Note_on_c, 9, 53, 0
4, 120110, Note_on_c, 9, 51, 0
4, 120178, Note_on_c, 9, 59, 39
4, 120350, Note_on_c, 9, 59, 0
4, 120538, Note_on_c, 9, 44, 53
4, 120554, Note_on_c, 9, 59, 43
4, 120642, Note_on_c, 9, 59, 0
4, 120670, Note_on_c, 9, 44, 0
4, 120782, Note_on_c, 9, 46, 43
4, 120826, Note_on_c, 9, 46, 0
4, 121298, Note_on_c, 9, 44, 45
4, 121310, Note_on_c, 9, 59, 33
4, 121354, Note_on_c, 9, 44, 0
4, 121414, Note_on_c, 9, 59, 0
4, 121566, Note_on_c, 9, 59, 43
4, 121942, Note_on_c, 9, 59, 0
4, 121946, Note_on_c, 9, 45, 26
4, 122010, Note_on_c, 9, 45, 0
4, 122078, Note_on_c, 9, 46, 48
4, 122102, Note_on_c, 9, 59, 35
4, 122270, Note_on_c, 9, 59, 0
4, 122346, Note_on_c, 9, 41, 54
4, 122374, Note_on_c, 9, 41, 0
4, 122502, Note_on_c, 9, 59, 46
4, 122614, Note_on_c, 9, 59, 0
4, 122702, Note_on_c, 9, 46, 0
4, 122898, Note_on_c, 9, 59, 25
4, 122970, Note_on_c, 9, 59, 0
4, 123122, Note_on_c, 9, 59, 44
4, 123154, Note_on_c, 9, 59, 0
4, 123278, Note_on_c, 9, 59, 46
4, 123326, Note_on_c, 9, 59, 0
4, 123842, Note_on_c, 9, 38, 35
4, 123874, Note_on_c, 9, 59, 36
4, 123886, Note_on_c, 9, 38, 0
4, 123910, Note_on_c, 9, 59, 0
4, 124014, Note_on_c, 9, 59, 37
4, 124122, Note_on_c, 9, 59, 0
4, 124658, Note_on_c, 9, 38, 25
4, 124670, Note_on_c, 9, 59, 38
4, 124698, Note_on_c, 9, 38, 0
4, 124718, Note_on_c, 9, 59, 0
4, 124814, Note_on_c, 9, 59, 41
4, 124862, Note_on_c, 9, 59, 0
4, 125030, Note_on_c, 9, 53, 56
4, 125062, Note_on_c, 9, 53, 0
4, 125178, Note_on_c, 9, 59, 42
4, 125214, Note_on_c, 9, 59, 0
4, 125410, Note_on_c, 9, 59, 44
4, 125446, Note_on_c, 9, 59, 0
4, 125562, Note_on_c, 9, 59, 48
4, 125654, Note_on_c, 9, 59, 0
4, 125930, Note_on_c, 9, 44, 45
4, 126062, Note_on_c, 9, 44, 0
4, 126410, Note_on_c, 9, 59, 49
4, 126442, Note_on_c, 9, 59, 0
4, 126538, Note_on_c, 9, 59, 48
4, 126590, Note_on_c, 9, 59, 0
4, 126678, Note_on_c, 9, 59, 57
4, 126698, Note_on_c, 9, 44, 46
4, 126730, Note_on_c, 9, 59, 0
4, 126734, Note_on_c, 9, 44, 0
4, 126918, Note_on_c, 9, 38, 47
4, 126954, Note_on_c, 9, 38, 0
4, 127054, Note_on_c, 9, 38, 39
4, 127162, Note_on_c, 9, 38, 0
4, 127322, Note_on_c, 9, 38, 40
4, 127342, Note_on_c, 9, 59, 40
4, 127366, Note_on_c, 9, 38, 0
4, 127370, Note_on_c, 9, 59, 0
4, 127474, Note_on_c, 9, 59, 34
4, 127518, Note_on_c, 9, 59, 0
4, 127738, Note_on_c, 9, 59, 71
4, 127774, Note_on_c, 9, 59, 0
4, 127890, Note_on_c, 9, 59, 50
4, 128074, Note_on_c, 9, 59, 0
4, 128458, Note_on_c, 9, 44, 41
4, 128494, Note_on_c, 9, 44, 0
4, 128494, Note_on_c, 9, 59, 54
4, 128526, Note_on_c, 9, 59, 0
4, 128638, Note_on_c, 9, 59, 36
4, 128758, Note_on_c, 9, 59, 0
4, 128882, Note_on_c, 9, 38, 48
4, 128886, Note_on_c, 9, 53, 54
4, 128910, Note_on_c, 9, 53, 0
4, 128914, Note_on_c, 9, 38, 0
4, 129042, Note_on_c, 9, 59, 39
4, 129194, Note_on_c, 9, 59, 0
4, 129254, Note_on_c, 9, 51, 52
4, 129258, Note_on_c, 9, 38, 55
4, 129294, Note_on_c, 9, 38, 0
4, 129322, Note_on_c, 9, 51, 0
4, 129414, Note_on_c, 9, 59, 40
4, 129446, Note_on_c, 9, 38, 29
4, 129542, Note_on_c, 9, 59, 0
4, 129550, Note_on_c, 9, 38, 0
4, 129810, Note_on_c, 9, 59, 49
4, 129846, Note_on_c, 9, 59, 0
4, 130054, Note_on_c, 9, 38, 36
4, 130058, Note_on_c, 9, 59, 49
4, 130090, Note_on_c, 9, 59, 0
4, 130094, Note_on_c, 9, 38, 0
4, 130338, Note_on_c, 9, 59, 41
4, 130374, Note_on_c, 9, 59, 0
4, 130402, Note_on_c, 9, 59, 45
4, 130426, Note_on_c, 9, 26, 48
4, 130442, Note_on_c, 9, 59, 0
4, 130522, Note_on_c, 9, 26, 0
4, 130562, Note_on_c, 9, 59, 65
4, 130658, Note_on_c, 9, 59, 0
4, 130938, Note_on_c, 9, 38, 43
4, 130958, Note_on_c, 9, 59, 41
4, 130982, Note_on_c, 9, 38, 0
4, 130986, Note_on_c, 9, 59, 0
4, 131086, Note_on_c, 9, 59, 43
4, 131122, Note_on_c, 9, 59, 0
4, 131178, Note_on_c, 9, 38, 50
4, 131198, Note_on_c, 9, 59, 56
4, 131222, Note_on_c, 9, 38, 0
4, 131278, Note_on_c, 9, 59, 0
4, 131318, Note_on_c, 9, 38, 32
4, 131410, Note_on_c, 9, 38, 0
4, 131490, Note_on_c, 9, 59, 35
4, 131522, Note_on_c, 9, 59, 0
4, 131558, Note_on_c, 9, 38, 43
4, 131570, Note_on_c, 9, 59, 39
4, 131598, Note_on_c, 9, 59, 0
4, 131598, Note_on_c, 9, 38, 0
4, 131722, Note_on_c, 9, 59, 68
4, 131914, Note_on_c, 9, 59, 0
4, 132086, Note_on_c, 9, 59, 31
4, 132122, Note_on_c, 9, 59, 0
4, 132306, Note_on_c, 9, 59, 66
4, 132414, Note_on_c, 9, 59, 0
4, 132550, Note_on_c, 9, 59, 50
4, 132690, Note_on_c, 9, 59, 0
4, 132702, Note_on_c, 9, 45, 17
4, 132730, Note_on_c, 9, 45, 0
4, 132842, Note_on_c, 9, 59, 51
4, 132986, Note_on_c, 9, 59, 0
4, 133110, Note_on_c, 9, 51, 50
4, 133114, Note_on_c, 9, 53, 52
4, 133154, Note_on_c, 9, 51, 0
4, 133158, Note_on_c, 9, 53, 0
4, 133498, Note_on_c, 9, 38, 42
4, 133502, Note_on_c, 9, 51, 42
4, 133502, Note_on_c, 9, 53, 37
4, 133530, Note_on_c, 9, 51, 0
4, 133538, Note_on_c, 9, 53, 0
4, 133538, Note_on_c, 9, 38, 0
4, 133650, Note_on_c, 9, 59, 45
4, 133782, Note_on_c, 9, 59, 0
4, 133870, Note_on_c, 9, 43, 28
4, 133898, Note_on_c, 9, 59, 48
4, 133946, Note_on_c, 9, 59, 0
4, 133950, Note_on_c, 9, 43, 0
4, 134018, Note_on_c, 9, 43, 21
4, 134050, Note_on_c, 9, 59, 43
4, 134186, Note_on_c, 9, 59, 0
4, 134226, Note_on_c, 9, 43, 0
4, 134262, Note_on_c, 9, 38, 52
4, 134306, Note_on_c, 9, 38, 0
4, 134462, Note_on_c, 9, 40, 14
4, 134574, Note_on_c, 9, 40, 0
4, 134638, Note_on_c, 9, 38, 56
4, 134702, Note_on_c, 9, 38, 0
4, 135022, Note_on_c, 9, 59, 45
4, 135046, Note_on_c, 9, 59, 0
4, 135174, Note_on_c, 9, 59, 40
4, 135214, Note_on_c, 9, 59, 0
4, 135542, Note_on_c, 9, 59, 52
4, 135630, Note_on_c, 9, 59, 0
4, 135794, Note_on_c, 9, 38, 36
4, 135850, Note_on_c, 9, 38, 0
4, 136174, Note_on_c, 9, 38, 35
4, 136178, Note_on_c, 9, 59, 37
4, 136218, Note_on_c, 9, 38, 0
4, 136222, Note_on_c, 9, 59, 0
4, 136310, Note_on_c, 9, 38, 37
4, 136318, Note_on_c, 9, 59, 41
4, 136386, Note_on_c, 9, 38, 0
4, 136422, Note_on_c, 9, 59, 0
4, 136918, Note_on_c, 9, 59, 36
4, 136966, Note_on_c, 9, 59, 0
4, 137066, Note_on_c, 9, 59, 38
4, 137122, Note_on_c, 9, 59, 0
4, 137454, Note_on_c, 9, 44, 42
4, 137586, Note_on_c, 9, 44, 0
4, 138054, Note_on_c, 9, 59, 53
4, 138082, Note_on_c, 9, 59, 0
4, 138202, Note_on_c, 9, 59, 50
4, 138202, Note_on_c, 9, 44, 46
4, 138246, Note_on_c, 9, 59, 0
4, 138398, Note_on_c, 9, 44, 0
4, 138838, Note_on_c, 9, 59, 42
4, 138942, Note_on_c, 9, 59, 0
4, 139214, Note_on_c, 9, 59, 52
4, 139254, Note_on_c, 9, 59, 0
4, 139622, Note_on_c, 9, 59, 25
4, 139674, Note_on_c, 9, 59, 0
4, 139730, Note_on_c, 9, 46, 46
4, 139746, Note_on_c, 9, 59, 40
4, 139890, Note_on_c, 9, 59, 0
4, 140142, Note_on_c, 9, 59, 39
4, 140426, Note_on_c, 9, 46, 0
4, 140526, Note_on_c, 9, 44, 31
4, 140558, Note_on_c, 9, 59, 0
4, 140686, Note_on_c, 9, 44, 0
4, 140786, Note_on_c, 9, 59, 42
4, 140822, Note_on_c, 9, 59, 0
4, 140926, Note_on_c, 9, 59, 41
4, 141114, Note_on_c, 9, 59, 0
4, 141286, Note_on_c, 9, 44, 43
4, 141370, Note_on_c, 9, 44, 0
4, 141562, Note_on_c, 9, 59, 33
4, 141606, Note_on_c, 9, 59, 0
4, 141934, Note_on_c, 9, 59, 39
4, 141966, Note_on_c, 9, 59, 0
4, 142054, Note_on_c, 9, 44, 42
4, 142098, Note_on_c, 9, 44, 0
4, 142282, Note_on_c, 9, 51, 48
4, 142314, Note_on_c, 9, 51, 0
4, 142450, Note_on_c, 9, 51, 52
4, 142474, Note_on_c, 9, 51, 0
4, 142682, Note_on_c, 9, 51, 56
4, 142714, Note_on_c, 9, 51, 0
4, 142866, Note_on_c, 9, 59, 30
4, 142986, Note_on_c, 9, 59, 0
4, 143838, Note_on_c, 9, 59, 52
4, 143842, Note_on_c, 9, 38, 35
4, 143882, Note_on_c, 9, 38, 0
4, 143894, Note_on_c, 9, 59, 0
4, 143962, Note_on_c, 9, 38, 35
4, 144158, Note_on_c, 9, 38, 0
4, 144210, Note_on_c, 9, 59, 50
4, 144254, Note_on_c, 9, 59, 0
4, 144598, Note_on_c, 9, 38, 47
4, 144610, Note_on_c, 9, 51, 43
4, 144642, Note_on_c, 9, 51, 0
4, 144642, Note_on_c, 9, 38, 0
4, 144850, Note_on_c, 9, 38, 48
4, 144914, Note_on_c, 9, 59, 56
4, 144974, Note_on_c, 9, 38, 0
4, 145042, Note_on_c, 9, 59, 0
4, 145126, Note_on_c, 9, 38, 55
4, 145202, Note_on_c, 9, 59, 48
4, 145238, Note_on_c, 9, 59, 0
4, 145254, Note_on_c, 9, 38, 0
4, 145386, Note_on_c, 9, 38, 57
4, 145482, Note_on_c, 9, 38, 0
4, 145494, Note_on_c, 9, 51, 52
4, 145518, Note_on_c, 9, 51, 0
4, 145634, Note_on_c, 9, 38, 56
4, 145762, Note_on_c, 9, 38, 0
4, 145778, Note_on_c, 9, 59, 47
4, 145814, Note_on_c, 9, 59, 0
4, 145906, Note_on_c, 9, 38, 61
4, 146042, Note_on_c, 9, 38, 0
4, 146162, Note_on_c, 9, 38, 63
4, 146242, Note_on_c, 9, 38, 0
4, 146418, Note_on_c, 9, 38, 63
4, 146526, Note_on_c, 9, 38, 0
4, 146538, Note_on_c, 9, 51, 54
4, 146562, Note_on_c, 9, 51, 0
4, 146674, Note_on_c, 9, 38, 55
4, 146750, Note_on_c, 9, 38, 0
4, 146906, Note_on_c, 9, 49, 20
4, 146910, Note_on_c, 9, 51, 48
4, 146914, Note_on_c, 9, 38, 54
4, 146934, Note_on_c, 9, 51, 0
4, 147002, Note_on_c, 9, 49, 0
4, 147062, Note_on_c, 9, 53, 38
4, 147170, Note_on_c, 9, 53, 0
4, 147314, Note_on_c, 9, 53, 40
4, 147354, Note_on_c, 9, 53, 0
4, 147678, Note_on_c, 9, 51, 45
4, 147710, Note_on_c, 9, 51, 0
4, 147710, Note_on_c, 9, 38, 0
4, 148186, Note_on_c, 9, 44, 45
4, 148350, Note_on_c, 9, 44, 0
4, 148442, Note_on_c, 9, 51, 52
4, 148474, Note_on_c, 9, 51, 0
4, 148962, Note_on_c, 9, 44, 45
4, 148974, Note_on_c, 9, 46, 50
4, 149190, Note_on_c, 9, 44, 0
4, 150002, Note_on_c, 9, 53, 37
4, 150086, Note_on_c, 9, 53, 0
4, 150138, Note_on_c, 9, 46, 0
4, 150158, Note_on_c, 9, 53, 29
4, 150506, Note_on_c, 9, 44, 34
4, 150558, Note_on_c, 9, 44, 0
4, 150658, Note_on_c, 9, 53, 0
4, 150778, Note_on_c, 9, 53, 30
4, 150814, Note_on_c, 9, 53, 0
4, 151146, Note_on_c, 9, 53, 36
4, 151198, Note_on_c, 9, 53, 0
4, 151274, Note_on_c, 9, 44, 39
4, 151290, Note_on_c, 9, 53, 31
4, 151370, Note_on_c, 9, 53, 0
4, 151398, Note_on_c, 9, 44, 0
4, 151502, Note_on_c, 9, 51, 56
4, 151550, Note_on_c, 9, 51, 0
4, 151690, Note_on_c, 9, 53, 34
4, 151730, Note_on_c, 9, 53, 0
4, 151894, Note_on_c, 9, 38, 42
4, 151910, Note_on_c, 9, 51, 57
4, 151922, Note_on_c, 9, 38, 0
4, 151966, Note_on_c, 9, 51, 0
4, 152298, Note_on_c, 9, 51, 57
4, 152306, Note_on_c, 9, 44, 39
4, 152326, Note_on_c, 9, 51, 0
4, 152406, Note_on_c, 9, 44, 0
4, 152446, Note_on_c, 9, 59, 52
4, 152638, Note_on_c, 9, 59, 0
4, 152654, Note_on_c, 9, 38, 49
4, 152686, Note_on_c, 9, 38, 0
4, 152798, Note_on_c, 9, 38, 39
4, 152834, Note_on_c, 9, 59, 58
4, 152902, Note_on_c, 9, 38, 0
4, 153066, Note_on_c, 9, 44, 43
4, 153094, Note_on_c, 9, 44, 0
4, 153298, Note_on_c, 9, 59, 0
4, 153838, Note_on_c, 9, 59, 48
4, 153882, Note_on_c, 9, 59, 0
4, 154210, Note_on_c, 9, 59, 66
4, 154278, Note_on_c, 9, 59, 0
4, 154338, Note_on_c, 9, 44, 37
4, 154398, Note_on_c, 9, 44, 0
4, 154562, Note_on_c, 9, 51, 56
4, 154606, Note_on_c, 9, 51, 0
4, 154726, Note_on_c, 9, 51, 47
4, 154806, Note_on_c, 9, 51, 0
4, 155118, Note_on_c, 9, 44, 41
4, 155182, Note_on_c, 9, 44, 0
4, 155358, Note_on_c, 9, 38, 48
4, 155390, Note_on_c, 9, 38, 0
4, 155498, Note_on_c, 9, 38, 39
4, 155614, Note_on_c, 9, 38, 0
4, 155642, Note_on_c, 9, 53, 38
4, 155650, Note_on_c, 9, 51, 34
4, 155690, Note_on_c, 9, 51, 0
4, 155698, Note_on_c, 9, 53, 0
4, 155886, Note_on_c, 9, 44, 44
4, 155894, Note_on_c, 9, 51, 48
4, 155898, Note_on_c, 9, 53, 44
4, 155970, Note_on_c, 9, 53, 0
4, 155978, Note_on_c, 9, 51, 0
4, 155982, Note_on_c, 9, 44, 0
4, 156150, Note_on_c, 9, 51, 50
4, 156158, Note_on_c, 9, 53, 43
4, 156198, Note_on_c, 9, 53, 0
4, 156202, Note_on_c, 9, 51, 0
4, 156406, Note_on_c, 9, 59, 46
4, 156478, Note_on_c, 9, 59, 0
4, 156662, Note_on_c, 9, 38, 39
4, 156678, Note_on_c, 9, 59, 53
4, 156714, Note_on_c, 9, 38, 0
4, 156842, Note_on_c, 9, 59, 0
4, 156922, Note_on_c, 9, 59, 51
4, 157038, Note_on_c, 9, 59, 0
4, 157290, Note_on_c, 9, 51, 50
4, 157302, Note_on_c, 9, 53, 39
4, 157314, Note_on_c, 9, 38, 39
4, 157346, Note_on_c, 9, 53, 0
4, 157354, Note_on_c, 9, 38, 0
4, 157370, Note_on_c, 9, 51, 0
4, 157442, Note_on_c, 9, 45, 22
4, 157478, Note_on_c, 9, 51, 26
4, 157538, Note_on_c, 9, 51, 0
4, 157638, Note_on_c, 9, 45, 0
4, 157662, Note_on_c, 9, 51, 55
4, 157674, Note_on_c, 9, 53, 48
4, 157682, Note_on_c, 9, 45, 27
4, 157706, Note_on_c, 9, 53, 0
4, 157750, Note_on_c, 9, 51, 0
4, 158046, Note_on_c, 9, 59, 68
4, 158054, Note_on_c, 9, 45, 0
4, 158062, Note_on_c, 9, 38, 46
4, 158098, Note_on_c, 9, 38, 0
4, 158106, Note_on_c, 9, 59, 0
4, 158174, Note_on_c, 9, 59, 55
4, 158178, Note_on_c, 9, 43, 15
4, 158286, Note_on_c, 9, 59, 0
4, 158370, Note_on_c, 9, 43, 0
4, 158414, Note_on_c, 9, 51, 49
4, 158426, Note_on_c, 9, 43, 30
4, 158442, Note_on_c, 9, 51, 0
4, 158802, Note_on_c, 9, 43, 0
4, 158818, Note_on_c, 9, 38, 45
4, 158838, Note_on_c, 9, 51, 39
4, 158862, Note_on_c, 9, 38, 0
4, 158866, Note_on_c, 9, 51, 0
4, 158986, Note_on_c, 9, 53, 36
4, 159050, Note_on_c, 9, 53, 0
4, 159202, Note_on_c, 9, 38, 57
4, 159214, Note_on_c, 9, 53, 74
4, 159242, Note_on_c, 9, 38, 0
4, 159290, Note_on_c, 9, 53, 0
4, 159342, Note_on_c, 9, 49, 16
4, 159362, Note_on_c, 9, 53, 49
4, 159558, Note_on_c, 9, 53, 0
4, 159906, Note_on_c, 9, 49, 0
4, 159970, Note_on_c, 9, 51, 62
4, 160014, Note_on_c, 9, 51, 0
4, 160134, Note_on_c, 9, 51, 46
4, 160290, Note_on_c, 9, 51, 0
4, 160758, Note_on_c, 9, 51, 54
4, 160786, Note_on_c, 9, 51, 0
4, 160910, Note_on_c, 9, 51, 40
4, 161066, Note_on_c, 9, 51, 0
4, 161622, Note_on_c, 9, 51, 48
4, 161766, Note_on_c, 9, 51, 0
4, 162282, Note_on_c, 9, 51, 40
4, 162310, Note_on_c, 9, 51, 0
4, 162646, Note_on_c, 9, 51, 54
4, 162670, Note_on_c, 9, 51, 0
4, 162774, Note_on_c, 9, 59, 51
4, 162782, Note_on_c, 9, 44, 32
4, 162946, Note_on_c, 9, 44, 0
4, 162962, Note_on_c, 9, 59, 0
4, 163166, Note_on_c, 9, 59, 78
4, 163382, Note_on_c, 9, 59, 0
4, 163438, Note_on_c, 9, 59, 62
4, 163486, Note_on_c, 9, 59, 0
4, 163554, Note_on_c, 9, 44, 60
4, 163734, Note_on_c, 9, 44, 0
4, 164318, Note_on_c, 9, 59, 33
4, 164334, Note_on_c, 9, 44, 42
4, 164358, Note_on_c, 9, 59, 0
4, 164526, Note_on_c, 9, 44, 0
4, 164582, Note_on_c, 9, 59, 68
4, 165046, Note_on_c, 9, 59, 0
4, 165102, Note_on_c, 9, 44, 38
4, 165118, Note_on_c, 9, 51, 45
4, 165178, Note_on_c, 9, 44, 0
4, 165254, Note_on_c, 9, 51, 0
4, 165346, Note_on_c, 9, 51, 48
4, 165438, Note_on_c, 9, 51, 0
4, 165490, Note_on_c, 9, 51, 53
4, 165674, Note_on_c, 9, 51, 0
4, 165850, Note_on_c, 9, 46, 47
4, 166142, Note_on_c, 9, 59, 41
4, 166190, Note_on_c, 9, 59, 0
4, 166282, Note_on_c, 9, 59, 36
4, 166486, Note_on_c, 9, 59, 0
4, 166498, Note_on_c, 9, 51, 45
4, 166558, Note_on_c, 9, 51, 0
4, 166582, Note_on_c, 9, 46, 0
4, 166614, Note_on_c, 9, 44, 41
4, 166642, Note_on_c, 9, 51, 51
4, 166710, Note_on_c, 9, 44, 0
4, 166762, Note_on_c, 9, 51, 0
4, 166866, Note_on_c, 9, 51, 74
4, 166994, Note_on_c, 9, 51, 0
4, 168026, Note_on_c, 9, 59, 51
4, 168066, Note_on_c, 9, 59, 0
4, 168190, Note_on_c, 9, 59, 32
4, 168234, Note_on_c, 9, 59, 0
4, 168418, Note_on_c, 9, 53, 43
4, 168486, Note_on_c, 9, 53, 0
4, 168566, Note_on_c, 9, 51, 37
4, 168686, Note_on_c, 9, 51, 0
4, 168798, Note_on_c, 9, 51, 45
4, 168866, Note_on_c, 9, 51, 0
4, 168974, Note_on_c, 9, 51, 29
4, 169018, Note_on_c, 9, 51, 0
4, 169346, Note_on_c, 9, 51, 43
4, 169422, Note_on_c, 9, 51, 0
4, 170758, Note_on_c, 9, 59, 61
4, 170786, Note_on_c, 9, 59, 0
4, 171130, Note_on_c, 9, 59, 63
4, 171146, Note_on_c, 9, 38, 52
4, 171162, Note_on_c, 9, 59, 0
4, 171190, Note_on_c, 9, 38, 0
4, 171266, Note_on_c, 9, 51, 34
4, 171266, Note_on_c, 9, 38, 45
4, 171302, Note_on_c, 9, 51, 0
4, 171334, Note_on_c, 9, 38, 0
4, 171498, Note_on_c, 9, 26, 51
4, 171510, Note_on_c, 9, 51, 58
4, 171538, Note_on_c, 9, 26, 0
4, 171562, Note_on_c, 9, 51, 0
4, 171646, Note_on_c, 9, 38, 39
4, 171650, Note_on_c, 9, 51, 48
4, 171710, Note_on_c, 9, 38, 0
4, 171766, Note_on_c, 9, 51, 0
4, 172026, Note_on_c, 9, 51, 44
4, 172138, Note_on_c, 9, 51, 0
4, 172394, Note_on_c, 9, 51, 39
4, 172510, Note_on_c, 9, 51, 0
4, 172786, Note_on_c, 9, 37, 54
4, 172890, Note_on_c, 9, 37, 0
4, 173390, Note_on_c, 9, 53, 56
4, 173402, Note_on_c, 9, 38, 38
4, 173426, Note_on_c, 9, 53, 0
4, 173438, Note_on_c, 9, 38, 0
4, 173778, Note_on_c, 9, 38, 39
4, 173790, Note_on_c, 9, 53, 65
4, 173814, Note_on_c, 9, 53, 0
4, 173814, Note_on_c, 9, 38, 0
4, 174170, Note_on_c, 9, 53, 64
4, 174246, Note_on_c, 9, 53, 0
4, 174550, Note_on_c, 9, 53, 57
4, 174566, Note_on_c, 9, 38, 32
4, 174586, Note_on_c, 9, 53, 0
4, 174610, Note_on_c, 9, 38, 0
4, 174714, Note_on_c, 9, 59, 31
4, 174874, Note_on_c, 9, 59, 0
4, 174954, Note_on_c, 9, 53, 41
4, 174994, Note_on_c, 9, 53, 0
4, 175102, Note_on_c, 9, 59, 39
4, 175270, Note_on_c, 9, 59, 0
4, 175330, Note_on_c, 9, 53, 46
4, 175334, Note_on_c, 9, 51, 42
4, 175390, Note_on_c, 9, 51, 0
4, 175406, Note_on_c, 9, 53, 0
4, 175474, Note_on_c, 9, 59, 33
4, 175634, Note_on_c, 9, 37, 45
4, 175662, Note_on_c, 9, 37, 0
4, 175666, Note_on_c, 9, 59, 0
4, 175718, Note_on_c, 9, 53, 45
4, 175730, Note_on_c, 9, 51, 35
4, 175758, Note_on_c, 9, 53, 0
4, 175774, Note_on_c, 9, 51, 0
4, 175874, Note_on_c, 9, 59, 27
4, 175874, Note_on_c, 9, 37, 45
4, 175978, Note_on_c, 9, 59, 0
4, 176006, Note_on_c, 9, 37, 0
4, 176082, Note_on_c, 9, 51, 47
4, 176122, Note_on_c, 9, 51, 0
4, 176122, Note_on_c, 9, 37, 42
4, 176182, Note_on_c, 9, 37, 0
4, 176230, Note_on_c, 9, 59, 42
4, 176230, Note_on_c, 9, 51, 40
4, 176362, Note_on_c, 9, 37, 40
4, 176382, Note_on_c, 9, 59, 0
4, 176386, Note_on_c, 9, 51, 0
4, 176466, Note_on_c, 9, 37, 0
4, 176606, Note_on_c, 9, 37, 45
4, 176638, Note_on_c, 9, 51, 40
4, 176642, Note_on_c, 9, 59, 42
4, 176750, Note_on_c, 9, 37, 0
4, 176802, Note_on_c, 9, 51, 0
4, 176814, Note_on_c, 9, 59, 0
4, 176874, Note_on_c, 9, 37, 38
4, 176958, Note_on_c, 9, 37, 0
4, 177022, Note_on_c, 9, 51, 37
4, 177022, Note_on_c, 9, 59, 41
4, 177126, Note_on_c, 9, 37, 40
4, 177198, Note_on_c, 9, 37, 0
4, 177198, Note_on_c, 9, 59, 0
4, 177246, Note_on_c, 9, 51, 0
4, 177642, Note_on_c, 9, 59, 51
4, 177678, Note_on_c, 9, 59, 0
4, 177730, Note_on_c, 9, 51, 15
4, 177798, Note_on_c, 9, 59, 42
4, 177894, Note_on_c, 9, 51, 0
4, 177934, Note_on_c, 9, 59, 0
4, 178038, Note_on_c, 9, 59, 49
4, 178038, Note_on_c, 9, 51, 52
4, 178066, Note_on_c, 9, 59, 0
4, 178090, Note_on_c, 9, 51, 0
4, 178414, Note_on_c, 9, 59, 38
4, 178434, Note_on_c, 9, 51, 30
4, 178466, Note_on_c, 9, 59, 0
4, 178470, Note_on_c, 9, 51, 0
4, 178546, Note_on_c, 9, 51, 43
4, 178554, Note_on_c, 9, 59, 50
4, 178678, Note_on_c, 9, 51, 0
4, 178718, Note_on_c, 9, 59, 0
4, 179178, Note_on_c, 9, 59, 50
4, 179214, Note_on_c, 9, 51, 40
4, 179218, Note_on_c, 9, 53, 41
4, 179230, Note_on_c, 9, 59, 0
4, 179250, Note_on_c, 9, 53, 0
4, 179258, Note_on_c, 9, 51, 0
4, 179326, Note_on_c, 9, 59, 36
4, 179458, Note_on_c, 9, 59, 0
4, 179658, Note_on_c, 9, 44, 36
4, 179702, Note_on_c, 9, 44, 0
4, 179938, Note_on_c, 9, 51, 39
4, 179942, Note_on_c, 9, 59, 46
4, 179970, Note_on_c, 9, 59, 0
4, 179982, Note_on_c, 9, 51, 0
4, 180310, Note_on_c, 9, 59, 63
4, 180314, Note_on_c, 9, 51, 57
4, 180322, Note_on_c, 9, 53, 52
4, 180370, Note_on_c, 9, 53, 0
4, 180386, Note_on_c, 9, 59, 0
4, 180414, Note_on_c, 9, 51, 0
4, 180414, Note_on_c, 9, 44, 39
4, 180458, Note_on_c, 9, 44, 0
4, 180582, Note_on_c, 9, 59, 55
4, 180610, Note_on_c, 9, 59, 0
4, 180706, Note_on_c, 9, 59, 52
4, 180738, Note_on_c, 9, 59, 0
4, 180854, Note_on_c, 9, 51, 52
4, 180862, Note_on_c, 9, 59, 55
4, 180994, Note_on_c, 9, 59, 0
4, 181010, Note_on_c, 9, 51, 0
4, 181222, Note_on_c, 9, 59, 46
4, 181230, Note_on_c, 9, 46, 48
4, 181254, Note_on_c, 9, 59, 0
4, 181326, Note_on_c, 9, 46, 0
4, 181466, Note_on_c, 9, 59, 72
4, 181470, Note_on_c, 9, 51, 63
4, 181558, Note_on_c, 9, 59, 0
4, 181578, Note_on_c, 9, 51, 0
4, 181730, Note_on_c, 9, 59, 48
4, 181786, Note_on_c, 9, 59, 0
4, 181870, Note_on_c, 9, 59, 61
4, 181942, Note_on_c, 9, 59, 0
4, 182014, Note_on_c, 9, 51, 63
4, 182026, Note_on_c, 9, 59, 68
4, 182198, Note_on_c, 9, 59, 0
4, 182222, Note_on_c, 9, 51, 0
4, 182394, Note_on_c, 9, 59, 39
4, 182430, Note_on_c, 9, 59, 0
4, 182506, Note_on_c, 9, 59, 50
4, 182534, Note_on_c, 9, 59, 0
4, 182642, Note_on_c, 9, 44, 32
4, 182650, Note_on_c, 9, 59, 75
4, 182658, Note_on_c, 9, 51, 61
4, 182678, Note_on_c, 9, 44, 0
4, 182762, Note_on_c, 9, 46, 47
4, 182834, Note_on_c, 9, 59, 0
4, 182870, Note_on_c, 9, 51, 0
4, 182950, Note_on_c, 9, 59, 41
4, 182986, Note_on_c, 9, 59, 0
4, 183058, Note_on_c, 9, 59, 46
4, 183126, Note_on_c, 9, 59, 0
4, 183210, Note_on_c, 9, 51, 65
4, 183214, Note_on_c, 9, 59, 71
4, 183414, Note_on_c, 9, 59, 0
4, 183422, Note_on_c, 9, 51, 0
4, 183554, Note_on_c, 9, 59, 38
4, 183602, Note_on_c, 9, 59, 0
4, 183710, Note_on_c, 9, 59, 49
4, 183734, Note_on_c, 9, 59, 0
4, 183826, Note_on_c, 9, 46, 0
4, 183826, Note_on_c, 9, 51, 65
4, 183830, Note_on_c, 9, 59, 72
4, 184122, Note_on_c, 9, 59, 0
4, 184154, Note_on_c, 9, 51, 0
4, 184298, Note_on_c, 9, 44, 47
4, 184302, Note_on_c, 9, 59, 43
4, 184378, Note_on_c, 9, 59, 0
4, 184418, Note_on_c, 9, 44, 0
4, 184558, Note_on_c, 9, 59, 37
4, 184610, Note_on_c, 9, 59, 0
4, 184694, Note_on_c, 9, 59, 39
4, 184834, Note_on_c, 9, 59, 0
4, 185050, Note_on_c, 9, 44, 43
4, 185098, Note_on_c, 9, 44, 0
4, 185310, Note_on_c, 9, 59, 45
4, 185346, Note_on_c, 9, 59, 0
4, 185506, Note_on_c, 9, 59, 18
4, 185590, Note_on_c, 9, 59, 0
4, 185846, Note_on_c, 9, 44, 39
4, 185890, Note_on_c, 9, 44, 0
4, 186110, Note_on_c, 9, 51, 33
4, 186158, Note_on_c, 9, 51, 0
4, 186486, Note_on_c, 9, 51, 41
4, 186502, Note_on_c, 9, 53, 27
4, 186530, Note_on_c, 9, 51, 0
4, 186542, Note_on_c, 9, 53, 0
4, 186610, Note_on_c, 9, 59, 39
4, 186798, Note_on_c, 9, 59, 0
4, 186858, Note_on_c, 9, 59, 50
4, 186890, Note_on_c, 9, 59, 0
4, 187238, Note_on_c, 9, 51, 46
4, 187242, Note_on_c, 9, 53, 38
4, 187270, Note_on_c, 9, 51, 0
4, 187274, Note_on_c, 9, 53, 0
4, 187358, Note_on_c, 9, 46, 39
4, 187374, Note_on_c, 9, 59, 42
4, 187518, Note_on_c, 9, 59, 0
4, 187618, Note_on_c, 9, 59, 43
4, 187650, Note_on_c, 9, 59, 0
4, 187758, Note_on_c, 9, 59, 46
4, 187942, Note_on_c, 9, 59, 0
4, 188010, Note_on_c, 9, 51, 48
4, 188022, Note_on_c, 9, 53, 33
4, 188054, Note_on_c, 9, 53, 0
4, 188054, Note_on_c, 9, 51, 0
4, 188118, Note_on_c, 9, 46, 0
4, 188170, Note_on_c, 9, 59, 32
4, 188190, Note_on_c, 9, 44, 25
4, 188238, Note_on_c, 9, 44, 0
4, 188282, Note_on_c, 9, 59, 0
4, 188390, Note_on_c, 9, 59, 50
4, 188430, Note_on_c, 9, 59, 0
4, 188530, Note_on_c, 9, 51, 54
4, 188542, Note_on_c, 9, 53, 39
4, 188658, Note_on_c, 9, 51, 0
4, 188694, Note_on_c, 9, 53, 0
4, 188774, Note_on_c, 9, 59, 39
4, 188818, Note_on_c, 9, 59, 0
4, 188918, Note_on_c, 9, 44, 42
4, 188922, Note_on_c, 9, 59, 34
4, 188950, Note_on_c, 9, 44, 0
4, 189062, Note_on_c, 9, 59, 0
4, 189146, Note_on_c, 9, 51, 63
4, 189150, Note_on_c, 9, 53, 63
4, 189218, Note_on_c, 9, 53, 0
4, 189226, Note_on_c, 9, 51, 0
4, 189330, Note_on_c, 9, 59, 31
4, 189486, Note_on_c, 9, 59, 0
4, 189558, Note_on_c, 9, 51, 79
4, 189562, Note_on_c, 9, 53, 68
4, 189618, Note_on_c, 9, 53, 0
4, 189638, Note_on_c, 9, 51, 0
4, 189698, Note_on_c, 9, 37, 51
4, 189706, Note_on_c, 9, 59, 46
4, 189826, Note_on_c, 9, 59, 0
4, 189930, Note_on_c, 9, 37, 0
4, 189950, Note_on_c, 9, 51, 68
4, 189954, Note_on_c, 9, 53, 57
4, 189998, Note_on_c, 9, 53, 0
4, 190022, Note_on_c, 9, 51, 0
4, 190098, Note_on_c, 9, 59, 46
4, 190226, Note_on_c, 9, 59, 0
4, 190338, Note_on_c, 9, 59, 49
4, 190402, Note_on_c, 9, 59, 0
4, 190450, Note_on_c, 9, 37, 50
4, 190482, Note_on_c, 9, 59, 48
4, 190646, Note_on_c, 9, 59, 0
4, 190650, Note_on_c, 9, 37, 0
4, 190870, Note_on_c, 9, 59, 38
4, 190902, Note_on_c, 9, 59, 0
4, 191102, Note_on_c, 9, 59, 49
4, 191126, Note_on_c, 9, 59, 0
4, 191234, Note_on_c, 9, 59, 49
4, 191262, Note_on_c, 9, 59, 0
4, 191354, Note_on_c, 9, 59, 74
4, 191382, Note_on_c, 9, 59, 0
4, 191622, Note_on_c, 9, 59, 98
4, 191794, Note_on_c, 9, 59, 0
4, 191886, Note_on_c, 9, 59, 82
4, 191990, Note_on_c, 9, 59, 0
4, 192258, Note_on_c, 9, 53, 52
4, 192286, Note_on_c, 9, 53, 0
4, 192366, Note_on_c, 9, 59, 57
4, 192486, Note_on_c, 9, 37, 48
4, 192526, Note_on_c, 9, 37, 0
4, 192526, Note_on_c, 9, 59, 0
4, 192618, Note_on_c, 9, 59, 48
4, 192682, Note_on_c, 9, 59, 0
4, 192766, Note_on_c, 9, 37, 48
4, 192794, Note_on_c, 9, 59, 40
4, 192826, Note_on_c, 9, 59, 0
4, 192874, Note_on_c, 9, 37, 0
4, 192926, Note_on_c, 9, 53, 36
4, 192958, Note_on_c, 9, 53, 0
4, 193006, Note_on_c, 9, 59, 54
4, 193014, Note_on_c, 9, 37, 39
4, 193066, Note_on_c, 9, 37, 0
4, 193118, Note_on_c, 9, 59, 0
4, 193290, Note_on_c, 9, 59, 51
4, 193318, Note_on_c, 9, 59, 0
4, 193430, Note_on_c, 9, 53, 36
4, 193462, Note_on_c, 9, 53, 0
4, 193486, Note_on_c, 9, 44, 48
4, 193546, Note_on_c, 9, 59, 55
4, 193694, Note_on_c, 9, 59, 0
4, 193694, Note_on_c, 9, 44, 0
4, 193898, Note_on_c, 9, 59, 48
4, 193962, Note_on_c, 9, 59, 0
4, 194042, Note_on_c, 9, 51, 39
4, 194078, Note_on_c, 9, 51, 0
4, 194146, Note_on_c, 9, 59, 48
4, 194250, Note_on_c, 9, 44, 47
4, 194286, Note_on_c, 9, 59, 0
4, 194410, Note_on_c, 9, 44, 0
4, 194450, Note_on_c, 9, 59, 48
4, 194482, Note_on_c, 9, 59, 0
4, 194562, Note_on_c, 9, 51, 42
4, 194626, Note_on_c, 9, 51, 0
4, 194694, Note_on_c, 9, 59, 48
4, 194866, Note_on_c, 9, 59, 0
4, 195430, Note_on_c, 9, 59, 36
4, 195542, Note_on_c, 9, 59, 0
4, 195674, Note_on_c, 9, 59, 50
4, 195698, Note_on_c, 9, 38, 56
4, 195734, Note_on_c, 9, 59, 0
4, 195778, Note_on_c, 9, 38, 0
4, 195822, Note_on_c, 9, 59, 32
4, 195906, Note_on_c, 9, 59, 0
4, 196054, Note_on_c, 9, 38, 47
4, 196090, Note_on_c, 9, 38, 0
4, 196186, Note_on_c, 9, 59, 43
4, 196258, Note_on_c, 9, 59, 0
4, 196858, Note_on_c, 9, 59, 36
4, 196886, Note_on_c, 9, 38, 46
4, 196902, Note_on_c, 9, 59, 0
4, 196918, Note_on_c, 9, 38, 0
4, 196982, Note_on_c, 9, 59, 41
4, 197018, Note_on_c, 9, 38, 37
4, 197066, Note_on_c, 9, 38, 0
4, 197142, Note_on_c, 9, 59, 0
4, 197602, Note_on_c, 9, 59, 50
4, 197634, Note_on_c, 9, 59, 0
4, 197738, Note_on_c, 9, 59, 36
4, 197878, Note_on_c, 9, 59, 0
4, 197986, Note_on_c, 9, 51, 43
4, 198034, Note_on_c, 9, 51, 0
4, 198134, Note_on_c, 9, 59, 39
4, 198154, Note_on_c, 9, 44, 40
4, 198186, Note_on_c, 9, 44, 0
4, 198302, Note_on_c, 9, 59, 0
4, 198362, Note_on_c, 9, 51, 55
4, 198458, Note_on_c, 9, 51, 0
4, 198530, Note_on_c, 9, 59, 34
4, 198702, Note_on_c, 9, 59, 0
4, 198738, Note_on_c, 9, 38, 37
4, 198750, Note_on_c, 9, 51, 47
4, 198770, Note_on_c, 9, 38, 0
4, 198830, Note_on_c, 9, 51, 0
4, 198906, Note_on_c, 9, 44, 33
4, 198910, Note_on_c, 9, 59, 34
4, 199026, Note_on_c, 9, 44, 0
4, 199042, Note_on_c, 9, 59, 0
4, 199110, Note_on_c, 9, 44, 43
4, 199114, Note_on_c, 9, 53, 61
4, 199118, Note_on_c, 9, 51, 51
4, 199154, Note_on_c, 9, 51, 0
4, 199158, Note_on_c, 9, 53, 0
4, 199158, Note_on_c, 9, 44, 0
4, 199298, Note_on_c, 9, 59, 30
4, 199430, Note_on_c, 9, 59, 0
4, 199510, Note_on_c, 9, 38, 37
4, 199526, Note_on_c, 9, 53, 63
4, 199530, Note_on_c, 9, 51, 49
4, 199546, Note_on_c, 9, 38, 0
4, 199550, Note_on_c, 9, 53, 0
4, 199558, Note_on_c, 9, 51, 0
4, 199662, Note_on_c, 9, 59, 38
4, 199838, Note_on_c, 9, 59, 0
4, 199902, Note_on_c, 9, 53, 58
4, 199914, Note_on_c, 9, 51, 46
4, 199934, Note_on_c, 9, 53, 0
4, 199966, Note_on_c, 9, 51, 0
4, 200070, Note_on_c, 9, 59, 39
4, 200174, Note_on_c, 9, 59, 0
4, 200282, Note_on_c, 9, 38, 56
4, 200298, Note_on_c, 9, 59, 46
4, 200310, Note_on_c, 9, 38, 0
4, 200330, Note_on_c, 9, 59, 0
4, 200414, Note_on_c, 9, 59, 48
4, 200562, Note_on_c, 9, 59, 0
4, 200662, Note_on_c, 9, 59, 48
4, 200666, Note_on_c, 9, 51, 42
4, 200666, Note_on_c, 9, 53, 46
4, 200714, Note_on_c, 9, 53, 0
4, 200714, Note_on_c, 9, 59, 0
4, 200722, Note_on_c, 9, 51, 0
4, 200794, Note_on_c, 9, 59, 49
4, 200798, Note_on_c, 9, 53, 32
4, 200802, Note_on_c, 9, 51, 21
4, 200938, Note_on_c, 9, 53, 0
4, 201002, Note_on_c, 9, 51, 0
4, 201010, Note_on_c, 9, 59, 0
4, 201186, Note_on_c, 9, 51, 16
4, 201234, Note_on_c, 9, 51, 0
4, 201454, Note_on_c, 9, 59, 64
4, 201454, Note_on_c, 9, 51, 41
4, 201458, Note_on_c, 9, 53, 36
4, 201534, Note_on_c, 9, 59, 0
4, 201618, Note_on_c, 9, 51, 0
4, 201638, Note_on_c, 9, 53, 0
4, 201794, Note_on_c, 9, 36, 48
4, 201814, Note_on_c, 9, 59, 72
4, 201822, Note_on_c, 9, 51, 56
4, 201826, Note_on_c, 9, 53, 55
4, 201850, Note_on_c, 9, 36, 0
4, 201990, Note_on_c, 9, 53, 0
4, 202070, Note_on_c, 9, 51, 0
4, 202078, Note_on_c, 9, 59, 0
4, 202174, Note_on_c, 9, 44, 48
4, 202218, Note_on_c, 9, 44, 0
4, 202226, Note_on_c, 9, 59, 48
4, 202258, Note_on_c, 9, 59, 0
4, 202346, Note_on_c, 9, 59, 48
4, 202598, Note_on_c, 9, 59, 0
4, 202758, Note_on_c, 9, 59, 49
4, 202906, Note_on_c, 9, 59, 0
4, 203030, Note_on_c, 9, 59, 40
4, 203062, Note_on_c, 9, 59, 0
4, 203138, Note_on_c, 9, 59, 49
4, 203334, Note_on_c, 9, 59, 0
4, 203370, Note_on_c, 9, 51, 57
4, 203450, Note_on_c, 9, 51, 0
4, 203526, Note_on_c, 9, 59, 35
4, 203630, Note_on_c, 9, 59, 0
4, 203762, Note_on_c, 9, 59, 48
4, 203794, Note_on_c, 9, 59, 0
4, 203890, Note_on_c, 9, 59, 45
4, 204082, Note_on_c, 9, 59, 0
4, 204270, Note_on_c, 9, 59, 66
4, 204482, Note_on_c, 9, 59, 0
4, 204542, Note_on_c, 9, 59, 59
4, 204574, Note_on_c, 9, 59, 0
4, 204906, Note_on_c, 9, 59, 60
4, 204906, Note_on_c, 9, 38, 52
4, 204946, Note_on_c, 9, 38, 0
4, 204966, Note_on_c, 9, 59, 0
4, 205038, Note_on_c, 9, 59, 43
4, 205082, Note_on_c, 9, 38, 25
4, 205142, Note_on_c, 9, 38, 0
4, 205154, Note_on_c, 9, 59, 0
4, 205286, Note_on_c, 9, 59, 75
4, 205286, Note_on_c, 9, 36, 68
4, 205362, Note_on_c, 9, 36, 0
4, 205458, Note_on_c, 9, 36, 33
4, 205574, Note_on_c, 9, 59, 0
4, 205610, Note_on_c, 9, 36, 0
4, 205670, Note_on_c, 9, 38, 41
4, 205686, Note_on_c, 9, 59, 48
4, 205714, Note_on_c, 9, 59, 0
4, 205726, Note_on_c, 9, 38, 0
4, 205826, Note_on_c, 9, 59, 49
4, 205970, Note_on_c, 9, 59, 0
4, 206062, Note_on_c, 9, 53, 61
4, 206066, Note_on_c, 9, 51, 53
4, 206086, Note_on_c, 9, 53, 0
4, 206094, Note_on_c, 9, 51, 0
4, 206210, Note_on_c, 9, 59, 49
4, 206398, Note_on_c, 9, 59, 0
4, 206422, Note_on_c, 9, 36, 61
4, 206454, Note_on_c, 9, 36, 0
4, 206458, Note_on_c, 9, 53, 56
4, 206462, Note_on_c, 9, 51, 51
4, 206490, Note_on_c, 9, 53, 0
4, 206498, Note_on_c, 9, 51, 0
4, 206598, Note_on_c, 9, 59, 57
4, 206738, Note_on_c, 9, 59, 0
4, 206826, Note_on_c, 9, 38, 57
4, 206862, Note_on_c, 9, 59, 49
4, 206874, Note_on_c, 9, 38, 0
4, 206894, Note_on_c, 9, 59, 0
4, 206970, Note_on_c, 9, 38, 47
4, 206982, Note_on_c, 9, 59, 56
4, 207034, Note_on_c, 9, 38, 0
4, 207186, Note_on_c, 9, 59, 0
4, 207350, Note_on_c, 9, 59, 82
4, 207594, Note_on_c, 9, 36, 49
4, 207626, Note_on_c, 9, 36, 0
4, 207910, Note_on_c, 9, 59, 0
4, 207994, Note_on_c, 9, 59, 60
4, 207994, Note_on_c, 9, 36, 51
4, 208022, Note_on_c, 9, 36, 0
4, 208030, Note_on_c, 9, 59, 0
4, 208102, Note_on_c, 9, 59, 61
4, 208298, Note_on_c, 9, 59, 0
4, 208358, Note_on_c, 9, 36, 61
4, 208386, Note_on_c, 9, 36, 0
4, 208478, Note_on_c, 9, 59, 98
4, 208486, Note_on_c, 9, 49, 24
4, 208714, Note_on_c, 9, 59, 0
4, 208850, Note_on_c, 9, 49, 0
4, 208854, Note_on_c, 9, 59, 66
4, 208934, Note_on_c, 9, 59, 0
4, 209146, Note_on_c, 9, 59, 58
4, 209202, Note_on_c, 9, 59, 0
4, 209250, Note_on_c, 9, 59, 68
4, 209466, Note_on_c, 9, 59, 0
4, 209622, Note_on_c, 9, 59, 96
4, 209822, Note_on_c, 9, 59, 0
4, 209886, Note_on_c, 9, 38, 48
4, 209902, Note_on_c, 9, 59, 48
4, 209918, Note_on_c, 9, 38, 0
4, 209938, Note_on_c, 9, 59, 0
4, 210006, Note_on_c, 9, 59, 74
4, 210258, Note_on_c, 9, 38, 64
4, 210262, Note_on_c, 9, 59, 0
4, 210326, Note_on_c, 9, 38, 0
4, 210402, Note_on_c, 9, 59, 83
4, 210410, Note_on_c, 9, 36, 43
4, 210586, Note_on_c, 9, 36, 0
4, 210618, Note_on_c, 9, 59, 0
4, 210646, Note_on_c, 9, 36, 60
4, 210726, Note_on_c, 9, 36, 0
4, 210774, Note_on_c, 9, 59, 82
4, 210998, Note_on_c, 9, 59, 0
4, 211014, Note_on_c, 9, 38, 48
4, 211046, Note_on_c, 9, 38, 0
4, 211150, Note_on_c, 9, 59, 81
4, 211302, Note_on_c, 9, 59, 0
4, 211426, Note_on_c, 9, 59, 49
4, 211454, Note_on_c, 9, 59, 0
4, 211522, Note_on_c, 9, 59, 57
4, 211742, Note_on_c, 9, 59, 0
4, 211910, Note_on_c, 9, 59, 79
4, 212074, Note_on_c, 9, 59, 0
4, 212230, Note_on_c, 9, 59, 28
4, 212262, Note_on_c, 9, 59, 0
4, 212318, Note_on_c, 9, 59, 70
4, 212562, Note_on_c, 9, 59, 0
4, 212682, Note_on_c, 9, 59, 75
4, 212686, Note_on_c, 9, 46, 51
4, 212902, Note_on_c, 9, 59, 0
4, 213070, Note_on_c, 9, 59, 76
4, 213314, Note_on_c, 9, 46, 0
4, 213346, Note_on_c, 9, 59, 0
4, 213450, Note_on_c, 9, 59, 84
4, 213450, Note_on_c, 9, 44, 43
4, 213674, Note_on_c, 9, 44, 0
4, 213738, Note_on_c, 9, 59, 0
4, 213850, Note_on_c, 9, 59, 75
4, 214014, Note_on_c, 9, 59, 0
4, 214126, Note_on_c, 9, 59, 49
4, 214154, Note_on_c, 9, 59, 0
4, 214222, Note_on_c, 9, 59, 63
4, 214230, Note_on_c, 9, 44, 43
4, 214410, Note_on_c, 9, 44, 0
4, 214502, Note_on_c, 9, 59, 0
4, 214610, Note_on_c, 9, 59, 76
4, 214878, Note_on_c, 9, 59, 0
4, 214982, Note_on_c, 9, 44, 48
4, 214998, Note_on_c, 9, 59, 75
4, 215162, Note_on_c, 9, 44, 0
4, 215198, Note_on_c, 9, 59, 0
4, 215282, Note_on_c, 9, 59, 49
4, 215314, Note_on_c, 9, 59, 0
4, 215378, Note_on_c, 9, 59, 67
4, 215638, Note_on_c, 9, 59, 0
4, 215770, Note_on_c, 9, 59, 74
4, 215770, Note_on_c, 9, 44, 42
4, 215854, Note_on_c, 9, 44, 0
4, 215978, Note_on_c, 9, 59, 0
4, 216042, Note_on_c, 9, 59, 56
4, 216070, Note_on_c, 9, 59, 0
4, 216146, Note_on_c, 9, 59, 57
4, 216402, Note_on_c, 9, 59, 0
4, 216526, Note_on_c, 9, 44, 45
4, 216554, Note_on_c, 9, 59, 86
4, 216586, Note_on_c, 9, 44, 0
4, 216922, Note_on_c, 9, 59, 0
4, 217178, Note_on_c, 9, 59, 64
4, 217190, Note_on_c, 9, 45, 32
4, 217226, Note_on_c, 9, 59, 0
4, 217250, Note_on_c, 9, 45, 0
4, 217302, Note_on_c, 9, 59, 57
4, 217566, Note_on_c, 9, 59, 0
4, 217578, Note_on_c, 9, 38, 54
4, 217630, Note_on_c, 9, 38, 0
4, 217682, Note_on_c, 9, 59, 76
4, 217702, Note_on_c, 9, 49, 26
4, 217706, Note_on_c, 9, 36, 57
4, 217774, Note_on_c, 9, 49, 0
4, 217798, Note_on_c, 9, 36, 0
4, 217898, Note_on_c, 9, 59, 0
4, 218002, Note_on_c, 9, 59, 42
4, 218030, Note_on_c, 9, 59, 0
4, 218094, Note_on_c, 9, 59, 66
4, 218330, Note_on_c, 9, 59, 0
4, 218478, Note_on_c, 9, 59, 72
4, 218710, Note_on_c, 9, 59, 0
4, 218734, Note_on_c, 9, 53, 57
4, 218850, Note_on_c, 9, 53, 0
4, 218862, Note_on_c, 9, 59, 48
4, 219078, Note_on_c, 9, 51, 71
4, 219090, Note_on_c, 9, 59, 0
4, 219250, Note_on_c, 9, 59, 49
4, 219482, Note_on_c, 9, 59, 0
4, 219614, Note_on_c, 9, 59, 55
4, 219854, Note_on_c, 9, 38, 54
4, 219914, Note_on_c, 9, 59, 0
4, 219930, Note_on_c, 9, 38, 0
4, 220018, Note_on_c, 9, 59, 48
4, 220058, Note_on_c, 9, 51, 0
4, 220194, Note_on_c, 9, 59, 0
4, 220258, Note_on_c, 9, 59, 60
4, 220270, Note_on_c, 9, 38, 40
4, 220302, Note_on_c, 9, 38, 0
4, 220302, Note_on_c, 9, 59, 0
4, 220378, Note_on_c, 9, 59, 63
4, 220618, Note_on_c, 9, 38, 56
4, 220650, Note_on_c, 9, 38, 0
4, 220686, Note_on_c, 9, 59, 0
4, 220766, Note_on_c, 9, 59, 57
4, 220922, Note_on_c, 9, 36, 57
4, 220950, Note_on_c, 9, 36, 0
4, 221070, Note_on_c, 9, 36, 39
4, 221078, Note_on_c, 9, 59, 0
4, 221114, Note_on_c, 9, 36, 0
4, 221166, Note_on_c, 9, 59, 87
4, 221402, Note_on_c, 9, 38, 56
4, 221406, Note_on_c, 9, 59, 0
4, 221430, Note_on_c, 9, 38, 0
4, 221470, Note_on_c, 9, 59, 49
4, 221494, Note_on_c, 9, 59, 0
4, 221554, Note_on_c, 9, 59, 64
4, 221806, Note_on_c, 9, 38, 37
4, 221846, Note_on_c, 9, 38, 0
4, 221858, Note_on_c, 9, 59, 0
4, 221938, Note_on_c, 9, 59, 66
4, 222182, Note_on_c, 9, 36, 47
4, 222186, Note_on_c, 9, 59, 0
4, 222210, Note_on_c, 9, 36, 0
4, 222242, Note_on_c, 9, 59, 49
4, 222266, Note_on_c, 9, 59, 0
4, 222322, Note_on_c, 9, 59, 66
4, 222626, Note_on_c, 9, 59, 0
4, 222690, Note_on_c, 9, 44, 54
4, 222718, Note_on_c, 9, 59, 72
4, 222838, Note_on_c, 9, 44, 0
4, 222950, Note_on_c, 9, 59, 0
4, 223014, Note_on_c, 9, 59, 50
4, 223038, Note_on_c, 9, 59, 0
4, 223098, Note_on_c, 9, 59, 66
4, 223338, Note_on_c, 9, 38, 42
4, 223366, Note_on_c, 9, 59, 0
4, 223370, Note_on_c, 9, 38, 0
4, 223422, Note_on_c, 9, 59, 40
4, 223454, Note_on_c, 9, 59, 0
4, 223470, Note_on_c, 9, 44, 41
4, 223490, Note_on_c, 9, 59, 55
4, 223666, Note_on_c, 9, 44, 0
4, 223738, Note_on_c, 9, 59, 0
4, 223818, Note_on_c, 9, 59, 59
4, 224058, Note_on_c, 9, 59, 0
4, 224102, Note_on_c, 9, 59, 55
4, 224126, Note_on_c, 9, 59, 0
4, 224202, Note_on_c, 9, 59, 63
4, 224454, Note_on_c, 9, 38, 60
4, 224502, Note_on_c, 9, 59, 0
4, 224514, Note_on_c, 9, 38, 0
4, 224594, Note_on_c, 9, 59, 68
4, 224786, Note_on_c, 9, 59, 0
4, 224854, Note_on_c, 9, 36, 38
4, 224878, Note_on_c, 9, 59, 49
4, 224890, Note_on_c, 9, 36, 0
4, 224914, Note_on_c, 9, 59, 0
4, 224986, Note_on_c, 9, 44, 35
4, 224990, Note_on_c, 9, 59, 58
4, 225138, Note_on_c, 9, 44, 0
4, 225182, Note_on_c, 9, 59, 0
4, 225254, Note_on_c, 9, 59, 68
4, 225262, Note_on_c, 9, 53, 57
4, 225266, Note_on_c, 9, 44, 44
4, 225302, Note_on_c, 9, 44, 0
4, 225538, Note_on_c, 9, 59, 0
4, 225618, Note_on_c, 9, 53, 0
4, 225654, Note_on_c, 9, 59, 50
4, 225678, Note_on_c, 9, 59, 0
4, 225778, Note_on_c, 9, 44, 51
4, 225810, Note_on_c, 9, 59, 71
4, 225822, Note_on_c, 9, 53, 63
4, 225870, Note_on_c, 9, 44, 0
4, 226050, Note_on_c, 9, 59, 0
4, 226142, Note_on_c, 9, 53, 0
4, 226174, Note_on_c, 9, 59, 49
4, 226318, Note_on_c, 9, 59, 0
4, 226402, Note_on_c, 9, 53, 57
4, 226410, Note_on_c, 9, 51, 49
4, 226410, Note_on_c, 9, 59, 68
4, 226510, Note_on_c, 9, 46, 52
4, 226590, Note_on_c, 9, 46, 0
4, 226602, Note_on_c, 9, 53, 0
4, 226626, Note_on_c, 9, 51, 0
4, 226674, Note_on_c, 9, 59, 0
4, 226774, Note_on_c, 9, 59, 46
4, 226846, Note_on_c, 9, 59, 0
4, 226950, Note_on_c, 9, 59, 72
4, 226950, Note_on_c, 9, 53, 49
4, 226954, Note_on_c, 9, 51, 46
4, 227186, Note_on_c, 9, 53, 0
4, 227210, Note_on_c, 9, 59, 0
4, 227238, Note_on_c, 9, 51, 0
4, 227266, Note_on_c, 9, 44, 58
4, 227274, Note_on_c, 9, 59, 50
4, 227354, Note_on_c, 9, 44, 0
4, 227390, Note_on_c, 9, 59, 0
4, 227538, Note_on_c, 9, 59, 72
4, 227542, Note_on_c, 9, 53, 55
4, 227554, Note_on_c, 9, 51, 47
4, 227630, Note_on_c, 9, 53, 0
4, 227650, Note_on_c, 9, 51, 0
4, 227678, Note_on_c, 9, 59, 0
4, 227794, Note_on_c, 9, 59, 40
4, 227822, Note_on_c, 9, 59, 0
4, 228054, Note_on_c, 9, 59, 73
4, 228218, Note_on_c, 9, 59, 0
4, 228322, Note_on_c, 9, 59, 75
4, 228546, Note_on_c, 9, 59, 0
4, 228578, Note_on_c, 9, 38, 52
4, 228606, Note_on_c, 9, 59, 56
4, 228626, Note_on_c, 9, 38, 0
4, 228630, Note_on_c, 9, 59, 0
4, 228702, Note_on_c, 9, 38, 51
4, 228722, Note_on_c, 9, 59, 57
4, 228742, Note_on_c, 9, 38, 0
4, 228822, Note_on_c, 9, 59, 0
4, 228846, Note_on_c, 9, 38, 55
4, 228878, Note_on_c, 9, 59, 69
4, 228966, Note_on_c, 9, 38, 0
4, 229130, Note_on_c, 9, 59, 0
4, 229246, Note_on_c, 9, 59, 68
4, 229474, Note_on_c, 9, 59, 0
4, 229490, Note_on_c, 9, 53, 66
4, 229490, Note_on_c, 9, 51, 65
4, 229522, Note_on_c, 9, 53, 0
4, 229550, Note_on_c, 9, 51, 0
4, 229638, Note_on_c, 9, 59, 47
4, 229646, Note_on_c, 9, 33, 23
4, 229770, Note_on_c, 9, 59, 0
4, 229810, Note_on_c, 9, 33, 0
4, 229870, Note_on_c, 9, 33, 61
4, 229874, Note_on_c, 9, 59, 59
4, 229906, Note_on_c, 9, 33, 0
4, 229946, Note_on_c, 9, 59, 0
4, 230010, Note_on_c, 9, 59, 56
4, 230234, Note_on_c, 9, 59, 0
4, 230250, Note_on_c, 9, 33, 56
4, 230274, Note_on_c, 9, 33, 0
4, 230378, Note_on_c, 9, 59, 92
4, 230402, Note_on_c, 9, 38, 32
4, 230470, Note_on_c, 9, 38, 0
4, 230574, Note_on_c, 9, 59, 0
4, 230630, Note_on_c, 9, 38, 51
4, 230654, Note_on_c, 9, 59, 45
4, 230658, Note_on_c, 9, 38, 0
4, 230690, Note_on_c, 9, 59, 0
4, 230766, Note_on_c, 9, 59, 63
4, 230770, Note_on_c, 9, 38, 43
4, 230810, Note_on_c, 9, 38, 0
4, 231014, Note_on_c, 9, 59, 0
4, 231030, Note_on_c, 9, 38, 49
4, 231058, Note_on_c, 9, 38, 0
4, 231154, Note_on_c, 9, 59, 102
4, 231170, Note_on_c, 9, 45, 22
4, 231318, Note_on_c, 9, 45, 0
4, 231346, Note_on_c, 9, 59, 0
4, 231406, Note_on_c, 9, 43, 32
4, 231442, Note_on_c, 9, 59, 36
4, 231474, Note_on_c, 9, 59, 0
4, 231586, Note_on_c, 9, 59, 40
4, 231614, Note_on_c, 9, 59, 0
4, 231790, Note_on_c, 9, 38, 55
4, 231794, Note_on_c, 9, 43, 0
4, 231794, Note_on_c, 9, 59, 70
4, 231822, Note_on_c, 9, 38, 0
4, 231846, Note_on_c, 9, 59, 0
4, 231910, Note_on_c, 9, 59, 73
4, 231950, Note_on_c, 9, 41, 38
4, 232106, Note_on_c, 9, 41, 0
4, 232118, Note_on_c, 9, 59, 0
4, 232170, Note_on_c, 9, 45, 33
4, 232186, Note_on_c, 9, 53, 37
4, 232218, Note_on_c, 9, 53, 0
4, 232302, Note_on_c, 9, 59, 82
4, 232346, Note_on_c, 9, 45, 0
4, 232422, Note_on_c, 9, 43, 18
4, 232494, Note_on_c, 9, 59, 0
4, 232542, Note_on_c, 9, 43, 0
4, 232554, Note_on_c, 9, 51, 51
4, 232554, Note_on_c, 9, 53, 54
4, 232562, Note_on_c, 9, 33, 50
4, 232586, Note_on_c, 9, 33, 0
4, 232586, Note_on_c, 9, 53, 0
4, 232586, Note_on_c, 9, 51, 0
4, 232702, Note_on_c, 9, 33, 73
4, 232710, Note_on_c, 9, 59, 50
4, 232850, Note_on_c, 9, 59, 0
4, 232858, Note_on_c, 9, 33, 0
4, 232914, Note_on_c, 9, 49, 31
4, 232946, Note_on_c, 9, 38, 81
4, 232990, Note_on_c, 9, 49, 0
4, 233070, Note_on_c, 9, 59, 42
4, 233358, Note_on_c, 9, 59, 0
4, 233450, Note_on_c, 9, 59, 59
4, 233630, Note_on_c, 9, 59, 0
4, 233698, Note_on_c, 9, 59, 54
4, 233742, Note_on_c, 9, 59, 0
4, 233818, Note_on_c, 9, 59, 60
4, 234058, Note_on_c, 9, 59, 0
4, 234070, Note_on_c, 9, 38, 0
4, 234086, Note_on_c, 9, 33, 69
4, 234150, Note_on_c, 9, 33, 0
4, 234206, Note_on_c, 9, 59, 94
4, 234222, Note_on_c, 9, 38, 58
4, 234238, Note_on_c, 9, 49, 20
4, 234378, Note_on_c, 9, 59, 0
4, 234486, Note_on_c, 9, 59, 57
4, 234526, Note_on_c, 9, 59, 0
4, 234598, Note_on_c, 9, 59, 66
4, 234698, Note_on_c, 9, 49, 0
4, 234858, Note_on_c, 9, 59, 0
4, 234942, Note_on_c, 9, 38, 0
4, 234990, Note_on_c, 9, 59, 83
4, 235150, Note_on_c, 9, 59, 0
4, 235274, Note_on_c, 9, 59, 58
4, 235330, Note_on_c, 9, 59, 0
4, 235390, Note_on_c, 9, 59, 67
4, 235618, Note_on_c, 9, 59, 0
4, 235638, Note_on_c, 9, 53, 72
4, 235710, Note_on_c, 9, 53, 0
4, 235782, Note_on_c, 9, 59, 58
4, 235930, Note_on_c, 9, 59, 0
4, 236014, Note_on_c, 9, 59, 57
4, 236066, Note_on_c, 9, 59, 0
4, 236142, Note_on_c, 9, 59, 69
4, 236398, Note_on_c, 9, 59, 0
4, 236538, Note_on_c, 9, 59, 75
4, 236766, Note_on_c, 9, 59, 0
4, 236910, Note_on_c, 9, 59, 79
4, 237090, Note_on_c, 9, 59, 0
4, 237134, Note_on_c, 9, 38, 44
4, 237170, Note_on_c, 9, 38, 0
4, 237178, Note_on_c, 9, 59, 47
4, 237254, Note_on_c, 9, 59, 0
4, 237298, Note_on_c, 9, 59, 35
4, 237526, Note_on_c, 9, 33, 39
4, 237534, Note_on_c, 9, 59, 0
4, 237570, Note_on_c, 9, 33, 0
4, 237670, Note_on_c, 9, 59, 94
4, 237878, Note_on_c, 9, 59, 0
4, 237938, Note_on_c, 9, 59, 54
4, 237970, Note_on_c, 9, 59, 0
4, 238066, Note_on_c, 9, 59, 61
4, 238270, Note_on_c, 9, 59, 0
4, 238322, Note_on_c, 9, 53, 62
4, 238346, Note_on_c, 9, 36, 33
4, 238386, Note_on_c, 9, 36, 0
4, 238450, Note_on_c, 9, 59, 45
4, 238614, Note_on_c, 9, 53, 0
4, 238698, Note_on_c, 9, 53, 57
4, 238698, Note_on_c, 9, 36, 63
4, 238718, Note_on_c, 9, 59, 0
4, 238730, Note_on_c, 9, 36, 0
4, 238794, Note_on_c, 9, 53, 0
4, 238818, Note_on_c, 9, 59, 74
4, 239046, Note_on_c, 9, 59, 0
4, 239078, Note_on_c, 9, 44, 38
4, 239082, Note_on_c, 9, 53, 61
4, 239102, Note_on_c, 9, 53, 0
4, 239110, Note_on_c, 9, 44, 0
4, 239198, Note_on_c, 9, 59, 57
4, 239410, Note_on_c, 9, 59, 0
4, 239482, Note_on_c, 9, 59, 50
4, 239534, Note_on_c, 9, 59, 0
4, 239590, Note_on_c, 9, 59, 79
4, 239838, Note_on_c, 9, 59, 0
4, 239874, Note_on_c, 9, 36, 33
4, 239914, Note_on_c, 9, 36, 0
4, 239974, Note_on_c, 9, 59, 99
4, 240222, Note_on_c, 9, 59, 0
4, 240258, Note_on_c, 9, 36, 31
4, 240306, Note_on_c, 9, 36, 0
4, 240362, Note_on_c, 9, 59, 82
4, 240562, Note_on_c, 9, 59, 0
4, 240658, Note_on_c, 9, 59, 51
4, 240686, Note_on_c, 9, 59, 0
4, 240762, Note_on_c, 9, 59, 60
4, 241018, Note_on_c, 9, 36, 33
4, 241038, Note_on_c, 9, 59, 0
4, 241058, Note_on_c, 9, 36, 0
4, 241122, Note_on_c, 9, 44, 56
4, 241142, Note_on_c, 9, 59, 81
4, 241246, Note_on_c, 9, 44, 0
4, 241350, Note_on_c, 9, 59, 0
4, 241410, Note_on_c, 9, 59, 54
4, 241450, Note_on_c, 9, 59, 0
4, 241522, Note_on_c, 9, 59, 73
4, 241786, Note_on_c, 9, 59, 0
4, 241790, Note_on_c, 9, 36, 45
4, 241822, Note_on_c, 9, 36, 0
4, 241902, Note_on_c, 9, 44, 51
4, 241906, Note_on_c, 9, 59, 85
4, 242094, Note_on_c, 9, 59, 0
4, 242098, Note_on_c, 9, 44, 0
4, 242150, Note_on_c, 9, 44, 1
4, 242166, Note_on_c, 9, 59, 49
4, 242174, Note_on_c, 9, 44, 0
4, 242206, Note_on_c, 9, 59, 0
4, 242270, Note_on_c, 9, 59, 69
4, 242514, Note_on_c, 9, 59, 0
4, 242662, Note_on_c, 9, 59, 87
4, 242926, Note_on_c, 9, 59, 0
4, 243042, Note_on_c, 9, 59, 79
4, 243234, Note_on_c, 9, 59, 0
4, 243298, Note_on_c, 9, 36, 45
4, 243322, Note_on_c, 9, 59, 52
4, 243326, Note_on_c, 9, 36, 0
4, 243362, Note_on_c, 9, 59, 0
4, 243414, Note_on_c, 9, 46, 52
4, 243422, Note_on_c, 9, 59, 75
4, 243638, Note_on_c, 9, 59, 0
4, 243686, Note_on_c, 9, 59, 98
4, 243998, Note_on_c, 9, 59, 0
4, 244022, Note_on_c, 9, 46, 0
4, 244058, Note_on_c, 9, 59, 57
4, 244086, Note_on_c, 9, 59, 0
4, 244194, Note_on_c, 9, 59, 85
4, 244414, Note_on_c, 9, 59, 0
4, 244470, Note_on_c, 9, 59, 90
4, 244670, Note_on_c, 9, 59, 0
4, 244730, Note_on_c, 9, 59, 51
4, 244762, Note_on_c, 9, 59, 0
4, 244874, Note_on_c, 9, 59, 63
4, 244906, Note_on_c, 9, 59, 0
4, 245002, Note_on_c, 9, 59, 92
4, 245214, Note_on_c, 9, 59, 0
4, 245266, Note_on_c, 9, 59, 92
4, 245582, Note_on_c, 9, 59, 0
4, 245646, Note_on_c, 9, 59, 50
4, 245670, Note_on_c, 9, 59, 0
4, 245706, Note_on_c, 9, 36, 43
4, 245742, Note_on_c, 9, 36, 0
4, 245746, Note_on_c, 9, 59, 65
4, 246010, Note_on_c, 9, 59, 0
4, 246130, Note_on_c, 9, 59, 75
4, 246358, Note_on_c, 9, 59, 0
4, 246514, Note_on_c, 9, 59, 85
4, 246702, Note_on_c, 9, 59, 0
4, 246782, Note_on_c, 9, 59, 52
4, 246822, Note_on_c, 9, 59, 0
4, 246890, Note_on_c, 9, 59, 66
4, 247174, Note_on_c, 9, 59, 0
4, 247278, Note_on_c, 9, 59, 82
4, 247282, Note_on_c, 9, 37, 52
4, 247382, Note_on_c, 9, 37, 0
4, 247458, Note_on_c, 9, 59, 0
4, 247562, Note_on_c, 9, 59, 49
4, 247586, Note_on_c, 9, 59, 0
4, 247666, Note_on_c, 9, 59, 73
4, 247950, Note_on_c, 9, 59, 0
4, 248034, Note_on_c, 9, 59, 85
4, 248034, Note_on_c, 9, 37, 51
4, 248094, Note_on_c, 9, 37, 0
4, 248222, Note_on_c, 9, 59, 0
4, 248306, Note_on_c, 9, 59, 41
4, 248342, Note_on_c, 9, 59, 0
4, 248422, Note_on_c, 9, 59, 63
4, 248606, Note_on_c, 9, 59, 0
4, 248702, Note_on_c, 9, 37, 28
4, 248738, Note_on_c, 9, 37, 0
4, 248814, Note_on_c, 9, 44, 50
4, 248822, Note_on_c, 9, 59, 66
4, 248926, Note_on_c, 9, 59, 0
4, 249034, Note_on_c, 9, 44, 0
4, 249086, Note_on_c, 9, 59, 54
4, 249114, Note_on_c, 9, 59, 0
4, 249178, Note_on_c, 9, 59, 72
4, 249386, Note_on_c, 9, 59, 0
4, 249438, Note_on_c, 9, 36, 41
4, 249470, Note_on_c, 9, 36, 0
4, 249562, Note_on_c, 9, 59, 68
4, 249690, Note_on_c, 9, 59, 0
4, 249842, Note_on_c, 9, 59, 63
4, 249910, Note_on_c, 9, 59, 0
4, 249966, Note_on_c, 9, 59, 64
4, 250070, Note_on_c, 9, 59, 0
4, 250342, Note_on_c, 9, 59, 50
4, 250422, Note_on_c, 9, 59, 0
4, 250598, Note_on_c, 9, 59, 66
4, 250674, Note_on_c, 9, 59, 0
4, 250750, Note_on_c, 9, 59, 49
4, 250778, Note_on_c, 9, 59, 0
4, 250966, Note_on_c, 9, 59, 70
4, 250982, Note_on_c, 9, 36, 40
4, 251018, Note_on_c, 9, 36, 0
4, 251054, Note_on_c, 9, 59, 0
4, 251114, Note_on_c, 9, 59, 61
4, 251210, Note_on_c, 9, 59, 0
4, 251358, Note_on_c, 9, 59, 68
4, 251422, Note_on_c, 9, 59, 0
4, 251482, Note_on_c, 9, 59, 72
4, 251658, Note_on_c, 9, 59, 0
4, 251790, Note_on_c, 9, 36, 49
4, 251822, Note_on_c, 9, 36, 0
4, 251886, Note_on_c, 9, 59, 54
4, 252066, Note_on_c, 9, 59, 0
4, 252150, Note_on_c, 9, 59, 54
4, 252206, Note_on_c, 9, 59, 0
4, 252258, Note_on_c, 9, 59, 50
4, 252342, Note_on_c, 9, 59, 0
4, 252554, Note_on_c, 9, 36, 47
4, 252590, Note_on_c, 9, 36, 0
4, 252654, Note_on_c, 9, 59, 57
4, 252730, Note_on_c, 9, 59, 0
4, 252906, Note_on_c, 9, 59, 63
4, 252950, Note_on_c, 9, 38, 36
4, 252982, Note_on_c, 9, 59, 0
4, 252994, Note_on_c, 9, 38, 0
4, 253054, Note_on_c, 9, 59, 57
4, 253142, Note_on_c, 9, 59, 0
4, 253310, Note_on_c, 9, 36, 42
4, 253346, Note_on_c, 9, 36, 0
4, 253406, Note_on_c, 9, 59, 58
4, 253490, Note_on_c, 9, 59, 0
4, 253506, Note_on_c, 9, 36, 29
4, 253558, Note_on_c, 9, 36, 0
4, 253674, Note_on_c, 9, 59, 67
4, 253702, Note_on_c, 9, 38, 43
4, 253738, Note_on_c, 9, 38, 0
4, 253754, Note_on_c, 9, 59, 0
4, 253858, Note_on_c, 9, 38, 36
4, 253906, Note_on_c, 9, 38, 0
4, 254066, Note_on_c, 9, 59, 73
4, 254094, Note_on_c, 9, 36, 38
4, 254130, Note_on_c, 9, 36, 0
4, 254154, Note_on_c, 9, 59, 0
4, 254214, Note_on_c, 9, 59, 67
4, 254250, Note_on_c, 9, 36, 33
4, 254298, Note_on_c, 9, 59, 0
4, 254330, Note_on_c, 9, 36, 0
4, 254446, Note_on_c, 9, 59, 77
4, 254454, Note_on_c, 9, 38, 42
4, 254490, Note_on_c, 9, 38, 0
4, 254522, Note_on_c, 9, 59, 0
4, 254578, Note_on_c, 9, 59, 70
4, 254614, Note_on_c, 9, 38, 33
4, 254670, Note_on_c, 9, 59, 0
4, 254674, Note_on_c, 9, 38, 0
4, 255182, Note_on_c, 9, 59, 69
4, 255214, Note_on_c, 9, 38, 36
4, 255274, Note_on_c, 9, 38, 0
4, 255274, Note_on_c, 9, 59, 0
4, 255338, Note_on_c, 9, 59, 58
4, 255374, Note_on_c, 9, 38, 37
4, 255414, Note_on_c, 9, 38, 0
4, 255430, Note_on_c, 9, 59, 0
4, 255642, Note_on_c, 9, 36, 31
4, 255758, Note_on_c, 9, 36, 0
4, 255942, Note_on_c, 9, 59, 68
4, 255954, Note_on_c, 9, 36, 35
4, 255998, Note_on_c, 9, 36, 0
4, 256010, Note_on_c, 9, 59, 0
4, 256086, Note_on_c, 9, 59, 57
4, 256086, Note_on_c, 9, 38, 31
4, 256162, Note_on_c, 9, 59, 0
4, 256458, Note_on_c, 9, 38, 0
4, 256486, Note_on_c, 9, 44, 43
4, 256498, Note_on_c, 9, 36, 36
4, 256558, Note_on_c, 9, 36, 0
4, 256594, Note_on_c, 9, 44, 0
4, 256726, Note_on_c, 9, 59, 68
4, 256786, Note_on_c, 9, 38, 39
4, 256798, Note_on_c, 9, 59, 0
4, 256822, Note_on_c, 9, 38, 0
4, 256918, Note_on_c, 9, 38, 40
4, 256966, Note_on_c, 9, 38, 0
4, 257114, Note_on_c, 9, 59, 63
4, 257206, Note_on_c, 9, 59, 0
4, 257262, Note_on_c, 9, 59, 50
4, 257290, Note_on_c, 9, 59, 0
4, 257498, Note_on_c, 9, 38, 49
4, 257502, Note_on_c, 9, 59, 71
4, 257578, Note_on_c, 9, 59, 0
4, 257578, Note_on_c, 9, 38, 0
4, 257634, Note_on_c, 9, 59, 62
4, 257654, Note_on_c, 9, 38, 39
4, 257694, Note_on_c, 9, 59, 0
4, 257862, Note_on_c, 9, 38, 0
4, 257910, Note_on_c, 9, 36, 55
4, 257934, Note_on_c, 9, 36, 0
4, 258034, Note_on_c, 9, 59, 56
4, 258142, Note_on_c, 9, 59, 0
4, 258298, Note_on_c, 9, 38, 52
4, 258306, Note_on_c, 9, 59, 68
4, 258326, Note_on_c, 9, 38, 0
4, 258402, Note_on_c, 9, 59, 0
4, 258434, Note_on_c, 9, 38, 49
4, 258462, Note_on_c, 9, 59, 49
4, 258466, Note_on_c, 9, 38, 0
4, 258594, Note_on_c, 9, 59, 0
4, 258710, Note_on_c, 9, 36, 33
4, 258746, Note_on_c, 9, 36, 0
4, 258802, Note_on_c, 9, 59, 77
4, 258954, Note_on_c, 9, 59, 0
4, 259074, Note_on_c, 9, 38, 43
4, 259098, Note_on_c, 9, 59, 49
4, 259110, Note_on_c, 9, 38, 0
4, 259130, Note_on_c, 9, 59, 0
4, 259206, Note_on_c, 9, 38, 52
4, 259218, Note_on_c, 9, 59, 68
4, 259278, Note_on_c, 9, 38, 0
4, 259402, Note_on_c, 9, 59, 0
4, 259578, Note_on_c, 9, 59, 61
4, 259618, Note_on_c, 9, 59, 0
4, 259834, Note_on_c, 9, 38, 49
4, 259846, Note_on_c, 9, 59, 72
4, 259866, Note_on_c, 9, 38, 0
4, 259914, Note_on_c, 9, 59, 0
4, 259970, Note_on_c, 9, 59, 55
4, 259994, Note_on_c, 9, 38, 30
4, 260078, Note_on_c, 9, 38, 0
4, 260138, Note_on_c, 9, 59, 0
4, 260246, Note_on_c, 9, 36, 25
4, 260278, Note_on_c, 9, 36, 0
4, 260362, Note_on_c, 9, 59, 55
4, 260394, Note_on_c, 9, 59, 0
4, 260610, Note_on_c, 9, 59, 70
4, 260666, Note_on_c, 9, 59, 0
4, 261002, Note_on_c, 9, 59, 51
4, 261030, Note_on_c, 9, 59, 0
4, 261146, Note_on_c, 9, 59, 56
4, 261274, Note_on_c, 9, 59, 0
4, 261534, Note_on_c, 9, 59, 54
4, 261714, Note_on_c, 9, 59, 0
4, 261782, Note_on_c, 9, 59, 48
4, 261814, Note_on_c, 9, 59, 0
4, 261874, Note_on_c, 9, 46, 35
4, 262154, Note_on_c, 9, 59, 38
4, 262186, Note_on_c, 9, 59, 0
4, 262278, Note_on_c, 9, 59, 37
4, 262486, Note_on_c, 9, 59, 0
4, 262898, Note_on_c, 9, 59, 39
4, 263010, Note_on_c, 9, 59, 0
4, 263282, Note_on_c, 9, 59, 28
4, 263326, Note_on_c, 9, 59, 0
4, 263874, Note_on_c, 9, 46, 0
4, 263874, End_track
0, 0, End_of_file
