0, 0, Header, 1, 6, 120
1, 0, Start_track
1, 0, Title_t, "Dearly Beloved"
1, 0, Copyright_t, "Copyright © 1998 by Doug McKenzie"
1, 0, Text_t, "Doug McKenzie\012"
1, 0, MIDI_port, 0
1, 0, System_exclusive, 10, 65, 16, 66, 18, 64, 0, 127, 0, 65, 247
1, 0, MIDI_port, 0
1, 0, Time_signature, 4, 2, 24, 8
1, 0, Key_signature, 0, "major"
1, 0, Tempo, 428571
1, 480, Marker_t, "Dearly Beloved (Jerome Kern & Johnny Mercer)  - in the style of Errol Garner"
1, 480, End_track
2, 0, Start_track
2, 0, MIDI_port, 0
2, 0, Title_t, ""
2, 122, Program_c, 0, 0
2, 954, Note_on_c, 0, 91, 49
2, 957, Note_on_c, 0, 60, 37
2, 957, Note_on_c, 0, 55, 28
2, 958, Note_on_c, 0, 79, 35
2, 958, Note_on_c, 0, 88, 42
2, 960, Note_on_c, 0, 84, 44
2, 961, Note_on_c, 0, 57, 26
2, 963, Note_on_c, 0, 65, 17
2, 988, Note_on_c, 0, 84, 0
2, 996, Note_on_c, 0, 79, 0
2, 1003, Note_on_c, 0, 88, 0
2, 1004, Note_on_c, 0, 55, 0
2, 1004, Note_on_c, 0, 91, 0
2, 1007, Note_on_c, 0, 60, 0
2, 1009, Note_on_c, 0, 57, 0
2, 1010, Note_on_c, 0, 65, 0
2, 1086, Note_on_c, 0, 55, 27
2, 1088, Note_on_c, 0, 65, 27
2, 1088, Note_on_c, 0, 60, 41
2, 1092, Note_on_c, 0, 57, 28
2, 1137, Note_on_c, 0, 65, 0
2, 1138, Note_on_c, 0, 60, 0
2, 1141, Note_on_c, 0, 57, 0
2, 1143, Note_on_c, 0, 55, 0
2, 1202, Note_on_c, 0, 55, 31
2, 1205, Note_on_c, 0, 65, 32
2, 1205, Note_on_c, 0, 86, 62
2, 1206, Note_on_c, 0, 60, 40
2, 1208, Note_on_c, 0, 57, 34
2, 1209, Note_on_c, 0, 81, 55
2, 1210, Note_on_c, 0, 74, 35
2, 1247, Note_on_c, 0, 74, 0
2, 1248, Note_on_c, 0, 86, 0
2, 1249, Note_on_c, 0, 57, 0
2, 1249, Note_on_c, 0, 65, 0
2, 1252, Note_on_c, 0, 55, 0
2, 1252, Note_on_c, 0, 60, 0
2, 1252, Note_on_c, 0, 81, 0
2, 1315, Note_on_c, 0, 55, 37
2, 1320, Note_on_c, 0, 65, 35
2, 1321, Note_on_c, 0, 60, 43
2, 1322, Note_on_c, 0, 82, 27
2, 1322, Note_on_c, 0, 76, 57
2, 1323, Note_on_c, 0, 57, 34
2, 1323, Note_on_c, 0, 88, 58
2, 1326, Note_on_c, 0, 83, 64
2, 1334, Note_on_c, 0, 82, 0
2, 1352, Note_on_c, 0, 65, 0
2, 1354, Note_on_c, 0, 57, 0
2, 1355, Note_on_c, 0, 55, 0
2, 1367, Note_on_c, 0, 76, 0
2, 1375, Note_on_c, 0, 83, 0
2, 1378, Note_on_c, 0, 60, 0
2, 1379, Note_on_c, 0, 88, 0
2, 1434, Note_on_c, 0, 60, 28
2, 1438, Note_on_c, 0, 53, 41
2, 1439, Note_on_c, 0, 57, 35
2, 1439, Note_on_c, 0, 89, 62
2, 1441, Note_on_c, 0, 64, 30
2, 1441, Note_on_c, 0, 77, 43
2, 1443, Note_on_c, 0, 84, 44
2, 1497, Note_on_c, 0, 84, 0
2, 1498, Note_on_c, 0, 89, 0
2, 1500, Note_on_c, 0, 77, 0
2, 1517, Note_on_c, 0, 57, 0
2, 1517, Note_on_c, 0, 64, 0
2, 1523, Note_on_c, 0, 60, 0
2, 1529, Note_on_c, 0, 53, 0
2, 1532, Note_on_c, 0, 89, 38
2, 1540, Note_on_c, 0, 89, 0
2, 1560, Note_on_c, 0, 79, 58
2, 1560, Note_on_c, 0, 53, 27
2, 1560, Note_on_c, 0, 91, 65
2, 1562, Note_on_c, 0, 84, 62
2, 1562, Note_on_c, 0, 60, 42
2, 1562, Note_on_c, 0, 64, 32
2, 1565, Note_on_c, 0, 57, 35
2, 1627, Note_on_c, 0, 57, 0
2, 1629, Note_on_c, 0, 60, 0
2, 1629, Note_on_c, 0, 64, 0
2, 1630, Note_on_c, 0, 84, 0
2, 1632, Note_on_c, 0, 79, 0
2, 1633, Note_on_c, 0, 53, 0
2, 1635, Note_on_c, 0, 91, 0
2, 1677, Note_on_c, 0, 53, 25
2, 1683, Note_on_c, 0, 57, 38
2, 1683, Note_on_c, 0, 60, 36
2, 1686, Note_on_c, 0, 64, 15
2, 1728, Note_on_c, 0, 64, 0
2, 1729, Note_on_c, 0, 60, 0
2, 1737, Note_on_c, 0, 57, 0
2, 1741, Note_on_c, 0, 53, 0
2, 1801, Note_on_c, 0, 53, 52
2, 1801, Note_on_c, 0, 93, 94
2, 1801, Note_on_c, 0, 64, 57
2, 1802, Note_on_c, 0, 60, 62
2, 1802, Note_on_c, 0, 81, 89
2, 1803, Note_on_c, 0, 57, 55
2, 1803, Note_on_c, 0, 89, 82
2, 1804, Note_on_c, 0, 86, 80
2, 1852, Note_on_c, 0, 60, 0
2, 1859, Note_on_c, 0, 57, 0
2, 1863, Note_on_c, 0, 64, 0
2, 1866, Note_on_c, 0, 53, 0
2, 1870, Note_on_c, 0, 93, 0
2, 1874, Note_on_c, 0, 89, 0
2, 1877, Note_on_c, 0, 86, 0
2, 1880, Note_on_c, 0, 81, 0
2, 1924, Note_on_c, 0, 59, 44
2, 1924, Note_on_c, 0, 91, 55
2, 1924, Note_on_c, 0, 53, 39
2, 1926, Note_on_c, 0, 79, 43
2, 1927, Note_on_c, 0, 87, 57
2, 1928, Note_on_c, 0, 64, 32
2, 1979, Note_on_c, 0, 87, 0
2, 1985, Note_on_c, 0, 53, 0
2, 1986, Note_on_c, 0, 64, 0
2, 1989, Note_on_c, 0, 91, 0
2, 1997, Note_on_c, 0, 79, 0
2, 1997, Note_on_c, 0, 59, 0
2, 2048, Note_on_c, 0, 59, 40
2, 2049, Note_on_c, 0, 53, 39
2, 2052, Note_on_c, 0, 64, 28
2, 2077, Note_on_c, 0, 64, 0
2, 2106, Note_on_c, 0, 53, 0
2, 2110, Note_on_c, 0, 59, 0
2, 2163, Note_on_c, 0, 53, 31
2, 2165, Note_on_c, 0, 62, 34
2, 2166, Note_on_c, 0, 59, 40
2, 2170, Note_on_c, 0, 55, 47
2, 2170, Note_on_c, 0, 86, 63
2, 2171, Note_on_c, 0, 74, 57
2, 2173, Note_on_c, 0, 81, 58
2, 2180, Note_on_c, 0, 55, 0
2, 2192, Note_on_c, 0, 74, 0
2, 2198, Note_on_c, 0, 81, 0
2, 2207, Note_on_c, 0, 86, 0
2, 2209, Note_on_c, 0, 59, 0
2, 2209, Note_on_c, 0, 62, 0
2, 2218, Note_on_c, 0, 53, 0
2, 2282, Note_on_c, 0, 53, 43
2, 2284, Note_on_c, 0, 62, 38
2, 2285, Note_on_c, 0, 59, 40
2, 2294, Note_on_c, 0, 55, 30
2, 2305, Note_on_c, 0, 55, 0
2, 2310, Note_on_c, 0, 59, 0
2, 2310, Note_on_c, 0, 62, 0
2, 2332, Note_on_c, 0, 53, 0
2, 2366, Note_on_c, 0, 91, 79
2, 2366, Note_on_c, 0, 85, 77
2, 2368, Note_on_c, 0, 79, 73
2, 2386, Note_on_c, 0, 85, 0
2, 2387, Note_on_c, 0, 86, 63
2, 2401, Note_on_c, 0, 79, 0
2, 2401, Note_on_c, 0, 91, 0
2, 2406, Note_on_c, 0, 86, 0
2, 2408, Note_on_c, 0, 51, 43
2, 2410, Note_on_c, 0, 60, 40
2, 2412, Note_on_c, 0, 57, 42
2, 2423, Note_on_c, 0, 89, 60
2, 2426, Note_on_c, 0, 84, 53
2, 2426, Note_on_c, 0, 77, 43
2, 2457, Note_on_c, 0, 84, 0
2, 2459, Note_on_c, 0, 57, 0
2, 2460, Note_on_c, 0, 51, 0
2, 2460, Note_on_c, 0, 60, 0
2, 2467, Note_on_c, 0, 89, 0
2, 2471, Note_on_c, 0, 77, 0
2, 2521, Note_on_c, 0, 51, 50
2, 2522, Note_on_c, 0, 60, 49
2, 2523, Note_on_c, 0, 57, 47
2, 2587, Note_on_c, 0, 57, 0
2, 2591, Note_on_c, 0, 51, 0
2, 2597, Note_on_c, 0, 60, 0
2, 2640, Note_on_c, 0, 51, 42
2, 2641, Note_on_c, 0, 60, 46
2, 2645, Note_on_c, 0, 57, 39
2, 2679, Note_on_c, 0, 51, 0
2, 2680, Note_on_c, 0, 57, 0
2, 2683, Note_on_c, 0, 60, 0
2, 2726, Note_on_c, 0, 52, 75
2, 2728, Note_on_c, 0, 58, 69
2, 2732, Note_on_c, 0, 61, 28
2, 2735, Note_on_c, 0, 62, 44
2, 2742, Note_on_c, 0, 62, 0
2, 2841, Note_on_c, 0, 52, 0
2, 2852, Note_on_c, 0, 61, 0
2, 2873, Note_on_c, 0, 58, 0
2, 2883, Note_on_c, 0, 64, 38
2, 2884, Note_on_c, 0, 53, 42
2, 2885, Note_on_c, 0, 59, 45
2, 2912, Note_on_c, 0, 53, 0
2, 2937, Note_on_c, 0, 64, 0
2, 2945, Note_on_c, 0, 59, 0
2, 3007, Note_on_c, 0, 59, 49
2, 3008, Note_on_c, 0, 64, 51
2, 3009, Note_on_c, 0, 85, 73
2, 3009, Note_on_c, 0, 53, 50
2, 3009, Note_on_c, 0, 79, 71
2, 3009, Note_on_c, 0, 91, 66
2, 3013, Note_on_c, 0, 89, 48
2, 3023, Note_on_c, 0, 89, 0
2, 3043, Note_on_c, 0, 85, 0
2, 3050, Note_on_c, 0, 86, 41
2, 3062, Note_on_c, 0, 86, 0
2, 3062, Note_on_c, 0, 91, 0
2, 3064, Note_on_c, 0, 53, 0
2, 3068, Note_on_c, 0, 79, 0
2, 3077, Note_on_c, 0, 64, 0
2, 3092, Note_on_c, 0, 59, 0
2, 3129, Note_on_c, 0, 59, 36
2, 3131, Note_on_c, 0, 53, 35
2, 3131, Note_on_c, 0, 64, 34
2, 3133, Note_on_c, 0, 86, 63
2, 3135, Note_on_c, 0, 74, 51
2, 3138, Note_on_c, 0, 81, 47
2, 3148, Note_on_c, 0, 81, 0
2, 3154, Note_on_c, 0, 74, 0
2, 3163, Note_on_c, 0, 53, 0
2, 3165, Note_on_c, 0, 86, 0
2, 3175, Note_on_c, 0, 64, 0
2, 3189, Note_on_c, 0, 59, 0
2, 3219, Note_on_c, 0, 86, 63
2, 3220, Note_on_c, 0, 74, 58
2, 3221, Note_on_c, 0, 81, 60
2, 3230, Note_on_c, 0, 81, 0
2, 3231, Note_on_c, 0, 74, 0
2, 3238, Note_on_c, 0, 86, 0
2, 3251, Note_on_c, 0, 59, 51
2, 3251, Note_on_c, 0, 64, 38
2, 3254, Note_on_c, 0, 53, 35
2, 3263, Note_on_c, 0, 88, 57
2, 3264, Note_on_c, 0, 76, 36
2, 3267, Note_on_c, 0, 83, 42
2, 3269, Note_on_c, 0, 53, 0
2, 3276, Note_on_c, 0, 64, 0
2, 3276, Note_on_c, 0, 76, 0
2, 3276, Note_on_c, 0, 83, 0
2, 3278, Note_on_c, 0, 59, 0
2, 3281, Note_on_c, 0, 88, 0
2, 3338, Note_on_c, 0, 88, 64
2, 3339, Note_on_c, 0, 76, 51
2, 3341, Note_on_c, 0, 83, 59
2, 3343, Note_on_c, 0, 82, 31
2, 3347, Note_on_c, 0, 76, 0
2, 3350, Note_on_c, 0, 82, 0
2, 3354, Note_on_c, 0, 83, 0
2, 3360, Note_on_c, 0, 88, 0
2, 3369, Note_on_c, 0, 64, 27
2, 3371, Note_on_c, 0, 60, 33
2, 3372, Note_on_c, 0, 53, 24
2, 3372, Note_on_c, 0, 57, 36
2, 3383, Note_on_c, 0, 89, 62
2, 3384, Note_on_c, 0, 81, 55
2, 3387, Note_on_c, 0, 84, 37
2, 3394, Note_on_c, 0, 86, 31
2, 3406, Note_on_c, 0, 86, 0
2, 3412, Note_on_c, 0, 84, 0
2, 3416, Note_on_c, 0, 81, 0
2, 3417, Note_on_c, 0, 89, 0
2, 3419, Note_on_c, 0, 57, 0
2, 3421, Note_on_c, 0, 60, 0
2, 3423, Note_on_c, 0, 64, 0
2, 3424, Note_on_c, 0, 53, 0
2, 3483, Note_on_c, 0, 64, 35
2, 3487, Note_on_c, 0, 60, 42
2, 3490, Note_on_c, 0, 57, 36
2, 3493, Note_on_c, 0, 53, 18
2, 3523, Note_on_c, 0, 60, 0
2, 3532, Note_on_c, 0, 64, 0
2, 3533, Note_on_c, 0, 57, 0
2, 3536, Note_on_c, 0, 53, 0
2, 3571, Note_on_c, 0, 69, 87
2, 3571, Note_on_c, 0, 77, 74
2, 3574, Note_on_c, 0, 72, 71
2, 3575, Note_on_c, 0, 74, 58
2, 3599, Note_on_c, 0, 64, 33
2, 3600, Note_on_c, 0, 69, 0
2, 3600, Note_on_c, 0, 53, 28
2, 3603, Note_on_c, 0, 57, 44
2, 3603, Note_on_c, 0, 60, 42
2, 3607, Note_on_c, 0, 72, 0
2, 3610, Note_on_c, 0, 74, 0
2, 3613, Note_on_c, 0, 77, 0
2, 3638, Note_on_c, 0, 60, 0
2, 3639, Note_on_c, 0, 71, 71
2, 3640, Note_on_c, 0, 79, 71
2, 3642, Note_on_c, 0, 64, 0
2, 3642, Note_on_c, 0, 74, 58
2, 3644, Note_on_c, 0, 76, 64
2, 3646, Note_on_c, 0, 53, 0
2, 3649, Note_on_c, 0, 57, 0
2, 3676, Note_on_c, 0, 71, 0
2, 3678, Note_on_c, 0, 74, 0
2, 3680, Note_on_c, 0, 76, 0
2, 3680, Note_on_c, 0, 79, 0
2, 3699, Note_on_c, 0, 79, 61
2, 3701, Note_on_c, 0, 74, 55
2, 3701, Note_on_c, 0, 71, 66
2, 3703, Note_on_c, 0, 76, 47
2, 3716, Note_on_c, 0, 64, 30
2, 3717, Note_on_c, 0, 71, 0
2, 3717, Note_on_c, 0, 53, 25
2, 3718, Note_on_c, 0, 60, 38
2, 3720, Note_on_c, 0, 57, 36
2, 3721, Note_on_c, 0, 74, 0
2, 3722, Note_on_c, 0, 76, 0
2, 3728, Note_on_c, 0, 79, 0
2, 3750, Note_on_c, 0, 64, 0
2, 3754, Note_on_c, 0, 60, 0
2, 3763, Note_on_c, 0, 76, 65
2, 3763, Note_on_c, 0, 84, 76
2, 3765, Note_on_c, 0, 81, 68
2, 3766, Note_on_c, 0, 79, 54
2, 3768, Note_on_c, 0, 53, 0
2, 3772, Note_on_c, 0, 57, 0
2, 3791, Note_on_c, 0, 79, 0
2, 3794, Note_on_c, 0, 81, 0
2, 3797, Note_on_c, 0, 76, 0
2, 3798, Note_on_c, 0, 84, 0
2, 3821, Note_on_c, 0, 84, 51
2, 3821, Note_on_c, 0, 76, 58
2, 3824, Note_on_c, 0, 79, 66
2, 3825, Note_on_c, 0, 81, 62
2, 3845, Note_on_c, 0, 76, 0
2, 3846, Note_on_c, 0, 81, 0
2, 3847, Note_on_c, 0, 79, 0
2, 3847, Note_on_c, 0, 84, 0
2, 3848, Note_on_c, 0, 64, 45
2, 3851, Note_on_c, 0, 60, 39
2, 3852, Note_on_c, 0, 57, 32
2, 3854, Note_on_c, 0, 53, 20
2, 3870, Note_on_c, 0, 53, 0
2, 3870, Note_on_c, 0, 64, 0
2, 3875, Note_on_c, 0, 83, 48
2, 3875, Note_on_c, 0, 74, 34
2, 3876, Note_on_c, 0, 79, 28
2, 3878, Note_on_c, 0, 77, 38
2, 3880, Note_on_c, 0, 60, 0
2, 3890, Note_on_c, 0, 57, 0
2, 3905, Note_on_c, 0, 83, 0
2, 3910, Note_on_c, 0, 74, 0
2, 3911, Note_on_c, 0, 77, 0
2, 3912, Note_on_c, 0, 79, 0
2, 3963, Note_on_c, 0, 64, 32
2, 3964, Note_on_c, 0, 53, 29
2, 3965, Note_on_c, 0, 60, 41
2, 3968, Note_on_c, 0, 57, 33
2, 3998, Note_on_c, 0, 60, 0
2, 4010, Note_on_c, 0, 53, 0
2, 4011, Note_on_c, 0, 57, 0
2, 4012, Note_on_c, 0, 64, 0
2, 4081, Note_on_c, 0, 64, 25
2, 4083, Note_on_c, 0, 53, 20
2, 4083, Note_on_c, 0, 74, 41
2, 4084, Note_on_c, 0, 57, 32
2, 4084, Note_on_c, 0, 71, 49
2, 4084, Note_on_c, 0, 79, 41
2, 4084, Note_on_c, 0, 60, 32
2, 4087, Note_on_c, 0, 76, 33
2, 4098, Note_on_c, 0, 71, 0
2, 4103, Note_on_c, 0, 76, 0
2, 4105, Note_on_c, 0, 74, 0
2, 4107, Note_on_c, 0, 64, 0
2, 4107, Note_on_c, 0, 79, 0
2, 4113, Note_on_c, 0, 60, 0
2, 4119, Note_on_c, 0, 57, 0
2, 4120, Note_on_c, 0, 53, 0
2, 4198, Note_on_c, 0, 83, 68
2, 4198, Note_on_c, 0, 74, 60
2, 4200, Note_on_c, 0, 57, 36
2, 4201, Note_on_c, 0, 64, 29
2, 4201, Note_on_c, 0, 53, 29
2, 4202, Note_on_c, 0, 60, 34
2, 4203, Note_on_c, 0, 77, 48
2, 4203, Note_on_c, 0, 79, 46
2, 4227, Note_on_c, 0, 60, 0
2, 4227, Note_on_c, 0, 64, 0
2, 4230, Note_on_c, 0, 79, 0
2, 4230, Note_on_c, 0, 74, 0
2, 4231, Note_on_c, 0, 83, 0
2, 4234, Note_on_c, 0, 77, 0
2, 4235, Note_on_c, 0, 53, 0
2, 4239, Note_on_c, 0, 57, 0
2, 4316, Note_on_c, 0, 81, 70
2, 4317, Note_on_c, 0, 71, 57
2, 4318, Note_on_c, 0, 75, 59
2, 4322, Note_on_c, 0, 59, 47
2, 4331, Note_on_c, 0, 59, 0
2, 4335, Note_on_c, 0, 75, 0
2, 4337, Note_on_c, 0, 76, 44
2, 4409, Note_on_c, 0, 57, 80
2, 4410, Note_on_c, 0, 55, 90
2, 4410, Note_on_c, 0, 45, 91
2, 4415, Note_on_c, 0, 71, 0
2, 4417, Note_on_c, 0, 76, 0
2, 4440, Note_on_c, 0, 81, 0
2, 4445, Note_on_c, 0, 57, 0
2, 4449, Note_on_c, 0, 45, 0
2, 4451, Note_on_c, 0, 55, 0
2, 4456, Note_on_c, 0, 79, 55
2, 4461, Note_on_c, 0, 69, 51
2, 4461, Control_c, 0, 64, 127
2, 4465, Note_on_c, 0, 75, 33
2, 4525, Control_c, 0, 64, 0
2, 4526, Note_on_c, 0, 49, 90
2, 4527, Note_on_c, 0, 75, 0
2, 4527, Note_on_c, 0, 37, 83
2, 4536, Note_on_c, 0, 69, 0
2, 4548, Note_on_c, 0, 79, 0
2, 4570, Note_on_c, 0, 49, 0
2, 4571, Note_on_c, 0, 37, 0
2, 4576, Note_on_c, 0, 79, 28
2, 4578, Note_on_c, 0, 69, 34
2, 4578, Note_on_c, 0, 75, 46
2, 4640, Note_on_c, 0, 69, 0
2, 4642, Note_on_c, 0, 75, 0
2, 4644, Note_on_c, 0, 43, 82
2, 4645, Note_on_c, 0, 31, 83
2, 4650, Note_on_c, 0, 32, 51
2, 4658, Note_on_c, 0, 32, 0
2, 4663, Note_on_c, 0, 79, 0
2, 4667, Note_on_c, 0, 43, 0
2, 4670, Note_on_c, 0, 31, 0
2, 4687, Note_on_c, 0, 75, 34
2, 4692, Note_on_c, 0, 67, 33
2, 4693, Note_on_c, 0, 71, 40
2, 4748, Control_c, 0, 64, 127
2, 4750, Note_on_c, 0, 71, 0
2, 4750, Note_on_c, 0, 67, 0
2, 4755, Control_c, 0, 64, 0
2, 4758, Note_on_c, 0, 24, 78
2, 4760, Note_on_c, 0, 36, 80
2, 4767, Note_on_c, 0, 75, 0
2, 4788, Note_on_c, 0, 24, 0
2, 4803, Note_on_c, 0, 36, 0
2, 4815, Note_on_c, 0, 67, 24
2, 4862, Note_on_c, 0, 67, 0
2, 4921, Note_on_c, 0, 60, 53
2, 4926, Note_on_c, 0, 52, 32
2, 4927, Note_on_c, 0, 67, 44
2, 4932, Note_on_c, 0, 55, 34
2, 4935, Note_on_c, 0, 57, 27
2, 4951, Note_on_c, 0, 57, 0
2, 4953, Note_on_c, 0, 52, 0
2, 4956, Note_on_c, 0, 55, 0
2, 4961, Note_on_c, 0, 60, 0
2, 4983, Note_on_c, 0, 67, 0
2, 5007, Note_on_c, 0, 69, 35
2, 5027, Note_on_c, 0, 69, 0
2, 5038, Note_on_c, 0, 60, 38
2, 5044, Note_on_c, 0, 52, 24
2, 5048, Note_on_c, 0, 72, 33
2, 5049, Note_on_c, 0, 57, 29
2, 5050, Note_on_c, 0, 55, 25
2, 5069, Note_on_c, 0, 72, 0
2, 5070, Note_on_c, 0, 57, 0
2, 5079, Note_on_c, 0, 55, 0
2, 5086, Note_on_c, 0, 60, 0
2, 5089, Note_on_c, 0, 52, 0
2, 5162, Note_on_c, 0, 60, 42
2, 5167, Note_on_c, 0, 57, 33
2, 5167, Note_on_c, 0, 55, 33
2, 5192, Note_on_c, 0, 55, 0
2, 5196, Note_on_c, 0, 57, 0
2, 5210, Note_on_c, 0, 60, 0
2, 5282, Note_on_c, 0, 55, 22
2, 5284, Note_on_c, 0, 60, 34
2, 5287, Note_on_c, 0, 64, 14
2, 5322, Note_on_c, 0, 55, 0
2, 5327, Note_on_c, 0, 60, 0
2, 5333, Note_on_c, 0, 64, 0
2, 5400, Note_on_c, 0, 64, 28
2, 5403, Note_on_c, 0, 60, 38
2, 5405, Note_on_c, 0, 55, 26
2, 5407, Note_on_c, 0, 59, 30
2, 5444, Note_on_c, 0, 59, 0
2, 5445, Note_on_c, 0, 55, 0
2, 5449, Note_on_c, 0, 60, 0
2, 5454, Note_on_c, 0, 64, 0
2, 5515, Note_on_c, 0, 64, 43
2, 5517, Note_on_c, 0, 60, 42
2, 5523, Note_on_c, 0, 59, 32
2, 5539, Note_on_c, 0, 59, 0
2, 5551, Note_on_c, 0, 60, 0
2, 5559, Note_on_c, 0, 64, 0
2, 5642, Note_on_c, 0, 55, 48
2, 5644, Note_on_c, 0, 64, 48
2, 5644, Note_on_c, 0, 60, 32
2, 5645, Note_on_c, 0, 59, 34
2, 5682, Note_on_c, 0, 59, 0
2, 5686, Note_on_c, 0, 55, 0
2, 5687, Note_on_c, 0, 60, 0
2, 5688, Note_on_c, 0, 64, 0
2, 5751, Note_on_c, 0, 57, 44
2, 5752, Note_on_c, 0, 64, 30
2, 5752, Note_on_c, 0, 60, 42
2, 5752, Note_on_c, 0, 53, 31
2, 5796, Note_on_c, 0, 60, 0
2, 5799, Note_on_c, 0, 57, 0
2, 5800, Note_on_c, 0, 53, 0
2, 5802, Note_on_c, 0, 64, 0
2, 5871, Note_on_c, 0, 64, 36
2, 5875, Note_on_c, 0, 60, 45
2, 5875, Note_on_c, 0, 57, 45
2, 5876, Note_on_c, 0, 84, 60
2, 5877, Note_on_c, 0, 72, 58
2, 5878, Note_on_c, 0, 53, 20
2, 5884, Note_on_c, 0, 77, 44
2, 5887, Note_on_c, 0, 81, 29
2, 5888, Note_on_c, 0, 72, 0
2, 5892, Note_on_c, 0, 77, 0
2, 5897, Note_on_c, 0, 81, 0
2, 5903, Note_on_c, 0, 84, 0
2, 5911, Note_on_c, 0, 57, 0
2, 5911, Note_on_c, 0, 60, 0
2, 5913, Note_on_c, 0, 64, 0
2, 5914, Note_on_c, 0, 53, 0
2, 5963, Note_on_c, 0, 91, 76
2, 5964, Note_on_c, 0, 79, 81
2, 5966, Note_on_c, 0, 84, 71
2, 5967, Note_on_c, 0, 88, 66
2, 5985, Note_on_c, 0, 64, 37
2, 5987, Note_on_c, 0, 57, 40
2, 5988, Note_on_c, 0, 53, 25
2, 5989, Note_on_c, 0, 60, 43
2, 5993, Note_on_c, 0, 84, 0
2, 5998, Note_on_c, 0, 88, 0
2, 5999, Note_on_c, 0, 79, 0
2, 6003, Note_on_c, 0, 91, 0
2, 6013, Note_on_c, 0, 64, 0
2, 6024, Note_on_c, 0, 53, 0
2, 6025, Note_on_c, 0, 57, 0
2, 6031, Note_on_c, 0, 60, 0
2, 6035, Note_on_c, 0, 91, 64
2, 6038, Note_on_c, 0, 79, 44
2, 6039, Note_on_c, 0, 88, 49
2, 6040, Note_on_c, 0, 84, 53
2, 6051, Note_on_c, 0, 84, 0
2, 6058, Note_on_c, 0, 79, 0
2, 6060, Note_on_c, 0, 88, 0
2, 6066, Note_on_c, 0, 91, 0
2, 6117, Note_on_c, 0, 57, 36
2, 6117, Note_on_c, 0, 64, 22
2, 6117, Note_on_c, 0, 60, 40
2, 6118, Note_on_c, 0, 91, 53
2, 6118, Note_on_c, 0, 53, 24
2, 6119, Note_on_c, 0, 79, 38
2, 6122, Note_on_c, 0, 84, 39
2, 6124, Note_on_c, 0, 88, 35
2, 6137, Note_on_c, 0, 88, 0
2, 6140, Note_on_c, 0, 91, 0
2, 6142, Note_on_c, 0, 84, 0
2, 6147, Note_on_c, 0, 79, 0
2, 6156, Note_on_c, 0, 60, 0
2, 6165, Note_on_c, 0, 53, 0
2, 6171, Note_on_c, 0, 64, 0
2, 6174, Note_on_c, 0, 57, 0
2, 6235, Note_on_c, 0, 64, 44
2, 6240, Note_on_c, 0, 59, 41
2, 6243, Note_on_c, 0, 57, 32
2, 6274, Note_on_c, 0, 59, 0
2, 6275, Note_on_c, 0, 64, 0
2, 6280, Note_on_c, 0, 57, 0
2, 6357, Note_on_c, 0, 64, 54
2, 6361, Note_on_c, 0, 76, 57
2, 6361, Note_on_c, 0, 88, 54
2, 6361, Note_on_c, 0, 80, 40
2, 6363, Note_on_c, 0, 59, 41
2, 6364, Note_on_c, 0, 53, 26
2, 6365, Note_on_c, 0, 83, 51
2, 6379, Note_on_c, 0, 53, 0
2, 6404, Note_on_c, 0, 59, 0
2, 6408, Note_on_c, 0, 64, 0
2, 6416, Note_on_c, 0, 76, 0
2, 6417, Note_on_c, 0, 80, 0
2, 6417, Note_on_c, 0, 83, 0
2, 6422, Note_on_c, 0, 88, 0
2, 6475, Note_on_c, 0, 64, 53
2, 6475, Note_on_c, 0, 88, 57
2, 6477, Note_on_c, 0, 76, 54
2, 6478, Note_on_c, 0, 80, 39
2, 6478, Note_on_c, 0, 59, 44
2, 6479, Note_on_c, 0, 83, 53
2, 6482, Note_on_c, 0, 64, 0
2, 6487, Note_on_c, 0, 59, 0
2, 6554, Note_on_c, 0, 49, 88
2, 6556, Note_on_c, 0, 37, 81
2, 6606, Control_c, 0, 64, 127
2, 6633, Note_on_c, 0, 37, 0
2, 6645, Note_on_c, 0, 49, 0
2, 6670, Note_on_c, 0, 88, 0
2, 6673, Note_on_c, 0, 76, 0
2, 6689, Note_on_c, 0, 83, 0
2, 6707, Control_c, 0, 64, 0
2, 6717, Note_on_c, 0, 62, 34
2, 6718, Note_on_c, 0, 80, 0
2, 6722, Note_on_c, 0, 52, 31
2, 6737, Note_on_c, 0, 52, 0
2, 6746, Note_on_c, 0, 62, 0
2, 6834, Note_on_c, 0, 62, 35
2, 6838, Note_on_c, 0, 59, 31
2, 6838, Note_on_c, 0, 52, 33
2, 6841, Note_on_c, 0, 55, 35
2, 6864, Note_on_c, 0, 62, 0
2, 6873, Note_on_c, 0, 55, 0
2, 6874, Note_on_c, 0, 52, 0
2, 6879, Note_on_c, 0, 59, 0
2, 6953, Note_on_c, 0, 62, 36
2, 6957, Note_on_c, 0, 52, 30
2, 6959, Note_on_c, 0, 79, 60
2, 6960, Note_on_c, 0, 67, 53
2, 6960, Note_on_c, 0, 55, 37
2, 6963, Note_on_c, 0, 59, 22
2, 6986, Note_on_c, 0, 67, 0
2, 6990, Note_on_c, 0, 79, 0
2, 6999, Note_on_c, 0, 52, 0
2, 7003, Note_on_c, 0, 62, 0
2, 7003, Note_on_c, 0, 55, 0
2, 7005, Note_on_c, 0, 59, 0
2, 7046, Note_on_c, 0, 81, 48
2, 7055, Note_on_c, 0, 81, 0
2, 7075, Note_on_c, 0, 62, 49
2, 7077, Note_on_c, 0, 59, 37
2, 7079, Note_on_c, 0, 52, 36
2, 7079, Note_on_c, 0, 55, 47
2, 7080, Note_on_c, 0, 84, 78
2, 7081, Note_on_c, 0, 72, 68
2, 7109, Note_on_c, 0, 52, 0
2, 7116, Note_on_c, 0, 55, 0
2, 7121, Note_on_c, 0, 59, 0
2, 7145, Note_on_c, 0, 62, 0
2, 7145, Note_on_c, 0, 84, 0
2, 7147, Note_on_c, 0, 72, 0
2, 7167, Note_on_c, 0, 86, 81
2, 7168, Note_on_c, 0, 74, 65
2, 7169, Note_on_c, 0, 80, 52
2, 7191, Note_on_c, 0, 74, 0
2, 7194, Note_on_c, 0, 86, 0
2, 7199, Note_on_c, 0, 80, 0
2, 7200, Note_on_c, 0, 60, 53
2, 7201, Note_on_c, 0, 64, 24
2, 7201, Note_on_c, 0, 59, 38
2, 7202, Note_on_c, 0, 55, 24
2, 7214, Note_on_c, 0, 55, 0
2, 7218, Note_on_c, 0, 84, 56
2, 7224, Note_on_c, 0, 64, 0
2, 7225, Note_on_c, 0, 72, 31
2, 7227, Note_on_c, 0, 60, 0
2, 7232, Note_on_c, 0, 59, 0
2, 7245, Note_on_c, 0, 84, 0
2, 7249, Note_on_c, 0, 72, 0
2, 7317, Note_on_c, 0, 64, 31
2, 7318, Note_on_c, 0, 59, 38
2, 7318, Note_on_c, 0, 60, 45
2, 7321, Note_on_c, 0, 55, 29
2, 7354, Note_on_c, 0, 55, 0
2, 7354, Note_on_c, 0, 60, 0
2, 7361, Note_on_c, 0, 64, 0
2, 7362, Note_on_c, 0, 59, 0
2, 7403, Note_on_c, 0, 85, 87
2, 7404, Note_on_c, 0, 73, 88
2, 7407, Note_on_c, 0, 78, 67
2, 7415, Note_on_c, 0, 78, 0
2, 7433, Note_on_c, 0, 65, 44
2, 7434, Note_on_c, 0, 61, 45
2, 7434, Note_on_c, 0, 55, 38
2, 7446, Note_on_c, 0, 85, 0
2, 7448, Note_on_c, 0, 73, 0
2, 7474, Note_on_c, 0, 65, 0
2, 7486, Note_on_c, 0, 55, 0
2, 7494, Note_on_c, 0, 61, 0
2, 7494, Note_on_c, 0, 84, 74
2, 7496, Note_on_c, 0, 72, 64
2, 7532, Note_on_c, 0, 84, 0
2, 7540, Note_on_c, 0, 72, 0
2, 7544, Note_on_c, 0, 61, 40
2, 7544, Note_on_c, 0, 55, 40
2, 7546, Note_on_c, 0, 65, 34
2, 7560, Note_on_c, 0, 65, 0
2, 7567, Note_on_c, 0, 55, 0
2, 7567, Note_on_c, 0, 83, 68
2, 7570, Note_on_c, 0, 71, 58
2, 7604, Note_on_c, 0, 83, 0
2, 7605, Note_on_c, 0, 61, 0
2, 7607, Note_on_c, 0, 71, 0
2, 7638, Note_on_c, 0, 81, 66
2, 7640, Note_on_c, 0, 69, 64
2, 7648, Note_on_c, 0, 80, 29
2, 7651, Note_on_c, 0, 54, 39
2, 7651, Note_on_c, 0, 65, 46
2, 7651, Note_on_c, 0, 61, 37
2, 7658, Note_on_c, 0, 58, 32
2, 7663, Note_on_c, 0, 81, 0
2, 7667, Note_on_c, 0, 69, 0
2, 7673, Note_on_c, 0, 80, 0
2, 7685, Note_on_c, 0, 65, 0
2, 7689, Note_on_c, 0, 54, 0
2, 7711, Note_on_c, 0, 58, 0
2, 7711, Note_on_c, 0, 82, 70
2, 7714, Note_on_c, 0, 70, 59
2, 7716, Note_on_c, 0, 75, 54
2, 7722, Note_on_c, 0, 61, 0
2, 7755, Note_on_c, 0, 75, 0
2, 7762, Note_on_c, 0, 70, 0
2, 7762, Note_on_c, 0, 82, 0
2, 7790, Note_on_c, 0, 82, 58
2, 7793, Note_on_c, 0, 65, 40
2, 7793, Note_on_c, 0, 61, 37
2, 7794, Note_on_c, 0, 70, 53
2, 7796, Note_on_c, 0, 54, 29
2, 7798, Note_on_c, 0, 75, 47
2, 7799, Note_on_c, 0, 58, 36
2, 7841, Note_on_c, 0, 82, 0
2, 7844, Note_on_c, 0, 70, 0
2, 7844, Note_on_c, 0, 65, 0
2, 7845, Note_on_c, 0, 75, 0
2, 7846, Note_on_c, 0, 54, 0
2, 7857, Note_on_c, 0, 61, 0
2, 7858, Note_on_c, 0, 58, 0
2, 7874, Note_on_c, 0, 80, 57
2, 7879, Note_on_c, 0, 68, 50
2, 7879, Note_on_c, 0, 75, 52
2, 7907, Note_on_c, 0, 65, 29
2, 7913, Note_on_c, 0, 58, 25
2, 7913, Note_on_c, 0, 60, 32
2, 7940, Note_on_c, 0, 60, 0
2, 7945, Note_on_c, 0, 65, 0
2, 7948, Note_on_c, 0, 58, 0
2, 8037, Note_on_c, 0, 54, 45
2, 8038, Note_on_c, 0, 65, 32
2, 8042, Note_on_c, 0, 60, 39
2, 8044, Note_on_c, 0, 58, 32
2, 8058, Note_on_c, 0, 75, 0
2, 8078, Note_on_c, 0, 65, 0
2, 8079, Note_on_c, 0, 58, 0
2, 8106, Note_on_c, 0, 68, 0
2, 8107, Note_on_c, 0, 60, 0
2, 8116, Note_on_c, 0, 80, 0
2, 8121, Note_on_c, 0, 54, 0
2, 8156, Note_on_c, 0, 53, 46
2, 8157, Note_on_c, 0, 80, 51
2, 8157, Note_on_c, 0, 64, 40
2, 8158, Note_on_c, 0, 60, 45
2, 8158, Note_on_c, 0, 56, 42
2, 8160, Note_on_c, 0, 68, 42
2, 8162, Note_on_c, 0, 75, 36
2, 8163, Note_on_c, 0, 72, 45
2, 8189, Note_on_c, 0, 53, 0
2, 8192, Note_on_c, 0, 64, 0
2, 8195, Note_on_c, 0, 60, 0
2, 8199, Note_on_c, 0, 56, 0
2, 8203, Note_on_c, 0, 72, 0
2, 8210, Note_on_c, 0, 75, 0
2, 8210, Note_on_c, 0, 68, 0
2, 8215, Note_on_c, 0, 80, 0
2, 8276, Note_on_c, 0, 56, 34
2, 8279, Note_on_c, 0, 64, 28
2, 8279, Note_on_c, 0, 53, 38
2, 8281, Note_on_c, 0, 60, 37
2, 8319, Note_on_c, 0, 60, 0
2, 8333, Note_on_c, 0, 53, 0
2, 8333, Note_on_c, 0, 64, 0
2, 8348, Note_on_c, 0, 56, 0
2, 8402, Note_on_c, 0, 75, 38
2, 8402, Note_on_c, 0, 64, 39
2, 8403, Note_on_c, 0, 53, 38
2, 8404, Note_on_c, 0, 79, 29
2, 8404, Note_on_c, 0, 67, 36
2, 8404, Note_on_c, 0, 71, 47
2, 8406, Note_on_c, 0, 59, 44
2, 8420, Note_on_c, 0, 67, 0
2, 8422, Note_on_c, 0, 64, 0
2, 8423, Note_on_c, 0, 53, 0
2, 8423, Note_on_c, 0, 71, 0
2, 8432, Note_on_c, 0, 59, 0
2, 8435, Note_on_c, 0, 75, 0
2, 8446, Note_on_c, 0, 79, 0
2, 8523, Note_on_c, 0, 91, 77
2, 8523, Note_on_c, 0, 53, 62
2, 8524, Note_on_c, 0, 88, 74
2, 8525, Note_on_c, 0, 64, 75
2, 8525, Note_on_c, 0, 79, 70
2, 8525, Note_on_c, 0, 84, 76
2, 8528, Note_on_c, 0, 59, 47
2, 8530, Note_on_c, 0, 60, 54
2, 8530, Note_on_c, 0, 56, 31
2, 8565, Note_on_c, 0, 60, 0
2, 8567, Note_on_c, 0, 59, 0
2, 8575, Note_on_c, 0, 84, 0
2, 8578, Note_on_c, 0, 79, 0
2, 8580, Note_on_c, 0, 91, 0
2, 8581, Note_on_c, 0, 53, 0
2, 8586, Note_on_c, 0, 64, 0
2, 8587, Note_on_c, 0, 56, 0
2, 8589, Note_on_c, 0, 88, 0
2, 8607, Note_on_c, 0, 64, 74
2, 8608, Note_on_c, 0, 91, 80
2, 8608, Note_on_c, 0, 53, 66
2, 8608, Note_on_c, 0, 60, 76
2, 8610, Note_on_c, 0, 57, 72
2, 8610, Note_on_c, 0, 79, 79
2, 8610, Note_on_c, 0, 84, 81
2, 8611, Note_on_c, 0, 88, 58
2, 8623, Note_on_c, 0, 89, 22
2, 8630, Note_on_c, 0, 89, 0
2, 8640, Note_on_c, 0, 79, 0
2, 8641, Note_on_c, 0, 84, 0
2, 8641, Note_on_c, 0, 91, 0
2, 8642, Note_on_c, 0, 64, 0
2, 8646, Note_on_c, 0, 88, 0
2, 8650, Note_on_c, 0, 64, 51
2, 8651, Note_on_c, 0, 91, 53
2, 8656, Note_on_c, 0, 84, 60
2, 8656, Note_on_c, 0, 88, 37
2, 8656, Note_on_c, 0, 79, 61
2, 8660, Control_c, 0, 64, 127
2, 8682, Note_on_c, 0, 88, 0
2, 8685, Note_on_c, 0, 84, 0
2, 8686, Note_on_c, 0, 91, 0
2, 8687, Note_on_c, 0, 79, 0
2, 8688, Control_c, 0, 64, 0
2, 8699, Note_on_c, 0, 57, 0
2, 8699, Note_on_c, 0, 60, 0
2, 8700, Note_on_c, 0, 53, 0
2, 8705, Note_on_c, 0, 64, 0
2, 8769, Note_on_c, 0, 64, 40
2, 8772, Note_on_c, 0, 86, 44
2, 8773, Note_on_c, 0, 53, 32
2, 8773, Note_on_c, 0, 57, 40
2, 8773, Note_on_c, 0, 60, 48
2, 8774, Note_on_c, 0, 74, 32
2, 8780, Note_on_c, 0, 81, 40
2, 8791, Note_on_c, 0, 81, 0
2, 8795, Note_on_c, 0, 74, 0
2, 8807, Note_on_c, 0, 60, 0
2, 8808, Note_on_c, 0, 86, 0
2, 8809, Note_on_c, 0, 57, 0
2, 8811, Note_on_c, 0, 64, 0
2, 8814, Note_on_c, 0, 53, 0
2, 8964, Note_on_c, 0, 88, 64
2, 8967, Note_on_c, 0, 64, 45
2, 8967, Note_on_c, 0, 81, 58
2, 8968, Note_on_c, 0, 76, 48
2, 8969, Note_on_c, 0, 57, 47
2, 8969, Note_on_c, 0, 60, 50
2, 8970, Note_on_c, 0, 53, 30
2, 8989, Note_on_c, 0, 64, 0
2, 8990, Note_on_c, 0, 81, 0
2, 8991, Note_on_c, 0, 60, 0
2, 8991, Note_on_c, 0, 76, 0
2, 8991, Note_on_c, 0, 53, 0
2, 8996, Note_on_c, 0, 57, 0
2, 9003, Note_on_c, 0, 88, 0
2, 9008, Control_c, 0, 64, 127
2, 9037, Control_c, 0, 64, 0
2, 9078, Note_on_c, 0, 89, 68
2, 9079, Note_on_c, 0, 64, 63
2, 9080, Note_on_c, 0, 77, 65
2, 9080, Note_on_c, 0, 84, 65
2, 9081, Note_on_c, 0, 60, 57
2, 9081, Note_on_c, 0, 57, 57
2, 9081, Note_on_c, 0, 53, 49
2, 9102, Note_on_c, 0, 64, 0
2, 9103, Note_on_c, 0, 60, 0
2, 9110, Note_on_c, 0, 57, 0
2, 9114, Note_on_c, 0, 53, 0
2, 9115, Control_c, 0, 64, 127
2, 9193, Note_on_c, 0, 55, 89
2, 9195, Note_on_c, 0, 43, 76
2, 9195, Note_on_c, 0, 41, 80
2, 9206, Control_c, 0, 64, 0
2, 9212, Note_on_c, 0, 41, 0
2, 9226, Control_c, 0, 64, 127
2, 9251, Note_on_c, 0, 43, 0
2, 9269, Note_on_c, 0, 84, 0
2, 9270, Note_on_c, 0, 55, 0
2, 9276, Note_on_c, 0, 77, 0
2, 9284, Note_on_c, 0, 89, 0
2, 9352, Control_c, 0, 64, 0
2, 9356, Note_on_c, 0, 64, 62
2, 9359, Note_on_c, 0, 59, 53
2, 9361, Note_on_c, 0, 91, 60
2, 9362, Note_on_c, 0, 53, 36
2, 9363, Note_on_c, 0, 79, 54
2, 9364, Note_on_c, 0, 57, 38
2, 9365, Note_on_c, 0, 86, 45
2, 9371, Note_on_c, 0, 53, 0
2, 9371, Note_on_c, 0, 64, 0
2, 9375, Note_on_c, 0, 57, 0
2, 9375, Note_on_c, 0, 86, 0
2, 9381, Note_on_c, 0, 79, 0
2, 9383, Note_on_c, 0, 91, 0
2, 9383, Note_on_c, 0, 59, 0
2, 9475, Note_on_c, 0, 64, 68
2, 9476, Note_on_c, 0, 59, 52
2, 9478, Note_on_c, 0, 93, 77
2, 9478, Note_on_c, 0, 53, 40
2, 9479, Note_on_c, 0, 81, 68
2, 9480, Note_on_c, 0, 57, 42
2, 9480, Note_on_c, 0, 86, 59
2, 9482, Note_on_c, 0, 89, 43
2, 9487, Note_on_c, 0, 53, 0
2, 9490, Note_on_c, 0, 86, 0
2, 9490, Note_on_c, 0, 57, 0
2, 9492, Note_on_c, 0, 89, 0
2, 9493, Note_on_c, 0, 81, 0
2, 9494, Note_on_c, 0, 64, 0
2, 9497, Note_on_c, 0, 93, 0
2, 9498, Note_on_c, 0, 59, 0
2, 9599, Note_on_c, 0, 91, 67
2, 9601, Note_on_c, 0, 79, 62
2, 9601, Note_on_c, 0, 59, 51
2, 9602, Note_on_c, 0, 64, 49
2, 9602, Note_on_c, 0, 88, 51
2, 9603, Note_on_c, 0, 53, 39
2, 9603, Note_on_c, 0, 56, 25
2, 9604, Control_c, 0, 64, 127
2, 9606, Note_on_c, 0, 84, 58
2, 9611, Note_on_c, 0, 56, 0
2, 9611, Note_on_c, 0, 64, 0
2, 9613, Note_on_c, 0, 84, 0
2, 9620, Note_on_c, 0, 59, 0
2, 9624, Note_on_c, 0, 53, 0
2, 9682, Note_on_c, 0, 55, 91
2, 9683, Note_on_c, 0, 43, 80
2, 9684, Note_on_c, 0, 91, 0
2, 9686, Note_on_c, 0, 88, 0
2, 9690, Control_c, 0, 64, 0
2, 9692, Note_on_c, 0, 79, 0
2, 9714, Control_c, 0, 64, 127
2, 9720, Note_on_c, 0, 43, 0
2, 9738, Note_on_c, 0, 55, 0
2, 9831, Control_c, 0, 64, 0
2, 9834, Note_on_c, 0, 64, 62
2, 9836, Note_on_c, 0, 86, 66
2, 9837, Note_on_c, 0, 74, 61
2, 9837, Note_on_c, 0, 59, 47
2, 9840, Note_on_c, 0, 81, 57
2, 9840, Note_on_c, 0, 57, 39
2, 9843, Note_on_c, 0, 64, 0
2, 9847, Note_on_c, 0, 74, 0
2, 9848, Note_on_c, 0, 59, 0
2, 9849, Note_on_c, 0, 81, 0
2, 9851, Note_on_c, 0, 57, 0
2, 9860, Note_on_c, 0, 86, 0
2, 9953, Note_on_c, 0, 64, 59
2, 9953, Note_on_c, 0, 59, 50
2, 9953, Note_on_c, 0, 91, 69
2, 9956, Note_on_c, 0, 57, 38
2, 9957, Note_on_c, 0, 79, 52
2, 9957, Note_on_c, 0, 86, 54
2, 9961, Note_on_c, 0, 64, 0
2, 9966, Note_on_c, 0, 59, 0
2, 9967, Note_on_c, 0, 79, 0
2, 9967, Note_on_c, 0, 57, 0
2, 9967, Note_on_c, 0, 86, 0
2, 9974, Note_on_c, 0, 91, 0
2, 10008, Control_c, 0, 64, 127
2, 10056, Control_c, 0, 64, 0
2, 10072, Note_on_c, 0, 62, 69
2, 10075, Note_on_c, 0, 57, 58
2, 10075, Note_on_c, 0, 89, 77
2, 10075, Note_on_c, 0, 84, 74
2, 10076, Note_on_c, 0, 51, 46
2, 10076, Note_on_c, 0, 77, 68
2, 10084, Note_on_c, 0, 62, 0
2, 10085, Note_on_c, 0, 57, 0
2, 10093, Control_c, 0, 64, 127
2, 10095, Note_on_c, 0, 51, 0
2, 10150, Note_on_c, 0, 89, 0
2, 10151, Note_on_c, 0, 84, 0
2, 10156, Note_on_c, 0, 77, 0
2, 10158, Note_on_c, 0, 50, 87
2, 10160, Note_on_c, 0, 38, 85
2, 10171, Control_c, 0, 64, 0
2, 10206, Control_c, 0, 64, 127
2, 10284, Note_on_c, 0, 50, 0
2, 10311, Note_on_c, 0, 38, 0
2, 10316, Note_on_c, 0, 62, 57
2, 10316, Note_on_c, 0, 57, 65
2, 10317, Note_on_c, 0, 51, 69
2, 10320, Control_c, 0, 64, 0
2, 10326, Note_on_c, 0, 43, 47
2, 10395, Note_on_c, 0, 51, 0
2, 10397, Note_on_c, 0, 57, 0
2, 10400, Note_on_c, 0, 43, 0
2, 10407, Note_on_c, 0, 38, 34
2, 10417, Note_on_c, 0, 62, 0
2, 10418, Note_on_c, 0, 38, 0
2, 10428, Note_on_c, 0, 42, 69
2, 10435, Note_on_c, 0, 54, 57
2, 10437, Note_on_c, 0, 58, 48
2, 10451, Control_c, 0, 64, 127
2, 10503, Note_on_c, 0, 58, 0
2, 10505, Note_on_c, 0, 54, 0
2, 10511, Note_on_c, 0, 42, 0
2, 10517, Note_on_c, 0, 53, 67
2, 10519, Note_on_c, 0, 59, 65
2, 10519, Control_c, 0, 64, 0
2, 10521, Note_on_c, 0, 43, 65
2, 10527, Note_on_c, 0, 57, 33
2, 10541, Note_on_c, 0, 57, 0
2, 10544, Note_on_c, 0, 53, 0
2, 10559, Note_on_c, 0, 59, 0
2, 10639, Note_on_c, 0, 31, 82
2, 10649, Note_on_c, 0, 43, 0
2, 10654, Note_on_c, 0, 31, 0
2, 10681, Note_on_c, 0, 79, 31
2, 10698, Note_on_c, 0, 79, 0
2, 10759, Note_on_c, 0, 91, 63
2, 10761, Note_on_c, 0, 79, 57
2, 10762, Note_on_c, 0, 85, 63
2, 10764, Note_on_c, 0, 64, 65
2, 10765, Note_on_c, 0, 53, 51
2, 10765, Note_on_c, 0, 59, 57
2, 10798, Note_on_c, 0, 85, 0
2, 10800, Note_on_c, 0, 79, 0
2, 10806, Note_on_c, 0, 91, 0
2, 10807, Note_on_c, 0, 53, 0
2, 10812, Note_on_c, 0, 64, 0
2, 10813, Note_on_c, 0, 59, 0
2, 10834, Note_on_c, 0, 53, 38
2, 10834, Note_on_c, 0, 64, 52
2, 10836, Note_on_c, 0, 91, 48
2, 10837, Note_on_c, 0, 59, 45
2, 10837, Note_on_c, 0, 79, 43
2, 10839, Note_on_c, 0, 85, 56
2, 10875, Note_on_c, 0, 85, 0
2, 10880, Note_on_c, 0, 53, 0
2, 10880, Note_on_c, 0, 86, 37
2, 10882, Note_on_c, 0, 64, 0
2, 10883, Note_on_c, 0, 91, 0
2, 10885, Note_on_c, 0, 59, 0
2, 10886, Note_on_c, 0, 79, 0
2, 10889, Note_on_c, 0, 86, 0
2, 10922, Note_on_c, 0, 64, 32
2, 10922, Note_on_c, 0, 53, 34
2, 10923, Note_on_c, 0, 59, 44
2, 10925, Note_on_c, 0, 82, 43
2, 10926, Note_on_c, 0, 86, 41
2, 10933, Note_on_c, 0, 82, 0
2, 10936, Note_on_c, 0, 53, 0
2, 10945, Note_on_c, 0, 64, 0
2, 10950, Note_on_c, 0, 86, 0
2, 10951, Note_on_c, 0, 59, 0
2, 11008, Note_on_c, 0, 91, 66
2, 11009, Note_on_c, 0, 64, 62
2, 11009, Note_on_c, 0, 59, 57
2, 11011, Note_on_c, 0, 86, 62
2, 11011, Note_on_c, 0, 53, 49
2, 11013, Note_on_c, 0, 79, 44
2, 11023, Note_on_c, 0, 79, 0
2, 11024, Note_on_c, 0, 53, 0
2, 11025, Note_on_c, 0, 64, 0
2, 11028, Note_on_c, 0, 86, 0
2, 11032, Note_on_c, 0, 59, 0
2, 11032, Note_on_c, 0, 91, 0
2, 11089, Note_on_c, 0, 56, 67
2, 11093, Note_on_c, 0, 89, 64
2, 11094, Note_on_c, 0, 50, 58
2, 11095, Note_on_c, 0, 60, 65
2, 11097, Note_on_c, 0, 77, 47
2, 11097, Note_on_c, 0, 84, 58
2, 11107, Note_on_c, 0, 56, 0
2, 11122, Note_on_c, 0, 77, 0
2, 11124, Note_on_c, 0, 84, 0
2, 11128, Note_on_c, 0, 50, 0
2, 11132, Note_on_c, 0, 60, 0
2, 11132, Note_on_c, 0, 89, 0
2, 11171, Note_on_c, 0, 60, 68
2, 11172, Note_on_c, 0, 57, 51
2, 11173, Note_on_c, 0, 91, 69
2, 11174, Note_on_c, 0, 53, 45
2, 11176, Note_on_c, 0, 79, 57
2, 11176, Note_on_c, 0, 86, 62
2, 11177, Note_on_c, 0, 50, 25
2, 11190, Note_on_c, 0, 60, 0
2, 11194, Note_on_c, 0, 79, 0
2, 11197, Note_on_c, 0, 50, 0
2, 11198, Note_on_c, 0, 57, 0
2, 11200, Note_on_c, 0, 53, 0
2, 11200, Note_on_c, 0, 86, 0
2, 11202, Note_on_c, 0, 91, 0
2, 11254, Note_on_c, 0, 60, 72
2, 11254, Note_on_c, 0, 88, 73
2, 11254, Note_on_c, 0, 57, 56
2, 11255, Note_on_c, 0, 93, 73
2, 11255, Note_on_c, 0, 81, 66
2, 11256, Note_on_c, 0, 53, 40
2, 11259, Note_on_c, 0, 50, 35
2, 11266, Note_on_c, 0, 81, 0
2, 11270, Note_on_c, 0, 50, 0
2, 11272, Note_on_c, 0, 60, 0
2, 11273, Note_on_c, 0, 88, 0
2, 11278, Note_on_c, 0, 93, 0
2, 11279, Note_on_c, 0, 53, 0
2, 11280, Note_on_c, 0, 57, 0
2, 11365, Note_on_c, 0, 57, 70
2, 11366, Note_on_c, 0, 60, 83
2, 11366, Note_on_c, 0, 92, 78
2, 11366, Note_on_c, 0, 96, 84
2, 11368, Note_on_c, 0, 50, 65
2, 11368, Note_on_c, 0, 84, 77
2, 11369, Note_on_c, 0, 53, 47
2, 11370, Note_on_c, 0, 90, 50
2, 11378, Note_on_c, 0, 90, 0
2, 11385, Note_on_c, 0, 84, 0
2, 11396, Note_on_c, 0, 92, 0
2, 11398, Note_on_c, 0, 50, 0
2, 11401, Note_on_c, 0, 96, 0
2, 11402, Note_on_c, 0, 53, 0
2, 11403, Note_on_c, 0, 60, 0
2, 11408, Note_on_c, 0, 57, 0
2, 11484, Note_on_c, 0, 64, 83
2, 11484, Note_on_c, 0, 90, 83
2, 11485, Note_on_c, 0, 59, 68
2, 11485, Note_on_c, 0, 83, 87
2, 11486, Note_on_c, 0, 95, 77
2, 11487, Note_on_c, 0, 53, 58
2, 11487, Note_on_c, 0, 57, 61
2, 11502, Note_on_c, 0, 83, 0
2, 11518, Note_on_c, 0, 57, 0
2, 11521, Note_on_c, 0, 90, 0
2, 11525, Note_on_c, 0, 59, 0
2, 11532, Note_on_c, 0, 83, 60
2, 11535, Control_c, 0, 64, 127
2, 11541, Note_on_c, 0, 95, 0
2, 11552, Note_on_c, 0, 64, 0
2, 11555, Note_on_c, 0, 83, 0
2, 11561, Note_on_c, 0, 91, 49
2, 11563, Note_on_c, 0, 53, 0
2, 11567, Note_on_c, 0, 59, 20
2, 11578, Note_on_c, 0, 59, 0
2, 11581, Note_on_c, 0, 64, 30
2, 11581, Note_on_c, 0, 83, 44
2, 11582, Note_on_c, 0, 91, 0
2, 11605, Control_c, 0, 64, 0
2, 11606, Note_on_c, 0, 95, 38
2, 11607, Note_on_c, 0, 64, 0
2, 11610, Note_on_c, 0, 83, 0
2, 11613, Note_on_c, 0, 91, 35
2, 11615, Note_on_c, 0, 95, 0
2, 11621, Note_on_c, 0, 91, 0
2, 11630, Note_on_c, 0, 59, 39
2, 11633, Note_on_c, 0, 53, 17
2, 11635, Note_on_c, 0, 57, 13
2, 11638, Note_on_c, 0, 64, 55
2, 11645, Note_on_c, 0, 79, 35
2, 11646, Note_on_c, 0, 91, 36
2, 11654, Note_on_c, 0, 57, 0
2, 11657, Note_on_c, 0, 53, 0
2, 11662, Note_on_c, 0, 64, 0
2, 11662, Note_on_c, 0, 59, 0
2, 11663, Note_on_c, 0, 79, 0
2, 11669, Note_on_c, 0, 91, 0
2, 11762, Note_on_c, 0, 64, 66
2, 11763, Note_on_c, 0, 59, 50
2, 11765, Note_on_c, 0, 90, 73
2, 11767, Note_on_c, 0, 57, 41
2, 11767, Note_on_c, 0, 83, 71
2, 11768, Note_on_c, 0, 53, 35
2, 11768, Note_on_c, 0, 95, 76
2, 11807, Note_on_c, 0, 90, 0
2, 11813, Note_on_c, 0, 91, 36
2, 11815, Note_on_c, 0, 53, 0
2, 11817, Note_on_c, 0, 57, 0
2, 11818, Note_on_c, 0, 83, 0
2, 11820, Note_on_c, 0, 64, 0
2, 11821, Note_on_c, 0, 59, 0
2, 11822, Note_on_c, 0, 95, 0
2, 11830, Note_on_c, 0, 91, 0
2, 11965, Note_on_c, 0, 94, 74
2, 11965, Note_on_c, 0, 59, 62
2, 11966, Note_on_c, 0, 64, 63
2, 11966, Note_on_c, 0, 53, 63
2, 11968, Note_on_c, 0, 82, 69
2, 11997, Note_on_c, 0, 53, 0
2, 11999, Note_on_c, 0, 64, 0
2, 12006, Note_on_c, 0, 59, 0
2, 12009, Note_on_c, 0, 82, 0
2, 12010, Note_on_c, 0, 94, 0
2, 12052, Note_on_c, 0, 63, 62
2, 12055, Note_on_c, 0, 92, 40
2, 12056, Note_on_c, 0, 80, 47
2, 12057, Note_on_c, 0, 53, 48
2, 12059, Note_on_c, 0, 56, 43
2, 12061, Note_on_c, 0, 59, 43
2, 12062, Note_on_c, 0, 93, 66
2, 12070, Note_on_c, 0, 80, 0
2, 12076, Note_on_c, 0, 81, 43
2, 12087, Note_on_c, 0, 59, 0
2, 12088, Note_on_c, 0, 53, 0
2, 12093, Note_on_c, 0, 63, 0
2, 12096, Note_on_c, 0, 56, 0
2, 12097, Note_on_c, 0, 81, 0
2, 12098, Note_on_c, 0, 92, 0
2, 12099, Note_on_c, 0, 93, 0
2, 12206, Note_on_c, 0, 43, 68
2, 12226, Note_on_c, 0, 43, 0
2, 12253, Note_on_c, 0, 67, 46
2, 12255, Note_on_c, 0, 59, 57
2, 12255, Note_on_c, 0, 63, 50
2, 12258, Note_on_c, 0, 57, 35
2, 12260, Note_on_c, 0, 55, 34
2, 12268, Note_on_c, 0, 57, 0
2, 12287, Note_on_c, 0, 55, 0
2, 12290, Note_on_c, 0, 67, 0
2, 12297, Note_on_c, 0, 63, 0
2, 12317, Note_on_c, 0, 59, 0
2, 12326, Note_on_c, 0, 46, 56
2, 12352, Note_on_c, 0, 46, 0
2, 12362, Note_on_c, 0, 63, 45
2, 12362, Note_on_c, 0, 56, 57
2, 12363, Note_on_c, 0, 47, 54
2, 12370, Note_on_c, 0, 59, 31
2, 12411, Note_on_c, 0, 59, 0
2, 12435, Note_on_c, 0, 56, 0
2, 12444, Note_on_c, 0, 63, 0
2, 12444, Note_on_c, 0, 55, 60
2, 12445, Note_on_c, 0, 60, 58
2, 12448, Note_on_c, 0, 57, 51
2, 12450, Note_on_c, 0, 47, 0
2, 12452, Note_on_c, 0, 55, 0
2, 12456, Note_on_c, 0, 57, 0
2, 12457, Note_on_c, 0, 48, 47
2, 12460, Note_on_c, 0, 64, 24
2, 12465, Note_on_c, 0, 48, 0
2, 12465, Note_on_c, 0, 60, 0
2, 12470, Note_on_c, 0, 64, 0
2, 12505, Note_on_c, 0, 67, 34
2, 12553, Note_on_c, 0, 67, 0
2, 12607, Note_on_c, 0, 52, 30
2, 12609, Note_on_c, 0, 55, 35
2, 12612, Note_on_c, 0, 57, 32
2, 12624, Note_on_c, 0, 57, 0
2, 12636, Note_on_c, 0, 55, 0
2, 12651, Note_on_c, 0, 52, 0
2, 12689, Note_on_c, 0, 69, 64
2, 12719, Note_on_c, 0, 69, 0
2, 12719, Note_on_c, 0, 60, 34
2, 12724, Note_on_c, 0, 57, 28
2, 12725, Note_on_c, 0, 55, 30
2, 12743, Note_on_c, 0, 57, 0
2, 12744, Note_on_c, 0, 60, 0
2, 12745, Note_on_c, 0, 55, 0
2, 12762, Note_on_c, 0, 72, 54
2, 12799, Note_on_c, 0, 72, 0
2, 12849, Note_on_c, 0, 60, 41
2, 12851, Note_on_c, 0, 52, 25
2, 12853, Note_on_c, 0, 57, 36
2, 12853, Note_on_c, 0, 55, 31
2, 12865, Note_on_c, 0, 55, 0
2, 12866, Note_on_c, 0, 57, 0
2, 12870, Note_on_c, 0, 52, 0
2, 12886, Note_on_c, 0, 60, 0
2, 12967, Note_on_c, 0, 64, 52
2, 12970, Note_on_c, 0, 60, 38
2, 12975, Note_on_c, 0, 59, 32
2, 12989, Note_on_c, 0, 59, 0
2, 12993, Note_on_c, 0, 60, 0
2, 13000, Note_on_c, 0, 64, 0
2, 13077, Note_on_c, 0, 64, 37
2, 13081, Note_on_c, 0, 60, 34
2, 13081, Note_on_c, 0, 79, 57
2, 13084, Note_on_c, 0, 59, 32
2, 13096, Note_on_c, 0, 59, 0
2, 13101, Note_on_c, 0, 60, 0
2, 13104, Note_on_c, 0, 64, 0
2, 13149, Note_on_c, 0, 79, 0
2, 13168, Note_on_c, 0, 81, 57
2, 13180, Note_on_c, 0, 81, 0
2, 13189, Note_on_c, 0, 64, 38
2, 13191, Note_on_c, 0, 60, 42
2, 13193, Note_on_c, 0, 59, 34
2, 13201, Note_on_c, 0, 55, 22
2, 13201, Note_on_c, 0, 84, 82
2, 13209, Note_on_c, 0, 55, 0
2, 13223, Note_on_c, 0, 64, 0
2, 13226, Note_on_c, 0, 60, 0
2, 13230, Note_on_c, 0, 59, 0
2, 13269, Note_on_c, 0, 84, 0
2, 13277, Note_on_c, 0, 86, 55
2, 13301, Note_on_c, 0, 86, 0
2, 13310, Note_on_c, 0, 60, 45
2, 13310, Note_on_c, 0, 64, 40
2, 13315, Note_on_c, 0, 59, 40
2, 13319, Note_on_c, 0, 84, 59
2, 13320, Note_on_c, 0, 55, 33
2, 13329, Note_on_c, 0, 55, 0
2, 13333, Note_on_c, 0, 64, 0
2, 13336, Note_on_c, 0, 59, 0
2, 13340, Note_on_c, 0, 60, 0
2, 13427, Note_on_c, 0, 84, 0
2, 13433, Note_on_c, 0, 64, 31
2, 13433, Note_on_c, 0, 54, 32
2, 13435, Note_on_c, 0, 74, 28
2, 13438, Note_on_c, 0, 60, 30
2, 13463, Note_on_c, 0, 74, 0
2, 13469, Note_on_c, 0, 60, 0
2, 13473, Note_on_c, 0, 64, 0
2, 13475, Note_on_c, 0, 54, 0
2, 13557, Note_on_c, 0, 83, 85
2, 13557, Note_on_c, 0, 54, 49
2, 13558, Note_on_c, 0, 64, 51
2, 13558, Note_on_c, 0, 71, 80
2, 13559, Note_on_c, 0, 78, 62
2, 13560, Note_on_c, 0, 75, 30
2, 13561, Note_on_c, 0, 60, 40
2, 13563, Note_on_c, 0, 76, 68
2, 13570, Note_on_c, 0, 60, 0
2, 13571, Note_on_c, 0, 76, 0
2, 13582, Note_on_c, 0, 76, 17
2, 13590, Note_on_c, 0, 75, 0
2, 13599, Note_on_c, 0, 64, 0
2, 13607, Note_on_c, 0, 76, 0
2, 13609, Note_on_c, 0, 71, 0
2, 13611, Note_on_c, 0, 54, 0
2, 13613, Note_on_c, 0, 83, 0
2, 13617, Note_on_c, 0, 78, 0
2, 13641, Note_on_c, 0, 75, 60
2, 13642, Note_on_c, 0, 78, 37
2, 13642, Note_on_c, 0, 71, 58
2, 13642, Note_on_c, 0, 83, 65
2, 13661, Note_on_c, 0, 75, 0
2, 13664, Note_on_c, 0, 76, 53
2, 13678, Note_on_c, 0, 76, 0
2, 13679, Note_on_c, 0, 71, 0
2, 13679, Note_on_c, 0, 54, 39
2, 13679, Note_on_c, 0, 62, 36
2, 13683, Note_on_c, 0, 60, 30
2, 13685, Note_on_c, 0, 83, 0
2, 13688, Note_on_c, 0, 78, 0
2, 13711, Note_on_c, 0, 54, 0
2, 13712, Note_on_c, 0, 62, 0
2, 13712, Note_on_c, 0, 60, 0
2, 13717, Note_on_c, 0, 75, 45
2, 13717, Note_on_c, 0, 71, 36
2, 13719, Note_on_c, 0, 78, 32
2, 13720, Note_on_c, 0, 83, 37
2, 13745, Note_on_c, 0, 75, 0
2, 13753, Note_on_c, 0, 76, 22
2, 13758, Note_on_c, 0, 83, 0
2, 13761, Note_on_c, 0, 71, 0
2, 13769, Note_on_c, 0, 76, 0
2, 13775, Note_on_c, 0, 78, 0
2, 13791, Note_on_c, 0, 62, 41
2, 13794, Note_on_c, 0, 54, 36
2, 13795, Note_on_c, 0, 60, 37
2, 13798, Note_on_c, 0, 82, 67
2, 13799, Note_on_c, 0, 70, 62
2, 13807, Note_on_c, 0, 60, 0
2, 13808, Note_on_c, 0, 76, 31
2, 13811, Note_on_c, 0, 78, 19
2, 13833, Note_on_c, 0, 54, 0
2, 13837, Note_on_c, 0, 76, 0
2, 13838, Note_on_c, 0, 62, 0
2, 13848, Note_on_c, 0, 70, 0
2, 13849, Note_on_c, 0, 78, 0
2, 13854, Note_on_c, 0, 82, 0
2, 13881, Note_on_c, 0, 83, 71
2, 13882, Note_on_c, 0, 71, 62
2, 13883, Note_on_c, 0, 76, 59
2, 13884, Note_on_c, 0, 78, 37
2, 13892, Note_on_c, 0, 78, 0
2, 13903, Note_on_c, 0, 71, 0
2, 13903, Note_on_c, 0, 54, 34
2, 13904, Note_on_c, 0, 64, 34
2, 13911, Note_on_c, 0, 76, 0
2, 13911, Note_on_c, 0, 60, 27
2, 13922, Note_on_c, 0, 60, 0
2, 13922, Note_on_c, 0, 64, 0
2, 13927, Note_on_c, 0, 54, 0
2, 13928, Note_on_c, 0, 71, 43
2, 13938, Note_on_c, 0, 80, 45
2, 13939, Note_on_c, 0, 76, 26
2, 13940, Note_on_c, 0, 83, 0
2, 13945, Note_on_c, 0, 71, 0
2, 13958, Note_on_c, 0, 76, 0
2, 13963, Note_on_c, 0, 80, 0
2, 13966, Note_on_c, 0, 71, 42
2, 13980, Note_on_c, 0, 83, 1
2, 13980, Note_on_c, 0, 76, 36
2, 13981, Note_on_c, 0, 80, 42
2, 13983, Note_on_c, 0, 71, 0
2, 14002, Note_on_c, 0, 76, 0
2, 14004, Note_on_c, 0, 71, 46
2, 14005, Note_on_c, 0, 80, 0
2, 14007, Note_on_c, 0, 83, 0
2, 14018, Note_on_c, 0, 64, 34
2, 14020, Note_on_c, 0, 54, 27
2, 14021, Note_on_c, 0, 60, 35
2, 14021, Note_on_c, 0, 83, 13
2, 14023, Note_on_c, 0, 71, 0
2, 14024, Note_on_c, 0, 80, 39
2, 14025, Note_on_c, 0, 76, 46
2, 14029, Note_on_c, 0, 64, 0
2, 14031, Note_on_c, 0, 60, 0
2, 14038, Note_on_c, 0, 54, 0
2, 14041, Note_on_c, 0, 76, 0
2, 14044, Note_on_c, 0, 80, 0
2, 14046, Note_on_c, 0, 71, 36
2, 14063, Note_on_c, 0, 71, 0
2, 14067, Note_on_c, 0, 80, 34
2, 14068, Note_on_c, 0, 76, 35
2, 14087, Note_on_c, 0, 76, 0
2, 14087, Note_on_c, 0, 71, 38
2, 14089, Note_on_c, 0, 80, 0
2, 14097, Note_on_c, 0, 83, 0
2, 14110, Note_on_c, 0, 83, 17
2, 14112, Note_on_c, 0, 76, 35
2, 14115, Note_on_c, 0, 80, 25
2, 14119, Note_on_c, 0, 71, 0
2, 14119, Note_on_c, 0, 54, 81
2, 14121, Note_on_c, 0, 62, 72
2, 14123, Note_on_c, 0, 76, 0
2, 14123, Note_on_c, 0, 60, 68
2, 14124, Note_on_c, 0, 80, 0
2, 14126, Note_on_c, 0, 83, 0
2, 14202, Note_on_c, 0, 60, 0
2, 14218, Note_on_c, 0, 62, 0
2, 14245, Note_on_c, 0, 65, 71
2, 14246, Note_on_c, 0, 77, 62
2, 14252, Note_on_c, 0, 60, 53
2, 14254, Note_on_c, 0, 62, 36
2, 14261, Note_on_c, 0, 65, 0
2, 14265, Note_on_c, 0, 77, 0
2, 14286, Note_on_c, 0, 78, 46
2, 14290, Note_on_c, 0, 66, 35
2, 14295, Note_on_c, 0, 54, 0
2, 14298, Note_on_c, 0, 72, 28
2, 14320, Note_on_c, 0, 62, 0
2, 14327, Note_on_c, 0, 72, 0
2, 14334, Note_on_c, 0, 60, 0
2, 14340, Note_on_c, 0, 66, 0
2, 14349, Note_on_c, 0, 78, 0
2, 14395, Note_on_c, 0, 65, 45
2, 14398, Note_on_c, 0, 55, 38
2, 14398, Note_on_c, 0, 79, 52
2, 14399, Note_on_c, 0, 67, 54
2, 14401, Note_on_c, 0, 72, 52
2, 14402, Note_on_c, 0, 60, 34
2, 14403, Note_on_c, 0, 65, 0
2, 14408, Note_on_c, 0, 76, 34
2, 14409, Note_on_c, 0, 60, 0
2, 14409, Note_on_c, 0, 77, 29
2, 14411, Note_on_c, 0, 55, 0
2, 14425, Control_c, 0, 64, 127
2, 14472, Note_on_c, 0, 76, 0
2, 14482, Note_on_c, 0, 72, 0
2, 14484, Note_on_c, 0, 79, 0
2, 14486, Note_on_c, 0, 77, 0
2, 14487, Note_on_c, 0, 55, 94
2, 14488, Note_on_c, 0, 43, 84
2, 14494, Note_on_c, 0, 67, 0
2, 14502, Control_c, 0, 64, 0
2, 14537, Control_c, 0, 64, 127
2, 14625, Note_on_c, 0, 55, 0
2, 14639, Control_c, 0, 64, 0
2, 14645, Note_on_c, 0, 62, 42
2, 14649, Note_on_c, 0, 53, 31
2, 14650, Note_on_c, 0, 57, 39
2, 14652, Note_on_c, 0, 60, 40
2, 14665, Control_c, 0, 64, 127
2, 14680, Note_on_c, 0, 53, 0
2, 14684, Note_on_c, 0, 57, 0
2, 14685, Note_on_c, 0, 60, 0
2, 14705, Note_on_c, 0, 62, 0
2, 14731, Note_on_c, 0, 50, 38
2, 14743, Control_c, 0, 64, 0
2, 14747, Note_on_c, 0, 50, 0
2, 14761, Note_on_c, 0, 64, 52
2, 14761, Note_on_c, 0, 55, 65
2, 14763, Note_on_c, 0, 60, 52
2, 14764, Note_on_c, 0, 57, 57
2, 14824, Note_on_c, 0, 57, 0
2, 14826, Note_on_c, 0, 60, 0
2, 14836, Note_on_c, 0, 64, 0
2, 14850, Note_on_c, 0, 55, 0
2, 14857, Note_on_c, 0, 50, 39
2, 14883, Note_on_c, 0, 50, 0
2, 14888, Note_on_c, 0, 60, 52
2, 14888, Note_on_c, 0, 55, 46
2, 14888, Note_on_c, 0, 65, 46
2, 14891, Note_on_c, 0, 62, 36
2, 14891, Note_on_c, 0, 57, 24
2, 14907, Note_on_c, 0, 43, 0
2, 14947, Note_on_c, 0, 62, 0
2, 14947, Note_on_c, 0, 57, 0
2, 14953, Note_on_c, 0, 60, 0
2, 14958, Note_on_c, 0, 65, 0
2, 14966, Note_on_c, 0, 43, 57
2, 14967, Note_on_c, 0, 55, 0
2, 15002, Note_on_c, 0, 55, 68
2, 15003, Note_on_c, 0, 67, 57
2, 15004, Note_on_c, 0, 59, 64
2, 15005, Note_on_c, 0, 63, 51
2, 15006, Note_on_c, 0, 61, 56
2, 15010, Control_c, 0, 64, 127
2, 15093, Control_c, 0, 64, 0
2, 15126, Control_c, 0, 64, 127
2, 15139, Note_on_c, 0, 59, 0
2, 15142, Note_on_c, 0, 61, 0
2, 15146, Note_on_c, 0, 43, 0
2, 15147, Note_on_c, 0, 55, 0
2, 15149, Note_on_c, 0, 63, 0
2, 15153, Note_on_c, 0, 67, 0
2, 15232, Control_c, 0, 64, 0
2, 15244, Note_on_c, 0, 76, 64
2, 15244, Note_on_c, 0, 68, 71
2, 15244, Note_on_c, 0, 71, 67
2, 15245, Note_on_c, 0, 59, 72
2, 15246, Note_on_c, 0, 64, 66
2, 15247, Note_on_c, 0, 53, 60
2, 15250, Note_on_c, 0, 74, 37
2, 15259, Control_c, 0, 64, 127
2, 15286, Note_on_c, 0, 76, 0
2, 15289, Note_on_c, 0, 59, 0
2, 15290, Note_on_c, 0, 53, 0
2, 15291, Note_on_c, 0, 71, 0
2, 15292, Note_on_c, 0, 74, 0
2, 15299, Note_on_c, 0, 64, 0
2, 15307, Note_on_c, 0, 68, 0
2, 15331, Note_on_c, 0, 72, 71
2, 15332, Note_on_c, 0, 62, 72
2, 15333, Control_c, 0, 64, 0
2, 15334, Note_on_c, 0, 67, 64
2, 15335, Note_on_c, 0, 57, 62
2, 15335, Note_on_c, 0, 52, 69
2, 15355, Note_on_c, 0, 57, 0
2, 15365, Note_on_c, 0, 52, 0
2, 15375, Control_c, 0, 64, 127
2, 15450, Note_on_c, 0, 43, 89
2, 15451, Note_on_c, 0, 55, 95
2, 15455, Control_c, 0, 64, 0
2, 15460, Note_on_c, 0, 53, 32
2, 15467, Note_on_c, 0, 53, 0
2, 15488, Control_c, 0, 64, 127
2, 15493, Note_on_c, 0, 72, 0
2, 15494, Note_on_c, 0, 67, 0
2, 15513, Note_on_c, 0, 62, 0
2, 15580, Note_on_c, 0, 49, 27
2, 15587, Note_on_c, 0, 49, 0
2, 15590, Control_c, 0, 64, 0
2, 15606, Note_on_c, 0, 60, 85
2, 15673, Note_on_c, 0, 60, 0
2, 15687, Note_on_c, 0, 60, 50
2, 15709, Note_on_c, 0, 60, 0
2, 15722, Note_on_c, 0, 60, 71
2, 15798, Note_on_c, 0, 60, 0
2, 15808, Note_on_c, 0, 50, 46
2, 15837, Note_on_c, 0, 67, 77
2, 15838, Note_on_c, 0, 66, 53
2, 15839, Note_on_c, 0, 50, 0
2, 15846, Note_on_c, 0, 66, 0
2, 15907, Note_on_c, 0, 67, 0
2, 15924, Note_on_c, 0, 50, 46
2, 15950, Note_on_c, 0, 50, 0
2, 15953, Note_on_c, 0, 66, 65
2, 15954, Note_on_c, 0, 67, 75
2, 15964, Control_c, 0, 64, 127
2, 15967, Note_on_c, 0, 66, 0
2, 16015, Note_on_c, 0, 67, 0
2, 16039, Note_on_c, 0, 50, 39
2, 16039, Note_on_c, 0, 67, 35
2, 16042, Note_on_c, 0, 55, 0
2, 16050, Note_on_c, 0, 67, 0
2, 16052, Note_on_c, 0, 50, 0
2, 16055, Control_c, 0, 64, 0
2, 16074, Note_on_c, 0, 55, 53
2, 16077, Note_on_c, 0, 72, 83
2, 16092, Control_c, 0, 64, 127
2, 16133, Note_on_c, 0, 72, 0
2, 16148, Note_on_c, 0, 43, 0
2, 16160, Note_on_c, 0, 72, 46
2, 16163, Note_on_c, 0, 55, 0
2, 16172, Control_c, 0, 64, 0
2, 16177, Note_on_c, 0, 72, 0
2, 16194, Note_on_c, 0, 79, 90
2, 16209, Control_c, 0, 64, 127
2, 16257, Control_c, 0, 64, 0
2, 16265, Note_on_c, 0, 79, 0
2, 16302, Note_on_c, 0, 60, 49
2, 16309, Note_on_c, 0, 60, 0
2, 16310, Note_on_c, 0, 88, 89
2, 16313, Note_on_c, 0, 64, 32
2, 16314, Note_on_c, 0, 53, 34
2, 16315, Note_on_c, 0, 60, 40
2, 16321, Note_on_c, 0, 57, 29
2, 16323, Note_on_c, 0, 88, 0
2, 16345, Note_on_c, 0, 60, 0
2, 16353, Note_on_c, 0, 57, 0
2, 16355, Note_on_c, 0, 53, 0
2, 16355, Note_on_c, 0, 64, 0
2, 16428, Note_on_c, 0, 53, 29
2, 16430, Note_on_c, 0, 60, 37
2, 16430, Note_on_c, 0, 64, 20
2, 16432, Note_on_c, 0, 57, 31
2, 16487, Note_on_c, 0, 60, 0
2, 16490, Note_on_c, 0, 57, 0
2, 16491, Note_on_c, 0, 64, 0
2, 16493, Note_on_c, 0, 53, 0
2, 16551, Note_on_c, 0, 53, 31
2, 16556, Note_on_c, 0, 64, 30
2, 16556, Note_on_c, 0, 60, 43
2, 16560, Note_on_c, 0, 57, 35
2, 16604, Note_on_c, 0, 64, 0
2, 16608, Note_on_c, 0, 57, 0
2, 16608, Note_on_c, 0, 60, 0
2, 16612, Note_on_c, 0, 53, 0
2, 16645, Note_on_c, 0, 86, 73
2, 16646, Note_on_c, 0, 74, 66
2, 16660, Note_on_c, 0, 74, 0
2, 16661, Note_on_c, 0, 86, 0
2, 16676, Note_on_c, 0, 53, 38
2, 16677, Note_on_c, 0, 64, 43
2, 16678, Note_on_c, 0, 60, 55
2, 16680, Note_on_c, 0, 57, 53
2, 16681, Note_on_c, 0, 76, 74
2, 16682, Note_on_c, 0, 88, 74
2, 16725, Note_on_c, 0, 76, 0
2, 16728, Note_on_c, 0, 60, 0
2, 16733, Note_on_c, 0, 88, 0
2, 16739, Note_on_c, 0, 53, 0
2, 16748, Note_on_c, 0, 64, 0
2, 16751, Note_on_c, 0, 57, 0
2, 16766, Note_on_c, 0, 89, 88
2, 16767, Note_on_c, 0, 77, 72
2, 16770, Note_on_c, 0, 79, 57
2, 16777, Note_on_c, 0, 79, 0
2, 16797, Note_on_c, 0, 64, 51
2, 16801, Note_on_c, 0, 77, 0
2, 16801, Note_on_c, 0, 53, 35
2, 16802, Note_on_c, 0, 57, 38
2, 16803, Note_on_c, 0, 59, 43
2, 16813, Note_on_c, 0, 89, 0
2, 16819, Note_on_c, 0, 77, 45
2, 16832, Note_on_c, 0, 57, 0
2, 16838, Note_on_c, 0, 53, 0
2, 16840, Note_on_c, 0, 89, 45
2, 16844, Note_on_c, 0, 64, 0
2, 16844, Note_on_c, 0, 77, 0
2, 16844, Note_on_c, 0, 59, 0
2, 16865, Note_on_c, 0, 89, 0
2, 16867, Note_on_c, 0, 77, 44
2, 16885, Note_on_c, 0, 89, 33
2, 16894, Note_on_c, 0, 77, 0
2, 16906, Note_on_c, 0, 89, 0
2, 16916, Note_on_c, 0, 64, 37
2, 16916, Note_on_c, 0, 53, 36
2, 16918, Note_on_c, 0, 59, 42
2, 16919, Note_on_c, 0, 57, 41
2, 16928, Note_on_c, 0, 91, 77
2, 16930, Note_on_c, 0, 86, 69
2, 16932, Note_on_c, 0, 79, 40
2, 16932, Note_on_c, 0, 77, 37
2, 16944, Note_on_c, 0, 77, 0
2, 16978, Note_on_c, 0, 86, 0
2, 16980, Note_on_c, 0, 91, 0
2, 16980, Note_on_c, 0, 79, 0
2, 16985, Note_on_c, 0, 57, 0
2, 16988, Note_on_c, 0, 59, 0
2, 16988, Note_on_c, 0, 64, 0
2, 16989, Note_on_c, 0, 53, 0
2, 17038, Note_on_c, 0, 64, 24
2, 17040, Note_on_c, 0, 53, 22
2, 17040, Note_on_c, 0, 59, 28
2, 17042, Note_on_c, 0, 57, 29
2, 17099, Note_on_c, 0, 57, 0
2, 17100, Note_on_c, 0, 64, 0
2, 17102, Note_on_c, 0, 59, 0
2, 17106, Note_on_c, 0, 53, 0
2, 17163, Note_on_c, 0, 64, 33
2, 17164, Note_on_c, 0, 53, 28
2, 17164, Note_on_c, 0, 59, 45
2, 17169, Note_on_c, 0, 57, 36
2, 17219, Note_on_c, 0, 59, 0
2, 17221, Note_on_c, 0, 53, 0
2, 17224, Note_on_c, 0, 64, 0
2, 17225, Note_on_c, 0, 57, 0
2, 17282, Note_on_c, 0, 53, 32
2, 17285, Note_on_c, 0, 64, 24
2, 17285, Note_on_c, 0, 60, 47
2, 17288, Note_on_c, 0, 57, 35
2, 17335, Note_on_c, 0, 60, 0
2, 17339, Note_on_c, 0, 57, 0
2, 17341, Note_on_c, 0, 64, 0
2, 17343, Note_on_c, 0, 53, 0
2, 17403, Note_on_c, 0, 53, 38
2, 17404, Note_on_c, 0, 64, 45
2, 17405, Note_on_c, 0, 60, 52
2, 17406, Note_on_c, 0, 87, 82
2, 17407, Note_on_c, 0, 57, 48
2, 17407, Note_on_c, 0, 91, 83
2, 17407, Note_on_c, 0, 79, 83
2, 17410, Note_on_c, 0, 85, 55
2, 17416, Note_on_c, 0, 85, 0
2, 17449, Note_on_c, 0, 88, 50
2, 17450, Note_on_c, 0, 87, 0
2, 17468, Note_on_c, 0, 79, 0
2, 17472, Note_on_c, 0, 88, 0
2, 17472, Note_on_c, 0, 57, 0
2, 17474, Note_on_c, 0, 60, 0
2, 17474, Note_on_c, 0, 64, 0
2, 17474, Note_on_c, 0, 53, 0
2, 17476, Note_on_c, 0, 91, 0
2, 17524, Note_on_c, 0, 64, 50
2, 17525, Note_on_c, 0, 53, 40
2, 17527, Note_on_c, 0, 57, 46
2, 17527, Note_on_c, 0, 60, 51
2, 17529, Note_on_c, 0, 91, 83
2, 17529, Note_on_c, 0, 87, 81
2, 17530, Note_on_c, 0, 79, 76
2, 17554, Note_on_c, 0, 88, 65
2, 17556, Note_on_c, 0, 87, 0
2, 17563, Note_on_c, 0, 89, 20
2, 17568, Note_on_c, 0, 79, 0
2, 17570, Note_on_c, 0, 91, 0
2, 17574, Note_on_c, 0, 89, 0
2, 17575, Note_on_c, 0, 88, 0
2, 17584, Note_on_c, 0, 64, 0
2, 17586, Note_on_c, 0, 60, 0
2, 17588, Note_on_c, 0, 57, 0
2, 17588, Note_on_c, 0, 53, 0
2, 17613, Note_on_c, 0, 74, 47
2, 17614, Note_on_c, 0, 86, 35
2, 17620, Note_on_c, 0, 74, 0
2, 17624, Note_on_c, 0, 86, 0
2, 17644, Note_on_c, 0, 64, 36
2, 17646, Note_on_c, 0, 60, 44
2, 17646, Note_on_c, 0, 53, 32
2, 17646, Note_on_c, 0, 77, 74
2, 17647, Note_on_c, 0, 89, 81
2, 17647, Note_on_c, 0, 57, 42
2, 17672, Note_on_c, 0, 60, 0
2, 17677, Note_on_c, 0, 57, 0
2, 17684, Note_on_c, 0, 64, 0
2, 17686, Note_on_c, 0, 77, 0
2, 17686, Note_on_c, 0, 53, 0
2, 17694, Note_on_c, 0, 89, 0
2, 17722, Note_on_c, 0, 91, 80
2, 17723, Note_on_c, 0, 79, 71
2, 17723, Note_on_c, 0, 85, 73
2, 17736, Note_on_c, 0, 85, 0
2, 17744, Note_on_c, 0, 86, 35
2, 17757, Note_on_c, 0, 86, 0
2, 17759, Note_on_c, 0, 62, 34
2, 17762, Note_on_c, 0, 51, 34
2, 17762, Note_on_c, 0, 57, 44
2, 17764, Note_on_c, 0, 79, 0
2, 17768, Note_on_c, 0, 91, 0
2, 17796, Note_on_c, 0, 89, 68
2, 17799, Note_on_c, 0, 77, 61
2, 17801, Note_on_c, 0, 84, 71
2, 17802, Note_on_c, 0, 57, 0
2, 17819, Note_on_c, 0, 51, 0
2, 17823, Note_on_c, 0, 62, 0
2, 17833, Note_on_c, 0, 89, 0
2, 17835, Note_on_c, 0, 84, 0
2, 17843, Note_on_c, 0, 77, 0
2, 17881, Note_on_c, 0, 51, 50
2, 17882, Note_on_c, 0, 62, 47
2, 17884, Note_on_c, 0, 57, 51
2, 17930, Note_on_c, 0, 51, 0
2, 17938, Note_on_c, 0, 57, 0
2, 17940, Note_on_c, 0, 62, 0
2, 17968, Note_on_c, 0, 51, 46
2, 17974, Note_on_c, 0, 51, 0
2, 17998, Note_on_c, 0, 62, 78
2, 17999, Note_on_c, 0, 51, 77
2, 17999, Note_on_c, 0, 86, 81
2, 18000, Note_on_c, 0, 74, 79
2, 18000, Note_on_c, 0, 57, 68
2, 18001, Note_on_c, 0, 80, 71
2, 18052, Note_on_c, 0, 80, 0
2, 18057, Note_on_c, 0, 81, 37
2, 18060, Note_on_c, 0, 74, 0
2, 18065, Note_on_c, 0, 81, 0
2, 18067, Note_on_c, 0, 86, 0
2, 18074, Note_on_c, 0, 62, 0
2, 18075, Note_on_c, 0, 57, 0
2, 18077, Note_on_c, 0, 51, 0
2, 18114, Note_on_c, 0, 51, 67
2, 18122, Note_on_c, 0, 61, 46
2, 18126, Note_on_c, 0, 57, 39
2, 18154, Note_on_c, 0, 57, 0
2, 18200, Note_on_c, 0, 51, 0
2, 18203, Note_on_c, 0, 61, 0
2, 18237, Note_on_c, 0, 64, 42
2, 18247, Note_on_c, 0, 59, 35
2, 18249, Note_on_c, 0, 53, 29
2, 18251, Note_on_c, 0, 57, 26
2, 18276, Note_on_c, 0, 59, 0
2, 18280, Note_on_c, 0, 57, 0
2, 18296, Note_on_c, 0, 53, 0
2, 18296, Note_on_c, 0, 64, 0
2, 18359, Note_on_c, 0, 85, 85
2, 18360, Note_on_c, 0, 91, 83
2, 18360, Note_on_c, 0, 79, 85
2, 18360, Note_on_c, 0, 64, 56
2, 18362, Note_on_c, 0, 59, 50
2, 18362, Note_on_c, 0, 53, 43
2, 18363, Note_on_c, 0, 57, 48
2, 18363, Note_on_c, 0, 89, 50
2, 18371, Note_on_c, 0, 89, 0
2, 18383, Note_on_c, 0, 85, 0
2, 18386, Note_on_c, 0, 86, 54
2, 18412, Note_on_c, 0, 91, 0
2, 18414, Note_on_c, 0, 86, 0
2, 18415, Note_on_c, 0, 79, 0
2, 18418, Note_on_c, 0, 57, 0
2, 18424, Note_on_c, 0, 53, 0
2, 18425, Note_on_c, 0, 64, 0
2, 18427, Note_on_c, 0, 59, 0
2, 18476, Note_on_c, 0, 86, 59
2, 18477, Note_on_c, 0, 74, 50
2, 18478, Note_on_c, 0, 59, 46
2, 18478, Note_on_c, 0, 64, 43
2, 18480, Note_on_c, 0, 53, 30
2, 18481, Note_on_c, 0, 81, 39
2, 18483, Note_on_c, 0, 57, 35
2, 18524, Note_on_c, 0, 81, 0
2, 18526, Note_on_c, 0, 74, 0
2, 18531, Note_on_c, 0, 86, 0
2, 18532, Note_on_c, 0, 57, 0
2, 18537, Note_on_c, 0, 53, 0
2, 18544, Note_on_c, 0, 64, 0
2, 18550, Note_on_c, 0, 59, 0
2, 18566, Note_on_c, 0, 76, 55
2, 18566, Note_on_c, 0, 88, 66
2, 18567, Note_on_c, 0, 83, 64
2, 18582, Note_on_c, 0, 76, 0
2, 18583, Note_on_c, 0, 88, 0
2, 18584, Note_on_c, 0, 83, 0
2, 18598, Note_on_c, 0, 59, 35
2, 18600, Note_on_c, 0, 64, 31
2, 18604, Note_on_c, 0, 57, 32
2, 18604, Note_on_c, 0, 74, 33
2, 18605, Note_on_c, 0, 86, 29
2, 18645, Note_on_c, 0, 74, 0
2, 18658, Note_on_c, 0, 86, 0
2, 18665, Note_on_c, 0, 57, 0
2, 18665, Note_on_c, 0, 64, 0
2, 18670, Note_on_c, 0, 59, 0
2, 18689, Note_on_c, 0, 76, 66
2, 18690, Note_on_c, 0, 88, 69
2, 18690, Note_on_c, 0, 83, 69
2, 18705, Note_on_c, 0, 76, 0
2, 18711, Note_on_c, 0, 83, 0
2, 18712, Note_on_c, 0, 88, 0
2, 18721, Note_on_c, 0, 59, 38
2, 18722, Note_on_c, 0, 62, 33
2, 18727, Note_on_c, 0, 57, 38
2, 18727, Note_on_c, 0, 53, 27
2, 18732, Note_on_c, 0, 89, 61
2, 18733, Note_on_c, 0, 84, 50
2, 18734, Note_on_c, 0, 77, 40
2, 18771, Note_on_c, 0, 53, 0
2, 18771, Note_on_c, 0, 57, 0
2, 18775, Note_on_c, 0, 62, 0
2, 18776, Note_on_c, 0, 77, 0
2, 18777, Note_on_c, 0, 59, 0
2, 18780, Note_on_c, 0, 84, 0
2, 18782, Note_on_c, 0, 89, 0
2, 18807, Note_on_c, 0, 91, 64
2, 18808, Note_on_c, 0, 86, 62
2, 18810, Note_on_c, 0, 79, 52
2, 18822, Note_on_c, 0, 79, 0
2, 18822, Note_on_c, 0, 91, 0
2, 18823, Note_on_c, 0, 86, 0
2, 18843, Note_on_c, 0, 89, 47
2, 18844, Note_on_c, 0, 84, 51
2, 18845, Note_on_c, 0, 50, 26
2, 18845, Note_on_c, 0, 77, 37
2, 18845, Note_on_c, 0, 53, 26
2, 18847, Note_on_c, 0, 60, 16
2, 18847, Note_on_c, 0, 57, 22
2, 18889, Note_on_c, 0, 77, 0
2, 18893, Note_on_c, 0, 84, 0
2, 18895, Note_on_c, 0, 50, 0
2, 18899, Note_on_c, 0, 89, 0
2, 18902, Note_on_c, 0, 57, 0
2, 18902, Note_on_c, 0, 60, 0
2, 18903, Note_on_c, 0, 53, 0
2, 18924, Note_on_c, 0, 79, 55
2, 18924, Note_on_c, 0, 91, 61
2, 18926, Note_on_c, 0, 86, 57
2, 18935, Note_on_c, 0, 79, 0
2, 18939, Note_on_c, 0, 91, 0
2, 18946, Note_on_c, 0, 86, 0
2, 18951, Note_on_c, 0, 60, 49
2, 18954, Note_on_c, 0, 57, 42
2, 18958, Note_on_c, 0, 53, 40
2, 18958, Note_on_c, 0, 50, 27
2, 18965, Note_on_c, 0, 80, 55
2, 18969, Note_on_c, 0, 86, 42
2, 18982, Note_on_c, 0, 93, 34
2, 18989, Note_on_c, 0, 89, 32
2, 18994, Note_on_c, 0, 80, 0
2, 18998, Note_on_c, 0, 81, 47
2, 19023, Note_on_c, 0, 86, 0
2, 19026, Note_on_c, 0, 81, 0
2, 19030, Note_on_c, 0, 50, 0
2, 19033, Note_on_c, 0, 53, 0
2, 19033, Note_on_c, 0, 60, 0
2, 19035, Note_on_c, 0, 89, 0
2, 19036, Note_on_c, 0, 93, 0
2, 19038, Note_on_c, 0, 57, 0
2, 19071, Note_on_c, 0, 96, 95
2, 19072, Note_on_c, 0, 84, 90
2, 19073, Note_on_c, 0, 57, 44
2, 19074, Note_on_c, 0, 60, 62
2, 19074, Note_on_c, 0, 50, 41
2, 19074, Note_on_c, 0, 53, 50
2, 19074, Note_on_c, 0, 89, 80
2, 19079, Note_on_c, 0, 93, 33
2, 19080, Note_on_c, 0, 89, 0
2, 19087, Note_on_c, 0, 93, 0
2, 19089, Note_on_c, 0, 89, 20
2, 19122, Note_on_c, 0, 50, 0
2, 19124, Note_on_c, 0, 53, 0
2, 19129, Note_on_c, 0, 57, 0
2, 19140, Note_on_c, 0, 96, 0
2, 19142, Note_on_c, 0, 60, 0
2, 19146, Note_on_c, 0, 89, 0
2, 19155, Note_on_c, 0, 84, 0
2, 19191, Note_on_c, 0, 87, 65
2, 19193, Note_on_c, 0, 64, 34
2, 19193, Note_on_c, 0, 90, 50
2, 19195, Note_on_c, 0, 95, 52
2, 19196, Note_on_c, 0, 59, 39
2, 19196, Note_on_c, 0, 53, 24
2, 19198, Note_on_c, 0, 57, 36
2, 19198, Note_on_c, 0, 93, 34
2, 19199, Note_on_c, 0, 83, 34
2, 19207, Note_on_c, 0, 93, 0
2, 19230, Note_on_c, 0, 87, 0
2, 19238, Note_on_c, 0, 90, 0
2, 19241, Note_on_c, 0, 91, 29
2, 19250, Note_on_c, 0, 57, 0
2, 19253, Note_on_c, 0, 59, 0
2, 19253, Note_on_c, 0, 95, 0
2, 19254, Note_on_c, 0, 53, 0
2, 19254, Note_on_c, 0, 91, 0
2, 19258, Note_on_c, 0, 83, 0
2, 19262, Note_on_c, 0, 64, 0
2, 19311, Note_on_c, 0, 64, 48
2, 19314, Note_on_c, 0, 59, 45
2, 19314, Note_on_c, 0, 86, 48
2, 19316, Note_on_c, 0, 79, 51
2, 19318, Note_on_c, 0, 53, 27
2, 19318, Note_on_c, 0, 57, 38
2, 19318, Note_on_c, 0, 91, 28
2, 19336, Note_on_c, 0, 79, 0
2, 19345, Note_on_c, 0, 86, 0
2, 19346, Note_on_c, 0, 91, 0
2, 19357, Note_on_c, 0, 53, 0
2, 19357, Note_on_c, 0, 57, 0
2, 19365, Note_on_c, 0, 64, 0
2, 19368, Note_on_c, 0, 59, 0
2, 19397, Note_on_c, 0, 87, 86
2, 19399, Note_on_c, 0, 95, 80
2, 19400, Note_on_c, 0, 83, 75
2, 19400, Note_on_c, 0, 90, 65
2, 19411, Note_on_c, 0, 87, 0
2, 19412, Note_on_c, 0, 88, 54
2, 19419, Note_on_c, 0, 90, 0
2, 19424, Note_on_c, 0, 91, 34
2, 19432, Note_on_c, 0, 91, 0
2, 19434, Note_on_c, 0, 83, 0
2, 19434, Note_on_c, 0, 64, 32
2, 19436, Note_on_c, 0, 95, 0
2, 19437, Note_on_c, 0, 59, 34
2, 19441, Note_on_c, 0, 88, 0
2, 19443, Note_on_c, 0, 57, 27
2, 19461, Note_on_c, 0, 93, 61
2, 19464, Note_on_c, 0, 88, 36
2, 19465, Note_on_c, 0, 81, 44
2, 19471, Note_on_c, 0, 57, 0
2, 19479, Note_on_c, 0, 64, 0
2, 19482, Note_on_c, 0, 59, 0
2, 19501, Note_on_c, 0, 93, 0
2, 19504, Note_on_c, 0, 88, 0
2, 19507, Note_on_c, 0, 81, 0
2, 19556, Note_on_c, 0, 64, 40
2, 19558, Note_on_c, 0, 92, 71
2, 19559, Note_on_c, 0, 59, 37
2, 19559, Note_on_c, 0, 80, 57
2, 19560, Note_on_c, 0, 87, 71
2, 19562, Note_on_c, 0, 57, 36
2, 19610, Note_on_c, 0, 57, 0
2, 19610, Note_on_c, 0, 59, 0
2, 19613, Note_on_c, 0, 64, 0
2, 19618, Note_on_c, 0, 92, 0
2, 19619, Note_on_c, 0, 80, 0
2, 19622, Note_on_c, 0, 87, 0
2, 19677, Note_on_c, 0, 79, 76
2, 19677, Note_on_c, 0, 64, 52
2, 19678, Note_on_c, 0, 91, 64
2, 19678, Note_on_c, 0, 87, 60
2, 19680, Note_on_c, 0, 59, 44
2, 19682, Note_on_c, 0, 85, 39
2, 19685, Note_on_c, 0, 57, 28
2, 19690, Note_on_c, 0, 85, 0
2, 19703, Note_on_c, 0, 64, 0
2, 19704, Note_on_c, 0, 57, 0
2, 19710, Note_on_c, 0, 59, 0
2, 19728, Note_on_c, 0, 91, 0
2, 19731, Note_on_c, 0, 87, 0
2, 19740, Note_on_c, 0, 79, 0
2, 19795, Note_on_c, 0, 89, 68
2, 19795, Note_on_c, 0, 64, 49
2, 19796, Note_on_c, 0, 83, 69
2, 19796, Note_on_c, 0, 59, 50
2, 19797, Note_on_c, 0, 77, 46
2, 19798, Note_on_c, 0, 53, 39
2, 19799, Note_on_c, 0, 79, 55
2, 19803, Note_on_c, 0, 64, 0
2, 19813, Note_on_c, 0, 59, 0
2, 19820, Note_on_c, 0, 53, 0
2, 19874, Note_on_c, 0, 83, 0
2, 19876, Note_on_c, 0, 79, 0
2, 19880, Note_on_c, 0, 53, 94
2, 19881, Note_on_c, 0, 77, 0
2, 19881, Note_on_c, 0, 41, 89
2, 19886, Note_on_c, 0, 46, 36
2, 19893, Note_on_c, 0, 46, 0
2, 19897, Note_on_c, 0, 41, 0
2, 19897, Note_on_c, 0, 53, 0
2, 19926, Note_on_c, 0, 49, 90
2, 19929, Note_on_c, 0, 37, 91
2, 19929, Note_on_c, 0, 77, 38
2, 19930, Note_on_c, 0, 83, 56
2, 19947, Note_on_c, 0, 37, 0
2, 19954, Note_on_c, 0, 38, 35
2, 19968, Note_on_c, 0, 38, 0
2, 19982, Note_on_c, 0, 49, 0
2, 20002, Note_on_c, 0, 83, 0
2, 20007, Note_on_c, 0, 77, 0
2, 20008, Note_on_c, 0, 43, 83
2, 20008, Note_on_c, 0, 45, 72
2, 20010, Note_on_c, 0, 31, 88
2, 20012, Note_on_c, 0, 32, 69
2, 20015, Note_on_c, 0, 45, 0
2, 20065, Note_on_c, 0, 82, 30
2, 20067, Note_on_c, 0, 76, 27
2, 20071, Note_on_c, 0, 77, 22
2, 20117, Note_on_c, 0, 76, 0
2, 20126, Note_on_c, 0, 77, 0
2, 20129, Note_on_c, 0, 32, 0
2, 20138, Note_on_c, 0, 82, 0
2, 20153, Note_on_c, 0, 43, 0
2, 20157, Note_on_c, 0, 31, 0
2, 20161, Note_on_c, 0, 89, 0
2, 20164, Note_on_c, 0, 36, 61
2, 20166, Note_on_c, 0, 84, 36
2, 20168, Note_on_c, 0, 79, 26
2, 20170, Note_on_c, 0, 88, 18
2, 20172, Note_on_c, 0, 36, 0
2, 20185, Note_on_c, 0, 84, 0
2, 20205, Note_on_c, 0, 79, 0
2, 20206, Note_on_c, 0, 88, 0
2, 20283, Note_on_c, 0, 60, 26
2, 20296, Note_on_c, 0, 60, 0
2, 20367, Note_on_c, 0, 79, 44
2, 20367, Note_on_c, 0, 67, 46
2, 20375, Note_on_c, 0, 74, 25
2, 20379, Note_on_c, 0, 67, 0
2, 20382, Note_on_c, 0, 79, 0
2, 20386, Note_on_c, 0, 74, 0
2, 20392, Note_on_c, 0, 60, 35
2, 20393, Note_on_c, 0, 57, 35
2, 20394, Note_on_c, 0, 52, 28
2, 20396, Note_on_c, 0, 55, 43
2, 20404, Note_on_c, 0, 74, 48
2, 20405, Note_on_c, 0, 69, 44
2, 20408, Note_on_c, 0, 81, 48
2, 20423, Note_on_c, 0, 52, 0
2, 20436, Note_on_c, 0, 60, 0
2, 20440, Note_on_c, 0, 74, 0
2, 20440, Note_on_c, 0, 69, 0
2, 20444, Note_on_c, 0, 57, 0
2, 20444, Note_on_c, 0, 55, 0
2, 20456, Note_on_c, 0, 81, 0
2, 20488, Note_on_c, 0, 80, 64
2, 20489, Note_on_c, 0, 84, 74
2, 20490, Note_on_c, 0, 72, 62
2, 20503, Note_on_c, 0, 80, 0
2, 20509, Note_on_c, 0, 81, 33
2, 20510, Note_on_c, 0, 72, 0
2, 20517, Note_on_c, 0, 84, 0
2, 20518, Note_on_c, 0, 81, 0
2, 20522, Note_on_c, 0, 52, 24
2, 20522, Note_on_c, 0, 60, 29
2, 20524, Note_on_c, 0, 57, 30
2, 20525, Note_on_c, 0, 55, 34
2, 20538, Note_on_c, 0, 52, 0
2, 20540, Note_on_c, 0, 57, 0
2, 20543, Note_on_c, 0, 55, 0
2, 20544, Note_on_c, 0, 81, 43
2, 20544, Note_on_c, 0, 69, 33
2, 20567, Note_on_c, 0, 60, 0
2, 20578, Note_on_c, 0, 69, 0
2, 20593, Note_on_c, 0, 81, 0
2, 20637, Note_on_c, 0, 64, 35
2, 20640, Note_on_c, 0, 80, 50
2, 20640, Note_on_c, 0, 72, 57
2, 20642, Note_on_c, 0, 59, 29
2, 20642, Note_on_c, 0, 60, 38
2, 20642, Note_on_c, 0, 84, 47
2, 20663, Note_on_c, 0, 60, 0
2, 20666, Note_on_c, 0, 72, 0
2, 20670, Note_on_c, 0, 64, 0
2, 20676, Note_on_c, 0, 80, 0
2, 20678, Note_on_c, 0, 59, 0
2, 20680, Note_on_c, 0, 81, 46
2, 20687, Note_on_c, 0, 84, 0
2, 20689, Note_on_c, 0, 81, 0
2, 20694, Note_on_c, 0, 72, 36
2, 20712, Note_on_c, 0, 84, 28
2, 20714, Note_on_c, 0, 72, 0
2, 20721, Note_on_c, 0, 81, 59
2, 20735, Note_on_c, 0, 84, 0
2, 20737, Note_on_c, 0, 81, 0
2, 20754, Note_on_c, 0, 64, 37
2, 20757, Note_on_c, 0, 60, 47
2, 20758, Note_on_c, 0, 59, 30
2, 20763, Note_on_c, 0, 55, 24
2, 20775, Note_on_c, 0, 55, 0
2, 20818, Note_on_c, 0, 59, 0
2, 20834, Note_on_c, 0, 64, 0
2, 20841, Note_on_c, 0, 56, 74
2, 20856, Note_on_c, 0, 60, 0
2, 20887, Note_on_c, 0, 64, 29
2, 20889, Note_on_c, 0, 60, 24
2, 20956, Note_on_c, 0, 56, 0
2, 20960, Note_on_c, 0, 55, 73
2, 20962, Note_on_c, 0, 64, 0
2, 21000, Note_on_c, 0, 64, 35
2, 21064, Note_on_c, 0, 55, 0
2, 21080, Note_on_c, 0, 64, 0
2, 21084, Note_on_c, 0, 54, 72
2, 21107, Note_on_c, 0, 60, 0
2, 21128, Note_on_c, 0, 60, 15
2, 21188, Note_on_c, 0, 60, 0
2, 21200, Note_on_c, 0, 69, 54
2, 21203, Note_on_c, 0, 81, 26
2, 21204, Note_on_c, 0, 76, 33
2, 21206, Note_on_c, 0, 69, 0
2, 21214, Note_on_c, 0, 76, 0
2, 21216, Note_on_c, 0, 81, 0
2, 21232, Note_on_c, 0, 64, 47
2, 21233, Note_on_c, 0, 60, 25
2, 21238, Note_on_c, 0, 84, 66
2, 21241, Note_on_c, 0, 72, 38
2, 21268, Note_on_c, 0, 72, 0
2, 21281, Note_on_c, 0, 84, 0
2, 21286, Note_on_c, 0, 54, 0
2, 21300, Note_on_c, 0, 60, 0
2, 21301, Note_on_c, 0, 64, 0
2, 21349, Note_on_c, 0, 64, 43
2, 21350, Note_on_c, 0, 60, 37
2, 21350, Note_on_c, 0, 91, 52
2, 21352, Note_on_c, 0, 53, 34
2, 21352, Note_on_c, 0, 85, 64
2, 21354, Note_on_c, 0, 79, 33
2, 21354, Note_on_c, 0, 57, 45
2, 21374, Note_on_c, 0, 85, 0
2, 21383, Note_on_c, 0, 86, 31
2, 21408, Note_on_c, 0, 53, 0
2, 21409, Note_on_c, 0, 79, 0
2, 21412, Note_on_c, 0, 57, 0
2, 21415, Note_on_c, 0, 91, 0
2, 21415, Note_on_c, 0, 60, 0
2, 21417, Note_on_c, 0, 64, 0
2, 21418, Note_on_c, 0, 86, 0
2, 21474, Note_on_c, 0, 91, 64
2, 21475, Note_on_c, 0, 79, 51
2, 21475, Note_on_c, 0, 85, 58
2, 21476, Note_on_c, 0, 64, 43
2, 21476, Note_on_c, 0, 57, 44
2, 21478, Note_on_c, 0, 60, 44
2, 21479, Note_on_c, 0, 53, 26
2, 21518, Note_on_c, 0, 60, 0
2, 21524, Note_on_c, 0, 85, 0
2, 21531, Note_on_c, 0, 64, 0
2, 21531, Note_on_c, 0, 86, 24
2, 21532, Note_on_c, 0, 53, 0
2, 21537, Note_on_c, 0, 57, 0
2, 21540, Note_on_c, 0, 79, 0
2, 21542, Note_on_c, 0, 86, 0
2, 21544, Note_on_c, 0, 91, 0
2, 21589, Note_on_c, 0, 62, 36
2, 21589, Note_on_c, 0, 79, 51
2, 21590, Note_on_c, 0, 53, 32
2, 21592, Note_on_c, 0, 91, 47
2, 21592, Note_on_c, 0, 85, 46
2, 21593, Note_on_c, 0, 59, 37
2, 21594, Note_on_c, 0, 57, 35
2, 21631, Note_on_c, 0, 85, 0
2, 21642, Note_on_c, 0, 91, 0
2, 21644, Note_on_c, 0, 79, 0
2, 21652, Note_on_c, 0, 53, 0
2, 21655, Note_on_c, 0, 62, 0
2, 21655, Note_on_c, 0, 57, 0
2, 21656, Note_on_c, 0, 59, 0
2, 21710, Note_on_c, 0, 62, 35
2, 21712, Note_on_c, 0, 53, 29
2, 21713, Note_on_c, 0, 59, 41
2, 21716, Note_on_c, 0, 57, 42
2, 21770, Note_on_c, 0, 57, 0
2, 21777, Note_on_c, 0, 59, 0
2, 21780, Note_on_c, 0, 62, 0
2, 21781, Note_on_c, 0, 53, 0
2, 21829, Note_on_c, 0, 93, 80
2, 21831, Note_on_c, 0, 62, 32
2, 21832, Note_on_c, 0, 59, 44
2, 21833, Note_on_c, 0, 53, 32
2, 21834, Note_on_c, 0, 57, 39
2, 21837, Note_on_c, 0, 94, 48
2, 21850, Note_on_c, 0, 93, 0
2, 21850, Note_on_c, 0, 95, 70
2, 21851, Note_on_c, 0, 94, 0
2, 21865, Note_on_c, 0, 95, 0
2, 21872, Note_on_c, 0, 86, 64
2, 21874, Note_on_c, 0, 98, 71
2, 21898, Note_on_c, 0, 62, 0
2, 21907, Note_on_c, 0, 57, 0
2, 21910, Note_on_c, 0, 59, 0
2, 21911, Note_on_c, 0, 53, 0
2, 21927, Note_on_c, 0, 98, 0
2, 21930, Note_on_c, 0, 86, 0
2, 21948, Note_on_c, 0, 62, 48
2, 21950, Note_on_c, 0, 98, 83
2, 21950, Note_on_c, 0, 86, 74
2, 21950, Note_on_c, 0, 53, 36
2, 21951, Note_on_c, 0, 59, 44
2, 21952, Note_on_c, 0, 57, 48
2, 21987, Note_on_c, 0, 57, 0
2, 21999, Note_on_c, 0, 53, 0
2, 22002, Note_on_c, 0, 62, 0
2, 22016, Note_on_c, 0, 59, 0
2, 22019, Note_on_c, 0, 98, 0
2, 22025, Note_on_c, 0, 86, 0
2, 22036, Note_on_c, 0, 95, 83
2, 22058, Note_on_c, 0, 62, 35
2, 22058, Note_on_c, 0, 59, 29
2, 22058, Note_on_c, 0, 55, 42
2, 22060, Note_on_c, 0, 52, 44
2, 22099, Note_on_c, 0, 95, 0
2, 22111, Note_on_c, 0, 98, 62
2, 22118, Note_on_c, 0, 62, 0
2, 22118, Note_on_c, 0, 52, 0
2, 22119, Note_on_c, 0, 55, 0
2, 22129, Note_on_c, 0, 59, 0
2, 22138, Note_on_c, 0, 95, 75
2, 22142, Note_on_c, 0, 98, 0
2, 22170, Note_on_c, 0, 91, 71
2, 22172, Note_on_c, 0, 95, 0
2, 22192, Note_on_c, 0, 62, 22
2, 22193, Note_on_c, 0, 91, 0
2, 22194, Note_on_c, 0, 59, 29
2, 22194, Note_on_c, 0, 55, 38
2, 22200, Note_on_c, 0, 52, 17
2, 22204, Note_on_c, 0, 86, 52
2, 22221, Note_on_c, 0, 86, 0
2, 22239, Note_on_c, 0, 83, 43
2, 22264, Note_on_c, 0, 55, 0
2, 22264, Note_on_c, 0, 62, 0
2, 22265, Note_on_c, 0, 83, 0
2, 22267, Note_on_c, 0, 52, 0
2, 22272, Note_on_c, 0, 59, 0
2, 22275, Note_on_c, 0, 79, 52
2, 22302, Note_on_c, 0, 79, 0
2, 22311, Note_on_c, 0, 76, 46
2, 22330, Note_on_c, 0, 59, 26
2, 22331, Note_on_c, 0, 62, 19
2, 22331, Note_on_c, 0, 55, 34
2, 22332, Note_on_c, 0, 52, 29
2, 22342, Note_on_c, 0, 76, 0
2, 22351, Note_on_c, 0, 74, 31
2, 22372, Note_on_c, 0, 55, 0
2, 22380, Note_on_c, 0, 62, 0
2, 22382, Note_on_c, 0, 74, 0
2, 22389, Note_on_c, 0, 59, 0
2, 22391, Note_on_c, 0, 52, 0
2, 22442, Note_on_c, 0, 59, 43
2, 22443, Note_on_c, 0, 55, 48
2, 22444, Note_on_c, 0, 62, 30
2, 22447, Note_on_c, 0, 52, 28
2, 22468, Note_on_c, 0, 52, 0
2, 22474, Note_on_c, 0, 55, 0
2, 22479, Note_on_c, 0, 59, 0
2, 22502, Note_on_c, 0, 62, 0
2, 22520, Note_on_c, 0, 55, 73
2, 22565, Note_on_c, 0, 64, 32
2, 22567, Note_on_c, 0, 61, 33
2, 22617, Note_on_c, 0, 61, 0
2, 22623, Note_on_c, 0, 64, 0
2, 22685, Note_on_c, 0, 61, 39
2, 22686, Note_on_c, 0, 64, 36
2, 22739, Note_on_c, 0, 64, 0
2, 22754, Note_on_c, 0, 61, 0
2, 22765, Note_on_c, 0, 55, 0
2, 22767, Note_on_c, 0, 85, 78
2, 22768, Note_on_c, 0, 73, 81
2, 22768, Note_on_c, 0, 80, 71
2, 22800, Note_on_c, 0, 61, 32
2, 22803, Note_on_c, 0, 64, 40
2, 22804, Note_on_c, 0, 55, 37
2, 22808, Note_on_c, 0, 85, 0
2, 22811, Note_on_c, 0, 73, 0
2, 22827, Note_on_c, 0, 80, 0
2, 22829, Note_on_c, 0, 84, 55
2, 22832, Note_on_c, 0, 72, 43
2, 22835, Note_on_c, 0, 79, 48
2, 22852, Note_on_c, 0, 64, 0
2, 22862, Note_on_c, 0, 55, 0
2, 22864, Note_on_c, 0, 79, 0
2, 22866, Note_on_c, 0, 84, 0
2, 22871, Note_on_c, 0, 72, 0
2, 22882, Note_on_c, 0, 61, 0
2, 22890, Note_on_c, 0, 84, 47
2, 22891, Note_on_c, 0, 72, 57
2, 22894, Note_on_c, 0, 79, 40
2, 22911, Note_on_c, 0, 84, 0
2, 22916, Note_on_c, 0, 72, 0
2, 22918, Note_on_c, 0, 79, 0
2, 22918, Note_on_c, 0, 61, 32
2, 22920, Note_on_c, 0, 55, 35
2, 22927, Note_on_c, 0, 64, 20
2, 22934, Note_on_c, 0, 83, 49
2, 22938, Note_on_c, 0, 71, 42
2, 22947, Note_on_c, 0, 55, 0
2, 22970, Note_on_c, 0, 64, 0
2, 22978, Note_on_c, 0, 83, 0
2, 22982, Note_on_c, 0, 71, 0
2, 22991, Note_on_c, 0, 61, 0
2, 23004, Note_on_c, 0, 83, 74
2, 23007, Note_on_c, 0, 71, 45
2, 23013, Note_on_c, 0, 78, 20
2, 23020, Note_on_c, 0, 82, 21
2, 23024, Note_on_c, 0, 83, 0
2, 23027, Note_on_c, 0, 71, 0
2, 23027, Note_on_c, 0, 82, 0
2, 23038, Note_on_c, 0, 78, 0
2, 23041, Note_on_c, 0, 65, 47
2, 23042, Note_on_c, 0, 61, 42
2, 23045, Note_on_c, 0, 54, 33
2, 23049, Note_on_c, 0, 58, 37
2, 23053, Note_on_c, 0, 82, 55
2, 23054, Note_on_c, 0, 70, 43
2, 23078, Note_on_c, 0, 80, 15
2, 23097, Note_on_c, 0, 70, 0
2, 23100, Note_on_c, 0, 80, 0
2, 23104, Note_on_c, 0, 82, 0
2, 23105, Note_on_c, 0, 65, 0
2, 23108, Note_on_c, 0, 58, 0
2, 23110, Note_on_c, 0, 54, 0
2, 23124, Note_on_c, 0, 61, 0
2, 23127, Note_on_c, 0, 84, 75
2, 23130, Note_on_c, 0, 72, 61
2, 23141, Note_on_c, 0, 72, 0
2, 23143, Note_on_c, 0, 84, 0
2, 23164, Note_on_c, 0, 61, 40
2, 23166, Note_on_c, 0, 65, 36
2, 23166, Note_on_c, 0, 54, 37
2, 23166, Note_on_c, 0, 58, 44
2, 23171, Note_on_c, 0, 82, 34
2, 23171, Note_on_c, 0, 70, 36
2, 23217, Note_on_c, 0, 65, 0
2, 23219, Note_on_c, 0, 82, 0
2, 23226, Note_on_c, 0, 54, 0
2, 23226, Note_on_c, 0, 70, 0
2, 23246, Note_on_c, 0, 61, 0
2, 23247, Note_on_c, 0, 80, 45
2, 23249, Note_on_c, 0, 58, 0
2, 23251, Note_on_c, 0, 68, 49
2, 23252, Note_on_c, 0, 75, 55
2, 23269, Note_on_c, 0, 58, 14
2, 23275, Note_on_c, 0, 64, 35
2, 23279, Note_on_c, 0, 60, 31
2, 23322, Note_on_c, 0, 60, 0
2, 23336, Note_on_c, 0, 64, 0
2, 23338, Note_on_c, 0, 58, 0
2, 23357, Note_on_c, 0, 54, 85
2, 23363, Note_on_c, 0, 68, 0
2, 23373, Note_on_c, 0, 75, 0
2, 23392, Note_on_c, 0, 80, 0
2, 23471, Note_on_c, 0, 53, 83
2, 23473, Note_on_c, 0, 54, 0
2, 23514, Note_on_c, 0, 64, 45
2, 23516, Note_on_c, 0, 56, 25
2, 23519, Note_on_c, 0, 87, 37
2, 23520, Note_on_c, 0, 60, 36
2, 23521, Note_on_c, 0, 91, 50
2, 23522, Note_on_c, 0, 79, 45
2, 23524, Note_on_c, 0, 84, 45
2, 23559, Note_on_c, 0, 79, 0
2, 23562, Note_on_c, 0, 91, 0
2, 23566, Note_on_c, 0, 64, 0
2, 23572, Note_on_c, 0, 84, 0
2, 23572, Note_on_c, 0, 60, 0
2, 23578, Note_on_c, 0, 87, 0
2, 23590, Note_on_c, 0, 56, 0
2, 23602, Note_on_c, 0, 92, 53
2, 23603, Note_on_c, 0, 87, 36
2, 23604, Note_on_c, 0, 80, 44
2, 23605, Note_on_c, 0, 84, 40
2, 23612, Note_on_c, 0, 84, 0
2, 23616, Note_on_c, 0, 80, 0
2, 23620, Note_on_c, 0, 92, 0
2, 23623, Note_on_c, 0, 87, 0
2, 23634, Note_on_c, 0, 56, 28
2, 23636, Note_on_c, 0, 60, 50
2, 23640, Note_on_c, 0, 64, 45
2, 23642, Note_on_c, 0, 94, 71
2, 23644, Note_on_c, 0, 82, 60
2, 23660, Note_on_c, 0, 53, 0
2, 23664, Note_on_c, 0, 82, 0
2, 23668, Note_on_c, 0, 94, 0
2, 23674, Note_on_c, 0, 64, 0
2, 23674, Note_on_c, 0, 60, 0
2, 23698, Note_on_c, 0, 56, 0
2, 23721, Note_on_c, 0, 92, 63
2, 23723, Note_on_c, 0, 80, 60
2, 23735, Note_on_c, 0, 53, 36
2, 23736, Note_on_c, 0, 59, 31
2, 23738, Note_on_c, 0, 62, 31
2, 23740, Note_on_c, 0, 92, 0
2, 23741, Note_on_c, 0, 80, 0
2, 23765, Note_on_c, 0, 90, 35
2, 23765, Note_on_c, 0, 78, 34
2, 23784, Note_on_c, 0, 91, 17
2, 23792, Note_on_c, 0, 78, 0
2, 23794, Note_on_c, 0, 90, 0
2, 23807, Note_on_c, 0, 79, 24
2, 23814, Note_on_c, 0, 59, 0
2, 23829, Note_on_c, 0, 79, 0
2, 23830, Note_on_c, 0, 91, 0
2, 23839, Note_on_c, 0, 62, 0
2, 23846, Note_on_c, 0, 53, 0
2, 23879, Note_on_c, 0, 90, 67
2, 23880, Note_on_c, 0, 62, 49
2, 23881, Note_on_c, 0, 78, 62
2, 23883, Note_on_c, 0, 85, 60
2, 23883, Note_on_c, 0, 59, 40
2, 23885, Note_on_c, 0, 53, 20
2, 23894, Note_on_c, 0, 53, 0
2, 23896, Note_on_c, 0, 59, 0
2, 23913, Note_on_c, 0, 62, 0
2, 23917, Note_on_c, 0, 85, 0
2, 23928, Note_on_c, 0, 78, 0
2, 23934, Note_on_c, 0, 90, 0
2, 23995, Note_on_c, 0, 65, 42
2, 23995, Note_on_c, 0, 60, 50
2, 23997, Note_on_c, 0, 91, 61
2, 23998, Note_on_c, 0, 55, 32
2, 23998, Note_on_c, 0, 57, 40
2, 24000, Note_on_c, 0, 87, 39
2, 24000, Note_on_c, 0, 79, 48
2, 24001, Note_on_c, 0, 84, 47
2, 24029, Note_on_c, 0, 91, 0
2, 24031, Note_on_c, 0, 84, 0
2, 24036, Note_on_c, 0, 79, 0
2, 24039, Note_on_c, 0, 87, 0
2, 24041, Note_on_c, 0, 60, 0
2, 24044, Note_on_c, 0, 55, 0
2, 24048, Note_on_c, 0, 65, 0
2, 24050, Note_on_c, 0, 57, 0
2, 24116, Note_on_c, 0, 80, 55
2, 24118, Note_on_c, 0, 86, 57
2, 24118, Note_on_c, 0, 55, 36
2, 24118, Note_on_c, 0, 65, 40
2, 24118, Note_on_c, 0, 74, 58
2, 24121, Note_on_c, 0, 60, 50
2, 24122, Note_on_c, 0, 57, 37
2, 24155, Note_on_c, 0, 80, 0
2, 24160, Note_on_c, 0, 81, 43
2, 24168, Note_on_c, 0, 74, 0
2, 24169, Note_on_c, 0, 81, 0
2, 24173, Note_on_c, 0, 60, 0
2, 24178, Note_on_c, 0, 65, 0
2, 24178, Note_on_c, 0, 57, 0
2, 24178, Note_on_c, 0, 55, 0
2, 24180, Note_on_c, 0, 86, 0
2, 24241, Note_on_c, 0, 55, 46
2, 24242, Note_on_c, 0, 65, 47
2, 24242, Note_on_c, 0, 91, 68
2, 24242, Note_on_c, 0, 85, 59
2, 24243, Note_on_c, 0, 90, 49
2, 24244, Note_on_c, 0, 79, 42
2, 24244, Note_on_c, 0, 57, 41
2, 24244, Note_on_c, 0, 60, 51
2, 24249, Note_on_c, 0, 81, 33
2, 24256, Note_on_c, 0, 81, 0
2, 24259, Note_on_c, 0, 90, 0
2, 24282, Note_on_c, 0, 86, 22
2, 24283, Note_on_c, 0, 85, 0
2, 24296, Note_on_c, 0, 60, 0
2, 24298, Note_on_c, 0, 91, 0
2, 24302, Note_on_c, 0, 79, 0
2, 24303, Note_on_c, 0, 55, 0
2, 24304, Note_on_c, 0, 65, 0
2, 24304, Note_on_c, 0, 57, 0
2, 24305, Note_on_c, 0, 86, 0
2, 24362, Note_on_c, 0, 80, 64
2, 24362, Note_on_c, 0, 55, 44
2, 24363, Note_on_c, 0, 65, 46
2, 24363, Note_on_c, 0, 86, 68
2, 24363, Note_on_c, 0, 74, 63
2, 24364, Note_on_c, 0, 60, 52
2, 24370, Note_on_c, 0, 57, 32
2, 24395, Note_on_c, 0, 80, 0
2, 24399, Note_on_c, 0, 81, 45
2, 24408, Note_on_c, 0, 74, 0
2, 24414, Note_on_c, 0, 60, 0
2, 24415, Note_on_c, 0, 65, 0
2, 24420, Note_on_c, 0, 81, 0
2, 24423, Note_on_c, 0, 86, 0
2, 24430, Note_on_c, 0, 55, 0
2, 24431, Note_on_c, 0, 57, 0
2, 24481, Note_on_c, 0, 59, 44
2, 24482, Note_on_c, 0, 64, 47
2, 24483, Note_on_c, 0, 53, 47
2, 24484, Note_on_c, 0, 79, 47
2, 24485, Note_on_c, 0, 91, 50
2, 24485, Note_on_c, 0, 93, 64
2, 24486, Note_on_c, 0, 81, 54
2, 24492, Note_on_c, 0, 86, 38
2, 24520, Note_on_c, 0, 93, 0
2, 24522, Note_on_c, 0, 81, 0
2, 24524, Note_on_c, 0, 79, 0
2, 24526, Note_on_c, 0, 91, 0
2, 24528, Note_on_c, 0, 86, 0
2, 24535, Note_on_c, 0, 53, 0
2, 24540, Note_on_c, 0, 64, 0
2, 24544, Note_on_c, 0, 59, 0
2, 24572, Note_on_c, 0, 86, 49
2, 24573, Note_on_c, 0, 74, 38
2, 24580, Note_on_c, 0, 86, 0
2, 24581, Note_on_c, 0, 74, 0
2, 24602, Note_on_c, 0, 53, 64
2, 24602, Note_on_c, 0, 59, 53
2, 24603, Note_on_c, 0, 64, 57
2, 24606, Note_on_c, 0, 91, 63
2, 24607, Note_on_c, 0, 89, 70
2, 24608, Control_c, 0, 64, 127
2, 24608, Note_on_c, 0, 79, 54
2, 24609, Note_on_c, 0, 77, 44
2, 24616, Note_on_c, 0, 77, 0
2, 24628, Note_on_c, 0, 89, 0
2, 24647, Note_on_c, 0, 53, 0
2, 24648, Note_on_c, 0, 79, 0
2, 24653, Note_on_c, 0, 91, 0
2, 24659, Note_on_c, 0, 59, 0
2, 24660, Note_on_c, 0, 64, 0
2, 24685, Note_on_c, 0, 54, 83
2, 24685, Note_on_c, 0, 65, 74
2, 24686, Note_on_c, 0, 60, 74
2, 24688, Note_on_c, 0, 93, 88
2, 24688, Note_on_c, 0, 87, 77
2, 24690, Note_on_c, 0, 81, 73
2, 24700, Control_c, 0, 64, 0
2, 24703, Note_on_c, 0, 65, 0
2, 24706, Note_on_c, 0, 81, 0
2, 24713, Note_on_c, 0, 60, 0
2, 24714, Note_on_c, 0, 93, 0
2, 24717, Note_on_c, 0, 87, 0
2, 24717, Note_on_c, 0, 54, 0
2, 24730, Note_on_c, 0, 64, 58
2, 24732, Note_on_c, 0, 59, 46
2, 24733, Note_on_c, 0, 91, 66
2, 24735, Note_on_c, 0, 53, 48
2, 24738, Note_on_c, 0, 79, 50
2, 24740, Control_c, 0, 64, 127
2, 24747, Note_on_c, 0, 86, 28
2, 24770, Note_on_c, 0, 86, 0
2, 24770, Note_on_c, 0, 64, 0
2, 24770, Note_on_c, 0, 91, 0
2, 24771, Note_on_c, 0, 59, 0
2, 24774, Note_on_c, 0, 53, 0
2, 24776, Note_on_c, 0, 79, 0
2, 24809, Note_on_c, 0, 51, 76
2, 24810, Note_on_c, 0, 61, 85
2, 24810, Note_on_c, 0, 86, 58
2, 24810, Note_on_c, 0, 74, 68
2, 24812, Note_on_c, 0, 58, 63
2, 24814, Note_on_c, 0, 81, 48
2, 24815, Control_c, 0, 64, 0
2, 24849, Control_c, 0, 64, 127
2, 24896, Note_on_c, 0, 74, 0
2, 24900, Note_on_c, 0, 81, 0
2, 24908, Note_on_c, 0, 86, 0
2, 24917, Note_on_c, 0, 58, 0
2, 24930, Note_on_c, 0, 61, 0
2, 24943, Note_on_c, 0, 51, 0
2, 24954, Control_c, 0, 64, 0
2, 24960, Note_on_c, 0, 60, 50
2, 24964, Note_on_c, 0, 91, 55
2, 24967, Note_on_c, 0, 57, 35
2, 24968, Note_on_c, 0, 53, 19
2, 24970, Note_on_c, 0, 79, 25
2, 24971, Note_on_c, 0, 85, 35
2, 24983, Note_on_c, 0, 57, 0
2, 24985, Note_on_c, 0, 53, 0
2, 24993, Note_on_c, 0, 79, 0
2, 24996, Note_on_c, 0, 85, 0
2, 25000, Note_on_c, 0, 86, 46
2, 25002, Note_on_c, 0, 60, 0
2, 25013, Note_on_c, 0, 91, 0
2, 25020, Note_on_c, 0, 86, 0
2, 25073, Note_on_c, 0, 64, 49
2, 25076, Note_on_c, 0, 60, 50
2, 25076, Note_on_c, 0, 57, 48
2, 25077, Note_on_c, 0, 53, 39
2, 25138, Note_on_c, 0, 60, 0
2, 25139, Note_on_c, 0, 53, 0
2, 25140, Note_on_c, 0, 57, 0
2, 25144, Note_on_c, 0, 64, 0
2, 25196, Note_on_c, 0, 64, 54
2, 25198, Note_on_c, 0, 53, 39
2, 25198, Note_on_c, 0, 60, 50
2, 25199, Note_on_c, 0, 57, 44
2, 25200, Note_on_c, 0, 74, 68
2, 25201, Note_on_c, 0, 86, 65
2, 25202, Note_on_c, 0, 81, 65
2, 25217, Note_on_c, 0, 74, 0
2, 25220, Control_c, 0, 64, 127
2, 25222, Note_on_c, 0, 81, 0
2, 25228, Note_on_c, 0, 86, 0
2, 25238, Note_on_c, 0, 53, 0
2, 25243, Note_on_c, 0, 64, 0
2, 25243, Note_on_c, 0, 57, 0
2, 25247, Note_on_c, 0, 60, 0
2, 25283, Note_on_c, 0, 91, 80
2, 25285, Note_on_c, 0, 86, 70
2, 25287, Note_on_c, 0, 79, 48
2, 25288, Note_on_c, 0, 81, 53
2, 25295, Note_on_c, 0, 79, 0
2, 25296, Note_on_c, 0, 81, 0
2, 25302, Note_on_c, 0, 86, 0
2, 25304, Note_on_c, 0, 91, 0
2, 25308, Control_c, 0, 64, 0
2, 25322, Note_on_c, 0, 60, 57
2, 25323, Note_on_c, 0, 64, 58
2, 25324, Note_on_c, 0, 53, 49
2, 25326, Note_on_c, 0, 57, 53
2, 25328, Note_on_c, 0, 90, 71
2, 25328, Note_on_c, 0, 78, 63
2, 25329, Note_on_c, 0, 85, 70
2, 25332, Control_c, 0, 64, 127
2, 25342, Note_on_c, 0, 64, 0
2, 25343, Note_on_c, 0, 60, 0
2, 25354, Note_on_c, 0, 57, 0
2, 25359, Note_on_c, 0, 53, 0
2, 25366, Note_on_c, 0, 85, 0
2, 25366, Note_on_c, 0, 78, 0
2, 25368, Note_on_c, 0, 90, 0
2, 25397, Note_on_c, 0, 51, 80
2, 25397, Note_on_c, 0, 62, 87
2, 25399, Note_on_c, 0, 57, 77
2, 25402, Note_on_c, 0, 89, 88
2, 25402, Control_c, 0, 64, 0
2, 25402, Note_on_c, 0, 84, 88
2, 25403, Note_on_c, 0, 77, 83
2, 25446, Control_c, 0, 64, 127
2, 25533, Note_on_c, 0, 57, 0
2, 25534, Note_on_c, 0, 51, 0
2, 25536, Note_on_c, 0, 62, 0
2, 25540, Note_on_c, 0, 89, 0
2, 25544, Note_on_c, 0, 84, 0
2, 25557, Note_on_c, 0, 62, 64
2, 25558, Control_c, 0, 64, 0
2, 25559, Note_on_c, 0, 51, 43
2, 25561, Note_on_c, 0, 57, 61
2, 25564, Note_on_c, 0, 77, 0
2, 25580, Control_c, 0, 64, 127
2, 25637, Note_on_c, 0, 51, 0
2, 25638, Note_on_c, 0, 62, 0
2, 25642, Note_on_c, 0, 57, 0
2, 25669, Control_c, 0, 64, 0
2, 25675, Note_on_c, 0, 51, 56
2, 25678, Note_on_c, 0, 62, 55
2, 25678, Note_on_c, 0, 72, 51
2, 25679, Note_on_c, 0, 69, 64
2, 25679, Note_on_c, 0, 57, 57
2, 25707, Control_c, 0, 64, 127
2, 25730, Note_on_c, 0, 57, 0
2, 25736, Note_on_c, 0, 51, 0
2, 25745, Note_on_c, 0, 62, 0
2, 25745, Note_on_c, 0, 69, 0
2, 25748, Note_on_c, 0, 72, 0
2, 25787, Control_c, 0, 64, 0
2, 25798, Note_on_c, 0, 70, 77
2, 25798, Note_on_c, 0, 58, 64
2, 25798, Note_on_c, 0, 52, 67
2, 25799, Note_on_c, 0, 63, 60
2, 25800, Note_on_c, 0, 73, 64
2, 25827, Control_c, 0, 64, 127
2, 25843, Note_on_c, 0, 52, 0
2, 25864, Note_on_c, 0, 63, 0
2, 25868, Note_on_c, 0, 73, 0
2, 25868, Note_on_c, 0, 70, 0
2, 25872, Note_on_c, 0, 58, 0
2, 25879, Control_c, 0, 64, 0
2, 25882, Note_on_c, 0, 64, 62
2, 25883, Note_on_c, 0, 74, 62
2, 25883, Note_on_c, 0, 65, 50
2, 25884, Note_on_c, 0, 59, 58
2, 25884, Note_on_c, 0, 53, 57
2, 25885, Note_on_c, 0, 71, 61
2, 25900, Note_on_c, 0, 65, 0
2, 25912, Note_on_c, 0, 71, 0
2, 25920, Note_on_c, 0, 74, 0
2, 25922, Note_on_c, 0, 59, 0
2, 25924, Note_on_c, 0, 64, 0
2, 25929, Note_on_c, 0, 53, 0
2, 26005, Note_on_c, 0, 79, 69
2, 26006, Note_on_c, 0, 73, 72
2, 26008, Note_on_c, 0, 67, 57
2, 26010, Note_on_c, 0, 53, 64
2, 26011, Note_on_c, 0, 64, 65
2, 26011, Note_on_c, 0, 59, 62
2, 26038, Note_on_c, 0, 67, 0
2, 26044, Note_on_c, 0, 64, 0
2, 26046, Note_on_c, 0, 53, 0
2, 26046, Note_on_c, 0, 79, 0
2, 26049, Note_on_c, 0, 73, 0
2, 26049, Note_on_c, 0, 59, 0
2, 26170, Note_on_c, 0, 64, 62
2, 26170, Note_on_c, 0, 59, 53
2, 26172, Note_on_c, 0, 73, 70
2, 26173, Note_on_c, 0, 79, 71
2, 26174, Note_on_c, 0, 53, 38
2, 26174, Note_on_c, 0, 67, 55
2, 26184, Note_on_c, 0, 64, 0
2, 26186, Control_c, 0, 64, 127
2, 26191, Note_on_c, 0, 59, 0
2, 26194, Note_on_c, 0, 53, 0
2, 26198, Note_on_c, 0, 73, 0
2, 26202, Note_on_c, 0, 74, 41
2, 26211, Note_on_c, 0, 67, 0
2, 26217, Note_on_c, 0, 79, 0
2, 26220, Note_on_c, 0, 74, 0
2, 26278, Control_c, 0, 64, 0
2, 26294, Control_c, 0, 64, 127
2, 26364, Note_on_c, 0, 38, 76
2, 26372, Control_c, 0, 64, 0
2, 26382, Note_on_c, 0, 38, 0
2, 26393, Control_c, 0, 64, 127
2, 26482, Note_on_c, 0, 60, 78
2, 26482, Note_on_c, 0, 64, 88
2, 26482, Note_on_c, 0, 86, 89
2, 26483, Note_on_c, 0, 53, 74
2, 26484, Note_on_c, 0, 57, 74
2, 26484, Note_on_c, 0, 81, 92
2, 26484, Note_on_c, 0, 74, 90
2, 26489, Control_c, 0, 64, 0
2, 26520, Control_c, 0, 64, 127
2, 26583, Note_on_c, 0, 74, 0
2, 26587, Note_on_c, 0, 53, 0
2, 26593, Note_on_c, 0, 64, 0
2, 26593, Note_on_c, 0, 81, 0
2, 26595, Note_on_c, 0, 60, 0
2, 26596, Note_on_c, 0, 57, 0
2, 26598, Note_on_c, 0, 86, 0
2, 26640, Control_c, 0, 64, 0
2, 26641, Note_on_c, 0, 88, 58
2, 26642, Note_on_c, 0, 64, 62
2, 26642, Note_on_c, 0, 76, 57
2, 26643, Note_on_c, 0, 57, 60
2, 26644, Note_on_c, 0, 83, 58
2, 26644, Note_on_c, 0, 60, 54
2, 26652, Note_on_c, 0, 60, 0
2, 26659, Note_on_c, 0, 76, 0
2, 26660, Note_on_c, 0, 64, 0
2, 26666, Note_on_c, 0, 83, 0
2, 26668, Note_on_c, 0, 57, 0
2, 26668, Note_on_c, 0, 88, 0
2, 26818, Control_c, 0, 64, 127
2, 26838, Note_on_c, 0, 89, 71
2, 26838, Note_on_c, 0, 77, 58
2, 26839, Note_on_c, 0, 84, 66
2, 26840, Note_on_c, 0, 57, 36
2, 26840, Note_on_c, 0, 53, 38
2, 26841, Note_on_c, 0, 64, 33
2, 26841, Note_on_c, 0, 60, 38
2, 26848, Note_on_c, 0, 60, 0
2, 26849, Note_on_c, 0, 64, 0
2, 26850, Note_on_c, 0, 53, 0
2, 26851, Note_on_c, 0, 57, 0
2, 26852, Note_on_c, 0, 77, 0
2, 26855, Note_on_c, 0, 84, 0
2, 26858, Control_c, 0, 64, 0
2, 26860, Note_on_c, 0, 89, 0
2, 26924, Note_on_c, 0, 95, 84
2, 26925, Note_on_c, 0, 83, 79
2, 26925, Note_on_c, 0, 64, 78
2, 26927, Note_on_c, 0, 53, 60
2, 26927, Note_on_c, 0, 60, 65
2, 26927, Note_on_c, 0, 57, 56
2, 26928, Note_on_c, 0, 90, 46
2, 26931, Note_on_c, 0, 88, 64
2, 26935, Note_on_c, 0, 90, 0
2, 26948, Control_c, 0, 64, 127
2, 26961, Note_on_c, 0, 64, 0
2, 26961, Note_on_c, 0, 83, 0
2, 26961, Note_on_c, 0, 60, 0
2, 26962, Note_on_c, 0, 53, 0
2, 26965, Note_on_c, 0, 88, 0
2, 26966, Note_on_c, 0, 57, 0
2, 26966, Note_on_c, 0, 95, 0
2, 26969, Control_c, 0, 64, 0
2, 26997, Note_on_c, 0, 64, 72
2, 26998, Note_on_c, 0, 91, 56
2, 26998, Note_on_c, 0, 57, 54
2, 26998, Note_on_c, 0, 79, 68
2, 26999, Note_on_c, 0, 60, 62
2, 27000, Note_on_c, 0, 53, 49
2, 27007, Note_on_c, 0, 60, 0
2, 27018, Note_on_c, 0, 64, 0
2, 27019, Note_on_c, 0, 53, 0
2, 27020, Note_on_c, 0, 91, 0
2, 27020, Note_on_c, 0, 79, 0
2, 27026, Note_on_c, 0, 57, 0
2, 27078, Note_on_c, 0, 79, 74
2, 27078, Note_on_c, 0, 64, 77
2, 27078, Note_on_c, 0, 91, 69
2, 27079, Note_on_c, 0, 86, 68
2, 27079, Note_on_c, 0, 60, 69
2, 27080, Note_on_c, 0, 57, 59
2, 27081, Note_on_c, 0, 53, 54
2, 27089, Note_on_c, 0, 53, 0
2, 27095, Note_on_c, 0, 64, 0
2, 27096, Note_on_c, 0, 79, 0
2, 27099, Note_on_c, 0, 60, 0
2, 27102, Note_on_c, 0, 86, 0
2, 27105, Note_on_c, 0, 91, 0
2, 27108, Note_on_c, 0, 57, 0
2, 27193, Note_on_c, 0, 90, 78
2, 27193, Note_on_c, 0, 57, 65
2, 27194, Note_on_c, 0, 60, 76
2, 27194, Note_on_c, 0, 64, 80
2, 27194, Note_on_c, 0, 83, 83
2, 27194, Note_on_c, 0, 53, 68
2, 27196, Note_on_c, 0, 95, 76
2, 27212, Note_on_c, 0, 64, 0
2, 27212, Note_on_c, 0, 60, 0
2, 27221, Note_on_c, 0, 90, 0
2, 27222, Note_on_c, 0, 83, 0
2, 27222, Note_on_c, 0, 53, 0
2, 27224, Note_on_c, 0, 91, 34
2, 27225, Note_on_c, 0, 95, 0
2, 27228, Note_on_c, 0, 57, 0
2, 27231, Note_on_c, 0, 91, 0
2, 27257, Control_c, 0, 64, 127
2, 27309, Note_on_c, 0, 93, 80
2, 27309, Note_on_c, 0, 85, 77
2, 27310, Note_on_c, 0, 81, 75
2, 27311, Note_on_c, 0, 88, 57
2, 27312, Control_c, 0, 64, 0
2, 27312, Note_on_c, 0, 59, 79
2, 27312, Note_on_c, 0, 53, 85
2, 27313, Note_on_c, 0, 64, 91
2, 27314, Note_on_c, 0, 91, 46
2, 27344, Control_c, 0, 64, 127
2, 27348, Note_on_c, 0, 64, 0
2, 27351, Note_on_c, 0, 59, 0
2, 27354, Note_on_c, 0, 53, 0
2, 27368, Note_on_c, 0, 93, 0
2, 27370, Note_on_c, 0, 91, 0
2, 27374, Note_on_c, 0, 88, 0
2, 27378, Note_on_c, 0, 85, 0
2, 27383, Note_on_c, 0, 81, 0
2, 27429, Note_on_c, 0, 43, 78
2, 27466, Control_c, 0, 64, 0
2, 27469, Note_on_c, 0, 53, 84
2, 27506, Control_c, 0, 64, 127
2, 27578, Note_on_c, 0, 53, 0
2, 27578, Note_on_c, 0, 50, 57
2, 27588, Control_c, 0, 64, 0
2, 27592, Note_on_c, 0, 67, 55
2, 27594, Note_on_c, 0, 63, 50
2, 27595, Note_on_c, 0, 59, 55
2, 27595, Note_on_c, 0, 61, 51
2, 27598, Note_on_c, 0, 53, 51
2, 27599, Note_on_c, 0, 50, 0
2, 27615, Control_c, 0, 64, 127
2, 27616, Note_on_c, 0, 43, 0
2, 27644, Note_on_c, 0, 59, 0
2, 27644, Note_on_c, 0, 67, 0
2, 27647, Note_on_c, 0, 61, 0
2, 27648, Note_on_c, 0, 63, 0
2, 27660, Note_on_c, 0, 53, 0
2, 27679, Note_on_c, 0, 56, 44
2, 27696, Note_on_c, 0, 56, 0
2, 27712, Note_on_c, 0, 56, 71
2, 27712, Note_on_c, 0, 70, 83
2, 27713, Note_on_c, 0, 63, 80
2, 27714, Note_on_c, 0, 49, 77
2, 27714, Note_on_c, 0, 62, 81
2, 27715, Control_c, 0, 64, 0
2, 27716, Note_on_c, 0, 66, 65
2, 27723, Note_on_c, 0, 68, 28
2, 27745, Control_c, 0, 64, 127
2, 27756, Note_on_c, 0, 49, 0
2, 27774, Note_on_c, 0, 56, 0
2, 27804, Note_on_c, 0, 62, 0
2, 27816, Note_on_c, 0, 70, 0
2, 27816, Note_on_c, 0, 63, 0
2, 27818, Note_on_c, 0, 66, 0
2, 27822, Note_on_c, 0, 68, 0
2, 27833, Control_c, 0, 64, 0
2, 27840, Note_on_c, 0, 60, 34
2, 27840, Note_on_c, 0, 67, 30
2, 27841, Note_on_c, 0, 52, 32
2, 27843, Note_on_c, 0, 55, 42
2, 27844, Note_on_c, 0, 57, 37
2, 27844, Note_on_c, 0, 64, 32
2, 27845, Note_on_c, 0, 62, 26
2, 27860, Note_on_c, 0, 62, 0
2, 27861, Note_on_c, 0, 64, 0
2, 27864, Note_on_c, 0, 60, 0
2, 27869, Note_on_c, 0, 57, 0
2, 27870, Note_on_c, 0, 55, 0
2, 27871, Note_on_c, 0, 67, 0
2, 27887, Note_on_c, 0, 52, 0
2, 27956, Note_on_c, 0, 60, 33
2, 27958, Note_on_c, 0, 55, 37
2, 27961, Note_on_c, 0, 67, 30
2, 27963, Note_on_c, 0, 79, 32
2, 27963, Note_on_c, 0, 57, 34
2, 27964, Note_on_c, 0, 52, 15
2, 27987, Note_on_c, 0, 67, 0
2, 27989, Note_on_c, 0, 57, 0
2, 27994, Note_on_c, 0, 79, 0
2, 27998, Note_on_c, 0, 60, 0
2, 27999, Note_on_c, 0, 52, 0
2, 28000, Note_on_c, 0, 55, 0
2, 28047, Note_on_c, 0, 69, 55
2, 28052, Note_on_c, 0, 81, 27
2, 28066, Note_on_c, 0, 69, 0
2, 28070, Note_on_c, 0, 81, 0
2, 28072, Note_on_c, 0, 60, 24
2, 28077, Note_on_c, 0, 57, 34
2, 28079, Note_on_c, 0, 55, 36
2, 28079, Note_on_c, 0, 52, 15
2, 28111, Note_on_c, 0, 55, 0
2, 28111, Note_on_c, 0, 84, 55
2, 28113, Note_on_c, 0, 72, 38
2, 28115, Note_on_c, 0, 57, 0
2, 28125, Note_on_c, 0, 60, 0
2, 28126, Note_on_c, 0, 52, 0
2, 28143, Note_on_c, 0, 72, 0
2, 28154, Note_on_c, 0, 84, 0
2, 28196, Note_on_c, 0, 84, 49
2, 28197, Note_on_c, 0, 60, 34
2, 28200, Note_on_c, 0, 72, 36
2, 28203, Note_on_c, 0, 57, 34
2, 28205, Note_on_c, 0, 55, 18
2, 28221, Note_on_c, 0, 55, 0
2, 28228, Note_on_c, 0, 57, 0
2, 28249, Note_on_c, 0, 60, 0
2, 28256, Note_on_c, 0, 84, 0
2, 28257, Note_on_c, 0, 72, 0
2, 28323, Note_on_c, 0, 84, 43
2, 28325, Note_on_c, 0, 72, 36
2, 28325, Note_on_c, 0, 60, 29
2, 28326, Note_on_c, 0, 55, 22
2, 28326, Note_on_c, 0, 59, 24
2, 28330, Note_on_c, 0, 64, 12
2, 28341, Note_on_c, 0, 72, 0
2, 28349, Note_on_c, 0, 84, 0
2, 28359, Note_on_c, 0, 55, 0
2, 28360, Note_on_c, 0, 59, 0
2, 28363, Note_on_c, 0, 60, 0
2, 28371, Note_on_c, 0, 64, 0
2, 28439, Note_on_c, 0, 64, 24
2, 28439, Note_on_c, 0, 60, 35
2, 28440, Note_on_c, 0, 59, 30
2, 28442, Note_on_c, 0, 55, 24
2, 28468, Note_on_c, 0, 55, 0
2, 28482, Note_on_c, 0, 59, 0
2, 28519, Note_on_c, 0, 60, 0
2, 28522, Note_on_c, 0, 64, 0
2, 28524, Note_on_c, 0, 56, 69
2, 28570, Note_on_c, 0, 64, 22
2, 28574, Note_on_c, 0, 60, 19
2, 28640, Note_on_c, 0, 55, 70
2, 28644, Note_on_c, 0, 64, 0
2, 28648, Note_on_c, 0, 56, 0
2, 28648, Note_on_c, 0, 60, 0
2, 28686, Note_on_c, 0, 64, 29
2, 28689, Note_on_c, 0, 60, 25
2, 28742, Note_on_c, 0, 55, 0
2, 28762, Note_on_c, 0, 64, 0
2, 28766, Note_on_c, 0, 54, 70
2, 28776, Note_on_c, 0, 60, 0
2, 28811, Note_on_c, 0, 64, 34
2, 28814, Note_on_c, 0, 60, 24
2, 28840, Note_on_c, 0, 64, 0
2, 28843, Note_on_c, 0, 60, 0
2, 28925, Note_on_c, 0, 60, 35
2, 28926, Note_on_c, 0, 64, 28
2, 28926, Note_on_c, 0, 74, 41
2, 28959, Note_on_c, 0, 60, 0
2, 28962, Note_on_c, 0, 64, 0
2, 28964, Note_on_c, 0, 74, 0
2, 29041, Note_on_c, 0, 74, 41
2, 29042, Note_on_c, 0, 60, 36
2, 29045, Note_on_c, 0, 64, 18
2, 29084, Note_on_c, 0, 74, 0
2, 29090, Note_on_c, 0, 64, 0
2, 29096, Note_on_c, 0, 60, 0
2, 29129, Note_on_c, 0, 83, 68
2, 29132, Note_on_c, 0, 71, 55
2, 29132, Note_on_c, 0, 76, 50
2, 29135, Note_on_c, 0, 80, 35
2, 29156, Note_on_c, 0, 64, 38
2, 29156, Note_on_c, 0, 60, 42
2, 29164, Note_on_c, 0, 76, 0
2, 29168, Note_on_c, 0, 71, 0
2, 29171, Note_on_c, 0, 83, 0
2, 29172, Note_on_c, 0, 80, 0
2, 29193, Note_on_c, 0, 83, 46
2, 29194, Note_on_c, 0, 71, 40
2, 29196, Note_on_c, 0, 80, 23
2, 29198, Note_on_c, 0, 64, 0
2, 29198, Note_on_c, 0, 76, 50
2, 29221, Note_on_c, 0, 71, 0
2, 29222, Note_on_c, 0, 83, 0
2, 29230, Note_on_c, 0, 76, 0
2, 29232, Note_on_c, 0, 60, 0
2, 29236, Note_on_c, 0, 80, 0
2, 29255, Note_on_c, 0, 82, 64
2, 29256, Note_on_c, 0, 54, 0
2, 29256, Note_on_c, 0, 76, 46
2, 29257, Note_on_c, 0, 80, 29
2, 29257, Note_on_c, 0, 70, 55
2, 29283, Note_on_c, 0, 62, 34
2, 29285, Note_on_c, 0, 54, 37
2, 29290, Note_on_c, 0, 70, 0
2, 29291, Note_on_c, 0, 76, 0
2, 29294, Note_on_c, 0, 82, 0
2, 29305, Note_on_c, 0, 80, 0
2, 29319, Note_on_c, 0, 81, 55
2, 29319, Note_on_c, 0, 76, 22
2, 29322, Note_on_c, 0, 69, 33
2, 29350, Note_on_c, 0, 69, 0
2, 29352, Note_on_c, 0, 81, 0
2, 29353, Note_on_c, 0, 76, 0
2, 29356, Note_on_c, 0, 62, 0
2, 29357, Note_on_c, 0, 54, 0
2, 29398, Note_on_c, 0, 54, 42
2, 29401, Note_on_c, 0, 62, 30
2, 29403, Note_on_c, 0, 60, 37
2, 29451, Note_on_c, 0, 54, 0
2, 29456, Note_on_c, 0, 60, 0
2, 29460, Note_on_c, 0, 62, 0
2, 29518, Note_on_c, 0, 62, 33
2, 29518, Note_on_c, 0, 54, 42
2, 29519, Note_on_c, 0, 60, 47
2, 29555, Note_on_c, 0, 54, 0
2, 29586, Note_on_c, 0, 60, 0
2, 29597, Note_on_c, 0, 62, 0
2, 29600, Note_on_c, 0, 54, 54
2, 29637, Note_on_c, 0, 78, 62
2, 29637, Note_on_c, 0, 62, 61
2, 29637, Note_on_c, 0, 73, 64
2, 29638, Note_on_c, 0, 66, 65
2, 29639, Note_on_c, 0, 60, 49
2, 29652, Note_on_c, 0, 75, 19
2, 29684, Note_on_c, 0, 75, 0
2, 29686, Note_on_c, 0, 73, 0
2, 29689, Note_on_c, 0, 66, 0
2, 29694, Note_on_c, 0, 62, 0
2, 29696, Note_on_c, 0, 78, 0
2, 29716, Note_on_c, 0, 54, 0
2, 29718, Note_on_c, 0, 60, 0
2, 29723, Note_on_c, 0, 79, 68
2, 29724, Note_on_c, 0, 67, 64
2, 29724, Note_on_c, 0, 72, 65
2, 29725, Note_on_c, 0, 76, 55
2, 29728, Note_on_c, 0, 77, 57
2, 29739, Note_on_c, 0, 64, 44
2, 29741, Note_on_c, 0, 53, 36
2, 29743, Note_on_c, 0, 57, 47
2, 29743, Note_on_c, 0, 60, 34
2, 29754, Note_on_c, 0, 67, 0
2, 29758, Note_on_c, 0, 72, 0
2, 29759, Note_on_c, 0, 77, 0
2, 29761, Note_on_c, 0, 79, 0
2, 29762, Note_on_c, 0, 76, 0
2, 29765, Note_on_c, 0, 64, 0
2, 29775, Note_on_c, 0, 57, 0
2, 29777, Note_on_c, 0, 79, 37
2, 29781, Note_on_c, 0, 67, 28
2, 29783, Note_on_c, 0, 72, 37
2, 29784, Note_on_c, 0, 76, 41
2, 29790, Note_on_c, 0, 77, 19
2, 29798, Note_on_c, 0, 60, 0
2, 29803, Note_on_c, 0, 53, 0
2, 29808, Note_on_c, 0, 67, 0
2, 29812, Note_on_c, 0, 76, 0
2, 29813, Note_on_c, 0, 79, 0
2, 29817, Note_on_c, 0, 77, 0
2, 29820, Note_on_c, 0, 72, 0
2, 29874, Note_on_c, 0, 64, 41
2, 29875, Note_on_c, 0, 60, 46
2, 29875, Note_on_c, 0, 53, 42
2, 29875, Note_on_c, 0, 69, 60
2, 29876, Note_on_c, 0, 57, 48
2, 29876, Note_on_c, 0, 65, 62
2, 29877, Note_on_c, 0, 74, 39
2, 29881, Note_on_c, 0, 72, 24
2, 29888, Note_on_c, 0, 72, 0
2, 29954, Note_on_c, 0, 65, 0
2, 29957, Note_on_c, 0, 64, 0
2, 29958, Note_on_c, 0, 69, 0
2, 29959, Note_on_c, 0, 57, 0
2, 29960, Note_on_c, 0, 74, 0
2, 29961, Note_on_c, 0, 60, 0
2, 29965, Note_on_c, 0, 53, 0
2, 29994, Note_on_c, 0, 53, 22
2, 29994, Note_on_c, 0, 64, 34
2, 29994, Note_on_c, 0, 74, 50
2, 29997, Note_on_c, 0, 57, 39
2, 29998, Note_on_c, 0, 69, 55
2, 29999, Note_on_c, 0, 60, 37
2, 29999, Note_on_c, 0, 65, 50
2, 30003, Control_c, 0, 64, 127
2, 30047, Note_on_c, 0, 57, 0
2, 30048, Note_on_c, 0, 74, 0
2, 30048, Note_on_c, 0, 64, 0
2, 30048, Note_on_c, 0, 60, 0
2, 30053, Note_on_c, 0, 53, 0
2, 30054, Note_on_c, 0, 69, 0
2, 30054, Note_on_c, 0, 65, 0
2, 30082, Note_on_c, 0, 76, 62
2, 30085, Note_on_c, 0, 72, 53
2, 30085, Note_on_c, 0, 69, 68
2, 30087, Note_on_c, 0, 65, 59
2, 30097, Control_c, 0, 64, 0
2, 30106, Note_on_c, 0, 64, 35
2, 30106, Note_on_c, 0, 53, 30
2, 30107, Note_on_c, 0, 60, 50
2, 30108, Note_on_c, 0, 57, 46
2, 30129, Control_c, 0, 64, 127
2, 30163, Note_on_c, 0, 53, 0
2, 30178, Note_on_c, 0, 60, 0
2, 30184, Note_on_c, 0, 69, 0
2, 30188, Note_on_c, 0, 72, 0
2, 30189, Note_on_c, 0, 64, 0
2, 30191, Note_on_c, 0, 57, 0
2, 30193, Note_on_c, 0, 65, 0
2, 30197, Note_on_c, 0, 76, 0
2, 30225, Control_c, 0, 64, 0
2, 30234, Note_on_c, 0, 77, 57
2, 30234, Note_on_c, 0, 64, 43
2, 30235, Note_on_c, 0, 72, 57
2, 30236, Note_on_c, 0, 65, 57
2, 30236, Note_on_c, 0, 57, 51
2, 30236, Note_on_c, 0, 53, 34
2, 30237, Note_on_c, 0, 60, 49
2, 30264, Control_c, 0, 64, 127
2, 30267, Note_on_c, 0, 53, 0
2, 30275, Note_on_c, 0, 60, 0
2, 30279, Note_on_c, 0, 64, 0
2, 30283, Note_on_c, 0, 57, 0
2, 30298, Note_on_c, 0, 65, 0
2, 30302, Note_on_c, 0, 72, 0
2, 30308, Note_on_c, 0, 77, 0
2, 30320, Note_on_c, 0, 53, 27
2, 30327, Note_on_c, 0, 53, 0
2, 30340, Control_c, 0, 64, 0
2, 30352, Note_on_c, 0, 79, 71
2, 30353, Note_on_c, 0, 64, 75
2, 30354, Note_on_c, 0, 73, 74
2, 30354, Note_on_c, 0, 57, 58
2, 30354, Note_on_c, 0, 53, 60
2, 30354, Note_on_c, 0, 59, 62
2, 30355, Note_on_c, 0, 67, 57
2, 30374, Note_on_c, 0, 64, 0
2, 30376, Note_on_c, 0, 73, 0
2, 30379, Note_on_c, 0, 74, 47
2, 30381, Note_on_c, 0, 59, 0
2, 30382, Note_on_c, 0, 57, 0
2, 30382, Control_c, 0, 64, 127
2, 30388, Note_on_c, 0, 53, 0
2, 30442, Note_on_c, 0, 55, 90
2, 30442, Note_on_c, 0, 43, 91
2, 30445, Note_on_c, 0, 53, 74
2, 30448, Note_on_c, 0, 44, 46
2, 30450, Control_c, 0, 64, 0
2, 30452, Note_on_c, 0, 53, 0
2, 30454, Note_on_c, 0, 44, 0
2, 30484, Control_c, 0, 64, 127
2, 30522, Note_on_c, 0, 43, 0
2, 30545, Note_on_c, 0, 67, 0
2, 30550, Note_on_c, 0, 74, 0
2, 30554, Note_on_c, 0, 79, 0
2, 30559, Note_on_c, 0, 55, 0
2, 30570, Note_on_c, 0, 43, 20
2, 30587, Control_c, 0, 64, 0
2, 30592, Note_on_c, 0, 55, 74
2, 30598, Note_on_c, 0, 81, 80
2, 30599, Note_on_c, 0, 69, 80
2, 30599, Note_on_c, 0, 76, 76
2, 30617, Control_c, 0, 64, 127
2, 30630, Note_on_c, 0, 81, 0
2, 30638, Note_on_c, 0, 76, 0
2, 30651, Note_on_c, 0, 69, 0
2, 30694, Note_on_c, 0, 55, 0
2, 30702, Control_c, 0, 64, 0
2, 30710, Note_on_c, 0, 55, 83
2, 30715, Control_c, 0, 64, 127
2, 30750, Note_on_c, 0, 43, 0
2, 30799, Note_on_c, 0, 43, 89
2, 30808, Note_on_c, 0, 67, 71
2, 30810, Note_on_c, 0, 59, 82
2, 30810, Note_on_c, 0, 62, 77
2, 30811, Note_on_c, 0, 64, 72
2, 30819, Control_c, 0, 64, 0
2, 30858, Note_on_c, 0, 55, 0
2, 30858, Control_c, 0, 64, 127
2, 30920, Note_on_c, 0, 55, 105
2, 30940, Control_c, 0, 64, 0
2, 30958, Control_c, 0, 64, 127
2, 30969, Note_on_c, 0, 43, 0
2, 31039, Note_on_c, 0, 43, 94
2, 31068, Control_c, 0, 64, 0
2, 31070, Note_on_c, 0, 59, 0
2, 31088, Control_c, 0, 64, 127
2, 31118, Note_on_c, 0, 65, 1
2, 31154, Note_on_c, 0, 67, 0
2, 31156, Note_on_c, 0, 64, 0
2, 31156, Note_on_c, 0, 62, 0
2, 31161, Note_on_c, 0, 55, 0
2, 31163, Note_on_c, 0, 65, 0
2, 31163, Note_on_c, 0, 50, 49
2, 31173, Note_on_c, 0, 50, 0
2, 31188, Note_on_c, 0, 67, 49
2, 31189, Note_on_c, 0, 61, 55
2, 31190, Note_on_c, 0, 59, 66
2, 31190, Note_on_c, 0, 63, 51
2, 31192, Control_c, 0, 64, 0
2, 31192, Note_on_c, 0, 55, 67
2, 31238, Note_on_c, 0, 61, 0
2, 31258, Note_on_c, 0, 63, 0
2, 31261, Note_on_c, 0, 59, 0
2, 31263, Note_on_c, 0, 67, 0
2, 31272, Note_on_c, 0, 55, 0
2, 31279, Note_on_c, 0, 50, 54
2, 31302, Note_on_c, 0, 50, 0
2, 31308, Note_on_c, 0, 61, 64
2, 31308, Note_on_c, 0, 67, 57
2, 31308, Note_on_c, 0, 59, 70
2, 31309, Note_on_c, 0, 63, 51
2, 31309, Note_on_c, 0, 55, 68
2, 31333, Note_on_c, 0, 61, 0
2, 31336, Note_on_c, 0, 59, 0
2, 31341, Note_on_c, 0, 63, 0
2, 31362, Note_on_c, 0, 67, 0
2, 31395, Note_on_c, 0, 50, 54
2, 31401, Note_on_c, 0, 55, 0
2, 31422, Note_on_c, 0, 50, 0
2, 31432, Note_on_c, 0, 55, 55
2, 31434, Note_on_c, 0, 74, 58
2, 31439, Note_on_c, 0, 75, 59
2, 31453, Note_on_c, 0, 75, 0
2, 31458, Note_on_c, 0, 74, 0
2, 31458, Note_on_c, 0, 76, 37
2, 31479, Note_on_c, 0, 55, 0
2, 31502, Note_on_c, 0, 76, 0
2, 31518, Note_on_c, 0, 79, 82
2, 31520, Note_on_c, 0, 67, 65
2, 31522, Note_on_c, 0, 55, 66
2, 31525, Note_on_c, 0, 50, 24
2, 31530, Note_on_c, 0, 43, 0
2, 31536, Note_on_c, 0, 50, 0
2, 31540, Note_on_c, 0, 55, 0
2, 31551, Note_on_c, 0, 67, 0
2, 31556, Note_on_c, 0, 79, 0
2, 31567, Note_on_c, 0, 74, 24
2, 31593, Note_on_c, 0, 75, 10
2, 31609, Note_on_c, 0, 74, 0
2, 31616, Note_on_c, 0, 76, 40
2, 31620, Note_on_c, 0, 75, 0
2, 31639, Note_on_c, 0, 76, 0
2, 31646, Note_on_c, 0, 79, 79
2, 31667, Note_on_c, 0, 65, 44
2, 31672, Note_on_c, 0, 60, 44
2, 31676, Note_on_c, 0, 55, 24
2, 31678, Note_on_c, 0, 57, 30
2, 31680, Note_on_c, 0, 79, 0
2, 31684, Note_on_c, 0, 74, 38
2, 31710, Note_on_c, 0, 75, 7
2, 31711, Note_on_c, 0, 60, 0
2, 31714, Note_on_c, 0, 55, 0
2, 31718, Note_on_c, 0, 57, 0
2, 31726, Note_on_c, 0, 65, 0
2, 31726, Note_on_c, 0, 74, 0
2, 31736, Note_on_c, 0, 76, 27
2, 31738, Note_on_c, 0, 75, 0
2, 31764, Note_on_c, 0, 76, 0
2, 31768, Note_on_c, 0, 79, 60
2, 31800, Note_on_c, 0, 65, 29
2, 31802, Note_on_c, 0, 60, 41
2, 31807, Note_on_c, 0, 72, 48
2, 31848, Note_on_c, 0, 60, 0
2, 31849, Note_on_c, 0, 65, 0
2, 31898, Note_on_c, 0, 72, 0
2, 31910, Note_on_c, 0, 79, 0
2, 31919, Note_on_c, 0, 69, 44
2, 31922, Note_on_c, 0, 65, 30
2, 31924, Note_on_c, 0, 55, 18
2, 31925, Note_on_c, 0, 60, 41
2, 31930, Note_on_c, 0, 57, 22
2, 31957, Note_on_c, 0, 69, 0
2, 31960, Note_on_c, 0, 60, 0
2, 31962, Note_on_c, 0, 57, 0
2, 31965, Note_on_c, 0, 65, 0
2, 31967, Note_on_c, 0, 55, 0
2, 32036, Note_on_c, 0, 65, 35
2, 32037, Note_on_c, 0, 55, 25
2, 32040, Note_on_c, 0, 57, 30
2, 32041, Note_on_c, 0, 60, 41
2, 32077, Note_on_c, 0, 60, 0
2, 32083, Note_on_c, 0, 65, 0
2, 32089, Note_on_c, 0, 57, 0
2, 32089, Note_on_c, 0, 55, 0
2, 32157, Note_on_c, 0, 53, 32
2, 32158, Note_on_c, 0, 59, 33
2, 32158, Note_on_c, 0, 64, 20
2, 32206, Note_on_c, 0, 59, 0
2, 32212, Note_on_c, 0, 64, 0
2, 32217, Note_on_c, 0, 53, 0
2, 32276, Note_on_c, 0, 64, 46
2, 32278, Note_on_c, 0, 53, 37
2, 32279, Note_on_c, 0, 59, 48
2, 32318, Note_on_c, 0, 64, 0
2, 32320, Note_on_c, 0, 53, 0
2, 32324, Note_on_c, 0, 59, 0
2, 32366, Note_on_c, 0, 88, 105
2, 32384, Note_on_c, 0, 60, 54
2, 32386, Note_on_c, 0, 53, 48
2, 32386, Note_on_c, 0, 57, 40
2, 32386, Note_on_c, 0, 50, 33
2, 32401, Note_on_c, 0, 88, 0
2, 32422, Note_on_c, 0, 89, 77
2, 32432, Note_on_c, 0, 60, 0
2, 32439, Note_on_c, 0, 53, 0
2, 32446, Note_on_c, 0, 89, 0
2, 32450, Note_on_c, 0, 57, 0
2, 32457, Note_on_c, 0, 50, 0
2, 32460, Note_on_c, 0, 88, 75
2, 32486, Note_on_c, 0, 88, 0
2, 32497, Note_on_c, 0, 85, 73
2, 32514, Note_on_c, 0, 60, 34
2, 32514, Note_on_c, 0, 57, 24
2, 32518, Note_on_c, 0, 53, 33
2, 32530, Note_on_c, 0, 85, 0
2, 32535, Note_on_c, 0, 53, 0
2, 32542, Note_on_c, 0, 86, 67
2, 32544, Note_on_c, 0, 57, 0
2, 32553, Note_on_c, 0, 60, 0
2, 32570, Note_on_c, 0, 86, 0
2, 32578, Note_on_c, 0, 84, 68
2, 32609, Note_on_c, 0, 84, 0
2, 32614, Note_on_c, 0, 81, 60
2, 32641, Note_on_c, 0, 81, 0
2, 32646, Note_on_c, 0, 60, 28
2, 32649, Note_on_c, 0, 57, 29
2, 32650, Note_on_c, 0, 65, 13
2, 32651, Note_on_c, 0, 55, 25
2, 32656, Note_on_c, 0, 84, 66
2, 32680, Note_on_c, 0, 84, 0
2, 32693, Note_on_c, 0, 65, 0
2, 32698, Note_on_c, 0, 77, 36
2, 32708, Note_on_c, 0, 60, 0
2, 32708, Note_on_c, 0, 57, 0
2, 32719, Note_on_c, 0, 55, 0
2, 32722, Note_on_c, 0, 77, 0
2, 32733, Note_on_c, 0, 81, 72
2, 32760, Note_on_c, 0, 81, 0
2, 32770, Note_on_c, 0, 65, 31
2, 32770, Note_on_c, 0, 84, 68
2, 32772, Note_on_c, 0, 60, 41
2, 32774, Note_on_c, 0, 55, 15
2, 32794, Note_on_c, 0, 65, 0
2, 32800, Note_on_c, 0, 84, 0
2, 32800, Note_on_c, 0, 60, 0
2, 32811, Note_on_c, 0, 81, 53
2, 32823, Note_on_c, 0, 55, 0
2, 32829, Note_on_c, 0, 81, 0
2, 32842, Note_on_c, 0, 77, 46
2, 32864, Note_on_c, 0, 77, 0
2, 32874, Note_on_c, 0, 72, 41
2, 32886, Note_on_c, 0, 65, 28
2, 32887, Note_on_c, 0, 55, 19
2, 32888, Note_on_c, 0, 60, 36
2, 32894, Note_on_c, 0, 57, 19
2, 32906, Note_on_c, 0, 65, 0
2, 32908, Note_on_c, 0, 72, 0
2, 32911, Note_on_c, 0, 70, 31
2, 32916, Note_on_c, 0, 60, 0
2, 32938, Note_on_c, 0, 70, 0
2, 32941, Note_on_c, 0, 57, 0
2, 32954, Note_on_c, 0, 55, 0
2, 33000, Note_on_c, 0, 55, 40
2, 33003, Note_on_c, 0, 60, 45
2, 33004, Note_on_c, 0, 65, 29
2, 33022, Note_on_c, 0, 65, 0
2, 33032, Note_on_c, 0, 60, 0
2, 33035, Note_on_c, 0, 55, 0
2, 33088, Note_on_c, 0, 51, 58
2, 33089, Note_on_c, 0, 60, 67
2, 33098, Note_on_c, 0, 57, 33
2, 33208, Note_on_c, 0, 72, 69
2, 33210, Note_on_c, 0, 60, 0
2, 33211, Note_on_c, 0, 51, 0
2, 33232, Note_on_c, 0, 72, 0
2, 33241, Note_on_c, 0, 51, 37
2, 33242, Note_on_c, 0, 60, 44
2, 33248, Note_on_c, 0, 73, 56
2, 33269, Note_on_c, 0, 74, 60
2, 33284, Note_on_c, 0, 51, 0
2, 33286, Note_on_c, 0, 57, 0
2, 33292, Note_on_c, 0, 74, 0
2, 33293, Note_on_c, 0, 60, 0
2, 33296, Note_on_c, 0, 73, 0
2, 33297, Note_on_c, 0, 75, 47
2, 33316, Note_on_c, 0, 74, 43
2, 33341, Note_on_c, 0, 75, 0
2, 33346, Note_on_c, 0, 73, 49
2, 33351, Note_on_c, 0, 74, 0
2, 33359, Note_on_c, 0, 51, 30
2, 33361, Note_on_c, 0, 57, 17
2, 33361, Note_on_c, 0, 60, 33
2, 33367, Note_on_c, 0, 73, 0
2, 33375, Note_on_c, 0, 72, 31
2, 33406, Note_on_c, 0, 60, 0
2, 33425, Note_on_c, 0, 51, 0
2, 33426, Note_on_c, 0, 57, 0
2, 33430, Note_on_c, 0, 72, 0
2, 33444, Note_on_c, 0, 70, 48
2, 33469, Note_on_c, 0, 57, 19
2, 33472, Note_on_c, 0, 60, 35
2, 33476, Note_on_c, 0, 51, 17
2, 33478, Note_on_c, 0, 70, 0
2, 33491, Note_on_c, 0, 67, 28
2, 33496, Note_on_c, 0, 57, 0
2, 33501, Note_on_c, 0, 51, 0
2, 33534, Note_on_c, 0, 60, 0
2, 33559, Note_on_c, 0, 66, 53
2, 33570, Note_on_c, 0, 67, 0
2, 33586, Note_on_c, 0, 65, 34
2, 33591, Note_on_c, 0, 66, 0
2, 33593, Note_on_c, 0, 60, 36
2, 33597, Note_on_c, 0, 65, 0
2, 33604, Note_on_c, 0, 57, 17
2, 33605, Note_on_c, 0, 67, 36
2, 33624, Note_on_c, 0, 60, 0
2, 33631, Note_on_c, 0, 57, 0
2, 33679, Note_on_c, 0, 67, 0
2, 33680, Note_on_c, 0, 62, 52
2, 33696, Note_on_c, 0, 62, 0
2, 33720, Note_on_c, 0, 60, 31
2, 33723, Note_on_c, 0, 55, 22
2, 33724, Note_on_c, 0, 57, 28
2, 33742, Note_on_c, 0, 55, 0
2, 33751, Note_on_c, 0, 57, 0
2, 33756, Note_on_c, 0, 60, 0
2, 33841, Note_on_c, 0, 65, 55
2, 33843, Note_on_c, 0, 60, 56
2, 33843, Note_on_c, 0, 79, 90
2, 33844, Note_on_c, 0, 55, 30
2, 33845, Note_on_c, 0, 57, 37
2, 33864, Note_on_c, 0, 65, 0
2, 33882, Note_on_c, 0, 55, 0
2, 33882, Note_on_c, 0, 60, 0
2, 33885, Note_on_c, 0, 57, 0
2, 33910, Note_on_c, 0, 79, 0
2, 33961, Note_on_c, 0, 55, 41
2, 33964, Note_on_c, 0, 60, 48
2, 33971, Note_on_c, 0, 75, 65
2, 33972, Note_on_c, 0, 60, 0
2, 33980, Note_on_c, 0, 55, 0
2, 34024, Note_on_c, 0, 75, 0
2, 34038, Note_on_c, 0, 76, 75
2, 34069, Note_on_c, 0, 60, 30
2, 34070, Note_on_c, 0, 57, 33
2, 34071, Note_on_c, 0, 53, 40
2, 34072, Note_on_c, 0, 50, 27
2, 34073, Note_on_c, 0, 76, 0
2, 34084, Note_on_c, 0, 77, 49
2, 34088, Note_on_c, 0, 60, 0
2, 34122, Note_on_c, 0, 53, 0
2, 34124, Note_on_c, 0, 57, 0
2, 34136, Note_on_c, 0, 50, 0
2, 34160, Note_on_c, 0, 81, 69
2, 34161, Note_on_c, 0, 77, 0
2, 34177, Note_on_c, 0, 81, 0
2, 34193, Note_on_c, 0, 60, 22
2, 34196, Note_on_c, 0, 57, 36
2, 34199, Note_on_c, 0, 53, 32
2, 34201, Note_on_c, 0, 50, 30
2, 34202, Note_on_c, 0, 88, 68
2, 34227, Note_on_c, 0, 60, 0
2, 34248, Note_on_c, 0, 57, 0
2, 34248, Note_on_c, 0, 53, 0
2, 34262, Note_on_c, 0, 50, 0
2, 34262, Note_on_c, 0, 88, 0
2, 34276, Note_on_c, 0, 91, 80
2, 34277, Note_on_c, 0, 79, 75
2, 34310, Note_on_c, 0, 60, 29
2, 34310, Note_on_c, 0, 57, 25
2, 34313, Note_on_c, 0, 91, 0
2, 34323, Note_on_c, 0, 60, 0
2, 34325, Note_on_c, 0, 79, 0
2, 34343, Note_on_c, 0, 50, 1
2, 34366, Note_on_c, 0, 90, 75
2, 34371, Note_on_c, 0, 57, 0
2, 34397, Note_on_c, 0, 90, 0
2, 34402, Note_on_c, 0, 89, 68
2, 34431, Note_on_c, 0, 89, 0
2, 34438, Note_on_c, 0, 60, 33
2, 34439, Note_on_c, 0, 57, 29
2, 34443, Note_on_c, 0, 53, 27
2, 34446, Note_on_c, 0, 85, 57
2, 34455, Note_on_c, 0, 53, 0
2, 34456, Note_on_c, 0, 50, 0
2, 34463, Note_on_c, 0, 57, 0
2, 34474, Note_on_c, 0, 85, 0
2, 34478, Note_on_c, 0, 60, 0
2, 34483, Note_on_c, 0, 88, 75
2, 34515, Note_on_c, 0, 88, 0
2, 34518, Note_on_c, 0, 86, 66
2, 34556, Note_on_c, 0, 86, 0
2, 34556, Note_on_c, 0, 81, 57
2, 34557, Note_on_c, 0, 65, 36
2, 34561, Note_on_c, 0, 60, 40
2, 34563, Note_on_c, 0, 57, 20
2, 34578, Note_on_c, 0, 81, 0
2, 34599, Note_on_c, 0, 84, 71
2, 34600, Note_on_c, 0, 65, 0
2, 34612, Note_on_c, 0, 55, 1
2, 34614, Note_on_c, 0, 60, 0
2, 34623, Note_on_c, 0, 57, 0
2, 34624, Note_on_c, 0, 84, 0
2, 34631, Note_on_c, 0, 86, 63
2, 34646, Note_on_c, 0, 55, 0
2, 34658, Note_on_c, 0, 84, 46
2, 34659, Note_on_c, 0, 86, 0
2, 34681, Note_on_c, 0, 60, 42
2, 34683, Note_on_c, 0, 55, 17
2, 34684, Note_on_c, 0, 84, 0
2, 34684, Note_on_c, 0, 65, 28
2, 34684, Note_on_c, 0, 81, 49
2, 34684, Note_on_c, 0, 57, 29
2, 34696, Note_on_c, 0, 81, 0
2, 34710, Note_on_c, 0, 65, 0
2, 34722, Note_on_c, 0, 84, 69
2, 34732, Note_on_c, 0, 57, 0
2, 34742, Note_on_c, 0, 84, 0
2, 34748, Note_on_c, 0, 60, 0
2, 34748, Note_on_c, 0, 86, 56
2, 34754, Note_on_c, 0, 55, 0
2, 34770, Note_on_c, 0, 84, 38
2, 34772, Note_on_c, 0, 86, 0
2, 34795, Note_on_c, 0, 84, 0
2, 34797, Note_on_c, 0, 81, 47
2, 34804, Note_on_c, 0, 55, 29
2, 34805, Note_on_c, 0, 65, 33
2, 34806, Note_on_c, 0, 60, 36
2, 34813, Note_on_c, 0, 81, 0
2, 34829, Note_on_c, 0, 83, 76
2, 34847, Note_on_c, 0, 65, 0
2, 34854, Note_on_c, 0, 60, 0
2, 34868, Note_on_c, 0, 55, 0
2, 34882, Note_on_c, 0, 83, 0
2, 34888, Note_on_c, 0, 79, 58
2, 34896, Note_on_c, 0, 79, 0
2, 34914, Note_on_c, 0, 55, 32
2, 34916, Note_on_c, 0, 65, 37
2, 34918, Note_on_c, 0, 60, 44
2, 34956, Note_on_c, 0, 55, 0
2, 34978, Note_on_c, 0, 60, 0
2, 34978, Note_on_c, 0, 65, 0
2, 34999, Note_on_c, 0, 64, 66
2, 35002, Note_on_c, 0, 53, 51
2, 35004, Note_on_c, 0, 59, 62
2, 35044, Note_on_c, 0, 82, 72
2, 35049, Note_on_c, 0, 71, 66
2, 35050, Note_on_c, 0, 75, 52
2, 35056, Note_on_c, 0, 64, 0
2, 35093, Note_on_c, 0, 75, 0
2, 35094, Note_on_c, 0, 71, 0
2, 35096, Note_on_c, 0, 82, 0
2, 35107, Note_on_c, 0, 53, 0
2, 35108, Note_on_c, 0, 59, 0
2, 35118, Note_on_c, 0, 82, 67
2, 35123, Note_on_c, 0, 75, 67
2, 35124, Note_on_c, 0, 71, 66
2, 35126, Note_on_c, 0, 79, 35
2, 35131, Note_on_c, 0, 71, 0
2, 35136, Note_on_c, 0, 79, 0
2, 35145, Note_on_c, 0, 59, 28
2, 35146, Note_on_c, 0, 82, 0
2, 35147, Note_on_c, 0, 53, 35
2, 35149, Note_on_c, 0, 64, 30
2, 35153, Note_on_c, 0, 75, 0
2, 35160, Note_on_c, 0, 80, 50
2, 35164, Note_on_c, 0, 68, 44
2, 35164, Note_on_c, 0, 75, 49
2, 35181, Note_on_c, 0, 64, 0
2, 35198, Note_on_c, 0, 68, 0
2, 35199, Note_on_c, 0, 53, 0
2, 35206, Note_on_c, 0, 75, 0
2, 35207, Note_on_c, 0, 80, 0
2, 35232, Note_on_c, 0, 80, 60
2, 35234, Note_on_c, 0, 75, 53
2, 35235, Note_on_c, 0, 68, 61
2, 35251, Note_on_c, 0, 59, 0
2, 35262, Note_on_c, 0, 68, 0
2, 35263, Note_on_c, 0, 75, 0
2, 35269, Note_on_c, 0, 80, 0
2, 35270, Note_on_c, 0, 59, 22
2, 35271, Note_on_c, 0, 53, 31
2, 35271, Note_on_c, 0, 63, 32
2, 35276, Note_on_c, 0, 56, 30
2, 35277, Note_on_c, 0, 79, 53
2, 35280, Note_on_c, 0, 67, 33
2, 35281, Note_on_c, 0, 74, 40
2, 35311, Note_on_c, 0, 53, 0
2, 35312, Note_on_c, 0, 67, 0
2, 35314, Note_on_c, 0, 79, 0
2, 35315, Note_on_c, 0, 74, 0
2, 35325, Note_on_c, 0, 56, 0
2, 35327, Note_on_c, 0, 63, 0
2, 35333, Note_on_c, 0, 59, 0
2, 35390, Note_on_c, 0, 63, 34
2, 35394, Note_on_c, 0, 53, 27
2, 35396, Note_on_c, 0, 59, 34
2, 35397, Note_on_c, 0, 56, 25
2, 35442, Note_on_c, 0, 53, 0
2, 35452, Note_on_c, 0, 63, 0
2, 35472, Note_on_c, 0, 56, 0
2, 35479, Note_on_c, 0, 59, 0
2, 35482, Note_on_c, 0, 77, 83
2, 35497, Note_on_c, 0, 55, 43
2, 35497, Note_on_c, 0, 59, 8
2, 35498, Note_on_c, 0, 62, 24
2, 35511, Note_on_c, 0, 77, 0
2, 35518, Note_on_c, 0, 62, 0
2, 35530, Note_on_c, 0, 74, 48
2, 35532, Note_on_c, 0, 52, 1
2, 35556, Note_on_c, 0, 75, 25
2, 35561, Note_on_c, 0, 55, 0
2, 35565, Note_on_c, 0, 59, 0
2, 35571, Note_on_c, 0, 74, 0
2, 35578, Note_on_c, 0, 75, 0
2, 35586, Note_on_c, 0, 76, 33
2, 35611, Note_on_c, 0, 76, 0
2, 35623, Note_on_c, 0, 79, 75
2, 35638, Note_on_c, 0, 62, 36
2, 35646, Note_on_c, 0, 55, 30
2, 35648, Note_on_c, 0, 59, 18
2, 35654, Note_on_c, 0, 62, 0
2, 35657, Note_on_c, 0, 74, 34
2, 35670, Note_on_c, 0, 79, 0
2, 35683, Note_on_c, 0, 75, 42
2, 35689, Note_on_c, 0, 59, 0
2, 35689, Note_on_c, 0, 74, 0
2, 35690, Note_on_c, 0, 55, 0
2, 35699, Note_on_c, 0, 75, 0
2, 35702, Note_on_c, 0, 76, 48
2, 35724, Note_on_c, 0, 76, 0
2, 35728, Note_on_c, 0, 74, 47
2, 35746, Note_on_c, 0, 74, 0
2, 35750, Note_on_c, 0, 62, 30
2, 35753, Note_on_c, 0, 69, 56
2, 35755, Note_on_c, 0, 59, 24
2, 35758, Note_on_c, 0, 55, 31
2, 35767, Note_on_c, 0, 69, 0
2, 35770, Note_on_c, 0, 62, 0
2, 35792, Note_on_c, 0, 65, 28
2, 35807, Note_on_c, 0, 59, 0
2, 35813, Note_on_c, 0, 55, 0
2, 35847, Note_on_c, 0, 65, 0
2, 35858, Note_on_c, 0, 60, 42
2, 35874, Note_on_c, 0, 59, 38
2, 35876, Note_on_c, 0, 60, 0
2, 35877, Note_on_c, 0, 55, 34
2, 35882, Note_on_c, 0, 63, 50
2, 35892, Note_on_c, 0, 55, 0
2, 35896, Note_on_c, 0, 52, 0
2, 35910, Note_on_c, 0, 63, 0
2, 35910, Note_on_c, 0, 64, 47
2, 35917, Note_on_c, 0, 59, 0
2, 35951, Note_on_c, 0, 64, 0
2, 35967, Note_on_c, 0, 67, 62
2, 35988, Note_on_c, 0, 67, 0
2, 35994, Note_on_c, 0, 64, 39
2, 35998, Note_on_c, 0, 60, 47
2, 35999, Note_on_c, 0, 59, 31
2, 36004, Note_on_c, 0, 69, 71
2, 36005, Note_on_c, 0, 55, 19
2, 36066, Note_on_c, 0, 55, 0
2, 36068, Note_on_c, 0, 59, 0
2, 36068, Note_on_c, 0, 60, 0
2, 36069, Note_on_c, 0, 64, 0
2, 36099, Note_on_c, 0, 69, 0
2, 36118, Note_on_c, 0, 64, 32
2, 36118, Note_on_c, 0, 67, 44
2, 36120, Note_on_c, 0, 60, 42
2, 36120, Note_on_c, 0, 59, 36
2, 36124, Note_on_c, 0, 55, 26
2, 36146, Note_on_c, 0, 64, 0
2, 36154, Note_on_c, 0, 60, 0
2, 36158, Note_on_c, 0, 59, 0
2, 36179, Note_on_c, 0, 55, 0
2, 36237, Note_on_c, 0, 60, 53
2, 36243, Note_on_c, 0, 55, 18
2, 36244, Note_on_c, 0, 59, 32
2, 36270, Note_on_c, 0, 59, 0
2, 36274, Note_on_c, 0, 55, 0
2, 36294, Note_on_c, 0, 60, 0
2, 36322, Note_on_c, 0, 67, 0
2, 36326, Note_on_c, 0, 60, 55
2, 36335, Note_on_c, 0, 60, 0
2, 36361, Note_on_c, 0, 60, 37
2, 36363, Note_on_c, 0, 55, 37
2, 36364, Note_on_c, 0, 59, 38
2, 36386, Control_c, 0, 64, 127
2, 36409, Note_on_c, 0, 59, 0
2, 36428, Note_on_c, 0, 55, 0
2, 36462, Control_c, 0, 64, 0
2, 36478, Note_on_c, 0, 53, 33
2, 36479, Note_on_c, 0, 64, 27
2, 36484, Note_on_c, 0, 57, 33
2, 36522, Note_on_c, 0, 57, 0
2, 36525, Note_on_c, 0, 64, 0
2, 36525, Note_on_c, 0, 53, 0
2, 36533, Note_on_c, 0, 60, 0
2, 36596, Note_on_c, 0, 64, 32
2, 36597, Note_on_c, 0, 60, 44
2, 36597, Note_on_c, 0, 53, 29
2, 36599, Note_on_c, 0, 57, 40
2, 36620, Note_on_c, 0, 53, 0
2, 36620, Note_on_c, 0, 64, 0
2, 36626, Note_on_c, 0, 60, 0
2, 36628, Note_on_c, 0, 57, 0
2, 36681, Note_on_c, 0, 84, 89
2, 36683, Note_on_c, 0, 72, 87
2, 36696, Note_on_c, 0, 72, 0
2, 36708, Note_on_c, 0, 84, 0
2, 36715, Note_on_c, 0, 64, 31
2, 36719, Note_on_c, 0, 57, 36
2, 36721, Note_on_c, 0, 60, 36
2, 36723, Note_on_c, 0, 53, 22
2, 36728, Note_on_c, 0, 64, 0
2, 36745, Note_on_c, 0, 53, 0
2, 36756, Note_on_c, 0, 90, 67
2, 36758, Note_on_c, 0, 78, 62
2, 36770, Note_on_c, 0, 57, 0
2, 36772, Note_on_c, 0, 60, 0
2, 36790, Note_on_c, 0, 90, 0
2, 36792, Note_on_c, 0, 78, 0
2, 36795, Note_on_c, 0, 79, 52
2, 36814, Note_on_c, 0, 79, 0
2, 36819, Note_on_c, 0, 91, 58
2, 36836, Note_on_c, 0, 79, 47
2, 36841, Note_on_c, 0, 91, 0
2, 36844, Note_on_c, 0, 64, 32
2, 36844, Note_on_c, 0, 57, 45
2, 36845, Note_on_c, 0, 60, 40
2, 36846, Note_on_c, 0, 53, 32
2, 36849, Note_on_c, 0, 79, 0
2, 36883, Note_on_c, 0, 53, 0
2, 36888, Note_on_c, 0, 60, 0
2, 36897, Note_on_c, 0, 57, 0
2, 36898, Note_on_c, 0, 64, 0
2, 36925, Note_on_c, 0, 64, 74
2, 36927, Note_on_c, 0, 57, 58
2, 36928, Note_on_c, 0, 53, 52
2, 36928, Note_on_c, 0, 59, 58
2, 37054, Note_on_c, 0, 53, 0
2, 37060, Note_on_c, 0, 57, 0
2, 37061, Note_on_c, 0, 64, 0
2, 37068, Note_on_c, 0, 59, 0
2, 37081, Note_on_c, 0, 64, 39
2, 37083, Note_on_c, 0, 53, 35
2, 37085, Note_on_c, 0, 59, 34
2, 37086, Note_on_c, 0, 67, 37
2, 37086, Note_on_c, 0, 79, 42
2, 37086, Note_on_c, 0, 73, 48
2, 37088, Note_on_c, 0, 57, 36
2, 37111, Note_on_c, 0, 73, 0
2, 37118, Note_on_c, 0, 74, 31
2, 37119, Note_on_c, 0, 67, 0
2, 37130, Note_on_c, 0, 74, 0
2, 37134, Note_on_c, 0, 79, 0
2, 37135, Note_on_c, 0, 53, 0
2, 37140, Note_on_c, 0, 64, 0
2, 37141, Note_on_c, 0, 57, 0
2, 37151, Note_on_c, 0, 59, 0
2, 37168, Note_on_c, 0, 79, 59
2, 37170, Note_on_c, 0, 67, 53
2, 37171, Note_on_c, 0, 74, 55
2, 37188, Note_on_c, 0, 67, 0
2, 37192, Note_on_c, 0, 79, 0
2, 37201, Note_on_c, 0, 59, 41
2, 37201, Note_on_c, 0, 64, 33
2, 37202, Note_on_c, 0, 74, 0
2, 37225, Note_on_c, 0, 64, 0
2, 37226, Note_on_c, 0, 74, 30
2, 37228, Note_on_c, 0, 66, 32
2, 37240, Note_on_c, 0, 66, 0
2, 37248, Note_on_c, 0, 74, 0
2, 37264, Note_on_c, 0, 59, 0
2, 37283, Control_c, 0, 64, 127
2, 37289, Note_on_c, 0, 79, 51
2, 37290, Note_on_c, 0, 67, 39
2, 37291, Note_on_c, 0, 74, 40
2, 37298, Note_on_c, 0, 79, 0
2, 37301, Note_on_c, 0, 67, 0
2, 37303, Control_c, 0, 64, 0
2, 37306, Note_on_c, 0, 74, 0
2, 37318, Note_on_c, 0, 59, 42
2, 37322, Note_on_c, 0, 64, 29
2, 37324, Note_on_c, 0, 57, 25
2, 37326, Note_on_c, 0, 74, 43
2, 37327, Note_on_c, 0, 69, 48
2, 37327, Note_on_c, 0, 81, 56
2, 37334, Note_on_c, 0, 69, 0
2, 37334, Note_on_c, 0, 64, 0
2, 37335, Note_on_c, 0, 74, 0
2, 37335, Note_on_c, 0, 81, 0
2, 37342, Note_on_c, 0, 57, 0
2, 37344, Note_on_c, 0, 59, 0
2, 37400, Note_on_c, 0, 59, 44
2, 37401, Control_c, 0, 64, 127
2, 37405, Note_on_c, 0, 82, 76
2, 37406, Note_on_c, 0, 70, 76
2, 37408, Note_on_c, 0, 75, 58
2, 37415, Note_on_c, 0, 75, 0
2, 37416, Note_on_c, 0, 59, 0
2, 37418, Note_on_c, 0, 70, 0
2, 37418, Control_c, 0, 64, 0
2, 37422, Note_on_c, 0, 82, 0
2, 37440, Note_on_c, 0, 62, 38
2, 37440, Note_on_c, 0, 55, 52
2, 37440, Note_on_c, 0, 70, 59
2, 37442, Note_on_c, 0, 59, 24
2, 37444, Note_on_c, 0, 52, 36
2, 37452, Note_on_c, 0, 70, 0
2, 37452, Note_on_c, 0, 76, 34
2, 37452, Note_on_c, 0, 83, 53
2, 37453, Note_on_c, 0, 71, 52
2, 37455, Note_on_c, 0, 79, 29
2, 37470, Note_on_c, 0, 71, 0
2, 37474, Note_on_c, 0, 79, 0
2, 37475, Note_on_c, 0, 76, 0
2, 37483, Note_on_c, 0, 83, 0
2, 37488, Note_on_c, 0, 62, 0
2, 37492, Note_on_c, 0, 55, 0
2, 37497, Note_on_c, 0, 52, 0
2, 37498, Note_on_c, 0, 59, 0
2, 37560, Note_on_c, 0, 62, 57
2, 37560, Note_on_c, 0, 74, 80
2, 37561, Note_on_c, 0, 52, 51
2, 37561, Note_on_c, 0, 86, 76
2, 37562, Note_on_c, 0, 82, 68
2, 37563, Note_on_c, 0, 59, 45
2, 37563, Note_on_c, 0, 55, 43
2, 37609, Note_on_c, 0, 83, 40
2, 37611, Note_on_c, 0, 82, 0
2, 37616, Note_on_c, 0, 86, 0
2, 37617, Note_on_c, 0, 83, 0
2, 37620, Note_on_c, 0, 62, 0
2, 37621, Note_on_c, 0, 55, 0
2, 37624, Note_on_c, 0, 74, 0
2, 37624, Note_on_c, 0, 59, 0
2, 37624, Note_on_c, 0, 52, 0
2, 37681, Note_on_c, 0, 75, 56
2, 37682, Note_on_c, 0, 78, 46
2, 37683, Note_on_c, 0, 62, 43
2, 37683, Note_on_c, 0, 59, 44
2, 37684, Note_on_c, 0, 52, 32
2, 37684, Note_on_c, 0, 71, 44
2, 37684, Note_on_c, 0, 55, 50
2, 37686, Note_on_c, 0, 83, 48
2, 37721, Note_on_c, 0, 78, 0
2, 37721, Note_on_c, 0, 75, 0
2, 37722, Note_on_c, 0, 71, 0
2, 37725, Note_on_c, 0, 55, 0
2, 37725, Note_on_c, 0, 76, 44
2, 37730, Note_on_c, 0, 62, 0
2, 37731, Note_on_c, 0, 59, 0
2, 37733, Note_on_c, 0, 83, 0
2, 37733, Note_on_c, 0, 52, 0
2, 37737, Note_on_c, 0, 76, 0
2, 37802, Note_on_c, 0, 62, 58
2, 37804, Note_on_c, 0, 59, 36
2, 37805, Note_on_c, 0, 55, 38
2, 37816, Note_on_c, 0, 55, 0
2, 37816, Note_on_c, 0, 62, 0
2, 37820, Note_on_c, 0, 59, 0
2, 37849, Control_c, 0, 64, 127
2, 37887, Note_on_c, 0, 67, 60
2, 37888, Note_on_c, 0, 79, 54
2, 37893, Note_on_c, 0, 67, 0
2, 37900, Note_on_c, 0, 79, 0
2, 37905, Control_c, 0, 64, 0
2, 37927, Note_on_c, 0, 61, 53
2, 37927, Note_on_c, 0, 58, 42
2, 37927, Note_on_c, 0, 65, 43
2, 37930, Note_on_c, 0, 55, 40
2, 37934, Note_on_c, 0, 86, 54
2, 37938, Note_on_c, 0, 65, 0
2, 37938, Note_on_c, 0, 84, 36
2, 37938, Note_on_c, 0, 74, 27
2, 37940, Note_on_c, 0, 55, 0
2, 37941, Note_on_c, 0, 86, 0
2, 37945, Note_on_c, 0, 84, 0
2, 37945, Note_on_c, 0, 74, 0
2, 37968, Note_on_c, 0, 85, 55
2, 37971, Note_on_c, 0, 73, 49
2, 37977, Note_on_c, 0, 58, 0
2, 37980, Note_on_c, 0, 61, 0
2, 37984, Note_on_c, 0, 73, 0
2, 37985, Note_on_c, 0, 85, 0
2, 38006, Note_on_c, 0, 84, 54
2, 38008, Note_on_c, 0, 72, 66
2, 38009, Note_on_c, 0, 78, 43
2, 38018, Note_on_c, 0, 78, 0
2, 38022, Note_on_c, 0, 84, 0
2, 38026, Note_on_c, 0, 72, 0
2, 38046, Note_on_c, 0, 61, 48
2, 38049, Note_on_c, 0, 58, 37
2, 38049, Note_on_c, 0, 65, 42
2, 38051, Note_on_c, 0, 75, 51
2, 38051, Note_on_c, 0, 71, 55
2, 38052, Note_on_c, 0, 55, 44
2, 38054, Note_on_c, 0, 83, 48
2, 38054, Note_on_c, 0, 78, 47
2, 38091, Note_on_c, 0, 75, 0
2, 38103, Note_on_c, 0, 65, 0
2, 38105, Note_on_c, 0, 76, 8
2, 38108, Note_on_c, 0, 71, 0
2, 38108, Note_on_c, 0, 83, 0
2, 38108, Note_on_c, 0, 79, 26
2, 38114, Note_on_c, 0, 78, 0
2, 38114, Note_on_c, 0, 76, 0
2, 38115, Note_on_c, 0, 55, 0
2, 38116, Note_on_c, 0, 79, 0
2, 38127, Note_on_c, 0, 61, 0
2, 38128, Note_on_c, 0, 58, 0
2, 38130, Note_on_c, 0, 82, 71
2, 38133, Note_on_c, 0, 70, 56
2, 38134, Note_on_c, 0, 75, 52
2, 38150, Note_on_c, 0, 78, 14
2, 38155, Note_on_c, 0, 61, 32
2, 38156, Note_on_c, 0, 58, 27
2, 38160, Note_on_c, 0, 55, 22
2, 38167, Note_on_c, 0, 75, 0
2, 38168, Note_on_c, 0, 78, 0
2, 38175, Note_on_c, 0, 70, 0
2, 38176, Note_on_c, 0, 82, 0
2, 38191, Note_on_c, 0, 75, 30
2, 38194, Note_on_c, 0, 81, 50
2, 38198, Note_on_c, 0, 78, 30
2, 38198, Note_on_c, 0, 69, 26
2, 38207, Note_on_c, 0, 79, 18
2, 38225, Note_on_c, 0, 55, 0
2, 38229, Note_on_c, 0, 69, 0
2, 38232, Note_on_c, 0, 58, 0
2, 38233, Note_on_c, 0, 79, 0
2, 38234, Note_on_c, 0, 61, 0
2, 38235, Note_on_c, 0, 81, 0
2, 38236, Note_on_c, 0, 78, 0
2, 38238, Note_on_c, 0, 75, 0
2, 38276, Note_on_c, 0, 55, 47
2, 38276, Note_on_c, 0, 61, 45
2, 38280, Note_on_c, 0, 58, 43
2, 38280, Note_on_c, 0, 64, 38
2, 38317, Note_on_c, 0, 55, 0
2, 38319, Control_c, 0, 64, 127
2, 38326, Note_on_c, 0, 58, 0
2, 38338, Note_on_c, 0, 61, 0
2, 38339, Note_on_c, 0, 64, 0
2, 38363, Note_on_c, 0, 82, 85
2, 38365, Note_on_c, 0, 54, 79
2, 38365, Note_on_c, 0, 70, 92
2, 38365, Note_on_c, 0, 75, 87
2, 38366, Note_on_c, 0, 65, 78
2, 38366, Note_on_c, 0, 61, 67
2, 38367, Control_c, 0, 64, 0
2, 38368, Note_on_c, 0, 58, 61
2, 38368, Note_on_c, 0, 78, 54
2, 38400, Control_c, 0, 64, 127
2, 38429, Note_on_c, 0, 75, 0
2, 38430, Note_on_c, 0, 70, 0
2, 38433, Note_on_c, 0, 78, 0
2, 38434, Note_on_c, 0, 82, 0
2, 38436, Note_on_c, 0, 65, 0
2, 38444, Note_on_c, 0, 54, 0
2, 38448, Note_on_c, 0, 58, 0
2, 38449, Note_on_c, 0, 61, 0
2, 38451, Note_on_c, 0, 81, 60
2, 38451, Note_on_c, 0, 75, 47
2, 38454, Note_on_c, 0, 80, 30
2, 38454, Note_on_c, 0, 69, 36
2, 38456, Note_on_c, 0, 78, 26
2, 38458, Note_on_c, 0, 81, 0
2, 38462, Note_on_c, 0, 69, 0
2, 38462, Note_on_c, 0, 80, 0
2, 38465, Note_on_c, 0, 78, 0
2, 38468, Note_on_c, 0, 75, 0
2, 38482, Note_on_c, 0, 75, 55
2, 38483, Note_on_c, 0, 80, 59
2, 38484, Note_on_c, 0, 68, 59
2, 38505, Note_on_c, 0, 68, 0
2, 38509, Control_c, 0, 64, 0
2, 38510, Note_on_c, 0, 80, 0
2, 38510, Note_on_c, 0, 75, 0
2, 38517, Note_on_c, 0, 54, 39
2, 38519, Note_on_c, 0, 65, 36
2, 38519, Note_on_c, 0, 61, 44
2, 38520, Note_on_c, 0, 58, 45
2, 38524, Note_on_c, 0, 79, 60
2, 38530, Note_on_c, 0, 74, 40
2, 38530, Note_on_c, 0, 78, 28
2, 38531, Note_on_c, 0, 67, 24
2, 38547, Note_on_c, 0, 67, 0
2, 38548, Note_on_c, 0, 79, 0
2, 38552, Note_on_c, 0, 74, 0
2, 38553, Control_c, 0, 64, 127
2, 38555, Note_on_c, 0, 78, 0
2, 38558, Note_on_c, 0, 65, 0
2, 38562, Note_on_c, 0, 54, 0
2, 38562, Note_on_c, 0, 58, 0
2, 38565, Note_on_c, 0, 61, 0
2, 38593, Note_on_c, 0, 78, 57
2, 38597, Note_on_c, 0, 66, 62
2, 38597, Note_on_c, 0, 73, 59
2, 38598, Note_on_c, 0, 61, 38
2, 38602, Note_on_c, 0, 58, 35
2, 38603, Note_on_c, 0, 54, 25
2, 38618, Note_on_c, 0, 73, 0
2, 38620, Note_on_c, 0, 54, 0
2, 38623, Note_on_c, 0, 78, 0
2, 38624, Note_on_c, 0, 66, 0
2, 38626, Note_on_c, 0, 61, 0
2, 38626, Control_c, 0, 64, 0
2, 38639, Note_on_c, 0, 54, 23
2, 38641, Note_on_c, 0, 77, 49
2, 38643, Note_on_c, 0, 64, 30
2, 38643, Note_on_c, 0, 72, 47
2, 38644, Note_on_c, 0, 65, 37
2, 38647, Note_on_c, 0, 60, 36
2, 38664, Control_c, 0, 64, 127
2, 38681, Note_on_c, 0, 64, 0
2, 38682, Note_on_c, 0, 60, 0
2, 38686, Note_on_c, 0, 54, 0
2, 38690, Note_on_c, 0, 58, 0
2, 38692, Note_on_c, 0, 65, 0
2, 38693, Note_on_c, 0, 72, 0
2, 38702, Note_on_c, 0, 77, 0
2, 38732, Note_on_c, 0, 58, 19
2, 38744, Note_on_c, 0, 58, 0
2, 38748, Control_c, 0, 64, 0
2, 38756, Note_on_c, 0, 54, 64
2, 38758, Note_on_c, 0, 58, 35
2, 38758, Note_on_c, 0, 79, 61
2, 38759, Note_on_c, 0, 64, 62
2, 38759, Note_on_c, 0, 67, 62
2, 38761, Note_on_c, 0, 60, 54
2, 38762, Note_on_c, 0, 74, 46
2, 38784, Control_c, 0, 64, 127
2, 38801, Note_on_c, 0, 79, 0
2, 38803, Note_on_c, 0, 67, 0
2, 38804, Note_on_c, 0, 74, 0
2, 38817, Note_on_c, 0, 64, 0
2, 38822, Note_on_c, 0, 58, 0
2, 38823, Note_on_c, 0, 60, 0
2, 38824, Note_on_c, 0, 54, 0
2, 38837, Note_on_c, 0, 64, 67
2, 38839, Note_on_c, 0, 80, 73
2, 38840, Note_on_c, 0, 53, 58
2, 38840, Note_on_c, 0, 60, 64
2, 38841, Note_on_c, 0, 57, 68
2, 38841, Note_on_c, 0, 68, 77
2, 38841, Note_on_c, 0, 75, 75
2, 38842, Control_c, 0, 64, 0
2, 38873, Control_c, 0, 64, 127
2, 38891, Note_on_c, 0, 68, 0
2, 38896, Note_on_c, 0, 53, 0
2, 38898, Note_on_c, 0, 80, 0
2, 38898, Note_on_c, 0, 64, 0
2, 38898, Note_on_c, 0, 75, 0
2, 38901, Note_on_c, 0, 57, 0
2, 38904, Note_on_c, 0, 60, 0
2, 38918, Note_on_c, 0, 82, 71
2, 38920, Note_on_c, 0, 70, 62
2, 38920, Note_on_c, 0, 64, 57
2, 38921, Note_on_c, 0, 75, 48
2, 38923, Note_on_c, 0, 57, 37
2, 38924, Note_on_c, 0, 60, 60
2, 38924, Note_on_c, 0, 53, 38
2, 38934, Note_on_c, 0, 60, 0
2, 38937, Note_on_c, 0, 75, 0
2, 38937, Note_on_c, 0, 70, 0
2, 38937, Note_on_c, 0, 64, 0
2, 38937, Note_on_c, 0, 53, 0
2, 38940, Note_on_c, 0, 57, 0
2, 38944, Note_on_c, 0, 82, 0
2, 38956, Note_on_c, 0, 83, 73
2, 38960, Note_on_c, 0, 71, 33
2, 38960, Note_on_c, 0, 60, 66
2, 38960, Note_on_c, 0, 64, 51
2, 38961, Note_on_c, 0, 57, 45
2, 38961, Note_on_c, 0, 53, 34
2, 38966, Note_on_c, 0, 76, 39
2, 38969, Note_on_c, 0, 71, 0
2, 38972, Note_on_c, 0, 53, 0
2, 38974, Note_on_c, 0, 83, 0
2, 38974, Note_on_c, 0, 76, 0
2, 38975, Note_on_c, 0, 64, 0
2, 38978, Control_c, 0, 64, 0
2, 38980, Note_on_c, 0, 60, 0
2, 38981, Note_on_c, 0, 57, 0
2, 38996, Note_on_c, 0, 84, 74
2, 38997, Note_on_c, 0, 64, 58
2, 38997, Note_on_c, 0, 72, 63
2, 38998, Note_on_c, 0, 60, 67
2, 38998, Note_on_c, 0, 78, 34
2, 39000, Note_on_c, 0, 57, 64
2, 39001, Note_on_c, 0, 53, 48
2, 39008, Note_on_c, 0, 78, 0
2, 39012, Note_on_c, 0, 72, 0
2, 39014, Note_on_c, 0, 84, 0
2, 39016, Note_on_c, 0, 60, 0
2, 39016, Note_on_c, 0, 64, 0
2, 39021, Note_on_c, 0, 53, 0
2, 39024, Note_on_c, 0, 57, 0
2, 39080, Note_on_c, 0, 85, 77
2, 39081, Note_on_c, 0, 73, 82
2, 39084, Note_on_c, 0, 64, 71
2, 39084, Note_on_c, 0, 59, 60
2, 39086, Note_on_c, 0, 53, 47
2, 39086, Note_on_c, 0, 57, 51
2, 39098, Note_on_c, 0, 53, 0
2, 39101, Note_on_c, 0, 64, 0
2, 39101, Note_on_c, 0, 85, 0
2, 39102, Note_on_c, 0, 73, 0
2, 39113, Note_on_c, 0, 53, 18
2, 39116, Note_on_c, 0, 64, 41
2, 39121, Control_c, 0, 64, 127
2, 39121, Note_on_c, 0, 86, 46
2, 39121, Note_on_c, 0, 74, 32
2, 39125, Note_on_c, 0, 82, 27
2, 39125, Note_on_c, 0, 79, 34
2, 39134, Note_on_c, 0, 79, 0
2, 39136, Note_on_c, 0, 74, 0
2, 39137, Note_on_c, 0, 82, 0
2, 39142, Note_on_c, 0, 53, 0
2, 39142, Note_on_c, 0, 64, 0
2, 39144, Note_on_c, 0, 57, 0
2, 39144, Note_on_c, 0, 86, 0
2, 39148, Note_on_c, 0, 59, 0
2, 39200, Note_on_c, 0, 64, 68
2, 39200, Note_on_c, 0, 88, 80
2, 39200, Note_on_c, 0, 76, 80
2, 39200, Note_on_c, 0, 59, 54
2, 39202, Note_on_c, 0, 53, 47
2, 39202, Note_on_c, 0, 82, 48
2, 39205, Note_on_c, 0, 57, 30
2, 39206, Note_on_c, 0, 64, 0
2, 39209, Note_on_c, 0, 53, 0
2, 39209, Note_on_c, 0, 82, 0
2, 39210, Note_on_c, 0, 59, 0
2, 39213, Note_on_c, 0, 88, 0
2, 39213, Note_on_c, 0, 57, 0
2, 39214, Note_on_c, 0, 76, 0
2, 39223, Control_c, 0, 64, 0
2, 39235, Note_on_c, 0, 59, 41
2, 39236, Note_on_c, 0, 53, 36
2, 39236, Note_on_c, 0, 64, 49
2, 39239, Note_on_c, 0, 57, 31
2, 39241, Note_on_c, 0, 89, 50
2, 39241, Note_on_c, 0, 77, 51
2, 39242, Note_on_c, 0, 88, 53
2, 39245, Note_on_c, 0, 64, 0
2, 39247, Note_on_c, 0, 53, 0
2, 39249, Note_on_c, 0, 88, 0
2, 39250, Note_on_c, 0, 57, 0
2, 39250, Note_on_c, 0, 77, 0
2, 39254, Note_on_c, 0, 59, 0
2, 39255, Note_on_c, 0, 89, 0
2, 39305, Control_c, 0, 64, 127
2, 39318, Note_on_c, 0, 78, 75
2, 39318, Note_on_c, 0, 90, 75
2, 39318, Note_on_c, 0, 59, 53
2, 39320, Note_on_c, 0, 53, 47
2, 39321, Note_on_c, 0, 64, 38
2, 39322, Note_on_c, 0, 85, 49
2, 39328, Note_on_c, 0, 53, 0
2, 39329, Note_on_c, 0, 64, 0
2, 39329, Note_on_c, 0, 85, 0
2, 39331, Note_on_c, 0, 59, 0
2, 39332, Note_on_c, 0, 78, 0
2, 39338, Note_on_c, 0, 90, 0
2, 39345, Control_c, 0, 64, 0
2, 39354, Note_on_c, 0, 87, 63
2, 39355, Note_on_c, 0, 59, 47
2, 39355, Note_on_c, 0, 91, 68
2, 39355, Note_on_c, 0, 64, 58
2, 39356, Note_on_c, 0, 53, 57
2, 39356, Note_on_c, 0, 79, 52
2, 39360, Note_on_c, 0, 57, 39
2, 39362, Note_on_c, 0, 81, 40
2, 39362, Note_on_c, 0, 89, 48
2, 39363, Note_on_c, 0, 64, 0
2, 39368, Note_on_c, 0, 57, 0
2, 39370, Note_on_c, 0, 81, 0
2, 39370, Note_on_c, 0, 87, 0
2, 39372, Note_on_c, 0, 59, 0
2, 39372, Note_on_c, 0, 89, 0
2, 39375, Note_on_c, 0, 53, 0
2, 39380, Note_on_c, 0, 79, 0
2, 39382, Note_on_c, 0, 91, 0
2, 39384, Control_c, 0, 64, 127
2, 39437, Note_on_c, 0, 43, 90
2, 39438, Note_on_c, 0, 55, 101
2, 39454, Control_c, 0, 64, 0
2, 39471, Note_on_c, 0, 43, 0
2, 39484, Note_on_c, 0, 43, 79
2, 39486, Control_c, 0, 64, 127
2, 39532, Note_on_c, 0, 43, 0
2, 39533, Note_on_c, 0, 55, 0
2, 39563, Note_on_c, 0, 43, 90
2, 39563, Note_on_c, 0, 55, 105
2, 39568, Control_c, 0, 64, 0
2, 39590, Control_c, 0, 64, 127
2, 39597, Note_on_c, 0, 43, 0
2, 39608, Note_on_c, 0, 55, 0
2, 39683, Note_on_c, 0, 65, 57
2, 39684, Note_on_c, 0, 55, 45
2, 39686, Note_on_c, 0, 60, 49
2, 39686, Note_on_c, 0, 86, 60
2, 39688, Note_on_c, 0, 74, 58
2, 39689, Note_on_c, 0, 65, 0
2, 39689, Note_on_c, 0, 57, 30
2, 39690, Note_on_c, 0, 81, 43
2, 39693, Note_on_c, 0, 55, 0
2, 39693, Note_on_c, 0, 60, 0
2, 39694, Note_on_c, 0, 74, 0
2, 39698, Note_on_c, 0, 57, 0
2, 39698, Note_on_c, 0, 81, 0
2, 39702, Note_on_c, 0, 86, 0
2, 39718, Note_on_c, 0, 55, 64
2, 39719, Note_on_c, 0, 65, 72
2, 39720, Control_c, 0, 64, 0
2, 39720, Note_on_c, 0, 57, 43
2, 39721, Note_on_c, 0, 60, 57
2, 39723, Note_on_c, 0, 88, 66
2, 39724, Note_on_c, 0, 76, 54
2, 39727, Note_on_c, 0, 83, 50
2, 39736, Note_on_c, 0, 65, 0
2, 39739, Note_on_c, 0, 76, 0
2, 39740, Note_on_c, 0, 60, 0
2, 39740, Note_on_c, 0, 83, 0
2, 39742, Note_on_c, 0, 88, 0
2, 39745, Note_on_c, 0, 57, 0
2, 39749, Note_on_c, 0, 55, 0
2, 39780, Control_c, 0, 64, 127
2, 39817, Control_c, 0, 64, 0
2, 39836, Note_on_c, 0, 51, 81
2, 39836, Note_on_c, 0, 62, 90
2, 39837, Note_on_c, 0, 57, 79
2, 39840, Note_on_c, 0, 89, 88
2, 39840, Note_on_c, 0, 77, 89
2, 39840, Note_on_c, 0, 84, 87
2, 39884, Note_on_c, 0, 62, 0
2, 39885, Note_on_c, 0, 57, 0
2, 39889, Note_on_c, 0, 77, 0
2, 39891, Note_on_c, 0, 51, 0
2, 39891, Note_on_c, 0, 89, 0
2, 39892, Note_on_c, 0, 84, 0
2, 39955, Note_on_c, 0, 51, 83
2, 39955, Note_on_c, 0, 57, 83
2, 39956, Note_on_c, 0, 62, 90
2, 39957, Note_on_c, 0, 89, 87
2, 39958, Note_on_c, 0, 77, 90
2, 39958, Note_on_c, 0, 84, 88
2, 40011, Note_on_c, 0, 77, 0
2, 40013, Note_on_c, 0, 57, 0
2, 40014, Note_on_c, 0, 89, 0
2, 40014, Note_on_c, 0, 51, 0
2, 40014, Note_on_c, 0, 84, 0
2, 40014, Note_on_c, 0, 62, 0
2, 40075, Note_on_c, 0, 63, 86
2, 40076, Note_on_c, 0, 52, 87
2, 40076, Note_on_c, 0, 58, 72
2, 40080, Note_on_c, 0, 78, 82
2, 40080, Note_on_c, 0, 90, 83
2, 40080, Note_on_c, 0, 85, 81
2, 40124, Note_on_c, 0, 52, 0
2, 40127, Note_on_c, 0, 63, 0
2, 40129, Note_on_c, 0, 78, 0
2, 40129, Note_on_c, 0, 58, 0
2, 40130, Note_on_c, 0, 85, 0
2, 40132, Note_on_c, 0, 90, 0
2, 40194, Note_on_c, 0, 63, 90
2, 40195, Note_on_c, 0, 52, 89
2, 40195, Note_on_c, 0, 78, 77
2, 40196, Note_on_c, 0, 58, 73
2, 40196, Note_on_c, 0, 90, 79
2, 40196, Note_on_c, 0, 85, 79
2, 40218, Control_c, 0, 64, 127
2, 40236, Note_on_c, 0, 85, 0
2, 40237, Note_on_c, 0, 52, 0
2, 40238, Note_on_c, 0, 78, 0
2, 40242, Note_on_c, 0, 90, 0
2, 40243, Note_on_c, 0, 63, 0
2, 40245, Note_on_c, 0, 58, 0
2, 40276, Control_c, 0, 64, 0
2, 40314, Note_on_c, 0, 91, 83
2, 40315, Note_on_c, 0, 59, 69
2, 40315, Note_on_c, 0, 79, 73
2, 40316, Note_on_c, 0, 86, 76
2, 40316, Note_on_c, 0, 64, 82
2, 40316, Note_on_c, 0, 53, 75
2, 40323, Control_c, 0, 64, 127
2, 40328, Note_on_c, 0, 53, 0
2, 40330, Note_on_c, 0, 64, 0
2, 40331, Note_on_c, 0, 59, 0
2, 40364, Note_on_c, 0, 91, 0
2, 40364, Note_on_c, 0, 86, 0
2, 40368, Note_on_c, 0, 79, 0
2, 40398, Note_on_c, 0, 55, 110
2, 40398, Note_on_c, 0, 43, 95
2, 40403, Note_on_c, 0, 44, 56
2, 40407, Control_c, 0, 64, 0
2, 40409, Note_on_c, 0, 44, 0
2, 40445, Control_c, 0, 64, 127
2, 40528, Note_on_c, 0, 50, 44
2, 40545, Control_c, 0, 64, 0
2, 40548, Note_on_c, 0, 61, 56
2, 40549, Note_on_c, 0, 63, 48
2, 40549, Note_on_c, 0, 67, 49
2, 40550, Note_on_c, 0, 59, 60
2, 40554, Note_on_c, 0, 50, 0
2, 40590, Note_on_c, 0, 61, 0
2, 40604, Note_on_c, 0, 59, 0
2, 40610, Note_on_c, 0, 63, 0
2, 40610, Note_on_c, 0, 67, 0
2, 40626, Note_on_c, 0, 55, 0
2, 40644, Note_on_c, 0, 43, 0
2, 40647, Note_on_c, 0, 50, 34
2, 40658, Note_on_c, 0, 50, 0
2, 40671, Note_on_c, 0, 61, 57
2, 40672, Note_on_c, 0, 59, 68
2, 40672, Note_on_c, 0, 63, 55
2, 40674, Note_on_c, 0, 67, 52
2, 40697, Note_on_c, 0, 61, 0
2, 40720, Control_c, 0, 64, 127
2, 40723, Note_on_c, 0, 59, 0
2, 40726, Note_on_c, 0, 67, 0
2, 40735, Note_on_c, 0, 63, 0
2, 40753, Note_on_c, 0, 65, 62
2, 40754, Note_on_c, 0, 62, 45
2, 40754, Note_on_c, 0, 57, 64
2, 40756, Note_on_c, 0, 60, 63
2, 40757, Note_on_c, 0, 41, 64
2, 40758, Control_c, 0, 64, 0
2, 40770, Note_on_c, 0, 57, 0
2, 40778, Note_on_c, 0, 60, 0
2, 40784, Note_on_c, 0, 62, 0
2, 40787, Note_on_c, 0, 65, 0
2, 40832, Control_c, 0, 64, 127
2, 40846, Note_on_c, 0, 41, 0
2, 40864, Note_on_c, 0, 29, 64
2, 40871, Note_on_c, 0, 29, 0
2, 40908, Control_c, 0, 64, 0
2, 40996, Note_on_c, 0, 77, 65
2, 40996, Note_on_c, 0, 62, 72
2, 40996, Note_on_c, 0, 51, 67
2, 40996, Note_on_c, 0, 72, 69
2, 41001, Note_on_c, 0, 57, 54
2, 41022, Note_on_c, 0, 77, 0
2, 41024, Note_on_c, 0, 72, 0
2, 41025, Note_on_c, 0, 62, 0
2, 41031, Note_on_c, 0, 57, 0
2, 41034, Note_on_c, 0, 51, 0
2, 41112, Note_on_c, 0, 78, 62
2, 41113, Note_on_c, 0, 63, 67
2, 41115, Note_on_c, 0, 52, 66
2, 41116, Note_on_c, 0, 73, 64
2, 41117, Note_on_c, 0, 58, 56
2, 41141, Note_on_c, 0, 52, 0
2, 41143, Note_on_c, 0, 78, 0
2, 41143, Note_on_c, 0, 63, 0
2, 41150, Note_on_c, 0, 73, 0
2, 41150, Note_on_c, 0, 58, 0
2, 41169, Note_on_c, 0, 66, 23
2, 41178, Note_on_c, 0, 66, 0
2, 41234, Note_on_c, 0, 59, 68
2, 41234, Note_on_c, 0, 53, 71
2, 41234, Note_on_c, 0, 79, 72
2, 41234, Note_on_c, 0, 64, 75
2, 41235, Note_on_c, 0, 67, 68
2, 41249, Note_on_c, 0, 64, 0
2, 41257, Note_on_c, 0, 67, 0
2, 41259, Note_on_c, 0, 79, 0
2, 41259, Note_on_c, 0, 59, 0
2, 41261, Note_on_c, 0, 53, 0
2, 41356, Note_on_c, 0, 43, 57
2, 41358, Note_on_c, 0, 55, 71
2, 41366, Note_on_c, 0, 43, 0
2, 41372, Note_on_c, 0, 55, 0
2, 41410, Note_on_c, 0, 65, 31
2, 41456, Note_on_c, 0, 65, 0
2, 41488, Note_on_c, 0, 65, 55
2, 41494, Note_on_c, 0, 55, 20
2, 41495, Note_on_c, 0, 65, 0
2, 41497, Note_on_c, 0, 57, 27
2, 41498, Note_on_c, 0, 60, 26
2, 41502, Note_on_c, 0, 55, 0
2, 41506, Note_on_c, 0, 60, 0
2, 41509, Note_on_c, 0, 57, 0
2, 41541, Note_on_c, 0, 73, 31
2, 41562, Note_on_c, 0, 73, 0
2, 41570, Note_on_c, 0, 74, 33
2, 41595, Note_on_c, 0, 74, 0
2, 41607, Note_on_c, 0, 65, 60
2, 41612, Note_on_c, 0, 76, 74
2, 41612, Note_on_c, 0, 60, 53
2, 41615, Note_on_c, 0, 55, 34
2, 41629, Note_on_c, 0, 65, 0
2, 41635, Note_on_c, 0, 76, 0
2, 41639, Note_on_c, 0, 60, 0
2, 41642, Note_on_c, 0, 55, 0
2, 41653, Note_on_c, 0, 79, 70
2, 41710, Control_c, 0, 64, 127
2, 41713, Note_on_c, 0, 79, 0
2, 41728, Note_on_c, 0, 76, 38
2, 41748, Note_on_c, 0, 76, 0
2, 41750, Control_c, 0, 64, 0
2, 41758, Note_on_c, 0, 64, 51
2, 41763, Note_on_c, 0, 57, 33
2, 41763, Note_on_c, 0, 59, 44
2, 41767, Note_on_c, 0, 77, 54
2, 41795, Note_on_c, 0, 59, 0
2, 41796, Note_on_c, 0, 57, 0
2, 41801, Note_on_c, 0, 64, 0
2, 41832, Note_on_c, 0, 77, 0
2, 41882, Note_on_c, 0, 64, 38
2, 41884, Note_on_c, 0, 53, 32
2, 41884, Note_on_c, 0, 59, 38
2, 41885, Note_on_c, 0, 79, 47
2, 41885, Note_on_c, 0, 67, 48
2, 41889, Note_on_c, 0, 57, 32
2, 41922, Note_on_c, 0, 67, 0
2, 41926, Note_on_c, 0, 79, 0
2, 41931, Note_on_c, 0, 64, 0
2, 41931, Note_on_c, 0, 57, 0
2, 41936, Note_on_c, 0, 53, 0
2, 41939, Note_on_c, 0, 59, 0
2, 42003, Note_on_c, 0, 68, 64
2, 42006, Note_on_c, 0, 64, 40
2, 42008, Note_on_c, 0, 59, 35
2, 42011, Note_on_c, 0, 81, 32
2, 42012, Note_on_c, 0, 74, 32
2, 42013, Note_on_c, 0, 57, 26
2, 42019, Note_on_c, 0, 68, 0
2, 42023, Note_on_c, 0, 69, 49
2, 42035, Note_on_c, 0, 69, 0
2, 42037, Note_on_c, 0, 74, 0
2, 42056, Note_on_c, 0, 81, 0
2, 42063, Note_on_c, 0, 64, 0
2, 42067, Note_on_c, 0, 57, 0
2, 42073, Control_c, 0, 64, 127
2, 42074, Note_on_c, 0, 59, 0
2, 42109, Control_c, 0, 64, 0
2, 42128, Note_on_c, 0, 64, 45
2, 42131, Note_on_c, 0, 59, 35
2, 42135, Note_on_c, 0, 57, 31
2, 42153, Note_on_c, 0, 57, 0
2, 42154, Note_on_c, 0, 59, 0
2, 42154, Note_on_c, 0, 64, 0
2, 42212, Note_on_c, 0, 84, 81
2, 42215, Note_on_c, 0, 72, 70
2, 42215, Note_on_c, 0, 79, 71
2, 42239, Note_on_c, 0, 79, 0
2, 42241, Note_on_c, 0, 84, 0
2, 42243, Note_on_c, 0, 59, 41
2, 42245, Note_on_c, 0, 64, 44
2, 42248, Note_on_c, 0, 72, 0
2, 42250, Note_on_c, 0, 53, 31
2, 42279, Note_on_c, 0, 53, 0
2, 42284, Note_on_c, 0, 64, 0
2, 42286, Note_on_c, 0, 83, 36
2, 42287, Note_on_c, 0, 75, 43
2, 42290, Note_on_c, 0, 71, 28
2, 42299, Note_on_c, 0, 59, 0
2, 42318, Note_on_c, 0, 75, 0
2, 42319, Note_on_c, 0, 76, 45
2, 42326, Note_on_c, 0, 71, 0
2, 42333, Note_on_c, 0, 83, 0
2, 42334, Note_on_c, 0, 76, 0
2, 42358, Note_on_c, 0, 64, 36
2, 42359, Note_on_c, 0, 59, 41
2, 42365, Note_on_c, 0, 53, 24
2, 42374, Note_on_c, 0, 53, 0
2, 42379, Note_on_c, 0, 64, 0
2, 42387, Note_on_c, 0, 59, 0
2, 42445, Note_on_c, 0, 79, 66
2, 42445, Note_on_c, 0, 67, 62
2, 42446, Note_on_c, 0, 74, 53
2, 42461, Note_on_c, 0, 67, 0
2, 42465, Note_on_c, 0, 74, 0
2, 42472, Note_on_c, 0, 79, 0
2, 42476, Note_on_c, 0, 59, 30
2, 42478, Note_on_c, 0, 62, 28
2, 42480, Note_on_c, 0, 53, 25
2, 42496, Note_on_c, 0, 62, 0
2, 42498, Note_on_c, 0, 53, 0
2, 42517, Note_on_c, 0, 83, 57
2, 42521, Note_on_c, 0, 59, 0
2, 42522, Note_on_c, 0, 71, 26
2, 42549, Note_on_c, 0, 71, 0
2, 42558, Control_c, 0, 64, 127
2, 42559, Note_on_c, 0, 83, 0
2, 42588, Control_c, 0, 64, 0
2, 42596, Note_on_c, 0, 82, 74
2, 42598, Note_on_c, 0, 62, 28
2, 42598, Note_on_c, 0, 70, 65
2, 42599, Note_on_c, 0, 59, 34
2, 42645, Note_on_c, 0, 59, 0
2, 42646, Note_on_c, 0, 62, 0
2, 42654, Note_on_c, 0, 70, 0
2, 42654, Note_on_c, 0, 82, 0
2, 42675, Control_c, 0, 64, 127
2, 42682, Note_on_c, 0, 76, 51
2, 42683, Note_on_c, 0, 81, 64
2, 42685, Note_on_c, 0, 69, 43
2, 42705, Control_c, 0, 64, 0
2, 42718, Note_on_c, 0, 59, 56
2, 42719, Note_on_c, 0, 64, 42
2, 42726, Note_on_c, 0, 64, 0
2, 42730, Note_on_c, 0, 59, 0
2, 42801, Note_on_c, 0, 43, 81
2, 42803, Control_c, 0, 64, 127
2, 42832, Note_on_c, 0, 43, 0
2, 42833, Control_c, 0, 64, 0
2, 42847, Note_on_c, 0, 55, 73
2, 42862, Note_on_c, 0, 55, 0
2, 42913, Control_c, 0, 64, 127
2, 42916, Note_on_c, 0, 76, 0
2, 42922, Note_on_c, 0, 81, 0
2, 42923, Note_on_c, 0, 69, 0
2, 42927, Note_on_c, 0, 59, 85
2, 42948, Note_on_c, 0, 59, 0
2, 42958, Control_c, 0, 64, 0
2, 43038, Control_c, 0, 64, 127
2, 43038, Note_on_c, 0, 49, 88
2, 43054, Note_on_c, 0, 49, 0
2, 43079, Control_c, 0, 64, 0
2, 43083, Note_on_c, 0, 63, 55
2, 43085, Note_on_c, 0, 39, 73
2, 43087, Note_on_c, 0, 53, 52
2, 43088, Note_on_c, 0, 56, 50
2, 43090, Note_on_c, 0, 59, 47
2, 43095, Note_on_c, 0, 37, 37
2, 43096, Note_on_c, 0, 27, 29
2, 43103, Note_on_c, 0, 27, 0
2, 43112, Note_on_c, 0, 39, 0
2, 43146, Note_on_c, 0, 37, 0
2, 43160, Note_on_c, 0, 24, 80
2, 43163, Note_on_c, 0, 53, 0
2, 43166, Note_on_c, 0, 25, 45
2, 43168, Note_on_c, 0, 59, 0
2, 43171, Note_on_c, 0, 56, 0
2, 43172, Note_on_c, 0, 63, 0
2, 43173, Note_on_c, 0, 25, 0
2, 43185, Note_on_c, 0, 24, 0
2, 43207, Note_on_c, 0, 60, 46
2, 43208, Note_on_c, 0, 52, 30
2, 43210, Note_on_c, 0, 57, 29
2, 43228, Note_on_c, 0, 52, 0
2, 43230, Note_on_c, 0, 57, 0
2, 43240, Note_on_c, 0, 60, 0
2, 43309, Note_on_c, 0, 67, 41
2, 43318, Note_on_c, 0, 52, 20
2, 43320, Note_on_c, 0, 55, 22
2, 43321, Note_on_c, 0, 57, 33
2, 43322, Note_on_c, 0, 60, 15
2, 43330, Note_on_c, 0, 52, 0
2, 43333, Note_on_c, 0, 60, 0
2, 43335, Note_on_c, 0, 57, 0
2, 43336, Note_on_c, 0, 55, 0
2, 43403, Note_on_c, 0, 69, 45
2, 43408, Note_on_c, 0, 67, 0
2, 43429, Note_on_c, 0, 69, 0
2, 43430, Note_on_c, 0, 60, 31
2, 43433, Note_on_c, 0, 57, 33
2, 43440, Note_on_c, 0, 72, 53
2, 43440, Note_on_c, 0, 55, 24
2, 43463, Note_on_c, 0, 55, 0
2, 43479, Note_on_c, 0, 57, 0
2, 43482, Note_on_c, 0, 60, 0
2, 43507, Note_on_c, 0, 72, 0
2, 43525, Note_on_c, 0, 69, 44
2, 43538, Note_on_c, 0, 69, 0
2, 43548, Note_on_c, 0, 60, 39
2, 43552, Note_on_c, 0, 57, 34
2, 43556, Note_on_c, 0, 55, 25
2, 43559, Note_on_c, 0, 72, 48
2, 43574, Note_on_c, 0, 55, 0
2, 43578, Note_on_c, 0, 57, 0
2, 43589, Note_on_c, 0, 60, 0
2, 43645, Note_on_c, 0, 72, 0
2, 43676, Note_on_c, 0, 72, 50
2, 43681, Note_on_c, 0, 65, 33
2, 43684, Note_on_c, 0, 60, 41
2, 43685, Note_on_c, 0, 61, 43
2, 43710, Note_on_c, 0, 60, 0
2, 43713, Note_on_c, 0, 61, 0
2, 43713, Note_on_c, 0, 72, 0
2, 43716, Note_on_c, 0, 65, 0
2, 43795, Note_on_c, 0, 65, 36
2, 43797, Note_on_c, 0, 60, 40
2, 43797, Note_on_c, 0, 61, 26
2, 43797, Note_on_c, 0, 55, 30
2, 43838, Note_on_c, 0, 61, 0
2, 43839, Note_on_c, 0, 65, 0
2, 43839, Note_on_c, 0, 60, 0
2, 43840, Note_on_c, 0, 55, 0
2, 43917, Note_on_c, 0, 65, 34
2, 43918, Note_on_c, 0, 61, 33
2, 43920, Note_on_c, 0, 60, 44
2, 43920, Note_on_c, 0, 55, 29
2, 43962, Note_on_c, 0, 60, 0
2, 43968, Note_on_c, 0, 55, 0
2, 43968, Note_on_c, 0, 65, 0
2, 43972, Note_on_c, 0, 61, 0
2, 44038, Note_on_c, 0, 65, 41
2, 44039, Note_on_c, 0, 61, 31
2, 44042, Note_on_c, 0, 55, 33
2, 44043, Note_on_c, 0, 60, 40
2, 44080, Note_on_c, 0, 60, 0
2, 44089, Note_on_c, 0, 65, 0
2, 44093, Note_on_c, 0, 55, 0
2, 44102, Note_on_c, 0, 61, 0
2, 44154, Note_on_c, 0, 53, 35
2, 44162, Note_on_c, 0, 57, 33
2, 44162, Note_on_c, 0, 60, 26
2, 44163, Note_on_c, 0, 64, 27
2, 44202, Note_on_c, 0, 64, 0
2, 44205, Note_on_c, 0, 57, 0
2, 44206, Note_on_c, 0, 60, 0
2, 44209, Note_on_c, 0, 53, 0
2, 44284, Note_on_c, 0, 64, 29
2, 44286, Note_on_c, 0, 53, 22
2, 44286, Note_on_c, 0, 60, 36
2, 44287, Note_on_c, 0, 57, 40
2, 44314, Note_on_c, 0, 64, 0
2, 44322, Note_on_c, 0, 60, 0
2, 44328, Note_on_c, 0, 53, 0
2, 44330, Note_on_c, 0, 57, 0
2, 44378, Note_on_c, 0, 74, 78
2, 44399, Note_on_c, 0, 64, 35
2, 44402, Note_on_c, 0, 74, 0
2, 44404, Note_on_c, 0, 57, 35
2, 44405, Note_on_c, 0, 60, 35
2, 44412, Note_on_c, 0, 64, 0
2, 44435, Note_on_c, 0, 60, 0
2, 44454, Note_on_c, 0, 57, 0
2, 44471, Note_on_c, 0, 84, 80
2, 44472, Note_on_c, 0, 72, 71
2, 44500, Note_on_c, 0, 84, 0
2, 44501, Note_on_c, 0, 72, 0
2, 44512, Note_on_c, 0, 64, 35
2, 44516, Note_on_c, 0, 60, 38
2, 44518, Note_on_c, 0, 57, 35
2, 44521, Note_on_c, 0, 64, 0
2, 44530, Note_on_c, 0, 60, 0
2, 44543, Note_on_c, 0, 57, 0
2, 44550, Note_on_c, 0, 83, 79
2, 44552, Note_on_c, 0, 71, 67
2, 44612, Note_on_c, 0, 71, 0
2, 44614, Note_on_c, 0, 83, 0
2, 44637, Note_on_c, 0, 83, 70
2, 44641, Note_on_c, 0, 71, 62
2, 44653, Note_on_c, 0, 76, 19
2, 44683, Note_on_c, 0, 76, 0
2, 44697, Note_on_c, 0, 71, 0
2, 44702, Note_on_c, 0, 83, 0
2, 44726, Note_on_c, 0, 54, 67
2, 44726, Note_on_c, 0, 83, 60
2, 44727, Note_on_c, 0, 60, 60
2, 44727, Note_on_c, 0, 71, 62
2, 44727, Note_on_c, 0, 64, 61
2, 44728, Note_on_c, 0, 80, 38
2, 44729, Note_on_c, 0, 76, 57
2, 44756, Note_on_c, 0, 71, 0
2, 44759, Note_on_c, 0, 76, 0
2, 44760, Note_on_c, 0, 64, 0
2, 44761, Note_on_c, 0, 83, 0
2, 44763, Note_on_c, 0, 54, 0
2, 44764, Note_on_c, 0, 80, 0
2, 44765, Note_on_c, 0, 60, 0
2, 44779, Note_on_c, 0, 83, 41
2, 44780, Note_on_c, 0, 71, 32
2, 44782, Note_on_c, 0, 80, 38
2, 44782, Note_on_c, 0, 54, 25
2, 44782, Control_c, 0, 64, 127
2, 44783, Note_on_c, 0, 64, 36
2, 44783, Note_on_c, 0, 76, 36
2, 44785, Note_on_c, 0, 60, 35
2, 44795, Note_on_c, 0, 60, 0
2, 44795, Note_on_c, 0, 71, 0
2, 44796, Note_on_c, 0, 64, 0
2, 44796, Note_on_c, 0, 76, 0
2, 44798, Note_on_c, 0, 54, 0
2, 44799, Note_on_c, 0, 83, 0
2, 44801, Note_on_c, 0, 80, 0
2, 44804, Control_c, 0, 64, 0
2, 44853, Note_on_c, 0, 71, 73
2, 44853, Note_on_c, 0, 80, 53
2, 44853, Note_on_c, 0, 83, 71
2, 44854, Note_on_c, 0, 54, 70
2, 44855, Note_on_c, 0, 76, 64
2, 44856, Note_on_c, 0, 60, 55
2, 44856, Note_on_c, 0, 64, 54
2, 44863, Note_on_c, 0, 60, 0
2, 44865, Note_on_c, 0, 64, 0
2, 44868, Note_on_c, 0, 71, 0
2, 44872, Note_on_c, 0, 54, 0
2, 44873, Note_on_c, 0, 76, 0
2, 44876, Note_on_c, 0, 83, 0
2, 44878, Note_on_c, 0, 80, 0
2, 44897, Note_on_c, 0, 54, 50
2, 44898, Note_on_c, 0, 64, 44
2, 44899, Note_on_c, 0, 83, 55
2, 44900, Note_on_c, 0, 60, 49
2, 44901, Note_on_c, 0, 80, 34
2, 44902, Note_on_c, 0, 71, 49
2, 44904, Note_on_c, 0, 76, 46
2, 44916, Control_c, 0, 64, 127
2, 44926, Note_on_c, 0, 64, 0
2, 44931, Note_on_c, 0, 60, 0
2, 44938, Note_on_c, 0, 54, 0
2, 44942, Note_on_c, 0, 83, 0
2, 44943, Note_on_c, 0, 71, 0
2, 44946, Note_on_c, 0, 80, 0
2, 44946, Note_on_c, 0, 76, 0
2, 44974, Note_on_c, 0, 81, 66
2, 44975, Note_on_c, 0, 76, 56
2, 44975, Note_on_c, 0, 54, 67
2, 44976, Note_on_c, 0, 62, 60
2, 44977, Note_on_c, 0, 60, 59
2, 44978, Note_on_c, 0, 69, 57
2, 44982, Control_c, 0, 64, 0
2, 45019, Control_c, 0, 64, 127
2, 45022, Note_on_c, 0, 60, 0
2, 45027, Note_on_c, 0, 54, 0
2, 45030, Note_on_c, 0, 62, 0
2, 45034, Note_on_c, 0, 81, 0
2, 45037, Note_on_c, 0, 76, 0
2, 45041, Note_on_c, 0, 69, 0
2, 45108, Control_c, 0, 64, 0
2, 45117, Note_on_c, 0, 65, 75
2, 45118, Note_on_c, 0, 79, 79
2, 45118, Note_on_c, 0, 72, 82
2, 45118, Note_on_c, 0, 67, 79
2, 45119, Note_on_c, 0, 76, 69
2, 45120, Note_on_c, 0, 55, 58
2, 45120, Note_on_c, 0, 60, 57
2, 45123, Note_on_c, 0, 57, 40
2, 45132, Note_on_c, 0, 65, 0
2, 45135, Note_on_c, 0, 57, 0
2, 45138, Note_on_c, 0, 60, 0
2, 45139, Note_on_c, 0, 55, 0
2, 45143, Control_c, 0, 64, 127
2, 45196, Note_on_c, 0, 79, 0
2, 45202, Note_on_c, 0, 43, 95
2, 45203, Note_on_c, 0, 55, 108
2, 45204, Note_on_c, 0, 76, 0
2, 45206, Note_on_c, 0, 72, 0
2, 45207, Note_on_c, 0, 67, 0
2, 45207, Note_on_c, 0, 44, 62
2, 45214, Note_on_c, 0, 44, 0
2, 45217, Control_c, 0, 64, 0
2, 45247, Control_c, 0, 64, 127
2, 45327, Note_on_c, 0, 55, 0
2, 45334, Note_on_c, 0, 50, 27
2, 45358, Note_on_c, 0, 62, 48
2, 45361, Note_on_c, 0, 57, 46
2, 45363, Note_on_c, 0, 53, 32
2, 45364, Note_on_c, 0, 60, 57
2, 45366, Control_c, 0, 64, 0
2, 45378, Note_on_c, 0, 53, 0
2, 45382, Note_on_c, 0, 50, 0
2, 45388, Note_on_c, 0, 57, 0
2, 45390, Note_on_c, 0, 60, 0
2, 45392, Note_on_c, 0, 43, 0
2, 45401, Note_on_c, 0, 62, 0
2, 45471, Note_on_c, 0, 64, 57
2, 45473, Note_on_c, 0, 43, 44
2, 45474, Note_on_c, 0, 55, 39
2, 45474, Note_on_c, 0, 60, 54
2, 45475, Note_on_c, 0, 57, 63
2, 45482, Note_on_c, 0, 55, 0
2, 45498, Note_on_c, 0, 60, 0
2, 45498, Note_on_c, 0, 57, 0
2, 45502, Note_on_c, 0, 43, 0
2, 45508, Note_on_c, 0, 64, 0
2, 45592, Note_on_c, 0, 31, 56
2, 45594, Note_on_c, 0, 43, 55
2, 45594, Note_on_c, 0, 65, 59
2, 45595, Note_on_c, 0, 57, 62
2, 45595, Note_on_c, 0, 62, 45
2, 45597, Note_on_c, 0, 60, 59
2, 45601, Control_c, 0, 64, 127
2, 45712, Note_on_c, 0, 57, 0
2, 45717, Note_on_c, 0, 62, 0
2, 45718, Note_on_c, 0, 60, 0
2, 45723, Note_on_c, 0, 65, 0
2, 45731, Note_on_c, 0, 43, 0
2, 45731, Note_on_c, 0, 31, 0
2, 45796, Note_on_c, 0, 67, 64
2, 45798, Note_on_c, 0, 64, 62
2, 45798, Note_on_c, 0, 59, 71
2, 45798, Note_on_c, 0, 62, 68
2, 45801, Note_on_c, 0, 43, 48
2, 45807, Control_c, 0, 64, 0
2, 45817, Note_on_c, 0, 43, 0
2, 45913, Note_on_c, 0, 42, 78
2, 45913, Note_on_c, 0, 30, 69
2, 45920, Control_c, 0, 64, 127
2, 45932, Note_on_c, 0, 42, 0
2, 45932, Control_c, 0, 64, 0
2, 45936, Note_on_c, 0, 30, 0
2, 45956, Note_on_c, 0, 43, 53
2, 45959, Note_on_c, 0, 41, 58
2, 45960, Note_on_c, 0, 31, 54
2, 45966, Note_on_c, 0, 41, 0
2, 45976, Control_c, 0, 64, 127
2, 45980, Note_on_c, 0, 31, 0
2, 45982, Note_on_c, 0, 43, 0
2, 46027, Note_on_c, 0, 62, 0
2, 46030, Note_on_c, 0, 59, 0
2, 46033, Note_on_c, 0, 64, 0
2, 46036, Note_on_c, 0, 44, 99
2, 46036, Note_on_c, 0, 32, 91
2, 46037, Note_on_c, 0, 67, 0
2, 46048, Control_c, 0, 64, 0
2, 46096, Control_c, 0, 64, 127
2, 46150, Note_on_c, 0, 39, 44
2, 46157, Note_on_c, 0, 56, 91
2, 46158, Note_on_c, 0, 68, 83
2, 46162, Note_on_c, 0, 66, 53
2, 46168, Note_on_c, 0, 59, 32
2, 46168, Control_c, 0, 64, 0
2, 46169, Note_on_c, 0, 60, 28
2, 46170, Note_on_c, 0, 68, 0
2, 46172, Note_on_c, 0, 67, 55
2, 46176, Note_on_c, 0, 60, 0
2, 46178, Note_on_c, 0, 39, 0
2, 46180, Note_on_c, 0, 59, 0
2, 46200, Note_on_c, 0, 67, 0
2, 46252, Control_c, 0, 64, 127
2, 46255, Note_on_c, 0, 66, 0
2, 46266, Note_on_c, 0, 56, 0
2, 46272, Note_on_c, 0, 39, 37
2, 46286, Note_on_c, 0, 44, 0
2, 46294, Control_c, 0, 64, 0
2, 46313, Note_on_c, 0, 68, 77
2, 46315, Note_on_c, 0, 58, 77
2, 46316, Note_on_c, 0, 44, 65
2, 46317, Note_on_c, 0, 63, 64
2, 46317, Note_on_c, 0, 61, 70
2, 46325, Note_on_c, 0, 39, 0
2, 46358, Note_on_c, 0, 58, 0
2, 46362, Note_on_c, 0, 61, 0
2, 46363, Note_on_c, 0, 68, 0
2, 46371, Note_on_c, 0, 63, 0
2, 46389, Note_on_c, 0, 44, 0
2, 46398, Note_on_c, 0, 39, 43
2, 46432, Note_on_c, 0, 44, 64
2, 46433, Note_on_c, 0, 58, 88
2, 46434, Note_on_c, 0, 68, 79
2, 46434, Note_on_c, 0, 61, 74
2, 46435, Note_on_c, 0, 39, 0
2, 46435, Note_on_c, 0, 63, 64
2, 46495, Note_on_c, 0, 58, 0
2, 46499, Note_on_c, 0, 63, 0
2, 46501, Note_on_c, 0, 61, 0
2, 46514, Note_on_c, 0, 44, 0
2, 46522, Note_on_c, 0, 68, 0
2, 46525, Note_on_c, 0, 32, 0
2, 46554, Note_on_c, 0, 68, 62
2, 46556, Note_on_c, 0, 60, 79
2, 46558, Note_on_c, 0, 56, 59
2, 46558, Note_on_c, 0, 44, 78
2, 46599, Control_c, 0, 64, 127
2, 46626, Note_on_c, 0, 56, 0
2, 46628, Note_on_c, 0, 60, 0
2, 46636, Note_on_c, 0, 44, 0
2, 46638, Note_on_c, 0, 32, 80
2, 46656, Note_on_c, 0, 68, 0
2, 46657, Note_on_c, 0, 32, 0
2, 46757, Note_on_c, 0, 68, 94
2, 46757, Note_on_c, 0, 76, 87
2, 46759, Note_on_c, 0, 64, 95
2, 46759, Note_on_c, 0, 54, 85
2, 46759, Note_on_c, 0, 72, 75
2, 46760, Note_on_c, 0, 60, 84
2, 46766, Control_c, 0, 64, 0
2, 46799, Control_c, 0, 64, 127
2, 46806, Note_on_c, 0, 60, 0
2, 46818, Note_on_c, 0, 54, 0
2, 46818, Note_on_c, 0, 72, 0
2, 46820, Note_on_c, 0, 64, 0
2, 46823, Note_on_c, 0, 76, 0
2, 46830, Note_on_c, 0, 68, 0
2, 46881, Note_on_c, 0, 72, 70
2, 46882, Note_on_c, 0, 44, 86
2, 46882, Note_on_c, 0, 66, 69
2, 46884, Note_on_c, 0, 68, 67
2, 46884, Note_on_c, 0, 62, 59
2, 46885, Note_on_c, 0, 32, 80
2, 46885, Note_on_c, 0, 60, 68
2, 46888, Control_c, 0, 64, 0
2, 46906, Note_on_c, 0, 66, 0
2, 46928, Note_on_c, 0, 72, 0
2, 46928, Control_c, 0, 64, 127
2, 46929, Note_on_c, 0, 60, 0
2, 46934, Note_on_c, 0, 68, 0
2, 46935, Note_on_c, 0, 62, 0
2, 46996, Note_on_c, 0, 44, 0
2, 46997, Note_on_c, 0, 38, 55
2, 47003, Note_on_c, 0, 67, 75
2, 47004, Note_on_c, 0, 64, 76
2, 47004, Note_on_c, 0, 57, 87
2, 47005, Note_on_c, 0, 60, 90
2, 47007, Note_on_c, 0, 32, 0
2, 47007, Note_on_c, 0, 65, 74
2, 47013, Control_c, 0, 64, 0
2, 47015, Note_on_c, 0, 34, 20
2, 47024, Note_on_c, 0, 38, 0
2, 47027, Note_on_c, 0, 65, 0
2, 47040, Note_on_c, 0, 34, 0
2, 47121, Note_on_c, 0, 43, 96
2, 47121, Note_on_c, 0, 31, 92
2, 47151, Control_c, 0, 64, 127
2, 47160, Note_on_c, 0, 64, 0
2, 47177, Note_on_c, 0, 31, 0
2, 47186, Note_on_c, 0, 67, 0
2, 47193, Note_on_c, 0, 60, 0
2, 47194, Note_on_c, 0, 43, 0
2, 47201, Note_on_c, 0, 57, 0
2, 47280, Note_on_c, 0, 62, 41
2, 47281, Note_on_c, 0, 53, 57
2, 47282, Control_c, 0, 64, 0
2, 47284, Note_on_c, 0, 43, 40
2, 47284, Note_on_c, 0, 57, 43
2, 47285, Note_on_c, 0, 50, 36
2, 47286, Note_on_c, 0, 60, 50
2, 47294, Note_on_c, 0, 60, 0
2, 47299, Note_on_c, 0, 53, 0
2, 47301, Note_on_c, 0, 50, 0
2, 47305, Note_on_c, 0, 57, 0
2, 47306, Note_on_c, 0, 43, 0
2, 47314, Note_on_c, 0, 62, 0
2, 47398, Note_on_c, 0, 64, 44
2, 47400, Note_on_c, 0, 50, 36
2, 47401, Note_on_c, 0, 60, 47
2, 47402, Note_on_c, 0, 57, 53
2, 47425, Note_on_c, 0, 50, 0
2, 47427, Note_on_c, 0, 57, 0
2, 47427, Note_on_c, 0, 60, 0
2, 47438, Note_on_c, 0, 64, 0
2, 47521, Note_on_c, 0, 57, 44
2, 47522, Note_on_c, 0, 65, 45
2, 47523, Note_on_c, 0, 43, 38
2, 47525, Note_on_c, 0, 53, 40
2, 47525, Note_on_c, 0, 62, 31
2, 47525, Note_on_c, 0, 60, 47
2, 47552, Note_on_c, 0, 57, 0
2, 47553, Note_on_c, 0, 62, 0
2, 47553, Note_on_c, 0, 60, 0
2, 47561, Note_on_c, 0, 43, 0
2, 47565, Note_on_c, 0, 53, 0
2, 47574, Note_on_c, 0, 65, 0
2, 47698, Control_c, 0, 64, 127
2, 47765, Control_c, 0, 64, 0
2, 47768, Note_on_c, 0, 71, 51
2, 47772, Note_on_c, 0, 63, 60
2, 47773, Note_on_c, 0, 67, 38
2, 47777, Note_on_c, 0, 59, 38
2, 47777, Note_on_c, 0, 53, 43
2, 47803, Control_c, 0, 64, 127
2, 47856, Note_on_c, 0, 63, 0
2, 47857, Note_on_c, 0, 67, 0
2, 47865, Note_on_c, 0, 53, 0
2, 47871, Note_on_c, 0, 59, 0
2, 47872, Note_on_c, 0, 71, 0
2, 47961, Note_on_c, 0, 72, 53
2, 47964, Note_on_c, 0, 62, 39
2, 47964, Note_on_c, 0, 57, 52
2, 47965, Control_c, 0, 64, 0
2, 47966, Note_on_c, 0, 52, 53
2, 47966, Note_on_c, 0, 67, 38
2, 47980, Note_on_c, 0, 62, 0
2, 47985, Note_on_c, 0, 57, 0
2, 47990, Note_on_c, 0, 67, 0
2, 47991, Note_on_c, 0, 52, 0
2, 48000, Note_on_c, 0, 72, 0
2, 48090, Note_on_c, 0, 42, 44
2, 48092, Note_on_c, 0, 92, 52
2, 48127, Note_on_c, 0, 92, 0
2, 48135, Note_on_c, 0, 42, 0
2, 48140, Note_on_c, 0, 43, 35
2, 48144, Note_on_c, 0, 93, 39
2, 48152, Note_on_c, 0, 93, 0
2, 48172, Note_on_c, 0, 43, 0
2, 48246, Note_on_c, 0, 40, 42
2, 48250, Note_on_c, 0, 91, 40
2, 48269, Note_on_c, 0, 91, 0
2, 48270, Note_on_c, 0, 40, 0
2, 48320, Note_on_c, 0, 36, 54
2, 48321, Note_on_c, 0, 87, 55
2, 48329, Note_on_c, 0, 88, 48
2, 48330, Note_on_c, 0, 35, 28
2, 48337, Note_on_c, 0, 35, 0
2, 48338, Note_on_c, 0, 87, 0
2, 48353, Note_on_c, 0, 88, 0
2, 48360, Note_on_c, 0, 36, 0
2, 48382, Note_on_c, 0, 84, 47
2, 48406, Note_on_c, 0, 84, 0
2, 48442, Note_on_c, 0, 81, 48
2, 48442, Note_on_c, 0, 31, 37
2, 48458, Note_on_c, 0, 81, 0
2, 48468, Note_on_c, 0, 31, 0
2, 48550, Note_on_c, 0, 43, 31
2, 48554, Note_on_c, 0, 77, 55
2, 48575, Note_on_c, 0, 77, 0
2, 48588, Note_on_c, 0, 43, 0
2, 48605, Note_on_c, 0, 37, 31
2, 48612, Note_on_c, 0, 75, 36
2, 48665, Note_on_c, 0, 37, 0
2, 48670, Note_on_c, 0, 75, 0
2, 48681, Note_on_c, 0, 76, 35
2, 48682, Note_on_c, 0, 36, 44
2, 48739, Control_c, 0, 64, 127
2, 48782, Note_on_c, 0, 76, 0
2, 48790, Note_on_c, 0, 36, 0
2, 48944, Control_c, 0, 64, 0
2, 48944, End_track
3, 0, Start_track
3, 0, MIDI_port, 1
3, 0, Title_t, ""
3, 127, Program_c, 1, 32
3, 128, Control_c, 1, 7, 127
3, 929, Note_on_c, 1, 42, 37
3, 960, Note_on_c, 1, 42, 0
3, 971, Note_on_c, 1, 43, 53
3, 1201, Note_on_c, 1, 43, 0
3, 1203, Note_on_c, 1, 38, 54
3, 1424, Note_on_c, 1, 38, 0
3, 1440, Note_on_c, 1, 38, 80
3, 1633, Note_on_c, 1, 38, 0
3, 1655, Note_on_c, 1, 38, 46
3, 1679, Note_on_c, 1, 50, 78
3, 1680, Note_on_c, 1, 38, 0
3, 1690, Note_on_c, 1, 52, 38
3, 1698, Note_on_c, 1, 52, 0
3, 1768, Note_on_c, 1, 38, 45
3, 1781, Note_on_c, 1, 38, 0
3, 1784, Note_on_c, 1, 50, 0
3, 1803, Note_on_c, 1, 45, 58
3, 1882, Note_on_c, 1, 45, 0
3, 1886, Note_on_c, 1, 44, 44
3, 1916, Note_on_c, 1, 44, 0
3, 1925, Note_on_c, 1, 43, 40
3, 2129, Note_on_c, 1, 37, 29
3, 2144, Note_on_c, 1, 43, 0
3, 2149, Note_on_c, 1, 37, 0
3, 2159, Note_on_c, 1, 38, 45
3, 2363, Note_on_c, 1, 42, 52
3, 2374, Note_on_c, 1, 38, 0
3, 2388, Note_on_c, 1, 42, 0
3, 2399, Note_on_c, 1, 41, 60
3, 2597, Note_on_c, 1, 38, 54
3, 2606, Note_on_c, 1, 38, 0
3, 2626, Note_on_c, 1, 41, 0
3, 2636, Note_on_c, 1, 42, 57
3, 2729, Note_on_c, 1, 38, 24
3, 2739, Note_on_c, 1, 38, 0
3, 2745, Note_on_c, 1, 42, 0
3, 2759, Note_on_c, 1, 45, 70
3, 2832, Note_on_c, 1, 45, 0
3, 2842, Note_on_c, 1, 42, 33
3, 2863, Note_on_c, 1, 42, 0
3, 2874, Note_on_c, 1, 43, 46
3, 2962, Note_on_c, 1, 38, 51
3, 2972, Note_on_c, 1, 43, 0
3, 2988, Note_on_c, 1, 38, 0
3, 2998, Note_on_c, 1, 31, 71
3, 3214, Note_on_c, 1, 38, 40
3, 3223, Note_on_c, 1, 38, 0
3, 3254, Note_on_c, 1, 43, 54
3, 3441, Note_on_c, 1, 31, 0
3, 3442, Note_on_c, 1, 38, 79
3, 3458, Note_on_c, 1, 43, 0
3, 3563, Note_on_c, 1, 37, 52
3, 3586, Note_on_c, 1, 37, 0
3, 3603, Note_on_c, 1, 50, 79
3, 3606, Note_on_c, 1, 38, 0
3, 3686, Note_on_c, 1, 38, 40
3, 3696, Note_on_c, 1, 50, 0
3, 3703, Note_on_c, 1, 38, 0
3, 3721, Note_on_c, 1, 44, 69
3, 3833, Note_on_c, 1, 44, 0
3, 3841, Note_on_c, 1, 43, 57
3, 4160, Note_on_c, 1, 38, 49
3, 4169, Note_on_c, 1, 38, 0
3, 4177, Note_on_c, 1, 43, 0
3, 4195, Note_on_c, 1, 42, 50
3, 4404, Note_on_c, 1, 38, 54
3, 4414, Note_on_c, 1, 38, 0
3, 4422, Note_on_c, 1, 42, 0
3, 4439, Note_on_c, 1, 43, 59
3, 4552, Note_on_c, 1, 43, 0
3, 4554, Note_on_c, 1, 37, 60
3, 4670, Note_on_c, 1, 37, 0
3, 4676, Note_on_c, 1, 35, 58
3, 4795, Note_on_c, 1, 35, 0
3, 4801, Note_on_c, 1, 36, 61
3, 5041, Note_on_c, 1, 48, 81
3, 5052, Note_on_c, 1, 36, 0
3, 5274, Note_on_c, 1, 48, 0
3, 5283, Note_on_c, 1, 45, 77
3, 5482, Note_on_c, 1, 40, 42
3, 5496, Note_on_c, 1, 40, 0
3, 5504, Note_on_c, 1, 45, 0
3, 5520, Note_on_c, 1, 33, 81
3, 5722, Note_on_c, 1, 37, 52
3, 5727, Note_on_c, 1, 33, 0
3, 5748, Note_on_c, 1, 37, 0
3, 5759, Note_on_c, 1, 38, 81
3, 5964, Note_on_c, 1, 37, 31
3, 5995, Note_on_c, 1, 38, 0
3, 5998, Note_on_c, 1, 50, 103
3, 6010, Note_on_c, 1, 37, 0
3, 6204, Note_on_c, 1, 42, 28
3, 6220, Note_on_c, 1, 50, 0
3, 6230, Note_on_c, 1, 42, 0
3, 6239, Note_on_c, 1, 43, 55
3, 6562, Note_on_c, 1, 43, 0
3, 6565, Note_on_c, 1, 40, 45
3, 6588, Note_on_c, 1, 40, 0
3, 6595, Note_on_c, 1, 41, 66
3, 6680, Note_on_c, 1, 39, 47
3, 6682, Note_on_c, 1, 41, 0
3, 6710, Note_on_c, 1, 39, 0
3, 6715, Note_on_c, 1, 40, 64
3, 6928, Note_on_c, 1, 39, 31
3, 6954, Note_on_c, 1, 39, 0
3, 6958, Note_on_c, 1, 40, 0
3, 6960, Note_on_c, 1, 52, 96
3, 7075, Note_on_c, 1, 45, 80
3, 7080, Note_on_c, 1, 52, 0
3, 7314, Note_on_c, 1, 33, 83
3, 7315, Note_on_c, 1, 45, 0
3, 7522, Note_on_c, 1, 40, 54
3, 7532, Note_on_c, 1, 40, 0
3, 7532, Note_on_c, 1, 33, 0
3, 7562, Note_on_c, 1, 45, 73
3, 7670, Note_on_c, 1, 45, 0
3, 7679, Note_on_c, 1, 39, 67
3, 7922, Note_on_c, 1, 44, 77
3, 7954, Note_on_c, 1, 39, 0
3, 8156, Note_on_c, 1, 44, 0
3, 8161, Note_on_c, 1, 38, 79
3, 8285, Note_on_c, 1, 44, 86
3, 8299, Note_on_c, 1, 38, 0
3, 8363, Note_on_c, 1, 38, 57
3, 8372, Note_on_c, 1, 38, 0
3, 8390, Note_on_c, 1, 44, 0
3, 8405, Note_on_c, 1, 43, 66
3, 8598, Note_on_c, 1, 43, 0
3, 8608, Note_on_c, 1, 42, 55
3, 8633, Note_on_c, 1, 42, 0
3, 8644, Note_on_c, 1, 43, 57
3, 8675, Note_on_c, 1, 43, 0
3, 8721, Note_on_c, 1, 38, 57
3, 8754, Note_on_c, 1, 38, 0
3, 8760, Note_on_c, 1, 31, 79
3, 9076, Note_on_c, 1, 37, 51
3, 9086, Note_on_c, 1, 31, 0
3, 9107, Note_on_c, 1, 37, 0
3, 9118, Note_on_c, 1, 38, 57
3, 9238, Note_on_c, 1, 50, 105
3, 9241, Note_on_c, 1, 38, 0
3, 9447, Note_on_c, 1, 38, 37
3, 9455, Note_on_c, 1, 50, 0
3, 9458, Note_on_c, 1, 38, 0
3, 9477, Note_on_c, 1, 44, 69
3, 9590, Note_on_c, 1, 44, 0
3, 9597, Note_on_c, 1, 43, 62
3, 9835, Note_on_c, 1, 43, 0
3, 9837, Note_on_c, 1, 31, 68
3, 10038, Note_on_c, 1, 42, 83
3, 10041, Note_on_c, 1, 31, 0
3, 10070, Note_on_c, 1, 42, 0
3, 10080, Note_on_c, 1, 41, 68
3, 10382, Note_on_c, 1, 41, 0
3, 10397, Note_on_c, 1, 45, 54
3, 10398, Note_on_c, 1, 29, 54
3, 10419, Note_on_c, 1, 45, 0
3, 10435, Note_on_c, 1, 29, 0
3, 10438, Note_on_c, 1, 46, 35
3, 10442, Note_on_c, 1, 30, 52
3, 10516, Note_on_c, 1, 46, 0
3, 10520, Note_on_c, 1, 30, 0
3, 10523, Note_on_c, 1, 47, 58
3, 10524, Note_on_c, 1, 31, 61
3, 10679, Note_on_c, 1, 43, 89
3, 10687, Note_on_c, 1, 47, 0
3, 10687, Note_on_c, 1, 33, 24
3, 10724, Note_on_c, 1, 33, 0
3, 10752, Note_on_c, 1, 31, 0
3, 11002, Note_on_c, 1, 37, 40
3, 11015, Note_on_c, 1, 43, 0
3, 11025, Note_on_c, 1, 37, 0
3, 11045, Note_on_c, 1, 38, 40
3, 11160, Note_on_c, 1, 38, 0
3, 11164, Note_on_c, 1, 52, 66
3, 11277, Note_on_c, 1, 52, 0
3, 11289, Note_on_c, 1, 50, 50
3, 11487, Note_on_c, 1, 42, 37
3, 11496, Note_on_c, 1, 50, 0
3, 11519, Note_on_c, 1, 42, 0
3, 11521, Note_on_c, 1, 43, 57
3, 11759, Note_on_c, 1, 31, 64
3, 11769, Note_on_c, 1, 43, 0
3, 11966, Note_on_c, 1, 38, 36
3, 11993, Note_on_c, 1, 38, 0
3, 12004, Note_on_c, 1, 31, 0
3, 12008, Note_on_c, 1, 43, 81
3, 12246, Note_on_c, 1, 37, 59
3, 12247, Note_on_c, 1, 43, 0
3, 12439, Note_on_c, 1, 37, 0
3, 12448, Note_on_c, 1, 35, 31
3, 12484, Note_on_c, 1, 35, 0
3, 12488, Note_on_c, 1, 36, 66
3, 12725, Note_on_c, 1, 36, 0
3, 12729, Note_on_c, 1, 43, 55
3, 12954, Note_on_c, 1, 43, 0
3, 12964, Note_on_c, 1, 45, 68
3, 13166, Note_on_c, 1, 36, 33
3, 13193, Note_on_c, 1, 36, 0
3, 13199, Note_on_c, 1, 45, 0
3, 13200, Note_on_c, 1, 40, 60
3, 13405, Note_on_c, 1, 37, 30
3, 13425, Note_on_c, 1, 40, 0
3, 13432, Note_on_c, 1, 37, 0
3, 13435, Note_on_c, 1, 50, 103
3, 13765, Note_on_c, 1, 37, 21
3, 13786, Note_on_c, 1, 37, 0
3, 13799, Note_on_c, 1, 38, 69
3, 14097, Note_on_c, 1, 50, 0
3, 14130, Note_on_c, 1, 37, 30
3, 14162, Note_on_c, 1, 37, 0
3, 14162, Note_on_c, 1, 50, 90
3, 14214, Note_on_c, 1, 50, 0
3, 14239, Note_on_c, 1, 37, 40
3, 14265, Note_on_c, 1, 37, 0
3, 14267, Note_on_c, 1, 38, 0
3, 14278, Note_on_c, 1, 49, 67
3, 14387, Note_on_c, 1, 49, 0
3, 14403, Note_on_c, 1, 50, 60
3, 14489, Note_on_c, 1, 43, 68
3, 14495, Note_on_c, 1, 50, 0
3, 14729, Note_on_c, 1, 38, 38
3, 14740, Note_on_c, 1, 38, 0
3, 14768, Note_on_c, 1, 31, 72
3, 14959, Note_on_c, 1, 43, 0
3, 14968, Note_on_c, 1, 38, 51
3, 14985, Note_on_c, 1, 38, 0
3, 15000, Note_on_c, 1, 31, 0
3, 15008, Note_on_c, 1, 43, 92
3, 15220, Note_on_c, 1, 38, 38
3, 15230, Note_on_c, 1, 38, 0
3, 15246, Note_on_c, 1, 31, 87
3, 15432, Note_on_c, 1, 43, 0
3, 15440, Note_on_c, 1, 38, 50
3, 15466, Note_on_c, 1, 38, 0
3, 15476, Note_on_c, 1, 43, 92
3, 15483, Note_on_c, 1, 31, 0
3, 15712, Note_on_c, 1, 31, 81
3, 15765, Note_on_c, 1, 43, 0
3, 15951, Note_on_c, 1, 43, 91
3, 15968, Note_on_c, 1, 31, 0
3, 16193, Note_on_c, 1, 31, 68
3, 16248, Note_on_c, 1, 43, 0
3, 16265, Note_on_c, 1, 31, 0
3, 16275, Note_on_c, 1, 44, 79
3, 16299, Note_on_c, 1, 44, 0
3, 16315, Note_on_c, 1, 43, 57
3, 16416, Note_on_c, 1, 43, 0
3, 16432, Note_on_c, 1, 38, 45
3, 16550, Note_on_c, 1, 38, 0
3, 16553, Note_on_c, 1, 31, 36
3, 16636, Note_on_c, 1, 38, 53
3, 16647, Note_on_c, 1, 38, 0
3, 16648, Note_on_c, 1, 31, 0
3, 16668, Note_on_c, 1, 42, 87
3, 16789, Note_on_c, 1, 42, 0
3, 16795, Note_on_c, 1, 43, 61
3, 16885, Note_on_c, 1, 43, 0
3, 16885, Note_on_c, 1, 38, 53
3, 16912, Note_on_c, 1, 38, 0
3, 16915, Note_on_c, 1, 57, 66
3, 17030, Note_on_c, 1, 57, 0
3, 17042, Note_on_c, 1, 55, 55
3, 17162, Note_on_c, 1, 50, 55
3, 17221, Note_on_c, 1, 55, 0
3, 17244, Note_on_c, 1, 42, 38
3, 17248, Note_on_c, 1, 50, 0
3, 17273, Note_on_c, 1, 42, 0
3, 17283, Note_on_c, 1, 43, 54
3, 17394, Note_on_c, 1, 43, 0
3, 17399, Note_on_c, 1, 38, 54
3, 17509, Note_on_c, 1, 38, 0
3, 17520, Note_on_c, 1, 41, 71
3, 17636, Note_on_c, 1, 42, 67
3, 17639, Note_on_c, 1, 41, 0
3, 17731, Note_on_c, 1, 39, 25
3, 17746, Note_on_c, 1, 39, 0
3, 17748, Note_on_c, 1, 42, 0
3, 17759, Note_on_c, 1, 43, 66
3, 17838, Note_on_c, 1, 43, 0
3, 17844, Note_on_c, 1, 38, 46
3, 17853, Note_on_c, 1, 38, 0
3, 17873, Note_on_c, 1, 29, 80
3, 17997, Note_on_c, 1, 41, 70
3, 18000, Note_on_c, 1, 40, 69
3, 18008, Note_on_c, 1, 40, 0
3, 18010, Note_on_c, 1, 29, 0
3, 18102, Note_on_c, 1, 41, 0
3, 18111, Note_on_c, 1, 42, 77
3, 18209, Note_on_c, 1, 30, 39
3, 18224, Note_on_c, 1, 30, 0
3, 18225, Note_on_c, 1, 42, 0
3, 18234, Note_on_c, 1, 43, 70
3, 18355, Note_on_c, 1, 43, 0
3, 18356, Note_on_c, 1, 38, 73
3, 18481, Note_on_c, 1, 45, 83
3, 18484, Note_on_c, 1, 38, 0
3, 18566, Note_on_c, 1, 38, 46
3, 18576, Note_on_c, 1, 38, 0
3, 18580, Note_on_c, 1, 45, 0
3, 18595, Note_on_c, 1, 44, 67
3, 18708, Note_on_c, 1, 44, 0
3, 18717, Note_on_c, 1, 43, 57
3, 18783, Note_on_c, 1, 43, 0
3, 18799, Note_on_c, 1, 38, 62
3, 18816, Note_on_c, 1, 38, 0
3, 18834, Note_on_c, 1, 50, 77
3, 18935, Note_on_c, 1, 50, 0
3, 18952, Note_on_c, 1, 45, 66
3, 19051, Note_on_c, 1, 45, 0
3, 19065, Note_on_c, 1, 42, 58
3, 19180, Note_on_c, 1, 42, 0
3, 19192, Note_on_c, 1, 43, 50
3, 19305, Note_on_c, 1, 43, 0
3, 19313, Note_on_c, 1, 38, 80
3, 19432, Note_on_c, 1, 31, 60
3, 19438, Note_on_c, 1, 38, 0
3, 19559, Note_on_c, 1, 38, 70
3, 19643, Note_on_c, 1, 31, 0
3, 19675, Note_on_c, 1, 38, 0
3, 19677, Note_on_c, 1, 45, 76
3, 19779, Note_on_c, 1, 38, 45
3, 19789, Note_on_c, 1, 45, 0
3, 19791, Note_on_c, 1, 38, 0
3, 19797, Note_on_c, 1, 44, 75
3, 19909, Note_on_c, 1, 44, 0
3, 19918, Note_on_c, 1, 43, 55
3, 20000, Note_on_c, 1, 38, 67
3, 20008, Note_on_c, 1, 43, 0
3, 20027, Note_on_c, 1, 38, 0
3, 20036, Note_on_c, 1, 37, 69
3, 20147, Note_on_c, 1, 37, 0
3, 20161, Note_on_c, 1, 36, 60
3, 20230, Note_on_c, 1, 36, 0
3, 20251, Note_on_c, 1, 36, 62
3, 20282, Note_on_c, 1, 38, 68
3, 20283, Note_on_c, 1, 36, 0
3, 20398, Note_on_c, 1, 38, 0
3, 20400, Note_on_c, 1, 40, 53
3, 20492, Note_on_c, 1, 38, 45
3, 20495, Note_on_c, 1, 40, 0
3, 20520, Note_on_c, 1, 46, 77
3, 20523, Note_on_c, 1, 38, 0
3, 20640, Note_on_c, 1, 46, 0
3, 20641, Note_on_c, 1, 45, 62
3, 20728, Note_on_c, 1, 40, 53
3, 20739, Note_on_c, 1, 40, 0
3, 20740, Note_on_c, 1, 45, 0
3, 20763, Note_on_c, 1, 52, 85
3, 20918, Note_on_c, 1, 45, 71
3, 20919, Note_on_c, 1, 52, 0
3, 20931, Note_on_c, 1, 45, 0
3, 20960, Note_on_c, 1, 40, 57
3, 20978, Note_on_c, 1, 40, 0
3, 20992, Note_on_c, 1, 39, 64
3, 21110, Note_on_c, 1, 39, 0
3, 21112, Note_on_c, 1, 38, 55
3, 21201, Note_on_c, 1, 37, 33
3, 21212, Note_on_c, 1, 38, 0
3, 21232, Note_on_c, 1, 50, 94
3, 21238, Note_on_c, 1, 37, 0
3, 21416, Note_on_c, 1, 45, 74
3, 21420, Note_on_c, 1, 50, 0
3, 21434, Note_on_c, 1, 45, 0
3, 21467, Note_on_c, 1, 38, 71
3, 21553, Note_on_c, 1, 31, 88
3, 21559, Note_on_c, 1, 38, 0
3, 21671, Note_on_c, 1, 38, 62
3, 21686, Note_on_c, 1, 38, 0
3, 21702, Note_on_c, 1, 31, 0
3, 21712, Note_on_c, 1, 43, 73
3, 21803, Note_on_c, 1, 38, 25
3, 21814, Note_on_c, 1, 38, 0
3, 21824, Note_on_c, 1, 43, 0
3, 21827, Note_on_c, 1, 41, 65
3, 21917, Note_on_c, 1, 38, 53
3, 21928, Note_on_c, 1, 38, 0
3, 21939, Note_on_c, 1, 41, 0
3, 21950, Note_on_c, 1, 39, 68
3, 22074, Note_on_c, 1, 39, 0
3, 22080, Note_on_c, 1, 40, 64
3, 22196, Note_on_c, 1, 52, 79
3, 22216, Note_on_c, 1, 40, 0
3, 22320, Note_on_c, 1, 52, 0
3, 22324, Note_on_c, 1, 47, 40
3, 22438, Note_on_c, 1, 44, 75
3, 22451, Note_on_c, 1, 47, 0
3, 22558, Note_on_c, 1, 44, 0
3, 22562, Note_on_c, 1, 45, 69
3, 22679, Note_on_c, 1, 45, 0
3, 22685, Note_on_c, 1, 33, 68
3, 22802, Note_on_c, 1, 33, 0
3, 22808, Note_on_c, 1, 37, 56
3, 22920, Note_on_c, 1, 37, 0
3, 22922, Note_on_c, 1, 40, 57
3, 23036, Note_on_c, 1, 40, 0
3, 23040, Note_on_c, 1, 39, 57
3, 23136, Note_on_c, 1, 37, 25
3, 23156, Note_on_c, 1, 37, 0
3, 23160, Note_on_c, 1, 45, 84
3, 23161, Note_on_c, 1, 39, 0
3, 23268, Note_on_c, 1, 45, 0
3, 23276, Note_on_c, 1, 44, 56
3, 23393, Note_on_c, 1, 44, 0
3, 23399, Note_on_c, 1, 39, 60
3, 23481, Note_on_c, 1, 37, 38
3, 23504, Note_on_c, 1, 39, 0
3, 23509, Note_on_c, 1, 37, 0
3, 23517, Note_on_c, 1, 38, 56
3, 23605, Note_on_c, 1, 37, 47
3, 23612, Note_on_c, 1, 38, 0
3, 23629, Note_on_c, 1, 37, 0
3, 23638, Note_on_c, 1, 44, 83
3, 23750, Note_on_c, 1, 44, 0
3, 23758, Note_on_c, 1, 43, 68
3, 23858, Note_on_c, 1, 43, 0
3, 23877, Note_on_c, 1, 42, 72
3, 23993, Note_on_c, 1, 42, 0
3, 24001, Note_on_c, 1, 43, 65
3, 24081, Note_on_c, 1, 43, 0
3, 24084, Note_on_c, 1, 38, 54
3, 24100, Note_on_c, 1, 38, 0
3, 24119, Note_on_c, 1, 31, 74
3, 24326, Note_on_c, 1, 38, 46
3, 24335, Note_on_c, 1, 38, 0
3, 24338, Note_on_c, 1, 31, 0
3, 24361, Note_on_c, 1, 43, 84
3, 24570, Note_on_c, 1, 38, 49
3, 24598, Note_on_c, 1, 38, 0
3, 24600, Note_on_c, 1, 57, 89
3, 24751, Note_on_c, 1, 43, 0
3, 24802, Note_on_c, 1, 43, 36
3, 24815, Note_on_c, 1, 43, 0
3, 24827, Note_on_c, 1, 57, 0
3, 24839, Note_on_c, 1, 56, 71
3, 24947, Note_on_c, 1, 56, 0
3, 24962, Note_on_c, 1, 55, 65
3, 25070, Note_on_c, 1, 55, 0
3, 25080, Note_on_c, 1, 43, 80
3, 25281, Note_on_c, 1, 42, 35
3, 25290, Note_on_c, 1, 42, 0
3, 25300, Note_on_c, 1, 43, 0
3, 25315, Note_on_c, 1, 54, 85
3, 25402, Note_on_c, 1, 42, 43
3, 25411, Note_on_c, 1, 42, 0
3, 25423, Note_on_c, 1, 54, 0
3, 25439, Note_on_c, 1, 53, 64
3, 25518, Note_on_c, 1, 41, 78
3, 25520, Note_on_c, 1, 53, 0
3, 25559, Note_on_c, 1, 29, 74
3, 25665, Note_on_c, 1, 29, 0
3, 25684, Note_on_c, 1, 54, 90
3, 25706, Note_on_c, 1, 41, 0
3, 25762, Note_on_c, 1, 42, 87
3, 25776, Note_on_c, 1, 54, 0
3, 25935, Note_on_c, 1, 43, 66
3, 25940, Note_on_c, 1, 42, 0
3, 26016, Note_on_c, 1, 42, 46
3, 26035, Note_on_c, 1, 43, 0
3, 26040, Note_on_c, 1, 42, 0
3, 26050, Note_on_c, 1, 57, 85
3, 26156, Note_on_c, 1, 57, 0
3, 26169, Note_on_c, 1, 55, 73
3, 26277, Note_on_c, 1, 55, 0
3, 26289, Note_on_c, 1, 43, 85
3, 26593, Note_on_c, 1, 43, 0
3, 26597, Note_on_c, 1, 38, 80
3, 26711, Note_on_c, 1, 37, 53
3, 26729, Note_on_c, 1, 37, 0
3, 26747, Note_on_c, 1, 38, 0
3, 26754, Note_on_c, 1, 45, 79
3, 26859, Note_on_c, 1, 45, 0
3, 26876, Note_on_c, 1, 43, 58
3, 26996, Note_on_c, 1, 43, 0
3, 26996, Note_on_c, 1, 38, 64
3, 27230, Note_on_c, 1, 38, 0
3, 27232, Note_on_c, 1, 42, 75
3, 27350, Note_on_c, 1, 42, 0
3, 27361, Note_on_c, 1, 43, 54
3, 27408, Note_on_c, 1, 43, 0
3, 27441, Note_on_c, 1, 38, 60
3, 27470, Note_on_c, 1, 38, 0
3, 27479, Note_on_c, 1, 37, 58
3, 27592, Note_on_c, 1, 37, 0
3, 27600, Note_on_c, 1, 49, 73
3, 27714, Note_on_c, 1, 47, 43
3, 27722, Note_on_c, 1, 49, 0
3, 27830, Note_on_c, 1, 47, 0
3, 27843, Note_on_c, 1, 48, 60
3, 27954, Note_on_c, 1, 48, 0
3, 27955, Note_on_c, 1, 43, 49
3, 28069, Note_on_c, 1, 43, 0
3, 28078, Note_on_c, 1, 40, 47
3, 28195, Note_on_c, 1, 40, 0
3, 28199, Note_on_c, 1, 44, 51
3, 28312, Note_on_c, 1, 44, 0
3, 28323, Note_on_c, 1, 45, 46
3, 28407, Note_on_c, 1, 40, 53
3, 28417, Note_on_c, 1, 40, 0
3, 28417, Note_on_c, 1, 45, 0
3, 28442, Note_on_c, 1, 52, 57
3, 28559, Note_on_c, 1, 48, 52
3, 28636, Note_on_c, 1, 52, 0
3, 28645, Note_on_c, 1, 48, 0
3, 28676, Note_on_c, 1, 40, 41
3, 28796, Note_on_c, 1, 40, 0
3, 28799, Note_on_c, 1, 38, 53
3, 28922, Note_on_c, 1, 45, 46
3, 28996, Note_on_c, 1, 38, 0
3, 29043, Note_on_c, 1, 52, 65
3, 29077, Note_on_c, 1, 45, 0
3, 29138, Note_on_c, 1, 52, 0
3, 29170, Note_on_c, 1, 50, 85
3, 29268, Note_on_c, 1, 50, 0
3, 29280, Note_on_c, 1, 45, 69
3, 29387, Note_on_c, 1, 45, 0
3, 29402, Note_on_c, 1, 42, 60
3, 29511, Note_on_c, 1, 42, 0
3, 29513, Note_on_c, 1, 38, 57
3, 29599, Note_on_c, 1, 40, 43
3, 29607, Note_on_c, 1, 41, 25
3, 29617, Note_on_c, 1, 41, 0
3, 29618, Note_on_c, 1, 38, 0
3, 29627, Note_on_c, 1, 40, 0
3, 29630, Note_on_c, 1, 44, 71
3, 29747, Note_on_c, 1, 44, 0
3, 29760, Note_on_c, 1, 43, 34
3, 29823, Note_on_c, 1, 56, 57
3, 29824, Note_on_c, 1, 43, 0
3, 29832, Note_on_c, 1, 56, 0
3, 29832, Note_on_c, 1, 55, 77
3, 29949, Note_on_c, 1, 38, 46
3, 29976, Note_on_c, 1, 55, 0
3, 29980, Note_on_c, 1, 38, 0
3, 30000, Note_on_c, 1, 55, 67
3, 30082, Note_on_c, 1, 43, 80
3, 30099, Note_on_c, 1, 55, 0
3, 30196, Note_on_c, 1, 38, 53
3, 30217, Note_on_c, 1, 38, 0
3, 30243, Note_on_c, 1, 31, 50
3, 30296, Note_on_c, 1, 31, 0
3, 30316, Note_on_c, 1, 31, 69
3, 30377, Note_on_c, 1, 43, 0
3, 30433, Note_on_c, 1, 38, 52
3, 30458, Note_on_c, 1, 38, 0
3, 30476, Note_on_c, 1, 55, 88
3, 30535, Note_on_c, 1, 31, 0
3, 30540, Note_on_c, 1, 55, 0
3, 30554, Note_on_c, 1, 55, 77
3, 30650, Note_on_c, 1, 55, 0
3, 30684, Note_on_c, 1, 38, 45
3, 30707, Note_on_c, 1, 38, 0
3, 30719, Note_on_c, 1, 55, 85
3, 30788, Note_on_c, 1, 55, 0
3, 30798, Note_on_c, 1, 43, 82
3, 30932, Note_on_c, 1, 43, 0
3, 30959, Note_on_c, 1, 43, 72
3, 31042, Note_on_c, 1, 31, 74
3, 31289, Note_on_c, 1, 38, 46
3, 31294, Note_on_c, 1, 43, 0
3, 31299, Note_on_c, 1, 38, 0
3, 31306, Note_on_c, 1, 31, 0
3, 31320, Note_on_c, 1, 55, 101
3, 31534, Note_on_c, 1, 55, 0
3, 31562, Note_on_c, 1, 54, 80
3, 31674, Note_on_c, 1, 54, 0
3, 31686, Note_on_c, 1, 55, 66
3, 31799, Note_on_c, 1, 55, 0
3, 31800, Note_on_c, 1, 42, 42
3, 31915, Note_on_c, 1, 42, 0
3, 31921, Note_on_c, 1, 43, 52
3, 32027, Note_on_c, 1, 43, 0
3, 32039, Note_on_c, 1, 37, 44
3, 32156, Note_on_c, 1, 37, 0
3, 32161, Note_on_c, 1, 38, 36
3, 32249, Note_on_c, 1, 37, 40
3, 32271, Note_on_c, 1, 38, 0
3, 32278, Note_on_c, 1, 50, 72
3, 32284, Note_on_c, 1, 37, 0
3, 32384, Note_on_c, 1, 50, 0
3, 32396, Note_on_c, 1, 45, 59
3, 32517, Note_on_c, 1, 44, 53
3, 32526, Note_on_c, 1, 45, 0
3, 32634, Note_on_c, 1, 44, 0
3, 32642, Note_on_c, 1, 43, 54
3, 32757, Note_on_c, 1, 43, 0
3, 32761, Note_on_c, 1, 38, 52
3, 32878, Note_on_c, 1, 38, 0
3, 32881, Note_on_c, 1, 31, 53
3, 32971, Note_on_c, 1, 38, 53
3, 32974, Note_on_c, 1, 31, 0
3, 32990, Note_on_c, 1, 38, 0
3, 33001, Note_on_c, 1, 42, 76
3, 33121, Note_on_c, 1, 41, 64
3, 33122, Note_on_c, 1, 42, 0
3, 33236, Note_on_c, 1, 41, 0
3, 33237, Note_on_c, 1, 29, 76
3, 33357, Note_on_c, 1, 42, 79
3, 33382, Note_on_c, 1, 29, 0
3, 33474, Note_on_c, 1, 30, 65
3, 33482, Note_on_c, 1, 42, 0
3, 33590, Note_on_c, 1, 30, 0
3, 33602, Note_on_c, 1, 31, 66
3, 33711, Note_on_c, 1, 31, 0
3, 33713, Note_on_c, 1, 43, 66
3, 33809, Note_on_c, 1, 43, 0
3, 33824, Note_on_c, 1, 35, 26
3, 33835, Note_on_c, 1, 35, 0
3, 33836, Note_on_c, 1, 55, 76
3, 33924, Note_on_c, 1, 55, 0
3, 33956, Note_on_c, 1, 55, 75
3, 34055, Note_on_c, 1, 55, 0
3, 34077, Note_on_c, 1, 50, 38
3, 34185, Note_on_c, 1, 50, 0
3, 34193, Note_on_c, 1, 45, 62
3, 34311, Note_on_c, 1, 45, 0
3, 34311, Note_on_c, 1, 38, 57
3, 34419, Note_on_c, 1, 38, 0
3, 34429, Note_on_c, 1, 42, 62
3, 34543, Note_on_c, 1, 42, 0
3, 34555, Note_on_c, 1, 43, 62
3, 34658, Note_on_c, 1, 43, 0
3, 34675, Note_on_c, 1, 43, 72
3, 34765, Note_on_c, 1, 42, 35
3, 34790, Note_on_c, 1, 43, 0
3, 34792, Note_on_c, 1, 55, 79
3, 34797, Note_on_c, 1, 42, 0
3, 34878, Note_on_c, 1, 43, 40
3, 34890, Note_on_c, 1, 55, 0
3, 34891, Note_on_c, 1, 43, 0
3, 34909, Note_on_c, 1, 51, 57
3, 35017, Note_on_c, 1, 51, 0
3, 35030, Note_on_c, 1, 50, 65
3, 35138, Note_on_c, 1, 50, 0
3, 35151, Note_on_c, 1, 43, 65
3, 35241, Note_on_c, 1, 39, 29
3, 35244, Note_on_c, 1, 42, 27
3, 35257, Note_on_c, 1, 42, 0
3, 35267, Note_on_c, 1, 43, 0
3, 35272, Note_on_c, 1, 39, 0
3, 35272, Note_on_c, 1, 47, 69
3, 35395, Note_on_c, 1, 33, 58
3, 35397, Note_on_c, 1, 35, 73
3, 35399, Note_on_c, 1, 47, 0
3, 35414, Note_on_c, 1, 33, 0
3, 35518, Note_on_c, 1, 35, 0
3, 35518, Note_on_c, 1, 36, 64
3, 35608, Note_on_c, 1, 34, 32
3, 35613, Note_on_c, 1, 36, 0
3, 35622, Note_on_c, 1, 34, 0
3, 35636, Note_on_c, 1, 38, 48
3, 35637, Note_on_c, 1, 36, 62
3, 35660, Note_on_c, 1, 36, 0
3, 35748, Note_on_c, 1, 38, 0
3, 35759, Note_on_c, 1, 40, 49
3, 35843, Note_on_c, 1, 36, 44
3, 35856, Note_on_c, 1, 36, 0
3, 35863, Note_on_c, 1, 40, 0
3, 35876, Note_on_c, 1, 45, 64
3, 35995, Note_on_c, 1, 43, 61
3, 35998, Note_on_c, 1, 45, 0
3, 36089, Note_on_c, 1, 40, 28
3, 36099, Note_on_c, 1, 43, 0
3, 36104, Note_on_c, 1, 40, 0
3, 36116, Note_on_c, 1, 45, 67
3, 36204, Note_on_c, 1, 40, 40
3, 36217, Note_on_c, 1, 45, 0
3, 36226, Note_on_c, 1, 40, 0
3, 36237, Note_on_c, 1, 52, 74
3, 36327, Note_on_c, 1, 52, 0
3, 36353, Note_on_c, 1, 51, 72
3, 36438, Note_on_c, 1, 39, 34
3, 36453, Note_on_c, 1, 51, 0
3, 36464, Note_on_c, 1, 39, 0
3, 36474, Note_on_c, 1, 50, 72
3, 36586, Note_on_c, 1, 50, 0
3, 36590, Note_on_c, 1, 45, 53
3, 36714, Note_on_c, 1, 45, 0
3, 36714, Note_on_c, 1, 38, 57
3, 36835, Note_on_c, 1, 44, 61
3, 36839, Note_on_c, 1, 38, 0
3, 36956, Note_on_c, 1, 44, 0
3, 36960, Note_on_c, 1, 43, 55
3, 37076, Note_on_c, 1, 43, 0
3, 37083, Note_on_c, 1, 38, 57
3, 37197, Note_on_c, 1, 31, 55
3, 37202, Note_on_c, 1, 38, 0
3, 37281, Note_on_c, 1, 38, 59
3, 37290, Note_on_c, 1, 38, 0
3, 37290, Note_on_c, 1, 31, 0
3, 37316, Note_on_c, 1, 39, 62
3, 37428, Note_on_c, 1, 39, 0
3, 37434, Note_on_c, 1, 40, 62
3, 37524, Note_on_c, 1, 38, 45
3, 37540, Note_on_c, 1, 40, 0
3, 37547, Note_on_c, 1, 38, 0
3, 37554, Note_on_c, 1, 47, 66
3, 37678, Note_on_c, 1, 47, 0
3, 37680, Note_on_c, 1, 43, 56
3, 37779, Note_on_c, 1, 43, 0
3, 37800, Note_on_c, 1, 34, 60
3, 37914, Note_on_c, 1, 34, 0
3, 37919, Note_on_c, 1, 33, 54
3, 38011, Note_on_c, 1, 34, 46
3, 38034, Note_on_c, 1, 34, 0
3, 38038, Note_on_c, 1, 52, 79
3, 38041, Note_on_c, 1, 33, 0
3, 38142, Note_on_c, 1, 52, 0
3, 38158, Note_on_c, 1, 49, 51
3, 38263, Note_on_c, 1, 49, 0
3, 38273, Note_on_c, 1, 45, 62
3, 38372, Note_on_c, 1, 45, 0
3, 38377, Note_on_c, 1, 39, 43
3, 38396, Note_on_c, 1, 51, 74
3, 38402, Note_on_c, 1, 39, 0
3, 38511, Note_on_c, 1, 51, 0
3, 38512, Note_on_c, 1, 45, 70
3, 38620, Note_on_c, 1, 45, 0
3, 38633, Note_on_c, 1, 44, 63
3, 38742, Note_on_c, 1, 44, 0
3, 38775, Note_on_c, 1, 50, 57
3, 38840, Note_on_c, 1, 50, 0
3, 38853, Note_on_c, 1, 39, 23
3, 38868, Note_on_c, 1, 39, 0
3, 38884, Note_on_c, 1, 50, 71
3, 38963, Note_on_c, 1, 39, 46
3, 38978, Note_on_c, 1, 50, 0
3, 38984, Note_on_c, 1, 39, 0
3, 38995, Note_on_c, 1, 44, 58
3, 39118, Note_on_c, 1, 43, 55
3, 39197, Note_on_c, 1, 44, 0
3, 39224, Note_on_c, 1, 43, 0
3, 39237, Note_on_c, 1, 44, 59
3, 39347, Note_on_c, 1, 44, 0
3, 39357, Note_on_c, 1, 43, 59
3, 39473, Note_on_c, 1, 31, 73
3, 39478, Note_on_c, 1, 43, 0
3, 39680, Note_on_c, 1, 38, 53
3, 39691, Note_on_c, 1, 38, 0
3, 39717, Note_on_c, 1, 31, 0
3, 39719, Note_on_c, 1, 43, 66
3, 39798, Note_on_c, 1, 43, 0
3, 39799, Note_on_c, 1, 44, 67
3, 39835, Note_on_c, 1, 44, 0
3, 39842, Note_on_c, 1, 43, 60
3, 39940, Note_on_c, 1, 38, 45
3, 39949, Note_on_c, 1, 43, 0
3, 39953, Note_on_c, 1, 38, 0
3, 39955, Note_on_c, 1, 50, 74
3, 40161, Note_on_c, 1, 38, 57
3, 40163, Note_on_c, 1, 50, 0
3, 40175, Note_on_c, 1, 38, 0
3, 40195, Note_on_c, 1, 44, 59
3, 40315, Note_on_c, 1, 44, 0
3, 40316, Note_on_c, 1, 43, 50
3, 40397, Note_on_c, 1, 31, 41
3, 40410, Note_on_c, 1, 43, 0
3, 40413, Note_on_c, 1, 31, 0
3, 40429, Note_on_c, 1, 55, 70
3, 40517, Note_on_c, 1, 55, 0
3, 40556, Note_on_c, 1, 43, 45
3, 40633, Note_on_c, 1, 43, 0
3, 40638, Note_on_c, 1, 38, 29
3, 40652, Note_on_c, 1, 38, 0
3, 40666, Note_on_c, 1, 51, 71
3, 40778, Note_on_c, 1, 51, 0
3, 40798, Note_on_c, 1, 50, 49
3, 40909, Note_on_c, 1, 50, 0
3, 40916, Note_on_c, 1, 43, 53
3, 41025, Note_on_c, 1, 43, 0
3, 41038, Note_on_c, 1, 41, 49
3, 41120, Note_on_c, 1, 39, 51
3, 41132, Note_on_c, 1, 41, 0
3, 41155, Note_on_c, 1, 42, 63
3, 41158, Note_on_c, 1, 39, 0
3, 41269, Note_on_c, 1, 42, 0
3, 41284, Note_on_c, 1, 43, 48
3, 41370, Note_on_c, 1, 42, 35
3, 41389, Note_on_c, 1, 43, 0
3, 41391, Note_on_c, 1, 42, 0
3, 41403, Note_on_c, 1, 55, 63
3, 41423, Note_on_c, 1, 43, 24
3, 41510, Note_on_c, 1, 43, 0
3, 41514, Note_on_c, 1, 55, 0
3, 41523, Note_on_c, 1, 31, 51
3, 41588, Note_on_c, 1, 31, 0
3, 41608, Note_on_c, 1, 31, 73
3, 41769, Note_on_c, 1, 38, 64
3, 41771, Note_on_c, 1, 31, 0
3, 41886, Note_on_c, 1, 45, 74
3, 41895, Note_on_c, 1, 38, 0
3, 41999, Note_on_c, 1, 45, 0
3, 42008, Note_on_c, 1, 41, 49
3, 42109, Note_on_c, 1, 41, 0
3, 42119, Note_on_c, 1, 42, 69
3, 42235, Note_on_c, 1, 42, 0
3, 42242, Note_on_c, 1, 43, 54
3, 42358, Note_on_c, 1, 31, 60
3, 42364, Note_on_c, 1, 43, 0
3, 42479, Note_on_c, 1, 31, 0
3, 42483, Note_on_c, 1, 50, 80
3, 42580, Note_on_c, 1, 38, 27
3, 42591, Note_on_c, 1, 38, 0
3, 42593, Note_on_c, 1, 50, 0
3, 42603, Note_on_c, 1, 49, 58
3, 42685, Note_on_c, 1, 40, 33
3, 42697, Note_on_c, 1, 40, 0
3, 42721, Note_on_c, 1, 44, 61
3, 42804, Note_on_c, 1, 38, 43
3, 42807, Note_on_c, 1, 49, 0
3, 42815, Note_on_c, 1, 38, 0
3, 42821, Note_on_c, 1, 44, 0
3, 42839, Note_on_c, 1, 41, 52
3, 42952, Note_on_c, 1, 41, 0
3, 42959, Note_on_c, 1, 37, 53
3, 43062, Note_on_c, 1, 37, 0
3, 43071, Note_on_c, 1, 35, 60
3, 43179, Note_on_c, 1, 35, 0
3, 43188, Note_on_c, 1, 36, 54
3, 43289, Note_on_c, 1, 34, 32
3, 43301, Note_on_c, 1, 36, 0
3, 43309, Note_on_c, 1, 50, 62
3, 43316, Note_on_c, 1, 34, 0
3, 43428, Note_on_c, 1, 50, 0
3, 43433, Note_on_c, 1, 48, 58
3, 43557, Note_on_c, 1, 43, 53
3, 43569, Note_on_c, 1, 48, 0
3, 43664, Note_on_c, 1, 43, 0
3, 43677, Note_on_c, 1, 45, 56
3, 43799, Note_on_c, 1, 40, 74
3, 43808, Note_on_c, 1, 45, 0
3, 43913, Note_on_c, 1, 40, 0
3, 43922, Note_on_c, 1, 33, 41
3, 44032, Note_on_c, 1, 33, 0
3, 44043, Note_on_c, 1, 39, 69
3, 44162, Note_on_c, 1, 38, 55
3, 44163, Note_on_c, 1, 39, 0
3, 44261, Note_on_c, 1, 43, 24
3, 44271, Note_on_c, 1, 43, 0
3, 44282, Note_on_c, 1, 52, 110
3, 44290, Note_on_c, 1, 38, 0
3, 44396, Note_on_c, 1, 52, 0
3, 44406, Note_on_c, 1, 50, 57
3, 44525, Note_on_c, 1, 44, 59
3, 44543, Note_on_c, 1, 50, 0
3, 44641, Note_on_c, 1, 44, 0
3, 44645, Note_on_c, 1, 38, 47
3, 44733, Note_on_c, 1, 44, 38
3, 44743, Note_on_c, 1, 38, 0
3, 44744, Note_on_c, 1, 44, 0
3, 44760, Note_on_c, 1, 52, 92
3, 44867, Note_on_c, 1, 52, 0
3, 44878, Note_on_c, 1, 50, 60
3, 44992, Note_on_c, 1, 44, 69
3, 44996, Note_on_c, 1, 50, 0
3, 45105, Note_on_c, 1, 44, 0
3, 45113, Note_on_c, 1, 43, 49
3, 45204, Note_on_c, 1, 55, 105
3, 45440, Note_on_c, 1, 38, 36
3, 45452, Note_on_c, 1, 38, 0
3, 45475, Note_on_c, 1, 31, 74
3, 45669, Note_on_c, 1, 55, 0
3, 45683, Note_on_c, 1, 38, 64
3, 45694, Note_on_c, 1, 43, 0
3, 45698, Note_on_c, 1, 38, 0
3, 45714, Note_on_c, 1, 55, 90
3, 45912, Note_on_c, 1, 38, 47
3, 45937, Note_on_c, 1, 38, 0
3, 45946, Note_on_c, 1, 31, 0
3, 45952, Note_on_c, 1, 43, 87
3, 46136, Note_on_c, 1, 55, 0
3, 46159, Note_on_c, 1, 39, 54
3, 46188, Note_on_c, 1, 39, 0
3, 46192, Note_on_c, 1, 56, 99
3, 46436, Note_on_c, 1, 32, 77
3, 46446, Note_on_c, 1, 56, 0
3, 46661, Note_on_c, 1, 43, 0
3, 46663, Note_on_c, 1, 32, 0
3, 46676, Note_on_c, 1, 55, 96
3, 46997, Note_on_c, 1, 55, 0
3, 47127, Note_on_c, 1, 43, 92
3, 47288, Note_on_c, 1, 43, 0
3, 47295, Note_on_c, 1, 31, 90
3, 47521, Note_on_c, 1, 31, 0
3, 47527, Note_on_c, 1, 43, 94
3, 47839, Note_on_c, 1, 43, 0
3, 47844, Note_on_c, 1, 34, 40
3, 47878, Note_on_c, 1, 34, 0
3, 47885, Note_on_c, 1, 35, 55
3, 47957, Note_on_c, 1, 35, 0
3, 47969, Note_on_c, 1, 36, 69
3, 47996, Note_on_c, 1, 36, 0
3, 48080, Note_on_c, 1, 42, 57
3, 48118, Note_on_c, 1, 42, 0
3, 48129, Note_on_c, 1, 43, 49
3, 48329, Note_on_c, 1, 46, 48
3, 48333, Note_on_c, 1, 43, 0
3, 48350, Note_on_c, 1, 46, 0
3, 48372, Note_on_c, 1, 47, 52
3, 48453, Note_on_c, 1, 47, 0
3, 48490, Note_on_c, 1, 48, 54
3, 48515, Note_on_c, 1, 48, 0
3, 48569, Note_on_c, 1, 42, 55
3, 48594, Note_on_c, 1, 42, 0
3, 48613, Note_on_c, 1, 43, 35
3, 48673, Note_on_c, 1, 43, 0
3, 48692, Note_on_c, 1, 36, 50
3, 48847, Note_on_c, 1, 24, 53
3, 48857, Note_on_c, 1, 36, 0
3, 49281, Note_on_c, 1, 24, 0
3, 49281, End_track
4, 0, Start_track
4, 0, MIDI_port, 0
4, 0, Title_t, ""
4, 167, Program_c, 9, 41
4, 954, Note_on_c, 9, 59, 58
4, 983, Note_on_c, 9, 59, 0
4, 1078, Note_on_c, 9, 59, 56
4, 1090, Note_on_c, 9, 59, 0
4, 1175, Note_on_c, 9, 59, 39
4, 1187, Note_on_c, 9, 59, 0
4, 1206, Note_on_c, 9, 59, 51
4, 1244, Note_on_c, 9, 59, 0
4, 1327, Note_on_c, 9, 59, 72
4, 1368, Note_on_c, 9, 59, 0
4, 1449, Note_on_c, 9, 59, 48
4, 1484, Note_on_c, 9, 59, 0
4, 1563, Note_on_c, 9, 59, 68
4, 1629, Note_on_c, 9, 59, 0
4, 1691, Note_on_c, 9, 59, 45
4, 1717, Note_on_c, 9, 59, 0
4, 1769, Note_on_c, 9, 59, 64
4, 1788, Note_on_c, 9, 59, 0
4, 1808, Note_on_c, 9, 59, 64
4, 1818, Note_on_c, 9, 59, 0
4, 1887, Note_on_c, 9, 59, 35
4, 1902, Note_on_c, 9, 59, 0
4, 1927, Note_on_c, 9, 59, 44
4, 1978, Note_on_c, 9, 59, 0
4, 2008, Note_on_c, 9, 59, 64
4, 2091, Note_on_c, 9, 59, 0
4, 2128, Note_on_c, 9, 59, 29
4, 2140, Note_on_c, 9, 59, 0
4, 2166, Note_on_c, 9, 59, 60
4, 2254, Note_on_c, 9, 59, 0
4, 2279, Note_on_c, 9, 59, 48
4, 2292, Note_on_c, 9, 59, 0
4, 2349, Note_on_c, 9, 59, 80
4, 2428, Note_on_c, 9, 59, 0
4, 2470, Note_on_c, 9, 59, 35
4, 2483, Note_on_c, 9, 59, 0
4, 2515, Note_on_c, 9, 59, 62
4, 2589, Note_on_c, 9, 59, 0
4, 2623, Note_on_c, 9, 59, 41
4, 2646, Note_on_c, 9, 59, 0
4, 2715, Note_on_c, 9, 59, 62
4, 2747, Note_on_c, 9, 59, 0
4, 2833, Note_on_c, 9, 59, 37
4, 2843, Note_on_c, 9, 59, 0
4, 2877, Note_on_c, 9, 59, 55
4, 2927, Note_on_c, 9, 59, 0
4, 2999, Note_on_c, 9, 59, 62
4, 3037, Note_on_c, 9, 59, 0
4, 3123, Note_on_c, 9, 59, 60
4, 3155, Note_on_c, 9, 59, 0
4, 3244, Note_on_c, 9, 59, 61
4, 3272, Note_on_c, 9, 59, 0
4, 3335, Note_on_c, 9, 59, 43
4, 3356, Note_on_c, 9, 59, 0
4, 3373, Note_on_c, 9, 59, 60
4, 3385, Note_on_c, 9, 59, 0
4, 3483, Note_on_c, 9, 59, 65
4, 3502, Note_on_c, 9, 59, 0
4, 3575, Note_on_c, 9, 59, 40
4, 3586, Note_on_c, 9, 59, 0
4, 3606, Note_on_c, 9, 59, 69
4, 3627, Note_on_c, 9, 59, 0
4, 3643, Note_on_c, 9, 59, 62
4, 3653, Note_on_c, 9, 59, 0
4, 3728, Note_on_c, 9, 59, 74
4, 3751, Note_on_c, 9, 59, 0
4, 3817, Note_on_c, 9, 59, 49
4, 3828, Note_on_c, 9, 59, 0
4, 3846, Note_on_c, 9, 59, 68
4, 3872, Note_on_c, 9, 59, 0
4, 3959, Note_on_c, 9, 59, 61
4, 3982, Note_on_c, 9, 59, 0
4, 4084, Note_on_c, 9, 59, 63
4, 4121, Note_on_c, 9, 59, 0
4, 4163, Note_on_c, 9, 53, 72
4, 4173, Note_on_c, 9, 53, 0
4, 4210, Note_on_c, 9, 59, 32
4, 4253, Note_on_c, 9, 59, 0
4, 4292, Note_on_c, 9, 59, 34
4, 4307, Note_on_c, 9, 59, 0
4, 4330, Note_on_c, 9, 59, 55
4, 4341, Note_on_c, 9, 59, 0
4, 4410, Note_on_c, 9, 59, 69
4, 4426, Note_on_c, 9, 59, 0
4, 4449, Note_on_c, 9, 59, 69
4, 4457, Note_on_c, 9, 59, 0
4, 4568, Note_on_c, 9, 59, 73
4, 4586, Note_on_c, 9, 59, 0
4, 4645, Note_on_c, 9, 59, 71
4, 4654, Note_on_c, 9, 59, 0
4, 4770, Note_on_c, 9, 59, 55
4, 4779, Note_on_c, 9, 59, 0
4, 4800, Note_on_c, 9, 59, 64
4, 4838, Note_on_c, 9, 59, 0
4, 4927, Note_on_c, 9, 59, 69
4, 4951, Note_on_c, 9, 59, 0
4, 5015, Note_on_c, 9, 59, 61
4, 5027, Note_on_c, 9, 59, 0
4, 5050, Note_on_c, 9, 59, 61
4, 5068, Note_on_c, 9, 59, 0
4, 5167, Note_on_c, 9, 59, 70
4, 5187, Note_on_c, 9, 59, 0
4, 5256, Note_on_c, 9, 59, 55
4, 5269, Note_on_c, 9, 59, 0
4, 5288, Note_on_c, 9, 59, 68
4, 5321, Note_on_c, 9, 59, 0
4, 5400, Note_on_c, 9, 59, 80
4, 5443, Note_on_c, 9, 59, 0
4, 5525, Note_on_c, 9, 59, 71
4, 5554, Note_on_c, 9, 59, 0
4, 5611, Note_on_c, 9, 59, 49
4, 5624, Note_on_c, 9, 59, 0
4, 5646, Note_on_c, 9, 59, 67
4, 5667, Note_on_c, 9, 59, 0
4, 5729, Note_on_c, 9, 59, 87
4, 5803, Note_on_c, 9, 59, 0
4, 5854, Note_on_c, 9, 59, 37
4, 5866, Note_on_c, 9, 59, 0
4, 5889, Note_on_c, 9, 59, 66
4, 5921, Note_on_c, 9, 59, 0
4, 6001, Note_on_c, 9, 59, 76
4, 6039, Note_on_c, 9, 59, 0
4, 6124, Note_on_c, 9, 59, 74
4, 6156, Note_on_c, 9, 59, 0
4, 6219, Note_on_c, 9, 59, 43
4, 6230, Note_on_c, 9, 59, 0
4, 6250, Note_on_c, 9, 59, 68
4, 6285, Note_on_c, 9, 59, 0
4, 6365, Note_on_c, 9, 59, 83
4, 6415, Note_on_c, 9, 59, 0
4, 6482, Note_on_c, 9, 59, 79
4, 6514, Note_on_c, 9, 59, 0
4, 6565, Note_on_c, 9, 59, 45
4, 6576, Note_on_c, 9, 59, 0
4, 6598, Note_on_c, 9, 59, 57
4, 6620, Note_on_c, 9, 59, 0
4, 6680, Note_on_c, 9, 59, 88
4, 6760, Note_on_c, 9, 59, 0
4, 6803, Note_on_c, 9, 59, 37
4, 6817, Note_on_c, 9, 59, 0
4, 6844, Note_on_c, 9, 59, 62
4, 6891, Note_on_c, 9, 59, 0
4, 6960, Note_on_c, 9, 59, 80
4, 7016, Note_on_c, 9, 59, 0
4, 7081, Note_on_c, 9, 59, 75
4, 7121, Note_on_c, 9, 59, 0
4, 7168, Note_on_c, 9, 59, 55
4, 7182, Note_on_c, 9, 59, 0
4, 7205, Note_on_c, 9, 59, 68
4, 7235, Note_on_c, 9, 59, 0
4, 7324, Note_on_c, 9, 59, 92
4, 7358, Note_on_c, 9, 59, 0
4, 7416, Note_on_c, 9, 59, 55
4, 7432, Note_on_c, 9, 59, 0
4, 7529, Note_on_c, 9, 59, 75
4, 7554, Note_on_c, 9, 59, 0
4, 7646, Note_on_c, 9, 59, 53
4, 7659, Note_on_c, 9, 59, 0
4, 7683, Note_on_c, 9, 59, 67
4, 7739, Note_on_c, 9, 59, 0
4, 7802, Note_on_c, 9, 59, 81
4, 7835, Note_on_c, 9, 59, 0
4, 7892, Note_on_c, 9, 59, 40
4, 7902, Note_on_c, 9, 59, 0
4, 7923, Note_on_c, 9, 59, 63
4, 7976, Note_on_c, 9, 59, 0
4, 8000, Note_on_c, 9, 53, 74
4, 8053, Note_on_c, 9, 53, 0
4, 8119, Note_on_c, 9, 59, 48
4, 8130, Note_on_c, 9, 59, 0
4, 8161, Note_on_c, 9, 59, 64
4, 8233, Note_on_c, 9, 59, 0
4, 8239, Note_on_c, 9, 53, 62
4, 8262, Note_on_c, 9, 53, 0
4, 8289, Note_on_c, 9, 59, 43
4, 8302, Note_on_c, 9, 59, 0
4, 8365, Note_on_c, 9, 59, 77
4, 8466, Note_on_c, 9, 59, 0
4, 8484, Note_on_c, 9, 53, 69
4, 8495, Note_on_c, 9, 53, 0
4, 8529, Note_on_c, 9, 59, 68
4, 8569, Note_on_c, 9, 59, 0
4, 8601, Note_on_c, 9, 59, 57
4, 8613, Note_on_c, 9, 59, 0
4, 8642, Note_on_c, 9, 53, 71
4, 8656, Note_on_c, 9, 53, 0
4, 8728, Note_on_c, 9, 59, 63
4, 8741, Note_on_c, 9, 59, 0
4, 8770, Note_on_c, 9, 59, 57
4, 8790, Note_on_c, 9, 59, 0
4, 8844, Note_on_c, 9, 53, 60
4, 8859, Note_on_c, 9, 53, 0
4, 8887, Note_on_c, 9, 59, 66
4, 8921, Note_on_c, 9, 59, 0
4, 8962, Note_on_c, 9, 59, 79
4, 8994, Note_on_c, 9, 59, 0
4, 9125, Note_on_c, 9, 59, 67
4, 9152, Note_on_c, 9, 59, 0
4, 9251, Note_on_c, 9, 59, 78
4, 9277, Note_on_c, 9, 59, 0
4, 9370, Note_on_c, 9, 59, 66
4, 9398, Note_on_c, 9, 59, 0
4, 9482, Note_on_c, 9, 59, 71
4, 9511, Note_on_c, 9, 59, 0
4, 9570, Note_on_c, 9, 59, 58
4, 9582, Note_on_c, 9, 59, 0
4, 9610, Note_on_c, 9, 59, 51
4, 9638, Note_on_c, 9, 59, 0
4, 9725, Note_on_c, 9, 59, 73
4, 9758, Note_on_c, 9, 59, 0
4, 9846, Note_on_c, 9, 59, 74
4, 9876, Note_on_c, 9, 59, 0
4, 9959, Note_on_c, 9, 59, 68
4, 9987, Note_on_c, 9, 59, 0
4, 10049, Note_on_c, 9, 59, 44
4, 10059, Note_on_c, 9, 59, 0
4, 10079, Note_on_c, 9, 59, 66
4, 10112, Note_on_c, 9, 59, 0
4, 10193, Note_on_c, 9, 59, 77
4, 10228, Note_on_c, 9, 59, 0
4, 10320, Note_on_c, 9, 59, 62
4, 10346, Note_on_c, 9, 59, 0
4, 10436, Note_on_c, 9, 59, 78
4, 10468, Note_on_c, 9, 59, 0
4, 10532, Note_on_c, 9, 59, 43
4, 10543, Note_on_c, 9, 59, 0
4, 10644, Note_on_c, 9, 59, 72
4, 10669, Note_on_c, 9, 59, 0
4, 10764, Note_on_c, 9, 59, 48
4, 10775, Note_on_c, 9, 59, 0
4, 10804, Note_on_c, 9, 59, 64
4, 10867, Note_on_c, 9, 59, 0
4, 11003, Note_on_c, 9, 59, 80
4, 11051, Note_on_c, 9, 59, 0
4, 11134, Note_on_c, 9, 59, 26
4, 11144, Note_on_c, 9, 59, 0
4, 11171, Note_on_c, 9, 59, 76
4, 11228, Note_on_c, 9, 59, 0
4, 11293, Note_on_c, 9, 59, 71
4, 11339, Note_on_c, 9, 59, 0
4, 11376, Note_on_c, 9, 59, 57
4, 11387, Note_on_c, 9, 59, 0
4, 11411, Note_on_c, 9, 59, 58
4, 11438, Note_on_c, 9, 59, 0
4, 11493, Note_on_c, 9, 59, 81
4, 11564, Note_on_c, 9, 59, 0
4, 11655, Note_on_c, 9, 59, 69
4, 11682, Note_on_c, 9, 59, 0
4, 11773, Note_on_c, 9, 59, 70
4, 11824, Note_on_c, 9, 59, 0
4, 11892, Note_on_c, 9, 59, 64
4, 11929, Note_on_c, 9, 59, 0
4, 12003, Note_on_c, 9, 59, 67
4, 12014, Note_on_c, 9, 59, 0
4, 12037, Note_on_c, 9, 59, 65
4, 12056, Note_on_c, 9, 59, 0
4, 12134, Note_on_c, 9, 59, 83
4, 12215, Note_on_c, 9, 59, 0
4, 12244, Note_on_c, 9, 59, 44
4, 12260, Note_on_c, 9, 59, 0
4, 12316, Note_on_c, 9, 59, 87
4, 12406, Note_on_c, 9, 59, 0
4, 12444, Note_on_c, 9, 59, 37
4, 12457, Note_on_c, 9, 59, 0
4, 12487, Note_on_c, 9, 59, 74
4, 12564, Note_on_c, 9, 59, 0
4, 12607, Note_on_c, 9, 59, 71
4, 12653, Note_on_c, 9, 59, 0
4, 12695, Note_on_c, 9, 59, 51
4, 12707, Note_on_c, 9, 59, 0
4, 12729, Note_on_c, 9, 59, 71
4, 12773, Note_on_c, 9, 59, 0
4, 12847, Note_on_c, 9, 59, 71
4, 12908, Note_on_c, 9, 59, 0
4, 12967, Note_on_c, 9, 53, 63
4, 12969, Note_on_c, 9, 59, 58
4, 12984, Note_on_c, 9, 59, 0
4, 12989, Note_on_c, 9, 53, 0
4, 13082, Note_on_c, 9, 59, 57
4, 13112, Note_on_c, 9, 59, 0
4, 13170, Note_on_c, 9, 59, 71
4, 13209, Note_on_c, 9, 59, 0
4, 13282, Note_on_c, 9, 59, 60
4, 13295, Note_on_c, 9, 59, 0
4, 13319, Note_on_c, 9, 59, 69
4, 13380, Note_on_c, 9, 59, 0
4, 13443, Note_on_c, 9, 59, 74
4, 13492, Note_on_c, 9, 59, 0
4, 13565, Note_on_c, 9, 59, 76
4, 13612, Note_on_c, 9, 59, 0
4, 13637, Note_on_c, 9, 53, 33
4, 13645, Note_on_c, 9, 53, 0
4, 13672, Note_on_c, 9, 51, 25
4, 13692, Note_on_c, 9, 59, 69
4, 13725, Note_on_c, 9, 59, 0
4, 13763, Note_on_c, 9, 51, 0
4, 13794, Note_on_c, 9, 51, 37
4, 13812, Note_on_c, 9, 47, 60
4, 13813, Note_on_c, 9, 59, 68
4, 13838, Note_on_c, 9, 47, 0
4, 13856, Note_on_c, 9, 59, 0
4, 13873, Note_on_c, 9, 51, 0
4, 13915, Note_on_c, 9, 51, 37
4, 13936, Note_on_c, 9, 59, 55
4, 13966, Note_on_c, 9, 59, 0
4, 13981, Note_on_c, 9, 51, 0
4, 14001, Note_on_c, 9, 51, 32
4, 14015, Note_on_c, 9, 51, 0
4, 14037, Note_on_c, 9, 51, 53
4, 14044, Note_on_c, 9, 59, 62
4, 14081, Note_on_c, 9, 59, 0
4, 14133, Note_on_c, 9, 51, 0
4, 14156, Note_on_c, 9, 51, 44
4, 14159, Note_on_c, 9, 59, 72
4, 14194, Note_on_c, 9, 59, 0
4, 14224, Note_on_c, 9, 51, 0
4, 14244, Note_on_c, 9, 51, 28
4, 14251, Note_on_c, 9, 59, 60
4, 14257, Note_on_c, 9, 51, 0
4, 14263, Note_on_c, 9, 59, 0
4, 14276, Note_on_c, 9, 51, 47
4, 14286, Note_on_c, 9, 59, 68
4, 14319, Note_on_c, 9, 59, 0
4, 14325, Note_on_c, 9, 51, 0
4, 14361, Note_on_c, 9, 51, 58
4, 14366, Note_on_c, 9, 59, 88
4, 14385, Note_on_c, 9, 51, 0
4, 14402, Note_on_c, 9, 51, 55
4, 14446, Note_on_c, 9, 59, 0
4, 14471, Note_on_c, 9, 51, 0
4, 14489, Note_on_c, 9, 59, 37
4, 14490, Note_on_c, 9, 51, 24
4, 14498, Note_on_c, 9, 51, 0
4, 14501, Note_on_c, 9, 59, 0
4, 14521, Note_on_c, 9, 59, 58
4, 14521, Note_on_c, 9, 51, 45
4, 14578, Note_on_c, 9, 59, 0
4, 14601, Note_on_c, 9, 51, 0
4, 14647, Note_on_c, 9, 51, 44
4, 14652, Note_on_c, 9, 59, 68
4, 14679, Note_on_c, 9, 59, 0
4, 14713, Note_on_c, 9, 51, 0
4, 14727, Note_on_c, 9, 51, 20
4, 14738, Note_on_c, 9, 51, 0
4, 14764, Note_on_c, 9, 51, 42
4, 14767, Note_on_c, 9, 46, 67
4, 14769, Note_on_c, 9, 59, 79
4, 14808, Note_on_c, 9, 59, 0
4, 14811, Note_on_c, 9, 51, 0
4, 14823, Note_on_c, 9, 46, 0
4, 14840, Note_on_c, 9, 51, 78
4, 14869, Note_on_c, 9, 59, 30
4, 14880, Note_on_c, 9, 59, 0
4, 14902, Note_on_c, 9, 59, 66
4, 14937, Note_on_c, 9, 59, 0
4, 14942, Note_on_c, 9, 51, 0
4, 14967, Note_on_c, 9, 51, 24
4, 14986, Note_on_c, 9, 51, 0
4, 15003, Note_on_c, 9, 51, 42
4, 15008, Note_on_c, 9, 59, 81
4, 15008, Note_on_c, 9, 46, 71
4, 15042, Note_on_c, 9, 46, 0
4, 15049, Note_on_c, 9, 59, 0
4, 15066, Note_on_c, 9, 51, 0
4, 15125, Note_on_c, 9, 51, 42
4, 15129, Note_on_c, 9, 59, 51
4, 15158, Note_on_c, 9, 59, 0
4, 15186, Note_on_c, 9, 51, 0
4, 15205, Note_on_c, 9, 59, 65
4, 15223, Note_on_c, 9, 59, 0
4, 15246, Note_on_c, 9, 51, 39
4, 15250, Note_on_c, 9, 59, 65
4, 15275, Note_on_c, 9, 59, 0
4, 15312, Note_on_c, 9, 51, 0
4, 15316, Note_on_c, 9, 35, 44
4, 15325, Note_on_c, 9, 35, 0
4, 15360, Note_on_c, 9, 51, 42
4, 15361, Note_on_c, 9, 59, 74
4, 15384, Note_on_c, 9, 59, 0
4, 15462, Note_on_c, 9, 51, 0
4, 15476, Note_on_c, 9, 44, 82
4, 15479, Note_on_c, 9, 59, 83
4, 15483, Note_on_c, 9, 51, 34
4, 15497, Note_on_c, 9, 51, 0
4, 15514, Note_on_c, 9, 59, 0
4, 15527, Note_on_c, 9, 44, 0
4, 15552, Note_on_c, 9, 35, 55
4, 15555, Note_on_c, 9, 51, 49
4, 15570, Note_on_c, 9, 35, 0
4, 15587, Note_on_c, 9, 51, 0
4, 15607, Note_on_c, 9, 59, 46
4, 15622, Note_on_c, 9, 59, 0
4, 15708, Note_on_c, 9, 59, 51
4, 15727, Note_on_c, 9, 51, 48
4, 15746, Note_on_c, 9, 59, 0
4, 15804, Note_on_c, 9, 51, 0
4, 15835, Note_on_c, 9, 59, 45
4, 15841, Note_on_c, 9, 51, 48
4, 15872, Note_on_c, 9, 59, 0
4, 15919, Note_on_c, 9, 51, 0
4, 15919, Note_on_c, 9, 35, 55
4, 15939, Note_on_c, 9, 35, 0
4, 15946, Note_on_c, 9, 59, 57
4, 15959, Note_on_c, 9, 51, 44
4, 15982, Note_on_c, 9, 59, 0
4, 16017, Note_on_c, 9, 51, 0
4, 16039, Note_on_c, 9, 51, 43
4, 16063, Note_on_c, 9, 51, 0
4, 16082, Note_on_c, 9, 51, 27
4, 16147, Note_on_c, 9, 51, 0
4, 16154, Note_on_c, 9, 35, 56
4, 16172, Note_on_c, 9, 35, 0
4, 16197, Note_on_c, 9, 51, 37
4, 16216, Note_on_c, 9, 51, 0
4, 16275, Note_on_c, 9, 51, 55
4, 16302, Note_on_c, 9, 51, 0
4, 16674, Note_on_c, 9, 44, 71
4, 16700, Note_on_c, 9, 44, 0
4, 16916, Note_on_c, 9, 44, 77
4, 16953, Note_on_c, 9, 44, 0
4, 17162, Note_on_c, 9, 44, 84
4, 17224, Note_on_c, 9, 44, 0
4, 17398, Note_on_c, 9, 44, 47
4, 17441, Note_on_c, 9, 44, 0
4, 17640, Note_on_c, 9, 46, 72
4, 17677, Note_on_c, 9, 46, 0
4, 17877, Note_on_c, 9, 44, 81
4, 17910, Note_on_c, 9, 44, 0
4, 18119, Note_on_c, 9, 44, 86
4, 18144, Note_on_c, 9, 44, 0
4, 18351, Note_on_c, 9, 44, 70
4, 18360, Note_on_c, 9, 46, 29
4, 18369, Note_on_c, 9, 46, 0
4, 18378, Note_on_c, 9, 44, 0
4, 18488, Control_c, 9, 1, 34
4, 18493, Control_c, 9, 1, 35
4, 18501, Control_c, 9, 1, 34
4, 18501, Control_c, 9, 1, 32
4, 18503, Control_c, 9, 1, 31
4, 18504, Control_c, 9, 1, 30
4, 18506, Control_c, 9, 1, 29
4, 18506, Control_c, 9, 1, 27
4, 18507, Control_c, 9, 1, 25
4, 18508, Control_c, 9, 1, 23
4, 18509, Control_c, 9, 1, 21
4, 18510, Control_c, 9, 1, 19
4, 18511, Control_c, 9, 1, 17
4, 18512, Control_c, 9, 1, 14
4, 18514, Control_c, 9, 1, 12
4, 18515, Control_c, 9, 1, 10
4, 18516, Control_c, 9, 1, 7
4, 18517, Control_c, 9, 1, 5
4, 18519, Control_c, 9, 1, 3
4, 18519, Control_c, 9, 1, 1
4, 18536, Control_c, 9, 1, 0
4, 18604, Note_on_c, 9, 44, 77
4, 18626, Note_on_c, 9, 44, 0
4, 18841, Note_on_c, 9, 44, 83
4, 18863, Note_on_c, 9, 44, 0
4, 19067, Note_on_c, 9, 46, 76
4, 19087, Note_on_c, 9, 46, 0
4, 19313, Note_on_c, 9, 44, 77
4, 19339, Note_on_c, 9, 44, 0
4, 19555, Note_on_c, 9, 44, 83
4, 19581, Note_on_c, 9, 44, 0
4, 19795, Note_on_c, 9, 44, 82
4, 19822, Note_on_c, 9, 44, 0
4, 19995, Note_on_c, 9, 46, 81
4, 20027, Note_on_c, 9, 46, 0
4, 20276, Note_on_c, 9, 44, 76
4, 20301, Note_on_c, 9, 44, 0
4, 20521, Note_on_c, 9, 44, 72
4, 20547, Note_on_c, 9, 44, 0
4, 20761, Note_on_c, 9, 44, 72
4, 20790, Note_on_c, 9, 44, 0
4, 20994, Note_on_c, 9, 44, 85
4, 21024, Note_on_c, 9, 44, 0
4, 21232, Note_on_c, 9, 44, 77
4, 21260, Note_on_c, 9, 44, 0
4, 21471, Note_on_c, 9, 44, 74
4, 21499, Note_on_c, 9, 44, 0
4, 21706, Note_on_c, 9, 44, 74
4, 21735, Note_on_c, 9, 44, 0
4, 21952, Note_on_c, 9, 44, 77
4, 21985, Note_on_c, 9, 44, 0
4, 22198, Note_on_c, 9, 44, 86
4, 22234, Note_on_c, 9, 44, 0
4, 22436, Note_on_c, 9, 44, 83
4, 22467, Note_on_c, 9, 44, 0
4, 22677, Note_on_c, 9, 46, 62
4, 22705, Note_on_c, 9, 46, 0
4, 22919, Note_on_c, 9, 44, 75
4, 22947, Note_on_c, 9, 44, 0
4, 23165, Note_on_c, 9, 46, 64
4, 23196, Note_on_c, 9, 46, 0
4, 23395, Note_on_c, 9, 46, 71
4, 23439, Note_on_c, 9, 46, 0
4, 23636, Note_on_c, 9, 46, 71
4, 23675, Note_on_c, 9, 46, 0
4, 24123, Note_on_c, 9, 44, 75
4, 24156, Note_on_c, 9, 44, 0
4, 24361, Note_on_c, 9, 44, 85
4, 24392, Note_on_c, 9, 44, 0
4, 24602, Note_on_c, 9, 44, 86
4, 24632, Note_on_c, 9, 44, 0
4, 24843, Note_on_c, 9, 44, 86
4, 24874, Note_on_c, 9, 44, 0
4, 25082, Note_on_c, 9, 44, 83
4, 25112, Note_on_c, 9, 44, 0
4, 25322, Note_on_c, 9, 44, 83
4, 25356, Note_on_c, 9, 44, 0
4, 25556, Note_on_c, 9, 44, 83
4, 25591, Note_on_c, 9, 44, 0
4, 25797, Note_on_c, 9, 46, 68
4, 25830, Note_on_c, 9, 46, 0
4, 26041, Note_on_c, 9, 44, 76
4, 26072, Note_on_c, 9, 44, 0
4, 26283, Note_on_c, 9, 44, 75
4, 26313, Note_on_c, 9, 44, 0
4, 26514, Note_on_c, 9, 44, 75
4, 26549, Note_on_c, 9, 44, 0
4, 26753, Note_on_c, 9, 44, 80
4, 26784, Note_on_c, 9, 44, 0
4, 26992, Note_on_c, 9, 44, 77
4, 27025, Note_on_c, 9, 44, 0
4, 27232, Note_on_c, 9, 44, 77
4, 27270, Note_on_c, 9, 44, 0
4, 27476, Note_on_c, 9, 44, 77
4, 27517, Note_on_c, 9, 44, 0
4, 27724, Note_on_c, 9, 44, 77
4, 27763, Note_on_c, 9, 44, 0
4, 27966, Note_on_c, 9, 44, 76
4, 28008, Note_on_c, 9, 44, 0
4, 28201, Note_on_c, 9, 44, 76
4, 28240, Note_on_c, 9, 44, 0
4, 28443, Note_on_c, 9, 44, 77
4, 28480, Note_on_c, 9, 44, 0
4, 28676, Note_on_c, 9, 44, 76
4, 28718, Note_on_c, 9, 44, 0
4, 28913, Note_on_c, 9, 44, 77
4, 28947, Note_on_c, 9, 44, 0
4, 29159, Note_on_c, 9, 44, 77
4, 29194, Note_on_c, 9, 44, 0
4, 29405, Note_on_c, 9, 44, 77
4, 29437, Note_on_c, 9, 44, 0
4, 29635, Note_on_c, 9, 46, 61
4, 29667, Note_on_c, 9, 46, 0
4, 29875, Note_on_c, 9, 44, 73
4, 29910, Note_on_c, 9, 44, 0
4, 30117, Note_on_c, 9, 44, 75
4, 30148, Note_on_c, 9, 44, 0
4, 30358, Note_on_c, 9, 44, 78
4, 30387, Note_on_c, 9, 44, 0
4, 30590, Note_on_c, 9, 44, 78
4, 30622, Note_on_c, 9, 44, 0
4, 30831, Note_on_c, 9, 44, 77
4, 30864, Note_on_c, 9, 44, 0
4, 31073, Note_on_c, 9, 44, 77
4, 31105, Note_on_c, 9, 44, 0
4, 31312, Note_on_c, 9, 44, 78
4, 31348, Note_on_c, 9, 44, 0
4, 31558, Note_on_c, 9, 44, 77
4, 31594, Note_on_c, 9, 44, 0
4, 31806, Note_on_c, 9, 44, 75
4, 31842, Note_on_c, 9, 44, 0
4, 32040, Note_on_c, 9, 44, 78
4, 32078, Note_on_c, 9, 44, 0
4, 32283, Note_on_c, 9, 44, 77
4, 32315, Note_on_c, 9, 44, 0
4, 32517, Note_on_c, 9, 44, 78
4, 32553, Note_on_c, 9, 44, 0
4, 32761, Note_on_c, 9, 44, 76
4, 32794, Note_on_c, 9, 44, 0
4, 33003, Note_on_c, 9, 44, 77
4, 33036, Note_on_c, 9, 44, 0
4, 33242, Note_on_c, 9, 44, 79
4, 33274, Note_on_c, 9, 44, 0
4, 33476, Note_on_c, 9, 46, 76
4, 33509, Note_on_c, 9, 46, 0
4, 33720, Note_on_c, 9, 44, 78
4, 33753, Note_on_c, 9, 44, 0
4, 33961, Note_on_c, 9, 44, 76
4, 33994, Note_on_c, 9, 44, 0
4, 34202, Note_on_c, 9, 44, 77
4, 34233, Note_on_c, 9, 44, 0
4, 34435, Note_on_c, 9, 46, 64
4, 34465, Note_on_c, 9, 46, 0
4, 34676, Note_on_c, 9, 46, 72
4, 34705, Note_on_c, 9, 46, 0
4, 34912, Note_on_c, 9, 44, 71
4, 34943, Note_on_c, 9, 44, 0
4, 35154, Note_on_c, 9, 44, 78
4, 35183, Note_on_c, 9, 44, 0
4, 35355, Note_on_c, 9, 46, 67
4, 35397, Note_on_c, 9, 46, 0
4, 35640, Note_on_c, 9, 44, 74
4, 35675, Note_on_c, 9, 44, 0
4, 35887, Note_on_c, 9, 44, 76
4, 35918, Note_on_c, 9, 44, 0
4, 36116, Note_on_c, 9, 44, 75
4, 36153, Note_on_c, 9, 44, 0
4, 36358, Note_on_c, 9, 44, 76
4, 36395, Note_on_c, 9, 44, 0
4, 36596, Note_on_c, 9, 44, 74
4, 36626, Note_on_c, 9, 44, 0
4, 36839, Note_on_c, 9, 44, 75
4, 36868, Note_on_c, 9, 44, 0
4, 37082, Note_on_c, 9, 44, 74
4, 37113, Note_on_c, 9, 44, 0
4, 37320, Note_on_c, 9, 44, 76
4, 37357, Note_on_c, 9, 44, 0
4, 37553, Note_on_c, 9, 44, 78
4, 37593, Note_on_c, 9, 44, 0
4, 37795, Note_on_c, 9, 44, 81
4, 37834, Note_on_c, 9, 44, 0
4, 38039, Note_on_c, 9, 44, 68
4, 38066, Note_on_c, 9, 44, 0
4, 38242, Note_on_c, 9, 44, 43
4, 38250, Note_on_c, 9, 44, 0
4, 38275, Note_on_c, 9, 44, 73
4, 38339, Note_on_c, 9, 44, 0
4, 38511, Note_on_c, 9, 44, 80
4, 38548, Note_on_c, 9, 44, 0
4, 38751, Note_on_c, 9, 44, 78
4, 38787, Note_on_c, 9, 44, 0
4, 38999, Note_on_c, 9, 44, 78
4, 39030, Note_on_c, 9, 44, 0
4, 39233, Note_on_c, 9, 46, 70
4, 39269, Note_on_c, 9, 46, 0
4, 39475, Note_on_c, 9, 44, 75
4, 39514, Note_on_c, 9, 44, 0
4, 39717, Note_on_c, 9, 44, 77
4, 39755, Note_on_c, 9, 44, 0
4, 39959, Note_on_c, 9, 44, 77
4, 39995, Note_on_c, 9, 44, 0
4, 40199, Note_on_c, 9, 44, 76
4, 40233, Note_on_c, 9, 44, 0
4, 40436, Note_on_c, 9, 44, 77
4, 40471, Note_on_c, 9, 44, 0
4, 40674, Note_on_c, 9, 44, 76
4, 40710, Note_on_c, 9, 44, 0
4, 40913, Note_on_c, 9, 44, 77
4, 40946, Note_on_c, 9, 44, 0
4, 41156, Note_on_c, 9, 46, 62
4, 41187, Note_on_c, 9, 46, 0
4, 41403, Note_on_c, 9, 44, 77
4, 41434, Note_on_c, 9, 44, 0
4, 41643, Note_on_c, 9, 44, 78
4, 41677, Note_on_c, 9, 44, 0
4, 41880, Note_on_c, 9, 44, 77
4, 41917, Note_on_c, 9, 44, 0
4, 42127, Note_on_c, 9, 44, 75
4, 42165, Note_on_c, 9, 44, 0
4, 42362, Note_on_c, 9, 44, 78
4, 42403, Note_on_c, 9, 44, 0
4, 42602, Note_on_c, 9, 44, 74
4, 42639, Note_on_c, 9, 44, 0
4, 42844, Note_on_c, 9, 44, 74
4, 42878, Note_on_c, 9, 44, 0
4, 43080, Note_on_c, 9, 44, 74
4, 43118, Note_on_c, 9, 44, 0
4, 43316, Note_on_c, 9, 44, 74
4, 43353, Note_on_c, 9, 44, 0
4, 43548, Note_on_c, 9, 44, 74
4, 43581, Note_on_c, 9, 44, 0
4, 43799, Note_on_c, 9, 44, 76
4, 43833, Note_on_c, 9, 44, 0
4, 44040, Note_on_c, 9, 46, 74
4, 44072, Note_on_c, 9, 46, 0
4, 44286, Note_on_c, 9, 44, 75
4, 44318, Note_on_c, 9, 44, 0
4, 44523, Note_on_c, 9, 44, 76
4, 44562, Note_on_c, 9, 44, 0
4, 44764, Note_on_c, 9, 44, 77
4, 44799, Note_on_c, 9, 44, 0
4, 45001, Note_on_c, 9, 44, 75
4, 45035, Note_on_c, 9, 44, 0
4, 45239, Note_on_c, 9, 46, 69
4, 45275, Note_on_c, 9, 46, 0
4, 45478, Note_on_c, 9, 46, 77
4, 45515, Note_on_c, 9, 46, 0
4, 45680, Note_on_c, 9, 46, 39
4, 45691, Note_on_c, 9, 46, 0
4, 45718, Note_on_c, 9, 46, 76
4, 45790, Note_on_c, 9, 46, 0
4, 45955, Note_on_c, 9, 46, 71
4, 45990, Note_on_c, 9, 46, 0
4, 46196, Note_on_c, 9, 46, 77
4, 46230, Note_on_c, 9, 46, 0
4, 46393, Note_on_c, 9, 46, 77
4, 46420, Note_on_c, 9, 46, 0
4, 46558, Note_on_c, 9, 46, 77
4, 46585, Note_on_c, 9, 46, 0
4, 46879, Note_on_c, 9, 46, 45
4, 46889, Note_on_c, 9, 46, 0
4, 46919, Note_on_c, 9, 46, 57
4, 46933, Note_on_c, 9, 46, 0
4, 46933, End_track
5, 0, Start_track
5, 0, MIDI_port, 0
5, 0, Title_t, ""
5, 480, Note_on_c, 9, 44, 60
5, 506, Note_on_c, 9, 44, 0
5, 601, Note_on_c, 9, 44, 38
5, 656, Note_on_c, 9, 44, 0
5, 719, Note_on_c, 9, 44, 46
5, 772, Note_on_c, 9, 44, 0
5, 835, Note_on_c, 9, 44, 44
5, 900, Note_on_c, 9, 44, 0
5, 1082, Note_on_c, 9, 44, 77
5, 1141, Note_on_c, 9, 44, 0
5, 1316, Note_on_c, 9, 44, 71
5, 1375, Note_on_c, 9, 44, 0
5, 1559, Note_on_c, 9, 44, 68
5, 1615, Note_on_c, 9, 44, 0
5, 1797, Note_on_c, 9, 44, 46
5, 1803, Note_on_c, 9, 46, 26
5, 1812, Note_on_c, 9, 46, 0
5, 1863, Note_on_c, 9, 44, 0
5, 2034, Note_on_c, 9, 44, 69
5, 2082, Note_on_c, 9, 44, 0
5, 2272, Note_on_c, 9, 44, 70
5, 2341, Note_on_c, 9, 44, 0
5, 2503, Note_on_c, 9, 44, 70
5, 2555, Note_on_c, 9, 44, 0
5, 2752, Note_on_c, 9, 46, 43
5, 2783, Note_on_c, 9, 46, 0
5, 2988, Note_on_c, 9, 44, 52
5, 3033, Note_on_c, 9, 44, 0
5, 3238, Note_on_c, 9, 44, 77
5, 3287, Note_on_c, 9, 44, 0
5, 3471, Note_on_c, 9, 44, 48
5, 3515, Note_on_c, 9, 44, 0
5, 3708, Note_on_c, 9, 44, 55
5, 3772, Note_on_c, 9, 44, 0
5, 3960, Note_on_c, 9, 44, 85
5, 4013, Note_on_c, 9, 44, 0
5, 4197, Note_on_c, 9, 44, 50
5, 4257, Note_on_c, 9, 44, 0
5, 4435, Note_on_c, 9, 44, 80
5, 4485, Note_on_c, 9, 44, 0
5, 4680, Note_on_c, 9, 44, 83
5, 4754, Note_on_c, 9, 44, 0
5, 4914, Note_on_c, 9, 44, 76
5, 4965, Note_on_c, 9, 44, 0
5, 5156, Note_on_c, 9, 46, 63
5, 5195, Note_on_c, 9, 46, 0
5, 5398, Note_on_c, 9, 44, 73
5, 5443, Note_on_c, 9, 44, 0
5, 5638, Note_on_c, 9, 44, 59
5, 5685, Note_on_c, 9, 44, 0
5, 5871, Note_on_c, 9, 44, 64
5, 5918, Note_on_c, 9, 44, 0
5, 6114, Note_on_c, 9, 44, 68
5, 6164, Note_on_c, 9, 44, 0
5, 6353, Note_on_c, 9, 44, 68
5, 6406, Note_on_c, 9, 44, 0
5, 6586, Note_on_c, 9, 44, 79
5, 6635, Note_on_c, 9, 44, 0
5, 6831, Note_on_c, 9, 44, 75
5, 6885, Note_on_c, 9, 44, 0
5, 7070, Note_on_c, 9, 44, 74
5, 7126, Note_on_c, 9, 44, 0
5, 7316, Note_on_c, 9, 44, 75
5, 7366, Note_on_c, 9, 44, 0
5, 7562, Note_on_c, 9, 44, 76
5, 7610, Note_on_c, 9, 44, 0
5, 7796, Note_on_c, 9, 44, 73
5, 7848, Note_on_c, 9, 44, 0
5, 8036, Note_on_c, 9, 46, 65
5, 8074, Note_on_c, 9, 46, 0
5, 8275, Note_on_c, 9, 44, 65
5, 8306, Note_on_c, 9, 44, 0
5, 8516, Note_on_c, 9, 44, 70
5, 8587, Note_on_c, 9, 44, 0
5, 8762, Note_on_c, 9, 44, 67
5, 8813, Note_on_c, 9, 44, 0
5, 8997, Note_on_c, 9, 44, 74
5, 9045, Note_on_c, 9, 44, 0
5, 9244, Note_on_c, 9, 44, 67
5, 9285, Note_on_c, 9, 44, 0
5, 9482, Note_on_c, 9, 44, 74
5, 9526, Note_on_c, 9, 44, 0
5, 9712, Note_on_c, 9, 44, 76
5, 9756, Note_on_c, 9, 44, 0
5, 9952, Note_on_c, 9, 46, 70
5, 9984, Note_on_c, 9, 46, 0
5, 10197, Note_on_c, 9, 44, 53
5, 10235, Note_on_c, 9, 44, 0
5, 10438, Note_on_c, 9, 44, 75
5, 10485, Note_on_c, 9, 44, 0
5, 10677, Note_on_c, 9, 44, 35
5, 10720, Note_on_c, 9, 44, 0
5, 10920, Note_on_c, 9, 44, 40
5, 10960, Note_on_c, 9, 44, 0
5, 11168, Note_on_c, 9, 46, 53
5, 11218, Note_on_c, 9, 46, 0
5, 11387, Note_on_c, 9, 44, 54
5, 11433, Note_on_c, 9, 44, 0
5, 11639, Note_on_c, 9, 44, 56
5, 11682, Note_on_c, 9, 44, 0
5, 11881, Note_on_c, 9, 44, 63
5, 11920, Note_on_c, 9, 44, 0
5, 12122, Note_on_c, 9, 46, 51
5, 12152, Note_on_c, 9, 46, 0
5, 12354, Note_on_c, 9, 44, 60
5, 12387, Note_on_c, 9, 44, 0
5, 12599, Note_on_c, 9, 44, 68
5, 12634, Note_on_c, 9, 44, 0
5, 12839, Note_on_c, 9, 44, 64
5, 12876, Note_on_c, 9, 44, 0
5, 13081, Note_on_c, 9, 44, 67
5, 13117, Note_on_c, 9, 44, 0
5, 13314, Note_on_c, 9, 44, 70
5, 13349, Note_on_c, 9, 44, 0
5, 13560, Note_on_c, 9, 44, 67
5, 13597, Note_on_c, 9, 44, 0
5, 13794, Note_on_c, 9, 44, 69
5, 13830, Note_on_c, 9, 44, 0
5, 14035, Note_on_c, 9, 44, 69
5, 14070, Note_on_c, 9, 44, 0
5, 14278, Note_on_c, 9, 44, 68
5, 14314, Note_on_c, 9, 44, 0
5, 14523, Note_on_c, 9, 44, 71
5, 14556, Note_on_c, 9, 44, 0
5, 14766, Note_on_c, 9, 44, 71
5, 14797, Note_on_c, 9, 44, 0
5, 14998, Note_on_c, 9, 59, 55
5, 14999, Note_on_c, 9, 46, 63
5, 15011, Note_on_c, 9, 59, 0
5, 15032, Note_on_c, 9, 46, 0
5, 15244, Note_on_c, 9, 46, 65
5, 15287, Note_on_c, 9, 46, 0
5, 15444, Note_on_c, 9, 59, 36
5, 15462, Note_on_c, 9, 59, 0
5, 15480, Note_on_c, 9, 46, 71
5, 15483, Note_on_c, 9, 59, 69
5, 15532, Note_on_c, 9, 59, 0
5, 15532, Note_on_c, 9, 46, 0
5, 15677, Note_on_c, 9, 59, 46
5, 15689, Note_on_c, 9, 59, 0
5, 15717, Note_on_c, 9, 59, 68
5, 15720, Note_on_c, 9, 46, 74
5, 15767, Note_on_c, 9, 46, 0
5, 15797, Note_on_c, 9, 59, 0
5, 15926, Note_on_c, 9, 59, 44
5, 15936, Note_on_c, 9, 59, 0
5, 15957, Note_on_c, 9, 59, 75
5, 15964, Note_on_c, 9, 46, 78
5, 16020, Note_on_c, 9, 46, 0
5, 16176, Note_on_c, 9, 59, 0
5, 16193, Note_on_c, 9, 51, 74
5, 16198, Note_on_c, 9, 46, 79
5, 16212, Note_on_c, 9, 51, 0
5, 16223, Note_on_c, 9, 46, 0
5, 16318, Note_on_c, 9, 51, 91
5, 16401, Note_on_c, 9, 51, 0
5, 16442, Note_on_c, 9, 51, 69
5, 16500, Note_on_c, 9, 51, 0
5, 16528, Note_on_c, 9, 51, 63
5, 16541, Note_on_c, 9, 51, 0
5, 16560, Note_on_c, 9, 51, 83
5, 16648, Note_on_c, 9, 51, 0
5, 16680, Note_on_c, 9, 51, 68
5, 16752, Note_on_c, 9, 51, 0
5, 16879, Note_on_c, 9, 51, 60
5, 16893, Note_on_c, 9, 51, 0
5, 16912, Note_on_c, 9, 51, 77
5, 16990, Note_on_c, 9, 51, 0
5, 17034, Note_on_c, 9, 51, 87
5, 17128, Note_on_c, 9, 51, 0
5, 17248, Note_on_c, 9, 51, 47
5, 17257, Note_on_c, 9, 51, 0
5, 17282, Note_on_c, 9, 51, 68
5, 17364, Note_on_c, 9, 51, 0
5, 17403, Note_on_c, 9, 54, 83
5, 17458, Note_on_c, 9, 54, 0
5, 17512, Note_on_c, 9, 51, 52
5, 17551, Note_on_c, 9, 51, 0
5, 17601, Note_on_c, 9, 53, 81
5, 17652, Note_on_c, 9, 53, 0
5, 17737, Note_on_c, 9, 51, 39
5, 17746, Note_on_c, 9, 51, 0
5, 17774, Note_on_c, 9, 51, 81
5, 17840, Note_on_c, 9, 51, 0
5, 17951, Note_on_c, 9, 51, 83
5, 17992, Note_on_c, 9, 51, 0
5, 18117, Note_on_c, 9, 53, 91
5, 18184, Note_on_c, 9, 53, 0
5, 18198, Note_on_c, 9, 51, 61
5, 18214, Note_on_c, 9, 51, 0
5, 18236, Note_on_c, 9, 51, 60
5, 18315, Note_on_c, 9, 51, 0
5, 18361, Note_on_c, 9, 51, 62
5, 18421, Note_on_c, 9, 51, 0
5, 18442, Note_on_c, 9, 51, 37
5, 18454, Note_on_c, 9, 51, 0
5, 18472, Note_on_c, 9, 51, 69
5, 18560, Note_on_c, 9, 51, 0
5, 18599, Note_on_c, 9, 51, 85
5, 18681, Note_on_c, 9, 51, 0
5, 18723, Note_on_c, 9, 51, 34
5, 18768, Note_on_c, 9, 51, 0
5, 18841, Note_on_c, 9, 51, 68
5, 18918, Note_on_c, 9, 51, 0
5, 18956, Note_on_c, 9, 51, 77
5, 19021, Note_on_c, 9, 51, 0
5, 19069, Note_on_c, 9, 51, 69
5, 19095, Note_on_c, 9, 51, 0
5, 19160, Note_on_c, 9, 51, 59
5, 19168, Note_on_c, 9, 51, 0
5, 19188, Note_on_c, 9, 51, 64
5, 19255, Note_on_c, 9, 51, 0
5, 19312, Note_on_c, 9, 51, 82
5, 19377, Note_on_c, 9, 51, 0
5, 19437, Note_on_c, 9, 51, 71
5, 19495, Note_on_c, 9, 51, 0
5, 19550, Note_on_c, 9, 51, 79
5, 19625, Note_on_c, 9, 51, 0
5, 19674, Note_on_c, 9, 51, 62
5, 19722, Note_on_c, 9, 51, 0
5, 19796, Note_on_c, 9, 51, 75
5, 19855, Note_on_c, 9, 51, 0
5, 19921, Note_on_c, 9, 51, 73
5, 19974, Note_on_c, 9, 51, 0
5, 20038, Note_on_c, 9, 51, 74
5, 20080, Note_on_c, 9, 51, 0
5, 20129, Note_on_c, 9, 51, 56
5, 20137, Note_on_c, 9, 51, 0
5, 20157, Note_on_c, 9, 51, 61
5, 20230, Note_on_c, 9, 51, 0
5, 20282, Note_on_c, 9, 51, 82
5, 20341, Note_on_c, 9, 51, 0
5, 20399, Note_on_c, 9, 51, 69
5, 20451, Note_on_c, 9, 51, 0
5, 20519, Note_on_c, 9, 51, 79
5, 20560, Note_on_c, 9, 51, 0
5, 20609, Note_on_c, 9, 51, 47
5, 20619, Note_on_c, 9, 51, 0
5, 20635, Note_on_c, 9, 51, 58
5, 20692, Note_on_c, 9, 51, 0
5, 20761, Note_on_c, 9, 51, 79
5, 20811, Note_on_c, 9, 51, 0
5, 20856, Note_on_c, 9, 51, 44
5, 20865, Note_on_c, 9, 51, 0
5, 20882, Note_on_c, 9, 51, 60
5, 20922, Note_on_c, 9, 51, 0
5, 20965, Note_on_c, 9, 53, 66
5, 20987, Note_on_c, 9, 53, 0
5, 20997, Note_on_c, 9, 51, 37
5, 21053, Note_on_c, 9, 51, 0
5, 21077, Note_on_c, 9, 51, 38
5, 21091, Note_on_c, 9, 51, 0
5, 21111, Note_on_c, 9, 51, 58
5, 21177, Note_on_c, 9, 51, 0
5, 21233, Note_on_c, 9, 51, 80
5, 21287, Note_on_c, 9, 51, 0
5, 21357, Note_on_c, 9, 51, 60
5, 21416, Note_on_c, 9, 51, 0
5, 21469, Note_on_c, 9, 51, 81
5, 21534, Note_on_c, 9, 51, 0
5, 21590, Note_on_c, 9, 51, 45
5, 21601, Note_on_c, 9, 51, 0
5, 21677, Note_on_c, 9, 51, 30
5, 21686, Note_on_c, 9, 51, 0
5, 21702, Note_on_c, 9, 51, 70
5, 21777, Note_on_c, 9, 51, 0
5, 21826, Note_on_c, 9, 51, 77
5, 21879, Note_on_c, 9, 51, 0
5, 21945, Note_on_c, 9, 51, 77
5, 21987, Note_on_c, 9, 51, 0
5, 22069, Note_on_c, 9, 51, 69
5, 22122, Note_on_c, 9, 51, 0
5, 22158, Note_on_c, 9, 51, 67
5, 22175, Note_on_c, 9, 51, 0
5, 22191, Note_on_c, 9, 51, 65
5, 22255, Note_on_c, 9, 51, 0
5, 22314, Note_on_c, 9, 51, 63
5, 22352, Note_on_c, 9, 51, 0
5, 22398, Note_on_c, 9, 51, 38
5, 22408, Note_on_c, 9, 51, 0
5, 22430, Note_on_c, 9, 51, 74
5, 22513, Note_on_c, 9, 51, 0
5, 22556, Note_on_c, 9, 51, 78
5, 22605, Note_on_c, 9, 51, 0
5, 22676, Note_on_c, 9, 51, 78
5, 22728, Note_on_c, 9, 51, 0
5, 22800, Note_on_c, 9, 51, 75
5, 22845, Note_on_c, 9, 51, 0
5, 22890, Note_on_c, 9, 51, 48
5, 22900, Note_on_c, 9, 51, 0
5, 22922, Note_on_c, 9, 51, 60
5, 22977, Note_on_c, 9, 51, 0
5, 23043, Note_on_c, 9, 51, 79
5, 23088, Note_on_c, 9, 51, 0
5, 23160, Note_on_c, 9, 51, 77
5, 23196, Note_on_c, 9, 51, 0
5, 23254, Note_on_c, 9, 51, 38
5, 23263, Note_on_c, 9, 51, 0
5, 23281, Note_on_c, 9, 51, 69
5, 23325, Note_on_c, 9, 51, 0
5, 23357, Note_on_c, 9, 53, 72
5, 23388, Note_on_c, 9, 53, 0
5, 23401, Note_on_c, 9, 51, 40
5, 23444, Note_on_c, 9, 51, 0
5, 23482, Note_on_c, 9, 51, 27
5, 23491, Note_on_c, 9, 51, 0
5, 23514, Note_on_c, 9, 51, 57
5, 23566, Note_on_c, 9, 51, 0
5, 23595, Note_on_c, 9, 53, 72
5, 23627, Note_on_c, 9, 53, 0
5, 23646, Note_on_c, 9, 51, 36
5, 23657, Note_on_c, 9, 51, 0
5, 23718, Note_on_c, 9, 51, 57
5, 23726, Note_on_c, 9, 51, 0
5, 23760, Note_on_c, 9, 53, 78
5, 23821, Note_on_c, 9, 53, 0
5, 23831, Note_on_c, 9, 51, 45
5, 23841, Note_on_c, 9, 51, 0
5, 23955, Note_on_c, 9, 51, 92
5, 23991, Note_on_c, 9, 51, 0
5, 24119, Note_on_c, 9, 51, 85
5, 24174, Note_on_c, 9, 51, 0
5, 24315, Note_on_c, 9, 51, 87
5, 24354, Note_on_c, 9, 51, 0
5, 24447, Note_on_c, 9, 51, 25
5, 24457, Note_on_c, 9, 51, 0
5, 24482, Note_on_c, 9, 51, 77
5, 24550, Note_on_c, 9, 51, 0
5, 24613, Note_on_c, 9, 51, 43
5, 24625, Note_on_c, 9, 51, 0
5, 24685, Note_on_c, 9, 51, 76
5, 24717, Note_on_c, 9, 51, 0
5, 24798, Note_on_c, 9, 51, 64
5, 24838, Note_on_c, 9, 51, 0
5, 24845, Note_on_c, 9, 59, 95
5, 24891, Note_on_c, 9, 59, 0
5, 24916, Note_on_c, 9, 51, 60
5, 24937, Note_on_c, 9, 51, 0
5, 25033, Note_on_c, 9, 59, 101
5, 25060, Note_on_c, 9, 59, 0
5, 25206, Note_on_c, 9, 51, 74
5, 25254, Note_on_c, 9, 51, 0
5, 25272, Note_on_c, 9, 51, 49
5, 25283, Note_on_c, 9, 51, 0
5, 25392, Note_on_c, 9, 51, 84
5, 25429, Note_on_c, 9, 51, 0
5, 25517, Note_on_c, 9, 51, 34
5, 25525, Note_on_c, 9, 51, 0
5, 25549, Note_on_c, 9, 51, 60
5, 25617, Note_on_c, 9, 51, 0
5, 25639, Note_on_c, 9, 51, 35
5, 25650, Note_on_c, 9, 51, 0
5, 25759, Note_on_c, 9, 51, 78
5, 25780, Note_on_c, 9, 51, 0
5, 25799, Note_on_c, 9, 51, 60
5, 25859, Note_on_c, 9, 51, 0
5, 25923, Note_on_c, 9, 51, 85
5, 25976, Note_on_c, 9, 51, 0
5, 26043, Note_on_c, 9, 51, 90
5, 26104, Note_on_c, 9, 51, 0
5, 26166, Note_on_c, 9, 51, 91
5, 26214, Note_on_c, 9, 51, 0
5, 26253, Note_on_c, 9, 51, 43
5, 26263, Note_on_c, 9, 51, 0
5, 26282, Note_on_c, 9, 51, 64
5, 26333, Note_on_c, 9, 51, 0
5, 26368, Note_on_c, 9, 51, 92
5, 26434, Note_on_c, 9, 51, 0
5, 26485, Note_on_c, 9, 51, 37
5, 26494, Note_on_c, 9, 51, 0
5, 26525, Note_on_c, 9, 51, 64
5, 26577, Note_on_c, 9, 51, 0
5, 26595, Note_on_c, 9, 51, 79
5, 26648, Note_on_c, 9, 51, 0
5, 26715, Note_on_c, 9, 51, 55
5, 26729, Note_on_c, 9, 51, 0
5, 26754, Note_on_c, 9, 51, 80
5, 26830, Note_on_c, 9, 51, 0
5, 26870, Note_on_c, 9, 51, 82
5, 26931, Note_on_c, 9, 51, 0
5, 26994, Note_on_c, 9, 51, 83
5, 27047, Note_on_c, 9, 51, 0
5, 27084, Note_on_c, 9, 51, 46
5, 27095, Note_on_c, 9, 51, 0
5, 27112, Note_on_c, 9, 51, 75
5, 27175, Note_on_c, 9, 51, 0
5, 27234, Note_on_c, 9, 51, 84
5, 27288, Note_on_c, 9, 51, 0
5, 27328, Note_on_c, 9, 51, 45
5, 27339, Note_on_c, 9, 51, 0
5, 27360, Note_on_c, 9, 51, 68
5, 27423, Note_on_c, 9, 51, 0
5, 27477, Note_on_c, 9, 51, 85
5, 27546, Note_on_c, 9, 51, 0
5, 27598, Note_on_c, 9, 51, 82
5, 27663, Note_on_c, 9, 51, 0
5, 27720, Note_on_c, 9, 51, 83
5, 27795, Note_on_c, 9, 51, 0
5, 27838, Note_on_c, 9, 51, 79
5, 27911, Note_on_c, 9, 51, 0
5, 27962, Note_on_c, 9, 51, 79
5, 28020, Note_on_c, 9, 51, 0
5, 28081, Note_on_c, 9, 51, 73
5, 28132, Note_on_c, 9, 51, 0
5, 28160, Note_on_c, 9, 53, 51
5, 28182, Note_on_c, 9, 53, 0
5, 28214, Note_on_c, 9, 51, 9
5, 28238, Note_on_c, 9, 51, 0
5, 28275, Note_on_c, 9, 51, 77
5, 28297, Note_on_c, 9, 51, 0
5, 28318, Note_on_c, 9, 51, 65
5, 28386, Note_on_c, 9, 51, 0
5, 28437, Note_on_c, 9, 51, 83
5, 28499, Note_on_c, 9, 51, 0
5, 28534, Note_on_c, 9, 51, 33
5, 28545, Note_on_c, 9, 51, 0
5, 28562, Note_on_c, 9, 51, 65
5, 28623, Note_on_c, 9, 51, 0
5, 28679, Note_on_c, 9, 51, 85
5, 28736, Note_on_c, 9, 51, 0
5, 28798, Note_on_c, 9, 51, 60
5, 28854, Note_on_c, 9, 51, 0
5, 28914, Note_on_c, 9, 51, 83
5, 28980, Note_on_c, 9, 51, 0
5, 29033, Note_on_c, 9, 51, 73
5, 29079, Note_on_c, 9, 51, 0
5, 29157, Note_on_c, 9, 51, 87
5, 29214, Note_on_c, 9, 51, 0
5, 29242, Note_on_c, 9, 51, 33
5, 29259, Note_on_c, 9, 51, 0
5, 29277, Note_on_c, 9, 51, 68
5, 29334, Note_on_c, 9, 51, 0
5, 29396, Note_on_c, 9, 51, 75
5, 29453, Note_on_c, 9, 51, 0
5, 29520, Note_on_c, 9, 51, 72
5, 29562, Note_on_c, 9, 51, 0
5, 29635, Note_on_c, 9, 51, 80
5, 29705, Note_on_c, 9, 51, 0
5, 29752, Note_on_c, 9, 51, 68
5, 29778, Note_on_c, 9, 51, 0
5, 29879, Note_on_c, 9, 51, 64
5, 29934, Note_on_c, 9, 51, 0
5, 30002, Note_on_c, 9, 51, 67
5, 30071, Note_on_c, 9, 51, 0
5, 30084, Note_on_c, 9, 59, 64
5, 30093, Note_on_c, 9, 59, 0
5, 30123, Note_on_c, 9, 51, 50
5, 30154, Note_on_c, 9, 51, 0
5, 30242, Note_on_c, 9, 51, 71
5, 30286, Note_on_c, 9, 51, 0
5, 30365, Note_on_c, 9, 51, 73
5, 30400, Note_on_c, 9, 51, 0
5, 30479, Note_on_c, 9, 51, 75
5, 30538, Note_on_c, 9, 51, 0
5, 30556, Note_on_c, 9, 59, 83
5, 30574, Note_on_c, 9, 59, 0
5, 30598, Note_on_c, 9, 51, 59
5, 30632, Note_on_c, 9, 51, 0
5, 30710, Note_on_c, 9, 51, 70
5, 30785, Note_on_c, 9, 51, 0
5, 30794, Note_on_c, 9, 59, 72
5, 30804, Note_on_c, 9, 59, 0
5, 30916, Note_on_c, 9, 51, 39
5, 30925, Note_on_c, 9, 51, 0
5, 30955, Note_on_c, 9, 59, 89
5, 31010, Note_on_c, 9, 59, 0
5, 31062, Note_on_c, 9, 51, 36
5, 31073, Note_on_c, 9, 51, 0
5, 31149, Note_on_c, 9, 59, 92
5, 31186, Note_on_c, 9, 59, 0
5, 31273, Note_on_c, 9, 51, 72
5, 31291, Note_on_c, 9, 51, 0
5, 31315, Note_on_c, 9, 59, 91
5, 31489, Note_on_c, 9, 59, 0
5, 31519, Note_on_c, 9, 51, 87
5, 31540, Note_on_c, 9, 51, 0
5, 31560, Note_on_c, 9, 59, 89
5, 31632, Note_on_c, 9, 59, 0
5, 31678, Note_on_c, 9, 59, 89
5, 31754, Note_on_c, 9, 59, 0
5, 31803, Note_on_c, 9, 59, 83
5, 31867, Note_on_c, 9, 59, 0
5, 31893, Note_on_c, 9, 59, 53
5, 31906, Note_on_c, 9, 59, 0
5, 31926, Note_on_c, 9, 59, 78
5, 31998, Note_on_c, 9, 59, 0
5, 32041, Note_on_c, 9, 59, 90
5, 32114, Note_on_c, 9, 59, 0
5, 32163, Note_on_c, 9, 59, 88
5, 32227, Note_on_c, 9, 59, 0
5, 32282, Note_on_c, 9, 59, 87
5, 32341, Note_on_c, 9, 59, 0
5, 32367, Note_on_c, 9, 59, 44
5, 32377, Note_on_c, 9, 59, 0
5, 32398, Note_on_c, 9, 59, 74
5, 32466, Note_on_c, 9, 59, 0
5, 32516, Note_on_c, 9, 59, 88
5, 32583, Note_on_c, 9, 59, 0
5, 32606, Note_on_c, 9, 59, 54
5, 32622, Note_on_c, 9, 59, 0
5, 32640, Note_on_c, 9, 59, 85
5, 32705, Note_on_c, 9, 59, 0
5, 32755, Note_on_c, 9, 59, 85
5, 32817, Note_on_c, 9, 59, 0
5, 32841, Note_on_c, 9, 59, 51
5, 32854, Note_on_c, 9, 59, 0
5, 32878, Note_on_c, 9, 59, 72
5, 32934, Note_on_c, 9, 59, 0
5, 33000, Note_on_c, 9, 59, 85
5, 33050, Note_on_c, 9, 59, 0
5, 33117, Note_on_c, 9, 59, 84
5, 33175, Note_on_c, 9, 59, 0
5, 33239, Note_on_c, 9, 59, 83
5, 33289, Note_on_c, 9, 59, 0
5, 33327, Note_on_c, 9, 59, 57
5, 33337, Note_on_c, 9, 59, 0
5, 33360, Note_on_c, 9, 59, 74
5, 33421, Note_on_c, 9, 59, 0
5, 33479, Note_on_c, 9, 59, 81
5, 33537, Note_on_c, 9, 59, 0
5, 33563, Note_on_c, 9, 59, 45
5, 33576, Note_on_c, 9, 59, 0
5, 33596, Note_on_c, 9, 59, 74
5, 33660, Note_on_c, 9, 59, 0
5, 33719, Note_on_c, 9, 59, 84
5, 33773, Note_on_c, 9, 59, 0
5, 33804, Note_on_c, 9, 59, 45
5, 33822, Note_on_c, 9, 59, 0
5, 33840, Note_on_c, 9, 59, 77
5, 33892, Note_on_c, 9, 59, 0
5, 33959, Note_on_c, 9, 59, 83
5, 34002, Note_on_c, 9, 59, 0
5, 34042, Note_on_c, 9, 59, 44
5, 34052, Note_on_c, 9, 59, 0
5, 34076, Note_on_c, 9, 59, 68
5, 34112, Note_on_c, 9, 59, 0
5, 34160, Note_on_c, 9, 59, 63
5, 34167, Note_on_c, 9, 59, 0
5, 34191, Note_on_c, 9, 59, 78
5, 34271, Note_on_c, 9, 59, 0
5, 34309, Note_on_c, 9, 59, 84
5, 34374, Note_on_c, 9, 59, 0
5, 34397, Note_on_c, 9, 59, 49
5, 34408, Note_on_c, 9, 59, 0
5, 34426, Note_on_c, 9, 59, 76
5, 34503, Note_on_c, 9, 59, 0
5, 34550, Note_on_c, 9, 59, 80
5, 34614, Note_on_c, 9, 59, 0
5, 34672, Note_on_c, 9, 59, 78
5, 34736, Note_on_c, 9, 59, 0
5, 34797, Note_on_c, 9, 59, 75
5, 34853, Note_on_c, 9, 59, 0
5, 34877, Note_on_c, 9, 59, 43
5, 34888, Note_on_c, 9, 59, 0
5, 34908, Note_on_c, 9, 59, 62
5, 34959, Note_on_c, 9, 59, 0
5, 34995, Note_on_c, 9, 59, 83
5, 35068, Note_on_c, 9, 59, 0
5, 35108, Note_on_c, 9, 59, 47
5, 35118, Note_on_c, 9, 59, 0
5, 35152, Note_on_c, 9, 59, 82
5, 35237, Note_on_c, 9, 59, 0
5, 35275, Note_on_c, 9, 59, 33
5, 35310, Note_on_c, 9, 59, 0
5, 35349, Note_on_c, 9, 59, 67
5, 35371, Note_on_c, 9, 59, 0
5, 35392, Note_on_c, 9, 59, 72
5, 35449, Note_on_c, 9, 59, 0
5, 35479, Note_on_c, 9, 59, 50
5, 35488, Note_on_c, 9, 59, 0
5, 35508, Note_on_c, 9, 59, 71
5, 35592, Note_on_c, 9, 59, 0
5, 35632, Note_on_c, 9, 59, 82
5, 35688, Note_on_c, 9, 59, 0
5, 35724, Note_on_c, 9, 59, 30
5, 35736, Note_on_c, 9, 59, 0
5, 35754, Note_on_c, 9, 59, 75
5, 35823, Note_on_c, 9, 59, 0
5, 35873, Note_on_c, 9, 59, 76
5, 35925, Note_on_c, 9, 59, 0
5, 35992, Note_on_c, 9, 59, 78
5, 36054, Note_on_c, 9, 59, 0
5, 36116, Note_on_c, 9, 59, 68
5, 36153, Note_on_c, 9, 59, 0
5, 36207, Note_on_c, 9, 59, 62
5, 36217, Note_on_c, 9, 59, 0
5, 36240, Note_on_c, 9, 59, 58
5, 36278, Note_on_c, 9, 59, 0
5, 36355, Note_on_c, 9, 59, 80
5, 36395, Note_on_c, 9, 59, 0
5, 36445, Note_on_c, 9, 59, 50
5, 36453, Note_on_c, 9, 59, 0
5, 36472, Note_on_c, 9, 59, 68
5, 36519, Note_on_c, 9, 59, 0
5, 36591, Note_on_c, 9, 59, 83
5, 36633, Note_on_c, 9, 59, 0
5, 36685, Note_on_c, 9, 59, 57
5, 36694, Note_on_c, 9, 59, 0
5, 36714, Note_on_c, 9, 59, 62
5, 36756, Note_on_c, 9, 59, 0
5, 36832, Note_on_c, 9, 59, 91
5, 36890, Note_on_c, 9, 59, 0
5, 36921, Note_on_c, 9, 59, 54
5, 36937, Note_on_c, 9, 59, 0
5, 36954, Note_on_c, 9, 59, 64
5, 37006, Note_on_c, 9, 59, 0
5, 37077, Note_on_c, 9, 59, 92
5, 37125, Note_on_c, 9, 59, 0
5, 37164, Note_on_c, 9, 59, 50
5, 37173, Note_on_c, 9, 59, 0
5, 37194, Note_on_c, 9, 59, 67
5, 37251, Note_on_c, 9, 59, 0
5, 37281, Note_on_c, 9, 59, 50
5, 37290, Note_on_c, 9, 59, 0
5, 37315, Note_on_c, 9, 59, 77
5, 37396, Note_on_c, 9, 59, 0
5, 37442, Note_on_c, 9, 59, 89
5, 37522, Note_on_c, 9, 59, 0
5, 37564, Note_on_c, 9, 59, 69
5, 37615, Note_on_c, 9, 59, 0
5, 37654, Note_on_c, 9, 59, 38
5, 37665, Note_on_c, 9, 59, 0
5, 37684, Note_on_c, 9, 59, 64
5, 37715, Note_on_c, 9, 59, 0
5, 37794, Note_on_c, 9, 59, 68
5, 37867, Note_on_c, 9, 59, 0
5, 37921, Note_on_c, 9, 59, 55
5, 37966, Note_on_c, 9, 59, 0
5, 38002, Note_on_c, 9, 59, 29
5, 38014, Note_on_c, 9, 59, 0
5, 38039, Note_on_c, 9, 59, 60
5, 38097, Note_on_c, 9, 59, 0
5, 38154, Note_on_c, 9, 59, 61
5, 38197, Note_on_c, 9, 59, 0
5, 38280, Note_on_c, 9, 59, 87
5, 38363, Note_on_c, 9, 59, 0
5, 38393, Note_on_c, 9, 59, 24
5, 38433, Note_on_c, 9, 59, 0
5, 38480, Note_on_c, 9, 59, 28
5, 38495, Note_on_c, 9, 59, 0
5, 38517, Note_on_c, 9, 59, 73
5, 38596, Note_on_c, 9, 59, 0
5, 38630, Note_on_c, 9, 59, 51
5, 38698, Note_on_c, 9, 59, 0
5, 38751, Note_on_c, 9, 59, 82
5, 38830, Note_on_c, 9, 59, 0
5, 38873, Note_on_c, 9, 59, 34
5, 38931, Note_on_c, 9, 59, 0
5, 38976, Note_on_c, 9, 59, 48
5, 39017, Note_on_c, 9, 59, 0
5, 39079, Note_on_c, 9, 59, 41
5, 39091, Note_on_c, 9, 59, 0
5, 39111, Note_on_c, 9, 59, 74
5, 39209, Note_on_c, 9, 59, 0
5, 39233, Note_on_c, 9, 59, 48
5, 39248, Note_on_c, 9, 59, 0
5, 39315, Note_on_c, 9, 59, 80
5, 39386, Note_on_c, 9, 59, 0
5, 39433, Note_on_c, 9, 59, 34
5, 39445, Note_on_c, 9, 59, 0
5, 39477, Note_on_c, 9, 59, 78
5, 39562, Note_on_c, 9, 59, 0
5, 39596, Note_on_c, 9, 59, 42
5, 39632, Note_on_c, 9, 59, 0
5, 39678, Note_on_c, 9, 59, 52
5, 39688, Note_on_c, 9, 59, 0
5, 39713, Note_on_c, 9, 59, 74
5, 39786, Note_on_c, 9, 59, 0
5, 39836, Note_on_c, 9, 59, 83
5, 39901, Note_on_c, 9, 59, 0
5, 39924, Note_on_c, 9, 59, 41
5, 39938, Note_on_c, 9, 59, 0
5, 39964, Note_on_c, 9, 59, 54
5, 39976, Note_on_c, 9, 59, 0
5, 40035, Note_on_c, 9, 59, 91
5, 40113, Note_on_c, 9, 59, 0
5, 40195, Note_on_c, 9, 59, 69
5, 40251, Note_on_c, 9, 59, 0
5, 40279, Note_on_c, 9, 59, 57
5, 40301, Note_on_c, 9, 59, 0
5, 40317, Note_on_c, 9, 59, 77
5, 40393, Note_on_c, 9, 59, 0
5, 40434, Note_on_c, 9, 59, 62
5, 40482, Note_on_c, 9, 59, 0
5, 40528, Note_on_c, 9, 59, 20
5, 40537, Note_on_c, 9, 59, 0
5, 40556, Note_on_c, 9, 59, 74
5, 40615, Note_on_c, 9, 59, 0
5, 40672, Note_on_c, 9, 59, 79
5, 40747, Note_on_c, 9, 59, 0
5, 40769, Note_on_c, 9, 59, 55
5, 40778, Note_on_c, 9, 59, 0
5, 40798, Note_on_c, 9, 59, 66
5, 40860, Note_on_c, 9, 59, 0
5, 40912, Note_on_c, 9, 59, 83
5, 40981, Note_on_c, 9, 59, 0
5, 41004, Note_on_c, 9, 59, 36
5, 41016, Note_on_c, 9, 59, 0
5, 41033, Note_on_c, 9, 59, 70
5, 41095, Note_on_c, 9, 59, 0
5, 41149, Note_on_c, 9, 59, 80
5, 41215, Note_on_c, 9, 59, 0
5, 41238, Note_on_c, 9, 59, 49
5, 41250, Note_on_c, 9, 59, 0
5, 41272, Note_on_c, 9, 59, 66
5, 41327, Note_on_c, 9, 59, 0
5, 41393, Note_on_c, 9, 59, 84
5, 41456, Note_on_c, 9, 59, 0
5, 41519, Note_on_c, 9, 59, 79
5, 41584, Note_on_c, 9, 59, 0
5, 41640, Note_on_c, 9, 59, 75
5, 41691, Note_on_c, 9, 59, 0
5, 41727, Note_on_c, 9, 59, 41
5, 41740, Note_on_c, 9, 59, 0
5, 41760, Note_on_c, 9, 59, 69
5, 41831, Note_on_c, 9, 59, 0
5, 41884, Note_on_c, 9, 59, 74
5, 41947, Note_on_c, 9, 59, 0
5, 41977, Note_on_c, 9, 59, 25
5, 41986, Note_on_c, 9, 59, 0
5, 42007, Note_on_c, 9, 59, 66
5, 42041, Note_on_c, 9, 59, 0
5, 42089, Note_on_c, 9, 59, 75
5, 42110, Note_on_c, 9, 59, 0
5, 42127, Note_on_c, 9, 59, 74
5, 42209, Note_on_c, 9, 59, 0
5, 42241, Note_on_c, 9, 59, 63
5, 42303, Note_on_c, 9, 59, 0
5, 42327, Note_on_c, 9, 59, 42
5, 42340, Note_on_c, 9, 59, 0
5, 42364, Note_on_c, 9, 59, 76
5, 42452, Note_on_c, 9, 59, 0
5, 42476, Note_on_c, 9, 59, 50
5, 42559, Note_on_c, 9, 59, 0
5, 42599, Note_on_c, 9, 59, 75
5, 42680, Note_on_c, 9, 59, 0
5, 42714, Note_on_c, 9, 59, 49
5, 42785, Note_on_c, 9, 59, 0
5, 42832, Note_on_c, 9, 59, 75
5, 42920, Note_on_c, 9, 59, 0
5, 42952, Note_on_c, 9, 59, 39
5, 42996, Note_on_c, 9, 59, 0
5, 43033, Note_on_c, 9, 59, 42
5, 43043, Note_on_c, 9, 59, 0
5, 43070, Note_on_c, 9, 59, 66
5, 43165, Note_on_c, 9, 59, 0
5, 43194, Note_on_c, 9, 59, 60
5, 43267, Note_on_c, 9, 59, 0
5, 43314, Note_on_c, 9, 59, 73
5, 43391, Note_on_c, 9, 59, 0
5, 43434, Note_on_c, 9, 59, 63
5, 43511, Note_on_c, 9, 59, 0
5, 43554, Note_on_c, 9, 59, 68
5, 43629, Note_on_c, 9, 59, 0
5, 43675, Note_on_c, 9, 59, 71
5, 43755, Note_on_c, 9, 59, 0
5, 43797, Note_on_c, 9, 59, 70
5, 43861, Note_on_c, 9, 59, 0
5, 43885, Note_on_c, 9, 59, 49
5, 43903, Note_on_c, 9, 59, 0
5, 43920, Note_on_c, 9, 59, 63
5, 43997, Note_on_c, 9, 59, 0
5, 44035, Note_on_c, 9, 59, 71
5, 44116, Note_on_c, 9, 59, 0
5, 44160, Note_on_c, 9, 59, 71
5, 44230, Note_on_c, 9, 59, 0
5, 44251, Note_on_c, 9, 59, 59
5, 44262, Note_on_c, 9, 59, 0
5, 44283, Note_on_c, 9, 59, 68
5, 44367, Note_on_c, 9, 59, 0
5, 44407, Note_on_c, 9, 59, 72
5, 44478, Note_on_c, 9, 59, 0
5, 44528, Note_on_c, 9, 59, 73
5, 44590, Note_on_c, 9, 59, 0
5, 44614, Note_on_c, 9, 59, 44
5, 44632, Note_on_c, 9, 59, 0
5, 44649, Note_on_c, 9, 59, 71
5, 44721, Note_on_c, 9, 59, 0
5, 44761, Note_on_c, 9, 59, 75
5, 44841, Note_on_c, 9, 59, 0
5, 44880, Note_on_c, 9, 59, 74
5, 44946, Note_on_c, 9, 59, 0
5, 44969, Note_on_c, 9, 59, 40
5, 44984, Note_on_c, 9, 59, 0
5, 45002, Note_on_c, 9, 59, 73
5, 45082, Note_on_c, 9, 59, 0
5, 45117, Note_on_c, 9, 59, 78
5, 45182, Note_on_c, 9, 59, 0
5, 45232, Note_on_c, 9, 59, 77
5, 45301, Note_on_c, 9, 59, 0
5, 45324, Note_on_c, 9, 59, 39
5, 45337, Note_on_c, 9, 59, 0
5, 45356, Note_on_c, 9, 59, 71
5, 45430, Note_on_c, 9, 59, 0
5, 45473, Note_on_c, 9, 59, 76
5, 45538, Note_on_c, 9, 59, 0
5, 45561, Note_on_c, 9, 59, 40
5, 45574, Note_on_c, 9, 59, 0
5, 45595, Note_on_c, 9, 59, 74
5, 45669, Note_on_c, 9, 59, 0
5, 45711, Note_on_c, 9, 59, 79
5, 45789, Note_on_c, 9, 59, 0
5, 45831, Note_on_c, 9, 59, 75
5, 45895, Note_on_c, 9, 59, 0
5, 45918, Note_on_c, 9, 59, 47
5, 45935, Note_on_c, 9, 59, 0
5, 45952, Note_on_c, 9, 59, 71
5, 46036, Note_on_c, 9, 59, 0
5, 46073, Note_on_c, 9, 59, 81
5, 46153, Note_on_c, 9, 59, 0
5, 46193, Note_on_c, 9, 59, 78
5, 46253, Note_on_c, 9, 59, 0
5, 46281, Note_on_c, 9, 59, 34
5, 46296, Note_on_c, 9, 59, 0
5, 46316, Note_on_c, 9, 59, 75
5, 46368, Note_on_c, 9, 59, 0
5, 46397, Note_on_c, 9, 59, 71
5, 46415, Note_on_c, 9, 59, 0
5, 46433, Note_on_c, 9, 59, 91
5, 46519, Note_on_c, 9, 59, 0
5, 46551, Note_on_c, 9, 59, 76
5, 46611, Note_on_c, 9, 59, 0
5, 46634, Note_on_c, 9, 59, 47
5, 46653, Note_on_c, 9, 59, 0
5, 46673, Note_on_c, 9, 59, 74
5, 46738, Note_on_c, 9, 59, 0
5, 46790, Note_on_c, 9, 59, 81
5, 46856, Note_on_c, 9, 59, 0
5, 46910, Note_on_c, 9, 59, 80
5, 46963, Note_on_c, 9, 59, 0
5, 46963, End_track
6, 0, Start_track
6, 0, MIDI_port, 0
6, 0, Title_t, ""
6, 1402, Note_on_c, 9, 36, 44
6, 1415, Note_on_c, 9, 36, 0
6, 1445, Note_on_c, 9, 36, 48
6, 1495, Note_on_c, 9, 36, 0
6, 2348, Note_on_c, 9, 36, 58
6, 2357, Note_on_c, 9, 36, 0
6, 2709, Note_on_c, 9, 36, 49
6, 2720, Note_on_c, 9, 36, 0
6, 3197, Note_on_c, 9, 36, 38
6, 3210, Note_on_c, 9, 36, 0
6, 3318, Note_on_c, 9, 36, 34
6, 3347, Note_on_c, 9, 36, 0
6, 3362, Note_on_c, 9, 36, 25
6, 3415, Note_on_c, 9, 36, 0
6, 4042, Note_on_c, 9, 36, 38
6, 4054, Note_on_c, 9, 36, 0
6, 4164, Note_on_c, 9, 36, 55
6, 4180, Note_on_c, 9, 36, 0
6, 4279, Note_on_c, 9, 36, 66
6, 4289, Note_on_c, 9, 36, 0
6, 4317, Note_on_c, 9, 51, 48
6, 4333, Note_on_c, 9, 51, 0
6, 4641, Note_on_c, 9, 36, 64
6, 4651, Note_on_c, 9, 36, 0
6, 4687, Note_on_c, 9, 36, 53
6, 4699, Note_on_c, 9, 36, 0
6, 5122, Note_on_c, 9, 36, 33
6, 5132, Note_on_c, 9, 36, 0
6, 5154, Note_on_c, 9, 51, 39
6, 5205, Note_on_c, 9, 51, 0
6, 5841, Note_on_c, 9, 36, 34
6, 5852, Note_on_c, 9, 36, 0
6, 6205, Note_on_c, 9, 36, 29
6, 6215, Note_on_c, 9, 36, 0
6, 6243, Note_on_c, 9, 46, 47
6, 6276, Note_on_c, 9, 46, 0
6, 6553, Note_on_c, 9, 36, 75
6, 6572, Note_on_c, 9, 36, 0
6, 6588, Note_on_c, 9, 46, 75
6, 6622, Note_on_c, 9, 46, 0
6, 7164, Note_on_c, 9, 36, 52
6, 7178, Note_on_c, 9, 36, 0
6, 7204, Note_on_c, 9, 36, 35
6, 7246, Note_on_c, 9, 36, 0
6, 7409, Note_on_c, 9, 36, 33
6, 7419, Note_on_c, 9, 36, 0
6, 7524, Note_on_c, 9, 46, 69
6, 7542, Note_on_c, 9, 46, 0
6, 7768, Note_on_c, 9, 36, 61
6, 7778, Note_on_c, 9, 36, 0
6, 7995, Note_on_c, 9, 36, 62
6, 8009, Note_on_c, 9, 36, 0
6, 8030, Note_on_c, 9, 36, 15
6, 8091, Note_on_c, 9, 36, 0
6, 8175, Note_on_c, 9, 36, 53
6, 8190, Note_on_c, 9, 36, 0
6, 9072, Note_on_c, 9, 36, 49
6, 9086, Note_on_c, 9, 36, 0
6, 9124, Note_on_c, 9, 36, 30
6, 9145, Note_on_c, 9, 36, 0
6, 9202, Note_on_c, 9, 46, 43
6, 9216, Note_on_c, 9, 46, 0
6, 9677, Note_on_c, 9, 36, 43
6, 9689, Note_on_c, 9, 36, 0
6, 9725, Note_on_c, 9, 46, 35
6, 9778, Note_on_c, 9, 46, 0
6, 9918, Note_on_c, 9, 36, 54
6, 9928, Note_on_c, 9, 36, 0
6, 9963, Note_on_c, 9, 46, 39
6, 10019, Note_on_c, 9, 46, 0
6, 11006, Note_on_c, 9, 46, 37
6, 11015, Note_on_c, 9, 46, 0
6, 11606, Note_on_c, 9, 36, 46
6, 11616, Note_on_c, 9, 36, 0
6, 11639, Note_on_c, 9, 36, 58
6, 11673, Note_on_c, 9, 36, 0
6, 11766, Note_on_c, 9, 36, 49
6, 11818, Note_on_c, 9, 36, 0
6, 11844, Note_on_c, 9, 36, 41
6, 11862, Note_on_c, 9, 36, 0
6, 12916, Note_on_c, 9, 36, 71
6, 12932, Note_on_c, 9, 36, 0
6, 12960, Note_on_c, 9, 51, 42
6, 12993, Note_on_c, 9, 51, 0
6, 13398, Note_on_c, 9, 36, 47
6, 13408, Note_on_c, 9, 36, 0
6, 13437, Note_on_c, 9, 51, 44
6, 13437, Note_on_c, 9, 46, 45
6, 13471, Note_on_c, 9, 51, 0
6, 13475, Note_on_c, 9, 46, 0
6, 13644, Note_on_c, 9, 36, 40
6, 13655, Note_on_c, 9, 36, 0
6, 13686, Note_on_c, 9, 51, 45
6, 13687, Note_on_c, 9, 46, 43
6, 13720, Note_on_c, 9, 51, 0
6, 13724, Note_on_c, 9, 46, 0
6, 13877, Note_on_c, 9, 36, 54
6, 13888, Note_on_c, 9, 36, 0
6, 14360, Note_on_c, 9, 36, 30
6, 14369, Note_on_c, 9, 36, 0
6, 14961, Note_on_c, 9, 36, 36
6, 14972, Note_on_c, 9, 36, 0
6, 15005, Note_on_c, 9, 46, 44
6, 15053, Note_on_c, 9, 46, 0
6, 15206, Note_on_c, 9, 36, 28
6, 15215, Note_on_c, 9, 36, 0
6, 15438, Note_on_c, 9, 36, 45
6, 15448, Note_on_c, 9, 36, 0
6, 15483, Note_on_c, 9, 46, 60
6, 15508, Note_on_c, 9, 46, 0
6, 15679, Note_on_c, 9, 36, 26
6, 15688, Note_on_c, 9, 36, 0
6, 15718, Note_on_c, 9, 51, 71
6, 15753, Note_on_c, 9, 51, 0
6, 15822, Note_on_c, 9, 36, 76
6, 15832, Note_on_c, 9, 36, 0
6, 15832, End_track
0, 0, End_of_file
